<?xml version="1.0" encoding="utf-8"?>
<!-- Generator: Adobe Illustrator 18.0.0, SVG Export Plug-In . SVG Version: 6.00 Build 0)  -->
<!DOCTYPE svg PUBLIC "-//W3C//DTD SVG 1.1//EN" "http://www.w3.org/Graphics/SVG/1.1/DTD/svg11.dtd">
<svg version="1.1" id="Layer_1" xmlns="http://www.w3.org/2000/svg" xmlns:xlink="http://www.w3.org/1999/xlink" x="0px" y="0px"
	 viewBox="0 0 432 432" enable-background="new 0 0 432 432" xml:space="preserve">
<g>
	<g>
		<path d="M152.3,198.7c0.7-0.1,1.4-0.1,2.1-0.1c3.1-0.1,5.6-2.6,5.8-6c0.1-2.9-1-6.4-4.9-8.2c-0.6-0.3-1.3-0.4-1.9-0.7
			c-0.6-0.3-0.9-0.2-0.9,0.6l-0.5,6.7c0,0,0,0-0.1,0l-0.5,6.8C151.5,198.5,151.5,198.8,152.3,198.7z M207,202.7
			c-0.5-3.2-1-6.3-2-9.7c-2.3,5.4-4,10.7-5.9,16c-0.3,0.8,0.3,0.6,0.6,0.7c2.5,0.2,4.9,0.4,7.4,0.6c0.9,0.1,0.9-0.2,0.8-1
			C207.6,207,207.3,204.8,207,202.7z M159.2,201.8c-2.5-1-4.9-0.8-7.3-0.6c-0.5,0-0.5,0.4-0.5,0.8l-0.4,6.1c0,0,0,0,0.1,0
			c-0.1,2-0.3,4-0.4,6.1c0,0.7,0.1,1,0.8,1.1c1,0.1,2.1,0.4,3.1,0.5c2.6,0.1,5.1-0.3,7.1-1.9c1.8-1.5,2.7-3.4,2.2-6.1
			C163.1,205,161.6,202.9,159.2,201.8z M297.4,174.7c-1.6-0.1-3.3-0.1-5,0.1c-4.5,0.5-8.9,1.2-13.4,1.7c-22.2,2.2-44.4,4.3-66.5,6.6
			c-14,1.5-28,2-41.7-1.5c-12.2-3.1-24.2-6.8-36.3-10.4c-3.7-1.1-5.6-0.9-7.8,1.9c1.7,1.8,3.6,3.6,5.4,5.5c-2,0.1-3.7-0.4-5.3-1
			c-4.8-2.1-9.7-4.2-14.5-6.3c-2.3-1-4.3-0.6-6.1,1.3c1.8,3,3.5,6,5.3,9.1c-4.7-0.1-9.1-3.9-14,0.5c4.7,4.7,9,9.2,13.6,13.4
			c1.7,1.6,2.9,3.2,2.7,5.5c-0.2,2.1,0.8,3.4,2.4,4.6c18.4,14,39.1,22.8,61.9,26.5c19.9,3.2,39.9,2.7,59.9,0.5
			c17.5-1.9,34.2-6,49.9-14.2c0.9-0.4,2-1.6,1.9-2.3c-0.5-3.2,0.1-5.9,1.8-8.6c0.8-1.2,1-3,1-4.5c0.1-3.1,0-6.3-0.4-9.4
			c-0.2-2.2,0.4-3.7,1.8-5.2c2.3-2.3,4.6-4.6,6.4-7.2C303.2,177.5,301.9,175.1,297.4,174.7z M162.3,216.4c-1.7,1.3-3.7,1.7-5.8,1.7
			c-4.3-0.1-8.6-1-12.8-2c-0.9-0.2-1.9-0.4-2.9-0.7c-0.6-0.2-1.3-0.6-1.2-1.5c0.1-0.9,0.8-0.9,1.4-0.6c1.1,0.4,1.4,0,1.4-1.3
			c0-10,0.8-19.8,1.4-29.7c0-0.7-0.1-0.9-0.7-1c-0.6-0.1-1.4-0.3-1.3-1.2c0.1-0.8,0.6-1.1,1.4-1c4.3,0.4,8.5,1.6,12.7,3.4
			c6.2,2.7,8.1,11.7,3.2,16.1c-0.1,0.2-0.3,0.2-0.5,0.5c0.2,0.1,0.4,0.3,0.6,0.3c3.6,1.4,5.6,4.1,6.3,8.1
			C166.4,211.4,165,214.3,162.3,216.4z M189.4,192.9c-0.2,0.5-0.7,0.8-1.3,0.6c-0.7-0.1-0.8-0.6-0.9-1.1c0-0.1,0-0.1,0-0.1
			c-0.1-0.7,0.3-1.5-0.2-2c-0.6-0.4-1.4-0.3-2.2-0.4c-1.1-0.2-2.3-0.3-3.5-0.6c-0.6-0.1-0.9,0.1-1,0.7c-0.9,4-1.3,8.1-1.7,12.2
			c0,0.4,0,0.7,0.5,0.7c1.5,0,2.8,0.3,4.2,0.5c0.6,0.1,0.7-0.1,0.8-0.7c0.1-0.8,0-1.8,1.1-1.6c1.3,0.2,1,1.2,0.9,2
			c-0.1,1.7-0.4,3.4-0.7,5.1c0,0.4-0.2,0.8-0.7,0.7c-0.5-0.1-0.6-0.5-0.7-0.9c0-0.7,0-1.5-0.1-2.2c0-0.5-0.1-0.7-0.6-0.7
			c-1.3,0.2-2.8-0.2-4.2-0.4c-0.4,0-0.8-0.1-0.8,0.5c0,3.7-0.7,7.3-0.1,11c0.1,1,0.3,2.1,0.8,3c0.5,0.9,1.1,1.4,2.2,1
			c0.5-0.2,1-0.3,1.5-0.5c0.7-0.2,0.9-0.6,0.8-1.3c-0.2-1,0.4-1.6,1.3-1.6c1,0,1.2,0.7,1.4,1.5c0.1,0.9,0.3,1.9,0.5,2.8
			c0.1,0.5,0.3,1.1-0.4,1.3c-0.6,0.1-1.3-0.1-1.6-0.6c-0.4-0.9-0.9-0.7-1.5-0.4c-1.9,0.7-3.6,1.1-5.6,1.1c-3.1-0.1-5.9-2-7.1-4.9
			c-1.2-3.1-1.5-6.3-1.4-9.5c0-1,0.1-2,0.2-3.1c0.5-5.9,1.4-11.6,2.2-17.4c0.2-1.7,0.5-1.8,2-1.7c4.4,0.3,8.8,1.1,13.2,2
			c0.4,0.1,0.8,0.2,1.2-0.1c0.9-0.6,1.8-0.1,1.9,0.9C190,190.4,189.8,191.7,189.4,192.9z M218.5,226.5c-0.5,0-1,0.1-1.5,0.1
			c-1.9,0-3.9-0.1-5.9,0.2c-0.7,0.1-1.4-0.2-2-0.4c-0.5-0.2-0.9-0.6-0.8-1.2c0.1-0.7,0.5-1.1,1-1c0.7,0,0.7-0.4,0.6-0.9
			c-0.5-3.5-1-7-1.4-10.5c-0.1-0.5-0.3-0.6-0.6-0.6c-3-0.4-6-0.5-9-0.6c-0.4,0-0.6,0.1-0.8,0.6c-1.1,3.5-2.3,7-3.5,10.5
			c-0.2,0.5,0.1,0.7,0.5,0.8c0.7,0.2,1.4,0.4,2.1,0.6c0.6,0.2,1.1,0.6,0.9,1.3c-0.2,0.8-0.8,0.7-1.4,0.5c-1.4-0.4-2.9-0.4-4.2-1.1
			c-0.3-0.2-0.8-0.4-1-0.6c-0.5-0.4-0.6-0.8-0.5-1.4c0.2-0.5,0.5-0.8,1.1-0.7c0.4,0,0.6-0.1,0.8-0.6c3.3-9.7,7-19.2,10.1-29.1
			c0.2-0.6,0.4-1.1-0.6-1.1c-0.4,0-0.8-0.3-0.7-0.8c0-0.7,0.4-0.9,0.9-1c1.2,0,2.4,0,3.6,0c0.8,0.1,1.6,0.1,2.4,0.2
			c1.8,0.1,3.5,0,5.3,0.3c0.7,0,1.3,0.2,1.4,0.9c0.1,0.7-0.3,1.2-0.9,1.3c-0.4,0.1-0.3,0.4-0.2,0.7c0.9,6.7,1.4,13.5,2.4,20.1
			c0.5,3.3,0.9,6.7,1.1,10c0.1,0.8,0.3,1.2,1.1,1.2c0.6,0,1.3,0.2,1.3,1.1C220,226.2,219.2,226.4,218.5,226.5z M242.2,217.2
			c-0.3,0.4-0.7,0.5-1.1,0.3c-0.6-0.3-0.8,0-1.1,0.5c-1.7,2.8-3.6,5.4-6.2,7.4c-3.6,2.8-7.1,2.5-10-0.8c-1.6-1.9-2.6-4.2-3-6.8
			c-0.4-2.7-0.6-5.5-0.4-8.3c0.4-4.6,1.2-9,3.5-13.1c1.4-2.3,3.1-4,5.3-5.3c3.4-1.9,7.9-0.8,10.3,2.5c0.3,0.4,0.5,0.7,0.7,1.1
			c0.4,0.9,0.7,1.8,2,0.8c0.3-0.3,0.9-0.2,1.1,0.3c0.3,0.5,0.2,1.1-0.2,1.4c-1.1,1.1-2.3,2-3.7,2.5c-0.3,0.1-0.7,0.1-0.9-0.2
			c-0.2-0.4-0.1-0.8,0.3-1.1c0.9-0.8,0.5-1.5,0.1-2.1c-1.5-2.4-3.5-2.4-5.4-0.1c-0.9,1-1.5,2.1-1.9,3.4c-1.5,4.8-2.4,9.7-1.8,14.6
			c0.3,2.2,1,4.1,2.2,5.7c0.3,0.4,0.7,0.8,1.1,1.1c1.7,1.2,2.3,1.1,3.7-0.7c0.7-1,1.4-2.1,2.1-3.1c0.3-0.4,0.3-0.7-0.1-1
			c-0.5-0.5-0.7-1.2,0-2c0.7-0.7,1.3-0.5,1.9,0c0.7,0.5,1.2,1.2,1.6,2C242.6,216.3,242.5,216.8,242.2,217.2z M275,189.3
			c-0.7,0.2-0.9,0.5-0.9,1.3c-0.4,3.6-1,7.2-1.5,10.8c-0.5,3.5-0.9,6.9-1.2,10.3c-0.3,3-0.9,6-1,9c0,0.4-0.2,0.9,0.5,0.8
			c0.7-0.1,1.4,0.1,1.3,1c-0.1,1-0.9,1.3-1.7,1.5c-1.6,0.3-3.1,0.5-4.7,0.8c-0.8,0.2-1.7,0.3-2.5,0.4c-0.7,0.1-1.2-0.2-1.3-1
			c0-0.8,0.4-1.3,1.1-1.5c0.6-0.2,0.6-0.6,0.6-1c0.1-4,0.3-8,0.7-12c0-0.7-0.2-0.8-0.7-0.8c-2.2,0.2-4.3,0.4-6.5,0.6
			c-0.6,0.1-0.6,0.5-0.7,1c-0.1,2.6-0.3,5.3-0.4,7.9c-0.1,1.3-0.1,2.7-0.2,4c0,0.6,0.1,1,0.7,0.9c0.6,0,1.1,0.3,1,1
			c-0.1,0.8-0.7,1-1.3,1.1c-3.1,0.4-6.1,0.8-9.2,1.1c-0.6,0.1-1.1-0.2-1.2-0.9c-0.1-0.8,0.4-1.2,1.1-1.4c0.4-0.1,0.7-0.2,0.7-0.8
			c-0.5-7.6,0.3-15.4,0.8-23.1c0.2-2.3,0.4-4.7,0.6-7c0.1-0.7,0.1-1.1-0.7-0.9c-0.5,0.1-1.1-0.2-1.1-0.9c0-0.7,0.5-1.2,1.1-1.4
			c0.6-0.1,1.1-0.3,1.7-0.3c2.7-0.2,5.4-0.5,8.1-0.7c0.2,0,0.5,0,0.7,0c0.6,0,1.1,0.2,1.1,1c-0.1,0.8-0.6,1.1-1.2,1.1
			c-0.5,0-0.7,0.1-0.8,0.8c-0.2,4.7-0.9,9.5-1.3,14.2c-0.1,1,0.2,1.2,1.1,1.2c1.9-0.1,3.9-0.2,5.8-0.3c0.8,0,1-0.3,1.1-1.2
			c0.4-4.8,0.8-9.5,1.3-14.3c0-0.4,0-0.7-0.4-0.8c-0.5-0.2-0.7-0.6-0.5-1.2c0.2-0.6,0.5-0.8,1.1-1c1.3-0.3,2.5-0.2,3.8-0.4
			c1.6-0.2,3.1-0.4,4.7-0.8c0.5-0.1,1-0.2,1.3,0.3C276.3,188.2,276,189,275,189.3z"/>
		<path d="M384.7,209.2c-1.4-0.7-3.1-1.1-4.8-1.2c-1.8-0.1-3.5-0.1-5.2,0c-3.7,0.4-7.2,1.3-10.5,2.6c-3.3,1.3-6.5,2.8-9.6,4.4
			c-3.1,1.6-6.2,3.3-9.2,4.9c-3,1.6-6.3,3-9.7,4.1c1.4-3.7,2.9-6.7,4.5-9.2c-2.2-0.1-4.1-0.7-5.5-1.9c-1.4-1.2-2.3-2.7-2.8-4.5
			c-0.3-1-0.4-2.1-0.5-3.3c-1.2,1.1-2.4,2.4-3.6,4.1c-3.1,4.5-5.8,10.1-8.1,17c-2.8,0-5.8-0.4-9.1-1.2c-3.3-0.8-6-2.3-8-4.3
			c-0.5-0.5-1.1-0.9-1.8-0.9c-0.6-0.1-1.1,0.1-1.5,0.5c-0.4,0.4-0.7,0.9-0.7,1.5c-0.1,0.6,0.2,1.2,0.9,1.8l0.2,0.2
			c2.3,2.3,5.3,3.9,8.8,4.7c3.5,0.8,6.8,1.2,10,1.2c-2.2,7.4-3.8,15.4-4.7,23.9c-1,8.5-1,16.3,0,23.5c-0.6,2.5-1.4,5.1-2.3,7.8
			c-1.2,3.3-2.5,6.3-4.1,8.9c-1.6,2.6-3.3,3.9-5.3,3.9c-1.6,0-2.7-1.4-3.1-4.3c-0.3-3,0.1-7,1.1-11.9c1-4.9,1.9-9.7,2.5-14.3
			c0.6-4.7,0.6-8.7,0-12.1c-0.6-3.4-2.7-5.1-6.3-5.1c-1.4,0-2.5,0.5-3.5,1.5c-1,1-1.4,2.5-1.4,4.4c0,3-0.6,7.1-1.8,12.4
			c-1.2,5.2-2.6,10.4-4.2,15.5c-1.6,5.1-3.4,9.5-5.4,13.2c-1.9,3.7-3.7,5.6-5.4,5.6c-2.3,0-4.1-1.5-5.3-4.6c-1.2-3-1.8-6.8-1.8-11.4
			s0.5-9.4,1.4-14.7c1-5.2,2.3-10.1,4.1-14.7c1.8-4.5,3.9-8.3,6.3-11.4c2.4-3,5.1-4.6,8.1-4.6c1,0,1.7,0.3,2.3,1
			c0.5,0.7,0.8,1.5,0.8,2.5c0,1.5,0.7,2.3,2,2.5c1.3,0.1,2-0.7,2-2.5c0-3.5-1-6.2-3.1-8c-2.1-1.8-4.5-2.7-7.4-2.7
			c-5.5,0-10.3,1.9-14.5,5.7c-4.2,3.8-7.6,8.5-10.3,14.1c-2.7,5.6-4.5,11.7-5.6,18.2c-0.7,4.5-1,8.8-0.9,12.9
			c-1.2,2.2-2.5,4.4-3.9,6.6c-2.5,3.8-5.5,7.1-8.9,9.9c-3.4,2.7-7,4.1-11,4.1c-4.5,0-7.8-1.7-9.7-5.2c-1.9-3.4-2.8-7.5-2.5-12.2
			c1.9,1.1,3.8,1.7,5.8,1.7c3.7,0,7.2-1.4,10.6-4.1c3.4-2.7,6.3-6.2,8.9-10.3c2.5-4.1,4.5-8.6,6-13.5c1.4-4.9,2-9.4,1.8-13.5
			c-0.3-4.1-1.5-7.6-3.7-10.3c-2.2-2.7-5.6-4.1-10.3-4.1c-5.1,0-9.8,1.9-14.1,5.7c-4.3,3.8-8,8.5-10.9,14.1c-3,5.6-5,11.7-6.2,18.2
			c-0.1,0.8-0.2,1.5-0.3,2.2c-0.2,0.1-0.3,0.2-0.5,0.3c-2.5,1.4-5.5,2.5-9,3.5c1.2-4.3,1.9-8.5,1.9-12.7c0-4.2-0.6-7.9-1.9-11.2
			c-1.2-3.3-3.2-6-5.8-8c-2.6-2.1-5.9-3.1-9.9-3.1c-4.5,0-8,1.6-10.4,4.8c-2.4,3.2-4.2,6.8-5.3,10.8c-0.6-4.1-1.7-7.6-3.5-10.3
			c-1.8-2.7-4.9-4.1-9.3-4.1c-1.5,0-2.7,0.3-3.5,0.8c-0.8,0.6-1.4,1.2-1.6,2.1c-0.3,0.8-0.3,1.6,0,2.4c0.3,0.8,0.8,1.3,1.4,1.8
			c1.4,1.1,2.3,3,2.9,5.7c0.5,2.7,0.9,5.6,1,8.8c0.1,2.1,0.1,4.3,0.1,6.5c-0.7,2.2-1.6,4.6-2.8,7.3c-1.8,4.1-4,8.1-6.5,12
			c-2.5,3.8-5.5,7.1-8.9,9.9c-3.4,2.7-7,4.1-11,4.1c-4.5,0-7.8-1.7-9.7-5.2c-1.9-3.4-2.8-7.5-2.5-12.2c1.9,1.1,3.8,1.7,5.8,1.7
			c3.7,0,7.2-1.4,10.6-4.1c3.4-2.7,6.3-6.2,8.9-10.3c2.5-4.1,4.5-8.6,6-13.5c1.4-4.9,2-9.4,1.8-13.5c-0.3-4.1-1.5-7.6-3.7-10.3
			c-2.2-2.7-5.6-4.1-10.3-4.1c-5.1,0-9.8,1.9-14.1,5.7c-4.3,3.8-8,8.5-10.9,14.1c-3,5.6-5,11.7-6.2,18.2c-1.2,6.5-1.1,12.6,0.1,18.2
			c0.4,1.7,0.9,3.2,1.5,4.8c-1.9,6.2-4.2,12.3-6.8,18.1c-2.1,4.3-4.3,6.4-6.6,6.4c-2.2,0-3.9-1.6-5.2-4.9c-1.2-3.3-1.2-7.4,0-12.4
			c1.1-4.4,2.4-9.3,4-14.7c1.6-5.4,2.6-10.6,3.1-15.6c0.5-4.9,0.1-9.4-1.1-13.3c-1.2-3.9-4.2-6.6-8.9-8.1c3.4-1.8,6.7-4.5,9.7-8.1
			c3-3.6,5.6-7.7,7.6-12.2c2.1-4.5,3.5-9,4.4-13.6c0.9-4.6,1-8.8,0.2-12.7c-0.8-3.8-2.5-7-5.4-9.5c-2.8-2.5-6.8-3.7-12.1-3.7
			c-3.4,0-6.5,1.9-9.2,5.7c-2.7,3.8-5,8.3-6.9,13.5c-1.9,5.2-3.5,10.6-4.8,16.1c-1.3,5.5-2.3,10-3,13.4c0-3.4-0.7-6.6-2.2-9.6
			c-1.4-3-4.5-4.4-9.2-4.4c-1.9,0-3.4,0.6-4.5,1.6c-1.1,1.1-1.6,2.1-1.6,2.9c0,0.4,0.3,1,1,1.6c1.1,1.2,1.8,3.2,2.1,6
			c0.3,2.8,0.3,5.9,0,9.6c-0.3,3.6-0.7,7.5-1.3,11.6c-0.6,4.1-1.2,8.1-1.9,12c-0.6,3.9-1.1,7.4-1.3,10.6c-0.3,3.2-0.3,5.7,0,7.5
			c0.7,3.6,2,6.6,3.8,9c1.9,2.4,4,4,6.5,4.6c0.8,0.3,1.5,0.2,2.2-0.1c0.6-0.3,0.9-1.1,0.7-2.2c-0.1-1.7-0.2-3.2-0.2-4.7
			c0-1.5,0.1-3,0.4-4.5c0.4-2.7,1.1-7.4,2.1-13.9c1-6.5,2.2-13.8,3.7-21.8c1.1,1.5,2.8,2,5.2,1.5c2.3-0.5,4.2-1,5.6-1.5
			c2.9,0.4,4.7,2.1,5.4,5.1c0.7,3,0.8,6.4,0.2,10.4c-0.6,4-1.4,8.1-2.7,12.4c-1.2,4.3-2.3,7.9-3.1,10.9c-0.8,2.9-1.3,6.1-1.4,9.6
			c-0.1,3.5,0.3,6.7,1.3,9.7c1,3,2.7,5.4,4.9,7.4c2.3,2,5.5,3,9.6,3c4.9,0,8.9-3,12-8.9c1.6-3.4,3.3-7.4,4.8-11.9
			c0.4-1.2,0.8-2.3,1.2-3.5c1.1,1.8,2.4,3.4,3.9,4.9c3.8,3.8,9.4,5.7,16.7,5.7c4.5,0,8.7-1.4,12.4-4.3c3.7-2.9,7-6.4,9.9-10.5
			c2.6-3.8,4.9-7.8,6.7-12c-0.1,3.3-0.3,6.7-0.5,10.1c-0.7,3.7-1.6,7.7-2.7,12.1c-1.1,4.3-2.3,8.7-3.5,13s-2.4,8.6-3.4,12.7
			c-1,4.1-1.8,7.9-2.2,11.3c-0.3,1.6-0.4,3.4-0.4,5.2c0,1.8,0.2,3.4,0.6,4.8c0.4,1.4,1.2,2.6,2.3,3.6c1.1,1,2.7,1.4,4.7,1.4
			c1.5,0,2.8-0.5,4-1.4c1.2-1,2.2-2.2,3.1-3.6c0.9-1.4,1.6-3,2.3-4.7c0.6-1.7,1.1-3.3,1.5-4.6c1.6-5.2,3-11,3.9-17.3
			c1-6.3,1.8-12.9,2.5-19.6c3.3,1.1,6.6,0.9,9.8-0.5c3.2-1.4,6.2-3.5,9-6.2c2.7-2.7,5.2-5.6,7.2-8.9c2.1-3.2,3.5-6.1,4.3-8.6
			c3.9-1,7.4-2.2,10.5-3.6c-0.2,4.1,0,8.1,0.8,11.8c1.2,5.6,3.8,10.3,7.6,14.1c3.8,3.8,9.4,5.7,16.7,5.7c4.5,0,8.7-1.4,12.4-4.3
			c3.7-2.9,7-6.4,9.9-10.5c0.7-1.1,1.5-2.2,2.1-3.3c0.8,4.9,2.3,9,4.6,12.4c2.5,3.8,6.1,5.7,10.8,5.7c2.6,0,5-1,7.2-3.1
			c2.2-2.1,4.2-4.5,5.9-7.4c1.7-2.9,3.2-5.9,4.4-9.2c1.2-3.2,2.2-6.1,2.9-8.6c-0.3,2.2-0.3,4.5-0.1,6.9c0.2,2.4,0.7,4.6,1.5,6.7
			c0.8,2.1,2,3.7,3.6,5c1.6,1.3,3.6,2,6.1,2c4,0,7.1-2.1,9.5-6.4c1.2-2.1,2.4-4.4,3.5-7c0.7-1.6,1.3-3.3,1.9-4.8
			c1.1,4.2,2.6,7.9,4.6,11c3.1,4.8,7.6,7.2,13.5,7.2c2.5,0,4.7-0.8,6.6-2.5c1.9-1.7,3.6-3.9,5.2-6.8c1.5-2.9,2.9-6.3,4.1-10.3
			c1.2-4,2.5-8.4,3.7-13.2c0.5-1.8,0.2-2.8-1-3c-1.2-0.2-2.1,0.7-2.5,2.6c-0.8,3.8-1.8,7.5-2.9,10.9c-1.1,3.4-2.3,6.4-3.7,9
			c-1.4,2.5-2.9,4.6-4.4,6.1c-1.6,1.5-3.3,2.3-5.1,2.3c-2.9,0-4.9-2.3-6-6.9c-1.1-4.6-1.5-10.3-1.2-17.2c0.3-6.9,1.1-14.3,2.5-22.2
			c1.4-7.9,3.1-15.1,5.2-21.5c3.6-0.4,6.9-1.1,9.9-2.2c3-1,6.1-2.1,9.2-3.1c3.1-1,6.4-2,9.9-2.9c3.5-0.9,7.5-1.5,12.1-1.8
			c2.2-0.1,4.3,0.2,6.3,1.1c2,0.9,3,2.3,3,4.2c0,0.6,0.3,0.8,0.8,0.8c1.1-0.3,2.2-1.3,3.3-3.1c1.1-1.8,1.6-3.7,1.6-5.8
			c0-2.2-0.5-4-1.4-5.3C387.3,210.9,386.1,209.9,384.7,209.2z M219,273.8c0.8-3.6,1.8-7,3-10.3c1.2-3.3,2.5-6.3,4-9.1
			c1.5-2.8,3.1-5.2,4.7-7.1c2.7-3.3,5.3-4.9,7.6-4.9c1.6,0,2.8,1.1,3.4,3.3c0.6,2.2,0.8,4.9,0.5,8.2c-0.3,3.3-1,6.8-2.1,10.6
			c-1.1,3.8-2.5,7.3-4.3,10.6c-1.8,3.3-3.8,6-6.1,8.2c-2.3,2.2-4.7,3.3-7.3,3.3c-2.1,0-3.8-0.7-5.4-2.3
			C217.6,280.9,218.2,277.4,219,273.8z M111.8,273.8c0.8-3.6,1.8-7,3-10.3c1.2-3.3,2.5-6.3,4-9.1c1.5-2.8,3.1-5.2,4.7-7.1
			c2.7-3.3,5.3-4.9,7.6-4.9c1.6,0,2.8,1.1,3.4,3.3c0.6,2.2,0.8,4.9,0.5,8.2c-0.3,3.3-1,6.8-2.1,10.6c-1.1,3.8-2.5,7.3-4.3,10.6
			c-1.8,3.3-3.8,6-6.1,8.2c-2.3,2.2-4.7,3.3-7.3,3.3c-2.1,0-3.8-0.7-5.4-2.3C110.4,280.9,111,277.4,111.8,273.8z M69.4,249.4
			c-1.5-0.3-3.3-0.4-5.5-0.5c-2.1-0.1-3.7,0.7-4.8,2.2c1.2-6.2,2.6-12.4,4.2-18.6c1.6-6.2,3.3-11.8,5.3-16.7c1.9-4.9,4-9,6.3-12.1
			c2.3-3.1,4.6-4.6,7.1-4.6c2.2,0,3.8,1.1,4.7,3.2c1,2.1,1.4,4.9,1.2,8.2c-0.1,3.4-0.7,7.1-1.8,11.1c-1,4.1-2.4,7.9-4,11.6
			c-1.6,3.7-3.6,7-5.8,10C74.2,246.3,71.8,248.3,69.4,249.4z M175.3,294.3c-1.6,2.5-3.4,4.6-5.4,6.1c-1,0.7-1.9,1.2-2.8,1.5
			c-0.9,0.3-1.6,0.4-2.3,0.3c-0.6-0.1-1-0.6-1-1.4c-0.1-0.8,0.3-2.1,1.1-3.7c1.4-3.3,3.3-5.8,5.9-7.4c2.5-1.6,5.4-3,8.6-3.9
			C178.4,288.9,177,291.7,175.3,294.3z M183.2,268c-0.3,4.7-1.1,9.3-2.5,13.8c-3.6,0.8-6.7,2-9.4,3.5c-2.7,1.5-5.2,3.7-7.5,6.6
			c0.3-9.2,0.3-17.7,0-25.6c0.4-1.4,0.9-3,1.5-4.9s1.4-3.8,2.4-5.6c1-1.8,2.1-3.3,3.5-4.5c1.4-1.2,3-1.9,4.7-1.9
			c1.2,0,2.4,0.5,3.5,1.5c1.1,1,2,2.6,2.7,4.8C183.1,259.3,183.5,263.3,183.2,268z"/>
		<g>
			<g>
				<path d="M59.4,121.3c-4.8-2.6-7.8-6.2-9.2-10.8c-1.4-4.6-1.3-9.2,0.2-13.7c1.5-4.5,4.2-8.5,8.2-11.7c4-3.3,9-4.9,15-4.9
					c4.1,0,7,1.2,8.7,3.5c1.7,2.3,2.5,4.9,2.5,7.7c-0.1,2.8-0.9,5.3-2.4,7.6c-1.5,2.3-3.5,3.5-5.9,3.5c-1,0-1.9-0.4-2.6-1.1
					c-0.7-0.7-1.1-1.7-1.1-2.8s0.4-2,1.1-2.8c0.7-0.7,1.6-1.1,2.6-1.1c0.6,0,1.3,0.2,2.2,0.7c1.5-2.1,1.7-4.1,0.6-5.9
					c-1.1-1.8-2.6-2.7-4.7-2.7c-3.9,0-7.1,1.4-9.9,4.2c-2.7,2.8-4.6,6-5.7,9.6c-1.1,3.6-1.1,7.2-0.2,10.8c1,3.6,3.3,6.2,6.9,7.7
					c0.8-0.2,1.6-0.4,2.3-0.5c0.7-0.1,1.5-0.2,2.3-0.3c1.4-0.1,2.4,0.2,3.1,0.9c0.7,0.7,1.1,1.6,1.1,2.6c0,1-0.4,1.8-1.1,2.6
					c-0.7,0.8-1.8,1.2-3.3,1.2c-1.7,0-3.6-0.5-5.8-1.4c-2.9,1.2-5.6,3.4-7.8,6.5c-2.3,3.1-4.1,6.6-5.4,10.5c-1.4,3.9-2.2,8-2.5,12.2
					c-0.3,4.2,0.1,8,1,11.5c1,3.5,2.6,6.3,5,8.6c2.4,2.3,5.6,3.4,9.7,3.4c3.5,0,6.7-1.4,9.5-4.3c2.8-2.9,5.3-6.3,7.5-10.4
					c2.2-4,3.9-8.2,5.3-12.4c1.4-4.2,2.3-7.7,2.9-10.3c0.2-0.5,0.5-0.9,0.7-1.4c0.2-0.5,0.6-0.7,1.2-0.7c0.9,0,1.3,0.4,1.3,1.1
					c-0.1,0.7-0.1,1.3-0.3,1.8c-1,3.6-2.3,7.8-3.9,12.4c-1.6,4.6-3.6,9.1-6,13.3c-2.4,4.2-5.4,7.8-8.8,10.6
					c-3.4,2.8-7.4,4.2-12.1,4.2c-5.4,0-10-1.3-13.6-3.8c-3.6-2.6-6.3-5.8-8.2-9.8c-1.8-4-2.7-8.3-2.8-13.1
					c-0.1-4.8,0.7-9.4,2.4-13.8c1.6-4.4,4.1-8.4,7.5-11.8C50.2,125.1,54.4,122.6,59.4,121.3z"/>
				<path d="M117.1,118.8c0,1.5-0.5,2.2-1.6,2c-1.1-0.1-1.6-0.8-1.6-2c0-0.8-0.2-1.5-0.7-2c-0.5-0.6-1.1-0.8-1.9-0.8
					c-2.5,0-4.7,1.3-6.7,3.8c-2,2.5-3.7,5.6-5.2,9.4c-1.5,3.8-2.6,7.8-3.4,12.1c-0.8,4.3-1.2,8.4-1.2,12.1c0,3.8,0.5,6.9,1.4,9.4
					c1,2.5,2.4,3.8,4.3,3.8c1.4,0,2.8-1.5,4.4-4.6c1.6-3.1,3.1-6.7,4.4-10.9c1.4-4.2,2.5-8.4,3.5-12.8c1-4.3,1.4-7.7,1.4-10.2
					c0-1.6,0.4-2.8,1.2-3.7c0.8-0.9,1.8-1.3,2.9-1.3c2.9,0,4.7,1.4,5.2,4.2c0.5,2.8,0.5,6.1,0,9.9c-0.5,3.9-1.2,7.8-2,11.8
					c-0.9,4-1.2,7.3-0.9,9.8c0.3,2.4,1.2,3.6,2.6,3.6c1.6,0,3-1.1,4.3-3.2c1.3-2.2,2.4-4.6,3.4-7.3c1-2.7,1.7-5.3,2.3-7.8
					c0.6-2.5,0.9-4.1,1-4.9c0.2-1.5,0.8-2.2,1.8-2c1,0.1,1.3,0.9,1.1,2.4c-0.1,0.9-0.4,2.2-0.8,4c-0.4,1.8-0.9,3.7-1.5,5.7
					c-0.6,2-1.4,4.1-2.3,6.3c-0.9,2.2-1.9,4.1-2.9,5.8c-1.9,3.5-4.5,5.3-7.8,5.3c-2,0-3.7-0.5-5-1.6c-1.3-1.1-2.3-2.5-3-4.2
					c-0.7-1.7-1.1-3.5-1.3-5.5c-0.2-2-0.1-3.9,0.1-5.7c-0.6,2-1.4,4.4-2.4,7.1c-1,2.7-2.2,5.2-3.7,7.6c-1.4,2.4-3,4.4-4.8,6.1
					c-1.8,1.7-3.8,2.6-5.9,2.6c-3.9,0-6.8-1.6-8.9-4.7c-2.1-3.1-3.4-7-4-11.6c-0.6-4.6-0.4-9.7,0.4-15c0.9-5.4,2.4-10.4,4.6-15
					c2.2-4.6,5-8.5,8.5-11.6c3.5-3.1,7.5-4.7,12-4.7c2.4,0,4.4,0.7,6.1,2.2C116.3,113.7,117.1,115.9,117.1,118.8z"/>
				<path d="M152.5,83.8c1.9,0,3.7,0.6,5.4,1.8c1.7,1.2,2.5,2.4,2.5,3.7c0,0.3-0.2,0.5-0.7,0.5c-1.5,0-2.9,1.1-4.4,3.2
					c-1.5,2.2-2.9,5-4.2,8.5c2.8-0.9,5.5-2,8-3.4c2.5-1.4,5-2.7,7.6-4.1c2.6-1.4,5.2-2.6,7.9-3.7c2.7-1.1,5.6-1.8,8.7-2.1
					c1.4-0.1,2.8-0.1,4.2,0c1.5,0.1,2.8,0.5,4,1c1.2,0.6,2.2,1.4,3,2.5c0.8,1.1,1.2,2.5,1.2,4.3c0,1.7-0.5,3.3-1.4,4.8
					c-0.9,1.5-1.8,2.3-2.7,2.5c-0.5,0-0.7-0.2-0.7-0.7c0-1.6-0.8-2.7-2.5-3.5c-1.6-0.7-3.4-1-5.2-0.9c-3.7,0.2-7.1,0.7-9.9,1.4
					c-2.9,0.7-5.6,1.5-8.2,2.4c-2.6,0.9-5.1,1.7-7.6,2.6c-2.5,0.8-5.2,1.4-8.2,1.8c-1.7,5.3-3.1,11.2-4.2,17.8
					c-1.1,6.5-1.8,12.6-2,18.3c-0.2,5.7,0.1,10.4,1,14.2c0.9,3.8,2.5,5.7,4.9,5.7c1.5,0,2.9-0.6,4.2-1.9c1.3-1.2,2.5-2.9,3.7-5
					c1.1-2.1,2.2-4.6,3.1-7.4c0.9-2.8,1.7-5.8,2.4-9c0.3-1.6,1-2.3,2-2.1c1,0.2,1.3,1,0.9,2.5c-1,4-2,7.6-3.1,10.9
					c-1,3.3-2.2,6.1-3.4,8.5c-1.2,2.4-2.7,4.2-4.2,5.6c-1.6,1.4-3.4,2-5.4,2c-4.9,0-8.6-2-11.1-5.9c-2.6-4-4.2-9-5-15
					c-0.8-6-0.8-12.5,0-19.5c0.8-7,2.1-13.6,3.9-19.7c-2.6,0-5.4-0.3-8.2-1s-5.3-2-7.2-3.9l-0.2-0.2c-0.6-0.5-0.8-0.9-0.8-1.4
					c0.1-0.5,0.3-0.9,0.6-1.3c0.3-0.3,0.8-0.5,1.3-0.4c0.5,0.1,1,0.3,1.4,0.8c1.7,1.7,3.9,2.9,6.6,3.6c2.7,0.7,5.2,1,7.5,1
					c1.9-5.7,4.2-10.3,6.7-14C147.1,85.7,149.8,83.8,152.5,83.8z"/>
				<path d="M192.6,178.8c-2.9,0-5.3-0.6-7-1.8c-1.7-1.2-2.9-2.7-3.6-4.4c-0.7-1.8-0.8-3.7-0.4-5.8c0.4-2.1,1.3-4.1,2.6-6
					c1.6-2.3,3.6-4,5.9-5.3c2.4-1.3,4.9-2.2,7.5-2.8c2.6-0.6,5.3-0.8,8-0.8c2.7,0,5.2,0.2,7.5,0.7c0-3.4-0.8-6.5-2.3-9.3
					c-1.5-2.8-3.5-5.5-5.8-8.1c-2.3-2.5-4.9-5.1-7.6-7.6c-2.8-2.5-5.4-5.2-7.7-8c-2.4-2.8-4.4-5.9-5.9-9.2
					c-1.6-3.4-2.4-7.2-2.4-11.4c0-2.5,0.5-4.9,1.5-7.1c1-2.3,2.4-4.2,4-5.9c1.6-1.7,3.6-3,5.8-4c2.2-1,4.5-1.4,6.9-1.4
					c3.6,0,6.6,1,9,3c2.4,2,3.6,4.8,3.6,8.4c0,2.8-0.8,5.3-2.5,7.3c-1.7,2-3.6,3.1-5.9,3.1c-1,0-1.9-0.4-2.7-1.2
					c-0.7-0.8-1.1-1.7-1.1-2.7c0-1.1,0.5-2.1,1.4-2.8c0.9-0.7,1.7-1.1,2.4-1.1c0.8,0,1.3,0.1,1.5,0.2c0.2,0.1,0.4,0.3,0.8,0.5
					c1-0.8,1.7-1.7,1.9-2.7c0.2-1,0.1-1.9-0.3-2.7c-0.5-0.9-1.2-1.6-2.2-2.2c-1-0.6-2.2-0.9-3.6-0.9c-2.7,0-4.9,1-6.4,3.1
					c-1.5,2-2.3,4-2.3,5.8c0,3.7,0.8,7.1,2.4,10.1c1.6,3,3.6,5.8,6,8.5c2.4,2.7,5,5.2,7.8,7.7c2.8,2.5,5.4,5.1,7.8,7.8
					c2.4,2.7,4.4,5.7,6,8.8c1.6,3.2,2.4,6.7,2.4,10.7c0,4.2-0.8,8.1-2.4,11.7c-1.6,3.6-3.8,6.8-6.7,9.5c-2.9,2.7-6.3,4.8-10.3,6.4
					C201.9,178.1,197.5,178.8,192.6,178.8z M191.1,174.8c2.8,0,5.5-0.5,7.9-1.5c2.4-1,4.6-2.4,6.5-4.2c1.9-1.8,3.5-3.8,4.8-6.1
					c1.2-2.3,2.1-4.8,2.6-7.6c-2.2-0.3-4.5-0.5-7-0.6c-2.5-0.1-4.9,0.2-7.3,0.7s-4.6,1.3-6.7,2.5c-2.1,1.1-3.9,2.7-5.4,4.8
					c-0.9,1.4-1.5,2.7-1.8,4.2c-0.3,1.4-0.3,2.7,0.1,3.9c0.3,1.2,1,2.2,2.1,2.9C188,174.4,189.4,174.8,191.1,174.8z"/>
				<path d="M256.4,74.1c1.7,0,3.1,0.5,4.1,1.4c1,1,1.8,2.1,2.2,3.5c0.5,1.4,0.7,2.8,0.7,4.4s-0.1,3-0.2,4.2
					c-1.7,11.3-4.7,21.9-9.1,31.7c-4.4,9.8-9,19.2-13.9,28c-0.1,1,0,2.4,0.4,4.1c0.4,1.7,1,3.3,1.9,4.9c0.8,1.6,1.9,3,3.1,4.2
					c1.2,1.2,2.6,1.8,4.2,1.8c1.4,0,2.7-0.7,4-2c1.3-1.4,2.5-3.1,3.7-5.4c1.2-2.2,2.3-4.7,3.4-7.5c1.1-2.8,2-5.6,2.6-8.6
					c0.2-1.5,0.9-2.2,1.9-2c1,0.1,1.4,0.9,1,2.4c-2.2,7.8-4.8,14.3-7.8,19.5c-3.1,5.2-6.8,7.7-11.2,7.7c-3.6,0-6.7-1.3-9.1-4
					c-2.4-2.7-4.4-6.1-5.8-10.5c-1.4-4.3-2.3-9.2-2.6-14.8c-0.3-5.6-0.2-11.2,0.3-16.9c0.6-5.7,1.6-11.4,3-16.9
					c1.4-5.5,3.3-10.5,5.5-14.8c2.3-4.3,4.9-7.8,7.8-10.5C249.4,75.5,252.7,74.1,256.4,74.1z M258.7,80.8c-2.3,0-4.4,1.8-6.4,5.5
					c-2,3.7-3.8,8.4-5.4,14.2c-1.6,5.8-2.9,12.2-4.1,19.2c-1.1,7-1.9,13.9-2.2,20.7c4.3-8,8.2-16.4,11.8-25.1c3.6-8.7,6.1-18,7.6-28
					c0.1-0.5,0.2-1,0.3-1.8c0.1-0.7,0.1-1.5,0.1-2.2c0-0.7-0.1-1.4-0.4-1.9C259.7,81,259.3,80.8,258.7,80.8z"/>
				<path d="M270.6,154.7c-0.2,3.9,0.5,7.2,2,10c1.6,2.8,4.2,4.2,8,4.2c3.3,0,6.3-1.1,9.1-3.4c2.8-2.3,5.2-5,7.3-8.2
					c2.1-3.2,3.9-6.5,5.4-9.9c1.5-3.4,2.5-6.3,3.1-8.7c0.3-1.5,1-2.1,2-2c1,0.2,1.3,1,0.9,2.5v0.2c-0.7,2.9-1.8,6.3-3.4,10.1
					c-1.6,3.8-3.6,7.4-5.9,10.8c-2.4,3.4-5.1,6.3-8.2,8.7c-3.1,2.4-6.5,3.6-10.2,3.6c-6,0-10.6-1.6-13.8-4.7
					c-3.2-3.1-5.3-7-6.3-11.6c-1-4.6-1-9.7-0.1-15c1-5.4,2.7-10.4,5.1-15c2.4-4.6,5.4-8.5,9-11.6c3.6-3.1,7.5-4.7,11.6-4.7
					c3.9,0,6.7,1.1,8.5,3.4c1.8,2.3,2.8,5.1,3.1,8.5c0.2,3.4-0.3,7.1-1.4,11.1c-1.2,4-2.8,7.7-4.9,11.1c-2.1,3.4-4.5,6.2-7.3,8.5
					c-2.8,2.3-5.7,3.4-8.8,3.4C273.8,156.1,272.2,155.6,270.6,154.7z M282.2,120.7c-1.4,1.6-2.7,3.5-3.9,5.8
					c-1.2,2.3-2.4,4.8-3.3,7.5c-1,2.7-1.8,5.5-2.5,8.5c-0.7,2.9-1.2,5.8-1.5,8.6c1.2,1.2,2.7,1.9,4.4,1.9c2.2,0,4.2-0.9,6-2.7
					c1.9-1.8,3.5-4.1,5-6.8c1.5-2.7,2.7-5.6,3.6-8.7c0.9-3.1,1.5-6,1.7-8.7c0.2-2.7,0.1-5-0.4-6.8c-0.5-1.8-1.4-2.7-2.8-2.7
					C286.6,116.6,284.5,118,282.2,120.7z"/>
				<path d="M310.9,154.7c-0.2,3.9,0.5,7.2,2,10c1.6,2.8,4.2,4.2,8,4.2c3.3,0,6.3-1.1,9.1-3.4c2.8-2.3,5.2-5,7.3-8.2
					c2.1-3.2,3.9-6.5,5.4-9.9c1.5-3.4,2.5-6.3,3.1-8.7c0.3-1.5,1-2.1,2-2c1,0.2,1.3,1,0.9,2.5v0.2c-0.7,2.9-1.8,6.3-3.4,10.1
					c-1.6,3.8-3.6,7.4-5.9,10.8c-2.4,3.4-5.1,6.3-8.2,8.7c-3.1,2.4-6.5,3.6-10.2,3.6c-6,0-10.6-1.6-13.8-4.7
					c-3.2-3.1-5.3-7-6.3-11.6c-1-4.6-1-9.7-0.1-15c1-5.4,2.7-10.4,5.1-15c2.4-4.6,5.4-8.5,9-11.6c3.6-3.1,7.5-4.7,11.6-4.7
					c3.9,0,6.7,1.1,8.5,3.4c1.8,2.3,2.8,5.1,3.1,8.5c0.2,3.4-0.3,7.1-1.4,11.1c-1.2,4-2.8,7.7-4.9,11.1c-2.1,3.4-4.5,6.2-7.3,8.5
					c-2.8,2.3-5.7,3.4-8.8,3.4C314.1,156.1,312.5,155.6,310.9,154.7z M322.5,120.7c-1.4,1.6-2.7,3.5-3.9,5.8
					c-1.2,2.3-2.4,4.8-3.3,7.5c-1,2.7-1.8,5.5-2.5,8.5c-0.7,2.9-1.2,5.8-1.5,8.6c1.2,1.2,2.7,1.9,4.4,1.9c2.2,0,4.2-0.9,6-2.7
					c1.9-1.8,3.5-4.1,5-6.8c1.5-2.7,2.7-5.6,3.6-8.7c0.9-3.1,1.5-6,1.7-8.7c0.2-2.7,0.1-5-0.4-6.8c-0.5-1.8-1.4-2.7-2.8-2.7
					C326.8,116.6,324.7,118,322.5,120.7z"/>
				<path d="M393,138.7c0.5-1.2,1.1-1.8,2-1.6c0.9,0.2,1.2,0.9,0.9,2.3l-0.2,0.3c-1.2,2.9-3.3,5.1-6.1,6.5c-2.8,1.4-6.1,2.5-9.7,3.4
					c-0.7,2-1.9,4.4-3.6,7.1c-1.7,2.7-3.7,5.1-5.9,7.3c-2.3,2.2-4.7,3.9-7.4,5.1c-2.7,1.2-5.4,1.3-8.1,0.4c-0.6,5.6-1.2,10.9-2,16.1
					c-0.8,5.2-1.9,10-3.2,14.3c-0.3,1.1-0.8,2.4-1.3,3.8c-0.5,1.4-1.1,2.7-1.9,3.9c-0.7,1.2-1.6,2.2-2.5,3c-1,0.8-2.1,1.2-3.3,1.2
					c-1.7,0-3-0.4-3.9-1.2c-0.9-0.8-1.5-1.8-1.9-3c-0.3-1.2-0.5-2.5-0.5-4c0-1.5,0.1-2.9,0.3-4.2c0.3-2.8,0.9-5.9,1.8-9.3
					c0.9-3.4,1.8-6.9,2.8-10.5c1-3.6,2-7.1,2.9-10.7c0.9-3.6,1.6-6.9,2.2-9.9c0.6-8,0.7-15.6,0.5-22.8c-0.1-2.6-0.4-5-0.9-7.2
					c-0.5-2.2-1.2-3.8-2.4-4.7c-0.6-0.3-1-0.8-1.2-1.4c-0.2-0.6-0.2-1.3,0-2c0.2-0.7,0.7-1.2,1.4-1.7c0.7-0.5,1.6-0.7,2.9-0.7
					c3.6,0,6.2,1.1,7.6,3.4c1.5,2.3,2.4,5.1,2.9,8.5c0.9-3.3,2.4-6.3,4.3-8.9c2-2.7,4.8-4,8.6-4c3.3,0,6,0.9,8.2,2.6
					c2.2,1.7,3.7,3.9,4.8,6.6c1,2.7,1.5,5.8,1.5,9.3c0,3.5-0.5,6.9-1.5,10.5c2.8-0.8,5.3-1.8,7.4-2.9
					C390.6,142.3,392.1,140.8,393,138.7z M355.6,136.3c0.2,6.5,0.2,13.5,0,21.1c1.9-2.4,4-4.2,6.2-5.4c2.2-1.2,4.8-2.2,7.7-2.9
					c1.1-3.7,1.8-7.5,2-11.4c0.2-3.9-0.1-7.2-0.9-10c-0.6-1.8-1.3-3.1-2.2-4c-0.9-0.9-1.9-1.3-2.9-1.3c-1.5,0-2.8,0.5-3.9,1.5
					c-1.1,1-2.1,2.3-2.9,3.7c-0.8,1.5-1.4,3-2,4.6C356.4,133.8,356,135.2,355.6,136.3z M360.7,164.4c1.6-1.2,3.1-2.9,4.4-5
					c1.4-2.1,2.5-4.4,3.4-7.1c-2.6,0.8-5,1.9-7.1,3.2c-2.1,1.4-3.7,3.4-4.8,6.1c-0.7,1.4-1,2.4-0.9,3.1c0.1,0.7,0.3,1.1,0.9,1.2
					c0.5,0.1,1.1,0,1.9-0.3C359.2,165.4,359.9,165,360.7,164.4z"/>
			</g>
		</g>
		<g>
			<path d="M370.2,249.6c1.4,0.2,2.5,0.4,3.6,0.6c4.4,0.8,8.5,2.3,11.9,5.3c1.9,1.7,3.4,3.6,4.1,6c0.1,0.4,0.2,0.7,0.2,1.1
				c0.1,0.9-0.8,1.6-1.6,1.3c-0.6-0.2-1.3-0.4-1.7-0.8c-2.7-2.3-5.8-3.8-8.9-5.3c-2-1-3.9-1.9-6-2.8c-1.6-0.7-3.3-1.1-4.9-1.7
				c-1.9-0.7-3.8-0.3-5.6,0.5c-4.2,1.9-8,4.5-11.3,7.7c-1.4,1.3-2.7,2.8-4,4.1c-0.9,0.9-1.6,1-2.1,0.5c-0.7-0.7-0.3-1.3,0-2
				c2-4.7,5-8.7,9.3-11.6c2.1-1.4,4.4-2.6,7-3c0.2,0,0.5-0.2,0.8-0.4c-0.1-0.4-0.1-0.7-0.3-1c-1.9-3.5-4.2-6.7-7.6-8.9
				c-2.7-1.8-5.4-3.8-8.5-5c-0.2-0.1-0.5-0.3-0.6-0.5c-0.5-0.4-0.2-1.4,0.4-1.6c0.5-0.1,1.1-0.2,1.6-0.2c2,0.1,3.8,0.7,5.5,1.6
				c3.9,2.1,7.4,4.7,10.3,8.1c0.7,0.8,1.2,1.8,1.9,2.7c0.2,0.3,0.5,0.5,0.8,0.9c0.4-1,0.6-1.7,0.9-2.5c0.9-2.1,1.8-4.2,2.9-6.2
				c2.5-4.3,6.1-7.2,10.7-9.1c0.9-0.4,1.9-0.5,2.9-0.6c0.5-0.1,1.1,0.2,1.3,0.8c0.1,0.4,0,0.9-0.2,1.3c-0.3,0.5-0.7,0.8-1.1,1.2
				c-2.2,2.4-4.5,4.8-6.7,7.3c-2,2.2-3.5,4.6-4.9,7.2c0.6,0.6,1,0.1,1.3-0.1c4.1-2.8,8.7-3.7,13.5-4c0.9-0.1,1.8,0.1,2.7,0.3
				c0.8,0.2,0.9,1.3,0.2,1.8c-0.7,0.4-1.4,0.8-2.2,1c-2.4,0.7-4.7,1.4-7.1,2.1c-2.5,0.7-4.9,1.5-7.1,2.8
				C371.1,248.8,370.8,249.2,370.2,249.6z"/>
			<path d="M364.4,281.1c0.6,2,1.1,3.8,1.7,5.7c-2.6,1-5.3,1.3-8,1.9c-1-1.8-1.1-3.7-1.4-5.5C358.2,282.2,361.5,281.3,364.4,281.1z"
				/>
			<path d="M366.7,288.7c0.9,1.9,1.5,3.5,1.9,5.4c-2.7,0.9-5.4,0.8-8,1.4c-1.1-1.6-1.6-3.1-2-4.8c1.1-1,2.6-0.8,3.8-1.2
				C363.7,289.1,365.1,289,366.7,288.7z"/>
			<path d="M356.5,280.8c-0.5-2.4-0.3-4.5,0-6.8c2.4-0.3,4.6-0.2,6.8,0.3c0.2,1.6,0.4,3,0.6,4.4
				C362.4,279.8,360.5,280.3,356.5,280.8z"/>
			<path d="M364.1,265.1c0,2.6-0.5,4.8-0.6,7.2c-2.2,0.5-4.3-0.1-6.5-0.1c-0.3-2,0.3-3.6,0.8-5.3
				C359.6,265.9,361.7,265.7,364.1,265.1z"/>
			<path d="M361.4,297.1c2.8-0.7,5.4-0.9,8.1-1.3c0.4,0.9,0.7,1.7,1,2.4c0.3,0.8-0.1,1.5-0.8,1.8c-0.4,0.1-0.9,0.2-1.3,0.3
				c-0.7,0.1-1.5,0-2.2,0.1C363.4,300.5,362.9,300.8,361.4,297.1z"/>
			<path d="M364.4,263.3c-1.8,0.4-3.6,0.9-5.5,1.3c-0.1-1.8-0.1-1.9,1.5-4.8c1.5-0.5,3.3-0.3,4.9-0.6
				C365.5,260.9,365.5,261,364.4,263.3z"/>
			<path d="M361.5,257.9c0.4-0.8,0.6-1.3,0.8-1.8c0.6-2,2.2-2.2,3.9-2.1c0.9,0.1,1.4,0.6,1.2,1.4c-0.1,0.6-0.4,1.2-0.6,1.9
				C365.2,257.7,363.6,257.9,361.5,257.9z"/>
		</g>
		<g>
			<path d="M358.8,204.3c0.5-1.1,1.3-2.1,2.3-2.9c1.8-1.5,3.9-2.7,6.2-3.5c3.4-1.2,6.9-1.7,10.5-1.6c3.4,0.1,6.4,1.3,9,3.4
				c1.1,0.9,2,2.1,2.8,3.3c0.4,0.6,0.2,1.2-0.5,1.3c-0.5,0.1-1.1,0.2-1.6,0.2c-3.9,0.1-7.7,0.2-11.6,0.4c-2.8,0.1-5.6,0.3-8.3,0.2
				c-2.6-0.1-5.1-0.2-7.7-0.4C359.4,204.8,359.1,204.7,358.8,204.3z"/>
			<path d="M377.7,184.6c-0.2-0.4-0.3-0.6-0.4-0.9c-1-2.4-2.1-4.8-3.5-7.1c-0.9-1.4-1.8-2.7-3-3.8c-0.2-0.2-0.4-0.4-0.5-0.5
				c0.1-0.4,0.4-0.3,0.6-0.3c0.6,0.1,1.2,0.1,1.7,0.3c3.7,1,7,2.5,9.7,5.3c1.3,1.3,2.1,2.9,2.9,4.5c0.1,0.1,0.1,0.3,0.1,0.4
				c0.1,0.3-0.1,0.5-0.3,0.6c-0.3,0.1-0.6,0.2-0.9,0.1c-0.2-0.1-0.5-0.2-0.7-0.3c-1.6-0.6-3-0.4-4.3,0.7
				C378.5,183.8,378.2,184.1,377.7,184.6z"/>
			<path d="M366.7,172.5c-2.6,4.1-3.6,8.4-4,13.1c-0.3-0.1-0.5-0.2-0.7-0.3c-1.7-1-3.4-0.8-4.7,0.7c-0.2,0.2-0.3,0.5-0.5,0.6
				c-0.1,0.1-0.3,0.2-0.5,0.2c-0.2-0.1-0.3-0.3-0.5-0.4c-0.1-0.1-0.1-0.3,0-0.4c0.3-1.8,0.6-3.6,1.3-5.3c0.5-1.1,1.1-2.2,1.9-3.1
				c1.9-2.2,4-4,6.8-4.9C366.1,172.6,366.3,172.6,366.7,172.5z"/>
			<path d="M368.1,172.6c0.1,0.4,0.2,0.7,0.2,1c0.5,3.7,1,7.4,1.4,11.1c0,0.1-0.1,0.2-0.1,0.2c-3-1.3-3-1.2-5.8,0.5
				c-0.2-0.4-0.2-0.8-0.1-1.2c0.2-2.3,0.7-4.5,1.5-6.7c0.5-1.4,1-2.8,1.9-4C367.4,173.2,367.6,172.8,368.1,172.6z"/>
			<path d="M376.6,184.4c-2.6-1-2.8-1.3-5.7,0.3c0,0-0.1,0-0.1,0c0,0-0.1-0.1-0.1-0.1c-0.5-3.5-0.9-7-1.4-10.6c0-0.3,0-0.6,0-0.9
				c0,0,0.1-0.1,0.1-0.1c0.2-0.1,0.3,0.1,0.5,0.2c0.7,0.7,1.4,1.4,2,2.2C373.8,178,375.3,181.1,376.6,184.4z"/>
			<path d="M372.6,195.7c-0.4,0-0.7,0.1-1,0.1c-0.1-0.6-0.2-1.1-0.3-1.6c-0.4-2.2-0.7-4.4-1-6.6c-0.1-0.4-0.1-0.8,0-1.2
				c0-0.1,0.2-0.3,0.3-0.3c0.1,0,0.4,0.1,0.4,0.2c0.1,0.2,0.2,0.5,0.3,0.7c0.3,1.5,0.5,3,0.7,4.5c0.2,1,0.3,1.9,0.5,2.9
				C372.5,194.8,372.5,195.2,372.6,195.7z"/>
		</g>
		<g>
			<path d="M72.6,193.4c-2.7,2-5.5,3.9-8.2,5.9c-4.5,3.4-8.2,7.5-11.1,12.3c-1.9,3.1-3.7,6.2-5.6,9.4c-0.1,0.1-0.1,0.2-0.2,0.3
				c-0.4,0.3-0.8,0.5-1.2,0.7c0-0.4-0.1-0.9,0-1.3c2.4-7.5,5.6-14.6,9.4-21.4c1.7-3,4.1-5.6,6.2-8.4c1.9-2.5,4.2-4.4,7-5.9
				c0.1,0,0.1-0.1,0.2-0.1c1.6-0.8,3.3-1.3,4.8-0.1c1.5,1.1,1.3,2.8,1,4.4C74.7,190.9,73.9,192.3,72.6,193.4z"/>
			<path d="M41.3,194.3c1.1-0.8,2.2-1.6,3.6-1.2c1.4,0.4,2.3,1.6,2.4,2.9c0.1,1.8,0,3.7-0.5,5.4c-0.9,2.6-2.3,5.1-3.4,7.7
				c-2.3,5.1-4.3,10.4-5.1,16c0,0.3-0.4,0.6-0.6,1c-0.3-0.4-0.7-0.7-0.8-1.1c-1.1-6.3-1-12.6-0.1-18.9c0.6-3.8,2-7.4,3.9-10.7
				C40.8,194.9,41.1,194.6,41.3,194.3z"/>
		</g>
		<path d="M308.1,180.7c1,0.6,2,1.3,2.9,2.2c0.9,0.9,2,1.6,3.1,2.1c1.1,0.5,2.2,0.5,3.1-0.4c0.8-0.8,1.6-1.6,2.3-2.5
			c0.8-0.9,1.5-1.8,2.4-2.6c0.3-0.3,0.7-0.6,1.1-0.8c0.4-0.2,0.8-0.3,1.3-0.3c1,0,1.6,0.6,1.7,1.5c0.1,0.7-0.1,1.4-0.4,2.1
			c-0.4,0.9-0.8,1.8-1.1,2.8c-0.3,0.7-0.6,1.4-0.8,2.2c-0.1,0.4-0.2,0.9-0.2,1.3c-0.1,0.8,0.2,1.4,0.7,2c0.6,0.5,1.1,1.1,1.8,1.4
			c0.8,0.5,1.7,0.8,2.6,1.2c1.4,0.6,2.7,1.2,3.9,2.2c0.5,0.4,0.9,0.8,1,1.4c0.2,0.8,0,1.4-0.7,1.8c-0.4,0.2-0.9,0.4-1.4,0.5
			c-1.7,0.3-3.4,0.2-5.1,0.1c-0.5,0-1-0.1-1.5-0.1c-0.4,0-0.9,0-1.3,0.1c-1.2,0.2-2,0.8-2.1,2.1c-0.1,1-0.2,2.1-0.2,3.1
			c0,1.3,0,2.5-0.4,3.8c-0.1,0.5-0.3,1-0.4,1.4c-0.1,0.3-0.2,0.5-0.4,0.7c-1.1,1.7-2.7,1.7-3.8,0.1c-0.8-1.1-1.3-2.5-1.6-3.8
			c-0.4-1.5-0.7-3.1-1.1-4.6c-0.1-0.5-0.3-1-0.5-1.4c-0.3-0.7-0.9-1-1.7-0.8c-0.4,0.1-0.8,0.2-1.2,0.3c-1.5,0.6-3,1.2-4.5,1.8
			c-0.7,0.3-1.3,0.5-2,0.7c-0.7,0.2-1.5,0.2-2.3,0c-1.2-0.3-1.7-1.1-1.5-2.3c0.1-0.6,0.3-1.2,0.8-1.7c0.9-1.1,2-1.9,3.2-2.7
			c0.6-0.4,1.3-0.7,1.9-1.1c0.4-0.2,0.8-0.5,1.1-0.8c1.2-1,1.7-2.2,1.3-3.7c-0.4-1.7-1.2-3.2-2.2-4.6c-0.5-0.7-1-1.4-1.3-2.2
			c-0.2-0.5-0.4-1-0.4-1.5c-0.1-1,0.4-1.5,1.4-1.6C306.4,180,307.2,180.3,308.1,180.7z M311,195.6c0.3,0.2,0.7,0,0.9-0.3
			c0.2-0.3,0-0.7-0.3-0.9c-0.3-0.2-0.8,0-0.9,0.3C310.6,195.1,310.7,195.5,311,195.6z M317,198.8c0.1-0.3,0-0.8-0.3-0.9
			c-0.3-0.2-0.7,0-0.8,0.4c-0.1,0.4,0.1,0.7,0.4,0.8C316.5,199.2,316.9,199,317,198.8z M318.4,207.5c-0.3-0.2-0.8,0-0.9,0.3
			c-0.2,0.3,0,0.8,0.4,0.9c0.3,0.1,0.7-0.1,0.9-0.4C318.9,208,318.7,207.6,318.4,207.5z M303.2,199.9c0.2-0.3,0.1-0.8-0.3-1
			c-0.3-0.2-0.6,0-0.8,0.2c-0.2,0.4-0.1,0.8,0.3,1C302.6,200.3,303,200.2,303.2,199.9z M307.3,198c0.2-0.3,0-0.8-0.3-0.9
			c-0.3-0.2-0.7,0-0.9,0.3c-0.1,0.3,0,0.7,0.3,0.9C306.8,198.4,307.2,198.3,307.3,198z M312.9,188.9c-0.3-0.2-0.8,0-0.9,0.3
			c-0.1,0.3,0,0.7,0.4,0.9c0.3,0.1,0.6,0,0.8-0.3C313.3,189.5,313.2,189,312.9,188.9z M318,189.3c0.3,0.2,0.8,0.1,0.9-0.2
			c0.1-0.3,0-0.7-0.2-0.8c-0.3-0.2-0.6-0.1-0.8,0.1C317.6,188.7,317.7,189.1,318,189.3z M321.4,195c0.3,0.2,0.8,0.1,0.9-0.3
			c0.1-0.3,0-0.7-0.2-0.8c-0.3-0.2-0.6-0.1-0.8,0.2C321,194.4,321.1,194.8,321.4,195z M310.3,185.9c-0.3-0.1-0.6,0-0.8,0.3
			c-0.1,0.3,0,0.8,0.3,0.9c0.3,0.1,0.8,0,0.9-0.4C310.8,186.4,310.6,186,310.3,185.9z M307.6,182.8c-0.3-0.1-0.6,0-0.8,0.3
			c-0.2,0.3,0,0.7,0.3,0.9c0.3,0.2,0.8,0,0.9-0.3C308,183.4,307.9,183,307.6,182.8z M316,193.2c0.3,0.2,0.7,0.1,0.9-0.2
			c0.2-0.3,0-0.8-0.3-0.9c-0.3-0.2-0.7,0-0.9,0.4C315.6,192.7,315.7,193,316,193.2z M320.9,185.7c0.2-0.3,0-0.8-0.3-0.9
			c-0.3-0.1-0.6,0-0.8,0.3c-0.2,0.3-0.1,0.6,0.2,0.8C320.3,186.1,320.7,186,320.9,185.7z M331.2,196.7c0.1-0.3,0-0.6-0.3-0.8
			c-0.3-0.2-0.7,0-0.8,0.4c-0.1,0.3,0.1,0.6,0.4,0.7C330.8,197.2,331.1,197,331.2,196.7z M317.9,203.1c0.2-0.3,0-0.7-0.3-0.9
			c-0.3-0.1-0.6,0-0.8,0.3c-0.2,0.3-0.1,0.8,0.2,0.9C317.4,203.6,317.7,203.4,317.9,203.1z M326.6,195.9c0.1-0.2,0-0.6-0.3-0.6
			c-0.2-0.1-0.4,0-0.6,0.2c-0.2,0.2-0.1,0.6,0.2,0.7C326.2,196.3,326.5,196.1,326.6,195.9z M323.3,180.9c-0.3,0.1-0.5,0.2-0.7,0.3
			c-0.2,0.2-0.1,0.4,0.1,0.6c0.2,0.1,0.5,0.1,0.6-0.2C323.4,181.4,323.4,181.2,323.3,180.9z"/>
		<path d="M168.5,312.9c0.8,0.8,1.7,1.6,2.4,2.5c3.7,4.3,8.4,6.8,13.7,8.3c7.3,2.1,14.6,1.3,21.8-0.1c13.5-2.6,26.9-5.4,40.4-7.7
			c8.3-1.4,16.6-2.3,25-3.1c7-0.7,14-1.1,21-1.5c3.4-0.2,6.8-0.2,10.2,0c6.9,0.4,13.9,0.7,20.8,1.6c7.5,1,14.9,2.6,21.5,6.7
			c0.9,0.5,2,0.9,2.3,2.2c-0.2,0.2-0.5,0.4-0.7,0.5c-4.8,0.1-9.6,0.2-14.4,0.4c-5.7,0.3-11.5,0.7-17.2,1.1
			c-3.6,0.2-7.2,0.3-10.8,0.6c-6.6,0.5-13.1,1.1-19.7,1.6c-5.8,0.5-11.7,0.9-17.5,1.5c-5.3,0.5-10.6,1.2-15.8,1.7
			c-5.5,0.6-11,1.1-16.5,1.6c-4.2,0.4-8.5,0.9-12.7,1.3c-3.8,0.3-7.6,0.6-11.5,0.8c-3.5,0.2-7,0.4-10.5,0.3
			c-2.8-0.1-5.5-0.5-8.2-1.2c-5.4-1.3-10.6-3.3-15-6.9c-3.7-2.9-6.6-6.4-8.4-10.7C168.6,313.9,168.6,313.4,168.5,312.9L168.5,312.9z
			"/>
	</g>
	<g>
		<path d="M277.6,107.2c-0.9-0.7-1.4-1.5-1.5-2.5c-0.1-0.5,0.1-1,0.6-1.4c0.2-0.1,0.4-0.2,0.6-0.2s0.3-0.1,0.5-0.1
			c0.7,0.2,1.1,0.6,1.4,1.4l0.2,0.6c0,0.2,0.1,0.4,0.2,0.6c0.2,0.5,0.6,1,1.2,1.4c0.5,0.3,0.6,0.6,0.3,1c-0.3,0.4-0.7,0.6-1.2,0.4
			c-0.5-0.2-0.9-0.3-1.2-0.5C278.3,107.8,277.9,107.5,277.6,107.2z"/>
		<path d="M288.9,99.3c-1-1.2-2-2.4-3-3.6c-1-1.2-1.9-2.4-2.5-3.7c-0.4-0.9-0.2-1.6,0.6-2.3c0.8-0.7,1.5-0.7,2.3-0.1
			c1.3,1,2.4,2.2,3.2,3.6s1.7,2.8,2.5,4.2c0.8,1.4,1.6,2.8,2.3,4.2c0.7,1.4,1.4,2.8,2,4.3c0.1,0.5,0,0.9-0.4,1
			c-0.4,0.2-0.7,0.1-1.1-0.3c-1.1-1.1-2.1-2.3-3.1-3.6C290.9,101.8,289.9,100.6,288.9,99.3z"/>
		<path d="M306.4,101.4l-0.2-0.6c0-0.5,0.1-0.9,0.5-1.3c0.4-0.4,0.8-0.4,1.3-0.2c0.7,0.3,1.1,0.8,1.3,1.4c0.2,0.7,0.2,1.3,0.2,1.9
			c-0.3,0.9-0.8,1.3-1.5,1.2c-0.8-0.1-1.1-0.6-1-1.5c0,0.1,0,0.1-0.1,0.1c0,0-0.1-0.1-0.1-0.2l0-0.1c0-0.1,0-0.2-0.1-0.3l-0.1-0.3
			L306.4,101.4z"/>
		<path d="M327.3,88.7c0-1.4-0.1-2.8-0.1-4.2c0-1.4,0-2.8,0.1-4.3c0.1-1.2,0.3-2.3,0.4-3.4c0.1-1.1,0.5-2.2,1.1-3.2
			c0.5-0.7,1.1-0.9,1.9-0.7c0.8,0.3,1.2,0.8,1.4,1.5c0.3,1.3,0.3,2.7,0,4.1s-0.5,2.8-0.7,4.2c-0.1,1.4-0.1,2.7-0.2,4
			c-0.1,1.3-0.2,2.6-0.2,4c-0.1,2.6-0.3,5.2-0.6,7.9c-0.3,2.6-0.7,5.2-1.3,7.8c-0.1,0.3-0.3,0.4-0.6,0.4c-0.2,0-0.4-0.2-0.5-0.5
			c0-2.9-0.2-5.9-0.4-8.8S327.3,91.7,327.3,88.7z"/>
		<path d="M350.2,108.8c-0.3,0.5-0.6,0.6-1.2,0.3c-0.5-0.3-0.7-0.6-0.4-1.1c1.9-3.8,3.8-7.7,5.9-11.5c2.1-3.9,4.5-7.4,7.3-10.6
			c0.5-0.6,1-0.8,1.5-0.8c0.6,0,1,0.2,1.5,0.5c0.4,0.3,0.7,0.7,0.8,1.2c0.1,0.5,0,1-0.4,1.5c-2.5,3.4-5.1,6.9-7.6,10.3
			C355.1,101.9,352.6,105.3,350.2,108.8z"/>
		<path d="M369.2,115.3c-0.4,0.2-0.7,0.1-1-0.3c-0.2-0.3-0.2-0.6,0-0.9c0.6-1,1.4-2,2.4-2.8c1-0.8,1.9-1.6,2.9-2.3
			c0.6-0.4,1.1-0.9,1.5-1.3s1-0.8,1.5-1.3c0.6-0.4,1.1-0.6,1.7-0.6l0.6,0.1c0.6,0.2,1,0.7,1.3,1.5c0.1,1.1-0.4,2-1.4,2.6
			c-1,0.6-1.9,1.1-2.6,1.5c-1.2,0.7-2.4,1.3-3.6,1.9C371.5,114.1,370.4,114.7,369.2,115.3z"/>
	</g>
	<path d="M113.5,231.1c-6.4-0.2-10.2-3.4-10.1-8.6c0.1-5.1,4.4-9.6,9-9.5c5.5,0.2,10.1,5.1,9.9,10.6
		C122.2,227.7,118,231.2,113.5,231.1z M118.3,222.5c0-1.4-0.4-2.7-1.1-4c-0.5-0.8-2-2.1-2.9-1c-0.6,0.7-0.2,2,0,2.8
		c0.4,1.4,0.8,2.8,0.1,4.2c-0.1,0.3-0.3,0.6-0.4,0.9c-0.3,1.8,1.5,2.5,2.7,1.2c0.4-0.5,0.7-1.1,1-1.7
		C118.1,224.2,118.2,223.3,118.3,222.5z"/>
	<path d="M167.5,124c-0.5-0.5-0.7-0.8-0.7-1.1v-0.4l-1.1-1.1c-1.5-1.5-2.1-3.1-1.8-4.9c0.2-1.8,0.9-3.3,2-4.5c1.1-1.2,2.4-1.9,4-2
		c1.6-0.1,3.1,0.5,4.5,2c4.4,4.9,7.6,11.3,9.8,19.3c2.2,8,2.7,15.1,1.5,21.5c-0.2,1.2-0.9,1.8-1.8,1.8c-1,0-1.6-0.5-1.8-1.5
		c-1.2-3.6-2.4-7-3.5-10.2c-1.1-3.1-2.6-6.4-4.5-9.8c-1.2-1.7-2.3-3.3-3.3-4.7C169.8,126.9,168.7,125.5,167.5,124z"/>
</g>
</svg>
