<?xml version="1.0" encoding="utf-8"?>
<!-- Generator: Adobe Illustrator 18.0.0, SVG Export Plug-In . SVG Version: 6.00 Build 0)  -->
<!DOCTYPE svg PUBLIC "-//W3C//DTD SVG 1.1//EN" "http://www.w3.org/Graphics/SVG/1.1/DTD/svg11.dtd">
<svg version="1.1" id="Layer_1" xmlns="http://www.w3.org/2000/svg" xmlns:xlink="http://www.w3.org/1999/xlink" x="0px" y="0px"
	 viewBox="0 0 432 432" enable-background="new 0 0 432 432" xml:space="preserve">
<g>
	<g>
		<path d="M169.2,360.7c2-9.1,4-18.3,6.2-27.6c0.3-1.2,0.2-1.7-0.9-1.4c-0.6,0.1-1.3,0-1.9-0.1c-0.5-0.1-0.9-0.6-0.9-1.3
			c0.1-0.7,0.5-1.2,1-1.2c2.9-0.4,5.9-0.6,8.8-0.6c0.8-0.1,1.4,0.4,1.3,1.5c-0.1,1.1-0.8,1.5-1.6,1.5c-0.1,0-0.1,0-0.2,0
			c-2.9,0.3-3,0.3-3.6,3.6c-2.4,12-5.2,23.7-7.9,35.2c-0.4,1.6-0.6,3.2-1.2,4.7c-0.4,1,0,1.6,0.9,1.8c0.6,0.1,1.2,0.1,1.8,0.2
			c0.7,0.1,1.3,0.5,1.2,1.4c-0.1,1-0.7,1.3-1.5,1.3c-1.8-0.2-3.5-0.3-5.3-0.4c-2.3-0.1-4.7,0-7,0c-0.8,0-1.5-0.1-1.7-1
			c-0.3-0.8,0-1.4,0.7-1.8c0.6-0.3,0.3-0.8,0.2-1.3c-2.2-8.6-3.8-17.2-5.5-25.6c-0.9-4.7-1.5-9.4-2.3-14c-0.1-0.5,0-1.2-0.8-1.1
			c-0.9,0.1-2,0.2-2.1-1.2c-0.1-0.8,1.2-2.1,2.5-2.3c1.8-0.2,3.5-0.3,5.3-0.3c1.9-0.1,3.7-0.1,5.5-0.1c0.8,0,1.7-0.2,1.8,1
			c0,1.2-0.9,1.4-1.6,1.4c-0.6,0.1-0.9,0.2-0.7,1c2.4,11.7,4.7,23.6,7.1,35.7c0,0.1,0.1,0.1,0.2,0.3
			C167.8,366.9,168.5,363.8,169.2,360.7z"/>
		<path d="M188.7,333.3c0-0.9,0.1-1.6-0.9-1.9c-0.7-0.2-1-1-0.9-1.8c0.2-1,0.8-1.5,1.6-1.7c2.3-0.5,4.6-0.8,6.9-0.8
			c2,0,4.1-0.3,6.1,0.1c1,0.1,2,0.4,1.8,1.9c-0.1,1.5-1.1,1.7-2,1.4c-0.9-0.1-1,0.3-1,1.1c-0.9,14.3-0.8,28.4-0.8,42.6
			c0,0.9,0,1.5,1.1,1.6c0.8,0,1.6,0.6,1.5,1.7c-0.1,1.2-0.9,1.5-1.7,1.6c-3.8,0-7.5,0.3-11.3,0.9c-0.9,0.2-1.7-0.2-1.9-1.3
			c-0.2-1.2,0.3-1.9,1.3-2.1c1-0.2,0.9-0.8,0.9-1.8c-0.5-8.1-0.4-16.3-0.7-24.4C188.4,344.7,188.6,339,188.7,333.3z"/>
		<path d="M231.8,350.8c4.8,0.9,7.7,4.2,8.9,9.6c1.2,5.4-0.3,9.8-3.6,13.5c-2.1,2.3-4.6,3.5-7.4,4.1c-5.6,1.2-11.3,1.4-16.9,1.5
			c-1.3,0-2.5,0.1-3.8,0.1c-0.9,0-1.7-0.3-1.7-1.6c0-1.3,0.9-1.5,1.8-1.5c1.5,0.1,1.8-0.5,1.7-2.3c-0.9-14.1-0.7-28.1-0.8-42.1
			c0-0.9-0.2-1.2-0.9-1.1c-0.8,0.1-1.8,0.1-1.8-1.2c0.1-1.1,0.7-1.7,1.7-1.9c5.6-1.2,11.3-1,16.9,0.2c8.3,1.9,11.5,14.1,5.6,21.7
			c-0.2,0.3-0.3,0.4-0.5,0.8C231.3,350.6,231.5,350.8,231.8,350.8z M221.4,341.4c0,3.3,0,6.5,0,9.8c0,0.9,0.1,1.3,1,0.9
			c0.9-0.4,1.8-0.6,2.7-0.9c4.1-1.2,7.1-5.4,7.1-10.3c-0.2-4.1-1.8-8.8-7.1-10c-0.8-0.2-1.7-0.2-2.5-0.4c-0.9-0.2-1.2,0.1-1.2,1.2
			C221.5,335,221.5,338.2,221.4,341.4C221.5,341.4,221.4,341.4,221.4,341.4z M221.6,365.8c0,2.9,0,5.8,0,8.7c0,1,0.2,1.4,1.1,1.3
			c1.3-0.2,2.7-0.1,4.1-0.3c3.4-0.7,6.6-2,9.1-4.9c2.2-2.6,3.2-5.5,2.3-9.1c-1-3.8-3.1-6.3-6.3-7.1c-3.3-0.7-6.5,0.4-9.6,1.4
			c-0.6,0.2-0.6,0.8-0.6,1.3C221.5,360,221.5,362.9,221.6,365.8C221.5,365.8,221.5,365.8,221.6,365.8z"/>
		<path d="M246.6,331.6c0.2-2.4,0.6-2.6,2.5-2.8c5.7-0.4,11.5,0.2,17.2,1c0.5,0.1,1,0.2,1.6-0.2c1.1-0.8,2.3-0.3,2.6,1.1
			c0.3,1.8,0.2,3.7-0.3,5.4c-0.2,0.7-0.8,1.1-1.6,1c-0.9-0.1-1.1-0.7-1.3-1.4c0-0.1,0-0.1,0-0.2c-0.2-0.9,0.3-2.1-0.5-2.7
			c-0.8-0.5-1.9-0.2-2.8-0.3c-1.5-0.2-3-0.2-4.5-0.4c-0.8,0-1.1,0.3-1.3,1.1c-0.8,5.7-1,11.5-1.1,17.3c0,0.5,0,0.9,0.7,0.9
			c1.9-0.3,3.6,0,5.5,0c0.8,0,0.9-0.3,0.9-1.1c0-1.1-0.2-2.4,1.3-2.4c1.6,0.1,1.4,1.6,1.3,2.6c0,2.3-0.2,4.7-0.5,7.1
			c0,0.6-0.2,1.1-0.8,1.1c-0.7,0-0.9-0.6-0.9-1.1c-0.1-1-0.2-2-0.3-3c0-0.7-0.2-1-0.9-0.9c-1.7,0.4-3.6,0.1-5.5,0.2
			c-0.5,0.1-1.1,0-0.9,0.8c0.3,5.1-0.3,10.3,0.8,15.4c0.2,1.4,0.6,2.8,1.3,4c0.7,1.2,1.6,1.8,2.9,1c0.6-0.3,1.3-0.7,1.9-0.9
			c0.9-0.4,1.2-1,0.9-1.9c-0.3-1.3,0.4-2.3,1.5-2.5c1.3-0.1,1.6,0.8,1.9,1.9c0.2,1.3,0.5,2.5,0.9,3.8c0.2,0.7,0.5,1.4-0.4,1.8
			c-0.7,0.2-1.7,0.2-2.1-0.6c-0.5-1.2-1.3-0.8-2-0.3c-2.3,1.2-4.6,2.2-7.2,2.7c-4.1,0.6-7.8-1.4-9.6-5.3c-1.9-4.1-2.5-8.4-2.6-13
			c-0.1-1.4,0-2.9,0-4.3C245.2,348.1,245.9,339.9,246.6,331.6z"/>
		<path d="M294.9,334.1c0.5,0.5,0.9,1,1.6,0.8c0.6-0.2,1.2,0.2,1.6,0.9c0.4,0.7,0.3,1.5-0.2,2c-1.2,1-2.4,1.9-3.7,2.9
			c-0.5,0.4-1.1,0.3-1.5-0.2c-0.5-0.8-0.4-1.4,0-2c0.9-1.6,0.9-1.6-0.6-2.9c-3.7-3.3-8.3-2.6-10.3,1.4c-0.9,1.6-0.9,3.3-0.1,5
			c0.8,1.8,2,3.1,3.5,4.2c2.7,2,5.5,3.9,7.8,6.5c4.1,4.9,5.7,10.2,4.4,16.3c-1.6,7.4-8,11.1-14.5,10.2c-2.8-0.5-5-2.5-6.3-5.5
			c-0.3-0.8-0.5-1.1-1.3-0.5c-0.8,0.6-1.6,0.5-2.1-0.4c-0.5-0.9-0.2-1.8,0.5-2.4c1.5-1.1,3-2.4,4.7-3.1c0.5-0.2,1.2-0.5,1.6,0.3
			c0.4,0.7,0.2,1.4-0.3,1.9c-1.4,1.9-1.3,2.8,0.2,4.5c3.3,3.4,8.3,2.8,10.5-1.1c0.5-1.2,0.6-2.2,0.2-3.5c-0.8-2.4-2.6-4-4.5-5.3
			c-1.3-0.8-2.5-1.7-3.8-2.4c-6.6-3.9-8.4-12.5-7.1-18.3c1-4.9,3-9,6.9-11.4c2-1.4,4.3-1.8,7.1-1.5
			C291.5,330.4,293.3,332.2,294.9,334.1z"/>
	</g>
	<g>
		<path d="M177.4,30.9c1.3-0.9,3-1.1,5.2-0.7c2.2,0.4,4.3,1.2,6.3,2.4c2,1.1,3.8,2.4,5.2,3.9c1.4,1.4,2.1,2.7,1.9,3.8
			c-3.2,3.3-5.9,6.8-8.3,10.6c-2.3,3.8-4.4,7.7-6.3,11.9c-1.8,4.1-3.5,8.3-4.9,12.7c-1.4,4.3-2.9,8.6-4.2,12.9l-3.4,11.3h0.3
			c0.6,0.6,1,1.5,1.2,2.8c0.2,1.2,0.2,2.5-0.1,3.9c-0.2,1.3-0.7,2.5-1.5,3.6c-0.7,1-1.7,1.6-2.9,1.6c-0.2-0.1-0.4-0.1-0.7-0.1
			l-2.7,8.5c-1.4,4.4-2.5,8.1-3.2,11.3c-0.7,3.1-1.2,5.8-1.3,8.1c-0.1,2.3,0,4.2,0.5,5.7c0.5,1.5,1.3,2.8,2.5,3.8
			c0.4,0.8,0.5,1.9,0.4,3.4c-0.1,1.4-0.5,2.9-1.1,4.4c-0.6,1.5-1.4,2.8-2.3,3.8c-0.9,1-1.9,1.6-2.9,1.6c-4.7-0.9-8.1-2.7-10.2-5.5
			c-2.1-2.8-3.5-6-4.1-9.8s-0.6-7.7-0.1-12c0.5-4.3,1.3-8.4,2.2-12.5c0.4-2,0.8-4,1.3-5.9c0.4-1.9,0.9-3.9,1.4-5.9
			c-3.2-0.1-6.4-0.1-9.6-0.1c-3.2,0.1-6.5,0.2-9.8,0.4c-2.3,7.6-4,13.8-5.1,18.9c-1.1,5-2,9.2-2.6,12.5c-0.6,3.3-1,6.1-1.3,8.3
			s-0.7,4.3-1.3,6.2c-0.6,1.5-1.6,2.3-3,2.5c-1.4,0.1-2.9-0.1-4.5-0.9c-1.6-0.7-3.2-1.8-4.7-3.1c-1.5-1.3-2.8-2.8-3.7-4.4
			c-1.2-2.5-1.6-5.1-1.3-7.8c0.3-2.7,0.8-5.4,1.5-8c0.9-3.8,1.8-7.5,2.8-11.1c0.9-3.6,2-7.3,3.1-11c-0.5,0-1.2,0.1-2.2,0.3
			c-1.5-0.1-2.4-0.7-2.7-1.7s-0.2-2.3,0.1-3.8c0.4-1.5,1-3.1,1.9-4.7c0.9-1.6,1.8-3.2,2.7-4.7c0.8,0,1.3,0,1.6,0
			c0.2,0,1.2,0.1,2.8,0.1c2.3-7.5,4.6-14.8,7.1-22.1c2.4-7.3,5-14.6,7.7-22c0.8-2.3,1.5-4.7,2.1-7.2c0.6-2.5,0.5-4.9-0.1-7.2
			c-4.2,1.4-8.2,3.3-11.9,5.7c-3.8,2.4-7.1,5.3-10,8.7c-4.5,5.3-7.7,11.4-9.8,18.3c-2,6.9-2.5,13.8-1.4,20.6c-1.7,0.9-3.4,0.9-5.2,0
			s-3.4-2.4-4.9-4.5c-1.5-2.1-2.7-4.6-3.6-7.7c-0.9-3-1.3-6.3-1.3-9.9c0-4.2,0.8-8.2,2.5-12.1c1.7-3.9,3.8-7.4,6.4-10.6
			c3-3.6,6.5-6.8,10.5-9.8c4-2.9,8.3-5.2,12.7-6.9c4.5-1.7,9-2.6,13.6-2.8c4.6-0.1,8.8,0.7,12.8,2.6c2.9,1.1,5.1,3.1,6.7,6
			c1.6,2.9,2.4,5.9,2.5,9c0.2,3.5-0.2,6.8-1.3,10.1c-1,3.2-2.2,6.4-3.4,9.6c-2.5,6.4-4.7,12.2-6.6,17.5c-1.9,5.3-3.6,10.3-5.2,14.8
			l18.3,0.4c3.4-12.5,7.4-25.1,11.9-37.7c2-5.6,4.3-11,6.9-16.3C169.8,39.8,173.2,35.1,177.4,30.9z"/>
		<path d="M211.7,113.9c0.3-0.6,0.9-1,1.8-1.1s1.7-0.2,2.5-0.1c0.8,0.1,1.5,0.3,2.1,0.7c0.6,0.3,0.7,0.7,0.4,1
			c-2.1,4.6-4.4,8.7-6.9,12.5c-2.5,3.8-5.2,7.5-8.1,11.2c-4,5.2-7.8,8.7-11.5,10.6c-3.7,1.9-6.9,2.4-9.5,1.4
			c-2.7-0.9-4.7-3.2-6.1-6.9c-1.4-3.6-1.8-8.4-1.2-14.2c0.7-6.7,1.9-13,3.5-18.9c1.6-6,3.4-11.2,5.1-15.7c1.8-4.5,3.5-8.2,5.1-11
			c1.6-2.8,2.8-4.4,3.4-4.7c2.9-1,5.8-1.1,8.9-0.4c3,0.7,5.6,2.2,7.8,4.2c0.2,0.2,0.3,0.4,0.3,0.7c0,0.3-0.1,0.5-0.3,0.7
			c-0.9,1.3-2.1,3.3-3.7,6.1c-1.5,2.8-3.1,6.1-4.8,10c-1.6,3.9-3.3,8.2-4.8,12.8c-1.6,4.7-2.9,9.5-3.9,14.5c-0.8,3.9-1.1,6.9-1,9
			c0.1,2.1,0.6,3.3,1.6,3.4c1,0.1,2.4-0.7,4.3-2.6c1.9-1.9,4.2-5,6.9-9.2c1.5-2.3,2.8-4.6,4-6.9C209,118.8,210.3,116.4,211.7,113.9z
			 M212.2,32.2c2.6-1,5-1.3,7.3-0.9c2.3,0.4,4.2,1,5.8,1.9c1.6,0.9,2.8,1.9,3.5,3c0.7,1.1,0.8,1.8,0.2,2.2c-0.8,0.5-1.5,1.2-2,2.1
			c-0.5,0.9-1.1,1.8-1.6,2.7c-0.3,0.6-1,1.9-2.1,4c-1.1,2.1-2.2,4.3-3.4,6.6c-1.2,2.3-2.3,4.4-3.3,6.3c-1,1.8-1.5,2.8-1.6,2.9
			c-2.1,0.5-4.2,0.4-6.2-0.4c-2-0.7-3.8-2-5.1-3.7c-0.3-0.5-0.6-1-0.8-1.6c-0.2-0.5-0.3-1.1-0.2-1.6c-0.1-1.1,0.3-2.9,1.1-5.4
			c0.8-2.5,1.8-5.1,2.9-7.8c1.1-2.7,2.2-5,3.2-7.1C211,33.6,211.7,32.4,212.2,32.2z"/>
		<path d="M278.7,113.5c0.3-0.4,0.9-0.7,1.7-0.8c0.8-0.1,1.7-0.1,2.5,0c0.8,0.1,1.5,0.4,2,0.9c0.5,0.4,0.5,1.1,0.1,1.9
			c-4.2,7.5-8.7,14.7-13.6,21.8c-4.9,7.1-10.5,13.6-16.6,19.5c-1.5,6.7-3.1,12.7-4.8,18c-1.7,5.4-3.7,9.6-6,12.8
			c-2.6,3.5-5.4,5.8-8.3,7.1c-3,1.2-5.8,1.7-8.5,1.3c-2.7-0.3-5-1.3-7-3c-2-1.6-3.3-3.6-3.9-5.9c-0.6-1.9-0.8-3.9-0.5-6
			c0.2-2.1,1-4,2.3-5.7c1.5-2,3.3-3.6,5.4-4.7c2.1-1.1,4.2-2.3,6.3-3.5c1.6-0.8,3.1-1.7,4.5-2.6c1.4-0.9,2.9-2,4.2-3.1
			c0.4-2,0.7-4,0.9-6c0.2-2,0.4-4.2,0.6-6.3c0.2-1.5,0.4-3.2,0.7-5.2c0.2-2,0.5-4.1,0.8-6.4c-3,5.3-6.4,8.7-10.2,10.4
			c-3.8,1.6-7.4,1.9-10.7,0.7c-3.3-1.2-6.1-3.6-8.3-7.3c-2.2-3.7-3.3-8.2-3.2-13.6c0.3-5.8,1.1-11.4,2.5-17
			c1.2-4.8,3.1-9.8,5.6-15.2c2.5-5.4,6.1-10.1,10.8-14.3c1.2-1.3,3-2.6,5.5-3.9c2.5-1.3,5.1-2,8-2.2s5.6,0.5,8.2,2.1
			c2.6,1.5,4.6,4.4,6,8.7c1.9-3,3.7-5,5.5-6c2.9-0.9,5.8-1,8.7-0.3c2.9,0.7,5.4,2,7.5,4c0.5,0.5,0.5,1,0.1,1.5
			c-2.7,3.6-5,7.7-7.1,12.2c-2,4.6-3.9,9.4-5.4,14.6c-1.6,5.2-3,10.5-4.2,16c-1.2,5.5-2.4,11-3.5,16.3c4.1-4.7,7.9-9.6,11.3-14.8
			C272.2,124.6,275.6,119.2,278.7,113.5z M229.4,184c1.7-2.1,3.1-4.2,4.1-6.3c1-2.1,2-4.3,2.8-6.6c-0.1,0.2-0.3,0.4-0.7,0.6
			c-1.7,1-3.4,1.9-5.1,2.8c-1.7,0.9-3.2,1.8-4.5,2.7c-1.3,0.9-2.3,1.9-3,3c-0.7,1.1-0.9,2.3-0.7,3.7c0.2,1.1,0.5,2,1,2.7
			c0.7,0.4,1.6,0.5,2.6,0.2C226.9,186.5,228.1,185.6,229.4,184z M236,132.4c1.1-2.1,2.4-4.9,3.9-8.3c1.5-3.5,3-7,4.4-10.5
			c1.4-3.5,2.7-6.7,3.9-9.5c1.1-2.8,1.9-4.6,2.2-5.4c0-0.2,0-0.3,0.1-0.4c-0.4-3.6-0.9-6.2-1.6-8c-0.6-1.7-1.4-2.8-2.3-3.3
			s-1.8-0.3-2.8,0.3c-1,0.6-2,1.6-3,2.8c-2.6,3.1-4.8,6.5-6.7,10.4c-1.9,3.8-3.5,7.7-4.7,11.5c-1.2,3.8-2.2,7.4-2.8,10.7
			c-0.6,3.3-1,6-1,8c-0.1,3,0.2,5.1,0.8,6.5c0.6,1.3,1.5,2,2.5,2c1,0,2.2-0.6,3.5-1.7C233.7,136.1,234.9,134.5,236,132.4z"/>
		<path d="M346.1,113.9c0.3-0.6,0.9-1,1.8-1.1c0.9-0.1,1.7-0.2,2.5-0.1c0.8,0.1,1.5,0.3,2.1,0.7c0.6,0.3,0.7,0.7,0.4,1
			c-2.1,4.6-4.3,8.7-6.8,12.5c-2.4,3.8-5.1,7.5-8,11.2c-3.8,4.8-7.5,8.2-11.2,10.1c-3.7,2-6.9,2.6-9.8,1.9c-2.8-0.7-5-2.8-6.5-6.3
			c-1.5-3.4-1.9-8.2-1.3-14.2c0.5-5.1,1.3-9.9,2.4-14.6c1.1-4.7,2.3-9,3.7-13c-1.3,1.4-2.7,3.2-4.2,5.4c-1.5,2.2-3.3,5-5.3,8.3
			c-2,3.3-4.3,7.3-6.9,11.9c-2.6,4.6-5.6,9.9-8.9,16.1c-0.2,1.3-0.4,2.4-0.7,3.3c-0.2,0.9-0.6,1.5-1,1.8c-0.5,0.5-1.3,0.7-2.4,0.7
			c-1.1,0-2.2-0.3-3.4-0.8c-1.2-0.5-2.4-1.2-3.6-2.1c-1.2-0.9-2.1-2-2.8-3.3c-1-2.6-1.3-6.6-0.8-12c0.4-5.4,1.4-11.6,2.9-18.6
			c1.5-7,3.4-14.4,5.6-22.2c2.2-7.8,4.7-15.4,7.3-22.7c2.6-7.4,5.3-14.1,8-20.4c2.7-6.2,5.2-11.2,7.6-15c0.5-0.8,1.4-1.3,2.8-1.5
			c1.3-0.2,2.8-0.1,4.5,0.2c1.6,0.3,3.3,0.8,5.1,1.5c1.7,0.6,3.2,1.4,4.5,2.2c1.2,0.8,2.1,1.8,2.7,2.8c0.5,1,0.5,1.9-0.1,2.7
			c-1.3,1.7-3.3,4.9-5.9,9.6c-2.6,4.7-5.5,10.7-8.7,18c-3.2,7.3-6.4,15.6-9.7,25c-3.3,9.4-6.1,19.7-8.5,30.9c3.1-4.3,6-8.7,8.6-13.3
			c2.7-4.6,5.3-8.9,7.8-13s5.1-7.6,7.8-10.7c2.6-3.1,5.4-5.3,8.4-6.6c2.8-1,5.7-1.1,8.6-0.4s5.5,2.1,7.6,4.1c0.5,0.5,0.5,1,0.1,1.5
			c-0.9,1.2-2.1,3.2-3.6,6c-1.5,2.8-3,6.1-4.6,9.8c-1.6,3.8-3.2,8-4.7,12.5c-1.5,4.6-2.8,9.3-3.8,14.2c-1.7,7.9-1.4,12,0.8,12.4
			c2.2,0.4,6.1-3.7,11.7-12.4c1.4-2.3,2.7-4.6,4-6.9C343.6,118.8,344.8,116.4,346.1,113.9z"/>
	</g>
	<g>
		<path d="M150.4,261.8c1.5-1.6,2.5-3,3.1-4.1c0.6-1.1,0.9-1.8,1.1-2.1c0.5-0.7,1.1-1.1,1.9-1.1c0.6,0,1.2,0.3,1.7,0.9
			c0.5,0.6,0.7,1.4,0.7,2.4c0,1.1-0.4,2.4-1.1,3.9c-0.7,1.5-2.1,3.3-3.9,5.3c-0.4,0.4-0.6,0.6-0.6,0.7c0,0.1,0.1,0.4,0.4,0.9
			c0.6,1.1,1.1,2.1,1.6,2.8c0.4,0.7,0.8,1.3,1,1.9c0.3,0.5,0.5,1,0.6,1.3c0.1,0.4,0.2,0.7,0.3,1.2c0.2,1,0,1.9-0.5,2.6
			c-0.5,0.7-1.2,1-2.2,1c-0.6,0-1.3-0.2-2-0.7c-0.7-0.5-1.4-1-2.1-1.6c-0.7-0.6-1.3-1.3-1.9-1.9c-0.6-0.7-1-1.2-1.4-1.7
			c-0.3-0.4-0.5-0.5-0.8-0.5c-0.2,0-0.4,0.1-0.6,0.2c-2.1,1-4.1,1.5-6,1.5c-1.5,0-2.9-0.3-4.2-0.9c-1.2-0.6-2.2-1.3-2.9-2.2
			c-0.7-0.9-1.1-1.9-1.2-3c-0.1-1.1,0.2-2.1,0.9-3.2c0.5-0.7,1.1-1.4,1.7-1.9c0.6-0.6,1.3-1.1,2-1.7c0.3-0.3,0.7-0.5,1.1-0.7
			c0.4-0.2,0.7-0.5,0.8-0.9c0-0.1-0.2-0.7-0.7-1.7c-0.5-1.1-1-2.4-1.6-3.9c-0.6-1.5-1.1-3.2-1.6-5c-0.5-1.8-0.8-3.6-0.8-5.3
			c-0.1-1.7,0.2-3.2,0.9-4.5c0.6-1.3,1.8-2.2,3.4-2.7c1.9-0.6,3.6-0.9,5.3-0.9c1.8,0,3.4,0.3,5,0.9c1.5,0.6,2.9,1.4,3.9,2.4
			c1.1,1.1,1.9,2.3,2.4,3.9c0.5,1.5,0.6,3.2,0.3,5.1c-0.7,3.4-2.2,6.3-4.7,9c-0.4,0.4-0.6,0.7-0.7,0.9c0,0.2,0.1,0.5,0.3,1
			c0.2,0.4,0.4,0.8,0.6,1.2C150,260.9,150.2,261.3,150.4,261.8z M142.6,267.9c-0.9-1.3-1.5-2.2-1.7-2.7c-0.3-0.4-0.5-0.7-0.7-0.7
			s-0.3,0-0.3,0.1c-1.2,0.8-2.3,1.8-3.2,2.8c-0.3,0.4-0.3,0.7,0.2,0.9c0.2,0.1,0.4,0.2,0.7,0.3c0.2,0.1,0.5,0.2,0.7,0.2
			c0.2,0.1,0.4,0.1,0.8,0.1c0.6,0,1.2-0.1,1.8-0.3C141.5,268.4,142.1,268.2,142.6,267.9z M146.7,254c1-1.1,1.9-2.3,2.5-3.5
			c0.6-1.2,1-2.5,1-4c0.2-1.9-0.7-3.2-2.6-4c-0.8-0.3-1.7-0.5-2.5-0.5c-0.5,0-0.9,0.1-1.4,0.2c-0.4,0.1-0.9,0.2-1.4,0.4
			c-0.4,0.2-0.6,0.4-0.7,0.5c-0.1,0.1,0,0.4,0.2,0.8c0.7,1.8,1.4,3.5,2.2,5.1C145,250.5,145.9,252.3,146.7,254z"/>
	</g>
	<path d="M301.6,211.6c-1.2-4.7-2.5-9.4-4-14c-0.4-1.2-1.8-2.7-2.8-2.8c-3.1-0.1-5.1-1.3-7-3.6c-2.3-2.8-4-2.9-7.3-1.3
		c-3.3,1.6-6.7,3-9.9,4.7c-2.2,1.2-4.1,1.1-5.9-0.7c-1.1-1.2-2.2-1.1-3.6-0.4c-7.5,3.7-15.6,5.6-24,5.3c-16.7-0.6-33.2-2.4-49.3-7.1
		c-7.3-2.1-14.8-1.5-22.3-1.4c-1.2,0-3.3,0.5-3.5,1.3c-0.4,1.1,0.1,3,1,4c1.4,1.6,3.3,2.9,5,4.2c2,1.5,4.1,2.9,4.9,5.7
		c-2.3,0.2-4.5,0.5-6.7,0.4c-2.6-0.1-4.8,0.4-6.6,2.4c-3.1,3.4-6.6,4.1-10.8,1.8c-2.7-1.4-5.5-1.1-8.1,1.2c0.6,0.9,1,1.7,1.5,2.4
		c4.8,6.5,11.2,11.2,18.3,14.6c19.8,9.5,40.3,17.2,62.5,18.9c0.2,0,0.4,0,0.6,0c0.7-1,1.5-2,2.3-2.9c2.3-2.4,5-4.2,8.1-5.1
		c3.2-1,6.6-0.8,9.9,0.6c2.5,1,4.5,2.4,5.7,4.1c0.5,0.8,1,1.6,1.3,2.4c19.4-3.7,34.7-14.5,48.2-28.2
		C301,216.5,302.2,214.2,301.6,211.6z M196.3,204.9c-0.1,0.3-0.3,0.5-0.7,0.5c-0.4-0.1-0.6-0.4-0.8-0.8c0-0.1-0.1-0.3-0.1-0.4
		c-0.2-1.8-0.2-1.8-1.9-1.9c-0.8-0.1-1.6-0.5-2.1-0.1c-0.5,0.4-0.2,1.4-0.2,2.2c-0.3,4.5-0.2,9.1-0.4,13.6
		c-0.1,3.8-0.2,7.6-0.3,11.3c0,0.6,0.1,1.2,0,1.8c0,0.9-0.2,1.8,1,2.1c0.3,0.1,0.5,0.6,0.5,1c-0.1,0.4-0.3,0.7-0.6,0.7
		c-0.2,0.1-0.5,0.1-0.7,0c-2.4-0.8-4.9-0.6-7.3-0.6c-0.2,0-0.3,0-0.6-0.1c-0.5-0.1-0.9-0.3-1-0.9c-0.1-0.6,0.2-1,0.8-1.1
		c0.6-0.1,0.8-0.4,0.7-1.1c-0.8-7.1-0.4-14.2-0.2-21.2c0.1-2.8,0.2-5.6,0.4-8.4c0-0.6-0.1-0.8-0.7-0.9c-1.1-0.1-2.3-0.3-3.3-0.5
		c-0.5-0.1-0.7,0.1-0.7,0.6c-0.1,0.5-0.2,1-0.3,1.4c-0.1,0.4-0.4,0.8-0.9,0.6c-0.5-0.1-0.7-0.5-0.8-0.9c-0.2-1.4-0.4-2.8-0.1-4.1
		c0.2-0.8,1-1.1,1.6-0.4c0.5,0.7,1.1,0.6,1.7,0.7c4.5,0.9,9.1,1.4,13.6,1.9c0.9,0.1,1.9,0.4,2.8-0.2c0.6-0.4,1.4,0.3,1.4,1.2
		C197.1,202.4,196.7,203.7,196.3,204.9z M210.7,203.9c-0.7-0.2-0.8,0.1-0.8,0.7c-0.6,9.7-0.6,19.3-0.6,29c0,0.6,0,1,0.8,1.1
		c0.6,0,1.2,0.5,1.1,1.2c-0.1,0.8-0.6,1-1.3,1c-2.8-0.2-5.6-0.1-8.4,0.1c-0.7,0.1-1.3-0.2-1.4-1c-0.2-0.8,0.2-1.3,0.9-1.4
		c0.8-0.1,0.7-0.5,0.6-1.2c-0.3-5.6-0.3-11.2-0.5-16.8c-0.1-4,0-7.9,0.1-11.9c0-0.6,0.1-1.1-0.7-1.4c-0.5-0.2-0.8-0.8-0.6-1.3
		c0.1-0.7,0.6-0.9,1.2-1c1.7-0.1,3.4-0.1,5.1,0.1c1.5,0.2,3,0.1,4.5,0.5c0.8,0.2,1.5,0.4,1.3,1.4C212.1,204,211.4,204.1,210.7,203.9
		z M229.1,235.6c-1.5,1.1-3.2,1.6-5.1,1.9c-2.3,0.3-4.5,0-6.8-0.3c-0.6-0.1-1.2-0.3-1.2-1c0-0.8,0.5-1,1.2-1.1
		c1.3-0.1,1.2-0.1,1.2-1.4c-0.1-3.7-0.2-7.4-0.2-11.1c-0.1-5.7-0.3-11.5-0.2-17.2c0-0.8-0.2-0.9-0.8-0.8c-0.3,0-0.6,0-0.9,0
		c-0.5,0-0.9-0.2-1-0.8c-0.1-0.6,0.3-1,0.8-1.1c0.6-0.2,1.2-0.4,1.7-0.4c2.1-0.2,4.2-0.4,6.3-0.4c2.7,0,5.4,0.6,7.7,2.1
		c3.1,2,4.5,5.2,5.4,8.9C239.1,221.6,234.8,231.5,229.1,235.6z M259.1,205.7c-0.2,0.5-0.6,0.9-1.2,0.9c-0.6,0-0.8-0.4-0.9-0.8
		c0-0.1,0-0.1,0-0.1c-0.1-0.6,0.2-1.5-0.3-1.8c-0.6-0.2-1.4,0.1-2.1,0.1c-1.1,0-2.2,0.2-3.4,0.2c-0.6,0-0.8,0.3-0.9,0.9
		c-0.6,4-0.8,8-0.8,12c0,0.3,0,0.6,0.5,0.5c1.4-0.3,2.7-0.3,4.1-0.4c0.6,0,0.7-0.3,0.7-0.8c0-0.8-0.1-1.7,0.9-1.8c1.2-0.1,1,1,1,1.7
		c0,1.6-0.2,3.3-0.3,5c0,0.4-0.1,0.8-0.6,0.8c-0.5,0-0.6-0.4-0.7-0.7c-0.1-0.7-0.1-1.4-0.2-2.1c0-0.5-0.2-0.7-0.6-0.5
		c-1.3,0.4-2.7,0.4-4.1,0.5c-0.4,0.1-0.8,0.1-0.7,0.6c0.2,3.5-0.2,7.1,0.6,10.5c0.2,0.9,0.5,1.9,1,2.7c0.5,0.8,1.2,1.1,2.1,0.5
		c0.5-0.3,0.9-0.5,1.4-0.7c0.6-0.3,0.9-0.8,0.6-1.4c-0.2-0.9,0.3-1.6,1.1-1.8c1-0.2,1.2,0.4,1.4,1.2c0.2,0.9,0.4,1.7,0.6,2.6
		c0.1,0.5,0.3,1-0.3,1.3c-0.5,0.2-1.3,0.2-1.6-0.3c-0.4-0.8-0.9-0.4-1.5-0.1c-1.7,1-3.4,1.8-5.3,2.2c-3,0.6-5.8-0.7-7.1-3.2
		c-1.4-2.7-1.9-5.7-1.9-8.7c-0.1-1,0-2,0-3c0.1-5.7,0.6-11.3,1-17c0.1-1.6,0.4-1.8,1.9-2.1c4.2-0.6,8.5-0.8,12.8-0.8
		c0.4,0,0.8,0,1.2-0.3c0.8-0.7,1.7-0.5,1.9,0.5C259.6,203.2,259.5,204.5,259.1,205.7z M279.6,202.7c-0.9,0.9-1.8,1.9-2.7,2.8
		c-0.3,0.3-0.8,0.4-1.1,0.1c-0.4-0.5-0.3-0.9,0-1.4c0.7-1.3,0.7-1.3-0.5-2c-2.7-1.7-6.1-0.4-7.6,2.8c-0.6,1.3-0.6,2.5-0.1,3.6
		c0.6,1.2,1.5,2,2.6,2.5c2,1,4.1,2,5.8,3.6c3,2.9,4.2,6.7,3.2,11.3c-1.2,5.7-5.9,9.1-10.7,9c-2.1-0.1-3.7-1.4-4.7-3.3
		c-0.2-0.6-0.4-0.7-0.9-0.2c-0.6,0.5-1.2,0.5-1.6-0.1c-0.3-0.6-0.2-1.3,0.3-1.7c1.1-0.9,2.2-2,3.5-2.6c0.4-0.2,0.9-0.4,1.2,0
		c0.3,0.4,0.1,1-0.2,1.4c-1,1.5-1,2.1,0.2,3.2c2.4,2.1,6.1,1.2,7.7-1.9c0.4-0.9,0.5-1.7,0.1-2.6c-0.6-1.7-1.9-2.6-3.3-3.3
		c-0.9-0.5-1.9-0.9-2.8-1.3c-4.9-2-6.3-7.9-5.3-12.2c0.8-3.6,2.2-6.7,5.1-9c1.5-1.3,3.2-2,5.3-2.2c1.7-0.5,3,0.4,4.2,1.5
		c0.3,0.3,0.6,0.5,1.2,0.3c0.5-0.3,0.9-0.1,1.2,0.3C280,201.7,280,202.3,279.6,202.7z M227.7,204.6c-0.7-0.2-1-0.2-1,0.8
		c-0.4,5.9-0.6,11.8-0.9,17.7v8.9c0.1,0.9-0.3,2.3,0.2,2.5c0.8,0.4,1.7-0.5,2.5-1.1c6.1-4.6,9.1-14.5,5.9-22.7
		C233,207.5,230.7,205.4,227.7,204.6z"/>
	<g>
		<path d="M140.8,278.7c2.9,1,4.9,2.1,5.9,3.3c1.1,1.3,1.7,2.8,1.9,4.7c0.2,1.9,0.1,4-0.4,6.4c-0.4,2.4-0.6,5.2-0.6,8.3
			c-0.1,4.7-0.3,9.5-0.6,14.4c-0.3,4.9-1,9.7-2,14.4c-1,4.7-2.5,9-4.5,13.1c-2,4-4.7,7.4-8,10.2c-6.8,5.5-13.9,7.8-21.1,6.8
			c-7.2-1-14-4.4-20.4-10.5c-3.2-3.1-5.9-7.2-8-12.2c-2.1-5-3.8-10.5-5-16.6c-1.2-6.1-2-12.5-2.5-19.3c-0.5-6.8-0.7-13.4-0.6-19.9
			c0.1-6.5,0.3-12.7,0.8-18.6c0.5-5.9,1-11.1,1.6-15.5c1-7,2.6-13.3,4.8-19c2.2-5.7,5.2-10.5,8.8-14.4c3.7-3.9,8-6.8,13.1-8.8
			c5-2,10.9-2.7,17.5-2.3c2.8,0.2,5.3,1.1,7.6,2.7c2.3,1.6,4.2,3.5,5.9,5.8c1.6,2.3,2.9,4.8,3.9,7.5c1,2.7,1.6,5.2,1.8,7.5
			c0.2,2.3,0.1,4.2-0.4,5.9c-0.5,1.6-1.4,2.6-2.7,2.8c-2,0.4-3.7,0-5-1c-1.3-1-2.3-2.4-3.1-4.1c-0.8-1.7-1.4-3.6-1.9-5.8
			c-0.5-2.2-1-4.1-1.6-5.9c-0.6-1.8-1.3-3.3-2.2-4.5c-0.8-1.2-2-1.7-3.4-1.6c-3.7,0.4-6.8,1.9-9.4,4.7c-2.5,2.8-4.6,6.3-6.2,10.5
			c-1.6,4.3-2.9,9-3.8,14.1c-0.9,5.2-1.5,10.3-1.9,15.3c-0.4,5-0.5,9.8-0.5,14.3c0,4.5,0.1,8.2,0.2,11.1c0.1,4.6,0.1,9.8,0.1,15.7
			c-0.1,5.9,0.1,11.8,0.4,17.8c0.3,5.9,1,11.5,2,16.7c1,5.2,2.7,9.3,5,12.3c1.7,2,3.2,3.5,4.4,4.2c1.3,0.8,2.4,1.1,3.5,0.8
			c2-0.2,3.9-1.6,5.5-4c1.6-2.4,3-5.4,4.2-8.9c1.2-3.5,2.2-7.5,2.9-11.9c0.7-4.4,1.3-8.7,1.7-12.9c0.4-4.2,0.6-8.2,0.6-11.9
			c0-3.7-0.1-6.8-0.4-9.2c-2.8-0.1-5.6-0.5-8.7-1c-3-0.5-6.1-1.5-9.2-2.8c-3.1-2-4.6-3.7-4.4-5c0.2-1.3,1.3-2.3,3.3-3.1
			c2-0.7,4.7-1.2,8-1.4c3.3-0.2,6.6-0.3,9.8-0.3s6.1,0.1,8.7,0.4C138.8,278.4,140.3,278.6,140.8,278.7z"/>
		<path d="M266.8,277.7c0.5-1.4,1.3-2.5,2.3-3.2c1.1-0.7,2.1-1.1,3.2-1.3c1-0.1,1.9,0.2,2.5,0.9c0.7,0.7,0.9,1.8,0.8,3.2
			c-0.4,4.2-1.2,7.8-2.4,10.9c-1.3,3.1-3,5.5-5.1,7.2c-2.2,1.7-4.8,2.8-8,3.1c-3.2,0.3-6.9-0.2-11.3-1.5c-0.4,2.5-0.8,5.2-1.4,8.1
			c-0.5,2.9-1.4,5.6-2.4,8.2c-1.1,2.6-2.4,4.8-4,6.8c-1.6,1.9-3.5,3.2-5.8,3.8c-4.7,1.3-8.7,0.9-12.2-1.3c-3.4-2.2-6.1-5.3-7.9-9.4
			c-1.9-4.1-2.9-8.7-3.2-14c-0.3-5.2,0.3-10.2,1.7-14.9c0.2-0.7,0.5-1.4,0.9-2.1c0.4-0.7,0.8-1.4,1.3-2.1c-2-0.8-4.1-1.7-6.1-2.6
			c-2-0.9-4.1-1.8-6.1-2.8c0.5,3,0.7,6.1,0.6,9.4c-0.1,3.2-0.3,6.4-0.8,9.6c-0.5,3.1-1.1,6.1-1.7,8.8c-0.7,2.8-1.4,5.1-2.1,7
			c-1.3,3.6-3.2,6.3-5.8,8.2c-2.5,1.9-5.3,2.9-8.2,3.2c-2.9,0.2-5.9-0.2-9-1.4c-3.1-1.1-5.9-2.8-8.6-5c-2.6-2.2-4.9-4.9-6.8-8.1
			c-1.9-3.2-3-6.7-3.3-10.5c-0.5-3.8-0.5-7.7,0.1-11.6c0.5-3.9,1.7-7.5,3.5-10.8c1.8-3.3,4.3-6.2,7.4-8.7c3.1-2.5,7-4.3,11.7-5.4
			c3.8-1,7.1-1.1,9.9-0.5c2.8,0.6,5,1.7,6.8,3.4c3.5,1.7,7.5,3.5,12.1,5.6c4.6,2,8.9,4,13.2,5.8c-0.2-1.2-0.5-2.6-0.7-4.2
			c-0.2-1.6-0.4-3.3-0.5-5.1c-0.2-3.6,0.2-7,1.4-10.2c1.2-3.2,2.8-5.9,4.9-8c2-2.2,4.4-3.7,7.1-4.5c2.7-0.8,5.5-0.7,8.4,0.5
			c2.2,0.8,3.7,2,4.7,3.3c1,1.4,1.6,3,2,4.9c0.4,1.9,0.6,3.9,0.6,6.1c0.1,2.2,0.3,4.5,0.6,6.8c0.5,2.6,0.7,5.3,0.6,7.8
			c-0.1,2.6-0.2,5-0.4,7.2c-0.2,2.2-0.4,4.3-0.5,6.1c-0.2,1.9-0.2,3.4-0.1,4.6c2.9,0.7,5.2,1,7,0.8c1.8-0.2,3.3-0.8,4.4-1.8
			c1.1-1,2-2.4,2.7-4.1C265.5,282,266.2,279.9,266.8,277.7z M179.2,303.6c1.7,5,3.2,8,4.6,8.8c1.4,0.8,2.6,0.4,3.6-1.3
			c1-1.7,1.9-4.2,2.6-7.7c0.7-3.4,1.3-6.9,1.6-10.5c0.4-3.5,0.6-6.8,0.8-9.6c0.2-2.9,0.2-4.7,0.1-5.4c-0.7-4.1-1.8-7.1-3.2-9.2
			c-1.4-2-3.3-2.2-5.9-0.5c-2.2,1.9-3.8,4.3-4.9,7.2c-1.1,2.9-1.7,5.9-2,9.2c-0.2,3.2-0.1,6.5,0.4,9.8
			C177.5,297.8,178.2,300.9,179.2,303.6z M233.4,315.7c1.1-0.7,2.2-2,3.2-3.8c1.1-1.8,2-3.7,2.8-5.8c0.8-2,1.4-4.1,2-6.1
			c0.5-2,0.8-3.6,0.8-4.7c-0.1-0.4-0.7-1-1.7-1.8c-1-0.8-2.1-1.6-3.3-2.4c-1.2-0.8-2.4-1.5-3.6-2.3c-1.2-0.7-2-1.2-2.5-1.4
			c-1.6,5-2.2,9.9-1.8,14.4C229.6,306.4,231,311,233.4,315.7z M243.9,283.3c0-1.3,0.1-2.7,0.3-4.1c0.2-1.4,0.3-2.8,0.3-4.2
			c-0.1-1.8-0.3-3.9-0.6-6.4c-0.3-2.5-0.7-5-1.1-7.7c-0.4-2.6-0.9-5.1-1.5-7.4c-0.6-2.3-1.3-4.1-2-5.6c-0.6,0.5-1.3,1.2-2.1,2.2
			c-0.8,1-1.3,1.9-1.5,2.9c-0.6,1.3-0.9,2.6-0.8,3.7c0.1,1.1,0.1,2.4,0.1,3.7c0,2,0.2,4.1,0.6,6.3c0.4,2.2,1.1,4.3,1.9,6.4
			c0.8,2.1,1.8,4,2.9,5.8C241.3,280.6,242.5,282.1,243.9,283.3z"/>
		<path d="M355.1,273.3c0.8,0.2,1.4,1.1,1.7,2.7c0.3,1.6,0.4,3.5,0.3,5.9c-0.1,2.3-0.4,4.9-0.7,7.7c-0.4,2.8-0.8,5.3-1.2,7.7
			c-0.4,2.4-0.8,4.5-1.2,6.4c-0.4,1.9-0.6,3-0.7,3.5c-0.2,1-0.9,3.1-2,6.3c-1.1,3.2-2.3,7-3.8,11.3c-1.4,4.3-3.1,8.8-4.9,13.5
			c-1.8,4.7-3.6,9.1-5.3,13.2c-1.7,4-3.4,7.4-5,10.2c-1.6,2.8-2.9,4.3-4,4.7l-4.3,0.7l-3.6-0.5c-2.5-0.8-4.9-3.1-7.1-6.8
			c-2.2-3.7-4.2-7.8-5.9-12.5c-1.7-4.7-3.1-9.4-4.2-14.2c-1.1-4.8-2-8.8-2.4-11.9c-0.2-1.6-0.4-3.2-0.5-4.8
			c-0.1-1.6-0.3-2.9-0.6-3.8c-0.3-0.9-0.7-1.3-1.1-1.1c-0.4,0.2-1.1,1.2-1.9,3.2c-2.6,6.1-5.9,10.1-9.7,11.8
			c-3.8,1.7-7.7,2-11.4,0.7c-3.8-1.3-7.1-3.7-10-7.4c-2.9-3.7-4.7-7.8-5.4-12.5c-1-7-0.7-13.1,0.7-18.4c1.4-5.3,3.8-9.8,7.1-13.4
			c3.3-3.7,7.4-6.5,12.3-8.6c4.9-2,10.3-3.3,16.3-3.8l1.1-0.4c0.6-7.2,1.4-14.3,2.3-21.2c1-6.9,2.5-13.8,4.5-20.6
			c1.4-4.6,2.9-8.9,4.4-12.9c1.5-4,3.3-7.7,5.5-11c2.2-3.3,4.7-6.2,7.8-8.7c3-2.5,6.6-4.5,10.8-5.9c5.2-1.8,9-1.5,11.5,1
			c2.5,2.5,4,6.2,4.5,11.4c0.5,5.1,0.1,11.1-1.2,17.8c-1.3,6.8-3,13.5-5.3,20.2c-2.3,6.7-4.9,12.9-7.9,18.7
			c-3,5.8-6.1,10.2-9.2,13.2c-0.6,1-1.1,1.8-1.4,2.4c-0.3,0.7-0.9,1.5-1.9,2.4c-1.3,1.4-2.6,3-3.9,4.7c-1.3,1.7-2.6,2.9-3.9,3.8
			c0.2,6.4,0.6,12.6,1,18.7c0.4,6.1,0.9,12.2,1.4,18.5c0.1,1.7,0.5,4.3,1.1,7.9c0.6,3.6,1.4,7.3,2.3,11.2c0.9,3.8,1.9,7.4,2.9,10.7
			c1,3.3,2,5.6,2.8,6.8c0.5,0.7,1.2,0.3,2.2-1.3c1-1.6,2-3.8,3.2-6.6c1.2-2.8,2.5-6,3.8-9.6c1.3-3.6,2.5-7.1,3.6-10.5
			c1.1-3.4,2-6.5,2.8-9.1c0.8-2.6,1.2-4.4,1.4-5.2c0.2-1.2,0.4-3,0.5-5.4c0.1-2.4,0.3-5,0.6-7.8c0.3-2.8,0.7-5.7,1.2-8.7
			c0.5-2.9,1.1-5.6,2-7.8c0.8-2.3,1.9-4,3.2-5.2C351.5,273.2,353.1,272.9,355.1,273.3z M296.9,285.8c0.5-1.7,0.4-3.4-0.3-5.2
			c-0.7-1.8-1.1-3.5-1.2-5.2c-0.2-2.3-0.7-3.7-1.4-4.3c-0.7-0.6-1.4-0.7-2.3-0.2c-0.9,0.5-1.8,1.3-2.8,2.4c-1,1.1-1.8,2.3-2.5,3.5
			c-1.3,2.2-2.3,3.7-2.8,4.6c-0.5,0.9-1,1.7-1.3,2.3c-0.3,0.7-0.5,1.5-0.6,2.4c-0.1,1-0.4,2.6-0.9,4.9c-0.5,2.6-0.9,5.2-1.4,7.6
			c-0.4,2.4-0.6,4.8-0.6,7.1c0,2.3,0.3,4.7,0.8,6.9c0.5,2.3,1.5,4.6,3,7c2.6-2.6,4.7-5.2,6.2-7.7c1.5-2.5,2.7-5,3.6-7.7
			c0.9-2.7,1.7-5.6,2.3-8.6C295.3,292.7,296,289.4,296.9,285.8z M337.4,210.3c1-7.8,1.1-12.9,0.5-15.3c-0.7-2.4-1.8-2.9-3.4-1.4
			c-1.6,1.5-3.5,4.7-5.8,9.5c-2.2,4.8-4.3,10.5-6.3,17.1c-2,6.6-3.7,13.7-5.1,21.4c-1.4,7.6-2.2,15-2.2,22.3c2.9-2.8,5.4-6,7.5-9.6
			c2.1-3.7,4-7.5,5.6-11.5c1.6-4,3-8.2,4.2-12.4c1.2-4.3,2.3-8.3,3.4-12.2c0.4-1.6,0.7-2.9,0.9-3.9
			C336.9,213.1,337.2,211.8,337.4,210.3z"/>
	</g>
	<g>
		<path d="M116.8,173.9c2.3,0.1,4.3,0.3,6.5,0.4c0.2-0.7,0.3-1.3,0.5-2c0.4-2.1,1-4.2,2.3-6c2.5-3.6,6.4-4.7,10.4-2.9
			c2.8,1.2,5,3.3,6.6,5.8c0.9,1.5,1.8,3.1,2.6,4.5c0.9,0.2,1.1-0.5,1.4-0.9c1-1.3,1.9-2.8,3-4c1.8-2,4.1-3.3,6.8-3.5
			c2.3-0.2,4.2,0.6,5.7,2.4c2.6,3.1,3.2,6.6,2.5,10.4c-0.8,4.3-2.8,8.1-5.7,11.4c-1,1.1-2,2.1-3.1,3c-3.7,3.1-7.5,6.2-11.3,9.3
			c-0.6,0.5-1.4,0.9-2.2,1.5c-0.7-0.4-1.5-0.7-2.1-1.2c-6.5-6.1-12.2-12.7-15.6-21.1c-0.1-0.2-0.2-0.4-0.5-0.8c-2.7,0-5.5,0-8.7,0
			c-1,2-2,4.2-3.3,6.3c-1.3,2.1-2.7,4.2-4.2,6.2c-1.5,2-3.2,3.9-4.9,5.7c-1.7,1.8-3.3,3.7-5.4,4.9c-1.6-0.3-2.6-1.3-3.6-2.1
			c-3.3-2.6-6.5-5.2-9.7-8c-1.5-1.3-3-2.7-4.3-4.3c-2.8-3.2-4.5-7-5.3-11.2c-0.6-3.3-0.1-6.4,1.9-9.2c1.9-2.8,4.4-4.2,8.8-2.8
			c2.5,0.8,4.3,2.5,5.8,4.6c0.8,1.1,1.6,2.3,2.4,3.4c1,0.1,1-0.7,1.3-1.1c0.9-1.5,1.7-3.1,2.8-4.6c1.5-2.1,3.4-3.6,5.8-4.7
			c4-1.8,7.8-0.7,10.4,2.9c1.2,1.7,1.9,3.6,2.3,5.6C116.6,172.4,116.7,172.9,116.8,173.9z M142.7,200.1c0.7-0.5,1.3-0.8,1.9-1.2
			c3.4-2.8,6.8-5.6,10.2-8.4c1.2-1,2.3-2.1,3.3-3.2c2.4-2.6,3.9-5.7,4.7-9.1c0.7-2.8,0.3-5.4-1.4-7.8c-1.6-2.3-3.6-2.9-6.2-1.7
			c-1.6,0.7-2.8,1.8-3.9,3.1c-1.1,1.4-2.1,2.9-3.2,4.3c-2.2,2.9-3,2.9-4.5-0.3c-1.1-2.4-2.3-4.7-4.1-6.7c-1.3-1.4-2.9-2.4-4.7-3.1
			c-1.6-0.5-3.1-0.3-4.4,0.7c-0.9,0.8-1.7,1.7-2.3,2.7c-1.5,2.8-1.5,5.7-0.7,8.7c0.7,2.7,1.9,5.1,3.3,7.5c2.9,4.7,6.4,8.9,10,13
			C141.2,199.1,142,199.5,142.7,200.1z M97.5,200.1c0.7-0.4,1.1-0.6,1.3-0.8c4.6-5,9-10.2,12.1-16.3c1.2-2.2,2-4.6,2.4-7.1
			c0.4-2.7-0.1-5.2-1.6-7.5c-1.7-2.5-4.1-3.4-6.8-2.2c-1.3,0.6-2.5,1.4-3.5,2.4c-1.9,1.7-3.1,3.9-4.2,6.2c-0.4,1-1,1.9-1.5,2.8
			c-0.5,0.8-1.6,0.8-2.2,0.1c-0.7-0.8-1.3-1.7-2-2.5c-1.2-1.5-2.2-3.1-3.5-4.5c-1.2-1.3-2.7-2.3-4.6-2.5c-1.5-0.2-2.8,0.2-3.8,1.4
			c-1.8,2.2-2.7,4.8-2.2,7.7c0.7,3.9,2.3,7.3,5,10.1C87,192,92.4,195.8,97.5,200.1z"/>
		<path d="M142.5,197.3c-0.8-0.7-1.6-1.4-2.3-2.2c-3.4-4-6.5-8.2-9-12.9c-0.9-1.8-1.6-3.7-2.2-5.6c-0.6-1.8-0.2-3.5,0.5-5.2
			c1.3-2.8,4.1-3.6,6.5-1.7c1,0.8,2,1.8,2.7,2.8c1.3,1.8,2.4,3.8,3.6,5.8c0.8,1.3,1.3,2.8,2.9,3.8c0.4-0.3,1-0.6,1.3-1
			c1.2-1.6,2.3-3.3,3.6-4.9c1.1-1.4,2.3-2.7,3.6-4c0.7-0.7,1.5-1.1,2.5-1.2c2.8-0.2,4.3,1,4.6,3.7c0.3,2.2-0.2,4.3-1.2,6.2
			c-0.9,1.8-1.9,3.6-3.2,5.1c-3.7,4.1-7.9,7.6-12.5,10.7C143.6,196.9,143.1,197.1,142.5,197.3z M150.2,183.4c-0.7-0.1-1-0.3-1.1-0.2
			c-1.4,1.4-3.6,6.3-3.9,8.5c0.2,0,0.6,0.2,0.6,0.1C147.8,189.3,148.7,186.4,150.2,183.4z M141.9,189.3c1.2-1.1,1.5-1.6,1.7-3
			c0.1-0.5-0.2-0.9-1.1-0.8C142.2,186.6,141.2,187.7,141.9,189.3z"/>
		<path d="M95,182.1c1.7-0.8,2.1-2.2,2.9-3.4c1.2-2,2.4-4.1,3.7-6.1c0.7-1.1,1.7-2,2.7-2.8c2.4-1.9,5.2-1.2,6.5,1.5
			c0.9,1.8,1,3.7,0.5,5.6c-0.4,1.5-0.9,3-1.6,4.3c-2.7,5.3-6.2,10.2-10.1,14.7c-0.3,0.4-0.7,0.7-1,1c-0.2,0.1-0.4,0.2-0.9,0.4
			c-0.6-0.3-1.3-0.6-2-1.1c-4-2.8-7.8-5.9-11.1-9.5c-2.4-2.5-4.2-5.5-4.8-9c-0.2-0.9-0.3-1.9-0.2-2.8c0.2-1.4,0.6-3,2.1-3.5
			c1.7-0.6,3.6-0.7,5,0.7c1.5,1.5,2.8,3.2,4.2,4.8C92.2,178.5,93.2,180.5,95,182.1z M96.9,191c0.3-0.2,0.8-0.3,0.9-0.5
			c1-2.3,1.9-4.5,2.7-6.9c0.1-0.2-0.3-0.7-0.6-1.2C97.9,185.6,96.7,189,96.9,191z M92.3,189.7c2.1-3.3,2.1-3.3,0.9-4.3
			C92.5,186.5,91.6,187.6,92.3,189.7z"/>
	</g>
	<path d="M180.4,175.6c6.4-2.9,12.2-6.3,18-9.7c2-1.1,4-2.2,5.9-3.6c-0.4-0.8-0.7-1.4-1.1-2.1c-0.9-1.6-1.8-3.2-2.6-4.9
		c-0.6-1.2-0.4-1.6,0.8-2.3c0.3-0.1,0.5-0.3,0.8-0.4c1.3-0.5,2.1-0.3,2.9,0.9c1.1,1.6,2.1,3.2,3.1,4.8c0.2,0.4,0.5,0.7,0.8,1.1
		c1.2-0.4,2.1-0.9,3-1.6c0-0.3,0-0.6,0.1-0.9c0.1-2.6,1.6-4.5,4-5.2c2.3-0.6,4.8,0.4,6.2,2.4c1.4,2.2,1.3,4.4-0.3,6.3
		c-1.5,1.8-4,2.3-6.2,1.3c-0.5-0.2-0.9-0.5-1.5-0.8c-1,0.6-1.9,1.2-3,1.9c0.1,0.5,0.2,0.9,0.4,1.3c0.7,1.4,1.5,2.9,2.3,4.3
		c0.8,1.4,1,2.5-1.2,3.8c-0.2,0.1-0.4,0.2-0.6,0.3c-0.9,0.4-1.4,0.3-1.9-0.4c-0.8-1.2-1.5-2.4-2.2-3.6c-0.5-0.9-0.9-1.8-1.7-2.7
		c-0.5,0.2-1.1,0.4-1.6,0.7c-3.5,2-7,4-10.6,6c-3.5,1.9-7,3.8-10.4,5.8c-0.8,0.4-1.6,0.7-2.2,1.3c0,0.2,0,0.3,0.1,0.3
		c2,1.4,3.7,3.1,5.4,4.8c1.7,1.7,3.7,2.6,5.9,3.2c1.7,0.5,3.3,0.2,5-0.6c-0.3-0.7-0.6-1.2-0.8-1.8c-0.4-1,0-1.9,1.1-1.9
		c2.4,0,4.9,0.1,7.3,0.2c1,0.1,1.4,0.7,1.2,1.7c-0.1,0.5-0.3,1-0.5,1.5c-0.7,1.3-1.4,2.6-2.2,3.9c-0.2,0.3-0.4,0.6-0.7,0.8
		c-0.6,0.6-1.3,0.6-2,0c-0.6-0.6-1.2-1.3-1.9-2c-0.7,0.2-1.5,0.4-2.3,0.6c-1.7,0.5-3.5,0.5-5.2,0c-2.9-0.8-5.5-2.1-7.6-4.2
		c-0.6-0.6-1.3-1.2-1.9-1.8c-1.1-1-2.3-1.8-3.6-2.5c-0.5-0.3-1.1-0.5-1.6-0.7c-1.3-0.6-1.5-1.1-1.1-2.5c0.1-0.3,0.2-0.6,0.3-0.8
		c0.7-1.8,1-3.7,0.9-5.6c0-1.8-0.1-3.5-0.2-5.3c-0.2-3.4,0.1-6.6,2.3-9.4c-0.3-0.7-0.6-1.3-0.8-1.9c-0.4-1.2,0.1-2.3,1.3-2.5
		c2.3-0.5,4.7-0.5,7,0c1.1,0.3,1.5,1,0.9,2c-1.2,1.7-1.7,3.7-2.6,5.6c-0.9,1.9-1.2,2-2.9,0.7c-0.2-0.2-0.5-0.3-0.8-0.6
		c-0.8,1.4-1.1,2.8-1.1,4.3c0,0.9,0.1,1.8,0.1,2.6c0,2.3-0.1,4.6-0.1,6.8C180.4,174.8,180.4,175.1,180.4,175.6z M219.3,159.1
		c0.1-0.2,0.4-0.6,0.4-1c-0.1-1.2-0.7-2.1-1.8-2.6c-0.8-0.3-1.6,0-2.1,0.7c-0.4,0.7-0.4,1.4,0.2,2c0.4,0.4,0.8,0.7,1.2,0.9
		C217.8,159.5,218.5,159.5,219.3,159.1z"/>
	<g>
		<path d="M294.9,166.5c-0.6-0.2-1.2-0.4-1.8-0.4c-0.8-0.1-1.5,0-2.3,0.1c-1.9,0.3-3.7,0.6-5.6,0.9c-0.4,0.1-0.8,0.2-1.2,0.4
			c-0.2,0.1-0.4,0.5-0.4,0.7c0,0.2,0.3,0.5,0.5,0.5c0.7,0,1.4,0,2.1-0.1c1.8-0.2,3.6-0.4,5.4-0.5c0.4,0,0.9,0.1,1.5,0.3
			c-0.3,0.4-0.5,0.6-0.7,0.8c-0.2,0.2-0.4,0.4-0.6,0.6c-0.6,0.8-0.5,1.4,0.2,2c0.5,0.5,1.2,0.7,1.4,1.7c-0.3,0.3-0.9,0.6-1.1,1
			c-0.3,0.5-0.2,1.2-0.3,1.8c-0.1,0.5-0.2,1-0.4,1.4c-0.2,0.6-0.9,0.8-1.4,0.5c-0.5-0.3-0.9-0.6-1.3-1c-1.3-1.2-2.5-2.4-3.8-3.6
			c-0.8-0.7-1.6-1.3-2.5-1.9c-0.2-0.2-0.5-0.3-0.7-0.4c-0.2,0-0.6,0-0.7,0.2c-0.2,0.2-0.3,0.5-0.2,0.7c0.1,0.4,0.3,0.8,0.5,1.1
			c0.9,1.8,1.9,3.5,2.8,5.4c0.5,1.1,1,2.3,1.4,3.5c0.2,0.4,0.2,1,0.2,1.4c-0.1,1.2-1,1.9-2.2,1.5c-0.6-0.2-1.2-0.4-1.7-0.6
			c-0.7,0.6-1.2,1.3-1.8,1.5c-0.9,0.2-1.4-0.7-2-1.2c-0.5-0.4-1-0.4-1.5,0c-0.4,0.4-0.8,0.9-1.3,1.3c-1.1-0.6-1.4-1.5-1.6-2.5
			c-0.2-1.1-0.2-2.2,0.1-3.3c0.3-1.1,0.8-2.1,1.2-3.1c0.2-0.5,0.5-1,0.6-1.5c0.1-0.2-0.1-0.6-0.3-0.7c-0.3-0.1-0.7-0.1-1,0
			c-0.3,0.1-0.5,0.5-0.7,0.8c-1.1,1.5-2.1,2.9-3.2,4.4c-0.5,0.7-1.1,1.3-1.8,1.8c-0.4,0.3-1,0.5-1.5,0.6c-0.8,0.1-1.4-0.3-1.5-1.1
			c-0.1-0.5-0.1-1-0.2-1.4c-0.1-0.7-0.5-1.1-1.2-1.2c-0.4-0.1-0.8,0-1.2-0.1c-1.2-0.3-1.8-1.4-1.3-2.6c0.1-0.3,0.4-0.6,0.6-0.9
			c0.3-0.6,0.2-1.1-0.3-1.5c-0.3-0.2-0.7-0.4-1.1-0.6c-0.9-0.5-1-1.3-0.5-2.1c0.3-0.4,0.7-0.7,1-1c0.7-0.7,0.7-1.2,0-1.8
			c-0.4-0.4-0.8-0.7-1.3-1.1c0.3-0.3,0.5-0.6,0.7-0.6c0.9-0.2,1.7-0.6,2.6-0.6c1.1,0,2.2,0.3,3.3,0.5c0.8,0.2,1.6,0.5,2.4,0.6
			c0.6,0.1,1.1-0.2,1.2-0.6c0.1-0.5,0.1-1-0.4-1.3c-0.9-0.6-1.8-1.1-2.7-1.6c-1.3-0.8-2.7-1.5-3.9-2.4c-0.6-0.4-1.2-0.9-1.7-1.5
			c-1-1.3-0.6-2.3,1.1-2.5c0.1,0,0.1,0,0.2,0c1.1,0,1.8-0.7,2.1-1.7c0.2-0.5,0.3-1.1,0.5-1.6c0.4-0.9,0.8-1.2,1.8-0.7
			c1.1,0.5,2.1,0.4,3.2-0.2c0.3-0.2,0.6-0.3,1-0.4c0.7-0.2,1.3,0,1.5,0.8c0.2,0.6,0.3,1.2,0.4,1.8c0.3,2.1,0.6,4.3,0.9,6.4
			c0.1,0.4,0.2,0.8,0.4,1.2c0.1,0.1,0.4,0.2,0.5,0.2c0.1,0,0.3-0.2,0.3-0.3c0.1-0.6,0.1-1.2,0.2-1.9c0.2-1.9,0.3-3.8,0.6-5.6
			c0.2-1,0.6-2,1.1-2.9c0.4-0.9,1.1-0.9,1.8-0.2c0.3,0.3,0.5,0.6,0.8,0.9c0.6,0.6,1.4,0.9,2.3,0.6c0.5-0.2,1-0.4,1.6-0.1
			c1,1.8,1,1.8,3,3c1.4,0.8,1.5,1.5,0.3,2.5c-1,0.8-2,1.5-2.9,2.3c-0.7,0.6-1.4,1.4-2,2.1c-0.2,0.2-0.4,0.5-0.4,0.7
			c0,0.2,0.1,0.5,0.2,0.7c0.1,0.1,0.4,0.1,0.6,0.1c0.2,0,0.4-0.2,0.5-0.3c1.7-1.4,3.5-2.8,5.2-4.2c2.1-1.9,2-3.5-0.4-5
			c-1-0.6-1.9-1.3-2.5-2.4c-0.6-1.1-1.3-1.5-2.4-1c-1.3,0.5-2.1,0.2-2.8-0.9c-0.1-0.2-0.3-0.3-0.4-0.5c-0.8-0.7-1.8-0.8-2.7-0.1
			c-0.6,0.5-1,1.1-1.3,1.9c-0.3,0.7-0.6,1.4-0.9,2.3c-0.2-0.9-0.3-1.6-0.6-2.2c-0.5-1.3-1.6-1.8-2.8-1.5c-0.5,0.1-0.9,0.3-1.3,0.6
			c-0.7,0.4-1.4,0.6-2.2,0.2c-0.2-0.1-0.4-0.1-0.6-0.1c-1-0.2-1.8,0.2-2.3,1c-0.3,0.5-0.6,1-0.8,1.5c-0.3,1-0.8,1.6-1.9,1.6
			c-0.1,0-0.3,0-0.4,0.1c-1.3,0.3-1.9,1.1-1.9,2.4c0,1.2,0.5,2.3,1.4,3.2c0.7,0.6,1.4,1.1,2.1,1.7c0.2,0.2,0.5,0.4,0.9,0.8
			c-0.7,0.3-1.3,0.2-1.8,0.3c-1,0.1-1.9,0.4-2.8,0.9c-1.7,1-2,2.3-0.8,4c0.1,0.2,0.2,0.3,0.3,0.5c-0.7,0.9-1.2,1.9-1.1,3.1
			c0.1,1.3,1.2,1.8,1.9,2.6c-1.2,3.6,0.7,5.4,3.5,5.8c0.1,0.4,0.2,0.9,0.4,1.4c0.7,2,2.6,2.8,4.5,2c0.7-0.3,1.3-0.8,1.9-1.2
			c0.4-0.3,0.7-0.6,1.2-0.9c0.2,0.9,0.3,1.7,0.5,2.4c0.3,1.2,0.8,2.2,1.8,3c0.8,0.5,1.5,0.6,2.3,0c0.4-0.3,0.7-0.6,1.2-0.9
			c1.7,1.7,3.4,1.5,4.9,0c0.4,0.1,0.8,0.3,1.1,0.3c2.1,0.4,3.8-0.9,4-2.9c0.1-0.6,0-1.3-0.1-1.9c-0.4-1.3-0.9-2.6-1.4-3.9
			c-0.1-0.3-0.5-0.5,0-0.9c0.5,0.5,1,0.9,1.5,1.4c0.5,0.4,0.9,0.8,1.5,1.2c2.2,1.4,4.4,0.4,5-2.1c0.2-0.7,0.2-1.5,0.3-2.2
			c0.2-0.2,0.3-0.3,0.5-0.5c1.2-1.2,1.3-1.9,0.2-3.2c-0.3-0.4-0.7-0.8-1.1-1.3c0.6-0.5,1.1-0.9,1.5-1.3
			C296.4,168.2,296.2,167,294.9,166.5z"/>
		<path d="M276.1,166.7c-0.3,0-0.7,0-1,0.1c-0.2,0.1-0.5,0.4-0.5,0.6c0,0.2,0.1,0.6,0.3,0.7c0.2,0.2,0.5,0.3,0.7,0.3
			c0.7,0,1.4,0,2.1-0.1c2.1-0.4,4.2-0.9,6.2-1.9c2.7-1.4,5.3-2.7,7.9-4.3c1.6-1,3.1-2.4,4.5-3.7c0.6-0.5,0.5-1.3,0.1-1.7
			c-0.4-0.4-0.9-0.3-1.5,0.1c-0.7,0.5-1.3,1-2,1.4c-3.2,3.2-6.9,5.6-11,7.3C280,166.5,278.1,167,276.1,166.7z"/>
		<path d="M292.9,158.4L292.9,158.4C292.8,158.4,292.8,158.4,292.9,158.4C292.8,158.4,292.8,158.4,292.9,158.4z"/>
		<path d="M295.7,160.8c-0.5,0-1.1,0.5-1.1,1c-0.1,0.6,0.4,1.2,1.1,1.3c0.6,0.1,1.2-0.4,1.2-1.1
			C296.9,161.3,296.4,160.8,295.7,160.8z"/>
		<path d="M292.1,163.3c0,0.6,0.5,1,1,1.1c0.6,0,1-0.5,1-1c0-0.6-0.5-1-1-1C292.6,162.3,292.1,162.7,292.1,163.3z"/>
		<path d="M294.2,156.6c0.5,0,0.9-0.5,0.8-1c0-0.5-0.5-0.9-1-0.8c-0.5,0-0.9,0.5-0.8,1C293.3,156.2,293.7,156.6,294.2,156.6z"/>
		<path d="M291.8,157.8c0.4,0,0.7-0.4,0.7-0.8c0-0.4-0.4-0.7-0.8-0.7c-0.4,0-0.7,0.4-0.7,0.8C291,157.5,291.4,157.9,291.8,157.8z"/>
	</g>
	<path d="M315.6,151.8c0.9,1,1.8,2,2.4,3.2c0.6,1.3,1.6,2.3,2.6,3.2c1,0.9,2.2,1.2,3.4,0.6c1.1-0.6,2.2-1.2,3.2-1.9
		c1.1-0.7,2.1-1.5,3.3-2c0.5-0.2,0.9-0.4,1.4-0.5c0.5-0.1,1-0.1,1.5,0.1c1,0.3,1.5,1.1,1.3,2.2c-0.2,0.8-0.6,1.5-1.1,2.1
		c-0.7,0.9-1.4,1.7-2.1,2.6c-0.5,0.7-1,1.3-1.5,2c-0.3,0.4-0.5,0.9-0.7,1.3c-0.3,0.8-0.3,1.6,0.1,2.3c0.4,0.7,0.8,1.5,1.4,2.1
		c0.7,0.8,1.5,1.4,2.3,2.1c1.3,1,2.5,2.2,3.4,3.5c0.4,0.5,0.7,1.1,0.7,1.8c0,0.9-0.4,1.5-1.3,1.7c-0.5,0.1-1.1,0.1-1.6,0
		c-1.9-0.2-3.7-0.9-5.4-1.5c-0.5-0.2-1-0.4-1.5-0.6c-0.5-0.1-1-0.3-1.5-0.3c-1.3-0.1-2.4,0.2-2.9,1.5c-0.4,1.1-0.9,2.1-1.2,3.2
		c-0.5,1.3-0.8,2.7-1.6,3.9c-0.3,0.5-0.6,0.9-0.9,1.4c-0.2,0.2-0.4,0.5-0.6,0.7c-1.6,1.4-3.4,1-4.1-1.1c-0.5-1.5-0.6-3-0.5-4.6
		c0.1-1.7,0.2-3.5,0.3-5.2c0-0.5,0-1.1-0.1-1.6c-0.1-0.8-0.7-1.3-1.5-1.4c-0.4,0-0.9-0.1-1.3,0c-1.8,0.1-3.6,0.3-5.4,0.4
		c-0.8,0.1-1.6,0.1-2.4,0.1c-0.9,0-1.7-0.2-2.4-0.7c-1.2-0.7-1.5-1.7-0.9-2.9c0.3-0.6,0.7-1.2,1.3-1.6c1.3-0.9,2.8-1.4,4.2-1.8
		c0.8-0.2,1.6-0.4,2.3-0.6c0.5-0.1,1-0.3,1.4-0.4c1.6-0.6,2.5-1.8,2.5-3.5c0.1-1.9-0.2-3.8-0.8-5.6c-0.3-0.9-0.6-1.8-0.7-2.7
		c-0.1-0.6-0.1-1.2,0.1-1.8c0.2-1.1,0.9-1.5,2-1.3C314,150.5,314.8,151.1,315.6,151.8z M313.9,168.5c0.3,0.3,0.8,0.3,1.1,0
		c0.3-0.3,0.3-0.8-0.1-1.1c-0.3-0.3-0.8-0.3-1,0C313.6,167.8,313.7,168.3,313.9,168.5z M319.2,173.7c0.2-0.3,0.2-0.8-0.1-1.1
		c-0.3-0.3-0.8-0.2-1,0.1c-0.2,0.3-0.2,0.8,0.2,1C318.6,174,319,174,319.2,173.7z M318,183.4c-0.3-0.3-0.8-0.3-1.1,0
		c-0.3,0.3-0.2,0.8,0.1,1.1c0.3,0.2,0.8,0.2,1.1-0.2C318.3,184.1,318.3,183.7,318,183.4z M304.3,170.6c0.3-0.3,0.3-0.9,0-1.2
		c-0.2-0.3-0.7-0.3-0.9,0c-0.3,0.3-0.4,0.9,0,1.2C303.6,170.8,304.1,170.8,304.3,170.6z M309.2,169.9c0.3-0.3,0.3-0.8,0-1.1
		c-0.3-0.3-0.8-0.2-1,0.1c-0.3,0.3-0.2,0.8,0.1,1C308.6,170.1,309,170.1,309.2,169.9z M318.1,162c-0.3-0.3-0.8-0.3-1,0
		c-0.2,0.3-0.2,0.8,0.1,1c0.3,0.2,0.7,0.2,0.9,0C318.3,162.7,318.3,162.3,318.1,162z M323.3,164.1c0.3,0.3,0.8,0.3,1.1,0
		c0.2-0.2,0.2-0.7,0-1c-0.2-0.3-0.6-0.3-0.9-0.1C323.1,163.3,323.1,163.8,323.3,164.1z M325.1,171.2c0.3,0.3,0.8,0.3,1.1,0
		c0.2-0.2,0.2-0.7,0-1c-0.2-0.3-0.6-0.3-0.9-0.1C324.9,170.4,324.8,170.9,325.1,171.2z M316.3,158c-0.3-0.2-0.7-0.2-0.9,0.1
		c-0.3,0.3-0.2,0.8,0.1,1.1c0.3,0.3,0.8,0.2,1.1-0.1C316.7,158.7,316.6,158.2,316.3,158z M314.4,153.9c-0.2-0.2-0.7-0.2-0.9,0.1
		c-0.3,0.3-0.3,0.8,0,1c0.3,0.3,0.8,0.3,1,0C314.7,154.6,314.7,154.1,314.4,153.9z M320,167.5c0.3,0.3,0.8,0.3,1,0
		c0.3-0.3,0.3-0.8,0-1c-0.3-0.3-0.7-0.2-1,0.1C319.7,166.9,319.7,167.3,320,167.5z M327.6,161.2c0.3-0.3,0.3-0.8,0-1
		c-0.3-0.2-0.7-0.2-0.9,0.1c-0.3,0.3-0.3,0.7-0.1,0.9C326.8,161.4,327.3,161.5,327.6,161.2z M335,176.1c0.2-0.3,0.2-0.7-0.1-0.9
		c-0.3-0.3-0.8-0.2-1,0.1c-0.2,0.3-0.1,0.7,0.2,0.9C334.4,176.5,334.7,176.4,335,176.1z M318.9,178.6c0.3-0.3,0.3-0.8-0.1-1
		c-0.3-0.2-0.7-0.2-0.9,0.1c-0.3,0.3-0.3,0.8,0,1C318.1,179,318.6,178.9,318.9,178.6z M330.4,173.8c0.2-0.2,0.2-0.6-0.1-0.8
		c-0.2-0.2-0.5-0.2-0.7,0c-0.2,0.2-0.2,0.6,0,0.8C329.8,174,330.2,174,330.4,173.8z M331.7,156.8c-0.4,0-0.6,0-0.8,0.1
		c-0.2,0.2-0.2,0.4,0,0.6c0.2,0.2,0.5,0.2,0.6,0C331.6,157.5,331.6,157.2,331.7,156.8z"/>
	<g>
		<path d="M148.1,347c-0.3,2.2-0.7,4.4-1,6.6c-0.5,3.7-0.2,7.4,0.7,11c0.6,2.3,1.2,4.7,1.9,7c0,0.1,0.1,0.1,0.1,0.2
			c-0.1,0.3-0.1,0.6-0.2,0.9c-0.2-0.2-0.5-0.3-0.6-0.6c-2.4-4.6-4.4-9.4-5.9-14.3c-0.7-2.2-0.8-4.5-1.1-6.8c-0.3-2-0.1-4.1,0.4-6
			c0,0,0-0.1,0-0.1c0.4-1.1,0.9-2.1,2.2-2.3c1.2-0.2,1.9,0.7,2.5,1.6C147.8,344.9,148.1,345.9,148.1,347z"/>
		<path d="M134.1,362.3c0.1-0.9,0.2-1.8,1.1-2.2c0.9-0.5,1.8-0.4,2.5,0.2c0.9,0.8,1.8,1.7,2.3,2.7c0.8,1.6,1.4,3.4,2.1,5.2
			c1.4,3.5,2.9,6.8,5.2,9.8c0.1,0.2,0.1,0.5,0.2,0.7c-0.3,0-0.7,0-0.9-0.1c-3.5-2.4-6.4-5.3-9-8.7c-1.6-2-2.6-4.3-3.3-6.8
			C134.2,362.9,134.1,362.6,134.1,362.3z"/>
	</g>
	<path d="M250.4,394.7c-5.6,3.5-11.9,6.7-19.6,5.6c-7.5-1.1-13.3-5-18.8-10.3c-2.1,1.2-4.1,2.3-6,3.6c-10.1,7-20.1,6.5-30.2-0.1
		c-1.1-0.7-2.1-1.3-3.2-2c-3.5,1.1-5.9,3.5-8.6,5.4c-10.8,7.6-22.3,4-29.5-4.5c-1.3-1.5-2.1-3.5-2.9-5.4c-0.6-1.7,0.4-3.5,2.1-4.5
		c1.5-1,3-0.6,4.3,0.4c1.2,0.9,2.2,2.2,3.3,3.2c1.7,1.6,3.3,3.2,5.1,4.6c4.8,3.6,9.8,4.2,15,0.8c2.5-1.7,5.1-3.5,7.4-5.5
		c2.9-2.5,6-2.7,9.2-1c2,1.1,4,2.4,6,3.4c6.5,3.4,12.8,3.3,18.9-0.9c2.3-1.6,4.6-3.2,7-4.8c3.4-2.2,5.1-2,8.4,0.4
		c1.4,1.1,2.7,2.4,4.2,3.4c8.1,5.3,16.6,6.5,25.4,1.6c0.9-0.5,1.7-1.1,2.6-1.6c2.8-1.6,5.7-1.6,7.8,0.6c5.3,5.5,11.9,5.5,18.6,5.1
		c6.5-0.3,12.7-1.6,18.6-4.5c0.9-0.5,1.9-1,2.9-1c0.9,0,2.1,0.5,2.6,1.2c0.5,0.7,0.7,2.2,0.3,2.8c-1.4,1.8-2.9,3.8-4.8,4.8
		c-8.5,4.3-17.4,7.6-27.2,7.5c-6.2,0-11.6-1.7-15.8-6.6c-0.5-0.6-1.1-1-1.7-1.5C251.8,394.9,251.4,394.9,250.4,394.7z"/>
	<g>
		<path d="M303.4,353.2c-1.9-0.3-4,1.3-4.4,3.3c-0.4,2.5,1.3,4.2,3.2,4.5c2.2,0.3,4.2-0.8,4.8-3.3
			C307.5,355.5,305.1,353.5,303.4,353.2z M300.9,358.6c-0.3,0.1-0.5-0.2-0.5-0.6c0-0.5,0-0.9,0-1.1c0.2-1.3,0.7-2,1.6-2.6
			c0.2-0.1,0.4-0.2,0.6-0.2c0.2,0,0.4,0.1,0.5,0.3c0.1,0.1,0,0.3-0.1,0.4c0,0.1-0.2,0.1-0.2,0.2c-1,0.6-1.4,1.5-1.4,2.6
			c0,0.2,0,0.3,0,0.5C301.3,358.3,301.2,358.5,300.9,358.6z M301.7,360.2c-0.1,0-0.1,0-0.1-0.1c0,0,0,0,0,0c0,0,0,0,0,0
			c-0.2-0.1-0.2-0.3-0.2-0.5c0,0,0,0,0-0.1c0,0,0-0.1,0-0.1c0-0.1,0.1-0.1,0.2-0.2c0,0,0,0,0,0c0.1,0,0.2-0.1,0.2,0c0,0,0,0,0,0
			c0,0,0,0,0,0c0.3,0,0.4,0.3,0.4,0.5C302.1,360.1,301.9,360.3,301.7,360.2z"/>
		<path d="M311.4,365.1c-1.9-0.3-4,1.2-4.4,3.2c-0.4,2.3,1,4.1,3.1,4.6c2.2,0.5,4.4-1.1,4.8-3.3
			C315.5,367.4,313.1,365.4,311.4,365.1z M309.2,370.2c-0.1,0.1-0.2,0.2-0.3,0.3c-0.1,0-0.3-0.1-0.4-0.2c-0.6-1.6,0.3-3.7,1.9-4.3
			c0.2-0.1,0.3,0,0.7,0.4c0,0.1-0.1,0.2-0.1,0.3c-1.2,0.7-1.7,1.8-1.6,3.1C309.3,369.9,309.3,370,309.2,370.2z M309.6,371.9
			c-0.3,0-0.4-0.3-0.4-0.5c0-0.3,0.3-0.4,0.5-0.4c0.3,0,0.4,0.3,0.4,0.5C310.1,371.7,309.8,371.9,309.6,371.9z"/>
		<path d="M300.2,373.2c-1.9-0.4-4,1.1-4.4,3.2c-0.4,2.2,0.8,4.1,3.1,4.6c2.2,0.5,4.4-1.1,4.9-3.2
			C304.3,375.5,301.9,373.5,300.2,373.2z M297.7,378.6c-0.3,0.1-0.5-0.2-0.5-0.6c0-0.5,0-0.9,0-1.1c0.2-1.3,0.7-2,1.6-2.6
			c0.2-0.1,0.4-0.2,0.6-0.2c0.2,0,0.4,0.1,0.5,0.3c0.1,0.1,0,0.3-0.1,0.4c0,0.1-0.2,0.1-0.2,0.2c-1,0.6-1.4,1.5-1.4,2.6
			c0,0.2,0,0.3,0,0.5C298,378.2,298,378.5,297.7,378.6z M298.3,380c-0.3,0-0.4-0.3-0.4-0.5c0-0.3,0.3-0.4,0.5-0.4
			c0.3,0,0.4,0.3,0.4,0.5C298.8,379.8,298.6,380,298.3,380z"/>
	</g>
</g>
</svg>
