<?xml version="1.0" encoding="utf-8"?>
<!-- Generator: Adobe Illustrator 18.0.0, SVG Export Plug-In . SVG Version: 6.00 Build 0)  -->
<!DOCTYPE svg PUBLIC "-//W3C//DTD SVG 1.1//EN" "http://www.w3.org/Graphics/SVG/1.1/DTD/svg11.dtd">
<svg version="1.1" id="Layer_1" xmlns="http://www.w3.org/2000/svg" xmlns:xlink="http://www.w3.org/1999/xlink" x="0px" y="0px"
	 viewBox="0 0 432 432" enable-background="new 0 0 432 432" xml:space="preserve">
<g>
	<g>
		<g>
			<path d="M140.1,190.4c2.3-9.5,4.5-19,6.8-28.6c0.3-1.2,0.3-1.7-1-1.6c-0.7,0.1-1.4-0.1-2.1-0.3c-0.6-0.2-1-0.7-1-1.5
				c0.1-0.8,0.5-1.2,1.1-1.2c3.2-0.2,6.5-0.2,9.7,0.1c0.9,0,1.6,0.5,1.5,1.6c-0.1,1.1-0.9,1.5-1.7,1.5c-0.1,0-0.1,0-0.2,0
				c-3.2,0.1-3.3,0.1-4,3.5c-2.7,12.3-5.8,24.4-8.8,36.5c-0.4,1.6-0.7,3.4-1.4,4.9c-0.4,1,0,1.7,1,1.9c0.7,0.1,1.3,0.1,2,0.3
				c0.8,0.1,1.5,0.5,1.3,1.5c-0.1,1-0.8,1.4-1.6,1.4c-2-0.2-3.9-0.3-5.9-0.4c-2.6-0.1-5.2,0-7.8,0c-0.9,0-1.6-0.1-1.9-1
				c-0.3-0.9,0-1.5,0.8-1.9c0.7-0.3,0.3-0.9,0.3-1.4c-2.4-9.3-4.2-18.7-6.1-28c-1-5.2-1.6-10.4-2.5-15.6c-0.1-0.6,0-1.3-0.9-1.3
				c-1,0-2.2,0-2.3-1.6c-0.1-0.9,1.4-2.2,2.8-2.2c2,0,3.9,0.2,5.9,0.3c2.1,0.2,4.2,0.3,6.1,0.5c0.9,0.1,1.9,0,2,1.3
				c0,1.3-1,1.4-1.7,1.4c-0.7,0-1,0.2-0.8,0.9c2.6,12.8,5.2,25.6,7.8,38.4c0,0.1,0.1,0.1,0.3,0.3
				C138.6,196.9,139.3,193.6,140.1,190.4z"/>
			<path d="M161.7,162.8c0-1,0.1-1.6-1-2c-0.8-0.3-1.1-1-1-1.9c0.2-1,0.9-1.5,1.7-1.6c2.5-0.3,5.1-0.5,7.6-0.4
				c2.3,0.1,4.5-0.1,6.8,0.3c1.1,0.2,2.2,0.5,2,2c-0.1,1.5-1.2,1.6-2.2,1.4c-1-0.2-1.1,0.3-1.1,1.1c-1,14.5-1,28.8-0.9,43.3
				c0,1,0,1.6,1.2,1.6c0.9,0,1.7,0.6,1.6,1.7c-0.1,1.2-1,1.6-1.9,1.6c-4.2,0-8.3,0.3-12.5,1c-1,0.2-1.9-0.2-2.1-1.4
				c-0.3-1.2,0.3-2,1.4-2.2c1.1-0.2,1-0.9,1-1.8c-0.5-8.3-0.4-16.7-0.7-25C161.4,174.6,161.6,168.7,161.7,162.8z"/>
			<path d="M203.3,203.6c0,1.3-0.3,2.8,1.6,3c0.5,0.1,0.8,0.8,0.7,1.4c-0.1,0.6-0.4,1-1,1.2c-0.3,0.2-0.7,0.2-1,0.2
				c-3.6-0.8-7.3-0.1-10.9,0.4c-0.3,0-0.5,0.1-0.9,0c-0.7-0.1-1.3-0.3-1.5-1.2c-0.2-0.9,0.3-1.6,1.1-1.7c1-0.3,1.2-0.7,1-1.7
				c-1.1-10.5-0.6-21-0.3-31.6c0.1-4.2,0.3-8.4,0.6-12.5c0-0.9-0.2-1.2-1-1.2c-1.6,0.1-3.4,0.1-5,0c-0.8,0-1,0.3-1,1
				c-0.1,0.8-0.3,1.5-0.4,2.2c-0.2,0.7-0.6,1.2-1.4,1.1c-0.7,0-1.1-0.5-1.2-1.1c-0.3-2-0.6-4.1-0.1-6.1c0.3-1.2,1.6-1.8,2.3-1
				c0.8,1,1.6,0.6,2.5,0.7c6.7,0.3,13.6,0.2,20.3,0.3c1.4,0,2.9,0.3,4.2-0.7c1-0.7,2.2,0.3,2.2,1.6c0.1,1.9-0.4,3.8-1,5.6
				c-0.1,0.5-0.5,0.9-1,0.9c-0.6-0.1-1-0.5-1.1-1.1c0-0.2-0.1-0.4-0.1-0.6c-0.3-2.7-0.3-2.7-2.8-2.6c-1.1,0-2.4-0.4-3.2,0.3
				c-0.8,0.7-0.3,2.2-0.3,3.3c-0.4,6.8-0.3,13.6-0.6,20.3c-0.2,5.7-0.3,11.3-0.5,17C203.3,201.8,203.4,202.7,203.3,203.6z"/>
			<path d="M240.7,157.3c1,0,1.8,0.2,2.1,1.2c0.2,1-0.3,1.7-1.2,2c-0.6,0.2-0.3,0.6-0.3,1c1.9,9.5,3.3,19.3,5.4,28.8
				c1,4.8,1.9,9.5,2.5,14.3c0.2,1.2,0.5,1.7,1.7,1.7c0.9,0,1.9,0.2,2,1.6c0.1,1.3-1,1.6-1.9,1.8c-0.7,0.1-1.4,0.2-2.1,0.2
				c-2.8,0.1-5.6,0.1-8.5,0.6c-1,0.2-2-0.2-2.9-0.4c-0.8-0.2-1.3-0.8-1.3-1.6c0.1-1,0.6-1.6,1.4-1.6c1,0,1-0.6,0.8-1.3
				c-1-5-2.1-10-3-15c-0.2-0.7-0.4-0.9-1-0.9c-4.3-0.3-8.6-0.1-12.9,0.1c-0.6,0-0.9,0.3-1,1c-1.3,5.2-2.6,10.4-4,15.6
				c-0.2,0.8,0.2,1,0.8,1c1,0.2,2.1,0.3,3.1,0.5c0.9,0.2,1.6,0.7,1.4,1.8c-0.3,1.1-1,1.1-1.9,0.9c-2.1-0.3-4.2-0.2-6.1-0.9
				c-0.5-0.3-1.1-0.4-1.6-0.7c-0.7-0.4-1-1-0.9-1.9c0.2-0.8,0.7-1.3,1.5-1.2c0.6,0,0.9-0.3,1-1c3.8-14.4,8.1-28.6,11.7-43.1
				c0.3-1,0.4-1.6-1-1.6c-0.6,0.1-1.1-0.3-1.1-1.1c-0.1-1,0.4-1.4,1.1-1.5c1.7-0.2,3.5-0.3,5.2-0.3c1.1,0,2.3,0,3.5,0
				C235.7,157.4,238.2,157.2,240.7,157.3z M221.6,186.2c-0.3,1.2,0.4,0.9,1,0.9c3.5,0,7.1-0.1,10.6,0c1.3,0,1.3-0.4,1-1.6
				c-0.7-3-1.3-6.1-1.9-9.2c-1-4.5-2.1-9-3.8-13.8C225.7,170.7,223.8,178.5,221.6,186.2z"/>
			<path d="M263,195.1c0,3.5,0.1,6.9,0.1,10.4c0,0.9,0.1,1.4,1.1,1.5c1,0.1,1.8,0.7,1.6,1.9c-0.2,1.2-1.1,1.3-2,1.3
				c-1.5-0.2-2.9,0-4.3,0.1c-1,0.1-2.1-0.2-2.2-1.5c-0.2-1.4,0.8-1.9,1.8-1.9c1-0.1,1.2-0.6,1.1-1.6c-0.6-11.7-0.6-23.5-0.3-35.2
				c0.1-2.9,0-5.6,0.1-8.5c0-0.8-0.3-1-1-1c-1,0-1.9-0.5-1.9-1.7c0-1.3,1-1.6,1.9-1.7c4.8-0.2,9.5-0.4,14.3,0c1.5,0.2,2,1,2.3,3.5
				c0.8,6.4,2,12.8,3.2,19.2c1.1,6.1,1.9,12.2,3.5,18.2c0.6-2.8,1.2-5.6,1.8-8.4c2.2-9.2,4.2-18.4,6.8-27.5c0.2-0.7,0.3-1.2-0.3-1.9
				c-0.9-1.1-0.3-2.6,1-2.7c4.4-0.3,8.8-0.9,13.2-0.5c1,0.1,1.9,0.5,2,1.7c0.1,1.1-0.7,1.6-1.6,1.7c-0.6,0.2-0.7,0.5-0.7,1.1
				c-0.1,9.6-1.3,19.2-1,28.8c0.1,5.3,0.3,10.6,0.4,16c0.1,0.7,0.3,1,1,1.3c0.8,0.3,1.3,0.9,1,1.8c-0.2,0.9-0.9,1-1.6,1
				c-1.3,0.1-2.6,0.1-3.9-0.1c-2.6-0.4-5.1-0.2-7.6,0.5c-0.8,0.3-1.6,0.2-2-0.6c-0.4-0.9-0.3-1.6,0.4-2.2c0.3-0.3,0.3-0.6,0.3-1
				c-1-12.5,0.4-25.2,0-37.5c-0.3,1.6-0.9,3.9-1.5,6.1c-2.5,9.8-4.2,19.8-6.6,29.7c-0.2,0.8-0.1,1.2,0.7,1.6c0.5,0.3,1,0.9,0.9,1.6
				c-0.1,0.8-0.7,1-1.3,1.2c-0.4,0.2-0.9,0.3-1.3,0.3c-2.9-0.1-5.7,0.3-8.5,0.4c-0.9,0-1.7,0.1-2.2-0.9c-0.5-0.9-0.2-1.6,0.5-2.2
				c0.6-0.5,0.1-1-0.1-1.6c-3.1-9.3-5.6-18.9-7.8-28.5c-0.4-2.1-0.8-4.2-1.2-6.2C263,179.2,263,187.1,263,195.1z"/>
			<path d="M313.8,162.8c0-1,0.1-1.6-1-2c-0.8-0.3-1.1-1-1-1.9c0.2-1,0.9-1.5,1.7-1.6c2.5-0.3,5.1-0.5,7.6-0.4
				c2.3,0.1,4.5-0.1,6.8,0.3c1.1,0.2,2.2,0.5,2,2c-0.1,1.5-1.2,1.6-2.3,1.4c-1-0.2-1.1,0.3-1.1,1.1c-0.9,14.5-0.9,28.8-0.9,43.3
				c0,1,0,1.6,1.2,1.6c0.9,0,1.7,0.6,1.6,1.7c-0.1,1.2-0.9,1.6-1.9,1.6c-4.2,0-8.3,0.3-12.5,1c-1,0.2-1.9-0.2-2.1-1.4
				c-0.3-1.2,0.3-2,1.4-2.2c1.1-0.2,1-0.9,1-1.8c-0.5-8.3-0.4-16.7-0.7-25C313.5,174.6,313.7,168.7,313.8,162.8z"/>
			<path d="M363.5,185.1c0-7.7,0.2-15.4,0.5-23c0.1-1.1,0-1.7-1.3-1.7c-1,0.1-2.2-0.3-2.1-1.7c0.1-1.4,1-1.6,2.1-1.7
				c1.9-0.2,3.7-0.1,5.6,0.1c1,0.1,2.2,0.3,2.2,1.8c-0.1,1.5-1.2,1.6-2.3,1.6c-0.9-0.1-0.9,0.4-0.9,1.2c-0.3,10.6-0.6,21.2-0.6,31.8
				c0,3.8-0.2,7.7-0.3,11.6c0,1.3,0,2.5,1.7,2.5c0.8,0,1.4,0.6,1.3,1.6c-0.1,0.9-0.7,1.3-1.5,1.2c-2.9-0.3-5.8,0.3-8.7,0.3
				c-2.2,0.2-3.5-1-4.5-2.9c-2.9-6.4-5.2-13.1-7.5-19.7c-2-5.7-3.5-11.6-5.1-17.4c-0.2-0.6-0.4-1.3-0.7-2.2
				c-0.5,1.8-0.6,3.4-0.6,4.9c-0.5,10.6-1.1,21.2-1.3,31.8c-0.1,0.9,0.1,1.4,1,1.3c0.3-0.1,0.8,0,1.1,0.2c0.6,0.2,1.1,0.6,1.1,1.4
				c-0.1,0.8-0.4,1.2-1,1.4c-1.8,0.6-3.7,1-5.7,1c-0.9,0-1.5-0.4-1.7-1.3c-0.2-1,0.1-1.7,0.9-2.2c0.5-0.3,0.8-0.4,0.8-1.1
				c-0.1-9.3,0.4-18.4,1-27.7c0.3-5.4,0.4-10.6,0.9-15.9c0.2-0.9-0.1-1.2-0.9-1.1c-0.3,0-0.8,0-1.1-0.1c-1-0.3-1.6-0.8-1.6-1.9
				c0-1,0.6-1.6,1.5-1.8c0.3-0.1,0.7-0.2,1-0.2c4.2,0.6,8.4-0.2,12.5,0.4c1.3,0.2,2,0.9,2.4,2c1.3,3.2,2.2,6.6,3.1,10
				c1.8,7,4.1,13.9,6.4,20.8c0.6,1.6,1.1,3.3,1.7,4.9c0.1,0,0.3,0,0.3-0.1C363.5,191.8,363.5,188.4,363.5,185.1z"/>
		</g>
	</g>
	<g>
		<g>
			<path d="M70.2,375.7c-6.9,0-12.3-1.4-16.3-4.2c-4-2.8-6.8-6.2-8.3-10.3c-1.6-4.1-1.9-8.6-1-13.5c0.9-4.9,3-9.6,6.2-14.1
				c3.7-5.3,8.3-9.5,13.9-12.5c5.6-3,11.4-5.2,17.5-6.5c6.1-1.3,12.3-2,18.7-2s12.2,0.5,17.5,1.6c0-7.9-1.8-15.2-5.4-21.8
				c-3.6-6.6-8.1-12.9-13.5-18.8c-5.4-5.9-11.4-11.9-17.9-17.8c-6.5-5.9-12.5-12.2-18.1-18.6c-5.6-6.5-10.2-13.7-13.9-21.6
				c-3.7-7.9-5.6-16.8-5.6-26.6c0-5.8,1.2-11.4,3.6-16.7c2.4-5.3,5.5-9.9,9.3-13.9c3.8-4,8.3-7.1,13.5-9.3
				c5.2-2.2,10.5-3.4,16.1-3.4c8.5,0,15.5,2.3,21.1,7c5.6,4.6,8.3,11.2,8.3,19.7c0,6.6-1.9,12.3-5.8,17.1c-3.9,4.8-8.5,7.1-13.8,7.1
				c-2.4,0-4.5-0.9-6.2-2.8c-1.7-1.9-2.6-4-2.6-6.4c0-2.7,1.1-4.9,3.2-6.6c2.1-1.7,4-2.6,5.6-2.6c1.9,0,3,0.1,3.4,0.4
				c0.4,0.3,1,0.7,1.8,1.2c2.4-1.9,3.9-3.9,4.4-6.2c0.5-2.3,0.3-4.4-0.8-6.4c-1.1-2-2.8-3.7-5.2-5.2c-2.4-1.5-5.2-2.2-8.4-2.2
				c-6.4,0-11.4,2.4-15,7.1c-3.6,4.8-5.4,9.3-5.4,13.5c0,8.7,1.9,16.6,5.6,23.6c3.7,7,8.4,13.6,14,19.9c5.6,6.2,11.6,12.3,18.2,18.1
				c6.5,5.8,12.6,11.9,18.2,18.3c5.6,6.4,10.3,13.2,14,20.7c3.7,7.4,5.6,15.8,5.6,25c0,9.8-1.9,18.9-5.6,27.4
				c-3.7,8.5-8.9,15.9-15.7,22.2c-6.8,6.4-14.8,11.3-24,14.9C91.9,373.9,81.6,375.7,70.2,375.7z M66.6,366.1
				c6.6,0,12.8-1.2,18.5-3.6c5.7-2.4,10.8-5.6,15.3-9.7c4.5-4.1,8.2-8.9,11.1-14.3c2.9-5.4,4.9-11.3,6-17.7
				c-5-0.8-10.5-1.3-16.3-1.4c-5.8-0.1-11.5,0.4-17.1,1.6c-5.6,1.2-10.8,3.1-15.7,5.8c-4.9,2.7-9.1,6.4-12.5,11.1
				c-2.1,3.2-3.5,6.4-4.2,9.7c-0.7,3.3-0.6,6.4,0.2,9.1c0.8,2.8,2.4,5,5,6.8C59.4,365.3,62.7,366.1,66.6,366.1z"/>
			<path d="M181.8,319.3c-0.5,9,1.1,16.8,4.8,23.4c3.7,6.6,9.9,9.9,18.7,9.9c7.7,0,14.8-2.6,21.3-7.9c6.5-5.3,12.2-11.6,17.1-19.1
				c4.9-7.4,9.1-15.1,12.5-23c3.4-7.9,5.8-14.7,7.1-20.3c0.8-3.4,2.4-5,4.8-4.6c2.4,0.4,3,2.3,2,5.8v0.4c-1.6,6.9-4.2,14.8-7.9,23.6
				c-3.7,8.9-8.3,17.3-13.9,25.2c-5.6,7.9-11.9,14.7-19.1,20.3s-15.1,8.3-23.8,8.3c-14,0-24.8-3.6-32.2-10.9
				c-7.4-7.3-12.3-16.3-14.7-27.2c-2.4-10.9-2.4-22.6-0.2-35.2c2.2-12.6,6.2-24.3,11.9-35.2c5.7-10.9,12.7-19.9,21.1-27.2
				c8.3-7.3,17.4-10.9,27.2-10.9c9,0,15.6,2.6,19.9,7.9c4.2,5.3,6.6,11.9,7.1,19.9c0.5,7.9-0.6,16.6-3.4,26
				c-2.8,9.4-6.6,18.1-11.5,26c-4.9,7.9-10.6,14.6-17.1,19.9c-6.5,5.3-13.3,7.9-20.5,7.9C189.2,322.5,185.5,321.4,181.8,319.3z
				 M208.8,239.8c-3.2,3.7-6.2,8.2-9.1,13.6c-2.9,5.4-5.5,11.3-7.7,17.6c-2.3,6.3-4.2,12.9-5.8,19.8c-1.6,6.9-2.8,13.6-3.6,20.2
				c2.9,2.9,6.4,4.3,10.3,4.3c5,0,9.7-2.1,14.1-6.3c4.4-4.2,8.3-9.5,11.7-15.8c3.4-6.3,6.2-13.1,8.3-20.4c2.1-7.2,3.4-14,4-20.4
				c0.5-6.3,0.2-11.6-1-15.8c-1.2-4.2-3.4-6.3-6.6-6.3C219,230.3,214.1,233.5,208.8,239.8z"/>
			<path d="M331.6,235.5c0,3.4-1.3,5-3.8,4.8c-2.5-0.3-3.8-1.8-3.8-4.8c0-1.9-0.5-3.4-1.6-4.8c-1.1-1.3-2.5-2-4.4-2
				c-5.8,0-11.1,2.9-15.7,8.8c-4.6,5.8-8.7,13.2-12.1,21.9c-3.4,8.8-6.1,18.2-7.9,28.3c-1.9,10.1-2.8,19.5-2.8,28.3
				c0,8.8,1.1,16.1,3.4,21.9c2.2,5.8,5.6,8.8,10.1,8.8c3.2,0,6.6-3.6,10.3-10.7c3.7-7.1,7.1-15.6,10.3-25.4
				c3.2-9.8,5.9-19.7,8.1-29.8c2.2-10.1,3.4-18,3.4-23.8c0-3.7,0.9-6.6,2.8-8.5c1.9-2,4.1-3,6.8-3c6.9,0,10.9,3.2,12.1,9.7
				c1.2,6.5,1.2,14.2,0,23.2c-1.2,9-2.8,18.2-4.8,27.6c-2,9.4-2.7,17-2.2,22.8c0.8,5.6,2.8,8.3,6,8.3c3.7,0,7.1-2.5,10.1-7.5
				c3-5,5.7-10.7,7.9-17.1c2.2-6.4,4-12.4,5.4-18.3c1.3-5.8,2.1-9.7,2.4-11.5c0.5-3.4,1.9-5,4.2-4.8c2.2,0.3,3.1,2.1,2.6,5.6
				c-0.3,2.1-0.9,5.2-1.8,9.3c-0.9,4.1-2.1,8.5-3.6,13.3c-1.5,4.8-3.2,9.7-5.4,14.7c-2.1,5-4.4,9.5-6.8,13.5
				c-4.5,8.2-10.6,12.3-18.3,12.3c-4.8,0-8.7-1.3-11.7-3.8c-3-2.5-5.4-5.8-6.9-9.7c-1.6-4-2.6-8.3-3-12.9c-0.4-4.6-0.3-9.1,0.2-13.3
				c-1.3,4.8-3.2,10.3-5.6,16.5c-2.4,6.2-5.2,12.1-8.5,17.7c-3.3,5.6-7.1,10.3-11.3,14.3c-4.2,4-8.9,6-13.9,6c-9,0-16-3.6-20.9-10.9
				c-4.9-7.3-8-16.3-9.3-27.2c-1.3-10.9-1-22.6,1-35.2c2-12.6,5.6-24.3,10.7-35.2c5.2-10.9,11.8-19.9,19.9-27.2
				c8.1-7.3,17.4-10.9,28-10.9c5.6,0,10.3,1.7,14.3,5.2C329.6,223.5,331.6,228.7,331.6,235.5z"/>
		</g>
	</g>
	<path d="M222.3,35.6c0.8,2,1.7,3.9,2.5,5.8c0.4,0.8,0.7,1.7,1,2.6c0.5,1.7,1.4,3,2.8,4.1c0.6,0.4,1.1,0.7,1.8,0.7
		c0.6,0,1.2,0,1.9,0c0.6-0.7,1.1-1.4,1.7-2.2c-0.1-0.9,0-1.7-0.2-2.5c-0.2-1.3-0.5-2.6-0.8-3.9c-0.2-0.8-0.5-1.5-0.6-2.2
		c-0.2-1.9-0.9-3.7-1.4-5.5c-0.3-1.3-1-2.5-1.6-3.6c-0.7-1.4-1.5-2.7-2.8-3.7c-1.5-1.3-3.3-1.6-4.9-0.7c-0.6,0.3-1,0.8-1.5,1.2
		c-0.3,1-0.5,1.8-0.7,2.5c0.3,1,0.4,2,0.7,2.8C221.1,32.4,221.7,34,222.3,35.6z M258,50.6c1.7,0.4,2.9-0.3,3.8-1.6
		c0.9-1.3,1.4-2.7,1.7-4.2c0.1-0.4,0.1-0.7,0.2-1.1c0.4-2,0.9-4,1.4-6c0.1-0.7,0.2-1.3,0.3-2c0.1-0.9,0.3-1.8,0.4-2.8
		c0.3-1.5,0.3-3.1,0-4.6c-0.1-0.7-0.4-1.3-0.6-2c-0.2-0.2-0.5-0.6-0.7-0.9c-0.8-1.1-2-1.5-3.2-1.6c-1.9-0.1-4.1,2.1-4.3,4
		c-0.2,1.9-0.4,3.8-0.6,5.7c-0.2,2.2-0.3,4.5-0.3,6.7c-0.1,2,0,4.1,0,6.1C255.9,48.2,256.7,49.6,258,50.6z M134,97
		c1.4-1,2.3-2.4,2.8-4.1c1-3.7-1.9-6.2-5-6.5c-1.8-0.1-3.4,0.5-4.3,0.9c-1.8,1-2.1,2.4-2.7,3.6c0,0.4,0,0.8,0,1.3c0,0.5,0,0.9,0,1.4
		c0.2,0.4,0.5,0.7,0.6,1C126.5,97.9,131.2,99,134,97z M357.4,86.9c-1.2,1-1.7,2.4-2.1,3.8c-0.7,2.1,0.4,4.7,1.8,6.2
		c0.8,0.8,1.9,0.8,2.6,1.4c0.7,0,1.3,0.1,1.9,0c0.7-0.1,1.4-0.5,1.9-0.6c2.1-1.6,3-3.7,4-5.9c0.4-2.6-0.4-4.8-3.1-6.2
		c-0.2,0-0.6-0.2-1-0.2C361.1,84.8,359.1,85.4,357.4,86.9z M291.8,52.6c0.5,0,1,0,1.5,0c0.8-0.7,1.6-1.3,2.3-2
		c0.5-0.5,0.8-1.2,1.2-1.8c1.7-2.4,3.5-4.8,5.2-7.2c1-1.3,1.9-2.7,2.9-4c1-1.2,1.8-2.4,2.4-3.7c0.5-1.1,1.2-2.2,0.8-3.8
		c-0.1-0.2-0.3-0.6-0.5-0.8c-0.8-1-1.5-1.9-2.9-2.2c-2.2-0.4-4.1,0.5-5.4,2.1c-1.5,1.8-2.7,4-3.9,6c-1.1,1.8-2,3.6-3.1,5.4
		c-1.3,2.1-2.2,4.3-3.2,6.5c-0.4,0.9-0.4,1.8-0.3,2.8C289,51.5,290.2,52.6,291.8,52.6z M319.8,87.3c-0.9,0-1.3,0-1.4,1.3
		c-0.5,7.8-0.8,15.7-1.2,23.6c0,3.9,0,7.9,0,11.8c0.1,1.1-0.5,3.2,0.2,3.2c1.1,0.2,2.3-1.2,3.3-2.2c7.9-7.9,11.8-21.8,7.6-31.7
		C326.7,89.6,323.8,87.5,319.8,87.3z M376.3,118.1c-0.2-0.2-0.3-0.4-0.4-0.5c-2.2-1-4.5-1-6.5-2c-1.5,0.1-2.7-0.8-4-1.2
		c-2-0.6-3.9-1.7-6-2.5c-2.2-0.9-4.4-2.1-6.5-3.2c-2.7-1.5-5.3-3.1-7.9-4.8c-1.8-1.2-3.6-2.4-5.3-3.7c-1.3-1-2.4-2.1-3.7-3.2
		c1.2-1.1,2.4-2.1,3.4-3.2c2.4-2.5,4.8-5.1,7-7.8c2-2.6,4.2-5.1,6.2-7.7c2-2.5,3.8-5.2,5.9-7.7c1.1-1.3,2-2.7,2.7-4.3
		c0.5-1.1,1-2.1,1.5-3.1v-1.6c-0.3-0.5-0.6-0.9-0.9-1.3c-1.1-0.5-2-0.5-3.2-0.3c-1.1,0.2-2,0.7-3,1.1c-1.5,0.6-3.1,1.2-4.8,1.9
		c-2.8,0.4-5.7,1.4-8.7,2c-0.2,0.2-0.4,0.4-0.6,0.5c-1.6,0-6.6,1.3-7.4,1.8c-2.1,0.3-4.2,0.3-6,1.2c-2.2,0.4-4.4,0.8-6.5,1.2
		c-2,0.3-4.1,0.9-6.2,0.8c-2.5-0.1-5.1,0.3-7.6,0.6c-0.7,0.1-1.3,0.2-2,0.3c-1.8,0.2-3.6,0.4-5.4,0.7c-0.8,0.1-1.5,0.2-2.3,0.3
		c-0.6,0.1-1.2,0.2-1.8,0.3c-1.2,0.2-2.4,0.5-3.7,0.6c-2.1,0.3-4.1,0.5-6.2,0.6c-1.8,0.2-3.5,0.3-5.3,0.3c-6.3,0-12.5,0-18.8,0
		c-1.6,0-3.2-0.2-4.8-0.3c-3.1-0.2-6.1-0.4-9.2-0.6c-0.7,0-1.4,0-2-0.1c-3-0.5-6-0.7-9-0.9c-0.9,0-1.8,0-2.6,0
		c-0.4-0.2-0.7-0.4-0.9-0.5c-3.4-0.1-6.6-0.3-9.8-0.4c-0.2,0-0.4,0-0.6,0c-1.9-0.7-4-0.5-6-0.8c-2-0.3-4.1-0.3-6.2-0.6
		c-2.4-0.4-4.9-0.3-7.4-0.9c-2-0.5-4.1-0.5-6.1-1c-2-0.5-4.1-0.7-6.1-1c-0.8-0.1-1.6-0.2-2.5-0.3c-0.3,0-0.6-0.1-0.9-0.2
		c-1.9-0.4-3.8-0.9-5.7-1.3c-1.9-0.5-3.8-0.9-5.7-1.4c-1.5-0.4-3-1.1-4.5-1.6c-2.8-0.8-5.4-2.1-8-3.3c-2.7-1.3-5.3-2.9-8-4.4
		c-2.6-1.5-5-3.2-7.3-5c-2.3-1.8-4.3-3.9-5.8-6.5c-0.8-1.4-1.9-2.4-3.6-2.6c-1.8,0.5-2.7,1.9-3,3.5c-0.3,1.7-0.2,3.6,0.1,5.3
		c0.3,1.9,0.8,3.7,1.6,5.5c0.4,0.9,0.7,1.9,1,2.9c0.8,2.6,1.6,5.1,2.4,7.7c0.7,2,1.6,3.9,2.2,5.9c0.6,1.9,1.6,3.6,2.5,5.3
		c1.1,2.2,2.2,4.3,3.3,6.4c1,1.9,2.1,3.7,3.3,5.5c0.7,1.1,1.5,2.1,2.2,3.1c1.1,1.4,2,2.9,3.2,4.1c2.9,2.9,5.7,6,9,8.6
		c0.2,0.2,0.3,0.5,0.4,0.8c-0.9,0.4-1.8,0.8-2.6,1.1c-1.4,0.4-2.8,0.7-4.2,1.1c-2.7,0.9-5.4,1.5-8.1,2.1c-0.7,0.2-1.3,0.4-1.9,0.6
		c-0.7,0.2-1.4,0.2-2.1,0.4c-1.9,0.5-3.8,1-5.7,1.4c-2.1,0.5-4.2,0.9-6.4,1.2c-1.4,0.3-2.8,0.6-4.1,0.6c-2.7,0.1-5.3,0.9-8,1.2
		c-1.7,0.2-3.5,0.6-5.2,0.7c-1.3,0.1-2.6,0.1-3.7,1.3c-0.1,0.2-0.3,0.5-0.4,0.8c-0.1,0.4-0.3,0.9-0.2,1.3c0.3,1,0.6,2.1,1.2,3
		c2.2,3.5,5.4,6.2,8.6,8.7c1.8,1.4,3.8,2.5,5.6,3.7c1.2,0.8,2.5,1.4,3.8,2c1.9,0.8,3.6,1.8,5.5,2.6c2,0.9,4,1.6,6,2.4
		c1.3,0.5,2.5,0.9,3.8,1.3c0.5,0.2,1,0.2,1.5,0.3c0.8,0.3,1.6,0.6,2.4,0.8c0.2-0.3,0.4-0.5,0.5-0.6c0.3,0.3,0.5,0.6,0.7,0.9
		c1.7,0.5,3.2,0.9,4.7,1.3c0.6,0.2,1.3,0.2,2,0.4c1.7,0.4,3.5,0.9,5.2,1.4c1.2,0.3,2.4,0.6,3.6,0.8c1.1,0.2,2.3,0.3,3.4,0.5
		c0.4,0,0.7,0,1.1,0.1c2.3,0.6,4.7,0.7,7.1,0.8c2.1,0.1,4.3-0.1,6.4,0.3c1.1,0.2,2.2,0.2,3.2,0.3c2,0.1,4,0.3,6.1,0.4
		c0.2,0,0.4,0.1,0.6,0.1c1.9,0.4,3.8,0.8,5.7,0.8c0.4,0,0.7,0.1,1.1,0.1c1.6,0.3,3.3,0.7,4.9,0.7c3.1,0.1,6.1,0.4,9.2,0.6
		c5,0.3,10.1,0,15.1,0.4c4.4,0.3,8.7-0.1,13.1-0.3c1.1-0.1,2.3,0.1,3.4-0.1c2.1-0.3,4.2-0.5,6.3-0.5c2.6-0.1,5.2-0.2,7.8-0.4
		c0.2,0,0.3,0,0.5-0.1c1.5-0.3,3.1-0.5,4.6-0.6c1.8-0.1,3.5-0.4,5.2-0.6c0.9-0.1,1.7-0.2,2.6-0.3c0.5-0.1,1-0.1,1.5-0.2
		c1.4-0.2,2.7-0.5,4.1-0.7c2.7-0.4,5.3-0.6,8-1c2-0.3,3.9-1,6-0.9c0.2,0,0.4-0.1,0.6-0.1c1.5-0.3,2.9-0.6,4.4-0.7
		c2.1-0.1,4.1-0.3,6.1-0.9c0.2-0.1,0.5-0.1,0.8-0.1c2.5,0.1,4.8-0.8,7.2-1.2c2.1-0.4,4.2-1.2,6.3-1.6c1.9-0.4,3.6-1.1,5.5-1.6
		c1.6-0.4,3.3-1.1,5-1.2c1.9-0.2,3.6-0.8,5.4-1.2c2.5-0.6,4.9-1.6,7.3-2.5c0.9-0.3,1.7-0.7,2.6-1c1.3-0.5,2.6-0.9,3.9-1.5
		c1.8-0.7,3.5-1.6,5.2-2.3c1.8-0.8,3.6-1.5,5.4-2.3c2.4-1.1,4.7-2.1,7-3.4c2-1.1,3.9-2.4,5.7-3.8
		C377.6,120.9,377.6,119.5,376.3,118.1z M183.7,87.2c-0.9-0.4-1,0-1,0.8c-0.8,12.6-0.8,25.3-0.8,38c0,0.8,0,1.4,1.1,1.7
		c0.8,0.2,1.5,0.9,1.4,1.9c-0.1,1.1-0.8,1.2-1.7,1.1c-3.6-0.8-7.3-1.4-10.9-1.8c-0.9-0.1-1.7-0.6-1.8-1.7c-0.2-1.1,0.3-1.7,1.2-1.6
		c1,0.1,0.9-0.5,0.8-1.4c-0.5-7.5-0.4-14.8-0.6-22.2c-0.1-5.3,0-10.5,0.1-15.6c0-0.8,0.1-1.4-0.9-2c-0.7-0.4-1-1.2-0.8-1.9
		c0.1-0.9,0.7-1.1,1.5-1c2.2,0.3,4.4,0.7,6.6,1.3c2,0.6,3.9,0.9,5.9,1.7c1,0.4,1.9,0.9,1.7,2.1C185.5,87.7,184.6,87.6,183.7,87.2z
		 M239.4,94.3c-0.8-0.1-0.8,0.3-0.8,1c-0.3,9.4-0.5,18.7-0.5,28.1c0,3.4-0.2,6.8-0.2,10.2c0,1.1,0,2.2,1.5,2.3
		c0.7,0,1.2,0.6,1.2,1.4c-0.1,0.8-0.6,1.1-1.3,1c-2.6-0.3-5.2,0-7.8-0.1c-1.9,0-3.2-1.1-4-2.9c-2.6-5.9-4.6-11.9-6.7-18
		c-1.8-5.2-3.1-10.6-4.5-15.8c-0.2-0.6-0.4-1.2-0.6-2c-0.5,1.5-0.5,2.9-0.5,4.3c-0.5,9.3-1,18.6-1.2,28c-0.1,0.8,0.1,1.2,0.9,1.3
		c0.3,0,0.7,0.1,1,0.3c0.5,0.2,1,0.6,1,1.3c-0.1,0.7-0.4,1-0.9,1.1c-1.6,0.4-3.3,0.4-5.1,0.2c-0.8-0.1-1.3-0.6-1.5-1.4
		c-0.2-0.9,0.1-1.5,0.8-1.8c0.5-0.2,0.7-0.3,0.7-0.9c-0.1-8.2,0.4-16.2,0.9-24.3c0.2-4.7,0.4-9.3,0.8-14c0.2-0.7-0.1-1.1-0.8-1.1
		c-0.3,0-0.7-0.1-1-0.2c-0.8-0.3-1.5-0.9-1.4-1.9c0-0.9,0.5-1.4,1.3-1.4c0.3,0,0.6-0.1,0.9,0c3.7,1,7.4,0.7,11.1,1.6
		c1.2,0.3,1.8,0.9,2.2,2c1.2,2.9,1.9,6,2.8,9c1.6,6.3,3.6,12.6,5.7,18.7c0.5,1.5,1,3,1.5,4.4c0.1,0,0.2,0,0.3-0.1c0-2.9,0-5.9,0-8.8
		c0-6.8,0.2-13.6,0.5-20.3c0.1-1,0-1.5-1.2-1.6c-0.9,0-1.9-0.3-1.8-1.6c0.1-1.2,0.9-1.3,1.8-1.4c1.7-0.1,3.3,0.1,5,0.3
		c0.9,0.1,1.9,0.3,1.9,1.7C241.3,94.3,240.3,94.4,239.4,94.3z M269.9,97.9c-0.2,0.7-0.8,1.1-1.5,1.1c-0.8,0-1.1-0.6-1.2-1.2
		c0-0.1,0-0.1,0-0.2c-0.2-0.8,0.3-2-0.5-2.4c-0.8-0.3-1.8,0-2.8,0.1c-1.5,0-2.9,0.1-4.5,0.1c-0.8,0-1.1,0.3-1.2,1.1
		c-0.8,5.2-1,10.5-1.1,15.8c0,0.5,0,0.8,0.7,0.8c1.9-0.3,3.5-0.2,5.4-0.3c0.8,0,0.9-0.3,0.9-1c0-1-0.2-2.2,1.2-2.3
		c1.6-0.1,1.4,1.3,1.3,2.3c0,2.1-0.2,4.4-0.5,6.6c0,0.5-0.2,1-0.8,1c-0.7,0-0.8-0.5-0.9-1c-0.1-0.9-0.2-1.8-0.3-2.7
		c0-0.6-0.2-0.9-0.8-0.7c-1.7,0.5-3.5,0.4-5.4,0.5c-0.5,0.1-1.1,0-0.9,0.8c0.3,4.7-0.3,9.3,0.8,13.9c0.2,1.2,0.6,2.5,1.3,3.6
		c0.7,1.1,1.5,1.6,2.9,0.8c0.6-0.3,1.2-0.7,1.8-0.9c0.8-0.4,1.2-1,0.8-1.8c-0.3-1.2,0.4-2.2,1.5-2.4c1.3-0.2,1.6,0.6,1.8,1.6
		c0.2,1.1,0.5,2.3,0.8,3.5c0.2,0.6,0.5,1.3-0.4,1.7c-0.7,0.3-1.7,0.2-2.1-0.4c-0.5-1-1.2-0.6-1.9-0.2c-2.3,1.2-4.5,2.2-7.1,2.7
		c-4,0.6-7.7-1.2-9.5-4.7c-1.9-3.7-2.5-7.6-2.5-11.7c-0.1-1.3,0-2.6,0-3.9c0.1-7.5,0.8-14.9,1.4-22.4c0.2-2.1,0.5-2.4,2.5-2.6
		c5.6-0.5,11.3-0.5,17-0.4c0.5,0,1,0,1.5-0.4c1.1-0.9,2.3-0.6,2.5,0.7C270.5,94.6,270.3,96.3,269.9,97.9z M299,94.7
		c-0.2,0.7-0.8,1.2-1.5,1.2c-0.8,0.1-1.1-0.4-1.2-1c0-0.1,0-0.1,0-0.2c-0.2-0.8,0.3-2-0.5-2.4c-0.8-0.3-1.8,0.2-2.8,0.3
		c-1.5,0.1-2.9,0.4-4.4,0.5c-0.8,0.1-1.1,0.4-1.2,1.2c-0.8,5.3-1,10.6-1.1,15.9c0,0.5,0,0.8,0.7,0.7c1.8-0.5,3.5-0.6,5.4-0.8
		c0.8-0.1,0.9-0.4,0.9-1.1c0-1-0.2-2.2,1.2-2.4c1.6-0.2,1.4,1.2,1.3,2.2c0,2.1-0.2,4.4-0.5,6.6c0,0.5-0.2,1-0.8,1.1
		c-0.7,0.1-0.8-0.4-0.9-0.9c-0.1-0.9-0.2-1.8-0.3-2.7c0-0.6-0.2-0.9-0.8-0.6c-1.7,0.7-3.5,0.7-5.4,1c-0.5,0.1-1.1,0.1-0.9,0.9
		c0.3,4.6-0.3,9.4,0.8,13.8c0.2,1.2,0.6,2.4,1.3,3.4c0.7,1,1.5,1.4,2.8,0.6c0.6-0.4,1.2-0.8,1.8-1.1c0.8-0.5,1.1-1.1,0.8-1.9
		c-0.3-1.2,0.4-2.2,1.5-2.5c1.3-0.3,1.6,0.4,1.8,1.4c0.2,1.1,0.5,2.2,0.8,3.4c0.2,0.6,0.5,1.2-0.4,1.7c-0.7,0.3-1.7,0.4-2.1-0.2
		c-0.5-1-1.2-0.5-1.9,0c-2.3,1.5-4.5,2.7-7,3.3c-4,1-7.7-0.5-9.4-3.8c-1.8-3.5-2.5-7.4-2.5-11.4c-0.1-1.3,0-2.6,0-3.9
		c0.1-7.5,0.8-15,1.4-22.5c0.2-2.2,0.5-2.4,2.5-2.8c5.6-1,11.3-1.5,16.9-2c0.5,0,1-0.1,1.5-0.5c1.1-1,2.3-0.8,2.5,0.5
		C299.6,91.4,299.4,93.1,299,94.7z M321.6,127.8c-2,1.9-4.2,3.1-6.6,4c-3,1-5.9,1.4-8.9,1.6c-0.8,0.1-1.5,0-1.5-1
		c0-1.1,0.7-1.5,1.5-1.7c1.7-0.5,1.6-0.4,1.5-2.2c-0.2-4.9-0.2-9.7-0.3-14.6c-0.2-7.5-0.5-15-0.2-22.7c0-1-0.3-1.1-1.1-0.8
		c-0.4,0.1-0.8,0.1-1.1,0.2c-0.7,0.1-1.2,0-1.4-0.8c-0.1-0.8,0.4-1.4,1-1.6c0.8-0.4,1.5-0.8,2.3-1c2.7-0.8,5.5-1.7,8.2-2.3
		c3.6-0.8,7-0.9,10.1,0.5c4.1,1.7,5.9,5.4,7,10.1C334.6,106.2,329,120.6,321.6,127.8z"/>
	<path d="M133.4,249c5.5-4.7,10.2-9.7,15-14.6c1.6-1.7,3.3-3.3,4.8-5.2c-0.6-0.6-1.1-1.2-1.6-1.7c-1.3-1.4-2.7-2.7-3.9-4.1
		c-0.9-1-0.9-1.5,0.1-2.5c0.2-0.2,0.4-0.4,0.7-0.6c1.1-0.8,2-0.9,3.1,0c1.5,1.3,3,2.6,4.4,3.9c0.3,0.3,0.7,0.6,1.1,0.9
		c1-0.7,1.8-1.5,2.5-2.4c-0.1-0.3-0.1-0.6-0.2-0.9c-0.6-2.6,0.3-4.9,2.5-6.2c2.1-1.3,4.9-1,6.7,0.7c2,1.8,2.6,4,1.5,6.3
		c-1,2.2-3.3,3.4-5.8,3c-0.5-0.1-1-0.2-1.7-0.4c-0.8,0.8-1.6,1.7-2.4,2.7c0.3,0.4,0.5,0.8,0.8,1.1c1.1,1.2,2.3,2.4,3.5,3.6
		c1.2,1.2,1.7,2.2-0.1,4.1c-0.2,0.2-0.3,0.3-0.5,0.5c-0.8,0.7-1.3,0.7-2,0.1c-1.1-0.9-2.1-1.9-3.2-2.9c-0.8-0.7-1.4-1.6-2.4-2.2
		c-0.5,0.4-0.9,0.7-1.3,1.1c-2.9,3-5.8,5.9-8.7,8.9c-2.9,2.9-5.8,5.8-8.6,8.6c-0.6,0.6-1.3,1.2-1.8,1.9c0.1,0.1,0.1,0.3,0.2,0.3
		c2.4,0.8,4.5,2,6.7,3.2c2.1,1.2,4.4,1.5,6.8,1.5c1.8,0,3.3-0.7,4.8-2c-0.5-0.6-0.9-1.1-1.3-1.6c-0.7-0.9-0.5-1.9,0.6-2.2
		c2.4-0.7,4.8-1.3,7.2-1.8c1-0.2,1.6,0.3,1.7,1.3c0,0.5,0,1.1-0.1,1.6c-0.3,1.5-0.7,2.9-1,4.4c-0.1,0.4-0.3,0.7-0.5,1
		c-0.5,0.8-1.1,1-1.9,0.6c-0.8-0.4-1.6-0.9-2.4-1.4c-0.7,0.4-1.4,0.8-2.1,1.3c-1.6,1-3.3,1.5-5.2,1.5c-3.1,0-6-0.5-8.7-2
		c-0.8-0.4-1.6-0.8-2.4-1.3c-1.3-0.7-2.8-1.2-4.3-1.4c-0.6-0.1-1.2-0.1-1.8-0.2c-1.4-0.2-1.7-0.6-1.8-2.1c0-0.3,0-0.6,0-0.9
		c0.2-2-0.1-3.9-0.7-5.8c-0.5-1.7-1-3.5-1.6-5.2c-1.2-3.3-1.7-6.6-0.4-9.9c-0.5-0.6-1-1.1-1.3-1.6c-0.8-1.1-0.6-2.3,0.6-2.9
		c2.2-1.1,4.5-1.8,6.9-2c1.2-0.1,1.8,0.6,1.5,1.7c-0.7,2-0.7,4.2-1,6.2c-0.4,2.2-0.7,2.3-2.6,1.5c-0.3-0.1-0.6-0.2-1-0.3
		c-0.4,1.6-0.3,3,0.1,4.5c0.2,0.9,0.6,1.7,0.8,2.6c0.6,2.3,1.2,4.5,1.8,6.8C133.2,248.3,133.2,248.5,133.4,249z M167,221.8
		c0-0.3,0.3-0.7,0.1-1.1c-0.4-1.1-1.2-1.9-2.5-2c-0.9-0.1-1.6,0.4-1.9,1.3c-0.3,0.8,0,1.5,0.8,1.9c0.5,0.3,1,0.5,1.5,0.6
		C165.7,222.6,166.3,222.4,167,221.8z"/>
	<g>
		<path d="M361.8,223.7c0.2,4.6,3.2,7.1,7,7.3c3.3,0.1,6.8-2.1,7-6.6c0.1-3.5-3.1-7-6.4-7.1C366.5,217.2,361.7,219.9,361.8,223.7z
			 M371.5,226.2c0.1-0.3,0.1-0.5,0.2-0.8c0.4-1.9,0-3.6-1.5-4.9c-0.1-0.1-0.3-0.2-0.4-0.4c-0.1-0.2-0.1-0.7,0-0.7
			c0.3-0.2,0.7-0.3,0.9-0.3c0.3,0.1,0.6,0.3,0.9,0.6c1.2,1.2,1.8,2.7,1.8,4.9c-0.1,0.3-0.2,1.1-0.4,1.9c-0.2,0.8-0.6,1.1-1.1,0.9
			C371.4,227.1,371.4,226.7,371.5,226.2z M369.3,229.1c0-0.4,0.4-0.8,0.8-0.8c0,0,0,0,0.1,0c0,0,0,0,0,0c0.1,0,0.2,0,0.4,0.1
			c0,0,0,0,0,0c0.2,0.1,0.3,0.3,0.3,0.4c0,0,0,0.1,0,0.1c0,0,0,0.1,0,0.1c0,0.3-0.2,0.6-0.5,0.7c0,0,0,0,0,0c0,0,0,0,0,0
			c-0.1,0-0.2,0.1-0.3,0.1C369.7,229.9,369.3,229.5,369.3,229.1z"/>
		<path d="M344.2,241.4c0,3.9,3.3,7.3,7.2,7.2c3.7-0.1,6.8-2.6,6.9-6.7c0-3.6-3.2-6.9-6.5-7C348.8,234.8,344.1,237.5,344.2,241.4z
			 M353.9,243.6c0.6-2.3,0.1-4.3-1.7-5.9c-0.1-0.1-0.1-0.3-0.2-0.5c0.7-0.6,0.9-0.7,1.3-0.5c2.4,1.5,3.3,5.5,1.7,8
			c-0.1,0.2-0.5,0.3-0.7,0.2c-0.2-0.1-0.4-0.3-0.5-0.5C353.8,244.1,353.9,243.8,353.9,243.6z M351.9,246.3c0-0.4,0.4-0.8,0.8-0.8
			c0.4,0,0.8,0.4,0.8,0.8c0,0.4-0.4,0.8-0.8,0.8C352.2,247.1,351.9,246.7,351.9,246.3z"/>
		<path d="M360.7,259c0,3.9,3.4,7.3,7.2,7.2c4-0.1,6.8-3,6.8-6.8c0-3.6-3.2-6.9-6.5-6.9C365.2,252.5,360.5,255.1,360.7,259z
			 M370.4,261.3c0.1-0.3,0.1-0.5,0.2-0.8c0.4-1.9,0-3.6-1.5-4.9c-0.1-0.1-0.3-0.2-0.4-0.4c-0.1-0.2-0.1-0.7,0-0.7
			c0.3-0.2,0.7-0.3,0.9-0.3c0.3,0.1,0.6,0.3,0.9,0.6c1.2,1.2,1.8,2.7,1.8,4.9c-0.1,0.3-0.2,1.1-0.4,1.9c-0.2,0.8-0.6,1.1-1.1,0.9
			C370.3,262.2,370.3,261.8,370.4,261.3z M368.4,263.9c0-0.4,0.4-0.8,0.8-0.8s0.8,0.4,0.8,0.8c0,0.4-0.4,0.8-0.8,0.8
			S368.4,264.3,368.4,263.9z"/>
	</g>
	<path d="M248.9,377.1c-3.8,1.6-7,4-10.2,6.3c-6.3,4.6-12.4,9.3-18.7,13.8c-2.7,1.9-5.6,3.2-9,3.3c-4.7,0.2-7.7-2.3-10-5.9
		c-1.4-2.2-1.9-4.7-2.3-7.2c-0.3-1.9-0.4-3.8-0.7-5.7c-0.1-0.9-0.4-1.7-0.6-2.7c-3.2,2.9-6.1,5.5-9,8.2
		c-6.1,5.6-12.5,10.8-19.5,15.2c-2.1,1.3-4.5,2.1-6.9,2.3c-2.7,0.2-5.3-0.9-6.9-3.2c-1.3-1.8-2.4-3.8-3-5.9
		c-1.5-5.8-2.5-11.7-3.8-17.5c-0.3-1.6-0.9-3.1-1.4-4.9c-1.3,0.5-2.5,0.6-3.3,1.3c-2.9,2.1-5.8,4.1-8.4,6.6
		c-6.6,6.1-12.4,13-17.9,20.1c-1.4,1.8-2.7,3.6-4.1,5.3c-0.6,0.8-1.5,1.3-2.3,2c-0.8-0.4-1.5-0.7-2.3-1.1c-0.1-0.9-0.1-1.7-0.2-2.5
		c1.6-2.2,3.2-4.3,4.9-6.6c-0.7-0.1-1.2-0.1-2-0.2c-1.9,2.4-3.9,4.8-5.8,7.3c-0.9,0-1.6,0-2.5,0c-0.4-0.8-0.8-1.5-1.4-2.5
		c1.8-2.4,3.4-4.8,5.3-7.1c3.7-4.6,7.3-9.3,11.3-13.6c5.6-6,11-12.1,18.1-16.5c1.8-1.1,3.7-2.3,5.7-3c5.5-2,10.4-1,13.9,3.2
		c1.6,2,2.6,4.4,3.1,6.9c1.3,5.8,2.5,11.7,3.7,17.5c0.1,0.7,0.4,1.3,0.7,2.2c3.3-1.6,6-3.9,8.8-6.1c4-3.2,7.7-6.7,11.5-10.1
		c2.9-2.6,5.8-5.2,8.8-7.6c1.7-1.4,3.7-2.5,5.5-3.7c1.1,0,2,0,2.9,0c3.5,0,6.1,1.7,7.2,5.1c0.8,2.2,1.4,4.5,1.3,6.9
		c-0.2,3.6,0.4,7.1,1.3,10.6c0.1,0.5,0.5,1,0.9,1.8c0.8-0.4,1.4-0.6,2-0.9c3.7-2.7,7.4-5.4,11.1-8.1c5-3.6,10-7.3,15.2-10.8
		c2.8-1.9,5.9-3,9.2-4c4.1-1.2,9.3,1.7,10.7,5.6c0.7,2.1,1,4.3,1.4,6.5c0.5,3.1,0.8,6.2,1.3,9.3c0.1,0.5,0.4,0.9,0.6,1.6
		c7.3-2.6,14.3-5.3,21.5-7.7c7.1-2.4,14.3-4.4,21.5-6.6c7.3-2.2,14.6-4.4,22.1-6.6c0.8,0.4,1.8,1,2.8,1.6c2.8-0.7,5.7-1.5,8.5-2.3
		c1.7,0.7,2.6,1.6,2,3.6c-2.2,2.6-6,1.8-8.7,3.4c0.5,0.7,1,1.3,1.4,1.9c-0.3,1.6-1.2,2.4-2.6,2.8c-3.4,1-6.8,2-10.2,3
		c-7.1,2.1-14.2,4.1-21.3,6.3c-6.3,1.9-12.6,4-18.8,6.1c-4.2,1.5-8.4,3.2-12.5,4.8c-2.8,1.1-5.7,1.1-8.5,0.7
		c-4.2-0.6-6.9-3.5-8.3-7.3c-0.8-2-1-4.1-1.4-6.2c-0.3-2.1-0.4-4.2-0.7-6.4C249.5,378.5,249.2,377.8,248.9,377.1z"/>
	<g>
		<path d="M105,121.3c2.1,2.4,4.2,4.9,6.4,7.3c3.6,4,7.9,7.1,12.7,9.5c3.1,1.5,6.3,3,9.4,4.5c0.1,0,0.2,0.1,0.3,0.1
			c0.3,0.3,0.5,0.7,0.8,1c-0.4,0.1-0.8,0.2-1.2,0.1c-7.3-1.6-14.4-4-21.2-7c-3-1.3-5.7-3.4-8.5-5.2c-2.5-1.6-4.6-3.6-6.3-6.1
			c0-0.1-0.1-0.1-0.1-0.2c-0.9-1.5-1.5-3-0.5-4.6c0.9-1.6,2.5-1.5,4.1-1.3C102.4,119.6,103.8,120.2,105,121.3z"/>
		<path d="M108.6,150.9c-0.9-0.9-1.7-1.9-1.5-3.3c0.3-1.4,1.3-2.3,2.6-2.5c1.7-0.2,3.5-0.4,5.1,0c2.6,0.6,5.1,1.7,7.6,2.6
			c5.1,1.7,10.2,3.2,15.6,3.4c0.3,0,0.6,0.3,1,0.5c-0.3,0.3-0.6,0.7-1,0.8c-5.9,1.6-11.9,2.1-18,1.8c-3.7-0.2-7.2-1.2-10.5-2.8
			C109.3,151.4,109,151.1,108.6,150.9z"/>
	</g>
	<g>
		<path d="M379.3,121.3c-2.1,2.4-4.2,4.9-6.4,7.3c-3.6,4-7.9,7.1-12.7,9.5c-3.1,1.5-6.3,3-9.4,4.5c-0.1,0-0.2,0.1-0.3,0.1
			c-0.3,0.3-0.5,0.7-0.8,1c0.4,0.1,0.8,0.2,1.2,0.1c7.3-1.6,14.4-4,21.2-7c3-1.3,5.7-3.4,8.5-5.2c2.5-1.6,4.6-3.6,6.3-6.1
			c0-0.1,0.1-0.1,0.1-0.2c0.9-1.5,1.5-3,0.5-4.6c-0.9-1.6-2.5-1.5-4.1-1.3C381.8,119.6,380.5,120.2,379.3,121.3z"/>
		<path d="M375.6,150.9c0.9-0.9,1.7-1.9,1.5-3.3c-0.3-1.4-1.3-2.3-2.6-2.5c-1.7-0.2-3.5-0.4-5.1,0c-2.6,0.6-5.1,1.7-7.6,2.6
			c-5.1,1.7-10.2,3.2-15.6,3.4c-0.3,0-0.6,0.3-1,0.5c0.3,0.3,0.6,0.7,1,0.8c5.9,1.6,11.9,2.1,18,1.8c3.7-0.2,7.2-1.2,10.5-2.8
			C375,151.4,375.3,151.1,375.6,150.9z"/>
	</g>
	<path d="M58.4,293.3c-3.2-0.5-5.5-1.2-7-2.1c-1.5-1-2.1-2.1-2.1-3.4c0.1-1.3,0.6-2.8,1.6-4.4c0.5-0.8,1.1-1.2,2-1.3
		c0.9-0.1,1.8,0,2.9,0.3c1.1,0.3,2.2,0.8,3.4,1.5c1.2,0.7,2.4,1.5,3.6,2.3c2.7,2,5.6,4.5,8.7,7.5C66,293.9,61.6,293.8,58.4,293.3z
		 M84,305.8c-3.1,0.4-6.3,1.2-9.6,2.3c-3.3,1.1-6.3,2.5-9.1,4.3c-2.8,1.7-4.8,3.6-6.1,5.5c-1.3,2-2.3,3.2-3.3,3.5
		c-0.9,0.3-1.7,0.2-2.4-0.2c-0.7-0.5-1.4-1.5-2-2.8c0.9-2.8,2.2-5.2,3.9-7.1c1.6-1.9,3.5-3.4,5.5-4.5c2-1.1,4.2-1.9,6.5-2.4
		c2.3-0.5,4.6-0.7,6.9-0.8c5.3-0.1,11.1,0.7,17.2,2.5C89.7,305.5,87.1,305.4,84,305.8z M85.9,291.1c-1.6-2.8-2.8-5.8-3.9-9.1
		c-1-3.3-1.7-6.6-2-9.9c-0.3-3.3,0-6,0.8-8.2c0.9-2.2,1.1-3.7,0.8-4.7c-0.3-0.9-0.9-1.5-1.6-1.8c-0.9-0.3-2-0.3-3.4,0
		c-1.8,2.5-2.9,5-3.5,7.4c-0.5,2.4-0.6,4.8-0.2,7.1c0.4,2.3,1,4.5,2,6.7c1,2.1,2.1,4.1,3.5,6c3.1,4.4,7.2,8.5,12.3,12.3
		C89,295.9,87.4,293.9,85.9,291.1z"/>
</g>
</svg>
