<?xml version="1.0" encoding="utf-8"?>
<!-- Generator: Adobe Illustrator 18.0.0, SVG Export Plug-In . SVG Version: 6.00 Build 0)  -->
<!DOCTYPE svg PUBLIC "-//W3C//DTD SVG 1.1//EN" "http://www.w3.org/Graphics/SVG/1.1/DTD/svg11.dtd">
<svg version="1.1" id="Layer_1" xmlns="http://www.w3.org/2000/svg" xmlns:xlink="http://www.w3.org/1999/xlink" x="0px" y="0px"
	 viewBox="0 0 432 432" enable-background="new 0 0 432 432" xml:space="preserve">
<g>
</g>
<g>
	<g>
		<g>
			<path d="M157.9,242.4c2.1,0,4,0.6,5.9,1.9c1.8,1.3,2.7,2.6,2.7,3.9c0,0.4-0.2,0.5-0.7,0.5c-1.6,0-3.2,1.2-4.8,3.5
				c-1.6,2.3-3.1,5.4-4.6,9.2c3-1,5.9-2.2,8.6-3.7c2.7-1.5,5.4-2.9,8.1-4.4c2.7-1.5,5.6-2.8,8.5-3.9c2.9-1.2,6-1.9,9.3-2.3
				c1.5-0.1,3-0.1,4.6,0c1.6,0.1,3,0.5,4.3,1.1c1.3,0.6,2.3,1.5,3.2,2.7c0.9,1.2,1.3,2.7,1.3,4.7c0,1.8-0.5,3.5-1.5,5.1
				c-1,1.6-2,2.5-2.9,2.7c-0.5,0-0.7-0.2-0.7-0.7c0-1.7-0.9-3-2.7-3.8c-1.8-0.8-3.6-1.1-5.6-1c-4,0.2-7.6,0.8-10.7,1.6
				c-3.1,0.8-6,1.6-8.8,2.6c-2.7,0.9-5.5,1.8-8.1,2.7c-2.7,0.9-5.6,1.6-8.8,1.9c-1.8,5.7-3.4,12.1-4.6,19.1c-1.2,7-2,13.6-2.2,19.7
				c-0.2,6.1,0.1,11.2,1.1,15.3c1,4.1,2.7,6.1,5.3,6.1c1.6,0,3.1-0.7,4.5-2c1.4-1.3,2.7-3.1,3.9-5.4c1.2-2.3,2.3-4.9,3.3-8
				c1-3,1.8-6.3,2.6-9.7c0.4-1.7,1.1-2.5,2.2-2.3c1.1,0.2,1.4,1.1,0.9,2.7c-1.1,4.3-2.2,8.2-3.3,11.7c-1.1,3.5-2.3,6.6-3.7,9.2
				c-1.3,2.6-2.9,4.6-4.6,6c-1.7,1.5-3.7,2.2-5.9,2.2c-5.2,0-9.2-2.1-12-6.4c-2.7-4.3-4.5-9.6-5.4-16.1c-0.9-6.5-0.9-13.5,0-21.1
				c0.9-7.6,2.3-14.6,4.2-21.2c-2.8,0-5.8-0.4-8.9-1.1c-3.1-0.7-5.7-2.1-7.8-4.2l-0.2-0.2c-0.6-0.5-0.9-1-0.8-1.6
				c0.1-0.5,0.3-1,0.6-1.4c0.4-0.4,0.8-0.5,1.4-0.5c0.5,0.1,1.1,0.3,1.6,0.8c1.8,1.8,4.2,3.1,7.1,3.8c2.9,0.7,5.6,1.1,8.1,1.1
				c2.1-6.1,4.5-11.1,7.2-15.1C152.2,244.4,155,242.4,157.9,242.4z"/>
			<path d="M179.9,327.3c2.4,0,5-1.2,7.6-3.6c2.6-2.4,5-5.6,7-9.5c-2.7-1.9-4.9-4.4-6.8-7.5c-1.8-3-3.2-6.3-4.1-9.8
				c-0.9-3.5-1.4-7-1.5-10.5c-0.1-3.5,0.4-6.7,1.5-9.6c1-2.9,2.6-5.2,4.6-6.9c2-1.8,4.5-2.6,7.6-2.6c2.2,0,4,0.5,5.3,1.6
				c1.3,1.1,2.4,2.5,3.1,4.2c0.7,1.7,1.2,3.5,1.5,5.5c0.2,2,0.4,3.7,0.4,5.3c0,4.5-0.6,9.4-1.9,14.6c-1.3,5.2-3,10.1-5.2,14.7
				c2.3,1.1,4.5,1.5,6.4,1.2c2-0.3,3.7-1,5.3-2.2c1.6-1.2,2.9-2.7,4-4.6c1.1-1.9,2-3.9,2.7-6.1c0.4-1.3,1.1-1.9,2.1-1.7
				c1,0.2,1.4,1,1,2.5v0.4c-0.9,2.6-2,4.9-3.5,7.1c-1.5,2.2-3.2,4-5.1,5.4c-2,1.4-4.1,2.2-6.6,2.5c-2.4,0.2-5.1-0.2-7.9-1.5
				c-2.4,4.4-5.1,8-8,10.9c-2.9,2.9-6.1,4.3-9.6,4.3c-5.5,0-9.7-1.9-12.6-5.6c-2.9-3.7-4.7-8.2-5.4-13.4c-0.7-5.2-0.3-10.7,1.1-16.5
				c1.4-5.8,3.7-10.9,6.9-15.3c0.7-1,1.8-1.5,3.1-1.5c1.3,0,2.7,0.2,4,0.7c1.3,0.5,2.5,1.2,3.5,2c1,0.9,1.5,1.6,1.5,2.4
				c0,0.1-0.2,0.3-0.7,0.5c-1,0.2-1.8,0.9-2.6,2.1c-0.7,1.2-1.3,2.2-1.8,3.2c-1.8,3.7-3.1,7.7-3.9,12c-0.8,4.3-1.1,8.4-0.9,12.1
				c0.2,3.7,0.9,6.8,2.3,9.3C175.6,326.1,177.5,327.3,179.9,327.3z M190.5,282.3c-0.7,2.3-1.1,4.8-1.2,7.5c-0.1,2.7,0.2,5.3,0.6,8
				c0.5,2.6,1.2,5.1,2.3,7.4c1,2.3,2.3,4.3,3.8,5.9c2.1-4.3,3.6-8.8,4.7-13.6c1-4.8,1.6-9.3,1.6-13.5c0-2.7-0.5-4.7-1.5-6.1
				c-1-1.4-2.1-2.1-3.4-2.2c-1.3-0.1-2.6,0.5-3.9,1.6C192.1,278.4,191.1,280.1,190.5,282.3z"/>
			<path d="M263.6,242.4c2.1,0,4,0.6,5.9,1.9c1.8,1.3,2.7,2.6,2.7,3.9c0,0.4-0.2,0.5-0.7,0.5c-1.6,0-3.2,1.2-4.8,3.5
				c-1.6,2.3-3.1,5.4-4.6,9.2c3.1-1,5.9-2.2,8.6-3.7c2.7-1.5,5.4-2.9,8.1-4.4c2.7-1.5,5.6-2.8,8.5-3.9c2.9-1.2,6-1.9,9.3-2.3
				c1.5-0.1,3-0.1,4.6,0c1.6,0.1,3,0.5,4.3,1.1c1.3,0.6,2.4,1.5,3.2,2.7c0.9,1.2,1.3,2.7,1.3,4.7c0,1.8-0.5,3.5-1.5,5.1
				c-1,1.6-2,2.5-2.9,2.7c-0.5,0-0.7-0.2-0.7-0.7c0-1.7-0.9-3-2.7-3.8c-1.8-0.8-3.6-1.1-5.6-1c-4,0.2-7.6,0.8-10.7,1.6
				c-3.1,0.8-6,1.6-8.8,2.6c-2.7,0.9-5.5,1.8-8.1,2.7c-2.7,0.9-5.6,1.6-8.8,1.9c-1.8,5.7-3.4,12.1-4.6,19.1c-1.2,7-2,13.6-2.2,19.7
				c-0.2,6.1,0.1,11.2,1.1,15.3c1,4.1,2.7,6.1,5.3,6.1c1.6,0,3.1-0.7,4.5-2c1.4-1.3,2.7-3.1,3.9-5.4c1.2-2.3,2.3-4.9,3.3-8
				c1-3,1.8-6.3,2.6-9.7c0.4-1.7,1.1-2.5,2.2-2.3c1.1,0.2,1.4,1.1,0.9,2.7c-1.1,4.3-2.2,8.2-3.3,11.7c-1.1,3.5-2.3,6.6-3.7,9.2
				c-1.3,2.6-2.9,4.6-4.6,6c-1.7,1.5-3.7,2.2-5.9,2.2c-5.2,0-9.2-2.1-12-6.4c-2.7-4.3-4.5-9.6-5.4-16.1c-0.9-6.5-0.9-13.5,0-21.1
				c0.9-7.6,2.3-14.6,4.2-21.2c-2.8,0-5.8-0.4-8.9-1.1c-3.1-0.7-5.7-2.1-7.8-4.2l-0.2-0.2c-0.6-0.5-0.9-1-0.8-1.6
				c0.1-0.5,0.3-1,0.6-1.4c0.4-0.4,0.8-0.5,1.4-0.5c0.5,0.1,1.1,0.3,1.6,0.8c1.8,1.8,4.2,3.1,7.1,3.8c2.9,0.7,5.6,1.1,8.1,1.1
				c2.1-6.1,4.5-11.1,7.2-15.1C257.8,244.4,260.6,242.4,263.6,242.4z"/>
			<path d="M274.2,247.7c0.9-2,2-3.9,3.3-5.8c1.3-1.9,2.8-3.6,4.5-5c1.6-1.5,3.5-2.7,5.5-3.6c2-0.9,4.2-1.4,6.5-1.4
				c1.6,0,2.9,0.4,3.8,1.3c1,0.9,1.7,2,2.2,3.3c0.5,1.3,0.7,2.8,0.7,4.3c0,1.5-0.1,2.9-0.2,4.1c-0.5,3.7-1.3,7.8-2.5,12.4
				c-1.2,4.6-2.7,9.1-4.5,13.5s-4,8.4-6.6,11.9c-2.6,3.5-5.4,6.2-8.4,7.9c-0.5,6-0.9,12-1.1,18.1c0.5-1.9,1.2-4.3,2.1-7
				c0.9-2.7,2.1-5.4,3.6-7.9c1.5-2.5,3.2-4.6,5.1-6.4c1.9-1.8,4.3-2.7,7-2.7c3.4,0,5.9,1.1,7.5,3.4c1.6,2.3,2.6,5.1,3.1,8.5
				c0.5,3.5,0.5,7,0,10.3c-0.5,3.4-1.1,6.7-1.8,10.1c-0.7,3.4-1.4,6.7-2.1,10.1c-0.7,3.4-0.9,6.7-0.8,10.2c0.1,3.8,1,5.7,2.6,5.7
				c1,0,2-0.9,3.1-2.7c1.1-1.8,2.2-4,3.2-6.8c1-2.7,2-5.8,2.9-9.2c0.9-3.4,1.7-6.5,2.5-9.5c0.7-3,1.3-5.7,1.8-8.1
				c0.5-2.4,0.8-4,0.9-4.9c0.2-1.7,0.9-2.5,2-2.3c1.1,0.2,1.5,1.1,1.3,2.7c-0.2,1.1-0.6,3-1.1,5.7c-0.5,2.7-1.1,5.7-1.9,9
				c-0.8,3.3-1.7,6.7-2.8,10.3c-1.1,3.5-2.3,6.8-3.6,9.7c-1.3,2.9-2.7,5.3-4.1,7.2c-1.5,1.9-3,2.8-4.6,2.8c-3.1,0-5.9-1.1-8.7-3.2
				c-2.7-2.1-4.4-5.1-5-8.9c-0.5-2.9-0.5-6-0.2-9.2c0.4-3.2,0.9-6.4,1.5-9.7c0.6-3.3,1.2-6.5,1.7-9.7c0.5-3.2,0.8-6.2,0.8-9
				c0-1.8-0.3-3.2-0.8-4.1c-0.5-0.9-1.2-1.4-1.9-1.4c-1.5,0-2.8,0.8-3.9,2.4c-1.2,1.6-2.2,3.6-3.2,6.1c-1,2.5-1.8,5.2-2.5,8.2
				c-0.7,3-1.3,5.9-1.7,8.8c-0.5,2.9-0.9,5.5-1.1,7.8c-0.2,2.3-0.4,4-0.4,4.9c0,0.9-0.7,1.3-2,1.3c-2.1,0-3.5-0.4-4.2-1.3
				c-0.7-0.9-1.2-2.1-1.5-3.8c-1-5.7-1.8-12-2.4-18.8c-0.6-6.8-0.9-13.6-0.7-20.6c0.1-7,0.7-13.8,1.8-20.5
				C270,259.6,271.7,253.4,274.2,247.7z M297.2,246.4c0-0.4,0.1-0.9,0.2-1.7c0.1-0.8,0.2-1.6,0.1-2.5c-0.1-0.9-0.2-1.6-0.5-2.2
				c-0.3-0.6-0.8-0.9-1.4-0.9c-1.5,0-3.1,1.7-4.8,5.1c-3.2,6.2-5.7,12.9-7.5,20.1c-1.8,7.2-3.2,14.5-4.2,22c2.3-1.7,4.5-4.1,6.4-7.2
				c2-3.1,3.7-6.5,5.3-10.3c1.6-3.7,2.9-7.5,3.9-11.4C295.8,253.5,296.6,249.8,297.2,246.4z"/>
			<path d="M323.2,318.7c-0.2,4.1,0.5,7.8,2.2,10.8c1.7,3,4.6,4.6,8.6,4.6c3.5,0,6.8-1.2,9.8-3.7c3-2.4,5.6-5.4,7.9-8.8
				c2.3-3.4,4.2-7,5.8-10.6c1.6-3.7,2.7-6.8,3.3-9.3c0.4-1.6,1.1-2.3,2.2-2.1c1.1,0.2,1.4,1.1,0.9,2.7v0.2c-0.7,3.2-2,6.8-3.7,10.9
				c-1.7,4.1-3.8,8-6.4,11.6c-2.6,3.7-5.5,6.8-8.8,9.3c-3.3,2.6-7,3.8-11,3.8c-6.5,0-11.4-1.7-14.8-5c-3.4-3.4-5.7-7.5-6.8-12.5
				c-1.1-5-1.1-10.4-0.1-16.2c1-5.8,2.9-11.2,5.5-16.2c2.6-5,5.9-9.2,9.7-12.5c3.8-3.4,8-5,12.5-5c4.1,0,7.2,1.2,9.2,3.7
				c2,2.4,3.1,5.5,3.3,9.2c0.2,3.7-0.3,7.7-1.6,12c-1.3,4.3-3.1,8.3-5.3,12c-2.3,3.7-4.9,6.7-7.9,9.2c-3,2.4-6.1,3.7-9.4,3.7
				C326.6,320.2,324.9,319.7,323.2,318.7z M335.7,282.1c-1.5,1.7-2.9,3.8-4.2,6.3c-1.3,2.5-2.5,5.2-3.6,8.1c-1,2.9-1.9,6-2.7,9.1
				c-0.7,3.2-1.3,6.3-1.6,9.3c1.3,1.3,2.9,2,4.8,2c2.3,0,4.5-1,6.5-2.9c2-1.9,3.8-4.4,5.4-7.3c1.6-2.9,2.9-6,3.8-9.4
				c1-3.3,1.6-6.5,1.8-9.4c0.2-2.9,0.1-5.3-0.5-7.3c-0.5-1.9-1.6-2.9-3-2.9C340.4,277.7,338.1,279.2,335.7,282.1z"/>
		</g>
	</g>
	<g>
		<g>
			<path d="M130.1,49c0.3,3.6,0.1,7.7-0.7,12.3c-0.8,4.7-1.7,9.4-2.8,14.2c-1.1,4.8-2.1,9.4-2.9,13.7c-0.9,4.4-1.2,8-0.9,10.9
				c0.2,1.7,0.5,2.9,1.1,3.6c0.6,0.7,1.3,1,2,1c1.9-0.1,3.5-1.1,5-3.1c1.4-2,2.7-4.2,3.6-6.8c1-2.6,1.8-5.1,2.4-7.7
				c0.6-2.6,1-4.5,1.3-5.9c0.2-0.4,0.3-0.7,0.5-1.1c0.2-0.3,0.4-0.5,0.9-0.6c0.5,0,0.8,0.2,0.9,0.7c0.1,0.5,0.1,0.9,0,1.3
				c-0.3,1.9-0.9,4.3-1.6,7.2c-0.8,2.9-1.8,5.7-3,8.5c-1.2,2.8-2.7,5.2-4.5,7.2c-1.8,2.1-4,3.1-6.5,3.3c-2.5,0.1-4.7-0.8-6.7-2.9
				c-1.7-1.7-2.9-3.9-3.5-6.6c-0.6-2.7-0.8-5.7-0.7-9c0.1-3.3,0.5-6.7,1.2-10.3c0.6-3.6,1.4-7.2,2.2-10.8c0.8-3.5,1.6-6.9,2.4-10.2
				c0.8-3.2,1.4-6.2,1.8-8.8c0.3-2.5,0.2-4.4-0.3-5.8c-0.5-1.4-1.3-2.1-2.3-2c-1,0.1-2,0.6-3.1,1.8c-1,1.1-2,2.5-2.9,4
				c-0.9,1.5-1.7,3.1-2.5,4.6c-0.7,1.5-1.3,2.7-1.6,3.5c-1.5,3.6-2.9,7.4-4.1,11.5c-1.2,4.1-2.1,8.2-2.9,12.3
				c-0.8,4.1-1.3,8.2-1.5,12.2c-0.2,4-0.1,7.6,0.3,11c0.1,0.7,0,1.1-0.4,1.4c-0.4,0.2-0.8,0.3-1.2,0.1c-1.6-0.3-3.1-1.2-4.3-2.7
				c-1.2-1.4-2.1-3.3-2.6-5.5c-0.8-3.5-1-7.2-0.7-11.1c0.3-3.9,0.8-7.9,1.5-11.9c0.7-4,1.6-7.9,2.6-11.8c1-3.9,1.9-7.6,2.5-11
				c0.6-2.5,0.7-4.8,0.4-6.8c-0.3-2-1-3-2.1-2.9c-1.3,0.1-2.5,0.7-3.5,1.8c-1.1,1.2-2.1,2.6-3,4.4c-0.9,1.8-1.8,3.7-2.5,5.8
				c-0.8,2.1-1.4,4.2-1.9,6.3c-0.5,2-1,3.9-1.4,5.6c-0.4,1.7-0.7,2.9-0.9,3.7c-0.5,2.8-1.1,5.5-1.5,8.1c-0.5,2.6-0.9,5.1-1.2,7.3
				c-0.4,2.2-0.6,4.3-0.9,6.1c-0.2,1.8-0.4,3.2-0.5,4.3c-0.2,1.7-0.3,3.4-0.4,5c-0.1,1.6,0,3.2,0.2,4.9c0.1,0.7,0,1.1-0.4,1.4
				c-0.4,0.2-0.8,0.3-1.3,0.1c-1.6-0.4-2.9-1.2-4.2-2.7c-1.2-1.4-2.1-3.3-2.6-5.5c-0.2-1.1-0.3-2.8-0.2-5.1c0.1-2.3,0.3-4.8,0.6-7.6
				c0.3-2.8,0.6-5.7,0.9-8.8c0.3-3.1,0.5-5.9,0.6-8.6c0.1-2.7,0-5-0.2-7c-0.2-2-0.7-3.3-1.4-4c-0.5-0.4-0.7-0.7-0.7-1
				c0-0.5,0.3-1.1,0.9-1.8c0.6-0.7,1.6-1.1,2.8-1.2c1.5-0.1,2.8,0.2,3.8,0.8c1,0.6,1.7,1.5,2.2,2.6c0.8,1.4,1.2,3.1,1.5,5.1
				c0.2,2,0.3,4.1,0.1,6.5c1.2-5.1,2.5-10.1,4-14.9c1.5-4.8,3.3-8.8,5.6-11.9c2.6-3.7,5.4-5.7,8.3-5.8c2.4-0.1,4.4,0.9,6.1,3.1
				c1.6,2.2,2.5,5.2,2.6,9c0.1,1.2,0.1,2.4,0,3.5c0,1.2-0.1,2.3-0.2,3.5c0.5-1.3,1.2-2.8,1.9-4.5c0.7-1.7,1.6-3.2,2.7-4.7
				c1-1.5,2.2-2.7,3.5-3.7c1.3-1,2.8-1.6,4.5-1.6c2.4-0.1,4.5,0.7,6.5,2.5C128.7,43.2,129.8,45.7,130.1,49z"/>
			<path d="M134,62.3c0-0.5,0.3-1.1,0.9-1.8c0.6-0.7,1.6-1.1,2.8-1.2c1.9-0.1,3.3,0.3,4.4,1.3c1,0.9,1.8,2.1,2.3,3.5
				c0.5,1.4,0.8,2.9,0.8,4.6c0,1.7,0,3.3-0.2,4.6c-0.2,1.9-0.5,3.8-0.9,5.6c-0.4,1.9-0.8,3.7-1.3,5.6c-0.4,1.9-0.7,3.7-0.9,5.6
				c-0.2,1.9-0.2,3.8,0,5.7c0.3,2,1,2.9,2.3,2.8c0.6,0,1.4-0.5,2.4-1.4c1.2-1.2,2.3-2.9,3.2-5c0.9-2.2,1.6-4.5,2.2-7
				c0.6-2.5,1-4.9,1.3-7.3c0.3-2.4,0.4-4.3,0.3-5.9c-0.1-1.5,0.1-2.4,0.5-3c0.4-0.5,1.1-0.8,2-0.9c0.9,0,1.6,0.3,2,1
				c0.4,0.7,0.7,1.7,1,2.8c0.3,2.2,0.6,5.1,0.9,8.6c0.3,3.5,0.5,7.4,0.6,11.7c2-2,3.4-3.9,4.5-5.8c1-1.9,1.8-4.2,2.4-6.9
				c0.1-1.1,0.6-1.7,1.3-1.6c0.8,0,1.1,0.6,0.9,1.8c-0.8,3.3-1.8,6.1-3.1,8.4c-1.3,2.3-3.3,4.7-5.9,7c0,4.3-0.3,8.6-0.8,13.1
				c-0.5,4.4-1.3,8.6-2.4,12.4c-1.1,3.8-2.6,7.2-4.5,10.2c-1.9,3-4.2,5.1-7.1,6.4c-0.8,0.3-1.5,0.5-2.1,0.7c-0.7,0.2-1.4,0.3-2,0.4
				c-1.5,0.1-2.7-0.2-3.6-1c-0.9-0.7-1.5-1.7-1.8-2.8c-0.4-1.1-0.5-2.4-0.6-3.7c0-1.3,0.1-2.6,0.3-3.7c0.8-5.7,2.6-11,5.4-15.8
				c2.8-4.8,6.5-9,11.2-12.6c0.5-4.5,1-9.1,1.2-13.8c-0.4,1.4-0.8,3-1.3,4.8c-0.5,1.8-1.2,3.6-1.9,5.3c-0.8,1.7-1.7,3.2-2.9,4.4
				c-1.1,1.2-2.5,1.9-4,1.9c-2.1,0.1-4.2-0.5-6.1-1.9c-2-1.4-3.2-3.5-3.8-6.2c-0.3-1.7-0.4-3.5-0.3-5.4c0.1-1.9,0.3-3.8,0.7-5.9
				c0.3-2,0.7-4,1.1-6c0.4-2,0.7-3.9,0.9-5.7c0.1-1.2,0.2-2.5,0.1-3.9c0-1.4-0.5-2.5-1.4-3.4C134.3,62.8,134,62.4,134,62.3z
				 M138.4,127.8c-0.1,0.4-0.1,1-0.2,1.6c-0.1,0.6-0.1,1.3,0,1.9c0.1,0.6,0.3,1.2,0.5,1.6c0.3,0.5,0.7,0.7,1.3,0.6
				c1.2-0.1,2.3-1,3.4-2.7c1.1-1.7,2.1-3.9,3-6.4c0.9-2.6,1.8-5.3,2.5-8.2c0.8-2.9,1.4-5.6,1.8-8.1c0.2-1,0.4-1.9,0.6-3
				c0.2-1,0.4-2,0.5-3c-3.9,3.2-6.9,7-9.1,11.5C140.5,118.2,139.1,122.9,138.4,127.8z"/>
			<path d="M186.2,40.8c0.5-1.4,1.2-2.8,2.1-4.1c0.9-1.4,1.9-2.6,3-3.7c1.1-1.1,2.3-2,3.7-2.7c1.4-0.7,2.9-1.1,4.5-1.2
				c1.1-0.1,2,0.2,2.7,0.8c0.7,0.6,1.3,1.3,1.6,2.2c0.4,0.9,0.6,1.9,0.7,3c0.1,1.1,0.1,2,0,2.9c-0.2,2.6-0.6,5.5-1.3,8.7
				c-0.7,3.2-1.5,6.4-2.7,9.6c-1.1,3.1-2.5,6-4.2,8.6c-1.7,2.6-3.5,4.5-5.6,5.8c-0.1,4.2-0.2,8.4-0.1,12.7c0.3-1.4,0.7-3.1,1.2-5
				c0.5-2,1.3-3.8,2.2-5.6c0.9-1.8,2.1-3.4,3.4-4.7c1.3-1.3,2.9-2,4.8-2.1c2.4-0.1,4.2,0.6,5.4,2.1c1.2,1.5,2,3.5,2.5,5.8
				c0.5,2.5,0.6,4.9,0.4,7.2c-0.2,2.4-0.5,4.7-0.9,7.1c-0.4,2.4-0.8,4.7-1.1,7.1c-0.4,2.4-0.4,4.8-0.2,7.1c0.2,2.6,0.9,3.9,2,3.9
				c0.7,0,1.4-0.7,2.1-2c0.7-1.3,1.4-2.9,2-4.8c0.6-2,1.2-4.1,1.7-6.5c0.5-2.4,1-4.6,1.4-6.7c0.4-2.1,0.7-4,1-5.7
				c0.3-1.7,0.4-2.8,0.5-3.4c0.1-1.2,0.6-1.8,1.3-1.7c0.8,0.1,1.1,0.7,1,1.8c-0.1,0.8-0.3,2.1-0.6,4c-0.2,1.9-0.6,4-1,6.3
				c-0.4,2.3-1,4.8-1.6,7.3c-0.6,2.5-1.4,4.8-2.2,6.9c-0.8,2.1-1.7,3.8-2.6,5.2c-1,1.4-2,2.1-3.1,2.1c-2.1,0.1-4.2-0.5-6.2-1.9
				c-2-1.4-3.3-3.4-3.8-6c-0.4-2-0.6-4.2-0.4-6.4c0.1-2.2,0.4-4.5,0.7-6.8c0.3-2.3,0.6-4.6,0.9-6.8c0.3-2.2,0.4-4.3,0.3-6.3
				c-0.1-1.3-0.3-2.2-0.7-2.9c-0.4-0.6-0.9-0.9-1.4-0.9c-1,0.1-1.9,0.7-2.7,1.8c-0.8,1.2-1.4,2.6-2,4.4c-0.6,1.8-1.1,3.7-1.4,5.8
				c-0.4,2.1-0.7,4.2-0.9,6.2c-0.2,2-0.4,3.9-0.5,5.5c-0.1,1.6-0.1,2.8-0.1,3.5c0,0.6-0.4,0.9-1.4,1c-1.5,0.1-2.4-0.2-3-0.8
				c-0.5-0.6-0.9-1.4-1.2-2.6c-0.9-4-1.7-8.3-2.3-13c-0.7-4.7-1.1-9.5-1.2-14.4c-0.2-4.9,0-9.7,0.6-14.4
				C183.7,49.3,184.7,44.9,186.2,40.8z M202.3,39.1c0-0.3,0-0.7,0.1-1.2c0.1-0.6,0.1-1.1,0-1.7c-0.1-0.6-0.2-1.1-0.5-1.5
				c-0.2-0.4-0.6-0.6-1-0.6c-1,0.1-2.1,1.3-3.2,3.8c-2,4.5-3.5,9.2-4.6,14.3c-1,5.1-1.8,10.3-2.2,15.5c1.6-1.3,3-3,4.2-5.3
				c1.3-2.2,2.4-4.7,3.4-7.4c1-2.7,1.8-5.4,2.4-8.1C201.5,44.1,202,41.5,202.3,39.1z"/>
			<path d="M223,88.8c0,2.9,0.6,5.4,1.9,7.5c1.3,2.1,3.4,3,6.2,2.9c2.5-0.1,4.7-1.1,6.7-2.9c2-1.8,3.7-4,5.2-6.4
				c1.5-2.5,2.7-5,3.7-7.6c1-2.6,1.6-4.8,2-6.6c0.2-1.1,0.7-1.6,1.5-1.5c0.8,0.1,1,0.7,0.7,1.8l0,0.1c-0.4,2.2-1.1,4.8-2.2,7.7
				c-1.1,2.9-2.4,5.7-4.1,8.4c-1.7,2.7-3.6,4.9-5.8,6.8c-2.2,1.9-4.7,2.9-7.6,3.1c-4.5,0.2-8-0.8-10.5-3c-2.5-2.2-4.2-5.1-5.2-8.5
				c-0.9-3.5-1.1-7.2-0.6-11.3c0.5-4.1,1.6-7.9,3.3-11.5c1.7-3.6,3.8-6.6,6.4-9.1c2.6-2.5,5.4-3.8,8.6-4c2.9-0.1,5.1,0.6,6.5,2.2
				c1.4,1.6,2.3,3.7,2.6,6.3c0.3,2.6,0.1,5.4-0.7,8.4c-0.7,3.1-1.8,5.9-3.3,8.6c-1.5,2.6-3.2,4.9-5.2,6.7c-2,1.8-4.2,2.8-6.5,2.9
				C225.4,89.7,224.2,89.4,223,88.8z M230.4,62.8c-1,1.2-1.9,2.8-2.7,4.5c-0.9,1.8-1.6,3.7-2.2,5.8c-0.6,2.1-1.1,4.2-1.5,6.5
				c-0.4,2.2-0.7,4.4-0.8,6.6c1,0.9,2.1,1.3,3.4,1.2c1.6-0.1,3.1-0.8,4.4-2.3c1.3-1.4,2.5-3.2,3.5-5.3c1-2.1,1.8-4.3,2.4-6.7
				c0.6-2.4,0.9-4.6,1-6.6c0.1-2-0.1-3.7-0.6-5.1c-0.5-1.3-1.2-2-2.2-1.9C233.6,59.5,232,60.6,230.4,62.8z"/>
			<path d="M269.9,59.4c0.1,1.1-0.3,1.6-1.1,1.6c-0.8,0-1.2-0.5-1.3-1.5c0-0.6-0.2-1.1-0.6-1.5c-0.4-0.4-0.8-0.6-1.4-0.6
				c-1.9,0.1-3.5,1.1-4.9,3.1c-1.4,2-2.6,4.4-3.6,7.3c-1,2.9-1.7,6-2.1,9.3c-0.4,3.3-0.6,6.3-0.4,9.2c0.1,2.8,0.6,5.2,1.4,7
				c0.8,1.9,2,2.7,3.4,2.7c1-0.1,2.1-1.3,3.2-3.6c1.1-2.4,2.1-5.2,2.9-8.4c0.9-3.2,1.6-6.5,2.2-9.7c0.6-3.3,0.8-5.9,0.7-7.7
				c-0.1-1.2,0.2-2.1,0.8-2.8c0.6-0.7,1.3-1,2.1-1.1c2.2-0.1,3.6,0.9,4.1,2.9c0.5,2.1,0.6,4.6,0.4,7.5c-0.2,2.9-0.6,5.9-1.1,9
				c-0.5,3.1-0.6,5.5-0.3,7.4c0.3,1.8,1,2.6,2.1,2.6c1.2-0.1,2.2-0.9,3.1-2.6c0.9-1.7,1.7-3.5,2.3-5.6c0.6-2.1,1.1-4.1,1.4-6
				c0.3-1.9,0.5-3.1,0.6-3.8c0.1-1.1,0.5-1.7,1.3-1.6c0.7,0.1,1,0.6,0.9,1.8c-0.1,0.7-0.2,1.7-0.4,3c-0.2,1.3-0.5,2.8-0.9,4.3
				c-0.4,1.6-0.9,3.2-1.5,4.8c-0.6,1.7-1.3,3.1-2,4.5c-1.3,2.7-3.2,4.1-5.7,4.3c-1.5,0.1-2.8-0.3-3.8-1c-1-0.8-1.8-1.8-2.4-3
				c-0.6-1.3-1-2.6-1.2-4.1c-0.2-1.5-0.3-2.9-0.1-4.3c-0.4,1.6-0.9,3.4-1.5,5.4c-0.7,2-1.5,4-2.5,5.8c-1,1.8-2.1,3.4-3.4,4.8
				c-1.3,1.3-2.8,2.1-4.4,2.1c-2.9,0.1-5.2-0.9-6.9-3.2c-1.7-2.3-2.8-5.1-3.4-8.6c-0.6-3.5-0.7-7.3-0.2-11.4
				c0.4-4.1,1.4-7.9,2.9-11.5c1.5-3.6,3.5-6.6,6-9.1c2.5-2.5,5.4-3.8,8.9-4c1.8-0.1,3.4,0.4,4.7,1.5
				C269.1,55.6,269.8,57.2,269.9,59.4z"/>
			<path d="M319.5,72.5c-0.2,1.5-0.4,3.3-0.6,5.4c-0.2,2.2-0.6,4.4-1,6.7c-0.4,2.3-0.9,4.7-1.6,7c-0.7,2.3-1.6,4.4-2.6,6.3
				c-1,1.8-2.3,3.4-3.7,4.6c-1.4,1.2-3.1,1.9-5.1,2c-4,0.2-6.9-1-8.8-3.5c-1.9-2.5-2.9-5.6-3.1-9.2c-0.1-2.7,0-5.4,0.5-8
				c0.5-2.6,1-5.2,1.7-7.8c0.6-2.6,1.3-5.1,1.9-7.7c0.6-2.6,1-5.2,1.2-7.8c0.1-1.9,0-3.4-0.3-4.5c-0.3-1.1-0.8-1.6-1.6-1.6
				c-0.6,0-1.2,0.4-1.9,1.1c-0.7,0.7-1.3,1.9-1.9,3.6c-0.6,1.6-1.1,3.3-1.6,5.1c-0.5,1.8-1,3.6-1.7,5.2c-0.6,1.7-1.5,3.1-2.5,4.2
				c-1,1.1-2.3,1.7-3.8,1.8c-1.9,0.1-3.2-0.8-3.9-2.6c-0.7-1.8-1.1-3.9-1-6.2s0.5-4.4,1.2-6.3c0.8-1.9,1.7-2.9,2.8-3
				c1.4-0.1,2.4,0.3,3.2,1.1c0.8,0.8,1.3,1.8,1.5,3c0.2,1.2,0.3,2.6,0.3,4.1c-0.1,1.5-0.2,2.9-0.4,4.2c0.8-1.5,1.5-3.3,2-5.4
				c0.6-2.1,1.2-4.1,1.8-5.9c0.6-1.9,1.4-3.5,2.3-4.9c0.9-1.4,2.2-2.1,3.8-2.2c1.9-0.1,3.4,0.1,4.6,0.6c1.2,0.5,2.1,1.2,2.8,2.1
				c0.7,0.9,1.2,2,1.4,3.3c0.3,1.3,0.5,2.6,0.5,4.1c0.1,2.6,0,5.2-0.5,7.7c-0.5,2.5-1,5-1.6,7.3c-0.6,2.4-1.2,4.8-1.7,7.2
				c-0.5,2.4-0.6,4.9-0.5,7.5c0.1,2.8,0.6,5.2,1.4,7.3c0.8,2,1.9,3,3.4,2.9c1.4-0.1,2.6-0.7,3.6-1.8c1.1-1.2,2-2.6,2.7-4.4
				c0.8-1.8,1.4-3.8,1.9-6c0.5-2.2,1-4.4,1.3-6.5c0.3-2.1,0.6-4.1,0.8-5.9c0.2-1.9,0.4-3.3,0.5-4.3c0.1-1.2,0.5-1.8,1.3-1.7
				C319.3,70.8,319.6,71.4,319.5,72.5z"/>
			<path d="M325.6,30.2c1.5-0.1,2.8,0.3,4.2,1.1c1.3,0.8,2,1.7,2.1,2.7c0,0.3-0.2,0.4-0.5,0.4c-1.1,0.1-2.2,0.9-3.2,2.6
				c-1,1.7-2,3.9-2.9,6.6c2.1-0.8,4.1-1.7,5.9-2.9c1.8-1.1,3.7-2.2,5.5-3.4c1.9-1.1,3.8-2.1,5.8-3c2-0.9,4.2-1.6,6.5-1.9
				c1-0.1,2.1-0.2,3.2-0.2c1.1,0,2.1,0.2,3,0.6c0.9,0.4,1.7,1,2.3,1.7c0.6,0.8,1,1.9,1.1,3.2c0.1,1.3-0.2,2.5-0.8,3.6
				c-0.6,1.1-1.3,1.8-2,2c-0.3,0-0.5-0.1-0.5-0.5c-0.1-1.2-0.7-2-2-2.5c-1.3-0.5-2.6-0.7-3.9-0.5c-2.8,0.3-5.3,0.8-7.4,1.5
				c-2.1,0.7-4.2,1.4-6.1,2.1c-1.9,0.7-3.8,1.5-5.6,2.2c-1.8,0.7-3.9,1.3-6.1,1.6c-1.1,4.1-1.9,8.6-2.5,13.5
				c-0.6,5-0.9,9.6-0.9,13.8c0,4.3,0.5,7.8,1.3,10.7c0.8,2.8,2.1,4.2,3.9,4.1c1.1-0.1,2.1-0.6,3.1-1.6c0.9-1,1.8-2.3,2.6-3.9
				c0.8-1.6,1.5-3.5,2-5.7c0.6-2.2,1.1-4.5,1.5-6.9c0.2-1.2,0.7-1.8,1.5-1.7c0.8,0.1,1,0.7,0.7,1.8c-0.6,3-1.3,5.8-1.9,8.3
				c-0.6,2.5-1.4,4.7-2.2,6.5c-0.9,1.8-1.8,3.3-3,4.4c-1.1,1.1-2.5,1.7-4,1.7c-3.7,0.2-6.5-1.2-8.6-4.1c-2.1-2.9-3.5-6.6-4.3-11.1
				c-0.8-4.5-1.1-9.4-0.7-14.7c0.3-5.3,1.1-10.3,2.2-15c-2,0.1-4-0.1-6.2-0.5c-2.2-0.4-4.1-1.3-5.6-2.7l-0.1-0.1
				c-0.4-0.3-0.7-0.7-0.6-1.1c0-0.4,0.2-0.7,0.4-1c0.2-0.3,0.6-0.4,0.9-0.4c0.4,0,0.8,0.2,1.1,0.5c1.3,1.2,3.1,2,5.1,2.4
				c2.1,0.4,4,0.6,5.7,0.5c1.2-4.3,2.8-7.9,4.5-10.8C321.7,31.8,323.6,30.3,325.6,30.2z"/>
		</g>
	</g>
	<g>
		<path d="M105.2,182.8c5.9,0.7,9.5,4.1,11,10.1c1.6,6-0.4,11.2-4.5,15.6c-2.6,2.8-5.7,4.3-9.1,5.1c-7,1.7-14,2.1-20.9,2.4
			c-1.6,0-3.1,0.1-4.7,0.1c-1.1,0-2.1-0.4-2.1-1.8c0-1.5,1.2-1.7,2.2-1.7c1.8,0.1,2.2-0.6,2.1-2.6c-1.1-15.9-0.9-31.8-1-47.7
			c0-1.1-0.2-1.4-1.2-1.3c-1,0.1-2.2,0.1-2.2-1.4c0.1-1.3,0.9-1.9,2.1-2.1c7-1.3,14-1.2,20.9-0.1c10.3,1.6,14.2,15.1,7,24.1
			c-0.2,0.3-0.4,0.5-0.7,0.9C104.6,182.7,104.9,182.8,105.2,182.8z M92.4,172.8c0,3.7,0,7.4,0,11c0,1,0.1,1.5,1.3,1
			c1.1-0.5,2.2-0.8,3.4-1.1c5-1.5,8.8-6.6,8.7-12c-0.2-4.6-2.2-9.8-8.7-10.9c-1-0.2-2.1-0.1-3.1-0.4c-1.1-0.2-1.5,0.1-1.5,1.4
			C92.5,165.5,92.5,169.1,92.4,172.8C92.5,172.8,92.5,172.8,92.4,172.8z M92.6,200.3c0,3.3,0,6.5,0,9.8c0,1.2,0.3,1.5,1.4,1.4
			c1.6-0.2,3.4-0.2,5-0.6c4.2-0.9,8.1-2.6,11.2-6.1c2.7-3.1,4-6.5,2.8-10.5c-1.3-4.2-3.8-6.8-7.9-7.5c-4.1-0.6-8,0.8-11.9,2.1
			c-0.8,0.2-0.8,0.9-0.8,1.5C92.5,193.7,92.5,197,92.6,200.3C92.6,200.3,92.6,200.3,92.6,200.3z"/>
		<path d="M123.5,159.5c0.2-2.7,0.7-3.1,3.1-3.5c7.1-1.2,14.2-1.7,21.3-1.9c0.7,0,1.3,0,1.9-0.6c1.4-1.2,2.9-0.9,3.2,0.7
			c0.4,2.1,0.2,4.2-0.4,6.3c-0.3,0.9-1,1.5-1.9,1.5c-1.1,0-1.4-0.6-1.6-1.4c0-0.1,0-0.1,0-0.2c-0.2-1,0.4-2.6-0.6-3
			c-1-0.4-2.3,0.1-3.5,0.2c-1.8,0.1-3.7,0.3-5.6,0.4c-1,0.1-1.4,0.5-1.6,1.5c-1,6.7-1.3,13.4-1.4,20.1c0,0.6,0,1.1,0.9,0.9
			c2.3-0.6,4.5-0.6,6.8-0.8c1-0.1,1.2-0.5,1.2-1.4c0-1.3-0.2-2.8,1.6-3c2-0.2,1.7,1.6,1.6,2.8c0,2.7-0.3,5.6-0.6,8.4
			c0,0.7-0.2,1.3-1,1.4c-0.9,0.1-1.1-0.6-1.2-1.1c-0.1-1.2-0.2-2.3-0.4-3.5c0-0.8-0.3-1.1-1.1-0.9c-2.1,0.8-4.5,0.7-6.8,1
			c-0.7,0.2-1.4,0.1-1.2,1.1c0.4,5.9-0.4,11.9,1,17.6c0.3,1.5,0.8,3.1,1.6,4.4c0.9,1.3,1.9,1.9,3.6,0.8c0.8-0.5,1.6-0.9,2.3-1.3
			c1.1-0.6,1.5-1.3,1.1-2.3c-0.4-1.5,0.5-2.8,1.8-3.1c1.6-0.4,2,0.7,2.3,1.9c0.3,1.4,0.7,2.8,1.1,4.4c0.2,0.8,0.6,1.6-0.5,2.2
			c-0.9,0.4-2.1,0.4-2.6-0.4c-0.7-1.3-1.6-0.7-2.4-0.2c-2.9,1.7-5.7,3.2-8.9,3.9c-5,1.1-9.7-0.8-11.9-5c-2.3-4.5-3.1-9.4-3.2-14.5
			c-0.1-1.6,0-3.3,0-4.9C121.9,178.5,122.8,169.1,123.5,159.5z"/>
		<path d="M178.6,149.7c0.3,0,0.7-0.1,1,0c1.1,0.2,1.8,0.5,1.8,1.8c-0.1,1.3-1,1.8-1.9,2c-0.9,0.2-1.7,0.2-2.6,0.2
			c-0.8,0-1.1,0.4-1.1,1.3c-0.3,15.9-1.3,31.8-1.5,47.8c0,1,0.2,1.1,1.1,0.9c2.4-0.6,4.8-0.9,7.3-0.8c0.9,0,1.3-0.3,1.4-1.3
			c0.2-1.4,0.5-2.9,0.5-4.3c0-1.5,0.6-2.6,1.9-2.7c1.4-0.2,1.7,1,1.6,2.3c-0.1,2.4-0.2,4.8-0.4,7.2c-0.2,1.8-1,2.3-2.5,2.3
			c-6.3-0.2-12.5,1.2-18.6,3c-1.6,0.5-3.1,1-4.7,1.4c-1.2,0.3-2.2,0.1-2.7-1.2c-0.4-1.1,0-2.1,1.1-2.8c0.5-0.3,0.6-0.7,0.5-1.2
			c-1.6-11.2-0.7-22.6-0.4-34c0.1-5.1,0.2-10.1,0.8-15.1c0-0.8,0-1.3-0.9-1.3c-1.1,0-1.8-0.6-1.7-1.8c0-1.5,0.9-2,2-2.3
			c2-0.5,4.2-0.6,6.2-0.7c1.2-0.1,2.3-0.2,3.4-0.2c0,0.1,0,0.2,0,0.3C173,150.3,175.8,150,178.6,149.7z"/>
		<path d="M225.4,187.9c-1.8,5.1-4.3,9.8-8.2,13.4c-4.1,3.7-8.5,4.7-13.1,2.7c-3.7-1.6-6.3-4.4-7.9-8.5c-4.7-12.2-4.1-25,1.1-38
			c1-2.3,2.2-4.5,3.7-6.5c1.9-2.7,4.1-4.6,7.3-4.6c1.6-0.1,3.1-0.9,4.7-1c6.8-0.2,12,4.2,14.1,11.7c1,3.8,1.6,7.5,1.4,11.5
			C228.2,175.1,227.7,181.6,225.4,187.9z M223.9,159.7c-1-3.9-2.8-7.2-6.1-9.2c-0.6-0.3-1.2-0.3-1.9-0.1c-2.5,0.6-3.7,2.8-4.7,4.9
			c-2.1,4.2-2.8,8.7-3.1,13.2c-0.4,6.7-0.8,13.4,0.6,19.8c0.8,4.3,2,8.2,5.6,10.3c0.7,0.4,1.2,0.3,1.6-0.3c1.5-1.6,2.5-3.3,3.6-5.3
			c4.2-7.8,5.2-16.1,5.5-24.4C225.1,165.5,224.6,162.6,223.9,159.7z"/>
		<path d="M266,169.8c0-8.6,0.2-17.3,0.6-25.8c0.1-1.3,0-1.9-1.5-1.8c-1.2,0.2-2.4,0-2.3-1.7c0.1-1.6,1.2-1.9,2.3-2.2
			c2.1-0.4,4.2-0.6,6.3-0.6c1.2,0,2.4,0,2.4,1.8c-0.1,1.7-1.4,2-2.5,2c-1.1,0-1.1,0.6-1.1,1.5c-0.4,12-0.7,23.8-0.7,35.7
			c0,4.3-0.2,8.6-0.3,13c0,1.5,0,2.8,1.9,2.6c0.9-0.1,1.6,0.5,1.5,1.6c-0.1,1-0.8,1.5-1.6,1.5c-3.3,0.1-6.5,1-9.8,1.5
			c-2.4,0.5-4-0.6-5-2.7c-3.3-6.8-5.8-14-8.4-21.1c-2.2-6.1-3.9-12.5-5.7-18.8c-0.2-0.7-0.5-1.4-0.8-2.3c-0.6,2.1-0.7,3.9-0.7,5.6
			c-0.6,12-1.3,23.9-1.5,35.8c-0.1,1,0.1,1.5,1.2,1.3c0.4-0.1,0.9-0.1,1.3,0c0.7,0.1,1.3,0.5,1.3,1.4c-0.1,0.9-0.5,1.4-1.2,1.7
			c-2,0.9-4.2,1.6-6.4,1.9c-1,0.1-1.6-0.3-1.9-1.2c-0.2-1,0.1-1.9,1-2.5c0.6-0.4,0.9-0.6,0.9-1.4c-0.1-10.4,0.5-20.7,1.2-31.2
			c0.3-6,0.5-12,1.1-18c0.2-1-0.1-1.3-1-1.1c-0.4,0-0.9,0.1-1.3,0.1c-1.1-0.2-1.8-0.6-1.7-1.9c0-1.2,0.7-1.9,1.6-2.2
			c0.4-0.1,0.8-0.3,1.2-0.3c4.7,0.1,9.4-1.3,14.1-1.2c1.5,0,2.2,0.7,2.7,1.9c1.5,3.4,2.4,7.1,3.5,10.7c2,7.6,4.6,15.1,7.2,22.4
			c0.7,1.8,1.3,3.5,1.9,5.3c0.1,0,0.3,0,0.4-0.1C266,177.3,266,173.5,266,169.8z"/>
		<path d="M296.3,190.6c-5.3,4.8-10.3,4.8-14.8-0.3c-4.2-4.6-6-10.6-6.6-17.3c-0.8-10.3,0.7-20.3,5.3-30c3.6-7.3,8.4-12.9,15.4-15.4
			c8.4-2.8,16.1,3.4,17.3,10.6c0.1,0.4,0.2,1,0.2,1.5c-0.1,0.8-0.4,1.2-1,1.5c-0.6,0.2-1,0-1.4-0.6c-0.4-0.8-0.8-1.7-1.2-2.5
			c-0.8-1.8-1.7-3.6-3.1-4.7c-4.2-2.9-7.7-1.9-11.1,3.1c-2.7,4.2-4.8,8.8-5.9,13.8c-1.6,7.5-2.1,14.9-0.7,22.3
			c0.5,3.1,1.7,6,3.9,8.1c2.5,2.3,5.7,2.2,8.3-0.3c0.7-0.7,1.4-1.4,1.4-2.7c-0.1-4.4,0-8.8,0.4-13.1c0.1-1.2-0.2-1.6-1.3-1.4
			c-0.5,0-1,0.1-1.6-0.1c-0.7-0.2-1.3-0.8-1.3-1.8c0-0.9,0.3-1.6,1-2c0.5-0.3,1.2-0.5,1.7-0.6c4.9-0.6,9.9-0.9,14.9-0.8
			c0.9,0,1.8,0.3,2,1.4c0.3,1.1-0.4,1.8-1.3,2.1c-0.8,0.4-0.7,1-0.6,1.6c0.2,8.1-0.6,16-0.9,24c-0.1,1.8-0.1,3.1,2,2.5
			c1-0.2,1.9,0.3,1.9,1.7c0,1.2-0.8,1.9-1.9,2c-2.8,0.3-5.6,0.7-8.5,0.6c-2.1-0.1-4.2-0.1-6.3-0.1c-0.9,0.1-2.1,0.1-2.4-1.3
			c-0.2-1.3,0.5-1.9,1.7-2.1c0.5-0.2,0.4-0.7,0.4-1.1c0-1.8,0-3.4,0-5.1C300.3,186.4,298.5,188.7,296.3,190.6z"/>
		<path d="M349.6,136.7c0.6,0.6,1.1,1.1,1.9,0.8c0.8-0.4,1.6,0.1,1.9,0.9c0.5,0.9,0.4,1.8-0.2,2.5c-1.5,1.4-3,2.7-4.6,4
			c-0.6,0.5-1.4,0.5-1.8-0.1c-0.7-0.9-0.5-1.6,0-2.4c1.2-2,1.2-2-0.8-3.5c-4.6-3.4-10.3-1.9-12.8,3.2c-1.1,2.1-1.1,4-0.1,6
			c1,2.1,2.5,3.5,4.4,4.6c3.4,2,6.9,4.1,9.7,7.1c5,5.6,7.1,12.2,5.4,19.7c-2,9.2-9.9,13.8-17.9,12.9c-3.5-0.5-6.2-2.8-7.8-6.2
			c-0.4-1-0.7-1.2-1.6-0.5c-1,0.7-1.9,0.7-2.6-0.4c-0.6-1-0.3-2.1,0.6-2.8c1.8-1.4,3.7-3.1,5.8-4c0.7-0.3,1.5-0.6,2,0.2
			c0.5,0.8,0.2,1.6-0.4,2.3c-1.7,2.4-1.6,3.4,0.3,5.3c4.1,3.8,10.3,3,13-1.8c0.7-1.5,0.8-2.7,0.2-4.3c-1-2.9-3.2-4.7-5.5-6.2
			c-1.6-0.9-3.1-1.9-4.7-2.6c-8.2-4.1-10.5-13.9-8.8-21c1.3-5.9,3.7-11,8.5-14.5c2.5-1.9,5.3-2.9,8.8-2.9
			C345.4,132.7,347.6,134.6,349.6,136.7z"/>
	</g>
	<g>
		<g>
			<path d="M185.9,343.3c0,1.3-0.3,2.4-1,3.4c-0.6,1-1.4,1.8-2.4,2.5c-0.9,0.7-2,1.2-3.1,1.6c-1.1,0.4-2.2,0.6-3.2,0.7
				c0.9,2.6,2.4,5.2,4.4,7.5c2,2.4,3.8,4.5,5.4,6.5c2-2,3.7-4.1,5.3-6.3c1.6-2.2,2.8-4.7,3.5-7.4c0.3-1.1,0.7-1.6,1.5-1.5
				c0.7,0.1,1,0.7,0.7,1.9l-0.1,0.1c-0.8,3.1-2,5.8-3.7,8.2c-1.7,2.4-3.6,4.6-5.8,6.7c2.1,2.6,3.8,5.2,5.1,8
				c1.3,2.8,1.9,5.5,1.9,8.3c0,3.1-0.6,5.7-1.9,8c-1.2,2.3-2.8,4.1-4.6,5.6c-1.8,1.5-3.9,2.6-6.1,3.3c-2.2,0.7-4.3,1.1-6.3,1.1
				c-3.4,0-6-1.2-7.6-3.5c-1.7-2.3-2.2-5-1.7-8c0.8-3.9,2.5-7.4,5.1-10.4c2.6-3,5.4-5.8,8.2-8.3c-1.5-1.6-2.9-3.3-4.4-5
				c-1.5-1.7-2.9-3.4-4.2-5.2c-1.3-1.8-2.3-3.5-3.1-5.4c-0.8-1.8-1.2-3.7-1.2-5.6c0-1.6,0.3-3.3,0.8-4.9c0.6-1.7,1.3-3.2,2.4-4.6
				c1-1.4,2.3-2.5,3.7-3.3c1.5-0.8,3.1-1.2,4.9-1.2c2,0,3.7,0.7,5.1,2C185.2,339.6,185.9,341.3,185.9,343.3z M175.7,398.5
				c2.2,0,4.1-0.6,5.6-1.8c1.5-1.2,2.6-2.7,3.5-4.6c0.8-1.8,1.3-3.8,1.3-6c0.1-2.2-0.2-4.2-0.9-6.1c-0.4-1.2-1-2.4-1.7-3.5
				c-0.7-1.1-1.5-2.2-2.3-3.3c-1.2,1.1-2.5,2.3-3.8,3.5c-1.3,1.2-2.6,2.5-3.7,3.8c-1.2,1.4-2.2,2.8-3,4.3c-0.9,1.5-1.5,3.1-1.8,4.8
				c-0.4,2.5-0.1,4.6,1.1,6.3C171.1,397.6,173,398.5,175.7,398.5z M180.6,339.6c-0.9,0-1.7,0.3-2.4,0.8c-0.6,0.6-1.2,1.3-1.5,2.1
				c-0.4,0.9-0.7,1.7-0.8,2.6c-0.2,0.9-0.3,1.7-0.3,2.4c0,0.3,0,0.5,0.1,0.8c0,0.3,0.1,0.6,0.1,0.8h0.1c0.8,0,1.6-0.1,2.6-0.4
				c0.9-0.3,1.8-0.6,2.6-1.2c0.8-0.5,1.4-1.1,2-1.9c0.6-0.7,0.8-1.6,0.8-2.5c0-0.9-0.3-1.8-0.9-2.6
				C182.3,340,181.5,339.6,180.6,339.6z"/>
			<path d="M201.7,363.7c-0.2,2.9,0.3,5.4,1.5,7.6c1.2,2.1,3.2,3.2,6,3.2c2.5,0,4.8-0.9,6.9-2.6c2.1-1.7,3.9-3.8,5.5-6.2
				c1.6-2.4,2.9-4.9,4-7.4c1.1-2.6,1.9-4.7,2.3-6.5c0.3-1.1,0.8-1.6,1.5-1.5c0.8,0.1,1,0.7,0.6,1.9v0.1c-0.5,2.2-1.4,4.8-2.6,7.6
				c-1.2,2.9-2.7,5.6-4.5,8.1c-1.8,2.6-3.8,4.7-6.2,6.5c-2.3,1.8-4.9,2.7-7.7,2.7c-4.5,0-8-1.2-10.4-3.5c-2.4-2.4-4-5.3-4.7-8.8
				c-0.8-3.5-0.8-7.3-0.1-11.3c0.7-4.1,2-7.8,3.8-11.3c1.8-3.5,4.1-6.4,6.8-8.8c2.7-2.4,5.6-3.5,8.8-3.5c2.9,0,5,0.9,6.4,2.6
				c1.4,1.7,2.1,3.8,2.3,6.4c0.2,2.6-0.2,5.4-1.1,8.4c-0.9,3-2.1,5.8-3.7,8.4c-1.6,2.6-3.4,4.7-5.5,6.4c-2.1,1.7-4.3,2.6-6.6,2.6
				C204.1,364.7,202.9,364.4,201.7,363.7z M210.4,338.1c-1,1.2-2,2.7-2.9,4.4c-0.9,1.7-1.8,3.6-2.5,5.7c-0.7,2-1.3,4.2-1.9,6.4
				c-0.5,2.2-0.9,4.4-1.2,6.5c0.9,0.9,2.1,1.4,3.3,1.4c1.6,0,3.1-0.7,4.6-2c1.4-1.4,2.7-3.1,3.8-5.1c1.1-2,2-4.2,2.7-6.6
				c0.7-2.3,1.1-4.5,1.3-6.6c0.2-2,0.1-3.7-0.3-5.1c-0.4-1.4-1.1-2-2.1-2C213.7,335,212.1,336,210.4,338.1z"/>
			<path d="M250.1,336.7c0,1.1-0.4,1.6-1.2,1.5c-0.8-0.1-1.2-0.6-1.2-1.5c0-0.6-0.2-1.1-0.5-1.5c-0.3-0.4-0.8-0.6-1.4-0.6
				c-1.9,0-3.6,0.9-5.1,2.8c-1.5,1.9-2.8,4.2-3.9,7.1c-1.1,2.8-2,5.9-2.6,9.1c-0.6,3.3-0.9,6.3-0.9,9.1c0,2.8,0.4,5.2,1.1,7.1
				c0.7,1.9,1.8,2.8,3.3,2.8c1,0,2.1-1.2,3.3-3.5c1.2-2.3,2.3-5,3.3-8.2c1-3.2,1.9-6.4,2.6-9.6c0.7-3.2,1.1-5.8,1.1-7.7
				c0-1.2,0.3-2.1,0.9-2.8c0.6-0.6,1.3-1,2.2-1c2.2,0,3.5,1,3.9,3.1c0.4,2.1,0.4,4.6,0,7.5c-0.4,2.9-0.9,5.9-1.5,8.9
				c-0.6,3-0.9,5.5-0.7,7.4c0.3,1.8,0.9,2.7,1.9,2.7c1.2,0,2.3-0.8,3.3-2.4c1-1.6,1.8-3.5,2.6-5.5c0.7-2.1,1.3-4,1.7-5.9
				c0.4-1.9,0.7-3.1,0.8-3.7c0.2-1.1,0.6-1.6,1.3-1.5c0.7,0.1,1,0.7,0.8,1.8c-0.1,0.7-0.3,1.7-0.6,3c-0.3,1.3-0.7,2.8-1.2,4.3
				c-0.5,1.5-1,3.1-1.7,4.7c-0.7,1.6-1.4,3.1-2.2,4.4c-1.5,2.7-3.4,4-5.9,4c-1.5,0-2.8-0.4-3.8-1.2c-1-0.8-1.7-1.9-2.2-3.1
				c-0.5-1.3-0.8-2.7-1-4.2s-0.1-2.9,0.1-4.3c-0.4,1.5-1,3.3-1.8,5.3c-0.8,2-1.7,3.9-2.8,5.7c-1.1,1.8-2.3,3.3-3.7,4.6
				c-1.4,1.3-2.9,1.9-4.5,1.9c-2.9,0-5.2-1.2-6.7-3.5c-1.6-2.4-2.6-5.3-3-8.8c-0.4-3.5-0.3-7.3,0.3-11.3c0.6-4.1,1.8-7.8,3.5-11.3
				c1.7-3.5,3.8-6.4,6.4-8.8c2.6-2.4,5.6-3.5,9-3.5c1.8,0,3.3,0.6,4.6,1.7C249.4,332.8,250.1,334.5,250.1,336.7z"/>
		</g>
	</g>
	<g>
		<path d="M67.6,131.7c0-4.3,3-6.5,6.3-5.4c1.2,0.4,2.3,1.4,3.4,2.1c2.8,1.6,5.4,3.8,8.3,4.8c14,4.9,28.3,9.2,43.3,8.9
			c10.2-0.2,20.4-1.6,30.5-3c33.8-4.5,66.5-13.9,99.1-23.5c20.7-6.1,42-9.3,63.7-9.1c12.7,0.2,23.2,5.7,32.6,13.7
			c1.1,0.9,2.3,2.1,2.6,3.3c0.4,1.5,0.2,3.4-0.5,4.7c-1,1.7-3,1.9-4.8,1c-1-0.5-2-1.2-2.9-1.9c-9.2-8.2-19.9-12.1-32.2-11.9
			c-22.1,0.3-43.5,4.1-64.5,10.9c-25.3,8.2-50.8,15.7-76.9,20.4c-13.6,2.4-27.3,4.2-41.1,5.4c-19.3,1.7-37.9-1.9-55.8-9.2
			c-3.8-1.6-7.1-3.9-9.3-7.4C68.5,134.1,68,132.5,67.6,131.7z"/>
		<path d="M73.3,216.5c0.8,0.5,2.4,1.3,3.9,2.2c2.9,1.7,5.6,4,8.8,5.1c16.3,5.6,32.8,10.1,50.3,8.7c10.4-0.8,20.8-2,30.9-4
			c17.8-3.5,35.4-7.5,53-11.7c11.8-2.8,23.4-6.4,35-9.7c22.1-6.4,44.6-10.3,67.6-9.9c12.6,0.2,23,5.8,32.2,13.8
			c3.3,2.8,3.8,5.8,1.9,7.9c-1.9,2.1-4.6,1.8-8-1.2c-9.1-8.1-19.8-11.9-32-11.7c-23.2,0.3-45.5,4.7-67.6,11.8
			c-24.2,7.8-48.7,15-73.9,19.4c-13.6,2.4-27.3,4.2-41.1,5.4c-19.3,1.7-37.9-1.9-55.8-9.2c-3.9-1.6-7.3-4-9.5-7.7
			c-0.9-1.5-1.4-3.3-1.5-5C67.7,218.2,69.9,216.4,73.3,216.5z"/>
	</g>
	<g>
		<path d="M101.4,277.3c2,0.3,3.4,0.5,4.9,0.8c6,1,11.6,3.1,16.2,7.2c2.6,2.3,4.7,4.9,5.6,8.2c0.1,0.5,0.3,1,0.3,1.5
			c0.1,1.2-1.1,2.2-2.2,1.8c-0.8-0.3-1.7-0.6-2.3-1.1c-3.6-3.2-7.9-5.2-12.2-7.2c-2.7-1.3-5.4-2.7-8.1-3.8c-2.2-0.9-4.5-1.5-6.7-2.3
			c-2.7-1-5.1-0.5-7.6,0.6c-5.8,2.5-10.9,6.1-15.4,10.5c-1.9,1.8-3.6,3.8-5.5,5.6c-1.2,1.2-2.2,1.4-2.9,0.7c-0.9-0.9-0.4-1.8,0-2.7
			c2.8-6.5,6.8-11.9,12.7-15.8c2.9-2,6-3.6,9.6-4.1c0.3,0,0.6-0.3,1.1-0.5c-0.1-0.5-0.1-1-0.4-1.4c-2.6-4.8-5.7-9.1-10.3-12.1
			c-3.7-2.5-7.3-5.2-11.6-6.8c-0.3-0.1-0.6-0.4-0.9-0.7c-0.6-0.6-0.3-2,0.5-2.2c0.7-0.2,1.5-0.3,2.2-0.2c2.7,0.1,5.2,1,7.5,2.2
			c5.3,2.8,10.1,6.5,14.1,11c1,1.1,1.7,2.5,2.6,3.7c0.3,0.4,0.6,0.7,1.2,1.2c0.5-1.3,0.8-2.4,1.3-3.4c1.3-2.8,2.4-5.8,4-8.4
			c3.3-5.8,8.4-9.9,14.6-12.3c1.2-0.5,2.6-0.7,4-0.9c0.7-0.1,1.6,0.3,1.7,1.1c0.1,0.5,0,1.2-0.3,1.7c-0.4,0.6-1,1.1-1.5,1.7
			c-3,3.3-6.1,6.6-9.1,9.9c-2.7,3-4.8,6.3-6.7,9.8c0.8,0.8,1.3,0.2,1.7-0.1c5.6-3.8,11.9-5,18.4-5.5c1.2-0.1,2.5,0.2,3.6,0.5
			c1,0.3,1.2,1.8,0.3,2.4c-0.9,0.6-2,1.1-3,1.4c-3.2,1-6.5,1.9-9.7,2.9c-3.3,1-6.7,2.1-9.7,3.8C102.6,276.2,102.2,276.7,101.4,277.3
			z"/>
		<path d="M93.5,320.2c0.8,2.7,1.5,5.1,2.3,7.8c-3.6,1.3-7.3,1.8-10.9,2.5c-1.3-2.5-1.5-5.1-2-7.5C85,321.7,89.5,320.5,93.5,320.2z"
			/>
		<path d="M96.6,330.5c1.2,2.6,2.1,4.8,2.7,7.3c-3.7,1.2-7.4,1.1-10.9,2c-1.5-2.1-2.2-4.3-2.7-6.5c1.5-1.4,3.5-1.2,5.2-1.7
			C92.6,331.1,94.4,330.9,96.6,330.5z"/>
		<path d="M82.7,319.9c-0.6-3.2-0.4-6.1,0.1-9.3c3.2-0.4,6.2-0.2,9.3,0.4c0.3,2.2,0.5,4.1,0.8,6C90.8,318.4,88.3,319.1,82.7,319.9z"
			/>
		<path d="M93.1,298.3c0,3.5-0.7,6.6-0.8,9.8c-3,0.6-5.9-0.2-8.9-0.1c-0.4-2.7,0.4-4.9,1.1-7.2C87,299.5,89.8,299.2,93.1,298.3z"/>
		<path d="M89.4,342c3.8-0.9,7.3-1.3,11-1.7c0.5,1.3,1,2.3,1.3,3.3c0.4,1.1-0.1,2-1.2,2.4c-0.6,0.2-1.2,0.3-1.8,0.4
			c-1,0.1-2,0.1-3,0.1C92.1,346.7,91.5,347.1,89.4,342z"/>
		<path d="M93.5,295.9c-2.4,0.6-4.9,1.2-7.4,1.8c-0.1-2.5-0.1-2.7,2.1-6.5c2.1-0.6,4.5-0.4,6.7-0.9C95,292.7,95,292.8,93.5,295.9z"
			/>
		<path d="M89.6,288.6c0.5-1.1,0.9-1.7,1.1-2.4c0.9-2.7,3-3,5.4-2.9c1.2,0.1,1.9,0.8,1.6,2c-0.2,0.8-0.5,1.6-0.8,2.5
			C94.6,288.4,92.4,288.6,89.6,288.6z"/>
	</g>
	<path d="M311.4,394.8c-5.4,3.4-11.4,6.4-18.8,5.4c-7.2-1-12.8-4.8-18-9.9c-2,1.2-4,2.2-5.7,3.4c-9.7,6.7-19.3,6.2-29-0.1
		c-1-0.7-2-1.3-3.1-1.9c-3.4,1.1-5.7,3.3-8.3,5.2c-10.3,7.3-21.4,3.8-28.3-4.3c-1.2-1.5-2.1-3.3-2.8-5.2c-0.6-1.6,0.4-3.4,2-4.4
		c1.5-0.9,2.9-0.5,4.1,0.4c1.2,0.9,2.1,2.1,3.2,3.1c1.6,1.5,3.2,3.1,4.9,4.4c4.6,3.5,9.4,4.1,14.4,0.7c2.4-1.7,4.9-3.3,7.1-5.3
		c2.8-2.4,5.7-2.6,8.9-0.9c2,1,3.8,2.3,5.8,3.3c6.2,3.2,12.3,3.2,18.2-0.9c2.2-1.5,4.4-3.1,6.7-4.6c3.2-2.1,4.9-2,8,0.4
		c1.4,1,2.6,2.3,4,3.3c7.8,5.1,15.9,6.3,24.4,1.6c0.9-0.5,1.7-1.1,2.5-1.6c2.6-1.5,5.5-1.5,7.5,0.6c5,5.3,11.4,5.2,17.8,4.9
		c6.2-0.3,12.2-1.5,17.8-4.4c0.9-0.4,1.8-1,2.7-1c0.9,0,2,0.5,2.5,1.2c0.5,0.7,0.7,2.1,0.3,2.7c-1.3,1.7-2.7,3.7-4.6,4.6
		c-8.2,4.1-16.7,7.3-26.1,7.2c-5.9,0-11.2-1.6-15.2-6.3c-0.5-0.6-1.1-1-1.6-1.5C312.7,395,312.4,395,311.4,394.8z"/>
	<path d="M124.4,383.1c-1.2,1-2.3,1.8-3.2,2.8c-5.7,5.9-16.8,5.7-21.6-0.4c-0.3-0.4-0.9-0.7-1.5-1.3c-2.7,0.1-4.8,1.8-7.1,3.1
		c-3.8,2.1-7.8,3.2-12.1,2.6c-6.4-0.9-11-4.2-13.3-10.3c-0.2-0.5-0.5-1.2-0.4-1.6c0.2-0.9,0.6-1.9,1.2-2.4c0.6-0.5,1.9-0.6,2.6-0.3
		c1,0.4,1.9,1.3,2.6,2.1c5.6,6.1,12.3,7.2,19.8,4.3c1.2-0.5,2.5-0.9,3.7-1.6c3-1.7,5.8-1.7,8.6,0.4c2.2,1.6,4.7,2.4,7.5,2.4
		c2.8,0,5.3-0.5,7.6-2.1c0.9-0.7,1.9-1.2,2.8-1.9c2.6-2.1,5.2-2,7.9-0.3c0.8,0.5,1.7,0.9,2.5,1.4c5.1,3.5,10.8,3.7,16.6,2.5
		c4.1-0.9,8.3-1.6,12-3.7c0.6-0.4,1.9-0.2,2.6,0.2c1.1,0.7,1.1,2.1,0.4,3.1c-0.6,0.9-1.4,2-2.3,2.4c-5.9,2.8-11.8,5.4-18.5,5.5
		c-5.6,0.1-10.6-1.3-15.1-4.6C126.7,384.8,125.8,384.1,124.4,383.1z"/>
	<path d="M121.7,358.5c-2.9,1.1-5.7,2.2-8.4,3.3c-4.1,1.7-8.3,2.5-12.7,1.9c-4-0.5-7.8-1.8-10.3-5.1c-0.9-1.1-1.5-2.6-1.9-4
		c-0.3-1.1,0.2-2.4,1.4-2.8c0.8-0.3,1.8-0.2,2.7,0c0.7,0.2,1.2,0.8,1.8,1.3c6.7,5.2,14,6,21.8,3c1.2-0.5,2.5-1,3.6-1.7
		c2.7-1.7,5.3-1.5,7.9,0.3c4.3,2.9,9.2,3.5,14.1,2.9c6.7-0.7,13.5-1.4,19.7-4.6c0.9-0.5,1.9-0.4,2.6,0.4c0.9,1,1,2.2,0.2,3.1
		c-1.1,1.2-2.4,2.6-3.8,3.1c-4.7,1.9-9.5,3.8-14.4,5C136.6,367.2,129.7,365.3,121.7,358.5z"/>
	<path d="M313,366.3c-7.1,4.5-14.2,6.4-22,5.4c-5.9-0.8-11.2-2.8-15.8-6.7c-2.5-2.1-4.4-4.7-4.3-8.2c0-1.8,0.6-3.7,2.5-4.1
		c1.2-0.2,3.1,0.4,3.7,1.3c3.1,4.4,7.8,5.8,12.5,7.2c6.4,1.9,12.6,1.8,18.6-1.5c3.8-2.1,7.5-2.2,11.7-0.8c5,1.6,10.2,1.8,15.5,0.8
		c6.5-1.3,13.1-2.3,19.7-3.5c2-0.4,3.5,0.2,4.3,2c0.9,1.9-0.1,3.4-1.5,4.6c-1.1,0.9-2.3,1.8-3.7,2.3c-8,2.6-16.1,5-24.6,4.9
		C324,370.1,318.7,368.8,313,366.3z"/>
	<g>
		<path d="M339.9,223c1,0.6,1.8,1.1,2.6,1.4c0.9,0.3,1.3,0.9,1.5,1.7c0.4,1.9,0.9,3.7,1.2,5.6c1.4,9,0.4,17.7-2.7,26.2
			c-1.2,3.3-3.2,6.3-5.4,8.9c-0.2,0.1-0.4,0.2-0.5,0.2c-5.5-0.2-10.6-1.5-15.1-4.7c-1.4-0.9-2.5-2.2-3.8-3.3c-0.9-0.7-1.1-1.6-1-2.8
			c0.4-3.6,1-7.1,2.7-10.4c3.4-6.9,7.8-13,13.7-18c1.7-1.4,3.4-2.6,5.1-3.9C338.7,223.7,339.3,223.4,339.9,223z"/>
		<path d="M348.5,222.8c2,1.2,4.7,4,6.4,6.4c1.4,2,2.5,4.1,3.3,6.3c1.6,4.3,1.6,8.6,0.3,13c-1.6,5.6-4.6,10.3-9.2,14
			c-2.2,1.8-4.6,3.1-7.3,3.9c-0.8,0.2-1.7,0.5-2.7,0.4c0.2-0.4,0.3-0.7,0.4-1c3.6-4.8,5.4-10.3,6.5-16.1c1.5-8,1.2-15.9-0.8-23.7
			c-0.1-0.4-0.1-0.8-0.1-1.1C346.4,224.2,347.4,223.5,348.5,222.8z"/>
		<path d="M339.1,219c0.1,0.8,0.2,1.6,0.2,2.5c-0.4,0.3-0.7,0.6-1.1,0.8c-7.5,4.9-13.6,11.1-18,18.9c-0.5,0.8-1,1.7-1.4,2.5
			c-1.7,3-2.8,6.2-3.3,9.7c-0.1,0.6-0.2,1.2-0.4,2.1c-0.4-0.4-0.7-0.7-0.9-1c-4.5-8.7-4.6-17.3,1.2-25.6c0.8-1.2,1.8-2.3,2.7-3.4
			c3.5-4.1,8-6.2,13.3-7c2.2-0.3,4.5-0.5,6.7,0C338.4,218.8,338.7,218.9,339.1,219z"/>
		<path d="M347,221.8c-1.1,1.2-2.2,2-3.8,1.4c-1.6-0.5-2.5-1.6-2.6-3.3c0.3-0.1,0.5-0.3,0.7-0.2C343.3,220.3,345.3,220.5,347,221.8z
			"/>
	</g>
	<g>
		<path d="M69.6,111.5c1.5-1.6,3-2,4.4-2.5c4-1.2,8.1-1.6,12.2-1.8c3.8-0.2,7.6,0.1,11.4,0.6c9.1,1.3,17.9,3.5,26.2,7.6
			c2,1,3.9,2.1,5.7,3.4c1,0.7,1.9,1.5,2.6,2.4c1.5,1.7,1.9,3.7,1,6.1c-0.7-0.1-1.3,0-2-0.2c-4.2-1-8.4-2.1-12.6-3.2
			c-12.1-3.1-24.1-6.2-36.2-9.3c-3.4-0.9-6.8-1.7-10.3-2.5C71.5,112,70.8,111.8,69.6,111.5z"/>
		<path d="M69.7,114.2c0.7,0.1,1.1,0,1.5,0.1c20.2,5.1,40.3,10.2,60.5,15.4c0.3,0.1,0.5,0.3,0.8,0.6c-0.1,0.6-0.2,1.1-0.3,1.7
			c-0.2,1.5-1.2,2.1-2.6,2.4c-6.7,1.4-13.3,1.4-20.1,0.6c-6.9-0.8-13.6-2.6-20-5.2c-6.6-2.8-12.8-6.4-17.6-11.9
			C71,116.9,70.1,116,69.7,114.2z"/>
	</g>
	<path d="M105.5,324.1c1.2,0.1,2.4,0.2,3.6,0.6c1.2,0.4,2.5,0.5,3.7,0.4c1.2,0,2.2-0.6,2.6-1.8c0.4-1.1,0.6-2.2,0.9-3.3
		c0.3-1.1,0.5-2.3,0.9-3.4c0.2-0.4,0.4-0.8,0.6-1.2c0.3-0.3,0.6-0.7,1-0.9c0.8-0.5,1.7-0.2,2.2,0.6c0.4,0.6,0.6,1.3,0.7,2
		c0.1,1,0.2,2,0.3,3c0.1,0.8,0.2,1.5,0.3,2.3c0.1,0.4,0.2,0.9,0.4,1.3c0.3,0.7,0.8,1.2,1.5,1.4c0.7,0.2,1.5,0.4,2.2,0.5
		c0.9,0.1,1.9,0,2.8-0.1c1.5-0.1,3-0.2,4.4,0.1c0.6,0.1,1.1,0.3,1.6,0.7c0.6,0.6,0.7,1.3,0.2,2c-0.3,0.4-0.7,0.7-1,1.1
		c-1.3,1.1-2.9,1.7-4.5,2.4c-0.4,0.2-0.9,0.4-1.4,0.6c-0.4,0.2-0.8,0.4-1.2,0.7c-0.9,0.7-1.4,1.7-0.9,2.8c0.4,1,0.8,1.9,1.2,2.9
		c0.5,1.1,1.1,2.3,1.4,3.5c0.1,0.5,0.2,1,0.3,1.5c0,0.3,0,0.5,0,0.8c-0.2,2-1.6,2.8-3.3,1.9c-1.3-0.6-2.3-1.6-3.2-2.7
		c-1-1.2-2.1-2.4-3.1-3.6c-0.3-0.4-0.7-0.7-1.1-1c-0.6-0.4-1.3-0.4-1.9,0.1c-0.3,0.3-0.6,0.5-0.9,0.8c-1.1,1.2-2.1,2.4-3.2,3.7
		c-0.5,0.5-1,1.1-1.5,1.6c-0.6,0.5-1.2,0.9-2,1.1c-1.2,0.3-2-0.2-2.4-1.4c-0.2-0.6-0.2-1.2-0.1-1.9c0.3-1.4,0.9-2.6,1.6-3.8
		c0.4-0.6,0.8-1.2,1.2-1.8c0.2-0.4,0.5-0.8,0.6-1.2c0.6-1.4,0.5-2.7-0.6-3.9c-1.2-1.3-2.5-2.3-4.1-3.1c-0.8-0.4-1.5-0.8-2.2-1.3
		c-0.4-0.3-0.8-0.7-1.1-1.2c-0.5-0.8-0.3-1.5,0.5-2.1C103.5,324.2,104.5,324.1,105.5,324.1z M114.9,336c0.4,0,0.7-0.3,0.7-0.7
		c0-0.4-0.3-0.6-0.7-0.7c-0.4,0-0.7,0.3-0.7,0.7C114.2,335.7,114.5,336,114.9,336z M121.6,336.1c0-0.3-0.4-0.7-0.7-0.6
		c-0.4,0-0.6,0.4-0.6,0.7c0.1,0.4,0.4,0.6,0.7,0.6C121.4,336.7,121.6,336.3,121.6,336.1z M126.9,343.2c-0.4,0-0.7,0.3-0.7,0.7
		c0,0.4,0.4,0.7,0.7,0.6c0.4,0,0.6-0.4,0.6-0.8C127.5,343.4,127.2,343.1,126.9,343.2z M109.9,343.4c0-0.4-0.3-0.8-0.7-0.8
		c-0.3,0-0.6,0.3-0.6,0.6c0,0.4,0.3,0.8,0.7,0.8C109.6,344,109.9,343.7,109.9,343.4z M112.7,339.9c0-0.3-0.3-0.7-0.7-0.7
		c-0.4,0-0.7,0.3-0.6,0.7c0,0.4,0.4,0.7,0.7,0.6C112.4,340.5,112.7,340.2,112.7,339.9z M113.4,329.2c-0.4,0-0.7,0.3-0.7,0.7
		c0,0.3,0.4,0.6,0.7,0.6c0.3,0,0.6-0.3,0.6-0.6C114.1,329.5,113.8,329.2,113.4,329.2z M118.2,327.2c0.4,0,0.7-0.3,0.7-0.6
		c0-0.3-0.3-0.6-0.6-0.6c-0.3,0-0.6,0.2-0.7,0.5C117.5,326.8,117.8,327.2,118.2,327.2z M123.8,330.7c0.4,0,0.7-0.3,0.7-0.7
		c0-0.3-0.3-0.6-0.6-0.6c-0.3,0-0.6,0.2-0.7,0.5C123.2,330.3,123.5,330.7,123.8,330.7z M109.7,327.7c-0.3,0-0.6,0.3-0.5,0.7
		c0,0.4,0.4,0.7,0.7,0.7c0.4,0,0.7-0.4,0.6-0.7C110.5,327.9,110.1,327.7,109.7,327.7z M105.9,326.2c-0.3,0-0.6,0.3-0.6,0.6
		c0,0.4,0.3,0.7,0.7,0.7c0.4,0,0.7-0.3,0.6-0.7C106.6,326.5,106.3,326.2,105.9,326.2z M118.1,331.6c0.4,0,0.7-0.3,0.7-0.6
		c0-0.4-0.3-0.7-0.7-0.7c-0.4,0-0.6,0.3-0.6,0.7C117.6,331.3,117.8,331.6,118.1,331.6z M119.1,322.6c0-0.4-0.3-0.7-0.7-0.6
		c-0.3,0-0.6,0.3-0.6,0.6c0,0.3,0.2,0.6,0.5,0.6C118.8,323.3,119.1,323,119.1,322.6z M133.3,327.7c0-0.3-0.3-0.6-0.6-0.5
		c-0.4,0-0.6,0.4-0.6,0.7c0.1,0.3,0.3,0.5,0.7,0.5C133.2,328.3,133.4,328,133.3,327.7z M124.4,339.5c0-0.4-0.3-0.7-0.7-0.6
		c-0.3,0-0.5,0.3-0.5,0.6c0,0.4,0.3,0.7,0.6,0.7C124.2,340.2,124.4,339.9,124.4,339.5z M128.9,329.1c0-0.3-0.3-0.5-0.5-0.4
		c-0.2,0-0.4,0.2-0.4,0.4c0,0.3,0.2,0.5,0.5,0.5C128.6,329.6,128.9,329.4,128.9,329.1z M119,317.3c-0.2,0.3-0.4,0.4-0.4,0.6
		c-0.1,0.2,0.1,0.4,0.4,0.4c0.3,0,0.5-0.2,0.4-0.4C119.4,317.7,119.2,317.5,119,317.3z"/>
	<path d="M101,300.1c0.6,0,1.2,0.1,1.8,0.3c0.6,0.2,1.2,0.2,1.9,0.2c0.6,0,1.1-0.3,1.3-0.9c0.2-0.5,0.3-1.1,0.4-1.6
		c0.1-0.6,0.2-1.2,0.5-1.7c0.1-0.2,0.2-0.4,0.3-0.6c0.1-0.2,0.3-0.3,0.5-0.5c0.4-0.2,0.9-0.1,1.1,0.3c0.2,0.3,0.3,0.7,0.3,1
		c0.1,0.5,0.1,1,0.1,1.5c0,0.4,0.1,0.8,0.2,1.1c0,0.2,0.1,0.4,0.2,0.6c0.1,0.4,0.4,0.6,0.8,0.7c0.4,0.1,0.7,0.2,1.1,0.2
		c0.5,0,1,0,1.4-0.1c0.8-0.1,1.5-0.1,2.2,0.1c0.3,0.1,0.6,0.2,0.8,0.4c0.3,0.3,0.3,0.6,0.1,1c-0.1,0.2-0.3,0.4-0.5,0.5
		c-0.7,0.5-1.5,0.9-2.3,1.2c-0.2,0.1-0.5,0.2-0.7,0.3c-0.2,0.1-0.4,0.2-0.6,0.4c-0.5,0.4-0.7,0.8-0.5,1.4c0.2,0.5,0.4,1,0.6,1.4
		c0.3,0.6,0.6,1.1,0.7,1.8c0.1,0.2,0.1,0.5,0.1,0.7c0,0.1,0,0.3,0,0.4c-0.1,1-0.8,1.4-1.7,1c-0.6-0.3-1.1-0.8-1.6-1.3
		c-0.5-0.6-1-1.2-1.6-1.8c-0.2-0.2-0.3-0.4-0.6-0.5c-0.3-0.2-0.6-0.2-0.9,0c-0.2,0.1-0.3,0.3-0.4,0.4c-0.5,0.6-1.1,1.2-1.6,1.8
		c-0.2,0.3-0.5,0.5-0.7,0.8c-0.3,0.3-0.6,0.5-1,0.5c-0.6,0.1-1-0.1-1.2-0.7c-0.1-0.3-0.1-0.6-0.1-0.9c0.2-0.7,0.5-1.3,0.8-1.9
		c0.2-0.3,0.4-0.6,0.6-0.9c0.1-0.2,0.2-0.4,0.3-0.6c0.3-0.7,0.2-1.4-0.3-2c-0.6-0.6-1.3-1.2-2-1.6c-0.4-0.2-0.8-0.4-1.1-0.7
		c-0.2-0.2-0.4-0.4-0.5-0.6c-0.3-0.4-0.2-0.8,0.3-1.1C100,300.2,100.5,300.1,101,300.1z M105.8,306.1c0.2,0,0.3-0.2,0.3-0.3
		c0-0.2-0.2-0.3-0.4-0.3c-0.2,0-0.4,0.2-0.3,0.3C105.4,306,105.6,306.1,105.8,306.1z M109.2,306.1c0-0.2-0.2-0.3-0.4-0.3
		c-0.2,0-0.3,0.2-0.3,0.4c0,0.2,0.2,0.3,0.4,0.3C109.1,306.4,109.2,306.3,109.2,306.1z M111.9,309.7c-0.2,0-0.3,0.2-0.3,0.4
		c0,0.2,0.2,0.3,0.4,0.3c0.2,0,0.3-0.2,0.3-0.4C112.2,309.9,112,309.7,111.9,309.7z M103.3,309.9c0-0.2-0.2-0.4-0.4-0.4
		c-0.2,0-0.3,0.1-0.3,0.3c0,0.2,0.2,0.4,0.4,0.4C103.1,310.2,103.2,310,103.3,309.9z M104.7,308.1c0-0.2-0.2-0.3-0.3-0.3
		c-0.2,0-0.3,0.2-0.3,0.4c0,0.2,0.2,0.3,0.4,0.3C104.5,308.4,104.7,308.2,104.7,308.1z M105,302.7c-0.2,0-0.3,0.2-0.3,0.3
		c0,0.2,0.2,0.3,0.4,0.3c0.2,0,0.3-0.1,0.3-0.3C105.4,302.8,105.2,302.7,105,302.7z M107.4,301.7c0.2,0,0.4-0.1,0.4-0.3
		c0-0.1-0.1-0.3-0.3-0.3c-0.2,0-0.3,0.1-0.3,0.3C107.1,301.5,107.3,301.7,107.4,301.7z M110.3,303.4c0.2,0,0.4-0.2,0.4-0.3
		c0-0.2-0.1-0.3-0.3-0.3c-0.2,0-0.3,0.1-0.3,0.3C110,303.3,110.1,303.4,110.3,303.4z M103.2,301.9c-0.2,0-0.3,0.2-0.3,0.3
		c0,0.2,0.2,0.3,0.4,0.3c0.2,0,0.3-0.2,0.3-0.4C103.5,302,103.4,301.9,103.2,301.9z M101.3,301.2c-0.1,0-0.3,0.2-0.3,0.3
		c0,0.2,0.1,0.3,0.3,0.3c0.2,0,0.3-0.2,0.3-0.3C101.6,301.3,101.4,301.2,101.3,301.2z M107.4,303.9c0.2,0,0.3-0.1,0.4-0.3
		c0-0.2-0.2-0.3-0.3-0.3c-0.2,0-0.3,0.2-0.3,0.4C107.1,303.7,107.3,303.9,107.4,303.9z M107.9,299.4c0-0.2-0.2-0.3-0.3-0.3
		c-0.2,0-0.3,0.2-0.3,0.3c0,0.2,0.1,0.3,0.3,0.3C107.7,299.7,107.9,299.6,107.9,299.4z M115.1,301.9c0-0.2-0.1-0.3-0.3-0.3
		c-0.2,0-0.3,0.2-0.3,0.4c0,0.2,0.2,0.3,0.3,0.2C115,302.2,115.1,302.1,115.1,301.9z M110.6,307.9c0-0.2-0.2-0.3-0.3-0.3
		c-0.2,0-0.3,0.2-0.3,0.3c0,0.2,0.1,0.4,0.3,0.3C110.5,308.2,110.6,308.1,110.6,307.9z M112.8,302.6c0-0.1-0.1-0.2-0.3-0.2
		c-0.1,0-0.2,0.1-0.2,0.2c0,0.1,0.1,0.3,0.2,0.3C112.7,302.9,112.8,302.8,112.8,302.6z M107.9,296.6c-0.1,0.1-0.2,0.2-0.2,0.3
		c0,0.1,0.1,0.2,0.2,0.2c0.1,0,0.2-0.1,0.2-0.2C108,296.9,108,296.8,107.9,296.6z"/>
	<g>
		<path d="M197.7,105.4c-0.1-0.2-0.6-0.2-0.8-0.2c-1,0.5-1.8,1.1-2.4,2.1c0.3,0.2,0.4,0.4,0.6,0.4c1.1-0.1,2-0.6,2.7-1.6
			C197.9,106,197.8,105.5,197.7,105.4z"/>
		<path d="M190.3,104.4c0.4-1.2,0.6-2.1,0.4-3.2c-0.1-0.2-0.4-0.5-0.6-0.5c-0.2,0-0.6,0.3-0.6,0.5c-0.2,0.9-0.3,1.8,0.2,2.7
			C189.6,104.1,189.9,104.2,190.3,104.4z"/>
		<path d="M183.6,104.9c0.1,0,0.2-0.3,0.3-0.6c-0.3-0.9-0.6-1.9-1.1-2.8c-0.1-0.2-0.6-0.4-0.9-0.4c-0.4,0-0.6,0.4-0.5,0.8
			c0.2,1.1,0.7,2,1.4,2.8C183,105,183.4,105,183.6,104.9z"/>
		<path d="M179.2,108.6c0.1,0.1,0.4-0.2,0.6-0.4c-0.2-1.1-1.4-2-2.3-1.7c-0.4,0.1-0.7,0.8-0.4,1C177.8,108,178.5,108.3,179.2,108.6z
			"/>
		<path d="M196.5,121c0.3-1.5,0.3-2.8-0.2-4.1c-0.5-1.4-1.8-2.2-2.8-3.1c0-0.7,0.1-1.3-0.1-1.9c-0.5-2.4-1.8-4.1-4.2-4.8
			c-2.9-0.9-6,0.4-7.4,3c-0.4,0.6-0.6,1.3-0.9,1.9c-0.9,0.4-1.7,0.7-2.4,1.2c-0.7,0.4-1.3,1-2,1.5c-0.5-0.3-0.8-0.6-1.2-0.8
			c-1.2-0.8-2.5-0.9-4-0.6c-2.5,0.7-4.3,2.8-4.6,5.5c-0.1,0.8,0.1,1.6-0.2,2.4c-0.5-0.1-1-0.2-1.5-0.3c-3.5-0.6-5.9,1-7,4.6
			c-0.8,2.6,0.8,4.8,3.4,5.1c0.4,0,0.7,0.1,1.1,0.1c0.2,0.5,0.3,0.9,0.4,1.3c1,3.1,3.8,4.5,6.9,3.6c1-0.3,1.8-0.8,2.6-1.5
			c0.5-0.4,0.9-0.9,1.4-1.4c0.4,0.2,0.7,0.3,1,0.6c2,1.4,4.1,1.4,6.1,0.4c1.2-0.6,2.4-1.3,3.6-2.1c0.5-0.3,1-0.8,1.7-1.3
			c0.7,0.5,1.3,0.9,1.9,1.3c0.9,0.6,1.8,0.9,2.9,0.8c3.1-0.4,5.5-1.9,6.8-4.7c0.9-1.9,0.9-3.9-0.6-5.7
			C197,121.6,196.7,121.3,196.5,121z M182.6,110.9c1.4-2.3,4.7-3.2,7-1.9c1.7,0.9,2.3,2.4,2.2,4.4c-1.8-0.1-3.5,0.1-5.1,1.1
			c-1.3-1-2.5-2.2-4.4-2.4C182.4,111.4,182.4,111.1,182.6,110.9z"/>
	</g>
	<g>
		<path d="M245.9,114.6c-2.9,0.4-5.7,0.8-8.6,1.2c-4.8,0.7-9.2,2.4-13.3,4.9c-2.7,1.6-5.3,3.2-8,4.8c-0.1,0.1-0.2,0.1-0.2,0.2
			c-0.4,0-0.8,0.1-1.2,0.1c0.2-0.3,0.2-0.7,0.5-1c4.8-4.7,10-8.8,15.6-12.5c2.5-1.6,5.3-2.6,8-3.9c2.4-1.1,5-1.7,7.6-1.7
			c0.1,0,0.1,0,0.2,0c1.5,0.1,3,0.4,3.7,1.9c0.7,1.5-0.2,2.6-1,3.7C248.4,113.5,247.2,114.2,245.9,114.6z"/>
		<path d="M221.8,102.8c1.1-0.2,2.3-0.3,3.2,0.5c0.9,0.9,1.1,2.1,0.6,3.2c-0.7,1.4-1.4,2.8-2.5,3.8c-1.7,1.6-3.8,3-5.7,4.4
			c-3.8,3-7.4,6.1-10.3,10c-0.2,0.2-0.6,0.3-0.8,0.5c-0.1-0.4-0.3-0.8-0.2-1.1c1.7-5.2,4.3-9.9,7.5-14.3c2-2.7,4.4-4.8,7.2-6.5
			C221.2,103,221.5,102.9,221.8,102.8z"/>
	</g>
	<path d="M269.1,110.6c-5.3-0.2-8.4-2.8-8.3-7.1c0.1-4.2,3.7-8,7.4-7.8c4.5,0.2,8.3,4.2,8.2,8.8
		C276.3,107.8,272.9,110.7,269.1,110.6z M273.1,103.4c0-1.1-0.3-2.3-0.9-3.3c-0.4-0.7-1.7-1.8-2.4-0.8c-0.5,0.6-0.1,1.6,0,2.3
		c0.3,1.2,0.7,2.3,0.1,3.5c-0.1,0.2-0.3,0.5-0.3,0.8c-0.2,1.5,1.3,2.1,2.2,1c0.4-0.4,0.6-0.9,0.8-1.4
		C272.9,104.8,273.1,104.1,273.1,103.4z"/>
	<path d="M302.4,219.4c-0.9,0.6-1.3,1-1.9,1.2c-28.8,12.3-57.6,24.6-86.5,36.8c-0.4,0.2-0.9,0.1-1.5,0.1c-0.4-0.8-0.8-1.5-1.2-2.3
		c-1.1-2-0.5-3.6,1-5.3c6.7-7.8,14.6-13.9,23.5-19.1c9.1-5.3,18.6-9.4,28.8-12c10.5-2.8,21.1-4,31.9-1.8
		C298.4,217.4,300.3,217.7,302.4,219.4z"/>
	<path d="M332.5,54.8c-0.4,0.3-0.8,0.4-1.1,0.3c-0.3-0.1-0.6-0.3-0.8-0.6c-0.2-0.3-0.3-0.6-0.3-1c0-0.4,0.2-0.7,0.5-1
		c0.9-0.8,1.8-1.6,2.6-2.5c0.8-0.9,1.8-1.6,2.9-2.1c0.4-0.2,0.8-0.2,1.2-0.1c0.4,0.2,0.6,0.4,0.8,0.7c0.2,0.3,0.2,0.7,0.2,1.1
		c0,0.4-0.2,0.8-0.6,1.1c-0.9,0.8-1.8,1.5-2.7,2.1C334.4,53.5,333.5,54.1,332.5,54.8z M338,101.3c0.6,0.2,1.2,0.3,1.8,0.3
		c0.7,0,1.3,0,2,0c0.7,0,1.3,0.1,1.9,0.3c0.6,0.2,1.1,0.5,1.5,1.1c0.2,0.3,0.3,0.6,0.3,1c0,0.4-0.1,0.8-0.4,1.1
		c-0.5,0.6-1.1,0.9-1.8,1.1c-0.7,0.1-1.5,0.1-2.3,0c-0.8-0.1-1.6-0.4-2.4-0.6c-0.8-0.3-1.4-0.6-2-0.9c-0.5-0.3-0.8-0.6-0.9-1
		c-0.1-0.4-0.1-0.8,0.1-1.2c0.1-0.3,0.4-0.6,0.8-0.8C337,101.2,337.4,101.2,338,101.3z M338.3,89.6c-0.6-0.2-0.8-0.6-0.6-1.2
		c0.1-0.6,0.5-0.9,1.1-1c1.7-0.1,3.5-0.4,5.1-0.6c1.7-0.3,3.4-0.5,5-0.7c1.3-0.2,2.7-0.3,4-0.3c1.3,0,2.5,0.5,3.6,1.4
		c0.4,0.4,0.5,0.7,0.4,1.1c-0.1,0.4-0.3,0.7-0.7,0.9c-1.4,0.7-3,1.1-4.7,1.1c-1.7,0-3.4,0.1-4.8,0.2c-1.4,0.1-2.8,0.1-4.1,0
		C341.1,90.3,339.7,90,338.3,89.6z M340.8,76.5c-0.3,0.1-0.6,0.2-0.8,0.1c-0.3-0.1-0.5-0.2-0.6-0.4c-0.1-0.2-0.2-0.4-0.2-0.7
		c0-0.2,0.1-0.5,0.4-0.7c1.9-1.3,3.8-2.8,5.7-4.4c1.9-1.6,3.9-3.1,5.9-4.5s4.1-2.7,6.2-3.8c2.1-1.1,4.4-1.9,6.8-2.4
		c0.9-0.2,1.6,0,2.2,0.5c0.5,0.5,0.8,1.2,0.9,1.9c0.1,0.7-0.1,1.4-0.5,2.1c-0.4,0.7-1,1.1-1.9,1.3c-2.1,0.4-4.2,0.9-6.3,1.7
		c-2.1,0.8-4.1,1.6-6.1,2.6c-2,1-4,2-5.9,3.2C344.5,74.3,342.7,75.4,340.8,76.5z"/>
</g>
</svg>
