<?xml version="1.0" encoding="utf-8"?>
<!-- Generator: Adobe Illustrator 18.0.0, SVG Export Plug-In . SVG Version: 6.00 Build 0)  -->
<!DOCTYPE svg PUBLIC "-//W3C//DTD SVG 1.1//EN" "http://www.w3.org/Graphics/SVG/1.1/DTD/svg11.dtd">
<svg version="1.1" id="Layer_1" xmlns="http://www.w3.org/2000/svg" xmlns:xlink="http://www.w3.org/1999/xlink" x="0px" y="0px"
	 viewBox="0 0 432 432" enable-background="new 0 0 432 432" xml:space="preserve">
<g>
	<g>
		<g>
			<path d="M59.1,234.4c5.5,0,9.2,1.7,10.9,5.2c1.7,3.5,2.6,7.3,2.6,11.4c0.8-4.1,2-9.4,3.5-15.9c1.5-6.5,3.5-12.9,5.7-19
				c2.3-6.2,5-11.5,8.2-16c3.2-4.5,6.8-6.7,10.9-6.7c5.2,0,9.3,1.4,12.2,4.2c2.9,2.8,4.8,6.3,5.6,10.6c0.8,4.3,0.6,9.1-0.5,14.4
				c-1.1,5.3-3,10.5-5.5,15.5c-2.5,5-5.7,9.6-9.6,13.8c-3.9,4.2-8.2,7.3-12.9,9.4c6.5,1.3,11.6,4.2,15.4,8.7
				c3.7,4.5,6.3,9.6,7.6,15.4c1.3,5.8,1.4,11.9,0.2,18.3c-1.1,6.4-3.3,12.3-6.6,17.7c-3.3,5.4-7.4,9.8-12.6,13.3
				c-5.1,3.5-11,5.2-17.7,5.2c-3.3,0-5.7-1.3-7.2-3.8c-1.5-2.5-1.6-5.4-0.1-8.7c1-2.4,2.5-4.6,4.6-6.6c2.1-2,4.5-3.7,7.1-5.2
				c2.6-1.5,5.2-2.9,7.9-4.2c2.7-1.2,5.2-2.3,7.4-3.3c1.3-5,2.1-10,2.3-14.9c0.2-4.9-0.1-9.4-1.1-13.4c-1-4.1-2.7-7.4-5.1-10.1
				c-2.4-2.7-5.7-4.4-9.8-5.3c-2.9,1.3-5.9,2-9,2.2c-1,5.2-1.9,10.3-2.8,15.1c-0.9,4.9-1.7,9.3-2.3,13.3c-0.7,4-1.2,7.4-1.6,10.4
				c-0.4,2.9-0.7,5.1-0.9,6.6c-0.3,1.8-0.5,3.6-0.5,5.4c0,1.8,0.1,3.7,0.2,5.6c0.2,1.3-0.1,2.2-0.9,2.6c-0.7,0.4-1.6,0.4-2.6,0.1
				c-2.9-0.8-5.5-2.6-7.7-5.5c-2.2-2.8-3.7-6.4-4.5-10.6c-0.3-2.1-0.3-5.1,0-8.9c0.3-3.8,0.9-8,1.6-12.6c0.7-4.6,1.5-9.3,2.2-14.2
				c0.7-4.9,1.3-9.5,1.6-13.8c0.3-4.3,0.3-8.1,0-11.3c-0.3-3.3-1.1-5.6-2.4-7.1c-0.8-0.8-1.2-1.5-1.2-2c0-1,0.6-2.1,2-3.4
				C55,235,56.8,234.4,59.1,234.4z M72.8,329.8c-0.7,1.6-0.7,3,0,4c0.6,1.1,1.7,1.6,3.2,1.6c2.3,0,4.4-0.8,6.5-2.4
				c2-1.6,3.8-3.6,5.4-5.9c1.5-2.3,2.9-4.7,4-7.2c1.1-2.5,2-4.7,2.7-6.5c-1.8,0.7-3.8,1.5-6,2.6c-2.2,1.1-4.4,2.2-6.5,3.5
				c-2.1,1.3-4,2.8-5.7,4.5C74.6,325.8,73.4,327.7,72.8,329.8z M100.8,202.9c-2.3,0-4.4,1.1-6.5,3.2c-2,2.1-3.9,4.8-5.6,8.1
				c-1.7,3.3-3.3,7-4.6,11.1c-1.4,4.2-2.6,8.2-3.8,12.2c-1.1,4-2.1,7.8-2.8,11.4s-1.3,6.4-1.8,8.5c1,0.2,2,0.3,3.2,0.5
				c1.1,0.2,2.3,0.4,3.4,0.7c2.9-1.1,5.7-3.3,8.3-6.5c2.6-3.2,4.9-6.8,7-10.9c2-4.1,3.7-8.4,5.1-12.9c1.4-4.6,2.3-8.7,2.7-12.4
				c0.4-3.7,0.2-6.8-0.5-9.3C104.1,204.1,102.8,202.9,100.8,202.9z"/>
			<path d="M137.2,308.8c-0.3,5.5,0.6,10.3,2.9,14.4c2.3,4.1,6.1,6.1,11.5,6.1c4.7,0,9.1-1.6,13.1-4.9c4-3.3,7.5-7.2,10.5-11.7
				c3-4.6,5.6-9.3,7.7-14.2c2.1-4.9,3.6-9,4.4-12.4c0.5-2.1,1.5-3.1,2.9-2.8c1.5,0.2,1.9,1.4,1.2,3.5v0.2c-1,4.2-2.6,9.1-4.9,14.5
				c-2.3,5.5-5.1,10.6-8.5,15.5c-3.4,4.9-7.3,9-11.7,12.5c-4.4,3.4-9.3,5.1-14.6,5.1c-8.6,0-15.2-2.2-19.8-6.7
				c-4.6-4.5-7.6-10-9-16.7c-1.5-6.7-1.5-13.9-0.1-21.6c1.4-7.7,3.8-14.9,7.3-21.6c3.5-6.7,7.8-12.2,12.9-16.7
				c5.1-4.5,10.7-6.7,16.7-6.7c5.5,0,9.6,1.6,12.2,4.9c2.6,3.3,4.1,7.3,4.4,12.2c0.3,4.9-0.4,10.2-2.1,16s-4.1,11.1-7.1,16
				c-3,4.9-6.5,9-10.5,12.2c-4,3.3-8.2,4.9-12.6,4.9C141.7,310.8,139.5,310.1,137.2,308.8z M153.8,260c-2,2.3-3.8,5.1-5.6,8.4
				c-1.8,3.3-3.4,6.9-4.8,10.8c-1.4,3.9-2.6,7.9-3.5,12.2c-1,4.2-1.7,8.3-2.2,12.4c1.8,1.8,3.9,2.7,6.3,2.7c3.1,0,6-1.3,8.7-3.9
				c2.7-2.6,5.1-5.8,7.2-9.7c2.1-3.9,3.8-8.1,5.1-12.5c1.3-4.5,2.1-8.6,2.4-12.5c0.3-3.9,0.1-7.1-0.6-9.7c-0.7-2.6-2.1-3.9-4-3.9
				C160,254.1,157,256.1,153.8,260z"/>
			<path d="M229.2,257.3c0,2.1-0.8,3.1-2.3,2.9c-1.5-0.2-2.3-1.1-2.3-2.9c0-1.1-0.3-2.1-1-2.9c-0.7-0.8-1.5-1.2-2.7-1.2
				c-3.6,0-6.8,1.8-9.6,5.4c-2.8,3.6-5.3,8.1-7.4,13.5c-2.1,5.4-3.7,11.2-4.9,17.4c-1.1,6.2-1.7,12-1.7,17.4c0,5.4,0.7,9.9,2.1,13.5
				c1.4,3.6,3.5,5.4,6.2,5.4c2,0,4.1-2.2,6.3-6.6c2.3-4.4,4.4-9.6,6.3-15.6c2-6,3.6-12.1,5-18.3c1.4-6.2,2.1-11.1,2.1-14.6
				c0-2.3,0.6-4,1.7-5.2c1.1-1.2,2.5-1.8,4.2-1.8c4.2,0,6.7,2,7.4,6c0.7,4,0.7,8.7,0,14.3c-0.7,5.5-1.7,11.2-2.9,17
				c-1.2,5.8-1.7,10.5-1.3,14c0.5,3.4,1.7,5.1,3.7,5.1c2.3,0,4.4-1.5,6.2-4.6c1.9-3.1,3.5-6.6,4.9-10.5c1.4-3.9,2.5-7.6,3.3-11.2
				c0.8-3.6,1.3-5.9,1.5-7.1c0.3-2.1,1.2-3.1,2.6-2.9c1.4,0.2,1.9,1.3,1.6,3.4c-0.2,1.3-0.5,3.2-1.1,5.7c-0.6,2.5-1.3,5.2-2.2,8.2
				c-0.9,2.9-2,5.9-3.3,9c-1.3,3.1-2.7,5.9-4.2,8.3c-2.8,5-6.5,7.6-11.2,7.6c-2.9,0-5.3-0.8-7.2-2.3c-1.9-1.5-3.3-3.5-4.3-6
				c-1-2.4-1.6-5.1-1.8-7.9s-0.2-5.6,0.1-8.2c-0.8,2.9-2,6.3-3.4,10.1c-1.5,3.8-3.2,7.4-5.2,10.9c-2,3.4-4.4,6.3-7,8.8
				c-2.6,2.4-5.5,3.7-8.5,3.7c-5.5,0-9.8-2.2-12.8-6.7c-3-4.5-4.9-10-5.7-16.7c-0.8-6.7-0.6-13.9,0.6-21.6
				c1.2-7.7,3.4-14.9,6.6-21.6c3.2-6.7,7.2-12.2,12.2-16.7c5-4.5,10.7-6.7,17.2-6.7c3.4,0,6.3,1.1,8.8,3.2
				C228,250,229.2,253.1,229.2,257.3z"/>
			<path d="M289.7,265.3c1.3,0,2.3,0.3,2.9,1c0.6-0.7,1.2-1.7,1.7-3.2c0.5-1.5,0.8-3,0.9-4.4c0.1-1.5-0.1-2.8-0.6-3.8
				s-1.5-1.6-2.9-1.6c-3.9,0-7.6,2.2-11.1,6.5c-3.5,4.3-6.6,9.7-9.2,16.3c-2.6,6.5-4.6,13.6-5.9,21.2c-1.3,7.6-1.8,14.6-1.5,21.2
				c0.3,6.5,1.6,11.9,3.9,16.3c2.3,4.3,5.8,6.5,10.5,6.5c4.7,0,9.1-2.2,13.1-6.7c4-4.5,7.5-9.7,10.5-15.7c3-6,5.6-12.1,7.7-18.2
				c2.1-6.1,3.6-10.9,4.4-14.3c0.6-2.1,1.7-3.1,3.1-2.8c1.4,0.2,1.7,1.4,1.1,3.5v0.2c-0.7,2.8-1.6,6.2-2.9,10.3
				c-1.3,4.1-2.8,8.3-4.5,12.7c-1.7,4.4-3.7,8.7-6,13.1c-2.3,4.3-4.8,8.2-7.6,11.7c-2.8,3.5-5.7,6.3-8.8,8.4
				c-3.1,2.1-6.4,3.2-10,3.2c-8.1,0-14.5-2.5-19.2-7.6c-4.6-5-7.7-11.3-9.3-18.8c-1.5-7.5-1.7-15.7-0.6-24.5
				c1.1-8.9,3.4-17,6.8-24.5c3.4-7.5,7.8-13.8,13.2-18.8c5.4-5,11.4-7.6,18.1-7.6c5,0,8.5,1.7,10.5,5c2,3.3,2.8,7,2.4,11
				c-0.3,4-1.5,7.7-3.5,11c-2,3.3-4.4,5-7.2,5c-1.5,0-2.8-0.5-3.9-1.6c-1.1-1.1-1.7-2.4-1.7-4.1c0-1.6,0.6-3,1.7-4.1
				C287,265.8,288.3,265.3,289.7,265.3z"/>
			<path d="M317.1,214.1c1.1-2.6,2.6-5.2,4.4-7.7c1.8-2.5,3.8-4.8,6-6.7c2.2-2,4.6-3.5,7.3-4.8c2.7-1.2,5.6-1.8,8.7-1.8
				c2.1,0,3.8,0.6,5.1,1.7c1.3,1.1,2.3,2.6,2.9,4.4c0.6,1.8,1,3.7,1,5.7c0,2-0.1,3.9-0.2,5.5c-0.7,4.9-1.8,10.4-3.3,16.5
				c-1.5,6.1-3.5,12.1-6,17.9c-2.4,5.9-5.4,11.1-8.8,15.9c-3.4,4.7-7.2,8.2-11.2,10.5c-0.7,8-1.1,16-1.5,24.2
				c0.6-2.6,1.6-5.7,2.8-9.4c1.2-3.7,2.8-7.2,4.8-10.5s4.2-6.2,6.8-8.5c2.6-2.4,5.7-3.5,9.3-3.5c4.6,0,7.9,1.5,10,4.5
				c2.1,3,3.5,6.8,4.2,11.3c0.6,4.7,0.6,9.3,0,13.8c-0.7,4.5-1.5,9-2.4,13.4c-1,4.5-1.9,8.9-2.8,13.4c-0.9,4.5-1.3,9-1.1,13.5
				c0.2,5,1.3,7.6,3.4,7.6c1.3,0,2.7-1.2,4.2-3.5c1.5-2.4,2.9-5.4,4.3-9c1.4-3.7,2.7-7.7,3.9-12.2c1.2-4.5,2.3-8.7,3.3-12.7
				c1-4,1.8-7.6,2.4-10.7c0.6-3.2,1.1-5.3,1.2-6.5c0.3-2.3,1.2-3.3,2.7-3.1c1.5,0.2,2,1.4,1.7,3.5c-0.3,1.5-0.8,4-1.5,7.6
				c-0.7,3.6-1.5,7.6-2.6,12c-1.1,4.4-2.3,9-3.8,13.7c-1.5,4.7-3,9-4.8,12.9c-1.7,3.9-3.5,7.1-5.5,9.6c-2,2.5-4,3.8-6.1,3.8
				c-4.1,0-7.9-1.4-11.6-4.3c-3.7-2.9-5.9-6.8-6.7-11.8c-0.7-3.9-0.7-8-0.2-12.2c0.5-4.2,1.1-8.5,2-12.9c0.8-4.4,1.6-8.7,2.3-12.9
				c0.7-4.2,1.1-8.2,1.1-12c0-2.4-0.4-4.3-1.1-5.5s-1.6-1.8-2.6-1.8c-2,0-3.7,1.1-5.2,3.2c-1.5,2.1-3,4.8-4.3,8.2
				c-1.3,3.3-2.4,7-3.3,11c-0.9,4-1.7,7.9-2.3,11.7c-0.7,3.8-1.1,7.3-1.5,10.4c-0.3,3.1-0.5,5.3-0.5,6.6c0,1.1-0.9,1.7-2.7,1.7
				c-2.8,0-4.6-0.6-5.6-1.7c-1-1.1-1.6-2.8-2-5.1c-1.3-7.6-2.4-16-3.2-25c-0.8-9-1.1-18.2-1-27.5c0.2-9.3,1-18.4,2.4-27.3
				C311.5,230.1,313.8,221.8,317.1,214.1z M347.8,212.4c0-0.5,0.1-1.3,0.2-2.3c0.2-1.1,0.2-2.2,0.1-3.3c-0.1-1.1-0.3-2.1-0.7-2.9
				c-0.4-0.8-1-1.2-1.8-1.2c-2,0-4.1,2.3-6.3,6.8c-4.2,8.3-7.6,17.2-10,26.8c-2.4,9.6-4.3,19.4-5.6,29.3c3.1-2.3,5.9-5.5,8.5-9.6
				c2.6-4.2,5-8.7,7.1-13.7c2.1-5,3.9-10,5.2-15.3C345.9,221.8,347,217,347.8,212.4z"/>
		</g>
	</g>
	<g>
		<g>
			<path d="M87.3,60.2c2.3,0,4.3,0.4,6,1.3c1.7,0.8,2.6,2,2.6,3.4c0,2.6-0.9,4.6-2.7,5.9c-1.8,1.3-3.5,2.3-5,2.9
				c-1.2,2.9-2.4,6.5-3.5,10.9c-1.1,4.4-2.2,9.2-3,14.3c-0.9,5.1-1.6,10.2-2,15.3c-0.4,5.1-0.5,9.8-0.2,13.9c0.3,4.1,1,7.5,2.2,10.1
				c1.2,2.6,3,3.9,5.4,3.9c0.8,0,1.5,0.2,1.9,0.7c0.4,0.5,0.6,1,0.6,1.5s-0.2,1-0.6,1.4c-0.4,0.4-1,0.6-1.9,0.6
				c-4.1,0-7.4-1.2-10-3.6c-2.6-2.4-4.7-5.6-6.2-9.6c-1.5-4-2.5-8.5-3-13.5c-0.5-5-0.6-10.2-0.3-15.5c0.3-5.3,0.9-10.5,1.9-15.5
				c1-5,2.2-9.5,3.6-13.4c-2-0.1-4.1-0.5-6.2-1.1c-2.1-0.6-4.1-1.4-6-2.5c-1.9-1.1-3.6-2.4-5.1-3.8c-1.5-1.5-2.5-3.3-3.1-5.5
				c-0.6-2.1-0.7-4.3-0.2-6.4c0.5-2.1,1.5-4,3-5.6c1.5-1.7,3.4-3,5.8-4c2.4-1,5.2-1.5,8.4-1.5c2.9,0,6.5,0.4,10.8,1.2
				c4.4,0.8,8.9,1.7,13.5,2.7c4.7,1,9.2,1.9,13.5,2.7c4.4,0.8,7.9,1.2,10.7,1.2c1.3,0,2.6-0.2,3.8-0.5c1.2-0.4,2.2-1.1,2.9-2.2
				c0.2-0.6,0.5-0.9,0.9-0.9c0.8,0,1.6,0.6,2.4,1.9c0.8,1.3,1.2,2.8,1.2,4.6c0,3.1-1,5.4-3.1,6.9c-2.1,1.5-4.6,2.2-7.6,2.2
				c-4.8,0-9.2-0.8-13.4-2.4c-4.1-1.6-8.2-3.4-12.2-5.4c-4-2-8.1-3.8-12.2-5.4c-4.1-1.6-8.6-2.4-13.4-2.4c-2.6,0-5.1,0.7-7.3,2
				c-2.2,1.3-3.6,3.3-4.2,6.1c-0.5,2.5-0.2,4.7,1,6.5c1.1,1.8,2.7,3.3,4.6,4.5c1.9,1.2,4,2.1,6.4,2.8c2.3,0.7,4.5,1,6.4,1.2
				c1.6-3.6,3.4-6.5,5.6-8.7C82.1,61.3,84.6,60.2,87.3,60.2z"/>
			<path d="M130.2,91.7c0,1.6-0.6,2.3-1.7,2.2c-1.1-0.1-1.7-0.8-1.7-2.2c0-0.8-0.2-1.6-0.7-2.2c-0.5-0.6-1.1-0.9-2-0.9
				c-2.6,0-5,1.3-7.1,4c-2.1,2.6-3.9,5.9-5.5,9.9c-1.6,4-2.7,8.2-3.6,12.8c-0.8,4.6-1.3,8.8-1.3,12.8c0,4,0.5,7.3,1.5,9.9
				c1,2.6,2.5,4,4.6,4c1.4,0,3-1.6,4.7-4.8c1.7-3.2,3.2-7.1,4.7-11.5c1.4-4.4,2.7-8.9,3.7-13.4c1-4.5,1.5-8.1,1.5-10.8
				c0-1.7,0.4-3,1.3-3.9c0.8-0.9,1.9-1.3,3-1.3c3.1,0,4.9,1.5,5.5,4.4c0.5,2.9,0.5,6.4,0,10.5c-0.5,4.1-1.3,8.2-2.2,12.5
				c-0.9,4.2-1.2,7.7-1,10.3c0.4,2.5,1.3,3.8,2.7,3.8c1.7,0,3.2-1.1,4.6-3.4c1.4-2.3,2.6-4.8,3.6-7.7c1-2.9,1.8-5.6,2.4-8.2
				c0.6-2.6,1-4.4,1.1-5.2c0.2-1.6,0.9-2.3,1.9-2.2c1,0.1,1.4,1,1.2,2.5c-0.1,1-0.4,2.4-0.8,4.2c-0.4,1.9-1,3.9-1.6,6
				c-0.7,2.2-1.5,4.4-2.4,6.6c-1,2.3-2,4.3-3,6.1c-2,3.7-4.8,5.6-8.2,5.6c-2.2,0-3.9-0.6-5.3-1.7c-1.4-1.1-2.4-2.6-3.1-4.4
				c-0.7-1.8-1.2-3.7-1.3-5.8c-0.2-2.1-0.1-4.1,0.1-6c-0.6,2.2-1.4,4.6-2.5,7.4c-1.1,2.8-2.4,5.5-3.9,8c-1.5,2.5-3.2,4.7-5.1,6.5
				c-1.9,1.8-4,2.7-6.3,2.7c-4.1,0-7.2-1.6-9.4-4.9c-2.2-3.3-3.6-7.4-4.2-12.3c-0.6-4.9-0.4-10.2,0.4-15.9c0.9-5.7,2.5-11,4.8-15.9
				c2.3-4.9,5.3-9,9-12.3c3.6-3.3,7.9-4.9,12.6-4.9c2.5,0,4.7,0.8,6.5,2.4C129.3,86.3,130.2,88.7,130.2,91.7z"/>
			<path d="M173.5,153.2c1.3,0,2.6-0.8,3.9-2.3c1.3-1.6,2.5-3.6,3.7-6c1.1-2.5,2.2-5.2,3.2-8.2c1-3,1.9-6.1,2.7-9.1
				c0.8-3,1.4-5.8,2-8.3c0.5-2.6,0.9-4.6,1.2-6.2c0.1-0.8,0.4-1.4,0.7-1.8c0.4-0.4,0.7-0.5,1.1-0.4c0.4,0.1,0.7,0.3,1,0.8
				c0.3,0.5,0.4,1.1,0.3,1.8c-0.2,1.6-0.6,3.7-1.2,6.5c-0.5,2.7-1.3,5.7-2.2,9c-0.9,3.2-1.9,6.5-3,9.9c-1.1,3.4-2.5,6.5-3.9,9.1
				c-1.5,2.7-3.1,4.9-4.9,6.6c-1.8,1.7-3.7,2.6-5.7,2.6c-3.8,0-6.6-1.4-8.4-4.2c-1.8-2.8-2.4-6.4-1.8-10.7c0.4-2.4,0.7-5,1.2-7.7
				c0.4-2.7,0.7-5.2,1-7.3c0.2-2.7-0.4-4.4-2.1-4.9c-1.6-0.5-3.3-0.1-5.1,1.3c-0.2,0.7-0.4,1.5-0.4,2.2c-0.1,0.8-0.2,1.5-0.3,2.2
				c-0.6,2.7-1,5.3-1.2,7.6c-0.2,2.3-0.3,4-0.3,4.9c0,0.8-0.7,1.3-2,1.3c-2,0-3.4-0.4-4.1-1.3c-0.7-0.8-1.2-2.1-1.4-3.8
				c-1-5.6-1.7-11.7-2.3-18.4c-0.6-6.6-0.8-13.4-0.7-20.2s0.7-13.5,1.8-20.1c1.1-6.6,2.8-12.7,5.2-18.3c0.8-1.9,1.9-3.8,3.2-5.6
				c1.3-1.9,2.8-3.5,4.4-4.9c1.6-1.4,3.4-2.6,5.4-3.5s4.1-1.3,6.4-1.3c1.6,0,2.8,0.4,3.8,1.3c1,0.8,1.7,1.9,2.2,3.2
				c0.5,1.3,0.7,2.7,0.7,4.2c0,1.5-0.1,2.8-0.2,4c-0.5,3.6-1.3,7.6-2.4,12.1c-1.1,4.5-2.6,8.9-4.4,13.2c-1.8,4.3-3.9,8.2-6.5,11.7
				c-2.5,3.5-5.3,6-8.2,7.7c-0.5,5.9-0.8,11.8-1.1,17.7c0.5-1.9,1.1-4.2,2-6.9c0.8-2.7,1.9-5.3,3.1-7.7c1.3-2.4,2.7-4.5,4.4-6.3
				c1.7-1.7,3.6-2.6,5.7-2.6c2.2,0,3.8,0.6,4.8,1.8c1.1,1.2,1.7,2.7,1.9,4.4c0.2,1.7-0.1,3.5-0.7,5.4c-0.7,1.9-1.6,3.4-3,4.8
				c-0.8,1-1.8,1.9-2.8,2.7c-1,0.8-2.1,1.7-3.3,2.5c3,1,5,2.7,5.9,5.3c1,2.6,1.4,5.4,1.3,8.4c-0.1,3-0.4,6.1-1,9.1
				c-0.6,3-1,5.4-1.1,7.2C171.6,151.4,172.1,153.2,173.5,153.2z M173.9,58.8c0-0.4,0.1-0.9,0.2-1.7c0.1-0.8,0.1-1.6,0.1-2.4
				c-0.1-0.8-0.2-1.6-0.5-2.1c-0.3-0.6-0.7-0.9-1.3-0.9c-1.4,0-3,1.7-4.7,5c-3.1,6.1-5.6,12.7-7.4,19.7c-1.8,7.1-3.2,14.2-4.1,21.5
				c2.3-1.7,4.4-4,6.3-7.1c1.9-3,3.6-6.4,5.2-10c1.6-3.6,2.8-7.4,3.9-11.2C172.5,65.7,173.3,62.1,173.9,58.8z M170,106.4
				c0-0.7-0.2-1.4-0.5-2.2c-0.4-0.7-1-1.1-2-1.1c-1.1,0-2.1,0.4-3,1.3c-0.9,0.9-1.7,2.1-2.5,3.6c-0.8,1.5-1.5,3.2-2.2,5.1
				c-0.7,1.9-1.2,3.9-1.7,6.1c1.2-0.7,2.5-1.5,3.9-2.5c1.4-1,2.7-2,3.9-3c1.2-1.1,2.2-2.2,3-3.5C169.6,109,170,107.8,170,106.4z"/>
			<path d="M194.2,129.6c-0.2,4.1,0.5,7.6,2.2,10.6c1.7,3,4.5,4.5,8.4,4.5c3.5,0,6.7-1.2,9.6-3.6c2.9-2.4,5.5-5.3,7.7-8.6
				c2.2-3.3,4.1-6.8,5.6-10.4c1.6-3.6,2.6-6.6,3.2-9.1c0.4-1.6,1.1-2.2,2.2-2.1c1.1,0.2,1.4,1,0.9,2.6v0.2
				c-0.7,3.1-1.9,6.7-3.6,10.7c-1.7,4-3.8,7.8-6.3,11.4c-2.5,3.6-5.4,6.6-8.6,9.1c-3.2,2.5-6.8,3.8-10.8,3.8
				c-6.3,0-11.2-1.6-14.5-4.9c-3.3-3.3-5.6-7.4-6.6-12.3c-1.1-4.9-1.1-10.2-0.1-15.9c1-5.7,2.8-11,5.4-15.9c2.6-4.9,5.7-9,9.5-12.3
				c3.8-3.3,7.9-4.9,12.3-4.9c4.1,0,7.1,1.2,9,3.6c1.9,2.4,3,5.4,3.2,9c0.2,3.6-0.3,7.5-1.5,11.7c-1.3,4.2-3,8.2-5.2,11.7
				c-2.2,3.6-4.8,6.6-7.7,9c-2.9,2.4-6,3.6-9.2,3.6C197.5,131,195.8,130.5,194.2,129.6z M206.3,93.7c-1.4,1.7-2.8,3.7-4.1,6.2
				c-1.3,2.4-2.5,5.1-3.5,7.9c-1,2.9-1.9,5.8-2.6,8.9c-0.7,3.1-1.3,6.1-1.6,9.1c1.3,1.3,2.9,2,4.7,2c2.3,0,4.4-0.9,6.4-2.9
				c2-1.9,3.7-4.3,5.3-7.1c1.6-2.9,2.8-5.9,3.8-9.2c1-3.3,1.6-6.3,1.8-9.2c0.2-2.9,0.1-5.2-0.4-7.1c-0.5-1.9-1.5-2.9-3-2.9
				C210.9,89.4,208.7,90.8,206.3,93.7z"/>
			<path d="M277.2,91.9c-1.1,2.1-2.1,4.7-3,7.7c-1,3-1.8,6.1-2.6,9.3c-0.8,3.2-1.5,6.4-2.2,9.6c-0.7,3.2-1.2,6-1.7,8.5
				c-0.2,1-0.5,2.3-0.8,3.9c-0.3,1.7-0.7,3.3-1.2,4.9c-0.5,1.6-1.1,3-1.9,4.2c-0.8,1.2-1.7,1.8-2.8,1.8c-2.7,0-4.6-0.7-5.6-2
				c-1-1.3-1.4-3.2-1.3-5.7c0.1-2.9,0.4-6,0.8-9.3c0.4-3.3,0.7-6.5,0.8-9.6c0.1-3,0-5.8-0.3-8.2c-0.3-2.4-1-4.1-2.2-5
				c-0.2-0.2-0.5-0.4-0.7-0.6s-0.4-0.4-0.4-0.8c-0.1-0.7,0.2-1.6,1.1-2.8c0.8-1.1,2.1-1.7,3.8-1.7c4.2,0,7.1,1.4,8.8,4.1
				c0.7,1.2,1.2,2.5,1.5,4c0.3,1.5,0.5,3.1,0.6,4.8c1-3.5,2-6.8,3-10.1s2.3-6.2,3.6-8.7c1.2-2.4,2.7-4.5,4.6-6.2
				c1.9-1.7,4.2-2.6,7.1-2.6c2.4,0,4.5,0.8,6.5,2.5c1.9,1.7,2.9,4.2,2.9,7.7c0,2.7-0.3,5.9-0.9,9.5c-0.6,3.6-1.3,7.2-2,10.8
				c0.6-1.6,1.3-3.3,2.2-5.1c0.9-1.9,1.9-3.6,3.1-5.2c1.2-1.6,2.6-2.9,4.1-3.9c1.6-1,3.4-1.5,5.6-1.5c2,0,3.9,0.7,5.6,2
				c1.7,1.3,2.9,3.3,3.5,6.1c0.8,3.2,1,6.7,0.5,10.5c-0.5,3.8-1.2,7.6-2.1,11.4c-0.9,3.8-1.7,7.6-2.5,11.3c-0.8,3.7-1.1,7.1-1,10.2
				c0.1,3.7,1,5.6,2.5,5.6c1,0,2-0.9,3-2.6c1.1-1.7,2.1-3.9,3.1-6.6c1-2.7,2-5.7,2.9-9c0.9-3.3,1.7-6.4,2.4-9.3
				c0.7-2.9,1.3-5.6,1.8-7.9c0.5-2.3,0.8-3.9,0.9-4.7c0.2-1.6,0.9-2.3,1.9-2.2c1,0.1,1.4,1,1.2,2.5c-0.1,1.2-0.4,3.1-1,5.6
				c-0.5,2.6-1.2,5.5-2,8.7c-0.8,3.2-1.7,6.6-2.7,10c-1,3.5-2.2,6.6-3.4,9.5c-1.3,2.9-2.6,5.2-4,7.1c-1.4,1.9-2.9,2.8-4.5,2.8
				c-3,0-5.8-1-8.5-3.1c-2.7-2.1-4.3-5-4.9-8.7c-0.6-3.8-0.5-7.9,0.2-12.1c0.7-4.2,1.4-8.5,2.2-12.6c0.2-1.1,0.6-2.7,1-4.8
				c0.4-2.1,0.8-4.2,1.1-6.4c0.3-2.2,0.4-4,0.2-5.6c-0.2-1.6-0.7-2.4-1.7-2.4c-1.6,0-3.1,1.5-4.7,4.6c-1.6,3-3.1,6.6-4.6,10.7
				c-1.4,4.1-2.7,8.1-3.8,12.2c-1.1,4.1-1.9,7.1-2.3,9c-0.4,1.3-0.8,2.3-1.4,3c-0.6,0.7-1.4,1.1-2.5,1.1c-5.5,0-8.1-2.6-7.7-7.7
				c0.1-2,0.5-4.8,1.2-8.2c0.7-3.5,1.3-7.1,2.1-10.9c0.7-3.8,1.4-7.6,2.2-11.5c0.7-3.8,1.2-7.1,1.4-9.9c0.4-4.3-0.2-6.5-1.6-6.5
				C280.3,87.3,278.8,88.8,277.2,91.9z"/>
			<path d="M335.2,129.6c-0.2,4.1,0.5,7.6,2.2,10.6s4.5,4.5,8.4,4.5c3.5,0,6.7-1.2,9.6-3.6c2.9-2.4,5.5-5.3,7.7-8.6
				c2.2-3.3,4.1-6.8,5.6-10.4c1.5-3.6,2.6-6.6,3.2-9.1c0.4-1.6,1.1-2.2,2.2-2.1c1.1,0.2,1.4,1,0.9,2.6v0.2
				c-0.7,3.1-1.9,6.7-3.6,10.7c-1.7,4-3.8,7.8-6.3,11.4c-2.5,3.6-5.4,6.6-8.6,9.1c-3.2,2.5-6.8,3.8-10.8,3.8
				c-6.3,0-11.2-1.6-14.5-4.9c-3.3-3.3-5.6-7.4-6.6-12.3c-1.1-4.9-1.1-10.2-0.1-15.9c1-5.7,2.8-11,5.4-15.9c2.6-4.9,5.7-9,9.5-12.3
				c3.8-3.3,7.9-4.9,12.3-4.9c4.1,0,7,1.2,9,3.6c1.9,2.4,3,5.4,3.2,9c0.2,3.6-0.3,7.5-1.5,11.7c-1.3,4.2-3,8.2-5.2,11.7
				c-2.2,3.6-4.8,6.6-7.7,9c-2.9,2.4-6,3.6-9.2,3.6C338.6,131,336.9,130.5,335.2,129.6z M347.4,93.7c-1.4,1.7-2.8,3.7-4.1,6.2
				c-1.3,2.4-2.5,5.1-3.5,7.9c-1,2.9-1.9,5.8-2.6,8.9c-0.7,3.1-1.3,6.1-1.6,9.1c1.3,1.3,2.9,2,4.7,2c2.3,0,4.4-0.9,6.4-2.9
				c2-1.9,3.7-4.3,5.3-7.1c1.6-2.9,2.8-5.9,3.8-9.2c1-3.3,1.6-6.3,1.8-9.2c0.2-2.9,0.1-5.2-0.4-7.1c-0.5-1.9-1.5-2.9-3-2.9
				C352,89.4,349.8,90.8,347.4,93.7z"/>
		</g>
	</g>
	<g>
		<g>
			<path d="M109.3,168.5c-1.2,0.1-2-0.2-2.6-0.8c-0.6-0.6-0.8-1.2-0.8-2c0.1-0.7,0.5-1.4,1.1-2.1c0.7-0.7,1.7-1,3.1-1
				c1.9,0.1,3.8,0.1,5.8,0.1c2,0,3.7,0,5.3,0c1.6,0,3.4,0,5.3,0c0.2-1.5,0.3-3,0.3-4.5c0-1.4,0-2.8,0.2-4c0.1-1.2,0.4-2.2,0.9-3
				c0.4-0.8,1.3-1.4,2.5-1.8c2.2-0.7,3.7-0.6,4.7,0.3c1,0.8,1.6,2,2,3.5c0.3,1.5,0.5,3.2,0.4,5.1c0,1.9,0,3.6,0.1,5.1
				c1,0.1,2.2,0.1,3.7,0.2c1.4,0.1,2.8,0.3,4.2,0.6c1.3,0.4,2.5,0.9,3.4,1.7c0.9,0.8,1.4,2,1.5,3.5c-0.4-0.1-1.2-0.3-2.2-0.4
				c-1.1-0.1-2.2-0.3-3.5-0.4c-1.3-0.1-2.5-0.3-3.8-0.4c-1.3-0.1-2.3-0.2-3.2-0.2c-0.3,10.6-0.7,21.3-1.2,32.1
				c-0.5,10.8-0.8,21.4-0.7,31.7c2-3,3.7-5.8,5.1-8.5c1.4-2.7,2.8-5.4,4.1-8.1c1.3-2.7,2.5-5.4,3.7-8.2c1.2-2.8,2.5-5.7,4-8.8
				c1-2.1,1.8-3.5,2.3-4.2c0.5-0.7,0.9-0.9,1.1-0.6c0.2,0.3,0.3,0.9,0.3,1.8c0,1-0.1,2.1-0.3,3.4c-0.3,2-0.9,4.4-1.7,7.2
				c-0.8,2.8-1.8,5.6-3,8.6c-1.2,2.9-2.5,5.8-3.9,8.7c-1.4,2.9-2.9,5.4-4.5,7.7c-1.5,2.3-3,4.1-4.5,5.6c-1.4,1.4-2.8,2.2-3.9,2.3
				c-1.6,0.1-3.2-0.3-4.9-1.3c-1.7-1-3-2.7-3.7-5c-0.7-2.2-1.2-4.9-1.5-8.3s-0.5-7-0.5-11c0-4,0-8.1,0.2-12.4
				c0.2-4.3,0.4-8.4,0.7-12.5c0.3-4.1,0.5-7.8,0.8-11.3c0.3-3.5,0.5-6.5,0.6-9c-2.8-0.2-5.6-0.3-8.4-0.1
				C115.1,168.2,112.2,168.4,109.3,168.5z"/>
			<path d="M181.3,194.5c0.3-0.9,0.8-1.5,1.4-2c0.7-0.5,1.3-0.7,1.9-0.8c0.6,0,1.1,0.2,1.5,0.6c0.4,0.4,0.6,1.1,0.5,2
				c-0.2,2.5-0.7,4.7-1.5,6.6c-0.8,1.8-1.8,3.3-3.1,4.3c-1.3,1-2.9,1.7-4.8,1.8c-1.9,0.2-4.2-0.1-6.8-0.9c-0.2,1.5-0.5,3.1-0.8,4.9
				c-0.3,1.7-0.8,3.4-1.5,4.9c-0.7,1.6-1.4,2.9-2.4,4.1c-0.9,1.2-2.1,1.9-3.5,2.3c-2.8,0.8-5.3,0.5-7.3-0.8
				c-2.1-1.3-3.7-3.2-4.8-5.6c-1.1-2.5-1.8-5.3-2-8.4c-0.2-3.1,0.2-6.1,1-9c0.4-1.3,1.2-2.6,2.4-3.7c1.2-1.2,2.4-1.8,3.4-1.8
				c-0.2-0.6-0.4-1.5-0.7-2.7c-0.2-1.2-0.4-2.5-0.4-4c-0.1-2.2,0.1-4.2,0.9-6.2c0.7-2,1.7-3.6,2.9-4.9c1.2-1.3,2.7-2.2,4.3-2.7
				c1.6-0.5,3.3-0.3,5,0.4c1.3,0.5,2.2,1.2,2.8,2c0.6,0.8,1,1.8,1.2,2.9c0.2,1.1,0.3,2.4,0.4,3.7c0,1.3,0.2,2.7,0.4,4.1
				c0.3,1.6,0.4,3.2,0.4,4.7c0,1.6-0.1,3-0.2,4.3c-0.1,1.3-0.2,2.6-0.3,3.7c-0.1,1.1-0.1,2-0.1,2.8c1.7,0.4,3.2,0.6,4.2,0.5
				c1.1-0.1,2-0.5,2.7-1.1c0.7-0.6,1.2-1.4,1.6-2.5C180.6,197.1,181,195.8,181.3,194.5z M161.2,217.3c0.7-0.4,1.3-1.2,2-2.2
				c0.7-1,1.2-2.2,1.7-3.4c0.5-1.2,0.9-2.5,1.2-3.7c0.3-1.2,0.5-2.2,0.5-2.8c-0.1-0.2-0.4-0.6-1-1.1c-0.6-0.5-1.3-1-2-1.5
				c-0.7-0.5-1.4-1-2.2-1.4c-0.7-0.4-1.2-0.7-1.5-0.8c-0.9,3-1.3,5.9-1.1,8.7C159,211.8,159.8,214.5,161.2,217.3z M167.5,197.8
				c0-0.8,0.1-1.6,0.2-2.4c0.1-0.8,0.2-1.7,0.2-2.6c-0.1-1.1-0.2-2.4-0.4-3.9c-0.2-1.5-0.4-3-0.7-4.6c-0.3-1.6-0.6-3.1-0.9-4.5
				c-0.4-1.4-0.8-2.5-1.2-3.4c-0.4,0.3-0.8,0.7-1.2,1.3c-0.5,0.6-0.8,1.2-0.9,1.7c-0.4,0.8-0.5,1.5-0.5,2.2c0,0.7,0.1,1.4,0.1,2.2
				c0,1.2,0.1,2.5,0.4,3.8c0.3,1.3,0.6,2.6,1.1,3.9c0.5,1.3,1.1,2.4,1.7,3.5C166,196.2,166.7,197.1,167.5,197.8z"/>
			<path d="M194.7,168.5c-1.2,0.1-2-0.2-2.6-0.8c-0.6-0.6-0.8-1.2-0.8-2c0.1-0.7,0.5-1.4,1.1-2.1c0.7-0.7,1.7-1,3.1-1
				c1.9,0.1,3.8,0.1,5.8,0.1c2,0,3.7,0,5.3,0c1.6,0,3.4,0,5.3,0c0.2-1.5,0.3-3,0.3-4.5c0-1.4,0-2.8,0.2-4c0.1-1.2,0.4-2.2,0.9-3
				c0.4-0.8,1.3-1.4,2.5-1.8c2.2-0.7,3.7-0.6,4.7,0.3c1,0.8,1.6,2,2,3.5c0.3,1.5,0.5,3.2,0.4,5.1c0,1.9,0,3.6,0.1,5.1
				c1,0.1,2.2,0.1,3.7,0.2c1.4,0.1,2.8,0.3,4.2,0.6c1.3,0.4,2.5,0.9,3.4,1.7c0.9,0.8,1.4,2,1.5,3.5c-0.4-0.1-1.2-0.3-2.2-0.4
				c-1.1-0.1-2.2-0.3-3.5-0.4c-1.3-0.1-2.5-0.3-3.8-0.4c-1.3-0.1-2.3-0.2-3.2-0.2c-0.3,10.6-0.7,21.3-1.2,32.1
				c-0.5,10.8-0.8,21.4-0.7,31.7c2-3,3.7-5.8,5.1-8.5c1.4-2.7,2.8-5.4,4.1-8.1c1.3-2.7,2.5-5.4,3.7-8.2c1.2-2.8,2.5-5.7,4-8.8
				c1-2.1,1.8-3.5,2.3-4.2c0.5-0.7,0.9-0.9,1.1-0.6s0.3,0.9,0.3,1.8c0,1-0.1,2.1-0.3,3.4c-0.3,2-0.9,4.4-1.7,7.2
				c-0.8,2.8-1.8,5.6-3,8.6c-1.2,2.9-2.5,5.8-3.9,8.7c-1.4,2.9-2.9,5.4-4.5,7.7c-1.5,2.3-3,4.1-4.5,5.6c-1.4,1.4-2.8,2.2-3.9,2.3
				c-1.6,0.1-3.2-0.3-4.9-1.3c-1.7-1-3-2.7-3.7-5c-0.7-2.2-1.2-4.9-1.5-8.3c-0.3-3.3-0.5-7-0.5-11c0-4,0-8.1,0.2-12.4
				c0.2-4.3,0.4-8.4,0.7-12.5c0.3-4.1,0.5-7.8,0.8-11.3c0.3-3.5,0.5-6.5,0.6-9c-2.8-0.2-5.6-0.3-8.4-0.1
				C200.4,168.2,197.6,168.4,194.7,168.5z"/>
			<path d="M283.5,206.2c0.9-1.7,1.7-3.4,2.6-5.3c0.9-1.8,1.7-3.5,2.4-5.1c0.8-1.5,1.4-2.7,2-3.6c0.6-0.9,1-1.2,1.4-0.9
				c0.4,0.3,0.6,1.3,0.7,3c0.1,1.7-0.1,4.4-0.4,8.1c-0.1,1-0.6,2.7-1.7,4.9c-1,2.3-2.4,4.9-4,7.8c-1.6,2.9-3.3,5.9-5.2,9.1
				c-1.9,3.1-3.7,6.1-5.5,8.9c-1.8,2.8-3.5,5.2-5.1,7.4c-1.6,2.1-2.7,3.6-3.5,4.4c-1.2,1.2-2.4,1.9-3.6,2.3
				c-1.2,0.4-2.4,0.4-3.5,0.1c-1.1-0.3-2.2-0.8-3.1-1.6c-0.9-0.8-1.7-1.8-2.2-3c-0.9-1.9-1.3-4.1-1.2-6.7c0.1-2.6,0.4-5.4,1-8.3
				c0.6-2.9,1.4-6,2.4-9.1c1-3.2,2-6.3,3-9.4c1-3.1,2-6.1,2.8-9c0.9-2.9,1.5-5.6,1.8-8c-1.2,0-2.2,0.1-2.8,0.4
				c-0.6,0.3-1.4,0.9-2.2,1.8c-2,2.2-3.5,4.1-4.6,5.7c-1.1,1.6-2,3.1-2.5,4.3c-0.5,1.2-0.9,2.3-1.1,3.3c-0.2,1-0.3,1.9-0.4,2.7
				c-0.1,0.8-0.3,1.7-0.4,2.5c-0.2,0.8-0.6,1.7-1.1,2.7c-0.3,0.5-0.8,0.8-1.6,0.9c-0.8,0.1-1.6,0.1-2.4-0.1
				c-0.9-0.1-1.7-0.4-2.4-0.7c-0.7-0.3-1.2-0.7-1.3-1.1c-1.6-3.8-2.7-8.3-3.3-13.5c-0.6-5.2-0.7-10.5-0.3-15.9
				c0.4-5.4,1.4-10.6,2.8-15.6c1.4-5,3.4-9.2,6-12.7c1.5-1.7,3.4-3.3,5.7-4.6c2.3-1.3,4.7-2.2,7.1-2.7c2.5-0.5,4.8-0.4,7,0.2
				c2.2,0.6,4,1.9,5.3,3.9l1.4,2.8c0.7,2.2,0.5,4.3-0.3,6.3c-0.9,2-2.1,3.9-3.6,5.6c-1.6,1.7-3.3,3.3-5.1,4.7
				c-1.8,1.4-3.5,2.6-4.8,3.5c-2.1,1.4-3.8,2.4-5.2,2.7c-1.3,0.4-2.4,0.7-3.2,1c-0.8,0.3-1.4,0.9-1.7,1.8c-0.4,0.9-0.6,2.5-0.7,5
				c-0.1,4.1-0.2,6.9-0.1,8.4c0.1,1.5,0.3,2.2,0.7,2c0.4-0.1,1-0.9,1.8-2.2c0.8-1.3,1.8-2.7,3.1-4.2c1.3-1.4,2.9-2.7,4.7-3.7
				c1.8-1,4-1.4,6.5-1.1c3.5,0.4,5.9,1.7,7.2,3.7c1.2,2.1,1.7,4.6,1.5,7.7c-0.2,3.1-0.9,6.5-2.2,10.3c-1.2,3.8-2.5,7.6-3.9,11.5
				c-1.4,3.9-2.6,7.6-3.7,11.3c-1.1,3.7-1.6,6.9-1.6,9.6c1.4-1.5,3.1-3.8,5-6.7c1.9-3,3.8-6.1,5.8-9.5c2-3.4,3.8-6.7,5.5-9.9
				C281,211,282.4,208.3,283.5,206.2z M262.9,156.1c-2,1.3-3.6,2.8-4.9,4.4c-1.3,1.6-2.5,3.3-3.4,5.2c-0.9,1.8-1.8,3.7-2.4,5.7
				c-0.7,2-1.4,4-2,6.1c2.7-0.9,5.2-2.3,7.5-4.2c2.2-1.9,4.4-3.9,6.5-6c1.6-1.7,2.7-3.3,3.3-4.9c0.6-1.6,0.8-3,0.8-4.2
				c-0.1-1.2-0.3-2.1-0.8-2.8c-0.5-0.7-1-1-1.5-0.8L262.9,156.1z"/>
			<path d="M320.7,193.9c0.7,0.1,1.1,0.7,1.2,1.8c0.1,1.2-0.2,2.6-0.8,4.3c-0.6,1.7-1.4,3.6-2.6,5.6c-1.1,2-2.5,3.9-4.2,5.6
				c-1.7,1.7-3.6,3.1-5.8,4.3c-2.1,1.2-4.5,1.7-7.1,1.7c-2.2,0-4.3-0.5-6.2-1.4c-1.9-0.9-3.5-2.2-4.9-3.7c-1.3-1.6-2.4-3.4-3.1-5.5
				c-0.7-2.1-1-4.3-0.9-6.6c0.1-2.1,0.6-4.2,1.5-6.4c0.8-2.1,1.9-4.1,3.3-5.8c1.4-1.7,3-3.2,4.9-4.3c1.9-1.1,4-1.7,6.3-1.8
				c2.2-0.1,3.9,0.5,5.3,1.8c1.3,1.3,2,2.8,2.1,4.7c0.1,2-0.3,3.7-1,5.3c-0.7,1.6-1.6,3-2.7,4.1c-1.1,1.1-2.2,2-3.4,2.6
				c-1.2,0.6-2.2,0.9-3.1,0.9c-0.8,1.1-1.2,2.3-1.1,3.5c0,1.3,0.3,2.4,0.9,3.4c0.6,1,1.3,1.8,2.2,2.4c0.9,0.6,1.9,0.7,2.9,0.3
				c2.1-0.7,4-2,5.6-3.9c1.7-1.8,3.1-3.7,4.5-5.7c1.3-2,2.5-3.7,3.5-5.2C319,194.7,319.9,193.9,320.7,193.9z M299,194.8
				c-0.1,0.4,0.2,0.8,0.8,1.1c0.6,0.3,1.3,0.2,2.1-0.4c0.3-0.3,0.7-0.7,1.1-1.4c0.5-0.6,0.9-1.3,1.3-2c0.4-0.7,0.7-1.4,1-2.2
				c0.3-0.7,0.3-1.3,0.3-1.8c-0.1-0.7-0.6-1-1.2-0.8c-0.7,0.2-1.4,0.7-2.2,1.4c-0.8,0.8-1.5,1.7-2.1,2.8
				C299.5,192.6,299.1,193.7,299,194.8z"/>
		</g>
	</g>
	<path d="M195.4,83.2c0.6,1.1,0.7,2,0.4,2.8c-0.3,0.7-0.9,1.3-1.6,1.8c-0.7,0.4-1.6,0.6-2.5,0.5c-0.9-0.1-1.7-0.6-2.3-1.5
		c-1.6-2.4-3.4-4.8-5.4-7.1c-1.9-2.3-3.4-4.9-4.5-7.7c-0.4-1.1-0.3-2,0.2-2.8c0.5-0.8,1.2-1.4,2-1.7c0.8-0.4,1.7-0.4,2.8-0.2
		c1,0.2,1.8,0.7,2.4,1.7c1.7,2.4,3.1,4.8,4.5,7.2C192.5,78.4,193.9,80.8,195.4,83.2z M310.8,81.6c0.7-1.3,1-2.8,1.1-4.5
		c0.1-1.6,0.2-3.3,0.4-4.9c0.2-1.6,0.5-3.2,1.1-4.6c0.6-1.4,1.6-2.6,3.1-3.5c0.7-0.4,1.6-0.6,2.5-0.5c0.9,0.1,1.8,0.5,2.6,1.3
		c1.3,1.3,2,2.9,2.1,4.8c0.2,1.8,0,3.7-0.6,5.7c-0.6,1.9-1.3,3.8-2.2,5.6c-0.9,1.8-1.8,3.4-2.8,4.7c-0.8,1.1-1.7,1.8-2.8,1.9
		c-1.1,0.1-2,0-2.8-0.4c-0.8-0.4-1.4-1.1-1.9-2.1C310.3,84.1,310.3,82.9,310.8,81.6z M280.9,78.2c-0.5,1-1.2,1.3-2.2,0.9
		c-1-0.4-1.5-1-1.6-2c0.1-3.1,0-6.2-0.2-9.2c-0.2-3-0.3-6-0.4-9c-0.1-2.4-0.1-4.7,0.2-7.1c0.2-2.3,1.3-4.4,3-6
		c0.7-0.6,1.4-0.7,2-0.5c0.7,0.3,1.1,0.7,1.5,1.4c1,2.6,1.3,5.4,1.1,8.5c-0.2,3.1-0.5,5.9-0.6,8.5c-0.1,2.5-0.4,4.9-0.7,7.3
		C282.8,73.4,282.1,75.8,280.9,78.2z M247.4,89.3c0.2,0.5,0.2,1,0,1.4c-0.2,0.5-0.4,0.8-0.8,1c-0.4,0.2-0.8,0.3-1.2,0.2
		c-0.4,0-0.8-0.3-1.1-0.8c-1.9-3.4-4-6.8-6.2-10.2c-2.3-3.5-4.4-6.9-6.4-10.5c-2-3.5-3.7-7.2-5.2-10.9s-2.4-7.6-2.8-11.6
		c-0.2-1.5,0.2-2.7,1.2-3.5c1-0.8,2-1.2,3.3-1.1c1.2,0,2.4,0.4,3.5,1.1c1.1,0.8,1.7,1.9,1.7,3.4c0.2,3.5,0.8,7.1,1.7,10.7
		c0.9,3.6,2,7.1,3.3,10.6c1.3,3.5,2.7,6.9,4.3,10.3C244.3,82.8,245.9,86.1,247.4,89.3z"/>
	<g>
		<path d="M80.7,170.9c1.5,0.3,2.6,0.5,3.7,0.8c4.5,1,8.5,2.8,11.9,6.1c1.8,1.8,3.3,3.8,3.8,6.4c0.1,0.4,0.2,0.7,0.2,1.1
			c0,0.9-0.9,1.6-1.7,1.3c-0.6-0.2-1.3-0.5-1.7-0.9c-2.6-2.5-5.7-4.2-8.8-5.9c-2-1.1-3.9-2.2-6-3.2c-1.6-0.8-3.3-1.3-4.9-2
			c-2-0.8-3.8-0.6-5.8,0.1c-4.4,1.7-8.4,4.1-12,7.2c-1.5,1.3-2.9,2.7-4.4,4c-0.9,0.8-1.7,0.9-2.2,0.4c-0.7-0.7-0.3-1.4,0.1-2.1
			c2.3-4.7,5.6-8.6,10.2-11.3c2.3-1.3,4.7-2.4,7.3-2.6c0.3,0,0.5-0.2,0.9-0.4c-0.1-0.4-0.1-0.8-0.2-1.1c-1.7-3.7-3.9-7-7.2-9.5
			c-2.7-2-5.3-4.2-8.4-5.6c-0.2-0.1-0.5-0.3-0.6-0.5c-0.4-0.5-0.2-1.5,0.5-1.6c0.5-0.1,1.1-0.1,1.7-0.1c2,0.2,3.8,1,5.5,2
			c3.9,2.3,7.3,5.3,10.1,8.9c0.7,0.9,1.2,1.9,1.8,2.9c0.2,0.3,0.4,0.5,0.8,1c0.4-1,0.7-1.7,1.1-2.5c1.1-2.1,2.1-4.2,3.3-6.2
			c2.8-4.2,6.7-7.1,11.5-8.7c1-0.3,2-0.4,3-0.5c0.6,0,1.2,0.3,1.3,0.9c0.1,0.4-0.1,0.9-0.3,1.3c-0.3,0.5-0.8,0.8-1.2,1.2
			c-2.4,2.4-4.9,4.7-7.3,7.1c-2.1,2.1-3.9,4.5-5.4,7.1c0.6,0.6,1,0.2,1.3,0c4.3-2.6,9.1-3.3,14.1-3.3c0.9,0,1.9,0.2,2.7,0.5
			c0.8,0.3,0.8,1.4,0.1,1.8c-0.7,0.4-1.5,0.7-2.3,0.9c-2.5,0.6-4.9,1.2-7.4,1.8c-2.6,0.6-5.1,1.3-7.5,2.4
			C81.6,170.1,81.3,170.4,80.7,170.9z"/>
		<path d="M73,202.8c0.5,2,0.9,3.9,1.4,6c-2.8,0.9-5.5,1-8.3,1.4c-0.9-1.9-0.9-3.9-1.2-5.7C66.6,203.5,70,202.8,73,202.8z"/>
		<path d="M74.9,210.6c0.8,2,1.4,3.7,1.7,5.6c-2.8,0.8-5.6,0.5-8.3,1c-1.1-1.7-1.4-3.3-1.8-5c1.2-1,2.7-0.7,4-1
			C71.8,210.9,73.2,210.8,74.9,210.6z"/>
		<path d="M64.9,202c-0.3-2.4-0.1-4.6,0.4-6.9c2.4-0.2,4.7,0.1,7,0.7c0.1,1.6,0.2,3.1,0.3,4.6C71,201.3,69.1,201.7,64.9,202z"/>
		<path d="M73.6,186.3c-0.2,2.7-0.8,4.9-1,7.3c-2.3,0.3-4.4-0.4-6.7-0.4c-0.2-2,0.5-3.6,1.1-5.4C69,186.9,71.1,186.8,73.6,186.3z"/>
		<path d="M69,218.9c2.9-0.5,5.6-0.6,8.3-0.9c0.3,1,0.6,1.8,0.9,2.6c0.2,0.8-0.2,1.5-1,1.7c-0.4,0.1-0.9,0.2-1.4,0.2
			c-0.7,0-1.5,0-2.2,0C70.8,222.6,70.3,222.8,69,218.9z"/>
		<path d="M74,184.5c-1.8,0.3-3.7,0.7-5.7,1.1c0-1.9,0.1-2,1.8-4.8c1.6-0.4,3.4-0.1,5.1-0.4C75.3,182.1,75.3,182.2,74,184.5z"/>
		<path d="M71.4,178.9c0.4-0.8,0.7-1.3,0.9-1.8c0.8-2,2.4-2.2,4.1-2c0.9,0.1,1.4,0.7,1.1,1.5c-0.2,0.6-0.5,1.2-0.7,1.9
			C75.1,178.9,73.5,178.9,71.4,178.9z"/>
	</g>
	<g>
		<path d="M186.8,210.6c6.5,0.1,12,4,14,9.9c0.5,1.4,0.7,2.8,0.3,4.3c-0.3,1.4-1,2.6-2.2,3.4c-0.4,0.2-0.8,0.4-1.2,0.5
			c-0.6,0.2-1.2,0.1-1.6-0.5c-0.1-0.1-0.2-0.3-0.3-0.4c-0.8-1-1.9-1.5-3.2-1.4c-3.1,0.2-6.1,0.2-9.2,0.3c-1.4,0-2.8,0-4.2,0.1
			c-0.7,0-1.3,0-2,0.1c-0.9,0.1-1.6,0.4-1.9,1.3c-0.3,0.8-0.9,0.9-1.6,0.9c-1.4-0.1-2.5-1-2.9-2.4c-0.4-1.2-0.3-2.3,0.2-3.4
			c0.5-1.1,0.7-2.2,0.8-3.4c0.3-2.1,1.3-3.9,3-5.2c1.4-1.1,3-1.9,4.6-2.6C181.5,211.2,184.8,210.5,186.8,210.6z"/>
		<path d="M185,245.5c-1.5-0.9-2.6-2-3.8-3c0.1-1.2,1.2-4.5,2.1-6.5c0.9,0.4,1.9,1.2,3.5,2.8c-0.1,0.4-0.2,0.9-0.3,1.4
			C186,241.9,185.5,243.6,185,245.5z"/>
		<path d="M183.7,234.7c0.8-2.2,1.5-4.3,2.4-6.4c1.1,0.5,1.9,1.3,3.1,2.7c-0.7,2.1-1.3,4.4-2,6.6
			C186.2,237.1,185.3,236.4,183.7,234.7z"/>
		<path d="M191.1,241c-0.3-0.1-0.5-0.2-0.6-0.3c-0.9-0.7-1.7-1.4-2.5-2.1c0.1-1.5,1.4-5.5,2.1-6.9c1.1,0.8,2.1,1.7,3,2.7
			C192.6,236.6,191.7,238.7,191.1,241z"/>
		<path d="M190.8,242.1c-0.7,2.2-1.2,4.4-2,6.5c-1.2-0.6-2-1.5-2.9-2.3c-0.1-1.2,0.4-2.3,0.7-3.4c0.3-1.1,0.6-2.2,1-3.4
			C188.8,240.2,189.7,241.2,190.8,242.1z"/>
		<path d="M182.7,235.1c-0.8,2.2-1.5,4.3-2.3,6.6c-0.3-0.3-0.5-0.5-0.6-0.7c-0.6-1.6-1.2-3.2-1.8-4.8c-0.1-0.3-0.2-0.7-0.1-1
			c0.3-1.1,0.7-2.2,1.3-3.3C180.5,232.9,181.6,234,182.7,235.1z"/>
		<path d="M179.4,230.8c0.4-1.1,0.8-2.1,1.3-3.2c1.6-0.1,3,0,4.5,0c0.1,0.2,0.2,0.3,0.2,0.4c-0.7,2-1.5,4.1-2.3,6.2
			C181.7,233.2,180.6,232.1,179.4,230.8z"/>
		<path d="M188.7,249.7c-0.5,1.6-1,3.1-1.5,4.5c-0.2,0.6-0.5,1.3-1.3,1.3c-0.7,0-0.9-0.7-1.2-1.3c-0.2-0.4-0.4-0.8-0.5-1.2
			c-0.1-0.3-0.2-0.6-0.1-0.8c0.5-1.6,0.8-3.3,1.5-5c0.7,0.2,1.1,0.8,1.6,1.2C187.6,248.8,188.1,249.2,188.7,249.7z"/>
		<path d="M191.3,227.4c0.8-0.1,1.6-0.2,2.4-0.2c0.3,0,0.6,0.1,0.9,0.1c0.5,0.5,0.3,0.9,0.2,1.3c-0.4,1.5-0.9,3-1.4,4.6
			c-1.3-0.7-2.1-1.7-3.1-2.6C190.5,229.6,190.8,228.6,191.3,227.4z"/>
		<path d="M180.9,243.4c1,0.7,1.8,1.4,2.6,2.1c0.4,0.3,0.8,0.7,1.2,1.1c-0.3,1.5-0.7,2.9-1.1,4.1c-0.2,0-0.2,0-0.3,0
			c0,0-0.1-0.1-0.1-0.1c-0.8-2.2-1.6-4.4-2.4-6.6C180.8,243.9,180.9,243.8,180.9,243.4z"/>
		<path d="M178.4,231.1c-0.3,1-0.5,1.8-1,2.7c-0.7-1.4-1.3-3.4-1.4-4.9C176.9,229.6,177.7,230.3,178.4,231.1z"/>
		<path d="M179.7,227.6c-0.2,1-0.5,1.7-1,2.5c-0.8-0.6-1.5-1.2-2.3-2.1C177.6,227.6,178.5,227.5,179.7,227.6z"/>
		<path d="M187.4,227.8c0.2-0.1,0.2-0.2,0.3-0.2c0.8,0,1.5,0,2.4,0c0.2,0.8-0.4,1.4-0.4,2.3C188.6,229.2,187.9,228.6,187.4,227.8z"
			/>
	</g>
	<g>
		<path d="M302.9,169.2c-2.5-1-2.6-1.2-3-3.5c0-0.3-0.1-0.5-0.1-0.8c-0.2-1.9,0-2.4,1.9-3c1.6-0.6,3.2-1.1,4.9-1.6
			c7.7-1.9,15.5-2.8,23.4-2.2c3.8,0.3,7.3-0.4,10.7-2c0.8-0.4,1.6-0.8,2.4-1.2c6.5-3.6,13.6-5.3,21-6.1c2.3-0.2,4.6-0.4,7-0.5
			c0.5,0,1.1,0,1.6,0c1,0.1,1.7,0.5,1.9,1.6c0.2,0.9,0.4,1.7,0.6,2.6c0.3,1.3,0.3,2.5-1.2,3.1c-0.3,0.1-0.5,0.7-0.6,1.1
			c-0.1,0.5,0,1.1,0.1,1.6c0.2,2.7,0,5.4-0.6,8c-1.5,6.7-6.8,10.7-13.3,11.6c-0.8,0.1-1.6,0.1-2.4-0.1c-4.4-0.8-8.4-2.6-11.1-6.4
			c-1.5-2-2.8-4.1-4.1-6.3c-1.2-1.9-1.6-2.1-3.7-1.4c-0.9,0.3-1.5,0.9-1.7,1.9c-0.2,1.2-0.4,2.5-0.7,3.7c-0.4,1.8-0.8,3.7-1.4,5.4
			c-1.6,4.6-5,7.5-9.5,9.1c-2,0.7-4,1-6.1,1.1c-0.4,0-0.9,0-1.3,0c-4-0.9-7.7-2.4-10.1-6c-1.7-2.6-3.1-5.2-3.9-8.2
			C303.3,170.3,303.1,169.8,302.9,169.2z M372.8,150c-0.9,0-1.8-0.1-2.8,0c-2.8,0.3-5.7,0.6-8.5,0.9c-4.1,0.4-8.1,1.6-11.9,3.1
			c-2.7,1-5.2,2.4-7.8,3.6c-3.5,1.7-7.2,2.6-11.1,2.4c-2.8-0.1-5.5-0.1-8.3,0c-6.9,0.2-13.7,1.7-20.2,3.9c-0.2,0.1-0.4,0.3-0.7,0.5
			c0.2,0.7,0.3,1.5,0.5,2.2c0.9,0.2,1.7,0.4,2.5,0.6c0.2,0.7,0.5,1.3,0.7,2c0.8,2.6,2.1,4.9,3.4,7.3c2.2,3.9,7.8,7.4,13.8,6
			c5.1-1.2,9-3.9,10.6-9.2c0.5-1.4,0.8-2.9,1.1-4.4c0.4-1.5,0.7-3,1-4.5c0.2-0.8,0.6-1.5,1.4-1.9c3.9-1.9,5.4-1.6,7.2,1.6
			c0.1,0.2,0.3,0.5,0.4,0.7c1.1,1.7,2.2,3.5,3.4,5.1c2.6,3.5,6.4,5.1,10.6,5.8c0.6,0.1,1.3,0,1.9,0c5.9-0.7,10.2-4.7,11.5-10.5
			c0.6-2.6,0.7-5.3,0.5-8c-0.2-1.5,0.1-2.9,1.7-3.5c0.1-0.1,0.2-0.3,0.3-0.5C373.7,152.2,373.6,151.1,372.8,150z"/>
		<path d="M358.1,153.7c2.5-0.2,5-0.4,7.5-0.6c0.5,0,1.1,0.1,1.6,0.1c1,0.2,1.5,0.7,1.8,1.7c0.7,2.6,1.1,5.3,0.8,8
			c-0.2,1.5-0.5,3-1.1,4.4c-1,2.4-2.8,4.1-5.3,4.9c-2.2,0.7-4.4,1-6.6,0.5c-1.5-0.3-3-0.7-4.4-1.2c-2.7-1-4.5-2.9-5.3-5.7
			c-0.4-1.4-0.8-2.9-1-4.4c-0.4-2.8,0.5-4.4,3.2-5.4C352.2,155.1,355.1,154.1,358.1,153.7z M358.5,167.4c0.2,0,0.4-0.1,0.6-0.1
			c1-2.8,1.7-5.8,2.2-8.7c0.1-0.4-0.2-1.1-0.4-1.1c-0.8-0.1-0.7,0.6-0.8,1.1c-0.3,1.4-0.6,2.8-0.9,4.1c-0.3,1.3-0.7,2.6-1,3.9
			C358.2,166.8,358.4,167.1,358.5,167.4z M357,160.5c-0.5,0.2-0.5,0.7-0.6,1.1c-0.3,1.4-0.1,2.2,0.3,2c0.8-0.4,0.6-1.2,0.7-1.8
			C357.6,161.3,357.8,160.7,357,160.5z"/>
		<path d="M317.5,162c2.6-0.8,5.5-1,8.4-1.3c0.5-0.1,1.1,0,1.6,0c1.4,0.1,2.4,0.8,3,1.9c0.3,0.5,0.6,1.1,0.8,1.7
			c0.3,1.6,0.7,3.1,0.8,4.7c0.2,2.9-0.8,5.4-3,7.4c-2.6,2.3-5.3,4.1-8.9,4.5c-3.3,0.3-6-0.7-8.2-3.1c-1.7-1.8-2.7-4-3.4-6.3
			c-0.4-1.3-0.7-2.6-0.9-3.9c-0.3-1.6,0.1-2.3,1.6-3c1.3-0.6,2.6-1.1,4-1.5C314.6,162.7,316,162.4,317.5,162z M324.2,164.4
			c-0.4,0.3-0.8,0.4-0.8,0.6c-0.8,2.8-1.5,5.7-2.2,8.5c0,0.2,0.2,0.4,0.3,0.6c1-1.3,1.4-2.6,2.7-8
			C324.2,165.6,324.2,165.1,324.2,164.4z M319,167.7c-0.9,1.7-1,2.9-0.9,4.2c0,0.4,0.3,0.6,0.8,0.3
			C319.1,170.9,319.7,169.6,319,167.7z"/>
	</g>
	<path d="M367.7,204.8c0.4,0,0.7,0,1,0c0.6,0,1.3,0.1,1.7-0.5c0.5-0.7,0.8-1.5,0.7-2.3c-0.1-0.6-0.4-1-1-1.2c-2-0.8-4-1.6-6-2.3
		c-0.2-0.1-0.4-0.1-0.7-0.2c-1.2-0.2-1.9,0.2-2.4,1.2c-0.6,1.3-0.5,1.8,0.7,2.7c0.1,0.1,0.3,0.1,0.4,0.3c0.1,0.1,0.2,0.2,0.3,0.4
		c0,0.1,0,0.3,0,0.4c-1.3,3.7-2.7,7.5-3.9,11.2c-2,5.8-4,11.7-5.9,17.5c-1,3-1.9,6.1-2.9,9.2c-0.8,2.4-0.6,4.8,0.3,7.1
		c0.1,0.3,0.2,0.6,0.3,0.8c2.1,4.9,3.1,6.1,7.7,8.5c1.6,0.8,3.3,1.6,5,2.2c0.9,0.3,1.9,0.5,2.9,0.6c2.4,0.3,4.6-0.3,6.7-1.7
		c2.5-1.6,4.5-3.6,5.7-6.4c0.3-0.8,0.8-1.3,1.7-1.3c0.7,0,1.1-0.4,1.4-1c0.4-0.7,1-1.5,0.7-2.3c-0.1-0.4-0.5-0.9-0.8-1
		c-1.9-0.7-3.9-1.4-5.8-2c-0.6-0.2-1.2,0.1-1.6,0.6c-0.1,0.1-0.2,0.3-0.2,0.4c-1.3,2-1.2,2.4,0.7,4.1c-0.2,0.3-0.3,0.8-0.6,1.1
		c-1.1,1.1-2.1,2.2-3.3,3.1c-1.6,1.2-3.5,1.5-5.4,1.1c-3.9-0.8-6.8-2.9-8.9-6.2c-0.9-1.4-1.1-3-1.1-4.6c0.1-2.2,0.6-4.4,1.3-6.5
		c2-5.8,4-11.7,6-17.5c1.6-4.7,3.2-9.4,4.9-14C367.3,205.9,367.5,205.4,367.7,204.8z"/>
	<path d="M342.3,186.2c-4.3-0.1-6.8-2.3-6.7-5.7c0.1-3.4,3-6.4,6-6.3c3.6,0.1,6.7,3.4,6.6,7.1C348.1,184,345.4,186.3,342.3,186.2z
		 M345.5,180.5c0-0.9-0.2-1.8-0.7-2.6c-0.3-0.6-1.3-1.4-1.9-0.7c-0.4,0.5-0.1,1.3,0,1.9c0.2,1,0.5,1.9,0.1,2.8
		c-0.1,0.2-0.2,0.4-0.3,0.6c-0.2,1.2,1,1.7,1.8,0.8c0.3-0.3,0.5-0.7,0.6-1.1C345.4,181.6,345.5,181,345.5,180.5z"/>
	<path d="M364.3,190.2c-2.8-0.1-4.4-1.5-4.4-3.7c0-2.2,1.9-4.2,3.9-4.1c2.4,0.1,4.4,2.2,4.3,4.6
		C368.1,188.7,366.3,190.2,364.3,190.2z M366.4,186.4c0-0.6-0.2-1.2-0.5-1.7c-0.2-0.4-0.9-0.9-1.2-0.4c-0.2,0.3-0.1,0.9,0,1.2
		c0.2,0.6,0.3,1.2,0,1.8c-0.1,0.1-0.1,0.3-0.2,0.4c-0.1,0.8,0.7,1.1,1.2,0.5c0.2-0.2,0.3-0.5,0.4-0.7
		C366.3,187.1,366.4,186.8,366.4,186.4z"/>
	<path d="M201.9,352.1c-3.7,2.3-7.9,4.5-13,3.7c-5-0.7-8.8-3.3-12.5-6.8c-1.4,0.8-2.7,1.5-4,2.4c-6.7,4.6-13.3,4.3-20-0.1
		c-0.7-0.5-1.4-0.9-2.1-1.3c-2.3,0.7-3.9,2.3-5.7,3.6c-7.1,5.1-14.8,2.6-19.6-3c-0.9-1-1.4-2.3-1.9-3.6c-0.4-1.1,0.3-2.3,1.4-3
		c1-0.6,2-0.4,2.8,0.3c0.8,0.6,1.4,1.4,2.2,2.1c1.1,1,2.2,2.1,3.4,3.1c3.2,2.4,6.5,2.8,9.9,0.5c1.7-1.1,3.4-2.3,4.9-3.6
		c2-1.7,4-1.8,6.1-0.6c1.4,0.7,2.6,1.6,4,2.3c4.3,2.2,8.5,2.2,12.5-0.6c1.5-1.1,3.1-2.1,4.6-3.2c2.2-1.4,3.4-1.4,5.5,0.3
		c0.9,0.7,1.8,1.6,2.8,2.3c5.4,3.5,11,4.3,16.8,1.1c0.6-0.3,1.1-0.7,1.7-1.1c1.8-1.1,3.8-1.1,5.2,0.4c3.5,3.6,7.9,3.6,12.3,3.4
		c4.3-0.2,8.4-1,12.3-3c0.6-0.3,1.3-0.7,1.9-0.7c0.6,0,1.4,0.4,1.7,0.8c0.3,0.5,0.5,1.5,0.2,1.8c-0.9,1.2-1.9,2.5-3.2,3.2
		c-5.7,2.8-11.5,5-18,5c-4.1,0-7.7-1.1-10.5-4.4c-0.3-0.4-0.7-0.7-1.1-1C202.8,352.3,202.6,352.3,201.9,352.1z"/>
	<path d="M341,383.1c-3.7,2.3-7.9,4.5-13,3.7c-5-0.7-8.8-3.3-12.5-6.8c-1.4,0.8-2.7,1.5-4,2.4c-6.7,4.6-13.3,4.3-20-0.1
		c-0.7-0.5-1.4-0.9-2.1-1.3c-2.3,0.7-3.9,2.3-5.7,3.6c-7.1,5.1-14.8,2.6-19.6-3c-0.9-1-1.4-2.3-1.9-3.6c-0.4-1.1,0.3-2.3,1.4-3
		c1-0.6,2-0.4,2.8,0.3c0.8,0.6,1.4,1.4,2.2,2.1c1.1,1,2.2,2.1,3.4,3.1c3.2,2.4,6.5,2.8,9.9,0.5c1.7-1.1,3.4-2.3,4.9-3.6
		c2-1.7,4-1.8,6.1-0.6c1.4,0.7,2.6,1.6,4,2.3c4.3,2.2,8.5,2.2,12.5-0.6c1.5-1.1,3.1-2.1,4.6-3.2c2.2-1.4,3.4-1.4,5.5,0.3
		c0.9,0.7,1.8,1.6,2.8,2.3c5.4,3.5,11,4.3,16.8,1.1c0.6-0.3,1.1-0.7,1.7-1.1c1.8-1.1,3.8-1.1,5.2,0.4c3.5,3.6,7.9,3.6,12.3,3.4
		c4.3-0.2,8.4-1,12.3-3c0.6-0.3,1.3-0.7,1.9-0.7c0.6,0,1.4,0.4,1.7,0.8c0.3,0.5,0.5,1.5,0.2,1.8c-0.9,1.2-1.9,2.5-3.2,3.2
		c-5.7,2.8-11.5,5-18,5c-4.1,0-7.7-1.1-10.5-4.4c-0.3-0.4-0.7-0.7-1.1-1C341.9,383.2,341.7,383.2,341,383.1z"/>
	<path d="M109.9,381.8c-1.1,0.9-2.1,1.6-2.9,2.5c-5.1,5.2-15,5.1-19.2-0.3c-0.3-0.4-0.8-0.7-1.3-1.1c-2.4,0.1-4.3,1.6-6.3,2.8
		c-3.4,1.9-7,2.8-10.8,2.3c-5.7-0.8-9.7-3.7-11.8-9.2c-0.2-0.5-0.5-1-0.4-1.5c0.2-0.8,0.5-1.7,1.1-2.1c0.6-0.4,1.7-0.5,2.3-0.2
		c0.9,0.4,1.7,1.2,2.3,1.9c5,5.4,11,6.4,17.7,3.8c1.1-0.4,2.3-0.8,3.3-1.4c2.6-1.5,5.1-1.5,7.6,0.3c2,1.4,4.2,2.1,6.7,2.1
		c2.5,0,4.7-0.5,6.8-1.9c0.8-0.6,1.7-1.1,2.5-1.7c2.3-1.9,4.6-1.8,7.1-0.2c0.7,0.5,1.5,0.8,2.2,1.3c4.6,3.1,9.6,3.3,14.7,2.2
		c3.6-0.8,7.4-1.4,10.7-3.3c0.6-0.3,1.7-0.2,2.3,0.2c0.9,0.6,0.9,1.8,0.3,2.7c-0.5,0.8-1.2,1.7-2.1,2.2c-5.2,2.5-10.5,4.8-16.5,4.9
		c-5,0.1-9.4-1.2-13.4-4.1C112,383.3,111.2,382.7,109.9,381.8z"/>
	<path d="M87.3,360.5c-2.6,1-5.1,2-7.6,3c-3.7,1.5-7.5,2.2-11.5,1.7c-3.6-0.4-7-1.6-9.3-4.6c-0.8-1-1.3-2.3-1.7-3.6
		c-0.3-1,0.2-2.1,1.2-2.5c0.7-0.3,1.6-0.2,2.4,0c0.6,0.2,1.1,0.8,1.6,1.2c6,4.7,12.6,5.4,19.7,2.7c1.1-0.4,2.2-0.9,3.2-1.5
		c2.5-1.5,4.8-1.3,7.1,0.3c3.8,2.6,8.3,3.1,12.7,2.7c6.1-0.7,12.2-1.3,17.7-4.1c0.9-0.4,1.7-0.3,2.3,0.4c0.8,0.9,0.9,2,0.2,2.8
		c-1,1.1-2.1,2.3-3.5,2.8c-4.3,1.7-8.5,3.4-13,4.5C100.7,368.4,94.4,366.6,87.3,360.5z"/>
	<path d="M163.2,369.5c-2.6,1-5.1,2-7.6,3c-3.7,1.5-7.5,2.2-11.5,1.7c-3.6-0.4-7-1.6-9.3-4.6c-0.8-1-1.3-2.3-1.7-3.6
		c-0.3-1,0.2-2.1,1.2-2.5c0.7-0.3,1.6-0.2,2.4,0c0.6,0.2,1.1,0.8,1.6,1.2c6,4.7,12.6,5.4,19.7,2.7c1.1-0.4,2.2-0.9,3.2-1.5
		c2.5-1.5,4.8-1.3,7.1,0.3c3.8,2.6,8.3,3.1,12.7,2.7c6.1-0.7,12.2-1.3,17.7-4.1c0.9-0.4,1.7-0.3,2.3,0.4c0.8,0.9,0.9,2,0.2,2.8
		c-1,1.1-2.1,2.3-3.5,2.8c-4.3,1.7-8.5,3.4-13,4.5C176.6,377.4,170.4,375.6,163.2,369.5z"/>
	<path d="M336.3,356.4c-2.6,1-5.1,2-7.6,3c-3.7,1.5-7.5,2.2-11.5,1.7c-3.6-0.4-7-1.6-9.3-4.6c-0.8-1-1.3-2.3-1.7-3.6
		c-0.3-1,0.2-2.1,1.2-2.5c0.7-0.3,1.6-0.2,2.4,0c0.6,0.2,1.1,0.8,1.6,1.2c6,4.7,12.6,5.4,19.7,2.7c1.1-0.4,2.2-0.9,3.2-1.5
		c2.5-1.5,4.8-1.3,7.1,0.3c3.8,2.6,8.3,3.1,12.7,2.7c6.1-0.7,12.2-1.3,17.7-4.1c0.9-0.4,1.7-0.3,2.3,0.4c0.8,0.9,0.9,2,0.2,2.8
		c-1,1.1-2.1,2.3-3.5,2.8c-4.3,1.7-8.5,3.4-13,4.5C349.7,364.2,343.5,362.5,336.3,356.4z"/>
	<path d="M273.4,363.5c-4.1,2.6-8.3,3.7-12.9,3.1c-3.4-0.4-6.6-1.7-9.2-3.9c-1.5-1.2-2.6-2.7-2.5-4.8c0-1.1,0.3-2.2,1.4-2.4
		c0.7-0.1,1.8,0.2,2.2,0.8c1.8,2.6,4.5,3.4,7.3,4.2c3.7,1.1,7.4,1,10.8-0.9c2.2-1.2,4.4-1.3,6.8-0.5c2.9,1,6,1.1,9.1,0.5
		c3.8-0.7,7.7-1.3,11.5-2c1.1-0.2,2,0.1,2.5,1.2c0.5,1.1-0.1,2-0.9,2.7c-0.6,0.5-1.4,1.1-2.1,1.3c-4.7,1.5-9.4,2.9-14.4,2.9
		C279.8,365.7,276.7,364.9,273.4,363.5z"/>
	<path d="M217.6,385.5c-4.1,2.6-8.3,3.7-12.9,3.1c-3.4-0.4-6.6-1.7-9.2-3.9c-1.5-1.2-2.6-2.7-2.5-4.8c0-1.1,0.3-2.2,1.4-2.4
		c0.7-0.1,1.8,0.2,2.2,0.8c1.8,2.6,4.5,3.4,7.3,4.2c3.7,1.1,7.4,1,10.8-0.9c2.2-1.2,4.4-1.3,6.8-0.5c2.9,1,6,1.1,9.1,0.5
		c3.8-0.7,7.7-1.3,11.5-2c1.1-0.2,2,0.1,2.5,1.2c0.5,1.1-0.1,2-0.9,2.7c-0.6,0.5-1.4,1.1-2.1,1.3c-4.7,1.5-9.4,2.9-14.4,2.9
		C224,387.7,220.9,387,217.6,385.5z"/>
</g>
</svg>
