<?xml version="1.0" encoding="utf-8"?>
<!-- Generator: Adobe Illustrator 18.0.0, SVG Export Plug-In . SVG Version: 6.00 Build 0)  -->
<!DOCTYPE svg PUBLIC "-//W3C//DTD SVG 1.1//EN" "http://www.w3.org/Graphics/SVG/1.1/DTD/svg11.dtd">
<svg version="1.1" id="Layer_1" xmlns="http://www.w3.org/2000/svg" xmlns:xlink="http://www.w3.org/1999/xlink" x="0px" y="0px"
	 viewBox="0 0 432 432" enable-background="new 0 0 432 432" xml:space="preserve">
<g>
	<g>
		<path d="M302.3,377c0,0.6-0.2,0.9-0.7,0.8s-0.7-0.3-0.7-0.8c0-0.3-0.1-0.6-0.3-0.8c-0.2-0.2-0.4-0.4-0.8-0.4c-1,0-2,0.5-2.8,1.6
			c-0.8,1-1.5,2.3-2.1,3.9c-0.6,1.6-1.1,3.2-1.4,5c-0.3,1.8-0.5,3.5-0.5,5c0,1.6,0.2,2.8,0.6,3.9c0.4,1,1,1.6,1.8,1.6
			c0.6,0,1.2-0.6,1.8-1.9c0.7-1.3,1.3-2.8,1.8-4.5s1-3.5,1.4-5.3c0.4-1.8,0.6-3.2,0.6-4.2c0-0.7,0.2-1.2,0.5-1.5
			c0.3-0.4,0.7-0.5,1.2-0.5c1.2,0,1.9,0.6,2.1,1.7s0.2,2.5,0,4.1s-0.5,3.2-0.8,4.9c-0.4,1.7-0.5,3-0.4,4c0.1,1,0.5,1.5,1.1,1.5
			c0.7,0,1.3-0.4,1.8-1.3c0.5-0.9,1-1.9,1.4-3c0.4-1.1,0.7-2.2,0.9-3.2c0.2-1,0.4-1.7,0.4-2c0.1-0.6,0.3-0.9,0.7-0.8
			c0.4,0,0.6,0.4,0.5,1c0,0.4-0.2,0.9-0.3,1.7c-0.2,0.7-0.4,1.5-0.6,2.4c-0.3,0.8-0.6,1.7-0.9,2.6c-0.4,0.9-0.8,1.7-1.2,2.4
			c-0.8,1.5-1.9,2.2-3.2,2.2c-0.8,0-1.5-0.2-2.1-0.7c-0.5-0.4-0.9-1-1.2-1.7c-0.3-0.7-0.5-1.5-0.5-2.3c-0.1-0.8-0.1-1.6,0-2.4
			c-0.2,0.8-0.6,1.8-1,2.9s-0.9,2.1-1.5,3.1c-0.6,1-1.3,1.8-2,2.5s-1.6,1.1-2.5,1.1c-1.6,0-2.8-0.6-3.7-1.9
			c-0.9-1.3-1.4-2.9-1.7-4.8c-0.2-1.9-0.2-4,0.2-6.2c0.4-2.2,1-4.3,1.9-6.2c0.9-1.9,2.1-3.5,3.5-4.8c1.4-1.3,3.1-1.9,5-1.9
			c1,0,1.8,0.3,2.5,0.9S302.3,375.8,302.3,377z"/>
		<path d="M316.9,362.5c0.8,0,1.5,0.2,2.3,0.7s1.1,1,1.1,1.5c0,0.1-0.1,0.2-0.3,0.2c-0.6,0-1.2,0.4-1.8,1.3
			c-0.6,0.9-1.2,2.1-1.8,3.5c1.2-0.4,2.3-0.8,3.3-1.4s2.1-1.1,3.1-1.7c1.1-0.6,2.1-1.1,3.3-1.5c1.1-0.4,2.3-0.7,3.6-0.9
			c0.6,0,1.1,0,1.8,0s1.2,0.2,1.7,0.4c0.5,0.2,0.9,0.6,1.2,1c0.3,0.4,0.5,1,0.5,1.8c0,0.7-0.2,1.4-0.6,2c-0.4,0.6-0.8,1-1.1,1.1
			c-0.2,0-0.3-0.1-0.3-0.3c0-0.7-0.3-1.1-1-1.4c-0.7-0.3-1.4-0.4-2.1-0.4c-1.5,0.1-2.9,0.3-4.1,0.6c-1.2,0.3-2.3,0.6-3.4,1
			s-2.1,0.7-3.1,1.1c-1,0.4-2.2,0.6-3.4,0.7c-0.7,2.2-1.3,4.7-1.8,7.4c-0.5,2.7-0.7,5.2-0.8,7.6c-0.1,2.3,0,4.3,0.4,5.9
			c0.4,1.6,1.1,2.4,2,2.4c0.6,0,1.2-0.3,1.7-0.8c0.5-0.5,1-1.2,1.5-2.1c0.5-0.9,0.9-1.9,1.3-3.1c0.4-1.2,0.7-2.4,1-3.7
			c0.1-0.7,0.4-0.9,0.8-0.9c0.4,0.1,0.5,0.4,0.4,1c-0.4,1.6-0.8,3.1-1.3,4.5c-0.4,1.4-0.9,2.5-1.4,3.5c-0.5,1-1.1,1.8-1.8,2.3
			c-0.7,0.6-1.4,0.8-2.3,0.8c-2,0-3.6-0.8-4.6-2.5c-1.1-1.6-1.7-3.7-2.1-6.2c-0.3-2.5-0.3-5.2,0-8.1c0.3-2.9,0.9-5.6,1.6-8.2
			c-1.1,0-2.2-0.1-3.4-0.4c-1.2-0.3-2.2-0.8-3-1.6l-0.1-0.1c-0.2-0.2-0.3-0.4-0.3-0.6c0-0.2,0.1-0.4,0.2-0.5s0.3-0.2,0.5-0.2
			c0.2,0,0.4,0.1,0.6,0.3c0.7,0.7,1.6,1.2,2.7,1.5c1.1,0.3,2.2,0.4,3.1,0.4c0.8-2.3,1.7-4.3,2.8-5.8
			C314.7,363.3,315.8,362.5,316.9,362.5z"/>
	</g>
	<g>
		<g>
			<path d="M79.2,173.6c4.6-2.8,8.6-6.6,12.1-11.4c-1.3-4.9-2.1-10.1-2.3-15.6c-0.3-5.4-0.1-10.9,0.4-16.5c0.6-5.5,1.5-11,2.8-16.4
				c1.3-5.4,2.7-10.6,4.4-15.6c0.9-2.5,2.4-4.2,4.5-5.3c2.1-1,4.2-1.3,6.4-0.8c2.2,0.5,4,1.7,5.5,3.5c1.5,1.9,2.1,4.6,1.9,8.1
				c-0.9,8-2.4,16-4.3,24c-2,8.1-4.7,15.8-8.1,23c0,3.5,0.3,7.1,0.8,10.6c0.5,3.5,1.2,7,2.3,10.6c0.6,2.1,1.5,3.8,2.5,5.3
				c1,1.4,2.3,2.2,3.8,2.4c4.2-3.2,8-7.6,11.4-13.2c3.5-5.6,6.2-12,8.2-19c-1.7-3.1-3.3-7.4-4.5-12.9c-1.3-5.5-2.2-11.5-2.7-17.9
				c-0.5-6.4-0.6-12.9-0.3-19.5c0.3-6.6,1.1-12.6,2.4-17.9c1.3-5.3,3.1-9.6,5.4-13c2.3-3.4,5.3-5.1,9-5.2c4.4-0.2,7.6,1.2,9.8,4.3
				c2.2,3.1,3.5,7.2,4,12.5c0.5,5.3,0.2,11.4-0.8,18.5c-1,7-2.6,14.3-4.6,21.9c-2,7.5-4.5,15-7.5,22.4c-2.9,7.4-6.1,14.2-9.4,20.3
				c-3.3,6.2-6.8,11.4-10.3,15.5c-3.6,4.2-7,6.8-10.2,8c-4.1-0.3-7.7-2-10.8-5c-3.2-2.9-5.5-6.3-7.1-10c-0.1-0.6-0.5-1.5-1-2.7
				c-4.1,5.1-8.6,9.1-13.6,11.7c-4.1-1.2-7.7-3.7-10.9-7.4c-3.2-3.7-5.5-7.7-7-11.7c-2.9-7.8-4.3-15.1-4.2-21.7
				c0.1-6.6,0.8-12.9,2-19c1.2-6.1,2.6-12.2,4.2-18.2c1.6-6,2.4-12.3,2.6-18.9c0.1-2.4,0.1-4.5,0.2-6.4c0.1-1.9-0.5-3.7-1.8-5.6
				c-0.3-0.4-0.5-0.8-0.8-1.2c-0.3-0.4-0.4-0.8-0.4-1.2c0-0.8,0.6-1.5,1.7-2.1c1.1-0.6,2.8-0.4,4.8,0.4c2.5,1,4.6,2.4,6.3,4.2
				c1.7,1.9,3.1,3.9,4.1,6.1c1,2.2,1.7,4.5,2.1,6.9c0.4,2.4,0.6,4.6,0.6,6.5c-0.1,5.1-0.8,10.1-1.9,15.2c-1.1,5.1-2.3,10.1-3.7,15.1
				c-1.3,5-2.5,10-3.6,15c-1,5-1.6,9.9-1.8,14.8c0,1.1,0,2.9,0.2,5.4c0.1,2.5,0.5,5,1.1,7.7c0.6,2.7,1.3,5.1,2.3,7.4
				C76.4,171.8,77.6,173.2,79.2,173.6z M137.4,73.5c-2.1,0.1-3.8,1.6-5.1,4.5c-1.3,3-2.3,6.7-2.9,11.2c-0.7,4.5-1.1,9.5-1.1,14.9
				c-0.1,5.4,0.1,10.7,0.4,15.7c0.4,5.1,0.9,9.6,1.6,13.6c0.7,4,1.6,6.8,2.5,8.3c0.9-2.8,1.9-6.8,3.1-11.9c1.1-5.1,2.1-10.6,3-16.4
				c0.9-5.9,1.5-11.7,1.9-17.4c0.4-5.7,0.5-10.5,0.2-14.4c0-0.4,0-1.1-0.2-1.9c-0.1-0.8-0.3-1.7-0.6-2.7c-0.3-1-0.6-1.8-1.1-2.5
				C138.7,73.8,138.1,73.5,137.4,73.5z"/>
		</g>
		<g>
			<path d="M167.5,80.6c1-2.4,2.4-4.8,4-7.2c1.6-2.4,3.4-4.6,5.3-6.6c2-2,4.1-3.7,6.5-5.1c2.4-1.4,4.9-2.4,7.6-2.9
				c1.8-0.3,3.3-0.1,4.4,0.7c1.1,0.8,1.9,1.9,2.4,3.3c0.5,1.4,0.8,3,0.7,4.8c0,1.8-0.2,3.4-0.3,4.8c-0.7,4.3-1.8,9.3-3.2,14.8
				c-1.5,5.5-3.4,11-5.6,16.5c-2.3,5.4-4.9,10.5-8,15c-3.1,4.6-6.4,8.1-10,10.6c-0.7,7-1.4,14-1.8,21.1c0.6-2.3,1.5-5.2,2.7-8.5
				c1.1-3.3,2.6-6.6,4.4-9.7c1.8-3.1,3.8-5.9,6.1-8.4c2.3-2.4,5-3.9,8.1-4.5c4-0.7,6.8,0,8.6,2.3c1.8,2.3,2.9,5.3,3.3,9.1
				c0.5,4,0.3,7.9-0.3,11.9c-0.7,4-1.5,8-2.4,12c-1,4-1.9,8.1-2.7,12.1c-0.9,4-1.3,8-1.3,11.9c0,4.3,1,6.3,2.8,6
				c1.1-0.2,2.4-1.5,3.7-3.8c1.3-2.3,2.6-5.1,3.9-8.5c1.3-3.4,2.5-7.1,3.7-11.2c1.2-4.1,2.2-7.9,3.2-11.5c0.9-3.6,1.7-6.8,2.4-9.7
				c0.6-2.9,1-4.8,1.2-5.8c0.3-2,1.1-3.1,2.4-3.1c1.3,0,1.7,0.9,1.4,2.8c-0.3,1.3-0.8,3.6-1.4,6.8c-0.6,3.2-1.5,6.8-2.5,10.8
				c-1,4-2.2,8.1-3.6,12.5c-1.4,4.3-2.9,8.3-4.4,12c-1.6,3.7-3.2,6.8-5,9.3c-1.8,2.5-3.6,3.9-5.4,4.3c-3.5,0.7-6.9,0.1-10-1.8
				c-3.1-1.9-5-5-5.6-9.2c-0.5-3.3-0.5-6.8,0.1-10.5c0.5-3.7,1.2-7.6,2-11.5c0.8-3.9,1.6-7.8,2.3-11.5c0.7-3.8,1.1-7.3,1.2-10.5
				c0.1-2.1-0.2-3.6-0.8-4.6c-0.6-0.9-1.3-1.3-2.2-1.2c-1.7,0.3-3.2,1.5-4.6,3.5c-1.4,2.1-2.7,4.6-3.9,7.7c-1.2,3.1-2.2,6.4-3.1,9.9
				c-0.9,3.6-1.6,7-2.3,10.4c-0.7,3.4-1.2,6.4-1.5,9.2c-0.4,2.7-0.5,4.6-0.6,5.8c0,1-0.8,1.6-2.4,1.8c-2.4,0.3-4,0-4.8-0.8
				c-0.8-0.9-1.3-2.3-1.6-4.2c-1-6.5-1.7-13.6-2.2-21.3c-0.5-7.7-0.6-15.6-0.2-23.6c0.4-8,1.3-16,2.7-23.9
				C162.2,95,164.5,87.6,167.5,80.6z M194.2,74.8c0-0.4,0.1-1.1,0.3-2c0.2-0.9,0.2-1.9,0.2-2.9c0-1-0.2-1.8-0.6-2.4
				c-0.3-0.6-0.9-0.9-1.6-0.8c-1.7,0.3-3.6,2.6-5.7,6.9c-3.9,7.8-7,16-9.3,24.7c-2.3,8.6-4.2,17.3-5.5,26.1c2.7-2.4,5.3-5.5,7.6-9.5
				c2.4-4,4.5-8.2,6.5-12.9c2-4.6,3.6-9.3,4.9-14C192.3,83.3,193.4,78.9,194.2,74.8z"/>
		</g>
		<g>
			<path d="M222.2,152.3c-0.4,4.8,0.3,8.8,2.2,11.9c1.9,3.1,5.2,4.2,9.8,3.4c4.1-0.8,7.9-2.9,11.5-6.3c3.5-3.4,6.7-7.3,9.4-11.6
				c2.7-4.3,5.1-8.7,7-13.2c1.9-4.5,3.3-8.2,4.1-11.3c0.5-1.9,1.3-2.8,2.6-2.7c1.3,0.1,1.6,1,1,2.9c0,0.1,0,0.1,0,0.2
				c-0.9,3.8-2.5,8.1-4.6,13.1c-2.1,5-4.7,9.8-7.8,14.4c-3.1,4.7-6.6,8.8-10.5,12.4c-3.9,3.6-8.2,5.8-12.8,6.7
				c-7.5,1.4-13.2,0.6-17-2.5c-3.9-3.1-6.3-7.4-7.5-12.9c-1.1-5.5-1-11.7,0.4-18.7c1.4-6.9,3.7-13.6,6.9-19.9
				c3.2-6.4,7.1-11.9,11.6-16.7c4.6-4.7,9.5-7.6,14.7-8.5c4.8-0.9,8.3,0,10.5,2.4c2.2,2.5,3.4,5.8,3.5,9.9c0.2,4.2-0.6,8.9-2.2,14.1
				c-1.6,5.2-3.8,10.2-6.5,14.8c-2.7,4.7-5.9,8.7-9.4,12.2c-3.5,3.5-7.2,5.5-11,6.3C226.1,153.2,224.1,153,222.2,152.3z
				 M237.7,107.3c-1.7,2.3-3.4,5-5.1,8.2c-1.6,3.2-3.1,6.5-4.4,10.1c-1.3,3.6-2.4,7.3-3.4,11.1c-0.9,3.8-1.7,7.5-2.2,11.1
				c1.5,1.2,3.3,1.6,5.5,1.2c2.7-0.5,5.2-2.1,7.6-4.8c2.4-2.7,4.6-5.9,6.5-9.5c1.9-3.7,3.5-7.6,4.7-11.6c1.2-4,2-7.8,2.4-11.2
				c0.4-3.4,0.3-6.2-0.3-8.3c-0.6-2.1-1.7-3.1-3.4-2.8C243.3,101.2,240.6,103.4,237.7,107.3z"/>
		</g>
		<g>
			<path d="M327.4,124.9c-0.5,2.3-1.1,5.2-1.7,8.7c-0.7,3.4-1.5,7-2.4,10.7c-0.9,3.7-2.1,7.4-3.6,11c-1.4,3.7-3.1,6.9-5,9.7
				c-1.9,2.8-4.1,5.1-6.6,6.9c-2.5,1.8-5.4,2.7-8.6,2.7c-6.5,0-11.2-1.8-14-5.9c-2.8-4.1-4.1-9.1-4-15c0.1-4.5,0.7-8.9,1.8-13.3
				c1.1-4.4,2.3-8.7,3.7-12.9c1.4-4.2,2.7-8.5,4-12.8c1.3-4.3,2.3-8.5,3-12.8c0.4-3.1,0.4-5.6,0.1-7.4c-0.3-1.8-1.1-2.7-2.4-2.6
				c-1,0-2.1,0.6-3.3,1.8c-1.2,1.1-2.4,3.1-3.6,6c-1.2,2.6-2.3,5.4-3.3,8.5c-1,3-2.1,5.9-3.4,8.7c-1.3,2.8-2.8,5.2-4.6,7.1
				c-1.8,2-4,3.1-6.5,3.4c-3.1,0.4-5.2-0.8-6.1-3.8c-1-2.9-1.3-6.3-0.9-10.1c0.4-3.8,1.3-7.3,2.8-10.6c1.5-3.3,3.2-5.1,5-5.3
				c2.3-0.3,4,0.2,5.1,1.4c1.2,1.2,1.9,2.8,2.1,4.8c0.2,2,0.2,4.3-0.1,6.7c-0.3,2.5-0.7,4.8-1.1,7c1.5-2.5,2.8-5.6,4-9
				c1.2-3.5,2.5-6.8,3.7-9.9c1.3-3.1,2.8-5.8,4.4-8.1c1.7-2.3,3.9-3.5,6.5-3.6c3.1-0.1,5.6,0.3,7.5,1.2c1.9,0.9,3.3,2.1,4.3,3.7
				c1,1.6,1.7,3.4,2,5.5c0.3,2.1,0.4,4.4,0.3,6.8c-0.1,4.4-0.7,8.6-1.8,12.6c-1.1,4.1-2.3,8-3.6,11.9c-1.3,3.9-2.5,7.8-3.6,11.7
				c-1.1,4-1.7,8-1.8,12.3c-0.1,4.6,0.3,8.6,1.4,12c1,3.4,2.8,5,5.1,5c2.2,0,4.3-0.8,6.2-2.6c1.9-1.8,3.6-4,5-6.8
				c1.5-2.8,2.8-5.9,3.9-9.4c1.1-3.5,2.1-6.9,2.9-10.3c0.8-3.4,1.5-6.5,2-9.5c0.6-3,1-5.3,1.3-6.9c0.3-1.9,1.1-2.7,2.3-2.4
				C327.3,122.1,327.7,123.2,327.4,124.9z"/>
		</g>
		<g>
			<path d="M326.7,141.8c-0.4,4.7,0.3,9,2.2,12.8c1.9,3.8,5.1,6.1,9.7,7.1c4.1,0.9,7.8,0.4,11.3-1.4c3.5-1.8,6.6-4.2,9.3-7.2
				c2.7-3,5-6.2,6.9-9.7c1.9-3.5,3.3-6.5,4-9.1c0.5-1.6,1.3-2.1,2.6-1.3c1.2,0.8,1.6,2,1,3.6c0,0.1,0,0.1,0,0.2
				c-0.9,3.3-2.4,6.8-4.5,10.6c-2.1,3.8-4.6,7.3-7.7,10.4c-3,3.1-6.5,5.5-10.3,7.3c-3.8,1.8-8.1,2.2-12.7,1.2
				c-7.4-1.6-13.1-4.2-16.9-8.5c-3.8-4.3-6.3-9.3-7.4-15.1c-1.1-5.8-1-12.1,0.4-18.7c1.4-6.6,3.6-12.7,6.8-18.2
				c3.2-5.5,7-9.8,11.5-13c4.5-3.1,9.4-4.1,14.5-2.7c4.8,1.3,8.2,3.8,10.4,7.4c2.2,3.6,3.3,7.6,3.5,11.9c0.2,4.3-0.5,8.7-2.1,13.2
				c-1.6,4.5-3.7,8.4-6.4,11.8c-2.7,3.4-5.8,6.1-9.3,8c-3.5,2-7.1,2.6-10.9,2C330.6,144.1,328.6,143.2,326.7,141.8z M342.1,102.2
				c-1.7,1.6-3.4,3.7-5,6.2c-1.6,2.6-3.1,5.4-4.3,8.6c-1.3,3.2-2.4,6.5-3.3,10c-0.9,3.5-1.7,7-2.2,10.4c1.5,1.8,3.3,2.8,5.4,3.2
				c2.7,0.5,5.2-0.2,7.5-1.9c2.4-1.7,4.5-4,6.4-6.9c1.9-2.9,3.5-6.1,4.7-9.6c1.2-3.5,2-6.9,2.4-10.2c0.4-3.3,0.3-6.1-0.3-8.6
				c-0.6-2.4-1.7-3.9-3.4-4.4C347.6,98.5,345,99.5,342.1,102.2z"/>
		</g>
	</g>
	<g>
		<g>
			<path d="M61.5,285c4.1,0,6.8,1.3,8.1,3.9c1.3,2.6,1.9,5.4,1.9,8.4c0.6-3,1.5-7,2.6-11.8c1.1-4.8,2.6-9.6,4.3-14.2
				c1.7-4.6,3.7-8.6,6.1-11.9c2.4-3.3,5.1-5,8.1-5c3.9,0,6.9,1,9.1,3.1c2.2,2.1,3.6,4.7,4.2,7.9c0.6,3.2,0.5,6.8-0.4,10.7
				c-0.8,3.9-2.2,7.8-4.1,11.5c-1.9,3.8-4.3,7.2-7.2,10.3c-2.9,3.1-6.1,5.4-9.6,7c4.8,1,8.6,3.1,11.4,6.4c2.8,3.3,4.7,7.1,5.6,11.4
				c1,4.3,1,8.8,0.2,13.6c-0.8,4.8-2.5,9.2-4.9,13.2c-2.4,4-5.5,7.3-9.3,9.9c-3.8,2.6-8.2,3.9-13.2,3.9c-2.4,0-4.2-0.9-5.4-2.8
				c-1.2-1.9-1.2-4-0.1-6.4c0.7-1.8,1.9-3.4,3.4-4.9c1.6-1.5,3.3-2.7,5.3-3.9c1.9-1.1,3.9-2.2,5.9-3.1c2-0.9,3.8-1.7,5.5-2.5
				c1-3.7,1.5-7.4,1.7-11.1c0.2-3.6-0.1-7-0.8-10c-0.7-3-2-5.5-3.8-7.5c-1.8-2-4.2-3.3-7.3-3.9c-2.2,1-4.4,1.5-6.7,1.6
				c-0.7,3.9-1.4,7.6-2.1,11.3c-0.7,3.6-1.2,6.9-1.7,9.9c-0.5,3-0.9,5.5-1.2,7.7c-0.3,2.2-0.5,3.8-0.6,4.9c-0.2,1.3-0.4,2.7-0.4,4
				c0,1.3,0.1,2.7,0.2,4.2c0.1,1-0.1,1.6-0.6,1.9c-0.5,0.3-1.2,0.3-1.9,0.1c-2.2-0.6-4.1-2-5.7-4.1c-1.6-2.1-2.8-4.7-3.4-7.9
				c-0.2-1.6-0.2-3.8,0-6.6c0.2-2.8,0.6-6,1.2-9.3c0.5-3.4,1.1-6.9,1.6-10.5c0.5-3.6,0.9-7,1.2-10.3c0.2-3.2,0.2-6,0-8.4
				c-0.2-2.4-0.8-4.2-1.8-5.3c-0.6-0.6-0.9-1.1-0.9-1.5c0-0.7,0.5-1.6,1.5-2.5C58.5,285.5,59.8,285,61.5,285z M71.6,356
				c-0.5,1.2-0.5,2.2,0,3c0.5,0.8,1.3,1.2,2.4,1.2c1.7,0,3.3-0.6,4.8-1.8c1.5-1.2,2.8-2.7,4-4.4c1.1-1.7,2.1-3.5,3-5.4
				c0.8-1.9,1.5-3.5,2-4.8c-1.3,0.5-2.8,1.1-4.4,1.9c-1.6,0.8-3.2,1.7-4.8,2.6c-1.6,1-3,2.1-4.3,3.4C73,353,72.1,354.4,71.6,356z
				 M92.5,261.6c-1.7,0-3.3,0.8-4.8,2.4c-1.5,1.6-2.9,3.6-4.2,6c-1.3,2.4-2.4,5.2-3.4,8.3c-1,3.1-2,6.1-2.8,9.1
				c-0.8,3-1.5,5.8-2.1,8.4c-0.5,2.7-1,4.8-1.4,6.4c0.7,0.1,1.5,0.2,2.4,0.4c0.8,0.1,1.7,0.3,2.5,0.5c2.2-0.8,4.2-2.5,6.2-4.8
				c1.9-2.4,3.7-5.1,5.2-8.1c1.5-3,2.8-6.2,3.8-9.6c1-3.4,1.7-6.5,2-9.3c0.3-2.8,0.2-5.1-0.4-6.9C95,262.5,94,261.6,92.5,261.6z"/>
		</g>
		<g>
			<path d="M119.6,340.4c-0.2,4.1,0.5,7.7,2.2,10.7c1.7,3,4.5,4.5,8.5,4.5c3.5,0,6.7-1.2,9.7-3.6c3-2.4,5.6-5.3,7.8-8.7
				c2.2-3.4,4.1-6.9,5.7-10.5c1.6-3.6,2.7-6.7,3.3-9.3c0.4-1.6,1.1-2.3,2.2-2.1c1.1,0.2,1.4,1.1,0.9,2.6v0.2
				c-0.7,3.1-1.9,6.7-3.6,10.8c-1.7,4.1-3.8,7.9-6.4,11.5c-2.5,3.6-5.4,6.7-8.7,9.3c-3.3,2.5-6.9,3.8-10.9,3.8
				c-6.4,0-11.3-1.7-14.7-5c-3.4-3.3-5.6-7.5-6.7-12.4c-1.1-5-1.1-10.3-0.1-16.1c1-5.7,2.8-11.1,5.4-16.1c2.6-5,5.8-9.1,9.6-12.4
				c3.8-3.3,8-5,12.4-5c4.1,0,7.1,1.2,9.1,3.6c1.9,2.4,3,5.4,3.3,9.1c0.2,3.6-0.3,7.6-1.5,11.9c-1.3,4.3-3,8.3-5.3,11.9
				c-2.2,3.6-4.8,6.7-7.8,9.1c-3,2.4-6.1,3.6-9.3,3.6C122.9,341.8,121.3,341.3,119.6,340.4z M131.9,304c-1.5,1.7-2.8,3.8-4.2,6.2
				c-1.3,2.5-2.5,5.1-3.5,8c-1,2.9-1.9,5.9-2.6,9c-0.7,3.1-1.3,6.2-1.6,9.2c1.3,1.3,2.9,2,4.7,2c2.3,0,4.4-1,6.4-2.9
				c2-1.9,3.8-4.3,5.4-7.2c1.6-2.9,2.8-6,3.8-9.3c1-3.3,1.6-6.4,1.8-9.3c0.2-2.9,0.1-5.3-0.5-7.2c-0.5-1.9-1.5-2.9-3-2.9
				C136.6,299.7,134.3,301.1,131.9,304z"/>
		</g>
		<g>
			<path d="M188,302.1c0,1.6-0.6,2.3-1.7,2.2c-1.2-0.1-1.7-0.8-1.7-2.2c0-0.8-0.2-1.6-0.7-2.2c-0.5-0.6-1.2-0.9-2-0.9
				c-2.7,0-5.1,1.3-7.2,4c-2.1,2.7-4,6-5.5,10c-1.6,4-2.8,8.3-3.6,12.9c-0.8,4.6-1.3,8.9-1.3,12.9c0,4,0.5,7.3,1.5,10
				c1,2.7,2.6,4,4.6,4c1.5,0,3-1.6,4.7-4.9c1.7-3.3,3.3-7.1,4.7-11.6c1.5-4.5,2.7-9,3.7-13.6c1-4.6,1.5-8.2,1.5-10.9
				c0-1.7,0.4-3,1.3-3.9c0.8-0.9,1.9-1.4,3.1-1.4c3.1,0,5,1.5,5.5,4.4c0.5,3,0.5,6.5,0,10.6c-0.5,4.1-1.3,8.3-2.2,12.6
				c-0.9,4.3-1.2,7.8-1,10.4c0.4,2.5,1.3,3.8,2.7,3.8c1.7,0,3.2-1.1,4.6-3.4c1.4-2.3,2.6-4.9,3.6-7.8c1-2.9,1.8-5.7,2.5-8.3
				c0.6-2.7,1-4.4,1.1-5.3c0.2-1.6,0.9-2.3,1.9-2.2c1,0.1,1.4,1,1.2,2.5c-0.1,1-0.4,2.4-0.8,4.3c-0.4,1.9-1,3.9-1.6,6.1
				c-0.7,2.2-1.5,4.4-2.5,6.7c-1,2.3-2,4.4-3.1,6.2c-2.1,3.8-4.8,5.6-8.3,5.6c-2.2,0-4-0.6-5.4-1.7c-1.4-1.1-2.4-2.6-3.2-4.4
				c-0.7-1.8-1.2-3.8-1.4-5.9c-0.2-2.1-0.2-4.1,0.1-6.1c-0.6,2.2-1.5,4.7-2.5,7.5c-1.1,2.8-2.4,5.5-3.9,8.1
				c-1.5,2.5-3.2,4.7-5.2,6.5c-1.9,1.8-4.1,2.7-6.4,2.7c-4.1,0-7.3-1.7-9.5-5c-2.2-3.3-3.7-7.5-4.3-12.4c-0.6-5-0.5-10.3,0.5-16.1
				c0.9-5.7,2.5-11.1,4.9-16.1c2.4-5,5.4-9.1,9.1-12.4c3.7-3.3,8-5,12.8-5c2.5,0,4.7,0.8,6.5,2.4C187.1,296.6,188,298.9,188,302.1z"
				/>
		</g>
		<g>
			<path d="M233,308c1,0,1.7,0.2,2.2,0.7c0.5-0.5,0.9-1.3,1.3-2.4c0.4-1.1,0.6-2.2,0.6-3.3c0.1-1.1-0.1-2-0.5-2.8
				c-0.4-0.8-1.1-1.2-2.2-1.2c-2.9,0-5.7,1.6-8.3,4.8c-2.6,3.2-4.9,7.2-6.8,12.1c-1.9,4.9-3.4,10.1-4.4,15.7
				c-1,5.6-1.3,10.9-1.1,15.7c0.2,4.9,1.2,8.9,2.9,12.1c1.7,3.2,4.3,4.8,7.8,4.8c3.5,0,6.7-1.7,9.7-5c3-3.3,5.6-7.2,7.8-11.7
				c2.2-4.5,4.1-9,5.7-13.5c1.6-4.5,2.7-8.1,3.3-10.6c0.5-1.6,1.2-2.3,2.3-2.1c1,0.2,1.3,1.1,0.8,2.6v0.2c-0.5,2.1-1.2,4.6-2.2,7.6
				c-1,3-2.1,6.2-3.4,9.4c-1.3,3.3-2.8,6.5-4.4,9.7c-1.7,3.2-3.6,6.1-5.6,8.7c-2.1,2.6-4.2,4.7-6.5,6.3c-2.3,1.6-4.8,2.4-7.4,2.4
				c-6.1,0-10.8-1.9-14.2-5.6c-3.4-3.8-5.7-8.4-6.9-14c-1.2-5.6-1.3-11.6-0.5-18.2c0.8-6.6,2.5-12.7,5.1-18.2
				c2.5-5.6,5.8-10.2,9.8-14c4-3.7,8.5-5.6,13.4-5.6c3.7,0,6.4,1.2,7.8,3.7c1.5,2.5,2.1,5.2,1.8,8.2c-0.2,3-1.1,5.7-2.6,8.2
				c-1.5,2.5-3.3,3.7-5.4,3.7c-1.1,0-2.1-0.4-2.9-1.2c-0.8-0.8-1.3-1.8-1.3-3s0.4-2.2,1.3-3C230.9,308.4,231.9,308,233,308z"/>
		</g>
		<g>
			<path d="M253.3,269.9c0.8-1.9,1.9-3.8,3.3-5.7c1.3-1.9,2.8-3.5,4.4-5c1.6-1.5,3.4-2.6,5.4-3.5c2-0.9,4.1-1.4,6.4-1.4
				c1.6,0,2.8,0.4,3.8,1.3c1,0.8,1.7,1.9,2.2,3.3c0.5,1.3,0.7,2.8,0.7,4.3c0,1.5-0.1,2.9-0.2,4.1c-0.5,3.6-1.3,7.7-2.5,12.3
				c-1.2,4.5-2.6,9-4.4,13.3c-1.8,4.4-4,8.3-6.5,11.8c-2.5,3.5-5.3,6.1-8.3,7.8c-0.5,5.9-0.8,11.9-1.1,18c0.5-1.9,1.2-4.3,2.1-7
				c0.9-2.7,2.1-5.3,3.5-7.8c1.5-2.5,3.1-4.6,5.1-6.4c1.9-1.8,4.2-2.6,6.9-2.6c3.4,0,5.9,1.1,7.4,3.4c1.6,2.2,2.6,5.1,3.1,8.4
				c0.5,3.5,0.5,6.9,0,10.3c-0.5,3.3-1.1,6.7-1.8,10c-0.7,3.3-1.4,6.7-2.1,10c-0.7,3.3-0.9,6.7-0.8,10.1c0.1,3.7,1,5.6,2.5,5.6
				c1,0,2-0.9,3.1-2.6c1.1-1.8,2.1-4,3.2-6.7c1-2.7,2-5.7,2.9-9.1c0.9-3.3,1.7-6.5,2.5-9.4c0.7-3,1.3-5.6,1.8-8
				c0.5-2.4,0.8-4,0.9-4.8c0.2-1.7,0.9-2.5,2-2.3c1.1,0.2,1.5,1.1,1.3,2.6c-0.2,1.1-0.6,3-1.1,5.6c-0.5,2.7-1.1,5.6-1.9,8.9
				c-0.8,3.3-1.7,6.7-2.8,10.2c-1.1,3.5-2.3,6.7-3.5,9.6c-1.3,2.9-2.6,5.3-4.1,7.2c-1.5,1.9-3,2.8-4.5,2.8c-3,0-5.9-1.1-8.6-3.2
				c-2.7-2.1-4.4-5.1-5-8.8c-0.5-2.9-0.5-5.9-0.2-9.1c0.4-3.1,0.8-6.4,1.5-9.6c0.6-3.3,1.2-6.5,1.7-9.6c0.5-3.1,0.8-6.1,0.8-8.9
				c0-1.8-0.3-3.2-0.8-4.1c-0.5-0.9-1.2-1.4-1.9-1.4c-1.5,0-2.8,0.8-3.9,2.4c-1.2,1.6-2.2,3.6-3.2,6.1c-1,2.5-1.8,5.2-2.5,8.2
				c-0.7,3-1.2,5.9-1.7,8.7c-0.5,2.8-0.8,5.4-1.1,7.7c-0.2,2.3-0.4,3.9-0.4,4.9c0,0.8-0.7,1.3-2,1.3c-2.1,0-3.4-0.4-4.2-1.3
				c-0.7-0.8-1.2-2.1-1.5-3.8c-1-5.7-1.8-11.9-2.4-18.6c-0.6-6.7-0.8-13.5-0.7-20.4c0.1-6.9,0.7-13.7,1.8-20.3
				C249.1,281.8,250.9,275.6,253.3,269.9z M276.2,268.7c0-0.4,0.1-0.9,0.2-1.7c0.1-0.8,0.2-1.6,0.1-2.5c-0.1-0.8-0.2-1.6-0.5-2.2
				c-0.3-0.6-0.8-0.9-1.4-0.9c-1.5,0-3,1.7-4.7,5.1c-3.1,6.2-5.6,12.8-7.4,20c-1.8,7.1-3.2,14.4-4.2,21.8c2.3-1.7,4.4-4.1,6.4-7.2
				c1.9-3.1,3.7-6.5,5.3-10.2c1.6-3.7,2.9-7.5,3.9-11.3C274.8,275.7,275.6,272.1,276.2,268.7z"/>
		</g>
		<g>
			<path d="M302,340.4c-0.2,4.1,0.5,7.7,2.2,10.7c1.7,3,4.5,4.5,8.5,4.5c3.5,0,6.7-1.2,9.7-3.6c3-2.4,5.6-5.3,7.8-8.7
				c2.2-3.4,4.1-6.9,5.7-10.5c1.6-3.6,2.7-6.7,3.3-9.3c0.4-1.6,1.1-2.3,2.2-2.1c1.1,0.2,1.4,1.1,0.9,2.6v0.2
				c-0.7,3.1-1.9,6.7-3.6,10.8c-1.7,4.1-3.8,7.9-6.4,11.5s-5.4,6.7-8.7,9.3c-3.3,2.5-6.9,3.8-10.9,3.8c-6.4,0-11.3-1.7-14.7-5
				c-3.4-3.3-5.6-7.5-6.7-12.4c-1.1-5-1.1-10.3-0.1-16.1c1-5.7,2.8-11.1,5.4-16.1c2.6-5,5.8-9.1,9.6-12.4c3.8-3.3,8-5,12.4-5
				c4.1,0,7.1,1.2,9.1,3.6c1.9,2.4,3,5.4,3.3,9.1c0.2,3.6-0.3,7.6-1.5,11.9c-1.3,4.3-3,8.3-5.3,11.9c-2.2,3.6-4.8,6.7-7.8,9.1
				c-3,2.4-6.1,3.6-9.3,3.6C305.3,341.8,303.6,341.3,302,340.4z M314.3,304c-1.5,1.7-2.8,3.8-4.2,6.2c-1.3,2.5-2.5,5.1-3.5,8
				c-1,2.9-1.9,5.9-2.6,9c-0.7,3.1-1.3,6.2-1.6,9.2c1.3,1.3,2.9,2,4.7,2c2.3,0,4.4-1,6.4-2.9c2-1.9,3.8-4.3,5.4-7.2
				c1.6-2.9,2.8-6,3.8-9.3c1-3.3,1.6-6.4,1.8-9.3c0.2-2.9,0.1-5.3-0.5-7.2c-0.5-1.9-1.5-2.9-3-2.9C319,299.7,316.7,301.1,314.3,304z
				"/>
		</g>
		<g>
			<path d="M361.3,311.5c0,1.8-0.5,3.4-1.4,4.8c-0.9,1.4-2,2.6-3.4,3.5c-1.3,1-2.8,1.7-4.4,2.3c-1.6,0.5-3.1,0.9-4.5,1
				c1.3,3.8,3.4,7.3,6.3,10.6c2.8,3.3,5.4,6.4,7.7,9.2c2.8-2.8,5.3-5.7,7.5-8.9c2.2-3.1,3.9-6.7,5-10.5c0.4-1.6,1.1-2.3,2.1-2.1
				c1,0.2,1.4,1.1,1,2.6l-0.2,0.2c-1.1,4.4-2.8,8.2-5.3,11.6c-2.4,3.4-5.1,6.5-8.2,9.4c3,3.6,5.4,7.4,7.3,11.3
				c1.8,3.9,2.7,7.8,2.7,11.7c0,4.4-0.9,8.1-2.6,11.3c-1.8,3.2-3.9,5.9-6.5,8c-2.6,2.1-5.5,3.7-8.6,4.7c-3.1,1-6.1,1.5-8.9,1.5
				c-4.8,0-8.4-1.6-10.8-4.9c-2.4-3.3-3.2-7-2.4-11.3c1.1-5.6,3.5-10.5,7.3-14.7c3.7-4.2,7.6-8.2,11.6-11.8
				c-2.1-2.3-4.1-4.7-6.3-7.1c-2.1-2.4-4.1-4.9-5.9-7.4c-1.8-2.5-3.3-5-4.4-7.6c-1.2-2.6-1.7-5.2-1.7-7.9c0-2.3,0.4-4.6,1.2-7
				c0.8-2.4,1.9-4.5,3.4-6.4c1.5-1.9,3.2-3.5,5.3-4.6c2.1-1.1,4.4-1.7,6.9-1.7c2.8,0,5.2,0.9,7.3,2.8
				C360.3,306.2,361.3,308.6,361.3,311.5z M346.8,389.5c3.1,0,5.8-0.8,7.9-2.5c2.1-1.7,3.7-3.8,4.9-6.4c1.1-2.6,1.8-5.4,1.9-8.5
				c0.1-3.1-0.3-6-1.3-8.6c-0.6-1.7-1.4-3.3-2.4-4.9c-1-1.6-2.1-3.1-3.3-4.7c-1.7,1.6-3.5,3.2-5.4,4.9c-1.9,1.7-3.6,3.5-5.3,5.4
				c-1.6,1.9-3.1,4-4.3,6.1c-1.2,2.1-2.1,4.4-2.5,6.8c-0.6,3.5-0.1,6.5,1.5,8.9C340.3,388.3,343,389.5,346.8,389.5z M353.7,306.2
				c-1.3,0-2.4,0.4-3.4,1.2c-0.9,0.8-1.6,1.8-2.2,3c-0.5,1.2-0.9,2.5-1.2,3.7c-0.2,1.3-0.4,2.4-0.4,3.4c0,0.4,0,0.8,0.1,1.2
				c0.1,0.4,0.1,0.8,0.1,1.2h0.2c1.1,0,2.3-0.2,3.6-0.5c1.3-0.4,2.5-0.9,3.6-1.6c1.1-0.7,2-1.6,2.8-2.6c0.8-1,1.2-2.2,1.2-3.5
				c0-1.3-0.4-2.5-1.3-3.6C356.1,306.8,355,306.2,353.7,306.2z"/>
		</g>
	</g>
	<g>
		<g>
			<path d="M58.5,230.8c0.5,3.6,1.1,7.1,1.5,10.7c0.8,6,0.4,11.8-1.2,17.7c-1,3.7-2,7.5-3,11.2c0,0.1-0.1,0.2-0.1,0.3
				c0.1,0.5,0.2,0.9,0.3,1.4c0.3-0.3,0.8-0.5,1-0.9c3.9-7.4,7-15.1,9.4-23.1c1.1-3.5,1.3-7.3,1.8-11c0.5-3.3,0.2-6.5-0.6-9.7
				c0-0.1,0-0.2-0.1-0.2c-0.6-1.8-1.5-3.4-3.5-3.8c-2-0.3-3.1,1.1-4.1,2.5C58.9,227.4,58.5,229,58.5,230.8z"/>
		</g>
		<g>
			<path d="M81,255.4c-0.1-1.4-0.4-2.8-1.7-3.6c-1.4-0.8-2.9-0.6-4,0.4c-1.4,1.3-2.8,2.7-3.7,4.4c-1.4,2.6-2.2,5.5-3.3,8.3
				c-2.2,5.6-4.7,11-8.4,15.8c-0.2,0.3-0.2,0.8-0.3,1.2c0.5-0.1,1,0,1.4-0.2c5.6-3.8,10.4-8.6,14.5-14c2.5-3.3,4.2-7,5.3-11
				C81,256.3,81,255.8,81,255.4z"/>
		</g>
	</g>
	<g>
		<g>
			<path d="M327.5,283.6c0-0.8,0.4-1.2,0.8-1.5c1.2-1,2.4-2,3.6-2.8c3.5-2.4,7.1-4.7,10.7-7c5.3-3.4,10.7-6.8,16.1-10.2
				c1.8-1.2,2.3-1.1,3.6,0.7c3.4,4.5,5.6,9.5,6.5,15c0.7,4.4,0.9,8.9-0.7,13.2c-0.3,0.8-0.7,1.7-1.1,2.5c-0.4,0.7-0.9,1.3-1.7,1.6
				c-4.8-1.3-9.6-2.6-14.4-4c-4.5-1.3-9-2.5-13.5-3.8c-2.3-0.7-4.7-1.4-7-2.1C329.3,284.8,328.3,284.3,327.5,283.6z M351.5,285.2
				c1.5,1.4,3.1,2.2,5,2c0.8-0.1,1.4-0.8,1.5-1.6c0.1-0.7-0.5-1.4-1.4-1.6c-1.3-0.3-2.6-0.2-3.9,0.3
				C352.3,284.6,352,284.9,351.5,285.2z M354.3,274.4c1.5,0.5,2.9,0.4,4.3-0.1c0.3-0.1,0.6-0.4,0.8-0.6c0.4-0.4,0.5-0.8,0.3-1.3
				c-0.2-0.5-0.6-0.8-1.1-0.9c-0.3-0.1-0.7-0.1-1,0c-1.3,0.4-2.4,1.1-3.2,2.2C354.3,273.9,354.4,274.1,354.3,274.4z M345,276.8
				c0.2,0.1,0.5,0.3,0.6,0.3c0.7-0.3,1.4-0.6,2.1-1c0.5-0.3,1-0.8,1.4-1.2c0.4-0.4,0.3-1.2,0-1.5c-0.4-0.4-0.9-0.5-1.3-0.3
				c-0.4,0.1-0.8,0.3-1,0.7c-0.6,0.8-1.1,1.7-1.7,2.6C345,276.3,345.1,276.5,345,276.8z M341.2,282.8c1.4,1.2,2.7,1.6,4.1,1.5
				c0.4,0,0.9-0.3,1.3-0.6c0.6-0.5,0.4-1.5-0.3-1.7c-0.4-0.1-0.8-0.2-1.2-0.2C343.8,281.8,342.7,282.2,341.2,282.8z"/>
		</g>
		<g>
			<path d="M370.2,295.7c-0.1-0.2-0.3-0.3-0.3-0.5c0-0.3,0.1-0.7,0.3-1c2.2-4.6,2.7-9.5,2.1-14.5c-0.3-2.3-0.7-4.7-1.3-7
				c-1-3.9-3.1-7.3-5.7-10.4c-0.7-0.8-1.3-1.6-2-2.4c-0.1-0.1-0.1-0.5,0-0.6c0.2-0.1,0.6-0.3,0.7-0.2c0.6,0.4,1.1,0.9,1.6,1.4
				c3,3.4,5.2,7.3,6.6,11.6c1.5,4.7,2.1,9.5,1.5,14.5c-0.3,2.8-1.2,5.4-2.4,8C371.1,295,371,295.6,370.2,295.7z"/>
		</g>
	</g>
	<g>
		<g>
			<path d="M129.8,223c-0.7,0-1.3,0.6-1.2,1.2c0,0.6,0.7,1.2,1.3,1.1c0.6,0,1.1-0.5,1.1-1.1C131.1,223.6,130.5,223,129.8,223z"/>
		</g>
		<g>
			<path d="M127.2,241.3c-0.6,0-1.2,0.6-1.1,1.3c0.1,0.7,0.6,1.2,1.3,1.1c0.5-0.1,1-0.6,1-1.1C128.5,241.9,127.9,241.3,127.2,241.3z
				"/>
		</g>
		<g>
			<path d="M123.1,220.3c-0.6,0.1-1,0.6-1,1.2c0.1,0.7,0.7,1.2,1.3,1.2c0.6,0,1.2-0.7,1.1-1.4C124.4,220.7,123.8,220.3,123.1,220.3z
				"/>
		</g>
		<g>
			<path d="M138.5,225c-0.6,0-1.1,0.6-1.1,1.3c0,0.6,0.5,1.1,1,1.1c0.7,0,1.3-0.5,1.3-1.2C139.8,225.6,139.2,225,138.5,225z"/>
		</g>
		<g>
			<path d="M138.8,217.1c-0.6-0.1-1.1,0.4-1.2,0.9c-0.1,0.7,0.3,1.3,1,1.4c0.6,0.1,1.3-0.5,1.3-1.2
				C139.8,217.7,139.3,217.2,138.8,217.1z"/>
		</g>
		<g>
			<path d="M132.5,233.1c-0.7,0-1.3,0.6-1.2,1.2c0.1,0.7,0.6,1.2,1.3,1.2c0.7,0,1.2-0.6,1.2-1.2
				C133.7,233.7,133.2,233.1,132.5,233.1z"/>
		</g>
		<g>
			<path d="M272.3,266.3c0.3,0.1,0.5,0.3,0.8,0.5c1.1,1.1,0.8,2.3,0.3,3.3c-0.7,1.2-2.1,2.3-0.7,3.7c0.1,0.1,0.2,0.2,0.3,0.3
				c0.5-2,0.9-3.9,1.2-5.7c0-0.5,0.1-1,0.2-1.8c0.1-0.6,0.1-1.3,0.1-2c0-0.4-0.1-0.7-0.2-1C273.9,263.9,273.2,264.7,272.3,266.3z"/>
		</g>
		<g>
			<path d="M268.2,275.2c-1.5,3.8-2.8,7.7-3.8,11.7c-0.4,1.4-0.7,2.9-1,4.3c1.4,0,2.7-0.1,4.1-0.2c0.2-0.4,0.3-0.7,0.5-1
				c1.5-3.6,2.8-7.3,3.8-11.1c0-0.2,0.1-0.4,0.1-0.5c-0.3-0.2-0.6-0.3-0.8-0.5C269.8,277.2,268.9,276.3,268.2,275.2z"/>
		</g>
		<g>
			<path d="M122.1,247.6c-0.6,0-1.1,0.5-1.1,1c0,0.8,0.6,1.4,1.3,1.4c0.5,0,1.1-0.5,1.1-1.1C123.4,248.3,122.8,247.6,122.1,247.6z"
				/>
		</g>
		<g>
			<path d="M280,275.6c5.9-2.4,9.8-6.9,11.6-13.1c1.9-6.3,2-12.9,2.5-19.3c0.3-2.9,0.3-5.9,0.4-8.6c-0.1-0.1-0.3-0.1-0.3-0.1
				c-0.8,2-1.5,4-2.3,6c-1.3,3.6-3.1,7.1-6.1,9.6c-2.5,2.2-5.7,3.2-9,3.2c0.4,0.2,0.8,0.5,1.1,0.8c1.2,1.1,2.2,2.5,2.8,4.1
				c0.6,1.6,0.9,3.2,0.9,5c0,1.6-0.1,3-0.2,4.3C281.2,269.9,280.7,272.7,280,275.6z"/>
		</g>
		<g>
			<path d="M116.2,217.7c-0.5,0-1,0.6-1,1.1c0,0.7,0.5,1.2,1.2,1.2c0.7,0,1.2-0.6,1.2-1.2C117.4,218.2,116.8,217.6,116.2,217.7z"/>
		</g>
		<g>
			<path d="M154.6,251c0.7-0.1,1.2-0.7,1.1-1.4c-0.1-0.6-0.6-1-1.2-1c-0.7,0-1.2,0.6-1.2,1.3C153.3,250.5,154,251.1,154.6,251z"/>
		</g>
		<g>
			<path d="M165.1,219.3c-0.7,0-1.1,0.6-1,1.3c0.1,0.6,0.6,1,1.2,0.9c0.6-0.1,1-0.6,0.9-1.2C166.2,219.7,165.7,219.3,165.1,219.3z"
				/>
		</g>
		<g>
			<path d="M157.1,222c-0.4,0.1-0.7,0.3-0.8,0.8c-0.1,0.5,0.4,1,0.8,1c0.5,0,0.9-0.4,0.9-0.9C158.1,222.4,157.6,222,157.1,222z"/>
		</g>
		<g>
			<path d="M139,209.9c-0.6,0.1-1,0.6-1,1.2c0,0.6,0.4,1.1,1,1.2c0.7,0.1,1.3-0.5,1.3-1.1C140.2,210.4,139.6,209.8,139,209.9z"/>
		</g>
		<g>
			<path d="M365.8,237.9c-0.5-4.4-1.4-8.8-2-13.2c-0.4-2.8-0.2-5.7-0.9-8.3c-1.7-5.7-4.1-11.3-5.7-17c-0.7-2.4-0.6-5.5,0.2-7.9
				c1.6-4.6,4.5-8.8,6-13.5c2.7-8.4-0.7-12.2-9.3-11.2c-2.1,0.2-4.2,0.7-6.2,1.4c-20.4,7.9-40.7,15.9-61.1,23.7
				c-6.2,2.3-12.6,4.9-19.2,5.5c-14.7,1.4-29.6,1.9-44.4,2.3c-22.4,0.7-44.2-3.6-66.1-7.7c-11.4-2.1-22.8-4.6-34.2-6.8
				c-4.8-0.9-9.5-0.8-12.5,5.9c3,2.5,6.2,5.2,10.6,9c-3.1-0.4-4.7-0.4-6.1-0.7c-8.2-2.1-16.3-4.3-24.5-6.4c-4.7-1.2-9.1-1.2-12,4.1
				c2.9,4.2,5.8,8.5,9.2,13.4c-4.4,0-8.2-0.5-11.7,0.1c-3.5,0.6-6.8,2.3-10.2,3.6c0,0.8,0.1,1.6,0.1,2.5c7.5,6.1,15.2,12,22.5,18.4
				c2,1.7,3.7,4.5,4.2,7.1c0.8,4,2.2,6.9,5.9,9.2c18.6,11.8,38.7,20.1,59.6,26.9c26.1,8.5,53.1,10.9,80.3,12.5
				c2.5,0.1,4.9,0.3,7.4,0.4c0.1-1,0.3-2,0.4-3c1.1-6.8,2.9-13.2,5.4-19c0.9-2.1,2.1-4.1,3.5-6.1c1.4-2,3-3.8,4.8-5.3
				c1.8-1.6,3.8-2.9,6-3.9c2-0.9,4.1-1.4,6.3-1.5c-2.5-0.9-4.7-2.6-6.3-4.8c-4.2-5.7-5.7-12.5-6.4-19.6c-0.5-5.3-0.7-10.8-0.4-16.2
				c0-1.1,0.1-2.1-1.6-2.3c-0.9,0-1.7-0.8-1.6-2c0.1-1.2,0.9-1.7,2-1.7c2.1-0.1,4.1-0.1,6.2-0.1c5.6,0,11.1-0.3,16.6,0.3
				c1.2,0,2.7,0,2.8,1.9c0,1.7-1.3,2-2.7,2c-1.3-0.1-1.7,0.4-1.9,1.7c-1.6,9.3-2.5,18.8-0.9,28.2c0.4,2.3,1.2,4.3,2.9,5.8
				c2,1.7,3.1,1.6,4.5-0.5c2.9-4.1,4.4-8.9,6-13.8c2-6.3,2.7-12.9,3.3-19.6c0.1-0.8-0.1-1.2-0.9-1.5c-1.3-0.3-1.9-1.2-1.6-2.5
				c0.3-1.3,1.3-1.7,2.5-1.7h10.9c2.9-0.1,6-0.3,9-0.3c1.5,0,2.8,0.1,2.9,2c0,1.6-1.2,2.1-2.5,2.1c-2,0-2.2,1-2.4,2.8
				c-0.5,9.7-1.1,19.4-1.7,29c-0.7,9.2-2.5,18-7,26.2c-3.3,6.3-8.9,9.4-15,12.2c-3.6,1.6-6.9,1.9-10.1,1.3c-0.8,3.1-1.8,6.3-3,9.3
				c4.9-0.5,9.8-1.2,14.7-2.2c30.3-6.4,53.7-24.1,74.7-45.5C366,241.9,365.9,239.5,365.8,237.9z M170,221.5
				c-0.5,0.7-1.2,1.4-1.9,1.9c-2.5,2-5.4,3.2-8.2,4.5c-0.8,0.4-1.7,0.7-2.5,1.1c-0.7,0.4-1.5,0.8-2.1,1.3c-1.7,1.3-2.5,3-1.7,5.2
				c0.7,1.8,1.4,3.5,2.2,5.2c1,2.1,2.1,4.1,2.6,6.4c0.2,0.9,0.4,1.8,0.5,2.7c0.1,0.5,0.1,1,0,1.5c-0.3,3.6-2.9,5-6.1,3.5
				c-2.3-1.1-4.1-3-5.8-4.9c-1.9-2.2-3.8-4.4-5.7-6.5c-0.6-0.7-1.3-1.3-2-1.8c-1.1-0.8-2.3-0.8-3.4,0.1c-0.6,0.5-1.1,1-1.6,1.5
				c-2,2.2-3.9,4.5-5.9,6.7c-0.9,1-1.7,2-2.7,2.9c-1,1-2.3,1.6-3.7,2c-2.2,0.5-3.7-0.4-4.4-2.5c-0.4-1.1-0.5-2.2-0.2-3.4
				c0.5-2.5,1.7-4.8,3-7c0.7-1.1,1.4-2.2,2.1-3.3c0.4-0.7,0.8-1.4,1.2-2.2c1.1-2.6,0.9-5-1-7.1c-2.1-2.3-4.6-4.2-7.4-5.7
				c-1.4-0.7-2.7-1.5-4-2.4c-0.8-0.6-1.4-1.4-1.9-2.2c-0.9-1.5-0.6-2.8,0.9-3.8c1.5-1,3.2-1.2,5-1.3c2.2,0.1,4.4,0.3,6.5,1.1
				c2.2,0.8,4.5,0.9,6.8,0.8c2.3-0.1,4-1.1,4.7-3.3c0.7-1.9,1.2-3.9,1.6-5.9c0.5-2.1,0.8-4.2,1.7-6.2c0.3-0.8,0.6-1.5,1.1-2.2
				c0.5-0.6,1.1-1.2,1.8-1.6c1.5-0.9,3.1-0.4,4.1,1.1c0.7,1.1,1.1,2.4,1.2,3.7c0.2,1.8,0.3,3.6,0.5,5.4c0.1,1.4,0.3,2.8,0.6,4.2
				c0.1,0.8,0.4,1.6,0.8,2.3c0.5,1.3,1.5,2.2,2.8,2.6c1.3,0.4,2.7,0.8,4.1,0.9c1.7,0.1,3.4-0.1,5.2-0.2c2.7-0.3,5.4-0.3,8.1,0.2
				c1.1,0.2,2.1,0.6,2.9,1.4C170.7,219,170.9,220.2,170,221.5z M247.1,208.5c-0.9,0.3-1.1,0.8-1.1,1.6c-0.1,13.6-2,27.2-1.6,40.8
				c0.1,7.5,0.5,15,0.7,22.6c0.1,1.1,0.5,1.6,1.5,1.9c1.2,0.4,2,1.2,1.6,2.5c-0.3,1.2-1.3,1.5-2.4,1.5c-2,0.2-4,0.2-6-0.1
				c-4-0.5-7.9-0.3-11.7,0.8c-1.2,0.4-2.4,0.3-3.1-0.9c-0.7-1.1-0.4-2.1,0.7-2.9c0.5-0.4,0.5-0.9,0.4-1.6c-1.3-12.8-0.1-25.5,0-38.3
				c0.1-5.2,0-10.4,0-14.6c-0.5,2.3-1.3,5.5-2.3,8.6c-3.8,13.9-6.5,28.1-10.1,42.1c-0.3,1.1-0.1,1.7,1,2.3c0.8,0.4,1.5,1.2,1.3,2.3
				c-0.1,1-1.1,1.5-2,1.7c-0.7,0.3-1.3,0.3-2,0.3c-4.4-0.1-8.8,0.4-13,0.7c-1.3,0-2.7,0.1-3.3-1.2c-0.8-1.2-0.3-2.3,0.8-3.1
				c0.9-0.8,0.1-1.5-0.1-2.1c-4.8-13.2-8.6-26.7-12-40.4c-0.7-2.8-1.2-5.9-1.9-8.8c-1,11.3-1,22.6-1,33.8c0,4.9,0.1,9.8,0.1,14.8
				c0,1.2,0.1,2,1.7,2.1c1.5,0.1,2.8,0.9,2.5,2.7c-0.3,1.7-1.7,1.9-3.1,1.7c-2.3-0.1-4.5,0-6.6,0.3c-1.6,0.1-3.2-0.3-3.3-2.1
				c-0.3-1.9,1.2-2.7,2.8-2.7c1.6-0.1,1.9-0.9,1.7-2.4c-1.1-16.6-0.9-33.3-0.4-49.9c0.1-4,0-8,0.1-12c0-1.2-0.4-1.5-1.5-1.5
				c-1.6,0-2.9-0.7-2.9-2.4c0-1.9,1.5-2.4,2.9-2.5c7.3-0.3,14.6-0.7,22,0c2.3,0.3,3,1.3,3.6,4.8c1.2,9.2,3.1,18.2,4.9,27.3
				c1.7,8.6,2.9,17.3,5.5,25.8c0.9-4,1.9-8,2.8-11.8c3.3-13.2,6.4-26.2,10.5-39c0.3-1.1,0.4-1.9-0.4-2.8c-1.3-1.5-0.4-3.6,1.6-3.7
				c6.8-0.5,13.6-1.3,20.4-0.8c1.6,0.1,2.9,0.8,3,2.5C249.6,207.6,248.4,208.3,247.1,208.5z M330.3,235.3c1.8-0.2,3.4-0.1,5.1,0.2
				c0.2,1.2,0.3,2.3,0.4,3.3c-1.2,0.8-2.6,1.2-5.6,1.6C329.9,238.7,330,237.1,330.3,235.3z M337,224.2c0.1,1.3,0.1,1.3-0.7,3.1
				c-1.3,0.3-2.7,0.7-4.1,1c-0.1-1.4,0-1.5,1.1-3.6C334.4,224.3,335.7,224.4,337,224.2z M334,223.2c0.3-0.6,0.5-0.9,0.6-1.3
				c0.5-1.5,1.6-1.7,2.9-1.6c0.7,0,1,0.5,0.9,1.1c-0.1,0.5-0.3,0.9-0.5,1.4C336.8,223.1,335.6,223.2,334,223.2z M336,228.6
				c0,2-0.4,3.6-0.5,5.4c-1.7,0.3-3.3-0.1-4.9,0c-0.2-1.5,0.2-2.7,0.6-4C332.6,229.2,334.2,229.1,336,228.6z M330.4,242.2
				c1.2-0.7,3.6-1.4,5.8-1.5c0.5,1.5,0.8,2.8,1.3,4.3c-2,0.7-4,1-6,1.4C330.7,245,330.6,243.6,330.4,242.2z M331.9,247.9
				c0.8-0.8,1.9-0.6,2.9-0.9c1-0.3,2-0.4,3.2-0.6c0.7,1.4,1.2,2.7,1.5,4.1c-2,0.7-4.1,0.6-6,1.1
				C332.5,250.3,332.2,249.1,331.9,247.9z M340.1,254.8c-0.3,0.1-0.7,0.2-1,0.2c-0.5,0-1.1,0-1.6,0.1c-2,0.1-2.4,0.4-3.5-2.5
				c2.1-0.5,4.1-0.7,6.1-0.9c0.3,0.7,0.6,1.3,0.7,1.8C341,254.1,340.7,254.6,340.1,254.8z M354.2,227.7c-0.5-0.1-0.9-0.3-1.3-0.6
				c-2-1.7-4.4-2.8-6.7-4c-1.5-0.7-3-1.5-4.5-2.1c-1.2-0.5-2.5-0.8-3.7-1.3c-1.5-0.5-2.8-0.3-4.2,0.3c-3.2,1.4-6,3.4-8.5,5.8
				c-1,1-2,2.1-3,3.1c-0.7,0.7-1.2,0.8-1.6,0.4c-0.5-0.5-0.2-1,0-1.5c1.5-3.6,3.8-6.5,7-8.7c1.6-1.1,3.3-2,5.3-2.2
				c0.2,0,0.3-0.2,0.6-0.3c-0.1-0.3-0.1-0.6-0.2-0.8c-1.4-2.6-3.1-5-5.7-6.7c-2.1-1.4-4-2.9-6.4-3.8c-0.2-0.1-0.4-0.2-0.5-0.4
				c-0.3-0.3-0.2-1.1,0.3-1.2c0.4-0.1,0.8-0.1,1.2-0.1c1.5,0,2.8,0.6,4.1,1.2c2.9,1.6,5.6,3.6,7.8,6.1c0.5,0.6,0.9,1.4,1.4,2
				c0.1,0.2,0.4,0.4,0.6,0.7c0.3-0.7,0.4-1.3,0.7-1.9c0.7-1.6,1.3-3.2,2.2-4.7c1.8-3.2,4.6-5.4,8-6.8c0.7-0.3,1.5-0.4,2.2-0.5
				c0.4,0,0.9,0.2,1,0.6c0.1,0.3,0,0.7-0.2,0.9c-0.2,0.3-0.5,0.6-0.8,0.9c-1.7,1.8-3.4,3.6-5,5.5c-1.5,1.6-2.7,3.5-3.7,5.4
				c0.4,0.4,0.7,0.1,1-0.1c3.1-2.1,6.5-2.8,10.2-3c0.7,0,1.4,0.1,2,0.3c0.6,0.2,0.7,1,0.2,1.3c-0.5,0.3-1.1,0.6-1.7,0.8
				c-1.8,0.6-3.6,1-5.3,1.6c-1.9,0.6-3.7,1.2-5.4,2.1c-0.3,0.2-0.5,0.4-0.9,0.8c1.1,0.2,1.9,0.3,2.7,0.4c3.3,0.6,6.4,1.7,8.9,4
				c1.4,1.3,2.6,2.7,3.1,4.5c0.1,0.3,0.1,0.5,0.2,0.8C355.5,227.4,354.9,228,354.2,227.7z"/>
		</g>
		<g>
			<path d="M139.3,202.3c-0.1,0.4,0.2,0.8,0.7,0.8c0.5,0,0.8-0.3,0.8-0.7c0-0.3-0.4-0.6-0.7-1.1C139.7,201.7,139.3,202,139.3,202.3z
				"/>
		</g>
		<g>
			<path d="M143.5,234.4c-0.7,0-1.2,0.7-1.1,1.3c0.1,0.7,0.7,1.1,1.4,1c0.6-0.1,1-0.6,1-1.2C144.7,235,144.1,234.4,143.5,234.4z"/>
		</g>
		<g>
			<path d="M149,223.5c-0.6-0.1-1.1,0.3-1.2,1c-0.1,0.7,0.3,1.4,1,1.4c0.6,0.1,1.3-0.5,1.3-1.2C150.1,224.1,149.6,223.5,149,223.5z"
				/>
		</g>
		<g>
			<path d="M148.7,240.7c-0.5,0.1-1,0.6-1,1.2c0,0.7,0.5,1.3,1.2,1.3c0.6,0,1.1-0.6,1.1-1.3C149.9,241.1,149.3,240.6,148.7,240.7z"
				/>
		</g>
	</g>
	<g>
		<path d="M134.8,374.3c-2.6,1.7-5.6,3.2-9.2,2.6c-3.5-0.5-6.2-2.4-8.8-4.8c-1,0.6-1.9,1.1-2.8,1.7c-4.7,3.3-9.5,3.1-14.2-0.1
			c-0.5-0.3-1-0.6-1.5-0.9c-1.6,0.5-2.8,1.6-4,2.5c-5.1,3.6-10.5,1.9-13.9-2.1c-0.6-0.7-1-1.6-1.3-2.5c-0.3-0.8,0.2-1.7,1-2.1
			c0.7-0.4,1.4-0.3,2,0.2c0.6,0.4,1,1,1.6,1.5c0.8,0.7,1.6,1.5,2.4,2.2c2.2,1.7,4.6,2,7,0.4c1.2-0.8,2.4-1.6,3.5-2.6
			c1.4-1.2,2.8-1.3,4.3-0.5c1,0.5,1.9,1.1,2.8,1.6c3,1.6,6,1.6,8.9-0.4c1.1-0.8,2.2-1.5,3.3-2.2c1.6-1,2.4-1,3.9,0.2
			c0.7,0.5,1.3,1.1,2,1.6c3.8,2.5,7.8,3.1,11.9,0.8c0.4-0.2,0.8-0.5,1.2-0.8c1.3-0.7,2.7-0.7,3.7,0.3c2.5,2.6,5.6,2.6,8.7,2.4
			c3-0.1,6-0.7,8.7-2.1c0.4-0.2,0.9-0.5,1.3-0.5c0.4,0,1,0.3,1.2,0.6c0.2,0.3,0.4,1,0.2,1.3c-0.7,0.8-1.3,1.8-2.3,2.3
			c-4,2-8.2,3.5-12.8,3.5c-2.9,0-5.5-0.8-7.4-3.1c-0.2-0.3-0.5-0.5-0.8-0.7C135.5,374.4,135.3,374.4,134.8,374.3z"/>
	</g>
	<g>
		<path d="M208.7,386.1c-0.8,0.7-1.5,1.1-2,1.7c-3.6,3.7-10.6,3.6-13.6-0.2c-0.2-0.3-0.5-0.5-0.9-0.8c-1.7,0.1-3.1,1.2-4.5,2
			c-2.4,1.3-4.9,2-7.6,1.6c-4-0.5-6.9-2.7-8.4-6.5c-0.1-0.3-0.3-0.7-0.3-1c0.1-0.5,0.3-1.2,0.8-1.5c0.4-0.3,1.2-0.4,1.7-0.2
			c0.6,0.3,1.2,0.8,1.7,1.3c3.5,3.9,7.8,4.5,12.5,2.7c0.8-0.3,1.6-0.6,2.3-1c1.9-1.1,3.6-1.1,5.4,0.2c1.4,1,3,1.5,4.7,1.5
			c1.7,0,3.3-0.3,4.8-1.3c0.6-0.4,1.2-0.8,1.8-1.2c1.6-1.3,3.3-1.3,5-0.2c0.5,0.3,1.1,0.6,1.6,0.9c3.2,2.2,6.8,2.3,10.4,1.6
			c2.6-0.5,5.2-1,7.6-2.3c0.4-0.2,1.2-0.1,1.6,0.1c0.7,0.5,0.7,1.3,0.2,1.9c-0.4,0.6-0.9,1.2-1.5,1.5c-3.7,1.8-7.4,3.4-11.7,3.5
			c-3.5,0-6.7-0.8-9.5-2.9C210.2,387.1,209.6,386.7,208.7,386.1z"/>
	</g>
	<g>
		<path d="M89.3,392.8c-1.8,0.7-3.6,1.4-5.4,2.1c-2.6,1.1-5.3,1.6-8.1,1.2c-2.6-0.3-5-1.1-6.6-3.3c-0.6-0.7-0.9-1.7-1.2-2.6
			c-0.2-0.7,0.1-1.5,0.9-1.8c0.5-0.2,1.2-0.1,1.7,0c0.4,0.1,0.8,0.5,1.2,0.8c4.3,3.3,8.9,3.8,13.9,1.9c0.8-0.3,1.6-0.6,2.3-1.1
			c1.8-1.1,3.4-0.9,5,0.2c2.7,1.9,5.9,2.2,9,1.9c4.3-0.5,8.6-0.9,12.6-2.9c0.6-0.3,1.2-0.2,1.6,0.3c0.6,0.6,0.6,1.4,0.1,2
			c-0.7,0.8-1.5,1.6-2.5,2c-3,1.2-6,2.4-9.2,3.2C98.8,398.4,94.4,397.1,89.3,392.8z"/>
	</g>
	<g>
		<path d="M253.1,377.4c-1.8,0.7-3.6,1.4-5.4,2.1c-2.6,1.1-5.3,1.6-8.1,1.2c-2.6-0.3-5-1.1-6.6-3.3c-0.6-0.7-0.9-1.7-1.2-2.6
			c-0.2-0.7,0.1-1.5,0.9-1.8c0.5-0.2,1.2-0.1,1.7,0c0.4,0.1,0.8,0.5,1.2,0.8c4.3,3.3,8.9,3.8,13.9,1.9c0.8-0.3,1.6-0.6,2.3-1.1
			c1.8-1.1,3.4-0.9,5,0.2c2.7,1.9,5.9,2.2,9,1.9c4.3-0.5,8.6-0.9,12.6-2.9c0.6-0.3,1.2-0.2,1.6,0.3c0.6,0.6,0.6,1.4,0.1,2
			c-0.7,0.8-1.5,1.6-2.5,2c-3,1.2-6,2.4-9.2,3.2C262.6,382.9,258.2,381.7,253.1,377.4z"/>
	</g>
	<g>
		<path d="M149.1,395.5c-2.9,1.9-5.9,2.6-9.1,2.2c-2.4-0.3-4.6-1.2-6.5-2.8c-1-0.9-1.8-1.9-1.8-3.4c0-0.8,0.2-1.5,1-1.7
			c0.5-0.1,1.3,0.2,1.5,0.6c1.3,1.8,3.2,2.4,5.2,3c2.6,0.8,5.2,0.7,7.7-0.6c1.6-0.9,3.1-0.9,4.8-0.3c2.1,0.7,4.2,0.8,6.4,0.3
			c2.7-0.5,5.4-0.9,8.1-1.4c0.8-0.1,1.4,0.1,1.8,0.8c0.4,0.8-0.1,1.4-0.6,1.9c-0.4,0.4-1,0.8-1.5,0.9c-3.3,1.1-6.6,2.1-10.2,2
			C153.6,397.1,151.5,396.6,149.1,395.5z"/>
	</g>
	<g>
		<path d="M185.9,370c-2.9,1.9-5.9,2.6-9.1,2.2c-2.4-0.3-4.6-1.2-6.5-2.8c-1-0.9-1.8-1.9-1.8-3.4c0-0.8,0.2-1.5,1-1.7
			c0.5-0.1,1.3,0.2,1.5,0.6c1.3,1.8,3.2,2.4,5.2,3c2.6,0.8,5.2,0.7,7.7-0.6c1.6-0.9,3.1-0.9,4.8-0.3c2.1,0.7,4.2,0.8,6.4,0.3
			c2.7-0.5,5.4-0.9,8.1-1.4c0.8-0.1,1.4,0.1,1.8,0.8c0.4,0.8-0.1,1.4-0.6,1.9c-0.4,0.4-1,0.8-1.5,0.9c-3.3,1.1-6.6,2.1-10.2,2
			C190.4,371.5,188.2,371,185.9,370z"/>
	</g>
	<g>
		<path d="M253.5,394.7c-2.9,1.9-5.9,2.6-9.1,2.2c-2.4-0.3-4.6-1.2-6.5-2.8c-1-0.9-1.8-1.9-1.8-3.4c0-0.8,0.2-1.5,1-1.7
			c0.5-0.1,1.3,0.2,1.5,0.6c1.3,1.8,3.2,2.4,5.2,3c2.6,0.8,5.2,0.7,7.7-0.6c1.6-0.9,3.1-0.9,4.8-0.3c2.1,0.7,4.2,0.8,6.4,0.3
			c2.7-0.5,5.4-0.9,8.1-1.4c0.8-0.1,1.4,0.1,1.8,0.8c0.4,0.8-0.1,1.4-0.6,1.9c-0.4,0.4-1,0.8-1.5,0.9c-3.3,1.1-6.6,2.1-10.2,2
			C258.1,396.2,255.9,395.7,253.5,394.7z"/>
	</g>
	<g>
		<g>
			<path d="M79.1,233.4c0.5,0,1,0,1.6,0.1c1.1,0.2,2,0.6,2.9,1.2c0.2,0.1,0.4,0.3,0.6,0.4c1.1,0.7,1.8,1.7,2.2,2.9
				c0.6,1.8,0.6,3.6,0.3,5.4c-0.3,1.5-1,2.7-2.2,3.6c-1,0.8-2.2,1.4-3.5,1.7c-0.9,0.3-1.9,0.2-2.8,0.1c-0.8-0.1-1.5-0.3-2.3-0.5
				c-1.6-0.6-2.8-1.6-3.6-3.1c0-0.1-0.1-0.1-0.1-0.2c-0.9-1.6-1-3.3-0.6-5.1c0.1-0.5,0.2-1,0.4-1.4c0.3-1.1,0.9-2.2,1.7-3.1
				c0.7-0.8,1.6-1.4,2.7-1.7c0.3-0.1,0.6-0.2,0.9-0.3C77.8,233.4,78.4,233.4,79.1,233.4z M79,234.1c-0.2,0-0.3,0-0.5,0
				c-1.5-0.1-3.6,0.7-4.7,2.2c-0.7,1-1.3,2-1.5,3.2c-0.1,0.6-0.2,1.1-0.3,1.7c-0.1,0.8,0,1.5,0.2,2.2c0.2,0.6,0.4,1.1,0.7,1.6
				c0.7,1.2,1.7,2.2,3,2.7c0.9,0.3,1.7,0.5,2.6,0.6c0.8,0.1,1.6,0.1,2.3-0.1c1.1-0.4,2.2-0.8,3.1-1.5c1-0.8,1.7-1.8,1.9-3
				c0.4-1.8,0.4-3.6-0.2-5.4c-0.4-1-1-1.9-1.9-2.5c-0.2-0.1-0.4-0.3-0.6-0.4c-0.6-0.5-1.3-0.8-2-1C80.5,234.1,79.7,234.1,79,234.1z"
				/>
		</g>
		<g>
			<path d="M74.4,245.6c-1-1-1.7-3.1-1.5-4.3c0.1,0,0.3-0.1,0.4-0.1c1.6,0,3.1,0,4.7,0c0.1,0,0.3,0,0.4,0.2c0,0,0,0.1-0.1,0.2
				C77,242.8,75.7,244.2,74.4,245.6z"/>
		</g>
		<g>
			<path d="M85.4,241.4c0.1,0.2,0,0.5,0,0.7c-0.3,1.1-0.5,2.1-1.1,3c-0.1,0.2-0.3,0.4-0.5,0.5c-0.5-0.4-0.9-0.9-1.3-1.4
				c-0.4-0.5-0.9-0.9-1.3-1.4c-0.4-0.5-0.9-0.9-1.3-1.4c0.1-0.2,0.2-0.2,0.2-0.2C81.5,241.2,85,241.3,85.4,241.4z"/>
		</g>
		<g>
			<path d="M79.1,234.7c1.1-0.2,3.1,0.7,3.9,1.7c-0.1,0.1-0.1,0.2-0.2,0.3c-1,1.1-2,2.1-3,3.2c0,0-0.1,0.1-0.1,0.1
				c-0.1,0.1-0.2,0.1-0.3,0.1c-0.2,0-0.2-0.2-0.2-0.3c0-1.6-0.1-3.2-0.1-4.7C79.1,234.9,79.1,234.8,79.1,234.7z"/>
		</g>
		<g>
			<path d="M74.6,236.6c0.1,0.1,0.2,0.1,0.3,0.2c1,1,3.2,3.4,3.4,3.8c-0.1,0-0.2,0.1-0.3,0.1c-1.6,0-3.2,0-4.8,0c-0.1,0-0.2,0-0.3,0
				c-0.1-0.5,0-0.9,0.4-2C73.6,237.9,73.9,237.2,74.6,236.6z"/>
		</g>
		<g>
			<path d="M83.6,236.8c1.1,0.8,2,2.7,1.8,3.9c-0.2,0-0.3,0-0.5,0c-0.6,0-1.2,0-1.8,0c-0.8,0-1.7,0.1-2.5,0.1c-0.3,0-0.5,0-0.8-0.1
				c0-0.1,0.1-0.2,0.1-0.2c0.1-0.1,0.3-0.3,0.4-0.4c1.1-0.9,2-2,3-3C83.4,237,83.5,236.9,83.6,236.8z"/>
		</g>
		<g>
			<path d="M74.8,246c1.3-1.4,2.6-2.7,3.8-4.1c0.1,0,0.1,0.1,0.1,0.2c0,0.6,0,1.3,0,1.9c0,1,0.1,2,0.1,3c0,0.1,0,0.2,0,0.3
				c-0.1,0-0.2,0.1-0.2,0.1c-1.3-0.1-2.5-0.5-3.5-1.2C75,246.2,74.9,246.1,74.8,246z"/>
		</g>
		<g>
			<path d="M79.5,247.4c0-0.1,0-0.2,0-0.3c0-1-0.1-1.9-0.1-2.9c0-0.6-0.1-1.2-0.1-1.8c0-0.2-0.1-0.5,0-0.7c0.1,0,0.2,0.1,0.2,0.1
				c1.2,1.3,2.4,2.7,3.6,4c0,0,0,0.1,0.1,0.2c0,0.1-0.1,0.2-0.2,0.2c-1,0.7-2.1,1.1-3.2,1.2C79.7,247.4,79.6,247.4,79.5,247.4z"/>
		</g>
		<g>
			<path d="M78.7,240.2c0,0-0.1,0-0.2-0.1c-1.1-1.3-2.2-2.6-3.3-3.9c0-0.2,0.2-0.3,0.4-0.4c0.8-0.5,1.7-0.8,2.6-1
				c0.2,0,0.3,0.1,0.3,0.3c0,0.3,0,0.6,0,0.9c0,1.3,0.1,2.6,0.2,3.9C78.8,239.9,78.8,240.1,78.7,240.2z"/>
		</g>
	</g>
	<g>
		<path fill="#231F20" d="M219.6,102.4c0.6,0.8,0.9,1.5,0.7,2.1c-0.1,0.6-0.5,1.2-1,1.7c-0.5,0.5-1.1,0.7-1.9,0.8
			c-0.7,0.1-1.4-0.2-2.1-0.8c-1.7-1.6-3.5-3.2-5.4-4.7c-1.9-1.5-3.5-3.3-4.8-5.3c-0.5-0.8-0.6-1.5-0.3-2.3c0.3-0.7,0.7-1.3,1.3-1.7
			c0.6-0.4,1.3-0.6,2.1-0.6c0.8,0,1.6,0.3,2.2,0.9c1.7,1.6,3.2,3.3,4.7,4.9C216.5,99.1,218,100.7,219.6,102.4z M309.9,82.2
			c0.3-1.1,0.3-2.4,0.1-3.7c-0.2-1.3-0.4-2.6-0.5-3.9c-0.1-1.3-0.1-2.6,0.1-3.8c0.2-1.2,0.9-2.3,1.9-3.2c0.5-0.5,1.2-0.7,1.9-0.8
			c0.8-0.1,1.5,0.1,2.3,0.6c1.2,0.9,2,2,2.4,3.4c0.4,1.4,0.6,2.9,0.5,4.5c-0.1,1.6-0.4,3.2-0.8,4.8c-0.4,1.6-0.9,3-1.4,4.1
			c-0.5,1-1.1,1.7-1.9,2c-0.8,0.3-1.6,0.3-2.3,0.1c-0.7-0.2-1.3-0.7-1.8-1.4C309.9,84.3,309.7,83.3,309.9,82.2z M286.7,84
			c-0.3,1.1-1,1.6-2.2,1.5c-1.2-0.2-1.9-0.8-2.2-1.9c-0.6-3.4-1.4-6.7-2.3-10c-0.9-3.2-1.7-6.5-2.5-9.8c-0.7-2.6-1.2-5.2-1.4-7.8
			c-0.3-2.6,0.4-5,1.9-7.3c0.6-0.8,1.3-1.1,2.1-1c0.8,0.1,1.4,0.5,1.9,1.2c1.7,2.6,2.7,5.6,3.1,9.1c0.4,3.4,0.9,6.6,1.3,9.4
			c0.4,2.7,0.7,5.5,0.9,8.1C287.6,78.4,287.4,81.1,286.7,84z M260.6,81.7c0.3,0.5,0.5,1.1,0.4,1.6c-0.1,0.6-0.3,1-0.7,1.3
			c-0.4,0.3-0.8,0.5-1.3,0.5c-0.5,0.1-1-0.2-1.4-0.7c-3-3.4-6.2-6.9-9.7-10.4c-3.5-3.5-6.8-7-10-10.6s-6.1-7.4-8.7-11.4
			c-2.6-4-4.7-8.2-6.1-12.8c-0.6-1.7-0.4-3.2,0.5-4.3c0.9-1.1,2.1-1.8,3.5-2.1c1.4-0.3,2.9-0.1,4.3,0.5c1.5,0.6,2.4,1.8,2.9,3.6
			c1.1,4,2.6,8.1,4.6,12c1.9,4,4.1,7.8,6.4,11.5c2.3,3.7,4.8,7.4,7.5,10.9C255.4,74.9,258,78.3,260.6,81.7z"/>
	</g>
	<g>
		<g>
			<path d="M217.9,184.2c-2.2-0.8-2.3-0.9-2.7-2.9c0-0.2-0.1-0.5-0.1-0.7c-0.2-1.6,0-2,1.5-2.7c1.3-0.6,2.7-1.1,4.1-1.5
				c6.6-1.9,13.3-3.1,20.1-2.8c3.3,0.1,6.3-0.6,9.1-2.2c0.7-0.4,1.4-0.7,2-1.1c5.5-3.4,11.6-5.1,17.9-6.1c2-0.3,4-0.5,6-0.7
				c0.5-0.1,0.9-0.1,1.4,0c0.8,0,1.5,0.4,1.7,1.3c0.2,0.8,0.4,1.5,0.6,2.2c0.3,1.1,0.3,2.1-0.9,2.8c-0.3,0.1-0.4,0.6-0.4,1
				c0,0.5,0.1,0.9,0.1,1.4c0.3,2.3,0.2,4.6-0.2,6.9c-1,5.8-5.5,9.5-11,10.5c-0.7,0.1-1.4,0.1-2.1,0c-3.9-0.5-7.3-1.9-9.9-5.1
				c-1.3-1.7-2.6-3.5-3.8-5.3c-1.1-1.6-1.5-1.8-3.2-1c-0.8,0.3-1.3,0.8-1.4,1.7c-0.1,1.1-0.3,2.2-0.5,3.2c-0.3,1.6-0.5,3.2-1,4.8
				c-1.2,4.1-4,6.7-7.9,8.3c-1.7,0.7-3.4,1-5.2,1.2c-0.4,0.1-0.8,0.1-1.2,0c-3.5-0.6-6.7-1.8-8.9-4.8c-1.5-2.1-2.9-4.4-3.7-6.9
				C218.3,185.1,218.1,184.7,217.9,184.2z M277.5,165c-0.7,0-1.6,0-2.4,0.1c-2.5,0.3-4.9,0.7-7.3,1.1c-3.5,0.5-6.9,1.7-10.2,3.1
				c-2.3,1-4.4,2.2-6.6,3.4c-3,1.6-6.1,2.5-9.5,2.5c-2.4,0-4.8,0.1-7.2,0.3c-6,0.5-11.7,2-17.3,4.1c-0.2,0.1-0.3,0.3-0.6,0.5
				c0.2,0.6,0.3,1.3,0.5,1.9c0.8,0.1,1.5,0.3,2.2,0.4c0.2,0.6,0.5,1.1,0.7,1.7c0.8,2.2,2,4.2,3.2,6.2c2.1,3.3,7,6.1,12.1,4.6
				c4.4-1.3,7.6-3.7,8.8-8.3c0.3-1.3,0.6-2.6,0.8-3.9c0.2-1.3,0.5-2.6,0.7-3.9c0.1-0.7,0.4-1.4,1.1-1.7c3.3-1.7,4.6-1.6,6.3,1.1
				c0.1,0.2,0.2,0.4,0.4,0.6c1.1,1.4,2,2.9,3.2,4.3c2.4,2.9,5.7,4.2,9.3,4.6c0.5,0.1,1.1,0,1.6-0.1c5-0.8,8.7-4.5,9.5-9.5
				c0.4-2.3,0.4-4.6,0.1-6.9c-0.2-1.3,0-2.5,1.3-3.1c0.1-0.1,0.1-0.3,0.2-0.4C278.4,166.8,278.2,165.9,277.5,165z"/>
		</g>
		<g>
			<path d="M264.9,168.7c2.1-0.3,4.3-0.5,6.4-0.8c0.5-0.1,0.9,0,1.4,0.1c0.9,0.1,1.4,0.6,1.6,1.4c0.7,2.2,1.2,4.5,1,6.8
				c-0.1,1.3-0.4,2.6-0.8,3.8c-0.7,2.1-2.3,3.6-4.4,4.5c-1.8,0.7-3.7,1.1-5.7,0.7c-1.3-0.2-2.6-0.5-3.8-0.9c-2.4-0.8-4-2.4-4.8-4.7
				c-0.4-1.2-0.8-2.5-1-3.8c-0.5-2.4,0.3-3.8,2.6-4.8C259.9,170.1,262.3,169.2,264.9,168.7z M265.8,180.5c0.2,0,0.3-0.1,0.5-0.1
				c0.7-2.5,1.2-5,1.6-7.6c0-0.3-0.2-0.9-0.4-1c-0.7-0.1-0.6,0.5-0.6,0.9c-0.2,1.2-0.4,2.4-0.6,3.6c-0.2,1.1-0.5,2.2-0.7,3.4
				C265.5,180,265.7,180.3,265.8,180.5z M264.3,174.7c-0.5,0.2-0.4,0.6-0.5,1c-0.2,1.2,0,1.9,0.4,1.7c0.7-0.3,0.5-1.1,0.6-1.6
				C264.8,175.3,264.9,174.8,264.3,174.7z"/>
		</g>
		<g>
			<path d="M230.2,177.4c2.3-0.8,4.7-1,7.2-1.4c0.5-0.1,0.9,0,1.4,0c1.2,0,2.1,0.6,2.7,1.5c0.3,0.5,0.6,0.9,0.7,1.4
				c0.4,1.3,0.7,2.7,0.9,4.1c0.3,2.5-0.5,4.7-2.3,6.5c-2.1,2.1-4.5,3.8-7.5,4.2c-2.8,0.4-5.2-0.4-7.2-2.4c-1.5-1.5-2.5-3.3-3.1-5.3
				c-0.4-1.1-0.7-2.2-0.9-3.3c-0.3-1.4,0-2,1.2-2.7c1.1-0.6,2.2-1,3.4-1.5C227.7,178.1,228.9,177.8,230.2,177.4z M236.1,179.3
				c-0.4,0.3-0.7,0.4-0.7,0.5c-0.6,2.5-1.1,4.9-1.6,7.4c0,0.1,0.2,0.3,0.3,0.5c0.8-1.2,1.1-2.3,2-7
				C236.1,180.3,236.1,179.9,236.1,179.3z M231.7,182.3c-0.7,1.5-0.8,2.6-0.7,3.6c0,0.4,0.3,0.5,0.7,0.3
				C231.9,185.1,232.4,184,231.7,182.3z"/>
		</g>
	</g>
	<g>
		<path d="M113.9,294.8c-0.2-0.2-0.6-0.5-1-0.8c-1.1-1-1.6-2.2-1.2-3.7c0.2-1,0.4-2,0.7-3c0.8-2.6,0.6-5.1-0.3-7.6
			c-0.4-1.2-0.9-2.4-1.4-3.6c-0.8-2.3-1.7-4.7-2.4-7c-0.4-1.1-0.5-2.3-0.1-3.5c0.5-1.5,1.2-1.8,2.4-0.8c0.4,0.3,0.8,0.7,1.1,1.1
			c3.5,3.8,7.4,7.1,11.3,10.5c4.3,3.7,9.2,6.6,14.1,9.3c1.3,0.8,2.7,1.5,4,2.2c0.3,0.2,0.6,0.4,0.8,0.6c0.5,0.5,0.2,1.5-0.5,1.6
			c-0.4,0.1-0.8,0.1-1.3,0.1c-2.3,0-4.6-0.1-6.9,0c-4.4,0.1-8.3,1.6-11.7,4.5c-2.6,2.3-4.4,2.3-7.4,0.4
			C114.2,295.1,114.1,295,113.9,294.8z M125.5,287.5c0.4-0.7,0.2-1.8-0.5-2.3c-0.5-0.4-1.4-0.2-1.8,0.4c-0.5,0.7-0.2,1.7,0.5,2.2
			C124.2,288.2,125.2,288,125.5,287.5z M117,289.5c-0.7-0.5-1.8-0.2-2.2,0.5c-0.3,0.5-0.1,1.4,0.5,1.8c0.6,0.4,1.6,0.2,2-0.4
			C117.7,290.7,117.5,289.9,117,289.5z M133.3,287.7c0.4-0.6,0.2-1.4-0.4-1.8c-0.6-0.4-1.4-0.3-1.8,0.2c-0.5,0.7-0.3,1.6,0.4,2
			C132.1,288.4,132.9,288.3,133.3,287.7z M119.6,279.1c-0.7-0.4-1.6-0.2-2,0.5c-0.3,0.6-0.1,1.4,0.5,1.8c0.6,0.4,1.6,0.1,2-0.5
			C120.4,280.3,120.2,279.5,119.6,279.1z M115.1,273c-0.6-0.5-1.4-0.4-1.8,0.1c-0.4,0.5-0.3,1.4,0.2,1.8c0.5,0.5,1.3,0.4,1.8-0.2
			C115.7,274.3,115.7,273.5,115.1,273z"/>
	</g>
</g>
</svg>
