<?xml version="1.0" encoding="utf-8"?>
<!-- Generator: Adobe Illustrator 22.0.0, SVG Export Plug-In . SVG Version: 6.00 Build 0)  -->
<svg version="1.1" id="Layer_1" xmlns="http://www.w3.org/2000/svg" xmlns:xlink="http://www.w3.org/1999/xlink" x="0px" y="0px"
	 viewBox="0 0 1080 1080" style="enable-background:new 0 0 1080 1080;" xml:space="preserve">
<g>
	<path d="M317.8,918.2c1.5-0.1,3.1-0.3,4.7-0.3c1.8,0,3.6,0.2,5.5,0.2c0.7,0,1.4,0,2.1,0c0.1,0,0.2,0.1,0.2,0.1c0.1,0,0.2,0,0.4,0.1
		c0.2,0,0.4,0,0.7,0.1c1.3,0,2.8-0.1,4.1-0.2c2-0.2,2.6-1.3,2.6-2.3c0-1.1,0.3-2.4,0.3-3.5c0-1.1-0.2-2-0.3-3.1
		c-0.1-0.6-0.3-1-0.5-1.1c-0.7-0.8-1.8-0.8-2.3-0.8c-0.3,0-0.3,0-0.5-0.2l-0.5-0.4l-0.7-0.1c-0.1,0-0.7,0-1.4,0.1
		c-0.4,0.1-0.9,0.2-1.3,0.3c-0.5,0.1-0.9,0.2-1.3,0.3c-0.5,0-0.8,0.1-0.9,0.1c-2.8,0-5.6-0.3-8.2-0.3c-2,0-4.1,0.1-6,0.3
		c-0.2,0-0.3,0-0.5,0c-0.5-0.2-1.1-0.4-2.2-0.4c-1.5,0-3.5,0.2-5,0.5c-0.3,0.1-1.6,0.3-2,1.3c-0.1,0.1-0.1,0.4-0.2,0.8
		c0,0.2,0,0.5-0.1,0.8c0,0.6-0.1,1.2-0.1,1.4c0,1.1,0.5,2,0.5,3.1c0,2-0.1,4.1-0.1,6.1c0,3.8,0.1,7.8,0,11.7
		c-0.1,3.3-0.5,6.5-0.5,9.9c0,5.3,0.4,10.4,0.6,15.7c0,0.8,0.2,1.4,0.2,2.2c0,2.2,0,4.3,0,6.5c0,2.1-0.4,4.2-0.4,6.4
		c0,1.3,1,2,2.3,2c0.5,0,1-0.1,1.5-0.1c1,0,1.9,0.2,2.8,0.2h12.4c1.1,0,2-0.2,3.1-0.2c2.3,0,4.7,0,7,0c2.3,0,4-1.6,4.2-3.1
		c0.2-1.5,0.2-3.4,0.2-5c0-1-0.7-2.6-3.2-2.6h-5.8c-4,0-8.1-0.3-12.2-0.4c0-0.5,0.1-1.1,0.1-1.7c0-2.9-0.2-5.6-0.2-8.5
		c0-2.7,0.3-5.4,0.6-8c0-0.3,0.1-0.5,0.2-0.6c1.3-0.5,3-0.7,4.8-0.7c2.2,0,4.3,0.2,6.5,0.2c3,0,3.1-1.6,3.2-2.5
		c0.1-2.3,0.3-4.5,0.3-6.8c0-0.6-0.8-2.1-2.6-2.1c-2.6,0-5,0.2-7.6,0.2h-4c-0.3-0.7-0.4-1.5-0.4-2.2v-13.2
		C317.8,918.3,317.8,918.2,317.8,918.2z"/>
	<path d="M381.6,957.4c-0.4-0.1-0.7-0.3-1-0.5c-0.4-0.2-0.8-0.6-1.3-0.8c-0.1-0.1-0.9-0.4-1.6-0.7c-0.4-0.1-0.8-0.3-1.1-0.4
		c-0.7-0.2-1.1-0.2-1.1-0.2c-1.1,0-1.8,0.5-2.4,1.2c-0.5,0.7-0.9,1.4-1.3,2.1c-2.4,3.2-5.2,6.4-9.4,6.4c-1.8,0-3.1-0.7-4.1-2.3
		c-1-1.3-1.7-2.8-2.4-4.2c-2.5-4.5-2.8-12.6-2.8-17.9c0-5.5,2.6-20.2,10-20.2c2.6,0,3.6,0.1,5.2,2.4c1.3,1.8,2.2,4.1,2.9,6.2
		c0.3,0.6,1.1,1.4,2.4,1.4c0,0,0.5,0,1.1-0.2c0.2-0.1,0.5-0.2,0.8-0.4c0.6-0.2,1.4-0.5,2.3-0.9c0.9-0.3,1.7-0.7,2.4-1
		c0.3-0.1,0.6-0.3,0.8-0.4c0.4-0.1,0.6-0.2,0.7-0.3c0.5-0.2,0.8-0.6,0.9-0.8c0.2-0.3,0.2-0.5,0.3-0.8c0.1-0.4,0.2-0.9,0.2-1
		c0-0.8-0.3-1.3-0.6-1.7c-0.1-0.2-0.2-0.4-0.3-0.6c-0.1-0.1-0.1-0.1-0.2-0.2c-0.7-2.4-1.5-4.7-2.7-6.9c-0.4-0.6-1-1.3-1.6-1.9
		c-1.1-0.7-2.1-1.4-3.3-2.2c-1.1-0.6-2.3-1.3-3.4-2l-0.3-0.4l-0.6-0.1c-0.5-0.1-1.7-0.4-3-0.5c-0.7-0.1-1.1-0.3-1.7-0.4
		c-0.3,0-0.5,0-0.7-0.1c-0.4,0-0.6,0-0.8,0h-1c-3.7,0-13.1,4.9-14.7,7.3c-1.2,2.1-2.6,4.3-3.6,6.5c-0.2,0.5-0.4,0.8-0.6,1.2
		c-0.1,0.5-0.3,0.8-0.5,1.1c-0.8,1.1-1.1,2.2-1.3,3.2c-0.2,1-0.3,2-0.7,3c-0.6,1.9-0.6,4-1.1,5.9c-0.1,0.6-0.1,1.3-0.2,2
		c-0.2,2.6-0.4,5.2-0.4,7.8c0,5.3,1.6,10.6,3.2,15.6c1.6,5.4,3.9,7.8,8,12.1c0.2,0.2,0.3,0.3,0.5,0.4c0.2,0.2,0.3,0.4,0.6,0.7
		c0.5,0.4,1.2,0.8,2.3,1c0.3,0.1,0.6,0.2,0.8,0.2c0.2,0.1,0.3,0.3,0.6,0.4c1.3,1.3,5.5,1.3,7.2,1.3c2.8,0,5-0.6,7.1-1.3
		c1.8-0.9,3.6-1.9,5.5-2.8c1.9-1.1,3.6-3.9,4.6-5.8c0.7-1.1,1.5-2.3,2.1-3.5c0.4-0.9,0.6-1.7,0.9-2.6c0.1-0.1,0.2-0.3,0.2-0.5
		c0.1-0.3,0.2-0.6,0.2-0.9c0-0.6-0.4-1.1-0.8-1.5C382.4,957.9,382,957.7,381.6,957.4z"/>
	<path d="M429.8,957.4c-0.4-0.1-0.7-0.3-1-0.5c-0.4-0.2-0.8-0.6-1.3-0.8c-0.1-0.1-0.9-0.4-1.6-0.7c-0.4-0.1-0.8-0.3-1.1-0.4
		c-0.7-0.2-1.1-0.2-1.1-0.2c-1.1,0-1.8,0.5-2.4,1.2c-0.5,0.7-0.9,1.4-1.3,2.1c-2.4,3.2-5.2,6.4-9.4,6.4c-1.8,0-3.1-0.7-4.1-2.3
		c-1-1.3-1.7-2.8-2.4-4.2c-2.5-4.5-2.8-12.6-2.8-17.9c0-5.5,2.6-20.2,10-20.2c2.6,0,3.6,0.1,5.2,2.4c1.3,1.8,2.2,4.1,2.9,6.2
		c0.3,0.6,1.1,1.4,2.4,1.4c0,0,0.5,0,1.1-0.2c0.2-0.1,0.5-0.2,0.8-0.4c0.6-0.2,1.4-0.5,2.3-0.9c0.9-0.3,1.7-0.7,2.4-1
		c0.3-0.1,0.6-0.3,0.8-0.4c0.4-0.1,0.6-0.2,0.7-0.3c0.5-0.2,0.8-0.6,0.9-0.8c0.2-0.3,0.2-0.5,0.3-0.8c0.1-0.4,0.2-0.9,0.2-1
		c0-0.8-0.3-1.3-0.6-1.7c-0.1-0.2-0.2-0.4-0.3-0.6c-0.1-0.1-0.1-0.1-0.2-0.2c-0.7-2.4-1.5-4.7-2.7-6.9c-0.4-0.6-1-1.3-1.6-1.9
		c-1.1-0.7-2.1-1.4-3.3-2.2c-1.1-0.6-2.3-1.3-3.4-2l-0.3-0.4l-0.6-0.1c-0.5-0.1-1.7-0.4-3-0.5c-0.7-0.1-1.1-0.3-1.7-0.4
		c-0.3,0-0.5,0-0.7-0.1c-0.4,0-0.6,0-0.8,0h-1c-3.7,0-13.1,4.9-14.7,7.3c-1.2,2.1-2.6,4.3-3.6,6.5c-0.2,0.5-0.4,0.8-0.6,1.2
		c-0.1,0.5-0.3,0.8-0.5,1.1c-0.8,1.1-1.1,2.2-1.3,3.2c-0.2,1-0.3,2-0.7,3c-0.6,1.9-0.6,4-1.1,5.9c-0.1,0.6-0.1,1.3-0.2,2
		c-0.2,2.6-0.4,5.2-0.4,7.8c0,5.3,1.6,10.6,3.2,15.6c1.6,5.4,3.9,7.8,8,12.1c0.2,0.2,0.3,0.3,0.5,0.4c0.2,0.2,0.3,0.4,0.6,0.7
		c0.5,0.4,1.2,0.8,2.3,1c0.3,0.1,0.6,0.2,0.8,0.2c0.2,0.1,0.3,0.3,0.6,0.4c1.3,1.3,5.5,1.3,7.2,1.3c2.8,0,5-0.6,7.1-1.3
		c1.8-0.9,3.6-1.9,5.5-2.8c1.9-1.1,3.6-3.9,4.6-5.8c0.7-1.1,1.5-2.3,2.1-3.5c0.4-0.9,0.6-1.7,0.9-2.6c0.1-0.1,0.2-0.3,0.2-0.5
		c0.1-0.3,0.2-0.6,0.2-0.9c0-0.6-0.4-1.1-0.8-1.5C430.6,957.9,430.2,957.7,429.8,957.4z"/>
	<path d="M467.1,964.6c-0.8,0-1.6,0-2.4,0c-0.9,0-1.8,0.2-2.6,0.2c-1.4,0-2.9-0.2-4.3-0.3c-3-0.1-5.9-0.2-9-0.2
		c0-0.9-0.1-1.7-0.1-2.5c0-3.3,0.1-6.6,0.2-9.8c0.1-3.5,0.5-7.1,0.6-10.7c0.1-1.5,0-3.1,0.1-4.8c0-1.2,0.2-2.6,0.2-3.8v-15.6
		c0-1-0.1-1.9-0.1-2.8c0-1.6,0.2-3.3,0.2-4.8c0-1.1-0.4-2.3-2.9-2.3c-1.2,0-2.2-0.1-3.4-0.1c-0.4,0-1.8,0-3.2,0.1
		c-0.7,0.1-1.4,0.2-2,0.4c-1.4,0.4-2,1.1-2,1.7c0,1-0.1,1.8-0.1,2.8c0,0.3,0,0.6,0,0.8c0.1,0.2,0.2,0.5,0.2,0.7
		c0.1,0.2,0.1,0.4,0.2,0.5c0,0.2,0,0.3,0,0.4c0,3.9-0.3,7.9-0.3,12c0,2,0.1,4,0.1,6c0,3.1-0.4,6-0.4,9c0,8.9,0.7,17.8,0.7,26.7
		c0,1.8-0.4,3.6-0.4,5.5c0,1.7,2,1.8,3.3,1.8c0.3-0.1,0.5-0.1,0.7-0.1c1,0,1.9,0.2,2.8,0.2h12.2c1.1,0,2.2-0.2,3.2-0.2h7
		c1.8,0,4-1.3,4.2-2.8c0.2-1.8,0.1-3.7,0.1-5.5C469.9,965.4,468.3,964.8,467.1,964.6z"/>
	<path d="M489.1,918.2c1.5-0.1,3.1-0.3,4.7-0.3c1.8,0,3.6,0.2,5.5,0.2c0.7,0,1.4,0,2.1,0c0.1,0,0.2,0.1,0.2,0.1c0.1,0,0.2,0,0.4,0.1
		c0.2,0,0.4,0,0.7,0.1c1.3,0,2.8-0.1,4.1-0.2c2-0.2,2.6-1.3,2.6-2.3c0-1.1,0.3-2.4,0.3-3.5c0-1.1-0.2-2-0.3-3.1
		c-0.1-0.6-0.3-1-0.5-1.1c-0.7-0.8-1.8-0.8-2.3-0.8c-0.3,0-0.3,0-0.5-0.2l-0.5-0.4l-0.7-0.1c-0.1,0-0.7,0-1.4,0.1
		c-0.4,0.1-0.9,0.2-1.3,0.3c-0.5,0.1-0.9,0.2-1.3,0.3c-0.5,0-0.8,0.1-0.9,0.1c-2.8,0-5.6-0.3-8.2-0.3c-2,0-4.1,0.1-6,0.3
		c-0.2,0-0.3,0-0.5,0c-0.5-0.2-1.1-0.4-2.2-0.4c-1.5,0-3.5,0.2-5,0.5c-0.3,0.1-1.6,0.3-2,1.3c-0.1,0.1-0.1,0.4-0.2,0.8
		c0,0.2,0,0.5-0.1,0.8c0,0.6-0.1,1.2-0.1,1.4c0,1.1,0.5,2,0.5,3.1c0,2-0.1,4.1-0.1,6.1c0,3.8,0.1,7.8,0,11.7
		c-0.1,3.3-0.5,6.5-0.5,9.9c0,5.3,0.4,10.4,0.6,15.7c0,0.8,0.2,1.4,0.2,2.2c0,2.2,0,4.3,0,6.5c0,2.1-0.4,4.2-0.4,6.4
		c0,1.3,1,2,2.3,2c0.5,0,1-0.1,1.5-0.1c1,0,1.9,0.2,2.8,0.2h12.4c1.1,0,2-0.2,3.1-0.2c2.3,0,4.7,0,7,0c2.3,0,4-1.6,4.2-3.1
		c0.2-1.5,0.2-3.4,0.2-5c0-1-0.7-2.6-3.2-2.6h-5.8c-4,0-8.1-0.3-12.2-0.4c0-0.5,0.1-1.1,0.1-1.7c0-2.9-0.2-5.6-0.2-8.5
		c0-2.7,0.3-5.4,0.6-8c0-0.3,0.1-0.5,0.2-0.6c1.3-0.5,3-0.7,4.8-0.7c2.2,0,4.3,0.2,6.5,0.2c3,0,3.1-1.6,3.2-2.5
		c0.1-2.3,0.3-4.5,0.3-6.8c0-0.6-0.8-2.1-2.6-2.1c-2.6,0-5,0.2-7.6,0.2h-4c-0.3-0.7-0.4-1.5-0.4-2.2v-13.2
		C489.1,918.3,489.1,918.2,489.1,918.2z"/>
	<path d="M552.2,949.1c-0.5-2.5-2.2-4.6-4.1-6.1c-1-0.9-1.6-1.7-2.5-2.4c-1-0.9-2.1-1.7-3.6-2.3c-0.1-0.1-0.2-0.2-0.2-0.3
		c-0.5-0.3-1-0.5-1.4-0.7c-1.1-0.2-1.4-0.4-2.4-1.1c-0.4-0.2-0.8-0.4-1.1-0.6c-0.7-0.2-1.3-0.4-1.9-0.7c-0.5-0.2-0.9-0.4-1.1-0.7
		c-0.4-0.3-0.7-0.5-1-0.7s-0.6-0.4-0.7-0.6c-2.5-2-3.7-4.7-3.7-7.4c0-3.7,3.5-8.9,7.6-8.9c1,0,1.4,0.3,1.9,0.7
		c0.9,0.8,1.6,1.7,2.4,2.6c0.8,1,1.4,2,2.2,2.9c0.2,0.2,0.4,0.5,0.6,0.7c0.3,0.3,1,0.8,2.1,0.8c1,0,8.1-4,8.1-5.5
		c0-0.6-0.2-0.9-0.6-1.3c-0.3-0.2-0.5-0.6-0.6-1.1c-0.7-2.3-2.5-3.9-4.1-5.3c-0.2-0.1-0.3-0.3-0.5-0.4c-0.2-0.2-0.5-0.4-0.8-0.6
		c-0.2-0.1-0.4-0.2-0.4-0.2c-1.4-2.8-9.3-4-12.2-4c-5.1,0-9.7,3.1-13.3,6.3c-0.9,0.8-1.5,1.6-2.2,2.8c-1.5,3.1-2.8,6.7-2.8,10.1
		c0,12.1,9.1,19.7,20.2,22.9c3.3,1.2,5.7,4.7,5.7,8.1c0,3.4-2.9,8-6.6,8c-0.4,0-1.1-0.1-1.7-0.1c-0.3,0-0.6,0-0.9,0
		c-0.1,0-0.3,0-0.3,0c-1-0.4-2.3-1.5-3-2.4c-1-1.4-1.6-2.9-2.3-4.4c-0.1-0.1-0.2-0.3-0.4-0.5c-0.5-0.8-1.4-1.1-2.2-1.1
		c-0.5,0-1.6,0.3-2,0.7c-0.8,0.6-1.7,0.9-2.7,1.3c-1,0.6-2,1.1-2.9,1.6c-0.6,0.2-1.5,0.9-1.5,2c0,0.4,0.2,1,0.4,1.2
		c0.2,0.4,0.5,0.7,0.7,1.1c0.3,0.4,0.5,0.6,0.7,1c0.2,0.3,0.3,0.5,0.4,0.6c0.8,2.3,2,3.5,3.9,5.2c0.2,0.1,0.3,0.3,0.5,0.4
		c0.2,0.2,0.5,0.4,0.7,0.6c0.2,0.1,0.5,0.2,0.7,0.3c2.6,3,9,3.9,12.3,3.9c2.7,0,5.9-1.4,7.6-2.2c5.8-3,9.9-8.4,10.4-14.9
		c0-1.1,0-2.1,0-3.2c0-1.7-0.3-3.7-1.2-5.5C552.3,949.5,552.2,949.4,552.2,949.1z"/>
	<path d="M572.2,935.8c0-3.5-0.1-7-0.1-10.5v-10.3c0-1.4,0.1-2.8,0-4.3c-0.1-1.2-0.3-2.5-3.2-2.9c-1.1-0.4-2.7-0.4-3.8-0.4
		c-0.8,0-1.5,0.1-2.1,0.2c-0.5,0.2-1,0.3-1.4,0.4c-1.7,0.3-2.2,1.2-2.2,2.3c0,0.6,0.2,1.3,0.2,2c0,3-0.2,5.8-0.2,8.8
		c0,16.6-0.4,33.3-0.4,49.9c0,0.2,0,1,0.1,1.7c0,0.4,0.1,0.8,0.3,1.1c0.1,0.3,0.6,1.1,1.8,1.4c0.2,0,0.3,0.1,0.6,0.1
		c0.2,0,0.5,0,0.7,0c0.5,0,1.1,0,1.6,0c0.4,0,0.8,0,1.1,0c0.8,0,1.3,0,1.6,0c0.7,0,1.5,0.2,2.1,0.2c1.2,0,3.7-0.3,3.7-2.5
		c0-5.2-0.6-10.2-0.6-15.4C572,950.3,572.2,943.1,572.2,935.8z"/>
	<path d="M624.4,971.1c-0.7-2.3-1.1-4.5-1.7-6.7c-0.5-1.6-1.1-3.2-1.4-4.8c-0.8-2.4-1.3-4.8-1.8-7.2c-1.1-4.2-2.3-8.2-3.3-12.3
		c-0.8-2.9-1.6-5.6-2.3-8.5c-0.8-2.8-1.3-5.7-1.9-8.7c-0.3-1.1-0.9-3-1.3-4.7c-0.4-1.7-0.7-3.1-0.7-4.8c-0.1-0.6-0.3-1.2-0.5-1.8
		c-0.2-0.6-0.4-1-0.5-1.5c-0.5-1.7-0.7-2.2-3.3-2.4c-1.2-0.3-2.3-0.5-3.5-0.5c-0.7,0-1.7,0-2.8,0.2c-1.1,0.3-2.3,0.9-2.7,2.1
		c-0.8,2.5-1.4,5-2.2,7.5c-0.4,0.9-0.8,1.8-1.1,2.9c-2.2,8.1-4.6,16.4-6.6,24.6c-0.5,2.6-1.1,5.2-1.8,7.7
		c-1.2,5.3-2.9,10.5-4.3,15.8c-0.1,0.6-0.4,1.6-0.7,2.7c-0.3,0.9-0.5,2.1-0.5,2.8c0,1.3,1.2,2.1,2.5,2.1c2.1,0,4.3,0.2,6.3,0.2
		c2.1,0,3.8-0.2,4.6-2.5c0-0.3,0.1-0.7,0.2-1l0.1-0.4c0.6-2.5,1.3-5.1,2.1-7.6c0-0.1,0.1-0.4,0.2-0.6c0-0.1,0-0.1,0.1-0.2
		c0.1,0,0.2,0,0.5-0.1c4.2-0.2,8.4-0.2,12.6-0.3c0,0.1,0,0.2,0.1,0.2c0.2,0.7,0.4,1.3,0.4,1.5l1.3,4.7c0.1,0.3,0.1,0.5,0.1,0.7
		c0.1,0.2,0.1,0.4,0.1,0.6s0.1,0.5,0.2,0.6c0.4,1.1,0.8,2.1,1.5,3.1c0.8,0.8,1.6,1.1,2.3,1.1c2.4,0,4.8-0.1,7.2-0.1c0.9,0,3-0.2,3-2
		c0-0.5-0.1-0.9-0.2-1.3C624.5,971.7,624.4,971.3,624.4,971.1z M605.3,951.9c-2.3,0-4.6,0.2-6.9,0.3c1.4-5,2.6-10,3.7-15
		c0.8,3.1,1.4,6,1.6,7c0.7,2.6,1.4,5.2,2.1,7.8C605.7,951.9,605.4,951.9,605.3,951.9z"/>
	<path d="M665.2,949.1c-0.5-2.5-2.2-4.6-4.1-6.1c-1-0.9-1.6-1.7-2.5-2.4c-1-0.9-2.1-1.7-3.6-2.3c-0.1-0.1-0.2-0.2-0.2-0.3
		c-0.5-0.3-1-0.5-1.4-0.7c-1.1-0.2-1.4-0.4-2.4-1.1c-0.4-0.2-0.8-0.4-1.1-0.6c-0.7-0.2-1.3-0.4-1.9-0.7c-0.5-0.2-0.9-0.4-1.1-0.7
		c-0.4-0.3-0.7-0.5-1-0.7s-0.6-0.4-0.7-0.6c-2.5-2-3.7-4.7-3.7-7.4c0-3.7,3.5-8.9,7.6-8.9c1,0,1.4,0.3,1.9,0.7
		c0.9,0.8,1.6,1.7,2.4,2.6c0.8,1,1.4,2,2.2,2.9c0.2,0.2,0.4,0.5,0.6,0.7c0.3,0.3,1,0.8,2.1,0.8c1,0,8.1-4,8.1-5.5
		c0-0.6-0.2-0.9-0.6-1.3c-0.3-0.2-0.5-0.6-0.6-1.1c-0.7-2.3-2.5-3.9-4.1-5.3c-0.2-0.1-0.3-0.3-0.5-0.4c-0.2-0.2-0.5-0.4-0.8-0.6
		c-0.2-0.1-0.4-0.2-0.4-0.2c-1.4-2.8-9.3-4-12.2-4c-5.1,0-9.7,3.1-13.3,6.3c-0.9,0.8-1.5,1.6-2.2,2.8c-1.5,3.1-2.8,6.7-2.8,10.1
		c0,12.1,9.1,19.7,20.2,22.9c3.3,1.2,5.7,4.7,5.7,8.1c0,3.4-2.9,8-6.6,8c-0.4,0-1.1-0.1-1.7-0.1c-0.3,0-0.6,0-0.9,0
		c-0.1,0-0.3,0-0.3,0c-1-0.4-2.3-1.5-3-2.4c-1-1.4-1.6-2.9-2.3-4.4c-0.1-0.1-0.2-0.3-0.4-0.5c-0.5-0.8-1.4-1.1-2.2-1.1
		c-0.5,0-1.6,0.3-2,0.7c-0.8,0.6-1.7,0.9-2.7,1.3c-1,0.6-2,1.1-2.9,1.6c-0.6,0.2-1.5,0.9-1.5,2c0,0.4,0.2,1,0.4,1.2
		c0.2,0.4,0.5,0.7,0.7,1.1c0.3,0.4,0.5,0.6,0.7,1c0.2,0.3,0.3,0.5,0.4,0.6c0.8,2.3,2,3.5,3.9,5.2c0.2,0.1,0.3,0.3,0.5,0.4
		c0.2,0.2,0.5,0.4,0.7,0.6c0.2,0.1,0.5,0.2,0.7,0.3c2.6,3,9,3.9,12.3,3.9c2.7,0,5.9-1.4,7.6-2.2c5.8-3,9.9-8.4,10.4-14.9
		c0-1.1,0-2.1,0-3.2c0-1.7-0.3-3.7-1.2-5.5C665.3,949.5,665.2,949.4,665.2,949.1z"/>
	<path d="M707.1,909.9c-0.2-1-0.9-2.2-3.2-2.2c-0.8,0-1.3,0.2-2.1,0.2c-1.3,0-2.6-0.2-3.8-0.2h-8.1c-1.9,0-3.8-0.2-5.8-0.2
		c-1.7,0-3.4,0.4-5.1,0.4c-1,0-2-0.1-3-0.1c-3.5,0-4,1.6-4,3.3c0,2,0,4.1,0,6.1c0,1,1,1.7,2.4,1.7c1.1,0,2.4-0.1,3.6-0.1
		c1.4,0,3.1,0.2,4.6,0.2c0,2.8,0.5,5.5,0.5,8.2c0,4.6-0.1,9.2-0.2,13.8c-0.1,2.9-0.3,5.8-0.3,8.7c0,2.2,0.1,4.5,0.2,6.7
		c0,0.9,0.2,1.7,0.2,2.6c0,4.3-0.1,8.5,0,12.8c0,2.2,0.1,3.7,4.4,3.7c1.6,0,3.3-0.2,5-0.2c1.5,0,3.1-0.4,3.1-2.2c0-0.2,0-0.4,0-0.6
		c0.1-1,0.4-1.9,0.4-3c0-7.1,0-14.2,0-21.2c0-1.9-0.3-3.8-0.3-5.7c0-0.1,0-0.3,0.1-0.6c0.1-0.2,0.1-0.4,0.2-0.6
		c0-0.2,0.1-0.5,0.1-0.7c0.1-2.4,0.3-4.8,0.3-7.2c0-0.9-0.3-1.7-0.3-2.5c0-0.7,0.3-1.4,0.3-2.1c0-3.4-0.2-6.9-0.2-10.2
		c1.1-0.1,2.5-0.1,3.8-0.1c1.3,0,2.8,0,3.9,0c0.3,0,0.6,0,0.9,0s0.8-0.1,1.2-0.3c1.1-0.6,1.3-1.3,1.3-2c0-1.5-0.2-3.2-0.2-4.7
		C707,911.2,707.1,910.5,707.1,909.9z"/>
	<path d="M725.9,918.2c1.5-0.1,3.1-0.3,4.7-0.3c1.8,0,3.6,0.2,5.5,0.2c0.7,0,1.4,0,2.1,0c0.1,0,0.2,0.1,0.2,0.1c0.1,0,0.2,0,0.4,0.1
		c0.2,0,0.4,0,0.7,0.1c1.3,0,2.8-0.1,4.1-0.2c2-0.2,2.6-1.3,2.6-2.3c0-1.1,0.3-2.4,0.3-3.5c0-1.1-0.2-2-0.3-3.1
		c-0.1-0.6-0.3-1-0.5-1.1c-0.7-0.8-1.8-0.8-2.3-0.8c-0.3,0-0.3,0-0.5-0.2l-0.5-0.4l-0.7-0.1c-0.1,0-0.7,0-1.4,0.1
		c-0.4,0.1-0.9,0.2-1.3,0.3c-0.5,0.1-0.9,0.2-1.3,0.3c-0.5,0-0.8,0.1-0.9,0.1c-2.8,0-5.6-0.3-8.2-0.3c-2,0-4.1,0.1-6,0.3
		c-0.2,0-0.3,0-0.5,0c-0.5-0.2-1.1-0.4-2.2-0.4c-1.5,0-3.5,0.2-5,0.5c-0.3,0.1-1.6,0.3-2,1.3c-0.1,0.1-0.1,0.4-0.2,0.8
		c0,0.2,0,0.5-0.1,0.8c0,0.6-0.1,1.2-0.1,1.4c0,1.1,0.5,2,0.5,3.1c0,2-0.1,4.1-0.1,6.1c0,3.8,0.1,7.8,0,11.7
		c-0.1,3.3-0.5,6.5-0.5,9.9c0,5.3,0.4,10.4,0.6,15.7c0,0.8,0.2,1.4,0.2,2.2c0,2.2,0,4.3,0,6.5c0,2.1-0.4,4.2-0.4,6.4
		c0,1.3,1,2,2.3,2c0.5,0,1-0.1,1.5-0.1c1,0,1.9,0.2,2.8,0.2h12.4c1.1,0,2-0.2,3.1-0.2c2.3,0,4.7,0,7,0s4-1.6,4.2-3.1
		c0.2-1.5,0.2-3.4,0.2-5c0-1-0.7-2.6-3.2-2.6h-5.8c-4,0-8.1-0.3-12.2-0.4c0-0.5,0.1-1.1,0.1-1.7c0-2.9-0.2-5.6-0.2-8.5
		c0-2.7,0.3-5.4,0.6-8c0-0.3,0.1-0.5,0.2-0.6c1.3-0.5,3-0.7,4.8-0.7c2.2,0,4.3,0.2,6.5,0.2c3,0,3.1-1.6,3.2-2.5
		c0.1-2.3,0.3-4.5,0.3-6.8c0-0.6-0.8-2.1-2.6-2.1c-2.6,0-5,0.2-7.6,0.2h-4c-0.3-0.7-0.4-1.5-0.4-2.2v-13.2
		C725.9,918.3,725.9,918.2,725.9,918.2z"/>
	<path d="M789.1,949.1c-0.5-2.5-2.2-4.6-4.1-6.1c-1-0.9-1.6-1.7-2.5-2.4c-1-0.9-2.1-1.7-3.6-2.3c-0.1-0.1-0.2-0.2-0.2-0.3
		c-0.5-0.3-1-0.5-1.4-0.7c-1.1-0.2-1.4-0.4-2.4-1.1c-0.4-0.2-0.8-0.4-1.1-0.6c-0.7-0.2-1.3-0.4-1.9-0.7c-0.5-0.2-0.9-0.4-1.1-0.7
		c-0.4-0.3-0.7-0.5-1-0.7s-0.6-0.4-0.7-0.6c-2.5-2-3.7-4.7-3.7-7.4c0-3.7,3.5-8.9,7.6-8.9c1,0,1.4,0.3,1.9,0.7
		c0.9,0.8,1.6,1.7,2.4,2.6c0.8,1,1.4,2,2.2,2.9c0.2,0.2,0.4,0.5,0.6,0.7c0.3,0.3,1,0.8,2.1,0.8c1,0,8.1-4,8.1-5.5
		c0-0.6-0.2-0.9-0.6-1.3c-0.3-0.2-0.5-0.6-0.6-1.1c-0.7-2.3-2.5-3.9-4.1-5.3c-0.2-0.1-0.3-0.3-0.5-0.4c-0.2-0.2-0.5-0.4-0.8-0.6
		c-0.2-0.1-0.4-0.2-0.4-0.2c-1.4-2.8-9.3-4-12.2-4c-5.1,0-9.7,3.1-13.3,6.3c-0.9,0.8-1.5,1.6-2.2,2.8c-1.5,3.1-2.8,6.7-2.8,10.1
		c0,12.1,9.1,19.7,20.2,22.9c3.3,1.2,5.7,4.7,5.7,8.1c0,3.4-2.9,8-6.6,8c-0.4,0-1.1-0.1-1.7-0.1c-0.3,0-0.6,0-0.9,0
		c-0.1,0-0.3,0-0.3,0c-1-0.4-2.3-1.5-3-2.4c-1-1.4-1.6-2.9-2.3-4.4c-0.1-0.1-0.2-0.3-0.4-0.5c-0.5-0.8-1.4-1.1-2.2-1.1
		c-0.5,0-1.6,0.3-2,0.7c-0.8,0.6-1.7,0.9-2.7,1.3c-1,0.6-2,1.1-2.9,1.6c-0.6,0.2-1.5,0.9-1.5,2c0,0.4,0.2,1,0.4,1.2
		c0.2,0.4,0.5,0.7,0.7,1.1c0.3,0.4,0.5,0.6,0.7,1c0.2,0.3,0.3,0.5,0.4,0.6c0.8,2.3,2,3.5,3.9,5.2c0.2,0.1,0.3,0.3,0.5,0.4
		c0.2,0.2,0.5,0.4,0.7,0.6c0.2,0.1,0.5,0.2,0.7,0.3c2.6,3,9,3.9,12.3,3.9c2.7,0,5.9-1.4,7.6-2.2c5.8-3,9.9-8.4,10.4-14.9
		c0-1.1,0-2.1,0-3.2c0-1.7-0.3-3.7-1.2-5.5C789.2,949.5,789.1,949.4,789.1,949.1z"/>
	<path d="M855.1,940.1c-0.3-4.7-0.1-9.4-0.1-14v-9.4c0-1.9,0-3.9,0-5.9s-1.8-2.7-3.4-3c-0.7,0-1.2-0.1-1.9-0.1c-0.3,0-0.5,0-0.8,0
		c-0.2,0-0.4-0.1-0.5-0.1c-0.4-0.1-0.8-0.1-1.3-0.1c-2.1,0-3.7,0.9-4.9,1.8c-0.4,0.4-0.7,0.9-1,1.1c-0.2,0.3-0.4,0.7-0.7,1
		c-1.9,2.4-3.9,4.8-5.5,7.3c-0.3,0.5-0.5,1.1-0.9,1.4c-0.3,0.4-0.8,1.1-1.2,1.7c-0.2,0.3-0.5,0.7-0.6,1c-0.4,0.7-0.4,1.1-0.4,1.8
		c-0.1,0.1-0.1,0.2-0.2,0.3c-3.3,5-6,10.1-9,15.3c-0.8,1.2-1.7,2.7-2.4,4c-0.4,0.9-0.7,1.8-0.7,2.8c0,1.2,0.5,2.5,0.5,3.6
		c0,1.9,0.1,3.3,2.5,3.3c1.3,0,2.9-0.1,4.2-0.3c2.2-0.2,4.6-0.3,6.8-0.3c2.7,0,5.5-0.3,8.1-0.4c0,3.2,0.1,6.2,0.1,9.3
		c0,2.6-0.2,5.3-0.2,7.8c0,1.1,0,2.6,0.2,3.5c0.2,0.7,1.6,1.8,2.5,1.8c1.7,0,3.5,0.1,5.4,0.1c0.5,0,1.1,0,1.5,0
		c0.3,0.1,0.6,0.1,0.9,0.1c2.3,0,3.3-1.3,3.3-2.5c0-0.9-0.4-1.6-0.4-2.4c0-1.1,0.1-2.1,0.1-3.2c0-2-0.4-4-0.4-6v-8.9
		c2.2,0,5.1-0.4,5.1-3.2c0-2.1,0.1-4.3,0.1-6.4C860,940.5,857.3,940.1,855.1,940.1z M842,940.6c-1.8,0.2-3.7,0.3-5.6,0.5
		c1.4-2.7,3.1-5.5,4.9-8.1c0.1-0.1,0.3-0.3,0.4-0.5c0.1-0.1,0.2-0.2,0.3-0.4V940.6z"/>
	<path d="M874.5,954.6c-0.5-0.3-1.1-0.4-1.4-0.6c-0.3-0.1-0.8-0.3-1.1-0.4c-0.2-0.1-1-0.3-1.1-0.3c-0.3,0-0.5,0-0.8,0.1
		c-0.2,0-0.4,0.1-0.6,0.1c-0.1,0-0.2,0.1-0.4,0.1c-3.3,0.4-4,3.4-4,6.2c0,1.2,0.6,2.7,1.4,3.5c1,0.8,3.1,1,4.3,1h0.8
		c1.5,0,3.2-0.4,3.6-1.9c0.1-0.2,0.2-0.5,0.3-0.7c0.4-1.3,0.7-2.8,0.7-4.2C876.1,956.3,875.6,955.3,874.5,954.6z"/>
	<path d="M874.5,934.1c-0.5-0.2-1.1-0.3-1.4-0.5c-0.3-0.1-0.8-0.3-1.1-0.4c-0.2-0.1-1-0.3-1.1-0.3c-0.3,0-0.5,0-0.8,0.1
		c-0.2,0-0.4,0.1-0.6,0.1c-0.1,0-0.2,0.1-0.4,0.1c-3.3,0.4-4,3.4-4,6.2c0,1.1,0.6,2.7,1.4,3.5c1.2,0.8,2.9,1,4.3,1h0.8
		c1.2,0,2.3-0.3,3.1-1c0.3-0.3,0.5-0.7,0.6-1c0.7-1.2,1-3.5,1-4.9C876.1,935.9,875.6,934.8,874.5,934.1z"/>
	<path d="M904.8,961.2v-7.8c0-5.2,0.2-10.3,0.2-15.5c0-2.1-0.3-4.3-0.3-6.4c0-3.6,0.2-7.2,0.2-10.8c0-1.9-0.1-3.7-0.1-5.6
		c0-1.4,0.1-2.8,0-4.3c-0.1-0.9-0.2-2.6-3.1-2.9c-1.3-0.2-2.6-0.4-3.9-0.4c-2.9,0-4.8,0.6-6.3,2.6c-1.1,1.3-2.2,2.7-3.2,4
		c-2.2,3-4.1,6-6.2,9.1l-0.3,0.5l0.2,0.6c0.5,1.3,3.5,4.8,4.9,5.6c0.3,0.3,0.7,0.6,1.1,0.8c0.3,0.2,1,0.5,1.6,0.5
		c1.2,0,1.9-0.6,2.3-0.9c0,1.5,0,3.2,0,4.7c0,4.7-0.1,9.3-0.1,14c0,1.4-0.2,3-0.2,4.4c0,2.1,0.2,4.1,0.2,6.2c0,2-0.2,4-0.2,5.9
		c0,1.4,0.2,2.9,0.2,4.3v3.6c0,1.4,1.2,2.1,2.5,2.1h5.6c0.8,0,1.5,0.2,2.3,0.2c2.2,0,3.1-1.4,3.1-2.4c0-0.9-0.3-1.8-0.3-2.6
		C904.9,967.5,904.8,964.3,904.8,961.2z"/>
	<path d="M928.8,907.4c-0.7,0-3.5,0.6-3.9,0.8c-7.2,2.2-13.6,12.1-13.6,19.6v0.6l0.3,0.4c0,0,0.1,0.1,0.1,0.3c0,0.5-0.3,1.1-0.3,1.8
		c0,1.1,0.7,3.9,1.3,5c0.2,0.3,0.5,0.5,0.9,0.8c0.3,0.3,0.9,0.6,1.7,0.6c0.2,0,0.6,0,1-0.1c0.3-0.1,0.5-0.2,0.8-0.3
		c0.6-0.1,3-1,3.4-1.2c0.3-0.1,0.5-0.2,0.7-0.3c0.3-0.1,0.5-0.2,0.6-0.3c0.3-0.1,0.5-0.4,0.8-0.5c0.2-0.1,0.4-0.2,0.6-0.3
		c0.7-0.3,1.1-0.9,1.1-1.5c0-0.4-0.1-0.8-0.2-1.1c0-0.3-0.1-0.6-0.2-1c-0.2-0.6-0.4-1.1-0.4-1.5c0-3.3,2.9-9.5,6.6-9.5
		c0.8,0,1.5,0.2,2.3,0.2c3.6,0,5.4,5.8,5.4,8.7c0,3.7-1.4,7.8-5,9.7c-2,0.8-3.7,1.8-5.3,3c-0.3,0.5-1,0.8-1.4,1.1
		c-1.8,0.8-4.9,2.2-6.3,3.6c-4.2,4.4-5.8,8.1-6.1,13.4c-0.1,1.7-0.6,3.3-0.6,5.1c0,2.8-0.1,5.5-0.1,8.3c0,0.7,0.9,2.2,1.3,2.7
		c0.3,0.2,1,0.6,2,0.6c1.4,0,2.7-0.1,4.1-0.1c0.3,0,0.6,0,0.9,0c5.5,0,10.8,0,16.3,0h9.1v-9.5c0-0.8-0.7-2-2.3-2
		c-1.4,0-2.7,0.1-4.1,0.3c-0.2,0-0.5,0.1-0.8,0.1c-0.3,0.1-0.4,0.1-0.4,0.1c-1.8,0-3.7,0-5.6,0c-2.6,0-5.2,0.1-7.8,0.3
		c0-8.5,1.3-10.6,9.2-15c1.1-0.6,2.2-1.1,3.3-1.8c1.2-0.6,2.5-1.3,3.5-2.1c0.5-0.5,0.9-1,1.2-1.3c0.4-0.5,0.7-0.9,1.1-1.2
		c3.7-3.8,4.5-7.2,5.5-11.5c0.2-0.8,0.4-1.6,0.4-2.5c0-6.7-2.8-14.4-7.7-18.8C938.7,907.7,932.8,907.4,928.8,907.4z"/>
	<path d="M225.9,250c3.8,0,7.3-0.9,10.5-2.6c2.3-1.1,7.8-5.3,16.4-12.8c0.1,4.2,1,7.5,2.6,9.9c1.3,1.9,4.4,3.1,9.2,3.6
		c4.8,0.5,8.4,0.7,10.9,0.5c2.5-0.2,4.6-0.4,6.2-0.7v-3.6c-4.3,0-7.4-0.5-9.1-1.5c-1.8-1-2.9-2.3-3.5-3.8c-0.6-1.5-0.9-5.5-0.9-11.8
		l-0.2-9.9h0.2c0-0.1,0-0.3,0-0.6c0-0.3,0-0.5,0-0.8v-31.4c0-9-0.6-15-1.8-17.8c-1.6-4.5-4.3-7.8-7.9-9.9c-4.9-2.7-11.1-4-18.6-4
		c-9.9,0-17.5,2.4-22.9,7.3c-5.4,4.9-8.1,10.2-8.1,16c0,4.2,0.9,7.6,2.8,10.3c2.6,3.4,5.6,5.4,9.1,6c3.5,0.6,6.7,0.1,9.7-1.6
		c3-1.7,5.4-4.2,7.4-7.5c2-3.3,2.8-6.7,2.5-10.2c-4.6,2.4-8.1,3.5-10.4,3.1c-2.4-0.3-4-1.5-5-3.5c-0.7-1.2-0.9-2.6-0.6-4.3
		c0.4-2.3,1.5-4.3,3.4-6.1c2.3-2.3,5.3-3.4,9.1-3.4c5.1,0,9,1.7,11.7,5.2c2.7,3.4,4,9.8,4,19.1v3.6c-14.6,5.8-25,10.7-31.3,14.8
		c-6.3,4-10.6,8.4-13.1,13c-1.9,3.2-2.8,7.2-2.8,11.7c0,7.2,1.9,12.9,5.7,17.3C215.1,247.8,220,250,225.9,250z M224.4,210.8
		c2.1-3.2,5.6-6.3,10.4-9.3c2.7-1.8,8.7-4.7,18-8.7v35.4c-7.6,6.7-13.7,10.1-18.4,10.1c-3.5,0-6.6-1.6-9.2-4.9
		c-2.6-3.2-3.9-7.3-3.9-12.1C221.2,217.5,222.3,214,224.4,210.8z"/>
	<path d="M370.8,250.8c8.1,0,15.5-3.3,22.2-9.8c6.7-6.5,11.2-16,13.5-28.2l-2.6-1.4c-3.2,8.2-6.5,13.9-9.9,17
		c-4.9,4.5-10.3,6.7-16.4,6.7c-8.4,0-15-4.2-20-12.6c-5-8.4-7.5-18.2-7.5-29.2c0-10.8,2.5-19.6,7.5-26.3c4.6-6.1,10.9-8.8,19-8.3
		c3.6,0.1,6.7,1.5,9.1,4c1.9,1.8,3,3.8,3.4,6.1c0.3,1.6,0.1,3-0.4,4.3c-1.1,2-2.8,3.2-5.2,3.5c-2.4,0.3-5.8-0.7-10.4-3.1
		c-0.3,2.8,0.2,5.6,1.4,8.4c1.2,2.8,2.9,5.1,5.2,6.9c2.2,1.8,4.6,3.1,7.2,3.9c2.6,0.8,5.2,0.7,7.9-0.2c2.7-0.9,5.1-2.8,7.1-5.7
		c1.9-2.7,2.8-6.1,2.8-10.3c0-5.8-2.7-11.1-8.1-16c-0.4-0.4-0.9-0.8-1.4-1.2c-5.3-4.3-11.8-6.5-19.6-6.5c-2.2,0-4.3,0.1-6.3,0.4
		c-0.4,0.1-0.9,0.3-1.4,0.4c-7.8,1.6-14.8,5.9-20.8,12.8c-8,9.2-11.9,21-11.9,35.6c0,15,3.6,26.9,10.7,35.7
		C352.9,246.4,361.2,250.8,370.8,250.8z"/>
	<path d="M450.5,250.8c7.8,0,14.9-2.2,21.3-6.5c6.3-4.3,11.3-10.7,15-19.2c3.6-8.5,5.5-16.9,5.5-25.1c0-11.9-3.3-22.3-9.9-31.4
		c-7.7-10.7-17.9-16-30.8-16c-7.2,0-13.9,2-20.1,6c-6.3,4-11.3,10.2-15.2,18.6c-3.8,8.4-5.8,16.9-5.8,25.4c0,11.6,3.2,22.1,9.5,31.6
		C427.5,245.3,437.7,250.8,450.5,250.8z M430.7,173.6c2-5.3,4.7-9.1,8-11.2c3.3-2.2,6.6-3.2,9.8-3.2c6.9,0,12.5,3.2,16.8,9.7
		c6.5,9.4,9.7,22.4,9.7,38.9c0,13.2-1.9,22.5-5.8,27.9c-3.8,5.4-8.8,8.1-14.9,8.1c-8,0-14.4-4.9-19.3-14.7
		c-4.9-9.8-7.4-21.4-7.4-34.9C427.7,185.8,428.7,179,430.7,173.6z"/>
	<path d="M536.5,244.4c-4.3,0-7.4-0.5-9.1-1.5c-1.8-1-3-2.3-3.6-3.8c-0.7-1.5-1-5.5-1-11.8v-35v-11.7c0.1-1.2,0.4-2.5,0.8-3.8
		c0.9-3.5,3-6.2,6.1-8.1c2-1.5,4.2-2.2,6.5-2c1.6,0,3,0.4,4.1,1.3c1.1,0.9,1.9,2,2.3,3.2c0.4,1.3,0.2,3-0.6,5.2
		c-0.8,2.2-2.4,4.5-4.7,6.9c3.4,1.1,6.9,1,10.6-0.2c3.7-1.2,6.6-3.1,8.8-5.8c2.2-2.6,3.4-5.7,3.7-9.1c0.3-3.4-1-6.8-4.2-10.2
		c-2.6-3-5.7-4.7-9.5-5.1c-3-0.3-5.8,0-8.4,0.9c-2.6,0.9-4.9,2.2-6.7,3.9c-1.8,1.8-3.3,3.4-4.5,4.9c-1.1,1.5-2.7,4-4.6,7.5v-17.4
		h-28.3v3.6c3.8,0,6.7,0.6,8.9,1.8c1.2,0.7,2.2,2,3,3.8c0.4,1.4,0.7,3.7,1,7.1v62.7c-0.3,3.4-0.6,5.7-1,7.1c-0.8,1.9-1.8,3.2-3,3.8
		c-2.2,1.2-5.1,1.8-8.9,1.8v3.6h42.1V244.4z"/>
	<path d="M599.7,250.8c9.3,0,17.1-3.8,23.4-11.3c6.3-7.6,10-16,11.2-25.3l-2.8-2c-2.7,8.1-6.1,13.8-10.2,17.2
		c-4.1,3.4-8.9,5.1-14.5,5.1c-8.4,0-15.7-3.9-21.9-11.7c-6.2-7.8-9.2-18.6-9.1-32.4h58.5c0-11.5-3-20.6-9.1-27.5
		c-6.1-6.9-13.9-10.3-23.5-10.3c-11.2,0-20.5,4.5-27.9,13.4c-7.4,8.9-11.1,21.3-11.1,37c0,14.7,3.6,26.4,10.8,35
		C580.7,246.5,589.4,250.8,599.7,250.8z M582.9,166.2c4-4.3,8.6-6.5,13.8-6.5c3.4,0,6.6,1.1,9.6,3.2c3,2.2,5.3,5.1,6.8,8.9
		c1.1,2.4,1.8,6.6,2,12.5h-39.3C576.5,176.6,578.8,170.6,582.9,166.2z"/>
	<path d="M730.4,250.8c7.8,0,14.9-2.2,21.3-6.5c6.3-4.3,11.3-10.7,15-19.2c3.6-8.5,5.5-16.9,5.5-25.1c0-11.9-3.3-22.3-9.9-31.4
		c-7.7-10.7-17.9-16-30.8-16c-7.2,0-13.9,2-20.1,6c-6.3,4-11.3,10.2-15.2,18.6c-3.8,8.4-5.8,16.9-5.8,25.4c0,11.6,3.2,22.1,9.5,31.6
		C707.4,245.3,717.6,250.8,730.4,250.8z M710.6,173.6c2-5.3,4.7-9.1,8-11.2c3.3-2.2,6.6-3.2,9.8-3.2c6.9,0,12.5,3.2,16.8,9.7
		c6.5,9.4,9.7,22.4,9.7,38.9c0,13.2-1.9,22.5-5.8,27.9c-3.8,5.4-8.8,8.1-14.9,8.1c-8,0-14.4-4.9-19.3-14.7
		c-4.9-9.8-7.4-21.4-7.4-34.9C707.6,185.8,708.6,179,710.6,173.6z"/>
	<path d="M790.7,223.5c0,6.6-0.4,11.1-1.1,13.4c-0.7,2.3-2.1,4.1-4.2,5.5c-2,1.4-4.3,2-6.9,2H775v3.6h50.6v-3.6h-7.7
		c-3.8,0-6.8-1.5-9.1-4.5c-1.8-2.3-2.6-7.8-2.6-16.4v-60.9H828v-7.3h-21.9v-6.7c0-14.4,0.4-23.3,1.2-26.7c0.8-3.2,2.1-5.7,3.8-7.3
		c2.6-2.4,5.6-4,9.1-4.7c3.8-0.8,7.2-0.5,10.1,1c2.2,1.1,3.8,2.6,4.9,4.7c0.8,1.5,1.1,2.9,1,4.3c-0.3,2.3-1.6,4-4,5.2
		c-2.4,1.1-5.9,1.2-10.5,0.1c0.5,2.3,1.6,4.4,3.1,6.4c1.6,2,3.3,3.5,5.4,4.8c2,1.2,4.2,2,6.5,2.4c2.3,0.4,4.5,0.4,6.7-0.1
		c2.2-0.5,4.1-1.6,5.9-3.2c1.8-1.7,3.1-3.9,4-6.6c0.9-3.1,0.7-6.7-0.6-10.7c-1.8-5.5-6-9.8-12.8-12.8c-0.5-0.1-1.1-0.3-1.6-0.6
		c-6.3-2.4-13.3-2.4-20.8,0c-2,0.7-4,1.5-5.9,2.4c-0.3,0.1-0.6,0.3-1,0.6c-4,2.4-7.6,5.5-10.5,9.3c-2,2.6-3.7,5.5-5.1,8.7
		c-0.8,1.9-1.6,3.9-2.2,6.1c-0.3,1.4-0.5,2.6-0.8,3.8c-0.8,4.2-1.2,8.7-1.2,13.6v6.1h-16.4v7.3h16.4V223.5z"/>
	<path d="M144.2,382.5c0.4,19,2.5,69.5,32.5,65.2c9.2-1.3,14.5-15.7,19-34c1.2,7.9,2.7,15.6,4.6,23.3c0.4,1.6,0.9,3.2,1.8,4.6
		c1.9,2.9,8.8,9.3,15.8,7.1c8.2-2.6,7.4-16,8.2-22.8c1.6-13,4.2-25.8,8.2-38.3c1.7-5.1,3.5-10.2,5.9-15c1-2.3,2.2-4.5,3.6-6.5
		c0.6-0.9,2.1-2.2,3-3.3c0.7,24.6-4,48.9-3.5,73.4c0.2,9.6,0.6,25.2,10.6,30.2c9.3,4.5,19,0.1,22.4-9c2.1-5.6,3.9-11.5,5.5-17.4
		c0.1,1.7,0.2,3.4,0.3,5.2c0.3,5.7,15.4,7.8,15.6,2c0-0.8,0.1-1.6,0.1-2.4h0.1c0-0.4-0.1-1-0.1-1.5c0.1-11.8-0.5-24.9,1.5-36.2
		c2.8-27.9,14.3-50.3,23.4-47c4.8,1.8,1.4,28.7-4.7,28.9c-3.1,0.1-3.9-3.3-2.6-5.4c1.6-2.4-5.2-2.3-6.1-1.7c-2,2.5-1.6,8.2,2.2,10.7
		c5.8,3.9,11,1.8,16.1-3.4c9.8-9.6,11.4-40.3-2.5-41c-13.8-0.8-21.2,17.4-27,32.3c-0.7,1.7-1.3,3.3-1.9,5c0.1-4.5,0.3-9.1,0.4-13.5
		c0.4-7.8,0.3-14.4,2-23.1c1.1-5.4-11.1-5.3-13.5-1.3c-2.7,4.7-3.7,14.4-4.2,22c-0.5,8.3-0.7,16.8-0.7,25.2c0,7.2,0.2,14.3,0.5,21.5
		c-2.1,9.1-4.8,18-8.3,27c-1.7,4.6-3.4,9.3-6,13.4c-1.7,2.9-1.8,4.3-3.7,0.9c-1.5-2.5-2.3-5.6-2.8-8.5c-2-10.1-1.2-20.9-0.4-31.2
		c0.8-10.6,2-21.3,2.7-32.1c0.5-7.6,3.2-21.4-2.9-27.6c-4.2-4.2-12.5-4.7-17.2-1c-6,4.8-9.9,13.5-12.6,20.6
		c-4.2,10.6-7.6,21.6-10,32.9c-1.3,5.4-2.1,11.1-3.1,16.7c-0.3,1.9-0.7,4.3-1.3,6.8c-0.1-0.6-0.2-1.1-0.3-1.6
		c-1.1-5.4-2.1-10.9-3-16.4c-1.5-10.6-2.6-21.2-3.2-32c-0.2-4.2-0.3-8.7-0.4-13.1v-0.1c0-0.3-0.1-0.4-0.1-0.7
		c-0.4-1.9-0.3-3.5,0.1-5.3c0-0.4,0-0.9,0-1.3c0.2-14.6,1.3-29.2,3.3-43.7c0.3-1.6,1.2-6.4,2.5-12.5c17.8-0.6,27.2-15.8,25.6-33.1
		c-0.5-7.1-2.2-12.7-4.9-16.1c-4.5-5.4-13.9-2.9-19,0.9c-4.5,3.5-11,19-16,41c-1-0.3-2-0.5-3.1-0.9c-5.4-1.4-14.1-5.4-24.3-7.9
		c3.2-11.1,7.6-22.9,11.7-26.1c0.7-0.5,0.8-1.6,0.2-2.2c-2-2-5.8-2.8-9-1.6c-4.7,2.4-10.1,8.2-17.3,27.7c-6.7-0.4-13.7,0.3-20.5,3.1
		c-7.8,3.1-8.5,11-8.5,11c2.8-0.4,11-4.8,25.9-5.1C146.6,324.9,143.6,354.9,144.2,382.5z M228.5,262c2.7,1.3,3.6,7.9,4,12.2
		c-0.1,2.5,3.5,27.9-17.4,28.6C219,285.1,225.2,260.6,228.5,262z M162.1,345.6c1.4-12.2,3.5-24.4,5.8-36.5c0.5-2.5,1.3-5.8,2.3-9.6
		c9.3,1.6,19.3,4.4,28.4,6.2c-3.2,16.1-5.7,35.3-6,55.5c-0.3,12.9,0.2,26,1.4,39.1c-3.9,16-10,38.1-17.1,38.4
		c-3.6,0.2-4.8-1.5-6.6-4.4c-2.8-4.7-4.7-10.1-6.1-15.5c-3-11.8-4.1-24.4-4-36.5C160.3,363.9,161.4,349.7,162.1,345.6z"/>
	<path d="M369.8,441.3c12.2-0.9,22.5-12.1,29.4-26.6c1.3-2.6,2.5-5.4,3.7-8.2c0.4,6.9,1.5,13.9,4.3,19.8c5,10.7,15.7,15.8,27.2,15
		c12.2-0.9,22.5-12.1,29.4-26.6c5.4-11.3,10.4-24.8,12.5-33.9c0.8-3.3-3.6-3.6-4.2-0.1c-1.6,8.9-9.2,25.9-11.5,29.7
		c-5.4,8.8-13.6,21.8-24.6,21.4c-12.6-0.5-16.5-12.7-17.3-25.2c0.7,0.1,1.4,0.3,2,0.3c9.9,0.9,17.2-6,21.9-14
		c7.5-12.6,20.1-52.5-6.1-52.4c-23.2,0.1-32.5,32.5-33.6,50.7c-0.1,1.4-0.2,2.9-0.2,4.3c-2.6,6.6-5.5,12.8-6.8,14.9
		c-5.4,8.8-13.6,21.8-24.6,21.4c-12.6-0.5-16.5-12.7-17.3-25.2c0.7,0.1,1.4,0.3,2,0.3c9.9,0.9,17.2-6,21.9-14
		c7.5-12.6,20.1-52.5-6.1-52.4c-23.2,0.1-32.5,32.5-33.6,50.7c-0.7,11.3-0.7,24.6,4.2,35.1C347.6,437.1,358.3,442.2,369.8,441.3z
		 M419.6,383.5c2.4-24.2,13.9-39.1,19-36.1c4.1,2.3,4.2,10.3,4.1,14.2c-0.2,10.2-3.3,20.4-8.3,29.3c-2.6,4.6-7.8,13.5-14.6,10.1
		c-0.4-0.2-0.8-0.4-1.1-0.7C418.5,393.5,419.2,387.2,419.6,383.5z M355,383.5c2.4-24.2,13.9-39.1,19-36.1c4.1,2.3,4.2,10.3,4.1,14.2
		c-0.2,10.2-3.3,20.4-8.3,29.3c-2.6,4.6-7.8,13.5-14.6,10.1c-0.4-0.2-0.8-0.4-1.1-0.7C353.9,393.5,354.6,387.2,355,383.5z"/>
	<path d="M560.7,394.9c10.8-17.8,10-45-13.7-51.2c-21.7-5.8-38.9,14.9-38.1,35.4c0.4,10.2,5.6,19.1,12.7,26.2
		c3.7,3.6,7.8,6.6,12.2,9.3c4.6,2.9,10.2,5.6,12.5,10.8c3.7,8.2-3.7,13-9.7,12.6c-7.1-0.6-9.4-8.3-10.1-14.4
		c-0.6-5.9-16.7-5.3-16.1,0.3c1.7,15.7,13.3,23.1,28.5,22.4c6.2-0.3,12.9-1.8,18.1-5.4c8.5-5.9,8.2-16,1.2-23.3
		c-7.2-7.6-17.8-11-24.8-19.2c-7.6-8.8-10.3-20.7-6.4-31.9c1.7-4.8,4.5-9.8,8.4-13c3-2.4,4.5-2.6,8-0.9c15,7.7,10.9,28.9,7.5,41.1
		C550,396.8,559.5,397,560.7,394.9z"/>
	<path d="M622.4,347.4c-2.7,4.7-3.7,14.4-4.2,22c-0.5,8.3-0.7,16.8-0.7,25.2c0,5.8,0.2,11.6,0.3,17.4c-1.8,6.5-3.8,12.3-6,17.4
		c-2.5,5.4-5,8.2-7.8,8.7c-1.8,0.1-3.1-0.3-4-1.1c-0.9-0.8-1.8-1.9-2.6-3.3c-2.8-4.8-4.8-10-6.2-15.5c-2.8-12.1-4.2-24.2-3.9-36.5
		c0.4-19.3,1-31.4,2-36.6c1.4-12.2,3.4-24.4,5.8-36.5c0.9,0.1,1.6,0.2,2.5,0.3c5.9,0.7,11,1.1,15.5,1.4c4.5,0.3,7.4-0.2,8.8-1.1
		c1.1-0.9,2-1.9,2.4-2.8c0.4-0.8,0.7-1.7,0.8-2.5c0.1-0.8,0-1.5-0.2-2.1c-0.3-0.6-0.4-1-0.7-1.4c-0.1-0.1-0.2-0.2-0.2-0.3
		c-0.1,0-0.1-0.1-0.1-0.1c-0.1,0-0.1,0-0.1-0.1c-3.6,2.4-8.6,3.6-15,3.6c-4.1,0.1-8.2-0.1-12.5-0.3c0.7-2.7,1.5-5.9,2.5-9.3
		c1.7-6.2,3.7-12.1,5.9-17.6c2.2-5.5,4.4-9.3,6.7-11.2c0.3-0.3,0.5-0.7,0.6-1.1c0-0.4-0.2-0.8-0.4-1.1c-1.1-1-2.5-1.7-4.1-2
		c-1.6-0.3-3.3-0.2-4.9,0.4c-2.5,1-5.1,3.7-8.1,7.9c-3,4.2-6.3,11.6-10,21.9c-1.3,3.7-2.4,7.3-3.5,11c-2.6-0.1-4.9-0.2-7.1-0.3
		c-4.3,0-7.3,0.7-8.8,2.1c-0.4,0.6-0.8,1.4-0.9,2.1c-0.2,0.9-0.3,1.6-0.2,2.2c0.1,0.6,0.2,0.9,0.4,0.9c3.1-1.3,7.6-1.8,13.9-1.5
		c0.3,0,0.8,0,1.1,0.1c-2.4,9.3-4.3,18.8-5.4,28.5c-2,15.7-2.9,31.1-2.6,46.2c0,5,0.3,11.2,1,18.8c0.6,7.6,2,15.1,4.1,22.5
		c2.1,7.5,5.4,13.5,9.7,18.2c4.3,4.7,10.3,6.5,17.7,5.7c4-0.7,7.3-3.6,10.1-8.6c1.7-3,3.2-6.4,4.6-10.4c0.2,5.6,0.5,11.2,0.8,16.8
		c0.3,5.7,15.4,7.8,15.6,2c0-0.8,0.1-1.6,0.1-2.4h0.1c0-0.4-0.1-1-0.1-1.5c0.1-11.8-0.5-24.9,1.5-36.2c2.8-27.9,14.3-50.3,23.4-47
		c4.8,1.8,1.4,28.7-4.7,28.9c-3.1,0.1-3.9-3.3-2.6-5.4c1.6-2.4-5.2-2.3-6.1-1.7c-2,2.5-1.6,8.2,2.2,10.7c5.8,3.9,11,1.8,16.1-3.4
		c9.8-9.6,11.4-40.3-2.5-41c-13.8-0.8-21.2,17.4-27,32.3c-0.7,1.7-1.3,3.3-1.9,5c0.1-4.5,0.3-9.1,0.4-13.5c0.4-7.8,0.3-14.4,2-23.1
		C637,343.3,624.7,343.4,622.4,347.4z"/>
	<path d="M813.8,463.9c-21.5-9.2-5.1-80-1.3-111.7c0.7-5.8,1.2-16.7-1.6-24.1c-1.1-2.7-9.5-8.2-13.3-7.5c-6.2,1.2-10.2,7.9-12.9,14
		c-4.8,10.9-9.3,21.8-12.9,33.1c-3.9,12.4-6.5,25.2-9.5,37.9c-0.1-2-0.3-4.1-0.3-6.1c-0.8-14-0.8-27.1,0.2-42.3
		c0.3-5.9-10.8-3.5-12-0.2c-2.3,6.5-4.5,22.7-4.7,38.3c-1.5,5.7-3.4,11.3-5.8,16.7c-2.2,5.1-4.7,10-7.8,14.6c-0.9,1.5-2,3-3.2,4.4
		c-0.3-1.1-0.7-2.3-0.8-3.5c-4.6-23.4-2.5-47.8-0.7-71.5c0.3-3.7-6.4-4.8-11.2-3.6c-0.3-0.3-0.4-0.6-0.7-0.9
		c-5.9-6.5-17.7-5.9-24.2-0.7c-8.6,6.8-12.5,20.6-15.2,30.6c-3.1,11.7-4.6,23.7-3.9,35.8c0.5,9.2,1.6,21.4,11.5,25.3
		c11.2,4.3,18.4-4.1,22.5-13.3c1.5-3.4,2.9-7,4-10.6c0.8,9.3,3.3,18.8,11.6,21.1c13.7,3.7,18.2-8.8,21.8-19.1
		c0.9-2.6,1.8-5.2,2.5-7.9c0.7,9.4,2.3,18.9,6.8,26.9c1.8,3.2,10,2.8,10.9-1c4.5-19.6,9.5-39.4,14.8-58.8c2.6-9.4,5.4-18.9,9.3-27.9
		c1.8-4.2,3.6-8.2,6-12.2c0.5-0.8,1.4-2.3,2.3-3.9c0,0.3,0,0.7,0.1,1c0.3,4.2,0.3,8.6,0.3,12.9c-11.6,72.7-11.1,102.4-2.6,115.1
		c4,4.7,10.1,6.5,16.1,5.8c3.5-0.4,8.2-1.7,7.6-5.9C817.2,463.4,814.7,463.7,813.8,463.9z M702.5,400.5c-1.7,6.2-3.5,12.4-5.7,18.4
		c-0.9,2.5-3.4,9.7-6.4,13.9c-1-2.7-1.6-6.2-1.8-7.6c-0.8-4.6-0.9-9.3-0.9-14c0-10.5,1.5-21,4.6-31c1.4-4.6,3.1-9.1,5.1-13.5
		c0.9-2.1,2-4.2,3.1-6.2c0.7-1.2,1.4-2.5,2.2-3.7c0.5,0.7,1.1,1.4,1.5,2c1.3,1.8,2.2,3.8,3.3,5.7c0.6,1.1,1.1,2.2,1.5,3.3
		C707.3,378.8,705.6,389.8,702.5,400.5z"/>
	<path d="M842.6,345.3c-9.6-0.1-15.2,6.7-19.3,14.5c-9.5,18.7-14.4,45-9,65.6c2.2,8.4,7.1,16.7,16.6,16.9
		c11.1,0.3,14.2-8.9,17.1-17.8c1.3-3.9,2.5-7.9,3.6-11.9c0.7,8.7,2.2,17.4,6.8,23.7c6.1,8.4,20.3,9.2,23.8-1.8
		c3.8-12.1,7-24.4,9.2-36.8c1.8,2.7,3.9,5.2,6.2,7.5c3.7,3.6,7.8,6.6,12.2,9.3c4.6,2.9,10.2,5.6,12.5,10.8c3.7,8.2-3.7,13-9.7,12.6
		c-7.1-0.6-9.4-8.3-10.1-14.4c-0.6-5.9-16.7-5.3-16.1,0.3c1.7,15.7,13.3,23.1,28.5,22.4c6.2-0.3,12.9-1.8,18.1-5.4
		c8.5-5.9,8.2-16,1.2-23.3c-7.2-7.6-17.8-11-24.8-19.2c-7.6-8.8-10.3-20.7-6.4-31.9c1.7-4.8,4.5-9.8,8.4-13c3-2.4,4.5-2.6,8-0.9
		c15,7.7,10.9,28.9,7.5,41.1c-0.8,3.1,8.7,3.2,9.9,1.2c10.8-17.8,10-45-13.7-51.2c-21.7-5.8-38.9,14.9-38.1,35.4
		c0.2,5.9,2.1,11.4,5.1,16.4c-2.3,9.1-5.3,17.8-9.2,26.4c-1.2,2.6-2.2,5.5-3.9,8c-0.9,1.3-1.9,2.6-3,3.6c-0.4-0.4-0.8-0.9-1.1-1.3
		c-1.6-2.6-2.4-5.6-3-8.6c-4.1-19.8-4.5-41-3.8-61.4C878.4,344,886,321,890,300c1.3-7.1,3.2-30.3-2.7-37.3
		c-6.9-8.1-18.6-2.6-22.9,7.7c-4.9,12.2-7.1,26.5-9.4,39.4c-2.2,12.3-3.7,24.7-4.6,37.2C847.9,345.9,844.7,345.3,842.6,345.3z
		 M849.6,378.4c-0.7,6.7-1.7,13.3-3.1,20c-1.8,8.6-4.3,16.9-7.4,25.1c-1.3,3.1-2,6.4-4.9,9.3c-1.9,1.8-3.1,1.9-4.8-0.5
		c-1-1.4-1.7-3.4-2.1-5.1c-3.1-12.6-1.5-30.1,1.4-43.9c1.6-7.4,3.6-14.8,7.1-21.6c1.2-2.3,4.4-6.5,7.1-7.3c2.4-0.7,5.9,2,6.7,6.2
		C849.5,366.4,849.5,372.3,849.6,378.4z M874.6,292.1c1.2-5.4,2.6-10.8,4.1-16.1c0.6-2.1,1.2-4.3,2.3-6.2c1.3-2.1,2.5,0.9,2.5,0.9
		c3.3,11.6,2.4,22.2,0,34c-2.5,12-6.2,23.9-11,35.2c-1.9,4.3-4,8.4-6.2,12.5C867.4,332,870.1,311.9,874.6,292.1z"/>
	<path d="M138.3,573.8c0,2.1,1.5,3.2,4.5,3.2h20.7c3-0.5,4.5-1.7,4.5-3.7c-0.5-1.9-1.7-2.9-3.8-2.9H162c0-0.2,0.1-0.5,0.2-0.8
		l1.6-87.7c3-0.6,4.5-1.7,4.5-3.5c0-1.8-1.3-2.9-4-3.2h-21.2c-3,0.5-4.5,1.7-4.5,3.8c0,1.7,1.3,2.6,3.8,2.9h1.6
		c0.9,53.9,1.3,83.4,1.3,88.5h-2.9C139.6,571.1,138.3,572.2,138.3,573.8z"/>
	<path d="M189.6,541.7L189,542c-3.5,0-5.7,4.6-6.7,13.7v2.5c0,1,0.2,2.2,0.6,3.6c3.5,9.5,10.4,14.3,20.7,14.3h3
		c2.6,0,5.2-0.2,7.9-0.6c18-3.2,27-11.3,27-24.6c0-10.2-5.6-19.9-16.7-28.9c-3.1-2.1-7.3-4.6-12.7-7.3c-8.1-5-12.2-10.6-12.2-16.7
		l0.4-3.6c2.6-8.1,8-12.2,16.1-12.2c3.4,0,6.4,0.5,8.8,1.6c4.6,1.8,6.9,5.1,6.9,9.7c0,2.7-0.6,5.6-1.8,8.5c0,1.9,1.3,3,4,3.3h0.4
		c1.4,0,2.1-0.2,2.1-0.6c1.7,0,3-3.8,3.9-11.5c-0.2-2.6-0.7-4.9-1.5-6.7c-3.7-7.5-11.1-11.3-22.2-11.3c-1.8,0-5.8,0.4-11.9,1.3
		c-16.6,4.9-24.8,13.7-24.8,26.4v0.3c0,11.7,7.2,20.8,21.5,27c14.2,7.6,21.3,15.4,21.3,23.4v1.2c0,2.1-0.6,4.2-1.8,6.1
		c-4.6,5.7-9.7,8.5-15.2,8.5c-1.8,0-4.2-0.4-7.3-1.2c-5.5-2.4-8.2-6.6-8.2-12.5c0-2.4,1-5.9,3-10.6
		C193.5,543.3,192.2,542.2,189.6,541.7z"/>
	<path d="M348.3,477c-1.1-1-2.2-1.6-3.3-1.6h-0.1c-3.3,0.4-4.9,1.7-4.9,4c0,0.9-0.4,25.4-1.3,73.5v0.1h-0.1c0-0.1-11.5-25.1-34.5-75
		c0-1.6-2.1-2.5-6.4-2.7c-4,0.3-5.9,0.6-5.9,0.8c-1,0-1.7,0.8-2.1,2.4c-1.1,8.3-1.7,28-1.7,59c0.1,16.4,0.1,28.4,0.1,36v0.1
		c0.3,2.3,1.5,3.4,3.8,3.4h0.5c3-0.5,4.5-1.8,4.5-4.1l0.5-63.3v-0.2h0.1c1.3,2.8,7.9,16.3,19.9,40.5c7.9,15.9,11.8,23.9,11.8,24.1
		c1.3,1.8,4,2.8,8.1,2.8h0.6c0.7,0,1.4,0,2.3-0.1c4.3-1.2,6.5-2.4,6.5-3.5c1.4-9.3,2.1-22.8,2.1-40.5v-1c0-12.9,0-28.7-0.1-47.4
		c0.1-2,0.1-4.1,0.1-6.1L348.3,477z"/>
	<path d="M402.5,576.4h1.9c7.7,0,15-3.3,21.8-9.8c3.9-4.3,6.7-8.1,8.4-11.4c5.6-11.1,8.4-22.4,8.4-33.8v-3.3
		c0-4.8-0.8-10.1-2.3-15.9c-1.5-4.7-2.9-8.2-4.4-10.3c-1.5-3.3-4.5-6.8-9.2-10.6c-5.8-3.8-11.7-5.7-17.7-5.7
		c-12.9,0-23.7,5.8-32.4,17.4c-7.7,11.4-11.5,24.1-11.5,37.9v0.5c0,8.3,1.5,16,4.5,23.4C377,569.2,387.8,576.4,402.5,576.4z
		 M391.5,502.6c2.5-7.6,5.4-13.1,9-16.4c2-2.3,5.1-3.5,9.3-3.5c4.3,0,8.8,2,13.7,5.9c7.4,7.5,11.1,18.2,11.1,31.8
		c0,11.8-2.7,22.8-8,32.9c-6.2,10.8-13.6,16.1-22.1,16.1c-3.3,0-6.3-1.5-9.1-4.4c-5.5-6.6-8.3-17.2-8.3-32
		C387,522.5,388.5,512.4,391.5,502.6z"/>
	<path d="M473.9,568c0,0.6,0.1,1.3,0.4,2.2c0,3.2,2.1,5.4,6.4,6.4h2.5c1.2,0,1.9-0.1,2.1-0.3c4.9-1.7,7.4-4.3,7.4-7.7
		c0.6-50.1,0.9-78.9,0.9-86.1h30.1c3.3-0.5,5-1.7,5-3.7c0-2.3-1.7-3.4-5.2-3.4h-79.7c-3.7,0.2-5.5,1.5-5.5,3.7v1.3
		c0.9,1.4,2.2,2.1,4,2.1h30.7L473.9,568z"/>
	<path d="M617.2,482.7c4.4,0,6.7-1.2,6.7-3.5v-0.5c0-1.9-1.7-2.9-5-2.9h-34.7c-1.5,0-2.6,0.2-3.4,0.5c-5.1,1.7-7.7,4.6-7.7,8.5
		l2.1,83.5c0,5.3,2.6,7.9,7.7,7.9h32.2c3.7-0.3,5.6-1.5,5.6-3.4v-0.3c0-1.5-1.1-2.4-3.2-2.9h-26.5l0.3-1.3c0-8,0.2-17.7,0.6-29.3
		h19.2c1.9,0,3-1.2,3.5-3.8V535c0-1.7-1.4-2.6-4.2-2.6h-18.5c0.1-3.2,0.5-19.7,1-49.7H617.2z"/>
	<path d="M669.9,475.2c-18.7,0-30.9,12.8-36.5,38.5c-3.2,19.6-4.9,38.4-5.1,56.2c0,3.8,2.9,6.2,8.6,7.1h1.7c3.5,0,6.6-1.7,9.4-5.1
		c0.9,0,1.9-11.7,3.1-35.1H683l0.6-0.3c-0.2,15.9-0.3,26.8-0.3,32.6c0.2,2.3,1.3,3.4,3.2,3.4h1.4c1.4,0,2.6-0.9,3.7-2.8
		c0-2.3,0.2-18.2,0.6-47.6c0-15.4-1.3-26.7-4-33.9C685.1,479.5,679,475.2,669.9,475.2z M683.8,529.7h-31.9
		c0.6-4.9,1.5-10.7,2.9-17.4c5.9-20.5,11.8-30.8,17.9-30.8c7.4,0,11.1,16,11.1,47.9V529.7z"/>
	<path d="M761.2,505.3h0.4c1.4,0,2.1-0.2,2.1-0.6c1.7,0,3-3.8,3.9-11.5c-0.2-2.6-0.7-4.9-1.5-6.7c-3.7-7.5-11.1-11.3-22.2-11.3
		c-1.8,0-5.8,0.4-11.9,1.3c-16.6,4.9-24.8,13.7-24.8,26.4v0.3c0,11.7,7.2,20.8,21.5,27c14.2,7.6,21.3,15.4,21.3,23.4v1.2
		c0,2.1-0.6,4.2-1.8,6.1c-4.6,5.7-9.7,8.5-15.2,8.5c-1.8,0-4.2-0.4-7.3-1.2c-5.5-2.4-8.2-6.6-8.2-12.5c0-2.4,1-5.9,3-10.6
		c0-1.7-1.3-2.9-3.9-3.3L716,542c-3.5,0-5.7,4.6-6.7,13.7v2.5c0,1,0.2,2.2,0.6,3.6c3.5,9.5,10.4,14.3,20.7,14.3h3
		c2.6,0,5.2-0.2,7.9-0.6c18-3.2,27-11.3,27-24.6c0-10.2-5.6-19.9-16.7-28.9c-3.1-2.1-7.3-4.6-12.7-7.3c-8.1-5-12.2-10.6-12.2-16.7
		l0.4-3.6c2.6-8.1,8-12.2,16.1-12.2c3.4,0,6.4,0.5,8.8,1.6c4.6,1.8,6.9,5.1,6.9,9.7c0,2.7-0.6,5.6-1.8,8.5
		C757.3,503.8,758.6,505,761.2,505.3z"/>
	<path d="M803.6,481.9c3-0.6,4.5-1.7,4.5-3.5c0-1.8-1.3-2.9-4-3.2h-21.2c-3,0.5-4.5,1.7-4.5,3.8c0,1.7,1.3,2.6,3.8,2.9h1.6
		c0.9,53.9,1.3,83.4,1.3,88.5h-2.9c-2.7,0.7-4,1.8-4,3.4c0,2.1,1.5,3.2,4.5,3.2h20.7c3-0.5,4.5-1.7,4.5-3.7
		c-0.5-1.9-1.7-2.9-3.8-2.9h-2.3c0-0.2,0.1-0.5,0.2-0.8L803.6,481.9z"/>
	<path d="M835.3,476h-3.2c-6.1,1.8-9.2,4.5-9.2,8.2l2,86.7c0,0.1,0.1,0.4,0.3,1c0.9,3.2,3,4.7,6.4,4.7h46.6c1.5,0,2.5-1,3-3v-1
		c0-1.4-1-2.3-3-2.8H841c1.1-54.1,1.7-83.6,1.7-88.5C842.7,478.5,840.2,476.6,835.3,476z"/>
	<path d="M937.1,475.4c-6.6,1-9.8,3.9-9.8,8.6v0.3c1.5,6.9,2.2,13.3,2.2,19v6.2c-2.9,16.7-9.8,25.1-20.7,25.1
		c-0.8,0-1.8-0.3-3.3-0.9c-4.9-2.8-7.4-9.9-7.4-21.3v-2.7c0-7.4,0.9-16,2.7-25.9c0-4.7-3.2-7.4-9.6-8.2c-3.8,0-7.1,1.7-9.9,5
		c-1.5,0-2.6,9.2-3.4,27.5c0,7.1,1.1,13.3,3.4,18.5c5.2,10.2,14.9,15.4,28.9,15.4h1.2c5.8-0.8,11.4-3.6,16.8-8.6
		c-0.6,7-1.3,12.3-2.2,16c-2.6,13.7-8,20.5-16.1,20.5c-4.9,0-8.6-0.7-11.1-2.2c-2.6-1.5-4.5-4-5.7-7.7c0-3.9-1.3-5.9-4-5.9h-0.7
		c-2.1,0-3.5,1.1-4.2,3.2c0,2.5,0.5,4.9,1.5,7.4c3.9,8.2,11.4,12.3,22.5,12.3c11.3,0,20.6-4.4,27.9-13.3
		c9.7-13.7,14.6-31.3,14.6-52.9v-7.1c0-7.9-0.9-14.9-2.7-21c-1.7-4.8-4.8-7.1-9.4-7.1H937.1z"/>
	<path d="M360.8,769.7c0.3-20.6-7-42.3-28.1-49.5c-13.5-4.5-26.4-1.9-38.6,3.1c8.3-22.1,15.7-44.6,20-67.8
		c3.7-19.1,13.6-74.1-22.1-65.6c-12.6,3-20.2,15.7-25.9,26.3c-7.1,12.9-12.3,27-17.1,40.9c-3.8,11-7.2,22.1-10.2,33.4
		c-3.2-21.5-8.3-42.5-16.1-62.6c-5.6-14.5-13.6-33.7-28.3-41.1c-12.9-6.5-26.5-1.8-34.2,9.7c-13.7,20.8-29.3,74.7-16.6,97.7
		c2.5,4.7,6.4,6.7,10.3,7.3c24.1,3.5,39.4-46.1,43.4-65.7c0.8-3.5-10.5-4-11.3-0.6c-3.5,13.7-14.9,61.5-29.4,58.2
		c-10.7-2.4-3.4-43.8,0.9-57.8c3.8-12.7,9.5-28.1,18.5-38.3c3.8-4.2,10.1,3.3,11.7,5.7c4,6.1,7.4,12.6,10.4,19.2
		c6.4,14.2,10.9,29,14.3,44.1c6.9,29.9,9.3,60.7,9,91.3c-0.1,18.2-1.4,36.5-3.2,54.5c-0.2,1.1-0.3,2.4-0.5,3.9
		c-19.9,7.5-36.5,24.3-44.7,44c-7,17-10.5,39.9-0.1,56.2c9.3,14.5,26.6,19.1,42.7,19.8c39.2,1.6,74.2-21.1,98.3-50.4
		C340.2,853.9,360.3,811.5,360.8,769.7z M235.2,923c-11.4,2.9-26.4,3.8-36.1-4.1c-12.5-9.9-12.3-28.9-9.3-43.1
		c3.4-15.8,11.9-31,24.3-41.4c0.3-0.3,0.7-0.6,1.1-0.9c-1,7-2.1,13.7-2.6,17.7c-1.1,8.5,20.8,3.9,23.9-13.4c0.8-5,1.5-10.1,2.1-15.1
		c3.9-0.9,7.8-1.7,11.8-2.3c4.6-0.8,8.1-5.8,1.6-7.3c-4.1-0.8-8.1-1.3-12.2-1.3c0.2-1.8,0.3-3.7,0.6-5.5c0.7-6.7,1.1-13.6,1.6-20.5
		c3.5-22.3,6.6-44.6,11.3-66.6c4.7-21.7,10.6-43.2,18.2-64.1c3.5-9.9,7.4-19.9,12-29.5c2.2-4.6,4.7-9.1,7.3-13.5
		c3-4.8,5.8-3.7,6.1,1.3c0.2,7.5-0.6,15.8-1.1,20.8c-1.3,12.8-3.7,25.4-6.7,37.8c-5.8,22.9-14.1,44.9-22.9,66.7
		c-3.3,8.2,14.6,7.1,18.2,5c11.5-6.4,29.1-21,42.1-11c12.7,9.8,13.7,28.7,12.7,43.3c-2.3,32.3-15.8,64.2-33.8,90.9
		C288.6,891.3,264.6,915.6,235.2,923z"/>
	<path d="M429.1,726.7c-18.5-1-28.6,23.4-36.3,43.4c-0.9,2.3-1.7,4.5-2.5,6.7c0.1-6.1,0.3-12.2,0.6-18.2c0.6-10.5,0.5-19.3,2.7-31.1
		c1.5-7.3-15-7.1-18.2-1.7c-3.7,6.3-5,19.4-5.6,29.6c-0.7,11.2-0.9,22.6-0.9,33.8c0.1,22.6,1.1,45.1,2.3,67.8
		c0.3,7.7,20.7,10.5,20.9,2.7c0-1,0.1-2.2,0.1-3.2h0.1c0-0.6-0.1-1.4-0.1-2.1c0.1-15.9-0.7-33.5,2.1-48.7
		c3.8-37.5,19.2-67.7,31.4-63.2c6.5,2.4,1.8,38.6-6.3,38.9c-4.1,0.1-5.3-4.5-3.4-7.2c2.2-3.2-7-3.1-8.2-2.3c-2.6,3.4-2.2,11,3,14.4
		c7.8,5.3,14.7,2.4,21.7-4.6C445.5,768.9,447.7,727.7,429.1,726.7z"/>
	<path d="M566.8,795.3c13.1,4.9,15,34.7,15.9,45.5c1.7,20.2-0.5,52.2,19.5,56.7c3.1,0.7,13.3,1.6,15.5-1.3c1.9-2.3,1.4-5.1-1.7-6.3
		c-12.1-4.9-15.1-27-15.8-38.3c-1.5-27.1-6.3-63.8-26.3-67.2c-1.5-0.2-2.1-0.1-2.6,0c22.4-51.8,27.3-49.5,29.6-51.2
		c0.1,0.1,0.2,0.1,0.3,0.2c1.5,1.8,2.7,5.9,0.1,12.1c-1.8,4.3,7.2,5.8,8.5,1.1c2.9-9,1.4-15.3-0.8-17.5c-4.5-4.5-11.4-5-18.2-1.5
		c-24.2,14.4-41.1,80.1-41.9,82.3c0-11.8,0.8-40,1.5-51.8c0-0.1,0-0.9,0.1-2.2h0.1c0-0.2,0-0.5,0-0.6c44.2-70.4,47.9-133.7,29.8-144
		c-9.6-5.5-19.7,2.1-22.2,4.6c-9.6,9.3-13.3,25.8-16.5,38.3c-5.6,22.6-8.5,46.1-10.4,69.5c-0.1,0.7-0.1,1.4-0.2,2.2
		c-0.1,1.9-0.2,4-0.3,5.9c-0.6,6.6-1,13.1-1.4,19.7c-0.7,12.5-1.2,25.1-1.3,37.6c-4,3.2-9.2,5.7-14.5,7.3c0.1-1,0.2-2.1,0.2-3
		c2.5-28.2-2.7-47.4-17.7-60.6c-9.4-8.2-24-9-34.9,3.3c-11.2,12.8-16.8,31.9-12.6,47.7c-0.5,1.3-0.8,2.9-0.8,4.7
		c-0.3,14.5,1.7,71.3,34.9,69.1c16.7-1,26.1-28,29.8-53.3c6.1-2.4,11.3-5.2,15.5-8.5c0,21.8,0.9,43.6,2.8,65.3
		c0.7,7.5,15.8,6.9,16.3,0.1c0.9-5.6,6.5-28.9,8.6-35.4c3.1-9.6,6.2-18.3,9.1-26.2C565.6,798.2,566.8,795.7,566.8,795.3z
		 M552.2,730.8c0.1-1.6,0.2-3.2,0.3-4.9c1.8-24.9,4.8-50.1,11.3-73.7c2.1-7.5,4.6-15,7.8-22.2c1-2.3,4.1-9.4,5.8-9.6
		c1.5-0.2,5,9.5,5.5,12.2c2.6,15.3-2.5,33.3-6.6,47.9c-5.8,21-14.6,40.3-24.7,59.2C551.7,736.7,551.9,733.7,552.2,730.8z
		 M482.1,844.9c-9,0.6-12.7-20.8-14.2-38.1c7.7,3.4,17.3,4,27.2,2.5C493.1,826,489,844.5,482.1,844.9z M496.8,788.9
		c0,2.7-0.2,6.5-0.7,10.7c-12.5,0.5-23.7-2.6-28.7-8.1c-0.2-0.2-0.3-0.5-0.6-0.7c0-2.1,0-3.7,0-4.6c-0.1-2.5-1.7-4.7-4.1-6.2
		c-1.3-9.8,1.5-21.4,3-26.3c5.5-17.5,16.5-28.2,25.4-10.2C497.6,756.7,497.3,774.7,496.8,788.9z"/>
	<path d="M794.9,882.5c-28.9-12.3-6.9-107.5-1.7-150.2c0.9-7.8,1.6-22.5-2.2-32.3c-1.5-3.7-12.8-11-17.8-10.1
		c-8.3,1.6-13.7,10.6-17.4,18.9c-6.4,14.6-12.6,29.4-17.4,44.6c-5.3,16.7-8.8,33.8-12.8,51c-0.1-2.7-0.3-5.5-0.5-8.2
		c-1-18.9-1-36.5,0.2-56.9c0.5-7.9-14.5-4.7-16.1-0.2c-2.8,8-5.5,26.9-6.2,46.2c-3.9,10.7-9.1,22-11.2,25.5
		c-7.2,11.8-18.3,29.4-33,28.8c-16.9-0.7-22.2-17.1-23.3-33.8c0.9,0.1,1.8,0.3,2.7,0.3c13.4,1.1,23.1-8.1,29.5-18.9
		c10.1-16.9,27-70.6-8.2-70.5c-31.2,0.1-43.8,43.7-45.1,68.2c-0.9,15.2-0.9,33.1,5.6,47.2c6.7,14.4,21.1,21.3,36.6,20.1
		c16.3-1.1,30.3-16.2,39.5-35.8c2.4-5,4.7-10.3,6.8-15.6c0.3,16.6,1.6,34.8,9.7,49.4c2.4,4.3,13.5,3.8,14.6-1.4
		c6.1-26.4,12.8-53,19.9-79.1c3.5-12.7,7.3-25.4,12.5-37.5c2.4-5.6,4.8-11.1,8.1-16.3c0.7-1.1,1.8-3.1,3.1-5.3c0,0.5,0,0.9,0.1,1.4
		c0.3,5.7,0.3,11.5,0.3,17.4c-15.7,97.7-15,137.7-3.4,154.7c5.4,6.3,13.6,8.8,21.7,7.8c4.7-0.6,11-2.3,10.2-8
		C799.5,881.9,796.2,882.2,794.9,882.5z M636.7,774.4c3.2-32.6,18.6-52.6,25.5-48.6c5.5,3.1,5.6,13.8,5.5,19.1
		c-0.2,13.7-4.5,27.4-11.2,39.4c-3.5,6.2-10.5,18.2-19.7,13.6c-0.6-0.2-1-0.6-1.5-0.9C635.4,787.8,636.3,779.3,636.7,774.4z"/>
	<path d="M916.3,618.9c-1.5,2-3,4-4.1,6.2c-6.9,14.1-9.1,28.7-5.2,44.1c0.4,1.5,0.6,3.1,0.9,4.9c1.6,0.3,3.4,0.6,5.1,0.8
		c3.9-3.5,6.8-7.7,9.2-12.2c4.2-7.8,7.2-16.1,8.3-24.9c0.8-6.5,0.7-12.8-2.7-18.7c-1.5-1.2-3-2.4-4.5-3.6
		C920.4,615.3,918,616.6,916.3,618.9z M922.7,640c-3,8-6.2,15.8-9.3,23.7c-0.4-0.1-0.8-0.1-1.1-0.2c-0.6-10.5-1.1-21.1,2.1-31.4
		c0.4-1.3,1-2.5,1.6-3.8c0.7-1.6,1.5-3.4,3.4-3c1.4,0.4,2.8,1.8,3.5,3.1c0.8,1.3,1.1,3.2,1,4.7C923.7,635.4,923.5,637.9,922.7,640z"
		/>
	<path d="M938.9,713.1c-6.3-0.1-12.3,1.4-18,4.2c-9.7,4.7-17.5,11.9-24.5,20c-2.8,3.2-5.4,6.6-8.2,10.1c-0.1-0.5-0.4-1.1-0.4-1.7
		c-0.3-19.3-2.4-38.2-8.9-56.5c-0.5-1.4-0.6-3-0.6-4.5c-0.1-7.8-1-15.4-3.4-22.8c-4.7-14.5-12.4-27-25.4-35.6
		c-6.9-4.5-14.1-6.7-22.3-4.1c-5.5,1.7-8.2,5.1-7.9,11c0.3,5.4,1.8,10.6,4.3,15.4c5.3,10.3,12.5,19.1,21.5,26.4
		c6.5,5.3,13.1,10.6,21,13.8c1.8,0.7,2.3,2.2,2.9,3.8c5.6,13.4,8.3,27.4,9.2,41.8c0.2,3.4,0.3,6.8-0.4,10.5c-0.5-1-1-2-1.5-3
		c-5.2-11-12.1-20.7-22-27.9c-4.8-3.5-10.1-6.2-16-7.5c-11.6-2.5-20.2,6.6-17.1,18.1c1.8,6.5,5.6,11.9,10.2,16.8
		c7.2,7.7,15.7,13.9,24.2,20c6.7,4.8,13.5,9.4,20.3,14.1c-0.5,13.5-11,50.1-17.3,59.3c0-1.8-0.1-3.2-0.1-4.5
		c0.2-10.2-1.5-20.1-5.4-29.5c-2.8-6.7-6.9-12.5-12.7-17.1c-7.6-5.9-16.8-3.5-20.1,5.5c-1.1,3-1.5,6.5-1.5,9.7
		c-0.1,7.9,1.6,15.6,4.3,23.1c4.9,13.9,11.8,26.7,21.3,38.7c-3,4.1-6.1,8.3-9.2,12.5c-1.1,1.4-2.4,2.7-3.4,4.2
		c-0.8,1.1-1.4,2.4-1.7,3.7c-0.7,2.9,1.2,5,4.2,4.3c1.9-0.5,3.9-1.6,5.3-3c4-4.1,7.8-8.6,11.6-12.9c0.5-0.5,0.9-1.1,1.5-1.8
		c7.4,1.6,14.8,1,22.1-0.8c16.7-4.2,31.2-12.4,43-25c5.2-5.5,8.8-12,9.7-19.7c0.2-1.5,0.2-3,0-4.5c-0.5-3.3-2.5-5.2-5.8-5.3
		c-2.7-0.1-5.5,0.2-8.2,0.8c-8.3,1.7-16,5.1-23.2,9.5c-6.1,3.7-11.9,7.8-17.9,11.7c6.8-20.1,11.3-40.6,13.6-61.8
		c0.7-0.2,1.4-0.4,2-0.6c17.3-3.7,32.7-11.4,46.6-22.3c5-3.9,9.4-8.5,12.8-14c1.6-2.5,2.9-5.4,3.4-8.3
		C952.2,719.6,946.9,713.2,938.9,713.1z M865.6,677.1c-0.5-0.3-1-0.5-1.4-0.9c-10.3-8-18.8-17.7-25.4-28.9c-1-1.8-1.9-3.7-2.6-5.6
		c-0.7-2.1-1.3-4.4,1-6c2.2-1.5,4.5-1,6.5,0.6c1.7,1.3,3.4,2.8,4.7,4.5c8.7,10.6,13.4,23.2,18,36.1
		C865.8,677,865.6,677.1,865.6,677.1z M872.4,760.8c-9.5-8.7-19.1-17.4-28.5-26.2c-2.5-2.3-4.7-5-6.7-7.8c-2-2.8-2.8-6-1.8-9.4
		c0.7-2.5,2.3-3.4,4.7-2.2c1.6,0.8,3.2,1.8,4.4,3c4.2,4.5,8.6,9,12.4,13.8c6.7,8.6,11.7,18.2,16.5,27.9
		C873,760.2,872.7,760.5,872.4,760.8z M849.6,847.5c-7.4-14.1-12.7-28.6-15.6-44c-0.3-1.5-0.5-3-0.4-4.5c0.1-2.9,2.7-4.4,5.2-3
		c1.3,0.8,2.6,2.2,3.3,3.5c1.2,2.3,2.1,4.8,2.9,7.3c3.2,10.9,4.6,22,4.8,33.4C849.9,842.6,849.7,845.1,849.6,847.5z M875.9,846.9
		c10.5-9.1,21-18.2,33-25.4c1.4-0.8,2.9-1.7,4.4-2.2c2.9-1,4.2,0,4.3,3c0.1,3.9-1.5,7.2-3.7,10.3c-3,4.1-6.8,7.2-10.9,10
		c-11.5,7.9-24.3,12.7-38,15c-0.2-0.2-0.3-0.5-0.5-0.7c0.9-0.8,1.8-1.7,2.7-2.5C870,851.9,873,849.4,875.9,846.9z M933.7,728.8
		c-0.7,1-1.5,2-2.4,2.8c-12,11.6-26,20.3-41,27.8c0.3-0.4,0.5-0.9,0.8-1.3c5.7-6.5,11.1-13.3,17.3-19.5c4.7-4.7,10.3-8.7,15.6-12.8
		c1.6-1.2,3.6-2,5.5-2.8c1.6-0.6,3.3-0.5,4.5,1.1C935,725.8,934.7,727.4,933.7,728.8z"/>
	<path d="M696.5,646c-1.7,0.3-3,1-3.9,2c-0.9,1-1.5,2.2-1.7,3.6c-0.3,1.3-0.3,2.7-0.2,4.2c0.1,1.5,0.4,2.9,0.8,4.2
		c1,3.5,2.8,6,5.5,7.7c2.7,1.7,5.7,2.8,9,3.4c1.1,0.2,2.7,0.2,4.7,0c2-0.2,4.1-0.3,6.3-0.3c2.1-0.1,4.1,0,5.9,0.2
		c1.8,0.2,3.1,0.8,3.9,1.8c0.6,0.8,1.4,1.1,2.4,0.8c0.9-0.3,1.4-0.9,1.4-2c0-0.2,0-0.3,0-0.4c0-0.1,0-0.3,0-0.5
		c0-0.6-0.1-1.1-0.5-1.6c-0.9-1.6-1.4-3.5-1.5-5.8c-0.1-2.3-0.1-4.7,0-7.3c0.2-2.6,0.3-5.2,0.4-7.8c0.1-2.6-0.1-5.1-0.5-7.3
		c-0.4-2.3-1.2-4.2-2.5-5.8c-1.3-1.6-3.2-2.7-5.9-3.3c-2.6-0.5-5.2-0.3-7.9,0.7c-2.7,1-4.5,2.9-5.5,5.6c-0.4,1.1-0.6,2.5-0.7,4.1
		c-0.1,1.6,0.1,3.2,0.5,4.7c-1.4-0.7-3-1.1-4.7-1.1C699.9,645.5,698.2,645.7,696.5,646z"/>
	<path d="M448.6,662.9c0.7-1.6,1.5-3.2,2.2-4.9c0.7-1.6,1.2-3.2,1.5-4.8c0.3-1.5,0.2-3-0.2-4.3c-0.4-1.3-1.4-2.5-2.9-3.5
		c-1.5-1-3.3-1.5-5.2-1.5c-1.9,0-3.6,0.7-4.9,2.2c-0.5,0.6-1,1.4-1.5,2.4c-0.4,1-0.7,2-0.8,3.1c-0.7-0.8-1.7-1.4-2.7-1.9
		c-1.1-0.5-2.2-0.8-3.4-1c-1.2-0.2-2.1-0.1-3,0.3c-0.8,0.4-1.5,1.1-2,1.8c-0.5,0.8-0.9,1.7-1.2,2.6c-0.3,1-0.4,1.9-0.5,2.8
		c-0.2,2.4,0.3,4.5,1.6,6.2c1.3,1.7,3,3.2,4.9,4.3c0.7,0.4,1.7,0.8,3,1.2c1.3,0.4,2.7,0.8,4.1,1.3c1.4,0.5,2.6,1,3.7,1.6
		c1.1,0.6,1.8,1.3,2,2.1c0.2,0.7,0.6,1,1.3,1.1c0.7,0.1,1.1-0.3,1.4-1c0-0.1,0.1-0.2,0.1-0.3c0-0.1,0.1-0.2,0.1-0.3
		c0.2-0.4,0.2-0.7,0.1-1.1c-0.2-1.2,0-2.6,0.4-4C447.2,666,447.8,664.5,448.6,662.9z"/>
</g>
</svg>
