  0
SECTION
  2
HEADER
  9
$ACADVER
  1
AC1024
  9
$ACADMAINTVER
 70
     6
  9
$DWGCODEPAGE
  3
ANSI_1252
  9
$INSBASE
 10
0.0
 20
0.0
 30
0.0
  9
$EXTMIN
 10
1.000000000000000E+20
 20
1.000000000000000E+20
 30
1.000000000000000E+20
  9
$EXTMAX
 10
-1.000000000000000E+20
 20
-1.000000000000000E+20
 30
-1.000000000000000E+20
  9
$LIMMIN
 10
0.0
 20
0.0
  9
$LIMMAX
 10
12.0
 20
9.0
  9
$ORTHOMODE
 70
     0
  9
$REGENMODE
 70
     1
  9
$FILLMODE
 70
     1
  9
$QTEXTMODE
 70
     0
  9
$MIRRTEXT
 70
     1
  9
$LTSCALE
 40
1.0
  9
$ATTMODE
 70
     1
  9
$TEXTSIZE
 40
0.2
  9
$TRACEWID
 40
0.05
  9
$TEXTSTYLE
  7
Standard
  9
$CLAYER
  8
0
  9
$CELTYPE
  6
ByLayer
  9
$CECOLOR
 62
   256
  9
$CELTSCALE
 40
1.0
  9
$DISPSILH
 70
     0
  9
$DIMSCALE
 40
1.0
  9
$DIMASZ
 40
0.18
  9
$DIMEXO
 40
0.0625
  9
$DIMDLI
 40
0.38
  9
$DIMRND
 40
0.0
  9
$DIMDLE
 40
0.0
  9
$DIMEXE
 40
0.18
  9
$DIMTP
 40
0.0
  9
$DIMTM
 40
0.0
  9
$DIMTXT
 40
0.18
  9
$DIMCEN
 40
0.09
  9
$DIMTSZ
 40
0.0
  9
$DIMTOL
 70
     0
  9
$DIMLIM
 70
     0
  9
$DIMTIH
 70
     1
  9
$DIMTOH
 70
     1
  9
$DIMSE1
 70
     0
  9
$DIMSE2
 70
     0
  9
$DIMTAD
 70
     0
  9
$DIMZIN
 70
     0
  9
$DIMBLK
  1

  9
$DIMASO
 70
     1
  9
$DIMSHO
 70
     1
  9
$DIMPOST
  1

  9
$DIMAPOST
  1

  9
$DIMALT
 70
     0
  9
$DIMALTD
 70
     2
  9
$DIMALTF
 40
25.4
  9
$DIMLFAC
 40
1.0
  9
$DIMTOFL
 70
     0
  9
$DIMTVP
 40
0.0
  9
$DIMTIX
 70
     0
  9
$DIMSOXD
 70
     0
  9
$DIMSAH
 70
     0
  9
$DIMBLK1
  1

  9
$DIMBLK2
  1

  9
$DIMSTYLE
  2
Standard
  9
$DIMCLRD
 70
     0
  9
$DIMCLRE
 70
     0
  9
$DIMCLRT
 70
     0
  9
$DIMTFAC
 40
1.0
  9
$DIMGAP
 40
0.09
  9
$DIMJUST
 70
     0
  9
$DIMSD1
 70
     0
  9
$DIMSD2
 70
     0
  9
$DIMTOLJ
 70
     1
  9
$DIMTZIN
 70
     0
  9
$DIMALTZ
 70
     0
  9
$DIMALTTZ
 70
     0
  9
$DIMUPT
 70
     0
  9
$DIMDEC
 70
     4
  9
$DIMTDEC
 70
     4
  9
$DIMALTU
 70
     2
  9
$DIMALTTD
 70
     2
  9
$DIMTXSTY
  7
Standard
  9
$DIMAUNIT
 70
     0
  9
$DIMADEC
 70
     0
  9
$DIMALTRND
 40
0.0
  9
$DIMAZIN
 70
     0
  9
$DIMDSEP
 70
    46
  9
$DIMATFIT
 70
     3
  9
$DIMFRAC
 70
     0
  9
$DIMLDRBLK
  1

  9
$DIMLUNIT
 70
     2
  9
$DIMLWD
 70
    -2
  9
$DIMLWE
 70
    -2
  9
$DIMTMOVE
 70
     0
  9
$DIMFXL
 40
1.0
  9
$DIMFXLON
 70
     0
  9
$DIMJOGANG
 40
0.7853981633974483
  9
$DIMTFILL
 70
     0
  9
$DIMTFILLCLR
 70
     0
  9
$DIMARCSYM
 70
     0
  9
$DIMLTYPE
  6

  9
$DIMLTEX1
  6

  9
$DIMLTEX2
  6

  9
$DIMTXTDIRECTION
 70
     0
  9
$LUNITS
 70
     2
  9
$LUPREC
 70
     4
  9
$SKETCHINC
 40
0.1
  9
$FILLETRAD
 40
0.5
  9
$AUNITS
 70
     0
  9
$AUPREC
 70
     0
  9
$MENU
  1
.
  9
$ELEVATION
 40
0.0
  9
$PELEVATION
 40
0.0
  9
$THICKNESS
 40
0.0
  9
$LIMCHECK
 70
     0
  9
$CHAMFERA
 40
0.5
  9
$CHAMFERB
 40
0.5
  9
$CHAMFERC
 40
1.0
  9
$CHAMFERD
 40
0.0
  9
$SKPOLY
 70
     0
  9
$TDCREATE
 40
2459556.03613588
  9
$TDUCREATE
 40
2459556.369469213
  9
$TDUPDATE
 40
2459556.036135926
  9
$TDUUPDATE
 40
2459556.369469259
  9
$TDINDWG
 40
0.0000000116
  9
$TDUSRTIMER
 40
0.0000000116
  9
$USRTIMER
 70
     1
  9
$ANGBASE
 50
0.0
  9
$ANGDIR
 70
     0
  9
$PDMODE
 70
     0
  9
$PDSIZE
 40
0.0
  9
$PLINEWID
 40
0.0
  9
$SPLFRAME
 70
     0
  9
$SPLINETYPE
 70
     6
  9
$SPLINESEGS
 70
     8
  9
$HANDSEED
  5
64
  9
$SURFTAB1
 70
     6
  9
$SURFTAB2
 70
     6
  9
$SURFTYPE
 70
     6
  9
$SURFU
 70
     6
  9
$SURFV
 70
     6
  9
$UCSBASE
  2

  9
$UCSNAME
  2

  9
$UCSORG
 10
0.0
 20
0.0
 30
0.0
  9
$UCSXDIR
 10
1.0
 20
0.0
 30
0.0
  9
$UCSYDIR
 10
0.0
 20
1.0
 30
0.0
  9
$UCSORTHOREF
  2

  9
$UCSORTHOVIEW
 70
     0
  9
$UCSORGTOP
 10
0.0
 20
0.0
 30
0.0
  9
$UCSORGBOTTOM
 10
0.0
 20
0.0
 30
0.0
  9
$UCSORGLEFT
 10
0.0
 20
0.0
 30
0.0
  9
$UCSORGRIGHT
 10
0.0
 20
0.0
 30
0.0
  9
$UCSORGFRONT
 10
0.0
 20
0.0
 30
0.0
  9
$UCSORGBACK
 10
0.0
 20
0.0
 30
0.0
  9
$PUCSBASE
  2

  9
$PUCSNAME
  2

  9
$PUCSORG
 10
0.0
 20
0.0
 30
0.0
  9
$PUCSXDIR
 10
1.0
 20
0.0
 30
0.0
  9
$PUCSYDIR
 10
0.0
 20
1.0
 30
0.0
  9
$PUCSORTHOREF
  2

  9
$PUCSORTHOVIEW
 70
     0
  9
$PUCSORGTOP
 10
0.0
 20
0.0
 30
0.0
  9
$PUCSORGBOTTOM
 10
0.0
 20
0.0
 30
0.0
  9
$PUCSORGLEFT
 10
0.0
 20
0.0
 30
0.0
  9
$PUCSORGRIGHT
 10
0.0
 20
0.0
 30
0.0
  9
$PUCSORGFRONT
 10
0.0
 20
0.0
 30
0.0
  9
$PUCSORGBACK
 10
0.0
 20
0.0
 30
0.0
  9
$USERI1
 70
     0
  9
$USERI2
 70
     0
  9
$USERI3
 70
     0
  9
$USERI4
 70
     0
  9
$USERI5
 70
     0
  9
$USERR1
 40
0.0
  9
$USERR2
 40
0.0
  9
$USERR3
 40
0.0
  9
$USERR4
 40
0.0
  9
$USERR5
 40
0.0
  9
$WORLDVIEW
 70
     1
  9
$SHADEDGE
 70
     3
  9
$SHADEDIF
 70
    70
  9
$TILEMODE
 70
     1
  9
$MAXACTVP
 70
    64
  9
$PINSBASE
 10
0.0
 20
0.0
 30
0.0
  9
$PLIMCHECK
 70
     0
  9
$PEXTMIN
 10
1.000000000000000E+20
 20
1.000000000000000E+20
 30
1.000000000000000E+20
  9
$PEXTMAX
 10
-1.000000000000000E+20
 20
-1.000000000000000E+20
 30
-1.000000000000000E+20
  9
$PLIMMIN
 10
0.0
 20
0.0
  9
$PLIMMAX
 10
12.0
 20
9.0
  9
$UNITMODE
 70
     0
  9
$VISRETAIN
 70
     1
  9
$PLINEGEN
 70
     0
  9
$PSLTSCALE
 70
     1
  9
$TREEDEPTH
 70
  3020
  9
$CMLSTYLE
  2
Standard
  9
$CMLJUST
 70
     0
  9
$CMLSCALE
 40
1.0
  9
$PROXYGRAPHICS
 70
     1
  9
$MEASUREMENT
 70
     0
  9
$CELWEIGHT
370
    -1
  9
$ENDCAPS
280
     0
  9
$JOINSTYLE
280
     0
  9
$LWDISPLAY
290
     1
  9
$INSUNITS
 70
     1
  9
$HYPERLINKBASE
  1

  9
$STYLESHEET
  1

  9
$XEDIT
290
     1
  9
$CEPSNTYPE
380
     0
  9
$PSTYLEMODE
290
     1
  9
$FINGERPRINTGUID
  2
{7B3932E6-3BF1-419C-BB22-514E2F3FF6F4}
  9
$VERSIONGUID
  2
{FAEB1C32-E019-11D5-929B-00C0DF256EC4}
  9
$EXTNAMES
290
     1
  9
$PSVPSCALE
 40
0.0
  9
$OLESTARTUP
290
     0
  9
$SORTENTS
280
   127
  9
$INDEXCTL
280
     0
  9
$HIDETEXT
280
     1
  9
$XCLIPFRAME
280
     2
  9
$HALOGAP
280
     0
  9
$OBSCOLOR
 70
   257
  9
$OBSLTYPE
280
     0
  9
$INTERSECTIONDISPLAY
280
     0
  9
$INTERSECTIONCOLOR
 70
   257
  9
$DIMASSOC
280
     2
  9
$PROJECTNAME
  1

  9
$CAMERADISPLAY
290
     0
  9
$LENSLENGTH
 40
50.0
  9
$CAMERAHEIGHT
 40
0.0
  9
$STEPSPERSEC
 40
2.0
  9
$STEPSIZE
 40
6.0
  9
$3DDWFPREC
 40
2.0
  9
$PSOLWIDTH
 40
0.25
  9
$PSOLHEIGHT
 40
4.0
  9
$LOFTANG1
 40
1.570796326794897
  9
$LOFTANG2
 40
1.570796326794897
  9
$LOFTMAG1
 40
0.0
  9
$LOFTMAG2
 40
0.0
  9
$LOFTPARAM
 70
     7
  9
$LOFTNORMALS
280
     1
  9
$LATITUDE
 40
37.795
  9
$LONGITUDE
 40
-122.394
  9
$NORTHDIRECTION
 40
0.0
  9
$TIMEZONE
 70
 -8000
  9
$LIGHTGLYPHDISPLAY
280
     1
  9
$TILEMODELIGHTSYNCH
280
     1
  9
$CMATERIAL
347
3C
  9
$SOLIDHIST
280
     1
  9
$SHOWHIST
280
     1
  9
$DWFFRAME
280
     2
  9
$DGNFRAME
280
     2
  9
$REALWORLDSCALE
290
     1
  9
$INTERFERECOLOR
 62
   256
  9
$CSHADOW
280
     0
  9
$SHADOWPLANELOCATION
 40
0.0
  0
ENDSEC
  0
SECTION
  2
CLASSES
  0
CLASS
  1
ACDBDICTIONARYWDFLT
  2
AcDbDictionaryWithDefault
  3
ObjectDBX Classes
 90
        0
 91
        4
280
     0
281
     0
  0
CLASS
  1
VISUALSTYLE
  2
AcDbVisualStyle
  3
ObjectDBX Classes
 90
     4095
 91
        4
280
     0
281
     0
  0
CLASS
  1
MATERIAL
  2
AcDbMaterial
  3
ObjectDBX Classes
 90
     1153
 91
        4
280
     0
281
     0
  0
CLASS
  1
SUN
  2
AcDbSun
  3
SCENEOE
 90
     1024
 91
        4
280
     0
281
     0
  0
ENDSEC
  0
SECTION
  2
TABLES
  0
TABLE
  2
VPORT
  5
8
330
0
100
AcDbSymbolTable
 70
     1
  0
VPORT
  5
29
330
8
100
AcDbSymbolTableRecord
100
AcDbViewportTableRecord
  2
*Active
 70
     0
 10
0.0
 20
0.0
 11
1.0
 21
1.0
 12
0.0
 22
0.0
 13
0.0
 23
0.0
 14
0.5
 24
0.5
 15
0.5
 25
0.5
 16
0.0
 26
0.0
 36
1.0
 17
540.0
 27
-540.0
 37
0.0
 40
1080.0
 41
1.0
 42
50.0
 43
0.0
 44
0.0
 50
0.0
 51
0.0
 71
     0
 72
   100
 73
     1
 74
     3
 75
     0
 76
     0
 77
     0
 78
     0
281
     0
 65
     1
110
0.0
120
0.0
130
0.0
111
1.0
121
0.0
131
0.0
112
0.0
122
1.0
132
0.0
 79
     0
146
0.0
 60
     3
 61
     5
292
     1
282
     1
141
0.0
142
0.0
 63
   250
361
3F
  0
ENDTAB
  0
TABLE
  2
LTYPE
  5
5
330
0
100
AcDbSymbolTable
 70
     1
  0
LTYPE
  5
14
330
5
100
AcDbSymbolTableRecord
100
AcDbLinetypeTableRecord
  2
ByBlock
 70
     0
  3

 72
    65
 73
     0
 40
0.0
  0
LTYPE
  5
15
330
5
100
AcDbSymbolTableRecord
100
AcDbLinetypeTableRecord
  2
ByLayer
 70
     0
  3

 72
    65
 73
     0
 40
0.0
  0
LTYPE
  5
16
330
5
100
AcDbSymbolTableRecord
100
AcDbLinetypeTableRecord
  2
Continuous
 70
     0
  3
Solid line
 72
    65
 73
     0
 40
0.0
  0
ENDTAB
  0
TABLE
  2
LAYER
  5
2
330
0
100
AcDbSymbolTable
 70
     2
  0
LAYER
  5
10
330
2
100
AcDbSymbolTableRecord
100
AcDbLayerTableRecord
  2
0
 70
     0
 62
     7
  6
Continuous
370
    -3
390
F
347
3E
  0
LAYER
  5
40
330
2
100
AcDbSymbolTableRecord
100
AcDbLayerTableRecord
  2
Layer 1
 70
     0
 62
     7
  6
Continuous
370
    -3
390
F
347
3E
  0
ENDTAB
  0
TABLE
  2
STYLE
  5
3
330
0
100
AcDbSymbolTable
 70
     1
  0
STYLE
  5
11
330
3
100
AcDbSymbolTableRecord
100
AcDbTextStyleTableRecord
  2
Standard
 70
     0
 40
0.0
 41
1.0
 50
0.0
 71
     0
 42
0.2
  3
txt
  4

  0
ENDTAB
  0
TABLE
  2
VIEW
  5
6
330
0
100
AcDbSymbolTable
 70
     0
  0
ENDTAB
  0
TABLE
  2
UCS
  5
7
330
0
100
AcDbSymbolTable
 70
     0
  0
ENDTAB
  0
TABLE
  2
APPID
  5
9
330
0
100
AcDbSymbolTable
 70
     1
  0
APPID
  5
12
330
9
100
AcDbSymbolTableRecord
100
AcDbRegAppTableRecord
  2
ACAD
 70
     0
  0
ENDTAB
  0
TABLE
  2
DIMSTYLE
  5
A
330
0
100
AcDbSymbolTable
 70
     1
100
AcDbDimStyleTable
  0
DIMSTYLE
105
27
330
A
100
AcDbSymbolTableRecord
100
AcDbDimStyleTableRecord
  2
Standard
 70
     0
178
     0
340
11
  0
ENDTAB
  0
TABLE
  2
BLOCK_RECORD
  5
1
330
0
100
AcDbSymbolTable
 70
     2
  0
BLOCK_RECORD
  5
1F
330
1
100
AcDbSymbolTableRecord
100
AcDbBlockTableRecord
  2
*Model_Space
340
22
 70
     0
280
     1
281
     0
  0
BLOCK_RECORD
  5
1B
330
1
100
AcDbSymbolTableRecord
100
AcDbBlockTableRecord
  2
*Paper_Space
340
1E
 70
     0
280
     1
281
     0
  0
BLOCK_RECORD
  5
23
330
1
100
AcDbSymbolTableRecord
100
AcDbBlockTableRecord
  2
*Paper_Space0
340
26
 70
     0
280
     1
281
     0
  0
BLOCK_RECORD
  5
41
330
1
100
AcDbSymbolTableRecord
100
AcDbBlockTableRecord
  2
block 2
340
0
102
{BLKREFS
331
42
102
}
 70
     0
280
     1
281
     0
  0
ENDTAB
  0
ENDSEC
  0
SECTION
  2
BLOCKS
  0
BLOCK
  5
20
330
1F
100
AcDbEntity
  8
0
100
AcDbBlockBegin
  2
*Model_Space
 70
     0
 10
0.0
 20
0.0
 30
0.0
  3
*Model_Space
  1

  0
ENDBLK
  5
21
330
1F
100
AcDbEntity
  8
0
100
AcDbBlockEnd
  0
BLOCK
  5
1C
330
1B
100
AcDbEntity
 67
     1
  8
0
100
AcDbBlockBegin
  2
*Paper_Space
 70
     0
 10
0.0
 20
0.0
 30
0.0
  3
*Paper_Space
  1

  0
ENDBLK
  5
1D
330
1B
100
AcDbEntity
 67
     1
  8
0
100
AcDbBlockEnd
  0
BLOCK
  5
24
330
23
100
AcDbEntity
  8
0
100
AcDbBlockBegin
  2
*Paper_Space0
 70
     0
 10
0.0
 20
0.0
 30
0.0
  3
*Paper_Space0
  1

  0
ENDBLK
  5
25
330
23
100
AcDbEntity
  8
0
100
AcDbBlockEnd
  0
BLOCK
  5
43
330
41
100
AcDbEntity
  8
0
100
AcDbBlockBegin
  2
block 2
 70
     0
 10
0.0
 20
0.0
 30
0.0
  3
block 2
  1

  0
SPLINE
  5
45
330
41
100
AcDbEntity
  8
Layer 1
370
     0
100
AcDbSpline
210
0.0
220
0.0
230
1.0
 70
    11
 71
     3
 72
    89
 73
    85
 74
     0
 42
0.0000000001
 43
0.0000000001
 12
1.0
 22
0.0
 32
0.0
 13
1.0
 23
0.0
 33
0.0
 40
0.0
 40
0.0
 40
0.0
 40
0.0
 40
1.0
 40
1.0
 40
1.0
 40
2.0
 40
2.0
 40
2.0
 40
3.0
 40
3.0
 40
3.0
 40
4.0
 40
4.0
 40
4.0
 40
5.0
 40
5.0
 40
5.0
 40
6.0
 40
6.0
 40
6.0
 40
7.0
 40
7.0
 40
7.0
 40
8.0
 40
8.0
 40
8.0
 40
9.0
 40
9.0
 40
9.0
 40
10.0
 40
10.0
 40
10.0
 40
11.0
 40
11.0
 40
11.0
 40
12.0
 40
12.0
 40
12.0
 40
13.0
 40
13.0
 40
13.0
 40
14.0
 40
14.0
 40
14.0
 40
15.0
 40
15.0
 40
15.0
 40
16.0
 40
16.0
 40
16.0
 40
17.0
 40
17.0
 40
17.0
 40
18.0
 40
18.0
 40
18.0
 40
19.0
 40
19.0
 40
19.0
 40
20.0
 40
20.0
 40
20.0
 40
21.0
 40
21.0
 40
21.0
 40
22.0
 40
22.0
 40
22.0
 40
23.0
 40
23.0
 40
23.0
 40
24.0
 40
24.0
 40
24.0
 40
25.0
 40
25.0
 40
25.0
 40
26.0
 40
26.0
 40
26.0
 40
27.0
 40
27.0
 40
27.0
 40
28.0
 40
28.0
 40
28.0
 40
28.0
 10
138.5927678867774
 20
-485.7772281635753
 30
0.0
 10
159.2272666707358
 20
-483.3358534849231
 30
0.0
 10
173.1479850884043
 20
-464.8973712244115
 30
0.0
 10
184.6273288274206
 20
-449.2676905316875
 30
0.0
 10
204.7735526756478
 20
-421.7936805854897
 30
0.0
 10
220.0370271665743
 20
-390.7784566679074
 30
0.0
 10
232.6149895109847
 20
-358.9087516127984
 30
0.0
 10
242.993273269929
 20
-356.8323624486056
 30
0.0
 10
253.4936257628069
 20
-355.7337438432114
 30
0.0
 10
263.9964196303645
 20
-354.2689190360215
 30
0.0
 10
267.658481648341
 20
-353.7794234129524
 30
0.0
 10
271.445053774929
 20
-353.1690797432893
 30
0.0
 10
275.3512532607692
 20
-352.4366673396944
 30
0.0
 10
275.3512532607692
 20
-352.6808048075582
 30
0.0
 10
275.3512532607692
 20
-352.9249422754237
 30
0.0
 10
275.3512532607692
 20
-353.1690797432893
 30
0.0
 10
277.4288631123018
 20
-384.7946473305346
 30
0.0
 10
282.0674750017388
 20
-416.2981461838463
 30
0.0
 10
290.3705902838301
 20
-446.9471638996311
 30
0.0
 10
297.0868120247997
 20
-471.613592965381
 30
0.0
 10
305.8782022426221
 20
-499.4538091133782
 30
0.0
 10
331.0316855567635
 20
-510.9319321650546
 30
0.0
 10
351.5465569814678
 20
-520.3336660525401
 30
0.0
 10
380.9748873579265
 20
-512.6408944401101
 30
0.0
 10
388.3014527685573
 20
-486.9991361902394
 30
0.0
 10
390.1324837775464
 20
-480.8932581189329
 30
0.0
 10
382.4397121651164
 20
-476.8637692118191
 30
0.0
 10
379.0217876150055
 20
-483.0917160170593
 30
0.0
 10
372.4276346079696
 20
-495.3022514723307
 30
0.0
 10
358.8731223920986
 20
-508.4893367990644
 30
0.0
 10
344.7082665065664
 20
-500.918633920568
 30
0.0
 10
331.3978917585609
 20
-493.836205977801
 30
0.0
 10
324.1958364565398
 20
-479.0622271099455
 30
0.0
 10
319.3106457245594
 20
-465.6297836280082
 30
0.0
 10
307.7092332516095
 20
-433.7600785728973
 30
0.0
 10
302.3382089585775
 20
-398.9595032160669
 30
0.0
 10
299.2840492355863
 20
-365.2575464646288
 30
0.0
 10
298.7957742998551
 20
-359.1528890806621
 30
0.0
 10
298.3074993641258
 20
-353.0470110093556
 30
0.0
 10
297.9412931623283
 20
-346.9423536253889
 30
0.0
 10
317.7237521834359
 20
-340.5923380862187
 30
0.0
 10
335.3065326190808
 20
-329.6024899702716
 30
0.0
 10
343.4875791672403
 20
-309.2109079668389
 30
0.0
 10
347.7624262295576
 20
-298.3431285848237
 30
0.0
 10
352.5231068529283
 20
-277.9515465813911
 30
0.0
 10
337.13756362807
 20
-273.9220576742773
 30
0.0
 10
322.850639008604
 20
-270.2587749689628
 30
0.0
 10
325.2944550619341
 20
-286.7429367992136
 30
0.0
 10
324.1958364565398
 20
-295.4134789704422
 30
0.0
 10
321.6299516692779
 20
-314.0948780114795
 30
0.0
 10
311.1295991764
 20
-325.0847261274266
 30
0.0
 10
297.3309494926652
 20
-331.9230166023281
 30
0.0
 10
296.4764683551366
 20
-309.088839232907
 30
0.0
 10
296.8426745569341
 20
-286.3767305974161
 30
0.0
 10
297.8192244283946
 20
-263.5425532279933
 30
0.0
 10
299.2840492355863
 20
-228.8652672924345
 30
0.0
 10
303.6809650318355
 20
-194.1867606695378
 30
0.0
 10
305.2678585729591
 20
-159.5082540466392
 30
0.0
 10
305.6340647747566
 20
-151.8154824342091
 30
0.0
 10
284.9995659907981
 20
-152.0596199020747
 30
0.0
 10
283.0440248731993
 20
-158.408414753907
 30
0.0
 10
279.8702377909522
 20
-168.6658504662591
 30
0.0
 10
255.9374418161369
 20
-264.6423925207255
 30
0.0
 10
223.5794618252967
 20
-347.9189034968495
 30
0.0
 10
210.391155811225
 20
-350.6056363307052
 30
0.0
 10
197.3249185310851
 20
-354.635125237819
 30
0.0
 10
186.336291102476
 20
-362.2058281163154
 30
0.0
 10
185.725947432813
 20
-362.6941030520466
 30
0.0
 10
185.1156037631517
 20
-363.1823779877759
 30
0.0
 10
184.5052600934887
 20
-363.5485841895734
 30
0.0
 10
185.6038786988811
 20
-355.7337438432114
 30
0.0
 10
185.1156037631517
 20
-347.6747660289857
 30
0.0
 10
181.8173065722931
 20
-340.7144068201505
 30
0.0
 10
173.5141912902018
 20
-323.3757638523712
 30
0.0
 10
149.7034640493184
 20
-323.9861075220342
 30
0.0
 10
136.3955306759926
 20
-334.487680702252
 30
0.0
 10
120.0309962049942
 20
-347.552697295052
 30
0.0
 10
110.2630561157112
 20
-371.6075620038009
 30
0.0
 10
104.6454529801358
 20
-391.1446628697049
 30
0.0
 10
98.7861537513727
 20
-411.6583136070694
 30
0.0
 10
95.60992529444775
 20
-434.8586971782897
 30
0.0
 10
99.76270362283321
 20
-456.105981006589
 30
0.0
 10
103.6689031086753
 20
-475.8872193403586
 30
0.0
 10
117.7116902602756
 20
-488.3418922634974
 30
0.0
 10
138.5927678867774
 20
-485.7772281635753
 30
0.0
  0
SPLINE
  5
46
330
41
100
AcDbEntity
  8
Layer 1
370
     0
100
AcDbSpline
210
0.0
220
0.0
230
1.0
 70
    11
 71
     3
 72
    26
 73
    22
 74
     0
 42
0.0000000001
 43
0.0000000001
 12
1.0
 22
0.0
 32
0.0
 13
1.0
 23
0.0
 33
0.0
 40
0.0
 40
0.0
 40
0.0
 40
0.0
 40
1.0
 40
1.0
 40
1.0
 40
2.0
 40
2.0
 40
2.0
 40
3.0
 40
3.0
 40
3.0
 40
4.0
 40
4.0
 40
4.0
 40
5.0
 40
5.0
 40
5.0
 40
6.0
 40
6.0
 40
6.0
 40
7.0
 40
7.0
 40
7.0
 40
7.0
 10
244.8243042789181
 20
-325.6950697970897
 30
0.0
 10
254.1064108071496
 20
-299.0755409884187
 30
0.0
 10
261.7991824195778
 20
-271.8456685100846
 30
0.0
 10
269.7360914998735
 20
-244.8611541869559
 30
0.0
 10
272.055397444592
 20
-236.9242451066621
 30
0.0
 10
274.3747033893105
 20
-229.1094047603001
 30
0.0
 10
277.0626569105043
 20
-221.2945644139381
 30
0.0
 10
276.3278031322297
 20
-233.1388936674139
 30
0.0
 10
275.7174594625685
 20
-244.9832229208878
 30
0.0
 10
275.2291845268373
 20
-256.7054834404316
 30
0.0
 10
273.7643597196475
 20
-284.3015621205632
 30
0.0
 10
273.39815351785
 20
-311.8976408006947
 30
0.0
 10
274.6188408571743
 20
-339.4937194808263
 30
0.0
 10
262.6536635571065
 20
-342.1792316273422
 30
0.0
 10
250.3198386805616
 20
-343.6452771218719
 30
0.0
 10
239.3312112519543
 20
-345.2321706629955
 30
0.0
 10
238.8429363162231
 20
-345.2321706629955
 30
0.0
 10
238.3546613804938
 20
-345.3542393969274
 30
0.0
 10
237.7418763361511
 20
-345.4763081308593
 30
0.0
 10
240.1856923894811
 20
-338.8833758111632
 30
0.0
 10
242.6270670681315
 20
-332.2892228041273
 30
0.0
 10
244.8243042789181
 20
-325.6950697970897
 30
0.0
  0
SPLINE
  5
47
330
41
100
AcDbEntity
  8
Layer 1
370
     0
100
AcDbSpline
210
0.0
220
0.0
230
1.0
 70
    11
 71
     3
 72
    38
 73
    34
 74
     0
 42
0.0000000001
 43
0.0000000001
 12
1.0
 22
0.0
 32
0.0
 13
1.0
 23
0.0
 33
0.0
 40
0.0
 40
0.0
 40
0.0
 40
0.0
 40
1.0
 40
1.0
 40
1.0
 40
2.0
 40
2.0
 40
2.0
 40
3.0
 40
3.0
 40
3.0
 40
4.0
 40
4.0
 40
4.0
 40
5.0
 40
5.0
 40
5.0
 40
6.0
 40
6.0
 40
6.0
 40
7.0
 40
7.0
 40
7.0
 40
8.0
 40
8.0
 40
8.0
 40
9.0
 40
9.0
 40
9.0
 40
10.0
 40
10.0
 40
10.0
 40
11.0
 40
11.0
 40
11.0
 40
11.0
 10
128.7027590635626
 20
-387.6034488983223
 30
0.0
 10
131.8765461458097
 20
-378.2017150108368
 30
0.0
 10
135.78274563165
 20
-369.1649666378107
 30
0.0
 10
140.5458676296985
 20
-360.6177138878538
 30
0.0
 10
142.7431048404851
 20
-356.8323624486056
 30
0.0
 10
150.5579451868471
 20
-342.5466585164795
 30
0.0
 10
158.9831292028703
 20
-340.8364755540842
 30
0.0
 10
183.0379939116192
 20
-335.7083680415781
 30
0.0
 10
160.2062579168742
 20
-393.7093269696288
 30
0.0
 10
158.0065793314097
 20
-399.2036406839325
 30
0.0
 10
156.2976170563543
 20
-403.3551983249781
 30
0.0
 10
166.7979695492322
 20
-403.47726705891
 30
0.0
 10
168.5093731989673
 20
-400.5463967571905
 30
0.0
 10
169.3638543364941
 20
-399.9360530875274
 30
0.0
 10
170.8286791436858
 20
-398.1050220785382
 30
0.0
 10
172.5376414187413
 20
-395.4182892446843
 30
0.0
 10
182.9159251776855
 20
-382.7194788536799
 30
0.0
 10
193.1745815773775
 20
-373.1944555449245
 30
0.0
 10
208.8042622701014
 20
-366.2353170234292
 30
0.0
 10
211.7339118844829
 20
-364.8913402628314
 30
0.0
 10
214.6660028735423
 20
-363.792721657439
 30
0.0
 10
217.7177212218558
 20
-362.8161717859784
 30
0.0
 10
193.5407877791749
 20
-421.9157493194216
 30
0.0
 10
165.2110760081086
 20
-471.1253180296499
 30
0.0
 10
137.494149281385
 20
-473.2004865065046
 30
0.0
 10
133.4634396869315
 20
-473.4446239743684
 30
0.0
 10
129.06896526536
 20
-471.613592965381
 30
0.0
 10
126.1368742763007
 20
-465.7518523619401
 30
0.0
 10
122.2306747904586
 20
-458.05908074951
 30
0.0
 10
121.6203311207955
 20
-449.2676905316875
 30
0.0
 10
121.2541249189981
 20
-440.8425065156644
 30
0.0
 10
120.5192711407253
 20
-422.8922991908821
 30
0.0
 10
123.0851559279872
 20
-404.6979543982361
 30
0.0
 10
128.7027590635626
 20
-387.6034488983223
 30
0.0
  0
HATCH
  5
48
330
41
100
AcDbEntity
  8
Layer 1
 62
     7
420
 16777215
100
AcDbHatch
 10
0.0
 20
0.0
 30
0.0
210
0.0
220
0.0
230
1.0
  2
SOLID
 70
     1
 71
     0
 91
        3
 92
        1
 93
        1
 72
     4
 94
        3
 73
     0
 74
     1
 95
       89
 96
       85
 40
0.0
 40
0.0
 40
0.0
 40
0.0
 40
1.0
 40
1.0
 40
1.0
 40
2.0
 40
2.0
 40
2.0
 40
3.0
 40
3.0
 40
3.0
 40
4.0
 40
4.0
 40
4.0
 40
5.0
 40
5.0
 40
5.0
 40
6.0
 40
6.0
 40
6.0
 40
7.0
 40
7.0
 40
7.0
 40
8.0
 40
8.0
 40
8.0
 40
9.0
 40
9.0
 40
9.0
 40
10.0
 40
10.0
 40
10.0
 40
11.0
 40
11.0
 40
11.0
 40
12.0
 40
12.0
 40
12.0
 40
13.0
 40
13.0
 40
13.0
 40
14.0
 40
14.0
 40
14.0
 40
15.0
 40
15.0
 40
15.0
 40
16.0
 40
16.0
 40
16.0
 40
17.0
 40
17.0
 40
17.0
 40
18.0
 40
18.0
 40
18.0
 40
19.0
 40
19.0
 40
19.0
 40
20.0
 40
20.0
 40
20.0
 40
21.0
 40
21.0
 40
21.0
 40
22.0
 40
22.0
 40
22.0
 40
23.0
 40
23.0
 40
23.0
 40
24.0
 40
24.0
 40
24.0
 40
25.0
 40
25.0
 40
25.0
 40
26.0
 40
26.0
 40
26.0
 40
27.0
 40
27.0
 40
27.0
 40
28.0
 40
28.0
 40
28.0
 40
28.0
 10
138.5927678867774
 20
-485.7772281635753
 10
159.2272666707358
 20
-483.3358534849231
 10
173.1479850884043
 20
-464.8973712244115
 10
184.6273288274206
 20
-449.2676905316875
 10
204.7735526756478
 20
-421.7936805854897
 10
220.0370271665743
 20
-390.7784566679074
 10
232.6149895109847
 20
-358.9087516127984
 10
242.993273269929
 20
-356.8323624486056
 10
253.4936257628069
 20
-355.7337438432114
 10
263.9964196303645
 20
-354.2689190360215
 10
267.658481648341
 20
-353.7794234129524
 10
271.445053774929
 20
-353.1690797432893
 10
275.3512532607692
 20
-352.4366673396944
 10
275.3512532607692
 20
-352.6808048075582
 10
275.3512532607692
 20
-352.9249422754237
 10
275.3512532607692
 20
-353.1690797432893
 10
277.4288631123018
 20
-384.7946473305346
 10
282.0674750017388
 20
-416.2981461838463
 10
290.3705902838301
 20
-446.9471638996311
 10
297.0868120247997
 20
-471.613592965381
 10
305.8782022426221
 20
-499.4538091133782
 10
331.0316855567635
 20
-510.9319321650546
 10
351.5465569814678
 20
-520.3336660525401
 10
380.9748873579265
 20
-512.6408944401101
 10
388.3014527685573
 20
-486.9991361902394
 10
390.1324837775464
 20
-480.8932581189329
 10
382.4397121651164
 20
-476.8637692118191
 10
379.0217876150055
 20
-483.0917160170593
 10
372.4276346079696
 20
-495.3022514723307
 10
358.8731223920986
 20
-508.4893367990644
 10
344.7082665065664
 20
-500.918633920568
 10
331.3978917585609
 20
-493.836205977801
 10
324.1958364565398
 20
-479.0622271099455
 10
319.3106457245594
 20
-465.6297836280082
 10
307.7092332516095
 20
-433.7600785728973
 10
302.3382089585775
 20
-398.9595032160669
 10
299.2840492355863
 20
-365.2575464646288
 10
298.7957742998551
 20
-359.1528890806621
 10
298.3074993641258
 20
-353.0470110093556
 10
297.9412931623283
 20
-346.9423536253889
 10
317.7237521834359
 20
-340.5923380862187
 10
335.3065326190808
 20
-329.6024899702716
 10
343.4875791672403
 20
-309.2109079668389
 10
347.7624262295576
 20
-298.3431285848237
 10
352.5231068529283
 20
-277.9515465813911
 10
337.13756362807
 20
-273.9220576742773
 10
322.850639008604
 20
-270.2587749689628
 10
325.2944550619341
 20
-286.7429367992136
 10
324.1958364565398
 20
-295.4134789704422
 10
321.6299516692779
 20
-314.0948780114795
 10
311.1295991764
 20
-325.0847261274266
 10
297.3309494926652
 20
-331.9230166023281
 10
296.4764683551366
 20
-309.088839232907
 10
296.8426745569341
 20
-286.3767305974161
 10
297.8192244283946
 20
-263.5425532279933
 10
299.2840492355863
 20
-228.8652672924345
 10
303.6809650318355
 20
-194.1867606695378
 10
305.2678585729591
 20
-159.5082540466392
 10
305.6340647747566
 20
-151.8154824342091
 10
284.9995659907981
 20
-152.0596199020747
 10
283.0440248731993
 20
-158.408414753907
 10
279.8702377909522
 20
-168.6658504662591
 10
255.9374418161369
 20
-264.6423925207255
 10
223.5794618252967
 20
-347.9189034968495
 10
210.391155811225
 20
-350.6056363307052
 10
197.3249185310851
 20
-354.635125237819
 10
186.336291102476
 20
-362.2058281163154
 10
185.725947432813
 20
-362.6941030520466
 10
185.1156037631517
 20
-363.1823779877759
 10
184.5052600934887
 20
-363.5485841895734
 10
185.6038786988811
 20
-355.7337438432114
 10
185.1156037631517
 20
-347.6747660289857
 10
181.8173065722931
 20
-340.7144068201505
 10
173.5141912902018
 20
-323.3757638523712
 10
149.7034640493184
 20
-323.9861075220342
 10
136.3955306759926
 20
-334.487680702252
 10
120.0309962049942
 20
-347.552697295052
 10
110.2630561157112
 20
-371.6075620038009
 10
104.6454529801358
 20
-391.1446628697049
 10
98.7861537513727
 20
-411.6583136070694
 10
95.60992529444775
 20
-434.8586971782897
 10
99.76270362283321
 20
-456.105981006589
 10
103.6689031086753
 20
-475.8872193403586
 10
117.7116902602756
 20
-488.3418922634974
 10
138.5927678867774
 20
-485.7772281635753
 97
        0
 97
        0
 92
        1
 93
        1
 72
     4
 94
        3
 73
     0
 74
     1
 95
       26
 96
       22
 40
0.0
 40
0.0
 40
0.0
 40
0.0
 40
1.0
 40
1.0
 40
1.0
 40
2.0
 40
2.0
 40
2.0
 40
3.0
 40
3.0
 40
3.0
 40
4.0
 40
4.0
 40
4.0
 40
5.0
 40
5.0
 40
5.0
 40
6.0
 40
6.0
 40
6.0
 40
7.0
 40
7.0
 40
7.0
 40
7.0
 10
244.8243042789181
 20
-325.6950697970897
 10
254.1064108071496
 20
-299.0755409884187
 10
261.7991824195778
 20
-271.8456685100846
 10
269.7360914998735
 20
-244.8611541869559
 10
272.055397444592
 20
-236.9242451066621
 10
274.3747033893105
 20
-229.1094047603001
 10
277.0626569105043
 20
-221.2945644139381
 10
276.3278031322297
 20
-233.1388936674139
 10
275.7174594625685
 20
-244.9832229208878
 10
275.2291845268373
 20
-256.7054834404316
 10
273.7643597196475
 20
-284.3015621205632
 10
273.39815351785
 20
-311.8976408006947
 10
274.6188408571743
 20
-339.4937194808263
 10
262.6536635571065
 20
-342.1792316273422
 10
250.3198386805616
 20
-343.6452771218719
 10
239.3312112519543
 20
-345.2321706629955
 10
238.8429363162231
 20
-345.2321706629955
 10
238.3546613804938
 20
-345.3542393969274
 10
237.7418763361511
 20
-345.4763081308593
 10
240.1856923894811
 20
-338.8833758111632
 10
242.6270670681315
 20
-332.2892228041273
 10
244.8243042789181
 20
-325.6950697970897
 97
        0
 97
        0
 92
        1
 93
        1
 72
     4
 94
        3
 73
     0
 74
     1
 95
       38
 96
       34
 40
0.0
 40
0.0
 40
0.0
 40
0.0
 40
1.0
 40
1.0
 40
1.0
 40
2.0
 40
2.0
 40
2.0
 40
3.0
 40
3.0
 40
3.0
 40
4.0
 40
4.0
 40
4.0
 40
5.0
 40
5.0
 40
5.0
 40
6.0
 40
6.0
 40
6.0
 40
7.0
 40
7.0
 40
7.0
 40
8.0
 40
8.0
 40
8.0
 40
9.0
 40
9.0
 40
9.0
 40
10.0
 40
10.0
 40
10.0
 40
11.0
 40
11.0
 40
11.0
 40
11.0
 10
128.7027590635626
 20
-387.6034488983223
 10
131.8765461458097
 20
-378.2017150108368
 10
135.78274563165
 20
-369.1649666378107
 10
140.5458676296985
 20
-360.6177138878538
 10
142.7431048404851
 20
-356.8323624486056
 10
150.5579451868471
 20
-342.5466585164795
 10
158.9831292028703
 20
-340.8364755540842
 10
183.0379939116192
 20
-335.7083680415781
 10
160.2062579168742
 20
-393.7093269696288
 10
158.0065793314097
 20
-399.2036406839325
 10
156.2976170563543
 20
-403.3551983249781
 10
166.7979695492322
 20
-403.47726705891
 10
168.5093731989673
 20
-400.5463967571905
 10
169.3638543364941
 20
-399.9360530875274
 10
170.8286791436858
 20
-398.1050220785382
 10
172.5376414187413
 20
-395.4182892446843
 10
182.9159251776855
 20
-382.7194788536799
 10
193.1745815773775
 20
-373.1944555449245
 10
208.8042622701014
 20
-366.2353170234292
 10
211.7339118844829
 20
-364.8913402628314
 10
214.6660028735423
 20
-363.792721657439
 10
217.7177212218558
 20
-362.8161717859784
 10
193.5407877791749
 20
-421.9157493194216
 10
165.2110760081086
 20
-471.1253180296499
 10
137.494149281385
 20
-473.2004865065046
 10
133.4634396869315
 20
-473.4446239743684
 10
129.06896526536
 20
-471.613592965381
 10
126.1368742763007
 20
-465.7518523619401
 10
122.2306747904586
 20
-458.05908074951
 10
121.6203311207955
 20
-449.2676905316875
 10
121.2541249189981
 20
-440.8425065156644
 10
120.5192711407253
 20
-422.8922991908821
 10
123.0851559279872
 20
-404.6979543982361
 10
128.7027590635626
 20
-387.6034488983223
 97
        0
 97
        0
 75
     2
 76
     1
 98
        0
  0
SPLINE
  5
49
330
41
100
AcDbEntity
  8
Layer 1
370
     0
100
AcDbSpline
210
0.0
220
0.0
230
1.0
 70
    11
 71
     3
 72
   110
 73
   106
 74
     0
 42
0.0000000001
 43
0.0000000001
 12
1.0
 22
0.0
 32
0.0
 13
1.0
 23
0.0
 33
0.0
 40
0.0
 40
0.0
 40
0.0
 40
0.0
 40
1.0
 40
1.0
 40
1.0
 40
2.0
 40
2.0
 40
2.0
 40
3.0
 40
3.0
 40
3.0
 40
4.0
 40
4.0
 40
4.0
 40
5.0
 40
5.0
 40
5.0
 40
6.0
 40
6.0
 40
6.0
 40
7.0
 40
7.0
 40
7.0
 40
8.0
 40
8.0
 40
8.0
 40
9.0
 40
9.0
 40
9.0
 40
10.0
 40
10.0
 40
10.0
 40
11.0
 40
11.0
 40
11.0
 40
12.0
 40
12.0
 40
12.0
 40
13.0
 40
13.0
 40
13.0
 40
14.0
 40
14.0
 40
14.0
 40
15.0
 40
15.0
 40
15.0
 40
16.0
 40
16.0
 40
16.0
 40
17.0
 40
17.0
 40
17.0
 40
18.0
 40
18.0
 40
18.0
 40
19.0
 40
19.0
 40
19.0
 40
20.0
 40
20.0
 40
20.0
 40
21.0
 40
21.0
 40
21.0
 40
22.0
 40
22.0
 40
22.0
 40
23.0
 40
23.0
 40
23.0
 40
24.0
 40
24.0
 40
24.0
 40
25.0
 40
25.0
 40
25.0
 40
26.0
 40
26.0
 40
26.0
 40
27.0
 40
27.0
 40
27.0
 40
28.0
 40
28.0
 40
28.0
 40
29.0
 40
29.0
 40
29.0
 40
30.0
 40
30.0
 40
30.0
 40
31.0
 40
31.0
 40
31.0
 40
32.0
 40
32.0
 40
32.0
 40
33.0
 40
33.0
 40
33.0
 40
34.0
 40
34.0
 40
34.0
 40
35.0
 40
35.0
 40
35.0
 40
35.0
 10
344.5471357777751
 20
-415.9319399820488
 30
0.0
 10
344.9133419795726
 20
-422.1598867872872
 30
0.0
 10
345.6481957578471
 20
-428.2657648585937
 30
0.0
 10
346.502676895374
 20
-434.3704222425604
 30
0.0
 10
347.6012955007664
 20
-441.6969876531912
 30
0.0
 10
347.9675017025656
 20
-442.5514687907198
 30
0.0
 10
354.5616547096015
 20
-446.2147514960361
 30
0.0
 10
357.7354417918468
 20
-448.0470031923633
 30
0.0
 10
363.4751136613559
 20
-447.6807969905658
 30
0.0
 10
366.2826945418037
 20
-445.2382016245756
 30
0.0
 10
371.5340914755834
 20
-440.4763003138669
 30
0.0
 10
370.5575416041229
 20
-438.8881860854035
 30
0.0
 10
369.5809917326624
 20
-432.1731850317738
 30
0.0
 10
369.2147855308649
 20
-429.9747271336491
 30
0.0
 10
368.9706480629993
 20
-427.7762692355245
 30
0.0
 10
368.8485793290674
 20
-425.5790320247379
 30
0.0
 10
372.9989162827733
 20
-404.2096794625068
 30
0.0
 10
377.3958320790243
 20
-382.9636163215455
 30
0.0
 10
383.4992687756512
 20
-362.2058281163154
 30
0.0
 10
387.0417034343736
 20
-350.3614988628397
 30
0.0
 10
391.1920403880813
 20
-338.6392383432976
 30
0.0
 10
395.955162386128
 20
-327.2831840255531
 30
0.0
 10
398.1523995969146
 20
-322.1538558257071
 30
0.0
 10
400.352078182379
 20
-316.9036795792672
 30
0.0
 10
403.037590328895
 20
-312.1417782685585
 30
0.0
 10
403.77000273249
 20
-310.7978015079625
 30
0.0
 10
404.7465526039505
 20
-309.088839232907
 30
0.0
 10
405.8451712093447
 20
-307.3798769578498
 30
0.0
 10
403.77000273249
 20
-325.3288635952922
 30
0.0
 10
400.352078182379
 20
-356.0999500450089
 30
0.0
 10
400.1079407145135
 20
-367.4560043627553
 30
0.0
 10
399.6196657787841
 20
-391.3888003375705
 30
0.0
 10
402.5493153931657
 20
-413.3684965694647
 30
0.0
 10
425.8717676983179
 20
-413.8567715051959
 30
0.0
 10
427.8248674412389
 20
-413.8567715051959
 30
0.0
 10
430.2662421198893
 20
-413.3684965694647
 30
0.0
 10
431.8555770356907
 20
-412.1465885428006
 30
0.0
 10
433.0762643750168
 20
-411.5362448731375
 30
0.0
 10
434.0528142464773
 20
-410.6817637356089
 30
0.0
 10
434.1748829804092
 20
-409.7052138641484
 30
0.0
 10
438.3252199341168
 20
-385.8944866232669
 30
0.0
 10
440.5248985195813
 20
-362.0837593823835
 30
0.0
 10
446.3841977483426
 20
-338.5171696093657
 30
0.0
 10
449.0721512695382
 20
-328.015596429148
 30
0.0
 10
451.879732149986
 20
-317.5140232489302
 30
0.0
 10
455.5442355426421
 20
-307.2578082239179
 30
0.0
 10
457.7414727534269
 20
-301.0298614186795
 30
0.0
 10
459.9387099642136
 20
-295.6576164383077
 30
0.0
 10
463.3590758890041
 20
-290.4062195045299
 30
0.0
 10
466.0445880355201
 20
-314.5831529472107
 30
0.0
 10
447.9735326641458
 20
-434.1262847746948
 30
0.0
 10
456.6428541480345
 20
-462.0885696566238
 30
0.0
 10
460.9152598356741
 20
-477.9623878172133
 30
0.0
 10
470.6856412996349
 20
-489.8067170706872
 30
0.0
 10
488.5125592031454
 20
-487.3653423920368
 30
0.0
 10
489.7332465424697
 20
-487.1212049241713
 30
0.0
 10
494.8625747423157
 20
-484.8006782921148
 30
0.0
 10
492.5408274229194
 20
-483.4579222188568
 30
0.0
 10
457.1311290837657
 20
-461.8444321887582
 30
0.0
 10
488.0242842674143
 20
-337.4173303166335
 30
0.0
 10
485.2142620122868
 20
-285.2781119920237
 30
0.0
 10
483.7494372050969
 20
-276.1205155724037
 30
0.0
 10
466.6549317051831
 20
-264.3982550528599
 30
0.0
 10
459.5725037624161
 20
-270.8691186386259
 30
0.0
 10
450.0487011409987
 20
-279.4163713885828
 30
0.0
 10
444.1869605375578
 20
-298.8314035205549
 30
0.0
 10
441.5014483910418
 20
-307.2578082239179
 30
0.0
 10
433.4424705768142
 20
-332.6554290059248
 30
0.0
 10
425.9938364322497
 20
-360.1294389521227
 30
0.0
 10
423.5524617535993
 20
-387.2372426965248
 30
0.0
 10
422.8176079753248
 20
-383.940166193006
 30
0.0
 10
422.3293330395954
 20
-380.3989522216234
 30
0.0
 10
421.963126837798
 20
-376.9798069841727
 30
0.0
 10
420.7424394984719
 20
-362.449965584181
 30
0.0
 10
422.8176079753248
 20
-347.9189034968495
 30
0.0
 10
425.1393552947229
 20
-333.5099101434516
 30
0.0
 10
426.2379739001153
 20
-326.1833447328208
 30
0.0
 10
427.4586612394414
 20
-318.9800687434599
 30
0.0
 10
428.3131423769682
 20
-311.6535033328291
 30
0.0
 10
429.045554780565
 20
-305.5476252615226
 30
0.0
 10
430.7545170556205
 20
-301.7622738222744
 30
0.0
 10
428.8014173126994
 20
-295.7796851722396
 30
0.0
 10
425.6276302304523
 20
-285.766386927753
 30
0.0
 10
410.6082932073914
 20
-280.2720732134494
 30
0.0
 10
402.6713841270976
 20
-285.5222494598875
 30
0.0
 10
397.4199871933197
 20
-289.0634634312719
 30
0.0
 10
382.5227189041907
 20
-324.4743824577654
 30
0.0
 10
372.5106413470439
 20
-357.4427061182669
 30
0.0
 10
371.0458165398522
 20
-362.0837593823835
 30
0.0
 10
369.825129200528
 20
-366.6015232252266
 30
0.0
 10
368.6044418612018
 20
-371.2413558020035
 30
0.0
 10
369.2147855308649
 20
-363.060309253844
 30
0.0
 10
370.0692666683917
 20
-354.8792627056846
 30
0.0
 10
371.1678852737859
 20
-346.5761474235915
 30
0.0
 10
372.3885726131102
 20
-336.9290553809024
 30
0.0
 10
375.806497163223
 20
-322.6433514487762
 30
0.0
 10
376.0506346310867
 20
-314.8285111024143
 30
0.0
 10
376.2972134736301
 20
-307.6240144257154
 30
0.0
 10
357.7354417918468
 20
-309.088839232907
 30
0.0
 10
354.6837234435334
 20
-314.950579836348
 30
0.0
 10
349.4323265097555
 20
-323.3757638523712
 30
0.0
 10
345.4040582899815
 20
-368.1884167663502
 30
0.0
 10
344.669204511707
 20
-380.6430896894872
 30
0.0
 10
343.9367921081121
 20
-392.365350209031
 30
0.0
 10
343.8147233741802
 20
-404.2096794625068
 30
0.0
 10
344.5471357777751
 20
-415.9319399820488
 30
0.0
  0
HATCH
  5
4A
330
41
100
AcDbEntity
  8
Layer 1
 62
     7
420
 16777215
100
AcDbHatch
 10
0.0
 20
0.0
 30
0.0
210
0.0
220
0.0
230
1.0
  2
SOLID
 70
     1
 71
     0
 91
        1
 92
        1
 93
        1
 72
     4
 94
        3
 73
     0
 74
     1
 95
      110
 96
      106
 40
0.0
 40
0.0
 40
0.0
 40
0.0
 40
1.0
 40
1.0
 40
1.0
 40
2.0
 40
2.0
 40
2.0
 40
3.0
 40
3.0
 40
3.0
 40
4.0
 40
4.0
 40
4.0
 40
5.0
 40
5.0
 40
5.0
 40
6.0
 40
6.0
 40
6.0
 40
7.0
 40
7.0
 40
7.0
 40
8.0
 40
8.0
 40
8.0
 40
9.0
 40
9.0
 40
9.0
 40
10.0
 40
10.0
 40
10.0
 40
11.0
 40
11.0
 40
11.0
 40
12.0
 40
12.0
 40
12.0
 40
13.0
 40
13.0
 40
13.0
 40
14.0
 40
14.0
 40
14.0
 40
15.0
 40
15.0
 40
15.0
 40
16.0
 40
16.0
 40
16.0
 40
17.0
 40
17.0
 40
17.0
 40
18.0
 40
18.0
 40
18.0
 40
19.0
 40
19.0
 40
19.0
 40
20.0
 40
20.0
 40
20.0
 40
21.0
 40
21.0
 40
21.0
 40
22.0
 40
22.0
 40
22.0
 40
23.0
 40
23.0
 40
23.0
 40
24.0
 40
24.0
 40
24.0
 40
25.0
 40
25.0
 40
25.0
 40
26.0
 40
26.0
 40
26.0
 40
27.0
 40
27.0
 40
27.0
 40
28.0
 40
28.0
 40
28.0
 40
29.0
 40
29.0
 40
29.0
 40
30.0
 40
30.0
 40
30.0
 40
31.0
 40
31.0
 40
31.0
 40
32.0
 40
32.0
 40
32.0
 40
33.0
 40
33.0
 40
33.0
 40
34.0
 40
34.0
 40
34.0
 40
35.0
 40
35.0
 40
35.0
 40
35.0
 10
344.5471357777751
 20
-415.9319399820488
 10
344.9133419795726
 20
-422.1598867872872
 10
345.6481957578471
 20
-428.2657648585937
 10
346.502676895374
 20
-434.3704222425604
 10
347.6012955007664
 20
-441.6969876531912
 10
347.9675017025656
 20
-442.5514687907198
 10
354.5616547096015
 20
-446.2147514960361
 10
357.7354417918468
 20
-448.0470031923633
 10
363.4751136613559
 20
-447.6807969905658
 10
366.2826945418037
 20
-445.2382016245756
 10
371.5340914755834
 20
-440.4763003138669
 10
370.5575416041229
 20
-438.8881860854035
 10
369.5809917326624
 20
-432.1731850317738
 10
369.2147855308649
 20
-429.9747271336491
 10
368.9706480629993
 20
-427.7762692355245
 10
368.8485793290674
 20
-425.5790320247379
 10
372.9989162827733
 20
-404.2096794625068
 10
377.3958320790243
 20
-382.9636163215455
 10
383.4992687756512
 20
-362.2058281163154
 10
387.0417034343736
 20
-350.3614988628397
 10
391.1920403880813
 20
-338.6392383432976
 10
395.955162386128
 20
-327.2831840255531
 10
398.1523995969146
 20
-322.1538558257071
 10
400.352078182379
 20
-316.9036795792672
 10
403.037590328895
 20
-312.1417782685585
 10
403.77000273249
 20
-310.7978015079625
 10
404.7465526039505
 20
-309.088839232907
 10
405.8451712093447
 20
-307.3798769578498
 10
403.77000273249
 20
-325.3288635952922
 10
400.352078182379
 20
-356.0999500450089
 10
400.1079407145135
 20
-367.4560043627553
 10
399.6196657787841
 20
-391.3888003375705
 10
402.5493153931657
 20
-413.3684965694647
 10
425.8717676983179
 20
-413.8567715051959
 10
427.8248674412389
 20
-413.8567715051959
 10
430.2662421198893
 20
-413.3684965694647
 10
431.8555770356907
 20
-412.1465885428006
 10
433.0762643750168
 20
-411.5362448731375
 10
434.0528142464773
 20
-410.6817637356089
 10
434.1748829804092
 20
-409.7052138641484
 10
438.3252199341168
 20
-385.8944866232669
 10
440.5248985195813
 20
-362.0837593823835
 10
446.3841977483426
 20
-338.5171696093657
 10
449.0721512695382
 20
-328.015596429148
 10
451.879732149986
 20
-317.5140232489302
 10
455.5442355426421
 20
-307.2578082239179
 10
457.7414727534269
 20
-301.0298614186795
 10
459.9387099642136
 20
-295.6576164383077
 10
463.3590758890041
 20
-290.4062195045299
 10
466.0445880355201
 20
-314.5831529472107
 10
447.9735326641458
 20
-434.1262847746948
 10
456.6428541480345
 20
-462.0885696566238
 10
460.9152598356741
 20
-477.9623878172133
 10
470.6856412996349
 20
-489.8067170706872
 10
488.5125592031454
 20
-487.3653423920368
 10
489.7332465424697
 20
-487.1212049241713
 10
494.8625747423157
 20
-484.8006782921148
 10
492.5408274229194
 20
-483.4579222188568
 10
457.1311290837657
 20
-461.8444321887582
 10
488.0242842674143
 20
-337.4173303166335
 10
485.2142620122868
 20
-285.2781119920237
 10
483.7494372050969
 20
-276.1205155724037
 10
466.6549317051831
 20
-264.3982550528599
 10
459.5725037624161
 20
-270.8691186386259
 10
450.0487011409987
 20
-279.4163713885828
 10
444.1869605375578
 20
-298.8314035205549
 10
441.5014483910418
 20
-307.2578082239179
 10
433.4424705768142
 20
-332.6554290059248
 10
425.9938364322497
 20
-360.1294389521227
 10
423.5524617535993
 20
-387.2372426965248
 10
422.8176079753248
 20
-383.940166193006
 10
422.3293330395954
 20
-380.3989522216234
 10
421.963126837798
 20
-376.9798069841727
 10
420.7424394984719
 20
-362.449965584181
 10
422.8176079753248
 20
-347.9189034968495
 10
425.1393552947229
 20
-333.5099101434516
 10
426.2379739001153
 20
-326.1833447328208
 10
427.4586612394414
 20
-318.9800687434599
 10
428.3131423769682
 20
-311.6535033328291
 10
429.045554780565
 20
-305.5476252615226
 10
430.7545170556205
 20
-301.7622738222744
 10
428.8014173126994
 20
-295.7796851722396
 10
425.6276302304523
 20
-285.766386927753
 10
410.6082932073914
 20
-280.2720732134494
 10
402.6713841270976
 20
-285.5222494598875
 10
397.4199871933197
 20
-289.0634634312719
 10
382.5227189041907
 20
-324.4743824577654
 10
372.5106413470439
 20
-357.4427061182669
 10
371.0458165398522
 20
-362.0837593823835
 10
369.825129200528
 20
-366.6015232252266
 10
368.6044418612018
 20
-371.2413558020035
 10
369.2147855308649
 20
-363.060309253844
 10
370.0692666683917
 20
-354.8792627056846
 10
371.1678852737859
 20
-346.5761474235915
 10
372.3885726131102
 20
-336.9290553809024
 10
375.806497163223
 20
-322.6433514487762
 10
376.0506346310867
 20
-314.8285111024143
 10
376.2972134736301
 20
-307.6240144257154
 10
357.7354417918468
 20
-309.088839232907
 10
354.6837234435334
 20
-314.950579836348
 10
349.4323265097555
 20
-323.3757638523712
 10
345.4040582899815
 20
-368.1884167663502
 10
344.669204511707
 20
-380.6430896894872
 10
343.9367921081121
 20
-392.365350209031
 10
343.8147233741802
 20
-404.2096794625068
 10
344.5471357777751
 20
-415.9319399820488
 97
        0
 97
        0
 75
     2
 76
     1
 98
        0
  0
SPLINE
  5
4B
330
41
100
AcDbEntity
  8
Layer 1
370
     0
100
AcDbSpline
210
0.0
220
0.0
230
1.0
 70
    11
 71
     3
 72
    17
 73
    13
 74
     0
 42
0.0000000001
 43
0.0000000001
 12
1.0
 22
0.0
 32
0.0
 13
1.0
 23
0.0
 33
0.0
 40
0.0
 40
0.0
 40
0.0
 40
0.0
 40
1.0
 40
1.0
 40
1.0
 40
2.0
 40
2.0
 40
2.0
 40
3.0
 40
3.0
 40
3.0
 40
4.0
 40
4.0
 40
4.0
 40
4.0
 10
724.1271880650747
 20
-297.9769223830262
 30
0.0
 10
733.2847844846947
 20
-298.0989911169581
 30
0.0
 10
740.7334186292592
 20
-294.3136396777099
 30
0.0
 10
740.8554873631911
 20
-289.4296696330694
 30
0.0
 10
740.8554873631911
 20
-284.6677683223606
 30
0.0
 10
733.5289219525603
 20
-280.516210681315
 30
0.0
 10
724.3713255329403
 20
-280.3941419473813
 30
0.0
 10
715.2112877386426
 20
-280.2720732134494
 30
0.0
 10
707.643026234824
 20
-284.0574246526976
 30
0.0
 10
707.643026234824
 20
-288.9413946973382
 30
0.0
 10
707.5185161262125
 20
-293.8253647419806
 30
0.0
 10
714.8450815368451
 20
-297.8548536490944
 30
0.0
 10
724.1271880650747
 20
-297.9769223830262
 30
0.0
  0
HATCH
  5
4C
330
41
100
AcDbEntity
  8
Layer 1
 62
     7
420
 16777215
100
AcDbHatch
 10
0.0
 20
0.0
 30
0.0
210
0.0
220
0.0
230
1.0
  2
SOLID
 70
     1
 71
     0
 91
        1
 92
        1
 93
        1
 72
     4
 94
        3
 73
     0
 74
     1
 95
       17
 96
       13
 40
0.0
 40
0.0
 40
0.0
 40
0.0
 40
1.0
 40
1.0
 40
1.0
 40
2.0
 40
2.0
 40
2.0
 40
3.0
 40
3.0
 40
3.0
 40
4.0
 40
4.0
 40
4.0
 40
4.0
 10
724.1271880650747
 20
-297.9769223830262
 10
733.2847844846947
 20
-298.0989911169581
 10
740.7334186292592
 20
-294.3136396777099
 10
740.8554873631911
 20
-289.4296696330694
 10
740.8554873631911
 20
-284.6677683223606
 10
733.5289219525603
 20
-280.516210681315
 10
724.3713255329403
 20
-280.3941419473813
 10
715.2112877386426
 20
-280.2720732134494
 10
707.643026234824
 20
-284.0574246526976
 10
707.643026234824
 20
-288.9413946973382
 10
707.5185161262125
 20
-293.8253647419806
 10
714.8450815368451
 20
-297.8548536490944
 10
724.1271880650747
 20
-297.9769223830262
 97
        0
 97
        0
 75
     2
 76
     1
 98
        0
  0
SPLINE
  5
4D
330
41
100
AcDbEntity
  8
Layer 1
370
     0
100
AcDbSpline
210
0.0
220
0.0
230
1.0
 70
    11
 71
     3
 72
   263
 73
   259
 74
     0
 42
0.0000000001
 43
0.0000000001
 12
1.0
 22
0.0
 32
0.0
 13
1.0
 23
0.0
 33
0.0
 40
0.0
 40
0.0
 40
0.0
 40
0.0
 40
1.0
 40
1.0
 40
1.0
 40
2.0
 40
2.0
 40
2.0
 40
3.0
 40
3.0
 40
3.0
 40
4.0
 40
4.0
 40
4.0
 40
5.0
 40
5.0
 40
5.0
 40
6.0
 40
6.0
 40
6.0
 40
7.0
 40
7.0
 40
7.0
 40
8.0
 40
8.0
 40
8.0
 40
9.0
 40
9.0
 40
9.0
 40
10.0
 40
10.0
 40
10.0
 40
11.0
 40
11.0
 40
11.0
 40
12.0
 40
12.0
 40
12.0
 40
13.0
 40
13.0
 40
13.0
 40
14.0
 40
14.0
 40
14.0
 40
15.0
 40
15.0
 40
15.0
 40
16.0
 40
16.0
 40
16.0
 40
17.0
 40
17.0
 40
17.0
 40
18.0
 40
18.0
 40
18.0
 40
19.0
 40
19.0
 40
19.0
 40
20.0
 40
20.0
 40
20.0
 40
21.0
 40
21.0
 40
21.0
 40
22.0
 40
22.0
 40
22.0
 40
23.0
 40
23.0
 40
23.0
 40
24.0
 40
24.0
 40
24.0
 40
25.0
 40
25.0
 40
25.0
 40
26.0
 40
26.0
 40
26.0
 40
27.0
 40
27.0
 40
27.0
 40
28.0
 40
28.0
 40
28.0
 40
29.0
 40
29.0
 40
29.0
 40
30.0
 40
30.0
 40
30.0
 40
31.0
 40
31.0
 40
31.0
 40
32.0
 40
32.0
 40
32.0
 40
33.0
 40
33.0
 40
33.0
 40
34.0
 40
34.0
 40
34.0
 40
35.0
 40
35.0
 40
35.0
 40
36.0
 40
36.0
 40
36.0
 40
37.0
 40
37.0
 40
37.0
 40
38.0
 40
38.0
 40
38.0
 40
39.0
 40
39.0
 40
39.0
 40
40.0
 40
40.0
 40
40.0
 40
41.0
 40
41.0
 40
41.0
 40
42.0
 40
42.0
 40
42.0
 40
43.0
 40
43.0
 40
43.0
 40
44.0
 40
44.0
 40
44.0
 40
45.0
 40
45.0
 40
45.0
 40
46.0
 40
46.0
 40
46.0
 40
47.0
 40
47.0
 40
47.0
 40
48.0
 40
48.0
 40
48.0
 40
49.0
 40
49.0
 40
49.0
 40
50.0
 40
50.0
 40
50.0
 40
51.0
 40
51.0
 40
51.0
 40
52.0
 40
52.0
 40
52.0
 40
53.0
 40
53.0
 40
53.0
 40
54.0
 40
54.0
 40
54.0
 40
55.0
 40
55.0
 40
55.0
 40
56.0
 40
56.0
 40
56.0
 40
57.0
 40
57.0
 40
57.0
 40
58.0
 40
58.0
 40
58.0
 40
59.0
 40
59.0
 40
59.0
 40
60.0
 40
60.0
 40
60.0
 40
61.0
 40
61.0
 40
61.0
 40
62.0
 40
62.0
 40
62.0
 40
63.0
 40
63.0
 40
63.0
 40
64.0
 40
64.0
 40
64.0
 40
65.0
 40
65.0
 40
65.0
 40
66.0
 40
66.0
 40
66.0
 40
67.0
 40
67.0
 40
67.0
 40
68.0
 40
68.0
 40
68.0
 40
69.0
 40
69.0
 40
69.0
 40
70.0
 40
70.0
 40
70.0
 40
71.0
 40
71.0
 40
71.0
 40
72.0
 40
72.0
 40
72.0
 40
73.0
 40
73.0
 40
73.0
 40
74.0
 40
74.0
 40
74.0
 40
75.0
 40
75.0
 40
75.0
 40
76.0
 40
76.0
 40
76.0
 40
77.0
 40
77.0
 40
77.0
 40
78.0
 40
78.0
 40
78.0
 40
79.0
 40
79.0
 40
79.0
 40
80.0
 40
80.0
 40
80.0
 40
81.0
 40
81.0
 40
81.0
 40
82.0
 40
82.0
 40
82.0
 40
83.0
 40
83.0
 40
83.0
 40
84.0
 40
84.0
 40
84.0
 40
85.0
 40
85.0
 40
85.0
 40
86.0
 40
86.0
 40
86.0
 40
86.0
 10
871.5007705418429
 20
-472.1018679011104
 30
0.0
 10
871.1321229653659
 20
-469.9034100029858
 30
0.0
 10
867.5921296813212
 20
-470.2696162047832
 30
0.0
 10
866.2493736080633
 20
-470.6358224065807
 30
0.0
 10
835.3562184244147
 20
-457.448737079847
 30
0.0
 10
858.9228081974325
 20
-355.7337438432114
 30
0.0
 10
864.4183425990759
 20
-310.1874578382995
 30
0.0
 10
865.3948924705364
 20
-301.8843425562063
 30
0.0
 10
866.1273048741314
 20
-286.1325931295505
 30
0.0
 10
862.0965952796778
 20
-275.6310199493346
 30
0.0
 10
860.509701738556
 20
-271.7235997761527
 30
0.0
 10
848.4224557045545
 20
-263.9087594297907
 30
0.0
 10
843.048990036843
 20
-264.8865299885911
 30
0.0
 10
834.1355310850886
 20
-266.5954922636465
 30
0.0
 10
828.3958592155795
 20
-276.2425843063356
 30
0.0
 10
824.4872183550597
 20
-285.0339745241581
 30
0.0
 10
817.6513692548378
 20
-300.663655216882
 30
0.0
 10
811.0572162478002
 20
-316.4154046435378
 30
0.0
 10
805.9278880479542
 20
-332.6554290059248
 30
0.0
 10
800.3102849123788
 20
-350.4835675967734
 30
0.0
 10
796.5261541604705
 20
-368.7987604360133
 30
0.0
 10
792.2513070981513
 20
-387.1151739625911
 30
0.0
 10
792.1292383642194
 20
-384.1843036608716
 30
0.0
 10
791.8851008963538
 20
-381.2534333591502
 30
0.0
 10
791.763032162422
 20
-378.3237837447687
 30
0.0
 10
790.6644135570295
 20
-358.1763392092016
 30
0.0
 10
790.6644135570295
 20
-339.3716507468926
 30
0.0
 10
792.0071696302875
 20
-317.5140232489302
 30
0.0
 10
792.4954445660169
 20
-309.088839232907
 30
0.0
 10
776.4995576714955
 20
-312.5079844703578
 30
0.0
 10
774.79059539644
 20
-317.2698857810665
 30
0.0
 10
771.2506021123972
 20
-327.2831840255531
 30
0.0
 10
767.8302361876067
 20
-353.6573546790187
 30
0.0
 10
767.9523049215386
 20
-377.5913713411737
 30
0.0
 10
767.9718359189683
 20
-379.1349304817504
 30
0.0
 10
767.9968600094253
 20
-380.7029033691142
 30
0.0
 10
768.0255461618981
 20
-382.2803365833588
 30
0.0
 10
762.4872877033795
 20
-404.7904214641894
 30
0.0
 10
752.6418339680495
 20
-434.1514614510688
 30
0.0
 10
740.6113498953273
 20
-433.8821473068292
 30
0.0
 10
734.2613343561552
 20
-433.7600785728973
 30
0.0
 10
731.5758222096392
 20
-418.2524666141071
 30
0.0
 10
730.8409684313647
 20
-413.7347027712622
 30
0.0
 10
728.0333875509168
 20
-396.7610453179423
 30
0.0
 10
729.8644185599042
 20
-379.0561961483654
 30
0.0
 10
730.4747622295672
 20
-361.9616906484498
 30
0.0
 10
730.7188996974328
 20
-353.2911484772212
 30
0.0
 10
732.1861658793023
 20
-329.7245587042034
 30
0.0
 10
731.8199596775048
 20
-320.933168486381
 30
0.0
 10
731.8199596775048
 20
-320.5669622845835
 30
0.0
 10
731.8199596775048
 20
-320.0786873488541
 30
0.0
 10
731.8199596775048
 20
-319.7124811470567
 30
0.0
 10
737.0689152366049
 20
-319.3462749452592
 30
0.0
 10
739.2685938220693
 20
-318.2464356525252
 30
0.0
 10
739.1465250881356
 20
-315.4388547720773
 30
0.0
 10
739.0244563542037
 20
-311.6535033328291
 30
0.0
 10
730.7188996974328
 20
-309.9433203704339
 30
0.0
 10
720.2185472045549
 20
-309.9433203704339
 30
0.0
 10
709.7181947116769
 20
-309.9433203704339
 30
0.0
 10
701.17094196172
 20
-310.431595306165
 30
0.0
 10
701.17094196172
 20
-315.4388547720773
 30
0.0
 10
701.17094196172
 20
-318.6126418543245
 30
0.0
 10
705.199210181494
 20
-319.8345498809886
 30
0.0
 10
709.4740572438113
 20
-319.9566186149204
 30
0.0
 10
709.4740572438113
 20
-320.3228248167179
 30
0.0
 10
709.3519885098794
 20
-320.8110997524491
 30
0.0
 10
709.3519885098794
 20
-321.1773059542465
 30
0.0
 10
709.3519885098794
 20
-327.4052527594849
 30
0.0
 10
708.3754386384189
 20
-339.3716507468926
 30
0.0
 10
708.1313011705533
 20
-345.598376864793
 30
0.0
 10
708.0183875916664
 20
-349.4446100850892
 30
0.0
 10
707.8831964688361
 20
-353.2847398686899
 30
0.0
 10
707.7534984390331
 20
-357.1271584410515
 30
0.0
 10
707.6704916999588
 20
-357.2670797273222
 30
0.0
 10
707.5862642735447
 20
-357.406695841757
 30
0.0
 10
707.5356057489626
 20
-357.5647748522006
 30
0.0
 10
701.3076589437242
 20
-378.4458524787024
 30
0.0
 10
691.4176501205093
 20
-396.5169078500767
 30
0.0
 10
680.1848852240364
 20
-413.4905653033984
 30
0.0
 10
670.6586412279394
 20
-402.9889921231807
 30
0.0
 10
657.4727765885455
 20
-400.3022592893249
 30
0.0
 10
644.8948142441368
 20
-403.2331295910462
 30
0.0
 10
646.7258452531241
 20
-398.9595032160669
 30
0.0
 10
648.4372489028592
 20
-394.5638081071556
 30
0.0
 10
649.9020737100491
 20
-390.0460442643125
 30
0.0
 10
657.106570386748
 20
-369.532393526948
 30
0.0
 10
663.4565859259201
 20
-340.2261318844212
 30
0.0
 10
654.9068918012836
 20
-318.9800687434599
 30
0.0
 10
647.2141201888553
 20
-299.320899143624
 30
0.0
 10
624.5044529280422
 20
-299.5650366114878
 30
0.0
 10
610.4616657764418
 20
-314.8285111024143
 30
0.0
 10
604.3557877051371
 20
-321.543512156044
 30
0.0
 10
592.1440315625241
 20
-344.8659644611962
 30
0.0
 10
592.1440315625241
 20
-358.6646141449328
 30
0.0
 10
592.1440315625241
 20
-359.8645497994894
 30
0.0
 10
592.7415580151246
 20
-360.9845304333212
 30
0.0
 10
593.5765081552236
 20
-361.9455165412037
 30
0.0
 10
591.0805077181376
 20
-373.7352200362457
 30
0.0
 10
587.592088474179
 20
-385.1965586370061
 30
0.0
 10
582.7569459231108
 20
-396.2727703822111
 30
0.0
 10
579.5807174661859
 20
-403.5993357928437
 30
0.0
 10
576.0407241821431
 20
-410.6817637356089
 30
0.0
 10
571.5217396519602
 20
-417.2759167426466
 30
0.0
 10
570.1789835787022
 20
-419.4731539534314
 30
0.0
 10
568.5920900375786
 20
-421.5495431176241
 30
0.0
 10
566.8831277625231
 20
-423.624711594477
 30
0.0
 10
566.394852826792
 20
-422.0378180533553
 30
0.0
 10
565.9065778910626
 20
-420.32763509096
 30
0.0
 10
565.7845091571289
 20
-418.6186728159046
 30
0.0
 10
559.1903561500931
 20
-385.0387847983984
 30
0.0
 10
562.2420744984065
 20
-349.8720032397705
 30
0.0
 10
564.8079592856702
 20
-315.9271297078085
 30
0.0
 10
565.1741654874677
 20
-310.5536640400969
 30
0.0
 10
555.6479214913707
 20
-308.9667704989733
 30
0.0
 10
548.6875622825373
 20
-310.7978015079625
 30
0.0
 10
548.3213560807399
 20
-310.3095265722313
 30
0.0
 10
548.0772186128743
 20
-309.9433203704339
 30
0.0
 10
547.7110124110768
 20
-309.5771141686364
 30
0.0
 10
539.1637596611163
 20
-300.1753802811509
 30
0.0
 10
522.3133916290681
 20
-301.0298614186795
 30
0.0
 10
512.9116577415825
 20
-308.6005642971759
 30
0.0
 10
500.5778328650376
 20
-318.3685043864589
 30
0.0
 10
494.9626711041401
 20
-338.1497427202285
 30
0.0
 10
491.0540302436202
 20
-352.5587360736263
 30
0.0
 10
486.5374870881169
 20
-369.4091041056763
 30
0.0
 10
484.4598772365844
 20
-386.6268990268618
 30
0.0
 10
485.4364271080449
 20
-403.9655419946412
 30
0.0
 10
486.1688395116398
 20
-417.1538480087129
 30
0.0
 10
487.7581744274412
 20
-434.7366284443578
 30
0.0
 10
501.9205889382956
 20
-440.3542315799332
 30
0.0
 10
518.0409859414285
 20
-446.5809576978336
 30
0.0
 10
528.2972009664409
 20
-434.4924909764923
 30
0.0
 10
534.2810103038155
 20
-421.1833369158267
 30
0.0
 10
536.4782475146003
 20
-416.2981461838463
 30
0.0
 10
538.4313472575213
 20
-411.1700386713401
 30
0.0
 10
540.0182407986449
 20
-405.9198624249002
 30
0.0
 10
541.238928137971
 20
-419.2290164855658
 30
0.0
 10
544.7813627966952
 20
-432.9055974353687
 30
0.0
 10
556.746540096763
 20
-436.2026739388875
 30
0.0
 10
576.4069303839406
 20
-441.5749189192593
 30
0.0
 10
582.8790146570445
 20
-423.5026428605452
 30
0.0
 10
588.1279702161428
 20
-408.7286639926897
 30
0.0
 10
593.229832950854
 20
-394.4975858189973
 30
0.0
 10
596.6816315746328
 20
-379.6088623412452
 30
0.0
 10
599.1281941744746
 20
-364.6424726315272
 30
0.0
 10
599.4516763193969
 20
-364.5855580843308
 30
0.0
 10
599.7382326723036
 20
-364.4724919195251
 30
0.0
 10
599.9588719088861
 20
-364.2809965931683
 30
0.0
 10
599.9588719088861
 20
-364.2809965931683
 30
0.0
 10
613.3913153908234
 20
-335.83043677551
 30
0.0
 10
621.0840870032534
 20
-325.9392072649553
 30
0.0
 10
623.0371867461745
 20
-323.3757638523712
 30
0.0
 10
627.4341025424237
 20
-319.3462749452592
 30
0.0
 10
630.485820890739
 20
-318.7347105882563
 30
0.0
 10
633.7841180815958
 20
-317.6360919828639
 30
0.0
 10
636.2254927602462
 20
-324.1081762559679
 30
0.0
 10
636.7137676959774
 20
-326.3054134667527
 30
0.0
 10
638.6668674388966
 20
-334.8538869040494
 30
0.0
 10
638.6668674388966
 20
-344.4997582593987
 30
0.0
 10
637.9344550353017
 20
-353.4132172111549
 30
0.0
 10
636.3475614941781
 20
-372.7061806091933
 30
0.0
 10
629.9975459550078
 20
-390.9005254018393
 30
0.0
 10
621.9385681407803
 20
-407.8729621678212
 30
0.0
 10
618.1544373888719
 20
-416.0540087159807
 30
0.0
 10
613.7575215926208
 20
-424.1129865302082
 30
0.0
 10
609.2409784371175
 20
-431.9278268765702
 30
0.0
 10
605.6985437783951
 20
-438.0337049478767
 30
0.0
 10
599.2264595052911
 20
-444.383720487047
 30
0.0
 10
601.5482068246874
 20
-451.9544233655433
 30
0.0
 10
603.135100365811
 20
-456.5942559423202
 30
0.0
 10
611.1940781800386
 20
-455.0061417138568
 30
0.0
 10
613.8795903265545
 20
-453.6633856405988
 30
0.0
 10
620.717880801456
 20
-450.1221716692162
 30
0.0
 10
625.4810027995045
 20
-441.8190563871249
 30
0.0
 10
629.6313397532103
 20
-433.7600785728973
 30
0.0
 10
634.2723930173252
 20
-428.8761085282567
 30
0.0
 10
638.9110049067622
 20
-423.9909177962763
 30
0.0
 10
644.7727455102031
 20
-419.5952226873651
 30
0.0
 10
651.977242186902
 20
-414.2229777069933
 30
0.0
 10
657.716914056411
 20
-413.4905653033984
 30
0.0
 10
663.7007233937838
 20
-421.0612681818948
 30
0.0
 10
665.8979606045705
 20
-423.7467803284108
 30
0.0
 10
667.6069228796259
 20
-426.799719364064
 30
0.0
 10
668.827610218952
 20
-429.9747271336491
 30
0.0
 10
661.2569073404557
 20
-440.2321628460013
 30
0.0
 10
653.5641357280256
 20
-450.3663091370818
 30
0.0
 10
645.9934328495292
 20
-460.6237448494339
 30
0.0
 10
633.6620493476621
 20
-477.3520441475503
 30
0.0
 10
622.3047743425777
 20
-494.6919078026694
 30
0.0
 10
612.1706280514991
 20
-513.1291693758412
 30
0.0
 10
606.9192311177194
 20
-523.1424676203278
 30
0.0
 10
601.792344292553
 20
-533.2766139114083
 30
0.0
 10
598.005772165965
 20
-544.0223245594934
 30
0.0
 10
595.0761225515835
 20
-551.7150961719217
 30
0.0
 10
591.8998940946585
 20
-560.3844176558123
 30
0.0
 10
593.0009540747305
 20
-568.932891093109
 30
0.0
 10
594.9540538176516
 20
-585.1729154554941
 30
0.0
 10
610.3395970425099
 20
-583.95100742883
 30
0.0
 10
620.9620182693216
 20
-579.5553123199188
 30
0.0
 10
637.3241113656404
 20
-572.5949531110855
 30
0.0
 10
651.2448297833071
 20
-558.1871804450257
 30
0.0
 10
661.745182276185
 20
-542.5574997523017
 30
0.0
 10
673.346594749135
 20
-524.973498629317
 30
0.0
 10
681.5276412972944
 20
-503.6053667544238
 30
0.0
 10
686.6569694971404
 20
-482.3580829261246
 30
0.0
 10
691.2955813865774
 20
-463.6766838850872
 30
0.0
 10
695.8145659167603
 20
-440.8425065156644
 30
0.0
 10
686.5324593885289
 20
-422.8922991908821
 30
0.0
 10
685.8000469849339
 20
-421.6716118515578
 30
0.0
 10
685.1897033152709
 20
-420.4509245122317
 30
0.0
 10
684.5793596456078
 20
-419.3510852194995
 30
0.0
 10
692.8342577777967
 20
-407.2072298101375
 30
0.0
 10
700.4492105723439
 20
-394.6349131446714
 30
0.0
 10
706.9624930431492
 20
-381.1965188119539
 30
0.0
 10
706.9457085922331
 20
-381.7430815681382
 30
0.0
 10
706.9243465637956
 20
-382.2954425891821
 30
0.0
 10
706.9081724565494
 20
-382.8415475876136
 30
0.0
 10
706.2978287868864
 20
-400.9138236463277
 30
0.0
 10
704.5888665118309
 20
-427.7762692355245
 30
0.0
 10
720.8288908742179
 20
-440.2321628460013
 30
0.0
 10
724.8596004686697
 20
-443.1618124603829
 30
0.0
 10
729.4982123581067
 20
-444.7499266888444
 30
0.0
 10
734.1392656222233
 20
-444.7499266888444
 30
0.0
 10
751.7946769545579
 20
-444.7499266888444
 30
0.0
 10
762.3578948454106
 20
-423.5371272778812
 30
0.0
 10
768.9511323369425
 20
-401.1341577110761
 30
0.0
 10
770.0897284526982
 20
-413.416866305286
 30
0.0
 10
772.6080064337257
 20
-425.6458646565661
 30
0.0
 10
778.4550987890962
 20
-436.0806052049556
 30
0.0
 10
781.0185422016784
 20
-440.7204377817307
 30
0.0
 10
792.8616507678144
 20
-440.1100941120694
 30
0.0
 10
794.0847794818183
 20
-434.614559710426
 30
0.0
 10
800.5544223802444
 20
-406.4081373606314
 30
0.0
 10
807.7589190569433
 20
-377.9575775429712
 30
0.0
 10
815.3296219354397
 20
-350.1173613949759
 30
0.0
 10
819.1161940620277
 20
-336.5628491791049
 30
0.0
 10
823.1444622818017
 20
-323.0095576505737
 30
0.0
 10
828.6399966834451
 20
-310.0653891043657
 30
0.0
 10
831.2034400960292
 20
-304.0828004543328
 30
0.0
 10
833.7693248832911
 20
-298.2210598508918
 30
0.0
 10
837.3093181673357
 20
-292.6046774026545
 30
0.0
 10
838.0417305709307
 20
-291.3839900633284
 30
0.0
 10
839.262417910255
 20
-289.3076008991375
 30
0.0
 10
840.6076153581926
 20
-286.9870742670792
 30
0.0
 10
840.6076153581926
 20
-287.4753492028085
 30
0.0
 10
840.6076153581926
 20
-287.9648448258777
 30
0.0
 10
840.7296840921244
 20
-288.4531197616088
 30
0.0
 10
841.0958902939219
 20
-294.5577771455755
 30
0.0
 10
841.0958902939219
 20
-300.7857239508139
 30
0.0
 10
841.0958902939219
 20
-307.0136707560523
 30
0.0
 10
824.3651496211278
 20
-411.4141761392057
 30
0.0
 10
825.1000033994005
 20
-454.15166057633
 30
0.0
 10
837.4313869012676
 20
-472.346005368976
 30
0.0
 10
843.1710587707767
 20
-479.0622271099455
 30
0.0
 10
851.9624489885973
 20
-481.7477392564615
 30
0.0
 10
860.6317704724879
 20
-480.6491206510673
 30
0.0
 10
865.6390299384002
 20
-480.038776981406
 30
0.0
 10
872.3552516793698
 20
-478.2065252850771
 30
0.0
 10
871.5007705418429
 20
-472.1018679011104
 30
0.0
  0
SPLINE
  5
4E
330
41
100
AcDbEntity
  8
Layer 1
370
     0
100
AcDbSpline
210
0.0
220
0.0
230
1.0
 70
    11
 71
     3
 72
    41
 73
    37
 74
     0
 42
0.0000000001
 43
0.0000000001
 12
1.0
 22
0.0
 32
0.0
 13
1.0
 23
0.0
 33
0.0
 40
0.0
 40
0.0
 40
0.0
 40
0.0
 40
1.0
 40
1.0
 40
1.0
 40
2.0
 40
2.0
 40
2.0
 40
3.0
 40
3.0
 40
3.0
 40
4.0
 40
4.0
 40
4.0
 40
5.0
 40
5.0
 40
5.0
 40
6.0
 40
6.0
 40
6.0
 40
7.0
 40
7.0
 40
7.0
 40
8.0
 40
8.0
 40
8.0
 40
9.0
 40
9.0
 40
9.0
 40
10.0
 40
10.0
 40
10.0
 40
11.0
 40
11.0
 40
11.0
 40
12.0
 40
12.0
 40
12.0
 40
12.0
 10
529.517888305767
 20
-379.5444710840948
 30
0.0
 10
527.0765136271166
 20
-388.4579300358491
 30
0.0
 10
524.5106288398529
 20
-397.3726096749433
 30
0.0
 10
521.3368417576075
 20
-406.0419311588339
 30
0.0
 10
519.9940856843496
 20
-409.5831451302165
 30
0.0
 10
516.4516510256271
 20
-419.9614288891626
 30
0.0
 10
512.1792453379876
 20
-425.9452382265354
 30
0.0
 10
510.7144205307977
 20
-422.0378180533553
 30
0.0
 10
509.8574980185895
 20
-417.031779274781
 30
0.0
 10
509.6133605507257
 20
-415.0774588445202
 30
0.0
 10
508.5147419453315
 20
-408.4833058374843
 30
0.0
 10
508.2706044774677
 20
-401.6462360499227
 30
0.0
 10
508.2706044774677
 20
-394.9300143089531
 30
0.0
 10
508.2706044774677
 20
-379.9106772858922
 30
0.0
 10
510.4702830629321
 20
-364.7692715288995
 30
0.0
 10
514.8647574845036
 20
-350.3614988628397
 30
0.0
 10
516.8178572274246
 20
-343.7673458558038
 30
0.0
 10
519.2616732807546
 20
-337.2952615826998
 30
0.0
 10
522.1913228951344
 20
-330.9464667308694
 30
0.0
 10
523.5340789683924
 20
-327.8935276952161
 30
0.0
 10
524.998903775584
 20
-324.8405886595629
 30
0.0
 10
526.5882386913854
 20
-322.0317870917752
 30
0.0
 10
527.5647885628459
 20
-320.3228248167179
 30
0.0
 10
528.5413384343065
 20
-318.4905731203908
 30
0.0
 10
529.7620257736326
 20
-316.6595421114034
 30
0.0
 10
530.4944381772275
 20
-317.6360919828639
 30
0.0
 10
531.3489193147543
 20
-318.6126418543245
 30
0.0
 10
531.9592629844174
 20
-319.590412413123
 30
0.0
 10
533.7927353680843
 20
-322.1538558257071
 30
0.0
 10
535.1354914413423
 20
-325.0847261274266
 30
0.0
 10
536.7223849824659
 20
-327.7714589612824
 30
0.0
 10
537.5768661199927
 20
-329.358352502406
 30
0.0
 10
538.3092785235895
 20
-330.9464667308694
 30
0.0
 10
538.9196221932525
 20
-332.5333602719911
 30
0.0
 10
536.3561787806684
 20
-348.2851096986469
 30
0.0
 10
533.914804102018
 20
-364.1589278592364
 30
0.0
 10
529.517888305767
 20
-379.5444710840948
 30
0.0
  0
SPLINE
  5
4F
330
41
100
AcDbEntity
  8
Layer 1
370
     0
100
AcDbSpline
210
0.0
220
0.0
230
1.0
 70
    11
 71
     3
 72
    20
 73
    16
 74
     0
 42
0.0000000001
 43
0.0000000001
 12
1.0
 22
0.0
 32
0.0
 13
1.0
 23
0.0
 33
0.0
 40
0.0
 40
0.0
 40
0.0
 40
0.0
 40
1.0
 40
1.0
 40
1.0
 40
2.0
 40
2.0
 40
2.0
 40
3.0
 40
3.0
 40
3.0
 40
4.0
 40
4.0
 40
4.0
 40
5.0
 40
5.0
 40
5.0
 40
5.0
 10
610.3395970425099
 20
-573.6947924038177
 30
0.0
 10
590.6792067553342
 20
-577.6022125769978
 30
0.0
 10
607.6516435213161
 20
-539.6266294505785
 30
0.0
 10
611.4382156479023
 20
-530.9573079666898
 30
0.0
 10
625.3589340655708
 20
-499.6979465812419
 30
0.0
 10
645.2610204459343
 20
-472.4680741029078
 30
0.0
 10
665.2876169349074
 20
-446.0926827621024
 30
0.0
 10
667.2407166778285
 20
-443.5280186621803
 30
0.0
 10
669.0717476868176
 20
-440.9645752495962
 30
0.0
 10
670.902778695805
 20
-438.3999111496742
 30
0.0
 10
671.3934950062139
 20
-440.7204377817307
 30
0.0
 10
671.6376324740795
 20
-443.0397437264492
 30
0.0
 10
671.6376324740795
 20
-445.3602703585075
 30
0.0
 10
673.2245260152013
 20
-480.038776981406
 30
0.0
 10
644.1624018405419
 20
-566.8565019289163
 30
0.0
 10
610.3395970425099
 20
-573.6947924038177
 30
0.0
  0
HATCH
  5
50
330
41
100
AcDbEntity
  8
Layer 1
 62
     7
420
 16777215
100
AcDbHatch
 10
0.0
 20
0.0
 30
0.0
210
0.0
220
0.0
230
1.0
  2
SOLID
 70
     1
 71
     0
 91
        3
 92
        1
 93
        1
 72
     4
 94
        3
 73
     0
 74
     1
 95
      263
 96
      259
 40
0.0
 40
0.0
 40
0.0
 40
0.0
 40
1.0
 40
1.0
 40
1.0
 40
2.0
 40
2.0
 40
2.0
 40
3.0
 40
3.0
 40
3.0
 40
4.0
 40
4.0
 40
4.0
 40
5.0
 40
5.0
 40
5.0
 40
6.0
 40
6.0
 40
6.0
 40
7.0
 40
7.0
 40
7.0
 40
8.0
 40
8.0
 40
8.0
 40
9.0
 40
9.0
 40
9.0
 40
10.0
 40
10.0
 40
10.0
 40
11.0
 40
11.0
 40
11.0
 40
12.0
 40
12.0
 40
12.0
 40
13.0
 40
13.0
 40
13.0
 40
14.0
 40
14.0
 40
14.0
 40
15.0
 40
15.0
 40
15.0
 40
16.0
 40
16.0
 40
16.0
 40
17.0
 40
17.0
 40
17.0
 40
18.0
 40
18.0
 40
18.0
 40
19.0
 40
19.0
 40
19.0
 40
20.0
 40
20.0
 40
20.0
 40
21.0
 40
21.0
 40
21.0
 40
22.0
 40
22.0
 40
22.0
 40
23.0
 40
23.0
 40
23.0
 40
24.0
 40
24.0
 40
24.0
 40
25.0
 40
25.0
 40
25.0
 40
26.0
 40
26.0
 40
26.0
 40
27.0
 40
27.0
 40
27.0
 40
28.0
 40
28.0
 40
28.0
 40
29.0
 40
29.0
 40
29.0
 40
30.0
 40
30.0
 40
30.0
 40
31.0
 40
31.0
 40
31.0
 40
32.0
 40
32.0
 40
32.0
 40
33.0
 40
33.0
 40
33.0
 40
34.0
 40
34.0
 40
34.0
 40
35.0
 40
35.0
 40
35.0
 40
36.0
 40
36.0
 40
36.0
 40
37.0
 40
37.0
 40
37.0
 40
38.0
 40
38.0
 40
38.0
 40
39.0
 40
39.0
 40
39.0
 40
40.0
 40
40.0
 40
40.0
 40
41.0
 40
41.0
 40
41.0
 40
42.0
 40
42.0
 40
42.0
 40
43.0
 40
43.0
 40
43.0
 40
44.0
 40
44.0
 40
44.0
 40
45.0
 40
45.0
 40
45.0
 40
46.0
 40
46.0
 40
46.0
 40
47.0
 40
47.0
 40
47.0
 40
48.0
 40
48.0
 40
48.0
 40
49.0
 40
49.0
 40
49.0
 40
50.0
 40
50.0
 40
50.0
 40
51.0
 40
51.0
 40
51.0
 40
52.0
 40
52.0
 40
52.0
 40
53.0
 40
53.0
 40
53.0
 40
54.0
 40
54.0
 40
54.0
 40
55.0
 40
55.0
 40
55.0
 40
56.0
 40
56.0
 40
56.0
 40
57.0
 40
57.0
 40
57.0
 40
58.0
 40
58.0
 40
58.0
 40
59.0
 40
59.0
 40
59.0
 40
60.0
 40
60.0
 40
60.0
 40
61.0
 40
61.0
 40
61.0
 40
62.0
 40
62.0
 40
62.0
 40
63.0
 40
63.0
 40
63.0
 40
64.0
 40
64.0
 40
64.0
 40
65.0
 40
65.0
 40
65.0
 40
66.0
 40
66.0
 40
66.0
 40
67.0
 40
67.0
 40
67.0
 40
68.0
 40
68.0
 40
68.0
 40
69.0
 40
69.0
 40
69.0
 40
70.0
 40
70.0
 40
70.0
 40
71.0
 40
71.0
 40
71.0
 40
72.0
 40
72.0
 40
72.0
 40
73.0
 40
73.0
 40
73.0
 40
74.0
 40
74.0
 40
74.0
 40
75.0
 40
75.0
 40
75.0
 40
76.0
 40
76.0
 40
76.0
 40
77.0
 40
77.0
 40
77.0
 40
78.0
 40
78.0
 40
78.0
 40
79.0
 40
79.0
 40
79.0
 40
80.0
 40
80.0
 40
80.0
 40
81.0
 40
81.0
 40
81.0
 40
82.0
 40
82.0
 40
82.0
 40
83.0
 40
83.0
 40
83.0
 40
84.0
 40
84.0
 40
84.0
 40
85.0
 40
85.0
 40
85.0
 40
86.0
 40
86.0
 40
86.0
 40
86.0
 10
871.5007705418429
 20
-472.1018679011104
 10
871.1321229653659
 20
-469.9034100029858
 10
867.5921296813212
 20
-470.2696162047832
 10
866.2493736080633
 20
-470.6358224065807
 10
835.3562184244147
 20
-457.448737079847
 10
858.9228081974325
 20
-355.7337438432114
 10
864.4183425990759
 20
-310.1874578382995
 10
865.3948924705364
 20
-301.8843425562063
 10
866.1273048741314
 20
-286.1325931295505
 10
862.0965952796778
 20
-275.6310199493346
 10
860.509701738556
 20
-271.7235997761527
 10
848.4224557045545
 20
-263.9087594297907
 10
843.048990036843
 20
-264.8865299885911
 10
834.1355310850886
 20
-266.5954922636465
 10
828.3958592155795
 20
-276.2425843063356
 10
824.4872183550597
 20
-285.0339745241581
 10
817.6513692548378
 20
-300.663655216882
 10
811.0572162478002
 20
-316.4154046435378
 10
805.9278880479542
 20
-332.6554290059248
 10
800.3102849123788
 20
-350.4835675967734
 10
796.5261541604705
 20
-368.7987604360133
 10
792.2513070981513
 20
-387.1151739625911
 10
792.1292383642194
 20
-384.1843036608716
 10
791.8851008963538
 20
-381.2534333591502
 10
791.763032162422
 20
-378.3237837447687
 10
790.6644135570295
 20
-358.1763392092016
 10
790.6644135570295
 20
-339.3716507468926
 10
792.0071696302875
 20
-317.5140232489302
 10
792.4954445660169
 20
-309.088839232907
 10
776.4995576714955
 20
-312.5079844703578
 10
774.79059539644
 20
-317.2698857810665
 10
771.2506021123972
 20
-327.2831840255531
 10
767.8302361876067
 20
-353.6573546790187
 10
767.9523049215386
 20
-377.5913713411737
 10
767.9718359189683
 20
-379.1349304817504
 10
767.9968600094253
 20
-380.7029033691142
 10
768.0255461618981
 20
-382.2803365833588
 10
762.4872877033795
 20
-404.7904214641894
 10
752.6418339680495
 20
-434.1514614510688
 10
740.6113498953273
 20
-433.8821473068292
 10
734.2613343561552
 20
-433.7600785728973
 10
731.5758222096392
 20
-418.2524666141071
 10
730.8409684313647
 20
-413.7347027712622
 10
728.0333875509168
 20
-396.7610453179423
 10
729.8644185599042
 20
-379.0561961483654
 10
730.4747622295672
 20
-361.9616906484498
 10
730.7188996974328
 20
-353.2911484772212
 10
732.1861658793023
 20
-329.7245587042034
 10
731.8199596775048
 20
-320.933168486381
 10
731.8199596775048
 20
-320.5669622845835
 10
731.8199596775048
 20
-320.0786873488541
 10
731.8199596775048
 20
-319.7124811470567
 10
737.0689152366049
 20
-319.3462749452592
 10
739.2685938220693
 20
-318.2464356525252
 10
739.1465250881356
 20
-315.4388547720773
 10
739.0244563542037
 20
-311.6535033328291
 10
730.7188996974328
 20
-309.9433203704339
 10
720.2185472045549
 20
-309.9433203704339
 10
709.7181947116769
 20
-309.9433203704339
 10
701.17094196172
 20
-310.431595306165
 10
701.17094196172
 20
-315.4388547720773
 10
701.17094196172
 20
-318.6126418543245
 10
705.199210181494
 20
-319.8345498809886
 10
709.4740572438113
 20
-319.9566186149204
 10
709.4740572438113
 20
-320.3228248167179
 10
709.3519885098794
 20
-320.8110997524491
 10
709.3519885098794
 20
-321.1773059542465
 10
709.3519885098794
 20
-327.4052527594849
 10
708.3754386384189
 20
-339.3716507468926
 10
708.1313011705533
 20
-345.598376864793
 10
708.0183875916664
 20
-349.4446100850892
 10
707.8831964688361
 20
-353.2847398686899
 10
707.7534984390331
 20
-357.1271584410515
 10
707.6704916999588
 20
-357.2670797273222
 10
707.5862642735447
 20
-357.406695841757
 10
707.5356057489626
 20
-357.5647748522006
 10
701.3076589437242
 20
-378.4458524787024
 10
691.4176501205093
 20
-396.5169078500767
 10
680.1848852240364
 20
-413.4905653033984
 10
670.6586412279394
 20
-402.9889921231807
 10
657.4727765885455
 20
-400.3022592893249
 10
644.8948142441368
 20
-403.2331295910462
 10
646.7258452531241
 20
-398.9595032160669
 10
648.4372489028592
 20
-394.5638081071556
 10
649.9020737100491
 20
-390.0460442643125
 10
657.106570386748
 20
-369.532393526948
 10
663.4565859259201
 20
-340.2261318844212
 10
654.9068918012836
 20
-318.9800687434599
 10
647.2141201888553
 20
-299.320899143624
 10
624.5044529280422
 20
-299.5650366114878
 10
610.4616657764418
 20
-314.8285111024143
 10
604.3557877051371
 20
-321.543512156044
 10
592.1440315625241
 20
-344.8659644611962
 10
592.1440315625241
 20
-358.6646141449328
 10
592.1440315625241
 20
-359.8645497994894
 10
592.7415580151246
 20
-360.9845304333212
 10
593.5765081552236
 20
-361.9455165412037
 10
591.0805077181376
 20
-373.7352200362457
 10
587.592088474179
 20
-385.1965586370061
 10
582.7569459231108
 20
-396.2727703822111
 10
579.5807174661859
 20
-403.5993357928437
 10
576.0407241821431
 20
-410.6817637356089
 10
571.5217396519602
 20
-417.2759167426466
 10
570.1789835787022
 20
-419.4731539534314
 10
568.5920900375786
 20
-421.5495431176241
 10
566.8831277625231
 20
-423.624711594477
 10
566.394852826792
 20
-422.0378180533553
 10
565.9065778910626
 20
-420.32763509096
 10
565.7845091571289
 20
-418.6186728159046
 10
559.1903561500931
 20
-385.0387847983984
 10
562.2420744984065
 20
-349.8720032397705
 10
564.8079592856702
 20
-315.9271297078085
 10
565.1741654874677
 20
-310.5536640400969
 10
555.6479214913707
 20
-308.9667704989733
 10
548.6875622825373
 20
-310.7978015079625
 10
548.3213560807399
 20
-310.3095265722313
 10
548.0772186128743
 20
-309.9433203704339
 10
547.7110124110768
 20
-309.5771141686364
 10
539.1637596611163
 20
-300.1753802811509
 10
522.3133916290681
 20
-301.0298614186795
 10
512.9116577415825
 20
-308.6005642971759
 10
500.5778328650376
 20
-318.3685043864589
 10
494.9626711041401
 20
-338.1497427202285
 10
491.0540302436202
 20
-352.5587360736263
 10
486.5374870881169
 20
-369.4091041056763
 10
484.4598772365844
 20
-386.6268990268618
 10
485.4364271080449
 20
-403.9655419946412
 10
486.1688395116398
 20
-417.1538480087129
 10
487.7581744274412
 20
-434.7366284443578
 10
501.9205889382956
 20
-440.3542315799332
 10
518.0409859414285
 20
-446.5809576978336
 10
528.2972009664409
 20
-434.4924909764923
 10
534.2810103038155
 20
-421.1833369158267
 10
536.4782475146003
 20
-416.2981461838463
 10
538.4313472575213
 20
-411.1700386713401
 10
540.0182407986449
 20
-405.9198624249002
 10
541.238928137971
 20
-419.2290164855658
 10
544.7813627966952
 20
-432.9055974353687
 10
556.746540096763
 20
-436.2026739388875
 10
576.4069303839406
 20
-441.5749189192593
 10
582.8790146570445
 20
-423.5026428605452
 10
588.1279702161428
 20
-408.7286639926897
 10
593.229832950854
 20
-394.4975858189973
 10
596.6816315746328
 20
-379.6088623412452
 10
599.1281941744746
 20
-364.6424726315272
 10
599.4516763193969
 20
-364.5855580843308
 10
599.7382326723036
 20
-364.4724919195251
 10
599.9588719088861
 20
-364.2809965931683
 10
599.9588719088861
 20
-364.2809965931683
 10
613.3913153908234
 20
-335.83043677551
 10
621.0840870032534
 20
-325.9392072649553
 10
623.0371867461745
 20
-323.3757638523712
 10
627.4341025424237
 20
-319.3462749452592
 10
630.485820890739
 20
-318.7347105882563
 10
633.7841180815958
 20
-317.6360919828639
 10
636.2254927602462
 20
-324.1081762559679
 10
636.7137676959774
 20
-326.3054134667527
 10
638.6668674388966
 20
-334.8538869040494
 10
638.6668674388966
 20
-344.4997582593987
 10
637.9344550353017
 20
-353.4132172111549
 10
636.3475614941781
 20
-372.7061806091933
 10
629.9975459550078
 20
-390.9005254018393
 10
621.9385681407803
 20
-407.8729621678212
 10
618.1544373888719
 20
-416.0540087159807
 10
613.7575215926208
 20
-424.1129865302082
 10
609.2409784371175
 20
-431.9278268765702
 10
605.6985437783951
 20
-438.0337049478767
 10
599.2264595052911
 20
-444.383720487047
 10
601.5482068246874
 20
-451.9544233655433
 10
603.135100365811
 20
-456.5942559423202
 10
611.1940781800386
 20
-455.0061417138568
 10
613.8795903265545
 20
-453.6633856405988
 10
620.717880801456
 20
-450.1221716692162
 10
625.4810027995045
 20
-441.8190563871249
 10
629.6313397532103
 20
-433.7600785728973
 10
634.2723930173252
 20
-428.8761085282567
 10
638.9110049067622
 20
-423.9909177962763
 10
644.7727455102031
 20
-419.5952226873651
 10
651.977242186902
 20
-414.2229777069933
 10
657.716914056411
 20
-413.4905653033984
 10
663.7007233937838
 20
-421.0612681818948
 10
665.8979606045705
 20
-423.7467803284108
 10
667.6069228796259
 20
-426.799719364064
 10
668.827610218952
 20
-429.9747271336491
 10
661.2569073404557
 20
-440.2321628460013
 10
653.5641357280256
 20
-450.3663091370818
 10
645.9934328495292
 20
-460.6237448494339
 10
633.6620493476621
 20
-477.3520441475503
 10
622.3047743425777
 20
-494.6919078026694
 10
612.1706280514991
 20
-513.1291693758412
 10
606.9192311177194
 20
-523.1424676203278
 10
601.792344292553
 20
-533.2766139114083
 10
598.005772165965
 20
-544.0223245594934
 10
595.0761225515835
 20
-551.7150961719217
 10
591.8998940946585
 20
-560.3844176558123
 10
593.0009540747305
 20
-568.932891093109
 10
594.9540538176516
 20
-585.1729154554941
 10
610.3395970425099
 20
-583.95100742883
 10
620.9620182693216
 20
-579.5553123199188
 10
637.3241113656404
 20
-572.5949531110855
 10
651.2448297833071
 20
-558.1871804450257
 10
661.745182276185
 20
-542.5574997523017
 10
673.346594749135
 20
-524.973498629317
 10
681.5276412972944
 20
-503.6053667544238
 10
686.6569694971404
 20
-482.3580829261246
 10
691.2955813865774
 20
-463.6766838850872
 10
695.8145659167603
 20
-440.8425065156644
 10
686.5324593885289
 20
-422.8922991908821
 10
685.8000469849339
 20
-421.6716118515578
 10
685.1897033152709
 20
-420.4509245122317
 10
684.5793596456078
 20
-419.3510852194995
 10
692.8342577777967
 20
-407.2072298101375
 10
700.4492105723439
 20
-394.6349131446714
 10
706.9624930431492
 20
-381.1965188119539
 10
706.9457085922331
 20
-381.7430815681382
 10
706.9243465637956
 20
-382.2954425891821
 10
706.9081724565494
 20
-382.8415475876136
 10
706.2978287868864
 20
-400.9138236463277
 10
704.5888665118309
 20
-427.7762692355245
 10
720.8288908742179
 20
-440.2321628460013
 10
724.8596004686697
 20
-443.1618124603829
 10
729.4982123581067
 20
-444.7499266888444
 10
734.1392656222233
 20
-444.7499266888444
 10
751.7946769545579
 20
-444.7499266888444
 10
762.3578948454106
 20
-423.5371272778812
 10
768.9511323369425
 20
-401.1341577110761
 10
770.0897284526982
 20
-413.416866305286
 10
772.6080064337257
 20
-425.6458646565661
 10
778.4550987890962
 20
-436.0806052049556
 10
781.0185422016784
 20
-440.7204377817307
 10
792.8616507678144
 20
-440.1100941120694
 10
794.0847794818183
 20
-434.614559710426
 10
800.5544223802444
 20
-406.4081373606314
 10
807.7589190569433
 20
-377.9575775429712
 10
815.3296219354397
 20
-350.1173613949759
 10
819.1161940620277
 20
-336.5628491791049
 10
823.1444622818017
 20
-323.0095576505737
 10
828.6399966834451
 20
-310.0653891043657
 10
831.2034400960292
 20
-304.0828004543328
 10
833.7693248832911
 20
-298.2210598508918
 10
837.3093181673357
 20
-292.6046774026545
 10
838.0417305709307
 20
-291.3839900633284
 10
839.262417910255
 20
-289.3076008991375
 10
840.6076153581926
 20
-286.9870742670792
 10
840.6076153581926
 20
-287.4753492028085
 10
840.6076153581926
 20
-287.9648448258777
 10
840.7296840921244
 20
-288.4531197616088
 10
841.0958902939219
 20
-294.5577771455755
 10
841.0958902939219
 20
-300.7857239508139
 10
841.0958902939219
 20
-307.0136707560523
 10
824.3651496211278
 20
-411.4141761392057
 10
825.1000033994005
 20
-454.15166057633
 10
837.4313869012676
 20
-472.346005368976
 10
843.1710587707767
 20
-479.0622271099455
 10
851.9624489885973
 20
-481.7477392564615
 10
860.6317704724879
 20
-480.6491206510673
 10
865.6390299384002
 20
-480.038776981406
 10
872.3552516793698
 20
-478.2065252850771
 10
871.5007705418429
 20
-472.1018679011104
 97
        0
 97
        0
 92
        1
 93
        1
 72
     4
 94
        3
 73
     0
 74
     1
 95
       41
 96
       37
 40
0.0
 40
0.0
 40
0.0
 40
0.0
 40
1.0
 40
1.0
 40
1.0
 40
2.0
 40
2.0
 40
2.0
 40
3.0
 40
3.0
 40
3.0
 40
4.0
 40
4.0
 40
4.0
 40
5.0
 40
5.0
 40
5.0
 40
6.0
 40
6.0
 40
6.0
 40
7.0
 40
7.0
 40
7.0
 40
8.0
 40
8.0
 40
8.0
 40
9.0
 40
9.0
 40
9.0
 40
10.0
 40
10.0
 40
10.0
 40
11.0
 40
11.0
 40
11.0
 40
12.0
 40
12.0
 40
12.0
 40
12.0
 10
529.517888305767
 20
-379.5444710840948
 10
527.0765136271166
 20
-388.4579300358491
 10
524.5106288398529
 20
-397.3726096749433
 10
521.3368417576075
 20
-406.0419311588339
 10
519.9940856843496
 20
-409.5831451302165
 10
516.4516510256271
 20
-419.9614288891626
 10
512.1792453379876
 20
-425.9452382265354
 10
510.7144205307977
 20
-422.0378180533553
 10
509.8574980185895
 20
-417.031779274781
 10
509.6133605507257
 20
-415.0774588445202
 10
508.5147419453315
 20
-408.4833058374843
 10
508.2706044774677
 20
-401.6462360499227
 10
508.2706044774677
 20
-394.9300143089531
 10
508.2706044774677
 20
-379.9106772858922
 10
510.4702830629321
 20
-364.7692715288995
 10
514.8647574845036
 20
-350.3614988628397
 10
516.8178572274246
 20
-343.7673458558038
 10
519.2616732807546
 20
-337.2952615826998
 10
522.1913228951344
 20
-330.9464667308694
 10
523.5340789683924
 20
-327.8935276952161
 10
524.998903775584
 20
-324.8405886595629
 10
526.5882386913854
 20
-322.0317870917752
 10
527.5647885628459
 20
-320.3228248167179
 10
528.5413384343065
 20
-318.4905731203908
 10
529.7620257736326
 20
-316.6595421114034
 10
530.4944381772275
 20
-317.6360919828639
 10
531.3489193147543
 20
-318.6126418543245
 10
531.9592629844174
 20
-319.590412413123
 10
533.7927353680843
 20
-322.1538558257071
 10
535.1354914413423
 20
-325.0847261274266
 10
536.7223849824659
 20
-327.7714589612824
 10
537.5768661199927
 20
-329.358352502406
 10
538.3092785235895
 20
-330.9464667308694
 10
538.9196221932525
 20
-332.5333602719911
 10
536.3561787806684
 20
-348.2851096986469
 10
533.914804102018
 20
-364.1589278592364
 10
529.517888305767
 20
-379.5444710840948
 97
        0
 97
        0
 92
        1
 93
        1
 72
     4
 94
        3
 73
     0
 74
     1
 95
       20
 96
       16
 40
0.0
 40
0.0
 40
0.0
 40
0.0
 40
1.0
 40
1.0
 40
1.0
 40
2.0
 40
2.0
 40
2.0
 40
3.0
 40
3.0
 40
3.0
 40
4.0
 40
4.0
 40
4.0
 40
5.0
 40
5.0
 40
5.0
 40
5.0
 10
610.3395970425099
 20
-573.6947924038177
 10
590.6792067553342
 20
-577.6022125769978
 10
607.6516435213161
 20
-539.6266294505785
 10
611.4382156479023
 20
-530.9573079666898
 10
625.3589340655708
 20
-499.6979465812419
 10
645.2610204459343
 20
-472.4680741029078
 10
665.2876169349074
 20
-446.0926827621024
 10
667.2407166778285
 20
-443.5280186621803
 10
669.0717476868176
 20
-440.9645752495962
 10
670.902778695805
 20
-438.3999111496742
 10
671.3934950062139
 20
-440.7204377817307
 10
671.6376324740795
 20
-443.0397437264492
 10
671.6376324740795
 20
-445.3602703585075
 10
673.2245260152013
 20
-480.038776981406
 10
644.1624018405419
 20
-566.8565019289163
 10
610.3395970425099
 20
-573.6947924038177
 97
        0
 97
        0
 75
     2
 76
     1
 98
        0
  0
SPLINE
  5
51
330
41
100
AcDbEntity
  8
Layer 1
370
     0
100
AcDbSpline
210
0.0
220
0.0
230
1.0
 70
    11
 71
     3
 72
    74
 73
    70
 74
     0
 42
0.0000000001
 43
0.0000000001
 12
1.0
 22
0.0
 32
0.0
 13
1.0
 23
0.0
 33
0.0
 40
0.0
 40
0.0
 40
0.0
 40
0.0
 40
1.0
 40
1.0
 40
1.0
 40
2.0
 40
2.0
 40
2.0
 40
3.0
 40
3.0
 40
3.0
 40
4.0
 40
4.0
 40
4.0
 40
5.0
 40
5.0
 40
5.0
 40
6.0
 40
6.0
 40
6.0
 40
7.0
 40
7.0
 40
7.0
 40
8.0
 40
8.0
 40
8.0
 40
9.0
 40
9.0
 40
9.0
 40
10.0
 40
10.0
 40
10.0
 40
11.0
 40
11.0
 40
11.0
 40
12.0
 40
12.0
 40
12.0
 40
13.0
 40
13.0
 40
13.0
 40
14.0
 40
14.0
 40
14.0
 40
15.0
 40
15.0
 40
15.0
 40
16.0
 40
16.0
 40
16.0
 40
17.0
 40
17.0
 40
17.0
 40
18.0
 40
18.0
 40
18.0
 40
19.0
 40
19.0
 40
19.0
 40
20.0
 40
20.0
 40
20.0
 40
21.0
 40
21.0
 40
21.0
 40
22.0
 40
22.0
 40
22.0
 40
23.0
 40
23.0
 40
23.0
 40
23.0
 10
977.9617961537751
 20
-351.3380487343002
 30
0.0
 10
970.8793682110081
 20
-369.8985997287455
 30
0.0
 10
962.2100467271193
 20
-385.5282804214694
 30
0.0
 10
951.953831702107
 20
-401.4020985820571
 30
0.0
 10
949.3903882895229
 20
-405.4315874891709
 30
0.0
 10
946.5803660343954
 20
-409.3390076623509
 30
0.0
 10
943.6507164200139
 20
-413.1243591015991
 30
0.0
 10
944.5051975575425
 20
-379.5444710840948
 30
0.0
 10
944.7493350254081
 20
-345.9645830665904
 30
0.0
 10
944.7493350254081
 20
-312.5079844703578
 30
0.0
 10
944.7493350254081
 20
-305.5476252615226
 30
0.0
 10
928.1431044612236
 20
-304.6931441239958
 30
0.0
 10
923.2579137292432
 20
-309.821251636502
 30
0.0
 10
920.9386077845247
 20
-307.6240144257154
 30
0.0
 10
918.0089581701432
 20
-305.7917627293882
 30
0.0
 10
913.9782485756914
 20
-304.6931441239958
 30
0.0
 10
903.4778960828116
 20
-301.7622738222744
 30
0.0
 10
891.3882086741323
 20
-304.9372815918596
 30
0.0
 10
883.9395745295697
 20
-313.118328140019
 30
0.0
 10
874.7819781099497
 20
-323.3757638523712
 30
0.0
 10
871.8523284955681
 20
-339.9819944165556
 30
0.0
 10
869.1643749743725
 20
-353.0470110093556
 30
0.0
 10
866.1126566260591
 20
-369.1649666378107
 30
0.0
 10
865.1361067545986
 20
-385.6503491554013
 30
0.0
 10
866.6009315617885
 20
-402.0124422517201
 30
0.0
 10
867.5774814332508
 20
-413.3684965694647
 30
0.0
 10
870.1433662205127
 20
-425.2128258229404
 30
0.0
 10
882.5968184563098
 20
-428.754039794323
 30
0.0
 10
893.9540934613942
 20
-431.9278268765702
 30
0.0
 10
904.5765146882059
 20
-427.2879942997934
 30
0.0
 10
910.1941178237812
 20
-417.2759167426466
 30
0.0
 10
914.5885922453526
 20
-409.4610763962846
 30
0.0
 10
917.8868894362113
 20
-400.9138236463277
 30
0.0
 10
920.6944703166591
 20
-392.2432814750973
 30
0.0
 10
920.5724015827273
 20
-399.6919156196618
 30
0.0
 10
920.4503328487936
 20
-407.1405497642263
 30
0.0
 10
920.3282641148617
 20
-414.5891839087908
 30
0.0
 10
920.0841266469961
 20
-423.2585053926796
 30
0.0
 10
919.9620579130642
 20
-431.9278268765702
 30
0.0
 10
919.8399891791305
 20
-440.7204377817307
 30
0.0
 10
918.3751643719406
 20
-442.4294000567879
 30
0.0
 10
916.9103395647508
 20
-444.1395830191814
 30
0.0
 10
915.4430733828813
 20
-445.8485452942368
 30
0.0
 10
903.9661710185428
 20
-459.1576993549043
 30
0.0
 10
892.6088960134584
 20
-472.346005368976
 30
0.0
 10
882.7188871902435
 20
-486.7549987223738
 30
0.0
 10
873.5612907706236
 20
-500.0641527830394
 30
0.0
 10
864.7699005528011
 20
-515.4496960078995
 30
0.0
 10
865.3802442224642
 20
-532.1779953060159
 30
0.0
 10
865.7464504242616
 20
-544.6326682291565
 30
0.0
 10
872.5847408991631
 20
-557.3326993074988
 30
0.0
 10
883.9395745295697
 20
-563.3152879575318
 30
0.0
 10
896.2733994061127
 20
-569.7873722306358
 30
0.0
 10
913.4899736399602
 20
-564.0477003611268
 30
0.0
 10
922.4034325917146
 20
-554.2797602718456
 30
0.0
 10
933.3945013950015
 20
-542.1912935505043
 30
0.0
 10
936.6903572111805
 20
-524.1190174917883
 30
0.0
 10
938.7655256880334
 20
-508.3672680651325
 30
0.0
 10
941.2093417413635
 20
-489.196373401026
 30
0.0
 10
941.6976166770946
 20
-469.6592725351202
 30
0.0
 10
942.5520978146214
 20
-450.3663091370818
 30
0.0
 10
942.796235282487
 20
-441.5749189192593
 30
0.0
 10
943.0403727503508
 20
-432.7835287014368
 30
0.0
 10
943.2845102182164
 20
-423.9909177962763
 30
0.0
 10
968.1938560644921
 20
-391.022594135773
 30
0.0
 10
978.6942085573701
 20
-367.2118668948897
 30
0.0
 10
982.1145744821606
 20
-352.4366673396944
 30
0.0
 10
982.3587119500262
 20
-351.4601174682339
 30
0.0
 10
978.3280023555726
 20
-350.6056363307052
 30
0.0
 10
977.9617961537751
 20
-351.3380487343002
 30
0.0
  0
SPLINE
  5
52
330
41
100
AcDbEntity
  8
Layer 1
370
     0
100
AcDbSpline
210
0.0
220
0.0
230
1.0
 70
    11
 71
     3
 72
    26
 73
    22
 74
     0
 42
0.0000000001
 43
0.0000000001
 12
1.0
 22
0.0
 32
0.0
 13
1.0
 23
0.0
 33
0.0
 40
0.0
 40
0.0
 40
0.0
 40
0.0
 40
1.0
 40
1.0
 40
1.0
 40
2.0
 40
2.0
 40
2.0
 40
3.0
 40
3.0
 40
3.0
 40
4.0
 40
4.0
 40
4.0
 40
5.0
 40
5.0
 40
5.0
 40
6.0
 40
6.0
 40
6.0
 40
7.0
 40
7.0
 40
7.0
 40
7.0
 10
916.4196232543418
 20
-356.2220187789426
 30
0.0
 10
914.5885922453526
 20
-366.1132482894973
 30
0.0
 10
905.7972020275301
 20
-413.1243591015991
 30
0.0
 10
891.3882086741323
 20
-419.1069477516339
 30
0.0
 10
888.3364903258189
 20
-419.4731539534314
 30
0.0
 10
886.6275280507634
 20
-408.2391683696187
 30
0.0
 10
886.3833905828978
 20
-406.8964122963607
 30
0.0
 10
883.5733683277704
 20
-388.5799987697828
 30
0.0
 10
885.0381931349621
 20
-368.9208291699451
 30
0.0
 10
888.82476526155
 20
-350.8497737985708
 30
0.0
 10
890.7778650044711
 20
-341.4468192237455
 30
0.0
 10
893.2192396831215
 20
-330.5802605290701
 30
0.0
 10
898.1044304151019
 20
-322.0317870917752
 30
0.0
 10
907.13995810079
 20
-306.4021063990513
 30
0.0
 10
916.4196232543418
 20
-324.2302449898998
 30
0.0
 10
918.4972331058743
 20
-334.3643912809803
 30
0.0
 10
918.6193018398062
 20
-334.9759556379813
 30
0.0
 10
919.1075767755356
 20
-335.5862993076444
 30
0.0
 10
919.7179204451986
 20
-335.9525055094418
 30
0.0
 10
917.8868894362113
 20
-342.5466585164795
 30
0.0
 10
917.6427519683457
 20
-349.6278657719049
 30
0.0
 10
916.4196232543418
 20
-356.2220187789426
 30
0.0
  0
SPLINE
  5
53
330
41
100
AcDbEntity
  8
Layer 1
370
     0
100
AcDbSpline
210
0.0
220
0.0
230
1.0
 70
    11
 71
     3
 72
    20
 73
    16
 74
     0
 42
0.0000000001
 43
0.0000000001
 12
1.0
 22
0.0
 32
0.0
 13
1.0
 23
0.0
 33
0.0
 40
0.0
 40
0.0
 40
0.0
 40
0.0
 40
1.0
 40
1.0
 40
1.0
 40
2.0
 40
2.0
 40
2.0
 40
3.0
 40
3.0
 40
3.0
 40
4.0
 40
4.0
 40
4.0
 40
5.0
 40
5.0
 40
5.0
 40
5.0
 10
914.4665235114207
 20
-516.0600396775608
 30
0.0
 10
912.5134237684997
 20
-526.927819059576
 30
0.0
 10
908.1165079722487
 20
-550.9826837683268
 30
0.0
 10
894.5644371310573
 20
-554.03562280398
 30
0.0
 10
886.1392531150341
 20
-555.8666538129692
 30
0.0
 10
880.7657874473225
 20
-545.2430118988195
 30
0.0
 10
879.1788939061989
 20
-538.4059421112543
 30
0.0
 10
877.2233527886001
 20
-530.2248955630948
 30
0.0
 10
878.3244127686721
 20
-521.4322846579325
 30
0.0
 10
880.7657874473225
 20
-513.4953755776387
 30
0.0
 10
887.9702841240214
 20
-490.4170607403503
 30
0.0
 10
903.8441022846109
 20
-471.4915242314491
 30
0.0
 10
919.5958517112667
 20
-453.0530419709376
 30
0.0
 10
919.1075767755356
 20
-474.1770363779651
 30
0.0
 10
917.8868894362113
 20
-495.4243202062644
 30
0.0
 10
914.4665235114207
 20
-516.0600396775608
 30
0.0
  0
HATCH
  5
54
330
41
100
AcDbEntity
  8
Layer 1
 62
     7
420
 16777215
100
AcDbHatch
 10
0.0
 20
0.0
 30
0.0
210
0.0
220
0.0
230
1.0
  2
SOLID
 70
     1
 71
     0
 91
        3
 92
        1
 93
        1
 72
     4
 94
        3
 73
     0
 74
     1
 95
       74
 96
       70
 40
0.0
 40
0.0
 40
0.0
 40
0.0
 40
1.0
 40
1.0
 40
1.0
 40
2.0
 40
2.0
 40
2.0
 40
3.0
 40
3.0
 40
3.0
 40
4.0
 40
4.0
 40
4.0
 40
5.0
 40
5.0
 40
5.0
 40
6.0
 40
6.0
 40
6.0
 40
7.0
 40
7.0
 40
7.0
 40
8.0
 40
8.0
 40
8.0
 40
9.0
 40
9.0
 40
9.0
 40
10.0
 40
10.0
 40
10.0
 40
11.0
 40
11.0
 40
11.0
 40
12.0
 40
12.0
 40
12.0
 40
13.0
 40
13.0
 40
13.0
 40
14.0
 40
14.0
 40
14.0
 40
15.0
 40
15.0
 40
15.0
 40
16.0
 40
16.0
 40
16.0
 40
17.0
 40
17.0
 40
17.0
 40
18.0
 40
18.0
 40
18.0
 40
19.0
 40
19.0
 40
19.0
 40
20.0
 40
20.0
 40
20.0
 40
21.0
 40
21.0
 40
21.0
 40
22.0
 40
22.0
 40
22.0
 40
23.0
 40
23.0
 40
23.0
 40
23.0
 10
977.9617961537751
 20
-351.3380487343002
 10
970.8793682110081
 20
-369.8985997287455
 10
962.2100467271193
 20
-385.5282804214694
 10
951.953831702107
 20
-401.4020985820571
 10
949.3903882895229
 20
-405.4315874891709
 10
946.5803660343954
 20
-409.3390076623509
 10
943.6507164200139
 20
-413.1243591015991
 10
944.5051975575425
 20
-379.5444710840948
 10
944.7493350254081
 20
-345.9645830665904
 10
944.7493350254081
 20
-312.5079844703578
 10
944.7493350254081
 20
-305.5476252615226
 10
928.1431044612236
 20
-304.6931441239958
 10
923.2579137292432
 20
-309.821251636502
 10
920.9386077845247
 20
-307.6240144257154
 10
918.0089581701432
 20
-305.7917627293882
 10
913.9782485756914
 20
-304.6931441239958
 10
903.4778960828116
 20
-301.7622738222744
 10
891.3882086741323
 20
-304.9372815918596
 10
883.9395745295697
 20
-313.118328140019
 10
874.7819781099497
 20
-323.3757638523712
 10
871.8523284955681
 20
-339.9819944165556
 10
869.1643749743725
 20
-353.0470110093556
 10
866.1126566260591
 20
-369.1649666378107
 10
865.1361067545986
 20
-385.6503491554013
 10
866.6009315617885
 20
-402.0124422517201
 10
867.5774814332508
 20
-413.3684965694647
 10
870.1433662205127
 20
-425.2128258229404
 10
882.5968184563098
 20
-428.754039794323
 10
893.9540934613942
 20
-431.9278268765702
 10
904.5765146882059
 20
-427.2879942997934
 10
910.1941178237812
 20
-417.2759167426466
 10
914.5885922453526
 20
-409.4610763962846
 10
917.8868894362113
 20
-400.9138236463277
 10
920.6944703166591
 20
-392.2432814750973
 10
920.5724015827273
 20
-399.6919156196618
 10
920.4503328487936
 20
-407.1405497642263
 10
920.3282641148617
 20
-414.5891839087908
 10
920.0841266469961
 20
-423.2585053926796
 10
919.9620579130642
 20
-431.9278268765702
 10
919.8399891791305
 20
-440.7204377817307
 10
918.3751643719406
 20
-442.4294000567879
 10
916.9103395647508
 20
-444.1395830191814
 10
915.4430733828813
 20
-445.8485452942368
 10
903.9661710185428
 20
-459.1576993549043
 10
892.6088960134584
 20
-472.346005368976
 10
882.7188871902435
 20
-486.7549987223738
 10
873.5612907706236
 20
-500.0641527830394
 10
864.7699005528011
 20
-515.4496960078995
 10
865.3802442224642
 20
-532.1779953060159
 10
865.7464504242616
 20
-544.6326682291565
 10
872.5847408991631
 20
-557.3326993074988
 10
883.9395745295697
 20
-563.3152879575318
 10
896.2733994061127
 20
-569.7873722306358
 10
913.4899736399602
 20
-564.0477003611268
 10
922.4034325917146
 20
-554.2797602718456
 10
933.3945013950015
 20
-542.1912935505043
 10
936.6903572111805
 20
-524.1190174917883
 10
938.7655256880334
 20
-508.3672680651325
 10
941.2093417413635
 20
-489.196373401026
 10
941.6976166770946
 20
-469.6592725351202
 10
942.5520978146214
 20
-450.3663091370818
 10
942.796235282487
 20
-441.5749189192593
 10
943.0403727503508
 20
-432.7835287014368
 10
943.2845102182164
 20
-423.9909177962763
 10
968.1938560644921
 20
-391.022594135773
 10
978.6942085573701
 20
-367.2118668948897
 10
982.1145744821606
 20
-352.4366673396944
 10
982.3587119500262
 20
-351.4601174682339
 10
978.3280023555726
 20
-350.6056363307052
 10
977.9617961537751
 20
-351.3380487343002
 97
        0
 97
        0
 92
        1
 93
        1
 72
     4
 94
        3
 73
     0
 74
     1
 95
       26
 96
       22
 40
0.0
 40
0.0
 40
0.0
 40
0.0
 40
1.0
 40
1.0
 40
1.0
 40
2.0
 40
2.0
 40
2.0
 40
3.0
 40
3.0
 40
3.0
 40
4.0
 40
4.0
 40
4.0
 40
5.0
 40
5.0
 40
5.0
 40
6.0
 40
6.0
 40
6.0
 40
7.0
 40
7.0
 40
7.0
 40
7.0
 10
916.4196232543418
 20
-356.2220187789426
 10
914.5885922453526
 20
-366.1132482894973
 10
905.7972020275301
 20
-413.1243591015991
 10
891.3882086741323
 20
-419.1069477516339
 10
888.3364903258189
 20
-419.4731539534314
 10
886.6275280507634
 20
-408.2391683696187
 10
886.3833905828978
 20
-406.8964122963607
 10
883.5733683277704
 20
-388.5799987697828
 10
885.0381931349621
 20
-368.9208291699451
 10
888.82476526155
 20
-350.8497737985708
 10
890.7778650044711
 20
-341.4468192237455
 10
893.2192396831215
 20
-330.5802605290701
 10
898.1044304151019
 20
-322.0317870917752
 10
907.13995810079
 20
-306.4021063990513
 10
916.4196232543418
 20
-324.2302449898998
 10
918.4972331058743
 20
-334.3643912809803
 10
918.6193018398062
 20
-334.9759556379813
 10
919.1075767755356
 20
-335.5862993076444
 10
919.7179204451986
 20
-335.9525055094418
 10
917.8868894362113
 20
-342.5466585164795
 10
917.6427519683457
 20
-349.6278657719049
 10
916.4196232543418
 20
-356.2220187789426
 97
        0
 97
        0
 92
        1
 93
        1
 72
     4
 94
        3
 73
     0
 74
     1
 95
       20
 96
       16
 40
0.0
 40
0.0
 40
0.0
 40
0.0
 40
1.0
 40
1.0
 40
1.0
 40
2.0
 40
2.0
 40
2.0
 40
3.0
 40
3.0
 40
3.0
 40
4.0
 40
4.0
 40
4.0
 40
5.0
 40
5.0
 40
5.0
 40
5.0
 10
914.4665235114207
 20
-516.0600396775608
 10
912.5134237684997
 20
-526.927819059576
 10
908.1165079722487
 20
-550.9826837683268
 10
894.5644371310573
 20
-554.03562280398
 10
886.1392531150341
 20
-555.8666538129692
 10
880.7657874473225
 20
-545.2430118988195
 10
879.1788939061989
 20
-538.4059421112543
 10
877.2233527886001
 20
-530.2248955630948
 10
878.3244127686721
 20
-521.4322846579325
 10
880.7657874473225
 20
-513.4953755776387
 10
887.9702841240214
 20
-490.4170607403503
 10
903.8441022846109
 20
-471.4915242314491
 10
919.5958517112667
 20
-453.0530419709376
 10
919.1075767755356
 20
-474.1770363779651
 10
917.8868894362113
 20
-495.4243202062644
 10
914.4665235114207
 20
-516.0600396775608
 97
        0
 97
        0
 75
     2
 76
     1
 98
        0
  0
SPLINE
  5
55
330
41
100
AcDbEntity
  8
Layer 1
370
     0
100
AcDbSpline
210
0.0
220
0.0
230
1.0
 70
    11
 71
     3
 72
    95
 73
    91
 74
     0
 42
0.0000000001
 43
0.0000000001
 12
1.0
 22
0.0
 32
0.0
 13
1.0
 23
0.0
 33
0.0
 40
0.0
 40
0.0
 40
0.0
 40
0.0
 40
1.0
 40
1.0
 40
1.0
 40
2.0
 40
2.0
 40
2.0
 40
3.0
 40
3.0
 40
3.0
 40
4.0
 40
4.0
 40
4.0
 40
5.0
 40
5.0
 40
5.0
 40
6.0
 40
6.0
 40
6.0
 40
7.0
 40
7.0
 40
7.0
 40
8.0
 40
8.0
 40
8.0
 40
9.0
 40
9.0
 40
9.0
 40
10.0
 40
10.0
 40
10.0
 40
11.0
 40
11.0
 40
11.0
 40
12.0
 40
12.0
 40
12.0
 40
13.0
 40
13.0
 40
13.0
 40
14.0
 40
14.0
 40
14.0
 40
15.0
 40
15.0
 40
15.0
 40
16.0
 40
16.0
 40
16.0
 40
17.0
 40
17.0
 40
17.0
 40
18.0
 40
18.0
 40
18.0
 40
19.0
 40
19.0
 40
19.0
 40
20.0
 40
20.0
 40
20.0
 40
21.0
 40
21.0
 40
21.0
 40
22.0
 40
22.0
 40
22.0
 40
23.0
 40
23.0
 40
23.0
 40
24.0
 40
24.0
 40
24.0
 40
25.0
 40
25.0
 40
25.0
 40
26.0
 40
26.0
 40
26.0
 40
27.0
 40
27.0
 40
27.0
 40
28.0
 40
28.0
 40
28.0
 40
29.0
 40
29.0
 40
29.0
 40
30.0
 40
30.0
 40
30.0
 40
30.0
 10
331.1952576602325
 20
-818.6171622281017
 30
0.0
 10
321.0244907489723
 20
-811.9839472262065
 30
0.0
 10
309.381574906487
 20
-808.0045065000068
 30
0.0
 10
297.2943288724855
 20
-805.9403242092067
 30
0.0
 10
299.7991792927805
 20
-789.137562983391
 30
0.0
 10
301.2737695986871
 20
-772.0381747341198
 30
0.0
 10
302.0110647516394
 20
-755.2354135083042
 30
0.0
 10
303.0413248660298
 20
-730.914438959584
 30
0.0
 10
301.4202520794061
 20
-704.3827996393429
 30
0.0
 10
285.353565319203
 20
-684.6320784890577
 30
0.0
 10
274.8898334465048
 20
-671.8075373021038
 30
0.0
 10
258.6742228309049
 20
-669.0072805456912
 30
0.0
 10
242.9029424068194
 20
-670.6283533323149
 30
0.0
 10
233.0275818316768
 20
-670.3341676835371
 30
0.0
 10
223.0057387758134
 20
-672.5448324550562
 30
0.0
 10
214.8979334680153
 20
-677.4092715022689
 30
0.0
 10
210.3301214442581
 20
-680.0618250906227
 30
0.0
 10
210.0347151081423
 20
-683.5993769999877
 30
0.0
 10
214.0141558343421
 20
-686.9904464286337
 30
0.0
 10
218.4354853773802
 20
-690.5279983379987
 30
0.0
 10
226.9851795020149
 20
-690.086109521164
 30
0.0
 10
231.9973217172865
 20
-688.4638160472005
 30
0.0
 10
234.7975784736991
 20
-687.5800384135291
 30
0.0
 10
237.8932415662275
 20
-686.4008544437402
 30
0.0
 10
241.1353871394767
 20
-685.6635592907878
 30
0.0
 10
246.882383133021
 20
-685.8112624588466
 30
0.0
 10
252.3364141651273
 20
-690.3802951699399
 30
0.0
 10
255.8739660744923
 20
-695.3912166978716
 30
0.0
 10
261.7698859234351
 20
-703.7932076544494
 30
0.0
 10
262.5071810763875
 20
-714.8489728867207
 30
0.0
 10
260.8861082897638
 20
-724.7243334618634
 30
0.0
 10
257.6439627165146
 20
-744.9169434289852
 30
0.0
 10
243.4937550790528
 20
-764.2269964497755
 30
0.0
 10
224.7732940431579
 20
-772.7754698870722
 30
0.0
 10
178.4897128852917
 20
-794.000781343264
 30
0.0
 10
146.6541870756828
 20
-744.4750546121504
 30
0.0
 10
139.5790832569528
 20
-705.2677979603541
 30
0.0
 10
131.9131667659894
 20
-662.374065543796
 30
0.0
 10
136.3344963090258
 20
-617.2708890430586
 30
0.0
 10
151.0755166187209
 20
-576.2936357492417
 30
0.0
 10
163.7511339502762
 20
-540.9181166555863
 30
0.0
 10
189.2512924687853
 20
-485.0545812586934
 30
0.0
 10
232.4392105341212
 20
-480.9274373644348
 30
0.0
 10
256.1693724106099
 20
-478.5690694248569
 30
0.0
 10
273.1198368044825
 20
-499.5001952322709
 30
0.0
 10
279.4576454702601
 20
-520.2836178716279
 30
0.0
 10
285.5024891746016
 20
-549.9096995970594
 30
0.0
 10
283.1441212350237
 20
-569.9558270834641
 30
0.0
 10
276.5109062331285
 20
-592.9499144943366
 30
0.0
 10
273.8571319574348
 20
-602.2356830845856
 30
0.0
 10
294.9359609329076
 20
-603.7102733904921
 30
0.0
 10
298.0316240254378
 20
-595.751391938089
 30
0.0
 10
307.6115782644647
 20
-570.6931222364165
 30
0.0
 10
318.961529145512
 20
-479.0121789290333
 30
0.0
 10
249.3896749279957
 20
-467.0726360630906
 30
0.0
 10
192.1980317059169
 20
-457.1960548006082
 30
0.0
 10
145.1795967697781
 20
-516.746065962263
 30
0.0
 10
125.428875619491
 20
-569.2185319305099
 30
0.0
 10
105.8246369499248
 20
-621.2503297692601
 30
0.0
 10
98.01223797824059
 20
-689.2011112001528
 30
0.0
 10
122.3332125269626
 20
-741.0852058708442
 30
0.0
 10
146.505263220286
 20
-792.821597373475
 30
0.0
 10
214.6025271318977
 20
-808.4463953168415
 30
0.0
 10
259.7069243199749
 20
-773.2173587039088
 30
0.0
 10
264.8655490159636
 20
-769.0914354969882
 30
0.0
 10
269.7312087505161
 20
-764.0792932817167
 30
0.0
 10
274.0060558128334
 20
-758.4787797688914
 30
0.0
 10
273.2687606598811
 20
-774.1023570249199
 30
0.0
 10
271.9406528346954
 20
-789.4317486321688
 30
0.0
 10
269.5822848951175
 20
-804.319251422583
 30
0.0
 10
253.5155981349162
 20
-805.2030290562543
 30
0.0
 10
237.5978352301117
 20
-809.0359873017369
 30
0.0
 10
223.44762759265
 20
-814.7842039826191
 30
0.0
 10
192.6399205227535
 20
-827.3133388334572
 30
0.0
 10
155.6433286424763
 20
-861.2142676212043
 30
0.0
 10
164.4884291032286
 20
-897.622488203926
 30
0.0
 10
169.9424601353348
 20
-920.0269836299067
 30
0.0
 10
193.5261395311027
 20
-927.2485699293557
 30
0.0
 10
211.9511942308818
 20
-926.2170891276255
 30
0.0
 10
234.0602833207467
 20
-924.8902019897796
 30
0.0
 10
252.1899316844083
 20
-912.5087703070003
 30
0.0
 10
264.5725840545256
 20
-894.6733075921165
 30
0.0
 10
281.0811596315634
 20
-870.6477393795121
 30
0.0
 10
290.2192250537537
 20
-843.8219144104951
 30
0.0
 10
295.5243322304632
 20
-816.1110911204669
 30
0.0
 10
304.6648390273331
 20
-817.4379782583128
 30
0.0
 10
313.8029044495233
 20
-819.9428286786097
 30
0.0
 10
322.645563535596
 20
-823.3338981072557
 30
0.0
 10
332.8163304468562
 20
-827.1656356653984
 30
0.0
 10
336.6492886923388
 20
-822.0070109694097
 30
0.0
 10
331.1952576602325
 20
-818.6171622281017
 30
0.0
  0
SPLINE
  5
56
330
41
100
AcDbEntity
  8
Layer 1
370
     0
100
AcDbSpline
210
0.0
220
0.0
230
1.0
 70
    11
 71
     3
 72
    17
 73
    13
 74
     0
 42
0.0000000001
 43
0.0000000001
 12
1.0
 22
0.0
 32
0.0
 13
1.0
 23
0.0
 33
0.0
 40
0.0
 40
0.0
 40
0.0
 40
0.0
 40
1.0
 40
1.0
 40
1.0
 40
2.0
 40
2.0
 40
2.0
 40
3.0
 40
3.0
 40
3.0
 40
4.0
 40
4.0
 40
4.0
 40
4.0
 10
255.1391122962177
 20
-857.6767157118393
 30
0.0
 10
233.0275818316768
 20
-913.0983622918957
 30
0.0
 10
190.1350701024567
 20
-918.700096492059
 30
0.0
 10
181.1434871609854
 20
-897.9166738527038
 30
0.0
 10
171.1216441051238
 20
-874.9225864418295
 30
0.0
 10
193.2307331949869
 20
-842.6427304407061
 30
0.0
 10
226.5432906851802
 20
-826.1341548636683
 30
0.0
 10
239.660796833572
 20
-819.6486430298319
 30
0.0
 10
253.664521990313
 20
-815.9633879524081
 30
0.0
 10
267.6658057723762
 20
-814.931907150678
 30
0.0
 10
264.8655490159636
 20
-829.2298179561985
 30
0.0
 10
260.8861082897638
 20
-843.5265080743775
 30
0.0
 10
255.1391122962177
 20
-857.6767157118393
 30
0.0
  0
HATCH
  5
57
330
41
100
AcDbEntity
  8
Layer 1
 62
     7
420
 16777215
100
AcDbHatch
 10
0.0
 20
0.0
 30
0.0
210
0.0
220
0.0
230
1.0
  2
SOLID
 70
     1
 71
     0
 91
        2
 92
        1
 93
        1
 72
     4
 94
        3
 73
     0
 74
     1
 95
       95
 96
       91
 40
0.0
 40
0.0
 40
0.0
 40
0.0
 40
1.0
 40
1.0
 40
1.0
 40
2.0
 40
2.0
 40
2.0
 40
3.0
 40
3.0
 40
3.0
 40
4.0
 40
4.0
 40
4.0
 40
5.0
 40
5.0
 40
5.0
 40
6.0
 40
6.0
 40
6.0
 40
7.0
 40
7.0
 40
7.0
 40
8.0
 40
8.0
 40
8.0
 40
9.0
 40
9.0
 40
9.0
 40
10.0
 40
10.0
 40
10.0
 40
11.0
 40
11.0
 40
11.0
 40
12.0
 40
12.0
 40
12.0
 40
13.0
 40
13.0
 40
13.0
 40
14.0
 40
14.0
 40
14.0
 40
15.0
 40
15.0
 40
15.0
 40
16.0
 40
16.0
 40
16.0
 40
17.0
 40
17.0
 40
17.0
 40
18.0
 40
18.0
 40
18.0
 40
19.0
 40
19.0
 40
19.0
 40
20.0
 40
20.0
 40
20.0
 40
21.0
 40
21.0
 40
21.0
 40
22.0
 40
22.0
 40
22.0
 40
23.0
 40
23.0
 40
23.0
 40
24.0
 40
24.0
 40
24.0
 40
25.0
 40
25.0
 40
25.0
 40
26.0
 40
26.0
 40
26.0
 40
27.0
 40
27.0
 40
27.0
 40
28.0
 40
28.0
 40
28.0
 40
29.0
 40
29.0
 40
29.0
 40
30.0
 40
30.0
 40
30.0
 40
30.0
 10
331.1952576602325
 20
-818.6171622281017
 10
321.0244907489723
 20
-811.9839472262065
 10
309.381574906487
 20
-808.0045065000068
 10
297.2943288724855
 20
-805.9403242092067
 10
299.7991792927805
 20
-789.137562983391
 10
301.2737695986871
 20
-772.0381747341198
 10
302.0110647516394
 20
-755.2354135083042
 10
303.0413248660298
 20
-730.914438959584
 10
301.4202520794061
 20
-704.3827996393429
 10
285.353565319203
 20
-684.6320784890577
 10
274.8898334465048
 20
-671.8075373021038
 10
258.6742228309049
 20
-669.0072805456912
 10
242.9029424068194
 20
-670.6283533323149
 10
233.0275818316768
 20
-670.3341676835371
 10
223.0057387758134
 20
-672.5448324550562
 10
214.8979334680153
 20
-677.4092715022689
 10
210.3301214442581
 20
-680.0618250906227
 10
210.0347151081423
 20
-683.5993769999877
 10
214.0141558343421
 20
-686.9904464286337
 10
218.4354853773802
 20
-690.5279983379987
 10
226.9851795020149
 20
-690.086109521164
 10
231.9973217172865
 20
-688.4638160472005
 10
234.7975784736991
 20
-687.5800384135291
 10
237.8932415662275
 20
-686.4008544437402
 10
241.1353871394767
 20
-685.6635592907878
 10
246.882383133021
 20
-685.8112624588466
 10
252.3364141651273
 20
-690.3802951699399
 10
255.8739660744923
 20
-695.3912166978716
 10
261.7698859234351
 20
-703.7932076544494
 10
262.5071810763875
 20
-714.8489728867207
 10
260.8861082897638
 20
-724.7243334618634
 10
257.6439627165146
 20
-744.9169434289852
 10
243.4937550790528
 20
-764.2269964497755
 10
224.7732940431579
 20
-772.7754698870722
 10
178.4897128852917
 20
-794.000781343264
 10
146.6541870756828
 20
-744.4750546121504
 10
139.5790832569528
 20
-705.2677979603541
 10
131.9131667659894
 20
-662.374065543796
 10
136.3344963090258
 20
-617.2708890430586
 10
151.0755166187209
 20
-576.2936357492417
 10
163.7511339502762
 20
-540.9181166555863
 10
189.2512924687853
 20
-485.0545812586934
 10
232.4392105341212
 20
-480.9274373644348
 10
256.1693724106099
 20
-478.5690694248569
 10
273.1198368044825
 20
-499.5001952322709
 10
279.4576454702601
 20
-520.2836178716279
 10
285.5024891746016
 20
-549.9096995970594
 10
283.1441212350237
 20
-569.9558270834641
 10
276.5109062331285
 20
-592.9499144943366
 10
273.8571319574348
 20
-602.2356830845856
 10
294.9359609329076
 20
-603.7102733904921
 10
298.0316240254378
 20
-595.751391938089
 10
307.6115782644647
 20
-570.6931222364165
 10
318.961529145512
 20
-479.0121789290333
 10
249.3896749279957
 20
-467.0726360630906
 10
192.1980317059169
 20
-457.1960548006082
 10
145.1795967697781
 20
-516.746065962263
 10
125.428875619491
 20
-569.2185319305099
 10
105.8246369499248
 20
-621.2503297692601
 10
98.01223797824059
 20
-689.2011112001528
 10
122.3332125269626
 20
-741.0852058708442
 10
146.505263220286
 20
-792.821597373475
 10
214.6025271318977
 20
-808.4463953168415
 10
259.7069243199749
 20
-773.2173587039088
 10
264.8655490159636
 20
-769.0914354969882
 10
269.7312087505161
 20
-764.0792932817167
 10
274.0060558128334
 20
-758.4787797688914
 10
273.2687606598811
 20
-774.1023570249199
 10
271.9406528346954
 20
-789.4317486321688
 10
269.5822848951175
 20
-804.319251422583
 10
253.5155981349162
 20
-805.2030290562543
 10
237.5978352301117
 20
-809.0359873017369
 10
223.44762759265
 20
-814.7842039826191
 10
192.6399205227535
 20
-827.3133388334572
 10
155.6433286424763
 20
-861.2142676212043
 10
164.4884291032286
 20
-897.622488203926
 10
169.9424601353348
 20
-920.0269836299067
 10
193.5261395311027
 20
-927.2485699293557
 10
211.9511942308818
 20
-926.2170891276255
 10
234.0602833207467
 20
-924.8902019897796
 10
252.1899316844083
 20
-912.5087703070003
 10
264.5725840545256
 20
-894.6733075921165
 10
281.0811596315634
 20
-870.6477393795121
 10
290.2192250537537
 20
-843.8219144104951
 10
295.5243322304632
 20
-816.1110911204669
 10
304.6648390273331
 20
-817.4379782583128
 10
313.8029044495233
 20
-819.9428286786097
 10
322.645563535596
 20
-823.3338981072557
 10
332.8163304468562
 20
-827.1656356653984
 10
336.6492886923388
 20
-822.0070109694097
 10
331.1952576602325
 20
-818.6171622281017
 97
        0
 97
        0
 92
        1
 93
        1
 72
     4
 94
        3
 73
     0
 74
     1
 95
       17
 96
       13
 40
0.0
 40
0.0
 40
0.0
 40
0.0
 40
1.0
 40
1.0
 40
1.0
 40
2.0
 40
2.0
 40
2.0
 40
3.0
 40
3.0
 40
3.0
 40
4.0
 40
4.0
 40
4.0
 40
4.0
 10
255.1391122962177
 20
-857.6767157118393
 10
233.0275818316768
 20
-913.0983622918957
 10
190.1350701024567
 20
-918.700096492059
 10
181.1434871609854
 20
-897.9166738527038
 10
171.1216441051238
 20
-874.9225864418295
 10
193.2307331949869
 20
-842.6427304407061
 10
226.5432906851802
 20
-826.1341548636683
 10
239.660796833572
 20
-819.6486430298319
 10
253.664521990313
 20
-815.9633879524081
 10
267.6658057723762
 20
-814.931907150678
 10
264.8655490159636
 20
-829.2298179561985
 10
260.8861082897638
 20
-843.5265080743775
 10
255.1391122962177
 20
-857.6767157118393
 97
        0
 97
        0
 75
     2
 76
     1
 98
        0
  0
SPLINE
  5
58
330
41
100
AcDbEntity
  8
Layer 1
370
     0
100
AcDbSpline
210
0.0
220
0.0
230
1.0
 70
    11
 71
     3
 72
    65
 73
    61
 74
     0
 42
0.0000000001
 43
0.0000000001
 12
1.0
 22
0.0
 32
0.0
 13
1.0
 23
0.0
 33
0.0
 40
0.0
 40
0.0
 40
0.0
 40
0.0
 40
1.0
 40
1.0
 40
1.0
 40
2.0
 40
2.0
 40
2.0
 40
3.0
 40
3.0
 40
3.0
 40
4.0
 40
4.0
 40
4.0
 40
5.0
 40
5.0
 40
5.0
 40
6.0
 40
6.0
 40
6.0
 40
7.0
 40
7.0
 40
7.0
 40
8.0
 40
8.0
 40
8.0
 40
9.0
 40
9.0
 40
9.0
 40
10.0
 40
10.0
 40
10.0
 40
11.0
 40
11.0
 40
11.0
 40
12.0
 40
12.0
 40
12.0
 40
13.0
 40
13.0
 40
13.0
 40
14.0
 40
14.0
 40
14.0
 40
15.0
 40
15.0
 40
15.0
 40
16.0
 40
16.0
 40
16.0
 40
17.0
 40
17.0
 40
17.0
 40
18.0
 40
18.0
 40
18.0
 40
19.0
 40
19.0
 40
19.0
 40
20.0
 40
20.0
 40
20.0
 40
20.0
 10
399.905306616185
 20
-633.1898726352028
 30
0.0
 10
376.0262208843014
 20
-631.8629854973551
 30
0.0
 10
363.0551972166286
 20
-663.4067670328659
 30
0.0
 10
353.0333541607652
 20
-689.2011112001528
 30
0.0
 10
351.854170190978
 20
-692.1490711246242
 30
0.0
 10
350.8214687019081
 20
-694.9493278810369
 30
0.0
 10
349.7887672128381
 20
-697.8972878055065
 30
0.0
 10
349.9376910682367
 20
-690.086109521164
 30
0.0
 10
350.2306560296747
 20
-682.1260073814228
 30
0.0
 10
350.5260623657905
 20
-674.4613115777975
 30
0.0
 10
351.2633575187429
 20
-660.900695925231
 30
0.0
 10
351.1168750380239
 20
-649.5507450441819
 30
0.0
 10
354.0636142751573
 20
-634.36905660499
 30
0.0
 10
355.9800933978968
 20
-624.9355848466839
 30
0.0
 10
334.754781941705
 20
-625.2309911827997
 30
0.0
 10
330.6288587347863
 20
-632.1583918334727
 30
0.0
 10
325.9121228556323
 20
-640.2649764539328
 30
0.0
 10
324.14212621361
 20
-657.2154408478073
 30
0.0
 10
323.4048310606577
 20
-670.3341676835371
 30
0.0
 10
322.5210534269863
 20
-684.7785609697767
 30
0.0
 10
322.2256470908687
 20
-699.51958127947
 30
0.0
 10
322.2256470908687
 20
-713.9639745657096
 30
0.0
 10
322.3745709462673
 20
-743.1493881616425
 30
0.0
 10
323.7002373967734
 20
-772.1858779021786
 30
0.0
 10
325.17482770268
 20
-801.3712914981115
 30
0.0
 10
325.6167165195147
 20
-811.2466520732542
 30
0.0
 10
351.854170190978
 20
-814.931907150678
 30
0.0
 10
352.147135152416
 20
-804.9088434074765
 30
0.0
 10
352.147135152416
 20
-803.5819562696306
 30
0.0
 10
352.2960590078128
 20
-802.1085866510639
 30
0.0
 10
352.2960590078128
 20
-800.7816995132162
 30
0.0
 10
352.2960590078128
 20
-800.7816995132162
 30
0.0
 10
352.4425414885318
 20
-800.7816995132162
 30
0.0
 10
352.4425414885318
 20
-800.7816995132162
 30
0.0
 10
352.4425414885318
 20
-800.0444043602638
 30
0.0
 10
352.2960590078128
 20
-799.0129235585337
 30
0.0
 10
352.2960590078128
 20
-798.1279252375243
 30
0.0
 10
352.4425414885318
 20
-777.6399089342849
 30
0.0
 10
351.4122813741415
 20
-754.9412278595264
 30
0.0
 10
354.9473919088286
 20
-735.3369891899601
 30
0.0
 10
359.8130516433794
 20
-686.9904464286337
 30
0.0
 10
379.7126966490632
 20
-648.0773754256152
 30
0.0
 10
395.4839770731487
 20
-653.8255921064992
 30
0.0
 10
403.8847473423866
 20
-656.9212551990295
 30
0.0
 10
397.8423450127266
 20
-703.6455044863906
 30
0.0
 10
387.3761717653488
 20
-703.9409108225082
 30
0.0
 10
382.0710645886411
 20
-704.088613990567
 30
0.0
 10
380.5964742827346
 20
-698.1926941416241
 30
0.0
 10
382.9548422223124
 20
-694.6551422322591
 30
0.0
 10
385.7550989787251
 20
-690.5279983379987
 30
0.0
 10
373.9632592808412
 20
-690.6744808187177
 30
0.0
 10
372.3421864942156
 20
-691.7071823077877
 30
0.0
 10
368.9511170655696
 20
-696.128511850824
 30
0.0
 10
369.541929737803
 20
-705.8573899452495
 30
0.0
 10
376.1727033650204
 20
-710.2787194882858
 30
0.0
 10
386.1969877955598
 20
-717.0596376582398
 30
0.0
 10
395.1885707370329
 20
-713.374382580816
 30
0.0
 10
404.1801536785042
 20
-704.3827996393429
 30
0.0
 10
421.1306180723768
 20
-687.7277415815861
 30
0.0
 10
423.9308748287895
 20
-634.5167597730488
 30
0.0
 10
399.905306616185
 20
-633.1898726352028
 30
0.0
  0
HATCH
  5
59
330
41
100
AcDbEntity
  8
Layer 1
 62
     7
420
 16777215
100
AcDbHatch
 10
0.0
 20
0.0
 30
0.0
210
0.0
220
0.0
230
1.0
  2
SOLID
 70
     1
 71
     0
 91
        1
 92
        1
 93
        1
 72
     4
 94
        3
 73
     0
 74
     1
 95
       65
 96
       61
 40
0.0
 40
0.0
 40
0.0
 40
0.0
 40
1.0
 40
1.0
 40
1.0
 40
2.0
 40
2.0
 40
2.0
 40
3.0
 40
3.0
 40
3.0
 40
4.0
 40
4.0
 40
4.0
 40
5.0
 40
5.0
 40
5.0
 40
6.0
 40
6.0
 40
6.0
 40
7.0
 40
7.0
 40
7.0
 40
8.0
 40
8.0
 40
8.0
 40
9.0
 40
9.0
 40
9.0
 40
10.0
 40
10.0
 40
10.0
 40
11.0
 40
11.0
 40
11.0
 40
12.0
 40
12.0
 40
12.0
 40
13.0
 40
13.0
 40
13.0
 40
14.0
 40
14.0
 40
14.0
 40
15.0
 40
15.0
 40
15.0
 40
16.0
 40
16.0
 40
16.0
 40
17.0
 40
17.0
 40
17.0
 40
18.0
 40
18.0
 40
18.0
 40
19.0
 40
19.0
 40
19.0
 40
20.0
 40
20.0
 40
20.0
 40
20.0
 10
399.905306616185
 20
-633.1898726352028
 10
376.0262208843014
 20
-631.8629854973551
 10
363.0551972166286
 20
-663.4067670328659
 10
353.0333541607652
 20
-689.2011112001528
 10
351.854170190978
 20
-692.1490711246242
 10
350.8214687019081
 20
-694.9493278810369
 10
349.7887672128381
 20
-697.8972878055065
 10
349.9376910682367
 20
-690.086109521164
 10
350.2306560296747
 20
-682.1260073814228
 10
350.5260623657905
 20
-674.4613115777975
 10
351.2633575187429
 20
-660.900695925231
 10
351.1168750380239
 20
-649.5507450441819
 10
354.0636142751573
 20
-634.36905660499
 10
355.9800933978968
 20
-624.9355848466839
 10
334.754781941705
 20
-625.2309911827997
 10
330.6288587347863
 20
-632.1583918334727
 10
325.9121228556323
 20
-640.2649764539328
 10
324.14212621361
 20
-657.2154408478073
 10
323.4048310606577
 20
-670.3341676835371
 10
322.5210534269863
 20
-684.7785609697767
 10
322.2256470908687
 20
-699.51958127947
 10
322.2256470908687
 20
-713.9639745657096
 10
322.3745709462673
 20
-743.1493881616425
 10
323.7002373967734
 20
-772.1858779021786
 10
325.17482770268
 20
-801.3712914981115
 10
325.6167165195147
 20
-811.2466520732542
 10
351.854170190978
 20
-814.931907150678
 10
352.147135152416
 20
-804.9088434074765
 10
352.147135152416
 20
-803.5819562696306
 10
352.2960590078128
 20
-802.1085866510639
 10
352.2960590078128
 20
-800.7816995132162
 10
352.2960590078128
 20
-800.7816995132162
 10
352.4425414885318
 20
-800.7816995132162
 10
352.4425414885318
 20
-800.7816995132162
 10
352.4425414885318
 20
-800.0444043602638
 10
352.2960590078128
 20
-799.0129235585337
 10
352.2960590078128
 20
-798.1279252375243
 10
352.4425414885318
 20
-777.6399089342849
 10
351.4122813741415
 20
-754.9412278595264
 10
354.9473919088286
 20
-735.3369891899601
 10
359.8130516433794
 20
-686.9904464286337
 10
379.7126966490632
 20
-648.0773754256152
 10
395.4839770731487
 20
-653.8255921064992
 10
403.8847473423866
 20
-656.9212551990295
 10
397.8423450127266
 20
-703.6455044863906
 10
387.3761717653488
 20
-703.9409108225082
 10
382.0710645886411
 20
-704.088613990567
 10
380.5964742827346
 20
-698.1926941416241
 10
382.9548422223124
 20
-694.6551422322591
 10
385.7550989787251
 20
-690.5279983379987
 10
373.9632592808412
 20
-690.6744808187177
 10
372.3421864942156
 20
-691.7071823077877
 10
368.9511170655696
 20
-696.128511850824
 10
369.541929737803
 20
-705.8573899452495
 10
376.1727033650204
 20
-710.2787194882858
 10
386.1969877955598
 20
-717.0596376582398
 10
395.1885707370329
 20
-713.374382580816
 10
404.1801536785042
 20
-704.3827996393429
 10
421.1306180723768
 20
-687.7277415815861
 10
423.9308748287895
 20
-634.5167597730488
 10
399.905306616185
 20
-633.1898726352028
 97
        0
 97
        0
 75
     2
 76
     1
 98
        0
  0
SPLINE
  5
5A
330
41
100
AcDbEntity
  8
Layer 1
370
     0
100
AcDbSpline
210
0.0
220
0.0
230
1.0
 70
    11
 71
     3
 72
   134
 73
   130
 74
     0
 42
0.0000000001
 43
0.0000000001
 12
1.0
 22
0.0
 32
0.0
 13
1.0
 23
0.0
 33
0.0
 40
0.0
 40
0.0
 40
0.0
 40
0.0
 40
1.0
 40
1.0
 40
1.0
 40
2.0
 40
2.0
 40
2.0
 40
3.0
 40
3.0
 40
3.0
 40
4.0
 40
4.0
 40
4.0
 40
5.0
 40
5.0
 40
5.0
 40
6.0
 40
6.0
 40
6.0
 40
7.0
 40
7.0
 40
7.0
 40
8.0
 40
8.0
 40
8.0
 40
9.0
 40
9.0
 40
9.0
 40
10.0
 40
10.0
 40
10.0
 40
11.0
 40
11.0
 40
11.0
 40
12.0
 40
12.0
 40
12.0
 40
13.0
 40
13.0
 40
13.0
 40
14.0
 40
14.0
 40
14.0
 40
15.0
 40
15.0
 40
15.0
 40
16.0
 40
16.0
 40
16.0
 40
17.0
 40
17.0
 40
17.0
 40
18.0
 40
18.0
 40
18.0
 40
19.0
 40
19.0
 40
19.0
 40
20.0
 40
20.0
 40
20.0
 40
21.0
 40
21.0
 40
21.0
 40
22.0
 40
22.0
 40
22.0
 40
23.0
 40
23.0
 40
23.0
 40
24.0
 40
24.0
 40
24.0
 40
25.0
 40
25.0
 40
25.0
 40
26.0
 40
26.0
 40
26.0
 40
27.0
 40
27.0
 40
27.0
 40
28.0
 40
28.0
 40
28.0
 40
29.0
 40
29.0
 40
29.0
 40
30.0
 40
30.0
 40
30.0
 40
31.0
 40
31.0
 40
31.0
 40
32.0
 40
32.0
 40
32.0
 40
33.0
 40
33.0
 40
33.0
 40
34.0
 40
34.0
 40
34.0
 40
35.0
 40
35.0
 40
35.0
 40
36.0
 40
36.0
 40
36.0
 40
37.0
 40
37.0
 40
37.0
 40
38.0
 40
38.0
 40
38.0
 40
39.0
 40
39.0
 40
39.0
 40
40.0
 40
40.0
 40
40.0
 40
41.0
 40
41.0
 40
41.0
 40
42.0
 40
42.0
 40
42.0
 40
43.0
 40
43.0
 40
43.0
 40
43.0
 10
766.958665427328
 20
-689.9384063531052
 30
0.0
 10
764.1584086709154
 20
-705.4155011284129
 30
0.0
 10
751.0409025225235
 20
-734.8951003731236
 30
0.0
 10
747.0590204216442
 20
-741.527094687679
 30
0.0
 10
737.7744725187349
 20
-756.7087831268709
 30
0.0
 10
723.4753410258745
 20
-779.4086848889674
 30
0.0
 10
704.4619150285416
 20
-778.671389736015
 30
0.0
 10
682.6482322747943
 20
-777.7876121023437
 30
0.0
 10
675.8660934175023
 20
-756.5623006461501
 30
0.0
 10
674.3915031115976
 20
-735.0415828538426
 30
0.0
 10
675.5731284560643
 20
-735.1892860219014
 30
0.0
 10
676.7498710511736
 20
-735.4834716706791
 30
0.0
 10
677.9314963956422
 20
-735.4834716706791
 30
0.0
 10
695.1749257509528
 20
-736.9580619765838
 30
0.0
 10
707.7040606017908
 20
-725.0185191106411
 30
0.0
 10
715.9583483903098
 20
-711.1637178092969
 30
0.0
 10
728.9293720579808
 20
-689.3488143682116
 30
0.0
 10
750.745496186406
 20
-620.0711457994712
 30
0.0
 10
705.345692662213
 20
-620.21884896753
 30
0.0
 10
665.1069552086883
 20
-620.366552135587
 30
0.0
 10
648.8937859677662
 20
-676.5242731812577
 30
0.0
 10
647.1237893257439
 20
-708.2157578848255
 30
0.0
 10
646.7173004417491
 20
-714.9727200657453
 30
0.0
 10
646.4615664441608
 20
-722.1515823083173
 30
0.0
 10
646.6312419843271
 20
-729.3986504559762
 30
0.0
 10
620.3800555802973
 20
-807.6694278253617
 30
0.0
 10
583.9751918877591
 20
-785.25669275984
 30
0.0
 10
578.2770233877873
 20
-778.5249072552961
 30
0.0
 10
569.7297706378304
 20
-768.3541403440358
 30
0.0
 10
568.8435516294794
 20
-758.1833734327756
 30
0.0
 10
568.2551803319238
 20
-745.3600529331616
 30
0.0
 10
566.9270725067381
 20
-719.1225992616983
 30
0.0
 10
570.3181419353841
 20
-690.9698871548353
 30
0.0
 10
581.2262039995967
 20
-666.9443189422309
 30
0.0
 10
583.5845719391746
 20
-661.4902879101246
 30
0.0
 10
586.2383462148682
 20
-655.8897743972993
 30
0.0
 10
589.7734567495536
 20
-651.1730385181454
 30
0.0
 10
594.6391164841061
 20
-644.6863059969692
 30
0.0
 10
594.6391164841061
 20
-648.0773754256152
 30
0.0
 10
597.1439669044012
 20
-654.8570729082294
 30
0.0
 10
602.4515154557885
 20
-669.5968725305847
 30
0.0
 10
599.0604460271425
 20
-683.4528945192687
 30
0.0
 10
599.35585236326
 20
-698.3403973096829
 30
0.0
 10
599.35585236326
 20
-707.3307595638144
 30
0.0
 10
622.7906079036293
 20
-701.2871365468145
 30
0.0
 10
624.1187157288168
 20
-694.5074390642003
 30
0.0
 10
625.7397885154405
 20
-685.515856122729
 30
0.0
 10
629.8657117223611
 20
-657.2154408478073
 30
0.0
 10
619.4019798496629
 20
-642.4756412254519
 30
0.0
 10
610.114990572074
 20
-629.504617557779
 30
0.0
 10
590.6596757579046
 20
-627.5893591223776
 30
0.0
 10
577.2467632733969
 20
-634.8109454218265
 30
0.0
 10
559.8519686880081
 20
-644.0979346994154
 30
0.0
 10
551.893087235605
 20
-667.0908014229499
 30
0.0
 10
547.176351356451
 20
-684.7785609697767
 30
0.0
 10
543.6705373179084
 20
-698.1821657133223
 30
0.0
 10
541.5685137195887
 20
-712.0903720857623
 30
0.0
 10
540.8544116260837
 20
-725.9987310441193
 30
0.0
 10
538.8320378766548
 20
-732.2452933312834
 30
0.0
 10
536.5463008337683
 20
-738.4120531836379
 30
0.0
 10
533.9001558539458
 20
-744.4750546121504
 30
0.0
 10
530.0671976084632
 20
-753.3189343855629
 30
0.0
 10
525.7923505461458
 20
-761.8686285101994
 30
0.0
 10
520.3383195140395
 20
-769.8275099626007
 30
0.0
 10
518.717246727414
 20
-772.4812842382944
 30
0.0
 10
516.8007676046745
 20
-774.9873553459292
 30
0.0
 10
514.7378060012143
 20
-777.4922057662261
 30
0.0
 10
514.1469933289809
 20
-775.5757266434848
 30
0.0
 10
513.5586220314253
 20
-773.5127650400245
 30
0.0
 10
513.4096981760267
 20
-771.4498034365643
 30
0.0
 10
505.4508167236254
 20
-730.914438959584
 30
0.0
 10
509.1348511137094
 20
-688.4638160472005
 30
0.0
 10
512.2305142062396
 20
-647.4877834407216
 30
0.0
 10
512.674844397754
 20
-641.0022716068852
 30
0.0
 10
501.175969661308
 20
-639.0857924841439
 30
0.0
 10
492.7751993920701
 20
-641.296457255663
 30
0.0
 10
492.3333105752336
 20
-640.7068652707694
 30
0.0
 10
492.037904239116
 20
-640.2649764539328
 30
0.0
 10
491.5960154222812
 20
-639.8230876370963
 30
0.0
 10
481.278766030302
 20
-628.4731367560489
 30
0.0
 10
460.9372322077816
 20
-629.504617557779
 30
0.0
 10
449.5872813267342
 20
-638.6439036673091
 30
0.0
 10
434.6997785363201
 20
-650.435743365193
 30
0.0
 10
427.9200810537059
 20
-674.3136084097387
 30
0.0
 10
423.2033451745519
 20
-691.7071823077877
 30
0.0
 10
417.7493141424457
 20
-712.0474954429683
 30
0.0
 10
415.2444637221506
 20
-732.8309180823235
 30
0.0
 10
416.4236476919377
 20
-753.7620438897393
 30
0.0
 10
417.3074253256109
 20
-769.679806794542
 30
0.0
 10
419.2239044483504
 20
-790.9051182507355
 30
0.0
 10
436.3208513229438
 20
-797.6860364206877
 30
0.0
 10
455.7786075117929
 20
-805.2030290562543
 30
0.0
 10
468.1588185072324
 20
-790.6109326019578
 30
0.0
 10
475.3828461813591
 20
-774.5442458417547
 30
0.0
 10
478.034179082375
 20
-768.6483259928136
 30
0.0
 10
480.392547021951
 20
-762.458220495093
 30
0.0
 10
482.3090261446923
 20
-756.1204118293153
 30
0.0
 10
483.783616450597
 20
-772.1858779021786
 30
0.0
 10
488.0584635129162
 20
-788.6944534792165
 30
0.0
 10
502.5040774864938
 20
-792.675114892756
 30
0.0
 10
526.2342393629806
 20
-799.1594060392526
 30
0.0
 10
534.0466383346647
 20
-777.3457232855071
 30
0.0
 10
540.3844470004424
 20
-759.5102605706215
 30
0.0
 10
540.8458668147068
 20
-758.223503529056
 30
0.0
 10
541.2547970733813
 20
-756.9166051463908
 30
0.0
 10
541.6939393437042
 20
-755.6213032934484
 30
0.0
 10
543.6546683824981
 20
-769.6059552105144
 30
0.0
 10
548.630495149424
 20
-783.208226818535
 30
0.0
 10
559.1146735350558
 20
-793.1170037095926
 30
0.0
 10
570.4646244161031
 20
-804.0238450864654
 30
0.0
 10
590.9550820940203
 20
-806.3822130260414
 30
0.0
 10
606.1355498458724
 20
-803.4342531015718
 30
0.0
 10
624.0616485957034
 20
-799.9388149054121
 30
0.0
 10
639.3065076047042
 20
-781.0019870386222
 30
0.0
 10
649.2075026139737
 20
-753.2533224410745
 30
0.0
 10
650.3964520824757
 20
-758.7886817671642
 30
0.0
 10
652.0486523962536
 20
-764.1311724936386
 30
0.0
 10
654.3478169998725
 20
-769.0914354969882
 30
0.0
 10
663.043993605228
 20
-787.6629726774863
 30
0.0
 10
681.6155307857262
 20
-796.5068524508988
 30
0.0
 10
701.51517579141
 20
-795.0334828323339
 30
0.0
 10
722.5915633922032
 20
-793.5588925264274
 30
0.0
 10
740.5747292751475
 20
-774.1023570249199
 30
0.0
 10
752.5130514537504
 20
-748.8976048425266
 30
0.0
 10
761.9465232120583
 20
-729.2933661729585
 30
0.0
 10
770.496217336693
 20
-705.8573899452495
 30
0.0
 10
774.180251726777
 20
-690.086109521164
 30
0.0
 10
775.5083595519645
 20
-684.3366721529401
 30
0.0
 10
767.991366916398
 20
-683.8947833361053
 30
0.0
 10
766.958665427328
 20
-689.9384063531052
 30
0.0
  0
SPLINE
  5
5B
330
41
100
AcDbEntity
  8
Layer 1
370
     0
100
AcDbSpline
210
0.0
220
0.0
230
1.0
 70
    11
 71
     3
 72
    41
 73
    37
 74
     0
 42
0.0000000001
 43
0.0000000001
 12
1.0
 22
0.0
 32
0.0
 13
1.0
 23
0.0
 33
0.0
 40
0.0
 40
0.0
 40
0.0
 40
0.0
 40
1.0
 40
1.0
 40
1.0
 40
2.0
 40
2.0
 40
2.0
 40
3.0
 40
3.0
 40
3.0
 40
4.0
 40
4.0
 40
4.0
 40
5.0
 40
5.0
 40
5.0
 40
6.0
 40
6.0
 40
6.0
 40
7.0
 40
7.0
 40
7.0
 40
8.0
 40
8.0
 40
8.0
 40
9.0
 40
9.0
 40
9.0
 40
10.0
 40
10.0
 40
10.0
 40
11.0
 40
11.0
 40
11.0
 40
12.0
 40
12.0
 40
12.0
 40
12.0
 10
469.6334088131371
 20
-724.2824446450286
 30
0.0
 10
466.6842282013258
 20
-735.0415828538426
 30
0.0
 10
463.5910064834752
 20
-745.8019417499963
 30
0.0
 10
459.7580482379926
 20
-756.2668943100343
 30
0.0
 10
458.1369754513689
 20
-760.5417413723517
 30
0.0
 10
453.8621283890516
 20
-773.0708762231898
 30
0.0
 10
448.7035036930611
 20
-780.2924625226387
 30
0.0
 10
446.9335070510406
 20
-775.5757266434848
 30
0.0
 10
445.9032469366484
 20
-769.533324313823
 30
0.0
 10
445.6078406005327
 20
-767.1749563742469
 30
0.0
 10
444.2821741500247
 20
-759.2148542345058
 30
0.0
 10
443.986767813909
 20
-750.9605664459868
 30
0.0
 10
443.986767813909
 20
-742.8539818255267
 30
0.0
 10
443.986767813909
 20
-724.7243334618634
 30
0.0
 10
446.6405420896026
 20
-706.446981930143
 30
0.0
 10
451.9456492663103
 20
-689.053408032094
 30
0.0
 10
454.3040172058863
 20
-681.0945265796927
 30
0.0
 10
457.2507564430198
 20
-673.2821276080085
 30
0.0
 10
460.7907497270626
 20
-665.617431804385
 30
0.0
 10
462.4118225136863
 20
-661.9321767269612
 30
0.0
 10
464.1793777810308
 20
-658.2481423368754
 30
0.0
 10
466.0958569037721
 20
-654.8570729082294
 30
0.0
 10
467.2750408735592
 20
-652.7941113047691
 30
0.0
 10
468.4542248433481
 20
-650.582225845912
 30
0.0
 10
469.9288151492528
 20
-648.371561074393
 30
0.0
 10
470.812592782926
 20
-649.5507450441819
 30
0.0
 10
471.8452942719941
 20
-650.7299290139708
 30
0.0
 10
472.5825894249465
 20
-651.909112983758
 30
0.0
 10
474.7920335091258
 20
-655.0047760762882
 30
0.0
 10
476.4131062957513
 20
-658.5423279856532
 30
0.0
 10
478.3295854184908
 20
-661.7856942462422
 30
0.0
 10
479.3622869075607
 20
-663.7009526816437
 30
0.0
 10
480.246064541232
 20
-665.617431804385
 30
0.0
 10
480.9833596941844
 20
-667.5339109271245
 30
0.0
 10
477.887696601656
 20
-686.548557611799
 30
0.0
 10
474.9409573645244
 20
-705.7096867771907
 30
0.0
 10
469.6334088131371
 20
-724.2824446450286
 30
0.0
  0
SPLINE
  5
5C
330
41
100
AcDbEntity
  8
Layer 1
370
     0
100
AcDbSpline
210
0.0
220
0.0
230
1.0
 70
    11
 71
     3
 72
    23
 73
    19
 74
     0
 42
0.0000000001
 43
0.0000000001
 12
1.0
 22
0.0
 32
0.0
 13
1.0
 23
0.0
 33
0.0
 40
0.0
 40
0.0
 40
0.0
 40
0.0
 40
1.0
 40
1.0
 40
1.0
 40
2.0
 40
2.0
 40
2.0
 40
3.0
 40
3.0
 40
3.0
 40
4.0
 40
4.0
 40
4.0
 40
5.0
 40
5.0
 40
5.0
 40
6.0
 40
6.0
 40
6.0
 40
6.0
 10
675.8660934175023
 20
-694.8028454003179
 30
0.0
 10
679.9944579991006
 20
-652.7941113047691
 30
0.0
 10
699.8916616301067
 20
-626.9985464501442
 30
0.0
 10
708.736762090859
 20
-632.1583918334727
 30
0.0
 10
715.8118659095908
 20
-636.1378325596743
 30
0.0
 10
715.9583483903098
 20
-649.9938545483565
 30
0.0
 10
715.8118659095908
 20
-656.7735520309707
 30
0.0
 10
715.5164595734732
 20
-674.4613115777975
 30
0.0
 10
710.0624285413669
 20
-692.1490711246242
 30
0.0
 10
701.3662519360114
 20
-707.626165899932
 30
0.0
 10
696.7984399122561
 20
-715.5850473523333
 30
0.0
 10
687.8068569707848
 20
-731.062142127641
 30
0.0
 10
676.0150172729009
 20
-725.1662222786999
 30
0.0
 10
675.2777221199467
 20
-724.8708159425823
 30
0.0
 10
674.6869094477152
 20
-724.4289271257476
 30
0.0
 10
674.0985381501596
 20
-723.987038308911
 30
0.0
 10
674.0985381501596
 20
-712.0474954429683
 30
0.0
 10
675.2777221199467
 20
-701.1406540660955
 30
0.0
 10
675.8660934175023
 20
-694.8028454003179
 30
0.0
  0
HATCH
  5
5D
330
41
100
AcDbEntity
  8
Layer 1
 62
     7
420
 16777215
100
AcDbHatch
 10
0.0
 20
0.0
 30
0.0
210
0.0
220
0.0
230
1.0
  2
SOLID
 70
     1
 71
     0
 91
        3
 92
        1
 93
        1
 72
     4
 94
        3
 73
     0
 74
     1
 95
      134
 96
      130
 40
0.0
 40
0.0
 40
0.0
 40
0.0
 40
1.0
 40
1.0
 40
1.0
 40
2.0
 40
2.0
 40
2.0
 40
3.0
 40
3.0
 40
3.0
 40
4.0
 40
4.0
 40
4.0
 40
5.0
 40
5.0
 40
5.0
 40
6.0
 40
6.0
 40
6.0
 40
7.0
 40
7.0
 40
7.0
 40
8.0
 40
8.0
 40
8.0
 40
9.0
 40
9.0
 40
9.0
 40
10.0
 40
10.0
 40
10.0
 40
11.0
 40
11.0
 40
11.0
 40
12.0
 40
12.0
 40
12.0
 40
13.0
 40
13.0
 40
13.0
 40
14.0
 40
14.0
 40
14.0
 40
15.0
 40
15.0
 40
15.0
 40
16.0
 40
16.0
 40
16.0
 40
17.0
 40
17.0
 40
17.0
 40
18.0
 40
18.0
 40
18.0
 40
19.0
 40
19.0
 40
19.0
 40
20.0
 40
20.0
 40
20.0
 40
21.0
 40
21.0
 40
21.0
 40
22.0
 40
22.0
 40
22.0
 40
23.0
 40
23.0
 40
23.0
 40
24.0
 40
24.0
 40
24.0
 40
25.0
 40
25.0
 40
25.0
 40
26.0
 40
26.0
 40
26.0
 40
27.0
 40
27.0
 40
27.0
 40
28.0
 40
28.0
 40
28.0
 40
29.0
 40
29.0
 40
29.0
 40
30.0
 40
30.0
 40
30.0
 40
31.0
 40
31.0
 40
31.0
 40
32.0
 40
32.0
 40
32.0
 40
33.0
 40
33.0
 40
33.0
 40
34.0
 40
34.0
 40
34.0
 40
35.0
 40
35.0
 40
35.0
 40
36.0
 40
36.0
 40
36.0
 40
37.0
 40
37.0
 40
37.0
 40
38.0
 40
38.0
 40
38.0
 40
39.0
 40
39.0
 40
39.0
 40
40.0
 40
40.0
 40
40.0
 40
41.0
 40
41.0
 40
41.0
 40
42.0
 40
42.0
 40
42.0
 40
43.0
 40
43.0
 40
43.0
 40
43.0
 10
766.958665427328
 20
-689.9384063531052
 10
764.1584086709154
 20
-705.4155011284129
 10
751.0409025225235
 20
-734.8951003731236
 10
747.0590204216442
 20
-741.527094687679
 10
737.7744725187349
 20
-756.7087831268709
 10
723.4753410258745
 20
-779.4086848889674
 10
704.4619150285416
 20
-778.671389736015
 10
682.6482322747943
 20
-777.7876121023437
 10
675.8660934175023
 20
-756.5623006461501
 10
674.3915031115976
 20
-735.0415828538426
 10
675.5731284560643
 20
-735.1892860219014
 10
676.7498710511736
 20
-735.4834716706791
 10
677.9314963956422
 20
-735.4834716706791
 10
695.1749257509528
 20
-736.9580619765838
 10
707.7040606017908
 20
-725.0185191106411
 10
715.9583483903098
 20
-711.1637178092969
 10
728.9293720579808
 20
-689.3488143682116
 10
750.745496186406
 20
-620.0711457994712
 10
705.345692662213
 20
-620.21884896753
 10
665.1069552086883
 20
-620.366552135587
 10
648.8937859677662
 20
-676.5242731812577
 10
647.1237893257439
 20
-708.2157578848255
 10
646.7173004417491
 20
-714.9727200657453
 10
646.4615664441608
 20
-722.1515823083173
 10
646.6312419843271
 20
-729.3986504559762
 10
620.3800555802973
 20
-807.6694278253617
 10
583.9751918877591
 20
-785.25669275984
 10
578.2770233877873
 20
-778.5249072552961
 10
569.7297706378304
 20
-768.3541403440358
 10
568.8435516294794
 20
-758.1833734327756
 10
568.2551803319238
 20
-745.3600529331616
 10
566.9270725067381
 20
-719.1225992616983
 10
570.3181419353841
 20
-690.9698871548353
 10
581.2262039995967
 20
-666.9443189422309
 10
583.5845719391746
 20
-661.4902879101246
 10
586.2383462148682
 20
-655.8897743972993
 10
589.7734567495536
 20
-651.1730385181454
 10
594.6391164841061
 20
-644.6863059969692
 10
594.6391164841061
 20
-648.0773754256152
 10
597.1439669044012
 20
-654.8570729082294
 10
602.4515154557885
 20
-669.5968725305847
 10
599.0604460271425
 20
-683.4528945192687
 10
599.35585236326
 20
-698.3403973096829
 10
599.35585236326
 20
-707.3307595638144
 10
622.7906079036293
 20
-701.2871365468145
 10
624.1187157288168
 20
-694.5074390642003
 10
625.7397885154405
 20
-685.515856122729
 10
629.8657117223611
 20
-657.2154408478073
 10
619.4019798496629
 20
-642.4756412254519
 10
610.114990572074
 20
-629.504617557779
 10
590.6596757579046
 20
-627.5893591223776
 10
577.2467632733969
 20
-634.8109454218265
 10
559.8519686880081
 20
-644.0979346994154
 10
551.893087235605
 20
-667.0908014229499
 10
547.176351356451
 20
-684.7785609697767
 10
543.6705373179084
 20
-698.1821657133223
 10
541.5685137195887
 20
-712.0903720857623
 10
540.8544116260837
 20
-725.9987310441193
 10
538.8320378766548
 20
-732.2452933312834
 10
536.5463008337683
 20
-738.4120531836379
 10
533.9001558539458
 20
-744.4750546121504
 10
530.0671976084632
 20
-753.3189343855629
 10
525.7923505461458
 20
-761.8686285101994
 10
520.3383195140395
 20
-769.8275099626007
 10
518.717246727414
 20
-772.4812842382944
 10
516.8007676046745
 20
-774.9873553459292
 10
514.7378060012143
 20
-777.4922057662261
 10
514.1469933289809
 20
-775.5757266434848
 10
513.5586220314253
 20
-773.5127650400245
 10
513.4096981760267
 20
-771.4498034365643
 10
505.4508167236254
 20
-730.914438959584
 10
509.1348511137094
 20
-688.4638160472005
 10
512.2305142062396
 20
-647.4877834407216
 10
512.674844397754
 20
-641.0022716068852
 10
501.175969661308
 20
-639.0857924841439
 10
492.7751993920701
 20
-641.296457255663
 10
492.3333105752336
 20
-640.7068652707694
 10
492.037904239116
 20
-640.2649764539328
 10
491.5960154222812
 20
-639.8230876370963
 10
481.278766030302
 20
-628.4731367560489
 10
460.9372322077816
 20
-629.504617557779
 10
449.5872813267342
 20
-638.6439036673091
 10
434.6997785363201
 20
-650.435743365193
 10
427.9200810537059
 20
-674.3136084097387
 10
423.2033451745519
 20
-691.7071823077877
 10
417.7493141424457
 20
-712.0474954429683
 10
415.2444637221506
 20
-732.8309180823235
 10
416.4236476919377
 20
-753.7620438897393
 10
417.3074253256109
 20
-769.679806794542
 10
419.2239044483504
 20
-790.9051182507355
 10
436.3208513229438
 20
-797.6860364206877
 10
455.7786075117929
 20
-805.2030290562543
 10
468.1588185072324
 20
-790.6109326019578
 10
475.3828461813591
 20
-774.5442458417547
 10
478.034179082375
 20
-768.6483259928136
 10
480.392547021951
 20
-762.458220495093
 10
482.3090261446923
 20
-756.1204118293153
 10
483.783616450597
 20
-772.1858779021786
 10
488.0584635129162
 20
-788.6944534792165
 10
502.5040774864938
 20
-792.675114892756
 10
526.2342393629806
 20
-799.1594060392526
 10
534.0466383346647
 20
-777.3457232855071
 10
540.3844470004424
 20
-759.5102605706215
 10
540.8458668147068
 20
-758.223503529056
 10
541.2547970733813
 20
-756.9166051463908
 10
541.6939393437042
 20
-755.6213032934484
 10
543.6546683824981
 20
-769.6059552105144
 10
548.630495149424
 20
-783.208226818535
 10
559.1146735350558
 20
-793.1170037095926
 10
570.4646244161031
 20
-804.0238450864654
 10
590.9550820940203
 20
-806.3822130260414
 10
606.1355498458724
 20
-803.4342531015718
 10
624.0616485957034
 20
-799.9388149054121
 10
639.3065076047042
 20
-781.0019870386222
 10
649.2075026139737
 20
-753.2533224410745
 10
650.3964520824757
 20
-758.7886817671642
 10
652.0486523962536
 20
-764.1311724936386
 10
654.3478169998725
 20
-769.0914354969882
 10
663.043993605228
 20
-787.6629726774863
 10
681.6155307857262
 20
-796.5068524508988
 10
701.51517579141
 20
-795.0334828323339
 10
722.5915633922032
 20
-793.5588925264274
 10
740.5747292751475
 20
-774.1023570249199
 10
752.5130514537504
 20
-748.8976048425266
 10
761.9465232120583
 20
-729.2933661729585
 10
770.496217336693
 20
-705.8573899452495
 10
774.180251726777
 20
-690.086109521164
 10
775.5083595519645
 20
-684.3366721529401
 10
767.991366916398
 20
-683.8947833361053
 10
766.958665427328
 20
-689.9384063531052
 97
        0
 97
        0
 92
        1
 93
        1
 72
     4
 94
        3
 73
     0
 74
     1
 95
       41
 96
       37
 40
0.0
 40
0.0
 40
0.0
 40
0.0
 40
1.0
 40
1.0
 40
1.0
 40
2.0
 40
2.0
 40
2.0
 40
3.0
 40
3.0
 40
3.0
 40
4.0
 40
4.0
 40
4.0
 40
5.0
 40
5.0
 40
5.0
 40
6.0
 40
6.0
 40
6.0
 40
7.0
 40
7.0
 40
7.0
 40
8.0
 40
8.0
 40
8.0
 40
9.0
 40
9.0
 40
9.0
 40
10.0
 40
10.0
 40
10.0
 40
11.0
 40
11.0
 40
11.0
 40
12.0
 40
12.0
 40
12.0
 40
12.0
 10
469.6334088131371
 20
-724.2824446450286
 10
466.6842282013258
 20
-735.0415828538426
 10
463.5910064834752
 20
-745.8019417499963
 10
459.7580482379926
 20
-756.2668943100343
 10
458.1369754513689
 20
-760.5417413723517
 10
453.8621283890516
 20
-773.0708762231898
 10
448.7035036930611
 20
-780.2924625226387
 10
446.9335070510406
 20
-775.5757266434848
 10
445.9032469366484
 20
-769.533324313823
 10
445.6078406005327
 20
-767.1749563742469
 10
444.2821741500247
 20
-759.2148542345058
 10
443.986767813909
 20
-750.9605664459868
 10
443.986767813909
 20
-742.8539818255267
 10
443.986767813909
 20
-724.7243334618634
 10
446.6405420896026
 20
-706.446981930143
 10
451.9456492663103
 20
-689.053408032094
 10
454.3040172058863
 20
-681.0945265796927
 10
457.2507564430198
 20
-673.2821276080085
 10
460.7907497270626
 20
-665.617431804385
 10
462.4118225136863
 20
-661.9321767269612
 10
464.1793777810308
 20
-658.2481423368754
 10
466.0958569037721
 20
-654.8570729082294
 10
467.2750408735592
 20
-652.7941113047691
 10
468.4542248433481
 20
-650.582225845912
 10
469.9288151492528
 20
-648.371561074393
 10
470.812592782926
 20
-649.5507450441819
 10
471.8452942719941
 20
-650.7299290139708
 10
472.5825894249465
 20
-651.909112983758
 10
474.7920335091258
 20
-655.0047760762882
 10
476.4131062957513
 20
-658.5423279856532
 10
478.3295854184908
 20
-661.7856942462422
 10
479.3622869075607
 20
-663.7009526816437
 10
480.246064541232
 20
-665.617431804385
 10
480.9833596941844
 20
-667.5339109271245
 10
477.887696601656
 20
-686.548557611799
 10
474.9409573645244
 20
-705.7096867771907
 10
469.6334088131371
 20
-724.2824446450286
 97
        0
 97
        0
 92
        1
 93
        1
 72
     4
 94
        3
 73
     0
 74
     1
 95
       23
 96
       19
 40
0.0
 40
0.0
 40
0.0
 40
0.0
 40
1.0
 40
1.0
 40
1.0
 40
2.0
 40
2.0
 40
2.0
 40
3.0
 40
3.0
 40
3.0
 40
4.0
 40
4.0
 40
4.0
 40
5.0
 40
5.0
 40
5.0
 40
6.0
 40
6.0
 40
6.0
 40
6.0
 10
675.8660934175023
 20
-694.8028454003179
 10
679.9944579991006
 20
-652.7941113047691
 10
699.8916616301067
 20
-626.9985464501442
 10
708.736762090859
 20
-632.1583918334727
 10
715.8118659095908
 20
-636.1378325596743
 10
715.9583483903098
 20
-649.9938545483565
 10
715.8118659095908
 20
-656.7735520309707
 10
715.5164595734732
 20
-674.4613115777975
 10
710.0624285413669
 20
-692.1490711246242
 10
701.3662519360114
 20
-707.626165899932
 10
696.7984399122561
 20
-715.5850473523333
 10
687.8068569707848
 20
-731.062142127641
 10
676.0150172729009
 20
-725.1662222786999
 10
675.2777221199467
 20
-724.8708159425823
 10
674.6869094477152
 20
-724.4289271257476
 10
674.0985381501596
 20
-723.987038308911
 10
674.0985381501596
 20
-712.0474954429683
 10
675.2777221199467
 20
-701.1406540660955
 10
675.8660934175023
 20
-694.8028454003179
 97
        0
 97
        0
 75
     2
 76
     1
 98
        0
  0
SPLINE
  5
5E
330
41
100
AcDbEntity
  8
Layer 1
370
     0
100
AcDbSpline
210
0.0
220
0.0
230
1.0
 70
    11
 71
     3
 72
    86
 73
    82
 74
     0
 42
0.0000000001
 43
0.0000000001
 12
1.0
 22
0.0
 32
0.0
 13
1.0
 23
0.0
 33
0.0
 40
0.0
 40
0.0
 40
0.0
 40
0.0
 40
1.0
 40
1.0
 40
1.0
 40
2.0
 40
2.0
 40
2.0
 40
3.0
 40
3.0
 40
3.0
 40
4.0
 40
4.0
 40
4.0
 40
5.0
 40
5.0
 40
5.0
 40
6.0
 40
6.0
 40
6.0
 40
7.0
 40
7.0
 40
7.0
 40
8.0
 40
8.0
 40
8.0
 40
9.0
 40
9.0
 40
9.0
 40
10.0
 40
10.0
 40
10.0
 40
11.0
 40
11.0
 40
11.0
 40
12.0
 40
12.0
 40
12.0
 40
13.0
 40
13.0
 40
13.0
 40
14.0
 40
14.0
 40
14.0
 40
15.0
 40
15.0
 40
15.0
 40
16.0
 40
16.0
 40
16.0
 40
17.0
 40
17.0
 40
17.0
 40
18.0
 40
18.0
 40
18.0
 40
19.0
 40
19.0
 40
19.0
 40
20.0
 40
20.0
 40
20.0
 40
21.0
 40
21.0
 40
21.0
 40
22.0
 40
22.0
 40
22.0
 40
23.0
 40
23.0
 40
23.0
 40
24.0
 40
24.0
 40
24.0
 40
25.0
 40
25.0
 40
25.0
 40
26.0
 40
26.0
 40
26.0
 40
27.0
 40
27.0
 40
27.0
 40
27.0
 10
495.6334387971001
 20
-547.8679474361197
 30
0.0
 10
495.1241070047672
 20
-545.9607760543422
 30
0.0
 10
494.4008497562154
 20
-544.1286769439321
 30
0.0
 10
493.465192910624
 20
-542.3403699918199
 30
0.0
 10
492.5292308931948
 20
-540.5625914680077
 30
0.0
 10
491.3466900332241
 20
-539.3748626868437
 30
0.0
 10
489.9084151756633
 20
-538.7556690339698
 30
0.0
 10
488.4699877321855
 20
-538.1471563953164
 30
0.0
 10
486.9622862822016
 20
-537.9252964713942
 30
0.0
 10
485.4066728541493
 20
-538.0913099495428
 30
0.0
 10
483.8405309977934
 20
-538.2568656699386
 30
0.0
 10
482.2641658849716
 20
-538.6642700694392
 30
0.0
 10
480.676814586097
 20
-539.3345800046463
 30
0.0
 10
479.0896158731393
 20
-539.9943615115517
 30
0.0
 10
477.6453901648001
 20
-540.7655307381701
 30
0.0
 10
476.3243012918138
 20
-541.6157394700112
 30
0.0
 10
472.8372553211138
 20
-543.8596679715283
 30
0.0
 10
470.6603120373438
 20
-546.7594107460955
 30
0.0
 10
469.771346482481
 20
-550.3457901490347
 30
0.0
 10
468.893214527754
 20
-553.9220988814232
 30
0.0
 10
468.6850873363983
 20
-557.6003350066458
 30
0.0
 10
469.1681743509362
 20
-561.3711907837387
 30
0.0
 10
469.3874403142618
 20
-562.6655771211772
 30
0.0
 10
469.935376343703
 20
-564.4059720952191
 30
0.0
 10
470.8016065968714
 20
-566.591612776283
 30
0.0
 10
471.6779075205886
 20
-568.7883922293149
 30
0.0
 10
472.5204869565587
 20
-571.0361353787666
 30
0.0
 10
473.3383474739076
 20
-573.3673430250437
 30
0.0
 10
474.1462899066228
 20
-575.6875644852662
 30
0.0
 10
474.7486991085807
 20
-577.8831232509601
 30
0.0
 10
475.1136846230384
 20
-579.9633270630875
 30
0.0
 10
475.4893511517166
 20
-582.0441412188866
 30
0.0
 10
475.2841230927916
 20
-583.6577372955562
 30
0.0
 10
474.497847860348
 20
-584.8147963073206
 30
0.0
 10
473.8136526066573
 20
-585.7972970295596
 30
0.0
 10
473.7732173385411
 20
-586.7543159035904
 30
0.0
 10
474.3759317123331
 20
-587.6962287717979
 30
0.0
 10
474.9787986720439
 20
-588.6382942259224
 30
0.0
 10
475.8842435059869
 20
-588.8976902855284
 30
0.0
 10
477.0916558704976
 20
-588.4957789790569
 30
0.0
 10
477.2744537995623
 20
-588.4086524202121
 30
0.0
 10
477.4348215987666
 20
-588.3523482166856
 30
0.0
 10
477.5738273695315
 20
-588.3055043400382
 30
0.0
 10
477.7227512249301
 20
-588.2696466494453
 30
0.0
 10
477.8832716100515
 20
-588.2131898600019
 30
0.0
 10
478.0660695391143
 20
-588.1262158870759
 30
0.0
 10
478.7154752036349
 20
-587.9640170568618
 30
0.0
 10
479.2353354242714
 20
-587.6278702807958
 30
0.0
 10
479.6270234742769
 20
-587.0860376880519
 30
0.0
 10
481.0593474810576
 20
-585.5980198214147
 30
0.0
 10
483.0074118887042
 20
-584.3741281778239
 30
0.0
 10
485.4809821959298
 20
-583.4251963574152
 30
0.0
 10
487.9440240748536
 20
-582.4758067792554
 30
0.0
 10
490.633503455223
 20
-581.6519954111282
 30
0.0
 10
493.5497255088721
 20
-580.9536096671163
 30
0.0
 10
496.4659475625194
 20
-580.2446954948027
 30
0.0
 10
499.3840006471783
 20
-579.5041960375838
 30
0.0
 10
502.2935089204602
 20
-578.710596681105
 30
0.0
 10
505.2133930361269
 20
-577.9176076682961
 30
0.0
 10
507.8482466580608
 20
-576.9018432160592
 30
0.0
 10
510.1858629128692
 20
-575.6732214090298
 30
0.0
 10
512.5240895113475
 20
-574.4447521879156
 30
0.0
 10
514.3609187851962
 20
-572.857858646792
 30
0.0
 10
515.6765145651552
 20
-570.8908735853875
 30
0.0
 10
517.0021810156632
 20
-568.9348747100339
 30
0.0
 10
517.5417248196445
 20
-566.3976760752466
 30
0.0
 10
517.304911475816
 20
-563.2693595963901
 30
0.0
 10
516.9698328011709
 20
-560.2318317383961
 30
0.0
 10
515.8144522344992
 20
-557.4123491563896
 30
0.0
 10
513.8174077473614
 20
-554.810148920782
 30
0.0
 10
511.8209736038953
 20
-552.2079486851744
 30
0.0
 10
509.129052848848
 20
-550.8404736932953
 30
0.0
 10
505.7535471837782
 20
-550.6978058605127
 30
0.0
 10
504.3760015213484
 20
-550.6395180400596
 30
0.0
 10
502.786666605547
 20
-550.8462719581566
 30
0.0
 10
500.9867631237121
 20
-551.3179150288888
 30
0.0
 10
499.1758734558225
 20
-551.7891003418699
 30
0.0
 10
497.5233679702105
 20
-552.4989300296875
 30
0.0
 10
496.0191759963272
 20
-553.4466411627545
 30
0.0
 10
496.2749099939156
 20
-551.6244601369781
 30
0.0
 10
496.1534516036536
 20
-549.7652007332672
 30
0.0
 10
495.6334387971001
 20
-547.8679474361197
 30
0.0
  0
HATCH
  5
5F
330
41
100
AcDbEntity
  8
Layer 1
 62
     7
420
 16777215
100
AcDbHatch
 10
0.0
 20
0.0
 30
0.0
210
0.0
220
0.0
230
1.0
  2
SOLID
 70
     1
 71
     0
 91
        1
 92
        1
 93
        1
 72
     4
 94
        3
 73
     0
 74
     1
 95
       86
 96
       82
 40
0.0
 40
0.0
 40
0.0
 40
0.0
 40
1.0
 40
1.0
 40
1.0
 40
2.0
 40
2.0
 40
2.0
 40
3.0
 40
3.0
 40
3.0
 40
4.0
 40
4.0
 40
4.0
 40
5.0
 40
5.0
 40
5.0
 40
6.0
 40
6.0
 40
6.0
 40
7.0
 40
7.0
 40
7.0
 40
8.0
 40
8.0
 40
8.0
 40
9.0
 40
9.0
 40
9.0
 40
10.0
 40
10.0
 40
10.0
 40
11.0
 40
11.0
 40
11.0
 40
12.0
 40
12.0
 40
12.0
 40
13.0
 40
13.0
 40
13.0
 40
14.0
 40
14.0
 40
14.0
 40
15.0
 40
15.0
 40
15.0
 40
16.0
 40
16.0
 40
16.0
 40
17.0
 40
17.0
 40
17.0
 40
18.0
 40
18.0
 40
18.0
 40
19.0
 40
19.0
 40
19.0
 40
20.0
 40
20.0
 40
20.0
 40
21.0
 40
21.0
 40
21.0
 40
22.0
 40
22.0
 40
22.0
 40
23.0
 40
23.0
 40
23.0
 40
24.0
 40
24.0
 40
24.0
 40
25.0
 40
25.0
 40
25.0
 40
26.0
 40
26.0
 40
26.0
 40
27.0
 40
27.0
 40
27.0
 40
27.0
 10
495.6334387971001
 20
-547.8679474361197
 10
495.1241070047672
 20
-545.9607760543422
 10
494.4008497562154
 20
-544.1286769439321
 10
493.465192910624
 20
-542.3403699918199
 10
492.5292308931948
 20
-540.5625914680077
 10
491.3466900332241
 20
-539.3748626868437
 10
489.9084151756633
 20
-538.7556690339698
 10
488.4699877321855
 20
-538.1471563953164
 10
486.9622862822016
 20
-537.9252964713942
 10
485.4066728541493
 20
-538.0913099495428
 10
483.8405309977934
 20
-538.2568656699386
 10
482.2641658849716
 20
-538.6642700694392
 10
480.676814586097
 20
-539.3345800046463
 10
479.0896158731393
 20
-539.9943615115517
 10
477.6453901648001
 20
-540.7655307381701
 10
476.3243012918138
 20
-541.6157394700112
 10
472.8372553211138
 20
-543.8596679715283
 10
470.6603120373438
 20
-546.7594107460955
 10
469.771346482481
 20
-550.3457901490347
 10
468.893214527754
 20
-553.9220988814232
 10
468.6850873363983
 20
-557.6003350066458
 10
469.1681743509362
 20
-561.3711907837387
 10
469.3874403142618
 20
-562.6655771211772
 10
469.935376343703
 20
-564.4059720952191
 10
470.8016065968714
 20
-566.591612776283
 10
471.6779075205886
 20
-568.7883922293149
 10
472.5204869565587
 20
-571.0361353787666
 10
473.3383474739076
 20
-573.3673430250437
 10
474.1462899066228
 20
-575.6875644852662
 10
474.7486991085807
 20
-577.8831232509601
 10
475.1136846230384
 20
-579.9633270630875
 10
475.4893511517166
 20
-582.0441412188866
 10
475.2841230927916
 20
-583.6577372955562
 10
474.497847860348
 20
-584.8147963073206
 10
473.8136526066573
 20
-585.7972970295596
 10
473.7732173385411
 20
-586.7543159035904
 10
474.3759317123331
 20
-587.6962287717979
 10
474.9787986720439
 20
-588.6382942259224
 10
475.8842435059869
 20
-588.8976902855284
 10
477.0916558704976
 20
-588.4957789790569
 10
477.2744537995623
 20
-588.4086524202121
 10
477.4348215987666
 20
-588.3523482166856
 10
477.5738273695315
 20
-588.3055043400382
 10
477.7227512249301
 20
-588.2696466494453
 10
477.8832716100515
 20
-588.2131898600019
 10
478.0660695391143
 20
-588.1262158870759
 10
478.7154752036349
 20
-587.9640170568618
 10
479.2353354242714
 20
-587.6278702807958
 10
479.6270234742769
 20
-587.0860376880519
 10
481.0593474810576
 20
-585.5980198214147
 10
483.0074118887042
 20
-584.3741281778239
 10
485.4809821959298
 20
-583.4251963574152
 10
487.9440240748536
 20
-582.4758067792554
 10
490.633503455223
 20
-581.6519954111282
 10
493.5497255088721
 20
-580.9536096671163
 10
496.4659475625194
 20
-580.2446954948027
 10
499.3840006471783
 20
-579.5041960375838
 10
502.2935089204602
 20
-578.710596681105
 10
505.2133930361269
 20
-577.9176076682961
 10
507.8482466580608
 20
-576.9018432160592
 10
510.1858629128692
 20
-575.6732214090298
 10
512.5240895113475
 20
-574.4447521879156
 10
514.3609187851962
 20
-572.857858646792
 10
515.6765145651552
 20
-570.8908735853875
 10
517.0021810156632
 20
-568.9348747100339
 10
517.5417248196445
 20
-566.3976760752466
 10
517.304911475816
 20
-563.2693595963901
 10
516.9698328011709
 20
-560.2318317383961
 10
515.8144522344992
 20
-557.4123491563896
 10
513.8174077473614
 20
-554.810148920782
 10
511.8209736038953
 20
-552.2079486851744
 10
509.129052848848
 20
-550.8404736932953
 10
505.7535471837782
 20
-550.6978058605127
 10
504.3760015213484
 20
-550.6395180400596
 10
502.786666605547
 20
-550.8462719581566
 10
500.9867631237121
 20
-551.3179150288888
 10
499.1758734558225
 20
-551.7891003418699
 10
497.5233679702105
 20
-552.4989300296875
 10
496.0191759963272
 20
-553.4466411627545
 10
496.2749099939156
 20
-551.6244601369781
 10
496.1534516036536
 20
-549.7652007332672
 10
495.6334387971001
 20
-547.8679474361197
 97
        0
 97
        0
 75
     2
 76
     1
 98
        0
  0
SPLINE
  5
60
330
41
100
AcDbEntity
  8
Layer 1
370
     0
100
AcDbSpline
210
0.0
220
0.0
230
1.0
 70
    11
 71
     3
 72
    86
 73
    82
 74
     0
 42
0.0000000001
 43
0.0000000001
 12
1.0
 22
0.0
 32
0.0
 13
1.0
 23
0.0
 33
0.0
 40
0.0
 40
0.0
 40
0.0
 40
0.0
 40
1.0
 40
1.0
 40
1.0
 40
2.0
 40
2.0
 40
2.0
 40
3.0
 40
3.0
 40
3.0
 40
4.0
 40
4.0
 40
4.0
 40
5.0
 40
5.0
 40
5.0
 40
6.0
 40
6.0
 40
6.0
 40
7.0
 40
7.0
 40
7.0
 40
8.0
 40
8.0
 40
8.0
 40
9.0
 40
9.0
 40
9.0
 40
10.0
 40
10.0
 40
10.0
 40
11.0
 40
11.0
 40
11.0
 40
12.0
 40
12.0
 40
12.0
 40
13.0
 40
13.0
 40
13.0
 40
14.0
 40
14.0
 40
14.0
 40
15.0
 40
15.0
 40
15.0
 40
16.0
 40
16.0
 40
16.0
 40
17.0
 40
17.0
 40
17.0
 40
18.0
 40
18.0
 40
18.0
 40
19.0
 40
19.0
 40
19.0
 40
20.0
 40
20.0
 40
20.0
 40
21.0
 40
21.0
 40
21.0
 40
22.0
 40
22.0
 40
22.0
 40
23.0
 40
23.0
 40
23.0
 40
24.0
 40
24.0
 40
24.0
 40
25.0
 40
25.0
 40
25.0
 40
26.0
 40
26.0
 40
26.0
 40
27.0
 40
27.0
 40
27.0
 40
27.0
 10
780.3575400074351
 20
-512.9958092840188
 30
0.0
 10
778.6613949494422
 20
-512.4020974793548
 30
0.0
 10
776.8727828254941
 20
-512.2989493991827
 30
0.0
 10
774.9852950270633
 20
-512.6973512295554
 30
0.0
 10
773.0981124004647
 20
-513.0956004740092
 30
0.0
 10
771.6894392108843
 20
-514.1759087693117
 30
0.0
 10
770.7568340836388
 20
-515.9300364759238
 30
0.0
 10
770.375979633769
 20
-516.6458170145197
 30
0.0
 10
770.0820991568271
 20
-517.5410385919986
 30
0.0
 10
769.8748874809771
 20
-518.6157012083568
 30
0.0
 10
769.6649292586135
 20
-519.6957043318253
 30
0.0
 10
769.6219000299025
 20
-520.7523618099294
 30
0.0
 10
769.7424429046605
 20
-521.7908615638589
 30
0.0
 10
768.8412704764032
 20
-521.1922670098375
 30
0.0
 10
767.8241327509095
 20
-520.7845574385028
 30
0.0
 10
766.6858418069896
 20
-520.5787190359097
 30
0.0
 10
765.5451094883902
 20
-520.3646409937755
 30
0.0
 10
764.3897289217184
 20
-520.283007527958
 30
0.0
 10
763.2038311715623
 20
-520.3251212411651
 30
0.0
 10
762.0231213425996
 20
-520.3701340868029
 30
0.0
 10
761.0929575900336
 20
-520.6955998486501
 30
0.0
 10
760.3993020094622
 20
-521.3010607689557
 30
0.0
 10
759.7114446937521
 20
-521.9095734076091
 30
0.0
 10
759.2109628846301
 20
-522.6528194113416
 30
0.0
 10
758.9039600187898
 20
-523.519965180014
 30
0.0
 10
758.5939054346
 20
-524.3927566276325
 30
0.0
 10
758.4095816463614
 20
-525.3322281211604
 30
0.0
 10
758.3619748401288
 20
-526.3443305113778
 30
0.0
 10
758.3088749408671
 20
-527.3536863550835
 30
0.0
 10
758.35129382591
 20
-528.3154353925547
 30
0.0
 10
758.4666487794748
 20
-529.2320189984712
 30
0.0
 10
758.7712102706373
 20
-531.6512687190971
 30
0.0
 10
759.7566101253069
 20
-533.5421134077114
 30
0.0
 10
761.432613842202
 20
-534.9243892335799
 30
0.0
 10
763.1064813562516
 20
-536.2982728339903
 30
0.0
 10
765.004344997069
 20
-537.3427234387018
 30
0.0
 10
767.1271202801545
 20
-538.0440083151443
 30
0.0
 10
767.8692981824643
 20
-538.2565604981046
 30
0.0
 10
768.9312961676787
 20
-538.4077731422622
 30
0.0
 10
770.3106728611165
 20
-538.503444512482
 30
0.0
 10
771.6982891940934
 20
-538.5963693361882
 30
0.0
 10
773.104215837162
 20
-538.7204216870468
 30
0.0
 10
774.5482889595842
 20
-538.8785006974904
 30
0.0
 10
775.9841224424654
 20
-539.0393262544458
 30
0.0
 10
777.3015492534323
 20
-539.2773602856141
 30
0.0
 10
778.4978228459713
 20
-539.6119812025081
 30
0.0
 10
779.6965378131899
 20
-539.9411090263729
 30
0.0
 10
780.5003604261365
 20
-540.4597485596696
 30
0.0
 10
780.9141734341665
 20
-541.1706463489099
 30
0.0
 10
781.2614589822042
 20
-541.7829736354979
 30
0.0
 10
781.7588890729803
 20
-542.0474050303801
 30
0.0
 10
782.4113464558504
 20
-541.9668396659836
 30
0.0
 10
783.0644141823886
 20
-541.8864268875059
 30
0.0
 10
783.4318410715259
 20
-541.4720035358041
 30
0.0
 10
783.525223652985
 20
-540.7296730475773
 30
0.0
 10
783.525528824819
 20
-540.6105034460761
 30
0.0
 10
783.5362098390378
 20
-540.5111700138386
 30
0.0
 10
783.5465856814226
 20
-540.4255693141677
 30
0.0
 10
783.5655063351824
 20
-540.3375272398189
 30
0.0
 10
783.5764925212352
 20
-540.2380412216644
 30
0.0
 10
783.5764925212352
 20
-540.1190242060802
 30
0.0
 10
783.6555320264561
 20
-539.7332870068531
 30
0.0
 10
783.6091459075633
 20
-539.3722687262471
 30
0.0
 10
783.4214652291412
 20
-539.0269667951361
 30
0.0
 10
782.9960556913866
 20
-537.8894387808014
 30
0.0
 10
782.8413335711266
 20
-536.5454620202036
 30
0.0
 10
782.966148851574
 20
-534.9925951386649
 30
0.0
 10
783.0882175855058
 20
-533.4452213501518
 30
0.0
 10
783.3341860843793
 20
-531.8095003154558
 30
0.0
 10
783.7043595200303
 20
-530.085584620494
 30
0.0
 10
784.0690398626539
 20
-528.3587697930998
 30
0.0
 10
784.4172409261955
 20
-526.6231049824964
 30
0.0
 10
784.7352299780905
 20
-524.878590188684
 30
0.0
 10
785.0559655764991
 20
-523.1284297159254
 30
0.0
 10
785.1862739499702
 20
-521.4733302697168
 30
0.0
 10
785.1285964731887
 20
-519.9213789036821
 30
0.0
 10
785.0706138245696
 20
-518.3694275376474
 30
0.0
 10
784.6952524677272
 20
-516.9921870470534
 30
0.0
 10
783.9863382954136
 20
-515.7948453530935
 30
0.0
 10
783.2853585908069
 20
-514.5950622844539
 30
0.0
 10
782.0768781248735
 20
-513.6647459459691
 30
0.0
 10
780.3575400074351
 20
-512.9958092840188
 30
0.0
  0
HATCH
  5
61
330
41
100
AcDbEntity
  8
Layer 1
 62
     7
420
 16777215
100
AcDbHatch
 10
0.0
 20
0.0
 30
0.0
210
0.0
220
0.0
230
1.0
  2
SOLID
 70
     1
 71
     0
 91
        1
 92
        1
 93
        1
 72
     4
 94
        3
 73
     0
 74
     1
 95
       86
 96
       82
 40
0.0
 40
0.0
 40
0.0
 40
0.0
 40
1.0
 40
1.0
 40
1.0
 40
2.0
 40
2.0
 40
2.0
 40
3.0
 40
3.0
 40
3.0
 40
4.0
 40
4.0
 40
4.0
 40
5.0
 40
5.0
 40
5.0
 40
6.0
 40
6.0
 40
6.0
 40
7.0
 40
7.0
 40
7.0
 40
8.0
 40
8.0
 40
8.0
 40
9.0
 40
9.0
 40
9.0
 40
10.0
 40
10.0
 40
10.0
 40
11.0
 40
11.0
 40
11.0
 40
12.0
 40
12.0
 40
12.0
 40
13.0
 40
13.0
 40
13.0
 40
14.0
 40
14.0
 40
14.0
 40
15.0
 40
15.0
 40
15.0
 40
16.0
 40
16.0
 40
16.0
 40
17.0
 40
17.0
 40
17.0
 40
18.0
 40
18.0
 40
18.0
 40
19.0
 40
19.0
 40
19.0
 40
20.0
 40
20.0
 40
20.0
 40
21.0
 40
21.0
 40
21.0
 40
22.0
 40
22.0
 40
22.0
 40
23.0
 40
23.0
 40
23.0
 40
24.0
 40
24.0
 40
24.0
 40
25.0
 40
25.0
 40
25.0
 40
26.0
 40
26.0
 40
26.0
 40
27.0
 40
27.0
 40
27.0
 40
27.0
 10
780.3575400074351
 20
-512.9958092840188
 10
778.6613949494422
 20
-512.4020974793548
 10
776.8727828254941
 20
-512.2989493991827
 10
774.9852950270633
 20
-512.6973512295554
 10
773.0981124004647
 20
-513.0956004740092
 10
771.6894392108843
 20
-514.1759087693117
 10
770.7568340836388
 20
-515.9300364759238
 10
770.375979633769
 20
-516.6458170145197
 10
770.0820991568271
 20
-517.5410385919986
 10
769.8748874809771
 20
-518.6157012083568
 10
769.6649292586135
 20
-519.6957043318253
 10
769.6219000299025
 20
-520.7523618099294
 10
769.7424429046605
 20
-521.7908615638589
 10
768.8412704764032
 20
-521.1922670098375
 10
767.8241327509095
 20
-520.7845574385028
 10
766.6858418069896
 20
-520.5787190359097
 10
765.5451094883902
 20
-520.3646409937755
 10
764.3897289217184
 20
-520.283007527958
 10
763.2038311715623
 20
-520.3251212411651
 10
762.0231213425996
 20
-520.3701340868029
 10
761.0929575900336
 20
-520.6955998486501
 10
760.3993020094622
 20
-521.3010607689557
 10
759.7114446937521
 20
-521.9095734076091
 10
759.2109628846301
 20
-522.6528194113416
 10
758.9039600187898
 20
-523.519965180014
 10
758.5939054346
 20
-524.3927566276325
 10
758.4095816463614
 20
-525.3322281211604
 10
758.3619748401288
 20
-526.3443305113778
 10
758.3088749408671
 20
-527.3536863550835
 10
758.35129382591
 20
-528.3154353925547
 10
758.4666487794748
 20
-529.2320189984712
 10
758.7712102706373
 20
-531.6512687190971
 10
759.7566101253069
 20
-533.5421134077114
 10
761.432613842202
 20
-534.9243892335799
 10
763.1064813562516
 20
-536.2982728339903
 10
765.004344997069
 20
-537.3427234387018
 10
767.1271202801545
 20
-538.0440083151443
 10
767.8692981824643
 20
-538.2565604981046
 10
768.9312961676787
 20
-538.4077731422622
 10
770.3106728611165
 20
-538.503444512482
 10
771.6982891940934
 20
-538.5963693361882
 10
773.104215837162
 20
-538.7204216870468
 10
774.5482889595842
 20
-538.8785006974904
 10
775.9841224424654
 20
-539.0393262544458
 10
777.3015492534323
 20
-539.2773602856141
 10
778.4978228459713
 20
-539.6119812025081
 10
779.6965378131899
 20
-539.9411090263729
 10
780.5003604261365
 20
-540.4597485596696
 10
780.9141734341665
 20
-541.1706463489099
 10
781.2614589822042
 20
-541.7829736354979
 10
781.7588890729803
 20
-542.0474050303801
 10
782.4113464558504
 20
-541.9668396659836
 10
783.0644141823886
 20
-541.8864268875059
 10
783.4318410715259
 20
-541.4720035358041
 10
783.525223652985
 20
-540.7296730475773
 10
783.525528824819
 20
-540.6105034460761
 10
783.5362098390378
 20
-540.5111700138386
 10
783.5465856814226
 20
-540.4255693141677
 10
783.5655063351824
 20
-540.3375272398189
 10
783.5764925212352
 20
-540.2380412216644
 10
783.5764925212352
 20
-540.1190242060802
 10
783.6555320264561
 20
-539.7332870068531
 10
783.6091459075633
 20
-539.3722687262471
 10
783.4214652291412
 20
-539.0269667951361
 10
782.9960556913866
 20
-537.8894387808014
 10
782.8413335711266
 20
-536.5454620202036
 10
782.966148851574
 20
-534.9925951386649
 10
783.0882175855058
 20
-533.4452213501518
 10
783.3341860843793
 20
-531.8095003154558
 10
783.7043595200303
 20
-530.085584620494
 10
784.0690398626539
 20
-528.3587697930998
 10
784.4172409261955
 20
-526.6231049824964
 10
784.7352299780905
 20
-524.878590188684
 10
785.0559655764991
 20
-523.1284297159254
 10
785.1862739499702
 20
-521.4733302697168
 10
785.1285964731887
 20
-519.9213789036821
 10
785.0706138245696
 20
-518.3694275376474
 10
784.6952524677272
 20
-516.9921870470534
 10
783.9863382954136
 20
-515.7948453530935
 10
783.2853585908069
 20
-514.5950622844539
 10
782.0768781248735
 20
-513.6647459459691
 10
780.3575400074351
 20
-512.9958092840188
 97
        0
 97
        0
 75
     2
 76
     1
 98
        0
  0
ENDBLK
  5
44
330
41
100
AcDbEntity
  8
0
100
AcDbBlockEnd
  0
ENDSEC
  0
SECTION
  2
ENTITIES
  0
INSERT
  5
42
330
1F
100
AcDbEntity
  8
Layer 1
100
AcDbBlockReference
  2
block 2
 10
0.0
 20
0.0
 30
0.0
  0
ENDSEC
  0
SECTION
  2
OBJECTS
  0
DICTIONARY
  5
C
330
0
100
AcDbDictionary
281
     1
  3
ACAD_GROUP
350
D
  3
ACAD_LAYOUT
350
1A
  3
ACAD_MATERIAL
350
3B
  3
ACAD_MLEADERSTYLE
350
63
  3
ACAD_MLINESTYLE
350
17
  3
ACAD_PLOTSETTINGS
350
19
  3
ACAD_PLOTSTYLENAME
350
E
  3
ACAD_TABLESTYLE
350
62
  3
ACAD_VISUALSTYLE
350
2A
  0
SUN
  5
3F
330
29
100
AcDbSun
 90
        1
290
     0
 63
     7
421
 16777215
 40
1.0
291
     1
 91
  2455826
 92
 54000000
292
     0
 70
     2
 71
   256
280
     1
  0
DICTIONARY
  5
D
102
{ACAD_REACTORS
330
C
102
}
330
C
100
AcDbDictionary
281
     1
  0
DICTIONARY
  5
1A
102
{ACAD_REACTORS
330
C
102
}
330
C
100
AcDbDictionary
281
     1
  3
Layout1
350
1E
  3
Layout2
350
26
  3
Model
350
22
  0
DICTIONARY
  5
3B
102
{ACAD_REACTORS
330
C
102
}
330
C
100
AcDbDictionary
281
     1
  3
ByBlock
350
3D
  3
ByLayer
350
3C
  3
Global
350
3E
  0
DICTIONARY
  5
63
102
{ACAD_REACTORS
330
C
102
}
330
C
100
AcDbDictionary
281
     1
  0
DICTIONARY
  5
17
102
{ACAD_REACTORS
330
C
102
}
330
C
100
AcDbDictionary
281
     1
  3
Standard
350
18
  0
DICTIONARY
  5
19
102
{ACAD_REACTORS
330
C
102
}
330
C
100
AcDbDictionary
281
     1
  0
ACDBDICTIONARYWDFLT
  5
E
102
{ACAD_REACTORS
330
C
102
}
330
C
100
AcDbDictionary
281
     1
  3
Normal
350
F
100
AcDbDictionaryWithDefault
340
F
  0
DICTIONARY
  5
62
102
{ACAD_REACTORS
330
C
102
}
330
C
100
AcDbDictionary
281
     1
  0
DICTIONARY
  5
2A
102
{ACAD_REACTORS
330
C
102
}
330
C
100
AcDbDictionary
281
     1
  3
2dWireframe
350
2F
  3
3D Hidden
350
31
  3
3dWireframe
350
30
  3
Basic
350
32
  3
Brighten
350
36
  3
ColorChange
350
3A
  3
Conceptual
350
34
  3
Dim
350
35
  3
Facepattern
350
39
  3
Flat
350
2B
  3
FlatWithEdges
350
2C
  3
Gouraud
350
2D
  3
GouraudWithEdges
350
2E
  3
Linepattern
350
38
  3
Realistic
350
33
  3
Thicken
350
37
  0
LAYOUT
  5
1E
102
{ACAD_REACTORS
330
1A
102
}
330
1A
100
AcDbPlotSettings
  1

  2
none_device
  4

  6

 40
0.0
 41
0.0
 42
0.0
 43
0.0
 44
0.0
 45
0.0
 46
0.0
 47
0.0
 48
0.0
 49
0.0
140
0.0
141
0.0
142
1.0
143
1.0
 70
   688
 72
     0
 73
     0
 74
     5
  7

 75
    16
 76
     0
 77
     2
 78
   300
147
1.0
148
0.0
149
0.0
100
AcDbLayout
  1
Layout1
 70
     1
 71
     1
 10
0.0
 20
0.0
 11
12.0
 21
9.0
 12
0.0
 22
0.0
 32
0.0
 14
1.000000000000000E+20
 24
1.000000000000000E+20
 34
1.000000000000000E+20
 15
-1.000000000000000E+20
 25
-1.000000000000000E+20
 35
-1.000000000000000E+20
146
0.0
 13
0.0
 23
0.0
 33
0.0
 16
1.0
 26
0.0
 36
0.0
 17
0.0
 27
1.0
 37
0.0
 76
     0
330
1B
  0
LAYOUT
  5
26
102
{ACAD_REACTORS
330
1A
102
}
330
1A
100
AcDbPlotSettings
  1

  2
none_device
  4

  6

 40
0.0
 41
0.0
 42
0.0
 43
0.0
 44
0.0
 45
0.0
 46
0.0
 47
0.0
 48
0.0
 49
0.0
140
0.0
141
0.0
142
1.0
143
1.0
 70
   688
 72
     0
 73
     0
 74
     5
  7

 75
    16
 76
     0
 77
     2
 78
   300
147
1.0
148
0.0
149
0.0
100
AcDbLayout
  1
Layout2
 70
     1
 71
     2
 10
0.0
 20
0.0
 11
0.0
 21
0.0
 12
0.0
 22
0.0
 32
0.0
 14
0.0
 24
0.0
 34
0.0
 15
0.0
 25
0.0
 35
0.0
146
0.0
 13
0.0
 23
0.0
 33
0.0
 16
1.0
 26
0.0
 36
0.0
 17
0.0
 27
1.0
 37
0.0
 76
     0
330
23
  0
LAYOUT
  5
22
102
{ACAD_REACTORS
330
1A
102
}
330
1A
100
AcDbPlotSettings
  1

  2
none_device
  4

  6

 40
0.0
 41
0.0
 42
0.0
 43
0.0
 44
0.0
 45
0.0
 46
0.0
 47
0.0
 48
0.0
 49
0.0
140
0.0
141
0.0
142
1.0
143
1.0
 70
  1712
 72
     0
 73
     0
 74
     0
  7

 75
     0
 76
     0
 77
     2
 78
   300
147
1.0
148
0.0
149
0.0
100
AcDbLayout
  1
Model
 70
     1
 71
     0
 10
0.0
 20
0.0
 11
12.0
 21
9.0
 12
0.0
 22
0.0
 32
0.0
 14
1.000000000000000E+20
 24
1.000000000000000E+20
 34
1.000000000000000E+20
 15
-1.000000000000000E+20
 25
-1.000000000000000E+20
 35
-1.000000000000000E+20
146
0.0
 13
0.0
 23
0.0
 33
0.0
 16
1.0
 26
0.0
 36
0.0
 17
0.0
 27
1.0
 37
0.0
 76
     0
330
1F
331
29
  0
MATERIAL
  5
3D
102
{ACAD_REACTORS
330
3B
102
}
330
3B
100
AcDbMaterial
  1
ByBlock
 72
     1
 94
      127
  0
MATERIAL
  5
3C
102
{ACAD_REACTORS
330
3B
102
}
330
3B
100
AcDbMaterial
  1
ByLayer
 72
     1
 94
      127
  0
MATERIAL
  5
3E
102
{ACAD_REACTORS
330
3B
102
}
330
3B
100
AcDbMaterial
  1
Global
 72
     1
 94
      127
  0
MLINESTYLE
  5
18
102
{ACAD_REACTORS
330
17
102
}
330
17
100
AcDbMlineStyle
  2
Standard
 70
     0
  3

 62
   256
 51
90.0
 52
90.0
 71
     2
 49
0.5
 62
   256
  6
BYLAYER
 49
-0.5
 62
   256
  6
BYLAYER
  0
ACDBPLACEHOLDER
  5
F
102
{ACAD_REACTORS
330
E
102
}
330
E
  0
VISUALSTYLE
  5
2F
102
{ACAD_REACTORS
330
2A
102
}
330
2A
100
AcDbVisualStyle
  2
2dWireframe
 70
     4
177
     2
291
     0
 71
     0
176
     1
 72
     2
176
     1
 73
     0
176
     1
 90
        0
176
     1
 40
-0.6
176
     1
 41
-30.0
176
     1
 62
     5
 63
     7
421
 16777215
176
     1
 74
     1
176
     1
 91
        4
176
     1
 64
     7
176
     1
 65
   257
176
     1
 75
     1
176
     1
175
     1
176
     1
 42
1.0
176
     1
 92
        0
176
     1
 66
   257
176
     1
 43
1.0
176
     1
 76
     1
176
     1
 77
     6
176
     1
 78
     2
176
     1
 67
     7
176
     1
 79
     5
176
     1
170
     0
176
     1
171
     0
176
     1
290
     0
176
     1
 93
        1
176
     1
 44
0.0
176
     1
173
     0
176
     1
  0
VISUALSTYLE
  5
31
102
{ACAD_REACTORS
330
2A
102
}
330
2A
100
AcDbVisualStyle
  2
3D Hidden
 70
     6
177
     2
291
     0
 71
     1
176
     1
 72
     2
176
     1
 73
     2
176
     1
 90
        0
176
     1
 40
-0.6
176
     1
 41
-30.0
176
     1
 62
     5
 63
     7
421
 16777215
176
     1
 74
     2
176
     1
 91
        2
176
     1
 64
     7
176
     1
 65
   257
176
     1
 75
     2
176
     1
175
     1
176
     1
 42
40.0
176
     1
 92
        0
176
     1
 66
   257
176
     1
 43
1.0
176
     1
 76
     1
176
     1
 77
     6
176
     1
 78
     2
176
     1
 67
     7
176
     1
 79
     3
176
     1
170
     0
176
     1
171
     0
176
     1
290
     0
176
     1
 93
        1
176
     1
 44
0.0
176
     1
173
     0
176
     1
  0
VISUALSTYLE
  5
30
102
{ACAD_REACTORS
330
2A
102
}
330
2A
100
AcDbVisualStyle
  2
3dWireframe
 70
     5
177
     2
291
     0
 71
     0
176
     1
 72
     2
176
     1
 73
     0
176
     1
 90
        0
176
     1
 40
-0.6
176
     1
 41
-30.0
176
     1
 62
     5
 63
     7
421
 16777215
176
     1
 74
     1
176
     1
 91
        4
176
     1
 64
     7
176
     1
 65
   257
176
     1
 75
     1
176
     1
175
     1
176
     1
 42
1.0
176
     1
 92
        0
176
     1
 66
   257
176
     1
 43
1.0
176
     1
 76
     1
176
     1
 77
     6
176
     1
 78
     2
176
     1
 67
     7
176
     1
 79
     5
176
     1
170
     0
176
     1
171
     0
176
     1
290
     0
176
     1
 93
        1
176
     1
 44
0.0
176
     1
173
     0
176
     1
  0
VISUALSTYLE
  5
32
102
{ACAD_REACTORS
330
2A
102
}
330
2A
100
AcDbVisualStyle
  2
Basic
 70
     7
177
     2
291
     1
 71
     1
176
     1
 72
     0
176
     1
 73
     1
176
     1
 90
        0
176
     1
 40
-0.6
176
     1
 41
-30.0
176
     1
 62
     5
 63
     7
421
 16777215
176
     1
 74
     0
176
     1
 91
        4
176
     1
 64
     7
176
     1
 65
   257
176
     1
 75
     1
176
     1
175
     1
176
     1
 42
1.0
176
     1
 92
        8
176
     1
 66
     7
176
     1
 43
1.0
176
     1
 76
     1
176
     1
 77
     6
176
     1
 78
     2
176
     1
 67
     7
176
     1
 79
     5
176
     1
170
     0
176
     1
171
     0
176
     1
290
     0
176
     1
 93
        1
176
     1
 44
0.0
176
     1
173
     0
176
     1
  0
VISUALSTYLE
  5
36
102
{ACAD_REACTORS
330
2A
102
}
330
2A
100
AcDbVisualStyle
  2
Brighten
 70
    12
177
     2
291
     1
 71
     2
176
     1
 72
     2
176
     1
 73
     0
176
     1
 90
        0
176
     1
 40
-0.6
176
     1
 41
-30.0
176
     1
 62
     5
 63
     7
421
 16777215
176
     1
 74
     1
176
     1
 91
        4
176
     1
 64
     7
176
     1
 65
   257
176
     1
 75
     1
176
     1
175
     1
176
     1
 42
1.0
176
     1
 92
        8
176
     1
 66
     7
176
     1
 43
1.0
176
     1
 76
     1
176
     1
 77
     6
176
     1
 78
     2
176
     1
 67
     7
176
     1
 79
     5
176
     1
170
     0
176
     1
171
     0
176
     1
290
     0
176
     1
 93
        1
176
     1
 44
50.0
176
     1
173
     0
176
     1
  0
VISUALSTYLE
  5
3A
102
{ACAD_REACTORS
330
2A
102
}
330
2A
100
AcDbVisualStyle
  2
ColorChange
 70
    16
177
     2
291
     1
 71
     2
176
     1
 72
     2
176
     1
 73
     3
176
     1
 90
        0
176
     1
 40
-0.6
176
     1
 41
-30.0
176
     1
 62
     5
 63
     8
421
  8421504
176
     1
 74
     1
176
     1
 91
        4
176
     1
 64
     7
176
     1
 65
   257
176
     1
 75
     1
176
     1
175
     1
176
     1
 42
1.0
176
     1
 92
        8
176
     1
 66
     8
424
  8421504
176
     1
 43
1.0
176
     1
 76
     1
176
     1
 77
     6
176
     1
 78
     2
176
     1
 67
     7
176
     1
 79
     5
176
     1
170
     0
176
     1
171
     0
176
     1
290
     0
176
     1
 93
        1
176
     1
 44
0.0
176
     1
173
     0
176
     1
  0
VISUALSTYLE
  5
34
102
{ACAD_REACTORS
330
2A
102
}
330
2A
100
AcDbVisualStyle
  2
Conceptual
 70
     9
177
     2
291
     0
 71
     3
176
     1
 72
     2
176
     1
 73
     0
176
     1
 90
        0
176
     1
 40
-0.6
176
     1
 41
-30.0
176
     1
 62
     5
 63
     7
421
 16777215
176
     1
 74
     2
176
     1
 91
        2
176
     1
 64
     7
176
     1
 65
   257
176
     1
 75
     1
176
     1
175
     1
176
     1
 42
40.0
176
     1
 92
        8
176
     1
 66
     7
176
     1
 43
1.0
176
     1
 76
     1
176
     1
 77
     6
176
     1
 78
     2
176
     1
 67
     7
176
     1
 79
     3
176
     1
170
     0
176
     1
171
     0
176
     1
290
     0
176
     1
 93
        1
176
     1
 44
0.0
176
     1
173
     0
176
     1
  0
VISUALSTYLE
  5
35
102
{ACAD_REACTORS
330
2A
102
}
330
2A
100
AcDbVisualStyle
  2
Dim
 70
    11
177
     2
291
     1
 71
     2
176
     1
 72
     2
176
     1
 73
     0
176
     1
 90
        0
176
     1
 40
-0.6
176
     1
 41
-30.0
176
     1
 62
     5
 63
     7
421
 16777215
176
     1
 74
     1
176
     1
 91
        4
176
     1
 64
     7
176
     1
 65
   257
176
     1
 75
     1
176
     1
175
     1
176
     1
 42
1.0
176
     1
 92
        8
176
     1
 66
     7
176
     1
 43
1.0
176
     1
 76
     1
176
     1
 77
     6
176
     1
 78
     2
176
     1
 67
     7
176
     1
 79
     5
176
     1
170
     0
176
     1
171
     0
176
     1
290
     0
176
     1
 93
        1
176
     1
 44
-50.0
176
     1
173
     0
176
     1
  0
VISUALSTYLE
  5
39
102
{ACAD_REACTORS
330
2A
102
}
330
2A
100
AcDbVisualStyle
  2
Facepattern
 70
    15
177
     2
291
     1
 71
     2
176
     1
 72
     2
176
     1
 73
     0
176
     1
 90
        0
176
     1
 40
-0.6
176
     1
 41
-30.0
176
     1
 62
     5
 63
     7
421
 16777215
176
     1
 74
     1
176
     1
 91
        4
176
     1
 64
     7
176
     1
 65
   257
176
     1
 75
     1
176
     1
175
     1
176
     1
 42
1.0
176
     1
 92
        8
176
     1
 66
     7
176
     1
 43
1.0
176
     1
 76
     1
176
     1
 77
     6
176
     1
 78
     2
176
     1
 67
     7
176
     1
 79
     5
176
     1
170
     0
176
     1
171
     0
176
     1
290
     0
176
     1
 93
        1
176
     1
 44
0.0
176
     1
173
     0
176
     1
  0
VISUALSTYLE
  5
2B
102
{ACAD_REACTORS
330
2A
102
}
330
2A
100
AcDbVisualStyle
  2
Flat
 70
     0
177
     2
291
     1
 71
     2
176
     1
 72
     1
176
     1
 73
     1
176
     1
 90
        2
176
     1
 40
-0.6
176
     1
 41
30.0
176
     1
 62
     5
 63
     7
421
 16777215
176
     1
 74
     0
176
     1
 91
        4
176
     1
 64
     7
176
     1
 65
   257
176
     1
 75
     1
176
     1
175
     1
176
     1
 42
1.0
176
     1
 92
        8
176
     1
 66
     7
176
     1
 43
1.0
176
     1
 76
     1
176
     1
 77
     6
176
     1
 78
     2
176
     1
 67
     7
176
     1
 79
     5
176
     1
170
     0
176
     1
171
     0
176
     1
290
     0
176
     1
 93
       13
176
     1
 44
0.0
176
     1
173
     0
176
     1
  0
VISUALSTYLE
  5
2C
102
{ACAD_REACTORS
330
2A
102
}
330
2A
100
AcDbVisualStyle
  2
FlatWithEdges
 70
     1
177
     2
291
     1
 71
     2
176
     1
 72
     1
176
     1
 73
     1
176
     1
 90
        2
176
     1
 40
-0.6
176
     1
 41
30.0
176
     1
 62
     5
 63
     7
421
 16777215
176
     1
 74
     1
176
     1
 91
        4
176
     1
 64
     7
176
     1
 65
   257
176
     1
 75
     1
176
     1
175
     1
176
     1
 42
1.0
176
     1
 92
        0
176
     1
 66
   257
176
     1
 43
1.0
176
     1
 76
     1
176
     1
 77
     6
176
     1
 78
     2
176
     1
 67
     7
176
     1
 79
     5
176
     1
170
     0
176
     1
171
     0
176
     1
290
     0
176
     1
 93
       13
176
     1
 44
0.0
176
     1
173
     0
176
     1
  0
VISUALSTYLE
  5
2D
102
{ACAD_REACTORS
330
2A
102
}
330
2A
100
AcDbVisualStyle
  2
Gouraud
 70
     2
177
     2
291
     1
 71
     2
176
     1
 72
     2
176
     1
 73
     1
176
     1
 90
        2
176
     1
 40
-0.6
176
     1
 41
30.0
176
     1
 62
     5
 63
     7
421
 16777215
176
     1
 74
     0
176
     1
 91
        4
176
     1
 64
     7
176
     1
 65
   257
176
     1
 75
     1
176
     1
175
     1
176
     1
 42
1.0
176
     1
 92
        0
176
     1
 66
     7
176
     1
 43
1.0
176
     1
 76
     1
176
     1
 77
     6
176
     1
 78
     2
176
     1
 67
     7
176
     1
 79
     5
176
     1
170
     0
176
     1
171
     0
176
     1
290
     0
176
     1
 93
       13
176
     1
 44
0.0
176
     1
173
     0
176
     1
  0
VISUALSTYLE
  5
2E
102
{ACAD_REACTORS
330
2A
102
}
330
2A
100
AcDbVisualStyle
  2
GouraudWithEdges
 70
     3
177
     2
291
     1
 71
     2
176
     1
 72
     2
176
     1
 73
     1
176
     1
 90
        2
176
     1
 40
-0.6
176
     1
 41
30.0
176
     1
 62
     5
 63
     7
421
 16777215
176
     1
 74
     1
176
     1
 91
        4
176
     1
 64
     7
176
     1
 65
   257
176
     1
 75
     1
176
     1
175
     1
176
     1
 42
1.0
176
     1
 92
        0
176
     1
 66
   257
176
     1
 43
1.0
176
     1
 76
     1
176
     1
 77
     6
176
     1
 78
     2
176
     1
 67
     7
176
     1
 79
     5
176
     1
170
     0
176
     1
171
     0
176
     1
290
     0
176
     1
 93
       13
176
     1
 44
0.0
176
     1
173
     0
176
     1
  0
VISUALSTYLE
  5
38
102
{ACAD_REACTORS
330
2A
102
}
330
2A
100
AcDbVisualStyle
  2
Linepattern
 70
    14
177
     2
291
     1
 71
     2
176
     1
 72
     2
176
     1
 73
     0
176
     1
 90
        0
176
     1
 40
-0.6
176
     1
 41
-30.0
176
     1
 62
     5
 63
     7
421
 16777215
176
     1
 74
     1
176
     1
 91
        4
176
     1
 64
     7
176
     1
 65
   257
176
     1
 75
     7
176
     1
175
     7
176
     1
 42
1.0
176
     1
 92
        8
176
     1
 66
     7
176
     1
 43
1.0
176
     1
 76
     1
176
     1
 77
     6
176
     1
 78
     2
176
     1
 67
     7
176
     1
 79
     5
176
     1
170
     0
176
     1
171
     0
176
     1
290
     0
176
     1
 93
        1
176
     1
 44
0.0
176
     1
173
     0
176
     1
  0
VISUALSTYLE
  5
33
102
{ACAD_REACTORS
330
2A
102
}
330
2A
100
AcDbVisualStyle
  2
Realistic
 70
     8
177
     2
291
     0
 71
     2
176
     1
 72
     2
176
     1
 73
     0
176
     1
 90
        0
176
     1
 40
-0.6
176
     1
 41
-30.0
176
     1
 62
     5
 63
     7
421
 16777215
176
     1
 74
     1
176
     1
 91
        0
176
     1
 64
     7
176
     1
 65
   257
176
     1
 75
     1
176
     1
175
     1
176
     1
 42
1.0
176
     1
 92
        8
176
     1
 66
     8
424
  7895160
176
     1
 43
1.0
176
     1
 76
     1
176
     1
 77
     6
176
     1
 78
     2
176
     1
 67
     7
176
     1
 79
     5
176
     1
170
     0
176
     1
171
     0
176
     1
290
     0
176
     1
 93
       13
176
     1
 44
0.0
176
     1
173
     0
176
     1
  0
VISUALSTYLE
  5
37
102
{ACAD_REACTORS
330
2A
102
}
330
2A
100
AcDbVisualStyle
  2
Thicken
 70
    13
177
     2
291
     1
 71
     2
176
     1
 72
     2
176
     1
 73
     0
176
     1
 90
        0
176
     1
 40
-0.6
176
     1
 41
-30.0
176
     1
 62
     5
 63
     7
421
 16777215
176
     1
 74
     1
176
     1
 91
        4
176
     1
 64
     7
176
     1
 65
   257
176
     1
 75
     1
176
     1
175
     1
176
     1
 42
1.0
176
     1
 92
       12
176
     1
 66
     7
176
     1
 43
1.0
176
     1
 76
     1
176
     1
 77
     6
176
     1
 78
     2
176
     1
 67
     7
176
     1
 79
     5
176
     1
170
     0
176
     1
171
     0
176
     1
290
     0
176
     1
 93
        1
176
     1
 44
0.0
176
     1
173
     0
176
     1
  0
ENDSEC
  0
EOF
