<?xml version="1.0" encoding="utf-8"?>
<!-- Generator: Adobe Illustrator 22.0.0, SVG Export Plug-In . SVG Version: 6.00 Build 0)  -->
<svg version="1.1" id="Layer_1" xmlns="http://www.w3.org/2000/svg" xmlns:xlink="http://www.w3.org/1999/xlink" x="0px" y="0px"
	 viewBox="0 0 1080 1080" style="enable-background:new 0 0 1080 1080;" xml:space="preserve">
<g>
	<path d="M264.2,748.8c-10.6-5.4-23.5-3.6-35-2.4c-24.8,2.5-49.7,4.5-74.6,6.8c-4.9,0.4-8,2.9-9.6,6.2c-5.7,2.8-10.4,8-10.6,14.7
		c-1.5,44.8-2.9,89.8,1.7,134.4c2.2,21.7,4.4,45,12.3,65.5c7.6,19.9,25.6,37.1,47.8,37.9c24.7,0.9,45.6-10.9,65-25
		c12.2-8.9-0.2-30.9-13.9-23.2c-9,5-18.4,10.7-28.5,12.9c-4.5,1-8.3,1.4-12.7,0.5c-2.2-0.4-2.9-0.7-5.6-1.9
		c-0.5-0.2-3.4-1.9-3.6-1.9c-0.9-0.6-1.7-1.3-2.6-1.9c1.2,1.4,1,1.2-0.6-0.6c-1.3-1.5-2.4-3.1-3.5-4.7c-0.2-0.4-0.4-0.7-0.6-0.9
		c-0.6-1.1-1.1-2.2-1.6-3.3c-0.6-1.5-1.2-3-1.7-4.5c-0.8-2.5-1-3-0.5-1.5c-2.9-11.2-4.3-23-5.7-34.4c-1.4-10.7-2.4-21.4-3.3-32.1
		c9.2-2.2,18.2-2.9,27.7-1.6c16.1,2.1,19.3-22.8,3.3-25c-10.9-1.5-21.9-1.2-32.6,1.1c-1.4-28.7-1.7-57.4-2-86
		c14.4-1,28.7-2.1,43.1-3.1c8.7-0.6,17.8-2,26.5-1.5c3.5,0.2,7.2,0.9,10.1,3c1.5,1.1,1.1,0.7,1.3,2.5c2,15,26.1,15.6,27.1-0.1
		C282.2,766.3,275.4,754.4,264.2,748.8z"/>
	<path d="M460.8,753.8c-7.2,0.2-12.3,5-13.7,12c-1.4,7-0.8,14-1.4,21.1c-0.7,7.9-1.4,15.8-2.2,23.7c-1.4,14.5-2.8,28.9-4.2,43.4
		c-2.9,29.3-5.7,58.7-8.9,88c-0.1,1.2-0.2,2.3-0.4,3.5c-3.4-6-6.8-12-10.1-18c-14-25.8-28.2-51.4-42.5-77
		c-16.2-29.1-33.2-57.7-49-87c-1.6-3.1-4.2-5.5-7.1-6.8c-4.1-3.5-9.9-5.4-14.9-4.7c-10.6,1.5-15.6,10.6-15.4,20.4
		c1.7,73.4,1.8,146.9,8.2,220.1c1.5,17.8,31.3,18.1,31.9-0.2c1.7-56.3-0.1-112.5-2.2-168.8c6.5,13.2,13,26.4,19.6,39.5
		c14.6,28.8,29.3,57.5,44.2,86.2c3.6,7,7.2,14,10.9,20.9c4.1,7.7,7.9,15.5,15.1,20.8c15.8,11.7,34.7,1.2,38.2-16.6
		c1.3-6.7,1.1-13.9,1.6-20.8c0.7-8.8,1.3-17.6,2-26.4c1.2-16.2,2.7-32.5,4.1-48.7c1.6-18.4,3.2-36.8,4.8-55.3
		c0.8-9.2,1.5-18.4,2.4-27.6c1-10.1,3.1-19.8,3-30C474.5,758.8,466.9,753.7,460.8,753.8z M427.1,968.1c-0.1-0.2,0-0.3,0.3-0.5
		C427.1,972,427.1,968.1,427.1,968.1z"/>
	<path d="M611.3,746.3c-40.4,0.5-80.7,0.9-121.1,1.4c-8.3,0.1-14.2,9.9-13.1,17.4c1.3,9.1,9.1,13.2,17.4,13.1
		c12.6-0.2,25.3-0.3,37.9-0.5c1.6,71.6,1.8,143.4,8.1,214.7c1.5,17.8,31.3,18.1,31.9-0.2c2.2-71.7-1.4-143.4-3.9-215
		c15.7-0.2,31.4-0.4,47.1-0.6c8.3-0.1,14.1-9.9,13.1-17.3C627.3,750.3,619.6,746.2,611.3,746.3z"/>
	<path d="M765.7,748.8c-10.6-5.4-23.5-3.6-35-2.4c-24.8,2.5-49.7,4.5-74.6,6.8c-4.9,0.4-8,2.9-9.6,6.2c-5.7,2.8-10.4,8-10.6,14.7
		c-1.5,44.8-2.9,89.8,1.7,134.4c2.2,21.7,4.4,45,12.3,65.5c7.6,19.9,25.6,37.1,47.8,37.9c24.7,0.9,45.6-10.9,65-25
		c12.2-8.9-0.2-30.9-13.9-23.2c-9,5-18.4,10.7-28.5,12.9c-4.5,1-8.3,1.4-12.7,0.5c-2.2-0.4-2.9-0.7-5.6-1.9
		c-0.5-0.2-3.4-1.9-3.6-1.9c-0.9-0.6-1.7-1.3-2.6-1.9c1.2,1.4,1,1.2-0.6-0.6c-1.3-1.5-2.4-3.1-3.5-4.7c-0.2-0.4-0.4-0.7-0.6-0.9
		c-0.6-1.1-1.1-2.2-1.6-3.3c-0.6-1.5-1.2-3-1.7-4.5c-0.8-2.5-1-3-0.5-1.5c-2.9-11.2-4.3-23-5.7-34.4c-1.4-10.7-2.4-21.4-3.3-32.1
		c9.2-2.2,18.2-2.9,27.7-1.6c16.1,2.1,19.3-22.8,3.3-25c-10.9-1.5-21.9-1.2-32.6,1.1c-1.4-28.7-1.7-57.4-2-86
		c14.4-1,28.7-2.1,43.1-3.1c8.7-0.6,17.8-2,26.5-1.5c3.5,0.2,7.2,0.9,10.1,3c1.5,1.1,1.1,0.7,1.3,2.5c2,15,26.1,15.6,27.1-0.1
		C783.7,766.3,776.9,754.4,765.7,748.8z"/>
	<path d="M894.9,758.6c-26.1-13-55.8-13.5-84.3-13c-6,0.1-10.7,5.3-12.4,11c-3.9,3.9-5.8,9.7-5.7,15.7c1.7,73.4,1.8,146.9,8.2,220.1
		c1.5,17.8,31.3,18.1,31.9-0.2c0.2-6.5,0.3-13,0.4-19.5c18.3,8.4,36.1,17.6,53.6,27.6c7.1,4.1,17-1.4,19.8-8.3
		c3.4-8.4-1.1-15.8-8.3-19.8c-13.7-7.7-27.5-14.9-41.7-21.6c37.9-9.8,71.5-35.6,84.8-73.5C957.3,831.3,938.8,780.5,894.9,758.6z
		 M885.2,903.7c-15.1,11.7-33.3,17.8-52.1,19.9c-0.6-49.3-2.8-98.7-4.5-148c31.7,0.8,66.8,7.3,81.5,38.5
		C925.2,846,912.3,882.8,885.2,903.7z"/>
	<path d="M123.7,268.9c3.8,5,8.5,9.3,14.3,13c5.8,3.7,12.4,6.2,19.9,7.8c2.3,0.4,5.1,0.7,8.5,1c3.4,0.3,6.8,0.4,10.4,0.4
		c3.6,0,7.1-0.1,10.7-0.3c3.6-0.2,6.6-0.5,9.1-0.9c9.8-1.7,19.5-5,29-9.7c9.5-4.7,17.4-10.1,23.5-16.3c9.2-9.4,15.7-19.7,19.3-30.9
		c2.3-7.5,3.8-15,4.3-22.4c0.6-7.4,0.3-14.6-0.9-21.5c-1.2-6.9-3.2-13.4-6.1-19.3c-2.9-6-6.6-11.2-11.3-15.6
		c-4.4-4.4-8.9-7.6-13.3-9.5c-4.4-1.9-10.4-3.3-17.9-4l-5.5-0.3l3.8-4.9c2.7-3.8,5.2-8.4,7.6-13.7c2.4-5.3,4-9.9,4.8-13.7
		c1.3-6.7,1.2-12.7-0.4-18c-1.6-5.3-4.5-9-8.5-11.1c-2.1-1-4.8-1.4-8.1-1.4c-3.3,0-6.1,0.5-8.4,1.4c-6.7,3.1-12.9,9.5-18.6,19.2
		c-5.7,9.7-10.6,22.6-14.9,38.5c-0.8,3.3-1.5,6.7-2.3,10.4c-0.8,3.7-1.5,7.2-2.3,10.5c-0.8,3.4-1.4,6.5-1.9,9.5
		c-0.5,3-0.8,5.4-1,7.4c-0.4,4.4-0.7,6.4-1,5.9c-0.3-0.5-0.3-3.2-0.1-8.2c0.2-6,0.5-12.3,0.9-19c0.4-6.7,1-13.4,1.7-20.1
		c0.8-6.6,1.6-13.1,2.5-19.3c0.9-6.2,1.8-12,2.7-17.2c0.6-3.1,1.1-6.2,1.4-9.5c0.4-3.3,0.6-5.7,0.6-7.2c0-2.7-0.1-4.4-0.3-5.2
		c-0.2-0.8-1-1.7-2.3-2.9c-1.3-1.2-2.4-1.8-3-2c-0.7-0.2-2.1-0.2-4.2,0c-2.9,0.4-5,0.8-6.5,1.3c-1.4,0.5-2.6,1.4-3.3,2.7
		c-0.4,0.6-1,2.3-1.7,5.2c-0.8,2.9-1.5,6.3-2.3,10.2c-0.8,3.9-1.5,8.2-2.2,12.8c-0.7,4.6-1.3,9-1.9,13.3c-0.6,4.4-1.1,8.7-1.4,12.8
		c-0.4,4.1-0.7,8.4-1,12.7c-0.3,4.3-0.5,8.9-0.7,13.9c-0.2,4.9-0.4,10.3-0.6,16.3l-0.6,19L140,193c-6.9,4.8-12.7,10.7-17.2,17.6
		c-4.5,6.9-7.3,14-8.2,21.4c-1,6.9-0.6,13.6,1,19.9C117.2,258.3,119.9,263.9,123.7,268.9z M179.8,142.8c1-3.5,2.1-7.3,3.5-11.5
		c1.3-4.2,2.7-8.4,4.2-12.6c1.4-4.1,2.6-7.4,3.6-9.7c1.3-2.9,2.8-5.7,4.5-8.4c1.6-2.7,3.3-5.1,5-7.2c1.7-2.1,3.3-3.8,4.8-4.9
		c1.4-1.2,2.6-1.6,3.6-1.4c2.1,0.4,3.7,2.6,4.6,6.5c1,3.9,1,8,0,12.3c-1.2,6-2.8,11.4-4.9,16.3c-2.1,4.9-5,9.9-8.7,14.9
		c-2.1,2.7-3.6,4.5-4.5,5.3c-0.9,0.9-2.1,1.5-3.6,1.9c-1,0.4-2.3,0.9-3.9,1.6c-1.6,0.7-3.2,1.4-4.8,2.2c-3.3,1.9-4.9,2.5-4.9,1.7
		C178.4,148.6,178.8,146.3,179.8,142.8z M120.4,235.6c0.6-6.2,2.5-12.3,5.6-18.2c3.2-5.9,7.5-11.1,13.1-15.7
		c2.3-1.9,3.8-3.1,4.5-3.5c0.7-0.4,1-0.1,1,0.9c0,1.3,0.1,3.6,0.4,6.6c0.3,3.1,0.7,6.4,1.2,10.1c0.5,3.7,1,7.2,1.6,10.7
		c0.6,3.5,1.2,6.2,1.7,8.1c0.4,2.5,1.2,3.9,2.3,4.3c1.2,0.4,3.6,0.3,7.2-0.3c2.1-0.4,3.7-0.8,4.8-1.3c1.1-0.5,2.1-1.2,3-2.2
		c0.6-0.6,1.1-1.1,1.4-1.6c0.4-0.5,0.7-1.2,0.9-2c0.2-0.9,0.3-2.1,0.4-3.6c0.1-1.5,0.2-3.8,0.4-6.6c0.4-10,0.9-18.2,1.4-24.5
		c0.6-6.3,1.1-9.7,1.4-10.1c0.2-0.2,1-0.3,2.5-0.4c1.4-0.1,3,0,4.8,0.1c7.7,0.4,13.9,2.8,18.5,7.2c2.9,3.1,3.5,4.6,1.7,4.6
		c-1,0-2.2,1-3.8,2.9c-1.5,1.9-2.3,3.5-2.3,4.6c0,2.1,0.7,4,2.2,5.6c1.4,1.6,3.1,2.5,5.1,2.5c1.3,0,3-0.8,4.9-2.3
		c1.3-1.2,2.2-2.1,2.5-2.9c0.3-0.8,0.4-2.3,0.4-4.6c0-8.8-5.4-15.9-16.2-21.1c-2.1-1-4-1.6-5.6-2c-1.6-0.4-4-0.7-7.1-0.9
		c-3.3-0.2-5.3-0.4-6.2-0.6c-0.9-0.2-1.2-0.6-1-1.2c0.2-0.4,0.4-1.3,0.6-2.7c0.2-1.4,0.5-3.1,0.9-5l0.9-6.6l4.6-0.3
		c1.9,0,3.6-0.2,5-0.6c1.4-0.4,3.5-1.2,6.2-2.6c1.9-1,4.1-2.2,6.6-3.8c2.5-1.5,4.7-3,6.6-4.3l6.4-4.9l4.3,0.9
		c6.2,1.2,11.8,3.9,16.9,8.4c5.1,4.4,9.3,9.9,12.6,16.4c3.5,7.3,5.6,15,6.3,22.9c0.8,8,0.2,15.9-1.6,23.8c-1.8,7.9-5,15.6-9.4,23.1
		c-4.4,7.5-10,14.4-16.7,20.8c-9.8,9.2-21.5,15.5-35.2,18.8c-1.7,0.4-3.9,0.7-6.6,1c-2.7,0.3-5.5,0.5-8.4,0.7
		c-2.9,0.2-5.5,0.3-7.8,0.3c-2.3,0-3.9-0.1-4.6-0.3c-6.3-1.5-11.8-3.5-16.3-5.9c-4.5-2.4-8.4-5.2-11.7-8.5
		c-4.8-4.6-8.2-9.9-10.2-15.9C120.5,248,119.8,241.9,120.4,235.6z"/>
	<path d="M281.1,178.3c0.4,3.5,0.9,6.8,1.6,10c0.7,3.2,1.5,6.6,2.5,10.2c2.9,11.4,7.2,21,13,28.9c5.8,7.9,12,12.8,18.8,14.7
		c8.3,2.1,15.6-0.3,21.9-7.2c2.3-2.5,4.3-5.4,6.1-8.7c1.7-3.3,3.5-7.2,5.2-11.8c1.2-3.1,2.3-6.7,3.5-11c0.1-0.3,0.1-0.6,0.2-0.8
		c0.5,2.2,1.2,4.4,1.9,6.8c1.6,4.9,3.2,8.7,4.8,11.4c1.5,2.7,4,5.6,7.4,8.7c3.4,3.1,6.4,5.3,9.1,6.6c6.2,3.1,11.7,3.4,16.7,0.9
		c9.4-5,18.9-22.3,28.6-51.9c0.8-2.4,1.4-4.5,1.9-6.3c1.1,1.4,2.3,2.9,3.6,4.4c2.3,2.6,5.3,5.8,8.9,9.7c3.7,3.9,6.6,7.2,8.8,10.1
		c2.2,2.9,4,5.5,5.3,7.8c1.3,2.3,2.4,4.5,3.2,6.5c0.8,2,1.5,4.2,2.3,6.5c0.6,2.1,1,3.9,1.3,5.2c0.3,1.3,0.3,2.5,0.1,3.3
		c-0.2,0.9-0.7,1.7-1.6,2.5c-0.9,0.8-2.1,1.7-3.6,2.9c-3.9,2.7-7.6,6-11.3,9.8c-3.7,3.9-6.4,7.7-8.4,11.5c-1.3,2.7-2.2,4.8-2.6,6.3
		c-0.4,1.5-0.6,3.8-0.6,6.6c0,2.7,0.1,4.7,0.4,6.1c0.3,1.3,1,3,2.2,4.9c2.7,4.4,6.4,7.4,11,8.9c3.8,1.2,8,0.9,12.4-0.9
		c4.4-1.7,8.6-4.6,12.4-8.7c5.2-5.6,9-12.2,11.5-19.9c2.5-7.7,3.6-16.1,3.2-25.1l-0.9-9.8l5.2-4.6c4-3.7,8-8.3,12-14
		c3.9-5.7,7.3-11.3,10-16.9c2.5,2.5,4.7,4.7,6.5,6.5c1.8,1.8,3.3,3.5,4.5,5c1.2,1.5,2.1,3.1,2.9,4.6c0.8,1.5,1.4,3.2,2,4.9
		c1.2,3.7,1.6,6,1.3,7.1c-0.3,1.1-1.8,2.6-4.5,4.5c-3.3,2.1-6.5,4.9-9.7,8.2c-3.2,3.4-5.5,6.7-7.1,10c-1,2.1-1.6,3.9-2,5.2
		c-0.4,1.3-0.6,3.3-0.6,5.8c0,2.3,0.1,4,0.4,5.2c0.3,1.2,0.9,2.5,1.9,4c2.3,3.9,5.4,6.3,9.2,7.5c3.3,1,6.8,0.7,10.5-0.7
		c3.8-1.4,7.3-3.9,10.5-7.4c4.4-4.6,7.7-10.2,9.8-16.7c2.1-6.5,3-13.7,2.6-21.4l-0.6-8.1l4.3-4c2.3-2.1,4.7-4.7,7.1-7.6
		c2.4-3,4.6-6.1,6.6-9.4c2-3.3,3.8-6.5,5.2-9.8c1.4-3.3,2.5-6.2,3-8.7c1.2-4.6,0.7-6.9-1.4-6.9c-1.2,0-2,0.4-2.6,1.3
		c-0.6,0.9-1.3,2.7-2.3,5.6c-2.5,6.7-5.7,13.1-9.5,19c-1,1.3-2.1,2.8-3.3,4.3c-1.3,1.5-2.5,3-3.6,4.3c-1.2,1.3-2.2,2.5-3.2,3.5
		c-1,1-1.5,1.4-1.7,1.4c-0.4,0-1-1.1-1.7-3.2c-1.5-5-4.2-10.1-7.9-15.3c-3.7-5.2-8.1-9.9-13.1-14.1l-3.5-2.9l3.5-4
		c2.1-2.3,4.3-5.5,6.6-9.7c2.3-4.1,3.9-7.8,4.9-11.1c0.4-1.5,0.7-3.3,0.9-5.3c0.2-2,0.3-4,0.3-5.9c0-8.3-2.5-14-7.5-17.3
		c-2.7-1.5-5.8-2.3-9.2-2.2c-3.5,0.1-6.8,1-10.1,2.7c-4.4,2.1-8.5,5.7-12.3,10.8c-3.8,5.1-6.3,10.4-7.6,16c-0.6,2.5-0.8,5.5-0.7,8.9
		c0.1,3.5,0.4,6.3,1,8.7c0.4,1.9,0.9,3.6,1.6,5c0.7,1.4,1.5,2.9,2.6,4.5c1.1,1.5,2.4,3.2,4,5c1.6,1.8,3.7,3.9,6.2,6.2
		c-2.7,6.3-5.7,12-8.9,17c-1.2,1.5-2.5,3.3-3.9,5.2c-1.4,1.9-2.9,3.7-4.3,5.3c-1.4,1.6-2.7,3-3.9,4c-1.2,1.1-1.8,1.6-2,1.6
		c-0.2,0-0.5-0.4-0.9-1.2c-0.4-0.8-0.8-1.6-1.2-2.6c-1.9-6-4.8-12.6-8.7-19.9c-3.9-7.3-8.7-13.6-14.4-18.8l-4-3.8l4-4.9
		c2.5-2.9,5-6.9,7.5-12.1c2.5-5.2,4.3-9.8,5.5-13.9c0.4-1.9,0.7-4.2,1-6.8c0.3-2.6,0.4-5,0.4-7.4c0-10.6-2.9-17.8-8.7-21.6
		c-2.9-1.9-6.3-2.8-10.2-2.7c-3.9,0.1-7.8,1.2-11.7,3.3c-5.2,2.7-10,7.3-14.3,13.7c-4.3,6.4-7.2,13.1-8.5,20.1
		c-0.8,3.1-1.1,6.8-1,11.1c0.1,4.3,0.5,7.9,1.3,10.8c0.6,2.5,1.3,4.8,2.2,6.8c0.4,0.9,0.9,1.8,1.4,2.8c-0.4,0.8-0.9,2.3-1.5,4.6
		c-3.3,9.8-6.5,18.7-9.8,26.7c-3.3,8-6.3,14.1-8.9,18.3c-1.3,2.1-3.2,4.3-5.5,6.6c-2.3,2.3-3.9,3.5-4.6,3.5c-0.6,0-1.8-1.3-3.6-4
		c-1.8-2.7-3.5-5.7-5.1-8.9c-1.2-2.5-2.3-5.4-3.3-8.7c-1.1-3.3-1.9-6.6-2.6-10c-0.7-3.4-1.2-6.7-1.4-10c-0.3-3.3-0.3-6.3-0.1-9.2
		l0.3-4.6l4.6-1.7c3.3-1.2,6.2-2.7,8.9-4.8c2.7-2,5-4.3,6.9-6.8c5-7.1,7.7-14.1,8.1-21.1c0.4-6.9-1.7-12.4-6.3-16.4
		c-2.1-1.5-4.1-2.6-6.1-3.3c-1.9-0.7-4.6-1-8.1-1c-16,0-26,14-30,41.8c-0.6,4-0.8,9.2-0.7,15.6c0,2.3,0.1,4.4,0.3,6.5
		c-0.8,3.7-1.6,7.2-2.4,10.4c-1.5,6.3-3.1,11.6-4.6,16.2c-1.5,4.5-3.1,8.3-4.8,11.3c-1.6,3-3.4,5.4-5.3,7.4c-1,1-2,1.9-3.2,2.9
		c-1.2,1-2.2,1.6-3.2,2l-2.9,1.2l-4-4.3c-4.6-5.2-8.7-12.7-12.1-22.7c-3.5-9.9-6.2-21.2-8.1-33.9l-0.9-6.9l6.1-3.2
		c5.8-2.9,10.8-6.4,15-10.7c4.2-4.2,8.3-9.5,12.1-15.9c4-6.9,7.1-14,9.1-21.2c2-7.2,3-14,2.9-20.3c-0.1-6.3-1.3-12-3.5-16.9
		c-2.2-4.9-5.4-8.5-9.7-10.8c-3.3-1.5-7.2-2-11.7-1.4c-4.5,0.6-8.7,2.2-12.6,4.9c-2.9,1.9-5.7,4.6-8.4,8.1
		c-2.7,3.5-5.2,7.4-7.5,11.8c-2.3,4.4-4.3,9.2-6.1,14.4c-1.7,5.2-3.1,10.5-4,15.9c-0.4,1.5-0.6,3.1-0.7,4.8
		c-0.1,1.6-0.2,3.6-0.4,5.8c-0.2,2.2-0.3,4.8-0.3,7.6c0,2.9,0,6.4,0,10.7c0,5.6,0,10.4,0.1,14.6
		C280.5,171.1,280.7,174.9,281.1,178.3z M527.3,228.3c0,0.2-0.1,0.9-0.3,2.2c-0.2,1.3-0.5,2.6-0.9,4.2c-1.7,9.8-5.5,18.3-11.3,25.4
		c-0.6,0.8-1.1,1.4-1.6,2c-0.5,0.6-0.8,0.9-1,0.9c-1,0-1.8-1-2.5-2.9c-0.7-1.9-1-4-1-6.3c0-5.4,2.5-10.9,7.5-16.4
		c0.8-0.8,1.8-1.7,3-2.9c1.2-1.2,2.5-2.2,3.6-3.2c1.2-1,2.2-1.7,3-2.3C526.8,228.3,527.3,228.1,527.3,228.3z M503.6,140.8
		c0.2-1.3,0.7-2.9,1.4-4.6c3.1-6,7-9.7,11.7-11.3c4.7-1.5,8.3-0.3,10.8,3.8c1,1.9,1.6,4.5,1.9,7.8c0.3,3.3,0,6.3-1,9.2
		c-1,3.3-2.4,6.7-4.2,10.4c-1.8,3.7-3.6,6.5-5.3,8.7c-2.1,2.7-3.7,4.1-4.6,4.3c-1,0.2-2.3-0.6-4-2.3c-1-1-1.9-2.1-2.7-3.5
		c-0.9-1.3-1.6-2.6-2.2-3.8c-1-1.9-1.5-3.6-1.7-4.9c-0.2-1.3-0.3-3.7-0.3-6.9C503.3,144.5,503.4,142.2,503.6,140.8z M458.9,241.8
		c0,0.8-0.5,3.3-1.4,7.5c-2.1,11.7-6.4,21.7-13,30c-0.8,1-1.4,1.8-2,2.5c-0.6,0.7-1,1-1.2,1c-1,0-1.9-1.2-2.7-3.5
		c-0.9-2.3-1.3-4.8-1.3-7.5c0-6.3,2.9-12.8,8.7-19.3c1.2-1,2.5-2.1,3.9-3.5c1.4-1.3,2.8-2.6,4.2-3.8c1.3-1.2,2.5-2.1,3.5-2.7
		C458.4,241.9,458.9,241.6,458.9,241.8z M433.2,132c0.2-1.8,0.8-3.8,1.7-5.9c1.7-3.7,3.8-6.7,6.2-9.1c2.4-2.4,4.8-4,7.2-4.9
		c2.4-0.9,4.7-0.9,6.9-0.1c2.2,0.8,4,2.4,5.3,4.9c1.2,2.3,1.9,5.5,2.2,9.7c0.3,4.1,0,8-1,11.7c-1,4.2-2.6,8.6-4.8,13.1
		c-2.2,4.5-4.3,8-6.2,10.5c-2.5,3.3-4.3,5.1-5.3,5.3c-1.1,0.3-2.6-0.6-4.8-2.7c-1-1-1.9-2.3-2.9-4c-1-1.7-1.8-3.4-2.6-4.9
		c-1-2.3-1.6-4.4-1.9-6.2c-0.3-1.8-0.4-4.7-0.4-8.5C432.9,136.8,433,133.8,433.2,132z M374.3,165.9c1.5-10.2,3.4-18.4,5.6-24.7
		c2.2-6.2,4.7-10.1,7.4-11.7c1.5-1,3.2-0.6,4.9,1.2c1.7,1.7,3,4.1,3.8,7.2c0.6,2.1,0.6,4.6,0,7.5c-0.6,2.9-1.6,5.7-3.2,8.5
		c-1.5,2.8-3.4,5.4-5.5,7.8c-2.1,2.4-4.3,4.2-6.6,5.3c-1,0.4-1.9,0.8-2.7,1.3c-0.9,0.5-1.6,0.8-2.2,1c-1,0.2-1.5,0.1-1.6-0.1
		C374.1,168.9,374.1,167.8,374.3,165.9z M298.9,152.9c0.1-2.9,0.2-6.1,0.3-9.7c0.1-3.6,0.3-7.2,0.6-10.8c0.3-3.7,0.6-6.8,1-9.5
		c0.8-5,1.5-9.2,2.3-12.6c0.8-3.4,1.9-7.4,3.5-12c1.9-6,4.3-10.9,7.1-14.7c2.8-3.8,5.6-6.4,8.5-7.6c2.9-1.2,5.6-1.2,8.2,0.3
		c2.6,1.4,4.8,4.4,6.5,8.8c1.3,3.3,2,7.8,2,13.6c0,5.8-0.7,11.1-2,15.9c-1.2,4.6-2.8,9.1-4.9,13.4c-2.1,4.3-4.5,8.4-7.1,12.3
		c-2.6,3.9-5.4,7.3-8.5,10.4c-3.1,3.1-6.2,5.5-9.2,7.2c-3.7,2.1-5.8,3.2-6.5,3.3c-0.7,0.1-1.2-0.6-1.6-2.2
		C298.8,157.8,298.8,155.8,298.9,152.9z"/>
	<path d="M602.7,115.6c0.9,0.9,2,1.3,3.5,1.2c1.4-0.1,2.8-0.8,4.2-2.2c1-1,1.6-1.8,1.9-2.5c0.3-0.7,0.3-1.5,0.1-2.5
		c-0.4-1-0.4-1.6-0.1-1.9c0.3-0.3,1.2-0.4,2.7-0.4c0.8,0,2.6,0.3,5.5,1c2.9,0.7,6,1.5,9.2,2.5l11.5,3.2l-0.6,11
		c-0.8,16.7-1.3,30.9-1.6,42.4c-0.3,11.5-0.3,21.4,0,29.4c0.3,8.1,0.8,14.9,1.4,20.5c0.7,5.6,1.7,10.9,3,15.9
		c1.5,6,3.8,11.2,6.6,15.7c2.9,4.5,6.1,7.6,9.5,9.4c5.4,2.9,10.5,1.5,15.3-4.2c4.8-5.7,8.8-15.2,12.1-28.4c0.9-3.5,1.9-7.9,2.9-13.2
		c0.2,2.2,0.5,4.3,0.7,6.3c0.5,4,0.9,7.6,1.3,10.7c0.6,2.9,1,4.6,1.3,5.2c0.3,0.6,1.2,1.1,2.7,1.4c2.1,0.6,4.7,0.8,7.8,0.7
		c3.1-0.1,5.4-0.6,6.9-1.6l2.9-1.2l2.6-12.4c0.6-3.5,1.3-7.3,2.3-11.4c1-4.1,1.8-7.4,2.6-9.7c1.5-5.4,3.5-10.9,5.8-16.6
		c2.3-5.7,4.8-11.1,7.4-16.3c2.6-5.2,5.2-9.8,7.8-13.9c2.6-4,5-7.1,7.1-9.2c1.5-1.3,2.5-2.1,2.7-2.3c0.3-0.2,0.7,0.1,1.3,0.9
		c0.4,0.6,0.7,1.6,1,3c0.3,1.4,0.5,3.9,0.6,7.2c0.1,3.4,0.1,8,0.1,14c0,6,0,14,0,24c0,10.8,0,19.2,0,25.3c0,6.1,0.1,10.8,0.4,14.3
		c0.3,3.5,0.8,6.3,1.6,8.4c0.8,2.1,1.8,4.6,3.2,7.5c0.8,1.7,1.9,3.6,3.5,5.6c1.5,2,3.1,3.9,4.6,5.6c1.5,1.7,3.1,3.2,4.8,4.5
		c1.6,1.3,3,2.1,4.2,2.5c2.1,0.8,4.9,1.1,8.2,1c3.4-0.1,5.8-0.5,7.4-1.3c2.5-1.2,4.7-2.6,6.5-4.3c1.8-1.7,3.6-4.6,5.3-8.5
		c1.7-3.9,3.6-9.4,5.6-16.4c1.9-6.5,4.2-14.9,6.9-25.1c0.2,5.4,0.6,9.8,1,13.2c2.9,22.7,10.1,37,21.6,43c2.5,1.2,5.2,1.8,8.2,2
		c3,0.2,5.6-0.2,7.9-1.2c1.9-1,4-2.7,6.3-5.2c2.3-2.5,4.3-5.4,6.1-8.7c1.7-3.5,3.8-8.7,6.2-15.7c2.4-7,4.6-14.5,6.6-22.4
		c2-7.9,3.7-15.4,5.2-22.5c1.2-5.9,1.9-10.6,2.1-14c0.8,0.9,1.6,1.8,2.5,2.7c2,2.1,4.6,4.7,7.6,7.8c3.3,3.1,6,5.7,8.1,7.8
		c2.1,2.1,3.8,4,5,5.8c1.2,1.7,2.3,3.4,3.2,4.9c0.9,1.5,1.6,3.3,2.2,5.2c1.2,3.7,1.6,6,1.3,7.1c-0.3,1.1-1.8,2.6-4.5,4.5
		c-3.3,2.1-6.5,4.9-9.7,8.2c-3.2,3.4-5.5,6.7-7.1,10c-1,2.1-1.6,3.9-2,5.2c-0.4,1.3-0.6,3.3-0.6,5.8c0,2.3,0.1,4,0.4,5.2
		c0.3,1.2,0.9,2.5,1.9,4c2.3,3.9,5.4,6.3,9.2,7.5c3.3,1,6.8,0.7,10.5-0.7c3.8-1.4,7.3-3.9,10.5-7.4c4.4-4.6,7.7-10.2,9.8-16.7
		c2.1-6.5,3-13.7,2.6-21.4l-0.6-8.1l4.3-4c2.3-2.1,4.7-4.7,7.1-7.6c2.4-3,4.6-6.1,6.6-9.4c2-3.3,3.8-6.5,5.2-9.8
		c1.4-3.3,2.5-6.2,3-8.7c1.2-4.6,0.7-6.9-1.4-6.9c-1.2,0-2,0.4-2.6,1.3c-0.6,0.9-1.3,2.7-2.3,5.6c-2.5,6.7-5.7,13.1-9.5,19
		c-1,1.3-2.1,2.8-3.3,4.3c-1.3,1.5-2.5,3-3.6,4.3c-1.2,1.3-2.2,2.5-3.2,3.5c-1,1-1.5,1.4-1.7,1.4c-0.4,0-1-1.1-1.7-3.2
		c-1.5-5-4.2-10.1-7.9-15.3s-8.1-9.9-13.1-14.1l-3.5-2.9l3.5-4c2.1-2.3,4.3-5.5,6.6-9.7c2.3-4.1,3.9-7.8,4.9-11.1
		c0.4-1.5,0.7-3.3,0.9-5.3c0.2-2,0.3-4,0.3-5.9c0-8.3-2.5-14-7.5-17.3c-2.7-1.5-5.8-2.3-9.2-2.2c-3.5,0.1-6.8,1-10.1,2.7
		c-4.4,2.1-8.5,5.7-12.3,10.8c-3.8,5.1-6.3,10.4-7.6,16c-0.6,2.5-0.8,5.5-0.7,8.9c0.1,3.5,0.4,6.3,1,8.7c0.6,2.1,1.2,3.9,1.9,5.5
		c0.3,0.7,0.7,1.4,1.1,2.1c-0.2,0.4-0.5,0.9-0.7,1.6c-0.4,1.3-0.9,3.7-1.4,7.4c-0.8,5.6-1.9,11.6-3.3,18.2c-1.4,6.5-3,12.9-4.8,19.2
		c-1.7,6.3-3.5,12-5.3,17.3c-1.8,5.3-3.5,9.5-5.1,12.6c-1.9,3.9-3.6,6.6-4.9,8.2c-1.3,1.6-3.1,2.9-5.2,3.9l-3.8,2l-1.7-2.3
		c-1.9-2.1-3.6-5.9-5.1-11.4c-1.4-5.5-2.6-12.3-3.3-20.3c-0.2-2.5-0.3-7.3-0.3-14.4c0-7.1,0.1-15,0.3-23.5
		c0.2-8.6,0.4-17.2,0.7-25.8c0.3-8.7,0.6-15.8,1-21.4c0.2-3.8,0.3-7,0.4-9.5c0.1-2.5,0-4.5-0.4-6.1c-0.4-1.5-1-2.7-1.9-3.5
		c-0.9-0.8-2-1.3-3.3-1.7c-2.1-0.8-4.6-0.8-7.5,0c-1.7,0.4-3.1,0.8-4.2,1.2c-1.1,0.4-1.9,1-2.5,1.9c-0.6,0.9-1,2.1-1.3,3.6
		c-0.3,1.5-0.6,3.6-1,6.1c-0.8,5.8-1.4,12.8-1.9,21.1c-0.5,8.3-0.8,16.6-0.9,25c0,1.7,0,3.3,0,4.9c-0.2,0.7-0.3,1.4-0.5,2.2
		c-1.3,5-2.6,10.3-4.2,15.9c-2.9,11-5.3,19.9-7.2,26.7c-1.9,6.8-3.6,12.1-5,15.9c-1.4,3.8-2.8,6.3-4.2,7.8c-1.3,1.4-2.8,2.3-4.3,2.5
		c-5.2,0.8-9.4-4.5-12.7-15.9c-0.4-1.3-0.7-2.6-0.9-3.9c-0.2-1.2-0.4-2.7-0.6-4.5c-0.2-1.7-0.3-3.8-0.3-6.2c0-2.4,0-5.5,0-9.4
		c0-2.5,0-5.5,0-8.9c0-3.5,0-7.1,0.1-11c0.1-3.8,0.2-7.8,0.3-11.8c0.1-4,0.1-7.8,0.1-11.3c0.2-6.9,0.3-12.6,0.4-16.9
		c0.1-4.3,0-7.8-0.1-10.5c-0.2-2.7-0.6-4.9-1.2-6.5c-0.6-1.6-1.3-3.2-2-4.8c-3.9-6.7-9.9-8.3-18.2-4.6c-6,2.7-11.4,7.4-16.5,14.1
		c-5,6.7-10.1,16.1-15.3,28c-2.7,6-5,11.5-6.8,16.7c-1.8,5.2-3.4,10.6-4.8,16.2l-1.7,7.5l-1.2-5.8c-0.8-5-1.3-10.2-1.7-15.6
		c-0.4-5.4-0.6-10.7-0.6-15.9v-9.5l5.5-3.8c8.1-5,15.2-11.8,21.4-20.3c6.2-8.6,10.6-17.7,13.3-27.6c0.8-2.5,1.3-4.8,1.6-6.9
		c0.3-2.1,0.4-5.1,0.4-8.9c0-2.3,0-4.1-0.1-5.5c-0.1-1.3-0.2-2.5-0.3-3.5c-0.1-1-0.3-1.8-0.7-2.6c-0.4-0.8-0.9-1.8-1.4-3.2
		c-1.5-3.3-3.3-5.7-5.3-7.4c-2-1.6-4.5-2.9-7.4-3.9c-4.6-1.5-9.4-1.4-14.3,0.3c-4.9,1.7-9.3,4.8-13.1,9.2
		c-15.6,16.7-22.3,48.3-20.2,94.7c0.1,3.2,0.3,6.5,0.6,9.8c0,0,0,0,0,0c-1.9,15.4-4.4,28.5-7.4,39.4c-3,10.9-6.4,18.5-10.2,22.9
		c-1.3,1.9-2.4,2.5-3.2,1.7c-1-0.8-2-2.7-3.2-5.9c-1.2-3.2-2.2-7.2-3.2-12c-0.4-1.9-0.7-3.7-1-5.3c-0.3-1.6-0.5-4.1-0.6-7.4
		c-0.1-3.3-0.1-7.9-0.1-13.9c0-6,0-14.2,0-24.8c0-6,0-11.9,0-17.7c0-5.9,0-11.3,0.1-16.2c0.1-4.9,0.2-9.1,0.3-12.7
		c0.1-3.6,0.1-6.1,0.1-7.6l0.9-10.7h5.2c10.8,0,18.3-2.4,22.5-7.2c2.5-3.1,2.6-6.1,0.3-8.9c-1-1.3-2.3-2.1-4-2.2
		c-1.7-0.1-3.1,0.4-4,1.6c-1,1-1.3,2.7-1.2,5.2l0.6,3.5l-4,0.9c-1.3,0.4-2.9,0.6-4.6,0.7c-1.7,0.1-3.3,0.1-4.8,0.1
		c-1.4,0-2.7-0.1-3.8-0.3c-1.1-0.2-1.6-0.5-1.6-0.9c0-0.2,0-1.2,0.1-3.2c0.1-1.9,0.3-4.1,0.7-6.6c0.6-7.3,0.4-12.3-0.4-15
		c-0.9-2.7-2.7-4-5.6-4c-2.1,0-4.4,0.5-6.8,1.4c-2.4,1-4.1,2.1-5,3.5c-1,1.2-1.5,2.3-1.7,3.5c-0.2,1.2-0.3,3.9-0.3,8.4
		c0,2.5,0,4.7-0.1,6.5c-0.1,1.8-0.2,2.7-0.4,2.7c-0.2,0-1.3-0.2-3.3-0.7c-2-0.5-4.5-1.2-7.4-2.2c-15.8-4.6-25.3-3.8-28.6,2.3
		c-1,1.7-1.3,3.4-1,5C601.3,113.4,601.9,114.7,602.7,115.6z M919.5,228.3c0,0.2-0.1,0.9-0.3,2.2c-0.2,1.3-0.5,2.6-0.9,4.2
		c-1.7,9.8-5.5,18.3-11.3,25.4c-0.6,0.8-1.1,1.4-1.6,2c-0.5,0.6-0.8,0.9-1,0.9c-1,0-1.8-1-2.5-2.9c-0.7-1.9-1-4-1-6.3
		c0-5.4,2.5-10.9,7.5-16.4c0.8-0.8,1.8-1.7,3-2.9c1.2-1.2,2.5-2.2,3.6-3.2c1.2-1,2.2-1.7,3-2.3C919,228.3,919.5,228.1,919.5,228.3z
		 M895.8,140.8c0.2-1.3,0.7-2.9,1.4-4.6c3.1-6,7-9.7,11.7-11.3c4.7-1.5,8.3-0.3,10.8,3.8c1,1.9,1.6,4.5,1.9,7.8c0.3,3.3,0,6.3-1,9.2
		c-1,3.3-2.4,6.7-4.2,10.4c-1.8,3.7-3.6,6.5-5.3,8.7c-2.1,2.7-3.7,4.1-4.6,4.3c-1,0.2-2.3-0.6-4-2.3c-1-1-1.9-2.1-2.7-3.5
		c-0.9-1.3-1.6-2.6-2.2-3.8c-1-1.9-1.5-3.6-1.7-4.9c-0.2-1.3-0.3-3.7-0.3-6.9C895.5,144.5,895.6,142.2,895.8,140.8z M707.9,153.5
		c0.2-4,0.5-8.8,1-14.3c0.5-5.5,1.1-11,1.7-16.6c0.7-5.6,1.3-9.9,1.9-13c1.5-6.3,3.5-12,5.8-16.9c2.3-4.9,4.8-8.5,7.5-10.8
		c2.7-2.1,5.5-2.7,8.5-1.7c3,1,5.4,3.3,7.4,6.9c1,1.9,1.5,3.6,1.7,4.9c0.2,1.3,0.3,4,0.3,8.1c0,3.9-0.1,6.8-0.4,8.8
		c-0.3,2-0.9,4.4-1.9,7.1c-2.7,8.1-6.4,15.6-11.3,22.7c-4.8,7-10.3,12.7-16.5,17.2c-1.3,1-2.6,1.8-3.6,2.6c-1.1,0.8-1.7,1.2-1.9,1.2
		C707.8,159.6,707.7,157.5,707.9,153.5z"/>
	<path d="M827.4,107.6c1.9,1.2,4.2,1.6,6.9,1.3c2.7-0.3,4.8-1.2,6.4-2.7c3.5-3.3,5.3-7.1,5.5-11.5c0.2-4.4-1.3-8.2-4.6-11.3
		c-1.2-1-2.2-1.6-3-1.9c-0.9-0.3-2.4-0.5-4.5-0.7c-2.1-0.2-3.7-0.2-4.6,0c-1,0.2-2,0.7-3.2,1.4c-1.7,1.3-3.3,2.9-4.6,4.6
		c-0.8,1.2-1.3,2.2-1.4,3.2c-0.2,1-0.2,2.6,0,4.9C820.4,100.3,822.8,104.5,827.4,107.6z"/>
	<path d="M297.5,512.2c5.7-13.5,2.9-30.5,2.4-44.8c-0.1-3.7-0.3-7.4-0.4-11c15.8-2.8,31.6-4.8,47.6-6.1c0.8,19.9,1.9,39.7,3.6,59.5
		c1.2,13.4,23.6,13.7,24.1-0.1c0.6-20.4,0.6-40.8,0.3-61.1c5.1-1.5,8.4-7.7,7.7-12.7c-0.7-5-4-8-8.2-9.2c-0.8-29-2-57.9-3-86.9
		c-0.2-7.4-8.7-12.6-15.4-11.6c-8,1.1-11.8,8-11.6,15.4c0.7,27.9,1,55.7,1.8,83.6c-16,1.2-31.9,3.1-47.7,5.9c-0.1-2-0.2-4.1-0.2-6.1
		c-1-27.3-2.1-54.7-3.2-82c-0.3-8.1-9.9-14.6-17.5-13.2c-9,1.7-13.5,8.8-13.2,17.5c0.8,27,1.6,54.1,2.4,81.1
		c0.1,3.1,0.2,6.1,0.3,9.2c-1.7,0.4-3.3,0.8-5,1.2c-6.1,1.5-10.8,6.4-9.9,13.1c0.8,5.7,7,11.4,13.1,9.9c0.8-0.2,1.6-0.4,2.5-0.6
		c0.1,2.3,0.1,4.6,0.2,6.8c0.2,6.9,0.3,13.9,0.7,20.8c0.3,7,1.3,15.5,4.5,21.8C278.2,522.5,292.9,523.1,297.5,512.2z"/>
	<path d="M490.2,343c-10.6-9.1-24-13.6-37.4-12.2c-0.3-0.4-0.5-0.8-0.8-1.2c-4.7-6-14.3-7.4-20.3-2.4
		c-26.3,22.1-36.2,57.2-38.7,90.2c-2.4,31.6-3.4,76.2,26.7,96.1c13.8,9.2,31.8,10.3,46.8,3.2c14.3-6.7,25.1-18.9,33-32.3
		c16.7-28.4,23.1-63.6,15.9-96C511.5,371.3,503.8,354.8,490.2,343z M486.1,466.3c-8.1,16.2-29.3,42.6-50,29.5
		c-8.3-5.3-12.3-17-14-26.1c-2.7-14.1-2.1-28.6-1.1-42.8c1-15.2,3.1-30.4,8.1-44.6c4.3-12.2,10.4-23,18.7-30.7
		c1.2,0,2.3-0.2,3.5-0.6c9.6-2.8,19.7,1.9,26.9,8c8.6,7.3,13.9,18.6,16.8,29.2C502,413.8,497.8,442.6,486.1,466.3z"/>
	<path d="M646.4,428.8c3.7-9.1,7.7-18,11.6-27c4.1-9.6,8.3-19.1,12.5-28.7c0.1-0.3,0.3-0.6,0.4-1c-0.1,2.5-0.1,5-0.2,7.5
		c-0.3,14.1-0.7,28.1-0.8,42.2c-0.2,13.8-0.3,27.5-0.5,41.3c-0.1,6.9-0.1,13.8-0.1,20.7c0,8.8-0.4,17,3.2,25.2
		c4.8,10.8,20.6,10.6,25.2-0.2c3.5-8.2,2.9-16.3,2.9-25.1c-0.1-7.9-0.3-15.7-0.5-23.6c-0.4-15.1-0.7-30.1-1.1-45.2
		c-0.4-15-1-30.1-1.6-45.1c-0.3-7.2-0.6-14.4-1.2-21.5c-0.6-7.1-4-14.8-11.2-17.5c-16.6-6.2-23.9,12-29.3,23.6
		c-6.4,13.6-12.8,27.2-19.3,40.7c-6.1,12.7-11.7,26.2-18.9,38.3c-0.6,0.9-1.2,1.9-1.7,2.7c-0.3-0.5-0.7-0.9-1.1-1.4
		c-0.2-0.2-0.3-0.4-0.4-0.6c-1.2-2-2.3-4.2-3.4-6.2c-8.3-15.1-16.5-30.2-24.9-45.2c-8.5-15-17.6-29.6-25.6-44.9
		c-1.4-2.7-3.8-4.8-6.5-5.6c-3.1-3-7.8-4.7-11.9-4.1c-8,1.1-11.8,8-11.6,15.4c1.3,55.5,1.4,111,6.2,166.3
		c1.2,13.4,23.6,13.7,24.1-0.1c1.3-42.5-0.1-84.9-1.7-127.4c2.3,5.2,4.7,10.4,7.1,15.5c4.2,8.9,8.6,17.8,12.9,26.7
		c4,8.3,7.7,16.8,12.3,24.7c4.6,7.8,11.2,14.6,20.7,15.9c9.7,1.4,19-3.6,24-11.8C640.4,445.7,643,437,646.4,428.8z"/>
	<path d="M798.7,344.2c2.6,0.2,5.4,0.7,7.6,2.3c1.1,0.8,0.8,0.5,1,1.9c1.5,11.3,19.7,11.8,20.5-0.1c0.6-9.4-4.5-18.3-13-22.6
		c-8-4.1-17.8-2.7-26.4-1.8c-18.8,1.9-37.6,3.4-56.4,5.1c-3.7,0.3-6.1,2.2-7.3,4.7c-4.3,2.1-7.8,6.1-8,11.1
		c-1.1,33.8-2.2,67.8,1.3,101.6c1.7,16.4,3.4,34,9.3,49.5c5.7,15.1,19.4,28,36.1,28.6c18.7,0.7,34.4-8.3,49.1-18.9
		c9.2-6.7-0.2-23.3-10.5-17.5c-6.8,3.8-13.9,8.1-21.6,9.8c-3.4,0.7-6.3,1-9.6,0.4c-1.7-0.3-2.2-0.5-4.2-1.4
		c-0.4-0.1-2.6-1.4-2.7-1.4c-0.7-0.5-1.3-1-1.9-1.5c0.9,1,0.7,0.9-0.4-0.4c-1-1.1-1.8-2.3-2.7-3.5c-0.2-0.3-0.3-0.5-0.5-0.7
		c-0.4-0.8-0.8-1.7-1.2-2.5c-0.5-1.1-0.9-2.2-1.3-3.4c-0.6-1.9-0.7-2.3-0.4-1.1c-2.2-8.5-3.2-17.4-4.3-26c-1-8.1-1.8-16.2-2.5-24.3
		c7-1.7,13.8-2.2,20.9-1.2c12.2,1.6,14.6-17.2,2.5-18.9c-8.2-1.1-16.5-0.9-24.6,0.8c-1.1-21.7-1.3-43.4-1.5-65
		c10.8-0.8,21.7-1.6,32.6-2.3C785.2,344.8,792.1,343.8,798.7,344.2z"/>
	<path d="M924.1,330.1c1.5,0.1,3.1,0.2,4.7,0.3c3.2-3.5,5.4-7.5,7.1-11.8c3.1-7.4,4.9-15.1,5.1-23.1c0.1-5.9-0.5-11.6-4.1-16.6
		c-1.5-0.9-2.9-1.9-4.4-2.8c-2.7,0.1-4.7,1.5-6,3.8c-1.1,1.9-2.3,3.8-3.1,5.9c-4.9,13.3-5.5,26.6-0.6,40.1
		C923.3,327.2,923.6,328.6,924.1,330.1z M925.9,291.9c0.2-1.2,0.7-2.4,1-3.6c0.4-1.5,1-3.2,2.7-3c1.3,0.2,2.7,1.3,3.5,2.4
		c0.8,1.1,1.3,2.7,1.3,4.2c0.1,2.1,0.2,4.3-0.4,6.3c-1.9,7.4-4.1,14.8-6.1,22.2c-0.3,0-0.7-0.1-1-0.1
		C925.5,310.9,924.1,301.4,925.9,291.9z"/>
	<path d="M915.3,420c15.2-5,28.3-13.3,39.8-24.3c4.1-4,7.7-8.6,10.2-13.7c1.2-2.4,2.1-5.1,2.3-7.8c0.6-7.2-4.9-12.5-12-11.8
		c-5.7,0.5-10.9,2.4-15.8,5.4c-8.3,5.2-14.6,12.3-20.1,20.2c-2.2,3.1-4.2,6.4-6.4,9.8c-0.2-0.4-0.4-0.9-0.5-1.4
		c-2-17.3-5.7-34.1-13.2-50c-0.6-1.2-0.8-2.6-1-3.9c-0.9-7-2.3-13.8-5.2-20.2c-5.6-12.6-13.6-23.1-26.1-29.7
		c-6.6-3.4-13.3-4.7-20.4-1.6c-4.8,2.1-6.9,5.4-6,10.6c0.8,4.8,2.6,9.3,5.3,13.5c5.7,8.8,13,16,21.8,21.8
		c6.3,4.2,12.8,8.3,20.2,10.4c1.7,0.5,2.3,1.8,3,3.1c6.3,11.5,10,23.8,12.2,36.7c0.5,3.1,0.9,6.1,0.7,9.5c-0.5-0.8-1.1-1.7-1.6-2.5
		c-5.7-9.4-12.8-17.5-22.4-23.1c-4.7-2.7-9.7-4.6-15.1-5.2c-10.7-1.2-17.6,7.8-13.7,17.9c2.2,5.7,6.2,10.2,10.7,14.1
		c7.2,6.2,15.4,11,23.6,15.7c6.5,3.7,13,7.2,19.5,10.8c0.8,12.2-5.3,46-10,54.9c-0.2-1.6-0.4-2.8-0.5-4c-0.8-9.2-3.2-17.9-7.6-26
		c-3.2-5.8-7.4-10.6-13-14.2c-7.3-4.6-15.4-1.6-17.6,6.8c-0.7,2.8-0.7,5.9-0.5,8.9c0.6,7.1,2.9,13.9,6,20.3
		c5.7,12,13.1,22.9,22.8,32.8c-2.3,4-4.7,8-7.1,12.1c-0.8,1.4-1.9,2.6-2.7,4.1c-0.6,1.1-1.1,2.3-1.2,3.5c-0.3,2.7,1.6,4.4,4.1,3.5
		c1.7-0.6,3.4-1.8,4.4-3.2c3.2-4.1,6.2-8.4,9.3-12.6c0.4-0.5,0.7-1,1.2-1.8c6.8,0.8,13.4-0.4,19.7-2.8c14.6-5.4,26.9-14,36.3-26.4
		c4.1-5.5,6.8-11.6,6.9-18.6c0-1.4-0.1-2.8-0.4-4.1c-0.8-3-2.7-4.5-5.7-4.2c-2.5,0.2-4.9,0.7-7.3,1.4c-7.3,2.3-13.9,6.1-20,10.7
		c-5.1,3.9-10,8.1-15,12.2c4.3-18.7,6.4-37.6,6.5-56.8C914.2,420.4,914.7,420.2,915.3,420z M916.7,407.3c4.5-6.4,8.8-13,13.7-19.1
		c3.8-4.7,8.4-8.7,12.9-12.9c1.3-1.3,3-2.2,4.7-3c1.4-0.7,2.9-0.8,4.1,0.6c1.2,1.3,1.1,2.7,0.2,4.1c-0.6,1-1.2,1.9-1.9,2.8
		c-9.7,11.5-21.5,20.6-34.3,28.8C916.3,408.1,916.5,407.6,916.7,407.3z M886.3,336.8c-0.5-0.2-0.9-0.4-1.3-0.7
		c-10-6.2-18.5-14.1-25.5-23.6c-1.1-1.5-2.1-3.1-2.8-4.8c-0.8-1.8-1.5-3.9,0.3-5.5c1.9-1.6,4-1.3,5.9-0.1c1.7,1,3.3,2.2,4.7,3.6
		c8.8,8.7,14.2,19.6,19.6,30.8C886.5,336.8,886.4,336.8,886.3,336.8z M900.2,411.4c-9.4-7-18.8-13.8-28.1-20.9
		c-2.5-1.9-4.7-4.1-6.7-6.4c-2.1-2.3-3.1-5.1-2.5-8.3c0.4-2.4,1.8-3.2,4-2.4c1.5,0.5,3,1.3,4.2,2.3c4.2,3.7,8.5,7.3,12.4,11.3
		c6.8,7.1,12.2,15.3,17.5,23.6C900.7,410.8,900.5,411.1,900.2,411.4z M869.7,453.4c-0.4-1.3-0.7-2.7-0.8-4c-0.2-2.6,2.1-4.3,4.4-3.1
		c1.3,0.6,2.5,1.7,3.3,2.9c1.3,2,2.3,4.1,3.2,6.3c3.9,9.5,6.2,19.4,7.4,29.5c0.3,2.2,0.3,4.4,0.5,6.6
		C879.8,479.5,873.7,466.9,869.7,453.4z M911.4,488.4c8.6-9.1,17.2-18.3,27.3-25.9c1.2-0.9,2.4-1.8,3.8-2.4c2.5-1.2,3.8-0.4,4.1,2.3
		c0.5,3.5-0.7,6.6-2.4,9.6c-2.3,3.9-5.5,7.1-8.9,10c-9.6,8.2-20.6,13.7-32.7,17c-0.2-0.2-0.4-0.4-0.5-0.6c0.7-0.8,1.4-1.7,2.2-2.5
		C906.6,493.5,909,490.9,911.4,488.4z"/>
	<path d="M153.5,312.8c-1.3-2.3-3.3-3.6-6-3.8c-1.5,0.9-2.9,1.9-4.4,2.8c-3.6,5-4.3,10.7-4.1,16.6c0.2,8,2.1,15.7,5.1,23.1
		c1.8,4.2,3.9,8.3,7.1,11.8c1.6-0.1,3.2-0.2,4.7-0.3c0.4-1.5,0.8-2.9,1.3-4.3c4.9-13.4,4.3-26.8-0.6-40.1
		C155.8,316.6,154.6,314.7,153.5,312.8z M153,353.2c-0.3,0-0.7,0.1-1,0.1c-2.1-7.4-4.2-14.7-6.1-22.2c-0.5-2-0.5-4.2-0.4-6.3
		c0.1-1.4,0.5-3,1.3-4.2c0.8-1.1,2.2-2.2,3.5-2.4c1.7-0.3,2.3,1.5,2.7,3c0.4,1.2,0.8,2.4,1,3.6C155.9,334.4,154.5,343.8,153,353.2z"
		/>
	<path d="M114.7,414.9c2.5,5.2,6.1,9.7,10.2,13.7c11.4,11.1,24.6,19.4,39.8,24.3c0.6,0.2,1.1,0.4,1.8,0.7
		c0.1,19.2,2.2,38.1,6.5,56.8c-5-4.1-9.9-8.3-15-12.2c-6-4.7-12.6-8.5-20-10.7c-2.4-0.7-4.8-1.3-7.3-1.4c-3-0.2-4.9,1.3-5.7,4.2
		c-0.4,1.3-0.5,2.7-0.4,4.1c0.1,7,2.7,13.1,6.9,18.6c9.4,12.4,21.7,21.1,36.3,26.4c6.4,2.3,12.9,3.5,19.7,2.8
		c0.5,0.7,0.8,1.3,1.2,1.8c3.1,4.2,6,8.6,9.3,12.6c1.1,1.4,2.8,2.6,4.4,3.2c2.6,0.9,4.5-0.8,4.1-3.5c-0.1-1.2-0.6-2.4-1.2-3.5
		c-0.8-1.4-1.8-2.7-2.7-4.1c-2.4-4-4.8-8.1-7.1-12.1c9.7-9.9,17-20.8,22.8-32.8c3.1-6.4,5.4-13.2,6-20.3c0.3-2.9,0.2-6-0.5-8.9
		c-2.2-8.4-10.2-11.4-17.6-6.8c-5.6,3.5-9.8,8.4-13,14.2c-4.4,8.1-6.8,16.8-7.6,26c-0.1,1.2-0.3,2.4-0.5,4
		c-4.7-8.9-10.8-42.7-10-54.9c6.5-3.6,13.1-7.1,19.5-10.8c8.2-4.7,16.4-9.5,23.6-15.7c4.6-3.9,8.5-8.4,10.7-14.1
		c3.9-10-3-19-13.7-17.9c-5.4,0.6-10.4,2.5-15.1,5.2c-9.6,5.6-16.7,13.7-22.4,23.1c-0.5,0.9-1.1,1.7-1.6,2.5
		c-0.2-3.4,0.1-6.4,0.7-9.5c2.2-12.9,5.9-25.2,12.2-36.7c0.7-1.3,1.3-2.6,3-3.1c7.4-2.2,13.8-6.2,20.2-10.4c8.7-5.8,16-13,21.8-21.8
		c2.7-4.1,4.5-8.6,5.3-13.5c0.9-5.2-1.3-8.5-6-10.6c-7.1-3.1-13.9-1.9-20.4,1.6c-12.5,6.5-20.6,17-26.1,29.7
		c-2.8,6.4-4.3,13.2-5.2,20.2c-0.2,1.3-0.4,2.7-1,3.9c-7.5,15.8-11.2,32.7-13.2,50c-0.1,0.5-0.4,1-0.5,1.4c-2.2-3.4-4.2-6.7-6.4-9.8
		c-5.5-7.9-11.8-15.1-20.1-20.2c-4.8-3-10.1-4.9-15.8-5.4c-7.2-0.6-12.6,4.6-12,11.8C112.7,409.8,113.5,412.5,114.7,414.9z
		 M192.7,517.8c1.3-10.1,3.5-20.1,7.4-29.5c0.9-2.2,2-4.3,3.2-6.3c0.8-1.2,2-2.3,3.3-2.9c2.3-1.1,4.6,0.5,4.4,3.1
		c-0.1,1.3-0.4,2.7-0.8,4c-4,13.5-10.1,26.1-18.1,38.1C192.4,522.2,192.4,520,192.7,517.8z M196.5,420c3.9-4,8.2-7.6,12.4-11.3
		c1.2-1,2.7-1.8,4.2-2.3c2.2-0.8,3.6,0.1,4,2.4c0.5,3.2-0.4,6-2.5,8.3c-2.1,2.3-4.3,4.5-6.7,6.4c-9.3,7.1-18.7,13.9-28.1,20.9
		c-0.2-0.3-0.5-0.5-0.7-0.8C184.3,435.2,189.7,427,196.5,420z M212.5,338.7c1.4-1.4,3-2.6,4.7-3.6c1.9-1.2,4-1.5,5.9,0.1
		c1.9,1.6,1.2,3.7,0.3,5.5c-0.8,1.7-1.7,3.3-2.8,4.8c-7,9.5-15.5,17.4-25.5,23.6c-0.4,0.3-0.9,0.5-1.3,0.7c-0.1,0-0.2,0-0.8-0.2
		C198.3,358.4,203.7,347.5,212.5,338.7z M175.8,528.9c0.8,0.8,1.5,1.6,2.2,2.5c-0.2,0.2-0.4,0.4-0.5,0.6c-12.1-3.3-23.1-8.9-32.7-17
		c-3.4-2.9-6.6-6-8.9-10c-1.7-3-2.9-6.1-2.4-9.6c0.4-2.7,1.6-3.5,4.1-2.3c1.3,0.6,2.6,1.5,3.8,2.4c10.1,7.5,18.7,16.7,27.3,25.9
		C171,523.9,173.4,526.4,175.8,528.9z M127.9,405.8c1.2-1.3,2.7-1.3,4.1-0.6c1.7,0.8,3.4,1.7,4.7,3c4.4,4.2,9,8.2,12.9,12.9
		c4.9,6.1,9.2,12.7,13.7,19.1c0.3,0.4,0.4,0.8,0.6,1.2c-12.8-8.1-24.6-17.2-34.3-28.8c-0.7-0.9-1.3-1.8-1.9-2.8
		C126.9,408.5,126.8,407.1,127.9,405.8z"/>
	<path d="M143.8,699.5c3.2-0.2,6-0.8,8.4-1.8c4.6-1.9,8.8-6,12.6-12.1c1.2-1.8,2.1-2.9,2.8-3.6c0.6-0.6,1.1-0.8,1.4-0.7
		c1.4,0.5,3.2,1,5.4,1.3c2.2,0.4,4,0.4,5.4,0.3c4-0.5,7.9-2.4,11.7-5.5c3.8-3.2,6.9-7.1,9.3-11.8c0.6-1.5,1.4-3.3,2.2-5.3
		c1,6,2.2,11.9,3.7,17.7c1.8,7,3.9,13.1,6.2,18.2c2.6,6,5.7,10.9,9.3,14.9c3.6,3.9,7.1,6.5,10.7,7.8c1.9,0.5,4.3,0.7,7,0.4
		c2.7-0.3,4.8-0.9,6.2-2c5.6-3.7,8.7-11.2,9.2-22.6l0.3-8.2l2.9-1.8c1.7-0.9,3.6-2.3,5.4-4.2c1.8-1.9,3.5-4,4.9-6.3
		c1.1-1.8,2.2-4,3.4-6.8c1.2-2.8,2.4-5.8,3.4-8.9c1.1-3.2,2-6.3,2.8-9.3c0.8-3.1,1.4-5.7,1.7-8c0.3-1.9,0.5-3.1,0.4-3.6
		c-0.1-0.4-0.6-0.8-1.4-1.2c-2.5-1.6-3.9,0.1-4.5,5c-0.2,0.9-0.5,2.3-0.9,4.2c-0.4,1.9-0.9,3.8-1.4,5.5c-1.9,6.7-4.2,12.5-6.7,17.4
		c-2.5,4.9-5.2,8.3-8,10.3l-3.2,2.1l-2.1-4.7c-2.5-5.1-5.9-9.3-10.3-12.6c-4.4-3.3-9.2-5.4-14.5-6.3c-1.4-0.3-2.5-0.6-3.4-0.8
		c-0.9-0.2-1.4-0.3-1.6-0.3c-0.4-2.3-0.6-4.2-0.8-5.8c-0.2-1.6-0.4-3.2-0.5-4.9c-0.2-1.7-0.3-3.1-0.3-4.3l-0.3-5.8l3.4-1.1
		c2.6-0.9,5.4-2.1,8.2-3.7c2.8-1.6,5.5-3.3,8.2-5.1c2.6-1.8,5-3.8,7.2-5.8c2.2-2,4-4,5.4-5.9c2.5-3.3,4.6-6.9,6.3-10.8
		c1.8-3.9,3.1-7.7,4.1-11.6c1-3.9,1.5-7.6,1.6-11.3c0.1-3.7-0.3-7-1.2-10c-0.7-2.5-2-4.9-3.9-7.2c-1.9-2.4-4.1-4.3-6.6-5.7
		c-1.4-0.9-2.7-1.4-3.8-1.6c-1.1-0.2-3.4-0.3-6.7-0.3c-3.3,0-5.6,0.1-6.7,0.4c-1.1,0.3-2.9,0.9-5.1,2c-14.9,7.5-24.4,24.5-28.4,50.8
		c-0.5,2.8-0.9,6.3-1.1,10.5c-0.2,4.2-0.3,8.6-0.3,13.3c0,4.6,0.1,9.1,0.3,13.4c0,0.3,0,0.5,0,0.8c-0.1,0.4-0.2,0.8-0.3,1.3
		c-0.5,2.2-1.1,4.1-1.6,5.7c-1.9,6.1-4.2,11-6.7,14.5c-2.5,3.5-5.6,6.2-9.1,8.2c-1.8,0.9-3.1,1.4-3.9,1.6c-0.9,0.2-2.2,0.1-3.9-0.3
		c-1.2-0.2-2.3-0.3-3.2-0.4c-0.9-0.1-1.4-0.3-1.6-0.7c-0.5-0.5,0-3.1,1.6-7.6c1.4-4.7,2.5-9.5,3.2-14.3c0.7-4.8,1.2-10.7,1.6-17.8
		c0.5-12.6-0.3-23.4-2.5-32.2c-2.2-8.9-5.6-15.4-10.2-19.6c-6.2-6-11.9-6.5-17.2-1.6c-2.5,2.6-4.3,6.3-5.6,10.9
		c-1.2,4.6-1.9,10.8-1.9,18.5c0,13.7,1.5,25.7,4.5,35.9c3,10.3,7.4,18.5,13.2,24.6l4.7,5.3l-1.8,3.4c-1.6,2.8-3.6,5.3-6.2,7.5
		c-2.5,2.2-4.8,3.6-6.7,4.1c-1.9,0.5-3.3,0.6-4.1,0.3c-0.8-0.3-1.9-1.8-3.3-4.2c-3.5-6.1-5.5-13.5-6.1-22
		c-0.6-8.5,0.3-17.9,2.7-28.3c0.9-4,1.3-6.5,1.4-7.5c0.1-1-0.1-2.1-0.7-3.3c-1.6-3.3-5.1-5.1-10.7-5.3c-2.4-0.2-3.9-0.2-4.4,0
		c-0.5,0.2-1.5,1-2.9,2.4c-1.4,1.4-2.7,3.4-3.8,5.9c-1.1,2.5-2.1,5.4-2.9,8.5c-0.8,3.2-1.3,6.5-1.7,10c-0.3,3.5-0.4,6.9-0.3,10.3
		c0.4,10,2.6,18.3,6.8,24.9c4.2,6.6,10,11.1,17.4,13.5C137.8,699.4,140.6,699.7,143.8,699.5z M224,661.9c0.2-0.2,0.8-0.2,2,0
		c1.1,0.2,2.4,0.5,3.8,0.9c1.4,0.4,2.8,1,4.1,1.6c1.3,0.6,2.4,1.2,3.3,1.7c2.3,1.6,3.3,2.8,3.2,3.7c-0.2,0.4-0.3,1.1-0.3,2.4
		c0,1.2,0,2.5,0,3.7c-0.2,2.3-0.1,3.7,0.1,4.3c0.3,0.6,1.1,1.5,2.5,2.8c0.7,0.7,1.5,1.3,2.5,1.8c1,0.5,1.7,0.9,2.2,1.1
		c1.4,0.2,2.3,0.9,2.6,2.1c0.3,1.4,0.3,3.7,0,6.8c-0.4,3.2-1,6-1.8,8.7c-0.4,1.4-0.9,2.8-1.6,4.1c-0.7,1.3-1.2,2.2-1.6,2.8l-1.8,1.8
		l-1.8-3.2c-0.9-1.2-1.9-3.1-3.2-5.7c-1.2-2.5-2.5-5.3-3.8-8.2c-1.3-2.9-2.6-5.8-3.8-8.7c-1.2-2.9-2.1-5.2-2.6-7
		c-1.2-4-2.3-7.9-3.2-11.6C223.9,664.3,223.7,662.3,224,661.9z M220.3,619c0.5-8.2,1.4-15.3,2.5-21.3c1.1-6,2.8-11.8,5.1-17.6
		c2.1-5.6,4.8-10.3,8.2-14.1c3.3-3.8,6.3-5.7,8.9-5.7c2.8,0,5.5,1.1,8.2,3.3c2.6,2.2,4.4,5,5.3,8.3c0.9,2.5,1.3,4.9,1.2,7.4
		c-0.1,2.5-0.7,5.7-1.7,9.7c-1.8,6.8-4.1,12.5-7,17.1c-2.9,4.6-6.9,8.8-12,12.6c-1.8,1.4-3.7,2.8-5.9,4.2c-2.2,1.4-4,2.5-5.4,3.2
		c-2.1,1.1-3.7,1.8-4.7,2.2c-1.1,0.4-1.8,0.4-2.2,0c-0.4-0.4-0.7-1.4-0.7-2.9C220.1,624,220.1,621.8,220.3,619z M161.7,668.8
		c-5.1-5.6-8.9-13.1-11.6-22.4c-2.6-9.3-4-20-4.2-32.1c0-6.7,0.3-11.8,0.9-15.4c0.6-3.6,1.7-6.8,3.3-9.6c2.5-4.4,5.9-4.8,10.3-1.3
		c3.9,3.2,6.8,8.5,8.8,15.9c2,7.5,3,16.5,3,27.2c0,7.2-0.4,13.5-1.1,18.9c-0.7,5.4-1.8,10.7-3.4,15.8c-0.7,1.8-1.3,3.3-1.7,4.6
		c-0.4,1.3-0.7,2-0.9,2c-0.4-0.2-0.7-0.5-1.1-1.1c-0.4-0.3-0.7-0.7-1.2-1.2C162.4,669.8,162,669.3,161.7,668.8z"/>
	<path d="M489.7,706.6c2.1-2.5,3.9-5.5,5.5-9.1c1.6-3.6,3.1-7.8,4.5-12.5c1.4-4.2,2.7-9.3,3.9-15.4c1.2-6.1,2.3-11.5,3.2-16.4
		c0.3,1.2,0.7,2.4,1.1,3.6c0.3,1.1,0.7,2.4,1.1,3.8c2.6,10.4,6.6,19.1,11.8,26.3c5.3,7.2,11,11.7,17.1,13.4c7.5,1.9,14.2-0.3,20-6.6
		c2.1-2.3,3.9-4.9,5.5-7.9c1.6-3,3.2-6.6,4.7-10.8c1.1-2.8,2.1-6.1,3.2-10c1.1-3.9,2-7.6,2.8-11.3c0.8-3.7,1.4-7,2-10
		c0.5-3,0.7-5,0.5-6.1c0-1.1-0.1-1.7-0.4-2c-0.3-0.3-0.9-0.4-2-0.4c-0.9,0-1.4,0.1-1.7,0.4c-0.3,0.3-0.6,1-0.9,2.2
		c-1.6,7.7-3.1,14.4-4.5,20.1c-1.4,5.7-2.8,10.6-4.2,14.7c-1.4,4.1-2.9,7.5-4.3,10.3c-1.5,2.7-3.1,5-4.9,6.7
		c-0.9,0.9-1.8,1.8-2.9,2.6c-1.1,0.9-2,1.5-2.9,1.8l-2.6,1.1l-3.7-3.9c-4.2-4.7-7.9-11.6-11.1-20.7c-3.2-9-5.6-19.3-7.4-30.9
		l-0.8-6.3l5.5-2.9c5.3-2.6,9.8-5.9,13.7-9.7c3.9-3.9,7.5-8.7,11-14.5c3.7-6.3,6.4-12.8,8.3-19.3c1.8-6.6,2.7-12.8,2.6-18.5
		c-0.1-5.8-1.1-10.9-3.2-15.4c-2-4.5-5-7.8-8.8-9.9c-3-1.4-6.5-1.8-10.7-1.3c-4.1,0.5-7.9,2-11.4,4.5c-7.7,5.6-13.4,13.9-17.1,25
		c-3.7,11-6.3,25.3-7.9,42.6c-1.2,15.4-2.6,28.4-4.1,38.8c-1.5,10.4-3.1,19-4.9,25.6c-1.8,6.7-3.5,11.8-5.1,15.4
		c-1.7,3.6-3.3,6.4-4.9,8.3c-0.9,0.9-1.8,1.9-2.9,3c-1.1,1.1-2,1.9-2.9,2.2l-2.6,1.1l-3.7-4.7c-4.2-5.3-7.9-13.1-11-23.4
		c-3.2-10.3-5.6-22.3-7.4-35.8l-0.8-7.4l5.5-3.2c5.3-3,9.8-6.7,13.7-11.2c3.9-4.5,7.5-10,11.1-16.7c3.7-7.2,6.4-14.6,8.3-22.2
		s2.7-14.8,2.6-21.4c-0.1-6.7-1.1-12.6-3.2-17.8c-2-5.2-5-8.9-8.8-11.2c-3-1.8-6.5-2.3-10.7-1.7c-4.1,0.6-7.9,2.3-11.4,5.1
		c-2.6,2.1-5.2,5-7.6,8.6c-2.5,3.6-4.7,7.7-6.8,12.4c-2.1,4.6-3.9,9.7-5.5,15.1c-1.6,5.4-2.8,11-3.7,16.6c-0.5,2.8-0.9,6.4-1.1,10.8
		c-0.2,4.4-0.3,9.1-0.4,14.2c-0.1,5.1,0,10.3,0.1,15.7c0.1,4.5,0.4,8.7,0.6,12.9c-0.4,1.8-0.9,3.7-1.4,5.9
		c-2.8,12.8-5.6,23.9-8.4,33.1c-2.8,9.3-5.4,16.5-7.9,21.6l-1.8,3.4l-0.8-2.9c-0.5-2.1-1-4-1.3-5.7c-0.4-1.7-0.6-3.6-0.8-5.9
		c-0.2-2.3-0.3-5-0.4-8.3c-0.1-3.2-0.1-7.4-0.1-12.5c0-5.6,0-11.2,0-16.8c0-5.6,0.1-9.5,0.3-11.6c0.2-3.5,0.2-5.7,0.1-6.7
		c-0.1-1-0.5-1.8-1.2-2.5c-2.1-2.5-5.7-3.2-10.8-2.1c-3.5,0.7-5.9,1.7-7.1,2.9c-1.2,1.2-2.5,3.8-3.7,7.6c-1.4,4.4-3.2,9.3-5.4,14.7
		c-2.2,5.4-4.3,10.2-6.4,14.2c-1.1,1.8-2.2,3.5-3.3,5.3c-1.1,1.8-2.2,3.3-3.3,4.7c-1.1,1.4-2,2.5-2.8,3.3c-0.8,0.8-1.3,1-1.4,0.7
		c-0.2-0.2-0.4-0.7-0.8-1.6c-0.4-0.9-0.7-1.8-1.1-2.9c-1.2-3.7-2.1-8.2-2.6-13.5c-0.5-5.3-0.7-11-0.7-16.8
		c0.1-5.9,0.5-11.7,1.2-17.5c0.7-5.8,1.7-10.9,2.9-15.3c1.6-5.1,3.4-9.4,5.5-12.9c2.1-3.5,4.1-5.3,6-5.3c2.1,0,4.4,1.2,6.8,3.6
		c2.5,2.4,4.6,5.4,6.6,9.1c1.2,2.5,2.3,4,3.2,4.7c0.9,0.7,1.8,0.6,2.9-0.3c0.7-0.5,1-1.3,0.8-2.4c-0.2-1.1-0.9-2.8-2.1-5.3
		c-1.4-3-3.4-5.8-5.9-8.5c-2.5-2.7-5.2-4.8-8-6.2c-1.9-0.9-3.5-1.4-4.6-1.6c-1.1-0.2-2.9-0.3-5.4-0.3c-4,0-7.3,0.6-9.7,1.8
		c-2.5,1.2-5.4,3.7-8.9,7.4c-8.4,8.9-13.8,21-16,36.3c-0.9,6-1.2,11.8-0.9,17.5c0.3,5.7,1.1,11,2.4,15.9c1.3,4.9,3,9.2,5.1,12.9
		c2.1,3.7,4.6,6.4,7.6,8.2c1.9,1.4,4.4,2.2,7.4,2.2c3,0.1,5.7-0.5,8.2-1.7c6.7-3.3,13.3-12.3,20-26.8l2.6-5.8v9.5
		c0,12.1,1.2,22.4,3.7,30.8c2.5,8.4,5.9,13.9,10.3,16.6c3.9,2.5,7.7,2.2,11.6-0.8c4-3,8.2-10.7,12.6-23.2c3.2-9.2,6.3-20.3,9.3-33.2
		c0.6,3.4,1.2,6.2,2,8.2c2.6,11.9,6.6,22.1,11.8,30.4c5.3,8.3,11,13.5,17.1,15.4C477.3,716.6,483.9,714,489.7,706.6z M521.4,619
		c0.1-2.6,0.2-5.6,0.3-8.8c0.1-3.2,0.3-6.5,0.5-9.9c0.3-3.3,0.6-6.2,0.9-8.7c0.7-4.6,1.4-8.4,2.1-11.4c0.7-3.1,1.8-6.7,3.2-10.9
		c1.7-5.4,3.9-9.9,6.4-13.4c2.5-3.5,5.1-5.8,7.8-7c2.6-1.1,5.1-1.1,7.5,0.3c2.4,1.3,4.3,4,5.9,8c1.2,3,1.8,7.1,1.8,12.4
		s-0.6,10.1-1.8,14.5c-1.1,4.2-2.5,8.3-4.5,12.2c-1.9,3.9-4.1,7.7-6.4,11.2c-2.4,3.5-5,6.7-7.8,9.5c-2.8,2.8-5.6,5-8.4,6.6
		c-3.3,1.9-5.3,2.9-5.9,3c-0.6,0.1-1.1-0.6-1.4-2C521.4,623.5,521.3,621.7,521.4,619z M453.3,620.7c0.1-3.1,0.2-6.5,0.3-10.3
		c0.1-3.8,0.3-7.6,0.5-11.4c0.3-3.9,0.6-7.2,0.9-10c0.7-5.1,1.4-9.4,2.1-13c0.7-3.6,1.8-7.8,3.2-12.8c1.8-6.3,3.9-11.4,6.4-15.4
		c2.5-3.9,5.1-6.6,7.8-7.9c2.6-1.3,5.1-1.2,7.5,0.3c2.4,1.5,4.3,4.5,5.9,9.1c0.5,1.8,1,3.9,1.3,6.3c0.3,2.5,0.5,5.1,0.5,8
		c0,2.9-0.2,5.8-0.5,8.7c-0.4,2.9-0.8,5.7-1.3,8.3c-1.1,4.7-2.5,9.4-4.5,13.9c-1.9,4.6-4.1,8.8-6.4,12.8c-2.4,3.9-5,7.5-7.8,10.8
		c-2.8,3.2-5.6,5.8-8.4,7.8c-3.3,2.3-5.3,3.5-5.9,3.6c-0.6,0.1-1.1-0.7-1.4-2.5C453.2,625.9,453.2,623.8,453.3,620.7z"/>
	<path d="M968.9,637.1c-0.1-0.4-0.6-0.8-1.4-1.2c-1.2-0.7-2.1-0.6-2.8,0.4c-0.6,1-1.3,2.9-2,5.9c-0.4,1.4-0.8,3.2-1.3,5.4
		c-0.5,2.2-1.1,4.1-1.6,5.7c-1.9,6.1-4.2,11-6.7,14.5c-2.5,3.5-5.6,6.2-9.1,8.2c-1.8,0.9-3.1,1.4-3.9,1.6c-0.9,0.2-2.2,0.1-3.9-0.3
		c-1.2-0.2-2.3-0.3-3.2-0.4c-0.9-0.1-1.4-0.3-1.6-0.7c-0.5-0.5,0-3.1,1.6-7.6c1.4-4.7,2.5-9.5,3.2-14.3c0.7-4.8,1.2-10.7,1.6-17.8
		c0.5-12.6-0.3-23.4-2.5-32.2c-2.2-8.9-5.6-15.4-10.2-19.6c-6.2-6-11.9-6.5-17.2-1.6c-2.5,2.6-4.3,6.3-5.6,10.9
		c-1.2,4.6-1.9,10.8-1.9,18.5c0,13.7,1.5,25.7,4.5,35.9c3,10.3,7.4,18.5,13.2,24.6l4.7,5.3l-1.8,3.4c-1.6,2.8-3.6,5.3-6.2,7.5
		c-2.5,2.2-4.8,3.6-6.7,4.1c-1.9,0.5-3.3,0.6-4.1,0.3c-0.8-0.3-1.9-1.8-3.3-4.2c-3.5-6.1-5.5-13.5-6.1-22
		c-0.6-8.5,0.3-17.9,2.7-28.3c0.9-4,1.3-6.5,1.4-7.5c0.1-1-0.1-2.1-0.7-3.3c-1.6-3.3-5.1-5.1-10.7-5.3c-2.4-0.2-3.9-0.2-4.4,0
		c-0.5,0.2-1.5,1-2.9,2.4c-1.4,1.4-2.7,3.4-3.8,5.9c-1.1,2.5-2.1,5.4-2.9,8.5c-0.5,2.1-0.9,4.3-1.2,6.5c-0.4,1.5-0.8,3.4-1.4,5.6
		c-1.1,4.6-2.4,9.4-3.8,14.5c-2.6,10-4.8,18.1-6.6,24.3c-1.8,6.2-3.3,11-4.6,14.5c-1.3,3.4-2.6,5.8-3.8,7.1
		c-1.2,1.3-2.5,2.1-3.9,2.2c-4.7,0.7-8.6-4.1-11.6-14.5c-0.4-1.2-0.6-2.4-0.8-3.6c-0.2-1.1-0.4-2.5-0.5-4.1
		c-0.2-1.6-0.3-3.5-0.3-5.7c0-2.2,0-5,0-8.6c0-2.3,0-5,0-8.2c0-3.2,0-6.5,0.1-10c0.1-3.5,0.2-7.1,0.3-10.8c0.1-3.7,0.1-7.1,0.1-10.3
		c0.2-6.3,0.3-11.4,0.4-15.4c0.1-3.9,0-7.1-0.1-9.6c-0.2-2.5-0.5-4.4-1.1-5.9c-0.5-1.5-1.1-2.9-1.8-4.3c-3.5-6.1-9-7.5-16.6-4.2
		c-5.4,2.5-10.4,6.8-15,12.9c-4.6,6.1-9.2,14.6-13.9,25.5c-2.5,5.4-4.5,10.5-6.2,15.3c-1.7,4.7-3.1,9.6-4.3,14.7l-1.6,6.8l-1.1-5.3
		c-0.7-4.6-1.2-9.3-1.6-14.2c-0.4-4.9-0.5-9.7-0.5-14.5v-8.7l5-3.4c7.4-4.6,13.9-10.7,19.5-18.5c5.6-7.8,9.6-16.2,12.1-25.1
		c0.7-2.3,1.2-4.4,1.4-6.3c0.3-1.9,0.4-4.6,0.4-8.2c0-2.1,0-3.8-0.1-5c-0.1-1.2-0.2-2.3-0.3-3.2c-0.1-0.9-0.3-1.7-0.7-2.4
		c-0.4-0.7-0.8-1.7-1.3-2.9c-1.4-3-3-5.2-4.9-6.7c-1.8-1.5-4.1-2.7-6.7-3.6c-4.2-1.4-8.5-1.3-13,0.3c-4.5,1.6-8.5,4.4-12,8.4
		c-14.2,15.2-20.3,43.9-18.4,86c-0.9,2.1-1.8,4.3-3,6.4c-1.7,3.1-3.3,5.6-4.9,7.5c-1.4,1.6-3.3,3.2-5.7,4.7
		c-2.4,1.6-3.7,2.2-4.1,1.8c-0.2-0.2-0.2-1.3-0.1-3.4c0.1-2.1,0.3-4.6,0.7-7.6c0.3-4.2,0.5-8.6,0.5-13c0-4.5-0.2-8.7-0.5-12.8
		c-0.4-4-0.8-7.8-1.4-11.3c-0.6-3.5-1.4-6.4-2.2-8.7c-1.1-2.8-2.5-5-4.3-6.7c-1.8-1.7-3.8-2.5-5.9-2.5c-4.6,0-8.6,3-12,8.9
		c-3.4,6-5.3,13.4-5.7,22.4c-0.2,5.3,0,9.7,0.7,13.4c0.6,3.7,1.9,7.4,3.8,11c2.1,4.2,4.6,7.8,7.6,10.7c3,2.9,6.1,4.8,9.5,5.7
		l2.6,0.5l-1.1,5.5c-1.6,8.6-3.4,15.7-5.4,21.3c-2,5.6-4,9.4-5.9,11.3c-1.2,1.2-2.3,1.5-3.2,0.8c-0.5-0.3-1.2-1.3-2-2.8
		c-0.8-1.5-1.6-3.2-2.5-5.3c-0.9-2-1.7-4.1-2.5-6.2c-0.8-2.1-1.4-3.9-1.7-5.5c-1.4-4.7-2.4-10.2-3-16.4c-0.6-6.2-1-14-1.2-23.3
		c-0.2-3.7-0.3-6.7-0.4-9.1c-0.1-2.4-0.2-4.2-0.4-5.5c-0.2-1.3-0.4-2.3-0.5-2.9c-0.2-0.6-0.4-1.2-0.5-1.7c-0.7-0.9-1.3-1.4-1.7-1.7
		c-0.4-0.3-1.5-0.2-3.3,0.1c-1.8,0.2-4.1,0.9-7,2.2c-2.9,1.3-4.8,2.4-5.7,3.3c-0.4,0.4-0.8,1.4-1.3,3.2c-0.5,1.8-1.1,3.8-1.6,6
		c-2.3,8.1-4.8,15.7-7.5,23c-2.7,7.3-5.1,12.4-7.2,15.4c-1.1,1.4-1.9,1.7-2.5,0.8c-0.6-0.9-1.5-3.5-2.8-7.9
		c-3.3-12.8-3.2-28.9,0.5-48.4c1.1-5.4,1.6-9.6,1.6-12.4c0-2.8-0.5-4.7-1.6-5.8c-0.9-0.9-2.1-1.4-3.8-1.7c-1.7-0.3-3.5-0.3-5.4,0
		c-1.9,0.3-3.7,0.7-5.3,1.3c-1.6,0.6-2.6,1.4-3.2,2.5c-0.9,1.6-1.7,4.3-2.5,8c-0.8,3.8-1.5,7.9-2.1,12.4c-0.6,4.5-1.1,8.9-1.3,13.3
		c-0.3,4.4-0.2,8.1,0.1,11.1c0.4,4.6,1,9.2,2,13.9s2.1,8.3,3.3,10.8c2.5,5.3,5.5,8.9,9.1,11.1c3.6,2.1,7.4,2.3,11.4,0.5
		c2.6-1.1,5.4-3.9,8.3-8.7c2.9-4.7,5.7-11,8.3-18.7l2.9-7.9l0.5,8.4c0.5,7.9,1.7,15.1,3.4,21.7c1.8,6.6,4.1,12.1,7.1,16.7
		c4.9,7.7,10.2,12.1,15.8,13.2c4.6,1.1,8.7,0,12.4-3.2c3.3-3.2,6-7.9,8.2-14.2c0.5-1.4,1.1-3.5,1.8-6.2c0.7-2.7,1.4-5.5,2-8.3
		c0.6-2.8,1.1-5.3,1.6-7.6c0.4-2.3,0.7-3.8,0.7-4.5c0-1.2,1-2.2,2.9-2.9c6.7-2.2,12.5-7.2,17.3-14.9c0,0.4,0.1,0.9,0.1,1.3
		c0.4,4.3,0.7,8.6,1.2,12.8c0.4,4.2,0.9,8.2,1.3,11.8c0.4,3.7,0.8,6.9,1.2,9.7c0.5,2.6,0.9,4.2,1.2,4.7c0.3,0.5,1.1,1,2.5,1.3
		c1.9,0.5,4.3,0.7,7.1,0.7c2.8-0.1,4.9-0.6,6.3-1.4l2.6-1.1l2.4-11.3c0.5-3.2,1.2-6.6,2.1-10.4c0.9-3.8,1.7-6.7,2.4-8.8
		c1.4-4.9,3.2-10,5.3-15.1c2.1-5.2,4.3-10.1,6.7-14.9c2.4-4.7,4.7-8.9,7.1-12.6c2.4-3.7,4.5-6.5,6.4-8.4c1.4-1.2,2.2-1.9,2.5-2.1
		c0.3-0.2,0.7,0.1,1.2,0.8c0.3,0.5,0.7,1.4,0.9,2.8c0.3,1.3,0.4,3.5,0.5,6.6c0.1,3.1,0.1,7.3,0.1,12.8c0,5.4,0,12.7,0,21.8
		c0,9.8,0,17.5,0,23c0,5.5,0.1,9.9,0.4,13c0.3,3.2,0.7,5.7,1.4,7.6c0.7,1.9,1.7,4.2,2.9,6.8c0.7,1.6,1.7,3.3,3.2,5.1
		c1.4,1.8,2.8,3.6,4.2,5.1c1.4,1.6,2.8,2.9,4.3,4.1c1.5,1.1,2.8,1.9,3.8,2.2c1.9,0.7,4.4,1,7.5,0.9c3.1-0.1,5.3-0.5,6.7-1.2
		c2.3-1.1,4.2-2.4,5.9-3.9c1.7-1.6,3.3-4.2,4.9-7.8c1.6-3.6,3.3-8.6,5.1-15c1.8-6.4,4.2-14.9,7-25.4c0-0.1,0-0.1,0.1-0.2
		c1.1,6.3,3,11.8,6,16.4c4.2,6.6,10,11.1,17.4,13.5c2.5,0.9,5.3,1.2,8.4,1.1c3.2-0.2,6-0.8,8.4-1.8c4.6-1.9,8.8-6,12.6-12.1
		c1.2-1.8,2.1-2.9,2.8-3.6c0.6-0.6,1.1-0.8,1.4-0.7c1.4,0.5,3.2,1,5.4,1.3c2.2,0.4,4,0.4,5.4,0.3c4-0.5,7.9-2.4,11.7-5.5
		c3.8-3.2,6.9-7.1,9.3-11.8c0.7-1.6,1.5-3.5,2.4-5.8c0.9-2.3,1.7-4.6,2.4-6.8c0.7-2.3,1.3-4.5,1.8-6.7c0.5-2.2,0.9-4.1,1.1-5.7
		C968.9,638.7,969,637.5,968.9,637.1z M730.7,643.5c-0.2,3.5-0.4,6.8-0.5,10c-0.2,3.2-0.4,5.2-0.5,6.1c-0.3,2.3-0.8,3.4-1.3,3.4
		c-0.9,0-2.5-0.8-4.9-2.4c-2.4-1.6-4.2-3.1-5.2-4.5c-5.4-6.5-8.1-15.3-8.1-26.6c0-4,0.3-7.6,1-10.7c0.7-3.1,1.8-6.3,3.4-9.6
		c1-2.1,2.3-4,3.8-5.7c1.5-1.7,2.6-2.5,3.5-2.5c0.9,0,1.9,0.9,3.1,2.8s2.2,4,2.9,6.4c1.2,3.5,2.1,8.1,2.6,13.8
		C730.9,629.9,731,636.3,730.7,643.5z M772,619.6c0.2-3.7,0.5-8,0.9-13c0.4-5,1-10,1.6-15.1c0.6-5.1,1.2-9,1.7-11.8
		c1.4-5.8,3.2-10.9,5.3-15.4c2.1-4.5,4.4-7.8,6.8-9.9c2.5-1.9,5-2.5,7.8-1.6c2.7,0.9,5,3,6.7,6.3c0.9,1.8,1.4,3.2,1.6,4.5
		c0.2,1.2,0.3,3.7,0.3,7.4c0,3.5-0.1,6.2-0.4,8c-0.3,1.8-0.8,4-1.7,6.4c-2.5,7.4-5.9,14.3-10.3,20.7c-4.4,6.4-9.4,11.6-15,15.7
		c-1.2,0.9-2.3,1.7-3.3,2.4c-1,0.7-1.5,1.1-1.7,1.1C771.9,625.1,771.8,623.2,772,619.6z M928,665.9c-0.7,1.8-1.3,3.3-1.7,4.6
		c-0.4,1.3-0.7,2-0.9,2c-0.4-0.2-0.7-0.5-1.1-1.1c-0.4-0.3-0.7-0.7-1.2-1.2c-0.4-0.4-0.8-0.9-1.2-1.4c-5.1-5.6-8.9-13.1-11.6-22.4
		c-2.6-9.3-4-20-4.2-32.1c0-6.7,0.3-11.8,0.9-15.4c0.6-3.6,1.7-6.8,3.3-9.6c2.5-4.4,5.9-4.8,10.3-1.3c3.9,3.2,6.8,8.5,8.8,15.9
		c2,7.5,3,16.5,3,27.2c0,7.2-0.4,13.5-1.1,18.9C930.7,655.5,929.6,660.8,928,665.9z"/>
</g>
</svg>
