<?xml version="1.0" encoding="utf-8"?>
<!-- Generator: Adobe Illustrator 22.0.0, SVG Export Plug-In . SVG Version: 6.00 Build 0)  -->
<svg version="1.1" id="Layer_1" xmlns="http://www.w3.org/2000/svg" xmlns:xlink="http://www.w3.org/1999/xlink" x="0px" y="0px"
	 viewBox="0 0 1080 1080" style="enable-background:new 0 0 1080 1080;" xml:space="preserve">
<g>
	<path d="M201,913.7c-5.1-4.7-10.1-8-13.8-13.1c0.4,0.5-0.1-0.6-0.4-1.2c0-0.7,0-1.9-0.2-1.3c0.3-1.8,0.8-3.1,1.9-4.9
		c3.7-6.1,9.7-10.7,14.2-16.1c19.3-23,16.9-59.6-2.8-81.8c-23.9-26.9-61.3-30.7-93.9-19.4c-3.9-2.8-8.9-4.3-13.4-3.6
		c-10.4,1.5-15.3,10.4-15.1,20.1c1.7,72.1,1.8,144.3,8,216.1c1,11.7,14.6,15.7,23.5,11.6c1.6,3.5,4.3,6.5,8.1,7.5
		c17.9,4.8,35.6,9.7,54.4,7.7c14.5-1.5,29.8-7.6,40.8-17.4c26.7-23.7,23.4-61.9,3.2-88.7C211.2,923.6,206.2,918.5,201,913.7z
		 M198.5,978c-0.4,1.3-1,2.6-1.6,3.8c-0.6,1.3,0.3-0.1-1.1,1.8c-2.2,3.1-1.6,2.4-4.4,4.8c-1,0.8-2,1.6-3,2.3c-0.2,0.1-3.5,2.1-3,1.9
		c-2.6,1.3-5.3,2.4-8.1,3.4c-3.6,1.3-1.5,0.4-0.7,0.2c-1.8,0.4-3.7,0.8-5.6,1.1c-15.3,2.4-30.3,1.2-45.8-0.2
		c-2.9-0.3-5.7,0.2-8.2,1.3c1.5-66.2-1.7-132.5-4-198.7c0.1,0,0.3-0.1,0.4-0.1c21.6-7.9,48.3-7.4,65.3,10
		c7.2,7.4,12.1,17.5,10.7,27.9c-1.5,10.6-7.8,17-15.3,24c-11.2,10.4-21.7,22.9-20.5,39.2c1,13.9,10.5,23.1,20.4,31.6
		c8.6,7.4,17.5,15.5,22.2,26.1c1.7,3.8,3.1,8.5,3.3,12.5C199.6,973.1,199.1,975.9,198.5,978z"/>
	<path d="M333.5,781.9c-19.3-9.1-41.3-9.5-61.3-2.8c-0.9,0.3-1.8,0.8-2.5,1.3c-1.4-0.7-3-1.1-4.8-1.4c-8-1-18,5.2-18.2,14
		c-2.1,74.2-2.3,149.8,9.8,223.2c1.4,8.3,9.1,14.4,17.5,13.2c9-1.3,13.5-9.1,13.2-17.5c-0.6-15.2-1.4-30.3-2.3-45.4
		c0.5,0.2,1,0.4,1.5,0.6c9.8,2.7,19.6,5.4,29.4,8.1c9.7,2.7,20,4.6,29.2,8.7c17.8,7.9,26.5-23.5,6.8-25.8
		c-9.3-1.1-18.5-4.3-27.6-6.8c-3-0.8-6.1-1.6-9.1-2.4c28.3-17.9,53.5-41.3,62-74.9C386.3,837.4,367.6,798.1,333.5,781.9z
		 M290.1,934.2c-2.9,1.7-5.2,4.1-6.5,6.9c-2.6-46.2-5-92.5-4.6-138.9c1-0.1,2-0.3,3-0.7c34.2-11.2,69.3,13.9,72.2,49
		C357.4,889.6,319.7,917,290.1,934.2z"/>
	<path d="M494.3,940.9c-5.2,12.9-10.6,27.9-22.4,36.3c-0.8,0.6-1.3,0.9-1.5,1.1c0.1-0.1,0-0.1-1.9,0.8c0,0-1.8,0.8-1.8,0.8
		c-1.7,0.5-3.4,0.7-5.2,1.1c-0.1,0-1.2,0.1-1.7,0.1c-1.1-0.2-3.6-0.5-3.3-0.4c-1-0.3-2-0.8-2.9-1.1c-0.8-0.3-1.3-0.4-1.5-0.5
		c-0.2-0.2-0.6-0.5-1.3-1c-1.4-1-2.9-2-4.2-3.2c0.1,0-1.7-1.9-2-2.2c-1.1-1.3-2.2-2.7-3.1-4.2c-0.8-1.3-2.9-5.3-3.9-7.7
		c-3.4-7.7-4.9-13.5-6.6-21.5c-2.1-9.9-3.6-20.3-4.3-30.5c1.5,1.3,3.5,2.3,5.9,2.7c37.8,6.9,73.5-19.1,81.4-56
		c7.7-35.7-15.9-83.7-57.1-81.9c-21.7,1-37.9,17.9-47.6,35.8c-10,18.4-14.9,40.8-17.5,61.4c-2.7,21.5-2.3,43.9,1.2,65.3
		c3.3,20.8,8.7,44,23.2,60c17.4,19.3,44.6,27,67.4,11.9c20.1-13.3,28.8-35.1,35.9-57.1C524.9,934.8,501,924.4,494.3,940.9z
		 M433.2,844.3c3.2-12,7.5-26.5,16.6-34.6c8.1-7.2,18.1-8.7,27.5-1.1c9.2,7.4,13.3,20.7,13.3,32.2c0.1,29.3-25.7,51.8-54.7,46.7
		c-3.9-0.7-7.1,0.3-9.3,2.3C427.3,874.4,429.3,859,433.2,844.3z"/>
	<path d="M687.4,841.9c-1.6-24.3-9.9-45.9-30.6-59.8c-21.1-14.2-45.8-11.7-67.5,0.1c-22.5,12.3-42.4,29.4-56.6,50.8
		c-4.5,6.8-3.8,16,3,21.1c6.3,4.7,16.5,3.8,21.1-3c10.3-15.2,23.4-27.7,38.8-37.4c12-7.6,32.1-17.4,44-5.7
		c3.8,3.7,6.5,11.8,7.5,16.7c0.8,4.4,1.2,8.8,1.4,13.3c0,0.7,0.1,5.3,0.2,4.9c0,2.1-0.1,4.3-0.1,6.4c-0.2,10.5-0.4,21.1-0.4,31.6
		c-14.7-6.7-31.2-9.5-47.3-7.2c-25.2,3.6-48,19.3-59.5,42c-11.8,23.1-9.5,52.9,6,73.7c14.2,19.1,40.4,30,63.9,25.3
		c15.6-3.1,27.8-11.4,37.9-22c0.2,2.5,0.5,5,0.8,7.4c2.8,22.1,37,22.3,39.4-0.2c2.9-26.9,0.9-54.6,0.3-81.6
		C689.1,892.9,689.1,867.3,687.4,841.9z M648,918.5c0,8-0.2,16.1-0.3,24.2c-8.5,15-18.3,32.1-34.6,39.6c-12.9,5.9-28.3,2.7-38.6-7.5
		c-10.6-10.5-13.2-28-7.8-42.1c5.5-14.4,19.1-25,33.5-28.4c17.2-4,34,1,47.8,11.1C648,916.4,648,917.5,648,918.5z"/>
	<path d="M843.8,768.1c-7,0.2-15.7,5.7-15.6,13.7c0.1,34.7,0.2,69.3,0.6,103.9c-10.8-7.4-23.2-12.4-36.5-14.2
		c-28-3.8-57.1,8.6-73.9,31.3c-16.8,22.7-21.6,53.9-10.6,80.2c12.3,29.4,43.7,41.3,73.3,32.6c21.1-6.2,36.8-21.3,49.9-38.3
		c0.5,12.6,1.1,25.2,1.8,37.8c0.9,16.6,29.2,16.7,29.6-0.2c1.7-77.8-0.5-155.5-2.9-233.3C859.3,773.8,850.9,767.9,843.8,768.1z
		 M824.8,939.5c-11.3,15.5-23.3,33.9-41.6,41.6c-7.8,3.3-15.5,4.3-23.5,3.1c-0.9-0.1-1.9-0.3-2.8-0.5c-0.2,0-0.3-0.1-0.4-0.1
		c-0.1-0.1-0.3-0.1-0.6-0.2c-0.8-0.3-5.1-2.1-3.7-1.4c-4.3-2.4-5.3-3.9-8.4-8.1c-0.3-0.4-0.4-0.6-0.5-0.7c0-0.1-0.1-0.2-0.1-0.3
		c-0.5-0.9-0.9-1.7-1.3-2.6c-1-2.2-2-4.5-2.6-6.9c0.2,0.4-0.6-3.8-0.7-4.5c-0.1-1-0.3-2-0.4-3c0,0-0.2-4-0.3-3.7
		c0-8.3,2-16.7,6.1-24.8c3.2-6.4,9.1-12.7,16.1-17.6c6.2-4.4,15.6-7.8,23.6-9c18.6-2.7,34.9,5.7,45.8,19.9c0.1,4.8,0.2,9.6,0.3,14.4
		C827.9,936.1,826.3,937.5,824.8,939.5z"/>
	<path d="M101.6,262.5c9.7,13.1,21.7,21,36,23.7c17,3.3,32.2-1.6,45.6-14.5c13.4-13,26.1-35.2,38-66.8c2.4-6.3,3.9-9.5,4.5-9.8
		c0.6-0.3,1.2,2.4,1.8,8c0.3,1.8,1,5.7,2,11.8c1,6.1,2.3,12.6,3.8,19.4c2.1,11,3.7,20.9,4.9,29.5c1.2,8.6,1.9,16.6,2,23.9
		c0.1,7.3-0.2,14.2-1.1,20.6c-0.9,6.4-2.2,12.7-4,19c-2.7,8.9-7.3,18.1-13.9,27.5c-6.6,9.4-14.2,17.4-22.8,23.9
		c-8.6,6.6-18,10.8-27.9,12.7c-10,1.9-19.7-0.2-29.3-6.5c-4.2-2.7-7.1-5.8-8.7-9.4c-1.6-3.6-2.5-8.8-2.5-15.6
		c0-4.8,0.2-8.2,0.7-10.3c0.4-2.1,1.4-4.8,2.9-8c2.4-5.1,6-9.9,11-14.5c4.9-4.6,10.1-8.3,15.4-11c4.5-2.4,8.4-3.8,11.8-4.2
		c3.4-0.4,4.4,0.1,2.9,1.6c-0.6,0.3-1,1-1.1,2.2c-0.2,1.2-0.2,2.5-0.2,4c0,5.7,2.7,8.9,8,9.8c1.8,0.6,3.1,0.7,4,0.2
		c0.9-0.4,2.1-1.4,3.6-2.9c2.4-2.4,3.7-5.3,4-8.7c0.3-3.4-0.7-6.6-3.1-9.6c-3.3-4.2-7.9-6.3-13.9-6.5c-6-0.1-12.1,1.3-18.6,4.2
		c-6.4,3-12.6,7.2-18.6,12.7c-6,5.5-10.7,11.8-14.3,19c-0.9,2.4-1.6,4.3-2.2,5.8c-0.6,1.5-1,2.9-1.3,4.2c-0.3,1.3-0.5,2.9-0.7,4.7
		c-0.2,1.8-0.2,4.2-0.2,7.2c0,5.7,0.2,9.5,0.7,11.4c0.4,1.9,1.4,4.5,2.9,7.8c4.2,8.9,11,15,20.6,18.3c10.1,3.6,21.5,4.5,34.2,2.7
		c12.7-1.8,24.9-5.6,36.7-11.4c11.8-5.8,22.3-13.3,31.5-22.4c9.2-9.1,15.7-19.3,19.2-30.6c2.1-6.9,3.7-13.9,4.9-21
		c1.2-7.2,1.7-14.9,1.6-23.2c-0.2-8.3-0.9-17.7-2.2-27.9c-1.3-10.3-3.4-22-6-35.1c-5.4-26.8-6.7-53.7-4-80.5
		c0.9-9.2,1-15.2,0.4-17.9c-0.6-2.7-2.7-4.8-6.3-6.3c-1.8-0.6-3.3-0.9-4.5-0.9c-1.2,0-3.3,0.4-6.3,1.3c-1.8,0.6-4.3,1.5-7.6,2.7
		c-3.3,1.2-6.4,2.5-9.4,4c-14.6,6.9-27,11.6-37.1,14.3l-8.9,2.7v-2.7c0-4.2-1.8-6.9-5.4-8c-3.6-1.2-6.6-0.1-8.9,3.1
		c-1.8,2.4-2.7,4.8-2.7,7.2c0,6.3,4.6,9.3,13.9,9.2c9.2-0.1,21.8-3.5,37.6-10.1c3.3-1.5,6-2.6,8.3-3.4c2.2-0.7,3.5-1,3.8-0.7
		c-0.6,3.9-1.2,7.4-1.8,10.5c-0.6,3.1-1.3,6.6-2.2,10.5c-0.9,3.9-1.8,7.8-2.7,11.6c-1.8,6.9-4.2,14.3-7.2,22.4
		c-3,8-6.3,15.9-9.8,23.7c-3.6,7.8-7.2,14.9-10.7,21.5c-3.6,6.6-6.9,11.6-9.8,15.2c-5.1,6.3-10.4,11-15.9,14.3
		c-5.5,3.3-10.1,4.5-13.6,3.6c-1.2-0.3-2.8-1.2-4.7-2.7c-1.9-1.5-4-3.2-6-5.1c-2.1-1.9-4.1-4.2-6-6.7c-1.9-2.5-3.7-5-5.1-7.4
		c-3.3-5.1-5.8-9.8-7.6-14.3c-1.8-4.5-3.9-10.9-6.3-19.2c-0.9-2.7-1.6-5-2-6.9c-0.4-1.9-0.7-3.9-0.9-6c-0.2-2.1-0.2-4.5-0.2-7.2
		s0-6.1,0-10.3c0-15.5,1.5-29.5,4.5-42c3-12.5,7.4-25,13.4-37.6c8.3-16.7,17.2-29.6,26.6-38.7c9.4-9.1,18.8-14.1,28.4-15
		c3.6-0.6,7.4-0.1,11.4,1.3c4,1.5,7.4,3.4,10.1,5.8c2.4,2.4,4.4,5.7,6,10.1c1.6,4.3,2.5,8.6,2.5,12.7c0,3.3-0.1,5.4-0.2,6.3
		c-0.2,0.9-0.8,1.3-2,1.3c-2.4,0-4.5,1.2-6.3,3.6c-1.5,1.5-2.5,2.8-2.9,3.8c-0.4,1-0.7,2.8-0.7,5.1c0,7.2,2.8,10.7,8.5,10.7
		c8.3,0,13.1-6.7,14.3-20.1c0.6-5.4,0.3-11.1-0.9-17.2c-1.2-6.1-3-11-5.4-14.5c-2.1-3.3-4.9-6.5-8.5-9.6s-7.5-5.7-11.6-7.8
		c-3-1.5-5.7-2.5-8-2.9c-2.4-0.4-6.1-0.8-11.2-1.1c-7.8-0.3-14.5,0.4-20.1,2c-5.7,1.6-11.8,4.5-18.3,8.7
		c-13.4,8.6-25.1,21.2-35.1,37.8c-10,16.5-17.5,36-22.6,58.3c-3,11.9-4.8,22.7-5.4,32.2c-0.6,9.5-0.2,19.5,1.3,30
		C85.5,233,92,249.4,101.6,262.5z"/>
	<path d="M294.6,102c3,1.8,6.6,2.5,10.7,2c4.2-0.4,7.4-1.9,9.8-4.2c5.4-5.1,8.2-11,8.5-17.9c0.3-6.9-2.1-12.7-7.2-17.4
		c-1.8-1.5-3.4-2.5-4.7-2.9c-1.3-0.4-3.7-0.8-6.9-1.1c-3.3-0.3-5.7-0.3-7.2,0c-1.5,0.3-3.1,1-4.9,2.2c-2.7,2.1-5.1,4.5-7.2,7.2
		c-1.2,1.8-1.9,3.4-2.2,4.9c-0.3,1.5-0.3,4,0,7.6C283.7,90.7,287.4,97.3,294.6,102z"/>
	<path d="M280.3,281.3c4.5,35.2,15.7,57.4,33.5,66.6c3.9,1.8,8.1,2.8,12.7,3.1c4.6,0.3,8.7-0.3,12.3-1.8c3-1.5,6.3-4.2,9.8-8
		c3.6-3.9,6.7-8.3,9.4-13.4c2.7-5.4,5.9-13.5,9.6-24.4c3.7-10.9,7.2-22.4,10.3-34.7c3.1-12.2,5.8-23.8,8-34.9
		c0.5-2.2,0.8-4.3,1.2-6.3c0.3,1,0.5,2.1,0.8,3.2c2.1,8.3,4,15.6,5.8,21.9c1.8,6.3,3.1,10.6,4,13c3.3,10.4,7,19.3,11.2,26.6
		c4.2,7.3,8.2,12.1,12.1,14.5c5.7,3.6,11.1,3.4,16.3-0.7c5.2-4,9.9-11.5,14.1-22.6c0.9-2.7,1.7-5.1,2.5-7.2c0.7-2.1,1.1-3.3,1.1-3.6
		c0-0.9,0.2-1.3,0.7-1.3c0.4,0,1.9,0.6,4.2,1.8c1.5,0.9,3.1,1.4,4.9,1.6c1.8,0.2,3.9,0.2,6.3,0.2c5.1-0.6,9.4-2.1,13-4.5
		c3.6-2.4,7.4-6.3,11.6-11.6c2.7-3.6,5.4-8,8.3-13.4c1.2-2.3,2.3-4.6,3.5-6.9c0.9,6.7,2.6,13.6,5,21c2.5,7.6,5,13.5,7.4,17.7
		c2.4,4.2,6.2,8.6,11.4,13.4c5.2,4.8,9.9,8.2,14.1,10.3c9.5,4.8,18.2,5.2,25.9,1.3c14.6-7.7,29.4-34.6,44.3-80.5
		c3-9.2,4.5-15.3,4.5-18.3c0-3-1.5-4.3-4.5-4c-1.5,0.3-2.5,1-3.1,2c-0.6,1-1.5,3.7-2.7,7.8c-5.1,15.2-10.1,29-15.2,41.4
		c-5.1,12.4-9.7,21.8-13.9,28.4c-2.1,3.3-4.9,6.7-8.5,10.3s-6,5.4-7.2,5.4c-0.9,0-2.8-2.1-5.6-6.3c-2.8-4.2-5.4-8.8-7.8-13.9
		c-1.8-3.9-3.5-8.3-5.1-13.4c-1.6-5.1-3-10.2-4-15.4c-1-5.2-1.8-10.4-2.2-15.4c-0.4-5.1-0.5-9.8-0.2-14.3l0.4-7.2l7.2-2.7
		c5.1-1.8,9.7-4.2,13.9-7.4c4.2-3.1,7.7-6.6,10.7-10.5c7.7-11,11.9-21.9,12.5-32.6c0.6-10.7-2.7-19.2-9.8-25.5
		c-3.3-2.4-6.4-4.1-9.4-5.1c-3-1-7.2-1.6-12.5-1.6c-24.7,0-40.2,21.6-46.5,64.8c-0.9,6.3-1.3,14.3-1.1,24.1c0,1.7,0.1,3.2,0.1,4.8
		c-1.6,4.9-3.3,9.5-5.1,13.8c-3.4,8.2-7.1,15.1-11,20.6c-3.9,5.5-7.8,9.5-11.8,12.1c-4,2.5-7.8,3.2-11.4,2c-3.9-1.2-6-2.5-6.3-4
		c-0.3-1.5,0.4-5.7,2.2-12.5c2.7-8.9,4.9-18.6,6.7-29.1c1.8-10.4,3.2-20.6,4.2-30.4c1-9.8,1.6-18.8,1.6-27.1
		c0-8.2-0.6-14.4-1.8-18.6c-2.7-9.5-7.6-14.3-14.8-14.3c-14.9,0-25.2,16.1-30.8,48.3c-0.9,4.2-1.4,8.9-1.6,14.1
		c-0.2,5.2-0.2,10.5,0,15.9c0.1,5.4,0.6,10.4,1.3,15c0.7,4.6,1.6,8.4,2.5,11.4c1.8,5.1,3.7,9.5,5.8,13.4c2.1,3.9,4.8,7.9,8,12.1
		l4,5.4l-2.7,8.5c-2.4,6-4,10.1-4.9,12.5c-0.9,2.4-1.5,3.6-1.8,3.6c-0.3,0-1-1.3-2.2-4c-1.2-2.7-2.5-6.1-4-10.3
		c-1.5-3.9-3.2-9.1-5.1-15.6c-1.9-6.6-4-13.9-6-21.9c-2.1-8-4.2-16.7-6.3-25.9c-2.1-9.2-4.2-18.5-6.3-27.7
		c-2.4-11.3-4.3-20.3-5.8-26.8c-1.5-6.6-2.7-11.5-3.6-14.8c-0.9-3.3-1.6-5.6-2-6.9c-0.4-1.3-1-2.5-1.6-3.4
		c-5.1-7.7-12.5-6.3-22.4,4.5c-2.7,3.3-4.3,5.4-4.9,6.5c-0.6,1-0.7,2.8-0.4,5.1c0,1.2,0.7,4.6,2,10.3c1.3,5.7,3.1,12.4,5.1,20.3
		c2.1,7.9,4.3,16.4,6.7,25.5c0,0.2,0.1,0.3,0.1,0.5c0,0.1-0.1,0.2-0.1,0.4c-0.6,1.9-1.3,5.7-2.2,11.4c-1.2,8.6-2.9,18-5.1,28.2
		c-2.2,10.1-4.7,20-7.4,29.7c-2.7,9.7-5.4,18.6-8.3,26.8c-2.8,8.2-5.4,14.7-7.8,19.4c-3,6-5.5,10.2-7.6,12.7c-2.1,2.5-4.8,4.5-8,6
		L329,343l-2.7-3.6c-3-3.3-5.6-9.2-7.8-17.7c-2.2-8.5-4-19-5.1-31.5c-0.3-3.9-0.4-11.3-0.4-22.4c0-11,0.1-23.2,0.4-36.4
		c0.3-13.3,0.7-26.6,1.1-40c0.4-13.4,1-24.4,1.6-33.1c0.3-6,0.5-10.9,0.7-14.8c0.1-3.9-0.1-7-0.7-9.4c-0.6-2.4-1.6-4.2-2.9-5.4
		c-1.3-1.2-3.1-2.1-5.1-2.7c-3.3-1.2-7.2-1.2-11.6,0c-2.7,0.6-4.9,1.2-6.5,1.8c-1.6,0.6-2.9,1.6-3.8,2.9c-0.9,1.3-1.6,3.2-2,5.6
		c-0.4,2.4-1,5.5-1.6,9.4c-1.2,8.9-2.2,19.8-2.9,32.6c-0.7,12.8-1.2,25.7-1.3,38.7c-0.1,13-0.1,25.3,0.2,36.9
		C278.8,265.7,279.4,274.8,280.3,281.3z M541.4,192.3c2.4-15.8,5.3-28.5,8.7-38.2c3.4-9.7,7.2-15.7,11.4-18.1
		c2.4-1.5,4.9-0.9,7.6,1.8s4.6,6.4,5.8,11.2c0.9,3.3,0.9,7.2,0,11.6c-0.9,4.5-2.5,8.9-4.9,13.2c-2.4,4.3-5.2,8.3-8.5,12.1
		c-3.3,3.7-6.7,6.5-10.3,8.3c-1.5,0.6-2.9,1.3-4.2,2c-1.3,0.7-2.5,1.3-3.4,1.6c-1.5,0.3-2.3,0.2-2.5-0.2
		C541,197,541.1,195.3,541.4,192.3z M436.5,222.1c-2.2-10.9-2.6-22-1.1-33.3c0.9-7.2,2.4-14.6,4.5-22.4c2.1-7.7,4.2-13.6,6.3-17.4
		c1.8-3.3,4-5.9,6.7-7.8c2.7-1.9,4.8-2.6,6.3-2c1.5,0.6,2.8,2.8,4,6.5c1.2,3.7,2.1,7.8,2.7,12.3c0.3,3.9,0.2,9-0.2,15.4
		c-0.4,6.4-1.2,13.3-2.2,20.8c-1,7.5-2.2,15.1-3.6,22.8c-1.3,7.8-2.8,14.8-4.2,21c-2.1,7.8-3.5,12.3-4.2,13.6
		c-0.7,1.3-1.9,0.8-3.4-1.6C442.6,242.3,438.8,233,436.5,222.1z"/>
	<path d="M740.3,282.6c7.2,7.2,15,10.7,23.7,10.7c9.5,0,17.6-4.5,24.1-13.4c6.6-8.9,12.5-23.8,17.9-44.7l4-15.6v13.9
		c0.3,20.6,2.7,37.6,7.2,51.2c4.5,13.6,10.9,22.3,19.2,26.2c6.6,3.3,13,2.6,19.2-2c6.3-4.6,11.5-12.6,15.7-23.9
		c1.5-4.2,3.4-10.5,5.6-19c2.2-8.5,4.3-17.1,6.3-25.9c1.9-8.8,3.4-16.7,4.5-23.7c0.3-1.8,0.5-3.5,0.7-4.9c1.4,1.6,3,3.3,4.7,5.1
		c3.1,3.3,7.1,7.3,11.8,12.1c5.1,4.8,9.2,8.8,12.5,12.1c3.3,3.3,5.9,6.3,7.8,8.9c1.9,2.7,3.6,5.2,4.9,7.6c1.3,2.4,2.5,5.1,3.4,8
		c1.8,5.7,2.5,9.3,2,11c-0.4,1.6-2.8,4-6.9,6.9c-5.1,3.3-10.1,7.5-15,12.7c-4.9,5.2-8.6,10.4-11,15.4c-1.5,3.3-2.5,6-3.1,8
		c-0.6,2.1-0.9,5.1-0.9,8.9c0,3.6,0.2,6.3,0.7,8c0.4,1.8,1.4,3.9,2.9,6.3c3.6,6,8.3,9.8,14.3,11.6c5.1,1.5,10.5,1.1,16.3-1.1
		c5.8-2.2,11.2-6,16.3-11.4c6.9-7.2,11.9-15.8,15.2-25.9c3.3-10.1,4.6-21.2,4-33.1l-0.9-12.5l6.7-6.3c3.6-3.3,7.2-7.2,11-11.8
		c3.7-4.6,7.2-9.5,10.3-14.5c3.1-5.1,5.8-10.1,8-15.2c2.2-5.1,3.8-9.5,4.7-13.4c1.8-7.2,1-10.7-2.2-10.7c-1.8,0-3.1,0.7-4,2
		c-0.9,1.3-2.1,4.2-3.6,8.7c-3.9,10.4-8.8,20.3-14.8,29.5c-1.5,2.1-3.2,4.3-5.1,6.7c-1.9,2.4-3.8,4.6-5.6,6.7
		c-1.8,2.1-3.4,3.9-4.9,5.4c-1.5,1.5-2.4,2.2-2.7,2.2c-0.6,0-1.5-1.6-2.7-4.9c-2.4-7.7-6.5-15.6-12.3-23.7s-12.6-15.3-20.3-21.9
		l-5.4-4.5l5.4-6.3c3.3-3.6,6.7-8.6,10.3-15c3.6-6.4,6.1-12.1,7.6-17.2c0.6-2.4,1-5.1,1.3-8.3c0.3-3.1,0.4-6.2,0.4-9.2
		c0-12.8-3.9-21.8-11.6-26.8c-4.2-2.4-8.9-3.5-14.3-3.4c-5.4,0.2-10.6,1.6-15.7,4.2c-6.9,3.3-13.2,8.9-19,16.8
		c-5.8,7.9-9.8,16.2-11.8,24.8c-0.9,3.9-1.3,8.5-1.1,13.9c0.2,5.4,0.7,9.8,1.6,13.4c0.9,3.3,1.9,6.1,2.9,8.5
		c0.3,0.8,0.7,1.5,1.2,2.3c-0.6,0.7-1.1,1.5-1.4,2.6c0,0.6-0.3,2.5-0.9,5.8c-0.6,3.3-1.3,6.9-2.2,10.7c-1.5,8-3.1,15.9-4.9,23.7
		c-1.8,7.8-3.6,14.8-5.4,21.2c-1.8,6.4-3.7,12.1-5.6,17c-1.9,4.9-3.7,8.6-5.1,11c-1.8,2.7-2.9,4.2-3.4,4.5c-0.4,0.3-1.1,0-2-0.9
		c-1.5-2.4-3-6.6-4.5-12.5c-1.5-6-2.5-12.4-3.1-19.2c-0.9-9.8-1.3-22.4-1.1-37.6c0.1-15.2,0.8-33.5,2-55c0.6-10.4,1-19.7,1.1-27.9
		c0.1-8.2,0.1-12.9-0.2-14.1c-0.3-1.2-0.7-2.5-1.3-3.8c-0.6-1.3-1.3-2.3-2.2-2.9c-1.2-1.2-2.3-1.9-3.4-2.2c-1-0.3-3.2-0.3-6.5,0
		c-2.1,0.3-4.4,0.7-6.9,1.3c-2.5,0.6-4.5,1.2-6,1.8c-1.8,0.9-3.2,1.7-4.2,2.5c-1,0.7-1.9,2.1-2.5,4c-0.6,1.9-1.1,4.5-1.6,7.8
		c-0.4,3.3-0.8,7.8-1.1,13.4c-0.6,4.5-1.3,10.2-2.2,17.2c-0.9,7-1.6,13.3-2.2,19c-3.3,20.3-6.5,36.4-9.6,48.5
		c-3.1,12.1-6.6,22-10.5,29.7c-2.4,3.9-5.2,7.5-8.5,11c-3.3,3.4-5.4,4.8-6.3,4.2c-0.6-0.3-1.4-1.5-2.5-3.6c-1-2.1-2.2-4.6-3.6-7.6
		c-1.3-3-2.5-6-3.6-9.2c-1-3.1-1.9-5.9-2.5-8.3c-1.2-4.5-2.1-8.6-2.7-12.5c-0.6-3.9-1.1-8.1-1.6-12.7c-0.4-4.6-0.7-9.8-0.7-15.4
		c0-5.7,0.1-12.4,0.4-20.1c0.3-8.3,0.4-15,0.2-19.9c-0.2-4.9-0.4-8.7-0.9-11.4c-0.4-2.7-1.1-4.5-2-5.6c-0.9-1-2.1-1.7-3.6-2
		c-2.1-0.6-5.3-0.4-9.6,0.4c-4.3,0.9-8.1,2.1-11.4,3.6c-2.1,0.9-3.4,1.9-4,2.9c-0.6,1-1.2,3.4-1.8,6.9c-0.6,2.4-1,6.4-1.1,12.1
		c-0.1,5.7-0.2,11.5-0.2,17.4c-0.3,20.6,1.3,37.8,4.9,51.6C727.4,263.6,732.9,274.6,740.3,282.6z M937.1,288.9
		c0,0.3-0.2,1.4-0.4,3.4c-0.3,1.9-0.7,4.1-1.3,6.5c-2.7,15.2-8.5,28.3-17.4,39.3c-0.9,1.2-1.7,2.2-2.5,3.1c-0.7,0.9-1.3,1.3-1.6,1.3
		c-1.5,0-2.8-1.5-3.8-4.5c-1-3-1.6-6.3-1.6-9.8c0-8.3,3.9-16.8,11.6-25.5c1.2-1.2,2.8-2.7,4.7-4.5c1.9-1.8,3.8-3.4,5.6-4.9
		c1.8-1.5,3.4-2.7,4.7-3.6C936.4,288.9,937.1,288.6,937.1,288.9z M900.4,153.4c0.3-2.1,1-4.5,2.2-7.2c4.8-9.2,10.8-15,18.1-17.4
		c7.3-2.4,12.9-0.4,16.8,5.8c1.5,3,2.5,7,2.9,12.1c0.4,5.1-0.1,9.8-1.6,14.3c-1.5,5.1-3.7,10.4-6.5,16.1c-2.8,5.7-5.6,10.1-8.3,13.4
		c-3.3,4.2-5.7,6.4-7.2,6.7c-1.5,0.3-3.6-0.9-6.3-3.6c-1.5-1.5-2.9-3.3-4.2-5.4c-1.3-2.1-2.5-4-3.4-5.8c-1.5-3-2.4-5.5-2.7-7.6
		c-0.3-2.1-0.4-5.7-0.4-10.7C899.9,159.1,900.1,155.5,900.4,153.4z"/>
	<path d="M428.1,353.2c1.4,61,1.6,122.2,6.9,183c1.3,15.1,26.7,15.4,27.1-0.1c1.9-61.1-1.2-122.2-3.3-183.2
		c13.4-0.2,26.8-0.3,40.2-0.5c7.1-0.1,12-8.4,11.1-14.8c-1.1-7.7-7.7-11.2-14.8-11.1c-34.4,0.4-68.8,0.8-103.2,1.2
		c-7.1,0.1-12.1,8.5-11.2,14.8c1.1,7.8,7.7,11.3,14.8,11.2C406.5,353.4,417.3,353.3,428.1,353.2z"/>
	<path d="M582.4,409.1c-12.1,11.7-22,25.9-29.4,41.1c-0.2-3.8-0.4-7.7-0.6-11.5c-1.8-33-3.6-66-5.4-99c-0.5-8.6-10-14.7-18-13.5
		c-9.2,1.3-13.9,9.3-13.5,18c1.3,32.7,2.6,65.4,3.9,98.1c1.3,32.7,2,65.3,6.1,97.7c0.9,7.4,7.7,13,15,12.9c6.9-0.1,14.7-5.4,14.9-13
		c0,0,0,0,0-0.1c2.6-2,4.3-5.2,4-9.4c-3-33.9,7.5-68.3,28.7-94.9c8.2-10.2,24.6-27.8,38.5-16.6c5.7,4.6,7.5,12.2,8.9,19
		c2,10,2.9,20.3,3.6,30.5c0.7,11,1.1,21.7,0.8,32.6c-0.3,12.6-1.4,25.4,0.4,37.9c2,14.1,23.3,17.7,28.4,3.6
		c4.6-12.8,5.1-27.1,4.7-40.6c-0.3-12.3-1.5-24.6-3.8-36.7c-4.2-22.8-9.2-46.8-27.6-62.6C623.5,386.8,598.5,393.5,582.4,409.1z"/>
	<path d="M703.3,369.1c-7.5,0-16.7,6.2-16.7,14.6c0,26.5,0.2,53,0.6,79.4c0.4,25.6,0.3,51.3,3.8,76.7c2.3,17.2,29.4,17.7,31-0.2
		c2.5-26.4,1.4-52.9,0.7-79.3c-0.7-25.6-1.5-51.2-2.6-76.9C719.8,375.2,711,369.1,703.3,369.1z"/>
	<path d="M701.7,366.5c9.3,0,19.2-5,20.1-15.5c0.7-8.6-5.4-20.1-15.5-20.1c-9.3,0-19.2,5-20.1,15.5
		C685.5,355.1,691.7,366.5,701.7,366.5z"/>
	<path d="M772.4,386.6c0.1-0.2,1-3.1,1-3.2c0.9-2.4,1.9-4.8,3.1-7.1c-0.2,0.4,1.8-3,1.7-2.9c0.9-1.4,1.9-2.8,2.9-4.2
		c2.3-3.2,3.9-5.1,6.5-7.4c9.9-8.6,25.6-10.7,37.9-6.3c11.9,4.3,20.4,14.4,21.9,26c2,16.5,27.4,12.9,25.5-3.6
		c-3.5-31.7-33.5-51.8-63.8-51c-30.8,0.8-60.3,22.1-69.7,51.5c-5.8,18-5.1,38.2,5.4,54.4c8,12.4,21.1,20.7,34.1,27.1
		c12.3,6,25.5,10.1,37.8,16.2c8.2,4.1,17,11.9,16.6,23.4c-0.5,13.6-11.5,22.8-23.8,24.5c-11.9,1.6-23.8-4.9-29.2-14.7
		c-3.4-6.3-10.5-10-17.5-6.9c-6.5,2.8-10,11-6.9,17.5c13.3,28.4,49.6,39.1,76.7,24.1c13.9-7.7,23.7-20.2,26.9-35.8
		c3.2-15.4-1.4-32.3-11.2-44.5c-9.7-12-22.2-20-35.9-26.6c-5.7-2.8-11.4-5.3-17-8.2c-1.2-0.6-2.4-1.3-3.6-1.9
		c0.3,0.2-2.8-1.6-2.9-1.7c-2.8-1.8-5.6-3.7-8.2-5.9c-3.7-3.1-5.9-6.2-8.3-11.7c-0.2-0.5-0.4-0.9-0.5-1.1c-0.5-1.8-0.7-3.6-0.9-5.4
		c-0.4-3.9-0.2-5.5,0.7-10.7C771.9,389.3,772.1,387.9,772.4,386.6z"/>
	<path d="M372.7,608.1c-4.2-1.3-8.8-0.7-13.8,2c-2.2,1.1-4.5,2.8-6.9,4.9c-2.4,2.2-4.8,4.7-7.1,7.6c-2.3,2.9-4.5,5.9-6.6,9.2
		c-2.1,3.3-3.8,6.6-5.1,9.9c-1.5,3.5-3.1,7.9-4.6,13c-1.5,5.2-2.9,10.1-4,14.7c-0.7,2.9-1,3.8-1.2,3c-0.1-0.9-0.1-5.2,0.2-12.9
		c0.2-4.4,0.5-9.6,0.8-15.5c0.3-5.9,0.7-10.9,1.2-14.8c0.7-7.9,0.9-13.2,0.7-15.8c-0.2-2.6-1.1-4.5-2.6-5.6c-1.1-0.7-2.6-1-4.5-1.2
		c-1.9-0.1-3.8,0-5.8,0.3c-2,0.3-3.8,0.9-5.4,1.6c-1.6,0.8-2.8,1.7-3.5,2.8c-1.3,2-2.3,6.1-3,12.4c-0.7,6.3-1.2,16.2-1.6,29.8
		c-0.2,10.9-0.1,21,0.3,30.3c-1,5.2-2.1,10.4-3.2,15.5c-1.3,5.7-2.6,10.9-4,15.7c-1.3,4.7-2.7,8.9-4.1,12.5
		c-1.4,3.6-2.7,6.3-3.8,8.1c-1.3,2-2.1,3.1-2.5,3.3c-0.3,0.2-0.8,0-1.5-0.7c-1.1-1.8-2.2-4.8-3.3-9.2c-1.1-4.4-1.9-9.1-2.3-14.2
		c-0.7-7.3-0.9-16.5-0.8-27.7c0.1-11.2,0.6-24.7,1.5-40.6c0.4-7.7,0.7-14.6,0.8-20.6c0.1-6,0.1-9.5-0.2-10.4c-0.2-0.9-0.6-1.8-1-2.8
		c-0.4-1-1-1.7-1.6-2.1c-0.9-0.9-1.7-1.4-2.5-1.6c-0.8-0.2-2.4-0.2-4.8,0c-1.5,0.2-3.2,0.6-5.1,1c-1.9,0.4-3.4,0.9-4.5,1.3
		c-1.3,0.7-2.4,1.3-3.1,1.8c-0.8,0.6-1.4,1.5-1.8,3c-0.4,1.4-0.8,3.4-1.2,5.8c-0.3,2.4-0.6,5.7-0.8,9.9c-0.4,3.3-1,7.5-1.6,12.7
		c-0.7,5.2-1.2,9.8-1.6,14c-2.4,15-4.8,26.9-7.1,35.8c-2.3,8.9-4.9,16.2-7.7,21.9c-1.8,2.9-3.8,5.6-6.3,8.1c-2.4,2.5-4,3.6-4.6,3.1
		c-0.4-0.2-1-1.1-1.8-2.6c-0.8-1.5-1.6-3.4-2.6-5.6c-1-2.2-1.9-4.5-2.6-6.8c-0.8-2.3-1.4-4.3-1.8-6.1c-0.9-3.3-1.5-6.4-2-9.2
		c-0.4-2.9-0.8-6-1.2-9.4c-0.3-3.4-0.5-7.2-0.5-11.4c0-4.2,0.1-9.1,0.3-14.8c0.2-6.2,0.3-11,0.2-14.7c-0.1-3.6-0.3-6.4-0.7-8.4
		c-0.3-2-0.8-3.3-1.5-4.1c-0.7-0.8-1.5-1.3-2.6-1.5c-1.5-0.4-3.9-0.3-7.1,0.3c-3.2,0.7-6,1.5-8.4,2.6c-1.5,0.7-2.5,1.4-3,2.1
		c-0.4,0.8-0.9,2.5-1.3,5.1c-0.4,1.8-0.7,4.7-0.8,8.9c-0.1,4.2-0.2,8.5-0.2,12.9c-0.1,5.4,0,10.5,0.3,15.3c-0.1,0.4-0.2,0.9-0.3,1.3
		c-0.7,2.8-1.3,5.1-2,7.1c-2.4,7.7-5.2,13.7-8.4,18.1c-3.2,4.4-7,7.8-11.4,10.2c-2.2,1.1-3.8,1.8-4.9,2c-1.1,0.2-2.8,0.1-4.9-0.3
		c-1.5-0.2-2.9-0.4-4-0.5c-1.1-0.1-1.8-0.4-2-0.8c-0.7-0.7,0-3.8,2-9.6c1.8-5.9,3.1-11.9,4-18c0.9-6,1.5-13.5,2-22.3
		c0.7-15.8-0.4-29.3-3.2-40.4c-2.8-11.1-7-19.3-12.8-24.6c-7.7-7.5-14.9-8.1-21.6-2c-3.1,3.3-5.4,7.9-7,13.7
		c-1.6,5.8-2.3,13.6-2.3,23.2c0,17.1,1.9,32.2,5.6,45c3.7,12.9,9.2,23.1,16.5,30.8l5.9,6.6l-2.3,4.3c-2,3.5-4.6,6.7-7.7,9.4
		c-3.2,2.8-6,4.5-8.4,5.1c-2.4,0.7-4.1,0.8-5.1,0.3c-1-0.4-2.4-2.2-4.1-5.3c-4.4-7.7-6.9-16.9-7.7-27.5c-0.8-10.7,0.4-22.5,3.4-35.4
		c1.1-5.1,1.7-8.2,1.8-9.4c0.1-1.2-0.2-2.6-0.8-4.1c-2-4.2-6.4-6.4-13.4-6.6c-3.1-0.2-4.9-0.2-5.6,0c-0.7,0.2-1.9,1.2-3.6,3
		c-1.7,1.8-3.3,4.2-4.7,7.4c-1.4,3.2-2.6,6.8-3.6,10.7c-1,4-1.7,8.1-2.1,12.5c-0.4,4.4-0.5,8.7-0.3,12.9c0.4,12.5,3.3,22.9,8.6,31.2
		c5.3,8.2,12.5,13.9,21.8,17c3.1,1.1,6.6,1.5,10.6,1.3c4-0.2,7.5-1,10.6-2.3c5.7-2.4,11-7.5,15.8-15.2c1.5-2.2,2.7-3.7,3.5-4.5
		c0.8-0.8,1.4-1,1.8-0.8c1.8,0.7,4,1.2,6.8,1.6c2.7,0.4,5,0.6,6.8,0.3c5.1-0.7,9.9-3,14.7-6.9c4.7-4,8.6-8.9,11.7-14.8
		c0.8-1.8,1.7-4.1,2.7-6.7c0.4,1.9,0.8,3.8,1.2,5.5c2.6,10.2,6.7,18.3,12.2,24.2c5.3,5.3,11.1,7.9,17.5,7.9c7,0,13-3.3,17.8-9.9
		c4.8-6.6,9.2-17.6,13.2-33l3-11.5v10.2c0.2,15.2,2,27.8,5.3,37.8c3.3,10,8,16.4,14.2,19.3c4.8,2.4,9.6,1.9,14.2-1.5
		c4.6-3.4,8.5-9.3,11.5-17.6c1.1-3.1,2.5-7.8,4.1-14c0.5-2,1-4,1.5-6c0.6,5.6,1.4,11.1,2.3,16.4c1.1,6.4,2,10.8,2.6,13.2
		c0.7,2.4,1.5,4,2.6,4.6c2,1.5,5.6,1,10.9-1.6c1.8-0.9,3.1-1.7,4.1-2.5c1-0.8,1.8-2,2.3-3.8c0.5-1.8,0.9-4.3,1-7.6
		c0.1-3.3,0.2-7.9,0.2-13.8c0.2-16.9,1.4-31,3.6-42.2c2.2-11.2,5.5-21.3,9.9-30.3c2.4-5.1,5.5-9.9,9.2-14.5
		c3.7-4.6,7.1-7.8,10.2-9.6c1.1-0.4,1.7-0.5,1.8-0.3c0.1,0.2-0.1,1.1-0.5,2.6c-0.7,3.7,0.2,7.3,2.6,10.7c2.4,3.4,5.3,5.1,8.6,5.1
		c1.8,0,3.3-0.5,4.8-1.6c1.4-1.1,2.6-2.5,3.5-4.3c0.9-1.8,1.4-3.7,1.5-5.8c0.1-2.1-0.3-4.1-1.2-6.1
		C380,612.5,376.9,609.4,372.7,608.1z M141.9,704.4c-0.9,2.2-1.6,4.1-2.1,5.8c-0.6,1.6-0.9,2.5-1.2,2.5c-0.4-0.2-0.9-0.7-1.3-1.3
		c-0.4-0.4-0.9-0.9-1.5-1.5c-0.6-0.5-1-1.2-1.5-1.8c-6.4-7-11.2-16.4-14.5-28c-3.3-11.7-5.1-25.1-5.3-40.2c0-8.4,0.4-14.8,1.2-19.3
		c0.8-4.5,2.1-8.5,4.1-12c3.1-5.5,7.4-6,12.9-1.6c4.8,4,8.5,10.6,11,20c2.5,9.3,3.8,20.7,3.8,34.1c0,9-0.4,16.9-1.3,23.7
		C145.3,691.4,143.9,698,141.9,704.4z"/>
	<path d="M757.7,564.1c-1-0.3-2.7-0.6-5.1-0.8c-2.4-0.2-4.2-0.2-5.3,0c-1.1,0.2-2.3,0.8-3.6,1.6c-2,1.5-3.7,3.3-5.3,5.3
		c-0.9,1.3-1.4,2.5-1.6,3.6c-0.2,1.1-0.2,3,0,5.6c0.2,6.2,3,11,8.2,14.5c2.2,1.3,4.8,1.8,7.9,1.5c3.1-0.3,5.5-1.4,7.3-3.1
		c4-3.7,6-8.1,6.3-13.2c0.2-5.1-1.5-9.3-5.3-12.9C759.9,565.1,758.7,564.4,757.7,564.1z"/>
	<path d="M1002.1,663.8c-1,0.9-1.7,2.8-2.1,5.6c-0.2,2.6-0.9,5.9-2.1,9.9c-1.2,4-2.8,8-4.6,12.2c-1.9,4.2-3.8,8.2-5.9,12.2
		c-2.1,4-4.1,7.4-6.1,10.2l-4,5.3l-0.7-17.5c-0.2-4.4-0.3-9.9-0.3-16.5s0-13.4,0-20.4c0-7,0.1-13.7,0.3-20.1
		c0.2-6.4,0.4-11.5,0.7-15.5c0.2-2.4,0.3-4.7,0.3-6.9c0-2.2-0.1-3.8-0.3-4.9c-0.7-5.1-3.4-7.6-8.2-7.6c-1.8,0-4.2,0.7-7.4,2.1
		c-3.2,1.4-5.3,2.7-6.4,3.8c-0.4,0.4-0.8,1.5-1,3.1c-0.2,1.6-0.6,3.6-1,5.8c-0.4,3.3-1,7.3-1.6,12c-0.7,4.7-1.4,9.6-2.3,14.7
		c-0.9,5.1-1.8,9.9-2.6,14.5c-0.9,4.6-1.6,8.4-2.3,11.2c-1.5,6.4-3.2,12.4-5.1,18.1c-1.9,5.7-3.7,10.7-5.6,15
		c-1.9,4.3-3.6,7.7-5.3,10.2c-1.6,2.5-3,3.8-4.1,3.8c-0.7,0-1.5-0.7-2.6-2.1c-1.1-1.4-2.3-3.3-3.5-5.6c-1.2-2.3-2.4-4.8-3.6-7.4
		c-1.2-2.6-2.1-5.3-2.8-7.9c-0.4-1.5-0.8-3-1-4.5c-0.2-1.4-0.4-3.3-0.7-5.6c-0.2-2.3-0.3-5.3-0.3-9.1c0-3.7,0-8.8,0-15.2v-27.4
		l-2.3-2c-1.1-0.7-2-1.1-2.8-1.3c-0.8-0.2-2.4-0.1-4.8,0.3c-6.2,0.7-9.8,2.3-10.9,4.9c-0.4,0.9-0.8,2.4-1.2,4.6
		c-0.3,2.2-0.7,4.8-1,7.9c-0.3,3.1-0.5,6.4-0.7,10.1c-0.1,3.6-0.2,7.2-0.2,10.7c0,3.2,0.1,6.2,0.2,9.1c-0.9,3.9-1.7,7.5-2.5,10.8
		c-1.8,7.1-3.5,13.3-5.3,18.5c-1.8,5.2-3.6,9.5-5.4,12.9c-1.9,3.4-3.9,6.2-6.1,8.4c-1.1,1.1-2.3,2.2-3.6,3.3
		c-1.3,1.1-2.5,1.9-3.6,2.3l-3.3,1.3l-4.6-4.9c-5.3-5.9-9.9-14.6-13.8-25.9c-4-11.3-7-24.2-9.2-38.7l-1-7.9l6.9-3.6
		c6.6-3.3,12.3-7.4,17.1-12.2c4.8-4.8,9.4-10.9,13.8-18.1c4.6-7.9,8.1-16,10.4-24.2c2.3-8.2,3.4-16,3.3-23.2
		c-0.1-7.3-1.4-13.7-4-19.3c-2.5-5.6-6.2-9.7-11-12.4c-3.7-1.8-8.2-2.3-13.4-1.6c-5.2,0.7-9.9,2.5-14.3,5.6
		c-3.3,2.2-6.5,5.3-9.6,9.2c-3.1,4-5.9,8.5-8.6,13.5c-2.6,5.1-4.9,10.6-6.9,16.5c-2,5.9-3.5,12-4.6,18.1c-0.4,1.8-0.7,3.6-0.8,5.4
		c-0.1,1.9-0.3,4.1-0.5,6.6c-0.2,2.5-0.3,5.4-0.3,8.7c0,3.3,0,7.4,0,12.2c0,6.4,0.1,11.9,0.2,16.7c0.1,4.7,0.4,9.1,0.8,13
		c0.3,2.3,0.6,4.4,0.9,6.6c-0.9,5.6-2,11.7-3.4,18.1c-1.6,7.5-3.5,14.8-5.4,21.9c-2,7.1-4,13.7-6.1,19.8c-2.1,6-4,10.8-5.8,14.3
		c-2.2,4.4-4.1,7.5-5.6,9.4c-1.5,1.9-3.5,3.4-5.9,4.5l-4.3,2.3l-2-2.6c-2.2-2.4-4.1-6.8-5.8-13c-1.6-6.3-2.9-14-3.8-23.2
		c-0.2-2.9-0.3-8.4-0.3-16.5c0-8.1,0.1-17.1,0.3-26.9c0.2-9.8,0.5-19.6,0.8-29.5c0.3-9.9,0.7-18,1.2-24.4c0.2-4.4,0.4-8,0.5-10.9
		c0.1-2.9-0.1-5.2-0.5-6.9c-0.4-1.8-1.2-3.1-2.1-4c-1-0.9-2.3-1.5-3.8-2c-2.4-0.9-5.3-0.9-8.6,0c-2,0.4-3.6,0.9-4.8,1.3
		c-1.2,0.4-2.1,1.2-2.8,2.1c-0.7,1-1.2,2.4-1.5,4.1c-0.3,1.8-0.7,4.1-1.2,6.9c-0.9,6.6-1.6,14.6-2.1,24.1c-0.5,9.5-0.9,19-1,28.5
		c0,1.8,0,3.6,0,5.4c-3.5,15.7-6.9,29.2-10.3,40.6c-3.5,11.7-6.8,20.7-9.9,27l-2.3,4.3l-1-3.6c-0.7-2.6-1.2-5-1.6-7.1
		c-0.4-2.1-0.8-4.6-1-7.4c-0.2-2.9-0.4-6.3-0.5-10.4c-0.1-4.1-0.2-9.3-0.2-15.7c0-7,0-14.1,0-21.1c0-7,0.1-11.9,0.3-14.5
		c0.2-4.4,0.3-7.2,0.2-8.4c-0.1-1.2-0.6-2.3-1.5-3.1c-2.6-3.1-7.1-4-13.5-2.6c-4.4,0.9-7.4,2.1-8.9,3.6c-1.5,1.5-3.1,4.7-4.6,9.6
		c-1.8,5.5-4,11.7-6.8,18.5c-2.8,6.8-5.4,12.8-8.1,17.8c-1.3,2.2-2.7,4.4-4.1,6.6c-1.4,2.2-2.8,4.2-4.1,5.9
		c-1.3,1.8-2.5,3.1-3.5,4.1c-1,1-1.6,1.3-1.8,0.8c-0.2-0.2-0.6-0.9-1-2c-0.4-1.1-0.9-2.3-1.3-3.6c-1.5-4.6-2.6-10.3-3.3-17
		c-0.7-6.7-0.9-13.7-0.8-21.1c0.1-7.4,0.6-14.7,1.5-21.9c0.9-7.3,2.1-13.6,3.6-19.1c2-6.4,4.3-11.8,6.9-16.2
		c2.6-4.4,5.2-6.6,7.6-6.6c2.6,0,5.5,1.5,8.6,4.5c3.1,3,5.8,6.8,8.2,11.4c1.5,3.1,2.9,5.1,4,5.9c1.1,0.9,2.3,0.8,3.6-0.3
		c0.9-0.7,1.2-1.6,1-3c-0.2-1.3-1.1-3.5-2.6-6.6c-1.8-3.7-4.2-7.3-7.4-10.7c-3.2-3.4-6.5-6-10.1-7.7c-2.4-1.1-4.3-1.8-5.8-2
		c-1.4-0.2-3.7-0.3-6.8-0.3c-5.1,0-9.1,0.8-12.2,2.3c-3.1,1.5-6.8,4.6-11.2,9.2c-10.6,11.2-17.3,26.4-20.1,45.5
		c-0.8,5.2-1.2,10.4-1.2,15.5c-1,3.8-2,7.8-3.2,12.2c-1.4,5.3-2.9,10.4-4.5,15.3c-1.5,4.9-3,9.5-4.3,13.7c-1.3,4.2-2.4,7.3-3.3,9.2
		c-1.5,3.7-3.5,7-5.8,9.9c-2.3,2.9-4,4.1-5.1,3.6c-0.7-0.2-2-2.1-4-5.8c-2-3.6-3.8-7.6-5.6-12c-3.3-8.8-6-19.1-8.1-31
		c-2.1-11.9-3.1-23.6-3.1-35.3v-8.9l4-2.3c2.2-1.3,4.7-3.3,7.6-5.9c2.9-2.6,5.8-5.5,8.7-8.7c3-3.2,5.7-6.5,8.2-9.9
		c2.5-3.4,4.5-6.5,5.8-9.4c3.3-6.6,5.9-13.7,7.7-21.4c1.9-7.7,2.5-14.2,1.8-19.5c-0.7-7.5-3.1-13.7-7.4-18.6
		c-4.3-4.9-9.5-7.9-15.7-8.7c-8.1-1.1-15.6,2.8-22.5,11.7c-6.9,8.9-12.5,21.8-16.8,38.7c-0.6,2.6-1.3,5.6-2,8.9
		c-0.6,3.3-1.2,6.5-1.6,9.7c-0.4,3.2-0.8,6.2-1.1,9.1c-0.3,2.9-0.5,5.1-0.5,6.6c0,2.4-0.3,4-1,4.6c-0.7,0-1-0.3-1-1
		c0-0.7-0.4-1.8-1.2-3.5c-0.8-1.6-1.6-3.3-2.6-5.1c-1-1.8-2.1-3.5-3.3-5.1c-1.2-1.6-2.3-2.9-3.1-3.8c-3.5-3.1-7-5.3-10.4-6.6
		c-3.4-1.3-7.3-2-11.7-2c-4.8,0-8.5,0.5-10.9,1.5c-2.4,1-5.4,3.4-8.9,7.1c-6.6,6.6-11.6,14.8-15,24.7c-3.4,9.9-5.2,21.1-5.4,33.6
		c0,9,0.7,16.8,2.1,23.4c1.4,6.6,3.8,12.9,7.1,18.8c1.8,3.3,4.1,6.2,6.9,8.7c2.9,2.5,5.9,4.7,9.1,6.4c3.2,1.8,6.5,2.9,9.9,3.5
		c3.4,0.6,6.5,0.5,9.4-0.2c2.6-0.9,5.8-3.1,9.4-6.8c3.6-3.6,6.6-7.5,9.1-11.7c2-3.5,3.9-7.8,5.8-12.9c1.9-5.1,3.1-9.8,3.8-14.2
		c0.7-3.1,1.3-5.2,1.8-6.3c0.5-1.1,0.8-0.5,0.8,1.6c0,1.1,0.2,2.9,0.6,5.4c0.4,2.5,0.9,5.3,1.5,8.2c0.5,3,1.1,6,1.8,9.1
		c0.6,3.1,1.3,5.7,2,7.9c4.8,16.9,12.4,28.1,22.8,33.6c6.6,3.1,12.5,3.4,17.8,1c2.4-1.3,4.8-3.3,7.3-6.1c2.4-2.7,4.5-6,6.3-9.7
		c1.5-3.1,3.7-8.8,6.4-17.3c1.8-5.5,3.5-11.5,5.3-17.9c0.4,2,0.8,3.9,1.3,5.8c1.7,6.2,3.8,11.5,6.4,16.2c2.6,4.6,5.8,8,9.6,10.2
		c2.4,1.8,5.5,2.7,9.2,2.8c3.7,0.1,7.1-0.6,10.2-2.1c8.4-4.2,16.7-15.4,25.1-33.6l3.3-7.3v11.9c0,15.2,1.5,28,4.6,38.6
		c3.1,10.6,7.4,17.5,12.9,20.8c4.8,3.1,9.7,2.8,14.5-1c5.1-3.7,10.3-13.4,15.8-29c2.7-7.6,5.3-16.3,7.8-26c0.2,5.3,0.6,9.7,1.1,13.2
		c3.3,25.9,11.5,42.3,24.7,49.1c2.9,1.3,6,2.1,9.4,2.3c3.4,0.2,6.4-0.2,9.1-1.3c2.2-1.1,4.6-3.1,7.3-5.9c2.6-2.9,4.9-6.2,6.9-9.9
		c2-4,4.3-9.9,7.1-18c2.7-8,5.3-16.5,7.6-25.6c1.6-6.3,3.1-12.4,4.4-18.3c3.3,12.6,8.2,23.3,14.6,32.1c6.6,9,13.7,14.6,21.4,16.8
		c9.4,2.4,17.8-0.3,25.1-8.2c2.6-2.9,4.9-6.2,6.9-9.9c2-3.7,4-8.2,5.9-13.5c1.3-3.5,2.6-7.7,4-12.5c0-0.1,0.1-0.2,0.1-0.4
		c1.7,5.7,4.3,11.3,8.2,16.8c4.4,6.8,9.3,11.2,14.7,13c5.4,1.9,10.7,1.2,16-2.1c7.7-4.8,15.2-21,22.4-48.5c0.4-1.5,0.8-3,1-4.3
		c0.2-1.3,0.5-2.5,1-3.6c0.4-1.1,0.8-2.2,1-3.3c0.2,1.3,0.5,4.3,0.8,8.9c0.3,4.6,0.7,9.6,1,15c0.3,5.4,0.6,10.7,0.8,15.8
		c0.2,5.2,0.3,9.1,0.3,11.7v14.2l-6.6,2.6c-1.8,0.9-4.1,1.9-6.9,3c-2.9,1.1-5.4,2.1-7.6,3c-7.3,3.1-13,6.4-17.3,10.1
		c-4.3,3.6-7.6,8-10.1,13c-1.8,3.5-2.6,7.3-2.6,11.2c0,4,0.8,7.4,2.3,10.2c1.1,2.2,2.6,4.2,4.6,5.9c2,1.8,4.2,3.2,6.6,4.3
		c3.5,1.8,8,2.3,13.5,1.6c5.5-0.7,10.7-2.2,15.5-4.6c2.9-1.3,6-3.5,9.4-6.6c3.4-3.1,6-6,7.7-8.9c2.9-4.4,5.3-10.6,7.4-18.6
		c2.1-8,3.6-16.2,4.5-24.6c0.2-2,0.4-3.6,0.5-4.8c0.1-1.2,0.3-2.2,0.7-3c0.3-0.8,0.8-1.5,1.3-2.3c0.5-0.8,1.4-1.8,2.5-3.1
		c5.1-5.9,9.8-13.2,14.2-21.9c4.4-8.7,7.7-17.3,9.9-25.9c1.1-4.4,1.6-7.4,1.6-8.9c0-1.5-0.6-2.9-1.6-4
		C1004.2,663.2,1003,663,1002.1,663.8z M564.7,643.1c1.8-17.4,3.7-31.3,5.9-41.7c2.2-10.4,5.2-19.4,8.9-26.9c2-3.7,4-6.8,5.9-9.1
		c2-2.3,3.6-3.5,4.9-3.5c1.3,0,2.9,1,4.6,3.1c1.8,2.1,3.2,4.6,4.3,7.4c3.3,9.2,1.9,21.8-4.3,37.6c-3.1,8.4-9.1,17.4-18.1,27
		c-2,2-3.9,3.9-5.8,5.8c-1.9,1.9-3.2,3-4.1,3.5l-3,1.3L564.7,643.1z M529.9,700.8c-3.4,12.5-8.3,22.1-14.7,28.7
		c-1.3,1.3-2.6,2.5-4,3.5s-2.2,1.5-2.6,1.5c-0.9,0-1.9-0.8-3.1-2.3c-1.2-1.5-2.5-3.6-3.8-6.1c-1.3-2.5-2.6-5.4-3.8-8.6
		c-1.2-3.2-2.1-6.4-2.8-9.7c-0.9-3.7-1.4-8.3-1.5-13.7c-0.1-5.4,0-11,0.3-16.8c0.3-5.8,0.9-11.5,1.8-17c0.9-5.5,2-10.2,3.3-14.2
		c1.1-3.5,2.5-6.7,4.1-9.6c1.6-2.9,3.5-5.2,5.4-7.1c2-1.9,4-3.2,5.9-4c2-0.8,3.7-0.7,5.3,0.2c8.4,4.4,13.1,16,14.2,35
		C534.6,674.8,533.3,688.2,529.9,700.8z M826.5,652.6c-0.2-1.3-0.3-3.6-0.2-6.9c0.1-3.3,0.2-7,0.3-11c0.1-4.1,0.3-8.2,0.7-12.4
		c0.3-4.2,0.7-7.8,1.2-10.9c0.9-5.7,1.8-10.5,2.6-14.3c0.9-3.8,2.2-8.4,4-13.7c2.2-6.8,4.9-12.4,8.1-16.8c3.2-4.4,6.4-7.3,9.7-8.7
		c3.3-1.4,6.4-1.3,9.4,0.3s5.4,5,7.4,10.1c1.5,3.7,2.3,8.9,2.3,15.5c0,6.6-0.8,12.6-2.3,18.1c-1.3,5.3-3.2,10.4-5.6,15.3
		c-2.4,4.9-5.1,9.6-8.1,14c-3,4.4-6.2,8.4-9.7,11.9c-3.5,3.5-7,6.3-10.6,8.2c-4.2,2.4-6.7,3.7-7.4,3.8
		C827.5,655.2,826.9,654.4,826.5,652.6z M955.4,747.6c0,0.7-0.1,1.4-0.2,2.3c-0.1,0.9-0.2,1.9-0.2,3c-3.1,23.3-9.9,36.9-20.4,40.9
		c-2.6,1.1-4.5,1.6-5.4,1.6c-1,0-2.7-0.3-5.1-1c-3.7-0.9-6.7-2.7-8.9-5.4c-2.2-2.8-3.3-5.9-3.3-9.4c0-4,1.8-8.4,5.3-13.2
		c3.5-4.8,7.7-8.5,12.5-10.9c1.3-0.7,3.4-1.6,6.3-2.8c2.9-1.2,5.7-2.4,8.6-3.5c2.9-1.1,5.4-2,7.6-2.8c2.2-0.8,3.4-1.2,3.6-1.2
		C955.5,745.9,955.4,746.7,955.4,747.6z"/>
	<path d="M155,540.9c-17.2-1.2-32.5,3.9-46.2,13.9c-2.1,1.6-4,3.6-5.8,5.5c-2.2,2.3-3.1,5-2.4,8.2c1.6,1.4,3.2,2.8,4.7,4.1
		c6.9,2.5,13.8,1.4,20.5-0.7c9.3-2.9,17.6-7.6,25.1-13.6c4.3-3.4,8.3-7.3,11.3-12.1c-0.7-1.8-1.3-3.7-1.9-5.3
		C158.5,540.9,156.8,541,155,540.9z M126.8,563.2c-2.1,1.3-4.7,2-7.2,2.5c-1.7,0.4-3.7,0.4-5.3-0.2c-1.5-0.6-3.3-1.8-3.9-3.2
		c-0.9-1.9,1-3.2,2.5-4.2c1.3-0.8,2.5-1.7,3.8-2.4c10.5-5.3,21.8-6.8,33.2-8.1c0.2,0.4,0.3,0.8,0.5,1.2
		C142.6,553.6,134.7,558.5,126.8,563.2z"/>
	<path d="M265.2,448.1c5.9,5.3,13,8.6,20.7,10.3c10.8,2.4,21.7,2.4,32.6,0.3c1.4-0.3,2.9-0.5,4.8-0.8c-8.7,8.4-45.9,26.6-60.3,29.7
		c-6.3-6.3-12.5-12.8-18.9-19.1c-8.2-7.9-16.4-15.8-26-22.1c-6.1-4-12.5-7.1-19.9-7.8c-12.9-1.2-21.1,9.8-16.2,21.7
		c2.5,6.1,6.3,11.2,11,15.7c9.7,9.3,21.3,14.8,34.1,18.3c1.2,0.3,2.3,0.7,3.5,1.1c-3.8,1.4-7.5,2-11.2,2.4
		c-15.6,1.7-31.1,1.5-46.5-2c-1.8-0.4-3.5-0.7-4.6-2.4c-4.9-7.9-11.8-13.9-18.7-19.9c-9.6-8.2-20.3-14.3-32.4-18
		c-5.7-1.8-11.5-2.3-17.3-1.7c-6.3,0.7-9.5,4.3-10.3,10.5c-1.2,9.3,2.4,16.7,8.6,23.2c11.7,12.3,26.5,18.2,43,20.5
		c8.4,1.2,16.8,0.6,25.1-0.7c1.6-0.3,3.3-0.5,4.9-0.2c20.8,3.5,41.5,2.2,62.2-1.2c0.6-0.1,1.3,0.1,1.8,0.1
		c-3.2,3.7-6.3,7.1-9.3,10.7c-7.3,9-13.5,18.7-16.8,30c-1.9,6.6-2.4,13.3-1.1,20c1.6,8.5,9.5,13.1,17.7,10c3-1.1,5.9-3,8.3-5.2
		c5.2-4.6,9.3-10.2,12.5-16.3c9-16.9,14.3-34.9,15-54.1c0-0.7,0.1-1.4,0.2-2.3c22.2-6.5,43.4-15.2,63.6-26.3
		c-3.1,7.1-6.3,14.2-9.2,21.4c-3.4,8.5-5.6,17.4-5.8,26.7c-0.1,3,0.1,6,0.7,8.9c0.7,3.6,3.1,5.3,6.8,5.2c1.6,0,3.3-0.4,4.8-0.8
		c8.1-2.4,14.3-7.5,19.3-14.1c11.3-15,17.2-32.1,18.6-50.8c0.6-8.1-0.2-16.1-3.3-23.8c0.7-0.8,1.2-1.3,1.7-1.9
		c3.9-4.9,7.9-9.8,11.6-14.9c1.2-1.7,2-4.1,2.2-6.2c0.2-3.3-2.4-4.9-5.4-3.6c-1.3,0.6-2.6,1.5-3.6,2.5c-1.4,1.4-2.5,3-3.8,4.4
		c-3.9,4.1-7.8,8.2-11.6,12.2c-14.7-7.9-29.7-12.9-45.5-15.5c-8.5-1.4-17-1.9-25.5-0.2c-3.5,0.7-7.1,1.7-10.1,3.5
		C258.2,430.8,257.4,441.2,265.2,448.1z M155.7,496c-14.7-2.6-29.1-5.2-42.1-12.5c-2.1-1.2-4-2.6-5.7-4.2c-2-1.8-3.1-4.2-1.8-6.9
		c1.2-2.7,3.8-2.6,6.2-2.2c2.2,0.3,4.4,0.9,6.5,1.7c13.3,5,25.3,12.2,35.8,21.7c0.4,0.4,0.8,0.9,1.2,1.3
		C155.7,495,155.7,495.2,155.7,496z M212.9,475.2c-5.9-3.2-11.5-6.9-17.2-10.6c-1.6-1-2.9-2.6-4.1-4.1c-1.7-2.3-1.1-4.2,1.5-5.4
		c3.5-1.7,7.1-1.5,10.4,0.2c3.3,1.7,6.7,3.5,9.6,5.7c11.2,8.4,22.3,17.1,33.5,25.6c-0.2,0.4-0.5,0.7-0.7,1.1
		C234.6,484.3,223.3,480.8,212.9,475.2z M226.6,555c-0.7,1.1-1.7,2.1-2.6,3.1c-1.3,1.4-3,2-4.9,1.1c-2-0.9-2.4-2.7-2-4.6
		c0.4-2.2,0.9-4.5,1.9-6.4c3.4-6.5,6.6-13.2,10.7-19.2c5.4-7.7,11.7-14.8,17.6-22.2c0.3-0.4,0.8-0.7,1.2-1.1
		C243.4,523.4,236.7,540,226.6,555z M345.9,463.2c0.7-1.1,1.4-2.2,2.1-3.3c0.3,0.1,0.6,0.3,0.9,0.4c0.1,15.1-2.7,29.7-8.9,43.5
		c-2.2,4.9-4.8,9.6-8.6,13.6c-2.9,3-6.1,5.3-10.3,5.9c-3.3,0.5-4.6-0.7-4.1-4c0.3-1.8,0.9-3.5,1.5-5.1c5.4-14.2,13.2-27.2,20.9-40.1
		C341.7,470.4,343.8,466.7,345.9,463.2z M280.3,437.7c1.6-0.3,3.3-0.4,4.9-0.4c17,0.1,33.6,3.1,50.1,8.3c-2.6,0.5-5.2,1.2-7.8,1.6
		c-12.2,1.9-24.4,2.5-36.6,1.1c-2.8-0.3-5.6-0.8-8.3-1.7c-1.6-0.5-3.3-1.6-4.4-2.8C276,441.5,277.2,438.4,280.3,437.7z"/>
	<path d="M1004.1,479.7c-2.7-2-7.1-4.1-13.1-6.3c-13.9-3.9-30.5-6.3-50-7c-19.5-0.7-34.9-0.6-46.1,0.5c-1.3,0.2-2.4,0.7-3.1,1.6
		c-0.8,0.9-1.1,2.1-1.1,3.4c0.1,1.8,0.9,2.9,2.3,3.4c1.4,0.5,4.2,0.9,8.5,1.1c4.1,0.2,10,0.8,17.7,1.7c7.8,0.9,18,2.6,30.6,5.2
		c6,1.1,11.9,2.2,17.6,3.4c7.3,1.5,14.1,2.7,20.4,3.7c6.3,0.9,11.8,1.2,16.5,0.6c1.3-0.3,2.5-0.9,3.5-1.9c1-1,1.3-2.3,1-4
		C1008.3,483.6,1006.8,481.7,1004.1,479.7z"/>
	<path d="M896.3,405.1c2-1.2,4.8-2.6,8.3-4.2c14-6.1,26.9-10.8,38.9-14.1c12.5-3.6,22.2-7.4,29-11.3c3.1-2.3,3.3-4.8,0.6-7.6
		c-2.7-2.8-8.6-3.9-17.6-3.1c-9,0.8-21.3,5.5-37,14.3c-10.8,6.2-18.6,11.1-23.6,14.6c-4.9,3.5-7.8,6.1-8.6,8
		c-0.8,1.8-0.5,3.4,0.8,4.7c1.1,1.2,2.4,1.6,3.6,1.4C892.1,407.3,893.9,406.5,896.3,405.1z"/>
	<path d="M876.3,524.2c-1.2,0.4-2,1.2-2.5,2.3c-0.9,1.6-0.8,2.9,0,4c0.9,1.1,2.7,2.7,5.4,4.7c2.5,1.9,6,4.7,10.4,8.4
		c4.4,3.7,9.7,8.8,16.1,15.3c3.2,3.7,6.5,7.4,9.8,11.3c4.7,5.4,9.1,10.3,13.2,14.7c4.2,4.4,7.8,7.3,11,8.8c3.2,1.5,5.5,0.8,7.1-2.2
		c0.5-1.1,0.7-2.2,0.5-3.4c-0.2-1.2-0.4-2.4-0.6-3.7c-2.4-8.1-7.6-16-15.5-23.9c-7.9-7.9-16.6-15-26.2-21.4
		c-9.5-6.3-17.9-11.2-25.2-14.7C878.6,523.8,877.4,523.8,876.3,524.2z"/>
	<path d="M948.5,874.4c-3.1-1.4-6.5-0.4-9.1,2.4c-2.9,3.2-4.4,7.1-5.4,11.2c-1,4.1-1.7,8.3-2.6,12.8c-0.5-0.8-0.8-1.3-1.2-1.9
		c-2.4-3-4.6-6.1-7.2-8.9c-2.7-2.9-6.2-4.5-10-5.2c-7.7-1.5-13.5,4.4-12.1,12.1c0.7,3.7,2.2,7.1,4.2,10.2
		c7.6,12.1,17.8,21.6,29.5,29.6c1.3,0.9,2.8,1.5,4.3,2.2c0.3-0.5,0.5-0.8,0.6-1.1c3.6-9,7.1-18.1,10.8-27.1c2.8-6.9,4.8-14,5.6-21.5
		c0.3-3.2-0.1-6.2-1.4-9.2C953.2,877.3,951.1,875.5,948.5,874.4z"/>
</g>
</svg>
