<?xml version="1.0" encoding="utf-8"?>
<!-- Generator: Adobe Illustrator 22.0.0, SVG Export Plug-In . SVG Version: 6.00 Build 0)  -->
<svg version="1.1" id="Layer_1" xmlns="http://www.w3.org/2000/svg" xmlns:xlink="http://www.w3.org/1999/xlink" x="0px" y="0px"
	 viewBox="0 0 1080 1080" style="enable-background:new 0 0 1080 1080;" xml:space="preserve">
<g>
	<path d="M482,832.9c-2.6-13.9-5.6-28.5-16.8-38.1c-11.2-9.6-26.5-5.6-36.3,3.9c-7.4,7.2-13.4,15.8-17.9,25.1
		c-0.1-2.3-0.3-4.7-0.4-7c-1.1-20.1-2.2-40.2-3.3-60.3c-0.3-5.2-6.1-8.9-10.9-8.2c-5.6,0.8-8.5,5.7-8.2,10.9
		c0.8,19.9,1.6,39.8,2.4,59.7c0.8,19.9,1.2,39.8,3.7,59.5c0.6,4.5,4.7,7.9,9.2,7.8c4.2-0.1,8.9-3.3,9.1-7.9c0,0,0,0,0,0
		c1.6-1.2,2.6-3.2,2.4-5.7c-1.8-20.6,4.6-41.6,17.5-57.8c5-6.2,15-16.9,23.5-10.1c3.4,2.8,4.6,7.4,5.4,11.6
		c1.2,6.1,1.8,12.4,2.2,18.6c0.4,6.7,0.7,13.2,0.5,19.9c-0.2,7.7-0.8,15.5,0.2,23.1c1.2,8.6,14.2,10.8,17.3,2.2
		c2.8-7.8,3.1-16.5,2.9-24.7C484.1,847.8,483.3,840.2,482,832.9z"/>
	<path d="M544.6,840.3c-2.8,6.8-5.6,14.7-11.9,19.2c-0.4,0.3-0.7,0.5-0.8,0.6c0.1-0.1,0-0.1-1,0.4c0,0-0.9,0.4-1,0.4
		c-0.9,0.3-1.8,0.4-2.7,0.6c-0.1,0-0.6,0-0.9,0.1c-0.6-0.1-1.9-0.3-1.7-0.2c-0.5-0.2-1-0.4-1.5-0.6c-0.4-0.2-0.7-0.2-0.8-0.2
		c-0.1-0.1-0.3-0.2-0.7-0.5c-0.8-0.5-1.5-1.1-2.2-1.7c0.1,0-0.9-1-1.1-1.2c-0.6-0.7-1.2-1.4-1.7-2.2c-0.4-0.7-1.5-2.8-2.1-4
		c-1.8-4.1-2.6-7.1-3.5-11.4c-1.1-5.3-1.9-10.7-2.3-16.1c0.8,0.7,1.9,1.2,3.1,1.4c20,3.6,38.8-10.1,43-29.6
		c4.1-18.9-8.4-44.3-30.2-43.3c-11.5,0.5-20,9.5-25.2,18.9c-5.3,9.7-7.9,21.6-9.3,32.4c-1.4,11.4-1.2,23.2,0.6,34.5
		c1.8,11,4.6,23.2,12.3,31.7c9.2,10.2,23.6,14.3,35.6,6.3c10.6-7.1,15.2-18.5,19-30.2C560.8,837.1,548.1,831.6,544.6,840.3z
		 M512.3,789.2c1.7-6.3,4-14,8.8-18.3c4.3-3.8,9.6-4.6,14.5-0.6c4.9,3.9,7,11,7,17c0.1,15.5-13.6,27.4-28.9,24.7
		c-2.1-0.4-3.7,0.2-4.9,1.2C509.1,805.2,510.2,797,512.3,789.2z"/>
	<path d="M613.2,756.3c-10.2-4.8-21.8-5-32.4-1.5c-0.5,0.2-0.9,0.4-1.3,0.7c-0.8-0.4-1.6-0.6-2.5-0.7c-4.2-0.5-9.5,2.8-9.6,7.4
		c-1.1,39.2-1.2,79.2,5.2,118c0.7,4.4,4.8,7.6,9.3,7c4.7-0.7,7.2-4.8,7-9.3c-0.3-8-0.8-16-1.2-24c0.2,0.1,0.5,0.2,0.8,0.3
		c5.2,1.4,10.4,2.9,15.5,4.3c5.1,1.4,10.6,2.4,15.4,4.6c9.4,4.2,14-12.4,3.6-13.6c-4.9-0.6-9.8-2.3-14.6-3.6
		c-1.6-0.4-3.2-0.9-4.8-1.3c15-9.4,28.3-21.8,32.8-39.6C641.2,785.6,631.3,764.8,613.2,756.3z M590.3,836.8
		c-1.5,0.9-2.8,2.2-3.5,3.6c-1.4-24.4-2.6-48.9-2.4-73.4c0.5-0.1,1.1-0.2,1.6-0.4c18.1-5.9,36.6,7.3,38.2,25.9
		C625.9,813.2,605.9,827.7,590.3,836.8z"/>
	<path d="M698.3,840.3c-2.8,6.8-5.6,14.7-11.9,19.2c-0.4,0.3-0.7,0.5-0.8,0.6c0.1-0.1,0-0.1-1,0.4c0,0-0.9,0.4-1,0.4
		c-0.9,0.3-1.8,0.4-2.7,0.6c-0.1,0-0.6,0-0.9,0.1c-0.6-0.1-1.9-0.3-1.7-0.2c-0.5-0.2-1-0.4-1.5-0.6c-0.4-0.2-0.7-0.2-0.8-0.2
		c-0.1-0.1-0.3-0.2-0.7-0.5c-0.8-0.5-1.5-1.1-2.2-1.7c0.1,0-0.9-1-1.1-1.2c-0.6-0.7-1.2-1.4-1.7-2.2c-0.4-0.7-1.5-2.8-2.1-4
		c-1.8-4.1-2.6-7.1-3.5-11.4c-1.1-5.3-1.9-10.7-2.3-16.1c0.8,0.7,1.9,1.2,3.1,1.4c20,3.6,38.8-10.1,43-29.6
		c4.1-18.9-8.4-44.3-30.2-43.3c-11.5,0.5-20,9.5-25.2,18.9c-5.3,9.7-7.9,21.6-9.3,32.4c-1.4,11.4-1.2,23.2,0.6,34.5
		c1.8,11,4.6,23.2,12.3,31.7c9.2,10.2,23.6,14.3,35.6,6.3c10.6-7.1,15.2-18.5,19-30.2C714.4,837.1,701.8,831.6,698.3,840.3z
		 M665.9,789.2c1.7-6.3,4-14,8.8-18.3c4.3-3.8,9.6-4.6,14.5-0.6c4.9,3.9,7,11,7,17c0.1,15.5-13.6,27.4-28.9,24.7
		c-2.1-0.4-3.7,0.2-4.9,1.2C662.8,805.2,663.9,797,665.9,789.2z"/>
	<path d="M175.1,293.8c1.5,3.2,2.8,5.4,3.8,6.4c1,1.1,2.4,1.6,4.4,1.6c3.4,0,5-1.6,5-4.8c0-1.5-0.4-2.7-1.3-3.4
		c-0.7-0.7-1.6-1.1-2.7-1.2c-1.1-0.1-2,0.2-2.5,0.7c-1,1.3-2.5-1-4.6-6.7c-3.5-9.5-5-19.2-4.5-29.2c0.5-9.9,3-19.5,7.5-28.8
		c3.5-7.4,7.6-13.4,12.4-18.1c4.8-4.6,10.6-8.3,17.4-10.9c7.8-2.9,15.6-3.4,23.2-1.4c7.6,2,14.1,6.3,19.4,12.7
		c9.7,11.9,14.9,28.9,15.8,51c0.3,7.7-0.1,15.1-1.2,22.3c-1.1,7.1-2.7,13.4-4.9,18.7c-2.9,7.3-6.8,13.2-11.6,17.7
		c-4.8,4.6-9.8,7-15.1,7.5c-2.8,0.3-4.9,0.2-6.2-0.2c-1.3-0.4-2.8-1.4-4.5-2.9c-3.2-2.9-6.1-6.7-8.5-11.2c-2.4-4.5-4.2-9.3-5.4-14.2
		c-0.6-2.5-0.9-4.8-1.1-6.9c-0.1-2.1-0.2-5.5-0.2-10.1c0-2.4,0-4.4,0-6c0-1.6,0.1-3,0.2-4.3c0.1-1.3,0.3-2.5,0.5-3.7
		c0.2-1.2,0.5-2.6,0.7-4.3c1.4-6.3,3.4-12.9,6-19.7c2.6-6.9,5.5-13.2,8.7-19.1c1.1-2,1.7-3.3,1.7-4c0-0.7-0.4-1.6-1.3-2.7
		c-1.8-2-4-3.3-6.4-4c-2.4-0.7-4.5-0.5-6.2,0.6c-1,0.7-2.1,1.9-3.5,3.6c-1.3,1.7-2.6,3.7-3.9,6c-1.3,2.3-2.5,4.8-3.7,7.3
		c-1.2,2.6-2.2,5.1-3,7.5c-1.7,5.2-2.9,10-3.7,14.5c-0.8,4.5-1.2,9.9-1.4,16.4c-0.1,3.2-0.2,6-0.2,8.4c0,2.4,0.1,4.6,0.3,6.6
		c0.2,2,0.5,4,0.8,5.9c0.3,1.9,0.9,4,1.6,6.2c0.7,3.1,1.8,6.3,3.3,9.6c1.5,3.3,3,6.1,4.5,8.3c2.7,3.9,5.9,7.4,9.9,10.3
		c3.9,2.9,7.9,5,12,6.1c7.4,2,14.6,0.8,21.5-3.6c6.9-4.3,12.6-11.3,17.1-21c2.2-4.8,4-10.4,5.1-16.8c1.2-6.4,1.9-13.2,2.1-20.2
		c0.2-7-0.1-14-0.8-20.9c-0.8-6.9-2.1-13.3-3.9-19c-2-5.9-4.6-11.4-7.9-16.7c-3.3-5.3-6.8-9.3-10.4-12.1c-2.1-1.7-4.7-3.3-7.9-4.8
		c-3.1-1.5-6.1-2.6-8.7-3.1c-1.3-0.3-2.7-0.5-4.4-0.6c-1.7-0.1-3.4-0.2-5.1-0.2c-1.8,0-3.5,0.1-5.1,0.2c-1.7,0.1-3.1,0.4-4.2,0.6
		c-6.7,1.5-13.2,4.6-19.4,9.2c-6.2,4.6-11.2,10-14.8,16.2c-4.1,6.7-7,13.4-8.8,19.9c-1.8,6.6-2.7,13.7-2.7,21.4
		c0,6,0.6,11.9,1.7,17.6C171.2,283.8,172.8,289,175.1,293.8z"/>
	<path d="M290,304.1c3.4,3.4,7.1,5,11.1,5c4.5,0,8.3-2.1,11.3-6.3c3.1-4.2,5.9-11.2,8.4-21l1.9-7.3v6.5c0.1,9.7,1.3,17.7,3.4,24
		c2.1,6.4,5.1,10.5,9,12.3c3.1,1.5,6.1,1.2,9-0.9c2.9-2.2,5.4-5.9,7.3-11.2c0.7-2,1.6-4.9,2.6-8.9c0.3-1.3,0.6-2.7,1-4
		c0.4,3.6,0.9,7.2,1.5,10.6c0.7,4.1,1.3,6.9,1.7,8.4c0.4,1.5,1,2.5,1.7,2.9c1.3,1,3.6,0.6,6.9-1.1c1.1-0.6,2-1.1,2.6-1.6
		c0.6-0.5,1.1-1.3,1.5-2.4c0.3-1.1,0.6-2.7,0.6-4.8c0.1-2.1,0.1-5,0.1-8.8c0.1-10.8,0.9-19.7,2.3-26.9c1.4-7.1,3.5-13.6,6.3-19.3
		c1.5-3.2,3.5-6.3,5.9-9.2c2.4-2.9,4.5-5,6.5-6.1c0.7-0.3,1.1-0.3,1.2-0.2c0.1,0.1,0,0.7-0.3,1.7c-0.4,2.4,0.1,4.7,1.7,6.8
		c1.5,2.2,3.4,3.3,5.5,3.3c1.1,0,2.1-0.3,3-1.1c0.9-0.7,1.6-1.6,2.2-2.7c0.6-1.1,0.9-2.3,0.9-3.7c0.1-1.3-0.2-2.6-0.7-3.9
		c-1.3-3.1-3.2-5-5.9-5.9c-2.7-0.8-5.6-0.4-8.8,1.3c-1.4,0.7-2.9,1.8-4.4,3.1c-1.5,1.4-3,3-4.5,4.8c-1.5,1.8-2.9,3.8-4.2,5.9
		c-1.3,2.1-2.4,4.2-3.3,6.3c-1,2.2-2,5-2.9,8.3c-1,3.3-1.8,6.4-2.5,9.3c-0.4,1.8-0.7,2.5-0.7,1.9c-0.1-0.6,0-3.3,0.1-8.2
		c0.1-2.8,0.3-6.1,0.5-9.9c0.2-3.8,0.5-6.9,0.7-9.4c0.4-5,0.6-8.4,0.4-10.1c-0.1-1.7-0.7-2.9-1.7-3.6c-0.7-0.4-1.6-0.7-2.8-0.7
		c-1.2-0.1-2.4,0-3.7,0.2c-1.3,0.2-2.4,0.6-3.5,1c-1.1,0.5-1.8,1.1-2.2,1.8c-0.8,1.3-1.5,3.9-1.9,7.9c-0.4,4-0.8,10.3-1.1,19
		c-0.1,6.9,0,13.4,0.2,19.3c-0.6,3.4-1.3,6.7-2.1,9.9c-0.8,3.6-1.7,7-2.5,10c-0.8,3-1.7,5.7-2.6,8c-0.9,2.3-1.7,4-2.4,5.1
		c-0.8,1.3-1.4,2-1.6,2.1c-0.2,0.1-0.5,0-0.9-0.4c-0.7-1.1-1.4-3.1-2.1-5.9c-0.7-2.8-1.2-5.8-1.5-9c-0.4-4.6-0.6-10.5-0.5-17.6
		c0.1-7.1,0.4-15.7,0.9-25.8c0.3-4.9,0.5-9.3,0.5-13.1c0.1-3.8,0-6.1-0.1-6.6c-0.1-0.6-0.4-1.2-0.6-1.8c-0.3-0.6-0.6-1.1-1.1-1.4
		c-0.6-0.6-1.1-0.9-1.6-1.1c-0.5-0.1-1.5-0.1-3,0c-1,0.1-2.1,0.4-3.3,0.6c-1.2,0.3-2.1,0.6-2.8,0.8c-0.8,0.4-1.5,0.8-2,1.2
		c-0.5,0.4-0.9,1-1.2,1.9c-0.3,0.9-0.5,2.1-0.7,3.7c-0.2,1.5-0.4,3.6-0.5,6.3c-0.3,2.1-0.6,4.8-1.1,8.1c-0.4,3.3-0.8,6.3-1.1,8.9
		c-1.5,9.5-3,17.1-4.5,22.8c-1.5,5.7-3.1,10.3-4.9,14c-1.1,1.8-2.4,3.5-4,5.1c-1.5,1.6-2.5,2.3-2.9,2c-0.3-0.1-0.7-0.7-1.2-1.7
		c-0.5-1-1-2.2-1.7-3.6c-0.6-1.4-1.2-2.8-1.7-4.3c-0.5-1.5-0.9-2.8-1.2-3.9c-0.6-2.1-1-4.1-1.3-5.9c-0.3-1.8-0.5-3.8-0.7-6
		c-0.2-2.2-0.3-4.6-0.3-7.2c0-2.7,0.1-5.8,0.2-9.4c0.1-3.9,0.2-7,0.1-9.3c-0.1-2.3-0.2-4.1-0.4-5.4c-0.2-1.3-0.5-2.1-0.9-2.6
		c-0.4-0.5-1-0.8-1.7-0.9c-1-0.3-2.5-0.2-4.5,0.2c-2,0.4-3.8,1-5.4,1.7c-1,0.4-1.6,0.9-1.9,1.4c-0.3,0.5-0.6,1.6-0.8,3.3
		c-0.3,1.1-0.5,3-0.5,5.7c-0.1,2.7-0.1,5.4-0.1,8.2c-0.1,9.7,0.6,17.7,2.3,24.3C283.9,295.1,286.5,300.3,290,304.1z"/>
	<path d="M463.8,300.7c1.7,4.1,4,7.1,6.6,9c0.7,0.4,1.5,0.8,2.5,1.3c1,0.4,1.9,0.8,2.7,1.1c10.4,2.1,19.9-8,28.6-30.4l2.1-5.5
		l0.4,3.1c0.1,1.4,0.4,4.4,0.7,9.1c0.3,4.7,0.8,10.6,1.5,17.7c0,0.8,0,1.5-0.1,2.1c-0.1,0.6-0.4,1.1-1.1,1.7c-0.6,0.6-1.7,1.2-3.2,2
		c-1.5,0.8-3.5,1.9-6.2,3.3c-8.1,4.1-14.4,7.7-18.8,11c-4.4,3.3-7.9,6.9-10.6,10.8c-2,2.9-3.3,5.5-3.9,7.6c-0.6,2.1-0.9,4.8-0.9,8.2
		c0.3,9.1,3.5,15.2,9.7,18.3c1.4,0.7,2.6,1.1,3.6,1.2c1,0.1,2.9,0,5.9-0.1c1.5,0,2.8,0,3.7-0.1c0.9-0.1,1.8-0.2,2.5-0.4
		c0.8-0.2,1.5-0.5,2.3-0.7c0.8-0.3,1.8-0.8,3.1-1.5c3.2-1.5,6-3.3,8.3-5.1c2.3-1.9,4.5-4,6.4-6.4c1.7-2.2,3.4-5,5.1-8.4
		c1.7-3.4,3-6.6,4-9.7c0.6-1.8,1.2-4.1,1.8-6.9c0.6-2.8,1.2-5.7,1.7-8.7c0.5-3,0.9-5.9,1.2-8.8c0.3-2.9,0.4-5.4,0.4-7.5
		c0-1.3,0.1-2.2,0.4-2.8c0.3-0.6,1.2-1.8,2.7-3.5c2.1-2.2,4.3-5.1,6.6-8.6c1.7-2.6,3.1-5.1,4.2-7.3c0.4,6,1.1,11.7,2,17.2
		c0.7,4.1,1.3,6.9,1.7,8.4c0.4,1.5,1,2.5,1.7,2.9c1.3,1,3.6,0.6,6.9-1.1c1.1-0.6,2-1.1,2.6-1.6c0.6-0.5,1.1-1.3,1.5-2.4
		c0.3-1.1,0.6-2.7,0.6-4.8c0.1-2.1,0.1-5,0.1-8.8c0.1-10.8,0.9-19.7,2.3-26.9c1.4-7.1,3.5-13.6,6.3-19.3c1.5-3.2,3.5-6.3,5.9-9.2
		c2.4-2.9,4.5-5,6.5-6.1c0.7-0.3,1.1-0.3,1.2-0.2c0.1,0.1,0,0.7-0.3,1.7c-0.4,2.4,0.1,4.7,1.7,6.8c1.5,2.2,3.4,3.3,5.5,3.3
		c1.1,0,2.1-0.3,3-1.1c0.9-0.7,1.6-1.6,2.2-2.7c0.6-1.1,0.9-2.3,0.9-3.7c0.1-1.3-0.2-2.6-0.7-3.9c-1.3-3.1-3.2-5-5.9-5.9
		c-2.7-0.8-5.6-0.4-8.8,1.3c-1.4,0.7-2.9,1.8-4.4,3.1c-1.5,1.4-3,3-4.5,4.8c-1.5,1.8-2.9,3.8-4.2,5.9c-1.3,2.1-2.4,4.2-3.3,6.3
		c-1,2.2-2,5-2.9,8.3c-1,3.3-1.8,6.4-2.5,9.3c-0.4,1.8-0.7,2.5-0.7,1.9c-0.1-0.6,0-3.3,0.1-8.2c0.1-2.8,0.3-6.1,0.5-9.9
		c0.2-3.8,0.5-6.9,0.7-9.4c0.4-5,0.6-8.4,0.4-10.1c-0.1-1.7-0.7-2.9-1.7-3.6c-0.7-0.4-1.6-0.7-2.8-0.7c-1.2-0.1-2.4,0-3.7,0.2
		c-1.3,0.2-2.4,0.6-3.5,1c-1.1,0.5-1.8,1.1-2.2,1.8c-0.8,1.3-1.5,3.9-1.9,7.9c-0.4,4-0.8,10.3-1.1,19c-0.1,6,0,11.6,0.1,16.8
		c-1,3.1-2,5.9-3.1,8.5c-1.9,4.4-4.2,8.4-7,12.1l-2.9,4v-6.9c0-1.7-0.1-3.8-0.2-6.3c-0.1-2.5-0.3-5.1-0.4-7.8
		c-0.1-2.7-0.3-5.2-0.5-7.7c-0.2-2.4-0.4-4.4-0.5-6c-0.4-4.3-2.4-6.5-5.9-6.5c-1.5,0-3.3,0.4-5.4,1.3c-2,0.8-3.4,1.7-4.1,2.5
		c-0.3,0.3-0.8,1.5-1.6,3.6c-0.8,2.1-1.7,4.6-2.6,7.3c-5.3,15.8-10.7,26.3-16.2,31.5l-2.3,2.3l-1.5-2.9c-2-3.6-3.4-7.9-4.3-12.7
		c-0.9-4.8-1.4-9.8-1.5-14.8c-0.1-5,0.3-9.9,1.2-14.7c0.8-4.8,2.2-8.8,4-12.2c1.1-2.1,2.7-4.2,4.6-6.3c2-2.1,3.3-3.1,4-3.1
		c1.4,0,2.8,1,4.2,2.9c1.4,2,2.7,4.7,3.8,8.2c0.7,2.1,1.3,3.5,1.9,4.2c0.6,0.7,1.3,0.9,2.1,0.6c1.1-0.6,1.3-2.4,0.5-5.5
		c-0.8-3.1-2.1-6.2-4.1-9.2c-2.1-3.4-5.1-5.8-8.9-7.3c-3.8-1.5-7.5-1.7-11.1-0.6c-3.2,1-6.2,3.4-9,7.1c-2.8,3.8-5.2,8.7-7.3,14.7
		c-1.7,5.2-2.7,10.6-3.2,16.3c-0.4,5.7-0.3,11.1,0.4,16.3C460.8,292,462,296.7,463.8,300.7z M509.3,316.3c0.1,1,0,2.2-0.3,3.8
		c-0.4,5.7-1.3,11.2-2.7,16.4c-1.4,5.2-3.1,9.8-5.2,14c-2.1,4.1-4.5,7.6-7.1,10.5c-2.7,2.9-5.5,4.9-8.6,6c-1.5,0.6-3.2,0.8-5,0.8
		c-1.8,0-3.3-0.3-4.4-0.8c-4.6-2.4-6.9-7.2-6.9-14.5c0-2.4,0.1-4.1,0.3-5c0.2-1,0.8-2.5,1.8-4.4c1.1-2.2,2.4-4.3,3.9-6.2
		c1.5-1.9,3.3-3.7,5.6-5.5c2.2-1.7,4.9-3.6,8-5.5c3.1-1.9,6.8-4,11.1-6.2c2.4-1.1,4.5-2.1,6.3-3c1.8-0.9,2.9-1.4,3.2-1.6
		C509.1,314.9,509.2,315.3,509.3,316.3z"/>
	<path d="M590.1,271.1c0.1,4.6,0.4,8.6,0.9,12c0.4,3.2,1.2,6.6,2.4,10.2c1.2,3.6,2.3,6.3,3.5,8.3c1.1,2,2.9,4.1,5.4,6.3
		c2.4,2.2,4.7,3.9,6.6,4.8c4.5,2.2,8.5,2.5,12.2,0.6c5.5-2.9,11.1-11.7,16.8-26.4c0.3,2.5,0.8,5,1.4,7.3c1,3.9,2.4,7.3,4.1,10.3
		c1.7,2.9,3.7,5.1,6.1,6.5c1.5,1.1,3.5,1.7,5.9,1.8c2.4,0.1,4.5-0.4,6.5-1.4c5.3-2.7,10.6-9.8,16-21.4l2.1-4.6v7.6
		c0,9.7,1,17.8,2.9,24.6c2,6.7,4.7,11.1,8.2,13.2c3.1,2,6.2,1.8,9.2-0.6c3.2-2.4,6.6-8.5,10.1-18.5c2.1-6,4.1-13,6.1-21
		c0.2,3.1,0.4,5.9,0.7,8.4c0.5,4.1,1.2,7.9,2.2,11.5c1.1,4.3,2.7,8.2,4.8,11.4c2.1,3.3,4.4,5.6,6.9,6.8c3.9,2.1,7.6,1.1,11.1-3
		c3.5-4.1,6.4-11,8.8-20.7c0.7-2.7,1.4-6.1,2.2-10.2c0.2-1,0.3-1.9,0.5-2.9c0.1,0.4,0.2,0.8,0.3,1.2c1.2,3.6,2.3,6.3,3.5,8.3
		c1.1,2,2.9,4.1,5.4,6.3c2.4,2.2,4.7,3.9,6.6,4.8c4.5,2.2,8.5,2.5,12.2,0.6c6.9-3.6,13.8-16.2,20.8-37.8c0.7-2.1,1.2-3.8,1.5-5.2
		c0.7,0.8,1.5,1.7,2.4,2.6c1.5,1.5,3.3,3.4,5.6,5.7c2.4,2.2,4.3,4.1,5.9,5.7c1.5,1.5,2.8,2.9,3.7,4.2c0.9,1.3,1.7,2.5,2.3,3.6
		c0.6,1.1,1.2,2.4,1.6,3.8c0.8,2.7,1.2,4.4,0.9,5.1c-0.2,0.8-1.3,1.9-3.3,3.3c-2.4,1.5-4.7,3.5-7,6c-2.3,2.5-4,4.9-5.1,7.2
		c-0.7,1.5-1.2,2.8-1.5,3.8c-0.3,1-0.4,2.4-0.4,4.2c0,1.7,0.1,2.9,0.3,3.8c0.2,0.8,0.7,1.8,1.4,2.9c1.7,2.8,3.9,4.6,6.7,5.5
		c2.4,0.7,4.9,0.5,7.7-0.5c2.7-1.1,5.3-2.8,7.7-5.4c3.2-3.4,5.6-7.4,7.1-12.2c1.5-4.8,2.2-9.9,1.9-15.5l-0.4-5.9l3.2-2.9
		c1.7-1.5,3.4-3.4,5.1-5.6c1.7-2.2,3.4-4.4,4.8-6.8c0.5-0.8,0.9-1.6,1.4-2.4c0,1.3,0.1,2.5,0.1,3.7c0.2,5.9,0.6,10.9,1.1,14.9
		c0.5,4.1,1.2,7.9,2.2,11.5c1.1,4.3,2.7,8.2,4.8,11.4c2.1,3.3,4.4,5.6,6.9,6.8c3.9,2.1,7.6,1.1,11.1-3c3.5-4.1,6.4-11,8.8-20.7
		c0.7-2.7,1.4-6.1,2.2-10.2c0.8-4.1,1.4-8.2,2-12.3c0.6-4.1,1-7.6,1.3-10.7c0.3-3.1,0.3-4.9,0.2-5.5c-0.3-1-0.9-1.4-1.9-1.4
		c-1,0.1-1.6,0.7-1.9,1.8c-0.1,0.3-0.4,1.5-0.6,3.6c-0.3,2.1-0.6,4.5-0.8,7.1c-1.4,11.2-3.2,20.8-5.4,28.7
		c-2.2,7.9-4.7,13.5-7.5,16.7c-1,1.4-1.8,1.8-2.3,1.3c-0.7-0.6-1.5-2-2.3-4.3c-0.8-2.3-1.6-5.2-2.3-8.7c-0.3-1.4-0.5-2.7-0.7-3.9
		c-0.2-1.2-0.4-3-0.4-5.4c-0.1-2.4-0.1-5.7-0.1-10.1c0-4.3,0-10.4,0-18.1c0-4.3,0-8.6,0-12.9c0-4.3,0-8.2,0.1-11.8
		c0.1-3.6,0.1-6.6,0.2-9.2c0.1-2.6,0.1-4.4,0.1-5.6l0.6-7.8h3.8c7.8,0,13.3-1.7,16.4-5.3c1.8-2.2,1.9-4.4,0.2-6.5
		c-0.7-1-1.7-1.5-2.9-1.6c-1.3-0.1-2.2,0.3-2.9,1.2c-0.7,0.7-1,2-0.8,3.8l0.4,2.5l-2.9,0.6c-1,0.3-2.1,0.5-3.4,0.5
		c-1.3,0.1-2.4,0.1-3.5,0.1c-1.1,0-2-0.1-2.7-0.2c-0.8-0.1-1.2-0.3-1.2-0.6c0-0.1,0-0.9,0.1-2.3c0.1-1.4,0.2-3,0.5-4.8
		c0.4-5.3,0.3-9-0.3-10.9c-0.6-2-2-2.9-4.1-2.9c-1.5,0-3.2,0.4-4.9,1.1c-1.8,0.7-3,1.5-3.7,2.5c-0.7,0.8-1.1,1.7-1.3,2.5
		c-0.1,0.8-0.2,2.9-0.2,6.1c0,1.8,0,3.4-0.1,4.7c-0.1,1.3-0.2,2-0.3,2c-0.1,0-0.9-0.2-2.4-0.5c-1.5-0.3-3.3-0.9-5.4-1.6
		c-11.5-3.4-18.4-2.8-20.8,1.7c-0.7,1.3-0.9,2.5-0.7,3.7c0.2,1.2,0.6,2.1,1.3,2.7c0.6,0.6,1.5,0.9,2.5,0.8c1.1-0.1,2.1-0.6,3-1.6
		c0.7-0.7,1.2-1.3,1.4-1.8c0.2-0.5,0.2-1.1,0.1-1.8c-0.3-0.7-0.3-1.2-0.1-1.4c0.2-0.2,0.9-0.3,2-0.3c0.6,0,1.9,0.2,4,0.7
		c2.1,0.5,4.3,1.1,6.7,1.8l8.4,2.3l-0.4,8c-0.6,12.2-0.9,22.5-1.2,30.9c-0.1,2.4-0.1,4.6-0.1,6.8c-1.8,4.9-4.1,9.5-6.9,13.8
		c-0.7,1-1.5,2-2.4,3.1c-0.9,1.1-1.8,2.2-2.6,3.1c-0.8,1-1.6,1.8-2.3,2.5c-0.7,0.7-1.1,1.1-1.3,1.1c-0.3,0-0.7-0.8-1.3-2.3
		c-1.1-3.6-3-7.3-5.8-11.1c-2.7-3.8-5.9-7.2-9.6-10.3l-2.5-2.1l2.5-2.9c1.5-1.7,3.2-4,4.8-7c1.7-3,2.9-5.7,3.6-8.1
		c0.3-1.1,0.5-2.4,0.6-3.9c0.1-1.5,0.2-2.9,0.2-4.3c0-6-1.8-10.2-5.5-12.6c-2-1.1-4.2-1.6-6.7-1.6c-2.5,0.1-5,0.7-7.3,2
		c-3.2,1.5-6.2,4.2-8.9,7.9c-2.7,3.7-4.6,7.6-5.6,11.7c-0.4,1.8-0.6,4-0.5,6.5c0.1,2.5,0.3,4.6,0.7,6.3c0.4,1.5,0.9,2.9,1.4,4
		c0.1,0.3,0.3,0.6,0.5,0.9c-0.3,0.6-0.7,1.7-1.2,3.5c-2.4,7.1-4.8,13.6-7.1,19.4c-2.4,5.8-4.6,10.3-6.5,13.3c-1,1.5-2.3,3.1-4,4.8
		c-1.7,1.7-2.8,2.5-3.4,2.5c-0.4,0-1.3-1-2.6-2.9c-1.3-2-2.6-4.1-3.7-6.5c-0.8-1.8-1.6-3.9-2.4-6.3c-0.8-2.4-1.4-4.8-1.9-7.2
		c-0.5-2.4-0.8-4.9-1.1-7.2c-0.2-2.4-0.2-4.6-0.1-6.7l0.2-3.4l3.4-1.3c2.4-0.8,4.5-2,6.5-3.5c2-1.5,3.6-3.1,5-4.9
		c3.6-5.2,5.6-10.3,5.9-15.3c0.3-5-1.3-9-4.6-12c-1.5-1.1-3-1.9-4.4-2.4c-1.4-0.5-3.4-0.7-5.9-0.7c-11.6,0-18.9,10.2-21.8,30.4
		c-0.4,2.9-0.6,6.7-0.5,11.3c0,3.1,0.2,5.9,0.5,8.4c-1.4,10.4-3.1,19.3-5.1,26.8c-2.2,7.9-4.7,13.5-7.5,16.7c-1,1.4-1.8,1.8-2.3,1.3
		c-0.7-0.6-1.5-2-2.3-4.3c-0.8-2.3-1.6-5.2-2.3-8.7c-0.3-1.4-0.5-2.7-0.7-3.9c-0.2-1.2-0.4-3-0.4-5.4c-0.1-2.4-0.1-5.7-0.1-10.1
		c0-4.3,0-10.4,0-18.1c0-4.3,0-8.6,0-12.9c0-4.3,0-8.2,0.1-11.8c0.1-3.6,0.1-6.6,0.2-9.2c0.1-2.6,0.1-4.4,0.1-5.6l0.6-7.8h3.8
		c7.8,0,13.3-1.7,16.4-5.3c1.8-2.2,1.9-4.4,0.2-6.5c-0.7-1-1.7-1.5-2.9-1.6c-1.3-0.1-2.2,0.3-2.9,1.2c-0.7,0.7-1,2-0.8,3.8l0.4,2.5
		l-2.9,0.6c-1,0.3-2.1,0.5-3.4,0.5c-1.3,0.1-2.4,0.1-3.5,0.1c-1.1,0-2-0.1-2.7-0.2c-0.8-0.1-1.2-0.3-1.2-0.6c0-0.1,0-0.9,0.1-2.3
		c0.1-1.4,0.2-3,0.5-4.8c0.4-5.3,0.3-9-0.3-10.9c-0.6-2-2-2.9-4.1-2.9c-1.5,0-3.2,0.4-4.9,1.1c-1.8,0.7-3,1.5-3.7,2.5
		c-0.7,0.8-1.1,1.7-1.3,2.5c-0.1,0.8-0.2,2.9-0.2,6.1c0,1.8,0,3.4-0.1,4.7c-0.1,1.3-0.2,2-0.3,2c-0.1,0-0.9-0.2-2.4-0.5
		c-1.5-0.3-3.3-0.9-5.4-1.6c-11.5-3.4-18.4-2.8-20.8,1.7c-0.7,1.3-0.9,2.5-0.7,3.7c0.2,1.2,0.6,2.1,1.3,2.7c0.6,0.6,1.5,0.9,2.5,0.8
		c1.1-0.1,2.1-0.6,3-1.6c0.7-0.7,1.2-1.3,1.4-1.8c0.2-0.5,0.2-1.1,0.1-1.8c-0.3-0.7-0.3-1.2-0.1-1.4c0.2-0.2,0.9-0.3,2-0.3
		c0.6,0,1.9,0.2,4,0.7c2.1,0.5,4.3,1.1,6.7,1.8l8.4,2.3l-0.4,8c-0.6,12.2-0.9,22.5-1.2,30.9c-0.1,3.6-0.1,7-0.1,10.2
		c-0.2,1-0.5,2.1-0.8,3.3c-2.2,10.2-4.5,19-6.7,26.5c-2.2,7.4-4.3,13.2-6.3,17.2l-1.5,2.7l-0.6-2.3c-0.4-1.7-0.8-3.2-1.1-4.5
		c-0.3-1.3-0.5-2.9-0.6-4.7c-0.1-1.8-0.2-4-0.3-6.6c-0.1-2.6-0.1-5.9-0.1-10c0-4.5,0-9,0-13.4c0-4.5,0.1-7.6,0.2-9.2
		c0.1-2.8,0.2-4.6,0.1-5.4c-0.1-0.8-0.4-1.4-0.9-2c-1.7-2-4.6-2.5-8.6-1.7c-2.8,0.6-4.7,1.3-5.7,2.3c-1,1-2,3-2.9,6.1
		c-1.1,3.5-2.6,7.4-4.3,11.8c-1.8,4.3-3.5,8.1-5.1,11.3c-0.8,1.4-1.7,2.8-2.6,4.2c-0.9,1.4-1.8,2.7-2.6,3.8c-0.8,1.1-1.6,2-2.2,2.6
		c-0.6,0.6-1,0.8-1.2,0.5c-0.1-0.1-0.4-0.6-0.6-1.3c-0.3-0.7-0.6-1.5-0.8-2.3c-1-2.9-1.7-6.5-2.1-10.8c-0.4-4.3-0.6-8.7-0.5-13.4
		c0.1-4.7,0.4-9.3,0.9-14c0.6-4.6,1.3-8.7,2.3-12.2c1.3-4.1,2.7-7.5,4.4-10.3c1.7-2.8,3.3-4.2,4.8-4.2c1.7,0,3.5,0.9,5.5,2.8
		c2,1.9,3.7,4.3,5.2,7.2c1,2,1.8,3.2,2.5,3.8c0.7,0.6,1.5,0.5,2.3-0.2c0.6-0.4,0.8-1.1,0.6-1.9c-0.1-0.8-0.7-2.2-1.7-4.2
		c-1.1-2.4-2.7-4.7-4.7-6.8c-2-2.2-4.2-3.8-6.4-4.9c-1.5-0.7-2.8-1.1-3.7-1.3c-0.9-0.1-2.3-0.2-4.3-0.2c-3.2,0-5.8,0.5-7.8,1.5
		c-2,1-4.3,2.9-7.1,5.9c-6.7,7.1-11,16.8-12.8,29c-0.4,2.5-0.6,4.9-0.7,7.3c-1.8,5.1-3.6,9.9-5.4,14.3c-2.4,5.8-4.6,10.3-6.5,13.3
		c-1,1.5-2.3,3.1-4,4.8c-1.7,1.7-2.8,2.5-3.4,2.5c-0.4,0-1.3-1-2.6-2.9c-1.3-2-2.6-4.1-3.7-6.5c-0.8-1.8-1.6-3.9-2.4-6.3
		c-0.8-2.4-1.4-4.8-1.9-7.2c-0.5-2.4-0.8-4.9-1.1-7.2c-0.2-2.4-0.2-4.6-0.1-6.7l0.2-3.4l3.4-1.3c2.4-0.8,4.5-2,6.5-3.5
		c2-1.5,3.6-3.1,5-4.9c3.6-5.2,5.6-10.3,5.9-15.3c0.3-5-1.3-9-4.6-12c-1.5-1.1-3-1.9-4.4-2.4c-1.4-0.5-3.4-0.7-5.9-0.7
		c-11.6,0-18.9,10.2-21.8,30.4C590.2,262.7,590.1,266.5,590.1,271.1z M826.9,308.6c-0.1,0.9-0.4,1.9-0.6,3c-1.3,7.1-4,13.3-8.2,18.5
		c-0.4,0.6-0.8,1.1-1.2,1.5c-0.4,0.4-0.6,0.6-0.7,0.6c-0.7,0-1.3-0.7-1.8-2.1c-0.5-1.4-0.7-2.9-0.7-4.6c0-3.9,1.8-7.9,5.5-12
		c0.6-0.6,1.3-1.3,2.2-2.1c0.9-0.8,1.8-1.6,2.6-2.3c0.8-0.7,1.6-1.3,2.2-1.7c0.6-0.4,0.9-0.6,0.9-0.4
		C827.1,307.2,827,307.7,826.9,308.6z M809.9,243.4c0.1-1,0.5-2.1,1.1-3.4c2.2-4.3,5.1-7.1,8.5-8.2c3.4-1.1,6.1-0.2,7.9,2.7
		c0.7,1.4,1.2,3.3,1.4,5.7c0.2,2.4,0,4.6-0.7,6.7c-0.7,2.4-1.7,4.9-3,7.6c-1.3,2.7-2.6,4.8-3.9,6.3c-1.5,2-2.7,3-3.4,3.1
		c-0.7,0.1-1.7-0.4-2.9-1.7c-0.7-0.7-1.4-1.5-2-2.5c-0.6-1-1.2-1.9-1.6-2.7c-0.7-1.4-1.1-2.6-1.3-3.6c-0.1-1-0.2-2.7-0.2-5
		C809.7,246,809.7,244.4,809.9,243.4z M767.7,261.7c1.1-7.4,2.5-13.4,4.1-18c1.6-4.5,3.4-7.4,5.4-8.5c1.1-0.7,2.3-0.4,3.6,0.8
		s2.2,3,2.7,5.3c0.4,1.5,0.4,3.4,0,5.5c-0.4,2.1-1.2,4.2-2.3,6.2c-1.1,2-2.5,3.9-4,5.7c-1.5,1.8-3.1,3-4.8,3.9
		c-0.7,0.3-1.4,0.6-2,0.9c-0.6,0.4-1.2,0.6-1.6,0.7c-0.7,0.1-1.1,0.1-1.2-0.1C767.5,263.9,767.5,263.1,767.7,261.7z M607,261.7
		c1.1-7.4,2.5-13.4,4.1-18c1.6-4.5,3.4-7.4,5.4-8.5c1.1-0.7,2.3-0.4,3.6,0.8s2.2,3,2.7,5.3c0.4,1.5,0.4,3.4,0,5.5
		c-0.4,2.1-1.2,4.2-2.3,6.2c-1.1,2-2.5,3.9-4,5.7c-1.5,1.8-3.1,3-4.8,3.9c-0.7,0.3-1.4,0.6-2,0.9c-0.6,0.4-1.2,0.6-1.6,0.7
		c-0.7,0.1-1.1,0.1-1.2-0.1C606.9,263.9,606.9,263.1,607,261.7z"/>
	<path d="M223.1,606.1c-7.2-4.1-14.4-3.8-21.4,0.9c-5.5,3.7-9.7,8.6-12,14.6c-3.2,8.3-5.8,17-8.3,25.6c-1.2,4-1.7,8.2-2.5,12.3
		c-0.7,0.1-1.4,0.3-2.1,0.4c-7.4-15-14.8-30.1-22.3-45.1c-2.5-5-1.3-9,3-12.5c6.6-5.4,13-10.9,19.6-16.3
		c8.6-7.1,14.8-15.9,18.4-26.4c1.3-3.7,1.9-7.9,1.6-11.8c-0.8-10.5-8.5-16-18.8-13.6c-8.1,1.9-15.1,6.2-20,12.7
		c-4.6,6.2-8,13.3-11.6,20.1c-2.1,3.9-3.4,8.2-5.6,13.6c-1.3-3.1-2.2-4.9-2.8-6.8c-3.3-9.8-6.5-19.8-9.9-29.6
		c-2-5.6-0.2-9.4,4.6-12.6c10.5-7,20.1-14.9,28.6-24.2c6.5-7.1,11.3-15.1,14.5-24.2c2.1-6.1,1.3-11.7-2.9-16.6
		c-4.5-5.2-10.3-6.4-16.8-4.9c-5.2,1.2-9.6,3.9-13.3,7.7c-7.8,7.9-12.8,17.5-17.4,27.4c-1.2,2.6-2.3,5.1-4,8.8
		c-0.8-2.3-1.5-3.6-1.7-5c-0.6-3.7-1-7.5-1.5-11.2c-0.9-6.7-0.3-12.9,2-19.4c5.7-15.6,7.4-31.8,5-48.2c-0.9-6-2.8-11.9-4.9-17.7
		c-2.5-6.8-7.1-12.1-14.9-12.3c-8.2-0.2-14.6,3.8-18.8,10.7c-3.5,5.6-4.1,12-3.8,18.5c0.7,13.7,5.1,26.4,10.8,38.7
		c2.3,5,5,9.6,9.4,13.2c1.4,1.1,2.7,2.9,3,4.6c1.9,12.1,3.5,24.2,5.2,36.3c-0.5,0.2-1,0.4-1.5,0.7c-5.1-5.2-10-10.7-15.3-15.6
		c-5.7-5.3-11.5-10.6-17.9-14.9c-7.1-4.8-15-5.5-22.5,0c-5.4,4-7.8,9.1-5.5,15.4c1.8,5,4.5,10.1,8.2,13.8
		c13.2,13.5,29.2,22.3,47.6,26.6c3.6,0.9,7.5,0.9,12,1.3c4.2,14.4,8.5,29.1,12.7,43.7c-0.4,0.3-0.8,0.6-1.3,0.9c-2.6-2-5.3-4-7.9-6
		c-7-5.3-13.6-11-21-15.7c-4.7-3-10.2-5.3-15.6-6.2c-13.8-2.2-21.8,7.5-17.8,20.9c2.6,8.8,8.1,15.4,15.7,20.3
		c16.6,10.8,34.8,15.7,54.5,15c3.7-0.1,6.2,0.3,8,4c8.7,18,17.6,36,25.6,55.1c-2.4-1.2-4.9-2.3-7.3-3.6c-9-4.7-17.9-9.7-27-14.2
		c-7-3.5-14.5-6-22.4-6.3c-7.5-0.3-14,1.8-18.5,8.4c-4.7,6.9-4.6,15.7,1.3,21.6c4.1,4.1,9,7.8,14.3,10.1
		c19.3,8.4,39.6,10.6,60.5,7.7c3.9-0.6,7.7-2.1,12.2-3.4c6.6,8.5,13.5,17.4,20.8,26.8c2.8-1.2,5.5-2.3,9.2-3.9
		c-7.1-10.5-13.7-20.4-20.7-30.7c2.9-3.1,5.3-5.7,7.8-8c10.6-9.9,19.4-21.4,25.9-34.3c2.9-5.8,4.9-12.3,6-18.8
		C232.8,616.7,230.1,610,223.1,606.1z"/>
	<path d="M89,326.6c2.8,3.4,4.3,6.4,3.8,10.7c-0.4,3.5-0.1,7-0.2,11.5c3,0.3,5.8,0.6,9.1,1c0.7-5.7,1.2-10.6,1.9-15.5
		c1-6.8,2-8.1,8.9-8.6c18.2-1.4,32.3-9.5,42.4-24.8c1.7-2.6,3.9-4.7,5.6-7.3c3.1-4.6,1.6-7.5-4.1-8c-1.9-0.2-3.8,0-5.7,0.2
		c-14.1,1.4-26.7,5.8-36.2,17c-0.4,0.5-1.1,0.7-2.5,1.7c3.6-14.1,7.6-27.1,14.1-39.2c1.5-2.8,4.4-4.9,6.8-7.1
		c12.5-11.7,20.3-25.9,22.8-43c0.4-2.6,0.6-5.2,0.6-7.8c-0.1-7-2.4-8.7-9.4-7c-7.1,1.7-12.9,5.8-17.8,11.1
		c-5.7,6.2-9.5,13.5-11.2,21.8c-1,4.9-1.9,9.8-2.4,14.7c-1,8.7-2.6,17.1-6.1,25.4c-2.7,6.4-3.6,13.7-5.4,20.5
		c-0.5,1.8-1,3.6-1.9,6.6c-1.7-3.9-2.9-6.7-4.2-9.4c-5.3-11.1-12.4-20.7-22.5-27.7c-2.1-1.5-4.3-2.9-6.7-4c-1.6-0.7-4.5-1.5-5.1-0.8
		c-1.1,1.4-1.7,3.8-1.4,5.7C64.9,287.8,73.8,308.6,89,326.6z"/>
	<path d="M78,388.7c6.4-4.3,8.2-12.9,4-19.3c-4.2-6.6-13.5-8.4-19.9-3.8c-6.2,4.4-7.8,13.2-3.5,19.4C63,391.3,71.7,393,78,388.7z"/>
	<path d="M1025.9,483.6c-7.5-5.5-15.4-4.8-22.5,0c-6.4,4.3-12.2,9.7-17.9,14.9c-5.3,4.9-10.2,10.4-15.3,15.6c-0.5-0.2-1-0.4-1.5-0.7
		c1.7-12.1,3.3-24.2,5.2-36.3c0.3-1.7,1.6-3.5,3-4.6c4.4-3.6,7-8.2,9.4-13.2c5.7-12.3,10.1-25,10.8-38.7c0.3-6.5-0.3-12.9-3.8-18.5
		c-4.3-6.9-10.6-10.9-18.8-10.7c-7.8,0.2-12.4,5.5-14.9,12.3c-2.1,5.7-4.1,11.7-4.9,17.7c-2.4,16.4-0.7,32.7,5,48.2
		c2.4,6.5,3,12.8,2,19.4c-0.5,3.7-0.9,7.5-1.5,11.2c-0.2,1.4-0.9,2.7-1.7,5c-1.6-3.6-2.8-6.2-4-8.8c-4.6-9.9-9.6-19.5-17.4-27.4
		c-3.8-3.8-8.1-6.5-13.3-7.7c-6.4-1.5-12.3-0.3-16.8,4.9c-4.2,4.9-5.1,10.4-2.9,16.6c3.2,9.1,8,17.1,14.5,24.2
		c8.5,9.3,18.2,17.3,28.6,24.2c4.8,3.2,6.6,7,4.6,12.6c-3.5,9.8-6.6,19.7-9.9,29.6c-0.6,1.9-1.5,3.7-2.8,6.8
		c-2.2-5.4-3.5-9.7-5.6-13.6c-3.6-6.9-7-14-11.6-20.1c-4.9-6.5-11.9-10.8-20-12.7c-10.3-2.4-18.1,3.1-18.8,13.6
		c-0.3,3.9,0.4,8.1,1.6,11.8c3.6,10.5,9.8,19.3,18.4,26.4c6.6,5.4,13,11,19.6,16.3c4.3,3.5,5.5,7.5,3,12.5
		c-7.4,15-14.8,30.1-22.3,45.1c-0.7-0.1-1.4-0.3-2.1-0.4c-0.8-4.1-1.3-8.3-2.5-12.3c-2.5-8.6-5-17.2-8.3-25.6
		c-2.3-6-6.5-10.9-12-14.6c-7-4.7-14.2-5-21.4-0.9c-7,4-9.7,10.7-8.5,18.1c1.1,6.4,3.1,12.9,6,18.8c6.5,13,15.3,24.4,25.9,34.3
		c2.5,2.4,4.8,5,7.8,8c-7,10.4-13.7,20.3-20.7,30.7c3.7,1.6,6.4,2.7,9.2,3.9c7.3-9.4,14.2-18.3,20.8-26.8c4.5,1.3,8.3,2.9,12.2,3.4
		c20.8,2.9,41.1,0.7,60.5-7.7c5.3-2.3,10.2-6,14.3-10.1c5.9-5.9,5.9-14.7,1.3-21.6c-4.4-6.6-10.9-8.7-18.5-8.4
		c-8,0.3-15.4,2.8-22.4,6.3c-9.1,4.5-18,9.5-27,14.2c-2.4,1.3-4.8,2.4-7.3,3.6c8-19.1,16.9-37,25.6-55.1c1.8-3.7,4.3-4.1,8-4
		c19.7,0.7,38-4.2,54.5-15c7.6-4.9,13.1-11.5,15.7-20.3c4-13.4-4-23.1-17.8-20.9c-5.4,0.9-11,3.2-15.6,6.2c-7.4,4.7-14,10.4-21,15.7
		c-2.6,2-5.3,4-7.9,6c-0.4-0.3-0.8-0.6-1.3-0.9c4.3-14.6,8.5-29.3,12.7-43.7c4.5-0.5,8.3-0.5,12-1.3c18.4-4.3,34.5-13.2,47.6-26.6
		c3.7-3.7,6.3-8.9,8.2-13.8C1033.7,492.7,1031.3,487.5,1025.9,483.6z"/>
	<path d="M925.1,301c10.1,15.3,24.2,23.4,42.4,24.8c6.9,0.5,7.9,1.8,8.9,8.6c0.7,4.9,1.2,9.8,1.9,15.5c3.3-0.3,6.1-0.6,9.1-1
		c0-4.5,0.2-8-0.2-11.5c-0.5-4.3,1-7.4,3.8-10.7c15.2-18,24-38.9,27-62.2c0.2-1.9-0.3-4.3-1.4-5.7c-0.6-0.7-3.5,0.1-5.1,0.8
		c-2.4,1-4.6,2.5-6.7,4c-10.2,7.1-17.3,16.7-22.5,27.7c-1.3,2.8-2.5,5.6-4.2,9.4c-0.9-3.1-1.5-4.8-1.9-6.6
		c-1.8-6.9-2.7-14.1-5.4-20.5c-3.5-8.2-5.2-16.6-6.1-25.4c-0.5-4.9-1.4-9.8-2.4-14.7c-1.7-8.3-5.5-15.6-11.2-21.8
		c-4.9-5.3-10.7-9.3-17.8-11.1c-7-1.7-9.3,0-9.4,7c0,2.6,0.2,5.2,0.6,7.8c2.5,17,10.3,31.2,22.8,43c2.4,2.2,5.3,4.4,6.8,7.1
		c6.4,12.1,10.4,25.1,14.1,39.2c-1.5-1-2.1-1.2-2.5-1.7c-9.5-11.2-22.1-15.6-36.2-17c-1.9-0.2-3.8-0.4-5.7-0.2
		c-5.7,0.5-7.1,3.4-4.1,8C921.2,296.2,923.4,298.4,925.1,301z"/>
	<path d="M997.9,369.4c-4.1,6.4-2.3,15,4,19.3c6.3,4.2,15,2.6,19.3-3.7c4.3-6.2,2.7-15-3.5-19.4
		C1011.4,361.1,1002.2,362.8,997.9,369.4z"/>
	<path d="M265.1,465.6c-2.3-3-4.9-5.7-7.6-8.2c-2.7-2.5-5.3-4.2-7.3-6.9c0.2,0.2,0-0.3-0.2-0.6c0-0.4,0-1-0.1-0.7
		c0.2-0.9,0.4-1.7,1-2.6c1.9-3.2,5.1-5.7,7.5-8.5c10.2-12.2,8.9-31.5-1.5-43.2c-12.6-14.2-32.4-16.2-49.6-10.3
		c-2.1-1.5-4.7-2.3-7.1-1.9c-5.5,0.8-8.1,5.5-8,10.6c0.9,38.1,0.9,76.3,4.2,114.2c0.5,6.2,7.7,8.3,12.4,6.1c0.8,1.9,2.3,3.4,4.3,4
		c9.5,2.5,18.8,5.1,28.7,4.1c7.7-0.8,15.8-4,21.5-9.2C277.5,499.9,275.7,479.7,265.1,465.6z M256.1,491.3c-0.2,0.7-0.5,1.4-0.8,2
		c-0.3,0.7,0.1-0.1-0.6,0.9c-1.2,1.6-0.8,1.3-2.3,2.5c-0.5,0.4-1,0.8-1.6,1.2c-0.1,0.1-1.9,1.1-1.6,1c-1.4,0.7-2.8,1.3-4.3,1.8
		c-1.9,0.7-0.8,0.2-0.4,0.1c-1,0.2-2,0.4-2.9,0.6c-8.1,1.2-16,0.6-24.2-0.1c-1.5-0.1-3,0.1-4.3,0.7c0.8-35-0.9-70-2.1-105
		c0.1,0,0.1,0,0.2-0.1c11.4-4.2,25.5-3.9,34.5,5.3c3.8,3.9,6.4,9.2,5.6,14.8c-0.8,5.6-4.1,9-8.1,12.7c-5.9,5.5-11.5,12.1-10.9,20.7
		c0.5,7.3,5.5,12.2,10.8,16.7c4.6,3.9,9.2,8.2,11.7,13.8c0.9,2,1.7,4.5,1.7,6.6C256.7,488.8,256.4,490.2,256.1,491.3z"/>
	<path d="M302.7,448.1c-1.1-20.1-2.2-40.2-3.3-60.3c-0.3-5.2-6.1-8.9-10.9-8.2c-5.6,0.8-8.5,5.7-8.2,10.9
		c0.8,19.9,1.6,39.8,2.4,59.7c0.8,19.9,1.2,39.8,3.7,59.5c0.6,4.5,4.7,7.9,9.2,7.8c0.2,0,0.4,0,0.5,0c1.1,0.7,2.6,1.1,4.3,0.8
		c12.4-1.7,24.8-2.9,37.3-3.4c3.6-0.1,6.1-4.2,5.6-7.4c-0.5-3.8-3.9-5.8-7.4-5.6c-10.4,0.5-20.8,1.3-31.1,2.6
		C305,485.8,303.7,467,302.7,448.1z"/>
	<path d="M409.8,426.8c4.1-18.9-8.4-44.3-30.2-43.3c-11.5,0.5-20,9.5-25.2,18.9c-5.3,9.7-7.9,21.6-9.3,32.4
		c-1.4,11.4-1.2,23.2,0.6,34.5c1.8,11,4.6,23.2,12.3,31.7c9.2,10.2,23.6,14.3,35.6,6.3c10.6-7.1,15.2-18.5,19-30.2
		c2.8-8.7-9.8-14.2-13.4-5.5c-2.8,6.8-5.6,14.7-11.9,19.2c-0.4,0.3-0.7,0.5-0.8,0.6c0.1-0.1,0-0.1-1,0.4c0,0-0.9,0.4-1,0.4
		c-0.9,0.3-1.8,0.4-2.7,0.6c-0.1,0-0.6,0-0.9,0.1c-0.6-0.1-1.9-0.3-1.7-0.2c-0.5-0.2-1-0.4-1.5-0.6c-0.4-0.2-0.7-0.2-0.8-0.2
		c-0.1-0.1-0.3-0.2-0.7-0.5c-0.8-0.5-1.5-1.1-2.2-1.7c0.1,0-0.9-1-1.1-1.2c-0.6-0.7-1.2-1.4-1.7-2.2c-0.4-0.7-1.5-2.8-2.1-4
		c-1.8-4.1-2.6-7.1-3.5-11.4c-1.1-5.3-1.9-10.7-2.3-16.1c0.8,0.7,1.9,1.2,3.1,1.4C386.7,460,405.6,446.2,409.8,426.8z M363.5,444.6
		c0.3-8.1,1.4-16.2,3.5-24c1.7-6.3,4-14,8.8-18.3c4.3-3.8,9.6-4.6,14.5-0.6c4.9,3.9,7,11,7,17c0.1,15.5-13.6,27.4-28.9,24.7
		C366.3,443.1,364.7,443.6,363.5,444.6z"/>
	<path d="M443.5,461.1c7.5,3.6,15.5,6.1,23,9.9c5,2.5,10.4,7.2,10.1,14.3c-0.3,8.3-7,13.9-14.5,14.9c-7.2,1-14.5-3-17.8-9
		c-2.1-3.9-6.4-6.1-10.7-4.2c-3.9,1.7-6.1,6.7-4.2,10.7c8.1,17.3,30.2,23.8,46.7,14.7c8.4-4.7,14.4-12.3,16.4-21.8
		c1.9-9.4-0.8-19.7-6.8-27.1c-5.9-7.3-13.5-12.2-21.9-16.2c-3.4-1.7-6.9-3.3-10.4-5c-0.7-0.4-1.5-0.8-2.2-1.2c0.2,0.1-1.7-1-1.8-1
		c-1.7-1.1-3.4-2.3-5-3.6c-2.3-1.9-3.6-3.8-5-7.1c-0.1-0.3-0.2-0.5-0.3-0.7c-0.3-1.1-0.4-2.2-0.6-3.3c-0.3-2.4-0.1-3.3,0.4-6.5
		c0.1-0.8,0.3-1.6,0.5-2.4c0.1-0.1,0.6-1.9,0.6-1.9c0.5-1.5,1.2-2.9,1.9-4.3c-0.1,0.3,1.1-1.8,1.1-1.7c0.6-0.9,1.2-1.7,1.8-2.6
		c1.4-2,2.4-3.1,4-4.5c6-5.3,15.6-6.5,23.1-3.8c7.3,2.6,12.4,8.7,13.3,15.9c1.2,10,16.7,7.9,15.6-2.2c-2.2-19.3-20.4-31.6-38.9-31.1
		c-18.8,0.5-36.7,13.4-42.5,31.4c-3.5,11-3.1,23.3,3.3,33.1C427.6,452.1,435.6,457.2,443.5,461.1z"/>
	<path d="M526,416.4c0.1-0.1,0.6-1.9,0.6-1.9c0.5-1.5,1.2-2.9,1.9-4.3c-0.1,0.3,1.1-1.8,1.1-1.7c0.6-0.9,1.2-1.7,1.8-2.6
		c1.4-2,2.4-3.1,4-4.5c6-5.3,15.6-6.5,23.1-3.8c7.3,2.6,12.4,8.7,13.3,15.9c1.2,10,16.7,7.9,15.6-2.2c-2.2-19.3-20.4-31.6-38.9-31.1
		c-18.8,0.5-36.7,13.4-42.5,31.4c-3.5,11-3.1,23.3,3.3,33.1c4.9,7.6,12.8,12.6,20.8,16.5c7.5,3.6,15.5,6.1,23,9.9
		c5,2.5,10.4,7.2,10.1,14.3c-0.3,8.3-7,13.9-14.5,14.9c-7.2,1-14.5-3-17.8-9c-2.1-3.9-6.4-6.1-10.7-4.2c-3.9,1.7-6.1,6.7-4.2,10.7
		c8.1,17.3,30.2,23.8,46.7,14.7c8.4-4.7,14.4-12.3,16.4-21.8c1.9-9.4-0.8-19.7-6.8-27.1c-5.9-7.3-13.5-12.2-21.9-16.2
		c-3.4-1.7-6.9-3.3-10.4-5c-0.7-0.4-1.5-0.8-2.2-1.2c0.2,0.1-1.7-1-1.8-1c-1.7-1.1-3.4-2.3-5-3.6c-2.3-1.9-3.6-3.8-5-7.1
		c-0.1-0.3-0.2-0.5-0.3-0.7c-0.3-1.1-0.4-2.2-0.6-3.3c-0.3-2.4-0.1-3.3,0.4-6.5C525.6,418,525.8,417.2,526,416.4z"/>
	<path d="M603.9,404.1c5.7,0,11.7-3,12.2-9.4c0.4-5.3-3.3-12.2-9.4-12.2c-5.7,0-11.7,3-12.2,9.4C594,397.2,597.8,404.1,603.9,404.1z
		"/>
	<path d="M597.4,509.7c1.4,10.5,17.9,10.8,18.9-0.1c1.5-16.1,0.8-32.2,0.4-48.3c-0.4-15.6-0.9-31.2-1.6-46.8
		c-0.2-5.1-5.6-8.8-10.2-8.8c-4.6,0-10.2,3.8-10.2,8.9c0,16.1,0.1,32.3,0.4,48.4C595.3,478.6,595.3,494.2,597.4,509.7z"/>
	<path d="M693.2,484c-0.2,9.5-0.7,18.8,0.6,28.3c1.3,9.3,14.9,9,16.3-0.1c1.5-9.4,1.1-18.8,0.8-28.3c-0.2-9.1-0.5-18.2-0.9-27.3
		c-0.7-18.2-1.8-36.3-3.1-54.5c-0.3-3.8-0.8-7.7-3.1-10.9c-2.6-3.7-7-6-11.6-5.5c-8.2,1-11.6,9.5-14.9,15.9
		c-7.7,14.9-14.4,30.3-20.3,46c-2,5.2-3.8,10.5-5.6,15.8c-0.3-4.9-0.6-9.8-0.8-14.8c-1.1-19.9-2.2-39.7-3.3-59.6
		c-0.3-5.2-6.1-8.9-10.9-8.2c-5.6,0.8-8.5,5.7-8.2,10.9c0.8,19.7,1.6,39.4,2.4,59c0.8,19.7,1.2,39.3,3.7,58.8
		c0.6,4.5,4.7,7.9,9.2,7.8c4.2-0.1,8.9-3.3,9.1-7.9c0-1.2,0.1-2.4,0.1-3.5c0.4-0.7,0.7-1.4,0.9-2.3c6.9-28.6,16.8-56.4,29.4-83
		c3.1-6.6,6.1-13.5,9.9-19.7c0.1-0.1,0.2-0.3,0.4-0.5c0.2,0.9,0.4,2,0.4,2.2c0.1,2.2,0.1,4.4,0.1,6.6c0.3,15.7,0.2,31.4,0,47.2
		C693.5,465.9,693.4,474.9,693.2,484z"/>
	<path d="M774.6,494.4c-1.4,3.1-3.2,5.4-6,7.5c-1.7,1.3-2.1,1.6-3.5,2.2c-1.1,0.5-2.5,1-3.7,0.9c-4.5-0.1-8.7,2.4-9.3,7.2
		c-0.6,4.9,2.8,8.2,7.2,9.3c11.2,2.9,22.7-2.7,29.5-11.5c7.1-9.1,9.5-21.3,10.1-32.5c1.4-24.5-0.4-49-5.2-73
		c-1-4.9-5.3-8.6-10.5-7.9c0,0-0.1,0-0.1,0c-0.2-0.1-0.4-0.1-0.5-0.1c-3.2-6.7-10.4-10.8-17.7-10.9c-9-0.1-16.3,4.9-22.2,11.3
		c-5.7,6.2-10,14-13.6,21.5c-3.8,8-6.8,16.4-8.6,25.1c-3.3,15-4.8,39.7,12.9,46.4c9.1,3.5,18.7-1.4,24.3-8.6
		c4.8-6.3,8.1-14.3,11.5-21.5c3.6-7.8,6.8-15.7,9.7-23.8c0.7,10.8,0.7,21.6,0.1,32.4C778.2,477.3,778,486.7,774.6,494.4z
		 M761.8,440.6c-2.5,6.1-5.3,12.2-8.3,18.1c-2.5,4.9-5,11.2-9.4,14.7c-3.9,3.2-6,0.2-7.2-3.1c-1.7-4.7-1.4-11.2-1-16.4
		c1-13.3,5.5-25.5,11.2-37.5c2.7-5.6,5.6-12.1,11.1-15.5c4.2-2.6,10.5-3.1,12.5,2.2c0.6,1.6,1.6,2.7,2.7,3.3
		C770.3,418.1,766.5,429.5,761.8,440.6z"/>
	<path d="M827.7,416.4c0.1-0.1,0.6-1.9,0.6-1.9c0.5-1.5,1.2-2.9,1.9-4.3c-0.1,0.3,1.1-1.8,1.1-1.7c0.6-0.9,1.2-1.7,1.8-2.6
		c1.4-2,2.4-3.1,4-4.5c6-5.3,15.6-6.5,23.1-3.8c7.3,2.6,12.4,8.7,13.3,15.9c1.2,10,16.7,7.9,15.6-2.2c-2.2-19.3-20.4-31.6-38.9-31.1
		c-18.8,0.5-36.7,13.4-42.5,31.4c-3.5,11-3.1,23.3,3.3,33.1c4.9,7.6,12.8,12.6,20.8,16.5c7.5,3.6,15.5,6.1,23,9.9
		c5,2.5,10.4,7.2,10.1,14.3c-0.3,8.3-7,13.9-14.5,14.9c-7.2,1-14.5-3-17.8-9c-2.1-3.9-6.4-6.1-10.7-4.2c-3.9,1.7-6.1,6.7-4.2,10.7
		c8.1,17.3,30.2,23.8,46.7,14.7c8.4-4.7,14.4-12.3,16.4-21.8c1.9-9.4-0.8-19.7-6.8-27.1c-5.9-7.3-13.5-12.2-21.9-16.2
		c-3.4-1.7-6.9-3.3-10.4-5c-0.7-0.4-1.5-0.8-2.2-1.2c0.2,0.1-1.7-1-1.8-1c-1.7-1.1-3.4-2.3-5-3.6c-2.3-1.9-3.6-3.8-5-7.1
		c-0.1-0.3-0.2-0.5-0.3-0.7c-0.3-1.1-0.4-2.2-0.6-3.3c-0.3-2.4-0.1-3.3,0.4-6.5C827.4,418,827.6,417.2,827.7,416.4z"/>
	<path d="M820.7,587.8c-4-1.3-8.4-0.6-13.2,1.9c-2.1,1.1-4.3,2.6-6.6,4.7c-2.3,2.1-4.6,4.5-6.8,7.2c-2.2,2.7-4.3,5.7-6.3,8.8
		c-2,3.1-3.6,6.3-4.9,9.4c-1.5,3.4-2.9,7.5-4.4,12.4c-1.5,4.9-2.7,9.6-3.8,14c-0.6,2.7-1,3.7-1.1,2.8c-0.1-0.8-0.1-4.9,0.2-12.3
		c0.2-4.2,0.5-9.1,0.8-14.8c0.3-5.7,0.7-10.4,1.1-14.1c0.6-7.5,0.8-12.6,0.6-15.1c-0.2-2.5-1.1-4.3-2.5-5.3c-1.1-0.6-2.5-1-4.2-1.1
		c-1.8-0.1-3.6,0-5.5,0.3c-1.9,0.3-3.6,0.8-5.2,1.6c-1.6,0.7-2.7,1.6-3.3,2.7c-1.3,1.9-2.2,5.8-2.8,11.8c-0.6,6-1.2,15.5-1.6,28.5
		c-0.1,8.4-0.1,16.3,0.1,23.8c-3,8.6-5.9,16.6-8.9,23.9c-3.6,8.7-6.8,15.4-9.7,20c-1.5,2.3-3.5,4.7-6,7.2c-2.5,2.5-4.2,3.8-5,3.8
		c-0.6,0-1.9-1.5-3.9-4.4c-2-2.9-3.8-6.2-5.5-9.7c-1.3-2.7-2.5-5.9-3.6-9.4c-1.2-3.6-2.1-7.2-2.8-10.8c-0.7-3.7-1.3-7.3-1.6-10.8
		c-0.3-3.6-0.4-6.9-0.2-10.1l0.3-5l5-1.9c3.6-1.3,6.8-3,9.7-5.2c2.9-2.2,5.4-4.7,7.5-7.4c5.4-7.8,8.4-15.4,8.8-23
		c0.4-7.5-1.9-13.5-6.9-17.9c-2.3-1.7-4.5-2.9-6.6-3.6c-2.1-0.7-5-1.1-8.8-1.1c-17.4,0-28.3,15.2-32.7,45.6
		c-0.6,4.4-0.9,10.1-0.8,17c0,2.6,0.1,5,0.3,7.3c-0.3,1.1-0.6,2.3-0.9,3.7c-1.4,5.5-2.9,11.2-4.6,17.3c-3.1,11.9-5.8,21.6-7.9,29.1
		c-2.1,7.4-3.9,13.2-5.5,17.3s-3.1,6.9-4.6,8.5c-1.5,1.6-3,2.5-4.7,2.7c-5.7,0.8-10.3-4.9-13.8-17.3c-0.4-1.5-0.7-2.9-0.9-4.2
		c-0.2-1.4-0.4-3-0.6-4.9c-0.2-1.9-0.3-4.1-0.3-6.8c0-2.6,0-6,0-10.2c0-2.7,0-6,0-9.7s0-7.8,0.2-11.9c0.1-4.2,0.2-8.5,0.3-12.9
		c0.1-4.4,0.2-8.5,0.2-12.3c0.2-7.5,0.4-13.7,0.5-18.4c0.1-4.7,0-8.5-0.2-11.5c-0.2-2.9-0.6-5.3-1.3-7.1c-0.6-1.8-1.4-3.5-2.2-5.2
		c-4.2-7.3-10.8-9-19.8-5c-6.5,2.9-12.5,8.1-17.9,15.4c-5.5,7.3-11,17.5-16.7,30.5c-2.9,6.5-5.4,12.6-7.4,18.2
		c-2,5.7-3.7,11.5-5.2,17.6l-1.9,8.2l-1.3-6.3c-0.8-5.4-1.5-11.1-1.9-17c-0.4-5.9-0.6-11.6-0.6-17.3v-10.4l6-4.1
		c8.8-5.4,16.6-12.8,23.3-22.2c6.7-9.3,11.5-19.3,14.5-30c0.8-2.7,1.4-5.2,1.7-7.5c0.3-2.3,0.5-5.6,0.5-9.7c0-2.5-0.1-4.5-0.2-6
		c-0.1-1.5-0.2-2.7-0.3-3.8c-0.1-1-0.4-2-0.8-2.8c-0.4-0.8-0.9-2-1.6-3.5c-1.7-3.6-3.6-6.2-5.8-8c-2.2-1.8-4.9-3.2-8-4.2
		c-5-1.7-10.2-1.6-15.6,0.3c-5.3,1.9-10.1,5.2-14.3,10.1c-17,18.2-24.3,52.6-22,103.1c0.2,3.5,0.4,7,0.6,10.7c0,0,0,0,0,0
		c-2.1,16.8-4.8,31.1-8,42.9c-3.3,11.8-7,20.2-11.2,25c-1.5,2.1-2.6,2.7-3.5,1.9c-1.1-0.8-2.2-3-3.5-6.4c-1.3-3.5-2.4-7.8-3.5-13
		c-0.4-2.1-0.8-4-1.1-5.8c-0.3-1.8-0.5-4.5-0.6-8c-0.1-3.6-0.2-8.6-0.2-15.1c0-6.5,0-15.5,0-27c0-6.5,0-12.9,0-19.3
		c0-6.4,0-12.3,0.2-17.6c0.1-5.3,0.2-10,0.3-13.8c0.1-3.9,0.2-6.7,0.2-8.3l0.9-11.6h5.7c11.7,0,19.9-2.6,24.5-7.9
		c2.7-3.4,2.8-6.6,0.3-9.7c-1.1-1.5-2.5-2.3-4.4-2.4c-1.9-0.1-3.4,0.5-4.4,1.7c-1.1,1.1-1.5,2.9-1.3,5.7l0.6,3.8l-4.4,0.9
		c-1.5,0.4-3.1,0.7-5,0.8c-1.9,0.1-3.6,0.2-5.2,0.2c-1.6,0-2.9-0.1-4.1-0.3c-1.2-0.2-1.7-0.5-1.7-0.9c0-0.2,0-1.4,0.2-3.5
		c0.1-2.1,0.4-4.5,0.8-7.2c0.6-8,0.5-13.4-0.5-16.4c-0.9-2.9-3-4.4-6.1-4.4c-2.3,0-4.8,0.5-7.4,1.6c-2.6,1.1-4.5,2.3-5.5,3.8
		c-1.1,1.3-1.7,2.5-1.9,3.8c-0.2,1.3-0.3,4.3-0.3,9.1c0,2.7-0.1,5.1-0.2,7.1c-0.1,2-0.3,3-0.5,3c-0.2,0-1.4-0.3-3.6-0.8
		c-2.2-0.5-4.9-1.3-8-2.4c-17.2-5-27.6-4.2-31.1,2.5c-1,1.9-1.4,3.7-1.1,5.5c0.3,1.8,0.9,3.1,1.9,4.1c0.9,0.9,2.2,1.4,3.8,1.3
		c1.6-0.1,3.1-0.9,4.6-2.4c1.1-1,1.7-1.9,2-2.7c0.3-0.7,0.4-1.6,0.2-2.7c-0.4-1-0.5-1.7-0.2-2c0.3-0.3,1.3-0.5,3-0.5
		c0.8,0,2.8,0.4,6,1.1c3.1,0.7,6.5,1.6,10.1,2.7l12.6,3.5l-0.6,11.9c-0.8,18.2-1.4,33.6-1.7,46.2c-0.1,5.5-0.2,10.5-0.2,15.3
		c-0.4,1.5-0.8,3.1-1.2,4.9c-3.4,15.3-6.7,28.5-10.1,39.6c-3.4,11.1-6.5,19.7-9.4,25.8l-2.2,4.1l-0.9-3.5c-0.6-2.5-1.2-4.8-1.6-6.8
		c-0.4-2-0.7-4.3-0.9-7.1c-0.2-2.7-0.4-6-0.5-9.9c-0.1-3.9-0.2-8.9-0.2-14.9c0-6.7,0-13.4,0-20.1c0-6.7,0.1-11.3,0.3-13.8
		c0.2-4.2,0.3-6.9,0.2-8c-0.1-1.1-0.6-2.1-1.4-3c-2.5-2.9-6.8-3.8-12.9-2.5c-4.2,0.8-7,2-8.5,3.5c-1.5,1.5-2.9,4.5-4.4,9.1
		c-1.7,5.2-3.8,11.1-6.4,17.6c-2.6,6.5-5.2,12.2-7.7,17c-1.3,2.1-2.6,4.2-3.9,6.3c-1.4,2.1-2.7,4-3.9,5.7c-1.3,1.7-2.4,3-3.3,3.9
		c-0.9,0.9-1.5,1.2-1.7,0.8c-0.2-0.2-0.5-0.8-0.9-1.9c-0.4-1-0.8-2.2-1.3-3.5c-1.5-4.4-2.5-9.8-3.1-16.2c-0.6-6.4-0.9-13.1-0.8-20.1
		c0.1-7,0.6-14,1.4-20.9c0.8-6.9,2-13,3.5-18.2c1.9-6.1,4.1-11.2,6.6-15.4c2.5-4.2,4.9-6.3,7.2-6.3c2.5,0,5.2,1.4,8.2,4.2
		c2.9,2.8,5.6,6.4,7.9,10.8c1.5,2.9,2.7,4.8,3.8,5.7c1,0.8,2.2,0.7,3.5-0.3c0.8-0.6,1.2-1.6,0.9-2.8c-0.2-1.3-1.1-3.4-2.5-6.3
		c-1.7-3.6-4-7-7.1-10.2c-3-3.2-6.2-5.7-9.6-7.4c-2.3-1-4.1-1.7-5.5-1.9c-1.4-0.2-3.5-0.3-6.4-0.3c-4.8,0-8.7,0.7-11.6,2.2
		c-2.9,1.5-6.5,4.4-10.7,8.8c-10.1,10.7-16.5,25.2-19.2,43.4c-0.6,4.3-1,8.5-1.1,12.7c-1.2,3.5-2.4,6.8-3.8,9.8
		c-2.8,6.6-6.3,12.6-10.5,18.1l-4.4,6v-10.4c0-2.5-0.1-5.7-0.3-9.4c-0.2-3.8-0.4-7.7-0.6-11.6c-0.2-4-0.5-7.8-0.8-11.5
		c-0.3-3.7-0.6-6.7-0.8-9c-0.6-6.5-3.6-9.7-8.8-9.7c-2.3,0-5,0.6-8,1.9c-3.1,1.3-5.1,2.5-6.1,3.8c-0.4,0.4-1.2,2.2-2.4,5.3
		c-1.2,3.1-2.5,6.8-3.9,11c-8,23.7-16.1,39.4-24.3,47.2l-3.5,3.5l-2.2-4.4c-2.9-5.4-5.1-11.8-6.4-19c-1.4-7.2-2.1-14.6-2.2-22.2
		c-0.1-7.5,0.5-14.9,1.7-22c1.3-7.1,3.2-13.2,6-18.2c1.7-3.1,4-6.3,6.9-9.4c2.9-3.1,4.9-4.7,6-4.7c2.1,0,4.2,1.5,6.3,4.4
		c2.1,2.9,4,7,5.7,12.3c1.1,3.1,2,5.2,2.8,6.3c0.8,1.1,1.9,1.4,3.2,0.9c1.7-0.8,1.9-3.6,0.8-8.2c-1.2-4.6-3.2-9.2-6.2-13.8
		c-3.2-5-7.6-8.7-13.3-11c-5.7-2.3-11.2-2.6-16.7-0.9c-4.8,1.5-9.3,5-13.5,10.7c-4.2,5.7-7.9,13-11,22c-2.5,7.8-4.1,15.9-4.7,24.4
		c-0.6,8.5-0.4,16.6,0.6,24.4c1.1,7.8,2.9,14.7,5.5,20.8c2.6,6.1,5.9,10.6,9.9,13.5c1,0.6,2.3,1.3,3.8,1.9c1.5,0.6,2.8,1.2,4.1,1.6
		c15.5,3.1,29.8-12.1,42.9-45.6l3.2-8.2l0.6,4.7c0.2,2.1,0.5,6.7,1,13.7c0.5,7,1.2,15.9,2.2,26.6c0,1.3-0.1,2.3-0.2,3.1
		c-0.1,0.8-0.6,1.7-1.6,2.5c-0.9,0.8-2.5,1.8-4.7,3c-2.2,1.2-5.3,2.8-9.3,4.9c-12.2,6.1-21.5,11.6-28.1,16.5
		c-6.6,4.9-11.9,10.3-15.9,16.2c-2.9,4.4-4.9,8.2-5.8,11.3c-0.9,3.1-1.4,7.2-1.4,12.3c0.4,13.6,5.3,22.7,14.5,27.4
		c2.1,1,3.9,1.6,5.4,1.7c1.5,0.1,4.4,0,8.8-0.2c2.3,0,4.2-0.1,5.5-0.2c1.4-0.1,2.6-0.3,3.8-0.6c1.2-0.3,2.3-0.7,3.5-1.1
		c1.2-0.4,2.7-1.2,4.6-2.2c4.8-2.3,9-4.9,12.5-7.7c3.5-2.8,6.7-6,9.6-9.6c2.5-3.4,5-7.5,7.6-12.6c2.5-5,4.5-9.9,6-14.5
		c0.8-2.7,1.7-6.2,2.7-10.4c0.9-4.2,1.8-8.5,2.5-13c0.7-4.5,1.3-8.9,1.7-13.2c0.4-4.3,0.6-8,0.6-11.2c0-1.9,0.2-3.3,0.6-4.2
		c0.4-0.9,1.8-2.7,4.1-5.2c3.1-3.4,6.4-7.6,9.9-12.9c2-3.1,3.7-6,5.2-8.7c0.5,3.7,1.2,7.2,2.1,10.6c1.6,5.9,3.6,11,6.1,15.4
		c2.5,4.4,5.6,7.7,9.1,9.7c2.3,1.7,5.2,2.6,8.8,2.7c3.6,0.1,6.8-0.6,9.7-2c8-4,15.9-14.7,23.9-32.1l3.1-6.9v11.3
		c0,14.5,1.5,26.7,4.4,36.8c2.9,10.1,7,16.7,12.3,19.8c4.6,2.9,9.2,2.6,13.8-0.9c4.8-3.6,9.8-12.8,15.1-27.7
		c3.2-9,6.2-19.5,9.1-31.4c0.3,4.7,0.6,8.9,1.1,12.5c0.7,6.1,1.8,11.8,3.3,17.3c1.7,6.5,4.1,12.2,7.2,17.1
		c3.1,4.9,6.6,8.3,10.4,10.2c5.9,3.1,11.4,1.6,16.7-4.6c5.2-6.2,9.6-16.5,13.2-31c1-3.8,2-8.6,3.1-14.4c0.3,2.4,0.5,4.7,0.8,6.9
		c0.5,4.4,1,8.3,1.4,11.6c0.6,3.1,1.1,5,1.4,5.7s1.3,1.2,3,1.6c2.3,0.6,5.1,0.9,8.5,0.8c3.4-0.1,5.9-0.7,7.5-1.7l3.1-1.3l2.8-13.5
		c0.6-3.8,1.5-7.9,2.5-12.4c1-4.5,2-8,2.8-10.5c1.7-5.9,3.8-11.9,6.3-18.1c2.5-6.2,5.2-12.1,8-17.8c2.8-5.7,5.7-10.7,8.5-15.1
		c2.8-4.4,5.4-7.8,7.7-10.1c1.7-1.5,2.7-2.3,3-2.5c0.3-0.2,0.8,0.1,1.4,0.9c0.4,0.6,0.8,1.7,1.1,3.3c0.3,1.6,0.5,4.2,0.6,7.9
		c0.1,3.7,0.2,8.8,0.2,15.3c0,6.5,0,15.2,0,26.1c0,11.7,0,20.9,0,27.5c0,6.6,0.2,11.8,0.5,15.6s0.9,6.8,1.7,9.1c0.8,2.3,2,5,3.5,8.2
		c0.8,1.9,2.1,3.9,3.8,6.1c1.7,2.2,3.4,4.2,5,6.1c1.7,1.9,3.4,3.5,5.2,4.9c1.8,1.4,3.3,2.3,4.6,2.7c2.3,0.8,5.3,1.2,9,1.1
		c3.7-0.1,6.3-0.6,8-1.4c2.7-1.3,5.1-2.8,7.1-4.7c2-1.9,3.9-5,5.8-9.3c1.9-4.3,3.9-10.3,6.1-17.9c2.2-7.6,5-17.8,8.3-30.3
		c0.6-2.1,1.1-4.1,1.6-6c0.6,2.6,1.4,5.3,2.3,8c1.8,5.3,3.5,9.5,5.2,12.4c1.7,2.9,4.3,6.1,8,9.4c3.7,3.4,7,5.8,9.9,7.2
		c6.7,3.4,12.8,3.7,18.2,0.9c8.6-4.6,17.3-18.7,26.1-42.2c0.7,9.2,1.7,18.1,3.1,26.5c1,6.1,1.9,10.3,2.5,12.6
		c0.6,2.3,1.5,3.8,2.5,4.4c1.9,1.5,5.3,0.9,10.4-1.6c1.7-0.8,3-1.6,3.9-2.4c0.9-0.7,1.7-1.9,2.2-3.6c0.5-1.7,0.8-4.1,0.9-7.2
		c0.1-3.1,0.2-7.5,0.2-13.2c0.2-16.1,1.4-29.6,3.5-40.2c2.1-10.7,5.2-20.3,9.4-28.9c2.3-4.8,5.2-9.4,8.8-13.8
		c3.6-4.4,6.8-7.4,9.7-9.1c1-0.4,1.6-0.5,1.7-0.3c0.1,0.2-0.1,1.1-0.5,2.5c-0.6,3.6,0.2,7,2.5,10.2c2.3,3.3,5,4.9,8.2,4.9
		c1.7,0,3.2-0.5,4.6-1.6c1.4-1,2.5-2.4,3.3-4.1c0.8-1.7,1.3-3.5,1.4-5.5c0.1-2-0.3-3.9-1.1-5.8C827.6,592,824.6,589.1,820.7,587.8z
		 M704.9,637.8c1.7-11.1,3.7-20.1,6.1-26.9c2.4-6.8,5.1-11.1,8-12.7c1.7-1,3.5-0.6,5.3,1.3c1.9,1.9,3.2,4.5,4.1,7.9
		c0.6,2.3,0.6,5,0,8.2s-1.8,6.2-3.5,9.3c-1.7,3-3.7,5.9-6,8.5c-2.3,2.6-4.7,4.6-7.2,5.8c-1.1,0.4-2,0.9-3,1.4
		c-0.9,0.5-1.7,0.9-2.4,1.1c-1.1,0.2-1.6,0.2-1.7-0.2C704.7,641.1,704.7,639.9,704.9,637.8z M326.7,725.2c-0.6,8.6-2,16.8-4.1,24.5
		c-2.1,7.8-4.7,14.7-7.9,20.9c-3.1,6.2-6.7,11.4-10.7,15.7c-4,4.3-8.3,7.3-12.9,9c-2.3,0.8-4.8,1.3-7.5,1.3c-2.7,0-4.9-0.4-6.6-1.3
		c-6.9-3.6-10.4-10.8-10.4-21.7c0-3.6,0.2-6.1,0.5-7.5c0.3-1.5,1.2-3.7,2.7-6.6c1.7-3.4,3.6-6.4,5.8-9.3c2.2-2.8,5-5.6,8.3-8.2
		c3.4-2.6,7.3-5.3,11.9-8.2c4.6-2.8,10.2-5.9,16.7-9.3c3.6-1.7,6.7-3.2,9.4-4.6c2.7-1.4,4.3-2.1,4.7-2.4c0.2-0.2,0.4,0.4,0.5,1.9
		C327.3,721.1,327.1,722.9,326.7,725.2z M560.9,624.3c0.2-4.4,0.6-9.6,1.1-15.6c0.5-6,1.2-12,1.9-18.1c0.7-6.1,1.4-10.8,2-14.1
		c1.7-6.9,3.8-13,6.3-18.4c2.5-5.3,5.2-9.3,8.2-11.8c2.9-2.3,6-2.9,9.3-1.9c3.2,1.1,5.9,3.6,8,7.5c1,2.1,1.7,3.9,1.9,5.3
		c0.2,1.5,0.3,4.4,0.3,8.8c0,4.2-0.2,7.4-0.5,9.6c-0.3,2.2-1,4.8-2,7.7c-2.9,8.8-7,17-12.3,24.7c-5.2,7.7-11.2,13.9-17.9,18.7
		c-1.5,1.1-2.8,2-3.9,2.8c-1.2,0.8-1.8,1.3-2,1.3C560.8,630.9,560.7,628.7,560.9,624.3z"/>
	<path d="M795.8,762.2c-13.2,0-13.2,20.4,0,20.4C808.9,782.7,808.9,762.2,795.8,762.2z"/>
	<path d="M904.3,755.9c-13.2,0-13.2,20.4,0,20.4C917.5,776.3,917.5,755.9,904.3,755.9z"/>
	<path d="M846.9,821c-13.2,0-13.2,20.4,0,20.4C860,841.4,860,821,846.9,821z"/>
</g>
</svg>
