<?xml version="1.0" encoding="utf-8"?>
<!-- Generator: Adobe Illustrator 22.0.0, SVG Export Plug-In . SVG Version: 6.00 Build 0)  -->
<svg version="1.1" id="Layer_1" xmlns="http://www.w3.org/2000/svg" xmlns:xlink="http://www.w3.org/1999/xlink" x="0px" y="0px"
	 viewBox="0 0 1080 1080" style="enable-background:new 0 0 1080 1080;" xml:space="preserve">
<g>
	<path d="M622.5,906.9c27.7-45.6,25.8-115.5-35.2-131.7c-55.7-14.8-100,38.2-97.8,90.8c0.5,11,3.1,21.4,7.3,31.1
		c-7.5,20.8-17.7,43.1-21.7,49.7c-13.8,22.5-34.9,56.1-63.1,55c-32.3-1.3-42.4-32.7-44.5-64.6c1.7,0.2,3.5,0.7,5.2,0.7
		c25.5,2.2,44.1-15.5,56.3-36c19.2-32.3,51.5-134.9-15.7-134.7c-59.6,0.2-83.6,83.4-86.2,130.3c-0.8,12.6-1.2,26.1-0.4,39.6
		c-10,38.4-23.9,81.2-39.8,82c-9.2,0.4-12.4-3.9-17-11.4c-7.4-12.2-12.2-26.2-15.9-40c-7.6-30.6-9.8-63.1-10.3-94.3
		c-0.2-15.3,0-42.4,0.9-57.6c64.8-84.9,101.3-220.7,73.8-251.1c-8.7-9.6-18.8-12.4-30.6-8.3c-13.1,4.4-30.1,21.4-51.7,82.3
		c-26,73.4-35.2,158.1-33.6,235.6c1.1,49.1,6.3,179.5,83.8,168.3c21.2-3,34.4-33.1,45.2-73c1.6,6.2,3.7,12.3,6.3,18
		c12.9,27.5,40.4,40.6,69.9,38.4c31.2-2.2,57.9-31,75.5-68.3c7.4-15.3,14.4-32.2,20.1-48.2c5.2,8.6,11.7,16.5,19,23.7
		c9.4,9.2,20.1,17,31.2,24c11.8,7.4,26.2,14.4,32.1,27.7c9.4,21-9.6,33.4-24.9,32.3c-18.3-1.5-24.2-21.4-26-36.9
		c-1.5-15.3-43-13.5-41.5,0.9c4.4,40.4,34.1,59.4,73.1,57.4c15.9-0.9,33.2-4.6,46.5-14c21.8-15.3,21-41,3.1-59.8
		c-18.6-19.6-45.6-28.4-63.8-49.3c-19.6-22.7-26.4-53.3-16.4-81.9c4.4-12.2,11.6-25.1,21.6-33.4c7.6-6.1,11.6-6.8,20.5-2.2
		c38.4,19.9,27.9,74.2,19.2,105.7C595,911.7,619.5,912.2,622.5,906.9z M263.8,684.7c5.7-29.5,26.4-107.9,44.1-113.3
		c26.9,38.9-44.5,194.1-59.2,207.6C252.5,747.3,257.7,715.9,263.8,684.7z M369.7,877.7c6.1-62.2,35.6-100.4,48.7-92.8
		c10.5,5.9,10.7,26.4,10.5,36.5c-0.4,26.2-8.5,52.4-21.4,75.3c-6.8,11.8-20.1,34.7-37.6,26c-1.1-0.4-2-1.1-2.8-1.7
		C367.1,903.2,368.8,887.1,369.7,877.7z"/>
	<path d="M778.6,906.9c27.7-45.6,25.8-115.5-35.2-131.7c-55.7-14.8-100,38.2-97.8,90.8c1.1,26.2,14.4,49.1,32.8,67.2
		c9.4,9.2,20.1,17,31.2,24c11.8,7.4,26.2,14.4,32.1,27.7c9.4,21-9.6,33.4-24.9,32.3c-18.3-1.5-24.2-21.4-26-36.9
		c-1.5-15.3-43-13.5-41.5,0.9c4.4,40.4,34.1,59.4,73.1,57.4c15.9-0.9,33.2-4.6,46.5-14c21.8-15.3,21-41,3.1-59.8
		c-18.6-19.6-45.6-28.4-63.8-49.3c-19.6-22.7-26.4-53.3-16.4-81.9c4.4-12.2,11.6-25.1,21.6-33.4c7.6-6.1,11.6-6.8,20.5-2.2
		c38.4,19.9,27.9,74.2,19.2,105.7C751.1,911.7,775.6,912.2,778.6,906.9z"/>
	<path d="M238.6,305.3c0.4-12.9,0.6-25.8,0.7-38.6c47.9-3.8,94.2-32.7,110.6-79.3c16.4-46.9-2.6-98.9-47.5-121.2
		c-26.7-13.3-57.2-13.8-86.3-13.3c-6.2,0.1-11,5.4-12.6,11.3c-4,4-5.9,9.9-5.8,16.1c1.8,75.1,1.8,150.4,8.4,225.3
		C207.6,323.6,238,324,238.6,305.3z M318,123c15.4,32.6,2.2,70.2-25.6,91.7c-15.5,12-34.1,18.2-53.3,20.4
		c-0.6-50.5-2.9-101-4.6-151.5C267.1,84.4,302.9,91,318,123z"/>
	<path d="M403.8,281.8c8.6-1.2,13-8.8,12.7-16.8c-0.6-14.6-1.4-29.1-2.2-43.7c0.5,0.2,0.9,0.4,1.4,0.6c9.4,2.6,18.8,5.2,28.3,7.8
		c9.3,2.6,19.2,4.5,28,8.4c17.1,7.6,25.5-22.6,6.6-24.8c-9-1-17.8-4.2-26.5-6.5c-2.9-0.8-5.8-1.6-8.8-2.4
		c27.2-17.2,51.4-39.7,59.6-72.1c8.9-35.2-9.1-73.1-41.9-88.6c-18.5-8.8-39.7-9.2-59-2.7c-0.9,0.3-1.7,0.7-2.4,1.3
		c-1.4-0.6-2.9-1.1-4.6-1.3c-7.7-1-17.3,5-17.5,13.5c-2,71.4-2.2,144.1,9.5,214.7C388.3,277.1,395.7,282.9,403.8,281.8z M408.6,63.2
		c1-0.1,1.9-0.3,2.9-0.6c32.9-10.7,66.6,13.3,69.4,47.1c3.1,37.6-33.1,63.9-61.6,80.5c-2.8,1.6-5,3.9-6.3,6.6
		C410.5,152.3,408.2,107.9,408.6,63.2z"/>
	<path d="M523.8,158.8c6.5,4.9,17.2,4,22-3.1c10.7-15.8,24.4-28.8,40.5-39c12.5-7.9,33.5-18.1,45.9-5.9c4,3.9,6.8,12.3,7.8,17.4
		c0.9,4.6,1.2,9.2,1.5,13.9c0,0.7,0.2,5.5,0.2,5.1c0,2.2-0.1,4.5-0.1,6.7c-0.3,11-0.4,22-0.4,33c-15.4-7-32.6-9.9-49.3-7.5
		c-26.3,3.7-50,20.1-62.1,43.8c-12.3,24.1-9.9,55.1,6.2,76.8c14.8,19.9,42.1,31.3,66.6,26.4c16.3-3.3,29-11.8,39.5-23
		c0.2,2.6,0.5,5.2,0.8,7.7c2.9,23,38.6,23.2,41.1-0.2c3-28,0.9-56.9,0.3-85.1c-0.5-26.5-0.6-53.1-2.3-79.6
		c-1.7-25.3-10.3-47.8-31.9-62.4c-22-14.8-47.8-12.2-70.4,0.1c-23.5,12.8-44.2,30.7-59,53C516,143.9,516.7,153.5,523.8,158.8z
		 M641,225.9c0,8.3-0.2,16.8-0.3,25.2c-8.9,15.7-19.1,33.5-36.1,41.2c-13.4,6.1-29.5,2.9-40.3-7.8c-11.1-11-13.8-29.2-8.1-43.9
		c5.8-15,19.9-26.1,34.9-29.6c17.9-4.2,35.5,1.1,49.8,11.6C641,223.7,641,224.8,641,225.9z"/>
	<path d="M722,227.6c18.5,21.6,48,22.5,70.4,6c20.5-15.2,33.2-41.1,43-64c1.6-3.8,3.2-7.7,4.8-11.5c-0.9,20.1-2.9,40.1-6,60.1
		c-2.8,17.7-5.6,37.9-19.4,48.2c-0.3,0.2-1.7,1.2-2.6,1.8c-1.6,1-5.2,3.2-5.6,3.4c-3.4,1.9-7,3.4-10.7,4.5c0.1-0.1-4,0.9-4.6,1
		c-2.3,0.4-4.5,0.7-6.9,1c-2,0.2-3.9,0.4-5.9,0.5c-1.1,0.1-2.2,0.2-3.3,0.3c-0.3,0-0.8,0-1.4,0c-9.2-0.4-17.8,4.2-20.1,13.7
		c-2,8.2,1.8,19.1,10.7,21.8c13.9,4.3,26.6,4.8,40.6,0.7c10.3-3,20.7-7.9,28.7-15.1c18.2-16.5,26.1-40.9,30.4-64.4
		c9.7-52.6,10.9-107.1,5.5-160.3c-1.6-15.7-25-18.4-30.5-3.8c-8.5,22.3-17.1,44.6-25.7,66.9c-7.8,20-16,40.2-28.9,57.4
		c-8.6,11.5-24.5,24.5-36.4,12.4c-5.3-5.4-7.9-13.9-9.4-22.1c-2.1-11.8-3.1-23.8-3.9-35.7c-1.8-26.7-1-53.5,2.3-80.1
		c2.6-20.5-29.5-24.6-31.7-4.1c-3.1,28.6-4.1,57.4-2.4,86C704.2,177.1,704.9,207.7,722,227.6z"/>
	<path d="M216.2,582.3c5.2,3,14.5,2.4,19.1-1.6c8.6-7.8,7-10.3,5.4-21.3c-0.6-3.6-1-7.2-1.2-10.7c6.8-34.8,13.9-69.5,23.9-103.3
		c5.8-19.3,12.5-38.4,20.3-56.9c3.6-8.4,7.2-16.9,11.5-24.7c1.2-2.2,2.8-5,4.6-7.8c-3.4,29.3-9,79.4-9.4,97.9
		c-0.8,39,4,74.8,42,75.6c3.2,0,7.2-0.8,9.8-2.8c2-1,3.6-2.4,3.8-4c6.8-38.8,10.4-77.6,19.9-116c4.4-17.1,9-34.2,14.9-51
		c3.6-10.1,7.2-18.9,12.7-27.5c4.4,39.4-28.5,198.5-14.4,244.1c7,25.9,22.9,45.2,51.9,41.2c2-0.4,10.4-4.2,6.6-6.4
		c-57.7-35.2-3.9-202.3-8.5-287.3c-2.4-14.9-30.3-34-41.8-23.5c-15.5,13.9-25.1,45.6-29.5,59.3c-13.1,41.4-25.3,86.2-29.3,130.4
		c-1.2-5.4-2-11.1-2.6-16.7c-2-23.7,1.4-47.4,5.2-70.9c1.8-11.9,3.8-23.7,5.2-35.6c1.2-10,4-16.1,0.8-25.9
		c-5.2-16.3-29.7-25.3-42.6-16.7c-8.6,5.8-32.8,63.5-49.2,117.2c-2.4,7.6-4.4,14.9-6.4,22.5c1-13.3,2.4-26.7,4.2-40.2
		c2-15.7,7.6-39,8-51.7c0.4-11.7-29.9-9.4-34.8,0.2c-8.6,13.7-15.1,86.8-16.3,107.1c-1.2,19.1-1.4,38.4-0.2,57.5
		c0.6,10.2,1.8,20.1,3.2,30.1C204.8,574.9,205.4,576.3,216.2,582.3z"/>
	<path d="M616.2,426.3c-1.6,4-3,7.8-4.4,11.7c0.2-10.5,0.6-21.3,1-31.6c1-18.3,0.8-33.6,4.8-54.1c2.6-12.7-26.1-12.3-31.6-3
		c-6.4,10.9-8.8,33.8-9.8,51.5c-1.2,19.5-1.6,39.4-1.6,58.9c0,0.9,0,1.9,0,2.8c-6.3,4.2-13.7,7.5-21.3,9.9c0.2-1.8,0.4-3.6,0.4-5.2
		c4.4-49.2-4.8-82.6-30.9-105.5c-16.3-14.3-41.8-15.7-60.7,5.8c-19.5,22.3-29.3,55.5-21.9,83c-0.8,2.2-1.4,5-1.4,8.2
		c-0.6,25.3,3,124.2,60.7,120.4c29.1-1.8,45.4-48.8,51.9-92.7c8.9-3.5,16.7-7.4,23.2-12c0.5,34.5,2.1,68.8,3.8,103.3
		c0.6,13.3,36,18.3,36.4,4.8c0-1.8,0.2-3.8,0.2-5.6h0.2c0-1-0.2-2.4-0.2-3.6c0.2-27.7-1.2-58.3,3.6-84.8
		c6.6-65.3,33.4-117.8,54.7-110.1c11.3,4.2,3.2,67.3-10.9,67.7c-7.2,0.2-9.2-7.8-6-12.5c3.8-5.6-12.1-5.4-14.3-4
		c-4.6,6-3.8,19.1,5.2,25.1c13.5,9.2,25.7,4.2,37.8-8c22.9-22.5,26.7-94.3-5.8-96.1C647.3,348.8,629.8,391.4,616.2,426.3z
		 M498.2,556.6c-15.7,1-22.1-36.2-24.7-66.3c13.3,6,30.1,7,47.4,4.4C517.3,523.6,510.2,555.8,498.2,556.6z M523.9,459.1
		c0,4.8-0.4,11.3-1.2,18.7c-21.7,0.8-41.2-4.6-50-14.1c-0.4-0.4-0.6-0.8-1-1.2c0-3.6,0-6.4,0-8c-0.2-4.4-3-8.2-7.2-10.7
		c-2.2-17.1,2.6-37.2,5.2-45.8c9.6-30.5,28.7-49.2,44.2-17.7C525.3,403,524.7,434.2,523.9,459.1z"/>
	<path d="M872.4,427.3c-3.8,20.9-21.5,60.7-26.9,69.7c-12.5,20.5-31.8,51.2-57.5,50.2c-29.5-1.2-38.6-29.9-40.6-58.9
		c1.6,0.2,3.2,0.6,4.8,0.6c23.3,2,40.2-14.1,51.3-32.8c17.5-29.5,47-123-14.3-122.8c-54.3,0.2-76.2,76-78.6,118.8
		c-1.6,26.5-1.6,57.7,9.8,82.2c11.7,25.1,36.8,37,63.7,35c28.5-2,52.7-28.3,68.9-62.3c12.7-26.5,24.3-58.1,29.3-79.4
		C884,419.7,873.8,419.1,872.4,427.3z M749.4,433.8c5.6-56.7,32.4-91.6,44.4-84.6c9.6,5.4,9.8,24.1,9.6,33.2
		c-0.4,23.9-7.8,47.8-19.5,68.7c-6.2,10.7-18.3,31.6-34.2,23.7c-1-0.4-1.8-1-2.6-1.6C747,457.1,748.6,442.4,749.4,433.8z"/>
	<path d="M361.5,601.2c-6-0.8-11.3,3.6-12.2,9.4c-5.1,32.7-5.3,66.3-0.2,99c2.5,15.9,4.6,34.9,20.7,43c15.9,8,32.3-4.8,38.4-19.1
		c6.5-15,11.4-30.8,17.1-46.1c1.1-2.8,2.1-5.6,3.2-8.4c0.1,0.6,0.3,1.1,0.3,1.4c0.9,4.2,1.7,8.5,2.6,12.7c1.6,8,3.2,16,4.8,23.9
		c1.4,7,2.9,14.3,8.1,19.6c5.4,5.6,14,8.3,21.4,5c6.1-2.8,9.7-8.7,11.5-14.9c5-17.6,7.6-36.3,9.4-54.4c1.9-18.8,2.8-37.9,2.4-56.8
		c-0.1-6-7.1-10.3-12.6-9.5c-6.3,0.9-10,6.6-9.5,12.6c1.2,14.8,1.9,29.5,1.3,44.4c-0.6,15-2.1,29.9-4.4,44.7
		c-0.5,3.5-1.1,7-1.8,10.5c-0.5,2.6-0.7,5.2-2.1,7.6c-0.5,0.9-0.5,1.1-1.5,1c-1.8,0-3.2-1.9-3.9-3.3c-3-5.6-3.4-13.1-4.7-19.2
		c-1.6-7.5-3.1-15-4.7-22.4c-0.7-3.5-1.5-7-2.2-10.5c-0.7-3.5-1.2-7.4-3.4-10.4c-4.5-6.2-13-6.7-18.5-1.6
		c-5.3,4.8-7.2,12.4-9.8,18.8c-2.9,7.3-5.9,14.5-8.9,21.7c-2.9,7.1-5.8,14.2-8.8,21.3c-1.8,4.3-4.2,9.7-8.6,11.7
		c-0.8,0.4-1.8,0.8-3,0.7c0.6,0-0.6-0.6-1.2-0.8c-0.2-0.1-0.4-0.1-0.5-0.2c-0.4-0.3-0.8-0.6-1.2-0.9c0.8,0.6-1.4-1.9-1.1-1.3
		c-0.7-1.1-1.2-2.4-1.7-3.6c-0.2-0.5-1-3.3-0.9-2.7c-0.9-3.7-1.6-7.4-2.3-11.1c-6-32.9-6.8-66.5-2.4-99.7
		C371.7,607.6,367.3,601.9,361.5,601.2z"/>
	<path d="M572.1,627.8c-7-6-15.9-9-24.8-8.1c-0.2-0.3-0.4-0.5-0.6-0.8c-3.1-4-9.5-4.9-13.4-1.6c-17.4,14.6-24,37.8-25.6,59.7
		c-1.6,20.9-2.3,50.4,17.7,63.6c9.1,6.1,21.1,6.8,31,2.1c9.5-4.4,16.6-12.5,21.8-21.4c11.1-18.8,15.3-42.1,10.5-63.5
		C586.2,646.5,581.1,635.6,572.1,627.8z M569.4,709.4c-5.3,10.7-19.4,28.2-33.1,19.5c-5.5-3.5-8.1-11.2-9.3-17.2
		c-1.8-9.3-1.4-18.9-0.8-28.4c0.7-10.1,2-20.1,5.4-29.5c2.9-8.1,6.9-15.2,12.4-20.4c0.8,0,1.5-0.2,2.3-0.4c6.4-1.9,13,1.2,17.8,5.3
		c5.7,4.8,9.2,12.3,11.1,19.4C579.9,674.7,577.2,693.7,569.4,709.4z"/>
	<path d="M664.4,713.2c-5.7-0.7-11.2-2.6-16.7-4.1c-1.8-0.5-3.7-1-5.5-1.5c17.2-10.8,32.5-25,37.6-45.5c5.6-22.2-5.8-46.1-26.4-55.9
		c-11.7-5.5-25.1-5.8-37.2-1.7c-0.6,0.2-1.1,0.5-1.5,0.8c-0.9-0.4-1.8-0.7-2.9-0.8c-4.9-0.6-10.9,3.2-11.1,8.5
		c-1.3,45-1.4,90.9,6,135.4c0.8,5,5.5,8.7,10.6,8c5.4-0.8,8.2-5.5,8-10.6c-0.4-9.2-0.9-18.4-1.4-27.6c0.3,0.1,0.6,0.3,0.9,0.4
		c5.9,1.6,11.9,3.3,17.8,4.9c5.9,1.6,12.1,2.8,17.7,5.3C671.1,733.6,676.4,714.6,664.4,713.2z M623,702.9c-1.6-28.1-3-56.1-2.8-84.3
		c0.6-0.1,1.2-0.2,1.8-0.4c20.7-6.8,42,8.4,43.8,29.7c2,23.7-20.9,40.3-38.9,50.8C625.2,699.7,623.8,701.2,623,702.9z"/>
	<path d="M770.2,662.2c5.6-22.2-5.8-46.1-26.4-55.9c-11.7-5.5-25.1-5.8-37.2-1.7c-0.6,0.2-1.1,0.5-1.5,0.8c-0.9-0.4-1.8-0.7-2.9-0.8
		c-4.9-0.6-10.9,3.2-11.1,8.5c-1.3,45-1.4,90.9,6,135.4c0.8,5,5.5,8.7,10.6,8c5.4-0.8,8.2-5.5,8-10.6c-0.4-9.2-0.9-18.4-1.4-27.6
		c0.3,0.1,0.6,0.3,0.9,0.4c5.9,1.6,11.9,3.3,17.8,4.9c5.9,1.6,12.1,2.8,17.7,5.3c10.8,4.8,16.1-14.3,4.1-15.6
		c-5.7-0.7-11.2-2.6-16.7-4.1c-1.8-0.5-3.7-1-5.5-1.5C749.7,696.8,765,682.6,770.2,662.2z M717.4,698.7c-1.8,1-3.2,2.5-4,4.2
		c-1.6-28.1-3-56.1-2.8-84.3c0.6-0.1,1.2-0.2,1.8-0.4c20.7-6.8,42,8.4,43.8,29.7C758.2,671.7,735.3,688.2,717.4,698.7z"/>
	<path d="M857.5,607.6c-4.9,13-9.9,26-15,38.9c-4.5,11.6-9.3,23.4-16.9,33.4c-5,6.7-14.3,14.3-21.2,7.2c-3.1-3.1-4.6-8.1-5.5-12.9
		c-1.2-6.8-1.8-13.8-2.3-20.8c-1.1-15.6-0.6-31.1,1.3-46.6c1.5-11.9-17.2-14.3-18.5-2.4c-1.8,16.6-2.4,33.4-1.4,50.1
		c0.8,14.5,1.2,32.3,11.2,43.9c10.8,12.6,28,13.1,41,3.5c12-8.9,19.3-23.9,25-37.3c0.9-2.2,1.9-4.5,2.8-6.7
		c-0.5,11.7-1.7,23.4-3.5,35c-1.6,10.3-3.2,22-11.3,28.1c-0.2,0.1-1,0.7-1.5,1c-1,0.6-3,1.8-3.2,2c-2,1.1-4.1,2-6.2,2.6
		c0.1-0.1-2.3,0.5-2.7,0.6c-1.3,0.3-2.6,0.4-4,0.6c-1.1,0.1-2.3,0.2-3.4,0.3c-0.6,0.1-1.3,0.1-1.9,0.1c-0.2,0-0.5,0-0.8,0
		c-5.4-0.2-10.4,2.5-11.7,8c-1.2,4.8,1,11.1,6.2,12.7c8.1,2.5,15.5,2.8,23.6,0.4c6-1.7,12-4.6,16.7-8.8
		c10.6-9.6,15.2-23.8,17.7-37.5c5.6-30.6,6.4-62.4,3.2-93.3C874.4,600.6,860.7,599.1,857.5,607.6z"/>
</g>
</svg>
