  0
SECTION
  2
HEADER
  9
$ACADVER
  1
AC1024
  9
$ACADMAINTVER
 70
     6
  9
$DWGCODEPAGE
  3
ANSI_1252
  9
$INSBASE
 10
0.0
 20
0.0
 30
0.0
  9
$EXTMIN
 10
1.000000000000000E+20
 20
1.000000000000000E+20
 30
1.000000000000000E+20
  9
$EXTMAX
 10
-1.000000000000000E+20
 20
-1.000000000000000E+20
 30
-1.000000000000000E+20
  9
$LIMMIN
 10
0.0
 20
0.0
  9
$LIMMAX
 10
12.0
 20
9.0
  9
$ORTHOMODE
 70
     0
  9
$REGENMODE
 70
     1
  9
$FILLMODE
 70
     1
  9
$QTEXTMODE
 70
     0
  9
$MIRRTEXT
 70
     1
  9
$LTSCALE
 40
1.0
  9
$ATTMODE
 70
     1
  9
$TEXTSIZE
 40
0.2
  9
$TRACEWID
 40
0.05
  9
$TEXTSTYLE
  7
Standard
  9
$CLAYER
  8
0
  9
$CELTYPE
  6
ByLayer
  9
$CECOLOR
 62
   256
  9
$CELTSCALE
 40
1.0
  9
$DISPSILH
 70
     0
  9
$DIMSCALE
 40
1.0
  9
$DIMASZ
 40
0.18
  9
$DIMEXO
 40
0.0625
  9
$DIMDLI
 40
0.38
  9
$DIMRND
 40
0.0
  9
$DIMDLE
 40
0.0
  9
$DIMEXE
 40
0.18
  9
$DIMTP
 40
0.0
  9
$DIMTM
 40
0.0
  9
$DIMTXT
 40
0.18
  9
$DIMCEN
 40
0.09
  9
$DIMTSZ
 40
0.0
  9
$DIMTOL
 70
     0
  9
$DIMLIM
 70
     0
  9
$DIMTIH
 70
     1
  9
$DIMTOH
 70
     1
  9
$DIMSE1
 70
     0
  9
$DIMSE2
 70
     0
  9
$DIMTAD
 70
     0
  9
$DIMZIN
 70
     0
  9
$DIMBLK
  1

  9
$DIMASO
 70
     1
  9
$DIMSHO
 70
     1
  9
$DIMPOST
  1

  9
$DIMAPOST
  1

  9
$DIMALT
 70
     0
  9
$DIMALTD
 70
     2
  9
$DIMALTF
 40
25.4
  9
$DIMLFAC
 40
1.0
  9
$DIMTOFL
 70
     0
  9
$DIMTVP
 40
0.0
  9
$DIMTIX
 70
     0
  9
$DIMSOXD
 70
     0
  9
$DIMSAH
 70
     0
  9
$DIMBLK1
  1

  9
$DIMBLK2
  1

  9
$DIMSTYLE
  2
Standard
  9
$DIMCLRD
 70
     0
  9
$DIMCLRE
 70
     0
  9
$DIMCLRT
 70
     0
  9
$DIMTFAC
 40
1.0
  9
$DIMGAP
 40
0.09
  9
$DIMJUST
 70
     0
  9
$DIMSD1
 70
     0
  9
$DIMSD2
 70
     0
  9
$DIMTOLJ
 70
     1
  9
$DIMTZIN
 70
     0
  9
$DIMALTZ
 70
     0
  9
$DIMALTTZ
 70
     0
  9
$DIMUPT
 70
     0
  9
$DIMDEC
 70
     4
  9
$DIMTDEC
 70
     4
  9
$DIMALTU
 70
     2
  9
$DIMALTTD
 70
     2
  9
$DIMTXSTY
  7
Standard
  9
$DIMAUNIT
 70
     0
  9
$DIMADEC
 70
     0
  9
$DIMALTRND
 40
0.0
  9
$DIMAZIN
 70
     0
  9
$DIMDSEP
 70
    46
  9
$DIMATFIT
 70
     3
  9
$DIMFRAC
 70
     0
  9
$DIMLDRBLK
  1

  9
$DIMLUNIT
 70
     2
  9
$DIMLWD
 70
    -2
  9
$DIMLWE
 70
    -2
  9
$DIMTMOVE
 70
     0
  9
$DIMFXL
 40
1.0
  9
$DIMFXLON
 70
     0
  9
$DIMJOGANG
 40
0.7853981633974483
  9
$DIMTFILL
 70
     0
  9
$DIMTFILLCLR
 70
     0
  9
$DIMARCSYM
 70
     0
  9
$DIMLTYPE
  6

  9
$DIMLTEX1
  6

  9
$DIMLTEX2
  6

  9
$DIMTXTDIRECTION
 70
     0
  9
$LUNITS
 70
     2
  9
$LUPREC
 70
     4
  9
$SKETCHINC
 40
0.1
  9
$FILLETRAD
 40
0.5
  9
$AUNITS
 70
     0
  9
$AUPREC
 70
     0
  9
$MENU
  1
.
  9
$ELEVATION
 40
0.0
  9
$PELEVATION
 40
0.0
  9
$THICKNESS
 40
0.0
  9
$LIMCHECK
 70
     0
  9
$CHAMFERA
 40
0.5
  9
$CHAMFERB
 40
0.5
  9
$CHAMFERC
 40
1.0
  9
$CHAMFERD
 40
0.0
  9
$SKPOLY
 70
     0
  9
$TDCREATE
 40
2459556.021215116
  9
$TDUCREATE
 40
2459556.354548449
  9
$TDUPDATE
 40
2459556.021215162
  9
$TDUUPDATE
 40
2459556.354548495
  9
$TDINDWG
 40
0.0000000116
  9
$TDUSRTIMER
 40
0.0000000116
  9
$USRTIMER
 70
     1
  9
$ANGBASE
 50
0.0
  9
$ANGDIR
 70
     0
  9
$PDMODE
 70
     0
  9
$PDSIZE
 40
0.0
  9
$PLINEWID
 40
0.0
  9
$SPLFRAME
 70
     0
  9
$SPLINETYPE
 70
     6
  9
$SPLINESEGS
 70
     8
  9
$HANDSEED
  5
6E
  9
$SURFTAB1
 70
     6
  9
$SURFTAB2
 70
     6
  9
$SURFTYPE
 70
     6
  9
$SURFU
 70
     6
  9
$SURFV
 70
     6
  9
$UCSBASE
  2

  9
$UCSNAME
  2

  9
$UCSORG
 10
0.0
 20
0.0
 30
0.0
  9
$UCSXDIR
 10
1.0
 20
0.0
 30
0.0
  9
$UCSYDIR
 10
0.0
 20
1.0
 30
0.0
  9
$UCSORTHOREF
  2

  9
$UCSORTHOVIEW
 70
     0
  9
$UCSORGTOP
 10
0.0
 20
0.0
 30
0.0
  9
$UCSORGBOTTOM
 10
0.0
 20
0.0
 30
0.0
  9
$UCSORGLEFT
 10
0.0
 20
0.0
 30
0.0
  9
$UCSORGRIGHT
 10
0.0
 20
0.0
 30
0.0
  9
$UCSORGFRONT
 10
0.0
 20
0.0
 30
0.0
  9
$UCSORGBACK
 10
0.0
 20
0.0
 30
0.0
  9
$PUCSBASE
  2

  9
$PUCSNAME
  2

  9
$PUCSORG
 10
0.0
 20
0.0
 30
0.0
  9
$PUCSXDIR
 10
1.0
 20
0.0
 30
0.0
  9
$PUCSYDIR
 10
0.0
 20
1.0
 30
0.0
  9
$PUCSORTHOREF
  2

  9
$PUCSORTHOVIEW
 70
     0
  9
$PUCSORGTOP
 10
0.0
 20
0.0
 30
0.0
  9
$PUCSORGBOTTOM
 10
0.0
 20
0.0
 30
0.0
  9
$PUCSORGLEFT
 10
0.0
 20
0.0
 30
0.0
  9
$PUCSORGRIGHT
 10
0.0
 20
0.0
 30
0.0
  9
$PUCSORGFRONT
 10
0.0
 20
0.0
 30
0.0
  9
$PUCSORGBACK
 10
0.0
 20
0.0
 30
0.0
  9
$USERI1
 70
     0
  9
$USERI2
 70
     0
  9
$USERI3
 70
     0
  9
$USERI4
 70
     0
  9
$USERI5
 70
     0
  9
$USERR1
 40
0.0
  9
$USERR2
 40
0.0
  9
$USERR3
 40
0.0
  9
$USERR4
 40
0.0
  9
$USERR5
 40
0.0
  9
$WORLDVIEW
 70
     1
  9
$SHADEDGE
 70
     3
  9
$SHADEDIF
 70
    70
  9
$TILEMODE
 70
     1
  9
$MAXACTVP
 70
    64
  9
$PINSBASE
 10
0.0
 20
0.0
 30
0.0
  9
$PLIMCHECK
 70
     0
  9
$PEXTMIN
 10
1.000000000000000E+20
 20
1.000000000000000E+20
 30
1.000000000000000E+20
  9
$PEXTMAX
 10
-1.000000000000000E+20
 20
-1.000000000000000E+20
 30
-1.000000000000000E+20
  9
$PLIMMIN
 10
0.0
 20
0.0
  9
$PLIMMAX
 10
12.0
 20
9.0
  9
$UNITMODE
 70
     0
  9
$VISRETAIN
 70
     1
  9
$PLINEGEN
 70
     0
  9
$PSLTSCALE
 70
     1
  9
$TREEDEPTH
 70
  3020
  9
$CMLSTYLE
  2
Standard
  9
$CMLJUST
 70
     0
  9
$CMLSCALE
 40
1.0
  9
$PROXYGRAPHICS
 70
     1
  9
$MEASUREMENT
 70
     0
  9
$CELWEIGHT
370
    -1
  9
$ENDCAPS
280
     0
  9
$JOINSTYLE
280
     0
  9
$LWDISPLAY
290
     1
  9
$INSUNITS
 70
     1
  9
$HYPERLINKBASE
  1

  9
$STYLESHEET
  1

  9
$XEDIT
290
     1
  9
$CEPSNTYPE
380
     0
  9
$PSTYLEMODE
290
     1
  9
$FINGERPRINTGUID
  2
{5271228A-BFE9-4767-92E8-BCD9EC534598}
  9
$VERSIONGUID
  2
{FAEB1C32-E019-11D5-929B-00C0DF256EC4}
  9
$EXTNAMES
290
     1
  9
$PSVPSCALE
 40
0.0
  9
$OLESTARTUP
290
     0
  9
$SORTENTS
280
   127
  9
$INDEXCTL
280
     0
  9
$HIDETEXT
280
     1
  9
$XCLIPFRAME
280
     2
  9
$HALOGAP
280
     0
  9
$OBSCOLOR
 70
   257
  9
$OBSLTYPE
280
     0
  9
$INTERSECTIONDISPLAY
280
     0
  9
$INTERSECTIONCOLOR
 70
   257
  9
$DIMASSOC
280
     2
  9
$PROJECTNAME
  1

  9
$CAMERADISPLAY
290
     0
  9
$LENSLENGTH
 40
50.0
  9
$CAMERAHEIGHT
 40
0.0
  9
$STEPSPERSEC
 40
2.0
  9
$STEPSIZE
 40
6.0
  9
$3DDWFPREC
 40
2.0
  9
$PSOLWIDTH
 40
0.25
  9
$PSOLHEIGHT
 40
4.0
  9
$LOFTANG1
 40
1.570796326794897
  9
$LOFTANG2
 40
1.570796326794897
  9
$LOFTMAG1
 40
0.0
  9
$LOFTMAG2
 40
0.0
  9
$LOFTPARAM
 70
     7
  9
$LOFTNORMALS
280
     1
  9
$LATITUDE
 40
37.795
  9
$LONGITUDE
 40
-122.394
  9
$NORTHDIRECTION
 40
0.0
  9
$TIMEZONE
 70
 -8000
  9
$LIGHTGLYPHDISPLAY
280
     1
  9
$TILEMODELIGHTSYNCH
280
     1
  9
$CMATERIAL
347
3C
  9
$SOLIDHIST
280
     1
  9
$SHOWHIST
280
     1
  9
$DWFFRAME
280
     2
  9
$DGNFRAME
280
     2
  9
$REALWORLDSCALE
290
     1
  9
$INTERFERECOLOR
 62
   256
  9
$CSHADOW
280
     0
  9
$SHADOWPLANELOCATION
 40
0.0
  0
ENDSEC
  0
SECTION
  2
CLASSES
  0
CLASS
  1
ACDBDICTIONARYWDFLT
  2
AcDbDictionaryWithDefault
  3
ObjectDBX Classes
 90
        0
 91
        4
280
     0
281
     0
  0
CLASS
  1
VISUALSTYLE
  2
AcDbVisualStyle
  3
ObjectDBX Classes
 90
     4095
 91
        4
280
     0
281
     0
  0
CLASS
  1
MATERIAL
  2
AcDbMaterial
  3
ObjectDBX Classes
 90
     1153
 91
        4
280
     0
281
     0
  0
CLASS
  1
SUN
  2
AcDbSun
  3
SCENEOE
 90
     1024
 91
        4
280
     0
281
     0
  0
ENDSEC
  0
SECTION
  2
TABLES
  0
TABLE
  2
VPORT
  5
8
330
0
100
AcDbSymbolTable
 70
     1
  0
VPORT
  5
29
330
8
100
AcDbSymbolTableRecord
100
AcDbViewportTableRecord
  2
*Active
 70
     0
 10
0.0
 20
0.0
 11
1.0
 21
1.0
 12
0.0
 22
0.0
 13
0.0
 23
0.0
 14
0.5
 24
0.5
 15
0.5
 25
0.5
 16
0.0
 26
0.0
 36
1.0
 17
540.0
 27
-540.0
 37
0.0
 40
1080.0
 41
1.0
 42
50.0
 43
0.0
 44
0.0
 50
0.0
 51
0.0
 71
     0
 72
   100
 73
     1
 74
     3
 75
     0
 76
     0
 77
     0
 78
     0
281
     0
 65
     1
110
0.0
120
0.0
130
0.0
111
1.0
121
0.0
131
0.0
112
0.0
122
1.0
132
0.0
 79
     0
146
0.0
 60
     3
 61
     5
292
     1
282
     1
141
0.0
142
0.0
 63
   250
361
3F
  0
ENDTAB
  0
TABLE
  2
LTYPE
  5
5
330
0
100
AcDbSymbolTable
 70
     1
  0
LTYPE
  5
14
330
5
100
AcDbSymbolTableRecord
100
AcDbLinetypeTableRecord
  2
ByBlock
 70
     0
  3

 72
    65
 73
     0
 40
0.0
  0
LTYPE
  5
15
330
5
100
AcDbSymbolTableRecord
100
AcDbLinetypeTableRecord
  2
ByLayer
 70
     0
  3

 72
    65
 73
     0
 40
0.0
  0
LTYPE
  5
16
330
5
100
AcDbSymbolTableRecord
100
AcDbLinetypeTableRecord
  2
Continuous
 70
     0
  3
Solid line
 72
    65
 73
     0
 40
0.0
  0
ENDTAB
  0
TABLE
  2
LAYER
  5
2
330
0
100
AcDbSymbolTable
 70
     2
  0
LAYER
  5
10
330
2
100
AcDbSymbolTableRecord
100
AcDbLayerTableRecord
  2
0
 70
     0
 62
     7
  6
Continuous
370
    -3
390
F
347
3E
  0
LAYER
  5
40
330
2
100
AcDbSymbolTableRecord
100
AcDbLayerTableRecord
  2
Layer 1
 70
     0
 62
     7
  6
Continuous
370
    -3
390
F
347
3E
  0
ENDTAB
  0
TABLE
  2
STYLE
  5
3
330
0
100
AcDbSymbolTable
 70
     1
  0
STYLE
  5
11
330
3
100
AcDbSymbolTableRecord
100
AcDbTextStyleTableRecord
  2
Standard
 70
     0
 40
0.0
 41
1.0
 50
0.0
 71
     0
 42
0.2
  3
txt
  4

  0
ENDTAB
  0
TABLE
  2
VIEW
  5
6
330
0
100
AcDbSymbolTable
 70
     0
  0
ENDTAB
  0
TABLE
  2
UCS
  5
7
330
0
100
AcDbSymbolTable
 70
     0
  0
ENDTAB
  0
TABLE
  2
APPID
  5
9
330
0
100
AcDbSymbolTable
 70
     1
  0
APPID
  5
12
330
9
100
AcDbSymbolTableRecord
100
AcDbRegAppTableRecord
  2
ACAD
 70
     0
  0
ENDTAB
  0
TABLE
  2
DIMSTYLE
  5
A
330
0
100
AcDbSymbolTable
 70
     1
100
AcDbDimStyleTable
  0
DIMSTYLE
105
27
330
A
100
AcDbSymbolTableRecord
100
AcDbDimStyleTableRecord
  2
Standard
 70
     0
178
     0
340
11
  0
ENDTAB
  0
TABLE
  2
BLOCK_RECORD
  5
1
330
0
100
AcDbSymbolTable
 70
     2
  0
BLOCK_RECORD
  5
1F
330
1
100
AcDbSymbolTableRecord
100
AcDbBlockTableRecord
  2
*Model_Space
340
22
 70
     0
280
     1
281
     0
  0
BLOCK_RECORD
  5
1B
330
1
100
AcDbSymbolTableRecord
100
AcDbBlockTableRecord
  2
*Paper_Space
340
1E
 70
     0
280
     1
281
     0
  0
BLOCK_RECORD
  5
23
330
1
100
AcDbSymbolTableRecord
100
AcDbBlockTableRecord
  2
*Paper_Space0
340
26
 70
     0
280
     1
281
     0
  0
BLOCK_RECORD
  5
41
330
1
100
AcDbSymbolTableRecord
100
AcDbBlockTableRecord
  2
block 2
340
0
102
{BLKREFS
331
42
102
}
 70
     0
280
     1
281
     0
  0
ENDTAB
  0
ENDSEC
  0
SECTION
  2
BLOCKS
  0
BLOCK
  5
20
330
1F
100
AcDbEntity
  8
0
100
AcDbBlockBegin
  2
*Model_Space
 70
     0
 10
0.0
 20
0.0
 30
0.0
  3
*Model_Space
  1

  0
ENDBLK
  5
21
330
1F
100
AcDbEntity
  8
0
100
AcDbBlockEnd
  0
BLOCK
  5
1C
330
1B
100
AcDbEntity
 67
     1
  8
0
100
AcDbBlockBegin
  2
*Paper_Space
 70
     0
 10
0.0
 20
0.0
 30
0.0
  3
*Paper_Space
  1

  0
ENDBLK
  5
1D
330
1B
100
AcDbEntity
 67
     1
  8
0
100
AcDbBlockEnd
  0
BLOCK
  5
24
330
23
100
AcDbEntity
  8
0
100
AcDbBlockBegin
  2
*Paper_Space0
 70
     0
 10
0.0
 20
0.0
 30
0.0
  3
*Paper_Space0
  1

  0
ENDBLK
  5
25
330
23
100
AcDbEntity
  8
0
100
AcDbBlockEnd
  0
BLOCK
  5
43
330
41
100
AcDbEntity
  8
0
100
AcDbBlockBegin
  2
block 2
 70
     0
 10
0.0
 20
0.0
 30
0.0
  3
block 2
  1

  0
SPLINE
  5
45
330
41
100
AcDbEntity
  8
Layer 1
370
     0
100
AcDbSpline
210
0.0
220
0.0
230
1.0
 70
    11
 71
     3
 72
   128
 73
   124
 74
     0
 42
0.0000000001
 43
0.0000000001
 12
1.0
 22
0.0
 32
0.0
 13
1.0
 23
0.0
 33
0.0
 40
0.0
 40
0.0
 40
0.0
 40
0.0
 40
1.0
 40
1.0
 40
1.0
 40
2.0
 40
2.0
 40
2.0
 40
3.0
 40
3.0
 40
3.0
 40
4.0
 40
4.0
 40
4.0
 40
5.0
 40
5.0
 40
5.0
 40
6.0
 40
6.0
 40
6.0
 40
7.0
 40
7.0
 40
7.0
 40
8.0
 40
8.0
 40
8.0
 40
9.0
 40
9.0
 40
9.0
 40
10.0
 40
10.0
 40
10.0
 40
11.0
 40
11.0
 40
11.0
 40
12.0
 40
12.0
 40
12.0
 40
13.0
 40
13.0
 40
13.0
 40
14.0
 40
14.0
 40
14.0
 40
15.0
 40
15.0
 40
15.0
 40
16.0
 40
16.0
 40
16.0
 40
17.0
 40
17.0
 40
17.0
 40
18.0
 40
18.0
 40
18.0
 40
19.0
 40
19.0
 40
19.0
 40
20.0
 40
20.0
 40
20.0
 40
21.0
 40
21.0
 40
21.0
 40
22.0
 40
22.0
 40
22.0
 40
23.0
 40
23.0
 40
23.0
 40
24.0
 40
24.0
 40
24.0
 40
25.0
 40
25.0
 40
25.0
 40
26.0
 40
26.0
 40
26.0
 40
27.0
 40
27.0
 40
27.0
 40
28.0
 40
28.0
 40
28.0
 40
29.0
 40
29.0
 40
29.0
 40
30.0
 40
30.0
 40
30.0
 40
31.0
 40
31.0
 40
31.0
 40
32.0
 40
32.0
 40
32.0
 40
33.0
 40
33.0
 40
33.0
 40
34.0
 40
34.0
 40
34.0
 40
35.0
 40
35.0
 40
35.0
 40
36.0
 40
36.0
 40
36.0
 40
37.0
 40
37.0
 40
37.0
 40
38.0
 40
38.0
 40
38.0
 40
39.0
 40
39.0
 40
39.0
 40
40.0
 40
40.0
 40
40.0
 40
41.0
 40
41.0
 40
41.0
 40
41.0
 10
622.5327069381765
 20
-906.9291949738126
 30
0.0
 10
650.2616709529993
 20
-861.2975778599739
 30
0.0
 10
648.29603039822
 20
-791.4312586222459
 30
0.0
 10
587.381983639043
 20
-775.27479053965
 30
0.0
 10
531.7064919291251
 20
-760.4284341838938
 30
0.0
 10
487.3859324711702
 20
-813.4827565110882
 30
0.0
 10
489.5691367062191
 20
-866.1010055486986
 30
0.0
 10
490.0260204347842
 20
-877.0681068923514
 30
0.0
 10
492.6482539876797
 20
-887.451570015457
 30
0.0
 10
496.8614219525434
 20
-897.1588121127697
 30
0.0
 10
489.3995789249657
 20
-917.9458393511777
 30
0.0
 10
479.1611976690838
 20
-940.2136002678544
 30
0.0
 10
475.1588536400459
 20
-946.8842918907139
 30
0.0
 10
461.4031534727692
 20
-969.3718630691401
 30
0.0
 10
440.225694021181
 20
-1002.995856890211
 30
0.0
 10
412.0597107877311
 20
-1001.904254772688
 30
0.0
 10
379.746774622542
 20
-1000.593197116805
 30
0.0
 10
369.7029000264656
 20
-969.1542993888725
 30
0.0
 10
367.5196957914177
 20
-937.2774365132664
 30
0.0
 10
369.2677726659276
 20
-937.495946122579
 30
0.0
 10
371.0139576823485
 20
-937.9320194121628
 30
0.0
 10
372.7601426987694
 20
-937.9320194121628
 30
0.0
 10
398.3059024785434
 20
-940.1161695762548
 30
0.0
 10
416.8631384764558
 20
-922.4310801575102
 30
0.0
 10
429.0902173075801
 20
-901.9072576757735
 30
0.0
 10
448.303928062478
 20
-869.5943215105854
 30
0.0
 10
480.6168642276662
 20
-766.9780468890403
 30
0.0
 10
413.370768443614
 20
-767.1965564983548
 30
0.0
 10
353.76588748223
 20
-767.4150661076674
 30
0.0
 10
329.7487490386075
 20
-850.599120365001
 30
0.0
 10
327.1285255849316
 20
-897.5408492056777
 30
0.0
 10
326.3732012427799
 20
-910.101959230693
 30
0.0
 10
325.9498979952996
 20
-923.643642951618
 30
0.0
 10
326.7139721811145
 20
-937.1407497663149
 30
0.0
 10
316.763035113675
 20
-975.5130709092591
 30
0.0
 10
302.7675419335801
 20
-1018.380210390113
 30
0.0
 10
286.9530272006259
 20
-1019.152324972805
 30
0.0
 10
277.7831910418045
 20
-1019.589344191434
 30
0.0
 10
274.5083846892321
 20
-1015.222935721336
 30
0.0
 10
269.9244125388659
 20
-1007.799284578936
 30
0.0
 10
262.5007613964654
 20
-995.5722057478106
 30
0.0
 10
257.6973337077407
 20
-981.5989419002653
 30
0.0
 10
253.9855081365404
 20
-967.8441876620327
 30
0.0
 10
246.3442933138713
 20
-937.2774365132664
 30
0.0
 10
244.1610890788224
 20
-904.7459907387638
 30
0.0
 10
243.7240698601954
 20
-873.5246566910992
 30
0.0
 10
243.5046143218369
 20
-858.241281116716
 30
0.0
 10
243.7240698601954
 20
-831.1678459298346
 30
0.0
 10
244.5962164393604
 20
-815.8844703554496
 30
0.0
 10
309.4415443080961
 20
-730.953285152651
 30
0.0
 10
345.9033252631125
 20
-595.1509818577069
 30
0.0
 10
318.393816786649
 20
-564.8027403182532
 30
0.0
 10
309.6609998464546
 20
-555.1958849408038
 30
0.0
 10
299.6171252503782
 20
-552.3571518778153
 30
0.0
 10
287.8270656378809
 20
-556.5059966676417
 30
0.0
 10
274.7259483695007
 20
-560.8724051377394
 30
0.0
 10
257.6973337077407
 20
-577.9029116575875
 30
0.0
 10
236.0828550375254
 20
-638.8169584167663
 30
0.0
 10
210.1000760391235
 20
-712.1765936163811
 30
0.0
 10
200.9302398803029
 20
-796.889269209867
 30
0.0
 10
202.4588612164544
 20
-874.39774919931
 30
0.0
 10
203.5504633339788
 20
-923.5226822750337
 30
0.0
 10
208.7909102413305
 20
-1053.866029053312
 30
0.0
 10
286.2984443017294
 20
-1042.732444197802
 30
0.0
 10
307.5162239788451
 20
-1039.700505127441
 30
0.0
 10
320.6959715990615
 20
-1009.605063125171
 30
0.0
 10
331.5111330899181
 20
-969.7178366172211
 30
0.0
 10
333.1335196426207
 20
-975.9651067514696
 30
0.0
 10
335.1857127049852
 20
-982.0120764105159
 30
0.0
 10
337.8269830799054
 20
-987.711535386783
 30
0.0
 10
350.7086448099262
 20
-1015.222935721336
 30
0.0
 10
378.2181532863906
 20
-1028.322161131628
 30
0.0
 10
407.6933023176343
 20
-1026.138956896579
 30
0.0
 10
438.9146363652981
 20
-1023.95575266153
 30
0.0
 10
465.5519982625965
 20
-995.1351865291836
 30
0.0
 10
483.2370876813429
 20
-957.8003130659563
 30
0.0
 10
490.6030371520192
 20
-942.492934542066
 30
0.0
 10
497.5919156572736
 20
-925.6177968677985
 30
0.0
 10
503.3659847869376
 20
-909.6501598707437
 30
0.0
 10
508.6054857652452
 20
-918.2351753977109
 30
0.0
 10
515.0586137078362
 20
-926.1730572170072
 30
0.0
 10
522.3190920900352
 20
-933.3471013327526
 30
0.0
 10
531.7064919291251
 20
-942.5169374915731
 30
0.0
 10
542.4049494241026
 20
-950.3776078526007
 30
0.0
 10
553.5404261377025
 20
-957.3642397763742
 30
0.0
 10
565.3304857502008
 20
-964.7869449897298
 30
0.0
 10
579.7388769582849
 20
-971.7745228425483
 30
0.0
 10
585.6339067645331
 20
-985.0913119331071
 30
0.0
 10
595.023198461713
 20
-1006.051207704426
 30
0.0
 10
576.0289432451737
 20
-1018.497742073909
 30
0.0
 10
560.7446217417455
 20
-1017.406139956385
 30
0.0
 10
542.4049494241026
 20
-1015.877518620233
 30
0.0
 10
536.5099196178498
 20
-996.0092249664394
 30
0.0
 10
534.763734601429
 20
-980.5073397827418
 30
0.0
 10
533.2351132652775
 20
-965.2239642083568
 30
0.0
 10
491.752340941267
 20
-966.9701492247787
 30
0.0
 10
493.2809622774193
 20
-981.3813782199959
 30
0.0
 10
497.6473707475161
 20
-1021.772548426481
 30
0.0
 10
527.3400834590284
 20
-1040.766803643022
 30
0.0
 10
566.4220878677243
 20
-1038.801163088243
 30
0.0
 10
582.3591004119608
 20
-1037.929016509077
 30
0.0
 10
599.6071706120783
 20
-1034.217190937876
 30
0.0
 10
612.9258515607289
 20
-1024.827899240696
 30
0.0
 10
634.7597857693017
 20
-1009.545469595358
 30
0.0
 10
633.8857473320459
 20
-983.7821461353142
 30
0.0
 10
615.9830942330318
 20
-965.0054545990442
 30
0.0
 10
597.4239663770313
 20
-945.3556705545634
 30
0.0
 10
570.3514771191931
 20
-936.6219076853249
 30
0.0
 10
552.2293684818196
 20
-915.6620119140061
 30
0.0
 10
532.5805303663801
 20
-892.9559311262656
 30
0.0
 10
525.811462122877
 20
-862.3891799774992
 30
0.0
 10
535.8553367189534
 20
-833.7880693835104
 30
0.0
 10
540.2217451890501
 20
-821.5609905523852
 30
0.0
 10
547.4259407930949
 20
-808.6793288223635
 30
0.0
 10
557.4698153891732
 20
-800.383531100797
 30
0.0
 10
565.1110302118414
 20
-794.2699916852343
 30
0.0
 10
569.0423113214001
 20
-793.6144628572929
 30
0.0
 10
577.9926919418631
 20
-798.199380936705
 30
0.0
 10
616.4201134516588
 20
-818.0676745904984
 30
0.0
 10
605.9392196369554
 20
-872.4330545735756
 30
0.0
 10
597.2064026967619
 20
-903.8728982305529
 30
0.0
 10
595.023198461713
 20
-911.7326226625373
 30
0.0
 10
619.4754642658736
 20
-912.1696418811644
 30
0.0
 10
622.5327069381765
 20
-906.9291949738126
 30
0.0
  0
SPLINE
  5
46
330
41
100
AcDbEntity
  8
Layer 1
370
     0
100
AcDbSpline
210
0.0
220
0.0
230
1.0
 70
    11
 71
     3
 72
    14
 73
    10
 74
     0
 42
0.0000000001
 43
0.0000000001
 12
1.0
 22
0.0
 32
0.0
 13
1.0
 23
0.0
 33
0.0
 40
0.0
 40
0.0
 40
0.0
 40
0.0
 40
1.0
 40
1.0
 40
1.0
 40
2.0
 40
2.0
 40
2.0
 40
3.0
 40
3.0
 40
3.0
 40
3.0
 10
263.8099271942592
 20
-684.6670851399176
 30
0.0
 10
269.487393320238
 20
-655.191936108673
 30
0.0
 10
290.2278335531983
 20
-576.811309540064
 30
0.0
 10
307.9129229719447
 20
-571.3523530233979
 30
0.0
 10
334.7678485495126
 20
-610.2158478227775
 30
0.0
 10
263.3729079756313
 20
-765.450371481933
 30
0.0
 10
248.7450612291887
 20
-778.9866161108512
 30
0.0
 10
252.4568868003889
 20
-747.3282628445595
 30
0.0
 10
257.6973337077407
 20
-715.8884191875804
 30
0.0
 10
263.8099271942592
 20
-684.6670851399176
 30
0.0
  0
SPLINE
  5
47
330
41
100
AcDbEntity
  8
Layer 1
370
     0
100
AcDbSpline
210
0.0
220
0.0
230
1.0
 70
    11
 71
     3
 72
    23
 73
    19
 74
     0
 42
0.0000000001
 43
0.0000000001
 12
1.0
 22
0.0
 32
0.0
 13
1.0
 23
0.0
 33
0.0
 40
0.0
 40
0.0
 40
0.0
 40
0.0
 40
1.0
 40
1.0
 40
1.0
 40
2.0
 40
2.0
 40
2.0
 40
3.0
 40
3.0
 40
3.0
 40
4.0
 40
4.0
 40
4.0
 40
5.0
 40
5.0
 40
5.0
 40
6.0
 40
6.0
 40
6.0
 40
6.0
 10
369.7029000264656
 20
-877.6725555518824
 30
0.0
 10
375.8173853710732
 20
-815.4483970658675
 30
0.0
 10
405.2925344023161
 20
-777.2394851653862
 30
0.0
 10
418.3917598126072
 20
-784.8816459170994
 30
0.0
 10
428.8726536273116
 20
-790.7766757233476
 30
0.0
 10
429.0902173075801
 20
-811.2995522760393
 30
0.0
 10
428.8726536273116
 20
-821.3434268721157
 30
0.0
 10
428.4356344086837
 20
-847.5428236217413
 30
0.0
 10
420.3574003673866
 20
-873.7422203713686
 30
0.0
 10
407.4757386373649
 20
-896.6677566974668
 30
0.0
 10
400.7066703938608
 20
-908.4578163099632
 30
0.0
 10
387.387989445212
 20
-931.3824067070163
 30
0.0
 10
369.9223555648241
 20
-922.6486438377797
 30
0.0
 10
368.8307534473006
 20
-922.2125705481958
 30
0.0
 10
367.9567150100447
 20
-921.5570417202543
 30
0.0
 10
367.0845684308788
 20
-920.9024588213579
 30
0.0
 10
367.0845684308788
 20
-903.2173694026114
 30
0.0
 10
368.8307534473006
 20
-887.0609013200174
 30
0.0
 10
369.7029000264656
 20
-877.6725555518824
 30
0.0
  0
HATCH
  5
48
330
41
100
AcDbEntity
  8
Layer 1
 62
     7
420
 16777215
100
AcDbHatch
 10
0.0
 20
0.0
 30
0.0
210
0.0
220
0.0
230
1.0
  2
SOLID
 70
     1
 71
     0
 91
        3
 92
        1
 93
        1
 72
     4
 94
        3
 73
     0
 74
     1
 95
      128
 96
      124
 40
0.0
 40
0.0
 40
0.0
 40
0.0
 40
1.0
 40
1.0
 40
1.0
 40
2.0
 40
2.0
 40
2.0
 40
3.0
 40
3.0
 40
3.0
 40
4.0
 40
4.0
 40
4.0
 40
5.0
 40
5.0
 40
5.0
 40
6.0
 40
6.0
 40
6.0
 40
7.0
 40
7.0
 40
7.0
 40
8.0
 40
8.0
 40
8.0
 40
9.0
 40
9.0
 40
9.0
 40
10.0
 40
10.0
 40
10.0
 40
11.0
 40
11.0
 40
11.0
 40
12.0
 40
12.0
 40
12.0
 40
13.0
 40
13.0
 40
13.0
 40
14.0
 40
14.0
 40
14.0
 40
15.0
 40
15.0
 40
15.0
 40
16.0
 40
16.0
 40
16.0
 40
17.0
 40
17.0
 40
17.0
 40
18.0
 40
18.0
 40
18.0
 40
19.0
 40
19.0
 40
19.0
 40
20.0
 40
20.0
 40
20.0
 40
21.0
 40
21.0
 40
21.0
 40
22.0
 40
22.0
 40
22.0
 40
23.0
 40
23.0
 40
23.0
 40
24.0
 40
24.0
 40
24.0
 40
25.0
 40
25.0
 40
25.0
 40
26.0
 40
26.0
 40
26.0
 40
27.0
 40
27.0
 40
27.0
 40
28.0
 40
28.0
 40
28.0
 40
29.0
 40
29.0
 40
29.0
 40
30.0
 40
30.0
 40
30.0
 40
31.0
 40
31.0
 40
31.0
 40
32.0
 40
32.0
 40
32.0
 40
33.0
 40
33.0
 40
33.0
 40
34.0
 40
34.0
 40
34.0
 40
35.0
 40
35.0
 40
35.0
 40
36.0
 40
36.0
 40
36.0
 40
37.0
 40
37.0
 40
37.0
 40
38.0
 40
38.0
 40
38.0
 40
39.0
 40
39.0
 40
39.0
 40
40.0
 40
40.0
 40
40.0
 40
41.0
 40
41.0
 40
41.0
 40
41.0
 10
622.5327069381765
 20
-906.9291949738126
 10
650.2616709529993
 20
-861.2975778599739
 10
648.29603039822
 20
-791.4312586222459
 10
587.381983639043
 20
-775.27479053965
 10
531.7064919291251
 20
-760.4284341838938
 10
487.3859324711702
 20
-813.4827565110882
 10
489.5691367062191
 20
-866.1010055486986
 10
490.0260204347842
 20
-877.0681068923514
 10
492.6482539876797
 20
-887.451570015457
 10
496.8614219525434
 20
-897.1588121127697
 10
489.3995789249657
 20
-917.9458393511777
 10
479.1611976690838
 20
-940.2136002678544
 10
475.1588536400459
 20
-946.8842918907139
 10
461.4031534727692
 20
-969.3718630691401
 10
440.225694021181
 20
-1002.995856890211
 10
412.0597107877311
 20
-1001.904254772688
 10
379.746774622542
 20
-1000.593197116805
 10
369.7029000264656
 20
-969.1542993888725
 10
367.5196957914177
 20
-937.2774365132664
 10
369.2677726659276
 20
-937.495946122579
 10
371.0139576823485
 20
-937.9320194121628
 10
372.7601426987694
 20
-937.9320194121628
 10
398.3059024785434
 20
-940.1161695762548
 10
416.8631384764558
 20
-922.4310801575102
 10
429.0902173075801
 20
-901.9072576757735
 10
448.303928062478
 20
-869.5943215105854
 10
480.6168642276662
 20
-766.9780468890403
 10
413.370768443614
 20
-767.1965564983548
 10
353.76588748223
 20
-767.4150661076674
 10
329.7487490386075
 20
-850.599120365001
 10
327.1285255849316
 20
-897.5408492056777
 10
326.3732012427799
 20
-910.101959230693
 10
325.9498979952996
 20
-923.643642951618
 10
326.7139721811145
 20
-937.1407497663149
 10
316.763035113675
 20
-975.5130709092591
 10
302.7675419335801
 20
-1018.380210390113
 10
286.9530272006259
 20
-1019.152324972805
 10
277.7831910418045
 20
-1019.589344191434
 10
274.5083846892321
 20
-1015.222935721336
 10
269.9244125388659
 20
-1007.799284578936
 10
262.5007613964654
 20
-995.5722057478106
 10
257.6973337077407
 20
-981.5989419002653
 10
253.9855081365404
 20
-967.8441876620327
 10
246.3442933138713
 20
-937.2774365132664
 10
244.1610890788224
 20
-904.7459907387638
 10
243.7240698601954
 20
-873.5246566910992
 10
243.5046143218369
 20
-858.241281116716
 10
243.7240698601954
 20
-831.1678459298346
 10
244.5962164393604
 20
-815.8844703554496
 10
309.4415443080961
 20
-730.953285152651
 10
345.9033252631125
 20
-595.1509818577069
 10
318.393816786649
 20
-564.8027403182532
 10
309.6609998464546
 20
-555.1958849408038
 10
299.6171252503782
 20
-552.3571518778153
 10
287.8270656378809
 20
-556.5059966676417
 10
274.7259483695007
 20
-560.8724051377394
 10
257.6973337077407
 20
-577.9029116575875
 10
236.0828550375254
 20
-638.8169584167663
 10
210.1000760391235
 20
-712.1765936163811
 10
200.9302398803029
 20
-796.889269209867
 10
202.4588612164544
 20
-874.39774919931
 10
203.5504633339788
 20
-923.5226822750337
 10
208.7909102413305
 20
-1053.866029053312
 10
286.2984443017294
 20
-1042.732444197802
 10
307.5162239788451
 20
-1039.700505127441
 10
320.6959715990615
 20
-1009.605063125171
 10
331.5111330899181
 20
-969.7178366172211
 10
333.1335196426207
 20
-975.9651067514696
 10
335.1857127049852
 20
-982.0120764105159
 10
337.8269830799054
 20
-987.711535386783
 10
350.7086448099262
 20
-1015.222935721336
 10
378.2181532863906
 20
-1028.322161131628
 10
407.6933023176343
 20
-1026.138956896579
 10
438.9146363652981
 20
-1023.95575266153
 10
465.5519982625965
 20
-995.1351865291836
 10
483.2370876813429
 20
-957.8003130659563
 10
490.6030371520192
 20
-942.492934542066
 10
497.5919156572736
 20
-925.6177968677985
 10
503.3659847869376
 20
-909.6501598707437
 10
508.6054857652452
 20
-918.2351753977109
 10
515.0586137078362
 20
-926.1730572170072
 10
522.3190920900352
 20
-933.3471013327526
 10
531.7064919291251
 20
-942.5169374915731
 10
542.4049494241026
 20
-950.3776078526007
 10
553.5404261377025
 20
-957.3642397763742
 10
565.3304857502008
 20
-964.7869449897298
 10
579.7388769582849
 20
-971.7745228425483
 10
585.6339067645331
 20
-985.0913119331071
 10
595.023198461713
 20
-1006.051207704426
 10
576.0289432451737
 20
-1018.497742073909
 10
560.7446217417455
 20
-1017.406139956385
 10
542.4049494241026
 20
-1015.877518620233
 10
536.5099196178498
 20
-996.0092249664394
 10
534.763734601429
 20
-980.5073397827418
 10
533.2351132652775
 20
-965.2239642083568
 10
491.752340941267
 20
-966.9701492247787
 10
493.2809622774193
 20
-981.3813782199959
 10
497.6473707475161
 20
-1021.772548426481
 10
527.3400834590284
 20
-1040.766803643022
 10
566.4220878677243
 20
-1038.801163088243
 10
582.3591004119608
 20
-1037.929016509077
 10
599.6071706120783
 20
-1034.217190937876
 10
612.9258515607289
 20
-1024.827899240696
 10
634.7597857693017
 20
-1009.545469595358
 10
633.8857473320459
 20
-983.7821461353142
 10
615.9830942330318
 20
-965.0054545990442
 10
597.4239663770313
 20
-945.3556705545634
 10
570.3514771191931
 20
-936.6219076853249
 10
552.2293684818196
 20
-915.6620119140061
 10
532.5805303663801
 20
-892.9559311262656
 10
525.811462122877
 20
-862.3891799774992
 10
535.8553367189534
 20
-833.7880693835104
 10
540.2217451890501
 20
-821.5609905523852
 10
547.4259407930949
 20
-808.6793288223635
 10
557.4698153891732
 20
-800.383531100797
 10
565.1110302118414
 20
-794.2699916852343
 10
569.0423113214001
 20
-793.6144628572929
 10
577.9926919418631
 20
-798.199380936705
 10
616.4201134516588
 20
-818.0676745904984
 10
605.9392196369554
 20
-872.4330545735756
 10
597.2064026967619
 20
-903.8728982305529
 10
595.023198461713
 20
-911.7326226625373
 10
619.4754642658736
 20
-912.1696418811644
 10
622.5327069381765
 20
-906.9291949738126
 97
        0
 97
        0
 92
        1
 93
        1
 72
     4
 94
        3
 73
     0
 74
     1
 95
       14
 96
       10
 40
0.0
 40
0.0
 40
0.0
 40
0.0
 40
1.0
 40
1.0
 40
1.0
 40
2.0
 40
2.0
 40
2.0
 40
3.0
 40
3.0
 40
3.0
 40
3.0
 10
263.8099271942592
 20
-684.6670851399176
 10
269.487393320238
 20
-655.191936108673
 10
290.2278335531983
 20
-576.811309540064
 10
307.9129229719447
 20
-571.3523530233979
 10
334.7678485495126
 20
-610.2158478227775
 10
263.3729079756313
 20
-765.450371481933
 10
248.7450612291887
 20
-778.9866161108512
 10
252.4568868003889
 20
-747.3282628445595
 10
257.6973337077407
 20
-715.8884191875804
 10
263.8099271942592
 20
-684.6670851399176
 97
        0
 97
        0
 92
        1
 93
        1
 72
     4
 94
        3
 73
     0
 74
     1
 95
       23
 96
       19
 40
0.0
 40
0.0
 40
0.0
 40
0.0
 40
1.0
 40
1.0
 40
1.0
 40
2.0
 40
2.0
 40
2.0
 40
3.0
 40
3.0
 40
3.0
 40
4.0
 40
4.0
 40
4.0
 40
5.0
 40
5.0
 40
5.0
 40
6.0
 40
6.0
 40
6.0
 40
6.0
 10
369.7029000264656
 20
-877.6725555518824
 10
375.8173853710732
 20
-815.4483970658675
 10
405.2925344023161
 20
-777.2394851653862
 10
418.3917598126072
 20
-784.8816459170994
 10
428.8726536273116
 20
-790.7766757233476
 10
429.0902173075801
 20
-811.2995522760393
 10
428.8726536273116
 20
-821.3434268721157
 10
428.4356344086837
 20
-847.5428236217413
 10
420.3574003673866
 20
-873.7422203713686
 10
407.4757386373649
 20
-896.6677566974668
 10
400.7066703938608
 20
-908.4578163099632
 10
387.387989445212
 20
-931.3824067070163
 10
369.9223555648241
 20
-922.6486438377797
 10
368.8307534473006
 20
-922.2125705481958
 10
367.9567150100447
 20
-921.5570417202543
 10
367.0845684308788
 20
-920.9024588213579
 10
367.0845684308788
 20
-903.2173694026114
 10
368.8307534473006
 20
-887.0609013200174
 10
369.7029000264656
 20
-877.6725555518824
 97
        0
 97
        0
 75
     2
 76
     1
 98
        0
  0
SPLINE
  5
49
330
41
100
AcDbEntity
  8
Layer 1
370
     0
100
AcDbSpline
210
0.0
220
0.0
230
1.0
 70
    11
 71
     3
 72
    56
 73
    52
 74
     0
 42
0.0000000001
 43
0.0000000001
 12
1.0
 22
0.0
 32
0.0
 13
1.0
 23
0.0
 33
0.0
 40
0.0
 40
0.0
 40
0.0
 40
0.0
 40
1.0
 40
1.0
 40
1.0
 40
2.0
 40
2.0
 40
2.0
 40
3.0
 40
3.0
 40
3.0
 40
4.0
 40
4.0
 40
4.0
 40
5.0
 40
5.0
 40
5.0
 40
6.0
 40
6.0
 40
6.0
 40
7.0
 40
7.0
 40
7.0
 40
8.0
 40
8.0
 40
8.0
 40
9.0
 40
9.0
 40
9.0
 40
10.0
 40
10.0
 40
10.0
 40
11.0
 40
11.0
 40
11.0
 40
12.0
 40
12.0
 40
12.0
 40
13.0
 40
13.0
 40
13.0
 40
14.0
 40
14.0
 40
14.0
 40
15.0
 40
15.0
 40
15.0
 40
16.0
 40
16.0
 40
16.0
 40
17.0
 40
17.0
 40
17.0
 40
17.0
 10
778.6431608926778
 20
-906.9291949738126
 30
0.0
 10
806.3721249074988
 20
-861.2975778599739
 30
0.0
 10
804.4064843527194
 20
-791.4312586222459
 30
0.0
 10
743.4924375935443
 20
-775.27479053965
 30
0.0
 10
687.8169458836292
 20
-760.4284341838938
 30
0.0
 10
643.4963864256752
 20
-813.4827565110882
 30
0.0
 10
645.6795906607222
 20
-866.1010055486986
 30
0.0
 10
646.7711927782475
 20
-892.3013482273691
 30
0.0
 10
660.0898737268963
 20
-915.2259386244223
 30
0.0
 10
678.4295460445392
 20
-933.3471013327526
 30
0.0
 10
687.8169458836292
 20
-942.5169374915731
 30
0.0
 10
698.5154033786021
 20
-950.3776078526007
 30
0.0
 10
709.6508800922038
 20
-957.3642397763742
 30
0.0
 10
721.4409397047002
 20
-964.7869449897298
 30
0.0
 10
735.8512227708743
 20
-971.7745228425483
 30
0.0
 10
741.7443607190326
 20
-985.0913119331071
 30
0.0
 10
751.1336524162125
 20
-1006.051207704426
 30
0.0
 10
732.1393971996731
 20
-1018.497742073909
 30
0.0
 10
716.855075696245
 20
-1017.406139956385
 30
0.0
 10
698.5154033786021
 20
-1015.877518620233
 30
0.0
 10
692.6203735723539
 20
-996.0092249664394
 30
0.0
 10
690.874188555932
 20
-980.5073397827418
 30
0.0
 10
689.3455672197815
 20
-965.2239642083568
 30
0.0
 10
647.862794895771
 20
-966.9701492247787
 30
0.0
 10
649.3914162319234
 20
-981.3813782199959
 30
0.0
 10
653.7578247020192
 20
-1021.772548426481
 30
0.0
 10
683.4505374135333
 20
-1040.766803643022
 30
0.0
 10
722.5325418222237
 20
-1038.801163088243
 30
0.0
 10
738.4695543664602
 20
-1037.929016509077
 30
0.0
 10
755.7176245665796
 20
-1034.217190937876
 30
0.0
 10
769.0363055152284
 20
-1024.827899240696
 30
0.0
 10
790.8702397238012
 20
-1009.545469595358
 30
0.0
 10
789.9962012865471
 20
-983.7821461353142
 30
0.0
 10
772.0935481875313
 20
-965.0054545990442
 30
0.0
 10
753.5344203315308
 20
-945.3556705545634
 30
0.0
 10
726.4619310736944
 20
-936.6219076853249
 30
0.0
 10
708.3398224363209
 20
-915.6620119140061
 30
0.0
 10
688.690984320885
 20
-892.9559311262656
 30
0.0
 10
681.921916077381
 20
-862.3891799774992
 30
0.0
 10
691.9657906734574
 20
-833.7880693835104
 30
0.0
 10
696.3321991435532
 20
-821.5609905523852
 30
0.0
 10
703.5363947475962
 20
-808.6793288223635
 30
0.0
 10
713.5802693436726
 20
-800.383531100797
 30
0.0
 10
721.2214841663426
 20
-794.2699916852343
 30
0.0
 10
725.1527652759014
 20
-793.6144628572929
 30
0.0
 10
734.1031458963625
 20
-798.199380936705
 30
0.0
 10
772.5305674061601
 20
-818.0676745904984
 30
0.0
 10
762.0496735914548
 20
-872.4330545735756
 30
0.0
 10
753.3168566512613
 20
-903.8728982305529
 30
0.0
 10
751.1336524162125
 20
-911.7326226625373
 30
0.0
 10
775.5859182203731
 20
-912.1696418811644
 30
0.0
 10
778.6431608926778
 20
-906.9291949738126
 30
0.0
  0
HATCH
  5
4A
330
41
100
AcDbEntity
  8
Layer 1
 62
     7
420
 16777215
100
AcDbHatch
 10
0.0
 20
0.0
 30
0.0
210
0.0
220
0.0
230
1.0
  2
SOLID
 70
     1
 71
     0
 91
        1
 92
        1
 93
        1
 72
     4
 94
        3
 73
     0
 74
     1
 95
       56
 96
       52
 40
0.0
 40
0.0
 40
0.0
 40
0.0
 40
1.0
 40
1.0
 40
1.0
 40
2.0
 40
2.0
 40
2.0
 40
3.0
 40
3.0
 40
3.0
 40
4.0
 40
4.0
 40
4.0
 40
5.0
 40
5.0
 40
5.0
 40
6.0
 40
6.0
 40
6.0
 40
7.0
 40
7.0
 40
7.0
 40
8.0
 40
8.0
 40
8.0
 40
9.0
 40
9.0
 40
9.0
 40
10.0
 40
10.0
 40
10.0
 40
11.0
 40
11.0
 40
11.0
 40
12.0
 40
12.0
 40
12.0
 40
13.0
 40
13.0
 40
13.0
 40
14.0
 40
14.0
 40
14.0
 40
15.0
 40
15.0
 40
15.0
 40
16.0
 40
16.0
 40
16.0
 40
17.0
 40
17.0
 40
17.0
 40
17.0
 10
778.6431608926778
 20
-906.9291949738126
 10
806.3721249074988
 20
-861.2975778599739
 10
804.4064843527194
 20
-791.4312586222459
 10
743.4924375935443
 20
-775.27479053965
 10
687.8169458836292
 20
-760.4284341838938
 10
643.4963864256752
 20
-813.4827565110882
 10
645.6795906607222
 20
-866.1010055486986
 10
646.7711927782475
 20
-892.3013482273691
 10
660.0898737268963
 20
-915.2259386244223
 10
678.4295460445392
 20
-933.3471013327526
 10
687.8169458836292
 20
-942.5169374915731
 10
698.5154033786021
 20
-950.3776078526007
 10
709.6508800922038
 20
-957.3642397763742
 10
721.4409397047002
 20
-964.7869449897298
 10
735.8512227708743
 20
-971.7745228425483
 10
741.7443607190326
 20
-985.0913119331071
 10
751.1336524162125
 20
-1006.051207704426
 10
732.1393971996731
 20
-1018.497742073909
 10
716.855075696245
 20
-1017.406139956385
 10
698.5154033786021
 20
-1015.877518620233
 10
692.6203735723539
 20
-996.0092249664394
 10
690.874188555932
 20
-980.5073397827418
 10
689.3455672197815
 20
-965.2239642083568
 10
647.862794895771
 20
-966.9701492247787
 10
649.3914162319234
 20
-981.3813782199959
 10
653.7578247020192
 20
-1021.772548426481
 10
683.4505374135333
 20
-1040.766803643022
 10
722.5325418222237
 20
-1038.801163088243
 10
738.4695543664602
 20
-1037.929016509077
 10
755.7176245665796
 20
-1034.217190937876
 10
769.0363055152284
 20
-1024.827899240696
 10
790.8702397238012
 20
-1009.545469595358
 10
789.9962012865471
 20
-983.7821461353142
 10
772.0935481875313
 20
-965.0054545990442
 10
753.5344203315308
 20
-945.3556705545634
 10
726.4619310736944
 20
-936.6219076853249
 10
708.3398224363209
 20
-915.6620119140061
 10
688.690984320885
 20
-892.9559311262656
 10
681.921916077381
 20
-862.3891799774992
 10
691.9657906734574
 20
-833.7880693835104
 10
696.3321991435532
 20
-821.5609905523852
 10
703.5363947475962
 20
-808.6793288223635
 10
713.5802693436726
 20
-800.383531100797
 10
721.2214841663426
 20
-794.2699916852343
 10
725.1527652759014
 20
-793.6144628572929
 10
734.1031458963625
 20
-798.199380936705
 10
772.5305674061601
 20
-818.0676745904984
 10
762.0496735914548
 20
-872.4330545735756
 10
753.3168566512613
 20
-903.8728982305529
 10
751.1336524162125
 20
-911.7326226625373
 10
775.5859182203731
 20
-912.1696418811644
 10
778.6431608926778
 20
-906.9291949738126
 97
        0
 97
        0
 75
     2
 76
     1
 98
        0
  0
SPLINE
  5
4B
330
41
100
AcDbEntity
  8
Layer 1
370
     0
100
AcDbSpline
210
0.0
220
0.0
230
1.0
 70
    11
 71
     3
 72
    29
 73
    25
 74
     0
 42
0.0000000001
 43
0.0000000001
 12
1.0
 22
0.0
 32
0.0
 13
1.0
 23
0.0
 33
0.0
 40
0.0
 40
0.0
 40
0.0
 40
0.0
 40
1.0
 40
1.0
 40
1.0
 40
2.0
 40
2.0
 40
2.0
 40
3.0
 40
3.0
 40
3.0
 40
4.0
 40
4.0
 40
4.0
 40
5.0
 40
5.0
 40
5.0
 40
6.0
 40
6.0
 40
6.0
 40
7.0
 40
7.0
 40
7.0
 40
8.0
 40
8.0
 40
8.0
 40
8.0
 10
238.6065937286476
 20
-305.2918365641908
 30
0.0
 10
239.0019920693103
 20
-292.4149044793921
 30
0.0
 10
239.2006371686866
 20
-279.5360805365044
 30
0.0
 10
239.2687440599011
 20
-266.6572565936167
 30
0.0
 10
287.1705908808954
 20
-262.8177306013895
 30
0.0
 10
333.515438494398
 20
-234.0066237594892
 30
0.0
 10
349.8875783991716
 20
-187.3600247807435
 30
0.0
 10
366.3353926275176
 20
-140.4996458379082
 30
0.0
 10
347.3260025462641
 20
-88.4546298013538
 30
0.0
 10
302.392481067377
 20
-66.13259620574172
 30
0.0
 10
275.6756611303281
 20
-52.86121170932529
 30
0.0
 10
245.2318807573647
 20
-52.32865365718771
 30
0.0
 10
216.066996452766
 20
-52.809185611869
 30
0.0
 10
209.901430939748
 20
-52.91134594869163
 30
0.0
 10
205.1093543995594
 20
-58.24449390241898
 30
0.0
 10
203.4237088419959
 20
-64.06668717222965
 30
0.0
 10
199.3940511117935
 20
-68.06039959873488
 30
0.0
 10
197.4889500158715
 20
-73.98475320536818
 30
0.0
 10
197.6346230887475
 20
-80.18437216399343
 30
0.0
 10
199.3940511117935
 20
-155.2996516704761
 30
0.0
 10
199.479184725812
 20
-230.5729013274158
 30
0.0
 10
206.0060951338855
 20
-305.4583200760489
 30
0.0
 10
207.5895803546273
 20
-323.6324548108778
 30
0.0
 10
238.0333607275907
 20
-323.9890700607102
 30
0.0
 10
238.6065937286476
 20
-305.2918365641908
 30
0.0
  0
SPLINE
  5
4C
330
41
100
AcDbEntity
  8
Layer 1
370
     0
100
AcDbSpline
210
0.0
220
0.0
230
1.0
 70
    11
 71
     3
 72
    17
 73
    13
 74
     0
 42
0.0000000001
 43
0.0000000001
 12
1.0
 22
0.0
 32
0.0
 13
1.0
 23
0.0
 33
0.0
 40
0.0
 40
0.0
 40
0.0
 40
0.0
 40
1.0
 40
1.0
 40
1.0
 40
2.0
 40
2.0
 40
2.0
 40
3.0
 40
3.0
 40
3.0
 40
4.0
 40
4.0
 40
4.0
 40
4.0
 10
318.0438230401287
 20
-122.9517161306358
 30
0.0
 10
333.4738176164328
 20
-155.5550525125309
 30
0.0
 10
320.2345947075346
 20
-193.1727587601081
 30
0.0
 10
292.4848202537296
 20
-214.6235917055992
 30
0.0
 10
277.0018536509251
 20
-226.5933778365797
 30
0.0
 10
258.4200234978525
 20
-232.8677251897325
 30
0.0
 10
239.1722592973474
 20
-234.990389965923
 30
0.0
 10
238.6084855867366
 20
-184.496697562593
 30
0.0
 10
236.3136617244199
 20
-134.0067888754411
 30
0.0
 10
234.5939627212492
 20
-83.5386365563163
 30
0.0
 10
267.0885172630096
 20
-84.38429712223206
 30
0.0
 10
302.9430117713619
 20
-91.0417457384674
 30
0.0
 10
318.0438230401287
 20
-122.9517161306358
 30
0.0
  0
HATCH
  5
4D
330
41
100
AcDbEntity
  8
Layer 1
 62
     7
420
 16777215
100
AcDbHatch
 10
0.0
 20
0.0
 30
0.0
210
0.0
220
0.0
230
1.0
  2
SOLID
 70
     1
 71
     0
 91
        2
 92
        1
 93
        1
 72
     4
 94
        3
 73
     0
 74
     1
 95
       29
 96
       25
 40
0.0
 40
0.0
 40
0.0
 40
0.0
 40
1.0
 40
1.0
 40
1.0
 40
2.0
 40
2.0
 40
2.0
 40
3.0
 40
3.0
 40
3.0
 40
4.0
 40
4.0
 40
4.0
 40
5.0
 40
5.0
 40
5.0
 40
6.0
 40
6.0
 40
6.0
 40
7.0
 40
7.0
 40
7.0
 40
8.0
 40
8.0
 40
8.0
 40
8.0
 10
238.6065937286476
 20
-305.2918365641908
 10
239.0019920693103
 20
-292.4149044793921
 10
239.2006371686866
 20
-279.5360805365044
 10
239.2687440599011
 20
-266.6572565936167
 10
287.1705908808954
 20
-262.8177306013895
 10
333.515438494398
 20
-234.0066237594892
 10
349.8875783991716
 20
-187.3600247807435
 10
366.3353926275176
 20
-140.4996458379082
 10
347.3260025462641
 20
-88.4546298013538
 10
302.392481067377
 20
-66.13259620574172
 10
275.6756611303281
 20
-52.86121170932529
 10
245.2318807573647
 20
-52.32865365718771
 10
216.066996452766
 20
-52.809185611869
 10
209.901430939748
 20
-52.91134594869163
 10
205.1093543995594
 20
-58.24449390241898
 10
203.4237088419959
 20
-64.06668717222965
 10
199.3940511117935
 20
-68.06039959873488
 10
197.4889500158715
 20
-73.98475320536818
 10
197.6346230887475
 20
-80.18437216399343
 10
199.3940511117935
 20
-155.2996516704761
 10
199.479184725812
 20
-230.5729013274158
 10
206.0060951338855
 20
-305.4583200760489
 10
207.5895803546273
 20
-323.6324548108778
 10
238.0333607275907
 20
-323.9890700607102
 10
238.6065937286476
 20
-305.2918365641908
 97
        0
 97
        0
 92
        1
 93
        1
 72
     4
 94
        3
 73
     0
 74
     1
 95
       17
 96
       13
 40
0.0
 40
0.0
 40
0.0
 40
0.0
 40
1.0
 40
1.0
 40
1.0
 40
2.0
 40
2.0
 40
2.0
 40
3.0
 40
3.0
 40
3.0
 40
4.0
 40
4.0
 40
4.0
 40
4.0
 10
318.0438230401287
 20
-122.9517161306358
 10
333.4738176164328
 20
-155.5550525125309
 10
320.2345947075346
 20
-193.1727587601081
 10
292.4848202537296
 20
-214.6235917055992
 10
277.0018536509251
 20
-226.5933778365797
 10
258.4200234978525
 20
-232.8677251897325
 10
239.1722592973474
 20
-234.990389965923
 10
238.6084855867366
 20
-184.496697562593
 10
236.3136617244199
 20
-134.0067888754411
 10
234.5939627212492
 20
-83.5386365563163
 10
267.0885172630096
 20
-84.38429712223206
 10
302.9430117713619
 20
-91.0417457384674
 10
318.0438230401287
 20
-122.9517161306358
 97
        0
 97
        0
 75
     2
 76
     1
 98
        0
  0
SPLINE
  5
4E
330
41
100
AcDbEntity
  8
Layer 1
370
     0
100
AcDbSpline
210
0.0
220
0.0
230
1.0
 70
    11
 71
     3
 72
    53
 73
    49
 74
     0
 42
0.0000000001
 43
0.0000000001
 12
1.0
 22
0.0
 32
0.0
 13
1.0
 23
0.0
 33
0.0
 40
0.0
 40
0.0
 40
0.0
 40
0.0
 40
1.0
 40
1.0
 40
1.0
 40
2.0
 40
2.0
 40
2.0
 40
3.0
 40
3.0
 40
3.0
 40
4.0
 40
4.0
 40
4.0
 40
5.0
 40
5.0
 40
5.0
 40
6.0
 40
6.0
 40
6.0
 40
7.0
 40
7.0
 40
7.0
 40
8.0
 40
8.0
 40
8.0
 40
9.0
 40
9.0
 40
9.0
 40
10.0
 40
10.0
 40
10.0
 40
11.0
 40
11.0
 40
11.0
 40
12.0
 40
12.0
 40
12.0
 40
13.0
 40
13.0
 40
13.0
 40
14.0
 40
14.0
 40
14.0
 40
15.0
 40
15.0
 40
15.0
 40
16.0
 40
16.0
 40
16.0
 40
16.0
 10
403.8358036735581
 20
-281.8044183855718
 30
0.0
 10
412.4588928445728
 20
-280.5917373503326
 30
0.0
 10
416.8669221926339
 20
-273.0470072902172
 30
0.0
 10
416.5207121622925
 20
-264.9706651070092
 30
0.0
 10
415.8963989928252
 20
-250.3967363161119
 30
0.0
 10
415.137763899017
 20
-235.8398342480177
 30
0.0
 10
414.3431835015117
 20
-221.2876618251466
 30
0.0
 10
414.7991213010328
 20
-221.5090092215951
 30
0.0
 10
415.268302107178
 20
-221.7029246757475
 30
0.0
 10
415.7715363589314
 20
-221.8429221743554
 30
0.0
 10
425.1948815017186
 20
-224.4413892600051
 30
0.0
 10
434.6201185025948
 20
-227.0417482037428
 30
0.0
 10
444.043463645382
 20
-229.6411612184365
 30
0.0
 10
453.3324868638292
 20
-232.203683000389
 30
0.0
 10
463.2609581164579
 20
-234.1002707349089
 30
0.0
 10
472.088367961117
 20
-237.9937146826824
 30
0.0
 10
489.2191429596987
 20
-245.5497958913329
 30
0.0
 10
497.624668450444
 20
-215.4068209545676
 30
0.0
 10
478.6644666795128
 20
-213.2084818548055
 30
0.0
 10
469.7065186266918
 20
-212.1698517637815
 30
0.0
 10
460.8469471945155
 20
-209.0435562712182
 30
0.0
 10
452.1406162675721
 20
-206.7118411761603
 30
0.0
 10
449.2158036615192
 20
-205.928611927191
 30
0.0
 10
446.2909910554663
 20
-205.1463286072667
 30
0.0
 10
443.3661784494134
 20
-204.3612075002093
 30
0.0
 10
470.5805570639477
 20
-187.1859738365283
 30
0.0
 10
494.8001243231247
 20
-164.680430006254
 30
0.0
 10
502.9899779916905
 20
-132.2729009366012
 30
0.0
 10
511.8930621599202
 20
-97.04271959771631
 30
0.0
 10
493.8712220012794
 20
-59.21596303127262
 30
0.0
 10
461.073970165231
 20
-43.71880749279808
 30
0.0
 10
442.5451120386588
 20
-34.96423418457744
 30
0.0
 10
421.3619770128034
 20
-34.55464690824465
 30
0.0
 10
402.1104290961193
 20
-40.98412662472037
 30
0.0
 10
401.2155802198822
 20
-41.28209427378442
 30
0.0
 10
400.4115405319308
 20
-41.72478906667948
 30
0.0
 10
399.6793914513728
 20
-42.25734711881705
 30
0.0
 10
398.3077943366325
 20
-41.61411536845571
 30
0.0
 10
396.78295671666
 20
-41.16101535606867
 30
0.0
 10
395.0992030171856
 20
-40.9443976048442
 30
0.0
 10
387.370962722408
 20
-39.94549653369631
 30
0.0
 10
377.7868096420307
 20
-45.95309189625823
 30
0.0
 10
377.550327380869
 20
-54.45321029146817
 30
0.0
 10
375.5563089547504
 20
-125.8207189230543
 30
0.0
 10
375.3652312877311
 20
-198.5342845851746
 30
0.0
 10
387.0020503949954
 20
-269.1185639677924
 30
0.0
 10
388.3112161927884
 20
-277.0643679428385
 30
0.0
 10
395.7235161866538
 20
-282.9442628843726
 30
0.0
 10
403.8358036735581
 20
-281.8044183855718
 30
0.0
  0
SPLINE
  5
4F
330
41
100
AcDbEntity
  8
Layer 1
370
     0
100
AcDbSpline
210
0.0
220
0.0
230
1.0
 70
    11
 71
     3
 72
    20
 73
    16
 74
     0
 42
0.0000000001
 43
0.0000000001
 12
1.0
 22
0.0
 32
0.0
 13
1.0
 23
0.0
 33
0.0
 40
0.0
 40
0.0
 40
0.0
 40
0.0
 40
1.0
 40
1.0
 40
1.0
 40
2.0
 40
2.0
 40
2.0
 40
3.0
 40
3.0
 40
3.0
 40
4.0
 40
4.0
 40
4.0
 40
5.0
 40
5.0
 40
5.0
 40
5.0
 10
408.5711244710674
 20
-63.2276481096269
 30
0.0
 10
409.537863954698
 20
-63.10656919191115
 30
0.0
 10
410.5083871545075
 20
-62.90130258922272
 30
0.0
 10
411.4637754896021
 20
-62.58914600448861
 30
0.0
 10
444.336701649223
 20
-51.85947285104248
 30
0.0
 10
478.0874499622769
 20
-75.92390774689738
 30
0.0
 10
480.8911836506149
 20
-109.7257362283617
 30
0.0
 10
484.0070739236862
 20
-147.2980378817956
 30
0.0
 10
447.7647485070283
 20
-173.5948653230207
 30
0.0
 10
419.2828249726663
 20
-190.2034874889569
 30
0.0
 10
416.5074691556674
 20
-191.8219720843499
 30
0.0
 10
414.2580498874941
 20
-194.1167959466675
 30
0.0
 10
412.9886131095755
 20
-196.8003966463348
 30
0.0
 10
410.5159545868646
 20
-152.3209211088788
 30
0.0
 10
408.1776179884937
 20
-107.867931584673
 30
0.0
 10
408.5711244710674
 20
-63.2276481096269
 30
0.0
  0
HATCH
  5
50
330
41
100
AcDbEntity
  8
Layer 1
 62
     7
420
 16777215
100
AcDbHatch
 10
0.0
 20
0.0
 30
0.0
210
0.0
220
0.0
230
1.0
  2
SOLID
 70
     1
 71
     0
 91
        2
 92
        1
 93
        1
 72
     4
 94
        3
 73
     0
 74
     1
 95
       53
 96
       49
 40
0.0
 40
0.0
 40
0.0
 40
0.0
 40
1.0
 40
1.0
 40
1.0
 40
2.0
 40
2.0
 40
2.0
 40
3.0
 40
3.0
 40
3.0
 40
4.0
 40
4.0
 40
4.0
 40
5.0
 40
5.0
 40
5.0
 40
6.0
 40
6.0
 40
6.0
 40
7.0
 40
7.0
 40
7.0
 40
8.0
 40
8.0
 40
8.0
 40
9.0
 40
9.0
 40
9.0
 40
10.0
 40
10.0
 40
10.0
 40
11.0
 40
11.0
 40
11.0
 40
12.0
 40
12.0
 40
12.0
 40
13.0
 40
13.0
 40
13.0
 40
14.0
 40
14.0
 40
14.0
 40
15.0
 40
15.0
 40
15.0
 40
16.0
 40
16.0
 40
16.0
 40
16.0
 10
403.8358036735581
 20
-281.8044183855718
 10
412.4588928445728
 20
-280.5917373503326
 10
416.8669221926339
 20
-273.0470072902172
 10
416.5207121622925
 20
-264.9706651070092
 10
415.8963989928252
 20
-250.3967363161119
 10
415.137763899017
 20
-235.8398342480177
 10
414.3431835015117
 20
-221.2876618251466
 10
414.7991213010328
 20
-221.5090092215951
 10
415.268302107178
 20
-221.7029246757475
 10
415.7715363589314
 20
-221.8429221743554
 10
425.1948815017186
 20
-224.4413892600051
 10
434.6201185025948
 20
-227.0417482037428
 10
444.043463645382
 20
-229.6411612184365
 10
453.3324868638292
 20
-232.203683000389
 10
463.2609581164579
 20
-234.1002707349089
 10
472.088367961117
 20
-237.9937146826824
 10
489.2191429596987
 20
-245.5497958913329
 10
497.624668450444
 20
-215.4068209545676
 10
478.6644666795128
 20
-213.2084818548055
 10
469.7065186266918
 20
-212.1698517637815
 10
460.8469471945155
 20
-209.0435562712182
 10
452.1406162675721
 20
-206.7118411761603
 10
449.2158036615192
 20
-205.928611927191
 10
446.2909910554663
 20
-205.1463286072667
 10
443.3661784494134
 20
-204.3612075002093
 10
470.5805570639477
 20
-187.1859738365283
 10
494.8001243231247
 20
-164.680430006254
 10
502.9899779916905
 20
-132.2729009366012
 10
511.8930621599202
 20
-97.04271959771631
 10
493.8712220012794
 20
-59.21596303127262
 10
461.073970165231
 20
-43.71880749279808
 10
442.5451120386588
 20
-34.96423418457744
 10
421.3619770128034
 20
-34.55464690824465
 10
402.1104290961193
 20
-40.98412662472037
 10
401.2155802198822
 20
-41.28209427378442
 10
400.4115405319308
 20
-41.72478906667948
 10
399.6793914513728
 20
-42.25734711881705
 10
398.3077943366325
 20
-41.61411536845571
 10
396.78295671666
 20
-41.16101535606867
 10
395.0992030171856
 20
-40.9443976048442
 10
387.370962722408
 20
-39.94549653369631
 10
377.7868096420307
 20
-45.95309189625823
 10
377.550327380869
 20
-54.45321029146817
 10
375.5563089547504
 20
-125.8207189230543
 10
375.3652312877311
 20
-198.5342845851746
 10
387.0020503949954
 20
-269.1185639677924
 10
388.3112161927884
 20
-277.0643679428385
 10
395.7235161866538
 20
-282.9442628843726
 10
403.8358036735581
 20
-281.8044183855718
 97
        0
 97
        0
 92
        1
 93
        1
 72
     4
 94
        3
 73
     0
 74
     1
 95
       20
 96
       16
 40
0.0
 40
0.0
 40
0.0
 40
0.0
 40
1.0
 40
1.0
 40
1.0
 40
2.0
 40
2.0
 40
2.0
 40
3.0
 40
3.0
 40
3.0
 40
4.0
 40
4.0
 40
4.0
 40
5.0
 40
5.0
 40
5.0
 40
5.0
 10
408.5711244710674
 20
-63.2276481096269
 10
409.537863954698
 20
-63.10656919191115
 10
410.5083871545075
 20
-62.90130258922272
 10
411.4637754896021
 20
-62.58914600448861
 10
444.336701649223
 20
-51.85947285104248
 10
478.0874499622769
 20
-75.92390774689738
 10
480.8911836506149
 20
-109.7257362283617
 10
484.0070739236862
 20
-147.2980378817956
 10
447.7647485070283
 20
-173.5948653230207
 10
419.2828249726663
 20
-190.2034874889569
 10
416.5074691556674
 20
-191.8219720843499
 10
414.2580498874941
 20
-194.1167959466675
 10
412.9886131095755
 20
-196.8003966463348
 10
410.5159545868646
 20
-152.3209211088788
 10
408.1776179884937
 20
-107.867931584673
 10
408.5711244710674
 20
-63.2276481096269
 97
        0
 97
        0
 75
     2
 76
     1
 98
        0
  0
SPLINE
  5
51
330
41
100
AcDbEntity
  8
Layer 1
370
     0
100
AcDbSpline
210
0.0
220
0.0
230
1.0
 70
    11
 71
     3
 72
    68
 73
    64
 74
     0
 42
0.0000000001
 43
0.0000000001
 12
1.0
 22
0.0
 32
0.0
 13
1.0
 23
0.0
 33
0.0
 40
0.0
 40
0.0
 40
0.0
 40
0.0
 40
1.0
 40
1.0
 40
1.0
 40
2.0
 40
2.0
 40
2.0
 40
3.0
 40
3.0
 40
3.0
 40
4.0
 40
4.0
 40
4.0
 40
5.0
 40
5.0
 40
5.0
 40
6.0
 40
6.0
 40
6.0
 40
7.0
 40
7.0
 40
7.0
 40
8.0
 40
8.0
 40
8.0
 40
9.0
 40
9.0
 40
9.0
 40
10.0
 40
10.0
 40
10.0
 40
11.0
 40
11.0
 40
11.0
 40
12.0
 40
12.0
 40
12.0
 40
13.0
 40
13.0
 40
13.0
 40
14.0
 40
14.0
 40
14.0
 40
15.0
 40
15.0
 40
15.0
 40
16.0
 40
16.0
 40
16.0
 40
17.0
 40
17.0
 40
17.0
 40
18.0
 40
18.0
 40
18.0
 40
19.0
 40
19.0
 40
19.0
 40
20.0
 40
20.0
 40
20.0
 40
21.0
 40
21.0
 40
21.0
 40
21.0
 10
523.7852821092401
 20
-158.805264709943
 30
0.0
 10
530.3065169430456
 20
-163.7203120259364
 30
0.0
 10
541.0125418703756
 20
-162.76870740702
 30
0.0
 10
545.7838079715857
 20
-155.713968592032
 30
0.0
 10
556.4728061761125
 20
-139.9093861140473
 30
0.0
 10
570.1376971551035
 20
-126.8886728144626
 30
0.0
 10
586.2733547987154
 20
-116.6925036421972
 30
0.0
 10
598.7539426138064
 20
-108.8053472679194
 30
0.0
 10
619.7403243983754
 20
-98.60444845043094
 30
0.0
 10
632.1660483288761
 20
-110.7549070289397
 30
0.0
 10
636.1332747421311
 20
-114.6341620410421
 30
0.0
 10
638.9805211665225
 20
-123.0340119575203
 30
0.0
 10
639.9661792310471
 20
-128.130677650086
 30
0.0
 10
640.8477851006592
 20
-132.7061364390502
 30
0.0
 10
641.1921032729115
 20
-137.3478102611389
 30
0.0
 10
641.419126243627
 20
-141.9951596574965
 30
0.0
 10
641.4531796892334
 20
-142.6894715762683
 30
0.0
 10
641.5723667488601
 20
-147.4739806840998
 30
0.0
 10
641.6026364782883
 20
-147.057771904455
 30
0.0
 10
641.5950690459304
 20
-149.2911103788701
 30
0.0
 10
641.54209701943
 20
-151.5282325694634
 30
0.0
 10
641.4910168510196
 20
-153.7596791857886
 30
0.0
 10
641.2356160089639
 20
-164.7485368974685
 30
0.0
 10
641.116428949339
 20
-175.7355027510603
 30
0.0
 10
641.0464302000346
 20
-186.7224686046502
 30
0.0
 10
625.6845425149459
 20
-179.7689441974408
 30
0.0
 10
608.4799850508807
 20
-176.8507530946999
 30
0.0
 10
591.7805536966589
 20
-179.2326024291251
 30
0.0
 10
565.5121041267721
 20
-182.9765895878427
 30
0.0
 10
541.7730688222764
 20
-199.3014330403848
 30
0.0
 10
529.7143653610965
 20
-223.0092526864073
 30
0.0
 10
517.4570168005421
 20
-247.1049032407354
 30
0.0
 10
519.8029208312701
 20
-278.1323218342468
 30
0.0
 10
535.9366866167929
 20
-299.8536904865068
 30
0.0
 10
550.7083145780252
 20
-319.7427945792842
 30
0.0
 10
578.0626906911675
 20
-331.1166454121358
 30
0.0
 10
602.5471180828463
 20
-326.2129492446784
 30
0.0
 10
618.8549348125835
 20
-322.9466562535081
 30
0.0
 10
631.5417351594078
 20
-314.3737013218597
 30
0.0
 10
642.0434394130934
 20
-303.2420083244378
 30
0.0
 10
642.289380964703
 20
-305.8262864744174
 30
0.0
 10
642.5599166714728
 20
-308.4077268372621
 30
0.0
 10
642.8890999790092
 20
-310.9759241934826
 30
0.0
 10
645.8271555916872
 20
-334.0121342178045
 30
0.0
 10
681.4527352712357
 20
-334.2013200267347
 30
0.0
 10
683.9859332528031
 20
-310.7668738746152
 30
0.0
 10
687.0091224794996
 20
-282.7683200820684
 30
0.0
 10
684.8959169937552
 20
-253.8351883934083
 30
0.0
 10
684.3302514250554
 20
-225.7117719669677
 30
0.0
 10
683.7948555857838
 20
-199.174678548402
 30
0.0
 10
683.7645858563556
 20
-172.5638026643537
 30
0.0
 10
682.0051578333096
 20
-146.0711679108863
 30
0.0
 10
680.3270797081041
 20
-120.791214192659
 30
0.0
 10
671.7077742532674
 20
-98.2317524068394
 30
0.0
 10
650.0914037249622
 20
-83.69187706154935
 30
0.0
 10
628.0701755655482
 20
-68.87862822235547
 30
0.0
 10
602.3068521055047
 20
-71.51209468265733
 30
0.0
 10
579.7237420935708
 20
-83.81106412117515
 30
0.0
 10
556.249566921575
 20
-96.59529515959821
 30
0.0
 10
535.5583149989334
 20
-114.4922726843452
 30
0.0
 10
520.6939859913291
 20
-136.8076847766451
 30
0.0
 10
515.992718639427
 20
-143.8652613787672
 30
0.0
 10
516.7305432942521
 20
-153.4910353371088
 30
0.0
 10
523.7852821092401
 20
-158.805264709943
 30
0.0
  0
SPLINE
  5
52
330
41
100
AcDbEntity
  8
Layer 1
370
     0
100
AcDbSpline
210
0.0
220
0.0
230
1.0
 70
    11
 71
     3
 72
    26
 73
    22
 74
     0
 42
0.0000000001
 43
0.0000000001
 12
1.0
 22
0.0
 32
0.0
 13
1.0
 23
0.0
 33
0.0
 40
0.0
 40
0.0
 40
0.0
 40
0.0
 40
1.0
 40
1.0
 40
1.0
 40
2.0
 40
2.0
 40
2.0
 40
3.0
 40
3.0
 40
3.0
 40
4.0
 40
4.0
 40
4.0
 40
5.0
 40
5.0
 40
5.0
 40
6.0
 40
6.0
 40
6.0
 40
7.0
 40
7.0
 40
7.0
 40
7.0
 10
640.9518372955699
 20
-225.9331193634152
 30
0.0
 10
640.9423780051238
 20
-234.2752676081691
 30
0.0
 10
640.7967049322469
 20
-242.6902523893614
 30
0.0
 10
640.6869771630681
 20
-251.1288853966689
 30
0.0
 10
631.8065952919096
 20
-266.7830651565555
 30
0.0
 10
621.6113720486901
 20
-284.5873416349268
 30
0.0
 10
604.5978922516442
 20
-292.3628783819368
 30
0.0
 10
591.1732672499929
 20
-298.4991200945706
 30
0.0
 10
575.0792304843471
 20
-295.2262056000873
 30
0.0
 10
564.322125388604
 20
-284.5334236793824
 30
0.0
 10
553.2604311404866
 20
-273.5426741096126
 30
0.0
 10
550.5702089375063
 20
-255.3467830067566
 30
0.0
 10
556.2230809083248
 20
-240.6442078657865
 30
0.0
 10
561.9932480806801
 20
-225.6389354305293
 30
0.0
 10
576.1292117239063
 20
-214.5394040206256
 30
0.0
 10
591.1505649529227
 20
-211.0470339877838
 30
0.0
 10
609.0361913291345
 20
-206.8877839784645
 30
0.0
 10
626.6210122691464
 20
-212.1386361053083
 30
0.0
 10
640.9537291536599
 20
-222.6583130108429
 30
0.0
 10
640.9537291536599
 20
-223.7499151283664
 30
0.0
 10
640.9518372955699
 20
-224.8405713168468
 30
0.0
 10
640.9518372955699
 20
-225.9331193634152
 30
0.0
  0
HATCH
  5
53
330
41
100
AcDbEntity
  8
Layer 1
 62
     7
420
 16777215
100
AcDbHatch
 10
0.0
 20
0.0
 30
0.0
210
0.0
220
0.0
230
1.0
  2
SOLID
 70
     1
 71
     0
 91
        2
 92
        1
 93
        1
 72
     4
 94
        3
 73
     0
 74
     1
 95
       68
 96
       64
 40
0.0
 40
0.0
 40
0.0
 40
0.0
 40
1.0
 40
1.0
 40
1.0
 40
2.0
 40
2.0
 40
2.0
 40
3.0
 40
3.0
 40
3.0
 40
4.0
 40
4.0
 40
4.0
 40
5.0
 40
5.0
 40
5.0
 40
6.0
 40
6.0
 40
6.0
 40
7.0
 40
7.0
 40
7.0
 40
8.0
 40
8.0
 40
8.0
 40
9.0
 40
9.0
 40
9.0
 40
10.0
 40
10.0
 40
10.0
 40
11.0
 40
11.0
 40
11.0
 40
12.0
 40
12.0
 40
12.0
 40
13.0
 40
13.0
 40
13.0
 40
14.0
 40
14.0
 40
14.0
 40
15.0
 40
15.0
 40
15.0
 40
16.0
 40
16.0
 40
16.0
 40
17.0
 40
17.0
 40
17.0
 40
18.0
 40
18.0
 40
18.0
 40
19.0
 40
19.0
 40
19.0
 40
20.0
 40
20.0
 40
20.0
 40
21.0
 40
21.0
 40
21.0
 40
21.0
 10
523.7852821092401
 20
-158.805264709943
 10
530.3065169430456
 20
-163.7203120259364
 10
541.0125418703756
 20
-162.76870740702
 10
545.7838079715857
 20
-155.713968592032
 10
556.4728061761125
 20
-139.9093861140473
 10
570.1376971551035
 20
-126.8886728144626
 10
586.2733547987154
 20
-116.6925036421972
 10
598.7539426138064
 20
-108.8053472679194
 10
619.7403243983754
 20
-98.60444845043094
 10
632.1660483288761
 20
-110.7549070289397
 10
636.1332747421311
 20
-114.6341620410421
 10
638.9805211665225
 20
-123.0340119575203
 10
639.9661792310471
 20
-128.130677650086
 10
640.8477851006592
 20
-132.7061364390502
 10
641.1921032729115
 20
-137.3478102611389
 10
641.419126243627
 20
-141.9951596574965
 10
641.4531796892334
 20
-142.6894715762683
 10
641.5723667488601
 20
-147.4739806840998
 10
641.6026364782883
 20
-147.057771904455
 10
641.5950690459304
 20
-149.2911103788701
 10
641.54209701943
 20
-151.5282325694634
 10
641.4910168510196
 20
-153.7596791857886
 10
641.2356160089639
 20
-164.7485368974685
 10
641.116428949339
 20
-175.7355027510603
 10
641.0464302000346
 20
-186.7224686046502
 10
625.6845425149459
 20
-179.7689441974408
 10
608.4799850508807
 20
-176.8507530946999
 10
591.7805536966589
 20
-179.2326024291251
 10
565.5121041267721
 20
-182.9765895878427
 10
541.7730688222764
 20
-199.3014330403848
 10
529.7143653610965
 20
-223.0092526864073
 10
517.4570168005421
 20
-247.1049032407354
 10
519.8029208312701
 20
-278.1323218342468
 10
535.9366866167929
 20
-299.8536904865068
 10
550.7083145780252
 20
-319.7427945792842
 10
578.0626906911675
 20
-331.1166454121358
 10
602.5471180828463
 20
-326.2129492446784
 10
618.8549348125835
 20
-322.9466562535081
 10
631.5417351594078
 20
-314.3737013218597
 10
642.0434394130934
 20
-303.2420083244378
 10
642.289380964703
 20
-305.8262864744174
 10
642.5599166714728
 20
-308.4077268372621
 10
642.8890999790092
 20
-310.9759241934826
 10
645.8271555916872
 20
-334.0121342178045
 10
681.4527352712357
 20
-334.2013200267347
 10
683.9859332528031
 20
-310.7668738746152
 10
687.0091224794996
 20
-282.7683200820684
 10
684.8959169937552
 20
-253.8351883934083
 10
684.3302514250554
 20
-225.7117719669677
 10
683.7948555857838
 20
-199.174678548402
 10
683.7645858563556
 20
-172.5638026643537
 10
682.0051578333096
 20
-146.0711679108863
 10
680.3270797081041
 20
-120.791214192659
 10
671.7077742532674
 20
-98.2317524068394
 10
650.0914037249622
 20
-83.69187706154935
 10
628.0701755655482
 20
-68.87862822235547
 10
602.3068521055047
 20
-71.51209468265733
 10
579.7237420935708
 20
-83.81106412117515
 10
556.249566921575
 20
-96.59529515959821
 10
535.5583149989334
 20
-114.4922726843452
 10
520.6939859913291
 20
-136.8076847766451
 10
515.992718639427
 20
-143.8652613787672
 10
516.7305432942521
 20
-153.4910353371088
 10
523.7852821092401
 20
-158.805264709943
 97
        0
 97
        0
 92
        1
 93
        1
 72
     4
 94
        3
 73
     0
 74
     1
 95
       26
 96
       22
 40
0.0
 40
0.0
 40
0.0
 40
0.0
 40
1.0
 40
1.0
 40
1.0
 40
2.0
 40
2.0
 40
2.0
 40
3.0
 40
3.0
 40
3.0
 40
4.0
 40
4.0
 40
4.0
 40
5.0
 40
5.0
 40
5.0
 40
6.0
 40
6.0
 40
6.0
 40
7.0
 40
7.0
 40
7.0
 40
7.0
 10
640.9518372955699
 20
-225.9331193634152
 10
640.9423780051238
 20
-234.2752676081691
 10
640.7967049322469
 20
-242.6902523893614
 10
640.6869771630681
 20
-251.1288853966689
 10
631.8065952919096
 20
-266.7830651565555
 10
621.6113720486901
 20
-284.5873416349268
 10
604.5978922516442
 20
-292.3628783819368
 10
591.1732672499929
 20
-298.4991200945706
 10
575.0792304843471
 20
-295.2262056000873
 10
564.322125388604
 20
-284.5334236793824
 10
553.2604311404866
 20
-273.5426741096126
 10
550.5702089375063
 20
-255.3467830067566
 10
556.2230809083248
 20
-240.6442078657865
 10
561.9932480806801
 20
-225.6389354305293
 10
576.1292117239063
 20
-214.5394040206256
 10
591.1505649529227
 20
-211.0470339877838
 10
609.0361913291345
 20
-206.8877839784645
 10
626.6210122691464
 20
-212.1386361053083
 10
640.9537291536599
 20
-222.6583130108429
 10
640.9537291536599
 20
-223.7499151283664
 10
640.9518372955699
 20
-224.8405713168468
 10
640.9518372955699
 20
-225.9331193634152
 97
        0
 97
        0
 75
     2
 76
     1
 98
        0
  0
SPLINE
  5
54
330
41
100
AcDbEntity
  8
Layer 1
370
     0
100
AcDbSpline
210
0.0
220
0.0
230
1.0
 70
    11
 71
     3
 72
    92
 73
    88
 74
     0
 42
0.0000000001
 43
0.0000000001
 12
1.0
 22
0.0
 32
0.0
 13
1.0
 23
0.0
 33
0.0
 40
0.0
 40
0.0
 40
0.0
 40
0.0
 40
1.0
 40
1.0
 40
1.0
 40
2.0
 40
2.0
 40
2.0
 40
3.0
 40
3.0
 40
3.0
 40
4.0
 40
4.0
 40
4.0
 40
5.0
 40
5.0
 40
5.0
 40
6.0
 40
6.0
 40
6.0
 40
7.0
 40
7.0
 40
7.0
 40
8.0
 40
8.0
 40
8.0
 40
9.0
 40
9.0
 40
9.0
 40
10.0
 40
10.0
 40
10.0
 40
11.0
 40
11.0
 40
11.0
 40
12.0
 40
12.0
 40
12.0
 40
13.0
 40
13.0
 40
13.0
 40
14.0
 40
14.0
 40
14.0
 40
15.0
 40
15.0
 40
15.0
 40
16.0
 40
16.0
 40
16.0
 40
17.0
 40
17.0
 40
17.0
 40
18.0
 40
18.0
 40
18.0
 40
19.0
 40
19.0
 40
19.0
 40
20.0
 40
20.0
 40
20.0
 40
21.0
 40
21.0
 40
21.0
 40
22.0
 40
22.0
 40
22.0
 40
23.0
 40
23.0
 40
23.0
 40
24.0
 40
24.0
 40
24.0
 40
25.0
 40
25.0
 40
25.0
 40
26.0
 40
26.0
 40
26.0
 40
27.0
 40
27.0
 40
27.0
 40
28.0
 40
28.0
 40
28.0
 40
29.0
 40
29.0
 40
29.0
 40
29.0
 10
722.0103889895781
 20
-227.6471427923179
 30
0.0
 10
740.5316796837942
 20
-249.2228383717029
 30
0.0
 10
770.0579088834493
 20
-250.1791726358424
 30
0.0
 10
792.3648076143472
 20
-233.6556840839248
 30
0.0
 10
812.8952515993951
 20
-218.4489287621573
 30
0.0
 10
825.5290799197192
 20
-192.5389863001938
 30
0.0
 10
835.31566181565
 20
-169.6512871358809
 30
0.0
 10
836.9483353467131
 20
-165.8306797245468
 30
0.0
 10
838.5412798579018
 20
-161.9939915194527
 30
0.0
 10
840.1096302139285
 20
-158.1450062367785
 30
0.0
 10
839.2091057634243
 20
-178.2327554289313
 30
0.0
 10
837.2056280468587
 20
-198.2788837431199
 30
0.0
 10
834.0935214899655
 20
-218.2115005719506
 30
0.0
 10
831.3238412472347
 20
-235.9542916624205
 30
0.0
 10
828.5125401265395
 20
-256.0751483711356
 30
0.0
 10
814.6565714805292
 20
-266.4548277780623
 30
0.0
 10
814.3822520575814
 20
-266.6600943807507
 30
0.0
 10
812.9349806192695
 20
-267.6466983743194
 30
0.0
 10
812.1044549180697
 20
-268.2265528786884
 30
0.0
 10
810.4547546642025
 20
-269.2122109432121
 30
0.0
 10
806.9075207467704
 20
-271.3897396039929
 30
0.0
 10
806.5442839936259
 20
-271.6640590269408
 30
0.0
 10
803.1748847365889
 20
-273.5218636706304
 30
0.0
 10
799.5538683536743
 20
-275.0504850067819
 30
0.0
 10
795.8760962280812
 20
-276.2035725122087
 30
0.0
 10
795.9706891325459
 20
-276.093844743029
 30
0.0
 10
791.874816369218
 20
-277.0880161689547
 30
0.0
 10
791.2694217806438
 20
-277.2053113704915
 30
0.0
 10
789.0010839315764
 20
-277.6432765181635
 30
0.0
 10
786.7213949339748
 20
-277.9478656705396
 30
0.0
 10
784.4190036392993
 20
-278.158807847497
 30
0.0
 10
782.4609305168779
 20
-278.3366425078902
 30
0.0
 10
780.5066411106345
 20
-278.5182608844634
 30
0.0
 10
778.5504598463012
 20
-278.7055548353037
 30
0.0
 10
777.4418310059737
 20
-278.8256878239736
 30
0.0
 10
776.3313103075561
 20
-278.9004162185011
 30
0.0
 10
775.2188977510505
 20
-278.9571719611795
 30
0.0
 10
774.8897144435123
 20
-278.9448748835994
 30
0.0
 10
774.4451277925273
 20
-278.9297400188852
 30
0.0
 10
773.8681110752914
 20
-278.9127132960812
 30
0.0
 10
764.6755726193987
 20
-278.5163690263735
 30
0.0
 10
756.0619427388301
 20
-283.148583558017
 30
0.0
 10
753.7273898566382
 20
-292.5681449846252
 30
0.0
 10
751.6860749782882
 20
-300.8138084668253
 30
0.0
 10
755.5076283186663
 20
-311.6626686798973
 30
0.0
 10
764.4485496486832
 20
-314.4115384836459
 30
0.0
 10
778.3177613013177
 20
-318.674840687876
 30
0.0
 10
791.0367232356602
 20
-319.2244254628167
 30
0.0
 10
805.0213382317415
 20
-315.1597683579621
 30
0.0
 10
815.3206136698736
 20
-312.1659029316506
 30
0.0
 10
825.7144820124704
 20
-307.2574771189702
 30
0.0
 10
833.6962312912128
 20
-300.0126065660079
 30
0.0
 10
851.8921223940688
 20
-283.4947935883583
 30
0.0
 10
859.7717113359904
 20
-259.1437421919745
 30
0.0
 10
864.0908233538539
 20
-235.6468647229094
 30
0.0
 10
873.7601100482498
 20
-183.019156394852
 30
0.0
 10
875.0333305423464
 20
-128.5431027135519
 30
0.0
 10
869.5904548194394
 20
-75.3724311138667
 30
0.0
 10
867.9804835854484
 20
-59.65109039181061
 30
0.0
 10
844.6103606083652
 20
-56.9551926145632
 30
0.0
 10
839.0577571162794
 20
-71.54047255399655
 30
0.0
 10
830.5614224372475
 20
-93.85493871725157
 30
0.0
 10
821.9988727250911
 20
-116.1495403705694
 30
0.0
 10
813.3417301084683
 20
-138.401575216878
 30
0.0
 10
805.5699770776373
 20
-158.3805425688961
 30
0.0
 10
797.3668804024474
 20
-178.5666683816926
 30
0.0
 10
784.3925176260491
 20
-195.8194682270341
 30
0.0
 10
775.7694284550344
 20
-207.2831823191282
 30
0.0
 10
759.8948472277461
 20
-220.3303816319631
 30
0.0
 10
748.0064109946052
 20
-208.2120846409725
 30
0.0
 10
742.7394780740033
 20
-202.8420454545039
 30
0.0
 10
740.0852011747193
 20
-194.3570619240072
 30
0.0
 10
738.6246867297832
 20
-186.0726153509768
 30
0.0
 10
736.549318405825
 20
-174.3071498936406
 30
0.0
 10
735.505012740532
 20
-162.2881754523387
 30
0.0
 10
734.6952974783126
 20
-150.3770369221256
 30
0.0
 10
732.8753299964101
 20
-123.6365687589614
 30
0.0
 10
733.6453162387534
 20
-96.8819116601262
 30
0.0
 10
736.9560678950238
 20
-70.28617064079299
 30
0.0
 10
739.5062925993952
 20
-49.81342832746759
 30
0.0
 10
707.4374061277267
 20
-45.67593468617633
 30
0.0
 10
705.2087972985337
 20
-66.15529850281291
 30
0.0
 10
702.1004744578204
 20
-94.71573414788145
 30
0.0
 10
701.154545413172
 20
-123.5107601960226
 30
0.0
 10
702.775867795699
 20
-152.202679978298
 30
0.0
 10
704.1834102141347
 20
-177.0910190720406
 30
0.0
 10
704.9042081461575
 20
-207.7211474668002
 30
0.0
 10
722.0103889895781
 20
-227.6471427923179
 30
0.0
  0
HATCH
  5
55
330
41
100
AcDbEntity
  8
Layer 1
 62
     7
420
 16777215
100
AcDbHatch
 10
0.0
 20
0.0
 30
0.0
210
0.0
220
0.0
230
1.0
  2
SOLID
 70
     1
 71
     0
 91
        1
 92
        1
 93
        1
 72
     4
 94
        3
 73
     0
 74
     1
 95
       92
 96
       88
 40
0.0
 40
0.0
 40
0.0
 40
0.0
 40
1.0
 40
1.0
 40
1.0
 40
2.0
 40
2.0
 40
2.0
 40
3.0
 40
3.0
 40
3.0
 40
4.0
 40
4.0
 40
4.0
 40
5.0
 40
5.0
 40
5.0
 40
6.0
 40
6.0
 40
6.0
 40
7.0
 40
7.0
 40
7.0
 40
8.0
 40
8.0
 40
8.0
 40
9.0
 40
9.0
 40
9.0
 40
10.0
 40
10.0
 40
10.0
 40
11.0
 40
11.0
 40
11.0
 40
12.0
 40
12.0
 40
12.0
 40
13.0
 40
13.0
 40
13.0
 40
14.0
 40
14.0
 40
14.0
 40
15.0
 40
15.0
 40
15.0
 40
16.0
 40
16.0
 40
16.0
 40
17.0
 40
17.0
 40
17.0
 40
18.0
 40
18.0
 40
18.0
 40
19.0
 40
19.0
 40
19.0
 40
20.0
 40
20.0
 40
20.0
 40
21.0
 40
21.0
 40
21.0
 40
22.0
 40
22.0
 40
22.0
 40
23.0
 40
23.0
 40
23.0
 40
24.0
 40
24.0
 40
24.0
 40
25.0
 40
25.0
 40
25.0
 40
26.0
 40
26.0
 40
26.0
 40
27.0
 40
27.0
 40
27.0
 40
28.0
 40
28.0
 40
28.0
 40
29.0
 40
29.0
 40
29.0
 40
29.0
 10
722.0103889895781
 20
-227.6471427923179
 10
740.5316796837942
 20
-249.2228383717029
 10
770.0579088834493
 20
-250.1791726358424
 10
792.3648076143472
 20
-233.6556840839248
 10
812.8952515993951
 20
-218.4489287621573
 10
825.5290799197192
 20
-192.5389863001938
 10
835.31566181565
 20
-169.6512871358809
 10
836.9483353467131
 20
-165.8306797245468
 10
838.5412798579018
 20
-161.9939915194527
 10
840.1096302139285
 20
-158.1450062367785
 10
839.2091057634243
 20
-178.2327554289313
 10
837.2056280468587
 20
-198.2788837431199
 10
834.0935214899655
 20
-218.2115005719506
 10
831.3238412472347
 20
-235.9542916624205
 10
828.5125401265395
 20
-256.0751483711356
 10
814.6565714805292
 20
-266.4548277780623
 10
814.3822520575814
 20
-266.6600943807507
 10
812.9349806192695
 20
-267.6466983743194
 10
812.1044549180697
 20
-268.2265528786884
 10
810.4547546642025
 20
-269.2122109432121
 10
806.9075207467704
 20
-271.3897396039929
 10
806.5442839936259
 20
-271.6640590269408
 10
803.1748847365889
 20
-273.5218636706304
 10
799.5538683536743
 20
-275.0504850067819
 10
795.8760962280812
 20
-276.2035725122087
 10
795.9706891325459
 20
-276.093844743029
 10
791.874816369218
 20
-277.0880161689547
 10
791.2694217806438
 20
-277.2053113704915
 10
789.0010839315764
 20
-277.6432765181635
 10
786.7213949339748
 20
-277.9478656705396
 10
784.4190036392993
 20
-278.158807847497
 10
782.4609305168779
 20
-278.3366425078902
 10
780.5066411106345
 20
-278.5182608844634
 10
778.5504598463012
 20
-278.7055548353037
 10
777.4418310059737
 20
-278.8256878239736
 10
776.3313103075561
 20
-278.9004162185011
 10
775.2188977510505
 20
-278.9571719611795
 10
774.8897144435123
 20
-278.9448748835994
 10
774.4451277925273
 20
-278.9297400188852
 10
773.8681110752914
 20
-278.9127132960812
 10
764.6755726193987
 20
-278.5163690263735
 10
756.0619427388301
 20
-283.148583558017
 10
753.7273898566382
 20
-292.5681449846252
 10
751.6860749782882
 20
-300.8138084668253
 10
755.5076283186663
 20
-311.6626686798973
 10
764.4485496486832
 20
-314.4115384836459
 10
778.3177613013177
 20
-318.674840687876
 10
791.0367232356602
 20
-319.2244254628167
 10
805.0213382317415
 20
-315.1597683579621
 10
815.3206136698736
 20
-312.1659029316506
 10
825.7144820124704
 20
-307.2574771189702
 10
833.6962312912128
 20
-300.0126065660079
 10
851.8921223940688
 20
-283.4947935883583
 10
859.7717113359904
 20
-259.1437421919745
 10
864.0908233538539
 20
-235.6468647229094
 10
873.7601100482498
 20
-183.019156394852
 10
875.0333305423464
 20
-128.5431027135519
 10
869.5904548194394
 20
-75.3724311138667
 10
867.9804835854484
 20
-59.65109039181061
 10
844.6103606083652
 20
-56.9551926145632
 10
839.0577571162794
 20
-71.54047255399655
 10
830.5614224372475
 20
-93.85493871725157
 10
821.9988727250911
 20
-116.1495403705694
 10
813.3417301084683
 20
-138.401575216878
 10
805.5699770776373
 20
-158.3805425688961
 10
797.3668804024474
 20
-178.5666683816926
 10
784.3925176260491
 20
-195.8194682270341
 10
775.7694284550344
 20
-207.2831823191282
 10
759.8948472277461
 20
-220.3303816319631
 10
748.0064109946052
 20
-208.2120846409725
 10
742.7394780740033
 20
-202.8420454545039
 10
740.0852011747193
 20
-194.3570619240072
 10
738.6246867297832
 20
-186.0726153509768
 10
736.549318405825
 20
-174.3071498936406
 10
735.505012740532
 20
-162.2881754523387
 10
734.6952974783126
 20
-150.3770369221256
 10
732.8753299964101
 20
-123.6365687589614
 10
733.6453162387534
 20
-96.8819116601262
 10
736.9560678950238
 20
-70.28617064079299
 10
739.5062925993952
 20
-49.81342832746759
 10
707.4374061277267
 20
-45.67593468617633
 10
705.2087972985337
 20
-66.15529850281291
 10
702.1004744578204
 20
-94.71573414788145
 10
701.154545413172
 20
-123.5107601960226
 10
702.775867795699
 20
-152.202679978298
 10
704.1834102141347
 20
-177.0910190720406
 10
704.9042081461575
 20
-207.7211474668002
 10
722.0103889895781
 20
-227.6471427923179
 97
        0
 97
        0
 75
     2
 76
     1
 98
        0
  0
SPLINE
  5
56
330
41
100
AcDbEntity
  8
Layer 1
370
     0
100
AcDbSpline
210
0.0
220
0.0
230
1.0
 70
    11
 71
     3
 72
   110
 73
   106
 74
     0
 42
0.0000000001
 43
0.0000000001
 12
1.0
 22
0.0
 32
0.0
 13
1.0
 23
0.0
 33
0.0
 40
0.0
 40
0.0
 40
0.0
 40
0.0
 40
1.0
 40
1.0
 40
1.0
 40
2.0
 40
2.0
 40
2.0
 40
3.0
 40
3.0
 40
3.0
 40
4.0
 40
4.0
 40
4.0
 40
5.0
 40
5.0
 40
5.0
 40
6.0
 40
6.0
 40
6.0
 40
7.0
 40
7.0
 40
7.0
 40
8.0
 40
8.0
 40
8.0
 40
9.0
 40
9.0
 40
9.0
 40
10.0
 40
10.0
 40
10.0
 40
11.0
 40
11.0
 40
11.0
 40
12.0
 40
12.0
 40
12.0
 40
13.0
 40
13.0
 40
13.0
 40
14.0
 40
14.0
 40
14.0
 40
15.0
 40
15.0
 40
15.0
 40
16.0
 40
16.0
 40
16.0
 40
17.0
 40
17.0
 40
17.0
 40
18.0
 40
18.0
 40
18.0
 40
19.0
 40
19.0
 40
19.0
 40
20.0
 40
20.0
 40
20.0
 40
21.0
 40
21.0
 40
21.0
 40
22.0
 40
22.0
 40
22.0
 40
23.0
 40
23.0
 40
23.0
 40
24.0
 40
24.0
 40
24.0
 40
25.0
 40
25.0
 40
25.0
 40
26.0
 40
26.0
 40
26.0
 40
27.0
 40
27.0
 40
27.0
 40
28.0
 40
28.0
 40
28.0
 40
29.0
 40
29.0
 40
29.0
 40
30.0
 40
30.0
 40
30.0
 40
31.0
 40
31.0
 40
31.0
 40
32.0
 40
32.0
 40
32.0
 40
33.0
 40
33.0
 40
33.0
 40
34.0
 40
34.0
 40
34.0
 40
35.0
 40
35.0
 40
35.0
 40
35.0
 10
216.1729405057667
 20
-582.2995898571135
 30
0.0
 10
221.347172379993
 20
-585.2849419220238
 30
0.0
 10
230.7005187734758
 20
-584.6871147658057
 30
0.0
 10
235.2788153495749
 20
-580.7066453459265
 30
0.0
 10
243.8375813455532
 20
-572.9452975345866
 30
0.0
 10
242.2446368343653
 20
-570.357235668429
 30
0.0
 10
240.6535841812665
 20
-559.4109447637566
 30
0.0
 10
240.0557570250485
 20
-555.8287114716732
 30
0.0
 10
239.6584668262967
 20
-552.2455322505466
 30
0.0
 10
239.4579298688313
 20
-548.6632989584632
 30
0.0
 10
246.2251062542455
 20
-513.8332456054613
 30
0.0
 10
253.3914646965013
 20
-479.2018373518395
 30
0.0
 10
263.3426382462021
 20
-445.366901353812
 30
0.0
 10
269.1146972766464
 20
-426.0614354815825
 30
0.0
 10
275.8799818039715
 20
-406.9546147087303
 30
0.0
 10
283.6422755443564
 20
-388.4446751630512
 30
0.0
 10
287.2254547654848
 20
-380.0855001954933
 30
0.0
 10
290.8086339866131
 20
-371.526734199515
 30
0.0
 10
295.186393605245
 20
-363.7653863881751
 30
0.0
 10
296.3801560595912
 20
-361.5755606498142
 30
0.0
 10
297.9731005707799
 20
-358.7888536842802
 30
0.0
 10
299.7646901813432
 20
-356.0030926477903
 30
0.0
 10
296.3801560595912
 20
-385.2597320697196
 30
0.0
 10
290.8086339866131
 20
-435.4157278041112
 30
0.0
 10
290.4094519297714
 20
-453.9256673497903
 30
0.0
 10
289.612979674177
 20
-492.9348352220441
 30
0.0
 10
294.3899213496516
 20
-528.760005930013
 30
0.0
 10
332.4049177959805
 20
-529.5564781856065
 30
0.0
 10
335.5889149602672
 20
-529.5564781856065
 30
0.0
 10
339.5693843801473
 20
-528.760005930013
 30
0.0
 10
342.157446246305
 20
-526.7697712200725
 30
0.0
 10
344.1476809562455
 20
-525.7746538651027
 30
0.0
 10
345.7406254674333
 20
-524.3813003823352
 30
0.0
 10
345.9392705668097
 20
-522.7893018001923
 30
0.0
 10
352.7064469522238
 20
-483.978779027314
 30
0.0
 10
356.2896261733522
 20
-445.1682562544356
 30
0.0
 10
365.8416176662113
 20
-406.7550236803099
 30
0.0
 10
370.2212691429331
 20
-389.6384376173974
 30
0.0
 10
374.7976738609423
 20
-372.5218515544848
 30
0.0
 10
380.770269848852
 20
-355.8035016193699
 30
0.0
 10
384.3515572118904
 20
-345.6536829702927
 30
0.0
 10
387.9347364330188
 20
-336.8962718749372
 30
0.0
 10
393.5081503640868
 20
-328.3375058789588
 30
0.0
 10
397.8859099827196
 20
-367.7458558080552
 30
0.0
 10
364.9983219229071
 20
-526.8708673867186
 30
0.0
 10
379.1286099918643
 20
-572.4485665450156
 30
0.0
 10
386.0944314766548
 20
-598.3225637032829
 30
0.0
 10
402.0182010142662
 20
-617.6289755045564
 30
0.0
 10
431.0752494077751
 20
-613.6485060846753
 30
0.0
 10
433.0654841177147
 20
-613.2502699568795
 30
0.0
 10
441.4256050143176
 20
-609.4684456363739
 30
0.0
 10
437.6437806938129
 20
-607.2795658270588
 30
0.0
 10
379.9250822474587
 20
-572.051276346263
 30
0.0
 10
433.7120266197326
 20
-404.9643799987898
 30
0.0
 10
429.1337300436344
 20
-319.9783309114018
 30
0.0
 10
426.7443132768522
 20
-305.0515705868502
 30
0.0
 10
398.8810273376894
 20
-285.944749813998
 30
0.0
 10
387.3369092768007
 20
-296.4928045908719
 30
0.0
 10
371.8123217960319
 20
-310.4253934894978
 30
0.0
 10
362.2603303031729
 20
-342.0705037491643
 30
0.0
 10
357.8806788264501
 20
-355.8035016193699
 30
0.0
 10
344.7455081124626
 20
-397.2020862584059
 30
0.0
 10
332.6035628953568
 20
-441.9833131611049
 30
0.0
 10
328.6230934754767
 20
-486.1676588366299
 30
0.0
 10
327.4293310211297
 20
-480.7938359339823
 30
0.0
 10
326.6328587655362
 20
-475.022722832583
 30
0.0
 10
326.0369234674072
 20
-469.449308901515
 30
0.0
 10
324.0466887574676
 20
-445.7651374816087
 30
0.0
 10
327.4293310211297
 20
-422.0809660617024
 30
0.0
 10
331.2111553416344
 20
-398.5954397411724
 30
0.0
 10
333.0027449521986
 20
-386.653085552487
 30
0.0
 10
334.9929796621382
 20
-374.910322392222
 30
0.0
 10
336.3853872158606
 20
-362.9689141325807
 30
0.0
 10
337.5791496702068
 20
-353.0177405828799
 30
0.0
 10
340.3658566357408
 20
-346.8474454246389
 30
0.0
 10
337.181859471455
 20
-337.0949169743135
 30
0.0
 10
332.0076275972278
 20
-320.7748031669953
 30
0.0
 10
307.5269839217281
 20
-311.8187469722643
 30
0.0
 10
294.5904583071169
 20
-320.3765670391986
 30
0.0
 10
286.0316923111386
 20
-326.1486260696429
 30
0.0
 10
261.7496937350143
 20
-383.8673245159971
 30
0.0
 10
245.4286339986511
 20
-437.6046076134271
 30
0.0
 10
243.0411090899588
 20
-445.1682562544356
 30
0.0
 10
241.0508743800183
 20
-452.5323138670228
 30
0.0
 10
239.0606396700787
 20
-460.0950165789873
 30
0.0
 10
240.0557570250485
 20
-446.7602548365785
 30
0.0
 10
241.448164578771
 20
-433.4254930941706
 30
0.0
 10
243.2397541893351
 20
-419.8911403233415
 30
0.0
 10
245.2299888992757
 20
-404.1679077431963
 30
0.0
 10
250.8034028303437
 20
-380.8810265220427
 30
0.0
 10
251.2006930290954
 20
-368.143146006807
 30
0.0
 10
251.5998750859371
 20
-356.401328775587
 30
0.0
 10
221.347172379993
 20
-358.7888536842802
 30
0.0
 10
216.3715856051422
 20
-368.3427370352283
 30
0.0
 10
207.8128196091639
 20
-382.0757349054329
 30
0.0
 10
201.2442883231261
 20
-455.1194298041364
 30
0.0
 10
200.0505258687799
 20
-475.4200130313347
 30
0.0
 10
198.8567634144329
 20
-494.5268338041878
 30
0.0
 10
198.6581183150574
 20
-513.8332456054613
 30
0.0
 10
199.8518807694036
 20
-532.9400663783135
 30
0.0
 10
200.4497079256216
 20
-543.0908309564347
 30
0.0
 10
201.6434703799678
 20
-553.0420045061401
 30
0.0
 10
203.0358779336893
 20
-562.99317805584
 30
0.0
 10
204.8274675442535
 20
-574.9355322445263
 30
0.0
 10
205.4252947004716
 20
-576.3279397982496
 30
0.0
 10
216.1729405057667
 20
-582.2995898571135
 30
0.0
  0
HATCH
  5
57
330
41
100
AcDbEntity
  8
Layer 1
 62
     7
420
 16777215
100
AcDbHatch
 10
0.0
 20
0.0
 30
0.0
210
0.0
220
0.0
230
1.0
  2
SOLID
 70
     1
 71
     0
 91
        1
 92
        1
 93
        1
 72
     4
 94
        3
 73
     0
 74
     1
 95
      110
 96
      106
 40
0.0
 40
0.0
 40
0.0
 40
0.0
 40
1.0
 40
1.0
 40
1.0
 40
2.0
 40
2.0
 40
2.0
 40
3.0
 40
3.0
 40
3.0
 40
4.0
 40
4.0
 40
4.0
 40
5.0
 40
5.0
 40
5.0
 40
6.0
 40
6.0
 40
6.0
 40
7.0
 40
7.0
 40
7.0
 40
8.0
 40
8.0
 40
8.0
 40
9.0
 40
9.0
 40
9.0
 40
10.0
 40
10.0
 40
10.0
 40
11.0
 40
11.0
 40
11.0
 40
12.0
 40
12.0
 40
12.0
 40
13.0
 40
13.0
 40
13.0
 40
14.0
 40
14.0
 40
14.0
 40
15.0
 40
15.0
 40
15.0
 40
16.0
 40
16.0
 40
16.0
 40
17.0
 40
17.0
 40
17.0
 40
18.0
 40
18.0
 40
18.0
 40
19.0
 40
19.0
 40
19.0
 40
20.0
 40
20.0
 40
20.0
 40
21.0
 40
21.0
 40
21.0
 40
22.0
 40
22.0
 40
22.0
 40
23.0
 40
23.0
 40
23.0
 40
24.0
 40
24.0
 40
24.0
 40
25.0
 40
25.0
 40
25.0
 40
26.0
 40
26.0
 40
26.0
 40
27.0
 40
27.0
 40
27.0
 40
28.0
 40
28.0
 40
28.0
 40
29.0
 40
29.0
 40
29.0
 40
30.0
 40
30.0
 40
30.0
 40
31.0
 40
31.0
 40
31.0
 40
32.0
 40
32.0
 40
32.0
 40
33.0
 40
33.0
 40
33.0
 40
34.0
 40
34.0
 40
34.0
 40
35.0
 40
35.0
 40
35.0
 40
35.0
 10
216.1729405057667
 20
-582.2995898571135
 10
221.347172379993
 20
-585.2849419220238
 10
230.7005187734758
 20
-584.6871147658057
 10
235.2788153495749
 20
-580.7066453459265
 10
243.8375813455532
 20
-572.9452975345866
 10
242.2446368343653
 20
-570.357235668429
 10
240.6535841812665
 20
-559.4109447637566
 10
240.0557570250485
 20
-555.8287114716732
 10
239.6584668262967
 20
-552.2455322505466
 10
239.4579298688313
 20
-548.6632989584632
 10
246.2251062542455
 20
-513.8332456054613
 10
253.3914646965013
 20
-479.2018373518395
 10
263.3426382462021
 20
-445.366901353812
 10
269.1146972766464
 20
-426.0614354815825
 10
275.8799818039715
 20
-406.9546147087303
 10
283.6422755443564
 20
-388.4446751630512
 10
287.2254547654848
 20
-380.0855001954933
 10
290.8086339866131
 20
-371.526734199515
 10
295.186393605245
 20
-363.7653863881751
 10
296.3801560595912
 20
-361.5755606498142
 10
297.9731005707799
 20
-358.7888536842802
 10
299.7646901813432
 20
-356.0030926477903
 10
296.3801560595912
 20
-385.2597320697196
 10
290.8086339866131
 20
-435.4157278041112
 10
290.4094519297714
 20
-453.9256673497903
 10
289.612979674177
 20
-492.9348352220441
 10
294.3899213496516
 20
-528.760005930013
 10
332.4049177959805
 20
-529.5564781856065
 10
335.5889149602672
 20
-529.5564781856065
 10
339.5693843801473
 20
-528.760005930013
 10
342.157446246305
 20
-526.7697712200725
 10
344.1476809562455
 20
-525.7746538651027
 10
345.7406254674333
 20
-524.3813003823352
 10
345.9392705668097
 20
-522.7893018001923
 10
352.7064469522238
 20
-483.978779027314
 10
356.2896261733522
 20
-445.1682562544356
 10
365.8416176662113
 20
-406.7550236803099
 10
370.2212691429331
 20
-389.6384376173974
 10
374.7976738609423
 20
-372.5218515544848
 10
380.770269848852
 20
-355.8035016193699
 10
384.3515572118904
 20
-345.6536829702927
 10
387.9347364330188
 20
-336.8962718749372
 10
393.5081503640868
 20
-328.3375058789588
 10
397.8859099827196
 20
-367.7458558080552
 10
364.9983219229071
 20
-526.8708673867186
 10
379.1286099918643
 20
-572.4485665450156
 10
386.0944314766548
 20
-598.3225637032829
 10
402.0182010142662
 20
-617.6289755045564
 10
431.0752494077751
 20
-613.6485060846753
 10
433.0654841177147
 20
-613.2502699568795
 10
441.4256050143176
 20
-609.4684456363739
 10
437.6437806938129
 20
-607.2795658270588
 10
379.9250822474587
 20
-572.051276346263
 10
433.7120266197326
 20
-404.9643799987898
 10
429.1337300436344
 20
-319.9783309114018
 10
426.7443132768522
 20
-305.0515705868502
 10
398.8810273376894
 20
-285.944749813998
 10
387.3369092768007
 20
-296.4928045908719
 10
371.8123217960319
 20
-310.4253934894978
 10
362.2603303031729
 20
-342.0705037491643
 10
357.8806788264501
 20
-355.8035016193699
 10
344.7455081124626
 20
-397.2020862584059
 10
332.6035628953568
 20
-441.9833131611049
 10
328.6230934754767
 20
-486.1676588366299
 10
327.4293310211297
 20
-480.7938359339823
 10
326.6328587655362
 20
-475.022722832583
 10
326.0369234674072
 20
-469.449308901515
 10
324.0466887574676
 20
-445.7651374816087
 10
327.4293310211297
 20
-422.0809660617024
 10
331.2111553416344
 20
-398.5954397411724
 10
333.0027449521986
 20
-386.653085552487
 10
334.9929796621382
 20
-374.910322392222
 10
336.3853872158606
 20
-362.9689141325807
 10
337.5791496702068
 20
-353.0177405828799
 10
340.3658566357408
 20
-346.8474454246389
 10
337.181859471455
 20
-337.0949169743135
 10
332.0076275972278
 20
-320.7748031669953
 10
307.5269839217281
 20
-311.8187469722643
 10
294.5904583071169
 20
-320.3765670391986
 10
286.0316923111386
 20
-326.1486260696429
 10
261.7496937350143
 20
-383.8673245159971
 10
245.4286339986511
 20
-437.6046076134271
 10
243.0411090899588
 20
-445.1682562544356
 10
241.0508743800183
 20
-452.5323138670228
 10
239.0606396700787
 20
-460.0950165789873
 10
240.0557570250485
 20
-446.7602548365785
 10
241.448164578771
 20
-433.4254930941706
 10
243.2397541893351
 20
-419.8911403233415
 10
245.2299888992757
 20
-404.1679077431963
 10
250.8034028303437
 20
-380.8810265220427
 10
251.2006930290954
 20
-368.143146006807
 10
251.5998750859371
 20
-356.401328775587
 10
221.347172379993
 20
-358.7888536842802
 10
216.3715856051422
 20
-368.3427370352283
 10
207.8128196091639
 20
-382.0757349054329
 10
201.2442883231261
 20
-455.1194298041364
 10
200.0505258687799
 20
-475.4200130313347
 10
198.8567634144329
 20
-494.5268338041878
 10
198.6581183150574
 20
-513.8332456054613
 10
199.8518807694036
 20
-532.9400663783135
 10
200.4497079256216
 20
-543.0908309564347
 10
201.6434703799678
 20
-553.0420045061401
 10
203.0358779336893
 20
-562.99317805584
 10
204.8274675442535
 20
-574.9355322445263
 10
205.4252947004716
 20
-576.3279397982496
 10
216.1729405057667
 20
-582.2995898571135
 97
        0
 97
        0
 75
     2
 76
     1
 98
        0
  0
SPLINE
  5
58
330
41
100
AcDbEntity
  8
Layer 1
370
     0
100
AcDbSpline
210
0.0
220
0.0
230
1.0
 70
    11
 71
     3
 72
    95
 73
    91
 74
     0
 42
0.0000000001
 43
0.0000000001
 12
1.0
 22
0.0
 32
0.0
 13
1.0
 23
0.0
 33
0.0
 40
0.0
 40
0.0
 40
0.0
 40
0.0
 40
1.0
 40
1.0
 40
1.0
 40
2.0
 40
2.0
 40
2.0
 40
3.0
 40
3.0
 40
3.0
 40
4.0
 40
4.0
 40
4.0
 40
5.0
 40
5.0
 40
5.0
 40
6.0
 40
6.0
 40
6.0
 40
7.0
 40
7.0
 40
7.0
 40
8.0
 40
8.0
 40
8.0
 40
9.0
 40
9.0
 40
9.0
 40
10.0
 40
10.0
 40
10.0
 40
11.0
 40
11.0
 40
11.0
 40
12.0
 40
12.0
 40
12.0
 40
13.0
 40
13.0
 40
13.0
 40
14.0
 40
14.0
 40
14.0
 40
15.0
 40
15.0
 40
15.0
 40
16.0
 40
16.0
 40
16.0
 40
17.0
 40
17.0
 40
17.0
 40
18.0
 40
18.0
 40
18.0
 40
19.0
 40
19.0
 40
19.0
 40
20.0
 40
20.0
 40
20.0
 40
21.0
 40
21.0
 40
21.0
 40
22.0
 40
22.0
 40
22.0
 40
23.0
 40
23.0
 40
23.0
 40
24.0
 40
24.0
 40
24.0
 40
25.0
 40
25.0
 40
25.0
 40
26.0
 40
26.0
 40
26.0
 40
27.0
 40
27.0
 40
27.0
 40
28.0
 40
28.0
 40
28.0
 40
29.0
 40
29.0
 40
29.0
 40
30.0
 40
30.0
 40
30.0
 40
30.0
 10
616.2498462236217
 20
-426.2600805809589
 30
0.0
 10
614.6569017124348
 20
-430.240550000839
 30
0.0
 10
613.2644941587114
 20
-434.0223743213437
 30
0.0
 10
611.8701947468999
 20
-438.0028437412238
 30
0.0
 10
612.0707317043652
 20
-427.45478896435
 30
0.0
 10
612.4680219031179
 20
-416.7071431590548
 30
0.0
 10
612.8653121018706
 20
-406.3567875525123
 30
0.0
 10
613.8604294568413
 20
-388.0464390352536
 30
0.0
 10
613.6617843574641
 20
-372.7214425829061
 30
0.0
 10
617.6422537773451
 20
-352.2212683272865
 30
0.0
 10
620.2303156435028
 20
-339.4833878120508
 30
0.0
 10
591.5705574487456
 20
-339.8816239398475
 30
0.0
 10
585.9971435176776
 20
-349.2359162623761
 30
0.0
 10
579.6272573310162
 20
-360.1822071670467
 30
0.0
 10
577.2397324223239
 20
-383.0708522604036
 30
0.0
 10
576.2446150673532
 20
-400.7843195504893
 30
0.0
 10
575.050852613007
 20
-420.2893764511382
 30
0.0
 10
574.6516705561662
 20
-440.1926694795848
 30
0.0
 10
574.6516705561662
 20
-459.6967804511896
 30
0.0
 10
574.6564002013893
 20
-460.6443648716668
 30
0.0
 10
574.6734269241915
 20
-461.5905303985764
 30
0.0
 10
574.6800484275045
 20
-462.5379965779221
 30
0.0
 10
568.3811069191906
 20
-466.7532928831361
 30
0.0
 10
560.9735365705492
 20
-470.014619746823
 30
0.0
 10
553.3455647545052
 20
-472.4346609664253
 30
0.0
 10
553.5461017119706
 20
-470.6440172849052
 30
0.0
 10
553.744746811346
 20
-468.8524276743419
 30
0.0
 10
553.744746811346
 20
-467.2604290921981
 30
0.0
 10
558.1225064299797
 20
-418.0995507127773
 30
0.0
 10
548.9678051358733
 20
-384.6628508425465
 30
0.0
 10
522.8942169491811
 20
-361.7751516782346
 30
0.0
 10
506.575049070907
 20
-347.4443266518119
 30
0.0
 10
481.0992880404374
 20
-346.0509731690445
 30
0.0
 10
462.1901664379166
 20
-367.5462647796339
 30
0.0
 10
442.6870013953558
 20
-389.8380286458178
 30
0.0
 10
432.9344729450313
 20
-423.0760834166722
 30
0.0
 10
440.2975846285744
 20
-450.5420791570832
 30
0.0
 10
439.5011123729801
 20
-452.7309589663992
 30
0.0
 10
438.905177074852
 20
-455.5176659319332
 30
0.0
 10
438.905177074852
 20
-458.7016630962198
 30
0.0
 10
438.3073499186339
 20
-483.978779027314
 30
0.0
 10
441.8905291397623
 20
-582.8964710842865
 30
0.0
 10
499.6092275861165
 20
-579.1146467637827
 30
0.0
 10
528.6662759796254
 20
-577.3230571532185
 30
0.0
 10
544.9873357159922
 20
-530.3529504411999
 30
0.0
 10
551.5558670020309
 20
-486.3672498650512
 30
0.0
 10
560.4726671414082
 20
-482.8752345556004
 30
0.0
 10
568.2351973640543
 20
-478.9328387797677
 30
0.0
 10
574.7978165935638
 20
-474.38315655727
 30
0.0
 10
575.3005778807947
 20
-508.8550575257377
 30
0.0
 10
576.889265711281
 20
-543.2121463564108
 30
0.0
 10
578.6321399760454
 20
-577.7212932810162
 30
0.0
 10
579.2299671322635
 20
-591.057000952469
 30
0.0
 10
614.6569017124348
 20
-596.032587727319
 30
0.0
 10
615.0560837692756
 20
-582.4982349564907
 30
0.0
 10
615.0560837692756
 20
-580.7066453459265
 30
0.0
 10
615.2547288686528
 20
-578.7164106359869
 30
0.0
 10
615.2547288686528
 20
-576.9257669544677
 30
0.0
 10
615.2547288686528
 20
-576.9257669544677
 30
0.0
 10
615.4533739680282
 20
-576.9257669544677
 30
0.0
 10
615.4533739680282
 20
-576.9257669544677
 30
0.0
 10
615.4533739680282
 20
-575.930649599497
 30
0.0
 10
615.2547288686528
 20
-574.5372961167304
 30
0.0
 10
615.2547288686528
 20
-573.3425877333393
 30
0.0
 10
615.4533739680282
 20
-545.6779468935492
 30
0.0
 10
614.0609664143067
 20
-515.0270080598075
 30
0.0
 10
618.8360162316912
 20
-488.5561296743672
 30
0.0
 10
625.40454751773
 20
-423.2747285160485
 30
0.0
 10
652.274607960011
 20
-370.7312078729656
 30
0.0
 10
673.569362613136
 20
-378.4935016133495
 30
0.0
 10
684.9148355746474
 20
-382.6726161326069
 30
0.0
 10
676.7552516355117
 20
-445.7651374816087
 30
0.0
 10
662.6230717084636
 20
-446.1633736094054
 30
0.0
 10
655.4586051242968
 20
-446.3620187087818
 30
0.0
 10
653.4683704143572
 20
-438.4010798690215
 30
0.0
 10
656.6523675786448
 20
-433.624138193547
 30
0.0
 10
660.4341918991486
 20
-428.051670191523
 30
0.0
 10
644.5123142196262
 20
-428.2503152908994
 30
0.0
 10
642.3215425522212
 20
-429.6436687736659
 30
0.0
 10
637.7451378342121
 20
-435.6143729034866
 30
0.0
 10
638.5416100898055
 20
-448.750489546519
 30
0.0
 10
647.4976662845365
 20
-454.7211936763397
 30
0.0
 10
661.0301271972767
 20
-463.8768408994911
 30
0.0
 10
673.1720724143834
 20
-458.9012541246411
 30
0.0
 10
685.3121257734001
 20
-446.7602548365785
 30
0.0
 10
708.201716795802
 20
-424.2698458710192
 30
0.0
 10
711.9816492582158
 20
-352.4199134266619
 30
0.0
 10
679.5400667429567
 20
-350.6292697451427
 30
0.0
 10
647.2971293270712
 20
-348.8376801345785
 30
0.0
 10
629.7841989944518
 20
-391.4300272279615
 30
0.0
 10
616.2498462236217
 20
-426.2600805809589
 30
0.0
  0
SPLINE
  5
59
330
41
100
AcDbEntity
  8
Layer 1
370
     0
100
AcDbSpline
210
0.0
220
0.0
230
1.0
 70
    11
 71
     3
 72
    14
 73
    10
 74
     0
 42
0.0000000001
 43
0.0000000001
 12
1.0
 22
0.0
 32
0.0
 13
1.0
 23
0.0
 33
0.0
 40
0.0
 40
0.0
 40
0.0
 40
0.0
 40
1.0
 40
1.0
 40
1.0
 40
2.0
 40
2.0
 40
2.0
 40
3.0
 40
3.0
 40
3.0
 40
3.0
 10
498.214928174305
 20
-556.6242377982235
 30
0.0
 10
482.4916955941599
 20
-557.6193551531942
 30
0.0
 10
476.1237012655865
 20
-520.4008309624551
 30
0.0
 10
473.5356393994289
 20
-490.3477192849314
 30
0.0
 10
486.8713470708817
 20
-496.318423414752
 30
0.0
 10
503.5896970059966
 20
-497.3135407697218
 30
0.0
 10
520.9039822392406
 20
-494.7264248326082
 30
0.0
 10
517.3226948762021
 20
-523.5857740557858
 30
0.0
 10
510.1563364339463
 20
-555.8287114716732
 30
0.0
 10
498.214928174305
 20
-556.6242377982235
 30
0.0
  0
SPLINE
  5
5A
330
41
100
AcDbEntity
  8
Layer 1
370
     0
100
AcDbSpline
210
0.0
220
0.0
230
1.0
 70
    11
 71
     3
 72
    29
 73
    25
 74
     0
 42
0.0000000001
 43
0.0000000001
 12
1.0
 22
0.0
 32
0.0
 13
1.0
 23
0.0
 33
0.0
 40
0.0
 40
0.0
 40
0.0
 40
0.0
 40
1.0
 40
1.0
 40
1.0
 40
2.0
 40
2.0
 40
2.0
 40
3.0
 40
3.0
 40
3.0
 40
4.0
 40
4.0
 40
4.0
 40
5.0
 40
5.0
 40
5.0
 40
6.0
 40
6.0
 40
6.0
 40
7.0
 40
7.0
 40
7.0
 40
8.0
 40
8.0
 40
8.0
 40
8.0
 10
523.8893343041509
 20
-459.0998992240166
 30
0.0
 10
523.8893343041509
 20
-463.8768408994911
 30
0.0
 10
523.4920441053991
 20
-470.4444262564848
 30
0.0
 10
522.6955718498048
 20
-477.808483869072
 30
0.0
 10
501.001635139839
 20
-478.6049561246664
 30
0.0
 10
481.4965782391901
 20
-473.2311332220188
 30
0.0
 10
472.7391671438345
 20
-463.6781958001147
 30
0.0
 10
472.3418769450827
 20
-463.279959672318
 30
0.0
 10
472.1432318457064
 20
-462.8817235445213
 30
0.0
 10
471.7440497888647
 20
-462.4834874167245
 30
0.0
 10
471.7440497888647
 20
-458.9012541246411
 30
0.0
 10
471.7440497888647
 20
-456.1145471591062
 30
0.0
 10
471.7440497888647
 20
-454.5225485769633
 30
0.0
 10
471.5454046894884
 20
-450.1438430292856
 30
0.0
 10
468.7586977239544
 20
-446.3620187087818
 30
0.0
 10
464.5795832046979
 20
-443.7749027716682
 30
0.0
 10
462.3907033953819
 20
-426.6583167087556
 30
0.0
 10
467.1657532127665
 20
-406.5563785809336
 30
0.0
 10
469.7538150789251
 20
-397.9976125849553
 30
0.0
 10
479.3076984298732
 20
-367.5462647796339
 30
0.0
 10
498.4135732736813
 20
-348.8376801345785
 30
0.0
 10
513.9381607544501
 20
-380.2841452948696
 30
0.0
 10
525.2836337159633
 20
-402.9741452888502
 30
0.0
 10
524.6858065597453
 20
-434.22101942072
 30
0.0
 10
523.8893343041509
 20
-459.0998992240166
 30
0.0
  0
HATCH
  5
5B
330
41
100
AcDbEntity
  8
Layer 1
 62
     7
420
 16777215
100
AcDbHatch
 10
0.0
 20
0.0
 30
0.0
210
0.0
220
0.0
230
1.0
  2
SOLID
 70
     1
 71
     0
 91
        3
 92
        1
 93
        1
 72
     4
 94
        3
 73
     0
 74
     1
 95
       95
 96
       91
 40
0.0
 40
0.0
 40
0.0
 40
0.0
 40
1.0
 40
1.0
 40
1.0
 40
2.0
 40
2.0
 40
2.0
 40
3.0
 40
3.0
 40
3.0
 40
4.0
 40
4.0
 40
4.0
 40
5.0
 40
5.0
 40
5.0
 40
6.0
 40
6.0
 40
6.0
 40
7.0
 40
7.0
 40
7.0
 40
8.0
 40
8.0
 40
8.0
 40
9.0
 40
9.0
 40
9.0
 40
10.0
 40
10.0
 40
10.0
 40
11.0
 40
11.0
 40
11.0
 40
12.0
 40
12.0
 40
12.0
 40
13.0
 40
13.0
 40
13.0
 40
14.0
 40
14.0
 40
14.0
 40
15.0
 40
15.0
 40
15.0
 40
16.0
 40
16.0
 40
16.0
 40
17.0
 40
17.0
 40
17.0
 40
18.0
 40
18.0
 40
18.0
 40
19.0
 40
19.0
 40
19.0
 40
20.0
 40
20.0
 40
20.0
 40
21.0
 40
21.0
 40
21.0
 40
22.0
 40
22.0
 40
22.0
 40
23.0
 40
23.0
 40
23.0
 40
24.0
 40
24.0
 40
24.0
 40
25.0
 40
25.0
 40
25.0
 40
26.0
 40
26.0
 40
26.0
 40
27.0
 40
27.0
 40
27.0
 40
28.0
 40
28.0
 40
28.0
 40
29.0
 40
29.0
 40
29.0
 40
30.0
 40
30.0
 40
30.0
 40
30.0
 10
616.2498462236217
 20
-426.2600805809589
 10
614.6569017124348
 20
-430.240550000839
 10
613.2644941587114
 20
-434.0223743213437
 10
611.8701947468999
 20
-438.0028437412238
 10
612.0707317043652
 20
-427.45478896435
 10
612.4680219031179
 20
-416.7071431590548
 10
612.8653121018706
 20
-406.3567875525123
 10
613.8604294568413
 20
-388.0464390352536
 10
613.6617843574641
 20
-372.7214425829061
 10
617.6422537773451
 20
-352.2212683272865
 10
620.2303156435028
 20
-339.4833878120508
 10
591.5705574487456
 20
-339.8816239398475
 10
585.9971435176776
 20
-349.2359162623761
 10
579.6272573310162
 20
-360.1822071670467
 10
577.2397324223239
 20
-383.0708522604036
 10
576.2446150673532
 20
-400.7843195504893
 10
575.050852613007
 20
-420.2893764511382
 10
574.6516705561662
 20
-440.1926694795848
 10
574.6516705561662
 20
-459.6967804511896
 10
574.6564002013893
 20
-460.6443648716668
 10
574.6734269241915
 20
-461.5905303985764
 10
574.6800484275045
 20
-462.5379965779221
 10
568.3811069191906
 20
-466.7532928831361
 10
560.9735365705492
 20
-470.014619746823
 10
553.3455647545052
 20
-472.4346609664253
 10
553.5461017119706
 20
-470.6440172849052
 10
553.744746811346
 20
-468.8524276743419
 10
553.744746811346
 20
-467.2604290921981
 10
558.1225064299797
 20
-418.0995507127773
 10
548.9678051358733
 20
-384.6628508425465
 10
522.8942169491811
 20
-361.7751516782346
 10
506.575049070907
 20
-347.4443266518119
 10
481.0992880404374
 20
-346.0509731690445
 10
462.1901664379166
 20
-367.5462647796339
 10
442.6870013953558
 20
-389.8380286458178
 10
432.9344729450313
 20
-423.0760834166722
 10
440.2975846285744
 20
-450.5420791570832
 10
439.5011123729801
 20
-452.7309589663992
 10
438.905177074852
 20
-455.5176659319332
 10
438.905177074852
 20
-458.7016630962198
 10
438.3073499186339
 20
-483.978779027314
 10
441.8905291397623
 20
-582.8964710842865
 10
499.6092275861165
 20
-579.1146467637827
 10
528.6662759796254
 20
-577.3230571532185
 10
544.9873357159922
 20
-530.3529504411999
 10
551.5558670020309
 20
-486.3672498650512
 10
560.4726671414082
 20
-482.8752345556004
 10
568.2351973640543
 20
-478.9328387797677
 10
574.7978165935638
 20
-474.38315655727
 10
575.3005778807947
 20
-508.8550575257377
 10
576.889265711281
 20
-543.2121463564108
 10
578.6321399760454
 20
-577.7212932810162
 10
579.2299671322635
 20
-591.057000952469
 10
614.6569017124348
 20
-596.032587727319
 10
615.0560837692756
 20
-582.4982349564907
 10
615.0560837692756
 20
-580.7066453459265
 10
615.2547288686528
 20
-578.7164106359869
 10
615.2547288686528
 20
-576.9257669544677
 10
615.2547288686528
 20
-576.9257669544677
 10
615.4533739680282
 20
-576.9257669544677
 10
615.4533739680282
 20
-576.9257669544677
 10
615.4533739680282
 20
-575.930649599497
 10
615.2547288686528
 20
-574.5372961167304
 10
615.2547288686528
 20
-573.3425877333393
 10
615.4533739680282
 20
-545.6779468935492
 10
614.0609664143067
 20
-515.0270080598075
 10
618.8360162316912
 20
-488.5561296743672
 10
625.40454751773
 20
-423.2747285160485
 10
652.274607960011
 20
-370.7312078729656
 10
673.569362613136
 20
-378.4935016133495
 10
684.9148355746474
 20
-382.6726161326069
 10
676.7552516355117
 20
-445.7651374816087
 10
662.6230717084636
 20
-446.1633736094054
 10
655.4586051242968
 20
-446.3620187087818
 10
653.4683704143572
 20
-438.4010798690215
 10
656.6523675786448
 20
-433.624138193547
 10
660.4341918991486
 20
-428.051670191523
 10
644.5123142196262
 20
-428.2503152908994
 10
642.3215425522212
 20
-429.6436687736659
 10
637.7451378342121
 20
-435.6143729034866
 10
638.5416100898055
 20
-448.750489546519
 10
647.4976662845365
 20
-454.7211936763397
 10
661.0301271972767
 20
-463.8768408994911
 10
673.1720724143834
 20
-458.9012541246411
 10
685.3121257734001
 20
-446.7602548365785
 10
708.201716795802
 20
-424.2698458710192
 10
711.9816492582158
 20
-352.4199134266619
 10
679.5400667429567
 20
-350.6292697451427
 10
647.2971293270712
 20
-348.8376801345785
 10
629.7841989944518
 20
-391.4300272279615
 10
616.2498462236217
 20
-426.2600805809589
 97
        0
 97
        0
 92
        1
 93
        1
 72
     4
 94
        3
 73
     0
 74
     1
 95
       14
 96
       10
 40
0.0
 40
0.0
 40
0.0
 40
0.0
 40
1.0
 40
1.0
 40
1.0
 40
2.0
 40
2.0
 40
2.0
 40
3.0
 40
3.0
 40
3.0
 40
3.0
 10
498.214928174305
 20
-556.6242377982235
 10
482.4916955941599
 20
-557.6193551531942
 10
476.1237012655865
 20
-520.4008309624551
 10
473.5356393994289
 20
-490.3477192849314
 10
486.8713470708817
 20
-496.318423414752
 10
503.5896970059966
 20
-497.3135407697218
 10
520.9039822392406
 20
-494.7264248326082
 10
517.3226948762021
 20
-523.5857740557858
 10
510.1563364339463
 20
-555.8287114716732
 10
498.214928174305
 20
-556.6242377982235
 97
        0
 97
        0
 92
        1
 93
        1
 72
     4
 94
        3
 73
     0
 74
     1
 95
       29
 96
       25
 40
0.0
 40
0.0
 40
0.0
 40
0.0
 40
1.0
 40
1.0
 40
1.0
 40
2.0
 40
2.0
 40
2.0
 40
3.0
 40
3.0
 40
3.0
 40
4.0
 40
4.0
 40
4.0
 40
5.0
 40
5.0
 40
5.0
 40
6.0
 40
6.0
 40
6.0
 40
7.0
 40
7.0
 40
7.0
 40
8.0
 40
8.0
 40
8.0
 40
8.0
 10
523.8893343041509
 20
-459.0998992240166
 10
523.8893343041509
 20
-463.8768408994911
 10
523.4920441053991
 20
-470.4444262564848
 10
522.6955718498048
 20
-477.808483869072
 10
501.001635139839
 20
-478.6049561246664
 10
481.4965782391901
 20
-473.2311332220188
 10
472.7391671438345
 20
-463.6781958001147
 10
472.3418769450827
 20
-463.279959672318
 10
472.1432318457064
 20
-462.8817235445213
 10
471.7440497888647
 20
-462.4834874167245
 10
471.7440497888647
 20
-458.9012541246411
 10
471.7440497888647
 20
-456.1145471591062
 10
471.7440497888647
 20
-454.5225485769633
 10
471.5454046894884
 20
-450.1438430292856
 10
468.7586977239544
 20
-446.3620187087818
 10
464.5795832046979
 20
-443.7749027716682
 10
462.3907033953819
 20
-426.6583167087556
 10
467.1657532127665
 20
-406.5563785809336
 10
469.7538150789251
 20
-397.9976125849553
 10
479.3076984298732
 20
-367.5462647796339
 10
498.4135732736813
 20
-348.8376801345785
 10
513.9381607544501
 20
-380.2841452948696
 10
525.2836337159633
 20
-402.9741452888502
 10
524.6858065597453
 20
-434.22101942072
 10
523.8893343041509
 20
-459.0998992240166
 97
        0
 97
        0
 75
     2
 76
     1
 98
        0
  0
SPLINE
  5
5C
330
41
100
AcDbEntity
  8
Layer 1
370
     0
100
AcDbSpline
210
0.0
220
0.0
230
1.0
 70
    11
 71
     3
 72
    41
 73
    37
 74
     0
 42
0.0000000001
 43
0.0000000001
 12
1.0
 22
0.0
 32
0.0
 13
1.0
 23
0.0
 33
0.0
 40
0.0
 40
0.0
 40
0.0
 40
0.0
 40
1.0
 40
1.0
 40
1.0
 40
2.0
 40
2.0
 40
2.0
 40
3.0
 40
3.0
 40
3.0
 40
4.0
 40
4.0
 40
4.0
 40
5.0
 40
5.0
 40
5.0
 40
6.0
 40
6.0
 40
6.0
 40
7.0
 40
7.0
 40
7.0
 40
8.0
 40
8.0
 40
8.0
 40
9.0
 40
9.0
 40
9.0
 40
10.0
 40
10.0
 40
10.0
 40
11.0
 40
11.0
 40
11.0
 40
12.0
 40
12.0
 40
12.0
 40
12.0
 10
872.4093233724925
 20
-427.2551979359296
 30
0.0
 10
868.6274990519887
 20
-448.1536083193459
 30
0.0
 10
850.9140317619022
 20
-487.9592484471941
 30
0.0
 10
845.5392629302096
 20
-496.9153046419251
 30
0.0
 10
833.0019193724402
 20
-517.4154788975447
 30
0.0
 10
813.6955075711667
 20
-548.0664177312901
 30
0.0
 10
788.0211014413217
 20
-547.0713003763194
 30
0.0
 10
758.564870990971
 20
-545.8765919929283
 30
0.0
 10
749.4082778387747
 20
-517.2168337981684
 30
0.0
 10
747.4180431288332
 20
-488.1578935465704
 30
0.0
 10
749.010987640022
 20
-488.3574845749908
 30
0.0
 10
750.6020402931208
 20
-488.7557207027876
 30
0.0
 10
752.1949848043078
 20
-488.7557207027876
 30
0.0
 10
775.4818660254623
 20
-490.7459554127281
 30
0.0
 10
792.3988610599536
 20
-474.6244867047862
 30
0.0
 10
803.5437970640014
 20
-455.9159020597308
 30
0.0
 10
821.0586192547107
 20
-426.4596716093802
 30
0.0
 10
850.5148497050614
 20
-332.915802455057
 30
0.0
 10
789.2148638956678
 20
-333.1144475544334
 30
0.0
 10
734.8788077129757
 20
-333.3130926538097
 30
0.0
 10
712.9862259036327
 20
-409.1434945180463
 30
0.0
 10
710.5987009949404
 20
-451.9354326398498
 30
0.0
 10
709.0057564837534
 20
-478.4063110252901
 30
0.0
 10
709.0057564837534
 20
-509.6531851571599
 30
0.0
 10
720.3512294452648
 20
-534.1338288326597
 30
0.0
 10
732.0939926055307
 20
-559.2113537353362
 30
0.0
 10
757.1705715791595
 20
-571.1537079240225
 30
0.0
 10
784.0406320214406
 20
-569.1634732140828
 30
0.0
 10
812.5017451168205
 20
-567.1732385041414
 30
0.0
 10
836.7818518348558
 20
-540.9010052180747
 30
0.0
 10
852.9042664718418
 20
-506.8674241206709
 30
0.0
 10
865.6421469870766
 20
-480.3965457352306
 30
0.0
 10
877.186265047967
 20
-448.750489546519
 30
0.0
 10
882.161851822817
 20
-427.45478896435
 30
0.0
 10
883.9534414333812
 20
-419.6924952239651
 30
0.0
 10
873.8017309262141
 20
-419.094668067748
 30
0.0
 10
872.4093233724925
 20
-427.2551979359296
 30
0.0
  0
SPLINE
  5
5D
330
41
100
AcDbEntity
  8
Layer 1
370
     0
100
AcDbSpline
210
0.0
220
0.0
230
1.0
 70
    11
 71
     3
 72
    23
 73
    19
 74
     0
 42
0.0000000001
 43
0.0000000001
 12
1.0
 22
0.0
 32
0.0
 13
1.0
 23
0.0
 33
0.0
 40
0.0
 40
0.0
 40
0.0
 40
0.0
 40
1.0
 40
1.0
 40
1.0
 40
2.0
 40
2.0
 40
2.0
 40
3.0
 40
3.0
 40
3.0
 40
4.0
 40
4.0
 40
4.0
 40
5.0
 40
5.0
 40
5.0
 40
6.0
 40
6.0
 40
6.0
 40
6.0
 10
749.4082778387747
 20
-433.8237292219674
 30
0.0
 10
754.9816917698427
 20
-377.100148130583
 30
0.0
 10
781.8498603540356
 20
-342.2700947775847
 30
0.0
 10
793.7931604717651
 20
-349.2359162623761
 30
0.0
 10
803.3451519646242
 20
-354.6097391650228
 30
0.0
 10
803.5437970640014
 20
-373.3183238100792
 30
0.0
 10
803.3451519646242
 20
-382.4739710332306
 30
0.0
 10
802.9478617658715
 20
-406.3567875525123
 30
0.0
 10
795.5828582242393
 20
-430.240550000839
 30
0.0
 10
783.8400950639752
 20
-451.1389603842563
 30
0.0
 10
777.6707458347792
 20
-461.8866061895505
 30
0.0
 10
765.5306924757606
 20
-482.7840706439229
 30
0.0
 10
749.6069229381501
 20
-474.8231318041617
 30
0.0
 10
748.6118055831794
 20
-474.4248956763649
 30
0.0
 10
747.8172251856759
 20
-473.8280144491919
 30
0.0
 10
747.0207529300824
 20
-473.2311332220188
 30
0.0
 10
747.0207529300824
 20
-457.1096645140769
 30
0.0
 10
748.6118055831794
 20
-442.3815492889016
 30
0.0
 10
749.4082778387747
 20
-433.8237292219674
 30
0.0
  0
HATCH
  5
5E
330
41
100
AcDbEntity
  8
Layer 1
 62
     7
420
 16777215
100
AcDbHatch
 10
0.0
 20
0.0
 30
0.0
210
0.0
220
0.0
230
1.0
  2
SOLID
 70
     1
 71
     0
 91
        2
 92
        1
 93
        1
 72
     4
 94
        3
 73
     0
 74
     1
 95
       41
 96
       37
 40
0.0
 40
0.0
 40
0.0
 40
0.0
 40
1.0
 40
1.0
 40
1.0
 40
2.0
 40
2.0
 40
2.0
 40
3.0
 40
3.0
 40
3.0
 40
4.0
 40
4.0
 40
4.0
 40
5.0
 40
5.0
 40
5.0
 40
6.0
 40
6.0
 40
6.0
 40
7.0
 40
7.0
 40
7.0
 40
8.0
 40
8.0
 40
8.0
 40
9.0
 40
9.0
 40
9.0
 40
10.0
 40
10.0
 40
10.0
 40
11.0
 40
11.0
 40
11.0
 40
12.0
 40
12.0
 40
12.0
 40
12.0
 10
872.4093233724925
 20
-427.2551979359296
 10
868.6274990519887
 20
-448.1536083193459
 10
850.9140317619022
 20
-487.9592484471941
 10
845.5392629302096
 20
-496.9153046419251
 10
833.0019193724402
 20
-517.4154788975447
 10
813.6955075711667
 20
-548.0664177312901
 10
788.0211014413217
 20
-547.0713003763194
 10
758.564870990971
 20
-545.8765919929283
 10
749.4082778387747
 20
-517.2168337981684
 10
747.4180431288332
 20
-488.1578935465704
 10
749.010987640022
 20
-488.3574845749908
 10
750.6020402931208
 20
-488.7557207027876
 10
752.1949848043078
 20
-488.7557207027876
 10
775.4818660254623
 20
-490.7459554127281
 10
792.3988610599536
 20
-474.6244867047862
 10
803.5437970640014
 20
-455.9159020597308
 10
821.0586192547107
 20
-426.4596716093802
 10
850.5148497050614
 20
-332.915802455057
 10
789.2148638956678
 20
-333.1144475544334
 10
734.8788077129757
 20
-333.3130926538097
 10
712.9862259036327
 20
-409.1434945180463
 10
710.5987009949404
 20
-451.9354326398498
 10
709.0057564837534
 20
-478.4063110252901
 10
709.0057564837534
 20
-509.6531851571599
 10
720.3512294452648
 20
-534.1338288326597
 10
732.0939926055307
 20
-559.2113537353362
 10
757.1705715791595
 20
-571.1537079240225
 10
784.0406320214406
 20
-569.1634732140828
 10
812.5017451168205
 20
-567.1732385041414
 10
836.7818518348558
 20
-540.9010052180747
 10
852.9042664718418
 20
-506.8674241206709
 10
865.6421469870766
 20
-480.3965457352306
 10
877.186265047967
 20
-448.750489546519
 10
882.161851822817
 20
-427.45478896435
 10
883.9534414333812
 20
-419.6924952239651
 10
873.8017309262141
 20
-419.094668067748
 10
872.4093233724925
 20
-427.2551979359296
 97
        0
 97
        0
 92
        1
 93
        1
 72
     4
 94
        3
 73
     0
 74
     1
 95
       23
 96
       19
 40
0.0
 40
0.0
 40
0.0
 40
0.0
 40
1.0
 40
1.0
 40
1.0
 40
2.0
 40
2.0
 40
2.0
 40
3.0
 40
3.0
 40
3.0
 40
4.0
 40
4.0
 40
4.0
 40
5.0
 40
5.0
 40
5.0
 40
6.0
 40
6.0
 40
6.0
 40
6.0
 10
749.4082778387747
 20
-433.8237292219674
 10
754.9816917698427
 20
-377.100148130583
 10
781.8498603540356
 20
-342.2700947775847
 10
793.7931604717651
 20
-349.2359162623761
 10
803.3451519646242
 20
-354.6097391650228
 10
803.5437970640014
 20
-373.3183238100792
 10
803.3451519646242
 20
-382.4739710332306
 10
802.9478617658715
 20
-406.3567875525123
 10
795.5828582242393
 20
-430.240550000839
 10
783.8400950639752
 20
-451.1389603842563
 10
777.6707458347792
 20
-461.8866061895505
 10
765.5306924757606
 20
-482.7840706439229
 10
749.6069229381501
 20
-474.8231318041617
 10
748.6118055831794
 20
-474.4248956763649
 10
747.8172251856759
 20
-473.8280144491919
 10
747.0207529300824
 20
-473.2311332220188
 10
747.0207529300824
 20
-457.1096645140769
 10
748.6118055831794
 20
-442.3815492889016
 10
749.4082778387747
 20
-433.8237292219674
 97
        0
 97
        0
 75
     2
 76
     1
 98
        0
  0
SPLINE
  5
5F
330
41
100
AcDbEntity
  8
Layer 1
370
     0
100
AcDbSpline
210
0.0
220
0.0
230
1.0
 70
    11
 71
     3
 72
   128
 73
   124
 74
     0
 42
0.0000000001
 43
0.0000000001
 12
1.0
 22
0.0
 32
0.0
 13
1.0
 23
0.0
 33
0.0
 40
0.0
 40
0.0
 40
0.0
 40
0.0
 40
1.0
 40
1.0
 40
1.0
 40
2.0
 40
2.0
 40
2.0
 40
3.0
 40
3.0
 40
3.0
 40
4.0
 40
4.0
 40
4.0
 40
5.0
 40
5.0
 40
5.0
 40
6.0
 40
6.0
 40
6.0
 40
7.0
 40
7.0
 40
7.0
 40
8.0
 40
8.0
 40
8.0
 40
9.0
 40
9.0
 40
9.0
 40
10.0
 40
10.0
 40
10.0
 40
11.0
 40
11.0
 40
11.0
 40
12.0
 40
12.0
 40
12.0
 40
13.0
 40
13.0
 40
13.0
 40
14.0
 40
14.0
 40
14.0
 40
15.0
 40
15.0
 40
15.0
 40
16.0
 40
16.0
 40
16.0
 40
17.0
 40
17.0
 40
17.0
 40
18.0
 40
18.0
 40
18.0
 40
19.0
 40
19.0
 40
19.0
 40
20.0
 40
20.0
 40
20.0
 40
21.0
 40
21.0
 40
21.0
 40
22.0
 40
22.0
 40
22.0
 40
23.0
 40
23.0
 40
23.0
 40
24.0
 40
24.0
 40
24.0
 40
25.0
 40
25.0
 40
25.0
 40
26.0
 40
26.0
 40
26.0
 40
27.0
 40
27.0
 40
27.0
 40
28.0
 40
28.0
 40
28.0
 40
29.0
 40
29.0
 40
29.0
 40
30.0
 40
30.0
 40
30.0
 40
31.0
 40
31.0
 40
31.0
 40
32.0
 40
32.0
 40
32.0
 40
33.0
 40
33.0
 40
33.0
 40
34.0
 40
34.0
 40
34.0
 40
35.0
 40
35.0
 40
35.0
 40
36.0
 40
36.0
 40
36.0
 40
37.0
 40
37.0
 40
37.0
 40
38.0
 40
38.0
 40
38.0
 40
39.0
 40
39.0
 40
39.0
 40
40.0
 40
40.0
 40
40.0
 40
41.0
 40
41.0
 40
41.0
 40
41.0
 10
361.4733173380246
 20
-601.1595231493138
 30
0.0
 10
355.4893702015797
 20
-600.3857531907906
 30
0.0
 10
350.1524385316734
 20
-604.7294593638162
 30
0.0
 10
349.2443466488112
 20
-610.573409001654
 30
0.0
 10
344.1590321047806
 20
-643.2912027979528
 30
0.0
 10
343.9320091340651
 20
-676.8395222954514
 30
0.0
 10
349.0229992523628
 20
-709.5715050274193
 30
0.0
 10
351.5032252074307
 20
-725.5179768621019
 30
0.0
 10
353.6372411321581
 20
-744.463043768319
 30
0.0
 10
369.7350616139838
 20
-752.5223592287239
 30
0.0
 10
385.6607230096843
 20
-760.4965410751101
 30
0.0
 10
402.0082687592976
 20
-747.7567687017854
 30
0.0
 10
408.1700505561366
 20
-733.4609430500132
 30
0.0
 10
414.6383133634426
 20
-718.4490491114448
 30
0.0
 10
419.5476851051671
 20
-702.6652770724413
 30
0.0
 10
425.3046092708973
 20
-687.3686584914321
 30
0.0
 10
426.3564823685465
 20
-684.5734381644961
 30
0.0
 10
427.4178147566417
 20
-681.78200155374
 30
0.0
 10
428.477255286648
 20
-678.990564942982
 30
0.0
 10
428.624820217613
 20
-679.5685275892629
 30
0.0
 10
428.7440072772388
 20
-680.0490595439442
 30
0.0
 10
428.8045467360962
 20
-680.3498649801422
 30
0.0
 10
429.663450308637
 20
-684.5904648873002
 30
0.0
 10
430.5223538811779
 20
-688.83106479446
 30
0.0
 10
431.3812574537187
 20
-693.0716647016179
 30
0.0
 10
432.9969042619778
 20
-701.0543599094053
 30
0.0
 10
434.6106592121487
 20
-709.0370551171927
 30
0.0
 10
436.2300897365858
 20
-717.0188043959351
 30
0.0
 10
437.6565507359155
 20
-724.0498949848079
 30
0.0
 10
439.1757127816218
 20
-731.3061166863044
 30
0.0
 10
444.348052797759
 20
-736.6307512786298
 30
0.0
 10
449.7493076427008
 20
-742.1909222030736
 30
0.0
 10
458.3780723879836
 20
-744.9681698781606
 30
0.0
 10
465.7279410649007
 20
-741.6072839825265
 30
0.0
 10
471.800805531544
 20
-738.8300363074377
 30
0.0
 10
475.4047951916546
 20
-732.8933856232252
 30
0.0
 10
477.1812499375037
 20
-726.6852533031979
 30
0.0
 10
482.211700596944
 20
-709.0994864341392
 30
0.0
 10
484.7638171594053
 20
-690.4145500152008
 30
0.0
 10
486.623513661184
 20
-672.2564960741292
 30
0.0
 10
488.5475333379982
 20
-653.4637237441002
 30
0.0
 10
489.4650845113074
 20
-634.372983765008
 30
0.0
 10
489.0337408669475
 20
-615.4808888852895
 30
0.0
 10
488.8975270845185
 20
-609.4411319352093
 30
0.0
 10
481.8976521541208
 20
-605.2062076023194
 30
0.0
 10
476.4207229856065
 20
-605.9752479156177
 30
0.0
 10
470.1378622710517
 20
-606.8577997142747
 30
0.0
 10
466.4279285579414
 20
-612.5522925630576
 30
0.0
 10
466.9141360868907
 20
-618.5892117260046
 30
0.0
 10
468.1097903993259
 20
-633.4232710041797
 30
0.0
 10
468.8286964732588
 20
-648.0832793381414
 30
0.0
 10
468.2062751618796
 20
-662.9636891395039
 30
0.0
 10
467.5781782762333
 20
-677.941529632466
 30
0.0
 10
466.1214475474753
 20
-692.8853166798217
 30
0.0
 10
463.8398666917828
 20
-707.7023492351946
 30
0.0
 10
463.2987952782441
 20
-711.2174215651066
 30
0.0
 10
462.7123192705621
 20
-714.7258723917075
 30
0.0
 10
462.0785468106478
 20
-718.2248639278623
 30
0.0
 10
461.5999067140556
 20
-720.8706274657434
 30
0.0
 10
461.367208169072
 20
-723.4378788929207
 30
0.0
 10
460.0088540609568
 20
-725.7809451365138
 30
0.0
 10
459.4772419378651
 20
-726.699442238867
 30
0.0
 10
459.5150790996504
 20
-726.8394397374759
 30
0.0
 10
458.5521233321988
 20
-726.8205211565819
 30
0.0
 10
456.7453988569205
 20
-726.7864677109756
 30
0.0
 10
455.3965040392513
 20
-724.9683920871612
 30
0.0
 10
454.6473282358902
 20
-723.5551740944557
 30
0.0
 10
451.6676517452479
 20
-717.9401392854234
 30
0.0
 10
451.2249569523519
 20
-710.4531108970314
 30
0.0
 10
449.9347097354521
 20
-704.3178151134416
 30
0.0
 10
448.3606838051574
 20
-696.8430838026306
 30
0.0
 10
446.7866578748617
 20
-689.3674065627747
 30
0.0
 10
445.212631944567
 20
-681.8917293229188
 30
0.0
 10
444.47859100592
 20
-678.403143006255
 30
0.0
 10
443.7369826349159
 20
-674.9164485476813
 30
0.0
 10
443.0105091286259
 20
-671.4269163019744
 30
0.0
 10
442.274576331889
 20
-667.8900876040334
 30
0.0
 10
441.7864769448506
 20
-664.0742098379214
 30
0.0
 10
439.6165157164278
 20
-661.068047334029
 30
0.0
 10
435.1309201867043
 20
-654.8589690849567
 30
0.0
 10
426.6572878047446
 20
-654.3860045626334
 30
0.0
 10
421.0763064413195
 20
-659.4533464548149
 30
0.0
 10
415.8188328111637
 20
-664.2246125560214
 30
0.0
 10
413.8721108372774
 20
-671.8715029529576
 30
0.0
 10
411.3181024167261
 20
-678.248956571977
 30
0.0
 10
408.4084246753882
 20
-685.5080160606085
 30
0.0
 10
405.4098296038528
 20
-692.7301843165005
 30
0.0
 10
402.4358286874785
 20
-699.963703720925
 30
0.0
 10
399.5185835137827
 20
-707.0647930591003
 30
0.0
 10
396.6467429342301
 20
-714.1876387653028
 30
0.0
 10
393.6784175921239
 20
-721.268863593541
 30
0.0
 10
391.8584501102205
 20
-725.6106779084766
 30
0.0
 10
389.4538984787241
 20
-730.9778793078112
 30
0.0
 10
385.0704632858233
 20
-732.9785192372437
 30
0.0
 10
384.2607480236047
 20
-733.3483774937013
 30
0.0
 10
383.2977922561522
 20
-733.7589106990781
 30
0.0
 10
382.09267865327
 20
-733.6860741626406
 30
0.0
 10
382.7283429712743
 20
-733.6832363755057
 30
0.0
 10
381.504310787499
 20
-733.1128411615828
 30
0.0
 10
380.8818894761207
 20
-732.8650077518851
 30
0.0
 10
380.6548665054052
 20
-732.7751444926434
 30
0.0
 10
380.5110852906182
 20
-732.71933467901
 30
0.0
 10
380.4221679604216
 20
-732.6890649495817
 30
0.0
 10
380.0173103293118
 20
-732.4119077394989
 30
0.0
 10
379.6219119886491
 20
-732.0884000062288
 30
0.0
 10
379.2643508097717
 20
-731.7809730667177
 30
0.0
 10
380.0646067815442
 20
-732.4137995975889
 30
0.0
 10
377.8870781207634
 20
-729.8853312612428
 30
0.0
 10
378.1557219694441
 20
-730.4822124884158
 30
0.0
 10
377.4727611992075
 20
-729.3518272800611
 30
0.0
 10
376.9373653599368
 20
-728.1050927992146
 30
0.0
 10
376.4530496890766
 20
-726.8876821187532
 30
0.0
 10
376.2714313125043
 20
-726.4260687449641
 30
0.0
 10
375.4200951723205
 20
-723.62706470185
 30
0.0
 10
375.5279310834103
 20
-724.1397582440495
 30
0.0
 10
374.6198392005481
 20
-720.4875262026617
 30
0.0
 10
373.9482295788475
 20
-716.7624576248363
 30
0.0
 10
373.2747280990579
 20
-713.0629291312162
 30
0.0
 10
367.279429814077
 20
-680.1181123642018
 30
0.0
 10
366.4299855319823
 20
-646.562225434347
 30
0.0
 10
370.8872031903657
 20
-613.3884938385272
 30
0.0
 10
371.670432439334
 20
-607.5521116330474
 30
0.0
 10
367.2964565368802
 20
-601.9115367398081
 30
0.0
 10
361.4733173380246
 20
-601.1595231493138
 30
0.0
  0
HATCH
  5
60
330
41
100
AcDbEntity
  8
Layer 1
 62
     7
420
 16777215
100
AcDbHatch
 10
0.0
 20
0.0
 30
0.0
210
0.0
220
0.0
230
1.0
  2
SOLID
 70
     1
 71
     0
 91
        1
 92
        1
 93
        1
 72
     4
 94
        3
 73
     0
 74
     1
 95
      128
 96
      124
 40
0.0
 40
0.0
 40
0.0
 40
0.0
 40
1.0
 40
1.0
 40
1.0
 40
2.0
 40
2.0
 40
2.0
 40
3.0
 40
3.0
 40
3.0
 40
4.0
 40
4.0
 40
4.0
 40
5.0
 40
5.0
 40
5.0
 40
6.0
 40
6.0
 40
6.0
 40
7.0
 40
7.0
 40
7.0
 40
8.0
 40
8.0
 40
8.0
 40
9.0
 40
9.0
 40
9.0
 40
10.0
 40
10.0
 40
10.0
 40
11.0
 40
11.0
 40
11.0
 40
12.0
 40
12.0
 40
12.0
 40
13.0
 40
13.0
 40
13.0
 40
14.0
 40
14.0
 40
14.0
 40
15.0
 40
15.0
 40
15.0
 40
16.0
 40
16.0
 40
16.0
 40
17.0
 40
17.0
 40
17.0
 40
18.0
 40
18.0
 40
18.0
 40
19.0
 40
19.0
 40
19.0
 40
20.0
 40
20.0
 40
20.0
 40
21.0
 40
21.0
 40
21.0
 40
22.0
 40
22.0
 40
22.0
 40
23.0
 40
23.0
 40
23.0
 40
24.0
 40
24.0
 40
24.0
 40
25.0
 40
25.0
 40
25.0
 40
26.0
 40
26.0
 40
26.0
 40
27.0
 40
27.0
 40
27.0
 40
28.0
 40
28.0
 40
28.0
 40
29.0
 40
29.0
 40
29.0
 40
30.0
 40
30.0
 40
30.0
 40
31.0
 40
31.0
 40
31.0
 40
32.0
 40
32.0
 40
32.0
 40
33.0
 40
33.0
 40
33.0
 40
34.0
 40
34.0
 40
34.0
 40
35.0
 40
35.0
 40
35.0
 40
36.0
 40
36.0
 40
36.0
 40
37.0
 40
37.0
 40
37.0
 40
38.0
 40
38.0
 40
38.0
 40
39.0
 40
39.0
 40
39.0
 40
40.0
 40
40.0
 40
40.0
 40
41.0
 40
41.0
 40
41.0
 40
41.0
 10
361.4733173380246
 20
-601.1595231493138
 10
355.4893702015797
 20
-600.3857531907906
 10
350.1524385316734
 20
-604.7294593638162
 10
349.2443466488112
 20
-610.573409001654
 10
344.1590321047806
 20
-643.2912027979528
 10
343.9320091340651
 20
-676.8395222954514
 10
349.0229992523628
 20
-709.5715050274193
 10
351.5032252074307
 20
-725.5179768621019
 10
353.6372411321581
 20
-744.463043768319
 10
369.7350616139838
 20
-752.5223592287239
 10
385.6607230096843
 20
-760.4965410751101
 10
402.0082687592976
 20
-747.7567687017854
 10
408.1700505561366
 20
-733.4609430500132
 10
414.6383133634426
 20
-718.4490491114448
 10
419.5476851051671
 20
-702.6652770724413
 10
425.3046092708973
 20
-687.3686584914321
 10
426.3564823685465
 20
-684.5734381644961
 10
427.4178147566417
 20
-681.78200155374
 10
428.477255286648
 20
-678.990564942982
 10
428.624820217613
 20
-679.5685275892629
 10
428.7440072772388
 20
-680.0490595439442
 10
428.8045467360962
 20
-680.3498649801422
 10
429.663450308637
 20
-684.5904648873002
 10
430.5223538811779
 20
-688.83106479446
 10
431.3812574537187
 20
-693.0716647016179
 10
432.9969042619778
 20
-701.0543599094053
 10
434.6106592121487
 20
-709.0370551171927
 10
436.2300897365858
 20
-717.0188043959351
 10
437.6565507359155
 20
-724.0498949848079
 10
439.1757127816218
 20
-731.3061166863044
 10
444.348052797759
 20
-736.6307512786298
 10
449.7493076427008
 20
-742.1909222030736
 10
458.3780723879836
 20
-744.9681698781606
 10
465.7279410649007
 20
-741.6072839825265
 10
471.800805531544
 20
-738.8300363074377
 10
475.4047951916546
 20
-732.8933856232252
 10
477.1812499375037
 20
-726.6852533031979
 10
482.211700596944
 20
-709.0994864341392
 10
484.7638171594053
 20
-690.4145500152008
 10
486.623513661184
 20
-672.2564960741292
 10
488.5475333379982
 20
-653.4637237441002
 10
489.4650845113074
 20
-634.372983765008
 10
489.0337408669475
 20
-615.4808888852895
 10
488.8975270845185
 20
-609.4411319352093
 10
481.8976521541208
 20
-605.2062076023194
 10
476.4207229856065
 20
-605.9752479156177
 10
470.1378622710517
 20
-606.8577997142747
 10
466.4279285579414
 20
-612.5522925630576
 10
466.9141360868907
 20
-618.5892117260046
 10
468.1097903993259
 20
-633.4232710041797
 10
468.8286964732588
 20
-648.0832793381414
 10
468.2062751618796
 20
-662.9636891395039
 10
467.5781782762333
 20
-677.941529632466
 10
466.1214475474753
 20
-692.8853166798217
 10
463.8398666917828
 20
-707.7023492351946
 10
463.2987952782441
 20
-711.2174215651066
 10
462.7123192705621
 20
-714.7258723917075
 10
462.0785468106478
 20
-718.2248639278623
 10
461.5999067140556
 20
-720.8706274657434
 10
461.367208169072
 20
-723.4378788929207
 10
460.0088540609568
 20
-725.7809451365138
 10
459.4772419378651
 20
-726.699442238867
 10
459.5150790996504
 20
-726.8394397374759
 10
458.5521233321988
 20
-726.8205211565819
 10
456.7453988569205
 20
-726.7864677109756
 10
455.3965040392513
 20
-724.9683920871612
 10
454.6473282358902
 20
-723.5551740944557
 10
451.6676517452479
 20
-717.9401392854234
 10
451.2249569523519
 20
-710.4531108970314
 10
449.9347097354521
 20
-704.3178151134416
 10
448.3606838051574
 20
-696.8430838026306
 10
446.7866578748617
 20
-689.3674065627747
 10
445.212631944567
 20
-681.8917293229188
 10
444.47859100592
 20
-678.403143006255
 10
443.7369826349159
 20
-674.9164485476813
 10
443.0105091286259
 20
-671.4269163019744
 10
442.274576331889
 20
-667.8900876040334
 10
441.7864769448506
 20
-664.0742098379214
 10
439.6165157164278
 20
-661.068047334029
 10
435.1309201867043
 20
-654.8589690849567
 10
426.6572878047446
 20
-654.3860045626334
 10
421.0763064413195
 20
-659.4533464548149
 10
415.8188328111637
 20
-664.2246125560214
 10
413.8721108372774
 20
-671.8715029529576
 10
411.3181024167261
 20
-678.248956571977
 10
408.4084246753882
 20
-685.5080160606085
 10
405.4098296038528
 20
-692.7301843165005
 10
402.4358286874785
 20
-699.963703720925
 10
399.5185835137827
 20
-707.0647930591003
 10
396.6467429342301
 20
-714.1876387653028
 10
393.6784175921239
 20
-721.268863593541
 10
391.8584501102205
 20
-725.6106779084766
 10
389.4538984787241
 20
-730.9778793078112
 10
385.0704632858233
 20
-732.9785192372437
 10
384.2607480236047
 20
-733.3483774937013
 10
383.2977922561522
 20
-733.7589106990781
 10
382.09267865327
 20
-733.6860741626406
 10
382.7283429712743
 20
-733.6832363755057
 10
381.504310787499
 20
-733.1128411615828
 10
380.8818894761207
 20
-732.8650077518851
 10
380.6548665054052
 20
-732.7751444926434
 10
380.5110852906182
 20
-732.71933467901
 10
380.4221679604216
 20
-732.6890649495817
 10
380.0173103293118
 20
-732.4119077394989
 10
379.6219119886491
 20
-732.0884000062288
 10
379.2643508097717
 20
-731.7809730667177
 10
380.0646067815442
 20
-732.4137995975889
 10
377.8870781207634
 20
-729.8853312612428
 10
378.1557219694441
 20
-730.4822124884158
 10
377.4727611992075
 20
-729.3518272800611
 10
376.9373653599368
 20
-728.1050927992146
 10
376.4530496890766
 20
-726.8876821187532
 10
376.2714313125043
 20
-726.4260687449641
 10
375.4200951723205
 20
-723.62706470185
 10
375.5279310834103
 20
-724.1397582440495
 10
374.6198392005481
 20
-720.4875262026617
 10
373.9482295788475
 20
-716.7624576248363
 10
373.2747280990579
 20
-713.0629291312162
 10
367.279429814077
 20
-680.1181123642018
 10
366.4299855319823
 20
-646.562225434347
 10
370.8872031903657
 20
-613.3884938385272
 10
371.670432439334
 20
-607.5521116330474
 10
367.2964565368802
 20
-601.9115367398081
 10
361.4733173380246
 20
-601.1595231493138
 97
        0
 97
        0
 75
     2
 76
     1
 98
        0
  0
SPLINE
  5
61
330
41
100
AcDbEntity
  8
Layer 1
370
     0
100
AcDbSpline
210
0.0
220
0.0
230
1.0
 70
    11
 71
     3
 72
    32
 73
    28
 74
     0
 42
0.0000000001
 43
0.0000000001
 12
1.0
 22
0.0
 32
0.0
 13
1.0
 23
0.0
 33
0.0
 40
0.0
 40
0.0
 40
0.0
 40
0.0
 40
1.0
 40
1.0
 40
1.0
 40
2.0
 40
2.0
 40
2.0
 40
3.0
 40
3.0
 40
3.0
 40
4.0
 40
4.0
 40
4.0
 40
5.0
 40
5.0
 40
5.0
 40
6.0
 40
6.0
 40
6.0
 40
7.0
 40
7.0
 40
7.0
 40
8.0
 40
8.0
 40
8.0
 40
9.0
 40
9.0
 40
9.0
 40
9.0
 10
572.112797000329
 20
-627.8262088469965
 30
0.0
 10
565.0921116309491
 20
-621.7949652583175
 30
0.0
 10
556.2533506377549
 20
-618.8086672643622
 30
0.0
 10
547.3445908952563
 20
-619.7678393156366
 30
0.0
 10
547.1762155253091
 20
-619.5029791831348
 30
0.0
 10
546.992705290646
 20
-619.2419027668111
 30
0.0
 10
546.7921683331806
 20
-618.9883937828454
 30
0.0
 10
543.6611431953952
 20
-615.0268429438584
 30
0.0
 10
537.3328778866944
 20
-614.0761842539869
 30
0.0
 10
533.3675433315275
 20
-617.4124759944625
 30
0.0
 10
515.9700163423549
 20
-632.0526198184853
 30
0.0
 10
509.3995931982272
 20
-655.2619348579774
 30
0.0
 10
507.7347580796468
 20
-677.1469492349624
 30
0.0
 10
506.143705426548
 20
-698.0718456316281
 30
0.0
 10
505.4702039467584
 20
-727.579156250391
 30
0.0
 10
525.4028207755891
 20
-740.790947216994
 30
0.0
 10
534.5480627792494
 20
-746.8534064641462
 30
0.0
 10
546.4573094513762
 20
-747.5846096156583
 30
0.0
 10
556.39713185254
 20
-742.9382061483466
 30
0.0
 10
565.8507467247564
 20
-738.5197715807935
 30
0.0
 10
573.0303481736373
 20
-730.4008625905772
 30
0.0
 10
578.2367416353827
 20
-721.5337237260428
 30
0.0
 10
589.2927603092321
 20
-702.7040601632725
 30
0.0
 10
593.5286305711688
 20
-679.4323138068321
 30
0.0
 10
588.7724993346765
 20
-657.994723867967
 30
0.0
 10
586.2298420626612
 20
-646.5404690663199
 30
0.0
 10
581.1445275186325
 20
-635.5828270131133
 30
0.0
 10
572.112797000329
 20
-627.8262088469965
 30
0.0
  0
SPLINE
  5
62
330
41
100
AcDbEntity
  8
Layer 1
370
     0
100
AcDbSpline
210
0.0
220
0.0
230
1.0
 70
    11
 71
     3
 72
    32
 73
    28
 74
     0
 42
0.0000000001
 43
0.0000000001
 12
1.0
 22
0.0
 32
0.0
 13
1.0
 23
0.0
 33
0.0
 40
0.0
 40
0.0
 40
0.0
 40
0.0
 40
1.0
 40
1.0
 40
1.0
 40
2.0
 40
2.0
 40
2.0
 40
3.0
 40
3.0
 40
3.0
 40
4.0
 40
4.0
 40
4.0
 40
5.0
 40
5.0
 40
5.0
 40
6.0
 40
6.0
 40
6.0
 40
7.0
 40
7.0
 40
7.0
 40
8.0
 40
8.0
 40
8.0
 40
9.0
 40
9.0
 40
9.0
 40
9.0
 10
569.4150073649926
 20
-709.4002918703372
 30
0.0
 10
564.0875349855323
 20
-720.1394243142313
 30
0.0
 10
550.0423805305927
 20
-737.6220849174224
 30
0.0
 10
536.3320849574557
 20
-728.9091324871661
 30
0.0
 10
530.815426769067
 20
-725.4025735186551
 30
0.0
 10
528.2179056124623
 20
-717.6800087981446
 30
0.0
 10
527.0790070427056
 20
-711.6629541451366
 30
0.0
 10
525.3120115873025
 20
-702.3313641196801
 30
0.0
 10
525.6979506375192
 20
-692.7358598907667
 30
0.0
 10
526.3184800908084
 20
-683.3002176703994
 30
0.0
 10
526.9787385639729
 20
-673.2364785643858
 30
0.0
 10
528.3446601044452
 20
-663.1632801679261
 30
0.0
 10
531.689465206322
 20
-653.7616913931652
 30
0.0
 10
534.5537383535175
 20
-645.7042677908503
 30
0.0
 10
538.5606937866478
 20
-638.5492604971296
 30
0.0
 10
544.0905949816661
 20
-633.4109739266005
 30
0.0
 10
544.8586893659194
 20
-633.3835419843053
 30
0.0
 10
545.6400267567988
 20
-633.2577334213674
 30
0.0
 10
546.4100129991439
 20
-633.033548237785
 30
0.0
 10
552.7742236115373
 20
-631.1814191683643
 30
0.0
 10
559.4354559439507
 20
-634.2764990024534
 30
0.0
 10
564.2086139032472
 20
-638.315616023101
 30
0.0
 10
569.910674184388
 20
-643.1408000798529
 30
0.0
 10
573.4087197914978
 20
-650.6013424549947
 30
0.0
 10
575.3270638940448
 20
-657.6768917089648
 30
0.0
 10
579.9413057738384
 20
-674.6884796479208
 30
0.0
 10
577.1848685377336
 20
-693.7404365361836
 30
0.0
 10
569.4150073649926
 20
-709.4002918703372
 30
0.0
  0
HATCH
  5
63
330
41
100
AcDbEntity
  8
Layer 1
 62
     7
420
 16777215
100
AcDbHatch
 10
0.0
 20
0.0
 30
0.0
210
0.0
220
0.0
230
1.0
  2
SOLID
 70
     1
 71
     0
 91
        2
 92
        1
 93
        1
 72
     4
 94
        3
 73
     0
 74
     1
 95
       32
 96
       28
 40
0.0
 40
0.0
 40
0.0
 40
0.0
 40
1.0
 40
1.0
 40
1.0
 40
2.0
 40
2.0
 40
2.0
 40
3.0
 40
3.0
 40
3.0
 40
4.0
 40
4.0
 40
4.0
 40
5.0
 40
5.0
 40
5.0
 40
6.0
 40
6.0
 40
6.0
 40
7.0
 40
7.0
 40
7.0
 40
8.0
 40
8.0
 40
8.0
 40
9.0
 40
9.0
 40
9.0
 40
9.0
 10
572.112797000329
 20
-627.8262088469965
 10
565.0921116309491
 20
-621.7949652583175
 10
556.2533506377549
 20
-618.8086672643622
 10
547.3445908952563
 20
-619.7678393156366
 10
547.1762155253091
 20
-619.5029791831348
 10
546.992705290646
 20
-619.2419027668111
 10
546.7921683331806
 20
-618.9883937828454
 10
543.6611431953952
 20
-615.0268429438584
 10
537.3328778866944
 20
-614.0761842539869
 10
533.3675433315275
 20
-617.4124759944625
 10
515.9700163423549
 20
-632.0526198184853
 10
509.3995931982272
 20
-655.2619348579774
 10
507.7347580796468
 20
-677.1469492349624
 10
506.143705426548
 20
-698.0718456316281
 10
505.4702039467584
 20
-727.579156250391
 10
525.4028207755891
 20
-740.790947216994
 10
534.5480627792494
 20
-746.8534064641462
 10
546.4573094513762
 20
-747.5846096156583
 10
556.39713185254
 20
-742.9382061483466
 10
565.8507467247564
 20
-738.5197715807935
 10
573.0303481736373
 20
-730.4008625905772
 10
578.2367416353827
 20
-721.5337237260428
 10
589.2927603092321
 20
-702.7040601632725
 10
593.5286305711688
 20
-679.4323138068321
 10
588.7724993346765
 20
-657.994723867967
 10
586.2298420626612
 20
-646.5404690663199
 10
581.1445275186325
 20
-635.5828270131133
 10
572.112797000329
 20
-627.8262088469965
 97
        0
 97
        0
 92
        1
 93
        1
 72
     4
 94
        3
 73
     0
 74
     1
 95
       32
 96
       28
 40
0.0
 40
0.0
 40
0.0
 40
0.0
 40
1.0
 40
1.0
 40
1.0
 40
2.0
 40
2.0
 40
2.0
 40
3.0
 40
3.0
 40
3.0
 40
4.0
 40
4.0
 40
4.0
 40
5.0
 40
5.0
 40
5.0
 40
6.0
 40
6.0
 40
6.0
 40
7.0
 40
7.0
 40
7.0
 40
8.0
 40
8.0
 40
8.0
 40
9.0
 40
9.0
 40
9.0
 40
9.0
 10
569.4150073649926
 20
-709.4002918703372
 10
564.0875349855323
 20
-720.1394243142313
 10
550.0423805305927
 20
-737.6220849174224
 10
536.3320849574557
 20
-728.9091324871661
 10
530.815426769067
 20
-725.4025735186551
 10
528.2179056124623
 20
-717.6800087981446
 10
527.0790070427056
 20
-711.6629541451366
 10
525.3120115873025
 20
-702.3313641196801
 10
525.6979506375192
 20
-692.7358598907667
 10
526.3184800908084
 20
-683.3002176703994
 10
526.9787385639729
 20
-673.2364785643858
 10
528.3446601044452
 20
-663.1632801679261
 10
531.689465206322
 20
-653.7616913931652
 10
534.5537383535175
 20
-645.7042677908503
 10
538.5606937866478
 20
-638.5492604971296
 10
544.0905949816661
 20
-633.4109739266005
 10
544.8586893659194
 20
-633.3835419843053
 10
545.6400267567988
 20
-633.2577334213674
 10
546.4100129991439
 20
-633.033548237785
 10
552.7742236115373
 20
-631.1814191683643
 10
559.4354559439507
 20
-634.2764990024534
 10
564.2086139032472
 20
-638.315616023101
 10
569.910674184388
 20
-643.1408000798529
 10
573.4087197914978
 20
-650.6013424549947
 10
575.3270638940448
 20
-657.6768917089648
 10
579.9413057738384
 20
-674.6884796479208
 10
577.1848685377336
 20
-693.7404365361836
 10
569.4150073649926
 20
-709.4002918703372
 97
        0
 97
        0
 75
     2
 76
     1
 98
        0
  0
SPLINE
  5
64
330
41
100
AcDbEntity
  8
Layer 1
370
     0
100
AcDbSpline
210
0.0
220
0.0
230
1.0
 70
    11
 71
     3
 72
    53
 73
    49
 74
     0
 42
0.0000000001
 43
0.0000000001
 12
1.0
 22
0.0
 32
0.0
 13
1.0
 23
0.0
 33
0.0
 40
0.0
 40
0.0
 40
0.0
 40
0.0
 40
1.0
 40
1.0
 40
1.0
 40
2.0
 40
2.0
 40
2.0
 40
3.0
 40
3.0
 40
3.0
 40
4.0
 40
4.0
 40
4.0
 40
5.0
 40
5.0
 40
5.0
 40
6.0
 40
6.0
 40
6.0
 40
7.0
 40
7.0
 40
7.0
 40
8.0
 40
8.0
 40
8.0
 40
9.0
 40
9.0
 40
9.0
 40
10.0
 40
10.0
 40
10.0
 40
11.0
 40
11.0
 40
11.0
 40
12.0
 40
12.0
 40
12.0
 40
13.0
 40
13.0
 40
13.0
 40
14.0
 40
14.0
 40
14.0
 40
15.0
 40
15.0
 40
15.0
 40
16.0
 40
16.0
 40
16.0
 40
16.0
 10
664.4316880418319
 20
-713.2398178625663
 30
0.0
 10
658.7807079291033
 20
-712.5842890346248
 30
0.0
 10
653.1902672752312
 20
-710.6120269765324
 30
0.0
 10
647.696311383912
 20
-709.1401613830603
 30
0.0
 10
645.8517497468492
 20
-708.646386421753
 30
0.0
 10
644.0052962516947
 20
-708.1526114604458
 30
0.0
 10
642.1607346146302
 20
-707.6578905700953
 30
0.0
 10
659.3312386330872
 20
-696.8203815055585
 30
0.0
 10
674.6117764203373
 20
-682.6210406163427
 30
0.0
 10
679.7803327202964
 20
-662.1738383872234
 30
0.0
 10
685.3972593874187
 20
-639.946397696076
 30
0.0
 10
674.0271922707452
 20
-616.0796619705525
 30
0.0
 10
653.3321566319282
 20
-606.3015934360228
 30
0.0
 10
641.6423654981627
 20
-600.7783137443203
 30
0.0
 10
628.2763880972816
 20
-600.5200751151315
 30
0.0
 10
616.1306591639968
 20
-604.5762188585832
 30
0.0
 10
615.5668854533869
 20
-604.7644587384675
 30
0.0
 10
615.0598674854555
 20
-605.0435078066403
 30
0.0
 10
614.5982541116664
 20
-605.3793126174896
 30
0.0
 10
613.7317831067685
 20
-604.9735090573358
 30
0.0
 10
612.768827339316
 20
-604.6878384858519
 30
0.0
 10
611.7074949512207
 20
-604.5516247034229
 30
0.0
 10
606.8321766551035
 20
-603.9206900306417
 30
0.0
 10
600.7839063436222
 20
-607.7119736415934
 30
0.0
 10
600.6344495545673
 20
-613.074445395705
 30
0.0
 10
599.3763639251847
 20
-658.1025597790558
 30
0.0
 10
599.257176865558
 20
-703.9810643735473
 30
0.0
 10
606.5975862520299
 20
-748.5154037955926
 30
0.0
 10
607.4243282370535
 20
-753.5288277322288
 30
0.0
 10
612.1010014337953
 20
-757.2378155162951
 30
0.0
 10
617.2184775653423
 20
-756.5189094423622
 30
0.0
 10
622.6613532882493
 20
-755.7545987742869
 30
0.0
 10
625.4423846795144
 20
-750.9937378925715
 30
0.0
 10
625.2229291411568
 20
-745.8980181290517
 30
0.0
 10
624.8294226585822
 20
-736.7026418860241
 30
0.0
 10
624.3507825619909
 20
-727.5186167915326
 30
0.0
 10
623.8494401683274
 20
-718.337429484176
 30
0.0
 10
624.1370025979013
 20
-718.4764810537399
 30
0.0
 10
624.4321324598313
 20
-718.5985059004997
 30
0.0
 10
624.7518564769216
 20
-718.6874232306964
 30
0.0
 10
630.6960745934921
 20
-720.3267182650707
 30
0.0
 10
636.6421845681525
 20
-721.9669592284918
 30
0.0
 10
642.5882945428111
 20
-723.6072001919129
 30
0.0
 10
648.449270903453
 20
-725.2237929292169
 30
0.0
 10
654.7132130371137
 20
-726.4213390997411
 30
0.0
 10
660.2828432520037
 20
-728.8769708996479
 30
0.0
 10
671.0910285161572
 20
-733.6444532846763
 30
0.0
 10
676.3957985985453
 20
-714.6265498420198
 30
0.0
 10
664.4316880418319
 20
-713.2398178625663
 30
0.0
  0
SPLINE
  5
65
330
41
100
AcDbEntity
  8
Layer 1
370
     0
100
AcDbSpline
210
0.0
220
0.0
230
1.0
 70
    11
 71
     3
 72
    20
 73
    16
 74
     0
 42
0.0000000001
 43
0.0000000001
 12
1.0
 22
0.0
 32
0.0
 13
1.0
 23
0.0
 33
0.0
 40
0.0
 40
0.0
 40
0.0
 40
0.0
 40
1.0
 40
1.0
 40
1.0
 40
2.0
 40
2.0
 40
2.0
 40
3.0
 40
3.0
 40
3.0
 40
4.0
 40
4.0
 40
4.0
 40
5.0
 40
5.0
 40
5.0
 40
5.0
 10
622.9943203119656
 20
-702.8866244688888
 30
0.0
 10
621.433537388295
 20
-674.8228015722616
 30
0.0
 10
619.959779936733
 20
-646.7760053984366
 30
0.0
 10
620.2076133464307
 20
-618.6109680940317
 30
0.0
 10
620.8186835092747
 20
-618.5343478414143
 30
0.0
 10
621.4297536721169
 20
-618.4047555622983
 30
0.0
 10
622.033256402603
 20
-618.208002321011
 30
0.0
 10
642.7736966355624
 20
-611.4379881484638
 30
0.0
 10
664.0684512886874
 20
-626.6210952441143
 30
0.0
 10
665.8373386021794
 20
-647.9480114847556
 30
0.0
 10
667.8029791569588
 20
-671.6539392726881
 30
0.0
 10
644.936090431629
 20
-688.2455347158211
 30
0.0
 10
626.9653304413987
 20
-698.7245366724364
 30
0.0
 10
625.2134698507107
 20
-699.7461400406573
 30
0.0
 10
623.7945762837371
 20
-701.1934114789692
 30
0.0
 10
622.9943203119656
 20
-702.8866244688888
 30
0.0
  0
HATCH
  5
66
330
41
100
AcDbEntity
  8
Layer 1
 62
     7
420
 16777215
100
AcDbHatch
 10
0.0
 20
0.0
 30
0.0
210
0.0
220
0.0
230
1.0
  2
SOLID
 70
     1
 71
     0
 91
        2
 92
        1
 93
        1
 72
     4
 94
        3
 73
     0
 74
     1
 95
       53
 96
       49
 40
0.0
 40
0.0
 40
0.0
 40
0.0
 40
1.0
 40
1.0
 40
1.0
 40
2.0
 40
2.0
 40
2.0
 40
3.0
 40
3.0
 40
3.0
 40
4.0
 40
4.0
 40
4.0
 40
5.0
 40
5.0
 40
5.0
 40
6.0
 40
6.0
 40
6.0
 40
7.0
 40
7.0
 40
7.0
 40
8.0
 40
8.0
 40
8.0
 40
9.0
 40
9.0
 40
9.0
 40
10.0
 40
10.0
 40
10.0
 40
11.0
 40
11.0
 40
11.0
 40
12.0
 40
12.0
 40
12.0
 40
13.0
 40
13.0
 40
13.0
 40
14.0
 40
14.0
 40
14.0
 40
15.0
 40
15.0
 40
15.0
 40
16.0
 40
16.0
 40
16.0
 40
16.0
 10
664.4316880418319
 20
-713.2398178625663
 10
658.7807079291033
 20
-712.5842890346248
 10
653.1902672752312
 20
-710.6120269765324
 10
647.696311383912
 20
-709.1401613830603
 10
645.8517497468492
 20
-708.646386421753
 10
644.0052962516947
 20
-708.1526114604458
 10
642.1607346146302
 20
-707.6578905700953
 10
659.3312386330872
 20
-696.8203815055585
 10
674.6117764203373
 20
-682.6210406163427
 10
679.7803327202964
 20
-662.1738383872234
 10
685.3972593874187
 20
-639.946397696076
 10
674.0271922707452
 20
-616.0796619705525
 10
653.3321566319282
 20
-606.3015934360228
 10
641.6423654981627
 20
-600.7783137443203
 10
628.2763880972816
 20
-600.5200751151315
 10
616.1306591639968
 20
-604.5762188585832
 10
615.5668854533869
 20
-604.7644587384675
 10
615.0598674854555
 20
-605.0435078066403
 10
614.5982541116664
 20
-605.3793126174896
 10
613.7317831067685
 20
-604.9735090573358
 10
612.768827339316
 20
-604.6878384858519
 10
611.7074949512207
 20
-604.5516247034229
 10
606.8321766551035
 20
-603.9206900306417
 10
600.7839063436222
 20
-607.7119736415934
 10
600.6344495545673
 20
-613.074445395705
 10
599.3763639251847
 20
-658.1025597790558
 10
599.257176865558
 20
-703.9810643735473
 10
606.5975862520299
 20
-748.5154037955926
 10
607.4243282370535
 20
-753.5288277322288
 10
612.1010014337953
 20
-757.2378155162951
 10
617.2184775653423
 20
-756.5189094423622
 10
622.6613532882493
 20
-755.7545987742869
 10
625.4423846795144
 20
-750.9937378925715
 10
625.2229291411568
 20
-745.8980181290517
 10
624.8294226585822
 20
-736.7026418860241
 10
624.3507825619909
 20
-727.5186167915326
 10
623.8494401683274
 20
-718.337429484176
 10
624.1370025979013
 20
-718.4764810537399
 10
624.4321324598313
 20
-718.5985059004997
 10
624.7518564769216
 20
-718.6874232306964
 10
630.6960745934921
 20
-720.3267182650707
 10
636.6421845681525
 20
-721.9669592284918
 10
642.5882945428111
 20
-723.6072001919129
 10
648.449270903453
 20
-725.2237929292169
 10
654.7132130371137
 20
-726.4213390997411
 10
660.2828432520037
 20
-728.8769708996479
 10
671.0910285161572
 20
-733.6444532846763
 10
676.3957985985453
 20
-714.6265498420198
 10
664.4316880418319
 20
-713.2398178625663
 97
        0
 97
        0
 92
        1
 93
        1
 72
     4
 94
        3
 73
     0
 74
     1
 95
       20
 96
       16
 40
0.0
 40
0.0
 40
0.0
 40
0.0
 40
1.0
 40
1.0
 40
1.0
 40
2.0
 40
2.0
 40
2.0
 40
3.0
 40
3.0
 40
3.0
 40
4.0
 40
4.0
 40
4.0
 40
5.0
 40
5.0
 40
5.0
 40
5.0
 10
622.9943203119656
 20
-702.8866244688888
 10
621.433537388295
 20
-674.8228015722616
 10
619.959779936733
 20
-646.7760053984366
 10
620.2076133464307
 20
-618.6109680940317
 10
620.8186835092747
 20
-618.5343478414143
 10
621.4297536721169
 20
-618.4047555622983
 10
622.033256402603
 20
-618.208002321011
 10
642.7736966355624
 20
-611.4379881484638
 10
664.0684512886874
 20
-626.6210952441143
 10
665.8373386021794
 20
-647.9480114847556
 10
667.8029791569588
 20
-671.6539392726881
 10
644.936090431629
 20
-688.2455347158211
 10
626.9653304413987
 20
-698.7245366724364
 10
625.2134698507107
 20
-699.7461400406573
 10
623.7945762837371
 20
-701.1934114789692
 10
622.9943203119656
 20
-702.8866244688888
 97
        0
 97
        0
 75
     2
 76
     1
 98
        0
  0
SPLINE
  5
67
330
41
100
AcDbEntity
  8
Layer 1
370
     0
100
AcDbSpline
210
0.0
220
0.0
230
1.0
 70
    11
 71
     3
 72
    53
 73
    49
 74
     0
 42
0.0000000001
 43
0.0000000001
 12
1.0
 22
0.0
 32
0.0
 13
1.0
 23
0.0
 33
0.0
 40
0.0
 40
0.0
 40
0.0
 40
0.0
 40
1.0
 40
1.0
 40
1.0
 40
2.0
 40
2.0
 40
2.0
 40
3.0
 40
3.0
 40
3.0
 40
4.0
 40
4.0
 40
4.0
 40
5.0
 40
5.0
 40
5.0
 40
6.0
 40
6.0
 40
6.0
 40
7.0
 40
7.0
 40
7.0
 40
8.0
 40
8.0
 40
8.0
 40
9.0
 40
9.0
 40
9.0
 40
10.0
 40
10.0
 40
10.0
 40
11.0
 40
11.0
 40
11.0
 40
12.0
 40
12.0
 40
12.0
 40
13.0
 40
13.0
 40
13.0
 40
14.0
 40
14.0
 40
14.0
 40
15.0
 40
15.0
 40
15.0
 40
16.0
 40
16.0
 40
16.0
 40
16.0
 10
770.1808796592522
 20
-662.1738383872234
 30
0.0
 10
775.7978063263745
 20
-639.946397696076
 30
0.0
 10
764.427739209701
 20
-616.0796619705525
 30
0.0
 10
743.732703570884
 20
-606.3015934360228
 30
0.0
 10
732.0429124371185
 20
-600.7783137443203
 30
0.0
 10
718.6769350362374
 20
-600.5200751151315
 30
0.0
 10
706.5312061029526
 20
-604.5762188585832
 30
0.0
 10
705.9674323923427
 20
-604.7644587384675
 30
0.0
 10
705.4604144244113
 20
-605.0435078066403
 30
0.0
 10
704.9988010506222
 20
-605.3793126174896
 30
0.0
 10
704.1323300457243
 20
-604.9735090573358
 30
0.0
 10
703.1693742782718
 20
-604.6878384858519
 30
0.0
 10
702.1080418901765
 20
-604.5516247034229
 30
0.0
 10
697.2327235940593
 20
-603.9206900306417
 30
0.0
 10
691.184453282578
 20
-607.7119736415934
 30
0.0
 10
691.0349964935231
 20
-613.074445395705
 30
0.0
 10
689.7769108641405
 20
-658.1025597790558
 30
0.0
 10
689.6577238045156
 20
-703.9810643735473
 30
0.0
 10
696.9981331909858
 20
-748.5154037955926
 30
0.0
 10
697.8248751760093
 20
-753.5288277322288
 30
0.0
 10
702.5015483727511
 20
-757.2378155162951
 30
0.0
 10
707.6190245042981
 20
-756.5189094423622
 30
0.0
 10
713.0619002272051
 20
-755.7545987742869
 30
0.0
 10
715.842931618472
 20
-750.9937378925715
 30
0.0
 10
715.6234760801126
 20
-745.8980181290517
 30
0.0
 10
715.2299695975398
 20
-736.7026418860241
 30
0.0
 10
714.7513295009467
 20
-727.5186167915326
 30
0.0
 10
714.2499871072832
 20
-718.337429484176
 30
0.0
 10
714.5375495368571
 20
-718.4764810537399
 30
0.0
 10
714.8326793987871
 20
-718.5985059004997
 30
0.0
 10
715.1524034158774
 20
-718.6874232306964
 30
0.0
 10
721.0966215324479
 20
-720.3267182650707
 30
0.0
 10
727.0427315071083
 20
-721.9669592284918
 30
0.0
 10
732.9888414817688
 20
-723.6072001919129
 30
0.0
 10
738.8498178424088
 20
-725.2237929292169
 30
0.0
 10
745.1137599760714
 20
-726.4213390997411
 30
0.0
 10
750.6833901909595
 20
-728.8769708996479
 30
0.0
 10
761.491575455113
 20
-733.6444532846763
 30
0.0
 10
766.7963455375011
 20
-714.6265498420198
 30
0.0
 10
754.8322349807877
 20
-713.2398178625663
 30
0.0
 10
749.1812548680591
 20
-712.5842890346248
 30
0.0
 10
743.590814214187
 20
-710.6120269765324
 30
0.0
 10
738.0968583228696
 20
-709.1401613830603
 30
0.0
 10
736.252296685805
 20
-708.646386421753
 30
0.0
 10
734.4058431906506
 20
-708.1526114604458
 30
0.0
 10
732.561281553586
 20
-707.6578905700953
 30
0.0
 10
749.7317855720448
 20
-696.8203815055585
 30
0.0
 10
765.0123233592931
 20
-682.6210406163427
 30
0.0
 10
770.1808796592522
 20
-662.1738383872234
 30
0.0
  0
SPLINE
  5
68
330
41
100
AcDbEntity
  8
Layer 1
370
     0
100
AcDbSpline
210
0.0
220
0.0
230
1.0
 70
    11
 71
     3
 72
    20
 73
    16
 74
     0
 42
0.0000000001
 43
0.0000000001
 12
1.0
 22
0.0
 32
0.0
 13
1.0
 23
0.0
 33
0.0
 40
0.0
 40
0.0
 40
0.0
 40
0.0
 40
1.0
 40
1.0
 40
1.0
 40
2.0
 40
2.0
 40
2.0
 40
3.0
 40
3.0
 40
3.0
 40
4.0
 40
4.0
 40
4.0
 40
5.0
 40
5.0
 40
5.0
 40
5.0
 10
717.3658773803545
 20
-698.7245366724364
 30
0.0
 10
715.6140167896665
 20
-699.7461400406573
 30
0.0
 10
714.1951232226929
 20
-701.1934114789692
 30
0.0
 10
713.3948672509214
 20
-702.8866244688888
 30
0.0
 10
711.8340843272508
 20
-674.8228015722616
 30
0.0
 10
710.3603268756888
 20
-646.7760053984366
 30
0.0
 10
710.6081602853865
 20
-618.6109680940317
 30
0.0
 10
711.2192304482305
 20
-618.5343478414143
 30
0.0
 10
711.8303006110727
 20
-618.4047555622983
 30
0.0
 10
712.4338033415588
 20
-618.208002321011
 30
0.0
 10
733.1742435745182
 20
-611.4379881484638
 30
0.0
 10
754.4689982276432
 20
-626.6210952441143
 30
0.0
 10
756.2378855411353
 20
-647.9480114847556
 30
0.0
 10
758.2035260959146
 20
-671.6539392726881
 30
0.0
 10
735.3366373705849
 20
-688.2455347158211
 30
0.0
 10
717.3658773803545
 20
-698.7245366724364
 30
0.0
  0
HATCH
  5
69
330
41
100
AcDbEntity
  8
Layer 1
 62
     7
420
 16777215
100
AcDbHatch
 10
0.0
 20
0.0
 30
0.0
210
0.0
220
0.0
230
1.0
  2
SOLID
 70
     1
 71
     0
 91
        2
 92
        1
 93
        1
 72
     4
 94
        3
 73
     0
 74
     1
 95
       53
 96
       49
 40
0.0
 40
0.0
 40
0.0
 40
0.0
 40
1.0
 40
1.0
 40
1.0
 40
2.0
 40
2.0
 40
2.0
 40
3.0
 40
3.0
 40
3.0
 40
4.0
 40
4.0
 40
4.0
 40
5.0
 40
5.0
 40
5.0
 40
6.0
 40
6.0
 40
6.0
 40
7.0
 40
7.0
 40
7.0
 40
8.0
 40
8.0
 40
8.0
 40
9.0
 40
9.0
 40
9.0
 40
10.0
 40
10.0
 40
10.0
 40
11.0
 40
11.0
 40
11.0
 40
12.0
 40
12.0
 40
12.0
 40
13.0
 40
13.0
 40
13.0
 40
14.0
 40
14.0
 40
14.0
 40
15.0
 40
15.0
 40
15.0
 40
16.0
 40
16.0
 40
16.0
 40
16.0
 10
770.1808796592522
 20
-662.1738383872234
 10
775.7978063263745
 20
-639.946397696076
 10
764.427739209701
 20
-616.0796619705525
 10
743.732703570884
 20
-606.3015934360228
 10
732.0429124371185
 20
-600.7783137443203
 10
718.6769350362374
 20
-600.5200751151315
 10
706.5312061029526
 20
-604.5762188585832
 10
705.9674323923427
 20
-604.7644587384675
 10
705.4604144244113
 20
-605.0435078066403
 10
704.9988010506222
 20
-605.3793126174896
 10
704.1323300457243
 20
-604.9735090573358
 10
703.1693742782718
 20
-604.6878384858519
 10
702.1080418901765
 20
-604.5516247034229
 10
697.2327235940593
 20
-603.9206900306417
 10
691.184453282578
 20
-607.7119736415934
 10
691.0349964935231
 20
-613.074445395705
 10
689.7769108641405
 20
-658.1025597790558
 10
689.6577238045156
 20
-703.9810643735473
 10
696.9981331909858
 20
-748.5154037955926
 10
697.8248751760093
 20
-753.5288277322288
 10
702.5015483727511
 20
-757.2378155162951
 10
707.6190245042981
 20
-756.5189094423622
 10
713.0619002272051
 20
-755.7545987742869
 10
715.842931618472
 20
-750.9937378925715
 10
715.6234760801126
 20
-745.8980181290517
 10
715.2299695975398
 20
-736.7026418860241
 10
714.7513295009467
 20
-727.5186167915326
 10
714.2499871072832
 20
-718.337429484176
 10
714.5375495368571
 20
-718.4764810537399
 10
714.8326793987871
 20
-718.5985059004997
 10
715.1524034158774
 20
-718.6874232306964
 10
721.0966215324479
 20
-720.3267182650707
 10
727.0427315071083
 20
-721.9669592284918
 10
732.9888414817688
 20
-723.6072001919129
 10
738.8498178424088
 20
-725.2237929292169
 10
745.1137599760714
 20
-726.4213390997411
 10
750.6833901909595
 20
-728.8769708996479
 10
761.491575455113
 20
-733.6444532846763
 10
766.7963455375011
 20
-714.6265498420198
 10
754.8322349807877
 20
-713.2398178625663
 10
749.1812548680591
 20
-712.5842890346248
 10
743.590814214187
 20
-710.6120269765324
 10
738.0968583228696
 20
-709.1401613830603
 10
736.252296685805
 20
-708.646386421753
 10
734.4058431906506
 20
-708.1526114604458
 10
732.561281553586
 20
-707.6578905700953
 10
749.7317855720448
 20
-696.8203815055585
 10
765.0123233592931
 20
-682.6210406163427
 10
770.1808796592522
 20
-662.1738383872234
 97
        0
 97
        0
 92
        1
 93
        1
 72
     4
 94
        3
 73
     0
 74
     1
 95
       20
 96
       16
 40
0.0
 40
0.0
 40
0.0
 40
0.0
 40
1.0
 40
1.0
 40
1.0
 40
2.0
 40
2.0
 40
2.0
 40
3.0
 40
3.0
 40
3.0
 40
4.0
 40
4.0
 40
4.0
 40
5.0
 40
5.0
 40
5.0
 40
5.0
 10
717.3658773803545
 20
-698.7245366724364
 10
715.6140167896665
 20
-699.7461400406573
 10
714.1951232226929
 20
-701.1934114789692
 10
713.3948672509214
 20
-702.8866244688888
 10
711.8340843272508
 20
-674.8228015722616
 10
710.3603268756888
 20
-646.7760053984366
 10
710.6081602853865
 20
-618.6109680940317
 10
711.2192304482305
 20
-618.5343478414143
 10
711.8303006110727
 20
-618.4047555622983
 10
712.4338033415588
 20
-618.208002321011
 10
733.1742435745182
 20
-611.4379881484638
 10
754.4689982276432
 20
-626.6210952441143
 10
756.2378855411353
 20
-647.9480114847556
 10
758.2035260959146
 20
-671.6539392726881
 10
735.3366373705849
 20
-688.2455347158211
 10
717.3658773803545
 20
-698.7245366724364
 97
        0
 97
        0
 75
     2
 76
     1
 98
        0
  0
SPLINE
  5
6A
330
41
100
AcDbEntity
  8
Layer 1
370
     0
100
AcDbSpline
210
0.0
220
0.0
230
1.0
 70
    11
 71
     3
 72
    92
 73
    88
 74
     0
 42
0.0000000001
 43
0.0000000001
 12
1.0
 22
0.0
 32
0.0
 13
1.0
 23
0.0
 33
0.0
 40
0.0
 40
0.0
 40
0.0
 40
0.0
 40
1.0
 40
1.0
 40
1.0
 40
2.0
 40
2.0
 40
2.0
 40
3.0
 40
3.0
 40
3.0
 40
4.0
 40
4.0
 40
4.0
 40
5.0
 40
5.0
 40
5.0
 40
6.0
 40
6.0
 40
6.0
 40
7.0
 40
7.0
 40
7.0
 40
8.0
 40
8.0
 40
8.0
 40
9.0
 40
9.0
 40
9.0
 40
10.0
 40
10.0
 40
10.0
 40
11.0
 40
11.0
 40
11.0
 40
12.0
 40
12.0
 40
12.0
 40
13.0
 40
13.0
 40
13.0
 40
14.0
 40
14.0
 40
14.0
 40
15.0
 40
15.0
 40
15.0
 40
16.0
 40
16.0
 40
16.0
 40
17.0
 40
17.0
 40
17.0
 40
18.0
 40
18.0
 40
18.0
 40
19.0
 40
19.0
 40
19.0
 40
20.0
 40
20.0
 40
20.0
 40
21.0
 40
21.0
 40
21.0
 40
22.0
 40
22.0
 40
22.0
 40
23.0
 40
23.0
 40
23.0
 40
24.0
 40
24.0
 40
24.0
 40
25.0
 40
25.0
 40
25.0
 40
26.0
 40
26.0
 40
26.0
 40
27.0
 40
27.0
 40
27.0
 40
28.0
 40
28.0
 40
28.0
 40
29.0
 40
29.0
 40
29.0
 40
29.0
 10
857.510940919281
 20
-607.5700842848964
 30
0.0
 10
852.5637320157693
 20
-620.5624197131401
 30
0.0
 10
847.5786859504715
 20
-633.5434039928514
 30
0.0
 10
842.5387760005851
 20
-646.4997941173988
 30
0.0
 10
838.0134514509882
 20
-658.1318835794409
 30
0.0
 10
833.2384016336036
 20
-669.8850519591961
 30
0.0
 10
825.6842122830403
 20
-679.9308184133624
 30
0.0
 10
820.663220914048
 20
-686.6052937524018
 30
0.0
 10
811.4196022897431
 20
-694.2020499099726
 30
0.0
 10
804.499185399096
 20
-687.1463651659396
 30
0.0
 10
801.430591578257
 20
-684.0191237443323
 30
0.0
 10
799.8849435193006
 20
-679.0794822731787
 30
0.0
 10
799.0354992372067
 20
-674.2552441454718
 30
0.0
 10
797.8266019181465
 20
-667.405771933174
 30
0.0
 10
797.2193154714823
 20
-660.4068429318195
 30
0.0
 10
796.7482428072472
 20
-653.4722371055032
 30
0.0
 10
795.68880227724
 20
-637.9031909596342
 30
0.0
 10
796.135280786315
 20
-622.324685523321
 30
0.0
 10
798.0649760373981
 20
-606.8398270624275
 30
0.0
 10
799.5481927794062
 20
-594.9201751708133
 30
0.0
 10
780.877445296137
 20
-592.5108938940939
 30
0.0
 10
779.5796306468783
 20
-604.4352754309311
 30
0.0
 10
777.7691224554219
 20
-621.0637621068054
 30
0.0
 10
777.2185917514362
 20
-637.8294084941517
 30
0.0
 10
778.1626289379965
 20
-654.5345154226434
 30
0.0
 10
778.9818034906602
 20
-669.0261483866561
 30
0.0
 10
779.401795986485
 20
-686.8606945944557
 30
0.0
 10
789.3624288266328
 20
-698.4615683980246
 30
0.0
 10
800.1460199356243
 20
-711.0244520399992
 30
0.0
 10
817.3373343930634
 20
-711.580658318253
 30
0.0
 10
830.3249401760859
 20
-701.9605599341776
 30
0.0
 10
842.2776995842632
 20
-693.1066640762692
 30
0.0
 10
849.6351356935374
 20
-678.0200417431734
 30
0.0
 10
855.3334122585002
 20
-664.6937933621666
 30
0.0
 10
856.2831250193267
 20
-662.4699141781985
 30
0.0
 10
857.212027341171
 20
-660.2356297747392
 30
0.0
 10
858.1239029402132
 20
-657.994723867967
 30
0.0
 10
857.5998582494776
 20
-669.6911365050437
 30
0.0
 10
856.4344736664698
 20
-681.3629549869602
 30
0.0
 10
854.6201817588353
 20
-692.9676125067053
 30
0.0
 10
853.0083186667543
 20
-703.2990495323556
 30
0.0
 10
851.3718614195113
 20
-715.0134348212814
 30
0.0
 10
843.3049785267503
 20
-721.0579214165846
 30
0.0
 10
843.1441705891611
 20
-721.1771084762095
 30
0.0
 10
842.3022937394235
 20
-721.7512874063123
 30
0.0
 10
841.8179780685641
 20
-722.0889840752516
 30
0.0
 10
840.8569141592016
 20
-722.6622170763076
 30
0.0
 10
838.7928969837776
 20
-723.9307079251812
 30
0.0
 10
838.5810088777762
 20
-724.0905699337272
 30
0.0
 10
836.6191520391767
 20
-725.1727127608046
 30
0.0
 10
834.5116221276985
 20
-726.0618860627746
 30
0.0
 10
832.3700387706158
 20
-726.7334956844752
 30
0.0
 10
832.4249026552061
 20
-726.6691725094388
 30
0.0
 10
830.0411614626919
 20
-727.2490270138078
 30
0.0
 10
829.6873839999935
 20
-727.3171339050223
 30
0.0
 10
828.3668670536645
 20
-727.571588818033
 30
0.0
 10
827.0387826749775
 20
-727.7494234784281
 30
0.0
 10
825.6993471477545
 20
-727.8714483251861
 30
0.0
 10
824.5585567199087
 20
-727.9755005200986
 30
0.0
 10
823.4196581501528
 20
-728.0804986440544
 30
0.0
 10
822.2807595803952
 20
-728.1902264132332
 30
0.0
 10
821.6356359719466
 20
-728.2602251625376
 30
0.0
 10
820.9886205054063
 20
-728.3037378985919
 30
0.0
 10
820.341605038866
 20
-728.3368454151532
 30
0.0
 10
820.1505273718485
 20
-728.3292779827971
 30
0.0
 10
819.8913428136148
 20
-728.3207646213941
 30
0.0
 10
819.5545920737186
 20
-728.310359401903
 30
0.0
 10
814.2025255390981
 20
-728.0804986440544
 30
0.0
 10
809.189101602462
 20
-730.7773423503459
 30
0.0
 10
807.8288556362586
 20
-736.2618389512172
 30
0.0
 10
806.6407687561805
 20
-741.0624288528088
 30
0.0
 10
808.8655938691918
 20
-747.3793430129699
 30
0.0
 10
814.0719873309372
 20
-748.9798549565148
 30
0.0
 10
822.1464376560562
 20
-751.4619727696736
 30
0.0
 10
829.5511702175627
 20
-751.7816967867639
 30
0.0
 10
837.6937274338961
 20
-749.4159282460987
 30
0.0
 10
843.690917576967
 20
-747.6716350877668
 30
0.0
 10
849.7429716046281
 20
-744.8149293729293
 30
0.0
 10
854.3912669300298
 20
-740.5960858337967
 30
0.0
 10
864.983780372002
 20
-730.9788252368562
 30
0.0
 10
869.5734280966353
 20
-716.8002947866225
 30
0.0
 10
872.0877074973123
 20
-703.1193230138724
 30
0.0
 10
877.7178771710587
 20
-672.4778434705786
 30
0.0
 10
878.4575936839738
 20
-640.7598966744736
 30
0.0
 10
875.2887313844021
 20
-609.8015309012208
 30
0.0
 10
874.3522616301998
 20
-600.6477755361593
 30
0.0
 10
860.7460182519771
 20
-599.0775333220427
 30
0.0
 10
857.510940919281
 20
-607.5700842848964
 30
0.0
  0
HATCH
  5
6B
330
41
100
AcDbEntity
  8
Layer 1
 62
     7
420
 16777215
100
AcDbHatch
 10
0.0
 20
0.0
 30
0.0
210
0.0
220
0.0
230
1.0
  2
SOLID
 70
     1
 71
     0
 91
        1
 92
        1
 93
        1
 72
     4
 94
        3
 73
     0
 74
     1
 95
       92
 96
       88
 40
0.0
 40
0.0
 40
0.0
 40
0.0
 40
1.0
 40
1.0
 40
1.0
 40
2.0
 40
2.0
 40
2.0
 40
3.0
 40
3.0
 40
3.0
 40
4.0
 40
4.0
 40
4.0
 40
5.0
 40
5.0
 40
5.0
 40
6.0
 40
6.0
 40
6.0
 40
7.0
 40
7.0
 40
7.0
 40
8.0
 40
8.0
 40
8.0
 40
9.0
 40
9.0
 40
9.0
 40
10.0
 40
10.0
 40
10.0
 40
11.0
 40
11.0
 40
11.0
 40
12.0
 40
12.0
 40
12.0
 40
13.0
 40
13.0
 40
13.0
 40
14.0
 40
14.0
 40
14.0
 40
15.0
 40
15.0
 40
15.0
 40
16.0
 40
16.0
 40
16.0
 40
17.0
 40
17.0
 40
17.0
 40
18.0
 40
18.0
 40
18.0
 40
19.0
 40
19.0
 40
19.0
 40
20.0
 40
20.0
 40
20.0
 40
21.0
 40
21.0
 40
21.0
 40
22.0
 40
22.0
 40
22.0
 40
23.0
 40
23.0
 40
23.0
 40
24.0
 40
24.0
 40
24.0
 40
25.0
 40
25.0
 40
25.0
 40
26.0
 40
26.0
 40
26.0
 40
27.0
 40
27.0
 40
27.0
 40
28.0
 40
28.0
 40
28.0
 40
29.0
 40
29.0
 40
29.0
 40
29.0
 10
857.510940919281
 20
-607.5700842848964
 10
852.5637320157693
 20
-620.5624197131401
 10
847.5786859504715
 20
-633.5434039928514
 10
842.5387760005851
 20
-646.4997941173988
 10
838.0134514509882
 20
-658.1318835794409
 10
833.2384016336036
 20
-669.8850519591961
 10
825.6842122830403
 20
-679.9308184133624
 10
820.663220914048
 20
-686.6052937524018
 10
811.4196022897431
 20
-694.2020499099726
 10
804.499185399096
 20
-687.1463651659396
 10
801.430591578257
 20
-684.0191237443323
 10
799.8849435193006
 20
-679.0794822731787
 10
799.0354992372067
 20
-674.2552441454718
 10
797.8266019181465
 20
-667.405771933174
 10
797.2193154714823
 20
-660.4068429318195
 10
796.7482428072472
 20
-653.4722371055032
 10
795.68880227724
 20
-637.9031909596342
 10
796.135280786315
 20
-622.324685523321
 10
798.0649760373981
 20
-606.8398270624275
 10
799.5481927794062
 20
-594.9201751708133
 10
780.877445296137
 20
-592.5108938940939
 10
779.5796306468783
 20
-604.4352754309311
 10
777.7691224554219
 20
-621.0637621068054
 10
777.2185917514362
 20
-637.8294084941517
 10
778.1626289379965
 20
-654.5345154226434
 10
778.9818034906602
 20
-669.0261483866561
 10
779.401795986485
 20
-686.8606945944557
 10
789.3624288266328
 20
-698.4615683980246
 10
800.1460199356243
 20
-711.0244520399992
 10
817.3373343930634
 20
-711.580658318253
 10
830.3249401760859
 20
-701.9605599341776
 10
842.2776995842632
 20
-693.1066640762692
 10
849.6351356935374
 20
-678.0200417431734
 10
855.3334122585002
 20
-664.6937933621666
 10
856.2831250193267
 20
-662.4699141781985
 10
857.212027341171
 20
-660.2356297747392
 10
858.1239029402132
 20
-657.994723867967
 10
857.5998582494776
 20
-669.6911365050437
 10
856.4344736664698
 20
-681.3629549869602
 10
854.6201817588353
 20
-692.9676125067053
 10
853.0083186667543
 20
-703.2990495323556
 10
851.3718614195113
 20
-715.0134348212814
 10
843.3049785267503
 20
-721.0579214165846
 10
843.1441705891611
 20
-721.1771084762095
 10
842.3022937394235
 20
-721.7512874063123
 10
841.8179780685641
 20
-722.0889840752516
 10
840.8569141592016
 20
-722.6622170763076
 10
838.7928969837776
 20
-723.9307079251812
 10
838.5810088777762
 20
-724.0905699337272
 10
836.6191520391767
 20
-725.1727127608046
 10
834.5116221276985
 20
-726.0618860627746
 10
832.3700387706158
 20
-726.7334956844752
 10
832.4249026552061
 20
-726.6691725094388
 10
830.0411614626919
 20
-727.2490270138078
 10
829.6873839999935
 20
-727.3171339050223
 10
828.3668670536645
 20
-727.571588818033
 10
827.0387826749775
 20
-727.7494234784281
 10
825.6993471477545
 20
-727.8714483251861
 10
824.5585567199087
 20
-727.9755005200986
 10
823.4196581501528
 20
-728.0804986440544
 10
822.2807595803952
 20
-728.1902264132332
 10
821.6356359719466
 20
-728.2602251625376
 10
820.9886205054063
 20
-728.3037378985919
 10
820.341605038866
 20
-728.3368454151532
 10
820.1505273718485
 20
-728.3292779827971
 10
819.8913428136148
 20
-728.3207646213941
 10
819.5545920737186
 20
-728.310359401903
 10
814.2025255390981
 20
-728.0804986440544
 10
809.189101602462
 20
-730.7773423503459
 10
807.8288556362586
 20
-736.2618389512172
 10
806.6407687561805
 20
-741.0624288528088
 10
808.8655938691918
 20
-747.3793430129699
 10
814.0719873309372
 20
-748.9798549565148
 10
822.1464376560562
 20
-751.4619727696736
 10
829.5511702175627
 20
-751.7816967867639
 10
837.6937274338961
 20
-749.4159282460987
 10
843.690917576967
 20
-747.6716350877668
 10
849.7429716046281
 20
-744.8149293729293
 10
854.3912669300298
 20
-740.5960858337967
 10
864.983780372002
 20
-730.9788252368562
 10
869.5734280966353
 20
-716.8002947866225
 10
872.0877074973123
 20
-703.1193230138724
 10
877.7178771710587
 20
-672.4778434705786
 10
878.4575936839738
 20
-640.7598966744736
 10
875.2887313844021
 20
-609.8015309012208
 10
874.3522616301998
 20
-600.6477755361593
 10
860.7460182519771
 20
-599.0775333220427
 10
857.510940919281
 20
-607.5700842848964
 97
        0
 97
        0
 75
     2
 76
     1
 98
        0
  0
ENDBLK
  5
44
330
41
100
AcDbEntity
  8
0
100
AcDbBlockEnd
  0
ENDSEC
  0
SECTION
  2
ENTITIES
  0
INSERT
  5
42
330
1F
100
AcDbEntity
  8
Layer 1
100
AcDbBlockReference
  2
block 2
 10
0.0
 20
0.0
 30
0.0
  0
ENDSEC
  0
SECTION
  2
OBJECTS
  0
DICTIONARY
  5
C
330
0
100
AcDbDictionary
281
     1
  3
ACAD_GROUP
350
D
  3
ACAD_LAYOUT
350
1A
  3
ACAD_MATERIAL
350
3B
  3
ACAD_MLEADERSTYLE
350
6D
  3
ACAD_MLINESTYLE
350
17
  3
ACAD_PLOTSETTINGS
350
19
  3
ACAD_PLOTSTYLENAME
350
E
  3
ACAD_TABLESTYLE
350
6C
  3
ACAD_VISUALSTYLE
350
2A
  0
SUN
  5
3F
330
29
100
AcDbSun
 90
        1
290
     0
 63
     7
421
 16777215
 40
1.0
291
     1
 91
  2455826
 92
 54000000
292
     0
 70
     2
 71
   256
280
     1
  0
DICTIONARY
  5
D
102
{ACAD_REACTORS
330
C
102
}
330
C
100
AcDbDictionary
281
     1
  0
DICTIONARY
  5
1A
102
{ACAD_REACTORS
330
C
102
}
330
C
100
AcDbDictionary
281
     1
  3
Layout1
350
1E
  3
Layout2
350
26
  3
Model
350
22
  0
DICTIONARY
  5
3B
102
{ACAD_REACTORS
330
C
102
}
330
C
100
AcDbDictionary
281
     1
  3
ByBlock
350
3D
  3
ByLayer
350
3C
  3
Global
350
3E
  0
DICTIONARY
  5
6D
102
{ACAD_REACTORS
330
C
102
}
330
C
100
AcDbDictionary
281
     1
  0
DICTIONARY
  5
17
102
{ACAD_REACTORS
330
C
102
}
330
C
100
AcDbDictionary
281
     1
  3
Standard
350
18
  0
DICTIONARY
  5
19
102
{ACAD_REACTORS
330
C
102
}
330
C
100
AcDbDictionary
281
     1
  0
ACDBDICTIONARYWDFLT
  5
E
102
{ACAD_REACTORS
330
C
102
}
330
C
100
AcDbDictionary
281
     1
  3
Normal
350
F
100
AcDbDictionaryWithDefault
340
F
  0
DICTIONARY
  5
6C
102
{ACAD_REACTORS
330
C
102
}
330
C
100
AcDbDictionary
281
     1
  0
DICTIONARY
  5
2A
102
{ACAD_REACTORS
330
C
102
}
330
C
100
AcDbDictionary
281
     1
  3
2dWireframe
350
2F
  3
3D Hidden
350
31
  3
3dWireframe
350
30
  3
Basic
350
32
  3
Brighten
350
36
  3
ColorChange
350
3A
  3
Conceptual
350
34
  3
Dim
350
35
  3
Facepattern
350
39
  3
Flat
350
2B
  3
FlatWithEdges
350
2C
  3
Gouraud
350
2D
  3
GouraudWithEdges
350
2E
  3
Linepattern
350
38
  3
Realistic
350
33
  3
Thicken
350
37
  0
LAYOUT
  5
1E
102
{ACAD_REACTORS
330
1A
102
}
330
1A
100
AcDbPlotSettings
  1

  2
none_device
  4

  6

 40
0.0
 41
0.0
 42
0.0
 43
0.0
 44
0.0
 45
0.0
 46
0.0
 47
0.0
 48
0.0
 49
0.0
140
0.0
141
0.0
142
1.0
143
1.0
 70
   688
 72
     0
 73
     0
 74
     5
  7

 75
    16
 76
     0
 77
     2
 78
   300
147
1.0
148
0.0
149
0.0
100
AcDbLayout
  1
Layout1
 70
     1
 71
     1
 10
0.0
 20
0.0
 11
12.0
 21
9.0
 12
0.0
 22
0.0
 32
0.0
 14
1.000000000000000E+20
 24
1.000000000000000E+20
 34
1.000000000000000E+20
 15
-1.000000000000000E+20
 25
-1.000000000000000E+20
 35
-1.000000000000000E+20
146
0.0
 13
0.0
 23
0.0
 33
0.0
 16
1.0
 26
0.0
 36
0.0
 17
0.0
 27
1.0
 37
0.0
 76
     0
330
1B
  0
LAYOUT
  5
26
102
{ACAD_REACTORS
330
1A
102
}
330
1A
100
AcDbPlotSettings
  1

  2
none_device
  4

  6

 40
0.0
 41
0.0
 42
0.0
 43
0.0
 44
0.0
 45
0.0
 46
0.0
 47
0.0
 48
0.0
 49
0.0
140
0.0
141
0.0
142
1.0
143
1.0
 70
   688
 72
     0
 73
     0
 74
     5
  7

 75
    16
 76
     0
 77
     2
 78
   300
147
1.0
148
0.0
149
0.0
100
AcDbLayout
  1
Layout2
 70
     1
 71
     2
 10
0.0
 20
0.0
 11
0.0
 21
0.0
 12
0.0
 22
0.0
 32
0.0
 14
0.0
 24
0.0
 34
0.0
 15
0.0
 25
0.0
 35
0.0
146
0.0
 13
0.0
 23
0.0
 33
0.0
 16
1.0
 26
0.0
 36
0.0
 17
0.0
 27
1.0
 37
0.0
 76
     0
330
23
  0
LAYOUT
  5
22
102
{ACAD_REACTORS
330
1A
102
}
330
1A
100
AcDbPlotSettings
  1

  2
none_device
  4

  6

 40
0.0
 41
0.0
 42
0.0
 43
0.0
 44
0.0
 45
0.0
 46
0.0
 47
0.0
 48
0.0
 49
0.0
140
0.0
141
0.0
142
1.0
143
1.0
 70
  1712
 72
     0
 73
     0
 74
     0
  7

 75
     0
 76
     0
 77
     2
 78
   300
147
1.0
148
0.0
149
0.0
100
AcDbLayout
  1
Model
 70
     1
 71
     0
 10
0.0
 20
0.0
 11
12.0
 21
9.0
 12
0.0
 22
0.0
 32
0.0
 14
1.000000000000000E+20
 24
1.000000000000000E+20
 34
1.000000000000000E+20
 15
-1.000000000000000E+20
 25
-1.000000000000000E+20
 35
-1.000000000000000E+20
146
0.0
 13
0.0
 23
0.0
 33
0.0
 16
1.0
 26
0.0
 36
0.0
 17
0.0
 27
1.0
 37
0.0
 76
     0
330
1F
331
29
  0
MATERIAL
  5
3D
102
{ACAD_REACTORS
330
3B
102
}
330
3B
100
AcDbMaterial
  1
ByBlock
 72
     1
 94
      127
  0
MATERIAL
  5
3C
102
{ACAD_REACTORS
330
3B
102
}
330
3B
100
AcDbMaterial
  1
ByLayer
 72
     1
 94
      127
  0
MATERIAL
  5
3E
102
{ACAD_REACTORS
330
3B
102
}
330
3B
100
AcDbMaterial
  1
Global
 72
     1
 94
      127
  0
MLINESTYLE
  5
18
102
{ACAD_REACTORS
330
17
102
}
330
17
100
AcDbMlineStyle
  2
Standard
 70
     0
  3

 62
   256
 51
90.0
 52
90.0
 71
     2
 49
0.5
 62
   256
  6
BYLAYER
 49
-0.5
 62
   256
  6
BYLAYER
  0
ACDBPLACEHOLDER
  5
F
102
{ACAD_REACTORS
330
E
102
}
330
E
  0
VISUALSTYLE
  5
2F
102
{ACAD_REACTORS
330
2A
102
}
330
2A
100
AcDbVisualStyle
  2
2dWireframe
 70
     4
177
     2
291
     0
 71
     0
176
     1
 72
     2
176
     1
 73
     0
176
     1
 90
        0
176
     1
 40
-0.6
176
     1
 41
-30.0
176
     1
 62
     5
 63
     7
421
 16777215
176
     1
 74
     1
176
     1
 91
        4
176
     1
 64
     7
176
     1
 65
   257
176
     1
 75
     1
176
     1
175
     1
176
     1
 42
1.0
176
     1
 92
        0
176
     1
 66
   257
176
     1
 43
1.0
176
     1
 76
     1
176
     1
 77
     6
176
     1
 78
     2
176
     1
 67
     7
176
     1
 79
     5
176
     1
170
     0
176
     1
171
     0
176
     1
290
     0
176
     1
 93
        1
176
     1
 44
0.0
176
     1
173
     0
176
     1
  0
VISUALSTYLE
  5
31
102
{ACAD_REACTORS
330
2A
102
}
330
2A
100
AcDbVisualStyle
  2
3D Hidden
 70
     6
177
     2
291
     0
 71
     1
176
     1
 72
     2
176
     1
 73
     2
176
     1
 90
        0
176
     1
 40
-0.6
176
     1
 41
-30.0
176
     1
 62
     5
 63
     7
421
 16777215
176
     1
 74
     2
176
     1
 91
        2
176
     1
 64
     7
176
     1
 65
   257
176
     1
 75
     2
176
     1
175
     1
176
     1
 42
40.0
176
     1
 92
        0
176
     1
 66
   257
176
     1
 43
1.0
176
     1
 76
     1
176
     1
 77
     6
176
     1
 78
     2
176
     1
 67
     7
176
     1
 79
     3
176
     1
170
     0
176
     1
171
     0
176
     1
290
     0
176
     1
 93
        1
176
     1
 44
0.0
176
     1
173
     0
176
     1
  0
VISUALSTYLE
  5
30
102
{ACAD_REACTORS
330
2A
102
}
330
2A
100
AcDbVisualStyle
  2
3dWireframe
 70
     5
177
     2
291
     0
 71
     0
176
     1
 72
     2
176
     1
 73
     0
176
     1
 90
        0
176
     1
 40
-0.6
176
     1
 41
-30.0
176
     1
 62
     5
 63
     7
421
 16777215
176
     1
 74
     1
176
     1
 91
        4
176
     1
 64
     7
176
     1
 65
   257
176
     1
 75
     1
176
     1
175
     1
176
     1
 42
1.0
176
     1
 92
        0
176
     1
 66
   257
176
     1
 43
1.0
176
     1
 76
     1
176
     1
 77
     6
176
     1
 78
     2
176
     1
 67
     7
176
     1
 79
     5
176
     1
170
     0
176
     1
171
     0
176
     1
290
     0
176
     1
 93
        1
176
     1
 44
0.0
176
     1
173
     0
176
     1
  0
VISUALSTYLE
  5
32
102
{ACAD_REACTORS
330
2A
102
}
330
2A
100
AcDbVisualStyle
  2
Basic
 70
     7
177
     2
291
     1
 71
     1
176
     1
 72
     0
176
     1
 73
     1
176
     1
 90
        0
176
     1
 40
-0.6
176
     1
 41
-30.0
176
     1
 62
     5
 63
     7
421
 16777215
176
     1
 74
     0
176
     1
 91
        4
176
     1
 64
     7
176
     1
 65
   257
176
     1
 75
     1
176
     1
175
     1
176
     1
 42
1.0
176
     1
 92
        8
176
     1
 66
     7
176
     1
 43
1.0
176
     1
 76
     1
176
     1
 77
     6
176
     1
 78
     2
176
     1
 67
     7
176
     1
 79
     5
176
     1
170
     0
176
     1
171
     0
176
     1
290
     0
176
     1
 93
        1
176
     1
 44
0.0
176
     1
173
     0
176
     1
  0
VISUALSTYLE
  5
36
102
{ACAD_REACTORS
330
2A
102
}
330
2A
100
AcDbVisualStyle
  2
Brighten
 70
    12
177
     2
291
     1
 71
     2
176
     1
 72
     2
176
     1
 73
     0
176
     1
 90
        0
176
     1
 40
-0.6
176
     1
 41
-30.0
176
     1
 62
     5
 63
     7
421
 16777215
176
     1
 74
     1
176
     1
 91
        4
176
     1
 64
     7
176
     1
 65
   257
176
     1
 75
     1
176
     1
175
     1
176
     1
 42
1.0
176
     1
 92
        8
176
     1
 66
     7
176
     1
 43
1.0
176
     1
 76
     1
176
     1
 77
     6
176
     1
 78
     2
176
     1
 67
     7
176
     1
 79
     5
176
     1
170
     0
176
     1
171
     0
176
     1
290
     0
176
     1
 93
        1
176
     1
 44
50.0
176
     1
173
     0
176
     1
  0
VISUALSTYLE
  5
3A
102
{ACAD_REACTORS
330
2A
102
}
330
2A
100
AcDbVisualStyle
  2
ColorChange
 70
    16
177
     2
291
     1
 71
     2
176
     1
 72
     2
176
     1
 73
     3
176
     1
 90
        0
176
     1
 40
-0.6
176
     1
 41
-30.0
176
     1
 62
     5
 63
     8
421
  8421504
176
     1
 74
     1
176
     1
 91
        4
176
     1
 64
     7
176
     1
 65
   257
176
     1
 75
     1
176
     1
175
     1
176
     1
 42
1.0
176
     1
 92
        8
176
     1
 66
     8
424
  8421504
176
     1
 43
1.0
176
     1
 76
     1
176
     1
 77
     6
176
     1
 78
     2
176
     1
 67
     7
176
     1
 79
     5
176
     1
170
     0
176
     1
171
     0
176
     1
290
     0
176
     1
 93
        1
176
     1
 44
0.0
176
     1
173
     0
176
     1
  0
VISUALSTYLE
  5
34
102
{ACAD_REACTORS
330
2A
102
}
330
2A
100
AcDbVisualStyle
  2
Conceptual
 70
     9
177
     2
291
     0
 71
     3
176
     1
 72
     2
176
     1
 73
     0
176
     1
 90
        0
176
     1
 40
-0.6
176
     1
 41
-30.0
176
     1
 62
     5
 63
     7
421
 16777215
176
     1
 74
     2
176
     1
 91
        2
176
     1
 64
     7
176
     1
 65
   257
176
     1
 75
     1
176
     1
175
     1
176
     1
 42
40.0
176
     1
 92
        8
176
     1
 66
     7
176
     1
 43
1.0
176
     1
 76
     1
176
     1
 77
     6
176
     1
 78
     2
176
     1
 67
     7
176
     1
 79
     3
176
     1
170
     0
176
     1
171
     0
176
     1
290
     0
176
     1
 93
        1
176
     1
 44
0.0
176
     1
173
     0
176
     1
  0
VISUALSTYLE
  5
35
102
{ACAD_REACTORS
330
2A
102
}
330
2A
100
AcDbVisualStyle
  2
Dim
 70
    11
177
     2
291
     1
 71
     2
176
     1
 72
     2
176
     1
 73
     0
176
     1
 90
        0
176
     1
 40
-0.6
176
     1
 41
-30.0
176
     1
 62
     5
 63
     7
421
 16777215
176
     1
 74
     1
176
     1
 91
        4
176
     1
 64
     7
176
     1
 65
   257
176
     1
 75
     1
176
     1
175
     1
176
     1
 42
1.0
176
     1
 92
        8
176
     1
 66
     7
176
     1
 43
1.0
176
     1
 76
     1
176
     1
 77
     6
176
     1
 78
     2
176
     1
 67
     7
176
     1
 79
     5
176
     1
170
     0
176
     1
171
     0
176
     1
290
     0
176
     1
 93
        1
176
     1
 44
-50.0
176
     1
173
     0
176
     1
  0
VISUALSTYLE
  5
39
102
{ACAD_REACTORS
330
2A
102
}
330
2A
100
AcDbVisualStyle
  2
Facepattern
 70
    15
177
     2
291
     1
 71
     2
176
     1
 72
     2
176
     1
 73
     0
176
     1
 90
        0
176
     1
 40
-0.6
176
     1
 41
-30.0
176
     1
 62
     5
 63
     7
421
 16777215
176
     1
 74
     1
176
     1
 91
        4
176
     1
 64
     7
176
     1
 65
   257
176
     1
 75
     1
176
     1
175
     1
176
     1
 42
1.0
176
     1
 92
        8
176
     1
 66
     7
176
     1
 43
1.0
176
     1
 76
     1
176
     1
 77
     6
176
     1
 78
     2
176
     1
 67
     7
176
     1
 79
     5
176
     1
170
     0
176
     1
171
     0
176
     1
290
     0
176
     1
 93
        1
176
     1
 44
0.0
176
     1
173
     0
176
     1
  0
VISUALSTYLE
  5
2B
102
{ACAD_REACTORS
330
2A
102
}
330
2A
100
AcDbVisualStyle
  2
Flat
 70
     0
177
     2
291
     1
 71
     2
176
     1
 72
     1
176
     1
 73
     1
176
     1
 90
        2
176
     1
 40
-0.6
176
     1
 41
30.0
176
     1
 62
     5
 63
     7
421
 16777215
176
     1
 74
     0
176
     1
 91
        4
176
     1
 64
     7
176
     1
 65
   257
176
     1
 75
     1
176
     1
175
     1
176
     1
 42
1.0
176
     1
 92
        8
176
     1
 66
     7
176
     1
 43
1.0
176
     1
 76
     1
176
     1
 77
     6
176
     1
 78
     2
176
     1
 67
     7
176
     1
 79
     5
176
     1
170
     0
176
     1
171
     0
176
     1
290
     0
176
     1
 93
       13
176
     1
 44
0.0
176
     1
173
     0
176
     1
  0
VISUALSTYLE
  5
2C
102
{ACAD_REACTORS
330
2A
102
}
330
2A
100
AcDbVisualStyle
  2
FlatWithEdges
 70
     1
177
     2
291
     1
 71
     2
176
     1
 72
     1
176
     1
 73
     1
176
     1
 90
        2
176
     1
 40
-0.6
176
     1
 41
30.0
176
     1
 62
     5
 63
     7
421
 16777215
176
     1
 74
     1
176
     1
 91
        4
176
     1
 64
     7
176
     1
 65
   257
176
     1
 75
     1
176
     1
175
     1
176
     1
 42
1.0
176
     1
 92
        0
176
     1
 66
   257
176
     1
 43
1.0
176
     1
 76
     1
176
     1
 77
     6
176
     1
 78
     2
176
     1
 67
     7
176
     1
 79
     5
176
     1
170
     0
176
     1
171
     0
176
     1
290
     0
176
     1
 93
       13
176
     1
 44
0.0
176
     1
173
     0
176
     1
  0
VISUALSTYLE
  5
2D
102
{ACAD_REACTORS
330
2A
102
}
330
2A
100
AcDbVisualStyle
  2
Gouraud
 70
     2
177
     2
291
     1
 71
     2
176
     1
 72
     2
176
     1
 73
     1
176
     1
 90
        2
176
     1
 40
-0.6
176
     1
 41
30.0
176
     1
 62
     5
 63
     7
421
 16777215
176
     1
 74
     0
176
     1
 91
        4
176
     1
 64
     7
176
     1
 65
   257
176
     1
 75
     1
176
     1
175
     1
176
     1
 42
1.0
176
     1
 92
        0
176
     1
 66
     7
176
     1
 43
1.0
176
     1
 76
     1
176
     1
 77
     6
176
     1
 78
     2
176
     1
 67
     7
176
     1
 79
     5
176
     1
170
     0
176
     1
171
     0
176
     1
290
     0
176
     1
 93
       13
176
     1
 44
0.0
176
     1
173
     0
176
     1
  0
VISUALSTYLE
  5
2E
102
{ACAD_REACTORS
330
2A
102
}
330
2A
100
AcDbVisualStyle
  2
GouraudWithEdges
 70
     3
177
     2
291
     1
 71
     2
176
     1
 72
     2
176
     1
 73
     1
176
     1
 90
        2
176
     1
 40
-0.6
176
     1
 41
30.0
176
     1
 62
     5
 63
     7
421
 16777215
176
     1
 74
     1
176
     1
 91
        4
176
     1
 64
     7
176
     1
 65
   257
176
     1
 75
     1
176
     1
175
     1
176
     1
 42
1.0
176
     1
 92
        0
176
     1
 66
   257
176
     1
 43
1.0
176
     1
 76
     1
176
     1
 77
     6
176
     1
 78
     2
176
     1
 67
     7
176
     1
 79
     5
176
     1
170
     0
176
     1
171
     0
176
     1
290
     0
176
     1
 93
       13
176
     1
 44
0.0
176
     1
173
     0
176
     1
  0
VISUALSTYLE
  5
38
102
{ACAD_REACTORS
330
2A
102
}
330
2A
100
AcDbVisualStyle
  2
Linepattern
 70
    14
177
     2
291
     1
 71
     2
176
     1
 72
     2
176
     1
 73
     0
176
     1
 90
        0
176
     1
 40
-0.6
176
     1
 41
-30.0
176
     1
 62
     5
 63
     7
421
 16777215
176
     1
 74
     1
176
     1
 91
        4
176
     1
 64
     7
176
     1
 65
   257
176
     1
 75
     7
176
     1
175
     7
176
     1
 42
1.0
176
     1
 92
        8
176
     1
 66
     7
176
     1
 43
1.0
176
     1
 76
     1
176
     1
 77
     6
176
     1
 78
     2
176
     1
 67
     7
176
     1
 79
     5
176
     1
170
     0
176
     1
171
     0
176
     1
290
     0
176
     1
 93
        1
176
     1
 44
0.0
176
     1
173
     0
176
     1
  0
VISUALSTYLE
  5
33
102
{ACAD_REACTORS
330
2A
102
}
330
2A
100
AcDbVisualStyle
  2
Realistic
 70
     8
177
     2
291
     0
 71
     2
176
     1
 72
     2
176
     1
 73
     0
176
     1
 90
        0
176
     1
 40
-0.6
176
     1
 41
-30.0
176
     1
 62
     5
 63
     7
421
 16777215
176
     1
 74
     1
176
     1
 91
        0
176
     1
 64
     7
176
     1
 65
   257
176
     1
 75
     1
176
     1
175
     1
176
     1
 42
1.0
176
     1
 92
        8
176
     1
 66
     8
424
  7895160
176
     1
 43
1.0
176
     1
 76
     1
176
     1
 77
     6
176
     1
 78
     2
176
     1
 67
     7
176
     1
 79
     5
176
     1
170
     0
176
     1
171
     0
176
     1
290
     0
176
     1
 93
       13
176
     1
 44
0.0
176
     1
173
     0
176
     1
  0
VISUALSTYLE
  5
37
102
{ACAD_REACTORS
330
2A
102
}
330
2A
100
AcDbVisualStyle
  2
Thicken
 70
    13
177
     2
291
     1
 71
     2
176
     1
 72
     2
176
     1
 73
     0
176
     1
 90
        0
176
     1
 40
-0.6
176
     1
 41
-30.0
176
     1
 62
     5
 63
     7
421
 16777215
176
     1
 74
     1
176
     1
 91
        4
176
     1
 64
     7
176
     1
 65
   257
176
     1
 75
     1
176
     1
175
     1
176
     1
 42
1.0
176
     1
 92
       12
176
     1
 66
     7
176
     1
 43
1.0
176
     1
 76
     1
176
     1
 77
     6
176
     1
 78
     2
176
     1
 67
     7
176
     1
 79
     5
176
     1
170
     0
176
     1
171
     0
176
     1
290
     0
176
     1
 93
        1
176
     1
 44
0.0
176
     1
173
     0
176
     1
  0
ENDSEC
  0
EOF
