<?xml version="1.0" encoding="utf-8"?>
<!-- Generator: Adobe Illustrator 22.0.0, SVG Export Plug-In . SVG Version: 6.00 Build 0)  -->
<svg version="1.1" id="Layer_1" xmlns="http://www.w3.org/2000/svg" xmlns:xlink="http://www.w3.org/1999/xlink" x="0px" y="0px"
	 viewBox="0 0 1080 1080" style="enable-background:new 0 0 1080 1080;" xml:space="preserve">
<g>
	<path d="M237.9,811.3c2.5-1.1,4.8-2.4,7-3.9c2.7-2,3.4-5.7,1.5-8.3c-1.7-2.5-3.9-2.7-7.3-0.7c-2.9,1.7-5.9,3.2-9.1,4.2
		c-11.8,3.9-23.3,2.5-34.4-2.7c-16.4-7.8-28.1-20.3-36.7-35.8c-3.2-5.7-5.3-11.8-6.4-18.2c-1.9-11.5-0.5-22.7,2.6-33.7
		c0.6-2.2,1.1-4.6,2.3-6.6c0.9,0.3,1.3,1,1.8,1.6c3.2,3.5,6.7,6.5,10.8,8.9c7.3,4.2,15,5.8,23.3,4c20.9-4.6,30.8-27.6,22.7-45.9
		c-2.5-5.5-6.9-9-12.8-10.7c-3.5-1-7-1.3-10.6-1c-13,1.2-24,6.3-32.7,16c-0.5,0.6-1,1.1-1.7,1.9c-0.9-1.3-1-2.4-1.2-3.5
		c-3.9-20.4-1.7-40.2,6.2-59.3c1.9-4.7,4.5-9,7.5-13c5-6.6,11.2-11.6,19.1-14.4c3.4-1.2,5-3.9,4.5-7c-0.6-3.3-2.8-4.7-6.1-3.8
		c-0.8,0.2-1.6,0.5-2.4,0.8c-10.8,4.2-19.1,11.5-25.5,20.8c-8.2,11.9-12.5,25.3-14.6,39.4c-2.5,17.3-1.7,34.4,4.2,51.1
		c0.3,1,0.3,1.8-0.1,2.7c-4.3,9.1-6.8,18.7-8.1,28.6c-1,7.7-1.4,15.5-0.5,23.3c1.3,12,5.7,22.8,12.5,32.7
		c12.1,17.5,27.9,30,48.9,35.3C214.7,816.8,226.5,816.1,237.9,811.3z M184.6,673.8c6.8-3,13.3-2.5,19,2.6c4.6,4,6.2,8.9,4.9,14.9
		c-2,9-10.8,17.2-19.9,18.1c-5.5,0.6-10.4-1-14.9-4.1c-4.5-3.1-7.7-7.3-10.4-12.2C168.9,685,175.3,677.9,184.6,673.8z"/>
	<path d="M292.4,305.8c2.3,32.6,24,45.6,47.3,41.6c51.9-8.7,64.9-55.9,68.2-107.2c11.7,1.7,31,3.3,43.3,4.3
		c-0.3,33-1,69.6,27.3,85.2c17.6,10,41.3,0.7,24-13c-18-14.3-17.3-49.9-16.3-70.9c11.4,1.4,23.4,0.3,32.7-4.7
		c4.6,49.9,23.4,77.9,49.1,77.9c18.7,0,30.8-31.2,38.2-60.5c7.9,27,24.1,40.5,45,40.5c29.6,0,42.9-58.6,46.6-83.5
		c-0.3-6-9.7-7-10.3-1.3c0,0-15.6,64.6-31.6,66.9c-24.6,4.3-19-71.9-19-81.2c42.6-21.6,74.2-129.1,27-131.8
		c-35.3-3.3-63.6,73.6-62.9,149.5c0,3.8,0.2,7.5,0.4,11.1c-5.3,24.2-16.9,70.8-28.7,72.5c-24.6,4.3-19-91.9-19-101.2
		c42.6-21.6,74.2-142.5,27-145.1c-40.9-0.7-63.6,98.2-62.9,162.8c0,3.4,0.1,6.7,0.2,9.9c-8.3,6.8-22.7,5.8-30.8,4.4
		c5.3-69.2,16.3-180.1-39.6-181.1c-55.9-1-62.6,89.2-73.2,172.4C318.4,227.3,290.4,274.5,292.4,305.8z M673.2,94.8
		c12.6,1.3-9.3,72.9-35.6,91.2C640.9,147.4,659.5,95.1,673.2,94.8z M590,81.5c12.6,1.3-9.3,86.2-35.6,104.5
		C557.7,147.4,576.3,81.8,590,81.5z M448.2,62.2c22.3,0,7.3,137.8,4,166.4c-11.3-1.7-30-3.3-42.3-4.3
		C417.9,157.7,418.9,61.8,448.2,62.2z M372.6,237.6c-4,26.6-9,60.6-17.6,78.2c-15,29.6-45.3,19.6-48.9-6.3
		C302.4,281.8,322.7,239.9,372.6,237.6z"/>
	<path d="M146.1,516.1c1.7-7.5,3.3-13.4,4.7-17.6c2.8-9.8,6.3-19.9,10.5-30.2c4.2-10.3,8.7-20.2,13.4-29.7
		c4.7-9.5,9.5-17.9,14.2-25.2c4.7-7.4,9-12.9,12.9-16.8c2.8-2.4,4.5-3.8,5-4.2c0.5-0.3,1.3,0.2,2.4,1.6c0.7,1,1.3,2.9,1.8,5.5
		c0.5,2.6,0.9,7,1.1,13.1c0.2,6.1,0.3,14.6,0.3,25.5c0,10.9,0,25.4,0,43.6c0,19.6,0,34.9,0,45.9c0,11,0.3,19.7,0.8,26
		c0.5,6.3,1.5,11.4,2.9,15.2c1.4,3.9,3.3,8.4,5.8,13.7c1.4,3.2,3.5,6.6,6.3,10.2c2.8,3.7,5.6,7.1,8.4,10.2c2.8,3.2,5.7,5.9,8.7,8.1
		c3,2.3,5.5,3.8,7.6,4.5c3.8,1.4,8.8,2,15,1.8c6.1-0.2,10.6-1,13.4-2.4c4.5-2.1,8.5-4.7,11.8-7.9c3.3-3.2,6.6-8.3,9.7-15.5
		c3.2-7.2,6.6-17.1,10.2-29.9c3.7-12.8,8.3-29.7,13.9-50.7c1-3.5,1.9-6.8,2.7-10c1,4.4,2.3,8.8,3.8,13.4c3,8.9,5.9,15.8,8.7,20.7
		c2.8,4.9,7.3,10.2,13.4,15.8c6.1,5.6,11.6,9.6,16.5,12.1c11.2,5.6,21.3,6.1,30.5,1.6c13.9-7.4,27.8-29.3,41.9-65.9
		c0.8,6.3,2,12.4,3.5,18.2c2.6,9.8,6,18.4,10.2,25.7c4.2,7.4,9.3,12.8,15.2,16.3c3.8,2.8,8.7,4.3,14.7,4.5c5.9,0.2,11.4-1,16.3-3.4
		c13.3-6.6,26.6-24.5,39.9-53.6l5.3-11.6v18.9c0,24.2,2.4,44.6,7.3,61.4c4.9,16.8,11.7,27.8,20.5,33.1c7.7,4.9,15.4,4.4,23.1-1.6
		c8-5.9,16.4-21.3,25.2-46.2c5.2-14.7,10.2-31.9,15-51.4c1,10.1,2.3,19.9,3.9,29.3c1.7,10.2,3.2,17.2,4.2,21
		c1.1,3.9,2.4,6.3,4.2,7.4c3.2,2.5,8.9,1.6,17.3-2.6c2.8-1.4,5-2.7,6.6-3.9c1.6-1.2,2.8-3.2,3.7-6c0.9-2.8,1.4-6.8,1.6-12.1
		c0.2-5.3,0.3-12.6,0.3-22.1c0.3-27,2.3-49.4,5.8-67.2c3.5-17.9,8.7-33.9,15.8-48.3c3.8-8,8.7-15.8,14.7-23.1
		c5.9-7.4,11.4-12.4,16.3-15.2c1.7-0.7,2.7-0.9,2.9-0.5c0.2,0.4-0.1,1.8-0.8,4.2c-1,6,0.3,11.6,4.2,17.1c3.8,5.4,8.4,8.1,13.7,8.1
		c2.8,0,5.3-0.9,7.6-2.6c2.3-1.7,4.1-4,5.5-6.8c1.4-2.8,2.2-5.9,2.4-9.2c0.2-3.3-0.4-6.6-1.8-9.7c-3.2-7.7-8.1-12.6-14.7-14.7
		c-6.7-2.1-14-1-22.1,3.2c-3.5,1.8-7.2,4.4-11,7.9c-3.9,3.5-7.6,7.5-11.3,12.1c-3.7,4.6-7.2,9.5-10.5,14.7c-3.3,5.2-6,10.5-8.1,15.8
		c-2.5,5.6-4.9,12.5-7.4,20.7c-2.5,8.2-4.6,16-6.3,23.4c-1,4.6-1.7,6.1-1.8,4.7c-0.2-1.4-0.1-8.2,0.3-20.5c0.3-7,0.8-15.2,1.3-24.7
		c0.5-9.5,1.1-17.3,1.8-23.6c1.1-12.6,1.4-21,1.1-25.2c-0.4-4.2-1.8-7.2-4.2-8.9c-1.8-1.1-4.1-1.7-7.1-1.8c-3-0.2-6,0-9.2,0.5
		c-3.2,0.5-6,1.4-8.7,2.6c-2.6,1.2-4.5,2.7-5.5,4.5c-2.1,3.2-3.7,9.7-4.7,19.7c-1,10-1.9,25.8-2.6,47.5c-0.2,16.4-0.1,31.7,0.3,45.9
		c-0.1,0.5-0.2,0.9-0.3,1.4c-5.6,25.6-11.2,47.6-16.8,66.2c-5.6,18.6-10.9,32.9-15.8,43.1l-3.7,6.8l-1.6-5.8c-1-4.2-1.9-8-2.6-11.3
		c-0.7-3.3-1.2-7.3-1.6-11.8c-0.4-4.5-0.6-10.1-0.8-16.5c-0.2-6.5-0.3-14.8-0.3-24.9c0-11.2,0-22.4,0-33.6c0-11.2,0.2-18.9,0.5-23.1
		c0.3-7,0.4-11.5,0.3-13.4c-0.2-1.9-1-3.6-2.4-5c-4.2-4.9-11.4-6.3-21.5-4.2c-7,1.4-11.7,3.3-14.2,5.8c-2.5,2.5-4.9,7.5-7.4,15.2
		c-2.8,8.8-6.4,18.6-10.8,29.4c-4.4,10.9-8.7,20.3-12.9,28.4c-2.1,3.5-4.3,7-6.6,10.5c-2.3,3.5-4.5,6.7-6.6,9.5
		c-2.1,2.8-3.9,5-5.5,6.6c-1.6,1.6-2.5,2-2.9,1.3c-0.4-0.3-0.9-1.4-1.6-3.2c-0.7-1.7-1.4-3.7-2.1-5.8c-2.5-7.4-4.2-16.4-5.3-27
		c-1.1-10.7-1.5-21.9-1.3-33.6c0.2-11.7,1-23.4,2.4-34.9c1.4-11.6,3.3-21.7,5.8-30.5c3.2-10.1,6.8-18.7,11-25.7
		c4.2-7,8.2-10.5,12.1-10.5c4.2,0,8.7,2.4,13.7,7.1c4.9,4.7,9.3,10.8,13.1,18.1c2.4,4.9,4.5,8.1,6.3,9.5c1.7,1.4,3.7,1.2,5.8-0.5
		c1.4-1.1,1.9-2.6,1.6-4.7c-0.4-2.1-1.8-5.6-4.2-10.5c-2.8-5.9-6.7-11.6-11.8-17.1c-5.1-5.4-10.4-9.5-16-12.3
		c-3.9-1.7-6.9-2.8-9.2-3.2c-2.3-0.3-5.9-0.5-10.8-0.5c-8.1,0-14.5,1.2-19.4,3.7c-4.9,2.5-10.9,7.4-17.9,14.7
		c-16.8,17.9-27.5,42-32,72.5c-0.9,6.1-1.5,12.2-1.8,18.2c-4.5,12.8-9,24.7-13.4,35.6c-6,14.5-11.4,25.6-16.3,33.3
		c-2.5,3.9-5.8,7.9-10,12.1c-4.2,4.2-7,6.3-8.4,6.3c-1.1,0-3.2-2.4-6.6-7.4c-3.3-4.9-6.4-10.3-9.2-16.3c-2.1-4.5-4.1-9.8-6-15.8
		c-1.9-5.9-3.5-12-4.7-18.1c-1.2-6.1-2.1-12.2-2.6-18.1c-0.5-5.9-0.6-11.6-0.3-16.8l0.5-8.4l8.4-3.2c5.9-2.1,11.4-5,16.3-8.7
		c4.9-3.7,9.1-7.8,12.6-12.3c9.1-12.9,14-25.7,14.7-38.3c0.7-12.6-3.2-22.6-11.6-29.9c-3.9-2.8-7.5-4.8-11-6
		c-3.5-1.2-8.4-1.8-14.7-1.8c-29.1,0-47.3,25.4-54.6,76.1c-1,7.4-1.5,16.8-1.3,28.4c0.1,4.3,0.2,8.3,0.5,12.2
		c-0.5,1.9-1,3.9-1.5,6.2c-2.3,9.1-4.8,18.7-7.6,28.9c-5.2,20-9.6,36.1-13.1,48.6c-3.5,12.4-6.6,22.1-9.2,28.9
		c-2.6,6.8-5.2,11.6-7.6,14.2c-2.5,2.6-5.1,4.1-7.9,4.5c-9.5,1.4-17.2-8.2-23.1-28.9c-0.7-2.4-1.2-4.8-1.6-7.1c-0.4-2.3-0.7-5-1-8.1
		c-0.4-3.2-0.5-6.9-0.5-11.3c0-4.4,0-10.1,0-17.1c0-4.5,0-10,0-16.3c0-6.3,0.1-12.9,0.3-20c0.2-7,0.3-14.2,0.5-21.5
		c0.2-7.4,0.3-14.2,0.3-20.5c0.3-12.6,0.6-22.8,0.8-30.7c0.2-7.9,0.1-14.3-0.3-19.2c-0.4-4.9-1-8.8-2.1-11.8c-1-3-2.3-5.9-3.7-8.7
		c-7-12.2-18-15-33.1-8.4c-10.9,4.9-20.8,13.5-29.9,25.7c-9.1,12.3-18.4,29.2-27.8,50.9c-4.9,10.9-9,21-12.3,30.5
		c-3.3,9.5-6.2,19.3-8.7,29.4l-3.2,13.7l-2.1-10.5c-1.4-9.1-2.5-18.5-3.2-28.4c-0.7-9.8-1-19.4-1-28.9v-17.3l10-6.8
		c14.7-9.1,27.6-21.4,38.9-37c11.2-15.6,19.2-32.3,24.2-50.1c1.4-4.5,2.4-8.7,2.9-12.6c0.5-3.8,0.8-9.3,0.8-16.3
		c0-4.2-0.1-7.5-0.3-10c-0.2-2.4-0.4-4.5-0.5-6.3c-0.2-1.7-0.6-3.3-1.3-4.7c-0.7-1.4-1.6-3.3-2.6-5.8c-2.8-5.9-6-10.4-9.7-13.4
		c-3.7-3-8.1-5.3-13.4-7.1c-8.4-2.8-17.1-2.6-26,0.5c-8.9,3.2-16.9,8.8-23.9,16.8C97.3,315.8,85,373.2,88.9,457.5
		c0.4,8.1,0.9,16.4,1.6,24.9c0.7,8.6,1.5,17.1,2.4,25.5c0.9,8.4,1.7,16.3,2.6,23.6c0.9,7.4,1.7,13.8,2.4,19.4
		c1.1,5.3,1.8,8.4,2.4,9.5c0.5,1.1,2.2,1.9,5,2.6c3.8,1.1,8.6,1.5,14.2,1.3c5.6-0.2,9.8-1.1,12.6-2.9l5.2-2.1l4.7-22.6
		C143,530.5,144.4,523.6,146.1,516.1z M367.2,435.5c2.8-18.5,6.2-33.5,10.2-44.9c4-11.4,8.5-18.5,13.4-21.3c2.8-1.7,5.8-1,8.9,2.1
		s5.4,7.5,6.8,13.1c1,3.9,1,8.4,0,13.7c-1.1,5.2-3,10.4-5.8,15.5c-2.8,5.1-6.1,9.8-10,14.2c-3.9,4.4-7.9,7.6-12.1,9.7
		c-1.8,0.7-3.4,1.5-5,2.4c-1.6,0.9-2.9,1.5-3.9,1.8c-1.8,0.4-2.7,0.3-2.9-0.3C366.7,441,366.8,439,367.2,435.5z M126.7,412.9
		c0.3-7.4,1-16,1.8-26c0.9-10,1.9-20,3.2-30.2c1.2-10.1,2.4-18,3.4-23.6c2.8-11.6,6.3-21.8,10.5-30.7c4.2-8.9,8.7-15.5,13.7-19.7
		c4.9-3.8,10.1-4.9,15.5-3.2c5.4,1.8,9.9,6,13.4,12.6c1.7,3.5,2.8,6.5,3.2,8.9c0.3,2.5,0.5,7.4,0.5,14.7c0,7-0.3,12.3-0.8,16
		c-0.5,3.7-1.7,8-3.4,12.9c-4.9,14.7-11.7,28.4-20.5,41.2c-8.8,12.8-18.7,23.2-29.9,31.2c-2.5,1.8-4.6,3.3-6.6,4.7
		c-1.9,1.4-3.1,2.1-3.4,2.1C126.5,423.9,126.3,420.3,126.7,412.9z"/>
	<path d="M1011.9,442.3c-2.1,0-3.7,0.8-4.7,2.4c-1,1.6-2.5,5-4.2,10.2c-4.6,12.3-10.3,23.8-17.3,34.7c-1.8,2.5-3.8,5.1-6,7.9
		c-2.3,2.8-4.5,5.4-6.6,7.9c-2.1,2.5-4,4.6-5.8,6.3c-1.8,1.8-2.8,2.6-3.2,2.6c-0.7,0-1.8-1.9-3.2-5.8c-2.8-9.1-7.6-18.4-14.4-27.8
		c-6.8-9.5-14.8-18-23.9-25.7l-6.3-5.2l6.3-7.4c3.8-4.2,7.9-10.1,12.1-17.6c4.2-7.5,7.2-14.3,8.9-20.2c0.7-2.8,1.2-6,1.6-9.7
		c0.3-3.7,0.5-7.3,0.5-10.8c0-15-4.6-25.5-13.7-31.5c-4.9-2.8-10.5-4.1-16.8-3.9c-6.3,0.2-12.4,1.8-18.4,5
		c-8.1,3.9-15.5,10.4-22.3,19.7c-6.8,9.3-11.5,19-13.9,29.1c-1,4.6-1.5,10-1.3,16.3c0.2,6.3,0.8,11.6,1.8,15.8c1,3.9,2.2,7.2,3.4,10
		c0.3,0.7,0.7,1.5,1.1,2.2c-0.3,0.6-0.6,1.2-0.8,2c-0.4,0.7-0.9,3.7-1.6,8.9c-0.7,5.3-1.4,11.2-2.1,17.9c-3.5,28-8,51.9-13.4,71.7
		c-5.4,19.8-11.6,33.7-18.6,41.7c-2.5,3.5-4.4,4.6-5.8,3.2c-1.8-1.4-3.7-5-5.8-10.8c-2.1-5.8-4-13-5.8-21.8
		c-0.7-3.5-1.3-6.7-1.8-9.7c-0.5-3-0.9-7.4-1-13.4c-0.2-5.9-0.3-14.3-0.3-25.2c0-10.8,0-25.9,0-45.2c0-10.8,0-21.6,0-32.3
		c0-10.7,0.1-20.5,0.3-29.4c0.2-8.9,0.3-16.6,0.5-23.1c0.2-6.5,0.3-11.1,0.3-13.9l1.6-19.4h9.5c19.6,0,33.3-4.4,41-13.1
		c4.5-5.6,4.7-11,0.5-16.3c-1.8-2.4-4.2-3.8-7.3-3.9c-3.2-0.2-5.6,0.8-7.4,2.9c-1.8,1.8-2.5,4.9-2.1,9.5l1,6.3l-7.4,1.6
		c-2.5,0.7-5.2,1.1-8.4,1.3c-3.2,0.2-6,0.3-8.7,0.3c-2.6,0-4.9-0.2-6.8-0.5c-1.9-0.3-2.9-0.9-2.9-1.6c0-0.3,0.1-2.3,0.3-5.8
		c0.2-3.5,0.6-7.5,1.3-12.1c1-13.3,0.8-22.4-0.8-27.3c-1.6-4.9-5-7.4-10.2-7.4c-3.9,0-8,0.9-12.3,2.6c-4.4,1.8-7.4,3.9-9.2,6.3
		c-1.8,2.1-2.8,4.2-3.2,6.3c-0.4,2.1-0.5,7.2-0.5,15.2c0,4.6-0.1,8.5-0.3,11.8c-0.2,3.3-0.4,5-0.8,5c-0.4,0-2.4-0.4-6-1.3
		c-3.7-0.9-8.1-2.2-13.4-3.9c-28.7-8.4-46-7-52,4.2c-1.7,3.2-2.4,6.2-1.8,9.2c0.5,3,1.6,5.3,3.2,6.8c1.6,1.6,3.7,2.3,6.3,2.1
		c2.6-0.2,5.2-1.5,7.6-3.9c1.8-1.7,2.9-3.2,3.4-4.5c0.5-1.2,0.6-2.7,0.3-4.5c-0.7-1.7-0.8-2.9-0.3-3.4c0.5-0.5,2.2-0.8,5-0.8
		c1.4,0,4.7,0.6,10,1.8c5.3,1.2,10.9,2.7,16.8,4.5l21,5.8l-1,20c-1.4,30.5-2.4,56.2-2.9,77.2c-0.5,21-0.5,38.9,0,53.6
		c0.5,14.7,1.4,27.1,2.6,37.3c1.2,10.2,3.1,19.8,5.5,28.9c2.8,10.9,6.8,20.4,12.1,28.6c5.3,8.2,11,13.9,17.3,17.1
		c9.8,5.3,19.1,2.7,27.8-7.6c8.7-10.3,16.1-27.6,22.1-51.7c1.7-6.6,3.6-15.1,5.5-25.5c1.9-10.3,3.6-20.6,5-30.7
		c1.4-10.1,2.4-19.1,3.2-26.8c0.1-1.1,0.2-2.1,0.3-3.1c1.6,1.8,3.3,3.7,5.2,5.7c3.7,3.9,8.3,8.6,13.9,14.2
		c5.9,5.6,10.8,10.3,14.7,14.2c3.8,3.9,6.9,7.4,9.2,10.5c2.3,3.2,4.2,6.1,5.8,8.9c1.6,2.8,2.9,6,3.9,9.5c2.1,6.7,2.9,10.9,2.4,12.9
		c-0.5,1.9-3.2,4.6-8.1,8.1c-6,3.9-11.8,8.8-17.6,15c-5.8,6.1-10.1,12.2-12.9,18.1c-1.8,3.9-3,7-3.7,9.5c-0.7,2.5-1,6-1,10.5
		c0,4.2,0.3,7.4,0.8,9.5c0.5,2.1,1.7,4.6,3.4,7.4c4.2,7,9.8,11.6,16.8,13.7c5.9,1.7,12.3,1.3,19.2-1.3c6.8-2.6,13.2-7.1,19.2-13.4
		c8-8.4,14-18.5,17.9-30.5c3.8-11.9,5.4-24.9,4.7-38.9l-1.1-14.7l7.9-7.4c4.2-3.8,8.5-8.5,12.9-13.9c4.4-5.4,8.4-11.1,12.1-17.1
		c3.7-5.9,6.8-11.9,9.5-17.9c2.6-5.9,4.5-11.2,5.5-15.8C1016.6,446.5,1015.8,442.3,1011.9,442.3z M907.4,441.3
		c-1.8,0.4-4.2-1.1-7.4-4.2c-1.8-1.7-3.4-3.8-5-6.3c-1.6-2.4-2.9-4.7-3.9-6.8c-1.8-3.5-2.8-6.5-3.2-8.9c-0.4-2.4-0.5-6.6-0.5-12.6
		c0-5.9,0.2-10.1,0.5-12.6c0.3-2.4,1.2-5.3,2.6-8.4c5.6-10.8,12.7-17.7,21.3-20.5c8.6-2.8,15.1-0.5,19.7,6.8
		c1.7,3.5,2.9,8.2,3.4,14.2c0.5,6-0.1,11.6-1.8,16.8c-1.8,6-4.3,12.3-7.6,18.9c-3.3,6.7-6.6,11.9-9.7,15.8
		C912,438.3,909.2,440.9,907.4,441.3z M930.5,552.8c-0.4,2.3-0.9,4.8-1.6,7.6c-3.2,17.9-10,33.3-20.5,46.2c-1,1.4-2,2.6-2.9,3.7
		c-0.9,1.1-1.5,1.6-1.8,1.6c-1.8,0-3.2-1.7-4.5-5.3c-1.2-3.5-1.8-7.4-1.8-11.6c0-9.8,4.5-19.8,13.7-29.9c1.4-1.4,3.2-3.2,5.5-5.2
		c2.3-2.1,4.5-4,6.6-5.8c2.1-1.7,3.9-3.2,5.5-4.2c1.6-1.1,2.4-1.4,2.4-1.1C931,549.3,930.9,550.6,930.5,552.8z"/>
	<path d="M648.9,772.5c1.6,2.3,3.6,3.5,5.8,3.5c1.2,0,2.3-0.4,3.3-1.1c1-0.7,1.8-1.7,2.4-2.9c0.6-1.2,0.9-2.5,1-3.9
		c0.1-1.4-0.2-2.8-0.8-4.1c-1.3-3.3-3.4-5.4-6.3-6.3c-2.8-0.9-6-0.4-9.4,1.3c-1.5,0.8-3.1,1.9-4.7,3.4c-1.6,1.5-3.2,3.2-4.8,5.2
		c-1.6,1.9-3.1,4-4.5,6.3c-1.4,2.2-2.6,4.5-3.5,6.7c-1,2.4-2.1,5.3-3.1,8.9c-1,3.5-1.9,6.8-2.7,10c-0.4,1.9-0.7,2.6-0.8,2
		c-0.1-0.6,0-3.5,0.1-8.7c0.1-3,0.3-6.5,0.6-10.5c0.2-4,0.5-7.4,0.8-10.1c0.4-5.4,0.6-9,0.4-10.8c-0.2-1.8-0.7-3.1-1.8-3.8
		c-0.7-0.4-1.8-0.7-3-0.8c-1.3-0.1-2.6,0-3.9,0.2c-1.3,0.2-2.6,0.6-3.7,1.1c-1.1,0.5-1.9,1.2-2.4,1.9c-0.9,1.3-1.6,4.1-2,8.4
		c-0.4,4.3-0.8,11-1.1,20.3c-0.1,6.6-0.1,12.7,0.1,18.4c0,0.2-0.1,0.3-0.1,0.5c-0.4,1.9-0.9,3.5-1.3,4.8c-1.6,5.2-3.6,9.3-5.7,12.3
		c-2.2,3-4.7,5.3-7.7,6.9c-1.5,0.7-2.6,1.2-3.4,1.3c-0.8,0.2-1.9,0.1-3.4-0.2c-1-0.1-1.9-0.3-2.7-0.3c-0.8-0.1-1.2-0.3-1.3-0.6
		c-0.4-0.4,0-2.6,1.3-6.5c1.2-4,2.1-8.1,2.7-12.2c0.6-4.1,1-9.2,1.3-15.1c0.4-10.8-0.3-19.9-2.1-27.5c-1.9-7.5-4.8-13.1-8.7-16.7
		c-5.3-5.1-10.2-5.5-14.7-1.3c-2.1,2.2-3.7,5.3-4.7,9.3c-1.1,4-1.6,9.2-1.6,15.8c0,11.7,1.3,21.9,3.8,30.6c2.5,8.7,6.3,15.7,11.2,21
		l4,4.5l-1.6,2.9c-1.3,2.4-3.1,4.5-5.3,6.4c-2.2,1.9-4.1,3-5.7,3.5c-1.6,0.4-2.8,0.5-3.5,0.2c-0.7-0.3-1.6-1.5-2.8-3.6
		c-3-5.2-4.7-11.5-5.2-18.7c-0.5-7.2,0.3-15.3,2.3-24.1c0.7-3.4,1.1-5.6,1.2-6.4c0.1-0.8-0.1-1.8-0.6-2.8c-1.3-2.8-4.4-4.3-9.1-4.5
		c-2.1-0.1-3.3-0.1-3.8,0c-0.4,0.2-1.3,0.8-2.4,2c-1.2,1.2-2.3,2.9-3.2,5c-0.6,1.4-1.1,2.9-1.6,4.4c-0.6,0.8-0.9,2.1-1.1,4
		c-0.2,0.7-0.4,1.9-0.8,3.6c-0.4,1.6-0.8,3.2-1.2,4.7c-1.6,5.7-3.6,10.6-5.7,14.8c-2.2,4.2-4.4,7.1-6.8,8.7l-2.7,1.8l-1.8-4
		c-2.1-4.3-5-7.9-8.7-10.8c-3.7-2.8-7.8-4.6-12.3-5.4c-1.2-0.3-2.2-0.5-2.9-0.7c-0.8-0.1-1.2-0.2-1.3-0.2c-0.3-1.9-0.5-3.6-0.7-4.9
		c-0.2-1.3-0.3-2.7-0.4-4.1c-0.2-1.4-0.2-2.7-0.2-3.7l-0.2-4.9l2.9-0.9c2.2-0.7,4.6-1.8,6.9-3.1c2.4-1.3,4.7-2.8,7-4.4
		c2.2-1.6,4.3-3.2,6.2-4.9c1.9-1.7,3.4-3.4,4.6-5c2.1-2.8,3.9-5.9,5.4-9.2c1.5-3.3,2.6-6.6,3.5-9.9c0.8-3.3,1.3-6.5,1.3-9.6
		c0.1-3.1-0.3-6-1-8.5c-0.6-2.1-1.7-4.1-3.4-6.2c-1.6-2-3.5-3.6-5.6-4.8c-1.2-0.7-2.3-1.2-3.2-1.3c-1-0.1-2.9-0.2-5.7-0.2
		c-2.8,0-4.7,0.1-5.7,0.3c-1,0.2-2.4,0.8-4.4,1.7c-12.7,6.4-20.8,20.8-24.2,43.3c-0.4,2.4-0.7,5.4-0.9,9c-0.1,3.6-0.2,7.4-0.2,11.3
		c0,4,0.1,7.8,0.2,11.4c0.2,3.7,0.4,6.8,0.9,9.3c0.9,6.3,2.1,12.4,3.7,18.4c1.6,6,3.3,11.1,5.3,15.5c2.2,5.1,4.9,9.3,8,12.7
		c3.1,3.4,6.1,5.6,9.1,6.6c1.6,0.4,3.6,0.6,5.9,0.3s4.1-0.8,5.3-1.7c4.8-3.1,7.4-9.6,7.8-19.3l0.2-6.9l2.5-1.6
		c1.5-0.7,3-1.9,4.6-3.6c1.6-1.6,2.9-3.4,4.1-5.4c0.9-1.5,1.9-3.4,2.9-5.8c0.3-0.8,0.7-1.6,1-2.4c0.7,6.9,2.5,12.8,5.5,17.5
		c3.6,5.6,8.5,9.5,14.8,11.5c2.1,0.7,4.5,1,7.2,0.9c2.7-0.1,5.1-0.7,7.2-1.6c3.9-1.6,7.5-5.1,10.8-10.3c1-1.5,1.8-2.5,2.4-3
		c0.5-0.5,0.9-0.7,1.2-0.6c1.2,0.4,2.7,0.8,4.6,1.1c1.9,0.3,3.4,0.4,4.6,0.2c3.4-0.4,6.8-2,10-4.7c3.2-2.7,5.9-6.1,8-10.1
		c0.3-0.8,0.7-1.7,1.1-2.7c0.5,5.9,1.1,11.6,2,17c0.7,4.3,1.3,7.3,1.8,9c0.4,1.6,1,2.7,1.8,3.1c1.3,1,3.8,0.7,7.4-1.1
		c1.2-0.6,2.1-1.2,2.8-1.7c0.7-0.5,1.2-1.4,1.6-2.6c0.4-1.2,0.6-2.9,0.7-5.2c0.1-2.2,0.1-5.4,0.1-9.4c0.1-11.5,1-21.1,2.5-28.7
		c1.5-7.6,3.7-14.5,6.7-20.6c1.6-3.4,3.7-6.7,6.3-9.9c2.5-3.1,4.9-5.3,6.9-6.5c0.7-0.3,1.2-0.4,1.2-0.2c0.1,0.2,0,0.8-0.3,1.8
		C646.7,767.7,647.3,770.2,648.9,772.5z M483.3,783.1c0.4-7,1.2-13.1,2.1-18.2c1-5.1,2.4-10.1,4.4-15c1.8-4.8,4.1-8.8,6.9-12
		c2.8-3.2,5.4-4.8,7.6-4.8c2.4,0,4.7,0.9,6.9,2.8c2.2,1.9,3.7,4.2,4.5,7.1c0.7,2.1,1.1,4.2,1,6.3c-0.1,2.1-0.6,4.9-1.5,8.3
		c-1.5,5.8-3.5,10.7-5.9,14.6c-2.5,3.9-5.9,7.5-10.2,10.8c-1.5,1.2-3.2,2.4-5,3.6c-1.9,1.2-3.4,2.1-4.6,2.7c-1.8,0.9-3.1,1.5-4,1.9
		c-0.9,0.4-1.5,0.4-1.9,0c-0.4-0.4-0.6-1.2-0.6-2.5C483,787.4,483.1,785.5,483.3,783.1z M508.6,847.7c-0.3,2.7-0.8,5.2-1.6,7.4
		c-0.3,1.2-0.7,2.4-1.3,3.5c-0.6,1.1-1,1.9-1.3,2.4l-1.6,1.6l-1.6-2.7c-0.8-1-1.6-2.7-2.7-4.8c-1-2.2-2.1-4.5-3.2-6.9
		c-1.1-2.5-2.2-4.9-3.3-7.4c-1-2.5-1.8-4.4-2.2-5.9c-1-3.4-1.9-6.7-2.7-9.9c-0.8-3.1-1-4.9-0.7-5.2c0.1-0.1,0.7-0.1,1.7,0
		c1,0.2,2,0.4,3.2,0.8c1.2,0.4,2.4,0.8,3.5,1.3c1.1,0.5,2.1,1,2.8,1.5c1.9,1.3,2.8,2.4,2.7,3.1c-0.2,0.3-0.2,1-0.2,2
		c0,1,0,2.1,0,3.1c-0.2,1.9-0.1,3.2,0.1,3.7c0.2,0.5,0.9,1.3,2.1,2.4c0.6,0.6,1.3,1.1,2.1,1.6c0.8,0.4,1.5,0.7,1.9,0.9
		c1.2,0.2,1.9,0.8,2.2,1.8C508.9,843.1,508.9,845,508.6,847.7z M576.3,823c-0.6,1.5-1.1,2.8-1.5,3.9c-0.4,1.1-0.6,1.7-0.8,1.7
		c-0.3-0.1-0.6-0.4-0.9-0.9c-0.3-0.3-0.6-0.6-1-1c-0.4-0.4-0.7-0.8-1-1.2c-4.3-4.8-7.6-11.1-9.9-19.1c-2.2-7.9-3.4-17-3.6-27.3
		c0-5.7,0.3-10,0.8-13.1c0.5-3.1,1.5-5.8,2.8-8.2c2.1-3.7,5-4.1,8.7-1.1c3.3,2.7,5.8,7.2,7.5,13.6c1.7,6.4,2.6,14.1,2.6,23.2
		c0,6.1-0.3,11.5-0.9,16.1C578.6,814.2,577.6,818.7,576.3,823z"/>
	<path d="M282.7,888c2.2-1.6,3.8-2.9,4.7-3.7c0.9-0.8,1.3-1.5,1.2-1.9c-0.1-0.5-0.5-1-1.2-1.6c-0.9-0.8-1.8-0.8-2.6-0.1
		c-1.5,1.1-3.8,2.7-7,4.8c-3.2,2.1-6.4,4.3-9.7,6.5c-3.3,2.2-6.4,4.3-9.4,6.2c-3,1.9-4.9,3.1-6,3.6c-12.4,6.4-22.1,8.8-29.1,7.2
		l-3.3-1l-0.1-4.4c-0.2-4.9,0.3-9.9,1.6-15.2c1.3-5.3,3.2-10.5,5.8-15.7c0.5-1.1,1.1-2.1,1.6-3c0.6-0.9,1.2-1.9,2-3
		c0.7-1.1,1.8-2.5,3.1-4c1.3-1.5,2.9-3.5,4.8-5.8c2.1-2.5,3.8-4.6,5.1-6.1c1.3-1.5,2.4-2.8,3.4-3.7c1-0.9,1.9-1.7,2.7-2.3
		c0.8-0.6,1.8-1.4,3-2.3c6.8-4.6,13.1-7.4,18.8-8.2c2.6-0.3,4.7-0.4,6.3-0.2c1.6,0.2,3,0.9,4.2,1.9c1.5,1.2,2.4,3.2,2.6,6
		c0.2,2.7-0.3,5.4-1.5,8.1c-0.3,0.9-1,2-2,3.3c-1,1.3-2.1,2.7-3.2,4c-1.1,1.4-2.3,2.6-3.3,3.6c-1.1,1.1-1.8,1.7-2.2,1.9
		c-1.3,0.4-2.1,1.1-2.1,1.9c-0.1,0.8,0.4,1.5,1.4,2.2c0.9,0.8,2.1,0.7,3.6-0.2c0.8-0.5,1.8-1.3,3-2.5c1.2-1.2,2.4-2.5,3.6-4
		c1.2-1.5,2.4-2.9,3.3-4.4c1-1.4,1.7-2.7,2.3-3.8c1.8-4,2.4-7.7,1.8-11.3c-0.5-3.6-1.9-6.7-4.2-9.3c-2.3-2.7-5.3-4.7-9.1-6.1
		c-3.8-1.4-8.1-2-13-1.8c-15.3,0.8-29.5,9.1-42.5,24.7c-5.5,6.5-9.5,12.5-12,18c-2.5,5.5-4,11.4-4.5,17.8
		c-0.6,6.5,0.9,12.9,4.4,19.2c1.2,2,3,4,5.3,5.9c2.6,2.2,5.3,3.7,7.9,4.4s5.9,0.9,9.7,0.4c2.7-0.2,5.5-0.8,8.3-1.5
		c2.8-0.8,5.8-1.9,9-3.4c3.2-1.5,6.7-3.5,10.6-5.9c3.9-2.4,8.3-5.3,13.3-8.8C277.3,891.8,280.4,889.6,282.7,888z"/>
	<path d="M438,917.8c1.2,0.3,2.3,0.2,3.4-0.2c1.1-0.5,2.1-1.2,3-2.2c0.9-1,1.6-2.2,2-3.5c0.4-1.4,0.5-2.8,0.3-4.2
		c-0.4-3.5-1.9-6.1-4.4-7.7c-2.5-1.6-5.7-2-9.4-1.2c-1.6,0.3-3.4,1-5.4,2c-2,1-4,2.3-6,3.7c-2,1.5-4,3.1-6,4.9
		c-2,1.8-3.7,3.7-5.1,5.6c-1.6,2-3.4,4.6-5.3,7.7c-1.9,3.1-3.7,6.1-5.2,8.9c-0.9,1.8-1.4,2.3-1.3,1.7c0.1-0.6,0.9-3.4,2.4-8.4
		c0.9-2.8,2-6.2,3.3-10c1.3-3.8,2.4-7,3.4-9.5c1.8-5.1,2.9-8.5,3.2-10.3c0.3-1.8,0.1-3.2-0.7-4.1c-0.6-0.6-1.5-1.1-2.7-1.5
		c-1.2-0.4-2.5-0.7-3.8-0.8c-1.4-0.1-2.6-0.1-3.9,0.1c-1.2,0.2-2.1,0.6-2.8,1.2c-1.2,1.1-2.6,3.6-4.1,7.6c-1.5,4-3.7,10.4-6.4,19.3
		c-1.1,3.8-2.1,7.4-3,10.9c-0.3,0-0.6,0.1-1,0.2c-0.9,0.5-2.1,1.8-3.7,3.8c-0.8,1.1-2.5,3.2-5,6.3c-2.5,3.1-5.2,6.4-8.1,9.8
		c-5.6,6.8-10.2,12.3-13.8,16.5c-3.6,4.2-6.5,7.4-8.7,9.5c-2.2,2.2-4.1,3.6-5.5,4.1c-1.4,0.6-2.7,0.7-3.9,0.3
		c-3.9-1.1-5.2-6.3-3.8-15.3c0.2-1.1,0.4-2.1,0.7-3c0.3-0.9,0.6-2.1,1-3.3c0.4-1.3,1-2.8,1.8-4.5c0.8-1.7,1.8-3.9,3.1-6.6
		c0.8-1.8,1.8-3.9,2.9-6.3c1.1-2.4,2.3-5,3.7-7.7c1.3-2.7,2.7-5.4,4.1-8.3c1.4-2.8,2.6-5.4,3.8-7.9c2.4-4.8,4.3-8.7,5.8-11.8
		c1.5-3,2.6-5.5,3.3-7.5c0.7-2,1.2-3.6,1.3-5c0.1-1.3,0.2-2.7,0.1-4c-0.5-6-4.3-9.1-11.3-9.2c-5.1,0-10.5,1.5-16.2,4.6
		c-5.7,3.1-12.4,8-19.9,14.8c-3.8,3.3-7.3,6.5-10.2,9.6c-3,3.1-5.9,6.4-8.6,9.8l-3.7,4.7l1.1-4.4c1.1-3.8,2.4-7.6,3.8-11.6
		c1.5-3.9,3.1-7.7,4.8-11.4l3.1-6.7l5.1-0.9c7.3-0.9,14.6-3.4,21.7-7.4c7.1-4,13.2-9.1,18.3-15.1c1.4-1.5,2.5-3,3.4-4.4
		c0.9-1.4,2-3.5,3.2-6.2c0.8-1.6,1.3-2.9,1.7-3.9c0.4-1,0.7-1.8,0.9-2.5c0.2-0.7,0.4-1.4,0.3-2.1c0-0.7,0-1.6,0-2.7
		c0-2.8-0.5-5.1-1.4-6.9c-0.9-1.8-2.2-3.5-3.9-5.1c-2.8-2.6-6.1-4.1-10.2-4.4c-4-0.4-8.1,0.4-12.3,2.2
		c-16.4,6.7-31.5,26.8-45.1,60.2c-1.3,3.2-2.6,6.5-3.8,10c-1.3,3.5-2.5,6.9-3.6,10.3c-1.2,3.4-2.2,6.6-3.2,9.6c-1,3-1.8,5.7-2.6,8
		c-0.5,2.2-0.8,3.6-0.8,4.1c0,0.5,0.5,1.1,1.5,1.9c1.3,1.1,3.1,2.1,5.3,3c2.2,0.9,4,1.3,5.4,1.1l2.4,0.1l5.9-7.9
		c1.5-2.3,3.3-4.7,5.3-7.3c2-2.6,3.7-4.6,5-6c2.8-3.3,6-6.6,9.5-9.8c3.5-3.2,7-6.3,10.5-9.1c3.5-2.8,6.9-5.2,10-7.2
		c3.1-2,5.8-3.4,8-4.2c1.5-0.4,2.4-0.7,2.7-0.7c0.3,0,0.5,0.3,0.6,1c0.1,0.5,0,1.4-0.3,2.5c-0.3,1.1-0.9,2.9-1.9,5.3
		c-1,2.4-2.5,5.7-4.5,9.9c-1.9,4.2-4.5,9.8-7.8,16.9c-3.5,7.6-6.2,13.5-8.2,17.8c-2,4.3-3.4,7.7-4.3,10.2c-0.9,2.5-1.5,4.7-1.6,6.4
		c-0.2,1.7-0.2,3.9-0.2,6.3c0,1.5,0.2,3.2,0.6,5.1c0.4,1.9,0.9,3.7,1.4,5.5c0.5,1.7,1.2,3.3,1.9,4.7c0.7,1.4,1.5,2.4,2.2,3.1
		c1.2,1.2,3.1,2.4,5.5,3.4c2.4,1,4.3,1.5,5.6,1.5c2.1,0,4.1-0.3,6-0.9c1.9-0.6,4-2,6.5-4.3c2.5-2.2,5.6-5.5,9.3-9.8
		c3.7-4.3,8.5-10,14.5-17.2c3.6-4.3,6.5-7.8,8.7-10.7c1.5-2,2.8-3.6,3.9-5.1c-0.5,2.2-1,4.3-1.4,6.4c-1.6,7.7-2.8,15.1-3.4,22.2
		c-0.4,4.4-0.6,7.4-0.6,9.1c0,1.7,0.3,2.9,0.9,3.5c1,1.4,3.5,1.6,7.4,0.8c1.3-0.3,2.4-0.6,3.1-0.9c0.8-0.3,1.5-1,2.2-2.1
		c0.7-1.1,1.3-2.7,2-4.8c0.7-2.1,1.5-5.2,2.6-9.1c3.1-11.1,6.4-20.1,9.9-27.1c3.4-7,7.4-13,11.9-18.2c2.5-2.9,5.4-5.5,8.6-7.9
		c3.3-2.4,6.1-3.9,8.4-4.5c0.8-0.1,1.2-0.1,1.2,0.1c0,0.2-0.2,0.7-0.8,1.6c-1.1,2.3-1.2,4.8-0.2,7.5
		C434.2,915.6,435.8,917.2,438,917.8z M308.9,877.9c1.4-2.8,3.2-6,5.4-9.7c2.1-3.7,4.3-7.4,6.6-11.1c2.3-3.7,4.1-6.6,5.5-8.5
		c3.2-4,6.3-7.3,9.6-10c3.2-2.7,6.2-4.4,8.8-5.2c2.6-0.6,4.8-0.1,6.6,1.5c1.8,1.7,2.8,4.1,2.9,7.3c0.1,1.7-0.1,3-0.4,4
		c-0.3,1-1.1,2.9-2.4,5.8c-1.3,2.7-2.3,4.7-3.2,6.1s-2.1,2.8-3.6,4.4c-4.5,4.8-9.6,8.9-15.3,12.3c-5.7,3.4-11.4,5.6-17.2,6.8
		c-1.3,0.2-2.4,0.5-3.4,0.7c-1,0.2-1.6,0.3-1.7,0.2C306.8,882.1,307.4,880.7,308.9,877.9z"/>
	<path d="M462.5,895.2c2.1,0.1,3.8-0.3,5.2-1.2c3.1-2,5-4.7,5.8-8.1c0.8-3.4,0.1-6.4-2-9.2c-0.8-0.9-1.4-1.5-2.1-1.8
		c-0.6-0.3-1.7-0.7-3.3-1.2c-1.6-0.4-2.8-0.6-3.5-0.6c-0.8,0-1.6,0.2-2.6,0.7c-1.5,0.8-2.9,1.8-4.2,2.9c-0.7,0.8-1.3,1.5-1.5,2.2
		c-0.3,0.7-0.5,2-0.7,3.8c-0.6,4.1,0.7,7.7,3.8,10.7C458.7,894.4,460.4,895.1,462.5,895.2z"/>
	<path d="M803.5,882.8c-1.1-3.7-1.9-6-2.5-7c-0.6-1-1.4-1.3-2.3-0.8c-0.9,0.5-1.4,1-1.3,1.4c-0.1,0.4,0.1,1.6,0.7,3.7
		c0.6,2.1,1.2,4.6,1.9,7.6c2.9,10.8,5.2,20.2,6.7,28.4c1.6,8.1,2.4,14.6,2.6,19.4l0,3.3l-1.7-1.9c-1.2-1.4-2.3-2.6-3.2-3.8
		c-0.9-1.1-1.9-2.5-2.9-4.2c-1-1.6-2.2-3.7-3.6-6.1c-1.3-2.4-3-5.5-5-9.4c-2.2-4.2-4.4-8.5-6.6-12.7c-2.2-4.2-3.7-7.2-4.4-8.8
		c-1.3-2.7-2.1-4.4-2.6-5.1c-0.4-0.7-1.1-1.2-1.9-1.4c-2.6-1-5.6-0.1-9,2.7c-2.4,1.9-3.8,3.6-4.2,5c-0.4,1.4-0.4,3.8,0.2,7.2
		c0.7,3.9,1.3,8.3,1.7,13.3c0.5,5,0.7,9.4,0.7,13.3c-0.1,1.7-0.2,3.5-0.4,5.3c-0.2,1.8-0.4,3.4-0.6,4.9c-0.2,1.5-0.5,2.7-0.8,3.6
		c-0.3,0.9-0.6,1.3-0.8,1.1c-0.2-0.1-0.6-0.4-1.2-0.9c-0.6-0.5-1.3-1.1-1.9-1.8c-2.4-2.3-4.8-5.4-7.3-9.2c-2.5-3.8-4.9-8-7.1-12.5
		c-2.3-4.5-4.3-9-6-13.7c-1.8-4.6-3-8.9-3.8-12.7c-0.8-4.5-1.1-8.4-0.9-11.9c0.2-3.5,1-5.6,2.5-6.4c1.6-0.8,3.8-0.8,6.6,0
		c2.8,0.8,5.6,2.2,8.6,4.3c1.9,1.4,3.3,2.1,4.3,2.3c0.9,0.2,1.6-0.3,2.1-1.3c0.3-0.7,0.2-1.4-0.3-2.1c-0.5-0.7-1.8-1.8-3.7-3.1
		c-2.2-1.7-4.9-3.1-7.8-4.1c-3-1-5.8-1.5-8.5-1.5c-1.8,0.1-3.2,0.3-4.1,0.6c-0.9,0.3-2.3,1-4.2,1.9c-3,1.6-5.3,3.3-6.6,5.2
		c-1.4,1.9-2.6,4.9-3.8,9.1c-2.8,10-2.1,21.2,2.1,33.5c-0.1,0-0.1,0-0.2,0c-1.7-0.1-2.5,1.5-2.4,4.9c0.1,1.4,0.1,4.1,0,8.2
		c-0.1,4.1-0.2,8.4-0.3,13c-0.1,4.6-0.2,9-0.3,13.1c-0.1,4.1-0.2,7-0.4,8.6c-0.4,4.6-0.7,7.5-0.8,8.7c-0.1,1.2-0.4,1.6-0.8,1.3
		c-1.1-1.6-2.1-3.3-3-5.3c-0.9-2-1.9-4.5-2.8-7.5c-0.9-3-1.9-6.6-2.8-10.7c-0.9-4.2-2-9.2-3.3-15.3c-4.3-20.4-8-33.5-11.1-39.5
		c-1.5-2.5-3.1-4.7-4.9-6.7c-1.8-1.9-3.5-3.2-5.3-3.8c-1.9-0.6-4.3-0.5-7.2,0.2c-2.9,0.7-5.5,1.7-7.7,3.1c-5,3.1-8.7,10.1-11,20.9
		c-2.3,10.8-2.9,24-1.8,39.5l0.5,8.5l-1.9-7.4c-1.6-6.7-2.8-11.9-3.7-15.6c-0.9-3.7-1.6-6.5-2.1-8.3c-0.5-1.8-1-3-1.4-3.7
		c-0.4-0.7-0.9-1.3-1.4-1.9c-2.6-3-6.1-3.9-10.7-2.6c-5.6,1.6-9.6,6.5-11.9,14.7c-2.3,8.2-2.9,19.2-1.7,33l0.8,7.9l-1.9-4.1
		c-0.5-1.3-1.1-3.1-1.8-5.7c-0.7-2.5-1.5-5.5-2.4-9.1c-0.9-3.5-1.9-7.4-2.8-11.7c-1-4.2-1.9-8.7-3-13.4c-0.9-4.4-1.7-7.9-2.2-10.4
		c-0.6-2.6-1.1-4.6-1.6-6.1c-0.5-1.5-1-2.5-1.6-3.2c-0.6-0.6-1.2-1.1-2-1.5c-1.1-0.6-2-0.9-2.7-1c-0.7,0-1.9,0.1-3.5,0.4
		c-1,0.3-2.1,0.6-3.3,1.1c-1.2,0.4-2.1,0.8-2.8,1.1c-0.6,0.5-1.1,0.9-1.5,1.3c-0.3,0.4-0.6,1.1-0.7,2.2c-0.1,1,0,2.5,0.3,4.3
		c0.3,1.9,0.8,4.5,1.4,7.9c0.5,3,1.3,6.8,2.4,11.4c0.9,3.8,1.9,7.6,2.9,11.5c-0.3,0.4-0.4,0.8-0.5,1.4c-0.1,0.3-0.1,1.6-0.1,3.9
		c0,2.3,0.1,4.8,0.2,7.7c0.3,12-0.1,22.4-1.1,31.1c-1,8.7-2.8,15-5.2,18.8c-0.8,1.6-1.6,2.2-2.2,1.7c-0.8-0.5-1.9-1.9-3.1-4.2
		s-2.5-5.3-3.8-8.8c-0.5-1.4-1-2.8-1.4-4c-0.4-1.2-0.8-3.1-1.3-5.6c-0.5-2.5-1-6-1.7-10.6c-0.7-4.6-1.6-10.9-2.9-19.1
		c-0.7-4.6-1.4-9.1-2-13.6c-0.7-4.5-1.3-8.7-1.7-12.4s-0.9-7-1.2-9.8c-0.3-2.7-0.6-4.7-0.8-5.9l-0.6-8.3l4-0.6
		c8.3-1.2,13.8-3.9,16.5-8.1c1.6-2.6,1.3-5-0.8-6.9c-0.9-0.9-2-1.3-3.4-1.2c-1.3,0.1-2.3,0.7-2.9,1.7c-0.6,0.9-0.7,2.2-0.3,4.1
		l0.8,2.6l-3,1.1c-1,0.5-2.1,0.8-3.5,1.1c-1.3,0.3-2.5,0.5-3.6,0.7c-1.1,0.2-2.1,0.2-2.9,0.2c-0.8,0-1.3-0.2-1.3-0.5
		c0-0.1-0.1-1-0.3-2.5c-0.1-1.5-0.2-3.2-0.2-5.2c-0.4-5.7-1.1-9.5-2.1-11.5c-1-2-2.6-2.8-4.8-2.5c-1.6,0.2-3.3,0.9-5,1.9
		c-1.7,1-2.9,2.1-3.5,3.2c-0.6,1-0.9,2-0.9,2.9c0,0.9,0.2,3.1,0.7,6.5c0.3,1.9,0.5,3.6,0.6,5c0.1,1.4,0.1,2.1,0,2.2
		c-0.1,0-1,0-2.6-0.2c-1.6-0.1-3.6-0.4-5.9-0.8c-12.6-1.7-19.9,0-21.7,5.1c-0.1,0.4-0.2,0.8-0.3,1.1c-0.7-0.2-1.4-0.3-2.2-0.3
		c-2.7-0.2-5.4,0.2-8,1.3c-3.6,1.3-7,3.8-10.3,7.4c-3.3,3.6-5.7,7.6-7.2,11.8c-0.6,1.9-1.1,4.2-1.3,6.9c-0.2,2.7-0.2,4.9,0.1,6.8
		c0.3,1.7,0.6,3.1,1,4.4c0.1,0.2,0.2,0.4,0.3,0.7c-0.2,0-0.5,0-0.7,0.1c-0.5,0.2-1,0.8-1.4,1.7c-0.5,0.9-1.2,2.7-2.1,5.4
		c-1.4,4.2-3,8.6-5,13.5c-2,4.8-4.1,9.5-6.3,14c-2.2,4.5-4.3,8.7-6.4,12.5c-2.1,3.8-4,6.8-5.6,8.9c-2,2.7-3.6,4.6-4.9,5.6
		c-1.3,1.1-2.8,1.8-4.5,2.3l-3.1,1l-1-2c-1.2-1.9-2-5-2.3-9.4c-0.4-4.4-0.3-9.7,0.2-16c0.2-1.9,0.8-5.6,1.8-11.1
		c1-5.4,2.1-11.4,3.4-17.9c1.3-6.5,2.7-13.1,4.1-19.7c1.4-6.6,2.6-12,3.7-16.2c0.7-2.9,1.2-5.3,1.6-7.2c0.4-1.9,0.6-3.5,0.5-4.7
		c-0.1-1.2-0.4-2.2-1-2.9c-0.6-0.7-1.3-1.3-2.3-1.8c-1.5-0.9-3.4-1.2-5.7-1c-1.4,0.1-2.5,0.2-3.4,0.3c-0.9,0.2-1.6,0.5-2.1,1.1
		c-0.6,0.6-1.1,1.4-1.5,2.6c-0.4,1.1-1,2.6-1.6,4.5c-1.4,4.3-2.8,9.6-4.3,15.9c-1.5,6.3-2.8,12.6-4.1,19c-1.2,6.4-2.3,12.5-3.1,18.2
		c-0.9,5.8-1.4,10.3-1.5,13.6c-0.9,17.8,2.7,29.7,10.7,35.8c1.8,1.2,3.8,2.1,6,2.7c2.3,0.6,4.3,0.6,6.2,0.2c1.6-0.5,3.5-1.5,5.6-3.1
		c2.1-1.6,4-3.5,5.8-5.8c1.8-2.4,4.1-6.1,6.9-11.2c2.8-5,5.5-10.4,8.1-16.2c2.6-5.8,5-11.3,7-16.5c2.1-5.2,3.3-9.2,3.8-11.8
		c0.1-0.4,0.1-0.8,0.2-1.1c0,0,0,0.1,0,0.1c0.9,1.4,2.1,3.1,3.4,4.9c1.4,1.8,3.2,4,5.3,6.6c2.3,2.6,4.2,4.9,5.6,6.7
		c1.5,1.8,2.6,3.4,3.4,4.9c0.8,1.4,1.5,2.8,2.1,4c0.5,1.3,1,2.7,1.3,4.2c0.6,2.9,0.8,4.8,0.4,5.6c-0.3,0.8-1.6,1.8-3.8,3.1
		c-2.7,1.4-5.4,3.2-8.1,5.6c-2.7,2.4-4.8,4.7-6.2,7.1c-0.9,1.6-1.6,2.8-2,3.9c-0.4,1-0.7,2.5-0.9,4.4c-0.2,1.8-0.2,3.1-0.1,4
		c0.1,0.9,0.5,2,1.1,3.3c1.5,3.2,3.7,5.3,6.5,6.5c2.5,1,5.2,1.1,8.2,0.3c3-0.8,5.9-2.4,8.7-4.9c3.8-3.2,6.7-7.3,8.9-12.2
		c2.1-4.9,3.4-10.3,3.7-16.3l0.2-6.3l3.7-2.8c2-1.5,4-3.2,6.1-5.4c2.1-2.1,4-4.4,5.9-6.7c1.8-2.4,3.4-4.8,4.8-7.2
		c1.4-2.4,2.4-4.6,3-6.5c1.3-3.5,1.1-5.3-0.6-5.5c-0.9-0.1-1.6,0.2-2.1,0.8c-0.5,0.6-1.3,2-2.2,4.2c-2.5,5-5.4,9.7-8.9,14
		c-0.9,1-1.8,2-2.9,3.1c-1.1,1.1-2.1,2.1-3.1,3.1c-1,1-1.9,1.8-2.7,2.4c-0.8,0.7-1.3,1-1.4,1c-0.3,0-0.7-0.9-1.1-2.6
		c-0.8-4-2.4-8.1-4.9-12.4c-2.5-4.3-5.5-8.3-9-12l-2.4-2.5l3-2.8c1.8-1.6,3.8-3.9,5.9-6.9c2.1-3,3.7-5.7,4.7-8.2
		c0.4-1.2,0.8-2.5,1.1-4.1c0.3-1.5,0.5-3.1,0.7-4.5c0.5-4.8-0.2-8.6-2.1-11.5c0.2-0.2,0.4-0.4,0.6-0.7c0.6-0.8,1-1.5,1.2-2.1
		c0.1-0.6,0.1-1.2-0.2-1.9c-0.4-0.7-0.5-1.2-0.3-1.4c0.2-0.3,0.9-0.5,2.1-0.6c0.6-0.1,2,0,4.3,0.1c2.3,0.2,4.8,0.5,7.4,0.8l9.2,1.1
		l0.8,8.5c1.3,12.9,2.5,23.9,3.7,32.8c1.1,8.9,2.2,16.4,3.4,22.6c1.1,6.2,2.3,11.4,3.5,15.6c1.2,4.2,2.5,8.2,4.2,11.8
		c1.9,4.4,4.2,8.2,6.9,11.3c2.7,3.1,5.5,5.2,8.4,6.1c4.5,1.6,8.2-0.1,11.3-5c3-4.9,5.1-12.7,6-23.2c0.3-2.9,0.6-6.6,0.7-11.1
		c0.2-4.5,0.2-8.9,0.2-13.3c0-0.8,0-1.6,0-2.3c0.1,0.4,0.2,0.8,0.4,1.3c1.3,4.4,2.5,7.9,3.5,10.4c3.1,7.5,5.9,13.4,8.6,17.7
		c2.7,4.3,5,6.6,7,7c0.8,0.2,1.5,0.3,2.1,0.1c0.6-0.2,1.6-0.8,2.9-2c4-2.8,5.6-6.4,4.9-10.7c-4.8-28-4.8-46.5-0.1-55.6
		c0.8-1.5,1.4-2.3,1.6-2.5c0.2-0.2,0.6-0.2,1,0.2c0.4,0.2,1.1,2.1,2.2,5.6c1.1,3.5,2.4,8.3,4.2,14.3c1.4,5,2.6,9.2,3.5,12.4
		s1.8,5.9,2.6,7.9c0.8,2,1.6,3.6,2.3,4.8c0.7,1.2,1.6,2.3,2.7,3.4l2,2.2l4.2-1.6c1.1-0.5,2.2-0.9,3.1-1.2c1-0.4,1.6-0.6,1.9-0.9
		c1-0.8,1.6-2.1,1.8-4.1c0.1-2,0-5.4-0.4-10.2c-1.3-11.1-1.9-20.7-1.8-28.8c0.1-8.1,0.8-15.7,2.2-22.7c1.2-6.2,2.8-10.9,4.7-14.1
		c2-3.2,4.1-4.5,6.2-3.9c1.2,0.4,2.3,1.4,3.3,2.8c1,1.4,2.1,3.8,3.3,7c1.1,3.2,2.4,7.5,3.9,12.9c1.4,5.3,3.1,12.2,5,20.5
		c2.1,9,4,16.6,5.7,22.6s3.4,11,5,14.9c1.6,3.9,3.3,6.9,5,9.1c1.7,2.2,3.6,3.7,5.7,4.7c3,1.3,5.5,0.9,7.6-1.2c1-0.9,1.8-2.3,2.6-4.1
		c0.7-1.8,1.3-4.3,1.8-7.5c0.5-3.2,0.9-7.1,1.1-11.7c0.2-4.6,0.4-10.3,0.6-16.8c0.1-6.4,0.1-11.5,0.2-15.4c0.1-3.8,0-6.7-0.2-8.8
		c1.3,2.9,2.6,5.8,4.2,8.5c2.5,4.2,5.1,7.9,8.1,11.1c2.9,3.2,5.9,5.8,9,7.7c3,1.9,6,3,9,3.1c2,0.3,4.2-0.1,6.4-1.2
		c2.3-1.1,4.1-2.6,5.5-4.5c3.7-5.1,5.2-14.5,4.5-28.2l-0.3-5.4l3.7,7.2c4.8,9.1,9.8,16.4,14.9,21.8c5.2,5.4,9.9,8.2,14.3,8.5
		c3.9,0.3,6.7-1.4,8.4-5.2c1.9-3.8,2-11.3,0.4-22.5C811.3,912.5,808.2,898.9,803.5,882.8z M516.2,998.5c-0.3,1-0.6,2-1,3.2
		c-2.1,7.4-5.7,13.7-10.7,18.7c-0.5,0.6-1,1-1.4,1.4c-0.4,0.4-0.7,0.6-0.9,0.6c-0.7-0.1-1.3-0.9-1.7-2.4c-0.4-1.5-0.5-3.2-0.3-5
		c0.4-4.2,2.8-8.2,7.1-12.1c0.7-0.5,1.5-1.2,2.6-2c1.1-0.8,2.1-1.5,3-2.2c1-0.7,1.8-1.2,2.5-1.5c0.7-0.4,1.1-0.5,1-0.3
		C516.6,997,516.5,997.5,516.2,998.5z M524,933.1c-1,2.5-2.4,5-4.1,7.7c-1.7,2.7-3.3,4.8-4.8,6.3c-1.9,1.9-3.2,2.9-3.9,3
		c-0.8,0.1-1.7-0.6-2.9-2.1c-0.7-0.8-1.3-1.8-1.8-2.9c-0.6-1.1-1-2.1-1.4-3.1c-0.6-1.6-0.9-2.9-1-3.9c0-1.1,0.1-2.8,0.3-5.4
		c0.3-2.5,0.5-4.3,0.8-5.3c0.3-1,0.7-2.2,1.5-3.5c2.8-4.4,6.2-7,9.9-7.8c3.8-0.8,6.5,0.4,8.1,3.8c0.6,1.6,0.9,3.6,0.8,6.2
		C525.5,928.6,525,931,524,933.1z"/>
	<path d="M861.2,874.3l-4.5-4.4l0.4-4.6c0.2-2.4,0.3-5.1,0.1-8.1c-0.2-3-0.5-5.9-1-8.9c-0.5-2.9-1.2-5.7-2.1-8.4
		c-0.9-2.6-1.8-4.8-2.7-6.6c-1.7-3.3-3.2-4.4-4.4-3.3c-0.7,0.6-0.9,1.3-0.8,2.1s0.6,2.3,1.6,4.5c2,5.2,3.5,10.5,4.3,16
		c0.1,1.3,0.2,2.7,0.3,4.2c0.1,1.5,0.1,3,0.1,4.4c0,1.4,0,2.6,0,3.6c-0.1,1.1-0.1,1.6-0.3,1.7c-0.2,0.2-1.1-0.1-2.6-0.9
		c-3.5-2.1-7.7-3.7-12.5-4.8c-4.9-1.1-9.8-1.5-14.9-1.4l-3.5,0.1l-0.1-4.1c0-2.4-0.4-5.4-1.2-9c-0.8-3.6-1.8-6.6-2.9-9
		c-0.6-1.1-1.3-2.3-2.3-3.5c-0.9-1.3-1.9-2.5-2.9-3.6c-4.3-4.8-8.7-6.8-13.3-6.2c-2.4,0.5-4.5,1.7-6.5,3.5c-2,1.8-3.4,4.1-4.4,6.8
		c-1.5,3.5-2,7.7-1.5,12.6c0.5,4.9,1.7,9.3,3.9,13.2c1,1.7,2.4,3.6,4.2,5.6c1.8,2,3.5,3.5,5.1,4.5c1.4,0.9,2.7,1.7,3.9,2.2
		c1.2,0.5,2.6,1,4.3,1.3c1.7,0.3,3.7,0.6,5.9,0.7c2.3,0.2,5.1,0.4,8.5,0.6c3.5,0.1,6.4,0.2,8.7,0.3c2.3,0.1,4.3,0.4,5.9,0.7
		c1.6,0.4,3.1,0.8,4.4,1.2c1.3,0.4,2.6,1.1,3.9,1.9c2.6,1.5,4,2.7,4.4,3.4c0.4,0.8,0.3,2.4-0.3,4.9c-0.8,2.9-1.2,6.2-1.3,9.8
		c-0.1,3.6,0.3,6.7,1.1,9.4c0.5,1.7,1,3.1,1.5,4.1c0.5,1,1.4,2.2,2.6,3.6c1.2,1.3,2.2,2.3,2.9,2.8c0.8,0.5,1.8,1,3.2,1.4
		c3.3,1,6.4,0.9,9.2-0.4c2.4-1.1,4.3-3.1,5.7-5.9c1.4-2.8,2.2-6,2.3-9.7c0.2-5-0.8-9.9-3-14.8C868.6,883.1,865.4,878.5,861.2,874.3z
		 M813.5,859.5c-0.5,0.6-1.6,0.9-3.5,0.8c-1.1-0.1-2.2-0.3-3.4-0.6c-1.2-0.3-2.3-0.7-3.2-1.1c-1.6-0.6-2.7-1.3-3.5-1.9
		c-0.8-0.7-2.1-2-3.7-3.9c-1.7-1.9-2.8-3.3-3.4-4.2c-0.6-0.9-1.1-2-1.6-3.4c-1.3-5-1-9.2,0.9-12.6c1.9-3.3,4.7-4.5,8.2-3.4
		c1.6,0.6,3.3,1.8,5.1,3.5c1.9,1.7,3.3,3.7,4.2,5.9c1.1,2.4,2.1,5.1,3,8.2c0.8,3.1,1.3,5.7,1.4,7.8
		C814.1,857.3,813.9,858.9,813.5,859.5z M860.8,914.9c-0.6,0.5-1.5,0.4-2.9-0.4c-1.4-0.8-2.7-1.8-3.9-3.2c-2.8-3.1-4.2-7.6-4.2-13.4
		c0-0.8,0.1-1.9,0.3-3.2c0.1-1.3,0.3-2.5,0.4-3.7c0.2-1.2,0.4-2.1,0.6-2.9c0.2-0.8,0.4-1.1,0.5-1c0.1,0.1,0.4,0.6,1,1.4
		c0.5,0.8,1.1,1.8,1.7,2.9c4.1,6.6,6.3,13.4,6.6,20.5c0.1,0.7,0.1,1.4,0.1,2C861,914.5,860.9,914.8,860.8,914.9z"/>
	<path d="M327.3,645.1c2.4-3,5.8-4.5,10-4.7c3.9,0,7.1,1.8,9.6,5.4c1.8,2.6,4.1,3.9,7,3.9c2.4,0,4.6-0.9,6.5-2.7
		c1.9-1.8,2.9-3.9,2.9-6.3c0-1.9-0.6-3.6-1.7-5.1c-2.9-4.2-6.4-7.4-10.5-9.7c-4.1-2.2-8.7-3.4-13.8-3.4c-6,0-11.1,1.3-15.5,3.9
		c-4.4,2.6-8,6.1-10.8,10.3c-2.9,4.3-5,9.1-6.4,14.3c-1.4,5.3-2.1,10.6-2.1,16.1c0,4.9,0.6,9.9,1.9,15c1.3,5.1,3.3,9.7,5.9,13.9
		c2.7,4.2,6.1,7.6,10.2,10.3c4.1,2.6,9.1,3.9,14.8,3.9c4.3,0,8.2-0.9,11.7-2.6c3.4-1.8,6.4-4.2,8.9-7.2c2.5-3,4.4-6.5,5.9-10.4
		c0.4-1.1,0.6-2.3,0.6-3.4c0-2.5-1-4.6-2.9-6.2s-4.1-2.5-6.5-2.5c-3.8,0-6.5,1.9-8.1,5.8c-0.5,1.5-1.2,2.9-2.1,4.2
		c-0.8,1.3-1.9,2.3-3.1,3.1c-1.2,0.8-2.7,1.2-4.4,1.2c-2.9,0-5.3-0.9-7.2-2.6s-3.4-3.9-4.5-6.6c-1.1-2.6-1.9-5.4-2.4-8.2
		c-0.5-2.9-0.7-5.4-0.7-7.7c0-3.4,0.5-7.2,1.5-11.4C323.1,651.6,324.9,648,327.3,645.1z"/>
	<path d="M376.9,700.6c2.6,3,5.6,5.3,9.1,7c3.5,1.7,7.6,2.6,12.3,2.6c4.8,0,9.1-0.9,12.9-2.8c3.8-1.9,7-4.3,9.8-7.5
		c2.8-3.1,5.1-6.7,6.9-10.7c1.8-4,3.2-8.2,4-12.5c0.9-4.4,1.3-8.6,1.3-12.8c0-6.6-1.1-13.1-3.4-19.5s-5.8-11.6-10.5-15.7
		s-10.9-6.2-18.4-6.4c-7.8,0.2-14.4,2.4-19.5,6.8c-5.2,4.4-9.1,9.9-11.6,16.7c-2.6,6.8-3.9,13.7-3.9,20.6c0,4,0.4,8,1.2,12.1
		c0.8,4.1,2,8.1,3.6,11.8C372.3,694.3,374.4,697.6,376.9,700.6z M384.7,658.6c0.6-3,1.5-5.9,2.9-8.7c1.3-2.8,3.1-5,5.2-6.9
		c2.2-1.8,4.8-2.7,7.9-2.7c2.9,0,5.2,0.8,7.1,2.4c1.9,1.6,3.4,3.6,4.4,6c1.1,2.4,1.8,4.9,2.3,7.6c0.4,2.7,0.7,5.1,0.7,7.4
		c0,2.6-0.3,5.5-0.9,8.7c-0.6,3.2-1.5,6.3-2.8,9.4c-1.3,3-3.1,5.5-5.2,7.6c-2.2,2-4.9,3-8.1,3c-2.9,0-5.3-0.9-7.2-2.7
		c-1.9-1.8-3.3-4-4.4-6.7c-1-2.7-1.8-5.5-2.2-8.4c-0.4-2.9-0.6-5.5-0.6-7.7C383.8,664.4,384.1,661.6,384.7,658.6z"/>
	<path d="M467.8,681.7c1.4,0.9,3,1.3,4.7,1.3c1.8,0,3.3-0.5,4.7-1.5c1.4-1,2.5-2.2,3.4-3.8l8.3-14.8l0.7,38.5
		c0.1,2.7,0.9,4.8,2.6,6.4c1.7,1.6,3.7,2.4,6.3,2.4c2.6,0,4.8-0.8,6.5-2.4c1.7-1.6,2.6-3.7,2.6-6.3l-1.4-69.9
		c-0.1-2.6-1-4.8-2.7-6.5c-1.7-1.7-3.8-2.6-6.4-2.6c-3.3,0-5.9,1.5-7.7,4.6l-16.4,27.7l-15-27.4c-2-3.3-4.7-4.9-8.1-4.9
		c-2.5,0-4.6,0.9-6.3,2.7c-1.7,1.8-2.6,3.9-2.6,6.3l1.2,70.1c0.1,2.7,0.9,4.8,2.6,6.3c1.6,1.6,3.7,2.4,6.3,2.4
		c2.6,0,4.8-0.8,6.5-2.4c1.7-1.6,2.6-3.7,2.6-6.3l-0.6-33.3l5.1,9.9C465.3,679.6,466.4,680.8,467.8,681.7z"/>
	<path d="M564,637.8c1.7-1.7,2.5-3.9,2.5-6.5c0-2.6-0.8-4.7-2.5-6.4c-1.7-1.7-3.8-2.5-6.5-2.5h-29.5c-2.5,0-4.5,0.9-6.2,2.7
		c-1.7,1.8-2.6,3.9-2.6,6.3c0,2.8,0.2,10.5,0.6,23.2c0.5,15.4,0.8,30.7,0.9,46.1c0,2.5,0.8,4.8,2.5,6.7c1.7,1.9,3.8,2.9,6.5,2.9
		h23.4c2.7,0,4.8-0.9,6.4-2.6c1.6-1.7,2.5-3.9,2.5-6.4c0-2.6-0.8-4.8-2.5-6.5c-1.6-1.7-3.8-2.6-6.4-2.6h-14.6l-0.3-13h10.7
		c2.7,0,4.8-0.9,6.5-2.6c1.7-1.7,2.5-3.9,2.5-6.5s-0.8-4.8-2.5-6.5c-1.7-1.7-3.8-2.5-6.5-2.5h-11l-0.4-20.7h20.2
		C560.2,640.4,562.4,639.6,564,637.8z"/>
	<path d="M619.7,631.1c-0.1-2.7-1-4.8-2.7-6.3c-1.7-1.6-3.7-2.4-6.3-2.4c-2.7,0-4.8,0.8-6.5,2.5c-1.7,1.7-2.5,3.8-2.5,6.5l1.5,70.2
		c0.1,2.7,1,4.8,2.7,6.3c1.7,1.6,3.7,2.4,6.3,2.4c2.6,0,4.7-0.8,6.5-2.5c1.7-1.7,2.6-3.8,2.6-6.4l-0.5-22.1h19l0.4,22.4
		c0.1,2.7,1,4.8,2.7,6.3c1.7,1.6,3.8,2.4,6.3,2.4c2.7,0,4.8-0.8,6.5-2.5c1.7-1.7,2.5-3.9,2.5-6.5c0-7.6-0.1-15.2-0.3-22.8
		c-0.2-7.7-0.4-15.5-0.6-23.3c-0.2-7.9-0.4-15.8-0.6-23.9c-0.1-2.7-1-4.8-2.7-6.3c-1.7-1.6-3.8-2.4-6.3-2.4c-2.6,0-4.7,0.8-6.4,2.4
		c-1.7,1.6-2.5,3.8-2.5,6.4l0.7,29.9h-19L619.7,631.1z"/>
	<path d="M718.6,628.8c-4.8-4.1-10.9-6.2-18.4-6.4c-7.8,0.2-14.4,2.4-19.5,6.8c-5.2,4.4-9.1,9.9-11.6,16.7
		c-2.6,6.8-3.9,13.7-3.9,20.6c0,4,0.4,8,1.2,12.1c0.8,4.1,2,8.1,3.6,11.8c1.6,3.8,3.7,7.1,6.3,10.1c2.6,3,5.6,5.3,9.1,7
		c3.5,1.7,7.6,2.6,12.3,2.6c4.8,0,9.1-0.9,12.9-2.8c3.8-1.9,7-4.3,9.8-7.5c2.8-3.1,5.1-6.7,6.9-10.7c1.8-4,3.2-8.2,4-12.5
		s1.3-8.6,1.3-12.8c0-6.6-1.1-13.1-3.4-19.5S723.3,632.9,718.6,628.8z M713.6,672.3c-0.6,3.2-1.5,6.3-2.8,9.4
		c-1.3,3-3.1,5.5-5.2,7.6c-2.2,2-4.9,3-8.1,3c-2.9,0-5.3-0.9-7.2-2.7c-1.9-1.8-3.3-4-4.4-6.7c-1-2.7-1.8-5.5-2.2-8.4
		c-0.4-2.9-0.6-5.5-0.6-7.7c0-2.4,0.3-5.2,0.9-8.2c0.6-3,1.5-5.9,2.9-8.7c1.3-2.8,3.1-5,5.2-6.9c2.2-1.8,4.8-2.7,7.9-2.7
		c2.9,0,5.2,0.8,7.1,2.4c1.9,1.6,3.4,3.6,4.4,6c1.1,2.4,1.8,4.9,2.3,7.6c0.4,2.7,0.7,5.1,0.7,7.4
		C714.5,666.2,714.2,669.1,713.6,672.3z"/>
	<path d="M767.1,681.7c1.4,0.9,3,1.3,4.7,1.3c1.8,0,3.3-0.5,4.7-1.5c1.4-1,2.5-2.2,3.4-3.8l8.3-14.8l0.7,38.5
		c0.1,2.7,0.9,4.8,2.6,6.4c1.7,1.6,3.7,2.4,6.3,2.4c2.6,0,4.8-0.8,6.5-2.4c1.7-1.6,2.6-3.7,2.6-6.3l-1.4-69.9
		c-0.1-2.6-1-4.8-2.7-6.5c-1.7-1.7-3.8-2.6-6.4-2.6c-3.3,0-5.9,1.5-7.7,4.6l-16.4,27.7l-15-27.4c-2-3.3-4.7-4.9-8.1-4.9
		c-2.5,0-4.6,0.9-6.3,2.7c-1.7,1.8-2.6,3.9-2.6,6.3l1.2,70.1c0.1,2.7,0.9,4.8,2.6,6.3c1.6,1.6,3.7,2.4,6.3,2.4
		c2.6,0,4.8-0.8,6.5-2.4c1.7-1.6,2.6-3.7,2.6-6.3l-0.6-33.3l5.1,9.9C764.5,679.6,765.6,680.8,767.1,681.7z"/>
	<path d="M863.3,637.8c1.7-1.7,2.5-3.9,2.5-6.5c0-2.6-0.8-4.7-2.5-6.4c-1.7-1.7-3.8-2.5-6.5-2.5h-29.5c-2.5,0-4.5,0.9-6.2,2.7
		c-1.7,1.8-2.6,3.9-2.6,6.3c0,2.8,0.2,10.5,0.6,23.2c0.5,15.4,0.8,30.7,0.9,46.1c0,2.5,0.8,4.8,2.5,6.7c1.7,1.9,3.8,2.9,6.5,2.9
		h23.4c2.7,0,4.8-0.9,6.4-2.6c1.6-1.7,2.5-3.9,2.5-6.4c0-2.6-0.8-4.8-2.5-6.5c-1.6-1.7-3.8-2.6-6.4-2.6h-14.6l-0.3-13h10.7
		c2.7,0,4.8-0.9,6.5-2.6c1.7-1.7,2.5-3.9,2.5-6.5s-0.8-4.8-2.5-6.5c-1.7-1.7-3.8-2.5-6.5-2.5h-11l-0.4-20.7h20.2
		C859.5,640.4,861.6,639.6,863.3,637.8z"/>
	<path d="M403,822c-4.1,1.2-7.9,2.8-11.2,5.6c-3.1,2.6-4.9,5.8-4.3,10c0.6,4.4,3.8,7.9,8.3,8.1c3.1,0.1,6.4-0.2,9.4-1.1
		c10.8-3.6,19.7-10.1,26.9-18.8c1.4-1.6,2.3-3.6,3.6-5.8c5.7,1,11.7,2.1,18,3.2c0.7-1.5,1.4-2.9,2.3-4.9c-6.6-1.6-12.9-3.2-19.4-4.8
		c0.1-2.3,0-4.2,0.2-6c0.6-7.8,0-15.6-2.1-23.1c-0.9-3.4-2.5-6.7-4.4-9.7c-2.2-3.4-5.7-5.1-9.9-4.2c-4.4,1-7.1,3.7-8.2,8.1
		c-0.9,3.5-0.7,6.9,0.5,10.2c1.7,4.5,3.8,8.9,6,13.2c1,2,2.3,3.9,3.5,5.8c-0.2,0.3-0.5,0.6-0.7,0.9c-8.4-3.3-16.8-6.6-25.2-9.9
		c-2.8-1.1-3.8-3.2-3.3-6.1c0.7-4.5,1.2-9.1,1.9-13.6c0.9-6,0.2-11.7-2.2-17.2c-0.8-1.9-2.1-3.8-3.6-5.3c-4.1-3.9-9.2-3.3-12.5,1.4
		c-2.6,3.7-3.8,7.9-3.4,12.3c0.4,4.1,1.6,8.2,2.6,12.3c0.6,2.3,1.6,4.5,2.7,7.5c-1.6-0.8-2.7-1.2-3.6-1.7c-4.9-2.7-9.7-5.5-14.7-8.2
		c-2.8-1.5-3.5-3.7-2.7-6.7c1.7-6.6,2.6-13.3,2.6-20c0-5.2-1-10.1-3-14.9c-1.4-3.2-3.7-5.1-7.2-5.5c-3.7-0.5-6.4,1.2-8.5,4.1
		c-1.6,2.4-2.4,5-2.5,7.9c-0.3,6,1.2,11.6,3,17.2c0.5,1.5,0.9,2.9,1.6,4.9c-1.1-0.6-1.9-0.9-2.5-1.4c-1.6-1.3-3.1-2.6-4.7-3.9
		c-2.8-2.3-4.8-5-6.2-8.5c-3.4-8.3-8.6-15.4-15.5-21c-2.5-2.1-5.4-3.7-8.4-5.3c-3.5-1.8-7.2-2.3-10.4,0.5c-3.4,2.9-4.4,6.8-3.6,11.1
		c0.6,3.5,2.7,6.3,5.2,8.8c5.2,5.2,11.6,8.7,18.3,11.5c2.7,1.2,5.5,2,8.5,1.9c0.9,0,2.1,0.2,2.9,0.7c5.1,4.1,10.1,8.4,15.2,12.6
		c-0.1,0.3-0.3,0.5-0.4,0.8c-3.9-0.2-7.8-0.7-11.8-0.7c-4.2,0-8.4-0.1-12.5,0.5c-4.6,0.7-8,3.2-9,8.2c-0.7,3.5,0.2,6.5,3.4,8.1
		c2.5,1.3,5.5,2.4,8.3,2.6c10.1,0.6,19.7-1.7,28.7-6.6c1.8-1,3.3-2.4,5.3-3.8c6.9,4.2,13.9,8.5,20.9,12.8c-0.1,0.3-0.1,0.6-0.2,0.8
		c-1.8,0.2-3.6,0.3-5.3,0.5c-4.7,0.4-9.4,0.5-14.1,1.3c-2.9,0.5-6,1.6-8.5,3.2c-6.3,4.1-6,10.9,0.5,14.8c4.2,2.6,8.8,3.2,13.6,2.4
		c10.5-1.7,19.6-6.3,27.2-13.8c1.4-1.4,2.6-2.1,4.6-1.3c10,4,20.1,8,30.2,12.7c-1.4,0.4-2.8,0.9-4.2,1.2
		C413.6,819.3,408.3,820.5,403,822z"/>
	<path d="M282.6,673.5c-0.3-1.6-0.2-3.3-0.4-4.9c-0.5-3-2.1-3.6-4.5-1.7c-0.8,0.6-1.5,1.4-2.2,2.1c-5.1,5.7-8.6,12-8.3,19.9
		c0,0.3-0.2,0.7-0.4,1.6c-3.7-7-6.8-13.6-8.6-20.8c-0.4-1.7,0-3.5,0.1-5.3c0.8-9.2-1.3-17.7-6.4-25.4c-0.8-1.2-1.6-2.3-2.6-3.3
		c-2.6-2.8-4.1-2.6-6.3,0.6c-2.2,3.3-3.1,7-3.1,10.9c0,4.5,1.1,8.8,3.4,12.8c1.4,2.3,2.8,4.6,4.4,6.7c2.8,3.8,5.2,7.8,6.7,12.3
		c1.2,3.6,3.5,6.8,5.3,10.1c0.5,0.9,0.9,1.8,1.6,3.4c-2.1-0.9-3.6-1.6-5.1-2.2c-6.1-2.5-12.4-3.8-19-2.9c-1.4,0.2-2.8,0.4-4.1,0.8
		c-0.9,0.3-2.3,1-2.3,1.5c0,1,0.7,2.1,1.5,2.8c9.6,8.3,20.7,13.4,33.3,15.1c2.3,0.3,4,1,5.4,2.9c1.1,1.5,2.5,2.9,4.1,4.7
		c1.3-1,2.5-1.9,4-2.9c-1.8-2.5-3.4-4.7-4.8-6.9c-2.1-3.1-2.1-4,0.4-6.6C281.5,691.7,284.1,683.3,282.6,673.5z"/>
	<path d="M252.9,747.6c-0.9,4,1.7,8.1,5.6,9c4,0.9,8.1-1.5,9.1-5.5c1-4-1.4-8.1-5.4-9.2C258.2,740.8,253.8,743.4,252.9,747.6z"/>
	<path d="M861.3,722.1c-3.4,1.2-6.9,2.7-10,4.6c-8.5,5.3-15.3,12.3-20.2,21c-2.1,3.6-4.7,6.3-8.1,8.5c-1.9,1.2-3.8,2.5-5.7,3.7
		c-0.7,0.4-1.6,0.7-3,1.2c1-2.2,1.8-3.7,2.5-5.2c2.8-5.9,5.3-12,5.8-18.6c0.3-3.2-0.2-6.3-1.6-9.1c-1.8-3.5-4.6-5.7-8.8-5.8
		c-3.9,0-6.7,1.7-8.7,5.1c-2.9,5-4.8,10.3-5.5,16c-1,7.5-0.9,15,0,22.5c0.4,3.4-0.7,5.7-4,7c-5.8,2.2-11.6,4.6-17.4,6.9
		c-1.1,0.4-2.3,0.7-4.2,1.3c1.6-3.1,3.1-5.4,4.1-7.8c1.8-4.3,3.7-8.6,4.7-13.1c1.1-4.8,0.4-9.7-1.9-14.1c-2.9-5.7-8.4-7.1-13.6-3.4
		c-1.9,1.4-3.6,3.3-4.8,5.3c-3.4,5.7-5.1,12-5,18.7c0.1,5.1,0,10.2,0.1,15.3c0.1,3.3-1.3,5.4-4.6,6.2c-9.8,2.4-19.5,4.8-29.3,7.3
		c-0.2-0.4-0.4-0.8-0.6-1.1c1.6-2,3.3-3.8,4.7-5.9c3-4.5,5.9-9,8.5-13.7c1.8-3.4,2.5-7.2,2-11.2c-0.6-5-3.2-8.5-7.9-10.2
		c-4.5-1.7-8.6-0.3-11.6,3.1c-2.5,3-4.7,6.4-6.3,10c-3.4,8-5.2,16.5-5.7,25.2c-0.1,2.1-0.4,4.1-0.7,6.7c-7.5,0.8-14.6,1.6-22.1,2.4
		c0.7,2.3,1.2,4,1.8,5.7c7.1-0.3,13.9-0.6,20.4-0.9c1.2,2.6,1.9,4.9,3.2,6.9c6.7,10.7,15.6,19.1,27,24.7c3.1,1.5,6.7,2.3,10.2,2.6
		c5,0.4,9-3,10.4-7.8c1.3-4.6-0.3-8.4-3.3-11.7c-3.2-3.5-7.3-5.9-11.6-7.8c-5.6-2.4-11.3-4.6-17-6.9c-1.5-0.6-3-1.3-4.4-2
		c11.8-3.7,23.5-6.6,35.2-9.6c2.4-0.6,3.5,0.4,4.9,2.1c7.3,9.3,16.6,15.8,28,19.2c5.2,1.6,10.4,1.5,15.4-0.7
		c7.7-3.4,9-10.8,2.7-16.2c-2.5-2.1-5.7-3.8-8.9-4.8c-5-1.6-10.2-2.4-15.3-3.5c-1.9-0.4-3.9-0.9-5.8-1.3c0-0.3,0-0.6-0.1-0.9
		c8.4-3.7,16.7-7.4,25-11.1c2,1.9,3.5,3.6,5.3,5c9.1,6.7,19.4,10.7,30.7,11.5c3.1,0.2,6.5-0.5,9.5-1.6c3.8-1.4,5.2-4.5,5-8.5
		c-0.4-5.6-3.8-8.9-8.7-10.3c-4.5-1.3-9.2-1.8-13.8-2.4c-4.3-0.5-8.7-0.7-13.1-1c-0.1-0.3-0.2-0.6-0.3-1c6.2-3.9,12.4-7.9,18.6-11.7
		c0.9-0.5,2.2-0.6,3.3-0.4c3.3,0.6,6.5,0.1,9.7-0.8c7.9-2.2,15.4-5,21.9-10c3.1-2.4,5.8-5.1,7-8.9c1.5-4.6,0.9-9.1-2.4-12.8
		C869.6,720.6,865.4,720.6,861.3,722.1z"/>
	<path d="M947.7,689.9c-1.4-0.7-2.9-1.1-4.4-1.5c-7.2-1.9-14.3-1.5-21.5,0.4c-1.8,0.5-3.5,1-6,1.7c1.1-1.6,1.6-2.6,2.3-3.5
		c2.5-3.5,5.4-6.7,7.3-10.4c2.4-4.8,5.6-8.8,9.2-12.6c2.1-2.2,4-4.5,5.8-6.8c3.1-4,5-8.6,5.7-13.6c0.6-4.3,0.2-8.5-1.8-12.5
		c-1.9-3.9-3.6-4.3-6.9-1.6c-1.2,1-2.3,2.1-3.3,3.3c-6.8,7.7-10.3,16.8-10.8,27.1c-0.1,2,0.1,4.1-0.7,5.9c-3,7.6-7.5,14.5-12.5,21.7
		c-0.1-1-0.2-1.4-0.2-1.8c1.5-8.7-1.4-16.2-6.2-23.2c-0.6-0.9-1.3-1.9-2.1-2.7c-2.4-2.4-4.3-2-5.2,1.2c-0.5,1.8-0.7,3.6-1.2,5.4
		c-3.1,10.5-1.4,20.2,5.1,29c2.4,3.4,2.3,4.3-0.5,7.4c-2,2.2-4,4.3-6.3,6.9c1.4,1.4,2.6,2.5,4,3.8c2-1.7,3.8-3,5.2-4.5
		c1.8-1.9,3.8-2.4,6.4-2.4c14.1,0,27.1-4,39-11.8c1-0.6,1.9-1.8,2.1-2.9C950.2,691.4,948.7,690.4,947.7,689.9z"/>
	<path d="M907.8,744.9c-4.5,0.6-7.8,4.8-7.3,9.3c0.5,4.5,4.6,7.9,9.2,7.4c4.5-0.4,7.9-4.6,7.5-9.1
		C916.8,747.8,912.4,744.3,907.8,744.9z"/>
	<path d="M823.6,183.6c6.5,7.2,14.4,12.6,23.6,15.8c3.8,1.4,6.9,3.4,9.5,6.3c1.5,1.6,3,3.2,4.5,4.9c0.5,0.6,0.9,1.4,1.6,2.6
		c-2.2-0.6-3.8-1.1-5.4-1.5c-6.2-1.7-12.4-3-18.8-2.4c-3.1,0.3-6,1.2-8.5,3.1c-3.1,2.3-4.7,5.4-4.1,9.4c0.6,3.7,2.8,6.2,6.4,7.5
		c5.3,2,10.7,2.8,16.3,2.5c7.4-0.4,14.6-1.7,21.6-3.8c3.2-1,5.6-0.3,7.4,2.7c3.1,5.2,6.4,10.3,9.6,15.5c0.6,1,1.1,2.1,2,3.8
		c-3.3-1-5.7-2-8.2-2.6c-4.4-1-8.9-2.1-13.4-2.3c-4.8-0.2-9.3,1.3-13.2,4.3c-4.9,3.8-5.3,9.3-0.9,13.6c1.6,1.6,3.8,2.9,5.9,3.7
		c6.1,2.3,12.4,2.8,18.8,1.6c4.9-0.9,9.8-1.8,14.7-2.7c3.2-0.6,5.4,0.3,6.7,3.3c4,9,8,17.9,12,26.9c-0.3,0.3-0.6,0.5-1,0.8
		c-2.1-1.2-4.2-2.5-6.5-3.5c-4.8-2.1-9.6-4.2-14.6-5.8c-3.6-1.2-7.3-1.1-11.1-0.1c-4.7,1.4-7.6,4.5-8.4,9.3c-0.8,4.6,1.2,8.3,5,10.6
		c3.3,1.9,7,3.5,10.7,4.3c8.3,1.9,16.7,2.2,25.2,1.2c2-0.3,4-0.3,6.5-0.5c2,7,4,13.7,6.1,20.8c2.1-1.1,3.6-1.9,5.2-2.7
		c-1.5-6.8-2.9-13.2-4.3-19.4c2.3-1.6,4.4-2.7,6.1-4.2c9.1-8.3,15.7-18.2,19.2-30.1c0.9-3.2,1.1-6.8,0.8-10.2
		c-0.4-4.8-4.4-8.2-9.2-8.6c-4.6-0.5-8,1.7-10.7,5.2c-2.8,3.7-4.5,8-5.5,12.4c-1.4,5.8-2.5,11.6-3.7,17.5c-0.3,1.5-0.7,3.1-1.1,4.6
		c-5.6-10.7-10.4-21.5-15.2-32.1c-1-2.2-0.2-3.5,1.2-5.1c7.7-8.6,12.3-18.7,13.7-30.1c0.6-5.2-0.3-10.2-3.3-14.7
		c-4.5-6.8-11.9-6.8-16,0.2c-1.6,2.8-2.6,6.1-3.1,9.4c-0.7,5.1-0.6,10.2-0.8,15.3c-0.1,1.9-0.2,3.9-0.3,5.8
		c-0.3,0.1-0.6,0.1-0.9,0.2c-5-7.4-10-14.8-14.9-22.1c1.5-2.2,2.9-3.9,3.9-5.9c4.9-9.9,7-20.4,5.8-31.4c-0.3-3-1.6-6.2-3.2-8.9
		c-2-3.4-5.2-4.3-9-3.3c-5.3,1.3-7.9,5.1-8.4,10.1c-0.5,4.5-0.2,9.1,0,13.6c0.2,4.3,0.9,8.5,1.3,12.7c-0.3,0.1-0.6,0.3-0.9,0.4
		c-4.8-5.3-9.7-10.5-14.4-15.9c-0.7-0.7-0.9-2-0.9-3.1c0-3.3-1-6.2-2.4-9.1c-3.4-7.2-7.5-13.9-13.3-19.4c-2.8-2.6-5.9-4.7-9.7-5.2
		c-4.7-0.6-8.9,0.7-11.9,4.5c-2.8,3.6-2.1,7.7,0,11.3C819.3,177.8,821.3,180.9,823.6,183.6z"/>
	<path d="M715.7,117.3c1.1,1,2.4,1.9,3.7,2.7c8.6,5.2,17.9,7.1,27.9,5.8c1.9-0.2,3.9-0.7,5.7-0.4c7.9,1.6,15.2,4.7,22.9,8.3
		c-1,0.3-1.3,0.5-1.7,0.5c-8.6,0.1-15.3,4.1-21.2,9.9c-0.8,0.8-1.6,1.6-2.2,2.5c-1.9,2.7-1.2,4.5,2.1,4.8c1.8,0.2,3.6,0,5.4,0.2
		c10.6,1.2,19.6-2.1,27-9.8c2.8-2.9,3.7-2.9,7.2-0.8c2.5,1.5,4.9,3.1,7.7,4.9c1.1-1.6,2-3,3-4.4c-2-1.6-3.5-3.1-5.2-4.2
		c-2.1-1.4-2.9-3.2-3.4-5.7c-2.4-13.6-8.5-25.4-17.9-35.4c-0.8-0.8-2.1-1.5-3.1-1.5c-0.5,0-1.3,1.6-1.5,2.6c-0.4,1.5-0.6,3-0.7,4.5
		c-0.6,7.2,1,14,4,20.5c0.8,1.6,1.6,3.2,2.7,5.4c-1.7-0.7-2.7-1.1-3.7-1.6c-3.7-1.8-7.3-4.1-11.3-5.3c-5-1.5-9.4-3.9-13.7-6.7
		c-2.4-1.6-4.9-3.1-7.5-4.4c-4.4-2.3-9.1-3.4-14-3.1c-4.2,0.2-8.2,1.3-11.7,3.9C712.7,113,712.6,114.6,715.7,117.3z"/>
	<path d="M788.3,186.3c-4.4,1.2-7.1,6-5.7,10.4c1.3,4.3,5.9,6.7,10.2,5.4c4.3-1.3,6.8-5.8,5.6-10.1
		C797.2,187.7,792.6,185.1,788.3,186.3z"/>
	<path d="M72.8,591.1c-11.2,0-11.3,17.5,0,17.5C84,608.6,84.1,591.1,72.8,591.1z"/>
	<path d="M180.5,834.2c-11.2,0-11.3,17.5,0,17.5C191.8,851.7,191.8,834.2,180.5,834.2z"/>
	<path d="M104.8,690.1c-11.2,0-11.3,17.5,0,17.5C116.1,707.6,116.1,690.1,104.8,690.1z"/>
	<path d="M202.3,745.4c-11.2,0-11.3,17.5,0,17.5C213.6,762.9,213.6,745.4,202.3,745.4z"/>
	<path d="M894.9,813.5c-0.5,0.5-1,1-1.5,1.5c-3.2,3.2-3.5,9.2,0,12.4c3.5,3.2,8.9,3.5,12.4,0c0.5-0.5,1-1,1.5-1.5
		c3.2-3.2,3.5-9.2,0-12.4C903.7,810.3,898.3,810,894.9,813.5z"/>
	<path d="M1004.4,601.3c-11.2,0-11.3,17.5,0,17.5C1015.6,618.8,1015.7,601.3,1004.4,601.3z"/>
	<path d="M979.6,382.3c11.2,0,11.3-17.5,0-17.5C968.3,364.8,968.3,382.3,979.6,382.3z"/>
	<path d="M737,255.7c11.2,0,11.3-17.5,0-17.5C725.8,238.3,725.8,255.7,737,255.7z"/>
	<path d="M213.9,273.1c6.5,7.3,13.8,13.7,23.6,16.2c0.6,0.2,1.2,1.2,1.4,2c1.4,4.1,2.5,8.2,4,12.3c0.5,1.5,1.5,2.9,2.6,4
		c2.1,1.9,4.6,1,4.8-1.8c0.2-1.7-0.3-3.5-0.7-5.3c-1-4.4-2.1-8.9-3.1-13.1c13.4-7.4,25.1-16.2,33.5-28.5c2.7-4,5-8.7,6-13.4
		c1.7-8-4.8-13.8-12.5-11.3c-4.5,1.4-8.9,3.9-12.7,6.8c-6.5,4.9-10.8,11.8-14.1,19.1c-0.6,1.3-1.2,2.6-2,4.4
		c-0.2-0.9-0.3-1.1-0.3-1.2c-0.3-15.3,2.7-30.2,6.3-44.9c0.2-0.7,1.3-1.4,2-1.6c3.7-0.8,7.4-1.3,11.1-2c10.6-2.1,21.2-4,31.2-8.4
		c4.6-2.1,8.9-4.8,11.8-9.1c4.3-6.4,1.6-14.3-5.7-16.7c-1.5-0.5-3.2-0.7-4.8-0.9c-8.1-0.7-15.8,1.2-22.8,5.3
		c-5.1,2.9-9.8,6.5-14.4,9.6c0,0.3-0.1,0,0-0.2c5.7-13.1,13.5-24.8,24-34.4c0.6-0.6,1.7-0.8,2.6-0.9c14.3-0.6,27.4-4.6,39.3-12.6
		c4.6-3.1,8.5-7,11.1-11.9c2.2-4.1,1.3-7.5-2.2-10.5c-4.7-4.1-10.2-5.1-16.1-4.2c-14.1,2.1-24.6,9.9-33,21
		c-4.9,6.5-7.4,14.6-13.6,20.2c-1.4,1.3-2.5,3-3.7,4.6c-6.3,8.8-11.7,18.1-16.3,28.7c-0.3-1.4-0.5-2.1-0.6-2.7
		c-1.4-7.7-3.8-15-7.5-21.9c-3.6-6.7-8.4-12.3-15.2-15.9c-7.6-4-14.9,0.1-15,8.7c0,3.5,0.7,7.2,1.9,10.5
		c5.5,15.4,15.6,27.5,28.4,37.4c1.3,1,1.6,1.7,1.1,3.3c-4.6,14.7-7.8,29.7-8.7,45.1c0,0.5-0.2,1-0.3,1.5c-3.1-4.9-5.9-9.6-9.1-14.2
		c-4.5-6.7-9.9-12.6-17-16.6c-4.6-2.6-7.7-1.4-9.3,3.7c-1.8,5.5-1.5,11,0.2,16.4C203.1,258.5,207.7,266.3,213.9,273.1z M251,267.8
		c4.1-7.6,8.5-15,14.7-21.1c1.2-1.2,2.7-2.4,4.4-3c1-0.4,2.6,0.2,3.5,0.9c0.5,0.4,0.5,2.3,0,3c-4,5.5-8,11-12.4,16.1
		c-3.8,4.3-8.2,8-12.3,12c-0.3,0.3-0.8,0.5-1.2,0.8c-0.1-0.1-0.3-0.2-0.4-0.3C248.4,273.4,249.5,270.5,251,267.8z M314.4,130.2
		c1.7-0.8,3.8-1.3,5.7-1.3c2.9,0,4.1,2.7,2.5,5.2c-0.4,0.6-0.9,1.2-1.4,1.6c-9.3,7.8-20.1,12.6-32.7,15.5
		C296.7,142.8,304.3,135,314.4,130.2z M272.5,196.3c6-3.6,12.4-6.4,18.7-9.5c0.8-0.4,1.7-0.7,2.6-0.7c1.4,0,3.7-0.1,4.1,0.6
		c0.6,1.1,0.5,3.2-0.2,4.4c-0.9,1.6-2.4,3.3-4,4.1c-11.1,5.8-23.3,8.5-35.1,12.2c-0.1-0.2-0.3-0.4-0.4-0.7
		C262.9,203.3,267.4,199.4,272.5,196.3z M232,180.4c-2.4-4.1-4.2-8.5-6.1-12.9c-0.6-1.5-1.5-3.5,0.7-4.8c2.4-1.3,3.9,0.3,4.9,2
		c2.5,4,5.1,7.9,6.8,12.2c3.2,8,5.8,16.2,8.6,24.3c-0.4,0.2-0.8,0.5-1.3,0.7C241.1,194.7,236.3,187.7,232,180.4z M207.3,236.9
		c0.4-2,2.1-2.4,3.7-0.7c0.9,1,1.9,2,2.5,3.1c5.1,9.4,10.2,18.8,15.2,28.2c1.8,3.5,3.4,7.1,5,10.7c-8.8-5-15.9-11.8-21.2-20.2
		c-2.4-3.9-4.4-8.2-5.8-12.6C206,242.7,206.7,239.6,207.3,236.9z"/>
</g>
</svg>
