<?xml version="1.0" encoding="utf-8"?>
<!-- Generator: Adobe Illustrator 22.0.0, SVG Export Plug-In . SVG Version: 6.00 Build 0)  -->
<svg version="1.1" id="Layer_1" xmlns="http://www.w3.org/2000/svg" xmlns:xlink="http://www.w3.org/1999/xlink" x="0px" y="0px"
	 viewBox="0 0 1080 1080" style="enable-background:new 0 0 1080 1080;" xml:space="preserve">
<g>
	<path d="M341.6,692.4c-1.2-16.7-6.4-23.8-15.3-21.4c-2.5,0.6-4.2,2.2-5.1,4.9c-0.9,2.6-0.8,5,0.5,7.2c1.5,2.8,4.2,4.8,7.9,6
		c1.2,0.3,1.9,1.2,2.1,2.6c0.2,1.4,0.1,4.9-0.2,10.5c-0.3,5.6-0.7,9.6-1.2,12.1c-0.5,2.5-1.6,5.4-3.5,8.8
		c-3.1,6.2-7.1,11.4-12.1,15.6c-5,4.2-12.5,8.8-22.8,13.7c-13,6.2-22.1,12.2-27.2,17.9c-5.1,5.7-7.8,12.6-8.1,20.7
		c0,3.1,0.2,5.3,0.7,6.5c0.5,1.2,1.8,2.8,3.9,4.6c3.4,3.4,6.9,4.8,10.5,4.2c3.6-0.6,6-3.1,7.2-7.4c0.6-2.5,0-4.8-1.9-7
		c-1.9-2.2-4-3.3-6.5-3.3c-2.5,0-3.7-0.5-3.7-1.4c0-1.5,1.4-4.2,4.2-7.9c2.8-3.7,5.1-6.3,7-7.9c1.2-0.9,3.9-2.5,8.1-4.6
		c4.2-2.2,8.4-4.3,12.8-6.5c4.3-2.2,8.3-4,11.8-5.6c3.6-1.5,5.5-2.2,5.8-1.9c0.3,0.3,0.8,1.4,1.6,3.3c0.8,1.9,1.5,4.2,2.3,7
		c0.8,2.8,1.5,5.7,2.1,8.8c0.6,3.1,0.9,5.7,0.9,7.9c0.3,5,0.1,10.1-0.7,15.6c-0.8,5.4-2.1,10.8-3.9,16c-1.9,5.3-4.2,10.2-7,14.9
		c-2.8,4.6-5.7,8.5-8.8,11.6c-4.3,4.3-9.2,7.9-14.6,10.7c-5.4,2.8-10.3,4.2-14.6,4.2c-3.4,0-7.2-0.8-11.4-2.6c-4.2-1.7-8.3-4-12.3-7
		c-4-2.9-7.8-6.3-11.4-10c-3.6-3.7-6.4-7.6-8.6-11.6c-5.3-9.6-7.8-20.8-7.7-33.7c0.2-12.8,2.9-24.7,8.1-35.5
		c3.1-6.2,6.3-11,9.5-14.4c3.3-3.4,7.2-6.3,11.8-8.8c3.4-1.9,6.2-2.9,8.4-3.3c2.2-0.3,5.9-0.5,11.2-0.5c5.3,0,8.7-0.2,10.2-0.5
		c1.5-0.3,2.6-1.1,3.3-2.3c2.2-4.3-0.5-7.4-7.9-9.3c-5-1.5-8.7-3.2-11.1-4.9c-2.5-1.7-5.9-4.7-10.2-9.1c-3.4-3.7-5.7-6.7-6.7-8.8
		c-1.1-2.2-2.4-5.4-3.9-9.8c-5.3-16.4-4.3-31.4,2.8-45.1c1.5-3.1,4-6.3,7.4-9.5c3.4-3.3,6.2-5.2,8.4-5.8c2.8-0.6,6.6,0,11.4,1.9
		c4.8,1.9,8.4,4,10.9,6.5c4,4.3,6.7,10.1,8.1,17.2c1.4,7.1,1.2,14.3-0.7,21.4c-0.6,2.8-0.9,4.6-0.9,5.3c0,0.8,0.6,1.6,1.9,2.6
		c2.5,1.9,4.6,1.5,6.5-1.2c1.9-2.6,3.1-6.4,3.7-11.4c0.6-5,0.5-10.3-0.2-16c-0.8-5.7-2.2-10.9-4.4-15.6c-3.4-6.5-8-11.5-13.7-14.9
		c-5.7-3.4-12.1-5.3-19-5.8c-7-0.5-14.1,0.6-21.4,3.3c-7.3,2.6-14,6.9-20.2,12.8c-7.4,7.1-12.9,16.6-16.3,28.3
		c-1.6,5-2.2,11-1.9,18.1c0.3,7.1,1.4,12.9,3.3,17.2c1.5,3.4,4.5,7.5,8.8,12.3c4.3,4.8,8.2,8.3,11.6,10.5l4.2,2.8l-11.6,5.6
		c-7.7,3.7-13.9,7.8-18.4,12.3c-4.5,4.5-8.4,10.3-11.8,17.4c-5.9,11.8-8.8,24-8.8,36.7c0,12.7,2.8,24.9,8.4,36.7
		c4.3,9,11.1,17,20.2,24.2c9.1,7.1,19,11.9,29.5,14.4c5,1.2,11.4,1.8,19.3,1.6c7.9-0.2,14.5-1,19.7-2.6c9.6-2.5,18.2-7.3,25.8-14.4
		c7.6-7.1,13.7-15.9,18.4-26.5c2.5-5.9,4.3-11.5,5.3-17c1.1-5.4,1.6-12,1.6-19.7c0-7.1-0.6-14-1.9-20.7c-1.2-6.7-2.9-12-5.1-16
		c-1.2-1.5-1.8-2.6-1.6-3.3c0.2-0.6,1.3-2.2,3.5-4.6C337.9,728,342.6,712.2,341.6,692.4z"/>
	<path d="M463.3,642.7c3.1,1.6,5.5,2.4,7.2,2.6c1.7,0.2,4.1-0.5,7.2-2.1c9.3-4,13.9-11.2,13.9-21.4c0-6.2-2-11.5-6-15.8
		c-4-4.3-9.1-6.5-15.3-6.5c-5.9,0-10.1,1.3-12.8,3.9c-2.6,2.6-4.7,7.7-6.3,15.1c-1.2,5.3-0.8,10.1,1.4,14.4
		C454.8,637.3,458.4,640.5,463.3,642.7z"/>
	<path d="M870.1,750.5c-1.4,1.2-2.4,3.9-3,7.9c-0.3,3.7-1.3,8.4-3,13.9c-1.7,5.6-3.9,11.3-6.5,17.2c-2.6,5.9-5.4,11.6-8.4,17.2
		c-2.9,5.6-5.8,10.4-8.6,14.4l-5.6,7.4l-0.9-24.6c-0.3-6.2-0.5-13.9-0.5-23.2s0-18.9,0-28.8c0-9.9,0.2-19.4,0.5-28.3
		c0.3-9,0.6-16.3,0.9-21.8c0.3-3.4,0.5-6.7,0.5-9.8c0-3.1-0.2-5.4-0.5-7c-0.9-7.1-4.8-10.7-11.6-10.7c-2.5,0-6,1-10.5,3
		c-4.5,2-7.5,3.8-9.1,5.3c-0.6,0.6-1.1,2.1-1.4,4.4c-0.3,2.3-0.8,5-1.4,8.1c-0.6,4.6-1.4,10.3-2.3,17c-0.9,6.7-2,13.6-3.3,20.7
		c-1.2,7.1-2.5,13.9-3.7,20.4c-1.2,6.5-2.3,11.8-3.3,15.8c-2.2,9-4.6,17.5-7.2,25.6c-2.6,8.1-5.3,15.1-7.9,21.1
		c-2.6,6-5.1,10.8-7.4,14.4c-2.3,3.6-4.3,5.3-5.8,5.3c-0.9,0-2.2-1-3.7-3c-1.6-2-3.2-4.6-4.9-7.9c-1.7-3.3-3.4-6.7-5.1-10.5
		c-1.7-3.7-3-7.4-3.9-11.2c-0.6-2.2-1.1-4.3-1.4-6.3c-0.3-2-0.6-4.6-0.9-7.9c-0.3-3.3-0.5-7.5-0.5-12.8c0-5.3,0-12.4,0-21.4v-38.6
		l-3.3-2.8c-1.6-0.9-2.9-1.5-3.9-1.9c-1.1-0.3-3.3-0.2-6.7,0.5c-8.7,0.9-13.8,3.3-15.3,7c-0.6,1.2-1.2,3.4-1.6,6.5
		c-0.5,3.1-0.9,6.8-1.4,11.2c-0.5,4.3-0.8,9.1-0.9,14.2c-0.2,5.1-0.2,10.1-0.2,15.1c0,3.7,0.1,7.2,0.2,10.6
		c-0.8,3.4-1.7,6.4-2.5,8.9c-3.4,10.8-7.4,19.4-11.8,25.6c-4.5,6.2-9.8,11-16,14.4c-3.1,1.6-5.4,2.5-7,2.8c-1.6,0.3-3.9,0.2-7-0.5
		c-2.2-0.3-4-0.5-5.6-0.7c-1.6-0.2-2.5-0.5-2.8-1.2c-0.9-0.9,0-5.4,2.8-13.5c2.5-8.4,4.3-16.8,5.6-25.3c1.2-8.5,2.2-19,2.8-31.4
		c0.9-22.3-0.6-41.3-4.4-56.9c-3.9-15.6-9.9-27.2-18-34.6c-10.9-10.5-21.1-11.5-30.4-2.8c-4.4,4.6-7.7,11.1-9.8,19.3
		c-2.2,8.2-3.3,19.1-3.3,32.8c0,24.2,2.6,45.3,7.9,63.4c5.3,18.1,13,32.6,23.2,43.4l8.4,9.3l-3.3,6c-2.8,5-6.4,9.4-10.9,13.2
		c-4.5,3.9-8.4,6.3-11.8,7.2c-3.4,0.9-5.8,1.1-7.2,0.5c-1.4-0.6-3.3-3.1-5.8-7.4c-6.1-10.8-9.7-23.8-10.8-38.8
		c-1.1-15,0.5-31.7,4.8-49.9c1.5-7.1,2.4-11.5,2.5-13.2c0.2-1.7-0.2-3.6-1.1-5.8c-2.8-5.9-9.1-9-18.9-9.3c-4.3-0.3-6.9-0.3-7.8,0
		c-0.9,0.3-2.6,1.7-5.1,4.2c-2.5,2.5-4.7,6-6.7,10.5c-0.7,1.6-1.3,3.2-2,4.9c-1.9,1.1-2.8,2.9-2.8,5.5c0,0.9-0.3,2.9-0.9,5.8
		c-0.6,2.9-1.4,6.1-2.3,9.5c-0.9,3.4-1.9,6.8-3,10.2c-1.1,3.4-2.1,6.2-3,8.4c-4.6,10.5-11.9,21.2-21.8,32.1
		c-6.2,6.2-9.5,8.7-9.8,7.4c-0.3-0.6-0.6-2.3-0.9-5.1c-0.3-2.8-0.6-5.9-0.9-9.3c-0.3-3.4-0.8-8.7-1.4-15.8
		c-0.6-7.1-1.2-13.9-1.9-20.4c-0.6-6.5-1.3-14.1-2.1-22.8c-0.8-8.7-1.5-16.1-2.1-22.3c-0.6-5.9-1.4-12.7-2.3-20.4
		c-0.9-7.7-1.7-14.1-2.3-19c-1.6-9.3-2.9-15.6-4.2-18.8c-1.2-3.3-3.3-5-6-5.3c-1.9-0.3-4.2-0.1-7,0.7c-2.8,0.8-5.5,1.8-8.1,3
		c-2.6,1.2-5,2.7-7.2,4.4c-2.2,1.7-3.6,3.3-4.2,4.9c-0.3,0.9-0.5,2.2-0.7,3.9c-0.2,1.7,0.1,3.8,0.7,6.3c0.3,2.8,0.9,8.4,1.9,16.7
		c0.9,8.4,1.9,18,3,29c1.1,11,2.2,22.6,3.3,34.8c1.1,12.2,2,23.8,2.8,34.6c0.8,10.8,1.5,20.2,2.1,28.1c0.6,7.9,0.9,12.9,0.9,15.1
		v5.1l-16.3,8.4c-11.1,5.6-20.4,10.8-27.6,15.8c-7.3,5-14,10.4-20.2,16.3c-8.7,9-14.9,17.6-18.8,25.8c-3.9,8.2-5.8,16.8-5.8,25.8
		c0,10.2,2.5,19.8,7.4,28.8c5,9,11.5,15.5,19.5,19.5c2.5,1.2,4.6,2,6.5,2.3c1.9,0.3,5.7,0.3,11.6,0c5-0.3,8.8-0.7,11.4-1.2
		c2.6-0.5,5.3-1.3,8.1-2.6c3.7-1.6,7.6-3.9,11.6-7c4-3.1,8-6.4,11.8-9.8c3.9-3.4,7.4-7,10.7-10.7c3.3-3.7,5.6-7.1,7.2-10.2
		c5.9-11.8,10.4-25,13.5-39.7c3.1-14.7,5-31.8,5.6-51.3l0.9-22.8l10.7-9.8c11.6-11.3,20.4-22.5,26.3-33.6c1.1,15.6,5,28.8,11.8,39.4
		c7.4,11.6,17.7,19.6,30.7,23.9c4.3,1.6,9.3,2.2,14.9,1.9c5.6-0.3,10.5-1.4,14.9-3.3c8.1-3.4,15.5-10.5,22.3-21.4
		c2.2-3.1,3.8-5.2,4.9-6.3c1.1-1.1,1.9-1.5,2.6-1.2c2.5,0.9,5.6,1.7,9.5,2.3c3.9,0.6,7,0.8,9.5,0.5c7.1-0.9,14-4.2,20.7-9.8
		c6.7-5.6,12.2-12.5,16.5-20.9c0.9-2,1.8-4.3,2.9-6.9c0.1,0.6,0.2,1.2,0.4,1.8c2.2,9.3,6.3,18.4,12.5,27.4
		c6.2,9.6,13.1,15.7,20.7,18.4c7.6,2.6,15.1,1.6,22.5-3c10.8-6.8,21.4-29.6,31.6-68.3c0.6-2.2,1.1-4.2,1.4-6
		c0.3-1.9,0.8-3.6,1.4-5.1c0.6-1.5,1.1-3.1,1.4-4.6c0.3,1.9,0.7,6,1.2,12.5c0.5,6.5,0.9,13.6,1.4,21.1c0.5,7.6,0.8,15,1.2,22.3
		c0.3,7.3,0.5,12.8,0.5,16.5v20l-9.3,3.7c-2.5,1.2-5.7,2.6-9.8,4.2c-4,1.6-7.6,2.9-10.7,4.2c-10.2,4.3-18.4,9.1-24.4,14.2
		c-6,5.1-10.8,11.2-14.2,18.4c-2.5,5-3.7,10.2-3.7,15.8s1.1,10.4,3.3,14.4c1.5,3.1,3.7,5.9,6.5,8.4c2.8,2.5,5.9,4.5,9.3,6
		c5,2.5,11.3,3.3,19,2.3c7.7-0.9,15-3.1,21.8-6.5c4-1.9,8.4-5,13.2-9.3c4.8-4.3,8.4-8.5,10.9-12.5c4-6.2,7.5-14.9,10.5-26.3
		c2.9-11.3,5-22.8,6.3-34.6c0.3-2.8,0.5-5,0.7-6.7c0.2-1.7,0.5-3.1,0.9-4.2c0.5-1.1,1.1-2.2,1.9-3.3c0.8-1.1,1.9-2.6,3.5-4.4
		c7.1-8.4,13.8-18.7,20-30.9c6.2-12.2,10.8-24.4,13.9-36.5c1.5-6.2,2.3-10.4,2.3-12.5c0-2.2-0.8-4-2.3-5.6
		C873.1,749.5,871.5,749.2,870.1,750.5z M475.4,885.2c0,26.9-3.3,49.6-9.8,67.8c-6.5,18.3-15.5,29.9-26.9,34.8
		c-1.5,0.6-3.3,1.2-5.3,1.9c-2,0.6-3.6,1.1-4.9,1.4c-3.4,0.6-6.9,0.1-10.5-1.6c-3.6-1.7-6.9-4.1-10-7.2c-3.1-3.1-5.7-6.8-7.9-11.1
		c-2.2-4.3-3.7-9-4.6-13.9C393,942,398,927,410.4,912.1c12.4-14.9,30.7-27.7,54.8-38.6l10.2-4.6V885.2z M647.8,807.6
		c-1.2,3.1-2.2,5.8-3,8.1c-0.8,2.3-1.3,3.5-1.6,3.5c-0.6-0.3-1.2-0.9-1.9-1.9c-0.6-0.6-1.3-1.3-2.1-2.1c-0.8-0.8-1.5-1.6-2.1-2.6
		c-9-9.9-15.8-23.1-20.4-39.5c-4.6-16.4-7.1-35.3-7.4-56.7c0-11.8,0.5-20.8,1.6-27.2c1.1-6.3,3-12,5.8-17c4.3-7.7,10.4-8.5,18.1-2.3
		c6.8,5.6,12,14.9,15.6,28.1c3.6,13.2,5.3,29.2,5.3,48.1c0,12.7-0.6,23.9-1.9,33.5C652.6,789.3,650.6,798.6,647.8,807.6z
		 M804.4,868.5c0,0.9-0.1,2-0.2,3.3c-0.2,1.2-0.2,2.6-0.2,4.2c-4.3,32.8-13.9,52-28.8,57.6c-3.7,1.5-6.3,2.3-7.7,2.3
		c-1.4,0-3.8-0.5-7.2-1.4c-5.3-1.2-9.5-3.8-12.5-7.7c-3.1-3.9-4.6-8.3-4.6-13.2c0-5.6,2.5-11.8,7.4-18.6c5-6.8,10.8-11.9,17.7-15.3
		c1.9-0.9,4.8-2.2,8.8-3.9c4-1.7,8.1-3.3,12.1-4.9c4-1.5,7.6-2.9,10.7-3.9c3.1-1.1,4.8-1.6,5.1-1.6
		C804.5,866.1,804.4,867.2,804.4,868.5z"/>
	<path d="M899.2,416.1c0.1,0.3-0.1,1.3-0.6,3.2c-0.8,4.5,0.3,8.8,3.2,12.9c2.9,4.1,6.4,6.2,10.3,6.2c2.1,0,4-0.7,5.8-2
		c1.7-1.3,3.1-3,4.2-5.2c1.1-2.1,1.7-4.4,1.8-7c0.1-2.5-0.3-5-1.4-7.4c-2.4-5.8-6.1-9.5-11.1-11.1c-5-1.6-10.6-0.8-16.7,2.4
		c-2.7,1.3-5.4,3.3-8.3,6c-2.9,2.7-5.8,5.7-8.5,9.1c-2.8,3.4-5.4,7.2-8,11.1c-2.5,4-4.6,8-6.2,11.9c-1.9,4.2-3.7,9.5-5.6,15.7
		c-1.9,6.2-3.4,12.1-4.8,17.7c-0.8,3.4-1.3,4.6-1.4,3.6c-0.1-1.1-0.1-6.2,0.2-15.5c0.3-5.3,0.6-11.5,1-18.7
		c0.4-7.2,0.9-13.1,1.4-17.9c0.8-9.5,1.1-15.9,0.8-19.1c-0.3-3.2-1.3-5.4-3.2-6.8c-1.3-0.8-3.1-1.3-5.4-1.4c-2.3-0.1-4.6,0-7,0.4
		c-2.4,0.4-4.6,1.1-6.6,2c-2,0.9-3.4,2.1-4.2,3.4c-1.6,2.4-2.8,7.4-3.6,14.9c-0.8,7.6-1.5,19.6-2,36c-0.2,11.7-0.1,22.6,0.2,32.7
		c-0.1,0.3-0.1,0.6-0.2,0.9c-0.8,3.3-1.6,6.2-2.4,8.5c-2.9,9.3-6.3,16.6-10.1,21.9c-3.8,5.3-8.4,9.4-13.7,12.3
		c-2.7,1.3-4.6,2.1-6,2.4c-1.3,0.3-3.3,0.1-6-0.4c-1.9-0.3-3.4-0.5-4.8-0.6c-1.3-0.1-2.1-0.5-2.4-1c-0.8-0.8,0-4.6,2.4-11.5
		c2.1-7.2,3.7-14.4,4.8-21.7c1.1-7.3,1.8-16.2,2.4-26.8c0.8-19.1-0.5-35.3-3.8-48.7c-3.3-13.4-8.5-23.3-15.4-29.6
		c-9.3-9-18-9.8-26-2.4c-3.7,4-6.5,9.5-8.4,16.5c-1.9,7-2.8,16.4-2.8,28c0,20.7,2.2,38.8,6.8,54.3c4.5,15.5,11.1,27.9,19.9,37.2
		l7.2,8l-2.8,5.2c-2.4,4.2-5.5,8-9.3,11.3c-3.8,3.3-7.2,5.4-10.1,6.2c-2.9,0.8-5,0.9-6.2,0.4c-1.2-0.5-2.9-2.6-5-6.4
		c-5.3-9.3-8.3-20.3-9.3-33.2c-0.9-12.9,0.5-27.1,4.1-42.7c1.3-6.1,2-9.9,2.2-11.3c0.1-1.5-0.2-3.1-1-5c-2.4-5-7.8-7.7-16.1-8
		c-3.7-0.3-5.9-0.3-6.7,0c-0.8,0.3-2.2,1.5-4.3,3.6c-2.1,2.1-4,5.1-5.7,8.9c-1.1,2.5-2.1,5.1-2.9,7.9c-0.9,1.4-1.6,3.6-2,7
		c-0.3,1.3-0.7,3.4-1.4,6.4c-0.7,2.9-1.4,5.7-2.2,8.3c-2.9,10.1-6.3,18.8-10.1,26.2c-3.8,7.4-7.9,12.6-12.1,15.5l-4.8,3.2L656,537
		c-3.7-7.7-8.9-14-15.5-19.1c-6.6-5-13.9-8.2-21.9-9.5c-2.1-0.5-3.8-0.9-5.2-1.2c-1.3-0.3-2.1-0.4-2.4-0.4c-0.5-3.4-0.9-6.4-1.2-8.7
		c-0.3-2.4-0.5-4.8-0.8-7.4c-0.3-2.5-0.4-4.7-0.4-6.6l-0.4-8.7l5.2-1.6c4-1.3,8.1-3.2,12.3-5.6c4.2-2.4,8.3-5,12.3-7.8
		s7.6-5.7,10.9-8.7c3.3-3,6-6,8.2-8.9c3.7-5,6.9-10.5,9.5-16.3c2.6-5.8,4.7-11.7,6.2-17.5c1.5-5.8,2.2-11.5,2.4-17.1
		c0.1-5.6-0.5-10.6-1.8-15.1c-1.1-3.7-3.1-7.4-6-10.9c-2.9-3.6-6.2-6.4-9.9-8.5c-2.1-1.3-4-2.1-5.8-2.4c-1.7-0.3-5.1-0.4-10.1-0.4
		c-5,0-8.4,0.2-10.1,0.6c-1.7,0.4-4.3,1.4-7.8,3c-22.5,11.4-36.8,37-42.9,76.7c-0.8,4.2-1.3,9.5-1.6,15.9
		c-0.3,6.4-0.4,13.1-0.4,20.1c0,7,0.1,13.8,0.4,20.3c0,0.5,0.1,1,0.1,1.5c-0.5,1.6-1,3.5-1.7,5.5c-2.1,6.9-4.4,14.3-6.8,22.1
		c-2.4,7.8-4.6,15.2-6.8,22.3c-2.1,7-3.7,11.9-4.8,14.5c-2.9,7.7-4.8,12.5-5.6,14.5c-0.8,2-1.5,2.6-2,1.8c-1.1-3.2-1.9-6.7-2.6-10.5
		c-0.7-3.8-1.1-8.5-1.2-14.1c-0.1-5.6,0-12.1,0.4-19.7c0.4-7.6,1-16.8,1.8-27.6c2.4-36.8,2.4-61.1,0-72.8c-1.3-5-3.1-9.6-5.2-13.7
		c-2.1-4.1-4.5-7.1-7.2-8.9c-2.9-1.9-7-2.9-12.3-3.2c-5.3-0.3-10.2,0.3-14.7,1.6c-10.1,2.9-19.7,13.1-28.8,30.4
		c-9.1,17.4-16.5,39.6-22.1,66.6l-3.2,14.7l0.4-13.5c0.5-12.2,0.9-21.7,1.2-28.4c0.3-6.8,0.4-11.8,0.4-15.1c0-3.3-0.2-5.6-0.6-7
		c-0.4-1.3-0.9-2.6-1.4-4c-2.9-6.4-8.6-9.5-17.1-9.5c-10.3,0-19.5,6.4-27.4,19.3c-8,12.9-14.2,31.3-18.7,55.5l-2.4,13.9l-1.2-8
		c-0.3-2.4-0.4-5.9-0.4-10.5c0-4.6,0.1-10.2,0.2-16.7c0.1-6.5,0.4-13.6,0.8-21.3c0.4-7.7,0.9-15.8,1.4-24.3c0.5-8,0.9-14.2,1.2-18.9
		c0.3-4.6,0.3-8.3,0.2-11.1c-0.1-2.8-0.5-4.8-1.2-6.2c-0.7-1.3-1.5-2.5-2.6-3.6c-1.6-1.6-3-2.6-4.2-3c-1.2-0.4-3.3-0.7-6.2-1
		c-1.9,0-3.9,0.1-6.2,0.2c-2.3,0.1-4,0.3-5.4,0.6c-1.3,0.5-2.4,1.1-3.2,1.6c-0.8,0.5-1.5,1.7-2.2,3.4c-0.7,1.7-1.2,4.2-1.6,7.6
		c-0.4,3.3-0.9,8-1.4,14.1c-0.5,5.3-1,12.2-1.4,20.7c-0.4,8.5-0.6,17.2-0.6,26c0,5.9,0,11.5,0.1,17.1c0,0.1-0.1,0.3-0.1,0.4
		c-0.8,3.3-1.6,6.2-2.4,8.5c-2.9,9.3-6.3,16.6-10.1,21.9c-3.8,5.3-8.4,9.4-13.7,12.3c-2.7,1.3-4.6,2.1-6,2.4c-1.3,0.3-3.3,0.1-6-0.4
		c-1.9-0.3-3.4-0.5-4.8-0.6c-1.3-0.1-2.1-0.5-2.4-1c-0.8-0.8,0-4.6,2.4-11.5c2.1-7.2,3.7-14.4,4.8-21.7c1.1-7.3,1.8-16.2,2.4-26.8
		c0.8-19.1-0.5-35.3-3.8-48.7c-3.3-13.4-8.5-23.3-15.4-29.6c-9.3-9-18-9.8-26-2.4c-3.7,4-6.5,9.5-8.4,16.5c-1.9,7-2.8,16.4-2.8,28
		c0,20.7,2.2,38.8,6.8,54.3c4.5,15.5,11.1,27.9,19.9,37.2l7.2,8l-2.8,5.2c-2.4,4.2-5.5,8-9.3,11.3c-3.8,3.3-7.2,5.4-10.1,6.2
		c-2.9,0.8-5,0.9-6.2,0.4c-1.2-0.5-2.9-2.6-5-6.4c-5.3-9.3-8.3-20.3-9.3-33.2c-0.9-12.9,0.5-27.1,4.1-42.7c1.3-6.1,2-9.9,2.2-11.3
		c0.1-1.5-0.2-3.1-1-5c-2.4-5-7.8-7.7-16.1-8c-3.7-0.3-5.9-0.3-6.7,0c-0.8,0.3-2.2,1.5-4.3,3.6c-2.1,2.1-4,5.1-5.7,8.9
		c-1.7,3.8-3.2,8.2-4.3,12.9c-1.2,4.8-2,9.8-2.6,15.1c-0.1,0.9-0.1,1.8-0.2,2.8c-0.7,3.6-1.5,7.1-2.4,10.7c-2,8.2-4.3,16.1-7,23.7
		c-2.7,7.6-5.4,14.6-8.3,21.1c-2.9,6.5-5.8,11.9-8.7,16.1c-2.7,3.7-6,7.6-10.1,11.7c-4.1,4.1-7.6,6.8-10.5,8.2
		c-2.7,1.3-4.4,2.1-5.4,2.2c-0.9,0.1-3-0.3-6.2-1.4c-29.7-8.2-49-30.3-58-66.4c-8.7-33.7-7.6-69.7,3.6-108.1
		c9.8-33.4,23.1-54.2,39.8-62.4c9.5-4.8,18-5.3,25.4-1.6c11.4,5.3,18.7,14.1,22.1,26.2c3.3,12.2,2.4,27-2.6,44.5
		c-1.1,3.4-1.9,6.1-2.4,8c-0.5,1.9-1.1,3.2-1.8,4c-0.7,0.8-1.4,1.2-2.2,1.2c-0.8,0-1.9-0.1-3.2-0.4c-6.1-0.8-9.9,1.6-11.5,7.2
		c-1.1,4-0.7,7.4,1.2,10.1c1.9,2.8,4.5,4.2,8,4.2c2.4,0,5-1.7,8-5.2c2.9-3.4,5.3-7.4,7.2-11.9c5.6-14,8.7-28.1,9.3-42.1
		c0.7-14-1.5-25.3-6.6-33.8c-3.7-6.4-8.6-11.6-14.7-15.7c-6.1-4.1-12.8-6.9-20.1-8.3c-7.3-1.5-14.8-1.5-22.7,0
		c-7.8,1.5-15,4.3-21.7,8.5c-12.5,8-23,19.4-31.6,34.4c-8.6,15-14.5,32.1-17.7,51.5c-3.7,21.2-4.4,41.7-2.2,61.4
		c2.2,19.7,7.4,38.2,15.3,55.5c3.7,7.2,7.1,13,10.1,17.5c3,4.5,7.2,9.3,12.5,14.3c5,4.5,9.7,8.2,14.1,11.1c4.4,2.9,9.2,5.3,14.5,7.2
		c2.9,1.1,5.6,1.7,8,2c2.4,0.3,6.2,0.3,11.5,0c3.2,0,5.6-0.1,7.4-0.2c1.7-0.1,3.3-0.3,4.8-0.6c1.5-0.3,2.8-0.7,4-1.2
		c1.2-0.5,2.8-1.3,5-2.4c14.6-7.2,26.6-21.2,36.2-42.1c3.4-7.2,6.6-15.3,9.5-24.5c0.6-1.9,1.2-3.8,1.8-5.7c1.7,8.4,4.5,15.7,8.6,22
		c6.4,9.9,15.1,16.8,26.2,20.5c3.7,1.3,8,1.9,12.7,1.6c4.8-0.3,9-1.2,12.7-2.8c6.9-2.9,13.3-9,19.1-18.3c1.8-2.6,3.2-4.4,4.2-5.4
		c0.9-0.9,1.7-1.3,2.2-1c2.1,0.8,4.8,1.5,8.2,2c3.3,0.5,6,0.7,8.2,0.4c6.1-0.8,12-3.6,17.7-8.3c5.7-4.8,10.4-10.7,14.1-17.9
		c0.4-0.9,0.8-1.9,1.3-3c0.1,1.2,0.2,2.4,0.3,3.4c1.6,14.3,3.6,25.8,6.2,34.4c2.5,8.6,5.4,13.7,8.5,15.3c1.3,0.8,2.5,1.2,3.6,1.2
		c1.1,0,3-0.7,6-2c8.2-2.9,12.7-8.2,13.5-15.9c5.3-50.1,14.2-81.8,26.6-95c2.1-2.1,3.4-3.3,4-3.6c0.5-0.3,1.1,0,1.6,0.8
		c0.5,0.5,0.9,4,1,10.5c0.1,6.5,0.2,15.3,0.2,26.4c0,9.3,0,16.9,0,22.9c0,6,0.2,10.9,0.6,14.7c0.4,3.8,0.9,7,1.6,9.3
		c0.7,2.4,1.7,4.8,3,7.2l2.4,4.8l8-0.8c2.1-0.3,4.1-0.5,6-0.6c1.9-0.1,3-0.3,3.6-0.6c2.1-0.8,3.8-2.8,5-6.2
		c1.2-3.3,2.6-9.2,4.2-17.7c3.2-19.6,6.8-36.3,10.7-50.1c4-13.8,8.9-26.4,14.7-37.8c5-10.1,10-17.4,14.9-21.9
		c4.9-4.5,9.1-5.7,12.5-3.6c1.8,1.3,3.3,3.4,4.4,6.4c1.1,2.9,1.8,7.4,2.2,13.5c0.4,6.1,0.5,14.1,0.4,23.9
		c-0.1,9.8-0.6,22.3-1.4,37.4c-0.8,16.4-1.2,30.2-1.2,41.3c0,11.1,0.5,20.4,1.4,27.8c0.9,7.4,2.3,13.4,4.2,17.9
		c1.8,4.5,4.4,8.1,7.6,10.7c4.5,3.7,9,4.2,13.5,1.6c2.1-1.1,4.2-3,6.4-5.8c2.1-2.8,4.4-6.8,6.8-11.9c2.4-5.2,4.9-11.7,7.6-19.5
		c2.6-7.8,5.7-17.3,9.1-28.4c1.6-5.3,3-10.1,4.2-14.4c1.5,8.8,3.3,17.5,5.5,25.9c2.8,10.6,5.9,19.7,9.3,27.4c4,9,8.7,16.5,14.1,22.5
		c5.4,6,10.8,9.9,16.1,11.7c2.9,0.8,6.4,1,10.5,0.6c4.1-0.4,7.2-1.4,9.3-3c8.5-5.6,13.1-17,13.9-34.2l0.4-12.3l4.4-2.8
		c2.6-1.3,5.4-3.4,8.2-6.4c2.8-2.9,5.2-6.1,7.4-9.5c1.6-2.6,3.3-6.1,5.2-10.3c0.6-1.3,1.1-2.7,1.7-4.1c1.2,12.1,4.5,22.5,9.9,30.9
		c6.4,9.9,15.1,16.8,26.2,20.5c3.7,1.3,8,1.9,12.7,1.6c4.8-0.3,9-1.2,12.7-2.8c6.9-2.9,13.3-9,19.1-18.3c1.8-2.6,3.2-4.4,4.2-5.4
		c0.9-0.9,1.7-1.3,2.2-1c2.1,0.8,4.8,1.5,8.2,2c3.3,0.5,6,0.7,8.2,0.4c6.1-0.8,12-3.6,17.7-8.3c5.7-4.8,10.4-10.7,14.1-17.9
		c0.6-1.3,1.2-2.8,1.9-4.4c0.8,10.4,2.1,20.3,3.7,29.9c1.3,7.7,2.4,13,3.2,15.9c0.8,2.9,1.8,4.8,3.2,5.6c2.4,1.9,6.8,1.2,13.1-2
		c2.1-1.1,3.8-2,5-3c1.2-0.9,2.1-2.4,2.8-4.6c0.7-2.1,1.1-5.2,1.2-9.1c0.1-4,0.2-9.5,0.2-16.7c0.3-20.4,1.7-37.4,4.4-50.9
		c2.6-13.5,6.6-25.7,11.9-36.6c2.9-6.1,6.6-11.9,11.1-17.5c4.5-5.6,8.6-9.4,12.3-11.5C898.3,416,899,415.9,899.2,416.1z M307,521.9
		c-1.1,2.7-1.9,5-2.6,7c-0.7,2-1.1,3-1.4,3c-0.5-0.3-1.1-0.8-1.6-1.6c-0.5-0.5-1.1-1.1-1.8-1.8c-0.7-0.7-1.3-1.4-1.8-2.2
		c-7.7-8.5-13.5-19.7-17.5-33.8c-4-14-6.1-30.2-6.4-48.5c0-10.1,0.5-17.8,1.4-23.3c0.9-5.4,2.6-10.3,5-14.5c3.7-6.6,8.9-7.3,15.5-2
		c5.8,4.8,10.3,12.8,13.3,24.1c3,11.3,4.6,25,4.6,41.2c0,10.9-0.5,20.4-1.6,28.6C311.1,506.3,309.4,514.2,307,521.9z M607.9,451.1
		c0.8-12.5,2-23.2,3.8-32.2c1.7-9,4.3-17.9,7.8-26.6c3.2-8.5,7.3-15.6,12.3-21.3c5-5.7,9.5-8.5,13.5-8.5c4.2,0,8.4,1.7,12.3,5
		c4,3.3,6.6,7.5,8,12.5c1.3,3.7,1.9,7.4,1.8,11.1c-0.1,3.7-1,8.6-2.6,14.7c-2.7,10.3-6.2,19-10.5,25.8c-4.4,6.9-10.4,13.3-18.1,19.1
		c-2.7,2.1-5.6,4.2-8.9,6.4c-3.3,2.1-6,3.7-8.2,4.8c-3.2,1.6-5.6,2.7-7.2,3.4c-1.6,0.7-2.7,0.7-3.4,0c-0.7-0.7-1-2.1-1-4.4
		C607.5,458.6,607.7,455.4,607.9,451.1z M652.9,565.6c-0.5,4.8-1.5,9.1-2.8,13.1c-0.5,2.1-1.3,4.2-2.4,6.2c-1.1,2-1.9,3.4-2.4,4.2
		l-2.8,2.8l-2.8-4.8c-1.3-1.9-2.9-4.7-4.8-8.5c-1.9-3.8-3.8-8-5.8-12.3c-2-4.4-3.9-8.7-5.8-13.1c-1.9-4.4-3.2-7.9-4-10.5
		c-1.9-6.1-3.4-11.9-4.8-17.5c-1.3-5.6-1.7-8.6-1.2-9.1c0.3-0.3,1.3-0.3,3,0c1.7,0.3,3.6,0.7,5.8,1.4c2.1,0.7,4.2,1.5,6.2,2.4
		c2,0.9,3.6,1.8,5,2.6c3.4,2.4,5,4.2,4.8,5.6c-0.3,0.5-0.4,1.7-0.4,3.6c0,1.9,0,3.7,0,5.6c-0.3,3.4-0.2,5.6,0.2,6.6
		c0.4,0.9,1.7,2.3,3.8,4.2c1.1,1.1,2.3,2,3.8,2.8c1.5,0.8,2.6,1.3,3.4,1.6c2.1,0.3,3.4,1.3,4,3.2
		C653.4,557.4,653.4,560.9,652.9,565.6z M772.9,521.9c-1.1,2.7-1.9,5-2.6,7c-0.7,2-1.1,3-1.4,3c-0.5-0.3-1.1-0.8-1.6-1.6
		c-0.5-0.5-1.1-1.1-1.8-1.8c-0.7-0.7-1.3-1.4-1.8-2.2c-7.7-8.5-13.5-19.7-17.5-33.8c-4-14-6.1-30.2-6.4-48.5
		c0-10.1,0.5-17.8,1.4-23.3c0.9-5.4,2.6-10.3,5-14.5c3.7-6.6,8.9-7.3,15.5-2c5.8,4.8,10.3,12.8,13.3,24.1c3,11.3,4.6,25,4.6,41.2
		c0,10.9-0.5,20.4-1.6,28.6C777,506.3,775.3,514.2,772.9,521.9z"/>
	<path d="M999.9,508.8c1.1-7.7,1.9-14.4,2.4-20.3c0.5-5.8,0.7-9.3,0.4-10.3c-0.5-1.9-1.7-2.7-3.6-2.6c-1.9,0.1-3.1,1.3-3.6,3.4
		c-0.3,0.5-0.7,2.8-1.2,6.8c-0.5,4-1.1,8.5-1.6,13.5c-2.7,21.2-6,39.3-10.1,54.3c-4.1,15-8.8,25.5-14.1,31.6
		c-1.9,2.7-3.3,3.4-4.4,2.4c-1.3-1.1-2.8-3.8-4.4-8.1c-1.6-4.4-3.1-9.9-4.4-16.5c-0.5-2.6-1-5.1-1.4-7.4c-0.4-2.2-0.7-5.6-0.8-10.1
		c-0.1-4.5-0.2-10.9-0.2-19.1c0-8.2,0-19.6,0-34.2c0-8.2,0-16.4,0-24.5c0-8.1,0.1-15.5,0.2-22.3c0.1-6.8,0.3-12.6,0.4-17.5
		c0.1-4.9,0.2-8.4,0.2-10.5l1.2-14.7h7.2c14.8,0,25.2-3.3,31-9.9c3.4-4.2,3.6-8.3,0.4-12.3c-1.3-1.9-3.2-2.8-5.6-3
		c-2.4-0.1-4.2,0.6-5.6,2.2c-1.3,1.3-1.9,3.7-1.6,7.2l0.8,4.8l-5.6,1.2c-1.9,0.5-4,0.9-6.4,1c-2.4,0.1-4.6,0.2-6.6,0.2
		c-2,0-3.7-0.1-5.2-0.4c-1.5-0.3-2.2-0.7-2.2-1.2c0-0.3,0.1-1.7,0.2-4.4c0.1-2.6,0.5-5.7,1-9.1c0.8-10.1,0.6-17-0.6-20.7
		c-1.2-3.7-3.8-5.6-7.8-5.6c-2.9,0-6,0.7-9.3,2c-3.3,1.3-5.6,2.9-7,4.8c-1.3,1.6-2.1,3.2-2.4,4.8c-0.3,1.6-0.4,5.4-0.4,11.5
		c0,3.4-0.1,6.4-0.2,8.9c-0.1,2.5-0.3,3.8-0.6,3.8c-0.3,0-1.8-0.3-4.6-1c-2.8-0.7-6.2-1.7-10.1-3c-21.7-6.4-34.9-5.3-39.4,3.2
		c-1.3,2.4-1.8,4.7-1.4,7c0.4,2.3,1.2,4,2.4,5.2c1.2,1.2,2.8,1.7,4.8,1.6c2-0.1,3.9-1.1,5.8-3c1.3-1.3,2.2-2.4,2.6-3.4
		c0.4-0.9,0.5-2,0.2-3.4c-0.5-1.3-0.6-2.2-0.2-2.6c0.4-0.4,1.7-0.6,3.8-0.6c1.1,0,3.6,0.5,7.6,1.4c4,0.9,8.2,2.1,12.7,3.4l15.9,4.4
		l-0.8,15.1c-1.1,23.1-1.8,42.5-2.2,58.4c-0.4,15.9-0.4,29.4,0,40.6c0.4,11.1,1.1,20.5,2,28.2c0.9,7.7,2.3,15,4.2,21.9
		c2.1,8.2,5.2,15.4,9.1,21.7c4,6.2,8.4,10.5,13.1,12.9c7.4,4,14.4,2.1,21.1-5.8c6.6-7.8,12.2-20.9,16.7-39.2
		c1.3-5,2.7-11.5,4.2-19.3C997.6,524.2,998.9,516.5,999.9,508.8z"/>
	<path d="M770.6,250.2c1.2,2.2,1.3,4.8,0.3,7L746.5,308c-1.4,2.8,1.1,6,4.2,5.3l55.2-11.5c2.4-0.5,5,0.2,6.8,1.9l40.7,38.9
		c2.3,2.2,6,0.8,6.4-2.3l6.1-56c0.3-2.5,1.7-4.7,3.9-5.8l49.6-26.7c2.8-1.5,2.6-5.5-0.2-6.8l-51.4-23.1c-2.3-1-3.9-3.1-4.3-5.5
		l-10.1-55.4c-0.6-3.1-4.4-4.2-6.5-1.9l-37.9,41.7c-1.7,1.8-4.1,2.7-6.6,2.4l-55.8-7.5c-3.1-0.4-5.3,2.9-3.8,5.6L770.6,250.2z"/>
	<path d="M671.9,211.3c5.1,1.3,10.2,2.4,15.2,4c5,1.5,9.8,3.6,14.6,5.4c5,1.9,8.5,3.2,13,5.5c4.8,2.5,9.5,5,13.9,8
		c4.5,3.1,9.6-3.8,5.8-7.5c-8.1-7.7-16.4-15.2-25.7-21.6c-4.4-3.1-9.3-5.5-14-7.9c-5.4-2.8-11.1-5.5-16.9-7.4
		c-3.5-1.2-8.4,0-10.9,2.9c-2.9,3.3-3.6,6.4-2.9,10.7C664.7,207.2,668.4,210.4,671.9,211.3z"/>
	<path d="M623.4,221.2c-6.5,3.4-6.5,13.8,0,17.2c5.5,2.9,12.7,1.6,18.8,1.9c5.4,0.2,10.9,0.6,16.3,1.2c4.6,0.5,9.6,1.4,14.6,2.2
		c5.5,0.9,10.7,2.2,15.9,3.9c6.3,2.1,10.6-7.9,4.5-10.8c-10.5-5-20.8-9.9-32.1-12.9c-5.8-1.6-11.6-2.6-17.6-3.4
		C637.4,219.7,629.4,218,623.4,221.2z"/>
	<path d="M555.2,185.7c0.2,6,4.8,11.3,11.1,11.3c10.9,0.1,21.6,0.9,32.4,1.5c10.5,0.6,20.9,1.5,31.1,3.8c8.4,1.8,11.2-9.6,3.5-12.6
		c-10.5-4.1-20.9-8-31.8-10.8c-11.2-2.8-23.4-4-34.9-4.2C560.6,174.5,555,179.7,555.2,185.7z"/>
	<path d="M571,211.4c-13.3-1.3-26.4-3.5-39.7-4.8c-6.5-0.6-13-1.4-19.5-1.8c-6.6-0.4-13.6-1.6-20.2-1.1c-11.5,0.8-13.9,16-2.8,20
		c1.3,0.5,2.8,0.6,4.2,0.5c5.9,0.6,12,0.5,17.9,0.6c6.5,0.2,13,0.1,19.5,0.1c13.5,0,27-1,40.5-1.1C579,223.7,578.8,212.2,571,211.4z
		"/>
	<path d="M436.9,178.5c-0.9,6.3,3,12.6,9.3,14.3c3.5,1,6.6,1.3,9.8,0.9c2,0,4.1-0.1,6.1-0.8c0.3-0.1,0.4-0.3,0.7-0.4
		c8-0.6,15.9-1.4,23.9-1.6c6.1-0.2,12.1-0.4,18.2-0.7c6.5-0.4,12.6-2.3,18.9-2.9c6.4-0.5,8.5-9.7,1.7-11.7c-6-1.7-11.5-4.5-17.7-5.6
		c-6.7-1.1-13.4-1.9-20.2-2.3c-12.4-0.7-25.4-1.6-37.8-0.3C443.3,168,437.9,171.6,436.9,178.5z"/>
	<path d="M448.8,269.8c1.2-0.1,2.3-0.3,3.4-0.5l0,0.1c1.6-0.3,3.1-0.5,4.7-0.8c0.4-0.1,0.8-0.1,1.2-0.2c12.9-2.1,25.7-4.2,38.7-5.6
		c7.8-0.8,15.6-1.4,23.4-2.3c7.7-0.9,15.5-2.7,23.2-3c9-0.4,8.7-12.5,0.1-13.7c-8.2-1.1-16.2-3.3-24.6-4.1
		c-7.9-0.7-15.8-0.6-23.7-0.4c-16.5,0.4-33.4,1.9-49.6,5C431.4,247,434.2,271.1,448.8,269.8z"/>
	<path d="M638.9,273.5c1,0.2,1.9,0.3,2.9,0.2c4.5,0.1,9.1-0.6,13.7-0.8c5-0.2,10.1-0.2,15.1,0c2.4,0.1,4.8,0.3,7.3,0.5
		c1.3,0.1,2.6,0.3,3.9,0.4c1.6,0.1,3.1-0.2,4.6-0.2c4.7,0.2,9.4,1.3,14.1,0.4c2.2-0.4,2.6-3.2,1.2-4.6c-3.7-3.9-8.8-5.3-13.5-7.6
		c-4.8-2.4-10.1-3.6-15.4-4.8c-5.5-1.2-11.1-2-16.7-2.6c-5.6-0.5-12.3-1.6-17.8,0c-5.6,1.7-8.7,7.6-6.5,13.2
		c1.2,2.9,3.6,4.8,6.4,5.6c0,0,0,0.1,0,0.1C638.5,273.5,638.7,273.5,638.9,273.5z"/>
	<path d="M749.2,263.2c0.1,0.1,0.2,0.1,0.3,0.2C749.3,263.3,749.3,263.2,749.2,263.2z"/>
	<path d="M717.4,249.4c-2.4-0.3-5.8,1.3-7.4,3c-1.5,1.7-2.5,3.6-2.8,5.8c-0.7,4.9,2.4,10.1,7.4,11.4c2.5,0.6,5.2,0.6,7.8,0.9
		c1.4,0.1,2.9,0.3,4.3,0.5c3.6,0.5,7.3,1.1,10.9,1.8c2.3,0.4,4.7,1.2,7.1,1c0.2,0,0.3,0,0.4-0.1c0.4,0,0.9,0.1,1.3,0.2
		c1.1,0.2,2.1,0.4,3.2,0.6c2.3,0.4,4.6-0.4,5.6-2.7c0.9-2.4,0-4.4-1.9-5.9c-1.2-0.9-2.3-1.7-3.5-2.6c-0.3-0.2-0.4-0.3-0.3-0.3
		c-0.2-0.2-0.5-0.4-0.7-0.6c-0.8-0.7-1.7-1.4-2.7-2c-2.5-1.5-5.2-2.9-7.9-4.1c-3.2-1.4-6.4-2.7-9.6-4
		C724.8,251.2,721.2,249.9,717.4,249.4z"/>
	<path d="M498.3,309c8.3-3.2,16.6-6.3,25-9.2c8.7-3,17.2-7,26-9.7c6.1-1.9,5.5-11.9-1.4-11.6c-4.7,0.2-9.3-0.2-14,0.1
		c-4.9,0.3-9.7,1.2-14.5,2.1c-9.7,1.9-19.2,4.6-28.5,8c-9.2,3.4-18.4,7.2-27.2,11.4c-9.1,4.3-18.7,8.8-26.5,15.1
		c-10.2,8.2,2.9,24.3,13.8,17.9c8-3.6,15.3-9,23.1-13C481.9,316,490,312.2,498.3,309z"/>
	<path d="M334,341.6c-3.9,4.5-4.6,10.6-0.9,15.4c3.2,4.2,10.5,6.6,15.2,3c9.5-7.1,19.5-13.5,29.7-19.5c10.2-6,21.4-10.5,30.4-18.2
		c4.2-3.6,0.5-9.8-4.2-10.1c-12.8-1-25.1,4.5-36.6,9.4c-10.5,4.6-20.3,10.4-29.7,17C336.5,339.3,335.1,340.3,334,341.6z"/>
	<path d="M365.2,292c4.4-1.2,8.8-2.6,13.2-4.1c4.2-1.4,8.4-3,12.5-4.7c2.4-1,4.8-1.8,7.1-3.1c2-1.1,3.9-2.3,6-3.2
		c5.2-2.3,2.5-10.7-2.8-10.5c-4.3,0.1-8.6-0.4-12.9-0.1c-4.5,0.3-9,0.7-13.4,1.2c-5,0.6-10,1.2-15,2.1c-5,0.9-10.9,1.3-15.3,4.1
		c-4.8,3.1-6.9,8.8-4.7,14.1c1.7,4.2,5.9,6.8,10.3,6.9c0,0.1,0,0.1,0,0.2C355,295.6,360.6,293.3,365.2,292z"/>
	<path d="M448.6,223.6c1-1.4,0.4-3.2-0.6-4.4c-4.3-5.1-13.4-5.9-19.6-6.4c-7.3-0.6-14.6-0.8-21.8-0.7c-7.9,0.2-15.7,1-23.5,2
		c-6.8,0.9-14,1.9-20.5,4.2c-6.3,1.1-10.7,7.7-9.9,13.9c1,7.6,8.1,12.2,15.5,10.6c7.1-1.6,14-3.8,21.2-5c6.5-1.1,12.6-1.8,19.3-2.6
		c7.4-0.9,14.8-1.8,22.1-3.1C437,230.9,444.8,229,448.6,223.6z"/>
	<path d="M322.3,173.9c0.7,5.6,5.9,11.3,12,10.8c3.7-0.3,7.3-1.1,11-1.7c1.1-0.2,2.2-0.3,3.3-0.5c0.1,0,0.2,0,0.3,0
		c0.7-0.1,1.4-0.2,2.1-0.2c5.4-0.5,10.8-0.9,16.3-1c5.4-0.2,10.8-0.1,16.2-0.1c5.7-0.1,10.7-0.3,16.5,0.4c6,0.6,8.9-9.2,3.2-11.6
		c-5.7-2.5-11.5-5.3-17.1-7c-5.9-1.8-11.9-2.8-18-3.5c-5.6-0.7-11.2-0.9-16.8-0.7c-6.5,0.2-13.7,0.3-20,2
		C325.2,161.5,321.6,168.3,322.3,173.9z"/>
	<path d="M170.1,328.7c0.5-0.1,0.2-0.9-0.2-0.7C169.4,328.1,169.7,328.8,170.1,328.7z"/>
	<path d="M597.4,267.7c4-1,8.1-1.8,12.2-2.9c1.9-0.5,3.9-0.9,5.8-1.6c2.2-0.7,4.2-2.1,6.3-2.9c2.6-1.1,4.5-3.2,4.5-6.2
		c-0.1-2.7-2.1-5.4-4.8-6c-2.2-0.4-4.2-1.3-6.5-1.6c-2.7-0.4-5.5-0.4-8.3-0.5c-4.3-0.1-8.7,0.3-13,0.9c-10,1.2-21,2.8-29.9,8
		c-5,2.9-6.6,9.6-4.3,14.7c2.4,5.2,8.3,8.1,13.9,6.4c4.1-1.3,8.1-3.1,12.2-4.6C589.4,270,593.3,268.7,597.4,267.7z"/>
	<path d="M609.5,166.7c1.5,1.8,3.8,3.7,6.3,4c1.4,0.2,2.7,0.4,4.1,0.5c-1-0.1-2.1-0.2-3.1-0.3c1.4,0.2,2.8,0.9,4.1,1.3
		c1.5,0.5,3,1,4.5,1.5c3.1,1,6.1,1.8,9.3,2.6c3,0.8,6.1,1.3,9,2.3c0.6,0.2,1.1,0.3,1.8,0.4c1.1,0.1,1.3,0.1,0.5,0.1
		c-0.5-0.1-0.6-0.1-0.2,0c0.7,0.3,1.6,0.3,2.4,0.4c0,0,1.1,0.2,1.4,0.2c0.8,0.2,1.7,0.7,2.5,1c2.5,1,5.1,0.7,6.8-1.6
		c1.4-2,1.4-5.3-0.7-6.9c-0.7-0.6-1.4-1.1-2.2-1.7c-0.3-0.2-1.3-0.9-1.7-1.5c0.1,0.1,0.2,0.1-0.1-0.3c-0.3-0.4-1.1-1.5-1.8-1.9
		c-0.3-0.3-0.3-0.2-0.1,0c-0.3-0.3-0.5-0.7-0.8-1c-0.3-0.3-0.7-0.6-1.1-0.8c-1.4-1-2.5-2.3-3.9-3.3c-1.4-1.1-2.8-2.2-4.3-3.3
		c-2-1.5-3.9-3.1-6.1-4.3c-1.5-0.9-3.1-1.7-4.6-2.6c-1.6-0.9-3.3-1.7-5-2.5c-4.6-2.1-9.8-2.8-14.2,0.2c-3.9,2.7-6,7.1-5.2,11.8
		C607.3,163.2,608.1,165,609.5,166.7z"/>
	<path d="M503.5,135.7c2,0.7,4,0.7,6.1,0.9c0.3,0,0.4,0,0.6,0c0.4,0,0.8,0.1,1.3,0.2c2.8,0.4,5.6,0.8,8.4,1.3
		c5.4,0.9,10.8,2.2,16.1,3.7c5.2,1.4,10.3,2.8,15.5,4.4c5.2,1.6,10.7,3.2,15.9,2.1c1.3,0.1,2.6,0.2,3.9,0.5c4.6,1,9.1-5.5,4.7-8.7
		c-1.2-0.9-2.2-1.9-3.3-2.9c-2.7-5.1-8.9-8.2-13.8-10.6c-5.9-2.9-11.8-5.4-18-7.5c-5.4-1.8-10.9-3.5-16.4-4.7
		c-7-1.5-14.7-2.9-21.7-1.5c-4.9,0.9-8.8,6.9-8.4,11.7C494.8,130,498.3,133.9,503.5,135.7z"/>
	<path d="M387.8,112.9c1.2-0.1,2.3-0.1,3.5,0c0.7,0.1,1.4,0.1,2.2,0.2c0.1,0,0.2,0,0.3,0c2.8,0.3,5.5,0.6,8.3,1
		c5.9,0.8,11.7,2,17.6,3.1c5.7,1,11.3,2.6,16.9,3.6c3.4,0.6,6.8,0.8,10.2,1.1c1.5,0.1,4.1-0.4,4.8-0.5c0.8-0.2,3-0.7,4.4-1.2
		c3.8-1.4,5.5-5.5,3.4-9.1c-0.9-1.5-1.9-2.8-3-4.2c-0.4-0.4-0.5-0.5-0.1-0.2c0.5,0.5,0.3,0.2-0.6-0.8c-1.1-1.3-2.4-2.1-3.8-3
		c-2.8-1.8-5.8-3.4-8.9-4.6c-6.3-2.4-13-4.4-19.6-5.9c-6.1-1.4-12.4-2.5-18.6-3.4c-3-0.4-6.1-0.8-9.1-1.1c-2.3-0.2-4.7-0.7-7.1-0.7
		c-4.1,0-7.4,1.9-10.2,4.6c-3.6,3.4-4.1,9.4-2.1,13.7C378.1,109.7,383,113.4,387.8,112.9z"/>
	<path d="M457.4,138.2c-0.5-0.3-0.6-0.3-0.4-0.1c-0.1-0.1-0.2-0.2-0.4-0.3c-0.7-0.6-1.4-1.1-2.1-1.6c-0.7-0.4-0.7-0.3-0.1,0.1
		c0.6,0.4,0.6,0.4,0,0c-0.8-0.6-1.6-1.1-2.4-1.7c-1.9-1-4.1-1.6-6.2-2.4c-1.3-0.5-2.6-1-4-1.4c-5.8-1.6-11.7-2.6-17.7-3.3
		c-2.1-0.5-4.2-0.4-6.2,0.2c-1,0.4-1.9,0.9-2.9,1.3c-3.2,1.8-5,5.3-5.4,8.9c-0.4,3.3,0.5,6.2,2.7,8.8c2.5,3,5.6,4.2,9.4,4.4
		c5.9,0.3,11.8,0.7,17.6,1.1c2.8,0.2,5.8,0.2,8.6,0c-0.5,0,5.8-1.2,2.3-0.5c1.1-0.2,2.2-0.3,3.3-0.5c0.1,0,0.2-0.1,0.4-0.1
		c0.1,0,0.1,0,0.5,0c0.7,0.1,1.6,0.1,2.3,0.1c2.7,0.1,5.6-2.3,6.1-5c0.5-2.7-0.6-6-3.2-7.2C458.9,138.9,458.2,138.4,457.4,138.2z"/>
	<path d="M297.6,129.2c2.1,1.1,4,1.2,6.2,1.4c0.4,0,0.8,0.1,1.3,0.1c4.2,0.5,8.4,1.1,12.6,1.4c1.8,0.1,3.7,0.4,5.5,0.3
		c0.9-0.1,1.8,0,2.7-0.1c2.4-0.1,4.2-0.7,6.4-1.8c-0.7,0.3-1.4,0.6-2.1,1c2-0.7,3.5-1.5,4.9-3c0.8-0.6,1.4-1.3,1.8-2.3
		c0.6-1.5,0.6-3.6-0.5-5c0.5,0.3,0.4,0-0.2-0.8c-0.2-0.4-0.4-0.9-0.6-1.3c-0.6-0.8-1.3-1.5-2-2.2l0.3,0.3c-1.2-1.3-2.4-2.3-4.1-3.1
		c-1-0.5-2-1-3.1-1.5c-2.7-1.3-6.2-2.2-9.1-2.9c-2.3-0.5-4.7-0.9-7-1.2c-1.2-0.2-2.4-0.3-3.5-0.5c-1.4-0.2-3-0.5-4.2-0.5
		c-3.4,0.1-6,1.6-8.4,3.9c-1.7,1.7-2.6,4.1-2.8,6.4c-0.3,2.4,0.2,5,1.6,7.1C294.3,126.7,295.7,128.2,297.6,129.2z"/>
	<path d="M286.5,250.4c2.9,2.4,6.1,3.7,9.9,3.7c0.9,0,1.7,0,2.6-0.1c2.7-0.1,5.3-0.3,8-0.9c1.6-0.4,3.2-0.7,4.8-1.2
		c2.4-0.7,5.1-1.7,7-3.4c0.2-0.1,0.3-0.2,0.5-0.4c0.5-0.1,1.1-0.2,1.6-0.3c2.6-0.6,4.7-3.6,4.5-6.2c-0.2-2.7-2-5.6-4.9-6
		c-0.5-0.1-1-0.2-1.5-0.2c-0.1-0.1-0.2-0.1-0.3-0.2c-1.9-1.8-4.8-2.6-7.2-3.3c-1.7-0.5-3.4-0.9-5.1-1.4c-2.5-0.6-5.1-0.8-7.7-1
		c-0.9-0.1-1.7-0.2-2.6-0.2c-2.7-0.2-5.8,0.7-8,2.2c-3.1,2.2-5,5.1-5.4,8.9C282.5,244,283.6,248,286.5,250.4z"/>
	<path d="M290.2,345.5c2.2,0.5,4.7,0.5,6.8-0.2c1.5-0.4,2.8-1.3,4.2-2c0.7-0.3,1.3-0.6,2-0.9c0.3-0.1,0.6-0.3,0.9-0.4
		c1.2-0.5,2.4-0.9,3.5-1.7c0.7-0.5,1.3-1.1,1.9-1.7c0.7-0.5,1.3-1.1,2-1.6c0.1-0.1,0.2-0.2,0.2-0.3c0.3-0.4,0.7-0.6,1.1-1
		c0.4-0.4,0.7-0.8,1-1.3c0.2-0.1,0.4-0.2,0.5-0.2c1.6-0.7,3.1-1.5,3.9-3.2c0.6-1.3,0.9-2.7,0.6-4.1c-0.5-3.1-3.3-5.8-6.6-5.6
		c-1,0.1-1.9,0-2.8,0.1c-1.8-0.7-3.8-1-5.7-1.1c-0.9-0.1-1.8-0.3-2.7-0.2c-1.3,0.1-2.5,0.4-3.8,0.7c-1,0.3-2.1,0.6-3.1,0.9
		c-1,0.3-1.9,0.6-2.9,0.9c-1.4,0.5-2.4,0.7-3.9,1.6c-2,1.2-3.4,2.9-4.6,4.9C279.1,335.5,283.3,343.9,290.2,345.5z"/>
	<path d="M978.8,660.1c-11,3.9-22.1,7.8-33.7,11.9c0.8-3.5,1.5-6.2,2.1-9c0.5-2.7,1.8-5.4,1.1-8.4c-3.9,5-6.8,10.6-10.5,16
		c-0.9-1.1-1.6-1.9-2.2-2.7c-2.5-3.7-4.9-7.5-7.4-11.2c-3.5-5.3-7-10.7-10.6-16c-0.6-0.9-1-2.1-3-2.3c3.8,12.7,8.7,24.7,12.5,37.4
		c-2.7-0.2-4.9-0.4-7.1-0.6c-2.2-0.2-4.3-0.5-6.5-0.6c-2-0.1-4.1-1-6.8,0.3c5.8,2.6,11,4.9,16.9,7.6c-5.5,3.5-10.4,6.6-15.3,9.9
		c-4.8,3.2-9.9,5.9-14.3,9.5c0.1,0.3,0.3,0.5,0.4,0.8c11.2-4,22.4-7.9,34.2-12.1c-0.8,4.8-1.6,9-2.4,13.3c0.3,0.1,0.6,0.3,0.9,0.4
		c3.4-3,5.2-7.3,8.5-10.6c0.7,1,1.4,1.8,2,2.7c4.8,7.9,9.6,15.9,14.4,23.9c3.7,6.1,7.4,12.2,11.1,18.2c0.4,0.6,1,1,1.6,1.5
		c0.2-0.1,0.5-0.3,0.7-0.4c-1.4-5.9-4.2-11.3-6.2-17c-2-5.7-4.3-11.3-6.5-16.9c-2.2-5.7-4.4-11.4-6.8-17.5
		c5.6,0.2,10.7,0.3,15.8,0.5c0.1-0.3,0.2-0.6,0.3-0.9c-4-2.8-9.1-3.8-13.5-6.8c10.4-6.8,20.4-13.4,30.4-19.9
		C979.1,660.6,978.9,660.4,978.8,660.1z"/>
	<path d="M141.3,682.4c5.9-2.7,11.1-5,16.9-7.6c-2.7-1.3-4.8-0.3-6.8-0.3c-2.2,0.1-4.3,0.4-6.5,0.6c-2.2,0.2-4.3,0.4-7.1,0.6
		c3.8-12.7,8.7-24.6,12.5-37.4c-2,0.2-2.4,1.5-3,2.3c-3.6,5.3-7.1,10.7-10.6,16c-2.5,3.7-4.9,7.5-7.4,11.2c-0.6,0.9-1.3,1.6-2.2,2.7
		c-3.6-5.4-6.6-11-10.5-16c-0.6,3,0.6,5.7,1.1,8.4c0.6,2.8,1.3,5.6,2.1,9c-11.6-4.1-22.7-8-33.7-11.9c-0.1,0.3-0.3,0.6-0.4,0.9
		c10,6.6,20,13.1,30.4,19.9c-4.5,3-9.5,4-13.5,6.8c0.1,0.3,0.2,0.6,0.3,0.9c5.1-0.2,10.2-0.3,15.8-0.5c-2.4,6.1-4.6,11.8-6.8,17.5
		c-2.2,5.6-4.4,11.2-6.5,16.9c-2,5.7-4.8,11.1-6.2,17c0.2,0.1,0.5,0.3,0.7,0.4c0.5-0.5,1.2-0.9,1.6-1.5c3.7-6.1,7.4-12.1,11.1-18.2
		c4.8-8,9.6-15.9,14.4-23.9c0.6-0.9,1.3-1.7,2-2.7c3.3,3.3,5.1,7.6,8.5,10.6c0.3-0.1,0.6-0.3,0.9-0.4c-0.8-4.3-1.5-8.5-2.4-13.3
		c11.8,4.2,23,8.1,34.2,12.1c0.1-0.3,0.3-0.5,0.4-0.8c-4.4-3.6-9.5-6.3-14.3-9.5C151.7,689,146.7,685.9,141.3,682.4z"/>
	<path d="M634.3,987.9c16.5,4.6,37.5,12.8,48.8,21c0.3,0.2,0.6,0.5,0.8,0.9c0.1-0.6,0.2-1.2,0.3-1.8c-0.3-0.3-0.5-0.6-0.7-0.7
		c-11.6-8.3-32.9-16.5-48.8-20.9c-15.9-4.5-38.3-8.5-52.5-7.6c-0.2,0-0.4,0.1-0.7,0.1c-0.6,0.1-1.2,0.2-1.7,0.3
		c-0.2,0.6-0.5,1.2-0.7,1.8c1.5-0.8,2.6-0.7,2.6-0.7C595.6,979.4,617.8,983.3,634.3,987.9z"/>
	<path d="M586.8,965.6c-0.3,0.5-0.7,1.1-1,1.6c14.3-0.9,36.4,3.2,52.2,7.6c15.1,4.3,35.1,11.9,47.1,19.7c0-0.6,0-1.3,0-1.9
		c-11.8-7.6-31.1-15.1-46.6-19.4C622.3,968.7,600.8,964.9,586.8,965.6z"/>
	<path d="M610.7,934.2c-3.9,9.3-9.7,23.2-18.4,27.6c-0.3,0.4-0.4,0.7-0.1,0.9c13.8,0.2,32.5,3.7,47,7.7
		c13.6,3.8,30.3,10.1,42.1,16.7c0.8,0.2,1.1,0.1,1-0.3c-8-9-3.4-22.6-1.7-33c6.8-43.8-12.1-56.7-21-59.2
		C650.6,892.1,627.7,893.2,610.7,934.2z"/>
	<path d="M585.4,967.8c-0.3,0.5-0.6,1-0.9,1.6c1-1.1,2.4-1.7,3.7-1.3c2,0.6,3.1,3.2,2.3,5.9c-0.8,2.7-3,4.4-5.1,3.8
		c-2-0.6-3.1-3.2-2.4-5.8c-1.2,2.3-2.2,4.6-3.1,6.8c0.5-0.1,1-0.2,1.4-0.2c0.2,0,0.5-0.1,0.7-0.1c14.3-1,36.8,3.1,52.7,7.6
		c16,4.5,37.3,12.7,48.9,21c0.2,0.1,0.4,0.3,0.5,0.4c0.2-1.2,0.3-2.5,0.4-3.8c-1,1-2.3,1.4-3.5,1.1c-2-0.6-3.1-3.2-2.3-5.9
		c0.8-2.7,3-4.4,5.1-3.8c0.4,0.1,0.8,0.3,1.1,0.6c0-0.1,0-0.2,0-0.3c-11.9-7.9-32-15.6-47.2-19.9C622,970.9,599.6,966.8,585.4,967.8
		z M601.9,974.6c-0.8,2.7-3.1,4.3-5.3,3.7c-2.2-0.6-3.4-3.3-2.6-5.9c0.7-2.7,3.1-4.3,5.3-3.7C601.5,969.3,602.7,972,601.9,974.6z
		 M614.8,976.2c-0.7,2.7-3.3,4.3-5.6,3.6c-2.3-0.7-3.6-3.3-2.9-6c0.7-2.7,3.3-4.3,5.6-3.6C614.2,970.9,615.5,973.6,614.8,976.2z
		 M627.7,978.7c-0.7,2.7-3.4,4.2-5.9,3.5c-2.5-0.7-3.9-3.4-3.2-6.1c0.7-2.7,3.4-4.2,5.9-3.5C627,973.4,628.4,976.1,627.7,978.7z
		 M668.8,993.4c0.7-2.7,3.1-4.3,5.3-3.7c2.2,0.6,3.4,3.3,2.6,5.9c-0.8,2.7-3.1,4.3-5.3,3.7C669.3,998.8,668.1,996.1,668.8,993.4z
		 M657,988.1c0.7-2.7,3.3-4.3,5.6-3.6c2.3,0.7,3.6,3.3,2.9,6c-0.7,2.7-3.3,4.3-5.6,3.6C657.6,993.5,656.3,990.8,657,988.1z
		 M644.7,983.5c0.7-2.7,3.4-4.2,5.9-3.5c2.5,0.7,3.9,3.4,3.2,6.1c-0.7,2.7-3.4,4.2-5.9,3.5C645.4,988.9,644,986.2,644.7,983.5z
		 M641.1,982.1c-0.7,2.6-3.5,4.2-6.1,3.4c-2.6-0.7-4.2-3.5-3.4-6.1c0.7-2.6,3.5-4.2,6.1-3.4C640.3,976.7,641.8,979.5,641.1,982.1z"
		/>
	<path d="M681.2,996.4c-1.1,1-1.5,3-1.1,3.5c0.4,0.5,1.8-0.5,2.4-1.1c0.6-0.6,1.7-1.9,1.4-2.6C683.8,995.4,682.2,995.4,681.2,996.4z
		"/>
	<path d="M586.5,972.4c0.6-0.6,1.7-1.9,1.4-2.6c-0.2-0.7-1.8-0.7-2.8,0.3c-1.1,1-1.5,3-1.1,3.5C584.6,974,585.9,973.1,586.5,972.4z"
		/>
	<path d="M633.8,989.6c-16.5-4.6-38.6-8.5-52.6-7.6c-4.7,0.6-5,3.5-4.2,5.1c0.5,1.1,1.6,1.7,2.2,2.1c11.4,8.1,32.3,16.3,48.8,21
		c16.5,4.6,38.6,8.5,52.6,7.6c1.7-0.3,3.2-0.8,3.6-2.2c0.4-1.6,0.1-3.8-1.5-5C671.3,1002.4,650.3,994.3,633.8,989.6z M628.3,1000.8
		c5.8,1.6,11.8-1.5,13.8-7.1c0.5,0.1,0.9,0.3,1.4,0.4c-0.2,1.4-0.4,2.5-0.6,3.4c-1.7,6.1-8,9.6-14.1,7.9c-4.4-1.2-7.4-4.8-8.2-9
		c-0.1-0.7,0.8-1,1.1-0.4C623.2,998.2,625.5,1000,628.3,1000.8z M682.9,1015c-1,3.5-25.8,1.1-54.9-7c-29.1-8.2-51.3-19.7-50.5-22.6
		c1.2-4.1,20.4-3,44.7,2.8c-0.9,1.8-1.5,3.5-1.9,4.7c-1.8,6.4,1.9,13.1,8.3,14.9c6.4,1.8,13.1-1.9,14.9-8.3c0.3-1.2,0.6-2.9,0.8-4.9
		C667.6,1002.1,684.1,1010.9,682.9,1015z"/>
	<path d="M633.9,977.8c-1.3,0.9-1.7,2.9-1.1,3.4c0.6,0.5,2.2-0.3,3-1c0.7-0.5,2-1.8,1.6-2.5C637.1,977,635.1,976.9,633.9,977.8z"/>
	<path d="M620.9,974.5c-1.2,0.9-1.7,2.9-1.1,3.4c0.6,0.5,2.1-0.4,2.8-1c0.7-0.6,1.9-1.8,1.6-2.5
		C623.9,973.7,622.1,973.6,620.9,974.5z"/>
	<path d="M608.5,972.1c-1.2,1-1.6,2.9-1.1,3.5c0.5,0.5,2-0.4,2.7-1.1c0.6-0.6,1.8-1.9,1.5-2.6C611.4,971.3,609.6,971.2,608.5,972.1z
		"/>
	<path d="M596.1,970.6c-1.1,1-1.6,3-1.1,3.5c0.5,0.5,1.9-0.4,2.6-1.1c0.6-0.6,1.7-1.9,1.5-2.6C598.8,969.7,597.1,969.7,596.1,970.6z
		"/>
	<path d="M649.1,984c0.7-0.6,1.9-1.8,1.6-2.5c-0.3-0.7-2.1-0.8-3.3,0.1c-1.2,0.9-1.7,2.9-1.1,3.4C646.8,985.5,648.4,984.6,649.1,984
		z"/>
	<path d="M661,988.7c0.6-0.6,1.8-1.9,1.5-2.6c-0.3-0.7-2-0.8-3.1,0.2c-1.2,1-1.6,2.9-1.1,3.5C658.8,990.3,660.2,989.4,661,988.7z"/>
	<path d="M672.8,993.6c0.6-0.6,1.7-1.9,1.5-2.6c-0.3-0.7-1.9-0.7-3,0.2c-1.1,1-1.6,3-1.1,3.5C670.7,995.2,672.1,994.3,672.8,993.6z"
		/>
	<path d="M660.1,892.5c2.3,0.6,5.1,1.9,8.1,4.2c1.5-1.3,2.7-3,3.2-5c1.5-5.3-1.6-10.9-7-12.4c-5.3-1.5-10.9,1.6-12.4,6.9
		c-0.5,1.9-0.5,3.8,0,5.5C655.3,891.5,658.1,891.9,660.1,892.5z"/>
	<path d="M142.1,741.3c-13.2,0-13.2,20.5,0,20.5C155.3,761.8,155.3,741.3,142.1,741.3z"/>
	<path d="M320.7,925.7c-1,0-2,0-2.9,0c-5.4,0-10.5,4.7-10.2,10.2c0.2,5.6,4.5,10.2,10.2,10.2c1,0,2,0,2.9,0
		c5.4,0,10.5-4.7,10.2-10.2C330.7,930.4,326.4,925.7,320.7,925.7z"/>
	<path d="M379.2,609.5c-13.2,0-13.2,20.5,0,20.5C392.4,630,392.4,609.5,379.2,609.5z"/>
	<path d="M746.6,625.6c-13.2,0-13.2,20.5,0,20.5C759.8,646.1,759.8,625.6,746.6,625.6z"/>
	<path d="M843.2,627.1c13.2,0,13.2-20.5,0-20.5C830,606.6,830,627.1,843.2,627.1z"/>
	<path d="M913.5,791c-13.2,0-13.2,20.5,0,20.5C926.7,811.5,926.7,791,913.5,791z"/>
	<path d="M1002.8,618.3c-13.2,0-13.2,20.5,0,20.5C1015.9,638.8,1016,618.3,1002.8,618.3z"/>
	<path d="M184.5,271.4c13.2,0,13.2-20.5,0-20.5C171.3,250.9,171.3,271.4,184.5,271.4z"/>
	<path d="M248.9,190.9c13.2,0,13.2-20.5,0-20.5C235.7,170.4,235.7,190.9,248.9,190.9z"/>
	<path d="M563.6,82.6c13.2,0,13.2-20.5,0-20.5C550.5,62.1,550.4,82.6,563.6,82.6z"/>
	<path d="M693.9,125c13.2,0,13.2-20.5,0-20.5C680.7,104.5,680.7,125,693.9,125z"/>
	<path d="M448.4,390.7c13.2,0,13.2-20.5,0-20.5C435.2,370.2,435.2,390.7,448.4,390.7z"/>
	<path d="M563.6,338c13.2,0,13.2-20.5,0-20.5C550.5,317.5,550.4,338,563.6,338z"/>
	<path d="M697.6,338c13.2,0,13.2-20.5,0-20.5C684.4,317.5,684.4,338,697.6,338z"/>
	<path d="M818.3,369.5c13.2,0,13.2-20.5,0-20.5C805.1,349,805.1,369.5,818.3,369.5z"/>
	<path d="M932.5,305.1c13.2,0,13.2-20.5,0-20.5C919.3,284.6,919.3,305.1,932.5,305.1z"/>
</g>
</svg>
