<?xml version="1.0" encoding="utf-8"?>
<!-- Generator: Adobe Illustrator 22.0.0, SVG Export Plug-In . SVG Version: 6.00 Build 0)  -->
<svg version="1.1" id="Layer_1" xmlns="http://www.w3.org/2000/svg" xmlns:xlink="http://www.w3.org/1999/xlink" x="0px" y="0px"
	 viewBox="0 0 1080 1080" style="enable-background:new 0 0 1080 1080;" xml:space="preserve">
<g>
	<path d="M419.2,768c-0.4-7.7-0.9-15.2-1.6-22.4c-1.8-19.8-4.6-37.5-8.4-52.9c-2.8-9.7-5.2-16.4-7.5-20.1c-4.5-6.1-8.1-9.1-10.9-9
		c-0.3,0-0.5,0.3-0.8,0.9c0.2,2.1,1.8,5.2,4.8,9.5c8.5,16.7,14.2,41.8,17.2,75.3c0.7,7.4,1.2,15.2,1.7,23.4
		c1.4,28.2,0.6,55.4-2.4,81.7c-4.3,28.8-9,43.4-14.1,43.8l-0.1,0c-5.4,0.3-11.1-12.9-17.3-39.6c-6.3-32.8-10-54.5-10.9-65.2l-0.1-3
		c-0.2-4.9-0.6-9.5-0.9-13.8c-1.1-12.9-3-22.9-5.5-30c-1.8-5.6-5.2-10.8-10-15.6c-7.5-5.3-13.4-8-17.9-8.2l-1.4,0
		c-1.8,1-2.6,2.7-2.5,5.1c1.3,8,2.1,14.2,2.5,18.7l0.3,3.1c0.5,11.1,0.6,21.2,0.3,30.2c0.7,15-2.7,42.6-10.3,82.7
		c-4.4,30.1-9.2,45.4-14.4,45.9c-0.4,0-1.2-0.3-2.5-0.9c-4.2-3.9-10.2-20.1-18-48.7c-2.7-9.5-5.7-28.2-9-56.1
		c-5.1-54.8-8.4-86.2-10.1-94.1l-0.1-0.8c-0.4-4.7-2.4-10.5-5.9-17.4c-3.3-6.7-10.9-9.8-22.7-9.2l-0.3,0c-1.5,0.1-3,1.6-4.6,4.4
		c-2.1,2.7-2.7,15.9-1.6,39.5l0.2,2c0.2,5.8,0.6,11.9,1.2,18.3c1.9,20.9,5.4,45.3,10.5,73c14.3,73.1,30.7,109.2,49.2,108.3l0.4,0
		c6-0.5,12.5-5.6,19.4-15.2c4.1-5.8,8.1-16,11.9-30.6c4.5-18.2,8.3-43.3,11.3-75.4l0.3,0c4.8,24.9,9.2,47.1,13.1,66.4
		c8.2,32,19.6,47.7,34.1,46.9l0.7-0.1c4.6-0.4,8.4-2.2,11.4-5.4c4.7-5.3,8.5-12.4,11.2-21.3C418.2,858.6,421.5,817.2,419.2,768z"/>
	<path d="M632.2,797.9c-0.1-1.3-0.7-2.2-1.6-2.6l-0.4,0c-0.8,0.1-1.4,0.3-1.9,0.6c-2.1,0.2-3.9-4-5.5-12.4
		c-2.3-19.2-3.8-30.6-4.5-34.2c-4.2-11.1-9.8-16.3-16.9-15.7c-13.7,1.2-24.2,22.6-31.5,64.1c-2.5,25.2-3.3,42.2-2.6,50.9l-0.3,0
		c-1.5-5.7-2.6-13.8-3.6-24.1l-0.2-2.3l0.2-1.4c-0.2-0.3-0.3-0.7-0.4-1.2l-0.7-7.5c-2.1-23.5-4.5-37-7.3-40.5
		c-6.9-6.7-12.9-9.8-17.9-9.3l-0.3,0c-3.8,0.3-5.6,3.9-5.6,10.7c0.5,4.4,0.8,7.1,0.9,8c0.4,7,0.8,17,1.2,29.8
		c-14.8,12.2-25,19.5-30.6,21.7l-0.1,0c-2.5-17.2-6.3-30.1-11.5-38.9c-11.7-16.8-24.3-24.7-37.9-23.5c-3.9,0.4-8,1.6-12.3,3.8
		c-12.3,8.2-17.9,19-16.7,32.4l0.2,1.8c0.6,7,3.7,14.5,9.1,22.6c0,2.9,0.2,7.3,0.7,13.1c0.6,6.7,1.4,12.5,2.4,17.4
		c5.5,22,15.9,32.4,31.4,31l1.4-0.1c13.5-1.2,23.4-9.9,29.8-26.2c2.4-6.6,3.8-15.5,4-26.8c1.3-0.1,4.6-1.8,10-5.1
		c4.2-2.6,11-8.1,20.4-16.3c0.1,3.2,0.2,6.5,0.3,10.1l0.3,3c2,22.9,6.6,39.8,13.6,50.6c7,8,13.7,11.7,20,11.1
		c0.9-0.1,1.8-0.3,2.6-0.5c3.6-1.6,5.3-4,5.1-7l-0.2-2l-2.5-10.3l-0.3-3.7c-1.1-13-0.1-35.4,3.1-67.3c1.3-12.4,3.9-24.4,7.9-35.9
		c2.3-6.6,4.7-11,7.1-13.1c0.5,1,0.8,3.1,1.1,6.3l0.8,8.7c1,10.7,3.3,19.4,7.2,26.2c4.5,7.6,12.2,11,23.2,10l0.3,0
		C628.8,803.6,631.9,801.6,632.2,797.9z M466.2,802.3c-0.1-1.1-4-1.8-11.7-1.9l-1.8,0.2c-7.8,0.7-13.4,7-16.9,19l-0.6,0
		c-1.8-4.7-2.9-8.4-3.1-11.2l-0.3-3.2c-0.3-3.8,0.2-7.7,1.6-11.8c4.1-10,10.8-15.4,20-16.3l1-0.1c8.9-0.8,17.1,2.8,24.7,10.7
		c10.3,12.6,16.2,27.9,17.8,45.8l0.1,1.6c-6.6,3-13.2,4.7-19.5,5.3c-1.3,0.1-2.6,0.2-3.8,0.2c-7.6,0.2-11.5-1.7-11.9-5.8
		c0.5-7.8,1.3-14.3,2.4-19.5c2.1-7,3.2-10.8,3.1-11.4C467.3,803.1,466.9,802.5,466.2,802.3z M496.9,852.4
		c-3.7,19.5-9.5,29.7-17.6,30.4l-0.6,0c-0.7,0.1-1.7,0-3.1-0.1c-7.5-3.4-11.9-12.1-13.1-26.2c-0.2-2.3-0.3-5.8-0.2-10.5l0-0.3
		c4.6,1,8.4,1.4,11.3,1.1c2.9-0.3,4.6-0.4,4.9-0.4c5.4-0.5,11.9-1.8,19.3-3.8C497.8,843.2,497.5,846.5,496.9,852.4z"/>
	<path d="M841.4,811.1l-0.4-4.1c-0.5-3.6-1.5-5.3-2.9-5.1c-1.5,0.1-2.2,1.9-2.2,5.3l0.3,3.7c0.6,6.6,0.4,16-0.5,28.2
		c-2.6,36.6-6.6,55.1-12.1,55.6c-3.8,0.3-8.4-6.7-13.9-21.2c-5.2-9.8-10.1-39.8-14.5-90c-1.3-14.6-0.2-37.1,3.2-67.3
		c4.1-32.8,6-50.8,5.7-54c-0.3-3.3-1.4-6.5-3.3-9.7c-5-6.3-11.1-9.1-18.4-8.4c-1.5,0.1-3,0.6-4.4,1.4c-2.9,2.2-4.9,5.7-6,10.8
		c-3.5,19.6-7.6,55.6-12.4,108l-0.1,0c-2.4-2.9-8.3-3.9-17.7-3.1l-1.1,0.1c-9.5,0.8-17.7,5.4-24.8,13.7
		c-10.4,15.3-14.7,32.7-13,52.3c0.9,10,3.3,18.4,7.3,25c1.6,2.1,3.1,3.9,4.5,5.6c0.1,14.3-0.5,25.1-1.6,32.2
		c-1.9,19.7-7,30.4-15.6,32.2c-13.2-0.9-22.5-31.3-27.8-91.1c-0.6-6.9-1.2-14.3-1.7-22c-1.8-22.5-2.3-45.9-1.4-70.3
		c0.5-23.4,1.2-39.6,2.1-48.6c0-2-0.1-3.9-0.2-5.7c-0.6-7.2-2.6-12.2-6-14.9c-3.6-3-6.3-4.4-8-4.3c-0.3,0-0.6,0.1-0.8,0.2l-2.8,0.3
		c-2.8,0.3-4.9,1.3-6.4,3.1c-8.9,33.6-12.5,69.4-10.6,107.3c1.9,37.9,3.1,59.3,3.5,64.3c5.4,60.2,23.4,91.1,54.1,92.7l2-0.2
		c4.3-0.4,8.3-2.2,12-5.5c10.8-9.9,16.2-30.9,16.2-63.2c3.9,2.9,7.6,4.3,11,4l1-0.1c7.9-0.7,14.7-9.7,20.3-27.1
		c4-12.2,7.9-38.5,11.6-78.8l0.3,0l1.2,13.1c8.1,91.3,23.2,135.9,45.4,134c2.4-0.2,5.4-1.3,8.8-3.2c6.8-4.3,11.7-11.7,14.6-22.3
		c3.2-15.1,4.7-24,4.4-26.7C841.4,848.7,841.7,833.4,841.4,811.1z M757.2,796.9c-6.7,40.7-12.6,61.3-17.7,61.8
		c-2.6,0.2-4.9-3.6-6.7-11.6c-0.8-9.2-0.5-20.6,1.1-34.3c1.7-11.1,3.8-20.6,6.6-28.5c4.1-9.8,7.9-14.9,11.1-15.2
		c0.1,0,0.4,0.1,1,0.2c3,0.7,4.7,3.8,5.2,9.3l0.1,1.4C758.2,783.1,758,788.8,757.2,796.9z"/>
	<path d="M212.8,283.4c0.5,0.5,0.8,0.7,1.1,0.7c0.5,0,0.8-0.1,1.1-0.4l1.8-1.1l0.4,2.2c0.5,0.7,1,1.1,1.4,1.1c1.2,0,1.8-0.6,1.8-1.8
		l-0.7-2.9l2.2-1.4l0.7,3.6l1.1,1.1h1.1l3.6-1.1v2.5l-2.9,1.1c-1,0.5-1.3,1.2-1.1,2.2c0.7,0.7,1.2,1.1,1.4,1.1
		c0.2,0,0.4-0.1,0.4-0.4l2.2-0.4v2.2c0,1,0.5,1.4,1.4,1.4c1.2,0,1.8-0.5,1.8-1.4v-2.2l1.8,0.4c0,0.2,0.1,0.4,0.4,0.4
		c1,0,1.4-0.4,1.4-1.1c0.5-1.2,0.1-1.9-1.1-2.2l-2.9-0.7v-2.9l3.6,1.1c0.2,0,0.4,0.1,0.4,0.2c0,0.1,0.1,0.2,0.4,0.2l0.7-0.4
		c0.5-0.5,0.7-0.8,0.7-1.1l0.7-3.6l2.5,1.4l-0.7,2.9c-0.5,1.2-0.1,1.8,1.1,1.8c1.2,0,1.8-0.4,1.8-1.1l0.4-2.2l2.2,1.1
		c0,0.2,0.2,0.4,0.7,0.4c0.5,0,1-0.2,1.4-0.7c0.5-1,0.2-1.7-0.7-2.2l-1.8-1.1l1.4-1.4c0.7-0.7,0.7-1.4,0-2.2c0-0.5-0.4-0.7-1.1-0.7
		c-0.2,0-0.6,0.2-1.1,0.7l-2.2,1.8l-2.5-1.1l2.9-2.5c0.5-0.5,0.7-1,0.7-1.4c0-0.2-0.2-0.6-0.7-1.1l-2.9-2.5l2.5-1.1l2.2,1.8
		c0.5,0.5,0.8,0.7,1.1,0.7c0.2,0,0.6-0.2,1.1-0.7c0.7-0.7,0.7-1.4,0-2.2l-1.4-1.4l1.8-1.1c1-0.5,1.2-1.2,0.7-2.2
		c-0.5-1-1.2-1.2-2.2-0.7l-2.2,1.4l-0.4-2.2c0-1.2-0.6-1.6-1.8-1.1c-1.2,0-1.6,0.6-1.1,1.8l0.7,2.9l-2.5,1.4l-0.7-3.6
		c0-0.2-0.2-0.6-0.7-1.1c-0.2-0.5-0.6-0.5-1.1,0l-3.6,1.1v-2.9l2.9-0.7c0.7-0.5,1-1.2,0.7-2.2c0-1.2-0.6-1.4-1.8-0.7l-1.8,0.4v-2.2
		c0-1-0.6-1.4-1.8-1.4c-1,0-1.4,0.5-1.4,1.4v2.2l-1.8-0.7c-1,0-1.7,0.4-2.2,1.1c-0.5,1-0.1,1.7,1.1,2.2l2.9,0.7v2.9l-3.6-1.1
		c-0.2-0.5-0.6-0.5-1.1,0c-0.2,0-0.6,0.4-1.1,1.1l-0.7,3.6l-2.2-1.4l0.7-2.9c0-1.2-0.5-1.8-1.4-1.8c-0.7-0.2-1.3,0.1-1.8,1.1
		l-0.4,2.2l-1.8-1.4c-1-0.2-1.7,0-2.2,0.7c-0.5,1-0.4,1.7,0.4,2.2l2.2,1.1l-1.4,1.4c-0.7,0.7-0.8,1.4-0.4,2.2
		c0.2,0.2,0.6,0.4,1.1,0.4c0.7,0,1.1-0.1,1.1-0.4l2.5-1.8l2.2,1.1l-2.9,2.5c-0.2,0.2-0.4,0.6-0.4,1.1c0,0.7,0.1,1.1,0.4,1.1l2.9,2.5
		l-2.2,1.4l-2.5-2.2c-0.7-0.7-1.4-0.6-2.2,0.4c-0.7,0.5-0.6,1.2,0.4,2.2l1.4,1.4l-2.2,1.1C212.4,281.7,212.3,282.4,212.8,283.4z
		 M228.3,280.1l-2.9,1.1l-0.7-2.9l2.2-1.4c0.5,0.5,1,0.8,1.4,1.1V280.1z M234.5,281.2l-2.9-1.1v-2.2c0.2-0.2,0.5-0.4,0.7-0.5
		c0.2-0.1,0.5-0.3,0.7-0.5l1.8,1.4L234.5,281.2z M236.6,271.4l2.2,1.8l-2.2,2.2l-2.2-1.1v-1.1v-0.7L236.6,271.4z M231.6,266.7
		l2.9-1.1l0.4,2.9L233,270c-0.5-0.2-1-0.6-1.4-1.1V266.7z M229.8,271.8c1.2,0,1.8,0.5,1.8,1.4c0,1.2-0.6,1.8-1.8,1.8
		c-1,0-1.4-0.6-1.4-1.8C228.3,272.3,228.8,271.8,229.8,271.8z M225.4,265.7l2.9,1.1v2.2c-0.5,0.2-1,0.6-1.4,1.1l-2.2-1.4
		L225.4,265.7z M223.3,271.4l2.2,1.1c-0.2,0.2-0.4,0.5-0.4,0.7c0,0.5,0.1,0.8,0.4,1.1l-2.2,1.1l-2.2-2.2L223.3,271.4z"/>
	<path d="M230.9,199.5c0.5,0.5,0.8,0.7,1.1,0.7l0.4-0.4l1.8-0.7v1.4c0.5,0.7,0.8,1.1,1.1,1.1c1-0.2,1.4-0.7,1.4-1.4l-0.7-2.2
		l1.8-1.1l0.7,2.5c0,0.5,0.1,0.7,0.4,0.7c0.2,0.2,0.6,0.4,1.1,0.4l2.5-1.1v2.2l-2.2,0.7c-0.5,0-0.7,0.5-0.7,1.4
		c0,0.5,0.5,0.7,1.4,0.7l1.4-0.4v1.4c0,1,0.4,1.4,1.1,1.4c0.7,0,1.1-0.5,1.1-1.4v-1.4l1.4,0.4c1,0,1.4-0.2,1.4-0.7
		c0.2-0.5,0-1-0.7-1.4l-2.2-0.7v-2.2l2.9,1.1c1-0.2,1.4-0.6,1.4-1.1l0.4-2.5l1.8,1.1l-0.4,2.2c0,0.5,0.2,1,0.7,1.4
		c1,0,1.4-0.4,1.4-1.1l0.4-1.4l1.4,0.7c0,0.2,0.1,0.4,0.4,0.4c0.7,0,1.1-0.2,1.1-0.7c0.5-0.5,0.4-1-0.4-1.4l-1.4-0.7l1.1-1.1
		c0.5-0.5,0.6-1.1,0.4-1.8c-0.7-0.5-1.3-0.5-1.8,0l-1.8,1.4l-1.4-1.1l1.8-1.8c0.2,0,0.4-0.2,0.4-0.7c0-0.5-0.1-0.7-0.4-0.7l-1.8-1.8
		l1.4-1.1l1.8,1.4c0.2,0.2,0.5,0.4,0.7,0.4c0.5,0,0.8-0.1,1.1-0.4c0.5-0.5,0.4-1.1-0.4-1.8l-1.1-0.7l1.4-1.1c0.7-0.5,0.8-1,0.4-1.4
		c0-0.7-0.5-0.8-1.4-0.4l-1.4,0.7l-0.4-1.4c0-0.7-0.5-1.1-1.4-1.1c-0.5,0.5-0.7,1-0.7,1.4l0.4,2.2l-1.4,1.1l-0.7-2.5
		c0-0.5-0.2-0.7-0.7-0.7c0-0.2-0.2-0.4-0.7-0.4l-2.9,1.1v-2.2l2.2-0.7c1,0,1.2-0.5,0.7-1.4c0-0.5-0.5-0.7-1.4-0.7l-1.4,0.4v-1.4
		c0-1-0.4-1.4-1.1-1.4c-0.7,0-1.1,0.5-1.1,1.4v1.4l-1.4-0.4c-0.5-0.2-1,0-1.4,0.7c0,0.7,0.2,1.2,0.7,1.4l2.2,0.7v2.2l-2.5-1.1h-1.1
		c-0.2,0.2-0.4,0.5-0.4,0.7l-0.7,2.9l-1.8-1.1l0.7-2.2c0-0.7-0.4-1.2-1.1-1.4c-0.5,0-1,0.4-1.4,1.1v1.4l-1.8-0.7
		c-0.5-0.5-1-0.4-1.4,0.4c-0.2,0.2-0.1,0.7,0.4,1.4l1.4,0.7l-1.1,1.1c-0.5,0.5-0.5,1.1,0,1.8c0.2,0,0.4,0.1,0.4,0.2
		c0,0.1,0.1,0.2,0.4,0.2c0.2,0,0.5-0.1,0.7-0.4l1.8-1.4l1.8,0.7l-2.2,2.2l-0.4,0.7c0,0.2,0.1,0.5,0.4,0.7l2.2,1.8l-1.8,1.1l-1.8-1.4
		c-0.5-0.5-1-0.5-1.4,0c-0.5,0.5-0.5,1.1,0,1.8l1.1,0.7l-1.4,1.1C230.7,198.5,230.6,199,230.9,199.5z M242.4,197.3l-2.2,0.7
		l-0.4-2.2l1.4-1.1c0.5,0.5,0.8,0.7,1.1,0.7V197.3z M246.8,198l-2.2-0.7v-1.8c0.7,0,1.1-0.2,1.1-0.7l1.8,1.1L246.8,198z
		 M248.6,190.8l1.4,1.4l-1.4,1.4l-1.4-0.7v-0.7v-0.7L248.6,190.8z M244.6,187.2l2.2-0.7l0.7,2.2l-1.8,1.1c0-0.5-0.4-0.7-1.1-0.7
		V187.2z M243.5,191.2c0.7,0,1.1,0.4,1.1,1.1c0,0.7-0.4,1.1-1.1,1.1c-0.7,0-1.1-0.4-1.1-1.1C242.4,191.5,242.8,191.2,243.5,191.2z
		 M240.3,186.5l2.2,0.7v1.8c-0.2,0-0.6,0.2-1.1,0.7l-1.4-1.1L240.3,186.5z M238.8,190.8l1.4,0.7v0.7v0.7l-1.4,0.7l-1.8-1.4
		L238.8,190.8z"/>
	<path d="M295.8,466.2c0.4-0.1,0.8-0.4,1.3-0.9h0.7c0.5,0,1,0.1,1.4,0.4c0.5,0,1.4,0.2,2.9,0.7h1.4l0.4-0.7c0-0.7-0.2-1.1-0.7-1.1
		c-0.5-0.2-0.8-0.4-0.9-0.4c-0.1,0-0.4-0.1-0.9-0.4h-1.1c0.2-0.2,0.4-0.4,0.5-0.4c0.1,0,0.3-0.1,0.5-0.4l0.7-0.4
		c0.2-0.2,0.4-0.5,0.4-0.7v-0.7c-0.5-0.7-1-0.8-1.4-0.4c-0.2,0-0.5,0.1-0.7,0.4c-0.2,0-0.6,0.2-1.1,0.7c0.2-0.5,0.4-0.9,0.4-1.3
		c0-0.4,0.1-0.8,0.4-1.3V458l-0.7-0.4c-0.7,0-1.1,0.2-1.1,0.7c-0.2,0.5-0.4,0.8-0.4,0.9c0,0.1-0.1,0.4-0.4,0.9
		c0,0.5-0.2,1.4-0.7,2.9c-0.5,0.5-0.9,0.8-1.3,0.9c-0.4,0.1-0.8,0.4-1.3,0.9c-0.5,0.2-0.8,0.4-0.9,0.5c-0.1,0.1-0.4,0.3-0.9,0.5
		v-5.1l1.1-1.1l2.5-2.5c0.5-0.5,0.5-1,0-1.4c-0.5-0.5-1-0.5-1.4,0l-2.2,2.2V457v-1.1c0-0.7-0.4-1.1-1.1-1.1c-0.7,0-1.1,0.4-1.1,1.1
		v2.2c-0.2-0.5-0.5-0.8-0.7-0.9c-0.2-0.1-0.5-0.4-0.7-0.9c-0.2,0-0.4-0.1-0.4-0.2c0-0.1-0.1-0.2-0.4-0.2c-0.5-0.5-1-0.5-1.4,0
		c-0.5,0.5-0.5,1,0,1.4c0.7,0.5,1.4,1.1,2,1.8c0.6,0.7,1.1,1.3,1.6,1.8v5.1c-0.5-0.5-0.8-0.7-1.1-0.7c-0.5-0.5-0.9-0.8-1.3-0.9
		c-0.4-0.1-0.8-0.4-1.3-0.9h-0.7c0-0.7-0.1-1.2-0.4-1.4c0-0.5-0.2-1.4-0.7-2.9v-0.7l-0.7-0.7h-0.7c-0.5,0.5-0.7,1-0.7,1.4
		c0.2,0.2,0.4,0.8,0.4,1.8c0.2,0.2,0.4,0.6,0.4,1.1l-0.7-0.7c-0.2,0-0.4-0.1-0.5-0.2c-0.1-0.1-0.3-0.2-0.5-0.2
		c0-0.2-0.2-0.4-0.7-0.4l-0.7,0.7c0,0.7,0.1,1.2,0.4,1.4c0.2,0,0.5,0.1,0.7,0.4c0.2,0,0.6,0.2,1.1,0.7c-0.5,0-0.8,0.1-1.1,0.2
		c-0.2,0.1-0.6,0.2-1.1,0.2l-0.7,0.4l-0.7,0.7v0.4c0.5,0.7,1,1,1.4,0.7c0.5,0,0.8-0.1,0.9-0.2c0.1-0.1,0.4-0.2,0.9-0.2
		c0.5-0.2,1-0.4,1.4-0.4c0.5,0,1-0.1,1.4-0.4c1,0.2,1.9,0.7,2.9,1.4c0.2,0.2,0.5,0.4,0.7,0.5c0.2,0.1,0.5,0.3,0.7,0.5
		c-0.2,0-0.4,0.1-0.5,0.2c-0.1,0.1-0.3,0.2-0.5,0.2c-0.5,0.5-0.9,0.8-1.3,0.9c-0.4,0.1-0.8,0.4-1.3,0.9h-0.7c-0.5,0-0.8-0.1-1.1-0.4
		c-1,0-1.9-0.2-2.9-0.7H280h-0.7l-0.7,0.7c0,0.7,0.2,1.1,0.7,1.1c0.5,0.2,0.8,0.4,1.1,0.4c0.2,0,0.5,0.1,0.7,0.4
		c0.5,0,0.8,0.1,1.1,0.4c-0.2,0-0.4,0.1-0.4,0.2c0,0.1-0.1,0.2-0.4,0.2c-0.2,0.2-0.6,0.4-1.1,0.4c0,0.2-0.1,0.4-0.2,0.4
		c-0.1,0-0.2,0.1-0.2,0.4v0.7c0.5,0.7,1,0.8,1.4,0.4h0.7c0.5-0.5,0.8-0.7,1.1-0.7c0,0.5-0.1,0.8-0.2,1.1c-0.1,0.2-0.2,0.6-0.2,1.1
		c-0.2,0.5-0.4,1-0.4,1.4c0.2,0,0.4,0.1,0.4,0.2c0,0.1,0.1,0.2,0.4,0.2c0.7,0,1.2-0.2,1.4-0.7c0-0.5,0.1-0.8,0.2-0.9
		c0.1-0.1,0.2-0.4,0.2-0.9c0.2-0.5,0.4-1,0.4-1.4c0-0.5,0.1-1,0.4-1.4c1.4-1,2.3-1.6,2.5-1.8c1-0.5,1.6-0.7,1.8-0.7v4.7l-1.1,1.1
		c-0.2,0.5-0.8,1.2-1.8,2.2c-0.2,0-0.4,0.1-0.4,0.2c0,0.1-0.1,0.2-0.4,0.2c-0.5,0.5-0.5,1,0,1.4c0.7,0.2,1.2,0.2,1.4,0
		c0.5-0.2,1-0.6,1.4-1.1l0.7-0.7v1.1c0,1.2,0.4,1.8,1.1,1.8c0.7,0,1.1-0.4,1.1-1.1v-1.8c0.5,0.2,0.8,0.5,0.9,0.7
		c0.1,0.2,0.3,0.5,0.5,0.7c0.2,0,0.4,0.1,0.4,0.2c0,0.1,0.1,0.2,0.4,0.2c0.5,0.5,1,0.5,1.4,0c0.5-0.5,0.5-1,0-1.4
		c-0.2-0.2-0.5-0.4-0.7-0.5c-0.2-0.1-0.5-0.3-0.7-0.5c-1-1-1.7-1.8-2.2-2.5v-4.7c0.2,0,0.4,0.1,0.5,0.2c0.1,0.1,0.3,0.2,0.5,0.2
		c0.5,0.5,1,0.8,1.4,0.9c0.5,0.1,1,0.4,1.4,0.9l0.7,1.4c0.2,0.5,0.4,1,0.4,1.4c0,0.5,0.1,1,0.4,1.4c0,0.2,0.1,0.5,0.4,0.7
		c0,0.2,0.1,0.5,0.4,0.7h0.7c0.7-0.5,1-1,0.7-1.4c0-0.2-0.1-0.5-0.2-0.7c-0.1-0.2-0.2-0.6-0.2-1.1l-0.4-0.7c0.2,0,0.4,0.1,0.5,0.2
		c0.1,0.1,0.3,0.2,0.5,0.2c0,0.2,0.2,0.4,0.7,0.4c0.2,0.2,0.5,0.4,0.7,0.4c0.5,0,0.7-0.2,0.7-0.7c0.5-0.2,0.4-0.7-0.4-1.4h-0.7
		c-0.5-0.5-0.8-0.7-1.1-0.7c1-0.5,1.7-0.7,2.2-0.7c0.2,0,0.5-0.1,0.7-0.4c0.2,0,0.5-0.1,0.7-0.4v-0.7c-0.5-0.7-1-1-1.4-0.7
		c-0.2,0-0.5,0.1-0.7,0.2c-0.2,0.1-0.6,0.2-1.1,0.2c-1,0.5-1.8,0.7-2.5,0.7c-1.2-0.2-2.2-0.7-2.9-1.4c-1-0.5-1.6-0.7-1.8-0.7
		c0.5-0.5,0.8-0.7,1.1-0.7C295,466.6,295.4,466.3,295.8,466.2z"/>
	<path d="M189.5,433.5c5.4,7.5,12.2,13.4,20.4,17.7s17.8,6.5,28.9,6.5c11.1,0,21.6-3.9,31.5-11.8c9.9-7.8,18.5-17.7,25.9-29.7
		c7.4-11.9,13.1-25,17.4-39.1c4.2-14.1,6.3-27.4,6.3-40c0-4.3,0-8.6,0-12.8c0-4.2-0.2-8.4-0.7-12.5l-0.4-4.7
		c-0.7-14.2-2.1-27.9-4-41c-1.9-13.1-4-24.7-6.1-34.7c-2.2-10-4.4-18-6.7-24c-2.3-6-4.2-9-5.6-9c-4.1,0-7.7,0.9-10.7,2.7
		c-3,1.8-5.5,3.9-7.6,6.3c-2.1,2.4-3.6,4.8-4.5,7.1c-1,2.3-1.4,3.8-1.4,4.5c0,1.2,0.7,5.1,2.2,11.6c1.4,6.5,3.1,14.4,4.9,23.7
		c1.8,9.3,3.6,19.4,5.2,30.4c1.7,11,2.9,21.8,3.6,32.4c-5.5,1.9-11,4-16.3,6.3c-5.3,2.3-10.5,4.8-15.6,7.4
		c-2.9-7.2-6.9-13.6-12.1-19c-5.2-5.4-11.6-8.1-19.3-8.1c-6.5,0-12.8,2.1-19,6.1c-6.1,4.1-11.6,9.5-16.3,16.1
		c-4.7,6.6-8.5,14.1-11.4,22.4c-2.9,8.3-4.3,16.7-4.3,25.1c0,12.1,1.3,23.2,3.8,33.5C180.1,417.1,184,426,189.5,433.5z M287.6,221.5
		c-0.2-0.7-0.1-1.1,0.4-1.1c0.7-0.7,1.1-0.6,1.1,0.4c4.1,14.2,7.4,28.9,9.8,44.1c2.4,15.2,3.9,30.3,4.3,45.2c1.7,0.2,3.1,1,4.3,2.2
		c1.2,1.2,1.8,2.7,1.8,4.3c0,1.9-0.6,3.5-1.8,4.7c-1.2,1.2-2.7,1.9-4.3,2.2c-0.2,2.2-0.4,4.3-0.4,6.3c0,2.1-0.1,4.2-0.4,6.3
		c-0.5,7.5-1.3,15.2-2.4,23.1c-1.1,8-2.8,15.9-5.1,23.7c-2.3,7.8-5.2,15.2-8.7,22.2c-3.5,7-7.9,13.4-13.2,19.2
		c-0.2,0.2-0.5,0.4-0.7,0.4c-0.2,0-0.5-0.1-0.7-0.4c-0.2-0.2-0.2-0.6,0-1.1c5.1-5.1,9.3-11.2,12.8-18.3c3.5-7.1,6.4-14.6,8.9-22.6
		c2.4-8,4.2-16,5.4-24c1.2-8.1,1.9-15.5,2.2-22.2c0-2.2,0.1-4.3,0.2-6.5c0.1-2.2,0.2-4.2,0.2-6.1c-3.6-0.7-5.4-3-5.4-6.9
		c0-3.6,1.8-5.8,5.4-6.5c-0.5-14.9-1.9-30-4.2-45C294.9,250,291.7,235.5,287.6,221.5z M255.1,352.1c0.7,4.1,1.1,7.8,1.1,11.2
		c0,10.1-1.8,17.6-5.4,22.4c-3.6,4.8-7.6,7.2-11.9,7.2c-4.8,0-8.7-1.8-11.6-5.4c-2.9-3.6-4.3-7.8-4.3-12.7c0-6.3,2.6-12.4,8-18.3
		c5.3-5.9,12.3-11.5,21-16.8C253.3,343.9,254.4,348,255.1,352.1z M184.6,349.7c2.4-7.1,5.6-13.6,9.6-19.5c4-5.9,8.5-10.8,13.6-14.8
		c5.1-4,10.1-6,15.2-6c5.8,0,11,2.5,15.7,7.4c4.7,4.9,8.4,10.8,11,17.5c-9.2,5.8-16.6,12-22.2,18.6c-5.7,6.6-8.5,13.9-8.5,21.9
		c0,4.6,0.7,8.4,2.2,11.4c1.4,3,3.3,5.4,5.4,7.2c2.2,1.8,4.5,3.1,6.9,4c2.4,0.8,4.6,1.3,6.5,1.3c4.1,0,7.7-1.1,10.7-3.3
		c3-2.2,5.5-4.9,7.6-8.1c2-3.3,3.6-7,4.7-11.2c1.1-4.2,1.6-8.3,1.6-12.1c0-3.1-0.5-7.3-1.4-12.5c-1-5.2-2.4-10.5-4.3-16.1
		c4.3-2.4,9-4.8,14.1-7.1c5.1-2.3,10.1-4.4,15.2-6.3c0,1.4,0.1,3,0.2,4.7c0.1,1.7,0.2,3.3,0.2,4.7c0,10.6-1.6,22.2-4.7,34.7
		c-3.1,12.5-7.4,24.1-12.7,34.7c-5.3,10.6-11.5,19.5-18.4,26.6c-7,7.1-14.5,10.7-22.4,10.7c-15.9,0-28.1-6-36.5-17.9
		c-8.4-11.9-12.7-28.6-12.7-50.1C181,363.7,182.2,356.8,184.6,349.7z"/>
	<path d="M349.5,424.4c0.2,0.5,0.6,0.7,1.1,0.7h0.7l2.2-1.1l0.4,1.1v0.7c0,0.7,0.5,1.1,1.4,1.1h0.4c0.7,0,1.1-0.6,1.1-1.8l-0.7-2.9
		l2.2-1.1l0.7,3.6c0.2,0.5,0.5,0.7,0.7,0.7c0.2,0.2,0.7,0.4,1.4,0.4l3.3-1.4v2.9l-2.9,0.7c-1,0.5-1.2,1.1-0.7,1.8
		c0,0.7,0.5,1.1,1.4,1.1h0.4l1.8-0.7v2.5c0,1,0.5,1.4,1.4,1.4c1,0,1.4-0.5,1.4-1.4v-2.2l2.2,0.4h0.4c0.5,0,1-0.2,1.4-0.7
		c0-1-0.4-1.7-1.1-2.2l-2.9-0.7v-2.5l3.6,1.1h0.4c0.5,0,0.7-0.1,0.7-0.4c0.2,0,0.5-0.2,0.7-0.7l0.7-3.6l2.5,1.1l-0.7,2.9
		c-0.5,1.2-0.1,1.8,1.1,1.8h0.4c0.7,0,1.2-0.4,1.4-1.1v-0.7l0.4-1.1l1.8,1.1h0.7c0.7,0,1.2-0.2,1.4-0.7c0.5-1,0.4-1.6-0.4-1.8
		l-2.2-1.1l1.4-1.4c0.7-0.7,0.8-1.4,0.4-2.2c-0.7-0.7-1.4-0.7-2.2,0l-2.2,1.8l-2.2-1.1l2.5-2.5c0.2-0.2,0.4-0.6,0.4-1.1
		c0-0.5-0.1-0.8-0.4-1.1l-2.5-2.5l2.2-1.1l2.2,1.8c0.2,0.2,0.6,0.4,1.1,0.4c0.5,0,0.8-0.1,1.1-0.4c0.5-0.7,0.4-1.4-0.4-2.2l-1.4-1.1
		l2.2-1.4c0.7-0.2,0.8-0.8,0.4-1.8c-0.5-1-1.1-1.2-1.8-0.7l-2.2,1.1l-0.4-1.8c0-1.2-0.6-1.6-1.8-1.1c-0.7,0-1.1,0.6-1.1,1.8l0.7,2.9
		l-2.2,1.1l-1.1-3.6c0-0.5-0.2-0.7-0.7-0.7c-0.2-0.2-0.6-0.4-1.1-0.4l-3.3,1.4v-2.9l2.5-0.7c1-0.5,1.3-1.1,1.1-1.8
		c-0.5-1.2-1.1-1.6-1.8-1.1l-2.2,0.7v-2.5c0-1-0.5-1.4-1.4-1.4c-1,0-1.4,0.5-1.4,1.4v2.2l-1.8-0.4c-0.7-0.5-1.3-0.2-1.8,0.7
		c-0.2,1,0,1.7,0.7,2.2l2.9,0.7v2.5l-3.3-1.1c-0.7,0-1.2,0.1-1.4,0.4l-0.7,0.7l-0.7,3.6l-2.2-1.1l0.7-2.9c0-1.2-0.4-1.8-1.1-1.8
		c-1.2-0.5-1.8-0.1-1.8,1.1l-0.4,1.8l-2.2-1.1c-0.7-0.5-1.3-0.2-1.8,0.7c-0.5,1-0.4,1.6,0.4,1.8l2.2,1.1l-1.8,1.4
		c-0.2,0.7-0.2,1.4,0,2.2c0.2,0.2,0.6,0.4,1.1,0.4c0.5,0,0.8-0.1,1.1-0.4l2.2-1.8l2.2,1.1l-2.5,2.5c-0.2,0.2-0.4,0.6-0.4,1.1
		c0,0.5,0.1,0.8,0.4,1.1l2.5,2.5l-2.2,1.1l-2.2-1.8c-0.7-0.7-1.4-0.7-2.2,0c-0.5,0.7-0.4,1.4,0.4,2.2l1.4,1.1l-2.2,1.4
		C349.1,422.8,349,423.4,349.5,424.4z M364.3,421.5l-2.9,0.7l-0.4-2.5l1.8-1.4c0.2,0.2,0.5,0.4,0.7,0.5c0.2,0.1,0.5,0.3,0.7,0.5
		V421.5z M370.1,422.2l-2.5-0.7v-2.2l1.1-1.1l2.2,1.4L370.1,422.2z M372.3,412.8l2.2,2.2l-2.2,1.8l-2.2-1.1c0.2-0.2,0.4-0.5,0.4-0.7
		c0-0.5-0.1-0.7-0.4-0.7L372.3,412.8z M367.2,408.5h0.4l2.5-0.7l0.7,2.5l-2.2,1.4c-0.5-0.5-1-0.8-1.4-1.1V408.5z M365.7,413.6
		c1,0,1.4,0.5,1.4,1.4c0,1-0.5,1.4-1.4,1.4c-1,0-1.4-0.5-1.4-1.4C364.3,414,364.8,413.6,365.7,413.6z M361.4,407.4l2.9,1.1v2.2
		c-0.2,0.2-0.5,0.4-0.7,0.5c-0.2,0.1-0.5,0.3-0.7,0.5l-1.8-1.4L361.4,407.4z M359.6,412.8l1.8,1.4v1.4l-1.8,1.1l-2.2-1.8
		L359.6,412.8z"/>
	<path d="M367.2,365.1c8.4,0,15.4-3.3,21-9.8c5.5-6.5,10-14.3,13.4-23.5c7.2,0,13.3-1.3,18.1-3.8c4.8-2.5,8.8-5.5,11.9-8.9
		c0.7-0.7,1.3-1.5,1.9-2.3c0.2,4.2,0.5,8.7,1.1,13.5c0.8,7,2.4,13.6,4.7,19.7c2.3,6.1,5.4,11.3,9.2,15.6c3.9,4.2,8.8,6.3,14.8,6.3
		c3.1,0,6.1-1.3,9-3.8c2.9-2.5,5.6-5.8,8.1-9.9c2.5-4.1,5-8.8,7.4-14.1c2.4-5.3,4.6-10.7,6.5-16.3c4.3-13,8.4-27.7,12.3-44.1
		c2.6,4.3,4.9,10.1,6.9,17.4c1.9,6.3,3.6,14.5,4.9,24.8c1.3,10.2,2,23.1,2,38.5v1.8c-6.8,7.2-13.6,14.2-20.4,20.8
		c-6.9,6.6-13.1,13-18.6,19.2c-5.5,6.1-10,12.1-13.4,17.9c-3.4,5.8-5.1,11.4-5.1,17c0,9.6,2,17.4,6.2,23.1c4.1,5.8,9.5,8.7,16.3,8.7
		c7.2,0,14.3-2.3,21.2-6.9c6.9-4.6,13-11,18.4-19.3c5.4-8.3,9.8-18.2,13-29.7c3.3-11.5,4.9-23.9,4.9-37.4c0-7-0.4-14.5-1.1-22.4
		c5.5-7,11-14.8,16.5-23.3c5.4-8.6,9.9-19.1,13.6-31.6c0.5-1.4,0.4-2.6-0.2-3.4c-0.6-0.8-1.3-1.3-2-1.3c-1,0-1.7,0.7-2.2,2.2
		c-2.7,9.6-6.5,18.4-11.4,26.4c-4.9,8-9.9,15.4-15,22.4c-0.5-4.3-1.4-10.9-2.9-19.7c-1.4-8.8-3.5-17.6-6.1-26.4
		c-2.7-8.8-6-16.5-9.9-23.1c-4-6.6-8.6-9.9-13.9-9.9c-3.1,0-5,0.8-5.6,2.4c-0.6,1.6-0.9,3.2-0.9,4.9c0,0.5-0.7,2.8-2,7.1
		c-1.3,4.2-3,9.3-5.1,15.4c-2.1,6-4.3,12.5-6.9,19.5c-2.5,7-4.9,13.4-7.2,19.3c-2.3,5.9-4.3,10.8-6,14.6c-1.7,3.9-2.9,5.8-3.6,5.8
		c-2.4,0-4-2.1-4.9-6.3c-0.8-4.2-1.2-9.6-1.1-16.3c0.1-6.6,0.7-13.8,1.6-21.5c1-7.7,1.9-15.1,2.9-22.1c1-7,1.9-13.1,2.7-18.3
		c0.8-5.2,1.3-8.4,1.3-9.6c0-1.9-0.9-3.9-2.7-5.8c-1.8-1.9-4-3.6-6.5-5.1c-2.5-1.4-5-2.6-7.4-3.4c-2.4-0.8-4.3-1.3-5.8-1.3
		c-2.7,0-4.3,1-5.1,2.9c-0.7,1.9-1.1,3.9-1.1,5.8c0,1-0.6,3.5-1.8,7.6c-1.2,4.1-2.5,8.9-4,14.3c-1.4,5.4-2.8,11-4,16.8
		c-1.1,5.1-1.6,9.6-1.8,13.6c-1.4,2.4-3.1,4.7-5.3,6.9c-2.8,2.8-6.2,5.1-10.1,7.1c-4,1.9-8.9,2.9-14.6,2.9
		c2.2-7.5,3.8-15.1,4.9-22.8c1.1-7.7,1.6-14.8,1.6-21.3c0-12.8-3.4-22.6-10.3-29.5c-6.9-6.9-14.6-10.3-23.3-10.3
		c-4.3,0-8.6,0.9-12.7,2.7c-4.1,1.8-7.8,4.2-11,7.2c-3.3,3-5.9,6.6-8,10.7c-2.1,4.1-3.1,8.6-3.1,13.4c0,2.4,0.2,5.1,0.7,8
		c0.5,2.9,1.3,6,2.5,9.4c-4.3,4.3-8,9.3-11,15c-3,5.7-4.5,11.8-4.5,18.3c0,10.1,3.2,19,9.6,26.6
		C345.2,361.3,354.7,365.1,367.2,365.1z M486.5,455.1c-3.9,0-7-1.4-9.4-4.3c-2.4-2.9-3.6-7.6-3.6-14.1c0-4.8,1.3-9.5,4-14.1
		c2.6-4.6,6.1-9.3,10.5-14.3c4.3-4.9,9.3-10.1,15-15.4c5.7-5.3,11.5-11.1,17.5-17.4c-0.7,28-4.2,48.2-10.3,60.8
		C504.1,448.9,496.2,455.1,486.5,455.1z M525.6,407.4c1-7,1.6-14,2-21c0.4-7,0.5-12.8,0.5-17.4c-1.4-0.2-2.7-1-3.8-2.2
		c-1.1-1.2-1.6-2.6-1.6-4.3c0-1.7,0.5-3.1,1.6-4.3c1.1-1.2,2.4-1.9,3.8-2.2c0-12.3-0.7-22.8-2.2-31.5c0-0.7,0.2-1.1,0.7-1.1
		c0.5,0,0.7,0.2,0.7,0.7c0.7,4.1,1.3,8.9,1.6,14.3c0.4,5.4,0.7,11.3,0.9,17.5c1.7,0,3.1,0.6,4.3,1.8c1.2,1.2,1.8,2.8,1.8,4.7
		c0,1.9-0.6,3.5-1.8,4.7c-1.2,1.2-2.7,1.8-4.3,1.8c-0.2,7.5-0.7,15-1.3,22.6c-0.6,7.6-1.4,14.7-2.4,21.3c-1,6.6-2.2,12.5-3.8,17.7
		c-1.6,5.2-3.3,9.2-5.2,12.1l-0.7,0.4c-0.5-0.5-0.7-1-0.7-1.4c2.4-3.4,4.4-8.2,6-14.5C523.4,421,524.6,414.4,525.6,407.4z
		 M447.7,300.2c1.3-1.3,2.9-2,4.9-2c1-7.2,2-14,3.3-20.4c1.2-6.4,2.3-11.6,3.3-15.7c0-1,0.4-1.1,1.1-0.4c0.7,0,0.8,0.2,0.4,0.7
		c-1.2,4.8-2.4,10.3-3.4,16.5c-1.1,6.1-2.1,12.7-3.1,19.7c3.4,0.7,5.1,2.9,5.1,6.5c0,1.9-0.6,3.5-1.8,4.7c-1.2,1.2-2.8,1.8-4.7,1.8
		c-0.7,9.2-0.9,17.5-0.5,25c0.4,7.5,1.7,12.9,4.2,16.3c0.5,0.2,0.5,0.6,0,1.1h-1.4c-2.7-3.6-4.2-9.3-4.5-17
		c-0.4-7.7-0.1-16.1,0.9-25.3c-3.6-0.7-5.4-2.9-5.4-6.5C445.7,303.1,446.3,301.5,447.7,300.2z M386.4,349.7
		c-3.1,4.9-6.4,7.4-9.8,7.4c-3.9,0-6.9-1.6-9-4.9c-2.2-3.3-3.9-7.1-5.1-11.4c-1.2-4.3-2-8.7-2.4-13.2c-0.4-4.5-0.5-8-0.5-10.7
		c4.3,3.9,9.4,7.1,15.2,9.6s12.5,4.2,20.3,4.9C392.4,338.7,389.5,344.8,386.4,349.7z M353.5,265.1c1.7-3.3,3.9-6,6.5-8.1
		c2.6-2.2,5.5-3.8,8.5-4.9c3-1.1,5.7-1.6,8.1-1.6c7.7,0,13.4,1.8,17.2,5.2c3.7,3.5,6.4,7.3,8.1,11.4c1.7,4.8,2.5,10.4,2.5,16.6
		c0,5.8-0.7,12.5-2,20.3c-1.3,7.7-3.1,15.1-5.2,22.1c-8.4-0.5-15.5-2.4-21.2-5.6c-5.7-3.3-10.2-7.3-13.6-12.1
		c1.4-3.6,3.2-6.9,5.2-9.8c2-2.9,4.1-5.4,6.1-7.6c2-2.2,3.7-4,5.1-5.4c1.3-1.4,2-2.5,2-3.3c0-3.1-2.2-4.7-6.5-4.7
		c-2.9,0-6.3,0.8-10.3,2.4c-4,1.6-8,4-12.1,7.4c-0.5-1.9-0.8-3.9-0.9-5.8c-0.1-1.9-0.2-3.6-0.2-5.1
		C350.9,272.2,351.8,268.4,353.5,265.1z M340.6,314.5c1.3-1.2,3-1.8,4.9-1.8h1.1c1.9-4.8,4.5-9.5,7.8-13.9
		c3.3-4.5,7.1-8.4,11.4-11.8c0.5-0.5,1-0.4,1.4,0.4c0,0.5-0.1,0.8-0.4,1.1c-4.1,3.4-7.8,7.2-11,11.4c-3.3,4.2-5.7,8.6-7.4,13.2
		c2.4,1.2,3.6,3.3,3.6,6.1c0,1.9-0.6,3.6-1.8,4.9c-1.2,1.3-2.8,2-4.7,2c-0.7,7.2,1.4,14,6.5,20.3c0.5,0.2,0.5,0.6,0,1.1l-0.4,0.4
		c-0.2,0-0.5-0.1-0.7-0.4c-5.1-6.3-7.5-13.5-7.2-21.7c-3.4-1-5.1-3.1-5.1-6.5C338.6,317.2,339.3,315.7,340.6,314.5z"/>
	<path d="M381.7,183.2c0.2,0.5,0.6,0.7,1.1,0.7h0.7l2.2-1.1l0.4,1.1v0.7c0,0.7,0.5,1.1,1.4,1.1h0.4c0.7,0,1.1-0.6,1.1-1.8l-0.7-2.9
		l2.2-1.1l1.1,3.6c0.2,0.5,0.5,0.7,0.7,0.7c0.2,0.2,0.6,0.4,1.1,0.4l3.3-1.4v2.9l-2.5,0.7c-1,0.5-1.3,1.1-1.1,1.8
		c0.5,0.7,1,1.1,1.4,1.1h0.4l1.8-0.7v2.5c0,1,0.6,1.4,1.8,1.4c1,0,1.4-0.5,1.4-1.4v-2.2l1.8,0.4h0.4c0.5,0,1-0.2,1.4-0.7
		c0.2-1-0.1-1.7-1.1-2.2l-2.5-0.7v-2.5l3.3,1.1h0.4c0.5,0,0.7-0.1,0.7-0.4c0.2,0,0.5-0.2,0.7-0.7l0.7-3.6l2.5,1.1l-0.7,2.9
		c0,1.2,0.4,1.8,1.1,1.8h0.4c1,0,1.4-0.4,1.4-1.1v-0.7l0.4-1.1l1.8,1.1h0.7c0.7,0,1.2-0.2,1.4-0.7c0.5-1,0.4-1.6-0.4-1.8l-2.2-1.1
		l1.4-1.4c0.7-0.7,0.8-1.4,0.4-2.2c-0.7-0.7-1.4-0.7-2.2,0l-2.2,1.8l-2.2-1.1l2.5-2.5c0.2-0.2,0.4-0.6,0.4-1.1
		c0-0.5-0.1-0.8-0.4-1.1l-2.5-2.5l2.2-1.1l2.2,1.8c0.2,0.2,0.6,0.4,1.1,0.4c0.5,0,0.8-0.1,1.1-0.4c0.5-0.7,0.5-1.4,0-2.2l-1.8-1.1
		l2.2-1.4c0.7-0.2,0.8-0.8,0.4-1.8c-0.5-1-1.1-1.2-1.8-0.7l-2.2,1.1l-0.4-1.8c0-1.2-0.6-1.6-1.8-1.1c-0.7,0-1.1,0.6-1.1,1.8l0.7,2.9
		l-2.2,1.1l-0.7-3.6l-0.7-0.7c-0.2-0.2-0.7-0.4-1.4-0.4l-3.3,1.4v-2.9l2.5-0.7c1.2-0.5,1.6-1.1,1.1-1.8c-0.5-1.2-1.1-1.6-1.8-1.1
		l-1.8,0.7v-2.5c0-1-0.5-1.4-1.4-1.4c-1.2,0-1.8,0.5-1.8,1.4v2.2l-1.8-0.4c-0.7-0.5-1.3-0.2-1.8,0.7c-0.2,1,0.1,1.7,1.1,2.2l2.5,0.7
		v2.5l-3.3-1.1c-0.5,0-0.8,0.1-1.1,0.4c-0.5,0-0.7,0.2-0.7,0.7l-1.1,3.6l-2.2-1.1l0.7-2.9c0-1.2-0.4-1.8-1.1-1.8
		c-0.5-0.2-0.9-0.2-1.3,0c-0.4,0.2-0.5,0.6-0.5,1.1l-0.4,1.8l-2.2-1.1c-0.7-0.5-1.3-0.2-1.8,0.7c-0.5,1-0.4,1.6,0.4,1.8l2.2,1.1
		l-1.4,1.4c-0.7,0.7-0.8,1.4-0.4,2.2c0.2,0.2,0.6,0.4,1.1,0.4c0.5,0,0.8-0.1,1.1-0.4l2.2-1.8l2.2,1.1l-2.5,2.5
		c-0.2,0.2-0.4,0.6-0.4,1.1c0,0.5,0.1,0.8,0.4,1.1l2.5,2.5l-2.2,1.1l-2.2-1.8c-0.7-0.7-1.4-0.7-2.2,0c-0.5,0.7-0.4,1.4,0.4,2.2
		l1.4,1.1l-2.2,1.4C381.3,181.6,381.2,182.2,381.7,183.2z M396.5,180.3L394,181l-0.7-2.5l1.8-1.4c0.5,0.2,1,0.6,1.4,1.1V180.3z
		 M402.3,181l-2.5-0.7v-2.2c0.2-0.2,0.5-0.4,0.7-0.5c0.2-0.1,0.5-0.3,0.7-0.5l1.8,1.4L402.3,181z M404.4,171.6l2.2,2.2l-2.2,1.8
		l-1.8-1.1v-1.4L404.4,171.6z M399.7,167.3l2.5-0.7l0.7,2.5l-1.8,1.4c-0.5-0.2-1-0.6-1.4-1.1V167.3z M398.3,172.3
		c1,0,1.4,0.5,1.4,1.4c0,1-0.5,1.4-1.4,1.4c-1.2,0-1.8-0.5-1.8-1.4C396.5,172.8,397.1,172.3,398.3,172.3z M394,166.2l2.5,1.1v2.2
		c-0.5,0.5-1,0.8-1.4,1.1l-1.8-1.4L394,166.2z M391.8,172l1.8,1.1v1.4l-1.8,1.1l-2.2-1.8L391.8,172z"/>
	<path d="M472.1,180.7c-1.9,1-3.4,1.8-4.3,2.5l-0.7,0.4c-0.5-0.2-0.8-0.4-1.1-0.4c-0.2,0-0.6-0.1-1.1-0.4l-4.3-1.1
		c-0.5,0-0.8-0.1-1.1-0.4c-0.5,0-0.8,0.1-1.1,0.4c-0.5,0-0.7,0.2-0.7,0.7c0,1,0.4,1.7,1.1,2.2c0.5,0.2,1,0.4,1.4,0.4
		c0.5,0,1,0.1,1.4,0.4c0.2,0,0.5,0.1,0.7,0.2c0.2,0.1,0.5,0.2,0.7,0.2c-0.5,0.5-1,0.8-1.4,1.1c-0.2,0-0.4,0.1-0.5,0.2
		c-0.1,0.1-0.3,0.2-0.5,0.2c-0.5,0.5-0.7,0.8-0.7,1.1c-0.5,0.5-0.5,1,0,1.4c0.5,0.7,1.2,0.8,2.2,0.4c0.2,0,0.5-0.1,0.7-0.4l2.2-1.1
		l-1.1,3.3c0,0.5-0.1,0.8-0.4,1.1c0,0.5,0.1,0.8,0.4,1.1c0,0.5,0.4,0.7,1.1,0.7c0.7,0.5,1.3,0.1,1.8-1.1c0.2-0.5,0.4-0.9,0.4-1.3
		c0-0.4,0.1-0.8,0.4-1.3l1.1-4.3c0.7-0.7,1.4-1.3,2.2-1.6c0.7-0.4,1.3-0.8,1.8-1.3c0.5-0.2,1-0.5,1.4-0.7c0.5-0.2,1-0.5,1.4-0.7v7.6
		l-1.4,1.4l-3.3,3.3l-0.7,0.7c-1,1-1,1.7,0,2.2c0.2,0.2,0.6,0.4,1.1,0.4c0.5,0,0.8-0.1,1.1-0.4l3.3-2.9v1.4v1.4
		c0,1.2,0.5,1.8,1.4,1.8c1.2,0,1.8-0.6,1.8-1.8v-2.9l2.9,2.9c0.2,0.2,0.7,0.4,1.4,0.4c0.5,0,0.8-0.1,1.1-0.4c0.7-0.7,0.7-1.4,0-2.2
		c-0.5-0.5-0.8-0.8-1.1-0.9c-0.2-0.1-0.6-0.4-1.1-0.9l-3.3-3.3v-8c0.2,0.2,0.5,0.4,0.7,0.5c0.2,0.1,0.5,0.3,0.7,0.5l4.3,2.2l0.7,0.7
		c0,0.2,0.2,0.8,0.7,1.8l1.1,4.3v1.1l1.1,1.1h0.4h0.7c0.5,0,0.8-0.2,1.1-0.5c0.2-0.4,0.2-0.8,0-1.3c-0.2-0.5-0.4-1-0.4-1.4
		c0-0.5-0.1-1-0.4-1.4c0-0.2-0.1-0.5-0.2-0.7c-0.1-0.2-0.2-0.5-0.2-0.7l1.4,0.7c0.7,0.7,1.6,1.1,2.5,1.1l0.7-0.7
		c0.7-1,0.6-1.7-0.4-2.2c-0.5-0.5-1-0.8-1.4-1.1c-0.5-0.2-1-0.5-1.4-0.7c1.4-0.5,2.7-0.7,3.6-0.7c0-0.2,0.2-0.4,0.7-0.4
		c0.2,0,0.6-0.2,1.1-0.7c0.2-0.2,0.2-0.7,0-1.4c0-0.7-0.6-1.1-1.8-1.1c-1.4,0.5-2.4,0.7-2.9,0.7c-0.7,0.2-1.4,0.5-2.2,0.7
		c-0.7,0.2-1.4,0.5-2.2,0.7l-4.3-2.2c-0.5-0.5-0.9-0.8-1.3-0.9c-0.4-0.1-0.8-0.4-1.3-0.9l1.4-0.7c0.7-0.5,1.4-0.9,2.2-1.3
		c0.7-0.4,1.4-0.8,2.2-1.3c0.2,0,0.5-0.1,0.7-0.4c0.5,0,0.8,0.1,1.1,0.2c0.2,0.1,0.6,0.2,1.1,0.2c1.9,0.5,3.4,1,4.3,1.4h1.1h1.1
		c0.5-0.5,0.7-0.8,0.7-1.1c0.7-1.2,0.4-1.8-1.1-1.8c-1-0.5-1.8-0.7-2.5-0.7c-0.5-0.2-1.1-0.4-1.8-0.4c0.5-0.2,1-0.6,1.4-1.1
		c0.5,0,1-0.2,1.4-0.7c0.5,0,0.7-0.4,0.7-1.1c0-0.5-0.1-0.8-0.4-1.1c-0.5-1-1.2-1.2-2.2-0.7l-0.7,0.7c-0.5,0.2-0.8,0.4-0.9,0.5
		c-0.1,0.1-0.4,0.3-0.9,0.5c0.2-0.5,0.4-1,0.4-1.6c0-0.6,0.1-1.1,0.4-1.6c0.2-0.2,0.4-0.6,0.4-1.1v-1.4c-0.2-0.2-0.4-0.4-0.5-0.4
		c-0.1,0-0.3-0.1-0.5-0.4c-1,0-1.7,0.4-2.2,1.1c0,0.5-0.2,1.4-0.7,2.9l-1.1,4.3c-1.4,1-2.8,1.8-4,2.5c-0.5,0.5-0.9,0.8-1.3,0.9
		c-0.4,0.1-0.8,0.4-1.3,0.9v-7.6c0.2-0.5,0.7-1.1,1.4-1.8l3.3-3.3l0.7-0.7c0.7-0.7,0.7-1.4,0-2.2c-0.2-0.2-0.7-0.4-1.4-0.4
		c-0.5,0-0.8,0.1-1.1,0.4c-0.2,0.5-0.8,1.2-1.8,2.2l-1.1,1.1v-1.8v-1.4c0-1-0.6-1.4-1.8-1.4c-1,0-1.4,0.5-1.4,1.4v3.3l-2.5-2.5
		l-0.7-0.7c-1.2-0.5-1.9-0.5-2.2,0c-1,1-1,1.7,0,2.2c0.5,0.5,0.8,0.8,0.9,1.1c0.1,0.2,0.4,0.6,0.9,1.1l3.6,3.6v7.6
		c-0.5-0.2-0.8-0.4-0.9-0.5c-0.1-0.1-0.4-0.3-0.9-0.5c-0.5-0.5-1.1-0.9-1.8-1.3c-0.7-0.4-1.4-0.8-2.2-1.3c-0.5,0-0.7-0.1-0.7-0.4
		c-0.5-1-0.7-1.7-0.7-2.2l-1.1-4.3c-0.2-0.2-0.4-0.6-0.4-1.1c0-0.5-0.2-0.7-0.7-0.7c-0.2-0.2-0.6-0.4-1.1-0.4c-1,0.2-1.4,1-1.4,2.2
		c0.5,1,0.7,1.8,0.7,2.5c0.2,0.5,0.4,0.8,0.4,0.9c0,0.1,0.1,0.4,0.4,0.9l-1.4-0.7c-0.5-0.5-1-0.7-1.4-0.7c-0.2-0.2-0.6-0.4-1.1-0.4
		c-0.2,0-0.6,0.2-1.1,0.7c-0.5,1-0.2,1.7,0.7,2.2c0,0.2,0.2,0.4,0.7,0.4c0.5,0.2,0.8,0.5,0.9,0.7c0.1,0.2,0.4,0.5,0.9,0.7
		c-0.7,0-1.8,0.2-3.3,0.7c-0.7,0-1.4,0.4-2.2,1.1v1.1c0.5,1.2,1.1,1.6,1.8,1.1c1,0,1.9-0.2,2.9-0.7l4.3-1.1c1,0.5,1.7,0.8,2.4,1.1
		c0.6,0.2,1.3,0.6,2,1.1c0.5,0.2,0.9,0.5,1.3,0.7c0.4,0.2,0.8,0.5,1.3,0.7c-0.2,0.2-0.5,0.4-0.7,0.5
		C472.5,180.2,472.3,180.4,472.1,180.7z"/>
	<path d="M448.7,402.3c-0.4,0.2-0.8,0.5-1.3,0.7h-2.2c-0.7-0.2-1.8-0.6-3.3-1.1c-0.5,0-1,0.2-1.4,0.7c0,0.5,0.2,1,0.7,1.4
		c0.5,0,0.8,0.1,0.9,0.2c0.1,0.1,0.4,0.2,0.9,0.2c0.2,0,0.4,0.1,0.5,0.2c0.1,0.1,0.3,0.2,0.5,0.2c-0.2,0.2-0.4,0.4-0.5,0.4
		c-0.1,0-0.3,0.1-0.5,0.4l-0.7,0.4c-0.2,0-0.4,0.2-0.4,0.7v0.7c0.7,0.7,1.2,0.8,1.4,0.4c0.2,0,0.4-0.1,0.4-0.2
		c0-0.1,0.1-0.2,0.4-0.2c0.2-0.2,0.4-0.4,0.5-0.4c0.1,0,0.3-0.1,0.5-0.4c-0.2,0.5-0.4,0.8-0.4,1.1c0,0.2-0.1,0.6-0.4,1.1v0.7v0.7
		l0.7,0.7c0.5,0,1-0.2,1.4-0.7c0-1,0.1-1.6,0.4-1.8c0.2-0.5,0.4-1,0.4-1.4c0-0.5,0.1-1,0.4-1.4v-0.4c0.2,0,1-0.4,2.2-1.1
		c1.2-0.7,1.9-1.2,2.2-1.4v5.1l-1.1,1.1c-0.5,0.5-0.8,0.8-0.9,1.1c-0.1,0.2-0.4,0.6-0.9,1.1c-0.2,0-0.5,0.1-0.7,0.4
		c-0.5,0.5-0.5,1,0,1.4c0.5,0.5,1,0.5,1.4,0c0.7-0.2,1.2-0.7,1.4-1.4l0.7-0.7v1.1v1.1c0,0.7,0.4,1.1,1.1,1.1c0.7,0,1.1-0.4,1.1-1.1
		v-2.2l2.2,2.2c0.5,0.5,1,0.5,1.4,0c0.5-0.5,0.5-1,0-1.4c-0.2-0.2-0.4-0.5-0.5-0.7c-0.1-0.2-0.4-0.5-0.9-0.7l-2.2-2.2v-5.1
		c0.2,0.2,0.4,0.4,0.5,0.4c0.1,0,0.3,0.1,0.5,0.4c0.5,0.2,1,0.5,1.4,0.7c0.5,0.2,1,0.5,1.4,0.7c0.5,1,0.7,1.6,0.7,1.8
		c0.5,1,0.7,1.9,0.7,2.9l0.4,0.7l0.7,0.7h0.4c0.7-0.5,1-1,0.7-1.4c0-0.2-0.1-0.7-0.2-1.4c-0.1-0.7-0.3-1.2-0.5-1.4
		c0.2,0.2,0.4,0.4,0.5,0.4c0.1,0,0.3,0.1,0.5,0.4c0.2,0,0.5,0.1,0.7,0.4h0.7c0.5,0,0.7-0.1,0.7-0.4c0.2-0.7,0.1-1.2-0.4-1.4
		c-0.5-0.5-0.8-0.7-1.1-0.7c-0.2,0-0.5-0.1-0.7-0.4c0.5-0.2,0.8-0.4,1.1-0.4c0.2,0,0.6-0.1,1.1-0.4h0.7c0.2,0,0.5-0.1,0.7-0.4v-1.1
		c0-0.5-0.4-0.7-1.1-0.7c-0.5,0.2-0.8,0.4-1.1,0.4c-0.2,0-0.5,0.1-0.7,0.4c-1,0-1.9,0.2-2.9,0.7c-0.5-0.5-1-0.8-1.4-0.9
		c-0.5-0.1-1-0.3-1.4-0.5c-0.5-0.2-0.8-0.4-0.9-0.5c-0.1-0.1-0.4-0.3-0.9-0.5c0.2-0.2,0.4-0.4,0.5-0.4c0.1,0,0.3-0.1,0.5-0.4
		c0.5-0.2,1-0.5,1.4-0.7c0.5-0.2,1.1-0.6,1.8-1.1c0.2,0,0.5,0.1,0.7,0.2c0.2,0.1,0.5,0.2,0.7,0.2c0.5,0.2,1,0.4,1.4,0.4
		c0.5,0,1,0.1,1.4,0.4l0.7,0.4h0.4l0.7-0.7c0.5-1,0.2-1.4-0.7-1.4c-0.5,0-0.8-0.1-0.9-0.2c-0.1-0.1-0.4-0.2-0.9-0.2
		c-0.2-0.2-0.6-0.4-1.1-0.4c0.2-0.2,0.4-0.4,0.5-0.4c0.1,0,0.3-0.1,0.5-0.4c0.2,0,0.4-0.1,0.4-0.2c0-0.1,0.1-0.2,0.4-0.2l0.7-0.7
		c0-0.2-0.1-0.5-0.4-0.7c-0.5-0.5-1-0.6-1.4-0.4c-1,0.5-1.6,0.8-1.8,1.1c0.2-0.5,0.4-0.8,0.4-1.1c0-0.2,0.1-0.6,0.4-1.1v-0.7
		c0.2-0.2,0.2-0.5,0-0.7c0-0.5-0.2-0.7-0.7-0.7c-0.7,0-1.1,0.2-1.1,0.7c-0.2,0.5-0.4,0.8-0.4,1.1c0,0.2-0.1,0.5-0.4,0.7
		c0,1-0.2,1.9-0.7,2.9c-0.7,0.7-1.6,1.3-2.5,1.8c-0.5,0.2-0.8,0.4-0.9,0.5c-0.1,0.1-0.4,0.3-0.9,0.5V394l1.1-1.1l2.5-2.5
		c0.5-0.5,0.5-1,0-1.4c-0.5-0.5-1-0.5-1.4,0c-0.2,0.2-0.5,0.4-0.7,0.5c-0.2,0.1-0.5,0.4-0.7,0.9l-0.7,0.7v-1.1V389
		c0-0.7-0.4-1.1-1.1-1.1c-0.7,0-1.1,0.4-1.1,1.1v2.2c-0.2-0.5-0.5-0.8-0.7-0.9c-0.2-0.1-0.5-0.4-0.7-0.9c-0.2,0-0.4-0.1-0.4-0.2
		c0-0.1-0.1-0.2-0.4-0.2c-0.5-0.5-1-0.5-1.4,0c-0.5,0.5-0.5,1,0,1.4c0.2,0.2,0.5,0.4,0.7,0.5c0.2,0.1,0.5,0.4,0.7,0.9l2.2,2.2v5.1
		c-0.2-0.2-0.4-0.4-0.5-0.4c-0.1,0-0.3-0.1-0.5-0.4c-0.5-0.2-0.9-0.5-1.3-0.7c-0.4-0.2-0.8-0.5-1.3-0.7c-0.2-0.2-0.5-0.4-0.7-0.4
		c0-0.2-0.1-0.5-0.2-0.7c-0.1-0.2-0.2-0.5-0.2-0.7c-0.2-0.5-0.4-1-0.4-1.4c0-0.5-0.1-1-0.4-1.4v-0.7c-0.2,0-0.4-0.1-0.4-0.2
		c0-0.1-0.1-0.2-0.4-0.2c0-0.2-0.2-0.4-0.7-0.4c-0.7,0.5-1,1-0.7,1.4c0,0.2,0.1,0.5,0.2,0.7c0.1,0.2,0.2,0.6,0.2,1.1
		c0,0.2,0.1,0.4,0.2,0.5c0.1,0.1,0.2,0.3,0.2,0.5c-0.2-0.2-0.4-0.4-0.5-0.4c-0.1,0-0.3-0.1-0.5-0.4l-0.7-0.4h-0.7
		c-0.5,0-0.7,0.1-0.7,0.4c-0.2,0.5-0.1,1,0.4,1.4c0.5,0,1.1,0.4,1.8,1.1c-0.5,0-1.1,0.1-1.8,0.4c-0.7,0.2-1.3,0.5-1.8,0.7v1.1
		c0.5,0.5,1,0.7,1.4,0.7c0.2-0.2,0.5-0.4,0.7-0.4c0.2,0,0.6-0.1,1.1-0.4c0.5,0,1.4-0.2,2.9-0.7c0.2,0,1,0.4,2.2,1.1
		c1.2,0.7,1.9,1.2,2.2,1.4c-0.2,0-0.6,0.2-1.1,0.7C449.5,401.9,449.1,402.1,448.7,402.3z"/>
	<path d="M493.8,220.1c-0.2,0.2-0.1,0.7,0.4,1.4l1.4,1.1l-1.1,0.7c-0.5,0.7-0.5,1.3,0,1.8c0.2,0.2,0.5,0.4,0.7,0.4
		c0.5,0,0.8-0.1,1.1-0.4l1.4-1.4l1.8,1.1l-2.2,1.8l-0.4,0.7c0,0.2,0.1,0.5,0.4,0.7l2.2,2.2l-1.8,0.7l-1.4-1.4
		c-0.7-0.5-1.3-0.5-1.8,0c-0.5,0.7-0.5,1.3,0,1.8l1.4,1.1l-1.8,0.7c-0.5,0.5-0.6,1-0.4,1.4c0.5,0.5,1.1,0.7,1.8,0.7l1.4-1.1v1.4
		c0.5,0.7,1,1.1,1.4,1.1c0.7-0.5,1.1-1,1.1-1.4l-0.7-2.2l1.8-1.1l0.7,2.9l0.4,0.7h1.1l2.5-1.1v2.2l-2.2,0.7c-0.5,0-0.7,0.5-0.7,1.4
		c0.5,0.5,1,0.7,1.4,0.7l1.4-0.4v1.8c0,0.7,0.4,1.1,1.1,1.1c0.7,0,1.1-0.4,1.1-1.1v-1.8l1.4,0.4c1,0,1.4-0.2,1.4-0.7
		c0.2-0.5,0-1-0.7-1.4l-2.2-0.7v-1.8l2.9,0.7c1-0.2,1.4-0.5,1.4-0.7l0.4-2.9l1.8,1.1l-0.4,2.2c0,0.5,0.2,1,0.7,1.4
		c1,0,1.4-0.4,1.4-1.1l0.4-1.4l1.4,1.1h0.7c0.5,0,0.7-0.2,0.7-0.7c0.5-0.5,0.4-1-0.4-1.4l-1.4-0.7l1.1-1.1c0.7-0.2,0.8-0.8,0.4-1.8
		c-0.7-0.5-1.3-0.5-1.8,0l-1.8,1.4l-1.4-0.7l1.8-2.2c0.2,0,0.4-0.2,0.4-0.7c0-0.5-0.1-0.7-0.4-0.7l-1.8-1.8l1.4-1.1l1.8,1.4
		c0.2,0.2,0.5,0.4,0.7,0.4c0.5,0,0.8-0.1,1.1-0.4c0.5-0.5,0.4-1-0.4-1.4l-1.1-1.1l1.4-1.1c0.5-0.2,0.7-0.7,0.7-1.4
		c-0.2-0.7-0.8-0.8-1.8-0.4l-1.4,0.7l-0.4-1.4c0-1.2-0.4-1.4-1.1-0.7c-0.7,0-1.1,0.4-1.1,1.1l0.4,2.2l-1.4,1.1l-0.7-2.5
		c0-0.5-0.2-0.7-0.7-0.7c0-0.2-0.2-0.4-0.7-0.4l-2.5,1.1v-2.2l2.2-0.7c0.5,0,0.7-0.5,0.7-1.4c-0.5-0.5-1-0.7-1.4-0.7l-1.8,0.7v-1.8
		c0-0.7-0.4-1.1-1.1-1.1c-0.7,0-1.1,0.4-1.1,1.1v1.4l-1.4-0.4c-0.7,0-1.2,0.2-1.4,0.7c0,1,0.2,1.4,0.7,1.4l2.2,0.7v2.2l-2.5-1.1
		c-0.5,0-0.8,0.1-1.1,0.4l-0.4,0.7l-0.7,2.5l-1.8-1.1l0.7-2.2c0-0.7-0.4-1.2-1.1-1.4c-0.5,0-1,0.4-1.4,1.1v1.4l-1.4-0.7
		C494.6,219.2,494,219.4,493.8,220.1z M505.3,232.4l-2.2,0.7l-0.4-2.2l1.4-1.1c0.5,0.5,0.8,0.7,1.1,0.7V232.4z M509.7,233.1
		l-1.8-0.7v-1.8c0.2,0,0.6-0.2,1.1-0.7l1.4,1.1L509.7,233.1z M511.5,225.9l1.8,1.4l-1.8,1.4L510,228v-0.7v-0.7L511.5,225.9z
		 M507.5,222.3l2.2-0.7l0.7,2.2l-1.8,1.1c0-0.2-0.4-0.5-1.1-0.7V222.3z M506.4,226.2c0.7,0,1.1,0.4,1.1,1.1c0,0.7-0.4,1.1-1.1,1.1
		c-0.7,0-1.1-0.4-1.1-1.1C505.3,226.6,505.7,226.2,506.4,226.2z M503.2,221.5l2.2,0.7v1.8c-0.2,0.2-0.4,0.4-0.5,0.4
		c-0.1,0-0.3,0.1-0.5,0.4l-1.4-1.1L503.2,221.5z M501.7,225.9l1.4,0.7v0.7v0.7l-1.4,0.7l-1.8-1.4L501.7,225.9z"/>
	<path d="M699.5,302.5c0.5,0.5,1,0.5,1.4,0c0.2-0.2,0.5-0.4,0.7-0.5c0.2-0.1,0.5-0.3,0.7-0.5l0.7-0.7v-3.3l-3.6,3.6
		C699,301.6,699,302.1,699.5,302.5z"/>
	<path d="M703.1,288.8c-0.2,0-0.4-0.1-0.5-0.2c-0.1-0.1-0.3-0.2-0.5-0.2c-0.5-0.5-1-0.8-1.4-0.9c-0.5-0.1-1-0.4-1.4-0.9
		c-0.5-1-0.7-1.6-0.7-1.8c-0.5-1-0.7-1.9-0.7-2.9l-0.4-0.4c0-0.5-0.1-0.7-0.4-0.7h-0.7c-1.2,0-1.4,0.4-0.7,1.1
		c0,0.5,0.1,0.8,0.2,1.1c0.1,0.2,0.2,0.5,0.2,0.7c0,0.2,0.1,0.4,0.2,0.5c0.1,0.1,0.2,0.3,0.2,0.5c-0.2,0-0.4-0.1-0.5-0.2
		c-0.1-0.1-0.3-0.2-0.5-0.2l-0.7-0.7h-0.7c-0.2,0-0.5,0.1-0.7,0.4c-0.2,0.7-0.1,1.2,0.4,1.4l1.8,1.1c-0.5,0.2-0.8,0.4-1.1,0.4
		c-0.2,0-0.6,0.1-1.1,0.4h-0.7l-0.7,0.7v0.7c0,0.5,0.4,0.7,1.1,0.7c0.5,0,0.8-0.1,1.1-0.2c0.2-0.1,0.5-0.2,0.7-0.2
		c1.4-0.5,2.4-0.8,2.9-1.1h0.4c0.5,0.5,0.9,0.8,1.3,0.9c0.4,0.1,0.8,0.3,1.3,0.5c0.5,0.2,0.8,0.4,0.9,0.5c0.1,0.1,0.4,0.3,0.9,0.5
		c-0.2,0.2-0.4,0.4-0.5,0.4c-0.1,0-0.3,0.1-0.5,0.4c-0.5,0.2-1,0.5-1.4,0.7c-0.5,0.2-1.1,0.6-1.8,1.1c-0.7,0-1.2-0.1-1.4-0.4
		c-0.5,0-1.4-0.2-2.9-0.7h-0.7h-0.7l-0.4,0.7c0,0.7,0.2,1.1,0.7,1.1c0.5,0.2,0.8,0.4,0.9,0.4c0.1,0,0.4,0.1,0.9,0.4h1.1
		c-0.2,0.2-0.4,0.4-0.5,0.4c-0.1,0-0.3,0.1-0.5,0.4c-0.2,0-0.4,0.1-0.4,0.2c0,0.1-0.1,0.2-0.4,0.2c-0.2,0.2-0.4,0.5-0.4,0.7
		c-0.5,0.5-0.5,0.7,0,0.7c0.2,0.5,0.7,0.6,1.4,0.4c1-0.5,1.6-0.8,1.8-1.1c-0.2,0.5-0.4,0.9-0.4,1.3c0,0.4-0.1,0.8-0.4,1.3v0.4v1.1
		l0.7,0.4c0.7,0,1.1-0.2,1.1-0.7c0.2-0.5,0.4-0.8,0.4-0.9c0-0.1,0.1-0.4,0.4-0.9c0-0.5,0.2-1.4,0.7-2.9v-0.4
		c0.5-0.2,0.9-0.4,1.3-0.5c0.4-0.1,0.8-0.4,1.3-0.9c0.5-0.2,0.8-0.4,0.9-0.5c0.1-0.1,0.4-0.3,0.9-0.5V288.8z"/>
	<path d="M703.1,280.8c-0.5-0.2-0.8-0.5-0.9-0.7c-0.1-0.2-0.4-0.5-0.9-0.7c0-0.2-0.1-0.5-0.4-0.7c-0.5-0.5-1-0.5-1.4,0
		c-0.5,0.5-0.5,1,0,1.4l3.6,3.6V280.8z"/>
	<path d="M623.9,220.1h0.7c2.9-0.5,5.8-0.9,8.7-1.3c2.9-0.4,5.5-0.7,8-0.9c2.9-0.2,5.5-0.5,8-0.7c0,0.5-0.1,1-0.2,1.4
		c-0.1,0.5-0.2,1-0.2,1.4c-1,5.3-1.8,11.4-2.4,18.3c-0.6,6.9-1.1,13.7-1.6,20.4c-0.5,6.8-0.8,13.1-1.1,19.2
		c-0.2,6-0.4,10.8-0.4,14.5c0,17.4,1.3,33.3,4,47.7c2.6,14.5,6.1,26.9,10.5,37.4c4.3,10.5,9.3,18.6,15,24.4
		c5.7,5.8,11.4,8.7,17.2,8.7c5.8,0,11.1-2.7,16.1-8c4.9-5.3,9.4-12,13.4-20.1c4-8.1,7.5-16.8,10.7-26.2c1.2-3.8,2.4-7.4,3.5-10.9
		c1.4,2.9,3.2,5.6,5.4,8.2c6.4,7.6,15.8,11.4,28.4,11.4c8.4,0,15.4-3.3,21-9.8c5.5-6.5,10-14.3,13.4-23.5c7.2,0,13.3-1.3,18.1-3.8
		c4.8-2.5,8.8-5.5,11.9-8.9c3.1-3.4,5.5-6.9,7.1-10.5c1.6-3.6,2.6-6.6,3.1-9c0.5-1.9-0.1-2.9-1.8-2.9c-0.5,0-1,0.2-1.4,0.5
		c-0.5,0.4-0.8,1.1-1.1,2.4c-0.5,2.2-1.4,4.8-2.9,8c-1.4,3.1-3.6,6.1-6.3,8.9c-2.8,2.8-6.2,5.1-10.1,7.1c-4,1.9-8.9,2.9-14.6,2.9
		c2.2-7.5,3.8-15.1,4.9-22.8c1.1-7.7,1.6-14.8,1.6-21.3c0-12.8-3.4-22.6-10.3-29.5c-6.9-6.9-14.6-10.3-23.3-10.3
		c-4.3,0-8.6,0.9-12.7,2.7c-4.1,1.8-7.8,4.2-11,7.2c-3.3,3-5.9,6.6-8,10.7c-2.1,4.1-3.1,8.6-3.1,13.4c0,2.4,0.2,5.1,0.7,8
		c0.5,2.9,1.3,6,2.5,9.4c-0.9,0.9-1.7,1.8-2.5,2.7c-0.9,0.3-1.6,1.1-2,2.4c-2.4,3.1-4.6,6.4-6.6,9.9c-3,5.7-4.5,11.8-4.5,18.3
		c0,3.3,0.4,6.5,1.1,9.5c-1.6,5.3-3.3,10.7-5.2,16.3c-2.8,8.1-5.7,15.6-8.9,22.4c-3.1,6.9-6.3,12.5-9.4,17c-3.1,4.5-6.3,6.7-9.4,6.7
		c-4.3,0-7.9-3.4-10.7-10.1c-2.8-6.7-4.9-14.9-6.5-24.6c-1.6-9.6-2.7-19.8-3.3-30.4c-0.6-10.6-0.9-19.9-0.9-27.8
		c0-5.1,0.2-11.3,0.5-18.8c0.4-7.5,0.9-15.3,1.6-23.5c0.7-8.2,1.5-16.1,2.4-23.9c0.8-7.7,1.7-14.3,2.7-19.9c0-0.5,0.1-1,0.2-1.4
		c0.1-0.5,0.2-1,0.2-1.4c2.6,0.2,5.4,0.5,8.3,0.7c2.6,0.2,5.5,0.5,8.7,0.9c3.1,0.4,6.3,0.8,9.4,1.3h0.7c1.9,0,2.9-0.8,2.9-2.5
		c0-1.7-1-2.8-2.9-3.3c-3.4-0.5-7.2-1-11.6-1.4c-4.3-0.5-9.2-1-14.5-1.4c1.9-10.1,3.7-19.3,5.4-27.7c1.7-8.3,2.5-15,2.5-20.1
		c0-5.1-0.8-9.3-2.5-12.7c-1.7-3.4-3.7-6-6.1-8c-2.4-1.9-4.9-3.3-7.4-4.2c-2.5-0.8-4.5-1.3-6-1.3c-1,0-2.3,2.1-4,6.1
		c-1.7,4.1-3.5,9.5-5.4,16.3c-1.9,6.8-3.9,14.6-5.8,23.5c-1.9,8.9-3.7,18.1-5.4,27.5c-6,0.5-11.2,1-15.4,1.6
		c-4.2,0.6-7.7,1.3-10.3,2c-2.6,0.5-3.9,1.5-3.6,3.1C621.3,219.3,622.3,220.1,623.9,220.1z M786.7,349.7c-3.1,4.9-6.4,7.4-9.8,7.4
		c-3.9,0-6.9-1.6-9-4.9s-3.9-7.1-5.1-11.4c-1.2-4.3-2-8.7-2.4-13.2c-0.4-4.5-0.5-8-0.5-10.7c4.3,3.9,9.4,7.1,15.2,9.6
		c5.8,2.5,12.5,4.2,20.3,4.9C792.7,338.7,789.8,344.8,786.7,349.7z M753.8,265.1c1.7-3.3,3.9-6,6.5-8.1c2.6-2.2,5.5-3.8,8.5-4.9
		c3-1.1,5.7-1.6,8.1-1.6c7.7,0,13.4,1.8,17.2,5.2c3.7,3.5,6.4,7.3,8.1,11.4c1.7,4.8,2.5,10.4,2.5,16.6c0,5.8-0.7,12.5-2,20.3
		c-1.3,7.7-3.1,15.1-5.2,22.1c-8.4-0.5-15.5-2.4-21.2-5.6c-5.7-3.3-10.2-7.3-13.6-12.1c1.4-3.6,3.2-6.9,5.2-9.8
		c2-2.9,4.1-5.4,6.1-7.6c2-2.2,3.7-4,5.1-5.4c1.3-1.4,2-2.5,2-3.3c0-3.1-2.2-4.7-6.5-4.7c-2.9,0-6.3,0.8-10.3,2.4
		c-4,1.6-8,4-12.1,7.4c-0.5-1.9-0.8-3.9-0.9-5.8c-0.1-1.9-0.2-3.6-0.2-5.1C751.2,272.2,752.1,268.4,753.8,265.1z M745.8,312.7h1.1
		c1.9-4.8,4.5-9.5,7.8-13.9c3.3-4.5,7.1-8.4,11.4-11.8c0.5-0.5,1-0.4,1.4,0.4c0,0.5-0.1,0.8-0.4,1.1c-4.1,3.4-7.8,7.2-11,11.4
		c-3.3,4.2-5.7,8.6-7.4,13.2c2.4,1.2,3.6,3.3,3.6,6.1c0,1.9-0.6,3.6-1.8,4.9c-1.2,1.3-2.8,2-4.7,2c-0.7,7.2,1.4,14,6.5,20.3
		c0.5,0.2,0.5,0.6,0,1.1l-0.4,0.4c-0.2,0-0.5-0.1-0.7-0.4c-5.1-6.3-7.5-13.5-7.2-21.7c-2-0.6-3.4-1.6-4.2-2.9c0.8-3.2,1.5-6.3,2.1-9
		C743.1,313,744.3,312.7,745.8,312.7z M661.9,271.8c1.2-18.8,3-37.5,5.2-56.2c2.3-18.7,5.4-37.2,9.2-55.5c0-0.7,0.4-0.8,1.1-0.4
		c0.7,0,0.8,0.2,0.4,0.7c-3.6,18.3-6.7,36.8-9.2,55.3c-2.5,18.6-4.2,37.2-4.9,56.1c3.9,1,5.8,3.3,5.8,6.9c0,1.9-0.6,3.5-1.8,4.7
		c-1.2,1.2-2.8,1.8-4.7,1.8v2.9c-0.7,24.6,0.2,45.6,2.9,63.1c2.6,17.5,6.7,31,12.3,40.7c0.5,0.5,0.5,0.8,0,1.1h-0.7
		c-6.5-10.1-11.1-25-13.7-44.5c-1.2-8.4-2.1-17.7-2.5-27.8c-0.5-10.1-0.5-21,0-32.5v-2.9c-3.4-1-5.1-3.1-5.1-6.5
		C656.1,274.6,658.1,272.3,661.9,271.8z"/>
	<path d="M708.2,280.8l0.7-0.7c0.5-0.5,0.5-1,0-1.4c-0.5-0.5-1-0.5-1.4,0c-0.5,0.2-0.8,0.5-0.9,0.7c-0.1,0.2-0.3,0.5-0.5,0.7
		l-0.7,0.7v2.9l1.1-1.1C707.1,282.2,707.7,281.6,708.2,280.8z"/>
	<path d="M662.6,422.6c-1-0.5-1.4-0.2-1.4,0.7l-0.4,1.4l-1.4-0.7c-0.7-0.2-1.3-0.1-1.8,0.4c0,1,0.2,1.4,0.7,1.4l1.4,1.1l-1.1,1.1
		c-0.7,0.5-0.8,1-0.4,1.4c0.2,0.2,0.6,0.4,1.1,0.4c0.2,0,0.5-0.1,0.7-0.4l1.8-1.4l1.4,1.1l-1.8,1.8c-0.2,0.2-0.4,0.5-0.4,0.7
		c0,0.5,0.1,0.8,0.4,1.1l1.8,1.8l-1.4,1.1l-1.8-1.8c-0.5-0.5-1.1-0.4-1.8,0.4c-0.5,0.5-0.4,1,0.4,1.4l1.1,1.1l-1.4,0.7
		c-0.7,0.2-0.8,0.8-0.4,1.8c0,0.2,0.2,0.4,0.7,0.4h0.7l1.4-1.1l0.4,1.1v0.7c0,0.5,0.4,0.7,1.1,0.7h0.4c0.5,0,0.7-0.5,0.7-1.4
		l-0.4-2.2l1.4-1.1l0.7,2.9l0.7,0.7h0.7l2.5-0.7v1.8l-2.2,0.7c-0.5,0.5-0.7,1-0.7,1.4c0.2,0.5,0.6,0.7,1.1,0.7h0.4l1.4-0.4v1.8
		c0,0.7,0.5,1.1,1.4,1.1c0.7,0,1.1-0.4,1.1-1.1v-1.8l1.4,0.4l0.4,0.4c0.5,0,0.8-0.4,1.1-1.1c0-0.5-0.2-1-0.7-1.4l-2.2-0.7v-1.8
		l2.5,0.7h1.1c0.2-0.2,0.4-0.5,0.4-0.7l0.7-2.9l1.8,1.1l-0.7,2.2c0,1,0.4,1.4,1.1,1.4c0.7,0,1.1-0.2,1.1-0.7v-0.7l0.4-1.1l1.4,1.1
		h0.7c0.5,0,0.8-0.1,1.1-0.4c0.2-0.7,0.1-1.3-0.4-1.8l-1.8-0.7l1.4-1.1c0.5-0.5,0.5-1,0-1.4c-0.2-0.7-0.8-0.8-1.8-0.4l-1.4,1.8
		l-1.8-1.1l2.2-1.8c0-0.2,0.1-0.4,0.2-0.5c0.1-0.1,0.2-0.3,0.2-0.5l-0.4-0.7l-2.2-1.8l1.8-1.1l1.4,1.4c0.2,0.2,0.6,0.4,1.1,0.4
		l0.7-0.4c0.5-0.5,0.5-1,0-1.4l-1.1-1.1l1.4-0.7c0.5-0.5,0.6-1.1,0.4-1.8c-0.5-0.5-1.1-0.6-1.8-0.4l-1.4,0.7v-1.4
		c-0.7-0.7-1.2-1-1.4-0.7c-0.7,0-1.1,0.5-1.1,1.4l0.7,2.2l-1.8,0.7l-0.7-2.5c0-0.5-0.1-0.7-0.4-0.7h-1.1l-2.5,0.7v-1.8l2.2-0.7
		c0.5-0.5,0.7-1,0.7-1.4c-0.2-0.7-0.7-1.1-1.4-1.1l-1.4,0.7v-1.8c0-0.7-0.4-1.1-1.1-1.1c-1,0-1.4,0.4-1.4,1.1v1.8l-1.4-0.7
		c-0.5,0-1,0.2-1.4,0.7c0,1,0.2,1.4,0.7,1.4l2.2,0.7v2.2l-2.5-0.7c-0.5-0.5-0.7-0.5-0.7,0c-0.5,0-0.7,0.2-0.7,0.7l-0.7,2.5l-1.4-0.7
		l0.4-2.2C663.4,423.1,663.1,422.6,662.6,422.6z M669.2,436.7l-2.2,0.7l-0.4-2.2l1.4-0.7c0.2,0,0.4,0.1,0.5,0.2
		c0.1,0.1,0.3,0.2,0.5,0.2V436.7z M673.9,437.4l-2.2-0.7v-1.8c0.2,0,0.4-0.1,0.5-0.2c0.1-0.1,0.3-0.2,0.5-0.2l1.4,0.7L673.9,437.4z
		 M675.3,430.2l1.8,1.4l-1.8,1.8l-1.4-1.1v-1.1L675.3,430.2z M671.7,426.9l2.2-0.7l0.4,2.2l-1.4,0.7c-0.2-0.2-0.4-0.4-0.5-0.4
		c-0.1,0-0.3-0.1-0.5-0.4V426.9z M670.6,430.6c0.7,0,1.1,0.4,1.1,1.1c0,1-0.4,1.4-1.1,1.4c-1,0-1.4-0.5-1.4-1.4
		C669.2,430.9,669.6,430.6,670.6,430.6z M667,426.2l2.2,0.4v1.8c-0.2,0.2-0.4,0.4-0.5,0.4c-0.1,0-0.3,0.1-0.5,0.4l-1.4-0.7
		L667,426.2z M665.5,430.2l1.4,1.1v1.1l-1.4,1.1l-1.8-1.8L665.5,430.2z"/>
	<path d="M713.3,284.1c-0.2,0.2-0.4,0.4-0.5,0.4c-0.1,0-0.3,0.1-0.5,0.4c0.2-0.5,0.4-0.8,0.4-1.1c0-0.2,0.1-0.6,0.4-1.1v-1.4
		c0-0.2-0.2-0.4-0.7-0.4c-0.7-0.7-1.1-0.5-1.1,0.7c-0.2,0.2-0.4,0.5-0.4,0.7c0,0.2-0.1,0.6-0.4,1.1c-0.2,0.5-0.4,1-0.4,1.4
		c0,0.5-0.1,1-0.4,1.4c-0.7,0.5-1.6,1-2.5,1.4c-1,0.5-1.6,0.8-1.8,1.1v3.6c0.2,0.2,0.4,0.4,0.5,0.4c0.1,0,0.3,0.1,0.5,0.4
		c0.5,0.2,0.9,0.5,1.3,0.7c0.4,0.2,0.8,0.5,1.3,0.7c0.2,0.2,0.5,0.4,0.7,0.4c0,0.5,0.1,0.8,0.2,0.9c0.1,0.1,0.2,0.3,0.2,0.5
		c0.2,0.5,0.4,1,0.4,1.4c0,0.5,0.1,1,0.4,1.4c0,0.2,0.1,0.5,0.4,0.7c0,0.2,0.1,0.5,0.4,0.7h0.7c0.7-0.5,1-1,0.7-1.4
		c0-0.2-0.1-0.5-0.2-0.7c-0.1-0.2-0.2-0.6-0.2-1.1c0-0.2-0.1-0.4-0.2-0.5c-0.1-0.1-0.2-0.3-0.2-0.5c0.2,0.2,0.4,0.4,0.5,0.4
		c0.1,0,0.3,0.1,0.5,0.4l0.7,0.4c0.2,0.2,0.5,0.4,0.7,0.4l0.7-0.7c0.5-0.5,0.4-1-0.4-1.4c-0.2,0-0.5-0.1-0.7-0.4
		c-0.2,0-0.6-0.2-1.1-0.7c0.5,0,0.8-0.1,1.1-0.2c0.2-0.1,0.6-0.2,1.1-0.2l1.4-0.7v-0.7c-0.5-0.7-1-1-1.4-0.7c-0.7,0-1.6,0.1-2.5,0.4
		c-1,0.2-1.7,0.5-2.2,0.7c-0.2,0-1-0.4-2.2-1.1c-1.2-0.7-1.9-1.2-2.2-1.4c0.2,0,0.4-0.1,0.5-0.2c0.1-0.1,0.3-0.2,0.5-0.2
		c0.5-0.5,0.9-0.8,1.3-0.9c0.4-0.1,0.8-0.4,1.3-0.9c0.2,0,0.5-0.1,0.7-0.4c0.2,0.2,0.7,0.4,1.4,0.4c0.7,0.2,1.8,0.6,3.3,1.1h1.1
		c0-0.2,0.1-0.4,0.2-0.4c0.1,0,0.2-0.1,0.2-0.4c0-0.7-0.2-1.2-0.7-1.4c-0.5,0-0.8-0.1-0.9-0.2c-0.1-0.1-0.4-0.2-0.9-0.2
		c-0.2,0-0.4-0.1-0.5-0.2c-0.1-0.1-0.3-0.2-0.5-0.2c0.2,0,0.4-0.1,0.5-0.2c0.1-0.1,0.3-0.2,0.5-0.2l1.1-1.1v-1.1
		c-0.5-0.7-1-0.8-1.4-0.4C713.7,284,713.5,284.1,713.3,284.1z"/>
	<path d="M708.2,300.5c-0.2-0.1-0.5-0.3-0.7-0.5l-2.2-2.2v2.9c0.2,0.2,0.5,0.4,0.7,0.5c0.2,0.1,0.5,0.4,0.7,0.9
		c0.2,0,0.4,0.1,0.4,0.2c0,0.1,0.1,0.2,0.4,0.2c0.5,0.5,1,0.5,1.4,0c0.5-0.5,0.5-1,0-1.4C708.7,300.9,708.4,300.7,708.2,300.5z"/>
	<path d="M782,183.2c0.2,0.5,0.6,0.7,1.1,0.7h0.7l2.2-1.1l0.4,1.1v0.7c0,0.7,0.5,1.1,1.4,1.1h0.4c0.7,0,1.1-0.6,1.1-1.8l-0.7-2.9
		l2.2-1.1l1.1,3.6c0.2,0.5,0.5,0.7,0.7,0.7c0.2,0.2,0.6,0.4,1.1,0.4l3.3-1.4v2.9l-2.5,0.7c-1,0.5-1.3,1.1-1.1,1.8
		c0.5,0.7,1,1.1,1.4,1.1h0.4l1.8-0.7v2.5c0,1,0.6,1.4,1.8,1.4c1,0,1.4-0.5,1.4-1.4v-2.2l1.8,0.4h0.4c0.5,0,1-0.2,1.4-0.7
		c0.2-1-0.1-1.7-1.1-2.2l-2.5-0.7v-2.5l3.3,1.1h0.4c0.5,0,0.7-0.1,0.7-0.4c0.2,0,0.5-0.2,0.7-0.7l0.7-3.6l2.5,1.1l-0.7,2.9
		c0,1.2,0.4,1.8,1.1,1.8h0.4c1,0,1.4-0.4,1.4-1.1v-0.7l0.4-1.1l1.8,1.1h0.7c0.7,0,1.2-0.2,1.4-0.7c0.5-1,0.4-1.6-0.4-1.8l-2.2-1.1
		l1.4-1.4c0.7-0.7,0.8-1.4,0.4-2.2c-0.7-0.7-1.4-0.7-2.2,0l-2.2,1.8l-2.2-1.1l2.5-2.5c0.2-0.2,0.4-0.6,0.4-1.1
		c0-0.5-0.1-0.8-0.4-1.1l-2.5-2.5l2.2-1.1l2.2,1.8c0.2,0.2,0.6,0.4,1.1,0.4c0.5,0,0.8-0.1,1.1-0.4c0.5-0.7,0.5-1.4,0-2.2l-1.8-1.1
		l2.2-1.4c0.7-0.2,0.8-0.8,0.4-1.8c-0.5-1-1.1-1.2-1.8-0.7l-2.2,1.1l-0.4-1.8c0-1.2-0.6-1.6-1.8-1.1c-0.7,0-1.1,0.6-1.1,1.8l0.7,2.9
		l-2.2,1.1l-0.7-3.6l-0.7-0.7c-0.2-0.2-0.7-0.4-1.4-0.4l-3.3,1.4v-2.9l2.5-0.7c1.2-0.5,1.6-1.1,1.1-1.8c-0.5-1.2-1.1-1.6-1.8-1.1
		l-1.8,0.7v-2.5c0-1-0.5-1.4-1.4-1.4c-1.2,0-1.8,0.5-1.8,1.4v2.2l-1.8-0.4c-0.7-0.5-1.3-0.2-1.8,0.7c-0.2,1,0.1,1.7,1.1,2.2l2.5,0.7
		v2.5l-3.3-1.1c-0.5,0-0.8,0.1-1.1,0.4c-0.5,0-0.7,0.2-0.7,0.7l-1.1,3.6l-2.2-1.1l0.7-2.9c0-1.2-0.4-1.8-1.1-1.8
		c-0.5-0.2-0.9-0.2-1.3,0c-0.4,0.2-0.5,0.6-0.5,1.1l-0.4,1.8l-2.2-1.1c-0.7-0.5-1.3-0.2-1.8,0.7c-0.5,1-0.4,1.6,0.4,1.8l2.2,1.1
		l-1.4,1.4c-0.7,0.7-0.8,1.4-0.4,2.2c0.2,0.2,0.6,0.4,1.1,0.4c0.5,0,0.8-0.1,1.1-0.4l2.2-1.8l2.2,1.1l-2.5,2.5
		c-0.2,0.2-0.4,0.6-0.4,1.1c0,0.5,0.1,0.8,0.4,1.1l2.5,2.5l-2.2,1.1l-2.2-1.8c-0.7-0.7-1.4-0.7-2.2,0c-0.5,0.7-0.4,1.4,0.4,2.2
		l1.4,1.1l-2.2,1.4C781.6,181.6,781.5,182.2,782,183.2z M796.8,180.3l-2.5,0.7l-0.7-2.5l1.8-1.4c0.5,0.2,1,0.6,1.4,1.1V180.3z
		 M802.6,181l-2.5-0.7v-2.2c0.2-0.2,0.5-0.4,0.7-0.5c0.2-0.1,0.5-0.3,0.7-0.5l1.8,1.4L802.6,181z M804.8,171.6l2.2,2.2l-2.2,1.8
		l-1.8-1.1v-1.4L804.8,171.6z M800.1,167.3l2.5-0.7l0.7,2.5l-1.8,1.4c-0.5-0.2-1-0.6-1.4-1.1V167.3z M798.6,172.3
		c1,0,1.4,0.5,1.4,1.4c0,1-0.5,1.4-1.4,1.4c-1.2,0-1.8-0.5-1.8-1.4C796.8,172.8,797.4,172.3,798.6,172.3z M794.3,166.2l2.5,1.1v2.2
		c-0.5,0.5-1,0.8-1.4,1.1l-1.8-1.4L794.3,166.2z M792.1,172l1.8,1.1v1.4l-1.8,1.1l-2.2-1.8L792.1,172z"/>
	<path d="M782.7,405.6c-0.5-1-1.1-1.2-1.8-0.7l-2.2,1.1l-0.4-1.8c0-1.2-0.6-1.6-1.8-1.1c-0.7,0-1.1,0.6-1.1,1.8l0.7,2.9l-2.2,1.1
		l-1.1-3.6c0-0.5-0.2-0.7-0.7-0.7c-0.2-0.2-0.6-0.4-1.1-0.4l-3.3,1.4v-2.9l2.5-0.7c1-0.5,1.3-1.1,1.1-1.8c-0.5-1.2-1.1-1.6-1.8-1.1
		l-2.2,0.7v-2.5c0-1-0.5-1.4-1.4-1.4c-1,0-1.4,0.5-1.4,1.4v2.2l-1.8-0.4c-0.7-0.5-1.3-0.2-1.8,0.7c-0.2,1,0,1.7,0.7,2.2l2.9,0.7v2.5
		l-3.3-1.1c-0.7,0-1.2,0.1-1.4,0.4l-0.7,0.7l-0.7,3.6l-2.2-1.1l0.7-2.9c0-1.2-0.4-1.8-1.1-1.8c-1.2-0.5-1.8-0.1-1.8,1.1l-0.4,1.8
		l-2.2-1.1c-0.7-0.5-1.3-0.2-1.8,0.7c-0.5,1-0.4,1.6,0.4,1.8l2.2,1.1l-1.8,1.4c-0.2,0.7-0.2,1.4,0,2.2c0.2,0.2,0.6,0.4,1.1,0.4
		c0.5,0,0.8-0.1,1.1-0.4l2.2-1.8l2.2,1.1l-2.5,2.5c-0.2,0.2-0.4,0.6-0.4,1.1c0,0.5,0.1,0.8,0.4,1.1l2.5,2.5l-2.2,1.1l-2.2-1.8
		c-0.7-0.7-1.4-0.7-2.2,0c-0.5,0.7-0.4,1.4,0.4,2.2l1.4,1.1l-2.2,1.4c-0.7,0.2-0.8,0.8-0.4,1.8c0.2,0.5,0.6,0.7,1.1,0.7h0.7l2.2-1.1
		l0.4,1.1v0.7c0,0.7,0.5,1.1,1.4,1.1h0.4c0.7,0,1.1-0.6,1.1-1.8l-0.7-2.9l2.2-1.1l0.7,3.6c0.2,0.5,0.5,0.7,0.7,0.7
		c0.2,0.2,0.7,0.4,1.4,0.4l3.3-1.4v2.9l-2.9,0.7c-1,0.5-1.2,1.1-0.7,1.8c0,0.7,0.5,1.1,1.4,1.1h0.4l1.8-0.7v2.5c0,1,0.5,1.4,1.4,1.4
		c1,0,1.4-0.5,1.4-1.4v-2.2l2.2,0.4h0.4c0.5,0,1-0.2,1.4-0.7c0-1-0.4-1.7-1.1-2.2l-2.9-0.7v-2.5l3.6,1.1h0.4c0.5,0,0.7-0.1,0.7-0.4
		c0.2,0,0.5-0.2,0.7-0.7l0.7-3.6l2.5,1.1l-0.7,2.9c-0.5,1.2-0.1,1.8,1.1,1.8h0.4c0.7,0,1.2-0.4,1.4-1.1v-0.7l0.4-1.1l1.8,1.1h0.7
		c0.7,0,1.2-0.2,1.4-0.7c0.5-1,0.4-1.6-0.4-1.8l-2.2-1.1l1.4-1.4c0.7-0.7,0.8-1.4,0.4-2.2c-0.7-0.7-1.4-0.7-2.2,0l-2.2,1.8l-2.2-1.1
		l2.5-2.5c0.2-0.2,0.4-0.6,0.4-1.1c0-0.5-0.1-0.8-0.4-1.1l-2.5-2.5l2.2-1.1l2.2,1.8c0.2,0.2,0.6,0.4,1.1,0.4c0.5,0,0.8-0.1,1.1-0.4
		c0.5-0.7,0.4-1.4-0.4-2.2l-1.4-1.1l2.2-1.4C783.1,407.2,783.2,406.6,782.7,405.6z M761.7,407.4l2.9,1.1v2.2
		c-0.2,0.2-0.5,0.4-0.7,0.5c-0.2,0.1-0.5,0.3-0.7,0.5l-1.8-1.4L761.7,407.4z M759.9,416.8l-2.2-1.8l2.2-2.2l1.8,1.4v1.4L759.9,416.8
		z M764.6,421.5l-2.9,0.7l-0.4-2.5l1.8-1.4c0.2,0.2,0.5,0.4,0.7,0.5c0.2,0.1,0.5,0.3,0.7,0.5V421.5z M766.1,416.5
		c-1,0-1.4-0.5-1.4-1.4c0-1,0.5-1.4,1.4-1.4c1,0,1.4,0.5,1.4,1.4C767.5,416,767,416.5,766.1,416.5z M767.5,408.5h0.4l2.5-0.7
		l0.7,2.5l-2.2,1.4c-0.5-0.5-1-0.8-1.4-1.1V408.5z M770.4,422.2l-2.5-0.7v-2.2l1.1-1.1l2.2,1.4L770.4,422.2z M772.6,416.8l-2.2-1.1
		c0.2-0.2,0.4-0.5,0.4-0.7c0-0.5-0.1-0.7-0.4-0.7l2.2-1.4l2.2,2.2L772.6,416.8z"/>
	<path d="M411.6,547.8c0-8.8,0.9-8.8,0.9-17.6c0-5.7,2.8-9.4,8.5-9.4c7.9,0,7.9-1.3,16.1-1.3c7.9,0,7.9-0.9,15.7-0.9
		c7.2,0,12.9-4.7,12.9-12.3c0-7.2-5.7-12.6-12.9-12.6c-9.1,0-9.1-2.5-18.3-2.5c-8.8,0-8.8,3.1-17.9,3.1c-9.1,0-9.1-2.8-18.3-2.8
		c-9.1,0-9.1,1.3-17.9,1.3c-9.1,0-9.1,1.3-18.3,1.6c-9.1,0.3-9.1-0.9-18.3-0.9h-0.3c-7.6,0-13.9,5.7-13.9,13.2
		c0,7.2,6.3,13.9,13.9,13.9c7.6,0,7.6,0,14.8,0c7.9,0,7.9,0,15.1,0c5.7,0,9.1,4.1,9.1,9.8c0,8.5,2.5,8.5,2.5,17.3
		c0,8.5-1.9,8.5-1.9,17.3c0,8.5,0.6,8.5,0.6,17c0,8.8,0.9,8.8,0.9,17.6c0,8.8-1.6,8.8-1.6,17.6c0,9.1-0.3,9.1-0.3,17.9
		c0,7.2,6.9,14.8,14.5,14.8c7.2,0,14.2-7.6,14.2-14.8c0-8.8-2.2-8.8-2.2-17.3s1.3-8.5,1.3-17.3c0-8.5-0.3-8.5-0.3-17.3
		c0-8.5,0.9-8.5,0.9-17.3C411.2,556.9,411.6,556.9,411.6,547.8z"/>
	<path d="M571.8,506.5c0,8.5,2.5,8.5,2.5,16.7c0,8.5,0,8.5,0,16.7c0,8.5-2.5,8.5-2.5,17c0,5.7-3.1,10.1-8.8,10.1
		c-10.7,0-10.7,1.3-21.1,1.3c-10.4,0-10.4,0.3-21.1,0.3c-5.7,0-11-6-11-11.7c0-8.2,2.5-8.2,2.5-16.7c0-8.2-3.1-8.2-3.1-16.7
		c0-8.5,0.3-8.5,0.3-16.7c0-7.9-5-12.6-12.3-12.6c-7.9,0-14.8,4.7-14.8,12.6c0,9.1,1.9,9.1,1.9,18.3c0,9.1-2.5,9.1-2.5,18.3
		c0,9.4,2.5,9.4,2.5,18.6c0,9.1-0.9,9.1-0.9,18.6c0,9.1-0.9,9.1-0.9,18.3c0,9.4,0.9,9.4,0.9,18.9c0,9.1-0.9,9.1-0.9,18.6
		c0,7.2,7.2,13.5,14.8,13.5c7.6,0,12.3-6.3,12.3-13.5c0-7.6,0.9-7.6,0.9-15.1c0-7.6,0.3-7.6,0.3-14.8c0-5.7,4.4-10.4,10.1-10.4
		c10.7,0,10.7-0.6,21.1-0.6c10.4,0,10.4,0,21.1,0c5.7,0,9.8,5.4,9.8,11c0,7.2,0.3,7.2,0.3,14.8c0,7.6,0,7.6,0,15.1
		c0,7.2,6,12.6,13.5,12.6c7.6,0,14.8-5.4,14.8-12.6c0-9.4-0.3-9.4-0.3-18.3c0-9.4-1.3-9.4-1.3-18.6c0-9.4,1.6-9.4,1.6-18.6
		c0-9.1,0-9.1,0-18.3c0-9.4-1.3-9.4-1.3-18.6c0-9.4-0.6-9.4-0.6-18.9c0-9.1,0.3-9.1,0.3-18.3c0-7.9-6-14.8-13.5-14.8
		c-7.6,0-15.1,6.9-15.1,14.8L571.8,506.5z"/>
	<path d="M629.1,617.3c0,9.1,1.3,9.1,1.3,18.6c0,3.1,1.6,4.7,3.5,7.2c2.8,3.8,7.6,4.7,9.1,5c0.9,0.3,1.6,2.8,2.2,2.8
		c8.2,0,8.2,0.3,16.7,0.3c8.2,0,8.2-0.3,16.4-0.3c7.9,0,7.9,0,16.1,0c8.2,0,8.2-0.6,16.4-0.6s8.2-1.3,16.4-1.3
		c7.6,0,13.5-5.7,13.5-12.9c0-7.6-6-14.8-13.5-14.8c-10.1,0-10.1,1.3-19.8,1.3c-10.1,0-10.1,0.9-19.8,0.9c-10.4,0-10.4-1.9-20.2-1.9
		c-5.7,0-8.5-3.8-8.5-9.4c0-6.9-0.9-6.9-0.9-13.9c0-5.7,3.8-10.7,9.4-10.7c7.6,0,7.6,1.6,14.8,1.6c7.6,0,7.6-0.6,15.1-0.6
		c7.2,0,7.2-1.3,15.1-1.3c7.2,0,13.2-5.7,13.2-12.9c0-7.6-6-14.8-13.2-14.8c-7.9,0-7.9,2.5-15.1,2.5c-7.6,0-7.6-0.6-15.1-0.6
		c-7.2,0-7.2,0.3-14.8,0.3c-5.7,0-10.4-5.7-10.4-11.3c0-9.8,0.9-9.8,0.9-19.8c0-5.7,3.8-12,9.4-12c9.8,0,9.8,1.3,20.2,1.3
		c9.8,0,9.8,0.6,19.8,0.6c9.8,0,9.8-1.3,19.8-1.3c7.6,0,12.9-5,12.9-12.3v-0.6c0-7.6-5.4-15.1-12.9-15.1c-8.2,0-8.2,1.6-16.4,1.6
		s-8.2-1.9-16.4-1.9c-8.2,0-8.2,2.2-16.1,2.2c-8.2,0-8.2-1.9-16.4-1.9c-8.5,0-8.5,2.5-16.7,2.5c0,0,0,0.6-0.3,0.6
		c0,0-0.6-0.3-0.9-0.3s-0.3-1.3-0.6-1.3c-7.2,0-12.6,6-12.6,13.5c0,9.4,0,9.4,0,18.3c0,9.4-1.9,9.4-1.9,18.6c0,9.1,0.6,9.1,0.6,18.3
		c0,9.1,1.3,9.1,1.3,18.6s0,9.4,0,18.6C630.7,607.9,629.1,607.9,629.1,617.3z"/>
	<path d="M989.7,654.7c-4.8-2.7-9.9-4.2-15.3-4.5c-5.4-0.3-10.7-0.5-16.1-0.8c-6.5-0.4-12.8-0.8-19-1.1c-6.2-0.3-12.3-1.6-18.4-4
		c-0.1-0.5-0.2-0.9-0.5-1.2c0-5.3,0-10.8,0-16.4c0-5.6-0.2-11.2-0.5-16.8c0.6,0.2,1,0.4,1.3,0.7c0.3,0.2,0.7,0.5,1.3,0.7
		c2.2,0.6,4.4,0.3,6.7-0.9c2.3-1.2,3.3-3.2,3-6.1c-0.1-1.3-0.5-2.8-1.2-4.3l4.9,0.7c2.2,0.3,3.9,0,5.1-0.9c1.6,0.4,3,0.5,4,0.4
		c0.3,0,0.4,0,0.4,0.2s0.1,0.2,0.4,0.2l2-0.2c1.9,0.1,3.4-0.5,4.4-1.8c1.1-1.3,1.6-2.8,1.6-4.4c0-1.6-0.5-3.2-1.5-4.7
		c-1-1.5-2.4-2.4-4.3-2.8c-1.1-0.2-2-0.3-2.9-0.5c-0.8-0.2-1.8-0.4-2.9-0.5c0.5-0.1,0.9-0.2,1.1-0.5c9.2,1.2,17,0.7,23.5-1.5
		c2.8-1.1,4.8-2.7,5.9-4.8c1.1-2.1,1.5-4.2,1.2-6.3c-0.3-2.1-1.5-3.9-3.3-5.5c-1.9-1.6-4.4-2.2-7.6-1.9c-2.9,0.3-5.9,0.9-8.8,1.9
		c-3,1-5.9,2-8.7,3.1c0.6-1.9,0.6-3.7-0.1-5.2c6.7,0.1,11.9-2.4,15.7-7.6c2.3-3.2,2.5-6.1,0.5-8.7c-2-2.6-4.8-3.5-8.5-2.6
		c-2.1,0.7-4.1,1.4-6.2,1.8c-2.1,0.5-4.2,1.1-6.2,1.8c-0.8-0.2-1.6-0.4-2.3-0.6c-0.7-0.2-1.5-0.5-2.3-1c2.1-0.7,4.2-1.8,6.3-3.2
		c2.1-1.4,4.2-2.8,6.2-4c1.8-0.2,3.6-0.4,5.4-0.5c1.7-0.2,3.5-0.6,5.3-1.3c1.6-0.4,2.9-1.3,3.9-2.6c1.1-1.3,1.7-2.8,2-4.4
		c0.2-1.6-0.1-3.1-1-4.3c-0.9-1.2-2.3-1.9-4.2-2l-2,0.2c-0.3-0.2-0.7-0.3-1.2-0.3l0-0.4c0.3-1.9-0.1-3.2-1.2-3.9
		c-0.8-0.5-2.1-0.9-3.7-1.2l-1.3-1.1c1.2-0.9,1.9-2.2,1.8-3.8c0-1.6-0.9-2.8-2.6-3.8c-0.6-0.2-1-0.4-1.4-0.5
		c-0.4-0.1-0.9-0.3-1.5-0.5c1.4-2,1.8-4.4,1.1-7.1c-0.7-2.7-2.5-4.4-5.5-4.9l-9.9-2.6c4.9,0.9,9.7,0.9,14.4,0.2
		c4.7-0.7,8.9-2.9,12.6-6.5c1.2-1.4,1.3-2.9,0.4-4.4c-0.9-1.5-2.2-2.3-3.8-2.4c-2.6,0.3-5.2,0.4-7.6,0.4c-2.4,0-4.8-0.2-7.3-0.5
		c-0.3-0.5-0.6-0.8-0.9-0.9c-0.3-0.1-0.6-0.3-0.8-0.5c-3.4-1.5-6.6-3-9.6-4.3c1.8-0.4,4-1.5,6.5-3c1-1.2,1.5-2,1.7-2.6
		c1.8-0.2,4-0.9,6.6-2.3c1-0.6,1.6-1.6,1.7-2.8c0.1-1.2-0.1-2.3-0.7-3.3c-1.2-1.5-2.7-2.7-4.4-3.6c2.1-0.7,3.1-2,3.2-3.9
		c0.1-1.9-0.9-3.4-2.8-4.5c-2.5-1.4-5.1-2.4-7.7-3.2c-2.6-0.8-5.3-1.7-8.1-2.8c-3.4-2.1-6.6-4.3-9.5-6.7c2.1-0.7,4-1.4,5.8-2
		c1.8-0.6,3.6-1.2,5.4-1.9c1.3-0.7,1.9-1.6,1.9-2.8c0-1.2-0.4-2.2-1.3-2.9c0.4-1.1,0.2-2.3-0.8-3.5c-1.8-2-3.9-3-6.3-3.2
		c-2.4-0.2-4.8-0.4-7.3-0.7c-1.6-2.8-4.1-5.1-7.5-6.9c1.3-0.4,2.1-1.2,2.6-2.5c0.4-1.2,0.3-2.5-0.4-3.8c0.5-0.1,1.8-0.4,3.9-1.2
		c1-0.4,1.7-1.1,2-2.2c0.3-1.1,0.1-2.1-0.5-3.2c-2.2-3.5-5-6.3-8.4-8.4c-3.4-2.1-6.3-4.7-8.8-7.9c-4-5.7-7.1-12.7-9.3-20.7
		c3.7,2.6,7.3,3.6,10.7,3c2.6-0.8,3.8-2.1,3.6-4c-0.9-3.7-2.8-6.9-5.6-9.7c-2.8-2.8-5.4-5.7-7.9-8.6c-4.6-5.7-8.1-11.8-10.6-18.2
		c-0.4-4.2-1.2-8.2-2.4-11.8c-0.6-1-1.4-1.7-2.2-2c-0.8-0.3-1.6-0.4-2.4-0.2c-0.8,0.2-1.5,0.7-2,1.6c-0.6,0.9-0.7,1.8-0.3,2.8
		l0.1,0.8c-0.2,0.3-0.6,1-1,2.1c0.1,3.5,0.4,6.8,1,9.9c-0.3,2.2-0.8,4.4-1.4,6.5c-0.6,2.2-1,4.3-1.4,6.2c-1.1,4.9-2.7,9.4-4.7,13.3
		c-1.1,2-2.3,3.6-3.5,5c-1.2,1.3-2.4,3-3.5,5c-1.1,2-1,3.8,0.3,5.6c1.4,1.7,3.1,2.5,5.2,2.3c3.4-0.3,6.2-1.7,8.2-4.2
		c2-2.5,3.7-5.4,4.9-8.7c0,2.2,0,4.1,0.2,6c0.2,1.9,0.4,3.7,0.6,5.6c-0.2,0.6-0.3,1.2-0.2,2c0,0.3,0.2,0.5,0.5,0.8
		c-0.2,0.8-0.2,2,0,3.6c-1.3,0.7-1.8,1.8-1.7,3.4c1.2,4.4,1.6,9.2,1,14.3c-0.8,2.8-1.8,5.3-3,7.7c-1.2,2.4-2.5,4.7-3.9,7
		c-3.2,5.1-7.3,9.8-12.2,14c-2,1.5-4,2.9-6,4.2c-2,1.3-3.6,3-4.7,5.3c-0.5,0.8-0.4,1.7,0.1,2.6c0.5,0.9,1,1.6,1.6,2
		c4.3,2.5,8.9,2.2,13.9-1c0.7,1.5,1.7,2.2,3,2.1c-2.4,2.4-4.9,4.5-7.4,6.3c-2.7,2.1-5.6,3.8-8.7,5.1c-3.1,1.2-6.2,2.4-9.3,3.5
		c-3.1,1.1-6.1,2.3-9.1,3.5c-3,1.2-5.8,2.8-8.6,4.7c-1.3,0.7-1.8,1.8-1.7,3.4c0.2,1.6,0.9,2.6,2.3,3c3.6,1.5,7.5,2.1,11.8,1.6
		c4.2-0.4,8.3-1.4,12.3-3c4-1.6,7.9-3.6,11.6-6c3.8-2.4,7-4.8,9.7-7.2c1.2-0.9,2.3-1.9,3.1-2.9c0.8-1,1.7-2,2.7-2.9
		c0.3,0.8,0.6,1.9,0.8,3.5c-3.7,5.7-8.2,10.6-13.6,14.6c-5.4,4-11,7-17,8.9c-2.3,0.8-3.7,2.1-4.2,4c-0.5,1.9-0.4,3.7,0.1,5.4
		c0.6,1.7,1.6,3,3.2,4.1c1.6,1,3.5,1.2,5.9,0.4c2.6-1.1,5.3-2.1,8.1-3.2c2.8-1.1,5.8-2.4,8.8-4.1l-0.7,0.9
		c-3.1,4.3-6.6,7.9-10.7,10.9c-4.1,3-7.9,6.5-11.2,10.5c-1.2,1.5-1.4,3.1-0.5,5.1c0.9,1.9,2.3,2.6,4.4,2.2l3.2-0.3
		c0.7,1.5,1.9,2.8,3.6,3.6c1.7,0.9,3.6,0.9,5.6-0.1c7.7-3.4,14.4-8.1,20.3-14c0.2-0.3,0.5-0.4,0.8-0.5c0.3,0,0.7-0.2,1.2-0.5
		c0.1,0.5,0.2,0.9,0.3,1.2c0.2,0.3,0.3,0.6,0.3,1.2c0,0.3,0.1,0.4,0.2,0.4c0.1,0,0.2,0.1,0.2,0.4c-1.2,1.5-2,2.3-2.5,2.7
		c-5.9,5.1-12.5,9.1-19.9,12c-7.3,2.9-14,6.6-19.9,11.2c-1.2,0.9-1.7,2-1.5,3.4c0.3,1.3,1.1,2,2.4,2.2c4.1,0.4,8.5,0.2,13.4-0.7
		c4.9-0.9,9.6-2.2,14.2-4c-5.8,3.5-12,6.5-18.7,9.1c-6.7,2.5-12.7,5.7-17.9,9.4c-1.5,1-2.5,2.2-2.8,3.9c-0.4,1.6-0.3,3.2,0.3,4.8
		c0.6,1.5,1.5,2.8,2.8,3.7c1.3,0.9,2.9,1.2,4.7,0.7c10-1.8,19.7-5.2,29.1-10.1c-1.6,2.3-2.9,4.7-3.7,7.2c-1.1,2.2-1.4,4.1-0.8,5.7
		s1.6,2.8,3.2,3.7c1.6,0.9,3.3,1.3,5.1,1.1c1.8-0.2,3.5-1,5-2.5c2.2-2.1,4.3-4.2,6.4-6.5c2-2.2,4-4.5,5.9-6.8
		c-2,3.9-4.8,7.6-8.3,10.8c-3.6,3.3-7.3,6.4-11.3,9.3c-4,2.9-8,5.8-12,8.6c-4,2.8-7.5,5.7-10.4,8.6c-2,1.5-2.4,3.3-1.3,5.1
		c1.1,1.9,2.7,2.5,4.8,1.7c8.1-2.1,15.5-5.4,22.3-9.8c0.7,2.1,2.4,3.6,4.9,4.7c2.5,1.1,4.9,1,7.2-0.3c1.3-0.7,2.9-1.9,4.9-3.7
		c-0.2,0.6-0.4,1-0.5,1.5c-0.1,0.4-0.3,0.9-0.5,1.4c-0.4,1.6-0.2,3,0.6,4c0.8,1,1.7,1.7,2.8,2.1c-1.3,0.7-2.5,1.2-3.7,1.6
		c-1.2,0.4-2.4,0.9-3.7,1.6c-2.8,1.1-5.7,2.2-8.7,3.3c-3,1.1-6,2.1-9.1,2.9c-1.8,0.7-3,1.8-3.7,3.4c-0.6,1.5-0.8,3.1-0.3,4.6
		c0.4,1.6,1.2,2.9,2.4,4c1.2,1.1,2.8,1.5,4.9,1.3c4.8-0.5,9.1-1.4,12.9-2.9l-0.4,0.4c-1.2,1.7-1.7,3.4-1.5,5c0.2,1.6,0.8,2.9,2,4
		c1.2,1.1,2.6,1.8,4.2,2.2c1.6,0.4,3.2,0.1,4.7-0.9c3.3-1.9,5.9-4.1,8-6.6c2-2.5,3.8-5.3,5.4-8.4c0,5.6,0.4,11.1,1,16.5
		c0.7,5.4,1.5,11,2.7,16.8c-5.1,2.1-11,3.3-17.5,3.5c-6.5,0.2-12.4,1.3-17.5,3.1c-1.6,0.4-2.2,1.4-1.9,2.8c0.3,1.4,1.1,2.4,2.5,2.8
		c1.1,0.2,2.2,0.3,3.3,0.5c1.1,0.2,2.3,0.3,3.6,0.4c-1.8,0.5-3.5,1-5,1.7c-1.5,0.7-3.1,1.4-4.6,2.1c-5.8,3.8-12.3,7.2-19.6,10.4
		c-7.3,3.1-14.4,4.6-21.4,4.5c-0.3,0-0.4,0.2-0.4,0.4c0,0.3,0.2,0.4,0.4,0.4c5.4,0.5,11.6,0.7,18.5,0.6c6.9-0.1,12.9,0.7,17.9,2.6
		c3.1,1.6,6.1,0.9,9-2.1c2.4-2.6,5.6-4.4,9.5-5.1c3.9-0.8,8-1.1,12.3-1c4.3,0.1,8.6,0.3,12.9,0.7c4.3,0.4,8.1,0.5,11.3,0.5
		c2.4-0.2,4.9-0.4,7.6-0.4c2.7,0,5.5,0,8.4,0c0.2,1.8,1.2,2.7,3,2.5c4.2-0.4,8.3-0.3,12.1,0.4c3.8,0.7,7.8,0.8,12.1,0.4
		c2.1-0.2,4.7-0.8,7.8-1.8c3.1-1,4.5-2.9,4.2-5.8c-0.3-2.6-1.6-4.2-4.1-4.8c0.3,0,0.4-0.2,0.4-0.4c0.7-0.9,1-1.8,0.9-2.9
		c3.2-0.3,6.3-0.7,9.3-1.3c3-0.6,6-1.3,8.8-2.1c1.3-0.4,2-1.2,2.2-2.4C990.9,656.4,990.6,655.4,989.7,654.7z"/>
	<path d="M255,630.8c-10.6-23.7-11.9-45.5,4.1-71.1c5.9,2,12.8,0.5,17.4-4c6.3-6.2,6.9-16.8,0.6-23.4c-6.1-6.5-16.4-6.5-22.9-1.1
		c-0.4,0.4-0.8,0.8-1.2,1.2c-14.2-12.8-22-36.1-15-54.8c-18.9,7.9-58.5,6.2-59.9-33.7c-10.5,18.7-30.7,39.2-69.9,22.7
		C131,484,142,508.7,126.4,528c19.1-10.9,62.1,1.2,67.9,36.3c8.9-19.3,34.7-22.5,54-22.1c-0.2,1.6-0.2,3.2,0.1,4.8
		c-21.4,6.5-54.6,32.5-85,23.1c18.3,25.8-0.7,49.2-42.6,56.4c23.1,11,12.6,41.8-12.4,71.5c32.8,7.7,16.5,45,30.8,78.5
		c-0.9-30,24.7-62.2,46.1-39.2c-3.3-42.1,7-60.7,37.9-50.1C204.1,647.5,228.7,626.3,255,630.8z M148.5,488.7
		c0,0,66.1,33.8,102.6,45.9c-1.1,1.7-1.9,3.5-2.4,5.4C197.9,522.6,148.5,488.7,148.5,488.7z M151.9,704.8c0,0,7-94.7,97.6-153.9
		c0.7,1.7,1.7,3.2,3,4.6c0.6,0.6,1.2,1.2,1.9,1.7C176,605.7,151.9,704.8,151.9,704.8z"/>
	<path d="M314,604.5c-0.2,3.2,2,5.3,5.9,5.6c2.8,0.2,5.4-1.8,5.6-4.3c0.3-3.4-2.4-6.5-5.7-6.8C317.1,598.7,314.3,601.4,314,604.5z
		 M320.8,603.5c-0.1-0.5-0.3-1.3,0.1-1.7c0.6-0.7,1.4,0.2,1.7,0.7c0.4,0.8,0.6,1.6,0.5,2.5c0,0.5-0.2,1-0.4,1.5
		c-0.2,0.3-0.4,0.7-0.6,1c-0.7,0.7-1.8,0.2-1.6-0.8c0-0.2,0.2-0.4,0.3-0.5C321.2,605.2,321,604.4,320.8,603.5z"/>
	<path d="M509.2,698.2c-0.3,4,2.5,6.6,7.4,7c3.5,0.3,6.8-2.2,7.1-5.4c0.3-4.2-3-8.2-7.2-8.6C513,691,509.5,694.3,509.2,698.2z
		 M517.7,697c-0.1-0.6-0.4-1.6,0.1-2.1c0.7-0.8,1.8,0.2,2.2,0.9c0.5,1,0.8,2,0.7,3.1c0,0.7-0.2,1.3-0.5,1.9
		c-0.2,0.4-0.5,0.9-0.8,1.2c-0.9,0.9-2.3,0.3-2-1.1c0.1-0.2,0.2-0.5,0.3-0.7C518.2,699.2,517.9,698.1,517.7,697z"/>
	<path d="M783.5,549.3c-0.2,2.8,1.7,4.6,5.2,4.9c2.5,0.2,4.8-1.6,5-3.8c0.2-3-2.1-5.7-5-6C786.1,544.3,783.7,546.6,783.5,549.3z
		 M789.4,548.5c-0.1-0.4-0.3-1.1,0.1-1.5c0.5-0.6,1.3,0.1,1.5,0.6c0.4,0.7,0.5,1.4,0.5,2.2c0,0.5-0.2,0.9-0.4,1.3
		c-0.2,0.3-0.3,0.6-0.6,0.9c-0.6,0.6-1.6,0.2-1.4-0.7c0-0.2,0.1-0.3,0.2-0.5C789.8,550,789.6,549.2,789.4,548.5z"/>
	<path d="M546,133.2c2.4,0.2,4.7-1.5,4.9-3.7c0.2-2.9-2.1-5.7-5-5.9c-2.4-0.2-4.8,2.1-5,4.8C540.7,131.1,542.6,132.9,546,133.2z
		 M546.8,127.5c-0.1-0.4-0.3-1.1,0.1-1.5c0.5-0.6,1.2,0.1,1.5,0.6c0.4,0.7,0.5,1.4,0.5,2.1c0,0.4-0.2,0.9-0.4,1.3
		c-0.2,0.3-0.3,0.6-0.6,0.9c-0.6,0.6-1.6,0.2-1.4-0.7c0-0.2,0.1-0.3,0.2-0.5C547.1,129,546.9,128.3,546.8,127.5z"/>
	<path d="M676.6,116.5c4.2,0.3,8.1-2.7,8.4-6.4c0.4-5-3.5-9.7-8.5-10.2c-4.2-0.4-8.3,3.6-8.7,8.2C667.5,112.9,670.7,116,676.6,116.5
		z M677.4,111.3c0.1-0.3,0.2-0.6,0.4-0.8c0.7-1.3,0.4-2.5,0.1-3.9c-0.1-0.7-0.4-1.9,0.1-2.5c0.8-1,2.1,0.3,2.6,1
		c0.6,1.2,0.9,2.4,0.8,3.7c-0.1,0.8-0.3,1.5-0.6,2.3c-0.3,0.5-0.5,1.1-1,1.5C678.7,113.7,677,112.9,677.4,111.3z"/>
	<path d="M891.6,284.9c3.8,0.3,7.5-2.5,7.8-5.9c0.4-4.6-3.3-9-7.9-9.4c-3.8-0.3-7.7,3.3-8,7.6C883.2,281.6,886.2,284.5,891.6,284.9z
		 M892.4,280.2c0.1-0.3,0.2-0.5,0.4-0.8c0.6-1.2,0.3-2.3,0.1-3.6c-0.1-0.7-0.4-1.7,0.1-2.3c0.8-0.9,2,0.2,2.4,1
		c0.6,1.1,0.8,2.2,0.7,3.4c-0.1,0.7-0.2,1.4-0.6,2.1c-0.2,0.5-0.5,1-0.9,1.4C893.6,282.4,892.1,281.7,892.4,280.2z"/>
	<path d="M979.9,429.8c4.6,0.4,8.9-2.9,9.2-7c0.4-5.5-3.9-10.7-9.4-11.2c-4.6-0.4-9.2,4-9.5,9C969.9,425.8,973.5,429.3,979.9,429.8z
		 M980.8,424.1c0.1-0.3,0.3-0.6,0.4-0.9c0.8-1.4,0.4-2.8,0.1-4.2c-0.2-0.8-0.5-2.1,0.1-2.8c0.9-1.1,2.4,0.3,2.8,1.1
		c0.7,1.3,1,2.7,0.9,4c-0.1,0.9-0.3,1.7-0.7,2.5c-0.3,0.6-0.6,1.2-1,1.6C982.2,426.7,980.4,425.9,980.8,424.1z"/>
	<path d="M920.9,744.7c-2.5-0.2-5.1,2.2-5.3,5c-0.2,2.9,1.8,4.8,5.3,5.1c2.5,0.2,4.9-1.6,5.1-3.9C926.4,747.8,924,744.9,920.9,744.7
		z M923.5,751.5c-0.2,0.3-0.3,0.6-0.6,0.9c-0.7,0.7-1.7,0.2-1.4-0.8c0-0.2,0.1-0.3,0.2-0.5c0.4-0.8,0.2-1.5,0.1-2.4
		c-0.1-0.4-0.3-1.2,0.1-1.5c0.5-0.6,1.3,0.2,1.6,0.6c0.4,0.7,0.6,1.5,0.5,2.2C923.9,750.6,923.8,751.1,923.5,751.5z"/>
	<path d="M165.5,300.9c3.5,0.3,6.9-2.3,7.1-5.4c0.3-4.3-3-8.2-7.2-8.6c-3.5-0.3-7.1,3-7.3,7C157.8,297.8,160.6,300.5,165.5,300.9z
		 M166.2,296.5c0.1-0.3,0.2-0.5,0.3-0.7c0.6-1.1,0.3-2.2,0.1-3.3c-0.1-0.6-0.4-1.6,0.1-2.1c0.7-0.8,1.8,0.2,2.2,0.9
		c0.5,1,0.8,2.1,0.7,3.1c0,0.7-0.2,1.3-0.5,1.9c-0.2,0.4-0.5,0.9-0.8,1.2C167.3,298.5,165.9,297.9,166.2,296.5z"/>
	<path d="M128.8,408.9c5.2,0.4,10.1-3.3,10.4-7.9c0.5-6.2-4.4-12.1-10.6-12.6c-5.2-0.4-10.3,4.5-10.7,10.2
		C117.5,404.4,121.6,408.3,128.8,408.9z M129.8,402.5c0.1-0.4,0.3-0.7,0.5-1c0.9-1.6,0.5-3.2,0.1-4.8c-0.2-0.9-0.5-2.4,0.1-3.1
		c1-1.2,2.7,0.3,3.2,1.3c0.8,1.4,1.1,3,1,4.6c-0.1,1-0.3,1.9-0.8,2.8c-0.3,0.6-0.7,1.3-1.2,1.8C131.4,405.4,129.4,404.5,129.8,402.5
		z"/>
	<path d="M112.8,581.4c0.6-6.9-4.9-13.4-11.7-13.9c-5.7-0.5-11.4,4.9-11.9,11.3c-0.5,6.5,4,10.8,12,11.5
		C107,590.6,112.4,586.5,112.8,581.4z M106.9,582.8c-0.4,0.7-0.7,1.5-1.3,2c-1.5,1.5-3.7,0.5-3.3-1.7c0.1-0.4,0.3-0.8,0.5-1.1
		c1-1.7,0.5-3.5,0.1-5.3c-0.2-1-0.6-2.6,0.1-3.5c1.1-1.3,2.9,0.3,3.5,1.4c0.8,1.6,1.2,3.3,1.1,5
		C107.7,580.7,107.5,581.8,106.9,582.8z"/>
	<path d="M204,799.2c-3.8-0.3-7.6,3.3-7.9,7.5c-0.3,4.3,2.7,7.2,8,7.6c3.8,0.3,7.4-2.4,7.7-5.8C212.2,803.9,208.6,799.6,204,799.2z
		 M207.9,809.4c-0.2,0.5-0.5,1-0.9,1.3c-1,1-2.5,0.3-2.2-1.1c0.1-0.3,0.2-0.5,0.4-0.7c0.6-1.1,0.3-2.3,0.1-3.5
		c-0.1-0.7-0.4-1.7,0.1-2.3c0.8-0.9,2,0.2,2.3,0.9c0.6,1.1,0.8,2.2,0.7,3.3C208.4,808,208.2,808.7,207.9,809.4z"/>
	<path d="M417.3,949.8c-2.9-0.3-5.9,2.5-6.1,5.8c-0.2,3.3,2.1,5.5,6.2,5.9c2.9,0.2,5.7-1.9,5.9-4.5
		C423.5,953.4,420.8,950.1,417.3,949.8z M420.3,957.7c-0.2,0.4-0.4,0.7-0.7,1c-0.8,0.8-1.9,0.3-1.7-0.9c0-0.2,0.2-0.4,0.3-0.6
		c0.5-0.9,0.3-1.8,0.1-2.7c-0.1-0.5-0.3-1.3,0.1-1.8c0.6-0.7,1.5,0.2,1.8,0.7c0.4,0.8,0.6,1.7,0.6,2.6
		C420.7,956.6,420.5,957.1,420.3,957.7z"/>
	<path d="M551.5,928.3c-4.5-0.4-9,3.9-9.3,8.9c-0.4,5.1,3.2,8.5,9.5,9c4.5,0.4,8.8-2.9,9.1-6.9C561.1,933.8,556.8,928.8,551.5,928.3
		z M556.1,940.4c-0.3,0.6-0.6,1.1-1,1.6c-1.2,1.2-2.9,0.4-2.6-1.3c0.1-0.3,0.3-0.6,0.4-0.9c0.8-1.4,0.4-2.7,0.1-4.2
		c-0.2-0.8-0.5-2,0.1-2.7c0.9-1.1,2.3,0.3,2.8,1.1c0.7,1.3,1,2.6,0.9,4C556.7,938.7,556.5,939.6,556.1,940.4z"/>
	<path d="M639.7,956.9c-5.8-0.5-11.7,5-12.1,11.5c-0.5,6.6,4.1,11,12.3,11.7c5.8,0.5,11.4-3.7,11.8-9
		C652.2,964.1,646.7,957.5,639.7,956.9z M645.7,972.6c-0.4,0.7-0.8,1.5-1.3,2.1c-1.5,1.5-3.8,0.5-3.3-1.7c0.1-0.4,0.3-0.8,0.5-1.1
		c1-1.8,0.5-3.6,0.1-5.4c-0.2-1-0.6-2.7,0.1-3.5c1.2-1.4,3,0.4,3.6,1.5c0.9,1.6,1.3,3.4,1.1,5.1
		C646.5,970.5,646.2,971.5,645.7,972.6z"/>
</g>
</svg>
