<?xml version="1.0" encoding="utf-8"?>
<!-- Generator: Adobe Illustrator 22.0.0, SVG Export Plug-In . SVG Version: 6.00 Build 0)  -->
<svg version="1.1" id="Layer_1" xmlns="http://www.w3.org/2000/svg" xmlns:xlink="http://www.w3.org/1999/xlink" x="0px" y="0px"
	 viewBox="0 0 1080 1080" style="enable-background:new 0 0 1080 1080;" xml:space="preserve">
<g>
	<path d="M951,331.3c4.4,9.2,4.8,18.3-0.5,27.3c-0.9,1.5-1.6,3-3.1,5.8c2-1.7,3-2.5,3.9-3.5c3.2-3.3,6.9-4,11.4-3.1
		c6,1.1,11.4,3.5,16.2,7.2c5.8,4.4,12.1,8.3,17.2,13.7c0.5,0.6,1.2,1,2.1,0.4c0.8-1.1,0-1.9-0.6-2.6c-2.6-3.5-5.2-7.1-8.1-10.3
		c-5.7-6.3-8.3-13.8-9.5-22c-0.8-5.3,0.7-9.8,4.3-13.7c1-1,2.9-1.7,1.9-3.8c-2.3,0.1-4.1,1.4-5.9,2.5c-7.3,4.4-14.3,3.8-21.1-1.2
		c-6.8-5.1-13.9-9.9-19.4-16.5c-0.8-1-1.5-2.2-3.6-2.2c0.4,2.9,2.3,4.3,3.8,6C944.1,320.3,948.2,325.4,951,331.3z M975.2,335.8
		c0.3,1.7,0.9,3.2-0.4,4.6c-0.6-0.5-1.2-1.5-1.6-1.4c-4.2,1.1-7.7-0.9-12.2-2.7c2.3,5,6.7,4.2,10.7,5.7c-0.8,5.5,2.4,10,6.1,15.3
		c-7.9-0.4-13.6-3.6-19.9-5.5c-0.1-6.4,0.6-12.7-1.6-19.7C962.9,335.4,968.7,337.9,975.2,335.8z M975.6,346.5
		c-1.2-2.6-1.7-4.2-0.7-5.9C976.2,342,975.7,343.7,975.6,346.5z"/>
	<path d="M102.2,356.7c2.3-2.6,4.8-5.1,6.9-7.8c4.1-5.3,9.6-8.5,15.8-10.6c4-1.4,7.7-0.9,11.3,1.4c0.9,0.6,1.7,2,3.3,1
		c-0.4-1.8-1.7-3-2.8-4.3c-4.5-5.1-5.1-10.6-2.1-16.7c3-6.1,5.7-12.3,10.1-17.6c0.6-0.8,1.5-1.5,1.2-3.2c-2.2,0.7-3.1,2.5-4.2,3.8
		c-3.3,4-6.7,8-10.9,11.1c-6.5,4.8-13.6,6.4-21.4,3.5c-1.3-0.5-2.6-0.8-4.9-1.6c1.6,1.3,2.4,2,3.3,2.5c3,2,4.1,4.8,4.1,8.4
		c0,4.9-1.1,9.4-3.3,13.7c-2.6,5.2-4.7,10.7-8.3,15.4c-0.4,0.5-0.6,1.1,0,1.7C101.3,358,101.7,357.2,102.2,356.7z M122.5,335.2
		c1.9-1.3,3-1.9,4.5-1.4C126.1,335,124.7,334.9,122.5,335.2z M115.8,322.2c5-1,10-1.4,15.2-4.1c-1.6,5.6-2.7,10.5-0.2,15.3
		c-1.3,0.5-2.4,1.2-3.6,0.4c0.3-0.5,1-1.2,0.9-1.5c-1.5-3.1-0.4-6.2,0.4-9.9c-3.6,2.6-2.4,5.8-2.9,9.2c-4.4,0.1-7.5,3.3-11.1,7
		C113.6,332.3,115.2,327.4,115.8,322.2z"/>
	<path d="M990.2,618.8c-9-5.6-18.8-8.1-29.5-7.2c-2.3,0.2-4.6,0.7-6.7,1.4c-2.8,0.9-4.2,3.8-3.4,6.4c0.7,2.5,2.5,3.2,5.8,2.5
		c2.8-0.6,5.6-1,8.5-1.1c10.7-0.1,19.7,4.1,27.4,11.3c11.3,10.6,17.7,23.9,20.6,38.9c1.1,5.5,1.3,11,0.5,16.5
		c-1.5,9.9-5.5,18.7-11,26.9c-1.1,1.7-2.1,3.4-3.6,4.8c-0.7-0.5-0.8-1.2-1-1.7c-1.7-3.7-3.8-7.1-6.5-10.1c-4.8-5.3-10.7-8.7-18-9.4
		c-18.3-1.7-32.4,14.5-30.6,31.6c0.6,5.2,3.3,9.2,7.6,12.1c2.6,1.7,5.4,2.9,8.4,3.6c10.9,2.4,21.2,1.1,30.9-4.5
		c0.6-0.3,1.1-0.7,1.9-1.1c0.4,1.3,0.2,2.3,0.1,3.2c-2.2,17.7-9.2,33.3-20.7,46.9c-2.8,3.3-6,6.2-9.6,8.7
		c-5.8,4.1-12.2,6.5-19.4,6.8c-3.1,0.1-5.1,1.9-5.5,4.6c-0.4,2.8,1.1,4.6,4,4.7c0.7,0,1.5,0,2.2-0.1c9.9-0.6,18.6-4.4,26.3-10.3
		c9.8-7.6,16.9-17.4,22.2-28.4c6.6-13.5,10.4-27.7,10-42.9c0-0.9,0.2-1.5,0.8-2.2c5.9-6.3,10.4-13.5,14.1-21.3
		c2.8-6.1,5.2-12.3,6.5-18.9c2.1-10.1,1.3-20.1-1.6-30C1015.7,643.1,1006,628.7,990.2,618.8z M968.3,738c-6.3,0.6-11.5-1.5-14.9-7.1
		c-2.7-4.5-2.7-8.9-0.1-13.4c4-6.9,13.4-11.2,21-9.6c4.6,1,8.3,3.5,11.1,7.3c2.8,3.7,4.4,8,5.3,12.7
		C984.1,733,976.9,737.1,968.3,738z"/>
	<path d="M146.5,805.3c-7.2-0.2-13.6-2.7-19.4-6.8c-3.6-2.5-6.8-5.4-9.6-8.7C106,776.2,99,760.6,96.9,742.9c-0.1-1-0.3-1.9,0.1-3.2
		c0.8,0.5,1.3,0.8,1.9,1.1c9.6,5.6,20,6.9,30.9,4.5c3-0.7,5.8-1.8,8.4-3.6c4.3-2.9,7.1-6.9,7.6-12.1c1.9-17.1-12.3-33.3-30.6-31.6
		c-7.2,0.7-13.1,4.1-18,9.4c-2.7,3-4.9,6.4-6.5,10.1c-0.3,0.6-0.3,1.3-1,1.7c-1.5-1.4-2.5-3.1-3.6-4.8c-5.5-8.2-9.5-17-11-26.9
		c-0.8-5.5-0.6-11.1,0.5-16.5c3-15,9.3-28.3,20.6-38.9c7.7-7.2,16.7-11.3,27.4-11.3c2.9,0,5.7,0.4,8.5,1.1c3.3,0.7,5,0,5.8-2.5
		c0.8-2.7-0.7-5.5-3.4-6.4c-2.2-0.7-4.4-1.2-6.7-1.4c-10.6-1-20.5,1.6-29.5,7.2c-15.8,9.8-25.5,24.2-30.7,41.7
		c-3,9.9-3.7,19.9-1.6,30c1.4,6.6,3.7,12.8,6.5,18.9c3.6,7.8,8.2,15,14.1,21.3c0.6,0.6,0.8,1.3,0.8,2.2c-0.4,15.2,3.4,29.4,10,42.9
		c5.4,11,12.4,20.8,22.2,28.4c7.7,6,16.4,9.7,26.3,10.3c0.7,0,1.5,0.1,2.2,0.1c2.9-0.1,4.3-1.8,4-4.7
		C151.6,807.1,149.6,805.4,146.5,805.3z M102.8,715.1c2.8-3.7,6.5-6.3,11.1-7.3c7.6-1.6,17,2.8,21,9.6c2.6,4.5,2.6,8.9-0.1,13.4
		c-3.4,5.7-8.5,7.7-14.9,7.1c-8.6-0.9-15.7-5-22.5-10.2C98.5,723.2,100,718.9,102.8,715.1z"/>
	<path d="M253.1,632.5c-5.4-0.9-9.8,1.2-12.1,6.8c-3.5,7.3-6.9,14.9-9.6,22.4c-4.2,11.6-7.7,23.4-11.5,34.5c-1.1,2.3-2.6,3.7-4,5.9
		c-1.4-2.7-3.4-4.7-4.1-7.3c-3.6-12.5-6.6-24.5-10.4-36.4c-2.4-7.3-5.2-14.6-8.7-20.9c-4.9-9-16.2-7.7-20.2,1.2
		c-1.4,2.5-1.8,6.1-1.8,9.4c0,15.6,0.7,31.6,0.7,47.6c0.7,28.5,1,57,1.3,86c0,7.3,0.6,15,0.6,22.3c-0.4,21.7-0.7,43-1,64.2
		c0,2.2,0,4,0.3,6.1c0.6,6.4,4.6,13.8,9.2,18c5.3,4.8,8.8,3.9,9.5-2.2c0.3-2.1,0.4-4.4,0.4-6.7c0.1-9.3,0.6-18.8,0.7-28.2
		c0.3-22.2,0.9-44.2,0.9-66.2c0-23.9-0.4-47.9-0.5-71.2c-0.3-2.4,0.1-4.3,0.4-6.1c0-0.8,0.4-1.1,0.7-1.8c0.7,0.9,1.7,1.2,2.1,2.1
		c1,3,2,6,2.7,8.9c2,6.5,3.6,13.3,5.9,20.1c1.6,5.3,5,8.9,9.9,10.4c4.8,1.5,8.4,0.1,10.6-4.4c2.2-5.7,4.2-12.1,6.4-18
		c1.1-2.3,1.9-5.2,3-7.5c0.4-0.8,1.4-1,2.5-1.7c0.3,0.9,0.6,2.3,0.6,3.2c-0.7,24.3-1.3,48.2-2.3,72.3c-0.7,14.2-2.2,28-2.5,42.3
		c-0.7,25.5-0.7,51.8-1.4,77.4c0,1.7-0.1,3.9,0.2,5.9c0.8,7.2,4.4,14.1,9.4,18c5.4,3.7,9.3,2.5,10.8-3.5c0.8-3.2,0.9-6.4,1-10
		c1.2-40,0.7-80.5,3.7-119.6c2.1-22.6,2.5-46,3.2-69.6c0-1.4,0.1-3.2,0.1-4.5c0.8-25,1.9-49.4,3-74.4c0.1-4.1,0.3-8.6-0.3-12.8
		C261.3,638,258.5,633.5,253.1,632.5z"/>
	<path d="M286.3,634.3c-6.2,0-11.1,6.4-11.7,16.1c-0.1,1.9-0.1,3.3-0.1,4.6c0.1,8.8,0.2,17.7-0.1,26.5c-0.7,33-1.8,66.1-3.2,99
		c-1.5,34.3-2.9,68.6-4.4,102.7c-0.5,15.3-1.3,30-1.8,44.8c-0.1,3.7,0.1,7.6,0.7,11.3c1.2,6.8,5.6,13.2,10.5,15.5
		c4.6,2.1,8.9,0,9.9-6.4c0.8-2.5,0.9-4.9,1-7.8c0.6-17.8,1.2-35.2,1.8-53c1-29.9,2-59.7,3-89.1c0.4,0.1,0.7,0.2,1.1,0.3
		c1.2-35.2,2.3-70.4,3.5-105.7c0.5-14,0.6-28,1-42C297.3,641.6,292.9,634.3,286.3,634.3z"/>
	<path d="M369.9,638.3c-8.7-12.8-28.9-13.6-37.5-7c-13.4,10.1-20.1,26.1-22.9,45.6c-1.5,13.2-2,26.9-2.8,40.6
		c-0.8,14.2,1.3,27.3,5.9,40.6c2.3,7.4,5.4,14,8.4,21.2c8.4,20.9,15,43,19.4,66.5c6.3,33.8,6.7,67.8,4.6,101.2
		c-0.5,5.1-2.5,9.6-4.9,12.9c-3.5,4.5-7.1,0.9-8-6.2c-0.5-6.4-1.1-13.4-0.9-19.5c0.5-15.3,1-31.2,1.5-47.1c0.7-10.7-3.1-19.5-9.6-22
		c-6.5-3-11.4,1.5-12.5,12.2c-0.7,10.8-0.7,22.4-1.1,33.3c0,0,0,0-0.4-0.1c-0.2,5-0.3,9.9-0.1,15.1c0,9.6-0.3,19,1.2,28.8
		c1.4,12.7,5.7,26,14.7,34.2c7.2,6.3,14.9,9.1,22.5,6.2c12.5-4.7,19.3-18.7,20.3-38.3c0.5-16.5,1-33,0.7-49.1
		c-0.3-26.9-2.6-53.7-8.8-79.3c-6.6-26.2-13.5-51.6-24.1-74.2c-4.4-9.4-7-19.9-6.6-31c0.4-12.7,0.8-24.8,2.3-36.9
		c1-7,3.4-14.5,6.1-20.5c3.5-7,6.8-6.9,13.2-4.6c4.7,1.2,4.5,6.9,5.1,12.2c0.2,4.7-0.3,9.9-0.5,14.6c0,10.4,4.2,17.1,10.8,18.1
		c6.2,0.5,10.8-5.6,11.4-15.7c0.6-8,0.8-16.5,0.3-24.5C377.4,655.4,375.1,645.7,369.9,638.3z"/>
	<path d="M468.9,658.6c-4,0-8,0-12-0.1c-18.1-0.7-36.6-1.3-55.1-1.5c-5.1,0-8.8,3-10.8,9.2c-2,6.1-1.5,13.3,2,17.6
		c2.5,2.7,5.7,4.9,9,5.5c5.1,1.2,9.8,0.9,14.9,1c3.3,0.1,4.7,2.3,4.2,7c-0.1,5.8-0.6,11.6-0.8,17.9c-1,42.7-2.1,85.9-3.1,128.6
		c0.4,0,0.7,0.1,1.1,0.1c-0.8,49.1-1.6,97.7-2.3,146.8c-0.1,2.6,0.2,5.9,0.6,8.6c1.7,7.3,5.8,13,10.8,14c5,1,9.7-2.9,11.4-10.1
		c0.8-3.1,0.9-6.8,1-10c0.3-16.6,0.7-33.2,0.6-49.3c0.6-51.9,0.9-103.8,1.9-155.1c0.2-28.9,0.8-57.7,1.3-86
		c0.2-11.2,1.3-12.3,9-11.5c5.5,0.1,10.9,1.3,16.4,1.4c7.7,0.2,13.3-7.4,13-17.2C481.9,665.2,476.5,658.1,468.9,658.6z"/>
	<path d="M537,993.1c-5.4-0.1-11.3-0.8-16.7-0.4c-3.9-0.2-5.4-1.9-5.4-7.5c-0.2-24.5-0.5-48.9-0.3-73.4c0.1-23.9,1.8-47.7,1.9-72.2
		c0.7-56.1,1-112.8,1.3-169.5c0-2.2,0-4.4-0.3-6.7c-1-8.9-5.7-14.5-11.2-13.9c-5.4,0-9.5,5.5-10.7,14.4c0,3.3-0.1,6.1-0.1,9.4
		c-0.6,27.7-0.9,55.9-1.2,83.5c0.4,0,0.4,0,0.7,0c-1.1,34.3-2.5,68-3.3,102.2c-0.8,44.8-0.9,89-1.4,133.8c0,4.4,0.3,9.4,0.6,13.9
		c1,11.2,5.3,18.8,13.1,19.4c11.7,1.4,23.4,1.9,34.8,1.4c7,0.1,11.3-8.4,11.3-17.8C549.8,999.8,544.8,993.2,537,993.1z"/>
	<path d="M616,645.3c-4-0.5-8-2.2-12.4-2.2c-9.8,0-19.6-0.5-29.4,0.7c-8.4,1.2-11.6,9.2-11.6,21.8c0.1,37.3-0.5,74.1-0.4,110.8
		c0,5.7,0,10.3-0.3,15.5c-0.3,9.8,0.4,19.5,0.5,28.7c0.8,21.8-0.2,43.6-0.2,64.9c0.1,17.8-0.3,35.6-0.2,53.4
		c0.1,21.8-0.6,46,2.2,67.7c1.6,12.6,7.9,19.8,16.5,20.4c10.9,0.4,21.9-1.8,32.3-6.5c7-3.1,11.1-10.6,10.2-20.7
		c-0.5-9-5.2-14.6-12.6-13.8c-4.3,0.5-8.5,2.6-12.7,4.1c-9.7,3.1-10.5,2-10.6-11.7c-1-34.3-1.7-69.2-2.3-103.5
		c-0.1-8.6-0.1-17.2-0.2-25.8c0-5.7,1.5-8.1,4.8-8.2c4.5-0.2,9.1,0.1,13.6-0.7c3-0.2,6.4-0.4,9-2.3c6-3.3,8.5-12.5,6.8-22.1
		c-1.6-8.4-6.5-13.2-12.9-12.3c-4.9,0.8-9.3,1.6-14.2,1.8c-6.4,0.3-7.1-0.9-7.2-11.2c-0.1-7.4,0.3-14.9,0.2-22.3
		c0.5-27.5,0.7-54.4,0.5-81.3c0.3-12,0.3-12.6,7.9-12.1c6.9-0.1,13.9,1.5,20.9,1.9c7.7,1,13.1-4.8,13.3-15
		C628.2,654.8,623.7,646.4,616,645.3z"/>
	<path d="M717.2,657.4c-4,0.1-8,0.1-12,0.1c-18.2-0.3-36.7-0.7-55.2-0.5c-5.1,0-8.6,3.3-10.3,9.7c-1.7,6.4-0.8,14,2.9,18.2
		c2.6,2.6,5.9,4.7,9.2,5.1c5.1,0.9,9.9,0.3,15,0.1c3.3-0.1,4.8,2,4.5,6.7c0.1,5.8-0.1,11.6,0.1,17.9c1,42.6,2.1,85.7,3.1,128.4
		c0.4,0,0.7-0.1,1.1-0.1c1.6,48.8,3.1,97.1,4.7,145.9c0.1,2.6,0.5,5.7,1,8.2c2.1,6.4,6.4,10.1,11.3,8.7c4.9-1.3,9.3-7.3,10.6-14.9
		c0.7-3.3,0.6-6.9,0.5-10c-0.4-16-0.9-32-1.7-47.4c-1.8-50-3.9-100-5.3-149.6c-1.1-27.9-1.9-55.8-2.7-83.2
		c-0.3-10.9,0.8-11.9,8.4-11.7c5.5-0.2,10.9,0.6,16.4,0.3c7.6-0.4,12.9-7.6,12.2-16.5C730.5,663.2,724.8,656.8,717.2,657.4z"/>
	<path d="M844.5,747.7c-0.8-15.8-2.7-31-4.6-46.3c-1.8-14-4-28-9.2-41.7c-3.9-11-10.4-19.5-19.9-23.6c-12.8-5.4-25.5-5.6-38,1
		c-8.2,4.6-14.1,13.3-17,24.6c-1.9,7.2-3.5,15-4.7,22.7c-4.2,37.7-5.6,75.9-4,114c1.5,24.1,2.6,48.7,4.1,72.7
		c1.4,20.4,2.4,40.8,4.9,60.7c1.4,10.4,5.1,19.4,8.7,28.2c2.4,7.2,7.3,10.3,13.2,11.6c14.7,2.8,30-5.7,44.3-20.4
		c7.5-7.8,13.8-17.7,17-29.7c2.2-9.1,4.3-18.5,5.4-27.3c3.5-24,1.4-45.7,1.5-67.8C846.7,799.5,846,773.6,844.5,747.7z M821.3,913
		c-1.1,9.1-6.2,15.2-12.5,19.4c-4.2,2.6-8.5,4.7-13.1,6.4c-6.4,2.6-11.9,1-14.1-7.7c-2.6-12-5.2-24.1-6.3-36.9
		c-2.1-29.6-3.4-60.1-4.5-90.7c-1.1-22.5-1.1-44.7-0.8-67.3c0.6-16.2,2.6-32.4,3.8-48.5c0-1.5,0.3-3,0.6-4
		c3.1-16.6,5.9-19.7,18.5-20.4c13.4-0.8,17.1,1.9,20.5,19.4c3.4,17,6.1,34.2,7.8,51.5c1.9,14.9,2,30.2,3.3,48.9
		c0.2,29.2,0.5,61.7,0.5,94.5C824.8,889,823,901.2,821.3,913z"/>
	<path d="M907.8,639.2c-4-0.2-7.9-1.3-12.3-1.1c-9.7,0.3-19.5,0.2-29.2,1.3c-8.3,1-11.4,7.2-11.1,16.6c0.7,27.9,0.7,55.5,1.5,83
		c0.1,4.3,0.2,7.7,0,11.7c-0.2,7.4,0.7,14.5,0.9,21.4c1.1,16.1,0.5,32.8,0.9,48.7c0.4,13.3,0.4,26.8,0.7,40.2
		c0.4,16.3,0.2,34.9,3,49.7c1.6,8.6,7,10.3,14.2,5.6c9.1-6.2,18-14.4,26.5-24c5.6-6.4,9-13.9,8.3-20.1c-0.3-5.7-4.1-6.7-10.2-2.1
		c-3.5,2.7-7,6.5-10.5,9.9c-8,7.5-8.8,7.2-8.9-2.6c-1.1-24-2-48.8-2.8-73.2c-0.1-6.1-0.3-12.3-0.4-18.4c-0.1-4.1,1.2-6.3,4.3-7.5
		c4.1-1.6,8.2-2.9,12.2-5.1c2.7-1.1,5.7-2.5,8.1-4.6c5.3-4.3,7.6-11.2,6.3-17c-1.4-5.1-5.8-6.9-11.6-4.5c-4.4,1.9-8.5,3.8-13,5.3
		c-5.8,2-6.6,1.4-6.7-6c-0.1-5.3,0.1-10.7,0-16c0.3-19.8,0.3-39-0.1-58.1c0.2-8.6,0.2-9,7.7-9.3c6.8-0.6,13.6-0.1,20.3-0.5
		c7.5-0.1,12.8-4.3,13.1-10.8C919.6,644.9,915.3,639.7,907.8,639.2z"/>
	<path d="M129.5,482.3c13.5,0,15.8,6.1,15.8,19.9v22.2c0,8.4,0.3,22-1.8,34.5c-5.9,38.1-43.7,35.3-43.7-4.3v-52.4
		c0-21.7,10-19.9,15.8-19.9v-4.3c-20.7,0-41.1,0-61.8,0v4.3c5.9,0,15.8-1.8,15.8,19.9v42.1c0,31.7,16.3,53.9,50.6,49
		c16.3-2.3,27.8-13.5,30.9-34.5c1.3-9.5,1.3-20.9,1.5-34.5v-22.2c0-21.7,10-19.9,15.6-19.9v-4.3c-13,0-25.8,0-38.8,0V482.3z"/>
	<path d="M391.6,425.6c-6.1-9-16.2-15.3-32.2-17.1c11.2-13.7,4-32.8-14.8-40.6c-33.2-13.5-70.2,8.9-81.2,40.9
		c-13.3-3.8-27.1-8.9-40.9-14.3c-27.8-10.5-77.9-28.4-113.7-18.9c-20.4,5.4-35.5,21.7-38.1,40.9c-7.4,53.9,67.4,67.7,74.3,16.1
		c0.5-4.6,0.8-11.5-1-15.3c-3.8-8.9-17.4-3.8-14,5.9c1.3,3.3,4.1,6.1,8.2,5.9c-2.8,45-66.9,34-60.3-12c2.6-16.3,16.1-30.1,34-34.7
		c34-8.4,83,9.5,108,18.9c14.1,5.4,27.8,10.7,41.4,14.6c-4.1,16.1-4.3,30.7-4.1,47v85.3l-45.7-140c-13.8,0-27.6,0-41.4,0v4.3
		c5.6,0,15.6-1.8,15.6,19.9v136.1c0,21.7-10,19.9-15.6,19.9v4.3c13,0,25.8,0,38.8,0v-4.3c-5.6,0-15.8,1.8-15.8-19.9V445.2
		l48.3,147.4c13,0,25.8,0,38.8,0v-4.3c-5.6,0-15.8,1.8-15.8-19.9v-105c0-15.6,0-30.9,4.1-46c10,2.5,22.8,5,35.8,5.9
		c0.5,2.4,0.8,5.3,0.8,8.9c0,45.5,0,90.7,0,136.1c0,21.7-10,19.9-15.6,19.9v4.3c20.4,0,41.1,0,61.6,0c21.7,0,34.2-8.7,41.4-21.5
		C404.6,548.7,409,450.9,391.6,425.6z M270.5,410.5c9.7-27.8,42.1-48,71.3-36c15.9,6.6,21.7,23.1,7.7,33.5h-60v4.3
		c3.4,0,8.3-0.6,11.7,3.6C289.8,414.8,278.9,412.6,270.5,410.5z M364.8,572.4c-8.2,20.7-29.4,23.2-29.4-4.1c0-45.5,0-90.7,0-136.1
		c0-4.5,0.6-8.1,1.6-11c5.3-1.3,10.2-3.2,14.5-5.9c0.5-0.3,1-0.7,1.5-1.1c4.8,2.3,9.4,7.3,12,14.1
		C374.5,452.9,374.7,548.2,364.8,572.4z"/>
	<path d="M471.3,641.9c47.8-3.6,79.4-22.5,119.3-45.2c10.5,30.7,46.5,48.3,77.1,36.3c34.7-13.3,31.9-68.2-25.5-63.3
		c-9.7,0.8-18.9,3.3-27.8,7.2c-6.9-23.8-11.5-48.3-38.6-56.5c3.1-0.8,5.6-1.8,8.2-2.8c29.4-13.3,37.5-60.5,22.2-87.4
		c-8.2-14.3-23.5-20.7-39.3-22c-5.4-0.5-10.5-0.3-16.1-0.3h-51.1v4.1c5.9,0,15.8-1.5,15.8,19.9v136.4c0,21.5-10,19.9-15.8,19.9v4.1
		h61.8v-4.1c-5.9,0-15.8,1.5-15.8-19.9v-46h8.7c20.4,1.8,26.3,51.9,33.2,67.9c-38.8,22-70.2,40.9-117,44.4
		c-76.4,5.9-71.3-86.6-20.2-82.8c13,1,22.2,12,23,24.3c-4.6-0.5-8.2,2.6-9.5,6.4c-3.8,10.5,10.7,16.3,15.3,6.6
		c2.6-5.6,1.8-14.3,0.3-20.4c-3.6-12.5-14.6-23-28.6-24C389.6,540.3,384.2,648.8,471.3,641.9z M642.9,576.8
		c47.3-3.8,50.1,37.3,23.5,49c-31.2,13.8-41.9-17.4-50.3-42.1C625.1,580.1,633.7,577.6,642.9,576.8z M567.3,513.7
		c-6.4,4.3-14.3,3.1-21.7,3.1V432c0-6.9,1-11.5,2.8-14.6c3.3-5.9,11.7-6.4,17.4-3.6C590.8,426.3,590.6,497.6,567.3,513.7z"/>
	<path d="M406.2,529.3v4.3h86.1v-26.3h-4.1v5.4c0,20.9-36,20.9-36-3.3v-37.3c18.4,0.3,17.9,4.6,18.4,15.8h4.1v-36h-4.1
		c-0.5,11,0,15.3-18.4,15.6V432c0-24.3,36-24.3,36-3.3c0,3.3,0,5.1,0,5.6h4.1V408h-86.1v4.1c5.6,0,15.6-1.5,15.6,19.9v77.4
		C421.7,531.1,411.8,529.3,406.2,529.3z"/>
	<path d="M789.3,437.3v-11.7V408H678.7v17.6v11.7h4.3l-0.3-8.4c0-21.2,36-20.9,36,3.3c0,45.5,0,90.7,0,136.1
		c0,21.7-10,19.9-15.6,19.9v4.3c20.4,0,41.1,0,61.6,0v-4.3c-5.6,0-15.6,1.8-15.6-19.9c0-45.5,0-90.7,0-136.1c0-24.3,36-24.3,36-3.3
		c0,3.3,0,7.9,0,8.4H789.3z"/>
	<path d="M872.1,412.3c5.6,0,15.8-1.8,15.8,19.9v111.4c-10.2-8.9-30.7-14.3-46.2-15.3v-96c0-21.7,10-19.9,15.6-19.9V408
		c-20.4,0-41.1,0-61.6,0v4.3c5.6,0,15.6-1.8,15.6,19.9c0,45.5,0,90.7,0,136.1c0,21.7-10,19.9-15.6,19.9v4.3c20.4,0,41.1,0,61.6,0
		v-4.3c-5.6,0-15.6,1.8-15.6-19.9v-33.2c16.6,1.3,36.3,6.4,46.2,18.1v15.1c0,21.7-10.2,19.9-15.8,19.9v4.3c20.7,0,41.1,0,61.6,0
		v-4.3c-5.6,0-15.6,1.8-15.6-19.9c0-45.5,0-90.7,0-136.1c0-21.7,10-19.9,15.6-19.9V408c-20.4,0-40.9,0-61.6,0V412.3z"/>
	<path d="M1026.1,434.5V408H940v4.3c5.6,0,15.6-1.8,15.6,19.9c0,45.5,0,90.7,0,136.1c0,21.7-10,19.9-15.6,19.9v4.3h86.1v-26.1h-4.1
		v5.1c0,21.2-36,21.2-36-3.3v-37c18.4,0.3,17.9,4.3,18.1,15.6h4.3c0-12,0-24,0-36h-4.3c-0.3,11.2,0.3,15.3-18.1,15.6v-94.3
		c0-24.3,36-24.3,36-3.3c0,3.3,0,5.1,0,5.6H1026.1z"/>
	<path d="M940.6,270.3c0.6-2.8,0.4-5.6-0.4-8.3c-1.3-4.2-3.5-7.8-6.4-11c-12.1-13.3-26.8-22.3-44.5-26c-0.6-0.1-1.2-0.4-2-0.6
		c1-1.4,1.8-2.5,2.6-3.7c5.6-7.8,11.3-15.4,16.7-23.4c2.3-3.5,4.2-7.5,5.6-11.4c2.1-5.9-1.6-10.4-7.8-10.2c-1,0-2.1-0.1-2.9-0.6
		c-9.4-6-18.9-11.8-28.1-18c-15.2-10.2-30.4-20.4-46.5-29.1c-34.2-18.6-70.4-32.6-107.6-43.7C684.8,73.9,650.1,65.6,614.7,60
		c-13.7-2.2-27.4-3.8-41.2-5.2c-9.8-1-19.7-1.4-29.6-2.1c-0.6,0-1.2-0.3-1.7-0.5c-1.5,0-2.9,0-4.4,0c-1.1,0.2-2.2,0.4-3.3,0.5
		c-14.2,1.1-28.4,1.9-42.6,3.4c-17.8,1.9-35.4,4.9-53,8.5c-36.4,7.3-72.3,16.7-107.5,28.8c-33.7,11.7-66.3,26-96.6,44.9
		c-18.7,11.7-37,24-55.5,36c-1.4,0.9-2.7,1.5-4.6,1.4c-5.6-0.3-9.2,5-7.5,9.5c0.6,1.5,0.8,3.1,1.6,4.4c2.7,4.7,5.4,9.3,8.5,13.8
		c4.5,6.5,9.2,12.8,13.8,19.3c0.4,0.5,0.7,1.2,1.1,1.9c-1.8,0.4-3.3,0.6-4.8,1c-14.2,3.6-26.5,10.9-37.2,20.8
		c-2.3,2.1-4.4,4.5-6.2,7c-1.7,2.4-3.2,5.1-4.3,7.9c-1.4,3.1-1.5,6.5-0.5,9.8c0.9,2.9,2.7,3.9,5.5,2.9c1.4-0.5,2.5-0.6,3.9-0.2
		c0.9,0.3,1.8,0.3,2.8,0.3c4.4,0.1,8.4,1.4,12.1,3.8c8.4,5.3,15.1,12.7,22.8,18.9c-1.1,1.5-2.1,2.9-3,4.2c-7.3,10.5-11.1,22-9.7,35
		c0.6,5.3,1.1,10.6,1.7,15.8c0.3,2.8,0.2,5.3-1.5,7.7c-1.2,1.7-1.9,3.7-2.6,5.7c-1,3.3,1.4,6.2,4.8,5.7c1.1-0.2,2.3-1,3.1-1.8
		c7.4-7.5,16.3-12.5,26.2-15.8c11.7-3.8,23.8-5.2,36-5.3c12.9-0.1,25.8,0.4,38.7,0.7c4.8,0.1,9.6,0.4,14.3,0.7
		c12.2,0.7,24.3,1.6,36.5,2.1c12.4,0.4,24.8-0.4,36.8-3.7c10.7-2.9,20.4-7.8,28.5-15.5c3.4-3.3,3.5-6.6,0.4-10.1
		c-0.5-0.6-1.2-1.2-1.4-2c-2.3-7.8-7.1-14.1-11.9-20.3c-5.9-7.7-11.8-15.4-17.6-23.1c-2.9-3.8-5.1-8-6.8-12.7
		c0.9-0.5,1.7-0.9,2.6-1.2c8-3.2,16-6.5,24.1-9.4c27.5-10.1,55.6-17.9,83.6-26.2c11.9-3.5,24-6.2,36.4-7.1c2.5-0.2,5-0.2,7.5-0.4
		c2-0.2,3-1.1,3.1-2.8c0.1-1.8-1-3-3-3.3c-0.6-0.1-1.2-0.1-1.9-0.1c-13.5-0.8-26.8,0.6-40,3.6c-25.6,5.7-50.9,12.4-76,20
		c-36.1,10.9-70.3,26.4-103.4,44.3c-11,6-21.5,12.7-31.1,20.8c-0.2,0.2-0.5,0.2-1,0.4c-3.1-7.4-8.3-13.4-12.6-20.1
		c-0.5-0.8-1-1.6-1.5-2.4c-11.5-20.6-24.7-40.3-38.3-59.6c-7.8-11.1-15.2-22.6-22.8-33.9c-0.7-1.1-1.3-2.3-2.1-3.6
		c0.8-0.4,1.3-0.6,1.9-0.9c3.9-1.7,7.9-3.2,11.7-5.1c11-5.7,21.9-11.5,32.8-17.3c14.9-7.9,29.4-16.5,44.6-23.8
		c55.9-26.9,114.7-44.9,175.6-56.5c25.3-4.8,50.7-8,76.4-9.8c5.4-0.4,10.8-0.8,16.2-0.6c25.3,0.9,50.4,3.9,75.4,8
		c34.8,5.8,69,14.1,102.7,24.9c34.2,10.9,67.7,23.8,99.5,40.6c14.3,7.5,28.2,15.6,42.4,23.2c11.3,6.1,22.4,12.4,34.5,16.8
		c0.2,0.1,0.4,0.4,0.7,0.7c-0.6,1-1.1,2-1.7,3c-7.8,13.2-16.8,25.6-25.6,38c-11.5,16.1-22.2,32.7-32.3,49.7
		c-3.4,5.8-7.2,11.4-10.8,17.1c-1.9,3.1-3.8,6.2-5.7,9.3c-0.4,0.7-0.7,1.4-1.2,2.2c-0.7-0.5-1.2-0.9-1.7-1.3
		c-7.6-6.4-15.8-11.9-24.4-16.8c-31.5-17.8-64.3-32.8-98.6-44.2c-26.2-8.7-53-15.2-79.7-21.8c-13.5-3.3-27.1-5.4-41.1-5.3
		c-2.4,0-4.8,0.1-7.2,0.3c-2.2,0.2-3.5,1.5-3.4,3.3c0,1.7,1.2,2.7,3.4,2.9c0.2,0,0.4,0,0.6,0c11.9,0.2,23.6,2.2,35.1,5.4
		c16.8,4.7,33.5,9.7,50.3,14.7c22,6.6,43.8,13.9,65,22.9c1,0.4,2,0.9,3,1.4c-2,4.9-4.2,9.2-7.2,13.1c-6.5,8.5-13,17-19.5,25.6
		c-3.7,4.9-7.2,10-9.2,15.9c-0.5,1.5-1.2,2.8-2.3,4c-2.8,2.9-2.6,6.3,0.1,9.1c0.6,0.6,1.2,1.2,1.8,1.7c8.5,7.6,18.5,12.3,29.5,14.9
		c14.2,3.4,28.7,3.6,43.1,2.8c12.9-0.7,25.8-1.6,38.6-2.3c6.5-0.4,13.1-0.4,19.7-0.7c12.6-0.5,25.2-0.6,37.7,0.8
		c18,2,34.6,7.2,47.6,20.7c1.6,1.7,3.8,1.8,5.7,0.6c1.9-1.2,2.5-3,1.5-5.4c-0.9-2.2-2.1-4.3-3-6.5c-0.5-1.2-1-2.5-0.9-3.8
		c0.2-4,0.7-8.1,1.2-12.1c0.6-5.7,1.3-11.4,0.6-17.1c-1.2-9.5-5.1-17.9-10.7-25.6c-0.7-0.9-1.3-1.8-2-2.9
		c6.2-5.3,12.4-10.4,18.3-15.8c6-5.3,13.3-6.9,21-7.5c0.6,0,1.2,0.3,1.8,0.4C937.9,274.9,939.9,273.8,940.6,270.3z M289.5,298
		c0.8,0.9,1.6,1.7,2.2,2.6c0.9,1.2,2,2,3.4,1.1c1.5-0.9,1.1-2.3,0.6-3.6c-0.3-1-0.6-1.9-1-3.2c1.9-1,3.7-2,5.8-3.1
		c1.2,1.1,2.4,2.3,3.6,3.4c1.8,1.7,3.6,3.4,5.5,5.1c0.6,0.5,1.4,1,2.1,1.4c0.9,0.5,2,0.6,2.4-0.4c0.3-0.6,0.2-1.6-0.1-2.2
		c-1.7-3-3.5-5.9-5.3-8.8c-0.3-0.5-0.7-1.1-1.2-1.9c2.1-1.6,4.6-2.6,6.8-3.7c4.7,4.9,9.3,9.8,13.9,14.5c1.6,1.6,3.4,3.1,5.2,4.5
		c0.8,0.7,1.8,1.4,2.8,0.4c1-1,0.6-2-0.1-3.1c-4.2-6.3-8.4-12.6-12.6-19c-0.3-0.4-0.5-0.9-0.9-1.6c2.3-1.2,4.5-2.3,6.8-3.4
		c3.1,5.8,6.9,10.9,11.5,15.2c3.7,3.5,7.9,6.5,11.8,9.7c0.2,0.2,0.5,0.5,0.8,0.5c0.7,0,1.6,0.2,1.9-0.1c0.4-0.4,0.5-1.4,0.3-1.9
		c-0.6-1.4-1.3-2.9-2.4-4c-6.4-6.6-10.8-14.5-14.5-22.7c-0.1-0.2-0.1-0.4-0.2-0.8c1.8-0.9,3.6-1.7,5.5-2.6c0.3,0.4,0.6,0.5,0.7,0.8
		c3.1,6,7.5,11,11.9,16c8,9,15.9,18.2,23.8,27.3c0.7,0.8,1.4,1.8,2.6,3.4c-14-0.8-27.4-1.2-40.6-2.5c-18.2-1.7-36.5-2.6-54.8-3.2
		c-6.3-0.2-12.6-1.2-18.9-1.9c-0.8-0.1-1.6-0.4-2.7-0.8C274,305.5,281.7,301.8,289.5,298z M205.8,243.1c-0.6,0.2-1,0.5-1.4,0.5
		c-7.7,1.3-14.3,5-20.4,9.6c-2.8,2.1-5.5,4.5-8.2,6.8c-0.5,0.5-1.1,1-1.4,1.6c-0.2,0.3,0.1,1,0.3,1.4c0.2,0.2,0.8,0.3,1.1,0.2
		c0.7-0.3,1.3-0.7,1.9-1.1c8.7-5.7,18.2-9.6,28.7-10.6c1.3-0.1,2.4-0.9,4.1-1.6c1.2,1.7,2.5,3.6,3.8,5.6c-0.9,0.5-1.6,0.9-2.3,1.2
		c-6.2,3.4-12.4,6.8-18.6,10.2c-0.5,0.3-1.3,0.6-1.5,1.1c-0.3,0.7-0.5,1.7-0.1,2.2c0.3,0.5,1.3,0.8,2,0.9c0.4,0.1,1-0.3,1.5-0.5
		c7.9-2.6,15.8-5.3,23.9-8c1.5,2.2,3,4.3,4.6,6.7c-3.4,1.5-6.5,2.9-9.6,4.3c-0.9,0.4-1.7,0.8-2.5,1.2c-0.9,0.5-1.3,1.3-1,2.3
		c0.3,1,1.1,1.5,2.2,1.3c1.6-0.3,3.3-0.6,4.9-0.8c3.4-0.5,6.8-1,10.7-1.5c1.6,2.2,3.4,4.8,5.4,7.6c-2.5,1.7-5.3,2.7-8,3.6
		c-2.5,0.9-3.1,1.5-2.8,3c0.3,1.4,1.2,1.7,3.9,1.4c3.8-0.4,7.6-0.9,11.7-1.4c0.8,1.1,1.8,2.4,3.1,4.1c-1.5,0.9-2.8,1.8-4.3,2.6
		c-1.1,0.6-2.3,1-3.5,1.4c-1.1,0.4-2.3,0.8-2.1,2.3c0.2,1.3,1.3,1.4,2.4,1.6c3.1,0.6,6,0,8.9-1c0.9-0.3,1.7-0.7,2.8-1.2
		c2.7,3.6,5.5,7.1,8.1,10.7c1.3,1.9,2.8,3.5,4.8,4.7c7.6,4.4,15.9,6.9,24.5,7.8c8.6,0.9,17.2,1.2,25.8,1.8
		c10.8,0.9,21.5,1.9,32.3,2.9c6.9,0.6,13.9,1.2,20.8,1.6c4.9,0.3,9.9,0.4,15.6,0.7c-1.1,0.9-1.6,1.4-2.1,1.8
		c-8.6,5.4-18.2,8.2-28.2,9.4c-12.6,1.5-25.1,1-37.7-0.4c-14.3-1.6-28.5-3.5-42.8-4.9c-15.6-1.5-31.2-1.9-46.7-0.2
		c-9.9,1.1-19.5,3.1-28.5,7.4c-2.4,1.2-4.7,2.5-7.3,4c-0.9-11.6-1-22.9,5.6-33c2.9-4.5,6.5-8.6,9.8-12.9c0.6-0.8,1.4-1.5,2-2.4
		c2.3-3.4,1.5-7.7-2.1-9.7c-7.1-3.8-13.4-8.8-19.7-13.7c-3-2.4-6.1-4.7-9.3-6.9c-4-2.8-8.4-5-13.2-6.1c-0.5-0.1-0.9-0.4-1.6-0.7
		c0.8-1,1.5-2,2.2-2.8c6.1-6.9,13.3-12.6,21.7-16.5c6.2-2.9,12.4-5.9,19-9.1C201.1,236.4,203.4,239.6,205.8,243.1z M698.7,314.9
		c6.3-7.4,12.4-14.8,18.8-22.1c6.3-7.1,13.4-13.7,17.8-22.7c3.5,1.6,6.6,3.1,9.9,4.7c-5.1,6.6-6.6,14.9-11.5,21.4
		c-1,1.3-1.5,3-1.8,4.6c-0.2,1,0.2,2.3,0.7,3.2c0.8,1.3,2.4,1.1,3.2-0.4c0.5-1,1-2,1.7-2.9c3.8-4.7,7.7-9.3,11.3-14.1
		c1.8-2.4,3.3-5,5-7.7c1.4,0.7,3,1.5,4.8,2.4c-3.8,4-5.5,8.8-7.6,13.4c-0.7,1.6-1.7,3.1-2.6,4.6c-0.3,0.5-0.9,1-1,1.6
		c0,0.8,0.1,1.9,0.5,2.5c0.3,0.4,1.6,0.3,2.2,0c0.9-0.5,1.7-1.2,2.4-2c3.8-4.6,7.5-9.2,11.1-13.8c0.6-0.8,0.7-1.9,1.1-3.1
		c2.6,1.3,5.1,2.7,7.7,4c-1.3,3.1-2.5,6.1-3.6,9c-0.2,0.6-0.5,1.2-0.6,1.8c-0.3,1.1,0.1,2.1,1.1,2.7c1,0.6,2,0.3,2.8-0.6
		c1.8-2.2,3.5-4.4,5.2-6.6c0.6-0.8,1.2-1.6,2-2.6c1.6,0.8,3,1.6,4.7,2.5c-0.7,1.4-1.3,2.6-1.9,3.8c-0.2,0.5-0.7,0.9-0.7,1.3
		c0,0.8,0.2,1.8,0.6,2.2c0.5,0.4,1.7,0.5,2.2,0.2c1.8-1.2,3.4-2.7,5.3-4.4c7.7,3.7,15.7,7.6,23.6,11.5c0,0.2,0,0.4,0,0.5
		c-3.9,0.6-7.7,1.4-11.6,1.6c-8.1,0.6-16.2,1.1-24.3,1.2c-11.3,0.1-22.4,1.3-33.6,2.2c-11.4,0.9-22.8,1.5-34.2,2.2
		c-4,0.2-8.1,0.3-12.7,0.5C697.6,316.4,698.1,315.6,698.7,314.9z M922.3,262.5c-5.3,1.2-10,3.7-14.3,6.8c-4.2,3-8.2,6.4-12.5,9.4
		c-5.1,3.6-10.2,7.1-15.5,10.5c-3.7,2.4-4.8,6.5-2.2,10.1c0.6,0.8,1.4,1.5,2.1,2.3c3.2,4.1,6.6,8.1,9.4,12.4
		c4.7,7.4,6.6,15.7,6.1,24.4c-0.1,2.9-0.2,5.7-0.3,8.7c-0.6-0.2-0.9-0.2-1.2-0.4c-10.8-7-22.9-9.6-35.4-11
		c-15.8-1.7-31.6-1.1-47.4,0.4c-12.3,1.2-24.6,2.9-36.9,4.3c-12.3,1.4-24.7,2.3-37.1,1.4c-11-0.8-21.6-3.2-31.3-8.7
		c-1.2-0.7-2.4-1.5-3.5-2.8c0.9-0.1,1.7-0.3,2.6-0.3c7.2-0.3,14.4-0.5,21.5-1c8.7-0.7,17.4-2,26.1-2.7c10.2-0.8,20.3-1.3,30.5-1.9
		c7.7-0.5,15.3-1.1,22.8-3.1c5.7-1.5,11.1-3.6,16-6.7c0.9-0.5,1.8-1.2,2.4-2c6.7-8.9,13.2-17.9,19.9-26.8c0.7-0.9,1.3-1.8,2.1-2.9
		c1.3,0.5,2.5,0.9,3.6,1.3c1,0.4,1.9,0.3,2.5-0.7c0.6-1,0.5-2-0.5-2.8c-0.8-0.7-1.6-1.3-2.6-2.2c1.3-1.8,2.5-3.6,3.8-5.4
		c2.6,1,5,1.8,7.5,2.7c0.7,0.3,1.3,0.8,2,0.8c0.7,0,1.8-0.3,2-0.8c0.3-0.5,0-1.7-0.5-2.1c-1.3-1.2-2.9-2.1-4.3-3.1
		c-1-0.7-2.1-1.3-3.5-2.3c1.7-2.4,3.2-4.8,5-7c0.5-0.6,1.9-0.7,2.8-0.4c3.1,0.9,6.1,2,9.2,3c1.3,0.4,2.5,1.1,3.8,1.4
		c0.7,0.1,1.7-0.1,2.1-0.6c0.7-0.8,0.5-1.8-0.5-2.4c-0.9-0.7-1.9-1.2-2.9-1.9c-3.1-2-6.3-4-9.7-6.3c0.9-1.3,1.8-2.8,2.9-4.1
		c0.4-0.5,1.5-0.8,2.2-0.8c2.6,0.2,5.2,0.4,7.7,1.1c5.2,1.3,10.4,2.8,15.6,4.3c1,0.3,1.9,0.5,3,0.4c-1-2.2-3.3-2.6-4.9-3.8
		c-1.8-1.4-3.8-2.6-5.7-3.8c-1.9-1.1-3.7-2.3-5.7-3.3c-1.9-1-4-1.8-6.3-2.8c2.1-3,4-5.6,5.8-8.1c7.2,3.5,14.2,6.7,21.1,10.1
		c7.7,3.8,14.1,9.2,19.7,15.6c0.7,0.8,1.4,1.7,2.2,2.7C923,262.2,922.7,262.4,922.3,262.5z"/>
	<path d="M319.2,213.7c2.1,0.3,4.2,0.1,6.3-0.8c2.1-0.9,3.7-2.2,4.9-4c1.2-1.8,1.9-3.9,2.1-6.1l2.6-21.5l19.6,45.3
		c1.4,3.1,3.5,5.2,6.2,6.3c2.7,1.1,5.6,1,8.6-0.2c3.1-1.3,5.3-3.3,6.5-6c1.2-2.7,1.2-5.7,0-8.8l-35.9-82.2c-1.4-3-3.6-5.2-6.4-6.4
		c-2.8-1.2-5.8-1.2-8.9,0.1c-3.9,1.6-6.2,4.7-6.9,9.2l-5.9,40.9l-31.2-25.2c-4-2.9-8-3.5-12-1.8c-3,1.2-5,3.3-6.2,6.2
		c-1.2,2.9-1.1,5.9,0,8.8l35.6,82.5c1.4,3.1,3.4,5.2,6.1,6.2c2.7,1,5.6,1,8.7-0.2c3.1-1.3,5.3-3.3,6.5-6c1.2-2.7,1.2-5.7,0-8.8
		l-16.9-39.2l10.8,9.2C315.1,212.5,317,213.4,319.2,213.7z"/>
	<path d="M395,221c2.7,1.9,5.7,2.5,9,1.7l29.2-7c3.3-0.8,5.7-2.5,7.2-5.1c1.5-2.6,1.9-5.5,1.1-8.8c-0.8-3.3-2.4-5.7-5-7.4
		c-2.6-1.6-5.5-2.1-8.8-1.3l-18.2,4.4l-4.3-16.1l13.3-3.2c3.3-0.8,5.7-2.5,7.3-5.1c1.6-2.6,1.9-5.6,1.1-8.8c-0.8-3.3-2.5-5.7-5-7.3
		c-2.6-1.6-5.5-2-8.8-1.2l-13.7,3.3l-6.7-25.7l25.1-6c3.3-0.8,5.7-2.5,7.3-5.2c1.5-2.7,1.9-5.6,1.2-8.8c-0.8-3.2-2.4-5.6-5-7.2
		c-2.6-1.6-5.5-2-8.8-1.2l-36.8,8.8c-3.1,0.7-5.4,2.5-7,5.2c-1.6,2.7-2,5.6-1.3,8.6c0.9,3.5,3.4,13.1,7.6,28.7
		c5.2,19,10.2,38.1,15,57.2C390.6,216.5,392.3,219.1,395,221z"/>
	<path d="M500.3,112.7c1.9-2.4,2.6-5.3,2.3-8.6c-0.4-3.3-1.7-5.9-4.1-7.8c-2.3-1.9-5.2-2.7-8.6-2.3l-37.6,4.2
		c-3.1,0.3-5.6,1.8-7.6,4.3c-1.9,2.5-2.7,5.3-2.4,8.4c0.4,3.6,1.8,13.4,4,29.4c2.8,19.5,5.3,39,7.7,58.6c0.4,3.2,1.7,6,4.1,8.2
		c2.4,2.2,5.3,3.2,8.7,2.8l29.8-3.3c3.4-0.4,6-1.8,7.8-4.2c1.8-2.4,2.6-5.3,2.2-8.5c-0.4-3.3-1.7-6-4-7.9c-2.3-2-5.2-2.7-8.6-2.4
		l-18.6,2.1l-2.2-16.5l13.6-1.5c3.4-0.4,6-1.8,7.9-4.2c1.9-2.4,2.6-5.3,2.2-8.6c-0.4-3.3-1.7-6-4.1-7.9c-2.3-1.9-5.2-2.7-8.6-2.3
		l-14.1,1.6l-3.5-26.3l25.7-2.8C495.8,116.6,498.4,115.2,500.3,112.7z"/>
	<path d="M543.2,202.2c2.1,2.1,4.8,3.1,8,3.2c3.3,0.1,6.1-0.9,8.4-2.9c2.2-2,3.4-4.7,3.5-8.1l0.4-78.1l12.3,0.3
		c3.4,0.1,6.2-0.9,8.4-3.1s3.3-4.9,3.4-8.2c0.1-3.3-0.9-6.2-3-8.4c-2.1-2.3-4.8-3.4-8.2-3.5l-46.3-1.2c-3.4-0.1-6.1,0.9-8.3,3
		c-2.2,2.1-3.3,4.8-3.4,8.1c-0.1,3.4,0.9,6.2,2.9,8.5c2,2.3,4.7,3.5,8.2,3.6l11,0.3L540,194C540.1,197.4,541.1,200.1,543.2,202.2z"
		/>
	<path d="M720.9,119.9c-4.1-1.1-7.8,0-11.1,3.2l-29.3,29.1l-9.8-38.9c-1.4-4.7-4.3-7.6-8.5-8.7c-3.1-0.8-6-0.4-8.7,1.3
		c-2.7,1.7-4.4,4-5.2,7l-21.1,87.3c-0.8,3.3-0.4,6.2,1.2,8.7c1.5,2.5,3.9,4.1,7,5.1c3.2,0.8,6.2,0.5,8.8-0.9c2.6-1.4,4.4-3.8,5.2-7
		l10-41.5l3.1,13.9c0.5,2.2,1.5,4,3,5.6c1.5,1.6,3.3,2.6,5.5,3.2c2.2,0.6,4.3,0.5,6.3-0.3c2-0.8,3.8-2,5.4-3.6l15-15.7l-11.6,48
		c-0.8,3.3-0.4,6.2,1.2,8.7c1.5,2.5,3.9,4.2,7,5c3.2,0.8,6.2,0.5,8.8-0.9c2.6-1.4,4.4-3.8,5.2-7l20.8-87.3c0.7-3.3,0.3-6.3-1.2-9
		C726.5,122.5,724.1,120.7,720.9,119.9z"/>
	<path d="M795.8,173.2c3.1,1.3,6.1,1.4,8.9,0.1c2.8-1.2,4.9-3.4,6.1-6.4s1.3-6,0.2-8.8c-1.1-2.8-3.2-4.9-6.4-6.2l-34.9-14.6
		c-2.9-1.2-5.8-1.2-8.7,0.1c-2.9,1.3-5,3.3-6.1,6.2c-1.3,3.4-4.9,12.6-10.8,27.7c-7,18.4-14.2,36.7-21.7,55c-1.3,3-1.4,6.1-0.3,9.2
		c1,3.1,3.1,5.3,6.2,6.6l27.7,11.6c3.1,1.3,6.1,1.4,8.9,0.1c2.8-1.2,4.8-3.4,6.1-6.4c1.3-3.1,1.4-6.1,0.3-8.9
		c-1.1-2.8-3.2-4.9-6.3-6.2l-17.2-7.2l6.1-15.5l12.6,5.3c3.1,1.3,6.1,1.4,8.9,0.2c2.8-1.2,4.9-3.4,6.1-6.5c1.3-3.1,1.4-6,0.3-8.9
		c-1.1-2.8-3.2-4.9-6.4-6.2l-13-5.4l9.7-24.7L795.8,173.2z"/>
	<path d="M414.2,370.4c-1.4,1.4-2.5,3.4-3,5.2c-0.9,3.5,1.6,5.7,5,4.4c2.1-0.8,3.9-2.4,5.7-3.9c4.5-3.7,9-7.5,13.3-11.2
		c16.7,10.7,34,18.5,53.5,20.8c6.3,0.7,13.1,0.5,19.2-1.1c10.3-2.8,13.1-13.4,5.5-20.6c-4.4-4.2-9.9-7.7-15.6-10.2
		c-9.7-4.3-20.2-5.1-30.8-4.5c-1.9,0.1-3.7,0.2-6.3,0.3c0.9-0.8,1.1-1,1.3-1.1c17.6-9.3,36.7-14.7,56-19.2c0.9-0.2,2.4,0.6,3.1,1.4
		c3.2,3.7,6,7.5,9.2,11.3c8.9,10.6,17.6,21.4,28.7,29.9c5.2,4,11,7.1,17.7,7.9c10.1,1.1,17.6-6.6,15.9-16.2c-0.4-2-1.1-4-1.9-5.8
		c-4.2-9.5-11-17-20-22.4c-6.5-3.9-13.5-7.1-19.9-10.5c-0.3,0.1,0-0.1,0.3-0.1c18.7-1.2,36.9,0.6,54.6,6.7c1.1,0.4,2,1.5,2.6,2.4
		c9.4,15.6,22,27.9,38.5,36.5c6.4,3.3,13.2,5.4,20.6,5.4c6.2,0.1,9.5-2.9,10.8-8.6c1.9-7.7-0.2-14.4-4.9-20.5
		c-11-14.5-26.5-21.8-44.4-24.6c-10.5-1.7-21.4,0.2-31.8-3.4c-2.4-0.8-5.1-1-7.6-1.4c-14-2-28.1-2.4-43.2-1.4
		c1.4-1.1,2.1-1.7,2.8-2.2c8.1-6,15.1-13,20.8-21.1c5.6-7.9,9.2-16.6,9.2-26.3c0-10.8-9.2-16.6-19.3-11.7c-4.1,2-8,5-11.1,8.2
		c-14.6,15.2-22.5,33.6-26.2,53.7c-0.4,2.1-1,2.7-3.1,3.1c-19.9,3.4-39.2,8.7-57.6,16.7c-0.6,0.3-1.3,0.4-1.9,0.6
		c3.8-6.3,7.6-12.3,11-18.5c5-9,8.6-18.4,8.9-28.8c0.2-6.7-3.1-9.4-9.9-8.2c-7.5,1.2-13.7,4.8-19,9.8c-8.6,8.2-14.8,17.9-19,28.8
		c-4.5,11.6-7.5,23.4-4.5,35.9c0.2,0.8-0.7,2-1.4,2.7C422.2,362.6,418,366.4,414.2,370.4z M659,348.8c2,1.5,3.8,3.5,4.9,5.6
		c1.8,3.3-0.6,6.2-4.5,5.9c-0.9-0.1-1.9-0.3-2.7-0.6c-14.8-5.9-26.9-15.1-37.9-27.5C633.6,336.3,647.3,340.2,659,348.8z
		 M556.8,340.6c7.8,4.6,15,10.1,22.4,15.3c0.9,0.7,1.9,1.5,2.4,2.4c0.9,1.6,2.4,4,1.7,5c-0.9,1.4-3.5,2.4-5.3,2.3
		c-2.5-0.1-5.3-0.8-7.3-2.1c-13.5-9-24.1-21-35.5-32.1c0.2-0.3,0.3-0.5,0.5-0.8C542.8,333.9,550.1,336.7,556.8,340.6z M550.6,286
		c3.3-5.1,7.3-9.7,11.3-14.3c1.4-1.6,3.2-3.8,6-2.1c3,1.9,2,4.5,0.7,6.6c-3.1,5.1-6,10.4-10,14.8c-7.3,8.3-15.3,16-23,23.9
		c-0.5-0.3-1-0.7-1.6-1C539.5,304.6,544.8,295.1,550.6,286z M460.7,358.4c11.3,0.2,22.6,0.7,33.4,4c2.2,0.7,4.5,1.7,6.1,3.1
		c1,0.9,1.4,3.1,1.1,4.4c-0.2,0.8-2.4,1.9-3.5,1.8c-8.8-1.3-17.6-2.5-26.3-4.5c-7.3-1.7-14.3-4.4-21.4-6.7c-0.6-0.2-1.1-0.6-1.7-0.8
		c0-0.2,0.1-0.5,0.1-0.7C452.6,358.9,456.7,358.4,460.7,358.4z M448.8,309.6c3.1-5,6.9-9.8,11.2-13.8c2.5-2.3,6.5-3.3,10-4.3
		c2.6-0.7,4,1,3.1,3.7c-0.5,1.6-1.1,3.3-2.1,4.7c-7.8,11.2-15.6,22.4-23.5,33.5c-2.9,4.1-6.2,7.9-9.3,11.9
		C438.6,332.4,442.1,320.5,448.8,309.6z"/>
</g>
</svg>
