<?xml version="1.0" encoding="utf-8"?>
<!-- Generator: Adobe Illustrator 22.0.0, SVG Export Plug-In . SVG Version: 6.00 Build 0)  -->
<svg version="1.1" id="Layer_1" xmlns="http://www.w3.org/2000/svg" xmlns:xlink="http://www.w3.org/1999/xlink" x="0px" y="0px"
	 viewBox="0 0 1080 1080" style="enable-background:new 0 0 1080 1080;" xml:space="preserve">
<g>
	<path d="M247.1,611.7c9.5-20.1,14.4-39.7,14.6-58.7c0-6.9-2.3-12.4-6.9-16.5c-4.6-4.1-10.3-6.2-17.1-6.2c-6.4,0-11.8,2-16,6
		c-4.2,4-6.7,9.3-7.3,15.9c-0.6,10.3-3.2,21.5-7.6,33.6c-4.4,12.1-10.6,22.8-18.4,32.2c-7.9,9.4-17.4,15.2-28.6,17.5l-1.4-82.5
		c-0.3-7-2.7-12.5-7-16.6c-4.4-4.1-9.9-6.1-16.7-6.1c-6.7,0-12.3,2.1-16.8,6.3c-4.6,4.2-6.8,9.8-6.8,16.8l3.2,184.8
		c0.3,7,2.7,12.6,7.1,16.8c4.4,4.2,9.9,6.4,16.6,6.4c6.9,0,12.5-2.1,17-6.4c4.5-4.3,6.7-9.9,6.7-16.8l-1-53.6
		c4.7,2.3,9.9,6.7,15.5,13.2c5.6,6.6,10.6,13.7,14.8,21.3c4.2,7.7,6.4,14,6.4,18.9c0,7,2.3,12.6,6.8,16.9c4.6,4.3,10.3,6.4,17.2,6.4
		c6.8,0,12.4-2.2,16.8-6.5c4.5-4.4,6.7-10,6.7-16.8c0-8.1-1.9-16.8-5.6-26.3c-3.8-9.4-8.4-18.5-13.9-27.1
		c-5.5-8.6-11-15.8-16.4-21.7C224.9,648.9,237.6,631.9,247.1,611.7z"/>
	<path d="M358.2,569.7c3.4-4.2,5.2-9.5,5.3-15.7c0-6.7-2.2-12.3-6.5-16.8c-4.3-4.6-10-6.8-16.8-6.8h-41.4c-7.1,0-12.8,2.3-17.1,6.9
		c-4.3,4.6-6.4,10.4-6.4,17.2c0,6.2,1.9,11.5,5.7,15.7c3.8,4.2,8.9,6.7,15.2,7.5l2.7,136.5c-6.2,1-11.1,3.6-14.7,7.8
		c-3.6,4.2-5.4,9.4-5.4,15.4c0,6.8,2.2,12.5,6.6,17.1c4.4,4.6,10,6.9,16.9,6.9h41.4c7,0,12.6-2.3,16.9-6.8
		c4.3-4.5,6.5-10.3,6.6-17.2c0-6.2-1.9-11.5-5.7-15.8c-3.8-4.3-8.9-6.8-15.2-7.6l-2.7-136.5C349.9,576.5,354.8,573.9,358.2,569.7z"
		/>
	<path d="M482.1,752.7c10.2-5.6,18.3-13.4,24.4-23.4c6.1-9.9,9.1-21.3,9.1-34.1c0-10.8-1.8-20.1-5.3-27.6c-3.5-7.6-8.2-14-13.9-19.3
		c-5.7-5.3-12-9.7-18.7-13.5c-6.7-3.7-13.3-7-19.9-9.9c-6-2.7-11.5-5.4-16.4-8.1c-4.9-2.7-8.8-5.7-11.8-8.9c-3-3.3-4.4-7.2-4.4-11.8
		c0-6.2,1.9-10.9,5.7-13.9c3.8-3.1,8.7-4.6,14.7-4.8c10.7,0,19.4,5.2,25.9,15.5c4.6,7.2,11,10.8,19,10.8c6.7,0,12.4-2.3,17.2-6.8
		c4.8-4.6,7.3-10.2,7.7-17c0-4.6-1.3-8.9-4-12.7c-7.6-11.7-17-20.8-28.1-27.2c-11.1-6.4-23.7-9.7-37.6-9.7c-12.6,0-24,2.8-34.3,8.5
		c-10.3,5.6-18.5,13.4-24.6,23.3c-6.1,9.9-9.1,21.3-9.1,34.2c0,10.8,1.8,20.1,5.3,27.7c3.5,7.6,8.2,14.1,13.9,19.3
		c5.7,5.3,12,9.7,18.7,13.4c6.7,3.7,13.4,7,20.1,10c5.9,2.7,11.3,5.4,16.2,8.1c4.9,2.7,8.8,5.6,11.8,8.9c3,3.2,4.4,7.1,4.4,11.8
		c0,6.2-1.9,10.9-5.7,14c-3.8,3.1-8.7,4.7-14.6,4.7c-11,0-19.7-5.1-26.1-15.3c-4.7-7.3-11-11-18.9-11c-6.2,0-11.9,2.3-17.2,6.8
		c-5.2,4.5-7.8,10.1-7.8,16.8c0,4.6,1.4,9,4.2,13.2c7.5,11.6,16.9,20.7,28,27.1c11.2,6.5,23.7,9.7,37.7,9.7
		C460.5,761.2,471.9,758.4,482.1,752.7z"/>
	<path d="M600.1,761.3c12.7-0.1,24.1-3,34.3-8.6c10.2-5.6,18.3-13.4,24.4-23.4c6.1-9.9,9.1-21.3,9.1-34.1c0-10.8-1.8-20.1-5.3-27.6
		c-3.5-7.6-8.2-14-13.9-19.3c-5.7-5.3-12-9.7-18.7-13.5c-6.7-3.7-13.3-7-19.9-9.9c-6-2.7-11.5-5.4-16.4-8.1
		c-4.9-2.7-8.8-5.7-11.8-8.9c-3-3.3-4.4-7.2-4.4-11.8c0-6.2,1.9-10.9,5.7-13.9c3.8-3.1,8.7-4.6,14.7-4.8c10.7,0,19.4,5.2,25.9,15.5
		c4.6,7.2,11,10.8,19,10.8c6.7,0,12.4-2.3,17.2-6.8c4.8-4.6,7.3-10.2,7.7-17c0-4.6-1.3-8.9-4-12.7c-7.6-11.7-17-20.8-28.1-27.2
		c-11.1-6.4-23.7-9.7-37.6-9.7c-12.6,0-24,2.8-34.3,8.5c-10.3,5.6-18.5,13.4-24.6,23.3c-6.1,9.9-9.1,21.3-9.1,34.2
		c0,10.8,1.8,20.1,5.3,27.7c3.5,7.6,8.2,14.1,13.9,19.3c5.7,5.3,12,9.7,18.7,13.4c6.7,3.7,13.4,7,20.1,10c5.9,2.7,11.3,5.4,16.2,8.1
		c4.9,2.7,8.8,5.6,11.8,8.9c3,3.2,4.4,7.1,4.4,11.8c0,6.2-1.9,10.9-5.7,14c-3.8,3.1-8.7,4.7-14.6,4.7c-11,0-19.7-5.1-26.1-15.3
		c-4.7-7.3-11-11-18.9-11c-6.2,0-11.9,2.3-17.2,6.8c-5.2,4.5-7.8,10.1-7.8,16.8c0,4.6,1.4,9,4.2,13.2c7.5,11.6,16.9,20.7,28,27.1
		C573.5,758.1,586.1,761.3,600.1,761.3z"/>
	<path d="M799.5,737.7c0-6.9-2.1-12.6-6.4-17.1c-4.3-4.5-9.9-6.8-16.9-6.8h-38.3l-0.8-34.2h28c7,0,12.6-2.3,17-6.8
		c4.4-4.5,6.5-10.2,6.5-17.1c0-6.9-2.2-12.5-6.5-17c-4.3-4.5-10-6.7-17-6.7h-29l-1.1-54.5h53c7,0,12.6-2.3,17-6.8
		c4.3-4.6,6.5-10.2,6.5-17s-2.2-12.4-6.5-16.8c-4.4-4.5-10-6.7-17-6.7h-77.7c-6.4,0-11.9,2.3-16.4,7c-4.5,4.7-6.8,10.2-6.8,16.5
		c0.1,7.4,0.6,27.7,1.4,60.9c1.3,40.4,2.1,80.8,2.4,121.3c0,6.7,2.2,12.5,6.6,17.6c4.4,5.1,10.1,7.7,17.1,7.7h61.5
		c7,0,12.6-2.3,16.9-6.8C797.4,750.1,799.5,744.4,799.5,737.7z"/>
	<path d="M935.7,648.4c-5.7-5.3-12-9.7-18.7-13.5c-6.7-3.7-13.3-7-19.9-9.9c-6-2.7-11.5-5.4-16.4-8.1c-4.9-2.7-8.8-5.7-11.8-8.9
		c-3-3.3-4.4-7.2-4.4-11.8c0-6.2,1.9-10.9,5.7-13.9c3.8-3.1,8.7-4.6,14.7-4.8c10.7,0,19.4,5.2,25.9,15.5c4.6,7.2,11,10.8,19,10.8
		c6.7,0,12.4-2.3,17.2-6.8c4.8-4.6,7.3-10.2,7.7-17c0-4.6-1.3-8.9-4-12.7c-7.6-11.7-17-20.8-28.1-27.2c-11.1-6.4-23.7-9.7-37.6-9.7
		c-12.6,0-24,2.8-34.3,8.5c-10.3,5.6-18.5,13.4-24.6,23.3c-6.1,9.9-9.1,21.3-9.1,34.2c0,10.8,1.8,20.1,5.3,27.7
		c3.5,7.6,8.2,14.1,13.9,19.3c5.7,5.3,12,9.7,18.7,13.4c6.7,3.7,13.4,7,20.1,10c5.9,2.7,11.3,5.4,16.2,8.1c4.9,2.7,8.8,5.6,11.8,8.9
		c3,3.2,4.4,7.1,4.4,11.8c0,6.2-1.9,10.9-5.7,14c-3.8,3.1-8.7,4.7-14.6,4.7c-11,0-19.7-5.1-26.1-15.3c-4.7-7.3-11-11-18.9-11
		c-6.2,0-11.9,2.3-17.2,6.8c-5.2,4.5-7.8,10.1-7.8,16.8c0,4.6,1.4,9,4.2,13.2c7.5,11.6,16.9,20.7,28,27.1
		c11.2,6.5,23.7,9.7,37.7,9.7c12.7-0.1,24.1-3,34.3-8.6c10.2-5.6,18.3-13.4,24.4-23.4c6.1-9.9,9.1-21.3,9.1-34.1
		c0-10.8-1.8-20.1-5.3-27.6C946.1,660.1,941.5,653.7,935.7,648.4z"/>
	<path d="M315.3,373.3c1.1,0.7,2.9,0,3.3-1.1l8.3-17.1c1.1-1.5,0-3.3-1.4-4l-7.6-2.2c-1.5-0.4-2.9,0-3.3,1.5l-6.9,17.1
		c-0.7,1.5,0,2.9,1.5,3.6L315.3,373.3z"/>
	<path d="M970.9,439.4l-5.8-2.5c-1.5-0.7-2.9,0-3.6,1.5c-8.4,18.1-30.1,55.9-67.2,55.9c-9.8,0-17.4-2.9-22.5-9.1
		c-4.4-5.4-6.9-13.4-6.9-22.9c0-4.7,0.7-9.1,1.4-13.4c9.4,5.4,25.8,11.3,46.8,3.6c19.6-6.9,33-26.5,30.1-43.6
		c-2.5-12.7-13.8-20.7-30.1-20.7c-26.5,0-48,23.7-56.3,50.6c-2.8,4.2-10.2,12.7-26.9,16.5c4-10.5,5.8-21.4,5.8-30.9
		c0-10.2-2.2-18.5-6.5-24.7c-5.1-7.6-13.1-11.3-22.9-11.3c-28,0-41.4,19.6-41.7,38.1c0,1.8,0,3.6,0,5.4c-0.9,1.1-1.8,2.3-2.6,3.6
		c-0.3,0.2-0.5,0.4-0.6,0.7c-15.6,23.2-44.3,57.7-59.5,57.7c-5.8,0-9.4-1.5-11.6-4.4c-3.6-5.4-2.9-16,1.8-28.3c1.2-2.8,3.7-9,7-17.2
		c0.2-0.5,0.4-0.9,0.6-1.4c0.1-0.2,0.1-0.3,0.1-0.5c8.3-20.2,21.2-51.8,32.2-78.3c21.4-1.8,42.1-2.9,51.9-2.9c1.8,0,3.6-1.1,4-3.3
		l0.7-4c0.4-2.2-1.4-4.4-4-4.4c-9.8-0.4-28.3,0.7-47.2,1.8c1.7-4.2,3.4-8.2,4.9-11.9c29.4-14.3,46.3-33.9,46.3-54.5
		c0-28.7-32.7-49.4-78-49.4c-81.3,0-141.9,42.5-171.3,120.2c-18.5-0.4-35.6-1.5-51.9-2.9c7.3-17.8,13.4-31.9,15.2-37
		c0.7-1.1,0-2.2-1.1-2.9l-8-4.7c-1.1-0.4-2.5,0-2.9,1.5c-2.5,5.8-9.1,22.1-17.1,41.7c-115.1-12.7-177.9-45.7-191.7-52.3
		c-1.5-0.4-2.9,0-3.6,1.1l-5.4,7.3c-1.5,1.5-0.7,3.6,1.1,4.4c17.8,7.6,77.7,39.2,194.9,51.2c-10.6,26.6-22.5,56.8-30.1,76
		C428,454,414.9,466.4,404.6,475c0-1.1,0-2.2,0-3.3c0-13.4-10.2-22.5-20.3-31.2c-8.7-8-17.4-15.2-17.4-24.3c0-4.4,5.4-16,17.4-16
		c6.2,0,10.2,1.8,11.3,4.7c1.5,4.4-1.5,8-3.6,10.9c-0.7,1.1-0.4,2.5,0.7,3.3l7.6,4.4c1.1,0.7,2.2,0.4,2.9-0.4
		c4-5.4,6.2-14.9,3.3-22.5c-1.8-4.7-7.3-12.3-22.1-12.3c-15.6,0-25,11.6-28,21.4c-4.7,9.8-12.7,25-15.6,30.5
		c-0.2,0.4-0.3,0.8-0.3,1.2c-10.7,20-32.8,52.9-55.6,52.9c-2.5,0-3.6-1.1-4.4-2.2c-7.3-11.6,13.4-63.2,29.4-95.5
		c1.1-1.8,0.4-4.4-1.5-5.1l-4.7-2.9c-1.8-1.1-4.4-0.4-5.4,1.8c-4.6,9.2-13.2,27.8-20.2,47.3c-0.2,0.2-0.4,0.4-0.5,0.6
		c-9.4,17.4-35.2,55.9-57.4,55.9c-2.9,0-4.7-0.7-5.4-1.5c-3.3-5.1,6.9-25,13.8-38.5c10.9-21.8,20.7-40.3,13.8-51.9
		c-3.3-5.1-9.1-7.6-17.1-7.6c-13.1,0-25.4,10.9-35.6,24.7c1.1-9.4,0.4-17.8-2.9-22.9c-1.8-3.3-5.8-7.3-13.4-7.3
		c-15.2,0-31.6,19.2-45.4,41.7l8.7-28.3c0.4-1.5-0.4-2.9-1.5-3.3l-7.6-3.6c-1.5-0.4-3.3,0.4-3.6,1.8L93.5,500.4
		c-0.7,1.5,0.4,3.3,1.8,3.6l5.4,2.2c1.8,0.4,3.3-0.4,4-1.8c17.1-41.7,50.5-103.5,68.6-103.5c2.5,0,3.3,1.1,3.6,1.8
		c5.1,8-1.8,34.1-11.6,60.6c-1.8,4.7-3.3,8.7-4,11.3c-3.6,8.7-7.3,17.4-10.9,24.7c-0.7,1.5,0,3.3,1.5,4l5.1,2.5c1.5,0.7,3.3,0,4-1.5
		c4-8,10.9-24,17.4-41.7c12-26.1,30.9-56.3,46.8-56.3c2.2,0,5.8,0.4,6.9,2.2c3.6,5.8-7.3,26.9-14.2,40.7
		c-10.5,20.7-20,38.8-13.4,49.7c2.9,4.7,8.4,6.9,15.6,6.9c18.1,0,35.4-16.2,48.3-32.4c-1.5,10.4-1.2,19.2,2.2,24.8
		c2.2,3.6,6.2,7.6,14.2,7.6c31.4,0,57-42.5,66.2-59.7c0.1-0.1,0.2-0.2,0.2-0.2c0.1-0.3,0.3-0.6,0.4-1c0.7-1.3,1.3-2.5,1.8-3.4
		c0.1-0.3,0.2-0.6,0.2-0.8c1.6-3.2,3.6-6.9,5.6-10.4c4,7.6,10.9,13.4,17.4,19.2c8.3,7.3,16.3,14.2,16.3,22.1
		c0,20-18.5,22.1-26.1,22.1c-6.2,0-12-3.6-13.8-8.3c-2.2-5.1,0.4-9.8,6.2-16c0.7-0.7,0.7-1.8,0-2.5l-6.2-6.9
		c-0.7-1.1-2.2-1.1-2.9-0.4c-12.3,13.4-10.2,24.7-8,30.1c3.6,9.4,13.8,16,24.7,16c7.6,0,16-1.8,22.9-5.8c1-0.8,19.4-12.2,38.4-30.6
		c-1.9,8.9-2.3,19.4,2.9,27c2.9,4.4,9.1,9.4,21.4,9.4c17.1,0,39.2-23.2,54.1-42.1c-1.1,12.3,0.4,24,6.5,32.3
		c4.7,6.5,12,9.8,21.1,9.8c16.2,0,34.1-20.8,46.6-39.1c0.7,10.1,3.9,19,9.3,25.6c7.3,8.7,18.2,13.4,31.6,13.4
		c23.4,0,41.4-12.1,54.6-26.6c-0.2,6.1,0.8,12.2,4.2,17.2c3.3,4.4,9.4,9.4,21.4,9.4c14.5,0,32.5-16.8,46.8-33.4
		c-0.3,3.9-0.3,7.8,0.3,11.3c1.5,8.3,6.9,22.1,29,22.1c20,0,36.3-17.1,46.8-37.8c12.6-1.6,21.8-5.6,28.4-10
		c-0.1,1.4-0.1,2.8-0.1,4.1c0,12,3.3,22.5,9.4,30.1c7.3,8.7,18.2,13.4,31.6,13.4c43.6,0,68.6-42.1,78-62.8
		C973,441.6,972.3,439.8,970.9,439.4z M723,352.6c-7.4,0.5-13.7,0.9-19,1.1c7.5-2.1,14.6-4.3,21.3-6.8
		C724.5,348.8,723.7,350.7,723,352.6z M710.6,247.4c43.6,0,66.4,19.2,66.4,37.8c0,12.9-9.8,25.8-27.3,36.9c0.9-2.2,1.7-4,2.2-5.3
		c0.4-1.1,0-2.2-1.1-2.5l-8.4-4.7c-1.1-0.7-2.5,0-2.9,1.1c-1.3,3.6-4.3,11.2-8.3,21.1c-36.7,16-91,24.6-157.2,24.6
		c-7.6,0-15.2,0-22.5,0C569.8,311.3,613,247.4,710.6,247.4z M513.1,433.2c-0.4,1.1-0.7,2.2-1.1,3.3c-15.6,23.2-44.3,57.7-59.5,57.7
		c-5.8,0-9.4-1.5-11.6-4.7c-3.6-5.1-2.9-15.6,1.8-28.3c1-2.6,3-7.8,5.9-14.9c0.5-0.6,0.9-1.2,1.4-1.8c0.4-0.6,0.5-1.4,0.3-2.2
		c8.2-20,21.1-51.2,32.4-77.7c16.3,1.5,33.8,2.5,52.3,2.9C529.8,381.7,521.9,403.8,513.1,433.2z M621.7,494.2
		c-9.8,0-17.4-2.9-22.5-9.1c-4.4-5.4-6.9-13.4-6.9-22.9c0-4.7,0.7-9.1,1.4-13.4c9.4,5.4,25.8,11.3,46.8,3.6
		c19.6-6.9,33-26.5,30.1-43.6c-2.5-12.7-13.8-20.7-30.1-20.7c-26.8,0-48.5,24.3-56.5,51.6c-12.8,22.5-35.9,54.4-49.8,54.4
		c-5.1,0-9.1-1.8-11.6-5.1c-6.5-8.7-5.8-28,1.8-52.3c9.1-30.9,17.1-53.4,22.1-67.2c0.4-0.4,0.4-1.1,0.7-1.8c8.7,0,17.8,0.4,26.9,0.4
		c39.9,0,75.6-3.1,106-9l-0.8,4.3c-0.4,2.2,1.5,4,3.6,4c7.6-0.7,16.7-0.7,34.8-2.2c-10.8,26.7-22.8,56.8-30.2,75.5
		C678.5,459.7,657.1,494.2,621.7,494.2z M597.4,437.2c7.6-20.3,24-37,43.2-37c7.6,0,16.7,1.8,18.5,10.9c1.8,9.8-7.3,25-22.5,30.5
		C617.7,448.5,603.5,441.6,597.4,437.2z M809.7,471c-9.1,14.5-20.7,23.2-31.6,23.2c-13.8,0-16.7-7.3-17.4-12.7
		c-1.8-10.9,2.9-25,8.4-34.8c6.2,11.6,17.8,21.1,35.6,22.1c2.2,0,4.4,0,6.5,0.4C810.8,469.5,810.4,470.2,809.7,471z M817,457.2
		c-3.6,0-7.3,0-11.6,0c-16-1.1-25-10.5-28-21.1c-0.7-2.9-1.1-7.6-1.1-9.1c0.4-13.4,9.8-26.9,30.1-26.9c14.5,0,17.8,13.4,17.8,24.3
		C824.2,434.7,821.7,446.3,817,457.2z M913.1,400.2c7.6,0,16.7,1.8,18.5,10.9c1.8,9.8-7.3,25-22.5,30.5c-18.9,6.9-33,0-39.2-4.4
		C877.6,416.9,893.9,400.2,913.1,400.2z"/>
	<path d="M266.3,252c10.9-6.6,21.3-12.8,32.1-19.4c2.9,3.1,5.5,5.6,7.7,8.3c9.5,11.2,20.6,20.7,33.3,27.9c5.7,3.2,12.2,5.6,18.6,7
		c7.5,1.6,14.4-0.8,18.7-7.6c4.5-7.1,4.6-14.4,0.2-21.7c-3.4-5.7-8.2-10.2-14.1-12.9c-8.3-3.7-16.8-6.7-25.4-9.7
		c-4-1.4-8.2-2.1-12.3-3.1c-0.1-0.7-0.2-1.4-0.3-2.1c15.6-6.7,31.1-13.4,46.7-20.2c5.2-2.3,9.2-0.8,12.5,3.7
		c5.1,6.9,10.4,13.7,15.5,20.6c6.7,9.1,15.3,15.8,25.8,19.9c3.7,1.5,7.9,2.3,11.8,2.2c10.6-0.3,16.6-7.8,14.7-18.3
		c-1.5-8.3-5.5-15.6-11.8-20.8c-6-5-13-8.8-19.7-12.8c-3.9-2.3-8.1-3.8-13.5-6.3c3.2-1.2,5.1-2,7-2.5c10.1-2.9,20.3-5.5,30.3-8.5
		c5.8-1.7,9.5,0.3,12.5,5.3c6.5,10.9,14.1,21.1,23,30.1c6.8,6.9,14.7,12.2,23.7,15.8c6.1,2.5,11.7,1.9,16.9-2.1
		c5.5-4.3,7-10.1,5.8-16.7c-0.9-5.3-3.4-9.8-7.1-13.8c-7.6-8.3-17-13.8-26.8-18.9c-2.5-1.3-5.1-2.6-8.6-4.5c2.3-0.7,3.7-1.3,5.2-1.4
		c3.8-0.4,7.6-0.6,11.4-1c6.8-0.6,13.1,0.3,19.5,3.1c15.4,6.6,31.7,9,48.4,7.5c6.1-0.6,12.2-2.2,18.1-4.1c7-2.2,12.6-6.5,13.2-14.4
		c0.7-8.3-3.1-14.9-9.8-19.6c-5.5-3.8-11.9-4.8-18.5-4.8c-13.9,0-26.9,3.8-39.6,9c-5.2,2.1-9.9,4.6-13.8,8.8
		c-1.2,1.3-3.1,2.6-4.8,2.8c-12.3,1.3-24.6,2.3-36.9,3.4c-0.2-0.5-0.4-1.1-0.6-1.6c5.5-4.9,11.3-9.5,16.5-14.6
		c5.6-5.5,11.3-11,16-17.3c5.2-7,6.4-14.9,1.2-22.8c-3.7-5.7-8.8-8.3-15.3-6.3c-5.1,1.6-10.4,4.1-14.4,7.6
		c-14.3,12.6-24,28.4-29.3,46.7c-1,3.6-1.3,7.5-2,12c-14.8,3.5-29.8,7.1-44.8,10.6c-0.3-0.4-0.6-0.9-0.9-1.3
		c2.2-2.6,4.3-5.1,6.5-7.7c5.7-6.8,11.8-13.2,16.9-20.4c3.2-4.6,5.9-10,7.1-15.5c3-13.8-6.4-22.4-20.2-19c-9,2.2-16,7.4-21.3,14.8
		c-11.7,16.2-17.6,34.4-17.9,54.3c0,3.8-0.6,6.3-4.4,7.9c-18.7,7.9-37.3,15.9-56.9,23c1.3-2.4,2.6-4.8,4-7.2
		c5.2-8.8,10.7-17.5,15.7-26.5c3.9-6.9,6.8-14.3,7.5-22.3c0.7-7.6-1.1-14.3-7.5-19.1c-6.7-5.1-15.6-5.5-21.8,0.2
		c-4.3,3.9-8.4,8.7-10.9,13.9c-9.5,19.1-12.8,39.5-10.8,60.7c0.4,4,1.8,7.9,2.8,12.5c-8.9,6.2-18.3,12.7-28.2,19.6
		C263.9,245.4,265,248.2,266.3,252z"/>
	<path d="M665.5,170.9c0.4,18.5,8,33.1,22.9,44.1c2.5,1.8,4.6,4.2,7.1,6c4.5,3.3,7.5,2,8.3-3.7c0.3-1.9,0.1-3.8,0.1-5.7
		c-0.7-14.3-4.5-27.3-15.4-37.4c-0.5-0.4-0.7-1.1-1.6-2.6c14.1,4.4,27,9.1,38.9,16.2c2.7,1.6,4.7,4.7,6.9,7.2
		c11.2,13.2,25.2,21.8,42.2,25.2c2.6,0.5,5.2,0.9,7.8,1c7.1,0.2,8.9-2,7.6-9.2c-1.4-7.3-5.2-13.4-10.3-18.5
		c-6-6.1-13.2-10.3-21.5-12.4c-4.9-1.3-9.8-2.4-14.7-3.2c-8.8-1.4-17.2-3.5-25.3-7.5c-6.4-3.1-13.6-4.4-20.5-6.5
		c-1.8-0.6-3.6-1.2-6.6-2.3c4-1.5,6.9-2.6,9.8-3.8c11.4-4.8,21.5-11.4,29.1-21.3c1.6-2.1,3.2-4.2,4.4-6.5c0.8-1.6,1.7-4.5,1.1-5.1
		c-1.3-1.2-3.8-1.9-5.7-1.7c-23.7,1.8-45.2,9.6-64.2,24c-3.5,2.7-6.7,4-11,3.3c-3.5-0.6-7.1-0.5-11.6-0.8c-0.5,3-0.9,5.8-1.4,9.1
		c5.7,1,10.6,1.7,15.5,2.7C664.2,162.8,665.4,163.9,665.5,170.9z"/>
	<path d="M625,97.1c6.9-4,9.1-13.2,4.9-19.9c-4.1-6.5-12.9-8.6-19.4-4.6c-6.6,4.1-8.7,12.7-4.7,19.3
		C609.7,98.7,618.4,100.9,625,97.1z"/>
	<path d="M575.7,953.1c-0.1-1.8-0.2-3.6-0.3-5.4c-0.1-2.6-0.1-5.2-0.2-7.7c0-1.1-0.1-2.1-0.1-3.1c-0.1-2.3-0.1-4.6-0.2-6.9
		c-0.1-1.8-0.6-3.7-0.3-5.4c0.4-2.6-0.1-5.2-0.3-7.7c-0.6-5.7-1.4-11.4-2.2-17c-0.2-3.6-0.4-7.3-0.6-10.9c0-0.5-0.2-1.3-0.6-1.6
		c-1.3-0.9-1.1-2.2-1.1-3.4c-0.1-1.7-0.4-3.4-0.8-5c-0.2-0.9-0.8-1-1.5-1c-0.2,0-0.4,0-0.6,0c0.1-0.5,0.2-1.1,0.3-1.6
		c0.6,0,1,0,2.1,0c-1.6-1,0.1-2.5-1.2-3.5c-1.5,0.7-2.9,1.5-4.4,2.3c-0.2-0.7-0.3-1.3-0.4-1.8c0-0.6,0.1-1.2,0.1-1.7
		c-0.1,0-0.3-0.1-0.4-0.1c-0.3,0.4-0.5,0.9-0.8,1.3c-0.8,1.1-0.1,2,0.3,2.9c0.4,0.9,0.5,1.6-0.3,2.3c0.4,0.6,0.8,1.2,1.1,1.7
		c-1.2,0.8-1.9,2.1-2.3,3.5c0,0.2,0,0.4,0,0.6c-1,1.4-0.5,3.1-0.6,4.6c-0.4,1.9,0.3,3.9-0.6,5.7l0.1,0.1l-0.1-0.1
		c-0.3,1.5-0.7,3-0.8,4.4c-0.1,3.2-1.1,6.3-1.3,9.5c-0.1,2.3-0.8,4.7-0.7,7.1c0,1.1-0.3,2.3-0.3,3.4c-0.1,2.8-0.2,5.5-0.2,8.3
		c0,0.4,0.4,0.8,0.6,1.3c0.1,0.1,0.3,0.2,0.4,0.2c0,0.3,0,0.6,0.1,1c-0.7,1.8-1.1,3.7-0.9,5.6c0.1,0.9,0,1.9,0,2.9
		c-0.3,4.1-0.7,8.2-1,12.3c-0.4,4.7-0.8,9.4-1.2,14c-0.4,5.4-0.8,10.9-0.3,16.4c0.1,0.8,0.3,1.7,0.4,2.5c-0.2,1.8,0.6,3.4,1.3,5
		c-0.6,2.6,2.2,2.8,3.1,4.4c0.3,0.6,1.2,0.9,1.8,1.3c0.1,0.1,0.4,0.1,0.6,0.1c1.3,0,2.6,0.2,4,0.1c0.7,0,1.4-0.4,2.1-0.6
		c3.6-0.4,5.8-2.7,7.6-5.4c0.9-1.3,1.3-3,1.5-4.6c0.3-2.6,0.4-5.3,0.5-8c0-2.5-0.1-5-0.3-7.4C576.4,962.8,576,958,575.7,953.1z"/>
	<path d="M859,790.2c0.8-0.5,2-0.6,3-0.8c0.9-0.1,1.9,0,2.8-0.1c1.1-0.2,1.5-0.7,1.6-1.7c0.1-1-0.2-1.7-1.2-2
		c-1.7-0.5-3.4-1.2-5.2-1.6c-2.2-0.6-4-1.9-5.1-3.8c-0.8-1.4-1.4-2.9-2.2-4.3c0-0.9,0-1.7-0.1-2.6c-0.1-0.9-0.2-1.7-0.4-2.5
		c-0.4-1.5-1-2.2-2.2-2.3c-1.1-0.1-1.8,0.6-2.4,2.1c-0.1,0.3-0.1,0.6-0.2,0.8c-0.4,1.5-0.8,2.9-1.2,4.4c-0.5,0.7-1.1,1.3-1.6,2
		c-2.1,3.3-4.9,5.8-8.2,7.8c-1.2,0.3-2.3,0.8-3,1.9c-0.5,0.9-0.4,1.7,0.4,2.2c0.5,0.3,1,0.5,1.6,0.7c1.7,0.6,3.4,1.1,5.1,1.6
		c1.5,1.5,3,3.1,4.5,4.6c0.7,2.6,1.4,5.1,2,7.7c0.3,1.3,1,2.3,2.4,2.4c1.2-1.6,1.7-3.3,2.1-7.2c0.5-0.9,1-1.9,1.4-2.8
		C854.3,793.8,856.6,791.8,859,790.2z"/>
	<path d="M209.5,798.8c-1.7-0.5-3.4-1.2-5.2-1.6c-2.2-0.6-4-1.9-5.1-3.8c-0.8-1.4-1.4-2.9-2.2-4.3c0-0.9,0-1.7-0.1-2.6
		c-0.1-0.9-0.2-1.7-0.4-2.5c-0.4-1.5-1-2.2-2.2-2.3c-1.1-0.1-1.8,0.6-2.4,2.1c-0.1,0.3-0.1,0.6-0.2,0.8c-0.4,1.5-0.8,2.9-1.2,4.4
		c-0.5,0.7-1.1,1.3-1.6,2c-2.1,3.3-4.9,5.8-8.2,7.8c-1.2,0.3-2.3,0.8-3,1.9c-0.5,0.9-0.4,1.7,0.4,2.2c0.5,0.3,1,0.5,1.6,0.7
		c1.7,0.6,3.4,1.1,5.1,1.6c1.5,1.5,3,3.1,4.5,4.6c0.7,2.6,1.4,5.1,2,7.7c0.3,1.3,1,2.3,2.4,2.4c1.2-1.6,1.7-3.3,2.1-7.2
		c0.5-0.9,1-1.9,1.4-2.8c1.2-2.8,3.5-4.8,6-6.4c0.8-0.5,2-0.6,3-0.8c0.9-0.1,1.9,0,2.8-0.1c1.1-0.2,1.5-0.7,1.6-1.7
		C210.8,799.8,210.5,799.1,209.5,798.8z"/>
	<path d="M527.5,777c-2.3-1.9-5.1-2-7.8-1.7c-1.6,0.2-3.1,1.2-3.6,2.9c-0.3,1-0.5,2.1-0.4,3.1c0.1,1.3,0.3,2.8,1,3.8
		c2.6,3.5,7.6,3.1,10.2,0.9c0.6-0.5,0.9-1.4,1.3-2.1c0.8-1.4,0.7-2.9,0.7-4.5C528.8,778.4,528.4,777.5,527.5,777z"/>
	<path d="M342.1,790.1c0.8-1.4,0.7-2.9,0.7-4.5c0-1-0.4-1.9-1.3-2.4c-2.3-1.9-5.1-2-7.8-1.7c-1.6,0.2-3.1,1.2-3.6,2.9
		c-0.3,1-0.5,2.1-0.4,3.1c0.1,1.3,0.3,2.8,1,3.8c2.6,3.5,7.6,3.1,10.2,0.9C341.5,791.8,341.7,790.8,342.1,790.1z"/>
	<path d="M403.2,965.7c-1.5-0.3-3.1-0.3-4.5-0.8c-1.8-0.6-3.4-0.3-4.9,0.7c-0.6,0.4-1.3,0.7-2,1.1c-0.6,0.8-1.3,1.6-1.9,2.4
		c-0.6,0.9-0.9,1.9-0.3,3c0.2,0.4,0.3,0.9,0.4,1.4c0.7,3.4,3.4,5.9,7,6.5c1.9,0.8,3.2-0.8,4.8-1.1c2.2-2.3,4.4-4.6,3.8-8.2
		c-0.1-0.5,0.1-1.1,0.1-1.7C405.8,967.2,405,966.1,403.2,965.7z"/>
	<path d="M430.4,804.1c-0.8,2.9,1.7,6.4,4.7,6.5c2.9,0.2,5.7-2.2,5.8-5.1c0-0.7,0-1.5,0-2.3c-1.2-2.1-3.5-2.2-5.5-2.4
		C432.5,800.5,431.4,800.8,430.4,804.1z"/>
	<path d="M397.5,908.9c0-0.7,0-1.5,0-2.3c-1.2-2.1-3.5-2.2-5.5-2.4c-2.9-0.3-4.1,0-5,3.3c-0.8,2.9,1.7,6.4,4.7,6.5
		C394.6,914.2,397.3,911.8,397.5,908.9z"/>
	<path d="M637.6,990.5c-1.3-0.4-2.7-0.6-4.1-1c-1-0.8-2.2-1.3-3.4-0.5c-1.7,1.1-3,2.6-3.5,4.7c-0.1,0.3,0.5,0.7,0.7,1
		c0.1,0.2,0.4,0.5,0.4,0.7c-0.2,1.5,0.5,2.5,1.6,3.4c1,0.9,2,1.8,3.4,2c0.5,0.1,1.2,0.1,1.7,0c1-0.4,1.9-0.9,2.8-1.4
		c1.2-0.3,1.7-1.2,1.7-2.4c0.2-1.3,0.4-2.6,0.6-3.9C639.5,991.4,639.2,991,637.6,990.5z"/>
	<path d="M522.2,863.5c-0.8-0.8-1.2-1.3-1.7-1.7c-0.8,0.7-1.3,1.3-2.1,0.6c0,0,0,0,0,0c0,0,0,0,0,0l0,0c-1.4-0.5-1.2-1.9-1.7-3.3
		c-1,1.9-1.9,3.4-2.7,5c-0.3,0.6-0.2,1.3-0.2,1.9c0,1.4,1.2,2,2.2,2.5c-0.4,1-0.8,1.7-1.1,2.5c-1-0.3-1.9-0.6-3.1-0.9
		c-0.5,1-1,2.2-1.5,3.3c-0.4,1.1-0.8,2.1-1.2,3.2c-0.8,2-1.5,4-2.3,6c0,0,0,0,0,0c-0.2,0.4-0.4,0.7-0.6,1.1
		c-0.2,0.6-0.4,1.2-0.6,1.8c-1,1.1-1.7,2.5-1.7,4c-0.2,0.4-0.4,0.8-0.6,1.2c-1.3,2-2.6,4-3.8,6.1c-0.2,0.4-0.2,0.9-0.3,1.4
		c0.2,0,0.4,0,0.6,0c0,0.2,0,0.4,0.1,0.6c0-0.2,0-0.4-0.1-0.6c-0.2,0-0.4,0-0.6,0c-0.1,0.2-0.1,0.3,0,0.5c-0.9,1.6-2,3.2-2.8,4.9
		c-1.8,3.9-3.4,7.9-5.2,11.8c-0.6,1.3-1.3,2.6-1.9,3.9c-2.2,4.9-4.5,9.7-6.6,14.7c-1.4,3.2-3.2,6.2-3.7,9.6c-1.5,2.1-1.5,4.6-2.2,7
		c-1.1,2.2-0.6,4.5-0.4,6.8c0.3,3.6,2.2,6,5.7,7.2c0.3,0.1,0.5,0.2,0.8,0.3c2.4,0.9,4.4,0.2,6-2.2c0-0.2,0.1-0.3,0.1-0.5
		c2.2,0,3.5-1.3,4.5-3c0,0,0,0,0,0c1.1-1.1,1.6-2.5,1.8-4c0.9-3.2,2.7-6,2.9-9.4c0-0.4,0.3-0.7,0.4-1c0.3-1,0.7-1.9,1-2.9
		c1.4-4.4,2.9-8.8,4.3-13.2c0.2-0.7,0-1.5,0.1-2.2c0.2-0.3,0.5-0.6,0.6-0.9c1.3-4.5,2.6-9,3.8-13.5c0.2-0.7,0-1.5,0-2.3
		c1.3-2.9,2.1-5.9,2.4-9c0.2-0.2,0.3-0.5,0.5-0.7c0.2-0.8,0.4-1.5,0.6-2.3l0,0c0.7-0.7,0.7-1.5,0.6-2.3c0-0.2,0-0.4,0.1-0.5
		c0.2-0.4,0.3-0.8,0.5-1.2l0,0c0.2-0.6,0.4-1.2,0.6-1.7c0-0.2,0-0.4,0.1-0.5c0.6-2.1,1.3-4.2,1.9-6.3c0.3-0.9,0.6-1.9,0.5-2.8
		c0-0.6-0.7-1.2-0.9-1.6c0.4-0.6,0.8-1,0.7-1.3c-0.5-1.3,0.4-1.2,1.1-1.4c1-1.6,0.7-3.3,0-4.9c-0.1-0.2,0.1-0.5,0.2-0.8
		c0.6,0.2,1.2,0.4,2,0.6c-0.5-2.4-2.8-3.9-2-6.3C518.8,865.4,519.6,863.5,522.2,863.5z M490.7,919.3c-0.2,0.4-0.4,0.8-0.6,1.2
		C490.4,920.1,490.5,919.7,490.7,919.3L490.7,919.3z M504.5,889.3L504.5,889.3l0.2,0.2C504.7,889.5,504.5,889.3,504.5,889.3z"/>
	<path d="M610.2,783c0.8-2.3,1.1-4.9-1.1-6.9c-0.4-0.4-0.7-0.8-1.1-1.2c-0.2-0.9-0.9-1.5-1.8-1.7c-2.2-2.1-5-2.1-7.7-2.2
		c-0.7,0-1.5,0.6-2.3,1c-1.3,0.4-2.3,1.2-3.1,2.4c-0.9,1.5-1.9,3.1-3,4.5c-1.7,2.2-1.7,4.3-0.2,6.6c-0.1,0.8,0.2,1.5,0.9,2
		c0.9,0.8,1.9,1.5,2.8,2.4c2.2,2.3,4.9,2.2,7.7,1.6C605.9,790.4,608.8,787.3,610.2,783z"/>
	<path d="M606.5,952.4c-2.3,0-4,1.5-4,3.6c-0.1,2.9,1.6,5.2,3.8,5.2c2.5,0,4.4-2.3,4.5-5.3C610.8,953.3,609.4,952.7,606.5,952.4z"/>
	<path d="M772.6,846.2c-0.7-2.1-2.2-3.3-4.2-4.1c-0.7-1.3-1.9-1.8-3.1-2.5c-0.9-0.5-1.9-0.9-2.7-1.5c-4.7-3.3-9.7-6.1-14.8-8.7
		c-1-0.5-2-1.1-3-1.6l0,0c-0.5-0.2-1.1-0.5-1.6-0.7c-0.6-0.3-1.3-0.6-1.9-1c-0.2-0.2-0.3-0.5-0.5-0.7c-1.2-1-2.5-1.7-4-1.7
		c0,0,0,0,0,0c-1.1-0.8-2.2-1.6-3.3-2.4c-0.3-0.2-0.8,0-1.3,0c-0.2,0-0.4,0-0.5,0c-0.8-0.2-1.8-0.3-2.3-0.8c-1-1.1-2.4-1.3-3.5-2.1
		c-1.1,0.5-1.9,1.2-1.5,2.6c0.1,0.4,0.2,0.8,0.1,1.1c-0.1,0.4-0.4,0.9-0.7,1.1c-0.3,0.1-0.9-0.1-1.2-0.3c-0.5-0.3-0.9-0.8-1.5-1.4
		c-0.6,1.1-1,1.9-1.4,2.7c0.8,1.4,2.1,2.2,3.4,2.9c1.7,1.3,3.5,2.7,5.2,4c0.8,0.5,1.7,1,2.5,1.5c0,0.2,0.1,0.5,0.3,0.8
		c0.3,0.4,0.4,0.8,0.6,1.2c0.4,0,0.7,0,1.1,0c0,0,0,0,0-0.1c1,0.8,2,1.5,3.1,2.2c0.9,0.8,1.9,1.6,2.8,2.3c0.9,0.7,1.8,1.3,2.7,1.9
		c3.6,2.9,7.2,5.8,10.8,8.6c2.7,2.2,5.3,4.3,8,6.5c1.2,0.9,2.2,2.1,4,1.7c0.3-0.1,0.8,0.2,1,0.4c1.4,1.2,2.9,0.7,4.4,0.4
		c1.6-0.3,2.9-1,3.8-2.4c1.8-2.7,1.7-6.4-0.2-9.1C773,846.8,772.7,846.5,772.6,846.2z M737.9,835.3
		C737.9,835.3,737.9,835.3,737.9,835.3c-0.2-0.1-0.3-0.3-0.5-0.4C737.6,835,737.7,835.2,737.9,835.3
		C737.9,835.3,737.9,835.2,737.9,835.3c0.6,0.1,1.2,0.3,1.7,0.5C739,835.6,738.5,835.4,737.9,835.3z"/>
	<path d="M831.3,890.2c-1.7-1.8-4-2.3-6.3-2.9c-1-0.6-2-1.1-3-1.7c-0.8-0.4-1.7-0.8-2.5-1.2c-1.1-0.4-2.1-0.8-3.2-1.2
		c-1.7-0.8-2.7,0.4-3.8,1.3c-1.8-0.5-0.8-2.3-1.5-3.5c-1.3,0.4-2.5,0.7-4.1,1.2c0.2-1.1,0.4-1.8,0.5-2.5c-1.2-1.8-3.1-2.1-4.9-2.8
		c-1.5-1-2.5-2.6-4.7-2.5c-0.4,0-0.8-0.7-1.4-0.9c-0.9-0.4-1.8-0.7-2.7-0.8c-0.2,0-0.5,0.7-1,1.3c1.2,0.2,2,0.4,2.7,0.5
		c1.1,1.1,0.4,2.3,0.5,3.3c0.5,0.6,1,1.3,1.5,1.8c0.9,0.9,1.7,2.2,2.8,2.4c1.3,0.2,1.6,1.2,2.3,1.8c-0.1-1-0.3-2-0.4-3
		c0.1,1,0.3,2,0.4,3c0.5,0.4,1.1,0.8,1.6,1.2c0.4,0.2,0.9,0.3,1.3,0.5c0.4,0.6,0.7,1.2,1.1,1.9c1.4,1.3,2.8,2.6,4.1,3.9c0,0,0,0,0,0
		c0.5,0.4,1.1,0.8,1.6,1.2c0.6,0.6,1.1,1.2,1.7,1.8c0.6,0.8,1.1,1.5,1.7,2.3c2.9,3.1,5.7,6.3,9.3,8.6c1.8,1.9,4.2,2.6,6.4,3.7
		c0.4,0.2,0.9,0.1,1.4,0.1c0.8,0,1.5-0.1,2.3-0.1c3,0,6.2-1.7,6.2-5.8c0-0.4-0.1-0.8,0-1.1c0.6-2.1-0.4-3.6-1.6-5.2
		C837.3,893.9,834.2,892.3,831.3,890.2z M810.4,888c0-0.2-0.1-0.3-0.1-0.5C810.3,887.7,810.4,887.9,810.4,888
		C810.4,888,810.4,888,810.4,888z M814,886.2c-0.5,0.1-0.9,0.2-1.3,0.3C813,886.4,813.5,886.3,814,886.2L814,886.2z M814.5,885.7
		C814.5,885.7,814.5,885.6,814.5,885.7c0-0.3,0.1-0.5,0.2-0.8C814.6,885.1,814.6,885.4,814.5,885.7L814.5,885.7z"/>
	<path d="M867.5,860.7c-0.8-0.6-1.7-0.8-2.7-0.6c-2.2,0.5-4.3,0.5-6.5,0.3c-2.5-0.2-4.8,2-5,4.5c0,0.4,0.4,0.8,0.7,1.2
		c0.9-0.1,1.3,0.4,1.6,1.2c-1.4,1.6-1.4,1.6-0.1,3c0.1,0.3,0.2,0.5,0.4,0.8c0.8,1.2,1.7,2.3,2.4,3.7c1.6,3,3.5,3.5,6.7,2.2
		c1.5-0.6,2.9-1.4,4.3-2.1c1-0.5,1.8-1.1,2-2.2c0.3-2,0.6-4,0.7-5.9c0-0.9-0.3-2-0.8-2.7C870,862.7,868.8,861.7,867.5,860.7z"/>
	<path d="M753.1,933.7c-0.4-0.4-0.9-0.7-1.4-0.9c-3-1.3-6-2.3-9.4-2.4c-4.6-0.1-7.7,1.8-9.7,6.1c-1.5,1.3-2.2,3.1-2.9,4.8
		c-1.8,5-1.8,5.3,0.2,10.2c1.8,4.3,5.2,6.8,9.6,7.9c1.1,0.3,2.3,0.1,3.4,0.2c2.6,0.3,4.9-0.2,7.1-1.7c1.6-0.5,3.2-1,4-2.8
		c0.2-0.2,0.4-0.4,0.6-0.6c1.7-0.7,2-2.4,2.5-3.9c1.4-2.4,1-5,0.8-7.6C757.6,939.2,755.4,936.4,753.1,933.7z"/>
	<path d="M710.4,800.3c-2.3-1.4-4.8-1.1-7.1-0.6c-1.5,0.3-2.1,2-1.6,3.6c0.1,0.4,0.2,0.9,0.2,1.4c-0.1,1.5,0.8,2.5,1.9,3.3
		c0.8,0.5,1.6,1,2.6,1.6c0.7-0.3,1.3-0.6,1.9-0.8c2.1-0.8,2.9-2.3,3.1-4.4c0.1-0.7,0.1-1.3,0.1-2
		C711.6,801.4,711.2,800.8,710.4,800.3z"/>
	<path d="M458.1,856.6c-0.5,1.3-0.9,2.6-1.4,3.8c-1.1-0.2-2.1,0-2.8,1c-0.9,1.1-1.9,2.1-2.9,3.2c-0.6,0.8-1.2,1.5-1.7,2.3
		c0.9,0.4,1.9,0.7,2.8,1.1c-0.9-0.4-1.9-0.7-2.8-1.1l0,0c0,0.4,0,0.7,0,1.1c0-0.4,0-0.7,0-1.1c-0.4,0.4-0.8,0.8-1.2,1.1
		c-0.2,0.4-0.4,0.7-0.7,1.1c-1,1.4-2.8,2.2-3.5,4c-1,0.8-1.9,1.6-2.3,2.9c-1.7,1.9-3.4,3.8-5.1,5.7c-2.1,1.9-4.4,3.6-6.4,5.6
		c-2.1,2-3.8,4.3-4.5,7.1c-1.4,3.1-1,6.2,0.4,9.1c1.1,2.4,4.5,3.1,6.8,1.7c3.1-1.9,5.6-4.6,7.9-7.4c1.3-1.5,2.6-3.3,2.9-5.5
		c1.6-1.9,3.4-3.6,4-6.1c0-0.2,0.2-0.3,0.3-0.5c1.5-2.8,3.3-5.3,4.4-8.3c0.1-0.3,0.5-0.6,0.6-0.9c0.6-1.1,1.1-2.2,1.7-3.3
		c1-1.7,2-3.5,3-5.2c0.4-0.7,0.8-1.4,1.2-2.1c0.9-1.4,1.4-2.9,1.5-4.5c0-0.7,0.1-1.5,0.5-2.1c0.3-0.5,1.1-0.8,1.5-1.1
		C461.3,856,459.6,856.8,458.1,856.6z M432.8,903.6c0.7-0.3,1.3-0.7,2-1h0C434.2,902.9,433.5,903.3,432.8,903.6z"/>
	<path d="M799.5,850.1c0.1,2.7,2.2,3.7,4,4.8c1.1,0.7,2.7,0.9,4.1,0.8c1.1-0.1,2.2-0.9,3.3-1.4c1.7-0.4,2.4-1.8,3-3.3
		c1-2.5,1-5.2,0.4-7.8c-0.3-2.2-2-2.8-3.7-2.9c-2.2-0.2-4.4,0-6.6,0.1c-1.5,0-2.9,0.5-3.8,1.8c-1.3,1.7-1.8,3.8-2,5.9
		c0,0.3,0.4,0.6,0.6,0.9c0.3-0.6,0.6-1.2,0.8-1.8c-0.2,0.6-0.5,1.2-0.8,1.8C799.1,849.3,799.5,849.7,799.5,850.1z"/>
	<path d="M652.5,945c-0.1-0.2-0.3-0.3-0.4-0.4c-0.4-1.3-0.8-2.6-1.2-3.9c-0.2-0.7-0.4-1.5-0.7-2.2c-1.9-4.2-3.8-8.3-5.6-12.5
		c-1.2-2.8-2.4-5.6-3.6-8.4c-2.4-5.4-4.9-10.7-7.4-16.1c-0.9-2-1.7-4-2.9-5.8c-1.5-2.4-2.8-4.9-4-7.5l0,0c-0.6-1.8-1.3-3.5-2-5.3
		c-0.2-0.4-0.6-0.7-0.9-1c-0.2-0.2-0.4-0.4-0.6-0.5c-0.2-0.6-0.4-1.2-0.5-1.8l0,0c-0.2-1.2-0.4-2.4-0.8-3.6
		c-0.1-0.5-0.6-0.9-1.1-1.2c-1-0.6-2.1-1.1-3.1-1.6c-1.7,1.9-1.7,1.9-4.2,0.7c0.3-1.5,0.6-3,0.8-4.5c0-0.1-0.4-0.3-0.7-0.6
		c-0.3,0.8-0.5,1.5-0.8,2.2c-0.4,0.2-0.8,0.4-1.1,0.5c-0.1,0.5-0.4,1.2-0.2,1.6c1.5,2.7,2.2,5.7,2.6,8.7c0.2,1,0.6,2,0.9,3
		c0.2,0.8,0.4,1.6,0.7,2.4c0.3,0.9,0.7,1.9,1.1,2.8c0.2,0.2,0.4,0.4,0.6,0.6l0,0c0,0.6,0,1.1,0,1.7c0,0.2,0,0.4,0,0.6
		c0.2,0.4,0.4,0.8,0.6,1.2l0,0c0.4,1.5,0.8,3.1,1.1,4.6c0.4,1.4,0.8,2.8,1.1,4.1c0.9,3.8,1.7,7.6,2.6,11.3c0.3,1.3,0.6,2.6,1,3.9
		c0.3,0.9,0.7,1.7,1,2.6c0.2,0.6,0.4,1.1,0.6,1.7c0.1,0.6,0,1.2,0.2,1.7c1.7,5.6,3.3,11.2,5,16.7c0.3,2.1,1.4,4,1.9,6
		c1,4,2.5,7.8,4.3,11.5c0.9,2,2.5,3.3,4.7,3.9c0.2,0.2,0.4,0.4,0.6,0.6c1.9,2.6,3.6,3.1,6.3,1.8c0.8-0.4,1.5-0.8,2.3-1.1
		c1.9-0.7,2.8-2.2,3-4.2c0,0,0,0,0,0c0-0.4,0-0.8,0-1.2C655.2,953.4,654,949.2,652.5,945z M622.6,898.1L622.6,898.1
		C622.6,898.1,622.6,898.1,622.6,898.1C622.6,898.1,622.6,898.1,622.6,898.1C622.5,898.2,622.6,898.1,622.6,898.1
		C622.6,898,622.6,898,622.6,898.1c-0.3-1.1-0.7-2-1.1-2.9C621.9,896.1,622.3,897.1,622.6,898.1c0.5-0.3,0.9-0.5,1.2-0.7
		C623.4,897.6,623,897.8,622.6,898.1z M625.4,891c0.1,0,0.2-0.1,0.2-0.1l0,0C625.5,891,625.5,891,625.4,891z"/>
	<path d="M334.5,914.3c-1.3-0.3-2.6-0.4-3.9-0.6c-0.2-0.1-0.3-0.1-0.5-0.1c-0.6-0.1-1.2-0.3-1.8-0.4c0.2,0.2,0.4,0.4,0.6,0.6
		c0.9,0.5,1.9,1,2.9,1.6c-1-0.5-1.9-1-2.9-1.6c-0.2-0.2-0.4-0.4-0.6-0.6c-0.8-0.2-1.5-0.5-2.3-0.7c-1-0.5-2-1-3-1.5
		c-0.4-0.2-0.8-0.4-1.2-0.6c-1.5-1.6-3-3.1-4.5-4.7c-2.5-3.4-3-7.4-3.5-11.4c0-1.7,0.1-3.4,0.1-5.2c0-0.6-0.2-1.4-0.6-1.8
		c-0.9-1-3.7-0.8-4.4,0.4c-1.2,2-2.6,4-2.5,6.6c-0.6,1.3-1,2.7-1.7,3.9c-1.3,2.3-2.8,4.5-4.3,6.7c-2,3-4.7,5.1-8.3,6.1
		c-0.6,0.2-1.3,0.4-1.9,0.6c-0.8,0.2-1.6,0.3-2.4,0.5c0,0,0,0,0,0c-1.1-0.1-2,0-2.3,1.3c-0.3,1.5,0.3,2.6,1.8,3.2
		c1.7,0.7,3.3,1.5,5.2,1.4c0,0,0,0,0,0c0.3,0.8,1,1,1.8,1.1c1.6,1.1,3.2,2.2,4,4c0.2,0.6,0.3,1.3,0.6,1.9c2.3,4.3,3.6,8.8,4,13.6
		c0.1,2.1,0.7,4.2,2.1,5.8c0.9,1.1,2.7,0.9,3.3-0.4c0.3-0.6,0.2-1.3,0.3-1.9c0-0.6,0.1-1.1,0.1-1.7c0.2-0.8,0.4-1.5,0.6-2.3
		c2.2-4.8,4.7-9.6,8-13.8c1.2-1,2.3-1.9,3.5-2.9c1.2-0.4,2.3-0.9,3.5-1.3c2.7-1,5.2-2.5,8.2-2.5c0.7,0,1.5-0.3,2.2-0.7
		c0.4-0.2,0.8-0.9,0.8-1.4C335.4,915,334.9,914.4,334.5,914.3z"/>
	<path d="M228.3,896.9c-0.6,1.2-0.3,1.8,1.4,3.2c2.2-0.9,2.2-0.9,2.2-3.7C229.6,895.7,228.9,895.8,228.3,896.9z"/>
	<path d="M703.3,890.5L703.3,890.5c-0.2-0.3-0.5-0.7-0.7-1.1c-1.3-1.4-2.6-2.8-4-4.1c-1.8-1.8-3.7-3.5-5.6-5.3
		c-0.6-0.6-1.3-1.1-1.9-1.7c-0.8-0.9-1.6-1.9-2.3-2.8c-0.2-0.4-0.4-0.9-0.7-1.2c-1.3-1.5-2.6-3-3.9-4.5c-0.4-0.6-0.8-1.1-1.2-1.7
		l0,0c-0.7-0.8-1.5-1.6-2.2-2.4c-0.2-0.4-0.4-0.7-0.6-1.1l0,0c-0.7-0.8-1.5-1.6-2.2-2.4c-1.9-2.2-3.3-4.9-6.4-6.1
		c0.1-1.2-0.3-2.2-1.7-2.5c0.1-1.3,0.1-1.3-1-1.2c-0.3,0-0.5,0.1-0.8,0.1c-0.1-2.7-1.2-4.9-3.2-6.7c-0.1-0.1-0.1-0.1-0.2-0.2l0,0
		c-1-1.2-2.1-2.5-3.2-3.7c-0.8-0.8-1.7-1.2-2.9-0.3c0.5,0.9,0.7,2.4,1.4,2.7c1.5,0.6,1.3,1.9,1.9,2.9c0.9,1.5,1.7,3.2,2.7,4.7
		c0.8,1.1,1.6,2.1,1.9,3.5c0.1,0.5,0.7,0.8,1,1.2c0.2,0,0.4,0,0.5,0.1c0.2,1.6,0.2,1.6,1.8,1.1c0,0.2,0,0.4,0,0.6
		c-0.6,0.6-0.6,1.1-0.1,1.7c0,0.4,0,0.8,0.1,1.1c0.2,0.4,0.4,0.8,0.6,1.2l0,0c0.4,0.6,0.7,1.2,1.1,1.8c0.8,1.4,1.5,2.7,2.3,4.1
		c1.2,2.6,2.3,5.2,3.5,7.8c0.2,0.4,0.7,0.5,1.1,0.8c0.2,0.4,0.4,0.7,0.6,1.1c0.3,0.9,0.4,1.8,0.8,2.7c0.5,1.1,1.2,2.1,1.8,3.2
		c1,1.8,1.7,3.9,2.9,5.5c1.2,1.7,2.6,3.3,3.4,5.3c0.1,0.3,0.6,0.4,0.9,0.7c0.5,1,0.9,2.1,1.6,2.9c1.5,1.6,3.1,3,4.7,4.5
		c0.6,0.6,1,1.4,1.7,1.8c3.6,2.3,2.5,2.1,6.4,1c1-0.1,1.7-0.6,1.8-1.7v0c1.8-2.3,1.6-4.9,1.1-7.5C705.5,894.2,705,892.1,703.3,890.5
		z"/>
	<path d="M502.1,990.1c-2.2-0.5-4.7,0.2-7.1,0.5c-1.1,0.1-1.9,0.9-2.2,2c-1.1,1.2-2.4,2.3-2.5,4.1c-0.2,4.2,0,8.3,4.2,10.8
		c1.4,1.6,3.2,2.1,5.3,1.9c1.1-0.3,2.2-0.6,3.2-1.1c1.6-0.8,3.2-1.7,3.7-3.6c1.5-3.1,1.8-6.4,1.1-9.8
		C506.9,992,504.5,990.6,502.1,990.1z"/>
	<path d="M202.8,846.5c-1.6-1.4-3.6-1-5.4-1c-1.8,0-2.4,2-3.4,3.1c1,1.9,1,1.9,0.6,3.9c0.8,0.8,1.5,1.8,2.4,2.7
		c1.3,1.2,2.6,1.5,4,0.2c1.6-0.6,2.9-1.6,3.6-3.3c0.4-0.6,0.4-1.3,0-1.9C204.6,848.6,204.9,847,202.8,846.5z"/>
	<path d="M910.4,794.9c-1.6-1.4-3.6-1-5.4-1c-1.8,0-2.4,2-3.4,3.1c1,1.9,1,1.9,0.6,3.9c0.8,0.8,1.5,1.8,2.4,2.7
		c1.3,1.2,2.6,1.5,4,0.2c1.6-0.6,2.9-1.6,3.6-3.3c0.4-0.6,0.4-1.3,0-1.9C912.1,797,912.5,795.4,910.4,794.9z"/>
	<path d="M618.7,871.5c0.1-0.2,0.2-0.4,0.4-0.8c-0.3-0.2-0.5-0.3-0.7-0.4c-0.1,0.2-0.3,0.5-0.3,0.7
		C618.3,871.2,618.6,871.4,618.7,871.5z"/>
	<path d="M288,828.9L288,828.9c0.2-0.4,0.4-0.7,0.6-1.1l0,0c0.6-0.4,1.2-0.8,1.7-1.1c1.9-1,3-2.8,4.6-4.2c1.3-1.2,1.4-2.2-0.2-3.1
		c-1.1-0.6-0.4-1.2-0.8-2c-0.6,0.2-1.2,0.3-1.8,0.5c-1.8,0.8-3.7,1.6-5.5,2.5c-0.9,0.5-1.8,1-2.7,1.5c-0.8,0.4-1.7,0.8-2.5,1.2
		c-0.6,0.3-1.1,0.6-1.7,1c-0.5,0.2-1.1,0.5-1.6,0.7c-1.4,0.6-2.7,1.1-4.1,1.7c-1.4,0.6-2.7,1.1-4.1,1.7c-2.4,0.8-4.8,1.7-6.9,3.3
		c-1.1,0.7-2.2,1.6-3.3,2.2c-2.4,1.3-4.2,3.3-5.9,5.4c-0.9,1-1.3,2.3-1,3.7c0.1,0.6,0.1,1.3,0.1,2c0.2,3,1.9,5,4.9,5.4
		c1.4,0.2,2.8,0.3,4.2,0.3c0.6,0,1.1-0.6,1.7-0.9c1.2,0.1,2.2-0.2,3-1c0,0,0,0,0,0c0.3-0.3,0.6-0.5,0.9-0.8c2.4-2.1,4.9-4.1,7.3-6.2
		c0.9-0.8,2-1.5,2.1-2.9c-0.3,0-0.5-0.1-0.8-0.1c0.3,0,0.5,0.1,0.8,0.1c0.2-0.2,0.3-0.3,0.5-0.5c0.2,0,0.3-0.1,0.5-0.2
		c0.7-0.7,1.5-1.5,2.1-2.2c0.5-0.6,0.9-1.2,1.3-1.8c1-0.7,1.9-1.5,2.9-2.2c0.4-0.4,0.8-0.8,1.2-1.2
		C286.5,830.1,287.2,829.5,288,828.9z"/>
	<path d="M566.3,857.1c0.3-0.9,0-1.3-1.2-1.4c-0.3,0-0.7,0.2-1.1,0.3c-0.2,1.2-0.4,2.3-0.6,3.4c-0.1,0.4,0,0.8,0.1,1.1
		c0.4,2.6,0.3,5.1-0.8,7.5c0,0.2-0.1,0.3-0.1,0.5c0,0.4-0.2,1,0,1.3c0.5,0.6,1.2,0.4,1.8-0.2c0.2-2,0.7-4,0.2-6.1
		c-0.3-1.2,0-2.5,0.4-3.6C565.6,859,566,858,566.3,857.1z"/>
	<path d="M389.3,842.6c1.6-1.2,3.6-2,4.7-3.9c0.7-0.3,1.8-0.4,2-0.9c0.7-2.5,2.3-4.2,4.2-5.7c0.2-0.2,0.2-0.6,0.4-0.8
		c0.3-0.3,0.6-0.5,0.9-0.7c0.1,0.2,0.2,0.5,0.4,0.7c0.1,0.1,0.4-0.1,0.7-0.1c-0.1-0.1-0.1-0.4-0.3-0.4c-0.2-0.1-0.5-0.1-0.8-0.1
		c-1.3-1.5-1.5-1.4-2.7,0.9c-0.5-0.1-1.1-0.2-1.6-0.2c-0.6,1.8-0.8,2.1-2.3,1.7c-0.6-0.1-0.9-0.4-1.4,0.3c-0.2,0.4-1,0.6-1.5,0.5
		c-0.7-0.1-1.4-0.6-2.2-0.9c-1,0.4-2.2,0.8-3.3,1.2c-2.1,1.1-4.2,2.3-6.3,3.4c-1.1,0-2.2,0.3-3.2,0.9c-1.6,0.9-3.3,1.7-4.9,2.5
		c-0.9,0.6-1.9,1.2-2.8,1.8c-0.4,0.2-0.8,0.4-1.2,0.6c0,0,0,0,0,0c-1,0.5-2.1,0.9-3.1,1.4c-1,0.5-2.1,1-2.7,2l0,0
		c-0.4,0.2-0.8,0.4-1.2,0.6c-0.9,0.4-1.9,0.8-2.8,1.3c-1.7,1.1-3.5,2.3-5.2,3.4c-2.9,1.7-5.9,3.5-8.8,5.3c-0.4,0.2-0.6,0.7-1,1
		c0,0,0,0,0,0c-0.5,0.2-1.1,0.5-1.6,0.7c-1.2,0.1-1.8,0.9-2.5,1.7c-2.1,2.5-3.1,5.4-2.8,8.7c0.2,1.8,0.8,3.3,2.1,4.5
		c1.8,1.7,4,2.1,6.3,2.5c0.3,0,0.6,0,0.8-0.1c3.8-1.6,7.3-3.7,9.8-7.1c1.6-1.3,3.1-2.6,4.7-3.9c3.7-2.9,7.3-5.7,11-8.6
		c0.2,0,0.3-0.1,0.4-0.1c0.6-0.4,1.1-0.8,1.7-1.2c0.6-0.6,1.2-1.1,1.8-1.7c1.3-1.2,2.6-2.4,3.9-3.5c1.8-0.3,2.9-1.6,4.1-2.8
		c1.9-0.9,3.9-2.9,4.7-4.6C388.2,842.7,388.9,842.9,389.3,842.6z M388.2,838.7c0,0.2,0.1,0.3,0.1,0.5
		C388.3,839,388.3,838.9,388.2,838.7c0-0.2,0-0.5-0.1-0.7C388.2,838.2,388.2,838.5,388.2,838.7z M339.4,863.5
		c-0.1-0.1-0.2-0.2-0.3-0.2C339.2,863.4,339.3,863.5,339.4,863.5L339.4,863.5z M364,848.4C364,848.4,364,848.4,364,848.4
		c1,0.6,2,1.2,2.9,1.8C365.9,849.6,364.9,849,364,848.4z M368.1,848.5L368.1,848.5c0.8-0.2,1.5-0.4,2.3-0.6
		C369.6,848.1,368.8,848.3,368.1,848.5z M372.7,851.4c0.4,0.4,1,0.4,2.3,0.6C373.7,851.8,373,851.7,372.7,851.4z"/>
	<path d="M404.3,829.9c0,0.1-0.1,0.2-0.1,0.3c0.1,0,0.1,0,0.2,0c0-0.1,0.1-0.2,0.1-0.2C404.5,829.9,404.4,829.9,404.3,829.9z"/>
	<path d="M519,861.7c-0.1,0-0.3,0-0.4,0.1c-0.1,0.1-0.1,0.3-0.2,0.5c0.1-0.1,0.3-0.2,0.4-0.3C518.9,861.9,518.9,861.8,519,861.7z"/>
	<path d="M840.5,312.9c5.1,2.4,11.5,1,15.6-3.1c1-1,1.9-1.9,3.2-3.2c10.2,8.8,20.4,16.9,30.4,26.2c-1.2,0.1-1.7,0.2-2.1,0.1
		c-5.9-2.1-12.1-3.3-18.4-3.7c-2.3-0.2-4.1-1.3-5.6-3c-2.9-3.3-6.8-4.9-11.1-5.7c-2.4-0.4-4.5,0.1-6,1.9c-3.9,4.4-5.6,9.5-3.8,15.2
		c1.9,6.3,7.9,9.4,14.1,7.7c3.9-1.1,6.3-3.9,8-7.5c0.7-1.5,1.4-3.1,2.1-4.8c2.5,0.4,4.6,0.6,6.8,1c8.1,1.5,16.5,2.2,23.7,6.9
		c0.5,0.4,1.9,0.5,2.1,0.2c0.6-0.8,1-1.9,1-2.8c-0.1-3.4-0.9-6.9-0.5-10.2c0.7-6,2.1-12,3.2-18c0.4-1.9,0.9-3.9,1.5-6.1
		c1.9,0,3.4,0.1,5,0c8.4-0.4,13.4-7.9,10.8-15.9c-1.3-3.8-3.8-5.6-7.6-5.8c-4.5-0.3-8.3,1.2-11.6,4.1c-4.9,4.4-5.5,8.6-2,14.1
		c1.1,1.8,1.2,3.3,0.8,5.3c-1,5.1-1.7,10.2-2.5,15.3c-0.1,0.9-0.4,1.7-0.9,3.6c-0.8-2.4-1.3-3.8-1.7-5.3c-2-8.2-4-16.4-5.9-24.7
		c-1-4.6-1.8-9.2-2.6-13.8c-0.4-2.3,0.3-3.7,2.9-4.4c5.2-1.3,7.9-5.2,9.5-10.1c2.5-7.7-2.6-16-10.6-17.2c-2.8-0.4-5.4,0-7.4,2
		c-2.1,2.1-4.3,4.2-5.8,6.7c-4.6,7.2-2.9,14.1,4.4,18.4c2,1.2,2.9,2.6,3.3,4.7c0.7,4.2,1.5,8.3,2.4,12.4c2.5,11.6,5,23.2,7.7,35.7
		c-1.6-1.3-2.4-2-3.3-2.7c-7.7-6.4-15.3-13-23.1-19.2c-3.7-2.9-7.1-5.6-7.1-10.8c0-0.9-0.5-1.8-1-2.6c-3.1-6.3-11.6-10-17.4-7.6
		c-4.9,2-8.6,7.8-8.5,13.6C832.5,305.6,835,310.3,840.5,312.9z M852.5,337.6c-2.6,0.1-5.4-2.2-5.6-4.7c-0.2-2.7,2-5.7,4.3-5.8
		c2.7-0.1,6.7,3.2,6.7,5.5C857.9,335,855.2,337.5,852.5,337.6z M911.1,286.9c2.3,0,3.7,1.6,3.9,4.4c0.2,3.1-1.7,5.3-4.6,5.3
		c-2.6,0.1-5.1-2-5.3-4.4C904.9,289.4,907.7,286.9,911.1,286.9z M881.8,262.3c0-3.1,3.7-6.7,6.8-6.6c3.1,0.1,5.7,2.9,5.6,6.3
		c0,3.5-2.6,6.1-6.3,6.1C884.8,268.1,881.7,265.2,881.8,262.3z M846.4,292.6c3.3,0,6.2,3.2,6.3,6.8c0.1,3.2-2.2,5.2-5.7,5.3
		c-3.5,0.1-6-2.6-6-6.3C841,295.2,843.5,292.6,846.4,292.6z"/>
	<path d="M153.1,322.6c1.5,0.1,3.1,0,5,0c0.5,2.2,1.1,4.1,1.5,6.1c1.2,6,2.5,12,3.2,18c0.4,3.3-0.4,6.8-0.5,10.2c0,1,0.4,2.1,1,2.8
		c0.2,0.3,1.5,0.2,2.1-0.2c7.2-4.7,15.6-5.4,23.7-6.9c2.1-0.4,4.3-0.6,6.8-1c0.8,1.7,1.4,3.2,2.1,4.8c1.6,3.6,4.1,6.3,8,7.5
		c6.2,1.8,12.1-1.4,14.1-7.7c1.8-5.7,0.1-10.8-3.8-15.2c-1.5-1.7-3.6-2.3-6-1.9c-4.3,0.8-8.1,2.4-11.1,5.7c-1.5,1.7-3.3,2.9-5.6,3
		c-6.3,0.4-12.4,1.6-18.4,3.7c-0.4,0.1-0.9,0-2.1-0.1c10-9.4,20.2-17.5,30.4-26.2c1.3,1.3,2.2,2.3,3.2,3.2
		c4.2,4.1,10.6,5.5,15.6,3.1c5.5-2.6,8-7.3,8.1-13.2c0.1-5.8-3.6-11.5-8.5-13.6c-5.8-2.4-14.3,1.3-17.4,7.6c-0.4,0.8-1,1.7-1,2.6
		c0,5.2-3.4,7.9-7.1,10.8c-7.8,6.2-15.4,12.8-23.1,19.2c-0.8,0.7-1.7,1.4-3.3,2.7c2.7-12.5,5.2-24.1,7.7-35.7
		c0.9-4.1,1.7-8.3,2.4-12.4c0.4-2.1,1.2-3.6,3.3-4.7c7.4-4.3,9-11.2,4.4-18.4c-1.6-2.5-3.8-4.6-5.8-6.7c-2-2-4.7-2.4-7.4-2
		c-8,1.2-13.1,9.6-10.6,17.2c1.6,4.9,4.3,8.8,9.5,10.1c2.6,0.7,3.3,2.1,2.9,4.4c-0.8,4.6-1.6,9.3-2.6,13.8
		c-1.9,8.2-3.9,16.4-5.9,24.7c-0.4,1.5-0.9,2.9-1.7,5.3c-0.5-1.8-0.8-2.7-0.9-3.6c-0.8-5.1-1.5-10.2-2.5-15.3
		c-0.4-2-0.3-3.5,0.8-5.3c3.5-5.5,2.8-9.7-2-14.1c-3.3-3-7.1-4.4-11.6-4.1c-3.8,0.3-6.4,2.1-7.6,5.8
		C139.7,314.7,144.7,322.2,153.1,322.6z M211.5,345.8c2.3,0.1,4.5,3.1,4.3,5.8c-0.2,2.5-2.9,4.8-5.6,4.7c-2.7-0.1-5.4-2.6-5.4-5
		C204.8,349,208.8,345.7,211.5,345.8z M216.3,311.3c3,0,5.4,2.6,5.4,5.8c0,3.7-2.5,6.3-6,6.3c-3.6-0.1-5.8-2.1-5.7-5.3
		C210.1,314.5,213.1,311.3,216.3,311.3z M174.9,286.8c-3.6,0-6.3-2.6-6.3-6.1c0-3.3,2.5-6.2,5.6-6.3c3.1-0.1,6.7,3.5,6.8,6.6
		C181,283.9,178,286.8,174.9,286.8z M151.7,305.6c3.4,0,6.2,2.5,6,5.3c-0.2,2.4-2.7,4.4-5.3,4.4c-3-0.1-4.8-2.2-4.6-5.3
		C147.9,307.2,149.4,305.6,151.7,305.6z"/>
	<path d="M841.7,231c2.8,0.2,5.5-1.8,5.7-4.3c0.3-3.4-2.4-6.6-5.8-6.9c-2.8-0.2-5.6,2.4-5.8,5.6C835.5,228.6,837.7,230.7,841.7,231z
		 M842.6,224.4c-0.1-0.5-0.3-1.3,0.1-1.7c0.6-0.7,1.4,0.2,1.7,0.7c0.4,0.8,0.6,1.6,0.5,2.5c0,0.5-0.2,1-0.4,1.5
		c-0.2,0.4-0.4,0.7-0.6,1c-0.7,0.7-1.8,0.2-1.6-0.8c0-0.2,0.2-0.4,0.3-0.6C843,226.1,842.7,225.3,842.6,224.4z"/>
	<path d="M953.8,365.5c3.3,0.3,6.5-2.1,6.8-5.1c0.3-4-2.8-7.8-6.8-8.2c-3.3-0.3-6.7,2.9-6.9,6.6
		C946.5,362.6,949.1,365.1,953.8,365.5z M954.9,357.6c-0.1-0.6-0.4-1.5,0.1-2c0.7-0.8,1.7,0.2,2.1,0.8c0.5,0.9,0.7,1.9,0.7,2.9
		c0,0.6-0.2,1.2-0.5,1.8c-0.2,0.4-0.4,0.8-0.8,1.2c-0.9,0.9-2.2,0.3-1.9-1c0.1-0.2,0.2-0.4,0.3-0.7
		C955.4,359.7,955.1,358.7,954.9,357.6z"/>
	<path d="M993.6,512.5c-5.2-0.4-10.4,4.5-10.8,10.3c-0.4,5.9,3.7,9.8,10.9,10.4c5.2,0.4,10.1-3.3,10.5-8
		C1004.7,519,999.8,513.1,993.6,512.5z M998.9,526.5c-0.3,0.7-0.7,1.3-1.2,1.8c-1.4,1.4-3.4,0.5-3-1.6c0.1-0.4,0.3-0.7,0.5-1
		c0.9-1.6,0.5-3.2,0.1-4.8c-0.2-0.9-0.5-2.4,0.1-3.2c1-1.2,2.7,0.3,3.2,1.3c0.8,1.5,1.1,3,1,4.6
		C999.6,524.6,999.4,525.6,998.9,526.5z"/>
	<path d="M985.2,643c-3-0.3-5.9,2.6-6.2,5.8c-0.2,3.4,2.1,5.6,6.2,5.9c3,0.2,5.8-1.9,6-4.5C991.6,646.7,988.8,643.3,985.2,643z
		 M988.3,651c-0.2,0.4-0.4,0.8-0.7,1c-0.8,0.8-1.9,0.3-1.7-0.9c0-0.2,0.2-0.4,0.3-0.6c0.5-0.9,0.3-1.8,0.1-2.7
		c-0.1-0.5-0.3-1.3,0.1-1.8c0.6-0.7,1.5,0.2,1.8,0.7c0.4,0.8,0.6,1.7,0.6,2.6C988.7,649.9,988.5,650.4,988.3,651z"/>
	<path d="M212.6,251.7c4.3,0.4,8.4-2.8,8.8-6.7c0.4-5.2-3.7-10.1-8.9-10.6c-4.3-0.4-8.7,3.7-9,8.6
		C203.1,247.9,206.5,251.2,212.6,251.7z M213.4,246.3c0.1-0.3,0.2-0.6,0.4-0.8c0.7-1.3,0.4-2.6,0.1-4c-0.2-0.8-0.5-2,0.1-2.6
		c0.9-1,2.2,0.3,2.7,1.1c0.6,1.2,0.9,2.5,0.8,3.8c-0.1,0.8-0.3,1.6-0.7,2.4c-0.3,0.5-0.6,1.1-1,1.5
		C214.8,248.7,213.1,248,213.4,246.3z"/>
	<path d="M114.4,370c4.7,0.4,9.1-3,9.4-7.2c0.4-5.6-4-10.9-9.6-11.4c-4.7-0.4-9.3,4-9.7,9.2C104.2,366,107.8,369.5,114.4,370z
		 M115.3,364.2c0.1-0.3,0.3-0.6,0.4-0.9c0.8-1.4,0.4-2.8,0.1-4.3c-0.2-0.8-0.5-2.1,0.1-2.8c0.9-1.1,2.4,0.3,2.9,1.2
		c0.7,1.3,1,2.7,0.9,4.1c-0.1,0.9-0.3,1.7-0.7,2.6c-0.3,0.6-0.6,1.2-1.1,1.6C116.7,366.8,114.9,366,115.3,364.2z"/>
	<path d="M82.7,589.4c-3.3-0.3-6.7,2.9-7,6.6c-0.3,3.8,2.4,6.3,7,6.7c3.4,0.3,6.5-2.1,6.8-5.1C89.9,593.5,86.7,589.8,82.7,589.4z
		 M86.2,598.4c-0.2,0.4-0.4,0.8-0.8,1.2c-0.9,0.9-2.2,0.3-1.9-1c0.1-0.2,0.2-0.4,0.3-0.7c0.6-1,0.3-2,0.1-3.1
		c-0.1-0.6-0.4-1.5,0.1-2c0.7-0.8,1.7,0.2,2.1,0.8c0.5,0.9,0.7,1.9,0.7,3C86.6,597.2,86.4,597.8,86.2,598.4z"/>
	<path d="M533,262.4c-0.4,5.1,3.2,8.5,9.4,9c4.5,0.4,8.7-2.9,9.1-6.9c0.4-5.4-3.8-10.5-9.2-10.9C537.8,253.2,533.4,257.5,533,262.4z
		 M543.3,265.9c0.1-0.3,0.3-0.6,0.4-0.9c0.8-1.4,0.4-2.7,0.1-4.2c-0.2-0.8-0.5-2,0.1-2.7c0.9-1.1,2.3,0.3,2.8,1.1
		c0.7,1.3,1,2.6,0.9,4c-0.1,0.8-0.3,1.7-0.7,2.4c-0.3,0.6-0.6,1.1-1,1.6C544.7,268.4,543,267.6,543.3,265.9z"/>
	<path d="M607.3,208.7c2.8,0.2,5.4-1.8,5.6-4.2c0.3-3.3-2.3-6.4-5.6-6.7c-2.7-0.2-5.5,2.4-5.7,5.4
		C601.2,206.3,603.4,208.4,607.3,208.7z M608.1,202.2c-0.1-0.5-0.3-1.3,0.1-1.7c0.6-0.7,1.4,0.2,1.7,0.7c0.4,0.8,0.6,1.6,0.5,2.4
		c0,0.5-0.2,1-0.4,1.5c-0.2,0.3-0.4,0.7-0.6,1c-0.7,0.7-1.8,0.2-1.6-0.8c0-0.2,0.2-0.4,0.3-0.5C608.5,203.9,608.3,203,608.1,202.2z"
		/>
	<path d="M406.1,283.8c-0.3,4.1,2.5,6.8,7.5,7.2c3.6,0.3,7-2.3,7.2-5.5c0.3-4.3-3-8.4-7.3-8.7C410,276.4,406.4,279.8,406.1,283.8z
		 M414.3,286.5c0.1-0.3,0.2-0.5,0.3-0.7c0.6-1.1,0.3-2.2,0.1-3.3c-0.1-0.6-0.4-1.6,0.1-2.2c0.7-0.8,1.8,0.2,2.2,0.9
		c0.5,1,0.8,2.1,0.7,3.2c0,0.7-0.2,1.3-0.5,2c-0.2,0.4-0.5,0.9-0.8,1.3C415.4,288.5,414,287.9,414.3,286.5z"/>
</g>
</svg>
