<?xml version="1.0" encoding="utf-8"?>
<!-- Generator: Adobe Illustrator 22.0.0, SVG Export Plug-In . SVG Version: 6.00 Build 0)  -->
<svg version="1.1" id="Layer_1" xmlns="http://www.w3.org/2000/svg" xmlns:xlink="http://www.w3.org/1999/xlink" x="0px" y="0px"
	 viewBox="0 0 1080 1080" style="enable-background:new 0 0 1080 1080;" xml:space="preserve">
<g>
	<path d="M798.4,714.3c6,0,16.5-1.9,16.5,21.1v118.1c-10.8-9.5-32.2-15.2-49-16.3V735.4c0-23,10.6-21.1,16.5-21.1v-4.6
		c-21.7,0-43.4,0-65.3,0v4.6c6,0,16.8-1.9,16.8,21.1v129.8c0,24.1,0,47.7-18.7,66.1c-36.3,36.8-80.5,69.1-134.1,71.5
		c-33.1,1.6-61.8-9.5-81.8-27.6c-10.1-9.3-17.9-20.6-23.4-32.8c22.2-6.7,43.5-14.5,63.2-21.9c9.2-3.5,18.2-6.8,26.8-10
		c0.3,1,0.6,1.9,1,2.9c-8.1,3.8-6,17.1,4.2,16.6c1.1-0.1,2.1-0.2,3.1-0.4c23.9,41.6,73.7,45.6,100.4,16.7
		c10.6-11.5,12.8-27.9,5.2-40.6c2.4,0,4.8,0,7.3,0V901c-6,0-16.5,1.9-16.5-21.1c0-48.2,0-96.2,0-144.4c0-25.7,38.2-25.7,38.2-3.5
		c0,3.5,0,8.4,0,8.9h4.3v-12.5v-18.7H595.7v18.7v12.5h4.6l-0.3-8.9c0-22.5,38.2-22.2,38.2,3.5c0,48.2,0,96.2,0,144.4
		c0,2.3-0.1,4.4-0.3,6.2c-2.9,0-6,0-9.2,0.3c-6.8,0.6-14.1,1.9-21.6,3.6c5.1-27.4-10.3-58.7-37.6-72.9c21.2-20.4,25.1-59.3,11-83.8
		c-8.7-15.2-24.7-21.7-41.5-23.3c-5.7-0.5-11.4-0.3-17.1-0.3h-54.2v4.6c6,0,16.5-1.9,16.5,21.1v93.8c-18.2,17.4-26.9,44.2-25.9,71.8
		c-6,0.1-14.6-0.6-18-21.2l-28.7-170.2c-16,0-31.7,0-47.7,0l-0.3,4.3c9.5,0,18.2,2.7,15.4,14.1l-17.9,81c-3.8,0.3-7.9,1.1-11.9,1.9
		c-23.4,5.5-39.3,20.3-47.7,38.5c0-10.2,0-20.4,0-30.7h-4.6c-0.3,11.9,0.3,16.3-19.2,16.5v-100c0-25.7,38.2-25.7,38.2-3.5
		c0,3.5,0,5.4,0,6h4.3v-28.2h-91.3v4.6c6,0,16.5-1.9,16.5,21.1c0,48.2,0,96.2,0,144.4c0,23-10.6,21.1-16.5,21.1v4.6h69.3
		c9.9,31.8,40.2,58.1,91.7,54.2c26.7-2.1,53.1-7.8,78.5-15.2c5.9,13.4,14.4,25.8,25.6,36c21.4,19.8,52,31.7,87.3,29.8
		c56.9-2.7,103-36.8,141.4-75.6c16.3-16.5,35.8-29.3,59.6-29.3V901c-6,0-16.5,1.9-16.5-21.1c0-11.6,0-23.3,0-35.2
		c17.6,1.4,38.7,6.8,49,19.2v16c0,23-10.6,21.1-16.5,21.1v4.6c21.7,0,43.4,0,65.3,0V901c-6,0-16.8,1.9-16.8-21.1
		c0-48.2,0-96.2,0-144.4c0-23,10.8-21.1,16.8-21.1v-4.6c-21.9,0-43.6,0-65.3,0V714.3z M593.3,901.5c0.7-0.2,1.5-0.4,2.2-0.6
		c-0.5,1-1,1.9-1.6,2.8C593.7,903,593.5,902.3,593.3,901.5z M629.3,894.2c2.4-0.2,4.6-0.3,6.8-0.3c-3.4,8-10.1,7.1-14.3,7.1v4.6
		c16.1,0,32.4,0,48.6,0c8.9,9.7,8.3,23.6-0.1,33.6c-17.3,21.2-57.9,9.2-73.2-26.5c3.4-4.4,6.1-9.2,7.9-14.3
		C613.5,896.3,621.6,894.8,629.3,894.2z M598.9,892c-2.7,0.7-5.3,1.4-8,2.2c-8.1-26-11.4-55.8-42.3-65.3c5.4-1.4,10.2-3.6,14.5-6.5
		C590.4,834.7,605.8,866,598.9,892z M516.6,819.6c7-1.9,14.6-2.9,23-2.6c1.7,0,3.3,0.2,4.9,0.3c-1.6,1.9-3.3,3.5-5.2,4.8
		c-6.8,4.6-14.9,3-22.8,3V819.6z M516.6,735.4c0-7.6,1.1-12.5,2.7-15.7c3.5-6.2,12.7-6.8,18.7-3.8c22.4,11.2,25.7,67,11.2,94.4
		c-3-0.5-6.1-0.9-9.3-0.9c-8.4-0.3-16.2,0.5-23.3,2.3V735.4z M484.4,840.5v39.3c0,23-10.6,21.1-16.5,21.1v4.6h65.3V901
		c-6,0-16.5,1.9-16.5-21.1v-48.8h9.2c20.9,1.9,29,52.6,37.1,72.3c-8.7,3.3-17.3,6.5-26.6,9.8c-19.8,7.5-41.1,15.4-63.5,22.1
		C460.8,902.3,464.7,864.4,484.4,840.5z M384.6,739.8l13.3,78.3c-7.3-5.4-16.8-8.9-28.7-9.2L384.6,739.8z M277.9,879.9v-39.3
		c19.5,0.3,19,4.6,19.2,16.5h1.6c-4.5,13.6-5.2,28.5-1.9,42.7C287.3,899.3,277.9,892.8,277.9,879.9z M389.2,952.2
		c-45.9,3.5-73.2-19-82.8-46.6h14V878h-4.3v5.4c0,8.2-5.1,13.4-11.6,15.5c-8-33.2,8.1-71.2,46.6-80.2c3-0.8,5.7-1.4,8.4-1.6
		l-13.8,62.9c-4.9,23-15.2,21.1-21.1,21.1v4.6c13.3,0,26.6,0,39.8,0l0.3-4.6c-6,0-16.3,1.9-11.1-21.1l14.1-63.4
		c15.2,0,26,6,32.5,14.1l6,35.2c-2.7,7-8.1,12.5-15.7,14.1c-3.3,0.8-6,0.5-7,0c1.6-4.6-0.8-8.9-4.3-11.4
		c-10.3-6.5-19.5,7.6-10.6,14.4c5.7,4.1,16.5,6,23.6,4.3c6.8-1.4,12.2-4.9,16-9.8l0.5,2.4c3.8,23-6.5,21.1-12.5,21.1v4.6
		c21.1,0,41.7,0,62.7,0c0.8,10.7,3.1,21.5,6.9,31.9C440.9,944.6,415.1,950.2,389.2,952.2z"/>
	<path d="M158.7,436.6c-1.8,0-2.7,1.1-2.7,3.2c0,2.2,0.9,3.2,2.7,3.2h56.6c1.8,0,2.7-1.1,2.6-3.2c-0.1-2.2-1-3.2-2.6-3.2h-13.3
		V336.2c1.1,4.1,3.1,7.6,5.8,10.4c2.7,2.8,5.9,5.2,9.6,7.2c3.6,1.9,7.5,3.3,11.6,4.1c4.1,0.8,8.1,1.2,11.9,1.2
		c8.2,0,16.4-1.6,24.6-4.8c8.2-3.2,15.5-7.6,22-13.1c6.5-5.6,11.7-12.2,15.7-19.8c4-7.6,6-15.9,6-24.7c0-7.7-1.5-15.5-4.6-23.2
		c-3.1-7.7-7.9-14.6-14.5-20.6c-6.6-6-15.1-10.9-25.6-14.7c-10.5-3.8-23-5.6-37.5-5.6h-68.2c-1.8,0-2.7,1.1-2.7,3.2
		c0,2.2,0.9,3.2,2.7,3.2h13.6v197.6H158.7z M202.1,239h19.8c19.6,0,33.4,4.7,41.5,14c8.1,9.3,12.1,23.2,12.1,41.6
		c0,9.8-1.3,18.2-3.8,25.3c-2.5,7.1-5.7,13-9.6,17.7c-3.9,4.7-8.3,8.2-13.3,10.5c-5,2.3-9.9,3.4-14.7,3.4c-6.6,0-12.6-2-18.1-6
		c-5.5-4-8.2-9.6-8.2-16.7c0-5.7,1.8-10.8,5.3-15.1c3.5-4.4,8.5-6.5,14.8-6.5c4.3,0,7.5,1.3,9.6,3.9c2,2.6,3.1,5.1,3.1,7.3
		c0,1.8-0.5,3.4-1.5,4.8c-1,1.4-2.4,2-4.3,2c-1.1,0-2.6-0.3-4.3-1s-3.1-1-4.3-1c-3.2,0-4.8,1.6-4.8,4.8c0,1.6,0.9,3.2,2.6,4.9
		s4.5,2.6,8.4,2.6c4.5,0,8.1-1.8,10.7-5.3c2.6-3.5,3.9-7.1,3.9-10.7c0-5.2-2-9.5-6.1-12.8c-4.1-3.3-8.5-4.9-13.3-4.9
		c-7.3,0-13.1,2.2-17.4,6.5c-4.3,4.3-7.1,9.2-8.2,14.7V239z"/>
	<path d="M330.9,421.9c5.6,7.3,12.7,13.2,21.3,17.7c8.6,4.5,18.9,6.9,30.7,7.2c9.8,0.2,18.6-1.7,26.4-5.6c7.8-4,14.7-9.6,20.6-16.9
		c1.1-1.6,1-3.1-0.5-4.4c-1.5-1.4-2.8-1.2-3.9,0.3c-3.9,5.2-8.9,9.7-15.2,13.5c-6.3,3.8-14.2,5.4-23.7,4.9
		c-9.3-0.2-17.1-3.1-23.2-8.7c-6.1-5.6-10.8-12.5-14-20.6c-3.2-8.2-5-17.2-5.5-27.1c-0.5-9.9,0.3-19.3,2.4-28.1
		c0,3.6,0.8,7.3,2.4,10.9c1.6,3.6,4,6.9,7.3,9.9c3.3,3,7.4,5.3,12.5,7c5,1.7,10.9,2.3,17.7,1.9c5.7-0.2,11.2-1.3,16.5-3.2
		c5.3-1.9,10.1-4.7,14.3-8.2c4.2-3.5,7.6-7.8,10.1-12.8c2.5-5,3.6-10.6,3.4-16.7c-0.2-5.9-1.6-11.3-4.1-16
		c-2.5-4.8-5.9-8.8-10.1-12.1c-4.2-3.3-8.9-5.8-14.2-7.5c-5.2-1.7-10.7-2.6-16.4-2.6c-8.4-0.2-16.7,1-24.7,3.8
		c-8.1,2.7-15,6.6-20.6,11.6c-7.1,6.4-12.6,13.9-16.7,22.5c-4.1,8.6-6.5,17.7-7.3,27.1c-0.8,9.4,0,18.7,2.4,27.8
		C321.3,406.4,325.3,414.6,330.9,421.9z M360,323.8c3.9-4.9,9-8.6,15.4-11.1c3.9-1.6,7.7-2.5,11.6-2.7c3.9-0.2,7.3,0.5,10.4,2
		c3.1,1.6,5.6,4.2,7.5,7.7c1.9,3.5,2.9,8.1,2.9,13.8c0,8.4-1.9,16.5-5.8,24.2c-3.9,7.7-9.4,13.1-16.7,16c-6.1,2.5-12.3,2.6-18.4,0.2
		c-6.1-2.4-10.5-7-13-13.8c-1.8-4.8-1.5-9.5,0.9-14.2c2.4-4.7,6.4-7,12.1-7c2.3,0,4.3,0.5,6.1,1.5c1.8,1,3,2.6,3.4,4.6
		c0.5,1.4,0.3,2.7-0.3,4.1c-0.7,1.4-2.3,2.6-4.8,3.8c-2.3,1.1-3.6,2.6-3.9,4.3c-0.3,1.7,0,3.1,1,4.3c1,1.1,2.5,1.8,4.4,2
		c1.9,0.2,4-0.6,6.3-2.4c3.2-2.7,5-5.8,5.5-9.2c0.7-5.9-0.9-10.6-4.8-14c-3.9-3.4-8.3-5-13.3-4.8c-7.1,0.2-12.4,2.7-16,7.5
		C353,334.3,356.2,328.7,360,323.8z"/>
	<path d="M473.5,317.1c-5.3,4.6-8.5,10.4-9.4,17.4c-0.5,3-0.1,5.1,1.2,6.5c1.2,1.4,2.7,2,4.3,2c1.6,0,3-0.6,4.3-1.9
		c1.2-1.2,1.6-3.1,1.2-5.6c-0.7-4.5,0.4-8.8,3.2-12.6c2.8-3.9,6.7-6.9,11.4-9c4.8-2.2,9.9-3.3,15.5-3.4c5.6-0.1,10.9,1.2,15.9,3.9
		c5,2.7,9.2,7.1,12.5,13.1c3.3,6,4.9,14,4.9,24.1v22.2c-2.3-5.9-6-10.6-11.1-14c-5.1-3.4-10.9-5.6-17.2-6.5c-6.4-0.9-13-0.7-20,0.7
		c-6.9,1.4-13.3,4-18.9,7.8c-5.7,3.9-10.4,9-14.2,15.4c-3.8,6.4-5.6,13.9-5.6,22.5c0,8.4,1.5,15.6,4.4,21.7c3,6,6.8,11,11.6,15
		c4.8,4,10.2,6.9,16.2,8.7c6,1.8,12.1,2.6,18.3,2.4c7.3-0.5,14.2-2.4,20.6-5.8c6.5-3.4,11.8-8.5,15.9-15.4c0.2,4.8,1.7,8.8,4.4,11.9
		c2.7,3.2,6.1,5.5,10.1,7c4,1.5,8.2,2.1,12.6,1.9c4.4-0.2,8.5-1.4,12.1-3.4c3.2-1.8,4.1-3.5,2.9-4.9c-1.3-1.5-2.8-1.6-4.6-0.5
		c-4.6,2.5-8,2.3-10.2-0.7c-2.3-3-3.4-7.7-3.4-14.3v-71.3c0-9.8-2.3-18-6.8-24.6c-4.6-6.6-10.3-11.7-17.2-15.4
		c-6.9-3.6-14.5-5.8-22.7-6.5c-8.2-0.7-15.9-0.1-23.2,1.9C485.1,309.4,478.8,312.6,473.5,317.1z M538.5,404.5c0,3.9-0.7,7.7-2,11.4
		c-1.4,3.8-3,7-4.8,9.7c-4.6,7.1-9.8,11.4-15.9,13c-6,1.6-11.8,1-17.2-1.7c-5.5-2.7-10.1-7.3-13.8-13.8c-3.8-6.5-5.6-14.3-5.6-23.4
		c0-10.5,1.9-18.9,5.8-25.2c3.9-6.4,8.5-10.7,13.8-13.1c5.3-2.4,10.9-2.8,16.5-1.2c5.7,1.6,10.5,5,14.3,10.2
		c1.6,2.3,2.8,4.9,3.6,7.8c0.8,3,1.1,5.9,0.9,8.7c-0.2,2.8-1.1,5.5-2.6,7.8c-1.5,2.4-3.7,4-6.7,4.9c-3.2,1.1-6.3,1.1-9.4,0
		c-3.1-1.1-4.9-3.1-5.6-5.8c-0.2-1.4,0.1-2.7,0.9-4.1c0.8-1.4,2.4-2.6,4.9-3.8c2.3-0.9,3.6-2.2,4.1-3.8c0.5-1.6,0.2-3-0.7-4.3
		c-0.9-1.2-2.4-2-4.4-2.2c-2-0.2-4.2,0.5-6.5,2c-3.4,2-5.3,5-5.8,8.9c-0.5,3.2-0.1,6.1,1.2,8.7c1.2,2.6,3.1,4.8,5.5,6.5
		s5.1,2.9,8.2,3.6c3.1,0.7,6.2,0.5,9.4-0.7c3-0.9,5.4-2.3,7.3-4.1c1.9-1.8,3.5-4,4.6-6.5V404.5z"/>
	<path d="M671.9,338.6c2.3-1.1,3.6-2.5,4.1-4.1c0.5-1.6,0.2-3-0.9-4.3c-1-1.2-2.6-2-4.6-2.2c-2-0.2-4.2,0.6-6.5,2.4
		c-3.2,2.7-4.9,5.8-5.1,9.2c-0.5,3.2,0.1,6.1,1.5,8.9c1.5,2.7,3.4,4.9,5.8,6.5c2.4,1.6,5.2,2.6,8.4,3.1c3.2,0.5,6.4,0.1,9.6-1
		c4.5-1.6,7.8-4.4,9.9-8.4c2-4,3-8.1,2.7-12.5c-0.2-5.2-1.6-9.8-4.1-13.6c-2.5-3.9-5.8-7.2-9.9-9.9c-5.2-3.4-11.1-5.6-17.7-6.7
		c-6.6-1-13.2-1.1-19.8-0.3c-6.6,0.8-13,2.5-19.1,5.1c-6.1,2.6-11.4,5.9-15.7,9.7c-7.1,6.4-12.6,13.9-16.7,22.5
		c-4.1,8.6-6.5,17.6-7.3,27c-0.8,9.3,0,18.6,2.4,27.8c2.4,9.2,6.3,17.4,11.8,24.6c5.5,7.2,12.5,13,21.2,17.6
		c8.6,4.5,18.9,6.8,30.7,6.8c9.8,0,18.7-1.8,26.6-5.5c8-3.6,14.8-9.1,20.5-16.4c1.1-1.6,1-3.1-0.5-4.4c-1.5-1.4-2.8-1.2-3.9,0.3
		c-3.9,5.2-8.9,9.7-15.2,13.5c-6.3,3.8-14.2,5.4-23.7,4.9c-8.4-0.2-15.5-2.7-21.3-7.3c-5.8-4.7-10.4-10.5-13.8-17.6
		c-3.4-7-5.6-14.9-6.7-23.5c-1-8.6-1-17.2,0-25.8c1-8.5,3.1-16.5,6.1-23.9c3.1-7.4,7-13.5,11.8-18.3c7.7-7.5,16-11.3,24.9-11.4
		c8.9-0.1,16.5,2.1,22.9,6.7c3.4,2.5,6,5.4,7.8,8.7c1.8,3.3,2.8,6.6,3.1,9.9c0.2,3.3-0.4,6.3-1.9,8.9c-1.5,2.6-3.8,4.6-7,6
		c-3.2,1.4-6.3,1.5-9.4,0.5c-3.1-1-5.1-2.9-6-5.6c-0.5-1.1-0.3-2.4,0.3-3.9C667.8,341.1,669.4,339.8,671.9,338.6z"/>
	<path d="M545.3,281c9.1,5.7,21.1,8.6,36,8.7c14.9,0.1,32.7-3,53.4-9.4c20.7-6.4,44.7-17.5,72-33.4c4.3,7.1,10.2,13.2,17.7,18.4
		c7.5,5.2,15.8,9.4,24.9,12.5c9.1,3.1,18.7,5.1,28.7,6.1c10,1,19.6,0.8,28.8-0.7c9.2-1.5,17.6-4.2,25.2-8.2
		c7.6-4,13.7-9.4,18.3-16.2c4.3-6.6,6.5-13,6.5-19.1s-1.5-11.7-4.6-16.7c-3.1-5-7.4-9.3-13-12.8c-5.6-3.5-11.8-6-18.6-7.3
		c-8.9-1.8-18.2-2.3-28-1.4c-9.8,0.9-19.6,2.7-29.3,5.3c-9.8,2.6-19.4,5.9-28.8,9.7c-9.4,3.9-18.3,7.8-26.4,11.9
		c-0.2-5.7,0.5-10.8,2.2-15.4c1.7-4.5,4.1-8.6,7.3-12.3c7.5-8.9,17.1-15.5,28.7-20c11.6-4.4,23.8-6.9,36.7-7.5
		c12.8-0.6,25.5,0.5,38,3.2c12.5,2.7,23.4,6.7,32.8,11.9c12.3,6.8,23.3,15.6,32.9,26.3c9.7,10.7,17.7,22.5,24.2,35.3
		c6.5,12.9,11.3,26.4,14.5,40.6c3.2,14.2,4.5,28.4,4.1,42.5c-0.7,18-4.1,34.5-10.2,49.6c-6.1,15.1-14.3,28.1-24.6,39.1
		c-10.2,10.9-22.1,19.5-35.7,25.8c-13.5,6.3-27.9,9.4-43.2,9.4c-17.5,0-31.9-4.8-43.2-14.5c-11.3-9.7-19.3-21.7-24.1-36
		c5.5,5.2,12.5,6.8,21.2,4.8c1.4-0.2,2.5-0.9,3.4-1.9c0.9-1,1.4-2.1,1.5-3.2c0.1-1.1-0.2-2.2-1-3.1c-0.8-0.9-2.2-1.4-4.3-1.4
		c-1.8,0-3.2,0.5-4.3,1.5c-1,1-2.7,1.7-4.9,1.9c-3,0-5.5-0.9-7.5-2.6c-2-1.7-3.5-3.8-4.3-6.3c-0.8-2.5-0.9-5.1-0.2-7.8
		c0.7-2.7,2.4-5,5.1-6.8c3-2,6.7-2.9,11.1-2.6c4.4,0.3,9.2,0.8,14.3,1.4c5.1,0.6,10.5,0.9,16,0.9c5.6,0,11-1.4,16.2-4.1
		c6.1-3.2,11.1-7.7,14.8-13.6c3.8-5.9,5.4-12.8,4.9-20.8c-0.2-5.9-1.6-11.3-4.1-16c-2.5-4.8-5.8-8.8-9.9-12.1
		c-4.1-3.3-8.8-5.9-14.2-7.7c-5.3-1.8-10.7-2.7-16.2-2.7c-8.4,0-16.3,1-23.7,3.1c-7.4,2-14.7,6.4-22,13c-5.7,5.2-10.4,11.1-14,17.7
		c-3.6,6.6-6.3,13.5-8,20.8c-1.7,7.3-2.4,14.7-2,22.2c0.3,7.5,1.6,14.7,3.9,21.5c3,9.1,7.7,17.4,14.2,24.9
		c6.5,7.5,13.9,13.9,22.3,19.1c8.4,5.2,17.5,9.3,27.3,12.1c9.8,2.8,19.7,4.3,29.7,4.3c17.3-0.2,33-3.5,47.1-9.7
		c14.1-6.3,26.4-14.7,37-25.4c10.6-10.7,19.3-23,26.1-37c6.8-14,11.7-28.8,14.5-44.4c2.8-15.6,3.6-31.4,2.4-47.6
		c-1.3-16.1-4.7-31.7-10.4-46.7c-5.7-15-13.6-28.9-23.9-41.6c-10.2-12.7-23-23.5-38.2-32.4c-16.8-9.8-34.9-16-54.1-18.8
		c-19.2-2.7-38-1.2-56.5,4.4c-8,2.5-15.6,5.7-22.9,9.6c-7.3,3.9-13.6,8.5-19.1,14c-5.5,5.5-9.6,11.8-12.5,19.1
		c-2.8,7.3-3.7,15.6-2.6,24.9c-8.9,4.6-19.3,10-31.4,16.4c-12.1,6.4-24.6,12.1-37.7,17.2c-13.1,5.1-26.2,9-39.2,11.8
		c-13.1,2.7-25.1,2.8-36,0.3c-8-1.6-14.5-4.9-19.6-10.1c-5.1-5.1-8.6-10.9-10.6-17.4c-1.9-6.5-2.1-13.2-0.5-20.1
		c1.6-6.9,5.1-13.1,10.6-18.6c5.7-5.5,12.7-9,21.2-10.7c8.4-1.7,16.5-1.6,24.2,0.2c7.7,1.8,14.4,5.3,20,10.4
		c5.6,5.1,8.4,11.8,8.4,20c2.7-0.2,4.7-1.9,6-5.1c1.3-3.2,1.7-6.8,1.2-10.9c-0.5-6.6-2.5-12.3-6.1-17.1c-3.6-4.8-8.1-8.6-13.5-11.4
		c-5.3-2.8-11.3-4.7-17.7-5.6c-6.5-0.9-12.9-0.6-19.3,1c-6.4,1.6-12.5,4.4-18.3,8.4c-5.8,4-10.5,9.3-14.2,15.9
		c-4.8,8.4-7.5,17.5-8.2,27.3c-0.7,9.8,1,18.8,5.1,27.1C529.6,268.3,536.2,275.3,545.3,281z M719.5,239.5c4.2-2.2,9.3-4.7,15.4-7.5
		c6-2.8,12.7-5.8,20-8.9c7.3-3.1,14.7-5.9,22.4-8.4c7.6-2.5,15.1-4.4,22.3-5.8c7.3-1.4,13.9-1.8,19.8-1.4c5.9,0.5,11.5,2.2,16.9,5.3
		c5.3,3.1,9.6,6.9,12.6,11.6c3.1,4.7,4.5,9.8,4.4,15.5c-0.1,5.7-2.6,11.4-7.3,17.1c-4.6,5.5-10.6,9.8-18.1,13.1
		c-7.5,3.3-15.7,5.5-24.6,6.7c-8.9,1.1-18,1.3-27.5,0.5c-9.4-0.8-18.4-2.6-27-5.3c-8.5-2.7-16.1-6.5-22.7-11.3
		c-6.6-4.8-11.5-10.6-14.7-17.4C712.6,243,715.3,241.7,719.5,239.5z M745.1,361.3c1-7.6,2.9-14.7,5.6-21.3
		c2.7-6.6,6.2-12.5,10.4-17.6c4.2-5.1,9.2-8.8,14.8-11.1c3.9-1.6,7.7-2.4,11.4-2.4s7.2,0.9,10.2,2.6c3.1,1.7,5.6,4.4,7.5,8.2
		c1.9,3.8,2.9,8.5,2.9,14.2c0,3.4-0.3,7-1,10.7s-1.8,7.3-3.4,10.6c-1.6,3.3-3.7,6.3-6.3,8.9c-2.6,2.6-5.9,4.4-9.7,5.3
		c-4.1,1.1-8.3,1.5-12.6,1c-4.3-0.5-8.8-0.1-13.3,1c-9.1,2-14.9,6.1-17.4,12.3C743.8,376.4,744,369,745.1,361.3z"/>
	<path d="M484.2,501.7c-4.8-5.9-10.7-10.9-17.7-14.9c-15.4-9.4-31.5-10.8-48.4-4.2c-6.2,2.4-11.8,5.6-16.8,9.5
		c-5,3.9-9.5,8.5-13.5,13.7c-7.6,9.6-13.5,19.8-17.6,30.5c-4.1,10.7-7,22.1-8.6,34.1c-0.4,2-0.8,3.2-1.1,3.5
		c-0.3,0.3-1.4,0.3-3.2-0.2c-3.2-0.6-5.2,0.1-6,2.1c-1,2-0.5,3.9,1.5,5.7c2.8,2.2,4.7,4.7,5.6,7.5c0.9,2.8,1.5,5.8,1.7,9
		c0.4,6.8,1.2,13.5,2.6,20.1c1.3,6.6,3.2,13.1,5.6,19.5c2.8,7.6,6.3,14.7,10.4,21.2c4.1,6.5,9.1,12.5,14.9,17.9
		c9.6,8.8,20.6,13.8,32.9,14.9c12.3,1.1,24-1.9,35-8.9c5.8-3.8,11-8.2,15.6-13.1c4.6-4.9,8.7-10.3,12.3-16.1
		c6.8-11.2,11.7-22.8,14.6-34.7c2.9-11.9,4.5-23.9,4.7-35.9c0-11.2-1-21.8-3-31.7c-2-9.9-5.3-19.6-9.9-29l0.9-1.2
		C493.1,514.1,489,507.6,484.2,501.7z M398.5,564.6c-0.7,6-1,12-0.8,18l-0.3,0.3v2.7c0,1.6-0.8,2.1-2.4,1.5
		c-3.6-1.6-7.2-2.4-10.8-2.3c-3.6,0.1-7.2,0.9-10.8,2.3c-1.4,0.4-2.3,0.3-2.6-0.3c-0.3-0.6-0.4-1.4-0.4-2.4c0-3.4,0.2-6.7,0.6-9.9
		c0.4-3.2,0.9-6.5,1.5-9.9c1.6-8.6,3.9-16.9,6.8-24.9c2.9-8,7-15.6,12.2-22.8c4.2-5.8,9-10.9,14.4-15.3c5.4-4.4,11.7-7.7,18.9-9.9
		c0.4-0.2,1-0.3,1.8-0.3l0.9,0.9c-1,1.2-2.1,2.4-3.2,3.6c-1.1,1.2-2.2,2.5-3.2,3.9c-5.2,7-9.3,14.5-12.2,22.5
		c-2.9,8-5.4,16.2-7.4,24.6C400.2,552.7,399.2,558.6,398.5,564.6z M497.7,561.3c3.6,25.4,0.7,49.7-8.7,72.7l-0.9-0.3
		c-4.8,11.8-11.7,22.4-20.7,31.8c-3.8,4-7.9,6.3-12.2,6.8c-4.3,0.5-8.8,0-13.4-1.7c-4.6-1.6-8.7-4-12.2-7.2
		c-3.5-3.2-6.6-6.9-9.2-11.1c-3-5-5.4-10.2-7.1-15.5c-1.7-5.3-3-10.9-3.8-16.7c-0.6-4.6-0.9-9.4-0.9-14.4c0-5,0-10.9,0-17.7
		c-0.4-8.6,0.2-17.9,1.8-27.8c1.6-9.9,4.2-19.9,7.8-29.9c1.8-5.2,3.9-10.2,6.3-14.9c2.4-4.7,5.3-9.2,8.7-13.4
		c1.6-2.2,3.4-4.1,5.4-5.6c2-1.5,4.4-2.7,7.2-3.8c2.6-0.8,5.2-0.8,7.8,0c6.4,2.6,11.9,6.1,16.5,10.4c4.6,4.3,8.7,9.3,12.3,14.9
		c4.2,6.6,7.5,13.6,9.9,20.9C495,546.3,496.7,553.7,497.7,561.3z"/>
	<path d="M389.1,566.4c-1.5-1.2-3.1-1.8-4.7-1.8v0.6c-4,0-6,1.5-6,4.5c0,1.6,0.7,3.1,2.1,4.4c1.4,1.3,3,2,4.8,2c1.6,0,3-0.5,4.4-1.7
		c1.3-1.1,2-2.4,2-3.8C391.5,569,390.6,567.6,389.1,566.4z"/>
	<path d="M666.8,556.5c-2.8-0.4-4.7,0.8-5.7,3.6c-1.6,4-0.6,7.2,3,9.6c2.2,1.4,4.2,1.6,6,0.6c2.2-1.2,3.3-3,3.3-5.4
		c0-1.8-0.7-3.6-2.1-5.3C669.9,558,668.4,556.9,666.8,556.5z"/>
	<path d="M562.3,556.8l-0.9-0.3c-1.2-0.4-2.4-0.2-3.6,0.6c-1.2,0.8-2,1.9-2.4,3.3c-0.6,1.8-0.6,3.6,0.2,5.4c0.7,1.8,1.8,3.2,3.5,4.2
		c2.2,1.4,4.3,1.5,6.3,0.3c2-1.4,3-3.2,3-5.4c0-1.6-0.6-3.3-1.8-5C565.3,558.3,563.9,557.2,562.3,556.8z"/>
	<path d="M687.6,644.2c0.5-9.8,0.9-19.6,1.2-29.3c0.3-9.7,0.7-19.5,1.2-29.3c0.2-7.8,0.3-15.6,0.3-23.4c0-7.8,0.2-15.6,0.6-23.4
		c0.4-7.6,0.6-15.1,0.5-22.5c-0.1-7.4,0-14.9,0.5-22.5c0.2-2.8,0.5-4.5,1.1-5c0.5-0.5,2.1-0.9,5-1.4c0.8,0,1.4-0.1,1.8-0.3
		c2.4-0.6,3.7-2,3.9-4.2c0.2-2.2-0.8-4-3-5.4l-2.1,1.2c-1.6-1-3.7-1.3-6.3-0.9c-1.8,0.4-3.6,0.8-5.4,1.2c-1.8,0.4-3.5,1-5.1,1.8
		c-4.6,2.2-9.4,3.3-14.2,3.2c-4.8-0.1-9.7-0.9-14.5-2.6c-1.6-0.4-3.3-0.8-5-1.2c-1.7-0.4-3.4-0.8-5-1.2c-2.4-0.4-4.5-0.2-6.3,0.6
		c-1.6,1-2.4,2.3-2.4,3.9c0,2.2,1,3.6,3,4.2c1.2,0.4,2.1,0.6,2.7,0.6c2.4,0,3.6,1.4,3.6,4.2v4.5c0.2,12,0.1,24-0.3,36
		c-0.4,12-0.7,24-0.9,36c0,1,0.1,2.1,0.3,3.2c0.2,1.1-0.1,2.1-0.9,2.9c-0.8,0.8-1.6,0.9-2.4,0.3c-0.8-0.6-1.7-1-2.7-1.2
		c-2.6-0.4-4.4,0.5-5.4,2.7c-1,2.2-0.4,4.1,1.8,5.7c0.4,0.4,0.8,0.7,1.2,0.9c2.2,1,4,2.9,5.4,5.7c1,2.2,1.8,4.5,2.3,6.8
		c0.5,2.3,0.5,4.7,0.2,7.1c-0.2,1.2-0.3,2.4-0.3,3.6s0,2.4,0,3.6c-0.2,9-0.3,18-0.2,27c0.1,9-0.2,18-0.8,27c0,0.8,0.1,1.7,0.3,2.6
		c0.2,0.9-0.2,1.6-1.2,2c-1,0.4-1.8,0.2-2.4-0.8c-0.6-0.9-1.2-1.7-1.8-2.3l-2.7-3.6c-2.2-3.4-4-7-5.4-10.8
		c-1.4-3.8-2.6-7.7-3.6-11.7c-3.4-13.2-6.1-26.4-8-39.6c-1.9-13.2-3.9-26.4-5.9-39.6c-1.6-10.4-3.1-20.8-4.4-31.1
		c-1.3-10.3-3.1-20.6-5.3-30.8c-0.4-2.4-0.8-4.9-1.2-7.4c-0.4-2.5-1-5-1.8-7.4c-0.8-2.4-1.8-4.1-3-5c-1.2-0.9-3.1-1.2-5.7-1.1
		c-4.6,0.4-8.7,1.4-12.3,3c-4.6,2-9.2,3-13.7,2.9c-4.5-0.1-9.1-0.9-13.7-2.3c-1.6-0.4-3.3-0.8-5-1.2c-1.7-0.4-3.4-0.8-5-1.2
		c-2.2-0.6-4.3-0.6-6.3,0c-2.8,0.6-4.2,2.1-4.2,4.5c0.2,2.2,1.5,3.6,3.9,4.2h1.8c1.8,0.4,2.9,0.9,3.3,1.4c0.4,0.5,0.7,1.7,0.9,3.5
		v3.6c0.2,12.4,0.1,24.7-0.3,36.9c-0.4,12.2-0.6,24.5-0.6,36.9c0,0.8,0,1.6,0,2.3c0,0.7-0.2,1.4-0.6,2c-0.4,0.4-1,0.4-1.8,0
		l-2.7-0.9c-3.2-1-5.3-0.2-6.3,2.4c-1,2.6-0.2,4.6,2.4,6c2,1,3.5,2.3,4.4,3.8c0.9,1.5,1.8,3.2,2.6,5c1,2.6,1.4,5.2,1.4,7.7
		c-0.1,2.5-0.2,5.1-0.2,7.7c-0.2,10.2-0.3,20.4-0.3,30.5c0,10.1-0.2,20.3-0.6,30.5c-0.2,2.4-0.4,4.6-0.7,6.5
		c-0.3,1.9-2.2,3.1-5.6,3.5c-2,0.4-3,1.8-3,4.2c0.2,2.4,1.5,3.9,3.9,4.5c1.8,0.2,3.9,0,6.3-0.6l6.3-1.8c4.6-1.6,9.1-2.5,13.5-2.7
		c4.4-0.2,8.9,0.5,13.5,2.1c2,0.6,4,1.1,5.9,1.4c1.9,0.3,3.9,0.7,5.9,1.1c2.6,0.4,4.9,0,6.9-1.2c1.8-1,2.6-2.5,2.4-4.5
		c-0.4-2.2-1.5-3.6-3.3-4.2c-0.6-0.2-1.5-0.3-2.7-0.3c-2.4-0.4-3.8-0.8-4.2-1.2c-0.4-0.4-0.6-1.8-0.6-4.2c0-7.6,0.2-15.3,0.6-23
		c0.4-7.7,0.8-15.4,1.2-23c0.8-12.6,1.2-25.2,1.2-37.8c0.2-12.6,0.6-25.2,1.2-37.8c0.6-12.6,0.7-25.2,0.3-37.8
		c0-3.8,0.4-7.1,1.3-9.9c1.2,4.8,2.2,9.6,3,14.4c0.8,4.8,1.5,9.6,2.1,14.4c0.8,6,1.5,12.1,1.9,18.2c0.5,6.1,1.2,12.2,2.3,18.2
		c1.6,9.4,3.3,18.7,5.1,27.9c1.8,9.2,3.8,18.4,6,27.6c2,8.4,4.2,16.7,6.6,24.9c2.4,8.2,5.3,16.3,8.7,24.3c1.4,3.2,3.4,6.3,6,9.3
		c2.4,2.8,5.1,4.7,8,5.7c2.9,1,6.1,0.8,9.8-0.6c0.8-0.4,1.5-0.6,2.2-0.8c0.7-0.1,1.5-0.3,2.3-0.8c4.2-1.4,8.4-2.2,12.6-2.4
		c4.2-0.2,8.4,0.4,12.6,1.8c3.8,1.2,7.9,2.1,12.3,2.7c2.8,0.4,5.1,0.2,6.9-0.6c2.2-1,3.1-2.6,2.7-4.8c-0.4-2.2-1.6-3.6-3.6-4.2
		c-0.6-0.2-1.5-0.3-2.7-0.3c-1.8-0.4-2.9-0.8-3.3-1.2c-0.4-0.4-0.6-1.5-0.6-3.3c0-4.4,0-8.8,0.2-13.1
		C687.2,653,687.4,648.6,687.6,644.2z M574.9,518.5c-0.2,8.1-0.5,16.4-0.9,24.8l-0.3,1.5c-0.4,5.8-0.6,11.7-0.6,17.6
		c0,5.9-0.1,11.8-0.3,17.6v4.5c0,2-0.8,2.5-2.4,1.5c-6-3.2-12.3-3.2-18.9,0c-1.8,0.8-2.7,0-2.7-2.4V564c0.4-10.8,0.6-22,0.7-33.5
		c0.1-11.5,0.2-23.2,0.2-35v-2.7c0-1.8,0.9-2.6,2.7-2.4h1.8c2.8,0.4,5.7,0.7,8.6,0.9c2.9,0.2,5.9,0,8.9-0.6c1.6-0.4,2.6-0.4,3,0
		c0.4,0.4,0.6,1.4,0.6,3C575.2,502.1,575.1,510.4,574.9,518.5z M681,517c-0.2,8.1-0.5,16.4-0.9,24.8l-0.3,1.5
		c-0.4,5.8-0.6,11.7-0.6,17.6c0,5.9-0.1,11.8-0.3,17.6v4.5c0,2-0.8,2.5-2.4,1.5c-6.1-3.2-12.5-3.2-19.2,0c-1.8,0.8-2.7,0-2.7-2.4
		v-19.5c0.4-10.8,0.6-22,0.8-33.5c0.1-11.5,0.1-23.2,0.1-35v-2.7c0-1.8,0.9-2.6,2.7-2.4h1.8c2.8,0.4,5.7,0.7,8.7,0.9
		c2.9,0.2,5.9,0,9-0.6c1.6-0.4,2.6-0.4,3,0c0.4,0.4,0.6,1.4,0.6,3C681.3,500.6,681.2,508.9,681,517z"/>
	<path d="M961.3,600.2c-53.9-13.7-118.2-13.9-173.6-14.3c-7.2,0-9,11.2-1.7,12.8c54.1,11.9,120.7,20.5,175.4,9.4
		C965.4,607.3,965.1,601.1,961.3,600.2z"/>
	<path d="M752.9,617.5c-3.1-0.4-4,4.3-1.5,5.7c36.7,20.2,87.7,44,130.5,40.7c1.1-0.1,2.1-1.6,1-2.5
		C849.7,633.3,795,622.9,752.9,617.5z"/>
	<path d="M822.8,556.1c13.9-2.6,32.3-3.7,36.3-19.7c0.4-1.7-1.4-3.1-2.9-2.3c-7.5,4.1-19.9,1.9-28.2,2.7c-7.3,0.7-14.6,1.8-21.8,2.9
		c-19.4,3-38.2,6.7-57.1,11.7c-7.2,1.9-6,13.7,1.8,13.3C775.1,563.5,798.9,560.5,822.8,556.1z"/>
	<path d="M906.8,520.6c-3.2,1.5-6.4,1.6-9.8,2.4c-3.2,0.7-6.2,2-9.4,2.6c-3.4,0.6-3.6,5.5-0.9,7.1c4.2,2.4,8.9,4.2,13.8,3.1
		c4.6-1.1,8.9-4.1,12.3-7.3C917.2,524.3,911.6,518.4,906.8,520.6z"/>
	<path d="M750.9,527.7c12.5-7.5,24.8-15.3,36.9-23.5c8.8-5.9,19.1-11,22.8-21.5c0.5-1.3-0.7-2.4-1.9-2.5
		c-11.5-0.9-20.9,7.3-30.1,13.1c-11.7,7.3-23.1,15-34.4,23C737.3,521,743.5,532.2,750.9,527.7z"/>
	<path d="M737,663.9c6.9,4.2,14,8,21.3,11.5c5.1,2.4,10.6,5.3,16.1,2.8c0.4-0.2,0.8-0.8,0.7-1.3c-0.6-5.9-5.8-9.4-10.4-12.5
		c-6.7-4.6-13.6-8.8-20.6-12.7C736.1,647.3,729.2,659.2,737,663.9z"/>
	<path d="M1019.1,605.2c-0.5-0.6-1.1-1.1-1.8-1.6c0.1-0.1,0.2-0.3,0.1-0.6c-0.8-1.3-2.3-1.7-3.7-1.4c-5.6-2.2-12.9-1.7-17.4,1.4
		c-4,2.8-4.2,10.3,1.5,11.4c3.3,0.7,6.2,0.6,9.5,0.6c3.2,0,6,0.5,9.3-0.3C1021,613.7,1021.8,608.3,1019.1,605.2z"/>
	<path d="M294.1,594.9c7.3-1.6,5.6-12.8-1.6-12.8c-55.4,0-119.7-0.2-173.7,13.1c-3.8,0.9-4.1,7.1-0.1,8
		C173.3,614.6,239.9,606.5,294.1,594.9z"/>
	<path d="M327,614c-42.1,5.1-96.9,15.1-130.3,43.1c-1.1,0.9-0.1,2.4,1,2.5c42.8,3.5,93.9-19.9,130.8-39.8
		C331,618.3,330.1,613.6,327,614z"/>
	<path d="M224.3,529.8c-1.5-0.8-3.4,0.5-2.9,2.2c3.9,16.1,22.3,17.3,36.2,20c23.8,4.6,47.6,7.8,71.8,9.2c7.8,0.5,9.1-11.3,1.9-13.3
		c-18.9-5.2-37.7-9-57-12.1c-7.2-1.2-14.5-2.3-21.8-3.1C244.2,531.9,231.8,533.9,224.3,529.8z"/>
	<path d="M183.6,518.5c-3.4-0.7-6.6-0.9-9.8-2.4c-4.8-2.3-10.3,3.6-6,7.7c3.4,3.2,7.6,6.2,12.3,7.4c4.9,1.2,9.6-0.6,13.8-3
		c2.7-1.5,2.5-6.5-0.9-7.1C189.7,520.5,186.8,519.2,183.6,518.5z"/>
	<path d="M272.1,476.2c-1.2,0.1-2.4,1.2-1.9,2.5c3.6,10.5,13.9,15.7,22.7,21.7c12.1,8.3,24.3,16.1,36.8,23.8
		c7.4,4.5,13.7-6.6,6.8-11.4c-11.3-8-22.6-15.8-34.3-23.2C292.9,483.7,283.6,475.4,272.1,476.2z"/>
	<path d="M304.4,673.3c0,0.5,0.3,1.1,0.7,1.3c5.5,2.5,11-0.3,16.1-2.7c7.3-3.5,14.4-7.3,21.4-11.4c7.8-4.6,0.9-16.6-7-12.2
		c-7.1,3.9-14,8-20.7,12.6C310.3,664,305,667.3,304.4,673.3z"/>
	<path d="M83.7,597.9c-4.5-3.2-11.7-3.7-17.4-1.6c-1.4-0.3-2.9,0.1-3.7,1.4c-0.2,0.2-0.1,0.4,0.1,0.6c-0.6,0.5-1.3,1-1.8,1.6
		c-2.8,3.1-1.9,8.4,2.5,9.6c3.2,0.8,6,0.3,9.3,0.4c3.3,0.1,6.2,0.1,9.5-0.5C87.9,608.2,87.8,600.7,83.7,597.9z"/>
	<path d="M411.1,215c-3.1,6.9-5.8,13.1-8.6,19.2c0.4,0.3,0.8,0.6,1.2,0.9c6.2-3.2,10.6-9.1,16.8-12.8c0.7,1.8,1.5,3.3,2,4.9
		c4.3,13.8,8.5,27.6,12.8,41.5c3.3,10.6,6.6,21.2,10,31.7c0.3,1,1.2,1.9,1.8,2.9c0.4-0.1,0.9-0.3,1.3-0.4c0.1-9.4-2.1-18.7-3-28.1
		c-0.9-9.3-2.3-18.7-3.4-28c-1.2-9.4-2.4-18.9-3.7-29c8.4,2.4,16,4.5,23.7,6.7c0.3-0.4,0.5-0.9,0.8-1.3c-5.1-5.7-12.3-9.1-17.9-15.3
		c18.2-6.4,35.8-12.6,53.4-18.7c-0.1-0.5-0.2-1-0.3-1.5c-18.1,1.8-36.3,3.6-55.4,5.4c2.5-4.9,4.6-8.9,6.5-12.9
		c1.8-3.9,4.7-7.4,4.9-12.2c-7.8,6.1-14.3,13.5-21.8,20.3c-0.9-2-1.7-3.4-2.2-4.9c-2.3-6.5-4.6-13.1-6.9-19.7
		c-3.3-9.4-6.6-18.8-10-28.2c-0.6-1.6-0.8-3.6-3.7-4.7c1,20.7,3.9,40.6,4.9,61.2c-4.1-1.4-7.3-2.5-10.4-3.6
		c-3.2-1.1-6.3-2.4-9.6-3.3c-3-0.8-5.8-3.1-10.4-2.1c7.8,6.1,14.8,11.6,22.7,17.8c-9.6,3.3-18.2,6.1-26.8,9.2
		c-8.4,3-17.1,5.2-25.2,9c0.1,0.4,0.2,0.9,0.3,1.3C373.3,218.7,391.7,216.9,411.1,215z"/>
	<path d="M276.8,185.5c11.5,0,11.5-17.9,0-17.9C265.3,167.6,265.3,185.5,276.8,185.5z"/>
	<path d="M357.7,271.4c9.4,0,9.4-14.5,0-14.5C348.3,256.9,348.3,271.4,357.7,271.4z"/>
	<path d="M465.3,83.9c9.4,0,9.4-14.5,0-14.5C455.9,69.3,455.9,83.9,465.3,83.9z"/>
	<path d="M500.2,269.9c9.4,0,9.4-14.5,0-14.5C490.8,255.4,490.8,269.9,500.2,269.9z"/>
	<path d="M596.3,121.7c13.5,0,13.5-20.9,0-20.9C582.9,100.8,582.8,121.7,596.3,121.7z"/>
	<path d="M687.7,147.8c9.4,0,9.4-14.5,0-14.5C678.3,133.3,678.3,147.8,687.7,147.8z"/>
	<path d="M974.1,355.7c-9.4,0-9.4,14.5,0,14.5C983.4,370.2,983.4,355.7,974.1,355.7z"/>
	<path d="M997.3,470.8c-14.6,0-14.7,22.7,0,22.7C1011.9,493.5,1012,470.8,997.3,470.8z"/>
	<path d="M964.3,674.5c-14.1,0-14.1,21.9,0,21.9C978.4,696.4,978.4,674.5,964.3,674.5z"/>
	<path d="M923.2,780.2c-9.4,0-9.4,14.5,0,14.5C932.5,794.7,932.5,780.2,923.2,780.2z"/>
	<path d="M126.6,339.7c9.4,0,9.4-14.5,0-14.5C117.2,325.2,117.2,339.7,126.6,339.7z"/>
	<path d="M96,482.9c-14,0-14.1,21.8,0,21.8C110.1,504.7,110.1,482.9,96,482.9z"/>
	<path d="M286.5,412.4c-9.4,0-9.4,14.5,0,14.5C295.8,426.9,295.8,412.4,286.5,412.4z"/>
	<path d="M194.9,694.4c-9.4,0-9.4,14.5,0,14.5C204.2,708.9,204.3,694.4,194.9,694.4z"/>
	<path d="M91.7,674.1c-9.4,0-9.4,14.5,0,14.5C101,688.6,101,674.1,91.7,674.1z"/>
	<path d="M178.9,822.3c-9.4,0-9.4,14.5,0,14.5C188.3,836.9,188.3,822.3,178.9,822.3z"/>
	<path d="M450.7,984.8c-13.5,0-13.6,21,0,21C464.3,1005.8,464.3,984.8,450.7,984.8z"/>
	<path d="M276.3,934.3c-9.4,0-9.4,14.5,0,14.5C285.6,948.8,285.7,934.3,276.3,934.3z"/>
	<path d="M753.1,950.3c-9.4,0-9.4,14.5,0,14.5C762.5,964.8,762.5,950.3,753.1,950.3z"/>
</g>
</svg>
