<?xml version="1.0" encoding="utf-8"?>
<!-- Generator: Adobe Illustrator 22.0.0, SVG Export Plug-In . SVG Version: 6.00 Build 0)  -->
<svg version="1.1" id="Layer_1" xmlns="http://www.w3.org/2000/svg" xmlns:xlink="http://www.w3.org/1999/xlink" x="0px" y="0px"
	 viewBox="0 0 1080 1080" style="enable-background:new 0 0 1080 1080;" xml:space="preserve">
<g>
	<path d="M901.6,433.2c-6.7-4.6-14.1-7.9-21.9-10.2c-6.1-1.8-12.3-3.1-18.6-3.5c-9.8-0.5-19.1,1.6-27.9,5.7
		c-15.6,7.4-27.8,18.5-34.8,34.7c-4,9.2-5,18.8-2.6,28.6c0.5,2.1,1.3,4.2,2.3,6.1c1.3,2.5,4.1,3.4,6.5,2.3c2.2-1,2.7-2.8,1.5-5.8
		c-1-2.5-1.8-5.1-2.2-7.9c-1.6-10,1.1-19.1,6.7-27.3c8.4-12.1,20-19.9,33.6-24.8c5-1.8,10.1-2.8,15.5-2.8c9.5,0,18.3,2.5,26.8,6.5
		c1.7,0.8,3.5,1.5,5,2.7c-0.3,0.7-1,0.9-1.5,1.2c-3.2,2.1-6.1,4.5-8.6,7.5c-4.3,5.3-6.7,11.3-6.3,18.2c1,17.4,18.1,28.4,33.9,24.3
		c4.8-1.3,8.1-4.4,10.3-8.8c1.3-2.6,2-5.5,2.2-8.4c0.7-10.6-1.9-20.1-8.6-28.3c-0.4-0.5-0.8-1-1.3-1.6c1.2-0.5,2.1-0.5,3-0.5
		c16.9-0.4,32.5,3.9,46.9,12.8c3.5,2.2,6.7,4.8,9.5,7.8c4.6,4.9,7.9,10.5,9.1,17.3c0.5,2.9,2.5,4.5,5,4.5c2.7-0.1,4.1-1.7,3.8-4.4
		c-0.1-0.7-0.2-1.4-0.4-2.1c-2-9.2-6.7-16.8-13.4-23.2c-8.5-8.1-18.7-13.4-29.7-16.9c-13.6-4.3-27.4-5.8-41.6-3.4
		C902.9,433.8,902.2,433.7,901.6,433.2z M913.2,463.7c1.5,5.8,0.2,11-4.6,14.9c-3.8,3.1-8,3.8-12.6,2c-7-2.8-12.4-11-12-18.3
		c0.2-4.5,2.2-8.3,5.3-11.4c3.1-3.2,6.9-5.2,11.2-6.7C906.2,449.6,911.1,455.7,913.2,463.7z"/>
	<path d="M193.5,686.9c-0.8-0.3-2.2-0.5-4.1-0.7c-1.9-0.2-3.3-0.2-4.2,0c-0.9,0.2-1.8,0.6-2.9,1.3c-1.6,1.2-3,2.6-4.2,4.2
		c-0.7,1.1-1.1,2-1.3,2.9c-0.2,0.9-0.2,2.4,0,4.5c0.2,4.9,2.4,8.8,6.6,11.6c1.8,1.1,3.9,1.4,6.3,1.2c2.5-0.3,4.4-1.1,5.8-2.5
		c3.2-3,4.8-6.5,5-10.5c0.2-4-1.2-7.5-4.2-10.3C195.2,687.8,194.3,687.2,193.5,686.9z"/>
	<path d="M295.7,799.1c2.2-2.7,4.2-5.6,6.1-8.6c1.8-3,3.4-6,4.7-9c1.3-3,2.2-5.6,2.8-7.9c1.1-4.2,0.6-6.3-1.3-6.3
		c-1.1,0-1.8,0.4-2.4,1.2c-0.5,0.8-1.2,2.5-2.1,5.1c-2.3,6.1-5.2,11.9-8.7,17.4c-0.9,1.2-1.9,2.5-3,3.9c-1.1,1.4-2.2,2.7-3.3,3.9
		c-1.1,1.2-2,2.3-2.9,3.2c-0.9,0.9-1.4,1.3-1.6,1.3c-0.4,0-0.9-1-1.6-2.9c-1.4-4.6-3.8-9.2-7.2-14c-3.4-4.7-7.4-9-12-12.9L260,771
		l3.2-3.7c1.9-2.1,4-5,6.1-8.8c2.1-3.8,3.6-7.1,4.5-10.1c0.4-1.4,0.6-3,0.8-4.9c0.2-1.8,0.3-3.6,0.3-5.4c0-7.5-2.3-12.8-6.8-15.8
		c-2.5-1.4-5.3-2.1-8.4-2c-3.2,0.1-6.2,0.9-9.2,2.5c-4,1.9-7.8,5.2-11.2,9.9c-3.4,4.7-5.7,9.5-7,14.6c-0.5,2.3-0.7,5-0.7,8.2
		c0.1,3.2,0.4,5.8,0.9,7.9c0.5,1.9,1.1,3.6,1.7,5c0.3,0.6,0.6,1.2,1,1.9c-0.2,0.4-0.4,0.8-0.6,1.4c-0.4,1.1-0.8,3.4-1.3,6.7
		c-0.7,5.1-1.7,10.6-3,16.6c-1.3,6-2.8,11.8-4.3,17.5c-1.6,5.7-3.2,11-4.9,15.8c-1.7,4.8-3.2,8.6-4.6,11.5c-1.8,3.5-3.2,6-4.5,7.5
		c-1.2,1.5-2.8,2.7-4.7,3.6l-3.4,1.8l-1.6-2.1c-1.8-1.9-3.3-5.4-4.6-10.4c-1.3-5-2.3-11.2-3-18.6c-0.2-2.3-0.3-6.7-0.3-13.2
		c0-6.5,0.1-13.6,0.3-21.5c0.2-7.8,0.4-15.7,0.7-23.6c0.3-7.9,0.6-14.4,0.9-19.5c0.2-3.5,0.3-6.4,0.4-8.7c0.1-2.3,0-4.1-0.4-5.5
		c-0.4-1.4-0.9-2.5-1.7-3.2c-0.8-0.7-1.8-1.2-3-1.6c-1.9-0.7-4.2-0.7-6.8,0c-1.6,0.4-2.9,0.7-3.8,1.1c-1,0.4-1.7,0.9-2.2,1.7
		c-0.5,0.8-0.9,1.9-1.2,3.3c-0.3,1.4-0.6,3.3-0.9,5.5c-0.7,5.3-1.3,11.7-1.7,19.2c-0.4,7.5-0.7,15.1-0.8,22.8
		c-0.1,7.6,0,14.9,0.1,21.7c0.2,6.8,0.5,12.2,1.1,16.1c2.6,20.7,9.2,33.8,19.7,39.2c2.3,1.1,4.8,1.7,7.5,1.8
		c2.7,0.2,5.1-0.2,7.2-1.1c1.8-0.9,3.7-2.5,5.8-4.7c2.1-2.3,3.9-4.9,5.5-7.9c1.6-3.2,3.5-7.9,5.7-14.3c2.2-6.4,4.2-13.2,6.1-20.4
		c1.8-7.2,3.4-14,4.7-20.5c1.1-5.4,1.7-9.7,1.9-12.8c0.7,0.8,1.5,1.6,2.3,2.5c1.8,1.9,4.2,4.3,7,7.1c3,2.8,5.4,5.2,7.4,7.1
		c1.9,1.9,3.5,3.7,4.6,5.3c1.1,1.6,2.1,3.1,2.9,4.5c0.8,1.4,1.4,3,2,4.7c1.1,3.3,1.4,5.5,1.2,6.5c-0.3,1-1.6,2.3-4.1,4.1
		c-3,1.9-5.9,4.4-8.8,7.5c-2.9,3.1-5,6.1-6.4,9.1c-0.9,1.9-1.5,3.5-1.8,4.7c-0.4,1.2-0.5,3-0.5,5.3c0,2.1,0.1,3.7,0.4,4.7
		c0.3,1.1,0.8,2.3,1.7,3.7c2.1,3.5,4.9,5.8,8.4,6.8c3,0.9,6.2,0.7,9.6-0.7c3.4-1.3,6.6-3.6,9.6-6.7c4-4.2,7-9.3,9-15.3
		c1.9-6,2.7-12.5,2.4-19.5l-0.5-7.4l4-3.7C291.3,804.1,293.5,801.8,295.7,799.1z M255.5,766.8c-0.9,0.2-2.1-0.5-3.7-2.1
		c-0.9-0.9-1.7-1.9-2.5-3.2c-0.8-1.2-1.4-2.4-2-3.4c-0.9-1.8-1.4-3.2-1.6-4.5c-0.2-1.2-0.3-3.3-0.3-6.3c0-3,0.1-5.1,0.3-6.3
		c0.2-1.2,0.6-2.6,1.3-4.2c2.8-5.4,6.4-8.9,10.7-10.3c4.3-1.4,7.6-0.3,9.9,3.4c0.9,1.8,1.4,4.1,1.7,7.1c0.3,3,0,5.8-0.9,8.4
		c-0.9,3-2.2,6.1-3.8,9.5c-1.7,3.3-3.3,6-4.9,7.9C257.8,765.3,256.4,766.7,255.5,766.8z M267.1,822.8c-0.2,1.1-0.4,2.4-0.8,3.8
		c-1.6,9-5,16.7-10.3,23.2c-0.5,0.7-1,1.3-1.4,1.8c-0.4,0.5-0.7,0.8-0.9,0.8c-0.9,0-1.6-0.9-2.2-2.6c-0.6-1.8-0.9-3.7-0.9-5.8
		c0-4.9,2.3-9.9,6.8-15c0.7-0.7,1.6-1.6,2.8-2.6c1.1-1.1,2.2-2,3.3-2.9c1.1-0.9,2-1.6,2.8-2.1c0.8-0.5,1.2-0.7,1.2-0.5
		C267.4,821,267.3,821.6,267.1,822.8z"/>
	<path d="M693.1,710.7c1.8,1.1,3.9,1.4,6.3,1.2c2.5-0.3,4.4-1.1,5.8-2.5c3.2-3,4.8-6.5,5-10.5c0.2-4-1.2-7.5-4.2-10.3
		c-1.1-0.9-2-1.4-2.8-1.7c-0.8-0.3-2.2-0.5-4.1-0.7c-1.9-0.2-3.3-0.2-4.2,0c-0.9,0.2-1.8,0.6-2.9,1.3c-1.6,1.2-3,2.6-4.2,4.2
		c-0.7,1.1-1.1,2-1.3,2.9c-0.2,0.9-0.2,2.4,0,4.5C686.7,704.1,688.9,707.9,693.1,710.7z"/>
	<path d="M898.3,766.6c-0.8,0.7-1.4,2.2-1.7,4.5c-0.2,2.1-0.7,4.7-1.7,7.9c-1,3.2-2.2,6.4-3.7,9.7c-1.5,3.3-3.1,6.6-4.7,9.7
		c-1.7,3.2-3.3,5.9-4.9,8.2l-3.2,4.2l-0.5-14c-0.2-3.5-0.3-7.9-0.3-13.2s0-10.7,0-16.3c0-5.6,0.1-11,0.3-16.1
		c0.2-5.1,0.4-9.2,0.5-12.4c0.2-1.9,0.3-3.8,0.3-5.5c0-1.8-0.1-3.1-0.3-3.9c-0.5-4-2.7-6.1-6.6-6.1c-1.4,0-3.4,0.6-5.9,1.7
		c-2.5,1.1-4.3,2.2-5.1,3c-0.4,0.4-0.6,1.2-0.8,2.5c-0.2,1.3-0.4,2.9-0.8,4.6c-0.4,2.6-0.8,5.8-1.3,9.6c-0.5,3.8-1.1,7.7-1.8,11.7
		c-0.7,4-1.4,7.9-2.1,11.6c-0.7,3.7-1.3,6.7-1.8,9c-1.2,5.1-2.6,9.9-4.1,14.5c-1.5,4.6-3,8.6-4.5,12c-1.5,3.4-2.9,6.1-4.2,8.2
		c-1.3,2-2.4,3-3.3,3c-0.5,0-1.2-0.6-2.1-1.7c-0.9-1.1-1.8-2.6-2.8-4.5c-1-1.8-1.9-3.8-2.9-5.9c-1-2.1-1.7-4.2-2.2-6.3
		c-0.4-1.2-0.6-2.4-0.8-3.6c-0.2-1.1-0.4-2.6-0.5-4.5c-0.2-1.8-0.3-4.3-0.3-7.2c0-3,0-7,0-12.1v-21.9l-1.8-1.6
		c-0.9-0.5-1.6-0.9-2.2-1.1c-0.6-0.2-1.9-0.1-3.8,0.3c-4.9,0.5-7.8,1.8-8.7,3.9c-0.4,0.7-0.7,1.9-0.9,3.7c-0.3,1.8-0.5,3.9-0.8,6.3
		c-0.3,2.5-0.4,5.1-0.5,8c-0.1,2.9-0.1,5.8-0.1,8.6c0,2.6,0.1,4.9,0.2,7.2c-0.7,3.1-1.4,6-2,8.7c-1.4,5.7-2.8,10.6-4.2,14.7
		c-1.4,4.1-2.9,7.5-4.3,10.3c-1.5,2.7-3.1,5-4.9,6.7c-0.9,0.9-1.8,1.8-2.9,2.6c-1.1,0.9-2,1.5-2.9,1.8l-2.6,1.1l-3.7-3.9
		c-4.2-4.7-7.9-11.6-11.1-20.7c-3.2-9-5.6-19.3-7.4-30.9l-0.8-6.3l5.5-2.9c5.3-2.6,9.8-5.9,13.7-9.7c3.9-3.9,7.5-8.7,11.1-14.5
		c3.7-6.3,6.4-12.8,8.3-19.3s2.7-12.8,2.6-18.6c-0.1-5.8-1.1-10.9-3.2-15.4c-2-4.5-5-7.8-8.8-9.9c-3-1.4-6.5-1.8-10.7-1.3
		c-4.1,0.5-7.9,2-11.5,4.5c-2.6,1.8-5.2,4.2-7.6,7.4c-2.5,3.2-4.7,6.8-6.8,10.8c-2.1,4-4,8.4-5.5,13.2c-1.6,4.7-2.8,9.6-3.7,14.5
		c-0.4,1.4-0.6,2.9-0.7,4.3c-0.1,1.5-0.2,3.2-0.4,5.3c-0.2,2-0.3,4.3-0.3,7c0,2.6,0,5.9,0,9.7c0,5.1,0,9.5,0.1,13.3
		c0.1,3.8,0.3,7.2,0.7,10.4c0.2,1.8,0.5,3.5,0.7,5.3c-0.7,4.5-1.6,9.3-2.7,14.5c-1.3,6-2.8,11.8-4.3,17.5c-1.6,5.7-3.2,11-4.9,15.8
		c-1.7,4.8-3.2,8.6-4.6,11.5c-1.8,3.5-3.2,6-4.5,7.5c-1.2,1.5-2.8,2.7-4.7,3.6l-3.4,1.8l-1.6-2.1c-1.8-1.9-3.3-5.4-4.6-10.4
		c-1.3-5-2.3-11.2-3-18.6c-0.2-2.3-0.3-6.7-0.3-13.2c0-6.5,0.1-13.6,0.3-21.5c0.2-7.8,0.4-15.7,0.7-23.6c0.3-7.9,0.6-14.4,0.9-19.5
		c0.2-3.5,0.3-6.4,0.4-8.7c0.1-2.3,0-4.1-0.4-5.5c-0.4-1.4-0.9-2.5-1.7-3.2c-0.8-0.7-1.8-1.2-3-1.6c-1.9-0.7-4.2-0.7-6.8,0
		c-1.6,0.4-2.9,0.7-3.8,1.1c-1,0.4-1.7,0.9-2.2,1.7c-0.5,0.8-0.9,1.9-1.2,3.3c-0.3,1.4-0.6,3.3-0.9,5.5c-0.7,5.3-1.3,11.7-1.7,19.2
		c-0.4,7.5-0.7,15.1-0.8,22.8c0,0.8,0,1.6,0,2.5c-0.2,0.7-0.4,1.4-0.6,2.1c-1.4,4.6-2.9,9.4-4.5,14.6c-1.6,5.2-3.1,10.1-4.5,14.7
		c-1.4,4.7-2.5,7.9-3.2,9.6c-1.9,5.1-3.2,8.3-3.7,9.6s-1,1.7-1.3,1.2c-0.7-2.1-1.3-4.4-1.7-7c-0.4-2.5-0.7-5.7-0.8-9.3
		c-0.1-3.7,0-8,0.3-13c0.3-5,0.7-11.1,1.2-18.3c1.6-24.4,1.6-40.5,0-48.2c-0.9-3.3-2-6.4-3.4-9.1c-1.4-2.7-3-4.7-4.7-5.9
		c-1.9-1.2-4.7-1.9-8.2-2.1c-3.5-0.2-6.8,0.2-9.7,1.1c-6.7,1.9-13,8.6-19.1,20.1c-6.1,11.5-10.9,26.2-14.6,44.1l-2.1,9.7l0.3-9
		c0.4-8.1,0.6-14.3,0.8-18.8c0.2-4.5,0.3-7.8,0.3-10c0-2.2-0.1-3.7-0.4-4.6c-0.3-0.9-0.6-1.8-0.9-2.6c-1.9-4.2-5.7-6.3-11.3-6.3
		c-6.8,0-12.9,4.3-18.2,12.8c-5.3,8.5-9.4,20.8-12.4,36.7l-1.6,9.2l-0.8-5.3c-0.2-1.6-0.3-3.9-0.3-7c0-3.1,0-6.8,0.1-11.1
		c0.1-4.3,0.3-9,0.5-14.1c0.3-5.1,0.6-10.4,0.9-16.1c0.3-5.3,0.6-9.4,0.8-12.5c0.2-3.1,0.2-5.5,0.1-7.4c-0.1-1.8-0.4-3.2-0.8-4.1
		c-0.4-0.9-1-1.7-1.7-2.4c-1.1-1.1-2-1.7-2.8-2c-0.8-0.3-2.2-0.5-4.1-0.7c-1.2,0-2.6,0-4.1,0.1c-1.5,0.1-2.7,0.2-3.6,0.4
		c-0.9,0.4-1.6,0.7-2.1,1.1c-0.5,0.4-1,1.1-1.4,2.2c-0.4,1.1-0.8,2.8-1.1,5c-0.3,2.2-0.6,5.3-0.9,9.3c-0.3,3.5-0.7,8.1-0.9,13.7
		c-0.3,5.6-0.4,11.4-0.4,17.2c0,4.4,0,8.6,0.1,12.7c0,0.1-0.1,0.2-0.1,0.3c-2.8,12.8-5.6,23.9-8.4,33.2c-2.8,9.3-5.4,16.5-7.9,21.6
		l-1.8,3.4l-0.8-2.9c-0.5-2.1-1-4-1.3-5.7c-0.4-1.7-0.6-3.6-0.8-5.9c-0.2-2.3-0.3-5-0.4-8.3c-0.1-3.2-0.1-7.4-0.1-12.5
		c0-5.6,0-11.2,0-16.8c0-5.6,0.1-9.5,0.3-11.6c0.2-3.5,0.2-5.7,0.1-6.7c-0.1-1-0.5-1.8-1.2-2.5c-2.1-2.5-5.7-3.2-10.8-2.1
		c-3.5,0.7-5.9,1.7-7.1,2.9c-1.2,1.2-2.5,3.8-3.7,7.6c-1.4,4.4-3.2,9.3-5.4,14.7c-2.2,5.4-4.3,10.2-6.4,14.2
		c-1.1,1.8-2.2,3.5-3.3,5.3c-1.1,1.8-2.2,3.3-3.3,4.7c-1.1,1.4-2,2.5-2.8,3.3c-0.8,0.8-1.3,1-1.4,0.7c-0.2-0.2-0.4-0.7-0.8-1.6
		c-0.4-0.9-0.7-1.8-1.1-2.9c-1.2-3.7-2.1-8.2-2.6-13.6c-0.5-5.4-0.7-11-0.7-16.8c0.1-5.9,0.5-11.7,1.2-17.5
		c0.7-5.8,1.7-10.9,2.9-15.3c1.6-5.1,3.4-9.4,5.5-12.9c2.1-3.5,4.1-5.3,6.1-5.3c2.1,0,4.4,1.2,6.8,3.6c2.5,2.4,4.6,5.4,6.6,9.1
		c1.2,2.5,2.3,4,3.2,4.7c0.9,0.7,1.8,0.6,2.9-0.3c0.7-0.5,1-1.3,0.8-2.4c-0.2-1.1-0.9-2.8-2.1-5.3c-1.4-3-3.4-5.8-5.9-8.6
		c-2.5-2.7-5.2-4.8-8-6.2c-1.9-0.9-3.5-1.4-4.6-1.6c-1.1-0.2-2.9-0.3-5.4-0.3c-4,0-7.3,0.6-9.7,1.8c-2.5,1.2-5.4,3.7-9,7.4
		c-8.4,9-13.8,21.1-16.1,36.3c-0.6,4.2-0.9,8.3-1,12.4c0,0.1,0,0.2-0.1,0.2c-1.9,6.7-4.2,12.5-6.7,17.4c-2.5,4.9-5.2,8.3-8,10.3
		l-3.2,2.1l-2.1-4.7c-2.5-5.1-5.9-9.3-10.3-12.6c-4.4-3.3-9.2-5.4-14.5-6.3c-1.4-0.3-2.5-0.6-3.4-0.8c-0.9-0.2-1.4-0.3-1.6-0.3
		c-0.4-2.3-0.6-4.2-0.8-5.8c-0.2-1.6-0.4-3.2-0.5-4.9c-0.2-1.7-0.3-3.1-0.3-4.3l-0.3-5.8l3.4-1.1c2.6-0.9,5.4-2.1,8.2-3.7
		c2.8-1.6,5.5-3.3,8.2-5.1c2.6-1.8,5-3.8,7.2-5.8c2.2-2,4-4,5.4-5.9c2.5-3.3,4.6-6.9,6.3-10.8c1.8-3.9,3.1-7.7,4.1-11.6
		c1-3.9,1.5-7.6,1.6-11.3c0.1-3.7-0.3-7-1.2-10c-0.7-2.5-2-4.9-3.9-7.2c-1.9-2.4-4.1-4.3-6.6-5.7c-1.4-0.9-2.7-1.4-3.8-1.6
		c-1.1-0.2-3.4-0.3-6.7-0.3c-3.3,0-5.6,0.1-6.7,0.4c-1.1,0.3-2.9,0.9-5.1,2c-14.9,7.5-24.4,24.5-28.4,50.8
		c-0.5,2.8-0.9,6.3-1.1,10.5c-0.2,4.2-0.3,8.6-0.3,13.3c0,4.7,0.1,9.1,0.3,13.4c0.2,4.3,0.5,7.9,1.1,10.9c1.1,7.4,2.5,14.6,4.3,21.6
		c1.8,7,3.9,13.1,6.2,18.2c2.6,6,5.7,10.9,9.3,14.9c3.6,3.9,7.1,6.5,10.7,7.8c1.9,0.5,4.3,0.7,7,0.4c2.7-0.3,4.8-0.9,6.2-2
		c5.6-3.7,8.7-11.2,9.2-22.6l0.3-8.2l2.9-1.8c1.8-0.9,3.6-2.3,5.4-4.2c1.8-1.9,3.5-4,4.9-6.3c1.1-1.8,2.2-4,3.4-6.8
		c0.4-0.8,0.7-1.7,1-2.5c0.4,2.4,0.9,4.8,1.5,7c1.3,4.9,3,9.2,5.1,12.9c2.1,3.7,4.6,6.4,7.6,8.2c1.9,1.4,4.4,2.2,7.4,2.2
		c3,0.1,5.7-0.5,8.2-1.7c6.7-3.3,13.3-12.3,20-26.9l2.6-5.8v9.5c0,12.1,1.2,22.4,3.7,30.8c2.5,8.4,5.9,14,10.3,16.6
		c3.9,2.5,7.7,2.2,11.6-0.8c4-3,8.2-10.7,12.6-23.2c2.5-7.1,4.9-15.3,7.2-24.5c1,8,2.2,14.6,3.7,19.7c1.7,5.7,3.6,9.1,5.7,10.1
		c0.9,0.5,1.7,0.8,2.4,0.8c0.7,0,2-0.4,3.9-1.3c5.4-1.9,8.4-5.4,9-10.5c3.5-33.2,9.4-54.1,17.6-62.9c1.4-1.4,2.3-2.2,2.6-2.4
		c0.4-0.2,0.7,0,1.1,0.5c0.4,0.4,0.6,2.7,0.7,7c0.1,4.3,0.1,10.1,0.1,17.5c0,6.1,0,11.2,0,15.1c0,3.9,0.1,7.2,0.4,9.7
		c0.3,2.5,0.6,4.6,1.1,6.2c0.4,1.6,1.1,3.2,2,4.7l1.6,3.2l5.3-0.5c1.4-0.2,2.7-0.3,4-0.4c1.2-0.1,2-0.2,2.4-0.4
		c1.4-0.5,2.5-1.9,3.3-4.1c0.8-2.2,1.7-6.1,2.8-11.7c2.1-13,4.5-24,7.1-33.2c2.6-9.1,5.9-17.5,9.7-25c3.3-6.7,6.6-11.5,9.9-14.5
		c3.2-3,6-3.8,8.3-2.4c1.2,0.9,2.2,2.3,2.9,4.2c0.7,1.9,1.2,4.9,1.4,9c0.3,4,0.4,9.3,0.3,15.8c-0.1,6.5-0.4,14.7-0.9,24.7
		c-0.5,10.9-0.8,20-0.8,27.4c0,7.4,0.3,13.5,0.9,18.4c0.6,4.9,1.5,8.9,2.8,11.8c1.2,3,2.9,5.4,5,7.1c3,2.5,6,2.8,9,1.1
		c1.4-0.7,2.8-2,4.2-3.8c1.4-1.8,2.9-4.5,4.5-7.9c1.6-3.4,3.2-7.7,5-12.9c1.8-5.2,3.8-11.5,6.1-18.8c0.3-1,0.5-1.8,0.8-2.7
		c0.2,6.6,0.5,11.9,1,15.6c2.6,20.7,9.2,33.8,19.7,39.2c2.3,1.1,4.8,1.7,7.5,1.8c2.7,0.2,5.1-0.2,7.2-1.1c1.8-0.9,3.7-2.5,5.8-4.7
		c2.1-2.3,3.9-4.9,5.5-7.9c1.6-3.2,3.5-7.9,5.7-14.3c2.2-6.4,4.2-13.2,6.1-20.4c1.3-5.1,2.4-9.9,3.5-14.7
		c2.6,10.1,6.5,18.7,11.7,25.7c5.3,7.2,11,11.7,17.1,13.4c7.5,1.9,14.2-0.3,20-6.6c2.1-2.3,4-4.9,5.5-7.9c1.6-3,3.2-6.6,4.7-10.8
		c1.1-2.8,2.1-6.1,3.2-10c0-0.1,0-0.2,0.1-0.3c1.3,4.5,3.5,9,6.5,13.4c3.5,5.4,7.4,8.9,11.7,10.4c4.3,1.5,8.6,0.9,12.8-1.7
		c6.1-3.9,12.1-16.8,17.9-38.7c0.4-1.2,0.6-2.4,0.8-3.4c0.2-1.1,0.4-2,0.8-2.9c0.3-0.9,0.6-1.8,0.8-2.6c0.2,1.1,0.4,3.4,0.7,7.1
		c0.3,3.7,0.5,7.7,0.8,12c0.3,4.3,0.5,8.5,0.7,12.6c0.2,4.1,0.3,7.2,0.3,9.3v11.3l-5.3,2.1c-1.4,0.7-3.3,1.5-5.5,2.4
		c-2.3,0.9-4.3,1.7-6.1,2.4c-5.8,2.5-10.4,5.1-13.8,8c-3.4,2.9-6.1,6.4-8,10.4c-1.4,2.8-2.1,5.8-2.1,9c0,3.2,0.6,5.9,1.8,8.2
		c0.9,1.8,2.1,3.3,3.7,4.7c1.6,1.4,3.3,2.5,5.3,3.4c2.8,1.4,6.4,1.8,10.8,1.3c4.4-0.5,8.5-1.8,12.4-3.7c2.3-1.1,4.8-2.8,7.5-5.3
		c2.7-2.5,4.8-4.8,6.2-7.1c2.3-3.5,4.3-8.5,5.9-14.9c1.7-6.4,2.9-12.9,3.6-19.6c0.2-1.6,0.3-2.9,0.4-3.8c0.1-1,0.3-1.8,0.5-2.4
		c0.3-0.6,0.6-1.2,1.1-1.8c0.4-0.6,1.1-1.4,2-2.5c4-4.7,7.8-10.6,11.3-17.5c3.5-6.9,6.1-13.8,7.9-20.7c0.9-3.5,1.3-5.9,1.3-7.1
		c0-1.2-0.4-2.3-1.3-3.2C900,766,899.1,765.9,898.3,766.6z M387.4,752.1c0.5-8.2,1.4-15.4,2.5-21.3c1.1-6,2.8-11.8,5.1-17.6
		c2.1-5.6,4.8-10.3,8.2-14.1c3.3-3.8,6.3-5.7,9-5.7c2.8,0,5.5,1.1,8.2,3.3c2.6,2.2,4.4,5,5.3,8.3c0.9,2.5,1.3,4.9,1.2,7.4
		c-0.1,2.5-0.7,5.7-1.7,9.7c-1.8,6.8-4.1,12.5-7,17.1c-2.9,4.6-6.9,8.8-12,12.6c-1.8,1.4-3.7,2.8-5.9,4.2c-2.2,1.4-4,2.5-5.4,3.2
		c-2.1,1.1-3.7,1.8-4.7,2.2c-1.1,0.4-1.8,0.4-2.2,0c-0.4-0.4-0.7-1.4-0.7-2.9C387.2,757,387.2,754.9,387.4,752.1z M417.2,827.9
		c-0.4,3.2-1,6.1-1.8,8.7c-0.4,1.4-0.9,2.8-1.6,4.1c-0.7,1.3-1.2,2.2-1.6,2.8l-1.8,1.8l-1.8-3.2c-0.9-1.2-1.9-3.1-3.2-5.7
		c-1.2-2.5-2.5-5.3-3.8-8.2c-1.3-2.9-2.6-5.8-3.8-8.7c-1.2-2.9-2.1-5.2-2.6-7c-1.2-4-2.3-7.9-3.2-11.6c-0.9-3.7-1.1-5.7-0.8-6.1
		c0.2-0.2,0.8-0.2,2,0c1.1,0.2,2.4,0.5,3.8,0.9c1.4,0.4,2.8,1,4.1,1.6c1.3,0.6,2.4,1.2,3.3,1.7c2.3,1.6,3.3,2.8,3.2,3.7
		c-0.2,0.4-0.3,1.1-0.3,2.4c0,1.2,0,2.5,0,3.7c-0.2,2.3-0.1,3.7,0.1,4.3c0.3,0.6,1.1,1.5,2.5,2.8c0.7,0.7,1.5,1.3,2.5,1.8
		c1,0.5,1.7,0.9,2.2,1.1c1.4,0.2,2.3,0.9,2.6,2.1C417.5,822.5,417.5,824.7,417.2,827.9z M758.1,757.6c-0.2-1.1-0.2-2.9-0.1-5.5
		c0.1-2.6,0.2-5.6,0.3-8.8c0.1-3.2,0.3-6.5,0.5-9.9c0.3-3.3,0.6-6.2,0.9-8.7c0.7-4.6,1.4-8.4,2.1-11.5c0.7-3.1,1.8-6.7,3.2-10.9
		c1.8-5.4,3.9-9.9,6.4-13.4c2.5-3.5,5.1-5.8,7.8-7c2.6-1.1,5.1-1.1,7.5,0.3c2.4,1.3,4.3,4,5.9,8c1.2,3,1.8,7.1,1.8,12.4
		c0,5.3-0.6,10.1-1.8,14.5c-1.1,4.2-2.5,8.3-4.5,12.2c-1.9,3.9-4.1,7.7-6.4,11.2c-2.4,3.5-5,6.7-7.8,9.5c-2.8,2.8-5.6,5-8.4,6.6
		c-3.3,1.9-5.3,2.9-5.9,3C758.9,759.7,758.4,759,758.1,757.6z M861,833.4c0,0.5,0,1.1-0.1,1.8c-0.1,0.7-0.1,1.5-0.1,2.4
		c-2.5,18.6-7.9,29.5-16.3,32.6c-2.1,0.9-3.6,1.3-4.3,1.3c-0.8,0-2.2-0.3-4.1-0.8c-3-0.7-5.4-2.2-7.1-4.3c-1.8-2.2-2.6-4.7-2.6-7.5
		c0-3.2,1.4-6.7,4.2-10.5c2.8-3.9,6.1-6.8,10-8.7c1.1-0.5,2.7-1.3,5-2.2c2.3-1,4.6-1.9,6.8-2.8c2.3-0.9,4.3-1.6,6.1-2.2
		c1.8-0.6,2.7-0.9,2.9-0.9C861.1,832.1,861,832.7,861,833.4z"/>
	<path d="M164.8,285.5c6.2-0.1,12.4-0.2,18.7-0.2c0.8,35.2,0.9,70.6,4,105.7c0.8,8.7,15.4,8.9,15.7-0.1c1.1-35.3-0.7-70.6-1.9-105.8
		c7.7-0.1,15.5-0.2,23.2-0.3c4.1-0.1,6.9-4.9,6.4-8.5c-0.6-4.5-4.4-6.5-8.5-6.4c-19.9,0.2-39.7,0.5-59.6,0.7c-4.1,0-7,4.9-6.5,8.6
		C156.8,283.5,160.6,285.5,164.8,285.5z"/>
	<path d="M239.5,393.1c0.5,4.3,4.4,7.5,8.7,7.4c4-0.1,8.5-3.1,8.6-7.5c0,0,0,0,0,0c1.5-1.2,2.5-3,2.3-5.4
		c-1.7-19.6,4.3-39.5,16.6-54.8c4.7-5.9,14.2-16,22.2-9.6c3.3,2.6,4.3,7,5.1,11c1.2,5.8,1.7,11.7,2.1,17.6
		c0.4,6.3,0.6,12.5,0.5,18.8c-0.1,7.3-0.8,14.7,0.2,21.9c1.2,8.1,13.5,10.2,16.4,2.1c2.6-7.4,2.9-15.7,2.7-23.4
		c-0.2-7.1-0.9-14.2-2.2-21.2c-2.4-13.2-5.3-27-16-36.2c-10.6-9.1-25.1-5.3-34.4,3.7c-7,6.8-12.7,15-17,23.8
		c-0.1-2.2-0.2-4.4-0.4-6.6c-1-19.1-2.1-38.1-3.1-57.2c-0.3-5-5.8-8.5-10.4-7.8c-5.3,0.7-8,5.4-7.8,10.4c0.7,18.9,1.5,37.8,2.2,56.6
		C236.7,355.6,237.1,374.4,239.5,393.1z"/>
	<path d="M343,385c8.7,9.7,22.4,13.5,33.8,6c10.1-6.7,14.4-17.6,18-28.6c2.7-8.3-9.3-13.5-12.7-5.2c-2.6,6.5-5.3,14-11.3,18.2
		c-0.4,0.3-0.6,0.5-0.7,0.5c0.1-0.1,0-0.1-0.9,0.4c0,0-0.9,0.4-0.9,0.4c-0.8,0.3-1.7,0.4-2.6,0.5c-0.1,0-0.6,0-0.8,0.1
		c-0.5-0.1-1.8-0.3-1.7-0.2c-0.5-0.2-1-0.4-1.5-0.6c-0.4-0.1-0.7-0.2-0.8-0.2c-0.1-0.1-0.3-0.2-0.6-0.5c-0.7-0.5-1.4-1-2.1-1.6
		c0.1,0-0.9-1-1-1.1c-0.6-0.7-1.1-1.4-1.6-2.1c-0.4-0.6-1.4-2.6-2-3.8c-1.7-3.9-2.5-6.8-3.3-10.8c-1.1-5-1.8-10.2-2.1-15.3
		c0.8,0.7,1.8,1.1,3,1.4c18.9,3.4,36.8-9.6,40.8-28.1c3.9-17.9-8-42-28.6-41c-10.9,0.5-19,9-23.9,18c-5,9.2-7.5,20.4-8.8,30.8
		c-1.4,10.8-1.1,22,0.6,32.7C333,365.3,335.7,376.9,343,385z M351.4,308.6c1.6-6,3.8-13.3,8.3-17.4c4-3.6,9.1-4.3,13.8-0.6
		c4.6,3.7,6.7,10.4,6.7,16.1c0.1,14.7-12.9,25.9-27.4,23.4c-2-0.3-3.5,0.2-4.7,1.1C348.5,323.7,349.5,316,351.4,308.6z"/>
	<path d="M828.7,282.3c-6.9-5.9-15.6-8.9-24.4-7.9c-0.2-0.3-0.3-0.5-0.5-0.8c-3.1-3.9-9.3-4.8-13.2-1.6
		c-17.1,14.4-23.6,37.2-25.2,58.8c-1.6,20.6-2.2,49.6,17.4,62.6c9,6,20.7,6.7,30.5,2.1c9.3-4.3,16.4-12.3,21.5-21.1
		c10.9-18.5,15-41.4,10.4-62.5C842.6,300.7,837.6,289.9,828.7,282.3z M826,362.6c-5.2,10.6-19.1,27.8-32.6,19.2
		c-5.4-3.4-8-11-9.1-17c-1.7-9.2-1.4-18.6-0.7-27.9c0.7-9.9,2-19.8,5.3-29.1c2.8-7.9,6.8-15,12.2-20c0.8,0,1.5-0.2,2.3-0.4
		c6.3-1.8,12.8,1.2,17.5,5.2c5.6,4.7,9.1,12.1,10.9,19.1C836.4,328.4,833.7,347.2,826,362.6z"/>
	<path d="M855.8,296.1c-1.8,7.2-1.5,14.8-1.4,22.2c0.1,7.5,0.5,15,0.7,22.5c0.6,17.1,1.8,34,4.3,51c1.3,8.8,15.6,9.4,16.2-0.1
		c0.3-6,0.5-12,0.6-18c4.9,0.2,9.9,0.3,14.8,0.3c3.5,0,6.7-1.8,7.2-5.5c0.4-3.3-2.1-7-5.5-7.2c-5.5-0.3-11-0.5-16.5-0.7
		c-0.3-16-1.3-32.1-2.4-48.1c-0.6-8.9-0.5-19.3,5.5-25.7c6.5-7,17-2.7,22.1,3.9c7.9,10.4,5.3,24.7,3.4,36.6
		c-1.3,7.9,10.9,9.4,12.2,1.6c2.3-13.6,4.3-28.6-2.7-41.2c-6.5-11.7-18-17.9-31.3-17.1c-6,0.4-12.2,3.2-16.6,7.2
		C860.7,282.7,857.6,288.9,855.8,296.1z"/>
	<path d="M466.4,201.2c2,1,3.6,1.6,4.8,1.7c1.1,0.1,2.7-0.4,4.8-1.4c6.1-2.7,9.2-7.4,9.2-14.1c0-4.1-1.3-7.6-4-10.4
		c-2.7-2.9-6-4.3-10.1-4.3c-3.9,0-6.7,0.9-8.4,2.6c-1.7,1.7-3.1,5.1-4.1,10c-0.8,3.5-0.5,6.7,0.9,9.5
		C460.8,197.6,463.1,199.8,466.4,201.2z"/>
	<path d="M738.4,285c1-4.1,1.5-6.9,1.5-8.3c0-1.4-0.5-2.7-1.5-3.7c-1.2-1.2-2.3-1.4-3.2-0.6c-0.9,0.8-1.6,2.6-2,5.2
		c-0.2,2.5-0.9,5.5-2,9.2c-1.1,3.7-2.6,7.5-4.3,11.4c-1.7,3.9-3.6,7.7-5.5,11.4c-1.9,3.7-3.8,6.9-5.7,9.5L712,324l-0.6-16.3
		c-0.2-4.1-0.3-9.2-0.3-15.4c0-6.1,0-12.5,0-19c0-6.5,0.1-12.8,0.3-18.7c0.2-5.9,0.4-10.7,0.6-14.4c0.2-2.2,0.3-4.4,0.3-6.4
		c0-2-0.1-3.6-0.3-4.6c-0.6-4.7-3.2-7.1-7.7-7.1c-1.6,0-3.9,0.7-6.9,2c-3,1.3-5,2.5-6,3.5c-0.4,0.4-0.7,1.4-0.9,2.9
		c-0.2,1.5-0.5,3.3-0.9,5.4c-0.4,3.1-0.9,6.8-1.5,11.2c-0.6,4.4-1.3,9-2.2,13.7c-0.8,4.7-1.6,9.2-2.5,13.5
		c-0.8,4.3-1.5,7.8-2.1,10.4c-1.4,5.9-3,11.6-4.8,16.9c-1.7,5.3-3.5,10-5.2,14c-1.7,4-3.4,7.2-4.9,9.5c-1.5,2.4-2.8,3.5-3.8,3.5
		c-0.6,0-1.4-0.7-2.5-2c-1-1.3-2.1-3.1-3.2-5.2c-1.1-2.1-2.3-4.5-3.4-6.9c-1.1-2.5-2-4.9-2.6-7.4c-0.4-1.4-0.7-2.8-0.9-4.1
		c-0.2-1.3-0.4-3.1-0.6-5.2c-0.2-2.1-0.3-5-0.3-8.4c0-3.5,0-8.2,0-14.1v-25.5l-2.1-1.8c-1-0.6-1.9-1-2.6-1.2
		c-0.7-0.2-2.2-0.1-4.5,0.3c-5.7,0.6-9.1,2.1-10.1,4.6c-0.4,0.8-0.8,2.3-1.1,4.3c-0.3,2-0.6,4.5-0.9,7.4c-0.3,2.9-0.5,6-0.6,9.4
		c-0.1,3.4-0.2,6.7-0.2,10c0,2.4,0,4.8,0.1,7c-0.6,2.3-1.1,4.3-1.7,5.9c-2.3,7.2-4.9,12.8-7.8,16.9c-3,4.1-6.5,7.3-10.6,9.5
		c-2,1-3.6,1.6-4.6,1.8c-1,0.2-2.6,0.1-4.6-0.3c-1.4-0.2-2.7-0.4-3.7-0.5c-1-0.1-1.6-0.4-1.8-0.8c-0.6-0.6,0-3.6,1.8-8.9
		c1.6-5.5,2.9-11.1,3.7-16.7c0.8-5.6,1.4-12.5,1.8-20.7c0.6-14.7-0.4-27.3-2.9-37.6c-2.6-10.3-6.5-18-11.9-22.9
		c-7.2-7-13.9-7.6-20.1-1.8c-2.9,3.1-5.1,7.3-6.5,12.7c-1.4,5.4-2.2,12.6-2.2,21.6c0,16,1.7,29.9,5.2,41.9
		c3.5,12,8.6,21.5,15.4,28.7l5.5,6.1l-2.1,4c-1.8,3.3-4.3,6.2-7.2,8.7c-3,2.6-5.6,4.1-7.8,4.8c-2.3,0.6-3.8,0.7-4.8,0.3
		c-0.9-0.4-2.2-2-3.8-4.9c-4.1-7.2-6.4-15.7-7.2-25.6c-0.7-9.9,0.4-20.9,3.2-33c1-4.7,1.6-7.6,1.7-8.7c0.1-1.1-0.2-2.4-0.8-3.8
		c-1.8-3.9-6-5.9-12.5-6.1c-2.8-0.2-4.6-0.2-5.2,0c-0.6,0.2-1.7,1.1-3.3,2.8c-1.6,1.6-3.1,3.9-4.4,6.9c-0.5,1-0.8,2.1-1.3,3.2
		c-1.3,0.7-1.9,2-1.9,3.7c0,0.6-0.2,1.9-0.6,3.8c-0.4,1.9-0.9,4-1.5,6.3c-0.6,2.3-1.3,4.5-2,6.8c-0.7,2.3-1.4,4.1-2,5.5
		c-3.1,7-7.9,14-14.4,21.2c-4.1,4.1-6.2,5.7-6.4,4.9c-0.2-0.4-0.4-1.5-0.6-3.4c-0.2-1.8-0.4-3.9-0.6-6.1c-0.2-2.2-0.5-5.7-0.9-10.4
		c-0.4-4.7-0.8-9.2-1.2-13.5c-0.4-4.3-0.9-9.3-1.4-15c-0.5-5.7-1-10.6-1.4-14.7c-0.4-3.9-0.9-8.4-1.5-13.5
		c-0.6-5.1-1.1-9.3-1.5-12.6c-1-6.1-1.9-10.3-2.8-12.4c-0.8-2.1-2.1-3.3-4-3.5c-1.2-0.2-2.8,0-4.6,0.5c-1.8,0.5-3.6,1.2-5.4,2
		c-1.7,0.8-3.3,1.8-4.8,2.9c-1.4,1.1-2.4,2.2-2.8,3.2c-0.2,0.6-0.4,1.5-0.5,2.6c-0.1,1.1,0.1,2.5,0.5,4.1c0.2,1.8,0.6,5.5,1.2,11.1
		c0.6,5.5,1.3,11.9,2,19.2c0.7,7.3,1.4,14.9,2.1,23c0.7,8.1,1.3,15.7,1.8,22.9c0.5,7.2,1,13.4,1.4,18.6c0.4,5.2,0.6,8.5,0.6,10v3.4
		l-10.7,5.5c-7.4,3.7-13.5,7.2-18.3,10.4c-4.8,3.3-9.3,6.9-13.4,10.7c-5.7,5.9-9.9,11.6-12.4,17c-2.6,5.4-3.8,11.1-3.8,17
		c0,6.8,1.6,13.1,4.9,19c3.3,5.9,7.6,10.2,12.9,12.9c1.6,0.8,3.1,1.3,4.3,1.5c1.2,0.2,3.8,0.2,7.7,0c3.3-0.2,5.8-0.5,7.5-0.8
		c1.7-0.3,3.5-0.9,5.4-1.7c2.5-1,5-2.6,7.7-4.6c2.7-2,5.3-4.2,7.8-6.4c2.6-2.3,4.9-4.6,7.1-7.1c2.1-2.5,3.7-4.7,4.8-6.8
		c3.9-7.8,6.9-16.5,8.9-26.3c2-9.7,3.3-21,3.7-33.9l0.6-15l7.1-6.4c7.7-7.5,13.5-14.9,17.4-22.2c0.7,10.3,3.3,19,7.8,26
		c4.9,7.7,11.7,12.9,20.3,15.8c2.9,1,6.1,1.4,9.8,1.2c3.7-0.2,7-0.9,9.8-2.1c5.3-2.2,10.2-7,14.7-14.1c1.4-2,2.5-3.4,3.2-4.1
		c0.7-0.7,1.3-1,1.7-0.8c1.6,0.6,3.7,1.1,6.3,1.5c2.6,0.4,4.7,0.5,6.3,0.3c4.7-0.6,9.3-2.8,13.7-6.4c4.4-3.7,8-8.3,10.9-13.8
		c0.6-1.3,1.2-2.9,1.9-4.6c0.1,0.4,0.2,0.8,0.3,1.2c1.4,6.1,4.2,12.2,8.3,18.1c4.1,6.3,8.6,10.4,13.7,12.1c5,1.7,10,1.1,14.9-2
		c7.2-4.5,14.1-19.5,20.9-45.1c0.4-1.4,0.7-2.8,0.9-4c0.2-1.2,0.5-2.4,0.9-3.4c0.4-1,0.7-2,0.9-3.1c0.2,1.2,0.5,4,0.8,8.3
		c0.3,4.3,0.6,9,0.9,14c0.3,5,0.6,9.9,0.8,14.7c0.2,4.8,0.3,8.4,0.3,10.9v13.2l-6.1,2.5c-1.6,0.8-3.8,1.7-6.4,2.8
		c-2.7,1-5,1.9-7.1,2.8c-6.8,2.9-12.1,6-16.1,9.4c-4,3.4-7.1,7.4-9.4,12.1c-1.6,3.3-2.5,6.8-2.5,10.4c0,3.7,0.7,6.9,2.1,9.5
		c1,2,2.5,3.9,4.3,5.5c1.8,1.6,3.9,3,6.1,4c3.3,1.6,7.5,2.1,12.6,1.5c5.1-0.6,9.9-2,14.4-4.3c2.7-1.2,5.6-3.3,8.8-6.1
		c3.2-2.9,5.6-5.6,7.2-8.3c2.7-4.1,5-9.9,6.9-17.3c1.9-7.5,3.3-15.1,4.1-22.9c0.2-1.8,0.4-3.3,0.5-4.5c0.1-1.1,0.3-2,0.6-2.8
		c0.3-0.7,0.7-1.4,1.2-2.1c0.5-0.7,1.3-1.7,2.3-2.9c4.7-5.5,9.1-12.3,13.2-20.4C733.3,301.1,736.4,293,738.4,285z M474.4,361.5
		c0,17.8-2.1,32.7-6.4,44.8c-4.3,12.1-10.2,19.8-17.8,23c-1,0.4-2.2,0.8-3.5,1.2c-1.3,0.4-2.4,0.7-3.2,0.9c-2.2,0.4-4.6,0-6.9-1.1
		c-2.4-1.1-4.6-2.7-6.6-4.8c-2-2-3.8-4.5-5.2-7.4c-1.4-2.9-2.5-5.9-3.1-9.2c-1.6-10,1.6-20,9.8-29.8c8.2-9.8,20.3-18.3,36.2-25.5
		l6.8-3.1V361.5z M588.3,310.2c-0.8,2-1.5,3.8-2,5.4c-0.5,1.5-0.9,2.3-1.1,2.3c-0.4-0.2-0.8-0.6-1.2-1.2c-0.4-0.4-0.9-0.9-1.4-1.4
		c-0.5-0.5-1-1.1-1.4-1.7c-5.9-6.5-10.4-15.2-13.5-26.1c-3.1-10.8-4.7-23.3-4.9-37.5c0-7.8,0.4-13.8,1.1-18c0.7-4.2,2-7.9,3.8-11.2
		c2.9-5.1,6.9-5.6,12-1.5c4.5,3.7,7.9,9.9,10.3,18.6c2.4,8.7,3.5,19.3,3.5,31.8c0,8.4-0.4,15.8-1.2,22.1
		C591.5,298.1,590.1,304.3,588.3,310.2z M691.8,350.4c0,0.6-0.1,1.3-0.2,2.1c-0.1,0.8-0.2,1.7-0.2,2.8c-2.9,21.7-9.2,34.4-19,38.1
		c-2.5,1-4.1,1.5-5.1,1.5c-0.9,0-2.5-0.3-4.8-0.9c-3.5-0.8-6.2-2.5-8.3-5.1c-2-2.6-3.1-5.5-3.1-8.7c0-3.7,1.6-7.8,4.9-12.3
		c3.3-4.5,7.2-7.9,11.7-10.1c1.2-0.6,3.2-1.5,5.8-2.6c2.7-1.1,5.3-2.2,8-3.2c2.7-1,5-1.9,7.1-2.6c2-0.7,3.2-1.1,3.4-1.1
		C691.9,348.9,691.8,349.6,691.8,350.4z"/>
	<path d="M174.6,594.4c0.5,5.2,1.1,10,1.6,14.5c0.5,4.5,1,8.5,1.5,11.9c0.6,3.2,1.1,5.2,1.4,5.8c0.3,0.6,1.3,1.2,3.1,1.6
		c2.4,0.6,5.3,0.9,8.7,0.8c3.4-0.1,6-0.7,7.7-1.8l3.2-1.3l2.9-13.9c0.6-3.9,1.5-8.1,2.6-12.7c1.1-4.6,2-8.2,2.9-10.8
		c1.7-6,3.9-12.2,6.4-18.5c2.6-6.3,5.3-12.4,8.2-18.2c2.9-5.8,5.8-11,8.7-15.5c2.9-4.5,5.5-8,7.9-10.3c1.7-1.5,2.7-2.4,3.1-2.6
		c0.3-0.2,0.8,0.1,1.4,1c0.4,0.6,0.8,1.8,1.1,3.4c0.3,1.6,0.5,4.3,0.6,8.1c0.1,3.8,0.2,9,0.2,15.6c0,6.7,0,15.6,0,26.8
		c0,12,0,21.4,0,28.2c0,6.8,0.2,12.1,0.5,16c0.3,3.9,0.9,7,1.8,9.4c0.9,2.4,2,5.2,3.5,8.4c0.9,1.9,2.1,4,3.9,6.3
		c1.7,2.3,3.4,4.4,5.2,6.3c1.7,1.9,3.5,3.6,5.3,5c1.8,1.4,3.4,2.3,4.7,2.7c2.4,0.9,5.4,1.2,9.2,1.1c3.8-0.1,6.5-0.6,8.2-1.5
		c2.8-1.3,5.2-2.9,7.3-4.8c2-1.9,4-5.1,6-9.5c1.9-4.4,4-10.5,6.3-18.4c2.3-7.8,5.1-18.2,8.5-31.1c0.2-0.9,0.5-1.7,0.7-2.5
		c0.7,6.6,1.5,13.1,2.5,19.3c1.1,6.2,1.9,10.5,2.6,12.9c0.6,2.4,1.5,3.9,2.6,4.5c1.9,1.5,5.5,1,10.6-1.6c1.7-0.9,3.1-1.7,4-2.4
		c1-0.8,1.7-2,2.3-3.7c0.5-1.7,0.9-4.2,1-7.4c0.1-3.2,0.2-7.7,0.2-13.5c0.2-16.6,1.4-30.3,3.5-41.3c2.1-11,5.4-20.9,9.7-29.7
		c2.4-4.9,5.4-9.7,9-14.2c3.7-4.5,7-7.6,10-9.4c1.1-0.4,1.7-0.5,1.8-0.3c0.1,0.2-0.1,1.1-0.5,2.6c-0.6,3.7,0.2,7.2,2.6,10.5
		c2.4,3.3,5.2,5,8.4,5c1.7,0,3.3-0.5,4.7-1.6c1.4-1.1,2.5-2.5,3.4-4.2c0.9-1.7,1.3-3.6,1.5-5.6c0.1-2-0.3-4-1.1-6
		c-1.9-4.7-4.9-7.7-9-9c-4.1-1.3-8.6-0.6-13.5,1.9c-2.2,1.1-4.4,2.7-6.8,4.8c-2.4,2.2-4.7,4.6-6.9,7.4c-2.3,2.8-4.4,5.8-6.4,9
		c-2,3.2-3.7,6.4-5,9.7c-1.5,3.4-3,7.7-4.5,12.7c-1.5,5.1-2.8,9.8-3.9,14.4c-0.6,2.8-1,3.8-1.1,2.9c-0.1-0.9-0.1-5,0.2-12.6
		c0.2-4.3,0.5-9.4,0.8-15.2c0.3-5.8,0.7-10.6,1.1-14.5c0.6-7.7,0.9-12.9,0.6-15.5c-0.2-2.6-1.1-4.4-2.6-5.5c-1.1-0.6-2.5-1-4.4-1.1
		c-1.8-0.1-3.7,0-5.6,0.3c-1.9,0.3-3.7,0.9-5.3,1.6c-1.6,0.8-2.7,1.7-3.4,2.7c-1.3,1.9-2.3,6-2.9,12.1c-0.6,6.1-1.2,15.9-1.6,29.2
		c-0.2,10.2-0.1,19.7,0.2,28.4c-0.3,1.2-0.6,2.6-1,4.1c-1.4,5.6-3,11.5-4.7,17.7c-3.2,12.3-5.9,22.2-8.1,29.8
		c-2.2,7.6-4,13.5-5.6,17.7c-1.6,4.2-3.2,7.1-4.7,8.7c-1.5,1.6-3.1,2.5-4.8,2.7c-5.8,0.9-10.5-5-14.2-17.7c-0.4-1.5-0.8-3-1-4.4
		c-0.2-1.4-0.4-3.1-0.6-5c-0.2-1.9-0.3-4.2-0.3-6.9c0-2.7,0-6.2,0-10.5c0-2.8,0-6.1,0-10c0-3.9,0.1-8,0.2-12.3
		c0.1-4.3,0.2-8.7,0.3-13.2c0.1-4.5,0.2-8.7,0.2-12.6c0.2-7.7,0.4-14,0.5-18.9c0.1-4.8,0.1-8.8-0.2-11.8c-0.2-3-0.6-5.4-1.3-7.3
		c-0.6-1.8-1.4-3.6-2.3-5.3c-4.3-7.5-11.1-9.2-20.3-5.2c-6.7,3-12.8,8.3-18.4,15.8c-5.6,7.5-11.3,18-17.1,31.3
		c-3,6.7-5.5,12.9-7.6,18.7c-2,5.8-3.8,11.8-5.3,18.1l-1.9,8.4l-1.3-6.4c-0.9-5.6-1.5-11.4-1.9-17.4c-0.4-6-0.6-11.9-0.6-17.7v-10.6
		l6.1-4.2c9-5.6,17-13.2,23.9-22.7c6.9-9.6,11.8-19.8,14.8-30.8c0.9-2.8,1.5-5.4,1.8-7.7c0.3-2.4,0.5-5.7,0.5-10
		c0-2.6-0.1-4.6-0.2-6.1c-0.1-1.5-0.2-2.8-0.3-3.9c-0.1-1.1-0.4-2-0.8-2.9c-0.4-0.9-1-2-1.6-3.5c-1.7-3.7-3.7-6.4-6-8.2
		c-2.3-1.8-5-3.3-8.2-4.4c-5.2-1.7-10.5-1.6-16,0.3c-5.5,1.9-10.4,5.4-14.7,10.3c-17.4,18.7-24.9,54-22.6,105.8
		c0,0.9,0.1,1.9,0.2,2.8c-0.3,0.9-0.5,1.8-0.8,2.8c-1.5,5.3-3.1,10.6-4.7,16.1c-1.6,5.5-3.2,10.6-4.7,15.5c-1.5,4.8-2.6,8-3.2,9.5
		c-7.7,18.5-16.2,30.1-25.5,34.8l-4.5,1.9l-4.2-4.8c-4.7-5.2-8.8-11.2-12.3-18.2c-3.4-7-6.1-14.6-8.1-22.7c-0.4-1.7-0.8-3.3-1-4.8
		c-0.2-1.5-0.4-3.2-0.6-5.2c-0.2-1.9-0.3-4.4-0.3-7.3s0-6.5,0-10.8c0-4.7,0-8.5,0-11.4s0.1-5.3,0.3-7.3c0.2-1.9,0.5-3.6,0.8-5
		c0.3-1.4,0.7-3.2,1.1-5.3c3.2-11.4,7.6-20.2,13.2-26.4c2.6-2.8,4.8-4.8,6.8-6c1.9-1.2,4.1-1.8,6.4-1.8c2.8,0,5.6,1.4,8.4,4.2
		c2.8,2.8,4.7,6.2,5.8,10.3c0.4,1.3,0.7,3.1,0.8,5.5c0.1,2.4,0.2,4.8,0.2,7.4c0,2.6-0.1,4.9-0.3,7.1c-0.2,2.2-0.4,3.5-0.6,4.2
		c-1.1,1.7-1.3,3.1-0.6,4c0.6,1,1.8,1.3,3.5,1.1c1.7,0,3-1.2,3.9-3.5c0.4-1.3,0.8-3.1,1-5.5c0.2-2.4,0.3-4.9,0.3-7.7
		c0-2.8-0.1-5.4-0.3-7.9c-0.2-2.5-0.5-4.6-1-6.3c-1.7-6-4.5-10.7-8.4-14.2c-3.9-3.4-8.3-5.6-13.2-6.4c-4.9-0.9-10.2-0.3-15.6,1.6
		c-5.5,1.9-10.8,5.3-16,10c-16.1,15.1-24.2,37.2-24.2,66.4c0,12.3,1.1,22.6,3.4,31s6.1,16.3,11.4,23.9c5.4,7.7,12.9,13.4,22.6,17.1
		c3.2,1.1,7,1.6,11.3,1.6c4.9,0,9.2-0.8,12.7-2.4c3.5-1.6,7.3-4.5,11.1-8.5c2.8-2.8,5.4-5.9,7.7-9.4c2.4-3.4,4.6-7.5,6.8-12.1
		c2.1-4.6,4.2-10,6.3-16.3c1.8-5.4,3.7-11.7,5.7-18.7C174.1,589,174.3,591.7,174.6,594.4z M195.4,536c0.2-4.5,0.6-9.8,1.1-16
		c0.5-6.1,1.2-12.3,1.9-18.5c0.7-6.2,1.4-11.1,2.1-14.5c1.7-7.1,3.9-13.4,6.4-18.9c2.6-5.5,5.4-9.5,8.4-12.1c3-2.4,6.2-3,9.5-1.9
		c3.3,1.1,6.1,3.7,8.2,7.7c1.1,2.2,1.7,4,1.9,5.5c0.2,1.5,0.3,4.5,0.3,9c0,4.3-0.2,7.6-0.5,9.8c-0.3,2.3-1,4.9-2.1,7.9
		c-3,9-7.2,17.5-12.6,25.3c-5.4,7.8-11.5,14.2-18.4,19.2c-1.5,1.1-2.9,2-4,2.9c-1.2,0.9-1.9,1.3-2.1,1.3
		C195.3,542.8,195.2,540.5,195.4,536z"/>
	<path d="M417.9,454.7c-2.4-0.2-4.1-0.2-5.2,0c-1.1,0.2-2.3,0.8-3.5,1.6c-1.9,1.5-3.7,3.2-5.2,5.2c-0.9,1.3-1.4,2.5-1.6,3.5
		c-0.2,1.1-0.2,2.9,0,5.5c0.2,6,2.9,10.8,8.1,14.2c2.1,1.3,4.7,1.8,7.7,1.5c3-0.3,5.4-1.3,7.1-3.1c3.9-3.7,5.9-8,6.1-12.9
		c0.2-4.9-1.5-9.1-5.2-12.6c-1.3-1.1-2.4-1.8-3.4-2.1C422,455.2,420.3,454.9,417.9,454.7z"/>
	<path d="M1002.9,554.1c-1.3,0-2.3,0.5-2.9,1.5c-0.6,1-1.5,3.1-2.6,6.3c-2.8,7.5-6.3,14.6-10.6,21.3c-1.1,1.5-2.3,3.1-3.7,4.8
		c-1.4,1.7-2.7,3.3-4,4.8c-1.3,1.5-2.5,2.8-3.5,3.9c-1.1,1.1-1.7,1.6-1.9,1.6c-0.4,0-1.1-1.2-1.9-3.5c-1.7-5.6-4.7-11.3-8.9-17.1
		c-4.2-5.8-9.1-11.1-14.7-15.8l-3.9-3.2l3.9-4.5c2.4-2.6,4.8-6.2,7.4-10.8c2.6-4.6,4.4-8.8,5.5-12.4c0.4-1.7,0.7-3.7,1-6
		c0.2-2.3,0.3-4.5,0.3-6.6c0-9.2-2.8-15.7-8.4-19.3c-3-1.7-6.4-2.5-10.3-2.4c-3.9,0.1-7.6,1.1-11.3,3.1c-4.9,2.4-9.5,6.4-13.7,12.1
		c-4.2,5.7-7,11.7-8.5,17.9c-0.6,2.8-0.9,6.1-0.8,10c0.1,3.9,0.5,7.1,1.1,9.7c0.6,2.4,1.3,4.4,2.1,6.1c0.2,0.4,0.5,0.9,0.7,1.4
		c-0.4,0.8-0.8,2.3-1.2,4.4c-0.6,3-1.5,6.7-2.6,11c-3.4,15.7-6.9,29.2-10.3,40.6c-3.4,11.4-6.7,20.2-9.7,26.4l-2.3,4.2l-1-3.5
		c-0.6-2.6-1.2-4.9-1.6-6.9c-0.4-2-0.8-4.5-1-7.3c-0.2-2.8-0.4-6.2-0.5-10.2c-0.1-4-0.2-9.1-0.2-15.3c0-6.9,0-13.8,0-20.6
		c0-6.9,0.1-11.6,0.3-14.2c0.2-4.3,0.3-7,0.2-8.2c-0.1-1.2-0.6-2.2-1.4-3.1c-2.6-3-7-3.9-13.2-2.6c-4.3,0.9-7.2,2-8.7,3.5
		c-1.5,1.5-3,4.6-4.5,9.4c-1.7,5.4-3.9,11.4-6.6,18.1c-2.7,6.7-5.3,12.5-7.9,17.4c-1.3,2.2-2.6,4.3-4,6.4c-1.4,2.2-2.7,4.1-4,5.8
		c-1.3,1.7-2.4,3.1-3.4,4c-1,1-1.6,1.2-1.8,0.8c-0.2-0.2-0.5-0.9-1-1.9c-0.4-1.1-0.9-2.3-1.3-3.5c-1.5-4.5-2.6-10-3.2-16.6
		c-0.6-6.6-0.9-13.4-0.8-20.6c0.1-7.2,0.6-14.4,1.4-21.4c0.9-7.1,2-13.3,3.5-18.7c1.9-6.2,4.2-11.5,6.8-15.8
		c2.6-4.3,5.1-6.4,7.4-6.4c2.6,0,5.4,1.5,8.4,4.4c3,2.9,5.7,6.6,8.1,11.1c1.5,3,2.8,4.9,3.9,5.8c1.1,0.9,2.3,0.8,3.5-0.3
		c0.9-0.6,1.2-1.6,1-2.9c-0.2-1.3-1.1-3.4-2.6-6.5c-1.7-3.7-4.1-7.1-7.3-10.5c-3.1-3.3-6.4-5.9-9.8-7.6c-2.4-1.1-4.2-1.7-5.6-1.9
		c-1.4-0.2-3.6-0.3-6.6-0.3c-4.9,0-8.9,0.8-11.9,2.3c-3,1.5-6.7,4.5-11,9c-10.3,11-16.9,25.8-19.7,44.5c-0.7,4.8-1.1,9.5-1.2,14.2
		c0,0.1-0.1,0.2-0.1,0.3c-1.7,5.6-3.5,11.6-5.5,17.9c-1.9,6.3-3.8,12.4-5.5,18.1c-1.7,5.7-3,9.6-3.9,11.8
		c-2.4,6.2-3.9,10.2-4.5,11.8c-0.6,1.6-1.2,2.1-1.6,1.5c-0.9-2.6-1.6-5.4-2.1-8.5c-0.5-3.1-0.9-6.9-1-11.4c-0.1-4.5,0-9.8,0.3-16
		c0.3-6.1,0.8-13.6,1.5-22.4c1.9-29.9,1.9-49.6,0-59c-1.1-4.1-2.5-7.8-4.2-11.1c-1.7-3.3-3.7-5.7-5.8-7.3c-2.4-1.5-5.7-2.4-10-2.6
		c-4.3-0.2-8.3,0.2-11.9,1.3c-8.2,2.4-16,10.6-23.4,24.7c-7.4,14.1-13.4,32.1-17.9,54l-2.6,11.9l0.3-11c0.4-9.9,0.8-17.6,1-23.1
		c0.2-5.5,0.3-9.6,0.3-12.3c0-2.7-0.2-4.6-0.5-5.6c-0.3-1.1-0.7-2.1-1.1-3.2c-2.4-5.2-7-7.7-13.9-7.7c-8.4,0-15.8,5.2-22.3,15.6
		c-6.4,10.4-11.5,25.4-15.2,45l-1.9,11.3l-1-6.4c-0.2-1.9-0.3-4.8-0.3-8.5c0-3.8,0.1-8.3,0.2-13.5c0.1-5.3,0.3-11,0.6-17.3
		c0.3-6.2,0.7-12.8,1.1-19.7c0.4-6.4,0.8-11.6,1-15.3c0.2-3.8,0.3-6.8,0.2-9c-0.1-2.3-0.4-3.9-1-5c-0.5-1.1-1.2-2-2.1-2.9
		c-1.3-1.3-2.4-2.1-3.4-2.4c-1-0.3-2.6-0.6-5-0.8c-1.5,0-3.2,0.1-5,0.2c-1.8,0.1-3.3,0.3-4.4,0.5c-1.1,0.4-1.9,0.9-2.6,1.3
		c-0.6,0.4-1.2,1.3-1.8,2.7c-0.5,1.4-1,3.4-1.3,6.1c-0.3,2.7-0.7,6.5-1.1,11.4c-0.4,4.3-0.8,9.9-1.1,16.8
		c-0.3,6.9-0.5,13.9-0.5,21.1c0,7.2,0.1,14.1,0.2,20.8c0,1.1,0,2,0.1,3c-2,14.8-4.5,27.6-7.5,38.4c-3.3,12.1-7.2,20.7-11.4,25.6
		c-1.5,2.2-2.7,2.8-3.5,1.9c-1.1-0.9-2.3-3.1-3.5-6.6c-1.3-3.5-2.5-8-3.5-13.4c-0.4-2.1-0.8-4.1-1.1-6c-0.3-1.8-0.5-4.6-0.6-8.2
		c-0.1-3.7-0.2-8.8-0.2-15.5c0-6.7,0-15.9,0-27.7c0-6.7,0-13.3,0-19.8c0-6.6,0.1-12.6,0.2-18.1c0.1-5.5,0.2-10.2,0.3-14.2
		c0.1-4,0.2-6.8,0.2-8.5l1-11.9h5.8c12,0,20.4-2.7,25.2-8.1c2.8-3.4,2.9-6.8,0.3-10c-1.1-1.5-2.6-2.3-4.5-2.4
		c-1.9-0.1-3.4,0.5-4.5,1.8c-1.1,1.1-1.5,3-1.3,5.8l0.6,3.9l-4.5,1c-1.5,0.4-3.2,0.7-5.2,0.8c-1.9,0.1-3.7,0.2-5.3,0.2
		c-1.6,0-3-0.1-4.2-0.3c-1.2-0.2-1.8-0.5-1.8-1c0-0.2,0.1-1.4,0.2-3.5c0.1-2.1,0.4-4.6,0.8-7.4c0.6-8.2,0.5-13.8-0.5-16.8
		c-1-3-3.1-4.5-6.3-4.5c-2.4,0-4.9,0.5-7.6,1.6c-2.7,1.1-4.6,2.4-5.6,3.9c-1.1,1.3-1.7,2.6-1.9,3.9c-0.2,1.3-0.3,4.4-0.3,9.4
		c0,2.8-0.1,5.2-0.2,7.3c-0.1,2-0.3,3.1-0.5,3.1c-0.2,0-1.5-0.3-3.7-0.8c-2.3-0.5-5-1.3-8.2-2.4c-17.6-5.2-28.3-4.3-31.9,2.6
		c-1.1,1.9-1.4,3.8-1.1,5.6c0.3,1.8,1,3.2,1.9,4.2c1,1,2.3,1.4,3.9,1.3c1.6-0.1,3.2-0.9,4.7-2.4c1.1-1.1,1.8-2,2.1-2.7
		c0.3-0.8,0.4-1.7,0.2-2.7c-0.4-1.1-0.5-1.8-0.2-2.1c0.3-0.3,1.3-0.5,3.1-0.5c0.9,0,2.9,0.4,6.1,1.1c3.2,0.8,6.7,1.7,10.3,2.7
		l12.9,3.5l-0.6,12.3c-0.9,18.7-1.5,34.5-1.8,47.4c-0.1,3.6-0.2,7.1-0.2,10.4c-2.8,7.5-6.3,14.6-10.6,21.2c-1.1,1.5-2.3,3.1-3.7,4.8
		c-1.4,1.7-2.7,3.3-4,4.8c-1.3,1.5-2.5,2.8-3.5,3.9c-1.1,1.1-1.7,1.6-1.9,1.6c-0.4,0-1.1-1.2-1.9-3.5c-1.7-5.6-4.7-11.3-8.9-17.1
		c-4.2-5.8-9.1-11.1-14.7-15.8l-3.9-3.2l3.9-4.5c2.4-2.6,4.8-6.2,7.4-10.8c2.6-4.6,4.4-8.8,5.5-12.4c0.4-1.7,0.7-3.7,1-6
		c0.2-2.3,0.3-4.5,0.3-6.6c0-9.2-2.8-15.7-8.4-19.3c-3-1.7-6.4-2.5-10.3-2.4c-3.9,0.1-7.6,1.1-11.3,3.1c-4.9,2.4-9.5,6.4-13.7,12.1
		c-4.2,5.7-7,11.7-8.5,17.9c-0.6,2.8-0.9,6.1-0.8,10c0.1,3.9,0.5,7.1,1.1,9.7c0.6,2.4,1.3,4.4,2.1,6.1c0.3,0.7,0.8,1.5,1.2,2.3
		c-0.3,0.5-0.5,1-0.7,1.7c-0.4,1.4-1,4.1-1.6,8.2c-0.9,6.2-2.1,13-3.7,20.3c-1.6,7.3-3.4,14.5-5.3,21.4c-1.9,7-3.9,13.4-6,19.3
		c-2,5.9-3.9,10.6-5.6,14c-2.2,4.3-4,7.4-5.5,9.2c-1.5,1.8-3.4,3.3-5.8,4.4l-4.2,2.3l-1.9-2.6c-2.2-2.4-4-6.6-5.6-12.7
		c-1.6-6.1-2.9-13.7-3.7-22.7c-0.2-2.8-0.3-8.2-0.3-16.1c0-8,0.1-16.7,0.3-26.3c0.2-9.6,0.5-19.2,0.8-28.9
		c0.3-9.7,0.7-17.6,1.1-23.9c0.2-4.3,0.4-7.8,0.5-10.6c0.1-2.8-0.1-5-0.5-6.8c-0.4-1.7-1.1-3-2.1-3.9c-1-0.9-2.2-1.5-3.7-1.9
		c-2.4-0.9-5.2-0.9-8.4,0c-1.9,0.4-3.5,0.9-4.7,1.3c-1.2,0.4-2.1,1.1-2.7,2.1c-0.6,1-1.1,2.3-1.4,4c-0.3,1.7-0.7,4-1.1,6.8
		c-0.9,6.4-1.6,14.3-2.1,23.5c-0.5,9.2-0.9,18.5-1,27.9c-0.1,9.4-0.1,18.2,0.2,26.6c0.2,8.4,0.6,14.9,1.3,19.7
		c3.2,25.4,11.3,41.4,24.2,48c2.8,1.3,5.9,2,9.2,2.3c3.3,0.2,6.3-0.2,8.9-1.3c2.1-1.1,4.5-3,7.1-5.8c2.6-2.8,4.8-6,6.8-9.7
		c1.9-3.9,4.2-9.7,6.9-17.6c2.7-7.8,5.2-16.2,7.4-25c2.3-8.8,4.2-17.2,5.8-25.2c1.3-6.6,2.1-11.8,2.3-15.6c0.9,1,1.8,2,2.8,3.1
		c2.3,2.4,5.1,5.3,8.5,8.7c3.7,3.4,6.7,6.3,9,8.7c2.4,2.4,4.2,4.5,5.6,6.4c1.4,1.9,2.6,3.8,3.5,5.5c1,1.7,1.8,3.7,2.4,5.8
		c1.3,4.1,1.8,6.7,1.4,7.9c-0.3,1.2-2,2.9-5,5c-3.7,2.4-7.3,5.4-10.8,9.2c-3.5,3.8-6.2,7.5-7.9,11.1c-1.1,2.4-1.8,4.3-2.3,5.8
		c-0.4,1.5-0.6,3.7-0.6,6.4c0,2.6,0.2,4.5,0.5,5.8c0.3,1.3,1,2.8,2.1,4.5c2.6,4.3,6,7.1,10.3,8.4c3.7,1.1,7.6,0.8,11.8-0.8
		c4.2-1.6,8.1-4.4,11.8-8.2c4.9-5.2,8.6-11.4,11-18.7c2.4-7.3,3.3-15.3,2.9-23.9l-0.6-9l4.8-4.5c2.6-2.4,5.2-5.2,7.9-8.5
		c2.7-3.3,5.2-6.8,7.4-10.5c0.8-1.2,1.4-2.4,2.1-3.7c0,1.9,0.1,3.8,0.2,5.6c0.3,9,0.9,16.7,1.6,22.9c0.8,6.2,1.9,12.1,3.4,17.7
		c1.7,6.7,4.2,12.5,7.4,17.6c3.2,5.1,6.8,8.5,10.6,10.5c6,3.2,11.7,1.7,17.1-4.7c5.4-6.3,9.9-16.9,13.5-31.8c0.8-3,1.6-6.6,2.4-10.7
		c0.9,5.7,2,10.6,3.2,14.8c2,7,4.4,11.1,6.9,12.4c1.1,0.6,2,1,2.9,1c0.9,0,2.5-0.5,4.8-1.6c6.7-2.4,10.3-6.7,11-12.9
		c4.3-40.6,11.5-66.3,21.6-77.1c1.7-1.7,2.8-2.7,3.2-2.9c0.4-0.2,0.9,0,1.3,0.6c0.4,0.4,0.7,3.3,0.8,8.5c0.1,5.3,0.2,12.4,0.2,21.4
		c0,7.5,0,13.7,0,18.5c0,4.8,0.2,8.8,0.5,11.9c0.3,3.1,0.7,5.6,1.3,7.6c0.5,1.9,1.3,3.9,2.4,5.8l1.9,3.9l6.4-0.6
		c1.7-0.2,3.3-0.4,4.8-0.5c1.5-0.1,2.5-0.3,2.9-0.5c1.7-0.6,3.1-2.3,4-5c1-2.7,2.1-7.5,3.4-14.4c2.6-15.9,5.5-29.5,8.7-40.6
		c3.2-11.2,7.2-21.4,11.9-30.6c4.1-8.2,8.1-14.1,12.1-17.7c4-3.7,7.4-4.6,10.2-2.9c1.5,1.1,2.7,2.8,3.5,5.2c0.9,2.4,1.5,6,1.8,11
		c0.3,4.9,0.4,11.4,0.3,19.3c-0.1,8-0.5,18.1-1.1,30.3c-0.6,13.3-1,24.5-1,33.5s0.4,16.6,1.1,22.6c0.8,6,1.9,10.9,3.4,14.5
		c1.5,3.7,3.5,6.6,6.1,8.7c3.7,3,7.3,3.4,11,1.3c1.7-0.9,3.4-2.4,5.2-4.7c1.7-2.3,3.5-5.5,5.5-9.7c1.9-4.2,4-9.5,6.1-15.8
		c2.1-6.3,4.6-14,7.4-23.1c0.5-1.9,1.1-3.6,1.6-5.3c0.4,2.4,0.9,4.7,1.5,6.9c1.6,6,3.7,11.3,6.3,15.8c2.6,4.5,5.7,7.9,9.4,10
		c2.4,1.7,5.4,2.6,9,2.7c3.7,0.1,7-0.6,10-2.1c8.2-4.1,16.3-15,24.5-32.9l3.2-7.1v11.6c0,14.8,1.5,27.4,4.5,37.7
		c3,10.3,7.2,17.1,12.6,20.3c4.7,3,9.5,2.7,14.2-1c4.9-3.7,10.1-13.1,15.5-28.4c5.4-15.3,10.4-34.7,15.2-58.4
		c0.4-1.8,0.7-3.4,0.9-4.8c1,1.2,2.2,2.5,3.5,3.8c2.3,2.4,5.1,5.3,8.5,8.7c3.7,3.4,6.7,6.3,9,8.7c2.4,2.4,4.2,4.5,5.6,6.4
		c1.4,1.9,2.6,3.8,3.5,5.5c1,1.7,1.8,3.7,2.4,5.8c1.3,4.1,1.8,6.7,1.4,7.9c-0.3,1.2-2,2.9-5,5c-3.7,2.4-7.3,5.4-10.8,9.2
		c-3.5,3.8-6.2,7.5-7.9,11.1c-1.1,2.4-1.8,4.3-2.3,5.8c-0.4,1.5-0.6,3.7-0.6,6.4c0,2.6,0.2,4.5,0.5,5.8c0.3,1.3,1,2.8,2.1,4.5
		c2.6,4.3,6,7.1,10.3,8.4c3.7,1.1,7.6,0.8,11.8-0.8c4.2-1.6,8.1-4.4,11.8-8.2c4.9-5.2,8.6-11.4,11-18.7c2.4-7.3,3.3-15.3,2.9-23.9
		l-0.6-9l4.8-4.5c2.6-2.4,5.2-5.2,7.9-8.5c2.7-3.3,5.2-6.8,7.4-10.5c2.3-3.7,4.2-7.3,5.8-11c1.6-3.7,2.7-6.9,3.4-9.7
		C1005.8,556.6,1005.3,554.1,1002.9,554.1z M498.9,553.4c-1.1,0.2-2.6-0.6-4.5-2.6c-1.1-1.1-2.1-2.4-3.1-3.9c-1-1.5-1.8-2.9-2.4-4.2
		c-1.1-2.1-1.7-4-1.9-5.5c-0.2-1.5-0.3-4.1-0.3-7.7c0-3.7,0.1-6.2,0.3-7.7c0.2-1.5,0.8-3.2,1.6-5.2c3.4-6.7,7.8-10.9,13.1-12.6
		c5.3-1.7,9.3-0.3,12.1,4.2c1.1,2.2,1.8,5.1,2.1,8.7c0.3,3.7-0.1,7.1-1.1,10.3c-1.1,3.7-2.6,7.5-4.7,11.6c-2,4.1-4,7.3-6,9.7
		C501.7,551.6,499.9,553.2,498.9,553.4z M513.1,621.9c-0.2,1.4-0.5,3-1,4.7c-1.9,11-6.1,20.4-12.6,28.4c-0.6,0.9-1.2,1.6-1.8,2.3
		c-0.5,0.6-0.9,1-1.1,1c-1.1,0-2-1.1-2.7-3.2c-0.8-2.1-1.1-4.5-1.1-7.1c0-6,2.8-12.1,8.4-18.4c0.9-0.9,2-1.9,3.4-3.2
		c1.4-1.3,2.7-2.5,4-3.5c1.3-1.1,2.4-1.9,3.4-2.6c1-0.6,1.4-0.9,1.4-0.6C513.4,619.7,513.3,620.5,513.1,621.9z M938.7,553.4
		c-1.1,0.2-2.6-0.6-4.5-2.6c-1.1-1.1-2.1-2.4-3.1-3.9c-1-1.5-1.8-2.9-2.4-4.2c-1.1-2.1-1.7-4-1.9-5.5c-0.2-1.5-0.3-4.1-0.3-7.7
		c0-3.7,0.1-6.2,0.3-7.7c0.2-1.5,0.8-3.2,1.6-5.2c3.4-6.7,7.8-10.9,13.1-12.6c5.3-1.7,9.3-0.3,12.1,4.2c1.1,2.2,1.8,5.1,2.1,8.7
		c0.3,3.7-0.1,7.1-1.1,10.3c-1.1,3.7-2.6,7.5-4.7,11.6c-2,4.1-4,7.3-6,9.7C941.5,551.6,939.8,553.2,938.7,553.4z M952.9,621.9
		c-0.2,1.4-0.5,3-1,4.7c-1.9,11-6.1,20.4-12.6,28.4c-0.6,0.9-1.2,1.6-1.8,2.3c-0.5,0.6-0.9,1-1.1,1c-1.1,0-2-1.1-2.7-3.2
		c-0.8-2.1-1.1-4.5-1.1-7.1c0-6,2.8-12.1,8.4-18.4c0.9-0.9,2-1.9,3.4-3.2c1.4-1.3,2.7-2.5,4-3.5c1.3-1.1,2.4-1.9,3.4-2.6
		c1-0.6,1.4-0.9,1.4-0.6C953.2,619.7,953.1,620.5,952.9,621.9z"/>
	<path d="M600.5,932.5c-5.7-1.1-11.6-2-17.4-1.9c-15.8,0.3-30.8,4.4-44.6,12.1c-5.7,3.2-11.5,4.8-17.9,4.9
		c-3.6,0.1-7.2,0.3-10.8,0.3c-1.4,0-2.7-0.4-5-0.8c3.1-2.1,5.4-3.6,7.6-5.1c8.6-5.8,16.9-12,23.1-20.6c3-4.1,4.9-8.7,5.2-13.7
		c0.4-6.3-1.6-11.6-7.2-15c-5.3-3.2-10.6-3.1-16-0.2c-8.1,4.4-14.9,10.2-20.5,17.3c-7.4,9.4-13.4,19.8-18.4,30.7
		c-2.3,5-5.5,7.3-11.2,6.3c-9.8-1.7-19.6-3.2-29.3-4.8c-1.9-0.3-3.7-0.9-6.8-1.6c4.8-2.9,8.6-4.8,12-7.4c5.9-4.4,12-8.8,17.1-14.1
		c5.4-5.6,8.3-12.9,8.8-20.8c0.6-10.1-5.7-16.5-15.7-15.6c-3.7,0.3-7.6,1.6-10.8,3.3c-9.3,5-16.7,12.2-22,21.4
		c-4.1,7-8.3,13.9-12.3,21c-2.6,4.5-6.2,6.3-11.3,4.8c-15.3-4.7-30.6-9.3-45.9-13.9c0-0.7,0-1.4,0.1-2c3.7-1.4,7.6-2.5,11.2-4.2
		c7.7-3.7,15.4-7.4,22.8-11.8c5.3-3.1,9.2-7.8,11.9-13.6c3.3-7.3,2.5-14.1-2.4-20.3c-4.8-5.9-11.5-7.4-18.4-5.1
		c-5.9,2-11.7,4.9-16.7,8.5c-11.2,8.1-20.6,18.2-28.3,29.7c-1.8,2.7-3.9,5.3-6.3,8.6c-10.8-5-21.2-9.7-32.1-14.7
		c-0.9,3.7-1.6,6.4-2.2,9.3c10,5.4,19.4,10.5,28.5,15.4c-0.5,4.5-1.4,8.3-1.3,12c0.5,20,5.7,38.8,16.6,55.7c3,4.6,7.3,8.7,11.7,11.9
		c6.4,4.6,14.7,3.3,20.5-2.1c5.5-5.2,6.5-11.6,5-18.7c-1.5-7.4-5.1-14-9.4-20.1c-5.6-7.9-11.7-15.4-17.5-23.2
		c-1.6-2.1-3-4.2-4.5-6.3c19.2,4.5,37.4,10.1,55.8,15.5c3.7,1.1,4.5,3.4,5,6.9c2.4,18.6,9.8,35,22.5,49c5.8,6.4,12.9,10.5,21.5,11.6
		c13.2,1.7,21.1-7.4,16.9-20c-1.7-5-4.7-9.8-8.3-13.7c-5.5-6.2-11.9-11.6-18-17.3c-2.3-2.2-4.6-4.4-6.9-6.5c0.2-0.4,0.5-0.9,0.7-1.3
		c14.4,1.7,28.8,3.5,43.1,5.2c1.2,4.2,1.8,7.8,3.1,11c6.9,16.6,17.7,30.4,32.4,40.7c4.1,2.9,9.3,4.6,14.3,5.6
		c6.3,1.2,10.8-1.8,13.7-7.5c4-7.9,2.1-15.2-3.5-21.2c-5-5.4-11-9.9-16.8-14.5c-5.5-4.3-11.3-8-17-12c0.1-0.5,0.3-1,0.4-1.6
		c11.6-0.3,23.3-0.7,34.9-0.8c1.6,0,3.5,1,4.8,2.1c4,3.5,8.8,5.4,13.8,6.8c12.5,3.5,25.1,5.6,38,4.2c6.1-0.7,12.1-2.3,16.8-6.4
		c5.8-5.1,8.6-11.7,7.1-19.4C613,937.2,607.3,933.8,600.5,932.5z"/>
	<path d="M779.7,868.4c-2.4,0.4-4.9,1-7.2,1.7c-15.6,5-27.8,14.5-36.9,28.1c-1.7,2.6-3.3,5.6-5.7,7.5c-10.4,7.9-22,13.7-34.7,19.3
		c0.7-1.5,0.8-2.2,1.2-2.6c9.1-10.7,11.3-23.3,10.4-36.7c-0.1-1.8-0.2-3.6-0.7-5.4c-1.3-5.2-4.3-6.2-8.2-2.6c-2.1,2-3.9,4.4-6,6.4
		c-12.8,11.8-18.3,26.4-16.7,43.7c0.6,6.5-0.4,7.7-6.7,9.7c-4.5,1.4-9,2.6-14.2,4.2c0.8,3,1.5,5.6,2.3,8.4c4.2-0.7,7.6-1,10.8-2
		c4-1.1,7.1-0.2,10.7,1.9c19.3,11.5,40.3,16.6,62.7,15.7c1.8-0.1,4-0.9,5.1-2.2c0.6-0.7-0.6-3.3-1.6-4.6c-1.3-2-3.1-3.9-4.8-5.7
		c-8.2-8.5-18.4-13.7-29.6-16.9c-2.8-0.8-5.6-1.5-9.5-2.5c2.7-1.3,4.3-2.1,5.9-2.9c6.2-2.7,12.8-4.7,18.5-8.3
		c7.2-4.6,14.8-7.5,22.9-9.7c4.5-1.3,9-2.8,13.4-4.5c7.5-2.9,13.8-7.6,18.8-13.9c4.3-5.4,7.1-11.5,7.7-18.5
		C788.3,869.3,786.3,867.4,779.7,868.4z"/>
	<path d="M645.2,969.7c-6.7-2.9-14.5,0.1-17.5,6.8c-3,6.6-0.1,14.5,6.5,17.6c6.5,3.1,14.5,0.2,17.7-6.3
		C655.2,981.1,652.1,972.7,645.2,969.7z"/>
	<path d="M528.4,140.9c5.6,1.6,11.4,3,17.1,3.4c15.8,1.1,31.1-1.7,45.5-8.3c6-2.8,11.9-3.8,18.3-3.4c3.6,0.2,7.2,0.3,10.8,0.6
		c1.4,0.1,2.7,0.7,4.9,1.2c-3.3,1.8-5.7,3.1-8,4.4c-9.1,5.1-17.8,10.5-24.8,18.5c-3.3,3.9-5.6,8.2-6.3,13.2
		c-0.9,6.2,0.6,11.7,5.9,15.6c5,3.7,10.3,4,16,1.5c8.4-3.7,15.7-8.9,21.9-15.5c8.2-8.8,15.1-18.5,20.9-29c2.7-4.8,6.1-6.8,11.6-5.3
		c9.6,2.5,19.2,4.8,28.8,7.2c1.8,0.5,3.6,1.2,6.7,2.2c-5,2.5-9,4.1-12.5,6.3c-6.3,3.9-12.7,7.7-18.3,12.6c-5.8,5.1-9.4,12.1-10.6,20
		c-1.5,10,4.3,16.9,14.4,16.9c3.7,0,7.7-0.9,11.1-2.4c9.7-4.2,17.6-10.7,23.7-19.5c4.6-6.7,9.4-13.2,14.1-19.9
		c3-4.3,6.7-5.8,11.7-3.8c14.8,5.9,29.7,11.9,44.5,17.8c-0.1,0.7-0.2,1.4-0.2,2c-3.8,1.1-7.8,1.8-11.5,3.3c-8,3-16,6.1-23.7,9.8
		c-5.5,2.7-9.9,7-13,12.5c-3.9,7-3.7,13.9,0.7,20.4c4.3,6.3,10.9,8.4,17.9,6.7c6-1.5,12.1-3.9,17.4-7.1c11.8-7.1,22-16.4,30.7-27.2
		c2.1-2.6,4.4-5,7.1-8c10.4,5.9,20.3,11.5,30.8,17.4c1.2-3.6,2.1-6.3,3-9.1c-9.5-6.2-18.5-12.1-27.1-17.7c0.9-4.4,2.1-8.1,2.3-11.9
		c1.2-20-2.4-39.1-11.8-56.9c-2.6-4.8-6.5-9.2-10.7-12.8c-6-5.2-14.4-4.5-20.6,0.4c-5.9,4.7-7.4,11-6.6,18.2
		c0.9,7.5,3.8,14.4,7.7,20.8c4.9,8.3,10.3,16.4,15.5,24.6c1.4,2.2,2.6,4.4,3.9,6.6c-18.7-6.1-36.5-13.2-54.3-20.2
		c-3.6-1.4-4.2-3.8-4.4-7.3C728.1,121,722,104,710.5,89c-5.2-6.8-11.9-11.6-20.5-13.4c-13-2.8-21.7,5.5-18.5,18.5
		c1.2,5.1,3.9,10.2,7.1,14.4c5,6.6,10.9,12.5,16.5,18.8c2.1,2.4,4.2,4.7,6.3,7.1c-0.3,0.4-0.5,0.9-0.8,1.3
		c-14.2-3-28.5-5.9-42.5-8.8c-0.8-4.2-1.1-7.9-2.2-11.3c-5.5-17.1-15.1-31.7-28.9-43.3c-3.8-3.2-8.9-5.4-13.8-6.7
		c-6.2-1.8-10.9,0.9-14.3,6.3c-4.7,7.6-3.4,15,1.7,21.4c4.6,5.8,10.1,10.8,15.5,15.9c5.1,4.7,10.6,8.9,16,13.4
		c-0.2,0.5-0.3,1-0.5,1.5c-11.6-0.7-23.2-1.3-34.8-2.2c-1.6-0.1-3.4-1.3-4.6-2.5c-3.7-3.9-8.3-6.1-13.2-7.9
		c-12.1-4.5-24.5-7.7-37.5-7.4c-6.2,0.2-12.2,1.2-17.3,5c-6.2,4.6-9.6,10.9-8.8,18.7C516.3,135.1,521.7,139,528.4,140.9z"/>
	<path d="M344.4,189.5c2.5-0.2,4.9-0.6,7.3-1.1c16-3.7,28.9-12.1,39.1-24.9c2-2.5,3.7-5.3,6.3-7c11-7,23.1-11.8,36.2-16.3
		c-0.8,1.5-1,2.1-1.4,2.5c-9.9,9.9-13.2,22.2-13.5,35.7c0,1.8-0.1,3.6,0.2,5.4c0.9,5.3,3.7,6.5,7.9,3.3c2.3-1.8,4.2-4.1,6.5-5.9
		c13.7-10.7,20.4-24.7,20.4-42.1c0-6.6,1.1-7.6,7.5-9.1c4.6-1,9.2-1.9,14.5-3c-0.6-3.1-1.1-5.7-1.6-8.5c-4.2,0.4-7.6,0.4-10.9,1
		c-4.1,0.8-7.1-0.4-10.5-2.8c-18.2-13.1-38.7-19.9-61.1-21c-1.8-0.1-4.1,0.6-5.3,1.8c-0.6,0.6,0.4,3.3,1.2,4.8
		c1.2,2.2,2.7,4.1,4.3,6c7.5,9.1,17.1,15.2,28,19.3c2.7,1,5.5,2,9.3,3.3c-2.8,1.1-4.5,1.8-6.2,2.3c-6.4,2.2-13.2,3.6-19.1,6.7
		c-7.6,3.9-15.4,6.2-23.6,7.7c-4.6,0.9-9.2,2.1-13.8,3.4c-7.7,2.2-14.4,6.4-19.9,12.3c-4.7,5-8.1,10.8-9.2,17.7
		C335.9,187.9,337.7,190,344.4,189.5z"/>
	<path d="M487,100c6.4,3.4,14.5,1.1,18-5.3c3.6-6.3,1.3-14.4-5-18.1c-6.2-3.6-14.5-1.4-18.2,4.8C478,87.8,480.4,96.4,487,100z"/>
	<path d="M287.3,211.8c8.8,0,8.8-13.7,0-13.7C278.5,198.1,278.5,211.8,287.3,211.8z"/>
	<path d="M858.4,236.5c8.8,0,8.8-13.7,0-13.7C849.6,222.8,849.6,236.5,858.4,236.5z"/>
	<path d="M717.3,463.5c8.8,0,8.8-13.7,0-13.7C708.4,449.8,708.4,463.5,717.3,463.5z"/>
	<path d="M926.3,716.6c-8.8,0-8.8,13.7,0,13.7C935.1,730.3,935.1,716.6,926.3,716.6z"/>
	<path d="M560.8,409.6c8.8,0,8.8-13.7,0-13.7C552,395.9,552,409.6,560.8,409.6z"/>
	<path d="M130,442.7c8.8,0,8.8-13.7,0-13.7C121.2,429,121.2,442.7,130,442.7z"/>
	<path d="M140,720.8c-8.8,0-8.8,13.7,0,13.7C148.8,734.5,148.8,720.8,140,720.8z"/>
	<path d="M308.9,446.8c-8.8,0-8.8,13.7,0,13.7C317.7,460.5,317.7,446.8,308.9,446.8z"/>
	<path d="M246.2,881.5c-8.8,0-8.8,13.7,0,13.7C255,895.2,255,881.5,246.2,881.5z"/>
	<path d="M811.9,899.3c-8.8,0-8.8,13.7,0,13.7C820.7,913,820.7,899.3,811.9,899.3z"/>
	<path d="M599.6,870.6c-8.8,0-8.8,13.7,0,13.7C608.4,884.3,608.4,870.6,599.6,870.6z"/>
</g>
</svg>
