<?xml version="1.0" encoding="utf-8"?>
<!-- Generator: Adobe Illustrator 22.0.0, SVG Export Plug-In . SVG Version: 6.00 Build 0)  -->
<svg version="1.1" id="Layer_1" xmlns="http://www.w3.org/2000/svg" xmlns:xlink="http://www.w3.org/1999/xlink" x="0px" y="0px"
	 viewBox="0 0 1080 1080" style="enable-background:new 0 0 1080 1080;" xml:space="preserve">
<style type="text/css">
	.st0{fill:#050505;}
</style>
<g>
	<g>
		<path class="st0" d="M492.5,276c0.5,4.3,0.5,8.6,0,12.9c-1.2,9.6-4.7,17.5-10.4,23.7c-5.8,6.2-12.6,11.3-20.7,15.1
			c-8,3.8-16.6,6.5-25.7,8.1c-9.1,1.6-17.6,2.5-25.5,2.7c-7.4,0-14.3-0.4-20.7-1.1c-6.4-0.7-12.6-1.9-18.7-3.4
			c-6.1-1.6-12.2-3.5-18.3-5.8c-6.1-2.3-12.4-5-18.9-8.1c-0.5-0.5-1.4-1.1-2.9-1.8s-3-1.4-4.7-2.2c-1.7-1-3.5-1.9-5.4-2.9
			c-3.1,4.3-6.1,8.7-8.8,13.1c-2.8,4.4-5.5,9-8.1,13.8c-11.7,21.1-19.7,43.3-23.9,66.5c-4.2,23.2-5.7,46.9-4.5,70.8
			c0.5,8.2,1.5,16.5,3.1,25.2c1.6,8.6,4.2,16.5,7.9,23.5c3.7,7.1,8.7,12.8,15.1,17.3c6.3,4.4,14.7,6.7,25,6.7c5,0,10-0.7,14.9-2.2
			c4.9-1.4,9.4-3.6,13.5-6.5c7.9-5.5,15.5-12.9,22.8-22.3c7.3-9.3,14.1-19.4,20.5-30.2c6.3-10.8,12.2-21.7,17.4-32.7
			c5.3-11,9.8-21,13.7-29.8c-1.9,1-3.9,1.9-5.9,2.7c-2,0.8-4.1,1.6-6.3,2.3c-6.2,2.6-12.6,4.7-19.2,6.1c-6.6,1.4-13.4,2.2-20.3,2.2
			c-2.2,0-5-0.2-8.6-0.7c-3.6-0.5-7.3-1.1-11.1-2c-3.8-0.8-7.3-1.9-10.2-3.2c-3-1.3-4.9-2.8-5.6-4.5c-1-1.9-0.7-3.7,0.7-5.2
			c1.4-1.6,2.9-2.6,4.3-3.1c0.5-0.2,1.1-0.4,1.8-0.4c1.4,0,2.9,0.4,4.3,1.1c1.4,0.7,2.8,1.3,4,1.8c5.5,2.2,10.9,3.2,16.2,3.2
			c5.8,0,11.4-0.8,17.1-2.5c5.6-1.7,11.1-3.5,16.4-5.4c9.1-3.4,16.4-7.2,21.8-11.7c5.4-4.4,8.9-7.2,10.6-8.4
			c0.7-0.5,1.8-0.7,3.2-0.7c1.2,0,2.4,0.3,3.6,0.9c1.2,0.6,2.4,1.3,3.6,2c1.4,1.2,2.8,2.5,4.1,4c1.3,1.4,2,3.1,2,5
			c-0.2,2.2-0.8,4.2-1.6,6.1c-0.8,1.9-1.6,3.8-2.3,5.8c-2.2,5.5-4.3,11.6-6.3,18.3c-2,6.7-4,13.6-5.8,20.7c-1.8,7.1-3.4,14-4.7,20.9
			c-1.3,6.8-2.5,13.1-3.4,18.9c-0.7,4.6-1.7,11.4-2.9,20.5c-1.2,9.1-1.1,18.5,0.4,28c0.5,2.4,0.9,4.7,1.3,7c0.4,2.3,0.8,4.6,1.3,7
			c0.5,1.2,0.8,2.4,0.9,3.6c0.1,1.2-0.1,2.4-0.5,3.6c-1,1.7-2.4,2.5-4.3,2.5c-1.7,0-3.1-0.6-4.3-1.8c-0.2-0.5-0.7-1.8-1.4-4
			c-0.7-2.2-1.4-4.9-2.2-8.1c-0.7-3.2-1.4-6.8-2.2-10.8c-0.7-4-1.2-7.9-1.4-11.7c-0.5-9.1-0.3-18.2,0.5-27.3
			c0.8-9.1,2-18.2,3.4-27.3c-5.3,8.4-11.1,17.3-17.4,26.6c-6.4,9.3-13.4,18-21,25.9c-7.7,7.9-16.2,14.4-25.5,19.6
			c-9.3,5.2-19.5,7.7-30.6,7.7c-13.2,0-24.1-2.9-32.7-8.8c-8.6-5.9-15.5-13.5-20.7-22.8c-5.2-9.3-8.8-19.7-11-31.1
			c-2.2-11.4-3.5-22.6-4-33.6c-0.7-14.6-0.3-29.2,1.3-43.7c1.6-14.5,4.5-28.8,8.8-43c4.1-13.7,9.3-26.7,15.8-39.2
			c6.5-12.5,14-24.2,22.7-35.2c-5.8-3.6-11.5-7.2-17.3-10.8c-5.8-3.6-11.6-6.9-17.6-9.9c-6-3-12.2-5.5-18.5-7.5
			c-6.3-2-12.9-3.3-19.6-3.8c-14.6,0-28.9,2.7-42.8,8.1c-13.9,5.4-25.4,14.1-34.5,26.1c-0.5,0.5-1,1.2-1.6,2.2
			c-0.6,1-1.5,1.4-2.7,1.4l-1.4-0.7c-1.2-1-1.3-2-0.4-3.2c1-1.2,1.7-2.2,2.2-2.9c10.1-11.3,21.7-20.3,34.9-27
			c13.2-6.7,27.3-10.1,42.4-10.1c5,0,10.5,0.6,16.5,1.8c12,2.4,23.2,6.6,33.6,12.6c10.4,6,20.8,12,31.1,18
			c6.9-8.4,14.7-16.6,23.4-24.6c8.6-8,17.9-15.1,27.7-21.2c9.8-6.1,20.1-11,30.9-14.7c10.8-3.7,21.9-5.6,33.4-5.6
			c7.2,0,14.5,0.8,21.9,2.3c7.4,1.6,14.3,4,20.5,7.4c6.2,3.4,11.6,7.9,16.2,13.5C488.4,261.3,491.3,268.1,492.5,276z M483.5,283.9
			c0.5-7.4-1.3-14-5.4-19.8c-4.1-5.8-9.2-10.3-15.5-13.7c-10.8-5.5-21.8-8.3-33.1-8.3c-10.3,0-20.4,2-30.2,5.9
			c-9.8,4-19.2,9-28.2,15.3c-9,6.2-17.4,13.2-25.2,21c-7.8,7.8-14.7,15.5-20.7,23.2c12.5,7,25.5,12.5,39,16.7
			c13.5,4.2,27.5,6.3,41.9,6.3c7.4,0,15.5-0.7,24.3-2.2c8.7-1.4,17-4,24.8-7.5c7.8-3.6,14.3-8.4,19.6-14.4
			C480.1,300.6,483,293,483.5,283.9z"/>
		<path class="st0" d="M565.1,429.5c1.2,0.5,1.6,1.3,1.3,2.5c-0.4,1.2-0.8,2.3-1.3,3.2c-1.2,3.4-2.9,7.3-5,11.7
			c-2.2,4.4-4.4,8.9-6.8,13.5c-2.4,4.6-4.9,9-7.4,13.3c-2.5,4.3-4.7,7.9-6.7,10.8c-2.4,3.8-5,7.7-7.7,11.7c-2.8,4-6.2,7.1-10.2,9.5
			c-1.9,1.2-4,1.8-6.1,1.8c-1.9,0-3.5-0.5-4.7-1.4c-1.9-1.2-3.2-2.7-4-4.5c-0.7-1.8-1.3-3.7-1.8-5.6c-1-4.8-1.3-9.6-0.9-14.6
			c0.4-4.9,0.8-9.8,1.3-14.6c-2.6,4.1-5.9,7.9-9.7,11.3c-3.8,3.5-8.1,5.2-12.9,5.2c-3.6,0-6.7-0.9-9.2-2.7c-2.5-1.8-4.6-4-6.3-6.7
			c-1.7-2.6-2.9-5.6-3.6-8.8c-0.7-3.2-1.1-6.4-1.1-9.5c0-4.3,0.7-9.2,2-14.6c1.3-5.4,3.2-10.5,5.8-15.5c2.5-4.9,5.6-9.2,9.3-12.8
			c3.7-3.6,8.1-5.6,13.1-6.1c0.5,0,1-0.1,1.4-0.2c0.5-0.1,1-0.2,1.4-0.2c1.9,0,3.8,0.4,5.6,1.1c1.8,0.7,3.3,1.8,4.5,3.2
			c1.9,1.9,3.4,4.1,4.3,6.7c1,2.5,1.7,5.1,2.2,7.7c0.5-1.4,0.8-2.9,1.1-4.5c0.2-1.6,0.6-3.1,1.1-4.5c0.7-1.9,2-2.9,4-2.9h0.7
			c2.4,0.2,5,1.1,7.7,2.5c2.8,1.4,4.3,3.5,4.5,6.1c0.2,1.7,0,3.4-0.7,5c-0.7,1.7-1.3,3.2-1.8,4.7c-2.4,6.2-4.4,12.6-6.1,19.2
			c-1.7,6.6-3.1,13.2-4.3,20c-0.2,1-0.5,2.9-0.9,5.8c-0.4,2.9-0.7,5.8-1.1,8.8c-0.4,3-0.5,5.6-0.5,7.9s0.2,3.4,0.7,3.4
			c2.2,0,5.3-2.8,9.5-8.3c4.2-5.5,8.5-11.8,12.9-18.9c4.4-7.1,8.6-14,12.4-20.7c3.8-6.7,6.5-11.3,7.9-13.7c0.5-0.7,1.1-1.9,2-3.6
			c0.8-1.7,1.9-2.5,3.1-2.5C564.5,429.1,564.9,429.3,565.1,429.5z M494.3,466.9c0.7-1,1.7-2.3,3.1-4.1c1.3-1.8,2.6-3.7,3.8-5.8
			c1.2-2,2.3-3.9,3.2-5.6c1-1.7,1.6-2.8,1.8-3.2c0.7-1.2,1-2.5,0.9-4c-0.1-1.4-0.3-2.8-0.5-4c-0.5-2.4-0.9-4.7-1.3-7
			c-0.4-2.3-0.9-4.5-1.6-6.7c-0.5-1.2-1.1-3.1-2-5.8c-0.8-2.6-2.2-4-4.1-4c-1.4,0-2.8,0.8-4.1,2.5c-1.3,1.7-2.6,3.7-3.8,6.1
			c-1.2,2.4-2.2,4.7-3.1,6.8c-0.8,2.2-1.5,3.8-2,5c-1.2,4.1-2.3,8.4-3.4,12.9c-1.1,4.6-1.5,9.2-1.3,14c0.2,1.2,0.5,2.8,0.9,4.9
			c0.4,2,1.4,3.3,3.1,3.8h0.7c1.9,0,3.7-0.7,5.4-2.2C491.6,469.4,493.1,468.1,494.3,466.9z"/>
		<path class="st0" d="M766.1,429.1c1.2,1.2,1.4,2.4,0.7,3.6c-6.5,9.1-13.3,18.2-20.5,27.1c-7.2,9-15,17.3-23.4,25
			c-3.4,2.9-7.3,5.8-11.7,8.8c-4.4,3-9,4.5-13.8,4.5c-1.9,0-4.3-0.6-7.2-1.8c-4.3-1.9-7-5.3-7.9-10.1c-1-4.8-1.2-9.2-0.7-13.3
			c0.5-4.8,1.3-9.3,2.3-13.5c1.1-4.2,2.3-8.3,3.8-12.4c1.2-4.1,2.6-8,4.1-11.7c1.6-3.7,2.9-7.2,4.1-10.6c0.2-0.7,0.5-1.7,0.9-3.1
			c0.4-1.3,0.7-2.6,0.9-4c0.2-1.3,0.2-2.5,0-3.6c-0.2-1.1-0.8-1.7-1.8-2c-2.6,0-4.8,0.4-6.5,1.3c-1.7,0.8-3.6,1.9-5.8,3.1
			c-4.3,3.6-8.3,7.9-12,12.9c-3.7,5-7.1,10.4-10.1,16.2c-3,5.8-5.7,11.6-8.1,17.4c-2.4,5.9-4.6,11.3-6.5,16.4
			c-0.5,1.7-1,3.2-1.4,4.7c-0.5,1.4-1,2.9-1.4,4.3c-0.5,2.6-0.9,5.3-1.3,7.9c-0.4,2.6-0.8,5.3-1.3,7.9c-0.5,3.1-2.2,4.4-5,4h-1.8
			c-2.9-0.5-4.3-2-4.3-4.7c0.2-7,0.5-13.8,0.7-20.5c0.2-6.7,0.6-13.5,1.1-20.5c-1.9,3.6-3.9,7.2-5.9,10.8c-2,3.6-4.1,7.1-6.3,10.4
			c-2.4,3.8-5.3,8.2-8.6,12.9c-3.4,4.8-7,9.2-11,13.3c-4,4.1-8.2,7.5-12.8,10.4c-4.6,2.9-9.3,4.4-14.4,4.7c-4.8,0-8.9-1.4-12.2-4.1
			c-3.4-2.8-5.9-6.4-7.5-11c-1.2-4.1-2-8.3-2.3-12.6c-0.4-4.3-0.4-8.6-0.2-12.9c0-4.6,0.2-9,0.5-13.5c0.4-4.4,0.8-9,1.3-13.8
			c1.9-12.9,4-25.5,6.3-37.7c2.3-12.2,5.1-24.6,8.4-37c-0.7-0.2-1.4-0.5-2.2-0.7c-0.7-0.2-1.3-0.5-1.8-0.7
			c-4.8-1.7-10.2-2.9-16.2-3.6c-8.6,0-15.9,1.3-21.9,3.8c-6,2.5-11.1,7.9-15.5,16c-0.5,1-1.2,1.4-2.2,1.4c-0.5,0-0.8-0.1-1.1-0.4
			c-1.4-0.5-1.9-1.6-1.4-3.2c1.2-2.4,2.4-4.2,3.6-5.4c4.6-6.5,9.6-11.1,15.1-13.8c5.5-2.8,12.1-4.1,19.8-4.1h4.3
			c2.9,0.2,5.8,0.6,8.8,1.1c3,0.5,5.8,1.3,8.4,2.5c1,0.2,2.2,0.6,3.6,1.1c0.2-1.2,1.1-4.4,2.7-9.7c1.6-5.3,3.3-11.3,5.2-18.2
			c1.9-6.8,3.9-13.8,5.9-20.9c2-7.1,3.6-12.9,4.9-17.4c0.7-1.7,2.5-2.5,5.4-2.5c1.9,0,3.7,0.4,5.4,1.1l2.9,1.4
			c3.6,1.9,5,4.1,4.3,6.5c-1.4,4.3-3.4,9.9-5.8,16.9c-2.4,7-4.7,13.8-6.8,20.7c-2.2,6.8-4.1,12.9-5.8,18.3c-1.7,5.4-2.8,8.7-3.2,9.9
			c4.8,1.9,9.6,3.5,14.4,4.9c4.8,1.3,9.7,2.2,14.7,2.7h16.2c4.1-0.5,7.9-1.2,11.5-2.2c1-5.8,2.3-12.4,4-20
			c1.7-7.6,3.6-15.2,5.8-22.8c2.2-7.7,4.7-15,7.6-22.1c2.9-7.1,6.1-12.9,9.7-17.4c1.7-2.6,3.6-4.7,5.8-6.1c1-1,2.4-1.8,4.3-2.5
			c1-0.5,1.8-0.7,2.5-0.7c0.7-0.2,1.7-0.4,2.9-0.4c2.4,0,4.4,0.4,6.1,1.1c1.9,0.5,3.7,1.7,5.4,3.6c2.4,2.9,4.2,6,5.4,9.3
			c1.2,3.4,1.9,6.5,2,9.5c0.1,3-0.1,6.1-0.5,9.2c-0.5,5.8-1.7,11.5-3.8,17.3c-2,5.8-4.7,11.3-7.9,16.5c-3.2,5.3-7.1,10-11.5,14.2
			c-4.4,4.2-9.2,7.7-14.2,10.6c-1,0.7-2.4,1.6-4.3,2.5c-1.9,10.8-3.7,21.4-5.2,31.8c-1.6,10.4-3.2,21-4.9,31.8c0.5-1,1.2-2.6,2.2-5
			c1.9-4.3,4.3-9.2,7-14.6c2.8-5.4,6.1-10.5,9.9-15.5c3.8-4.9,8.1-9,12.8-12.2c4.7-3.2,9.6-4.9,14.9-4.9c5.8,0,10.1,2.2,12.9,6.5
			c1.9,3.1,2.9,6.5,3.1,10.2c0.1,3.7-0.1,7.3-0.5,10.6c-0.5,4.6-1.4,8.9-2.7,12.9c-1.3,4.1-2.6,8.2-3.8,12.2
			c-1.2,3.8-2.5,7.6-4,11.3c-1.4,3.7-2.6,7.4-3.6,11c-0.5,1.2-0.9,2.6-1.3,4.1c-0.4,1.6-0.4,2.9-0.2,4.1c0,1.7,1.1,2.8,3.2,3.2
			c4.1,0,9.2-2.5,15.3-7.4c6.1-4.9,12.3-10.7,18.7-17.3c6.3-6.6,12.2-13.1,17.4-19.4c5.3-6.3,9-11,11.1-13.8c1-0.5,1.7-0.7,2.2-0.7
			C765.3,428.8,765.8,428.9,766.1,429.1z M629.1,454.7c0.7-1.2,1.4-2.5,2.2-4c0.7-1.4,1.4-2.8,2.2-4c0.7-7.9,1.6-15.9,2.5-23.9
			c1-8,2-16.1,3.2-24.3c0-0.5,0.1-0.8,0.2-1.1c0.1-0.2,0.2-0.6,0.2-1.1c-1.7,0.2-3.2,0.4-4.7,0.5c-1.4,0.1-3,0.3-4.7,0.5
			c-9.1,0-17.1-0.5-24.1-1.4c-7-1-14.9-3.4-23.7-7.2c-1.7,5.5-3.3,10.9-4.9,16.2c-1.6,5.3-3.1,10.5-4.5,15.8c-1.9,8.4-3.6,17-5,25.7
			c-1.4,8.8-2.8,17.4-4,26.1c-0.5,4.1-0.8,8.3-1.1,12.6c-0.2,4.3-0.2,8.6,0,12.9c0,1.7,0.2,3.5,0.5,5.4c0.4,1.9,0.9,3.7,1.6,5.4
			c0.7,1.7,1.7,3.1,3.1,4.1c1.3,1.1,3.1,1.6,5.2,1.6c5.3,0.2,10.7-2,16.4-6.8c5.6-4.8,11-10.5,16.2-17.3c5.2-6.7,9.8-13.4,13.8-20.1
			C623.8,463.8,626.9,458.5,629.1,454.7z M673.7,323.4c-2.4,7.9-4.6,16.4-6.5,25.5c-1,5-1.9,10-2.7,14.9c-0.8,4.9-1.7,9.9-2.7,14.9
			c8.4-5.5,15.3-12.8,20.9-21.9c5.5-9.1,8.6-18.8,9.3-29.1c0.7-5.8,0.2-10.7-1.4-14.7c-0.7-2.4-1.7-4.2-2.9-5.4
			c-1.2-1-2.6-1.4-4.3-1.4c-0.5,0-1.2,0.6-2.2,1.8c-1.2,1.2-2.2,2.6-2.9,4.3c-1,1.7-1.8,3.5-2.5,5.4
			C675.1,319.6,674.4,321.5,673.7,323.4z"/>
		<path class="st0" d="M856.3,429.5c1.2,1,1.4,2,0.7,3.2c-0.7,1.2-1.4,2.2-2.2,2.9c-2.6,4.1-5.8,8.3-9.5,12.6
			c-3.7,4.3-7.7,8.4-12,12.4c-4.3,4-8.8,7.6-13.3,11c-4.6,3.4-9,6.1-13.3,8.3c-5.5,2.4-10.5,4.1-15.1,5c-1.9,0.2-3.7,0.5-5.4,0.7
			c-1.7,0.2-3.5,0.4-5.4,0.4c-2.2,0-3.7-0.1-4.7-0.4c-4.1-0.5-7.7-1.8-10.8-4c-3.1-2.2-5.6-4.9-7.5-8.3c-2.6-4.3-4.3-9.1-4.9-14.4
			c-0.6-5.3-0.4-10.5,0.5-15.6c1-5.2,2.6-10.2,5-15.1c2.4-4.9,5.3-9.2,8.6-12.8c3.4-3.8,7.4-6.9,12-9.3c4.7-2.4,9.8-3.6,15.3-3.6
			c6,0,10.9,1.3,14.7,4c3.8,2.6,5.8,7.2,5.8,13.7c0.2,4.8-0.8,9.5-3.2,14c-2.4,4.6-5.5,8.3-9.3,11.1c-5,3.6-10.7,5.4-16.9,5.4
			c-4.6,0-9.1-1-13.7-2.9c-0.7,3.8-1,8.2-0.9,13.1c0.1,4.9,1.9,8.7,5.2,11.3c1.4,1.2,3,2,4.7,2.5c1.7,0.5,3.5,0.7,5.4,0.7
			c1.7,0,3.3-0.1,4.9-0.4c1.6-0.2,3.2-0.6,4.9-1.1c5.5-1.7,10.9-4.1,16.2-7.2c5.3-3.1,10.3-6.7,15.1-10.6c4.8-4,9.3-8.1,13.5-12.6
			c4.2-4.4,8.1-8.8,11.7-13.1c1-1,1.8-1.4,2.5-1.4C855.6,429.1,856,429.3,856.3,429.5z M798.8,413c-2.4,0-4.7,0.7-7,2
			c-2.3,1.3-4.4,3-6.3,5c-1.9,2-3.7,4.3-5.2,6.7c-1.6,2.4-2.8,4.7-3.8,6.8c-0.2,0.5-0.5,1.1-0.7,2c-0.2,0.8-0.6,1.9-1.1,3.1
			c-0.5,1.2-1,2.4-1.4,3.6c0,0.7,1.5,1.3,4.5,1.6c3,0.4,4.9,0.5,5.6,0.5c5.8,0,10.6-1.6,14.6-4.9c4-3.2,6.5-7.6,7.7-13.1
			c0.5-1.4,0.7-3,0.7-4.7c0-1.7-0.2-3.1-0.7-4.3C804.4,414.4,802.1,413,798.8,413z"/>
		<path class="st0" d="M929.6,429.1c1.7,0.5,2.2,1.7,1.6,3.6c-0.6,1.9-1.1,3.4-1.6,4.3c-3.8,11.5-8,22.8-12.4,33.8
			c-4.4,11-9.4,21.8-14.9,32.4c-1.4,2.9-3.4,6.3-5.8,10.4c-2.4,4.1-5.1,8-8.1,11.7c-3,3.7-6.3,6.9-9.9,9.5c-3.6,2.6-7.4,4-11.5,4
			c-2.2,0-4.1-0.5-5.8-1.6c-1.7-1.1-2.9-3.1-3.6-5.9c-0.7-2.6-1.1-5.3-1.1-8.1c0-2.8,0.1-5.5,0.4-8.1c0.5-3.1,1-6.1,1.4-9
			c0.5-2.9,1-5.9,1.4-9c0.7-3.1,1.7-7,2.9-11.7c1.2-4.7,2.5-9.3,3.8-14c1.3-4.7,2.5-8.9,3.4-12.6c1-3.7,1.4-5.9,1.4-6.7
			c0.2-1.2,0.4-2.4,0.5-3.6c0.1-1.2-0.1-2.4-0.5-3.6c-1.2-2.2-3-3.7-5.4-4.5c-2.4-0.8-4.6-1.7-6.5-2.7c-5-2.2-9.6-5.1-13.8-8.8
			c-4.2-3.7-6.4-8.6-6.7-14.6c-0.5-6,1.3-11,5.4-15.1c2.4-2.4,5.4-3.6,9-3.6c1.9,0,3.7,0.5,5.4,1.4c2.6,1.4,4.2,3.6,4.7,6.5
			c0.5,2.9,0.5,5.6,0,8.3c-0.5,6-1.9,11.5-4.3,16.5c3.6,1.4,7.3,2.8,11.1,4c3.8,1.2,7.1,3.5,9.7,6.8c2.2,2.9,3.6,6.1,4.3,9.5
			c0.7,3.5,1.1,7,1.1,10.6c0,4.1-0.2,8-0.7,11.9c-0.5,3.8-1.1,7.7-1.8,11.5c-0.5,1.9-1.5,5.3-3.1,10.2c-1.6,4.9-3.1,9.9-4.7,15.1
			c-1.6,5.2-2.7,9.7-3.4,13.7c-0.7,4-0.5,5.9,0.7,5.9c1.9,0,4.6-2.3,8.1-7c3.5-4.7,7.1-10.2,11-16.5c3.8-6.4,7.5-12.8,11-19.2
			c3.5-6.5,6-11.5,7.7-15.1c0.7-1.9,1.8-4.5,3.2-7.7c1.4-3.2,2.9-6.6,4.3-10.1c1.4-3.5,2.8-6.7,4.1-9.5c1.3-2.9,2.1-4.8,2.3-5.8
			c0.5-1.2,1-2.8,1.6-4.7c0.6-1.9,1.6-2.9,3.1-2.9H929.6z M851.3,423.7c0.5,0.5,1.1,0.9,1.8,1.3c0.7,0.4,1.3,0.8,1.8,1.3
			c0.5-1.2,1.2-3.2,2.2-5.9c1-2.8,1.6-5.6,2-8.4c0.4-2.9,0.2-5.4-0.4-7.7c-0.6-2.3-2.1-3.4-4.5-3.4h-1.1c-2.6,0.5-4.5,1.9-5.7,4.1
			c-1.2,2.3-1.8,4.5-1.8,6.7C845,416.6,846.9,420.6,851.3,423.7z"/>
	</g>
	<g>
		<path class="st0" d="M484,623.5c0.6,2.9,0.6,5.8-0.3,9.4c-8.8-1.3-20.1-1.6-33.4-1c-23,1-57.1,4.9-105.1,16.2
			c-2.3,0.3-3.9,1-5.5,1.3l-0.6,2.9l-1.3,6.5c0,1.9-10.1,48-9.1,75.9c-0.3,24.3,2.6,38,6.2,46.7c1.9,4.9,3.9,8.8,6.2,11
			c-0.3,0-0.3,0-0.6,0.3l-2.3,1c-2.9,1.3-7.1,2.9-12,3.9c-4.2,1-7.8-3.6-11.4-11c-2.9-5.8-4.9-14-5.8-24.3V762
			c-1.3-16.5-0.3-37.6,2.6-60.7l2.6-19.5l0.3-0.3c0-1.3,0.3-2.6,0.6-4.2c0-0.6,0-1,0.3-1.3c0-1,0.3-2.3,0.6-3.9v-1l3.6-16.9
			c-25,6.2-38,9.4-44.8,11.7c-3.9,1.3-6.2,2.3-7.1,2.9c-1-0.3-1.6-1-2.3-1.9c-1-1.6-1-3.6,0-5.8c1-1.6,2.6-3.2,4.9-4.5
			c1-0.6,2.3-1,3.6-1.3l13.6-4.2c8.8-2.6,20.8-6.2,35.4-10.1c3.9-16.5,8.4-32.8,13.6-48.7l2.9-9.7c6.5-1.9,13-1.3,19.8,1.6
			c-6.2,16.5-11,32.4-14.9,47.7c-0.3,1-1,2.3-1.3,3.9c38.6-9.4,87.6-19.8,129.8-21.4C480.1,614.1,483,618.6,484,623.5z"/>
		<path class="st0" d="M443.1,733.5c-1.9,5.8-4.2,11-6.8,15.2c-4.9,7.8-11.4,15.3-19.5,15.3c-1.9,0-3.6-0.3-5.2-1
			c-6.5,18.2-15.9,34.4-30.2,43.2c-24.3,14.6-41.9-29.5-29.9-84c12-54.2,31.1-61.3,36.7-62.9c5.5-1.6,21.7-4.5,29.5,8.4
			c7.8,12.3,2.3,20.8-1.3,20.8c-1.6,0.3-3.2,0.3-4.2,0.3c-0.6,0-1.3,0-1.6,0.3c0.6-3.2,1-6.2,1.3-9.1c0.3-4.9-0.3-10.7-3.9-13.3
			c-6.5-4.9-25.6,14.3-36.7,55.5c-10.4,41.2-1,79.2,4.2,75.6c14-8.8,22.4-26.6,27.6-44.8c-6.8-17.8-3.6-50.3,1-52.9
			c3.6-2.3,8.1-2.9,12-3.2c2.6-0.3,5.2-1,6.2,0c1.3,1.3,0.3,27.9-7.5,55.8c0.6,1.3,1.6,1.9,2.9,1.6c2.9-1,7.8-7.1,11.4-13.3
			c2.3-3.6,4.2-7.8,6.5-12C439.9,728.9,441.5,730.9,443.1,733.5z"/>
		<path class="st0" d="M507.7,691.3c-1,27.6-7.5,97.3-42.2,151.8c-14.3,22.1-29.5,32.4-41.5,37.6c-7.1,2.9-14,4.5-20.1,4.9
			c-12,0-24-22.1-20.8-23.7c14.6,4.2,53.5-0.6,78.5-51.3c14.9-29.8,21.7-66.8,26-95.1c-8.8,24.7-21.4,54.8-31.8,57.4
			c-9.1,2.3-14.9,0.6-18.5-1.6c-2.3-1-3.9-2.6-5.2-4.2c-0.3-6.2-0.3-13.3,0.6-21.1c1-13.3,3.9-32.4,10.1-54.5
			c10.4-39.3,33.1-30.2,38.9-28.6c1.6,1,2.9,1.9,3.9,3.2c1.3,2.3,1,6.2-5.5,11.7c-0.3,0.3-5.8-25.6-16.9,7.1
			c-2.6,7.5-15.9,73-11,74.3c7.1,1.9,34.4-53.5,38-86.3c-1-3.6,0-2.9,0.3-2.9c0-0.3,17.5,1.9,17.2,6.5V691.3z"/>
		<path class="st0" d="M597.3,734.1c0,0.6,0,1.3-0.3,1.6c-4.5,10.4-9.4,20.1-14.6,29.2c-8.8,15.6-20.4,32.8-31.8,40.2
			c-24,15.6-41.9-29.5-29.9-84c12-54.2,31.1-61.3,36.7-62.9c6.2-1.6,17.5,0.6,25,7.5c6.5,6.5-7.5,48.7-30.5,49.6
			c-2.9,0.3-4.9-1-6.2-2.3c-1-1-1.6-1.6-1.9-2.3c-1,2.3-1.9,7.8-2.9,10.4c-11.4,41.5-1.3,76.9,3.9,74.3c9.1-4.5,19.8-21.1,29.2-36.7
			c5.5-9.1,10.7-19.1,16.2-30.2l2.3,0.6c1.3,0.3,2.3,1.3,3.2,1.6C596.6,731.8,597.3,732.8,597.3,734.1z M544.4,708.5
			c20.8-3.6,34.1-38.9,31.5-40.6C569.7,663,555.7,676,544.4,708.5z"/>
		<path class="st0" d="M570.3,625.1c0.3,0,0.3,0.3,0.6,0.3c-1,2.9-1,5.8-0.6,8.1c1,4.2,2.6,9.4,9.1,11.7c6.8,2.9,12,3.2,27.3-0.3
			l0.6-1c15.6-50.6,37-103.2,47.4-108.4c6.5-2.9,12.3-1,16.2,1.3c2.3,1.6,4.5,3.2,6.2,5.5c-1,0.6-1.9,1.6-3.2,2.9
			c-2.3,2.3-5.5,6.8-10.7,14.3c-5.2,7.8-20.1,35.7-34.7,78.2l0.3,0.6l40.9-13l10.4-3.2c11.4-29.8,23.4-53.2,33.4-59.7
			c5.8-3.6,18.8,2.9,19.5,5.2c-10.7,12.7-20.1,29.5-28.9,49c53.5-10.4,90.5-2.9,96,2.6c2.9,3.6,2.9,10.4,1.9,16.5
			c-0.6,3.6-1.6,7.5-2.6,11.4c-1.3-2.9-4.5-5.5-9.4-7.8c-8.8-3.9-25-7.8-56.1-7.5c-13,0.3-25.3,1-37.3,3.2
			c-20.8,55.2-30.2,119.1-20.8,136.9c2.6-26.6,32.4-94.1,55.2-97.7c10.4-1.6,23.7,4.9,23.7,13.6c0,18.5-42.8,115.5-26.9,109
			c3.6-1.6,13.3-18.5,21.1-35c4.9-9.7,9.7-20.8,15.3-32.8l7.5,1.9c-5.8,15.9-11.7,29.9-17.2,42.2c-9.7,21.1-20.1,42.2-26.6,41.2
			c-11.7-1-20.1-6.2-21.4-19.5c-1.3-4.9,11.7-69.8,24.3-102.2c0-0.6,0.6-10.1-5.5-3.9c-10.1,10.1-36,50.6-41.2,99.6
			c-1.3,1-4.5,1-7.5,1.9l-5.8,1c-3.2-0.3-6.2-1.9-8.4-4.9c-4.2-5.2-8.4-15.6-8.4-37.3c0-9.4,0.6-19.8,2.3-31.1
			c-14.6,39.9-30.8,77.5-39.3,78.5c-10.7,2.3-17.8-2.9-22.7-8.4c-3.6-6.8-5.5-16.2-6.5-31.5c-1.3-27.3,4.5-59.7,15.9-99.9h-1.3
			c-6.5,1-12.3,1.3-17.2,1c-25-1.6-28.9-12.7-29.9-17.2C556.1,635.8,555.7,631.9,570.3,625.1z M605.7,745.8c0,6.8,0.3,21.4,3.9,31.8
			c10.4,21.7,49.3-95.1,63.6-137.9c-18.2,3.9-34.7,8.4-49.3,12.3c-4.2,14-6.8,21.4-11,40.2C607.6,714.3,605.7,731.8,605.7,745.8z"/>
		<path class="st0" d="M852.6,666.6c-26.6-7.8-45.1-21.7-32.4-50.6c12.3-27.9,50.9-18.8,53.5,5.2c0,13.3-4.9,30.5-10.1,40.6
			l15.6,7.5c12,6.2,17.5,12.3,16.9,18.5c-3.9,38-32.8,101.6-22.7,102.9c8.1,1.3,34.1-49.6,36.3-61.6c2.3-0.6,3.9,0.3,4.9,2.9
			c-4.5,18.5-17.5,57.4-32.8,68.1c-8.1,2.3-28.9-3.2-32.4-20.8c2.6-26.9,38.6-93.8,32.1-99c-8.1-6.2-15.6-7.8-20.8-11.4
			c-12.7,35.7-27.9,84.7-58.7,106.1c-27.6,18.8-49.3-15.2-37.3-55.2c6.5-21.7,17.2-32.8,27.3-37.6c4.9-2.3,10.4-3.2,16.9-2.6
			c1,0,2.6,0.6,5.2,1.6c10.4,5.2,10.7,22.7,2.6,35c-7.5,11.7-12.3,16.2-22.4,16.5c-2.9,0.3-5.5,0-7.8-1.6c-1.3-0.3-2.3-1.3-2.6-1.6
			c-0.3-0.3-0.6-0.3-0.6-0.6c-4.2,14.6-7.5,38,7.1,39.6c11.4,1,26-21.1,33.1-33.4C837.4,708.8,847.4,679.6,852.6,666.6z
			 M786.4,723.1c2.9,3.6,8.1,4.9,16.9-6.8c6.5-9.1,8.8-15.9,9.1-21.1H812c0.3-0.3,0.3-0.3,0.3-0.6v-4.9c0-2.3-2.3-3.9-4.5-2.6
			c-4.2,2.3-9.4,8.8-14.3,16.5c-2.9,4.9-5.5,10.1-7.8,16.2C785.1,720.8,785.4,722.1,786.4,723.1z M860.4,616.6
			c-6.2-5.2-13,0.3-17.2,7.8c-3.6,6.2-4.9,14-3.2,19.1c3.9,12,15.9,14,15.9,14S871.7,626.1,860.4,616.6z"/>
	</g>
	<g>
		<path class="st0" d="M734.6,206c-1.3,4,0.2,6.6,2.2,9.5c10.9,15.8,14.6,33.5,13.8,52.4c-0.1,2.3-0.3,4.1,1.9,5.7
			c10.6,7.9,21.1,16.1,32.1,23.4c0.6,0.4,1.2,0.8,2.4,0.4c-5.9-14.2-6.7-29.6-10.1-44.5c-0.5-2.4-2.1-5.5,0.9-7
			c3.2-1.6,4.4,1.7,5.9,3.6c6.3,8.2,11.5,17.1,16,26.4c4.4,9.2,5.8,18.5,2.9,28.4c-0.6,1.9-0.9,3.5,1.2,4.7
			c12,7.4,24.7,13.6,37.8,18.4c1-1.3,0.2-1.8-0.2-2.3c-6.6-8-10.6-17.2-12.9-27.2c-1.9-8.2-3.7-16.5-5.6-24.8
			c-0.2-0.9-0.4-1.8-0.4-2.7c0.1-3,2.5-4.3,4.9-2.5c1.4,1.1,2.7,2.5,3.8,4c8,10.2,14.9,21.1,20.4,32.7c3.8,7.9,6.5,16.1,5.6,25
			c-0.3,2.8,1.3,3.5,3.4,4c12.6,3.3,25.3,6.5,38.2,8.9c7.8,1.5,15.6,2.6,23.5,3.1c1.7,0.1,4.3-0.2,4.3,2.3c-0.1,3-2.9,2.2-4.8,2.1
			c-11.4-0.4-22.7-2.5-33.8-4.7c-3.8-0.8-7.6-1.6-11.3-2.6c-2.2-0.6-3.5,0-4.5,2c-2.6,5.5-7.4,8.7-12.6,11.1
			c-13.1,6-27,9.8-40.7,13.9c-2,0.6-4.1,0.8-5.6-1.1c-1.4-2-0.4-3.9,0.8-5.6c0.9-1.2,1.7-2.4,2.8-3.4c10.3-10.1,21.7-18.2,36.5-20.4
			c1-0.1,2.3,0.1,2.9-1.1c-0.1-1-0.9-1.1-1.6-1.2c-8.8-2-17.1-5.6-25.4-9.2c-4.1-1.8-4.1-1.7-7,1.9c-3.4,4.3-8,7-12.9,9.1
			c-6.2,2.6-12.7,3.7-19.3,4.4c-9.3,0.9-18.7,1.7-28,2.6c-0.5,0.1-1.1,0.2-1.6,0.1c-1.7,0-3.5-0.2-4.2-2c-0.7-1.8,0.1-3.4,1.4-4.5
			c2.1-1.8,4.3-3.5,6.6-4.9c12.7-7.8,26.5-12.8,41.5-13.8c1.8-0.1,3.7,0.1,5.9-0.9c-1.1-0.8-2-1.6-3-2.1
			c-8.1-4.4-15.9-9.2-23.5-14.4c-2.5-1.7-4.2-2.1-6.5,0.3c-10.3,10.7-23.3,15-37.9,15.4c-6.6,0.2-13.2-0.1-19.8-1
			c-1.5-0.2-2.9-0.3-4.2-1.1c-2.3-1.4-2.7-3.6-1-5.6c1.6-1.9,3.7-3.1,5.9-4c15.4-6.3,30.9-11.8,47.8-12.2c0.7,0,1.4-0.2,2.5-0.4
			c-7.4-5.8-14.5-11.3-21.6-16.9c-1.6-1.3-2.9-1-4.5,0c-8,5.1-17,6.7-26.4,7c-10.2,0.3-20.2-0.5-30.2-2.6c-2.7-0.6-4.6-0.6-6.8,1.7
			c-3,3.2-7.5,2.9-11.1,0.2c-3.3-2.5-4.8-7.5-3.5-10.9c2.5-6.1,11.3-7,14.7-1c2.7,4.8,6.4,5.4,10.7,6.1c10.6,1.7,21.2,2.1,31.9,1.1
			c5.7-0.6,11.2-1.8,16.1-5.4c-6.6-0.8-13.1-1.3-19.6-2.6c-13.7-2.7-26.4-8-38.4-15c-3.2-1.9-5.9-3.3-10.1-1.5
			c-5.3,2.3-10.4-2.6-9.6-8.4c0.4-2.9,1.6-5.2,4.1-6.9c5.5-3.8,12.1-0.9,12.6,5.7c0.2,2.4,0.4,4.1,2.7,5.4
			c14.5,8.3,29.6,14.9,46.2,17.3c1.4,0.2,2.9,0.6,5-0.2c-3.4-1.5-6.5-2.8-9.4-4.2c-13.4-6.5-25.1-15.3-35-26.5
			c-2.3-2.6-4.4-4.7-8.7-4.4c-5,0.4-8.4-4.2-7.9-9.2c0.4-4.5,4-7.6,8.7-7.4c4.6,0.1,8.8,4,8,8.7c-0.8,4.5,1.5,6.7,4,9.4
			c9.7,10.8,21.1,19.3,34.1,25.8c3.2,1.6,6.6,2.9,10.1,3.8c0.5-2-0.8-2.8-1.5-3.7c-4.7-5.9-10.3-11-16.6-15.3c-1.6-1.1-2.9-1.5-5-1
			c-5.3,1.5-9.5-1.4-10.6-6.7c-1.1-4.9,1.8-9.8,6.3-10.7c4.3-0.8,9.3,2.4,9.2,7.3c-0.1,5,2.6,7.1,6,9.4c4.5,3.1,8.2,7.3,12.7,11.6
			c0-2.1-0.7-3.3-1.3-4.5c-7.3-15.3-17.9-27.7-31.5-37.8c-1.9-1.4-3.5-1.2-5.6-0.8c-7,1.3-12.4-4.2-10.7-10.6
			c1.1-4.3,5.2-7.1,9.5-6.6c5.2,0.6,8.6,4.1,8.1,9.3c-0.3,2.9,0.7,4.4,2.7,5.9c15.9,11.6,27.2,26.7,34.3,45.1
			c0.2,0.5,0.5,0.9,0.9,1.5c1.1-1.7,0.3-3.3,0.1-4.8c-1.5-12.9-6.3-24.5-13.8-35.1c-1.3-1.8-2.4-3.7-5.2-3.2c-1,0.2-2.2-0.3-3.2-0.7
			c-4.3-1.8-6.7-6.6-5.3-10.9c1.2-3.7,5.6-6.1,9.8-5.3C732,197.2,736,201.9,734.6,206z M868.2,342.1c-18.7,1.4-35.2,6.7-47.3,21.7
			c10.7-3.1,21.3-6.6,31.9-10.1c3.3-1.1,6.5-2.6,9.4-4.6C864.6,347.4,867.1,345.7,868.2,342.1z M819.5,325.4
			c-19.8-1.2-45.8,6.1-53.4,14.9c10.3-1.1,20.4-1.2,30.3-2.8c5.5-0.9,10.8-2.3,15.6-5.1C814.9,330.7,817.6,329,819.5,325.4z
			 M774.4,301.4c-8.9-3.5-38.6,3-51.3,11.5C741.4,314.8,759.3,315.4,774.4,301.4z M852,328.2c-0.3-19.3-11.6-33.8-21.8-48.7
			C833.1,297.7,836,315.8,852,328.2z M794.7,301.2c0.7,0.9,1,2.4,2.9,2.1c1.6-4.6,2.2-9.3,1.3-14.1c-2.2-11.4-8.5-20.8-15.1-30.2
			c1.3,10.2,2.4,20.4,5.3,30.2C790.4,293.6,792.1,297.6,794.7,301.2z"/>
	</g>
</g>
</svg>
