<?xml version="1.0" encoding="utf-8"?>
<!-- Generator: Adobe Illustrator 22.0.0, SVG Export Plug-In . SVG Version: 6.00 Build 0)  -->
<svg version="1.1" id="Layer_1" xmlns="http://www.w3.org/2000/svg" xmlns:xlink="http://www.w3.org/1999/xlink" x="0px" y="0px"
	 viewBox="0 0 1080 1080" style="enable-background:new 0 0 1080 1080;" xml:space="preserve">
<g>
	<g>
		<g>
			<path d="M276.4,435.4v28.9H209v86.7h48.1v28.9H209V705h-28.9V435.4H276.4z"/>
			<path d="M351,628h-41.2l-14.1,77h-28.9l49.1-269.6h28.9L393.9,705H365L351,628z M315,599.1h30.8l-15.4-84.4L315,599.1z"/>
			<path d="M451.7,464.2V705h-28.9V464.2h-33.7v-28.9h96.3v28.9H451.7z"/>
		</g>
	</g>
	<g>
		<g>
			<path d="M306.7,166.2c1.4-2.8,2.8-8.1,3.2-7.7c0,0.4,13.7,2.5,10.6,12c-7,19.7-56,111.3-85.6,112.7c-9.5,0.7-17.6-6.7-18.3-8.5
				c7.7-1.4,67.6-56.7,78.5-89.8c1.1-5.6-8.1-9.2-12.3-9.2c-13.4,0-67.3,25.4-94.7,105.7c-27.1,80.3-2.8,126.4,20.1,115.9
				c49.7-22.5,80.3-82.1,87.7-91.6c0.4,0.4,0.4,0.4,0.7,0.4s1.1,0.4,2.1,0.4c5.3,0,15.1,1.8,15.1,5.6c0,6.3-10.9,25.7-16.6,58.8
				c-0.7,5.3-1.1,8.8-0.7,11.3c0,1.8,0.4,3.2,0.7,4.6c-2.8,0-5.6-0.4-8.1-1.1c-4.2-1.1-9.2-2.8-10.2-8.1c-1.8-6.7,0-18,2.8-30.3
				c-20.8,29.9-52.8,66.9-82.1,64.1c-36.3-3.9-58.5-49.3-49-107.8c10.2-64.4,70.1-136.6,129.6-136.6c6.7,0,16.9,6,19.7,12
				C302.5,174.3,305,170.1,306.7,166.2z M215.9,273.9l0.4,0.4c0,0.4,0,0.4,0.4,0.4C215.5,274.7,215.5,274.3,215.9,273.9z"/>
			<path d="M407.1,312.3c0,0.7,0,1.4-0.4,1.8c-4.9,11.3-10.2,21.8-15.8,31.7c-9.5,16.9-22.2,35.6-34.5,43.7
				c-26.1,16.9-45.4-32-32.4-91.2c13-58.8,33.8-66.6,39.8-68.3c6.7-1.8,19,0.7,27.1,8.1c7,7-8.1,52.8-33.1,53.9
				c-3.2,0.4-5.3-1.1-6.7-2.5c-1.1-1.1-1.8-1.8-2.1-2.5c-1.1,2.5-2.1,8.5-3.2,11.3c-12.3,45.1-1.4,83.5,4.2,80.6
				c9.9-4.9,21.5-22.9,31.7-39.8c6-9.9,11.6-20.8,17.6-32.8l2.5,0.7c1.4,0.4,2.5,1.4,3.5,1.8C406.4,309.9,407.1,310.9,407.1,312.3z
				 M349.7,284.5c22.5-3.9,37-42.3,34.2-44C377.2,235.2,362,249.3,349.7,284.5z"/>
			<path d="M588.8,192.2c0.7,3.2,0.7,6.3-0.4,10.2c-9.5-1.4-21.8-1.8-36.3-1.1c-25,1.1-62,5.3-114.1,17.6c-2.5,0.4-4.2,1.1-6,1.4
				l-0.7,3.2l-1.4,7c0,2.1-10.9,52.1-9.9,82.4c-0.4,26.4,2.8,41.2,6.7,50.7c2.1,5.3,4.2,9.5,6.7,12c-0.4,0-0.4,0-0.7,0.4l-2.5,1.1
				c-3.2,1.4-7.7,3.2-13,4.2c-4.6,1.1-8.5-3.9-12.3-12c-3.2-6.3-5.3-15.1-6.3-26.4v-0.4c-1.4-18-0.4-40.9,2.8-65.9l2.8-21.1l0.4-0.4
				c0-1.4,0.4-2.8,0.7-4.6c0-0.7,0-1.1,0.4-1.4c0-1.1,0.4-2.5,0.7-4.2V244l3.9-18.3c-27.1,6.7-41.2,10.2-48.6,12.7
				c-4.2,1.4-6.7,2.5-7.7,3.2c-1.1-0.4-1.8-1.1-2.5-2.1c-1.1-1.8-1.1-3.9,0-6.3c1.1-1.8,2.8-3.5,5.3-4.9c1.1-0.7,2.5-1.1,3.9-1.4
				l14.8-4.6c9.5-2.8,22.5-6.7,38.4-10.9c4.2-18,9.2-35.6,14.8-52.8l3.2-10.6c7-2.1,14.1-1.4,21.5,1.8c-6.7,18-12,35.2-16.2,51.8
				c-0.4,1.1-1.1,2.5-1.4,4.2c41.9-10.2,95.1-21.5,140.9-23.2C584.6,182,587.8,187,588.8,192.2z"/>
			<path d="M632.8,250c0,1.4,0,6-0.4,12.7c-1.1,29.9-8.1,105.7-45.8,164.8c-15.1,23.9-32,35.6-44.7,41.2c-7.7,3.2-15.1,4.9-21.8,5.3
				c-13.4,0-25.4-23.9-22.9-25.7c15.8,4.6,59.2-1.4,85.2-55.6c16.9-33.8,24.3-75.7,28.9-106.7c-13,32.4-31.7,75.7-39.1,75.7
				c-3.2-0.7-6.3-1.4-8.8-2.5c-4.6-1.8-9.9-3.9-10.9-7c-2.1-6,0-29.2,1.8-43.7c0.4-2.8,0.4-5.3,1.4-7l6-33.8l0.7-5.3
				c0.4-2.8,0.7-6.7,0.7-9.9c0.7,0,1.1,0,1.4,0.4c3.5,0,18,5.6,19,10.2c0,3.9-16.9,84.2-13.7,86.3c2.1,2.1,33.1-72.5,44.4-103.2
				v-0.4c1.1-1.8,1.4-3.5,2.5-5.3c4.9,1.1,16.2,2.5,16.2,6.3V250z"/>
			<path d="M746.2,311.6c-2.1,6.3-4.6,12-7.4,16.6c-5.3,8.5-12.3,16.6-21.1,16.6c-2.1,0-3.9-0.4-5.6-1.1
				c-7,19.7-17.3,37.3-32.8,46.8c-26.4,15.8-45.4-32-32.4-91.2c13-58.8,33.8-66.6,39.8-68.3c6-1.8,23.6-4.9,32,9.2
				c8.5,13.4,2.5,22.5-1.4,22.5c-1.8,0.4-3.5,0.4-4.6,0.4c-0.7,0-1.4,0-1.8,0.4c0.7-3.5,1.1-6.7,1.4-9.9c0.4-5.3-0.4-11.6-4.2-14.4
				c-7-5.3-27.8,15.5-39.8,60.2c-11.3,44.7-1.1,85.9,4.6,82.1c15.1-9.5,24.3-28.9,29.9-48.6c-7.4-19.4-3.9-54.6,1.1-57.4
				c3.9-2.5,8.8-3.2,13-3.5c2.8-0.4,5.6-1.1,6.7,0c1.4,1.4,0.4,30.3-8.1,60.6c0.7,1.4,1.8,2.1,3.2,1.8c3.2-1.1,8.5-7.7,12.3-14.4
				c2.5-3.9,4.6-8.5,7-13C742.7,306.7,744.5,308.8,746.2,311.6z"/>
			<path d="M829,184.1c13.4-30.3,55.3-20.4,58.1,5.6c0,14.4-5.3,33.1-10.9,44l16.9,8.1c13,6.7,19,13.4,18.3,20.1
				c-4.2,41.2-35.6,110.2-24.7,111.6c8.8,1.4,37-53.9,39.4-66.9c2.5-0.7,4.2,0.4,5.3,3.2c-4.9,20.1-19,62.3-35.6,74
				c-8.8,2.5-31.3-3.5-35.2-22.5c2.8-29.2,41.9-101.8,34.9-107.4c-8.8-6.7-16.9-8.5-22.5-12.3c-7,26.4-39.4,104.9-61.6,121.5
				c-2.8,0.4-5.6,0.4-8.1-0.4c-4.6-1.1-9.5-2.8-12-8.1c-1.8-3.9,4.9-41.9,6.7-52.1c-16.9,34.9-26.8,47.2-34.2,49
				c-5.3,1.1-11.3-0.7-21.5-8.8c-8.1-6.7-7.4-21.8-4.6-35.9c1.8-8.1,4.2-16.9,7.4-26.4c8.5-1.8,24.7,2.5,21.8,8.1
				c-2.8,5.6-19.7,50-6,53.5c7.4,2.8,42.6-82.8,44.7-82.8c0.4,0,1.1,0,1.4,0.4c3.5,0,18,5.6,19,10.2c0,4.6-19.4,77.8-16.6,80.6
				c5.6,4.2,50.4-92.3,54.6-111.3C835.3,230.6,815.3,215.5,829,184.1z M872.7,184.8c-6.7-5.6-14.1,0.4-18.7,8.5
				c-3.9,6.7-5.3,15.1-3.5,20.8c4.2,13,17.3,15.1,17.3,15.1S885,195.1,872.7,184.8z"/>
		</g>
	</g>
	<g>
		<g>
			<path d="M284.6,773c2.9,23.7-3.8,44.4-19,62.3c-11.5,13.3-26.5,20.5-44.1,21.9c-2.6,0.3-5.5,0.3-8.1,0.3c-3.5,0.3-3.7,0.6-3.7,4
				c0,4-0.3,8.1-0.3,12.1c0,13.3-1.4,26.5-1.2,39.8c0,4,0,4,4.3,4.6c0.9,0,1.7,0,2.6,0.3c2,0.6,3.2,2,3.5,4c0.3,2-0.9,3.7-2.9,4.6
				c-2,0.9-4,1.2-6.1,0.9c-3.5-0.6-6.9-0.9-10.1-2c-9.5-3.5-19-2.9-28.6,0.6c-2.9,1.2-5.8,2-8.9,2c-3.2,0-5.2-1.4-5.5-3.8
				c-0.3-2.3,1.2-4,4.3-5.2c4.3-1.4,4.3-1.4,4.6-5.8c0.9-19.6,0.9-39.2,1.2-58.9c0-2.3,0-4.6,0.3-6.9c0.3-2.9,0-5.8-0.9-8.7
				c-1.4-4.3-2.9-8.4-7.5-10.7c-2-0.9-2.9-2.9-2-5.2c0.9-2.3,2.9-3.2,5.5-2.6c0.9,0.3,1.7,0.6,2.6,0.9c0.9,0.3,1.7,0.6,2.6,0.3
				c1.2-1.2,0.9-2.6,0.9-4c0-23.7,1.2-47.3,0.9-71c0-1.2,0-2.3,0-3.5c-0.3-3.5-0.6-3.7-4-4.6c-0.6,0-1.2,0-1.7,0
				c-2-0.6-3.5-1.7-3.7-4c-0.3-2,1.2-3.7,3.7-4.3c2-0.6,4-0.6,6.1,0c3.2,0.6,6.3,1.4,9.5,2.3c8.9,2.6,17.9,3.2,26.5-0.6
				c6.9-3.2,14.4-2.9,21.9-3.2c8.1-0.3,15.9,0.9,23.4,3.5c7.5,2.6,14.4,6.3,20.5,11.5c9.8,8.1,13.6,18.8,15,30.9L284.6,773z
				 M201.5,766.4c0.9-7.8,0.3-15.6,0.6-23.4c0-2.9-0.3-3.2-3.5-2.6c-5.2,1.2-10.4,0.6-15.6,0c-0.9,0-1.7,0-2.6-0.3
				c-2.3-0.6-3.2,0.6-3.2,2.9c0,0.6,0,1.2,0,1.7c0,22.5,0,45-0.9,66.4c0,6.6,0,12.4,0,18.2c0,3.2,0.6,3.5,3.5,2.3
				c5.8-2.3,11.3-2.6,17,0c2.9,1.2,3.2,0.9,3.5-2.3c0-0.9,0-1.7,0-2.6c-0.3-18.5,0.9-36.9,1.2-55.4c0-0.9,0-1.7,0-2.6V766.4z
				 M191.7,808.2c2.6,2.6,3.2,6.1,1.7,8.7c-1.4,2.3-3.7,3.5-6.1,2.9c-3.2-0.9-5.5-4-5.5-7.5c0-2.6,1.2-4.6,3.5-5.8
				c2.6-1.2,4.3,0,6.1,1.4L191.7,808.2z M242.7,782.8c0-2.3,0-4.6-0.3-6.9c-0.6-8.7-2-17.3-6.6-25.1c-4.3-7.5-11.3-11.3-19.6-12.1
				c-3.2-0.3-3.8,0.6-4,4c-0.3,4.3-0.9,8.7-0.9,13c0.6,20.2-1.2,40.4-1.2,60.6c0,8.1-0.3,16.2-0.9,24.2c-0.3,4.9,0.6,5.2,5.2,3.2
				c7.2-3.2,12.4-8.7,16.2-15.3c8.1-14.1,12.4-29.4,11.8-45.9L242.7,782.8z M272.4,801.8c4-12.1,3.8-24.5,1.2-36.9
				c-1.2-5.2-3.2-9.8-6.9-13.6c-8.1-8.7-18.2-13.3-30-15c7.8,6.1,11.5,14.4,13.6,23.7c4.6,20.5,3.5,40.7-4.3,60.3
				c-2,4.9-2,4.9,2.3,7.5c0.9,0.6,1.7,1.2,2.6,1.7c2.9,2,2.9,2,5.5-0.6c7.8-7.8,12.7-17.3,16.2-27.7V801.8z"/>
			<path d="M464.9,920.4c0.9,1.4,0.9,2.9,0,4.3c-1.2,2-2.9,2.9-5.2,2.6c-4.6-0.3-9.2-0.9-13.6-2.6c-4-1.7-8.1-1.7-12.1,0
				c-2.9,1.2-6.1,2.3-9.2,2.9c-1.4,0.3-2.9,0.6-4.3,0.6c-3.2,0-4.9-1.4-5.2-3.7c-0.3-2.3,1.2-4.3,4.3-4.6c4.3-0.6,8.1-2,11.8-3.5
				c4-1.7,4-2,3.2-6.3c-3.2-14.1-6.3-28.3-9.8-42.4c-1.2-5.2-1.2-5.2-6.3-5.2c-15.9,0.3-31.7,0-47.6,0.9c-4,0.3-4.3,0.6-5.5,4.3
				c-4.6,14.4-9.2,28.8-13.8,43.3c-0.6,1.4-0.9,2.9-1.2,4.3c-0.9,2.9-0.6,3.2,2.3,3.7c1.2,0.3,2.6,0.6,3.8,1.2
				c2,0.9,3.5,2.6,3.2,4.9c-0.3,2.3-1.7,3.7-4,4c-2,0.3-4,0-6.1-0.6c-3.2-0.9-6.6-1.4-9.8-2.6c-5.5-2-10.7-1.7-15.9,0.3
				c-4.9,1.7-10.1,2.9-15.3,3.5c-3.2,0.3-6.3-0.3-9.5-0.9c-2.3-0.3-3.8-2.3-3.8-4.3c0-2,1.4-3.8,4-4c2-0.3,4-0.3,6.1-0.3
				s3.5-0.9,4-2.9c0.3-0.6,0.6-1.2,0.9-1.7c7.2-21.6,13.6-43.6,20.5-65.2c2-6.6,0.3-12.1-2.9-17.6c-0.3-0.6-0.9-1.2-1.2-1.7
				c-1.2-2.3-0.9-4.3,0.9-5.8c1.4-1.4,3.5-1.4,5.5,0c0.6,0.6,1.2,1.2,1.7,1.7s0.9,1.4,1.4,2.3c2-2,2.3-3.7,2.9-5.5
				c8.4-26.8,16.7-53.7,25.1-80.5c1.7-5.5,1.7-5.5-4-5.8c-1.7,0-3.5,0-4.9-0.3c-2.3-0.6-3.8-2.6-3.8-4.6c0-2,1.4-3.8,4-4
				c4.9-0.3,9.8-0.3,14.7,0.6c2,0.3,4,0.6,6.1,1.2c7.2,2.6,14.4,2,21.6,0c5.2-1.4,10.4-2.3,15.9-2c4.3,0.3,6.9,2,6.9,4.9
				c0,3.2-2.3,4.9-6.9,4.9c-8.1,0-7.2,0.6-5.8,6.9c9.2,40.4,18.5,80.8,27.7,121.2c3.5,15,7.2,30,10.4,45c0.9,4,3.2,5.8,6.6,6.3
				c2.6,0.6,5.2,0.9,7.8,1.2c2,0.3,3.7,0.9,4.9,2.6L464.9,920.4z M365.9,832.7c8.4-26.3,16.7-52.5,25.1-78.8
				c1.2-3.5,2.3-6.9,2.6-10.7c0.3-2.9,0-3.5-2.9-2.9c-4.3,0.9-8.7,0.6-13-0.6c-4.3-1.2-4.9-0.9-6.1,3.5c-2,7.5-3.8,15-6.1,22.5
				c-6.1,19.3-12.1,38.7-18.2,58c-0.6,1.7-1.4,3.5-0.6,6.1c3.5-0.9,6.6-1.2,9.8,0.3c3.2,1.4,4.6,4.6,7.2,6.3
				c1.4-1.2,1.4-2.6,1.7-3.7H365.9z M362.4,806.2c2.9,0,4.9,2.3,4.9,5.2c0,3.2-2.9,6.1-6.1,5.8c-2.9-0.3-4.9-2.9-4.6-5.8
				c0.3-3.2,2.9-5.8,6.1-5.5L362.4,806.2z M416.7,846.3c3.2,0,3.5-0.6,2.9-3.5c-0.3-0.9-0.6-1.7-0.9-2.6
				c-4.6-20.2-9.2-40.4-13.8-60.6c-1.4-6.1-2.9-12.1-4.3-18.8c-1.7,1.2-1.7,2.6-2,3.7c-6.1,18.5-12.1,36.9-18.2,55.4
				c-2.3,7.2-4.6,14.4-6.9,21.9c-1.2,3.5-0.9,4,2.6,4c13.6,0,27.1,0,40.7,0V846.3z"/>
			<path d="M645.7,729.1c2,1.2,3.2,2.9,2.9,5.2c-0.3,2.3-1.7,3.5-3.8,4c-0.6,0.3-1.2,0.3-1.7,0.3c-5.5,0.6-5.5,0.9-5.8,6.1
				c-0.9,14.4,0,28.8-0.9,43.3c-0.9,15-0.6,30-0.9,45c-0.6,18.8-1.2,37.5-2,56.3c-0.3,8.4-0.6,16.7-0.6,25.1c0,3.5,0.3,3.7,3.8,4.3
				c0.9,0,1.7,0,2.6,0.3c2,0.6,3.2,2,3.5,4c0.3,2-0.6,3.7-2.6,4.6c-2,0.9-4.3,0.9-6.6,0.6c-4-0.6-8.1-1.4-11.8-2.6
				c-8.1-2.6-16.2-2-24.2,0.6c-1.4,0.6-2.9,0.9-4.3,1.4c-6.9,2.6-12.4,0.3-17-4.9c-2.3-2.6-4.3-5.5-5.8-8.9
				c-6.3-15.3-11-31.2-14.7-47.3c-4-17.6-7.8-35.5-10.7-53.4c-1.7-11.5-2.6-23.4-4-34.9c-1.2-9.2-2.6-18.5-4.9-27.7
				c-1.2,3.2-1.4,6.3-1.4,9.5c0.6,24.2-1.2,48.5-1.4,72.7c0,12.1-0.3,24.2-0.9,36.3c-0.6,14.7-1.7,29.4-1.7,44.1
				c0,4.6,0,4.6,4.6,5.2c0.9,0,1.7,0,2.6,0.3c1.7,0.6,2.9,2,3.2,4c0.3,2-0.6,3.5-2.3,4.3c-2,1.2-4.3,1.4-6.6,1.2
				c-3.7-0.6-7.5-1.2-11.3-2.3c-8.7-2.9-17.3-2.3-26,0.6c-2,0.6-4,1.2-6.1,1.7c-2,0.6-4,0.9-6.1,0.6c-2-0.6-3.5-2-3.8-4.3
				c0-2,1.2-3.8,2.9-4c6.3-0.6,5.8-4.9,6.1-9.5c0.9-19.3,0.6-38.9,0.9-58.6c0-4.9,0.9-9.8-1.2-14.7c-1.4-3.5-2.9-6.6-6.6-8.4
				c-2.6-1.4-3.2-3.7-2.3-5.8c0.9-2.3,3.2-3.2,6.1-2.3c0.9,0.3,1.7,0.6,2.6,0.9c0.6,0.3,1.2,0.6,1.7,0c0.9-1.2,0.6-2.6,0.6-4
				c0-23.7,1.2-47.3,0.9-71c0-1.2,0-2.3,0-3.5c-0.3-3.5-0.6-3.7-4-4.6c-0.6,0-1.2,0-1.7,0c-2-0.6-3.5-1.7-3.8-4c0-2,1.4-3.7,4-4.3
				c2-0.6,4-0.6,6.1,0c3.2,0.6,6.3,1.4,9.5,2.3c8.9,2.6,17.6,3.2,26.3-0.6c3.7-1.7,7.8-2.6,11.8-2.9c4.9-0.3,6.9,1.2,8.4,5.8
				c1.4,4.6,2,9.5,2.9,14.1c4,19.6,6.3,39.5,9.2,59.4c3.8,25.4,6.6,51.1,13.3,76.2c2,7.5,4.3,15,8.7,21.6c0.9,1.2,1.7,2.3,2.6,3.5
				c1.2,1.2,2,3.5,4,2.9c1.7-0.6,0.9-2.9,0.9-4.3c1.2-17.3,0.6-34.6,0.9-51.9c0-2.3,0-4.6,0.3-6.9c0.6-4.6-0.6-8.9-2.3-13.3
				c-1.2-2.3-2.6-4.3-5.2-5.5c-0.6-0.3-0.9-0.6-1.2-0.9c-2-1.4-2.6-3.5-1.7-5.5c0.9-2,2.9-2.9,5.2-2.6c1.7,0.3,3.5,2.3,4.9,0.9
				c1.4-1.4,0.6-3.8,0.6-5.8c0.3-23.1,1.4-46.2,1.2-69.2c0-1.4,0-2.9,0-4.3c0-2.6-0.9-4-3.5-4c-0.9,0-1.7-0.3-2.6-0.6
				c-1.7-0.6-2.9-2-2.9-4c0-1.7,0.9-2.9,2.3-3.7c2-0.9,4-0.9,6.1-0.6c3.2,0.6,6.3,1.4,9.5,2.3c9.2,2.9,18.5,3.5,27.4-0.6
				c3.2-1.4,6.6-2.3,10.1-2.9c2-0.3,4-0.3,6.1,0.9L645.7,729.1z M524.6,792.3c0.6-15.9,1.2-31.7,1.2-47.6c0-3.2-0.3-3.5-3.5-2.9
				c-5.8,1.2-11.3,0.3-16.7-0.3c-0.6,0-1.2,0-1.7,0c-1.7-0.3-2.6,0.6-2.6,2.3c0,0.9,0,1.7,0,2.6c0,22.5,0,45-0.9,65.8
				c0,7.2,0,13,0,18.8c0,2.6,0.6,3.2,2.6,2.3c6.1-2.9,12.1-3.2,18.2,0c1.4,0.9,2.3,0.3,2.3-1.4c0-1.4,0-2.9,0-4.3
				c0.3-11.3,0.3-22.5,0.9-33.8L524.6,792.3z M513.3,805.3c2.9,0.6,5.8,4.6,5.8,7.8c0,2.3-1.2,4-2.9,5.2c-2,1.2-4,0.9-6.1-0.3
				c-3.2-2-4.6-5.8-3.5-9.2c0.9-2.6,3.5-4.3,5.8-3.7L513.3,805.3z M626.4,790.9c0.6-15.9,1.2-31.7,1.2-47.6c0-3.2-0.3-3.5-3.5-2.9
				c-5.8,1.2-11.3,0.3-16.7-0.3c-0.6,0-1.2,0-1.7,0c-1.7-0.3-2.6,0.6-2.6,2.3c0,0.9,0,1.7,0,2.6c0,22.5,0,45-0.9,65.8
				c0,7.2,0,13,0,18.8c0,2.6,0.6,3.2,2.6,2.3c6.1-2.9,12.1-3.2,18.2,0c1.4,0.9,2.3,0.3,2.3-1.4c0-1.4,0-2.9,0-4.3
				c0.3-11.3,0.3-22.5,0.9-33.8L626.4,790.9z M620.1,813.1c0,2.3-1.2,4-3.2,5.2c-2,1.2-4,0.6-5.8-0.6c-3.2-2-4.3-5.8-2.9-9.2
				c0.9-2.3,3.2-3.8,5.5-3.5C616.9,805.6,620.1,809.6,620.1,813.1z"/>
			<path d="M799.5,743.3c1.7,4.9,2.6,10.1,2.3,15.3c0,2.3-0.6,4.6-1.7,6.6c-1.4,2.6-3.8,3.5-6.1,2.6c-2.3-0.9-3.8-3.2-2.9-5.8
				c1.7-4.3,0.9-8.7,0.3-13c-0.6-3.2-2.3-5.2-5.5-6.1c-4-1.2-8.1-2.3-12.4-2.3c-4.6,0-9.2,0-13.8,0c-1.7,0-3.5,0.3-4.9,0.6
				c-4.6,1.2-5.2,2-5.2,6.6c0,6.1,0,12.1,0,18.2c0,17.9-1.2,35.8-1.7,53.7c0,1.4,0,2.9,0,4.3c-0.3,20.5-0.3,41-1.2,61.4
				c-0.3,8.4-0.3,17-1.2,25.4c-0.3,2.6,0,5.2,0,7.8c0,2.3,1.2,3.5,3.5,3.5c1.4,0,2.9,0,4.3,0.6c2,0.9,3.2,2.3,3.2,4.3
				c0,2-1.2,3.2-2.9,4c-1.4,0.6-3.2,0.6-4.9,0.6c-4.3,0-8.4-1.2-12.4-2.3c-8.7-2.9-17.3-2.3-26,0.6c-2.3,0.9-4.9,1.4-7.5,2
				c-1.2,0.3-2.6,0.3-3.8,0c-2.6-0.3-4-2-4.3-4c-0.3-2,0.9-3.8,3.2-4.6c0.6-0.3,1.2-0.3,1.7-0.3c4-1.2,4-1.2,4-5.8
				c0-8.9,0-17.9,0.3-26.8c0.3-13.6,0.6-27.1,0.9-40.7c0-3.5-0.3-6.9-1.7-10.4c-1.2-2.9-2.6-5.5-5.8-7.2c-2.9-1.4-3.5-3.5-2.6-5.5
				c0.9-2.3,2.9-3.2,5.8-2.6c0.6,0,1.2,0.3,1.7,0.6c2.3,0.9,3.2-0.3,3.5-2.3c0.3-1.7,0.3-3.5,0.3-5.2c0-7.2,0.3-14.4,0.3-21.6
				c-0.3-15,0.9-30,0.9-45c0-5.8,0-5.8-5.5-6.6c-8.4-1.4-16.7-2.6-25.4-1.2c-2.9,0.6-4.3,1.7-4.9,4.3c-1.2,5.2-2.9,10.1-1.4,15.6
				c0.9,3.2-0.9,5.5-3.5,6.1c-2.3,0.6-4.9-0.9-6.1-3.8c-1.2-3.2-1.7-6.3-1.2-9.5c0.6-2.9,1.2-5.8,2-8.7c1.4-4.9,2.6-9.8,2.3-15
				c-0.3-3.2,0.9-4.9,2.9-5.5c2-0.6,4,0.3,5.2,3.2c1.2,2.9,2.9,3.2,5.5,2.6c4.9-0.9,9.8-0.6,14.7,0c9.5,1.2,19,2.3,28.3,4.6
				c6.6,1.7,13.3,0.6,19.6-1.7c15-5.5,30-7.2,45.6-4c2,0.3,3.5,0,4-2.3c0-0.6,0.3-1.2,0.6-1.7c1.2-2,2.6-3.2,4.9-2.6
				c2,0.3,2.9,1.7,3.2,3.8c0,0.6,0,1.2,0,1.7c0,4.3,1.2,8.4,2.6,12.4L799.5,743.3z M739.2,770.7c0-8.1,0-14.1,0-20.2
				c0-2.9,0-3.2-2.9-2.6c-5.5,1.4-11,1.4-16.7,1.2c-4-0.3-4-0.3-4,4c-0.3,17.3-0.6,34.6-0.9,51.9c-0.3,10.1-0.3,20.2-0.9,30.3
				c-0.3,3.5,0.3,3.7,3.5,2.3c5.5-2.6,11-2.9,16.7,0c3.2,1.4,3.5,1.2,3.5-2.6c0-6.1,0-12.1,0.3-18.2c0.6-16.4,1.2-32.9,1.7-47.3
				L739.2,770.7z M731.4,820.6c0,3.5-2.6,6.1-5.8,6.1c-3.5,0-6.9-3.7-6.9-7.5c0-3.5,2.6-6.3,5.5-6.3
				C727.7,812.8,731.4,816.8,731.4,820.6z"/>
			<path d="M921.5,869.1c1.7,24.2-8.9,42.4-28,56.3c-6.9,5.2-15.3,7.5-23.9,7.8c-6.3,0.3-12.7,0.6-19-0.9
				c-15.9-3.8-26.5-13.8-32.6-28.6c-4.3-10.1-3.5-20.8,2-30.6c2-3.5,4.9-6.3,8.7-8.1c2.9-1.4,5.5-0.9,6.6,1.4c1.2,2,0.6,4.3-2,6.3
				c-4.6,3.2-6.1,7.5-6.1,12.7c-0.3,7.2,0.6,13.8,5.2,19.6c2.6,3.5,5.8,6.3,9.5,8.1c7.5,3.7,15.3,6.3,23.9,6.1
				c5.5-0.3,10.4-2.3,14.7-5.5c9.8-6.6,12.4-20.2,5.8-30c-4-6.1-9.2-11.3-15-15.6c-8.1-6.3-16.4-12.4-24.8-18.5
				c-2.6-1.7-5.2-3.5-7.2-5.5c-3.5-3.5-7.2-4.3-11.5-3.2c-1.4,0.3-2.9,0.9-4.3,1.2c-2.3,0.3-4.3-0.9-4.9-2.9c-0.9-2,0-3.8,1.7-4.9
				c0.9-0.6,2-1.2,2.9-1.7c3.2-1.4,3.2-1.4,1.2-4.3c-0.6-1.2-1.4-2.3-2-3.5c-7.8-11.8-10.4-24.8-7.8-38.7
				c2.9-15.3,9.2-28.8,20.2-39.8c8.7-8.7,19.3-13.8,31.4-15.3c13.3-1.7,25.1,1.7,33.5,13c0.9,0.9,1.4,2,3.2,2.6c1.7-2,2.6-4,2.9-6.3
				c0-0.9,0-1.7,0.3-2.6c0.6-2,2-3.2,4.3-3.2c2,0,3.8,1.4,4.3,3.8c0.3,2,0,4-0.6,6.1c-0.9,2.6-2,4.9-3.5,7.2
				c-1.4,2.3-2.6,4.6-3.5,7.2c-0.9,3.5-0.9,6.6,0.9,9.8c0.6,0.9,1.2,1.7,1.4,2.6c0.9,2.6,0,4.9-2,6.1c-2,1.2-4,0.6-5.5-1.2
				c-3.5-3.5-4.9-7.8-4.6-12.7c0.6-10.4-5.5-16.7-13.6-20.8c-5.5-2.9-11.8-3.2-17.9-2c-5.2,1.2-10.1,2.9-14.7,5.5
				c-9.2,5.2-14.1,17.6-11,27.7c2.9,8.9,8.9,15.3,15.9,21.1c7.2,6.1,15.3,11.3,23.1,16.7c11,7.8,21.1,16.7,30,26.5
				c7.8,8.4,11.8,18.5,12.7,30L921.5,869.1z M882.9,833.9c1.2-0.3,2.6-0.3,3.2-2c-1.4-2-3.5-3.5-5.5-5.2
				c-7.5-6.3-15.9-11.5-23.7-17.6c-12.4-9.2-23.7-19.3-27.7-36.3c-2.9,4.9-3.5,9.2-4.3,13.6c-3.5,14.1,0,26.8,9.2,37.8
				c7.5,9.2,17,16.7,26.8,23.7c2.6,1.7,2.9,1.7,4.3-1.2c4-7.2,10.4-11,17.9-13L882.9,833.9z M856.3,819.4c2.9,0,6.1,3.2,6.1,6.3
				c0,2.9-2.3,5.5-4.9,5.5c-2.9,0-5.5-2.9-5.5-6.1c0-2.9,2-5.5,4.6-5.5L856.3,819.4z"/>
		</g>
	</g>
	<g>
		<path d="M759,486.4c-17.9,4-32,11.9-43,24.7c-14.1,16.4-21,34.9-11.9,56c9,20.7,26.9,28,48.2,29.2c26.5,1.4,48-11.5,69.5-24.4
			c4-2.4,7.8-5.3,11.7-8c13.9,16.8,11.5,41.2-7.1,51.8c-11.4,6.5-25.4,11.4-38.3,11.6c-85.3,1.1-170.7,0.7-256.1,0.7
			c-10.3,0-14.4-6.3-16.2-15.3c-5.3-27.5-0.7-53.4,12.9-77.8c32.7-58.5,114.1-93.2,178.9-76.1C726.6,463.9,743,473.3,759,486.4z"/>
		<path d="M674.7,639c61.3,0,122.7,0,184,0c13.4,0,16.9,5.7,11,17.8c-4.9,10.1-13.3,14.7-24.5,14.7c-53.1-0.1-106.2,0-159.3,0
			c-60.1,0-120.1-0.1-180.2,0.1c-12.2,0-21.6-4.2-26.7-15.8c-5.1-11.5-1.6-16.8,10.8-16.8C551.4,639,613,639,674.7,639z"/>
		<path d="M790.6,492.4c15.4,2.9,30.9,5.4,46.2,9c13.6,3.1,21.7-0.5,26.5-13.8c2.5-6.7,6.8-10.7,14.2-10c7.3,0.7,10.8,5.3,12,12.5
			c0.5,3,2.2,6.1,4.2,8.4c4.5,5.2,5.7,10.7,2.1,16.5c-3.5,5.7-9.2,8.3-15.5,5.3c-12.5-5.9-20.8,0-27.6,9.3
			c-17.5,24.1-41.6,39.2-68.3,50.8c-15,6.5-30.5,7.9-46.3,3.5c-23.6-6.6-34.3-29.2-24-51.5c10.8-23.4,30.4-34.6,55.3-37.3
			c6.9-0.8,13.9-0.8,20.8-1.1C790.3,493.5,790.4,493,790.6,492.4z"/>
		<path d="M737.5,455.5c17.5-0.8,35.1-2.3,52.6-2.2c17,0.1,22.2-3.2,25.5-20.4c1.3-6.8,5.4-10.8,12.1-11.3c6.8-0.5,11,3.2,13.7,9.5
			c1.3,3,4.6,5.2,6.1,8.2c2.3,4.7,6.2,10.6,5,14.6c-1.2,3.9-8.4,9.2-12.2,8.7c-15-2.3-22.1,5.5-27.9,17.2c-1.2,2.5-5.5,3.4-8.5,4.9
			c-0.7,0.4-1.9-0.4-2.8-0.2c-26.8,5.4-44.2-12.6-63.6-25.6C737.4,457.7,737.5,456.6,737.5,455.5z"/>
	</g>
</g>
</svg>
