<?xml version="1.0" encoding="utf-8"?>
<!-- Generator: Adobe Illustrator 22.0.0, SVG Export Plug-In . SVG Version: 6.00 Build 0)  -->
<svg version="1.1" id="Layer_1" xmlns="http://www.w3.org/2000/svg" xmlns:xlink="http://www.w3.org/1999/xlink" x="0px" y="0px"
	 viewBox="0 0 1080 1080" style="enable-background:new 0 0 1080 1080;" xml:space="preserve">
<style type="text/css">
	.st0{fill:#050505;}
</style>
<g>
	<g>
		<g>
			<path class="st0" d="M180.1,674c-6.7-6.7-10.9-15.8-10.9-25.3c0-14.4,10.2-29.9,32-29.9v12.3c-14.4,0-19.7,9.5-19.7,17.6
				c0,6,2.5,11.9,7,16.5c5.6,5.3,13.3,8.1,22.8,8.1c49.9,0,64.6-63.2,72-106.1c-14.4,22.1-36.5,46-63.6,46c-17.9,0-32-5.6-41.1-16.5
				c-8.4-9.8-12.6-23.5-12.6-40.4c0-6.7,0.7-13.7,1.8-21.1c-9.8-7.7-14.8-17.2-16.9-24.6c-7.4-24.6,2.8-54.1,17.2-63.6l7,10.2
				c-9.5,6-18.6,29.9-12.6,49.9c1.8,5.6,4.6,10.5,8.4,14.4c6.3-22.8,17.9-47.1,33.4-68.5c26-36.2,57.6-56.9,86.8-56.9
				c19.7,0,31.6,15.5,31.6,40c0,45.3-40.4,110.7-113.1,110.7c-12.6,0-22.5-2.1-30.2-5.3c-0.7,5.3-1.1,10.2-1.1,14.8
				c0,14.1,3.2,24.9,9.5,32.3c7,8.4,17.9,12.6,32,12.6c32.7,0,59.7-49.2,67.1-64.3c1.4-3.5,5.3-4.9,8.8-3.5c3.5,1.1,5.3,4.6,4.6,8.1
				c-0.7,3.9-1.8,9.1-2.8,15.1c-6.7,41.8-20.7,128.6-86.1,128.6C195.6,685.2,185.8,679.2,180.1,674z M209.6,534.9
				c65,0,100.8-58.3,100.8-98.7c0-8.1-1.8-27.7-19.3-27.7c-25.3,0-53.4,19-76.9,51.6c-15.8,21.8-27,46.4-32.7,69.2
				C189.3,532.7,198.4,534.9,209.6,534.9z"/>
			<path class="st0" d="M354.7,661.3c-14.1-19.3,2.1-88.9,13.7-126.8h-26c-11.6,59.7-23.2,82.2-23.2,82.2l-6.3-1.8
				c0,0,20-90.3,19.3-104.7l13,1.1c0,0-0.4,4.9-1.1,11.6h26.7c3.2,0,6,1.8,8.1,4.2c1.8,2.8,2.5,6.3,1.4,9.5
				c-16.9,56.6-23.5,106.8-15.8,117.3c1.1,1.1,1.8,1.8,3.2,1.8c8.8,0,22.8-36.9,31.3-75.5h9.8c-16.2,74.5-32.7,87.5-41.1,87.5
				C362.4,667.6,357.9,665.5,354.7,661.3z"/>
			<path class="st0" d="M506.1,580.2c-4.2,20-20.4,87.5-45.3,87.5c-6,0-10.9-2.5-14-7.4c-4.2-6-5.6-15.5-5.3-26.7
				c-10.2,23.2-20.4,34.1-31.6,34.1c-7,0-13-4.2-16.2-11.6c-2.8-5.6-3.9-13-3.9-22.8c0-19.7,6-47.1,14.8-69.2
				c8.1-19,20.7-41.4,37.9-41.4c6.7,0,11.9,2.5,15.8,7c2.1,2.8,3.5,6.3,4.2,9.8c2.8-7.7,5.3-14.8,6-16.9h13
				c-14.8,40-35.8,115.2-24.9,130.7c1.1,1.4,2.5,2.1,4.2,2.1c8.4,0,25.6-30.2,35.5-75.2H506.1z M449.9,566.8
				c1.8-8.4,3.5-23.5-1.4-29.5c-0.7-1.1-2.5-2.5-6-2.5c-16.5,0-40.4,58-40.4,98.4c0,7.7,0.7,14.1,2.5,17.9c2.1,4.2,4.2,4.2,5.3,4.2
				C419.7,655.3,437.6,621.6,449.9,566.8z"/>
			<path class="st0" d="M654.7,446.3h-11.9c0-17.2-4.9-38.3-27.7-38.3c-36.9,0-66.4,45-85.7,96.6h22.1l-4.6,12.3h-22.1
				c-13.7,40.7-21.4,84-21.4,111.4c0,9.5,0.7,17.2,2.5,22.1c1.1,3.5,2.5,4.9,2.8,4.9c17.6,0,36.2-75.2,36.2-75.2h10.5l-1.8,7
				c-9.8,39-22.1,80.1-45,80.1c-3.5,0-10.5-1.4-14.4-13c-2.1-6.3-3.2-15.1-3.2-26c0-30.6,8.1-73.1,20.7-111.4h-20l4.6-12.3h19.7
				c2.5-6,4.6-12.3,7.4-17.9c31.6-75.2,67.4-90.6,91.7-90.6C639.9,396.1,654.7,414.7,654.7,446.3z"/>
			<path class="st0" d="M538.1,623.7c0-8.4,1.1-17.9,2.8-27.7c0,0,0,0,0-0.4c2.5-12.3,6.3-25.3,10.9-36.5
				c10.2-23.5,22.5-36.5,35.1-36.5c6,0,10.9,3.2,13.7,9.1c2.1,4.6,3.2,10.2,3.2,17.2c0,27-15.8,66.7-40.4,66.7
				c-4.9,0-9.1-1.4-12.3-3.5c-0.4,3.9-0.7,7.7-0.7,11.6c0,11.9,2.1,31.6,15.8,31.6c31.3,0,52.7-49.5,58.3-75.2h10.2
				c-9.1,41.8-30.2,87.5-68.5,87.5C557.7,667.6,538.1,663.4,538.1,623.7z M563.4,603.4c14.4,0,28.5-30.6,28.5-54.4
				c0-4.9-0.7-9.1-2.1-11.9c-1.1-2.1-2.1-2.1-2.8-2.1c-11.9,0-27,29.9-33.4,61.5C554.2,599.5,556.7,603.4,563.4,603.4z"/>
			<path class="st0" d="M721.4,506.1h-11.9c0-1.4-0.4-14.1-11.9-14.1c-23.9,0-42.5,106.4-54.1,158.4c14.8,1.4,37.9-23.5,46-70.3
				h10.2c-10.2,55.5-32,84.3-58.7,84.3c-14.8,69.6-48.8,106.1-85.4,106.1c-35.8,0-48.5-30.2-48.5-58.7h12.3
				c0,14.1,3.5,46.4,36.2,46.4c33,0,60.1-41.8,71-95.2c-28.5-3.5-2.5-109.9,17.2-115.9c3.2-1.1,6.3-0.7,8.8,0.7
				c10.5-39.7,23.2-68.1,45-68.1C714,479.7,721.4,493.4,721.4,506.1z M630.1,646.9c1.8-8.4,18.6-79.4,20-87.1
				C641.7,559.8,617.8,640.6,630.1,646.9z"/>
			<path class="st0" d="M787.5,580.2c-4.2,19.7-20.4,87.1-45,87.1c-6,0-11.2-2.5-14.4-7.4c-2.8-3.5-4.2-8.8-4.9-15.1
				c-6.7,13-14.8,22.5-24.6,22.5c-6,0-10.9-2.5-14.1-7.4c-18.3-25.6,17.2-125.1,21.4-136.3h12.6c-14.4,40-35.1,113.8-24.2,129.3
				c1.1,1.8,2.5,2.5,4.2,2.5c7.7,0,20.7-25.3,30.6-63.6c6.3-22.8,12.3-45.3,20.4-68.1h12.6c-1.8-1.4-45.7,131.7-19.7,131.7
				c10.2,0,24.9-30.2,34.8-75.2H787.5z"/>
			<path class="st0" d="M776.2,653.2c-2.5-7-3.5-16.5-3.5-28.8c0-68.1,40.4-228.3,118.7-228.3c24.9,0,40,19,40,50.6h-12.3
				c0-17.6-4.9-38.3-27.8-38.3c-38.3,0-65,50.2-77.3,80.4C793.8,537.7,785,592.1,785,624.4c0,10.9,0.7,19.3,2.8,25.3
				c1.4,4.2,2.8,5.6,3.5,5.6c15.8,0,34.1-72.7,34.8-75.2h9.8c-0.7,2.5-1.8,8.4-2.5,11.6c-9.5,38.3-20.4,75.9-42.2,75.9
				C786.4,667.6,779.7,665.2,776.2,653.2z"/>
		</g>
	</g>
	<g>
		<g>
			<path class="st0" d="M294,226.4c8-10.6,18.3-16,32.1-12.5c1,0.3,2.2,0.3,3.2,0c24.4-2.9,42.7,10.9,50.7,27.9
				c9.6,19.9,12.2,40.8,10.9,62.3c-1,13.2-2.2,26-5.5,38.5c-3.5,12.5-8,24.1-15.7,34.3c-6.4,8.7-14.8,13.2-25.7,13.5
				c-16.7,0.6-32.1-3.5-45.3-14.1c-5.5-4.2-9.6-9.6-12.8-15.7c-7.1-12.5-11.2-26-13.2-40.4c-1.3-7.4-2.2-15.1-2.2-22.8
				C271.6,271.4,278.3,247.6,294,226.4z M319.4,256.3c-6.4,29.5-7.1,58.7,2.2,87.6c2.9,8.3,6.4,16.4,11.9,23.1
				c2.6,3.2,3.2,3.2,5.8,0.3c5.1-5.5,9-11.9,11.9-18.9c9.6-20.9,14.1-43.3,14.1-66.1c0-3.5,0.3-7.4-1-10.6
				c-17,0.3-32.1-4.5-44.3-15.7C319.4,256.3,319.4,256.3,319.4,256.3z M363.4,262.1c-2.6-12.2-7.1-23.1-14.4-33.1
				c-1-1.6-2.2-2.9-3.5-3.9c-5.5-3.5-10.6-2.9-14.4,2.6c-1.9,2.9-3.9,5.8-5.1,9.3c-2.9,6.7-1,14.4,4.8,19.3
				c9.6,7.7,20.5,9.6,32.7,7.7C363.4,263.3,363.4,262.7,363.4,262.1z"/>
			<path class="st0" d="M470.6,334.6c-3.5,13.2-8.7,25.7-11.9,38.8c-0.3,1.6-1.3,2.9-1.9,4.5c-1,2.9-3.2,4.5-6.4,4.8
				c-1,0.3-2.2,0.3-3.5,0.3c-14.4-1.9-27-7.4-33.7-21.2c-5.8-11.6-8.3-24.1-8.7-36.6c-0.6-20.2,0-40.4,2.9-60.3
				c0.3-2.2,0.6-4.2,1-6.4c0.3-3.2,2.6-5.5,5.5-5.5c6.7-0.6,13.8-2.9,20.5-0.6c1.6,0.6,3.2,1,4.5,1.6c7.4,2.9,9,5.5,9,13.5
				c0.3,9-1,18-1.6,27c-1,17-1,34,1.3,50.7c0.6,5.5,1.3,10.9,3.2,16.4c1.9-1,1.9-3.2,2.6-4.8c7.7-23.4,14.8-46.5,18.3-70.9
				c1.3-8.3,3.5-16.4,3.9-24.7c0.3-6.1,2.6-8,8.7-8.7c5.5-0.6,10.9,0,16.4,1.3c3.5,0.3,6.7,1,10,1.9c4.8,1.3,7.7,3.9,8.7,9
				c0.6,4.5,1,8.7,0.3,12.8c-2.6,22.5-1.6,45.3-1.6,67.7c0,7.7,0.3,15.4,1.3,23.1c0.6,5.5-0.3,10.6-0.3,15.7
				c0.3,3.2-2.6,5.1-5.1,6.4c-9,4.5-23.8-1.3-27.6-10.6c-5.5-13.2-7.7-27-9-41.1c-0.6-6.4-1-12.8-1.3-19.3c0,0-0.3,0-0.6,0
				C473.8,324.7,472.2,329.5,470.6,334.6z"/>
			<path class="st0" d="M578.4,317.3c2.6-18,5.5-36,10.9-53.3c1.3-4.5,2.9-8.3,5.5-12.2c7.4-10.3,21.2-12.2,31.1-4.2
				c2.6,1.9,4.8,4.5,6.4,7.7c3.9,7.7,6.7,16,4.8,25c-1,5.1-3.5,7.1-9,7.1c-8.7-0.3-13.8-5.1-14.4-14.1c-0.3-4.2-0.6-8-1.6-12.2
				c0-1,0-1.9-1.3-2.9c-1.6,0.3-1.9,1.9-2.6,3.2c-6.7,11.9-11.6,24.7-15.4,37.9c-3.5,12.5-6.7,25-9.3,37.9
				c-2.6,15.1-3.5,30.5-2.9,45.9c0.3,5.8-1.6,8.3-7.7,7.7c-5.5-0.3-10.6-1.9-14.8-6.1c-4.2-3.9-7.4-8.3-10.3-13.5
				c-6.4-12.5-9-25.7-11.2-39.2c-2.9-20.2-4.5-40.8-3.2-61.3c0.6-9,1.9-10,10.3-13.5c8-3.2,16.1-2.9,24.1-0.6
				c1.6,0.6,3.5,1.3,5.5,2.2c3.9,1.9,5.8,5.1,5.5,10c-1.3,10.3-2.2,20.2-2.9,30.2c-1,13.8-1.9,27.6-0.6,41.4
				C576.5,332.7,577.5,325,578.4,317.3z"/>
		</g>
	</g>
	<g>
		<g>
			<path class="st0" d="M219.3,785.5c3.2-21.8,6.7-43.3,12.8-64.5c2.9-10.3,6.4-20.5,13.2-29.5c5.1-6.7,8.7-8,16.7-5.5
				c6.4,2.2,11.2,6.7,14.4,12.5c6.7,12.5,10.6,25.7,11.2,39.5c0.6,10.3,1,20.5-0.6,30.8c-0.3,2.2-0.3,4.2-0.3,6.7
				c1.9-1.3,1.9-2.6,2.2-3.9c3.5-9,7.4-17.3,14.1-24.4c2.9-3.2,5.8-4.5,10-4.2c12.5,0.3,21.8,7.7,26,19.9c1.6,5.8,2.9,11.6,3.2,17.3
				c1.9,18.9,2.6,37.9,2.9,56.5c0.3,3.5,0,7.1,0,11.2c3.2-0.6,4.2-2.2,5.1-3.9c3.9-4.8,6.4-10.6,9-16.4
				c6.7-13.8,11.2-28.2,13.5-43.7c0.3-1.3,0.6-2.9,1-4.2c1-3.9,1-4.2,5.1-4.2c4.5-0.3,4.5-0.3,5.5,4.5c0.6,2.6,0.3,5.1,0,7.7
				c-3.9,21.2-12.2,40.8-22.1,59.4c-2.6,4.8-6.7,8.7-10.9,12.5c-2.6,2.6-6.1,2.9-10,2.9c-15.4-0.6-27.3-10-32.1-24.4
				c-3.9-11.9-3.5-23.8-2.9-35.6c1-13.5,1.3-27,1.9-40.4c0-1.3,0-2.2-0.3-4.5c-2.9,2.9-4.5,5.8-5.8,8.3
				c-6.4,10.9-10.9,22.5-14.1,34.7c-0.6,1.9-1.3,3.9-1.6,5.8c-0.3,5.8-4.5,9-8.3,12.2c-0.3,0.6-1,0.6-1.3,1
				c-7.1,3.2-19.6-1.3-23.1-8c-4.5-8-7.1-16.7-6.7-26.3c0.6-26.6,1.9-53.3,6.1-79.6c0.3-1.9,0.3-4.2,0-6.1c-1.9-0.3-1.6,1.3-2.2,2.2
				c-5.8,12.5-9.6,25.7-13.5,38.8c-6.4,19.9-10.6,40.1-14.1,60.7c-3.2,19.3-5.8,38.8-4.5,58.4c0,2.6,0.3,4.2-2.9,5.5
				c-9.6,3.9-20.5,1.3-26.6-7.4c-7.7-10.6-12.2-22.5-14.8-35.3c-4.2-23.8-6.4-47.5-6.1-71.6c0-5.5,0.6-11.2,1.6-16.7
				c0.6-4.2,2.9-7.1,7.1-8c12.8-3.2,24.4-0.6,35.3,6.4c3.2,2.2,4.5,5.8,4.2,10c-1.3,10.9-1.9,21.5-2.9,32.4
				c-1.6,18.6-2.6,37.2-1.6,56.2c0.3,2.6,1,5.5,1.3,8.3C213.9,821.4,216.4,803.5,219.3,785.5z"/>
			<path class="st0" d="M469,782.6c-0.3,4.5,0.3,5.1,4.8,3.2c4.5-1.6,8.7-3.5,12.8-5.5c2.9-1,5.8-2.2,8.7-3.9c2.2-1,4.2-1,6.1,0.3
				c1.6,0.6,2.9,1,4.5,1.3c2.9,0.3,2.9,1.6,2.6,4.8c-0.3,3.9-2.2,5.5-5.5,6.7c-9,3.5-18,6.7-27.6,7.7c-0.6,0-1,0.3-1.6,0.3
				c-5.5,1-5.5,1-6.1,6.1c-0.3,5.1-1,10.3-2.2,15.4c-3.5,12.2-7.1,24.1-15.1,34.3c-8.7,10.9-19.6,15.4-33.4,12.8
				c-15.1-2.6-26.3-10.3-33.7-23.8c-10-18-12.8-37.6-10.3-57.8c1-10,2.9-19.3,6.7-28.6c0.6-1.6,0.6-3.2,0.3-5.1
				c-1.9-8-0.6-16.4,1.6-24.1c6.1-19.9,23.4-29.9,43.7-25.4c14.8,3.2,25.4,12.2,33.1,25c6.4,10.9,9.6,22.8,10.3,35.6
				c0,2.9,0,6.1,0,9C469.4,775.2,469.4,778.7,469,782.6z M390.7,740.2c6.1-4.5,12.2-4.5,18.6-1.6c1.9,1,4.2,1.9,2.6,4.8
				c-4.5,8.7-5.8,18.3-7.1,27.9c-0.6,4.5-0.3,4.8,3.9,6.7c10,4.8,20.5,7.1,31.5,9c3.9,0.6,4.2,0.6,4.5-3.5
				c1.6-10.3,2.2-20.5,0.3-30.8c-1.9-13.2-5.8-25.4-13.5-36.3c-5.1-7.7-10-9.3-19.3-7.4c-14.1,2.9-25.7,15.1-25.7,34.7
				C388.5,742.2,389.4,741.2,390.7,740.2z M427.3,841.3c7.4-11.9,11.9-24.7,14.1-38.2c1-4.2,1-4.2-3.5-4.8
				c-11.2-1.3-21.8-4.2-31.5-10c-0.3-0.3-1,0-1.6,0c0,0.6,0,1.3,0,2.2c0.6,14.8,2.2,29.2,7.1,43.7c1.6,5.5,3.5,10.9,8,15.4
				C423.1,847.4,425.4,844.9,427.3,841.3z"/>
			<path class="st0" d="M693.7,782.1c3.2-21.8,6.7-43.3,12.8-64.5c2.9-10.3,6.4-20.5,13.2-29.5c5.1-6.7,8.7-8,16.7-5.5
				c6.4,2.2,11.2,6.7,14.4,12.5c6.7,12.5,10.6,25.7,11.2,39.5c0.6,10.3,1,20.5-0.6,30.8c-0.3,2.2-0.3,4.2-0.3,6.7
				c1.9-1.3,1.9-2.6,2.2-3.9c3.5-9,7.4-17.3,14.1-24.4c2.9-3.2,5.8-4.5,10-4.2c12.5,0.3,21.8,7.7,26,19.9c1.6,5.8,2.9,11.6,3.2,17.3
				c1.9,18.9,2.6,37.9,2.9,56.5c0.3,3.5,0,7.1,0,11.2c3.2-0.6,4.2-2.2,5.1-3.9c3.9-4.8,6.4-10.6,9-16.4
				c6.7-13.8,11.2-28.2,13.5-43.7c0.3-1.3,0.6-2.9,1-4.2c1-3.9,1-4.2,5.1-4.2c4.5-0.3,4.5-0.3,5.5,4.5c0.6,2.6,0.3,5.1,0,7.7
				c-3.9,21.2-12.2,40.8-22.1,59.4c-2.6,4.8-6.7,8.7-10.9,12.5c-2.6,2.6-6.1,2.9-10,2.9c-15.4-0.6-27.3-10-32.1-24.4
				c-3.9-11.9-3.5-23.8-2.9-35.6c1-13.5,1.3-27,1.9-40.4c0-1.3,0-2.2-0.3-4.5c-2.9,2.9-4.5,5.8-5.8,8.3
				c-6.4,10.9-10.9,22.5-14.1,34.7c-0.6,1.9-1.3,3.9-1.6,5.8c-0.3,5.8-4.5,9-8.3,12.2c-0.3,0.6-1,0.6-1.3,1
				c-7.1,3.2-19.6-1.3-23.1-8c-4.5-8-7.1-16.7-6.7-26.3c0.6-26.6,1.9-53.3,6.1-79.6c0.3-1.9,0.3-4.2,0-6.1c-1.9-0.3-1.6,1.3-2.2,2.2
				c-5.8,12.5-9.6,25.7-13.5,38.8c-6.4,19.9-10.6,40.1-14.1,60.7c-3.2,19.3-5.8,38.8-4.5,58.4c0,2.6,0.3,4.2-2.9,5.5
				c-9.6,3.9-20.5,1.3-26.6-7.4c-7.7-10.6-12.2-22.5-14.8-35.3c-4.2-23.8-6.4-47.5-6.1-71.6c0-5.5,0.6-11.2,1.6-16.7
				c0.6-4.2,2.9-7.1,7.1-8c12.8-3.2,24.4-0.6,35.3,6.4c3.2,2.2,4.5,5.8,4.2,10c-1.3,10.9-1.9,21.5-2.9,32.4
				c-1.6,18.6-2.6,37.2-1.6,56.2c0.3,2.6,1,5.5,1.3,8.3C688.3,818,690.8,800,693.7,782.1z"/>
		</g>
	</g>
	<g>
		<path class="st0" d="M527.1,814.8c-1.3-3.4,0.5-6.3,4.2-6.6c1.6-0.1,3.1,0.2,4.6,0.6c0.4,0.1,0.9,0.4,1.4,0.3
			c-0.4-0.7-0.8-1.3-1.1-1.8c-0.7-1.2-1.2-2.4-1.4-3.8c-0.4-2.5,1.4-4.4,3.9-4.1c1.3,0.2,2.4,0.7,3.5,1.3c2.2,1.4,4,3.1,5.5,5.2
			c3.1,4.2,5.5,8.8,7.7,13.5c0.6,1.4,0.4,1.9-1.1,2.4c-1,0.3-2,0.6-3.1,0.6c-5.5,0.3-10.9,0.1-16.2-1.5c-2.1-0.6-4.1-1.6-5.7-3
			C528.4,817,527.5,816,527.1,814.8z M544.9,843c-2.5,1.7-5.1,3.1-8.1,3.7c-1.4,0.3-2.9,0.3-4.3-0.1c-0.9-0.3-1.7-0.7-2.4-1.3
			c-1.6-1.4-2-3.4-1-5.3c0.7-1.3,1.7-2.2,2.8-3c0.9-0.7,1.9-1.2,2.9-1.8c-1.1-0.4-2.2-0.6-3.3-1c-1-0.4-2-0.9-2.8-1.7
			c-1.6-1.6-1.5-3.7,0.2-5.1c1-0.8,2.2-1.3,3.4-1.6c2.8-0.7,5.7-0.7,8.6-0.2c4.9,0.8,9.6,2.2,14.2,4c1.4,0.5,1.6,1.1,0.9,2.4
			c-0.8,1.5-1.8,2.9-3,4.1C550.5,838.6,547.8,841,544.9,843z M564.2,837.9c0.8,2.5,1,5,0.9,7.6c-0.1,2.6-0.2,5.1-0.7,7.7
			c-0.4,2.4-1.1,4.8-2.1,7c-0.7,1.5-1.7,2.9-2.9,4c-0.9,0.8-2,1.3-3.1,1.5c-2.7,0.5-5-1-5.4-3.8c-0.3-1.7,0-3.4,0.4-5
			c0.1-0.5,0.3-1.1,0.5-1.9c-0.8,0.5-1.4,0.9-2,1.2c-1.1,0.6-2.3,1.1-3.5,1.3c-2.9,0.5-4.8-1.4-4.3-4.3c0.3-1.4,0.9-2.5,1.7-3.7
			c1.6-2.3,3.6-4.1,5.8-5.7c2.2-1.6,4.6-3,7.1-4.2c1.8-0.9,3.6-2,5.5-2.7C563.2,836.4,563.7,836.6,564.2,837.9z M545.6,794.1
			c-0.3-1.6-0.2-3.2,0.4-4.7c1.5-3.4,4.8-4.2,7.7-1.8c1.2,1.1,2.1,2.4,2.9,3.8c0.2,0.4,0.3,0.8,0.7,1.1c0.3-1.2,0.5-2.3,0.9-3.3
			c0.4-1.1,1-2.1,1.8-3c1.5-1.5,3.4-1.4,4.9,0.1c0.9,0.9,1.4,2.1,1.7,3.3c0.8,3,0.7,6,0.2,8.9c-0.8,4.8-2.2,9.5-4,14
			c-0.5,1.4-1.1,1.6-2.4,0.9c-1.5-0.8-2.8-1.7-4-2.9c-2.8-2.7-5.5-5.6-7.6-8.9C547.3,799.4,546.1,796.9,545.6,794.1z M568.9,835.3
			c-2,1.9-4.7,1.5-6.1-0.9c-0.5-0.8-1-1.1-1.9-1.1c-2.4-0.1-4-2.2-3.5-4.5c0-0.2,0.1-0.3,0.1-0.5c0.3-0.7,0.2-1.3-0.4-1.8
			c-0.7-0.6-1-1.4-1.1-2.3c-0.2-1.8,0.6-3,2.1-3.9c0.7-0.4,1-0.7,1-1.6c0.1-2.8,2.3-4.4,5-3.7c0.8,0.2,1.2,0.1,1.8-0.4
			c2.1-1.9,4.7-1.5,6.1,1c0.4,0.7,0.8,1.1,1.6,0.9c0.3,0,0.6,0.1,0.9,0.2c1.9,0.4,3,1.9,2.9,3.9c0.1,0.7-0.5,1.4-0.3,2
			c0.2,0.7,0.9,1.1,1.3,1.8c0.9,1.9,0.5,3.9-1.4,5c-0.8,0.5-1.3,1-1.3,2.1c-0.2,2.7-2.4,4.1-5,3.4
			C569.9,834.7,569.5,834.8,568.9,835.3z M559.4,824.9c1.3,1,2.7,1,4.4,0.4c-1.3-0.6-2.4-1.3-3.2-2.3c-0.2-0.3-0.4-0.8-0.9-0.5
			c-0.4,0.2-0.9,0.5-1,1C558.5,824.1,558.9,824.6,559.4,824.9z M565,827.9c-1.6,0.4-2.9,0.9-4.3,0.5c-0.3-0.1-0.5,0.1-0.6,0.4
			c-0.4,1.1,0.1,1.9,1.3,1.8C563.1,830.5,564.2,829.6,565,827.9z M561.8,819.6c0.4,1.3,1.2,2.3,2.8,3c-0.5-1.5-0.8-2.7-0.6-4
			c0.1-0.5,0.1-0.8-0.5-1c-0.7-0.2-1.2-0.1-1.5,0.4C561.7,818.6,561.7,819.1,561.8,819.6z M567.7,828.7c-0.8,1.4-1.5,2.6-2.6,3.4
			c-0.4,0.3-0.3,0.5-0.1,0.9c0.5,1,1.4,1.1,2.1,0.3C568.3,832,568.4,830.5,567.7,828.7z M569.6,818c0.4-0.3,0.4-0.5,0.2-0.9
			c-0.5-1-1.3-1.1-2.1-0.3c-1.1,1-1.3,2.8-0.5,4.4c0.4-0.7,0.8-1.2,1.1-1.8C568.6,818.8,569.1,818.4,569.6,818z M588.8,854.1
			c0.5,1.6,0.7,3.1,0.5,4.8c-0.1,1-0.5,1.9-1,2.8c-1.5,2.3-4,2.8-6.4,1.3c-1.6-1.1-2.6-2.6-3.6-4.3c-0.2-0.4-0.3-0.9-0.8-1.2
			c-0.2,0.8-0.4,1.5-0.6,2.2c-0.4,1.4-0.9,2.6-1.8,3.7c-1.7,1.9-4,1.9-5.6-0.2c-1.2-1.6-1.5-3.4-1.8-5.3c-0.4-2.8-0.1-5.5,0.5-8.2
			c0.9-4.3,2.1-8.4,3.7-12.5c0.5-1.3,1.1-1.5,2.3-0.9c1.4,0.7,2.6,1.6,3.7,2.6c2.8,2.6,5.3,5.4,7.5,8.5
			C586.9,849.6,588,851.7,588.8,854.1z M569.7,822.2c1.6-0.5,2.9-0.8,4.3-0.6c0.5,0.1,0.6-0.2,0.7-0.5c0.3-1-0.2-1.7-1.2-1.7
			C571.7,819.4,570.7,820.4,569.7,822.2z M569.9,808.5c-0.3-5,0-10,1.3-14.9c0.6-2.3,1.5-4.5,3.1-6.4c1.5-1.7,3.2-2.9,5.6-2.9
			c1.9,0,3.2,1,3.9,2.7c0.5,1.4,0.5,2.8,0.3,4.2c-0.2,1.2-0.6,2.3-0.9,3.8c1.2-0.7,2.2-1.4,3.3-1.8c1.1-0.4,2.1-0.8,3.3-0.7
			c2.2,0.1,3.6,1.8,3.3,4c-0.2,1.3-0.7,2.4-1.4,3.5c-1.4,2.2-3.2,4-5.3,5.6c-4.2,3.1-8.8,5.5-13.5,7.6c-1.3,0.6-1.8,0.3-2.3-1
			C570.2,810.9,570,809.7,569.9,808.5z M573,831.1c0.1-1.5-0.9-2.8-2.8-3.7c0.6,1.5,0.8,2.8,0.6,4.1c0,0.4,0.2,0.6,0.5,0.7
			C572.4,832.6,573,832.2,573,831.1z M576.1,825.9c-0.2-0.5-0.5-0.8-1-1c-1.2-0.7-2.4-0.7-3.7-0.2c1.1,0.7,2.2,1.3,2.9,2.4
			c0.3,0.5,0.7,0.6,1.2,0.2C576.1,826.9,576.3,826.4,576.1,825.9L576.1,825.9z M590.8,806.4c2.2-1.4,4.5-2.6,7-3.1
			c2.4-0.4,4.7-0.4,6.7,1.2c1.8,1.5,2.2,3.6,1.1,5.6c-0.4,0.8-1,1.4-1.6,2c-0.9,0.8-1.9,1.4-2.9,2c-0.4,0.2-0.8,0.4-1.3,0.7
			c0.8,0.4,1.4,0.4,2.1,0.6c1.3,0.4,2.6,0.9,3.7,1.7c2.3,1.8,2.2,4.4-0.2,6c-1.4,0.9-3,1.2-4.6,1.5c-3,0.4-5.9,0.1-8.8-0.5
			c-4.1-0.9-8.2-2.1-12.1-3.6c-1.5-0.6-1.6-1.1-0.9-2.5c0.6-1.2,1.3-2.3,2.2-3.2C584,811.6,587.2,808.7,590.8,806.4z M608.1,837.1
			c0.1,2.3-1.2,4-3.5,4.6c-1.5,0.4-3,0.1-4.5-0.1c-0.8-0.2-1.6-0.6-2.5-0.6c0,0.5,0.4,0.8,0.6,1.2c0.7,1.1,1.3,2.3,1.6,3.6
			c0.2,0.8,0.3,1.6,0.1,2.3c-0.3,1.5-1.4,2.5-2.9,2.6c-1.4,0.1-2.6-0.3-3.7-0.9c-1.9-1-3.4-2.4-4.9-3.9c-1.7-1.8-3.1-3.9-4.3-6
			c-1.7-3-3.4-6-4.7-9.2c-0.6-1.4-0.3-1.8,1.1-2.3c1-0.3,1.9-0.6,2.9-0.6c5.3-0.3,10.5-0.1,15.7,1.3c1.9,0.5,3.6,1.2,5.2,2.3
			c1.1,0.7,2,1.6,2.7,2.6C607.6,834.8,608.1,835.9,608.1,837.1z"/>
	</g>
	<path class="st0" d="M796.9,255.6c-22.3,12.2-35.8,51.5-39.2,62.4c-2.3,7.3-6,8.3-9.6,8.4c-2,0.1-3.9-0.3-5.8-1
		c-30.2-10.6-99-7.9-82.7,26.3c16.6,34.8,67.4,69.5,85,81.5c12,7.6,37.7,22.3,51.4-4.6c23.6-40.7,32.9-110.7,33.1-133.2
		C829.3,273,819.2,243.4,796.9,255.6z M692,334.1c-2.3,1.4-4.9,3.1-7.1,5.2c-2.2,2.1-3.6,4.3-4.1,6.9c-0.4,2.6,0,5.8,1,9
		c1,3.2,2.4,6.1,3.4,8.7c2.3,5.1,3.6,8.8,2.3,10c-1.2,1.1-4.9-0.5-9.5-5c-2.2-2.3-4.7-5.2-6.7-9.2c-2-3.9-3.7-9.4-2.7-15.6
		c0.5-3.1,1.9-6,3.6-8.3c1.7-2.3,3.7-4.1,5.7-5.4c4-2.6,7.9-3.8,11.1-4.4c6.4-1.1,10.5,0.2,10.6,1.8
		C699.9,329.4,696.6,331.3,692,334.1z"/>
</g>
</svg>
