  0
SECTION
  2
HEADER
  9
$ACADVER
  1
AC1024
  9
$ACADMAINTVER
 70
     6
  9
$DWGCODEPAGE
  3
ANSI_1252
  9
$INSBASE
 10
0.0
 20
0.0
 30
0.0
  9
$EXTMIN
 10
1.000000000000000E+20
 20
1.000000000000000E+20
 30
1.000000000000000E+20
  9
$EXTMAX
 10
-1.000000000000000E+20
 20
-1.000000000000000E+20
 30
-1.000000000000000E+20
  9
$LIMMIN
 10
0.0
 20
0.0
  9
$LIMMAX
 10
12.0
 20
9.0
  9
$ORTHOMODE
 70
     0
  9
$REGENMODE
 70
     1
  9
$FILLMODE
 70
     1
  9
$QTEXTMODE
 70
     0
  9
$MIRRTEXT
 70
     1
  9
$LTSCALE
 40
1.0
  9
$ATTMODE
 70
     1
  9
$TEXTSIZE
 40
0.2
  9
$TRACEWID
 40
0.05
  9
$TEXTSTYLE
  7
Standard
  9
$CLAYER
  8
0
  9
$CELTYPE
  6
ByLayer
  9
$CECOLOR
 62
   256
  9
$CELTSCALE
 40
1.0
  9
$DISPSILH
 70
     0
  9
$DIMSCALE
 40
1.0
  9
$DIMASZ
 40
0.18
  9
$DIMEXO
 40
0.0625
  9
$DIMDLI
 40
0.38
  9
$DIMRND
 40
0.0
  9
$DIMDLE
 40
0.0
  9
$DIMEXE
 40
0.18
  9
$DIMTP
 40
0.0
  9
$DIMTM
 40
0.0
  9
$DIMTXT
 40
0.18
  9
$DIMCEN
 40
0.09
  9
$DIMTSZ
 40
0.0
  9
$DIMTOL
 70
     0
  9
$DIMLIM
 70
     0
  9
$DIMTIH
 70
     1
  9
$DIMTOH
 70
     1
  9
$DIMSE1
 70
     0
  9
$DIMSE2
 70
     0
  9
$DIMTAD
 70
     0
  9
$DIMZIN
 70
     0
  9
$DIMBLK
  1

  9
$DIMASO
 70
     1
  9
$DIMSHO
 70
     1
  9
$DIMPOST
  1

  9
$DIMAPOST
  1

  9
$DIMALT
 70
     0
  9
$DIMALTD
 70
     2
  9
$DIMALTF
 40
25.4
  9
$DIMLFAC
 40
1.0
  9
$DIMTOFL
 70
     0
  9
$DIMTVP
 40
0.0
  9
$DIMTIX
 70
     0
  9
$DIMSOXD
 70
     0
  9
$DIMSAH
 70
     0
  9
$DIMBLK1
  1

  9
$DIMBLK2
  1

  9
$DIMSTYLE
  2
Standard
  9
$DIMCLRD
 70
     0
  9
$DIMCLRE
 70
     0
  9
$DIMCLRT
 70
     0
  9
$DIMTFAC
 40
1.0
  9
$DIMGAP
 40
0.09
  9
$DIMJUST
 70
     0
  9
$DIMSD1
 70
     0
  9
$DIMSD2
 70
     0
  9
$DIMTOLJ
 70
     1
  9
$DIMTZIN
 70
     0
  9
$DIMALTZ
 70
     0
  9
$DIMALTTZ
 70
     0
  9
$DIMUPT
 70
     0
  9
$DIMDEC
 70
     4
  9
$DIMTDEC
 70
     4
  9
$DIMALTU
 70
     2
  9
$DIMALTTD
 70
     2
  9
$DIMTXSTY
  7
Standard
  9
$DIMAUNIT
 70
     0
  9
$DIMADEC
 70
     0
  9
$DIMALTRND
 40
0.0
  9
$DIMAZIN
 70
     0
  9
$DIMDSEP
 70
    46
  9
$DIMATFIT
 70
     3
  9
$DIMFRAC
 70
     0
  9
$DIMLDRBLK
  1

  9
$DIMLUNIT
 70
     2
  9
$DIMLWD
 70
    -2
  9
$DIMLWE
 70
    -2
  9
$DIMTMOVE
 70
     0
  9
$DIMFXL
 40
1.0
  9
$DIMFXLON
 70
     0
  9
$DIMJOGANG
 40
0.7853981633974483
  9
$DIMTFILL
 70
     0
  9
$DIMTFILLCLR
 70
     0
  9
$DIMARCSYM
 70
     0
  9
$DIMLTYPE
  6

  9
$DIMLTEX1
  6

  9
$DIMLTEX2
  6

  9
$DIMTXTDIRECTION
 70
     0
  9
$LUNITS
 70
     2
  9
$LUPREC
 70
     4
  9
$SKETCHINC
 40
0.1
  9
$FILLETRAD
 40
0.5
  9
$AUNITS
 70
     0
  9
$AUPREC
 70
     0
  9
$MENU
  1
.
  9
$ELEVATION
 40
0.0
  9
$PELEVATION
 40
0.0
  9
$THICKNESS
 40
0.0
  9
$LIMCHECK
 70
     0
  9
$CHAMFERA
 40
0.5
  9
$CHAMFERB
 40
0.5
  9
$CHAMFERC
 40
1.0
  9
$CHAMFERD
 40
0.0
  9
$SKPOLY
 70
     0
  9
$TDCREATE
 40
2459571.984131354
  9
$TDUCREATE
 40
2459571.734131354
  9
$TDUPDATE
 40
2459571.9841314
  9
$TDUUPDATE
 40
2459571.7341314
  9
$TDINDWG
 40
0.0000000116
  9
$TDUSRTIMER
 40
0.0000000116
  9
$USRTIMER
 70
     1
  9
$ANGBASE
 50
0.0
  9
$ANGDIR
 70
     0
  9
$PDMODE
 70
     0
  9
$PDSIZE
 40
0.0
  9
$PLINEWID
 40
0.0
  9
$SPLFRAME
 70
     0
  9
$SPLINETYPE
 70
     6
  9
$SPLINESEGS
 70
     8
  9
$HANDSEED
  5
9D
  9
$SURFTAB1
 70
     6
  9
$SURFTAB2
 70
     6
  9
$SURFTYPE
 70
     6
  9
$SURFU
 70
     6
  9
$SURFV
 70
     6
  9
$UCSBASE
  2

  9
$UCSNAME
  2

  9
$UCSORG
 10
0.0
 20
0.0
 30
0.0
  9
$UCSXDIR
 10
1.0
 20
0.0
 30
0.0
  9
$UCSYDIR
 10
0.0
 20
1.0
 30
0.0
  9
$UCSORTHOREF
  2

  9
$UCSORTHOVIEW
 70
     0
  9
$UCSORGTOP
 10
0.0
 20
0.0
 30
0.0
  9
$UCSORGBOTTOM
 10
0.0
 20
0.0
 30
0.0
  9
$UCSORGLEFT
 10
0.0
 20
0.0
 30
0.0
  9
$UCSORGRIGHT
 10
0.0
 20
0.0
 30
0.0
  9
$UCSORGFRONT
 10
0.0
 20
0.0
 30
0.0
  9
$UCSORGBACK
 10
0.0
 20
0.0
 30
0.0
  9
$PUCSBASE
  2

  9
$PUCSNAME
  2

  9
$PUCSORG
 10
0.0
 20
0.0
 30
0.0
  9
$PUCSXDIR
 10
1.0
 20
0.0
 30
0.0
  9
$PUCSYDIR
 10
0.0
 20
1.0
 30
0.0
  9
$PUCSORTHOREF
  2

  9
$PUCSORTHOVIEW
 70
     0
  9
$PUCSORGTOP
 10
0.0
 20
0.0
 30
0.0
  9
$PUCSORGBOTTOM
 10
0.0
 20
0.0
 30
0.0
  9
$PUCSORGLEFT
 10
0.0
 20
0.0
 30
0.0
  9
$PUCSORGRIGHT
 10
0.0
 20
0.0
 30
0.0
  9
$PUCSORGFRONT
 10
0.0
 20
0.0
 30
0.0
  9
$PUCSORGBACK
 10
0.0
 20
0.0
 30
0.0
  9
$USERI1
 70
     0
  9
$USERI2
 70
     0
  9
$USERI3
 70
     0
  9
$USERI4
 70
     0
  9
$USERI5
 70
     0
  9
$USERR1
 40
0.0
  9
$USERR2
 40
0.0
  9
$USERR3
 40
0.0
  9
$USERR4
 40
0.0
  9
$USERR5
 40
0.0
  9
$WORLDVIEW
 70
     1
  9
$SHADEDGE
 70
     3
  9
$SHADEDIF
 70
    70
  9
$TILEMODE
 70
     1
  9
$MAXACTVP
 70
    64
  9
$PINSBASE
 10
0.0
 20
0.0
 30
0.0
  9
$PLIMCHECK
 70
     0
  9
$PEXTMIN
 10
1.000000000000000E+20
 20
1.000000000000000E+20
 30
1.000000000000000E+20
  9
$PEXTMAX
 10
-1.000000000000000E+20
 20
-1.000000000000000E+20
 30
-1.000000000000000E+20
  9
$PLIMMIN
 10
0.0
 20
0.0
  9
$PLIMMAX
 10
12.0
 20
9.0
  9
$UNITMODE
 70
     0
  9
$VISRETAIN
 70
     1
  9
$PLINEGEN
 70
     0
  9
$PSLTSCALE
 70
     1
  9
$TREEDEPTH
 70
  3020
  9
$CMLSTYLE
  2
Standard
  9
$CMLJUST
 70
     0
  9
$CMLSCALE
 40
1.0
  9
$PROXYGRAPHICS
 70
     1
  9
$MEASUREMENT
 70
     0
  9
$CELWEIGHT
370
    -1
  9
$ENDCAPS
280
     0
  9
$JOINSTYLE
280
     0
  9
$LWDISPLAY
290
     1
  9
$INSUNITS
 70
     1
  9
$HYPERLINKBASE
  1

  9
$STYLESHEET
  1

  9
$XEDIT
290
     1
  9
$CEPSNTYPE
380
     0
  9
$PSTYLEMODE
290
     1
  9
$FINGERPRINTGUID
  2
{40DC5098-19CB-418D-9BAC-CF99BDEA775B}
  9
$VERSIONGUID
  2
{FAEB1C32-E019-11D5-929B-00C0DF256EC4}
  9
$EXTNAMES
290
     1
  9
$PSVPSCALE
 40
0.0
  9
$OLESTARTUP
290
     0
  9
$SORTENTS
280
   127
  9
$INDEXCTL
280
     0
  9
$HIDETEXT
280
     1
  9
$XCLIPFRAME
280
     2
  9
$HALOGAP
280
     0
  9
$OBSCOLOR
 70
   257
  9
$OBSLTYPE
280
     0
  9
$INTERSECTIONDISPLAY
280
     0
  9
$INTERSECTIONCOLOR
 70
   257
  9
$DIMASSOC
280
     2
  9
$PROJECTNAME
  1

  9
$CAMERADISPLAY
290
     0
  9
$LENSLENGTH
 40
50.0
  9
$CAMERAHEIGHT
 40
0.0
  9
$STEPSPERSEC
 40
2.0
  9
$STEPSIZE
 40
6.0
  9
$3DDWFPREC
 40
2.0
  9
$PSOLWIDTH
 40
0.25
  9
$PSOLHEIGHT
 40
4.0
  9
$LOFTANG1
 40
1.570796326794897
  9
$LOFTANG2
 40
1.570796326794897
  9
$LOFTMAG1
 40
0.0
  9
$LOFTMAG2
 40
0.0
  9
$LOFTPARAM
 70
     7
  9
$LOFTNORMALS
280
     1
  9
$LATITUDE
 40
37.795
  9
$LONGITUDE
 40
-122.394
  9
$NORTHDIRECTION
 40
0.0
  9
$TIMEZONE
 70
 -8000
  9
$LIGHTGLYPHDISPLAY
280
     1
  9
$TILEMODELIGHTSYNCH
280
     1
  9
$CMATERIAL
347
3C
  9
$SOLIDHIST
280
     1
  9
$SHOWHIST
280
     1
  9
$DWFFRAME
280
     2
  9
$DGNFRAME
280
     2
  9
$REALWORLDSCALE
290
     1
  9
$INTERFERECOLOR
 62
   256
  9
$CSHADOW
280
     0
  9
$SHADOWPLANELOCATION
 40
0.0
  0
ENDSEC
  0
SECTION
  2
CLASSES
  0
CLASS
  1
ACDBDICTIONARYWDFLT
  2
AcDbDictionaryWithDefault
  3
ObjectDBX Classes
 90
        0
 91
        4
280
     0
281
     0
  0
CLASS
  1
VISUALSTYLE
  2
AcDbVisualStyle
  3
ObjectDBX Classes
 90
     4095
 91
        4
280
     0
281
     0
  0
CLASS
  1
MATERIAL
  2
AcDbMaterial
  3
ObjectDBX Classes
 90
     1153
 91
        4
280
     0
281
     0
  0
CLASS
  1
SUN
  2
AcDbSun
  3
SCENEOE
 90
     1024
 91
        4
280
     0
281
     0
  0
ENDSEC
  0
SECTION
  2
TABLES
  0
TABLE
  2
VPORT
  5
8
330
0
100
AcDbSymbolTable
 70
     1
  0
VPORT
  5
29
330
8
100
AcDbSymbolTableRecord
100
AcDbViewportTableRecord
  2
*Active
 70
     0
 10
0.0
 20
0.0
 11
1.0
 21
1.0
 12
0.0
 22
0.0
 13
0.0
 23
0.0
 14
0.5
 24
0.5
 15
0.5
 25
0.5
 16
0.0
 26
0.0
 36
1.0
 17
540.0
 27
-540.0
 37
0.0
 40
1080.0
 41
1.0
 42
50.0
 43
0.0
 44
0.0
 50
0.0
 51
0.0
 71
     0
 72
   100
 73
     1
 74
     3
 75
     0
 76
     0
 77
     0
 78
     0
281
     0
 65
     1
110
0.0
120
0.0
130
0.0
111
1.0
121
0.0
131
0.0
112
0.0
122
1.0
132
0.0
 79
     0
146
0.0
 60
     3
 61
     5
292
     1
282
     1
141
0.0
142
0.0
 63
   250
361
3F
  0
ENDTAB
  0
TABLE
  2
LTYPE
  5
5
330
0
100
AcDbSymbolTable
 70
     1
  0
LTYPE
  5
14
330
5
100
AcDbSymbolTableRecord
100
AcDbLinetypeTableRecord
  2
ByBlock
 70
     0
  3

 72
    65
 73
     0
 40
0.0
  0
LTYPE
  5
15
330
5
100
AcDbSymbolTableRecord
100
AcDbLinetypeTableRecord
  2
ByLayer
 70
     0
  3

 72
    65
 73
     0
 40
0.0
  0
LTYPE
  5
16
330
5
100
AcDbSymbolTableRecord
100
AcDbLinetypeTableRecord
  2
Continuous
 70
     0
  3
Solid line
 72
    65
 73
     0
 40
0.0
  0
ENDTAB
  0
TABLE
  2
LAYER
  5
2
330
0
100
AcDbSymbolTable
 70
     2
  0
LAYER
  5
10
330
2
100
AcDbSymbolTableRecord
100
AcDbLayerTableRecord
  2
0
 70
     0
 62
     7
  6
Continuous
370
    -3
390
F
347
3E
  0
LAYER
  5
40
330
2
100
AcDbSymbolTableRecord
100
AcDbLayerTableRecord
  2
Layer 1
 70
     0
 62
     7
  6
Continuous
370
    -3
390
F
347
3E
  0
ENDTAB
  0
TABLE
  2
STYLE
  5
3
330
0
100
AcDbSymbolTable
 70
     1
  0
STYLE
  5
11
330
3
100
AcDbSymbolTableRecord
100
AcDbTextStyleTableRecord
  2
Standard
 70
     0
 40
0.0
 41
1.0
 50
0.0
 71
     0
 42
0.2
  3
txt
  4

  0
ENDTAB
  0
TABLE
  2
VIEW
  5
6
330
0
100
AcDbSymbolTable
 70
     0
  0
ENDTAB
  0
TABLE
  2
UCS
  5
7
330
0
100
AcDbSymbolTable
 70
     0
  0
ENDTAB
  0
TABLE
  2
APPID
  5
9
330
0
100
AcDbSymbolTable
 70
     1
  0
APPID
  5
12
330
9
100
AcDbSymbolTableRecord
100
AcDbRegAppTableRecord
  2
ACAD
 70
     0
  0
ENDTAB
  0
TABLE
  2
DIMSTYLE
  5
A
330
0
100
AcDbSymbolTable
 70
     1
100
AcDbDimStyleTable
  0
DIMSTYLE
105
27
330
A
100
AcDbSymbolTableRecord
100
AcDbDimStyleTableRecord
  2
Standard
 70
     0
178
     0
340
11
  0
ENDTAB
  0
TABLE
  2
BLOCK_RECORD
  5
1
330
0
100
AcDbSymbolTable
 70
     6
  0
BLOCK_RECORD
  5
1F
330
1
100
AcDbSymbolTableRecord
100
AcDbBlockTableRecord
  2
*Model_Space
340
22
 70
     0
280
     1
281
     0
  0
BLOCK_RECORD
  5
1B
330
1
100
AcDbSymbolTableRecord
100
AcDbBlockTableRecord
  2
*Paper_Space
340
1E
 70
     0
280
     1
281
     0
  0
BLOCK_RECORD
  5
23
330
1
100
AcDbSymbolTableRecord
100
AcDbBlockTableRecord
  2
*Paper_Space0
340
26
 70
     0
280
     1
281
     0
  0
BLOCK_RECORD
  5
41
330
1
100
AcDbSymbolTableRecord
100
AcDbBlockTableRecord
  2
block 2
340
0
102
{BLKREFS
331
42
102
}
 70
     0
280
     1
281
     0
  0
BLOCK_RECORD
  5
45
330
1
100
AcDbSymbolTableRecord
100
AcDbBlockTableRecord
  2
block 3
340
0
102
{BLKREFS
331
46
102
}
 70
     0
280
     1
281
     0
  0
BLOCK_RECORD
  5
53
330
1
100
AcDbSymbolTableRecord
100
AcDbBlockTableRecord
  2
block 4
340
0
102
{BLKREFS
331
54
102
}
 70
     0
280
     1
281
     0
  0
BLOCK_RECORD
  5
81
330
1
100
AcDbSymbolTableRecord
100
AcDbBlockTableRecord
  2
block 5
340
0
102
{BLKREFS
331
82
102
}
 70
     0
280
     1
281
     0
  0
BLOCK_RECORD
  5
91
330
1
100
AcDbSymbolTableRecord
100
AcDbBlockTableRecord
  2
block 6
340
0
102
{BLKREFS
331
92
102
}
 70
     0
280
     1
281
     0
  0
ENDTAB
  0
ENDSEC
  0
SECTION
  2
BLOCKS
  0
BLOCK
  5
20
330
1F
100
AcDbEntity
  8
0
100
AcDbBlockBegin
  2
*Model_Space
 70
     0
 10
0.0
 20
0.0
 30
0.0
  3
*Model_Space
  1

  0
ENDBLK
  5
21
330
1F
100
AcDbEntity
  8
0
100
AcDbBlockEnd
  0
BLOCK
  5
1C
330
1B
100
AcDbEntity
 67
     1
  8
0
100
AcDbBlockBegin
  2
*Paper_Space
 70
     0
 10
0.0
 20
0.0
 30
0.0
  3
*Paper_Space
  1

  0
ENDBLK
  5
1D
330
1B
100
AcDbEntity
 67
     1
  8
0
100
AcDbBlockEnd
  0
BLOCK
  5
24
330
23
100
AcDbEntity
  8
0
100
AcDbBlockBegin
  2
*Paper_Space0
 70
     0
 10
0.0
 20
0.0
 30
0.0
  3
*Paper_Space0
  1

  0
ENDBLK
  5
25
330
23
100
AcDbEntity
  8
0
100
AcDbBlockEnd
  0
BLOCK
  5
43
330
41
100
AcDbEntity
  8
0
100
AcDbBlockBegin
  2
block 2
 70
     0
 10
0.0
 20
0.0
 30
0.0
  3
block 2
  1

  0
INSERT
  5
46
330
41
100
AcDbEntity
  8
Layer 1
100
AcDbBlockReference
  2
block 3
 10
0.0
 20
0.0
 30
0.0
  0
INSERT
  5
54
330
41
100
AcDbEntity
  8
Layer 1
100
AcDbBlockReference
  2
block 4
 10
0.0
 20
0.0
 30
0.0
  0
INSERT
  5
82
330
41
100
AcDbEntity
  8
Layer 1
100
AcDbBlockReference
  2
block 5
 10
0.0
 20
0.0
 30
0.0
  0
INSERT
  5
92
330
41
100
AcDbEntity
  8
Layer 1
100
AcDbBlockReference
  2
block 6
 10
0.0
 20
0.0
 30
0.0
  0
ENDBLK
  5
44
330
41
100
AcDbEntity
  8
0
100
AcDbBlockEnd
  0
BLOCK
  5
47
330
45
100
AcDbEntity
  8
0
100
AcDbBlockBegin
  2
block 3
 70
     0
 10
0.0
 20
0.0
 30
0.0
  3
block 3
  1

  0
SPLINE
  5
49
330
45
100
AcDbEntity
  8
Layer 1
370
     0
100
AcDbSpline
210
0.0
220
0.0
230
1.0
 70
    11
 71
     3
 72
    89
 73
    85
 74
     0
 42
0.0000000001
 43
0.0000000001
 12
1.0
 22
0.0
 32
0.0
 13
1.0
 23
0.0
 33
0.0
 40
0.0
 40
0.0
 40
0.0
 40
0.0
 40
1.0
 40
1.0
 40
1.0
 40
2.0
 40
2.0
 40
2.0
 40
3.0
 40
3.0
 40
3.0
 40
4.0
 40
4.0
 40
4.0
 40
5.0
 40
5.0
 40
5.0
 40
6.0
 40
6.0
 40
6.0
 40
7.0
 40
7.0
 40
7.0
 40
8.0
 40
8.0
 40
8.0
 40
9.0
 40
9.0
 40
9.0
 40
10.0
 40
10.0
 40
10.0
 40
11.0
 40
11.0
 40
11.0
 40
12.0
 40
12.0
 40
12.0
 40
13.0
 40
13.0
 40
13.0
 40
14.0
 40
14.0
 40
14.0
 40
15.0
 40
15.0
 40
15.0
 40
16.0
 40
16.0
 40
16.0
 40
17.0
 40
17.0
 40
17.0
 40
18.0
 40
18.0
 40
18.0
 40
19.0
 40
19.0
 40
19.0
 40
20.0
 40
20.0
 40
20.0
 40
21.0
 40
21.0
 40
21.0
 40
22.0
 40
22.0
 40
22.0
 40
23.0
 40
23.0
 40
23.0
 40
24.0
 40
24.0
 40
24.0
 40
25.0
 40
25.0
 40
25.0
 40
26.0
 40
26.0
 40
26.0
 40
27.0
 40
27.0
 40
27.0
 40
28.0
 40
28.0
 40
28.0
 40
28.0
 10
386.1307969689642
 20
-453.0958041200101
 30
0.0
 10
384.9698314074503
 20
-480.9503394597323
 30
0.0
 10
364.078497995828
 20
-513.4487370455099
 30
0.0
 10
343.5732892910492
 20
-538.9830688895245
 30
0.0
 10
331.5801004100504
 20
-554.0721659345636
 30
0.0
 10
317.6528327401902
 20
-568.3855583112654
 30
0.0
 10
302.5645995088153
 20
-582.700678315292
 30
0.0
 10
302.5645995088153
 20
-582.700678315292
 30
0.0
 10
300.2426683857875
 20
-585.0226094383197
 30
0.0
 10
300.2426683857875
 20
-585.0226094383197
 30
0.0
 10
298.6955781174311
 20
-586.5688358930165
 30
0.0
 10
297.1476240354114
 20
-588.5037784955384
 30
0.0
 10
294.4395682055401
 20
-590.438721098064
 30
0.0
 10
290.570546814155
 20
-590.438721098064
 30
0.0
 10
287.4763662774403
 20
-589.6647440570541
 30
0.0
 10
284.7674466339076
 20
-587.7298014545286
 30
0.0
 10
275.4823135827801
 20
-633.767614376
 30
0.0
 10
270.8401789640475
 20
-673.6170662240456
 30
0.0
 10
276.6432791442949
 20
-677.4852238017702
 30
0.0
 10
271.6141560050564
 20
-677.8722123222742
 30
0.0
 10
266.5841690521574
 20
-677.8722123222742
 30
0.0
 10
261.9420344334239
 20
-677.4852238017702
 30
0.0
 10
254.2039916506537
 20
-676.3259858675756
 30
0.0
 10
246.079824161041
 20
-674.7780317855595
 30
0.0
 10
244.5318700790212
 20
-668.974931605313
 30
0.0
 10
239.5027469397837
 20
-650.7916540235619
 30
0.0
 10
253.8170031301488
 20
-595.4678442373006
 30
0.0
 10
261.9420344334239
 20
-562.5824581310189
 30
0.0
 10
265.0370787838001
 20
-548.2690657543135
 30
0.0
 10
276.6432791442949
 20
-497.5873905867866
 30
0.0
 10
283.9943334065601
 20
-467.7979126445425
 30
0.0
 10
284.3804581134027
 20
-467.4109241240367
 30
0.0
 10
284.3804581134027
 20
-466.6369470830286
 30
0.0
 10
284.3804581134027
 20
-465.8629700420188
 30
0.0
 10
284.3804581134027
 20
-465.4759815215139
 30
0.0
 10
284.3804581134027
 20
-465.4759815215139
 30
0.0
 10
284.7674466339076
 20
-465.4759815215139
 30
0.0
 10
285.5414236749175
 20
-461.2208354232862
 30
0.0
 10
285.5414236749175
 20
-457.7379387387427
 30
0.0
 10
284.3804581134027
 20
-455.0307467225348
 30
0.0
 10
284.3804581134027
 20
-455.0307467225348
 30
0.0
 10
282.8333678450463
 20
-451.1608615174873
 30
0.0
 10
282.8333678450463
 20
-451.1608615174873
 30
0.0
 10
282.8333678450463
 20
-451.1608615174873
 30
0.0
 10
283.9943334065601
 20
-449.9998959559725
 30
0.0
 10
283.9943334065601
 20
-449.9998959559725
 30
0.0
 10
283.9943334065601
 20
-449.9998959559725
 30
0.0
 10
284.7674466339076
 20
-449.9998959559725
 30
0.0
 10
284.7674466339076
 20
-449.9998959559725
 30
0.0
 10
285.5414236749175
 20
-449.9998959559725
 30
0.0
 10
303.3377127361628
 20
-449.2276465422874
 30
0.0
 10
307.5937226480528
 20
-456.5769731772298
 30
0.0
 10
311.0757555189339
 20
-462.3800733574762
 30
0.0
 10
308.3676996890626
 20
-474.76025075898
 30
0.0
 10
306.8197456070448
 20
-482.885282062256
 30
0.0
 10
306.4327570865389
 20
-484.8202246647788
 30
0.0
 10
306.0466323796963
 20
-485.9811902262918
 30
0.0
 10
306.0466323796963
 20
-486.3681787467967
 30
0.0
 10
305.6596438591914
 20
-486.7534396399788
 30
0.0
 10
305.6596438591914
 20
-487.1404281604837
 30
0.0
 10
305.6596438591914
 20
-487.5274166809886
 30
0.0
 10
299.0825666379351
 20
-516.9316337300515
 30
0.0
 10
291.7315123756689
 20
-549.8152922090085
 30
0.0
 10
285.9284121954224
 20
-580.7657357127682
 30
0.0
 10
300.2426683857875
 20
-565.2913777745507
 30
0.0
 10
319.9739000495574
 20
-542.078977053563
 30
0.0
 10
336.6100873629503
 20
-516.1576566890417
 30
0.0
 10
360.9834536454518
 20
-478.6301359640274
 30
0.0
 10
376.0716868768277
 20
-434.525538017755
 30
0.0
 10
351.3113320738203
 20
-428.3354493170036
 30
0.0
 10
305.2726553386865
 20
-417.1162374770138
 30
0.0
 10
250.7219587797736
 20
-462.3800733574762
 30
0.0
 10
225.1884907494186
 20
-520.7997913077743
 30
0.0
 10
224.8015022289137
 20
-520.7997913077743
 30
0.0
 10
224.4145137084088
 20
-520.7997913077743
 30
0.0
 10
224.0275251879048
 20
-520.4128027872694
 30
0.0
 10
213.5814265752624
 20
-517.7038831437376
 30
0.0
 10
212.034336306906
 20
-513.835725566013
 30
0.0
 10
216.2894824051336
 20
-501.0685596440062
 30
0.0
 10
226.3485924972711
 20
-484.8202246647788
 30
0.0
 10
253.4300146096448
 20
-444.583784296231
 30
0.0
 10
294.0525796850352
 20
-427.1744837554888
 30
0.0
 10
356.3404552130578
 20
-401.2531633909684
 30
0.0
 10
387.2908987168166
 20
-424.080303218776
 30
0.0
 10
386.1307969689642
 20
-453.0958041200101
 30
0.0
  0
HATCH
  5
4A
330
45
100
AcDbEntity
  8
Layer 1
 62
   142
420
   174517
100
AcDbHatch
 10
0.0
 20
0.0
 30
0.0
210
0.0
220
0.0
230
1.0
  2
SOLID
 70
     1
 71
     0
 91
        1
 92
        1
 93
        1
 72
     4
 94
        3
 73
     0
 74
     1
 95
       89
 96
       85
 40
0.0
 40
0.0
 40
0.0
 40
0.0
 40
1.0
 40
1.0
 40
1.0
 40
2.0
 40
2.0
 40
2.0
 40
3.0
 40
3.0
 40
3.0
 40
4.0
 40
4.0
 40
4.0
 40
5.0
 40
5.0
 40
5.0
 40
6.0
 40
6.0
 40
6.0
 40
7.0
 40
7.0
 40
7.0
 40
8.0
 40
8.0
 40
8.0
 40
9.0
 40
9.0
 40
9.0
 40
10.0
 40
10.0
 40
10.0
 40
11.0
 40
11.0
 40
11.0
 40
12.0
 40
12.0
 40
12.0
 40
13.0
 40
13.0
 40
13.0
 40
14.0
 40
14.0
 40
14.0
 40
15.0
 40
15.0
 40
15.0
 40
16.0
 40
16.0
 40
16.0
 40
17.0
 40
17.0
 40
17.0
 40
18.0
 40
18.0
 40
18.0
 40
19.0
 40
19.0
 40
19.0
 40
20.0
 40
20.0
 40
20.0
 40
21.0
 40
21.0
 40
21.0
 40
22.0
 40
22.0
 40
22.0
 40
23.0
 40
23.0
 40
23.0
 40
24.0
 40
24.0
 40
24.0
 40
25.0
 40
25.0
 40
25.0
 40
26.0
 40
26.0
 40
26.0
 40
27.0
 40
27.0
 40
27.0
 40
28.0
 40
28.0
 40
28.0
 40
28.0
 10
386.1307969689642
 20
-453.0958041200101
 10
384.9698314074503
 20
-480.9503394597323
 10
364.078497995828
 20
-513.4487370455099
 10
343.5732892910492
 20
-538.9830688895245
 10
331.5801004100504
 20
-554.0721659345636
 10
317.6528327401902
 20
-568.3855583112654
 10
302.5645995088153
 20
-582.700678315292
 10
302.5645995088153
 20
-582.700678315292
 10
300.2426683857875
 20
-585.0226094383197
 10
300.2426683857875
 20
-585.0226094383197
 10
298.6955781174311
 20
-586.5688358930165
 10
297.1476240354114
 20
-588.5037784955384
 10
294.4395682055401
 20
-590.438721098064
 10
290.570546814155
 20
-590.438721098064
 10
287.4763662774403
 20
-589.6647440570541
 10
284.7674466339076
 20
-587.7298014545286
 10
275.4823135827801
 20
-633.767614376
 10
270.8401789640475
 20
-673.6170662240456
 10
276.6432791442949
 20
-677.4852238017702
 10
271.6141560050564
 20
-677.8722123222742
 10
266.5841690521574
 20
-677.8722123222742
 10
261.9420344334239
 20
-677.4852238017702
 10
254.2039916506537
 20
-676.3259858675756
 10
246.079824161041
 20
-674.7780317855595
 10
244.5318700790212
 20
-668.974931605313
 10
239.5027469397837
 20
-650.7916540235619
 10
253.8170031301488
 20
-595.4678442373006
 10
261.9420344334239
 20
-562.5824581310189
 10
265.0370787838001
 20
-548.2690657543135
 10
276.6432791442949
 20
-497.5873905867866
 10
283.9943334065601
 20
-467.7979126445425
 10
284.3804581134027
 20
-467.4109241240367
 10
284.3804581134027
 20
-466.6369470830286
 10
284.3804581134027
 20
-465.8629700420188
 10
284.3804581134027
 20
-465.4759815215139
 10
284.3804581134027
 20
-465.4759815215139
 10
284.7674466339076
 20
-465.4759815215139
 10
285.5414236749175
 20
-461.2208354232862
 10
285.5414236749175
 20
-457.7379387387427
 10
284.3804581134027
 20
-455.0307467225348
 10
284.3804581134027
 20
-455.0307467225348
 10
282.8333678450463
 20
-451.1608615174873
 10
282.8333678450463
 20
-451.1608615174873
 10
282.8333678450463
 20
-451.1608615174873
 10
283.9943334065601
 20
-449.9998959559725
 10
283.9943334065601
 20
-449.9998959559725
 10
283.9943334065601
 20
-449.9998959559725
 10
284.7674466339076
 20
-449.9998959559725
 10
284.7674466339076
 20
-449.9998959559725
 10
285.5414236749175
 20
-449.9998959559725
 10
303.3377127361628
 20
-449.2276465422874
 10
307.5937226480528
 20
-456.5769731772298
 10
311.0757555189339
 20
-462.3800733574762
 10
308.3676996890626
 20
-474.76025075898
 10
306.8197456070448
 20
-482.885282062256
 10
306.4327570865389
 20
-484.8202246647788
 10
306.0466323796963
 20
-485.9811902262918
 10
306.0466323796963
 20
-486.3681787467967
 10
305.6596438591914
 20
-486.7534396399788
 10
305.6596438591914
 20
-487.1404281604837
 10
305.6596438591914
 20
-487.5274166809886
 10
299.0825666379351
 20
-516.9316337300515
 10
291.7315123756689
 20
-549.8152922090085
 10
285.9284121954224
 20
-580.7657357127682
 10
300.2426683857875
 20
-565.2913777745507
 10
319.9739000495574
 20
-542.078977053563
 10
336.6100873629503
 20
-516.1576566890417
 10
360.9834536454518
 20
-478.6301359640274
 10
376.0716868768277
 20
-434.525538017755
 10
351.3113320738203
 20
-428.3354493170036
 10
305.2726553386865
 20
-417.1162374770138
 10
250.7219587797736
 20
-462.3800733574762
 10
225.1884907494186
 20
-520.7997913077743
 10
224.8015022289137
 20
-520.7997913077743
 10
224.4145137084088
 20
-520.7997913077743
 10
224.0275251879048
 20
-520.4128027872694
 10
213.5814265752624
 20
-517.7038831437376
 10
212.034336306906
 20
-513.835725566013
 10
216.2894824051336
 20
-501.0685596440062
 10
226.3485924972711
 20
-484.8202246647788
 10
253.4300146096448
 20
-444.583784296231
 10
294.0525796850352
 20
-427.1744837554888
 10
356.3404552130578
 20
-401.2531633909684
 10
387.2908987168166
 20
-424.080303218776
 10
386.1307969689642
 20
-453.0958041200101
 97
        0
 97
        0
 75
     2
 76
     1
 98
        0
  0
SPLINE
  5
4B
330
45
100
AcDbEntity
  8
Layer 1
370
     0
100
AcDbSpline
210
0.0
220
0.0
230
1.0
 70
    11
 71
     3
 72
    71
 73
    67
 74
     0
 42
0.0000000001
 43
0.0000000001
 12
1.0
 22
0.0
 32
0.0
 13
1.0
 23
0.0
 33
0.0
 40
0.0
 40
0.0
 40
0.0
 40
0.0
 40
1.0
 40
1.0
 40
1.0
 40
2.0
 40
2.0
 40
2.0
 40
3.0
 40
3.0
 40
3.0
 40
4.0
 40
4.0
 40
4.0
 40
5.0
 40
5.0
 40
5.0
 40
6.0
 40
6.0
 40
6.0
 40
7.0
 40
7.0
 40
7.0
 40
8.0
 40
8.0
 40
8.0
 40
9.0
 40
9.0
 40
9.0
 40
10.0
 40
10.0
 40
10.0
 40
11.0
 40
11.0
 40
11.0
 40
12.0
 40
12.0
 40
12.0
 40
13.0
 40
13.0
 40
13.0
 40
14.0
 40
14.0
 40
14.0
 40
15.0
 40
15.0
 40
15.0
 40
16.0
 40
16.0
 40
16.0
 40
17.0
 40
17.0
 40
17.0
 40
18.0
 40
18.0
 40
18.0
 40
19.0
 40
19.0
 40
19.0
 40
20.0
 40
20.0
 40
20.0
 40
21.0
 40
21.0
 40
21.0
 40
22.0
 40
22.0
 40
22.0
 40
22.0
 10
384.9681037801265
 20
-606.3000675567855
 30
0.0
 10
384.9681037801265
 20
-606.3000675567855
 30
0.0
 10
404.3123469233906
 20
-569.5465238727775
 30
0.0
 10
404.3123469233906
 20
-569.5465238727775
 30
0.0
 10
414.7584455360329
 20
-550.9762577705242
 30
0.0
 10
424.4305671076636
 20
-532.7929801887731
 30
0.0
 10
427.1386229375357
 20
-532.7929801887731
 30
0.0
 10
432.1677460767723
 20
-532.7929801887731
 30
0.0
 10
445.7088890397918
 20
-533.179968709278
 30
0.0
 10
445.7088890397918
 20
-540.5310229715442
 30
0.0
 10
445.7088890397918
 20
-547.8820772338095
 30
0.0
 10
436.8107445091691
 20
-629.8994567982791
 30
0.0
 10
446.4828660808007
 20
-634.9285799375157
 30
0.0
 10
443.0008332099205
 20
-636.8635225400394
 30
0.0
 10
439.9057888595453
 20
-638.0244881015551
 30
0.0
 10
437.1977330296731
 20
-639.1854536630672
 30
0.0
 10
432.1677460767723
 20
-641.1186686382698
 30
0.0
 10
426.3646458965268
 20
-642.2796341997819
 30
0.0
 10
424.4305671076636
 20
-639.5724421835712
 30
0.0
 10
418.2404784069131
 20
-631.0604223597929
 30
0.0
 10
419.014455447923
 20
-605.9130790362815
 30
0.0
 10
423.2696015461515
 20
-581.9267012742821
 30
0.0
 10
423.2696015461515
 20
-581.9267012742821
 30
0.0
 10
427.5256114580416
 20
-554.4591544550658
 30
0.0
 10
427.5256114580416
 20
-554.4591544550658
 30
0.0
 10
427.9125999785465
 20
-552.9112003730479
 30
0.0
 10
427.9125999785465
 20
-552.5242118525439
 30
0.0
 10
427.5256114580416
 20
-552.9112003730479
 30
0.0
 10
424.8175556281703
 20
-557.1663464712747
 30
0.0
 10
421.7225112777933
 20
-561.4214925695051
 30
0.0
 10
419.014455447923
 20
-566.0653548155606
 30
0.0
 10
413.9844684950231
 20
-573.801669971006
 30
0.0
 10
407.7943797942717
 20
-584.2486323973135
 30
0.0
 10
401.9912796140252
 20
-594.6938671962907
 30
0.0
 10
391.1581924808779
 20
-614.8120873805674
 30
0.0
 10
389.2241136920165
 20
-618.6802449582883
 30
0.0
 10
386.9030463826493
 20
-618.6802449582883
 30
0.0
 10
384.9681037801265
 20
-619.0672334787923
 30
0.0
 10
381.4869347229069
 20
-618.6802449582883
 30
0.0
 10
378.3918903725316
 20
-617.5192793967726
 30
0.0
 10
378.3918903725316
 20
-617.5192793967726
 30
0.0
 10
372.2018016717793
 20
-615.9713253147565
 30
0.0
 10
372.2018016717793
 20
-615.9713253147565
 30
0.0
 10
369.8798705487516
 20
-600.8839558970449
 30
0.0
 10
369.1067573214041
 20
-586.1818473725125
 30
0.0
 10
370.2668590692565
 20
-571.868454995807
 30
0.0
 10
372.2018016717793
 20
-548.2690657543135
 30
0.0
 10
379.1650035998791
 20
-520.0258142667662
 30
0.0
 10
402.7652566550332
 20
-505.7106942627388
 30
0.0
 10
429.0727017263971
 20
-489.0753707630065
 30
0.0
 10
461.5710993121738
 20
-503.390490767034
 30
0.0
 10
461.5710993121738
 20
-512.6747600044982
 30
0.0
 10
461.5710993121738
 20
-517.3186222505556
 30
0.0
 10
459.6361567096528
 20
-521.5737683487841
 30
0.0
 10
457.7020779207905
 20
-525.8289144470118
 30
0.0
 10
456.5411123592758
 20
-528.1508455700405
 30
0.0
 10
455.3810106114233
 20
-530.0840605452404
 30
0.0
 10
453.8330565294054
 20
-532.019003147765
 30
0.0
 10
449.9648989516827
 20
-528.9248226110503
 30
0.0
 10
445.7088890397918
 20
-526.6028914880217
 30
0.0
 10
441.0658906073959
 20
-524.667948885497
 30
0.0
 10
433.3287116382871
 20
-521.5737683487841
 30
0.0
 10
422.4956245051426
 20
-520.0258142667662
 30
0.0
 10
411.6634011856568
 20
-525.8289144470118
 30
0.0
 10
384.1949905527781
 20
-540.1440344510393
 30
0.0
 10
379.5519921203841
 20
-605.1391019952716
 30
0.0
 10
384.9681037801265
 20
-606.3000675567855
 30
0.0
  0
HATCH
  5
4C
330
45
100
AcDbEntity
  8
Layer 1
 62
   142
420
   174517
100
AcDbHatch
 10
0.0
 20
0.0
 30
0.0
210
0.0
220
0.0
230
1.0
  2
SOLID
 70
     1
 71
     0
 91
        1
 92
        1
 93
        1
 72
     4
 94
        3
 73
     0
 74
     1
 95
       71
 96
       67
 40
0.0
 40
0.0
 40
0.0
 40
0.0
 40
1.0
 40
1.0
 40
1.0
 40
2.0
 40
2.0
 40
2.0
 40
3.0
 40
3.0
 40
3.0
 40
4.0
 40
4.0
 40
4.0
 40
5.0
 40
5.0
 40
5.0
 40
6.0
 40
6.0
 40
6.0
 40
7.0
 40
7.0
 40
7.0
 40
8.0
 40
8.0
 40
8.0
 40
9.0
 40
9.0
 40
9.0
 40
10.0
 40
10.0
 40
10.0
 40
11.0
 40
11.0
 40
11.0
 40
12.0
 40
12.0
 40
12.0
 40
13.0
 40
13.0
 40
13.0
 40
14.0
 40
14.0
 40
14.0
 40
15.0
 40
15.0
 40
15.0
 40
16.0
 40
16.0
 40
16.0
 40
17.0
 40
17.0
 40
17.0
 40
18.0
 40
18.0
 40
18.0
 40
19.0
 40
19.0
 40
19.0
 40
20.0
 40
20.0
 40
20.0
 40
21.0
 40
21.0
 40
21.0
 40
22.0
 40
22.0
 40
22.0
 40
22.0
 10
384.9681037801265
 20
-606.3000675567855
 10
384.9681037801265
 20
-606.3000675567855
 10
404.3123469233906
 20
-569.5465238727775
 10
404.3123469233906
 20
-569.5465238727775
 10
414.7584455360329
 20
-550.9762577705242
 10
424.4305671076636
 20
-532.7929801887731
 10
427.1386229375357
 20
-532.7929801887731
 10
432.1677460767723
 20
-532.7929801887731
 10
445.7088890397918
 20
-533.179968709278
 10
445.7088890397918
 20
-540.5310229715442
 10
445.7088890397918
 20
-547.8820772338095
 10
436.8107445091691
 20
-629.8994567982791
 10
446.4828660808007
 20
-634.9285799375157
 10
443.0008332099205
 20
-636.8635225400394
 10
439.9057888595453
 20
-638.0244881015551
 10
437.1977330296731
 20
-639.1854536630672
 10
432.1677460767723
 20
-641.1186686382698
 10
426.3646458965268
 20
-642.2796341997819
 10
424.4305671076636
 20
-639.5724421835712
 10
418.2404784069131
 20
-631.0604223597929
 10
419.014455447923
 20
-605.9130790362815
 10
423.2696015461515
 20
-581.9267012742821
 10
423.2696015461515
 20
-581.9267012742821
 10
427.5256114580416
 20
-554.4591544550658
 10
427.5256114580416
 20
-554.4591544550658
 10
427.9125999785465
 20
-552.9112003730479
 10
427.9125999785465
 20
-552.5242118525439
 10
427.5256114580416
 20
-552.9112003730479
 10
424.8175556281703
 20
-557.1663464712747
 10
421.7225112777933
 20
-561.4214925695051
 10
419.014455447923
 20
-566.0653548155606
 10
413.9844684950231
 20
-573.801669971006
 10
407.7943797942717
 20
-584.2486323973135
 10
401.9912796140252
 20
-594.6938671962907
 10
391.1581924808779
 20
-614.8120873805674
 10
389.2241136920165
 20
-618.6802449582883
 10
386.9030463826493
 20
-618.6802449582883
 10
384.9681037801265
 20
-619.0672334787923
 10
381.4869347229069
 20
-618.6802449582883
 10
378.3918903725316
 20
-617.5192793967726
 10
378.3918903725316
 20
-617.5192793967726
 10
372.2018016717793
 20
-615.9713253147565
 10
372.2018016717793
 20
-615.9713253147565
 10
369.8798705487516
 20
-600.8839558970449
 10
369.1067573214041
 20
-586.1818473725125
 10
370.2668590692565
 20
-571.868454995807
 10
372.2018016717793
 20
-548.2690657543135
 10
379.1650035998791
 20
-520.0258142667662
 10
402.7652566550332
 20
-505.7106942627388
 10
429.0727017263971
 20
-489.0753707630065
 10
461.5710993121738
 20
-503.390490767034
 10
461.5710993121738
 20
-512.6747600044982
 10
461.5710993121738
 20
-517.3186222505556
 10
459.6361567096528
 20
-521.5737683487841
 10
457.7020779207905
 20
-525.8289144470118
 10
456.5411123592758
 20
-528.1508455700405
 10
455.3810106114233
 20
-530.0840605452404
 10
453.8330565294054
 20
-532.019003147765
 10
449.9648989516827
 20
-528.9248226110503
 10
445.7088890397918
 20
-526.6028914880217
 10
441.0658906073959
 20
-524.667948885497
 10
433.3287116382871
 20
-521.5737683487841
 10
422.4956245051426
 20
-520.0258142667662
 10
411.6634011856568
 20
-525.8289144470118
 10
384.1949905527781
 20
-540.1440344510393
 10
379.5519921203841
 20
-605.1391019952716
 10
384.9681037801265
 20
-606.3000675567855
 97
        0
 97
        0
 75
     2
 76
     1
 98
        0
  0
SPLINE
  5
4D
330
45
100
AcDbEntity
  8
Layer 1
370
     0
100
AcDbSpline
210
0.0
220
0.0
230
1.0
 70
    11
 71
     3
 72
   119
 73
   115
 74
     0
 42
0.0000000001
 43
0.0000000001
 12
1.0
 22
0.0
 32
0.0
 13
1.0
 23
0.0
 33
0.0
 40
0.0
 40
0.0
 40
0.0
 40
0.0
 40
1.0
 40
1.0
 40
1.0
 40
2.0
 40
2.0
 40
2.0
 40
3.0
 40
3.0
 40
3.0
 40
4.0
 40
4.0
 40
4.0
 40
5.0
 40
5.0
 40
5.0
 40
6.0
 40
6.0
 40
6.0
 40
7.0
 40
7.0
 40
7.0
 40
8.0
 40
8.0
 40
8.0
 40
9.0
 40
9.0
 40
9.0
 40
10.0
 40
10.0
 40
10.0
 40
11.0
 40
11.0
 40
11.0
 40
12.0
 40
12.0
 40
12.0
 40
13.0
 40
13.0
 40
13.0
 40
14.0
 40
14.0
 40
14.0
 40
15.0
 40
15.0
 40
15.0
 40
16.0
 40
16.0
 40
16.0
 40
17.0
 40
17.0
 40
17.0
 40
18.0
 40
18.0
 40
18.0
 40
19.0
 40
19.0
 40
19.0
 40
20.0
 40
20.0
 40
20.0
 40
21.0
 40
21.0
 40
21.0
 40
22.0
 40
22.0
 40
22.0
 40
23.0
 40
23.0
 40
23.0
 40
24.0
 40
24.0
 40
24.0
 40
25.0
 40
25.0
 40
25.0
 40
26.0
 40
26.0
 40
26.0
 40
27.0
 40
27.0
 40
27.0
 40
28.0
 40
28.0
 40
28.0
 40
29.0
 40
29.0
 40
29.0
 40
30.0
 40
30.0
 40
30.0
 40
31.0
 40
31.0
 40
31.0
 40
32.0
 40
32.0
 40
32.0
 40
33.0
 40
33.0
 40
33.0
 40
34.0
 40
34.0
 40
34.0
 40
35.0
 40
35.0
 40
35.0
 40
36.0
 40
36.0
 40
36.0
 40
37.0
 40
37.0
 40
37.0
 40
38.0
 40
38.0
 40
38.0
 40
38.0
 10
671.2584104694015
 20
-444.1967957757261
 30
0.0
 10
672.0323875104114
 20
-447.6796924602677
 30
0.0
 10
672.0323875104114
 20
-451.1608615174873
 30
0.0
 10
670.8714219488975
 20
-455.4177352430379
 30
0.0
 10
660.4261871499166
 20
-453.86978116102
 30
0.0
 10
646.8850441868999
 20
-453.4827926405151
 30
0.0
 10
631.0219701008537
 20
-454.2567696815231
 30
0.0
 10
603.5544232816392
 20
-455.4177352430379
 30
0.0
 10
562.9318582062442
 20
-460.0598698617714
 30
0.0
 10
505.6739696311233
 20
-473.6010128247899
 30
0.0
 10
502.9659138012512
 20
-473.988001345293
 30
0.0
 10
501.0309711987284
 20
-474.76025075898
 30
0.0
 10
499.096892409867
 20
-475.1472392794849
 30
0.0
 10
499.096892409867
 20
-475.1472392794849
 30
0.0
 10
498.322915368858
 20
-478.6301359640274
 30
0.0
 10
498.322915368858
 20
-478.6301359640274
 30
0.0
 10
498.322915368858
 20
-478.6301359640274
 30
0.0
 10
496.7758251004998
 20
-486.3681787467967
 30
0.0
 10
496.7758251004998
 20
-486.3681787467967
 30
0.0
 10
496.7758251004998
 20
-488.6883822425016
 30
0.0
 10
484.7817724058395
 20
-543.625203508258
 30
0.0
 10
485.9427379673534
 20
-576.8975781350473
 30
0.0
 10
485.5557494468485
 20
-605.9130790362815
 30
0.0
 10
489.0377823177296
 20
-622.161414015507
 30
0.0
 10
493.2937922296214
 20
-632.6083764418127
 30
0.0
 10
495.6148595389859
 20
-638.4114766220555
 30
0.0
 10
497.9359268483531
 20
-643.0536112407899
 30
0.0
 10
500.6439826782234
 20
-645.7625308843217
 30
0.0
 10
500.2578579713818
 20
-645.7625308843217
 30
0.0
 10
500.2578579713818
 20
-645.7625308843217
 30
0.0
 10
499.8708694508759
 20
-646.1477917775046
 30
0.0
 10
499.8708694508759
 20
-646.1477917775046
 30
0.0
 10
497.1619498073433
 20
-647.3087573390203
 30
0.0
 10
497.1619498073433
 20
-647.3087573390203
 30
0.0
 10
493.6807807501245
 20
-648.85671142104
 30
0.0
 10
488.6507937972247
 20
-650.7916540235619
 30
0.0
 10
482.8476936169782
 20
-651.9526195850758
 30
0.0
 10
477.8185704777397
 20
-653.1118575192668
 30
0.0
 10
473.5625605658497
 20
-647.6957458595261
 30
0.0
 10
469.3074144676229
 20
-638.798465142565
 30
0.0
 10
465.825381596741
 20
-631.834399400801
 30
0.0
 10
463.5034504737123
 20
-622.161414015507
 30
0.0
 10
462.3433487258617
 20
-609.7812366140024
 30
0.0
 10
462.3433487258617
 20
-609.7812366140024
 30
0.0
 10
462.3433487258617
 20
-609.3942480935002
 30
0.0
 10
462.3433487258617
 20
-609.3942480935002
 30
0.0
 10
460.7953946438429
 20
-589.6647440570541
 30
0.0
 10
461.9563602053568
 20
-564.5174007335409
 30
0.0
 10
465.4383930762369
 20
-537.0481262870017
 30
0.0
 10
465.4383930762369
 20
-537.0481262870017
 30
0.0
 10
468.5334374266131
 20
-513.835725566013
 30
0.0
 10
468.5334374266131
 20
-513.835725566013
 30
0.0
 10
468.5334374266131
 20
-513.835725566013
 30
0.0
 10
468.9204259471171
 20
-513.4487370455099
 30
0.0
 10
468.9204259471171
 20
-513.4487370455099
 30
0.0
 10
468.9204259471171
 20
-511.9007829634902
 30
0.0
 10
469.3074144676229
 20
-510.3545565087952
 30
0.0
 10
469.6935391744655
 20
-508.4196139062706
 30
0.0
 10
469.6935391744655
 20
-507.6456368652616
 30
0.0
 10
469.6935391744655
 20
-507.2586483447567
 30
0.0
 10
470.0805276949704
 20
-506.8716598242518
 30
0.0
 10
470.0805276949704
 20
-505.7106942627388
 30
0.0
 10
470.4675162154745
 20
-504.164467808042
 30
0.0
 10
470.8545047359803
 20
-502.2295252055192
 30
0.0
 10
470.8545047359803
 20
-502.2295252055192
 30
0.0
 10
470.8545047359803
 20
-501.0685596440062
 30
0.0
 10
470.8545047359803
 20
-501.0685596440062
 30
0.0
 10
470.8545047359803
 20
-501.0685596440062
 30
0.0
 10
475.1105146478694
 20
-480.9503394597323
 30
0.0
 10
475.1105146478694
 20
-480.9503394597323
 30
0.0
 10
445.3201728919621
 20
-488.3013937219966
 30
0.0
 10
429.844951140084
 20
-492.1712789270432
 30
0.0
 10
421.7207836504704
 20
-494.8784709432548
 30
0.0
 10
417.0777852180745
 20
-496.4264250252718
 30
0.0
 10
414.3697293882033
 20
-497.5873905867866
 30
0.0
 10
413.2096276403527
 20
-498.3613676277964
 30
0.0
 10
412.0486620788379
 20
-497.9743791072915
 30
0.0
 10
411.2746850378289
 20
-497.2004020662825
 30
0.0
 10
410.5007079968191
 20
-496.0394365047678
 30
0.0
 10
409.3406062489667
 20
-494.1044939022449
 30
0.0
 10
409.3406062489667
 20
-491.7842904065401
 30
0.0
 10
410.5007079968191
 20
-489.0753707630065
 30
0.0
 10
411.661673558333
 20
-487.1404281604837
 30
0.0
 10
413.5966161608567
 20
-485.2072131852838
 30
0.0
 10
416.3046719907279
 20
-483.659259103264
 30
0.0
 10
417.4647737385803
 20
-482.885282062256
 30
0.0
 10
419.0127278205991
 20
-482.4982935417493
 30
0.0
 10
420.5598180889565
 20
-482.1113050212462
 30
0.0
 10
420.5598180889565
 20
-482.1113050212462
 30
0.0
 10
436.8090168818444
 20
-477.0821818820077
 30
0.0
 10
436.8090168818444
 20
-477.0821818820077
 30
0.0
 10
447.2551154944867
 20
-473.988001345293
 30
0.0
 10
461.5693716848509
 20
-469.7311276197424
 30
0.0
 10
478.978672225594
 20
-465.0889930010089
 30
0.0
 10
483.6216706579871
 20
-445.357761337239
 30
0.0
 10
489.0377823177296
 20
-426.0135181939759
 30
0.0
 10
495.2278710184828
 20
-407.056263571214
 30
0.0
 10
495.2278710184828
 20
-407.056263571214
 30
0.0
 10
498.7099038893621
 20
-395.4500632107201
 30
0.0
 10
498.7099038893621
 20
-395.4500632107201
 30
0.0
 10
506.4479466721341
 20
-393.1298597150153
 30
0.0
 10
514.185125641241
 20
-393.9021091287023
 30
0.0
 10
522.3092931308556
 20
-397.3850058132439
 30
0.0
 10
514.95910268225
 20
-417.1162374770138
 30
0.0
 10
509.1560025020044
 20
-436.0734920997747
 30
0.0
 10
504.5130040696095
 20
-454.2567696815231
 30
0.0
 10
504.1260155491054
 20
-455.4177352430379
 30
0.0
 10
503.3520385080956
 20
-456.9639616977347
 30
0.0
 10
502.9659138012512
 20
-458.8989043002575
 30
0.0
 10
549.0045905363859
 20
-447.6796924602677
 30
0.0
 10
607.4225808593619
 20
-435.2995150587649
 30
0.0
 10
657.7172675063848
 20
-433.3645724562402
 30
0.0
 10
666.6162758506671
 20
-432.9775839357371
 30
0.0
 10
670.0974449078876
 20
-438.3936955954796
 30
0.0
 10
671.2584104694015
 20
-444.1967957757261
 30
0.0
  0
HATCH
  5
4E
330
45
100
AcDbEntity
  8
Layer 1
 62
   142
420
   174517
100
AcDbHatch
 10
0.0
 20
0.0
 30
0.0
210
0.0
220
0.0
230
1.0
  2
SOLID
 70
     1
 71
     0
 91
        1
 92
        1
 93
        1
 72
     4
 94
        3
 73
     0
 74
     1
 95
      119
 96
      115
 40
0.0
 40
0.0
 40
0.0
 40
0.0
 40
1.0
 40
1.0
 40
1.0
 40
2.0
 40
2.0
 40
2.0
 40
3.0
 40
3.0
 40
3.0
 40
4.0
 40
4.0
 40
4.0
 40
5.0
 40
5.0
 40
5.0
 40
6.0
 40
6.0
 40
6.0
 40
7.0
 40
7.0
 40
7.0
 40
8.0
 40
8.0
 40
8.0
 40
9.0
 40
9.0
 40
9.0
 40
10.0
 40
10.0
 40
10.0
 40
11.0
 40
11.0
 40
11.0
 40
12.0
 40
12.0
 40
12.0
 40
13.0
 40
13.0
 40
13.0
 40
14.0
 40
14.0
 40
14.0
 40
15.0
 40
15.0
 40
15.0
 40
16.0
 40
16.0
 40
16.0
 40
17.0
 40
17.0
 40
17.0
 40
18.0
 40
18.0
 40
18.0
 40
19.0
 40
19.0
 40
19.0
 40
20.0
 40
20.0
 40
20.0
 40
21.0
 40
21.0
 40
21.0
 40
22.0
 40
22.0
 40
22.0
 40
23.0
 40
23.0
 40
23.0
 40
24.0
 40
24.0
 40
24.0
 40
25.0
 40
25.0
 40
25.0
 40
26.0
 40
26.0
 40
26.0
 40
27.0
 40
27.0
 40
27.0
 40
28.0
 40
28.0
 40
28.0
 40
29.0
 40
29.0
 40
29.0
 40
30.0
 40
30.0
 40
30.0
 40
31.0
 40
31.0
 40
31.0
 40
32.0
 40
32.0
 40
32.0
 40
33.0
 40
33.0
 40
33.0
 40
34.0
 40
34.0
 40
34.0
 40
35.0
 40
35.0
 40
35.0
 40
36.0
 40
36.0
 40
36.0
 40
37.0
 40
37.0
 40
37.0
 40
38.0
 40
38.0
 40
38.0
 40
38.0
 10
671.2584104694015
 20
-444.1967957757261
 10
672.0323875104114
 20
-447.6796924602677
 10
672.0323875104114
 20
-451.1608615174873
 10
670.8714219488975
 20
-455.4177352430379
 10
660.4261871499166
 20
-453.86978116102
 10
646.8850441868999
 20
-453.4827926405151
 10
631.0219701008537
 20
-454.2567696815231
 10
603.5544232816392
 20
-455.4177352430379
 10
562.9318582062442
 20
-460.0598698617714
 10
505.6739696311233
 20
-473.6010128247899
 10
502.9659138012512
 20
-473.988001345293
 10
501.0309711987284
 20
-474.76025075898
 10
499.096892409867
 20
-475.1472392794849
 10
499.096892409867
 20
-475.1472392794849
 10
498.322915368858
 20
-478.6301359640274
 10
498.322915368858
 20
-478.6301359640274
 10
498.322915368858
 20
-478.6301359640274
 10
496.7758251004998
 20
-486.3681787467967
 10
496.7758251004998
 20
-486.3681787467967
 10
496.7758251004998
 20
-488.6883822425016
 10
484.7817724058395
 20
-543.625203508258
 10
485.9427379673534
 20
-576.8975781350473
 10
485.5557494468485
 20
-605.9130790362815
 10
489.0377823177296
 20
-622.161414015507
 10
493.2937922296214
 20
-632.6083764418127
 10
495.6148595389859
 20
-638.4114766220555
 10
497.9359268483531
 20
-643.0536112407899
 10
500.6439826782234
 20
-645.7625308843217
 10
500.2578579713818
 20
-645.7625308843217
 10
500.2578579713818
 20
-645.7625308843217
 10
499.8708694508759
 20
-646.1477917775046
 10
499.8708694508759
 20
-646.1477917775046
 10
497.1619498073433
 20
-647.3087573390203
 10
497.1619498073433
 20
-647.3087573390203
 10
493.6807807501245
 20
-648.85671142104
 10
488.6507937972247
 20
-650.7916540235619
 10
482.8476936169782
 20
-651.9526195850758
 10
477.8185704777397
 20
-653.1118575192668
 10
473.5625605658497
 20
-647.6957458595261
 10
469.3074144676229
 20
-638.798465142565
 10
465.825381596741
 20
-631.834399400801
 10
463.5034504737123
 20
-622.161414015507
 10
462.3433487258617
 20
-609.7812366140024
 10
462.3433487258617
 20
-609.7812366140024
 10
462.3433487258617
 20
-609.3942480935002
 10
462.3433487258617
 20
-609.3942480935002
 10
460.7953946438429
 20
-589.6647440570541
 10
461.9563602053568
 20
-564.5174007335409
 10
465.4383930762369
 20
-537.0481262870017
 10
465.4383930762369
 20
-537.0481262870017
 10
468.5334374266131
 20
-513.835725566013
 10
468.5334374266131
 20
-513.835725566013
 10
468.5334374266131
 20
-513.835725566013
 10
468.9204259471171
 20
-513.4487370455099
 10
468.9204259471171
 20
-513.4487370455099
 10
468.9204259471171
 20
-511.9007829634902
 10
469.3074144676229
 20
-510.3545565087952
 10
469.6935391744655
 20
-508.4196139062706
 10
469.6935391744655
 20
-507.6456368652616
 10
469.6935391744655
 20
-507.2586483447567
 10
470.0805276949704
 20
-506.8716598242518
 10
470.0805276949704
 20
-505.7106942627388
 10
470.4675162154745
 20
-504.164467808042
 10
470.8545047359803
 20
-502.2295252055192
 10
470.8545047359803
 20
-502.2295252055192
 10
470.8545047359803
 20
-501.0685596440062
 10
470.8545047359803
 20
-501.0685596440062
 10
470.8545047359803
 20
-501.0685596440062
 10
475.1105146478694
 20
-480.9503394597323
 10
475.1105146478694
 20
-480.9503394597323
 10
445.3201728919621
 20
-488.3013937219966
 10
429.844951140084
 20
-492.1712789270432
 10
421.7207836504704
 20
-494.8784709432548
 10
417.0777852180745
 20
-496.4264250252718
 10
414.3697293882033
 20
-497.5873905867866
 10
413.2096276403527
 20
-498.3613676277964
 10
412.0486620788379
 20
-497.9743791072915
 10
411.2746850378289
 20
-497.2004020662825
 10
410.5007079968191
 20
-496.0394365047678
 10
409.3406062489667
 20
-494.1044939022449
 10
409.3406062489667
 20
-491.7842904065401
 10
410.5007079968191
 20
-489.0753707630065
 10
411.661673558333
 20
-487.1404281604837
 10
413.5966161608567
 20
-485.2072131852838
 10
416.3046719907279
 20
-483.659259103264
 10
417.4647737385803
 20
-482.885282062256
 10
419.0127278205991
 20
-482.4982935417493
 10
420.5598180889565
 20
-482.1113050212462
 10
420.5598180889565
 20
-482.1113050212462
 10
436.8090168818444
 20
-477.0821818820077
 10
436.8090168818444
 20
-477.0821818820077
 10
447.2551154944867
 20
-473.988001345293
 10
461.5693716848509
 20
-469.7311276197424
 10
478.978672225594
 20
-465.0889930010089
 10
483.6216706579871
 20
-445.357761337239
 10
489.0377823177296
 20
-426.0135181939759
 10
495.2278710184828
 20
-407.056263571214
 10
495.2278710184828
 20
-407.056263571214
 10
498.7099038893621
 20
-395.4500632107201
 10
498.7099038893621
 20
-395.4500632107201
 10
506.4479466721341
 20
-393.1298597150153
 10
514.185125641241
 20
-393.9021091287023
 10
522.3092931308556
 20
-397.3850058132439
 10
514.95910268225
 20
-417.1162374770138
 10
509.1560025020044
 20
-436.0734920997747
 10
504.5130040696095
 20
-454.2567696815231
 10
504.1260155491054
 20
-455.4177352430379
 10
503.3520385080956
 20
-456.9639616977347
 10
502.9659138012512
 20
-458.8989043002575
 10
549.0045905363859
 20
-447.6796924602677
 10
607.4225808593619
 20
-435.2995150587649
 10
657.7172675063848
 20
-433.3645724562402
 10
666.6162758506671
 20
-432.9775839357371
 10
670.0974449078876
 20
-438.3936955954796
 10
671.2584104694015
 20
-444.1967957757261
 97
        0
 97
        0
 75
     2
 76
     1
 98
        0
  0
SPLINE
  5
4F
330
45
100
AcDbEntity
  8
Layer 1
370
     0
100
AcDbSpline
210
0.0
220
0.0
230
1.0
 70
    11
 71
     3
 72
    41
 73
    37
 74
     0
 42
0.0000000001
 43
0.0000000001
 12
1.0
 22
0.0
 32
0.0
 13
1.0
 23
0.0
 33
0.0
 40
0.0
 40
0.0
 40
0.0
 40
0.0
 40
1.0
 40
1.0
 40
1.0
 40
2.0
 40
2.0
 40
2.0
 40
3.0
 40
3.0
 40
3.0
 40
4.0
 40
4.0
 40
4.0
 40
5.0
 40
5.0
 40
5.0
 40
6.0
 40
6.0
 40
6.0
 40
7.0
 40
7.0
 40
7.0
 40
8.0
 40
8.0
 40
8.0
 40
9.0
 40
9.0
 40
9.0
 40
10.0
 40
10.0
 40
10.0
 40
11.0
 40
11.0
 40
11.0
 40
12.0
 40
12.0
 40
12.0
 40
12.0
 10
590.7855297323058
 20
-513.4487370455099
 30
0.0
 10
591.1725182528116
 20
-508.4196139062706
 30
0.0
 10
590.4002688391265
 20
-502.2295252055192
 30
0.0
 10
586.1433951135714
 20
-499.5206055619874
 30
0.0
 10
578.0200914376201
 20
-494.491482422748
 30
0.0
 10
552.8727481141086
 20
-514.6097026070229
 30
0.0
 10
539.718593671596
 20
-557.5533349917805
 30
0.0
 10
526.5644392290824
 20
-600.496967376539
 30
0.0
 10
537.783651069074
 20
-635.3155684580197
 30
0.0
 10
545.1347053313402
 20
-636.4765340195354
 30
0.0
 10
556.7409056918332
 20
-638.4114766220555
 30
0.0
 10
571.0560256958597
 20
-622.5484025360129
 30
0.0
 10
582.2752375358505
 20
-605.1391019952716
 30
0.0
 10
588.8523147571068
 20
-595.0808557167948
 30
0.0
 10
595.4293919783631
 20
-583.4746553563018
 30
0.0
 10
601.6194806791136
 20
-570.320500913791
 30
0.0
 10
601.6194806791136
 20
-570.320500913791
 30
0.0
 10
604.3266726953225
 20
-571.481466475303
 30
0.0
 10
604.3266726953225
 20
-571.481466475303
 30
0.0
 10
605.4876382568382
 20
-572.6424320368169
 30
0.0
 10
607.0355923388579
 20
-573.414681450502
 30
0.0
 10
606.6486038183539
 20
-574.9626355325217
 30
0.0
 10
602.3934577201235
 20
-592.7589245937688
 30
0.0
 10
579.566317892315
 20
-641.892645679276
 30
0.0
 10
553.2597366346126
 20
-648.0827343800265
 30
0.0
 10
519.6003734873229
 20
-655.0468001217905
 30
0.0
 10
499.0960285962046
 20
-614.4250988600616
 30
0.0
 10
514.5712503480836
 20
-557.5533349917805
 30
0.0
 10
531.2074376614783
 20
-496.0394365047678
 30
0.0
 10
583.8231916178665
 20
-475.1472392794849
 30
0.0
 10
598.136583994572
 20
-500.6815711235013
 30
0.0
 10
609.3557958345591
 20
-521.9607568692891
 30
0.0
 10
596.590357539877
 20
-521.9607568692891
 30
0.0
 10
589.2393032776108
 20
-523.1217224308039
 30
0.0
 10
590.013280318617
 20
-519.6388257462604
 30
0.0
 10
590.4002688391265
 20
-516.5446452095457
 30
0.0
 10
590.7855297323058
 20
-513.4487370455099
 30
0.0
  0
HATCH
  5
50
330
45
100
AcDbEntity
  8
Layer 1
 62
   142
420
   174517
100
AcDbHatch
 10
0.0
 20
0.0
 30
0.0
210
0.0
220
0.0
230
1.0
  2
SOLID
 70
     1
 71
     0
 91
        1
 92
        1
 93
        1
 72
     4
 94
        3
 73
     0
 74
     1
 95
       41
 96
       37
 40
0.0
 40
0.0
 40
0.0
 40
0.0
 40
1.0
 40
1.0
 40
1.0
 40
2.0
 40
2.0
 40
2.0
 40
3.0
 40
3.0
 40
3.0
 40
4.0
 40
4.0
 40
4.0
 40
5.0
 40
5.0
 40
5.0
 40
6.0
 40
6.0
 40
6.0
 40
7.0
 40
7.0
 40
7.0
 40
8.0
 40
8.0
 40
8.0
 40
9.0
 40
9.0
 40
9.0
 40
10.0
 40
10.0
 40
10.0
 40
11.0
 40
11.0
 40
11.0
 40
12.0
 40
12.0
 40
12.0
 40
12.0
 10
590.7855297323058
 20
-513.4487370455099
 10
591.1725182528116
 20
-508.4196139062706
 10
590.4002688391265
 20
-502.2295252055192
 10
586.1433951135714
 20
-499.5206055619874
 10
578.0200914376201
 20
-494.491482422748
 10
552.8727481141086
 20
-514.6097026070229
 10
539.718593671596
 20
-557.5533349917805
 10
526.5644392290824
 20
-600.496967376539
 10
537.783651069074
 20
-635.3155684580197
 10
545.1347053313402
 20
-636.4765340195354
 10
556.7409056918332
 20
-638.4114766220555
 10
571.0560256958597
 20
-622.5484025360129
 10
582.2752375358505
 20
-605.1391019952716
 10
588.8523147571068
 20
-595.0808557167948
 10
595.4293919783631
 20
-583.4746553563018
 10
601.6194806791136
 20
-570.320500913791
 10
601.6194806791136
 20
-570.320500913791
 10
604.3266726953225
 20
-571.481466475303
 10
604.3266726953225
 20
-571.481466475303
 10
605.4876382568382
 20
-572.6424320368169
 10
607.0355923388579
 20
-573.414681450502
 10
606.6486038183539
 20
-574.9626355325217
 10
602.3934577201235
 20
-592.7589245937688
 10
579.566317892315
 20
-641.892645679276
 10
553.2597366346126
 20
-648.0827343800265
 10
519.6003734873229
 20
-655.0468001217905
 10
499.0960285962046
 20
-614.4250988600616
 10
514.5712503480836
 20
-557.5533349917805
 10
531.2074376614783
 20
-496.0394365047678
 10
583.8231916178665
 20
-475.1472392794849
 10
598.136583994572
 20
-500.6815711235013
 10
609.3557958345591
 20
-521.9607568692891
 10
596.590357539877
 20
-521.9607568692891
 10
589.2393032776108
 20
-523.1217224308039
 10
590.013280318617
 20
-519.6388257462604
 10
590.4002688391265
 20
-516.5446452095457
 10
590.7855297323058
 20
-513.4487370455099
 97
        0
 97
        0
 75
     2
 76
     1
 98
        0
  0
SPLINE
  5
51
330
45
100
AcDbEntity
  8
Layer 1
370
     0
100
AcDbSpline
210
0.0
220
0.0
230
1.0
 70
    11
 71
     3
 72
    71
 73
    67
 74
     0
 42
0.0000000001
 43
0.0000000001
 12
1.0
 22
0.0
 32
0.0
 13
1.0
 23
0.0
 33
0.0
 40
0.0
 40
0.0
 40
0.0
 40
0.0
 40
1.0
 40
1.0
 40
1.0
 40
2.0
 40
2.0
 40
2.0
 40
3.0
 40
3.0
 40
3.0
 40
4.0
 40
4.0
 40
4.0
 40
5.0
 40
5.0
 40
5.0
 40
6.0
 40
6.0
 40
6.0
 40
7.0
 40
7.0
 40
7.0
 40
8.0
 40
8.0
 40
8.0
 40
9.0
 40
9.0
 40
9.0
 40
10.0
 40
10.0
 40
10.0
 40
11.0
 40
11.0
 40
11.0
 40
12.0
 40
12.0
 40
12.0
 40
13.0
 40
13.0
 40
13.0
 40
14.0
 40
14.0
 40
14.0
 40
15.0
 40
15.0
 40
15.0
 40
16.0
 40
16.0
 40
16.0
 40
17.0
 40
17.0
 40
17.0
 40
18.0
 40
18.0
 40
18.0
 40
19.0
 40
19.0
 40
19.0
 40
20.0
 40
20.0
 40
20.0
 40
21.0
 40
21.0
 40
21.0
 40
22.0
 40
22.0
 40
22.0
 40
22.0
 10
671.2566828420768
 20
-653.1118575192668
 30
0.0
 10
667.0015367438482
 20
-653.8858345602766
 30
0.0
 10
663.1316515388025
 20
-653.8858345602766
 30
0.0
 10
660.0374710020897
 20
-653.4988460397708
 30
0.0
 10
654.2343708218432
 20
-653.1118575192668
 30
0.0
 10
648.8182591620989
 20
-650.7916540235619
 30
0.0
 10
648.8182591620989
 20
-644.9885538433155
 30
0.0
 10
648.8182591620989
 20
-597.0157983193203
 30
0.0
 10
678.9947256248488
 20
-524.667948885497
 30
0.0
 10
675.5118289403072
 20
-526.6028914880217
 30
0.0
 10
663.5186400593066
 20
-531.6320146272601
 30
0.0
 10
628.3130504573219
 20
-595.0808557167948
 30
0.0
 10
619.0270535925301
 20
-630.2864453187831
 30
0.0
 10
619.0270535925301
 20
-630.2864453187831
 30
0.0
 10
619.80103063354
 20
-631.0604223597929
 30
0.0
 10
619.80103063354
 20
-631.0604223597929
 30
0.0
 10
619.414042113036
 20
-631.0604223597929
 30
0.0
 10
619.0270535925301
 20
-631.4474108802988
 30
0.0
 10
618.6400650720261
 20
-631.4474108802988
 30
0.0
 10
618.6400650720261
 20
-631.4474108802988
 30
0.0
 10
618.6400650720261
 20
-631.834399400801
 30
0.0
 10
618.6400650720261
 20
-631.834399400801
 30
0.0
 10
615.1588960148092
 20
-633.3823534828207
 30
0.0
 10
608.5818187935492
 20
-636.8635225400394
 30
0.0
 10
602.7787186133064
 20
-635.7025569785255
 30
0.0
 10
599.2975495560877
 20
-634.9285799375157
 30
0.0
 10
597.3626069535621
 20
-633.3823534828207
 30
0.0
 10
596.5886299125523
 20
-631.4474108802988
 30
0.0
 10
595.8146528715424
 20
-630.2864453187831
 30
0.0
 10
595.4276643510384
 20
-629.1254797572692
 30
0.0
 10
595.4276643510384
 20
-627.9645141957535
 30
0.0
 10
595.4276643510384
 20
-623.7093680975267
 30
0.0
 10
595.4276643510384
 20
-619.0672334787923
 30
0.0
 10
595.8146528715424
 20
-614.4250988600616
 30
0.0
 10
595.8146528715424
 20
-614.4250988600616
 30
0.0
 10
595.4276643510384
 20
-614.0381103395557
 30
0.0
 10
595.4276643510384
 20
-614.0381103395557
 30
0.0
 10
595.4276643510384
 20
-614.0381103395557
 30
0.0
 10
595.8146528715424
 20
-613.6511218190517
 30
0.0
 10
595.8146528715424
 20
-613.6511218190517
 30
0.0
 10
598.9105610355818
 20
-573.0294205573227
 30
0.0
 10
611.2907384370847
 20
-515.7706681685377
 30
0.0
 10
627.539073416312
 20
-464.3150159599991
 30
0.0
 10
634.8901276785764
 20
-442.6505693210311
 30
0.0
 10
642.2411819408426
 20
-422.5323491367562
 30
0.0
 10
649.5905085757877
 20
-405.1230485960141
 30
0.0
 10
658.48951692007
 20
-403.9620830345011
 30
0.0
 10
666.227559702842
 20
-405.510037116519
 30
0.0
 10
673.5786139651063
 20
-410.5391602557575
 30
0.0
 10
667.7755137848617
 20
-422.5323491367562
 30
0.0
 10
661.1984365636017
 20
-436.8474691407828
 30
0.0
 10
655.0083478628512
 20
-453.86978116102
 30
0.0
 10
641.4672048998327
 20
-487.9144052014917
 30
0.0
 10
631.4072309940366
 20
-534.3409342707928
 30
0.0
 10
630.2479930598456
 20
-538.9830688895245
 30
0.0
 10
625.9911193342923
 20
-558.7143005532944
 30
0.0
 10
622.8969387975794
 20
-576.1236010940374
 30
0.0
 10
620.9619961950557
 20
-590.0517325775581
 30
0.0
 10
637.210331174283
 20
-554.0721659345636
 30
0.0
 10
663.9056285798142
 20
-508.4196139062706
 30
0.0
 10
675.8988174608112
 20
-509.5805794677854
 30
0.0
 10
682.0889061615635
 20
-509.5805794677854
 30
0.0
 10
698.7259572886196
 20
-520.0258142667662
 30
0.0
 10
698.7259572886196
 20
-522.7347339102971
 30
0.0
 10
698.7259572886196
 20
-524.667948885497
 30
0.0
 10
668.160774678041
 20
-603.5928755405766
 30
0.0
 10
671.2566828420768
 20
-653.1118575192668
 30
0.0
  0
HATCH
  5
52
330
45
100
AcDbEntity
  8
Layer 1
 62
   142
420
   174517
100
AcDbHatch
 10
0.0
 20
0.0
 30
0.0
210
0.0
220
0.0
230
1.0
  2
SOLID
 70
     1
 71
     0
 91
        1
 92
        1
 93
        1
 72
     4
 94
        3
 73
     0
 74
     1
 95
       71
 96
       67
 40
0.0
 40
0.0
 40
0.0
 40
0.0
 40
1.0
 40
1.0
 40
1.0
 40
2.0
 40
2.0
 40
2.0
 40
3.0
 40
3.0
 40
3.0
 40
4.0
 40
4.0
 40
4.0
 40
5.0
 40
5.0
 40
5.0
 40
6.0
 40
6.0
 40
6.0
 40
7.0
 40
7.0
 40
7.0
 40
8.0
 40
8.0
 40
8.0
 40
9.0
 40
9.0
 40
9.0
 40
10.0
 40
10.0
 40
10.0
 40
11.0
 40
11.0
 40
11.0
 40
12.0
 40
12.0
 40
12.0
 40
13.0
 40
13.0
 40
13.0
 40
14.0
 40
14.0
 40
14.0
 40
15.0
 40
15.0
 40
15.0
 40
16.0
 40
16.0
 40
16.0
 40
17.0
 40
17.0
 40
17.0
 40
18.0
 40
18.0
 40
18.0
 40
19.0
 40
19.0
 40
19.0
 40
20.0
 40
20.0
 40
20.0
 40
21.0
 40
21.0
 40
21.0
 40
22.0
 40
22.0
 40
22.0
 40
22.0
 10
671.2566828420768
 20
-653.1118575192668
 10
667.0015367438482
 20
-653.8858345602766
 10
663.1316515388025
 20
-653.8858345602766
 10
660.0374710020897
 20
-653.4988460397708
 10
654.2343708218432
 20
-653.1118575192668
 10
648.8182591620989
 20
-650.7916540235619
 10
648.8182591620989
 20
-644.9885538433155
 10
648.8182591620989
 20
-597.0157983193203
 10
678.9947256248488
 20
-524.667948885497
 10
675.5118289403072
 20
-526.6028914880217
 10
663.5186400593066
 20
-531.6320146272601
 10
628.3130504573219
 20
-595.0808557167948
 10
619.0270535925301
 20
-630.2864453187831
 10
619.0270535925301
 20
-630.2864453187831
 10
619.80103063354
 20
-631.0604223597929
 10
619.80103063354
 20
-631.0604223597929
 10
619.414042113036
 20
-631.0604223597929
 10
619.0270535925301
 20
-631.4474108802988
 10
618.6400650720261
 20
-631.4474108802988
 10
618.6400650720261
 20
-631.4474108802988
 10
618.6400650720261
 20
-631.834399400801
 10
618.6400650720261
 20
-631.834399400801
 10
615.1588960148092
 20
-633.3823534828207
 10
608.5818187935492
 20
-636.8635225400394
 10
602.7787186133064
 20
-635.7025569785255
 10
599.2975495560877
 20
-634.9285799375157
 10
597.3626069535621
 20
-633.3823534828207
 10
596.5886299125523
 20
-631.4474108802988
 10
595.8146528715424
 20
-630.2864453187831
 10
595.4276643510384
 20
-629.1254797572692
 10
595.4276643510384
 20
-627.9645141957535
 10
595.4276643510384
 20
-623.7093680975267
 10
595.4276643510384
 20
-619.0672334787923
 10
595.8146528715424
 20
-614.4250988600616
 10
595.8146528715424
 20
-614.4250988600616
 10
595.4276643510384
 20
-614.0381103395557
 10
595.4276643510384
 20
-614.0381103395557
 10
595.4276643510384
 20
-614.0381103395557
 10
595.8146528715424
 20
-613.6511218190517
 10
595.8146528715424
 20
-613.6511218190517
 10
598.9105610355818
 20
-573.0294205573227
 10
611.2907384370847
 20
-515.7706681685377
 10
627.539073416312
 20
-464.3150159599991
 10
634.8901276785764
 20
-442.6505693210311
 10
642.2411819408426
 20
-422.5323491367562
 10
649.5905085757877
 20
-405.1230485960141
 10
658.48951692007
 20
-403.9620830345011
 10
666.227559702842
 20
-405.510037116519
 10
673.5786139651063
 20
-410.5391602557575
 10
667.7755137848617
 20
-422.5323491367562
 10
661.1984365636017
 20
-436.8474691407828
 10
655.0083478628512
 20
-453.86978116102
 10
641.4672048998327
 20
-487.9144052014917
 10
631.4072309940366
 20
-534.3409342707928
 10
630.2479930598456
 20
-538.9830688895245
 10
625.9911193342923
 20
-558.7143005532944
 10
622.8969387975794
 20
-576.1236010940374
 10
620.9619961950557
 20
-590.0517325775581
 10
637.210331174283
 20
-554.0721659345636
 10
663.9056285798142
 20
-508.4196139062706
 10
675.8988174608112
 20
-509.5805794677854
 10
682.0889061615635
 20
-509.5805794677854
 10
698.7259572886196
 20
-520.0258142667662
 10
698.7259572886196
 20
-522.7347339102971
 10
698.7259572886196
 20
-524.667948885497
 10
668.160774678041
 20
-603.5928755405766
 10
671.2566828420768
 20
-653.1118575192668
 97
        0
 97
        0
 75
     2
 76
     1
 98
        0
  0
ENDBLK
  5
48
330
45
100
AcDbEntity
  8
0
100
AcDbBlockEnd
  0
BLOCK
  5
55
330
53
100
AcDbEntity
  8
0
100
AcDbBlockBegin
  2
block 4
 70
     0
 10
0.0
 20
0.0
 30
0.0
  3
block 4
  1

  0
SPLINE
  5
57
330
53
100
AcDbEntity
  8
Layer 1
370
     0
100
AcDbSpline
210
0.0
220
0.0
230
1.0
 70
    11
 71
     3
 72
    29
 73
    25
 74
     0
 42
0.0000000001
 43
0.0000000001
 12
1.0
 22
0.0
 32
0.0
 13
1.0
 23
0.0
 33
0.0
 40
0.0
 40
0.0
 40
0.0
 40
0.0
 40
1.0
 40
1.0
 40
1.0
 40
2.0
 40
2.0
 40
2.0
 40
3.0
 40
3.0
 40
3.0
 40
4.0
 40
4.0
 40
4.0
 40
5.0
 40
5.0
 40
5.0
 40
6.0
 40
6.0
 40
6.0
 40
7.0
 40
7.0
 40
7.0
 40
8.0
 40
8.0
 40
8.0
 40
8.0
 10
300.1182792184818
 20
-169.6578101421346
 30
0.0
 10
323.9897697634551
 20
-169.6578101421346
 30
0.0
 10
335.9285383837578
 20
-181.5957149487731
 30
0.0
 10
335.9285383837578
 20
-205.4680693074088
 30
0.0
 10
335.9285383837578
 20
-205.4680693074088
 30
0.0
 10
335.9285383837578
 20
-248.4393437293465
 30
0.0
 10
335.9285383837578
 20
-248.4393437293465
 30
0.0
 10
335.9285383837578
 20
-272.3134257153051
 30
0.0
 10
323.9897697634551
 20
-284.2496028946216
 30
0.0
 10
300.1182792184818
 20
-284.2496028946216
 30
0.0
 10
300.1182792184818
 20
-284.2496028946216
 30
0.0
 10
285.7936572641747
 20
-284.2496028946216
 30
0.0
 10
285.7936572641747
 20
-284.2496028946216
 30
0.0
 10
285.7936572641747
 20
-284.2496028946216
 30
0.0
 10
285.7936572641747
 20
-370.1938793658182
 30
0.0
 10
285.7936572641747
 20
-370.1938793658182
 30
0.0
 10
285.7936572641747
 20
-370.1938793658182
 30
0.0
 10
264.3080200532058
 20
-370.1938793658182
 30
0.0
 10
264.3080200532058
 20
-370.1938793658182
 30
0.0
 10
264.3080200532058
 20
-370.1938793658182
 30
0.0
 10
264.3080200532058
 20
-169.6578101421346
 30
0.0
 10
264.3080200532058
 20
-169.6578101421346
 30
0.0
 10
264.3080200532058
 20
-169.6578101421346
 30
0.0
 10
300.1182792184818
 20
-169.6578101421346
 30
0.0
 10
300.1182792184818
 20
-169.6578101421346
 30
0.0
  0
SPLINE
  5
58
330
53
100
AcDbEntity
  8
Layer 1
370
     0
100
AcDbSpline
210
0.0
220
0.0
230
1.0
 70
    11
 71
     3
 72
    23
 73
    19
 74
     0
 42
0.0000000001
 43
0.0000000001
 12
1.0
 22
0.0
 32
0.0
 13
1.0
 23
0.0
 33
0.0
 40
0.0
 40
0.0
 40
0.0
 40
0.0
 40
1.0
 40
1.0
 40
1.0
 40
2.0
 40
2.0
 40
2.0
 40
3.0
 40
3.0
 40
3.0
 40
4.0
 40
4.0
 40
4.0
 40
5.0
 40
5.0
 40
5.0
 40
6.0
 40
6.0
 40
6.0
 40
6.0
 10
314.4420373591274
 20
-205.4680693074088
 30
0.0
 10
314.4420373591274
 20
-195.9194730894196
 30
0.0
 10
309.6660116228095
 20
-191.1443111667641
 30
0.0
 10
300.1182792184818
 20
-191.1443111667641
 30
0.0
 10
300.1182792184818
 20
-191.1443111667641
 30
0.0
 10
285.7936572641747
 20
-191.1443111667641
 30
0.0
 10
285.7936572641747
 20
-191.1443111667641
 30
0.0
 10
285.7936572641747
 20
-191.1443111667641
 30
0.0
 10
285.7936572641747
 20
-262.7631018699913
 30
0.0
 10
285.7936572641747
 20
-262.7631018699913
 30
0.0
 10
285.7936572641747
 20
-262.7631018699913
 30
0.0
 10
300.1182792184818
 20
-262.7631018699913
 30
0.0
 10
300.1182792184818
 20
-262.7631018699913
 30
0.0
 10
309.6660116228095
 20
-262.7631018699913
 30
0.0
 10
314.4420373591274
 20
-257.9896675746568
 30
0.0
 10
314.4420373591274
 20
-248.4393437293465
 30
0.0
 10
314.4420373591274
 20
-248.4393437293465
 30
0.0
 10
314.4420373591274
 20
-205.4680693074088
 30
0.0
 10
314.4420373591274
 20
-205.4680693074088
 30
0.0
  0
HATCH
  5
59
330
53
100
AcDbEntity
  8
Layer 1
 62
    32
420
 15229443
100
AcDbHatch
 10
0.0
 20
0.0
 30
0.0
210
0.0
220
0.0
230
1.0
  2
SOLID
 70
     1
 71
     0
 91
        2
 92
        1
 93
        1
 72
     4
 94
        3
 73
     0
 74
     1
 95
       29
 96
       25
 40
0.0
 40
0.0
 40
0.0
 40
0.0
 40
1.0
 40
1.0
 40
1.0
 40
2.0
 40
2.0
 40
2.0
 40
3.0
 40
3.0
 40
3.0
 40
4.0
 40
4.0
 40
4.0
 40
5.0
 40
5.0
 40
5.0
 40
6.0
 40
6.0
 40
6.0
 40
7.0
 40
7.0
 40
7.0
 40
8.0
 40
8.0
 40
8.0
 40
8.0
 10
300.1182792184818
 20
-169.6578101421346
 10
323.9897697634551
 20
-169.6578101421346
 10
335.9285383837578
 20
-181.5957149487731
 10
335.9285383837578
 20
-205.4680693074088
 10
335.9285383837578
 20
-205.4680693074088
 10
335.9285383837578
 20
-248.4393437293465
 10
335.9285383837578
 20
-248.4393437293465
 10
335.9285383837578
 20
-272.3134257153051
 10
323.9897697634551
 20
-284.2496028946216
 10
300.1182792184818
 20
-284.2496028946216
 10
300.1182792184818
 20
-284.2496028946216
 10
285.7936572641747
 20
-284.2496028946216
 10
285.7936572641747
 20
-284.2496028946216
 10
285.7936572641747
 20
-284.2496028946216
 10
285.7936572641747
 20
-370.1938793658182
 10
285.7936572641747
 20
-370.1938793658182
 10
285.7936572641747
 20
-370.1938793658182
 10
264.3080200532058
 20
-370.1938793658182
 10
264.3080200532058
 20
-370.1938793658182
 10
264.3080200532058
 20
-370.1938793658182
 10
264.3080200532058
 20
-169.6578101421346
 10
264.3080200532058
 20
-169.6578101421346
 10
264.3080200532058
 20
-169.6578101421346
 10
300.1182792184818
 20
-169.6578101421346
 10
300.1182792184818
 20
-169.6578101421346
 97
        0
 97
        0
 92
        1
 93
        1
 72
     4
 94
        3
 73
     0
 74
     1
 95
       23
 96
       19
 40
0.0
 40
0.0
 40
0.0
 40
0.0
 40
1.0
 40
1.0
 40
1.0
 40
2.0
 40
2.0
 40
2.0
 40
3.0
 40
3.0
 40
3.0
 40
4.0
 40
4.0
 40
4.0
 40
5.0
 40
5.0
 40
5.0
 40
6.0
 40
6.0
 40
6.0
 40
6.0
 10
314.4420373591274
 20
-205.4680693074088
 10
314.4420373591274
 20
-195.9194730894196
 10
309.6660116228095
 20
-191.1443111667641
 10
300.1182792184818
 20
-191.1443111667641
 10
300.1182792184818
 20
-191.1443111667641
 10
285.7936572641747
 20
-191.1443111667641
 10
285.7936572641747
 20
-191.1443111667641
 10
285.7936572641747
 20
-191.1443111667641
 10
285.7936572641747
 20
-262.7631018699913
 10
285.7936572641747
 20
-262.7631018699913
 10
285.7936572641747
 20
-262.7631018699913
 10
300.1182792184818
 20
-262.7631018699913
 10
300.1182792184818
 20
-262.7631018699913
 10
309.6660116228095
 20
-262.7631018699913
 10
314.4420373591274
 20
-257.9896675746568
 10
314.4420373591274
 20
-248.4393437293465
 10
314.4420373591274
 20
-248.4393437293465
 10
314.4420373591274
 20
-205.4680693074088
 10
314.4420373591274
 20
-205.4680693074088
 97
        0
 97
        0
 75
     2
 76
     1
 98
        0
  0
SPLINE
  5
5A
330
53
100
AcDbEntity
  8
Layer 1
370
     0
100
AcDbSpline
210
0.0
220
0.0
230
1.0
 70
    11
 71
     3
 72
    41
 73
    37
 74
     0
 42
0.0000000001
 43
0.0000000001
 12
1.0
 22
0.0
 32
0.0
 13
1.0
 23
0.0
 33
0.0
 40
0.0
 40
0.0
 40
0.0
 40
0.0
 40
1.0
 40
1.0
 40
1.0
 40
2.0
 40
2.0
 40
2.0
 40
3.0
 40
3.0
 40
3.0
 40
4.0
 40
4.0
 40
4.0
 40
5.0
 40
5.0
 40
5.0
 40
6.0
 40
6.0
 40
6.0
 40
7.0
 40
7.0
 40
7.0
 40
8.0
 40
8.0
 40
8.0
 40
9.0
 40
9.0
 40
9.0
 40
10.0
 40
10.0
 40
10.0
 40
11.0
 40
11.0
 40
11.0
 40
12.0
 40
12.0
 40
12.0
 40
12.0
 10
400.3863138303241
 20
-226.9528427047171
 30
0.0
 10
400.3863138303241
 20
-226.9528427047171
 30
0.0
 10
421.8728148549544
 20
-226.9528427047171
 30
0.0
 10
421.8728148549544
 20
-226.9528427047171
 30
0.0
 10
421.8728148549544
 20
-226.9528427047171
 30
0.0
 10
421.8728148549544
 20
-370.1938793658182
 30
0.0
 10
421.8728148549544
 20
-370.1938793658182
 30
0.0
 10
421.8728148549544
 20
-370.1938793658182
 30
0.0
 10
400.3863138303241
 20
-370.1938793658182
 30
0.0
 10
400.3863138303241
 20
-370.1938793658182
 30
0.0
 10
400.3863138303241
 20
-370.1938793658182
 30
0.0
 10
400.3863138303241
 20
-368.3314971108875
 30
0.0
 10
400.3863138303241
 20
-368.3314971108875
 30
0.0
 10
396.1829965518073
 20
-369.5736611566153
 30
0.0
 10
391.4095622564737
 20
-370.1938793658182
 30
0.0
 10
386.0625556896784
 20
-370.1938793658182
 30
0.0
 10
362.1884737037208
 20
-370.1938793658182
 30
0.0
 10
350.2522965244034
 20
-358.2577021865
 30
0.0
 10
350.2522965244034
 20
-334.3836202005405
 30
0.0
 10
350.2522965244034
 20
-334.3836202005405
 30
0.0
 10
350.2522965244034
 20
-226.9528427047171
 30
0.0
 10
350.2522965244034
 20
-226.9528427047171
 30
0.0
 10
350.2522965244034
 20
-226.9528427047171
 30
0.0
 10
371.7379337353714
 20
-226.9528427047171
 30
0.0
 10
371.7379337353714
 20
-226.9528427047171
 30
0.0
 10
371.7379337353714
 20
-226.9528427047171
 30
0.0
 10
371.7379337353714
 20
-334.3836202005405
 30
0.0
 10
371.7379337353714
 20
-334.3836202005405
 30
0.0
 10
371.7379337353714
 20
-343.9339440458552
 30
0.0
 10
376.5122318443655
 20
-348.7073783411888
 30
0.0
 10
386.0625556896784
 20
-348.7073783411888
 30
0.0
 10
395.6102880940052
 20
-348.7073783411888
 30
0.0
 10
400.3863138303241
 20
-343.9339440458552
 30
0.0
 10
400.3863138303241
 20
-334.3836202005405
 30
0.0
 10
400.3863138303241
 20
-334.3836202005405
 30
0.0
 10
400.3863138303241
 20
-226.9528427047171
 30
0.0
 10
400.3863138303241
 20
-226.9528427047171
 30
0.0
  0
HATCH
  5
5B
330
53
100
AcDbEntity
  8
Layer 1
 62
    32
420
 15229443
100
AcDbHatch
 10
0.0
 20
0.0
 30
0.0
210
0.0
220
0.0
230
1.0
  2
SOLID
 70
     1
 71
     0
 91
        1
 92
        1
 93
        1
 72
     4
 94
        3
 73
     0
 74
     1
 95
       41
 96
       37
 40
0.0
 40
0.0
 40
0.0
 40
0.0
 40
1.0
 40
1.0
 40
1.0
 40
2.0
 40
2.0
 40
2.0
 40
3.0
 40
3.0
 40
3.0
 40
4.0
 40
4.0
 40
4.0
 40
5.0
 40
5.0
 40
5.0
 40
6.0
 40
6.0
 40
6.0
 40
7.0
 40
7.0
 40
7.0
 40
8.0
 40
8.0
 40
8.0
 40
9.0
 40
9.0
 40
9.0
 40
10.0
 40
10.0
 40
10.0
 40
11.0
 40
11.0
 40
11.0
 40
12.0
 40
12.0
 40
12.0
 40
12.0
 10
400.3863138303241
 20
-226.9528427047171
 10
400.3863138303241
 20
-226.9528427047171
 10
421.8728148549544
 20
-226.9528427047171
 10
421.8728148549544
 20
-226.9528427047171
 10
421.8728148549544
 20
-226.9528427047171
 10
421.8728148549544
 20
-370.1938793658182
 10
421.8728148549544
 20
-370.1938793658182
 10
421.8728148549544
 20
-370.1938793658182
 10
400.3863138303241
 20
-370.1938793658182
 10
400.3863138303241
 20
-370.1938793658182
 10
400.3863138303241
 20
-370.1938793658182
 10
400.3863138303241
 20
-368.3314971108875
 10
400.3863138303241
 20
-368.3314971108875
 10
396.1829965518073
 20
-369.5736611566153
 10
391.4095622564737
 20
-370.1938793658182
 10
386.0625556896784
 20
-370.1938793658182
 10
362.1884737037208
 20
-370.1938793658182
 10
350.2522965244034
 20
-358.2577021865
 10
350.2522965244034
 20
-334.3836202005405
 10
350.2522965244034
 20
-334.3836202005405
 10
350.2522965244034
 20
-226.9528427047171
 10
350.2522965244034
 20
-226.9528427047171
 10
350.2522965244034
 20
-226.9528427047171
 10
371.7379337353714
 20
-226.9528427047171
 10
371.7379337353714
 20
-226.9528427047171
 10
371.7379337353714
 20
-226.9528427047171
 10
371.7379337353714
 20
-334.3836202005405
 10
371.7379337353714
 20
-334.3836202005405
 10
371.7379337353714
 20
-343.9339440458552
 10
376.5122318443655
 20
-348.7073783411888
 10
386.0625556896784
 20
-348.7073783411888
 10
395.6102880940052
 20
-348.7073783411888
 10
400.3863138303241
 20
-343.9339440458552
 10
400.3863138303241
 20
-334.3836202005405
 10
400.3863138303241
 20
-334.3836202005405
 10
400.3863138303241
 20
-226.9528427047171
 10
400.3863138303241
 20
-226.9528427047171
 97
        0
 97
        0
 75
     2
 76
     1
 98
        0
  0
SPLINE
  5
5C
330
53
100
AcDbEntity
  8
Layer 1
370
     0
100
AcDbSpline
210
0.0
220
0.0
230
1.0
 70
    11
 71
     3
 72
    62
 73
    58
 74
     0
 42
0.0000000001
 43
0.0000000001
 12
1.0
 22
0.0
 32
0.0
 13
1.0
 23
0.0
 33
0.0
 40
0.0
 40
0.0
 40
0.0
 40
0.0
 40
1.0
 40
1.0
 40
1.0
 40
2.0
 40
2.0
 40
2.0
 40
3.0
 40
3.0
 40
3.0
 40
4.0
 40
4.0
 40
4.0
 40
5.0
 40
5.0
 40
5.0
 40
6.0
 40
6.0
 40
6.0
 40
7.0
 40
7.0
 40
7.0
 40
8.0
 40
8.0
 40
8.0
 40
9.0
 40
9.0
 40
9.0
 40
10.0
 40
10.0
 40
10.0
 40
11.0
 40
11.0
 40
11.0
 40
12.0
 40
12.0
 40
12.0
 40
13.0
 40
13.0
 40
13.0
 40
14.0
 40
14.0
 40
14.0
 40
15.0
 40
15.0
 40
15.0
 40
16.0
 40
16.0
 40
16.0
 40
17.0
 40
17.0
 40
17.0
 40
18.0
 40
18.0
 40
18.0
 40
19.0
 40
19.0
 40
19.0
 40
19.0
 10
457.682210206568
 20
-370.1938793658182
 30
0.0
 10
457.682210206568
 20
-370.1938793658182
 30
0.0
 10
436.1965729956009
 20
-370.1938793658182
 30
0.0
 10
436.1965729956009
 20
-370.1938793658182
 30
0.0
 10
436.1965729956009
 20
-370.1938793658182
 30
0.0
 10
436.1965729956009
 20
-226.9528427047171
 30
0.0
 10
436.1965729956009
 20
-226.9528427047171
 30
0.0
 10
436.1965729956009
 20
-226.9528427047171
 30
0.0
 10
457.682210206568
 20
-226.9528427047171
 30
0.0
 10
457.682210206568
 20
-226.9528427047171
 30
0.0
 10
457.682210206568
 20
-226.9528427047171
 30
0.0
 10
457.682210206568
 20
-228.8152249596442
 30
0.0
 10
457.682210206568
 20
-228.8152249596442
 30
0.0
 10
461.8837998577619
 20
-227.576516168564
 30
0.0
 10
466.6572341530946
 20
-226.9528427047171
 30
0.0
 10
472.006832160876
 20
-226.9528427047171
 30
0.0
 10
482.7967286109288
 20
-226.9528427047171
 30
0.0
 10
491.1515343482533
 20
-229.3887972311077
 30
0.0
 10
497.073840813835
 20
-234.258978656565
 30
0.0
 10
502.9935558384295
 20
-229.3887972311077
 30
0.0
 10
511.3483615757559
 20
-226.9528427047171
 30
0.0
 10
522.1408494667958
 20
-226.9528427047171
 30
0.0
 10
546.0123400117682
 20
-226.9528427047171
 30
0.0
 10
557.9511086320745
 20
-238.8924751386785
 30
0.0
 10
557.9511086320745
 20
-262.7631018699913
 30
0.0
 10
557.9511086320745
 20
-262.7631018699913
 30
0.0
 10
557.9511086320745
 20
-370.1938793658182
 30
0.0
 10
557.9511086320745
 20
-370.1938793658182
 30
0.0
 10
557.9511086320745
 20
-370.1938793658182
 30
0.0
 10
536.4646076074414
 20
-370.1938793658182
 30
0.0
 10
536.4646076074414
 20
-370.1938793658182
 30
0.0
 10
536.4646076074414
 20
-370.1938793658182
 30
0.0
 10
536.4646076074414
 20
-262.7631018699913
 30
0.0
 10
536.4646076074414
 20
-262.7631018699913
 30
0.0
 10
536.4646076074414
 20
-253.2162332793268
 30
0.0
 10
531.6885818711244
 20
-248.4393437293465
 30
0.0
 10
522.1408494667958
 20
-248.4393437293465
 30
0.0
 10
512.5905256214846
 20
-248.4393437293465
 30
0.0
 10
507.8170913261511
 20
-253.2162332793268
 30
0.0
 10
507.8170913261511
 20
-262.7631018699913
 30
0.0
 10
507.8170913261511
 20
-262.7631018699913
 30
0.0
 10
507.8170913261511
 20
-370.1938793658182
 30
0.0
 10
507.8170913261511
 20
-370.1938793658182
 30
0.0
 10
507.8170913261511
 20
-370.1938793658182
 30
0.0
 10
486.3305903015207
 20
-370.1938793658182
 30
0.0
 10
486.3305903015207
 20
-370.1938793658182
 30
0.0
 10
486.3305903015207
 20
-370.1938793658182
 30
0.0
 10
486.3305903015207
 20
-262.7631018699913
 30
0.0
 10
486.3305903015207
 20
-262.7631018699913
 30
0.0
 10
486.3305903015207
 20
-253.2162332793268
 30
0.0
 10
481.5545645652028
 20
-248.4393437293465
 30
0.0
 10
472.006832160876
 20
-248.4393437293465
 30
0.0
 10
462.4565083155621
 20
-248.4393437293465
 30
0.0
 10
457.682210206568
 20
-253.2162332793268
 30
0.0
 10
457.682210206568
 20
-262.7631018699913
 30
0.0
 10
457.682210206568
 20
-262.7631018699913
 30
0.0
 10
457.682210206568
 20
-370.1938793658182
 30
0.0
 10
457.682210206568
 20
-370.1938793658182
 30
0.0
  0
HATCH
  5
5D
330
53
100
AcDbEntity
  8
Layer 1
 62
    32
420
 15229443
100
AcDbHatch
 10
0.0
 20
0.0
 30
0.0
210
0.0
220
0.0
230
1.0
  2
SOLID
 70
     1
 71
     0
 91
        1
 92
        1
 93
        1
 72
     4
 94
        3
 73
     0
 74
     1
 95
       62
 96
       58
 40
0.0
 40
0.0
 40
0.0
 40
0.0
 40
1.0
 40
1.0
 40
1.0
 40
2.0
 40
2.0
 40
2.0
 40
3.0
 40
3.0
 40
3.0
 40
4.0
 40
4.0
 40
4.0
 40
5.0
 40
5.0
 40
5.0
 40
6.0
 40
6.0
 40
6.0
 40
7.0
 40
7.0
 40
7.0
 40
8.0
 40
8.0
 40
8.0
 40
9.0
 40
9.0
 40
9.0
 40
10.0
 40
10.0
 40
10.0
 40
11.0
 40
11.0
 40
11.0
 40
12.0
 40
12.0
 40
12.0
 40
13.0
 40
13.0
 40
13.0
 40
14.0
 40
14.0
 40
14.0
 40
15.0
 40
15.0
 40
15.0
 40
16.0
 40
16.0
 40
16.0
 40
17.0
 40
17.0
 40
17.0
 40
18.0
 40
18.0
 40
18.0
 40
19.0
 40
19.0
 40
19.0
 40
19.0
 10
457.682210206568
 20
-370.1938793658182
 10
457.682210206568
 20
-370.1938793658182
 10
436.1965729956009
 20
-370.1938793658182
 10
436.1965729956009
 20
-370.1938793658182
 10
436.1965729956009
 20
-370.1938793658182
 10
436.1965729956009
 20
-226.9528427047171
 10
436.1965729956009
 20
-226.9528427047171
 10
436.1965729956009
 20
-226.9528427047171
 10
457.682210206568
 20
-226.9528427047171
 10
457.682210206568
 20
-226.9528427047171
 10
457.682210206568
 20
-226.9528427047171
 10
457.682210206568
 20
-228.8152249596442
 10
457.682210206568
 20
-228.8152249596442
 10
461.8837998577619
 20
-227.576516168564
 10
466.6572341530946
 20
-226.9528427047171
 10
472.006832160876
 20
-226.9528427047171
 10
482.7967286109288
 20
-226.9528427047171
 10
491.1515343482533
 20
-229.3887972311077
 10
497.073840813835
 20
-234.258978656565
 10
502.9935558384295
 20
-229.3887972311077
 10
511.3483615757559
 20
-226.9528427047171
 10
522.1408494667958
 20
-226.9528427047171
 10
546.0123400117682
 20
-226.9528427047171
 10
557.9511086320745
 20
-238.8924751386785
 10
557.9511086320745
 20
-262.7631018699913
 10
557.9511086320745
 20
-262.7631018699913
 10
557.9511086320745
 20
-370.1938793658182
 10
557.9511086320745
 20
-370.1938793658182
 10
557.9511086320745
 20
-370.1938793658182
 10
536.4646076074414
 20
-370.1938793658182
 10
536.4646076074414
 20
-370.1938793658182
 10
536.4646076074414
 20
-370.1938793658182
 10
536.4646076074414
 20
-262.7631018699913
 10
536.4646076074414
 20
-262.7631018699913
 10
536.4646076074414
 20
-253.2162332793268
 10
531.6885818711244
 20
-248.4393437293465
 10
522.1408494667958
 20
-248.4393437293465
 10
512.5905256214846
 20
-248.4393437293465
 10
507.8170913261511
 20
-253.2162332793268
 10
507.8170913261511
 20
-262.7631018699913
 10
507.8170913261511
 20
-262.7631018699913
 10
507.8170913261511
 20
-370.1938793658182
 10
507.8170913261511
 20
-370.1938793658182
 10
507.8170913261511
 20
-370.1938793658182
 10
486.3305903015207
 20
-370.1938793658182
 10
486.3305903015207
 20
-370.1938793658182
 10
486.3305903015207
 20
-370.1938793658182
 10
486.3305903015207
 20
-262.7631018699913
 10
486.3305903015207
 20
-262.7631018699913
 10
486.3305903015207
 20
-253.2162332793268
 10
481.5545645652028
 20
-248.4393437293465
 10
472.006832160876
 20
-248.4393437293465
 10
462.4565083155621
 20
-248.4393437293465
 10
457.682210206568
 20
-253.2162332793268
 10
457.682210206568
 20
-262.7631018699913
 10
457.682210206568
 20
-262.7631018699913
 10
457.682210206568
 20
-370.1938793658182
 10
457.682210206568
 20
-370.1938793658182
 97
        0
 97
        0
 75
     2
 76
     1
 98
        0
  0
SPLINE
  5
5E
330
53
100
AcDbEntity
  8
Layer 1
370
     0
100
AcDbSpline
210
0.0
220
0.0
230
1.0
 70
    11
 71
     3
 72
    35
 73
    31
 74
     0
 42
0.0000000001
 43
0.0000000001
 12
1.0
 22
0.0
 32
0.0
 13
1.0
 23
0.0
 33
0.0
 40
0.0
 40
0.0
 40
0.0
 40
0.0
 40
1.0
 40
1.0
 40
1.0
 40
2.0
 40
2.0
 40
2.0
 40
3.0
 40
3.0
 40
3.0
 40
4.0
 40
4.0
 40
4.0
 40
5.0
 40
5.0
 40
5.0
 40
6.0
 40
6.0
 40
6.0
 40
7.0
 40
7.0
 40
7.0
 40
8.0
 40
8.0
 40
8.0
 40
9.0
 40
9.0
 40
9.0
 40
10.0
 40
10.0
 40
10.0
 40
10.0
 10
608.0859897516548
 20
-226.9528427047171
 30
0.0
 10
631.9583441102895
 20
-226.9528427047171
 30
0.0
 10
643.8962489169317
 20
-238.8924751386785
 30
0.0
 10
643.8962489169317
 20
-262.7631018699913
 30
0.0
 10
643.8962489169317
 20
-262.7631018699913
 30
0.0
 10
643.8962489169317
 20
-334.3836202005405
 30
0.0
 10
643.8962489169317
 20
-334.3836202005405
 30
0.0
 10
643.8962489169317
 20
-358.2577021865
 30
0.0
 10
631.9583441102895
 20
-370.1938793658182
 30
0.0
 10
608.0859897516548
 20
-370.1938793658182
 30
0.0
 10
602.7372555575366
 20
-370.1938793658182
 30
0.0
 10
597.962093634882
 20
-369.5736611566153
 30
0.0
 10
593.7605039836853
 20
-368.3314971108875
 30
0.0
 10
593.7605039836853
 20
-368.3314971108875
 30
0.0
 10
593.7605039836853
 20
-427.4906395557227
 30
0.0
 10
593.7605039836853
 20
-427.4906395557227
 30
0.0
 10
593.7605039836853
 20
-427.4906395557227
 30
0.0
 10
572.2748667727155
 20
-427.4906395557227
 30
0.0
 10
572.2748667727155
 20
-427.4906395557227
 30
0.0
 10
572.2748667727155
 20
-427.4906395557227
 30
0.0
 10
572.2748667727155
 20
-226.9528427047171
 30
0.0
 10
572.2748667727155
 20
-226.9528427047171
 30
0.0
 10
572.2748667727155
 20
-226.9528427047171
 30
0.0
 10
593.7605039836853
 20
-226.9528427047171
 30
0.0
 10
593.7605039836853
 20
-226.9528427047171
 30
0.0
 10
593.7605039836853
 20
-226.9528427047171
 30
0.0
 10
593.7605039836853
 20
-228.8152249596442
 30
0.0
 10
593.7605039836853
 20
-228.8152249596442
 30
0.0
 10
597.962093634882
 20
-227.576516168564
 30
0.0
 10
602.7372555575366
 20
-226.9528427047171
 30
0.0
 10
608.0859897516548
 20
-226.9528427047171
 30
0.0
  0
SPLINE
  5
5F
330
53
100
AcDbEntity
  8
Layer 1
370
     0
100
AcDbSpline
210
0.0
220
0.0
230
1.0
 70
    11
 71
     3
 72
    23
 73
    19
 74
     0
 42
0.0000000001
 43
0.0000000001
 12
1.0
 22
0.0
 32
0.0
 13
1.0
 23
0.0
 33
0.0
 40
0.0
 40
0.0
 40
0.0
 40
0.0
 40
1.0
 40
1.0
 40
1.0
 40
2.0
 40
2.0
 40
2.0
 40
3.0
 40
3.0
 40
3.0
 40
4.0
 40
4.0
 40
4.0
 40
5.0
 40
5.0
 40
5.0
 40
6.0
 40
6.0
 40
6.0
 40
6.0
 10
622.4080202649748
 20
-262.7631018699913
 30
0.0
 10
622.4080202649748
 20
-253.2162332793268
 30
0.0
 10
617.6328583423201
 20
-248.4393437293465
 30
0.0
 10
608.0859897516548
 20
-248.4393437293465
 30
0.0
 10
598.5356659063418
 20
-248.4393437293465
 30
0.0
 10
593.7605039836853
 20
-253.2162332793268
 30
0.0
 10
593.7605039836853
 20
-262.7631018699913
 30
0.0
 10
593.7605039836853
 20
-262.7631018699913
 30
0.0
 10
593.7605039836853
 20
-334.3836202005405
 30
0.0
 10
593.7605039836853
 20
-334.3836202005405
 30
0.0
 10
593.7605039836853
 20
-343.9339440458552
 30
0.0
 10
598.5356659063418
 20
-348.7073783411888
 30
0.0
 10
608.0859897516548
 20
-348.7073783411888
 30
0.0
 10
617.6328583423201
 20
-348.7073783411888
 30
0.0
 10
622.4080202649748
 20
-343.9339440458552
 30
0.0
 10
622.4080202649748
 20
-334.3836202005405
 30
0.0
 10
622.4080202649748
 20
-334.3836202005405
 30
0.0
 10
622.4080202649748
 20
-262.7631018699913
 30
0.0
 10
622.4080202649748
 20
-262.7631018699913
 30
0.0
  0
HATCH
  5
60
330
53
100
AcDbEntity
  8
Layer 1
 62
    32
420
 15229443
100
AcDbHatch
 10
0.0
 20
0.0
 30
0.0
210
0.0
220
0.0
230
1.0
  2
SOLID
 70
     1
 71
     0
 91
        2
 92
        1
 93
        1
 72
     4
 94
        3
 73
     0
 74
     1
 95
       35
 96
       31
 40
0.0
 40
0.0
 40
0.0
 40
0.0
 40
1.0
 40
1.0
 40
1.0
 40
2.0
 40
2.0
 40
2.0
 40
3.0
 40
3.0
 40
3.0
 40
4.0
 40
4.0
 40
4.0
 40
5.0
 40
5.0
 40
5.0
 40
6.0
 40
6.0
 40
6.0
 40
7.0
 40
7.0
 40
7.0
 40
8.0
 40
8.0
 40
8.0
 40
9.0
 40
9.0
 40
9.0
 40
10.0
 40
10.0
 40
10.0
 40
10.0
 10
608.0859897516548
 20
-226.9528427047171
 10
631.9583441102895
 20
-226.9528427047171
 10
643.8962489169317
 20
-238.8924751386785
 10
643.8962489169317
 20
-262.7631018699913
 10
643.8962489169317
 20
-262.7631018699913
 10
643.8962489169317
 20
-334.3836202005405
 10
643.8962489169317
 20
-334.3836202005405
 10
643.8962489169317
 20
-358.2577021865
 10
631.9583441102895
 20
-370.1938793658182
 10
608.0859897516548
 20
-370.1938793658182
 10
602.7372555575366
 20
-370.1938793658182
 10
597.962093634882
 20
-369.5736611566153
 10
593.7605039836853
 20
-368.3314971108875
 10
593.7605039836853
 20
-368.3314971108875
 10
593.7605039836853
 20
-427.4906395557227
 10
593.7605039836853
 20
-427.4906395557227
 10
593.7605039836853
 20
-427.4906395557227
 10
572.2748667727155
 20
-427.4906395557227
 10
572.2748667727155
 20
-427.4906395557227
 10
572.2748667727155
 20
-427.4906395557227
 10
572.2748667727155
 20
-226.9528427047171
 10
572.2748667727155
 20
-226.9528427047171
 10
572.2748667727155
 20
-226.9528427047171
 10
593.7605039836853
 20
-226.9528427047171
 10
593.7605039836853
 20
-226.9528427047171
 10
593.7605039836853
 20
-226.9528427047171
 10
593.7605039836853
 20
-228.8152249596442
 10
593.7605039836853
 20
-228.8152249596442
 10
597.962093634882
 20
-227.576516168564
 10
602.7372555575366
 20
-226.9528427047171
 10
608.0859897516548
 20
-226.9528427047171
 97
        0
 97
        0
 92
        1
 93
        1
 72
     4
 94
        3
 73
     0
 74
     1
 95
       23
 96
       19
 40
0.0
 40
0.0
 40
0.0
 40
0.0
 40
1.0
 40
1.0
 40
1.0
 40
2.0
 40
2.0
 40
2.0
 40
3.0
 40
3.0
 40
3.0
 40
4.0
 40
4.0
 40
4.0
 40
5.0
 40
5.0
 40
5.0
 40
6.0
 40
6.0
 40
6.0
 40
6.0
 10
622.4080202649748
 20
-262.7631018699913
 10
622.4080202649748
 20
-253.2162332793268
 10
617.6328583423201
 20
-248.4393437293465
 10
608.0859897516548
 20
-248.4393437293465
 10
598.5356659063418
 20
-248.4393437293465
 10
593.7605039836853
 20
-253.2162332793268
 10
593.7605039836853
 20
-262.7631018699913
 10
593.7605039836853
 20
-262.7631018699913
 10
593.7605039836853
 20
-334.3836202005405
 10
593.7605039836853
 20
-334.3836202005405
 10
593.7605039836853
 20
-343.9339440458552
 10
598.5356659063418
 20
-348.7073783411888
 10
608.0859897516548
 20
-348.7073783411888
 10
617.6328583423201
 20
-348.7073783411888
 10
622.4080202649748
 20
-343.9339440458552
 10
622.4080202649748
 20
-334.3836202005405
 10
622.4080202649748
 20
-334.3836202005405
 10
622.4080202649748
 20
-262.7631018699913
 10
622.4080202649748
 20
-262.7631018699913
 97
        0
 97
        0
 75
     2
 76
     1
 98
        0
  0
POLYLINE
  5
61
330
53
100
AcDbEntity
  8
Layer 1
370
     0
100
AcDb2dPolyline
 66
     1
 10
0.0
 20
0.0
 30
0.0
  0
VERTEX
  5
62
330
61
100
AcDbEntity
  8
Layer 1
370
     0
100
AcDbVertex
100
AcDb2dVertex
 10
679.704780454882
 20
-321.2052789754971
 30
0.0
  0
VERTEX
  5
63
330
61
100
AcDbEntity
  8
Layer 1
370
     0
100
AcDbVertex
100
AcDb2dVertex
 10
679.704780454882
 20
-370.1938793658182
 30
0.0
  0
VERTEX
  5
64
330
61
100
AcDbEntity
  8
Layer 1
370
     0
100
AcDbVertex
100
AcDb2dVertex
 10
658.2182794302535
 20
-370.1938793658182
 30
0.0
  0
VERTEX
  5
65
330
61
100
AcDbEntity
  8
Layer 1
370
     0
100
AcDbVertex
100
AcDb2dVertex
 10
658.2182794302535
 20
-169.6578101421346
 30
0.0
  0
VERTEX
  5
66
330
61
100
AcDbEntity
  8
Layer 1
370
     0
100
AcDbVertex
100
AcDb2dVertex
 10
679.704780454882
 20
-169.6578101421346
 30
0.0
  0
VERTEX
  5
67
330
61
100
AcDbEntity
  8
Layer 1
370
     0
100
AcDbVertex
100
AcDb2dVertex
 10
679.704780454882
 20
-275.9414430950346
 30
0.0
  0
VERTEX
  5
68
330
61
100
AcDbEntity
  8
Layer 1
370
     0
100
AcDbVertex
100
AcDb2dVertex
 10
718.3794457228196
 20
-226.9528427047171
 30
0.0
  0
VERTEX
  5
69
330
61
100
AcDbEntity
  8
Layer 1
370
     0
100
AcDbVertex
100
AcDb2dVertex
 10
744.1625559014501
 20
-226.9528427047171
 30
0.0
  0
VERTEX
  5
6A
330
61
100
AcDbEntity
  8
Layer 1
370
     0
100
AcDbVertex
100
AcDb2dVertex
 10
687.5827610508695
 20
-298.5733610352663
 30
0.0
  0
VERTEX
  5
6B
330
61
100
AcDbEntity
  8
Layer 1
370
     0
100
AcDbVertex
100
AcDb2dVertex
 10
744.1625559014501
 20
-370.1938793658182
 30
0.0
  0
VERTEX
  5
6C
330
61
100
AcDbEntity
  8
Layer 1
370
     0
100
AcDbVertex
100
AcDb2dVertex
 10
718.3794457228196
 20
-370.1938793658182
 30
0.0
  0
VERTEX
  5
6D
330
61
100
AcDbEntity
  8
Layer 1
370
     0
100
AcDbVertex
100
AcDb2dVertex
 10
679.704780454882
 20
-321.2052789754971
 30
0.0
  0
SEQEND
  5
6E
330
61
100
AcDbEntity
  8
Layer 1
370
     0
  0
HATCH
  5
6F
330
53
100
AcDbEntity
  8
Layer 1
 62
    32
420
 15229443
100
AcDbHatch
 10
0.0
 20
0.0
 30
0.0
210
0.0
220
0.0
230
1.0
  2
SOLID
 70
     1
 71
     0
 91
        1
 92
        1
 93
       11
 72
     1
 10
679.704780454882
 20
-321.2052789754971
 11
679.704780454882
 21
-370.1938793658182
 72
     1
 10
679.704780454882
 20
-370.1938793658182
 11
658.2182794302535
 21
-370.1938793658182
 72
     1
 10
658.2182794302535
 20
-370.1938793658182
 11
658.2182794302535
 21
-169.6578101421346
 72
     1
 10
658.2182794302535
 20
-169.6578101421346
 11
679.704780454882
 21
-169.6578101421346
 72
     1
 10
679.704780454882
 20
-169.6578101421346
 11
679.704780454882
 21
-275.9414430950346
 72
     1
 10
679.704780454882
 20
-275.9414430950346
 11
718.3794457228196
 21
-226.9528427047171
 72
     1
 10
718.3794457228196
 20
-226.9528427047171
 11
744.1625559014501
 21
-226.9528427047171
 72
     1
 10
744.1625559014501
 20
-226.9528427047171
 11
687.5827610508695
 21
-298.5733610352663
 72
     1
 10
687.5827610508695
 20
-298.5733610352663
 11
744.1625559014501
 21
-370.1938793658182
 72
     1
 10
744.1625559014501
 20
-370.1938793658182
 11
718.3794457228196
 21
-370.1938793658182
 72
     1
 10
718.3794457228196
 20
-370.1938793658182
 11
679.704780454882
 21
-321.2052789754971
 97
        0
 75
     2
 76
     1
 98
        0
  0
POLYLINE
  5
70
330
53
100
AcDbEntity
  8
Layer 1
370
     0
100
AcDb2dPolyline
 66
     1
 10
0.0
 20
0.0
 30
0.0
  0
VERTEX
  5
71
330
70
100
AcDbEntity
  8
Layer 1
370
     0
100
AcDbVertex
100
AcDb2dVertex
 10
779.9728150667252
 20
-212.6290845640688
 30
0.0
  0
VERTEX
  5
72
330
70
100
AcDbEntity
  8
Layer 1
370
     0
100
AcDbVertex
100
AcDb2dVertex
 10
758.4863140420948
 20
-212.6290845640688
 30
0.0
  0
VERTEX
  5
73
330
70
100
AcDbEntity
  8
Layer 1
370
     0
100
AcDbVertex
100
AcDb2dVertex
 10
758.4863140420948
 20
-191.1443111667641
 30
0.0
  0
VERTEX
  5
74
330
70
100
AcDbEntity
  8
Layer 1
370
     0
100
AcDbVertex
100
AcDb2dVertex
 10
779.9728150667252
 20
-191.1443111667641
 30
0.0
  0
VERTEX
  5
75
330
70
100
AcDbEntity
  8
Layer 1
370
     0
100
AcDbVertex
100
AcDb2dVertex
 10
779.9728150667252
 20
-212.6290845640688
 30
0.0
  0
SEQEND
  5
76
330
70
100
AcDbEntity
  8
Layer 1
370
     0
  0
POLYLINE
  5
77
330
53
100
AcDbEntity
  8
Layer 1
370
     0
100
AcDb2dPolyline
 66
     1
 10
0.0
 20
0.0
 30
0.0
  0
VERTEX
  5
78
330
77
100
AcDbEntity
  8
Layer 1
370
     0
100
AcDbVertex
100
AcDb2dVertex
 10
779.9728150667252
 20
-370.1938793658182
 30
0.0
  0
VERTEX
  5
79
330
77
100
AcDbEntity
  8
Layer 1
370
     0
100
AcDbVertex
100
AcDb2dVertex
 10
758.4863140420948
 20
-370.1938793658182
 30
0.0
  0
VERTEX
  5
7A
330
77
100
AcDbEntity
  8
Layer 1
370
     0
100
AcDbVertex
100
AcDb2dVertex
 10
758.4863140420948
 20
-226.9528427047171
 30
0.0
  0
VERTEX
  5
7B
330
77
100
AcDbEntity
  8
Layer 1
370
     0
100
AcDbVertex
100
AcDb2dVertex
 10
779.9728150667252
 20
-226.9528427047171
 30
0.0
  0
VERTEX
  5
7C
330
77
100
AcDbEntity
  8
Layer 1
370
     0
100
AcDbVertex
100
AcDb2dVertex
 10
779.9728150667252
 20
-370.1938793658182
 30
0.0
  0
SEQEND
  5
7D
330
77
100
AcDbEntity
  8
Layer 1
370
     0
  0
HATCH
  5
7E
330
53
100
AcDbEntity
  8
Layer 1
 62
    32
420
 15229443
100
AcDbHatch
 10
0.0
 20
0.0
 30
0.0
210
0.0
220
0.0
230
1.0
  2
SOLID
 70
     1
 71
     0
 91
        2
 92
        1
 93
        4
 72
     1
 10
779.9728150667252
 20
-212.6290845640688
 11
758.4863140420948
 21
-212.6290845640688
 72
     1
 10
758.4863140420948
 20
-212.6290845640688
 11
758.4863140420948
 21
-191.1443111667641
 72
     1
 10
758.4863140420948
 20
-191.1443111667641
 11
779.9728150667252
 21
-191.1443111667641
 72
     1
 10
779.9728150667252
 20
-191.1443111667641
 11
779.9728150667252
 21
-212.6290845640688
 97
        0
 92
        1
 93
        4
 72
     1
 10
779.9728150667252
 20
-370.1938793658182
 11
758.4863140420948
 21
-370.1938793658182
 72
     1
 10
758.4863140420948
 20
-370.1938793658182
 11
758.4863140420948
 21
-226.9528427047171
 72
     1
 10
758.4863140420948
 20
-226.9528427047171
 11
779.9728150667252
 21
-226.9528427047171
 72
     1
 10
779.9728150667252
 20
-226.9528427047171
 11
779.9728150667252
 21
-370.1938793658182
 97
        0
 75
     2
 76
     1
 98
        0
  0
SPLINE
  5
7F
330
53
100
AcDbEntity
  8
Layer 1
370
     0
100
AcDbSpline
210
0.0
220
0.0
230
1.0
 70
    11
 71
     3
 72
    41
 73
    37
 74
     0
 42
0.0000000001
 43
0.0000000001
 12
1.0
 22
0.0
 32
0.0
 13
1.0
 23
0.0
 33
0.0
 40
0.0
 40
0.0
 40
0.0
 40
0.0
 40
1.0
 40
1.0
 40
1.0
 40
2.0
 40
2.0
 40
2.0
 40
3.0
 40
3.0
 40
3.0
 40
4.0
 40
4.0
 40
4.0
 40
5.0
 40
5.0
 40
5.0
 40
6.0
 40
6.0
 40
6.0
 40
7.0
 40
7.0
 40
7.0
 40
8.0
 40
8.0
 40
8.0
 40
9.0
 40
9.0
 40
9.0
 40
10.0
 40
10.0
 40
10.0
 40
11.0
 40
11.0
 40
11.0
 40
12.0
 40
12.0
 40
12.0
 40
12.0
 10
815.783074232002
 20
-370.1938793658182
 30
0.0
 10
815.783074232002
 20
-370.1938793658182
 30
0.0
 10
794.296573207368
 20
-370.1938793658182
 30
0.0
 10
794.296573207368
 20
-370.1938793658182
 30
0.0
 10
794.296573207368
 20
-370.1938793658182
 30
0.0
 10
794.296573207368
 20
-226.9528427047171
 30
0.0
 10
794.296573207368
 20
-226.9528427047171
 30
0.0
 10
794.296573207368
 20
-226.9528427047171
 30
0.0
 10
815.783074232002
 20
-226.9528427047171
 30
0.0
 10
815.783074232002
 20
-226.9528427047171
 30
0.0
 10
815.783074232002
 20
-226.9528427047171
 30
0.0
 10
815.783074232002
 20
-228.8152249596442
 30
0.0
 10
815.783074232002
 20
-228.8152249596442
 30
0.0
 10
819.9829362558685
 20
-227.576516168564
 30
0.0
 10
824.7580981785286
 20
-226.9528427047171
 30
0.0
 10
830.1068323726467
 20
-226.9528427047171
 30
0.0
 10
853.9791867312797
 20
-226.9528427047171
 30
0.0
 10
865.9170915379218
 20
-238.8924751386785
 30
0.0
 10
865.9170915379218
 20
-262.7631018699913
 30
0.0
 10
865.9170915379218
 20
-262.7631018699913
 30
0.0
 10
865.9170915379218
 20
-370.1938793658182
 30
0.0
 10
865.9170915379218
 20
-370.1938793658182
 30
0.0
 10
865.9170915379218
 20
-370.1938793658182
 30
0.0
 10
844.4305905132915
 20
-370.1938793658182
 30
0.0
 10
844.4305905132915
 20
-370.1938793658182
 30
0.0
 10
844.4305905132915
 20
-370.1938793658182
 30
0.0
 10
844.4305905132915
 20
-262.7631018699913
 30
0.0
 10
844.4305905132915
 20
-262.7631018699913
 30
0.0
 10
844.4305905132915
 20
-253.2162332793268
 30
0.0
 10
839.6537009633103
 20
-248.4393437293465
 30
0.0
 10
830.1068323726467
 20
-248.4393437293465
 30
0.0
 10
820.556508527332
 20
-248.4393437293465
 30
0.0
 10
815.783074232002
 20
-253.2162332793268
 30
0.0
 10
815.783074232002
 20
-262.7631018699913
 30
0.0
 10
815.783074232002
 20
-262.7631018699913
 30
0.0
 10
815.783074232002
 20
-370.1938793658182
 30
0.0
 10
815.783074232002
 20
-370.1938793658182
 30
0.0
  0
HATCH
  5
80
330
53
100
AcDbEntity
  8
Layer 1
 62
    32
420
 15229443
100
AcDbHatch
 10
0.0
 20
0.0
 30
0.0
210
0.0
220
0.0
230
1.0
  2
SOLID
 70
     1
 71
     0
 91
        1
 92
        1
 93
        1
 72
     4
 94
        3
 73
     0
 74
     1
 95
       41
 96
       37
 40
0.0
 40
0.0
 40
0.0
 40
0.0
 40
1.0
 40
1.0
 40
1.0
 40
2.0
 40
2.0
 40
2.0
 40
3.0
 40
3.0
 40
3.0
 40
4.0
 40
4.0
 40
4.0
 40
5.0
 40
5.0
 40
5.0
 40
6.0
 40
6.0
 40
6.0
 40
7.0
 40
7.0
 40
7.0
 40
8.0
 40
8.0
 40
8.0
 40
9.0
 40
9.0
 40
9.0
 40
10.0
 40
10.0
 40
10.0
 40
11.0
 40
11.0
 40
11.0
 40
12.0
 40
12.0
 40
12.0
 40
12.0
 10
815.783074232002
 20
-370.1938793658182
 10
815.783074232002
 20
-370.1938793658182
 10
794.296573207368
 20
-370.1938793658182
 10
794.296573207368
 20
-370.1938793658182
 10
794.296573207368
 20
-370.1938793658182
 10
794.296573207368
 20
-226.9528427047171
 10
794.296573207368
 20
-226.9528427047171
 10
794.296573207368
 20
-226.9528427047171
 10
815.783074232002
 20
-226.9528427047171
 10
815.783074232002
 20
-226.9528427047171
 10
815.783074232002
 20
-226.9528427047171
 10
815.783074232002
 20
-228.8152249596442
 10
815.783074232002
 20
-228.8152249596442
 10
819.9829362558685
 20
-227.576516168564
 10
824.7580981785286
 20
-226.9528427047171
 10
830.1068323726467
 20
-226.9528427047171
 10
853.9791867312797
 20
-226.9528427047171
 10
865.9170915379218
 20
-238.8924751386785
 10
865.9170915379218
 20
-262.7631018699913
 10
865.9170915379218
 20
-262.7631018699913
 10
865.9170915379218
 20
-370.1938793658182
 10
865.9170915379218
 20
-370.1938793658182
 10
865.9170915379218
 20
-370.1938793658182
 10
844.4305905132915
 20
-370.1938793658182
 10
844.4305905132915
 20
-370.1938793658182
 10
844.4305905132915
 20
-370.1938793658182
 10
844.4305905132915
 20
-262.7631018699913
 10
844.4305905132915
 20
-262.7631018699913
 10
844.4305905132915
 20
-253.2162332793268
 10
839.6537009633103
 20
-248.4393437293465
 10
830.1068323726467
 20
-248.4393437293465
 10
820.556508527332
 20
-248.4393437293465
 10
815.783074232002
 20
-253.2162332793268
 10
815.783074232002
 20
-262.7631018699913
 10
815.783074232002
 20
-262.7631018699913
 10
815.783074232002
 20
-370.1938793658182
 10
815.783074232002
 20
-370.1938793658182
 97
        0
 97
        0
 75
     2
 76
     1
 98
        0
  0
ENDBLK
  5
56
330
53
100
AcDbEntity
  8
0
100
AcDbBlockEnd
  0
BLOCK
  5
83
330
81
100
AcDbEntity
  8
0
100
AcDbBlockBegin
  2
block 5
 70
     0
 10
0.0
 20
0.0
 30
0.0
  3
block 5
  1

  0
SPLINE
  5
85
330
81
100
AcDbEntity
  8
Layer 1
370
     0
100
AcDbSpline
210
0.0
220
0.0
230
1.0
 70
    11
 71
     3
 72
    38
 73
    34
 74
     0
 42
0.0000000001
 43
0.0000000001
 12
1.0
 22
0.0
 32
0.0
 13
1.0
 23
0.0
 33
0.0
 40
0.0
 40
0.0
 40
0.0
 40
0.0
 40
1.0
 40
1.0
 40
1.0
 40
2.0
 40
2.0
 40
2.0
 40
3.0
 40
3.0
 40
3.0
 40
4.0
 40
4.0
 40
4.0
 40
5.0
 40
5.0
 40
5.0
 40
6.0
 40
6.0
 40
6.0
 40
7.0
 40
7.0
 40
7.0
 40
8.0
 40
8.0
 40
8.0
 40
9.0
 40
9.0
 40
9.0
 40
10.0
 40
10.0
 40
10.0
 40
11.0
 40
11.0
 40
11.0
 40
11.0
 10
341.5295061671341
 20
-748.0708933654332
 30
0.0
 10
340.2225560967681
 20
-737.1851135989145
 30
0.0
 10
331.5144505717508
 20
-733.2651272014809
 30
0.0
 10
326.7254676305047
 20
-733.2651272014809
 30
0.0
 10
281.4417640358206
 20
-733.2651272014809
 30
0.0
 10
271.4275722540997
 20
-906.1263343271075
 30
0.0
 10
337.1750214977938
 20
-896.1112787317234
 30
0.0
 10
369.8314969836883
 20
-891.3222957904763
 30
0.0
 10
389.8607443607934
 20
-831.2354174728262
 30
0.0
 10
392.9082789597678
 20
-820.3496377063075
 30
0.0
 10
392.9082789597678
 20
-820.3496377063075
 30
0.0
 10
400.7456603136498
 20
-820.3496377063075
 30
0.0
 10
400.7456603136498
 20
-820.3496377063075
 30
0.0
 10
384.2001734347496
 20
-872.5982708564134
 30
0.0
 10
363.30020188651
 20
-905.6909722415403
 30
0.0
 10
327.5961918016401
 20
-908.7385068405147
 30
0.0
 10
286.6669728762954
 20
-912.2214035250545
 30
0.0
 10
244.4316676942481
 20
-890.8869337049091
 30
0.0
 10
246.6084781220861
 20
-812.5113925387632
 30
0.0
 10
247.9145643787906
 20
-766.3578285866079
 30
0.0
 10
274.4751068530741
 20
-720.2042646344471
 30
0.0
 10
319.32344836219
 20
-719.3335404633126
 30
0.0
 10
340.2225560967681
 20
-718.8964507504206
 30
0.0
 10
363.30020188651
 20
-735.4436652566437
 30
0.0
 10
355.462820532628
 20
-766.3578285866079
 30
0.0
 10
353.7205083766939
 20
-772.4528977845548
 30
0.0
 10
348.0608012643133
 20
-776.8082462675557
 30
0.0
 10
341.5295061671341
 20
-776.8082462675557
 30
0.0
 10
333.6921248132512
 20
-776.8082462675557
 30
0.0
 10
327.1608297160728
 20
-770.2760873567167
 30
0.0
 10
327.1608297160728
 20
-762.4395698164954
 30
0.0
 10
327.1608297160728
 20
-754.6013246489529
 30
0.0
 10
333.6921248132512
 20
-748.0708933654332
 30
0.0
 10
341.5295061671341
 20
-748.0708933654332
 30
0.0
  0
HATCH
  5
86
330
81
100
AcDbEntity
  8
Layer 1
 62
    40
420
 16756484
100
AcDbHatch
 10
0.0
 20
0.0
 30
0.0
210
0.0
220
0.0
230
1.0
  2
SOLID
 70
     1
 71
     0
 91
        1
 92
        1
 93
        1
 72
     4
 94
        3
 73
     0
 74
     1
 95
       38
 96
       34
 40
0.0
 40
0.0
 40
0.0
 40
0.0
 40
1.0
 40
1.0
 40
1.0
 40
2.0
 40
2.0
 40
2.0
 40
3.0
 40
3.0
 40
3.0
 40
4.0
 40
4.0
 40
4.0
 40
5.0
 40
5.0
 40
5.0
 40
6.0
 40
6.0
 40
6.0
 40
7.0
 40
7.0
 40
7.0
 40
8.0
 40
8.0
 40
8.0
 40
9.0
 40
9.0
 40
9.0
 40
10.0
 40
10.0
 40
10.0
 40
11.0
 40
11.0
 40
11.0
 40
11.0
 10
341.5295061671341
 20
-748.0708933654332
 10
340.2225560967681
 20
-737.1851135989145
 10
331.5144505717508
 20
-733.2651272014809
 10
326.7254676305047
 20
-733.2651272014809
 10
281.4417640358206
 20
-733.2651272014809
 10
271.4275722540997
 20
-906.1263343271075
 10
337.1750214977938
 20
-896.1112787317234
 10
369.8314969836883
 20
-891.3222957904763
 10
389.8607443607934
 20
-831.2354174728262
 10
392.9082789597678
 20
-820.3496377063075
 10
392.9082789597678
 20
-820.3496377063075
 10
400.7456603136498
 20
-820.3496377063075
 10
400.7456603136498
 20
-820.3496377063075
 10
384.2001734347496
 20
-872.5982708564134
 10
363.30020188651
 20
-905.6909722415403
 10
327.5961918016401
 20
-908.7385068405147
 10
286.6669728762954
 20
-912.2214035250545
 10
244.4316676942481
 20
-890.8869337049091
 10
246.6084781220861
 20
-812.5113925387632
 10
247.9145643787906
 20
-766.3578285866079
 10
274.4751068530741
 20
-720.2042646344471
 10
319.32344836219
 20
-719.3335404633126
 10
340.2225560967681
 20
-718.8964507504206
 10
363.30020188651
 20
-735.4436652566437
 10
355.462820532628
 20
-766.3578285866079
 10
353.7205083766939
 20
-772.4528977845548
 10
348.0608012643133
 20
-776.8082462675557
 10
341.5295061671341
 20
-776.8082462675557
 10
333.6921248132512
 20
-776.8082462675557
 10
327.1608297160728
 20
-770.2760873567167
 10
327.1608297160728
 20
-762.4395698164954
 10
327.1608297160728
 20
-754.6013246489529
 10
333.6921248132512
 20
-748.0708933654332
 10
341.5295061671341
 20
-748.0708933654332
 97
        0
 97
        0
 75
     2
 76
     1
 98
        0
  0
SPLINE
  5
87
330
81
100
AcDbEntity
  8
Layer 1
370
     0
100
AcDbSpline
210
0.0
220
0.0
230
1.0
 70
    11
 71
     3
 72
    47
 73
    43
 74
     0
 42
0.0000000001
 43
0.0000000001
 12
1.0
 22
0.0
 32
0.0
 13
1.0
 23
0.0
 33
0.0
 40
0.0
 40
0.0
 40
0.0
 40
0.0
 40
1.0
 40
1.0
 40
1.0
 40
2.0
 40
2.0
 40
2.0
 40
3.0
 40
3.0
 40
3.0
 40
4.0
 40
4.0
 40
4.0
 40
5.0
 40
5.0
 40
5.0
 40
6.0
 40
6.0
 40
6.0
 40
7.0
 40
7.0
 40
7.0
 40
8.0
 40
8.0
 40
8.0
 40
9.0
 40
9.0
 40
9.0
 40
10.0
 40
10.0
 40
10.0
 40
11.0
 40
11.0
 40
11.0
 40
12.0
 40
12.0
 40
12.0
 40
13.0
 40
13.0
 40
13.0
 40
14.0
 40
14.0
 40
14.0
 40
14.0
 10
518.3046529945595
 20
-735.0083031710765
 30
0.0
 10
519.1753771656959
 20
-768.5346390144459
 30
0.0
 10
517.8692909089914
 20
-805.9809612552453
 30
0.0
 10
518.3046529945595
 20
-852.1345252074061
 30
0.0
 10
518.3046529945595
 20
-854.3113356352442
 30
0.0
 10
516.1278425667215
 20
-883.4840506229339
 30
0.0
 10
533.1086915311889
 20
-882.6133264517975
 30
0.0
 10
543.1228833129117
 20
-882.1779643662303
 30
0.0
 10
558.3631477487706
 20
-841.2487454408856
 30
0.0
 10
564.4582169467176
 20
-819.4789135351712
 30
0.0
 10
564.4582169467176
 20
-819.4789135351712
 30
0.0
 10
572.2964621142637
 20
-819.4789135351712
 30
0.0
 10
572.2964621142637
 20
-819.4789135351712
 30
0.0
 10
566.2005291026526
 20
-839.942659184182
 30
0.0
 10
551.396490566025
 20
-896.1112787317234
 30
0.0
 10
523.0936359358057
 20
-907.4324205838111
 30
0.0
 10
497.8400435318899
 20
-917.4474761791953
 30
0.0
 10
479.9876065826229
 20
-900.9019893002933
 30
0.0
 10
477.3754340692158
 20
-868.6800120863045
 30
0.0
 10
476.5047098980804
 20
-862.1495808027867
 30
0.0
 10
476.5047098980804
 20
-855.1820598063787
 30
0.0
 10
476.5047098980804
 20
-847.3455422661573
 30
0.0
 10
466.9250163882643
 20
-882.6133264517975
 30
0.0
 10
452.556339937204
 20
-908.3031447549456
 30
0.0
 10
431.2210063033963
 20
-908.7385068405147
 30
0.0
 10
390.7280132772812
 20
-909.1738689260819
 30
0.0
 10
384.6320802656701
 20
-872.1629087708461
 30
0.0
 10
387.2442527790772
 20
-718.4610886648516
 30
0.0
 10
387.2442527790772
 20
-710.6245711246338
 30
0.0
 10
430.7856442178281
 20
-719.3335404633126
 30
0.0
 10
431.2210063033963
 20
-735.0083031710765
 30
0.0
 10
432.9633184593295
 20
-793.3537331464559
 30
0.0
 10
422.9482628639462
 20
-894.8051924750216
 30
0.0
 10
443.8482344121858
 20
-890.8869337049091
 30
0.0
 10
454.2986520931381
 20
-888.710123277071
 30
0.0
 10
469.5380527153357
 20
-858.229594405353
 30
0.0
 10
474.7632615558086
 20
-823.3971723052837
 30
0.0
 10
473.4563114854454
 20
-796.8366298309993
 30
0.0
 10
473.4563114854454
 20
-762.4395698164954
 30
0.0
 10
474.3278994702414
 20
-718.4610886648516
 30
0.0
 10
474.3278994702414
 20
-710.6245711246338
 30
0.0
 10
517.8692909089914
 20
-719.3335404633126
 30
0.0
 10
518.3046529945595
 20
-735.0083031710765
 30
0.0
  0
HATCH
  5
88
330
81
100
AcDbEntity
  8
Layer 1
 62
    40
420
 16756484
100
AcDbHatch
 10
0.0
 20
0.0
 30
0.0
210
0.0
220
0.0
230
1.0
  2
SOLID
 70
     1
 71
     0
 91
        1
 92
        1
 93
        1
 72
     4
 94
        3
 73
     0
 74
     1
 95
       47
 96
       43
 40
0.0
 40
0.0
 40
0.0
 40
0.0
 40
1.0
 40
1.0
 40
1.0
 40
2.0
 40
2.0
 40
2.0
 40
3.0
 40
3.0
 40
3.0
 40
4.0
 40
4.0
 40
4.0
 40
5.0
 40
5.0
 40
5.0
 40
6.0
 40
6.0
 40
6.0
 40
7.0
 40
7.0
 40
7.0
 40
8.0
 40
8.0
 40
8.0
 40
9.0
 40
9.0
 40
9.0
 40
10.0
 40
10.0
 40
10.0
 40
11.0
 40
11.0
 40
11.0
 40
12.0
 40
12.0
 40
12.0
 40
13.0
 40
13.0
 40
13.0
 40
14.0
 40
14.0
 40
14.0
 40
14.0
 10
518.3046529945595
 20
-735.0083031710765
 10
519.1753771656959
 20
-768.5346390144459
 10
517.8692909089914
 20
-805.9809612552453
 10
518.3046529945595
 20
-852.1345252074061
 10
518.3046529945595
 20
-854.3113356352442
 10
516.1278425667215
 20
-883.4840506229339
 10
533.1086915311889
 20
-882.6133264517975
 10
543.1228833129117
 20
-882.1779643662303
 10
558.3631477487706
 20
-841.2487454408856
 10
564.4582169467176
 20
-819.4789135351712
 10
564.4582169467176
 20
-819.4789135351712
 10
572.2964621142637
 20
-819.4789135351712
 10
572.2964621142637
 20
-819.4789135351712
 10
566.2005291026526
 20
-839.942659184182
 10
551.396490566025
 20
-896.1112787317234
 10
523.0936359358057
 20
-907.4324205838111
 10
497.8400435318899
 20
-917.4474761791953
 10
479.9876065826229
 20
-900.9019893002933
 10
477.3754340692158
 20
-868.6800120863045
 10
476.5047098980804
 20
-862.1495808027867
 10
476.5047098980804
 20
-855.1820598063787
 10
476.5047098980804
 20
-847.3455422661573
 10
466.9250163882643
 20
-882.6133264517975
 10
452.556339937204
 20
-908.3031447549456
 10
431.2210063033963
 20
-908.7385068405147
 10
390.7280132772812
 20
-909.1738689260819
 10
384.6320802656701
 20
-872.1629087708461
 10
387.2442527790772
 20
-718.4610886648516
 10
387.2442527790772
 20
-710.6245711246338
 10
430.7856442178281
 20
-719.3335404633126
 10
431.2210063033963
 20
-735.0083031710765
 10
432.9633184593295
 20
-793.3537331464559
 10
422.9482628639462
 20
-894.8051924750216
 10
443.8482344121858
 20
-890.8869337049091
 10
454.2986520931381
 20
-888.710123277071
 10
469.5380527153357
 20
-858.229594405353
 10
474.7632615558086
 20
-823.3971723052837
 10
473.4563114854454
 20
-796.8366298309993
 10
473.4563114854454
 20
-762.4395698164954
 10
474.3278994702414
 20
-718.4610886648516
 10
474.3278994702414
 20
-710.6245711246338
 10
517.8692909089914
 20
-719.3335404633126
 10
518.3046529945595
 20
-735.0083031710765
 97
        0
 97
        0
 75
     2
 76
     1
 98
        0
  0
SPLINE
  5
89
330
81
100
AcDbEntity
  8
Layer 1
370
     0
100
AcDbSpline
210
0.0
220
0.0
230
1.0
 70
    11
 71
     3
 72
    59
 73
    55
 74
     0
 42
0.0000000001
 43
0.0000000001
 12
1.0
 22
0.0
 32
0.0
 13
1.0
 23
0.0
 33
0.0
 40
0.0
 40
0.0
 40
0.0
 40
0.0
 40
1.0
 40
1.0
 40
1.0
 40
2.0
 40
2.0
 40
2.0
 40
3.0
 40
3.0
 40
3.0
 40
4.0
 40
4.0
 40
4.0
 40
5.0
 40
5.0
 40
5.0
 40
6.0
 40
6.0
 40
6.0
 40
7.0
 40
7.0
 40
7.0
 40
8.0
 40
8.0
 40
8.0
 40
9.0
 40
9.0
 40
9.0
 40
10.0
 40
10.0
 40
10.0
 40
11.0
 40
11.0
 40
11.0
 40
12.0
 40
12.0
 40
12.0
 40
13.0
 40
13.0
 40
13.0
 40
14.0
 40
14.0
 40
14.0
 40
15.0
 40
15.0
 40
15.0
 40
16.0
 40
16.0
 40
16.0
 40
17.0
 40
17.0
 40
17.0
 40
18.0
 40
18.0
 40
18.0
 40
18.0
 10
602.775263358657
 20
-677.9689594524007
 30
0.0
 10
602.775263358657
 20
-677.9689594524007
 30
0.0
 10
602.775263358657
 20
-697.1266188447044
 30
0.0
 10
602.775263358657
 20
-697.1266188447044
 30
0.0
 10
602.775263358657
 20
-697.1266188447044
 30
0.0
 10
624.9821849772616
 20
-698.8680671869752
 30
0.0
 10
624.9821849772616
 20
-698.8680671869752
 30
0.0
 10
628.0297195762378
 20
-698.8680671869752
 30
0.0
 10
625.4175470628288
 20
-714.9781919803099
 30
0.0
 10
618.0146639808536
 20
-714.1074678091718
 30
0.0
 10
611.0488706117685
 20
-713.2367436380373
 30
0.0
 10
610.6135085261994
 20
-714.1074678091718
 30
0.0
 10
602.775263358657
 20
-714.1074678091718
 30
0.0
 10
602.775263358657
 20
-742.4094586257288
 30
0.0
 10
602.3399012730897
 20
-774.1943461268256
 30
0.0
 10
602.3399012730897
 20
-785.5154879789134
 30
0.0
 10
602.3399012730897
 20
-831.2354174728262
 30
0.0
 10
598.4216425029808
 20
-888.274761191502
 30
0.0
 10
617.1439398097173
 20
-882.6133264517975
 30
0.0
 10
627.1589954051015
 20
-882.1779643662303
 30
0.0
 10
642.3983960272981
 20
-841.2487454408856
 30
0.0
 10
648.4934652252468
 20
-819.4789135351712
 30
0.0
 10
648.4934652252468
 20
-819.4789135351712
 30
0.0
 10
656.3317103927911
 20
-819.4789135351712
 30
0.0
 10
656.3317103927911
 20
-819.4789135351712
 30
0.0
 10
651.1073653659805
 20
-836.8951245852095
 30
0.0
 10
639.3508614283255
 20
-880.0011539383922
 30
0.0
 10
618.4500260664208
 20
-899.594175416265
 30
0.0
 10
615.4024914674483
 20
-903.078799728135
 30
0.0
 10
610.1781464406322
 20
-906.9970584982439
 30
0.0
 10
602.775263358657
 20
-908.7385068405147
 30
0.0
 10
593.632659561732
 20
-910.9153172683527
 30
0.0
 10
586.2297764797586
 20
-910.4799551827855
 30
0.0
 10
580.134707281808
 20
-906.9970584982439
 30
0.0
 10
551.396490566025
 20
-881.742602280663
 30
0.0
 10
560.5399581766087
 20
-832.976865815097
 30
0.0
 10
558.3631477487706
 20
-785.0801258933443
 30
0.0
 10
558.3631477487706
 20
-785.0801258933443
 30
0.0
 10
558.3631477487706
 20
-714.9781919803099
 30
0.0
 10
558.3631477487706
 20
-714.9781919803099
 30
0.0
 10
547.9127300678192
 20
-715.413554065879
 30
0.0
 10
538.7692624572337
 20
-715.8489161514462
 30
0.0
 10
533.5440536167571
 20
-715.413554065879
 30
0.0
 10
526.1420343484442
 20
-714.9781919803099
 30
0.0
 10
536.1570899438266
 20
-685.8054769926184
 30
0.0
 10
550.0904043093215
 20
-692.7729979890282
 30
0.0
 10
550.0904043093215
 20
-692.7729979890282
 30
0.0
 10
558.3631477487706
 20
-693.6437221601645
 30
0.0
 10
558.3631477487706
 20
-693.6437221601645
 30
0.0
 10
558.3631477487706
 20
-681.0164940513732
 30
0.0
 10
558.7985098343379
 20
-668.3892659425837
 30
0.0
 10
558.7985098343379
 20
-661.4217449461757
 30
0.0
 10
558.7985098343379
 20
-653.5852274059544
 30
0.0
 10
602.3399012730897
 20
-662.2924691173102
 30
0.0
 10
602.775263358657
 20
-677.9689594524007
 30
0.0
  0
HATCH
  5
8A
330
81
100
AcDbEntity
  8
Layer 1
 62
    40
420
 16756484
100
AcDbHatch
 10
0.0
 20
0.0
 30
0.0
210
0.0
220
0.0
230
1.0
  2
SOLID
 70
     1
 71
     0
 91
        1
 92
        1
 93
        1
 72
     4
 94
        3
 73
     0
 74
     1
 95
       59
 96
       55
 40
0.0
 40
0.0
 40
0.0
 40
0.0
 40
1.0
 40
1.0
 40
1.0
 40
2.0
 40
2.0
 40
2.0
 40
3.0
 40
3.0
 40
3.0
 40
4.0
 40
4.0
 40
4.0
 40
5.0
 40
5.0
 40
5.0
 40
6.0
 40
6.0
 40
6.0
 40
7.0
 40
7.0
 40
7.0
 40
8.0
 40
8.0
 40
8.0
 40
9.0
 40
9.0
 40
9.0
 40
10.0
 40
10.0
 40
10.0
 40
11.0
 40
11.0
 40
11.0
 40
12.0
 40
12.0
 40
12.0
 40
13.0
 40
13.0
 40
13.0
 40
14.0
 40
14.0
 40
14.0
 40
15.0
 40
15.0
 40
15.0
 40
16.0
 40
16.0
 40
16.0
 40
17.0
 40
17.0
 40
17.0
 40
18.0
 40
18.0
 40
18.0
 40
18.0
 10
602.775263358657
 20
-677.9689594524007
 10
602.775263358657
 20
-677.9689594524007
 10
602.775263358657
 20
-697.1266188447044
 10
602.775263358657
 20
-697.1266188447044
 10
602.775263358657
 20
-697.1266188447044
 10
624.9821849772616
 20
-698.8680671869752
 10
624.9821849772616
 20
-698.8680671869752
 10
628.0297195762378
 20
-698.8680671869752
 10
625.4175470628288
 20
-714.9781919803099
 10
618.0146639808536
 20
-714.1074678091718
 10
611.0488706117685
 20
-713.2367436380373
 10
610.6135085261994
 20
-714.1074678091718
 10
602.775263358657
 20
-714.1074678091718
 10
602.775263358657
 20
-742.4094586257288
 10
602.3399012730897
 20
-774.1943461268256
 10
602.3399012730897
 20
-785.5154879789134
 10
602.3399012730897
 20
-831.2354174728262
 10
598.4216425029808
 20
-888.274761191502
 10
617.1439398097173
 20
-882.6133264517975
 10
627.1589954051015
 20
-882.1779643662303
 10
642.3983960272981
 20
-841.2487454408856
 10
648.4934652252468
 20
-819.4789135351712
 10
648.4934652252468
 20
-819.4789135351712
 10
656.3317103927911
 20
-819.4789135351712
 10
656.3317103927911
 20
-819.4789135351712
 10
651.1073653659805
 20
-836.8951245852095
 10
639.3508614283255
 20
-880.0011539383922
 10
618.4500260664208
 20
-899.594175416265
 10
615.4024914674483
 20
-903.078799728135
 10
610.1781464406322
 20
-906.9970584982439
 10
602.775263358657
 20
-908.7385068405147
 10
593.632659561732
 20
-910.9153172683527
 10
586.2297764797586
 20
-910.4799551827855
 10
580.134707281808
 20
-906.9970584982439
 10
551.396490566025
 20
-881.742602280663
 10
560.5399581766087
 20
-832.976865815097
 10
558.3631477487706
 20
-785.0801258933443
 10
558.3631477487706
 20
-785.0801258933443
 10
558.3631477487706
 20
-714.9781919803099
 10
558.3631477487706
 20
-714.9781919803099
 10
547.9127300678192
 20
-715.413554065879
 10
538.7692624572337
 20
-715.8489161514462
 10
533.5440536167571
 20
-715.413554065879
 10
526.1420343484442
 20
-714.9781919803099
 10
536.1570899438266
 20
-685.8054769926184
 10
550.0904043093215
 20
-692.7729979890282
 10
550.0904043093215
 20
-692.7729979890282
 10
558.3631477487706
 20
-693.6437221601645
 10
558.3631477487706
 20
-693.6437221601645
 10
558.3631477487706
 20
-681.0164940513732
 10
558.7985098343379
 20
-668.3892659425837
 10
558.7985098343379
 20
-661.4217449461757
 10
558.7985098343379
 20
-653.5852274059544
 10
602.3399012730897
 20
-662.2924691173102
 10
602.775263358657
 20
-677.9689594524007
 97
        0
 97
        0
 75
     2
 76
     1
 98
        0
  0
SPLINE
  5
8B
330
81
100
AcDbEntity
  8
Layer 1
370
     0
100
AcDbSpline
210
0.0
220
0.0
230
1.0
 70
    11
 71
     3
 72
    29
 73
    25
 74
     0
 42
0.0000000001
 43
0.0000000001
 12
1.0
 22
0.0
 32
0.0
 13
1.0
 23
0.0
 33
0.0
 40
0.0
 40
0.0
 40
0.0
 40
0.0
 40
1.0
 40
1.0
 40
1.0
 40
2.0
 40
2.0
 40
2.0
 40
3.0
 40
3.0
 40
3.0
 40
4.0
 40
4.0
 40
4.0
 40
5.0
 40
5.0
 40
5.0
 40
6.0
 40
6.0
 40
6.0
 40
7.0
 40
7.0
 40
7.0
 40
8.0
 40
8.0
 40
8.0
 40
8.0
 10
686.8070563825386
 20
-735.0083031710765
 30
0.0
 10
687.6777805536731
 20
-775.0667979252848
 30
0.0
 10
686.3716942969695
 20
-820.3496377063075
 30
0.0
 10
686.3716942969695
 20
-856.4881460630822
 30
0.0
 10
686.3716942969695
 20
-880.8718781095267
 30
0.0
 10
692.0331290366757
 20
-883.0486885373648
 30
0.0
 10
698.5635603201936
 20
-882.6133264517975
 30
0.0
 10
708.5786159155741
 20
-881.742602280663
 30
0.0
 10
723.8180165377707
 20
-841.2487454408856
 30
0.0
 10
729.9130857357213
 20
-819.4789135351712
 30
0.0
 10
729.9130857357213
 20
-819.4789135351712
 30
0.0
 10
737.7513309032638
 20
-819.4789135351712
 30
0.0
 10
737.7513309032638
 20
-819.4789135351712
 30
0.0
 10
730.7838099068558
 20
-842.5548316975892
 30
0.0
 10
712.4968746856866
 20
-909.6092310116492
 30
0.0
 10
677.2273628727216
 20
-909.6092310116492
 30
0.0
 10
638.4766820025397
 20
-909.6092310116492
 30
0.0
 10
643.2656649437849
 20
-860.8434945460831
 30
0.0
 10
643.2656649437849
 20
-836.0244004140732
 30
0.0
 10
643.2656649437849
 20
-808.5931337686543
 30
0.0
 10
641.9595786870814
 20
-770.711449442284
 30
0.0
 10
642.8303028582159
 20
-718.4610886648516
 30
0.0
 10
642.8303028582159
 20
-710.6245711246338
 30
0.0
 10
686.3716942969695
 20
-719.3335404633126
 30
0.0
 10
686.8070563825386
 20
-735.0083031710765
 30
0.0
  0
SPLINE
  5
8C
330
81
100
AcDbEntity
  8
Layer 1
370
     0
100
AcDbSpline
210
0.0
220
0.0
230
1.0
 70
    11
 71
     3
 72
    11
 73
     7
 74
     0
 42
0.0000000001
 43
0.0000000001
 12
1.0
 22
0.0
 32
0.0
 13
1.0
 23
0.0
 33
0.0
 40
0.0
 40
0.0
 40
0.0
 40
0.0
 40
1.0
 40
1.0
 40
1.0
 40
2.0
 40
2.0
 40
2.0
 40
2.0
 10
645.0071132860576
 20
-679.2750457091024
 30
0.0
 10
657.6343413948453
 20
-649.2298789229535
 30
0.0
 10
692.468491122243
 20
-653.5852274059544
 30
0.0
 10
686.3716942969695
 20
-704.0924122137912
 30
0.0
 10
685.500970125835
 20
-711.4952952957683
 30
0.0
 10
633.6859714339716
 20
-705.8355881833868
 30
0.0
 10
645.0071132860576
 20
-679.2750457091024
 30
0.0
  0
HATCH
  5
8D
330
81
100
AcDbEntity
  8
Layer 1
 62
    40
420
 16756484
100
AcDbHatch
 10
0.0
 20
0.0
 30
0.0
210
0.0
220
0.0
230
1.0
  2
SOLID
 70
     1
 71
     0
 91
        2
 92
        1
 93
        1
 72
     4
 94
        3
 73
     0
 74
     1
 95
       29
 96
       25
 40
0.0
 40
0.0
 40
0.0
 40
0.0
 40
1.0
 40
1.0
 40
1.0
 40
2.0
 40
2.0
 40
2.0
 40
3.0
 40
3.0
 40
3.0
 40
4.0
 40
4.0
 40
4.0
 40
5.0
 40
5.0
 40
5.0
 40
6.0
 40
6.0
 40
6.0
 40
7.0
 40
7.0
 40
7.0
 40
8.0
 40
8.0
 40
8.0
 40
8.0
 10
686.8070563825386
 20
-735.0083031710765
 10
687.6777805536731
 20
-775.0667979252848
 10
686.3716942969695
 20
-820.3496377063075
 10
686.3716942969695
 20
-856.4881460630822
 10
686.3716942969695
 20
-880.8718781095267
 10
692.0331290366757
 20
-883.0486885373648
 10
698.5635603201936
 20
-882.6133264517975
 10
708.5786159155741
 20
-881.742602280663
 10
723.8180165377707
 20
-841.2487454408856
 10
729.9130857357213
 20
-819.4789135351712
 10
729.9130857357213
 20
-819.4789135351712
 10
737.7513309032638
 20
-819.4789135351712
 10
737.7513309032638
 20
-819.4789135351712
 10
730.7838099068558
 20
-842.5548316975892
 10
712.4968746856866
 20
-909.6092310116492
 10
677.2273628727216
 20
-909.6092310116492
 10
638.4766820025397
 20
-909.6092310116492
 10
643.2656649437849
 20
-860.8434945460831
 10
643.2656649437849
 20
-836.0244004140732
 10
643.2656649437849
 20
-808.5931337686543
 10
641.9595786870814
 20
-770.711449442284
 10
642.8303028582159
 20
-718.4610886648516
 10
642.8303028582159
 20
-710.6245711246338
 10
686.3716942969695
 20
-719.3335404633126
 10
686.8070563825386
 20
-735.0083031710765
 97
        0
 97
        0
 92
        1
 93
        1
 72
     4
 94
        3
 73
     0
 74
     1
 95
       11
 96
        7
 40
0.0
 40
0.0
 40
0.0
 40
0.0
 40
1.0
 40
1.0
 40
1.0
 40
2.0
 40
2.0
 40
2.0
 40
2.0
 10
645.0071132860576
 20
-679.2750457091024
 10
657.6343413948453
 20
-649.2298789229535
 10
692.468491122243
 20
-653.5852274059544
 10
686.3716942969695
 20
-704.0924122137912
 10
685.500970125835
 20
-711.4952952957683
 10
633.6859714339716
 20
-705.8355881833868
 10
645.0071132860576
 20
-679.2750457091024
 97
        0
 97
        0
 75
     2
 76
     1
 98
        0
  0
SPLINE
  5
8E
330
81
100
AcDbEntity
  8
Layer 1
370
     0
100
AcDbSpline
210
0.0
220
0.0
230
1.0
 70
    11
 71
     3
 72
    26
 73
    22
 74
     0
 42
0.0000000001
 43
0.0000000001
 12
1.0
 22
0.0
 32
0.0
 13
1.0
 23
0.0
 33
0.0
 40
0.0
 40
0.0
 40
0.0
 40
0.0
 40
1.0
 40
1.0
 40
1.0
 40
2.0
 40
2.0
 40
2.0
 40
3.0
 40
3.0
 40
3.0
 40
4.0
 40
4.0
 40
4.0
 40
5.0
 40
5.0
 40
5.0
 40
6.0
 40
6.0
 40
6.0
 40
7.0
 40
7.0
 40
7.0
 40
7.0
 10
856.6190012818661
 20
-819.4789135351712
 30
0.0
 10
856.6190012818661
 20
-819.4789135351712
 30
0.0
 10
864.4572464494104
 20
-819.4789135351712
 30
0.0
 10
864.4572464494104
 20
-819.4789135351712
 30
0.0
 10
844.4288628859667
 20
-871.7275466852789
 30
0.0
 10
818.3036824972532
 20
-910.0445930972164
 30
0.0
 10
782.598808598721
 20
-908.7385068405147
 30
0.0
 10
749.0724727553534
 20
-907.4324205838111
 30
0.0
 10
723.3826544522035
 20
-886.9686749348002
 30
0.0
 10
725.1241027944761
 20
-812.5113925387632
 30
0.0
 10
725.9948269656124
 20
-766.7931906721751
 30
0.0
 10
743.4110380156471
 20
-717.5903644937171
 30
0.0
 10
787.8248812528582
 20
-719.3335404633126
 30
0.0
 10
837.0259798039915
 20
-721.5103508911507
 30
0.0
 10
847.4763974849429
 20
-790.7415606330487
 30
0.0
 10
767.7947700620916
 20
-828.6215173320961
 30
0.0
 10
770.4069425754988
 20
-866.9385637440337
 30
0.0
 10
766.9240458909571
 20
-894.8051924750216
 30
0.0
 10
792.1785021085379
 20
-896.1112787317234
 30
0.0
 10
821.7865791817949
 20
-897.4173649884269
 30
0.0
 10
853.5714666828899
 20
-830.3629656743669
 30
0.0
 10
856.6190012818661
 20
-819.4789135351712
 30
0.0
  0
SPLINE
  5
8F
330
81
100
AcDbEntity
  8
Layer 1
370
     0
100
AcDbSpline
210
0.0
220
0.0
230
1.0
 70
    11
 71
     3
 72
    11
 73
     7
 74
     0
 42
0.0000000001
 43
0.0000000001
 12
1.0
 22
0.0
 32
0.0
 13
1.0
 23
0.0
 33
0.0
 40
0.0
 40
0.0
 40
0.0
 40
0.0
 40
1.0
 40
1.0
 40
1.0
 40
2.0
 40
2.0
 40
2.0
 40
2.0
 10
767.7947700620916
 20
-819.9142756207384
 30
0.0
 10
830.9309106060409
 20
-791.1769227186178
 30
0.0
 10
828.75237255088
 20
-727.170058003534
 30
0.0
 10
795.2260367075105
 20
-733.2651272014809
 30
0.0
 10
778.2451877430431
 20
-736.3143894277782
 30
0.0
 10
766.9240458909571
 20
-778.9850566953937
 30
0.0
 10
767.7947700620916
 20
-819.9142756207384
 30
0.0
  0
HATCH
  5
90
330
81
100
AcDbEntity
  8
Layer 1
 62
    40
420
 16756484
100
AcDbHatch
 10
0.0
 20
0.0
 30
0.0
210
0.0
220
0.0
230
1.0
  2
SOLID
 70
     1
 71
     0
 91
        2
 92
        1
 93
        1
 72
     4
 94
        3
 73
     0
 74
     1
 95
       26
 96
       22
 40
0.0
 40
0.0
 40
0.0
 40
0.0
 40
1.0
 40
1.0
 40
1.0
 40
2.0
 40
2.0
 40
2.0
 40
3.0
 40
3.0
 40
3.0
 40
4.0
 40
4.0
 40
4.0
 40
5.0
 40
5.0
 40
5.0
 40
6.0
 40
6.0
 40
6.0
 40
7.0
 40
7.0
 40
7.0
 40
7.0
 10
856.6190012818661
 20
-819.4789135351712
 10
856.6190012818661
 20
-819.4789135351712
 10
864.4572464494104
 20
-819.4789135351712
 10
864.4572464494104
 20
-819.4789135351712
 10
844.4288628859667
 20
-871.7275466852789
 10
818.3036824972532
 20
-910.0445930972164
 10
782.598808598721
 20
-908.7385068405147
 10
749.0724727553534
 20
-907.4324205838111
 10
723.3826544522035
 20
-886.9686749348002
 10
725.1241027944761
 20
-812.5113925387632
 10
725.9948269656124
 20
-766.7931906721751
 10
743.4110380156471
 20
-717.5903644937171
 10
787.8248812528582
 20
-719.3335404633126
 10
837.0259798039915
 20
-721.5103508911507
 10
847.4763974849429
 20
-790.7415606330487
 10
767.7947700620916
 20
-828.6215173320961
 10
770.4069425754988
 20
-866.9385637440337
 10
766.9240458909571
 20
-894.8051924750216
 10
792.1785021085379
 20
-896.1112787317234
 10
821.7865791817949
 20
-897.4173649884269
 10
853.5714666828899
 20
-830.3629656743669
 10
856.6190012818661
 20
-819.4789135351712
 97
        0
 97
        0
 92
        1
 93
        1
 72
     4
 94
        3
 73
     0
 74
     1
 95
       11
 96
        7
 40
0.0
 40
0.0
 40
0.0
 40
0.0
 40
1.0
 40
1.0
 40
1.0
 40
2.0
 40
2.0
 40
2.0
 40
2.0
 10
767.7947700620916
 20
-819.9142756207384
 10
830.9309106060409
 20
-791.1769227186178
 10
828.75237255088
 20
-727.170058003534
 10
795.2260367075105
 20
-733.2651272014809
 10
778.2451877430431
 20
-736.3143894277782
 10
766.9240458909571
 20
-778.9850566953937
 10
767.7947700620916
 20
-819.9142756207384
 97
        0
 97
        0
 75
     2
 76
     1
 98
        0
  0
ENDBLK
  5
84
330
81
100
AcDbEntity
  8
0
100
AcDbBlockEnd
  0
BLOCK
  5
93
330
91
100
AcDbEntity
  8
0
100
AcDbBlockBegin
  2
block 6
 70
     0
 10
0.0
 20
0.0
 30
0.0
  3
block 6
  1

  0
SPLINE
  5
95
330
91
100
AcDbEntity
  8
Layer 1
370
     0
100
AcDbSpline
210
0.0
220
0.0
230
1.0
 70
    11
 71
     3
 72
    59
 73
    55
 74
     0
 42
0.0000000001
 43
0.0000000001
 12
1.0
 22
0.0
 32
0.0
 13
1.0
 23
0.0
 33
0.0
 40
0.0
 40
0.0
 40
0.0
 40
0.0
 40
1.0
 40
1.0
 40
1.0
 40
2.0
 40
2.0
 40
2.0
 40
3.0
 40
3.0
 40
3.0
 40
4.0
 40
4.0
 40
4.0
 40
5.0
 40
5.0
 40
5.0
 40
6.0
 40
6.0
 40
6.0
 40
7.0
 40
7.0
 40
7.0
 40
8.0
 40
8.0
 40
8.0
 40
9.0
 40
9.0
 40
9.0
 40
10.0
 40
10.0
 40
10.0
 40
11.0
 40
11.0
 40
11.0
 40
12.0
 40
12.0
 40
12.0
 40
13.0
 40
13.0
 40
13.0
 40
14.0
 40
14.0
 40
14.0
 40
15.0
 40
15.0
 40
15.0
 40
16.0
 40
16.0
 40
16.0
 40
17.0
 40
17.0
 40
17.0
 40
18.0
 40
18.0
 40
18.0
 40
18.0
 10
815.8932176146409
 20
-521.3344235472559
 30
0.0
 10
818.1254877844149
 20
-518.7808528059941
 30
0.0
 10
820.2286148314197
 20
-516.0794495386563
 30
0.0
 10
822.6020984029492
 20
-513.7122163686172
 30
0.0
 10
831.7655417006754
 20
-504.5729261075621
 30
0.0
 10
842.0395453973015
 20
-501.390099070356
 30
0.0
 10
852.7965141952009
 20
-501.3117720480823
 30
0.0
 10
854.9695180759536
 20
-501.2959382095887
 30
0.0
 10
855.7634224168323
 20
-502.7021148352105
 30
0.0
 10
855.0538600429718
 20
-505.1107536159871
 30
0.0
 10
854.0867181130452
 20
-508.3936783433592
 30
0.0
 10
853.0355773874635
 20
-511.6683193281742
 30
0.0
 10
851.9251316679874
 20
-514.9279076719858
 30
0.0
 10
851.0329915640486
 20
-517.5466426902658
 30
0.0
 10
849.6436833078769
 20
-518.4668500445123
 30
0.0
 10
847.2482588330568
 20
-518.0605012169126
 30
0.0
 10
843.098896042764
 20
-517.3566218646883
 30
0.0
 10
838.8809323381338
 20
-517.1969163962403
 30
0.0
 10
834.4163757569204
 20
-518.715831685271
 30
0.0
 10
830.1438520075262
 20
-520.1694010224246
 30
0.0
 10
826.3523199573592
 20
-522.7001516705068
 30
0.0
 10
822.8337912582174
 20
-526.3909599939834
 30
0.0
 10
825.8348899579814
 20
-529.0984763668403
 30
0.0
 10
828.2477731335421
 20
-531.7969121918095
 30
0.0
 10
832.300175255903
 20
-532.8308926917716
 30
0.0
 10
856.271373057647
 20
-538.9471920979959
 30
0.0
 10
868.3187125565055
 20
-564.4500331442832
 30
0.0
 10
861.6900298757173
 20
-594.179853811429
 30
0.0
 10
854.2928651529892
 20
-627.3563004285079
 30
0.0
 10
825.2494564884964
 20
-654.7757814786219
 30
0.0
 10
795.4621961455869
 20
-656.6399254773205
 30
0.0
 10
784.3106225487572
 20
-657.3378204802466
 30
0.0
 10
774.6972271006525
 20
-654.2869295652908
 30
0.0
 10
766.4698775411634
 20
-647.9265085925235
 30
0.0
 10
765.596629526488
 20
-647.2514159027705
 30
0.0
 10
764.4569858363338
 20
-646.8013258468891
 30
0.0
 10
763.3229415966307
 20
-646.6379734726252
 30
0.0
 10
745.954472489524
 20
-644.135991571975
 30
0.0
 10
733.0263023975294
 20
-635.2083941010042
 30
0.0
 10
724.5798002025658
 20
-619.7236688379489
 30
0.0
 10
724.0544118722701
 20
-618.7604931391288
 30
0.0
 10
723.4703286486438
 20
-617.6869202519465
 30
0.0
 10
722.5997560424839
 20
-617.1686712466217
 30
0.0
 10
700.9516626911336
 20
-604.2813109832969
 30
0.0
 10
696.0328619134234
 20
-573.756460844992
 30
0.0
 10
707.9799096707738
 20
-545.7043409247854
 30
0.0
 10
720.4771858280819
 20
-516.3602736476123
 30
0.0
 10
749.143746511214
 20
-495.6741040226962
 30
0.0
 10
775.6251251975555
 20
-497.4299310827046
 30
0.0
 10
788.680010453083
 20
-498.2955150421176
 30
0.0
 10
798.8884325212312
 20
-504.1061757611724
 30
0.0
 10
806.3119846896825
 20
-514.4885418997319
 30
0.0
 10
809.174281632284
 20
-518.4916807428781
 30
0.0
 10
810.8646108507255
 20
-519.7301964081089
 30
0.0
 10
815.8932176146409
 20
-521.3344235472559
 30
0.0
  0
SPLINE
  5
96
330
91
100
AcDbEntity
  8
Layer 1
370
     0
100
AcDbSpline
210
0.0
220
0.0
230
1.0
 70
    11
 71
     3
 72
    41
 73
    37
 74
     0
 42
0.0000000001
 43
0.0000000001
 12
1.0
 22
0.0
 32
0.0
 13
1.0
 23
0.0
 33
0.0
 40
0.0
 40
0.0
 40
0.0
 40
0.0
 40
1.0
 40
1.0
 40
1.0
 40
2.0
 40
2.0
 40
2.0
 40
3.0
 40
3.0
 40
3.0
 40
4.0
 40
4.0
 40
4.0
 40
5.0
 40
5.0
 40
5.0
 40
6.0
 40
6.0
 40
6.0
 40
7.0
 40
7.0
 40
7.0
 40
8.0
 40
8.0
 40
8.0
 40
9.0
 40
9.0
 40
9.0
 40
10.0
 40
10.0
 40
10.0
 40
11.0
 40
11.0
 40
11.0
 40
12.0
 40
12.0
 40
12.0
 40
12.0
 10
754.0868934068003
 20
-636.5703828346741
 30
0.0
 10
754.0876491905565
 20
-636.859231654038
 30
0.0
 10
754.0884067127954
 20
-637.1481015387963
 30
0.0
 10
754.0891642350362
 20
-637.4369714235581
 30
0.0
 10
755.6109041659274
 20
-637.3114024349234
 30
0.0
 10
757.1356225262261
 20
-637.3886597957644
 30
0.0
 10
758.6539083579537
 20
-637.0272963559455
 30
0.0
 10
768.4071472074593
 20
-634.7058196384842
 30
0.0
 10
777.1230715414531
 20
-629.0906491655151
 30
0.0
 10
785.2767460230643
 20
-621.9105705581114
 30
0.0
 10
799.0136256503356
 20
-609.8139717580962
 30
0.0
 10
809.213409035232
 20
-594.9108363128798
 30
0.0
 10
817.3750758303249
 20
-578.4827158130611
 30
0.0
 10
821.5491498693482
 20
-570.0809315350543
 30
0.0
 10
824.7917065969905
 20
-561.4549366824522
 30
0.0
 10
825.6378580171313
 20
-552.4922272015829
 30
0.0
 10
826.2342025216021
 20
-546.1755041981105
 30
0.0
 10
825.5196569003128
 20
-540.3798783433094
 30
0.0
 10
822.0674493527986
 20
-535.8971819317885
 30
0.0
 10
820.7093047748676
 20
-534.133634913921
 30
0.0
 10
819.1069359045723
 20
-532.6337601755577
 30
0.0
 10
816.0329846582026
 20
-532.5356689226683
 30
0.0
 10
816.7820398136755
 20
-533.9055074290663
 30
0.0
 10
817.2556556051604
 20
-534.7964690551953
 30
0.0
 10
817.7497320441362
 20
-535.6712716845004
 30
0.0
 10
821.8106630520906
 20
-542.8614422896517
 30
0.0
 10
820.8196832433641
 20
-551.2249343537806
 30
0.0
 10
817.8686928831339
 20
-559.9800032446001
 30
0.0
 10
813.9276444536918
 20
-571.6723713090396
 30
0.0
 10
807.7094230081293
 20
-582.3852481393405
 30
0.0
 10
800.8778020617392
 20
-592.8236910681298
 30
0.0
 10
789.1010563191976
 20
-610.8181128717843
 30
0.0
 10
774.845552444478
 20
-625.517535628509
 30
0.0
 10
756.6456584278167
 20
-635.0131010194891
 30
0.0
 10
755.7745143341272
 20
-635.4675976028902
 30
0.0
 10
754.9389970524498
 20
-636.0483972421735
 30
0.0
 10
754.0868934068003
 20
-636.5703828346741
 30
0.0
  0
SPLINE
  5
97
330
91
100
AcDbEntity
  8
Layer 1
370
     0
100
AcDbSpline
210
0.0
220
0.0
230
1.0
 70
    11
 71
     3
 72
    44
 73
    40
 74
     0
 42
0.0000000001
 43
0.0000000001
 12
1.0
 22
0.0
 32
0.0
 13
1.0
 23
0.0
 33
0.0
 40
0.0
 40
0.0
 40
0.0
 40
0.0
 40
1.0
 40
1.0
 40
1.0
 40
2.0
 40
2.0
 40
2.0
 40
3.0
 40
3.0
 40
3.0
 40
4.0
 40
4.0
 40
4.0
 40
5.0
 40
5.0
 40
5.0
 40
6.0
 40
6.0
 40
6.0
 40
7.0
 40
7.0
 40
7.0
 40
8.0
 40
8.0
 40
8.0
 40
9.0
 40
9.0
 40
9.0
 40
10.0
 40
10.0
 40
10.0
 40
11.0
 40
11.0
 40
11.0
 40
12.0
 40
12.0
 40
12.0
 40
13.0
 40
13.0
 40
13.0
 40
13.0
 10
737.1167571223978
 20
-626.0611040331751
 30
0.0
 10
737.4344193951802
 20
-625.9517043806809
 30
0.0
 10
737.752072451698
 20
-625.8423184193089
 30
0.0
 10
738.0697309855877
 20
-625.7329361450793
 30
0.0
 10
738.2885527845265
 20
-624.3132973743704
 30
0.0
 10
738.5558195477715
 20
-622.8893840880446
 30
0.0
 10
738.7180974861822
 20
-621.4747354964966
 30
0.0
 10
739.585403146606
 20
-613.9142595326957
 30
0.0
 10
741.1584165768218
 20
-606.3927143614019
 30
0.0
 10
743.7951596400635
 20
-598.9126417860807
 30
0.0
 10
749.4902635624348
 20
-582.75639260967
 30
0.0
 10
758.4760264948509
 20
-568.323186234913
 30
0.0
 10
769.176115377988
 20
-554.8007120965485
 30
0.0
 10
775.2217390059141
 20
-547.1604506197782
 30
0.0
 10
781.6499619734186
 20
-539.9522982490453
 30
0.0
 10
789.4294872980245
 20
-534.4238447239022
 30
0.0
 10
795.8029655733208
 20
-529.8945949097142
 30
0.0
 10
802.3061596168664
 20
-527.6825496139227
 30
0.0
 10
808.9777833151893
 20
-529.0438551317802
 30
0.0
 10
809.5121765638287
 20
-529.1528969432538
 30
0.0
 10
810.1082489586352
 20
-529.0843634061748
 30
0.0
 10
811.3340016706661
 20
-529.1145771867941
 30
0.0
 10
810.507277566734
 20
-528.0547654511638
 30
0.0
 10
810.1881743504655
 20
-527.1791324620735
 30
0.0
 10
809.5621704182631
 20
-526.9259769125665
 30
0.0
 10
807.1726116920818
 20
-525.9596443372047
 30
0.0
 10
804.8205924732338
 20
-524.5991427389636
 30
0.0
 10
802.207288218724
 20
-524.4638696294851
 30
0.0
 10
794.1439830497984
 20
-524.0464805209467
 30
0.0
 10
786.6319875046756
 20
-528.1834179671478
 30
0.0
 10
779.7919455683841
 20
-534.0705936934373
 30
0.0
 10
761.1392963767175
 20
-550.1247746117679
 30
0.0
 10
747.4698117441912
 20
-569.7799858507551
 30
0.0
 10
739.3434441168611
 20
-593.1383616719049
 30
0.0
 10
736.1325427849079
 20
-602.3677571544504
 30
0.0
 10
734.6556154310274
 20
-611.5831951561286
 30
0.0
 10
735.7302436531118
 20
-620.5485619099072
 30
0.0
 10
735.9603454763801
 20
-622.4681342370786
 30
0.0
 10
736.642738577495
 20
-624.2277773978803
 30
0.0
 10
737.1167571223978
 20
-626.0611040331751
 30
0.0
  0
SPLINE
  5
98
330
91
100
AcDbEntity
  8
Layer 1
370
     0
100
AcDbSpline
210
0.0
220
0.0
230
1.0
 70
    11
 71
     3
 72
    41
 73
    37
 74
     0
 42
0.0000000001
 43
0.0000000001
 12
1.0
 22
0.0
 32
0.0
 13
1.0
 23
0.0
 33
0.0
 40
0.0
 40
0.0
 40
0.0
 40
0.0
 40
1.0
 40
1.0
 40
1.0
 40
2.0
 40
2.0
 40
2.0
 40
3.0
 40
3.0
 40
3.0
 40
4.0
 40
4.0
 40
4.0
 40
5.0
 40
5.0
 40
5.0
 40
6.0
 40
6.0
 40
6.0
 40
7.0
 40
7.0
 40
7.0
 40
8.0
 40
8.0
 40
8.0
 40
9.0
 40
9.0
 40
9.0
 40
10.0
 40
10.0
 40
10.0
 40
11.0
 40
11.0
 40
11.0
 40
12.0
 40
12.0
 40
12.0
 40
12.0
 10
835.2016131067994
 20
-546.3953771826
 30
0.0
 10
835.0534475275581
 20
-546.6099019519497
 30
0.0
 10
834.9052929030713
 20
-546.8244340955644
 30
0.0
 10
834.75712732383
 20
-547.0389588649086
 30
0.0
 10
835.3067380225912
 20
-547.7017195555
 30
0.0
 10
835.8377952031879
 20
-548.3841910839656
 30
0.0
 10
836.4087403658323
 20
-549.0242684855257
 30
0.0
 10
844.4580214117505
 20
-558.0483286210529
 30
0.0
 10
848.525943009301
 20
-569.1622165050903
 30
0.0
 10
844.6881390008857
 20
-583.6709246750761
 30
0.0
 10
839.7718136788135
 20
-602.2570286458395
 30
0.0
 10
829.9660915250624
 20
-618.0720902332905
 30
0.0
 10
814.681225587994
 20
-630.2858811224032
 30
0.0
 10
805.0609533379647
 20
-637.9732316084883
 30
0.0
 10
794.602254968242
 20
-641.7412351576477
 30
0.0
 10
783.8558333247474
 20
-644.1286325735618
 30
0.0
 10
782.6861241552706
 20
-644.3884946496455
 30
0.0
 10
781.5164895095677
 20
-644.7845293427763
 30
0.0
 10
780.3468252493494
 20
-645.1173969713345
 30
0.0
 10
780.3130129416986
 20
-645.3880493087672
 30
0.0
 10
780.279211588806
 20
-645.6587090204685
 30
0.0
 10
780.2453992811534
 20
-645.929361357903
 30
0.0
 10
781.8390732366861
 20
-646.123564854086
 30
0.0
 10
783.4009250919062
 20
-646.4903046749296
 30
0.0
 10
785.0316475011623
 20
-646.4836577994483
 30
0.0
 10
794.8544798884341
 20
-646.4436489638338
 30
0.0
 10
804.5646585473369
 20
-643.5737043643712
 30
0.0
 10
813.8116632231249
 20
-637.5157526944859
 30
0.0
 10
833.5484233583211
 20
-624.5857166622372
 30
0.0
 10
845.5075044692676
 20
-605.9614522439224
 30
0.0
 10
850.6474308249835
 20
-583.1832383016917
 30
0.0
 10
853.623729817009
 20
-569.9934428868964
 30
0.0
 10
850.6474023565715
 20
-559.1361198229497
 30
0.0
 10
842.7234660012291
 20
-550.9937036182728
 30
0.0
 10
840.6294956073598
 20
-548.8420155834592
 30
0.0
 10
838.277920992703
 20
-546.9825550385303
 30
0.0
 10
835.2016131067994
 20
-546.3953771826
 30
0.0
  0
SPLINE
  5
99
330
91
100
AcDbEntity
  8
Layer 1
370
     0
100
AcDbSpline
210
0.0
220
0.0
230
1.0
 70
    11
 71
     3
 72
    41
 73
    37
 74
     0
 42
0.0000000001
 43
0.0000000001
 12
1.0
 22
0.0
 32
0.0
 13
1.0
 23
0.0
 33
0.0
 40
0.0
 40
0.0
 40
0.0
 40
0.0
 40
1.0
 40
1.0
 40
1.0
 40
2.0
 40
2.0
 40
2.0
 40
3.0
 40
3.0
 40
3.0
 40
4.0
 40
4.0
 40
4.0
 40
5.0
 40
5.0
 40
5.0
 40
6.0
 40
6.0
 40
6.0
 40
7.0
 40
7.0
 40
7.0
 40
8.0
 40
8.0
 40
8.0
 40
9.0
 40
9.0
 40
9.0
 40
10.0
 40
10.0
 40
10.0
 40
11.0
 40
11.0
 40
11.0
 40
12.0
 40
12.0
 40
12.0
 40
12.0
 10
790.7511111819294
 20
-517.3653754456227
 30
0.0
 10
790.9379985925407
 20
-517.0788435100349
 30
0.0
 10
791.1248813950115
 20
-516.7923184200117
 30
0.0
 10
791.3117696748668
 20
-516.5057970171292
 30
0.0
 10
789.999806345546
 20
-515.415790614772
 30
0.0
 10
788.8139706502552
 20
-514.1209054070414
 30
0.0
 10
787.3557813774514
 20
-513.2684250873572
 30
0.0
 10
776.431960343647
 20
-506.8822440460272
 30
0.0
 10
764.3563171096557
 20
-507.6462877675494
 30
0.0
 10
751.7484780715513
 20
-515.8541529112945
 30
0.0
 10
735.8060047378003
 20
-526.2329106579282
 30
0.0
 10
724.5007049734031
 20
-541.0616199148026
 30
0.0
 10
717.757893103033
 20
-559.3110061749394
 30
0.0
 10
712.4006413079478
 20
-573.8103954802555
 30
0.0
 10
712.3415005914339
 20
-587.4980820675974
 30
0.0
 10
716.9348465925304
 20
-600.1184162915306
 30
0.0
 10
717.5891898559858
 20
-601.9162168446092
 30
0.0
 10
718.677569242398
 20
-603.4525501187964
 30
0.0
 10
719.8410851260396
 20
-605.6253336875016
 30
0.0
 10
720.1395665645978
 20
-604.5076293946495
 30
0.0
 10
720.2762303384661
 20
-604.2431844423209
 30
0.0
 10
720.2554422134708
 20
-604.0306573181224
 30
0.0
 10
720.1684812474505
 20
-603.1421739007765
 30
0.0
 10
720.057538949106
 20
-602.2599094126308
 30
0.0
 10
719.9137470933292
 20
-601.3921191643567
 30
0.0
 10
718.5054801319202
 20
-592.8933577511998
 30
0.0
 10
717.7657898993875
 20
-584.2279440680559
 30
0.0
 10
719.3268922600146
 20
-575.0008292708571
 30
0.0
 10
722.1828784366371
 20
-558.120113699717
 30
0.0
 10
730.5739167228276
 20
-543.762933394546
 30
0.0
 10
742.5585343971215
 20
-531.0193505647167
 30
0.0
 10
756.52236971614
 20
-516.1712181247858
 30
0.0
 10
771.3776419458518
 20
-510.7616217124269
 30
0.0
 10
787.3166188630512
 20
-516.2650772129864
 30
0.0
 10
788.4503156480387
 20
-516.6565221073088
 30
0.0
 10
789.6057733910984
 20
-516.9997369891071
 30
0.0
 10
790.7511111819294
 20
-517.3653754456227
 30
0.0
  0
HATCH
  5
9A
330
91
100
AcDbEntity
  8
Layer 1
 62
    32
420
 15229443
100
AcDbHatch
 10
0.0
 20
0.0
 30
0.0
210
0.0
220
0.0
230
1.0
  2
SOLID
 70
     1
 71
     0
 91
        5
 92
        1
 93
        1
 72
     4
 94
        3
 73
     0
 74
     1
 95
       59
 96
       55
 40
0.0
 40
0.0
 40
0.0
 40
0.0
 40
1.0
 40
1.0
 40
1.0
 40
2.0
 40
2.0
 40
2.0
 40
3.0
 40
3.0
 40
3.0
 40
4.0
 40
4.0
 40
4.0
 40
5.0
 40
5.0
 40
5.0
 40
6.0
 40
6.0
 40
6.0
 40
7.0
 40
7.0
 40
7.0
 40
8.0
 40
8.0
 40
8.0
 40
9.0
 40
9.0
 40
9.0
 40
10.0
 40
10.0
 40
10.0
 40
11.0
 40
11.0
 40
11.0
 40
12.0
 40
12.0
 40
12.0
 40
13.0
 40
13.0
 40
13.0
 40
14.0
 40
14.0
 40
14.0
 40
15.0
 40
15.0
 40
15.0
 40
16.0
 40
16.0
 40
16.0
 40
17.0
 40
17.0
 40
17.0
 40
18.0
 40
18.0
 40
18.0
 40
18.0
 10
815.8932176146409
 20
-521.3344235472559
 10
818.1254877844149
 20
-518.7808528059941
 10
820.2286148314197
 20
-516.0794495386563
 10
822.6020984029492
 20
-513.7122163686172
 10
831.7655417006754
 20
-504.5729261075621
 10
842.0395453973015
 20
-501.390099070356
 10
852.7965141952009
 20
-501.3117720480823
 10
854.9695180759536
 20
-501.2959382095887
 10
855.7634224168323
 20
-502.7021148352105
 10
855.0538600429718
 20
-505.1107536159871
 10
854.0867181130452
 20
-508.3936783433592
 10
853.0355773874635
 20
-511.6683193281742
 10
851.9251316679874
 20
-514.9279076719858
 10
851.0329915640486
 20
-517.5466426902658
 10
849.6436833078769
 20
-518.4668500445123
 10
847.2482588330568
 20
-518.0605012169126
 10
843.098896042764
 20
-517.3566218646883
 10
838.8809323381338
 20
-517.1969163962403
 10
834.4163757569204
 20
-518.715831685271
 10
830.1438520075262
 20
-520.1694010224246
 10
826.3523199573592
 20
-522.7001516705068
 10
822.8337912582174
 20
-526.3909599939834
 10
825.8348899579814
 20
-529.0984763668403
 10
828.2477731335421
 20
-531.7969121918095
 10
832.300175255903
 20
-532.8308926917716
 10
856.271373057647
 20
-538.9471920979959
 10
868.3187125565055
 20
-564.4500331442832
 10
861.6900298757173
 20
-594.179853811429
 10
854.2928651529892
 20
-627.3563004285079
 10
825.2494564884964
 20
-654.7757814786219
 10
795.4621961455869
 20
-656.6399254773205
 10
784.3106225487572
 20
-657.3378204802466
 10
774.6972271006525
 20
-654.2869295652908
 10
766.4698775411634
 20
-647.9265085925235
 10
765.596629526488
 20
-647.2514159027705
 10
764.4569858363338
 20
-646.8013258468891
 10
763.3229415966307
 20
-646.6379734726252
 10
745.954472489524
 20
-644.135991571975
 10
733.0263023975294
 20
-635.2083941010042
 10
724.5798002025658
 20
-619.7236688379489
 10
724.0544118722701
 20
-618.7604931391288
 10
723.4703286486438
 20
-617.6869202519465
 10
722.5997560424839
 20
-617.1686712466217
 10
700.9516626911336
 20
-604.2813109832969
 10
696.0328619134234
 20
-573.756460844992
 10
707.9799096707738
 20
-545.7043409247854
 10
720.4771858280819
 20
-516.3602736476123
 10
749.143746511214
 20
-495.6741040226962
 10
775.6251251975555
 20
-497.4299310827046
 10
788.680010453083
 20
-498.2955150421176
 10
798.8884325212312
 20
-504.1061757611724
 10
806.3119846896825
 20
-514.4885418997319
 10
809.174281632284
 20
-518.4916807428781
 10
810.8646108507255
 20
-519.7301964081089
 10
815.8932176146409
 20
-521.3344235472559
 97
        0
 97
        0
 92
        1
 93
        1
 72
     4
 94
        3
 73
     0
 74
     1
 95
       41
 96
       37
 40
0.0
 40
0.0
 40
0.0
 40
0.0
 40
1.0
 40
1.0
 40
1.0
 40
2.0
 40
2.0
 40
2.0
 40
3.0
 40
3.0
 40
3.0
 40
4.0
 40
4.0
 40
4.0
 40
5.0
 40
5.0
 40
5.0
 40
6.0
 40
6.0
 40
6.0
 40
7.0
 40
7.0
 40
7.0
 40
8.0
 40
8.0
 40
8.0
 40
9.0
 40
9.0
 40
9.0
 40
10.0
 40
10.0
 40
10.0
 40
11.0
 40
11.0
 40
11.0
 40
12.0
 40
12.0
 40
12.0
 40
12.0
 10
754.0868934068003
 20
-636.5703828346741
 10
754.0876491905565
 20
-636.859231654038
 10
754.0884067127954
 20
-637.1481015387963
 10
754.0891642350362
 20
-637.4369714235581
 10
755.6109041659274
 20
-637.3114024349234
 10
757.1356225262261
 20
-637.3886597957644
 10
758.6539083579537
 20
-637.0272963559455
 10
768.4071472074593
 20
-634.7058196384842
 10
777.1230715414531
 20
-629.0906491655151
 10
785.2767460230643
 20
-621.9105705581114
 10
799.0136256503356
 20
-609.8139717580962
 10
809.213409035232
 20
-594.9108363128798
 10
817.3750758303249
 20
-578.4827158130611
 10
821.5491498693482
 20
-570.0809315350543
 10
824.7917065969905
 20
-561.4549366824522
 10
825.6378580171313
 20
-552.4922272015829
 10
826.2342025216021
 20
-546.1755041981105
 10
825.5196569003128
 20
-540.3798783433094
 10
822.0674493527986
 20
-535.8971819317885
 10
820.7093047748676
 20
-534.133634913921
 10
819.1069359045723
 20
-532.6337601755577
 10
816.0329846582026
 20
-532.5356689226683
 10
816.7820398136755
 20
-533.9055074290663
 10
817.2556556051604
 20
-534.7964690551953
 10
817.7497320441362
 20
-535.6712716845004
 10
821.8106630520906
 20
-542.8614422896517
 10
820.8196832433641
 20
-551.2249343537806
 10
817.8686928831339
 20
-559.9800032446001
 10
813.9276444536918
 20
-571.6723713090396
 10
807.7094230081293
 20
-582.3852481393405
 10
800.8778020617392
 20
-592.8236910681298
 10
789.1010563191976
 20
-610.8181128717843
 10
774.845552444478
 20
-625.517535628509
 10
756.6456584278167
 20
-635.0131010194891
 10
755.7745143341272
 20
-635.4675976028902
 10
754.9389970524498
 20
-636.0483972421735
 10
754.0868934068003
 20
-636.5703828346741
 97
        0
 97
        0
 92
        1
 93
        1
 72
     4
 94
        3
 73
     0
 74
     1
 95
       44
 96
       40
 40
0.0
 40
0.0
 40
0.0
 40
0.0
 40
1.0
 40
1.0
 40
1.0
 40
2.0
 40
2.0
 40
2.0
 40
3.0
 40
3.0
 40
3.0
 40
4.0
 40
4.0
 40
4.0
 40
5.0
 40
5.0
 40
5.0
 40
6.0
 40
6.0
 40
6.0
 40
7.0
 40
7.0
 40
7.0
 40
8.0
 40
8.0
 40
8.0
 40
9.0
 40
9.0
 40
9.0
 40
10.0
 40
10.0
 40
10.0
 40
11.0
 40
11.0
 40
11.0
 40
12.0
 40
12.0
 40
12.0
 40
13.0
 40
13.0
 40
13.0
 40
13.0
 10
737.1167571223978
 20
-626.0611040331751
 10
737.4344193951802
 20
-625.9517043806809
 10
737.752072451698
 20
-625.8423184193089
 10
738.0697309855877
 20
-625.7329361450793
 10
738.2885527845265
 20
-624.3132973743704
 10
738.5558195477715
 20
-622.8893840880446
 10
738.7180974861822
 20
-621.4747354964966
 10
739.585403146606
 20
-613.9142595326957
 10
741.1584165768218
 20
-606.3927143614019
 10
743.7951596400635
 20
-598.9126417860807
 10
749.4902635624348
 20
-582.75639260967
 10
758.4760264948509
 20
-568.323186234913
 10
769.176115377988
 20
-554.8007120965485
 10
775.2217390059141
 20
-547.1604506197782
 10
781.6499619734186
 20
-539.9522982490453
 10
789.4294872980245
 20
-534.4238447239022
 10
795.8029655733208
 20
-529.8945949097142
 10
802.3061596168664
 20
-527.6825496139227
 10
808.9777833151893
 20
-529.0438551317802
 10
809.5121765638287
 20
-529.1528969432538
 10
810.1082489586352
 20
-529.0843634061748
 10
811.3340016706661
 20
-529.1145771867941
 10
810.507277566734
 20
-528.0547654511638
 10
810.1881743504655
 20
-527.1791324620735
 10
809.5621704182631
 20
-526.9259769125665
 10
807.1726116920818
 20
-525.9596443372047
 10
804.8205924732338
 20
-524.5991427389636
 10
802.207288218724
 20
-524.4638696294851
 10
794.1439830497984
 20
-524.0464805209467
 10
786.6319875046756
 20
-528.1834179671478
 10
779.7919455683841
 20
-534.0705936934373
 10
761.1392963767175
 20
-550.1247746117679
 10
747.4698117441912
 20
-569.7799858507551
 10
739.3434441168611
 20
-593.1383616719049
 10
736.1325427849079
 20
-602.3677571544504
 10
734.6556154310274
 20
-611.5831951561286
 10
735.7302436531118
 20
-620.5485619099072
 10
735.9603454763801
 20
-622.4681342370786
 10
736.642738577495
 20
-624.2277773978803
 10
737.1167571223978
 20
-626.0611040331751
 97
        0
 97
        0
 92
        1
 93
        1
 72
     4
 94
        3
 73
     0
 74
     1
 95
       41
 96
       37
 40
0.0
 40
0.0
 40
0.0
 40
0.0
 40
1.0
 40
1.0
 40
1.0
 40
2.0
 40
2.0
 40
2.0
 40
3.0
 40
3.0
 40
3.0
 40
4.0
 40
4.0
 40
4.0
 40
5.0
 40
5.0
 40
5.0
 40
6.0
 40
6.0
 40
6.0
 40
7.0
 40
7.0
 40
7.0
 40
8.0
 40
8.0
 40
8.0
 40
9.0
 40
9.0
 40
9.0
 40
10.0
 40
10.0
 40
10.0
 40
11.0
 40
11.0
 40
11.0
 40
12.0
 40
12.0
 40
12.0
 40
12.0
 10
835.2016131067994
 20
-546.3953771826
 10
835.0534475275581
 20
-546.6099019519497
 10
834.9052929030713
 20
-546.8244340955644
 10
834.75712732383
 20
-547.0389588649086
 10
835.3067380225912
 20
-547.7017195555
 10
835.8377952031879
 20
-548.3841910839656
 10
836.4087403658323
 20
-549.0242684855257
 10
844.4580214117505
 20
-558.0483286210529
 10
848.525943009301
 20
-569.1622165050903
 10
844.6881390008857
 20
-583.6709246750761
 10
839.7718136788135
 20
-602.2570286458395
 10
829.9660915250624
 20
-618.0720902332905
 10
814.681225587994
 20
-630.2858811224032
 10
805.0609533379647
 20
-637.9732316084883
 10
794.602254968242
 20
-641.7412351576477
 10
783.8558333247474
 20
-644.1286325735618
 10
782.6861241552706
 20
-644.3884946496455
 10
781.5164895095677
 20
-644.7845293427763
 10
780.3468252493494
 20
-645.1173969713345
 10
780.3130129416986
 20
-645.3880493087672
 10
780.279211588806
 20
-645.6587090204685
 10
780.2453992811534
 20
-645.929361357903
 10
781.8390732366861
 20
-646.123564854086
 10
783.4009250919062
 20
-646.4903046749296
 10
785.0316475011623
 20
-646.4836577994483
 10
794.8544798884341
 20
-646.4436489638338
 10
804.5646585473369
 20
-643.5737043643712
 10
813.8116632231249
 20
-637.5157526944859
 10
833.5484233583211
 20
-624.5857166622372
 10
845.5075044692676
 20
-605.9614522439224
 10
850.6474308249835
 20
-583.1832383016917
 10
853.623729817009
 20
-569.9934428868964
 10
850.6474023565715
 20
-559.1361198229497
 10
842.7234660012291
 20
-550.9937036182728
 10
840.6294956073598
 20
-548.8420155834592
 10
838.277920992703
 20
-546.9825550385303
 10
835.2016131067994
 20
-546.3953771826
 97
        0
 97
        0
 92
        1
 93
        1
 72
     4
 94
        3
 73
     0
 74
     1
 95
       41
 96
       37
 40
0.0
 40
0.0
 40
0.0
 40
0.0
 40
1.0
 40
1.0
 40
1.0
 40
2.0
 40
2.0
 40
2.0
 40
3.0
 40
3.0
 40
3.0
 40
4.0
 40
4.0
 40
4.0
 40
5.0
 40
5.0
 40
5.0
 40
6.0
 40
6.0
 40
6.0
 40
7.0
 40
7.0
 40
7.0
 40
8.0
 40
8.0
 40
8.0
 40
9.0
 40
9.0
 40
9.0
 40
10.0
 40
10.0
 40
10.0
 40
11.0
 40
11.0
 40
11.0
 40
12.0
 40
12.0
 40
12.0
 40
12.0
 10
790.7511111819294
 20
-517.3653754456227
 10
790.9379985925407
 20
-517.0788435100349
 10
791.1248813950115
 20
-516.7923184200117
 10
791.3117696748668
 20
-516.5057970171292
 10
789.999806345546
 20
-515.415790614772
 10
788.8139706502552
 20
-514.1209054070414
 10
787.3557813774514
 20
-513.2684250873572
 10
776.431960343647
 20
-506.8822440460272
 10
764.3563171096557
 20
-507.6462877675494
 10
751.7484780715513
 20
-515.8541529112945
 10
735.8060047378003
 20
-526.2329106579282
 10
724.5007049734031
 20
-541.0616199148026
 10
717.757893103033
 20
-559.3110061749394
 10
712.4006413079478
 20
-573.8103954802555
 10
712.3415005914339
 20
-587.4980820675974
 10
716.9348465925304
 20
-600.1184162915306
 10
717.5891898559858
 20
-601.9162168446092
 10
718.677569242398
 20
-603.4525501187964
 10
719.8410851260396
 20
-605.6253336875016
 10
720.1395665645978
 20
-604.5076293946495
 10
720.2762303384661
 20
-604.2431844423209
 10
720.2554422134708
 20
-604.0306573181224
 10
720.1684812474505
 20
-603.1421739007765
 10
720.057538949106
 20
-602.2599094126308
 10
719.9137470933292
 20
-601.3921191643567
 10
718.5054801319202
 20
-592.8933577511998
 10
717.7657898993875
 20
-584.2279440680559
 10
719.3268922600146
 20
-575.0008292708571
 10
722.1828784366371
 20
-558.120113699717
 10
730.5739167228276
 20
-543.762933394546
 10
742.5585343971215
 20
-531.0193505647167
 10
756.52236971614
 20
-516.1712181247858
 10
771.3776419458518
 20
-510.7616217124269
 10
787.3166188630512
 20
-516.2650772129864
 10
788.4503156480387
 20
-516.6565221073088
 10
789.6057733910984
 20
-516.9997369891071
 10
790.7511111819294
 20
-517.3653754456227
 97
        0
 97
        0
 75
     2
 76
     1
 98
        0
  0
ENDBLK
  5
94
330
91
100
AcDbEntity
  8
0
100
AcDbBlockEnd
  0
ENDSEC
  0
SECTION
  2
ENTITIES
  0
INSERT
  5
42
330
1F
100
AcDbEntity
  8
Layer 1
100
AcDbBlockReference
  2
block 2
 10
0.0
 20
0.0
 30
0.0
  0
ENDSEC
  0
SECTION
  2
OBJECTS
  0
DICTIONARY
  5
C
330
0
100
AcDbDictionary
281
     1
  3
ACAD_GROUP
350
D
  3
ACAD_LAYOUT
350
1A
  3
ACAD_MATERIAL
350
3B
  3
ACAD_MLEADERSTYLE
350
9C
  3
ACAD_MLINESTYLE
350
17
  3
ACAD_PLOTSETTINGS
350
19
  3
ACAD_PLOTSTYLENAME
350
E
  3
ACAD_TABLESTYLE
350
9B
  3
ACAD_VISUALSTYLE
350
2A
  0
SUN
  5
3F
330
29
100
AcDbSun
 90
        1
290
     0
 63
     7
421
 16777215
 40
1.0
291
     1
 91
  2455826
 92
 54000000
292
     0
 70
     2
 71
   256
280
     1
  0
DICTIONARY
  5
D
102
{ACAD_REACTORS
330
C
102
}
330
C
100
AcDbDictionary
281
     1
  0
DICTIONARY
  5
1A
102
{ACAD_REACTORS
330
C
102
}
330
C
100
AcDbDictionary
281
     1
  3
Layout1
350
1E
  3
Layout2
350
26
  3
Model
350
22
  0
DICTIONARY
  5
3B
102
{ACAD_REACTORS
330
C
102
}
330
C
100
AcDbDictionary
281
     1
  3
ByBlock
350
3D
  3
ByLayer
350
3C
  3
Global
350
3E
  0
DICTIONARY
  5
9C
102
{ACAD_REACTORS
330
C
102
}
330
C
100
AcDbDictionary
281
     1
  0
DICTIONARY
  5
17
102
{ACAD_REACTORS
330
C
102
}
330
C
100
AcDbDictionary
281
     1
  3
Standard
350
18
  0
DICTIONARY
  5
19
102
{ACAD_REACTORS
330
C
102
}
330
C
100
AcDbDictionary
281
     1
  0
ACDBDICTIONARYWDFLT
  5
E
102
{ACAD_REACTORS
330
C
102
}
330
C
100
AcDbDictionary
281
     1
  3
Normal
350
F
100
AcDbDictionaryWithDefault
340
F
  0
DICTIONARY
  5
9B
102
{ACAD_REACTORS
330
C
102
}
330
C
100
AcDbDictionary
281
     1
  0
DICTIONARY
  5
2A
102
{ACAD_REACTORS
330
C
102
}
330
C
100
AcDbDictionary
281
     1
  3
2dWireframe
350
2F
  3
3D Hidden
350
31
  3
3dWireframe
350
30
  3
Basic
350
32
  3
Brighten
350
36
  3
ColorChange
350
3A
  3
Conceptual
350
34
  3
Dim
350
35
  3
Facepattern
350
39
  3
Flat
350
2B
  3
FlatWithEdges
350
2C
  3
Gouraud
350
2D
  3
GouraudWithEdges
350
2E
  3
Linepattern
350
38
  3
Realistic
350
33
  3
Thicken
350
37
  0
LAYOUT
  5
1E
102
{ACAD_REACTORS
330
1A
102
}
330
1A
100
AcDbPlotSettings
  1

  2
none_device
  4

  6

 40
0.0
 41
0.0
 42
0.0
 43
0.0
 44
0.0
 45
0.0
 46
0.0
 47
0.0
 48
0.0
 49
0.0
140
0.0
141
0.0
142
1.0
143
1.0
 70
   688
 72
     0
 73
     0
 74
     5
  7

 75
    16
 76
     0
 77
     2
 78
   300
147
1.0
148
0.0
149
0.0
100
AcDbLayout
  1
Layout1
 70
     1
 71
     1
 10
0.0
 20
0.0
 11
12.0
 21
9.0
 12
0.0
 22
0.0
 32
0.0
 14
1.000000000000000E+20
 24
1.000000000000000E+20
 34
1.000000000000000E+20
 15
-1.000000000000000E+20
 25
-1.000000000000000E+20
 35
-1.000000000000000E+20
146
0.0
 13
0.0
 23
0.0
 33
0.0
 16
1.0
 26
0.0
 36
0.0
 17
0.0
 27
1.0
 37
0.0
 76
     0
330
1B
  0
LAYOUT
  5
26
102
{ACAD_REACTORS
330
1A
102
}
330
1A
100
AcDbPlotSettings
  1

  2
none_device
  4

  6

 40
0.0
 41
0.0
 42
0.0
 43
0.0
 44
0.0
 45
0.0
 46
0.0
 47
0.0
 48
0.0
 49
0.0
140
0.0
141
0.0
142
1.0
143
1.0
 70
   688
 72
     0
 73
     0
 74
     5
  7

 75
    16
 76
     0
 77
     2
 78
   300
147
1.0
148
0.0
149
0.0
100
AcDbLayout
  1
Layout2
 70
     1
 71
     2
 10
0.0
 20
0.0
 11
0.0
 21
0.0
 12
0.0
 22
0.0
 32
0.0
 14
0.0
 24
0.0
 34
0.0
 15
0.0
 25
0.0
 35
0.0
146
0.0
 13
0.0
 23
0.0
 33
0.0
 16
1.0
 26
0.0
 36
0.0
 17
0.0
 27
1.0
 37
0.0
 76
     0
330
23
  0
LAYOUT
  5
22
102
{ACAD_REACTORS
330
1A
102
}
330
1A
100
AcDbPlotSettings
  1

  2
none_device
  4

  6

 40
0.0
 41
0.0
 42
0.0
 43
0.0
 44
0.0
 45
0.0
 46
0.0
 47
0.0
 48
0.0
 49
0.0
140
0.0
141
0.0
142
1.0
143
1.0
 70
  1712
 72
     0
 73
     0
 74
     0
  7

 75
     0
 76
     0
 77
     2
 78
   300
147
1.0
148
0.0
149
0.0
100
AcDbLayout
  1
Model
 70
     1
 71
     0
 10
0.0
 20
0.0
 11
12.0
 21
9.0
 12
0.0
 22
0.0
 32
0.0
 14
1.000000000000000E+20
 24
1.000000000000000E+20
 34
1.000000000000000E+20
 15
-1.000000000000000E+20
 25
-1.000000000000000E+20
 35
-1.000000000000000E+20
146
0.0
 13
0.0
 23
0.0
 33
0.0
 16
1.0
 26
0.0
 36
0.0
 17
0.0
 27
1.0
 37
0.0
 76
     0
330
1F
331
29
  0
MATERIAL
  5
3D
102
{ACAD_REACTORS
330
3B
102
}
330
3B
100
AcDbMaterial
  1
ByBlock
 72
     1
 94
      127
  0
MATERIAL
  5
3C
102
{ACAD_REACTORS
330
3B
102
}
330
3B
100
AcDbMaterial
  1
ByLayer
 72
     1
 94
      127
  0
MATERIAL
  5
3E
102
{ACAD_REACTORS
330
3B
102
}
330
3B
100
AcDbMaterial
  1
Global
 72
     1
 94
      127
  0
MLINESTYLE
  5
18
102
{ACAD_REACTORS
330
17
102
}
330
17
100
AcDbMlineStyle
  2
Standard
 70
     0
  3

 62
   256
 51
90.0
 52
90.0
 71
     2
 49
0.5
 62
   256
  6
BYLAYER
 49
-0.5
 62
   256
  6
BYLAYER
  0
ACDBPLACEHOLDER
  5
F
102
{ACAD_REACTORS
330
E
102
}
330
E
  0
VISUALSTYLE
  5
2F
102
{ACAD_REACTORS
330
2A
102
}
330
2A
100
AcDbVisualStyle
  2
2dWireframe
 70
     4
177
     2
291
     0
 71
     0
176
     1
 72
     2
176
     1
 73
     0
176
     1
 90
        0
176
     1
 40
-0.6
176
     1
 41
-30.0
176
     1
 62
     5
 63
     7
421
 16777215
176
     1
 74
     1
176
     1
 91
        4
176
     1
 64
     7
176
     1
 65
   257
176
     1
 75
     1
176
     1
175
     1
176
     1
 42
1.0
176
     1
 92
        0
176
     1
 66
   257
176
     1
 43
1.0
176
     1
 76
     1
176
     1
 77
     6
176
     1
 78
     2
176
     1
 67
     7
176
     1
 79
     5
176
     1
170
     0
176
     1
171
     0
176
     1
290
     0
176
     1
 93
        1
176
     1
 44
0.0
176
     1
173
     0
176
     1
  0
VISUALSTYLE
  5
31
102
{ACAD_REACTORS
330
2A
102
}
330
2A
100
AcDbVisualStyle
  2
3D Hidden
 70
     6
177
     2
291
     0
 71
     1
176
     1
 72
     2
176
     1
 73
     2
176
     1
 90
        0
176
     1
 40
-0.6
176
     1
 41
-30.0
176
     1
 62
     5
 63
     7
421
 16777215
176
     1
 74
     2
176
     1
 91
        2
176
     1
 64
     7
176
     1
 65
   257
176
     1
 75
     2
176
     1
175
     1
176
     1
 42
40.0
176
     1
 92
        0
176
     1
 66
   257
176
     1
 43
1.0
176
     1
 76
     1
176
     1
 77
     6
176
     1
 78
     2
176
     1
 67
     7
176
     1
 79
     3
176
     1
170
     0
176
     1
171
     0
176
     1
290
     0
176
     1
 93
        1
176
     1
 44
0.0
176
     1
173
     0
176
     1
  0
VISUALSTYLE
  5
30
102
{ACAD_REACTORS
330
2A
102
}
330
2A
100
AcDbVisualStyle
  2
3dWireframe
 70
     5
177
     2
291
     0
 71
     0
176
     1
 72
     2
176
     1
 73
     0
176
     1
 90
        0
176
     1
 40
-0.6
176
     1
 41
-30.0
176
     1
 62
     5
 63
     7
421
 16777215
176
     1
 74
     1
176
     1
 91
        4
176
     1
 64
     7
176
     1
 65
   257
176
     1
 75
     1
176
     1
175
     1
176
     1
 42
1.0
176
     1
 92
        0
176
     1
 66
   257
176
     1
 43
1.0
176
     1
 76
     1
176
     1
 77
     6
176
     1
 78
     2
176
     1
 67
     7
176
     1
 79
     5
176
     1
170
     0
176
     1
171
     0
176
     1
290
     0
176
     1
 93
        1
176
     1
 44
0.0
176
     1
173
     0
176
     1
  0
VISUALSTYLE
  5
32
102
{ACAD_REACTORS
330
2A
102
}
330
2A
100
AcDbVisualStyle
  2
Basic
 70
     7
177
     2
291
     1
 71
     1
176
     1
 72
     0
176
     1
 73
     1
176
     1
 90
        0
176
     1
 40
-0.6
176
     1
 41
-30.0
176
     1
 62
     5
 63
     7
421
 16777215
176
     1
 74
     0
176
     1
 91
        4
176
     1
 64
     7
176
     1
 65
   257
176
     1
 75
     1
176
     1
175
     1
176
     1
 42
1.0
176
     1
 92
        8
176
     1
 66
     7
176
     1
 43
1.0
176
     1
 76
     1
176
     1
 77
     6
176
     1
 78
     2
176
     1
 67
     7
176
     1
 79
     5
176
     1
170
     0
176
     1
171
     0
176
     1
290
     0
176
     1
 93
        1
176
     1
 44
0.0
176
     1
173
     0
176
     1
  0
VISUALSTYLE
  5
36
102
{ACAD_REACTORS
330
2A
102
}
330
2A
100
AcDbVisualStyle
  2
Brighten
 70
    12
177
     2
291
     1
 71
     2
176
     1
 72
     2
176
     1
 73
     0
176
     1
 90
        0
176
     1
 40
-0.6
176
     1
 41
-30.0
176
     1
 62
     5
 63
     7
421
 16777215
176
     1
 74
     1
176
     1
 91
        4
176
     1
 64
     7
176
     1
 65
   257
176
     1
 75
     1
176
     1
175
     1
176
     1
 42
1.0
176
     1
 92
        8
176
     1
 66
     7
176
     1
 43
1.0
176
     1
 76
     1
176
     1
 77
     6
176
     1
 78
     2
176
     1
 67
     7
176
     1
 79
     5
176
     1
170
     0
176
     1
171
     0
176
     1
290
     0
176
     1
 93
        1
176
     1
 44
50.0
176
     1
173
     0
176
     1
  0
VISUALSTYLE
  5
3A
102
{ACAD_REACTORS
330
2A
102
}
330
2A
100
AcDbVisualStyle
  2
ColorChange
 70
    16
177
     2
291
     1
 71
     2
176
     1
 72
     2
176
     1
 73
     3
176
     1
 90
        0
176
     1
 40
-0.6
176
     1
 41
-30.0
176
     1
 62
     5
 63
     8
421
  8421504
176
     1
 74
     1
176
     1
 91
        4
176
     1
 64
     7
176
     1
 65
   257
176
     1
 75
     1
176
     1
175
     1
176
     1
 42
1.0
176
     1
 92
        8
176
     1
 66
     8
424
  8421504
176
     1
 43
1.0
176
     1
 76
     1
176
     1
 77
     6
176
     1
 78
     2
176
     1
 67
     7
176
     1
 79
     5
176
     1
170
     0
176
     1
171
     0
176
     1
290
     0
176
     1
 93
        1
176
     1
 44
0.0
176
     1
173
     0
176
     1
  0
VISUALSTYLE
  5
34
102
{ACAD_REACTORS
330
2A
102
}
330
2A
100
AcDbVisualStyle
  2
Conceptual
 70
     9
177
     2
291
     0
 71
     3
176
     1
 72
     2
176
     1
 73
     0
176
     1
 90
        0
176
     1
 40
-0.6
176
     1
 41
-30.0
176
     1
 62
     5
 63
     7
421
 16777215
176
     1
 74
     2
176
     1
 91
        2
176
     1
 64
     7
176
     1
 65
   257
176
     1
 75
     1
176
     1
175
     1
176
     1
 42
40.0
176
     1
 92
        8
176
     1
 66
     7
176
     1
 43
1.0
176
     1
 76
     1
176
     1
 77
     6
176
     1
 78
     2
176
     1
 67
     7
176
     1
 79
     3
176
     1
170
     0
176
     1
171
     0
176
     1
290
     0
176
     1
 93
        1
176
     1
 44
0.0
176
     1
173
     0
176
     1
  0
VISUALSTYLE
  5
35
102
{ACAD_REACTORS
330
2A
102
}
330
2A
100
AcDbVisualStyle
  2
Dim
 70
    11
177
     2
291
     1
 71
     2
176
     1
 72
     2
176
     1
 73
     0
176
     1
 90
        0
176
     1
 40
-0.6
176
     1
 41
-30.0
176
     1
 62
     5
 63
     7
421
 16777215
176
     1
 74
     1
176
     1
 91
        4
176
     1
 64
     7
176
     1
 65
   257
176
     1
 75
     1
176
     1
175
     1
176
     1
 42
1.0
176
     1
 92
        8
176
     1
 66
     7
176
     1
 43
1.0
176
     1
 76
     1
176
     1
 77
     6
176
     1
 78
     2
176
     1
 67
     7
176
     1
 79
     5
176
     1
170
     0
176
     1
171
     0
176
     1
290
     0
176
     1
 93
        1
176
     1
 44
-50.0
176
     1
173
     0
176
     1
  0
VISUALSTYLE
  5
39
102
{ACAD_REACTORS
330
2A
102
}
330
2A
100
AcDbVisualStyle
  2
Facepattern
 70
    15
177
     2
291
     1
 71
     2
176
     1
 72
     2
176
     1
 73
     0
176
     1
 90
        0
176
     1
 40
-0.6
176
     1
 41
-30.0
176
     1
 62
     5
 63
     7
421
 16777215
176
     1
 74
     1
176
     1
 91
        4
176
     1
 64
     7
176
     1
 65
   257
176
     1
 75
     1
176
     1
175
     1
176
     1
 42
1.0
176
     1
 92
        8
176
     1
 66
     7
176
     1
 43
1.0
176
     1
 76
     1
176
     1
 77
     6
176
     1
 78
     2
176
     1
 67
     7
176
     1
 79
     5
176
     1
170
     0
176
     1
171
     0
176
     1
290
     0
176
     1
 93
        1
176
     1
 44
0.0
176
     1
173
     0
176
     1
  0
VISUALSTYLE
  5
2B
102
{ACAD_REACTORS
330
2A
102
}
330
2A
100
AcDbVisualStyle
  2
Flat
 70
     0
177
     2
291
     1
 71
     2
176
     1
 72
     1
176
     1
 73
     1
176
     1
 90
        2
176
     1
 40
-0.6
176
     1
 41
30.0
176
     1
 62
     5
 63
     7
421
 16777215
176
     1
 74
     0
176
     1
 91
        4
176
     1
 64
     7
176
     1
 65
   257
176
     1
 75
     1
176
     1
175
     1
176
     1
 42
1.0
176
     1
 92
        8
176
     1
 66
     7
176
     1
 43
1.0
176
     1
 76
     1
176
     1
 77
     6
176
     1
 78
     2
176
     1
 67
     7
176
     1
 79
     5
176
     1
170
     0
176
     1
171
     0
176
     1
290
     0
176
     1
 93
       13
176
     1
 44
0.0
176
     1
173
     0
176
     1
  0
VISUALSTYLE
  5
2C
102
{ACAD_REACTORS
330
2A
102
}
330
2A
100
AcDbVisualStyle
  2
FlatWithEdges
 70
     1
177
     2
291
     1
 71
     2
176
     1
 72
     1
176
     1
 73
     1
176
     1
 90
        2
176
     1
 40
-0.6
176
     1
 41
30.0
176
     1
 62
     5
 63
     7
421
 16777215
176
     1
 74
     1
176
     1
 91
        4
176
     1
 64
     7
176
     1
 65
   257
176
     1
 75
     1
176
     1
175
     1
176
     1
 42
1.0
176
     1
 92
        0
176
     1
 66
   257
176
     1
 43
1.0
176
     1
 76
     1
176
     1
 77
     6
176
     1
 78
     2
176
     1
 67
     7
176
     1
 79
     5
176
     1
170
     0
176
     1
171
     0
176
     1
290
     0
176
     1
 93
       13
176
     1
 44
0.0
176
     1
173
     0
176
     1
  0
VISUALSTYLE
  5
2D
102
{ACAD_REACTORS
330
2A
102
}
330
2A
100
AcDbVisualStyle
  2
Gouraud
 70
     2
177
     2
291
     1
 71
     2
176
     1
 72
     2
176
     1
 73
     1
176
     1
 90
        2
176
     1
 40
-0.6
176
     1
 41
30.0
176
     1
 62
     5
 63
     7
421
 16777215
176
     1
 74
     0
176
     1
 91
        4
176
     1
 64
     7
176
     1
 65
   257
176
     1
 75
     1
176
     1
175
     1
176
     1
 42
1.0
176
     1
 92
        0
176
     1
 66
     7
176
     1
 43
1.0
176
     1
 76
     1
176
     1
 77
     6
176
     1
 78
     2
176
     1
 67
     7
176
     1
 79
     5
176
     1
170
     0
176
     1
171
     0
176
     1
290
     0
176
     1
 93
       13
176
     1
 44
0.0
176
     1
173
     0
176
     1
  0
VISUALSTYLE
  5
2E
102
{ACAD_REACTORS
330
2A
102
}
330
2A
100
AcDbVisualStyle
  2
GouraudWithEdges
 70
     3
177
     2
291
     1
 71
     2
176
     1
 72
     2
176
     1
 73
     1
176
     1
 90
        2
176
     1
 40
-0.6
176
     1
 41
30.0
176
     1
 62
     5
 63
     7
421
 16777215
176
     1
 74
     1
176
     1
 91
        4
176
     1
 64
     7
176
     1
 65
   257
176
     1
 75
     1
176
     1
175
     1
176
     1
 42
1.0
176
     1
 92
        0
176
     1
 66
   257
176
     1
 43
1.0
176
     1
 76
     1
176
     1
 77
     6
176
     1
 78
     2
176
     1
 67
     7
176
     1
 79
     5
176
     1
170
     0
176
     1
171
     0
176
     1
290
     0
176
     1
 93
       13
176
     1
 44
0.0
176
     1
173
     0
176
     1
  0
VISUALSTYLE
  5
38
102
{ACAD_REACTORS
330
2A
102
}
330
2A
100
AcDbVisualStyle
  2
Linepattern
 70
    14
177
     2
291
     1
 71
     2
176
     1
 72
     2
176
     1
 73
     0
176
     1
 90
        0
176
     1
 40
-0.6
176
     1
 41
-30.0
176
     1
 62
     5
 63
     7
421
 16777215
176
     1
 74
     1
176
     1
 91
        4
176
     1
 64
     7
176
     1
 65
   257
176
     1
 75
     7
176
     1
175
     7
176
     1
 42
1.0
176
     1
 92
        8
176
     1
 66
     7
176
     1
 43
1.0
176
     1
 76
     1
176
     1
 77
     6
176
     1
 78
     2
176
     1
 67
     7
176
     1
 79
     5
176
     1
170
     0
176
     1
171
     0
176
     1
290
     0
176
     1
 93
        1
176
     1
 44
0.0
176
     1
173
     0
176
     1
  0
VISUALSTYLE
  5
33
102
{ACAD_REACTORS
330
2A
102
}
330
2A
100
AcDbVisualStyle
  2
Realistic
 70
     8
177
     2
291
     0
 71
     2
176
     1
 72
     2
176
     1
 73
     0
176
     1
 90
        0
176
     1
 40
-0.6
176
     1
 41
-30.0
176
     1
 62
     5
 63
     7
421
 16777215
176
     1
 74
     1
176
     1
 91
        0
176
     1
 64
     7
176
     1
 65
   257
176
     1
 75
     1
176
     1
175
     1
176
     1
 42
1.0
176
     1
 92
        8
176
     1
 66
     8
424
  7895160
176
     1
 43
1.0
176
     1
 76
     1
176
     1
 77
     6
176
     1
 78
     2
176
     1
 67
     7
176
     1
 79
     5
176
     1
170
     0
176
     1
171
     0
176
     1
290
     0
176
     1
 93
       13
176
     1
 44
0.0
176
     1
173
     0
176
     1
  0
VISUALSTYLE
  5
37
102
{ACAD_REACTORS
330
2A
102
}
330
2A
100
AcDbVisualStyle
  2
Thicken
 70
    13
177
     2
291
     1
 71
     2
176
     1
 72
     2
176
     1
 73
     0
176
     1
 90
        0
176
     1
 40
-0.6
176
     1
 41
-30.0
176
     1
 62
     5
 63
     7
421
 16777215
176
     1
 74
     1
176
     1
 91
        4
176
     1
 64
     7
176
     1
 65
   257
176
     1
 75
     1
176
     1
175
     1
176
     1
 42
1.0
176
     1
 92
       12
176
     1
 66
     7
176
     1
 43
1.0
176
     1
 76
     1
176
     1
 77
     6
176
     1
 78
     2
176
     1
 67
     7
176
     1
 79
     5
176
     1
170
     0
176
     1
171
     0
176
     1
290
     0
176
     1
 93
        1
176
     1
 44
0.0
176
     1
173
     0
176
     1
  0
ENDSEC
  0
EOF
