  0
SECTION
  2
HEADER
  9
$ACADVER
  1
AC1024
  9
$ACADMAINTVER
 70
     6
  9
$DWGCODEPAGE
  3
ANSI_1252
  9
$INSBASE
 10
0.0
 20
0.0
 30
0.0
  9
$EXTMIN
 10
1.000000000000000E+20
 20
1.000000000000000E+20
 30
1.000000000000000E+20
  9
$EXTMAX
 10
-1.000000000000000E+20
 20
-1.000000000000000E+20
 30
-1.000000000000000E+20
  9
$LIMMIN
 10
0.0
 20
0.0
  9
$LIMMAX
 10
12.0
 20
9.0
  9
$ORTHOMODE
 70
     0
  9
$REGENMODE
 70
     1
  9
$FILLMODE
 70
     1
  9
$QTEXTMODE
 70
     0
  9
$MIRRTEXT
 70
     1
  9
$LTSCALE
 40
1.0
  9
$ATTMODE
 70
     1
  9
$TEXTSIZE
 40
0.2
  9
$TRACEWID
 40
0.05
  9
$TEXTSTYLE
  7
Standard
  9
$CLAYER
  8
0
  9
$CELTYPE
  6
ByLayer
  9
$CECOLOR
 62
   256
  9
$CELTSCALE
 40
1.0
  9
$DISPSILH
 70
     0
  9
$DIMSCALE
 40
1.0
  9
$DIMASZ
 40
0.18
  9
$DIMEXO
 40
0.0625
  9
$DIMDLI
 40
0.38
  9
$DIMRND
 40
0.0
  9
$DIMDLE
 40
0.0
  9
$DIMEXE
 40
0.18
  9
$DIMTP
 40
0.0
  9
$DIMTM
 40
0.0
  9
$DIMTXT
 40
0.18
  9
$DIMCEN
 40
0.09
  9
$DIMTSZ
 40
0.0
  9
$DIMTOL
 70
     0
  9
$DIMLIM
 70
     0
  9
$DIMTIH
 70
     1
  9
$DIMTOH
 70
     1
  9
$DIMSE1
 70
     0
  9
$DIMSE2
 70
     0
  9
$DIMTAD
 70
     0
  9
$DIMZIN
 70
     0
  9
$DIMBLK
  1

  9
$DIMASO
 70
     1
  9
$DIMSHO
 70
     1
  9
$DIMPOST
  1

  9
$DIMAPOST
  1

  9
$DIMALT
 70
     0
  9
$DIMALTD
 70
     2
  9
$DIMALTF
 40
25.4
  9
$DIMLFAC
 40
1.0
  9
$DIMTOFL
 70
     0
  9
$DIMTVP
 40
0.0
  9
$DIMTIX
 70
     0
  9
$DIMSOXD
 70
     0
  9
$DIMSAH
 70
     0
  9
$DIMBLK1
  1

  9
$DIMBLK2
  1

  9
$DIMSTYLE
  2
Standard
  9
$DIMCLRD
 70
     0
  9
$DIMCLRE
 70
     0
  9
$DIMCLRT
 70
     0
  9
$DIMTFAC
 40
1.0
  9
$DIMGAP
 40
0.09
  9
$DIMJUST
 70
     0
  9
$DIMSD1
 70
     0
  9
$DIMSD2
 70
     0
  9
$DIMTOLJ
 70
     1
  9
$DIMTZIN
 70
     0
  9
$DIMALTZ
 70
     0
  9
$DIMALTTZ
 70
     0
  9
$DIMUPT
 70
     0
  9
$DIMDEC
 70
     4
  9
$DIMTDEC
 70
     4
  9
$DIMALTU
 70
     2
  9
$DIMALTTD
 70
     2
  9
$DIMTXSTY
  7
Standard
  9
$DIMAUNIT
 70
     0
  9
$DIMADEC
 70
     0
  9
$DIMALTRND
 40
0.0
  9
$DIMAZIN
 70
     0
  9
$DIMDSEP
 70
    46
  9
$DIMATFIT
 70
     3
  9
$DIMFRAC
 70
     0
  9
$DIMLDRBLK
  1

  9
$DIMLUNIT
 70
     2
  9
$DIMLWD
 70
    -2
  9
$DIMLWE
 70
    -2
  9
$DIMTMOVE
 70
     0
  9
$DIMFXL
 40
1.0
  9
$DIMFXLON
 70
     0
  9
$DIMJOGANG
 40
0.7853981633974483
  9
$DIMTFILL
 70
     0
  9
$DIMTFILLCLR
 70
     0
  9
$DIMARCSYM
 70
     0
  9
$DIMLTYPE
  6

  9
$DIMLTEX1
  6

  9
$DIMLTEX2
  6

  9
$DIMTXTDIRECTION
 70
     0
  9
$LUNITS
 70
     2
  9
$LUPREC
 70
     4
  9
$SKETCHINC
 40
0.1
  9
$FILLETRAD
 40
0.5
  9
$AUNITS
 70
     0
  9
$AUPREC
 70
     0
  9
$MENU
  1
.
  9
$ELEVATION
 40
0.0
  9
$PELEVATION
 40
0.0
  9
$THICKNESS
 40
0.0
  9
$LIMCHECK
 70
     0
  9
$CHAMFERA
 40
0.5
  9
$CHAMFERB
 40
0.5
  9
$CHAMFERC
 40
1.0
  9
$CHAMFERD
 40
0.0
  9
$SKPOLY
 70
     0
  9
$TDCREATE
 40
2459571.987541991
  9
$TDUCREATE
 40
2459571.737541991
  9
$TDUPDATE
 40
2459571.987542025
  9
$TDUUPDATE
 40
2459571.737542025
  9
$TDINDWG
 40
0.0000000116
  9
$TDUSRTIMER
 40
0.0000000116
  9
$USRTIMER
 70
     1
  9
$ANGBASE
 50
0.0
  9
$ANGDIR
 70
     0
  9
$PDMODE
 70
     0
  9
$PDSIZE
 40
0.0
  9
$PLINEWID
 40
0.0
  9
$SPLFRAME
 70
     0
  9
$SPLINETYPE
 70
     6
  9
$SPLINESEGS
 70
     8
  9
$HANDSEED
  5
12D
  9
$SURFTAB1
 70
     6
  9
$SURFTAB2
 70
     6
  9
$SURFTYPE
 70
     6
  9
$SURFU
 70
     6
  9
$SURFV
 70
     6
  9
$UCSBASE
  2

  9
$UCSNAME
  2

  9
$UCSORG
 10
0.0
 20
0.0
 30
0.0
  9
$UCSXDIR
 10
1.0
 20
0.0
 30
0.0
  9
$UCSYDIR
 10
0.0
 20
1.0
 30
0.0
  9
$UCSORTHOREF
  2

  9
$UCSORTHOVIEW
 70
     0
  9
$UCSORGTOP
 10
0.0
 20
0.0
 30
0.0
  9
$UCSORGBOTTOM
 10
0.0
 20
0.0
 30
0.0
  9
$UCSORGLEFT
 10
0.0
 20
0.0
 30
0.0
  9
$UCSORGRIGHT
 10
0.0
 20
0.0
 30
0.0
  9
$UCSORGFRONT
 10
0.0
 20
0.0
 30
0.0
  9
$UCSORGBACK
 10
0.0
 20
0.0
 30
0.0
  9
$PUCSBASE
  2

  9
$PUCSNAME
  2

  9
$PUCSORG
 10
0.0
 20
0.0
 30
0.0
  9
$PUCSXDIR
 10
1.0
 20
0.0
 30
0.0
  9
$PUCSYDIR
 10
0.0
 20
1.0
 30
0.0
  9
$PUCSORTHOREF
  2

  9
$PUCSORTHOVIEW
 70
     0
  9
$PUCSORGTOP
 10
0.0
 20
0.0
 30
0.0
  9
$PUCSORGBOTTOM
 10
0.0
 20
0.0
 30
0.0
  9
$PUCSORGLEFT
 10
0.0
 20
0.0
 30
0.0
  9
$PUCSORGRIGHT
 10
0.0
 20
0.0
 30
0.0
  9
$PUCSORGFRONT
 10
0.0
 20
0.0
 30
0.0
  9
$PUCSORGBACK
 10
0.0
 20
0.0
 30
0.0
  9
$USERI1
 70
     0
  9
$USERI2
 70
     0
  9
$USERI3
 70
     0
  9
$USERI4
 70
     0
  9
$USERI5
 70
     0
  9
$USERR1
 40
0.0
  9
$USERR2
 40
0.0
  9
$USERR3
 40
0.0
  9
$USERR4
 40
0.0
  9
$USERR5
 40
0.0
  9
$WORLDVIEW
 70
     1
  9
$SHADEDGE
 70
     3
  9
$SHADEDIF
 70
    70
  9
$TILEMODE
 70
     1
  9
$MAXACTVP
 70
    64
  9
$PINSBASE
 10
0.0
 20
0.0
 30
0.0
  9
$PLIMCHECK
 70
     0
  9
$PEXTMIN
 10
1.000000000000000E+20
 20
1.000000000000000E+20
 30
1.000000000000000E+20
  9
$PEXTMAX
 10
-1.000000000000000E+20
 20
-1.000000000000000E+20
 30
-1.000000000000000E+20
  9
$PLIMMIN
 10
0.0
 20
0.0
  9
$PLIMMAX
 10
12.0
 20
9.0
  9
$UNITMODE
 70
     0
  9
$VISRETAIN
 70
     1
  9
$PLINEGEN
 70
     0
  9
$PSLTSCALE
 70
     1
  9
$TREEDEPTH
 70
  3020
  9
$CMLSTYLE
  2
Standard
  9
$CMLJUST
 70
     0
  9
$CMLSCALE
 40
1.0
  9
$PROXYGRAPHICS
 70
     1
  9
$MEASUREMENT
 70
     0
  9
$CELWEIGHT
370
    -1
  9
$ENDCAPS
280
     0
  9
$JOINSTYLE
280
     0
  9
$LWDISPLAY
290
     1
  9
$INSUNITS
 70
     1
  9
$HYPERLINKBASE
  1

  9
$STYLESHEET
  1

  9
$XEDIT
290
     1
  9
$CEPSNTYPE
380
     0
  9
$PSTYLEMODE
290
     1
  9
$FINGERPRINTGUID
  2
{358B910B-09E1-4A8C-B2BD-E756C6DE820D}
  9
$VERSIONGUID
  2
{FAEB1C32-E019-11D5-929B-00C0DF256EC4}
  9
$EXTNAMES
290
     1
  9
$PSVPSCALE
 40
0.0
  9
$OLESTARTUP
290
     0
  9
$SORTENTS
280
   127
  9
$INDEXCTL
280
     0
  9
$HIDETEXT
280
     1
  9
$XCLIPFRAME
280
     2
  9
$HALOGAP
280
     0
  9
$OBSCOLOR
 70
   257
  9
$OBSLTYPE
280
     0
  9
$INTERSECTIONDISPLAY
280
     0
  9
$INTERSECTIONCOLOR
 70
   257
  9
$DIMASSOC
280
     2
  9
$PROJECTNAME
  1

  9
$CAMERADISPLAY
290
     0
  9
$LENSLENGTH
 40
50.0
  9
$CAMERAHEIGHT
 40
0.0
  9
$STEPSPERSEC
 40
2.0
  9
$STEPSIZE
 40
6.0
  9
$3DDWFPREC
 40
2.0
  9
$PSOLWIDTH
 40
0.25
  9
$PSOLHEIGHT
 40
4.0
  9
$LOFTANG1
 40
1.570796326794897
  9
$LOFTANG2
 40
1.570796326794897
  9
$LOFTMAG1
 40
0.0
  9
$LOFTMAG2
 40
0.0
  9
$LOFTPARAM
 70
     7
  9
$LOFTNORMALS
280
     1
  9
$LATITUDE
 40
37.795
  9
$LONGITUDE
 40
-122.394
  9
$NORTHDIRECTION
 40
0.0
  9
$TIMEZONE
 70
 -8000
  9
$LIGHTGLYPHDISPLAY
280
     1
  9
$TILEMODELIGHTSYNCH
280
     1
  9
$CMATERIAL
347
3C
  9
$SOLIDHIST
280
     1
  9
$SHOWHIST
280
     1
  9
$DWFFRAME
280
     2
  9
$DGNFRAME
280
     2
  9
$REALWORLDSCALE
290
     1
  9
$INTERFERECOLOR
 62
   256
  9
$CSHADOW
280
     0
  9
$SHADOWPLANELOCATION
 40
0.0
  0
ENDSEC
  0
SECTION
  2
CLASSES
  0
CLASS
  1
ACDBDICTIONARYWDFLT
  2
AcDbDictionaryWithDefault
  3
ObjectDBX Classes
 90
        0
 91
        4
280
     0
281
     0
  0
CLASS
  1
VISUALSTYLE
  2
AcDbVisualStyle
  3
ObjectDBX Classes
 90
     4095
 91
        4
280
     0
281
     0
  0
CLASS
  1
MATERIAL
  2
AcDbMaterial
  3
ObjectDBX Classes
 90
     1153
 91
        4
280
     0
281
     0
  0
CLASS
  1
SUN
  2
AcDbSun
  3
SCENEOE
 90
     1024
 91
        4
280
     0
281
     0
  0
ENDSEC
  0
SECTION
  2
TABLES
  0
TABLE
  2
VPORT
  5
8
330
0
100
AcDbSymbolTable
 70
     1
  0
VPORT
  5
29
330
8
100
AcDbSymbolTableRecord
100
AcDbViewportTableRecord
  2
*Active
 70
     0
 10
0.0
 20
0.0
 11
1.0
 21
1.0
 12
0.0
 22
0.0
 13
0.0
 23
0.0
 14
0.5
 24
0.5
 15
0.5
 25
0.5
 16
0.0
 26
0.0
 36
1.0
 17
540.0
 27
-540.0
 37
0.0
 40
1080.0
 41
1.0
 42
50.0
 43
0.0
 44
0.0
 50
0.0
 51
0.0
 71
     0
 72
   100
 73
     1
 74
     3
 75
     0
 76
     0
 77
     0
 78
     0
281
     0
 65
     1
110
0.0
120
0.0
130
0.0
111
1.0
121
0.0
131
0.0
112
0.0
122
1.0
132
0.0
 79
     0
146
0.0
 60
     3
 61
     5
292
     1
282
     1
141
0.0
142
0.0
 63
   250
361
3F
  0
ENDTAB
  0
TABLE
  2
LTYPE
  5
5
330
0
100
AcDbSymbolTable
 70
     1
  0
LTYPE
  5
14
330
5
100
AcDbSymbolTableRecord
100
AcDbLinetypeTableRecord
  2
ByBlock
 70
     0
  3

 72
    65
 73
     0
 40
0.0
  0
LTYPE
  5
15
330
5
100
AcDbSymbolTableRecord
100
AcDbLinetypeTableRecord
  2
ByLayer
 70
     0
  3

 72
    65
 73
     0
 40
0.0
  0
LTYPE
  5
16
330
5
100
AcDbSymbolTableRecord
100
AcDbLinetypeTableRecord
  2
Continuous
 70
     0
  3
Solid line
 72
    65
 73
     0
 40
0.0
  0
ENDTAB
  0
TABLE
  2
LAYER
  5
2
330
0
100
AcDbSymbolTable
 70
     2
  0
LAYER
  5
10
330
2
100
AcDbSymbolTableRecord
100
AcDbLayerTableRecord
  2
0
 70
     0
 62
     7
  6
Continuous
370
    -3
390
F
347
3E
  0
LAYER
  5
40
330
2
100
AcDbSymbolTableRecord
100
AcDbLayerTableRecord
  2
Layer 1
 70
     0
 62
     7
  6
Continuous
370
    -3
390
F
347
3E
  0
ENDTAB
  0
TABLE
  2
STYLE
  5
3
330
0
100
AcDbSymbolTable
 70
     1
  0
STYLE
  5
11
330
3
100
AcDbSymbolTableRecord
100
AcDbTextStyleTableRecord
  2
Standard
 70
     0
 40
0.0
 41
1.0
 50
0.0
 71
     0
 42
0.2
  3
txt
  4

  0
ENDTAB
  0
TABLE
  2
VIEW
  5
6
330
0
100
AcDbSymbolTable
 70
     0
  0
ENDTAB
  0
TABLE
  2
UCS
  5
7
330
0
100
AcDbSymbolTable
 70
     0
  0
ENDTAB
  0
TABLE
  2
APPID
  5
9
330
0
100
AcDbSymbolTable
 70
     1
  0
APPID
  5
12
330
9
100
AcDbSymbolTableRecord
100
AcDbRegAppTableRecord
  2
ACAD
 70
     0
  0
ENDTAB
  0
TABLE
  2
DIMSTYLE
  5
A
330
0
100
AcDbSymbolTable
 70
     1
100
AcDbDimStyleTable
  0
DIMSTYLE
105
27
330
A
100
AcDbSymbolTableRecord
100
AcDbDimStyleTableRecord
  2
Standard
 70
     0
178
     0
340
11
  0
ENDTAB
  0
TABLE
  2
BLOCK_RECORD
  5
1
330
0
100
AcDbSymbolTable
 70
     5
  0
BLOCK_RECORD
  5
1F
330
1
100
AcDbSymbolTableRecord
100
AcDbBlockTableRecord
  2
*Model_Space
340
22
 70
     0
280
     1
281
     0
  0
BLOCK_RECORD
  5
1B
330
1
100
AcDbSymbolTableRecord
100
AcDbBlockTableRecord
  2
*Paper_Space
340
1E
 70
     0
280
     1
281
     0
  0
BLOCK_RECORD
  5
23
330
1
100
AcDbSymbolTableRecord
100
AcDbBlockTableRecord
  2
*Paper_Space0
340
26
 70
     0
280
     1
281
     0
  0
BLOCK_RECORD
  5
41
330
1
100
AcDbSymbolTableRecord
100
AcDbBlockTableRecord
  2
block 2
340
0
102
{BLKREFS
331
42
102
}
 70
     0
280
     1
281
     0
  0
BLOCK_RECORD
  5
45
330
1
100
AcDbSymbolTableRecord
100
AcDbBlockTableRecord
  2
block 3
340
0
102
{BLKREFS
331
46
102
}
 70
     0
280
     1
281
     0
  0
BLOCK_RECORD
  5
AE
330
1
100
AcDbSymbolTableRecord
100
AcDbBlockTableRecord
  2
block 4
340
0
102
{BLKREFS
331
AF
102
}
 70
     0
280
     1
281
     0
  0
BLOCK_RECORD
  5
FC
330
1
100
AcDbSymbolTableRecord
100
AcDbBlockTableRecord
  2
block 5
340
0
102
{BLKREFS
331
FD
102
}
 70
     0
280
     1
281
     0
  0
ENDTAB
  0
ENDSEC
  0
SECTION
  2
BLOCKS
  0
BLOCK
  5
20
330
1F
100
AcDbEntity
  8
0
100
AcDbBlockBegin
  2
*Model_Space
 70
     0
 10
0.0
 20
0.0
 30
0.0
  3
*Model_Space
  1

  0
ENDBLK
  5
21
330
1F
100
AcDbEntity
  8
0
100
AcDbBlockEnd
  0
BLOCK
  5
1C
330
1B
100
AcDbEntity
 67
     1
  8
0
100
AcDbBlockBegin
  2
*Paper_Space
 70
     0
 10
0.0
 20
0.0
 30
0.0
  3
*Paper_Space
  1

  0
ENDBLK
  5
1D
330
1B
100
AcDbEntity
 67
     1
  8
0
100
AcDbBlockEnd
  0
BLOCK
  5
24
330
23
100
AcDbEntity
  8
0
100
AcDbBlockBegin
  2
*Paper_Space0
 70
     0
 10
0.0
 20
0.0
 30
0.0
  3
*Paper_Space0
  1

  0
ENDBLK
  5
25
330
23
100
AcDbEntity
  8
0
100
AcDbBlockEnd
  0
BLOCK
  5
43
330
41
100
AcDbEntity
  8
0
100
AcDbBlockBegin
  2
block 2
 70
     0
 10
0.0
 20
0.0
 30
0.0
  3
block 2
  1

  0
INSERT
  5
46
330
41
100
AcDbEntity
  8
Layer 1
100
AcDbBlockReference
  2
block 3
 10
0.0
 20
0.0
 30
0.0
  0
INSERT
  5
AF
330
41
100
AcDbEntity
  8
Layer 1
100
AcDbBlockReference
  2
block 4
 10
0.0
 20
0.0
 30
0.0
  0
INSERT
  5
FD
330
41
100
AcDbEntity
  8
Layer 1
100
AcDbBlockReference
  2
block 5
 10
0.0
 20
0.0
 30
0.0
  0
SPLINE
  5
125
330
41
100
AcDbEntity
  8
Layer 1
370
     0
100
AcDbSpline
210
0.0
220
0.0
230
1.0
 70
    11
 71
     3
 72
    53
 73
    49
 74
     0
 42
0.0000000001
 43
0.0000000001
 12
1.0
 22
0.0
 32
0.0
 13
1.0
 23
0.0
 33
0.0
 40
0.0
 40
0.0
 40
0.0
 40
0.0
 40
1.0
 40
1.0
 40
1.0
 40
2.0
 40
2.0
 40
2.0
 40
3.0
 40
3.0
 40
3.0
 40
4.0
 40
4.0
 40
4.0
 40
5.0
 40
5.0
 40
5.0
 40
6.0
 40
6.0
 40
6.0
 40
7.0
 40
7.0
 40
7.0
 40
8.0
 40
8.0
 40
8.0
 40
9.0
 40
9.0
 40
9.0
 40
10.0
 40
10.0
 40
10.0
 40
11.0
 40
11.0
 40
11.0
 40
12.0
 40
12.0
 40
12.0
 40
13.0
 40
13.0
 40
13.0
 40
14.0
 40
14.0
 40
14.0
 40
15.0
 40
15.0
 40
15.0
 40
16.0
 40
16.0
 40
16.0
 40
16.0
 10
197.7986074390792
 20
-753.3241549669765
 30
0.0
 10
197.7984970320567
 20
-717.5024388746278
 30
0.0
 10
198.4281955972265
 20
-681.6663698693865
 30
0.0
 10
197.6105211904624
 20
-645.8633283362324
 30
0.0
 10
196.8822291544275
 20
-613.9745154179254
 30
0.0
 10
206.5080180717359
 20
-586.1427978012835
 30
0.0
 10
227.1570018144967
 20
-562.2739667514361
 30
0.0
 10
236.2390834645348
 20
-551.7756942270407
 30
0.0
 10
240.4468528066818
 20
-540.8255257605815
 30
0.0
 10
239.7136870892373
 20
-526.7060921756629
 30
0.0
 10
238.625736292016
 20
-505.7526847276977
 30
0.0
 10
239.6512598043691
 20
-484.6970798082239
 30
0.0
 10
239.386377585568
 20
-463.6899080835274
 30
0.0
 10
239.2701663084381
 20
-454.4728932798771
 30
0.0
 10
237.9480264445992
 20
-445.2766823137054
 30
0.0
 10
237.618950428574
 20
-436.0551250497019
 30
0.0
 10
237.3127444385882
 20
-427.4756417951348
 30
0.0
 10
240.9137167864701
 20
-422.4099901745849
 30
0.0
 10
250.4761636178728
 20
-422.9318841687527
 30
0.0
 10
257.6878872213156
 20
-423.3254773168455
 30
0.0
 10
264.9384425517273
 20
-422.9859422070167
 30
0.0
 10
272.1715535726244
 20
-423.0136819713562
 30
0.0
 10
284.7717392141321
 20
-423.062004759131
 30
0.0
 10
287.7585330696838
 20
-425.8647520801551
 30
0.0
 10
287.5043445596066
 20
-438.9908753730097
 30
0.0
 10
287.0661233158771
 20
-461.621298456068
 30
0.0
 10
287.0804762287653
 20
-484.3129264605304
 30
0.0
 10
285.2917878337785
 20
-506.8508481744793
 30
0.0
 10
283.2766073188614
 20
-532.2426258029855
 30
0.0
 10
287.8952169632239
 20
-553.9725416108467
 30
0.0
 10
305.745351147164
 20
-573.9919845127533
 30
0.0
 10
321.9147434590068
 20
-592.1264325514094
 30
0.0
 10
327.1087629584554
 20
-615.8499364151139
 30
0.0
 10
327.0588589843983
 20
-640.4206091329488
 30
0.0
 10
326.8993050648196
 20
-718.9522092561838
 30
0.0
 10
327.0120779518311
 20
-797.4842825523683
 30
0.0
 10
326.9908798035594
 20
-876.0161981242345
 30
0.0
 10
326.985611811353
 20
-895.5352764013242
 30
0.0
 10
319.7879572170305
 20
-902.7956737291461
 30
0.0
 10
300.2332016993232
 20
-902.8638421791693
 30
0.0
 10
275.0894219014308
 20
-902.9514738099679
 30
0.0
 10
249.9449481165466
 20
-902.9407801012403
 30
0.0
 10
224.8010736840633
 20
-902.8684161843757
 30
0.0
 10
204.6034023033817
 20
-902.810279000947
 30
0.0
 10
197.8290009150569
 20
-895.8632798919807
 30
0.0
 10
197.8098531829128
 20
-875.2556830101348
 30
0.0
 10
197.772062436442
 20
-834.6118613589933
 30
0.0
 10
197.7987020736664
 20
-793.9680081629886
 30
0.0
 10
197.7986074390792
 20
-753.3241549669765
 30
0.0
  0
SPLINE
  5
126
330
41
100
AcDbEntity
  8
Layer 1
370
     0
100
AcDbSpline
210
0.0
220
0.0
230
1.0
 70
    11
 71
     3
 72
    29
 73
    25
 74
     0
 42
0.0000000001
 43
0.0000000001
 12
1.0
 22
0.0
 32
0.0
 13
1.0
 23
0.0
 33
0.0
 40
0.0
 40
0.0
 40
0.0
 40
0.0
 40
1.0
 40
1.0
 40
1.0
 40
2.0
 40
2.0
 40
2.0
 40
3.0
 40
3.0
 40
3.0
 40
4.0
 40
4.0
 40
4.0
 40
5.0
 40
5.0
 40
5.0
 40
6.0
 40
6.0
 40
6.0
 40
7.0
 40
7.0
 40
7.0
 40
8.0
 40
8.0
 40
8.0
 40
8.0
 10
238.7376259228449
 20
-566.7318710886975
 30
0.0
 10
219.4951645537813
 20
-589.2797767519514
 30
0.0
 10
209.2907639777441
 20
-614.9322647910631
 30
0.0
 10
209.1528971518192
 20
-644.2632782249639
 30
0.0
 10
208.9214367158947
 20
-693.5078699988735
 30
0.0
 10
209.0888768513478
 20
-742.754322919729
 30
0.0
 10
209.0888137616221
 20
-791.9999872189983
 30
0.0
 10
209.0887664443253
 20
-820.2387597542438
 30
0.0
 10
209.1129928994924
 20
-848.4775638343544
 30
0.0
 10
209.0732779163454
 20
-876.7162732798715
 30
0.0
 10
209.0631204703022
 20
-883.9428229691639
 30
0.0
 10
209.996548753672
 20
-890.3895836327501
 30
0.0
 10
220.1028290317972
 20
-892.0348690782739
 30
0.0
 10
220.3003787394582
 20
-887.7984570000717
 30
0.0
 10
220.6164898165853
 20
-884.1656243400539
 30
0.0
 10
220.6176569765339
 20
-880.5326655005829
 30
0.0
 10
220.6425458738358
 20
-803.3926039408943
 30
0.0
 10
220.5554189608529
 20
-726.2523846568802
 30
0.0
 10
220.7228275514399
 20
-649.1126858631142
 30
0.0
 10
220.7443726932142
 20
-639.1768424824786
 30
0.0
 10
220.7340417504165
 20
-628.9251246111871
 30
0.0
 10
223.046406424357
 20
-619.3787498877409
 30
0.0
 10
227.282187605294
 20
-601.8916970826776
 30
0.0
 10
233.2404445127368
 20
-584.8218881871144
 30
0.0
 10
238.7376259228449
 20
-566.7318710886975
 30
0.0
  0
HATCH
  5
127
330
41
100
AcDbEntity
  8
Layer 1
 62
    30
420
 15690290
100
AcDbHatch
 10
0.0
 20
0.0
 30
0.0
210
0.0
220
0.0
230
1.0
  2
SOLID
 70
     1
 71
     0
 91
        2
 92
        1
 93
        1
 72
     4
 94
        3
 73
     0
 74
     1
 95
       53
 96
       49
 40
0.0
 40
0.0
 40
0.0
 40
0.0
 40
1.0
 40
1.0
 40
1.0
 40
2.0
 40
2.0
 40
2.0
 40
3.0
 40
3.0
 40
3.0
 40
4.0
 40
4.0
 40
4.0
 40
5.0
 40
5.0
 40
5.0
 40
6.0
 40
6.0
 40
6.0
 40
7.0
 40
7.0
 40
7.0
 40
8.0
 40
8.0
 40
8.0
 40
9.0
 40
9.0
 40
9.0
 40
10.0
 40
10.0
 40
10.0
 40
11.0
 40
11.0
 40
11.0
 40
12.0
 40
12.0
 40
12.0
 40
13.0
 40
13.0
 40
13.0
 40
14.0
 40
14.0
 40
14.0
 40
15.0
 40
15.0
 40
15.0
 40
16.0
 40
16.0
 40
16.0
 40
16.0
 10
197.7986074390792
 20
-753.3241549669765
 10
197.7984970320567
 20
-717.5024388746278
 10
198.4281955972265
 20
-681.6663698693865
 10
197.6105211904624
 20
-645.8633283362324
 10
196.8822291544275
 20
-613.9745154179254
 10
206.5080180717359
 20
-586.1427978012835
 10
227.1570018144967
 20
-562.2739667514361
 10
236.2390834645348
 20
-551.7756942270407
 10
240.4468528066818
 20
-540.8255257605815
 10
239.7136870892373
 20
-526.7060921756629
 10
238.625736292016
 20
-505.7526847276977
 10
239.6512598043691
 20
-484.6970798082239
 10
239.386377585568
 20
-463.6899080835274
 10
239.2701663084381
 20
-454.4728932798771
 10
237.9480264445992
 20
-445.2766823137054
 10
237.618950428574
 20
-436.0551250497019
 10
237.3127444385882
 20
-427.4756417951348
 10
240.9137167864701
 20
-422.4099901745849
 10
250.4761636178728
 20
-422.9318841687527
 10
257.6878872213156
 20
-423.3254773168455
 10
264.9384425517273
 20
-422.9859422070167
 10
272.1715535726244
 20
-423.0136819713562
 10
284.7717392141321
 20
-423.062004759131
 10
287.7585330696838
 20
-425.8647520801551
 10
287.5043445596066
 20
-438.9908753730097
 10
287.0661233158771
 20
-461.621298456068
 10
287.0804762287653
 20
-484.3129264605304
 10
285.2917878337785
 20
-506.8508481744793
 10
283.2766073188614
 20
-532.2426258029855
 10
287.8952169632239
 20
-553.9725416108467
 10
305.745351147164
 20
-573.9919845127533
 10
321.9147434590068
 20
-592.1264325514094
 10
327.1087629584554
 20
-615.8499364151139
 10
327.0588589843983
 20
-640.4206091329488
 10
326.8993050648196
 20
-718.9522092561838
 10
327.0120779518311
 20
-797.4842825523683
 10
326.9908798035594
 20
-876.0161981242345
 10
326.985611811353
 20
-895.5352764013242
 10
319.7879572170305
 20
-902.7956737291461
 10
300.2332016993232
 20
-902.8638421791693
 10
275.0894219014308
 20
-902.9514738099679
 10
249.9449481165466
 20
-902.9407801012403
 10
224.8010736840633
 20
-902.8684161843757
 10
204.6034023033817
 20
-902.810279000947
 10
197.8290009150569
 20
-895.8632798919807
 10
197.8098531829128
 20
-875.2556830101348
 10
197.772062436442
 20
-834.6118613589933
 10
197.7987020736664
 20
-793.9680081629886
 10
197.7986074390792
 20
-753.3241549669765
 97
        0
 97
        0
 92
        1
 93
        1
 72
     4
 94
        3
 73
     0
 74
     1
 95
       29
 96
       25
 40
0.0
 40
0.0
 40
0.0
 40
0.0
 40
1.0
 40
1.0
 40
1.0
 40
2.0
 40
2.0
 40
2.0
 40
3.0
 40
3.0
 40
3.0
 40
4.0
 40
4.0
 40
4.0
 40
5.0
 40
5.0
 40
5.0
 40
6.0
 40
6.0
 40
6.0
 40
7.0
 40
7.0
 40
7.0
 40
8.0
 40
8.0
 40
8.0
 40
8.0
 10
238.7376259228449
 20
-566.7318710886975
 10
219.4951645537813
 20
-589.2797767519514
 10
209.2907639777441
 20
-614.9322647910631
 10
209.1528971518192
 20
-644.2632782249639
 10
208.9214367158947
 20
-693.5078699988735
 10
209.0888768513478
 20
-742.754322919729
 10
209.0888137616221
 20
-791.9999872189983
 10
209.0887664443253
 20
-820.2387597542438
 10
209.1129928994924
 20
-848.4775638343544
 10
209.0732779163454
 20
-876.7162732798715
 10
209.0631204703022
 20
-883.9428229691639
 10
209.996548753672
 20
-890.3895836327501
 10
220.1028290317972
 20
-892.0348690782739
 10
220.3003787394582
 20
-887.7984570000717
 10
220.6164898165853
 20
-884.1656243400539
 10
220.6176569765339
 20
-880.5326655005829
 10
220.6425458738358
 20
-803.3926039408943
 10
220.5554189608529
 20
-726.2523846568802
 10
220.7228275514399
 20
-649.1126858631142
 10
220.7443726932142
 20
-639.1768424824786
 10
220.7340417504165
 20
-628.9251246111871
 10
223.046406424357
 20
-619.3787498877409
 10
227.282187605294
 20
-601.8916970826776
 10
233.2404445127368
 20
-584.8218881871144
 10
238.7376259228449
 20
-566.7318710886975
 97
        0
 97
        0
 75
     2
 76
     1
 98
        0
  0
SPLINE
  5
128
330
41
100
AcDbEntity
  8
Layer 1
370
     0
100
AcDbSpline
210
0.0
220
0.0
230
1.0
 70
    11
 71
     3
 72
    59
 73
    55
 74
     0
 42
0.0000000001
 43
0.0000000001
 12
1.0
 22
0.0
 32
0.0
 13
1.0
 23
0.0
 33
0.0
 40
0.0
 40
0.0
 40
0.0
 40
0.0
 40
1.0
 40
1.0
 40
1.0
 40
2.0
 40
2.0
 40
2.0
 40
3.0
 40
3.0
 40
3.0
 40
4.0
 40
4.0
 40
4.0
 40
5.0
 40
5.0
 40
5.0
 40
6.0
 40
6.0
 40
6.0
 40
7.0
 40
7.0
 40
7.0
 40
8.0
 40
8.0
 40
8.0
 40
9.0
 40
9.0
 40
9.0
 40
10.0
 40
10.0
 40
10.0
 40
11.0
 40
11.0
 40
11.0
 40
12.0
 40
12.0
 40
12.0
 40
13.0
 40
13.0
 40
13.0
 40
14.0
 40
14.0
 40
14.0
 40
15.0
 40
15.0
 40
15.0
 40
16.0
 40
16.0
 40
16.0
 40
17.0
 40
17.0
 40
17.0
 40
18.0
 40
18.0
 40
18.0
 40
18.0
 10
444.4435182263442
 20
-633.8768673724935
 30
0.0
 10
417.163016173211
 20
-633.8768673724935
 30
0.0
 10
389.8825204352579
 20
-633.8768673724935
 30
0.0
 10
362.6020246973003
 20
-633.8768673724935
 30
0.0
 10
362.5540261973947
 20
-633.1897256347111
 30
0.0
 10
362.5060308550746
 20
-632.5025586362244
 30
0.0
 10
362.4580323551691
 20
-631.8154168984402
 30
0.0
 10
370.7452049733938
 20
-629.3143796101685
 30
0.0
 10
379.0456331473497
 20
-626.8562350014963
 30
0.0
 10
387.3158116252916
 20
-624.3002051551939
 30
0.0
 10
395.5652321176785
 20
-621.7506420497575
 30
0.0
 10
399.9184791330199
 20
-616.9825826580654
 30
0.0
 10
399.5288958872734
 20
-607.4498740700474
 30
0.0
 10
398.8540055921358
 20
-590.9360913773871
 30
0.0
 10
399.3451053020726
 20
-574.3747680351116
 30
0.0
 10
399.3404131258403
 20
-557.8334006509776
 30
0.0
 10
399.3371418643519
 20
-546.2975685601941
 30
0.0
 10
396.8992184512226
 20
-543.20959875675
 30
0.0
 10
385.9431764108331
 20
-538.5186855626571
 30
0.0
 10
364.999224693991
 20
-529.5513621071623
 30
0.0
 10
354.5426878636154
 20
-512.8959931546615
 30
0.0
 10
353.7841372661924
 20
-490.6781913736477
 30
0.0
 10
353.0443459009202
 20
-469.0096583944323
 30
0.0
 10
359.4488128041876
 20
-448.7805562528038
 30
0.0
 10
370.0162157177347
 20
-429.9841277097676
 30
0.0
 10
371.2930244421495
 20
-427.7130512629683
 30
0.0
 10
375.0042548142583
 20
-425.5633398804657
 30
0.0
 10
377.636117301422
 20
-425.5033457025738
 30
0.0
 10
394.9955147739911
 20
-425.1075609533636
 30
0.0
 10
412.3727399901618
 20
-425.106108462749
 30
0.0
 10
429.7321058868456
 20
-425.5031309865608
 30
0.0
 10
432.4135993470773
 20
-425.5644639819011
 30
0.0
 10
436.2624974119371
 20
-427.6715352918573
 30
0.0
 10
437.4894478169263
 20
-429.9525013052453
 30
0.0
 10
448.6251124259488
 20
-450.6540670706054
 30
0.0
 10
455.870287216886
 20
-472.539589518522
 30
0.0
 10
453.0593642118138
 20
-496.4088099859264
 30
0.0
 10
450.5947149712201
 20
-517.3377094792886
 30
0.0
 10
439.2348615921501
 20
-531.9199827720558
 30
0.0
 10
419.2302450338666
 20
-539.3504195843452
 30
0.0
 10
412.1950056593414
 20
-541.9635638880009
 30
0.0
 10
408.246277282451
 20
-546.6977486723117
 30
0.0
 10
408.271519043411
 20
-554.4800166045134
 30
0.0
 10
408.3314248088354
 20
-572.9510493569705
 30
0.0
 10
408.5453135258122
 20
-591.4276142041472
 30
0.0
 10
408.1649756986371
 20
-609.8909929625461
 30
0.0
 10
408.0134493507921
 20
-617.2467338657698
 30
0.0
 10
411.3730664765817
 20
-621.2334290844901
 30
0.0
 10
417.7433366984451
 20
-623.3439863719468
 30
0.0
 10
426.5726419688808
 20
-626.2692772256341
 30
0.0
 10
435.4760053155514
 20
-628.9710613483439
 30
0.0
 10
444.3476664755899
 20
-631.7685330272125
 30
0.0
 10
444.3796212692923
 20
-632.471311142308
 30
0.0
 10
444.4115634326417
 20
-633.1740892573998
 30
0.0
 10
444.4435182263442
 20
-633.8768673724935
 30
0.0
  0
SPLINE
  5
129
330
41
100
AcDbEntity
  8
Layer 1
370
     0
100
AcDbSpline
210
0.0
220
0.0
230
1.0
 70
    11
 71
     3
 72
    20
 73
    16
 74
     0
 42
0.0000000001
 43
0.0000000001
 12
1.0
 22
0.0
 32
0.0
 13
1.0
 23
0.0
 33
0.0
 40
0.0
 40
0.0
 40
0.0
 40
0.0
 40
1.0
 40
1.0
 40
1.0
 40
2.0
 40
2.0
 40
2.0
 40
3.0
 40
3.0
 40
3.0
 40
4.0
 40
4.0
 40
4.0
 40
5.0
 40
5.0
 40
5.0
 40
5.0
 10
377.9598206246583
 20
-437.1467631422665
 30
0.0
 10
376.9337244120998
 20
-436.9403452792367
 30
0.0
 10
375.9076250419521
 20
-436.7339400465535
 30
0.0
 10
374.8815288293936
 20
-436.5275221835209
 30
0.0
 10
371.2463331838044
 20
-448.7601456019611
 30
0.0
 10
365.9130181206992
 20
-460.7964933310332
 30
0.0
 10
364.4699686869117
 20
-473.2824563748018
 30
0.0
 10
363.1198218163954
 20
-484.9645226954353
 30
0.0
 10
364.718966628312
 20
-497.3761940014419
 30
0.0
 10
367.2204838700181
 20
-508.9929108743927
 30
0.0
 10
369.2581261282057
 20
-518.4554452197899
 30
0.0
 10
377.0142429140196
 20
-524.5995815972174
 30
0.0
 10
382.6974724409265
 20
-525.803708953883
 30
0.0
 10
367.8684873006914
 20
-497.2127824912013
 30
0.0
 10
369.9689024144845
 20
-467.3666262625948
 30
0.0
 10
377.9598206246583
 20
-437.1467631422665
 30
0.0
  0
HATCH
  5
12A
330
41
100
AcDbEntity
  8
Layer 1
 62
    30
420
 15690290
100
AcDbHatch
 10
0.0
 20
0.0
 30
0.0
210
0.0
220
0.0
230
1.0
  2
SOLID
 70
     1
 71
     0
 91
        2
 92
        1
 93
        1
 72
     4
 94
        3
 73
     0
 74
     1
 95
       59
 96
       55
 40
0.0
 40
0.0
 40
0.0
 40
0.0
 40
1.0
 40
1.0
 40
1.0
 40
2.0
 40
2.0
 40
2.0
 40
3.0
 40
3.0
 40
3.0
 40
4.0
 40
4.0
 40
4.0
 40
5.0
 40
5.0
 40
5.0
 40
6.0
 40
6.0
 40
6.0
 40
7.0
 40
7.0
 40
7.0
 40
8.0
 40
8.0
 40
8.0
 40
9.0
 40
9.0
 40
9.0
 40
10.0
 40
10.0
 40
10.0
 40
11.0
 40
11.0
 40
11.0
 40
12.0
 40
12.0
 40
12.0
 40
13.0
 40
13.0
 40
13.0
 40
14.0
 40
14.0
 40
14.0
 40
15.0
 40
15.0
 40
15.0
 40
16.0
 40
16.0
 40
16.0
 40
17.0
 40
17.0
 40
17.0
 40
18.0
 40
18.0
 40
18.0
 40
18.0
 10
444.4435182263442
 20
-633.8768673724935
 10
417.163016173211
 20
-633.8768673724935
 10
389.8825204352579
 20
-633.8768673724935
 10
362.6020246973003
 20
-633.8768673724935
 10
362.5540261973947
 20
-633.1897256347111
 10
362.5060308550746
 20
-632.5025586362244
 10
362.4580323551691
 20
-631.8154168984402
 10
370.7452049733938
 20
-629.3143796101685
 10
379.0456331473497
 20
-626.8562350014963
 10
387.3158116252916
 20
-624.3002051551939
 10
395.5652321176785
 20
-621.7506420497575
 10
399.9184791330199
 20
-616.9825826580654
 10
399.5288958872734
 20
-607.4498740700474
 10
398.8540055921358
 20
-590.9360913773871
 10
399.3451053020726
 20
-574.3747680351116
 10
399.3404131258403
 20
-557.8334006509776
 10
399.3371418643519
 20
-546.2975685601941
 10
396.8992184512226
 20
-543.20959875675
 10
385.9431764108331
 20
-538.5186855626571
 10
364.999224693991
 20
-529.5513621071623
 10
354.5426878636154
 20
-512.8959931546615
 10
353.7841372661924
 20
-490.6781913736477
 10
353.0443459009202
 20
-469.0096583944323
 10
359.4488128041876
 20
-448.7805562528038
 10
370.0162157177347
 20
-429.9841277097676
 10
371.2930244421495
 20
-427.7130512629683
 10
375.0042548142583
 20
-425.5633398804657
 10
377.636117301422
 20
-425.5033457025738
 10
394.9955147739911
 20
-425.1075609533636
 10
412.3727399901618
 20
-425.106108462749
 10
429.7321058868456
 20
-425.5031309865608
 10
432.4135993470773
 20
-425.5644639819011
 10
436.2624974119371
 20
-427.6715352918573
 10
437.4894478169263
 20
-429.9525013052453
 10
448.6251124259488
 20
-450.6540670706054
 10
455.870287216886
 20
-472.539589518522
 10
453.0593642118138
 20
-496.4088099859264
 10
450.5947149712201
 20
-517.3377094792886
 10
439.2348615921501
 20
-531.9199827720558
 10
419.2302450338666
 20
-539.3504195843452
 10
412.1950056593414
 20
-541.9635638880009
 10
408.246277282451
 20
-546.6977486723117
 10
408.271519043411
 20
-554.4800166045134
 10
408.3314248088354
 20
-572.9510493569705
 10
408.5453135258122
 20
-591.4276142041472
 10
408.1649756986371
 20
-609.8909929625461
 10
408.0134493507921
 20
-617.2467338657698
 10
411.3730664765817
 20
-621.2334290844901
 10
417.7433366984451
 20
-623.3439863719468
 10
426.5726419688808
 20
-626.2692772256341
 10
435.4760053155514
 20
-628.9710613483439
 10
444.3476664755899
 20
-631.7685330272125
 10
444.3796212692923
 20
-632.471311142308
 10
444.4115634326417
 20
-633.1740892573998
 10
444.4435182263442
 20
-633.8768673724935
 97
        0
 97
        0
 92
        1
 93
        1
 72
     4
 94
        3
 73
     0
 74
     1
 95
       20
 96
       16
 40
0.0
 40
0.0
 40
0.0
 40
0.0
 40
1.0
 40
1.0
 40
1.0
 40
2.0
 40
2.0
 40
2.0
 40
3.0
 40
3.0
 40
3.0
 40
4.0
 40
4.0
 40
4.0
 40
5.0
 40
5.0
 40
5.0
 40
5.0
 10
377.9598206246583
 20
-437.1467631422665
 10
376.9337244120998
 20
-436.9403452792367
 10
375.9076250419521
 20
-436.7339400465535
 10
374.8815288293936
 20
-436.5275221835209
 10
371.2463331838044
 20
-448.7601456019611
 10
365.9130181206992
 20
-460.7964933310332
 10
364.4699686869117
 20
-473.2824563748018
 10
363.1198218163954
 20
-484.9645226954353
 10
364.718966628312
 20
-497.3761940014419
 10
367.2204838700181
 20
-508.9929108743927
 10
369.2581261282057
 20
-518.4554452197899
 10
377.0142429140196
 20
-524.5995815972174
 10
382.6974724409265
 20
-525.803708953883
 10
367.8684873006914
 20
-497.2127824912013
 10
369.9689024144845
 20
-467.3666262625948
 10
377.9598206246583
 20
-437.1467631422665
 97
        0
 97
        0
 75
     2
 76
     1
 98
        0
  0
ENDBLK
  5
44
330
41
100
AcDbEntity
  8
0
100
AcDbBlockEnd
  0
BLOCK
  5
47
330
45
100
AcDbEntity
  8
0
100
AcDbBlockBegin
  2
block 3
 70
     0
 10
0.0
 20
0.0
 30
0.0
  3
block 3
  1

  0
POLYLINE
  5
49
330
45
100
AcDbEntity
  8
Layer 1
370
     0
100
AcDb2dPolyline
 66
     1
 10
0.0
 20
0.0
 30
0.0
  0
VERTEX
  5
4A
330
49
100
AcDbEntity
  8
Layer 1
370
     0
100
AcDbVertex
100
AcDb2dVertex
 10
229.9928752623355
 20
-199.1636016503326
 30
0.0
  0
VERTEX
  5
4B
330
49
100
AcDbEntity
  8
Layer 1
370
     0
100
AcDbVertex
100
AcDb2dVertex
 10
229.9928752623355
 20
-383.2532894404876
 30
0.0
  0
VERTEX
  5
4C
330
49
100
AcDbEntity
  8
Layer 1
370
     0
100
AcDbVertex
100
AcDb2dVertex
 10
207.9017933191381
 20
-383.2532894404876
 30
0.0
  0
VERTEX
  5
4D
330
49
100
AcDbEntity
  8
Layer 1
370
     0
100
AcDbVertex
100
AcDb2dVertex
 10
207.9017933191381
 20
-199.1636016503326
 30
0.0
  0
VERTEX
  5
4E
330
49
100
AcDbEntity
  8
Layer 1
370
     0
100
AcDbVertex
100
AcDb2dVertex
 10
182.12952981953
 20
-199.1636016503326
 30
0.0
  0
VERTEX
  5
4F
330
49
100
AcDbEntity
  8
Layer 1
370
     0
100
AcDbVertex
100
AcDb2dVertex
 10
182.12952981953
 20
-177.0738505753734
 30
0.0
  0
VERTEX
  5
50
330
49
100
AcDbEntity
  8
Layer 1
370
     0
100
AcDbVertex
100
AcDb2dVertex
 10
255.7651387619444
 20
-177.0738505753734
 30
0.0
  0
VERTEX
  5
51
330
49
100
AcDbEntity
  8
Layer 1
370
     0
100
AcDbVertex
100
AcDb2dVertex
 10
255.7651387619444
 20
-199.1636016503326
 30
0.0
  0
VERTEX
  5
52
330
49
100
AcDbEntity
  8
Layer 1
370
     0
100
AcDbVertex
100
AcDb2dVertex
 10
229.9928752623355
 20
-199.1636016503326
 30
0.0
  0
SEQEND
  5
53
330
49
100
AcDbEntity
  8
Layer 1
370
     0
  0
HATCH
  5
54
330
45
100
AcDbEntity
  8
Layer 1
 62
    30
420
 15690290
100
AcDbHatch
 10
0.0
 20
0.0
 30
0.0
210
0.0
220
0.0
230
1.0
  2
SOLID
 70
     1
 71
     0
 91
        1
 92
        1
 93
        8
 72
     1
 10
229.9928752623355
 20
-199.1636016503326
 11
229.9928752623355
 21
-383.2532894404876
 72
     1
 10
229.9928752623355
 20
-383.2532894404876
 11
207.9017933191381
 21
-383.2532894404876
 72
     1
 10
207.9017933191381
 20
-383.2532894404876
 11
207.9017933191381
 21
-199.1636016503326
 72
     1
 10
207.9017933191381
 20
-199.1636016503326
 11
182.12952981953
 21
-199.1636016503326
 72
     1
 10
182.12952981953
 20
-199.1636016503326
 11
182.12952981953
 21
-177.0738505753734
 72
     1
 10
182.12952981953
 20
-177.0738505753734
 11
255.7651387619444
 21
-177.0738505753734
 72
     1
 10
255.7651387619444
 20
-177.0738505753734
 11
255.7651387619444
 21
-199.1636016503326
 72
     1
 10
255.7651387619444
 20
-199.1636016503326
 11
229.9928752623355
 21
-199.1636016503326
 97
        0
 75
     2
 76
     1
 98
        0
  0
POLYLINE
  5
55
330
45
100
AcDbEntity
  8
Layer 1
370
     0
100
AcDb2dPolyline
 66
     1
 10
0.0
 20
0.0
 30
0.0
  0
VERTEX
  5
56
330
55
100
AcDbEntity
  8
Layer 1
370
     0
100
AcDbVertex
100
AcDb2dVertex
 10
292.5836086672716
 20
-287.5265985548776
 30
0.0
  0
VERTEX
  5
57
330
55
100
AcDbEntity
  8
Layer 1
370
     0
100
AcDbVertex
100
AcDb2dVertex
 10
292.5836086672716
 20
-383.2532894404876
 30
0.0
  0
VERTEX
  5
58
330
55
100
AcDbEntity
  8
Layer 1
370
     0
100
AcDbVertex
100
AcDb2dVertex
 10
270.492526724076
 20
-383.2532894404876
 30
0.0
  0
VERTEX
  5
59
330
55
100
AcDbEntity
  8
Layer 1
370
     0
100
AcDbVertex
100
AcDb2dVertex
 10
270.492526724076
 20
-177.0738505753734
 30
0.0
  0
VERTEX
  5
5A
330
55
100
AcDbEntity
  8
Layer 1
370
     0
100
AcDbVertex
100
AcDb2dVertex
 10
292.5836086672716
 20
-177.0738505753734
 30
0.0
  0
VERTEX
  5
5B
330
55
100
AcDbEntity
  8
Layer 1
370
     0
100
AcDbVertex
100
AcDb2dVertex
 10
292.5836086672716
 20
-265.4368474799257
 30
0.0
  0
VERTEX
  5
5C
330
55
100
AcDbEntity
  8
Layer 1
370
     0
100
AcDbVertex
100
AcDb2dVertex
 10
322.037053723293
 20
-265.4368474799257
 30
0.0
  0
VERTEX
  5
5D
330
55
100
AcDbEntity
  8
Layer 1
370
     0
100
AcDbVertex
100
AcDb2dVertex
 10
322.037053723293
 20
-177.0738505753734
 30
0.0
  0
VERTEX
  5
5E
330
55
100
AcDbEntity
  8
Layer 1
370
     0
100
AcDbVertex
100
AcDb2dVertex
 10
344.1281356664895
 20
-177.0738505753734
 30
0.0
  0
VERTEX
  5
5F
330
55
100
AcDbEntity
  8
Layer 1
370
     0
100
AcDbVertex
100
AcDb2dVertex
 10
344.1281356664895
 20
-383.2532894404876
 30
0.0
  0
VERTEX
  5
60
330
55
100
AcDbEntity
  8
Layer 1
370
     0
100
AcDbVertex
100
AcDb2dVertex
 10
322.037053723293
 20
-383.2532894404876
 30
0.0
  0
VERTEX
  5
61
330
55
100
AcDbEntity
  8
Layer 1
370
     0
100
AcDbVertex
100
AcDb2dVertex
 10
322.037053723293
 20
-287.5265985548776
 30
0.0
  0
VERTEX
  5
62
330
55
100
AcDbEntity
  8
Layer 1
370
     0
100
AcDbVertex
100
AcDb2dVertex
 10
292.5836086672716
 20
-287.5265985548776
 30
0.0
  0
SEQEND
  5
63
330
55
100
AcDbEntity
  8
Layer 1
370
     0
  0
HATCH
  5
64
330
45
100
AcDbEntity
  8
Layer 1
 62
    30
420
 15690290
100
AcDbHatch
 10
0.0
 20
0.0
 30
0.0
210
0.0
220
0.0
230
1.0
  2
SOLID
 70
     1
 71
     0
 91
        1
 92
        1
 93
       12
 72
     1
 10
292.5836086672716
 20
-287.5265985548776
 11
292.5836086672716
 21
-383.2532894404876
 72
     1
 10
292.5836086672716
 20
-383.2532894404876
 11
270.492526724076
 21
-383.2532894404876
 72
     1
 10
270.492526724076
 20
-383.2532894404876
 11
270.492526724076
 21
-177.0738505753734
 72
     1
 10
270.492526724076
 20
-177.0738505753734
 11
292.5836086672716
 21
-177.0738505753734
 72
     1
 10
292.5836086672716
 20
-177.0738505753734
 11
292.5836086672716
 21
-265.4368474799257
 72
     1
 10
292.5836086672716
 20
-265.4368474799257
 11
322.037053723293
 21
-265.4368474799257
 72
     1
 10
322.037053723293
 20
-265.4368474799257
 11
322.037053723293
 21
-177.0738505753734
 72
     1
 10
322.037053723293
 20
-177.0738505753734
 11
344.1281356664895
 21
-177.0738505753734
 72
     1
 10
344.1281356664895
 20
-177.0738505753734
 11
344.1281356664895
 21
-383.2532894404876
 72
     1
 10
344.1281356664895
 20
-383.2532894404876
 11
322.037053723293
 21
-383.2532894404876
 72
     1
 10
322.037053723293
 20
-383.2532894404876
 11
322.037053723293
 21
-287.5265985548776
 72
     1
 10
322.037053723293
 20
-287.5265985548776
 11
292.5836086672716
 21
-287.5265985548776
 97
        0
 75
     2
 76
     1
 98
        0
  0
POLYLINE
  5
65
330
45
100
AcDbEntity
  8
Layer 1
370
     0
100
AcDb2dPolyline
 66
     1
 10
0.0
 20
0.0
 30
0.0
  0
VERTEX
  5
66
330
65
100
AcDbEntity
  8
Layer 1
370
     0
100
AcDbVertex
100
AcDb2dVertex
 10
415.8499560774071
 20
-324.3450684602067
 30
0.0
  0
VERTEX
  5
67
330
65
100
AcDbEntity
  8
Layer 1
370
     0
100
AcDbVertex
100
AcDb2dVertex
 10
384.3336652468242
 20
-324.3450684602067
 30
0.0
  0
VERTEX
  5
68
330
65
100
AcDbEntity
  8
Layer 1
370
     0
100
AcDbVertex
100
AcDb2dVertex
 10
373.5829115907527
 20
-383.2532894404876
 30
0.0
  0
VERTEX
  5
69
330
65
100
AcDbEntity
  8
Layer 1
370
     0
100
AcDbVertex
100
AcDb2dVertex
 10
351.4918296475562
 20
-383.2532894404876
 30
0.0
  0
VERTEX
  5
6A
330
65
100
AcDbEntity
  8
Layer 1
370
     0
100
AcDbVertex
100
AcDb2dVertex
 10
389.0462696905179
 20
-177.0738505753734
 30
0.0
  0
VERTEX
  5
6B
330
65
100
AcDbEntity
  8
Layer 1
370
     0
100
AcDbVertex
100
AcDb2dVertex
 10
411.1373516337144
 20
-177.0738505753734
 30
0.0
  0
VERTEX
  5
6C
330
65
100
AcDbEntity
  8
Layer 1
370
     0
100
AcDbVertex
100
AcDb2dVertex
 10
448.690460808436
 20
-383.2532894404876
 30
0.0
  0
VERTEX
  5
6D
330
65
100
AcDbEntity
  8
Layer 1
370
     0
100
AcDbVertex
100
AcDb2dVertex
 10
426.6007097334787
 20
-383.2532894404876
 30
0.0
  0
VERTEX
  5
6E
330
65
100
AcDbEntity
  8
Layer 1
370
     0
100
AcDbVertex
100
AcDb2dVertex
 10
415.8499560774071
 20
-324.3450684602067
 30
0.0
  0
SEQEND
  5
6F
330
65
100
AcDbEntity
  8
Layer 1
370
     0
  0
POLYLINE
  5
70
330
45
100
AcDbEntity
  8
Layer 1
370
     0
100
AcDb2dPolyline
 66
     1
 10
0.0
 20
0.0
 30
0.0
  0
VERTEX
  5
71
330
70
100
AcDbEntity
  8
Layer 1
370
     0
100
AcDbVertex
100
AcDb2dVertex
 10
388.3102995528834
 20
-302.2539865170102
 30
0.0
  0
VERTEX
  5
72
330
70
100
AcDbEntity
  8
Layer 1
370
     0
100
AcDbVertex
100
AcDb2dVertex
 10
411.8733217713498
 20
-302.2539865170102
 30
0.0
  0
VERTEX
  5
73
330
70
100
AcDbEntity
  8
Layer 1
370
     0
100
AcDbVertex
100
AcDb2dVertex
 10
400.0911452279943
 20
-237.7494645805764
 30
0.0
  0
VERTEX
  5
74
330
70
100
AcDbEntity
  8
Layer 1
370
     0
100
AcDbVertex
100
AcDb2dVertex
 10
388.3102995528834
 20
-302.2539865170102
 30
0.0
  0
SEQEND
  5
75
330
70
100
AcDbEntity
  8
Layer 1
370
     0
  0
HATCH
  5
76
330
45
100
AcDbEntity
  8
Layer 1
 62
    30
420
 15690290
100
AcDbHatch
 10
0.0
 20
0.0
 30
0.0
210
0.0
220
0.0
230
1.0
  2
SOLID
 70
     1
 71
     0
 91
        2
 92
        1
 93
        8
 72
     1
 10
415.8499560774071
 20
-324.3450684602067
 11
384.3336652468242
 21
-324.3450684602067
 72
     1
 10
384.3336652468242
 20
-324.3450684602067
 11
373.5829115907527
 21
-383.2532894404876
 72
     1
 10
373.5829115907527
 20
-383.2532894404876
 11
351.4918296475562
 21
-383.2532894404876
 72
     1
 10
351.4918296475562
 20
-383.2532894404876
 11
389.0462696905179
 21
-177.0738505753734
 72
     1
 10
389.0462696905179
 20
-177.0738505753734
 11
411.1373516337144
 21
-177.0738505753734
 72
     1
 10
411.1373516337144
 20
-177.0738505753734
 11
448.690460808436
 21
-383.2532894404876
 72
     1
 10
448.690460808436
 20
-383.2532894404876
 11
426.6007097334787
 21
-383.2532894404876
 72
     1
 10
426.6007097334787
 20
-383.2532894404876
 11
415.8499560774071
 21
-324.3450684602067
 97
        0
 92
        1
 93
        3
 72
     1
 10
388.3102995528834
 20
-302.2539865170102
 11
411.8733217713498
 21
-302.2539865170102
 72
     1
 10
411.8733217713498
 20
-302.2539865170102
 11
400.0911452279943
 21
-237.7494645805764
 72
     1
 10
400.0911452279943
 20
-237.7494645805764
 11
388.3102995528834
 21
-302.2539865170102
 97
        0
 75
     2
 76
     1
 98
        0
  0
POLYLINE
  5
77
330
45
100
AcDbEntity
  8
Layer 1
370
     0
100
AcDb2dPolyline
 66
     1
 10
0.0
 20
0.0
 30
0.0
  0
VERTEX
  5
78
330
77
100
AcDbEntity
  8
Layer 1
370
     0
100
AcDbVertex
100
AcDb2dVertex
 10
481.8264182891098
 20
-265.4368474799257
 30
0.0
  0
VERTEX
  5
79
330
77
100
AcDbEntity
  8
Layer 1
370
     0
100
AcDbVertex
100
AcDb2dVertex
 10
481.8264182891098
 20
-383.2532894404876
 30
0.0
  0
VERTEX
  5
7A
330
77
100
AcDbEntity
  8
Layer 1
370
     0
100
AcDbVertex
100
AcDb2dVertex
 10
459.7353363459124
 20
-383.2532894404876
 30
0.0
  0
VERTEX
  5
7B
330
77
100
AcDbEntity
  8
Layer 1
370
     0
100
AcDbVertex
100
AcDb2dVertex
 10
459.7353363459124
 20
-177.0738505753734
 30
0.0
  0
VERTEX
  5
7C
330
77
100
AcDbEntity
  8
Layer 1
370
     0
100
AcDbVertex
100
AcDb2dVertex
 10
481.8264182891098
 20
-177.0738505753734
 30
0.0
  0
VERTEX
  5
7D
330
77
100
AcDbEntity
  8
Layer 1
370
     0
100
AcDbVertex
100
AcDb2dVertex
 10
511.2798633451303
 20
-294.8902925359425
 30
0.0
  0
VERTEX
  5
7E
330
77
100
AcDbEntity
  8
Layer 1
370
     0
100
AcDbVertex
100
AcDb2dVertex
 10
511.2798633451303
 20
-177.0738505753734
 30
0.0
  0
VERTEX
  5
7F
330
77
100
AcDbEntity
  8
Layer 1
370
     0
100
AcDbVertex
100
AcDb2dVertex
 10
533.3709452883259
 20
-177.0738505753734
 30
0.0
  0
VERTEX
  5
80
330
77
100
AcDbEntity
  8
Layer 1
370
     0
100
AcDbVertex
100
AcDb2dVertex
 10
533.3709452883259
 20
-383.2532894404876
 30
0.0
  0
VERTEX
  5
81
330
77
100
AcDbEntity
  8
Layer 1
370
     0
100
AcDbVertex
100
AcDb2dVertex
 10
511.2798633451303
 20
-383.2532894404876
 30
0.0
  0
VERTEX
  5
82
330
77
100
AcDbEntity
  8
Layer 1
370
     0
100
AcDbVertex
100
AcDb2dVertex
 10
481.8264182891098
 20
-265.4368474799257
 30
0.0
  0
SEQEND
  5
83
330
77
100
AcDbEntity
  8
Layer 1
370
     0
  0
HATCH
  5
84
330
45
100
AcDbEntity
  8
Layer 1
 62
    30
420
 15690290
100
AcDbHatch
 10
0.0
 20
0.0
 30
0.0
210
0.0
220
0.0
230
1.0
  2
SOLID
 70
     1
 71
     0
 91
        1
 92
        1
 93
       10
 72
     1
 10
481.8264182891098
 20
-265.4368474799257
 11
481.8264182891098
 21
-383.2532894404876
 72
     1
 10
481.8264182891098
 20
-383.2532894404876
 11
459.7353363459124
 21
-383.2532894404876
 72
     1
 10
459.7353363459124
 20
-383.2532894404876
 11
459.7353363459124
 21
-177.0738505753734
 72
     1
 10
459.7353363459124
 20
-177.0738505753734
 11
481.8264182891098
 21
-177.0738505753734
 72
     1
 10
481.8264182891098
 20
-177.0738505753734
 11
511.2798633451303
 21
-294.8902925359425
 72
     1
 10
511.2798633451303
 20
-294.8902925359425
 11
511.2798633451303
 21
-177.0738505753734
 72
     1
 10
511.2798633451303
 20
-177.0738505753734
 11
533.3709452883259
 21
-177.0738505753734
 72
     1
 10
533.3709452883259
 20
-177.0738505753734
 11
533.3709452883259
 21
-383.2532894404876
 72
     1
 10
533.3709452883259
 20
-383.2532894404876
 11
511.2798633451303
 21
-383.2532894404876
 72
     1
 10
511.2798633451303
 20
-383.2532894404876
 11
481.8264182891098
 21
-265.4368474799257
 97
        0
 75
     2
 76
     1
 98
        0
  0
POLYLINE
  5
85
330
45
100
AcDbEntity
  8
Layer 1
370
     0
100
AcDb2dPolyline
 66
     1
 10
0.0
 20
0.0
 30
0.0
  0
VERTEX
  5
86
330
85
100
AcDbEntity
  8
Layer 1
370
     0
100
AcDbVertex
100
AcDb2dVertex
 10
570.189415193654
 20
-306.3770163296467
 30
0.0
  0
VERTEX
  5
87
330
85
100
AcDbEntity
  8
Layer 1
370
     0
100
AcDbVertex
100
AcDb2dVertex
 10
570.189415193654
 20
-383.2532894404876
 30
0.0
  0
VERTEX
  5
88
330
85
100
AcDbEntity
  8
Layer 1
370
     0
100
AcDbVertex
100
AcDb2dVertex
 10
548.0983332504566
 20
-383.2532894404876
 30
0.0
  0
VERTEX
  5
89
330
85
100
AcDbEntity
  8
Layer 1
370
     0
100
AcDbVertex
100
AcDb2dVertex
 10
548.0983332504566
 20
-177.0738505753734
 30
0.0
  0
VERTEX
  5
8A
330
85
100
AcDbEntity
  8
Layer 1
370
     0
100
AcDbVertex
100
AcDb2dVertex
 10
570.189415193654
 20
-177.0738505753734
 30
0.0
  0
VERTEX
  5
8B
330
85
100
AcDbEntity
  8
Layer 1
370
     0
100
AcDbVertex
100
AcDb2dVertex
 10
570.189415193654
 20
-253.9487928179706
 30
0.0
  0
VERTEX
  5
8C
330
85
100
AcDbEntity
  8
Layer 1
370
     0
100
AcDbVertex
100
AcDb2dVertex
 10
611.425036793029
 20
-177.0738505753734
 30
0.0
  0
VERTEX
  5
8D
330
85
100
AcDbEntity
  8
Layer 1
370
     0
100
AcDbVertex
100
AcDb2dVertex
 10
636.4613301550016
 20
-177.0738505753734
 30
0.0
  0
VERTEX
  5
8E
330
85
100
AcDbEntity
  8
Layer 1
370
     0
100
AcDbVertex
100
AcDb2dVertex
 10
581.2356215993732
 20
-280.16290457381
 30
0.0
  0
VERTEX
  5
8F
330
85
100
AcDbEntity
  8
Layer 1
370
     0
100
AcDbVertex
100
AcDb2dVertex
 10
636.4613301550016
 20
-383.2532894404876
 30
0.0
  0
VERTEX
  5
90
330
85
100
AcDbEntity
  8
Layer 1
370
     0
100
AcDbVertex
100
AcDb2dVertex
 10
611.425036793029
 20
-383.2532894404876
 30
0.0
  0
VERTEX
  5
91
330
85
100
AcDbEntity
  8
Layer 1
370
     0
100
AcDbVertex
100
AcDb2dVertex
 10
570.189415193654
 20
-306.3770163296467
 30
0.0
  0
SEQEND
  5
92
330
85
100
AcDbEntity
  8
Layer 1
370
     0
  0
HATCH
  5
93
330
45
100
AcDbEntity
  8
Layer 1
 62
    30
420
 15690290
100
AcDbHatch
 10
0.0
 20
0.0
 30
0.0
210
0.0
220
0.0
230
1.0
  2
SOLID
 70
     1
 71
     0
 91
        1
 92
        1
 93
       11
 72
     1
 10
570.189415193654
 20
-306.3770163296467
 11
570.189415193654
 21
-383.2532894404876
 72
     1
 10
570.189415193654
 20
-383.2532894404876
 11
548.0983332504566
 21
-383.2532894404876
 72
     1
 10
548.0983332504566
 20
-383.2532894404876
 11
548.0983332504566
 21
-177.0738505753734
 72
     1
 10
548.0983332504566
 20
-177.0738505753734
 11
570.189415193654
 21
-177.0738505753734
 72
     1
 10
570.189415193654
 20
-177.0738505753734
 11
570.189415193654
 21
-253.9487928179706
 72
     1
 10
570.189415193654
 20
-253.9487928179706
 11
611.425036793029
 21
-177.0738505753734
 72
     1
 10
611.425036793029
 20
-177.0738505753734
 11
636.4613301550016
 21
-177.0738505753734
 72
     1
 10
636.4613301550016
 20
-177.0738505753734
 11
581.2356215993732
 21
-280.16290457381
 72
     1
 10
581.2356215993732
 20
-280.16290457381
 11
636.4613301550016
 21
-383.2532894404876
 72
     1
 10
636.4613301550016
 20
-383.2532894404876
 11
611.425036793029
 21
-383.2532894404876
 72
     1
 10
611.425036793029
 20
-383.2532894404876
 11
570.189415193654
 21
-306.3770163296467
 97
        0
 75
     2
 76
     1
 98
        0
  0
POLYLINE
  5
94
330
45
100
AcDbEntity
  8
Layer 1
370
     0
100
AcDb2dPolyline
 66
     1
 10
0.0
 20
0.0
 30
0.0
  0
VERTEX
  5
95
330
94
100
AcDbEntity
  8
Layer 1
370
     0
100
AcDbVertex
100
AcDb2dVertex
 10
721.1444763713807
 20
-177.0738505753734
 30
0.0
  0
VERTEX
  5
96
330
94
100
AcDbEntity
  8
Layer 1
370
     0
100
AcDbVertex
100
AcDb2dVertex
 10
721.1444763713807
 20
-199.1636016503326
 30
0.0
  0
VERTEX
  5
97
330
94
100
AcDbEntity
  8
Layer 1
370
     0
100
AcDbVertex
100
AcDb2dVertex
 10
669.5972876356791
 20
-199.1636016503326
 30
0.0
  0
VERTEX
  5
98
330
94
100
AcDbEntity
  8
Layer 1
370
     0
100
AcDbVertex
100
AcDb2dVertex
 10
669.5972876356791
 20
-265.4368474799257
 30
0.0
  0
VERTEX
  5
99
330
94
100
AcDbEntity
  8
Layer 1
370
     0
100
AcDbVertex
100
AcDb2dVertex
 10
706.4170884092473
 20
-265.4368474799257
 30
0.0
  0
VERTEX
  5
9A
330
94
100
AcDbEntity
  8
Layer 1
370
     0
100
AcDbVertex
100
AcDb2dVertex
 10
706.4170884092473
 20
-287.5265985548776
 30
0.0
  0
VERTEX
  5
9B
330
94
100
AcDbEntity
  8
Layer 1
370
     0
100
AcDbVertex
100
AcDb2dVertex
 10
669.5972876356791
 20
-287.5265985548776
 30
0.0
  0
VERTEX
  5
9C
330
94
100
AcDbEntity
  8
Layer 1
370
     0
100
AcDbVertex
100
AcDb2dVertex
 10
669.5972876356791
 20
-383.2532894404876
 30
0.0
  0
VERTEX
  5
9D
330
94
100
AcDbEntity
  8
Layer 1
370
     0
100
AcDbVertex
100
AcDb2dVertex
 10
647.5075365607227
 20
-383.2532894404876
 30
0.0
  0
VERTEX
  5
9E
330
94
100
AcDbEntity
  8
Layer 1
370
     0
100
AcDbVertex
100
AcDb2dVertex
 10
647.5075365607227
 20
-177.0738505753734
 30
0.0
  0
VERTEX
  5
9F
330
94
100
AcDbEntity
  8
Layer 1
370
     0
100
AcDbVertex
100
AcDb2dVertex
 10
721.1444763713807
 20
-177.0738505753734
 30
0.0
  0
SEQEND
  5
A0
330
94
100
AcDbEntity
  8
Layer 1
370
     0
  0
HATCH
  5
A1
330
45
100
AcDbEntity
  8
Layer 1
 62
    30
420
 15690290
100
AcDbHatch
 10
0.0
 20
0.0
 30
0.0
210
0.0
220
0.0
230
1.0
  2
SOLID
 70
     1
 71
     0
 91
        1
 92
        1
 93
       10
 72
     1
 10
721.1444763713807
 20
-177.0738505753734
 11
721.1444763713807
 21
-199.1636016503326
 72
     1
 10
721.1444763713807
 20
-199.1636016503326
 11
669.5972876356791
 21
-199.1636016503326
 72
     1
 10
669.5972876356791
 20
-199.1636016503326
 11
669.5972876356791
 21
-265.4368474799257
 72
     1
 10
669.5972876356791
 20
-265.4368474799257
 11
706.4170884092473
 21
-265.4368474799257
 72
     1
 10
706.4170884092473
 20
-265.4368474799257
 11
706.4170884092473
 21
-287.5265985548776
 72
     1
 10
706.4170884092473
 20
-287.5265985548776
 11
669.5972876356791
 21
-287.5265985548776
 72
     1
 10
669.5972876356791
 20
-287.5265985548776
 11
669.5972876356791
 21
-383.2532894404876
 72
     1
 10
669.5972876356791
 20
-383.2532894404876
 11
647.5075365607227
 21
-383.2532894404876
 72
     1
 10
647.5075365607227
 20
-383.2532894404876
 11
647.5075365607227
 21
-177.0738505753734
 72
     1
 10
647.5075365607227
 20
-177.0738505753734
 11
721.1444763713807
 21
-177.0738505753734
 97
        0
 75
     2
 76
     1
 98
        0
  0
SPLINE
  5
A2
330
45
100
AcDbEntity
  8
Layer 1
370
     0
100
AcDbSpline
210
0.0
220
0.0
230
1.0
 70
    11
 71
     3
 72
    35
 73
    31
 74
     0
 42
0.0000000001
 43
0.0000000001
 12
1.0
 22
0.0
 32
0.0
 13
1.0
 23
0.0
 33
0.0
 40
0.0
 40
0.0
 40
0.0
 40
0.0
 40
1.0
 40
1.0
 40
1.0
 40
2.0
 40
2.0
 40
2.0
 40
3.0
 40
3.0
 40
3.0
 40
4.0
 40
4.0
 40
4.0
 40
5.0
 40
5.0
 40
5.0
 40
6.0
 40
6.0
 40
6.0
 40
7.0
 40
7.0
 40
7.0
 40
8.0
 40
8.0
 40
8.0
 40
9.0
 40
9.0
 40
9.0
 40
10.0
 40
10.0
 40
10.0
 40
10.0
 10
735.8692025970267
 20
-346.4348195351595
 30
0.0
 10
735.8692025970267
 20
-346.4348195351595
 30
0.0
 10
735.8692025970267
 20
-177.0738505753734
 30
0.0
 10
735.8692025970267
 20
-177.0738505753734
 30
0.0
 10
735.8692025970267
 20
-177.0738505753734
 30
0.0
 10
757.9589536719795
 20
-177.0738505753734
 30
0.0
 10
757.9589536719795
 20
-177.0738505753734
 30
0.0
 10
757.9589536719795
 20
-177.0738505753734
 30
0.0
 10
757.9589536719795
 20
-346.4348195351595
 30
0.0
 10
757.9589536719795
 20
-346.4348195351595
 30
0.0
 10
757.9589536719795
 20
-356.2539654220764
 30
0.0
 10
762.8671957471979
 20
-361.1622074972911
 30
0.0
 10
772.6863416341112
 20
-361.1622074972911
 30
0.0
 10
782.5028257845443
 20
-361.1622074972911
 30
0.0
 10
787.4137295962446
 20
-356.2539654220764
 30
0.0
 10
787.4137295962446
 20
-346.4348195351595
 30
0.0
 10
787.4137295962446
 20
-346.4348195351595
 30
0.0
 10
787.4137295962446
 20
-177.0738505753734
 30
0.0
 10
787.4137295962446
 20
-177.0738505753734
 30
0.0
 10
787.4137295962446
 20
-177.0738505753734
 30
0.0
 10
809.5061424076812
 20
-177.0738505753734
 30
0.0
 10
809.5061424076812
 20
-177.0738505753734
 30
0.0
 10
809.5061424076812
 20
-177.0738505753734
 30
0.0
 10
809.5061424076812
 20
-346.4348195351595
 30
0.0
 10
809.5061424076812
 20
-346.4348195351595
 30
0.0
 10
809.5061424076812
 20
-370.9813533842052
 30
0.0
 10
797.2302137466759
 20
-383.2532894404876
 30
0.0
 10
772.6863416341112
 20
-383.2532894404876
 30
0.0
 10
748.1398077850663
 20
-383.2532894404876
 30
0.0
 10
735.8692025970267
 20
-370.9813533842052
 30
0.0
 10
735.8692025970267
 20
-346.4348195351595
 30
0.0
  0
HATCH
  5
A3
330
45
100
AcDbEntity
  8
Layer 1
 62
    30
420
 15690290
100
AcDbHatch
 10
0.0
 20
0.0
 30
0.0
210
0.0
220
0.0
230
1.0
  2
SOLID
 70
     1
 71
     0
 91
        1
 92
        1
 93
        1
 72
     4
 94
        3
 73
     0
 74
     1
 95
       35
 96
       31
 40
0.0
 40
0.0
 40
0.0
 40
0.0
 40
1.0
 40
1.0
 40
1.0
 40
2.0
 40
2.0
 40
2.0
 40
3.0
 40
3.0
 40
3.0
 40
4.0
 40
4.0
 40
4.0
 40
5.0
 40
5.0
 40
5.0
 40
6.0
 40
6.0
 40
6.0
 40
7.0
 40
7.0
 40
7.0
 40
8.0
 40
8.0
 40
8.0
 40
9.0
 40
9.0
 40
9.0
 40
10.0
 40
10.0
 40
10.0
 40
10.0
 10
735.8692025970267
 20
-346.4348195351595
 10
735.8692025970267
 20
-346.4348195351595
 10
735.8692025970267
 20
-177.0738505753734
 10
735.8692025970267
 20
-177.0738505753734
 10
735.8692025970267
 20
-177.0738505753734
 10
757.9589536719795
 20
-177.0738505753734
 10
757.9589536719795
 20
-177.0738505753734
 10
757.9589536719795
 20
-177.0738505753734
 10
757.9589536719795
 20
-346.4348195351595
 10
757.9589536719795
 20
-346.4348195351595
 10
757.9589536719795
 20
-356.2539654220764
 10
762.8671957471979
 20
-361.1622074972911
 10
772.6863416341112
 20
-361.1622074972911
 10
782.5028257845443
 20
-361.1622074972911
 10
787.4137295962446
 20
-356.2539654220764
 10
787.4137295962446
 20
-346.4348195351595
 10
787.4137295962446
 20
-346.4348195351595
 10
787.4137295962446
 20
-177.0738505753734
 10
787.4137295962446
 20
-177.0738505753734
 10
787.4137295962446
 20
-177.0738505753734
 10
809.5061424076812
 20
-177.0738505753734
 10
809.5061424076812
 20
-177.0738505753734
 10
809.5061424076812
 20
-177.0738505753734
 10
809.5061424076812
 20
-346.4348195351595
 10
809.5061424076812
 20
-346.4348195351595
 10
809.5061424076812
 20
-370.9813533842052
 10
797.2302137466759
 20
-383.2532894404876
 10
772.6863416341112
 20
-383.2532894404876
 10
748.1398077850663
 20
-383.2532894404876
 10
735.8692025970267
 20
-370.9813533842052
 10
735.8692025970267
 20
-346.4348195351595
 97
        0
 97
        0
 75
     2
 76
     1
 98
        0
  0
POLYLINE
  5
A4
330
45
100
AcDbEntity
  8
Layer 1
370
     0
100
AcDb2dPolyline
 66
     1
 10
0.0
 20
0.0
 30
0.0
  0
VERTEX
  5
A5
330
A4
100
AcDbEntity
  8
Layer 1
370
     0
100
AcDbVertex
100
AcDb2dVertex
 10
824.2335303698128
 20
-383.2532894404876
 30
0.0
  0
VERTEX
  5
A6
330
A4
100
AcDbEntity
  8
Layer 1
370
     0
100
AcDbVertex
100
AcDb2dVertex
 10
824.2335303698128
 20
-177.0738505753734
 30
0.0
  0
VERTEX
  5
A7
330
A4
100
AcDbEntity
  8
Layer 1
370
     0
100
AcDbVertex
100
AcDb2dVertex
 10
846.3232814447692
 20
-177.0738505753734
 30
0.0
  0
VERTEX
  5
A8
330
A4
100
AcDbEntity
  8
Layer 1
370
     0
100
AcDbVertex
100
AcDb2dVertex
 10
846.3232814447692
 20
-361.1622074972911
 30
0.0
  0
VERTEX
  5
A9
330
A4
100
AcDbEntity
  8
Layer 1
370
     0
100
AcDbVertex
100
AcDb2dVertex
 10
897.8704701804709
 20
-361.1622074972911
 30
0.0
  0
VERTEX
  5
AA
330
A4
100
AcDbEntity
  8
Layer 1
370
     0
100
AcDbVertex
100
AcDb2dVertex
 10
897.8704701804709
 20
-383.2532894404876
 30
0.0
  0
VERTEX
  5
AB
330
A4
100
AcDbEntity
  8
Layer 1
370
     0
100
AcDbVertex
100
AcDb2dVertex
 10
824.2335303698128
 20
-383.2532894404876
 30
0.0
  0
SEQEND
  5
AC
330
A4
100
AcDbEntity
  8
Layer 1
370
     0
  0
HATCH
  5
AD
330
45
100
AcDbEntity
  8
Layer 1
 62
    30
420
 15690290
100
AcDbHatch
 10
0.0
 20
0.0
 30
0.0
210
0.0
220
0.0
230
1.0
  2
SOLID
 70
     1
 71
     0
 91
        1
 92
        1
 93
        6
 72
     1
 10
824.2335303698128
 20
-383.2532894404876
 11
824.2335303698128
 21
-177.0738505753734
 72
     1
 10
824.2335303698128
 20
-177.0738505753734
 11
846.3232814447692
 21
-177.0738505753734
 72
     1
 10
846.3232814447692
 20
-177.0738505753734
 11
846.3232814447692
 21
-361.1622074972911
 72
     1
 10
846.3232814447692
 20
-361.1622074972911
 11
897.8704701804709
 21
-361.1622074972911
 72
     1
 10
897.8704701804709
 20
-361.1622074972911
 11
897.8704701804709
 21
-383.2532894404876
 72
     1
 10
897.8704701804709
 20
-383.2532894404876
 11
824.2335303698128
 21
-383.2532894404876
 97
        0
 75
     2
 76
     1
 98
        0
  0
ENDBLK
  5
48
330
45
100
AcDbEntity
  8
0
100
AcDbBlockEnd
  0
BLOCK
  5
B0
330
AE
100
AcDbEntity
  8
0
100
AcDbBlockBegin
  2
block 4
 70
     0
 10
0.0
 20
0.0
 30
0.0
  3
block 4
  1

  0
POLYLINE
  5
B2
330
AE
100
AcDbEntity
  8
Layer 1
370
     0
100
AcDb2dPolyline
 66
     1
 10
0.0
 20
0.0
 30
0.0
  0
VERTEX
  5
B3
330
B2
100
AcDbEntity
  8
Layer 1
370
     0
100
AcDbVertex
100
AcDb2dVertex
 10
540.1597041889981
 20
-587.3672207945547
 30
0.0
  0
VERTEX
  5
B4
330
B2
100
AcDbEntity
  8
Layer 1
370
     0
100
AcDbVertex
100
AcDb2dVertex
 10
552.3717511744071
 20
-587.3672207945547
 30
0.0
  0
VERTEX
  5
B5
330
B2
100
AcDbEntity
  8
Layer 1
370
     0
100
AcDbVertex
100
AcDb2dVertex
 10
552.3717511744071
 20
-618.7171530949327
 30
0.0
  0
VERTEX
  5
B6
330
B2
100
AcDbEntity
  8
Layer 1
370
     0
100
AcDbVertex
100
AcDb2dVertex
 10
496.4832702344338
 20
-618.7171530949327
 30
0.0
  0
VERTEX
  5
B7
330
B2
100
AcDbEntity
  8
Layer 1
370
     0
100
AcDbVertex
100
AcDb2dVertex
 10
496.4832702344338
 20
-587.3672207945547
 30
0.0
  0
VERTEX
  5
B8
330
B2
100
AcDbEntity
  8
Layer 1
370
     0
100
AcDbVertex
100
AcDb2dVertex
 10
508.1070734570294
 20
-587.3672207945547
 30
0.0
  0
VERTEX
  5
B9
330
B2
100
AcDbEntity
  8
Layer 1
370
     0
100
AcDbVertex
100
AcDb2dVertex
 10
508.1070734570294
 20
-462.4439424235625
 30
0.0
  0
VERTEX
  5
BA
330
B2
100
AcDbEntity
  8
Layer 1
370
     0
100
AcDbVertex
100
AcDb2dVertex
 10
496.4832702344338
 20
-462.4439424235625
 30
0.0
  0
VERTEX
  5
BB
330
B2
100
AcDbEntity
  8
Layer 1
370
     0
100
AcDbVertex
100
AcDb2dVertex
 10
496.4832702344338
 20
-430.9768937179206
 30
0.0
  0
VERTEX
  5
BC
330
B2
100
AcDbEntity
  8
Layer 1
370
     0
100
AcDbVertex
100
AcDb2dVertex
 10
603.0938016002838
 20
-430.9768937179206
 30
0.0
  0
VERTEX
  5
BD
330
B2
100
AcDbEntity
  8
Layer 1
370
     0
100
AcDbVertex
100
AcDb2dVertex
 10
603.0938016002838
 20
-487.0996074684217
 30
0.0
  0
VERTEX
  5
BE
330
B2
100
AcDbEntity
  8
Layer 1
370
     0
100
AcDbVertex
100
AcDb2dVertex
 10
571.8609857051724
 20
-487.0996074684217
 30
0.0
  0
VERTEX
  5
BF
330
B2
100
AcDbEntity
  8
Layer 1
370
     0
100
AcDbVertex
100
AcDb2dVertex
 10
571.8609857051724
 20
-462.4439424235625
 30
0.0
  0
VERTEX
  5
C0
330
B2
100
AcDbEntity
  8
Layer 1
370
     0
100
AcDbVertex
100
AcDb2dVertex
 10
540.1597041889981
 20
-462.4439424235625
 30
0.0
  0
VERTEX
  5
C1
330
B2
100
AcDbEntity
  8
Layer 1
370
     0
100
AcDbVertex
100
AcDb2dVertex
 10
540.1597041889981
 20
-509.17338812448
 30
0.0
  0
VERTEX
  5
C2
330
B2
100
AcDbEntity
  8
Layer 1
370
     0
100
AcDbVertex
100
AcDb2dVertex
 10
581.1371373494931
 20
-509.17338812448
 30
0.0
  0
VERTEX
  5
C3
330
B2
100
AcDbEntity
  8
Layer 1
370
     0
100
AcDbVertex
100
AcDb2dVertex
 10
581.1371373494931
 20
-540.5206586883733
 30
0.0
  0
VERTEX
  5
C4
330
B2
100
AcDbEntity
  8
Layer 1
370
     0
100
AcDbVertex
100
AcDb2dVertex
 10
540.1597041889981
 20
-540.5206586883733
 30
0.0
  0
VERTEX
  5
C5
330
B2
100
AcDbEntity
  8
Layer 1
370
     0
100
AcDbVertex
100
AcDb2dVertex
 10
540.1597041889981
 20
-587.3672207945547
 30
0.0
  0
SEQEND
  5
C6
330
B2
100
AcDbEntity
  8
Layer 1
370
     0
  0
HATCH
  5
C7
330
AE
100
AcDbEntity
  8
Layer 1
 62
    30
420
 15690290
100
AcDbHatch
 10
0.0
 20
0.0
 30
0.0
210
0.0
220
0.0
230
1.0
  2
SOLID
 70
     1
 71
     0
 91
        1
 92
        1
 93
       18
 72
     1
 10
540.1597041889981
 20
-587.3672207945547
 11
552.3717511744071
 21
-587.3672207945547
 72
     1
 10
552.3717511744071
 20
-587.3672207945547
 11
552.3717511744071
 21
-618.7171530949327
 72
     1
 10
552.3717511744071
 20
-618.7171530949327
 11
496.4832702344338
 21
-618.7171530949327
 72
     1
 10
496.4832702344338
 20
-618.7171530949327
 11
496.4832702344338
 21
-587.3672207945547
 72
     1
 10
496.4832702344338
 20
-587.3672207945547
 11
508.1070734570294
 21
-587.3672207945547
 72
     1
 10
508.1070734570294
 20
-587.3672207945547
 11
508.1070734570294
 21
-462.4439424235625
 72
     1
 10
508.1070734570294
 20
-462.4439424235625
 11
496.4832702344338
 21
-462.4439424235625
 72
     1
 10
496.4832702344338
 20
-462.4439424235625
 11
496.4832702344338
 21
-430.9768937179206
 72
     1
 10
496.4832702344338
 20
-430.9768937179206
 11
603.0938016002838
 21
-430.9768937179206
 72
     1
 10
603.0938016002838
 20
-430.9768937179206
 11
603.0938016002838
 21
-487.0996074684217
 72
     1
 10
603.0938016002838
 20
-487.0996074684217
 11
571.8609857051724
 21
-487.0996074684217
 72
     1
 10
571.8609857051724
 20
-487.0996074684217
 11
571.8609857051724
 21
-462.4439424235625
 72
     1
 10
571.8609857051724
 20
-462.4439424235625
 11
540.1597041889981
 21
-462.4439424235625
 72
     1
 10
540.1597041889981
 20
-462.4439424235625
 11
540.1597041889981
 21
-509.17338812448
 72
     1
 10
540.1597041889981
 20
-509.17338812448
 11
581.1371373494931
 21
-509.17338812448
 72
     1
 10
581.1371373494931
 20
-509.17338812448
 11
581.1371373494931
 21
-540.5206586883733
 72
     1
 10
581.1371373494931
 20
-540.5206586883733
 11
540.1597041889981
 21
-540.5206586883733
 72
     1
 10
540.1597041889981
 20
-540.5206586883733
 11
540.1597041889981
 21
-587.3672207945547
 97
        0
 75
     2
 76
     1
 98
        0
  0
POLYLINE
  5
C8
330
AE
100
AcDbEntity
  8
Layer 1
370
     0
100
AcDb2dPolyline
 66
     1
 10
0.0
 20
0.0
 30
0.0
  0
VERTEX
  5
C9
330
C8
100
AcDbEntity
  8
Layer 1
370
     0
100
AcDbVertex
100
AcDb2dVertex
 10
704.30100790502
 20
-431.0940101231881
 30
0.0
  0
VERTEX
  5
CA
330
C8
100
AcDbEntity
  8
Layer 1
370
     0
100
AcDbVertex
100
AcDb2dVertex
 10
728.3710909235542
 20
-455.281209546989
 30
0.0
  0
VERTEX
  5
CB
330
C8
100
AcDbEntity
  8
Layer 1
370
     0
100
AcDbVertex
100
AcDb2dVertex
 10
728.3710909235542
 20
-594.6470700763984
 30
0.0
  0
VERTEX
  5
CC
330
C8
100
AcDbEntity
  8
Layer 1
370
     0
100
AcDbVertex
100
AcDb2dVertex
 10
704.30100790502
 20
-618.7171530949327
 30
0.0
  0
VERTEX
  5
CD
330
C8
100
AcDbEntity
  8
Layer 1
370
     0
100
AcDbVertex
100
AcDb2dVertex
 10
644.7739331923658
 20
-618.7171530949327
 30
0.0
  0
VERTEX
  5
CE
330
C8
100
AcDbEntity
  8
Layer 1
370
     0
100
AcDbVertex
100
AcDb2dVertex
 10
620.7038501738316
 20
-594.6470700763984
 30
0.0
  0
VERTEX
  5
CF
330
C8
100
AcDbEntity
  8
Layer 1
370
     0
100
AcDbVertex
100
AcDb2dVertex
 10
620.7038501738316
 20
-455.281209546989
 30
0.0
  0
VERTEX
  5
D0
330
C8
100
AcDbEntity
  8
Layer 1
370
     0
100
AcDbVertex
100
AcDb2dVertex
 10
644.7739331923658
 20
-431.0940101231881
 30
0.0
  0
VERTEX
  5
D1
330
C8
100
AcDbEntity
  8
Layer 1
370
     0
100
AcDbVertex
100
AcDb2dVertex
 10
704.30100790502
 20
-431.0940101231881
 30
0.0
  0
SEQEND
  5
D2
330
C8
100
AcDbEntity
  8
Layer 1
370
     0
  0
POLYLINE
  5
D3
330
AE
100
AcDbEntity
  8
Layer 1
370
     0
100
AcDb2dPolyline
 66
     1
 10
0.0
 20
0.0
 30
0.0
  0
VERTEX
  5
D4
330
D3
100
AcDbEntity
  8
Layer 1
370
     0
100
AcDbVertex
100
AcDb2dVertex
 10
697.021158623178
 20
-462.56105882883
 30
0.0
  0
VERTEX
  5
D5
330
D3
100
AcDbEntity
  8
Layer 1
370
     0
100
AcDbVertex
100
AcDb2dVertex
 10
652.1708988794744
 20
-462.56105882883
 30
0.0
  0
VERTEX
  5
D6
330
D3
100
AcDbEntity
  8
Layer 1
370
     0
100
AcDbVertex
100
AcDb2dVertex
 10
652.1708988794744
 20
-587.2501043892898
 30
0.0
  0
VERTEX
  5
D7
330
D3
100
AcDbEntity
  8
Layer 1
370
     0
100
AcDbVertex
100
AcDb2dVertex
 10
697.021158623178
 20
-587.2501043892898
 30
0.0
  0
VERTEX
  5
D8
330
D3
100
AcDbEntity
  8
Layer 1
370
     0
100
AcDbVertex
100
AcDb2dVertex
 10
697.021158623178
 20
-462.56105882883
 30
0.0
  0
SEQEND
  5
D9
330
D3
100
AcDbEntity
  8
Layer 1
370
     0
  0
HATCH
  5
DA
330
AE
100
AcDbEntity
  8
Layer 1
 62
    30
420
 15690290
100
AcDbHatch
 10
0.0
 20
0.0
 30
0.0
210
0.0
220
0.0
230
1.0
  2
SOLID
 70
     1
 71
     0
 91
        2
 92
        1
 93
        8
 72
     1
 10
704.30100790502
 20
-431.0940101231881
 11
728.3710909235542
 21
-455.281209546989
 72
     1
 10
728.3710909235542
 20
-455.281209546989
 11
728.3710909235542
 21
-594.6470700763984
 72
     1
 10
728.3710909235542
 20
-594.6470700763984
 11
704.30100790502
 21
-618.7171530949327
 72
     1
 10
704.30100790502
 20
-618.7171530949327
 11
644.7739331923658
 21
-618.7171530949327
 72
     1
 10
644.7739331923658
 20
-618.7171530949327
 11
620.7038501738316
 21
-594.6470700763984
 72
     1
 10
620.7038501738316
 20
-594.6470700763984
 11
620.7038501738316
 21
-455.281209546989
 72
     1
 10
620.7038501738316
 20
-455.281209546989
 11
644.7739331923658
 21
-431.0940101231881
 72
     1
 10
644.7739331923658
 20
-431.0940101231881
 11
704.30100790502
 21
-431.0940101231881
 97
        0
 92
        1
 93
        4
 72
     1
 10
697.021158623178
 20
-462.56105882883
 11
652.1708988794744
 21
-462.56105882883
 72
     1
 10
652.1708988794744
 20
-462.56105882883
 11
652.1708988794744
 21
-587.2501043892898
 72
     1
 10
652.1708988794744
 20
-587.2501043892898
 11
697.021158623178
 21
-587.2501043892898
 72
     1
 10
697.021158623178
 20
-587.2501043892898
 11
697.021158623178
 21
-462.56105882883
 97
        0
 75
     2
 76
     1
 98
        0
  0
POLYLINE
  5
DB
330
AE
100
AcDbEntity
  8
Layer 1
370
     0
100
AcDb2dPolyline
 66
     1
 10
0.0
 20
0.0
 30
0.0
  0
VERTEX
  5
DC
330
DB
100
AcDbEntity
  8
Layer 1
370
     0
100
AcDbVertex
100
AcDb2dVertex
 10
828.4044714391548
 20
-544.5132634133297
 30
0.0
  0
VERTEX
  5
DD
330
DB
100
AcDbEntity
  8
Layer 1
370
     0
100
AcDbVertex
100
AcDb2dVertex
 10
789.6575734516719
 20
-544.5132634133297
 30
0.0
  0
VERTEX
  5
DE
330
DB
100
AcDbEntity
  8
Layer 1
370
     0
100
AcDbVertex
100
AcDb2dVertex
 10
789.6575734516719
 20
-587.3672207945547
 30
0.0
  0
VERTEX
  5
DF
330
DB
100
AcDbEntity
  8
Layer 1
370
     0
100
AcDbVertex
100
AcDb2dVertex
 10
801.869620437079
 20
-587.3672207945547
 30
0.0
  0
VERTEX
  5
E0
330
DB
100
AcDbEntity
  8
Layer 1
370
     0
100
AcDbVertex
100
AcDb2dVertex
 10
801.869620437079
 20
-618.7171530949327
 30
0.0
  0
VERTEX
  5
E1
330
DB
100
AcDbEntity
  8
Layer 1
370
     0
100
AcDbVertex
100
AcDb2dVertex
 10
745.9811394971057
 20
-618.7171530949327
 30
0.0
  0
VERTEX
  5
E2
330
DB
100
AcDbEntity
  8
Layer 1
370
     0
100
AcDbVertex
100
AcDb2dVertex
 10
745.9811394971057
 20
-587.3672207945547
 30
0.0
  0
VERTEX
  5
E3
330
DB
100
AcDbEntity
  8
Layer 1
370
     0
100
AcDbVertex
100
AcDb2dVertex
 10
757.6049427197031
 20
-587.3672207945547
 30
0.0
  0
VERTEX
  5
E4
330
DB
100
AcDbEntity
  8
Layer 1
370
     0
100
AcDbVertex
100
AcDb2dVertex
 10
757.6049427197031
 20
-462.4439424235625
 30
0.0
  0
VERTEX
  5
E5
330
DB
100
AcDbEntity
  8
Layer 1
370
     0
100
AcDbVertex
100
AcDb2dVertex
 10
745.9811394971057
 20
-462.4439424235625
 30
0.0
  0
VERTEX
  5
E6
330
DB
100
AcDbEntity
  8
Layer 1
370
     0
100
AcDbVertex
100
AcDb2dVertex
 10
745.9811394971057
 20
-430.74266090739
 30
0.0
  0
VERTEX
  5
E7
330
DB
100
AcDbEntity
  8
Layer 1
370
     0
100
AcDbVertex
100
AcDb2dVertex
 10
835.6843207209968
 20
-430.74266090739
 30
0.0
  0
VERTEX
  5
E8
330
DB
100
AcDbEntity
  8
Layer 1
370
     0
100
AcDbVertex
100
AcDb2dVertex
 10
859.868858408312
 20
-455.281209546989
 30
0.0
  0
VERTEX
  5
E9
330
DB
100
AcDbEntity
  8
Layer 1
370
     0
100
AcDbVertex
100
AcDb2dVertex
 10
859.868858408312
 20
-516.5703538115849
 30
0.0
  0
VERTEX
  5
EA
330
DB
100
AcDbEntity
  8
Layer 1
370
     0
100
AcDbVertex
100
AcDb2dVertex
 10
851.1809505268011
 20
-525.1411452878283
 30
0.0
  0
VERTEX
  5
EB
330
DB
100
AcDbEntity
  8
Layer 1
370
     0
100
AcDbVertex
100
AcDb2dVertex
 10
859.868858408312
 20
-533.4777039535447
 30
0.0
  0
VERTEX
  5
EC
330
DB
100
AcDbEntity
  8
Layer 1
370
     0
100
AcDbVertex
100
AcDb2dVertex
 10
859.868858408312
 20
-587.3672207945547
 30
0.0
  0
VERTEX
  5
ED
330
DB
100
AcDbEntity
  8
Layer 1
370
     0
100
AcDbVertex
100
AcDb2dVertex
 10
872.080905393721
 20
-587.3672207945547
 30
0.0
  0
VERTEX
  5
EE
330
DB
100
AcDbEntity
  8
Layer 1
370
     0
100
AcDbVertex
100
AcDb2dVertex
 10
872.080905393721
 20
-618.7171530949327
 30
0.0
  0
VERTEX
  5
EF
330
DB
100
AcDbEntity
  8
Layer 1
370
     0
100
AcDbVertex
100
AcDb2dVertex
 10
816.1924244537458
 20
-618.7171530949327
 30
0.0
  0
VERTEX
  5
F0
330
DB
100
AcDbEntity
  8
Layer 1
370
     0
100
AcDbVertex
100
AcDb2dVertex
 10
816.1924244537458
 20
-587.3672207945547
 30
0.0
  0
VERTEX
  5
F1
330
DB
100
AcDbEntity
  8
Layer 1
370
     0
100
AcDbVertex
100
AcDb2dVertex
 10
828.4044714391548
 20
-587.3672207945547
 30
0.0
  0
VERTEX
  5
F2
330
DB
100
AcDbEntity
  8
Layer 1
370
     0
100
AcDbVertex
100
AcDb2dVertex
 10
828.4044714391548
 20
-544.5132634133297
 30
0.0
  0
SEQEND
  5
F3
330
DB
100
AcDbEntity
  8
Layer 1
370
     0
  0
POLYLINE
  5
F4
330
AE
100
AcDbEntity
  8
Layer 1
370
     0
100
AcDb2dPolyline
 66
     1
 10
0.0
 20
0.0
 30
0.0
  0
VERTEX
  5
F5
330
F4
100
AcDbEntity
  8
Layer 1
370
     0
100
AcDbVertex
100
AcDb2dVertex
 10
828.4044714391548
 20
-462.56105882883
 30
0.0
  0
VERTEX
  5
F6
330
F4
100
AcDbEntity
  8
Layer 1
370
     0
100
AcDbVertex
100
AcDb2dVertex
 10
789.6575734516719
 20
-462.56105882883
 30
0.0
  0
VERTEX
  5
F7
330
F4
100
AcDbEntity
  8
Layer 1
370
     0
100
AcDbVertex
100
AcDb2dVertex
 10
789.6575734516719
 20
-513.1633311129544
 30
0.0
  0
VERTEX
  5
F8
330
F4
100
AcDbEntity
  8
Layer 1
370
     0
100
AcDbVertex
100
AcDb2dVertex
 10
828.4044714391548
 20
-513.1633311129544
 30
0.0
  0
VERTEX
  5
F9
330
F4
100
AcDbEntity
  8
Layer 1
370
     0
100
AcDbVertex
100
AcDb2dVertex
 10
828.4044714391548
 20
-462.56105882883
 30
0.0
  0
SEQEND
  5
FA
330
F4
100
AcDbEntity
  8
Layer 1
370
     0
  0
HATCH
  5
FB
330
AE
100
AcDbEntity
  8
Layer 1
 62
    30
420
 15690290
100
AcDbHatch
 10
0.0
 20
0.0
 30
0.0
210
0.0
220
0.0
230
1.0
  2
SOLID
 70
     1
 71
     0
 91
        2
 92
        1
 93
       22
 72
     1
 10
828.4044714391548
 20
-544.5132634133297
 11
789.6575734516719
 21
-544.5132634133297
 72
     1
 10
789.6575734516719
 20
-544.5132634133297
 11
789.6575734516719
 21
-587.3672207945547
 72
     1
 10
789.6575734516719
 20
-587.3672207945547
 11
801.869620437079
 21
-587.3672207945547
 72
     1
 10
801.869620437079
 20
-587.3672207945547
 11
801.869620437079
 21
-618.7171530949327
 72
     1
 10
801.869620437079
 20
-618.7171530949327
 11
745.9811394971057
 21
-618.7171530949327
 72
     1
 10
745.9811394971057
 20
-618.7171530949327
 11
745.9811394971057
 21
-587.3672207945547
 72
     1
 10
745.9811394971057
 20
-587.3672207945547
 11
757.6049427197031
 21
-587.3672207945547
 72
     1
 10
757.6049427197031
 20
-587.3672207945547
 11
757.6049427197031
 21
-462.4439424235625
 72
     1
 10
757.6049427197031
 20
-462.4439424235625
 11
745.9811394971057
 21
-462.4439424235625
 72
     1
 10
745.9811394971057
 20
-462.4439424235625
 11
745.9811394971057
 21
-430.74266090739
 72
     1
 10
745.9811394971057
 20
-430.74266090739
 11
835.6843207209968
 21
-430.74266090739
 72
     1
 10
835.6843207209968
 20
-430.74266090739
 11
859.868858408312
 21
-455.281209546989
 72
     1
 10
859.868858408312
 20
-455.281209546989
 11
859.868858408312
 21
-516.5703538115849
 72
     1
 10
859.868858408312
 20
-516.5703538115849
 11
851.1809505268011
 21
-525.1411452878283
 72
     1
 10
851.1809505268011
 20
-525.1411452878283
 11
859.868858408312
 21
-533.4777039535447
 72
     1
 10
859.868858408312
 20
-533.4777039535447
 11
859.868858408312
 21
-587.3672207945547
 72
     1
 10
859.868858408312
 20
-587.3672207945547
 11
872.080905393721
 21
-587.3672207945547
 72
     1
 10
872.080905393721
 20
-587.3672207945547
 11
872.080905393721
 21
-618.7171530949327
 72
     1
 10
872.080905393721
 20
-618.7171530949327
 11
816.1924244537458
 21
-618.7171530949327
 72
     1
 10
816.1924244537458
 20
-618.7171530949327
 11
816.1924244537458
 21
-587.3672207945547
 72
     1
 10
816.1924244537458
 20
-587.3672207945547
 11
828.4044714391548
 21
-587.3672207945547
 72
     1
 10
828.4044714391548
 20
-587.3672207945547
 11
828.4044714391548
 21
-544.5132634133297
 97
        0
 92
        1
 93
        4
 72
     1
 10
828.4044714391548
 20
-462.56105882883
 11
789.6575734516719
 21
-462.56105882883
 72
     1
 10
789.6575734516719
 20
-462.56105882883
 11
789.6575734516719
 21
-513.1633311129544
 72
     1
 10
789.6575734516719
 20
-513.1633311129544
 11
828.4044714391548
 21
-513.1633311129544
 72
     1
 10
828.4044714391548
 20
-513.1633311129544
 11
828.4044714391548
 21
-462.56105882883
 97
        0
 75
     2
 76
     1
 98
        0
  0
ENDBLK
  5
B1
330
AE
100
AcDbEntity
  8
0
100
AcDbBlockEnd
  0
BLOCK
  5
FE
330
FC
100
AcDbEntity
  8
0
100
AcDbBlockBegin
  2
block 5
 70
     0
 10
0.0
 20
0.0
 30
0.0
  3
block 5
  1

  0
POLYLINE
  5
100
330
FC
100
AcDbEntity
  8
Layer 1
370
     0
100
AcDb2dPolyline
 66
     1
 10
0.0
 20
0.0
 30
0.0
  0
VERTEX
  5
101
330
100
100
AcDbEntity
  8
Layer 1
370
     0
100
AcDbVertex
100
AcDb2dVertex
 10
410.5677400262866
 20
-894.2574521102688
 30
0.0
  0
VERTEX
  5
102
330
100
100
AcDbEntity
  8
Layer 1
370
     0
100
AcDbVertex
100
AcDb2dVertex
 10
376.7463854011612
 20
-668.7870780823978
 30
0.0
  0
VERTEX
  5
103
330
100
100
AcDbEntity
  8
Layer 1
370
     0
100
AcDbVertex
100
AcDb2dVertex
 10
410.5677400262866
 20
-668.7870780823978
 30
0.0
  0
VERTEX
  5
104
330
100
100
AcDbEntity
  8
Layer 1
370
     0
100
AcDbVertex
100
AcDb2dVertex
 10
427.4777519047293
 20
-781.5222650963333
 30
0.0
  0
VERTEX
  5
105
330
100
100
AcDbEntity
  8
Layer 1
370
     0
100
AcDbVertex
100
AcDb2dVertex
 10
444.3877637831711
 20
-668.7870780823978
 30
0.0
  0
VERTEX
  5
106
330
100
100
AcDbEntity
  8
Layer 1
370
     0
100
AcDbVertex
100
AcDb2dVertex
 10
478.2091184082974
 20
-668.7870780823978
 30
0.0
  0
VERTEX
  5
107
330
100
100
AcDbEntity
  8
Layer 1
370
     0
100
AcDbVertex
100
AcDb2dVertex
 10
495.1191302867383
 20
-781.5222650963333
 30
0.0
  0
VERTEX
  5
108
330
100
100
AcDbEntity
  8
Layer 1
370
     0
100
AcDbVertex
100
AcDb2dVertex
 10
512.0291421651809
 20
-668.7870780823978
 30
0.0
  0
VERTEX
  5
109
330
100
100
AcDbEntity
  8
Layer 1
370
     0
100
AcDbVertex
100
AcDb2dVertex
 10
545.8504967903082
 20
-668.7870780823978
 30
0.0
  0
VERTEX
  5
10A
330
100
100
AcDbEntity
  8
Layer 1
370
     0
100
AcDbVertex
100
AcDb2dVertex
 10
512.0291421651809
 20
-894.2574521102688
 30
0.0
  0
VERTEX
  5
10B
330
100
100
AcDbEntity
  8
Layer 1
370
     0
100
AcDbVertex
100
AcDb2dVertex
 10
478.2091184082974
 20
-894.2574521102688
 30
0.0
  0
VERTEX
  5
10C
330
100
100
AcDbEntity
  8
Layer 1
370
     0
100
AcDbVertex
100
AcDb2dVertex
 10
461.2977756616137
 20
-781.5222650963333
 30
0.0
  0
VERTEX
  5
10D
330
100
100
AcDbEntity
  8
Layer 1
370
     0
100
AcDbVertex
100
AcDb2dVertex
 10
444.3877637831711
 20
-894.2574521102688
 30
0.0
  0
VERTEX
  5
10E
330
100
100
AcDbEntity
  8
Layer 1
370
     0
100
AcDbVertex
100
AcDb2dVertex
 10
410.5677400262866
 20
-894.2574521102688
 30
0.0
  0
SEQEND
  5
10F
330
100
100
AcDbEntity
  8
Layer 1
370
     0
  0
HATCH
  5
110
330
FC
100
AcDbEntity
  8
Layer 1
 62
    30
420
 15690290
100
AcDbHatch
 10
0.0
 20
0.0
 30
0.0
210
0.0
220
0.0
230
1.0
  2
SOLID
 70
     1
 71
     0
 91
        1
 92
        1
 93
       13
 72
     1
 10
410.5677400262866
 20
-894.2574521102688
 11
376.7463854011612
 21
-668.7870780823978
 72
     1
 10
376.7463854011612
 20
-668.7870780823978
 11
410.5677400262866
 21
-668.7870780823978
 72
     1
 10
410.5677400262866
 20
-668.7870780823978
 11
427.4777519047293
 21
-781.5222650963333
 72
     1
 10
427.4777519047293
 20
-781.5222650963333
 11
444.3877637831711
 21
-668.7870780823978
 72
     1
 10
444.3877637831711
 20
-668.7870780823978
 11
478.2091184082974
 21
-668.7870780823978
 72
     1
 10
478.2091184082974
 20
-668.7870780823978
 11
495.1191302867383
 21
-781.5222650963333
 72
     1
 10
495.1191302867383
 20
-781.5222650963333
 11
512.0291421651809
 21
-668.7870780823978
 72
     1
 10
512.0291421651809
 20
-668.7870780823978
 11
545.8504967903082
 21
-668.7870780823978
 72
     1
 10
545.8504967903082
 20
-668.7870780823978
 11
512.0291421651809
 21
-894.2574521102688
 72
     1
 10
512.0291421651809
 20
-894.2574521102688
 11
478.2091184082974
 21
-894.2574521102688
 72
     1
 10
478.2091184082974
 20
-894.2574521102688
 11
461.2977756616137
 21
-781.5222650963333
 72
     1
 10
461.2977756616137
 20
-781.5222650963333
 11
444.3877637831711
 21
-894.2574521102688
 72
     1
 10
444.3877637831711
 20
-894.2574521102688
 11
410.5677400262866
 21
-894.2574521102688
 97
        0
 75
     2
 76
     1
 98
        0
  0
POLYLINE
  5
111
330
FC
100
AcDbEntity
  8
Layer 1
370
     0
100
AcDb2dPolyline
 66
     1
 10
0.0
 20
0.0
 30
0.0
  0
VERTEX
  5
112
330
111
100
AcDbEntity
  8
Layer 1
370
     0
100
AcDbVertex
100
AcDb2dVertex
 10
596.5805324256307
 20
-646.2395083323099
 30
0.0
  0
VERTEX
  5
113
330
111
100
AcDbEntity
  8
Layer 1
370
     0
100
AcDbVertex
100
AcDb2dVertex
 10
562.760508668749
 20
-646.2395083323099
 30
0.0
  0
VERTEX
  5
114
330
111
100
AcDbEntity
  8
Layer 1
370
     0
100
AcDbVertex
100
AcDb2dVertex
 10
562.760508668749
 20
-612.4194845754319
 30
0.0
  0
VERTEX
  5
115
330
111
100
AcDbEntity
  8
Layer 1
370
     0
100
AcDbVertex
100
AcDb2dVertex
 10
596.5805324256307
 20
-612.4194845754319
 30
0.0
  0
VERTEX
  5
116
330
111
100
AcDbEntity
  8
Layer 1
370
     0
100
AcDbVertex
100
AcDb2dVertex
 10
596.5805324256307
 20
-646.2395083323099
 30
0.0
  0
SEQEND
  5
117
330
111
100
AcDbEntity
  8
Layer 1
370
     0
  0
POLYLINE
  5
118
330
FC
100
AcDbEntity
  8
Layer 1
370
     0
100
AcDb2dPolyline
 66
     1
 10
0.0
 20
0.0
 30
0.0
  0
VERTEX
  5
119
330
118
100
AcDbEntity
  8
Layer 1
370
     0
100
AcDbVertex
100
AcDb2dVertex
 10
596.5805324256307
 20
-894.2574521102688
 30
0.0
  0
VERTEX
  5
11A
330
118
100
AcDbEntity
  8
Layer 1
370
     0
100
AcDbVertex
100
AcDb2dVertex
 10
562.760508668749
 20
-894.2574521102688
 30
0.0
  0
VERTEX
  5
11B
330
118
100
AcDbEntity
  8
Layer 1
370
     0
100
AcDbVertex
100
AcDb2dVertex
 10
562.760508668749
 20
-668.7870780823978
 30
0.0
  0
VERTEX
  5
11C
330
118
100
AcDbEntity
  8
Layer 1
370
     0
100
AcDbVertex
100
AcDb2dVertex
 10
596.5805324256307
 20
-668.7870780823978
 30
0.0
  0
VERTEX
  5
11D
330
118
100
AcDbEntity
  8
Layer 1
370
     0
100
AcDbVertex
100
AcDb2dVertex
 10
596.5805324256307
 20
-894.2574521102688
 30
0.0
  0
SEQEND
  5
11E
330
118
100
AcDbEntity
  8
Layer 1
370
     0
  0
HATCH
  5
11F
330
FC
100
AcDbEntity
  8
Layer 1
 62
    30
420
 15690290
100
AcDbHatch
 10
0.0
 20
0.0
 30
0.0
210
0.0
220
0.0
230
1.0
  2
SOLID
 70
     1
 71
     0
 91
        2
 92
        1
 93
        4
 72
     1
 10
596.5805324256307
 20
-646.2395083323099
 11
562.760508668749
 21
-646.2395083323099
 72
     1
 10
562.760508668749
 20
-646.2395083323099
 11
562.760508668749
 21
-612.4194845754319
 72
     1
 10
562.760508668749
 20
-612.4194845754319
 11
596.5805324256307
 21
-612.4194845754319
 72
     1
 10
596.5805324256307
 20
-612.4194845754319
 11
596.5805324256307
 21
-646.2395083323099
 97
        0
 92
        1
 93
        4
 72
     1
 10
596.5805324256307
 20
-894.2574521102688
 11
562.760508668749
 21
-894.2574521102688
 72
     1
 10
562.760508668749
 20
-894.2574521102688
 11
562.760508668749
 21
-668.7870780823978
 72
     1
 10
562.760508668749
 20
-668.7870780823978
 11
596.5805324256307
 21
-668.7870780823978
 72
     1
 10
596.5805324256307
 20
-668.7870780823978
 11
596.5805324256307
 21
-894.2574521102688
 97
        0
 75
     2
 76
     1
 98
        0
  0
SPLINE
  5
120
330
FC
100
AcDbEntity
  8
Layer 1
370
     0
100
AcDbSpline
210
0.0
220
0.0
230
1.0
 70
    11
 71
     3
 72
    41
 73
    37
 74
     0
 42
0.0000000001
 43
0.0000000001
 12
1.0
 22
0.0
 32
0.0
 13
1.0
 23
0.0
 33
0.0
 40
0.0
 40
0.0
 40
0.0
 40
0.0
 40
1.0
 40
1.0
 40
1.0
 40
2.0
 40
2.0
 40
2.0
 40
3.0
 40
3.0
 40
3.0
 40
4.0
 40
4.0
 40
4.0
 40
5.0
 40
5.0
 40
5.0
 40
6.0
 40
6.0
 40
6.0
 40
7.0
 40
7.0
 40
7.0
 40
8.0
 40
8.0
 40
8.0
 40
9.0
 40
9.0
 40
9.0
 40
10.0
 40
10.0
 40
10.0
 40
11.0
 40
11.0
 40
11.0
 40
12.0
 40
12.0
 40
12.0
 40
12.0
 10
652.9481259325985
 20
-894.2574521102688
 30
0.0
 10
652.9481259325985
 20
-894.2574521102688
 30
0.0
 10
619.1281021757168
 20
-894.2574521102688
 30
0.0
 10
619.1281021757168
 20
-894.2574521102688
 30
0.0
 10
619.1281021757168
 20
-894.2574521102688
 30
0.0
 10
619.1281021757168
 20
-668.7870780823978
 30
0.0
 10
619.1281021757168
 20
-668.7870780823978
 30
0.0
 10
619.1281021757168
 20
-668.7870780823978
 30
0.0
 10
652.9481259325985
 20
-668.7870780823978
 30
0.0
 10
652.9481259325985
 20
-668.7870780823978
 30
0.0
 10
652.9481259325985
 20
-668.7870780823978
 30
0.0
 10
652.9481259325985
 20
-671.7176499505167
 30
0.0
 10
652.9481259325985
 20
-671.7176499505167
 30
0.0
 10
659.5625410936154
 20
-669.7665971082497
 30
0.0
 10
667.0766231859889
 20
-668.7870780823978
 30
0.0
 10
675.4956956826827
 20
-668.7870780823978
 30
0.0
 10
713.0714296175138
 20
-668.7870780823978
 30
0.0
 10
731.8632891896523
 20
-687.5789376545363
 30
0.0
 10
731.8632891896523
 20
-725.1546715893655
 30
0.0
 10
731.8632891896523
 20
-725.1546715893655
 30
0.0
 10
731.8632891896523
 20
-894.2574521102688
 30
0.0
 10
731.8632891896523
 20
-894.2574521102688
 30
0.0
 10
731.8632891896523
 20
-894.2574521102688
 30
0.0
 10
698.0432654327687
 20
-894.2574521102688
 30
0.0
 10
698.0432654327687
 20
-894.2574521102688
 30
0.0
 10
698.0432654327687
 20
-894.2574521102688
 30
0.0
 10
698.0432654327687
 20
-725.1546715893655
 30
0.0
 10
698.0432654327687
 20
-725.1546715893655
 30
0.0
 10
698.0432654327687
 20
-710.1238456681385
 30
0.0
 10
690.5238598674277
 20
-702.6071018392777
 30
0.0
 10
675.4956956826827
 20
-702.6071018392777
 30
0.0
 10
660.4622080249701
 20
-702.6071018392777
 30
0.0
 10
652.9481259325985
 20
-710.1238456681385
 30
0.0
 10
652.9481259325985
 20
-725.1546715893655
 30
0.0
 10
652.9481259325985
 20
-725.1546715893655
 30
0.0
 10
652.9481259325985
 20
-894.2574521102688
 30
0.0
 10
652.9481259325985
 20
-894.2574521102688
 30
0.0
  0
HATCH
  5
121
330
FC
100
AcDbEntity
  8
Layer 1
 62
    30
420
 15690290
100
AcDbHatch
 10
0.0
 20
0.0
 30
0.0
210
0.0
220
0.0
230
1.0
  2
SOLID
 70
     1
 71
     0
 91
        1
 92
        1
 93
        1
 72
     4
 94
        3
 73
     0
 74
     1
 95
       41
 96
       37
 40
0.0
 40
0.0
 40
0.0
 40
0.0
 40
1.0
 40
1.0
 40
1.0
 40
2.0
 40
2.0
 40
2.0
 40
3.0
 40
3.0
 40
3.0
 40
4.0
 40
4.0
 40
4.0
 40
5.0
 40
5.0
 40
5.0
 40
6.0
 40
6.0
 40
6.0
 40
7.0
 40
7.0
 40
7.0
 40
8.0
 40
8.0
 40
8.0
 40
9.0
 40
9.0
 40
9.0
 40
10.0
 40
10.0
 40
10.0
 40
11.0
 40
11.0
 40
11.0
 40
12.0
 40
12.0
 40
12.0
 40
12.0
 10
652.9481259325985
 20
-894.2574521102688
 10
652.9481259325985
 20
-894.2574521102688
 10
619.1281021757168
 20
-894.2574521102688
 10
619.1281021757168
 20
-894.2574521102688
 10
619.1281021757168
 20
-894.2574521102688
 10
619.1281021757168
 20
-668.7870780823978
 10
619.1281021757168
 20
-668.7870780823978
 10
619.1281021757168
 20
-668.7870780823978
 10
652.9481259325985
 20
-668.7870780823978
 10
652.9481259325985
 20
-668.7870780823978
 10
652.9481259325985
 20
-668.7870780823978
 10
652.9481259325985
 20
-671.7176499505167
 10
652.9481259325985
 20
-671.7176499505167
 10
659.5625410936154
 20
-669.7665971082497
 10
667.0766231859889
 20
-668.7870780823978
 10
675.4956956826827
 20
-668.7870780823978
 10
713.0714296175138
 20
-668.7870780823978
 10
731.8632891896523
 20
-687.5789376545363
 10
731.8632891896523
 20
-725.1546715893655
 10
731.8632891896523
 20
-725.1546715893655
 10
731.8632891896523
 20
-894.2574521102688
 10
731.8632891896523
 20
-894.2574521102688
 10
731.8632891896523
 20
-894.2574521102688
 10
698.0432654327687
 20
-894.2574521102688
 10
698.0432654327687
 20
-894.2574521102688
 10
698.0432654327687
 20
-894.2574521102688
 10
698.0432654327687
 20
-725.1546715893655
 10
698.0432654327687
 20
-725.1546715893655
 10
698.0432654327687
 20
-710.1238456681385
 10
690.5238598674277
 20
-702.6071018392777
 10
675.4956956826827
 20
-702.6071018392777
 10
660.4622080249701
 20
-702.6071018392777
 10
652.9481259325985
 20
-710.1238456681385
 10
652.9481259325985
 20
-725.1546715893655
 10
652.9481259325985
 20
-725.1546715893655
 10
652.9481259325985
 20
-894.2574521102688
 10
652.9481259325985
 20
-894.2574521102688
 97
        0
 97
        0
 75
     2
 76
     1
 98
        0
  0
SPLINE
  5
122
330
FC
100
AcDbEntity
  8
Layer 1
370
     0
100
AcDbSpline
210
0.0
220
0.0
230
1.0
 70
    11
 71
     3
 72
    44
 73
    40
 74
     0
 42
0.0000000001
 43
0.0000000001
 12
1.0
 22
0.0
 32
0.0
 13
1.0
 23
0.0
 33
0.0
 40
0.0
 40
0.0
 40
0.0
 40
0.0
 40
1.0
 40
1.0
 40
1.0
 40
2.0
 40
2.0
 40
2.0
 40
3.0
 40
3.0
 40
3.0
 40
4.0
 40
4.0
 40
4.0
 40
5.0
 40
5.0
 40
5.0
 40
6.0
 40
6.0
 40
6.0
 40
7.0
 40
7.0
 40
7.0
 40
8.0
 40
8.0
 40
8.0
 40
9.0
 40
9.0
 40
9.0
 40
10.0
 40
10.0
 40
10.0
 40
11.0
 40
11.0
 40
11.0
 40
12.0
 40
12.0
 40
12.0
 40
13.0
 40
13.0
 40
13.0
 40
13.0
 10
788.2308826966182
 20
-792.7947191031308
 30
0.0
 10
788.2308826966182
 20
-792.7947191031308
 30
0.0
 10
788.2308826966182
 20
-837.889858603301
 30
0.0
 10
788.2308826966182
 20
-837.889858603301
 30
0.0
 10
788.2308826966182
 20
-852.9233462610082
 30
0.0
 10
795.7449647889916
 20
-860.4374283533834
 30
0.0
 10
810.7784524467043
 20
-860.4374283533834
 30
0.0
 10
825.8066166314475
 20
-860.4374283533834
 30
0.0
 10
833.3260221967867
 20
-852.9233462610082
 30
0.0
 10
833.3260221967867
 20
-837.889858603301
 30
0.0
 10
833.3260221967867
 20
-837.889858603301
 30
0.0
 10
833.3260221967867
 20
-826.6147428600161
 30
0.0
 10
833.3260221967867
 20
-826.6147428600161
 30
0.0
 10
833.3260221967867
 20
-826.6147428600161
 30
0.0
 10
867.146045953672
 20
-826.6147428600161
 30
0.0
 10
867.146045953672
 20
-826.6147428600161
 30
0.0
 10
867.146045953672
 20
-826.6147428600161
 30
0.0
 10
867.146045953672
 20
-837.889858603301
 30
0.0
 10
867.146045953672
 20
-837.889858603301
 30
0.0
 10
867.146045953672
 20
-875.4682542746086
 30
0.0
 10
848.3541863815299
 20
-894.2574521102688
 30
0.0
 10
810.7784524467043
 20
-894.2574521102688
 30
0.0
 10
773.2000567753894
 20
-894.2574521102688
 30
0.0
 10
754.4108589397365
 20
-875.4682542746086
 30
0.0
 10
754.4108589397365
 20
-837.889858603301
 30
0.0
 10
754.4108589397365
 20
-837.889858603301
 30
0.0
 10
754.4108589397365
 20
-725.1546715893655
 30
0.0
 10
754.4108589397365
 20
-725.1546715893655
 30
0.0
 10
754.4108589397365
 20
-687.5789376545363
 30
0.0
 10
773.2000567753894
 20
-668.7870780823978
 30
0.0
 10
810.7784524467043
 20
-668.7870780823978
 30
0.0
 10
848.3541863815299
 20
-668.7870780823978
 30
0.0
 10
867.146045953672
 20
-687.5789376545363
 30
0.0
 10
867.146045953672
 20
-725.1546715893655
 30
0.0
 10
867.146045953672
 20
-725.1546715893655
 30
0.0
 10
867.146045953672
 20
-792.7947191031308
 30
0.0
 10
867.146045953672
 20
-792.7947191031308
 30
0.0
 10
867.146045953672
 20
-792.7947191031308
 30
0.0
 10
788.2308826966182
 20
-792.7947191031308
 30
0.0
 10
788.2308826966182
 20
-792.7947191031308
 30
0.0
  0
SPLINE
  5
123
330
FC
100
AcDbEntity
  8
Layer 1
370
     0
100
AcDbSpline
210
0.0
220
0.0
230
1.0
 70
    11
 71
     3
 72
    20
 73
    16
 74
     0
 42
0.0000000001
 43
0.0000000001
 12
1.0
 22
0.0
 32
0.0
 13
1.0
 23
0.0
 33
0.0
 40
0.0
 40
0.0
 40
0.0
 40
0.0
 40
1.0
 40
1.0
 40
1.0
 40
2.0
 40
2.0
 40
2.0
 40
3.0
 40
3.0
 40
3.0
 40
4.0
 40
4.0
 40
4.0
 40
5.0
 40
5.0
 40
5.0
 40
5.0
 10
833.3260221967867
 20
-725.1546715893655
 30
0.0
 10
833.3260221967867
 20
-710.1238456681385
 30
0.0
 10
825.8066166314475
 20
-702.6071018392777
 30
0.0
 10
810.7784524467043
 20
-702.6071018392777
 30
0.0
 10
795.7449647889916
 20
-702.6071018392777
 30
0.0
 10
788.2308826966182
 20
-710.1238456681385
 30
0.0
 10
788.2308826966182
 20
-725.1546715893655
 30
0.0
 10
788.2308826966182
 20
-725.1546715893655
 30
0.0
 10
788.2308826966182
 20
-758.9746953462454
 30
0.0
 10
788.2308826966182
 20
-758.9746953462454
 30
0.0
 10
788.2308826966182
 20
-758.9746953462454
 30
0.0
 10
833.3260221967867
 20
-758.9746953462454
 30
0.0
 10
833.3260221967867
 20
-758.9746953462454
 30
0.0
 10
833.3260221967867
 20
-758.9746953462454
 30
0.0
 10
833.3260221967867
 20
-725.1546715893655
 30
0.0
 10
833.3260221967867
 20
-725.1546715893655
 30
0.0
  0
HATCH
  5
124
330
FC
100
AcDbEntity
  8
Layer 1
 62
    30
420
 15690290
100
AcDbHatch
 10
0.0
 20
0.0
 30
0.0
210
0.0
220
0.0
230
1.0
  2
SOLID
 70
     1
 71
     0
 91
        2
 92
        1
 93
        1
 72
     4
 94
        3
 73
     0
 74
     1
 95
       44
 96
       40
 40
0.0
 40
0.0
 40
0.0
 40
0.0
 40
1.0
 40
1.0
 40
1.0
 40
2.0
 40
2.0
 40
2.0
 40
3.0
 40
3.0
 40
3.0
 40
4.0
 40
4.0
 40
4.0
 40
5.0
 40
5.0
 40
5.0
 40
6.0
 40
6.0
 40
6.0
 40
7.0
 40
7.0
 40
7.0
 40
8.0
 40
8.0
 40
8.0
 40
9.0
 40
9.0
 40
9.0
 40
10.0
 40
10.0
 40
10.0
 40
11.0
 40
11.0
 40
11.0
 40
12.0
 40
12.0
 40
12.0
 40
13.0
 40
13.0
 40
13.0
 40
13.0
 10
788.2308826966182
 20
-792.7947191031308
 10
788.2308826966182
 20
-792.7947191031308
 10
788.2308826966182
 20
-837.889858603301
 10
788.2308826966182
 20
-837.889858603301
 10
788.2308826966182
 20
-852.9233462610082
 10
795.7449647889916
 20
-860.4374283533834
 10
810.7784524467043
 20
-860.4374283533834
 10
825.8066166314475
 20
-860.4374283533834
 10
833.3260221967867
 20
-852.9233462610082
 10
833.3260221967867
 20
-837.889858603301
 10
833.3260221967867
 20
-837.889858603301
 10
833.3260221967867
 20
-826.6147428600161
 10
833.3260221967867
 20
-826.6147428600161
 10
833.3260221967867
 20
-826.6147428600161
 10
867.146045953672
 20
-826.6147428600161
 10
867.146045953672
 20
-826.6147428600161
 10
867.146045953672
 20
-826.6147428600161
 10
867.146045953672
 20
-837.889858603301
 10
867.146045953672
 20
-837.889858603301
 10
867.146045953672
 20
-875.4682542746086
 10
848.3541863815299
 20
-894.2574521102688
 10
810.7784524467043
 20
-894.2574521102688
 10
773.2000567753894
 20
-894.2574521102688
 10
754.4108589397365
 20
-875.4682542746086
 10
754.4108589397365
 20
-837.889858603301
 10
754.4108589397365
 20
-837.889858603301
 10
754.4108589397365
 20
-725.1546715893655
 10
754.4108589397365
 20
-725.1546715893655
 10
754.4108589397365
 20
-687.5789376545363
 10
773.2000567753894
 20
-668.7870780823978
 10
810.7784524467043
 20
-668.7870780823978
 10
848.3541863815299
 20
-668.7870780823978
 10
867.146045953672
 20
-687.5789376545363
 10
867.146045953672
 20
-725.1546715893655
 10
867.146045953672
 20
-725.1546715893655
 10
867.146045953672
 20
-792.7947191031308
 10
867.146045953672
 20
-792.7947191031308
 10
867.146045953672
 20
-792.7947191031308
 10
788.2308826966182
 20
-792.7947191031308
 10
788.2308826966182
 20
-792.7947191031308
 97
        0
 97
        0
 92
        1
 93
        1
 72
     4
 94
        3
 73
     0
 74
     1
 95
       20
 96
       16
 40
0.0
 40
0.0
 40
0.0
 40
0.0
 40
1.0
 40
1.0
 40
1.0
 40
2.0
 40
2.0
 40
2.0
 40
3.0
 40
3.0
 40
3.0
 40
4.0
 40
4.0
 40
4.0
 40
5.0
 40
5.0
 40
5.0
 40
5.0
 10
833.3260221967867
 20
-725.1546715893655
 10
833.3260221967867
 20
-710.1238456681385
 10
825.8066166314475
 20
-702.6071018392777
 10
810.7784524467043
 20
-702.6071018392777
 10
795.7449647889916
 20
-702.6071018392777
 10
788.2308826966182
 20
-710.1238456681385
 10
788.2308826966182
 20
-725.1546715893655
 10
788.2308826966182
 20
-725.1546715893655
 10
788.2308826966182
 20
-758.9746953462454
 10
788.2308826966182
 20
-758.9746953462454
 10
788.2308826966182
 20
-758.9746953462454
 10
833.3260221967867
 20
-758.9746953462454
 10
833.3260221967867
 20
-758.9746953462454
 10
833.3260221967867
 20
-758.9746953462454
 10
833.3260221967867
 20
-725.1546715893655
 10
833.3260221967867
 20
-725.1546715893655
 97
        0
 97
        0
 75
     2
 76
     1
 98
        0
  0
ENDBLK
  5
FF
330
FC
100
AcDbEntity
  8
0
100
AcDbBlockEnd
  0
ENDSEC
  0
SECTION
  2
ENTITIES
  0
INSERT
  5
42
330
1F
100
AcDbEntity
  8
Layer 1
100
AcDbBlockReference
  2
block 2
 10
0.0
 20
0.0
 30
0.0
  0
ENDSEC
  0
SECTION
  2
OBJECTS
  0
DICTIONARY
  5
C
330
0
100
AcDbDictionary
281
     1
  3
ACAD_GROUP
350
D
  3
ACAD_LAYOUT
350
1A
  3
ACAD_MATERIAL
350
3B
  3
ACAD_MLEADERSTYLE
350
12C
  3
ACAD_MLINESTYLE
350
17
  3
ACAD_PLOTSETTINGS
350
19
  3
ACAD_PLOTSTYLENAME
350
E
  3
ACAD_TABLESTYLE
350
12B
  3
ACAD_VISUALSTYLE
350
2A
  0
SUN
  5
3F
330
29
100
AcDbSun
 90
        1
290
     0
 63
     7
421
 16777215
 40
1.0
291
     1
 91
  2455826
 92
 54000000
292
     0
 70
     2
 71
   256
280
     1
  0
DICTIONARY
  5
D
102
{ACAD_REACTORS
330
C
102
}
330
C
100
AcDbDictionary
281
     1
  0
DICTIONARY
  5
1A
102
{ACAD_REACTORS
330
C
102
}
330
C
100
AcDbDictionary
281
     1
  3
Layout1
350
1E
  3
Layout2
350
26
  3
Model
350
22
  0
DICTIONARY
  5
3B
102
{ACAD_REACTORS
330
C
102
}
330
C
100
AcDbDictionary
281
     1
  3
ByBlock
350
3D
  3
ByLayer
350
3C
  3
Global
350
3E
  0
DICTIONARY
  5
12C
102
{ACAD_REACTORS
330
C
102
}
330
C
100
AcDbDictionary
281
     1
  0
DICTIONARY
  5
17
102
{ACAD_REACTORS
330
C
102
}
330
C
100
AcDbDictionary
281
     1
  3
Standard
350
18
  0
DICTIONARY
  5
19
102
{ACAD_REACTORS
330
C
102
}
330
C
100
AcDbDictionary
281
     1
  0
ACDBDICTIONARYWDFLT
  5
E
102
{ACAD_REACTORS
330
C
102
}
330
C
100
AcDbDictionary
281
     1
  3
Normal
350
F
100
AcDbDictionaryWithDefault
340
F
  0
DICTIONARY
  5
12B
102
{ACAD_REACTORS
330
C
102
}
330
C
100
AcDbDictionary
281
     1
  0
DICTIONARY
  5
2A
102
{ACAD_REACTORS
330
C
102
}
330
C
100
AcDbDictionary
281
     1
  3
2dWireframe
350
2F
  3
3D Hidden
350
31
  3
3dWireframe
350
30
  3
Basic
350
32
  3
Brighten
350
36
  3
ColorChange
350
3A
  3
Conceptual
350
34
  3
Dim
350
35
  3
Facepattern
350
39
  3
Flat
350
2B
  3
FlatWithEdges
350
2C
  3
Gouraud
350
2D
  3
GouraudWithEdges
350
2E
  3
Linepattern
350
38
  3
Realistic
350
33
  3
Thicken
350
37
  0
LAYOUT
  5
1E
102
{ACAD_REACTORS
330
1A
102
}
330
1A
100
AcDbPlotSettings
  1

  2
none_device
  4

  6

 40
0.0
 41
0.0
 42
0.0
 43
0.0
 44
0.0
 45
0.0
 46
0.0
 47
0.0
 48
0.0
 49
0.0
140
0.0
141
0.0
142
1.0
143
1.0
 70
   688
 72
     0
 73
     0
 74
     5
  7

 75
    16
 76
     0
 77
     2
 78
   300
147
1.0
148
0.0
149
0.0
100
AcDbLayout
  1
Layout1
 70
     1
 71
     1
 10
0.0
 20
0.0
 11
12.0
 21
9.0
 12
0.0
 22
0.0
 32
0.0
 14
1.000000000000000E+20
 24
1.000000000000000E+20
 34
1.000000000000000E+20
 15
-1.000000000000000E+20
 25
-1.000000000000000E+20
 35
-1.000000000000000E+20
146
0.0
 13
0.0
 23
0.0
 33
0.0
 16
1.0
 26
0.0
 36
0.0
 17
0.0
 27
1.0
 37
0.0
 76
     0
330
1B
  0
LAYOUT
  5
26
102
{ACAD_REACTORS
330
1A
102
}
330
1A
100
AcDbPlotSettings
  1

  2
none_device
  4

  6

 40
0.0
 41
0.0
 42
0.0
 43
0.0
 44
0.0
 45
0.0
 46
0.0
 47
0.0
 48
0.0
 49
0.0
140
0.0
141
0.0
142
1.0
143
1.0
 70
   688
 72
     0
 73
     0
 74
     5
  7

 75
    16
 76
     0
 77
     2
 78
   300
147
1.0
148
0.0
149
0.0
100
AcDbLayout
  1
Layout2
 70
     1
 71
     2
 10
0.0
 20
0.0
 11
0.0
 21
0.0
 12
0.0
 22
0.0
 32
0.0
 14
0.0
 24
0.0
 34
0.0
 15
0.0
 25
0.0
 35
0.0
146
0.0
 13
0.0
 23
0.0
 33
0.0
 16
1.0
 26
0.0
 36
0.0
 17
0.0
 27
1.0
 37
0.0
 76
     0
330
23
  0
LAYOUT
  5
22
102
{ACAD_REACTORS
330
1A
102
}
330
1A
100
AcDbPlotSettings
  1

  2
none_device
  4

  6

 40
0.0
 41
0.0
 42
0.0
 43
0.0
 44
0.0
 45
0.0
 46
0.0
 47
0.0
 48
0.0
 49
0.0
140
0.0
141
0.0
142
1.0
143
1.0
 70
  1712
 72
     0
 73
     0
 74
     0
  7

 75
     0
 76
     0
 77
     2
 78
   300
147
1.0
148
0.0
149
0.0
100
AcDbLayout
  1
Model
 70
     1
 71
     0
 10
0.0
 20
0.0
 11
12.0
 21
9.0
 12
0.0
 22
0.0
 32
0.0
 14
1.000000000000000E+20
 24
1.000000000000000E+20
 34
1.000000000000000E+20
 15
-1.000000000000000E+20
 25
-1.000000000000000E+20
 35
-1.000000000000000E+20
146
0.0
 13
0.0
 23
0.0
 33
0.0
 16
1.0
 26
0.0
 36
0.0
 17
0.0
 27
1.0
 37
0.0
 76
     0
330
1F
331
29
  0
MATERIAL
  5
3D
102
{ACAD_REACTORS
330
3B
102
}
330
3B
100
AcDbMaterial
  1
ByBlock
 72
     1
 94
      127
  0
MATERIAL
  5
3C
102
{ACAD_REACTORS
330
3B
102
}
330
3B
100
AcDbMaterial
  1
ByLayer
 72
     1
 94
      127
  0
MATERIAL
  5
3E
102
{ACAD_REACTORS
330
3B
102
}
330
3B
100
AcDbMaterial
  1
Global
 72
     1
 94
      127
  0
MLINESTYLE
  5
18
102
{ACAD_REACTORS
330
17
102
}
330
17
100
AcDbMlineStyle
  2
Standard
 70
     0
  3

 62
   256
 51
90.0
 52
90.0
 71
     2
 49
0.5
 62
   256
  6
BYLAYER
 49
-0.5
 62
   256
  6
BYLAYER
  0
ACDBPLACEHOLDER
  5
F
102
{ACAD_REACTORS
330
E
102
}
330
E
  0
VISUALSTYLE
  5
2F
102
{ACAD_REACTORS
330
2A
102
}
330
2A
100
AcDbVisualStyle
  2
2dWireframe
 70
     4
177
     2
291
     0
 71
     0
176
     1
 72
     2
176
     1
 73
     0
176
     1
 90
        0
176
     1
 40
-0.6
176
     1
 41
-30.0
176
     1
 62
     5
 63
     7
421
 16777215
176
     1
 74
     1
176
     1
 91
        4
176
     1
 64
     7
176
     1
 65
   257
176
     1
 75
     1
176
     1
175
     1
176
     1
 42
1.0
176
     1
 92
        0
176
     1
 66
   257
176
     1
 43
1.0
176
     1
 76
     1
176
     1
 77
     6
176
     1
 78
     2
176
     1
 67
     7
176
     1
 79
     5
176
     1
170
     0
176
     1
171
     0
176
     1
290
     0
176
     1
 93
        1
176
     1
 44
0.0
176
     1
173
     0
176
     1
  0
VISUALSTYLE
  5
31
102
{ACAD_REACTORS
330
2A
102
}
330
2A
100
AcDbVisualStyle
  2
3D Hidden
 70
     6
177
     2
291
     0
 71
     1
176
     1
 72
     2
176
     1
 73
     2
176
     1
 90
        0
176
     1
 40
-0.6
176
     1
 41
-30.0
176
     1
 62
     5
 63
     7
421
 16777215
176
     1
 74
     2
176
     1
 91
        2
176
     1
 64
     7
176
     1
 65
   257
176
     1
 75
     2
176
     1
175
     1
176
     1
 42
40.0
176
     1
 92
        0
176
     1
 66
   257
176
     1
 43
1.0
176
     1
 76
     1
176
     1
 77
     6
176
     1
 78
     2
176
     1
 67
     7
176
     1
 79
     3
176
     1
170
     0
176
     1
171
     0
176
     1
290
     0
176
     1
 93
        1
176
     1
 44
0.0
176
     1
173
     0
176
     1
  0
VISUALSTYLE
  5
30
102
{ACAD_REACTORS
330
2A
102
}
330
2A
100
AcDbVisualStyle
  2
3dWireframe
 70
     5
177
     2
291
     0
 71
     0
176
     1
 72
     2
176
     1
 73
     0
176
     1
 90
        0
176
     1
 40
-0.6
176
     1
 41
-30.0
176
     1
 62
     5
 63
     7
421
 16777215
176
     1
 74
     1
176
     1
 91
        4
176
     1
 64
     7
176
     1
 65
   257
176
     1
 75
     1
176
     1
175
     1
176
     1
 42
1.0
176
     1
 92
        0
176
     1
 66
   257
176
     1
 43
1.0
176
     1
 76
     1
176
     1
 77
     6
176
     1
 78
     2
176
     1
 67
     7
176
     1
 79
     5
176
     1
170
     0
176
     1
171
     0
176
     1
290
     0
176
     1
 93
        1
176
     1
 44
0.0
176
     1
173
     0
176
     1
  0
VISUALSTYLE
  5
32
102
{ACAD_REACTORS
330
2A
102
}
330
2A
100
AcDbVisualStyle
  2
Basic
 70
     7
177
     2
291
     1
 71
     1
176
     1
 72
     0
176
     1
 73
     1
176
     1
 90
        0
176
     1
 40
-0.6
176
     1
 41
-30.0
176
     1
 62
     5
 63
     7
421
 16777215
176
     1
 74
     0
176
     1
 91
        4
176
     1
 64
     7
176
     1
 65
   257
176
     1
 75
     1
176
     1
175
     1
176
     1
 42
1.0
176
     1
 92
        8
176
     1
 66
     7
176
     1
 43
1.0
176
     1
 76
     1
176
     1
 77
     6
176
     1
 78
     2
176
     1
 67
     7
176
     1
 79
     5
176
     1
170
     0
176
     1
171
     0
176
     1
290
     0
176
     1
 93
        1
176
     1
 44
0.0
176
     1
173
     0
176
     1
  0
VISUALSTYLE
  5
36
102
{ACAD_REACTORS
330
2A
102
}
330
2A
100
AcDbVisualStyle
  2
Brighten
 70
    12
177
     2
291
     1
 71
     2
176
     1
 72
     2
176
     1
 73
     0
176
     1
 90
        0
176
     1
 40
-0.6
176
     1
 41
-30.0
176
     1
 62
     5
 63
     7
421
 16777215
176
     1
 74
     1
176
     1
 91
        4
176
     1
 64
     7
176
     1
 65
   257
176
     1
 75
     1
176
     1
175
     1
176
     1
 42
1.0
176
     1
 92
        8
176
     1
 66
     7
176
     1
 43
1.0
176
     1
 76
     1
176
     1
 77
     6
176
     1
 78
     2
176
     1
 67
     7
176
     1
 79
     5
176
     1
170
     0
176
     1
171
     0
176
     1
290
     0
176
     1
 93
        1
176
     1
 44
50.0
176
     1
173
     0
176
     1
  0
VISUALSTYLE
  5
3A
102
{ACAD_REACTORS
330
2A
102
}
330
2A
100
AcDbVisualStyle
  2
ColorChange
 70
    16
177
     2
291
     1
 71
     2
176
     1
 72
     2
176
     1
 73
     3
176
     1
 90
        0
176
     1
 40
-0.6
176
     1
 41
-30.0
176
     1
 62
     5
 63
     8
421
  8421504
176
     1
 74
     1
176
     1
 91
        4
176
     1
 64
     7
176
     1
 65
   257
176
     1
 75
     1
176
     1
175
     1
176
     1
 42
1.0
176
     1
 92
        8
176
     1
 66
     8
424
  8421504
176
     1
 43
1.0
176
     1
 76
     1
176
     1
 77
     6
176
     1
 78
     2
176
     1
 67
     7
176
     1
 79
     5
176
     1
170
     0
176
     1
171
     0
176
     1
290
     0
176
     1
 93
        1
176
     1
 44
0.0
176
     1
173
     0
176
     1
  0
VISUALSTYLE
  5
34
102
{ACAD_REACTORS
330
2A
102
}
330
2A
100
AcDbVisualStyle
  2
Conceptual
 70
     9
177
     2
291
     0
 71
     3
176
     1
 72
     2
176
     1
 73
     0
176
     1
 90
        0
176
     1
 40
-0.6
176
     1
 41
-30.0
176
     1
 62
     5
 63
     7
421
 16777215
176
     1
 74
     2
176
     1
 91
        2
176
     1
 64
     7
176
     1
 65
   257
176
     1
 75
     1
176
     1
175
     1
176
     1
 42
40.0
176
     1
 92
        8
176
     1
 66
     7
176
     1
 43
1.0
176
     1
 76
     1
176
     1
 77
     6
176
     1
 78
     2
176
     1
 67
     7
176
     1
 79
     3
176
     1
170
     0
176
     1
171
     0
176
     1
290
     0
176
     1
 93
        1
176
     1
 44
0.0
176
     1
173
     0
176
     1
  0
VISUALSTYLE
  5
35
102
{ACAD_REACTORS
330
2A
102
}
330
2A
100
AcDbVisualStyle
  2
Dim
 70
    11
177
     2
291
     1
 71
     2
176
     1
 72
     2
176
     1
 73
     0
176
     1
 90
        0
176
     1
 40
-0.6
176
     1
 41
-30.0
176
     1
 62
     5
 63
     7
421
 16777215
176
     1
 74
     1
176
     1
 91
        4
176
     1
 64
     7
176
     1
 65
   257
176
     1
 75
     1
176
     1
175
     1
176
     1
 42
1.0
176
     1
 92
        8
176
     1
 66
     7
176
     1
 43
1.0
176
     1
 76
     1
176
     1
 77
     6
176
     1
 78
     2
176
     1
 67
     7
176
     1
 79
     5
176
     1
170
     0
176
     1
171
     0
176
     1
290
     0
176
     1
 93
        1
176
     1
 44
-50.0
176
     1
173
     0
176
     1
  0
VISUALSTYLE
  5
39
102
{ACAD_REACTORS
330
2A
102
}
330
2A
100
AcDbVisualStyle
  2
Facepattern
 70
    15
177
     2
291
     1
 71
     2
176
     1
 72
     2
176
     1
 73
     0
176
     1
 90
        0
176
     1
 40
-0.6
176
     1
 41
-30.0
176
     1
 62
     5
 63
     7
421
 16777215
176
     1
 74
     1
176
     1
 91
        4
176
     1
 64
     7
176
     1
 65
   257
176
     1
 75
     1
176
     1
175
     1
176
     1
 42
1.0
176
     1
 92
        8
176
     1
 66
     7
176
     1
 43
1.0
176
     1
 76
     1
176
     1
 77
     6
176
     1
 78
     2
176
     1
 67
     7
176
     1
 79
     5
176
     1
170
     0
176
     1
171
     0
176
     1
290
     0
176
     1
 93
        1
176
     1
 44
0.0
176
     1
173
     0
176
     1
  0
VISUALSTYLE
  5
2B
102
{ACAD_REACTORS
330
2A
102
}
330
2A
100
AcDbVisualStyle
  2
Flat
 70
     0
177
     2
291
     1
 71
     2
176
     1
 72
     1
176
     1
 73
     1
176
     1
 90
        2
176
     1
 40
-0.6
176
     1
 41
30.0
176
     1
 62
     5
 63
     7
421
 16777215
176
     1
 74
     0
176
     1
 91
        4
176
     1
 64
     7
176
     1
 65
   257
176
     1
 75
     1
176
     1
175
     1
176
     1
 42
1.0
176
     1
 92
        8
176
     1
 66
     7
176
     1
 43
1.0
176
     1
 76
     1
176
     1
 77
     6
176
     1
 78
     2
176
     1
 67
     7
176
     1
 79
     5
176
     1
170
     0
176
     1
171
     0
176
     1
290
     0
176
     1
 93
       13
176
     1
 44
0.0
176
     1
173
     0
176
     1
  0
VISUALSTYLE
  5
2C
102
{ACAD_REACTORS
330
2A
102
}
330
2A
100
AcDbVisualStyle
  2
FlatWithEdges
 70
     1
177
     2
291
     1
 71
     2
176
     1
 72
     1
176
     1
 73
     1
176
     1
 90
        2
176
     1
 40
-0.6
176
     1
 41
30.0
176
     1
 62
     5
 63
     7
421
 16777215
176
     1
 74
     1
176
     1
 91
        4
176
     1
 64
     7
176
     1
 65
   257
176
     1
 75
     1
176
     1
175
     1
176
     1
 42
1.0
176
     1
 92
        0
176
     1
 66
   257
176
     1
 43
1.0
176
     1
 76
     1
176
     1
 77
     6
176
     1
 78
     2
176
     1
 67
     7
176
     1
 79
     5
176
     1
170
     0
176
     1
171
     0
176
     1
290
     0
176
     1
 93
       13
176
     1
 44
0.0
176
     1
173
     0
176
     1
  0
VISUALSTYLE
  5
2D
102
{ACAD_REACTORS
330
2A
102
}
330
2A
100
AcDbVisualStyle
  2
Gouraud
 70
     2
177
     2
291
     1
 71
     2
176
     1
 72
     2
176
     1
 73
     1
176
     1
 90
        2
176
     1
 40
-0.6
176
     1
 41
30.0
176
     1
 62
     5
 63
     7
421
 16777215
176
     1
 74
     0
176
     1
 91
        4
176
     1
 64
     7
176
     1
 65
   257
176
     1
 75
     1
176
     1
175
     1
176
     1
 42
1.0
176
     1
 92
        0
176
     1
 66
     7
176
     1
 43
1.0
176
     1
 76
     1
176
     1
 77
     6
176
     1
 78
     2
176
     1
 67
     7
176
     1
 79
     5
176
     1
170
     0
176
     1
171
     0
176
     1
290
     0
176
     1
 93
       13
176
     1
 44
0.0
176
     1
173
     0
176
     1
  0
VISUALSTYLE
  5
2E
102
{ACAD_REACTORS
330
2A
102
}
330
2A
100
AcDbVisualStyle
  2
GouraudWithEdges
 70
     3
177
     2
291
     1
 71
     2
176
     1
 72
     2
176
     1
 73
     1
176
     1
 90
        2
176
     1
 40
-0.6
176
     1
 41
30.0
176
     1
 62
     5
 63
     7
421
 16777215
176
     1
 74
     1
176
     1
 91
        4
176
     1
 64
     7
176
     1
 65
   257
176
     1
 75
     1
176
     1
175
     1
176
     1
 42
1.0
176
     1
 92
        0
176
     1
 66
   257
176
     1
 43
1.0
176
     1
 76
     1
176
     1
 77
     6
176
     1
 78
     2
176
     1
 67
     7
176
     1
 79
     5
176
     1
170
     0
176
     1
171
     0
176
     1
290
     0
176
     1
 93
       13
176
     1
 44
0.0
176
     1
173
     0
176
     1
  0
VISUALSTYLE
  5
38
102
{ACAD_REACTORS
330
2A
102
}
330
2A
100
AcDbVisualStyle
  2
Linepattern
 70
    14
177
     2
291
     1
 71
     2
176
     1
 72
     2
176
     1
 73
     0
176
     1
 90
        0
176
     1
 40
-0.6
176
     1
 41
-30.0
176
     1
 62
     5
 63
     7
421
 16777215
176
     1
 74
     1
176
     1
 91
        4
176
     1
 64
     7
176
     1
 65
   257
176
     1
 75
     7
176
     1
175
     7
176
     1
 42
1.0
176
     1
 92
        8
176
     1
 66
     7
176
     1
 43
1.0
176
     1
 76
     1
176
     1
 77
     6
176
     1
 78
     2
176
     1
 67
     7
176
     1
 79
     5
176
     1
170
     0
176
     1
171
     0
176
     1
290
     0
176
     1
 93
        1
176
     1
 44
0.0
176
     1
173
     0
176
     1
  0
VISUALSTYLE
  5
33
102
{ACAD_REACTORS
330
2A
102
}
330
2A
100
AcDbVisualStyle
  2
Realistic
 70
     8
177
     2
291
     0
 71
     2
176
     1
 72
     2
176
     1
 73
     0
176
     1
 90
        0
176
     1
 40
-0.6
176
     1
 41
-30.0
176
     1
 62
     5
 63
     7
421
 16777215
176
     1
 74
     1
176
     1
 91
        0
176
     1
 64
     7
176
     1
 65
   257
176
     1
 75
     1
176
     1
175
     1
176
     1
 42
1.0
176
     1
 92
        8
176
     1
 66
     8
424
  7895160
176
     1
 43
1.0
176
     1
 76
     1
176
     1
 77
     6
176
     1
 78
     2
176
     1
 67
     7
176
     1
 79
     5
176
     1
170
     0
176
     1
171
     0
176
     1
290
     0
176
     1
 93
       13
176
     1
 44
0.0
176
     1
173
     0
176
     1
  0
VISUALSTYLE
  5
37
102
{ACAD_REACTORS
330
2A
102
}
330
2A
100
AcDbVisualStyle
  2
Thicken
 70
    13
177
     2
291
     1
 71
     2
176
     1
 72
     2
176
     1
 73
     0
176
     1
 90
        0
176
     1
 40
-0.6
176
     1
 41
-30.0
176
     1
 62
     5
 63
     7
421
 16777215
176
     1
 74
     1
176
     1
 91
        4
176
     1
 64
     7
176
     1
 65
   257
176
     1
 75
     1
176
     1
175
     1
176
     1
 42
1.0
176
     1
 92
       12
176
     1
 66
     7
176
     1
 43
1.0
176
     1
 76
     1
176
     1
 77
     6
176
     1
 78
     2
176
     1
 67
     7
176
     1
 79
     5
176
     1
170
     0
176
     1
171
     0
176
     1
290
     0
176
     1
 93
        1
176
     1
 44
0.0
176
     1
173
     0
176
     1
  0
ENDSEC
  0
EOF
