<?xml version="1.0" encoding="utf-8"?>
<!-- Generator: Adobe Illustrator 22.0.0, SVG Export Plug-In . SVG Version: 6.00 Build 0)  -->
<svg version="1.1" id="Layer_1" xmlns="http://www.w3.org/2000/svg" xmlns:xlink="http://www.w3.org/1999/xlink" x="0px" y="0px"
	 viewBox="0 0 1080 1080" style="enable-background:new 0 0 1080 1080;" xml:space="preserve">
<style type="text/css">
	.st0{fill:#050505;}
</style>
<g>
	<g>
		<path class="st0" d="M547.8,233.1c1.7,3.8,3.2,7.3,4.9,11.3c-1.7,0.1-3,0.1-4.4,0.1c-23.9,0-47.9,0-71.8-0.2c-2.9,0-5,0.6-6.6,3.1
			c-2,3.1-4.5,5.9-6.6,9c-2,3-4.7,4.3-8.1,4.4c-3.7,0.2-7.4,0.5-11.1,0.5c-10.4,0.1-20.8,0.7-31.2-0.2c-6.5-0.6-13.2-0.9-19.7-0.8
			c-4.1,0.1-6.5-3.5-3.9-7c2.2-3.1,4.8-5.9,7.6-8.5c2.8-2.6,6-4.8,9.3-7.3c-1.2-1.1-2.5-2.1-3.6-3.2c-4.3-4.3-8.7-8.6-13-12.9
			c-0.6-0.6-1.1-1.2-1.6-1.9c-2.4-3.3-1.1-6,3-6.5c0.6-0.1,1.2-0.1,1.8,0c20.1,0.5,40.2,1.1,60.3,1.4c4.5,0.1,7.8,1.9,10.4,5.3
			c2.9,3.7,5.9,7.2,8.6,11c1.3,1.8,2.7,2.3,4.8,2.3c21.2,0,42.4,0.1,63.6,0.1C542.8,233.1,545.2,233.1,547.8,233.1z M419.1,220.6
			c3.7,4.1,7.1,7.9,10.6,11.5c0.6,0.6,2,0.7,3,0.8c3.8,0.1,7.6,0,11.5,0c0.6,0,1.2-0.2,2.1-0.4c-3.6-3.9-6.9-7.5-10.3-11
			c-0.5-0.5-1.5-0.8-2.2-0.8C428.9,220.5,424.1,220.6,419.1,220.6z M399.3,253.5c0.1,0.4,0.3,0.7,0.4,1.1c6.3,0.1,12.6,0.2,18.8,0.3
			c0.5,0,1.3-0.3,1.5-0.7c1.6-3,3.3-5.9,4.4-9.8c-4.8,0-9,0-13.2,0c-0.7,0-1.5,0.1-2,0.5C405.9,247.7,402.6,250.6,399.3,253.5z
			 M442.6,220.7c3.8,4,7.2,7.8,10.7,11.5c0.3,0.3,0.8,0.6,1.2,0.7c3.7,0.1,7.5,0.4,11.6-0.2c-3.1-4.4-6.6-7.8-10.2-11.1
			c-0.4-0.4-1-0.8-1.6-0.8C450.7,220.6,446.9,220.7,442.6,220.7z M431.1,244.5c-1.4,3.3-2.8,6.5-4.3,10c4.9,0,9.5,0,13.9,0
			c1.4-3.4,2.7-6.6,4.2-10C440,244.5,435.6,244.5,431.1,244.5z M399.7,220.6c3.9,3.9,7.2,7.3,10.6,10.7c0.3,0.3,0.8,0.7,1.2,0.8
			c3.4,0.3,6.8,0.6,10.8,0.9c-0.7-1.1-0.9-1.5-1.2-1.8c-3.2-3.2-6.4-6.4-9.7-9.5c-0.5-0.5-1.2-1-1.8-1
			C406.5,220.6,403.4,220.6,399.7,220.6z M446.1,254.5c3.1,0,5.5,0,7.8,0c0.7,0,1.4,0,2.1-0.1c0.6-0.1,1.2-0.3,1.6-0.6
			c0.9-0.7,4.7-7.7,5-9.4c-3.1,0-6.2-0.1-9.3,0.1c-0.8,0-2,0.5-2.4,1.1C449.3,248.3,447.9,251.1,446.1,254.5z"/>
		<path class="st0" d="M748.5,244.3c-49.2,0.1-97.6,1-146.7,0.3c1.6-2.4,3.2-4.2,4.2-6.2c2-4.3,5.1-5.3,9.7-5.3
			c43,0.5,86,0.8,129,1.2c1.4,0,2.8,0,5,0c-1.5-1.6-2.4-2.5-3.2-3.4c-2.2-2.5-4.5-5-6.6-7.6c-1-1.2-1.9-2.6-0.9-4.3
			c1.1-1.8,2.9-1.7,4.5-1.3c3.7,1,7.4,2,11,3.4c7.7,3.1,15.2,6.4,22.8,9.6c5.2,2.2,10.3,4.5,15.4,6.8c2,0.9,4.1,1.8,4.1,4.5
			c0,2.8-2.1,4-4.2,4.8c-5.9,2.2-11.8,4.5-17.9,6.3c-8.5,2.4-17.1,4.4-25.7,6.5c-1.4,0.3-2.8,0.6-4.2,0.6c-3.6,0-5.3-2.6-3.4-5.8
			c1.3-2.3,3-4.3,4.6-6.4C746.6,247,747.3,246,748.5,244.3z M750.8,251.5c6.6,0,34.8-8.3,37.7-10.6c-13-5.3-25.9-10.5-38.8-15.7
			c2.8,3.5,5.9,6.7,9,9.8c3,3,2.8,5.5-0.4,8.5C755.7,246,753.3,248.8,750.8,251.5z"/>
		<path class="st0" d="M576.7,221.7c2.4-2.8,4.4-5.3,6.6-7.7c3.9-4.1,8.8-5.5,14.4-4.9c3.2,0.4,5.6,2.1,7.1,4.9
			c2.1,3.8,2.9,7.9,1.6,12.1c-0.5,1.8-1.2,3.7-2,5.4c-4.6,9.9-11.5,18.2-18.9,26c-4.8,5.1-5.5,4.9-11,0.4c-4.6-3.8-9.1-7.8-13.3-12
			c-4.6-4.5-7.6-10.1-9.1-16.4c-1.1-4.8-0.9-9.5,1.7-13.9c3.4-5.8,9.4-7.1,14.6-2.9c2.3,1.9,4.2,4.2,6.2,6.4
			C575.3,220,575.9,220.8,576.7,221.7z"/>
	</g>
	<g>
		<path class="st0" d="M224.8,379.1c1,4.8,0.3,9.1-1.9,12.8c-2.3,3.7-5.3,6.9-9.2,9.4c-4.8,2.9-9.7,4.4-14.5,4.6
			c-4.8,0.2-9.5-0.8-14-2.9c-4.5-2.1-8.5-5.2-12.1-9.2c-3.5-4-6.3-8.5-8.2-13.3c-2.9-9.7-4.4-19.7-4.6-30c-0.2-10.3,0.6-20.3,2.2-30
			c4.5-24.8,13.5-48.1,26.8-69.8c13.4-21.8,31.2-40.4,53.4-55.8c7.7-5.5,15.4-9.5,23-12.1c7.6-2.6,14.6-3.9,21-3.9
			c11,0,20.8,3.4,29.5,10.2c8.7,6.8,15.9,16,21.5,27.6c5.6,11.6,9.6,25.1,11.8,40.4c2.3,15.3,2.7,31.7,1.4,49.1
			c-0.6,3.6-1.1,7.2-1.4,10.9c-0.3,3.7-0.8,7.5-1.4,11.4c-1,4.5-2.3,10-3.9,16.4c-1.6,6.5-3.5,13.1-5.6,19.8
			c-2.1,6.8-4.2,13.5-6.3,20.3c-2.1,6.8-4.1,12.7-6,17.9c-3.6,10.3-6.9,20.6-9.9,30.9c-3.1,10.3-5.6,19.8-7.5,28.5l-1.9-0.5l-1,1.9
			l1,2.4h0.5c0.3,0,0.6-0.2,1-0.5c-1.6,7.4-2.7,13.9-3.4,19.3c-0.6,8.4,0.1,14.6,2.2,18.6c2.1,4,5.2,6.5,9.4,7.5
			c9,1.3,18.2-1.7,27.6-8.9c9.3-7.3,18.3-16.8,26.8-28.5c8.5-11.8,16.5-24.8,23.9-39.2c7.4-14.3,13.5-28.1,18.4-41.3
			c1.9-11.3,4-22.4,6.3-33.4c2.3-11,4.3-22.1,6.3-33.4c1-5.2,3.7-8.9,8.2-11.1c4.5-2.3,9.3-3.4,14.5-3.4c5.8,0,10.9,1.5,15.2,4.6
			c4.3,3.1,6.4,6.4,6,9.9c-4.8,14.8-9.4,31.5-13.5,50c-4.2,18.5-8.1,36.5-11.6,53.9c-4.2,21.3-8.6,42.5-13.3,63.6
			c-4.7,21.1-10.6,40.8-17.6,59.2c4.2,0.3,8.1,0.5,11.8,0.5c3.7,0,7.3,0,10.9,0c8.1,0,17,0.1,26.8,0.2c9.8,0.2,19.8-0.1,30-0.7
			c10.2-0.7,20.1-1.8,29.7-3.4c9.7-1.6,18.4-4,26.1-7.2c7.7-3.2,14.1-7.6,19.1-13.1c5-5.5,8-12.4,8.9-20.8c1.9,0.3,3.8,1.6,5.6,3.9
			c1.8,2.3,3.2,5.2,4.4,8.7c1.1,3.5,1.7,7.6,1.7,12.1c0,4.5-0.8,9-2.4,13.5c-1.9,5.8-5.4,10.9-10.4,15.2c-5,4.4-11.1,7.9-18.4,10.6
			c-7.2,2.7-15.3,4.8-24.2,6.3c-8.9,1.5-18.1,2.2-27.8,2.2c-17.7,0-35.4-0.8-52.9-2.4c-17.6-1.6-33.1-4-46.6-7.3
			c-3.6,7.4-7.6,14.7-12.1,22c-4.5,7.3-9,14.1-13.5,20.5c-7.7,9.3-16.1,16.2-25.1,20.5c-9,4.4-17.6,6.5-25.6,6.5
			c-9,0-16.6-1.6-22.7-4.8c-8.1-3.6-14.4-9.3-19.1-17.2c-4.7-7.9-6.7-15.9-6-23.9c0.3-4.2,1.3-7,2.9-8.5c1.6-1.5,3.1-2,4.6-1.7
			c1.4,0.3,2.8,1.3,4.1,2.9c1.3,1.6,1.9,3.5,1.9,5.8c0.6,6.1,2.8,10.8,6.5,14c3.7,3.2,8.3,4.8,13.8,4.8c6.4,0,12.3-1.4,17.6-4.1
			c5.3-2.7,10.1-6.3,14.3-10.6c4.2-4.4,8-9.2,11.4-14.5c3.4-5.3,6.4-10.4,8.9-15.2c-17.1,1-32.5,1-46.2,0.2
			c-13.7-0.8-23.1-0.9-28.3-0.2c-5.5,0.6-8.3-0.1-8.5-2.2c-0.2-2.1,1-4.3,3.6-6.8c2.6-2.4,6-4.7,10.4-6.8c4.3-2.1,8.3-3,11.8-2.7
			l64.8,1.9c5.8-14.2,10.8-29.4,15-45.7c4.2-16.3,7.9-32.5,11.1-48.6h-1c-5.5,10.3-11.4,20.1-17.9,29.2
			c-6.5,9.2-13.3,17.3-20.5,24.4c-7.2,7.1-14.9,12.7-23,16.9c-8.1,4.2-16.4,6.3-25.1,6.3c-16.1,0-28.4-5.7-36.7-17.2
			c-8.4-11.4-11.8-26.3-10.2-44.7c0-1.9,0.2-4.2,0.5-6.8c0.3-2.6,0.8-5,1.4-7.3c1-4.2,2.4-9.5,4.3-16c1.9-6.4,4.2-13.7,6.8-21.8
			c3.2-10,6.7-21.1,10.4-33.4c3.7-12.2,7.3-25,10.9-38.2c3.5-13.2,6.8-26.8,9.7-40.8c2.9-14,5-28,6.3-41.8
			c2.6-23.2,0.4-40.4-6.5-51.7c-6.9-11.3-16.2-16.9-27.8-16.9c-12.9,0-26.1,6.3-39.6,18.9c-6.4,5.8-12,12.7-16.7,20.8
			c-4.7,8.1-8.8,16.8-12.3,26.3c-3.5,9.5-6.6,19.7-9.2,30.5c-2.6,10.8-4.8,22-6.8,33.6c-1.3,7.7-1.8,16-1.5,24.7
			c0.3,8.7,1.6,16.1,3.9,22.2c2.3,6.1,5.3,10,9.2,11.6C214.2,388,219,385.6,224.8,379.1z M171.2,316.3l0.5-3.4h-1l-1,1.4
			L171.2,316.3z M171.2,348.7c0,1.6,0,2.5,0,2.7c0,0.2,0.3,0.2,1,0.2h2.4l-0.5-2.9H171.2z M175,306.6v-1l-2.9,0.5v1l1.9-0.5H175z
			 M174.1,320.2h-1v1.9h1V320.2z M176.5,316.3h-1l-1,1.4l0.5,1.9h1L176.5,316.3z M178.4,367.5l-3.9,3.4l2.9-0.5L178.4,367.5z
			 M179.9,286.3l-2.9,1l0.5,3.9l4.8-3.9L179.9,286.3z M178.9,313.4l1,1.4l-1.4,0.5v1h0.5c-0.6,1.9,0,2.6,1.9,1.9l0.5-1.5l-1-2.4
			l0.5-3.9l-3.9,1.9l0.5,1.4h1L178.9,313.4z M181.8,306.6l-0.5-2.9c-1.3-0.3-2.3,0-2.9,1l-1,1.9l2.4,0.5L181.8,306.6z M180.4,379.6
			l-1.4-1.9c-0.6,1.6-1,2.5-1.2,2.7c-0.2,0.2-0.1,0.4,0.2,0.7L180.4,379.6z M177.9,355l2.4,2.4l2.9-1.9l-0.5-2.4
			c-1.3-0.3-1.8-1-1.4-1.9c-1.9,0-2.9,0.5-2.9,1.5L177.9,355z M178.9,297.5l3.9,0.5c0-0.3,0.6-1.6,1.9-3.9l-2.9-1L178.9,297.5z
			 M180.4,334.7c-0.6,1.3-1,2.1-1,2.4c0,0.3,0.3,0.7,1,1l2.4-0.5l0.5-2.9H180.4z M179.9,314.9l0.5,0.5v-1L179.9,314.9z M182.8,301.8
			v-2.9h-1l-0.5,1.4L182.8,301.8z M186.6,366.1l-0.5-4.3h-4.8l0.5,4.8l2.4,0.5l1.4,0.5L186.6,366.1z M185.2,353.5l-3.4,3.4l2.9-1
			L185.2,353.5z M182.8,384.9l3.4,1l0.5-2.9L182.8,384.9z M185.2,306.2h-1l-0.5,1.9h1L185.2,306.2z M186.2,366.6l-0.5-1.9h-1l-1,1.4
			L186.2,366.6z M186.6,292.1v-1l-2.4,1v1l1.9-1H186.6z M187.1,372.4l1-2.4l-3.4-0.5l-0.5,2.9H187.1z M185.7,340l1.9,2.4l3.9-1
			L191,339c-1.3-0.3-1.9-1.3-1.9-2.9l-2.9,2.4L185.7,340z M187.1,302.3h-1v2.9h1V302.3z M191,278.1c-2.3,1.6-3.1,3.1-2.4,4.3v1.5
			l-1,0.5v1l1,0.5c0.6-0.3,1.1-0.6,1.4-1c0.3-0.3,0.6-0.5,0.7-0.5c0.2,0,0.4-0.2,0.7-0.5c-0.3,0-0.6-0.3-1-1c-0.3-0.6-0.6-1.1-1-1.4
			L191,278.1z M190,298.9l1.9,1l0.5-4.3l-3.9,2.4L190,298.9z M191.5,347.2h-2.9l1,4.8l3.4,1l1-5.3h-1L191.5,347.2z M188.6,370.9h4.3
			v-1L188.6,370.9z M192,374.8l1.4-2.4l-4.3-1l-0.5,2.9c1,1.3,1.5,2.1,1.7,2.4c0.2,0.3,0.6-0.3,1.2-1.9H192z M192,303.3
			c0.3,0,0.8-0.8,1.4-2.4l-1.9-0.5l-1.9,0.5c-0.6,3.5,0.2,4.5,2.4,2.9V303.3z M193.4,289.2c-1.3-0.6-2.3-0.2-2.9,1.4l-0.5,2.9
			l1.9-0.5c1.3,0,1.9-0.5,1.9-1.4L193.4,289.2z M193.4,271.3l-2.4,1.9v3.9l3.9-2.9L193.4,271.3z M192,283.4l3.9,0.5
			c0-0.6,0.1-1.2,0.2-1.7c0.2-0.5,0.7-1.4,1.7-2.7l-2.9-0.5L192,283.4z M192.4,362.7l0.5,1.9h1c0-0.3,0.2-0.6,0.5-1L192.4,362.7z
			 M201.6,269.4l-0.5,1.4c2.3,1.9,3.4,2.1,3.4,0.5l-0.5-2.9l-1.9,1H201.6z M205,266.5l-1-1c-1,1-1.6,2.3-1.9,3.9L205,266.5z
			 M269.3,470c-0.3,1-0.4,1.7-0.2,2.2c0.2,0.5,0.2,1.1,0.2,1.7h2.4c1.6-0.6,1.9-1.6,1-2.9l-2.9-1.4L269.3,470z M276.1,456.5v-2.4
			l-2.9-0.5l-0.5,2.9c0.3,0.3,0.6,0.5,1,0.5l0.5,0.5L276.1,456.5z M274.1,468.1c1,0,1.9-0.3,2.9-1c-1-1-2.1-1.4-3.4-1.4L274.1,468.1
			z M276.1,479.7l0.5,1h1l1.4-3.9l1-1.9H277l-0.5,1.9l-0.5-1h-1c0.3,1.3,0.3,2.1,0,2.4L276.1,479.7z M281.9,483.1l2.4,0.5
			c0-0.3,0.1-0.6,0.2-1c0.2-0.3,0.2-0.6,0.2-1c0.3-0.3,0.4-0.7,0.2-1.2c-0.2-0.5-0.2-0.9-0.2-1.2c0.6-0.6,0.6-1.3,0-1.9l-5.3,1.9
			v5.3l2.9-2.4L281.9,483.1z M283.8,451.2l-2.4-1l-1,3.9l2.4-1L283.8,451.2z M287.7,489.3l-1-2.4h-2.9c-0.3,0-0.6,0.2-1,0.5l-1,1
			l0.5,2.4c1.9,1,2.9,1,2.9,0L287.7,489.3z M287.7,443.9v-1v-0.5l1-1v-2.4h-1l-1.9-1.5l-0.5,2.9l-1.9,0.5c-0.3,2.3-0.3,3.6,0,3.9
			l3.9,0.5L287.7,443.9z M290.1,457l-0.5,0.5l-1-0.5c0-2.6-0.8-3.1-2.4-1.4h0.5c-1.3,0.6-1.8,1.6-1.4,2.9h3.4l-1,1l1,1l0.5-1.9h0.5
			v-0.5L290.1,457z M287.2,452.1c1.6-0.6,2.4-1.1,2.4-1.4l2.4-2.4l-3.4-1l-2.9,4.4L287.2,452.1z M289.6,457.4l-1,1h0.5l0.5-0.5
			V457.4z M291.1,468.6l-1.5-1l1,3.9l2.4-1l-1-2.4L291.1,468.6z M293.5,489.3l1-1.9l-1.9-2.9h-1l-1,1.9c0,1.6,0.2,2.6,0.5,2.9l1,1.5
			L293.5,489.3z M292.5,474.4l-0.5,4.8l1.9,1c1-1.6,1.3-2.6,1-2.9L292.5,474.4z M294.4,441.5l1.4-2.9l-2.4-0.5l-1,3.9L294.4,441.5z
			 M294.9,483.1l2.9,1l1.9-1v-2.9l-1.9,0.5c-0.3,0-0.5-0.1-0.5-0.2c0-0.2-0.2-0.2-0.5-0.2v-2.4l-4.3,4.3L294.9,483.1z M295.4,446.3
			l2.4-1.9l-2.4-2.9l-1.9,1.9c0.3,1,0.5,1.9,0.5,2.7c0,0.8,0,1.1,0,0.7L295.4,446.3z M297.3,472.9c0-2.6-0.3-3.9-1-3.9l-2.9,0.5
			L297.3,472.9z M298.3,454.1c0,0.3-0.1,0.6-0.2,0.7c-0.2,0.2-0.2,0.4-0.2,0.7l-2.4,0.5c-1,1-1.4,2.3-1.4,3.9l2.4,0.5h2.4
			c0-0.6,0.2-1.2,0.5-1.7c0.3-0.5,0.5-1,0.5-1.7l3.9-2.9h2.4c1,0,1.9-0.8,2.9-2.4v0.5l1.4-1.9c-1-0.3-1.4-1-1.4-1.9l-1.4-1.9h-2.9
			c0,0.3-0.1,0.6-0.2,0.7c-0.2,0.2-0.2,0.4-0.2,0.7c-1,1-1.1,1.8-0.5,2.4l-1.5,3.4l-1.4-0.5h-0.5l1-1.4c-0.6,0-0.5-0.5,0.5-1.5
			c-1.3-0.6-2.9-1-4.8-1c-0.3,1.6-0.2,2.7,0.5,3.4v-0.5L298.3,454.1z M298.3,411l0.5,2.9h2.9c-0.6-2.3-1.3-3.1-1.9-2.4L298.3,411z
			 M299.3,463.2l-0.5,5.8l2.9-3.4l-0.5-1.9L299.3,463.2z M300.2,476.3l2.9-0.5l0.5-2.9l-2.9-0.5l-1,2.4L300.2,476.3z M300.2,446.3
			h3.9l-3.9-3.4V446.3z M303.1,387.8l-1-0.5c-0.6,0.7-1,1.3-1,1.9h1L303.1,387.8z M304.1,440l-2.9,0.5l1,2.4h2.9l1-2.4L304.1,440z
			 M304.6,404.8l-1-2.9c-1.3,1.3-1.9,2.3-1.9,2.9v3.4h5.3l-1.9-3.4H304.6z M302.2,453.6v0.5h1.5L302.2,453.6z M307.5,456l-2.4,1
			l-2.9,3.9c2.6-0.6,4.2-1,4.8-1.2c0.6-0.2,1-0.6,1-1.2L307.5,456z M302.7,383.5l0.5,1.9h1L302.7,383.5z M304.6,398.5
			c2.3,0,3.7-0.3,4.3-1l0.5-3.9l-1.9-1h-2.4c-0.3,1.6-0.6,2.7-0.7,3.4c-0.2,0.6-0.2,1.1-0.2,1.4L304.6,398.5z M312.8,401.4l-2.9,1
			l-1,1l1-1.9l-0.5-2.9l-3.4,2.4v1.4c-0.6,1.6-0.6,2.6,0,2.9l2.4-0.5l-0.5,0.5c0.6,1.6,1.6,2.4,2.9,2.4l1.4-2.4L312.8,401.4z
			 M310.9,412.5H308l-1,4.8l-0.5,3.4c0.6-0.6,1.3-1.3,1.9-1.9c0.6-0.6,1.3-1.6,1.9-2.9l-0.5-1.9L310.9,412.5z M312.8,383.5l-3.4,0.5
			l-1.4,3.9c0.6,0.6,1,1.3,1,1.9l2.4,1l3.4-1v-2.4L312.8,383.5z M308.9,404.3v-1l-0.5,1.5L308.9,404.3z M311.4,391.7l-0.5,3.9l1.9-1
			L311.4,391.7z M311.4,416.4l0.5,2.9h1L311.4,416.4z M313.8,397.5v-1.9h-1L313.8,397.5z M322,381.6h-2.4l1.4-1.5l-1.4-2.4
			c-1.3,0-2.6,0.6-3.9,1.9l0.5,2.4c1.3,0.6,2.3,0.6,2.9,0l0.5,1.9l1.9-1L322,381.6z M316.2,225.9l1.9-0.5l0.5-1
			c-1-0.6-1.8-0.6-2.4,0V225.9z M323.4,371.4l-2.4-1l0.5-1.9c1.6-0.6,2.4-1.5,2.4-2.4l-0.5-1.4l-0.5-2.4l-2.9,0.5
			c-1.3,1-1.6,1.8-1,2.4c0.3,0,0.6,0.1,1,0.2c0.3,0.2,0.6,0.2,1,0.2l-0.5,1v1.4l-1.4-0.5l-2.9,0.5c0.6,1,0.6,1.9,0,2.9l2.4-0.5
			l2.4,0.5l-0.5,1.9l1.9,0.5l0.5-1l-1.4,4.4v3.4l2.4,0.5l1.5-1l0.5,2.4c0.6,0,1.1,0.6,1.4,1.9l1.9-1l1.4-1c-0.6-2.6-1.3-4-1.9-4.4
			h0.5c-1.3-1-2.4-0.6-3.4,1l-1.5-3.9l-1.4-2.4L323.4,371.4z M317.2,341.4l-0.5,1.9h1l1-1.5L317.2,341.4z M321,221.1l-3.9-0.5
			l3.4,3.9L321,221.1z M322.5,341c-1.3,1-1.9,1.6-1.9,1.9h-1l-0.5,2.4h2.9c0.3-0.3,0.5-1,0.5-1.9V341z M319.1,382l0.5-0.5h-0.5V382z
			 M320.1,227.8l1.9-1v-1h-1.9V227.8z M321.5,368h-1v0.5h1V368z M323,231.7l3.4,1l-1.9-2.9H322l-0.5,1L323,231.7z M325.4,326.9
			l0.5-2.9c-1.6,0-2.3,0.1-2.2,0.2c0.2,0.2-0.1,0.6-0.7,1.2l-0.5,0.5c-0.6,0.7-1,1.3-1,1.9L325.4,326.9z M322,340.5h3.9l0.5-2.9
			h-2.9L322,340.5z M324.4,398.5c-1.3,0-1.9,0.5-1.9,1.5l-0.5,3.4l3.4-3.4L324.4,398.5z M326.8,236.1l-2.4,0.5v1l2.4,1l2.9,0.5
			L326.8,236.1z M327.8,321.1l-2.4-1l1,3.9l3.4,1h-3.4l1.9,4.4l-0.5,1.4h2.4l1.9-1l-0.5-4.8h-1.9l1.4-3.4L327.8,321.1z M326.3,379.1
			l-0.5-0.5l-0.5,1L326.3,379.1z M326.8,228.3h1l0.5-1.4h-1L326.8,228.3z M327.8,340.5l2.9-1c0.6-1.9,0.6-3.2,0-3.9l-1.9-0.5l-0.5,1
			h0.5l-1,1.5l-1,2.4L327.8,340.5z M329.7,246.7v-1c-1.6,0-2.5,0.1-2.7,0.2c-0.2,0.2,0.1,0.6,0.7,1.2v1h1L329.7,246.7z M327.8,267.5
			v2.9h3.9c-0.3-3.2-1.4-4.3-3.4-3.4L327.8,267.5z M328.8,250.1h1l0.5-1.9h-1L328.8,250.1z M332.6,306.6c-3.2,0-4.3,0.8-3.4,2.4
			v-0.5l1,3.4h1c0-0.3-0.1-0.6-0.2-0.7c-0.2-0.2-0.2-0.4-0.2-0.7c0.6-0.6,0.8-1.3,0.5-1.9L332.6,306.6z M332.1,282l3.4,2.4
			c0-1,0.3-2.1,1-3.4c0.3-0.6,0.5-1.1,0.5-1.4l-1.9-0.5l-2.4-0.5l-1.9,2.4L332.1,282z M336,240.4l-3.9-1l-1,2.9L336,240.4z
			 M336,274.3v-1h-1.9l1-0.5v-1l-1.4-1l-0.5,0.5h-1.4l-0.5,3.9l2.9-1.4v0.5H336z M331.2,335.6l0.5,2.9l3.9-1l0.5-3.9L331.2,335.6z
			 M336.5,293.6l-1.4-2.9l-2.9-2.4l-0.5,4.8c1,0.6,1.1,1.3,0.5,1.9l3.4,0.5L336.5,293.6z M336,268l1-1.9l-1-1.9
			c-1.6,0-2.4,0.2-2.4,0.5c0,0.3-0.2,0.6-0.5,1l1.9,2.4H336z M335.5,263.6l3.9-3.9l-2.9,0.5L335.5,263.6z M336,320.7l3.9-1.9v-1
			c-2.3,0-3.4,0.3-3.4,1L336,320.7z M342.8,303.3l1-1.9l-1-2.4l-4.3,2.4L342.8,303.3z M342.8,268v1.4h1l1-1.4c0-1-0.2-1.6-0.5-1.9
			l-2.4-0.5L342.8,268z M341.8,279.6l4.3-1l-3.9-3.9l-0.5,3.4V279.6z M349.1,307.6c-1-1-2.1-1.1-3.4-0.5l-1.9,0.5l-0.5,3.9l3.9,1
			l2.4-3.4L349.1,307.6z M391.1,526.1c-0.3,1-0.2,2.1,0.5,3.4c2.3-0.3,3.1-1.4,2.4-3.4c-1,0-1.6-0.2-1.9-0.5L391.1,526.1z
			 M396.4,513.5l0.5-2.9l-2.4-0.5l-1,2.9c0.3,0.3,0.6,0.5,1,0.5h0.5H396.4z M395.5,524.1l1.4-3.9c-1,1-1.8,1.4-2.4,1.4L395.5,524.1z
			 M395.9,535.3l0.5,1h1l1-3.9l1-1.9l-2.4,0.5v0.5h-1c0.3,1,0.2,1.8-0.5,2.4L395.9,535.3z M400.8,539.1l1.9-1.9
			c0.6-0.7,0.6-1.5,0-2.4v-1.9l-4.3,1.9l-0.5,5.3l2.9-2.4V539.1z M402.2,507.7l-2.9-1l0.5,3.9l1.9-1L402.2,507.7z M405.1,544.4
			l-1-2.4h-2.4c-0.6,0-1.1,0.6-1.4,1.9v1.9c1.9,1,2.9,1,2.9,0L405.1,544.4z M405.6,500.5V500v-0.5l1-1l-0.5-2.4h-1l-0.5,0.5v-0.5h-1
			v1.4l-1.4,1.9l1.9,2.4L405.6,500.5z M406.1,513c0.6-2.6,0-2.9-1.9-1h0.5c-1.3,0.3-2,0.7-2.2,1.2c-0.2,0.5,0.1,0.9,0.7,1.2h2.4
			L406.1,513z M405.1,508.7l1.5-1.5l2.9-2.4l-3.4-1l-2.4,4.4L405.1,508.7z M407.5,513l-2.4,2.4l1,1L407.5,513z M406.6,525.6l2.9,1
			l-1-2.4L406.6,525.6z M408.5,529.9c0,2.3-0.6,3.9-1.9,4.8l3.9,1l0.5-2.9L408.5,529.9z M409.5,544.4l0.5-1.9l-1.4-2.9h-1l-0.5,4.8
			l1,1.4L409.5,544.4z M409.5,499h1l1.4-3.4l-1.9-0.5L409.5,499z M411.4,502.9l2.9-2.4c-1,0-1.8-0.3-2.4-1h-1l-1,1.5l0.5,1.9H411.4z
			 M413.3,510.6l-0.5,1.9l-1.4-0.5c-0.6,0.6-1,1-1.2,1.2c-0.2,0.2-0.2,1-0.2,2.7l2.4,0.5l1.4-1.4c0-0.7,0.3-1.3,1-1.9v0.5l3.4-2.9
			h1.4c0.6,0,1.4-0.8,2.4-2.4v-2.9l-1-1.9l-2.4-0.5c0,0.3-0.1,0.6-0.2,0.7c-0.2,0.2-0.2,0.4-0.2,0.7c-0.6,0.6-1,1.5-1,2.4l-1,2.9
			h-0.5v-3.4c-0.3-0.3-1.4-0.5-3.4-0.5c-0.3,1.6-0.2,2.7,0.5,3.4v-0.5L413.3,510.6z M410.4,538.6l2.4,1l1.4-1v-2.9h-2.9l-1.4,1
			L410.4,538.6z M412.9,528c0-1.9-0.5-2.9-1.4-2.9L412.9,528z M413.8,519.3l-0.5,5.8l2.9-3.4l-0.5-1.9L413.8,519.3z M413.8,469
			l1,4.4c0.6-0.6,0.9-1.2,0.7-1.7c-0.2-0.5-0.2-1-0.2-1.7L413.8,469z M417.2,531.4l0.5-2.9l-2.9-0.5l-0.5,3.9L417.2,531.4z
			 M415.8,503.4l3.4-2.9h-1.9l3.9-2.9l-3.4-0.5l-1.9,0.5l0.5,2.9h-1L415.8,503.4z M418.7,462.8c-1.6,0.6-2.5,1-2.7,1
			c-0.2,0,0.1,0.3,0.7,1v-0.5l0.5,1.9h3.4l-1-2.4L418.7,462.8z M416.7,500.9l0.5-0.5h-1L416.7,500.9z M416.2,509.6v1h1.5
			C417.4,510.6,416.9,510.3,416.2,509.6z M418.2,447.3h-1c0,0.3-0.1,0.6-0.2,0.7c-0.2,0.2-0.2,0.4-0.2,0.7h1L418.2,447.3z
			 M417.7,442.9l1,1.9h1L417.7,442.9z M420.6,512.5l-2.9,0.5v3.4c2.3-0.6,3.4-1.3,3.4-1.9L420.6,512.5z M419.1,457.4
			c1.3,0,2.6-0.3,3.9-1v-3.4l-0.5-2.4l-2.9,1c-0.3,1.6-0.5,2.7-0.5,3.4c0,0.7,0,1.1,0,1.5V457.4z M422,517.4l-2.9,1.9l1,3.9l2.4-2.4
			L422,517.4z M420.1,459.9l0.5,2.4l1.9,0.5l1-2.4l-0.5-2.9L420.1,459.9z M424,471h-1l-2.4,3.9v1.9h1l1.9-2.9v-1.9L424,471z
			 M425.9,442.9l-2.9,0.5l-1.4,3.9c0.6,0.6,1,1.3,1,1.9l2.4,0.5l2.4-0.5v-2.4L425.9,442.9z M425.4,460.8h-1l-2.4,2.9
			c0.3,1.3,1.1,1.9,2.4,1.9l0.5-1.9L425.4,460.8z M425.4,452.1h-1l-0.5,1.9h1L425.4,452.1z M424.9,475.3h-1l0.5,1.5h1L424.9,475.3z
			 M426.9,456.5l-0.5-1.9h-1L426.9,456.5z M430.7,427.5l-2.4,3.4l3.4-0.5l0.5-1.5c1-0.3,1.6-0.8,1.9-1.4c0.3-0.6,0.5-1.1,0.5-1.5
			l-0.5-1.5v-1.9l-2.4,0.5l0.5,1.9l-0.5,1.4v1.5L430.7,427.5z M432.7,441l-2.9,0.5l2.4-1.5l-1-2.9c-1.3,0-2.3,0.8-2.9,2.4v2.9l1.5-1
			l0.5,3.4l2.4-2.4V441z M429.8,401.9l-0.5,1.9h1l1-1.5L429.8,401.9z M434.6,400.9c-1.3,1-1.9,1.8-1.9,2.4h-1l-0.5,2.9
			c1.6-0.6,2.5-1,2.7-1.2c0.2-0.2,0.2-0.6,0.2-1.2L434.6,400.9z M433.6,457.4l-2.4,2.9l3.4,1l0.5-2.9L433.6,457.4z M432.2,428.9
			l0.5-1h-1L432.2,428.9z M434.1,431.3l-1.9,0.5v1L434.1,431.3z M432.2,436.2l0.5,3.4h2.9v-2.4l-0.5-1.5l-0.5-1.9h-1L432.2,436.2z
			 M438.5,382.5l-1.9-1v2.4c-0.6,0.6-1.1,1.2-1.4,1.7c-0.3,0.5-0.6,1.1-1,1.7c-0.3,0.7-0.6,1.1-1,1.5l3.4-1l0.5-2.9l2.9,1h-2.4
			l1,4.3l-0.5,1.5l3.9-1l-0.5-4.8h-1.5l1-2.9L438.5,382.5z M438,400.9l2.4-1c0-0.3,0.1-0.5,0.2-0.5c0.2,0,0.2-0.2,0.2-0.5l3.4-1
			l0.5-3.4l-4.3,1.9l-1.9-0.5l-0.5,2.4l-0.5,1.5L437,397l-3.9,3.9l3.9-0.5L438,400.9z M435.1,566.7h1l1-3.9h-2.9l-0.5,3.4
			L435.1,566.7z M435.1,570.5l1.9,0.5l1.4-4.3l-3.9,2.4L435.1,570.5z M439.4,442c-0.3-1.9-0.6-3.1-0.7-3.6c-0.2-0.5-0.2-0.9-0.2-1.2
			c-1-1-1.8-0.3-2.4,1.9l-0.5,2.4c0.6,0,1,0.6,1,1.9L439.4,442z M437,383.5l-0.5,0.5l0.5,0.5V383.5z M437.5,400.4v-0.5l-0.5,0.5
			H437.5z M439.9,558l-1.4,1.9v1l-0.5,1.5c0.6,2.2,1.9,2.4,3.9,0.5h0.5l0.5-1c-0.3,0-0.8-0.3-1.4-1c-0.6-0.3-1.3-0.5-1.9-0.5l2.9-1
			v-1l-1.4-0.5H439.9z M439,560.9l0.5-0.5h-1L439,560.9z M438.5,569.6v2.9h2.9l-0.5-2.4L438.5,569.6z M441.9,368.5
			c-1.6,0-2.4,0.6-2.4,1.9l1,2.9h1c0-0.3-0.1-0.6-0.2-0.7c-0.2-0.2-0.2-0.4-0.2-0.7c0.3-0.3,0.5-0.8,0.5-1.5L441.9,368.5z
			 M440.9,399c0.3-0.3,0.2-1.1-0.5-2.4L440.9,399z M445.2,355c0-0.6-0.3-1.3-1-1.9l-1.9-2.4l-0.5,4.8c0.6,0.6,0.6,1.3,0,1.9l2.9,0.5
			l1-1.9L445.2,355z M443.3,568.6v-1l-1-0.5l-0.5,1L443.3,568.6z M443.3,570.5l-1,2.9l2.9-0.5V571L443.3,570.5z M444.8,382.5
			l4.3-3.4c-2.6,0-4,0.3-4.3,1V382.5z M444.8,570.1c1.6,0,2.4-0.6,2.4-1.9h-1L444.8,570.1z M450.6,365.1c0.3-2.2,0.2-3.9-0.5-4.8
			l-3.9,2.9L450.6,365.1z M447.7,564.3h-1l-0.5,1.5h1L447.7,564.3z M452.5,569.1h-4.4v1c0.6,0.3,1.3,0.5,1.9,0.5L452.5,569.1z
			 M452,574.9V571l-3.9,3.9H452z M454.4,369.5c-0.3-0.3-1.6-0.2-3.9,0.5v3.9h3.4l1.4-2.4L454.4,369.5z M453.9,562.8l-0.5-1.9h-1
			L453.9,562.8z M461.2,566.7v1.4h-2.9c0-0.6,0.3-1,1-1c0-0.3,0.8-1.3,2.4-2.9c-2.3,0.3-3.5,0.6-3.9,1c-0.6-0.7-1.3-0.7-1.9,0v1
			c-1.6-1-2.6-1.3-2.9-1l-0.5,3.9v0.5c1-1,1.6-1.5,1.9-1.5l1.9,1v-1.4l0.5,0.5l-0.5,2.9l1.4,1.5l2.9-1h1v-3.4h0.5l1-1.9L461.2,566.7
			z M454.9,561.4c0.6-0.3,1-0.6,1.2-0.7c0.2-0.2-0.1-1.1-0.7-2.7l-1.9,2.9L454.9,561.4z M455.9,570.5c-0.6,0.3-1.3,0.8-1.9,1.4
			l-0.5,0.5L455.9,570.5z M455.9,566.7l0.5,1l0.5-1.5h-1V566.7z M458.3,569.6v-1.5h-1.4L458.3,569.6z M458.3,560.4l2.4-1v-1l-1.4,1
			L458.3,560.4z M459.7,563.8c0.6,0,1.2-0.2,1.7-0.5c0.5-0.3,0.9-0.5,1.2-0.5l0.5-1L459.7,563.8z M461.7,558.5h3.9v-2.9h-3.4
			L461.7,558.5z M465.5,567.6l-0.5-1.5h-1l-1,1.9l1.9,1L465.5,567.6z M464.6,561.8l1.4-1v-1l-2.4,0.5L464.6,561.8z M481.5,566.2
			l0.5-1l-3.4-0.5c0,1,0.6,1.6,1.9,1.9L481.5,566.2z M482.5,558h-1v2.4h1V558z M486.8,560.4l-0.5-1.5h-1v2.4L486.8,560.4z
			 M489.7,565.2l-2.4-1.9l1.4,0.5c0.6-1.3,1-2.1,1.2-2.4c0.2-0.3,0.2-0.7,0.2-1l-2.4,0.5l-1.4,1h-0.5v4.4L489.7,565.2z M485.8,562.8
			l1.5,0.5l-1.5-1.5V562.8z M491.2,570.1h-2.4v1l2.4,0.5V570.1z M490.7,560.4l1.4,1.4l2.4-1l-0.5-2.4h-2.4L490.7,560.4z
			 M491.2,565.2h1l-0.5-1.5h-1L491.2,565.2z M494.1,563.8v-1.4l-1-0.5l-0.5,1L494.1,563.8z M499.9,560.9v-2.4H497l-1.4,5.8h3.4
			L499.9,560.9z M505.2,565.2l-1.9,0.5c0-0.7,0.2-1,0.5-1c0-0.6-0.1-1.1-0.2-1.4c-0.2-0.3-0.2-0.7-0.2-1v-1l-2.9,2.9l2.4,1.9v0.5
			h-0.5c-0.3,1-0.5,1.8-0.5,2.4c0,0.3-0.2,0.5-0.5,0.5l1,1.9c1,0,1.9-0.8,2.9-2.4l-1-1l1.4-1L505.2,565.2z M501.8,567.6l-0.5-2.4h-1
			L501.8,567.6z M502.3,569.6l1.9-1.5l-1.4-1.4L502.3,569.6z M503.2,566.7v-1h-0.5v0.5L503.2,566.7z M512.9,561.8l-1.9,0.5v1.4
			l1.9,1l0.5-2.4L512.9,561.8z M526,559.4v-1l-1.9-1v1L526,559.4z M527.4,558.9h-1l0.5,1.9l1.9-0.5v-1L527.4,558.9z M529.8,562.8h-1
			v2.9h3.9L529.8,562.8z M534.7,556v2.4h0.5l-1.4,1.4h-1l0.5,4.4l3.4-2.9v-1.9l1.9,1l0.5-2.9h-1.9l-0.5-1L534.7,556z M536.6,557.5
			l-1.4,1l1.4,1V557.5z M538,562.3l2.9,3.4l1-1l-1.4-2.4H538z M547.2,558.5v-3.4l-4.4,3.4H547.2z M546.7,568.1
			c0.6-0.3,1-0.8,1.2-1.4c0.2-0.7,0.1-1.1-0.2-1.5l-2.9,0.5v2.9L546.7,568.1z M549.6,564.3c1.9,0,3.2-0.5,3.9-1.5l-2.4-2.9
			L549.6,564.3z M554,558.5h2.9l1-2.4c-1.3,0-2.4-0.5-3.4-1.4L554,558.5z"/>
		<path class="st0" d="M535.6,461.3h2.9v-3.4H538h1.9c1.3-0.3,2.1-0.8,2.4-1.4l-1-1.5v-1.4c11.6-3.2,23.5-10.7,35.8-22.5
			c12.2-11.8,22.2-28.3,30-49.5c1.9-4.2,4.7-6.3,8.2-6.3c2.6,0,4.9,0.7,7,1.9c2.1,1.3,3.1,2.6,3.1,3.9
			c-4.5,16.4-10.7,30.5-18.6,42.3c-7.9,11.8-16.6,21.4-26.1,29c-9.5,7.6-19.3,13.1-29.5,16.7c-10.2,3.6-19.7,5.3-28.8,5.3
			c-10.3,0-18.9-1.6-25.9-4.8c-6.9-3.2-12.6-7.4-16.9-12.6c-4.3-5.1-7.3-11.1-8.9-17.9c-1.6-6.8-2.1-13.9-1.4-21.3
			c0.6-9,2.5-18,5.6-27.1c3.1-9,7-17.6,11.8-25.9c4.8-8.2,10.5-15.7,16.9-22.5c6.4-6.8,13.5-12.4,21.3-16.9c5.5-3.5,11-6,16.4-7.5
			c5.5-1.4,10.5-2.2,15-2.2c4.8,0,9.2,0.7,13.1,2.2c3.9,1.5,6.6,3.6,8.2,6.5c4.2,6.1,6,12.6,5.3,19.3c-0.6,6.5-2.7,12.9-6,19.3
			c-3.4,6.5-7.6,12.3-12.6,17.6c-5,5.3-10.6,9.6-16.7,12.8c-6.1,3.2-12.2,4.8-18.4,4.8c-3.2,0-6.4-0.2-9.4-0.5
			c-3.1-0.3-5.6-1.6-7.5-3.9c-3.6,3.9-6,8.1-7.3,12.6c-1.3,4.5-2.3,8.9-2.9,13.1c-0.6,9.7,1,18,4.8,24.9c3.9,6.9,11,10.4,21.3,10.4
			c3.9,0,8.1-0.5,12.6-1.4l-3.4,3.4l-0.5-1l-3.4,2.4l2.9,2.4L535.6,461.3z M486.3,408.1l0.5-2.9l-2.4,1v1.9H486.3z M486.3,428.4
			l-0.5,1l2.9-1v-1L486.3,428.4z M491.2,412l-3.9,1.4v1h2.4L491.2,412z M493.1,398.5h-4.3l-1,3.9L493.1,398.5z M487.8,443.9v1.5
			l1,0.5l0.5-1L487.8,443.9z M495.5,436.7h-4.8l3.4,3.4L495.5,436.7z M490.7,445.8l3.4,0.5l0.5-1l-1.4-1.5L490.7,445.8z
			 M494.5,406.7l-3.4,2.4l1,3.4c0.6-0.3,1.3-0.6,1.9-1c0.6-0.3,0.8-0.5,0.5-0.5l-0.5-2.4L494.5,406.7z M491.6,433.3h3.9l-4.3-3.4
			L491.6,433.3z M492.1,424.6v1l1.9,0.5l1.4-2.4l-2.9,1H492.1z M493.1,366.1c1.3,1,2.9,1.5,4.8,1.5l2.4-4.4l-3.4-1l-3.4,1.9
			L493.1,366.1z M493.6,440.5v1l1.9,0.5v-1L493.6,440.5z M494.1,375.3l0.5,2.4h4.8l1.9-2.9l-4.4-1.9L494.1,375.3z M497.4,406.2
			l1.4,0.5v-3.9l-3.4,2.4L497.4,406.2z M498.4,380.6l-1.9,0.5c0,1.3,0.3,2.3,1,2.9l4.4-1L498.4,380.6z M498.4,443.9v-1h-1.9v1H498.4
			z M503.2,399.4l-3.4-3.4c-1.3,0-2.3,0.2-2.9,0.5l1,1.9l0.5,1.9l3.4,0.5L503.2,399.4z M501.8,410.1l-1-2.4l-3.4-0.5
			c-0.6,2.6,0,3.9,1.9,3.9L501.8,410.1z M501.8,390.3l3.4,3.4l1-3.4c-1,0-1.4-0.5-1.4-1.4l-2.9-2.9l-1,2.9L501.8,390.3z
			 M508.6,355.5v-1l-3.9-1v1L508.6,355.5z M510.5,370v-1l-4.8,0.5c1.3,1.3,2.6,1.9,3.9,1.9L510.5,370z M512.9,460.8l0.5-4.8
			l-2.9,1.9l-1.9,1.9c0.6,0.7,1.4,1,2.4,1H512.9z M510,380.1l2.4,1l4.3-1.9l-2.4-2.9l-1.9,0.5v1c-0.3,0-0.5,0.3-0.5,1L510,380.1z
			 M514.8,468.6l1,2.4l2.9-0.5l-1.9-3.4h-1L514.8,468.6z M518.7,370l2.4,1.9l1.9-3.9c0.6,0.7,1.6,0.2,2.9-1.4v0.5l1.4-2.9l-1-1
			l-3.9,3.9v0.5l-1-0.5l1-4.8l-3.9,0.5l-1.4,3.9l1,0.5l-2.4,2.9H518.7z M521.6,367.5v-0.5l-2.9-0.5l-0.5,0.5L521.6,367.5z
			 M533.7,355.5h-5.8l-1.4-0.5l-3.4,0.5c-0.7,0.6-1,1.3-1,1.9v-1.9l-3.4,1v1l2.9,1l2.4,1l1.9-2.9h1.4v1.4l2.9,0.5L533.7,355.5z
			 M520.6,463.7l3.4-0.5l0.5-5.3c-0.3,0.3-0.7,0.7-1.2,1.2c-0.5,0.5-0.9,1.1-1.2,1.7l-1.4-1.4l-1,3.9L520.6,463.7z M522.1,358.4v-1
			c-0.3,0-0.5,0.3-0.5,1H522.1z M523.5,367.5h-1c0.3,0,0.5,0.2,0.5,0.5L523.5,367.5z M558.8,336.1c-1.9,0-4.9,1.6-8.9,4.8
			c-4,3.2-8,7-11.8,11.4c-3.9,4.4-7.3,8.7-10.2,13.1c-2.9,4.4-4.5,7.7-4.8,9.9c-0.3,2.6,0.9,4.3,3.6,5.1c2.7,0.8,4.8,1.2,6,1.2
			c3.2,0,6.6-1.3,10.2-3.9c3.5-2.6,6.8-5.6,9.9-9.2c3.1-3.5,5.7-7.4,8-11.6c2.3-4.2,3.5-8,3.9-11.6c0-3.5-1.3-6.6-3.9-9.2H558.8z
			 M527.9,356.4v-1h-0.5v1H527.9z M533.2,457.9h-3.9v3.9h6.3l-2.9-3.4L533.2,457.9z M533.7,466.1l-1,1l1.5,2.4l1-1L533.7,466.1z
			 M537.1,457.4l1,0.5l-0.5-1L537.1,457.4z M540.9,466.6h0.5c-0.3,0-0.6,0.2-0.7,0.5c-0.2,0.3-0.4,0.5-0.7,0.5v1l2.4-1.5l1-3.4
			L540.9,466.6z M541.4,453.1l-0.5,0.5h0.5V453.1z M541.4,460.8v1l2.4-0.5v-1L541.4,460.8z M545.3,460.3v1l2.4-0.5v-1L545.3,460.3z"
			/>
		<path class="st0" d="M624.1,323.1c-0.3,6.5,1,12,4.1,16.7c3.1,4.7,6.5,9.8,10.4,15.2c1.6,2.3,3.2,4.4,4.8,6.5
			c1.6,2.1,3.1,4.4,4.4,7c8.4-6.4,17.4-11.7,27.1-15.7c9.7-4,20-6.2,30.9-6.5c6.4-0.6,10.6,1.1,12.6,5.1c1.9,4,2.6,8.6,1.9,13.8
			c-0.6,5.8-2.1,11-4.3,15.7c-2.3,4.7-4,5.7-5.3,3.1v0.5c-3.5-8.1-10.2-12.1-19.8-12.1c-5.2,0-10.7,0.9-16.7,2.7
			c-6,1.8-11.8,4.3-17.6,7.5c5.5,8.4,10.1,18.2,14,29.5c3.9,11.3,5.5,21.9,4.8,31.9c-0.6,5.2-2.3,10.4-4.8,15.7
			c-2.6,5.3-6.3,10.2-11.1,14.7c-4.8,4.5-10.6,8.3-17.4,11.4c-6.8,3.1-14.5,4.8-23.2,5.1c-4.5,0-8.9-0.7-13.3-1.9
			c-4.4-1.3-8.1-3.4-11.4-6.3c-3.2-2.9-5.7-6.6-7.5-11.1c-1.8-4.5-2.3-9.8-1.7-16c0.6-9,3.8-19.1,9.4-30.2
			c5.6-11.1,14.1-22.6,25.4-34.6l-1.4-2.4v0.5c-0.6-1-1.2-1.8-1.7-2.4c-0.5-0.6-0.9-1.3-1.2-1.9c-1.9-2.2-4.2-5.2-6.8-8.7
			c-2.6-3.5-5-7.7-7.2-12.3c-2.3-4.7-4.1-9.7-5.6-15.2c-1.4-5.5-1.9-11.4-1.2-17.9c0.6-5.8,2-11.7,4.1-17.6c2.1-6,5.1-11.4,8.9-16.4
			c3.9-5,8.5-9.1,14-12.3c5.5-3.2,12.1-4.7,19.8-4.4c6.1,0,11.4,1.4,16,4.1c4.5,2.7,8,6.2,10.4,10.4c2.4,4.2,3.9,8.9,4.3,14.3
			c0.5,5.3-0.1,10.6-1.7,15.7c-0.6,1.3-1.9,2.4-3.9,3.4c-1.9,1-3.9,1.4-6,1.4c-2.1,0-3.9-0.5-5.6-1.4c-1.6-1-2.1-2.7-1.4-5.3
			c1-8.7,1-15.7,0-21c-1-5.3-4.2-7.5-9.7-6.5c-4.8,1-9.4,4.2-13.8,9.7C625.8,309.7,623.8,316,624.1,323.1z M602.8,328.4h2.9l-1-1.9
			c-0.6-1.3-1-2.1-1-2.4l-3.4,1.9l0.5,1.9L602.8,328.4z M601.4,457c-1,8.7,0.5,14.5,4.3,17.4c3.9,2.9,8.4,3.7,13.5,2.4
			c5.2-1.3,10.1-4.5,14.7-9.7c4.7-5.1,7.3-11.6,8-19.3c1.3-12.9-3.5-27.2-14.5-43c-2.9,2.6-5.8,6-8.7,10.2c-2.9,4.2-5.6,8.8-8,13.8
			c-2.4,5-4.5,10-6.3,15C602.7,448.7,601.7,453.1,601.4,457z M614.9,327.4l-0.5-1.5h-1v1.5l-1.9,0.5l-0.5,2.4l-2.4,1.9l-0.5-0.5h0.5
			l-1.9-1.9c-0.6,0.7-1,1-1.2,1c-0.2,0-0.2,0.3-0.2,1l-1.9,0.5l-1,1.9c0.3,0,0.6,0.2,1,0.5c0.3,0.3,0.6,0.5,1,0.5l1,1.9l1-1h4.4
			l1.4-1.9l-2.4-1.5h2.4v-1.9l2.9-1.9h-0.5l1.4-0.5L614.9,327.4z M605.2,318.7l-0.5,1l-0.5-1l-1,2.9l1.4-0.5l-0.5,1.4h1l1-1.9
			L605.2,318.7z M607.6,299.9l-3.4,3.4l2.4,0.5l1.9-0.5L607.6,299.9z M608.1,312.9V310l-3.9-1v4.3L608.1,312.9z M605.2,319.7v1
			l-0.5,0.5v-1.5H605.2z M605.7,317.3c0.3,1.6,1.1,2.4,2.4,2.4c1.3-1,1.9-1.8,1.9-2.4l1.9,0.5l0.5-2.9h-2.4l-1.9,1h-1.9L605.7,317.3
			z M608.6,327.9l1-3.4l-3.9-0.5L608.6,327.9z M608.6,332.3l1,0.5h-1.4L608.6,332.3z M612.5,304.2l-3.4,3.4l2.9,0.5L612.5,304.2z
			 M612.5,329.4l-0.5,1.4l-1,0.5v-1L612.5,329.4z M619.2,299.4l1-3.9l-4.8,3.9H619.2z M617.3,370.4l-1.4,3.9l2.4,2.4l2.4-2.4l1-2.9
			l-1.5-1.9l-2.4-0.5L617.3,370.4z M620.2,308.6h-1v1.9h1V308.6z M626,373.3c-1.3,2.9-1,3.9,1,2.9l1.4-0.5h3.9l-2.9-2.9l-1.9-0.5
			L626,373.3z M628.9,359.3v-0.5c-1.3,0.6-1.8,1.3-1.4,1.9c0.3,0.6,1.1,1,2.4,1l1.4-0.5h2.4l-1.9-4.4L628.9,359.3z M634.2,363.2
			l-1,3.9l0.5,2.9l4.3-2.4l-0.5-5.3l-2.4-1l-1.4,1l-0.5,1H634.2z M639.1,397c0,1.3,0.3,1.9,1,1.9l1.9,0.5l2.4-2.4
			c0,0.3,0.3,0.5,1,0.5l1.9-0.5c1,0,1.3-0.5,1-1.5c0.6,0,1-0.5,1-1.4l1-1.5c0.3,0,0.5-0.2,0.5-0.5c0-0.3,0.2-0.6,0.5-1l1-0.5l0.5-1
			c0-0.6-0.2-1-0.5-1.2c-0.3-0.2-0.6-0.6-1-1.2l-2.4,2.4l-2.9-1l-2.4,1.9c0,1.3-0.3,1.6-1,1l-2.4,0.5v3.4h3.9v1l-1.9-0.5H640
			L639.1,397z M640.5,405.2l1.9,1.4l1-1l-0.5-0.5h0.5l1-4.8l-2.4,1c-1,1-1.4,1.8-1.4,2.4l-1,0.5L640.5,405.2z M643.9,396.5h1
			l-0.5,0.5C644.1,397,643.9,396.9,643.9,396.5z M644.4,419.7l2.9-1l0.5-1L644.4,419.7z M644.9,429.4l4.8,0.5l-3.4-3.9L644.9,429.4z
			 M647.3,441.5v-1l-1-0.5l-0.5,1L647.3,441.5z M652.1,401.4h-3.4l-0.5,3.9l4.3-1.9v-1L652.1,401.4z M656,414.9l1,1.5h1
			c0-0.3,0.1-0.6,0.2-1c0.2-0.3,0.2-0.6,0.2-1l1.9-1.9l-1-2.9c-1.6-0.6-3.2-0.6-4.8,0c-0.6,1-0.9,1.7-0.7,2.2
			c0.2,0.5,0.2,0.9,0.2,1.2h-2.9l2.4,5.3l2.9-1.9L656,414.9z M656,396.1l-2.9,1.9c1.6,1.6,3.7,2.4,6.3,2.4l0.5-3.9l-1.4-1L656,396.1
			z M658.9,405.7l-1.4-0.5v1l4.3,1l-2.9-3.9V405.7z M657.9,439.6l1,3.9l2.4-1.9l-0.5-3.4L657.9,439.6z M661.8,428.4v-4.8
			c-1.6,0-2.6,0.8-2.9,2.4L661.8,428.4z M660.3,417.8l2.9,1l1.4,1l2.4-1c0.3-1.3,0.3-2.1,0-2.4l-2.9-2.9L660.3,417.8z M671.4,429.9
			l0.5-3.9h-1l-1.9,2.4L671.4,429.9z"/>
		<path class="st0" d="M902,386.4c-1.9,7.7-5.1,16.7-9.4,26.8c-4.4,10.2-9.7,19.7-16,28.8c-6.3,9-13.5,16.7-21.8,23
			c-8.2,6.3-17.3,9.4-27.3,9.4c-6.4,0-11.9-0.7-16.4-2.2c-4.5-1.4-9-4.1-13.5-8c-5.5-5.2-9-12.3-10.6-21.5
			c-1.6-9.2-2.1-18.9-1.4-29.2c0.6-7.1,1.8-14.5,3.4-22.2c1.6-7.7,3.4-15.2,5.3-22.5c1.9-7.3,4-13.9,6.3-20.1
			c2.3-6.1,4.4-11.1,6.3-15c0.6-2.2,2.8-3.9,6.5-4.8c3.7-1,7.7-1.4,11.8-1.4c5.5,0,10.6,1,15.5,2.9c4.8,1.9,6.1,5,3.9,9.2
			c-1,2.6-2.7,7.1-5.3,13.5c-2.6,6.5-5.2,13.9-7.7,22.2c-2.6,8.4-5.1,17.2-7.5,26.3s-4,17.6-4.6,25.4c-0.6,7.4-0.2,13.8,1.5,19.1
			c1.6,5.3,4.8,8.5,9.7,9.4c5.5,1.3,10.6,0.2,15.5-3.4c4.8-3.5,9.3-8.4,13.5-14.5c4.2-6.1,8.1-13.1,11.8-20.8
			c3.7-7.7,7.3-15.5,10.9-23.2l4.8-10.2c1-1.3,2.3-2.1,4.1-2.4c1.8-0.3,3.5-0.3,5.1,0c1.6,0.3,3.1,1,4.4,1.9
			C901.8,384,902.3,385.1,902,386.4z M797.1,421.2c0,2.6,0.6,3.4,1.9,2.4c0.6,0,1-0.8,1-2.4l-1-1.5h-1l-0.5,1.5H797.1z M797.1,428.4
			l0.5,0.5l1-1.4h-1L797.1,428.4z M797.6,431.3h0.5l0.5-1.9h-1V431.3z M806.8,422.2l-1-1.9h-1l0.5-2.4l-1.4-2.4h-3.4l1.9,2.4
			c-0.3,0.3-0.5,1-0.5,1.9l2.9,0.5l-0.5,1.4L806.8,422.2z M802.9,431.8h-1l-0.5,1.5v2.4h1L802.9,431.8z M802.4,406.2h1l-1.4,1.9
			l2.4,1l0.5-2.4l-0.5-2.4l-2.4,1L802.4,406.2z M803.9,403.8l3.9-3.4c-1,0-1.8-0.3-2.4-1c0-1.3-1-1-2.9,1l1.5,1.9V403.8z
			 M805.8,407.7l-2.9,3.4h2.9v1l-1,1.9c0.6,0,1.6-0.6,2.9-1.9l1.9,0.5c-0.3-0.3-0.5-0.6-0.5-1c-0.3-0.3-0.5-0.6-0.5-1h1.5l-0.5-2.9
			l-3.9-0.5V407.7z M808.2,385.4l0.5-3.4l-2.9,0.5l-0.5,2.9H808.2z M805.8,407.7v3.4c0.6,0,1-0.3,1-1L805.8,407.7z M809.2,428.9
			l-0.5-2.4l-2.4,2.4c-0.3,0.3-0.2,0.8,0.5,1.5l-1,1l1.9,1c0-0.3,0.1-0.6,0.2-1c0.2-0.3,0.2-0.6,0.2-1l1.5-0.5L809.2,428.9z
			 M809.7,415.4l-3.4,0.5l1.9,2.9l1.9-0.5l-0.5,3.4h2.9l0.5-2.4l-2.4-0.5l-0.5-0.5l1.9-0.5L809.7,415.4z M811.1,375.3l-3.9-0.5
			l2.9,2.4L811.1,375.3z M807.7,399.4l0.5,2.4h1l2.4-2.4H807.7z M810.6,401.4l2.4,2.4l1.4-2.9l-1.9-1h-0.5L810.6,401.4z
			 M811.6,433.8h1l-1-1.9h-1L811.6,433.8z M813.1,407.2l2.4,1H814c-1-0.3-1.9,0.3-2.9,1.9l0.5,1.9c0.6,0.6,1.5,1,2.4,1l1.4-4.8
			l1.5-2.4H814L813.1,407.2z M811.6,423.6l-0.5,3.4h1l0.5-1.5l1-1.9H811.6z M813.5,388.3l-1.9,0.5v1l1,1L813.5,388.3z M811.6,468.6
			c1,0,1.6-0.1,1.9-0.2c0.3-0.2,0.8-0.4,1.5-0.7h-0.5l1.5-1v-1c-2.3,0-3.6,0.2-3.9,0.5L811.6,468.6z M812.1,423.6v1.9h0.5
			L812.1,423.6z M815,357.4c-1.9,0-2.4,0.8-1.5,2.4c0,1.3,0.8,1.9,2.4,1.9l0.5-3.4L815,357.4z M815.5,412c-1.6,1.9-2.4,3.1-2.4,3.4
			c0,0.3,0.5,0.5,1.4,0.5L815.5,412z M815.5,381.1c1,0,1.8-0.2,2.4-0.5v0.5l2.4,0.5l-1.4-1.9c0.3,0,0.6-0.2,1-0.5h-1l-1-1.4v1.4H815
			l-0.5,1L815.5,381.1z M814.5,386.9h2.4v-1l-1.9-1L814.5,386.9z M817.9,406.7l1.4,0.5l1.9-0.5v-1c-0.3,0-0.5-0.1-0.5-0.2
			c0-0.2-0.2-0.2-0.5-0.2c0-0.6-0.5-1-1.4-1v-2.9h0.5l-2.9-2.4l-0.5,3.9c0,1.6,0.8,2.4,2.4,2.4L817.9,406.7z M820.8,372.9l-1.5-1.5
			c-1.6,1-2.4,1.6-2.4,1.9l0.5,2.4c0.3,0.3,0.8,0.5,1.5,0.5c0.3,0,0.5,0.2,0.5,0.5h1c-0.3,0.6-0.2,0.4,0.5-0.7
			c0.6-1.1,1.3-2,1.9-2.7L820.8,372.9z M817.4,396.5l2.4,2.4l1-1L817.4,396.5z M818.9,470.5c0.6,0.3,1.4,0.6,2.2,1
			c0.8,0.3,1.7,0.2,2.7-0.5c0-1,0.2-1.8,0.5-2.4v-1.9l-4.4-0.5l-2.4,1.5v2.4L818.9,470.5z M818.9,379.6v-0.5h-1v1.5L818.9,379.6z
			 M818.9,367.5h3.4l-1-2.4c-0.7-1.6-1.3-2.4-1.9-2.4l-1,2.4L818.9,367.5z M819.3,382.5c0.3,2.3,1,3.2,1.9,2.9h1l1.4-2.9l-1.9-2.4
			L819.3,382.5z M820.8,464.7l1.9-1v-1l-2.9-0.5v1.9L820.8,464.7z M841.1,298.9c-2.3,3.5-4.8,5.1-7.7,4.6c-2.9-0.5-5.2-3-6.8-7.5
			c-1-2.6-1.8-5.6-2.4-9.2c-0.7-3.5-0.8-7.4-0.5-11.6c0.3-4.8,1.5-9.6,3.6-14.3c2.1-4.7,4.9-8.7,8.5-12.1c3.5-3.4,7.8-5.8,12.8-7.3
			c5-1.4,10.7-1.5,17.2-0.2c4.2,1.3,6.5,3.3,7,6c0.5,2.7-0.1,5.9-1.7,9.4c-1.6,3.6-4,7.3-7.3,11.1c-3.2,3.9-6.4,7.6-9.7,11.1
			c-3.9,4.5-6.4,7.9-7.5,10.2C845.5,291.5,843.7,294.7,841.1,298.9z M826.6,463.7l2.4-1c-0.3-1.3-1.1-1.9-2.4-1.9
			c-0.6,0-1.1,0.7-1.4,1.9L826.6,463.7z M826.1,355.5c2.6,0.6,3.9,0.2,3.9-1.5l-1-1.9h-1l-1,1.9L826.1,355.5z M830.5,458.9l1.5,0.5
			l1.9-0.5v-1l-1.4-1h-1.9V458.9z M833.4,270.4v-2.9c-1.9,1.9-2.6,2.9-1.9,2.9H833.4z M837.2,464.2c-0.7-0.6-1-1.1-1-1.4
			c0.3-0.6-0.7-0.6-2.9,0c-1.6,1-1.8,1.8-0.5,2.4v-0.5l0.5,2.4c0.6,0.3,1.3,1.1,1.9,2.4l2.4-2.4L837.2,464.2z M835.8,260.7l-3.4,0.5
			l2.4,2.9l1-1.9V260.7z M835.3,273.8l1-3.4c-2.3,1.3-3.4,2.1-3.4,2.4L835.3,273.8z M838.2,279.6v-1l-0.5-0.5l1-0.5l0.5-2.9h-3.9
			c-1,1-1.6,1.9-1.9,2.9v-0.5c-0.7,0.3-0.5,1.1,0.5,2.4H838.2z M837.2,255.4c-0.7-0.6-1.5-0.3-2.4,1l0.5,1.9l1.4-0.5l1.9,0.5
			l0.5-2.4L837.2,255.4z M838.2,267.5l-0.5-1.4h-1l-0.5,0.5c0,0.3-0.2,0.5-0.5,0.5L838.2,267.5z M837.7,251l-0.5,2.4l4.8,0.5
			c-0.3-1.9-0.8-2.9-1.5-2.9h-1v-0.5L837.7,251z M837.2,461.3c2.9,0,3.9-0.5,2.9-1.5l1-1.9l-3.4,0.5c-0.3,0.3-0.5,1-0.5,1.9V461.3z
			 M841.1,273.3l-0.5-0.5l1.9-1l0.5-2.9h-2.4c0,0.6-0.1,1.1-0.2,1.4c-0.2,0.3-0.2,0.8-0.2,1.5l-1.9,1.4l1.4,1.4
			c0.6,0.6,0.5,1.1-0.5,1.4c0.6,1,1.6,1.1,2.9,0.5c0.6-1,0.6-1.8,0-2.4v-1H841.1z M842.1,260.7v-3.4l-2.9-0.5l1.4,2.4L842.1,260.7z
			 M840.1,277.6l-1,3.4l1.4-0.5L840.1,277.6z M839.6,262.2c-0.3,1.3-0.2,1.9,0.5,1.9l1.9-0.5L839.6,262.2z M840.1,465.7
			c0.6,0,1.6,0.3,2.9,1c-0.3,0.6-0.2,0.8,0.5,0.5c0.6-0.3,1.3-0.8,1.9-1.4l0.5-2.9l-2.4,1h-1.9L840.1,465.7z M843,263.6h1.5v-1.4
			h-2.4L843,263.6z M844,276.2l-1.5,3.9c0.3-0.3,0.6-0.5,0.7-0.5c0.2,0,0.4-0.2,0.7-0.5c0.3,0,0.5-0.2,0.5-0.5L844,276.2z
			 M843.5,250.6h2.9v-1.9l-2.4,0.5L843.5,250.6z M843.5,458.4h1l1-1.9h-1L843.5,458.4z M845.4,269.4h1l1-2.9l-2.4,1.9L845.4,269.4z
			 M845,281l1,1h0.5v-1.9h-1L845,281z M852.7,254.4l-2.4-2.4l-0.5,2.4l-0.5-1.9l-2.9,0.5l-1,1l0.5,2.4h2.4v-1l1.4-0.5v1.4l-1,1.4
			c1,0,1.8-0.3,2.4-1l0.5-1.9L852.7,254.4z M846.4,269.9c1.3,0.6,1.9,0.8,1.9,0.5v-1.9l-1.5,0.5L846.4,269.9z M847.9,272.8l-1.4,1.9
			l0.5,1.4h1l1-3.9L847.9,272.8z M849.3,277.6l-0.5,0.5c-0.3,0-0.5,0.2-0.5,0.5l2.4,3.4l1-2.9c0-0.3,0.2-0.6,0.5-0.7
			c0.3-0.2,0.5-0.4,0.5-0.7v0.5c0.3-0.3-0.2-1-1.4-1.9h-1.9V277.6z M850.3,254.9l-0.5-0.5v0.5H850.3z M851.7,270.4l-0.5,2.4l1.9-0.5
			v-1.9H851.7z"/>
	</g>
	<g>
		<path class="st0" d="M200.8,793.9c-4.4,0-8.7-0.9-12.8-2.6c-4.1-1.8-7.8-4.2-11-7.3c-3.2-3.1-5.9-6.5-7.9-10.4
			c-2.1-3.8-3.2-7.8-3.5-11.9c-0.9-5.6-0.9-12.6,0-21.1c0.6-6.5,1.5-13.5,2.6-21.1c1.2-7.6,2.4-15,3.7-22.2c1.3-7.2,2.6-13.7,4-19.6
			c1.3-5.9,2.6-10.6,3.7-14.1l2.2-7.5v0.4c2.3-2.9,5.2-5,8.6-6.2c3.4-1.2,6.8-1.8,10.4-1.8c4.7,0,8.9,1,12.6,2.9
			c3.7,1.9,5.5,3.9,5.5,5.9c-2.1,5-4.6,12.3-7.5,21.8c-2.9,9.5-5.7,19.6-8.4,30.2c-2.6,10.6-4.9,20.6-6.8,30.2
			c-1.9,9.5-3,16.8-3.3,21.8c-0.6,7.6-0.4,12.8,0.7,15.6c1,2.8,2.4,4.2,4.2,4.2c1.5,0,3.1-0.8,4.8-2.4c1.8-1.6,3.5-3.5,5.3-5.7
			c1.8-2.2,3.4-4.5,4.8-7c1.5-2.5,2.6-4.8,3.5-6.8c4.4-9.4,8.7-20.4,12.8-33c4.1-12.6,7.9-24.7,11.5-36.1c1.8-5.3,3.4-10.5,5.1-15.6
			c1.6-5.1,3.2-9.9,4.6-14.3c1.5-4.1,3.9-7.1,7.3-9c3.4-1.9,7.1-2.9,11.2-2.9c5.3,0,10.1,1.3,14.3,4c4.3,2.6,5.6,5.7,4.2,9.2
			c-3.2,6.2-6,15.4-8.4,27.8c-2.4,12.3-4.8,26-7.5,41c-2.9,17.6-6.4,36.1-10.4,55.5c-4,19.4-8.9,37.4-14.8,54
			c-5.9,16.6-13.1,30.5-21.8,41.8c-8.7,11.3-19.2,17.7-31.5,19.2c-3.5,0.6-7.4,0.6-11.7,0c-4.3-0.6-8.4-1.8-12.3-3.7
			c-4-1.9-7.5-4.6-10.6-8.1s-5.2-8.1-6.4-13.7c-0.9-4.4-0.6-9.2,0.9-14.3c1.5-5.1,3.9-9.8,7.3-14.1c3.4-4.3,7.8-7.6,13.2-10.1
			c5.4-2.5,11.7-3.2,18.7-2c3.2,0.6,5.6,2.4,7,5.5c1.5,3.1,2.2,6.3,2.2,9.7c0,3.4-0.5,6.2-1.5,8.4c-1,2.2-2.4,2.6-4.2,1.1
			c-3.2-2.6-6.1-4.3-8.6-4.8c-2.5-0.6-5.2-0.9-8.1-0.9c-4.1,0-7.6,1.2-10.6,3.7c-2.9,2.5-4.8,6.2-5.7,11.2c-0.6,6.7,1,11.7,4.6,14.8
			c3.7,3.1,8,4.6,13,4.6c7.6,0,14.1-2.8,19.4-8.4c5.3-5.6,9.9-13.9,13.9-24.9c4-11,7.4-22.7,10.4-35c2.9-12.3,5.4-24.4,7.3-36.3
			c1.9-11.9,3.4-21.7,4.6-29.3h-1.3c-1.8,4.1-3.9,8.5-6.4,13.2c-2.5,4.7-5.2,9-8.1,13c-2.9,4-6,7.3-9.2,9.9
			C207.2,792.6,204,793.9,200.8,793.9z M175.7,773.7l2.2-2.2v2.2h0.9c0-0.3,0.2-0.7,0.7-1.1c0.4-0.4,0.8-0.8,1.1-1.1l1.3-0.4v-3.5
			l-2.2,2.2l-1.3,0.4l-1.8-1.8c-0.6,0.6-1,1.2-1.1,1.8c-0.2,0.6,0.1,1,0.7,1.3L175.7,773.7z M180.9,708.9c0.3-2.6-0.4-4.3-2.2-4.8
			l-0.9,2.6l-0.4,2.2H180.9z M179.2,767.5v-2.6l-1.8,0.9v1.3l0.9,0.4H179.2z M177.9,771.5l0.9-0.9l-0.4-0.4L177.9,771.5z
			 M179.2,716.9c-0.3,0.6-0.4,1-0.2,1.1c0.1,0.2,0.2,0.4,0.2,0.7v0.4c0-0.3,0.1-0.4,0.4-0.4c0.3,0,0.6-0.1,0.9-0.4l1.8,1.8v-0.4
			c0.3,1.8,1.2,1.9,2.6,0.4h0.9l2.2,0.9l0.9-2.6l-1.8-2.6c0-1.5-0.3-2.2-0.9-2.2h0.4l-1.8-1.8c-1.8,0.6-2.6,1.3-2.6,2.2l-1.3,1.3
			l-1.3,0.4L179.2,716.9z M184.5,686.9l-0.4-2.6l-1.3-1.8h-2.6l-0.4,2.2l0.4,2.6l1.8,0.4L184.5,686.9z M180.9,699.7l0.4,1.3l1.8-3.5
			l-2.6-0.4l-0.4,2.2L180.9,699.7z M183.1,669.3l-2.6,5.3l2.6-0.9V669.3z M181.4,773.7l-0.4,1.8l-0.4,2.2l3.1-0.9
			c1.2-0.3,1.8-1.3,1.8-3.1l-2.6-2.2L181.4,773.7z M181.4,762.2h3.1v-0.9l-1.3-0.9L181.4,762.2z M185.8,692.2l0.4-3.1h-0.9l-0.4,1.8
			L185.8,692.2h-3.1l-0.4,2.2c0.3,1.8,1.2,2.6,2.6,2.6c1.2-0.6,1.8-1.2,1.8-1.8h2.6l0.4-4.8h-3.1l-0.4,1.8H185.8z M184,707.2
			c1.2,1.2,2.3,1.2,3.5,0c-0.3-0.6-0.3-1.3,0-2.2l-2.2-0.4l-1.8-0.4L184,707.2z M185.8,779l-2.2,3.1h3.1c0.3-0.3,0.7-0.3,1.3,0
			l2.2-0.9l0.4-4.4l-3.5,2.2H185.8z M188,678.1h-0.9l-0.9,2.6c0.3,0.6,0.7,0.8,1.1,0.7c0.4-0.1,0.8-0.7,1.1-1.5L188,678.1z
			 M186.2,768.4h0.9l0.9-1.3h-0.9L186.2,768.4z M192.4,708.5l0.9-1.8h-0.9l-0.9,0.9l-3.1,0.4l-0.4,2.6l3.1,0.4l1.3-1.8V708.5z
			 M190.6,717.7c0.3-1.5,0.4-2.3,0.4-2.4c0-0.1-0.2-0.4-0.4-0.7l-2.6-2.2v4L190.6,717.7z M195,668.4c0-0.6,0.2-1.1,0.7-1.5
			c0.4-0.4,0.9-1,1.5-1.5l-3.1-0.4l-2.2,4.4L195,668.4z M195.9,694.4l0.4-3.1l-2.2,0.9v0.9L195.9,694.4z M199,683.4l-3.5-0.9
			l2.2,2.6L199,683.4z M204.3,672.8h-0.9l-0.9,1.3h0.9L204.3,672.8z M219.3,853l0.4-0.9l-2.6-3.1c0,1.5,0.3,2.5,0.9,3.1L219.3,853z
			 M221.5,842.8l-2.6-0.4c0.6,1.8,1,2.8,1.3,3.1v0.4l-1.3,2.6l2.6,0.9l1.8-1.8c-0.6-2.1-1.3-3.1-2.2-3.1L221.5,842.8z M220.6,844.6
			c0,0.3-0.1,0.4-0.2,0.4c-0.2,0-0.2,0.1-0.2,0.4c0,0.3,0.3,0.4,0.9,0.4v-1.3H220.6z M226.8,842.8l-3.5-0.4l0.4,2.6l2.2-0.9
			L226.8,842.8z M229,850.3l-3.5-3.1l-1.3,3.1c0.3,0.3,0.9,0.4,1.8,0.4l1.8,0.4L229,850.3z M226.3,842.4c0.9,0.3,1.5,0.4,1.8,0.4
			c0.3,0,0.6-0.4,0.9-1.3l-0.9-1.8c0.3-1.5,0.1-2.4-0.4-2.6l-2.2,0.4l-0.4,4.4L226.3,842.4z M227.2,836.2c0.6-0.6,0.8-1,0.7-1.1
			c-0.2-0.1-0.4-0.5-0.7-1.1V836.2z M230.7,827.4l0.4-4h-3.1v3.5L230.7,827.4z M230.3,827l-0.9-1.8h-1.3L230.3,827z M231.2,831.8
			h0.9v-2.2h-4l2.6,2.6L231.2,831.8z M232,852.5l-0.4-2.2l-2.6-0.4l0.4,2.6H232z M232.5,835.8l2.2-0.9l-0.4-2.6l-4.4,0.9
			L232.5,835.8z M230.7,816.4c-0.6,1.2-0.6,1.8,0,1.8l1.8,0.9l-0.4-2.6H230.7z M235.1,840.6c-0.3-0.3-0.4-0.7-0.4-1.3h-0.9v1.3
			l-1.8-0.9l0.4,1.8l-1.3,1.8l3.1,2.6c0-0.3,0.1-0.6,0.2-0.9c0.1-0.3,0.2-0.7,0.2-1.3l0.9,0.4l2.6-0.9l-1.8-2.2L235.1,840.6z
			 M234.2,820.8l-1.3,0.4l0.9,0.4v1.8h0.9c0-0.6,0.3-0.9,0.9-0.9l1.8,0.9c-0.3-0.3-0.4-0.6-0.4-0.9v-1.3l2.2-0.4
			c-1.2-0.9-1.9-1.4-2.2-1.5c-0.3-0.2-0.7-0.1-1.3,0.2l-0.9,0.4L234.2,820.8z M236.9,851.6l-1.3-1.8l-1.8,0.4v0.9l0.9,0.4v1.8
			c0,1.2,0.7,1.3,2.2,0.4V851.6z M238.6,782.5l-0.4-1.8l-3.1,0.4c1.2,1.2,1.9,1.8,2.2,1.8l1.3,0.4V782.5z M236.4,830.1v0.9l1.8,0.4
			v-0.9L236.4,830.1z M240.8,836.7l-0.4-2.6l-1.8-0.9c-1.5,0.9-2.2,1.5-2.2,1.8l1.3,1.8H240.8z M239.1,849v-1.8l0.4-2.2l-2.6-0.9
			l-0.4,2.2v3.1L239.1,849z M242.2,774.6l-0.9-0.4l-1.3,1.3l0.9,0.9L242.2,774.6z M241.3,815.5l-0.4,7l2.2-2.2l0.4-2.6L241.3,815.5z
			 M244.8,780.3l-3.5,3.1l3.1,0.4L244.8,780.3z M243,785.6l-1.8,0.4v0.9L243,785.6z M255.4,717.7c0.3-1.8,0.1-2.6-0.4-2.6l-0.4-1.3
			l-2.2-0.4v3.1l-0.9-0.9c0-1.5-0.2-2.2-0.4-2.2l-0.9-1.3c-1.2,0-1.8,0.4-1.8,1.3c-1.2-0.3-1.8-0.1-1.8,0.4l-1.3,1.3l-1.3,0.4
			l-0.4,0.9c-0.9,0.9-1,1.8-0.4,2.6c0-0.3,0.1-0.4,0.4-0.4c0.3,0,0.6-0.1,0.9-0.4c0,0.3,0.2,0.6,0.7,0.9c0.4,0.3,0.8,0.6,1.1,0.9
			c0,1.5,0.9,1.5,2.6,0h0.9c0.3,0.3,1,0.4,2.2,0.4l1.3-1.3c0.6-0.9,0.6-1.6,0-2.2h-0.4L255.4,717.7z M246.1,708.9
			c1.2-0.6,1.8-1.3,1.8-2.2s-0.9-1.8-2.6-2.6l-1.3,2.2l-0.9,2.6H246.1z M247.5,832.3c-0.6-1.2-1.2-1.8-1.8-1.8
			c-1.5,0-2.4,0.9-2.6,2.6v0.4c0.3,0,0.6-0.1,0.9-0.2c0.3-0.1,0.6-0.2,0.9-0.2v0.9h0.9l0.9-1.3L247.5,832.3z M247,776.3l-3.5,3.1
			l2.6-0.4v0.4l2.6-0.9v-0.9l-0.9,0.4v-0.4h-1.8L247,776.3z M251,772.4l-1.8-0.9h-2.6c0,1.2-0.4,1.8-1.3,1.8l4,3.5
			c0-0.3,0.1-0.6,0.2-0.9c0.1-0.3,0.2-0.7,0.2-1.3l1.8-1.3L251,772.4z M247,823h-0.9l-0.9,1.8h0.9L247,823z M245.7,827.4l1.8-0.4
			v-0.9l-1.3-0.9L245.7,827.4z M246.1,778.5v0.4l1.8-0.4v-0.4L246.1,778.5z M250.5,780.7l-3.1-0.4l-1.3,2.6c1.2,0.6,2.3,0.6,3.5,0
			L250.5,780.7z M250.1,765.7v1.8h3.5c-1.2-2.3-1.6-3.8-1.3-4.4l-2.6-0.4l-2.6,2.6L250.1,765.7z M248.3,699.7l0.4,1.3l2.2-3.5
			l-2.6-0.4l-0.9,2.2L248.3,699.7z M254.1,686.9l-0.4-2.2v-2.2H251l-2.2,2.2l1.3,2.6L254.1,686.9z M250.5,706.7
			c1.2,1.2,2.2,1.3,3.1,0.4c-0.3-0.6-0.3-1.3,0-2.2l-2.2-0.4l-1.8-0.4L250.5,706.7z M254.9,692.2l0.4-3.1h-0.9l-0.4,1.8L254.9,692.2
			h-3.1l-1.8,1.8c0.3,0.9,0.5,1.6,0.7,2.2c0.1,0.6,0.8,0.9,2,0.9c1.2-0.9,1.8-1.8,1.8-2.6l3.1,0.9l1.3-4.8h-3.1l-0.4,1.8H254.9z
			 M255.8,669.3l-2.6,4.8l0.9,0.4c0.6-0.9,1-1.3,1.3-1.3L255.8,669.3z M258,708h-4l-0.4,2.6l3.1,0.4l1.3-1.8V708z M259.3,677.6
			l-2.2,0.4v2.6c0.3,0.6,0.7,0.8,1.1,0.7c0.4-0.1,0.8-0.7,1.1-1.5V677.6z M258.5,707.6l0.4-0.9l-1.3,1.3L258.5,707.6z M263.8,694.4
			l2.6-3.1l-3.1,0.9L263.8,694.4z M268.6,668.4c0-0.6,0.2-1.1,0.7-1.5c0.4-0.4,0.9-1,1.5-1.5l-3.5-0.4l-2.6,4.4L268.6,668.4z
			 M269.9,683.4l-3.1-0.9l0.4,2.2L269.9,683.4z M277.4,671.5l-2.6,2.2l0.9,0.9L277.4,671.5z"/>
		<path class="st0" d="M312.2,793.1c-1.8-0.3-4-1-6.6-2c-2.6-1-5.3-2.2-7.9-3.5c-2.6-1.3-5.1-2.9-7.5-4.6c-2.3-1.8-4-3.5-4.8-5.3
			c-0.9-2.3-1.5-5.3-1.8-8.8c-0.3-3.5-0.3-7,0-10.6c0.9-8.2,2.9-17.2,6.2-26.9c3.2-9.7,7.2-19.2,11.9-28.4
			c4.7-9.2,10-17.7,15.9-25.3c5.9-7.6,11.9-13.4,18.1-17.2c5.9-3.8,12.3-6.8,19.4-8.8c7-2.1,13.8-3.1,20.3-3.1
			c8.5,0,15.9,1.9,22.2,5.7c6.3,3.8,9.5,10,9.5,18.5c-0.3,5-1.3,8.4-2.9,10.4c-1.6,1.9-3.3,2.8-5.1,2.6c-1.8-0.1-3.4-1-4.8-2.4
			c-1.5-1.5-2.2-3.4-2.2-5.7c0-3.8-1.3-7.3-4-10.6c-2.6-3.2-6.5-4.8-11.5-4.8c-6.8,0-14.1,4-22,11.9c-3.8,4.1-7.5,9.2-11,15.2
			c-3.5,6-6.9,12.4-10.1,19.2c-3.2,6.8-6.2,13.6-8.8,20.5c-2.6,6.9-4.8,13.1-6.6,18.7c-1.2,3.5-2,6.8-2.4,9.7
			c-0.4,2.9-0.8,5.6-1.1,7.9c-0.6,8.2,1.1,11.5,5.1,9.9c4-1.6,9.2-7.6,15.6-17.8l21.6-38.3l6.2-11c5-8.2,10.3-13.2,15.9-15
			c5.6-1.8,11.5-2.3,17.6-1.8c6.5,2.1,9.8,5,10.1,8.8c0.3,3.8-0.3,7.8-1.8,11.9c-2.6,5.3-4.8,11.5-6.4,18.7c-1.6,7.2-3,13.9-4.2,20
			c-0.9,4.7-1.2,9-0.9,12.8c0.3,3.8,1.1,6.8,2.4,8.8c1.3,2.1,3.1,3.1,5.3,3.1c2.2,0,4.8-1.3,7.7-4c2.9-2.9,5.9-7.3,8.8-13
			c2.9-5.7,5.6-11.7,8.1-17.8c2.5-6.2,4.7-12.1,6.6-17.8c1.9-5.7,3.2-10.2,3.7-13.4c0.3-1.5,1.3-2.6,3.1-3.3
			c1.8-0.7,3.6-1.2,5.5-1.3c1.9-0.1,3.7,0.2,5.5,0.9c1.8,0.7,2.6,1.7,2.6,2.9c-6.8,26.1-15.1,46.9-25.1,62.3
			c-10,15.4-22,23-36.1,22.7c-6.8,0-12.3-1.4-16.5-4.2c-4.3-2.8-7.6-6.3-9.9-10.6c-2.4-4.3-4.1-9.1-5.3-14.5
			c-1.2-5.4-2.1-10.9-2.6-16.5c-0.9,2.4-2.7,6.2-5.5,11.7c-2.8,5.4-6.2,10.9-10.1,16.3c-4,5.4-8.4,10.1-13.4,13.9
			C323.1,793.4,317.8,794.5,312.2,793.1z M300.3,759.6h-2.2c0-0.3,0.1-0.5,0.2-0.7c0.1-0.1,0.2-0.5,0.2-1.1l2.6-1.8l-3.5-2.6
			l-1.8-0.9l-1.3,0.9l-2.2,0.4c0,0.3-0.4,0.4-1.3,0.4c-0.3,1.2-0.6,1.8-0.9,1.8l-0.4,2.6l1.8,1.8l-0.9,0.9l-3.1,2.6h3.1l1.8-0.4
			l0.9-1.8l-0.4-1.3l2.6-0.9l2.2,0.9v2.6h2.2l1.3-2.2L300.3,759.6z M291.1,767.9c-2.3,0.6-3.4,2.1-3.1,4.4c0.3,0,0.7,0.3,1.3,0.9h4
			l1.3-6.2h-2.6L291.1,767.9z M292.4,760.5h0.4l-0.4-1.3l-0.9,1.3H292.4z M298.1,759.6h-0.4v0.9
			C297.7,760.2,297.8,759.9,298.1,759.6z M298.1,764.9c0,0.6,0.1,1.2,0.4,1.8l-0.9,0.4l1.8,0.9l1.3-3.1H298.1z M303.4,749.9
			l-2.6,2.6l3.1,0.4l3.1-2.2L303.4,749.9z M304.7,753.9l-2.2,2.6l2.6,0.4l1.8-0.4l0.4-2.2L304.7,753.9z M305.6,745.9l1.8,2.2
			l0.9-2.6l-0.4-1.8l-1.8,0.9L305.6,745.9z M309.6,772.4c-0.9,0-1.3,0.6-1.3,1.8c0,1.2,0.3,1.8,0.9,1.8l1.8-0.9
			c0.3-0.9,0.5-1.5,0.7-1.8c0.1-0.3,0.2-0.6,0.2-0.9H309.6z M314.4,693.1l-3.5,4l3.1-0.4L314.4,693.1z M314.4,689.1l0.9-3.1
			l-2.6,2.2L314.4,689.1z M317.9,691.7l-2.6,0.4v4L317.9,691.7z M320.6,681.6h-2.2l-0.4,0.9h2.2L320.6,681.6z M321,696.1
			c0.3-1.8,0.4-2.8,0.4-3.1l-2.2-0.9c-1.5,3.2-1,4.6,1.3,4H321z M322.8,689.5l-3.1,0.4v0.9L322.8,689.5z M326.3,683.4
			c-1.2-0.6-2.1-0.9-2.6-0.9l-2.6,3.1l2.6,0.4c1.5,0,2.3-0.1,2.6-0.4V683.4z M327.6,676.8l1.8,2.6l3.1-2.6l-0.9-2.2L327.6,676.8z
			 M332,667.5h-2.6l-0.9,2.6h4L332,667.5z M343.9,665.3c-2.9,0.9-4.1,1.8-3.5,2.6l-0.4,1.3l-1.3-0.4v2.2v0.9
			c1.5-0.6,2.5-1.2,3.1-1.8l-0.4-2.2L343.9,665.3z M340.4,668c0,0.3,0.1,0.4,0.4,0.4l0.4-0.4H340.4z M347.4,666.6l-0.9-0.9l-2.2,1.8
			l0.4-0.9l-2.6,0.9v0.9h1.8l0.4-0.9l0.9,0.9L347.4,666.6z M345.2,663.1l1.3-0.4v-0.9l-1.8,0.4L345.2,663.1z M348.3,671.5
			c0-0.9,0.3-1.6,0.9-2.2c0.3-0.3,0.4-0.6,0.4-0.9l-2.6-0.9c-0.6,1.8-0.3,2.6,0.9,2.6L348.3,671.5z M350.5,666.2v-0.9l-1.8,0.4v0.9
			L350.5,666.2z M351.8,660h0.9l-0.4-1.3h-0.9L351.8,660z M356.2,664l-0.9-2.2l-3.1,1.3v0.9c0.3,0,0.5,0.1,0.7,0.2
			c0.1,0.1,0.4,0.2,0.7,0.2h-0.4c0.6,0.6,1.3,0.6,2.2,0L356.2,664z M359.3,657.8v2.6l-0.9,2.6l5.3-4.4L359.3,657.8z M365.1,653.4
			l-0.9-1.3h-0.9c0,0.3-0.3,0.7-0.9,1.3l1.8,1.8L365.1,653.4z M365.9,756.1v-4c-2.4,2.6-2.9,4-1.8,4H365.9z M368.6,743.7l-3.5,0.9
			l2.6,3.5l0.9-2.6V743.7z M368.1,760l1.3-4c-2.6,1.2-4,2.1-4,2.6L368.1,760z M374.7,759.1l-0.4-0.4l2.2-0.9l0.4-3.5h-2.6
			c0,0.6-0.1,1.1-0.2,1.5c-0.2,0.4-0.2,1-0.2,1.5l-2.2,2.2l0.9,1.3h-2.2l-2.2,0.4c-0.3,0.3-0.7,0.7-1.1,1.1c-0.4,0.4-0.8,1.1-1.1,2
			V764c-0.6,0.6-0.3,1.6,0.9,3.1h4.8v-1.3l-0.9-0.4l1.3-0.4l0.4-4l0.4,0.4c0.6,0.6,0.4,1.2-0.4,1.8c0.9,0.9,2.1,1,3.5,0.4
			c0.6-1.5,0.6-2.5,0-3.1c0-0.6-0.2-1-0.4-1.3H374.7z M370.3,737.6c-0.6-0.6-1.5-0.3-2.6,0.9l0.4,2.6l1.8-0.9l2.2,0.9l0.4-3.1
			L370.3,737.6z M372.5,656.1l-0.4-0.9l-2.2,1.3l-0.9,1.8h0.9c0.3,0,0.4-0.1,0.4-0.4c0-0.3,0.1-0.6,0.4-0.9L372.5,656.1z
			 M371.7,752.1l-0.4-1.8h-1.3c-0.3,0.3-0.4,0.6-0.4,0.9c0,0.3-0.2,0.4-0.4,0.4L371.7,752.1z M371.2,732.3l-0.9,2.6l5.7,0.9
			c-0.6-2.3-1.2-3.5-1.8-3.5H373v-0.9L371.2,732.3z M373.4,764.9l-0.9,4l0.9-0.4l-3.1,3.1h3.5v-3.1l0.4-0.4L373.4,764.9z
			 M375.6,743.7l0.4-4l-3.5-0.4l1.8,3.1L375.6,743.7z M373,745.5c-0.3,1.8-0.2,2.6,0.4,2.6l2.6-0.4L373,745.5z M373.9,767.9
			l-0.4,0.4h0.4V767.9z M377.8,747.2l0.9,0.4v-2.2h-2.6l0.9,1.8H377.8z M377.8,763.1l-1.3,4.4c0.6-0.3,1.2-0.7,1.8-1.3l0.4-0.4
			L377.8,763.1z M377.4,731.8h3.5v-2.6l-3.1,0.4L377.4,731.8z M379.6,754.7h0.9l1.3-3.5l-2.6,2.2L379.6,754.7z M379.2,768.8l0.9,1.3
			h0.9l-0.4-2.6h-0.9L379.2,768.8z M380.9,734.5l-1.3,1.3l0.4,2.6l2.6,0.4c0-0.3,0.1-0.5,0.2-0.7c0.1-0.1,0.2-0.4,0.2-0.7l1.3-0.4
			v1.3l-0.9,1.8c1.2,0,2.1-0.3,2.6-0.9l0.4-2.2l2.2,2.2l0.4-3.5l-2.2,0.4l-2.2-2.6l-0.4,2.6L384,734L380.9,734.5z M380.9,755.2
			c1.5,1.5,2.2,1.6,2.2,0.4v-2.2l-1.8,0.4L380.9,755.2z M382.2,758.7l-1.3,2.6l0.4,1.3h0.9l1.3-4.4L382.2,758.7z M384,764.9
			c0,0.3-0.3,0.4-0.9,0.4c-0.3,0-0.4,0.2-0.4,0.4l3.1,4l0.9-3.1c0-0.3,0.3-0.7,0.9-1.3c0.6-0.6,0.1-1.3-1.3-2.2H384V764.9z
			 M384.9,736.7l-0.4-0.4v0.9L384.9,736.7z M385.8,736.2l0.9,0.9v-0.4l0.9-0.4h-0.4H385.8z M386.6,756.1l-0.4,2.6l2.2-0.4v-2.6
			L386.6,756.1z"/>
		<path class="st0" d="M468.6,682.9l0.9,0.4l2.6-2.2c-4.4,11.5-8.1,23.3-11.2,35.7s-5.2,22.2-6.4,29.5h0.9
			c3.5-9.7,7.4-19.2,11.7-28.6c4.3-9.4,8.7-18.2,13.4-26.4c4.7-8.2,9.2-15.7,13.7-22.5c4.4-6.7,8.4-12.2,11.9-16.3
			c3.8-3.2,8.1-4.5,13-3.7c4.8,0.7,9.1,2.5,12.8,5.3c3.7,2.8,6.2,6.3,7.5,10.6c1.3,4.3,0.4,8.3-2.9,12.1
			c-4.7,5.3-8.7,12.7-12.1,22.2c-3.4,9.5-6.1,19-8.1,28.4c-2.1,9.4-3.4,17.8-4,25.1c-0.6,7.3-0.3,11.5,0.9,12.3
			c0-0.3,0.1-0.7,0.2-1.1c0.1-0.4,0.2-0.8,0.2-1.1l0.4-0.9c0.3-0.6,0.5-1.2,0.7-1.8c0.1-0.6,0.5-1.5,1.1-2.6
			c2.1-6.5,5.1-14.5,9-24.2c4-9.7,8.1-19.4,12.6-29.3c4.4-9.8,8.7-18.9,12.8-27.3c4.1-8.4,7.5-14.6,10.1-18.7v0.4
			c3.2-3.2,8.2-4.8,15-4.8c3.8,0,7.8,0.5,11.9,1.5c4.1,1,7.6,2.6,10.6,4.6c2.9,2.1,5,4.4,6.2,7c1.2,2.6,0.9,5.7-0.9,9.3l-9.7,25.1
			c-2.6,7.6-5,15.7-7,24.2c-2.1,8.5-3.4,16.9-4,25.1c-0.9,11.2-0.6,21.1,0.9,29.7c1.5,8.7,4.3,14.8,8.4,18.3c5,3.8,10.4,4.5,16.1,2
			c5.7-2.5,11.2-5.5,16.5-9h-0.4l2.2-1.3c-0.6,2.4-2.1,5.6-4.6,9.7c-2.5,4.1-5.8,7.9-9.9,11.5c-4.1,3.5-8.9,6.2-14.3,7.9
			c-5.4,1.8-11.4,1.3-17.8-1.3c-10.9-4.1-18.4-12-22.5-23.8c-4.1-11.7-5.4-26-4-42.7c1.2-15.3,4.7-32,10.6-50.2
			c1.8-6.5,2.6-11,2.6-13.7c0.3-2.3,0.1-3.5-0.7-3.5c-0.7,0-1.7,0.7-2.9,2c-1.2,1.3-2.5,3.2-4,5.5c-1.5,2.4-2.8,4.8-4,7.5
			c-1.8,3.5-3.9,8.1-6.4,13.9c-2.5,5.7-5.3,12-8.4,18.7c-3.1,6.8-6.2,13.9-9.5,21.4c-3.2,7.5-6.5,14.9-9.7,22.2
			c-1.8,1.5-4.8,2.1-9.3,1.8c-4.4-0.3-8.8-1.2-13.2-2.6c-4.4-1.5-8.3-3.4-11.7-5.9c-3.4-2.5-4.9-5.4-4.6-8.6
			c0.3-2.3,0.9-5.8,1.8-10.4c0.9-4.5,2-9.8,3.3-15.6c1.3-5.9,2.7-12,4.2-18.3c1.5-6.3,3.1-12.4,4.8-18.3l-1.8-0.4
			c-5,5.6-10.7,15-17.2,28.2c-6.5,13.2-13.1,30.2-19.8,51.1v-0.4c-1.2,1.8-3.4,2.4-6.6,1.8c-3.2-0.6-6.8-1.9-10.6-4
			c-3.8-2.1-7.3-4.6-10.4-7.7c-3.1-3.1-4.9-6.2-5.5-9.5c0-4.4,0.8-11.2,2.4-20.5c1.6-9.2,3.6-19,5.9-29.3c2.4-10.3,4.7-19.9,7-28.9
			c2.3-9,4.1-15.3,5.3-19.2c1.8-3.2,4.5-5.7,8.1-7.3c3.7-1.6,7.3-2.4,10.8-2.4c2.9,0,5.7,0.3,8.4,0.9c2.6,0.6,4.9,1.3,6.8,2
			c1.9,0.7,3.3,1.6,4.2,2.6c0.9,1,1,2,0.4,2.9c-2.1,3.2-4,6.8-5.9,10.8c-1.9,4-3.7,8.3-5.5,13l-2.6,0.4L468.6,682.9z M439.5,727.4
			l2.2,1.8l2.2-4.4c-1.8-1.8-2.6-1.9-2.6-0.4c0,0.6-0.3,1.2-0.9,1.8v-0.4l-3.1,2.2L439.5,727.4z M440.8,721.7h0.9l0.9-2.2l-0.9,0.9
			l-0.9-0.4V721.7z M443,718.6h-0.4v0.4L443,718.6z M444.3,729.2c-0.6,0.9-0.3,1.6,0.9,2.2l1.8-0.4l0.4-2.2l-2.2-2.6L444.3,729.2z
			 M448.3,712.4c-0.9,0.9-1.3,1.8-1.3,2.6l-0.9,0.4l-0.4,1.8l-0.4,1.3l0.9,1.8c1.2,0,2.1-0.3,2.6-0.9l3.1-2.6
			c-0.3,0-0.7-0.1-1.1-0.2c-0.4-0.1-1-0.2-1.5-0.2c0-0.3-0.1-0.5-0.2-0.7c-0.2-0.1-0.2-0.4-0.2-0.7l1.3-0.4l0.4,0.4l3.5-1.8
			c-1.2,0-2.1-0.3-2.6-0.9l0.4-2.6h-3.1L448.3,712.4z M450.1,688.7h1.3c0.6,0,0.9-0.1,0.9-0.4c0-0.3-0.3-0.6-0.9-0.9h0.9l0.9-2.2
			h0.4c0.3,0,0.4-0.1,0.4-0.2c0-0.1,0.1-0.2,0.4-0.2c0,1.2-0.2,1.8-0.4,1.8c0.9,0.6,1.9,0.7,3.1,0.4c0.3-1.2,0.3-2.1,0-2.6l-0.9-1.3
			l1.8-0.9c1.2-0.9,1.8-1.9,1.8-3.1h-2.6c0,0.3-0.1,0.5-0.2,0.7c-0.2,0.1-0.2,0.4-0.2,0.7l-1.8,1.8h0.4l-2.6,0.9l0.4,1.8l-2.2-0.4
			c-0.6,0-0.9,0.1-0.9,0.2c0,0.2-0.2,0.2-0.4,0.2h-0.4l-1.3,1.8l-0.9,2.2l1.8,0.4L450.1,688.7z M449.6,683.4l3.5-3.1l-4.8,0.9
			c-0.9,1.2-1.3,1.8-1.3,2c0,0.2,0.3,0.2,0.9,0.2H449.6z M450.5,723.9l-3.1-0.4l-0.4,2.6l2.2-0.4L450.5,723.9z M447.9,680.7l3.1-3.1
			l-2.6,0.9L447.9,680.7z M452.7,694.4l0.9-3.1l-2.6,0.4l-0.4,0.9L452.7,694.4z M454.9,687.3l-4,3.1h3.5L454.9,687.3z M454.5,669.7
			l-2.6,0.4v2.2l2.6-0.9V669.7z M454,677.6l-0.4-2.2h-1.3l-0.4,2.2H454z M453.6,684.7h-0.4v0.4L453.6,684.7z M454.5,759.1l-0.4-1.8
			h-0.9L454.5,759.1z M457.1,664.9l-1.8,0.4l-0.9,2.2l2.2,0.4l2.2-2.2L457.1,664.9z M458.9,686.9l-2.6,3.1l2.6-0.9V686.9z
			 M459.3,660c0,0.3-0.1,0.5-0.2,0.7c-0.2,0.2-0.2,0.4-0.2,0.7l-1.3,0.4v0.9l4.8,0.9c0.6-1.5,0.9-2.4,0.9-2.9c0-0.4-0.3-0.7-0.9-0.7
			h-1.8l-1.3-0.9V660z M457.6,671.9v0.9l1.8,0.4v-0.9L457.6,671.9z M458,691.7l2.2,0.9V690h-0.9L458,691.7z M460.6,669.3l2.2-2.2
			l-3.1-0.9l-0.4,2.6L460.6,669.3z M462.4,674.1l0.9-0.9l-0.9-1.8l-2.2,0.4v0.9l1.3,0.4L462.4,674.1z M463.3,683.4l-0.9,1.3
			l-0.9,2.6l5.3-4.8L463.3,683.4z M462.4,680.3l1.8-0.9v-0.9l-1.8,0.4V680.3z M464.2,688.7l-0.4,1.8l1.3,1.8v0.4l2.6-2.6
			c0.9-1.2,0.7-2.1-0.4-2.6H465L464.2,688.7z M465,659.6v0.9h2.6c-0.6,0-1-0.4-1.3-1.3v-0.4l-0.9,1.3L465,659.6z M474.3,664l0.4-0.9
			h-3.5l-1.8-0.4h-2.6l-0.9,3.5l2.2,0.9l2.6-2.2v2.6l2.2-0.4l0.9-0.9l1.3,1.8l1.3-2.6l-0.9-1.8L474.3,664z M472.5,680.7h-0.4v0.4
			L472.5,680.7z M491.5,754.3h1.3v-0.9l-0.4-0.4h1.8l-1.8-2.6c-0.9,0.6-1.4,1-1.5,1.3c-0.2,0.3-0.4,0.6-0.7,0.9l-0.9,1.3
			L491.5,754.3z M491.9,749l0.9-3.5c-2.6,2.4-3.2,3.5-1.8,3.5H491.9z M492.4,758.3l0.4-0.9l-1.3-0.4l-0.4,0.9L492.4,758.3z
			 M495.4,737.1h-2.2l-0.4,0.9l1.3,0.9L495.4,737.1z M495.9,747.7c0.6-0.6,1-1,1.3-1.3c0.3-0.3,0.4-1.2,0.4-2.6l-1.8,1.8l-2.6,3.5
			v2.2l2.6,0.9c0-2.3-0.2-3.7-0.4-4L495.9,747.7z M496.8,731.8l-2.2,0.4l0.9,2.2h0.9l0.9-2.2L496.8,731.8z M496.3,751.2l-0.9,2.6
			l-0.9,0.9l0.9,0.9l1.8-1.3L496.3,751.2z M494.6,756.5l3.5,0.9v-2.6L494.6,756.5z M499,726.1l-3.1,3.5l4.8,0.4
			c0.6-1.8,0.4-2.6-0.4-2.6L499,726.1z M496.3,738v0.9l1.3,0.9v-0.9L496.3,738z M498.1,736.2l2.6-0.9l-2.6-4v3.1l-0.9,1.3
			L498.1,736.2z M499.8,748.1l-0.4,2.2l-1.3,2.6l4.8-5.3L499.8,748.1z M499.8,738.4H499l0.4,1.3h0.9l-0.4-1.8V738.4z M499,745.9
			l1.8-0.9v-0.9l-1.8,0.4V745.9z M502,701h1.3c0.9,0,0.9-0.4,0-1.3h0.4v-0.4c0.6,0.6,1,0.9,1.3,0.9l-3.5,3.1l3.1-0.4l0.9-2.6
			l1.8-0.9c0.3-0.6,0.4-1.5,0.4-2.6c0-0.9-0.2-1.5-0.4-1.8l0.4-0.4l1.3-0.4c0.6-0.6,0.9-0.9,1.1-0.9c0.1,0,0.4-1,0.7-3.1l-2.6,0.9
			l-1.8,2.2l-2.2,1.8v2.2l-1.3-0.4c-1.5,0.3-2.2,0.9-2.2,1.8l-1.3,0.4l0.9,1.8L502,701z M500.3,753.9l-0.4,1.8l2.6-0.9
			c0.6-0.6,0.8-1,0.7-1.3c-0.2-0.3-0.2-0.7-0.2-1.3l-2.6,0.9V753.9z M502.5,694.8l1.3-2.6l-0.4-0.9l-2.2,1.3L502.5,694.8z
			 M503.4,726.1l-0.9,1.8h2.2c-0.3-1.8-0.6-2.6-0.9-2.6C503.5,725.2,503.4,725.5,503.4,726.1z M508.2,730.5l-2.2-1.3l-2.2,0.9
			l-1.3,3.1l2.2-0.4l0.4,0.9l2.2-0.4v-0.9l0.4,0.4h0.9l0.9-1.8L508.2,730.5z M502.9,748.1h0.9l1.3-1.8h-0.9L502.9,748.1z
			 M503.8,698.8v0.4l0.4-0.4H503.8z M504.7,697.9c0,0.3-0.2,0.6-0.4,0.9l0.4-1.8V697.9z M508.2,680.7l-3.5,0.4l0.4,1.8h0.9
			L508.2,680.7z M506,688.7l0.9-1.8H506l-1.3,1.8H506z M505.6,699.7l-0.4,0.4h0.4V699.7z M510,675.4l-1.8,0.4l-0.9,2.6l3.1,0.9
			l0.9-3.5L510,675.4z M508.2,698.3l-0.4,2.6c0,0.3-0.2,0.6-0.4,0.9l0.4,0.9l2.2-1.3L508.2,698.3z M507.3,703.2l2.6,2.6l0.4-4
			L507.3,703.2z M509.5,682.9v0.9l1.3,0.9v-0.9L509.5,682.9z M513.1,670.2h-0.9l-0.4,1.8l-1.3,0.9l4,1.3c1.5-2.3,1.6-3.5,0.4-3.5
			h-1.8V670.2z M511.7,680.3l1.8-0.4l0.4-2.2l-2.2-0.9V680.3z M513.1,694.8l-1.3,2.2v3.5l4.4-6.6L513.1,694.8z M512.6,683.4l0.4,1.3
			h0.9l-0.4-1.3H512.6z M512.6,692.2l3.1-2.6l-3.1,0.4V692.2z M512.6,702.8h2.6l2.2-0.9c0-1.5-0.2-2.3-0.4-2.6h-3.1L512.6,702.8z
			 M523.6,675l-2.2-1.3h-1.8l-2.2-0.4l-0.4,3.5l1.8,0.9l2.2-2.2v1.8h-0.9l2.2,3.5c0-1.2,0.1-1.9,0.4-2.2c0.3-0.3,0.4-0.6,0.4-0.9
			c0-0.3,0.1-0.6,0.4-0.9l1.3,1.8l1.8-2.6l-1.3-1.3L523.6,675z M517.5,671h2.6c-0.6-1.5-1.1-2.3-1.5-2.4c-0.4-0.1-0.7,0.1-0.7,0.7
			l-0.4,1.3V671z M517.5,693.9l0.9,0.9l1.8-2.2l-0.4-0.9L517.5,693.9z M558,767.5c-0.3-0.6-0.4-1.2-0.4-1.8l-2.6-0.4l1.8,4.4h0.9
			L558,767.5z M559.3,779l0.4,2.2c0,0.6,0.2,0.9,0.7,0.9c0.4,0,1.1-0.7,2-2.2L559.3,779z M562.4,787.8l0.9-1.8
			c-0.3-1.5-0.7-2.2-1.3-2.2c-0.6,0-1.5,0.1-2.6,0.4l0.9,1.8l0.4,1.3L562.4,787.8z M561.1,726.5h3.5c0.9-0.9,1-1.8,0.4-2.6v0.4
			c-0.3-0.9-0.5-1.5-0.7-2c-0.2-0.4-0.8-0.7-2-0.7l-1.3,2.2V726.5z M574.3,734.9c0.6-1.2,0.6-2.1,0-2.6l0.9-1.3l-3.1,0.9v2.2
			c-0.9-0.9-1.3-1.5-1.3-1.8l0.4-1.8l-1.8-0.4c-1.8,0.6-2.9,1.2-3.5,1.8h0.4c-1.2,0.6-1.9,0.9-2.2,0.9l-1.8,0.9v0.9
			c-0.3,0.3-0.2,1,0.4,2.2l2.2-0.4c0,0.3,0.1,0.4,0.4,0.4c0.3,0.3,0.6,0.4,0.9,0.4c-0.6,1.2,0.1,1.3,2.2,0.4l1.8-0.9l-0.4,1.3
			l3.1-0.9v-2.2H574.3z M565,753.9c2.3-0.6,3.2-1.8,2.6-3.5c-0.6,0-1-0.1-1.3-0.4l-0.4-1.3H565l-1.3,4.8L565,753.9z M566.4,784.2
			h2.2c0-0.6,0.1-1.1,0.2-1.5c0.1-0.4,0.1-0.8-0.2-1.1l-2.2,0.4l-1.3,0.4l-0.4,0.9L566.4,784.2z M567.2,716.9l-0.9-3.1h-0.9
			l-0.4,1.8L567.2,716.9z M569.9,704.5l-0.4-3.5l-2.6-0.9c-0.6,0.6-0.9,1-0.9,1.3c0,0.3-0.2,0.6-0.4,0.9l0.4,2.6L569.9,704.5z
			 M567.2,745.9l3.1-0.4l0.4-2.6l-0.4-2.6l-3.1,2.2h0.4l-1.8,0.9l-0.4,3.1L567.2,745.9z M570.3,686.9l-3.5,4l2.6,0.9l1.8-1.8
			L570.3,686.9z M573.4,784.2l-1.3,3.1l-2.6-0.4c-1.5,0.9-2.2,1.6-2.2,2.2c-0.3,0.6-0.4,1.2-0.4,1.8l0.4,1.3h3.1
			c0.6,0.6,1.5,0.6,2.6,0c0-0.3,0.1-0.5,0.2-0.7c0.1-0.1,0.2-0.4,0.2-0.7l1.3,0.4l0.9-2.2l-1.8-1.3h2.6L573.4,784.2z M567.2,712
			c0,0.6,1.3,1.3,4,2.2l1.3-2.2l2.2,0.4l0.4-4.8l-3.1,0.4l0.4-1.8l-3.5,3.1l-0.4,0.4L567.2,712z M570.8,766.6l-0.4-2.2l-3.1,0.9
			l2.2,3.1L570.8,766.6z M568.1,724.3c0.9,0.9,1.8,1.3,2.6,1.3l0.4-3.5l-3.1-0.4V724.3z M569,709.4l-0.4,0.4l2.6,0.4v-0.4L569,709.4
			z M572.5,775.4h-4v2.2h2.6L572.5,775.4z M571.2,710.2l0.9-2.2v2.2H571.2z M574.7,781.6l0.9-2.2l-2.2,2.2l-1.8,0.4v2.2
			c1.5-0.3,2.3-0.5,2.4-0.7c0.1-0.1,0.4-0.5,0.7-1.1V781.6z M572.5,734h-0.4v0.4l0.9,0.4c0-0.3-0.1-0.4-0.2-0.4
			C572.6,734.5,572.5,734.3,572.5,734z M572.1,787.3v0.4h1.8L572.1,787.3z M577.4,726.1h2.2L576,723v2.6l-2.6-0.4l-0.4,2.2l-0.4,1.8
			c0.3-0.3,0.6-0.4,0.9-0.4c0.6,0,1-0.1,1.3-0.4c1.2,0,1.8-0.3,1.8-0.9L577.4,726.1z M574.7,797.5l1.8-1.8l0.4-2.6h-3.1l-0.4,2.2
			c0.3,0,0.4,0.3,0.4,0.9l-0.9,1.8L574.7,797.5z M576,695.7h-0.9l-1.3,1.8h0.9L576,695.7z M577.8,801.9c1.2-0.9,0.9-1.6-0.9-2.2
			l-1.8-0.4v2.6H577.8z M583.1,685.1v-4l-2.6,0.9l-0.4,5.3L583.1,685.1z M582.2,711.6v-2.6l-1.8,0.9v0.9L582.2,711.6z M585.3,701.4
			l-0.9-3.1l-2.6,2.6l1.3,1.8L585.3,701.4z M591,692.2h-0.4l1.3-0.4v-0.9l-1.8-1.3l-0.4,3.1h0.4l-0.4,1.3h0.9L591,692.2z
			 M590.1,692.6l0.4-0.4h-0.4V692.6z M625.8,789.1v0.9l0.4-0.4L625.8,789.1z"/>
		<path class="st0" d="M637.7,780.3c0-15.9,11-27.3,26.4-27.3c15.4,0,25.5,11.5,25.5,27.3c0,15.4-10.1,27.3-26.4,27.3
			C648.3,807.6,637.7,795.7,637.7,780.3z M648.7,717.7l-6.2-211.9h42.3l-6.2,211.9H648.7z"/>
	</g>
	<g>
		<path class="st0" d="M813.7,574.1c0.6-5.2,0.9-10.5,1.8-15.7c3.4-19.7,12.6-32.8,24.7-42.2c2.4-1.9,4.4-0.8,5.4,2.9
			c1.4,5.1,2.7,10.2,3.9,15.4c1,4.2,0.1,6.5-2.9,8.1c-5.2,2.7-10.1,6.2-14,12c-3.7,5.6-6.1,12.1-7.3,20c5.5,0.9,10.2,2.3,15.6,0.1
			c31.8-12.9,64.8,9.5,79.9,53.6c16.9,49.2,4.9,109.8-27.3,138.1c-12.1,10.6-25.3,15-39.4,13.9c-1.5-0.1-3.1,0.3-4.5,1.1
			c-21.5,11.9-43,11.6-64.3-1.1c-1.3-0.8-2.8-1.7-4.2-1.6c-34.3,2.2-63.1-32.9-70.9-79.5c-8.2-48.7,8.5-100.3,39.7-121
			c15.4-10.2,31.4-11.6,47.7-4.6C804,576.3,806.8,576.4,813.7,574.1z M831.6,776.4c0.2,0.4,0.4,0.7,0.7,1.1c1.6-1.5,3.4-2.7,4.8-4.5
			c9.3-11.5,14.8-26.3,18.6-42.6c6.3-27.5,6.5-55.6,3.2-83.9c-1.7-14.5-4.6-28.4-10.4-40.7c-4.1-8.7-9.4-15.5-16.7-18.3
			c-2.9-1.1-5.8-1.6-9.4,0.9c1.9,1.1,3.1,1.9,4.3,2.6c10.1,5.7,15.3,17.4,18.6,31.2c4.4,18.5,5.6,37.7,5.8,57.1
			c0.4,33.4-4.6,64.8-17.9,92.8C832.6,773.5,832.1,775,831.6,776.4z M804.4,777.5c0.3-0.4,0.6-0.8,0.8-1.3c-0.8-2-1.6-4.1-2.5-6.1
			c-4.8-10.5-8.7-21.6-11.4-33.5c-5.9-25.8-6.7-52.2-4.9-78.9c1-15.1,2.8-30,7.4-43.9c3.8-11.4,9.4-19.9,18-23.9
			c0.7-0.3,1.3-0.9,2.7-2c-1.7-0.6-2.8-1.5-3.7-1.3c-3.4,0.8-7.1,1.1-10.2,3.2c-9.4,6.5-14.8,18.3-18,31.9
			c-8.9,36.9-9.4,74.1-0.8,111.3c3.4,14.7,8.7,27.9,16.8,38.5C800.3,773.9,802.5,775.6,804.4,777.5z M854.7,589.6c0,0.4,0,0.8,0,1.2
			c1.1,0.4,2.2,0.8,3.4,1.1c16,4.7,29,15.5,35.7,37.5c8.6,28.2,9.5,57.1,1.6,86.2c-5,18.3-14,32.2-24.3,44.6
			c-1.1,1.4-2.1,2.9-3.2,4.3c0.2,0.4,0.3,0.8,0.5,1.1c1.9-1.1,4-2,5.8-3.4c11.1-8.6,19.9-20.7,25.7-36.6
			c12.5-33.8,11.8-68.2,0.3-102.1c-6.7-19.6-18.3-31-33.5-34.6C862.7,588.1,858.6,587.7,854.7,589.6z M782.3,590.8
			c0-0.5,0-1.1,0-1.6c-2.3-0.3-4.6-0.9-6.9-0.7c-17.2,1.2-30.3,12.7-38.3,34.2c-10.1,27.2-11.6,56.2-5.4,85.6
			c5,23.4,15.3,41.1,30.1,53.3c2.1,1.8,4.5,2.8,7.5,4.6c-0.5-1.7-0.6-2.2-0.7-2.4c-0.8-1.1-1.6-2.1-2.4-3.1
			c-8.1-9.7-15.5-20.3-20.8-33.5c-9.6-24.3-11.1-50.1-7.2-76.9c4.5-31.3,17.2-51.1,39.4-57.9C779.2,591.9,780.7,591.3,782.3,590.8z"
			/>
	</g>
</g>
</svg>
