<?xml version="1.0" encoding="utf-8"?>
<!-- Generator: Adobe Illustrator 22.0.0, SVG Export Plug-In . SVG Version: 6.00 Build 0)  -->
<svg version="1.1" id="Layer_1" xmlns="http://www.w3.org/2000/svg" xmlns:xlink="http://www.w3.org/1999/xlink" x="0px" y="0px"
	 viewBox="0 0 1080 1080" style="enable-background:new 0 0 1080 1080;" xml:space="preserve">
<style type="text/css">
	.st0{fill:#680B10;}
</style>
<g>
	<g>
		<path class="st0" d="M334.3,370.6c0.7,0.4,1.2,1,1,1.9c-0.1,0.8-0.6,1.3-1.4,1.5c-0.2,0.1-0.4,0.1-0.6,0.1c-2,0.2-2,0.3-2.1,2.2
			c-0.3,5.2,0,10.5-0.3,15.7c-0.3,5.5-0.2,10.9-0.3,16.4c-0.2,6.8-0.4,13.6-0.7,20.5c-0.1,3-0.2,6.1-0.2,9.1c0,1.3,0.1,1.4,1.4,1.6
			c0.3,0,0.6,0,0.9,0.1c0.7,0.2,1.2,0.7,1.3,1.5s-0.2,1.4-0.9,1.7c-0.7,0.3-1.6,0.3-2.4,0.2c-1.5-0.2-2.9-0.5-4.3-0.9
			c-2.9-0.9-5.9-0.7-8.8,0.2c-0.5,0.2-1,0.3-1.6,0.5c-2.5,0.9-4.5,0.1-6.2-1.8c-0.8-0.9-1.6-2-2.1-3.3c-2.3-5.6-4-11.3-5.4-17.2
			c-1.5-6.4-2.8-12.9-3.9-19.4c-0.6-4.2-0.9-8.5-1.5-12.7c-0.4-3.4-0.9-6.7-1.8-10.1c-0.4,1.2-0.5,2.3-0.5,3.5
			c0.2,8.8-0.4,17.6-0.5,26.4c0,4.4-0.1,8.8-0.3,13.2c-0.2,5.4-0.6,10.7-0.6,16.1c0,1.7,0,1.7,1.7,1.9c0.3,0,0.6,0,0.9,0.1
			c0.6,0.2,1,0.7,1.2,1.5c0.1,0.7-0.2,1.3-0.8,1.6c-0.7,0.4-1.6,0.5-2.4,0.4c-1.4-0.2-2.7-0.4-4.1-0.8c-3.1-1-6.3-0.8-9.4,0.2
			c-0.7,0.2-1.5,0.4-2.2,0.6c-0.7,0.2-1.5,0.3-2.2,0.2c-0.7-0.2-1.3-0.7-1.4-1.6c0-0.7,0.4-1.4,1-1.5c2.3-0.2,2.1-1.8,2.2-3.5
			c0.3-7,0.2-14.2,0.3-21.3c0-1.8,0.3-3.6-0.4-5.4c-0.5-1.3-1-2.4-2.4-3c-0.9-0.5-1.2-1.4-0.8-2.1c0.3-0.8,1.2-1.2,2.2-0.8
			c0.3,0.1,0.6,0.2,0.9,0.3c0.2,0.1,0.4,0.2,0.6,0c0.3-0.4,0.2-0.9,0.2-1.5c0-8.6,0.4-17.2,0.3-25.8c0-0.4,0-0.8,0-1.3
			c-0.1-1.3-0.2-1.4-1.5-1.7c-0.2,0-0.4,0-0.6,0c-0.7-0.2-1.3-0.6-1.4-1.5c0-0.7,0.5-1.4,1.5-1.6c0.7-0.2,1.5-0.2,2.2,0
			c1.2,0.2,2.3,0.5,3.5,0.8c3.3,0.9,6.4,1.2,9.5-0.2c1.4-0.6,2.8-0.9,4.3-1c1.8-0.1,2.5,0.4,3,2.1c0.5,1.7,0.7,3.5,1,5.1
			c1.5,7.1,2.3,14.4,3.4,21.6c1.4,9.2,2.4,18.6,4.8,27.7c0.7,2.7,1.6,5.5,3.1,7.9c0.3,0.4,0.6,0.8,0.9,1.3c0.4,0.4,0.7,1.3,1.5,1
			c0.6-0.2,0.3-1,0.3-1.6c0.4-6.3,0.2-12.6,0.3-18.9c0-0.8,0-1.7,0.1-2.5c0.2-1.7-0.2-3.3-0.8-4.8c-0.4-0.8-0.9-1.6-1.9-2
			c-0.2-0.1-0.3-0.2-0.4-0.3c-0.7-0.5-0.9-1.3-0.6-2c0.3-0.7,1-1,1.9-0.9c0.6,0.1,1.3,0.8,1.8,0.3c0.5-0.5,0.2-1.4,0.2-2.1
			c0.1-8.4,0.5-16.8,0.4-25.2c0-0.5,0-1,0-1.6c0-0.9-0.3-1.5-1.3-1.5c-0.3,0-0.6-0.1-0.9-0.2c-0.6-0.2-1-0.7-1-1.5
			c0-0.6,0.3-1,0.8-1.4c0.7-0.3,1.5-0.3,2.2-0.2c1.2,0.2,2.3,0.5,3.5,0.8c3.4,1,6.7,1.3,10-0.2c1.2-0.5,2.4-0.8,3.7-1
			c0.7-0.1,1.5-0.1,2.2,0.3L334.3,370.6z M290.2,393.6c0.2-5.8,0.4-11.5,0.4-17.3c0-1.2-0.1-1.3-1.3-1c-2.1,0.4-4.1,0.1-6.1-0.1
			c-0.2,0-0.4,0-0.6,0c-0.6-0.1-0.9,0.2-0.9,0.8c0,0.3,0,0.6,0,0.9c0,8.2,0,16.4-0.3,23.9c0,2.6,0,4.7,0,6.8c0,0.9,0.2,1.2,0.9,0.8
			c2.2-1,4.4-1.2,6.6,0c0.5,0.3,0.8,0.1,0.8-0.5c0-0.5,0-1,0-1.6c0.1-4.1,0.1-8.2,0.3-12.3L290.2,393.6z M286.1,398.3
			c1,0.2,2.1,1.7,2.1,2.8c0,0.8-0.4,1.5-1,1.9c-0.7,0.4-1.5,0.3-2.2-0.1c-1.2-0.7-1.7-2.1-1.3-3.4c0.3-0.9,1.3-1.6,2.1-1.4
			L286.1,398.3z M327.3,393c0.2-5.8,0.4-11.5,0.4-17.3c0-1.2-0.1-1.3-1.3-1c-2.1,0.4-4.1,0.1-6.1-0.1c-0.2,0-0.4,0-0.6,0
			c-0.6-0.1-0.9,0.2-0.9,0.8c0,0.3,0,0.6,0,0.9c0,8.2,0,16.4-0.3,23.9c0,2.6,0,4.7,0,6.8c0,0.9,0.2,1.2,0.9,0.8c2.2-1,4.4-1.2,6.6,0
			c0.5,0.3,0.8,0.1,0.8-0.5c0-0.5,0-1,0-1.6c0.1-4.1,0.1-8.2,0.3-12.3L327.3,393z M325,401.1c0,0.8-0.4,1.5-1.2,1.9
			c-0.7,0.4-1.5,0.2-2.1-0.2c-1.2-0.7-1.6-2.1-1-3.4c0.3-0.8,1.2-1.4,2-1.3C323.8,398.4,325,399.9,325,401.1z"/>
		<path class="st0" d="M390.2,386.6c3.1,6.5,4.5,13.4,4.5,21.2c-0.1,8.4-2,16.9-6.7,24.7c-2.5,4.1-5.7,7.6-9.8,10.2
			c-7.7,4.8-17,4-23.7-2.1c-4.1-3.8-6.9-8.4-8.8-13.6c-1.7-4.5-2.5-9.1-2.8-13.9c-0.1-2.2-0.6-4.3-2.5-5.8c-0.6-0.5-0.9-1.2-0.5-2
			c0.3-0.7,0.9-0.9,2.1-0.7c1.3,0.2,1.3,0.2,1.5-1.2c1.2-8.3,3.9-15.9,9.1-22.6c2.8-3.6,6.3-6.4,10.6-8.1c5.9-2.3,11.5-1.8,16.9,1.5
			c4.8,2.8,8.1,7,10.5,12L390.2,386.6z M356,407.7c-0.1-4.2,0.4-8.4,1.4-12.5c1.4-5.9,3.3-11.5,6.8-16.5c0.6-0.9,1.5-1.8,2.2-2.6
			c-0.1-0.1-0.2-0.2-0.3-0.3c-0.2,0-0.4,0-0.6,0.1c-5,1.5-8.7,4.7-11.6,8.8c-3.6,5-5.6,10.7-6.6,16.7c-0.4,2.3-0.7,4.6-0.7,6.9
			c0,0.6,0.1,1.3,1,0.9c2.5-0.9,5-1.2,7.6,0c0.5,0.2,0.8,0,0.8-0.5c0-0.3,0-0.6,0-0.9L356,407.7z M351.4,401.4c1.2,0,2.4,1,2.5,2.1
			c0,0.9-1,1.9-2.2,1.9c-1.3,0-2.4-1-2.4-2.2c0-0.9,0.8-1.6,2.1-1.6V401.4z M387.9,425.7c3.4-8.2,4.3-16.7,3-25.4
			c-0.7-5.4-2.3-10.5-5.2-15.1c-2.5-3.9-5.7-7-10.1-8.8c-0.9-0.3-1.8-0.3-2.7,0c-1.9,0.6-3.3,1.8-4.4,3.3c-2.4,2.9-4,6.3-5.2,9.9
			c-2.5,6.9-3.7,14.2-3.4,20.1c0,4.7-0.1,8,0.3,11.2c0.5,4,1.7,7.8,3.8,11.2c1.8,2.9,4.2,5.2,7.4,6.4c3.3,1.2,6.3,0.9,8.9-1.8
			c3.1-3.3,5.6-6.9,7.2-11.1L387.9,425.7z"/>
		<path class="st0" d="M452.2,441.7c0.2,0.8-0.2,1.5-0.9,1.9c-1,0.6-2.2,0.6-3.4,0.4c-1.2-0.2-2.4-0.4-3.6-0.8
			c-2.4-0.9-4.8-0.7-7.2,0.1c-0.5,0.2-1,0.4-1.6,0.5c-0.9,0.1-1.7-0.4-1.9-1.3c-0.2-0.8,0.2-1.4,0.9-1.8c0.9-0.5,1.9-1,2.8-1.6
			c0.7-0.4,1-0.9,0.9-1.8c-0.6-4.1-1-8.2-2.3-12.1c-0.5-1.6-1-3.1-1.8-4.6c-2.4-4.8-7.2-6.3-12.1-6.1c-0.8,0-1.4,0.5-1.5,1.4
			c-0.1,1-0.3,2.1-0.3,3.1c0,5.5-0.3,10.9-0.6,16.4c0,0.4,0,0.8,0,1.3c0,2.2,0,2.2,2.2,2.6c0.9,0.2,1.6,0.8,1.6,1.7
			c0,0.8-0.5,1.4-1.3,1.7c-0.6,0.2-1.3,0.2-1.9,0.1c-1.5-0.2-2.9-0.4-4.3-0.9c-3.1-1-6.2-0.7-9.2,0.3c-0.8,0.3-1.7,0.6-2.5,0.8
			c-0.7,0.2-1.5,0.2-2.2,0c-0.6-0.2-1-0.6-1.2-1.3c-0.1-0.5,0.2-0.9,0.6-1.3c0.4-0.3,0.9-0.4,1.5-0.5c0.8-0.1,1.2-0.6,1.2-1.5
			c0-1.7,0-3.4,0-5c0.1-6.7,0.2-13.4,0.3-20.1c0-1.3-0.1-2.5-0.6-3.8c-0.5-1-1-2-2.2-2.6c-1-0.5-1.3-1.4-0.8-2.1
			c0.4-0.7,1.2-0.9,2.3-0.6c0.2,0.1,0.4,0.2,0.6,0.3c0.5,0.2,0.8,0,0.9-0.5c0.1-0.7,0.2-1.5,0.2-2.2c0-3.9,0.1-7.8,0.1-11.6
			c0-3.7,0.3-7.2,0.3-10.9c0-1.2,0-2.3,0-3.5c0-0.8-0.3-1.4-1.3-1.5c-1.6-0.2-2.1-0.7-2.1-1.6c0-1,0.9-1.7,2.5-1.7
			c1.3,0,2.5,0.3,3.8,0.7c3.6,1.2,7.1,1.4,10.7-0.2c1.6-0.7,3.4-0.9,5.1-0.9c2.6,0,5.2-0.3,7.9,0.3c4.6,1,8.7,2.9,12,6.5
			c1.8,1.9,2.9,4.1,3.5,6.6c2.3,11.2-0.6,20.8-9.2,28.5c-0.9,0.8-0.9,0.8,0,1.7c3.4,2.9,5.7,6.6,7.1,10.8c1.2,3.4,1.9,6.8,2.2,10.4
			c0.1,1.5,0.5,2.8,0.9,4.2c0.2,0.8,0.6,1.4,1.6,1.3c0.2,0,0.4,0,0.6,0c0.7,0.1,1.3,0.5,1.5,1.3V441.7z M417.9,377.1
			c0-1.3-0.2-1.6-1.4-1.4c-1.9,0.4-3.8,0-5.7-0.1c-1.7-0.1-1.7-0.1-1.7,1.6c-0.1,6-0.2,12-0.3,17.9c-0.1,3.7,0,7.3-0.3,11
			c-0.1,0.8-0.1,1.7,0.1,2.6c0.2,0,0.3,0,0.4,0c2.3-1.2,4.6-1.5,7-0.2c0.7,0.3,0.9,0.1,0.9-0.9c0.1-2.2,0.1-4.4,0.2-6.6
			c0.2-6.8,0.6-13.6,0.5-20.5C417.8,379.4,417.9,378.3,417.9,377.1z M411.4,399.7c0.9-0.6,2-0.3,2.9,0.8c0.4,0.5,0.6,1.2,0.6,1.9
			c0,0.8-0.3,1.6-1.2,2c-0.7,0.4-1.5,0.2-2.1-0.3c-0.3-0.2-0.6-0.5-0.8-0.8c-0.7-1.2-0.4-2.7,0.6-3.5L411.4,399.7z M427.4,405.1
			c3.7-4.4,5.4-9.7,5.4-15.4c-0.1-3-0.5-6-1.7-8.8c-1.3-3.1-3.7-4.9-6.8-5.8c-2.3-0.6-2.7-0.3-2.7,2c0,8.4-0.2,16.8-0.6,25.2
			c-0.1,1.7-0.1,3.4-0.1,5c0,1,0.2,1.3,1.3,0.9c2.1-0.6,4-1.7,5.4-3.4V405.1z M435.9,408.6c0.5,0.4,0.9,0.3,1.4-0.1
			c0.3-0.3,0.6-0.6,0.9-0.9c5.8-6.9,7.7-14.8,5.5-23.6c-0.4-1.8-1.4-3.3-2.7-4.6c-2.8-2.9-6.5-4.3-10.7-5.2c3.4,3.3,4.6,5.2,5.5,9.3
			c0.9,4.5,1.3,9,0.5,13.6c-0.5,2.9-1.3,5.8-2.5,8.5c-0.5,1.3-0.5,1.3,0.6,1.9c0.6,0.3,1.2,0.6,1.6,1V408.6z"/>
		<path class="st0" d="M506.7,376.2c0.6,1.8,0.9,3.7,0.8,5.6c0,0.8-0.2,1.7-0.6,2.4c-0.5,0.9-1.4,1.3-2.2,0.9
			c-0.8-0.3-1.4-1.2-1-2.1c0.6-1.6,0.3-3.1,0.1-4.7c-0.2-1.2-0.8-1.9-2-2.2c-1.5-0.4-2.9-0.8-4.5-0.8c-1.7,0-3.4,0-5,0
			c-0.6,0-1.3,0.1-1.8,0.2c-1.7,0.4-1.9,0.7-1.9,2.4c0,2.2,0,4.4,0,6.6c0,6.5-0.4,13-0.6,19.5c0,0.5,0,1,0,1.6
			c-0.1,7.4-0.1,14.9-0.4,22.3c-0.1,3-0.1,6.2-0.4,9.2c-0.1,0.9,0,1.9,0,2.8c0,0.8,0.4,1.3,1.3,1.3c0.5,0,1,0,1.6,0.2
			c0.7,0.3,1.2,0.8,1.2,1.6s-0.4,1.2-1,1.5c-0.5,0.2-1.2,0.2-1.8,0.2c-1.6,0-3-0.4-4.5-0.8c-3.1-1-6.3-0.8-9.4,0.2
			c-0.8,0.3-1.8,0.5-2.7,0.7c-0.4,0.1-0.9,0.1-1.4,0c-0.9-0.1-1.5-0.7-1.6-1.5c-0.1-0.7,0.3-1.4,1.2-1.7c0.2-0.1,0.4-0.1,0.6-0.1
			c1.5-0.4,1.5-0.4,1.5-2.1c0-3.3,0-6.5,0.1-9.8c0.1-4.9,0.2-9.9,0.3-14.8c0-1.3-0.1-2.5-0.6-3.8c-0.4-1-0.9-2-2.1-2.6
			c-1-0.5-1.3-1.3-0.9-2c0.3-0.8,1-1.2,2.1-0.9c0.2,0,0.4,0.1,0.6,0.2c0.8,0.3,1.2-0.1,1.3-0.8c0.1-0.6,0.1-1.3,0.1-1.9
			c0-2.6,0.1-5.2,0.1-7.9c-0.1-5.5,0.3-10.9,0.3-16.4c0-2.1,0-2.1-2-2.4c-3-0.5-6.1-0.9-9.2-0.4c-1,0.2-1.6,0.6-1.8,1.6
			c-0.4,1.9-1,3.7-0.5,5.7c0.3,1.2-0.3,2-1.3,2.2c-0.8,0.2-1.8-0.3-2.2-1.4c-0.4-1.2-0.6-2.3-0.4-3.5c0.2-1,0.4-2.1,0.7-3.1
			c0.5-1.8,0.9-3.6,0.8-5.5c-0.1-1.2,0.3-1.8,1-2s1.5,0.1,1.9,1.2c0.4,1,1,1.2,2,0.9c1.8-0.3,3.6-0.2,5.4,0
			c3.5,0.4,6.9,0.8,10.3,1.7c2.4,0.6,4.8,0.2,7.1-0.6c5.5-2,10.9-2.6,16.6-1.5c0.7,0.1,1.3,0,1.5-0.8c0-0.2,0.1-0.4,0.2-0.6
			c0.4-0.7,0.9-1.2,1.8-0.9c0.7,0.1,1,0.6,1.2,1.4c0,0.2,0,0.4,0,0.6c0,1.6,0.4,3,0.9,4.5L506.7,376.2z M484.8,386.1
			c0-2.9,0-5.1,0-7.3c0-1,0-1.2-1-0.9c-2,0.5-4,0.5-6.1,0.4c-1.5-0.1-1.5-0.1-1.5,1.5c-0.1,6.3-0.2,12.6-0.3,18.9
			c-0.1,3.7-0.1,7.3-0.3,11c-0.1,1.3,0.1,1.4,1.3,0.8c2-0.9,4-1,6.1,0c1.2,0.5,1.3,0.4,1.3-0.9c0-2.2,0-4.4,0.1-6.6
			c0.2-6,0.4-12,0.6-17.2L484.8,386.1z M481.9,404.3c0,1.3-0.9,2.2-2.1,2.2c-1.3,0-2.5-1.4-2.5-2.7c0-1.3,0.9-2.3,2-2.3
			C480.6,401.4,481.9,402.9,481.9,404.3z"/>
		<path class="st0" d="M565.8,370.1c1,0.3,1.6,1,1.5,1.9c-0.1,0.8-0.7,1.5-1.7,1.7c-0.3,0.1-0.6,0.1-0.9,0.1
			c-1.4,0.1-1.6,0.3-1.6,1.8c0,1.6-0.1,3.1-0.1,4.7c0.1,6.2-0.3,12.4-0.5,18.6c-0.2,5-0.2,10.1-0.4,15.1c-0.2,6.5-0.4,13-0.6,19.5
			c-0.1,1.5-0.3,2.9-0.2,4.4c0.1,1.3,0.2,1.5,1.4,1.7c0.3,0,0.6,0,0.9,0.1c0.7,0.2,1.3,0.7,1.4,1.6c0.1,0.8-0.3,1.4-0.9,1.7
			c-0.7,0.3-1.5,0.3-2.2,0.2c-1.5-0.2-2.9-0.4-4.3-0.9c-3-1-6.1-0.7-9.1,0.2c-0.7,0.2-1.5,0.4-2.2,0.6s-1.5,0.3-2.2,0.2
			c-0.7-0.1-1.3-0.5-1.4-1.3c-0.1-0.7,0.3-1.3,0.9-1.6c0.2-0.1,0.5-0.2,0.8-0.3c1.6-0.5,1.6-0.5,1.6-2.2c0-0.9,0-1.9,0-2.8
			c0.1-6.4,0.2-12.8,0.4-19.2c0-1.6-0.2-2.9-1.4-4.2c-1.4-1.5-2.9-2.6-5-2.9c-2.9-0.5-5.2,0.6-7.4,2.3c-0.5,0.4-0.5,0.9-0.5,1.5
			c-0.1,2.3-0.2,4.6-0.2,6.9c0,5.5-0.3,10.9-0.6,16.4c0,0.4,0,0.8,0,1.3c0,2.2,0,2.2,2.2,2.6c0.9,0.2,1.6,0.7,1.6,1.6
			c0,0.8-0.5,1.4-1.3,1.7c-0.6,0.2-1.3,0.2-1.9,0.1c-1.4-0.2-2.7-0.4-4.1-0.8c-3.4-1.2-6.6-0.8-9.9,0.2c-0.6,0.2-1.3,0.4-1.9,0.6
			c-0.7,0.2-1.5,0.3-2.2,0.1c-0.7-0.2-1.2-0.6-1.3-1.4c-0.1-0.6,0.2-1.2,0.7-1.5c0.3-0.2,0.6-0.3,0.9-0.4c1.5-0.4,1.5-0.4,1.5-2
			c0-1.3,0-2.5,0-3.8c0.1-6.9,0.2-13.8,0.3-20.8c0-1.3-0.1-2.4-0.6-3.6c-0.4-0.9-0.8-1.8-1.8-2.3c-0.8-0.4-1.3-1-0.9-2
			c0.2-0.8,0.9-1.2,2.2-1c1.2,0.1,1.3,0.1,1.4-1c0.1-0.6,0.1-1.3,0.1-1.9c0-4.8,0-9.7,0.1-14.5c0-3.5,0.3-6.9,0.2-10.4
			c0-0.4,0-0.8,0-1.3c0-0.5-0.3-0.8-0.8-0.9c-0.2,0-0.4,0-0.6,0c-1.4-0.2-2-0.7-2-1.6c0-0.9,0.8-1.6,2.1-1.7c1.4-0.1,2.7,0.2,4,0.6
			c3.7,1.3,7.3,1.5,11-0.2c1-0.5,2.2-0.6,3.4-0.7c0.5-0.1,1-0.1,1.6,0c1,0.2,1.7,0.9,1.7,1.8c0,0.9-0.7,1.6-1.9,1.8
			c-0.2,0-0.4,0-0.6,0c-1.5,0.1-1.7,0.3-1.7,1.8c0,1.7-0.1,3.4-0.1,5c0.2,6.2-0.3,12.3-0.3,18.5c0,1.9-0.3,3.8-0.2,5.7
			c0,0.4-0.2,0.9,0.2,1.4c0.4,0.2,0.7,0,1-0.1c3.8-1.9,7.6-1.6,11.3,0.2c0.3,0.1,0.5,0.2,0.7,0.3c0.6,0.3,0.9,0.1,0.9-0.5
			c0.1-1.5,0.2-2.9,0.2-4.4c0.1-3.9,0.1-7.8,0.2-11.6c0.1-4.4,0.2-8.8,0.3-13.2c0-0.4,0-0.8,0-1.3c0-0.6-0.3-1-1-1.2
			c-0.3,0-0.6,0-0.9-0.1c-0.7-0.2-1.3-0.7-1.3-1.6c0-0.8,0.4-1.4,1.2-1.6c0.9-0.3,1.9-0.2,2.8-0.1c1.8,0.3,3.5,1.2,5.2,1.4
			c2.4,0.3,4.7,0.2,7-0.8c1.2-0.5,2.4-0.7,3.7-0.9c0.7-0.1,1.5-0.1,2.2,0.1V370.1z M528.5,398c0.2-6.8,0.7-13.6,0.6-20.5
			c0-0.4,0-0.8,0-1.3c0-0.8-0.4-1.4-1.3-1.2c-2.1,0.4-4.1,0-6.1-0.2c-1.3-0.1-1.4-0.1-1.4,1.3c0,3.6-0.2,7.1-0.3,10.7
			c-0.2,6.3,0.1,12.6-0.3,18.9c-0.1,0.8-0.2,1.7,0.1,2.7c2.4-1.3,4.7-1.8,7.1-0.6c1.2,0.5,1.3,0.4,1.3-0.9c0.1-2.8,0.2-5.7,0.3-8.5
			L528.5,398z M522.5,398.6c0.9-0.7,2-0.5,3,0.7c0.4,0.5,0.6,1.2,0.6,1.9s-0.3,1.4-1,1.8c-0.7,0.4-1.5,0.3-2.1-0.1
			c-0.3-0.2-0.6-0.5-0.8-0.8c-0.8-1.2-0.6-2.6,0.4-3.5H522.5z M558.6,397.6c0.2-6.8,0.7-13.6,0.6-20.5c0-0.4,0-0.8,0-1.3
			c0-0.8-0.4-1.4-1.3-1.2c-2.1,0.4-4.1,0-6.1-0.2c-1.3-0.1-1.4-0.1-1.4,1.3c0,3.6-0.2,7.1-0.3,10.7c-0.2,6.3,0.1,12.6-0.3,18.9
			c-0.1,0.8-0.2,1.7,0.1,2.7c2.4-1.3,4.7-1.8,7.1-0.6c1.2,0.5,1.3,0.4,1.3-0.9c0.1-2.8,0.2-5.7,0.3-8.5L558.6,397.6z M555.5,399
			c0.9,0.9,1.2,2.2,0.5,3.1c-0.5,0.8-1.5,1.2-2.3,0.8c-1.2-0.3-2-1.5-2-2.6c0-0.9,0.6-1.9,1.5-2.2c0.9-0.4,1.6,0.1,2.2,0.6
			L555.5,399z"/>
		<path class="st0" d="M651,387c1,8.6-1.4,16.2-6.9,22.7c-4.2,4.8-9.7,7.4-16.1,8c-0.9,0.1-2,0.1-2.9,0.1c-1.3,0.1-1.4,0.2-1.4,1.5
			c0,1.5-0.1,2.9-0.1,4.4c0,4.8-0.5,9.7-0.4,14.5c0,1.5,0,1.5,1.6,1.7c0.3,0,0.6,0,0.9,0.1c0.7,0.2,1.2,0.7,1.3,1.5
			c0.1,0.7-0.3,1.4-1,1.7c-0.7,0.3-1.5,0.4-2.2,0.3c-1.3-0.2-2.5-0.3-3.7-0.7c-3.5-1.3-6.9-1-10.4,0.2c-1,0.4-2.1,0.7-3.3,0.7
			c-1.2,0-1.9-0.5-2-1.4c-0.1-0.8,0.4-1.5,1.6-1.9c1.6-0.5,1.6-0.5,1.7-2.1c0.3-7.1,0.3-14.3,0.4-21.4c0-0.8,0-1.7,0.1-2.5
			c0.1-1,0-2.1-0.3-3.1c-0.5-1.6-1-3-2.7-3.9c-0.7-0.3-1-1-0.7-1.9c0.3-0.8,1-1.2,2-0.9c0.3,0.1,0.6,0.2,0.9,0.3
			c0.3,0.1,0.6,0.2,0.9,0.1c0.4-0.4,0.3-0.9,0.3-1.5c0-8.6,0.4-17.2,0.3-25.8c0-0.4,0-0.8,0-1.3c-0.1-1.3-0.2-1.4-1.5-1.7
			c-0.2,0-0.4,0-0.6,0c-0.7-0.2-1.3-0.6-1.4-1.5c-0.1-0.7,0.4-1.4,1.4-1.6c0.7-0.2,1.5-0.2,2.2,0c1.2,0.2,2.3,0.5,3.5,0.8
			c3.3,0.9,6.5,1.2,9.7-0.2c2.5-1.2,5.2-1,8-1.2c2.9-0.1,5.8,0.3,8.5,1.3c2.7,0.9,5.2,2.3,7.4,4.2c3.6,2.9,4.9,6.8,5.5,11.2L651,387
			z M620.8,384.5c0.3-2.8,0.1-5.7,0.2-8.5c0-1-0.1-1.2-1.3-0.9c-1.9,0.4-3.8,0.2-5.7,0c-0.3,0-0.6,0-0.9-0.1c-0.8-0.2-1.2,0.2-1.2,1
			c0,0.2,0,0.4,0,0.6c0,8.2,0,16.4-0.3,24.1c0,2.4,0,4.5,0,6.6c0,1.2,0.2,1.3,1.3,0.8c2.1-0.8,4.1-0.9,6.2,0c1,0.4,1.2,0.3,1.3-0.8
			c0-0.3,0-0.6,0-0.9c-0.1-6.7,0.3-13.4,0.4-20.1c0-0.3,0-0.6,0-0.9V384.5z M617.2,399.8c0.9,0.9,1.2,2.2,0.6,3.1
			c-0.5,0.8-1.4,1.3-2.2,1c-1.2-0.3-2-1.5-2-2.7c0-0.9,0.4-1.7,1.3-2.1c0.9-0.4,1.6,0,2.2,0.5L617.2,399.8z M635.8,390.5
			c0-0.8,0-1.7-0.1-2.5c-0.2-3.1-0.7-6.3-2.4-9.1c-1.6-2.7-4.1-4.1-7.1-4.4c-1.2-0.1-1.4,0.2-1.5,1.5c-0.1,1.6-0.3,3.1-0.3,4.7
			c0.2,7.3-0.4,14.7-0.4,22c0,2.9-0.1,5.9-0.3,8.8c-0.1,1.8,0.2,1.9,1.9,1.2c2.6-1.2,4.5-3.1,5.9-5.6c2.9-5.1,4.5-10.7,4.3-16.7
			L635.8,390.5z M646.6,397.5c1.5-4.4,1.4-8.9,0.4-13.4c-0.4-1.9-1.2-3.6-2.5-4.9c-2.9-3.1-6.6-4.8-10.9-5.5
			c2.8,2.2,4.2,5.2,4.9,8.6c1.7,7.4,1.3,14.8-1.6,21.9c-0.7,1.8-0.7,1.8,0.8,2.7c0.3,0.2,0.6,0.4,0.9,0.6c1,0.7,1,0.7,2-0.2
			c2.8-2.8,4.6-6.3,5.9-10.1V397.5z"/>
		<path class="st0" d="M705.4,386.6c3.1,6.5,4.5,13.4,4.5,21.2c-0.1,8.4-2,16.9-6.7,24.7c-2.5,4.1-5.7,7.6-9.8,10.2
			c-7.7,4.8-17,4-23.7-2.1c-4.1-3.8-6.9-8.4-8.8-13.6c-1.7-4.5-2.5-9.1-2.8-13.9c-0.1-2.2-0.6-4.3-2.5-5.8c-0.6-0.5-0.9-1.2-0.5-2
			c0.3-0.7,0.9-0.9,2.1-0.7c1.3,0.2,1.3,0.2,1.5-1.2c1.2-8.3,3.9-15.9,9.1-22.6c2.8-3.6,6.3-6.4,10.6-8.1c5.9-2.3,11.5-1.8,16.9,1.5
			c4.8,2.8,8.1,7,10.5,12L705.4,386.6z M671.2,407.7c-0.1-4.2,0.4-8.4,1.4-12.5c1.4-5.9,3.3-11.5,6.8-16.5c0.6-0.9,1.5-1.8,2.2-2.6
			c-0.1-0.1-0.2-0.2-0.3-0.3c-0.2,0-0.4,0-0.6,0.1c-5,1.5-8.7,4.7-11.6,8.8c-3.6,5-5.6,10.7-6.6,16.7c-0.4,2.3-0.7,4.6-0.7,6.9
			c0,0.6,0.1,1.3,1,0.9c2.5-0.9,5-1.2,7.6,0c0.5,0.2,0.8,0,0.8-0.5c0-0.3,0-0.6,0-0.9L671.2,407.7z M666.6,401.4
			c1.2,0,2.4,1,2.5,2.1c0,0.9-1,1.9-2.2,1.9c-1.3,0-2.4-1-2.4-2.2c0-0.9,0.8-1.6,2.1-1.6V401.4z M703.1,425.7
			c3.4-8.2,4.3-16.7,3-25.4c-0.7-5.4-2.3-10.5-5.2-15.1c-2.5-3.9-5.7-7-10.1-8.8c-0.9-0.3-1.8-0.3-2.7,0c-1.9,0.6-3.3,1.8-4.4,3.3
			c-2.4,2.9-4,6.3-5.2,9.9c-2.5,6.9-3.7,14.2-3.4,20.1c0,4.7-0.1,8,0.3,11.2c0.5,4,1.7,7.8,3.8,11.2c1.8,2.9,4.2,5.2,7.4,6.4
			c3.3,1.2,6.3,0.9,8.9-1.8c3.1-3.3,5.6-6.9,7.2-11.1L703.1,425.7z"/>
		<path class="st0" d="M756.7,430.3c1.2,1.6,1.7,3.4,1.4,5.4c-0.2,0.8-0.4,1.7-0.6,2.5c-0.5,2-1.7,3.5-3.5,4.4
			c-2.6,1.4-5.5,1.9-8.4,2c-4.5,0.2-9-0.2-13.5-0.8c-2.7-0.4-5.5-0.9-8.2-0.3c-1.2,0.3-2.3,0.6-3.5,1c-0.9,0.3-1.9,0.5-2.9,0.4
			c-0.9-0.1-1.5-0.6-1.5-1.4c0-0.8,0.4-1.4,1.2-1.7c0.2-0.1,0.4-0.2,0.6-0.2c1-0.1,1.4-0.7,1.4-1.7c0.1-3.3,0.2-6.5,0.3-9.8
			c0.1-5.2,0-10.5,0.2-15.7c0.1-2.4-0.5-4.8-3-6.2c-0.9-0.5-1.2-1.4-0.7-2.1c0.4-0.7,1.2-0.9,2.2-0.7c1.8,0.4,1.8,0.4,1.8-1.4
			c-0.1-6.2,0.4-12.3,0.3-18.5c0-2.7,0-5.5,0-8.2c0-1.8,0-1.8-1.7-2.2c-1-0.2-1.6-0.8-1.5-1.7c0.1-0.9,0.7-1.4,1.6-1.6
			c1.5-0.3,2.8,0.1,4.2,0.5c1.9,0.5,3.8,1,5.8,1c1.6,0,3.1-0.2,4.6-0.8c1.4-0.5,2.7-0.9,4.2-1.2c0.8-0.1,1.7-0.1,2.4,0.3
			c0.7,0.4,1.2,1,1,1.9c-0.1,0.7-0.6,1.2-1.4,1.4c-0.1,0-0.2,0-0.3,0c-2.4,0.3-2.3,0.3-2.5,2.7c-0.3,5.4,0,10.7-0.3,16.1
			c-0.3,4.9-0.2,9.9-0.3,14.8c-0.2,7.1-0.4,14.3-0.7,21.4c-0.1,2.4-0.3,4.8-0.3,7.2c0,2,0,2,1.9,2.3c2.6,0.4,5.2,0.5,7.9,0.5
			c5.6,0.1,7-4.5,6.9-8.1c0-0.6-0.4-1.2-0.7-1.7c-0.5-0.8-0.7-1.7-0.1-2.5c0.6-0.9,1.6-1.3,2.6-1c1.6,0.3,2.7,1.3,3.6,2.5
			L756.7,430.3z M732.3,395.4c0.2-5.8,0.4-11.5,0.4-17.3c0-1.2-0.1-1.3-1.3-1c-2.1,0.4-4.1,0.1-6.1-0.1c-0.2,0-0.4,0-0.6,0
			c-0.6-0.1-0.9,0.2-0.9,0.8c0,0.3,0,0.6,0,0.9c0,8.2,0,16.4-0.3,23.9c0,2.6,0,4.7,0,6.8c0,0.9,0.2,1.2,0.9,0.8c2.2-1,4.4-1.2,6.6,0
			c0.5,0.3,0.8,0.1,0.8-0.5c0-0.5,0-1,0-1.6c0.1-4.1,0.1-8.2,0.3-12.3L732.3,395.4z M727.7,400.5c1.2,0.1,2.4,1.7,2.4,2.9
			c0,0.8-0.4,1.5-1,1.9c-0.7,0.4-1.5,0.3-2.2-0.1c-1.2-0.7-1.7-2.1-1.3-3.4c0.3-0.8,1.2-1.5,2-1.4H727.7z"/>
		<path class="st0" d="M807.9,380.2c0.2,0.5,0.3,1.2,0.2,1.8c-0.1,0.7-0.5,1.2-1.3,1.4c-0.7,0.2-1.3,0-1.7-0.5
			c-0.4-0.5-0.5-1.2-0.7-1.8c-0.7-2.4-2.3-4.1-4.7-4.9c-3.1-1.2-6.4-1.3-9.7-0.9c-1.6,0.1-3.1,0.3-4.7,0.5c-1.3,0.2-1.3,0.3-1.4,1.6
			c-0.3,8.6-0.2,17.2-0.3,25.8c0,0.4,0,0.8,0,1.3c0.1,1.3,0.2,1.4,1.4,0.8c2.4-0.9,4.9-1.5,7.6-0.9c1.5,0.3,2.8,0.9,4,2.1
			c0.7-0.6,0.6-1.4,0.5-2.1c0-0.4-0.1-0.8-0.1-1.3c0-0.9,0.4-1.6,1.2-1.8c0.7-0.2,1.5,0.1,1.9,0.9c0.6,1.5,0.7,2.9,0.4,4.5
			c-0.3,1.6-0.9,3-1.7,4.5c-0.5,1-0.8,2.1-0.7,3.4c0,0.2,0,0.4,0,0.6c-0.1,0.8-0.6,1.4-1.5,1.5c-0.8,0.1-1.4-0.3-1.8-0.9
			c-0.3-0.5-0.4-1-0.4-1.7c0-0.8,0.2-1.7,0.3-2.5c0.3-2-0.6-3.4-2.5-3.9c-3-0.8-5.7,0.1-8.1,1.9c-0.7,0.5-0.7,1.3-0.7,2
			c0,3.7,0,7.3,0,11c-0.1,5.1,0.1,10.3-0.2,15.3c-0.1,1,0.3,1.4,1.2,1.6c3.1,0.7,6.3,0.8,9.4,0.5c1.5-0.2,2.9-0.5,4.3-0.9
			c1.6-0.5,3-1.3,4-2.7c0.2-0.2,0.4-0.4,0.6-0.6c0.6-0.5,1.3-0.6,2-0.2c0.7,0.4,0.9,1.2,0.7,2c-0.2,0.7-0.6,1.3-1,1.8
			c-1.4,1.6-3,2.5-4.9,3.1c-5,1.6-10.2,1.8-15.3,0.6c-2.1-0.4-4.1-0.9-6.2-1.3c-3.9-0.5-7.7-0.2-11.2,1.7c-1.4,0.7-2.2,0.6-2.7-0.2
			c-0.5-0.8-0.2-1.9,1.2-2.4c2.3-0.9,2.9-2.4,2.9-4.7c0-2.7,0.1-5.5,0.1-8.2c0.1-4.3,0.1-8.6,0.4-12.9c0.1-2.2-0.7-4.1-1.8-5.9
			c-0.3-0.5-0.8-0.8-1.4-1.2c-1.2-0.8-1.5-1.6-0.9-2.4c0.5-0.8,1.4-0.9,2.7-0.3c0.3,0.2,0.6,0.5,1.3,0.5c0.1-2.6,0.3-5.1,0.3-7.7
			c0.1-4,0.1-8,0.2-12c0-2.4,0.1-4.8,0.1-7.2c0-1.6,0-1.6-1.7-2.1c-1-0.3-2.1-0.6-2.9-1.3c-0.8-0.5-1-1.4-0.6-2.1
			c0.4-0.7,1.2-1,2-0.7c4.6,1.9,9.3,1.3,14.1,0.6c3-0.4,6.1-0.9,9.1-1.4c4.2-0.5,8.3-0.3,12.3,1.3c3.5,1.4,5.6,3.9,6.6,7.4V380.2z
			 M779.9,377.9c0.1-1.2-0.1-1.4-1.4-1.4c-1.5,0.1-2.9,0.4-4.5,0.4c-1.4,0-1.6,0.2-1.6,1.6c0,2-0.1,4-0.1,6
			c-0.2,6.6,0,13.3-0.4,19.9c0,0.8,0,1.7,0,2.5c0,1.5,0.1,1.6,1.5,1c1.6-0.6,3.1-1.2,4.9-0.4c1,0.4,1.3,0.3,1.4-0.9
			c0.1-1.3,0.1-2.5,0.1-3.8c0.1-8.3-0.1-16.6,0.3-24.9L779.9,377.9z M775.9,399.7c0.8,0,1.5,0.6,1.5,1.6c0,1-0.8,2-1.8,2
			c-0.8,0-1.7-0.8-1.7-1.7c0-0.9,1-2,2-2V399.7z"/>
	</g>
	<g>
		<path class="st0" d="M173.5,552.1c-0.4,10.6-3.5,27-18.8,27c-30.5,0-37.8-38.2-37.8-62c0-34.2,17-62,37.4-62
			c3.9,0,8.2,0.4,12.9,2.7c3.2,1.6,3.5,0,3.5-2.5h2.5v29.1h-2.5c-1.4-13.1-5.9-24.2-15.9-25c-0.2,0-0.4,0-0.6,0
			c-11.2,0-20.3,25.8-20.3,57.7c0,11.2,2,58.3,20.8,58.3c6.6,0,14.5-4.1,15.7-23.2H173.5z"/>
		<path class="st0" d="M255.2,569.9c0,3.3-0.1,6.2,6.8,6.2v1.6h-29.6v-1.6c5.8,0,7-2.4,7-6.2v-48.8h-36v48.8c0,3.8,1.2,6.2,7,6.2
			v1.6h-29.6v-1.6c6.9,0,6.8-2.9,6.8-6.2V463.7c0-3.3,0.1-6.2-6.8-6.2v-1.6h29.6v1.6c-5.8,0-7,2.4-7,6.2v52.7h36v-52.7
			c0-3.8-1.2-6.2-7-6.2v-1.6h29.6v1.6c-6.9,0-6.8,2.9-6.8,6.2V569.9z"/>
		<path class="st0" d="M339.5,517c0,34.2-15.7,62-35,62s-35-27.8-35-62c0-34.3,15.7-62,35-62C323.8,455,339.5,482.8,339.5,517z
			 M323.7,517c0-31.9-8.6-57.7-19.3-57.7c-10.6,0-19.3,25.8-19.3,57.7c0,31.9,8.6,57.7,19.3,57.7C315.1,574.7,323.7,548.9,323.7,517
			z"/>
		<path class="st0" d="M403.6,552.1c-0.4,10.6-3.5,27-18.8,27c-30.5,0-37.8-38.2-37.8-62c0-34.2,17-62,37.4-62
			c3.9,0,8.2,0.4,12.9,2.7c3.2,1.6,3.5,0,3.5-2.5h2.5v29.1h-2.5c-1.4-13.1-5.9-24.2-15.9-25c-0.2,0-0.4,0-0.6,0
			c-11.2,0-20.3,25.8-20.3,57.7c0,11.2,2,58.3,20.8,58.3c6.6,0,14.5-4.1,15.7-23.2H403.6z"/>
		<path class="st0" d="M481,517c0,34.2-15.7,62-35,62c-19.4,0-35-27.8-35-62c0-34.3,15.7-62,35-62C465.3,455,481,482.8,481,517z
			 M465.3,517c0-31.9-8.6-57.7-19.3-57.7c-10.6,0-19.3,25.8-19.3,57.7c0,31.9,8.6,57.7,19.3,57.7C456.6,574.7,465.3,548.9,465.3,517
			z"/>
		<path class="st0" d="M542.9,549.5h2.2v28.2h-56.6v-1.6c5.8,0,7-2.4,7-6.2V463.7c0-3.8-1.2-6.2-7-6.2v-1.6h29.6v1.6
			c-6.9,0-6.8,2.9-6.8,6.2v106.3c0,4.2,1.4,4.6,6.7,4.6C531.7,574.5,542.9,563.3,542.9,549.5L542.9,549.5z"/>
		<path class="st0" d="M629.1,576.1v1.6h-29.6v-1.6c3.9,0,5.5-2,4.7-6.2l-7.1-32.4h-29.4c-2.5,12-4.9,23.9-7.5,35.8
			c-0.5,2.1,0.8,2.7,2.9,2.7v1.6h-10.7v-1.6l0.2,0l0.1,0h0c1.5-0.1,2.9-0.9,3.3-2.3l0.2-1l0,0l0,0h0c8.1-37.6,15.3-75.5,23.3-113.1
			l0.8-3.7h-0.3c0.4,0,12.8,0,15.1,0c8.3,38,16.6,76,24.9,114C621.2,573.8,622.2,576.1,629.1,576.1z M596.1,532.8l-14.1-64.5
			c-1,4.4-7.3,35.2-13.3,64.5H596.1z"/>
		<path class="st0" d="M720.1,455.9v28.2h-2.2V484c0-13.7-11.2-25-25-25c-5.2,0-6.7,0.4-6.7,4.6v106.3c0,1,0,2,0.2,2.8
			c0.6,2,2.3,3.3,6.1,3.4h0l0.2,0h0l0.3,0v1.6h-29.6v-1.6l0.3,0h0l0.2,0h0c3.8-0.1,5.5-1.3,6.1-3.4c0.2-0.9,0.2-1.8,0.2-2.8V463.7
			c0-4.2-1.4-4.6-6.7-4.6c-13.7,0-25,11.2-25,25v0.1h-2.2v-28.2h56.6H720.1z"/>
		<path class="st0" d="M784.2,484.1H782V484c0-13.7-11.2-25-25-25c-5.2,0-6.7,1.1-6.7,4.6v51.2h4.1c8.7,0,15.9-4.8,15.9-13.6v0h1.4
			v34.2h-1.4v0c0-8.7-7.2-13.6-15.9-13.6h-4.1v48.1c0,3.3,1.4,4.6,6.7,4.6c13.7,0,25-11.2,25-25v-0.1h2.2v28.2h-56.6v-1.6
			c5.8,0,7-2.4,7-6.2V463.7c0-3.8-1.2-6.2-7-6.2v-1.6h56.6V484.1z"/>
		<path class="st0" d="M885.7,552.1c-0.4,10.6-3.5,27-18.8,27c-30.5,0-37.8-38.2-37.8-62c0-34.2,17-62,37.4-62
			c3.9,0,8.2,0.4,12.9,2.7c3.2,1.6,3.5,0,3.5-2.5h2.5v29.1H883c-1.4-13.1-5.9-24.2-15.9-25c-0.2,0-0.4,0-0.6,0
			c-11.2,0-20.3,25.8-20.3,57.7c0,11.2,2,58.3,20.8,58.3c6.6,0,14.5-4.1,15.7-23.2H885.7z"/>
		<path class="st0" d="M963.2,517c0,34.2-15.7,62-35,62c-19.4,0-35-27.8-35-62c0-34.3,15.7-62,35-62
			C947.5,455,963.2,482.8,963.2,517z M947.4,517c0-31.9-8.6-57.7-19.3-57.7c-10.6,0-19.3,25.8-19.3,57.7c0,31.9,8.6,57.7,19.3,57.7
			C938.8,574.7,947.4,548.9,947.4,517z"/>
	</g>
	<g>
		<path class="st0" d="M350.5,585.5c1,0.3,1.6,1,1.5,1.9c-0.1,0.8-0.7,1.5-1.7,1.7c-0.3,0.1-0.6,0.1-0.9,0.1
			c-1.4,0.1-1.6,0.3-1.6,1.8c0,1.6-0.1,3.1-0.1,4.7c0.1,6.2-0.3,12.4-0.5,18.6c-0.2,5-0.2,10.1-0.4,15.1c-0.2,6.5-0.4,13-0.6,19.5
			c-0.1,1.5-0.3,2.9-0.2,4.4c0.1,1.3,0.2,1.5,1.4,1.7c0.3,0,0.6,0,0.9,0.1c0.7,0.2,1.3,0.7,1.4,1.6c0.1,0.8-0.3,1.4-0.9,1.7
			c-0.7,0.3-1.5,0.3-2.2,0.2c-1.5-0.2-2.9-0.4-4.3-0.9c-3-1-6.1-0.7-9.1,0.2c-0.7,0.2-1.5,0.4-2.2,0.6s-1.5,0.3-2.2,0.2
			c-0.7-0.1-1.3-0.5-1.4-1.3c-0.1-0.7,0.3-1.3,0.9-1.6c0.2-0.1,0.5-0.2,0.8-0.3c1.6-0.5,1.6-0.5,1.6-2.2c0-0.9,0-1.9,0-2.8
			c0.1-6.4,0.2-12.8,0.4-19.2c0-1.6-0.2-2.9-1.4-4.2c-1.4-1.5-2.9-2.6-5-2.9c-2.9-0.5-5.2,0.6-7.4,2.3c-0.5,0.4-0.5,0.9-0.5,1.5
			c-0.1,2.3-0.2,4.6-0.2,6.9c0,5.5-0.3,10.9-0.6,16.4c0,0.4,0,0.8,0,1.3c0,2.2,0,2.2,2.2,2.6c0.9,0.2,1.6,0.7,1.6,1.6
			c0,0.8-0.5,1.4-1.3,1.7c-0.6,0.2-1.3,0.2-1.9,0.1c-1.4-0.2-2.7-0.4-4.1-0.8c-3.4-1.2-6.6-0.8-9.9,0.2c-0.6,0.2-1.3,0.4-1.9,0.6
			c-0.7,0.2-1.5,0.3-2.2,0.1c-0.7-0.2-1.2-0.6-1.3-1.4c-0.1-0.6,0.2-1.2,0.7-1.5c0.3-0.2,0.6-0.3,0.9-0.4c1.5-0.4,1.5-0.4,1.5-2
			c0-1.3,0-2.5,0-3.8c0.1-6.9,0.2-13.8,0.3-20.8c0-1.3-0.1-2.4-0.6-3.6c-0.4-0.9-0.8-1.8-1.8-2.3c-0.8-0.4-1.3-1-0.9-2
			c0.2-0.8,0.9-1.2,2.2-1c1.2,0.1,1.3,0.1,1.4-1c0.1-0.6,0.1-1.3,0.1-1.9c0-4.8,0-9.7,0.1-14.5c0-3.5,0.3-6.9,0.2-10.4
			c0-0.4,0-0.8,0-1.3c0-0.5-0.3-0.8-0.8-0.9c-0.2,0-0.4,0-0.6,0c-1.4-0.2-2-0.7-2-1.6c0-0.9,0.8-1.6,2.1-1.7c1.4-0.1,2.7,0.2,4,0.6
			c3.7,1.3,7.3,1.5,11-0.2c1-0.5,2.2-0.6,3.4-0.7c0.5-0.1,1-0.1,1.6,0c1,0.2,1.7,0.9,1.7,1.8c0,0.9-0.7,1.6-1.9,1.8
			c-0.2,0-0.4,0-0.6,0c-1.5,0.1-1.7,0.3-1.7,1.8c0,1.7-0.1,3.4-0.1,5c0.2,6.2-0.3,12.3-0.3,18.5c0,1.9-0.3,3.8-0.2,5.7
			c0,0.4-0.2,0.9,0.2,1.4c0.4,0.2,0.7,0,1-0.1c3.8-1.9,7.6-1.6,11.3,0.2c0.3,0.1,0.5,0.2,0.7,0.3c0.6,0.3,0.9,0.1,0.9-0.5
			c0.1-1.5,0.2-2.9,0.2-4.4c0.1-3.9,0.1-7.8,0.2-11.6c0.1-4.4,0.2-8.8,0.3-13.2c0-0.4,0-0.8,0-1.3c0-0.6-0.3-1-1-1.2
			c-0.3,0-0.6,0-0.9-0.1c-0.7-0.2-1.3-0.7-1.3-1.6c0-0.8,0.4-1.4,1.2-1.6c0.9-0.3,1.9-0.2,2.8-0.1c1.8,0.3,3.5,1.2,5.2,1.4
			c2.4,0.3,4.7,0.2,7-0.8c1.2-0.5,2.4-0.7,3.7-0.9c0.7-0.1,1.5-0.1,2.2,0.1V585.5z M313.2,613.4c0.2-6.8,0.7-13.6,0.6-20.5
			c0-0.4,0-0.8,0-1.3c0-0.8-0.4-1.4-1.3-1.2c-2.1,0.4-4.1,0-6.1-0.2c-1.3-0.1-1.4-0.1-1.4,1.3c0,3.6-0.2,7.1-0.3,10.7
			c-0.2,6.3,0.1,12.6-0.3,18.9c-0.1,0.8-0.2,1.7,0.1,2.7c2.4-1.3,4.7-1.8,7.1-0.6c1.2,0.5,1.3,0.4,1.3-0.9c0.1-2.8,0.2-5.7,0.3-8.5
			L313.2,613.4z M307.2,614.1c0.9-0.7,2-0.5,3,0.7c0.4,0.5,0.6,1.2,0.6,1.9c0,0.7-0.3,1.4-1,1.8c-0.7,0.4-1.5,0.3-2.1-0.1
			c-0.3-0.2-0.6-0.5-0.8-0.8c-0.8-1.2-0.6-2.6,0.4-3.5H307.2z M343.3,613c0.2-6.8,0.7-13.6,0.6-20.5c0-0.4,0-0.8,0-1.3
			c0-0.8-0.4-1.4-1.3-1.2c-2.1,0.4-4.1,0-6.1-0.2c-1.3-0.1-1.4-0.1-1.4,1.3c0,3.6-0.2,7.1-0.3,10.7c-0.2,6.3,0.1,12.6-0.3,18.9
			c-0.1,0.8-0.2,1.7,0.1,2.7c2.4-1.3,4.7-1.8,7.1-0.6c1.2,0.5,1.3,0.4,1.3-0.9c0.1-2.8,0.2-5.7,0.3-8.5L343.3,613z M340.2,614.5
			c0.9,0.9,1.2,2.2,0.5,3.1c-0.5,0.8-1.5,1.2-2.3,0.8c-1.2-0.3-2-1.5-2-2.6c0-0.9,0.6-1.9,1.5-2.2c0.9-0.4,1.6,0.1,2.2,0.6
			L340.2,614.5z"/>
		<path class="st0" d="M406.4,602.1c3.1,6.5,4.5,13.4,4.5,21.2c-0.1,8.4-2,16.9-6.7,24.7c-2.5,4.1-5.7,7.6-9.8,10.2
			c-7.7,4.8-17,4-23.7-2.1c-4.1-3.8-6.9-8.4-8.8-13.6c-1.7-4.5-2.5-9.1-2.8-13.9c-0.1-2.2-0.6-4.3-2.5-5.8c-0.6-0.5-0.9-1.2-0.5-2
			c0.3-0.7,0.9-0.9,2.1-0.7c1.3,0.2,1.3,0.2,1.5-1.2c1.2-8.3,3.9-15.9,9.1-22.6c2.8-3.6,6.3-6.4,10.6-8.1c5.9-2.3,11.5-1.8,16.9,1.5
			c4.8,2.8,8.1,7,10.5,12L406.4,602.1z M372.2,623.2c-0.1-4.2,0.4-8.4,1.4-12.5c1.4-5.9,3.3-11.5,6.8-16.5c0.6-0.9,1.5-1.8,2.2-2.6
			c-0.1-0.1-0.2-0.2-0.3-0.3c-0.2,0-0.4,0-0.6,0.1c-5,1.5-8.7,4.7-11.6,8.8c-3.6,5-5.6,10.7-6.6,16.7c-0.4,2.3-0.7,4.6-0.7,6.9
			c0,0.6,0.1,1.3,1,0.9c2.5-0.9,5-1.2,7.6,0c0.5,0.2,0.8,0,0.8-0.5c0-0.3,0-0.6,0-0.9L372.2,623.2z M367.6,616.9
			c1.2,0,2.4,1,2.5,2.1c0,0.9-1,1.9-2.2,1.9c-1.3,0-2.4-1-2.4-2.2c0-0.9,0.8-1.6,2.1-1.6V616.9z M404.1,641.1
			c3.4-8.2,4.3-16.7,3-25.4c-0.7-5.4-2.3-10.5-5.2-15.1c-2.5-3.9-5.7-7-10.1-8.8c-0.9-0.3-1.8-0.3-2.7,0c-1.9,0.6-3.3,1.8-4.4,3.3
			c-2.4,2.9-4,6.3-5.2,9.9c-2.5,6.9-3.7,14.2-3.4,20.1c0,4.7-0.1,8,0.3,11.2c0.5,4,1.7,7.8,3.8,11.2c1.8,2.9,4.2,5.2,7.4,6.4
			c3.3,1.2,6.3,0.9,8.9-1.8c3.1-3.3,5.6-6.9,7.2-11.1L404.1,641.1z"/>
		<path class="st0" d="M466,591.6c0.6,1.8,0.9,3.7,0.8,5.6c0,0.8-0.2,1.7-0.6,2.4c-0.5,0.9-1.4,1.3-2.2,0.9c-0.8-0.3-1.4-1.2-1-2.1
			c0.6-1.6,0.3-3.1,0.1-4.7c-0.2-1.2-0.8-1.9-2-2.2c-1.5-0.4-2.9-0.8-4.5-0.8c-1.7,0-3.4,0-5,0c-0.6,0-1.3,0.1-1.8,0.2
			c-1.7,0.4-1.9,0.7-1.9,2.4c0,2.2,0,4.4,0,6.6c0,6.5-0.4,13-0.6,19.5c0,0.5,0,1,0,1.6c-0.1,7.4-0.1,14.9-0.4,22.3
			c-0.1,3-0.1,6.2-0.4,9.2c-0.1,0.9,0,1.9,0,2.8c0,0.8,0.4,1.3,1.3,1.3c0.5,0,1,0,1.6,0.2c0.7,0.3,1.2,0.8,1.2,1.6
			c0,0.7-0.4,1.2-1,1.5c-0.5,0.2-1.2,0.2-1.8,0.2c-1.6,0-3-0.4-4.5-0.8c-3.1-1-6.3-0.8-9.4,0.2c-0.8,0.3-1.8,0.5-2.7,0.7
			c-0.4,0.1-0.9,0.1-1.4,0c-0.9-0.1-1.5-0.7-1.6-1.5c-0.1-0.7,0.3-1.4,1.2-1.7c0.2-0.1,0.4-0.1,0.6-0.1c1.5-0.4,1.5-0.4,1.5-2.1
			c0-3.3,0-6.5,0.1-9.8c0.1-4.9,0.2-9.9,0.3-14.8c0-1.3-0.1-2.5-0.6-3.8c-0.4-1-0.9-2-2.1-2.6c-1-0.5-1.3-1.3-0.9-2
			c0.3-0.8,1-1.2,2.1-0.9c0.2,0,0.4,0.1,0.6,0.2c0.8,0.3,1.2-0.1,1.3-0.8c0.1-0.6,0.1-1.3,0.1-1.9c0-2.6,0.1-5.2,0.1-7.9
			c-0.1-5.5,0.3-10.9,0.3-16.4c0-2.1,0-2.1-2-2.4c-3-0.5-6.1-0.9-9.2-0.4c-1,0.2-1.6,0.6-1.8,1.6c-0.4,1.9-1,3.7-0.5,5.7
			c0.3,1.2-0.3,2-1.3,2.2c-0.8,0.2-1.8-0.3-2.2-1.4c-0.4-1.2-0.6-2.3-0.4-3.5c0.2-1,0.4-2.1,0.7-3.1c0.5-1.8,0.9-3.6,0.8-5.5
			c-0.1-1.2,0.3-1.8,1-2c0.7-0.2,1.5,0.1,1.9,1.2s1,1.2,2,0.9c1.8-0.3,3.6-0.2,5.4,0c3.5,0.4,6.9,0.8,10.3,1.7
			c2.4,0.6,4.8,0.2,7.1-0.6c5.5-2,10.9-2.6,16.6-1.5c0.7,0.1,1.3,0,1.5-0.8c0-0.2,0.1-0.4,0.2-0.6c0.4-0.7,0.9-1.2,1.8-0.9
			c0.7,0.1,1,0.6,1.2,1.4c0,0.2,0,0.4,0,0.6c0,1.6,0.4,3,0.9,4.5L466,591.6z M444.1,601.6c0-2.9,0-5.1,0-7.3c0-1,0-1.2-1-0.9
			c-2,0.5-4,0.5-6.1,0.4c-1.5-0.1-1.5-0.1-1.5,1.5c-0.1,6.3-0.2,12.6-0.3,18.9c-0.1,3.7-0.1,7.3-0.3,11c-0.1,1.3,0.1,1.4,1.3,0.8
			c2-0.9,4-1,6.1,0c1.2,0.5,1.3,0.4,1.3-0.9c0-2.2,0-4.4,0.1-6.6c0.2-6,0.4-12,0.6-17.2L444.1,601.6z M441.2,619.7
			c0,1.3-0.9,2.2-2.1,2.2c-1.3,0-2.5-1.4-2.5-2.7c0-1.3,0.9-2.3,2-2.3C439.9,616.9,441.2,618.4,441.2,619.7z"/>
		<path class="st0" d="M548.6,591.8c-0.2,1.3-0.4,2.4-0.6,3.6c-0.4,1.9-0.8,3.8-0.3,5.7c0,0.2,0,0.4,0,0.6c0,0.9-0.4,1.6-1.3,1.8
			c-0.8,0.2-1.7-0.1-2.1-0.9c-0.6-1.3-0.9-2.6-0.6-4c0.3-1.5-0.2-2.5-1.2-3.6c-2.1-2.3-4.5-4.2-7.6-5.2c-1.6-0.5-2.8-0.3-4,0.8
			c-2.2,2.2-3.7,4.8-4.9,7.7c-2.3,5.5-3.7,11.2-4.5,17.1c-0.9,6.3-0.9,12.6-0.6,18.9c0.3,5.1,1.2,10.2,3.1,14.9
			c0.7,1.8,1.7,3.4,3,4.7c0.8,0.8,1.9,1.2,3,1.4c2.6,0.5,4.6-0.6,6.6-2c3.4-2.2,5.8-5.4,7.9-8.7c0.3-0.4,0.5-0.9,0.8-1.4
			c0.6-0.6,1.6-0.7,2.3-0.2c0.7,0.5,0.9,1.3,0.7,2.1c-0.1,0.2-0.2,0.4-0.3,0.6c-2.8,5.1-6.5,9.5-11.9,12.2
			c-6.8,3.4-13.2,2.5-19.2-2.1c-3.9-2.9-6.4-6.9-8.4-11.3c-2-4.5-3-9.2-3.7-14.1c-0.3-2.4-1.3-4.6-2.8-6.5c-0.1-0.2-0.3-0.4-0.4-0.6
			c-0.5-0.6-0.6-1.3-0.1-1.9c0.4-0.6,1-0.8,1.7-0.6c0.4,0.1,0.8,0.3,1.5,0.6c0.3-3.9,0.8-7.6,1.8-11.1c1.9-7,4.9-13.4,10.2-18.7
			c1.6-1.6,3.5-2.9,5.5-4c6.9-3.8,14.7-2.8,20.6,2.5c0.5,0.5,1,1,1.7,1.7c0.6-0.7,0.6-1.6,0.5-2.4c-0.1-0.5-0.3-1-0.4-1.6
			c-0.1-0.9,0.3-1.6,1-1.9c0.7-0.3,1.5,0,1.9,0.7c0.2,0.3,0.3,0.7,0.4,1.2c0.3,1.3,0.4,2.5,0.2,3.8L548.6,591.8z M521.4,600.4
			c1.3-3.6,2.9-6.9,5.2-10.3c-0.8-0.2-1.4,0.1-1.9,0.3c-2.3,1.2-4.3,2.6-6,4.5c-3.4,3.6-5.7,7.8-7.3,12.3c-2,5.5-2.8,11.1-3,16.9
			c0,1,0.2,1.3,1.3,0.9c2.2-0.6,4.3-0.7,6.4,0.3c0.9,0.4,1.2,0.2,1.2-0.8c0-2.1,0.2-4.2,0.4-6.3c0.6-6.1,1.9-12.1,3.9-17.9
			L521.4,600.4z M514.5,619.1c0,1.3-0.7,2.2-1.8,2.2c-1,0-1.9-1-1.9-2.3c0-1.2,0.6-1.9,1.7-1.9C513.6,617.1,514.5,617.9,514.5,619.1
			z"/>
		<path class="st0" d="M603.7,602.1c3.1,6.5,4.5,13.4,4.5,21.2c-0.1,8.4-2,16.9-6.7,24.7c-2.5,4.1-5.7,7.6-9.8,10.2
			c-7.7,4.8-17,4-23.7-2.1c-4.1-3.8-6.9-8.4-8.8-13.6c-1.7-4.5-2.5-9.1-2.8-13.9c-0.1-2.2-0.6-4.3-2.5-5.8c-0.6-0.5-0.9-1.2-0.5-2
			c0.3-0.7,0.9-0.9,2.1-0.7c1.3,0.2,1.3,0.2,1.5-1.2c1.2-8.3,3.9-15.9,9.1-22.6c2.8-3.6,6.3-6.4,10.6-8.1c5.9-2.3,11.5-1.8,16.9,1.5
			c4.8,2.8,8.1,7,10.5,12L603.7,602.1z M569.5,623.2c-0.1-4.2,0.4-8.4,1.4-12.5c1.4-5.9,3.3-11.5,6.8-16.5c0.6-0.9,1.5-1.8,2.2-2.6
			c-0.1-0.1-0.2-0.2-0.3-0.3c-0.2,0-0.4,0-0.6,0.1c-5,1.5-8.7,4.7-11.6,8.8c-3.6,5-5.6,10.7-6.6,16.7c-0.4,2.3-0.7,4.6-0.7,6.9
			c0,0.6,0.1,1.3,1,0.9c2.5-0.9,5-1.2,7.6,0c0.5,0.2,0.8,0,0.8-0.5c0-0.3,0-0.6,0-0.9L569.5,623.2z M564.9,616.9
			c1.2,0,2.4,1,2.5,2.1c0,0.9-1,1.9-2.2,1.9c-1.3,0-2.4-1-2.4-2.2c0-0.9,0.8-1.6,2.1-1.6V616.9z M601.4,641.1
			c3.4-8.2,4.3-16.7,3-25.4c-0.7-5.4-2.3-10.5-5.2-15.1c-2.5-3.9-5.7-7-10.1-8.8c-0.9-0.3-1.8-0.3-2.7,0c-1.9,0.6-3.3,1.8-4.4,3.3
			c-2.4,2.9-4,6.3-5.2,9.9c-2.5,6.9-3.7,14.2-3.4,20.1c0,4.7-0.1,8,0.3,11.2c0.5,4,1.7,7.8,3.8,11.2c1.8,2.9,4.2,5.2,7.4,6.4
			c3.3,1.2,6.3,0.9,8.9-1.8c3.1-3.3,5.6-6.9,7.2-11.1L601.4,641.1z"/>
		<path class="st0" d="M659.9,591.8c-0.2,1.3-0.4,2.4-0.6,3.6c-0.4,1.9-0.8,3.8-0.3,5.7c0,0.2,0,0.4,0,0.6c0,0.9-0.4,1.6-1.3,1.8
			c-0.8,0.2-1.7-0.1-2.1-0.9c-0.6-1.3-0.9-2.6-0.6-4c0.3-1.5-0.2-2.5-1.2-3.6c-2.1-2.3-4.5-4.2-7.6-5.2c-1.6-0.5-2.8-0.3-4,0.8
			c-2.2,2.2-3.7,4.8-4.9,7.7c-2.3,5.5-3.7,11.2-4.5,17.1c-0.9,6.3-0.9,12.6-0.6,18.9c0.3,5.1,1.2,10.2,3.1,14.9
			c0.7,1.8,1.7,3.4,3,4.7c0.8,0.8,1.9,1.2,3,1.4c2.6,0.5,4.6-0.6,6.6-2c3.4-2.2,5.8-5.4,7.9-8.7c0.3-0.4,0.5-0.9,0.8-1.4
			c0.6-0.6,1.6-0.7,2.3-0.2c0.7,0.5,0.9,1.3,0.7,2.1c-0.1,0.2-0.2,0.4-0.3,0.6c-2.8,5.1-6.5,9.5-11.9,12.2
			c-6.8,3.4-13.2,2.5-19.2-2.1c-3.9-2.9-6.4-6.9-8.4-11.3c-2-4.5-3-9.2-3.7-14.1c-0.3-2.4-1.3-4.6-2.8-6.5c-0.1-0.2-0.3-0.4-0.4-0.6
			c-0.5-0.6-0.6-1.3-0.1-1.9c0.4-0.6,1-0.8,1.7-0.6c0.4,0.1,0.8,0.3,1.5,0.6c0.3-3.9,0.8-7.6,1.8-11.1c1.9-7,4.9-13.4,10.2-18.7
			c1.6-1.6,3.5-2.9,5.5-4c6.9-3.8,14.7-2.8,20.6,2.5c0.5,0.5,1,1,1.7,1.7c0.6-0.7,0.6-1.6,0.5-2.4c-0.1-0.5-0.3-1-0.4-1.6
			c-0.1-0.9,0.3-1.6,1-1.9c0.7-0.3,1.5,0,1.9,0.7c0.2,0.3,0.3,0.7,0.4,1.2c0.3,1.3,0.4,2.5,0.2,3.8L659.9,591.8z M632.7,600.4
			c1.3-3.6,2.9-6.9,5.2-10.3c-0.8-0.2-1.4,0.1-1.9,0.3c-2.3,1.2-4.3,2.6-6,4.5c-3.4,3.6-5.7,7.8-7.3,12.3c-2,5.5-2.8,11.1-3,16.9
			c0,1,0.2,1.3,1.3,0.9c2.2-0.6,4.3-0.7,6.4,0.3c0.9,0.4,1.2,0.2,1.2-0.8c0-2.1,0.2-4.2,0.4-6.3c0.6-6.1,1.9-12.1,3.9-17.9
			L632.7,600.4z M625.8,619.1c0,1.3-0.7,2.2-1.8,2.2c-1,0-1.9-1-1.9-2.3c0-1.2,0.6-1.9,1.7-1.9C624.9,617.1,625.8,617.9,625.8,619.1
			z"/>
		<path class="st0" d="M715.1,602.1c3.1,6.5,4.5,13.4,4.5,21.2c-0.1,8.4-2,16.9-6.7,24.7c-2.5,4.1-5.7,7.6-9.8,10.2
			c-7.7,4.8-17,4-23.7-2.1c-4.1-3.8-6.9-8.4-8.8-13.6c-1.7-4.5-2.5-9.1-2.8-13.9c-0.1-2.2-0.6-4.3-2.5-5.8c-0.6-0.5-0.9-1.2-0.5-2
			c0.3-0.7,0.9-0.9,2.1-0.7c1.3,0.2,1.3,0.2,1.5-1.2c1.2-8.3,3.9-15.9,9.1-22.6c2.8-3.6,6.3-6.4,10.6-8.1c5.9-2.3,11.5-1.8,16.9,1.5
			c4.8,2.8,8.1,7,10.5,12L715.1,602.1z M680.9,623.2c-0.1-4.2,0.4-8.4,1.4-12.5c1.4-5.9,3.3-11.5,6.8-16.5c0.6-0.9,1.5-1.8,2.2-2.6
			c-0.1-0.1-0.2-0.2-0.3-0.3c-0.2,0-0.4,0-0.6,0.1c-5,1.5-8.7,4.7-11.6,8.8c-3.6,5-5.6,10.7-6.6,16.7c-0.4,2.3-0.7,4.6-0.7,6.9
			c0,0.6,0.1,1.3,1,0.9c2.5-0.9,5-1.2,7.6,0c0.5,0.2,0.8,0,0.8-0.5c0-0.3,0-0.6,0-0.9L680.9,623.2z M676.3,616.9
			c1.2,0,2.4,1,2.5,2.1c0,0.9-1,1.9-2.2,1.9c-1.3,0-2.4-1-2.4-2.2c0-0.9,0.8-1.6,2.1-1.6V616.9z M712.8,641.1
			c3.4-8.2,4.3-16.7,3-25.4c-0.7-5.4-2.3-10.5-5.2-15.1c-2.5-3.9-5.7-7-10.1-8.8c-0.9-0.3-1.8-0.3-2.7,0c-1.9,0.6-3.3,1.8-4.4,3.3
			c-2.4,2.9-4,6.3-5.2,9.9c-2.5,6.9-3.7,14.2-3.4,20.1c0,4.7-0.1,8,0.3,11.2c0.5,4,1.7,7.8,3.8,11.2c1.8,2.9,4.2,5.2,7.4,6.4
			c3.3,1.2,6.3,0.9,8.9-1.8c3.1-3.3,5.6-6.9,7.2-11.1L712.8,641.1z"/>
		<path class="st0" d="M784.8,656c0.3,0.5,0.3,1,0,1.6c-0.4,0.7-1,1-1.9,0.9c-1.7-0.1-3.4-0.3-4.9-0.9c-1.5-0.6-2.9-0.6-4.4,0
			c-1,0.4-2.2,0.8-3.4,1c-0.5,0.1-1,0.2-1.6,0.2c-1.2,0-1.8-0.5-1.9-1.4c-0.1-0.8,0.4-1.6,1.6-1.7c1.6-0.2,2.9-0.7,4.3-1.3
			c1.5-0.6,1.5-0.7,1.2-2.3c-1.2-5.1-2.3-10.3-3.6-15.4c-0.4-1.9-0.4-1.9-2.3-1.9c-5.8,0.1-11.5,0-17.3,0.3c-1.5,0.1-1.6,0.2-2,1.6
			c-1.7,5.2-3.4,10.5-5,15.7c-0.2,0.5-0.3,1-0.4,1.6c-0.3,1-0.2,1.2,0.8,1.4c0.4,0.1,0.9,0.2,1.4,0.4c0.7,0.3,1.3,0.9,1.2,1.8
			s-0.6,1.4-1.5,1.5c-0.7,0.1-1.5,0-2.2-0.2c-1.2-0.3-2.4-0.5-3.6-0.9c-2-0.7-3.9-0.6-5.8,0.1c-1.8,0.6-3.7,1-5.6,1.3
			c-1.2,0.1-2.3-0.1-3.5-0.3c-0.8-0.1-1.4-0.8-1.4-1.6c0-0.7,0.5-1.4,1.5-1.5c0.7-0.1,1.5-0.1,2.2-0.1s1.3-0.3,1.5-1
			c0.1-0.2,0.2-0.4,0.3-0.6c2.6-7.9,4.9-15.8,7.4-23.7c0.7-2.4,0.1-4.4-1-6.4c-0.1-0.2-0.3-0.4-0.4-0.6c-0.4-0.8-0.3-1.6,0.3-2.1
			c0.5-0.5,1.3-0.5,2,0c0.2,0.2,0.4,0.4,0.6,0.6c0.2,0.2,0.3,0.5,0.5,0.8c0.7-0.7,0.8-1.4,1-2c3-9.8,6.1-19.5,9.1-29.3
			c0.6-2,0.6-2-1.5-2.1c-0.6,0-1.3,0-1.8-0.1c-0.8-0.2-1.4-0.9-1.4-1.7c0-0.7,0.5-1.4,1.5-1.5c1.8-0.1,3.6-0.1,5.4,0.2
			c0.7,0.1,1.5,0.2,2.2,0.4c2.6,0.9,5.2,0.7,7.9,0c1.9-0.5,3.8-0.8,5.8-0.7c1.6,0.1,2.5,0.7,2.5,1.8c0,1.2-0.8,1.8-2.5,1.8
			c-2.9,0-2.6,0.2-2.1,2.5c3.4,14.7,6.7,29.4,10.1,44.1c1.3,5.5,2.6,10.9,3.8,16.4c0.3,1.5,1.2,2.1,2.4,2.3c0.9,0.2,1.9,0.3,2.8,0.4
			c0.7,0.1,1.4,0.3,1.8,0.9L784.8,656z M748.9,624.1c3-9.5,6.1-19.1,9.1-28.6c0.4-1.3,0.8-2.5,0.9-3.9c0.1-1,0-1.3-1-1
			c-1.6,0.3-3.1,0.2-4.7-0.2c-1.6-0.4-1.8-0.3-2.2,1.3c-0.7,2.7-1.4,5.5-2.2,8.2c-2.2,7-4.4,14.1-6.6,21.1c-0.2,0.6-0.5,1.3-0.2,2.2
			c1.3-0.3,2.4-0.4,3.6,0.1c1.2,0.5,1.7,1.7,2.6,2.3c0.5-0.4,0.5-0.9,0.6-1.4H748.9z M747.6,614.5c1,0,1.8,0.8,1.8,1.9
			c0,1.2-1,2.2-2.2,2.1c-1-0.1-1.8-1-1.7-2.1c0.1-1.2,1-2.1,2.2-2L747.6,614.5z M767.3,629.1c1.2,0,1.3-0.2,1-1.3
			c-0.1-0.3-0.2-0.6-0.3-0.9c-1.7-7.3-3.4-14.7-5-22c-0.5-2.2-1-4.4-1.6-6.8c-0.6,0.4-0.6,0.9-0.7,1.4c-2.2,6.7-4.4,13.4-6.6,20.1
			c-0.8,2.6-1.7,5.2-2.5,8c-0.4,1.3-0.3,1.5,0.9,1.5c4.9,0,9.9,0,14.8,0V629.1z"/>
	</g>
	<g>
		<path class="st0" d="M88.4,723.8c0.5,2.2,1.2,3.8,2.3,4.8c1.1,1.1,2.6,1.6,4.7,1.6c1.1,0,2-0.2,2.9-0.5c0.9-0.4,1.5-0.9,2.1-1.8
			c0.5-0.8,0.8-1.8,0.8-3c0-1.1-0.2-2.1-0.6-2.9c-0.4-0.8-1.1-1.6-2-2.3c-0.9-0.7-2.2-1.5-3.9-2.4c-1.4-0.7-2.7-1.4-3.8-2.2
			c-1.1-0.8-2.1-1.6-2.9-2.5c-0.8-0.9-1.4-1.9-1.9-3s-0.7-2.3-0.7-3.7c0-2.2,0.6-4.1,1.7-5.7c1.1-1.6,2.7-2.7,4.8-3.5
			c2.1-0.8,4.5-1.2,7.3-1.2c1.6,0,3.2,0.1,4.6,0.3c1.5,0.2,3.1,0.5,5,0.9v7.9h-3.7c-0.3-1.4-0.8-2.6-1.3-3.4c-0.5-0.8-1.2-1.5-2-1.9
			c-0.8-0.4-1.8-0.6-3-0.6c-1,0-2,0.2-2.8,0.5c-0.8,0.4-1.5,0.9-1.9,1.6c-0.5,0.7-0.7,1.6-0.7,2.6c0,1.1,0.2,2,0.6,2.7
			c0.4,0.8,1.1,1.5,2.1,2.3c1,0.7,2.4,1.6,4.2,2.5c2.2,1.2,4,2.3,5.3,3.4c1.3,1.1,2.2,2.3,2.8,3.6c0.6,1.3,0.9,2.8,0.9,4.6
			c0,2.2-0.5,4.2-1.5,5.8s-2.5,2.9-4.5,3.8c-2,0.9-4.3,1.3-6.8,1.3c-1.8,0-3.8-0.1-5.8-0.3c-2-0.2-3.9-0.5-5.6-0.9v-8.4H88.4z"/>
		<path class="st0" d="M140.5,695.8v8.6h-3.7c-0.6-1.7-1.1-2.9-1.5-3.5c-0.4-0.6-0.9-1.1-1.5-1.4c-0.6-0.4-1.6-0.5-3-0.5h-5.9v13
			h3.6c0.8,0,1.4-0.1,1.9-0.3c0.5-0.2,0.8-0.6,1.1-1.1c0.3-0.5,0.6-1.3,0.9-2.4h3.1v11h-3.1c-0.3-1-0.5-1.9-0.8-2.4
			c-0.3-0.6-0.7-0.9-1.1-1.2c-0.4-0.2-1.1-0.4-1.9-0.4h-3.6v14.5h5.9c0.6,0,1.2,0,1.6-0.1c0.4-0.1,0.8-0.2,1.2-0.4
			c0.3-0.2,0.7-0.5,1-0.8c0.3-0.3,0.6-0.7,0.8-1.1c0.2-0.4,0.5-0.9,0.8-1.6c0.3-0.7,0.6-1.5,0.9-2.7h3.7l-0.5,9.9h-26.7v-1.8
			c0.7-0.2,1.2-0.4,1.6-0.6c0.4-0.2,0.7-0.5,0.9-0.9c0.2-0.4,0.3-0.8,0.4-1.4c0.1-0.6,0.1-1.3,0.1-2.2v-23.4c0-0.9,0-1.6-0.1-2.1
			c0-0.6-0.2-1-0.4-1.4c-0.2-0.4-0.5-0.7-0.9-0.9c-0.4-0.2-0.9-0.4-1.6-0.6v-1.8H140.5z"/>
		<path class="st0" d="M159.9,732.9h-14.3v-1.8c0.7-0.2,1.2-0.4,1.6-0.6c0.4-0.2,0.7-0.5,0.9-0.9c0.2-0.4,0.3-0.8,0.4-1.4
			c0.1-0.6,0.1-1.3,0.1-2.2v-23.4c0-0.9,0-1.6-0.1-2.1c0-0.6-0.2-1-0.4-1.4c-0.2-0.4-0.5-0.7-0.9-0.9c-0.4-0.2-0.9-0.4-1.6-0.6v-1.8
			h15.8c2.1,0,4,0.2,5.4,0.4c1.5,0.3,2.8,0.8,3.9,1.4c0.9,0.5,1.7,1.1,2.4,1.9c0.7,0.8,1.2,1.7,1.5,2.7c0.4,1,0.5,2.2,0.5,3.6
			c0,1.8-0.3,3.3-0.9,4.6c-0.6,1.3-1.5,2.3-2.5,3.2c-1.1,0.8-2.5,1.6-4.3,2.4v0.3c1.3,0.6,2.4,1.4,3.3,2.3c0.9,1,1.7,2.2,2.4,3.7
			l1.7,3.7c0.8,1.6,1.5,2.9,2.3,3.7c0.8,0.8,1.6,1.3,2.7,1.5v1.8h-10.5c-1.1-1.4-2.2-3.6-3.6-6.5l-2.1-4.6c-0.6-1.4-1.2-2.4-1.6-2.9
			c-0.5-0.6-0.9-1-1.4-1.2c-0.5-0.2-1.2-0.3-2.2-0.3H157v8.8c0,1.4,0.1,2.3,0.2,2.9c0.1,0.5,0.4,1,0.7,1.3c0.4,0.3,1,0.6,2,0.9
			V732.9z M157,699.1v15.1h2.7c1.4,0,2.6-0.2,3.6-0.6c0.9-0.4,1.7-0.9,2.2-1.6c0.6-0.7,0.9-1.5,1.1-2.5c0.2-0.9,0.3-2,0.3-3.1
			c0-2.5-0.6-4.3-1.7-5.5c-1.2-1.2-2.9-1.8-5.2-1.8C158.5,699,157.5,699,157,699.1z"/>
		<path class="st0" d="M203.1,704.7c0.3-0.8,0.5-1.5,0.6-2.1c0.2-0.7,0.2-1.4,0.2-2.1c0-0.9-0.2-1.6-0.7-2c-0.5-0.5-1.2-0.7-2.1-0.8
			v-1.8h11.7v1.8c-0.7,0.1-1.3,0.3-1.8,0.7c-0.5,0.3-0.9,0.8-1.3,1.4c-0.4,0.6-0.8,1.6-1.4,3.1l-11.4,30.3h-6.3l-9-30.4
			c-0.4-1.4-0.7-2.3-1-2.9c-0.3-0.6-0.6-1-1.1-1.4c-0.4-0.4-1-0.6-1.8-0.8v-1.8h15v1.8c-0.9,0.1-1.6,0.4-2.1,0.8
			c-0.5,0.4-0.7,1-0.7,1.8c0,0.6,0.1,1.2,0.2,1.8c0.1,0.6,0.3,1.5,0.7,2.7l5.4,19.5L203.1,704.7z"/>
		<path class="st0" d="M226.6,726.1c0,0.6,0,1.2,0.1,1.8c0,0.5,0.1,1,0.2,1.3c0.1,0.3,0.3,0.6,0.5,0.9c0.2,0.2,0.5,0.4,0.9,0.6
			c0.4,0.2,0.8,0.3,1.3,0.4v1.8h-14.3v-1.8c0.7-0.2,1.2-0.4,1.6-0.6c0.4-0.2,0.7-0.5,0.9-0.9c0.2-0.4,0.3-0.8,0.4-1.4
			c0.1-0.6,0.1-1.3,0.1-2.2v-23.4c0-0.9,0-1.6-0.1-2.1c0-0.6-0.2-1-0.4-1.4c-0.2-0.4-0.5-0.7-0.9-0.9c-0.4-0.2-0.9-0.4-1.6-0.6v-1.8
			h14.3v1.8c-0.7,0.2-1.3,0.4-1.6,0.6c-0.4,0.2-0.6,0.5-0.8,0.8c-0.2,0.3-0.3,0.8-0.4,1.3c-0.1,0.5-0.1,1.3-0.1,2.3V726.1z"/>
		<path class="st0" d="M267.6,695.8v1.8c-0.7,0.2-1.2,0.4-1.5,0.6c-0.3,0.2-0.6,0.4-0.8,0.7c-0.2,0.3-0.4,0.7-0.5,1.2
			s-0.2,1.4-0.2,2.5v30.3h-6.9l-12.2-21.1c-1.6-2.9-2.9-5.1-3.6-6.7h-0.2c0.2,3.9,0.3,8,0.3,12.3v8.7c0,1.4,0.1,2.3,0.2,2.9
			c0.1,0.5,0.4,1,0.7,1.3c0.4,0.3,1,0.6,2,0.9v1.8h-10.3v-1.8c0.7-0.2,1.2-0.4,1.6-0.6c0.4-0.2,0.7-0.5,0.9-0.9
			c0.2-0.4,0.3-0.8,0.4-1.4c0.1-0.6,0.1-1.3,0.1-2.1v-23.5c0-1.4-0.1-2.3-0.2-2.8c-0.1-0.5-0.4-0.9-0.7-1.3c-0.4-0.3-1-0.6-2-0.9
			v-1.8h11l9.6,16.7c0.6,1.1,1.4,2.5,2.3,4.3c1,1.8,1.8,3.5,2.6,5.1h0.4c-0.2-4.3-0.3-9.1-0.3-14.2v-5.1c0-1.2,0-2-0.1-2.6
			c-0.1-0.5-0.2-0.9-0.4-1.2c-0.2-0.3-0.4-0.5-0.8-0.7c-0.3-0.2-0.8-0.4-1.6-0.6v-1.8H267.6z"/>
		<path class="st0" d="M301,696.8v7.7h-3.7c-0.4-1.5-0.9-2.7-1.4-3.5c-0.5-0.8-1.2-1.4-2.1-1.8c-0.8-0.4-1.9-0.6-3.2-0.6
			c-1.8,0-3.4,0.5-4.8,1.6c-1.4,1.1-2.5,2.8-3.3,5.2c-0.8,2.4-1.2,5.4-1.2,9.1c0,3.2,0.3,5.9,0.8,8.2c0.5,2.3,1.3,4.1,2.4,5.4
			c1.1,1.3,2.4,1.9,4.1,1.9c1.6,0,2.8-0.5,3.5-1.4c0.8-1,1.1-2.5,1.1-4.6v-1c0-1.4,0-2.4-0.1-2.9c-0.1-0.6-0.2-1-0.4-1.3
			c-0.2-0.3-0.4-0.5-0.7-0.7c-0.3-0.2-0.9-0.4-1.6-0.6v-1.8h13.9v1.8c-0.9,0.3-1.5,0.6-1.8,0.9c-0.3,0.3-0.5,0.8-0.7,1.4
			c-0.1,0.6-0.2,1.4-0.2,2.4v10.2l-3.9,0.8l-1.8-2c-2.2,1.3-4.6,2-7.4,2c-5.3,0-9.2-1.5-11.8-4.6c-2.6-3.1-3.9-7.8-3.9-14
			c0-3.3,0.5-6.2,1.4-8.7c0.9-2.5,2.2-4.5,3.8-6.1c1.6-1.6,3.5-2.7,5.5-3.4c2.1-0.7,4.3-1.1,6.6-1.1
			C294,695.4,297.7,695.9,301,696.8z"/>
		<path class="st0" d="M352.8,726.1c0,1.4,0.1,2.3,0.2,2.9c0.1,0.5,0.4,0.9,0.7,1.3c0.4,0.3,1,0.6,2,0.9v1.8h-14.2v-1.8
			c1.1-0.3,1.7-0.5,2-0.8c0.3-0.3,0.5-0.7,0.7-1.2c0.1-0.5,0.2-1.5,0.2-3.1v-10.9h-12.3v10.9c0,0.6,0,1.2,0.1,1.8
			c0,0.5,0.1,1,0.2,1.3c0.1,0.3,0.3,0.6,0.5,0.9c0.2,0.2,0.5,0.4,0.9,0.6c0.4,0.2,0.8,0.3,1.3,0.4v1.8h-14.3v-1.8
			c0.7-0.2,1.2-0.4,1.6-0.6c0.4-0.2,0.7-0.5,0.9-0.9c0.2-0.4,0.3-0.8,0.4-1.4c0.1-0.6,0.1-1.3,0.1-2.2v-23.4c0-0.9,0-1.6-0.1-2.1
			c0-0.6-0.2-1-0.4-1.4c-0.2-0.4-0.5-0.7-0.9-0.9c-0.4-0.2-0.9-0.4-1.6-0.6v-1.8H335v1.8c-1,0.3-1.6,0.6-2,0.9
			c-0.4,0.3-0.6,0.8-0.7,1.3c-0.1,0.5-0.2,1.5-0.2,2.9v9.1h12.3v-9.1c0-1.4-0.1-2.3-0.2-2.9c-0.1-0.5-0.4-1-0.7-1.3
			c-0.4-0.3-1-0.6-2-0.9v-1.8h14.2v1.8c-0.8,0.2-1.4,0.4-1.7,0.7c-0.4,0.2-0.6,0.6-0.8,0.9c-0.2,0.4-0.3,0.8-0.3,1.3
			c0,0.5-0.1,1.2-0.1,2.2V726.1z"/>
		<path class="st0" d="M384.8,702.7c0-1.4-0.1-2.3-0.2-2.8c-0.1-0.5-0.3-1-0.7-1.3c-0.3-0.3-1-0.6-2-0.9v-1.8h12v1.8
			c-0.7,0.2-1.2,0.4-1.5,0.6c-0.4,0.2-0.7,0.5-0.9,0.9c-0.2,0.4-0.3,0.8-0.4,1.4c-0.1,0.6-0.1,1.3-0.1,2.2v17c0,2.2-0.2,4.1-0.5,5.6
			c-0.4,1.5-0.9,2.8-1.7,3.8c-0.8,1-1.7,1.9-2.8,2.5c-1.1,0.6-2.4,1.1-3.8,1.4c-1.4,0.3-3,0.4-4.8,0.4c-2.6,0-4.7-0.3-6.5-0.8
			c-1.8-0.5-3.2-1.3-4.3-2.4c-1.1-1.1-1.9-2.4-2.5-3.9c-0.5-1.5-0.8-3.5-0.8-6v-17.6c0-0.9,0-1.6-0.1-2.1c0-0.6-0.2-1-0.4-1.4
			c-0.2-0.4-0.5-0.7-0.9-0.9c-0.4-0.2-0.9-0.4-1.6-0.6v-1.8h14.3v1.8c-0.7,0.2-1.3,0.4-1.6,0.6c-0.4,0.2-0.6,0.5-0.8,0.8
			c-0.2,0.3-0.3,0.8-0.4,1.3c-0.1,0.5-0.1,1.3-0.1,2.3v17.9c0,1.4,0.1,2.7,0.3,3.9c0.2,1.2,0.5,2.2,1,3c0.5,0.8,1.1,1.5,2,1.9
			c0.9,0.5,1.9,0.7,3.3,0.7c1.8,0,3.2-0.4,4.1-1.1c0.9-0.7,1.5-1.8,1.9-3.1c0.4-1.3,0.6-3.3,0.6-6V702.7z"/>
		<path class="st0" d="M427,696.8v7.7h-3.7c-0.4-1.5-0.9-2.7-1.4-3.5c-0.5-0.8-1.2-1.4-2.1-1.8c-0.8-0.4-1.9-0.6-3.2-0.6
			c-1.8,0-3.4,0.5-4.8,1.6c-1.4,1.1-2.5,2.8-3.3,5.2c-0.8,2.4-1.2,5.4-1.2,9.1c0,3.2,0.3,5.9,0.8,8.2c0.5,2.3,1.3,4.1,2.4,5.4
			c1.1,1.3,2.4,1.9,4.1,1.9c1.6,0,2.8-0.5,3.5-1.4c0.8-1,1.1-2.5,1.1-4.6v-1c0-1.4,0-2.4-0.1-2.9c-0.1-0.6-0.2-1-0.4-1.3
			c-0.2-0.3-0.4-0.5-0.7-0.7c-0.3-0.2-0.9-0.4-1.6-0.6v-1.8h13.9v1.8c-0.9,0.3-1.5,0.6-1.8,0.9c-0.3,0.3-0.5,0.8-0.7,1.4
			c-0.1,0.6-0.2,1.4-0.2,2.4v10.2l-3.9,0.8l-1.8-2c-2.2,1.3-4.6,2-7.4,2c-5.3,0-9.2-1.5-11.8-4.6c-2.6-3.1-3.9-7.8-3.9-14
			c0-3.3,0.5-6.2,1.4-8.7c0.9-2.5,2.2-4.5,3.8-6.1c1.6-1.6,3.5-2.7,5.5-3.4c2.1-0.7,4.3-1.1,6.6-1.1
			C420.1,695.4,423.7,695.9,427,696.8z"/>
		<path class="st0" d="M437.9,723.8c0.5,2.2,1.2,3.8,2.3,4.8c1.1,1.1,2.6,1.6,4.7,1.6c1.1,0,2-0.2,2.9-0.5c0.9-0.4,1.5-0.9,2.1-1.8
			c0.5-0.8,0.8-1.8,0.8-3c0-1.1-0.2-2.1-0.6-2.9c-0.4-0.8-1.1-1.6-2-2.3c-0.9-0.7-2.2-1.5-3.9-2.4c-1.4-0.7-2.7-1.4-3.8-2.2
			s-2.1-1.6-2.9-2.5c-0.8-0.9-1.4-1.9-1.9-3c-0.4-1.1-0.7-2.3-0.7-3.7c0-2.2,0.6-4.1,1.7-5.7c1.1-1.6,2.7-2.7,4.8-3.5
			c2.1-0.8,4.5-1.2,7.3-1.2c1.6,0,3.2,0.1,4.6,0.3c1.5,0.2,3.1,0.5,5,0.9v7.9h-3.7c-0.3-1.4-0.8-2.6-1.3-3.4c-0.5-0.8-1.2-1.5-2-1.9
			c-0.8-0.4-1.8-0.6-3-0.6c-1,0-2,0.2-2.8,0.5c-0.8,0.4-1.5,0.9-1.9,1.6c-0.5,0.7-0.7,1.6-0.7,2.6c0,1.1,0.2,2,0.6,2.7
			c0.4,0.8,1.1,1.5,2.1,2.3c1,0.7,2.4,1.6,4.2,2.5c2.2,1.2,4,2.3,5.3,3.4c1.3,1.1,2.2,2.3,2.8,3.6c0.6,1.3,0.9,2.8,0.9,4.6
			c0,2.2-0.5,4.2-1.5,5.8s-2.5,2.9-4.5,3.8c-2,0.9-4.3,1.3-6.8,1.3c-1.8,0-3.8-0.1-5.8-0.3c-2-0.2-3.9-0.5-5.6-0.9v-8.4H437.9z"/>
		<path class="st0" d="M486.7,726.1c0,0.6,0,1.2,0.1,1.8c0,0.5,0.1,1,0.2,1.3c0.1,0.3,0.3,0.6,0.5,0.9c0.2,0.2,0.5,0.4,0.9,0.6
			c0.4,0.2,0.8,0.3,1.3,0.4v1.8h-14.3v-1.8c0.7-0.2,1.2-0.4,1.6-0.6c0.4-0.2,0.7-0.5,0.9-0.9c0.2-0.4,0.3-0.8,0.4-1.4
			c0.1-0.6,0.1-1.3,0.1-2.2v-23.4c0-0.9,0-1.6-0.1-2.1c0-0.6-0.2-1-0.4-1.4c-0.2-0.4-0.5-0.7-0.9-0.9c-0.4-0.2-0.9-0.4-1.6-0.6v-1.8
			h14.3v1.8c-0.7,0.2-1.3,0.4-1.6,0.6c-0.4,0.2-0.6,0.5-0.8,0.8c-0.2,0.3-0.3,0.8-0.4,1.3c-0.1,0.5-0.1,1.3-0.1,2.3V726.1z"/>
		<path class="st0" d="M527.7,695.8v1.8c-0.7,0.2-1.2,0.4-1.5,0.6c-0.3,0.2-0.6,0.4-0.8,0.7c-0.2,0.3-0.4,0.7-0.5,1.2
			c-0.1,0.6-0.2,1.4-0.2,2.5v30.3h-6.9l-12.2-21.1c-1.6-2.9-2.9-5.1-3.6-6.7h-0.2c0.2,3.9,0.3,8,0.3,12.3v8.7c0,1.4,0.1,2.3,0.2,2.9
			c0.1,0.5,0.4,1,0.7,1.3c0.4,0.3,1,0.6,2,0.9v1.8h-10.3v-1.8c0.7-0.2,1.2-0.4,1.6-0.6c0.4-0.2,0.7-0.5,0.9-0.9
			c0.2-0.4,0.3-0.8,0.4-1.4c0.1-0.6,0.1-1.3,0.1-2.1v-23.5c0-1.4-0.1-2.3-0.2-2.8c-0.1-0.5-0.4-0.9-0.7-1.3c-0.4-0.3-1-0.6-2-0.9
			v-1.8h11l9.6,16.7c0.6,1.1,1.4,2.5,2.3,4.3c1,1.8,1.8,3.5,2.6,5.1h0.4c-0.2-4.3-0.3-9.1-0.3-14.2v-5.1c0-1.2,0-2-0.1-2.6
			c-0.1-0.5-0.2-0.9-0.4-1.2c-0.2-0.3-0.4-0.5-0.8-0.7c-0.3-0.2-0.8-0.4-1.6-0.6v-1.8H527.7z"/>
		<path class="st0" d="M586.7,697.6c-1,0.3-1.6,0.6-2,0.9c-0.3,0.3-0.6,0.7-0.7,1.3c-0.1,0.5-0.2,1.5-0.2,2.8v23.5
			c0,1.1,0.1,2,0.2,2.6c0.1,0.6,0.3,1.1,0.7,1.5c0.3,0.3,1,0.6,2.1,0.9v1.8h-13.9v-1.8c0.8-0.2,1.3-0.4,1.7-0.6
			c0.3-0.2,0.5-0.4,0.7-0.6c0.2-0.3,0.3-0.7,0.4-1.2c0.1-0.5,0.1-1.4,0.1-2.6v-13.3c0-1.5,0-3.2,0.1-5.2c0.1-2,0.1-3.4,0.2-4.2h-0.6
			c-0.2,0.7-0.4,1.4-0.7,2.1c-0.2,0.7-0.7,1.9-1.4,3.7l-7.3,19.6h-4.8l-7.7-22c-0.5-1.2-0.9-2.5-1.2-3.7h-0.5
			c0.2,3,0.3,6.5,0.3,10.6v12.5c0,1.3,0.1,2.3,0.2,2.8c0.1,0.5,0.4,1,0.8,1.3c0.4,0.3,1,0.6,2,0.9v1.8h-10.3v-1.8
			c0.7-0.2,1.2-0.4,1.6-0.6c0.4-0.2,0.7-0.5,0.9-0.9c0.2-0.4,0.3-0.8,0.4-1.4c0-0.6,0.1-1.3,0.1-2.1v-23.5c0-1.4-0.1-2.3-0.2-2.8
			c-0.1-0.5-0.3-0.9-0.7-1.3c-0.3-0.3-1-0.6-2-0.9v-1.8h13.5l7.5,22.3l8.2-22.3h12.7V697.6z"/>
		<path class="st0" d="M615.9,702.7c0-1.4-0.1-2.3-0.2-2.8c-0.1-0.5-0.3-1-0.7-1.3s-1-0.6-2-0.9v-1.8h12v1.8
			c-0.7,0.2-1.2,0.4-1.5,0.6c-0.4,0.2-0.7,0.5-0.9,0.9c-0.2,0.4-0.3,0.8-0.4,1.4c-0.1,0.6-0.1,1.3-0.1,2.2v17c0,2.2-0.2,4.1-0.5,5.6
			c-0.4,1.5-0.9,2.8-1.7,3.8c-0.8,1-1.7,1.9-2.8,2.5c-1.1,0.6-2.4,1.1-3.8,1.4c-1.4,0.3-3,0.4-4.8,0.4c-2.6,0-4.7-0.3-6.5-0.8
			c-1.8-0.5-3.2-1.3-4.3-2.4c-1.1-1.1-1.9-2.4-2.5-3.9c-0.5-1.5-0.8-3.5-0.8-6v-17.6c0-0.9,0-1.6-0.1-2.1c0-0.6-0.2-1-0.4-1.4
			c-0.2-0.4-0.5-0.7-0.9-0.9c-0.4-0.2-0.9-0.4-1.6-0.6v-1.8h14.3v1.8c-0.7,0.2-1.3,0.4-1.6,0.6c-0.4,0.2-0.6,0.5-0.8,0.8
			s-0.3,0.8-0.4,1.3c-0.1,0.5-0.1,1.3-0.1,2.3v17.9c0,1.4,0.1,2.7,0.3,3.9c0.2,1.2,0.5,2.2,1,3c0.5,0.8,1.1,1.5,2,1.9
			c0.9,0.5,1.9,0.7,3.3,0.7c1.8,0,3.2-0.4,4.1-1.1c0.9-0.7,1.5-1.8,1.9-3.1c0.4-1.3,0.6-3.3,0.6-6V702.7z"/>
		<path class="st0" d="M658.1,696.8v7.7h-3.7c-0.4-1.5-0.9-2.7-1.4-3.5c-0.5-0.8-1.2-1.4-2.1-1.8c-0.8-0.4-1.9-0.6-3.2-0.6
			c-1.8,0-3.4,0.5-4.8,1.6c-1.4,1.1-2.5,2.8-3.3,5.2c-0.8,2.4-1.2,5.4-1.2,9.1c0,3.2,0.3,5.9,0.8,8.2c0.5,2.3,1.3,4.1,2.4,5.4
			c1.1,1.3,2.4,1.9,4.1,1.9c1.6,0,2.8-0.5,3.5-1.4c0.8-1,1.1-2.5,1.1-4.6v-1c0-1.4,0-2.4-0.1-2.9c-0.1-0.6-0.2-1-0.4-1.3
			c-0.2-0.3-0.4-0.5-0.7-0.7c-0.3-0.2-0.9-0.4-1.6-0.6v-1.8h13.9v1.8c-0.9,0.3-1.5,0.6-1.8,0.9c-0.3,0.3-0.5,0.8-0.7,1.4
			c-0.1,0.6-0.2,1.4-0.2,2.4v10.2l-3.9,0.8l-1.8-2c-2.2,1.3-4.6,2-7.4,2c-5.3,0-9.2-1.5-11.8-4.6c-2.6-3.1-3.9-7.8-3.9-14
			c0-3.3,0.5-6.2,1.4-8.7c0.9-2.5,2.2-4.5,3.8-6.1c1.6-1.6,3.5-2.7,5.5-3.4s4.3-1.1,6.6-1.1C651.1,695.4,654.7,695.9,658.1,696.8z"
			/>
		<path class="st0" d="M668.9,723.8c0.5,2.2,1.2,3.8,2.3,4.8c1.1,1.1,2.6,1.6,4.7,1.6c1.1,0,2-0.2,2.9-0.5c0.9-0.4,1.5-0.9,2.1-1.8
			c0.5-0.8,0.8-1.8,0.8-3c0-1.1-0.2-2.1-0.6-2.9c-0.4-0.8-1.1-1.6-2-2.3c-0.9-0.7-2.2-1.5-3.9-2.4c-1.4-0.7-2.7-1.4-3.8-2.2
			s-2.1-1.6-2.9-2.5c-0.8-0.9-1.4-1.9-1.9-3s-0.7-2.3-0.7-3.7c0-2.2,0.6-4.1,1.7-5.7c1.1-1.6,2.7-2.7,4.8-3.5
			c2.1-0.8,4.5-1.2,7.3-1.2c1.6,0,3.2,0.1,4.6,0.3c1.5,0.2,3.1,0.5,5,0.9v7.9h-3.7c-0.3-1.4-0.8-2.6-1.3-3.4c-0.5-0.8-1.2-1.5-2-1.9
			c-0.8-0.4-1.8-0.6-3-0.6c-1,0-2,0.2-2.8,0.5c-0.8,0.4-1.5,0.9-1.9,1.6c-0.5,0.7-0.7,1.6-0.7,2.6c0,1.1,0.2,2,0.6,2.7
			c0.4,0.8,1.1,1.5,2.1,2.3c1,0.7,2.4,1.6,4.2,2.5c2.2,1.2,4,2.3,5.3,3.4c1.3,1.1,2.2,2.3,2.8,3.6c0.6,1.3,0.9,2.8,0.9,4.6
			c0,2.2-0.5,4.2-1.5,5.8c-1,1.6-2.5,2.9-4.5,3.8c-2,0.9-4.3,1.3-6.8,1.3c-1.8,0-3.8-0.1-5.8-0.3c-2-0.2-3.9-0.5-5.6-0.9v-8.4H668.9
			z"/>
		<path class="st0" d="M709.7,723.8c0.5,2.2,1.2,3.8,2.3,4.8c1.1,1.1,2.6,1.6,4.7,1.6c1.1,0,2-0.2,2.9-0.5c0.9-0.4,1.5-0.9,2.1-1.8
			c0.5-0.8,0.8-1.8,0.8-3c0-1.1-0.2-2.1-0.6-2.9c-0.4-0.8-1.1-1.6-2-2.3c-0.9-0.7-2.2-1.5-3.9-2.4c-1.4-0.7-2.7-1.4-3.8-2.2
			s-2.1-1.6-2.9-2.5s-1.4-1.9-1.9-3s-0.7-2.3-0.7-3.7c0-2.2,0.6-4.1,1.7-5.7c1.1-1.6,2.7-2.7,4.8-3.5c2.1-0.8,4.5-1.2,7.3-1.2
			c1.6,0,3.2,0.1,4.6,0.3c1.5,0.2,3.1,0.5,5,0.9v7.9h-3.7c-0.3-1.4-0.8-2.6-1.3-3.4c-0.5-0.8-1.2-1.5-2-1.9c-0.8-0.4-1.8-0.6-3-0.6
			c-1,0-2,0.2-2.8,0.5c-0.8,0.4-1.5,0.9-1.9,1.6c-0.5,0.7-0.7,1.6-0.7,2.6c0,1.1,0.2,2,0.6,2.7c0.4,0.8,1.1,1.5,2.1,2.3
			c1,0.7,2.4,1.6,4.2,2.5c2.2,1.2,4,2.3,5.3,3.4c1.3,1.1,2.2,2.3,2.8,3.6c0.6,1.3,0.9,2.8,0.9,4.6c0,2.2-0.5,4.2-1.5,5.8
			c-1,1.6-2.5,2.9-4.5,3.8c-2,0.9-4.3,1.3-6.8,1.3c-1.8,0-3.8-0.1-5.8-0.3c-2-0.2-3.9-0.5-5.6-0.9v-8.4H709.7z"/>
		<path class="st0" d="M746.2,726.1c0,0.6,0,1.2,0.1,1.8s0.1,1,0.2,1.3c0.1,0.3,0.3,0.6,0.5,0.9c0.2,0.2,0.5,0.4,0.9,0.6
			c0.4,0.2,0.8,0.3,1.3,0.4v1.8h-14.3v-1.8c0.7-0.2,1.2-0.4,1.6-0.6c0.4-0.2,0.7-0.5,0.9-0.9c0.2-0.4,0.3-0.8,0.4-1.4
			c0.1-0.6,0.1-1.3,0.1-2.2v-23.4c0-0.9,0-1.6-0.1-2.1c0-0.6-0.2-1-0.4-1.4c-0.2-0.4-0.5-0.7-0.9-0.9c-0.4-0.2-0.9-0.4-1.6-0.6v-1.8
			h14.3v1.8c-0.7,0.2-1.3,0.4-1.6,0.6c-0.4,0.2-0.6,0.5-0.8,0.8c-0.2,0.3-0.3,0.8-0.4,1.3c-0.1,0.5-0.1,1.3-0.1,2.3V726.1z"/>
		<path class="st0" d="M787.3,695.8v1.8c-0.7,0.2-1.2,0.4-1.5,0.6c-0.3,0.2-0.6,0.4-0.8,0.7c-0.2,0.3-0.4,0.7-0.5,1.2
			c-0.1,0.6-0.2,1.4-0.2,2.5v30.3h-6.9l-12.2-21.1c-1.6-2.9-2.9-5.1-3.6-6.7h-0.2c0.2,3.9,0.3,8,0.3,12.3v8.7c0,1.4,0.1,2.3,0.2,2.9
			c0.1,0.5,0.4,1,0.7,1.3c0.4,0.3,1,0.6,2,0.9v1.8h-10.3v-1.8c0.7-0.2,1.2-0.4,1.6-0.6s0.7-0.5,0.9-0.9c0.2-0.4,0.3-0.8,0.4-1.4
			c0.1-0.6,0.1-1.3,0.1-2.1v-23.5c0-1.4-0.1-2.3-0.2-2.8c-0.1-0.5-0.4-0.9-0.7-1.3c-0.4-0.3-1-0.6-2-0.9v-1.8h11l9.6,16.7
			c0.6,1.1,1.4,2.5,2.3,4.3c1,1.8,1.8,3.5,2.6,5.1h0.4c-0.2-4.3-0.3-9.1-0.3-14.2v-5.1c0-1.2,0-2-0.1-2.6c-0.1-0.5-0.2-0.9-0.4-1.2
			c-0.2-0.3-0.4-0.5-0.8-0.7c-0.3-0.2-0.8-0.4-1.6-0.6v-1.8H787.3z"/>
		<path class="st0" d="M819.1,696.7v7.9h-3.7c-0.4-2-1.1-3.6-2.1-4.5c-0.9-1-2.2-1.5-3.7-1.5c-2.9,0-5,1.4-6.5,4.1
			c-1.5,2.7-2.2,6.8-2.2,12.2c0,5,0.7,8.8,2,11.4c1.3,2.6,3.3,3.9,5.9,3.9c1.3,0,2.4-0.2,3.2-0.7c0.8-0.4,1.5-1.1,2-2
			c0.5-0.9,0.9-2.1,1.3-3.8h3.7v8.2c-2,0.5-3.8,0.8-5.5,1s-3.4,0.3-5.1,0.3c-3.8,0-6.8-0.7-9.2-2c-2.4-1.4-4.1-3.4-5.3-6.2
			c-1.1-2.7-1.7-6.2-1.7-10.4c0-3.9,0.7-7.3,2-10.3c1.3-2.9,3.3-5.1,5.9-6.7c2.6-1.6,5.7-2.4,9.3-2.4c1.8,0,3.5,0.1,5,0.3
			C816,695.9,817.5,696.2,819.1,696.7z"/>
		<path class="st0" d="M851,695.8v8.6h-3.7c-0.6-1.7-1.1-2.9-1.5-3.5c-0.4-0.6-0.9-1.1-1.5-1.4c-0.6-0.4-1.6-0.5-3-0.5h-5.9v13h3.6
			c0.8,0,1.4-0.1,1.9-0.3c0.5-0.2,0.8-0.6,1.1-1.1c0.3-0.5,0.6-1.3,0.9-2.4h3.1v11h-3.1c-0.3-1-0.5-1.9-0.8-2.4
			c-0.3-0.6-0.7-0.9-1.1-1.2c-0.4-0.2-1.1-0.4-1.9-0.4h-3.6v14.5h5.9c0.6,0,1.2,0,1.6-0.1c0.4-0.1,0.8-0.2,1.2-0.4
			c0.3-0.2,0.7-0.5,1-0.8c0.3-0.3,0.6-0.7,0.8-1.1c0.2-0.4,0.5-0.9,0.8-1.6c0.3-0.7,0.6-1.5,0.9-2.7h3.7l-0.5,9.9H824v-1.8
			c0.7-0.2,1.2-0.4,1.6-0.6c0.4-0.2,0.7-0.5,0.9-0.9c0.2-0.4,0.3-0.8,0.4-1.4c0.1-0.6,0.1-1.3,0.1-2.2v-23.4c0-0.9,0-1.6-0.1-2.1
			c0-0.6-0.2-1-0.4-1.4c-0.2-0.4-0.5-0.7-0.9-0.9c-0.4-0.2-0.9-0.4-1.6-0.6v-1.8H851z"/>
		<path class="st0" d="M887.6,725.3c0,1,0.1,1.8,0.2,2.4c0.1,0.5,0.3,1,0.6,1.3c0.3,0.3,0.7,0.6,1.3,0.8c0.6,0.2,1.3,0.3,2.1,0.4
			c0.9,0.1,2,0.2,3.4,0.2v2.5h-23.4v-2.5c2-0.1,3.4-0.2,4.3-0.4c0.9-0.2,1.5-0.4,2-0.7c0.5-0.3,0.8-0.7,1-1.3
			c0.2-0.6,0.3-1.5,0.3-2.7v-19.6c0-0.7-0.1-1.3-0.4-1.6c-0.3-0.3-0.7-0.5-1.2-0.5c-0.5,0-1.1,0.2-1.9,0.6c-0.8,0.4-2.2,1.3-4.1,2.6
			l-1.7-2.9l14.2-8.5h3.5c-0.1,1.7-0.2,4.1-0.2,7.2V725.3z"/>
		<path class="st0" d="M907.6,731.7v-2c1.2,0,2.2-0.1,3.1-0.3c1-0.2,2-0.6,3-1c0.9-0.5,1.8-1.1,2.5-1.8c0.9-0.9,1.6-1.8,2.2-2.9
			c0.6-1.1,1-2.3,1.4-3.6c0.3-1.3,0.6-2.7,0.7-4.1l-0.3-0.1c-1.4,1-2.8,1.7-4.1,2.1c-1.4,0.4-3,0.7-4.9,0.7c-2.1,0-4-0.5-5.4-1.4
			c-1.5-0.9-2.6-2.2-3.4-3.8c-0.7-1.6-1.1-3.6-1.1-5.7c0-2.4,0.6-4.6,1.7-6.5c1.1-1.9,2.8-3.3,4.9-4.4c2.1-1,4.6-1.5,7.5-1.5
			c2.9,0,5.4,0.6,7.4,1.8c2,1.2,3.5,3,4.5,5.3c1,2.3,1.5,5.1,1.5,8.3c0,4.5-0.8,8.5-2.3,11.7c-1.5,3.3-3.8,5.8-6.7,7.6
			c-2.9,1.8-6.5,2.9-10.7,3.2L907.6,731.7z M914.4,715c0.7,0,1.3-0.1,1.9-0.2c0.6-0.1,1.1-0.3,1.6-0.6c0.5-0.3,1-0.6,1.4-1
			c0.4-0.4,0.7-0.7,0.9-0.9c0.1-0.2,0.3-0.6,0.4-1c0.1-0.5,0.1-1.1,0.1-1.8c0-3.5-0.5-6.3-1.4-8.2c-1-1.9-2.3-2.8-4.2-2.8
			c-1.1,0-2,0.2-2.7,0.6c-0.7,0.4-1.3,1-1.8,1.8c-0.5,0.8-0.8,1.7-1,2.7c-0.2,1.1-0.3,2.2-0.3,3.5C909.4,712.3,911,715,914.4,715z"
			/>
		<path class="st0" d="M947.9,733.4c-2.8,0-5.2-0.6-7.1-1.9c-1.9-1.2-3.4-3.2-4.4-6c-1-2.8-1.5-6.4-1.5-10.8c0-4.1,0.5-7.7,1.6-10.5
			c1-2.9,2.6-5.1,4.6-6.5c2-1.5,4.5-2.2,7.3-2.2c4.5,0,7.8,1.5,10,4.6c2.2,3,3.3,7.7,3.3,13.9c0,6.4-1.2,11.3-3.5,14.6
			C955.8,731.7,952.4,733.4,947.9,733.4z M943.1,713.9c0,4,0.2,7.2,0.5,9.5c0.4,2.4,0.9,4.1,1.7,5.2c0.8,1.1,1.8,1.7,3,1.7
			c0.7,0,1.3-0.2,1.8-0.5c0.5-0.3,1-0.9,1.4-1.6c0.4-0.7,0.8-1.7,1-2.9c0.3-1.2,0.5-2.7,0.6-4.4c0.1-1.8,0.2-3.7,0.2-5.9
			c0-3.2-0.1-6-0.4-8.2c-0.2-2.2-0.6-3.9-1-5.1c-0.5-1.2-1-2-1.6-2.6c-0.6-0.5-1.3-0.8-2.1-0.8c-1,0-1.8,0.3-2.4,1
			c-0.7,0.6-1.2,1.6-1.6,2.9c-0.4,1.3-0.7,2.9-0.9,4.8C943.2,709,943.1,711.3,943.1,713.9z"/>
		<path class="st0" d="M969,731.2v-6.8h4.9c0.5,2,1.2,3.4,2.2,4.4c1,1,2.3,1.5,3.9,1.5c2,0,3.4-0.6,4.4-1.8c0.9-1.2,1.4-3.1,1.4-5.7
			c0-2.5-0.6-4.4-1.8-5.8c-1.2-1.3-3-2-5.3-2c-0.9,0-1.8,0.1-2.9,0.2c-1,0.2-1.9,0.4-2.7,0.6l-2.4-1.5v-18.6h16.1
			c0.7,0,1.2,0,1.5-0.1c0.3-0.1,0.6-0.2,0.8-0.5c0.2-0.2,0.4-0.6,0.7-1.2h3l-0.5,8.7h-16.7v9.8c1.1-0.3,2.2-0.6,3.3-0.7
			c1.1-0.2,2.5-0.2,4.2-0.2c2.2,0,4.2,0.4,5.9,1.2c1.7,0.8,3,2,3.9,3.6c0.9,1.6,1.4,3.4,1.4,5.6c0,2.5-0.6,4.6-1.7,6.3
			c-1.1,1.7-2.7,3-4.9,3.8c-2.1,0.8-4.7,1.3-7.6,1.3c-1.9,0-3.8-0.2-5.8-0.6C972.1,732.4,970.4,731.9,969,731.2z"/>
	</g>
	<g>
		<path class="st0" d="M114.5,681c-4.1,0-7.9-1.8-11.1-5.1c-6.8-7.2-9.9-21.6-7.5-34.9c2.4-13.4,4.6-27,6.8-40.2l1.2-7.1
			c0.1-0.5,0.1-1.1,0.2-1.7c-13.8-16.6-21.9-44.2-21.9-74.3c0-30.8,8.2-58.5,22.5-76.4c-0.2-1.4-0.4-2.9-0.6-4.3
			c-0.7-4.6-1.5-9.1-2.2-13.7c-1.5-9.5-3-19.3-4.8-28.7c-2.6-13.9,0.2-28.1,7-36.3c3.4-4.1,7.5-6.3,11.9-6.3
			c16.7-0.1,33.7-0.5,50.1-0.8c16.5-0.4,33.6-0.7,50.3-0.8c23.7-0.1,47.9-0.5,74-1.3c14.2-0.5,28.6-0.6,42.5-0.6
			c3.9,0,7.9,0,11.8-0.1c17.8-0.2,36.3-0.5,56.6-0.8c11.4-0.3,22.9-0.3,34.1-0.4c3.5,0,6.9,0,10.4-0.1c24.8-0.2,50-0.2,74.3-0.2
			c11.4,0,22.8,0,34.2,0c28.8-0.1,57.1-0.1,85.5,0.5c8.9,0.2,17.9,0.2,26.7,0.2c9.2,0,18.7,0,28,0.2c7.8,0.1,15.6,0.2,23.5,0.3
			c13.3,0.2,27,0.3,40.6,0.7c25.6,0.6,50.8,0.9,80.9,1.2c23.4,0.1,47.2,0.6,70.3,1.1c17.8,0.4,36.2,0.8,54.4,1
			c4.3,0,8.4,2.2,11.8,6.3c6.7,8.1,9.5,22.1,7.1,35.7c-1.7,9.8-3.4,19.9-4.9,29.7c-0.9,5.8-1.9,11.7-2.9,17.6
			c29.8,37.1,30.2,115.3,0.7,150.9c1.1,6.8,2.3,13.7,3.4,20.7l1.1,6.5c1.2,7.2,2.5,14.6,3.6,21.9c0.7,4.5,0.9,8.1,0.8,11.4
			c-0.6,16.7-8.6,28.3-19.5,28.3c0,0-0.1,0-0.1,0c-6.6,0.1-13.3-0.1-19.8-0.3c-4-0.1-8-0.2-12-0.3c-11.1-0.2-22.2-0.4-33.3-0.7
			c-25.4-0.5-51.6-1.1-77.4-1.1c-0.1,0-0.1,0-0.2,0c-21.1,0-42.5-0.5-63.1-0.9l-6.7-0.1c-16.9-0.4-34.7-0.5-56-0.4
			c-23.2-0.1-46.7-0.3-69.4-0.7l-5.1-0.1c-31.5-0.6-62.6-0.6-92.6-0.2c-14.6,0.2-29.5,0.2-43.9,0.2c-8.2,0-16.3,0-24.5,0
			c-10.3,0.1-20.5,0.2-30.8,0.3c-11.9,0.1-24.2,0.3-36.4,0.3c-4.1,0-8.3,0-12.4,0c-15.2,0-30.9,0.1-46.4,0.4
			c-24.2,0.7-49.7,1-80.5,1.1c-29.2,0.1-59.1,0.8-87.9,1.4c-9.7,0.2-19.5,0.4-29.3,0.6c-2.4,0-4.8,0-7.2,0c-5,0-9.6,0-14.3,0.4
			C115.5,680.9,115,681,114.5,681z M500.5,356.2c-18.1,0-36.4,0-54.5,0.2c-3.5,0-6.9,0-10.4,0.1c-11.1,0.1-22.6,0.1-33.9,0.4
			c-20.3,0.4-38.9,0.6-56.7,0.8c-3.9,0-7.9,0.1-11.8,0.1c-13.9,0.1-28.2,0.2-42.3,0.6c-26.2,0.8-50.5,1.2-74.3,1.3
			c-16.7,0.1-33.7,0.5-50.2,0.8c-16.5,0.4-33.5,0.7-50.3,0.8c-2,0-3.7,1.8-4.6,2.9c-4.1,5-7.3,15.8-4.9,28.5
			c1.7,9.5,3.3,19.4,4.8,28.9c0.7,4.5,1.4,9.1,2.2,13.6c0.4,2.2,0.7,4.6,0.9,6.7l0.3,2.1l-1.4,1.6c-28.3,33.4-28.7,110.1-0.7,141.5
			l1.4,1.6l-0.2,2.1c0,0.4-0.1,0.9-0.1,1.3c-0.1,1-0.2,2-0.3,2.9l-1.2,7.1c-2.2,13.2-4.4,26.9-6.8,40.3c-1.7,10.1,0.5,21.8,5.1,26.8
			c2,2.1,3.6,2.2,4.7,2.1c5.2-0.5,10.4-0.5,15.3-0.4c2.3,0,4.7,0,7,0c9.8-0.2,19.5-0.4,29.2-0.6c28.9-0.6,58.8-1.2,88.1-1.4
			c30.7-0.1,56.2-0.4,80.3-1.1c15.6-0.4,31.3-0.4,46.6-0.4c4.1,0,8.3,0,12.4,0c12.1,0,24.4-0.2,36.3-0.3c10.3-0.1,20.6-0.2,30.9-0.3
			c8.2,0,16.4,0,24.6,0c14.3,0,29.2,0,43.7-0.2c30.1-0.4,61.3-0.4,92.9,0.2l5.1,0.1c22.5,0.3,45.8,0.7,68.7,0.7c0.2,0,0.4,0,0.6,0
			c21.4-0.1,39.3,0,56.2,0.4l6.7,0.1c20.6,0.4,41.9,0.9,62.9,0.9c0.1,0,0.1,0,0.2,0c25.9,0.1,52.2,0.6,77.6,1.2
			c11.1,0.2,22.1,0.5,33.2,0.7c4,0,8,0.2,12.1,0.3c6.4,0.2,13,0.3,19.5,0.3c0,0,0,0,0,0c5.4,0,9.7-8.2,10.1-19.1
			c0.1-2.7-0.1-5.7-0.7-9.6c-1.1-7.2-2.4-14.6-3.6-21.7l-1.1-6.6c-1.2-7.7-2.5-15.3-3.8-22.9l-0.4-2.3l1.5-1.7
			c28.3-31.7,27.9-108.5-0.7-141.8l-1.5-1.7l0.4-2.2c1.1-6.6,2.2-13.1,3.2-19.7c1.6-9.8,3.2-19.9,4.9-29.8c2.2-12.5-0.9-23-5-28
			c-1.5-1.8-3.1-2.9-4.5-2.9c-18.2-0.2-36.6-0.6-54.4-1c-23-0.5-46.9-1-70.2-1.1c-30.1-0.2-55.4-0.5-81.1-1.2
			c-13.5-0.4-27.2-0.6-40.5-0.7c-7.9-0.1-15.7-0.2-23.6-0.3c-9.3-0.2-18.7-0.2-27.9-0.2c-8.8,0-17.9,0-26.8-0.2
			c-28.3-0.6-56.5-0.5-85.3-0.5c-11.4,0-22.8,0-34.2,0C513.7,356.2,507.1,356.2,500.5,356.2z"/>
	</g>
	<g>
		<g>
			<g>
				<path class="st0" d="M955.6,622c-4,4.4-9,7.9-14.5,10.6l-1.4-1.9c0.9-0.4,1.7-0.8,2.6-1.3c-0.1,0-0.2,0-0.2,0
					c-0.6,0.4-1.2,0.7-1.9,1.1l-1-1.8c0.5-0.3,1-0.6,1.5-0.9c8.2-5,19.2-14.6,17.2-25.4c-1.2-6.5-7.6-10.6-13.7-7.3
					c-4.5,2.5-10.6,11.4-4.6,15.4c0.2,0.1,0.3,0.3,0.3,0.5c0.4,0.2,0.9,0.4,1.4,0.6c1.9,0.6,4.3,0.6,6.1-0.2c3.5-1.5,6.8-9,0.5-9.5
					c-1.4-0.1-1.2-2.3,0.2-2.2c5.4,0.3,7.1,6.1,4.4,10.3c-3,4.7-9.8,5.6-14.3,2.7c-4.9-3.1-5.6-9.9-2.8-14.7
					c3.2-5.5,10.3-7.9,16.4-6.7C967.2,594.3,963.4,613.3,955.6,622z"/>
			</g>
			<g>
				<path class="st0" d="M939.7,630.7l1.4,1.9c-8.5,4.1-18.2,6.4-27.2,7.3c-8.2,0.8-16.6,0.5-24.7-1c-7.7-1.4-16.4-3.5-22.9-8
					c-0.6-0.4-0.1-1.4,0.6-1.1c5.8,1.8,11.2,4.4,17.1,5.9c1,0.3,2.1,0.5,3.1,0.7c17.9,0.8,36,1.4,52.1-7.6l1,1.8
					C940,630.6,939.8,630.6,939.7,630.7z"/>
			</g>
			<g>
				<path class="st0" d="M874.4,647.7c2.3,2.9,1.8,6.8-2.1,8c-5,1.5-9-4-11.2-7.7c-3.3-5.5-4.8-11.8-4.4-18.2
					c-0.3-1.2,0.6-2.3,1.9-2.3c0.5,0,0.8,0.5,0.8,0.9c0,3.7,1.3,6.8,2.7,10.1C865.8,641.9,871.5,644,874.4,647.7z M860,641
					c0,0,0-0.1,0-0.2c-0.3-0.9-0.5-1.9-0.8-2.8c0-0.1,0-0.2,0-0.2c0-0.1-0.1-0.1-0.1-0.2C859.3,638.8,859.6,639.9,860,641z"/>
			</g>
			<g>
				<path class="st0" d="M916.4,602.8c3.4,6.3-0.2,11.1-5.1,14.6l-1-1.5c-0.1,0-0.2,0-0.3,0c-0.5,0.4-1,0.7-1.5,1.1l-1.1-1.5
					c0.3-0.2,0.7-0.5,1-0.7c1.1-0.8,2.2-1.7,3.2-2.7c0-0.1,0.1-0.2,0.3-0.3c0,0,0,0,0.1,0c4.5-4.8,3.5-11.4-4.3-11.7
					c-1.8-0.1-3.8,0.2-5.4,1.1c-3.9,2.1-4.5,6.9-1.2,9.4c0.7,0.2,1.5,0.2,2.4-0.3c1.8-1,2.3-3.8,0.4-4.8c-0.1,0-0.2-0.1-0.2-0.1
					c-0.1,0-0.2-0.1-0.3-0.1c-0.5-0.1-0.3-0.9,0.2-0.8c0.1,0,0.2,0,0.3,0c4.9-2.2,7.3,5.3,3.2,8.4c-0.6,0.4-1.2,0.8-2,1
					c-8,2.1-11.5-8.4-7-13.7C902.9,593.9,912.8,596.1,916.4,602.8z"/>
			</g>
			<g>
				<path class="st0" d="M910.2,615.9l1,1.5c-2.4,1.7-5.1,3-7.4,3.9c-10.4,4.3-23.6,5.7-34.2,1.3c-0.6-0.3-0.5-1.4,0.3-1.3
					c7.8,1.3,15.4,1.9,22.8,0.9c5.1-1.6,10.3-3.7,14.7-6.8l1.1,1.5C909,616.6,909.6,616.3,910.2,615.9z"/>
			</g>
			<g>
				<path class="st0" d="M852.2,645.9c-1.2,2.4-3.4,6.1-6.7,5.7c-2.6-0.3-3.5-3.2-2.5-5.5c1.2-2.7,4.3-3.8,6.5-5.5
					c0.1-0.1,0.2-0.2,0.3-0.2c0.1,0,0.1-0.1,0.2-0.1c1.3-1.2,2.3-2.7,2-5.1c-0.1-0.8,0.7-1.2,1.3-1c0.3-0.2,0.8,0,0.9,0.4
					C854.6,638.5,854,642.3,852.2,645.9z"/>
			</g>
			<g>
				<path class="st0" d="M849.6,631.9c-6.6,11.2-21.1,15.7-33.3,12.2c-10.9-3.2-21.5-13.7-18.7-25.8c1.2-5.4,5.4-10.2,11.1-11
					c4.4-0.7,9.2,1.4,11.2,5.6c4.5,9.4-9.5,17.7-14.1,7.9c-0.6-1.3,1.3-2.2,2-0.9c3.9,6.7,13,0.9,10.1-5.7
					c-4.1-6.3-13.4-1.6-15.5,4.3c-2.2,6,0.3,12.6,4.5,17.1c4.3,4.5,9.8,7.3,16.1,7.4c4.3,0.1,8.5-1,12.8-1.8
					c4.9-2.1,9.1-5.6,12.7-9.7C849.1,630.6,850,631.2,849.6,631.9z M809.2,609.6c0.5-0.1,1.1-0.2,1.6-0.3c-0.5,0-1.1,0-1.6,0.1
					C809.2,609.5,809.2,609.6,809.2,609.6z M801.3,615.8c-0.1,0.4-0.2,0.7-0.3,1.1c0.3-0.8,0.8-1.6,1.3-2.3
					C801.9,615,801.6,615.4,801.3,615.8z"/>
			</g>
		</g>
		<g>
			<g>
				<path class="st0" d="M129.2,622c4,4.4,9,7.9,14.5,10.6l1.4-1.9c-0.9-0.4-1.7-0.8-2.6-1.3c0.1,0,0.2,0,0.2,0
					c0.6,0.4,1.2,0.7,1.9,1.1l1-1.8c-0.5-0.3-1-0.6-1.5-0.9c-8.2-5-19.2-14.6-17.2-25.4c1.2-6.5,7.6-10.6,13.7-7.3
					c4.5,2.5,10.6,11.4,4.6,15.4c-0.2,0.1-0.3,0.3-0.3,0.5c-0.4,0.2-0.9,0.4-1.4,0.6c-1.9,0.6-4.3,0.6-6.1-0.2
					c-3.5-1.5-6.8-9-0.5-9.5c1.4-0.1,1.2-2.3-0.2-2.2c-5.4,0.3-7.1,6.1-4.4,10.3c3,4.7,9.8,5.6,14.3,2.7c4.9-3.1,5.6-9.9,2.8-14.7
					c-3.2-5.5-10.3-7.9-16.4-6.7C117.6,594.3,121.3,613.3,129.2,622z"/>
			</g>
			<g>
				<path class="st0" d="M145.1,630.7l-1.4,1.9c8.5,4.1,18.2,6.4,27.2,7.3c8.2,0.8,16.6,0.5,24.7-1c7.7-1.4,16.4-3.5,22.9-8
					c0.6-0.4,0.1-1.4-0.6-1.1c-5.8,1.8-11.2,4.4-17.1,5.9c-1,0.3-2.1,0.5-3.1,0.7c-17.9,0.8-36,1.4-52.1-7.6l-1,1.8
					C144.8,630.6,145,630.6,145.1,630.7z"/>
			</g>
			<g>
				<path class="st0" d="M222.7,638.5c1.5-3.3,2.7-6.4,2.7-10.1c0-0.4,0.3-0.9,0.8-0.9c1.4-0.1,2.3,1,1.9,2.3
					c0.4,6.4-1.1,12.7-4.4,18.2c-2.2,3.7-6.2,9.2-11.2,7.7c-3.9-1.2-4.5-5-2.1-8C213.3,644,219,641.9,222.7,638.5z M225.8,637.7
					c0,0.1-0.1,0.1-0.1,0.2c0,0.1,0,0.1,0,0.2c-0.3,0.9-0.5,1.9-0.8,2.8c0,0,0,0.1,0,0.2C225.2,639.9,225.5,638.8,225.8,637.7z"/>
			</g>
			<g>
				<path class="st0" d="M168.4,602.8c-3.4,6.3,0.2,11.1,5.1,14.6l1-1.5c0.1,0,0.2,0,0.3,0c0.5,0.4,1,0.7,1.5,1.1l1.1-1.5
					c-0.3-0.2-0.7-0.5-1-0.7c-1.1-0.8-2.2-1.7-3.2-2.7c0-0.1-0.1-0.2-0.3-0.3c0,0,0,0-0.1,0c-4.5-4.8-3.5-11.4,4.3-11.7
					c1.8-0.1,3.8,0.2,5.4,1.1c3.9,2.1,4.5,6.9,1.2,9.4c-0.7,0.2-1.5,0.2-2.4-0.3c-1.8-1-2.3-3.8-0.4-4.8c0.1,0,0.2-0.1,0.2-0.1
					c0.1,0,0.2-0.1,0.3-0.1c0.5-0.1,0.3-0.9-0.2-0.8c-0.1,0-0.2,0-0.3,0c-4.9-2.2-7.3,5.3-3.2,8.4c0.6,0.4,1.2,0.8,2,1
					c8,2.1,11.5-8.4,7-13.7C181.9,593.9,172,596.1,168.4,602.8z"/>
			</g>
			<g>
				<path class="st0" d="M174.6,615.9l-1,1.5c2.4,1.7,5.1,3,7.4,3.9c10.4,4.3,23.6,5.7,34.2,1.3c0.6-0.3,0.5-1.4-0.3-1.3
					c-7.8,1.3-15.4,1.9-22.8,0.9c-5.1-1.6-10.3-3.7-14.7-6.8l-1.1,1.5C175.8,616.6,175.2,616.3,174.6,615.9z"/>
			</g>
			<g>
				<path class="st0" d="M232.5,645.9c1.2,2.4,3.4,6.1,6.7,5.7c2.6-0.3,3.5-3.2,2.5-5.5c-1.2-2.7-4.3-3.8-6.5-5.5
					c-0.1-0.1-0.2-0.2-0.3-0.2c-0.1,0-0.1-0.1-0.2-0.1c-1.3-1.2-2.3-2.7-2-5.1c0.1-0.8-0.7-1.2-1.3-1c-0.3-0.2-0.8,0-0.9,0.4
					C230.2,638.5,230.8,642.3,232.5,645.9z"/>
			</g>
			<g>
				<path class="st0" d="M236.2,631.2c3.6,4.1,7.9,7.6,12.7,9.7c4.2,0.8,8.5,1.8,12.8,1.8c6.3-0.1,11.8-3,16.1-7.4
					c4.3-4.4,6.8-11,4.5-17.1c-2.2-5.8-11.5-10.6-15.5-4.3c-2.9,6.6,6.2,12.4,10.1,5.7c0.7-1.2,2.6-0.4,2,0.9
					c-4.6,9.9-18.5,1.5-14.1-7.9c2-4.2,6.8-6.3,11.2-5.6c5.7,0.9,9.8,5.6,11.1,11c2.8,12.2-7.8,22.7-18.7,25.8
					c-12.2,3.6-26.6-0.9-33.3-12.2C234.8,631.2,235.7,630.6,236.2,631.2z M275.6,609.4c-0.5-0.1-1.1-0.1-1.6-0.1
					c0.5,0.1,1.1,0.2,1.6,0.3C275.6,609.6,275.6,609.5,275.6,609.4z M282.5,614.5c0.5,0.7,0.9,1.5,1.3,2.3c-0.1-0.4-0.2-0.7-0.3-1.1
					C283.2,615.4,282.9,615,282.5,614.5z"/>
			</g>
		</g>
	</g>
	<g>
		<g>
			<path class="st0" d="M127.5,401.6c3.3-3.7,7.5-6.6,12.1-8.8l1.2,1.6c-0.7,0.3-1.4,0.7-2.1,1.1c0.1,0,0.1,0,0.2,0
				c0.5-0.3,1-0.6,1.6-0.9l0.8,1.5c-0.4,0.2-0.9,0.5-1.3,0.8c-6.8,4.2-16,12.2-14.3,21.2c1,5.4,6.4,8.8,11.5,6
				c3.8-2,8.9-9.5,3.8-12.9c-0.2-0.1-0.2-0.2-0.3-0.4c-0.4-0.2-0.7-0.4-1.2-0.5c-1.6-0.5-3.5-0.5-5.1,0.2c-3,1.3-5.6,7.5-0.4,7.9
				c1.2,0.1,1,1.9-0.1,1.8c-4.5-0.2-5.9-5.1-3.7-8.6c2.5-3.9,8.2-4.6,11.9-2.2c4.1,2.6,4.7,8.3,2.3,12.2c-2.7,4.6-8.6,6.6-13.6,5.6
				C117.8,424.7,121,408.9,127.5,401.6z"/>
		</g>
		<g>
			<path class="st0" d="M140.8,394.4l-1.2-1.6c7.1-3.5,15.2-5.3,22.7-6.1c6.9-0.7,13.8-0.4,20.6,0.8c6.4,1.2,13.7,2.9,19.1,6.7
				c0.5,0.4,0.1,1.1-0.5,0.9c-4.8-1.5-9.3-3.7-14.2-4.9c-0.9-0.2-1.7-0.4-2.6-0.6c-14.9-0.7-30-1.2-43.4,6.3l-0.8-1.5
				C140.5,394.5,140.6,394.4,140.8,394.4z"/>
		</g>
		<g>
			<path class="st0" d="M195.2,380.2c-1.9-2.4-1.5-5.7,1.8-6.6c4.2-1.3,7.5,3.4,9.4,6.4c2.8,4.6,4,9.9,3.7,15.2c0.3,1-0.5,2-1.6,1.9
				c-0.4,0-0.6-0.4-0.6-0.7c0-3.1-1.1-5.7-2.3-8.4C202.4,385.1,197.6,383.3,195.2,380.2z M207.2,385.8c0,0,0,0.1,0,0.1
				c0.2,0.8,0.4,1.6,0.7,2.3c0,0.1,0,0.1,0,0.2c0,0,0.1,0.1,0.1,0.1C207.8,387.6,207.5,386.7,207.2,385.8z"/>
		</g>
		<g>
			<path class="st0" d="M160.2,417.7c-2.8-5.2,0.2-9.3,4.3-12.2l0.9,1.2c0.1,0,0.2,0,0.3,0c0.4-0.3,0.8-0.6,1.3-0.9l0.9,1.3
				c-0.3,0.2-0.6,0.4-0.8,0.6c-0.9,0.7-1.8,1.5-2.7,2.3c0,0.1-0.1,0.2-0.2,0.2c0,0,0,0,0,0c-3.7,4-2.9,9.5,3.6,9.8
				c1.5,0.1,3.2-0.1,4.5-0.9c3.2-1.8,3.8-5.8,1-7.9c-0.6-0.2-1.3-0.2-2,0.2c-1.5,0.8-1.9,3.2-0.3,4c0.1,0,0.1,0,0.2,0.1
				c0.1,0,0.2,0.1,0.2,0.1c0.4,0.1,0.3,0.7-0.1,0.7c-0.1,0-0.1,0-0.2,0c-4,1.9-6-4.5-2.7-7c0.5-0.4,1-0.6,1.7-0.8
				c6.7-1.8,9.6,7,5.9,11.4C171.4,425.1,163.1,423.2,160.2,417.7z"/>
		</g>
		<g>
			<path class="st0" d="M165.3,406.7l-0.9-1.2c2-1.4,4.2-2.5,6.2-3.3c8.6-3.6,19.7-4.8,28.5-1.1c0.5,0.2,0.4,1.2-0.2,1
				c-6.5-1.1-12.8-1.6-19-0.7c-4.3,1.3-8.6,3.1-12.2,5.7l-0.9-1.3C166.3,406.1,165.8,406.4,165.3,406.7z"/>
		</g>
		<g>
			<path class="st0" d="M213.7,381.7c1-2,2.8-5.1,5.6-4.7c2.2,0.3,2.9,2.7,2.1,4.6c-1,2.2-3.6,3.2-5.4,4.6c-0.1,0.1-0.1,0.1-0.2,0.2
				c0,0-0.1,0.1-0.1,0.1c-1.1,1-1.9,2.2-1.6,4.2c0.1,0.7-0.6,1-1.1,0.8c-0.3,0.1-0.7,0-0.7-0.3C211.7,387.9,212.2,384.7,213.7,381.7
				z"/>
		</g>
		<g>
			<path class="st0" d="M215.9,393.4c5.5-9.4,17.6-13.1,27.7-10.1c9,2.7,17.9,11.4,15.6,21.5c-1,4.5-4.5,8.5-9.2,9.2
				c-3.7,0.6-7.7-1.2-9.4-4.7c-3.7-7.8,7.9-14.8,11.7-6.5c0.5,1.1-1.1,1.8-1.7,0.8c-3.2-5.6-10.8-0.7-8.4,4.8
				c3.4,5.3,11.1,1.3,13-3.5c1.9-5-0.2-10.5-3.8-14.2c-3.6-3.7-8.2-6.1-13.5-6.2c-3.6-0.1-7.1,0.8-10.6,1.5
				c-4.1,1.8-7.6,4.6-10.6,8.1C216.3,394.5,215.6,394,215.9,393.4z M249.6,411.9c-0.4,0.1-0.9,0.2-1.3,0.3c0.5,0,0.9,0,1.4-0.1
				C249.6,412.1,249.6,412,249.6,411.9z M256.1,406.9c0.1-0.3,0.2-0.6,0.2-0.9c-0.3,0.7-0.6,1.3-1.1,1.9
				C255.6,407.5,255.9,407.2,256.1,406.9z"/>
		</g>
	</g>
	<g>
		<g>
			<path class="st0" d="M957.3,401.6c-3.3-3.7-7.5-6.6-12.1-8.8l-1.2,1.6c0.7,0.3,1.4,0.7,2.1,1.1c-0.1,0-0.1,0-0.2,0
				c-0.5-0.3-1-0.6-1.6-0.9l-0.8,1.5c0.4,0.2,0.9,0.5,1.3,0.8c6.8,4.2,16,12.2,14.3,21.2c-1,5.4-6.4,8.8-11.5,6
				c-3.8-2-8.9-9.5-3.8-12.9c0.2-0.1,0.2-0.2,0.3-0.4c0.4-0.2,0.7-0.4,1.2-0.5c1.6-0.5,3.5-0.5,5.1,0.2c3,1.3,5.6,7.5,0.4,7.9
				c-1.2,0.1-1,1.9,0.1,1.8c4.5-0.2,5.9-5.1,3.7-8.6c-2.5-3.9-8.2-4.6-11.9-2.2c-4.1,2.6-4.7,8.3-2.3,12.2c2.7,4.6,8.6,6.6,13.6,5.6
				C967,424.7,963.8,408.9,957.3,401.6z"/>
		</g>
		<g>
			<path class="st0" d="M944,394.4l1.2-1.6c-7.1-3.5-15.2-5.3-22.7-6.1c-6.9-0.7-13.8-0.4-20.6,0.8c-6.4,1.2-13.7,2.9-19.1,6.7
				c-0.5,0.4-0.1,1.1,0.5,0.9c4.8-1.5,9.3-3.7,14.2-4.9c0.9-0.2,1.7-0.4,2.6-0.6c14.9-0.7,30-1.2,43.4,6.3l0.8-1.5
				C944.3,394.5,944.1,394.4,944,394.4z"/>
		</g>
		<g>
			<path class="st0" d="M879.4,387.9c-1.2,2.7-2.2,5.3-2.3,8.4c0,0.4-0.2,0.7-0.6,0.7c-1.1,0.1-1.9-0.9-1.6-1.9
				c-0.3-5.3,0.9-10.6,3.7-15.2c1.8-3.1,5.1-7.7,9.4-6.4c3.3,1,3.7,4.2,1.8,6.6C887.2,383.3,882.4,385.1,879.4,387.9z M876.8,388.6
				c0,0,0.1-0.1,0.1-0.1c0-0.1,0-0.1,0-0.2c0.2-0.8,0.4-1.6,0.7-2.3c0,0,0-0.1,0-0.1C877.3,386.7,877,387.6,876.8,388.6z"/>
		</g>
		<g>
			<path class="st0" d="M924.6,417.7c2.8-5.2-0.2-9.3-4.3-12.2l-0.9,1.2c-0.1,0-0.2,0-0.3,0c-0.4-0.3-0.8-0.6-1.3-0.9l-0.9,1.3
				c0.3,0.2,0.6,0.4,0.8,0.6c0.9,0.7,1.8,1.5,2.7,2.3c0,0.1,0.1,0.2,0.2,0.2c0,0,0,0,0,0c3.7,4,2.9,9.5-3.6,9.8
				c-1.5,0.1-3.2-0.1-4.5-0.9c-3.2-1.8-3.8-5.8-1-7.9c0.6-0.2,1.3-0.2,2,0.2c1.5,0.8,1.9,3.2,0.3,4c-0.1,0-0.1,0-0.2,0.1
				c-0.1,0-0.2,0.1-0.2,0.1c-0.4,0.1-0.3,0.7,0.1,0.7c0.1,0,0.1,0,0.2,0c4,1.9,6-4.5,2.7-7c-0.5-0.4-1-0.6-1.7-0.8
				c-6.7-1.8-9.6,7-5.9,11.4C913.4,425.1,921.7,423.2,924.6,417.7z"/>
		</g>
		<g>
			<path class="st0" d="M919.5,406.7l0.9-1.2c-2-1.4-4.2-2.5-6.2-3.3c-8.6-3.6-19.7-4.8-28.5-1.1c-0.5,0.2-0.4,1.2,0.2,1
				c6.5-1.1,12.8-1.6,19-0.7c4.3,1.3,8.6,3.1,12.2,5.7l0.9-1.3C918.5,406.1,919,406.4,919.5,406.7z"/>
		</g>
		<g>
			<path class="st0" d="M871.1,381.7c-1-2-2.8-5.1-5.6-4.7c-2.2,0.3-2.9,2.7-2.1,4.6c1,2.2,3.6,3.2,5.4,4.6c0.1,0.1,0.1,0.1,0.2,0.2
				c0,0,0.1,0.1,0.1,0.1c1.1,1,1.9,2.2,1.6,4.2c-0.1,0.7,0.6,1,1.1,0.8c0.3,0.1,0.7,0,0.7-0.3C873.1,387.9,872.6,384.7,871.1,381.7z
				"/>
		</g>
		<g>
			<path class="st0" d="M868.1,394c-3-3.4-6.6-6.3-10.6-8.1c-3.5-0.7-7.1-1.5-10.6-1.5c-5.2,0.1-9.9,2.5-13.5,6.2
				c-3.6,3.7-5.6,9.2-3.8,14.2c1.8,4.9,9.6,8.8,13,3.5c2.4-5.5-5.2-10.4-8.4-4.8c-0.6,1-2.2,0.3-1.7-0.8c3.8-8.2,15.4-1.3,11.7,6.5
				c-1.6,3.5-5.7,5.2-9.4,4.7c-4.7-0.7-8.2-4.7-9.2-9.2c-2.3-10.2,6.5-18.9,15.6-21.5c10.2-3,22.2,0.8,27.7,10.1
				C869.2,394,868.5,394.5,868.1,394z M835.2,412.1c0.4,0.1,0.9,0.1,1.4,0.1c-0.4-0.1-0.9-0.2-1.3-0.3
				C835.2,412,835.2,412.1,835.2,412.1z M829.5,407.9c-0.4-0.6-0.8-1.2-1.1-1.9c0.1,0.3,0.1,0.6,0.2,0.9
				C828.9,407.2,829.2,407.5,829.5,407.9z"/>
		</g>
	</g>
	<g>
		<path class="st0" d="M229.9,418.1l-4.5-1.3l4.2-2.4c0.3-0.2,0.4-0.5,0.3-0.8c-0.1-0.4-0.6-0.5-0.9-0.3l-4.2,2.4l1.2-4.6
			c0.1-0.3-0.1-0.7-0.5-0.8c-0.3-0.1-0.7,0.1-0.8,0.4l-1.6,5.8l-2.6,1.5c0,0,0,0,0,0l-0.5-1.8c0,0,0,0,0,0l-2.5,0.2c0,0,0,0,0,0
			v-2.8l4.3-4.3c0.2-0.2,0.2-0.7,0-0.9c-0.2-0.2-0.7-0.2-0.9,0l-3.4,3.4v-5.3c0-0.3-0.2-0.6-0.5-0.7c-0.4-0.1-0.7,0.2-0.7,0.6v5.4
			l-3.4-3.3c-0.3-0.2-0.7-0.2-0.9,0c-0.2,0.3-0.2,0.7,0,0.9l4.3,4.2v2.6c0,0,0,0,0,0l-2.5-0.6c0,0,0,0,0,0l-0.3,2.6c0,0,0,0,0,0
			l-2.9-1.7l-1.5-5.8c-0.1-0.3-0.4-0.5-0.8-0.5c-0.3,0.1-0.5,0.4-0.5,0.8l1.2,4.6l-4.3-2.5c-0.3-0.2-0.8-0.1-0.9,0.3
			c-0.1,0.3,0,0.7,0.3,0.8l4.2,2.4l-4.6,1.2c-0.3,0.1-0.5,0.4-0.4,0.8c0.1,0.3,0.3,0.5,0.6,0.5c0.1,0,0.1,0,0.2,0l5.8-1.6l2.7,1.6
			c0,0,0,0,0,0l-2.2,1.6c0,0,0,0,0,0l1.9,1.9c0,0,0,0,0,0l-2.1,1.2l-5.8-1.6c-0.3-0.1-0.7,0.1-0.8,0.4c-0.1,0.3,0.1,0.7,0.4,0.8
			l4.6,1.2l-4.6,2.7c-0.3,0.2-0.4,0.5-0.3,0.8c0.1,0.3,0.3,0.5,0.6,0.5c0.1,0,0.2,0,0.3-0.1l4.7-2.7l-1.2,4.6
			c-0.1,0.3,0.1,0.7,0.5,0.8c0.1,0,0.1,0,0.2,0c0.3,0,0.5-0.2,0.6-0.5l1.5-5.8l2.2-1.3c0,0,0,0,0,0l0.6,2.1c0,0,0,0,0,0l2.6-0.4
			c0,0,0,0,0,0v2.9l-4.3,4.2c-0.3,0.2-0.3,0.6,0,0.9c0.2,0.3,0.6,0.3,0.9,0l3.4-3.3v4.9c0,0.3,0.2,0.6,0.5,0.7
			c0.4,0.1,0.7-0.2,0.7-0.6v-4.9l3.4,3.4c0.1,0.1,0.3,0.2,0.4,0.2c0.2,0,0.3-0.1,0.4-0.2c0.2-0.2,0.2-0.7,0-0.9l-4.3-4.3v-2.9
			c0,0,0,0,0,0l2.1,0.5c0,0,0,0,0,0l0.9-2.4c0,0,0,0,0,0l2.3,1.4c0,0,0,0,0,0l1.6,5.8c0.1,0.3,0.3,0.5,0.6,0.5c0.1,0,0.1,0,0.2,0
			c0.3-0.1,0.5-0.5,0.4-0.8l-1.2-4.5c0,0,0,0,0,0l4.6,2.7c0.1,0.1,0.2,0.1,0.3,0.1c0.3,0,0.5-0.2,0.6-0.5c0.1-0.3-0.1-0.6-0.3-0.8
			l-4.6-2.7c0,0,0,0,0,0l4.5-1.3c0.3-0.1,0.5-0.4,0.4-0.8c-0.1-0.3-0.4-0.5-0.8-0.4l-5.7,1.6c0,0,0,0,0,0l-2.3-1.3c0,0,0,0,0,0
			l1.9-1.7c0,0,0,0,0,0l-1.9-1.9c0,0,0,0,0,0l2.5-1.5l5.7,1.6c0.1,0,0.1,0,0.2,0c0.3,0,0.5-0.2,0.6-0.5
			C230.4,418.5,230.2,418.2,229.9,418.1z M217.5,417.5l1.7-0.1c0,0,0,0,0,0l0.4,1.3c0,0,0,0,0,0l-2.1,1.2c0,0,0,0,0,0L217.5,417.5
			C217.5,417.5,217.5,417.5,217.5,417.5z M214.5,418.8l0.2-1.7c0,0,0,0,0,0l1.5,0.4c0,0,0,0,0,0v2.5c0,0,0,0,0,0L214.5,418.8
			L214.5,418.8z M213.3,422.3C213.2,422.3,213.2,422.3,213.3,422.3l-1.2-1.2c0,0,0,0,0,0l1.6-1.2c0,0,0,0,0,0l1.9,1.1c0,0,0,0,0,0
			L213.3,422.3z M216.2,424.7l-1.8,0.3c0,0,0,0,0,0l-0.4-1.5c0,0,0,0,0,0l2.2-1.3c0,0,0,0,0,0L216.2,424.7
			C216.2,424.7,216.2,424.7,216.2,424.7z M219,425C219,425,219,425,219,425l-1.5-0.3c0,0,0,0,0,0v-2.5c0,0,0,0,0,0l2.1,1.2
			c0,0,0,0,0,0L219,425z M221.6,421C221.6,421,221.6,421,221.6,421l-1.3,1.2c0,0,0,0,0,0l-2.1-1.2c0,0,0,0,0,0l2.2-1.2c0,0,0,0,0,0
			L221.6,421z"/>
	</g>
	<g>
		<path class="st0" d="M882.1,418.1l-4.5-1.3l4.2-2.4c0.3-0.2,0.4-0.5,0.3-0.8c-0.1-0.4-0.6-0.5-0.9-0.3l-4.2,2.4l1.2-4.6
			c0.1-0.3-0.1-0.7-0.5-0.8c-0.3-0.1-0.7,0.1-0.8,0.4l-1.6,5.8l-2.6,1.5c0,0,0,0,0,0l-0.5-1.8c0,0,0,0,0,0l-2.5,0.2c0,0,0,0,0,0
			v-2.8l4.3-4.3c0.2-0.2,0.2-0.7,0-0.9c-0.2-0.2-0.7-0.2-0.9,0l-3.4,3.4v-5.3c0-0.3-0.2-0.6-0.5-0.7c-0.4-0.1-0.7,0.2-0.7,0.6v5.4
			l-3.4-3.3c-0.3-0.2-0.7-0.2-0.9,0c-0.2,0.3-0.2,0.7,0,0.9l4.3,4.2v2.6c0,0,0,0,0,0l-2.5-0.6c0,0,0,0,0,0l-0.3,2.6c0,0,0,0,0,0
			l-2.9-1.7l-1.5-5.8c-0.1-0.3-0.4-0.5-0.8-0.5c-0.3,0.1-0.5,0.4-0.5,0.8l1.2,4.6l-4.3-2.5c-0.3-0.2-0.8-0.1-0.9,0.3
			c-0.1,0.3,0,0.7,0.3,0.8l4.2,2.4l-4.6,1.2c-0.3,0.1-0.5,0.4-0.4,0.8c0.1,0.3,0.3,0.5,0.6,0.5c0.1,0,0.1,0,0.2,0l5.8-1.6l2.7,1.6
			c0,0,0,0,0,0l-2.2,1.6c0,0,0,0,0,0l1.9,1.9c0,0,0,0,0,0l-2.1,1.2l-5.8-1.6c-0.3-0.1-0.7,0.1-0.8,0.4c-0.1,0.3,0.1,0.7,0.4,0.8
			l4.6,1.2l-4.6,2.7c-0.3,0.2-0.4,0.5-0.3,0.8c0.1,0.3,0.3,0.5,0.6,0.5c0.1,0,0.2,0,0.3-0.1l4.7-2.7l-1.2,4.6
			c-0.1,0.3,0.1,0.7,0.5,0.8c0.1,0,0.1,0,0.2,0c0.3,0,0.5-0.2,0.6-0.5l1.5-5.8l2.2-1.3c0,0,0,0,0,0l0.6,2.1c0,0,0,0,0,0l2.6-0.4
			c0,0,0,0,0,0v2.9l-4.3,4.2c-0.3,0.2-0.3,0.6,0,0.9c0.2,0.3,0.6,0.3,0.9,0l3.4-3.3v4.9c0,0.3,0.2,0.6,0.5,0.7
			c0.4,0.1,0.7-0.2,0.7-0.6v-4.9l3.4,3.4c0.1,0.1,0.3,0.2,0.4,0.2c0.2,0,0.3-0.1,0.4-0.2c0.2-0.2,0.2-0.7,0-0.9l-4.3-4.3v-2.9
			c0,0,0,0,0,0l2.1,0.5c0,0,0,0,0,0l0.9-2.4c0,0,0,0,0,0l2.3,1.4c0,0,0,0,0,0l1.6,5.8c0.1,0.3,0.3,0.5,0.6,0.5c0.1,0,0.1,0,0.2,0
			c0.3-0.1,0.5-0.5,0.4-0.8l-1.2-4.5c0,0,0,0,0,0l4.6,2.7c0.1,0.1,0.2,0.1,0.3,0.1c0.3,0,0.5-0.2,0.6-0.5c0.1-0.3-0.1-0.6-0.3-0.8
			l-4.6-2.7c0,0,0,0,0,0l4.5-1.3c0.3-0.1,0.5-0.4,0.4-0.8c-0.1-0.3-0.4-0.5-0.8-0.4l-5.7,1.6c0,0,0,0,0,0l-2.3-1.3c0,0,0,0,0,0
			l1.9-1.7c0,0,0,0,0,0l-1.9-1.9c0,0,0,0,0,0l2.5-1.5l5.7,1.6c0.1,0,0.1,0,0.2,0c0.3,0,0.5-0.2,0.6-0.5
			C882.6,418.5,882.4,418.2,882.1,418.1z M869.7,417.5l1.7-0.1c0,0,0,0,0,0l0.4,1.3c0,0,0,0,0,0l-2.1,1.2c0,0,0,0,0,0L869.7,417.5
			C869.7,417.5,869.7,417.5,869.7,417.5z M866.6,418.8l0.2-1.7c0,0,0,0,0,0l1.5,0.4c0,0,0,0,0,0v2.5c0,0,0,0,0,0L866.6,418.8
			L866.6,418.8z M865.4,422.3C865.4,422.3,865.4,422.3,865.4,422.3l-1.2-1.2c0,0,0,0,0,0l1.6-1.2c0,0,0,0,0,0l1.9,1.1c0,0,0,0,0,0
			L865.4,422.3z M868.4,424.7l-1.8,0.3c0,0,0,0,0,0l-0.4-1.5c0,0,0,0,0,0l2.2-1.3c0,0,0,0,0,0L868.4,424.7
			C868.4,424.7,868.4,424.7,868.4,424.7z M871.2,425C871.2,425,871.1,425,871.2,425l-1.5-0.3c0,0,0,0,0,0v-2.5c0,0,0,0,0,0l2.1,1.2
			c0,0,0,0,0,0L871.2,425z M873.8,421C873.8,421,873.8,421,873.8,421l-1.3,1.2c0,0,0,0,0,0l-2.1-1.2c0,0,0,0,0,0l2.2-1.2
			c0,0,0,0,0,0L873.8,421z"/>
	</g>
	<g>
		<path class="st0" d="M862.8,599.4l-4.5-1.3l4.2-2.4c0.3-0.2,0.4-0.5,0.3-0.8c-0.1-0.4-0.6-0.5-0.9-0.3l-4.2,2.4l1.2-4.6
			c0.1-0.3-0.1-0.7-0.5-0.8c-0.3-0.1-0.7,0.1-0.8,0.4L856,598l-2.6,1.5c0,0,0,0,0,0l-0.5-1.8c0,0,0,0,0,0l-2.5,0.2c0,0,0,0,0,0V595
			l4.3-4.3c0.2-0.2,0.2-0.7,0-0.9c-0.2-0.2-0.7-0.2-0.9,0l-3.4,3.4v-5.3c0-0.3-0.2-0.6-0.5-0.7c-0.4-0.1-0.7,0.2-0.7,0.6v5.4
			l-3.4-3.3c-0.3-0.2-0.7-0.2-0.9,0c-0.2,0.3-0.2,0.7,0,0.9l4.3,4.2v2.6c0,0,0,0,0,0l-2.5-0.6c0,0,0,0,0,0l-0.3,2.6c0,0,0,0,0,0
			l-2.9-1.7l-1.5-5.8c-0.1-0.3-0.4-0.5-0.8-0.5c-0.3,0.1-0.5,0.4-0.5,0.8l1.2,4.6l-4.3-2.5c-0.3-0.2-0.8-0.1-0.9,0.3
			c-0.1,0.3,0,0.7,0.3,0.8l4.2,2.4l-4.6,1.2c-0.3,0.1-0.5,0.4-0.4,0.8c0.1,0.3,0.3,0.5,0.6,0.5c0.1,0,0.1,0,0.2,0l5.8-1.6l2.7,1.6
			c0,0,0,0,0,0l-2.2,1.6c0,0,0,0,0,0l1.9,1.9c0,0,0,0,0,0l-2.1,1.2l-5.8-1.6c-0.3-0.1-0.7,0.1-0.8,0.4c-0.1,0.3,0.1,0.7,0.4,0.8
			l4.6,1.2l-4.6,2.7c-0.3,0.2-0.4,0.5-0.3,0.8c0.1,0.3,0.3,0.5,0.6,0.5c0.1,0,0.2,0,0.3-0.1l4.7-2.7l-1.2,4.6
			c-0.1,0.3,0.1,0.7,0.5,0.8c0.1,0,0.1,0,0.2,0c0.3,0,0.5-0.2,0.6-0.5l1.5-5.8l2.2-1.3c0,0,0,0,0,0l0.6,2.1c0,0,0,0,0,0l2.6-0.4
			c0,0,0,0,0,0v2.9l-4.3,4.2c-0.3,0.2-0.3,0.6,0,0.9s0.6,0.3,0.9,0l3.4-3.3v4.9c0,0.3,0.2,0.6,0.5,0.7c0.4,0.1,0.7-0.2,0.7-0.6v-4.9
			l3.4,3.4c0.1,0.1,0.3,0.2,0.4,0.2c0.2,0,0.3-0.1,0.4-0.2c0.2-0.2,0.2-0.7,0-0.9l-4.3-4.3v-2.9c0,0,0,0,0,0l2.1,0.5c0,0,0,0,0,0
			l0.9-2.4c0,0,0,0,0,0l2.3,1.4c0,0,0,0,0,0l1.6,5.8c0.1,0.3,0.3,0.5,0.6,0.5c0.1,0,0.1,0,0.2,0c0.3-0.1,0.5-0.5,0.4-0.8l-1.2-4.5
			c0,0,0,0,0,0l4.6,2.7c0.1,0.1,0.2,0.1,0.3,0.1c0.3,0,0.5-0.2,0.6-0.5c0.1-0.3-0.1-0.6-0.3-0.8l-4.6-2.7c0,0,0,0,0,0l4.5-1.3
			c0.3-0.1,0.5-0.4,0.4-0.8c-0.1-0.3-0.4-0.5-0.8-0.4l-5.7,1.6c0,0,0,0,0,0l-2.3-1.3c0,0,0,0,0,0l1.9-1.7c0,0,0,0,0,0l-1.9-1.9
			c0,0,0,0,0,0l2.5-1.5l5.7,1.6c0.1,0,0.1,0,0.2,0c0.3,0,0.5-0.2,0.6-0.5C863.3,599.9,863.1,599.5,862.8,599.4z M850.4,598.8
			l1.7-0.1c0,0,0,0,0,0l0.4,1.3c0,0,0,0,0,0l-2.1,1.2c0,0,0,0,0,0L850.4,598.8C850.3,598.9,850.3,598.8,850.4,598.8z M847.3,600.1
			l0.2-1.7c0,0,0,0,0,0l1.5,0.4c0,0,0,0,0,0v2.5c0,0,0,0,0,0L847.3,600.1L847.3,600.1z M846.1,603.7
			C846.1,603.7,846.1,603.7,846.1,603.7l-1.2-1.2c0,0,0,0,0,0l1.6-1.2c0,0,0,0,0,0l1.9,1.1c0,0,0,0,0,0L846.1,603.7z M849.1,606
			l-1.8,0.3c0,0,0,0,0,0l-0.4-1.5c0,0,0,0,0,0l2.2-1.3c0,0,0,0,0,0L849.1,606C849.1,606,849.1,606,849.1,606z M851.8,606.3
			C851.8,606.4,851.8,606.4,851.8,606.3l-1.5-0.3c0,0,0,0,0,0v-2.5c0,0,0,0,0,0l2.1,1.2c0,0,0,0,0,0L851.8,606.3z M854.5,602.3
			C854.5,602.4,854.5,602.4,854.5,602.3l-1.3,1.2c0,0,0,0,0,0l-2.1-1.2c0,0,0,0,0,0l2.2-1.2c0,0,0,0,0,0L854.5,602.3z"/>
	</g>
	<g>
		<path class="st0" d="M243.5,599.4l-4.5-1.3l4.2-2.4c0.3-0.2,0.4-0.5,0.3-0.8c-0.1-0.4-0.6-0.5-0.9-0.3l-4.2,2.4l1.2-4.6
			c0.1-0.3-0.1-0.7-0.5-0.8c-0.3-0.1-0.7,0.1-0.8,0.4l-1.6,5.8l-2.6,1.5c0,0,0,0,0,0l-0.5-1.8c0,0,0,0,0,0l-2.5,0.2c0,0,0,0,0,0V595
			l4.3-4.3c0.2-0.2,0.2-0.7,0-0.9c-0.2-0.2-0.7-0.2-0.9,0l-3.4,3.4v-5.3c0-0.3-0.2-0.6-0.5-0.7c-0.4-0.1-0.7,0.2-0.7,0.6v5.4
			l-3.4-3.3c-0.3-0.2-0.7-0.2-0.9,0c-0.2,0.3-0.2,0.7,0,0.9l4.3,4.2v2.6c0,0,0,0,0,0l-2.5-0.6c0,0,0,0,0,0l-0.3,2.6c0,0,0,0,0,0
			l-2.9-1.7l-1.5-5.8c-0.1-0.3-0.4-0.5-0.8-0.5c-0.3,0.1-0.5,0.4-0.5,0.8l1.2,4.6l-4.3-2.5c-0.3-0.2-0.8-0.1-0.9,0.3
			c-0.1,0.3,0,0.7,0.3,0.8l4.2,2.4l-4.6,1.2c-0.3,0.1-0.5,0.4-0.4,0.8c0.1,0.3,0.3,0.5,0.6,0.5c0.1,0,0.1,0,0.2,0l5.8-1.6l2.7,1.6
			c0,0,0,0,0,0l-2.2,1.6c0,0,0,0,0,0l1.9,1.9c0,0,0,0,0,0l-2.1,1.2l-5.8-1.6c-0.3-0.1-0.7,0.1-0.8,0.4c-0.1,0.3,0.1,0.7,0.4,0.8
			l4.6,1.2l-4.6,2.7c-0.3,0.2-0.4,0.5-0.3,0.8c0.1,0.3,0.3,0.5,0.6,0.5c0.1,0,0.2,0,0.3-0.1l4.7-2.7l-1.2,4.6
			c-0.1,0.3,0.1,0.7,0.5,0.8c0.1,0,0.1,0,0.2,0c0.3,0,0.5-0.2,0.6-0.5l1.5-5.8l2.2-1.3c0,0,0,0,0,0l0.6,2.1c0,0,0,0,0,0l2.6-0.4
			c0,0,0,0,0,0v2.9l-4.3,4.2c-0.3,0.2-0.3,0.6,0,0.9c0.2,0.3,0.6,0.3,0.9,0l3.4-3.3v4.9c0,0.3,0.2,0.6,0.5,0.7
			c0.4,0.1,0.7-0.2,0.7-0.6v-4.9l3.4,3.4c0.1,0.1,0.3,0.2,0.4,0.2c0.2,0,0.3-0.1,0.4-0.2c0.2-0.2,0.2-0.7,0-0.9L231,610v-2.9
			c0,0,0,0,0,0l2.1,0.5c0,0,0,0,0,0l0.9-2.4c0,0,0,0,0,0l2.3,1.4c0,0,0,0,0,0l1.6,5.8c0.1,0.3,0.3,0.5,0.6,0.5c0.1,0,0.1,0,0.2,0
			c0.3-0.1,0.5-0.5,0.4-0.8l-1.2-4.5c0,0,0,0,0,0l4.6,2.7c0.1,0.1,0.2,0.1,0.3,0.1c0.3,0,0.5-0.2,0.6-0.5c0.1-0.3-0.1-0.6-0.3-0.8
			l-4.6-2.7c0,0,0,0,0,0l4.5-1.3c0.3-0.1,0.5-0.4,0.4-0.8c-0.1-0.3-0.4-0.5-0.8-0.4l-5.7,1.6c0,0,0,0,0,0l-2.3-1.3c0,0,0,0,0,0
			l1.9-1.7c0,0,0,0,0,0l-1.9-1.9c0,0,0,0,0,0l2.5-1.5l5.7,1.6c0.1,0,0.1,0,0.2,0c0.3,0,0.5-0.2,0.6-0.5
			C244,599.9,243.8,599.5,243.5,599.4z M231.1,598.8l1.7-0.1c0,0,0,0,0,0l0.4,1.3c0,0,0,0,0,0l-2.1,1.2c0,0,0,0,0,0L231.1,598.8
			C231,598.9,231,598.8,231.1,598.8z M228,600.1l0.2-1.7c0,0,0,0,0,0l1.5,0.4c0,0,0,0,0,0v2.5c0,0,0,0,0,0L228,600.1L228,600.1z
			 M226.8,603.7C226.8,603.7,226.8,603.7,226.8,603.7l-1.2-1.2c0,0,0,0,0,0l1.6-1.2c0,0,0,0,0,0l1.9,1.1c0,0,0,0,0,0L226.8,603.7z
			 M229.8,606l-1.8,0.3c0,0,0,0,0,0l-0.4-1.5c0,0,0,0,0,0l2.2-1.3c0,0,0,0,0,0L229.8,606C229.8,606,229.8,606,229.8,606z
			 M232.5,606.3C232.5,606.4,232.5,606.4,232.5,606.3l-1.5-0.3c0,0,0,0,0,0v-2.5c0,0,0,0,0,0l2.1,1.2c0,0,0,0,0,0L232.5,606.3z
			 M235.2,602.3C235.2,602.4,235.2,602.4,235.2,602.3l-1.3,1.2c0,0,0,0,0,0l-2.1-1.2c0,0,0,0,0,0l2.2-1.2c0,0,0,0,0,0L235.2,602.3z"
			/>
	</g>
</g>
</svg>
