<?xml version="1.0" encoding="utf-8"?>
<!-- Generator: Adobe Illustrator 22.0.0, SVG Export Plug-In . SVG Version: 6.00 Build 0)  -->
<svg version="1.1" id="Layer_1" xmlns="http://www.w3.org/2000/svg" xmlns:xlink="http://www.w3.org/1999/xlink" x="0px" y="0px"
	 viewBox="0 0 1080 1080" style="enable-background:new 0 0 1080 1080;" xml:space="preserve">
<style type="text/css">
	.st0{fill:#680B10;}
</style>
<g>
	<g>
		<g>
			<path class="st0" d="M556.4,309.6c10.8-12.9,25.6-21.1,44.4-24.7c18.8-3.6,39.8-4.4,62.9-2.3c8.8-7.7,16.9-12.6,24.3-14.7
				c7.5-2.1,14.8-2.1,22,0c7.2,2,14.3,5.5,21.2,10.4c7,4.9,13.8,10.4,20.5,16.6c2.1,1,4.1,1.5,6.2,1.5c2.1,0,4.4,0.3,7,0.8
				c23.7,4.6,46.1,8.5,67.2,11.6c21.1,3.1,38.9,3.3,53.3,0.8V308c0-3.1-0.3-6.3-0.8-9.7c-0.5-3.4-1.5-6.6-3.1-9.6
				c-2.6-5.7-6.7-10.6-12.4-14.7c-5.7-4.1-12.9-6.7-21.6-7.7c-2.6,0-5.4,0-8.5,0c-3.1,0-5.9,0.5-8.5,1.5c-5.7,1.5-10.5,4.4-14.7,8.5
				c-4.6,4.6-6.9,9.3-6.9,13.9c0,3.1,0.3,5.9,0.8,8.5l-4.6,1.5c-1-5.1-1.3-8.8-0.8-10.8c0-6.2,2.6-11.9,7.7-17
				c2.6-2.6,5.4-4.6,8.5-6.2c3.1-1.5,6.2-2.8,9.3-3.9c2.6-1,5.4-1.5,8.5-1.5c3.1,0,6.2,0,9.3,0c10.3,1,18.5,3.9,24.7,8.5
				c6.2,4.6,11.1,10.5,14.7,17.8c2.6,6.7,3.9,13.6,3.9,20.8v1.5c12.4-3.1,20.1-9.5,23.2-19.3c0.5-3.1,0.9-6.5,1.2-10
				c0.3-3.6-0.1-7.5-1.2-11.6c2.6-0.5,4.5,0.1,5.8,1.9c1.3,1.8,2.2,4,2.7,6.6c0.5,2.6,0.8,5.4,0.8,8.5c0,3.1-0.5,5.9-1.6,8.5
				c-4.6,17.5-16.5,28.3-35.5,32.4c0,0.5-0.1,0.9-0.4,1.2c-0.3,0.3-0.4,0.6-0.4,1.2c-4.1,7.2-10.2,13.4-18.1,18.5
				c-8,5.1-17.9,8.2-29.7,9.3c-12.9,0.5-24.6-2.8-35.1-10c-10.5-7.2-21-15.7-31.3-25.5l-30.9-4.6c-21.6-4.1-42.9-7.9-63.7-11.2
				c-20.9-3.4-39.9-4.9-57.2-4.6c-17.3,0.3-31.9,2.9-44,8.1c-12.1,5.1-20,14.4-23.6,27.8c-5.1-1-6.8-4.2-5-9.7
				C548.6,321.6,551.8,315.8,556.4,309.6z M879.3,328.1c-1,0-2.2,0.1-3.5,0.4c-1.3,0.3-2.4,0.4-3.5,0.4c-12.4,2.1-26.5,2.2-42.5,0.4
				c-16-1.8-32.4-4-49.4-6.6c8.8,8.2,17.8,15.2,27,20.9c9.3,5.7,19,8,29.3,6.9c10.3,0,19.1-2.2,26.3-6.6
				C870.3,339.6,875.7,334.3,879.3,328.1z M564.2,329.7h182.3v5.4H564.2V329.7z M671.5,283.3c11.3,1,23,2.3,35.1,3.9
				c12.1,1.5,24.1,3.6,35.9,6.2c-11.3-9.8-22.7-16.5-34-20.1C697.3,269.7,684.9,273,671.5,283.3z M530.9,309.6
				c4.6,6.2,7.8,12,9.7,17.4c1.8,5.4,0.1,8.6-5,9.7c-3.6-13.4-11.5-22.7-23.6-27.8c-12.1-5.2-26.8-7.9-44-8.1
				c-17.3-0.3-36.3,1.3-57.2,4.6c-20.9,3.3-41.8,7.1-62.9,11.2l-30.9,4.6c-10.3,9.8-20.9,18.3-31.7,25.5
				c-10.8,7.2-22.7,10.5-35.5,10c-11.8-1-21.7-4.1-29.7-9.3c-8-5.1-14-11.3-18.1-18.5c0-1-0.3-1.8-0.8-2.3
				c-19-4.1-30.9-14.9-35.5-32.4c-0.5-2.6-0.9-5.4-1.2-8.5c-0.3-3.1-0.1-5.9,0.4-8.5c0.5-2.6,1.4-4.8,2.7-6.6
				c1.3-1.8,3.2-2.4,5.8-1.9c-1.5,7.2-1.3,14.4,0.8,21.6c2.1,9.3,9.5,15.7,22.4,19.3V308c0-7.2,1.3-14.2,3.9-20.8
				c3.6-7.2,8.5-13.1,14.7-17.8c6.2-4.6,14.4-7.5,24.7-8.5c3.1,0,6.2,0,9.3,0s6.2,0.5,9.3,1.5c7.2,2.6,12.9,5.9,17,10
				c5.2,4.6,7.7,10.3,7.7,17c0.5,1.5,0.6,3.2,0.4,5c-0.3,1.8-0.4,3.7-0.4,5.8l-5.4-1.5c1-4.6,1.3-7.5,0.8-8.5c0-4.6-2.3-9.3-7-13.9
				c-4.1-4.1-9-6.9-14.7-8.5c-2.6-1-5.3-1.5-8.1-1.5c-2.8,0-5.8,0-8.9,0c-8.8,1-15.8,3.6-21.2,7.7c-5.4,4.1-9.6,9-12.7,14.7
				c-1.5,3.1-2.6,6.3-3.1,9.6c-0.5,3.4-0.8,6.6-0.8,9.7v1.5c14.4,2.6,32.2,2.3,53.3-0.8c21.1-3.1,43.8-7,68-11.6
				c2.1-0.5,4.1-0.8,6.2-0.8c2.1,0,4.4-0.5,7-1.5c6.7-6.2,13.4-11.7,20.1-16.6c6.7-4.9,13.6-8.4,20.9-10.4c7.2-2.1,14.7-2.1,22.4,0
				c7.7,2,15.7,6.9,23.9,14.7c23.2-2.1,44.3-1.3,63.3,2.3C506,288.5,520.7,296.7,530.9,309.6z M523.2,329.7v5.4H340.9v-5.4H523.2z
				 M415.9,283.3c-13.4-10.3-25.8-13.6-37.1-10c-11.3,3.6-22.4,10.3-33.2,20.1c11.9-2.6,23.7-4.6,35.5-6.2
				C393,285.6,404.5,284.4,415.9,283.3z M208.9,328.1c3.1,6.2,8.2,11.5,15.4,15.8c7.2,4.4,16,6.6,26.3,6.6c10.3,1,20.1-1.3,29.4-6.9
				c9.3-5.7,18.3-12.6,27-20.9c-17,2.6-33.5,4.8-49.4,6.6c-16,1.8-29.9,1.7-41.7-0.4c-1,0-2.2-0.1-3.5-0.4
				C211.1,328.3,209.9,328.1,208.9,328.1z"/>
		</g>
	</g>
	<g>
		<g>
			<path class="st0" d="M336.6,559.3c0.5-3.1,0.6-5.5,0.3-7c-0.3-1.6-0.8-2.7-1.6-3.4c-0.8-0.7-1.7-1-2.6-1c-1,0-1.9,0-2.6,0v-2.5
				h21.6v2.5c-0.8,0-1.7,0-2.8,0c-1.1,0-2.1,0.3-3.1,1c-1,0.7-2,1.8-2.8,3.4c-0.9,1.6-1.6,3.9-2.2,7L324.2,651h-15l-9.9-62.5
				L288,651h-15.2l-19.6-91.7c-0.6-3.1-1.4-5.5-2.3-7c-1-1.6-2-2.7-3-3.4c-1-0.7-2.1-1-3.1-1c-1.1,0-2,0-2.8,0v-2.5h34.8v2.5
				c-0.9,0-1.8,0-2.8,0c-1,0-1.8,0.3-2.6,1c-0.7,0.7-1.2,1.8-1.5,3.4c-0.2,1.6,0,3.9,0.7,7l16.1,75.5l10.5-58.7l-2.6-16.8
				c-0.5-3.1-1.2-5.5-2-7c-0.9-1.6-1.8-2.7-2.8-3.4c-1-0.7-2-1-3.1-1c-1,0-1.9,0-2.7,0v-2.5h34.9v2.5c-0.9,0-1.8,0-2.8,0
				c-1,0-1.8,0.3-2.6,1c-0.8,0.7-1.3,1.8-1.7,3.4c-0.3,1.6-0.3,3.9,0.2,7l11.5,72.9L336.6,559.3z"/>
		</g>
		<g>
			<path class="st0" d="M377.8,615.4c-5.5-1.4-10-3.9-13.7-7.7c-3.7-3.7-6.3-8.1-8-13c-1.7-4.9-2.5-10.1-2.3-15.6
				c0.1-5.5,1.2-10.5,3.2-15.3c2-4.7,4.9-8.8,8.8-12.3c3.8-3.5,8.6-5.7,14.4-6.6c4.4-0.8,8.7-0.6,13,0.4c5.2,1.3,9.5,3.6,13.1,7
				c3.6,3.4,6.3,7.4,8.1,12c1.8,4.6,2.8,9.5,3,14.7c0.1,5.2-0.6,10.2-2.1,14.9c-1.6,4.7-3.9,8.9-7.2,12.6c-3.2,3.7-7.3,6.4-12.1,8
				c-2.9,1-5.9,1.5-9.1,1.6C383.7,616.5,380.7,616.1,377.8,615.4z M507.9,640.6c6.9-0.6,12.6,0.1,16.9,1.9c4.4,1.8,7.7,4.3,9.9,7.3
				c2.2,3,3.3,6.4,3.2,10c-0.1,3.6-1.1,7-3.1,10.1c-2,3.1-4.9,5.7-8.8,7.7c-3.8,2-8.5,2.9-14.1,2.7c-4.1-0.1-8-0.5-11.7-1.3
				c-3.7-0.8-7.2-2.1-10.4-4s-6.1-4.4-8.8-7.6c-2.6-3.2-4.9-7.2-6.7-12.2c-1.1,0.5-2.1,0.9-3.1,1.4c-1,0.4-2.1,0.9-3.1,1.5
				c-4.6,2-9.3,4.1-14.2,6.3c-4.9,2.1-10.1,4.1-15.6,6c-5.5,1.8-11.4,3.5-17.6,4.8c-6.2,1.4-12.9,2.3-20,2.9
				c-7.4,0.6-13.7,0.1-19-1.5c-5.3-1.6-9.6-3.7-12.9-6.5c-3.4-2.8-5.8-6-7.2-9.7c-1.5-3.7-2.1-7.4-2-11.2c0.1-3.8,1-7.4,2.7-10.9
				c1.7-3.5,3.9-6.4,6.9-8.7c2.9-2.3,6.4-3.9,10.5-4.7c4.1-0.8,8.7-0.5,13.7,0.9c1.4,0.5,2.9,1.1,4.7,1.8c1.8,0.7,2.9,1.7,3.5,3.1
				c0.4,0.9,0.4,1.8,0.1,2.6c-0.3,0.9-0.8,1.6-1.5,2.2c-0.7,0.6-1.6,0.9-2.6,1c-1,0.1-1.9-0.2-2.9-1c-0.8-0.6-1.4-1.4-1.8-2.3
				c-0.4-1-0.5-2-0.1-3.1c-4.4-1.4-8.3-1.7-11.9-1.1c-3.6,0.6-6.6,1.9-9.1,3.9c-2.5,2-4.5,4.5-5.9,7.4c-1.4,2.9-2.2,6-2.3,9.2
				c-0.1,3.2,0.5,6.4,1.9,9.5c1.4,3.1,3.5,5.9,6.4,8.3c2.9,2.4,6.7,4.3,11.4,5.5c4.7,1.3,10.3,1.7,16.9,1.2c7-0.6,13.6-1.5,19.6-2.8
				c6.1-1.3,11.8-2.9,17.2-4.7c5.4-1.8,10.5-3.8,15.3-5.9c4.8-2.1,9.5-4.2,13.9-6.2l6.6-3.1c-0.8-1.8-1.6-4-2.3-6.6
				c-0.8-2.7-1.6-5.5-2.5-8.4c-0.9-2.9-1.9-5.8-3-8.8c-1.1-2.9-2.4-5.6-3.7-8c-1.4-2.4-2.9-4.4-4.5-6c-1.7-1.6-3.6-2.4-5.7-2.6h-5
				v26.3c0,3.1,0.3,5.5,0.9,7c0.6,1.6,1.4,2.7,2.3,3.4c0.9,0.7,1.9,1,2.9,1c1,0,1.9,0,2.7,0v2.5H420v-2.5c0.8,0,1.7,0,2.7,0
				c1,0,2-0.3,2.9-1c0.9-0.7,1.7-1.8,2.3-3.4c0.6-1.6,0.9-3.9,0.9-7v-77.8c0-3.1-0.3-5.5-0.9-7c-0.6-1.6-1.4-2.7-2.3-3.4
				c-0.9-0.7-1.9-1-2.9-1c-1,0-1.9,0-2.7,0v-2.5h29.2c1.6,0,3.1,0,4.6-0.1c1.5,0,3,0,4.6,0.2c4.6,0.5,8.9,1.7,12.8,3.6
				c4,1.9,7.2,4.9,9.5,9c2.2,3.9,3.6,8.3,4.2,13.3c0.5,5,0.3,9.9-0.8,14.7c-1.1,4.8-3,9.2-5.7,13.2c-2.7,4-6.2,6.9-10.4,8.8
				c-1.5,0.7-3,1.2-4.5,1.6c4.2,1.4,7.5,3.3,10.1,5.9c2.5,2.6,4.5,5.5,6.1,8.8c1.5,3.3,2.7,6.7,3.7,10.4c1,3.7,2,7.4,3.2,11
				c3.5-1.4,7-2.5,10.5-3.4C500.6,641.5,504.2,640.9,507.9,640.6z M382.6,548.2c-2.5,0.8-4.6,2.8-6.2,6.1c-1.6,3.3-2.8,7.1-3.6,11.5
				c-0.8,4.4-1.2,9.2-1.2,14.2c0,5.1,0.4,9.8,1.2,14.3c0.8,4.5,1.9,8.4,3.5,11.7c1.6,3.3,3.5,5.4,5.7,6.3c2.7,1.1,5.4,0.9,8-0.4
				c2-1.1,3.8-3.2,5.2-6.5c1.4-3.3,2.5-7.1,3.1-11.5c0.7-4.4,1-9,1-13.9c0-4.9-0.4-9.5-1.1-13.9c-0.7-4.3-1.9-8.1-3.4-11.3
				c-1.5-3.2-3.4-5.3-5.8-6.3C387,547.6,384.8,547.5,382.6,548.2z M458.6,605.9c2.2-1.5,4.1-3.7,5.6-6.9c1.5-3.1,2.6-6.6,3.4-10.4
				c0.7-3.8,1.1-7.8,1.1-12c0-4.2-0.4-8.2-1.2-11.9c-0.8-3.7-2-7.1-3.7-9.9c-1.6-2.9-3.6-4.9-5.9-6.1c-1.7-0.8-3.5-1-5.5-0.8
				c-2,0.2-3.6,1.2-4.5,2.8c-0.5,0.9-0.9,2-1.1,3.4c-0.2,1.4-0.4,3.1-0.4,5.1v48.3c2.1,0,4.3,0.1,6.4,0.1
				C454.7,607.9,456.7,607.2,458.6,605.9z M512.2,676.2c4.6,0.2,8.5-0.5,11.7-2.1c3.2-1.6,5.7-3.7,7.4-6.1c1.7-2.5,2.6-5.2,2.6-8.1
				c0-2.9-0.8-5.6-2.6-8c-1.8-2.4-4.6-4.3-8.4-5.8c-3.8-1.5-8.6-1.9-14.5-1.5c-3.5,0.3-6.9,0.9-10.3,1.8c-3.4,0.9-6.7,1.9-10.1,3.2
				c1.1,3,2.3,6.1,3.6,9.1c1.3,3.1,2.9,5.9,4.8,8.4c1.9,2.5,4.1,4.6,6.7,6.4C505.6,675.2,508.6,676.1,512.2,676.2z"/>
		</g>
		<g>
			<path class="st0" d="M528.8,547.9c-0.8,0-1.7,0-2.7,0s-2,0.3-2.9,1c-0.9,0.7-1.7,1.8-2.3,3.4c-0.6,1.6-0.9,3.9-0.9,7v39.1
				c0.9-1.1,2.1-2.7,3.7-5c1.6-2.3,3.4-4.8,5.3-7.7c1.9-2.8,3.9-5.8,6-8.9c2-3.1,4-6.1,5.8-9.1c1.8-2.9,3.4-5.5,4.7-7.9
				c1.4-2.3,2.3-4.1,2.9-5.4c1-2.2,0.8-3.9-0.4-5c-1.2-1.1-2.9-1.7-5-1.7v-2.5h22.2l-0.1,2.5c-3.2,0-5.7,0.6-7.6,1.8
				c-1.9,1.2-3.7,3.4-5.7,6.6c-1.5,2.5-3.3,5.6-5.6,9.1c-2.3,3.6-4.7,7.4-7.4,11.4c-2.6,4-5.4,8.2-8.3,12.3c-2.9,4.2-5.7,8.2-8.5,12
				c4.7-0.2,9.2,0.6,13.6,2.4c4.4,1.8,8,4.6,10.8,8.4c1.9,2.7,3.7,5.8,5.1,9.1c1.5,3.4,2.8,6.8,4,10.2c1.2,3.5,2.4,6.8,3.5,10
				c1.1,3.2,2.4,6.1,3.7,8.5c1.4,2.5,2.9,4.5,4.7,5.9c1.8,1.5,4,2.1,6.5,2l0.4,2.6c-5.4,0.9-10.1,0.8-14.3-0.3
				c-3.2-0.8-6-2.2-8.4-4.3c-2.4-2.1-4.5-4.6-6.2-7.4c-1.8-2.8-3.3-5.9-4.6-9.2c-1.3-3.3-2.5-6.6-3.7-10c-1.1-3.4-2.2-6.6-3.4-9.7
				c-1.1-3.1-2.4-5.8-3.7-8.2c-1.7-2.8-3.4-4.7-5.1-5.7c-1.8-1-3.5-1.4-5.1-1.3v33c0,3.1,0.3,5.5,0.9,7c0.6,1.6,1.4,2.7,2.3,3.4
				c0.9,0.7,1.9,1,2.9,1s1.9,0,2.7,0v2.5h-35.2v-2.5c0.8,0,1.7,0,2.7,0c1,0,2-0.3,2.9-1c0.9-0.7,1.7-1.8,2.3-3.4
				c0.6-1.6,0.9-3.9,0.9-7v-77.8c0-3.1-0.3-5.5-0.9-7c-0.6-1.6-1.4-2.7-2.3-3.4c-0.9-0.7-1.9-1-2.9-1c-1,0-1.9,0-2.7,0v-2.5h35.2
				V547.9z"/>
		</g>
		<g>
			<path class="st0" d="M585.9,561.2c-0.7,4.1-0.4,7.8,0.9,11.2c1.3,3.4,3,6.5,5.3,9.5c2.3,3,4.9,5.8,7.8,8.6
				c2.9,2.8,5.8,5.6,8.5,8.5c2.8,2.9,5.2,5.9,7.4,9.2c2.1,3.3,3.6,6.8,4.4,10.7c0.7,3.5,0.8,7.1,0.4,10.7c-0.4,3.6-1.5,7-3.1,10.1
				c-1.6,3.1-3.8,5.7-6.6,8c-2.8,2.3-6.2,3.8-10.1,4.5c-4,0.8-8.1,0.7-12.2-0.3c-4.1-1-7.5-2.9-10-5.7c-0.9-1-1.7-1.3-2.3-1
				c-0.7,0.5-1.1,1.5-1.2,3c-0.1,1.5-0.2,2.7-0.3,3.4h-2.5l0.6-23.1h2.9c0.4,7.4,2.7,12.8,7,16.4c2.4,2.1,4.8,3.4,7.2,3.8
				c2.4,0.4,4.6,0.1,6.6-0.8c2-0.9,3.7-2.4,5-4.5c1.4-2.1,2.3-4.5,2.8-7.4c0.6-3.9,0.3-7.5-0.8-10.7c-1.1-3.3-2.8-6.3-4.9-9.2
				c-2.1-2.9-4.6-5.6-7.4-8.3c-2.8-2.6-5.5-5.3-8.2-8c-2.7-2.7-5.1-5.5-7.4-8.4c-2.2-2.9-3.9-6.1-5-9.5c-1.2-3.6-1.7-7.4-1.5-11.5
				c0.2-4,1-7.8,2.6-11.3c1.5-3.5,3.7-6.5,6.6-9.1c2.9-2.6,6.5-4.3,10.9-5c4-0.7,8.1-0.5,12.2,0.4c4.1,1,7.5,2.8,10,5.5
				c0.9,1,1.7,1.3,2.3,1c0.7-0.5,1.1-1.5,1.2-3c0.1-1.5,0.2-2.7,0.2-3.4h2.5l-0.6,22.6l-2.8,0.3c-0.4-7.2-2.7-12.6-7-16.2
				c-2.5-2.1-5-3.4-7.4-3.8c-2.4-0.4-4.6-0.1-6.5,0.8c-1.9,0.9-3.6,2.4-5,4.5C587.2,555.9,586.3,558.4,585.9,561.2z"/>
		</g>
		<g>
			<path class="st0" d="M702.1,547.9c-0.8,0-1.7,0-2.7,0c-1,0-2,0.3-2.9,1c-0.9,0.7-1.7,1.8-2.3,3.4c-0.6,1.6-0.9,3.9-0.9,7v77.8
				c0,3.1,0.3,5.5,0.9,7c0.6,1.6,1.4,2.7,2.3,3.4c0.9,0.7,1.9,1,2.9,1c1,0,1.9,0,2.7,0v2.5h-35.3v-2.5c0.8,0,1.7,0,2.8,0
				c1.1,0,2.1-0.3,3-1c0.9-0.7,1.7-1.8,2.3-3.4c0.6-1.6,0.9-3.9,0.9-7v-8.6c-1.5-1.7-3.2-3.1-5.3-4.3c-2-1.2-4.2-2.2-6.6-3.1
				c-2.3-0.8-4.8-1.5-7.3-2c-2.5-0.5-5-0.8-7.3-1v19c0,3.1,0.3,5.5,0.9,7c0.6,1.6,1.4,2.7,2.3,3.4c0.9,0.7,1.9,1,2.9,1
				c1,0,1.9,0,2.7,0v2.5h-35.2v-2.5c0.8,0,1.7,0,2.7,0c1,0,2-0.3,2.9-1c0.9-0.7,1.7-1.8,2.3-3.4c0.6-1.6,0.9-3.9,0.9-7v-77.8
				c0-3.1-0.3-5.5-0.9-7c-0.6-1.6-1.4-2.7-2.3-3.4c-0.9-0.7-1.9-1-2.9-1c-1,0-1.9,0-2.7,0v-2.5h35.2v2.5c-0.8,0-1.7,0-2.7,0
				c-1,0-2,0.3-2.9,1c-0.9,0.7-1.7,1.8-2.3,3.4c-0.6,1.6-0.9,3.9-0.9,7v54.9c2.2,0.2,4.6,0.5,7.1,0.9c2.5,0.4,4.9,1,7.3,1.8
				c2.4,0.7,4.6,1.6,6.7,2.6c2.1,1,3.9,2.2,5.3,3.4v-63.7c0-3.1-0.3-5.5-0.9-7c-0.6-1.6-1.4-2.7-2.3-3.4c-0.9-0.7-1.9-1-3-1
				c-1.1,0-2,0-2.8,0v-2.5h35.3V547.9z"/>
		</g>
		<g>
			<path class="st0" d="M767,630.8c-1.4,5-3.5,9.1-6.5,12.3c-3,3.3-6.4,5.7-10.2,7.4c-3.8,1.7-7.9,2.5-12.2,2.5
				c-4.3,0-8.3-0.8-12.2-2.3c-3.8-1.5-7.3-3.8-10.4-6.8c-3.1-3-5.3-6.8-6.6-11.2c-0.7-2.2-1.3-5.2-1.8-8.9c-0.5-3.7-0.8-7.8-1-12.2
				c-0.2-4.4-0.3-9-0.3-13.8c0-4.8,0.1-9.4,0.4-13.8c0.3-4.4,0.7-8.5,1.2-12.1c0.5-3.7,1.2-6.6,2-8.8c1.5-4.2,3.7-7.7,6.7-10.4
				c3-2.8,6.4-4.8,10.2-6.2c3.8-1.4,7.7-2,11.8-2c4.1,0.1,8,0.9,11.8,2.4c3.7,1.6,7.1,3.8,10.1,6.9c3,3,5.1,6.8,6.5,11.4
				c0.6,2.1,1.1,4.9,1.5,8.4c0.4,3.5,0.8,7.3,1,11.4c0.2,4.1,0.4,8.4,0.4,12.9c0,4.5-0.1,8.8-0.3,13c-0.2,4.2-0.5,8-0.8,11.5
				C768,625.9,767.5,628.7,767,630.8z M741.3,548.2c-2-1-4.2-1.1-6.6-0.3c-3,1.1-5.2,3.3-6.5,6.6c-1.3,3.3-2.4,7.3-3.1,12
				c-0.4,2.4-0.7,5.4-0.9,8.9c-0.2,3.5-0.4,7.3-0.5,11.3c-0.1,4-0.2,8.2-0.2,12.5c-0.1,4.3,0,8.4,0.1,12.4c0.1,4,0.4,7.7,0.7,11.2
				c0.3,3.5,0.6,6.5,1,8.9c0.8,4.4,1.8,8.1,2.9,11.2c1.2,3.1,3.2,5.2,6,6.3c2.7,1.2,5.4,1,7.9-0.4c2.5-1.4,4.4-3.7,5.5-6.9
				c1.2-3.2,2-7,2.6-11.4c0.6-3.7,1-8.3,1.2-13.9c0.2-5.6,0.4-11.4,0.4-17.4c0-6-0.1-11.8-0.4-17.4c-0.2-5.6-0.6-10.2-1.1-13.9
				c-0.6-4.8-1.5-9-2.8-12.6C746.3,551.7,744.2,549.4,741.3,548.2z"/>
		</g>
		<g>
			<path class="st0" d="M802.3,545.4c3.5,0,6.8,0.1,10,0.3c3.2,0.2,6.4,1,9.6,2.5c3.7,1.7,6.7,4.2,9.1,7.5c2.4,3.4,4.2,7.1,5.3,11.3
				c1.2,4.2,1.7,8.6,1.7,13.2c-0.1,4.6-0.7,9-2,13.2c-1.3,4.2-3.1,8-5.6,11.3c-2.5,3.4-5.6,5.9-9.3,7.5c-3.6,1.7-7.2,2.5-10.7,2.6
				c-3.6,0.1-7.2,0.1-11,0.1v22c0,3.1,0.3,5.5,0.9,7c0.6,1.6,1.4,2.7,2.3,3.4c0.9,0.7,1.9,1,2.9,1s1.9,0,2.7,0v2.5h-35.2v-2.5
				c0.8,0,1.7,0,2.7,0c1,0,2-0.3,2.9-1c0.9-0.7,1.7-1.8,2.3-3.4c0.6-1.6,0.9-3.9,0.9-7v-77.8c0-3.1-0.3-5.5-0.9-7
				c-0.6-1.6-1.4-2.7-2.3-3.4c-0.9-0.7-1.9-1-2.9-1c-1,0-1.9,0-2.7,0v-2.5H802.3z M799.4,611.7c0.9,0,2,0,3.3,0.1
				c1.3,0.1,2.7,0,4.1-0.3c1.4-0.2,2.8-0.7,4.2-1.5c1.4-0.7,2.7-1.9,3.7-3.4c1.8-2.2,3.2-5.1,4.2-8.5c1.1-3.5,1.8-7.2,2.3-11.1
				c0.4-3.9,0.6-7.9,0.4-12c-0.2-4-0.7-7.8-1.6-11.3c-0.9-3.5-2.1-6.6-3.6-9.3c-1.5-2.7-3.3-4.5-5.5-5.6c-1.7-0.8-3.5-1-5.5-0.8
				c-2,0.2-3.6,1.2-4.5,3c-0.5,0.8-0.9,1.9-1.1,3.2c-0.2,1.4-0.4,3.1-0.4,5.1V611.7z"/>
		</g>
	</g>
	<g>
		<g>
			<path class="st0" d="M115.9,455.8c27.9,31.3,102,29.4,113.9,81.9c8.6,36.9-26.4,78.9-78.6,78.6c-27.9,0-54.7-11.9-67.4-26.4v18.2
				c0,4.5-9.3,4.5-9.3,0v-72.2c0-4.5,8.9-4.5,9.3,0c0,25.3,16.8,56.6,44.3,68.1c43.6,18.2,74.8-11.5,73.7-40.2
				c-1.9-49.1-94.6-42.4-118.8-90.5c-19-36.9,1.5-80.8,44.7-92.3c16.4-4.1,38-4.5,55.5,1.9c8.6,2.6,23.8,11.9,23.5,0.7
				c0-5.6,7.8-5.2,7.8-0.4c0.4,38.7,0,41.3,0,43.9c-1.5,17.1-15.6,31.3-32.8,30.9c-17.9-0.7-32.8-16-25.7-33.5
				c5.6-14.5,27.2-16.4,32.4-1.9c4.8,11.9-9.3,17.1-10.8,5.6c-1.1-10.1-11.2-8.9-14.5-0.4C158,439.8,168.4,451,181,451
				c28.3,0.7,31.6-34.6,16.8-50.6c-15.3-17.1-48-19.7-68.5-10.4C100.6,402.6,96.9,434.2,115.9,455.8z"/>
		</g>
		<g>
			<path class="st0" d="M347.1,505.8c-8.9,14.9-24.2,22.3-39.8,23.1c-26.4,0.7-55.1-15.6-55.1-52.1c0-57,80.8-66.6,94.9-28.3v-24.2
				c0-65.5-73.7-48-69.2-17.5c1.9,10.8-13.8,11.5-11.9-1.1c6.7-46.2,107.2-44.7,107.2,19v77.8c0,14.1,5.2,22,14.9,16.4
				c4.1-2.6,8.6,2.2,1.9,6C373.9,533.3,348.2,527,347.1,505.8z M347.1,470.8c-2.6,5.2-6.7,9.7-13,11.5c-13.8,4.5-28.7-6-26.4-19.7
				c0.4-3.7,2.6-7.4,6.3-9.7c10.4-7.4,18.6,4.8,8.2,8.9c-5.6,2.2-6.7,5.6-6.3,8.6c1.5,6,9.7,8.6,16.4,6.3c13-4.5,11.9-22.3,5.2-32
				c-16.8-22.7-55.1-14.1-55.1,32c0,39.5,37.6,59.2,57.3,28.3c3.7-6,7.4-14.9,7.4-23.1V470.8z"/>
		</g>
		<g>
			<path class="st0" d="M507.5,501.3l0.4-80.4c0-46.5-43.6-45.4-57.7-26.8c-3,4.1-4.8,8.9-4.8,14.5c-0.4,7.1,3.7,13,10.1,15.3
				c6.7,2.6,14.9-0.4,16.4-6.3c0.4-3-0.7-6-6.3-8.2c-10.4-4.5-2.2-16.8,8.2-9.3c3.7,2.6,6,6,6.3,9.7c2.2,13.8-12.7,24.6-26.4,19.7
				c-7.4-2.2-12.3-8.2-14.1-14.9v103.1h14.5c3.4,0,3.4,6.3,0,6.3h-55.8c-3.4,0-3-6.3,0-6.3h15.3V383.3h-15.6c-2.6,0-3-6.3,0.4-6.3
				c12.3,0.4,24.9,0.7,36.5-1.9h4.8v25.7c2.6-9.7,10.8-17.9,21.6-22c27.9-10.4,71.9,1.5,73,45v78.6c-0.7,13.8,5.2,22,14.9,16.4
				c4.1-2.6,8.6,2.2,1.9,6C529.1,536.7,507.5,523.3,507.5,501.3z"/>
		</g>
		<g>
			<path class="st0" d="M631.5,511c4.1-4.1,7.8-1.1,4.5,3.4c-4.5,5.6-16.8,14.5-32.8,14.1c-30.5,0-37.2-26.1-37.2-51.4v-81.5
				c0-10.8-4.5-11.9-13.8-11.9c-4.8-0.4-4.8-6.3,0-6.3h4.5h9.3c13.8-0.7,18.6-16.8,19.7-34.6c0.4-4.8,6.3-5.2,6.3-0.4v35h10.8
				c7.1,0,14.1-0.7,20.5,3c7.1,3.7,10.8,11.2,10.8,20.1c0,8.9-4.8,17.9-14.1,20.5c-13.4,3.7-25.3-6-23.1-19.4c0.4-3.4,2.6-6.7,6-8.9
				c10.1-7.1,17.9,4.5,7.8,8.6c-5.2,2.2-6.3,5.2-6,7.8c1.5,6,6.7,8.9,13.4,6.7c6-2.2,9.7-7.8,9.7-14.9c-0.4-6.3-2.6-11.5-7.1-14.1
				c-4.8-3.3-11.9-3-17.9-3H592v101.3c0,14.1,2.6,35.7,21.6,35.4C621.4,519.9,627.8,514.7,631.5,511z"/>
		</g>
		<g>
			<path class="st0" d="M732,505.8c-8.9,14.9-24.2,22.3-39.8,23.1c-26.4,0.7-55.1-15.6-55.1-52.1c0-57,80.8-66.6,94.9-28.3v-24.2
				c0-65.5-73.7-48-69.2-17.5c1.9,10.8-13.8,11.5-11.9-1.1c6.7-46.2,107.2-44.7,107.2,19v77.8c0,14.1,5.2,22,14.9,16.4
				c4.1-2.6,8.6,2.2,1.9,6C758.8,533.3,733.1,527,732,505.8z M732,470.8c-2.6,5.2-6.7,9.7-13,11.5c-13.8,4.5-28.7-6-26.4-19.7
				c0.4-3.7,2.6-7.4,6.3-9.7c10.4-7.4,18.6,4.8,8.2,8.9c-5.6,2.2-6.7,5.6-6.3,8.6c1.5,6,9.7,8.6,16.4,6.3c13-4.5,11.9-22.3,5.2-32
				c-16.8-22.7-55.1-14.1-55.1,32c0,39.5,37.6,59.2,57.3,28.3c3.7-6,7.4-14.9,7.4-23.1V470.8z"/>
		</g>
		<g>
			<path class="st0" d="M797.5,433.3c-8.9,5.6-10.1-0.7-6-4.1c9.3-8.2,13.4-14.1,15.6-24.9c-8.9-0.4-15.6-7.4-15.6-16.4
				c0-8.9,7.1-16.4,16.4-16.4c7.8,0,14.5,5.6,16,13.4C827.3,400.9,810.9,425.1,797.5,433.3z"/>
		</g>
		<g>
			<path class="st0" d="M890.2,455.8c27.9,31.3,102,29.4,113.9,81.9c8.6,36.9-26.4,78.9-78.6,78.6c-27.9,0-54.7-11.9-67.4-26.4v18.2
				c0,4.5-9.3,4.5-9.3,0v-72.2c0-4.5,8.9-4.5,9.3,0c0,25.3,16.8,56.6,44.3,68.1c43.6,18.2,74.8-11.5,73.7-40.2
				c-1.9-49.1-94.6-42.4-118.8-90.5c-19-36.9,1.5-80.8,44.7-92.3c16.4-4.1,38-4.5,55.5,1.9c8.6,2.6,23.8,11.9,23.5,0.7
				c0-5.6,7.8-5.2,7.8-0.4c0.4,38.7,0,41.3,0,43.9c-1.5,17.1-15.6,31.3-32.8,30.9c-17.9-0.7-32.8-16-25.7-33.5
				c5.6-14.5,27.2-16.4,32.4-1.9c4.8,11.9-9.3,17.1-10.8,5.6c-1.1-10.1-11.2-8.9-14.5-0.4c-5.2,11.9,5.2,23.1,17.9,23.1
				c28.3,0.7,31.6-34.6,16.8-50.6c-15.3-17.1-48-19.7-68.5-10.4C875,402.6,871.2,434.2,890.2,455.8z"/>
		</g>
	</g>
	<g>
		<g>
			<path class="st0" d="M171.9,684.3c-0.5,1.6-0.7,2.7-0.7,3.3c0,0.6,0.1,1.2,0.4,1.7c0.3,0.5,1,1.1,2.1,1.7
				c-0.2,0.7-0.4,1.4-0.6,2.1c-5.7-1.7-11.4-3.3-17.1-5.1c0.2-0.7,0.4-1.4,0.6-2c1.4,0.1,2.3,0,2.7-0.2c0.5-0.2,0.9-0.6,1.2-1.1
				c0.3-0.5,0.7-1.7,1.3-3.4c1.2-4.1,2.5-8.3,3.7-12.4c-4.9-1.5-9.7-3-14.6-4.5c-1.3,4.1-2.6,8.3-3.9,12.4c-0.2,0.7-0.4,1.4-0.6,2
				c-0.2,0.6-0.2,1.2-0.2,1.6c0,0.4,0.1,0.8,0.3,1.2c0.2,0.3,0.4,0.7,0.8,1c0.4,0.3,0.9,0.7,1.4,1c-0.2,0.7-0.4,1.4-0.6,2
				c-5.7-1.8-11.5-3.6-17.2-5.5c0.2-0.7,0.4-1.4,0.7-2c0.9,0.1,1.6,0,2.1,0c0.5-0.1,1-0.3,1.4-0.6c0.4-0.3,0.7-0.8,1-1.5
				c0.3-0.6,0.6-1.4,0.9-2.4c2.8-8.9,5.7-17.7,8.5-26.6c0.3-1,0.5-1.8,0.7-2.5c0.2-0.7,0.2-1.3,0.1-1.7c-0.1-0.5-0.3-0.9-0.7-1.3
				c-0.4-0.4-0.9-0.8-1.7-1.3c0.2-0.7,0.4-1.4,0.7-2c5.5,1.8,11.1,3.6,16.6,5.3c-0.2,0.7-0.4,1.4-0.6,2c-1.2,0-2.1,0.1-2.6,0.3
				c-0.5,0.2-1,0.6-1.3,1.2c-0.4,0.6-0.8,1.6-1.3,3.2c-1.1,3.4-2.2,6.9-3.2,10.3c4.8,1.5,9.7,3,14.5,4.5c1-3.5,2.1-6.9,3.1-10.4
				c0.5-1.6,0.7-2.7,0.8-3.3c0-0.7-0.1-1.2-0.4-1.7c-0.3-0.5-1-1.1-2-1.7c0.2-0.7,0.4-1.4,0.6-2c5.5,1.7,11,3.3,16.6,4.9
				c-0.2,0.7-0.4,1.4-0.6,2.1c-1,0-1.8,0-2.3,0.2c-0.5,0.2-0.9,0.4-1.2,0.8c-0.3,0.4-0.6,0.8-0.8,1.4c-0.2,0.5-0.5,1.3-0.8,2.5
				C177.1,666.4,174.5,675.4,171.9,684.3z"/>
		</g>
		<g>
			<path class="st0" d="M206.4,688.1c-4.7-1.2-9.3-2.5-14-3.8c-0.6,0.9-1.3,1.8-1.9,2.7c-0.5,0.7-1,1.5-1.4,2.2
				c-0.4,0.7-0.7,1.5-1,2.4c-0.6,2,0.3,3.4,2.5,4.2c-0.2,0.7-0.4,1.4-0.6,2.1c-4.7-1.3-9.4-2.6-14.1-3.9c0.2-0.7,0.4-1.4,0.6-2.1
				c0.8,0.2,1.6,0.1,2.4-0.2c0.7-0.3,1.5-0.7,2.2-1.4c0.7-0.6,1.6-1.6,2.6-2.9c7.8-10.3,15.5-20.6,23-30.9c2.8,0.8,5.7,1.5,8.5,2.3
				c0.4,12.6,1,25.2,1.6,37.9c0.1,1.7,0.2,2.9,0.4,3.7c0.2,0.7,0.5,1.4,0.9,1.9c0.4,0.5,1.1,1,2,1.5c-0.2,0.7-0.3,1.4-0.5,2.1
				c-6.1-1.5-12.2-3.1-18.3-4.7c0.2-0.7,0.4-1.4,0.5-2.1c1.2,0.2,2.1,0.1,2.8-0.2c0.7-0.3,1.1-0.9,1.4-1.8c0.2-0.6,0.3-1.4,0.3-2.2
				c0.1-0.8,0.1-1.9,0-3.2C206.5,690.3,206.4,689.2,206.4,688.1z M194.7,681c3.9,1.1,7.8,2.1,11.7,3.2c-0.2-6.3-0.3-12.7-0.5-19
				C202.2,670.5,198.5,675.8,194.7,681z"/>
		</g>
		<g>
			<path class="st0" d="M273.1,672.7c-0.1,0.7-0.3,1.4-0.4,2.1c-0.9,0.1-1.6,0.2-2,0.3c-0.4,0.1-0.8,0.3-1.1,0.6
				c-0.3,0.3-0.6,0.7-0.9,1.3c-0.3,0.6-0.5,1.6-0.8,2.9c-2.6,11.7-5.1,23.5-7.7,35.2c-2.8-0.6-5.6-1.2-8.5-1.9
				c-3.2-9.3-6.2-18.6-9.2-28c-1.2-3.8-2-6.7-2.5-8.8c-0.1,0-0.2,0-0.3-0.1c-0.9,4.6-1.9,9.4-3.1,14.4c-0.8,3.4-1.6,6.8-2.4,10.1
				c-0.4,1.6-0.6,2.7-0.5,3.4c0,0.7,0.2,1.2,0.5,1.7c0.3,0.5,1.1,1,2.2,1.6c-0.2,0.7-0.3,1.4-0.5,2.1c-4.2-1-8.4-2-12.5-3
				c0.2-0.7,0.3-1.4,0.5-2.1c0.9,0,1.6-0.1,2.1-0.2c0.5-0.1,1-0.4,1.3-0.8c0.3-0.4,0.6-0.9,0.8-1.5c0.2-0.6,0.5-1.4,0.7-2.4
				c2.2-9.1,4.4-18.1,6.6-27.2c0.4-1.6,0.6-2.7,0.6-3.3c0-0.6-0.2-1.2-0.5-1.7c-0.3-0.5-1-1-2.1-1.6c0.2-0.7,0.3-1.4,0.5-2.1
				c4.3,1.1,8.7,2.1,13,3.1c2.3,7.4,4.6,14.7,7,22c0.4,1.4,1,3.2,1.7,5.6c0.7,2.3,1.3,4.5,1.8,6.6c0.2,0,0.4,0.1,0.5,0.1
				c0.9-5.1,2-10.6,3.3-16.6c0.4-2,0.9-3.9,1.3-5.9c0.3-1.4,0.5-2.4,0.5-3c0-0.6,0-1.1-0.2-1.5c-0.2-0.4-0.4-0.7-0.7-1
				c-0.3-0.3-0.9-0.7-1.7-1.1c0.2-0.7,0.3-1.4,0.5-2.1C265,670.9,269.1,671.8,273.1,672.7z"/>
		</g>
		<g>
			<path class="st0" d="M295.7,677.3c3.6,0.7,6.6,1.6,8.9,2.6c2.3,1,4.3,2.3,6,3.8c1.7,1.5,2.9,3.2,3.8,5.1c0.9,1.9,1.4,3.9,1.6,6.2
				c0.2,2.3,0,4.8-0.5,7.5c-0.6,3.3-1.5,6.2-2.8,8.7c-1.3,2.5-2.9,4.5-4.8,6.1c-1.7,1.4-3.8,2.5-6.1,3.2c-2.3,0.7-4.9,1-7.7,0.9
				c-2.4-0.1-5.4-0.5-9-1.2c-5.1-1-10.1-2-15.2-3.1c0.1-0.7,0.3-1.4,0.4-2.1c0.9,0,1.6-0.1,2.1-0.3c0.5-0.1,1-0.4,1.3-0.8
				c0.3-0.4,0.6-0.9,0.8-1.6c0.2-0.7,0.4-1.5,0.6-2.5c1.9-9.1,3.8-18.2,5.6-27.3c0.2-1,0.4-1.8,0.4-2.5c0.1-0.7,0.1-1.3-0.1-1.7
				c-0.1-0.5-0.4-0.9-0.8-1.2c-0.4-0.4-1-0.7-1.8-1.1c0.1-0.7,0.3-1.4,0.4-2.1C284.5,675.1,290.1,676.2,295.7,677.3z M284.5,716.2
				c0.4,0.1,1.4,0.4,3,0.7c2.4,0.5,4.6,0.5,6.4,0.2c1.3-0.3,2.5-0.8,3.6-1.5c1.7-1.2,3.2-2.9,4.3-5.1c1.3-2.4,2.2-5.4,2.9-9.1
				c0.7-4,0.8-7.5,0.2-10.4c-0.6-2.9-1.8-5.1-3.6-6.8c-1.8-1.6-4-2.7-6.8-3.3c-1.3-0.3-2.3-0.4-2.9-0.5
				C289.3,692.4,286.9,704.3,284.5,716.2z"/>
		</g>
		<g>
			<path class="st0" d="M357.7,688.9c-0.5,3.1-0.9,6.2-1.4,9.3c-1.5-0.2-3-0.4-4.5-0.7c-0.2-2.5-0.7-4.4-1.7-5.7
				c-1-1.3-2.3-2.1-4.2-2.4c-3.4-0.5-6.3,0.7-8.6,3.6c-2.3,2.9-4,7.6-5,13.9c-1,5.9-0.9,10.5,0.3,13.8c1.2,3.3,3.3,5.2,6.5,5.7
				c1.6,0.3,3,0.2,4.1-0.2c1.1-0.4,2-1,2.8-2c0.8-1,1.5-2.3,2.2-4.2c1.5,0.2,3,0.5,4.6,0.7c-0.5,3.2-0.9,6.5-1.4,9.7
				c-2.5,0.2-4.9,0.3-6.9,0.2c-2.1-0.1-4.2-0.2-6.4-0.6c-4.7-0.7-8.3-2.1-11-4.2c-2.7-2.1-4.4-4.9-5.3-8.3c-0.8-3.5-0.8-7.7,0-12.6
				c0.8-4.6,2.3-8.5,4.5-11.6c2.2-3.1,5-5.4,8.4-6.7c3.4-1.3,7.2-1.7,11.6-1c2.2,0.3,4.2,0.8,5.9,1.3
				C354,687.4,355.8,688.1,357.7,688.9z"/>
		</g>
		<g>
			<path class="st0" d="M375.2,734.9c-5.9-0.8-11.8-1.5-17.7-2.4c0.1-0.7,0.2-1.4,0.3-2.1c0.9-0.1,1.5-0.2,2.1-0.4
				c0.5-0.2,0.9-0.5,1.2-0.9c0.3-0.4,0.5-0.9,0.7-1.6c0.2-0.7,0.3-1.5,0.5-2.5c1.3-9.2,2.5-18.4,3.8-27.6c0.1-1,0.2-1.9,0.3-2.5
				c0-0.7,0-1.3-0.2-1.7c-0.2-0.5-0.5-0.9-0.9-1.2c-0.4-0.3-1-0.7-1.8-1c0.1-0.7,0.2-1.4,0.3-2.1c6.3,0.9,12.7,1.7,19,2.5
				c2.6,0.3,4.7,0.8,6.5,1.3c1.8,0.6,3.3,1.3,4.5,2.2c1.1,0.7,1.9,1.6,2.6,2.6c0.7,1,1.2,2.1,1.5,3.4c0.3,1.3,0.3,2.7,0.2,4.3
				c-0.2,2.1-0.8,3.9-1.7,5.3c-0.9,1.4-2.1,2.5-3.5,3.4c-1.4,0.8-3.3,1.6-5.5,2.2c0,0.1,0,0.2,0,0.3c1.6,0.9,2.8,2,3.7,3.2
				c0.9,1.3,1.7,2.8,2.4,4.7c0.5,1.5,1.1,3.1,1.6,4.6c0.7,2.1,1.5,3.6,2.3,4.7c0.8,1.1,1.9,1.8,3.1,2.1c-0.1,0.7-0.2,1.4-0.2,2.1
				c-4.3-0.5-8.7-1-13-1.5c-1.1-1.9-2.3-4.6-3.5-8.2c-0.6-1.9-1.3-3.9-1.9-5.8c-0.6-1.7-1.1-3-1.6-3.7c-0.5-0.8-1-1.3-1.5-1.6
				c-0.6-0.3-1.4-0.6-2.7-0.7c-0.6-0.1-1.3-0.2-1.9-0.2c-0.4,3.4-0.9,6.9-1.3,10.3c-0.2,1.6-0.3,2.7-0.2,3.4
				c0.1,0.7,0.3,1.2,0.7,1.7c0.4,0.4,1.2,0.9,2.4,1.3C375.4,733.5,375.3,734.2,375.2,734.9z M376.8,694.4
				c-0.8,5.9-1.5,11.9-2.3,17.8c1.1,0.1,2.2,0.3,3.3,0.4c1.8,0.2,3.3,0.2,4.5-0.1c1.2-0.3,2.2-0.8,3-1.6c0.8-0.7,1.4-1.7,1.7-2.7
				c0.4-1.1,0.7-2.3,0.8-3.6c0.4-2.9-0.1-5.2-1.3-6.8c-1.2-1.6-3.2-2.6-5.9-3C378.6,694.6,377.4,694.5,376.8,694.4z"/>
		</g>
		<g>
			<path class="st0" d="M428.5,726.8c-4.8-0.4-9.5-0.9-14.3-1.3c-0.5,1-0.9,2-1.4,3c-0.4,0.8-0.7,1.6-1,2.4
				c-0.3,0.8-0.5,1.6-0.6,2.5c-0.2,2.1,0.8,3.4,3.2,3.7c-0.1,0.7-0.1,1.4-0.2,2.1c-4.8-0.5-9.6-1-14.4-1.5c0.1-0.7,0.2-1.4,0.2-2.1
				c0.8,0,1.6-0.2,2.3-0.6c0.7-0.4,1.3-1,1.9-1.7c0.6-0.8,1.3-1.9,2-3.3c5.9-11.4,11.7-22.9,17.4-34.4c2.9,0.3,5.8,0.5,8.7,0.8
				c2.6,12.4,5.2,24.7,8,37c0.4,1.7,0.7,2.8,1,3.5c0.3,0.7,0.7,1.3,1.2,1.7c0.5,0.5,1.2,0.8,2.2,1.1c-0.1,0.7-0.1,1.4-0.2,2.1
				c-6.2-0.5-12.4-1-18.7-1.5c0.1-0.7,0.1-1.4,0.2-2.1c1.2,0,2.1-0.3,2.7-0.7c0.6-0.4,0.9-1.1,1-2c0.1-0.7,0-1.4,0-2.2
				c-0.1-0.8-0.3-1.9-0.5-3.2C428.9,729,428.7,727.9,428.5,726.8z M415.8,721.9c4,0.4,8,0.8,12,1.1c-1.2-6.2-2.5-12.4-3.7-18.6
				C421.4,710.2,418.6,716,415.8,721.9z"/>
		</g>
		<g>
			<path class="st0" d="M463,735c-0.1,1.1-0.1,2-0.1,2.6c0,0.6,0.1,1.1,0.3,1.5c0.2,0.4,0.4,0.7,0.6,0.9c0.2,0.2,0.6,0.5,1,0.7
				c0.5,0.2,1.1,0.4,1.9,0.5c0,0.7-0.1,1.4-0.1,2.1c-6.1-0.4-12.1-0.7-18.2-1.2c0.1-0.7,0.1-1.4,0.2-2.1c0.8-0.1,1.5-0.3,2-0.5
				c0.5-0.2,0.9-0.5,1.2-1c0.3-0.4,0.5-1,0.6-1.7c0.1-0.7,0.2-1.5,0.3-2.6c0.6-9.3,1.3-18.5,1.9-27.8c0.1-1,0.1-1.9,0.1-2.6
				c0-0.7-0.1-1.3-0.3-1.7c-0.2-0.4-0.5-0.8-1-1.1c-0.5-0.3-1.1-0.6-1.9-0.9c0.1-0.7,0.1-1.4,0.2-2.1c10.5,0.8,21.1,1.4,31.7,1.9
				c-0.2,3.4-0.3,6.9-0.5,10.3c-1.5-0.1-3-0.1-4.5-0.2c-0.6-2.1-1.2-3.5-1.6-4.2c-0.5-0.7-1-1.4-1.7-1.8c-0.7-0.5-1.9-0.7-3.5-0.8
				c-2.1-0.1-4.2-0.2-6.3-0.4c-0.3,5.5-0.7,11-1,16.4c1.4,0.1,2.8,0.2,4.3,0.3c1,0.1,1.9-0.1,2.4-0.3c0.6-0.3,1.1-0.8,1.5-1.5
				c0.4-0.7,0.8-1.7,1.1-3.1c1.2,0.1,2.5,0.1,3.7,0.2c-0.2,4.7-0.5,9.4-0.7,14.1c-1.3-0.1-2.5-0.1-3.8-0.2c-0.2-1.4-0.5-2.4-0.8-3.2
				c-0.3-0.8-0.8-1.3-1.3-1.6c-0.5-0.3-1.3-0.5-2.3-0.6c-1.4-0.1-2.8-0.2-4.3-0.3C463.5,727,463.2,731,463,735z"/>
		</g>
		<g>
			<path class="st0" d="M496.2,744.7c0-0.7,0.1-1.4,0.1-2.1c1-0.1,1.7-0.3,2.3-0.5c0.6-0.2,1-0.6,1.3-1c0.3-0.4,0.5-1,0.6-1.7
				c0.1-0.7,0.2-1.6,0.2-2.6c0.4-10.8,0.7-21.5,1.1-32.3c-0.9,0-1.8-0.1-2.7-0.1c-1.3,0-2.3,0.1-3,0.3c-0.7,0.3-1.3,0.7-1.9,1.4
				c-0.5,0.6-1,1.5-1.4,2.6c-0.4,1.1-0.8,2.1-1,3.1c-1.5-0.1-3-0.1-4.5-0.2c0.2-3.8,0.3-7.6,0.5-11.3c12.9,0.6,25.7,0.9,38.6,1.1
				c-0.1,3.8-0.1,7.6-0.2,11.4c-1.5,0-3,0-4.5-0.1c-0.4-1.5-0.7-2.6-0.9-3.3c-0.2-0.7-0.5-1.3-0.8-1.8c-0.3-0.5-0.6-0.9-0.9-1.2
				c-0.3-0.3-0.7-0.6-1-0.8c-0.4-0.2-0.8-0.4-1.4-0.5c-0.6-0.1-1.3-0.2-2.2-0.2c-0.8,0-1.6,0-2.4-0.1c-0.3,10.8-0.5,21.5-0.8,32.3
				c0,1.1,0,2,0,2.6c0.1,0.6,0.2,1.1,0.3,1.4c0.2,0.4,0.4,0.7,0.6,0.9c0.3,0.2,0.6,0.4,1.1,0.6c0.5,0.2,1.1,0.4,1.9,0.5
				c0,0.7,0,1.4,0,2.1C508.7,745.1,502.4,744.9,496.2,744.7z"/>
		</g>
		<g>
			<path class="st0" d="M563.9,701.2c0.1,3.4,0.1,6.9,0.2,10.3c-1.5,0-3,0-4.5,0.1c-0.8-2-1.4-3.4-1.9-4.1c-0.5-0.7-1.1-1.3-1.8-1.7
				c-0.7-0.4-1.9-0.6-3.6-0.6c-2.4,0-4.8,0-7.2,0c0,5.2,0,10.4,0,15.5c1.5,0,2.9,0,4.4,0c1,0,1.7-0.1,2.3-0.4c0.6-0.3,1-0.7,1.4-1.4
				c0.4-0.6,0.7-1.6,1-2.9c1.2,0,2.5,0,3.7,0c0,4.4,0.1,8.8,0.1,13.1c-1.3,0-2.5,0-3.8,0c-0.3-1.2-0.7-2.2-1.1-2.9
				c-0.4-0.7-0.8-1.1-1.4-1.4c-0.5-0.3-1.3-0.4-2.4-0.4c-1.5,0-2.9,0-4.4,0c0,5.8,0,11.5,0,17.3c2.4,0,4.9,0,7.3,0
				c0.8,0,1.5-0.1,2-0.2c0.5-0.1,1-0.3,1.4-0.5c0.4-0.2,0.8-0.6,1.2-1c0.4-0.4,0.7-0.9,1-1.3c0.3-0.5,0.6-1.1,0.9-1.9
				c0.3-0.8,0.7-1.9,1.1-3.2c1.5,0,3.1,0,4.6-0.1c-0.2,3.9-0.3,7.9-0.5,11.8c-11.1,0.2-22.2,0.2-33.3,0.1c0-0.7,0-1.4,0-2.1
				c0.8-0.2,1.5-0.4,2-0.7c0.5-0.2,0.9-0.6,1.1-1c0.2-0.4,0.4-1,0.5-1.7c0.1-0.7,0.1-1.5,0.1-2.6c0.1-9.3,0.1-18.6,0.2-27.9
				c0-1,0-1.9-0.1-2.6c-0.1-0.7-0.2-1.3-0.4-1.7c-0.2-0.4-0.6-0.8-1-1.1c-0.5-0.3-1.1-0.5-1.9-0.7c0-0.7,0-1.4,0-2.1
				C542.3,701.4,553.1,701.4,563.9,701.2z"/>
		</g>
		<g>
			<path class="st0" d="M587.2,700.7c3.6-0.1,6.7,0,9.2,0.5c2.5,0.5,4.7,1.3,6.6,2.4c2,1.1,3.6,2.5,4.8,4.1c1.3,1.6,2.2,3.5,2.9,5.7
				c0.7,2.2,1.1,4.7,1.2,7.4c0.2,3.4-0.1,6.4-0.8,9.1c-0.7,2.7-1.8,5.1-3.3,7c-1.4,1.8-3.1,3.3-5.2,4.5c-2.1,1.2-4.5,2.1-7.3,2.6
				c-2.4,0.5-5.4,0.8-9,0.9c-5.1,0.2-10.3,0.3-15.4,0.4c0-0.7,0-1.4,0-2.1c0.8-0.2,1.5-0.5,2-0.7c0.5-0.3,0.8-0.6,1.1-1.1
				c0.2-0.4,0.4-1,0.4-1.7c0.1-0.7,0.1-1.5,0-2.6c-0.2-9.3-0.4-18.6-0.6-27.9c0-1-0.1-1.9-0.1-2.6c-0.1-0.7-0.2-1.2-0.5-1.7
				c-0.2-0.4-0.6-0.8-1.1-1c-0.5-0.3-1.1-0.5-2-0.7c0-0.7,0-1.4,0-2.1C575.9,701,581.6,700.9,587.2,700.7z M585.1,741
				c0.4,0.1,1.4,0.1,3.1,0c2.5-0.1,4.6-0.5,6.2-1.3c1.2-0.6,2.3-1.3,3.1-2.3c1.4-1.5,2.4-3.5,3.1-5.9c0.7-2.6,1-5.8,0.8-9.5
				c-0.2-4.1-0.9-7.5-2.1-10.1c-1.2-2.7-2.9-4.6-5-5.8c-2.1-1.2-4.5-1.8-7.4-1.7c-1.4,0-2.3,0.1-2.9,0.2
				C584.4,716.8,584.7,728.9,585.1,741z"/>
		</g>
		<g>
			<path class="st0" d="M644.8,741.8c-0.1-0.7-0.1-1.4-0.2-2.1c0.9-0.2,1.7-0.5,2.2-0.8c0.5-0.3,0.9-0.7,1.2-1.1
				c0.2-0.5,0.4-1.1,0.4-1.8c0-0.7,0-1.6-0.1-2.6c-0.8-10.7-1.7-21.4-2.5-32.2c-0.9,0.1-1.8,0.1-2.7,0.2c-1.3,0.1-2.3,0.3-3,0.7
				c-0.7,0.4-1.3,0.9-1.7,1.6c-0.5,0.7-0.9,1.6-1.1,2.7c-0.3,1.1-0.5,2.2-0.7,3.1c-1.5,0.1-3,0.2-4.5,0.3c-0.3-3.8-0.5-7.6-0.8-11.3
				c12.8-0.9,25.7-1.9,38.5-3.2c0.4,3.8,0.7,7.5,1.1,11.3c-1.5,0.1-3,0.3-4.5,0.4c-0.6-1.4-1-2.5-1.3-3.1c-0.3-0.7-0.6-1.2-1-1.7
				c-0.3-0.5-0.7-0.8-1-1.1c-0.4-0.3-0.7-0.5-1.1-0.7c-0.4-0.2-0.9-0.3-1.4-0.3c-0.6,0-1.3,0-2.2,0c-0.8,0.1-1.6,0.1-2.4,0.2
				c0.9,10.7,1.9,21.4,2.8,32.1c0.1,1.1,0.2,2,0.3,2.6c0.1,0.6,0.3,1.1,0.5,1.4c0.2,0.4,0.5,0.6,0.7,0.8c0.3,0.2,0.7,0.4,1.1,0.5
				c0.5,0.1,1.1,0.2,1.9,0.3c0.1,0.7,0.1,1.4,0.2,2.1C657.3,740.8,651.1,741.3,644.8,741.8z"/>
		</g>
		<g>
			<path class="st0" d="M697.8,737.2c-6.6,0.8-11.8-0.5-15.5-3.9c-3.7-3.3-5.9-8.7-6.6-16.1c-0.5-4.8-0.1-9,1.1-12.6
				c1.2-3.6,3.2-6.4,6.1-8.5c2.8-2.1,6.3-3.4,10.5-3.9c6.5-0.8,11.6,0.5,15.3,3.7c3.7,3.3,6.1,8.5,7.1,15.7c0.5,4,0.5,7.6-0.1,10.6
				c-0.6,3-1.7,5.6-3.3,7.7c-1.6,2.1-3.6,3.7-6.1,4.9C703.8,736.1,701,736.9,697.8,737.2z M686.2,715.3c0.7,6.5,2,11.2,4,14.2
				c2,3,4.6,4.3,8,3.9c1.7-0.2,3.1-0.8,4.2-1.9c1.1-1,1.9-2.4,2.5-4.1c0.6-1.7,0.9-3.6,0.9-5.9c0.1-2.2-0.1-4.6-0.4-7.3
				c-0.5-4.3-1.3-7.8-2.4-10.6c-1-2.8-2.4-4.8-3.9-6.1c-1.6-1.3-3.4-1.8-5.6-1.6c-3.2,0.4-5.3,2.1-6.6,5.3
				C685.8,704.4,685.5,709.1,686.2,715.3z"/>
		</g>
		<g>
			<path class="st0" d="M743.5,713.4c0.4,2.9,0.9,5.8,1.3,8.8c0.2,1.1,0.3,2,0.5,2.6c0.2,0.6,0.4,1,0.6,1.4c0.2,0.3,0.5,0.6,0.8,0.8
				c0.3,0.2,0.7,0.3,1.2,0.4c0.5,0.1,1.1,0.2,1.9,0.1c0.1,0.7,0.2,1.4,0.3,2.1c-6.2,1-12.4,1.9-18.6,2.8c-0.1-0.7-0.2-1.4-0.3-2.1
				c0.9-0.3,1.6-0.6,2.1-0.9c0.5-0.3,0.9-0.7,1.1-1.2c0.2-0.5,0.3-1.1,0.3-1.8c0-0.7-0.1-1.6-0.3-2.6c-0.4-2.9-0.8-5.9-1.3-8.8
				c-3.9-5.7-7.7-11.4-11.5-17.1c-1-1.5-1.7-2.5-2.3-3.2c-0.6-0.8-1.1-1.4-1.5-1.7c-0.4-0.3-0.8-0.6-1.1-0.7
				c-0.3-0.1-0.8-0.2-1.3-0.2c-0.1-0.7-0.2-1.4-0.3-2.1c5.8-0.8,11.6-1.6,17.3-2.4c0.1,0.7,0.2,1.4,0.3,2.1
				c-1.6,0.5-2.4,1.4-2.2,2.8c0.1,0.6,0.3,1.2,0.7,1.9c0.4,0.7,1,1.7,1.8,2.9c2.4,3.7,4.9,7.5,7.4,11.2c1.4-4.2,2.8-8.4,4.2-12.7
				c0.4-1.3,0.7-2.3,0.8-3.1c0.1-0.8,0.1-1.6,0-2.4c-0.1-0.8-0.4-1.3-1-1.7c-0.5-0.4-1.2-0.5-2-0.4c-0.1-0.7-0.2-1.4-0.3-2.1
				c4.3-0.7,8.7-1.4,13-2.1c0.1,0.7,0.2,1.4,0.3,2.1c-0.6,0.2-1,0.5-1.4,0.8c-0.3,0.3-0.7,0.7-1.1,1.3c-0.4,0.6-0.8,1.4-1.3,2.4
				c-0.5,1.1-1,2.4-1.6,4.1C748,700.9,745.8,707.2,743.5,713.4z"/>
		</g>
		<g>
			<path class="st0" d="M782.6,713c1,2.4,2.3,4.1,3.8,5.1c1.5,1,3.6,1.3,6.1,0.8c1.3-0.2,2.5-0.7,3.4-1.3c1-0.6,1.7-1.5,2.1-2.5
				c0.4-1.1,0.5-2.3,0.3-3.7c-0.3-1.3-0.7-2.4-1.4-3.3c-0.7-0.9-1.7-1.6-3-2.3c-1.3-0.7-3-1.3-5.2-1.9c-1.9-0.5-3.6-1.1-5.1-1.7
				c-1.5-0.6-2.9-1.4-4.1-2.3c-1.2-0.9-2.1-1.9-2.9-3.1c-0.8-1.2-1.3-2.6-1.6-4.2c-0.5-2.6-0.2-5,0.8-7c1-2.1,2.6-3.8,5-5.2
				c2.3-1.4,5.1-2.4,8.4-3.1c1.9-0.4,3.8-0.6,5.6-0.8c1.8-0.1,3.8-0.2,6.2-0.1c0.6,3.1,1.2,6.1,1.9,9.2c-1.5,0.3-3,0.6-4.5,0.9
				c-0.7-1.6-1.5-2.8-2.4-3.7c-0.8-0.9-1.8-1.4-2.8-1.7c-1-0.3-2.3-0.3-3.7,0c-1.2,0.2-2.3,0.7-3.2,1.3c-0.9,0.6-1.5,1.4-1.9,2.3
				c-0.4,0.9-0.5,2-0.3,3.2c0.2,1.2,0.7,2.2,1.3,3.1c0.7,0.8,1.6,1.5,3,2.2c1.3,0.6,3.2,1.3,5.6,2c3,0.8,5.3,1.7,7.1,2.7
				c1.8,1,3.2,2.2,4.3,3.6c1,1.4,1.8,3.1,2.2,5.1c0.5,2.6,0.4,5-0.5,7.2c-0.9,2.2-2.4,4-4.7,5.5c-2.2,1.5-4.9,2.6-8.1,3.2
				c-2.3,0.4-4.7,0.8-7.2,1c-2.5,0.2-4.9,0.3-7.1,0.2c-0.6-3.3-1.2-6.5-1.8-9.8C779.6,713.6,781.1,713.3,782.6,713z"/>
		</g>
		<g>
			<path class="st0" d="M827.7,706.8c0.2,0.7,0.3,1.4,0.5,2c0.2,0.6,0.4,1.1,0.6,1.5c0.2,0.4,0.5,0.7,0.8,0.9
				c0.3,0.2,0.7,0.4,1.2,0.5c0.5,0.1,1.1,0.2,1.7,0.2c0.2,0.7,0.3,1.4,0.5,2.1c-5.8,1.3-11.7,2.5-17.5,3.8c-0.1-0.7-0.3-1.4-0.4-2.1
				c0.8-0.4,1.4-0.7,1.8-1.1c0.4-0.3,0.7-0.8,0.9-1.2c0.1-0.5,0.2-1.1,0.1-1.7c-0.1-0.7-0.2-1.5-0.4-2.5c-1.9-9.1-3.8-18.2-5.7-27.3
				c-0.2-1-0.4-1.8-0.6-2.5c-0.2-0.6-0.4-1.2-0.8-1.5c-0.3-0.4-0.7-0.7-1.3-0.8c-0.5-0.2-1.2-0.3-2.1-0.3c-0.1-0.7-0.3-1.4-0.4-2.1
				c5.6-1.2,11.3-2.4,16.9-3.6c0.2,0.7,0.3,1.4,0.5,2.1c-0.8,0.4-1.4,0.8-1.8,1.2c-0.4,0.4-0.6,0.7-0.7,1.2c-0.1,0.4-0.2,1-0.1,1.6
				c0,0.6,0.2,1.5,0.5,2.7C823.7,688.6,825.7,697.7,827.7,706.8z"/>
		</g>
		<g>
			<path class="st0" d="M868.5,660c0.2,0.7,0.4,1.4,0.5,2.1c-0.8,0.5-1.3,0.9-1.6,1.2c-0.3,0.3-0.5,0.6-0.7,1
				c-0.2,0.4-0.2,0.9-0.2,1.6c0,0.7,0.2,1.7,0.6,3c3,11.6,6,23.3,9,34.9c-2.8,0.7-5.6,1.4-8.4,2.1c-7-6.9-13.9-13.9-20.7-20.9
				c-2.8-2.8-4.8-5.1-6.2-6.8c-0.1,0-0.2,0-0.3,0.1c1.3,4.5,2.5,9.2,3.7,14.2c0.8,3.4,1.6,6.8,2.4,10.1c0.4,1.6,0.7,2.7,1,3.3
				c0.3,0.6,0.7,1,1.2,1.3c0.5,0.3,1.4,0.4,2.7,0.4c0.2,0.7,0.3,1.4,0.5,2.1c-4.2,1-8.4,2-12.6,2.9c-0.2-0.7-0.3-1.4-0.5-2.1
				c0.8-0.4,1.4-0.8,1.8-1.1c0.4-0.4,0.7-0.8,0.8-1.3c0.1-0.5,0.2-1.1,0.1-1.7c-0.1-0.7-0.2-1.5-0.5-2.5c-2.1-9.1-4.2-18.2-6.3-27.3
				c-0.4-1.6-0.7-2.7-1-3.2c-0.3-0.6-0.7-1-1.2-1.3c-0.5-0.3-1.4-0.5-2.6-0.5c-0.2-0.7-0.3-1.4-0.5-2.1c4.3-1,8.7-2,13-3
				c5.3,5.6,10.7,11.1,16.1,16.6c1,1,2.4,2.5,4,4.2c1.7,1.8,3.2,3.5,4.5,5.1c0.2,0,0.3-0.1,0.5-0.1c-1.5-4.9-3-10.4-4.5-16.3
				c-0.5-1.9-1-3.9-1.5-5.8c-0.3-1.4-0.6-2.3-0.9-2.9c-0.3-0.6-0.5-1-0.8-1.3c-0.3-0.3-0.7-0.4-1.1-0.6c-0.4-0.1-1.1-0.2-2.1-0.2
				c-0.2-0.7-0.3-1.4-0.5-2.1C860.4,662.1,864.5,661,868.5,660z"/>
		</g>
		<g>
			<path class="st0" d="M906.1,650.7c0.9,3,1.8,6,2.6,9c-1.5,0.4-2.9,0.8-4.4,1.3c-1.2-2.2-2.5-3.7-3.9-4.5c-1.4-0.8-3-0.9-4.8-0.4
				c-3.4,0.9-5.5,3.2-6.3,6.9c-0.9,3.6-0.5,8.5,1.2,14.7c1.6,5.8,3.6,9.9,6,12.4c2.4,2.5,5.2,3.3,8.4,2.5c1.6-0.4,2.8-1.1,3.7-1.9
				c0.9-0.8,1.4-1.8,1.8-3c0.3-1.2,0.4-2.8,0.3-4.7c1.5-0.4,3-0.9,4.5-1.3c0.9,3.1,1.8,6.3,2.7,9.4c-2.3,1.2-4.3,2.3-6.3,3.1
				c-1.9,0.8-4,1.5-6.1,2.1c-4.6,1.3-8.5,1.5-11.8,0.8c-3.3-0.8-6.1-2.6-8.3-5.4c-2.2-2.8-3.9-6.6-5.2-11.5
				c-1.2-4.5-1.4-8.7-0.8-12.4c0.7-3.8,2.3-7,4.9-9.6c2.6-2.6,5.9-4.5,10.2-5.7c2.1-0.6,4.1-1,5.9-1.3
				C902.2,650.8,904.1,650.7,906.1,650.7z"/>
		</g>
		<g>
			<path class="st0" d="M943,638.3c1.1,3.3,2.1,6.5,3.2,9.8c-1.5,0.5-2.9,0.9-4.4,1.4c-1.3-1.7-2.3-2.9-3-3.4
				c-0.7-0.5-1.5-0.9-2.3-1.1c-0.8-0.2-2,0-3.6,0.5c-2.3,0.7-4.6,1.4-6.9,2.2c1.5,4.9,3.1,9.9,4.6,14.8c1.4-0.4,2.8-0.9,4.2-1.3
				c0.9-0.3,1.6-0.7,2.1-1.1c0.5-0.4,0.8-1,0.9-1.7c0.2-0.7,0.2-1.7,0.1-3.1c1.2-0.4,2.4-0.8,3.6-1.1c1.3,4.2,2.7,8.3,4,12.5
				c-1.2,0.4-2.4,0.8-3.6,1.2c-0.7-1.1-1.3-1.9-1.9-2.4c-0.6-0.5-1.1-0.8-1.7-0.9c-0.6-0.1-1.4,0-2.4,0.3c-1.4,0.4-2.8,0.9-4.3,1.3
				c1.7,5.5,3.4,11,5.1,16.5c2.4-0.7,4.7-1.5,7.1-2.2c0.8-0.2,1.4-0.5,1.9-0.7c0.5-0.3,0.9-0.6,1.3-0.9c0.3-0.4,0.6-0.8,0.9-1.3
				c0.3-0.5,0.5-1,0.6-1.6c0.1-0.5,0.3-1.2,0.4-2.1c0.1-0.8,0.1-2,0.1-3.4c1.5-0.5,3-1,4.4-1.4c1,3.8,2,7.6,3,11.4
				c-10.7,3.5-21.4,6.8-32.2,10c-0.2-0.7-0.4-1.4-0.6-2c0.7-0.4,1.3-0.9,1.7-1.2c0.4-0.4,0.6-0.8,0.8-1.3c0.1-0.5,0.1-1.1,0-1.7
				c-0.1-0.7-0.3-1.5-0.6-2.5c-2.7-8.9-5.3-17.8-8-26.7c-0.3-1-0.6-1.8-0.8-2.4c-0.3-0.6-0.6-1.1-0.9-1.5c-0.3-0.3-0.8-0.6-1.3-0.7
				c-0.5-0.1-1.2-0.2-2.1-0.1c-0.2-0.7-0.4-1.4-0.6-2C922.1,644.9,932.6,641.6,943,638.3z"/>
		</g>
	</g>
	<g>
		<g>
			<path class="st0" d="M475.5,806.7c0,1.6,0.1,2.9,0.3,3.7c0.2,0.8,0.5,1.5,1,2c0.5,0.5,1.1,0.9,2,1.2c0.9,0.3,2,0.5,3.3,0.7
				c1.3,0.2,3.1,0.3,5.2,0.3v3.8h-36.3v-3.8c3.1-0.1,5.3-0.3,6.7-0.6c1.3-0.2,2.3-0.6,3.1-1.1c0.7-0.5,1.2-1.2,1.5-2
				c0.3-0.9,0.5-2.3,0.5-4.2v-30.4c0-1.2-0.2-2-0.7-2.5c-0.4-0.5-1-0.8-1.8-0.8c-0.7,0-1.7,0.3-3,1c-1.3,0.6-3.4,2-6.3,4l-2.6-4.5
				l22-13.2h5.4c-0.2,2.7-0.3,6.4-0.3,11.2V806.7z"/>
		</g>
		<g>
			<path class="st0" d="M539.5,763.7l-23.4,54.8h-8.6v-2.9l21.1-42.8v-0.6h-18.7c-1.2,0-2.2,0.1-3,0.3s-1.4,0.5-1.9,0.9
				c-0.5,0.4-0.9,1-1.2,1.7c-0.3,0.7-0.6,1.8-0.9,3.3h-4.9l1.1-17.5h40.3V763.7z"/>
		</g>
		<g>
			<path class="st0" d="M568.8,819.1c-4.4,0-8-1-11-2.9s-5.2-5-6.8-9.3c-1.6-4.3-2.4-9.8-2.4-16.7c0-6.4,0.8-11.9,2.4-16.3
				c1.6-4.4,4-7.8,7.2-10.1c3.2-2.3,6.9-3.5,11.4-3.5c6.9,0,12,2.3,15.4,7c3.4,4.7,5.1,11.9,5.1,21.6c0,9.9-1.8,17.4-5.4,22.5
				C581.1,816.5,575.8,819.1,568.8,819.1z M561.4,789c0,6.2,0.3,11.1,0.8,14.7s1.4,6.3,2.6,8.1c1.2,1.7,2.7,2.6,4.7,2.6
				c1.1,0,2-0.3,2.8-0.8c0.8-0.5,1.5-1.3,2.1-2.4c0.6-1.1,1.2-2.6,1.6-4.4c0.4-1.8,0.8-4.1,1-6.9c0.2-2.7,0.3-5.8,0.3-9.2
				c0-5-0.2-9.2-0.6-12.7c-0.4-3.4-0.9-6.1-1.6-7.9c-0.7-1.9-1.5-3.2-2.5-4c-1-0.8-2.1-1.2-3.3-1.2c-1.5,0-2.7,0.5-3.8,1.5
				c-1,1-1.8,2.5-2.5,4.5c-0.6,2-1.1,4.5-1.3,7.5S561.4,784.9,561.4,789z"/>
		</g>
		<g>
			<path class="st0" d="M628.6,806.7c0,1.6,0.1,2.9,0.3,3.7c0.2,0.8,0.5,1.5,1,2c0.5,0.5,1.1,0.9,2,1.2c0.9,0.3,2,0.5,3.3,0.7
				c1.3,0.2,3.1,0.3,5.2,0.3v3.8H604v-3.8c3.1-0.1,5.3-0.3,6.7-0.6c1.3-0.2,2.3-0.6,3.1-1.1c0.7-0.5,1.2-1.2,1.5-2
				c0.3-0.9,0.5-2.3,0.5-4.2v-30.4c0-1.2-0.2-2-0.7-2.5c-0.4-0.5-1-0.8-1.8-0.8c-0.7,0-1.7,0.3-3,1c-1.3,0.6-3.4,2-6.3,4l-2.6-4.5
				l22-13.2h5.4c-0.2,2.7-0.3,6.4-0.3,11.2V806.7z"/>
		</g>
	</g>
	<g>
		<g>
			<rect x="664.2" y="801.7" class="st0" width="318.2" height="5"/>
		</g>
		<g>
			<rect x="733.6" y="766.8" class="st0" width="248.8" height="5"/>
		</g>
	</g>
	<g>
		<g>
			<rect x="105.2" y="801.7" class="st0" width="318.2" height="5"/>
		</g>
		<g>
			<rect x="105.2" y="766.8" class="st0" width="248.8" height="5"/>
		</g>
	</g>
	<g>
		<g>
			<path class="st0" d="M989,720.6l-8.8-2.4l8.2-4.7c0.5-0.3,0.8-1,0.6-1.6c-0.3-0.7-1.1-1-1.8-0.6L979,716l2.4-8.9
				c0.2-0.7-0.2-1.3-0.9-1.5c-0.6-0.2-1.3,0.2-1.5,0.9l-3,11.3l-5.1,2.9c0,0,0,0-0.1,0l-1-3.5c0,0,0,0,0,0l-4.8,0.3c0,0,0,0,0,0V712
				l8.3-8.3c0.5-0.5,0.5-1.3,0-1.7s-1.3-0.5-1.7,0l-6.5,6.5v-10.3c0-0.6-0.4-1.2-1.1-1.3c-0.8-0.1-1.4,0.5-1.4,1.2v10.5l-6.5-6.4
				c-0.5-0.5-1.3-0.5-1.7,0c-0.5,0.5-0.5,1.3,0,1.7l8.3,8.1v5.1c0,0,0,0,0,0l-4.8-1.2c0,0,0,0,0,0l-0.5,5c0,0,0,0-0.1,0l-5.6-3.3
				l-2.9-11.2c-0.2-0.7-0.8-1.1-1.5-0.9c-0.7,0.2-1.1,0.8-0.9,1.5l2.3,8.9l-8.3-4.8c-0.6-0.4-1.5-0.1-1.8,0.6
				c-0.2,0.6,0.1,1.3,0.6,1.6l8.1,4.7l-8.9,2.4c-0.7,0.2-1,0.9-0.9,1.5c0.1,0.6,0.6,0.9,1.2,0.9c0.1,0,0.2,0,0.3,0l11.3-3l5.3,3.1
				c0,0,0,0,0,0.1l-4.3,3.2c0,0,0,0,0,0.1l3.7,3.7c0,0,0,0,0,0.1l-4.1,2.4l-11.3-3c-0.7-0.2-1.3,0.2-1.5,0.9
				c-0.2,0.7,0.2,1.3,0.9,1.5l8.9,2.4l-8.9,5.2c-0.5,0.3-0.8,0.9-0.6,1.5c0.2,0.6,0.7,0.9,1.2,0.9c0.2,0,0.4-0.1,0.6-0.2l9.1-5.2
				l-2.3,8.9c-0.2,0.7,0.2,1.3,0.9,1.5c0.1,0,0.2,0,0.3,0c0.5,0,1-0.4,1.2-0.9l2.9-11.2l4.2-2.4c0,0,0,0,0.1,0l1.1,4.2c0,0,0,0,0,0
				l5.1-0.8c0,0,0,0,0,0v5.6l-8.3,8.1c-0.5,0.5-0.5,1.3,0,1.7s1.3,0.5,1.7,0l6.5-6.4v9.4c0,0.6,0.4,1.2,1.1,1.3
				c0.8,0.1,1.4-0.5,1.4-1.2v-9.5l6.5,6.5c0.2,0.2,0.6,0.4,0.9,0.4c0.3,0,0.6-0.1,0.9-0.4c0.5-0.5,0.5-1.3,0-1.7l-8.3-8.3v-5.6
				c0,0,0,0,0,0l4.1,0.9c0,0,0,0,0,0l1.7-4.6c0,0,0,0,0,0l4.5,2.6c0,0,0,0,0,0l3,11.3c0.1,0.6,0.6,0.9,1.2,0.9c0.1,0,0.3,0,0.4-0.1
				c0.6-0.2,1-0.9,0.8-1.6l-2.3-8.8c0,0,0-0.1,0.1,0l9,5.2c0.2,0.1,0.4,0.2,0.6,0.2c0.5,0,1-0.3,1.2-0.9c0.2-0.6-0.1-1.2-0.6-1.5
				l-8.9-5.1c0,0,0-0.1,0-0.1l8.7-2.4c0.7-0.2,1-0.9,0.9-1.5c-0.2-0.7-0.8-1-1.5-0.9l-11.1,3.1c0,0,0,0,0,0l-4.4-2.6c0,0,0,0,0-0.1
				l3.7-3.3c0,0,0,0,0,0l-3.6-3.6c0,0,0,0,0-0.1l4.9-2.8l11.1,3.1c0.1,0,0.2,0,0.3,0c0.5,0,1-0.4,1.2-0.9
				C990,721.4,989.7,720.8,989,720.6z M965,719.5l3.3-0.2c0,0,0,0,0,0l0.7,2.5c0,0,0,0,0,0l-4,2.3c0,0-0.1,0-0.1,0L965,719.5
				C964.9,719.5,965,719.5,965,719.5z M959.1,721.9l0.3-3.4c0,0,0,0,0,0l3,0.8c0,0,0,0,0,0v4.8c0,0,0,0-0.1,0l-3.4-2L959.1,721.9z
				 M956.7,728.8C956.7,728.9,956.7,728.8,956.7,728.8l-2.4-2.4c0,0,0,0,0-0.1l3.1-2.3c0,0,0,0,0,0l3.7,2.1c0,0,0,0,0,0.1
				L956.7,728.8z M962.4,733.4l-3.6,0.5c0,0,0,0,0,0l-0.8-2.9c0,0,0,0,0,0l4.3-2.5c0,0,0.1,0,0.1,0L962.4,733.4
				C962.5,733.3,962.5,733.4,962.4,733.4z M967.8,734C967.8,734,967.8,734,967.8,734l-2.9-0.6c0,0,0,0,0,0v-4.9c0,0,0,0,0.1,0l4,2.3
				c0,0,0,0,0,0L967.8,734z M972.9,726.2C972.9,726.3,972.9,726.3,972.9,726.2l-2.6,2.4c0,0,0,0,0,0l-4.1-2.3c0,0,0,0,0-0.1l4.2-2.4
				c0,0,0,0,0,0L972.9,726.2z"/>
		</g>
		<g>
			<path class="st0" d="M898.6,733.4l-5.6-1.5l5.1-3c0.3-0.2,0.5-0.6,0.4-1c-0.2-0.4-0.7-0.6-1.1-0.4l-5.2,3l1.5-5.6
				c0.1-0.4-0.1-0.8-0.6-1c-0.4-0.1-0.8,0.1-1,0.5l-1.9,7.1l-3.2,1.9c0,0,0,0,0,0l-0.6-2.2c0,0,0,0,0,0l-3,0.2c0,0,0,0,0,0V728
				l5.2-5.2c0.3-0.3,0.3-0.8,0-1.1c-0.3-0.3-0.8-0.3-1.1,0l-4.1,4.1v-6.5c0-0.4-0.3-0.8-0.7-0.8c-0.5-0.1-0.9,0.3-0.9,0.8v6.6
				l-4.1-4c-0.3-0.3-0.8-0.3-1.1,0c-0.3,0.3-0.3,0.8,0,1.1l5.2,5.1v3.2c0,0,0,0,0,0l-3-0.8c0,0,0,0,0,0l-0.3,3.2c0,0,0,0,0,0l-3.5-2
				l-1.8-7.1c-0.1-0.4-0.5-0.7-0.9-0.6c-0.4,0.1-0.7,0.5-0.6,0.9l1.4,5.6l-5.2-3c-0.4-0.2-0.9-0.1-1.1,0.4c-0.2,0.4,0,0.8,0.4,1
				l5.1,3l-5.6,1.5c-0.4,0.1-0.7,0.5-0.5,1c0.1,0.3,0.4,0.6,0.8,0.6c0.1,0,0.1,0,0.2,0l7.1-1.9l3.3,1.9c0,0,0,0,0,0l-2.7,2
				c0,0,0,0,0,0l2.3,2.3c0,0,0,0,0,0l-2.6,1.5l-7.1-1.9c-0.4-0.1-0.8,0.1-1,0.5c-0.1,0.4,0.1,0.8,0.5,1l5.6,1.5l-5.6,3.3
				c-0.3,0.2-0.5,0.6-0.4,0.9c0.1,0.4,0.4,0.6,0.7,0.6c0.1,0,0.3,0,0.4-0.1l5.7-3.3l-1.4,5.6c-0.1,0.4,0.1,0.8,0.6,0.9
				c0.1,0,0.1,0,0.2,0c0.3,0,0.7-0.2,0.8-0.6l1.8-7.1l2.7-1.5c0,0,0,0,0,0l0.7,2.6c0,0,0,0,0,0l3.2-0.5c0,0,0,0,0,0v3.6l-5.2,5.1
				c-0.3,0.3-0.3,0.8,0,1.1c0.3,0.3,0.8,0.3,1.1,0l4.1-4v5.9c0,0.4,0.3,0.8,0.7,0.8c0.5,0.1,0.9-0.3,0.9-0.8v-6l4.1,4.1
				c0.2,0.2,0.4,0.2,0.5,0.2s0.4-0.1,0.5-0.2c0.3-0.3,0.3-0.8,0-1.1l-5.2-5.2v-3.5c0,0,0,0,0,0l2.6,0.6c0,0,0,0,0,0l1.1-2.9
				c0,0,0,0,0,0l2.9,1.7c0,0,0,0,0,0l1.9,7.1c0.1,0.3,0.4,0.6,0.8,0.6c0.1,0,0.2,0,0.2,0c0.4-0.1,0.6-0.6,0.5-1l-1.5-5.5
				c0,0,0,0,0,0l5.6,3.3c0.1,0.1,0.3,0.1,0.4,0.1c0.3,0,0.6-0.2,0.7-0.6c0.1-0.4-0.1-0.7-0.4-0.9l-5.6-3.2c0,0,0,0,0,0l5.5-1.5
				c0.4-0.1,0.7-0.5,0.5-1c-0.1-0.4-0.5-0.7-1-0.5l-7,1.9c0,0,0,0,0,0l-2.8-1.6c0,0,0,0,0,0l2.3-2.1c0,0,0,0,0,0l-2.3-2.3
				c0,0,0,0,0,0l3.1-1.8l7,1.9c0.1,0,0.1,0,0.2,0c0.3,0,0.7-0.2,0.7-0.6C899.3,734,899,733.6,898.6,733.4z M883.5,732.7l2.1-0.1
				c0,0,0,0,0,0l0.4,1.5c0,0,0,0,0,0l-2.5,1.5c0,0,0,0,0,0L883.5,732.7C883.5,732.8,883.5,732.7,883.5,732.7z M879.8,734.3l0.2-2.1
				c0,0,0,0,0,0l1.9,0.5c0,0,0,0,0,0v3c0,0,0,0,0,0l-2.2-1.3L879.8,734.3z M878.3,738.6C878.3,738.7,878.3,738.7,878.3,738.6
				l-1.5-1.5c0,0,0,0,0,0l2-1.5c0,0,0,0,0,0l2.3,1.3c0,0,0,0,0,0L878.3,738.6z M881.9,741.5l-2.2,0.3c0,0,0,0,0,0l-0.5-1.8
				c0,0,0,0,0,0l2.7-1.6c0,0,0,0,0,0L881.9,741.5C881.9,741.5,881.9,741.5,881.9,741.5z M885.3,741.9
				C885.3,741.9,885.3,741.9,885.3,741.9l-1.8-0.4c0,0,0,0,0,0v-3.1c0,0,0,0,0,0l2.5,1.5c0,0,0,0,0,0L885.3,741.9z M888.5,737
				C888.5,737,888.5,737,888.5,737l-1.6,1.5c0,0,0,0,0,0l-2.6-1.5c0,0,0,0,0,0l2.6-1.5c0,0,0,0,0,0L888.5,737z"/>
		</g>
	</g>
	<g>
		<g>
			<path class="st0" d="M105.5,722.1c0.2,0.5,0.6,0.9,1.2,0.9c0.1,0,0.2,0,0.3,0l11.1-3.1l4.9,2.8c0,0,0,0,0,0.1l-3.6,3.6
				c0,0,0,0,0,0l3.7,3.3c0,0,0,0,0,0.1l-4.4,2.6c0,0,0,0,0,0l-11.1-3.1c-0.7-0.2-1.3,0.2-1.5,0.9c-0.2,0.7,0.2,1.3,0.9,1.5l8.7,2.4
				c0,0,0,0,0,0.1l-8.9,5.1c-0.5,0.3-0.8,0.9-0.6,1.5c0.2,0.6,0.7,0.9,1.2,0.9c0.2,0,0.4-0.1,0.6-0.2l9-5.2c0,0,0.1,0,0.1,0
				l-2.3,8.8c-0.2,0.6,0.2,1.4,0.8,1.6c0.1,0,0.3,0.1,0.4,0.1c0.5,0,1-0.4,1.2-0.9l3-11.3c0,0,0,0,0,0l4.5-2.6c0,0,0,0,0,0l1.7,4.6
				c0,0,0,0,0,0l4.1-0.9c0,0,0,0,0,0v5.6l-8.3,8.3c-0.5,0.5-0.5,1.3,0,1.7c0.2,0.2,0.6,0.4,0.9,0.4c0.3,0,0.6-0.1,0.9-0.4l6.5-6.5
				v9.5c0,0.7,0.7,1.3,1.4,1.2c0.6-0.1,1.1-0.7,1.1-1.3v-9.4l6.5,6.4c0.5,0.5,1.3,0.5,1.7,0s0.5-1.3,0-1.7l-8.3-8.1v-5.6
				c0,0,0,0,0,0l5.1,0.8c0,0,0,0,0,0l1.1-4.2c0,0,0,0,0.1,0l4.2,2.4l2.9,11.2c0.1,0.6,0.6,0.9,1.2,0.9c0.1,0,0.2,0,0.3,0
				c0.7-0.2,1.1-0.8,0.9-1.5l-2.3-8.9l9.1,5.2c0.2,0.1,0.4,0.2,0.6,0.2c0.5,0,1-0.3,1.2-0.9c0.2-0.6-0.1-1.2-0.6-1.5l-8.9-5.2
				l8.9-2.4c0.7-0.2,1-0.9,0.9-1.5c-0.2-0.7-0.8-1-1.5-0.9l-11.3,3l-4.1-2.4c0,0,0,0,0-0.1l3.7-3.7c0,0,0,0,0-0.1l-4.3-3.2
				c0,0,0,0,0-0.1l5.3-3.1l11.3,3c0.1,0,0.2,0,0.3,0c0.5,0,1-0.4,1.2-0.9c0.2-0.7-0.2-1.3-0.9-1.5l-8.9-2.4l8.1-4.7
				c0.5-0.3,0.9-1,0.6-1.6c-0.3-0.7-1.1-1-1.8-0.6l-8.3,4.8l2.3-8.9c0.2-0.7-0.2-1.3-0.9-1.5c-0.7-0.2-1.3,0.2-1.5,0.9l-2.9,11.2
				l-5.6,3.3c0,0,0,0-0.1,0l-0.5-5c0,0,0,0,0,0l-4.8,1.2c0,0,0,0,0,0V712l8.3-8.1c0.5-0.5,0.5-1.3,0-1.7c-0.5-0.5-1.3-0.5-1.7,0
				l-6.5,6.4v-10.5c0-0.7-0.7-1.3-1.4-1.2c-0.6,0.1-1.1,0.7-1.1,1.3v10.3l-6.5-6.5c-0.5-0.5-1.3-0.5-1.7,0c-0.5,0.5-0.5,1.3,0,1.7
				l8.3,8.3v5.4c0,0,0,0,0,0l-4.8-0.3c0,0,0,0,0,0l-1,3.5c0,0,0,0-0.1,0l-5.1-2.9l-3-11.3c-0.2-0.7-0.9-1-1.5-0.9
				c-0.7,0.2-1,0.9-0.9,1.5l2.4,8.9l-8.2-4.7c-0.6-0.4-1.5-0.1-1.8,0.6c-0.2,0.6,0.1,1.3,0.6,1.6l8.2,4.7l-8.8,2.4
				C105.7,720.8,105.3,721.4,105.5,722.1z M130.4,719.5v4.5c0,0,0,0-0.1,0l-4-2.3c0,0,0,0,0,0l0.7-2.5c0,0,0,0,0,0L130.4,719.5
				C130.4,719.5,130.4,719.5,130.4,719.5z M136.4,722.1l-3.4,2c0,0-0.1,0-0.1,0v-4.8c0,0,0,0,0,0l3-0.8c0,0,0,0,0,0l0.3,3.4
				L136.4,722.1z M134.2,726.3C134.2,726.3,134.2,726.2,134.2,726.3l3.7-2.2c0,0,0,0,0,0l3.1,2.3c0,0,0,0,0,0.1l-2.4,2.4
				c0,0,0,0,0,0L134.2,726.3z M132.9,733.3v-4.9c0,0,0,0,0.1,0l4.3,2.5c0,0,0,0,0,0l-0.8,2.9c0,0,0,0,0,0L132.9,733.3
				C132.9,733.4,132.9,733.3,132.9,733.3z M126.3,730.8C126.3,730.8,126.3,730.7,126.3,730.8l4.1-2.4c0,0,0.1,0,0.1,0v4.9
				c0,0,0,0,0,0l-2.8,0.6c0,0,0,0,0,0L126.3,730.8z M124.9,723.8C124.9,723.8,124.9,723.8,124.9,723.8l4.2,2.4c0,0,0,0,0,0.1
				l-4.1,2.3c0,0,0,0,0,0l-2.6-2.3c0,0,0,0,0,0L124.9,723.8z"/>
		</g>
		<g>
			<path class="st0" d="M196.2,734.4c0.1,0.3,0.4,0.6,0.7,0.6c0.1,0,0.1,0,0.2,0l7-1.9l3.1,1.8c0,0,0,0,0,0l-2.3,2.3c0,0,0,0,0,0
				l2.3,2.1c0,0,0,0,0,0l-2.8,1.6c0,0,0,0,0,0l-7-1.9c-0.4-0.1-0.8,0.1-1,0.5c-0.1,0.4,0.1,0.8,0.5,1l5.5,1.5c0,0,0,0,0,0l-5.6,3.2
				c-0.3,0.2-0.5,0.6-0.4,0.9c0.1,0.4,0.4,0.6,0.7,0.6c0.1,0,0.3,0,0.4-0.1l5.6-3.3c0,0,0,0,0,0l-1.5,5.5c-0.1,0.4,0.1,0.9,0.5,1
				c0.1,0,0.2,0,0.2,0c0.3,0,0.7-0.2,0.8-0.6l1.9-7.1c0,0,0,0,0,0l2.9-1.7c0,0,0,0,0,0l1.1,2.9c0,0,0,0,0,0l2.6-0.6c0,0,0,0,0,0v3.5
				l-5.2,5.2c-0.3,0.3-0.3,0.8,0,1.1c0.2,0.2,0.4,0.2,0.5,0.2s0.4-0.1,0.5-0.2l4.1-4.1v6c0,0.5,0.4,0.8,0.9,0.8
				c0.4-0.1,0.7-0.4,0.7-0.8v-5.9l4.1,4c0.3,0.3,0.8,0.3,1.1,0c0.3-0.3,0.3-0.8,0-1.1l-5.2-5.1v-3.6c0,0,0,0,0,0l3.2,0.5
				c0,0,0,0,0,0l0.7-2.6c0,0,0,0,0,0l2.7,1.5l1.8,7.1c0.1,0.4,0.4,0.6,0.8,0.6c0.1,0,0.1,0,0.2,0c0.4-0.1,0.7-0.5,0.6-0.9l-1.4-5.6
				l5.7,3.3c0.1,0.1,0.3,0.1,0.4,0.1c0.3,0,0.6-0.2,0.7-0.6c0.1-0.4-0.1-0.7-0.4-0.9l-5.6-3.3l5.6-1.5c0.4-0.1,0.7-0.5,0.5-1
				c-0.1-0.4-0.5-0.7-1-0.5l-7.1,1.9l-2.6-1.5c0,0,0,0,0,0l2.3-2.3c0,0,0,0,0,0l-2.7-2c0,0,0,0,0,0l3.3-1.9l7.1,1.9
				c0.1,0,0.1,0,0.2,0c0.3,0,0.7-0.2,0.8-0.6c0.1-0.4-0.1-0.8-0.5-1l-5.6-1.5l5.1-3c0.3-0.2,0.5-0.6,0.4-1c-0.2-0.4-0.7-0.6-1.1-0.4
				l-5.2,3l1.4-5.6c0.1-0.4-0.1-0.8-0.6-0.9c-0.4-0.1-0.8,0.1-0.9,0.6l-1.8,7.1l-3.5,2c0,0,0,0,0,0l-0.3-3.2c0,0,0,0,0,0l-3,0.8
				c0,0,0,0,0,0V728l5.2-5.1c0.3-0.3,0.3-0.8,0-1.1c-0.3-0.3-0.8-0.3-1.1,0l-4.1,4v-6.6c0-0.5-0.4-0.8-0.9-0.8
				c-0.4,0.1-0.7,0.4-0.7,0.8v6.5l-4.1-4.1c-0.3-0.3-0.8-0.3-1.1,0c-0.3,0.3-0.3,0.8,0,1.1l5.2,5.2v3.4c0,0,0,0,0,0l-3-0.2
				c0,0,0,0,0,0l-0.6,2.2c0,0,0,0,0,0l-3.2-1.9l-1.9-7.1c-0.1-0.4-0.5-0.7-1-0.5c-0.4,0.1-0.7,0.5-0.6,1l1.5,5.6l-5.2-3
				c-0.4-0.2-0.9-0.1-1.1,0.4c-0.2,0.4,0,0.8,0.4,1l5.1,3l-5.6,1.5C196.3,733.6,196.1,734,196.2,734.4z M211.9,732.8v2.9
				c0,0,0,0,0,0l-2.5-1.5c0,0,0,0,0,0l0.4-1.5c0,0,0,0,0,0L211.9,732.8C211.9,732.7,211.9,732.8,211.9,732.8z M215.7,734.4l-2.2,1.3
				c0,0,0,0,0,0v-3c0,0,0,0,0,0l1.9-0.5c0,0,0,0,0,0l0.2,2.1L215.7,734.4z M214.3,737C214.3,737,214.3,737,214.3,737l2.3-1.4
				c0,0,0,0,0,0l2,1.5c0,0,0,0,0,0l-1.5,1.5c0,0,0,0,0,0L214.3,737z M213.5,741.5v-3.1c0,0,0,0,0,0l2.7,1.6c0,0,0,0,0,0l-0.5,1.8
				c0,0,0,0,0,0L213.5,741.5C213.5,741.5,213.5,741.5,213.5,741.5z M209.3,739.9C209.3,739.9,209.3,739.8,209.3,739.9l2.6-1.5
				c0,0,0,0,0,0v3.1c0,0,0,0,0,0l-1.8,0.4c0,0,0,0,0,0L209.3,739.9z M208.4,735.5C208.4,735.5,208.5,735.5,208.4,735.5l2.7,1.5
				c0,0,0,0,0,0l-2.6,1.5c0,0,0,0,0,0l-1.6-1.5c0,0,0,0,0,0L208.4,735.5z"/>
		</g>
	</g>
</g>
</svg>
