  0
SECTION
  2
HEADER
  9
$ACADVER
  1
AC1024
  9
$ACADMAINTVER
 70
     6
  9
$DWGCODEPAGE
  3
ANSI_1252
  9
$INSBASE
 10
0.0
 20
0.0
 30
0.0
  9
$EXTMIN
 10
1.000000000000000E+20
 20
1.000000000000000E+20
 30
1.000000000000000E+20
  9
$EXTMAX
 10
-1.000000000000000E+20
 20
-1.000000000000000E+20
 30
-1.000000000000000E+20
  9
$LIMMIN
 10
0.0
 20
0.0
  9
$LIMMAX
 10
12.0
 20
9.0
  9
$ORTHOMODE
 70
     0
  9
$REGENMODE
 70
     1
  9
$FILLMODE
 70
     1
  9
$QTEXTMODE
 70
     0
  9
$MIRRTEXT
 70
     1
  9
$LTSCALE
 40
1.0
  9
$ATTMODE
 70
     1
  9
$TEXTSIZE
 40
0.2
  9
$TRACEWID
 40
0.05
  9
$TEXTSTYLE
  7
Standard
  9
$CLAYER
  8
0
  9
$CELTYPE
  6
ByLayer
  9
$CECOLOR
 62
   256
  9
$CELTSCALE
 40
1.0
  9
$DISPSILH
 70
     0
  9
$DIMSCALE
 40
1.0
  9
$DIMASZ
 40
0.18
  9
$DIMEXO
 40
0.0625
  9
$DIMDLI
 40
0.38
  9
$DIMRND
 40
0.0
  9
$DIMDLE
 40
0.0
  9
$DIMEXE
 40
0.18
  9
$DIMTP
 40
0.0
  9
$DIMTM
 40
0.0
  9
$DIMTXT
 40
0.18
  9
$DIMCEN
 40
0.09
  9
$DIMTSZ
 40
0.0
  9
$DIMTOL
 70
     0
  9
$DIMLIM
 70
     0
  9
$DIMTIH
 70
     1
  9
$DIMTOH
 70
     1
  9
$DIMSE1
 70
     0
  9
$DIMSE2
 70
     0
  9
$DIMTAD
 70
     0
  9
$DIMZIN
 70
     0
  9
$DIMBLK
  1

  9
$DIMASO
 70
     1
  9
$DIMSHO
 70
     1
  9
$DIMPOST
  1

  9
$DIMAPOST
  1

  9
$DIMALT
 70
     0
  9
$DIMALTD
 70
     2
  9
$DIMALTF
 40
25.4
  9
$DIMLFAC
 40
1.0
  9
$DIMTOFL
 70
     0
  9
$DIMTVP
 40
0.0
  9
$DIMTIX
 70
     0
  9
$DIMSOXD
 70
     0
  9
$DIMSAH
 70
     0
  9
$DIMBLK1
  1

  9
$DIMBLK2
  1

  9
$DIMSTYLE
  2
Standard
  9
$DIMCLRD
 70
     0
  9
$DIMCLRE
 70
     0
  9
$DIMCLRT
 70
     0
  9
$DIMTFAC
 40
1.0
  9
$DIMGAP
 40
0.09
  9
$DIMJUST
 70
     0
  9
$DIMSD1
 70
     0
  9
$DIMSD2
 70
     0
  9
$DIMTOLJ
 70
     1
  9
$DIMTZIN
 70
     0
  9
$DIMALTZ
 70
     0
  9
$DIMALTTZ
 70
     0
  9
$DIMUPT
 70
     0
  9
$DIMDEC
 70
     4
  9
$DIMTDEC
 70
     4
  9
$DIMALTU
 70
     2
  9
$DIMALTTD
 70
     2
  9
$DIMTXSTY
  7
Standard
  9
$DIMAUNIT
 70
     0
  9
$DIMADEC
 70
     0
  9
$DIMALTRND
 40
0.0
  9
$DIMAZIN
 70
     0
  9
$DIMDSEP
 70
    46
  9
$DIMATFIT
 70
     3
  9
$DIMFRAC
 70
     0
  9
$DIMLDRBLK
  1

  9
$DIMLUNIT
 70
     2
  9
$DIMLWD
 70
    -2
  9
$DIMLWE
 70
    -2
  9
$DIMTMOVE
 70
     0
  9
$DIMFXL
 40
1.0
  9
$DIMFXLON
 70
     0
  9
$DIMJOGANG
 40
0.7853981633974483
  9
$DIMTFILL
 70
     0
  9
$DIMTFILLCLR
 70
     0
  9
$DIMARCSYM
 70
     0
  9
$DIMLTYPE
  6

  9
$DIMLTEX1
  6

  9
$DIMLTEX2
  6

  9
$DIMTXTDIRECTION
 70
     0
  9
$LUNITS
 70
     2
  9
$LUPREC
 70
     4
  9
$SKETCHINC
 40
0.1
  9
$FILLETRAD
 40
0.5
  9
$AUNITS
 70
     0
  9
$AUPREC
 70
     0
  9
$MENU
  1
.
  9
$ELEVATION
 40
0.0
  9
$PELEVATION
 40
0.0
  9
$THICKNESS
 40
0.0
  9
$LIMCHECK
 70
     0
  9
$CHAMFERA
 40
0.5
  9
$CHAMFERB
 40
0.5
  9
$CHAMFERC
 40
1.0
  9
$CHAMFERD
 40
0.0
  9
$SKPOLY
 70
     0
  9
$TDCREATE
 40
2459566.988342014
  9
$TDUCREATE
 40
2459566.738342014
  9
$TDUPDATE
 40
2459566.988342049
  9
$TDUUPDATE
 40
2459566.738342049
  9
$TDINDWG
 40
0.0000000116
  9
$TDUSRTIMER
 40
0.0000000116
  9
$USRTIMER
 70
     1
  9
$ANGBASE
 50
0.0
  9
$ANGDIR
 70
     0
  9
$PDMODE
 70
     0
  9
$PDSIZE
 40
0.0
  9
$PLINEWID
 40
0.0
  9
$SPLFRAME
 70
     0
  9
$SPLINETYPE
 70
     6
  9
$SPLINESEGS
 70
     8
  9
$HANDSEED
  5
FD
  9
$SURFTAB1
 70
     6
  9
$SURFTAB2
 70
     6
  9
$SURFTYPE
 70
     6
  9
$SURFU
 70
     6
  9
$SURFV
 70
     6
  9
$UCSBASE
  2

  9
$UCSNAME
  2

  9
$UCSORG
 10
0.0
 20
0.0
 30
0.0
  9
$UCSXDIR
 10
1.0
 20
0.0
 30
0.0
  9
$UCSYDIR
 10
0.0
 20
1.0
 30
0.0
  9
$UCSORTHOREF
  2

  9
$UCSORTHOVIEW
 70
     0
  9
$UCSORGTOP
 10
0.0
 20
0.0
 30
0.0
  9
$UCSORGBOTTOM
 10
0.0
 20
0.0
 30
0.0
  9
$UCSORGLEFT
 10
0.0
 20
0.0
 30
0.0
  9
$UCSORGRIGHT
 10
0.0
 20
0.0
 30
0.0
  9
$UCSORGFRONT
 10
0.0
 20
0.0
 30
0.0
  9
$UCSORGBACK
 10
0.0
 20
0.0
 30
0.0
  9
$PUCSBASE
  2

  9
$PUCSNAME
  2

  9
$PUCSORG
 10
0.0
 20
0.0
 30
0.0
  9
$PUCSXDIR
 10
1.0
 20
0.0
 30
0.0
  9
$PUCSYDIR
 10
0.0
 20
1.0
 30
0.0
  9
$PUCSORTHOREF
  2

  9
$PUCSORTHOVIEW
 70
     0
  9
$PUCSORGTOP
 10
0.0
 20
0.0
 30
0.0
  9
$PUCSORGBOTTOM
 10
0.0
 20
0.0
 30
0.0
  9
$PUCSORGLEFT
 10
0.0
 20
0.0
 30
0.0
  9
$PUCSORGRIGHT
 10
0.0
 20
0.0
 30
0.0
  9
$PUCSORGFRONT
 10
0.0
 20
0.0
 30
0.0
  9
$PUCSORGBACK
 10
0.0
 20
0.0
 30
0.0
  9
$USERI1
 70
     0
  9
$USERI2
 70
     0
  9
$USERI3
 70
     0
  9
$USERI4
 70
     0
  9
$USERI5
 70
     0
  9
$USERR1
 40
0.0
  9
$USERR2
 40
0.0
  9
$USERR3
 40
0.0
  9
$USERR4
 40
0.0
  9
$USERR5
 40
0.0
  9
$WORLDVIEW
 70
     1
  9
$SHADEDGE
 70
     3
  9
$SHADEDIF
 70
    70
  9
$TILEMODE
 70
     1
  9
$MAXACTVP
 70
    64
  9
$PINSBASE
 10
0.0
 20
0.0
 30
0.0
  9
$PLIMCHECK
 70
     0
  9
$PEXTMIN
 10
1.000000000000000E+20
 20
1.000000000000000E+20
 30
1.000000000000000E+20
  9
$PEXTMAX
 10
-1.000000000000000E+20
 20
-1.000000000000000E+20
 30
-1.000000000000000E+20
  9
$PLIMMIN
 10
0.0
 20
0.0
  9
$PLIMMAX
 10
12.0
 20
9.0
  9
$UNITMODE
 70
     0
  9
$VISRETAIN
 70
     1
  9
$PLINEGEN
 70
     0
  9
$PSLTSCALE
 70
     1
  9
$TREEDEPTH
 70
  3020
  9
$CMLSTYLE
  2
Standard
  9
$CMLJUST
 70
     0
  9
$CMLSCALE
 40
1.0
  9
$PROXYGRAPHICS
 70
     1
  9
$MEASUREMENT
 70
     0
  9
$CELWEIGHT
370
    -1
  9
$ENDCAPS
280
     0
  9
$JOINSTYLE
280
     0
  9
$LWDISPLAY
290
     1
  9
$INSUNITS
 70
     1
  9
$HYPERLINKBASE
  1

  9
$STYLESHEET
  1

  9
$XEDIT
290
     1
  9
$CEPSNTYPE
380
     0
  9
$PSTYLEMODE
290
     1
  9
$FINGERPRINTGUID
  2
{6D6CC4BD-D992-47DB-897E-60C8032EE3C0}
  9
$VERSIONGUID
  2
{FAEB1C32-E019-11D5-929B-00C0DF256EC4}
  9
$EXTNAMES
290
     1
  9
$PSVPSCALE
 40
0.0
  9
$OLESTARTUP
290
     0
  9
$SORTENTS
280
   127
  9
$INDEXCTL
280
     0
  9
$HIDETEXT
280
     1
  9
$XCLIPFRAME
280
     2
  9
$HALOGAP
280
     0
  9
$OBSCOLOR
 70
   257
  9
$OBSLTYPE
280
     0
  9
$INTERSECTIONDISPLAY
280
     0
  9
$INTERSECTIONCOLOR
 70
   257
  9
$DIMASSOC
280
     2
  9
$PROJECTNAME
  1

  9
$CAMERADISPLAY
290
     0
  9
$LENSLENGTH
 40
50.0
  9
$CAMERAHEIGHT
 40
0.0
  9
$STEPSPERSEC
 40
2.0
  9
$STEPSIZE
 40
6.0
  9
$3DDWFPREC
 40
2.0
  9
$PSOLWIDTH
 40
0.25
  9
$PSOLHEIGHT
 40
4.0
  9
$LOFTANG1
 40
1.570796326794897
  9
$LOFTANG2
 40
1.570796326794897
  9
$LOFTMAG1
 40
0.0
  9
$LOFTMAG2
 40
0.0
  9
$LOFTPARAM
 70
     7
  9
$LOFTNORMALS
280
     1
  9
$LATITUDE
 40
37.795
  9
$LONGITUDE
 40
-122.394
  9
$NORTHDIRECTION
 40
0.0
  9
$TIMEZONE
 70
 -8000
  9
$LIGHTGLYPHDISPLAY
280
     1
  9
$TILEMODELIGHTSYNCH
280
     1
  9
$CMATERIAL
347
3C
  9
$SOLIDHIST
280
     1
  9
$SHOWHIST
280
     1
  9
$DWFFRAME
280
     2
  9
$DGNFRAME
280
     2
  9
$REALWORLDSCALE
290
     1
  9
$INTERFERECOLOR
 62
   256
  9
$CSHADOW
280
     0
  9
$SHADOWPLANELOCATION
 40
0.0
  0
ENDSEC
  0
SECTION
  2
CLASSES
  0
CLASS
  1
ACDBDICTIONARYWDFLT
  2
AcDbDictionaryWithDefault
  3
ObjectDBX Classes
 90
        0
 91
        4
280
     0
281
     0
  0
CLASS
  1
VISUALSTYLE
  2
AcDbVisualStyle
  3
ObjectDBX Classes
 90
     4095
 91
        4
280
     0
281
     0
  0
CLASS
  1
MATERIAL
  2
AcDbMaterial
  3
ObjectDBX Classes
 90
     1153
 91
        4
280
     0
281
     0
  0
CLASS
  1
SUN
  2
AcDbSun
  3
SCENEOE
 90
     1024
 91
        4
280
     0
281
     0
  0
ENDSEC
  0
SECTION
  2
TABLES
  0
TABLE
  2
VPORT
  5
8
330
0
100
AcDbSymbolTable
 70
     1
  0
VPORT
  5
29
330
8
100
AcDbSymbolTableRecord
100
AcDbViewportTableRecord
  2
*Active
 70
     0
 10
0.0
 20
0.0
 11
1.0
 21
1.0
 12
0.0
 22
0.0
 13
0.0
 23
0.0
 14
0.5
 24
0.5
 15
0.5
 25
0.5
 16
0.0
 26
0.0
 36
1.0
 17
540.0
 27
-540.0
 37
0.0
 40
1080.0
 41
1.0
 42
50.0
 43
0.0
 44
0.0
 50
0.0
 51
0.0
 71
     0
 72
   100
 73
     1
 74
     3
 75
     0
 76
     0
 77
     0
 78
     0
281
     0
 65
     1
110
0.0
120
0.0
130
0.0
111
1.0
121
0.0
131
0.0
112
0.0
122
1.0
132
0.0
 79
     0
146
0.0
 60
     3
 61
     5
292
     1
282
     1
141
0.0
142
0.0
 63
   250
361
3F
  0
ENDTAB
  0
TABLE
  2
LTYPE
  5
5
330
0
100
AcDbSymbolTable
 70
     1
  0
LTYPE
  5
14
330
5
100
AcDbSymbolTableRecord
100
AcDbLinetypeTableRecord
  2
ByBlock
 70
     0
  3

 72
    65
 73
     0
 40
0.0
  0
LTYPE
  5
15
330
5
100
AcDbSymbolTableRecord
100
AcDbLinetypeTableRecord
  2
ByLayer
 70
     0
  3

 72
    65
 73
     0
 40
0.0
  0
LTYPE
  5
16
330
5
100
AcDbSymbolTableRecord
100
AcDbLinetypeTableRecord
  2
Continuous
 70
     0
  3
Solid line
 72
    65
 73
     0
 40
0.0
  0
ENDTAB
  0
TABLE
  2
LAYER
  5
2
330
0
100
AcDbSymbolTable
 70
     2
  0
LAYER
  5
10
330
2
100
AcDbSymbolTableRecord
100
AcDbLayerTableRecord
  2
0
 70
     0
 62
     7
  6
Continuous
370
    -3
390
F
347
3E
  0
LAYER
  5
40
330
2
100
AcDbSymbolTableRecord
100
AcDbLayerTableRecord
  2
Layer 1
 70
     0
 62
     7
  6
Continuous
370
    -3
390
F
347
3E
  0
ENDTAB
  0
TABLE
  2
STYLE
  5
3
330
0
100
AcDbSymbolTable
 70
     1
  0
STYLE
  5
11
330
3
100
AcDbSymbolTableRecord
100
AcDbTextStyleTableRecord
  2
Standard
 70
     0
 40
0.0
 41
1.0
 50
0.0
 71
     0
 42
0.2
  3
txt
  4

  0
ENDTAB
  0
TABLE
  2
VIEW
  5
6
330
0
100
AcDbSymbolTable
 70
     0
  0
ENDTAB
  0
TABLE
  2
UCS
  5
7
330
0
100
AcDbSymbolTable
 70
     0
  0
ENDTAB
  0
TABLE
  2
APPID
  5
9
330
0
100
AcDbSymbolTable
 70
     1
  0
APPID
  5
12
330
9
100
AcDbSymbolTableRecord
100
AcDbRegAppTableRecord
  2
ACAD
 70
     0
  0
ENDTAB
  0
TABLE
  2
DIMSTYLE
  5
A
330
0
100
AcDbSymbolTable
 70
     1
100
AcDbDimStyleTable
  0
DIMSTYLE
105
27
330
A
100
AcDbSymbolTableRecord
100
AcDbDimStyleTableRecord
  2
Standard
 70
     0
178
     0
340
11
  0
ENDTAB
  0
TABLE
  2
BLOCK_RECORD
  5
1
330
0
100
AcDbSymbolTable
 70
     7
  0
BLOCK_RECORD
  5
1F
330
1
100
AcDbSymbolTableRecord
100
AcDbBlockTableRecord
  2
*Model_Space
340
22
 70
     0
280
     1
281
     0
  0
BLOCK_RECORD
  5
1B
330
1
100
AcDbSymbolTableRecord
100
AcDbBlockTableRecord
  2
*Paper_Space
340
1E
 70
     0
280
     1
281
     0
  0
BLOCK_RECORD
  5
23
330
1
100
AcDbSymbolTableRecord
100
AcDbBlockTableRecord
  2
*Paper_Space0
340
26
 70
     0
280
     1
281
     0
  0
BLOCK_RECORD
  5
41
330
1
100
AcDbSymbolTableRecord
100
AcDbBlockTableRecord
  2
block 2
340
0
102
{BLKREFS
331
42
102
}
 70
     0
280
     1
281
     0
  0
BLOCK_RECORD
  5
45
330
1
100
AcDbSymbolTableRecord
100
AcDbBlockTableRecord
  2
block 3
340
0
102
{BLKREFS
331
46
102
}
 70
     0
280
     1
281
     0
  0
BLOCK_RECORD
  5
51
330
1
100
AcDbSymbolTableRecord
100
AcDbBlockTableRecord
  2
block 4
340
0
102
{BLKREFS
331
52
102
}
 70
     0
280
     1
281
     0
  0
BLOCK_RECORD
  5
B0
330
1
100
AcDbSymbolTableRecord
100
AcDbBlockTableRecord
  2
block 5
340
0
102
{BLKREFS
331
B1
102
}
 70
     0
280
     1
281
     0
  0
BLOCK_RECORD
  5
EB
330
1
100
AcDbSymbolTableRecord
100
AcDbBlockTableRecord
  2
block 6
340
0
102
{BLKREFS
331
EC
102
}
 70
     0
280
     1
281
     0
  0
BLOCK_RECORD
  5
F5
330
1
100
AcDbSymbolTableRecord
100
AcDbBlockTableRecord
  2
block 7
340
0
102
{BLKREFS
331
F6
102
}
 70
     0
280
     1
281
     0
  0
ENDTAB
  0
ENDSEC
  0
SECTION
  2
BLOCKS
  0
BLOCK
  5
20
330
1F
100
AcDbEntity
  8
0
100
AcDbBlockBegin
  2
*Model_Space
 70
     0
 10
0.0
 20
0.0
 30
0.0
  3
*Model_Space
  1

  0
ENDBLK
  5
21
330
1F
100
AcDbEntity
  8
0
100
AcDbBlockEnd
  0
BLOCK
  5
1C
330
1B
100
AcDbEntity
 67
     1
  8
0
100
AcDbBlockBegin
  2
*Paper_Space
 70
     0
 10
0.0
 20
0.0
 30
0.0
  3
*Paper_Space
  1

  0
ENDBLK
  5
1D
330
1B
100
AcDbEntity
 67
     1
  8
0
100
AcDbBlockEnd
  0
BLOCK
  5
24
330
23
100
AcDbEntity
  8
0
100
AcDbBlockBegin
  2
*Paper_Space0
 70
     0
 10
0.0
 20
0.0
 30
0.0
  3
*Paper_Space0
  1

  0
ENDBLK
  5
25
330
23
100
AcDbEntity
  8
0
100
AcDbBlockEnd
  0
BLOCK
  5
43
330
41
100
AcDbEntity
  8
0
100
AcDbBlockBegin
  2
block 2
 70
     0
 10
0.0
 20
0.0
 30
0.0
  3
block 2
  1

  0
INSERT
  5
46
330
41
100
AcDbEntity
  8
Layer 1
100
AcDbBlockReference
  2
block 3
 10
0.0
 20
0.0
 30
0.0
  0
INSERT
  5
52
330
41
100
AcDbEntity
  8
Layer 1
100
AcDbBlockReference
  2
block 4
 10
0.0
 20
0.0
 30
0.0
  0
INSERT
  5
B1
330
41
100
AcDbEntity
  8
Layer 1
100
AcDbBlockReference
  2
block 5
 10
0.0
 20
0.0
 30
0.0
  0
INSERT
  5
EC
330
41
100
AcDbEntity
  8
Layer 1
100
AcDbBlockReference
  2
block 6
 10
0.0
 20
0.0
 30
0.0
  0
INSERT
  5
F6
330
41
100
AcDbEntity
  8
Layer 1
100
AcDbBlockReference
  2
block 7
 10
0.0
 20
0.0
 30
0.0
  0
ENDBLK
  5
44
330
41
100
AcDbEntity
  8
0
100
AcDbBlockEnd
  0
BLOCK
  5
47
330
45
100
AcDbEntity
  8
0
100
AcDbBlockBegin
  2
block 3
 70
     0
 10
0.0
 20
0.0
 30
0.0
  3
block 3
  1

  0
SPLINE
  5
49
330
45
100
AcDbEntity
  8
Layer 1
370
     0
100
AcDbSpline
210
0.0
220
0.0
230
1.0
 70
    11
 71
     3
 72
   149
 73
   145
 74
     0
 42
0.0000000001
 43
0.0000000001
 12
1.0
 22
0.0
 32
0.0
 13
1.0
 23
0.0
 33
0.0
 40
0.0
 40
0.0
 40
0.0
 40
0.0
 40
1.0
 40
1.0
 40
1.0
 40
2.0
 40
2.0
 40
2.0
 40
3.0
 40
3.0
 40
3.0
 40
4.0
 40
4.0
 40
4.0
 40
5.0
 40
5.0
 40
5.0
 40
6.0
 40
6.0
 40
6.0
 40
7.0
 40
7.0
 40
7.0
 40
8.0
 40
8.0
 40
8.0
 40
9.0
 40
9.0
 40
9.0
 40
10.0
 40
10.0
 40
10.0
 40
11.0
 40
11.0
 40
11.0
 40
12.0
 40
12.0
 40
12.0
 40
13.0
 40
13.0
 40
13.0
 40
14.0
 40
14.0
 40
14.0
 40
15.0
 40
15.0
 40
15.0
 40
16.0
 40
16.0
 40
16.0
 40
17.0
 40
17.0
 40
17.0
 40
18.0
 40
18.0
 40
18.0
 40
19.0
 40
19.0
 40
19.0
 40
20.0
 40
20.0
 40
20.0
 40
21.0
 40
21.0
 40
21.0
 40
22.0
 40
22.0
 40
22.0
 40
23.0
 40
23.0
 40
23.0
 40
24.0
 40
24.0
 40
24.0
 40
25.0
 40
25.0
 40
25.0
 40
26.0
 40
26.0
 40
26.0
 40
27.0
 40
27.0
 40
27.0
 40
28.0
 40
28.0
 40
28.0
 40
29.0
 40
29.0
 40
29.0
 40
30.0
 40
30.0
 40
30.0
 40
31.0
 40
31.0
 40
31.0
 40
32.0
 40
32.0
 40
32.0
 40
33.0
 40
33.0
 40
33.0
 40
34.0
 40
34.0
 40
34.0
 40
35.0
 40
35.0
 40
35.0
 40
36.0
 40
36.0
 40
36.0
 40
37.0
 40
37.0
 40
37.0
 40
38.0
 40
38.0
 40
38.0
 40
39.0
 40
39.0
 40
39.0
 40
40.0
 40
40.0
 40
40.0
 40
41.0
 40
41.0
 40
41.0
 40
42.0
 40
42.0
 40
42.0
 40
43.0
 40
43.0
 40
43.0
 40
44.0
 40
44.0
 40
44.0
 40
45.0
 40
45.0
 40
45.0
 40
46.0
 40
46.0
 40
46.0
 40
47.0
 40
47.0
 40
47.0
 40
48.0
 40
48.0
 40
48.0
 40
48.0
 10
537.7205685675617
 20
-735.9247345150998
 30
0.0
 10
534.9618556717824
 20
-735.2056561537211
 30
0.0
 10
533.8838506325792
 20
-732.5694438305782
 30
0.0
 10
532.6882450436451
 20
-730.1733326298036
 30
0.0
 10
528.8515271086626
 20
-722.62484734393
 30
0.0
 10
528.0136231918286
 20
-714.2372331354945
 30
0.0
 10
526.575466469073
 20
-706.0897200494255
 30
0.0
 10
523.8192035847469
 20
-689.6734183103817
 30
0.0
 10
522.8612491067279
 20
-673.1382910158773
 30
0.0
 10
522.8612491067279
 20
-656.723214282556
 30
0.0
 10
522.8612491067279
 20
-656.723214282556
 30
0.0
 10
522.981299667912
 20
-643.0631754278365
 30
0.0
 10
522.981299667912
 20
-643.0631754278365
 30
0.0
 10
522.981299667912
 20
-641.9851703886325
 30
0.0
 10
522.7411985455446
 20
-640.9071653494302
 30
0.0
 10
522.6235979958128
 20
-639.4690086266764
 30
0.0
 10
520.4651379059551
 20
-640.4281881104198
 30
0.0
 10
520.4651379059551
 20
-642.3440970664578
 30
0.0
 10
519.9873856726708
 20
-643.7822537892116
 30
0.0
 10
518.0690267051805
 20
-650.1326834747015
 30
0.0
 10
515.7929660655891
 20
-656.2442370435474
 30
0.0
 10
512.4364503753432
 20
-661.99563892884
 30
0.0
 10
507.0464251793292
 20
-671.2211570541131
 30
0.0
 10
499.2553887596341
 20
-675.415576661193
 30
0.0
 10
490.7489489957397
 20
-675.415576661193
 30
0.0
 10
486.554529388658
 20
-675.415576661193
 30
0.0
 10
482.2425092318454
 20
-674.3363466162646
 30
0.0
 10
477.8079885023981
 20
-672.5392632156854
 30
0.0
 10
475.0541756295243
 20
-671.3412076152963
 30
0.0
 10
473.2558672232162
 20
-669.0651469757031
 30
0.0
 10
471.6976599392783
 20
-666.6678107692042
 30
0.0
 10
464.989528581691
 20
-655.8840853599941
 30
0.0
 10
458.2764972011992
 20
-645.100359950784
 30
0.0
 10
453.2441736772835
 20
-633.3586800635567
 30
0.0
 10
453.0040725549143
 20
-632.9985283800033
 30
0.0
 10
452.6463708828151
 20
-632.759652263363
 30
0.0
 10
452.0485680883476
 20
-631.9205233408029
 30
0.0
 10
451.5683658436128
 20
-632.759652263363
 30
0.0
 10
451.4483152824287
 20
-633.717606741382
 30
0.0
 10
451.4483152824287
 20
-634.556735663944
 30
0.0
 10
451.4483152824287
 20
-634.556735663944
 30
0.0
 10
451.4483152824287
 20
-636.3538190645249
 30
0.0
 10
451.4483152824287
 20
-636.3538190645249
 30
0.0
 10
452.0485680883476
 20
-653.4879741592213
 30
0.0
 10
451.926067515712
 20
-670.6221292539176
 30
0.0
 10
453.6067753722882
 20
-687.6374587931568
 30
0.0
 10
453.8444264832024
 20
-690.0335699939333
 30
0.0
 10
453.9644770443874
 20
-692.5497317558929
 30
0.0
 10
453.9644770443874
 20
-694.9458429566657
 30
0.0
 10
453.9644770443874
 20
-702.0153510035288
 30
0.0
 10
453.2441736772835
 20
-708.9648084892106
 30
0.0
 10
452.6463708828151
 20
-715.9142659748923
 30
0.0
 10
451.8084669659802
 20
-726.0989635839069
 30
0.0
 10
441.2636176734113
 20
-734.8467294758975
 30
0.0
 10
431.7967734200474
 20
-734.8467294758975
 30
0.0
 10
431.7967734200474
 20
-734.8467294758975
 30
0.0
 10
429.9984650137394
 20
-734.7266789147125
 30
0.0
 10
429.9984650137394
 20
-734.7266789147125
 30
0.0
 10
420.5340707718269
 20
-733.6486738755102
 30
0.0
 10
415.2640961369952
 20
-727.4170697454774
 30
0.0
 10
412.0276310079325
 20
-719.3896072205953
 30
0.0
 10
408.5510647565034
 20
-710.7618918897915
 30
0.0
 10
407.115358045201
 20
-701.5363737645202
 30
0.0
 10
406.6351558004653
 20
-692.3096306335228
 30
0.0
 10
406.395054678097
 20
-685.4802237090244
 30
0.0
 10
406.2774541283661
 20
-678.6508167845295
 30
0.0
 10
406.2774541283661
 20
-671.8201848543067
 30
0.0
 10
406.2774541283661
 20
-654.6860297596086
 30
0.0
 10
407.115358045201
 20
-637.6719252260955
 30
0.0
 10
408.7911658788707
 20
-620.5377701313955
 30
0.0
 10
410.8295754075461
 20
-600.2872004688215
 30
0.0
 10
410.3493731628096
 20
-579.7977546896054
 30
0.0
 10
410.5894742851788
 20
-559.3083089103875
 30
0.0
 10
410.5894742851788
 20
-554.1559348252867
 30
0.0
 10
410.5894742851788
 20
-548.7646846235457
 30
0.0
 10
410.4694237239937
 20
-543.612310538445
 30
0.0
 10
410.4694237239937
 20
-540.7372220986599
 30
0.0
 10
410.8295754075461
 20
-537.8609086531524
 30
0.0
 10
411.3097776522827
 20
-535.1046457688244
 30
0.0
 10
412.5053832412168
 20
-526.5982060049319
 30
0.0
 10
417.7778078874999
 20
-521.8047585976565
 30
0.0
 10
425.6864448569277
 20
-519.7675740747072
 30
0.0
 10
428.8028594248062
 20
-519.0484957133285
 30
0.0
 10
431.6791728703156
 20
-518.5695184743199
 30
0.0
 10
434.3153851934567
 20
-518.5695184743199
 30
0.0
 10
445.0978855969415
 20
-518.5695184743199
 30
0.0
 10
453.2441736772835
 20
-524.6810720431677
 30
0.0
 10
458.0388460902832
 20
-536.1838758137546
 30
0.0
 10
458.0388460902832
 20
-536.1838758137546
 30
0.0
 10
484.1584181878852
 20
-598.1311903904152
 30
0.0
 10
484.1584181878852
 20
-598.1311903904152
 30
0.0
 10
484.7586709938041
 20
-599.4492965519858
 30
0.0
 10
485.1188226773565
 20
-601.0062788301966
 30
0.0
 10
486.554529388658
 20
-601.9654583139454
 30
0.0
 10
488.9506405894326
 20
-600.2872004688215
 30
0.0
 10
489.3132422844365
 20
-597.5321625902234
 30
0.0
 10
490.2687467510032
 20
-595.1348263837208
 30
0.0
 10
497.8196820483308
 20
-574.885481726873
 30
0.0
 10
506.9239246066918
 20
-555.4740409868591
 30
0.0
 10
518.5467789384629
 20
-537.2618808529569
 30
0.0
 10
523.3390013400112
 20
-529.7133955670834
 30
0.0
 10
528.3713248639278
 20
-522.1649102812098
 30
0.0
 10
535.9222601612546
 20
-516.8924856349258
 30
0.0
 10
539.876578645969
 20
-514.1362227505979
 30
0.0
 10
543.7083965580441
 20
-511.9789876664654
 30
0.0
 10
548.0253167377632
 20
-511.9789876664654
 30
0.0
 10
550.2989273659005
 20
-511.9789876664654
 30
0.0
 10
552.6950385666751
 20
-512.6980660278441
 30
0.0
 10
555.3312508898161
 20
-514.1362227505979
 30
0.0
 10
562.1618828200408
 20
-517.9704906741263
 30
0.0
 10
566.3563024271207
 20
-523.002814198042
 30
0.0
 10
567.4343074663229
 20
-530.9114511674707
 30
0.0
 10
568.8724641890803
 20
-540.0181437372848
 30
0.0
 10
569.350216422361
 20
-549.2436618625561
 30
0.0
 10
569.350216422361
 20
-558.3503544323685
 30
0.0
 10
569.350216422361
 20
-567.2169458798144
 30
0.0
 10
568.8724641890803
 20
-576.0835373272585
 30
0.0
 10
568.1546108334296
 20
-584.8300782135193
 30
0.0
 10
567.4343074663229
 20
-596.6930336676614
 30
0.0
 10
566.95410522159
 20
-608.674814677257
 30
0.0
 10
566.95410522159
 20
-620.5377701313955
 30
0.0
 10
566.95410522159
 20
-636.2337685033381
 30
0.0
 10
567.674408588693
 20
-651.9309918810104
 30
0.0
 10
569.5903175447311
 20
-667.7470408141326
 30
0.0
 10
571.2685753898513
 20
-681.4058546631295
 30
0.0
 10
573.3045349070744
 20
-695.065893517849
 30
0.0
 10
574.0248382741811
 20
-708.9648084892106
 30
0.0
 10
574.0248382741811
 20
-708.9648084892106
 30
0.0
 10
574.1448888353625
 20
-710.2829146507811
 30
0.0
 10
574.1448888353625
 20
-710.2829146507811
 30
0.0
 10
574.1448888353625
 20
-715.3152381746986
 30
0.0
 10
572.8267826737938
 20
-719.6297083429636
 30
0.0
 10
569.7128181173684
 20
-723.7028523831341
 30
0.0
 10
567.1942063439565
 20
-727.058143067652
 30
0.0
 10
564.7980951431819
 20
-730.5322593076289
 30
0.0
 10
562.4019839424072
 20
-733.8875499921505
 30
0.0
 10
560.9662772311058
 20
-736.0447850762812
 30
0.0
 10
558.9278677024304
 20
-737.2428406766703
 30
0.0
 10
556.5317565016558
 20
-737.8418684768621
 30
0.0
 10
554.9735492177169
 20
-738.2007951546893
 30
0.0
 10
553.297741384049
 20
-738.3208457158726
 30
0.0
 10
551.7395341001065
 20
-738.3208457158726
 30
0.0
 10
546.9448616871086
 20
-738.3208457158726
 30
0.0
 10
542.3927404079259
 20
-737.1227901154871
 30
0.0
 10
537.7205685675617
 20
-735.9247345150998
 30
0.0
  0
HATCH
  5
4A
330
45
100
AcDbEntity
  8
Layer 1
 62
   250
420
  2301728
100
AcDbHatch
 10
0.0
 20
0.0
 30
0.0
210
0.0
220
0.0
230
1.0
  2
SOLID
 70
     1
 71
     0
 91
        1
 92
        1
 93
        1
 72
     4
 94
        3
 73
     0
 74
     1
 95
      149
 96
      145
 40
0.0
 40
0.0
 40
0.0
 40
0.0
 40
1.0
 40
1.0
 40
1.0
 40
2.0
 40
2.0
 40
2.0
 40
3.0
 40
3.0
 40
3.0
 40
4.0
 40
4.0
 40
4.0
 40
5.0
 40
5.0
 40
5.0
 40
6.0
 40
6.0
 40
6.0
 40
7.0
 40
7.0
 40
7.0
 40
8.0
 40
8.0
 40
8.0
 40
9.0
 40
9.0
 40
9.0
 40
10.0
 40
10.0
 40
10.0
 40
11.0
 40
11.0
 40
11.0
 40
12.0
 40
12.0
 40
12.0
 40
13.0
 40
13.0
 40
13.0
 40
14.0
 40
14.0
 40
14.0
 40
15.0
 40
15.0
 40
15.0
 40
16.0
 40
16.0
 40
16.0
 40
17.0
 40
17.0
 40
17.0
 40
18.0
 40
18.0
 40
18.0
 40
19.0
 40
19.0
 40
19.0
 40
20.0
 40
20.0
 40
20.0
 40
21.0
 40
21.0
 40
21.0
 40
22.0
 40
22.0
 40
22.0
 40
23.0
 40
23.0
 40
23.0
 40
24.0
 40
24.0
 40
24.0
 40
25.0
 40
25.0
 40
25.0
 40
26.0
 40
26.0
 40
26.0
 40
27.0
 40
27.0
 40
27.0
 40
28.0
 40
28.0
 40
28.0
 40
29.0
 40
29.0
 40
29.0
 40
30.0
 40
30.0
 40
30.0
 40
31.0
 40
31.0
 40
31.0
 40
32.0
 40
32.0
 40
32.0
 40
33.0
 40
33.0
 40
33.0
 40
34.0
 40
34.0
 40
34.0
 40
35.0
 40
35.0
 40
35.0
 40
36.0
 40
36.0
 40
36.0
 40
37.0
 40
37.0
 40
37.0
 40
38.0
 40
38.0
 40
38.0
 40
39.0
 40
39.0
 40
39.0
 40
40.0
 40
40.0
 40
40.0
 40
41.0
 40
41.0
 40
41.0
 40
42.0
 40
42.0
 40
42.0
 40
43.0
 40
43.0
 40
43.0
 40
44.0
 40
44.0
 40
44.0
 40
45.0
 40
45.0
 40
45.0
 40
46.0
 40
46.0
 40
46.0
 40
47.0
 40
47.0
 40
47.0
 40
48.0
 40
48.0
 40
48.0
 40
48.0
 10
537.7205685675617
 20
-735.9247345150998
 10
534.9618556717824
 20
-735.2056561537211
 10
533.8838506325792
 20
-732.5694438305782
 10
532.6882450436451
 20
-730.1733326298036
 10
528.8515271086626
 20
-722.62484734393
 10
528.0136231918286
 20
-714.2372331354945
 10
526.575466469073
 20
-706.0897200494255
 10
523.8192035847469
 20
-689.6734183103817
 10
522.8612491067279
 20
-673.1382910158773
 10
522.8612491067279
 20
-656.723214282556
 10
522.8612491067279
 20
-656.723214282556
 10
522.981299667912
 20
-643.0631754278365
 10
522.981299667912
 20
-643.0631754278365
 10
522.981299667912
 20
-641.9851703886325
 10
522.7411985455446
 20
-640.9071653494302
 10
522.6235979958128
 20
-639.4690086266764
 10
520.4651379059551
 20
-640.4281881104198
 10
520.4651379059551
 20
-642.3440970664578
 10
519.9873856726708
 20
-643.7822537892116
 10
518.0690267051805
 20
-650.1326834747015
 10
515.7929660655891
 20
-656.2442370435474
 10
512.4364503753432
 20
-661.99563892884
 10
507.0464251793292
 20
-671.2211570541131
 10
499.2553887596341
 20
-675.415576661193
 10
490.7489489957397
 20
-675.415576661193
 10
486.554529388658
 20
-675.415576661193
 10
482.2425092318454
 20
-674.3363466162646
 10
477.8079885023981
 20
-672.5392632156854
 10
475.0541756295243
 20
-671.3412076152963
 10
473.2558672232162
 20
-669.0651469757031
 10
471.6976599392783
 20
-666.6678107692042
 10
464.989528581691
 20
-655.8840853599941
 10
458.2764972011992
 20
-645.100359950784
 10
453.2441736772835
 20
-633.3586800635567
 10
453.0040725549143
 20
-632.9985283800033
 10
452.6463708828151
 20
-632.759652263363
 10
452.0485680883476
 20
-631.9205233408029
 10
451.5683658436128
 20
-632.759652263363
 10
451.4483152824287
 20
-633.717606741382
 10
451.4483152824287
 20
-634.556735663944
 10
451.4483152824287
 20
-634.556735663944
 10
451.4483152824287
 20
-636.3538190645249
 10
451.4483152824287
 20
-636.3538190645249
 10
452.0485680883476
 20
-653.4879741592213
 10
451.926067515712
 20
-670.6221292539176
 10
453.6067753722882
 20
-687.6374587931568
 10
453.8444264832024
 20
-690.0335699939333
 10
453.9644770443874
 20
-692.5497317558929
 10
453.9644770443874
 20
-694.9458429566657
 10
453.9644770443874
 20
-702.0153510035288
 10
453.2441736772835
 20
-708.9648084892106
 10
452.6463708828151
 20
-715.9142659748923
 10
451.8084669659802
 20
-726.0989635839069
 10
441.2636176734113
 20
-734.8467294758975
 10
431.7967734200474
 20
-734.8467294758975
 10
431.7967734200474
 20
-734.8467294758975
 10
429.9984650137394
 20
-734.7266789147125
 10
429.9984650137394
 20
-734.7266789147125
 10
420.5340707718269
 20
-733.6486738755102
 10
415.2640961369952
 20
-727.4170697454774
 10
412.0276310079325
 20
-719.3896072205953
 10
408.5510647565034
 20
-710.7618918897915
 10
407.115358045201
 20
-701.5363737645202
 10
406.6351558004653
 20
-692.3096306335228
 10
406.395054678097
 20
-685.4802237090244
 10
406.2774541283661
 20
-678.6508167845295
 10
406.2774541283661
 20
-671.8201848543067
 10
406.2774541283661
 20
-654.6860297596086
 10
407.115358045201
 20
-637.6719252260955
 10
408.7911658788707
 20
-620.5377701313955
 10
410.8295754075461
 20
-600.2872004688215
 10
410.3493731628096
 20
-579.7977546896054
 10
410.5894742851788
 20
-559.3083089103875
 10
410.5894742851788
 20
-554.1559348252867
 10
410.5894742851788
 20
-548.7646846235457
 10
410.4694237239937
 20
-543.612310538445
 10
410.4694237239937
 20
-540.7372220986599
 10
410.8295754075461
 20
-537.8609086531524
 10
411.3097776522827
 20
-535.1046457688244
 10
412.5053832412168
 20
-526.5982060049319
 10
417.7778078874999
 20
-521.8047585976565
 10
425.6864448569277
 20
-519.7675740747072
 10
428.8028594248062
 20
-519.0484957133285
 10
431.6791728703156
 20
-518.5695184743199
 10
434.3153851934567
 20
-518.5695184743199
 10
445.0978855969415
 20
-518.5695184743199
 10
453.2441736772835
 20
-524.6810720431677
 10
458.0388460902832
 20
-536.1838758137546
 10
458.0388460902832
 20
-536.1838758137546
 10
484.1584181878852
 20
-598.1311903904152
 10
484.1584181878852
 20
-598.1311903904152
 10
484.7586709938041
 20
-599.4492965519858
 10
485.1188226773565
 20
-601.0062788301966
 10
486.554529388658
 20
-601.9654583139454
 10
488.9506405894326
 20
-600.2872004688215
 10
489.3132422844365
 20
-597.5321625902234
 10
490.2687467510032
 20
-595.1348263837208
 10
497.8196820483308
 20
-574.885481726873
 10
506.9239246066918
 20
-555.4740409868591
 10
518.5467789384629
 20
-537.2618808529569
 10
523.3390013400112
 20
-529.7133955670834
 10
528.3713248639278
 20
-522.1649102812098
 10
535.9222601612546
 20
-516.8924856349258
 10
539.876578645969
 20
-514.1362227505979
 10
543.7083965580441
 20
-511.9789876664654
 10
548.0253167377632
 20
-511.9789876664654
 10
550.2989273659005
 20
-511.9789876664654
 10
552.6950385666751
 20
-512.6980660278441
 10
555.3312508898161
 20
-514.1362227505979
 10
562.1618828200408
 20
-517.9704906741263
 10
566.3563024271207
 20
-523.002814198042
 10
567.4343074663229
 20
-530.9114511674707
 10
568.8724641890803
 20
-540.0181437372848
 10
569.350216422361
 20
-549.2436618625561
 10
569.350216422361
 20
-558.3503544323685
 10
569.350216422361
 20
-567.2169458798144
 10
568.8724641890803
 20
-576.0835373272585
 10
568.1546108334296
 20
-584.8300782135193
 10
567.4343074663229
 20
-596.6930336676614
 10
566.95410522159
 20
-608.674814677257
 10
566.95410522159
 20
-620.5377701313955
 10
566.95410522159
 20
-636.2337685033381
 10
567.674408588693
 20
-651.9309918810104
 10
569.5903175447311
 20
-667.7470408141326
 10
571.2685753898513
 20
-681.4058546631295
 10
573.3045349070744
 20
-695.065893517849
 10
574.0248382741811
 20
-708.9648084892106
 10
574.0248382741811
 20
-708.9648084892106
 10
574.1448888353625
 20
-710.2829146507811
 10
574.1448888353625
 20
-710.2829146507811
 10
574.1448888353625
 20
-715.3152381746986
 10
572.8267826737938
 20
-719.6297083429636
 10
569.7128181173684
 20
-723.7028523831341
 10
567.1942063439565
 20
-727.058143067652
 10
564.7980951431819
 20
-730.5322593076289
 10
562.4019839424072
 20
-733.8875499921505
 10
560.9662772311058
 20
-736.0447850762812
 10
558.9278677024304
 20
-737.2428406766703
 10
556.5317565016558
 20
-737.8418684768621
 10
554.9735492177169
 20
-738.2007951546893
 10
553.297741384049
 20
-738.3208457158726
 10
551.7395341001065
 20
-738.3208457158726
 10
546.9448616871086
 20
-738.3208457158726
 10
542.3927404079259
 20
-737.1227901154871
 10
537.7205685675617
 20
-735.9247345150998
 97
        0
 97
        0
 75
     2
 76
     1
 98
        0
  0
SPLINE
  5
4B
330
45
100
AcDbEntity
  8
Layer 1
370
     0
100
AcDbSpline
210
0.0
220
0.0
230
1.0
 70
    11
 71
     3
 72
    65
 73
    61
 74
     0
 42
0.0000000001
 43
0.0000000001
 12
1.0
 22
0.0
 32
0.0
 13
1.0
 23
0.0
 33
0.0
 40
0.0
 40
0.0
 40
0.0
 40
0.0
 40
1.0
 40
1.0
 40
1.0
 40
2.0
 40
2.0
 40
2.0
 40
3.0
 40
3.0
 40
3.0
 40
4.0
 40
4.0
 40
4.0
 40
5.0
 40
5.0
 40
5.0
 40
6.0
 40
6.0
 40
6.0
 40
7.0
 40
7.0
 40
7.0
 40
8.0
 40
8.0
 40
8.0
 40
9.0
 40
9.0
 40
9.0
 40
10.0
 40
10.0
 40
10.0
 40
11.0
 40
11.0
 40
11.0
 40
12.0
 40
12.0
 40
12.0
 40
13.0
 40
13.0
 40
13.0
 40
14.0
 40
14.0
 40
14.0
 40
15.0
 40
15.0
 40
15.0
 40
16.0
 40
16.0
 40
16.0
 40
17.0
 40
17.0
 40
17.0
 40
18.0
 40
18.0
 40
18.0
 40
19.0
 40
19.0
 40
19.0
 40
20.0
 40
20.0
 40
20.0
 40
20.0
 10
596.4473430896032
 20
-731.4914387913759
 30
0.0
 10
593.2133279719965
 20
-730.2933831909886
 30
0.0
 10
591.7776212606914
 20
-726.9380925064688
 30
0.0
 10
590.5771156488518
 20
-723.8229029443173
 30
0.0
 10
587.3431005312414
 20
-716.0343165360737
 30
0.0
 10
586.3826960417719
 20
-707.64670232764
 30
0.0
 10
586.1450449308577
 20
-699.3791386803878
 30
0.0
 10
585.3046910025696
 20
-678.051788984334
 30
0.0
 10
584.9469893304667
 20
-656.723214282556
 30
0.0
 10
584.3467365245488
 20
-635.9936673809734
 30
0.0
 10
584.3467365245488
 20
-635.9936673809734
 30
0.0
 10
584.2266859633637
 20
-596.5729831064764
 30
0.0
 10
584.2266859633637
 20
-596.5729831064764
 30
0.0
 10
584.2266859633637
 20
-588.6643461370495
 30
0.0
 10
584.3467365245488
 20
-580.7569341733488
 30
0.0
 10
584.7068882081003
 20
-572.8482972039237
 30
0.0
 10
585.3046910025696
 20
-560.507589516501
 30
0.0
 10
586.9829488476898
 20
-548.4057579457203
 30
0.0
 10
591.0573178935883
 20
-536.6628530527651
 30
0.0
 10
592.9732268496264
 20
-531.3904284064793
 30
0.0
 10
595.4918386230383
 20
-526.5982060049319
 30
0.0
 10
598.9659548630152
 20
-522.2837358366669
 30
0.0
 10
600.8818638190533
 20
-519.8876246358905
 30
0.0
 10
603.1603744700951
 20
-518.4494679131367
 30
0.0
 10
606.0366879156063
 20
-517.9704906741263
 30
0.0
 10
607.9525968716443
 20
-517.6115639963009
 30
0.0
 10
609.7509052779533
 20
-517.3714628739344
 30
0.0
 10
611.5467636728063
 20
-517.3714628739344
 30
0.0
 10
618.615046713945
 20
-517.3714628739344
 30
0.0
 10
621.3737596097235
 20
-517.8504401129449
 30
0.0
 10
624.0075219214123
 20
-518.8096195966882
 30
0.0
 10
629.159896006513
 20
-520.6067029972692
 30
0.0
 10
632.0362094520242
 20
-524.6810720431677
 30
0.0
 10
632.5164116967571
 20
-530.192372806092
 30
0.0
 10
632.7565128191272
 20
-532.828585129233
 30
0.0
 10
632.87411336886
 20
-535.5848480135628
 30
0.0
 10
632.87411336886
 20
-538.2198353309759
 30
0.0
 10
632.87411336886
 20
-542.4142549380576
 30
0.0
 10
632.6340122464899
 20
-546.6074495394132
 30
0.0
 10
631.9161588908391
 20
-550.5617680241266
 30
0.0
 10
628.0818909673108
 20
-574.7654311656879
 30
0.0
 10
626.7637848057384
 20
-599.0891448684342
 30
0.0
 10
626.7637848057384
 20
-623.4128585711805
 30
0.0
 10
626.7637848057384
 20
-639.2289075043063
 30
0.0
 10
627.243987050475
 20
-655.0461814431619
 30
0.0
 10
627.9618404061257
 20
-670.8622303762877
 30
0.0
 10
628.3219920896772
 20
-678.051788984334
 30
0.0
 10
628.3219920896772
 20
-685.3601731478429
 30
0.0
 10
628.3219920896772
 20
-692.5497317558929
 30
0.0
 10
628.3219920896772
 20
-692.5497317558929
 30
0.0
 10
628.3219920896772
 20
-714.3572836966796
 30
0.0
 10
628.3219920896772
 20
-714.3572836966796
 30
0.0
 10
628.3219920896772
 20
-715.675389858252
 30
0.0
 10
628.3219920896772
 20
-717.1135465810057
 30
0.0
 10
628.0818909673108
 20
-718.311602181393
 30
0.0
 10
625.6857797665361
 20
-729.4542542684267
 30
0.0
 10
620.1732539978839
 20
-733.7674994309673
 30
0.0
 10
608.0701974213735
 20
-733.7674994309673
 30
0.0
 10
604.718581754034
 20
-733.7674994309673
 30
0.0
 10
600.7642632693205
 20
-732.9295955141315
 30
0.0
 10
596.4473430896032
 20
-731.4914387913759
 30
0.0
  0
HATCH
  5
4C
330
45
100
AcDbEntity
  8
Layer 1
 62
   250
420
  2301728
100
AcDbHatch
 10
0.0
 20
0.0
 30
0.0
210
0.0
220
0.0
230
1.0
  2
SOLID
 70
     1
 71
     0
 91
        1
 92
        1
 93
        1
 72
     4
 94
        3
 73
     0
 74
     1
 95
       65
 96
       61
 40
0.0
 40
0.0
 40
0.0
 40
0.0
 40
1.0
 40
1.0
 40
1.0
 40
2.0
 40
2.0
 40
2.0
 40
3.0
 40
3.0
 40
3.0
 40
4.0
 40
4.0
 40
4.0
 40
5.0
 40
5.0
 40
5.0
 40
6.0
 40
6.0
 40
6.0
 40
7.0
 40
7.0
 40
7.0
 40
8.0
 40
8.0
 40
8.0
 40
9.0
 40
9.0
 40
9.0
 40
10.0
 40
10.0
 40
10.0
 40
11.0
 40
11.0
 40
11.0
 40
12.0
 40
12.0
 40
12.0
 40
13.0
 40
13.0
 40
13.0
 40
14.0
 40
14.0
 40
14.0
 40
15.0
 40
15.0
 40
15.0
 40
16.0
 40
16.0
 40
16.0
 40
17.0
 40
17.0
 40
17.0
 40
18.0
 40
18.0
 40
18.0
 40
19.0
 40
19.0
 40
19.0
 40
20.0
 40
20.0
 40
20.0
 40
20.0
 10
596.4473430896032
 20
-731.4914387913759
 10
593.2133279719965
 20
-730.2933831909886
 10
591.7776212606914
 20
-726.9380925064688
 10
590.5771156488518
 20
-723.8229029443173
 10
587.3431005312414
 20
-716.0343165360737
 10
586.3826960417719
 20
-707.64670232764
 10
586.1450449308577
 20
-699.3791386803878
 10
585.3046910025696
 20
-678.051788984334
 10
584.9469893304667
 20
-656.723214282556
 10
584.3467365245488
 20
-635.9936673809734
 10
584.3467365245488
 20
-635.9936673809734
 10
584.2266859633637
 20
-596.5729831064764
 10
584.2266859633637
 20
-596.5729831064764
 10
584.2266859633637
 20
-588.6643461370495
 10
584.3467365245488
 20
-580.7569341733488
 10
584.7068882081003
 20
-572.8482972039237
 10
585.3046910025696
 20
-560.507589516501
 10
586.9829488476898
 20
-548.4057579457203
 10
591.0573178935883
 20
-536.6628530527651
 10
592.9732268496264
 20
-531.3904284064793
 10
595.4918386230383
 20
-526.5982060049319
 10
598.9659548630152
 20
-522.2837358366669
 10
600.8818638190533
 20
-519.8876246358905
 10
603.1603744700951
 20
-518.4494679131367
 10
606.0366879156063
 20
-517.9704906741263
 10
607.9525968716443
 20
-517.6115639963009
 10
609.7509052779533
 20
-517.3714628739344
 10
611.5467636728063
 20
-517.3714628739344
 10
618.615046713945
 20
-517.3714628739344
 10
621.3737596097235
 20
-517.8504401129449
 10
624.0075219214123
 20
-518.8096195966882
 10
629.159896006513
 20
-520.6067029972692
 10
632.0362094520242
 20
-524.6810720431677
 10
632.5164116967571
 20
-530.192372806092
 10
632.7565128191272
 20
-532.828585129233
 10
632.87411336886
 20
-535.5848480135628
 10
632.87411336886
 20
-538.2198353309759
 10
632.87411336886
 20
-542.4142549380576
 10
632.6340122464899
 20
-546.6074495394132
 10
631.9161588908391
 20
-550.5617680241266
 10
628.0818909673108
 20
-574.7654311656879
 10
626.7637848057384
 20
-599.0891448684342
 10
626.7637848057384
 20
-623.4128585711805
 10
626.7637848057384
 20
-639.2289075043063
 10
627.243987050475
 20
-655.0461814431619
 10
627.9618404061257
 20
-670.8622303762877
 10
628.3219920896772
 20
-678.051788984334
 10
628.3219920896772
 20
-685.3601731478429
 10
628.3219920896772
 20
-692.5497317558929
 10
628.3219920896772
 20
-692.5497317558929
 10
628.3219920896772
 20
-714.3572836966796
 10
628.3219920896772
 20
-714.3572836966796
 10
628.3219920896772
 20
-715.675389858252
 10
628.3219920896772
 20
-717.1135465810057
 10
628.0818909673108
 20
-718.311602181393
 10
625.6857797665361
 20
-729.4542542684267
 10
620.1732539978839
 20
-733.7674994309673
 10
608.0701974213735
 20
-733.7674994309673
 10
604.718581754034
 20
-733.7674994309673
 10
600.7642632693205
 20
-732.9295955141315
 10
596.4473430896032
 20
-731.4914387913759
 97
        0
 97
        0
 75
     2
 76
     1
 98
        0
  0
SPLINE
  5
4D
330
45
100
AcDbEntity
  8
Layer 1
370
     0
100
AcDbSpline
210
0.0
220
0.0
230
1.0
 70
    11
 71
     3
 72
   149
 73
   145
 74
     0
 42
0.0000000001
 43
0.0000000001
 12
1.0
 22
0.0
 32
0.0
 13
1.0
 23
0.0
 33
0.0
 40
0.0
 40
0.0
 40
0.0
 40
0.0
 40
1.0
 40
1.0
 40
1.0
 40
2.0
 40
2.0
 40
2.0
 40
3.0
 40
3.0
 40
3.0
 40
4.0
 40
4.0
 40
4.0
 40
5.0
 40
5.0
 40
5.0
 40
6.0
 40
6.0
 40
6.0
 40
7.0
 40
7.0
 40
7.0
 40
8.0
 40
8.0
 40
8.0
 40
9.0
 40
9.0
 40
9.0
 40
10.0
 40
10.0
 40
10.0
 40
11.0
 40
11.0
 40
11.0
 40
12.0
 40
12.0
 40
12.0
 40
13.0
 40
13.0
 40
13.0
 40
14.0
 40
14.0
 40
14.0
 40
15.0
 40
15.0
 40
15.0
 40
16.0
 40
16.0
 40
16.0
 40
17.0
 40
17.0
 40
17.0
 40
18.0
 40
18.0
 40
18.0
 40
19.0
 40
19.0
 40
19.0
 40
20.0
 40
20.0
 40
20.0
 40
21.0
 40
21.0
 40
21.0
 40
22.0
 40
22.0
 40
22.0
 40
23.0
 40
23.0
 40
23.0
 40
24.0
 40
24.0
 40
24.0
 40
25.0
 40
25.0
 40
25.0
 40
26.0
 40
26.0
 40
26.0
 40
27.0
 40
27.0
 40
27.0
 40
28.0
 40
28.0
 40
28.0
 40
29.0
 40
29.0
 40
29.0
 40
30.0
 40
30.0
 40
30.0
 40
31.0
 40
31.0
 40
31.0
 40
32.0
 40
32.0
 40
32.0
 40
33.0
 40
33.0
 40
33.0
 40
34.0
 40
34.0
 40
34.0
 40
35.0
 40
35.0
 40
35.0
 40
36.0
 40
36.0
 40
36.0
 40
37.0
 40
37.0
 40
37.0
 40
38.0
 40
38.0
 40
38.0
 40
39.0
 40
39.0
 40
39.0
 40
40.0
 40
40.0
 40
40.0
 40
41.0
 40
41.0
 40
41.0
 40
42.0
 40
42.0
 40
42.0
 40
43.0
 40
43.0
 40
43.0
 40
44.0
 40
44.0
 40
44.0
 40
45.0
 40
45.0
 40
45.0
 40
46.0
 40
46.0
 40
46.0
 40
47.0
 40
47.0
 40
47.0
 40
48.0
 40
48.0
 40
48.0
 40
48.0
 10
730.8941715698529
 20
-737.961919038049
 30
0.0
 10
722.2676812447753
 20
-736.4037117541084
 30
0.0
 10
715.5570998757357
 20
-732.3305677139379
 30
0.0
 10
711.4851808412895
 20
-723.9429535055006
 30
0.0
 10
704.4144477886985
 20
-709.3249601727621
 30
0.0
 10
698.3041192255805
 20
-694.3468151564721
 30
0.0
 10
693.2717957016648
 20
-678.7708673457128
 30
0.0
 10
690.993285050623
 20
-671.5813087376628
 30
0.0
 10
688.5971738498483
 20
-664.3917501296146
 30
0.0
 10
685.8433609769745
 20
-657.3222420827515
 30
0.0
 10
685.480759281967
 20
-660.198555528259
 30
0.0
 10
685.3631587322379
 20
-662.953593406859
 30
0.0
 10
685.3631587322379
 20
-665.709856291187
 30
0.0
 10
685.3631587322379
 20
-669.4240736535303
 30
0.0
 10
685.6032598546044
 20
-673.1382910158773
 30
0.0
 10
686.0810120878887
 20
-676.8525083782206
 30
0.0
 10
687.0389665659095
 20
-684.6410947864624
 30
0.0
 10
687.1614671385432
 20
-692.3096306335228
 30
0.0
 10
687.1614671385432
 20
-700.0982170417665
 30
0.0
 10
687.1614671385432
 20
-700.0982170417665
 30
0.0
 10
687.1614671385432
 20
-708.485831250202
 30
0.0
 10
687.1614671385432
 20
-708.485831250202
 30
0.0
 10
687.0389665659095
 20
-721.3067411823595
 30
0.0
 10
679.1303295964826
 20
-728.3762492292226
 30
0.0
 10
669.3057836710177
 20
-734.0076005533356
 30
0.0
 10
667.5074752647088
 20
-735.0856055925378
 30
0.0
 10
665.5915663086707
 20
-735.5658078372726
 30
0.0
 10
663.7932579023654
 20
-735.5658078372726
 30
0.0
 10
660.3191416623886
 20
-735.5658078372726
 30
0.0
 10
656.9650759835931
 20
-733.8875499921505
 30
0.0
 10
653.9687119769005
 20
-731.4914387913759
 30
0.0
 10
649.5341912474505
 20
-727.897271990214
 30
0.0
 10
647.2605806193133
 20
-722.8637234605721
 30
0.0
 10
645.9424744577409
 20
-717.4724732588311
 30
0.0
 10
644.2642166126207
 20
-711.4809702511684
 30
0.0
 10
644.0241154902506
 20
-705.2505911268636
 30
0.0
 10
643.5463632569663
 20
-699.1402625637475
 30
0.0
 10
642.3458576451303
 20
-683.9220164250855
 30
0.0
 10
641.9881559730311
 20
-668.7049952921552
 30
0.0
 10
641.9881559730311
 20
-653.367923598038
 30
0.0
 10
641.9881559730311
 20
-638.1509024651041
 30
0.0
 10
642.3458576451303
 20
-622.8138307709851
 30
0.0
 10
642.468358217764
 20
-607.5968096380548
 30
0.0
 10
642.5859587674968
 20
-596.8130842288447
 30
0.0
 10
643.0661610122334
 20
-586.1481843750898
 30
0.0
 10
643.4238626843326
 20
-575.3644589658834
 30
0.0
 10
643.4238626843326
 20
-575.3644589658834
 30
0.0
 10
643.4238626843326
 20
-571.5301910423532
 30
0.0
 10
643.4238626843326
 20
-571.5301910423532
 30
0.0
 10
643.4238626843326
 20
-571.5301910423532
 30
0.0
 10
643.5463632569663
 20
-568.7751531637532
 30
0.0
 10
643.5463632569663
 20
-568.7751531637532
 30
0.0
 10
644.0241154902506
 20
-565.898839718242
 30
0.0
 10
644.3842671738057
 20
-563.1425768339159
 30
0.0
 10
644.3842671738057
 20
-560.507589516501
 30
0.0
 10
644.3842671738057
 20
-554.27598538647
 30
0.0
 10
642.8260598898632
 20
-548.2857073845371
 30
0.0
 10
638.8717414051498
 20
-542.5343054992409
 30
0.0
 10
637.6736858047661
 20
-540.7372220986599
 30
0.0
 10
637.0734329988445
 20
-538.7000375757143
 30
0.0
 10
637.0734329988445
 20
-536.54280249158
 30
0.0
 10
637.0734329988445
 20
-533.9065901684389
 30
0.0
 10
637.9137869271326
 20
-531.150327284111
 30
0.0
 10
639.231893088705
 20
-528.634165522155
 30
0.0
 10
641.6280042894759
 20
-523.8419431206039
 30
0.0
 10
644.9820699682714
 20
-519.5286979580669
 30
0.0
 10
649.7742923698206
 20
-517.1313617515661
 30
0.0
 10
655.2868181384692
 20
-514.3763238729662
 30
0.0
 10
660.9193944683066
 20
-512.9381671502124
 30
0.0
 10
666.669571347873
 20
-512.9381671502124
 30
0.0
 10
670.5062892828573
 20
-512.9381671502124
 30
0.0
 10
674.4606077675708
 20
-513.537194950406
 30
0.0
 10
678.4124762408283
 20
-515.0954022343449
 30
0.0
 10
683.8049514482991
 20
-517.0125361961091
 30
0.0
 10
687.8768704827417
 20
-520.8468041196375
 30
0.0
 10
688.7172244110334
 20
-526.2380543213785
 30
0.0
 10
691.8311889674551
 20
-546.1284723004046
 30
0.0
 10
702.7361899435782
 20
-563.023751278457
 30
0.0
 10
708.7264679455111
 20
-581.834939212551
 30
0.0
 10
711.2450797189231
 20
-589.5034750596114
 30
0.0
 10
713.4010897973276
 20
-597.4121120290365
 30
0.0
 10
715.6771504369171
 20
-605.2006984372802
 30
0.0
 10
716.2774032428388
 20
-606.9977818378593
 30
0.0
 10
716.755155476123
 20
-608.7948652384403
 30
0.0
 10
717.9532110765103
 20
-610.591948639023
 30
0.0
 10
719.15371668835
 20
-609.2738424774525
 30
0.0
 10
719.2713172380827
 20
-607.8356857546951
 30
0.0
 10
719.2713172380827
 20
-606.3987540376675
 30
0.0
 10
719.2713172380827
 20
-606.3987540376675
 30
0.0
 10
719.2713172380827
 20
-604.6016706370865
 30
0.0
 10
719.2713172380827
 20
-604.6016706370865
 30
0.0
 10
719.5114183604492
 20
-599.5681221074428
 30
0.0
 10
719.6314689216342
 20
-594.535798583529
 30
0.0
 10
719.6314689216342
 20
-589.3834244984282
 30
0.0
 10
719.6314689216342
 20
-583.7520731743189
 30
0.0
 10
719.3913677992641
 20
-578.1207218502077
 30
0.0
 10
719.0312161157126
 20
-572.3693199649151
 30
0.0
 10
718.7911149933461
 20
-568.65510260257
 30
0.0
 10
718.6735144436134
 20
-564.9408852402248
 30
0.0
 10
718.6735144436134
 20
-561.1066173166928
 30
0.0
 10
718.6735144436134
 20
-554.1559348252867
 30
0.0
 10
719.15371668835
 20
-547.087651784148
 30
0.0
 10
719.8691200325484
 20
-540.1369692927419
 30
0.0
 10
720.7094739608365
 20
-532.828585129233
 30
0.0
 10
722.985534600426
 20
-526.1180037601971
 30
0.0
 10
728.4980603690783
 20
-520.7267535584524
 30
0.0
 10
732.0922271702402
 20
-517.2514123127494
 30
0.0
 10
737.3646518165224
 20
-515.3342783509852
 30
0.0
 10
742.8747275737223
 20
-515.3342783509852
 30
0.0
 10
751.145966238153
 20
-515.3342783509852
 30
0.0
 10
759.6524060020456
 20
-519.7675740747072
 30
0.0
 10
762.7663705584746
 20
-529.8334461282684
 30
0.0
 10
763.9644261588583
 20
-533.4276129294285
 30
0.0
 10
764.6847295259649
 20
-537.1418302917737
 30
0.0
 10
764.6847295259649
 20
-540.856047654117
 30
0.0
 10
764.6847295259649
 20
-540.856047654117
 30
0.0
 10
764.5622289533276
 20
-542.773181615883
 30
0.0
 10
764.5622289533276
 20
-542.773181615883
 30
0.0
 10
763.8468256091292
 20
-555.5940915480405
 30
0.0
 10
763.0064716808411
 20
-568.2949509190184
 30
0.0
 10
762.4062188749194
 20
-580.9958102899891
 30
0.0
 10
762.166117752553
 20
-585.4303310194409
 30
0.0
 10
762.0485172028202
 20
-589.7435761819797
 30
0.0
 10
762.0485172028202
 20
-594.0568213445204
 30
0.0
 10
762.0485172028202
 20
-610.8320497613895
 30
0.0
 10
763.7243250364918
 20
-627.4872276170772
 30
0.0
 10
765.1649317707015
 20
-644.142405472765
 30
0.0
 10
766.7206890431844
 20
-660.9164088839116
 30
0.0
 10
767.4385423988388
 20
-677.8116878619676
 30
0.0
 10
768.1588457659418
 20
-694.7069668400236
 30
0.0
 10
768.1588457659418
 20
-694.7069668400236
 30
0.0
 10
768.1588457659418
 20
-695.9050224404091
 30
0.0
 10
768.1588457659418
 20
-695.9050224404091
 30
0.0
 10
768.1588457659418
 20
-703.3334571651012
 30
0.0
 10
766.2429368099038
 20
-710.4029652119643
 30
0.0
 10
762.5287194475568
 20
-716.8734454586356
 30
0.0
 10
760.970512163618
 20
-719.7485338984206
 30
0.0
 10
759.2922543184941
 20
-722.62484734393
 30
0.0
 10
757.6139964733738
 20
-725.499935783715
 30
0.0
 10
753.1794757439238
 20
-733.4085727531401
 30
0.0
 10
744.4329348576612
 20
-738.3208457158726
 30
0.0
 10
735.3286922993029
 20
-738.3208457158726
 30
0.0
 10
733.8880855650932
 20
-738.3208457158726
 30
0.0
 10
732.4523788537917
 20
-738.2007951546893
 30
0.0
 10
730.8941715698529
 20
-737.961919038049
 30
0.0
  0
HATCH
  5
4E
330
45
100
AcDbEntity
  8
Layer 1
 62
   250
420
  2301728
100
AcDbHatch
 10
0.0
 20
0.0
 30
0.0
210
0.0
220
0.0
230
1.0
  2
SOLID
 70
     1
 71
     0
 91
        1
 92
        1
 93
        1
 72
     4
 94
        3
 73
     0
 74
     1
 95
      149
 96
      145
 40
0.0
 40
0.0
 40
0.0
 40
0.0
 40
1.0
 40
1.0
 40
1.0
 40
2.0
 40
2.0
 40
2.0
 40
3.0
 40
3.0
 40
3.0
 40
4.0
 40
4.0
 40
4.0
 40
5.0
 40
5.0
 40
5.0
 40
6.0
 40
6.0
 40
6.0
 40
7.0
 40
7.0
 40
7.0
 40
8.0
 40
8.0
 40
8.0
 40
9.0
 40
9.0
 40
9.0
 40
10.0
 40
10.0
 40
10.0
 40
11.0
 40
11.0
 40
11.0
 40
12.0
 40
12.0
 40
12.0
 40
13.0
 40
13.0
 40
13.0
 40
14.0
 40
14.0
 40
14.0
 40
15.0
 40
15.0
 40
15.0
 40
16.0
 40
16.0
 40
16.0
 40
17.0
 40
17.0
 40
17.0
 40
18.0
 40
18.0
 40
18.0
 40
19.0
 40
19.0
 40
19.0
 40
20.0
 40
20.0
 40
20.0
 40
21.0
 40
21.0
 40
21.0
 40
22.0
 40
22.0
 40
22.0
 40
23.0
 40
23.0
 40
23.0
 40
24.0
 40
24.0
 40
24.0
 40
25.0
 40
25.0
 40
25.0
 40
26.0
 40
26.0
 40
26.0
 40
27.0
 40
27.0
 40
27.0
 40
28.0
 40
28.0
 40
28.0
 40
29.0
 40
29.0
 40
29.0
 40
30.0
 40
30.0
 40
30.0
 40
31.0
 40
31.0
 40
31.0
 40
32.0
 40
32.0
 40
32.0
 40
33.0
 40
33.0
 40
33.0
 40
34.0
 40
34.0
 40
34.0
 40
35.0
 40
35.0
 40
35.0
 40
36.0
 40
36.0
 40
36.0
 40
37.0
 40
37.0
 40
37.0
 40
38.0
 40
38.0
 40
38.0
 40
39.0
 40
39.0
 40
39.0
 40
40.0
 40
40.0
 40
40.0
 40
41.0
 40
41.0
 40
41.0
 40
42.0
 40
42.0
 40
42.0
 40
43.0
 40
43.0
 40
43.0
 40
44.0
 40
44.0
 40
44.0
 40
45.0
 40
45.0
 40
45.0
 40
46.0
 40
46.0
 40
46.0
 40
47.0
 40
47.0
 40
47.0
 40
48.0
 40
48.0
 40
48.0
 40
48.0
 10
730.8941715698529
 20
-737.961919038049
 10
722.2676812447753
 20
-736.4037117541084
 10
715.5570998757357
 20
-732.3305677139379
 10
711.4851808412895
 20
-723.9429535055006
 10
704.4144477886985
 20
-709.3249601727621
 10
698.3041192255805
 20
-694.3468151564721
 10
693.2717957016648
 20
-678.7708673457128
 10
690.993285050623
 20
-671.5813087376628
 10
688.5971738498483
 20
-664.3917501296146
 10
685.8433609769745
 20
-657.3222420827515
 10
685.480759281967
 20
-660.198555528259
 10
685.3631587322379
 20
-662.953593406859
 10
685.3631587322379
 20
-665.709856291187
 10
685.3631587322379
 20
-669.4240736535303
 10
685.6032598546044
 20
-673.1382910158773
 10
686.0810120878887
 20
-676.8525083782206
 10
687.0389665659095
 20
-684.6410947864624
 10
687.1614671385432
 20
-692.3096306335228
 10
687.1614671385432
 20
-700.0982170417665
 10
687.1614671385432
 20
-700.0982170417665
 10
687.1614671385432
 20
-708.485831250202
 10
687.1614671385432
 20
-708.485831250202
 10
687.0389665659095
 20
-721.3067411823595
 10
679.1303295964826
 20
-728.3762492292226
 10
669.3057836710177
 20
-734.0076005533356
 10
667.5074752647088
 20
-735.0856055925378
 10
665.5915663086707
 20
-735.5658078372726
 10
663.7932579023654
 20
-735.5658078372726
 10
660.3191416623886
 20
-735.5658078372726
 10
656.9650759835931
 20
-733.8875499921505
 10
653.9687119769005
 20
-731.4914387913759
 10
649.5341912474505
 20
-727.897271990214
 10
647.2605806193133
 20
-722.8637234605721
 10
645.9424744577409
 20
-717.4724732588311
 10
644.2642166126207
 20
-711.4809702511684
 10
644.0241154902506
 20
-705.2505911268636
 10
643.5463632569663
 20
-699.1402625637475
 10
642.3458576451303
 20
-683.9220164250855
 10
641.9881559730311
 20
-668.7049952921552
 10
641.9881559730311
 20
-653.367923598038
 10
641.9881559730311
 20
-638.1509024651041
 10
642.3458576451303
 20
-622.8138307709851
 10
642.468358217764
 20
-607.5968096380548
 10
642.5859587674968
 20
-596.8130842288447
 10
643.0661610122334
 20
-586.1481843750898
 10
643.4238626843326
 20
-575.3644589658834
 10
643.4238626843326
 20
-575.3644589658834
 10
643.4238626843326
 20
-571.5301910423532
 10
643.4238626843326
 20
-571.5301910423532
 10
643.4238626843326
 20
-571.5301910423532
 10
643.5463632569663
 20
-568.7751531637532
 10
643.5463632569663
 20
-568.7751531637532
 10
644.0241154902506
 20
-565.898839718242
 10
644.3842671738057
 20
-563.1425768339159
 10
644.3842671738057
 20
-560.507589516501
 10
644.3842671738057
 20
-554.27598538647
 10
642.8260598898632
 20
-548.2857073845371
 10
638.8717414051498
 20
-542.5343054992409
 10
637.6736858047661
 20
-540.7372220986599
 10
637.0734329988445
 20
-538.7000375757143
 10
637.0734329988445
 20
-536.54280249158
 10
637.0734329988445
 20
-533.9065901684389
 10
637.9137869271326
 20
-531.150327284111
 10
639.231893088705
 20
-528.634165522155
 10
641.6280042894759
 20
-523.8419431206039
 10
644.9820699682714
 20
-519.5286979580669
 10
649.7742923698206
 20
-517.1313617515661
 10
655.2868181384692
 20
-514.3763238729662
 10
660.9193944683066
 20
-512.9381671502124
 10
666.669571347873
 20
-512.9381671502124
 10
670.5062892828573
 20
-512.9381671502124
 10
674.4606077675708
 20
-513.537194950406
 10
678.4124762408283
 20
-515.0954022343449
 10
683.8049514482991
 20
-517.0125361961091
 10
687.8768704827417
 20
-520.8468041196375
 10
688.7172244110334
 20
-526.2380543213785
 10
691.8311889674551
 20
-546.1284723004046
 10
702.7361899435782
 20
-563.023751278457
 10
708.7264679455111
 20
-581.834939212551
 10
711.2450797189231
 20
-589.5034750596114
 10
713.4010897973276
 20
-597.4121120290365
 10
715.6771504369171
 20
-605.2006984372802
 10
716.2774032428388
 20
-606.9977818378593
 10
716.755155476123
 20
-608.7948652384403
 10
717.9532110765103
 20
-610.591948639023
 10
719.15371668835
 20
-609.2738424774525
 10
719.2713172380827
 20
-607.8356857546951
 10
719.2713172380827
 20
-606.3987540376675
 10
719.2713172380827
 20
-606.3987540376675
 10
719.2713172380827
 20
-604.6016706370865
 10
719.2713172380827
 20
-604.6016706370865
 10
719.5114183604492
 20
-599.5681221074428
 10
719.6314689216342
 20
-594.535798583529
 10
719.6314689216342
 20
-589.3834244984282
 10
719.6314689216342
 20
-583.7520731743189
 10
719.3913677992641
 20
-578.1207218502077
 10
719.0312161157126
 20
-572.3693199649151
 10
718.7911149933461
 20
-568.65510260257
 10
718.6735144436134
 20
-564.9408852402248
 10
718.6735144436134
 20
-561.1066173166928
 10
718.6735144436134
 20
-554.1559348252867
 10
719.15371668835
 20
-547.087651784148
 10
719.8691200325484
 20
-540.1369692927419
 10
720.7094739608365
 20
-532.828585129233
 10
722.985534600426
 20
-526.1180037601971
 10
728.4980603690783
 20
-520.7267535584524
 10
732.0922271702402
 20
-517.2514123127494
 10
737.3646518165224
 20
-515.3342783509852
 10
742.8747275737223
 20
-515.3342783509852
 10
751.145966238153
 20
-515.3342783509852
 10
759.6524060020456
 20
-519.7675740747072
 10
762.7663705584746
 20
-529.8334461282684
 10
763.9644261588583
 20
-533.4276129294285
 10
764.6847295259649
 20
-537.1418302917737
 10
764.6847295259649
 20
-540.856047654117
 10
764.6847295259649
 20
-540.856047654117
 10
764.5622289533276
 20
-542.773181615883
 10
764.5622289533276
 20
-542.773181615883
 10
763.8468256091292
 20
-555.5940915480405
 10
763.0064716808411
 20
-568.2949509190184
 10
762.4062188749194
 20
-580.9958102899891
 10
762.166117752553
 20
-585.4303310194409
 10
762.0485172028202
 20
-589.7435761819797
 10
762.0485172028202
 20
-594.0568213445204
 10
762.0485172028202
 20
-610.8320497613895
 10
763.7243250364918
 20
-627.4872276170772
 10
765.1649317707015
 20
-644.142405472765
 10
766.7206890431844
 20
-660.9164088839116
 10
767.4385423988388
 20
-677.8116878619676
 10
768.1588457659418
 20
-694.7069668400236
 10
768.1588457659418
 20
-694.7069668400236
 10
768.1588457659418
 20
-695.9050224404091
 10
768.1588457659418
 20
-695.9050224404091
 10
768.1588457659418
 20
-703.3334571651012
 10
766.2429368099038
 20
-710.4029652119643
 10
762.5287194475568
 20
-716.8734454586356
 10
760.970512163618
 20
-719.7485338984206
 10
759.2922543184941
 20
-722.62484734393
 10
757.6139964733738
 20
-725.499935783715
 10
753.1794757439238
 20
-733.4085727531401
 10
744.4329348576612
 20
-738.3208457158726
 10
735.3286922993029
 20
-738.3208457158726
 10
733.8880855650932
 20
-738.3208457158726
 10
732.4523788537917
 20
-738.2007951546893
 10
730.8941715698529
 20
-737.961919038049
 97
        0
 97
        0
 75
     2
 76
     1
 98
        0
  0
SPLINE
  5
4F
330
45
100
AcDbEntity
  8
Layer 1
370
     0
100
AcDbSpline
210
0.0
220
0.0
230
1.0
 70
    11
 71
     3
 72
   158
 73
   154
 74
     0
 42
0.0000000001
 43
0.0000000001
 12
1.0
 22
0.0
 32
0.0
 13
1.0
 23
0.0
 33
0.0
 40
0.0
 40
0.0
 40
0.0
 40
0.0
 40
1.0
 40
1.0
 40
1.0
 40
2.0
 40
2.0
 40
2.0
 40
3.0
 40
3.0
 40
3.0
 40
4.0
 40
4.0
 40
4.0
 40
5.0
 40
5.0
 40
5.0
 40
6.0
 40
6.0
 40
6.0
 40
7.0
 40
7.0
 40
7.0
 40
8.0
 40
8.0
 40
8.0
 40
9.0
 40
9.0
 40
9.0
 40
10.0
 40
10.0
 40
10.0
 40
11.0
 40
11.0
 40
11.0
 40
12.0
 40
12.0
 40
12.0
 40
13.0
 40
13.0
 40
13.0
 40
14.0
 40
14.0
 40
14.0
 40
15.0
 40
15.0
 40
15.0
 40
16.0
 40
16.0
 40
16.0
 40
17.0
 40
17.0
 40
17.0
 40
18.0
 40
18.0
 40
18.0
 40
19.0
 40
19.0
 40
19.0
 40
20.0
 40
20.0
 40
20.0
 40
21.0
 40
21.0
 40
21.0
 40
22.0
 40
22.0
 40
22.0
 40
23.0
 40
23.0
 40
23.0
 40
24.0
 40
24.0
 40
24.0
 40
25.0
 40
25.0
 40
25.0
 40
26.0
 40
26.0
 40
26.0
 40
27.0
 40
27.0
 40
27.0
 40
28.0
 40
28.0
 40
28.0
 40
29.0
 40
29.0
 40
29.0
 40
30.0
 40
30.0
 40
30.0
 40
31.0
 40
31.0
 40
31.0
 40
32.0
 40
32.0
 40
32.0
 40
33.0
 40
33.0
 40
33.0
 40
34.0
 40
34.0
 40
34.0
 40
35.0
 40
35.0
 40
35.0
 40
36.0
 40
36.0
 40
36.0
 40
37.0
 40
37.0
 40
37.0
 40
38.0
 40
38.0
 40
38.0
 40
39.0
 40
39.0
 40
39.0
 40
40.0
 40
40.0
 40
40.0
 40
41.0
 40
41.0
 40
41.0
 40
42.0
 40
42.0
 40
42.0
 40
43.0
 40
43.0
 40
43.0
 40
44.0
 40
44.0
 40
44.0
 40
45.0
 40
45.0
 40
45.0
 40
46.0
 40
46.0
 40
46.0
 40
47.0
 40
47.0
 40
47.0
 40
48.0
 40
48.0
 40
48.0
 40
49.0
 40
49.0
 40
49.0
 40
50.0
 40
50.0
 40
50.0
 40
51.0
 40
51.0
 40
51.0
 40
51.0
 10
802.9196082573362
 20
-735.6846333927297
 30
0.0
 10
793.8153656989743
 20
-735.0856055925378
 30
0.0
 10
789.0231432974288
 20
-728.6163503515909
 30
0.0
 10
785.666627607181
 20
-721.3067411823595
 30
0.0
 10
783.750718651143
 20
-717.1135465810057
 30
0.0
 10
783.2705164064064
 20
-712.4401497349136
 30
0.0
 10
782.5502130393033
 20
-707.8868034500065
 30
0.0
 10
780.7543546444467
 20
-695.065893517849
 30
0.0
 10
780.1541018385287
 20
-682.2449835856914
 30
0.0
 10
780.1541018385287
 20
-668.5849447309683
 30
0.0
 10
780.1541018385287
 20
-652.8889463590294
 30
0.0
 10
780.8744052056318
 20
-635.9936673809734
 30
0.0
 10
781.4722080001011
 20
-616.822327763326
 30
0.0
 10
781.8323596836526
 20
-606.1586529152974
 30
0.0
 10
781.4722080001011
 20
-587.2274144200219
 30
0.0
 10
782.5502130393033
 20
-568.2949509190184
 30
0.0
 10
783.1504658452213
 20
-557.990202748817
 30
0.0
 10
785.4265264848109
 20
-547.9255557009838
 30
0.0
 10
786.1468298519176
 20
-537.6208075307823
 30
0.0
 10
786.2644304016467
 20
-536.1838758137546
 30
0.0
 10
786.5045315240168
 20
-534.8657696521841
 30
0.0
 10
786.5045315240168
 20
-533.4276129294285
 30
0.0
 10
786.5045315240168
 20
-532.7085345680516
 30
0.0
 10
786.386930974284
 20
-531.8694056454897
 30
0.0
 10
786.2644304016467
 20
-531.0315017286539
 30
0.0
 10
785.9067287295475
 20
-529.5933450059001
 30
0.0
 10
785.786678168366
 20
-528.2752388443278
 30
0.0
 10
785.786678168366
 20
-527.0771832439405
 30
0.0
 10
785.786678168366
 20
-523.3629658815935
 30
0.0
 10
787.4649360134863
 20
-520.9656296750964
 30
0.0
 10
791.5368550479325
 20
-518.5695184743199
 30
0.0
 10
795.611224093831
 20
-516.1734072735471
 30
0.0
 10
800.043294811825
 20
-514.9753516731598
 30
0.0
 10
804.5978661024601
 20
-514.2562733117829
 30
0.0
 10
812.506503071887
 20
-513.0582177113956
 30
0.0
 10
820.652791152228
 20
-512.5792404723852
 30
0.0
 10
828.6839286942886
 20
-512.5792404723852
 30
0.0
 10
834.9118578071393
 20
-512.5792404723852
 30
0.0
 10
841.0221863702609
 20
-512.8181165890255
 30
0.0
 10
847.2550155060162
 20
-513.2970938280359
 30
0.0
 10
854.44334910834
 20
-513.7772960727743
 30
0.0
 10
861.273981038561
 20
-516.8924856349258
 30
0.0
 10
868.4623146408849
 20
-518.0905412353113
 30
0.0
 10
872.1765320032282
 20
-518.8096195966882
 30
0.0
 10
874.4550426542737
 20
-521.4458319198311
 30
0.0
 10
875.6506482432087
 20
-525.0399987209912
 30
0.0
 10
877.0912549774148
 20
-528.9943172057083
 30
0.0
 10
877.6890577718805
 20
-532.828585129233
 30
0.0
 10
877.6890577718805
 20
-536.6628530527651
 30
0.0
 10
877.6890577718805
 20
-541.8152271378658
 30
0.0
 10
876.4910021714932
 20
-546.9676012229666
 30
0.0
 10
874.3325420816363
 20
-551.9999247468804
 30
0.0
 10
873.6146887259856
 20
-553.7970081474614
 30
0.0
 10
872.4166331255983
 20
-555.7141421092274
 30
0.0
 10
870.6183247192894
 20
-556.4332204706025
 30
0.0
 10
864.7480972785379
 20
-558.4704049935517
 30
0.0
 10
859.1179709601565
 20
-561.3454934333349
 30
0.0
 10
852.7675412746685
 20
-561.3454934333349
 30
0.0
 10
852.7675412746685
 20
-561.3454934333349
 30
0.0
 10
851.6895362354662
 20
-561.3454934333349
 30
0.0
 10
851.6895362354662
 20
-561.3454934333349
 30
0.0
 10
845.8168587832588
 20
-560.9865667555114
 30
0.0
 10
839.9441813310586
 20
-560.6264150719599
 30
0.0
 10
833.9539033291221
 20
-560.507589516501
 30
0.0
 10
833.9539033291221
 20
-560.507589516501
 30
0.0
 10
832.6382471790021
 20
-560.507589516501
 30
0.0
 10
832.6382471790021
 20
-560.507589516501
 30
0.0
 10
828.6839286942886
 20
-560.507589516501
 30
0.0
 10
828.2037264495557
 20
-561.2254428721517
 30
0.0
 10
827.6034736436341
 20
-565.7787891570606
 30
0.0
 10
825.8076152487811
 20
-576.0835373272585
 30
0.0
 10
824.8472107593079
 20
-586.5083360586432
 30
0.0
 10
824.8472107593079
 20
-596.9331347900279
 30
0.0
 10
824.8472107593079
 20
-596.9331347900279
 30
0.0
 10
824.8472107593079
 20
-598.6101676294256
 30
0.0
 10
824.8472107593079
 20
-598.6101676294256
 30
0.0
 10
824.9697113319453
 20
-603.7625417145264
 30
0.0
 10
825.0873118816744
 20
-603.8825922757078
 30
0.0
 10
830.5998376503267
 20
-604.1214683923481
 30
0.0
 10
830.5998376503267
 20
-604.1214683923481
 30
0.0
 10
838.7485757421236
 20
-604.241518953535
 30
0.0
 10
838.7485757421236
 20
-604.241518953535
 30
0.0
 10
838.7485757421236
 20
-604.241518953535
 30
0.0
 10
848.092919422852
 20
-604.1214683923481
 30
0.0
 10
848.092919422852
 20
-604.1214683923481
 30
0.0
 10
858.757819276605
 20
-604.1214683923481
 30
0.0
 10
864.0277939114349
 20
-607.4767590768697
 30
0.0
 10
867.2642590404976
 20
-616.2232999631306
 30
0.0
 10
868.4623146408849
 20
-619.3384895252821
 30
0.0
 10
868.9425168856214
 20
-622.3348535319765
 30
0.0
 10
868.9425168856214
 20
-625.0911164163044
 30
0.0
 10
868.9425168856214
 20
-631.3214955406074
 30
0.0
 10
866.0662034401103
 20
-636.8327963035335
 30
0.0
 10
860.7937787938245
 20
-641.745069266266
 30
0.0
 10
853.8455463138707
 20
-648.0967239574766
 30
0.0
 10
846.0545098941766
 20
-650.6128857194362
 30
0.0
 10
837.7881712526505
 20
-650.6128857194362
 30
0.0
 10
834.5541561350401
 20
-650.6128857194362
 30
0.0
 10
831.0800398950632
 20
-650.2527340358847
 30
0.0
 10
827.7235242048191
 20
-649.5336556745078
 30
0.0
 10
826.0477163711475
 20
-649.1747289966825
 30
0.0
 10
824.9697113319453
 20
-648.9346278743124
 30
0.0
 10
824.0093068424721
 20
-648.9346278743124
 30
0.0
 10
822.0933978864341
 20
-648.9346278743124
 30
0.0
 10
821.7332462028826
 20
-650.1326834747015
 30
0.0
 10
821.4931450805161
 20
-653.7280752815914
 30
0.0
 10
821.253043958146
 20
-656.2442370435474
 30
0.0
 10
821.132993396961
 20
-658.7603988055052
 30
0.0
 10
821.132993396961
 20
-661.2765605674631
 30
0.0
 10
821.132993396961
 20
-668.8250458533385
 30
0.0
 10
821.9708973137967
 20
-676.373531139212
 30
0.0
 10
823.4115040480065
 20
-683.8031908696266
 30
0.0
 10
823.7692057201057
 20
-686.1993020704031
 30
0.0
 10
824.9697113319453
 20
-686.9183804317781
 30
0.0
 10
826.5254686044318
 20
-686.9183804317781
 30
0.0
 10
827.0032208377124
 20
-686.9183804317781
 30
0.0
 10
827.483423082449
 20
-686.9183804317781
 30
0.0
 10
828.0836758883706
 20
-686.7983298705967
 30
0.0
 10
829.7619337334909
 20
-686.3193526315863
 30
0.0
 10
831.5577921283475
 20
-685.8391503868515
 30
0.0
 10
833.1159994122863
 20
-685.2401225866561
 30
0.0
 10
835.3920600518759
 20
-684.4022186698221
 30
0.0
 10
837.7881712526505
 20
-683.8031908696266
 30
0.0
 10
840.1842824534251
 20
-683.8031908696266
 30
0.0
 10
840.1842824534251
 20
-683.8031908696266
 30
0.0
 10
840.9045858205282
 20
-683.8031908696266
 30
0.0
 10
840.9045858205282
 20
-683.8031908696266
 30
0.0
 10
850.1313289515274
 20
-684.282168108637
 30
0.0
 10
859.2355715098856
 20
-684.521044225281
 30
0.0
 10
868.4623146408849
 20
-685.4802237090244
 30
0.0
 10
877.8091083330655
 20
-686.3193526315863
 30
0.0
 10
883.0815329793477
 20
-691.710602833331
 30
0.0
 10
884.2795885797386
 20
-700.9373459643266
 30
0.0
 10
884.3971891294677
 20
-702.4943282425393
 30
0.0
 10
884.5196897021051
 20
-703.932484965293
 30
0.0
 10
884.5196897021051
 20
-705.4906922492319
 30
0.0
 10
884.5196897021051
 20
-711.7210713735349
 30
0.0
 10
882.8414318569812
 20
-717.5925238200143
 30
0.0
 10
879.8450678502886
 20
-723.2238751441255
 30
0.0
 10
878.7670628110827
 20
-725.381110228258
 30
0.0
 10
877.0912549774148
 20
-727.1781936288371
 30
0.0
 10
874.8127443263729
 20
-728.2561986680394
 30
0.0
 10
867.7444612852341
 20
-731.8503654692013
 30
0.0
 10
860.1959759993588
 20
-734.247701675702
 30
0.0
 10
852.1672884687505
 20
-734.247701675702
 30
0.0
 10
845.6968082220774
 20
-734.247701675702
 30
0.0
 10
839.4664290977744
 20
-734.7266789147125
 30
0.0
 10
833.1159994122863
 20
-735.4457572760894
 30
0.0
 10
828.2037264495557
 20
-736.0447850762812
 30
0.0
 10
823.2890034753691
 20
-736.2848861986513
 30
0.0
 10
818.4967810738199
 20
-736.2848861986513
 30
0.0
 10
813.2243564275341
 20
-736.2848861986513
 30
0.0
 10
808.0744323538893
 20
-736.0447850762812
 30
0.0
 10
802.9196082573362
 20
-735.6846333927297
 30
0.0
  0
HATCH
  5
50
330
45
100
AcDbEntity
  8
Layer 1
 62
   250
420
  2301728
100
AcDbHatch
 10
0.0
 20
0.0
 30
0.0
210
0.0
220
0.0
230
1.0
  2
SOLID
 70
     1
 71
     0
 91
        1
 92
        1
 93
        1
 72
     4
 94
        3
 73
     0
 74
     1
 95
      158
 96
      154
 40
0.0
 40
0.0
 40
0.0
 40
0.0
 40
1.0
 40
1.0
 40
1.0
 40
2.0
 40
2.0
 40
2.0
 40
3.0
 40
3.0
 40
3.0
 40
4.0
 40
4.0
 40
4.0
 40
5.0
 40
5.0
 40
5.0
 40
6.0
 40
6.0
 40
6.0
 40
7.0
 40
7.0
 40
7.0
 40
8.0
 40
8.0
 40
8.0
 40
9.0
 40
9.0
 40
9.0
 40
10.0
 40
10.0
 40
10.0
 40
11.0
 40
11.0
 40
11.0
 40
12.0
 40
12.0
 40
12.0
 40
13.0
 40
13.0
 40
13.0
 40
14.0
 40
14.0
 40
14.0
 40
15.0
 40
15.0
 40
15.0
 40
16.0
 40
16.0
 40
16.0
 40
17.0
 40
17.0
 40
17.0
 40
18.0
 40
18.0
 40
18.0
 40
19.0
 40
19.0
 40
19.0
 40
20.0
 40
20.0
 40
20.0
 40
21.0
 40
21.0
 40
21.0
 40
22.0
 40
22.0
 40
22.0
 40
23.0
 40
23.0
 40
23.0
 40
24.0
 40
24.0
 40
24.0
 40
25.0
 40
25.0
 40
25.0
 40
26.0
 40
26.0
 40
26.0
 40
27.0
 40
27.0
 40
27.0
 40
28.0
 40
28.0
 40
28.0
 40
29.0
 40
29.0
 40
29.0
 40
30.0
 40
30.0
 40
30.0
 40
31.0
 40
31.0
 40
31.0
 40
32.0
 40
32.0
 40
32.0
 40
33.0
 40
33.0
 40
33.0
 40
34.0
 40
34.0
 40
34.0
 40
35.0
 40
35.0
 40
35.0
 40
36.0
 40
36.0
 40
36.0
 40
37.0
 40
37.0
 40
37.0
 40
38.0
 40
38.0
 40
38.0
 40
39.0
 40
39.0
 40
39.0
 40
40.0
 40
40.0
 40
40.0
 40
41.0
 40
41.0
 40
41.0
 40
42.0
 40
42.0
 40
42.0
 40
43.0
 40
43.0
 40
43.0
 40
44.0
 40
44.0
 40
44.0
 40
45.0
 40
45.0
 40
45.0
 40
46.0
 40
46.0
 40
46.0
 40
47.0
 40
47.0
 40
47.0
 40
48.0
 40
48.0
 40
48.0
 40
49.0
 40
49.0
 40
49.0
 40
50.0
 40
50.0
 40
50.0
 40
51.0
 40
51.0
 40
51.0
 40
51.0
 10
802.9196082573362
 20
-735.6846333927297
 10
793.8153656989743
 20
-735.0856055925378
 10
789.0231432974288
 20
-728.6163503515909
 10
785.666627607181
 20
-721.3067411823595
 10
783.750718651143
 20
-717.1135465810057
 10
783.2705164064064
 20
-712.4401497349136
 10
782.5502130393033
 20
-707.8868034500065
 10
780.7543546444467
 20
-695.065893517849
 10
780.1541018385287
 20
-682.2449835856914
 10
780.1541018385287
 20
-668.5849447309683
 10
780.1541018385287
 20
-652.8889463590294
 10
780.8744052056318
 20
-635.9936673809734
 10
781.4722080001011
 20
-616.822327763326
 10
781.8323596836526
 20
-606.1586529152974
 10
781.4722080001011
 20
-587.2274144200219
 10
782.5502130393033
 20
-568.2949509190184
 10
783.1504658452213
 20
-557.990202748817
 10
785.4265264848109
 20
-547.9255557009838
 10
786.1468298519176
 20
-537.6208075307823
 10
786.2644304016467
 20
-536.1838758137546
 10
786.5045315240168
 20
-534.8657696521841
 10
786.5045315240168
 20
-533.4276129294285
 10
786.5045315240168
 20
-532.7085345680516
 10
786.386930974284
 20
-531.8694056454897
 10
786.2644304016467
 20
-531.0315017286539
 10
785.9067287295475
 20
-529.5933450059001
 10
785.786678168366
 20
-528.2752388443278
 10
785.786678168366
 20
-527.0771832439405
 10
785.786678168366
 20
-523.3629658815935
 10
787.4649360134863
 20
-520.9656296750964
 10
791.5368550479325
 20
-518.5695184743199
 10
795.611224093831
 20
-516.1734072735471
 10
800.043294811825
 20
-514.9753516731598
 10
804.5978661024601
 20
-514.2562733117829
 10
812.506503071887
 20
-513.0582177113956
 10
820.652791152228
 20
-512.5792404723852
 10
828.6839286942886
 20
-512.5792404723852
 10
834.9118578071393
 20
-512.5792404723852
 10
841.0221863702609
 20
-512.8181165890255
 10
847.2550155060162
 20
-513.2970938280359
 10
854.44334910834
 20
-513.7772960727743
 10
861.273981038561
 20
-516.8924856349258
 10
868.4623146408849
 20
-518.0905412353113
 10
872.1765320032282
 20
-518.8096195966882
 10
874.4550426542737
 20
-521.4458319198311
 10
875.6506482432087
 20
-525.0399987209912
 10
877.0912549774148
 20
-528.9943172057083
 10
877.6890577718805
 20
-532.828585129233
 10
877.6890577718805
 20
-536.6628530527651
 10
877.6890577718805
 20
-541.8152271378658
 10
876.4910021714932
 20
-546.9676012229666
 10
874.3325420816363
 20
-551.9999247468804
 10
873.6146887259856
 20
-553.7970081474614
 10
872.4166331255983
 20
-555.7141421092274
 10
870.6183247192894
 20
-556.4332204706025
 10
864.7480972785379
 20
-558.4704049935517
 10
859.1179709601565
 20
-561.3454934333349
 10
852.7675412746685
 20
-561.3454934333349
 10
852.7675412746685
 20
-561.3454934333349
 10
851.6895362354662
 20
-561.3454934333349
 10
851.6895362354662
 20
-561.3454934333349
 10
845.8168587832588
 20
-560.9865667555114
 10
839.9441813310586
 20
-560.6264150719599
 10
833.9539033291221
 20
-560.507589516501
 10
833.9539033291221
 20
-560.507589516501
 10
832.6382471790021
 20
-560.507589516501
 10
832.6382471790021
 20
-560.507589516501
 10
828.6839286942886
 20
-560.507589516501
 10
828.2037264495557
 20
-561.2254428721517
 10
827.6034736436341
 20
-565.7787891570606
 10
825.8076152487811
 20
-576.0835373272585
 10
824.8472107593079
 20
-586.5083360586432
 10
824.8472107593079
 20
-596.9331347900279
 10
824.8472107593079
 20
-596.9331347900279
 10
824.8472107593079
 20
-598.6101676294256
 10
824.8472107593079
 20
-598.6101676294256
 10
824.9697113319453
 20
-603.7625417145264
 10
825.0873118816744
 20
-603.8825922757078
 10
830.5998376503267
 20
-604.1214683923481
 10
830.5998376503267
 20
-604.1214683923481
 10
838.7485757421236
 20
-604.241518953535
 10
838.7485757421236
 20
-604.241518953535
 10
838.7485757421236
 20
-604.241518953535
 10
848.092919422852
 20
-604.1214683923481
 10
848.092919422852
 20
-604.1214683923481
 10
858.757819276605
 20
-604.1214683923481
 10
864.0277939114349
 20
-607.4767590768697
 10
867.2642590404976
 20
-616.2232999631306
 10
868.4623146408849
 20
-619.3384895252821
 10
868.9425168856214
 20
-622.3348535319765
 10
868.9425168856214
 20
-625.0911164163044
 10
868.9425168856214
 20
-631.3214955406074
 10
866.0662034401103
 20
-636.8327963035335
 10
860.7937787938245
 20
-641.745069266266
 10
853.8455463138707
 20
-648.0967239574766
 10
846.0545098941766
 20
-650.6128857194362
 10
837.7881712526505
 20
-650.6128857194362
 10
834.5541561350401
 20
-650.6128857194362
 10
831.0800398950632
 20
-650.2527340358847
 10
827.7235242048191
 20
-649.5336556745078
 10
826.0477163711475
 20
-649.1747289966825
 10
824.9697113319453
 20
-648.9346278743124
 10
824.0093068424721
 20
-648.9346278743124
 10
822.0933978864341
 20
-648.9346278743124
 10
821.7332462028826
 20
-650.1326834747015
 10
821.4931450805161
 20
-653.7280752815914
 10
821.253043958146
 20
-656.2442370435474
 10
821.132993396961
 20
-658.7603988055052
 10
821.132993396961
 20
-661.2765605674631
 10
821.132993396961
 20
-668.8250458533385
 10
821.9708973137967
 20
-676.373531139212
 10
823.4115040480065
 20
-683.8031908696266
 10
823.7692057201057
 20
-686.1993020704031
 10
824.9697113319453
 20
-686.9183804317781
 10
826.5254686044318
 20
-686.9183804317781
 10
827.0032208377124
 20
-686.9183804317781
 10
827.483423082449
 20
-686.9183804317781
 10
828.0836758883706
 20
-686.7983298705967
 10
829.7619337334909
 20
-686.3193526315863
 10
831.5577921283475
 20
-685.8391503868515
 10
833.1159994122863
 20
-685.2401225866561
 10
835.3920600518759
 20
-684.4022186698221
 10
837.7881712526505
 20
-683.8031908696266
 10
840.1842824534251
 20
-683.8031908696266
 10
840.1842824534251
 20
-683.8031908696266
 10
840.9045858205282
 20
-683.8031908696266
 10
840.9045858205282
 20
-683.8031908696266
 10
850.1313289515274
 20
-684.282168108637
 10
859.2355715098856
 20
-684.521044225281
 10
868.4623146408849
 20
-685.4802237090244
 10
877.8091083330655
 20
-686.3193526315863
 10
883.0815329793477
 20
-691.710602833331
 10
884.2795885797386
 20
-700.9373459643266
 10
884.3971891294677
 20
-702.4943282425393
 10
884.5196897021051
 20
-703.932484965293
 10
884.5196897021051
 20
-705.4906922492319
 10
884.5196897021051
 20
-711.7210713735349
 10
882.8414318569812
 20
-717.5925238200143
 10
879.8450678502886
 20
-723.2238751441255
 10
878.7670628110827
 20
-725.381110228258
 10
877.0912549774148
 20
-727.1781936288371
 10
874.8127443263729
 20
-728.2561986680394
 10
867.7444612852341
 20
-731.8503654692013
 10
860.1959759993588
 20
-734.247701675702
 10
852.1672884687505
 20
-734.247701675702
 10
845.6968082220774
 20
-734.247701675702
 10
839.4664290977744
 20
-734.7266789147125
 10
833.1159994122863
 20
-735.4457572760894
 10
828.2037264495557
 20
-736.0447850762812
 10
823.2890034753691
 20
-736.2848861986513
 10
818.4967810738199
 20
-736.2848861986513
 10
813.2243564275341
 20
-736.2848861986513
 10
808.0744323538893
 20
-736.0447850762812
 10
802.9196082573362
 20
-735.6846333927297
 97
        0
 97
        0
 75
     2
 76
     1
 98
        0
  0
ENDBLK
  5
48
330
45
100
AcDbEntity
  8
0
100
AcDbBlockEnd
  0
BLOCK
  5
53
330
51
100
AcDbEntity
  8
0
100
AcDbBlockBegin
  2
block 4
 70
     0
 10
0.0
 20
0.0
 30
0.0
  3
block 4
  1

  0
POLYLINE
  5
55
330
51
100
AcDbEntity
  8
Layer 1
370
     0
100
AcDb2dPolyline
 66
     1
 10
0.0
 20
0.0
 30
0.0
  0
VERTEX
  5
56
330
55
100
AcDbEntity
  8
Layer 1
370
     0
100
AcDbVertex
100
AcDb2dVertex
 10
530.8213363166615
 20
-487.4090478127182
 30
0.0
  0
VERTEX
  5
57
330
55
100
AcDbEntity
  8
Layer 1
370
     0
100
AcDbVertex
100
AcDb2dVertex
 10
509.6385372963214
 20
-399.9019887554077
 30
0.0
  0
VERTEX
  5
58
330
55
100
AcDbEntity
  8
Layer 1
370
     0
100
AcDbVertex
100
AcDb2dVertex
 10
488.3528377949651
 20
-487.4090478127182
 30
0.0
  0
VERTEX
  5
59
330
55
100
AcDbEntity
  8
Layer 1
370
     0
100
AcDbVertex
100
AcDb2dVertex
 10
464.8155777685479
 20
-487.4090478127182
 30
0.0
  0
VERTEX
  5
5A
330
55
100
AcDbEntity
  8
Layer 1
370
     0
100
AcDbVertex
100
AcDb2dVertex
 10
440.4575639054619
 20
-365.6324535602889
 30
0.0
  0
VERTEX
  5
5B
330
55
100
AcDbEntity
  8
Layer 1
370
     0
100
AcDbVertex
100
AcDb2dVertex
 10
428.4843579359504
 20
-365.6324535602889
 30
0.0
  0
VERTEX
  5
5C
330
55
100
AcDbEntity
  8
Layer 1
370
     0
100
AcDbVertex
100
AcDb2dVertex
 10
428.4843579359504
 20
-341.0759887695312
 30
0.0
  0
VERTEX
  5
5D
330
55
100
AcDbEntity
  8
Layer 1
370
     0
100
AcDbVertex
100
AcDb2dVertex
 10
477.1979356506663
 20
-341.0759887695312
 30
0.0
  0
VERTEX
  5
5E
330
55
100
AcDbEntity
  8
Layer 1
370
     0
100
AcDbVertex
100
AcDb2dVertex
 10
477.1979356506663
 20
-365.6324535602889
 30
0.0
  0
VERTEX
  5
5F
330
55
100
AcDbEntity
  8
Layer 1
370
     0
100
AcDbVertex
100
AcDb2dVertex
 10
469.2157983376583
 20
-365.6324535602889
 30
0.0
  0
VERTEX
  5
60
330
55
100
AcDbEntity
  8
Layer 1
370
     0
100
AcDbVertex
100
AcDb2dVertex
 10
477.9133389948638
 20
-414.838483577003
 30
0.0
  0
VERTEX
  5
61
330
55
100
AcDbEntity
  8
Layer 1
370
     0
100
AcDbVertex
100
AcDb2dVertex
 10
498.8927870646294
 20
-341.0759887695312
 30
0.0
  0
VERTEX
  5
62
330
55
100
AcDbEntity
  8
Layer 1
370
     0
100
AcDbVertex
100
AcDb2dVertex
 10
520.281387046999
 20
-341.0759887695312
 30
0.0
  0
VERTEX
  5
63
330
55
100
AcDbEntity
  8
Layer 1
370
     0
100
AcDbVertex
100
AcDb2dVertex
 10
541.2608351167619
 20
-414.838483577003
 30
0.0
  0
VERTEX
  5
64
330
55
100
AcDbEntity
  8
Layer 1
370
     0
100
AcDbVertex
100
AcDb2dVertex
 10
549.9608257854234
 20
-365.6324535602889
 30
0.0
  0
VERTEX
  5
65
330
55
100
AcDbEntity
  8
Layer 1
370
     0
100
AcDbVertex
100
AcDb2dVertex
 10
542.0791389419755
 20
-365.6324535602889
 30
0.0
  0
VERTEX
  5
66
330
55
100
AcDbEntity
  8
Layer 1
370
     0
100
AcDbVertex
100
AcDb2dVertex
 10
542.0791389419755
 20
-341.0759887695312
 30
0.0
  0
VERTEX
  5
67
330
55
100
AcDbEntity
  8
Layer 1
370
     0
100
AcDbVertex
100
AcDb2dVertex
 10
590.7927166566951
 20
-341.0759887695312
 30
0.0
  0
VERTEX
  5
68
330
55
100
AcDbEntity
  8
Layer 1
370
     0
100
AcDbVertex
100
AcDb2dVertex
 10
590.7927166566951
 20
-365.6324535602889
 30
0.0
  0
VERTEX
  5
69
330
55
100
AcDbEntity
  8
Layer 1
370
     0
100
AcDbVertex
100
AcDb2dVertex
 10
578.7166102061674
 20
-365.6324535602889
 30
0.0
  0
VERTEX
  5
6A
330
55
100
AcDbEntity
  8
Layer 1
370
     0
100
AcDbVertex
100
AcDb2dVertex
 10
554.052344911488
 20
-487.4090478127182
 30
0.0
  0
VERTEX
  5
6B
330
55
100
AcDbEntity
  8
Layer 1
370
     0
100
AcDbVertex
100
AcDb2dVertex
 10
530.8213363166615
 20
-487.4090478127182
 30
0.0
  0
SEQEND
  5
6C
330
55
100
AcDbEntity
  8
Layer 1
370
     0
  0
HATCH
  5
6D
330
51
100
AcDbEntity
  8
Layer 1
 62
   230
420
 16591739
100
AcDbHatch
 10
0.0
 20
0.0
 30
0.0
210
0.0
220
0.0
230
1.0
  2
SOLID
 70
     1
 71
     0
 91
        1
 92
        1
 93
       21
 72
     1
 10
530.8213363166615
 20
-487.4090478127182
 11
509.6385372963214
 21
-399.9019887554077
 72
     1
 10
509.6385372963214
 20
-399.9019887554077
 11
488.3528377949651
 21
-487.4090478127182
 72
     1
 10
488.3528377949651
 20
-487.4090478127182
 11
464.8155777685479
 21
-487.4090478127182
 72
     1
 10
464.8155777685479
 20
-487.4090478127182
 11
440.4575639054619
 21
-365.6324535602889
 72
     1
 10
440.4575639054619
 20
-365.6324535602889
 11
428.4843579359504
 21
-365.6324535602889
 72
     1
 10
428.4843579359504
 20
-365.6324535602889
 11
428.4843579359504
 21
-341.0759887695312
 72
     1
 10
428.4843579359504
 20
-341.0759887695312
 11
477.1979356506663
 21
-341.0759887695312
 72
     1
 10
477.1979356506663
 20
-341.0759887695312
 11
477.1979356506663
 21
-365.6324535602889
 72
     1
 10
477.1979356506663
 20
-365.6324535602889
 11
469.2157983376583
 21
-365.6324535602889
 72
     1
 10
469.2157983376583
 20
-365.6324535602889
 11
477.9133389948638
 21
-414.838483577003
 72
     1
 10
477.9133389948638
 20
-414.838483577003
 11
498.8927870646294
 21
-341.0759887695312
 72
     1
 10
498.8927870646294
 20
-341.0759887695312
 11
520.281387046999
 21
-341.0759887695312
 72
     1
 10
520.281387046999
 20
-341.0759887695312
 11
541.2608351167619
 21
-414.838483577003
 72
     1
 10
541.2608351167619
 20
-414.838483577003
 11
549.9608257854234
 21
-365.6324535602889
 72
     1
 10
549.9608257854234
 20
-365.6324535602889
 11
542.0791389419755
 21
-365.6324535602889
 72
     1
 10
542.0791389419755
 20
-365.6324535602889
 11
542.0791389419755
 21
-341.0759887695312
 72
     1
 10
542.0791389419755
 20
-341.0759887695312
 11
590.7927166566951
 21
-341.0759887695312
 72
     1
 10
590.7927166566951
 20
-341.0759887695312
 11
590.7927166566951
 21
-365.6324535602889
 72
     1
 10
590.7927166566951
 20
-365.6324535602889
 11
578.7166102061674
 21
-365.6324535602889
 72
     1
 10
578.7166102061674
 20
-365.6324535602889
 11
554.052344911488
 21
-487.4090478127182
 72
     1
 10
554.052344911488
 20
-487.4090478127182
 11
530.8213363166615
 21
-487.4090478127182
 97
        0
 75
     2
 76
     1
 98
        0
  0
POLYLINE
  5
6E
330
51
100
AcDbEntity
  8
Layer 1
370
     0
100
AcDb2dPolyline
 66
     1
 10
0.0
 20
0.0
 30
0.0
  0
VERTEX
  5
6F
330
6E
100
AcDbEntity
  8
Layer 1
370
     0
100
AcDbVertex
100
AcDb2dVertex
 10
616.7848881587524
 20
-365.6324535602889
 30
0.0
  0
VERTEX
  5
70
330
6E
100
AcDbEntity
  8
Layer 1
370
     0
100
AcDbVertex
100
AcDb2dVertex
 10
606.1420384080739
 20
-365.6324535602889
 30
0.0
  0
VERTEX
  5
71
330
6E
100
AcDbEntity
  8
Layer 1
370
     0
100
AcDbVertex
100
AcDb2dVertex
 10
606.1420384080739
 20
-341.1666391932813
 30
0.0
  0
VERTEX
  5
72
330
6E
100
AcDbEntity
  8
Layer 1
370
     0
100
AcDbVertex
100
AcDb2dVertex
 10
654.8556161227898
 20
-341.1666391932813
 30
0.0
  0
VERTEX
  5
73
330
6E
100
AcDbEntity
  8
Layer 1
370
     0
100
AcDbVertex
100
AcDb2dVertex
 10
654.8556161227898
 20
-365.6324535602889
 30
0.0
  0
VERTEX
  5
74
330
6E
100
AcDbEntity
  8
Layer 1
370
     0
100
AcDbVertex
100
AcDb2dVertex
 10
644.2127663721112
 20
-365.6324535602889
 30
0.0
  0
VERTEX
  5
75
330
6E
100
AcDbEntity
  8
Layer 1
370
     0
100
AcDbVertex
100
AcDb2dVertex
 10
644.2127663721112
 20
-463.1269843046703
 30
0.0
  0
VERTEX
  5
76
330
6E
100
AcDbEntity
  8
Layer 1
370
     0
100
AcDbVertex
100
AcDb2dVertex
 10
654.8556161227898
 20
-463.1269843046703
 30
0.0
  0
VERTEX
  5
77
330
6E
100
AcDbEntity
  8
Layer 1
370
     0
100
AcDbVertex
100
AcDb2dVertex
 10
654.8556161227898
 20
-487.5927986716742
 30
0.0
  0
VERTEX
  5
78
330
6E
100
AcDbEntity
  8
Layer 1
370
     0
100
AcDbVertex
100
AcDb2dVertex
 10
606.1420384080739
 20
-487.5927986716742
 30
0.0
  0
VERTEX
  5
79
330
6E
100
AcDbEntity
  8
Layer 1
370
     0
100
AcDbVertex
100
AcDb2dVertex
 10
606.1420384080739
 20
-463.1269843046703
 30
0.0
  0
VERTEX
  5
7A
330
6E
100
AcDbEntity
  8
Layer 1
370
     0
100
AcDbVertex
100
AcDb2dVertex
 10
616.7848881587524
 20
-463.1269843046703
 30
0.0
  0
VERTEX
  5
7B
330
6E
100
AcDbEntity
  8
Layer 1
370
     0
100
AcDbVertex
100
AcDb2dVertex
 10
616.7848881587524
 20
-365.6324535602889
 30
0.0
  0
SEQEND
  5
7C
330
6E
100
AcDbEntity
  8
Layer 1
370
     0
  0
HATCH
  5
7D
330
51
100
AcDbEntity
  8
Layer 1
 62
   230
420
 16591739
100
AcDbHatch
 10
0.0
 20
0.0
 30
0.0
210
0.0
220
0.0
230
1.0
  2
SOLID
 70
     1
 71
     0
 91
        1
 92
        1
 93
       12
 72
     1
 10
616.7848881587524
 20
-365.6324535602889
 11
606.1420384080739
 21
-365.6324535602889
 72
     1
 10
606.1420384080739
 20
-365.6324535602889
 11
606.1420384080739
 21
-341.1666391932813
 72
     1
 10
606.1420384080739
 20
-341.1666391932813
 11
654.8556161227898
 21
-341.1666391932813
 72
     1
 10
654.8556161227898
 20
-341.1666391932813
 11
654.8556161227898
 21
-365.6324535602889
 72
     1
 10
654.8556161227898
 20
-365.6324535602889
 11
644.2127663721112
 21
-365.6324535602889
 72
     1
 10
644.2127663721112
 20
-365.6324535602889
 11
644.2127663721112
 21
-463.1269843046703
 72
     1
 10
644.2127663721112
 20
-463.1269843046703
 11
654.8556161227898
 21
-463.1269843046703
 72
     1
 10
654.8556161227898
 20
-463.1269843046703
 11
654.8556161227898
 21
-487.5927986716742
 72
     1
 10
654.8556161227898
 20
-487.5927986716742
 11
606.1420384080739
 21
-487.5927986716742
 72
     1
 10
606.1420384080739
 20
-487.5927986716742
 11
606.1420384080739
 21
-463.1269843046703
 72
     1
 10
606.1420384080739
 20
-463.1269843046703
 11
616.7848881587524
 21
-463.1269843046703
 72
     1
 10
616.7848881587524
 20
-463.1269843046703
 11
616.7848881587524
 21
-365.6324535602889
 97
        0
 75
     2
 76
     1
 98
        0
  0
POLYLINE
  5
7E
330
51
100
AcDbEntity
  8
Layer 1
370
     0
100
AcDb2dPolyline
 66
     1
 10
0.0
 20
0.0
 30
0.0
  0
VERTEX
  5
7F
330
7E
100
AcDbEntity
  8
Layer 1
370
     0
100
AcDbVertex
100
AcDb2dVertex
 10
744.5039851897927
 20
-487.5927986716742
 30
0.0
  0
VERTEX
  5
80
330
7E
100
AcDbEntity
  8
Layer 1
370
     0
100
AcDbVertex
100
AcDb2dVertex
 10
708.2781158496618
 20
-409.9813358719584
 30
0.0
  0
VERTEX
  5
81
330
7E
100
AcDbEntity
  8
Layer 1
370
     0
100
AcDbVertex
100
AcDb2dVertex
 10
708.2781158496618
 20
-463.1269843046703
 30
0.0
  0
VERTEX
  5
82
330
7E
100
AcDbEntity
  8
Layer 1
370
     0
100
AcDbVertex
100
AcDb2dVertex
 10
718.9209656003404
 20
-463.1269843046703
 30
0.0
  0
VERTEX
  5
83
330
7E
100
AcDbEntity
  8
Layer 1
370
     0
100
AcDbVertex
100
AcDb2dVertex
 10
718.9209656003404
 20
-487.5927986716742
 30
0.0
  0
VERTEX
  5
84
330
7E
100
AcDbEntity
  8
Layer 1
370
     0
100
AcDbVertex
100
AcDb2dVertex
 10
670.2073878856245
 20
-487.5927986716742
 30
0.0
  0
VERTEX
  5
85
330
7E
100
AcDbEntity
  8
Layer 1
370
     0
100
AcDbVertex
100
AcDb2dVertex
 10
670.2073878856245
 20
-463.1269843046703
 30
0.0
  0
VERTEX
  5
86
330
7E
100
AcDbEntity
  8
Layer 1
370
     0
100
AcDbVertex
100
AcDb2dVertex
 10
680.8502376362994
 20
-463.1269843046703
 30
0.0
  0
VERTEX
  5
87
330
7E
100
AcDbEntity
  8
Layer 1
370
     0
100
AcDbVertex
100
AcDb2dVertex
 10
680.8502376362994
 20
-365.6324535602889
 30
0.0
  0
VERTEX
  5
88
330
7E
100
AcDbEntity
  8
Layer 1
370
     0
100
AcDbVertex
100
AcDb2dVertex
 10
670.2073878856245
 20
-365.6324535602889
 30
0.0
  0
VERTEX
  5
89
330
7E
100
AcDbEntity
  8
Layer 1
370
     0
100
AcDbVertex
100
AcDb2dVertex
 10
670.2073878856245
 20
-341.1666391932813
 30
0.0
  0
VERTEX
  5
8A
330
7E
100
AcDbEntity
  8
Layer 1
370
     0
100
AcDbVertex
100
AcDb2dVertex
 10
711.6542316315281
 20
-341.0759887695312
 30
0.0
  0
VERTEX
  5
8B
330
7E
100
AcDbEntity
  8
Layer 1
370
     0
100
AcDbVertex
100
AcDb2dVertex
 10
747.8825509831113
 20
-418.6862265635227
 30
0.0
  0
VERTEX
  5
8C
330
7E
100
AcDbEntity
  8
Layer 1
370
     0
100
AcDbVertex
100
AcDb2dVertex
 10
747.8825509831113
 20
-365.6324535602889
 30
0.0
  0
VERTEX
  5
8D
330
7E
100
AcDbEntity
  8
Layer 1
370
     0
100
AcDbVertex
100
AcDb2dVertex
 10
737.6488531450414
 20
-365.6324535602889
 30
0.0
  0
VERTEX
  5
8E
330
7E
100
AcDbEntity
  8
Layer 1
370
     0
100
AcDbVertex
100
AcDb2dVertex
 10
737.6488531450414
 20
-341.1666391932813
 30
0.0
  0
VERTEX
  5
8F
330
7E
100
AcDbEntity
  8
Layer 1
370
     0
100
AcDbVertex
100
AcDb2dVertex
 10
786.359980848305
 20
-341.1666391932813
 30
0.0
  0
VERTEX
  5
90
330
7E
100
AcDbEntity
  8
Layer 1
370
     0
100
AcDbVertex
100
AcDb2dVertex
 10
786.359980848305
 20
-365.6324535602889
 30
0.0
  0
VERTEX
  5
91
330
7E
100
AcDbEntity
  8
Layer 1
370
     0
100
AcDbVertex
100
AcDb2dVertex
 10
775.7171310976264
 20
-365.6324535602889
 30
0.0
  0
VERTEX
  5
92
330
7E
100
AcDbEntity
  8
Layer 1
370
     0
100
AcDbVertex
100
AcDb2dVertex
 10
775.7171310976264
 20
-463.1269843046703
 30
0.0
  0
VERTEX
  5
93
330
7E
100
AcDbEntity
  8
Layer 1
370
     0
100
AcDbVertex
100
AcDb2dVertex
 10
786.359980848305
 20
-463.1269843046703
 30
0.0
  0
VERTEX
  5
94
330
7E
100
AcDbEntity
  8
Layer 1
370
     0
100
AcDbVertex
100
AcDb2dVertex
 10
786.359980848305
 20
-487.5927986716742
 30
0.0
  0
VERTEX
  5
95
330
7E
100
AcDbEntity
  8
Layer 1
370
     0
100
AcDbVertex
100
AcDb2dVertex
 10
744.5039851897927
 20
-487.5927986716742
 30
0.0
  0
SEQEND
  5
96
330
7E
100
AcDbEntity
  8
Layer 1
370
     0
  0
HATCH
  5
97
330
51
100
AcDbEntity
  8
Layer 1
 62
   230
420
 16591739
100
AcDbHatch
 10
0.0
 20
0.0
 30
0.0
210
0.0
220
0.0
230
1.0
  2
SOLID
 70
     1
 71
     0
 91
        1
 92
        1
 93
       22
 72
     1
 10
744.5039851897927
 20
-487.5927986716742
 11
708.2781158496618
 21
-409.9813358719584
 72
     1
 10
708.2781158496618
 20
-409.9813358719584
 11
708.2781158496618
 21
-463.1269843046703
 72
     1
 10
708.2781158496618
 20
-463.1269843046703
 11
718.9209656003404
 21
-463.1269843046703
 72
     1
 10
718.9209656003404
 20
-463.1269843046703
 11
718.9209656003404
 21
-487.5927986716742
 72
     1
 10
718.9209656003404
 20
-487.5927986716742
 11
670.2073878856245
 21
-487.5927986716742
 72
     1
 10
670.2073878856245
 20
-487.5927986716742
 11
670.2073878856245
 21
-463.1269843046703
 72
     1
 10
670.2073878856245
 20
-463.1269843046703
 11
680.8502376362994
 21
-463.1269843046703
 72
     1
 10
680.8502376362994
 20
-463.1269843046703
 11
680.8502376362994
 21
-365.6324535602889
 72
     1
 10
680.8502376362994
 20
-365.6324535602889
 11
670.2073878856245
 21
-365.6324535602889
 72
     1
 10
670.2073878856245
 20
-365.6324535602889
 11
670.2073878856245
 21
-341.1666391932813
 72
     1
 10
670.2073878856245
 20
-341.1666391932813
 11
711.6542316315281
 21
-341.0759887695312
 72
     1
 10
711.6542316315281
 20
-341.0759887695312
 11
747.8825509831113
 21
-418.6862265635227
 72
     1
 10
747.8825509831113
 20
-418.6862265635227
 11
747.8825509831113
 21
-365.6324535602889
 72
     1
 10
747.8825509831113
 20
-365.6324535602889
 11
737.6488531450414
 21
-365.6324535602889
 72
     1
 10
737.6488531450414
 20
-365.6324535602889
 11
737.6488531450414
 21
-341.1666391932813
 72
     1
 10
737.6488531450414
 20
-341.1666391932813
 11
786.359980848305
 21
-341.1666391932813
 72
     1
 10
786.359980848305
 20
-341.1666391932813
 11
786.359980848305
 21
-365.6324535602889
 72
     1
 10
786.359980848305
 20
-365.6324535602889
 11
775.7171310976264
 21
-365.6324535602889
 72
     1
 10
775.7171310976264
 20
-365.6324535602889
 11
775.7171310976264
 21
-463.1269843046703
 72
     1
 10
775.7171310976264
 20
-463.1269843046703
 11
786.359980848305
 21
-463.1269843046703
 72
     1
 10
786.359980848305
 20
-463.1269843046703
 11
786.359980848305
 21
-487.5927986716742
 72
     1
 10
786.359980848305
 20
-487.5927986716742
 11
744.5039851897927
 21
-487.5927986716742
 97
        0
 75
     2
 76
     1
 98
        0
  0
POLYLINE
  5
98
330
51
100
AcDbEntity
  8
Layer 1
370
     0
100
AcDb2dPolyline
 66
     1
 10
0.0
 20
0.0
 30
0.0
  0
VERTEX
  5
99
330
98
100
AcDbEntity
  8
Layer 1
370
     0
100
AcDbVertex
100
AcDb2dVertex
 10
867.413709739114
 20
-463.0363338809166
 30
0.0
  0
VERTEX
  5
9A
330
98
100
AcDbEntity
  8
Layer 1
370
     0
100
AcDbVertex
100
AcDb2dVertex
 10
867.413709739114
 20
-443.8845943548949
 30
0.0
  0
VERTEX
  5
9B
330
98
100
AcDbEntity
  8
Layer 1
370
     0
100
AcDbVertex
100
AcDb2dVertex
 10
894.6357869904459
 20
-443.8845943548949
 30
0.0
  0
VERTEX
  5
9C
330
98
100
AcDbEntity
  8
Layer 1
370
     0
100
AcDbVertex
100
AcDb2dVertex
 10
894.6357869904459
 20
-487.5927986716742
 30
0.0
  0
VERTEX
  5
9D
330
98
100
AcDbEntity
  8
Layer 1
370
     0
100
AcDbVertex
100
AcDb2dVertex
 10
801.711752611136
 20
-487.5927986716742
 30
0.0
  0
VERTEX
  5
9E
330
98
100
AcDbEntity
  8
Layer 1
370
     0
100
AcDbVertex
100
AcDb2dVertex
 10
801.711752611136
 20
-463.1269843046703
 30
0.0
  0
VERTEX
  5
9F
330
98
100
AcDbEntity
  8
Layer 1
370
     0
100
AcDbVertex
100
AcDb2dVertex
 10
811.8425499681944
 20
-463.1269843046703
 30
0.0
  0
VERTEX
  5
A0
330
98
100
AcDbEntity
  8
Layer 1
370
     0
100
AcDbVertex
100
AcDb2dVertex
 10
811.8425499681944
 20
-365.6324535602889
 30
0.0
  0
VERTEX
  5
A1
330
98
100
AcDbEntity
  8
Layer 1
370
     0
100
AcDbVertex
100
AcDb2dVertex
 10
801.711752611136
 20
-365.6324535602889
 30
0.0
  0
VERTEX
  5
A2
330
98
100
AcDbEntity
  8
Layer 1
370
     0
100
AcDbVertex
100
AcDb2dVertex
 10
801.711752611136
 20
-341.0759887695312
 30
0.0
  0
VERTEX
  5
A3
330
98
100
AcDbEntity
  8
Layer 1
370
     0
100
AcDbVertex
100
AcDb2dVertex
 10
894.6357869904459
 20
-341.0759887695312
 30
0.0
  0
VERTEX
  5
A4
330
98
100
AcDbEntity
  8
Layer 1
370
     0
100
AcDbVertex
100
AcDb2dVertex
 10
894.6357869904459
 20
-384.8748435100624
 30
0.0
  0
VERTEX
  5
A5
330
98
100
AcDbEntity
  8
Layer 1
370
     0
100
AcDbVertex
100
AcDb2dVertex
 10
867.413709739114
 20
-384.8748435100624
 30
0.0
  0
VERTEX
  5
A6
330
98
100
AcDbEntity
  8
Layer 1
370
     0
100
AcDbVertex
100
AcDb2dVertex
 10
867.413709739114
 20
-365.6324535602889
 30
0.0
  0
VERTEX
  5
A7
330
98
100
AcDbEntity
  8
Layer 1
370
     0
100
AcDbVertex
100
AcDb2dVertex
 10
839.782480575177
 20
-365.6324535602889
 30
0.0
  0
VERTEX
  5
A8
330
98
100
AcDbEntity
  8
Layer 1
370
     0
100
AcDbVertex
100
AcDb2dVertex
 10
839.782480575177
 20
-402.1020990399629
 30
0.0
  0
VERTEX
  5
A9
330
98
100
AcDbEntity
  8
Layer 1
370
     0
100
AcDbVertex
100
AcDb2dVertex
 10
875.496297521684
 20
-402.1020990399629
 30
0.0
  0
VERTEX
  5
AA
330
98
100
AcDbEntity
  8
Layer 1
370
     0
100
AcDbVertex
100
AcDb2dVertex
 10
875.496297521684
 20
-426.5666884012426
 30
0.0
  0
VERTEX
  5
AB
330
98
100
AcDbEntity
  8
Layer 1
370
     0
100
AcDbVertex
100
AcDb2dVertex
 10
839.782480575177
 20
-426.5666884012426
 30
0.0
  0
VERTEX
  5
AC
330
98
100
AcDbEntity
  8
Layer 1
370
     0
100
AcDbVertex
100
AcDb2dVertex
 10
839.782480575177
 20
-463.0363338809166
 30
0.0
  0
VERTEX
  5
AD
330
98
100
AcDbEntity
  8
Layer 1
370
     0
100
AcDbVertex
100
AcDb2dVertex
 10
867.413709739114
 20
-463.0363338809166
 30
0.0
  0
SEQEND
  5
AE
330
98
100
AcDbEntity
  8
Layer 1
370
     0
  0
HATCH
  5
AF
330
51
100
AcDbEntity
  8
Layer 1
 62
   230
420
 16591739
100
AcDbHatch
 10
0.0
 20
0.0
 30
0.0
210
0.0
220
0.0
230
1.0
  2
SOLID
 70
     1
 71
     0
 91
        1
 92
        1
 93
       20
 72
     1
 10
867.413709739114
 20
-463.0363338809166
 11
867.413709739114
 21
-443.8845943548949
 72
     1
 10
867.413709739114
 20
-443.8845943548949
 11
894.6357869904459
 21
-443.8845943548949
 72
     1
 10
894.6357869904459
 20
-443.8845943548949
 11
894.6357869904459
 21
-487.5927986716742
 72
     1
 10
894.6357869904459
 20
-487.5927986716742
 11
801.711752611136
 21
-487.5927986716742
 72
     1
 10
801.711752611136
 20
-487.5927986716742
 11
801.711752611136
 21
-463.1269843046703
 72
     1
 10
801.711752611136
 20
-463.1269843046703
 11
811.8425499681944
 21
-463.1269843046703
 72
     1
 10
811.8425499681944
 20
-463.1269843046703
 11
811.8425499681944
 21
-365.6324535602889
 72
     1
 10
811.8425499681944
 20
-365.6324535602889
 11
801.711752611136
 21
-365.6324535602889
 72
     1
 10
801.711752611136
 20
-365.6324535602889
 11
801.711752611136
 21
-341.0759887695312
 72
     1
 10
801.711752611136
 20
-341.0759887695312
 11
894.6357869904459
 21
-341.0759887695312
 72
     1
 10
894.6357869904459
 20
-341.0759887695312
 11
894.6357869904459
 21
-384.8748435100624
 72
     1
 10
894.6357869904459
 20
-384.8748435100624
 11
867.413709739114
 21
-384.8748435100624
 72
     1
 10
867.413709739114
 20
-384.8748435100624
 11
867.413709739114
 21
-365.6324535602889
 72
     1
 10
867.413709739114
 20
-365.6324535602889
 11
839.782480575177
 21
-365.6324535602889
 72
     1
 10
839.782480575177
 20
-365.6324535602889
 11
839.782480575177
 21
-402.1020990399629
 72
     1
 10
839.782480575177
 20
-402.1020990399629
 11
875.496297521684
 21
-402.1020990399629
 72
     1
 10
875.496297521684
 20
-402.1020990399629
 11
875.496297521684
 21
-426.5666884012426
 72
     1
 10
875.496297521684
 20
-426.5666884012426
 11
839.782480575177
 21
-426.5666884012426
 72
     1
 10
839.782480575177
 20
-426.5666884012426
 11
839.782480575177
 21
-463.0363338809166
 72
     1
 10
839.782480575177
 20
-463.0363338809166
 11
867.413709739114
 21
-463.0363338809166
 97
        0
 75
     2
 76
     1
 98
        0
  0
ENDBLK
  5
54
330
51
100
AcDbEntity
  8
0
100
AcDbBlockEnd
  0
BLOCK
  5
B2
330
B0
100
AcDbEntity
  8
0
100
AcDbBlockBegin
  2
block 5
 70
     0
 10
0.0
 20
0.0
 30
0.0
  3
block 5
  1

  0
POLYLINE
  5
B4
330
B0
100
AcDbEntity
  8
Layer 1
370
     0
100
AcDb2dPolyline
 66
     1
 10
0.0
 20
0.0
 30
0.0
  0
VERTEX
  5
B5
330
B4
100
AcDbEntity
  8
Layer 1
370
     0
100
AcDbVertex
100
AcDb2dVertex
 10
235.77625710968
 20
-341.0759887695312
 30
0.0
  0
VERTEX
  5
B6
330
B4
100
AcDbEntity
  8
Layer 1
370
     0
100
AcDbVertex
100
AcDb2dVertex
 10
260.359672026415
 20
-359.9508770013945
 30
0.0
  0
VERTEX
  5
B7
330
B4
100
AcDbEntity
  8
Layer 1
370
     0
100
AcDbVertex
100
AcDb2dVertex
 10
260.359672026415
 20
-407.8743260226056
 30
0.0
  0
VERTEX
  5
B8
330
B4
100
AcDbEntity
  8
Layer 1
370
     0
100
AcDbVertex
100
AcDb2dVertex
 10
251.6057811057954
 20
-414.5628572885689
 30
0.0
  0
VERTEX
  5
B9
330
B4
100
AcDbEntity
  8
Layer 1
370
     0
100
AcDbVertex
100
AcDb2dVertex
 10
260.359672026415
 20
-421.0688627013042
 30
0.0
  0
VERTEX
  5
BA
330
B4
100
AcDbEntity
  8
Layer 1
370
     0
100
AcDbVertex
100
AcDb2dVertex
 10
260.359672026415
 20
-468.8085608635593
 30
0.0
  0
VERTEX
  5
BB
330
B4
100
AcDbEntity
  8
Layer 1
370
     0
100
AcDbVertex
100
AcDb2dVertex
 10
235.77625710968
 20
-487.5927986716742
 30
0.0
  0
VERTEX
  5
BC
330
B4
100
AcDbEntity
  8
Layer 1
370
     0
100
AcDbVertex
100
AcDb2dVertex
 10
144.4006299684997
 20
-487.5927986716742
 30
0.0
  0
VERTEX
  5
BD
330
B4
100
AcDbEntity
  8
Layer 1
370
     0
100
AcDbVertex
100
AcDb2dVertex
 10
144.4006299684997
 20
-463.1269843046703
 30
0.0
  0
VERTEX
  5
BE
330
B4
100
AcDbEntity
  8
Layer 1
370
     0
100
AcDbVertex
100
AcDb2dVertex
 10
156.3922110239073
 20
-463.1269843046703
 30
0.0
  0
VERTEX
  5
BF
330
B4
100
AcDbEntity
  8
Layer 1
370
     0
100
AcDbVertex
100
AcDb2dVertex
 10
156.3922110239073
 20
-365.6324535602889
 30
0.0
  0
VERTEX
  5
C0
330
B4
100
AcDbEntity
  8
Layer 1
370
     0
100
AcDbVertex
100
AcDb2dVertex
 10
144.4006299684997
 20
-365.6324535602889
 30
0.0
  0
VERTEX
  5
C1
330
B4
100
AcDbEntity
  8
Layer 1
370
     0
100
AcDbVertex
100
AcDb2dVertex
 10
144.4006299684997
 20
-341.1666391932813
 30
0.0
  0
VERTEX
  5
C2
330
B4
100
AcDbEntity
  8
Layer 1
370
     0
100
AcDbVertex
100
AcDb2dVertex
 10
235.77625710968
 20
-341.0759887695312
 30
0.0
  0
SEQEND
  5
C3
330
B4
100
AcDbEntity
  8
Layer 1
370
     0
  0
POLYLINE
  5
C4
330
B0
100
AcDbEntity
  8
Layer 1
370
     0
100
AcDb2dPolyline
 66
     1
 10
0.0
 20
0.0
 30
0.0
  0
VERTEX
  5
C5
330
C4
100
AcDbEntity
  8
Layer 1
370
     0
100
AcDbVertex
100
AcDb2dVertex
 10
188.529011249424
 20
-402.1020990399629
 30
0.0
  0
VERTEX
  5
C6
330
C4
100
AcDbEntity
  8
Layer 1
370
     0
100
AcDbVertex
100
AcDb2dVertex
 10
228.2216467951721
 20
-402.1020990399629
 30
0.0
  0
VERTEX
  5
C7
330
C4
100
AcDbEntity
  8
Layer 1
370
     0
100
AcDbVertex
100
AcDb2dVertex
 10
228.2216467951721
 20
-365.6324535602889
 30
0.0
  0
VERTEX
  5
C8
330
C4
100
AcDbEntity
  8
Layer 1
370
     0
100
AcDbVertex
100
AcDb2dVertex
 10
188.529011249424
 20
-365.6324535602889
 30
0.0
  0
VERTEX
  5
C9
330
C4
100
AcDbEntity
  8
Layer 1
370
     0
100
AcDbVertex
100
AcDb2dVertex
 10
188.529011249424
 20
-402.1020990399629
 30
0.0
  0
SEQEND
  5
CA
330
C4
100
AcDbEntity
  8
Layer 1
370
     0
  0
POLYLINE
  5
CB
330
B0
100
AcDbEntity
  8
Layer 1
370
     0
100
AcDb2dPolyline
 66
     1
 10
0.0
 20
0.0
 30
0.0
  0
VERTEX
  5
CC
330
CB
100
AcDbEntity
  8
Layer 1
370
     0
100
AcDbVertex
100
AcDb2dVertex
 10
228.3416973563571
 20
-426.5666884012426
 30
0.0
  0
VERTEX
  5
CD
330
CB
100
AcDbEntity
  8
Layer 1
370
     0
100
AcDbVertex
100
AcDb2dVertex
 10
188.529011249424
 20
-426.5666884012426
 30
0.0
  0
VERTEX
  5
CE
330
CB
100
AcDbEntity
  8
Layer 1
370
     0
100
AcDbVertex
100
AcDb2dVertex
 10
188.529011249424
 20
-463.0363338809166
 30
0.0
  0
VERTEX
  5
CF
330
CB
100
AcDbEntity
  8
Layer 1
370
     0
100
AcDbVertex
100
AcDb2dVertex
 10
228.3416973563571
 20
-463.0363338809166
 30
0.0
  0
VERTEX
  5
D0
330
CB
100
AcDbEntity
  8
Layer 1
370
     0
100
AcDbVertex
100
AcDb2dVertex
 10
228.3416973563571
 20
-426.5666884012426
 30
0.0
  0
SEQEND
  5
D1
330
CB
100
AcDbEntity
  8
Layer 1
370
     0
  0
HATCH
  5
D2
330
B0
100
AcDbEntity
  8
Layer 1
 62
   250
420
  2301728
100
AcDbHatch
 10
0.0
 20
0.0
 30
0.0
210
0.0
220
0.0
230
1.0
  2
SOLID
 70
     1
 71
     0
 91
        3
 92
        1
 93
       13
 72
     1
 10
235.77625710968
 20
-341.0759887695312
 11
260.359672026415
 21
-359.9508770013945
 72
     1
 10
260.359672026415
 20
-359.9508770013945
 11
260.359672026415
 21
-407.8743260226056
 72
     1
 10
260.359672026415
 20
-407.8743260226056
 11
251.6057811057954
 21
-414.5628572885689
 72
     1
 10
251.6057811057954
 20
-414.5628572885689
 11
260.359672026415
 21
-421.0688627013042
 72
     1
 10
260.359672026415
 20
-421.0688627013042
 11
260.359672026415
 21
-468.8085608635593
 72
     1
 10
260.359672026415
 20
-468.8085608635593
 11
235.77625710968
 21
-487.5927986716742
 72
     1
 10
235.77625710968
 20
-487.5927986716742
 11
144.4006299684997
 21
-487.5927986716742
 72
     1
 10
144.4006299684997
 20
-487.5927986716742
 11
144.4006299684997
 21
-463.1269843046703
 72
     1
 10
144.4006299684997
 20
-463.1269843046703
 11
156.3922110239073
 21
-463.1269843046703
 72
     1
 10
156.3922110239073
 20
-463.1269843046703
 11
156.3922110239073
 21
-365.6324535602889
 72
     1
 10
156.3922110239073
 20
-365.6324535602889
 11
144.4006299684997
 21
-365.6324535602889
 72
     1
 10
144.4006299684997
 20
-365.6324535602889
 11
144.4006299684997
 21
-341.1666391932813
 72
     1
 10
144.4006299684997
 20
-341.1666391932813
 11
235.77625710968
 21
-341.0759887695312
 97
        0
 92
        1
 93
        4
 72
     1
 10
188.529011249424
 20
-402.1020990399629
 11
228.2216467951721
 21
-402.1020990399629
 72
     1
 10
228.2216467951721
 20
-402.1020990399629
 11
228.2216467951721
 21
-365.6324535602889
 72
     1
 10
228.2216467951721
 20
-365.6324535602889
 11
188.529011249424
 21
-365.6324535602889
 72
     1
 10
188.529011249424
 20
-365.6324535602889
 11
188.529011249424
 21
-402.1020990399629
 97
        0
 92
        1
 93
        4
 72
     1
 10
228.3416973563571
 20
-426.5666884012426
 11
188.529011249424
 21
-426.5666884012426
 72
     1
 10
188.529011249424
 20
-426.5666884012426
 11
188.529011249424
 21
-463.0363338809166
 72
     1
 10
188.529011249424
 20
-463.0363338809166
 11
228.3416973563571
 21
-463.0363338809166
 72
     1
 10
228.3416973563571
 20
-463.0363338809166
 11
228.3416973563571
 21
-426.5666884012426
 97
        0
 75
     2
 76
     1
 98
        0
  0
POLYLINE
  5
D3
330
B0
100
AcDbEntity
  8
Layer 1
370
     0
100
AcDb2dPolyline
 66
     1
 10
0.0
 20
0.0
 30
0.0
  0
VERTEX
  5
D4
330
D3
100
AcDbEntity
  8
Layer 1
370
     0
100
AcDbVertex
100
AcDb2dVertex
 10
355.3343659916609
 20
-463.0363338809166
 30
0.0
  0
VERTEX
  5
D5
330
D3
100
AcDbEntity
  8
Layer 1
370
     0
100
AcDbVertex
100
AcDb2dVertex
 10
355.3343659916609
 20
-443.8845943548949
 30
0.0
  0
VERTEX
  5
D6
330
D3
100
AcDbEntity
  8
Layer 1
370
     0
100
AcDbVertex
100
AcDb2dVertex
 10
387.228615083357
 20
-443.8845943548949
 30
0.0
  0
VERTEX
  5
D7
330
D3
100
AcDbEntity
  8
Layer 1
370
     0
100
AcDbVertex
100
AcDb2dVertex
 10
387.228615083357
 20
-487.5927986716742
 30
0.0
  0
VERTEX
  5
D8
330
D3
100
AcDbEntity
  8
Layer 1
370
     0
100
AcDbVertex
100
AcDb2dVertex
 10
278.3464311066646
 20
-487.5927986716742
 30
0.0
  0
VERTEX
  5
D9
330
D3
100
AcDbEntity
  8
Layer 1
370
     0
100
AcDbVertex
100
AcDb2dVertex
 10
278.3464311066646
 20
-463.1269843046703
 30
0.0
  0
VERTEX
  5
DA
330
D3
100
AcDbEntity
  8
Layer 1
370
     0
100
AcDbVertex
100
AcDb2dVertex
 10
290.2179616008889
 20
-463.1269843046703
 30
0.0
  0
VERTEX
  5
DB
330
D3
100
AcDbEntity
  8
Layer 1
370
     0
100
AcDbVertex
100
AcDb2dVertex
 10
290.2179616008889
 20
-365.6324535602889
 30
0.0
  0
VERTEX
  5
DC
330
D3
100
AcDbEntity
  8
Layer 1
370
     0
100
AcDbVertex
100
AcDb2dVertex
 10
278.3464311066646
 20
-365.6324535602889
 30
0.0
  0
VERTEX
  5
DD
330
D3
100
AcDbEntity
  8
Layer 1
370
     0
100
AcDbVertex
100
AcDb2dVertex
 10
278.3464311066646
 20
-341.0759887695312
 30
0.0
  0
VERTEX
  5
DE
330
D3
100
AcDbEntity
  8
Layer 1
370
     0
100
AcDbVertex
100
AcDb2dVertex
 10
387.228615083357
 20
-341.0759887695312
 30
0.0
  0
VERTEX
  5
DF
330
D3
100
AcDbEntity
  8
Layer 1
370
     0
100
AcDbVertex
100
AcDb2dVertex
 10
387.228615083357
 20
-384.8748435100624
 30
0.0
  0
VERTEX
  5
E0
330
D3
100
AcDbEntity
  8
Layer 1
370
     0
100
AcDbVertex
100
AcDb2dVertex
 10
355.3343659916609
 20
-384.8748435100624
 30
0.0
  0
VERTEX
  5
E1
330
D3
100
AcDbEntity
  8
Layer 1
370
     0
100
AcDbVertex
100
AcDb2dVertex
 10
355.3343659916609
 20
-365.6324535602889
 30
0.0
  0
VERTEX
  5
E2
330
D3
100
AcDbEntity
  8
Layer 1
370
     0
100
AcDbVertex
100
AcDb2dVertex
 10
322.9550146323236
 20
-365.6324535602889
 30
0.0
  0
VERTEX
  5
E3
330
D3
100
AcDbEntity
  8
Layer 1
370
     0
100
AcDbVertex
100
AcDb2dVertex
 10
322.9550146323236
 20
-402.1020990399629
 30
0.0
  0
VERTEX
  5
E4
330
D3
100
AcDbEntity
  8
Layer 1
370
     0
100
AcDbVertex
100
AcDb2dVertex
 10
364.806110267933
 20
-402.1020990399629
 30
0.0
  0
VERTEX
  5
E5
330
D3
100
AcDbEntity
  8
Layer 1
370
     0
100
AcDbVertex
100
AcDb2dVertex
 10
364.806110267933
 20
-426.5666884012426
 30
0.0
  0
VERTEX
  5
E6
330
D3
100
AcDbEntity
  8
Layer 1
370
     0
100
AcDbVertex
100
AcDb2dVertex
 10
322.9550146323236
 20
-426.5666884012426
 30
0.0
  0
VERTEX
  5
E7
330
D3
100
AcDbEntity
  8
Layer 1
370
     0
100
AcDbVertex
100
AcDb2dVertex
 10
322.9550146323236
 20
-463.0363338809166
 30
0.0
  0
VERTEX
  5
E8
330
D3
100
AcDbEntity
  8
Layer 1
370
     0
100
AcDbVertex
100
AcDb2dVertex
 10
355.3343659916609
 20
-463.0363338809166
 30
0.0
  0
SEQEND
  5
E9
330
D3
100
AcDbEntity
  8
Layer 1
370
     0
  0
HATCH
  5
EA
330
B0
100
AcDbEntity
  8
Layer 1
 62
   250
420
  2301728
100
AcDbHatch
 10
0.0
 20
0.0
 30
0.0
210
0.0
220
0.0
230
1.0
  2
SOLID
 70
     1
 71
     0
 91
        1
 92
        1
 93
       20
 72
     1
 10
355.3343659916609
 20
-463.0363338809166
 11
355.3343659916609
 21
-443.8845943548949
 72
     1
 10
355.3343659916609
 20
-443.8845943548949
 11
387.228615083357
 21
-443.8845943548949
 72
     1
 10
387.228615083357
 20
-443.8845943548949
 11
387.228615083357
 21
-487.5927986716742
 72
     1
 10
387.228615083357
 20
-487.5927986716742
 11
278.3464311066646
 21
-487.5927986716742
 72
     1
 10
278.3464311066646
 20
-487.5927986716742
 11
278.3464311066646
 21
-463.1269843046703
 72
     1
 10
278.3464311066646
 20
-463.1269843046703
 11
290.2179616008889
 21
-463.1269843046703
 72
     1
 10
290.2179616008889
 20
-463.1269843046703
 11
290.2179616008889
 21
-365.6324535602889
 72
     1
 10
290.2179616008889
 20
-365.6324535602889
 11
278.3464311066646
 21
-365.6324535602889
 72
     1
 10
278.3464311066646
 20
-365.6324535602889
 11
278.3464311066646
 21
-341.0759887695312
 72
     1
 10
278.3464311066646
 20
-341.0759887695312
 11
387.228615083357
 21
-341.0759887695312
 72
     1
 10
387.228615083357
 20
-341.0759887695312
 11
387.228615083357
 21
-384.8748435100624
 72
     1
 10
387.228615083357
 20
-384.8748435100624
 11
355.3343659916609
 21
-384.8748435100624
 72
     1
 10
355.3343659916609
 20
-384.8748435100624
 11
355.3343659916609
 21
-365.6324535602889
 72
     1
 10
355.3343659916609
 20
-365.6324535602889
 11
322.9550146323236
 21
-365.6324535602889
 72
     1
 10
322.9550146323236
 20
-365.6324535602889
 11
322.9550146323236
 21
-402.1020990399629
 72
     1
 10
322.9550146323236
 20
-402.1020990399629
 11
364.806110267933
 21
-402.1020990399629
 72
     1
 10
364.806110267933
 20
-402.1020990399629
 11
364.806110267933
 21
-426.5666884012426
 72
     1
 10
364.806110267933
 20
-426.5666884012426
 11
322.9550146323236
 21
-426.5666884012426
 72
     1
 10
322.9550146323236
 20
-426.5666884012426
 11
322.9550146323236
 21
-463.0363338809166
 72
     1
 10
322.9550146323236
 20
-463.0363338809166
 11
355.3343659916609
 21
-463.0363338809166
 97
        0
 75
     2
 76
     1
 98
        0
  0
ENDBLK
  5
B3
330
B0
100
AcDbEntity
  8
0
100
AcDbBlockEnd
  0
BLOCK
  5
ED
330
EB
100
AcDbEntity
  8
0
100
AcDbBlockBegin
  2
block 6
 70
     0
 10
0.0
 20
0.0
 30
0.0
  3
block 6
  1

  0
SPLINE
  5
EF
330
EB
100
AcDbEntity
  8
Layer 1
370
     0
100
AcDbSpline
210
0.0
220
0.0
230
1.0
 70
    11
 71
     3
 72
    53
 73
    49
 74
     0
 42
0.0000000001
 43
0.0000000001
 12
1.0
 22
0.0
 32
0.0
 13
1.0
 23
0.0
 33
0.0
 40
0.0
 40
0.0
 40
0.0
 40
0.0
 40
1.0
 40
1.0
 40
1.0
 40
2.0
 40
2.0
 40
2.0
 40
3.0
 40
3.0
 40
3.0
 40
4.0
 40
4.0
 40
4.0
 40
5.0
 40
5.0
 40
5.0
 40
6.0
 40
6.0
 40
6.0
 40
7.0
 40
7.0
 40
7.0
 40
8.0
 40
8.0
 40
8.0
 40
9.0
 40
9.0
 40
9.0
 40
10.0
 40
10.0
 40
10.0
 40
11.0
 40
11.0
 40
11.0
 40
12.0
 40
12.0
 40
12.0
 40
13.0
 40
13.0
 40
13.0
 40
14.0
 40
14.0
 40
14.0
 40
15.0
 40
15.0
 40
15.0
 40
16.0
 40
16.0
 40
16.0
 40
16.0
 10
222.9057888608413
 20
-716.3866535472444
 30
0.0
 10
222.8963886473584
 20
-726.5035592547156
 30
0.0
 10
219.5706258004675
 20
-729.9140556524835
 30
0.0
 10
209.65496518073
 20
-729.9425969907552
 30
0.0
 10
197.3110607355684
 20
-729.978122671715
 30
0.0
 10
184.9668620498105
 20
-729.9833725430144
 30
0.0
 10
172.6230040636992
 20
-729.9403514686819
 30
0.0
 10
163.0229706954487
 20
-729.9068854709749
 30
0.0
 10
159.4894197792564
 20
-726.3425322089824
 30
0.0
 10
159.4868335596284
 20
-716.7600138999314
 30
0.0
 10
159.4764267357368
 20
-678.2062713445703
 30
0.0
 10
159.5317904303211
 20
-639.652451357475
 30
0.0
 10
159.4534604856299
 20
-601.0988636655875
 30
0.0
 10
159.4289610841852
 20
-589.0363616436043
 30
0.0
 10
161.9788656572791
 20
-577.3897609742689
 30
0.0
 10
169.9169196823132
 20
-568.48700040939
 30
0.0
 10
178.6801017966118
 20
-558.658837654275
 30
0.0
 10
180.9475199021472
 20
-547.9909509269874
 30
0.0
 10
179.9582055556803
 20
-535.5253431471829
 30
0.0
 10
179.080083185293
 20
-524.4607813678285
 30
0.0
 10
179.0871294739709
 20
-513.3207604237887
 30
0.0
 10
178.8719931328924
 20
-502.2107868657749
 30
0.0
 10
178.7472041438032
 20
-495.7667675839566
 30
0.0
 10
180.2135134849113
 20
-494.3908123704605
 30
0.0
 10
186.3993337318107
 20
-494.3670892219252
 30
0.0
 10
189.9502913029255
 20
-494.3534709151172
 30
0.0
 10
193.5098128242871
 20
-494.520159186126
 30
0.0
 10
197.0502706517
 20
-494.3269321550488
 30
0.0
 10
201.7447711061141
 20
-494.0707182765382
 30
0.0
 10
203.5125996358202
 20
-496.5576030932152
 30
0.0
 10
203.362273658975
 20
-500.7695363721286
 30
0.0
 10
203.2007200800717
 20
-505.2966836106225
 30
0.0
 10
202.5516407907453
 20
-509.8113875687668
 30
0.0
 10
202.4945890857953
 20
-514.3363047732037
 30
0.0
 10
202.3645502241052
 20
-524.6493741105733
 30
0.0
 10
202.8680113857899
 20
-534.986220798999
 30
0.0
 10
202.3339027411712
 20
-545.2728955925795
 30
0.0
 10
201.9739690487413
 20
-552.2045615718853
 30
0.0
 10
204.0396929617473
 20
-557.5803374322659
 30
0.0
 10
208.4983673138804
 20
-562.7342636194735
 30
0.0
 10
218.6355911089413
 20
-574.4522098930083
 30
0.0
 10
223.3611881488141
 20
-588.1156595627235
 30
0.0
 10
223.0036470967043
 20
-603.7708626058939
 30
0.0
 10
222.6022254784402
 20
-621.3476813542366
 30
0.0
 10
222.9113639494699
 20
-638.9407143086028
 30
0.0
 10
222.9113097464615
 20
-656.5267009747695
 30
0.0
 10
222.9112632865254
 20
-676.4800236610481
 30
0.0
 10
222.9243415062165
 20
-696.4333463473176
 30
0.0
 10
222.9057888608413
 20
-716.3866535472444
 30
0.0
  0
SPLINE
  5
F0
330
EB
100
AcDbEntity
  8
Layer 1
370
     0
100
AcDbSpline
210
0.0
220
0.0
230
1.0
 70
    11
 71
     3
 72
    29
 73
    25
 74
     0
 42
0.0000000001
 43
0.0000000001
 12
1.0
 22
0.0
 32
0.0
 13
1.0
 23
0.0
 33
0.0
 40
0.0
 40
0.0
 40
0.0
 40
0.0
 40
1.0
 40
1.0
 40
1.0
 40
2.0
 40
2.0
 40
2.0
 40
3.0
 40
3.0
 40
3.0
 40
4.0
 40
4.0
 40
4.0
 40
5.0
 40
5.0
 40
5.0
 40
6.0
 40
6.0
 40
6.0
 40
7.0
 40
7.0
 40
7.0
 40
8.0
 40
8.0
 40
8.0
 40
8.0
 10
210.5163855319188
 20
-590.7687651554643
 30
0.0
 10
211.6515967599635
 20
-595.4553753157888
 30
0.0
 10
211.6465249808834
 20
-600.4882602095531
 30
0.0
 10
211.6571021561094
 20
-605.3660725611026
 30
0.0
 10
211.7392882013955
 20
-643.236332906039
 30
0.0
 10
211.6965149074831
 20
-681.1068487757057
 30
0.0
 10
211.7087336340801
 20
-718.9772872136327
 30
0.0
 10
211.709306628858
 20
-720.7608188999693
 30
0.0
 10
211.8644953185931
 20
-722.5442886409201
 30
0.0
 10
211.9614785706726
 20
-724.6240741578349
 30
0.0
 10
216.9229636586224
 20
-723.8163527235974
 30
0.0
 10
217.3812124289461
 20
-720.6514388267606
 30
0.0
 10
217.3762258251645
 20
-717.1037024159596
 30
0.0
 10
217.3567285140944
 20
-703.2404478890512
 30
0.0
 10
217.3686220297095
 20
-689.3771469031108
 30
0.0
 10
217.3685988008147
 20
-675.5138614035077
 30
0.0
 10
217.3685678292031
 20
-651.3376440078682
 30
0.0
 10
217.4507693636206
 20
-627.1610394535346
 30
0.0
 10
217.3371382888135
 20
-602.9853485937074
 30
0.0
 10
217.2694552070516
 20
-588.5858483066731
 30
0.0
 10
212.2597998353358
 20
-575.9922497349326
 30
0.0
 10
202.8130813093276
 20
-564.9227865261619
 30
0.0
 10
205.5118174256004
 20
-573.8037345708562
 30
0.0
 10
208.4369097423514
 20
-582.1838309029827
 30
0.0
 10
210.5163855319188
 20
-590.7687651554643
 30
0.0
  0
HATCH
  5
F1
330
EB
100
AcDbEntity
  8
Layer 1
 62
   250
420
  2301728
100
AcDbHatch
 10
0.0
 20
0.0
 30
0.0
210
0.0
220
0.0
230
1.0
  2
SOLID
 70
     1
 71
     0
 91
        2
 92
        1
 93
        1
 72
     4
 94
        3
 73
     0
 74
     1
 95
       53
 96
       49
 40
0.0
 40
0.0
 40
0.0
 40
0.0
 40
1.0
 40
1.0
 40
1.0
 40
2.0
 40
2.0
 40
2.0
 40
3.0
 40
3.0
 40
3.0
 40
4.0
 40
4.0
 40
4.0
 40
5.0
 40
5.0
 40
5.0
 40
6.0
 40
6.0
 40
6.0
 40
7.0
 40
7.0
 40
7.0
 40
8.0
 40
8.0
 40
8.0
 40
9.0
 40
9.0
 40
9.0
 40
10.0
 40
10.0
 40
10.0
 40
11.0
 40
11.0
 40
11.0
 40
12.0
 40
12.0
 40
12.0
 40
13.0
 40
13.0
 40
13.0
 40
14.0
 40
14.0
 40
14.0
 40
15.0
 40
15.0
 40
15.0
 40
16.0
 40
16.0
 40
16.0
 40
16.0
 10
222.9057888608413
 20
-716.3866535472444
 10
222.8963886473584
 20
-726.5035592547156
 10
219.5706258004675
 20
-729.9140556524835
 10
209.65496518073
 20
-729.9425969907552
 10
197.3110607355684
 20
-729.978122671715
 10
184.9668620498105
 20
-729.9833725430144
 10
172.6230040636992
 20
-729.9403514686819
 10
163.0229706954487
 20
-729.9068854709749
 10
159.4894197792564
 20
-726.3425322089824
 10
159.4868335596284
 20
-716.7600138999314
 10
159.4764267357368
 20
-678.2062713445703
 10
159.5317904303211
 20
-639.652451357475
 10
159.4534604856299
 20
-601.0988636655875
 10
159.4289610841852
 20
-589.0363616436043
 10
161.9788656572791
 20
-577.3897609742689
 10
169.9169196823132
 20
-568.48700040939
 10
178.6801017966118
 20
-558.658837654275
 10
180.9475199021472
 20
-547.9909509269874
 10
179.9582055556803
 20
-535.5253431471829
 10
179.080083185293
 20
-524.4607813678285
 10
179.0871294739709
 20
-513.3207604237887
 10
178.8719931328924
 20
-502.2107868657749
 10
178.7472041438032
 20
-495.7667675839566
 10
180.2135134849113
 20
-494.3908123704605
 10
186.3993337318107
 20
-494.3670892219252
 10
189.9502913029255
 20
-494.3534709151172
 10
193.5098128242871
 20
-494.520159186126
 10
197.0502706517
 20
-494.3269321550488
 10
201.7447711061141
 20
-494.0707182765382
 10
203.5125996358202
 20
-496.5576030932152
 10
203.362273658975
 20
-500.7695363721286
 10
203.2007200800717
 20
-505.2966836106225
 10
202.5516407907453
 20
-509.8113875687668
 10
202.4945890857953
 20
-514.3363047732037
 10
202.3645502241052
 20
-524.6493741105733
 10
202.8680113857899
 20
-534.986220798999
 10
202.3339027411712
 20
-545.2728955925795
 10
201.9739690487413
 20
-552.2045615718853
 10
204.0396929617473
 20
-557.5803374322659
 10
208.4983673138804
 20
-562.7342636194735
 10
218.6355911089413
 20
-574.4522098930083
 10
223.3611881488141
 20
-588.1156595627235
 10
223.0036470967043
 20
-603.7708626058939
 10
222.6022254784402
 20
-621.3476813542366
 10
222.9113639494699
 20
-638.9407143086028
 10
222.9113097464615
 20
-656.5267009747695
 10
222.9112632865254
 20
-676.4800236610481
 10
222.9243415062165
 20
-696.4333463473176
 10
222.9057888608413
 20
-716.3866535472444
 97
        0
 97
        0
 92
        1
 93
        1
 72
     4
 94
        3
 73
     0
 74
     1
 95
       29
 96
       25
 40
0.0
 40
0.0
 40
0.0
 40
0.0
 40
1.0
 40
1.0
 40
1.0
 40
2.0
 40
2.0
 40
2.0
 40
3.0
 40
3.0
 40
3.0
 40
4.0
 40
4.0
 40
4.0
 40
5.0
 40
5.0
 40
5.0
 40
6.0
 40
6.0
 40
6.0
 40
7.0
 40
7.0
 40
7.0
 40
8.0
 40
8.0
 40
8.0
 40
8.0
 10
210.5163855319188
 20
-590.7687651554643
 10
211.6515967599635
 20
-595.4553753157888
 10
211.6465249808834
 20
-600.4882602095531
 10
211.6571021561094
 20
-605.3660725611026
 10
211.7392882013955
 20
-643.236332906039
 10
211.6965149074831
 20
-681.1068487757057
 10
211.7087336340801
 20
-718.9772872136327
 10
211.709306628858
 20
-720.7608188999693
 10
211.8644953185931
 20
-722.5442886409201
 10
211.9614785706726
 20
-724.6240741578349
 10
216.9229636586224
 20
-723.8163527235974
 10
217.3812124289461
 20
-720.6514388267606
 10
217.3762258251645
 20
-717.1037024159596
 10
217.3567285140944
 20
-703.2404478890512
 10
217.3686220297095
 20
-689.3771469031108
 10
217.3685988008147
 20
-675.5138614035077
 10
217.3685678292031
 20
-651.3376440078682
 10
217.4507693636206
 20
-627.1610394535346
 10
217.3371382888135
 20
-602.9853485937074
 10
217.2694552070516
 20
-588.5858483066731
 10
212.2597998353358
 20
-575.9922497349326
 10
202.8130813093276
 20
-564.9227865261619
 10
205.5118174256004
 20
-573.8037345708562
 10
208.4369097423514
 20
-582.1838309029827
 10
210.5163855319188
 20
-590.7687651554643
 97
        0
 97
        0
 75
     2
 76
     1
 98
        0
  0
SPLINE
  5
F2
330
EB
100
AcDbEntity
  8
Layer 1
370
     0
100
AcDbSpline
210
0.0
220
0.0
230
1.0
 70
    11
 71
     3
 72
    59
 73
    55
 74
     0
 42
0.0000000001
 43
0.0000000001
 12
1.0
 22
0.0
 32
0.0
 13
1.0
 23
0.0
 33
0.0
 40
0.0
 40
0.0
 40
0.0
 40
0.0
 40
1.0
 40
1.0
 40
1.0
 40
2.0
 40
2.0
 40
2.0
 40
3.0
 40
3.0
 40
3.0
 40
4.0
 40
4.0
 40
4.0
 40
5.0
 40
5.0
 40
5.0
 40
6.0
 40
6.0
 40
6.0
 40
7.0
 40
7.0
 40
7.0
 40
8.0
 40
8.0
 40
8.0
 40
9.0
 40
9.0
 40
9.0
 40
10.0
 40
10.0
 40
10.0
 40
11.0
 40
11.0
 40
11.0
 40
12.0
 40
12.0
 40
12.0
 40
13.0
 40
13.0
 40
13.0
 40
14.0
 40
14.0
 40
14.0
 40
15.0
 40
15.0
 40
15.0
 40
16.0
 40
16.0
 40
16.0
 40
17.0
 40
17.0
 40
17.0
 40
18.0
 40
18.0
 40
18.0
 40
18.0
 10
267.7284669812698
 20
-727.5381355783484
 30
0.0
 10
274.2674041934852
 20
-725.4762340552479
 30
0.0
 10
280.8297077859143
 20
-723.4848599013221
 30
0.0
 10
287.33742621084
 20
-721.3287481121406
 30
0.0
 10
292.0326908579273
 20
-719.7731429853848
 30
0.0
 10
294.5089267113008
 20
-716.8347136148477
 30
0.0
 10
294.3972428615098
 20
-711.4130989874211
 30
0.0
 10
294.1169114646045
 20
-697.8045005246331
 30
0.0
 10
294.2745600572234
 20
-684.1861831371807
 30
0.0
 10
294.3187141380777
 20
-670.5719432296228
 30
0.0
 10
294.3373188040341
 20
-664.835953040345
 30
0.0
 10
291.426873233916
 20
-661.3465797992085
 30
0.0
 10
286.2414871250876
 20
-659.420538416236
 30
0.0
 10
271.4969055562824
 20
-653.9438685002442
 30
0.0
 10
263.1240240135385
 20
-643.1958735357584
 30
0.0
 10
261.307432245977
 20
-627.7700409619174
 30
0.0
 10
259.2356163030827
 20
-610.1770185139376
 30
0.0
 10
264.5757371891923
 20
-594.0460984350775
 30
0.0
 10
272.7833783948427
 20
-578.7878242193419
 30
0.0
 10
273.687713165591
 20
-577.1066178167112
 30
0.0
 10
276.5245779115021
 20
-575.5535820607711
 30
0.0
 10
278.5009966514444
 20
-575.5083760280431
 30
0.0
 10
291.2958725594763
 20
-575.2157470262046
 30
0.0
 10
304.1039118386652
 20
-575.2168175979823
 30
0.0
 10
316.8988110199534
 20
-575.5085342881193
 30
0.0
 10
318.8386488072711
 20
-575.552753533655
 30
0.0
 10
321.574044348703
 20
-577.1372175367087
 30
0.0
 10
322.5151276395964
 20
-578.8111347459144
 30
0.0
 10
330.3039264783738
 20
-592.6652105318317
 30
0.0
 10
335.0243960946218
 20
-607.575251208249
 30
0.0
 10
334.4791262509416
 20
-623.5462372585098
 30
0.0
 10
333.9200297473881
 20
-639.92206679216
 30
0.0
 10
326.2129457457058
 20
-652.198055455101
 30
0.0
 10
310.7760187956965
 20
-658.8075014170608
 30
0.0
 10
302.7007700114427
 20
-662.2649809450959
 30
0.0
 10
300.9038767532656
 20
-664.5409967095256
 30
0.0
 10
300.9014656403469
 20
-673.0435849362912
 30
0.0
 10
300.8980072293371
 20
-685.2355477239089
 30
0.0
 10
301.2599766627245
 20
-697.4422192289749
 30
0.0
 10
300.7625427334724
 20
-709.613850472977
 30
0.0
 10
300.4753969171798
 20
-716.6400186047304
 30
0.0
 10
303.6839965680538
 20
-720.1543594282557
 30
0.0
 10
309.7643057302639
 20
-722.0335377204028
 30
0.0
 10
315.859914751396
 20
-723.917482381743
 30
0.0
 10
321.9778195815506
 20
-725.7292798531416
 30
0.0
 10
328.0859542857825
 20
-727.5726917577103
 30
0.0
 10
328.0505765620728
 20
-728.0791557217926
 30
0.0
 10
328.0152011656901
 20
-728.585638304512
 30
0.0
 10
327.9798234419804
 20
-729.0921022685998
 30
0.0
 10
307.872490043188
 20
-729.0921022676976
 30
0.0
 10
287.7651566443947
 20
-729.0921022667972
 30
0.0
 10
267.657818590942
 20
-729.0921022658931
 30
0.0
 10
267.6813711574951
 20
-728.5741133700412
 30
0.0
 10
267.7049144147213
 20
-728.0561244741966
 30
0.0
 10
267.7284669812698
 20
-727.5381355783484
 30
0.0
  0
SPLINE
  5
F3
330
EB
100
AcDbEntity
  8
Layer 1
370
     0
100
AcDbSpline
210
0.0
220
0.0
230
1.0
 70
    11
 71
     3
 72
    20
 73
    16
 74
     0
 42
0.0000000001
 43
0.0000000001
 12
1.0
 22
0.0
 32
0.0
 13
1.0
 23
0.0
 33
0.0
 40
0.0
 40
0.0
 40
0.0
 40
0.0
 40
1.0
 40
1.0
 40
1.0
 40
2.0
 40
2.0
 40
2.0
 40
3.0
 40
3.0
 40
3.0
 40
4.0
 40
4.0
 40
4.0
 40
5.0
 40
5.0
 40
5.0
 40
5.0
 10
313.1682939388929
 20
-649.4358141763696
 30
0.0
 10
317.3571690963718
 20
-648.5483013377834
 30
0.0
 10
323.0738843495001
 20
-644.0197106637697
 30
0.0
 10
324.5757468022493
 20
-637.0452650852749
 30
0.0
 10
326.4195124608896
 20
-628.4830600064088
 30
0.0
 10
327.5981764487506
 20
-619.3349266520217
 30
0.0
 10
326.6030386215998
 20
-610.7245551780816
 30
0.0
 10
325.5394261292386
 20
-601.5216644337561
 30
0.0
 10
321.6084585576136
 20
-592.6501666786735
 30
0.0
 10
318.9291050917973
 20
-583.6340021711567
 30
0.0
 10
318.1728117002276
 20
-583.7861443034144
 30
0.0
 10
317.4165159813256
 20
-583.9382771263572
 30
0.0
 10
316.6602225897577
 20
-584.0904192586113
 30
0.0
 10
322.550000331722
 20
-606.3642396785272
 30
0.0
 10
324.098130077884
 20
-628.3626160910153
 30
0.0
 10
313.1682939388929
 20
-649.4358141763696
 30
0.0
  0
HATCH
  5
F4
330
EB
100
AcDbEntity
  8
Layer 1
 62
   250
420
  2301728
100
AcDbHatch
 10
0.0
 20
0.0
 30
0.0
210
0.0
220
0.0
230
1.0
  2
SOLID
 70
     1
 71
     0
 91
        2
 92
        1
 93
        1
 72
     4
 94
        3
 73
     0
 74
     1
 95
       59
 96
       55
 40
0.0
 40
0.0
 40
0.0
 40
0.0
 40
1.0
 40
1.0
 40
1.0
 40
2.0
 40
2.0
 40
2.0
 40
3.0
 40
3.0
 40
3.0
 40
4.0
 40
4.0
 40
4.0
 40
5.0
 40
5.0
 40
5.0
 40
6.0
 40
6.0
 40
6.0
 40
7.0
 40
7.0
 40
7.0
 40
8.0
 40
8.0
 40
8.0
 40
9.0
 40
9.0
 40
9.0
 40
10.0
 40
10.0
 40
10.0
 40
11.0
 40
11.0
 40
11.0
 40
12.0
 40
12.0
 40
12.0
 40
13.0
 40
13.0
 40
13.0
 40
14.0
 40
14.0
 40
14.0
 40
15.0
 40
15.0
 40
15.0
 40
16.0
 40
16.0
 40
16.0
 40
17.0
 40
17.0
 40
17.0
 40
18.0
 40
18.0
 40
18.0
 40
18.0
 10
267.7284669812698
 20
-727.5381355783484
 10
274.2674041934852
 20
-725.4762340552479
 10
280.8297077859143
 20
-723.4848599013221
 10
287.33742621084
 20
-721.3287481121406
 10
292.0326908579273
 20
-719.7731429853848
 10
294.5089267113008
 20
-716.8347136148477
 10
294.3972428615098
 20
-711.4130989874211
 10
294.1169114646045
 20
-697.8045005246331
 10
294.2745600572234
 20
-684.1861831371807
 10
294.3187141380777
 20
-670.5719432296228
 10
294.3373188040341
 20
-664.835953040345
 10
291.426873233916
 20
-661.3465797992085
 10
286.2414871250876
 20
-659.420538416236
 10
271.4969055562824
 20
-653.9438685002442
 10
263.1240240135385
 20
-643.1958735357584
 10
261.307432245977
 20
-627.7700409619174
 10
259.2356163030827
 20
-610.1770185139376
 10
264.5757371891923
 20
-594.0460984350775
 10
272.7833783948427
 20
-578.7878242193419
 10
273.687713165591
 20
-577.1066178167112
 10
276.5245779115021
 20
-575.5535820607711
 10
278.5009966514444
 20
-575.5083760280431
 10
291.2958725594763
 20
-575.2157470262046
 10
304.1039118386652
 20
-575.2168175979823
 10
316.8988110199534
 20
-575.5085342881193
 10
318.8386488072711
 20
-575.552753533655
 10
321.574044348703
 20
-577.1372175367087
 10
322.5151276395964
 20
-578.8111347459144
 10
330.3039264783738
 20
-592.6652105318317
 10
335.0243960946218
 20
-607.575251208249
 10
334.4791262509416
 20
-623.5462372585098
 10
333.9200297473881
 20
-639.92206679216
 10
326.2129457457058
 20
-652.198055455101
 10
310.7760187956965
 20
-658.8075014170608
 10
302.7007700114427
 20
-662.2649809450959
 10
300.9038767532656
 20
-664.5409967095256
 10
300.9014656403469
 20
-673.0435849362912
 10
300.8980072293371
 20
-685.2355477239089
 10
301.2599766627245
 20
-697.4422192289749
 10
300.7625427334724
 20
-709.613850472977
 10
300.4753969171798
 20
-716.6400186047304
 10
303.6839965680538
 20
-720.1543594282557
 10
309.7643057302639
 20
-722.0335377204028
 10
315.859914751396
 20
-723.917482381743
 10
321.9778195815506
 20
-725.7292798531416
 10
328.0859542857825
 20
-727.5726917577103
 10
328.0505765620728
 20
-728.0791557217926
 10
328.0152011656901
 20
-728.585638304512
 10
327.9798234419804
 20
-729.0921022685998
 10
307.872490043188
 20
-729.0921022676976
 10
287.7651566443947
 20
-729.0921022667972
 10
267.657818590942
 20
-729.0921022658931
 10
267.6813711574951
 20
-728.5741133700412
 10
267.7049144147213
 20
-728.0561244741966
 10
267.7284669812698
 20
-727.5381355783484
 97
        0
 97
        0
 92
        1
 93
        1
 72
     4
 94
        3
 73
     0
 74
     1
 95
       20
 96
       16
 40
0.0
 40
0.0
 40
0.0
 40
0.0
 40
1.0
 40
1.0
 40
1.0
 40
2.0
 40
2.0
 40
2.0
 40
3.0
 40
3.0
 40
3.0
 40
4.0
 40
4.0
 40
4.0
 40
5.0
 40
5.0
 40
5.0
 40
5.0
 10
313.1682939388929
 20
-649.4358141763696
 10
317.3571690963718
 20
-648.5483013377834
 10
323.0738843495001
 20
-644.0197106637697
 10
324.5757468022493
 20
-637.0452650852749
 10
326.4195124608896
 20
-628.4830600064088
 10
327.5981764487506
 20
-619.3349266520217
 10
326.6030386215998
 20
-610.7245551780816
 10
325.5394261292386
 20
-601.5216644337561
 10
321.6084585576136
 20
-592.6501666786735
 10
318.9291050917973
 20
-583.6340021711567
 10
318.1728117002276
 20
-583.7861443034144
 10
317.4165159813256
 20
-583.9382771263572
 10
316.6602225897577
 20
-584.0904192586113
 10
322.550000331722
 20
-606.3642396785272
 10
324.098130077884
 20
-628.3626160910153
 10
313.1682939388929
 20
-649.4358141763696
 97
        0
 97
        0
 75
     2
 76
     1
 98
        0
  0
ENDBLK
  5
EE
330
EB
100
AcDbEntity
  8
0
100
AcDbBlockEnd
  0
BLOCK
  5
F7
330
F5
100
AcDbEntity
  8
0
100
AcDbBlockBegin
  2
block 7
 70
     0
 10
0.0
 20
0.0
 30
0.0
  3
block 7
  1

  0
SPLINE
  5
F9
330
F5
100
AcDbEntity
  8
Layer 1
370
     0
100
AcDbSpline
210
0.0
220
0.0
230
1.0
 70
    11
 71
     3
 72
    20
 73
    16
 74
     0
 42
0.0000000001
 43
0.0000000001
 12
1.0
 22
0.0
 32
0.0
 13
1.0
 23
0.0
 33
0.0
 40
0.0
 40
0.0
 40
0.0
 40
0.0
 40
1.0
 40
1.0
 40
1.0
 40
2.0
 40
2.0
 40
2.0
 40
3.0
 40
3.0
 40
3.0
 40
4.0
 40
4.0
 40
4.0
 40
5.0
 40
5.0
 40
5.0
 40
5.0
 10
355.5726140665083
 20
-717.5690944473699
 30
0.0
 10
544.7319462855958
 20
-672.592399443558
 30
0.0
 10
733.891278504685
 20
-627.6157044397496
 30
0.0
 10
923.0506107237707
 20
-582.639009435934
 30
0.0
 10
945.0316588228052
 20
-577.4125430247059
 30
0.0
 10
935.7254228244892
 20
-543.5364613905513
 30
0.0
 10
913.7134292089577
 20
-548.7702857631502
 30
0.0
 10
724.5540969898684
 20
-593.7469807669531
 30
0.0
 10
535.3947647707801
 20
-638.7236757707669
 30
0.0
 10
346.2354325516926
 20
-683.7003707745735
 30
0.0
 10
324.2543844526572
 20
-688.926837185807
 30
0.0
 10
333.5606204509768
 20
-722.8029188199598
 30
0.0
 10
355.5726140665083
 20
-717.5690944473699
 30
0.0
 10
355.5726140665083
 20
-717.5690944473699
 30
0.0
 10
355.5726140665083
 20
-717.5690944473699
 30
0.0
 10
355.5726140665083
 20
-717.5690944473699
 30
0.0
  0
HATCH
  5
FA
330
F5
100
AcDbEntity
  8
Layer 1
 62
    12
420
 13500672
100
AcDbHatch
 10
0.0
 20
0.0
 30
0.0
210
0.0
220
0.0
230
1.0
  2
SOLID
 70
     1
 71
     0
 91
        1
 92
        1
 93
        1
 72
     4
 94
        3
 73
     0
 74
     1
 95
       20
 96
       16
 40
0.0
 40
0.0
 40
0.0
 40
0.0
 40
1.0
 40
1.0
 40
1.0
 40
2.0
 40
2.0
 40
2.0
 40
3.0
 40
3.0
 40
3.0
 40
4.0
 40
4.0
 40
4.0
 40
5.0
 40
5.0
 40
5.0
 40
5.0
 10
355.5726140665083
 20
-717.5690944473699
 10
544.7319462855958
 20
-672.592399443558
 10
733.891278504685
 20
-627.6157044397496
 10
923.0506107237707
 20
-582.639009435934
 10
945.0316588228052
 20
-577.4125430247059
 10
935.7254228244892
 20
-543.5364613905513
 10
913.7134292089577
 20
-548.7702857631502
 10
724.5540969898684
 20
-593.7469807669531
 10
535.3947647707801
 20
-638.7236757707669
 10
346.2354325516926
 20
-683.7003707745735
 10
324.2543844526572
 20
-688.926837185807
 10
333.5606204509768
 20
-722.8029188199598
 10
355.5726140665083
 20
-717.5690944473699
 10
355.5726140665083
 20
-717.5690944473699
 10
355.5726140665083
 20
-717.5690944473699
 10
355.5726140665083
 20
-717.5690944473699
 97
        0
 97
        0
 75
     2
 76
     1
 98
        0
  0
ENDBLK
  5
F8
330
F5
100
AcDbEntity
  8
0
100
AcDbBlockEnd
  0
ENDSEC
  0
SECTION
  2
ENTITIES
  0
INSERT
  5
42
330
1F
100
AcDbEntity
  8
Layer 1
100
AcDbBlockReference
  2
block 2
 10
0.0
 20
0.0
 30
0.0
  0
ENDSEC
  0
SECTION
  2
OBJECTS
  0
DICTIONARY
  5
C
330
0
100
AcDbDictionary
281
     1
  3
ACAD_GROUP
350
D
  3
ACAD_LAYOUT
350
1A
  3
ACAD_MATERIAL
350
3B
  3
ACAD_MLEADERSTYLE
350
FC
  3
ACAD_MLINESTYLE
350
17
  3
ACAD_PLOTSETTINGS
350
19
  3
ACAD_PLOTSTYLENAME
350
E
  3
ACAD_TABLESTYLE
350
FB
  3
ACAD_VISUALSTYLE
350
2A
  0
SUN
  5
3F
330
29
100
AcDbSun
 90
        1
290
     0
 63
     7
421
 16777215
 40
1.0
291
     1
 91
  2455826
 92
 54000000
292
     0
 70
     2
 71
   256
280
     1
  0
DICTIONARY
  5
D
102
{ACAD_REACTORS
330
C
102
}
330
C
100
AcDbDictionary
281
     1
  0
DICTIONARY
  5
1A
102
{ACAD_REACTORS
330
C
102
}
330
C
100
AcDbDictionary
281
     1
  3
Layout1
350
1E
  3
Layout2
350
26
  3
Model
350
22
  0
DICTIONARY
  5
3B
102
{ACAD_REACTORS
330
C
102
}
330
C
100
AcDbDictionary
281
     1
  3
ByBlock
350
3D
  3
ByLayer
350
3C
  3
Global
350
3E
  0
DICTIONARY
  5
FC
102
{ACAD_REACTORS
330
C
102
}
330
C
100
AcDbDictionary
281
     1
  0
DICTIONARY
  5
17
102
{ACAD_REACTORS
330
C
102
}
330
C
100
AcDbDictionary
281
     1
  3
Standard
350
18
  0
DICTIONARY
  5
19
102
{ACAD_REACTORS
330
C
102
}
330
C
100
AcDbDictionary
281
     1
  0
ACDBDICTIONARYWDFLT
  5
E
102
{ACAD_REACTORS
330
C
102
}
330
C
100
AcDbDictionary
281
     1
  3
Normal
350
F
100
AcDbDictionaryWithDefault
340
F
  0
DICTIONARY
  5
FB
102
{ACAD_REACTORS
330
C
102
}
330
C
100
AcDbDictionary
281
     1
  0
DICTIONARY
  5
2A
102
{ACAD_REACTORS
330
C
102
}
330
C
100
AcDbDictionary
281
     1
  3
2dWireframe
350
2F
  3
3D Hidden
350
31
  3
3dWireframe
350
30
  3
Basic
350
32
  3
Brighten
350
36
  3
ColorChange
350
3A
  3
Conceptual
350
34
  3
Dim
350
35
  3
Facepattern
350
39
  3
Flat
350
2B
  3
FlatWithEdges
350
2C
  3
Gouraud
350
2D
  3
GouraudWithEdges
350
2E
  3
Linepattern
350
38
  3
Realistic
350
33
  3
Thicken
350
37
  0
LAYOUT
  5
1E
102
{ACAD_REACTORS
330
1A
102
}
330
1A
100
AcDbPlotSettings
  1

  2
none_device
  4

  6

 40
0.0
 41
0.0
 42
0.0
 43
0.0
 44
0.0
 45
0.0
 46
0.0
 47
0.0
 48
0.0
 49
0.0
140
0.0
141
0.0
142
1.0
143
1.0
 70
   688
 72
     0
 73
     0
 74
     5
  7

 75
    16
 76
     0
 77
     2
 78
   300
147
1.0
148
0.0
149
0.0
100
AcDbLayout
  1
Layout1
 70
     1
 71
     1
 10
0.0
 20
0.0
 11
12.0
 21
9.0
 12
0.0
 22
0.0
 32
0.0
 14
1.000000000000000E+20
 24
1.000000000000000E+20
 34
1.000000000000000E+20
 15
-1.000000000000000E+20
 25
-1.000000000000000E+20
 35
-1.000000000000000E+20
146
0.0
 13
0.0
 23
0.0
 33
0.0
 16
1.0
 26
0.0
 36
0.0
 17
0.0
 27
1.0
 37
0.0
 76
     0
330
1B
  0
LAYOUT
  5
26
102
{ACAD_REACTORS
330
1A
102
}
330
1A
100
AcDbPlotSettings
  1

  2
none_device
  4

  6

 40
0.0
 41
0.0
 42
0.0
 43
0.0
 44
0.0
 45
0.0
 46
0.0
 47
0.0
 48
0.0
 49
0.0
140
0.0
141
0.0
142
1.0
143
1.0
 70
   688
 72
     0
 73
     0
 74
     5
  7

 75
    16
 76
     0
 77
     2
 78
   300
147
1.0
148
0.0
149
0.0
100
AcDbLayout
  1
Layout2
 70
     1
 71
     2
 10
0.0
 20
0.0
 11
0.0
 21
0.0
 12
0.0
 22
0.0
 32
0.0
 14
0.0
 24
0.0
 34
0.0
 15
0.0
 25
0.0
 35
0.0
146
0.0
 13
0.0
 23
0.0
 33
0.0
 16
1.0
 26
0.0
 36
0.0
 17
0.0
 27
1.0
 37
0.0
 76
     0
330
23
  0
LAYOUT
  5
22
102
{ACAD_REACTORS
330
1A
102
}
330
1A
100
AcDbPlotSettings
  1

  2
none_device
  4

  6

 40
0.0
 41
0.0
 42
0.0
 43
0.0
 44
0.0
 45
0.0
 46
0.0
 47
0.0
 48
0.0
 49
0.0
140
0.0
141
0.0
142
1.0
143
1.0
 70
  1712
 72
     0
 73
     0
 74
     0
  7

 75
     0
 76
     0
 77
     2
 78
   300
147
1.0
148
0.0
149
0.0
100
AcDbLayout
  1
Model
 70
     1
 71
     0
 10
0.0
 20
0.0
 11
12.0
 21
9.0
 12
0.0
 22
0.0
 32
0.0
 14
1.000000000000000E+20
 24
1.000000000000000E+20
 34
1.000000000000000E+20
 15
-1.000000000000000E+20
 25
-1.000000000000000E+20
 35
-1.000000000000000E+20
146
0.0
 13
0.0
 23
0.0
 33
0.0
 16
1.0
 26
0.0
 36
0.0
 17
0.0
 27
1.0
 37
0.0
 76
     0
330
1F
331
29
  0
MATERIAL
  5
3D
102
{ACAD_REACTORS
330
3B
102
}
330
3B
100
AcDbMaterial
  1
ByBlock
 72
     1
 94
      127
  0
MATERIAL
  5
3C
102
{ACAD_REACTORS
330
3B
102
}
330
3B
100
AcDbMaterial
  1
ByLayer
 72
     1
 94
      127
  0
MATERIAL
  5
3E
102
{ACAD_REACTORS
330
3B
102
}
330
3B
100
AcDbMaterial
  1
Global
 72
     1
 94
      127
  0
MLINESTYLE
  5
18
102
{ACAD_REACTORS
330
17
102
}
330
17
100
AcDbMlineStyle
  2
Standard
 70
     0
  3

 62
   256
 51
90.0
 52
90.0
 71
     2
 49
0.5
 62
   256
  6
BYLAYER
 49
-0.5
 62
   256
  6
BYLAYER
  0
ACDBPLACEHOLDER
  5
F
102
{ACAD_REACTORS
330
E
102
}
330
E
  0
VISUALSTYLE
  5
2F
102
{ACAD_REACTORS
330
2A
102
}
330
2A
100
AcDbVisualStyle
  2
2dWireframe
 70
     4
177
     2
291
     0
 71
     0
176
     1
 72
     2
176
     1
 73
     0
176
     1
 90
        0
176
     1
 40
-0.6
176
     1
 41
-30.0
176
     1
 62
     5
 63
     7
421
 16777215
176
     1
 74
     1
176
     1
 91
        4
176
     1
 64
     7
176
     1
 65
   257
176
     1
 75
     1
176
     1
175
     1
176
     1
 42
1.0
176
     1
 92
        0
176
     1
 66
   257
176
     1
 43
1.0
176
     1
 76
     1
176
     1
 77
     6
176
     1
 78
     2
176
     1
 67
     7
176
     1
 79
     5
176
     1
170
     0
176
     1
171
     0
176
     1
290
     0
176
     1
 93
        1
176
     1
 44
0.0
176
     1
173
     0
176
     1
  0
VISUALSTYLE
  5
31
102
{ACAD_REACTORS
330
2A
102
}
330
2A
100
AcDbVisualStyle
  2
3D Hidden
 70
     6
177
     2
291
     0
 71
     1
176
     1
 72
     2
176
     1
 73
     2
176
     1
 90
        0
176
     1
 40
-0.6
176
     1
 41
-30.0
176
     1
 62
     5
 63
     7
421
 16777215
176
     1
 74
     2
176
     1
 91
        2
176
     1
 64
     7
176
     1
 65
   257
176
     1
 75
     2
176
     1
175
     1
176
     1
 42
40.0
176
     1
 92
        0
176
     1
 66
   257
176
     1
 43
1.0
176
     1
 76
     1
176
     1
 77
     6
176
     1
 78
     2
176
     1
 67
     7
176
     1
 79
     3
176
     1
170
     0
176
     1
171
     0
176
     1
290
     0
176
     1
 93
        1
176
     1
 44
0.0
176
     1
173
     0
176
     1
  0
VISUALSTYLE
  5
30
102
{ACAD_REACTORS
330
2A
102
}
330
2A
100
AcDbVisualStyle
  2
3dWireframe
 70
     5
177
     2
291
     0
 71
     0
176
     1
 72
     2
176
     1
 73
     0
176
     1
 90
        0
176
     1
 40
-0.6
176
     1
 41
-30.0
176
     1
 62
     5
 63
     7
421
 16777215
176
     1
 74
     1
176
     1
 91
        4
176
     1
 64
     7
176
     1
 65
   257
176
     1
 75
     1
176
     1
175
     1
176
     1
 42
1.0
176
     1
 92
        0
176
     1
 66
   257
176
     1
 43
1.0
176
     1
 76
     1
176
     1
 77
     6
176
     1
 78
     2
176
     1
 67
     7
176
     1
 79
     5
176
     1
170
     0
176
     1
171
     0
176
     1
290
     0
176
     1
 93
        1
176
     1
 44
0.0
176
     1
173
     0
176
     1
  0
VISUALSTYLE
  5
32
102
{ACAD_REACTORS
330
2A
102
}
330
2A
100
AcDbVisualStyle
  2
Basic
 70
     7
177
     2
291
     1
 71
     1
176
     1
 72
     0
176
     1
 73
     1
176
     1
 90
        0
176
     1
 40
-0.6
176
     1
 41
-30.0
176
     1
 62
     5
 63
     7
421
 16777215
176
     1
 74
     0
176
     1
 91
        4
176
     1
 64
     7
176
     1
 65
   257
176
     1
 75
     1
176
     1
175
     1
176
     1
 42
1.0
176
     1
 92
        8
176
     1
 66
     7
176
     1
 43
1.0
176
     1
 76
     1
176
     1
 77
     6
176
     1
 78
     2
176
     1
 67
     7
176
     1
 79
     5
176
     1
170
     0
176
     1
171
     0
176
     1
290
     0
176
     1
 93
        1
176
     1
 44
0.0
176
     1
173
     0
176
     1
  0
VISUALSTYLE
  5
36
102
{ACAD_REACTORS
330
2A
102
}
330
2A
100
AcDbVisualStyle
  2
Brighten
 70
    12
177
     2
291
     1
 71
     2
176
     1
 72
     2
176
     1
 73
     0
176
     1
 90
        0
176
     1
 40
-0.6
176
     1
 41
-30.0
176
     1
 62
     5
 63
     7
421
 16777215
176
     1
 74
     1
176
     1
 91
        4
176
     1
 64
     7
176
     1
 65
   257
176
     1
 75
     1
176
     1
175
     1
176
     1
 42
1.0
176
     1
 92
        8
176
     1
 66
     7
176
     1
 43
1.0
176
     1
 76
     1
176
     1
 77
     6
176
     1
 78
     2
176
     1
 67
     7
176
     1
 79
     5
176
     1
170
     0
176
     1
171
     0
176
     1
290
     0
176
     1
 93
        1
176
     1
 44
50.0
176
     1
173
     0
176
     1
  0
VISUALSTYLE
  5
3A
102
{ACAD_REACTORS
330
2A
102
}
330
2A
100
AcDbVisualStyle
  2
ColorChange
 70
    16
177
     2
291
     1
 71
     2
176
     1
 72
     2
176
     1
 73
     3
176
     1
 90
        0
176
     1
 40
-0.6
176
     1
 41
-30.0
176
     1
 62
     5
 63
     8
421
  8421504
176
     1
 74
     1
176
     1
 91
        4
176
     1
 64
     7
176
     1
 65
   257
176
     1
 75
     1
176
     1
175
     1
176
     1
 42
1.0
176
     1
 92
        8
176
     1
 66
     8
424
  8421504
176
     1
 43
1.0
176
     1
 76
     1
176
     1
 77
     6
176
     1
 78
     2
176
     1
 67
     7
176
     1
 79
     5
176
     1
170
     0
176
     1
171
     0
176
     1
290
     0
176
     1
 93
        1
176
     1
 44
0.0
176
     1
173
     0
176
     1
  0
VISUALSTYLE
  5
34
102
{ACAD_REACTORS
330
2A
102
}
330
2A
100
AcDbVisualStyle
  2
Conceptual
 70
     9
177
     2
291
     0
 71
     3
176
     1
 72
     2
176
     1
 73
     0
176
     1
 90
        0
176
     1
 40
-0.6
176
     1
 41
-30.0
176
     1
 62
     5
 63
     7
421
 16777215
176
     1
 74
     2
176
     1
 91
        2
176
     1
 64
     7
176
     1
 65
   257
176
     1
 75
     1
176
     1
175
     1
176
     1
 42
40.0
176
     1
 92
        8
176
     1
 66
     7
176
     1
 43
1.0
176
     1
 76
     1
176
     1
 77
     6
176
     1
 78
     2
176
     1
 67
     7
176
     1
 79
     3
176
     1
170
     0
176
     1
171
     0
176
     1
290
     0
176
     1
 93
        1
176
     1
 44
0.0
176
     1
173
     0
176
     1
  0
VISUALSTYLE
  5
35
102
{ACAD_REACTORS
330
2A
102
}
330
2A
100
AcDbVisualStyle
  2
Dim
 70
    11
177
     2
291
     1
 71
     2
176
     1
 72
     2
176
     1
 73
     0
176
     1
 90
        0
176
     1
 40
-0.6
176
     1
 41
-30.0
176
     1
 62
     5
 63
     7
421
 16777215
176
     1
 74
     1
176
     1
 91
        4
176
     1
 64
     7
176
     1
 65
   257
176
     1
 75
     1
176
     1
175
     1
176
     1
 42
1.0
176
     1
 92
        8
176
     1
 66
     7
176
     1
 43
1.0
176
     1
 76
     1
176
     1
 77
     6
176
     1
 78
     2
176
     1
 67
     7
176
     1
 79
     5
176
     1
170
     0
176
     1
171
     0
176
     1
290
     0
176
     1
 93
        1
176
     1
 44
-50.0
176
     1
173
     0
176
     1
  0
VISUALSTYLE
  5
39
102
{ACAD_REACTORS
330
2A
102
}
330
2A
100
AcDbVisualStyle
  2
Facepattern
 70
    15
177
     2
291
     1
 71
     2
176
     1
 72
     2
176
     1
 73
     0
176
     1
 90
        0
176
     1
 40
-0.6
176
     1
 41
-30.0
176
     1
 62
     5
 63
     7
421
 16777215
176
     1
 74
     1
176
     1
 91
        4
176
     1
 64
     7
176
     1
 65
   257
176
     1
 75
     1
176
     1
175
     1
176
     1
 42
1.0
176
     1
 92
        8
176
     1
 66
     7
176
     1
 43
1.0
176
     1
 76
     1
176
     1
 77
     6
176
     1
 78
     2
176
     1
 67
     7
176
     1
 79
     5
176
     1
170
     0
176
     1
171
     0
176
     1
290
     0
176
     1
 93
        1
176
     1
 44
0.0
176
     1
173
     0
176
     1
  0
VISUALSTYLE
  5
2B
102
{ACAD_REACTORS
330
2A
102
}
330
2A
100
AcDbVisualStyle
  2
Flat
 70
     0
177
     2
291
     1
 71
     2
176
     1
 72
     1
176
     1
 73
     1
176
     1
 90
        2
176
     1
 40
-0.6
176
     1
 41
30.0
176
     1
 62
     5
 63
     7
421
 16777215
176
     1
 74
     0
176
     1
 91
        4
176
     1
 64
     7
176
     1
 65
   257
176
     1
 75
     1
176
     1
175
     1
176
     1
 42
1.0
176
     1
 92
        8
176
     1
 66
     7
176
     1
 43
1.0
176
     1
 76
     1
176
     1
 77
     6
176
     1
 78
     2
176
     1
 67
     7
176
     1
 79
     5
176
     1
170
     0
176
     1
171
     0
176
     1
290
     0
176
     1
 93
       13
176
     1
 44
0.0
176
     1
173
     0
176
     1
  0
VISUALSTYLE
  5
2C
102
{ACAD_REACTORS
330
2A
102
}
330
2A
100
AcDbVisualStyle
  2
FlatWithEdges
 70
     1
177
     2
291
     1
 71
     2
176
     1
 72
     1
176
     1
 73
     1
176
     1
 90
        2
176
     1
 40
-0.6
176
     1
 41
30.0
176
     1
 62
     5
 63
     7
421
 16777215
176
     1
 74
     1
176
     1
 91
        4
176
     1
 64
     7
176
     1
 65
   257
176
     1
 75
     1
176
     1
175
     1
176
     1
 42
1.0
176
     1
 92
        0
176
     1
 66
   257
176
     1
 43
1.0
176
     1
 76
     1
176
     1
 77
     6
176
     1
 78
     2
176
     1
 67
     7
176
     1
 79
     5
176
     1
170
     0
176
     1
171
     0
176
     1
290
     0
176
     1
 93
       13
176
     1
 44
0.0
176
     1
173
     0
176
     1
  0
VISUALSTYLE
  5
2D
102
{ACAD_REACTORS
330
2A
102
}
330
2A
100
AcDbVisualStyle
  2
Gouraud
 70
     2
177
     2
291
     1
 71
     2
176
     1
 72
     2
176
     1
 73
     1
176
     1
 90
        2
176
     1
 40
-0.6
176
     1
 41
30.0
176
     1
 62
     5
 63
     7
421
 16777215
176
     1
 74
     0
176
     1
 91
        4
176
     1
 64
     7
176
     1
 65
   257
176
     1
 75
     1
176
     1
175
     1
176
     1
 42
1.0
176
     1
 92
        0
176
     1
 66
     7
176
     1
 43
1.0
176
     1
 76
     1
176
     1
 77
     6
176
     1
 78
     2
176
     1
 67
     7
176
     1
 79
     5
176
     1
170
     0
176
     1
171
     0
176
     1
290
     0
176
     1
 93
       13
176
     1
 44
0.0
176
     1
173
     0
176
     1
  0
VISUALSTYLE
  5
2E
102
{ACAD_REACTORS
330
2A
102
}
330
2A
100
AcDbVisualStyle
  2
GouraudWithEdges
 70
     3
177
     2
291
     1
 71
     2
176
     1
 72
     2
176
     1
 73
     1
176
     1
 90
        2
176
     1
 40
-0.6
176
     1
 41
30.0
176
     1
 62
     5
 63
     7
421
 16777215
176
     1
 74
     1
176
     1
 91
        4
176
     1
 64
     7
176
     1
 65
   257
176
     1
 75
     1
176
     1
175
     1
176
     1
 42
1.0
176
     1
 92
        0
176
     1
 66
   257
176
     1
 43
1.0
176
     1
 76
     1
176
     1
 77
     6
176
     1
 78
     2
176
     1
 67
     7
176
     1
 79
     5
176
     1
170
     0
176
     1
171
     0
176
     1
290
     0
176
     1
 93
       13
176
     1
 44
0.0
176
     1
173
     0
176
     1
  0
VISUALSTYLE
  5
38
102
{ACAD_REACTORS
330
2A
102
}
330
2A
100
AcDbVisualStyle
  2
Linepattern
 70
    14
177
     2
291
     1
 71
     2
176
     1
 72
     2
176
     1
 73
     0
176
     1
 90
        0
176
     1
 40
-0.6
176
     1
 41
-30.0
176
     1
 62
     5
 63
     7
421
 16777215
176
     1
 74
     1
176
     1
 91
        4
176
     1
 64
     7
176
     1
 65
   257
176
     1
 75
     7
176
     1
175
     7
176
     1
 42
1.0
176
     1
 92
        8
176
     1
 66
     7
176
     1
 43
1.0
176
     1
 76
     1
176
     1
 77
     6
176
     1
 78
     2
176
     1
 67
     7
176
     1
 79
     5
176
     1
170
     0
176
     1
171
     0
176
     1
290
     0
176
     1
 93
        1
176
     1
 44
0.0
176
     1
173
     0
176
     1
  0
VISUALSTYLE
  5
33
102
{ACAD_REACTORS
330
2A
102
}
330
2A
100
AcDbVisualStyle
  2
Realistic
 70
     8
177
     2
291
     0
 71
     2
176
     1
 72
     2
176
     1
 73
     0
176
     1
 90
        0
176
     1
 40
-0.6
176
     1
 41
-30.0
176
     1
 62
     5
 63
     7
421
 16777215
176
     1
 74
     1
176
     1
 91
        0
176
     1
 64
     7
176
     1
 65
   257
176
     1
 75
     1
176
     1
175
     1
176
     1
 42
1.0
176
     1
 92
        8
176
     1
 66
     8
424
  7895160
176
     1
 43
1.0
176
     1
 76
     1
176
     1
 77
     6
176
     1
 78
     2
176
     1
 67
     7
176
     1
 79
     5
176
     1
170
     0
176
     1
171
     0
176
     1
290
     0
176
     1
 93
       13
176
     1
 44
0.0
176
     1
173
     0
176
     1
  0
VISUALSTYLE
  5
37
102
{ACAD_REACTORS
330
2A
102
}
330
2A
100
AcDbVisualStyle
  2
Thicken
 70
    13
177
     2
291
     1
 71
     2
176
     1
 72
     2
176
     1
 73
     0
176
     1
 90
        0
176
     1
 40
-0.6
176
     1
 41
-30.0
176
     1
 62
     5
 63
     7
421
 16777215
176
     1
 74
     1
176
     1
 91
        4
176
     1
 64
     7
176
     1
 65
   257
176
     1
 75
     1
176
     1
175
     1
176
     1
 42
1.0
176
     1
 92
       12
176
     1
 66
     7
176
     1
 43
1.0
176
     1
 76
     1
176
     1
 77
     6
176
     1
 78
     2
176
     1
 67
     7
176
     1
 79
     5
176
     1
170
     0
176
     1
171
     0
176
     1
290
     0
176
     1
 93
        1
176
     1
 44
0.0
176
     1
173
     0
176
     1
  0
ENDSEC
  0
EOF
