<?xml version="1.0" encoding="utf-8"?>
<!-- Generator: Adobe Illustrator 22.0.0, SVG Export Plug-In . SVG Version: 6.00 Build 0)  -->
<svg version="1.1" id="Layer_1" xmlns="http://www.w3.org/2000/svg" xmlns:xlink="http://www.w3.org/1999/xlink" x="0px" y="0px"
	 viewBox="0 0 1080 1080" style="enable-background:new 0 0 1080 1080;" xml:space="preserve">
<style type="text/css">
	.st0{fill:#CE0100;}
	.st1{fill:#070707;}
</style>
<g>
	<g>
		<g>
			<path class="st0" d="M197.9,790.4c-3.8,0-7.6-0.3-11.6-0.9c-18.6-3.6-30.4-14.4-35.7-32.5c-1.5-4.8-2.2-9.7-2.2-14.7
				c0-7.5,1.5-15,4.4-22.5c13.3-34.8,41-65.7,82.9-92.6c1.5-1,2.7-2,3.8-2.8c1-0.8,1.8-1.5,2.3-1.9c0.5-0.4,0.8-0.9,0.8-1.6
				c-2.9,0.6-5.8,0.9-8.8,0.9c-11.7,0-23.6-5.4-35.7-16.3c-11.1-10.2-18.5-22.8-22.2-37.8c-3.8-13.6-5.6-27.3-5.6-41.3
				c0-5.4,0.3-10.9,0.9-16.6c2.7-19.6,7.1-38.8,13.1-57.6l5.9-15c2.7-6.9,7.6-10.8,14.7-11.9c2.7-0.4,5.3-0.6,7.8-0.6
				c11.9,0,21.9,5,30,15c2.5,3.1,3.8,6.5,3.8,10c0,2.3-0.5,4.6-1.6,6.9c-6.1,13.6-10.5,27.6-13.5,42.2c-2.9,14.6-5.2,29.3-6.9,44.1
				l-0.6,6.6c-1.3,8.1-1.9,16.2-1.9,24.1c0,12.5,1.8,23.6,5.3,33.2c2.3,1.3,4.5,1.9,6.6,1.9c3.3,0,6.5-1.1,9.4-3.4
				c6-4.2,10.3-9.7,12.8-16.6l9.1-28.2l21-77.9c3.5-11.3,7.3-22.3,11.3-33.2c7.1-16.5,16.7-24.7,28.8-24.7c6.9,0,12.3,2.1,16.3,6.3
				l10.6,10.3c9.2,9.2,15.8,19.9,20,32.2c4.8,12.5,7.2,25.4,7.2,38.8c-0.2,16.9-1.5,33.7-3.8,50.4l-0.6,5.6c0.2,0.2,0.6,0.4,1.3,0.6
				c0.6,0.2,1.1,0.3,1.6,0.3l0.9-0.3c27.3-6.9,49.1-16.6,65.4-29.1c6.3-4.2,10.7-9.6,13.5-16.3c1-2.5,2.8-3.8,5.3-3.8
				c0.8,0,1.7,0.2,2.5,0.5c0.8,0.3,1.6,0.9,2.3,1.9c0.7,0.9,1.1,1.9,1.1,3c-0.4,3.5-1.6,6.8-3.4,9.7c-12.1,15.2-27.1,26.1-45,32.5
				c-7.3,2.7-14.5,5.2-21.6,7.5l-15.3,5.3l-10.9,3.1l-2.5,7.5c-7.5,28.8-17.5,56.7-30,83.8c-22.3,46.9-57.1,82.3-104.5,106
				C224.2,787.1,211.3,790.4,197.9,790.4z M193.6,777.8c6.7,0,12.9-2,18.8-5.9c9-5.4,16.6-12.2,22.8-20.3
				c8.3-10.4,16.4-21.2,24.1-32.2c21.9-31.9,37.7-66.4,47.5-103.5c0.2-0.6,0.5-1.5,0.8-2.5c0.3-1,0.5-2.3,0.5-3.8
				c0-1-0.2-2.2-0.6-3.4c-1.9,0.4-3.5,0.9-5,1.6c-26.7,9.8-51.6,23-74.8,39.7c-35.5,25.4-56.6,52.3-63.5,80.7
				c-1,4.8-1.6,9.6-1.6,14.4c0,5.4,0.8,10.7,2.5,16c4.4,12.9,13.5,19.4,27.2,19.4H193.6z M183.9,541.4c0.6-9.4,1.8-19.4,3.4-30
				l4.4-21.6c2.1-10.2,4.9-20.1,8.4-29.7l2.8-8.1c0.4-1.5,1-2.8,1.9-4.1c1.9-2.9,2.8-6.1,2.8-9.7l-2.2,0.9c-2.7,0.8-4.5,1.8-5.3,3
				c-0.8,1.1-2.2,4.3-4.1,9.5l-0.9,2.2c-5.2,16.3-9.1,32.8-11.6,49.7c-0.8,6.5-1.3,12.9-1.3,19.4C182.3,529,182.8,535.1,183.9,541.4
				z M249.6,618.6c19.4-10.4,38.7-19,57.9-25.6c3.8-1.3,5.8-3.8,6.3-7.5c5.2-25,8.4-50.3,9.7-75.7v-23.5c0-5.2,0-10.2,0-15
				c0-4.8,0.1-8.5,0.3-11.1c0.2-2.6,0.3-5.5,0.3-8.6v-9.1c0-1-0.3-1.9-0.8-2.5c-0.5-0.6-0.9-1.3-1.1-1.9c-2.1,1-3.8,2-5.2,3
				c-1.4,0.9-2.8,2.8-4.2,5.5c-4.4,9.2-7.4,16.4-9.1,21.6l-17.2,60.1l-15,54.1c-3.1,13.1-9.9,24.1-20.3,32.8L249.6,618.6z
				 M317.1,624.6l0.3-0.3l-0.3-0.3V624.6z M319.9,617.4c2.3-4.2,3.4-8.8,3.4-13.8v-2.5c-0.2,0.4-0.5,0.8-0.9,1.1
				c-0.4,0.3-0.7,0.8-0.9,1.4l-2.8,13.1L319.9,617.4z M326.5,585.8c1.3,0,2.3-0.5,3.1-1.4c0.8-0.9,2.8-9,5.9-24.2
				c2.7-18.3,4.1-36.8,4.1-55.4l-0.6-32.5c0-3.8-1.1-7.4-3.4-10.9l-0.3,16.6c0,10.8-0.2,21.8-0.6,32.8c-1.5,20.4-4,40.7-7.5,60.7
				l-1.9,12.2c0,0.6,0.1,1.1,0.3,1.4c0.2,0.3,0.4,0.5,0.5,0.5C326.1,585.5,326.3,585.6,326.5,585.8z"/>
			<path class="st0" d="M524.8,633.6h-1.6c-16.9,0-32.6-4.6-47.2-13.8c-14.8-10-22.2-28.7-22.2-56c0-17.1,2.6-34.4,7.8-51.9
				c0.2-1.5,0.6-2.8,1.3-4.1c5.6-12.9,14.4-19.4,26.3-19.4c3.5,0,8.5,0.9,15,2.8l3.1,0.9l2.2-0.3l0.6-2.2l0.9-5.3
				c3.5-19.8,12.2-36.9,26-51.3c8.5-9.2,18.8-15.2,30.7-18.1c5.2-1,9.7-1.6,13.5-1.6c7.1,0,12.4,1.9,15.8,5.6
				c3.4,3.8,6.3,9.4,8.6,16.9l0.9,4.1c2.7,15.2,4.1,30.5,4.1,45.7c0,4.8-0.2,9.7-0.6,14.7c-1.9,21.9-6.4,43.3-13.5,64.1l-0.9,4.1
				v2.8c3.8,0.6,7.5,0.9,11.3,0.9c11.3,0,20.8-3.1,28.8-9.4c13.6-9.8,23.1-22.6,28.8-38.5c1-4.2,2.9-6.3,5.6-6.3l1.6,0.3
				c2.9,1,4.4,3.2,4.4,6.6c0,2.9-1.3,7.2-3.8,12.8c-7.7,14.6-18.4,26.7-31.9,36.3c-9.6,6.7-21.4,10-35.3,10c-2.5,0-7.5-0.3-15-0.9
				l-4.1,5.6c-8.3,15-19.9,27.2-34.7,36.6C543.2,630.9,534.4,633.6,524.8,633.6z M474.5,601.1l-0.6-7.2c-1.9-15.2-2.8-27-2.8-35.3
				c0-7.3,0.6-14.6,1.9-21.9c1.9-10,4.1-20.8,6.6-32.5c-0.8,0.8-1.6,1.6-2.3,2.2c-0.7,0.6-1.3,1.3-1.7,2c-0.4,0.7-0.8,1.6-1.3,2.7
				c-1.5,2.9-2.5,5.9-3.1,9.1c-4.4,18.8-6.6,33.3-6.6,43.5c0,10.8,2.1,21.3,6.3,31.3L474.5,601.1z M540.2,613
				c4.2,0,8.2-1.4,12.2-4.1c10.8-7.3,19.2-17.3,25-30l-5.3-2.2c-10.6-4.4-20.1-9.6-28.5-15.6c-9.4-6.7-17.5-15-24.4-25l-2.8-4.1
				c-0.4,1.3-0.8,2.5-1.3,3.6c-0.4,1.1-0.7,2.4-0.9,3.8c-0.2,1.4-0.4,2.9-0.6,4.5c-1,7.1-1.6,14.3-1.6,21.6
				c0,11.9,2.7,23.5,8.1,34.7C525.3,608.7,532,613,540.2,613z M528,529.5c-1.3-21.1-1.9-32.9-1.9-35.7c0-6,0.6-12.4,1.9-19.1
				l1.9-12.5c-5.8,11.9-9,23.3-9.4,34.1c0,1,0.2,2,0.6,3c0.4,0.9,0.8,1.7,1.3,2.3c1.3,1.7,1.9,3.3,1.9,5l-0.3,1.9
				c-0.8,3.1-1.3,5.7-1.3,7.8C522.6,519.5,524.4,523.8,528,529.5z M583,565.8l4.1-10.6c7.5-23.8,11.3-47.7,11.3-71.6
				c0-12.1-1.4-24-4.1-35.7c-1.5-6-4.1-11.4-7.8-16c-0.8-0.8-1.8-1.5-2.8-2c-1-0.5-1.9-1-2.5-1.4c-5.2,7.9-8.4,16.3-9.7,25
				c-4.6,24-6.9,48.1-6.9,72.3v4.4c0,8.8,1.9,17,5.6,24.7C573.1,561.1,577.4,564.7,583,565.8z"/>
			<path class="st0" d="M833.9,691.5c-5,0-10.2-0.6-15.6-1.9c-12.9-3.8-24-10.5-33.2-20.3c-2.9-3.5-4.9-7.6-5.9-12.2
				c-3.5-14.2-5.4-28.6-5.6-43.2v-4.7l0.3-14.4l1.3-18.5c-9.6,10.6-16.6,18.1-21,22.5c-3.3,3.1-7.1,5.7-11.3,7.7
				c-4.2,2-8.7,3-13.5,3c-2.3,0-4.7-0.2-7.2-0.6c-21.1-4.2-37.2-15.6-48.5-34.4c-6.5-10.2-9.7-21.6-9.7-34.1
				c0-30,4.4-59.3,13.1-87.9c2.5-7.1,5.4-14.1,8.8-21l2.8-6.3c2.7-5.6,7.2-8.5,13.5-8.8l4.1-0.3c12.5,0,24.7,5.1,36.6,15.3
				c2.5,2.1,3.8,4.2,3.8,6.3c0,1.5-0.5,3-1.6,4.7c-11.3,20.4-18.3,42.2-21,65.4c-1.9,10.4-2.8,20.9-2.8,31.3l0.3,6.6
				c1.9,21.3,3.9,34.7,5.9,40.4l0.6,1.6c1.5,3.6,3.8,5.3,6.9,5.3c1,0,2.2-0.2,3.4-0.6c4-1.5,7.6-3.4,10.9-5.9
				c6-4.6,10.7-10.3,14.1-17.2c10.8-18.3,18.9-37.8,24.1-58.5c6.5-27.5,14.6-54.2,24.4-80.1l5-11.9c2.3-5,5.8-7.5,10.6-7.5
				c15.6,0.4,28.4,7.1,38.2,20c2.3,2.9,3.4,6.2,3.4,9.7c0,2.3-0.5,4.7-1.6,7.2c-13.6,34.2-23.7,69.4-30.3,105.7
				c-4,18.8-5.9,37.7-5.9,56.9c0,18.4,2.8,34.6,8.4,48.8c1.9,5.8,5.5,10.4,10.9,13.8c5.6-1.3,9.9-4.2,12.8-8.8
				c4.8-5.8,9.1-11.9,12.8-18.1c12.1-21.3,21.4-43.7,27.8-67.3l15-53.2c0.8-5.6,2.9-8.4,6.3-8.4c1.9,0.2,3.3,0.9,4.4,2
				c1,1.1,1.6,2.3,1.6,3.6v1.3c-0.8,6.7-8,32-21.6,76c-5.8,18.4-13.6,35.8-23.1,52.2c-3.8,6.7-8.7,13.6-14.7,20.6
				C861.2,685.5,848.5,691.5,833.9,691.5z M680,560.4c0-20.6,0.8-37.9,2.5-51.6c1.9-12.9,4-24.2,6.3-33.8c2.1-8.8,4.8-17.5,8.1-26.3
				l3.8-9.4c1.5-2.9,2.6-5.9,3.4-9.1c-1-0.4-1.9-0.6-2.5-0.6c-2.3,0-3.9,1.3-4.8,3.8c-0.9,2.5-2,5-3.3,7.5
				c-2.9,6.3-5.4,12.5-7.5,18.8c-5.6,19.4-9.1,39.1-10.3,59.1c-0.4,5.2-0.6,10.3-0.6,15.3c0,6.5,0.7,12.9,2.2,19.4
				c0.2,0.8,0.6,1.8,1.1,3C678.8,557.7,679.4,559,680,560.4z M794.2,661.5l1.9-0.9l-0.9-5c-3.3-15.2-5-30.5-5-46l0.3-9.7
				c1.3-22.5,4.3-44.6,9.1-66.3c7.9-36.1,18.6-71.1,31.9-105.1l0.6-3.8c-1.3-0.8-2.3-1.3-3.1-1.3c-1.3,0-2.3,0.8-3.3,2.3
				c-0.9,1.6-1.7,3.3-2.3,5.2c-17.5,45.3-29.9,93.4-37.2,144.5c-1.7,10.4-2.5,21-2.5,31.6c0,9.4,0.8,18.9,2.5,28.5
				c2.1,12.3,4.5,20.4,7.2,24.4L794.2,661.5z"/>
		</g>
	</g>
	<g>
		<path d="M440.8,902.3c0,3.8-9.4,5.7-28.3,5.7c-18.9,0-28.3-1.9-28.3-5.7V758.6h-34.3c-3.2,0-5.5-4.4-6.9-13.2
			c-0.6-4.2-0.9-8.5-0.9-12.9c0-4.4,0.3-8.7,0.9-12.9c1.3-8.8,3.6-13.2,6.9-13.2h124.5c3.2,0,5.5,4.4,6.9,13.2
			c0.6,4.2,0.9,8.5,0.9,12.9c0,4.4-0.3,8.7-0.9,12.9c-1.3,8.8-3.6,13.2-6.9,13.2h-33.5V902.3z"/>
		<path d="M549.2,747.7c0,1.3-8.7,2-26.2,2c-17.5,0-26.2-0.6-26.2-1.7v-41.2c0-1.9,8.7-2.9,26.2-2.9c17.5,0,26.2,0.6,26.2,1.7V747.7
			z M549.2,905.1c0,1.5-8.7,2.3-26.2,2.3c-17.5,0-26.2-0.7-26.2-2V764.9c0-1.3,8.7-2,26.2-2c17.5,0,26.2,0.6,26.2,1.7V905.1z"/>
		<path d="M586.1,801.8h-14c-2.9,0-4.3-6.3-4.3-19c0-12.7,1.4-19,4.3-19h14v-6.3c0-20.2,4.2-34.2,12.7-41.9
			c8.5-7.7,20.4-11.6,35.6-11.6c15.3,0,28.7,2.8,40.4,8.3c1.5,0.6,2.3,2.6,2.3,6.2c0,3.5-1.6,9.2-4.9,17c-3.2,7.8-6,12.3-8.3,13.5
			c-6.5-4-13.2-6-20-6c-7.4,0-11.2,5-11.2,14.9v6h23.8c3.4,0,5.2,6.1,5.2,18.3c0,13.4-2.2,20-6.6,20h-18.3v101.3
			c0,2.3-8.4,3.4-25.3,3.4c-16.9,0-25.3-1.1-25.3-3.4V801.8z"/>
		<path d="M673.7,765.5c0-2.1,8.2-3.1,24.6-3.1c16.4,0,24.6,1.1,24.6,3.1V849c0,9.5,3,14.3,9.2,14.3c4.6,0,9.7-2,15.5-6v-91.9
			c0-1.9,8.1-2.9,24.3-2.9c16.2,0,24.3,1,24.3,2.9v93.9h7.4c6.5,0,9.7,6.2,9.7,18.6c0,6.3-1.3,12.7-4,19.2
			c-3.8,8.4-9,12.6-15.5,12.6c-12.8,0-22.2-5.2-28.3-15.7l-0.3,0.3c-11.6,10.3-24.1,15.5-37.5,15.5c-18.5,0-32.2-4.6-40.9-13.9
			c-8.8-9.3-13.2-24.6-13.2-45.9V765.5z"/>
		<path d="M882.9,904.6c0,1.7-9.7,2.6-29.2,2.6c-15.3-0.2-22.9-1-22.9-2.3V710c0-2.9,9.3-4.3,27.8-4.3c16.2,0.6,24.3,1.5,24.3,2.9
			V904.6z"/>
	</g>
	<g>
		<path class="st1" d="M861.1,322.1c7.4-1.1,14.7-4.5,20.1-9.3c6.2-5.4,10.9-15.2,6.7-23.2c-4.8-9.1-14-8-20.5-2.6
			c-4,3.3-6,10.9-7.3,15.6c-0.8,3.1-1.6,6.1-2.6,9.1c-0.4,1.3-1,2.4-1.6,3.5C852.1,321.5,853.2,323.2,861.1,322.1z M872.9,306.9
			c1.2-4.2,4.5-9.5,7.9-12.2c0.4-0.3,1.1-0.3,1.2,0.3c1.4,5-2.4,13.2-8.4,12.9C873.2,307.9,872.8,307.5,872.9,306.9z"/>
		<path class="st1" d="M832.1,329.1c20.4-28.2,32.6-70.1,18-103.6c-10.3-23.9-49.8-39.2-60.4-4.7c-7.1,23.1,7.2,43.4,3.7,67.1
			c-4.7,31.8-27.2,59.6-54.7,76.9c-12.7,8-13.1,12.2,0.5,10.7C774.6,371.5,810.8,358.5,832.1,329.1z M821.3,213.4
			c27.6,3.5,29.6,51.4,16.5,68.5c-0.8,1-2.3,0.7-2.4-0.6c-1.3-22.8-0.5-47.7-14.8-66.7C820.3,214.1,820.7,213.4,821.3,213.4z"/>
		<path class="st1" d="M856.4,336c-8.1,3.3-15.4,9.7-21.9,15.4c-6,5.2-11.7,9.5-17.9,13.5c-11.6,7.5-10.4,8.2-1.1,10.4
			c12.5,3,26.1,1.7,38.6-0.8c5.6-1.1,12.8-2.6,19.1-5.8C900.1,355,890.2,322.5,856.4,336z M877.6,352.2c-1.9,8.5-16.2,11.9-23.7,10
			c-0.3-0.1-0.6-0.5-0.3-0.8c2.7-3.5,6.9-5,10.7-7c4.1-2.2,7.7-4.3,12.5-3.6C877.4,350.9,877.7,351.6,877.6,352.2z"/>
		<path class="st1" d="M263.9,365c-6.2-4-12-8.3-17.9-13.5c-6.5-5.6-13.8-12.1-21.9-15.4c-33.7-13.6-43.7,18.9-16.7,32.7
			c6.3,3.2,13.5,4.6,19.1,5.8c12.4,2.5,26,3.8,38.6,0.8C274.3,373.2,275.5,372.4,263.9,365z M226.5,362.2c-7.5,1.8-21.8-1.5-23.7-10
			c-0.1-0.6,0.2-1.4,0.8-1.4c4.8-0.7,8.4,1.5,12.5,3.6c3.8,2,8,3.5,10.7,7C227,361.7,226.8,362.2,226.5,362.2z"/>
		<path class="st1" d="M199.2,312.8c5.4,4.8,12.7,8.2,20.1,9.3c7.8,1.1,8.9-0.5,5.2-7c-0.6-1.1-1.2-2.2-1.6-3.5c-1-3-1.8-6-2.6-9.1
			c-1.2-4.7-3.3-12.4-7.3-15.6c-6.5-5.3-15.7-6.4-20.5,2.6C188.3,297.5,193.1,307.4,199.2,312.8z M198.3,295.1
			c0.2-0.6,0.8-0.7,1.2-0.3c3.4,2.7,6.7,8,7.9,12.2c0.2,0.5-0.3,1-0.8,1C200.8,308.3,196.9,300.1,198.3,295.1z"/>
		<path class="st1" d="M341.6,364.7c-27.5-17.3-50.1-45-54.7-76.9c-3.5-23.7,10.8-44,3.7-67.1c-10.6-34.5-50.1-19.2-60.4,4.7
			c-14.5,33.5-2.4,75.5,18,103.6c21.3,29.4,57.5,42.4,92.8,46.3C354.7,376.9,354.3,372.6,341.6,364.7z M259.8,214.6
			c-14.3,19.1-13.5,43.9-14.8,66.7c-0.1,1.3-1.6,1.6-2.4,0.6c-13.2-17.1-11.1-65,16.5-68.5C259.7,213.4,260.1,214.1,259.8,214.6z"/>
		<path class="st1" d="M477.6,295.2h-4.9v30.2h4.2c6.7,0,11.5-1.2,14.6-3.7c3.1-2.5,4.7-6.4,4.7-11.9c0-5.4-1.4-9.2-4.3-11.4
			C489,296.3,484.2,295.2,477.6,295.2z"/>
		<path class="st1" d="M749.9,234.3c-28.7-30.6-76.9-44.5-116.5-54.6c-76.7-19.5-199.6-7.3-260.6,24
			c-80.3,41.2-81.9,110.7-0.5,153.3c61.1,31.9,140.5,32.4,207.4,27.9c58.5-3.9,127.8-17.7,169.6-61.3
			C775.1,296.5,774.9,260.8,749.9,234.3z M531.6,351.4c-9.2,7.3-22.4,10.9-39.6,10.9h-54.9c-2.6,0-4.8-0.9-6.5-2.7
			c-1.7-1.8-2.6-4.1-2.6-7.1V203.8c0-1.7,0.3-2.8,0.8-3.4c0.5-0.5,1.7-0.8,3.4-0.8h53c36.3,0,54.4,14,54.4,42.1
			c0,16.1-7,28.4-20.9,36.7c7.6,2.8,13.9,7.6,19.1,14.4c5.1,6.8,7.7,16.5,7.7,28.9C545.4,334.3,540.8,344.2,531.6,351.4z
			 M656.5,354.5c-0.9,5.3-2.5,7.9-4.6,7.9h-79.5c-5.9,0-8.8-2.4-8.8-7.2V205.7c0-4,1.8-6,5.3-6h83.2c3.3,0,4.9,6.9,4.9,20.6
			c0,13.7-1.6,20.6-4.9,20.6h-43v23.5h30c2.9,0,4.4,5.4,4.4,16.3c0,3.3-0.3,7.1-1,11.5c-0.7,4.4-2,6.6-3.8,6.6h-29.5v23.2h42.8
			c2.6,0,4.4,3.4,5.3,10.2c0.5,2.9,0.7,6.1,0.7,9.4C657.9,344.9,657.5,349.2,656.5,354.5z"/>
		<path class="st1" d="M477.6,237.3h-4.9v30.4h1.2c14.9,0,22.3-5,22.3-14.9c0-5.4-1.4-9.4-4.3-11.9
			C489,238.6,484.2,237.3,477.6,237.3z"/>
	</g>
	<path d="M312,772.4c-15.9,8.7-25.5,36.8-28,44.6c-1.6,5.2-4.3,5.9-6.9,6c-1.4,0.1-2.8-0.2-4.2-0.7c-21.6-7.6-70.7-5.7-59.1,18.8
		c11.8,24.9,48.1,49.6,60.7,58.2c8.6,5.4,26.9,15.9,36.7-3.3c16.8-29.1,23.5-79.1,23.6-95.1C335.1,784.8,327.9,763.7,312,772.4z
		 M237,828.5c-1.6,1-3.5,2.2-5.1,3.7c-1.6,1.5-2.6,3.1-2.9,4.9c-0.3,1.9,0,4.2,0.7,6.4c0.7,2.3,1.7,4.3,2.4,6.2
		c1.6,3.7,2.6,6.3,1.6,7.1c-0.9,0.8-3.5-0.4-6.8-3.5c-1.6-1.6-3.3-3.7-4.8-6.6c-1.5-2.8-2.7-6.7-1.9-11.2c0.4-2.2,1.4-4.3,2.6-5.9
		c1.2-1.7,2.7-3,4.1-3.9c2.9-1.9,5.6-2.7,7.9-3.1c4.6-0.8,7.5,0.1,7.6,1.3C242.7,825.1,240.3,826.4,237,828.5z"/>
	<path d="M743.5,661.3c-6.3,3.4-10.1,14.5-11,17.6c-0.6,2-1.7,2.3-2.7,2.4c-0.6,0-1.1-0.1-1.6-0.3c-8.5-3-27.9-2.2-23.3,7.4
		c4.7,9.8,19,19.6,23.9,22.9c3.4,2.1,10.6,6.3,14.5-1.3c6.6-11.5,9.3-31.2,9.3-37.5C752.6,666.2,749.7,657.9,743.5,661.3z
		 M713.9,683.4c-0.6,0.4-1.4,0.9-2,1.5c-0.6,0.6-1,1.2-1.2,1.9c-0.1,0.7,0,1.6,0.3,2.5c0.3,0.9,0.7,1.7,1,2.4c0.6,1.4,1,2.5,0.6,2.8
		c-0.3,0.3-1.4-0.1-2.7-1.4c-0.6-0.6-1.3-1.5-1.9-2.6c-0.6-1.1-1-2.6-0.8-4.4c0.2-0.9,0.5-1.7,1-2.3c0.5-0.7,1-1.2,1.6-1.5
		c1.1-0.7,2.2-1.1,3.1-1.2c1.8-0.3,2.9,0.1,3,0.5C716.2,682.1,715.2,682.6,713.9,683.4z"/>
	<path d="M647.8,622.9c-3.1,1.7-5,7.1-5.4,8.7c-0.3,1-0.8,1.1-1.3,1.2c-0.3,0-0.5,0-0.8-0.1c-4.2-1.5-13.7-1.1-11.5,3.6
		c2.3,4.8,9.3,9.6,11.8,11.3c1.7,1.1,5.2,3.1,7.1-0.6c3.3-5.6,4.6-15.4,4.6-18.5S650.9,621.2,647.8,622.9z M633.3,633.8
		c-0.3,0.2-0.7,0.4-1,0.7c-0.3,0.3-0.5,0.6-0.6,1c-0.1,0.4,0,0.8,0.1,1.2c0.1,0.4,0.3,0.8,0.5,1.2c0.3,0.7,0.5,1.2,0.3,1.4
		c-0.2,0.1-0.7-0.1-1.3-0.7c-0.3-0.3-0.6-0.7-0.9-1.3c-0.3-0.5-0.5-1.3-0.4-2.2c0.1-0.4,0.3-0.8,0.5-1.1c0.2-0.3,0.5-0.6,0.8-0.8
		c0.6-0.4,1.1-0.5,1.5-0.6c0.9-0.1,1.4,0,1.5,0.3C634.4,633.1,633.9,633.4,633.3,633.8z"/>
</g>
</svg>
