  0
SECTION
  2
HEADER
  9
$ACADVER
  1
AC1024
  9
$ACADMAINTVER
 70
     6
  9
$DWGCODEPAGE
  3
ANSI_1252
  9
$INSBASE
 10
0.0
 20
0.0
 30
0.0
  9
$EXTMIN
 10
1.000000000000000E+20
 20
1.000000000000000E+20
 30
1.000000000000000E+20
  9
$EXTMAX
 10
-1.000000000000000E+20
 20
-1.000000000000000E+20
 30
-1.000000000000000E+20
  9
$LIMMIN
 10
0.0
 20
0.0
  9
$LIMMAX
 10
12.0
 20
9.0
  9
$ORTHOMODE
 70
     0
  9
$REGENMODE
 70
     1
  9
$FILLMODE
 70
     1
  9
$QTEXTMODE
 70
     0
  9
$MIRRTEXT
 70
     1
  9
$LTSCALE
 40
1.0
  9
$ATTMODE
 70
     1
  9
$TEXTSIZE
 40
0.2
  9
$TRACEWID
 40
0.05
  9
$TEXTSTYLE
  7
Standard
  9
$CLAYER
  8
0
  9
$CELTYPE
  6
ByLayer
  9
$CECOLOR
 62
   256
  9
$CELTSCALE
 40
1.0
  9
$DISPSILH
 70
     0
  9
$DIMSCALE
 40
1.0
  9
$DIMASZ
 40
0.18
  9
$DIMEXO
 40
0.0625
  9
$DIMDLI
 40
0.38
  9
$DIMRND
 40
0.0
  9
$DIMDLE
 40
0.0
  9
$DIMEXE
 40
0.18
  9
$DIMTP
 40
0.0
  9
$DIMTM
 40
0.0
  9
$DIMTXT
 40
0.18
  9
$DIMCEN
 40
0.09
  9
$DIMTSZ
 40
0.0
  9
$DIMTOL
 70
     0
  9
$DIMLIM
 70
     0
  9
$DIMTIH
 70
     1
  9
$DIMTOH
 70
     1
  9
$DIMSE1
 70
     0
  9
$DIMSE2
 70
     0
  9
$DIMTAD
 70
     0
  9
$DIMZIN
 70
     0
  9
$DIMBLK
  1

  9
$DIMASO
 70
     1
  9
$DIMSHO
 70
     1
  9
$DIMPOST
  1

  9
$DIMAPOST
  1

  9
$DIMALT
 70
     0
  9
$DIMALTD
 70
     2
  9
$DIMALTF
 40
25.4
  9
$DIMLFAC
 40
1.0
  9
$DIMTOFL
 70
     0
  9
$DIMTVP
 40
0.0
  9
$DIMTIX
 70
     0
  9
$DIMSOXD
 70
     0
  9
$DIMSAH
 70
     0
  9
$DIMBLK1
  1

  9
$DIMBLK2
  1

  9
$DIMSTYLE
  2
Standard
  9
$DIMCLRD
 70
     0
  9
$DIMCLRE
 70
     0
  9
$DIMCLRT
 70
     0
  9
$DIMTFAC
 40
1.0
  9
$DIMGAP
 40
0.09
  9
$DIMJUST
 70
     0
  9
$DIMSD1
 70
     0
  9
$DIMSD2
 70
     0
  9
$DIMTOLJ
 70
     1
  9
$DIMTZIN
 70
     0
  9
$DIMALTZ
 70
     0
  9
$DIMALTTZ
 70
     0
  9
$DIMUPT
 70
     0
  9
$DIMDEC
 70
     4
  9
$DIMTDEC
 70
     4
  9
$DIMALTU
 70
     2
  9
$DIMALTTD
 70
     2
  9
$DIMTXSTY
  7
Standard
  9
$DIMAUNIT
 70
     0
  9
$DIMADEC
 70
     0
  9
$DIMALTRND
 40
0.0
  9
$DIMAZIN
 70
     0
  9
$DIMDSEP
 70
    46
  9
$DIMATFIT
 70
     3
  9
$DIMFRAC
 70
     0
  9
$DIMLDRBLK
  1

  9
$DIMLUNIT
 70
     2
  9
$DIMLWD
 70
    -2
  9
$DIMLWE
 70
    -2
  9
$DIMTMOVE
 70
     0
  9
$DIMFXL
 40
1.0
  9
$DIMFXLON
 70
     0
  9
$DIMJOGANG
 40
0.7853981633974483
  9
$DIMTFILL
 70
     0
  9
$DIMTFILLCLR
 70
     0
  9
$DIMARCSYM
 70
     0
  9
$DIMLTYPE
  6

  9
$DIMLTEX1
  6

  9
$DIMLTEX2
  6

  9
$DIMTXTDIRECTION
 70
     0
  9
$LUNITS
 70
     2
  9
$LUPREC
 70
     4
  9
$SKETCHINC
 40
0.1
  9
$FILLETRAD
 40
0.5
  9
$AUNITS
 70
     0
  9
$AUPREC
 70
     0
  9
$MENU
  1
.
  9
$ELEVATION
 40
0.0
  9
$PELEVATION
 40
0.0
  9
$THICKNESS
 40
0.0
  9
$LIMCHECK
 70
     0
  9
$CHAMFERA
 40
0.5
  9
$CHAMFERB
 40
0.5
  9
$CHAMFERC
 40
1.0
  9
$CHAMFERD
 40
0.0
  9
$SKPOLY
 70
     0
  9
$TDCREATE
 40
2459566.986389873
  9
$TDUCREATE
 40
2459566.736389873
  9
$TDUPDATE
 40
2459566.986389919
  9
$TDUUPDATE
 40
2459566.736389919
  9
$TDINDWG
 40
0.0000000116
  9
$TDUSRTIMER
 40
0.0000000116
  9
$USRTIMER
 70
     1
  9
$ANGBASE
 50
0.0
  9
$ANGDIR
 70
     0
  9
$PDMODE
 70
     0
  9
$PDSIZE
 40
0.0
  9
$PLINEWID
 40
0.0
  9
$SPLFRAME
 70
     0
  9
$SPLINETYPE
 70
     6
  9
$SPLINESEGS
 70
     8
  9
$HANDSEED
  5
6A
  9
$SURFTAB1
 70
     6
  9
$SURFTAB2
 70
     6
  9
$SURFTYPE
 70
     6
  9
$SURFU
 70
     6
  9
$SURFV
 70
     6
  9
$UCSBASE
  2

  9
$UCSNAME
  2

  9
$UCSORG
 10
0.0
 20
0.0
 30
0.0
  9
$UCSXDIR
 10
1.0
 20
0.0
 30
0.0
  9
$UCSYDIR
 10
0.0
 20
1.0
 30
0.0
  9
$UCSORTHOREF
  2

  9
$UCSORTHOVIEW
 70
     0
  9
$UCSORGTOP
 10
0.0
 20
0.0
 30
0.0
  9
$UCSORGBOTTOM
 10
0.0
 20
0.0
 30
0.0
  9
$UCSORGLEFT
 10
0.0
 20
0.0
 30
0.0
  9
$UCSORGRIGHT
 10
0.0
 20
0.0
 30
0.0
  9
$UCSORGFRONT
 10
0.0
 20
0.0
 30
0.0
  9
$UCSORGBACK
 10
0.0
 20
0.0
 30
0.0
  9
$PUCSBASE
  2

  9
$PUCSNAME
  2

  9
$PUCSORG
 10
0.0
 20
0.0
 30
0.0
  9
$PUCSXDIR
 10
1.0
 20
0.0
 30
0.0
  9
$PUCSYDIR
 10
0.0
 20
1.0
 30
0.0
  9
$PUCSORTHOREF
  2

  9
$PUCSORTHOVIEW
 70
     0
  9
$PUCSORGTOP
 10
0.0
 20
0.0
 30
0.0
  9
$PUCSORGBOTTOM
 10
0.0
 20
0.0
 30
0.0
  9
$PUCSORGLEFT
 10
0.0
 20
0.0
 30
0.0
  9
$PUCSORGRIGHT
 10
0.0
 20
0.0
 30
0.0
  9
$PUCSORGFRONT
 10
0.0
 20
0.0
 30
0.0
  9
$PUCSORGBACK
 10
0.0
 20
0.0
 30
0.0
  9
$USERI1
 70
     0
  9
$USERI2
 70
     0
  9
$USERI3
 70
     0
  9
$USERI4
 70
     0
  9
$USERI5
 70
     0
  9
$USERR1
 40
0.0
  9
$USERR2
 40
0.0
  9
$USERR3
 40
0.0
  9
$USERR4
 40
0.0
  9
$USERR5
 40
0.0
  9
$WORLDVIEW
 70
     1
  9
$SHADEDGE
 70
     3
  9
$SHADEDIF
 70
    70
  9
$TILEMODE
 70
     1
  9
$MAXACTVP
 70
    64
  9
$PINSBASE
 10
0.0
 20
0.0
 30
0.0
  9
$PLIMCHECK
 70
     0
  9
$PEXTMIN
 10
1.000000000000000E+20
 20
1.000000000000000E+20
 30
1.000000000000000E+20
  9
$PEXTMAX
 10
-1.000000000000000E+20
 20
-1.000000000000000E+20
 30
-1.000000000000000E+20
  9
$PLIMMIN
 10
0.0
 20
0.0
  9
$PLIMMAX
 10
12.0
 20
9.0
  9
$UNITMODE
 70
     0
  9
$VISRETAIN
 70
     1
  9
$PLINEGEN
 70
     0
  9
$PSLTSCALE
 70
     1
  9
$TREEDEPTH
 70
  3020
  9
$CMLSTYLE
  2
Standard
  9
$CMLJUST
 70
     0
  9
$CMLSCALE
 40
1.0
  9
$PROXYGRAPHICS
 70
     1
  9
$MEASUREMENT
 70
     0
  9
$CELWEIGHT
370
    -1
  9
$ENDCAPS
280
     0
  9
$JOINSTYLE
280
     0
  9
$LWDISPLAY
290
     1
  9
$INSUNITS
 70
     1
  9
$HYPERLINKBASE
  1

  9
$STYLESHEET
  1

  9
$XEDIT
290
     1
  9
$CEPSNTYPE
380
     0
  9
$PSTYLEMODE
290
     1
  9
$FINGERPRINTGUID
  2
{92A52806-B194-488F-AAFA-9942A227EC4B}
  9
$VERSIONGUID
  2
{FAEB1C32-E019-11D5-929B-00C0DF256EC4}
  9
$EXTNAMES
290
     1
  9
$PSVPSCALE
 40
0.0
  9
$OLESTARTUP
290
     0
  9
$SORTENTS
280
   127
  9
$INDEXCTL
280
     0
  9
$HIDETEXT
280
     1
  9
$XCLIPFRAME
280
     2
  9
$HALOGAP
280
     0
  9
$OBSCOLOR
 70
   257
  9
$OBSLTYPE
280
     0
  9
$INTERSECTIONDISPLAY
280
     0
  9
$INTERSECTIONCOLOR
 70
   257
  9
$DIMASSOC
280
     2
  9
$PROJECTNAME
  1

  9
$CAMERADISPLAY
290
     0
  9
$LENSLENGTH
 40
50.0
  9
$CAMERAHEIGHT
 40
0.0
  9
$STEPSPERSEC
 40
2.0
  9
$STEPSIZE
 40
6.0
  9
$3DDWFPREC
 40
2.0
  9
$PSOLWIDTH
 40
0.25
  9
$PSOLHEIGHT
 40
4.0
  9
$LOFTANG1
 40
1.570796326794897
  9
$LOFTANG2
 40
1.570796326794897
  9
$LOFTMAG1
 40
0.0
  9
$LOFTMAG2
 40
0.0
  9
$LOFTPARAM
 70
     7
  9
$LOFTNORMALS
280
     1
  9
$LATITUDE
 40
37.795
  9
$LONGITUDE
 40
-122.394
  9
$NORTHDIRECTION
 40
0.0
  9
$TIMEZONE
 70
 -8000
  9
$LIGHTGLYPHDISPLAY
280
     1
  9
$TILEMODELIGHTSYNCH
280
     1
  9
$CMATERIAL
347
3C
  9
$SOLIDHIST
280
     1
  9
$SHOWHIST
280
     1
  9
$DWFFRAME
280
     2
  9
$DGNFRAME
280
     2
  9
$REALWORLDSCALE
290
     1
  9
$INTERFERECOLOR
 62
   256
  9
$CSHADOW
280
     0
  9
$SHADOWPLANELOCATION
 40
0.0
  0
ENDSEC
  0
SECTION
  2
CLASSES
  0
CLASS
  1
ACDBDICTIONARYWDFLT
  2
AcDbDictionaryWithDefault
  3
ObjectDBX Classes
 90
        0
 91
        4
280
     0
281
     0
  0
CLASS
  1
VISUALSTYLE
  2
AcDbVisualStyle
  3
ObjectDBX Classes
 90
     4095
 91
        4
280
     0
281
     0
  0
CLASS
  1
MATERIAL
  2
AcDbMaterial
  3
ObjectDBX Classes
 90
     1153
 91
        4
280
     0
281
     0
  0
CLASS
  1
SUN
  2
AcDbSun
  3
SCENEOE
 90
     1024
 91
        4
280
     0
281
     0
  0
ENDSEC
  0
SECTION
  2
TABLES
  0
TABLE
  2
VPORT
  5
8
330
0
100
AcDbSymbolTable
 70
     1
  0
VPORT
  5
29
330
8
100
AcDbSymbolTableRecord
100
AcDbViewportTableRecord
  2
*Active
 70
     0
 10
0.0
 20
0.0
 11
1.0
 21
1.0
 12
0.0
 22
0.0
 13
0.0
 23
0.0
 14
0.5
 24
0.5
 15
0.5
 25
0.5
 16
0.0
 26
0.0
 36
1.0
 17
540.0
 27
-540.0
 37
0.0
 40
1080.0
 41
1.0
 42
50.0
 43
0.0
 44
0.0
 50
0.0
 51
0.0
 71
     0
 72
   100
 73
     1
 74
     3
 75
     0
 76
     0
 77
     0
 78
     0
281
     0
 65
     1
110
0.0
120
0.0
130
0.0
111
1.0
121
0.0
131
0.0
112
0.0
122
1.0
132
0.0
 79
     0
146
0.0
 60
     3
 61
     5
292
     1
282
     1
141
0.0
142
0.0
 63
   250
361
3F
  0
ENDTAB
  0
TABLE
  2
LTYPE
  5
5
330
0
100
AcDbSymbolTable
 70
     1
  0
LTYPE
  5
14
330
5
100
AcDbSymbolTableRecord
100
AcDbLinetypeTableRecord
  2
ByBlock
 70
     0
  3

 72
    65
 73
     0
 40
0.0
  0
LTYPE
  5
15
330
5
100
AcDbSymbolTableRecord
100
AcDbLinetypeTableRecord
  2
ByLayer
 70
     0
  3

 72
    65
 73
     0
 40
0.0
  0
LTYPE
  5
16
330
5
100
AcDbSymbolTableRecord
100
AcDbLinetypeTableRecord
  2
Continuous
 70
     0
  3
Solid line
 72
    65
 73
     0
 40
0.0
  0
ENDTAB
  0
TABLE
  2
LAYER
  5
2
330
0
100
AcDbSymbolTable
 70
     2
  0
LAYER
  5
10
330
2
100
AcDbSymbolTableRecord
100
AcDbLayerTableRecord
  2
0
 70
     0
 62
     7
  6
Continuous
370
    -3
390
F
347
3E
  0
LAYER
  5
40
330
2
100
AcDbSymbolTableRecord
100
AcDbLayerTableRecord
  2
Layer 1
 70
     0
 62
     7
  6
Continuous
370
    -3
390
F
347
3E
  0
ENDTAB
  0
TABLE
  2
STYLE
  5
3
330
0
100
AcDbSymbolTable
 70
     1
  0
STYLE
  5
11
330
3
100
AcDbSymbolTableRecord
100
AcDbTextStyleTableRecord
  2
Standard
 70
     0
 40
0.0
 41
1.0
 50
0.0
 71
     0
 42
0.2
  3
txt
  4

  0
ENDTAB
  0
TABLE
  2
VIEW
  5
6
330
0
100
AcDbSymbolTable
 70
     0
  0
ENDTAB
  0
TABLE
  2
UCS
  5
7
330
0
100
AcDbSymbolTable
 70
     0
  0
ENDTAB
  0
TABLE
  2
APPID
  5
9
330
0
100
AcDbSymbolTable
 70
     1
  0
APPID
  5
12
330
9
100
AcDbSymbolTableRecord
100
AcDbRegAppTableRecord
  2
ACAD
 70
     0
  0
ENDTAB
  0
TABLE
  2
DIMSTYLE
  5
A
330
0
100
AcDbSymbolTable
 70
     1
100
AcDbDimStyleTable
  0
DIMSTYLE
105
27
330
A
100
AcDbSymbolTableRecord
100
AcDbDimStyleTableRecord
  2
Standard
 70
     0
178
     0
340
11
  0
ENDTAB
  0
TABLE
  2
BLOCK_RECORD
  5
1
330
0
100
AcDbSymbolTable
 70
     5
  0
BLOCK_RECORD
  5
1F
330
1
100
AcDbSymbolTableRecord
100
AcDbBlockTableRecord
  2
*Model_Space
340
22
 70
     0
280
     1
281
     0
  0
BLOCK_RECORD
  5
1B
330
1
100
AcDbSymbolTableRecord
100
AcDbBlockTableRecord
  2
*Paper_Space
340
1E
 70
     0
280
     1
281
     0
  0
BLOCK_RECORD
  5
23
330
1
100
AcDbSymbolTableRecord
100
AcDbBlockTableRecord
  2
*Paper_Space0
340
26
 70
     0
280
     1
281
     0
  0
BLOCK_RECORD
  5
41
330
1
100
AcDbSymbolTableRecord
100
AcDbBlockTableRecord
  2
block 2
340
0
102
{BLKREFS
331
42
102
}
 70
     0
280
     1
281
     0
  0
BLOCK_RECORD
  5
45
330
1
100
AcDbSymbolTableRecord
100
AcDbBlockTableRecord
  2
block 3
340
0
102
{BLKREFS
331
46
102
}
 70
     0
280
     1
281
     0
  0
BLOCK_RECORD
  5
5B
330
1
100
AcDbSymbolTableRecord
100
AcDbBlockTableRecord
  2
block 4
340
0
102
{BLKREFS
331
5C
102
}
 70
     0
280
     1
281
     0
  0
BLOCK_RECORD
  5
5F
330
1
100
AcDbSymbolTableRecord
100
AcDbBlockTableRecord
  2
block 5
340
0
102
{BLKREFS
331
60
102
}
 70
     0
280
     1
281
     0
  0
ENDTAB
  0
ENDSEC
  0
SECTION
  2
BLOCKS
  0
BLOCK
  5
20
330
1F
100
AcDbEntity
  8
0
100
AcDbBlockBegin
  2
*Model_Space
 70
     0
 10
0.0
 20
0.0
 30
0.0
  3
*Model_Space
  1

  0
ENDBLK
  5
21
330
1F
100
AcDbEntity
  8
0
100
AcDbBlockEnd
  0
BLOCK
  5
1C
330
1B
100
AcDbEntity
 67
     1
  8
0
100
AcDbBlockBegin
  2
*Paper_Space
 70
     0
 10
0.0
 20
0.0
 30
0.0
  3
*Paper_Space
  1

  0
ENDBLK
  5
1D
330
1B
100
AcDbEntity
 67
     1
  8
0
100
AcDbBlockEnd
  0
BLOCK
  5
24
330
23
100
AcDbEntity
  8
0
100
AcDbBlockBegin
  2
*Paper_Space0
 70
     0
 10
0.0
 20
0.0
 30
0.0
  3
*Paper_Space0
  1

  0
ENDBLK
  5
25
330
23
100
AcDbEntity
  8
0
100
AcDbBlockEnd
  0
BLOCK
  5
43
330
41
100
AcDbEntity
  8
0
100
AcDbBlockBegin
  2
block 2
 70
     0
 10
0.0
 20
0.0
 30
0.0
  3
block 2
  1

  0
INSERT
  5
46
330
41
100
AcDbEntity
  8
Layer 1
100
AcDbBlockReference
  2
block 3
 10
0.0
 20
0.0
 30
0.0
  0
INSERT
  5
5C
330
41
100
AcDbEntity
  8
Layer 1
100
AcDbBlockReference
  2
block 4
 10
0.0
 20
0.0
 30
0.0
  0
ENDBLK
  5
44
330
41
100
AcDbEntity
  8
0
100
AcDbBlockEnd
  0
BLOCK
  5
47
330
45
100
AcDbEntity
  8
0
100
AcDbBlockBegin
  2
block 3
 70
     0
 10
0.0
 20
0.0
 30
0.0
  3
block 3
  1

  0
SPLINE
  5
49
330
45
100
AcDbEntity
  8
Layer 1
370
     0
100
AcDbSpline
210
0.0
220
0.0
230
1.0
 70
    11
 71
     3
 72
    29
 73
    25
 74
     0
 42
0.0000000001
 43
0.0000000001
 12
1.0
 22
0.0
 32
0.0
 13
1.0
 23
0.0
 33
0.0
 40
0.0
 40
0.0
 40
0.0
 40
0.0
 40
1.0
 40
1.0
 40
1.0
 40
2.0
 40
2.0
 40
2.0
 40
3.0
 40
3.0
 40
3.0
 40
4.0
 40
4.0
 40
4.0
 40
5.0
 40
5.0
 40
5.0
 40
6.0
 40
6.0
 40
6.0
 40
7.0
 40
7.0
 40
7.0
 40
8.0
 40
8.0
 40
8.0
 40
8.0
 10
375.7598693857253
 20
-379.7353798613985
 30
0.0
 10
293.1076417697295
 20
-383.8849842540531
 30
0.0
 10
246.4207736980316
 20
-663.6574222536892
 30
0.0
 10
329.7654506359922
 20
-664.3498715756541
 30
0.0
 10
367.1144359394366
 20
-665.7322244500137
 30
0.0
 10
399.9675921892467
 20
-628.0370144855879
 30
0.0
 10
407.5756245373705
 20
-593.4552807004347
 30
0.0
 10
408.2680738593353
 20
-590.6880291821435
 30
0.0
 10
414.1462557873328
 20
-591.3804785041084
 30
0.0
 10
413.455079350153
 20
-594.837633574798
 30
0.0
 10
405.5008223410441
 20
-632.1866188782406
 30
0.0
 10
369.8804145729446
 20
-671.9566310389946
 30
0.0
 10
329.7654506359922
 20
-670.2280535036498
 30
0.0
 10
204.9209111171513
 20
-669.8818288426683
 30
0.0
 10
255.7586564662852
 20
-369.7063206559651
 30
0.0
 10
375.4136447247438
 20
-373.8559250486196
 30
0.0
 10
432.4757966628549
 20
-373.8559250486196
 30
0.0
 10
401.0049932874099
 20
-473.4540677809946
 30
0.0
 10
363.6560079839655
 20
-495.586988388186
 30
0.0
 10
360.8900293504576
 20
-497.3142930387494
 30
0.0
 10
358.1227778321663
 20
-491.7836086565167
 30
0.0
 10
360.5438046894742
 20
-490.3987100125887
 30
0.0
 10
394.4343620374475
 20
-469.996912710305
 30
0.0
 10
423.1379138946049
 20
-380.0803316375986
 30
0.0
 10
375.7598693857253
 20
-379.7353798613985
 30
0.0
  0
HATCH
  5
4A
330
45
100
AcDbEntity
  8
Layer 1
 62
   132
420
   576730
100
AcDbHatch
 10
0.0
 20
0.0
 30
0.0
210
0.0
220
0.0
230
1.0
  2
SOLID
 70
     1
 71
     0
 91
        1
 92
        1
 93
        1
 72
     4
 94
        3
 73
     0
 74
     1
 95
       29
 96
       25
 40
0.0
 40
0.0
 40
0.0
 40
0.0
 40
1.0
 40
1.0
 40
1.0
 40
2.0
 40
2.0
 40
2.0
 40
3.0
 40
3.0
 40
3.0
 40
4.0
 40
4.0
 40
4.0
 40
5.0
 40
5.0
 40
5.0
 40
6.0
 40
6.0
 40
6.0
 40
7.0
 40
7.0
 40
7.0
 40
8.0
 40
8.0
 40
8.0
 40
8.0
 10
375.7598693857253
 20
-379.7353798613985
 10
293.1076417697295
 20
-383.8849842540531
 10
246.4207736980316
 20
-663.6574222536892
 10
329.7654506359922
 20
-664.3498715756541
 10
367.1144359394366
 20
-665.7322244500137
 10
399.9675921892467
 20
-628.0370144855879
 10
407.5756245373705
 20
-593.4552807004347
 10
408.2680738593353
 20
-590.6880291821435
 10
414.1462557873328
 20
-591.3804785041084
 10
413.455079350153
 20
-594.837633574798
 10
405.5008223410441
 20
-632.1866188782406
 10
369.8804145729446
 20
-671.9566310389946
 10
329.7654506359922
 20
-670.2280535036498
 10
204.9209111171513
 20
-669.8818288426683
 10
255.7586564662852
 20
-369.7063206559651
 10
375.4136447247438
 20
-373.8559250486196
 10
432.4757966628549
 20
-373.8559250486196
 10
401.0049932874099
 20
-473.4540677809946
 10
363.6560079839655
 20
-495.586988388186
 10
360.8900293504576
 20
-497.3142930387494
 10
358.1227778321663
 20
-491.7836086565167
 10
360.5438046894742
 20
-490.3987100125887
 10
394.4343620374475
 20
-469.996912710305
 10
423.1379138946049
 20
-380.0803316375986
 10
375.7598693857253
 20
-379.7353798613985
 97
        0
 97
        0
 75
     2
 76
     1
 98
        0
  0
SPLINE
  5
4B
330
45
100
AcDbEntity
  8
Layer 1
370
     0
100
AcDbSpline
210
0.0
220
0.0
230
1.0
 70
    11
 71
     3
 72
    29
 73
    25
 74
     0
 42
0.0000000001
 43
0.0000000001
 12
1.0
 22
0.0
 32
0.0
 13
1.0
 23
0.0
 33
0.0
 40
0.0
 40
0.0
 40
0.0
 40
0.0
 40
1.0
 40
1.0
 40
1.0
 40
2.0
 40
2.0
 40
2.0
 40
3.0
 40
3.0
 40
3.0
 40
4.0
 40
4.0
 40
4.0
 40
5.0
 40
5.0
 40
5.0
 40
6.0
 40
6.0
 40
6.0
 40
7.0
 40
7.0
 40
7.0
 40
8.0
 40
8.0
 40
8.0
 40
8.0
 10
561.8047092722882
 20
-604.5217410040314
 30
0.0
 10
556.6164308966872
 20
-628.7294638075527
 30
0.0
 10
537.5969864687631
 20
-643.2530791818372
 30
0.0
 10
512.0056379060989
 20
-641.1782769855126
 30
0.0
 10
504.7425573341716
 20
-656.0481170207804
 30
0.0
 10
491.9475194952283
 20
-669.1919252902699
 30
0.0
 10
474.3104279416693
 20
-669.1919252902699
 30
0.0
 10
409.2952918792344
 20
-668.8457006292865
 30
0.0
 10
409.986468316416
 20
-561.9844773249879
 30
0.0
 10
451.1401062363148
 20
-543.3087117884825
 30
0.0
 10
462.2065665399095
 20
-517.3724114496163
 30
0.0
 10
497.134524986046
 20
-515.6438339142715
 30
0.0
 10
512.6968143432787
 20
-541.5801342531377
 30
0.0
 10
524.1094993078605
 20
-560.2558997896431
 30
0.0
 10
525.1469004060218
 20
-588.6132269858172
 30
0.0
 10
522.3796488877306
 20
-607.2889925223226
 30
0.0
 10
520.9972960133673
 20
-617.3167788429746
 30
0.0
 10
518.2300444950761
 20
-627.0008862722079
 30
0.0
 10
514.771616539605
 20
-635.6463197184967
 30
0.0
 10
536.5583124858167
 20
-636.3362232708951
 30
0.0
 10
551.083200744888
 20
-623.5411854319518
 30
0.0
 10
555.9252544595038
 20
-603.8292916820665
 30
0.0
 10
556.271479120489
 20
-601.7544894857401
 30
0.0
 10
562.495885709468
 20
-602.446938807705
 30
0.0
 10
561.8047092722882
 20
-604.5217410040314
 30
0.0
  0
SPLINE
  5
4C
330
45
100
AcDbEntity
  8
Layer 1
370
     0
100
AcDbSpline
210
0.0
220
0.0
230
1.0
 70
    11
 71
     3
 72
    14
 73
    10
 74
     0
 42
0.0000000001
 43
0.0000000001
 12
1.0
 22
0.0
 32
0.0
 13
1.0
 23
0.0
 33
0.0
 40
0.0
 40
0.0
 40
0.0
 40
0.0
 40
1.0
 40
1.0
 40
1.0
 40
2.0
 40
2.0
 40
2.0
 40
3.0
 40
3.0
 40
3.0
 40
3.0
 10
473.6179786197063
 20
-662.9649729317225
 30
0.0
 10
488.1428668787757
 20
-663.3111975927077
 30
0.0
 10
499.5555518433557
 20
-652.2447372891093
 30
0.0
 10
505.7799584323348
 20
-640.4858276635459
 30
0.0
 10
478.4600323343238
 20
-635.3000950575151
 30
0.0
 10
459.4393150216183
 20
-611.7822758063921
 30
0.0
 10
451.4850580125112
 20
-586.8846494504724
 30
0.0
 10
445.6068760845137
 20
-615.2419766466464
 30
0.0
 10
453.5611330936226
 20
-662.9649729317225
 30
0.0
 10
473.6179786197063
 20
-662.9649729317225
 30
0.0
  0
SPLINE
  5
4D
330
45
100
AcDbEntity
  8
Layer 1
370
     0
100
AcDbSpline
210
0.0
220
0.0
230
1.0
 70
    11
 71
     3
 72
    23
 73
    19
 74
     0
 42
0.0000000001
 43
0.0000000001
 12
1.0
 22
0.0
 32
0.0
 13
1.0
 23
0.0
 33
0.0
 40
0.0
 40
0.0
 40
0.0
 40
0.0
 40
1.0
 40
1.0
 40
1.0
 40
2.0
 40
2.0
 40
2.0
 40
3.0
 40
3.0
 40
3.0
 40
4.0
 40
4.0
 40
4.0
 40
5.0
 40
5.0
 40
5.0
 40
6.0
 40
6.0
 40
6.0
 40
6.0
 10
454.9434859679823
 20
-576.1644138078591
 30
0.0
 10
460.1317643435832
 20
-602.446938807705
 30
0.0
 10
479.4974334324888
 20
-630.4580413428976
 30
0.0
 10
508.5472099506242
 20
-634.9538703965318
 30
0.0
 10
512.3505896822971
 20
-626.6546616112246
 30
0.0
 10
514.771616539605
 20
-616.6243295210097
 30
0.0
 10
516.5014669597313
 20
-606.5965432003577
 30
0.0
 10
518.5762691560594
 20
-590.341804521162
 30
0.0
 10
518.2300444950761
 20
-564.4055041822958
 30
0.0
 10
509.2383863878076
 20
-547.1146372897201
 30
0.0
 10
497.4807496470294
 20
-525.3279413435084
 30
0.0
 10
470.1595506642352
 20
-522.9069144861987
 30
0.0
 10
458.7481385844385
 20
-541.2339095921561
 30
0.0
 10
470.5057753252186
 20
-541.5801342531377
 30
0.0
 10
475.3478290398343
 20
-557.1424236103703
 30
0.0
 10
460.1317643435832
 20
-568.9013332359318
 30
0.0
 10
458.0556892624754
 20
-570.6299107712766
 30
0.0
 10
456.3271117271306
 20
-573.0509376285827
 30
0.0
 10
454.9434859679823
 20
-576.1644138078591
 30
0.0
  0
HATCH
  5
4E
330
45
100
AcDbEntity
  8
Layer 1
 62
   132
420
   576730
100
AcDbHatch
 10
0.0
 20
0.0
 30
0.0
210
0.0
220
0.0
230
1.0
  2
SOLID
 70
     1
 71
     0
 91
        3
 92
        1
 93
        1
 72
     4
 94
        3
 73
     0
 74
     1
 95
       29
 96
       25
 40
0.0
 40
0.0
 40
0.0
 40
0.0
 40
1.0
 40
1.0
 40
1.0
 40
2.0
 40
2.0
 40
2.0
 40
3.0
 40
3.0
 40
3.0
 40
4.0
 40
4.0
 40
4.0
 40
5.0
 40
5.0
 40
5.0
 40
6.0
 40
6.0
 40
6.0
 40
7.0
 40
7.0
 40
7.0
 40
8.0
 40
8.0
 40
8.0
 40
8.0
 10
561.8047092722882
 20
-604.5217410040314
 10
556.6164308966872
 20
-628.7294638075527
 10
537.5969864687631
 20
-643.2530791818372
 10
512.0056379060989
 20
-641.1782769855126
 10
504.7425573341716
 20
-656.0481170207804
 10
491.9475194952283
 20
-669.1919252902699
 10
474.3104279416693
 20
-669.1919252902699
 10
409.2952918792344
 20
-668.8457006292865
 10
409.986468316416
 20
-561.9844773249879
 10
451.1401062363148
 20
-543.3087117884825
 10
462.2065665399095
 20
-517.3724114496163
 10
497.134524986046
 20
-515.6438339142715
 10
512.6968143432787
 20
-541.5801342531377
 10
524.1094993078605
 20
-560.2558997896431
 10
525.1469004060218
 20
-588.6132269858172
 10
522.3796488877306
 20
-607.2889925223226
 10
520.9972960133673
 20
-617.3167788429746
 10
518.2300444950761
 20
-627.0008862722079
 10
514.771616539605
 20
-635.6463197184967
 10
536.5583124858167
 20
-636.3362232708951
 10
551.083200744888
 20
-623.5411854319518
 10
555.9252544595038
 20
-603.8292916820665
 10
556.271479120489
 20
-601.7544894857401
 10
562.495885709468
 20
-602.446938807705
 10
561.8047092722882
 20
-604.5217410040314
 97
        0
 97
        0
 92
        1
 93
        1
 72
     4
 94
        3
 73
     0
 74
     1
 95
       14
 96
       10
 40
0.0
 40
0.0
 40
0.0
 40
0.0
 40
1.0
 40
1.0
 40
1.0
 40
2.0
 40
2.0
 40
2.0
 40
3.0
 40
3.0
 40
3.0
 40
3.0
 10
473.6179786197063
 20
-662.9649729317225
 10
488.1428668787757
 20
-663.3111975927077
 10
499.5555518433557
 20
-652.2447372891093
 10
505.7799584323348
 20
-640.4858276635459
 10
478.4600323343238
 20
-635.3000950575151
 10
459.4393150216183
 20
-611.7822758063921
 10
451.4850580125112
 20
-586.8846494504724
 10
445.6068760845137
 20
-615.2419766466464
 10
453.5611330936226
 20
-662.9649729317225
 10
473.6179786197063
 20
-662.9649729317225
 97
        0
 97
        0
 92
        1
 93
        1
 72
     4
 94
        3
 73
     0
 74
     1
 95
       23
 96
       19
 40
0.0
 40
0.0
 40
0.0
 40
0.0
 40
1.0
 40
1.0
 40
1.0
 40
2.0
 40
2.0
 40
2.0
 40
3.0
 40
3.0
 40
3.0
 40
4.0
 40
4.0
 40
4.0
 40
5.0
 40
5.0
 40
5.0
 40
6.0
 40
6.0
 40
6.0
 40
6.0
 10
454.9434859679823
 20
-576.1644138078591
 10
460.1317643435832
 20
-602.446938807705
 10
479.4974334324888
 20
-630.4580413428976
 10
508.5472099506242
 20
-634.9538703965318
 10
512.3505896822971
 20
-626.6546616112246
 10
514.771616539605
 20
-616.6243295210097
 10
516.5014669597313
 20
-606.5965432003577
 10
518.5762691560594
 20
-590.341804521162
 10
518.2300444950761
 20
-564.4055041822958
 10
509.2383863878076
 20
-547.1146372897201
 10
497.4807496470294
 20
-525.3279413435084
 10
470.1595506642352
 20
-522.9069144861987
 10
458.7481385844385
 20
-541.2339095921561
 10
470.5057753252186
 20
-541.5801342531377
 10
475.3478290398343
 20
-557.1424236103703
 10
460.1317643435832
 20
-568.9013332359318
 10
458.0556892624754
 20
-570.6299107712766
 10
456.3271117271306
 20
-573.0509376285827
 10
454.9434859679823
 20
-576.1644138078591
 97
        0
 97
        0
 75
     2
 76
     1
 98
        0
  0
SPLINE
  5
4F
330
45
100
AcDbEntity
  8
Layer 1
370
     0
100
AcDbSpline
210
0.0
220
0.0
230
1.0
 70
    11
 71
     3
 72
    59
 73
    55
 74
     0
 42
0.0000000001
 43
0.0000000001
 12
1.0
 22
0.0
 32
0.0
 13
1.0
 23
0.0
 33
0.0
 40
0.0
 40
0.0
 40
0.0
 40
0.0
 40
1.0
 40
1.0
 40
1.0
 40
2.0
 40
2.0
 40
2.0
 40
3.0
 40
3.0
 40
3.0
 40
4.0
 40
4.0
 40
4.0
 40
5.0
 40
5.0
 40
5.0
 40
6.0
 40
6.0
 40
6.0
 40
7.0
 40
7.0
 40
7.0
 40
8.0
 40
8.0
 40
8.0
 40
9.0
 40
9.0
 40
9.0
 40
10.0
 40
10.0
 40
10.0
 40
11.0
 40
11.0
 40
11.0
 40
12.0
 40
12.0
 40
12.0
 40
13.0
 40
13.0
 40
13.0
 40
14.0
 40
14.0
 40
14.0
 40
15.0
 40
15.0
 40
15.0
 40
16.0
 40
16.0
 40
16.0
 40
17.0
 40
17.0
 40
17.0
 40
18.0
 40
18.0
 40
18.0
 40
18.0
 10
587.0396500957067
 20
-676.7986847536122
 30
0.0
 10
645.8303795691645
 20
-711.0367396473484
 30
0.0
 10
660.0103160520339
 20
-806.4852779870707
 30
0.0
 10
614.359576193714
 20
-813.3995881284482
 30
0.0
 10
544.5023864166615
 20
-823.4299202186648
 30
0.0
 10
555.5688467202563
 20
-628.7294638075527
 30
0.0
 10
555.9150713812414
 20
-581.3501464138899
 30
0.0
 10
556.6062478184213
 20
-503.5386996277302
 30
0.0
 10
566.9815316848362
 20
-400.1384500484673
 30
0.0
 10
625.0798118363309
 20
-400.1384500484673
 30
0.0
 10
674.1877067653368
 20
-400.1384500484673
 30
0.0
 10
646.176604230146
 20
-533.2809254678305
 30
0.0
 10
588.7682276310479
 20
-539.159107395828
 30
0.0
 10
588.0770511938681
 20
-551.6104663433562
 30
0.0
 10
587.3858747566883
 20
-564.4055041822958
 30
0.0
 10
587.0396500957067
 20
-577.5467666822187
 30
0.0
 10
586.0022489975418
 20
-608.671345396684
 30
0.0
 10
586.6934254347252
 20
-639.4496994501678
 30
0.0
 10
587.0396500957067
 20
-670.9205028256147
 30
0.0
 10
618.8554052473519
 20
-670.5742781646313
 30
0.0
 10
637.184946122874
 20
-631.840394217259
 30
0.0
 10
644.0992562642532
 20
-603.8292916820665
 30
0.0
 10
644.0992562642532
 20
-603.8292916820665
 30
0.0
 10
644.0992562642532
 20
-602.446938807705
 30
0.0
 10
644.0992562642532
 20
-602.446938807705
 30
0.0
 10
644.7917055862163
 20
-524.6354920215435
 30
0.0
 10
655.1682623374181
 20
-421.2352424422807
 30
0.0
 10
712.9215907127109
 20
-421.2352424422807
 30
0.0
 10
762.0294856417167
 20
-421.2352424422807
 30
0.0
 10
734.362061997941
 20
-554.3751720920791
 30
0.0
 10
676.6087336226446
 20
-560.2558997896431
 30
0.0
 10
675.9162843006816
 20
-572.704712967603
 30
0.0
 10
675.2238349787185
 20
-585.4997508065444
 30
0.0
 10
674.8801560872998
 20
-598.6410133064674
 30
0.0
 10
673.8414821043552
 20
-629.7655920209327
 30
0.0
 10
674.8801560872998
 20
-639.4496994501678
 30
0.0
 10
674.8801560872998
 20
-670.9205028256147
 30
0.0
 10
707.0408630151469
 20
-670.5742781646313
 30
0.0
 10
725.3704038906726
 20
-631.496715325844
 30
0.0
 10
731.9410351406295
 20
-603.8292916820665
 30
0.0
 10
732.6309386930297
 20
-601.7544894857401
 30
0.0
 10
738.5116663905937
 20
-602.446938807705
 30
0.0
 10
737.8192170686307
 20
-604.5217410040314
 30
0.0
 10
730.9049069272514
 20
-634.9538703965318
 30
0.0
 10
710.4980180858365
 20
-676.4524600926306
 30
0.0
 10
674.8801560872998
 20
-676.7986847536122
 30
0.0
 10
734.0158373369595
 20
-711.0367396473484
 30
0.0
 10
748.1957738198289
 20
-794.3801437005277
 30
0.0
 10
702.1988093005311
 20
-801.2969996114698
 30
0.0
 10
641.3345505155266
 20
-810.2886577187419
 30
0.0
 10
642.0269998374933
 20
-688.2113697181903
 30
0.0
 10
643.409352711853
 20
-625.6159876282782
 30
0.0
 10
633.3815663912064
 20
-651.2086090757293
 30
0.0
 10
614.7058008546992
 20
-676.4524600926306
 30
0.0
 10
587.0396500957067
 20
-676.7986847536122
 30
0.0
  0
SPLINE
  5
50
330
45
100
AcDbEntity
  8
Layer 1
370
     0
100
AcDbSpline
210
0.0
220
0.0
230
1.0
 70
    11
 71
     3
 72
    11
 73
     7
 74
     0
 42
0.0000000001
 43
0.0000000001
 12
1.0
 22
0.0
 32
0.0
 13
1.0
 23
0.0
 33
0.0
 40
0.0
 40
0.0
 40
0.0
 40
0.0
 40
1.0
 40
1.0
 40
1.0
 40
2.0
 40
2.0
 40
2.0
 40
2.0
 10
614.7058008546992
 20
-806.8289568784858
 30
0.0
 10
646.5228288911276
 20
-808.2138555224155
 30
0.0
 10
647.2127324435278
 20
-720.7183013070189
 30
0.0
 10
587.0396500957067
 20
-684.0617653255395
 30
0.0
 10
587.0396500957067
 20
-708.2694881290572
 30
0.0
 10
582.5438210420689
 20
-805.7928286651058
 30
0.0
 10
614.7058008546992
 20
-806.8289568784858
 30
0.0
  0
SPLINE
  5
51
330
45
100
AcDbEntity
  8
Layer 1
370
     0
100
AcDbSpline
210
0.0
220
0.0
230
1.0
 70
    11
 71
     3
 72
    11
 73
     7
 74
     0
 42
0.0000000001
 43
0.0000000001
 12
1.0
 22
0.0
 32
0.0
 13
1.0
 23
0.0
 33
0.0
 40
0.0
 40
0.0
 40
0.0
 40
0.0
 40
1.0
 40
1.0
 40
1.0
 40
2.0
 40
2.0
 40
2.0
 40
2.0
 10
589.1144522920331
 20
-532.9347008068489
 30
0.0
 10
640.295876532582
 20
-526.3640695568884
 30
0.0
 10
663.4674711227199
 20
-406.3628566374446
 30
0.0
 10
625.0798118363309
 20
-406.3628566374446
 30
0.0
 10
599.1435114974665
 20
-406.3628566374446
 30
0.0
 10
593.9565060066489
 20
-457.5455537627786
 30
0.0
 10
589.1144522920331
 20
-532.9347008068489
 30
0.0
  0
SPLINE
  5
52
330
45
100
AcDbEntity
  8
Layer 1
370
     0
100
AcDbSpline
210
0.0
220
0.0
230
1.0
 70
    11
 71
     3
 72
    11
 73
     7
 74
     0
 42
0.0000000001
 43
0.0000000001
 12
1.0
 22
0.0
 32
0.0
 13
1.0
 23
0.0
 33
0.0
 40
0.0
 40
0.0
 40
0.0
 40
0.0
 40
1.0
 40
1.0
 40
1.0
 40
2.0
 40
2.0
 40
2.0
 40
2.0
 10
702.8912586224906
 20
-794.7263683615092
 30
0.0
 10
734.362061997941
 20
-796.1087212358725
 30
0.0
 10
735.0545113199041
 20
-720.7183013070189
 30
0.0
 10
674.8801560872998
 20
-684.0617653255395
 30
0.0
 10
674.8801560872998
 20
-708.2694881290572
 30
0.0
 10
670.3843270336656
 20
-793.6876943785628
 30
0.0
 10
702.8912586224906
 20
-794.7263683615092
 30
0.0
  0
SPLINE
  5
53
330
45
100
AcDbEntity
  8
Layer 1
370
     0
100
AcDbSpline
210
0.0
220
0.0
230
1.0
 70
    11
 71
     3
 72
    11
 73
     7
 74
     0
 42
0.0000000001
 43
0.0000000001
 12
1.0
 22
0.0
 32
0.0
 13
1.0
 23
0.0
 33
0.0
 40
0.0
 40
0.0
 40
0.0
 40
0.0
 40
1.0
 40
1.0
 40
1.0
 40
2.0
 40
2.0
 40
2.0
 40
2.0
 10
676.9549582836298
 20
-554.0314932006622
 30
0.0
 10
728.4813343003771
 20
-547.4608619507017
 30
0.0
 10
751.3067042295334
 20
-427.4596490312615
 30
0.0
 10
712.9215907127109
 20
-427.4596490312615
 30
0.0
 10
686.9852903738465
 20
-427.4596490312615
 30
0.0
 10
681.7970119982456
 20
-478.6423461565919
 30
0.0
 10
676.9549582836298
 20
-554.0314932006622
 30
0.0
  0
HATCH
  5
54
330
45
100
AcDbEntity
  8
Layer 1
 62
   132
420
   576730
100
AcDbHatch
 10
0.0
 20
0.0
 30
0.0
210
0.0
220
0.0
230
1.0
  2
SOLID
 70
     1
 71
     0
 91
        5
 92
        1
 93
        1
 72
     4
 94
        3
 73
     0
 74
     1
 95
       59
 96
       55
 40
0.0
 40
0.0
 40
0.0
 40
0.0
 40
1.0
 40
1.0
 40
1.0
 40
2.0
 40
2.0
 40
2.0
 40
3.0
 40
3.0
 40
3.0
 40
4.0
 40
4.0
 40
4.0
 40
5.0
 40
5.0
 40
5.0
 40
6.0
 40
6.0
 40
6.0
 40
7.0
 40
7.0
 40
7.0
 40
8.0
 40
8.0
 40
8.0
 40
9.0
 40
9.0
 40
9.0
 40
10.0
 40
10.0
 40
10.0
 40
11.0
 40
11.0
 40
11.0
 40
12.0
 40
12.0
 40
12.0
 40
13.0
 40
13.0
 40
13.0
 40
14.0
 40
14.0
 40
14.0
 40
15.0
 40
15.0
 40
15.0
 40
16.0
 40
16.0
 40
16.0
 40
17.0
 40
17.0
 40
17.0
 40
18.0
 40
18.0
 40
18.0
 40
18.0
 10
587.0396500957067
 20
-676.7986847536122
 10
645.8303795691645
 20
-711.0367396473484
 10
660.0103160520339
 20
-806.4852779870707
 10
614.359576193714
 20
-813.3995881284482
 10
544.5023864166615
 20
-823.4299202186648
 10
555.5688467202563
 20
-628.7294638075527
 10
555.9150713812414
 20
-581.3501464138899
 10
556.6062478184213
 20
-503.5386996277302
 10
566.9815316848362
 20
-400.1384500484673
 10
625.0798118363309
 20
-400.1384500484673
 10
674.1877067653368
 20
-400.1384500484673
 10
646.176604230146
 20
-533.2809254678305
 10
588.7682276310479
 20
-539.159107395828
 10
588.0770511938681
 20
-551.6104663433562
 10
587.3858747566883
 20
-564.4055041822958
 10
587.0396500957067
 20
-577.5467666822187
 10
586.0022489975418
 20
-608.671345396684
 10
586.6934254347252
 20
-639.4496994501678
 10
587.0396500957067
 20
-670.9205028256147
 10
618.8554052473519
 20
-670.5742781646313
 10
637.184946122874
 20
-631.840394217259
 10
644.0992562642532
 20
-603.8292916820665
 10
644.0992562642532
 20
-603.8292916820665
 10
644.0992562642532
 20
-602.446938807705
 10
644.0992562642532
 20
-602.446938807705
 10
644.7917055862163
 20
-524.6354920215435
 10
655.1682623374181
 20
-421.2352424422807
 10
712.9215907127109
 20
-421.2352424422807
 10
762.0294856417167
 20
-421.2352424422807
 10
734.362061997941
 20
-554.3751720920791
 10
676.6087336226446
 20
-560.2558997896431
 10
675.9162843006816
 20
-572.704712967603
 10
675.2238349787185
 20
-585.4997508065444
 10
674.8801560872998
 20
-598.6410133064674
 10
673.8414821043552
 20
-629.7655920209327
 10
674.8801560872998
 20
-639.4496994501678
 10
674.8801560872998
 20
-670.9205028256147
 10
707.0408630151469
 20
-670.5742781646313
 10
725.3704038906726
 20
-631.496715325844
 10
731.9410351406295
 20
-603.8292916820665
 10
732.6309386930297
 20
-601.7544894857401
 10
738.5116663905937
 20
-602.446938807705
 10
737.8192170686307
 20
-604.5217410040314
 10
730.9049069272514
 20
-634.9538703965318
 10
710.4980180858365
 20
-676.4524600926306
 10
674.8801560872998
 20
-676.7986847536122
 10
734.0158373369595
 20
-711.0367396473484
 10
748.1957738198289
 20
-794.3801437005277
 10
702.1988093005311
 20
-801.2969996114698
 10
641.3345505155266
 20
-810.2886577187419
 10
642.0269998374933
 20
-688.2113697181903
 10
643.409352711853
 20
-625.6159876282782
 10
633.3815663912064
 20
-651.2086090757293
 10
614.7058008546992
 20
-676.4524600926306
 10
587.0396500957067
 20
-676.7986847536122
 97
        0
 97
        0
 92
        1
 93
        1
 72
     4
 94
        3
 73
     0
 74
     1
 95
       11
 96
        7
 40
0.0
 40
0.0
 40
0.0
 40
0.0
 40
1.0
 40
1.0
 40
1.0
 40
2.0
 40
2.0
 40
2.0
 40
2.0
 10
614.7058008546992
 20
-806.8289568784858
 10
646.5228288911276
 20
-808.2138555224155
 10
647.2127324435278
 20
-720.7183013070189
 10
587.0396500957067
 20
-684.0617653255395
 10
587.0396500957067
 20
-708.2694881290572
 10
582.5438210420689
 20
-805.7928286651058
 10
614.7058008546992
 20
-806.8289568784858
 97
        0
 97
        0
 92
        1
 93
        1
 72
     4
 94
        3
 73
     0
 74
     1
 95
       11
 96
        7
 40
0.0
 40
0.0
 40
0.0
 40
0.0
 40
1.0
 40
1.0
 40
1.0
 40
2.0
 40
2.0
 40
2.0
 40
2.0
 10
589.1144522920331
 20
-532.9347008068489
 10
640.295876532582
 20
-526.3640695568884
 10
663.4674711227199
 20
-406.3628566374446
 10
625.0798118363309
 20
-406.3628566374446
 10
599.1435114974665
 20
-406.3628566374446
 10
593.9565060066489
 20
-457.5455537627786
 10
589.1144522920331
 20
-532.9347008068489
 97
        0
 97
        0
 92
        1
 93
        1
 72
     4
 94
        3
 73
     0
 74
     1
 95
       11
 96
        7
 40
0.0
 40
0.0
 40
0.0
 40
0.0
 40
1.0
 40
1.0
 40
1.0
 40
2.0
 40
2.0
 40
2.0
 40
2.0
 10
702.8912586224906
 20
-794.7263683615092
 10
734.362061997941
 20
-796.1087212358725
 10
735.0545113199041
 20
-720.7183013070189
 10
674.8801560872998
 20
-684.0617653255395
 10
674.8801560872998
 20
-708.2694881290572
 10
670.3843270336656
 20
-793.6876943785628
 10
702.8912586224906
 20
-794.7263683615092
 97
        0
 97
        0
 92
        1
 93
        1
 72
     4
 94
        3
 73
     0
 74
     1
 95
       11
 96
        7
 40
0.0
 40
0.0
 40
0.0
 40
0.0
 40
1.0
 40
1.0
 40
1.0
 40
2.0
 40
2.0
 40
2.0
 40
2.0
 10
676.9549582836298
 20
-554.0314932006622
 10
728.4813343003771
 20
-547.4608619507017
 10
751.3067042295334
 20
-427.4596490312615
 10
712.9215907127109
 20
-427.4596490312615
 10
686.9852903738465
 20
-427.4596490312615
 10
681.7970119982456
 20
-478.6423461565919
 10
676.9549582836298
 20
-554.0314932006622
 97
        0
 97
        0
 75
     2
 76
     1
 98
        0
  0
SPLINE
  5
55
330
45
100
AcDbEntity
  8
Layer 1
370
     0
100
AcDbSpline
210
0.0
220
0.0
230
1.0
 70
    11
 71
     3
 72
    23
 73
    19
 74
     0
 42
0.0000000001
 43
0.0000000001
 12
1.0
 22
0.0
 32
0.0
 13
1.0
 23
0.0
 33
0.0
 40
0.0
 40
0.0
 40
0.0
 40
0.0
 40
1.0
 40
1.0
 40
1.0
 40
2.0
 40
2.0
 40
2.0
 40
3.0
 40
3.0
 40
3.0
 40
4.0
 40
4.0
 40
4.0
 40
5.0
 40
5.0
 40
5.0
 40
6.0
 40
6.0
 40
6.0
 40
6.0
 10
834.6399252044503
 20
-604.5217410040314
 30
0.0
 10
828.7591975068863
 20
-630.4580413428976
 30
0.0
 10
806.6262768996894
 20
-669.1919252902699
 30
0.0
 10
777.5790461511169
 20
-669.1919252902699
 30
0.0
 10
705.9920059539363
 20
-668.499475968305
 30
0.0
 10
725.7038997038217
 20
-538.122979182448
 30
0.0
 10
780.689976560825
 20
-540.8902307007393
 30
0.0
 10
813.5431328106315
 20
-542.6188082360841
 30
0.0
 10
799.0195174363471
 20
-599.3334626284304
 30
0.0
 10
759.5957299365764
 20
-606.5965432003577
 30
0.0
 10
757.8646066316687
 20
-635.3000950575151
 30
0.0
 10
762.0142110243214
 20
-662.9649729317225
 30
0.0
 10
777.5790461511169
 20
-662.9649729317225
 30
0.0
 10
803.8615711509665
 20
-663.3111975927077
 30
0.0
 10
823.2272402398703
 20
-625.9622122892615
 30
0.0
 10
828.7591975068863
 20
-603.8292916820665
 30
0.0
 10
829.1054221678678
 20
-601.7544894857401
 30
0.0
 10
834.9861498654318
 20
-602.446938807705
 30
0.0
 10
834.6399252044503
 20
-604.5217410040314
 30
0.0
  0
SPLINE
  5
56
330
45
100
AcDbEntity
  8
Layer 1
370
     0
100
AcDbSpline
210
0.0
220
0.0
230
1.0
 70
    11
 71
     3
 72
    11
 73
     7
 74
     0
 42
0.0000000001
 43
0.0000000001
 12
1.0
 22
0.0
 32
0.0
 13
1.0
 23
0.0
 33
0.0
 40
0.0
 40
0.0
 40
0.0
 40
0.0
 40
1.0
 40
1.0
 40
1.0
 40
2.0
 40
2.0
 40
2.0
 40
2.0
 10
781.7286505437733
 20
-546.7684126287368
 30
0.0
 10
766.1638154169741
 20
-546.7684126287368
 30
0.0
 10
760.9780828109397
 20
-589.6493551991971
 30
0.0
 10
759.9419545975616
 20
-600.3721366113768
 30
0.0
 10
794.1774637217313
 20
-592.4166067174883
 30
0.0
 10
801.4379985240921
 20
-546.7684126287368
 30
0.0
 10
781.7286505437733
 20
-546.7684126287368
 30
0.0
  0
HATCH
  5
57
330
45
100
AcDbEntity
  8
Layer 1
 62
   132
420
   576730
100
AcDbHatch
 10
0.0
 20
0.0
 30
0.0
210
0.0
220
0.0
230
1.0
  2
SOLID
 70
     1
 71
     0
 91
        2
 92
        1
 93
        1
 72
     4
 94
        3
 73
     0
 74
     1
 95
       23
 96
       19
 40
0.0
 40
0.0
 40
0.0
 40
0.0
 40
1.0
 40
1.0
 40
1.0
 40
2.0
 40
2.0
 40
2.0
 40
3.0
 40
3.0
 40
3.0
 40
4.0
 40
4.0
 40
4.0
 40
5.0
 40
5.0
 40
5.0
 40
6.0
 40
6.0
 40
6.0
 40
6.0
 10
834.6399252044503
 20
-604.5217410040314
 10
828.7591975068863
 20
-630.4580413428976
 10
806.6262768996894
 20
-669.1919252902699
 10
777.5790461511169
 20
-669.1919252902699
 10
705.9920059539363
 20
-668.499475968305
 10
725.7038997038217
 20
-538.122979182448
 10
780.689976560825
 20
-540.8902307007393
 10
813.5431328106315
 20
-542.6188082360841
 10
799.0195174363471
 20
-599.3334626284304
 10
759.5957299365764
 20
-606.5965432003577
 10
757.8646066316687
 20
-635.3000950575151
 10
762.0142110243214
 20
-662.9649729317225
 10
777.5790461511169
 20
-662.9649729317225
 10
803.8615711509665
 20
-663.3111975927077
 10
823.2272402398703
 20
-625.9622122892615
 10
828.7591975068863
 20
-603.8292916820665
 10
829.1054221678678
 20
-601.7544894857401
 10
834.9861498654318
 20
-602.446938807705
 10
834.6399252044503
 20
-604.5217410040314
 97
        0
 97
        0
 92
        1
 93
        1
 72
     4
 94
        3
 73
     0
 74
     1
 95
       11
 96
        7
 40
0.0
 40
0.0
 40
0.0
 40
0.0
 40
1.0
 40
1.0
 40
1.0
 40
2.0
 40
2.0
 40
2.0
 40
2.0
 10
781.7286505437733
 20
-546.7684126287368
 10
766.1638154169741
 20
-546.7684126287368
 10
760.9780828109397
 20
-589.6493551991971
 10
759.9419545975616
 20
-600.3721366113768
 10
794.1774637217313
 20
-592.4166067174883
 10
801.4379985240921
 20
-546.7684126287368
 10
781.7286505437733
 20
-546.7684126287368
 97
        0
 97
        0
 75
     2
 76
     1
 98
        0
  0
SPLINE
  5
58
330
45
100
AcDbEntity
  8
Layer 1
370
     0
100
AcDbSpline
210
0.0
220
0.0
230
1.0
 70
    11
 71
     3
 72
    23
 73
    19
 74
     0
 42
0.0000000001
 43
0.0000000001
 12
1.0
 22
0.0
 32
0.0
 13
1.0
 23
0.0
 33
0.0
 40
0.0
 40
0.0
 40
0.0
 40
0.0
 40
1.0
 40
1.0
 40
1.0
 40
2.0
 40
2.0
 40
2.0
 40
3.0
 40
3.0
 40
3.0
 40
4.0
 40
4.0
 40
4.0
 40
5.0
 40
5.0
 40
5.0
 40
6.0
 40
6.0
 40
6.0
 40
6.0
 10
931.4657248793992
 20
-604.5217410040314
 30
0.0
 10
925.5875429514017
 20
-630.4580413428976
 30
0.0
 10
903.4546223442085
 20
-669.1919252902699
 30
0.0
 10
874.4048458260695
 20
-669.1919252902699
 30
0.0
 10
802.8178056288889
 20
-668.499475968305
 30
0.0
 10
822.5322451483407
 20
-538.122979182448
 30
0.0
 10
877.5157762357776
 20
-540.8902307007393
 30
0.0
 10
910.3714782551506
 20
-542.6188082360841
 30
0.0
 10
895.8453171112997
 20
-599.3334626284304
 30
0.0
 10
856.421529611529
 20
-606.5965432003577
 30
0.0
 10
854.6929520761842
 20
-635.3000950575151
 30
0.0
 10
858.8425564688368
 20
-662.9649729317225
 30
0.0
 10
874.4048458260695
 20
-662.9649729317225
 30
0.0
 10
900.6873708259191
 20
-663.3111975927077
 30
0.0
 10
920.0530399148192
 20
-625.9622122892615
 30
0.0
 10
925.5875429514017
 20
-603.8292916820665
 30
0.0
 10
925.9312218428204
 20
-601.7544894857401
 30
0.0
 10
931.8119495403807
 20
-602.446938807705
 30
0.0
 10
931.4657248793992
 20
-604.5217410040314
 30
0.0
  0
SPLINE
  5
59
330
45
100
AcDbEntity
  8
Layer 1
370
     0
100
AcDbSpline
210
0.0
220
0.0
230
1.0
 70
    11
 71
     3
 72
    11
 73
     7
 74
     0
 42
0.0000000001
 43
0.0000000001
 12
1.0
 22
0.0
 32
0.0
 13
1.0
 23
0.0
 33
0.0
 40
0.0
 40
0.0
 40
0.0
 40
0.0
 40
1.0
 40
1.0
 40
1.0
 40
2.0
 40
2.0
 40
2.0
 40
2.0
 10
878.5544502187258
 20
-546.7684126287368
 30
0.0
 10
862.9921608614895
 20
-546.7684126287368
 30
0.0
 10
857.8064282554587
 20
-589.6493551991971
 30
0.0
 10
856.7677542725105
 20
-600.3721366113768
 30
0.0
 10
891.0032633966803
 20
-592.4166067174883
 30
0.0
 10
898.2663439686075
 20
-546.7684126287368
 30
0.0
 10
878.5544502187258
 20
-546.7684126287368
 30
0.0
  0
HATCH
  5
5A
330
45
100
AcDbEntity
  8
Layer 1
 62
   132
420
   576730
100
AcDbHatch
 10
0.0
 20
0.0
 30
0.0
210
0.0
220
0.0
230
1.0
  2
SOLID
 70
     1
 71
     0
 91
        2
 92
        1
 93
        1
 72
     4
 94
        3
 73
     0
 74
     1
 95
       23
 96
       19
 40
0.0
 40
0.0
 40
0.0
 40
0.0
 40
1.0
 40
1.0
 40
1.0
 40
2.0
 40
2.0
 40
2.0
 40
3.0
 40
3.0
 40
3.0
 40
4.0
 40
4.0
 40
4.0
 40
5.0
 40
5.0
 40
5.0
 40
6.0
 40
6.0
 40
6.0
 40
6.0
 10
931.4657248793992
 20
-604.5217410040314
 10
925.5875429514017
 20
-630.4580413428976
 10
903.4546223442085
 20
-669.1919252902699
 10
874.4048458260695
 20
-669.1919252902699
 10
802.8178056288889
 20
-668.499475968305
 10
822.5322451483407
 20
-538.122979182448
 10
877.5157762357776
 20
-540.8902307007393
 10
910.3714782551506
 20
-542.6188082360841
 10
895.8453171112997
 20
-599.3334626284304
 10
856.421529611529
 20
-606.5965432003577
 10
854.6929520761842
 20
-635.3000950575151
 10
858.8425564688368
 20
-662.9649729317225
 10
874.4048458260695
 20
-662.9649729317225
 10
900.6873708259191
 20
-663.3111975927077
 10
920.0530399148192
 20
-625.9622122892615
 10
925.5875429514017
 20
-603.8292916820665
 10
925.9312218428204
 20
-601.7544894857401
 10
931.8119495403807
 20
-602.446938807705
 10
931.4657248793992
 20
-604.5217410040314
 97
        0
 97
        0
 92
        1
 93
        1
 72
     4
 94
        3
 73
     0
 74
     1
 95
       11
 96
        7
 40
0.0
 40
0.0
 40
0.0
 40
0.0
 40
1.0
 40
1.0
 40
1.0
 40
2.0
 40
2.0
 40
2.0
 40
2.0
 10
878.5544502187258
 20
-546.7684126287368
 10
862.9921608614895
 20
-546.7684126287368
 10
857.8064282554587
 20
-589.6493551991971
 10
856.7677542725105
 20
-600.3721366113768
 10
891.0032633966803
 20
-592.4166067174883
 10
898.2663439686075
 20
-546.7684126287368
 10
878.5544502187258
 20
-546.7684126287368
 97
        0
 97
        0
 75
     2
 76
     1
 98
        0
  0
ENDBLK
  5
48
330
45
100
AcDbEntity
  8
0
100
AcDbBlockEnd
  0
BLOCK
  5
5D
330
5B
100
AcDbEntity
  8
0
100
AcDbBlockBegin
  2
block 4
 70
     0
 10
0.0
 20
0.0
 30
0.0
  3
block 4
  1

  0
INSERT
  5
60
330
5B
100
AcDbEntity
  8
Layer 1
100
AcDbBlockReference
  2
block 5
 10
0.0
 20
0.0
 30
0.0
  0
HATCH
  5
67
330
5B
100
AcDbEntity
  8
Layer 1
 62
   132
420
   576730
100
AcDbHatch
 10
0.0
 20
0.0
 30
0.0
210
0.0
220
0.0
230
1.0
  2
SOLID
 70
     1
 71
     0
 91
        4
 92
        1
 93
        1
 72
     4
 94
        3
 73
     0
 74
     1
 95
      215
 96
      211
 40
0.0
 40
0.0
 40
0.0
 40
0.0
 40
1.0
 40
1.0
 40
1.0
 40
2.0
 40
2.0
 40
2.0
 40
3.0
 40
3.0
 40
3.0
 40
4.0
 40
4.0
 40
4.0
 40
5.0
 40
5.0
 40
5.0
 40
6.0
 40
6.0
 40
6.0
 40
7.0
 40
7.0
 40
7.0
 40
8.0
 40
8.0
 40
8.0
 40
9.0
 40
9.0
 40
9.0
 40
10.0
 40
10.0
 40
10.0
 40
11.0
 40
11.0
 40
11.0
 40
12.0
 40
12.0
 40
12.0
 40
13.0
 40
13.0
 40
13.0
 40
14.0
 40
14.0
 40
14.0
 40
15.0
 40
15.0
 40
15.0
 40
16.0
 40
16.0
 40
16.0
 40
17.0
 40
17.0
 40
17.0
 40
18.0
 40
18.0
 40
18.0
 40
19.0
 40
19.0
 40
19.0
 40
20.0
 40
20.0
 40
20.0
 40
21.0
 40
21.0
 40
21.0
 40
22.0
 40
22.0
 40
22.0
 40
23.0
 40
23.0
 40
23.0
 40
24.0
 40
24.0
 40
24.0
 40
25.0
 40
25.0
 40
25.0
 40
26.0
 40
26.0
 40
26.0
 40
27.0
 40
27.0
 40
27.0
 40
28.0
 40
28.0
 40
28.0
 40
29.0
 40
29.0
 40
29.0
 40
30.0
 40
30.0
 40
30.0
 40
31.0
 40
31.0
 40
31.0
 40
32.0
 40
32.0
 40
32.0
 40
33.0
 40
33.0
 40
33.0
 40
34.0
 40
34.0
 40
34.0
 40
35.0
 40
35.0
 40
35.0
 40
36.0
 40
36.0
 40
36.0
 40
37.0
 40
37.0
 40
37.0
 40
38.0
 40
38.0
 40
38.0
 40
39.0
 40
39.0
 40
39.0
 40
40.0
 40
40.0
 40
40.0
 40
41.0
 40
41.0
 40
41.0
 40
42.0
 40
42.0
 40
42.0
 40
43.0
 40
43.0
 40
43.0
 40
44.0
 40
44.0
 40
44.0
 40
45.0
 40
45.0
 40
45.0
 40
46.0
 40
46.0
 40
46.0
 40
47.0
 40
47.0
 40
47.0
 40
48.0
 40
48.0
 40
48.0
 40
49.0
 40
49.0
 40
49.0
 40
50.0
 40
50.0
 40
50.0
 40
51.0
 40
51.0
 40
51.0
 40
52.0
 40
52.0
 40
52.0
 40
53.0
 40
53.0
 40
53.0
 40
54.0
 40
54.0
 40
54.0
 40
55.0
 40
55.0
 40
55.0
 40
56.0
 40
56.0
 40
56.0
 40
57.0
 40
57.0
 40
57.0
 40
58.0
 40
58.0
 40
58.0
 40
59.0
 40
59.0
 40
59.0
 40
60.0
 40
60.0
 40
60.0
 40
61.0
 40
61.0
 40
61.0
 40
62.0
 40
62.0
 40
62.0
 40
63.0
 40
63.0
 40
63.0
 40
64.0
 40
64.0
 40
64.0
 40
65.0
 40
65.0
 40
65.0
 40
66.0
 40
66.0
 40
66.0
 40
67.0
 40
67.0
 40
67.0
 40
68.0
 40
68.0
 40
68.0
 40
69.0
 40
69.0
 40
69.0
 40
70.0
 40
70.0
 40
70.0
 40
70.0
 10
596.6492937651346
 20
-296.7973896116146
 10
595.3719538853729
 20
-284.2063315591513
 10
594.3813313029823
 20
-271.6151143960924
 10
593.5211794108582
 20
-258.9978030949806
 10
593.2083679754287
 20
-254.748595468056
 10
591.5660283841353
 20
-251.3336047058037
 10
588.0466610696749
 20
-249.3264245135761
 10
583.4326128418143
 20
-246.7195564779449
 10
578.5316882059851
 20
-244.503623181301
 10
573.5785752940465
 20
-242.5484721545781
 10
570.9717072584172
 20
-241.5317554341382
 10
569.9549905379754
 20
-240.3066038304805
 10
569.9810846760302
 20
-237.4391126355276
 10
570.1374903937431
 20
-223.62258475821
 10
569.9549905379754
 20
-209.7801218534387
 10
570.111396255692
 20
-195.9637530867185
 10
570.1635845317942
 20
-191.792827873951
 10
568.8862446520325
 20
-188.4298662772053
 10
565.262659895965
 20
-186.6572151062483
 10
561.3001695664134
 20
-184.6759699414742
 10
557.1031502155965
 20
-182.6687897492448
 10
552.8019134231654
 20
-181.9648844642343
 10
532.9375917205107
 20
-178.7062994196986
 10
513.0471758798049
 20
-175.4738085132121
 10
493.0784776249475
 20
-173.0494403333469
 10
479.7052318733149
 20
-171.4071007420534
 10
466.1755804039731
 20
-170.8075720092475
 10
452.6981172107335
 20
-170.2600724419517
 10
394.5388977002531
 20
-167.8096101240353
 10
336.3796781897727
 20
-167.1578931151271
 10
278.2726469553963
 20
-171.4331948801027
 10
259.0598831510524
 20
-172.8408463395299
 10
239.8213434298541
 20
-174.3528743511615
 10
220.6607679016142
 20
-176.5425543991569
 10
210.2593898971481
 20
-177.7417709753609
 10
199.9622293342891
 20
-180.1139508791221
 10
189.7694453236381
 20
-182.6166014731425
 10
177.2824456021881
 20
-185.6926866619142
 10
175.3794828515711
 20
-188.58627199492
 10
175.4055769896222
 20
-201.0732717163683
 10
175.4055769896222
 20
-213.2733950298461
 10
175.3013595480134
 20
-225.4735183433222
 10
175.3794828515711
 20
-237.6736416567983
 10
175.4055769896222
 20
-240.3066038304805
 10
174.6755775665588
 20
-241.5578495721911
 10
172.0166803654229
 20
-242.4442547129693
 10
167.6630961862902
 20
-243.8519061723928
 10
163.387953531912
 20
-245.6767456194539
 10
159.3212457607533
 20
-247.8143965019426
 10
154.707038422297
 20
-250.2126705437568
 10
152.15235866277
 20
-253.9926610175371
 10
151.8134530892912
 20
-259.5713968003292
 10
151.0573595281749
 20
-271.7193318377031
 10
150.0667369457879
 20
-283.8933610131262
 10
148.6590854863625
 20
-296.0153610230445
 10
147.7987744836391
 20
-303.3928421148466
 10
150.953142086566
 20
-308.0590786188077
 10
157.1314066021605
 20
-311.0831346420746
 10
161.1459260972151
 20
-313.0382856687957
 10
165.4473220002437
 20
-314.3156255485592
 10
169.4359064678447
 20
-316.296870713335
 10
170.8174637892171
 20
-316.9745227496933
 10
172.3815209663571
 20
-318.7732680587033
 10
172.564020822123
 20
-320.207172766779
 10
174.6235484010522
 20
-337.0213443081138
 10
176.3961995720092
 20
-353.8878632361502
 10
178.3513505987321
 20
-370.7281289155362
 10
184.2168036788989
 20
-420.962526877518
 10
190.1864742006765
 20
-471.1708307014469
 10
195.9998981153385
 20
-521.4052286634269
 10
198.0070783075662
 20
-538.5062766127357
 10
199.5452004572526
 20
-555.6593537275512
 10
201.4742573459225
 20
-572.7604016768582
 10
206.5054935614171
 20
-617.4160638560497
 10
211.615012191065
 20
-662.0456318971865
 10
216.7243717101173
 20
-706.6753590489207
 10
222.2770133548584
 20
-755.1369467293462
 10
227.8296549995976
 20
-803.6247876584239
 10
233.4083907823897
 20
-852.0863753388512
 10
234.9724479595279
 20
-865.7202442498037
 10
241.3332123308883
 20
-876.5388102419056
 10
253.6116180585213
 20
-882.8212921991108
 10
264.5344014922357
 20
-888.4261221199558
 10
275.7699963613759
 20
-893.6137640531633
 10
287.3184026659455
 20
-897.7065659623731
 10
314.9252051719286
 20
-907.5084152340387
 10
343.6527827293648
 20
-911.1059058520568
 10
372.875830688592
 20
-911.679340446808
 10
383.5639259904365
 20
-910.923405996291
 10
394.2782745409295
 20
-910.5063771192508
 10
404.9141815666699
 20
-909.3852838466046
 10
435.6751925649824
 20
-906.126698802067
 10
464.9504288003136
 20
-897.7326601004261
 10
492.1139491806098
 20
-882.7170747575019
 10
503.7145437612835
 20
-876.3041221100375
 10
510.2578079884097
 20
-866.0852439613354
 10
511.7957710274968
 20
-853.0248096451323
 10
517.8437239634313
 20
-801.1743253405075
 10
523.7091770435982
 20
-749.2975877872304
 10
529.6268183998691
 20
-697.420850233957
 10
531.3211871566709
 20
-682.7182354370561
 10
532.9896208860155
 20
-668.0154615295596
 10
534.6841487534166
 20
-653.3126876220631
 10
531.5819694265901
 20
-654.1990927628412
 10
528.3494785201055
 20
-654.8508097717495
 10
525.0126110614128
 20
-655.2417445107349
 10
522.4318371638346
 20
-677.8693399667318
 10
519.8249691282053
 20
-700.4969354227287
 10
517.1659128164702
 20
-723.0985958512701
 10
516.9574779332506
 20
-724.792964608072
 10
514.9762327684784
 20
-726.9045213525078
 10
513.3077990391303
 20
-727.6345207755712
 10
492.8959777691798
 20
-736.6021531825627
 10
471.285099033621
 20
-741.4508895422896
 10
449.3873438900901
 20
-745.2047858780206
 10
422.3541350894575
 20
-749.8450873545298
 10
395.0863972675506
 20
-751.4352386697192
 10
367.7402179208912
 20
-751.0963330962404
 10
324.1795548762966
 20
-750.5227393908917
 10
281.140138150351
 20
-745.9347853010859
 10
239.8213434298541
 20
-730.9191999581599
 10
228.2468429872333
 20
-726.7221806073394
 10
228.4291837323999
 20
-726.6438981931842
 10
227.0215322729764
 20
-714.2351808858893
 10
222.7462305079989
 20
-676.4095002312024
 10
218.3667113014126
 20
-638.5838195765173
 10
214.0393803709303
 20
-600.7322038943748
 10
211.5367297769099
 20
-578.730231309235
 10
209.0862674589935
 20
-556.7021645860423
 10
206.5837759755723
 20
-534.7001920009006
 10
205.4367476754705
 20
-524.6899078460174
 10
204.2636252373177
 20
-514.6794645805367
 10
203.0905027991648
 20
-504.3823040176758
 10
218.0538998659849
 20
-507.041360329411
 10
232.9912027947539
 20
-509.3615110676656
 10
247.9286648341204
 20
-511.3166620943884
 10
254.0547410736108
 20
-478.4439352410391
 10
265.7075239303867
 20
-446.61417835678
 10
281.061855736194
 20
-421.4317440306586
 10
306.1139784826519
 20
-380.3474783314359
 10
339.7163865378679
 20
-358.3976940224002
 10
375.6651985799872
 20
-359.5186281844472
 10
397.5107654474141
 20
-359.5969105986042
 10
413.2040028267002
 20
-371.3017226208867
 10
418.7827386094923
 20
-391.6352614766802
 10
428.6628702953112
 20
-427.662196822359
 10
403.6890299630104
 20
-488.4282843684687
 10
371.0509912415309
 20
-507.8755771940832
 10
365.9936608879852
 20
-510.9516623828549
 10
359.8675846484948
 20
-511.0819739625185
 10
354.6538485772344
 20
-508.214482767562
 10
349.02292451834
 20
-505.1123034407392
 10
345.3473105967641
 20
-498.9079447870918
 10
345.2690281826071
 20
-492.3646805599656
 10
345.2169990171024
 20
-486.3689159001369
 10
348.1887076536659
 20
-481.0508032766702
 10
353.2201029797579
 20
-478.0790946401048
 10
372.4066135354515
 20
-466.45240592138
 10
391.0456245238456
 20
-422.0053377360073
 10
385.3626712994446
 20
-401.3067991686821
 10
383.9289257019682
 20
-396.0669689593724
 10
381.556745798207
 20
-394.2160353742584
 10
376.0822274570255
 20
-394.0857237945966
 10
348.0844902120552
 20
-396.0147806832665
 10
318.4183192377386
 20
-452.7141604582175
 10
306.1139784826519
 20
-517.1560210365024
 10
356.1918116163215
 20
-520.6752292403653
 10
406.2176155844845
 20
-520.17991794917
 10
456.347796104852
 20
-515.8003987425836
 10
462.7605896417226
 20
-511.7597851094761
 10
470.164164871574
 20
-509.3093227915597
 10
478.1411746961767
 20
-508.735729086211
 10
484.710533061354
 20
-508.2926060711216
 10
491.201609012378
 20
-509.2051053499508
 10
497.2754969757661
 20
-511.3425971218421
 10
497.3015911138173
 20
-511.3425971218421
 10
497.3015911138173
 20
-511.3425971218421
 10
497.3015911138173
 20
-511.3425971218421
 10
512.2649881806392
 20
-509.4135402331704
 10
527.2285443580549
 20
-507.1455777710216
 10
542.2180355629316
 20
-504.5126155973394
 10
540.6277251371421
 20
-518.5897666339806
 10
539.0897620980522
 20
-532.4322295387519
 10
537.4996107828629
 20
-546.2746924435214
 10
536.8738288014101
 20
-551.7751458121566
 10
536.248205930553
 20
-557.3016933188464
 10
535.5964889216466
 20
-562.802305798079
 10
538.8030448006793
 20
-578.9908544685586
 10
538.5422625307547
 20
-595.9615908382057
 10
536.5610173659825
 20
-609.3870248659387
 10
536.4046116482659
 20
-610.586082331547
 10
536.2221117925001
 20
-611.785298907751
 10
536.0136769092805
 20
-612.9845154839568
 10
537.7341398041353
 20
-610.9249879050258
 10
539.0636679600011
 20
-608.6048371667712
 10
540.0542905423899
 20
-606.2587514010647
 10
543.1825640072675
 20
-579.0430427446627
 10
546.2847433340867
 20
-551.8534282263136
 10
549.4128576883668
 20
-524.6377195699133
 10
557.1553384916988
 20
-456.806962367431
 10
564.9237543224845
 20
-388.9762051649468
 10
572.5357644355572
 20
-321.119512935009
 10
572.8746700090342
 20
-318.0956160223432
 10
573.995763281684
 20
-316.8181170319804
 10
576.7329428969751
 20
-315.8015594221397
 10
581.2949619593273
 20
-314.1331256927933
 10
585.8569810216795
 20
-312.2301629421745
 10
590.1321236760596
 20
-309.8578239278177
 10
595.0591424499435
 20
-307.0945501744718
 10
597.2489816085363
 20
-302.7411251059384
 10
596.6492937651346
 20
-296.7973896116146
 97
        0
 97
        0
 92
        1
 93
        1
 72
     4
 94
        3
 73
     0
 74
     1
 95
       50
 96
       46
 40
0.0
 40
0.0
 40
0.0
 40
0.0
 40
1.0
 40
1.0
 40
1.0
 40
2.0
 40
2.0
 40
2.0
 40
3.0
 40
3.0
 40
3.0
 40
4.0
 40
4.0
 40
4.0
 40
5.0
 40
5.0
 40
5.0
 40
6.0
 40
6.0
 40
6.0
 40
7.0
 40
7.0
 40
7.0
 40
8.0
 40
8.0
 40
8.0
 40
9.0
 40
9.0
 40
9.0
 40
10.0
 40
10.0
 40
10.0
 40
11.0
 40
11.0
 40
11.0
 40
12.0
 40
12.0
 40
12.0
 40
13.0
 40
13.0
 40
13.0
 40
14.0
 40
14.0
 40
14.0
 40
15.0
 40
15.0
 40
15.0
 40
15.0
 10
205.6190884206389
 20
-188.4039312497498
 10
222.6420130663901
 20
-185.87518651768
 10
239.6649377121412
 20
-183.0336303501808
 10
256.7919206889037
 20
-181.7562904704173
 10
302.4382054504786
 20
-178.341299708165
 10
348.1887076536659
 20
-177.2464596841692
 10
393.9653039949044
 20
-178.0545824107903
 10
413.3083793789083
 20
-178.3934879842691
 10
432.6252015142636
 20
-178.9409875515666
 10
451.9421827602164
 20
-179.8272335817455
 10
470.0077591538575
 20
-180.6614504464196
 10
488.0994296855552
 20
-181.5217614491448
 10
506.0606295269918
 20
-183.4508183378166
 10
520.7634034344883
 20
-185.040969653006
 10
535.3097716242683
 20
-188.1431489798288
 10
549.9081689795603
 20
-190.7500170154581
 10
552.7236310090047
 20
-191.2714224447045
 10
555.4347164862447
 20
-192.5226681864169
 10
558.1979902395906
 20
-193.4351674652444
 10
558.2501785156965
 20
-193.9564137838934
 10
558.2762726537476
 20
-194.477819213138
 10
558.3023667917987
 20
-194.9731305043315
 10
550.9248856999984
 20
-196.7979699513926
 10
543.599592884304
 20
-199.2223381312579
 10
536.0918002128401
 20
-200.3171781552537
 10
520.8677799866964
 20
-202.5592055899488
 10
505.5914123738494
 20
-204.5924799202312
 10
490.2630155954976
 20
-205.8437256619418
 10
470.9983817362481
 20
-207.4079419496793
 10
451.7074946283446
 20
-208.4505936975711
 10
432.3906724929893
 20
-209.1023107064793
 10
378.2459724775672
 20
-210.9793384296445
 10
324.0751783240885
 20
-210.7968385738786
 10
270.0348548608708
 20
-206.7562249407711
 10
247.4855418190309
 20
-205.0616970733718
 10
225.0402871082024
 20
-201.9334236084978
 10
202.5690973699184
 20
-199.0920265515942
 10
197.277237995102
 20
-198.4142154046349
 10
192.1416252273993
 20
-196.2245353566414
 10
186.95398329419
 20
-194.7125073450079
 10
186.9278891561389
 20
-194.1389136396592
 10
186.9278891561389
 20
-193.5915731829573
 10
186.9017950180878
 20
-193.0179794776086
 10
193.1322478097863
 20
-191.4539223004704
 10
199.2844181873297
 20
-189.3423655560346
 10
205.6190884206389
 20
-188.4039312497498
 97
        0
 97
        0
 92
        1
 93
        1
 72
     4
 94
        3
 73
     0
 74
     1
 95
       47
 96
       43
 40
0.0
 40
0.0
 40
0.0
 40
0.0
 40
1.0
 40
1.0
 40
1.0
 40
2.0
 40
2.0
 40
2.0
 40
3.0
 40
3.0
 40
3.0
 40
4.0
 40
4.0
 40
4.0
 40
5.0
 40
5.0
 40
5.0
 40
6.0
 40
6.0
 40
6.0
 40
7.0
 40
7.0
 40
7.0
 40
8.0
 40
8.0
 40
8.0
 40
9.0
 40
9.0
 40
9.0
 40
10.0
 40
10.0
 40
10.0
 40
11.0
 40
11.0
 40
11.0
 40
12.0
 40
12.0
 40
12.0
 40
13.0
 40
13.0
 40
13.0
 40
14.0
 40
14.0
 40
14.0
 40
14.0
 10
184.5818033904307
 20
-205.8698197999947
 10
184.5818033904307
 20
-205.3485734813457
 10
184.9207089639112
 20
-204.80107391405
 10
184.998832267469
 20
-204.5663857821783
 10
242.4021173274323
 20
-217.9918198099131
 10
300.7177425556256
 20
-218.4871311011048
 10
358.9550853696655
 20
-219.3733771312836
 10
400.7693504919534
 20
-219.9991591127382
 10
442.5834565036421
 20
-219.2169714135707
 10
484.2672509356689
 20
-215.5413574919967
 10
505.4350066561365
 20
-213.6904239068845
 10
526.4724507969422
 20
-210.3276214207363
 10
547.5098949377498
 20
-207.4340360877304
 10
551.5766027089085
 20
-206.886536520431
 10
555.4869047623506
 20
-205.2963852052417
 10
559.9708005211469
 20
-204.0710744909848
 10
560.2053295424193
 20
-205.1399794875288
 10
560.648452557507
 20
-206.2087253734735
 10
560.648452557507
 20
-207.2515362319646
 10
560.648452557507
 20
-218.5652544046625
 10
560.492046839794
 20
-229.8791316879615
 10
560.6225175300533
 20
-241.1930089712587
 10
560.648452557507
 20
-244.3211233255352
 10
559.2147069600287
 20
-246.0678394690367
 10
556.6339330624542
 20
-246.8498680576085
 10
547.118801088167
 20
-249.6912651145085
 10
537.7080456660824
 20
-253.184538290916
 10
527.9583846705209
 20
-254.9050011857689
 10
471.9107219044799
 20
-264.7851328715897
 10
415.2374362675782
 20
-266.0363786133003
 10
358.4858682165232
 20
-265.6713789017685
 10
314.7166111781116
 20
-265.384661604392
 10
270.9993833052067
 20
-263.4816988537732
 10
227.6993434199358
 20
-256.72984063283
 10
215.4209376923027
 20
-254.8007837441583
 10
203.4033142345925
 20
-251.1771989880908
 10
191.3074083627271
 20
-248.1272079373721
 10
186.4847661410495
 20
-246.9279913611645
 10
184.2428978169519
 20
-244.0605001662116
 10
184.5035209762755
 20
-238.4295761073154
 10
185.051020543573
 20
-227.6111692258091
 10
184.5818033904307
 20
-216.7144799301495
 10
184.5818033904307
 20
-205.8698197999947
 97
        0
 97
        0
 92
        1
 93
        1
 72
     4
 94
        3
 73
     0
 74
     1
 95
       47
 96
       43
 40
0.0
 40
0.0
 40
0.0
 40
0.0
 40
1.0
 40
1.0
 40
1.0
 40
2.0
 40
2.0
 40
2.0
 40
3.0
 40
3.0
 40
3.0
 40
4.0
 40
4.0
 40
4.0
 40
5.0
 40
5.0
 40
5.0
 40
6.0
 40
6.0
 40
6.0
 40
7.0
 40
7.0
 40
7.0
 40
8.0
 40
8.0
 40
8.0
 40
9.0
 40
9.0
 40
9.0
 40
10.0
 40
10.0
 40
10.0
 40
11.0
 40
11.0
 40
11.0
 40
12.0
 40
12.0
 40
12.0
 40
13.0
 40
13.0
 40
13.0
 40
14.0
 40
14.0
 40
14.0
 40
14.0
 10
584.6316703074226
 20
-302.2197196766938
 10
580.5129333707555
 20
-304.2270589795189
 10
576.3157549093412
 20
-306.2342391717466
 10
571.936235702753
 20
-307.5376731895631
 10
549.7256691237926
 20
-314.0809374166893
 10
526.8113563704228
 20
-316.8963994461374
 10
503.8709494789964
 20
-319.1904560463408
 10
446.3634469774242
 20
-324.9776267123507
 10
388.6473504820333
 20
-325.9682492947377
 10
330.9053189591887
 20
-324.5345036972612
 10
287.761525681035
 20
-323.4657578113165
 10
244.6700797895828
 20
-321.2237303766196
 10
202.0737860787267
 20
-313.8464083954168
 10
189.66506877143
 20
-311.7087575129299
 10
177.4649454579539
 20
-308.1893901984695
 10
165.4212278621926
 20
-304.5398704149466
 10
157.9656234668346
 20
-302.2978429802497
 10
157.8614060252239
 20
-301.229097094305
 10
158.4609347580281
 20
-293.4606812635193
 10
159.0604634908304
 20
-285.7964828743443
 10
159.7382746377898
 20
-278.1322844851675
 10
160.3638975086451
 20
-270.5462093995484
 10
160.9895203795022
 20
-270.4158978198866
 10
161.3545200910321
 20
-270.2073038260696
 10
161.5631140848509
 20
-270.2855862402266
 10
186.1458605675689
 20
-281.4428986952116
 10
212.5012582212457
 20
-285.301171583149
 10
238.9088441510248
 20
-288.7683506215035
 10
309.8156865422789
 20
-298.0747294913781
 10
380.9831520928583
 20
-299.221757791478
 10
452.2289000575893
 20
-294.0602099963235
 10
492.6353546098544
 20
-291.1405305252647
 10
532.6507153125349
 20
-285.4053890247596
 10
571.7537358469854
 20
-274.3522940113835
 10
575.9768493358606
 20
-273.1791715732325
 10
580.0696512450704
 20
-271.4587086783795
 10
584.8924525773436
 20
-269.7641808109802
 10
585.7005753039666
 20
-279.800718214512
 10
586.5607271960944
 20
-289.3678793543077
 10
587.1082267633938
 20
-298.9611346321544
 10
587.1604150394924
 20
-300.0298805180992
 10
585.7786986075225
 20
-301.6983142474473
 10
584.6316703074226
 20
-302.2197196766938
 97
        0
 97
        0
 75
     2
 76
     1
 98
        0
  0
ENDBLK
  5
5E
330
5B
100
AcDbEntity
  8
0
100
AcDbBlockEnd
  0
BLOCK
  5
61
330
5F
100
AcDbEntity
  8
0
100
AcDbBlockBegin
  2
block 5
 70
     0
 10
0.0
 20
0.0
 30
0.0
  3
block 5
  1

  0
SPLINE
  5
63
330
5F
100
AcDbEntity
  8
Layer 1
370
     0
100
AcDbSpline
210
0.0
220
0.0
230
1.0
 70
    11
 71
     3
 72
   215
 73
   211
 74
     0
 42
0.0000000001
 43
0.0000000001
 12
1.0
 22
0.0
 32
0.0
 13
1.0
 23
0.0
 33
0.0
 40
0.0
 40
0.0
 40
0.0
 40
0.0
 40
1.0
 40
1.0
 40
1.0
 40
2.0
 40
2.0
 40
2.0
 40
3.0
 40
3.0
 40
3.0
 40
4.0
 40
4.0
 40
4.0
 40
5.0
 40
5.0
 40
5.0
 40
6.0
 40
6.0
 40
6.0
 40
7.0
 40
7.0
 40
7.0
 40
8.0
 40
8.0
 40
8.0
 40
9.0
 40
9.0
 40
9.0
 40
10.0
 40
10.0
 40
10.0
 40
11.0
 40
11.0
 40
11.0
 40
12.0
 40
12.0
 40
12.0
 40
13.0
 40
13.0
 40
13.0
 40
14.0
 40
14.0
 40
14.0
 40
15.0
 40
15.0
 40
15.0
 40
16.0
 40
16.0
 40
16.0
 40
17.0
 40
17.0
 40
17.0
 40
18.0
 40
18.0
 40
18.0
 40
19.0
 40
19.0
 40
19.0
 40
20.0
 40
20.0
 40
20.0
 40
21.0
 40
21.0
 40
21.0
 40
22.0
 40
22.0
 40
22.0
 40
23.0
 40
23.0
 40
23.0
 40
24.0
 40
24.0
 40
24.0
 40
25.0
 40
25.0
 40
25.0
 40
26.0
 40
26.0
 40
26.0
 40
27.0
 40
27.0
 40
27.0
 40
28.0
 40
28.0
 40
28.0
 40
29.0
 40
29.0
 40
29.0
 40
30.0
 40
30.0
 40
30.0
 40
31.0
 40
31.0
 40
31.0
 40
32.0
 40
32.0
 40
32.0
 40
33.0
 40
33.0
 40
33.0
 40
34.0
 40
34.0
 40
34.0
 40
35.0
 40
35.0
 40
35.0
 40
36.0
 40
36.0
 40
36.0
 40
37.0
 40
37.0
 40
37.0
 40
38.0
 40
38.0
 40
38.0
 40
39.0
 40
39.0
 40
39.0
 40
40.0
 40
40.0
 40
40.0
 40
41.0
 40
41.0
 40
41.0
 40
42.0
 40
42.0
 40
42.0
 40
43.0
 40
43.0
 40
43.0
 40
44.0
 40
44.0
 40
44.0
 40
45.0
 40
45.0
 40
45.0
 40
46.0
 40
46.0
 40
46.0
 40
47.0
 40
47.0
 40
47.0
 40
48.0
 40
48.0
 40
48.0
 40
49.0
 40
49.0
 40
49.0
 40
50.0
 40
50.0
 40
50.0
 40
51.0
 40
51.0
 40
51.0
 40
52.0
 40
52.0
 40
52.0
 40
53.0
 40
53.0
 40
53.0
 40
54.0
 40
54.0
 40
54.0
 40
55.0
 40
55.0
 40
55.0
 40
56.0
 40
56.0
 40
56.0
 40
57.0
 40
57.0
 40
57.0
 40
58.0
 40
58.0
 40
58.0
 40
59.0
 40
59.0
 40
59.0
 40
60.0
 40
60.0
 40
60.0
 40
61.0
 40
61.0
 40
61.0
 40
62.0
 40
62.0
 40
62.0
 40
63.0
 40
63.0
 40
63.0
 40
64.0
 40
64.0
 40
64.0
 40
65.0
 40
65.0
 40
65.0
 40
66.0
 40
66.0
 40
66.0
 40
67.0
 40
67.0
 40
67.0
 40
68.0
 40
68.0
 40
68.0
 40
69.0
 40
69.0
 40
69.0
 40
70.0
 40
70.0
 40
70.0
 40
70.0
 10
596.6492937651346
 20
-296.7973896116146
 30
0.0
 10
595.3719538853729
 20
-284.2063315591513
 30
0.0
 10
594.3813313029823
 20
-271.6151143960924
 30
0.0
 10
593.5211794108582
 20
-258.9978030949806
 30
0.0
 10
593.2083679754287
 20
-254.748595468056
 30
0.0
 10
591.5660283841353
 20
-251.3336047058037
 30
0.0
 10
588.0466610696749
 20
-249.3264245135761
 30
0.0
 10
583.4326128418143
 20
-246.7195564779449
 30
0.0
 10
578.5316882059851
 20
-244.503623181301
 30
0.0
 10
573.5785752940465
 20
-242.5484721545781
 30
0.0
 10
570.9717072584172
 20
-241.5317554341382
 30
0.0
 10
569.9549905379754
 20
-240.3066038304805
 30
0.0
 10
569.9810846760302
 20
-237.4391126355276
 30
0.0
 10
570.1374903937431
 20
-223.62258475821
 30
0.0
 10
569.9549905379754
 20
-209.7801218534387
 30
0.0
 10
570.111396255692
 20
-195.9637530867185
 30
0.0
 10
570.1635845317942
 20
-191.792827873951
 30
0.0
 10
568.8862446520325
 20
-188.4298662772053
 30
0.0
 10
565.262659895965
 20
-186.6572151062483
 30
0.0
 10
561.3001695664134
 20
-184.6759699414742
 30
0.0
 10
557.1031502155965
 20
-182.6687897492448
 30
0.0
 10
552.8019134231654
 20
-181.9648844642343
 30
0.0
 10
532.9375917205107
 20
-178.7062994196986
 30
0.0
 10
513.0471758798049
 20
-175.4738085132121
 30
0.0
 10
493.0784776249475
 20
-173.0494403333469
 30
0.0
 10
479.7052318733149
 20
-171.4071007420534
 30
0.0
 10
466.1755804039731
 20
-170.8075720092475
 30
0.0
 10
452.6981172107335
 20
-170.2600724419517
 30
0.0
 10
394.5388977002531
 20
-167.8096101240353
 30
0.0
 10
336.3796781897727
 20
-167.1578931151271
 30
0.0
 10
278.2726469553963
 20
-171.4331948801027
 30
0.0
 10
259.0598831510524
 20
-172.8408463395299
 30
0.0
 10
239.8213434298541
 20
-174.3528743511615
 30
0.0
 10
220.6607679016142
 20
-176.5425543991569
 30
0.0
 10
210.2593898971481
 20
-177.7417709753609
 30
0.0
 10
199.9622293342891
 20
-180.1139508791221
 30
0.0
 10
189.7694453236381
 20
-182.6166014731425
 30
0.0
 10
177.2824456021881
 20
-185.6926866619142
 30
0.0
 10
175.3794828515711
 20
-188.58627199492
 30
0.0
 10
175.4055769896222
 20
-201.0732717163683
 30
0.0
 10
175.4055769896222
 20
-213.2733950298461
 30
0.0
 10
175.3013595480134
 20
-225.4735183433222
 30
0.0
 10
175.3794828515711
 20
-237.6736416567983
 30
0.0
 10
175.4055769896222
 20
-240.3066038304805
 30
0.0
 10
174.6755775665588
 20
-241.5578495721911
 30
0.0
 10
172.0166803654229
 20
-242.4442547129693
 30
0.0
 10
167.6630961862902
 20
-243.8519061723928
 30
0.0
 10
163.387953531912
 20
-245.6767456194539
 30
0.0
 10
159.3212457607533
 20
-247.8143965019426
 30
0.0
 10
154.707038422297
 20
-250.2126705437568
 30
0.0
 10
152.15235866277
 20
-253.9926610175371
 30
0.0
 10
151.8134530892912
 20
-259.5713968003292
 30
0.0
 10
151.0573595281749
 20
-271.7193318377031
 30
0.0
 10
150.0667369457879
 20
-283.8933610131262
 30
0.0
 10
148.6590854863625
 20
-296.0153610230445
 30
0.0
 10
147.7987744836391
 20
-303.3928421148466
 30
0.0
 10
150.953142086566
 20
-308.0590786188077
 30
0.0
 10
157.1314066021605
 20
-311.0831346420746
 30
0.0
 10
161.1459260972151
 20
-313.0382856687957
 30
0.0
 10
165.4473220002437
 20
-314.3156255485592
 30
0.0
 10
169.4359064678447
 20
-316.296870713335
 30
0.0
 10
170.8174637892171
 20
-316.9745227496933
 30
0.0
 10
172.3815209663571
 20
-318.7732680587033
 30
0.0
 10
172.564020822123
 20
-320.207172766779
 30
0.0
 10
174.6235484010522
 20
-337.0213443081138
 30
0.0
 10
176.3961995720092
 20
-353.8878632361502
 30
0.0
 10
178.3513505987321
 20
-370.7281289155362
 30
0.0
 10
184.2168036788989
 20
-420.962526877518
 30
0.0
 10
190.1864742006765
 20
-471.1708307014469
 30
0.0
 10
195.9998981153385
 20
-521.4052286634269
 30
0.0
 10
198.0070783075662
 20
-538.5062766127357
 30
0.0
 10
199.5452004572526
 20
-555.6593537275512
 30
0.0
 10
201.4742573459225
 20
-572.7604016768582
 30
0.0
 10
206.5054935614171
 20
-617.4160638560497
 30
0.0
 10
211.615012191065
 20
-662.0456318971865
 30
0.0
 10
216.7243717101173
 20
-706.6753590489207
 30
0.0
 10
222.2770133548584
 20
-755.1369467293462
 30
0.0
 10
227.8296549995976
 20
-803.6247876584239
 30
0.0
 10
233.4083907823897
 20
-852.0863753388512
 30
0.0
 10
234.9724479595279
 20
-865.7202442498037
 30
0.0
 10
241.3332123308883
 20
-876.5388102419056
 30
0.0
 10
253.6116180585213
 20
-882.8212921991108
 30
0.0
 10
264.5344014922357
 20
-888.4261221199558
 30
0.0
 10
275.7699963613759
 20
-893.6137640531633
 30
0.0
 10
287.3184026659455
 20
-897.7065659623731
 30
0.0
 10
314.9252051719286
 20
-907.5084152340387
 30
0.0
 10
343.6527827293648
 20
-911.1059058520568
 30
0.0
 10
372.875830688592
 20
-911.679340446808
 30
0.0
 10
383.5639259904365
 20
-910.923405996291
 30
0.0
 10
394.2782745409295
 20
-910.5063771192508
 30
0.0
 10
404.9141815666699
 20
-909.3852838466046
 30
0.0
 10
435.6751925649824
 20
-906.126698802067
 30
0.0
 10
464.9504288003136
 20
-897.7326601004261
 30
0.0
 10
492.1139491806098
 20
-882.7170747575019
 30
0.0
 10
503.7145437612835
 20
-876.3041221100375
 30
0.0
 10
510.2578079884097
 20
-866.0852439613354
 30
0.0
 10
511.7957710274968
 20
-853.0248096451323
 30
0.0
 10
517.8437239634313
 20
-801.1743253405075
 30
0.0
 10
523.7091770435982
 20
-749.2975877872304
 30
0.0
 10
529.6268183998691
 20
-697.420850233957
 30
0.0
 10
531.3211871566709
 20
-682.7182354370561
 30
0.0
 10
532.9896208860155
 20
-668.0154615295596
 30
0.0
 10
534.6841487534166
 20
-653.3126876220631
 30
0.0
 10
531.5819694265901
 20
-654.1990927628412
 30
0.0
 10
528.3494785201055
 20
-654.8508097717495
 30
0.0
 10
525.0126110614128
 20
-655.2417445107349
 30
0.0
 10
522.4318371638346
 20
-677.8693399667318
 30
0.0
 10
519.8249691282053
 20
-700.4969354227287
 30
0.0
 10
517.1659128164702
 20
-723.0985958512701
 30
0.0
 10
516.9574779332506
 20
-724.792964608072
 30
0.0
 10
514.9762327684784
 20
-726.9045213525078
 30
0.0
 10
513.3077990391303
 20
-727.6345207755712
 30
0.0
 10
492.8959777691798
 20
-736.6021531825627
 30
0.0
 10
471.285099033621
 20
-741.4508895422896
 30
0.0
 10
449.3873438900901
 20
-745.2047858780206
 30
0.0
 10
422.3541350894575
 20
-749.8450873545298
 30
0.0
 10
395.0863972675506
 20
-751.4352386697192
 30
0.0
 10
367.7402179208912
 20
-751.0963330962404
 30
0.0
 10
324.1795548762966
 20
-750.5227393908917
 30
0.0
 10
281.140138150351
 20
-745.9347853010859
 30
0.0
 10
239.8213434298541
 20
-730.9191999581599
 30
0.0
 10
228.2468429872333
 20
-726.7221806073394
 30
0.0
 10
228.4291837323999
 20
-726.6438981931842
 30
0.0
 10
227.0215322729764
 20
-714.2351808858893
 30
0.0
 10
222.7462305079989
 20
-676.4095002312024
 30
0.0
 10
218.3667113014126
 20
-638.5838195765173
 30
0.0
 10
214.0393803709303
 20
-600.7322038943748
 30
0.0
 10
211.5367297769099
 20
-578.730231309235
 30
0.0
 10
209.0862674589935
 20
-556.7021645860423
 30
0.0
 10
206.5837759755723
 20
-534.7001920009006
 30
0.0
 10
205.4367476754705
 20
-524.6899078460174
 30
0.0
 10
204.2636252373177
 20
-514.6794645805367
 30
0.0
 10
203.0905027991648
 20
-504.3823040176758
 30
0.0
 10
218.0538998659849
 20
-507.041360329411
 30
0.0
 10
232.9912027947539
 20
-509.3615110676656
 30
0.0
 10
247.9286648341204
 20
-511.3166620943884
 30
0.0
 10
254.0547410736108
 20
-478.4439352410391
 30
0.0
 10
265.7075239303867
 20
-446.61417835678
 30
0.0
 10
281.061855736194
 20
-421.4317440306586
 30
0.0
 10
306.1139784826519
 20
-380.3474783314359
 30
0.0
 10
339.7163865378679
 20
-358.3976940224002
 30
0.0
 10
375.6651985799872
 20
-359.5186281844472
 30
0.0
 10
397.5107654474141
 20
-359.5969105986042
 30
0.0
 10
413.2040028267002
 20
-371.3017226208867
 30
0.0
 10
418.7827386094923
 20
-391.6352614766802
 30
0.0
 10
428.6628702953112
 20
-427.662196822359
 30
0.0
 10
403.6890299630104
 20
-488.4282843684687
 30
0.0
 10
371.0509912415309
 20
-507.8755771940832
 30
0.0
 10
365.9936608879852
 20
-510.9516623828549
 30
0.0
 10
359.8675846484948
 20
-511.0819739625185
 30
0.0
 10
354.6538485772344
 20
-508.214482767562
 30
0.0
 10
349.02292451834
 20
-505.1123034407392
 30
0.0
 10
345.3473105967641
 20
-498.9079447870918
 30
0.0
 10
345.2690281826071
 20
-492.3646805599656
 30
0.0
 10
345.2169990171024
 20
-486.3689159001369
 30
0.0
 10
348.1887076536659
 20
-481.0508032766702
 30
0.0
 10
353.2201029797579
 20
-478.0790946401048
 30
0.0
 10
372.4066135354515
 20
-466.45240592138
 30
0.0
 10
391.0456245238456
 20
-422.0053377360073
 30
0.0
 10
385.3626712994446
 20
-401.3067991686821
 30
0.0
 10
383.9289257019682
 20
-396.0669689593724
 30
0.0
 10
381.556745798207
 20
-394.2160353742584
 30
0.0
 10
376.0822274570255
 20
-394.0857237945966
 30
0.0
 10
348.0844902120552
 20
-396.0147806832665
 30
0.0
 10
318.4183192377386
 20
-452.7141604582175
 30
0.0
 10
306.1139784826519
 20
-517.1560210365024
 30
0.0
 10
356.1918116163215
 20
-520.6752292403653
 30
0.0
 10
406.2176155844845
 20
-520.17991794917
 30
0.0
 10
456.347796104852
 20
-515.8003987425836
 30
0.0
 10
462.7605896417226
 20
-511.7597851094761
 30
0.0
 10
470.164164871574
 20
-509.3093227915597
 30
0.0
 10
478.1411746961767
 20
-508.735729086211
 30
0.0
 10
484.710533061354
 20
-508.2926060711216
 30
0.0
 10
491.201609012378
 20
-509.2051053499508
 30
0.0
 10
497.2754969757661
 20
-511.3425971218421
 30
0.0
 10
497.3015911138173
 20
-511.3425971218421
 30
0.0
 10
497.3015911138173
 20
-511.3425971218421
 30
0.0
 10
497.3015911138173
 20
-511.3425971218421
 30
0.0
 10
512.2649881806392
 20
-509.4135402331704
 30
0.0
 10
527.2285443580549
 20
-507.1455777710216
 30
0.0
 10
542.2180355629316
 20
-504.5126155973394
 30
0.0
 10
540.6277251371421
 20
-518.5897666339806
 30
0.0
 10
539.0897620980522
 20
-532.4322295387519
 30
0.0
 10
537.4996107828629
 20
-546.2746924435214
 30
0.0
 10
536.8738288014101
 20
-551.7751458121566
 30
0.0
 10
536.248205930553
 20
-557.3016933188464
 30
0.0
 10
535.5964889216466
 20
-562.802305798079
 30
0.0
 10
538.8030448006793
 20
-578.9908544685586
 30
0.0
 10
538.5422625307547
 20
-595.9615908382057
 30
0.0
 10
536.5610173659825
 20
-609.3870248659387
 30
0.0
 10
536.4046116482659
 20
-610.586082331547
 30
0.0
 10
536.2221117925001
 20
-611.785298907751
 30
0.0
 10
536.0136769092805
 20
-612.9845154839568
 30
0.0
 10
537.7341398041353
 20
-610.9249879050258
 30
0.0
 10
539.0636679600011
 20
-608.6048371667712
 30
0.0
 10
540.0542905423899
 20
-606.2587514010647
 30
0.0
 10
543.1825640072675
 20
-579.0430427446627
 30
0.0
 10
546.2847433340867
 20
-551.8534282263136
 30
0.0
 10
549.4128576883668
 20
-524.6377195699133
 30
0.0
 10
557.1553384916988
 20
-456.806962367431
 30
0.0
 10
564.9237543224845
 20
-388.9762051649468
 30
0.0
 10
572.5357644355572
 20
-321.119512935009
 30
0.0
 10
572.8746700090342
 20
-318.0956160223432
 30
0.0
 10
573.995763281684
 20
-316.8181170319804
 30
0.0
 10
576.7329428969751
 20
-315.8015594221397
 30
0.0
 10
581.2949619593273
 20
-314.1331256927933
 30
0.0
 10
585.8569810216795
 20
-312.2301629421745
 30
0.0
 10
590.1321236760596
 20
-309.8578239278177
 30
0.0
 10
595.0591424499435
 20
-307.0945501744718
 30
0.0
 10
597.2489816085363
 20
-302.7411251059384
 30
0.0
 10
596.6492937651346
 20
-296.7973896116146
 30
0.0
  0
SPLINE
  5
64
330
5F
100
AcDbEntity
  8
Layer 1
370
     0
100
AcDbSpline
210
0.0
220
0.0
230
1.0
 70
    11
 71
     3
 72
    50
 73
    46
 74
     0
 42
0.0000000001
 43
0.0000000001
 12
1.0
 22
0.0
 32
0.0
 13
1.0
 23
0.0
 33
0.0
 40
0.0
 40
0.0
 40
0.0
 40
0.0
 40
1.0
 40
1.0
 40
1.0
 40
2.0
 40
2.0
 40
2.0
 40
3.0
 40
3.0
 40
3.0
 40
4.0
 40
4.0
 40
4.0
 40
5.0
 40
5.0
 40
5.0
 40
6.0
 40
6.0
 40
6.0
 40
7.0
 40
7.0
 40
7.0
 40
8.0
 40
8.0
 40
8.0
 40
9.0
 40
9.0
 40
9.0
 40
10.0
 40
10.0
 40
10.0
 40
11.0
 40
11.0
 40
11.0
 40
12.0
 40
12.0
 40
12.0
 40
13.0
 40
13.0
 40
13.0
 40
14.0
 40
14.0
 40
14.0
 40
15.0
 40
15.0
 40
15.0
 40
15.0
 10
205.6190884206389
 20
-188.4039312497498
 30
0.0
 10
222.6420130663901
 20
-185.87518651768
 30
0.0
 10
239.6649377121412
 20
-183.0336303501808
 30
0.0
 10
256.7919206889037
 20
-181.7562904704173
 30
0.0
 10
302.4382054504786
 20
-178.341299708165
 30
0.0
 10
348.1887076536659
 20
-177.2464596841692
 30
0.0
 10
393.9653039949044
 20
-178.0545824107903
 30
0.0
 10
413.3083793789083
 20
-178.3934879842691
 30
0.0
 10
432.6252015142636
 20
-178.9409875515666
 30
0.0
 10
451.9421827602164
 20
-179.8272335817455
 30
0.0
 10
470.0077591538575
 20
-180.6614504464196
 30
0.0
 10
488.0994296855552
 20
-181.5217614491448
 30
0.0
 10
506.0606295269918
 20
-183.4508183378166
 30
0.0
 10
520.7634034344883
 20
-185.040969653006
 30
0.0
 10
535.3097716242683
 20
-188.1431489798288
 30
0.0
 10
549.9081689795603
 20
-190.7500170154581
 30
0.0
 10
552.7236310090047
 20
-191.2714224447045
 30
0.0
 10
555.4347164862447
 20
-192.5226681864169
 30
0.0
 10
558.1979902395906
 20
-193.4351674652444
 30
0.0
 10
558.2501785156965
 20
-193.9564137838934
 30
0.0
 10
558.2762726537476
 20
-194.477819213138
 30
0.0
 10
558.3023667917987
 20
-194.9731305043315
 30
0.0
 10
550.9248856999984
 20
-196.7979699513926
 30
0.0
 10
543.599592884304
 20
-199.2223381312579
 30
0.0
 10
536.0918002128401
 20
-200.3171781552537
 30
0.0
 10
520.8677799866964
 20
-202.5592055899488
 30
0.0
 10
505.5914123738494
 20
-204.5924799202312
 30
0.0
 10
490.2630155954976
 20
-205.8437256619418
 30
0.0
 10
470.9983817362481
 20
-207.4079419496793
 30
0.0
 10
451.7074946283446
 20
-208.4505936975711
 30
0.0
 10
432.3906724929893
 20
-209.1023107064793
 30
0.0
 10
378.2459724775672
 20
-210.9793384296445
 30
0.0
 10
324.0751783240885
 20
-210.7968385738786
 30
0.0
 10
270.0348548608708
 20
-206.7562249407711
 30
0.0
 10
247.4855418190309
 20
-205.0616970733718
 30
0.0
 10
225.0402871082024
 20
-201.9334236084978
 30
0.0
 10
202.5690973699184
 20
-199.0920265515942
 30
0.0
 10
197.277237995102
 20
-198.4142154046349
 30
0.0
 10
192.1416252273993
 20
-196.2245353566414
 30
0.0
 10
186.95398329419
 20
-194.7125073450079
 30
0.0
 10
186.9278891561389
 20
-194.1389136396592
 30
0.0
 10
186.9278891561389
 20
-193.5915731829573
 30
0.0
 10
186.9017950180878
 20
-193.0179794776086
 30
0.0
 10
193.1322478097863
 20
-191.4539223004704
 30
0.0
 10
199.2844181873297
 20
-189.3423655560346
 30
0.0
 10
205.6190884206389
 20
-188.4039312497498
 30
0.0
  0
SPLINE
  5
65
330
5F
100
AcDbEntity
  8
Layer 1
370
     0
100
AcDbSpline
210
0.0
220
0.0
230
1.0
 70
    11
 71
     3
 72
    47
 73
    43
 74
     0
 42
0.0000000001
 43
0.0000000001
 12
1.0
 22
0.0
 32
0.0
 13
1.0
 23
0.0
 33
0.0
 40
0.0
 40
0.0
 40
0.0
 40
0.0
 40
1.0
 40
1.0
 40
1.0
 40
2.0
 40
2.0
 40
2.0
 40
3.0
 40
3.0
 40
3.0
 40
4.0
 40
4.0
 40
4.0
 40
5.0
 40
5.0
 40
5.0
 40
6.0
 40
6.0
 40
6.0
 40
7.0
 40
7.0
 40
7.0
 40
8.0
 40
8.0
 40
8.0
 40
9.0
 40
9.0
 40
9.0
 40
10.0
 40
10.0
 40
10.0
 40
11.0
 40
11.0
 40
11.0
 40
12.0
 40
12.0
 40
12.0
 40
13.0
 40
13.0
 40
13.0
 40
14.0
 40
14.0
 40
14.0
 40
14.0
 10
184.5818033904307
 20
-205.8698197999947
 30
0.0
 10
184.5818033904307
 20
-205.3485734813457
 30
0.0
 10
184.9207089639112
 20
-204.80107391405
 30
0.0
 10
184.998832267469
 20
-204.5663857821783
 30
0.0
 10
242.4021173274323
 20
-217.9918198099131
 30
0.0
 10
300.7177425556256
 20
-218.4871311011048
 30
0.0
 10
358.9550853696655
 20
-219.3733771312836
 30
0.0
 10
400.7693504919534
 20
-219.9991591127382
 30
0.0
 10
442.5834565036421
 20
-219.2169714135707
 30
0.0
 10
484.2672509356689
 20
-215.5413574919967
 30
0.0
 10
505.4350066561365
 20
-213.6904239068845
 30
0.0
 10
526.4724507969422
 20
-210.3276214207363
 30
0.0
 10
547.5098949377498
 20
-207.4340360877304
 30
0.0
 10
551.5766027089085
 20
-206.886536520431
 30
0.0
 10
555.4869047623506
 20
-205.2963852052417
 30
0.0
 10
559.9708005211469
 20
-204.0710744909848
 30
0.0
 10
560.2053295424193
 20
-205.1399794875288
 30
0.0
 10
560.648452557507
 20
-206.2087253734735
 30
0.0
 10
560.648452557507
 20
-207.2515362319646
 30
0.0
 10
560.648452557507
 20
-218.5652544046625
 30
0.0
 10
560.492046839794
 20
-229.8791316879615
 30
0.0
 10
560.6225175300533
 20
-241.1930089712587
 30
0.0
 10
560.648452557507
 20
-244.3211233255352
 30
0.0
 10
559.2147069600287
 20
-246.0678394690367
 30
0.0
 10
556.6339330624542
 20
-246.8498680576085
 30
0.0
 10
547.118801088167
 20
-249.6912651145085
 30
0.0
 10
537.7080456660824
 20
-253.184538290916
 30
0.0
 10
527.9583846705209
 20
-254.9050011857689
 30
0.0
 10
471.9107219044799
 20
-264.7851328715897
 30
0.0
 10
415.2374362675782
 20
-266.0363786133003
 30
0.0
 10
358.4858682165232
 20
-265.6713789017685
 30
0.0
 10
314.7166111781116
 20
-265.384661604392
 30
0.0
 10
270.9993833052067
 20
-263.4816988537732
 30
0.0
 10
227.6993434199358
 20
-256.72984063283
 30
0.0
 10
215.4209376923027
 20
-254.8007837441583
 30
0.0
 10
203.4033142345925
 20
-251.1771989880908
 30
0.0
 10
191.3074083627271
 20
-248.1272079373721
 30
0.0
 10
186.4847661410495
 20
-246.9279913611645
 30
0.0
 10
184.2428978169519
 20
-244.0605001662116
 30
0.0
 10
184.5035209762755
 20
-238.4295761073154
 30
0.0
 10
185.051020543573
 20
-227.6111692258091
 30
0.0
 10
184.5818033904307
 20
-216.7144799301495
 30
0.0
 10
184.5818033904307
 20
-205.8698197999947
 30
0.0
  0
SPLINE
  5
66
330
5F
100
AcDbEntity
  8
Layer 1
370
     0
100
AcDbSpline
210
0.0
220
0.0
230
1.0
 70
    11
 71
     3
 72
    47
 73
    43
 74
     0
 42
0.0000000001
 43
0.0000000001
 12
1.0
 22
0.0
 32
0.0
 13
1.0
 23
0.0
 33
0.0
 40
0.0
 40
0.0
 40
0.0
 40
0.0
 40
1.0
 40
1.0
 40
1.0
 40
2.0
 40
2.0
 40
2.0
 40
3.0
 40
3.0
 40
3.0
 40
4.0
 40
4.0
 40
4.0
 40
5.0
 40
5.0
 40
5.0
 40
6.0
 40
6.0
 40
6.0
 40
7.0
 40
7.0
 40
7.0
 40
8.0
 40
8.0
 40
8.0
 40
9.0
 40
9.0
 40
9.0
 40
10.0
 40
10.0
 40
10.0
 40
11.0
 40
11.0
 40
11.0
 40
12.0
 40
12.0
 40
12.0
 40
13.0
 40
13.0
 40
13.0
 40
14.0
 40
14.0
 40
14.0
 40
14.0
 10
584.6316703074226
 20
-302.2197196766938
 30
0.0
 10
580.5129333707555
 20
-304.2270589795189
 30
0.0
 10
576.3157549093412
 20
-306.2342391717466
 30
0.0
 10
571.936235702753
 20
-307.5376731895631
 30
0.0
 10
549.7256691237926
 20
-314.0809374166893
 30
0.0
 10
526.8113563704228
 20
-316.8963994461374
 30
0.0
 10
503.8709494789964
 20
-319.1904560463408
 30
0.0
 10
446.3634469774242
 20
-324.9776267123507
 30
0.0
 10
388.6473504820333
 20
-325.9682492947377
 30
0.0
 10
330.9053189591887
 20
-324.5345036972612
 30
0.0
 10
287.761525681035
 20
-323.4657578113165
 30
0.0
 10
244.6700797895828
 20
-321.2237303766196
 30
0.0
 10
202.0737860787267
 20
-313.8464083954168
 30
0.0
 10
189.66506877143
 20
-311.7087575129299
 30
0.0
 10
177.4649454579539
 20
-308.1893901984695
 30
0.0
 10
165.4212278621926
 20
-304.5398704149466
 30
0.0
 10
157.9656234668346
 20
-302.2978429802497
 30
0.0
 10
157.8614060252239
 20
-301.229097094305
 30
0.0
 10
158.4609347580281
 20
-293.4606812635193
 30
0.0
 10
159.0604634908304
 20
-285.7964828743443
 30
0.0
 10
159.7382746377898
 20
-278.1322844851675
 30
0.0
 10
160.3638975086451
 20
-270.5462093995484
 30
0.0
 10
160.9895203795022
 20
-270.4158978198866
 30
0.0
 10
161.3545200910321
 20
-270.2073038260696
 30
0.0
 10
161.5631140848509
 20
-270.2855862402266
 30
0.0
 10
186.1458605675689
 20
-281.4428986952116
 30
0.0
 10
212.5012582212457
 20
-285.301171583149
 30
0.0
 10
238.9088441510248
 20
-288.7683506215035
 30
0.0
 10
309.8156865422789
 20
-298.0747294913781
 30
0.0
 10
380.9831520928583
 20
-299.221757791478
 30
0.0
 10
452.2289000575893
 20
-294.0602099963235
 30
0.0
 10
492.6353546098544
 20
-291.1405305252647
 30
0.0
 10
532.6507153125349
 20
-285.4053890247596
 30
0.0
 10
571.7537358469854
 20
-274.3522940113835
 30
0.0
 10
575.9768493358606
 20
-273.1791715732325
 30
0.0
 10
580.0696512450704
 20
-271.4587086783795
 30
0.0
 10
584.8924525773436
 20
-269.7641808109802
 30
0.0
 10
585.7005753039666
 20
-279.800718214512
 30
0.0
 10
586.5607271960944
 20
-289.3678793543077
 30
0.0
 10
587.1082267633938
 20
-298.9611346321544
 30
0.0
 10
587.1604150394924
 20
-300.0298805180992
 30
0.0
 10
585.7786986075225
 20
-301.6983142474473
 30
0.0
 10
584.6316703074226
 20
-302.2197196766938
 30
0.0
  0
ENDBLK
  5
62
330
5F
100
AcDbEntity
  8
0
100
AcDbBlockEnd
  0
ENDSEC
  0
SECTION
  2
ENTITIES
  0
INSERT
  5
42
330
1F
100
AcDbEntity
  8
Layer 1
100
AcDbBlockReference
  2
block 2
 10
0.0
 20
0.0
 30
0.0
  0
ENDSEC
  0
SECTION
  2
OBJECTS
  0
DICTIONARY
  5
C
330
0
100
AcDbDictionary
281
     1
  3
ACAD_GROUP
350
D
  3
ACAD_LAYOUT
350
1A
  3
ACAD_MATERIAL
350
3B
  3
ACAD_MLEADERSTYLE
350
69
  3
ACAD_MLINESTYLE
350
17
  3
ACAD_PLOTSETTINGS
350
19
  3
ACAD_PLOTSTYLENAME
350
E
  3
ACAD_TABLESTYLE
350
68
  3
ACAD_VISUALSTYLE
350
2A
  0
SUN
  5
3F
330
29
100
AcDbSun
 90
        1
290
     0
 63
     7
421
 16777215
 40
1.0
291
     1
 91
  2455826
 92
 54000000
292
     0
 70
     2
 71
   256
280
     1
  0
DICTIONARY
  5
D
102
{ACAD_REACTORS
330
C
102
}
330
C
100
AcDbDictionary
281
     1
  0
DICTIONARY
  5
1A
102
{ACAD_REACTORS
330
C
102
}
330
C
100
AcDbDictionary
281
     1
  3
Layout1
350
1E
  3
Layout2
350
26
  3
Model
350
22
  0
DICTIONARY
  5
3B
102
{ACAD_REACTORS
330
C
102
}
330
C
100
AcDbDictionary
281
     1
  3
ByBlock
350
3D
  3
ByLayer
350
3C
  3
Global
350
3E
  0
DICTIONARY
  5
69
102
{ACAD_REACTORS
330
C
102
}
330
C
100
AcDbDictionary
281
     1
  0
DICTIONARY
  5
17
102
{ACAD_REACTORS
330
C
102
}
330
C
100
AcDbDictionary
281
     1
  3
Standard
350
18
  0
DICTIONARY
  5
19
102
{ACAD_REACTORS
330
C
102
}
330
C
100
AcDbDictionary
281
     1
  0
ACDBDICTIONARYWDFLT
  5
E
102
{ACAD_REACTORS
330
C
102
}
330
C
100
AcDbDictionary
281
     1
  3
Normal
350
F
100
AcDbDictionaryWithDefault
340
F
  0
DICTIONARY
  5
68
102
{ACAD_REACTORS
330
C
102
}
330
C
100
AcDbDictionary
281
     1
  0
DICTIONARY
  5
2A
102
{ACAD_REACTORS
330
C
102
}
330
C
100
AcDbDictionary
281
     1
  3
2dWireframe
350
2F
  3
3D Hidden
350
31
  3
3dWireframe
350
30
  3
Basic
350
32
  3
Brighten
350
36
  3
ColorChange
350
3A
  3
Conceptual
350
34
  3
Dim
350
35
  3
Facepattern
350
39
  3
Flat
350
2B
  3
FlatWithEdges
350
2C
  3
Gouraud
350
2D
  3
GouraudWithEdges
350
2E
  3
Linepattern
350
38
  3
Realistic
350
33
  3
Thicken
350
37
  0
LAYOUT
  5
1E
102
{ACAD_REACTORS
330
1A
102
}
330
1A
100
AcDbPlotSettings
  1

  2
none_device
  4

  6

 40
0.0
 41
0.0
 42
0.0
 43
0.0
 44
0.0
 45
0.0
 46
0.0
 47
0.0
 48
0.0
 49
0.0
140
0.0
141
0.0
142
1.0
143
1.0
 70
   688
 72
     0
 73
     0
 74
     5
  7

 75
    16
 76
     0
 77
     2
 78
   300
147
1.0
148
0.0
149
0.0
100
AcDbLayout
  1
Layout1
 70
     1
 71
     1
 10
0.0
 20
0.0
 11
12.0
 21
9.0
 12
0.0
 22
0.0
 32
0.0
 14
1.000000000000000E+20
 24
1.000000000000000E+20
 34
1.000000000000000E+20
 15
-1.000000000000000E+20
 25
-1.000000000000000E+20
 35
-1.000000000000000E+20
146
0.0
 13
0.0
 23
0.0
 33
0.0
 16
1.0
 26
0.0
 36
0.0
 17
0.0
 27
1.0
 37
0.0
 76
     0
330
1B
  0
LAYOUT
  5
26
102
{ACAD_REACTORS
330
1A
102
}
330
1A
100
AcDbPlotSettings
  1

  2
none_device
  4

  6

 40
0.0
 41
0.0
 42
0.0
 43
0.0
 44
0.0
 45
0.0
 46
0.0
 47
0.0
 48
0.0
 49
0.0
140
0.0
141
0.0
142
1.0
143
1.0
 70
   688
 72
     0
 73
     0
 74
     5
  7

 75
    16
 76
     0
 77
     2
 78
   300
147
1.0
148
0.0
149
0.0
100
AcDbLayout
  1
Layout2
 70
     1
 71
     2
 10
0.0
 20
0.0
 11
0.0
 21
0.0
 12
0.0
 22
0.0
 32
0.0
 14
0.0
 24
0.0
 34
0.0
 15
0.0
 25
0.0
 35
0.0
146
0.0
 13
0.0
 23
0.0
 33
0.0
 16
1.0
 26
0.0
 36
0.0
 17
0.0
 27
1.0
 37
0.0
 76
     0
330
23
  0
LAYOUT
  5
22
102
{ACAD_REACTORS
330
1A
102
}
330
1A
100
AcDbPlotSettings
  1

  2
none_device
  4

  6

 40
0.0
 41
0.0
 42
0.0
 43
0.0
 44
0.0
 45
0.0
 46
0.0
 47
0.0
 48
0.0
 49
0.0
140
0.0
141
0.0
142
1.0
143
1.0
 70
  1712
 72
     0
 73
     0
 74
     0
  7

 75
     0
 76
     0
 77
     2
 78
   300
147
1.0
148
0.0
149
0.0
100
AcDbLayout
  1
Model
 70
     1
 71
     0
 10
0.0
 20
0.0
 11
12.0
 21
9.0
 12
0.0
 22
0.0
 32
0.0
 14
1.000000000000000E+20
 24
1.000000000000000E+20
 34
1.000000000000000E+20
 15
-1.000000000000000E+20
 25
-1.000000000000000E+20
 35
-1.000000000000000E+20
146
0.0
 13
0.0
 23
0.0
 33
0.0
 16
1.0
 26
0.0
 36
0.0
 17
0.0
 27
1.0
 37
0.0
 76
     0
330
1F
331
29
  0
MATERIAL
  5
3D
102
{ACAD_REACTORS
330
3B
102
}
330
3B
100
AcDbMaterial
  1
ByBlock
 72
     1
 94
      127
  0
MATERIAL
  5
3C
102
{ACAD_REACTORS
330
3B
102
}
330
3B
100
AcDbMaterial
  1
ByLayer
 72
     1
 94
      127
  0
MATERIAL
  5
3E
102
{ACAD_REACTORS
330
3B
102
}
330
3B
100
AcDbMaterial
  1
Global
 72
     1
 94
      127
  0
MLINESTYLE
  5
18
102
{ACAD_REACTORS
330
17
102
}
330
17
100
AcDbMlineStyle
  2
Standard
 70
     0
  3

 62
   256
 51
90.0
 52
90.0
 71
     2
 49
0.5
 62
   256
  6
BYLAYER
 49
-0.5
 62
   256
  6
BYLAYER
  0
ACDBPLACEHOLDER
  5
F
102
{ACAD_REACTORS
330
E
102
}
330
E
  0
VISUALSTYLE
  5
2F
102
{ACAD_REACTORS
330
2A
102
}
330
2A
100
AcDbVisualStyle
  2
2dWireframe
 70
     4
177
     2
291
     0
 71
     0
176
     1
 72
     2
176
     1
 73
     0
176
     1
 90
        0
176
     1
 40
-0.6
176
     1
 41
-30.0
176
     1
 62
     5
 63
     7
421
 16777215
176
     1
 74
     1
176
     1
 91
        4
176
     1
 64
     7
176
     1
 65
   257
176
     1
 75
     1
176
     1
175
     1
176
     1
 42
1.0
176
     1
 92
        0
176
     1
 66
   257
176
     1
 43
1.0
176
     1
 76
     1
176
     1
 77
     6
176
     1
 78
     2
176
     1
 67
     7
176
     1
 79
     5
176
     1
170
     0
176
     1
171
     0
176
     1
290
     0
176
     1
 93
        1
176
     1
 44
0.0
176
     1
173
     0
176
     1
  0
VISUALSTYLE
  5
31
102
{ACAD_REACTORS
330
2A
102
}
330
2A
100
AcDbVisualStyle
  2
3D Hidden
 70
     6
177
     2
291
     0
 71
     1
176
     1
 72
     2
176
     1
 73
     2
176
     1
 90
        0
176
     1
 40
-0.6
176
     1
 41
-30.0
176
     1
 62
     5
 63
     7
421
 16777215
176
     1
 74
     2
176
     1
 91
        2
176
     1
 64
     7
176
     1
 65
   257
176
     1
 75
     2
176
     1
175
     1
176
     1
 42
40.0
176
     1
 92
        0
176
     1
 66
   257
176
     1
 43
1.0
176
     1
 76
     1
176
     1
 77
     6
176
     1
 78
     2
176
     1
 67
     7
176
     1
 79
     3
176
     1
170
     0
176
     1
171
     0
176
     1
290
     0
176
     1
 93
        1
176
     1
 44
0.0
176
     1
173
     0
176
     1
  0
VISUALSTYLE
  5
30
102
{ACAD_REACTORS
330
2A
102
}
330
2A
100
AcDbVisualStyle
  2
3dWireframe
 70
     5
177
     2
291
     0
 71
     0
176
     1
 72
     2
176
     1
 73
     0
176
     1
 90
        0
176
     1
 40
-0.6
176
     1
 41
-30.0
176
     1
 62
     5
 63
     7
421
 16777215
176
     1
 74
     1
176
     1
 91
        4
176
     1
 64
     7
176
     1
 65
   257
176
     1
 75
     1
176
     1
175
     1
176
     1
 42
1.0
176
     1
 92
        0
176
     1
 66
   257
176
     1
 43
1.0
176
     1
 76
     1
176
     1
 77
     6
176
     1
 78
     2
176
     1
 67
     7
176
     1
 79
     5
176
     1
170
     0
176
     1
171
     0
176
     1
290
     0
176
     1
 93
        1
176
     1
 44
0.0
176
     1
173
     0
176
     1
  0
VISUALSTYLE
  5
32
102
{ACAD_REACTORS
330
2A
102
}
330
2A
100
AcDbVisualStyle
  2
Basic
 70
     7
177
     2
291
     1
 71
     1
176
     1
 72
     0
176
     1
 73
     1
176
     1
 90
        0
176
     1
 40
-0.6
176
     1
 41
-30.0
176
     1
 62
     5
 63
     7
421
 16777215
176
     1
 74
     0
176
     1
 91
        4
176
     1
 64
     7
176
     1
 65
   257
176
     1
 75
     1
176
     1
175
     1
176
     1
 42
1.0
176
     1
 92
        8
176
     1
 66
     7
176
     1
 43
1.0
176
     1
 76
     1
176
     1
 77
     6
176
     1
 78
     2
176
     1
 67
     7
176
     1
 79
     5
176
     1
170
     0
176
     1
171
     0
176
     1
290
     0
176
     1
 93
        1
176
     1
 44
0.0
176
     1
173
     0
176
     1
  0
VISUALSTYLE
  5
36
102
{ACAD_REACTORS
330
2A
102
}
330
2A
100
AcDbVisualStyle
  2
Brighten
 70
    12
177
     2
291
     1
 71
     2
176
     1
 72
     2
176
     1
 73
     0
176
     1
 90
        0
176
     1
 40
-0.6
176
     1
 41
-30.0
176
     1
 62
     5
 63
     7
421
 16777215
176
     1
 74
     1
176
     1
 91
        4
176
     1
 64
     7
176
     1
 65
   257
176
     1
 75
     1
176
     1
175
     1
176
     1
 42
1.0
176
     1
 92
        8
176
     1
 66
     7
176
     1
 43
1.0
176
     1
 76
     1
176
     1
 77
     6
176
     1
 78
     2
176
     1
 67
     7
176
     1
 79
     5
176
     1
170
     0
176
     1
171
     0
176
     1
290
     0
176
     1
 93
        1
176
     1
 44
50.0
176
     1
173
     0
176
     1
  0
VISUALSTYLE
  5
3A
102
{ACAD_REACTORS
330
2A
102
}
330
2A
100
AcDbVisualStyle
  2
ColorChange
 70
    16
177
     2
291
     1
 71
     2
176
     1
 72
     2
176
     1
 73
     3
176
     1
 90
        0
176
     1
 40
-0.6
176
     1
 41
-30.0
176
     1
 62
     5
 63
     8
421
  8421504
176
     1
 74
     1
176
     1
 91
        4
176
     1
 64
     7
176
     1
 65
   257
176
     1
 75
     1
176
     1
175
     1
176
     1
 42
1.0
176
     1
 92
        8
176
     1
 66
     8
424
  8421504
176
     1
 43
1.0
176
     1
 76
     1
176
     1
 77
     6
176
     1
 78
     2
176
     1
 67
     7
176
     1
 79
     5
176
     1
170
     0
176
     1
171
     0
176
     1
290
     0
176
     1
 93
        1
176
     1
 44
0.0
176
     1
173
     0
176
     1
  0
VISUALSTYLE
  5
34
102
{ACAD_REACTORS
330
2A
102
}
330
2A
100
AcDbVisualStyle
  2
Conceptual
 70
     9
177
     2
291
     0
 71
     3
176
     1
 72
     2
176
     1
 73
     0
176
     1
 90
        0
176
     1
 40
-0.6
176
     1
 41
-30.0
176
     1
 62
     5
 63
     7
421
 16777215
176
     1
 74
     2
176
     1
 91
        2
176
     1
 64
     7
176
     1
 65
   257
176
     1
 75
     1
176
     1
175
     1
176
     1
 42
40.0
176
     1
 92
        8
176
     1
 66
     7
176
     1
 43
1.0
176
     1
 76
     1
176
     1
 77
     6
176
     1
 78
     2
176
     1
 67
     7
176
     1
 79
     3
176
     1
170
     0
176
     1
171
     0
176
     1
290
     0
176
     1
 93
        1
176
     1
 44
0.0
176
     1
173
     0
176
     1
  0
VISUALSTYLE
  5
35
102
{ACAD_REACTORS
330
2A
102
}
330
2A
100
AcDbVisualStyle
  2
Dim
 70
    11
177
     2
291
     1
 71
     2
176
     1
 72
     2
176
     1
 73
     0
176
     1
 90
        0
176
     1
 40
-0.6
176
     1
 41
-30.0
176
     1
 62
     5
 63
     7
421
 16777215
176
     1
 74
     1
176
     1
 91
        4
176
     1
 64
     7
176
     1
 65
   257
176
     1
 75
     1
176
     1
175
     1
176
     1
 42
1.0
176
     1
 92
        8
176
     1
 66
     7
176
     1
 43
1.0
176
     1
 76
     1
176
     1
 77
     6
176
     1
 78
     2
176
     1
 67
     7
176
     1
 79
     5
176
     1
170
     0
176
     1
171
     0
176
     1
290
     0
176
     1
 93
        1
176
     1
 44
-50.0
176
     1
173
     0
176
     1
  0
VISUALSTYLE
  5
39
102
{ACAD_REACTORS
330
2A
102
}
330
2A
100
AcDbVisualStyle
  2
Facepattern
 70
    15
177
     2
291
     1
 71
     2
176
     1
 72
     2
176
     1
 73
     0
176
     1
 90
        0
176
     1
 40
-0.6
176
     1
 41
-30.0
176
     1
 62
     5
 63
     7
421
 16777215
176
     1
 74
     1
176
     1
 91
        4
176
     1
 64
     7
176
     1
 65
   257
176
     1
 75
     1
176
     1
175
     1
176
     1
 42
1.0
176
     1
 92
        8
176
     1
 66
     7
176
     1
 43
1.0
176
     1
 76
     1
176
     1
 77
     6
176
     1
 78
     2
176
     1
 67
     7
176
     1
 79
     5
176
     1
170
     0
176
     1
171
     0
176
     1
290
     0
176
     1
 93
        1
176
     1
 44
0.0
176
     1
173
     0
176
     1
  0
VISUALSTYLE
  5
2B
102
{ACAD_REACTORS
330
2A
102
}
330
2A
100
AcDbVisualStyle
  2
Flat
 70
     0
177
     2
291
     1
 71
     2
176
     1
 72
     1
176
     1
 73
     1
176
     1
 90
        2
176
     1
 40
-0.6
176
     1
 41
30.0
176
     1
 62
     5
 63
     7
421
 16777215
176
     1
 74
     0
176
     1
 91
        4
176
     1
 64
     7
176
     1
 65
   257
176
     1
 75
     1
176
     1
175
     1
176
     1
 42
1.0
176
     1
 92
        8
176
     1
 66
     7
176
     1
 43
1.0
176
     1
 76
     1
176
     1
 77
     6
176
     1
 78
     2
176
     1
 67
     7
176
     1
 79
     5
176
     1
170
     0
176
     1
171
     0
176
     1
290
     0
176
     1
 93
       13
176
     1
 44
0.0
176
     1
173
     0
176
     1
  0
VISUALSTYLE
  5
2C
102
{ACAD_REACTORS
330
2A
102
}
330
2A
100
AcDbVisualStyle
  2
FlatWithEdges
 70
     1
177
     2
291
     1
 71
     2
176
     1
 72
     1
176
     1
 73
     1
176
     1
 90
        2
176
     1
 40
-0.6
176
     1
 41
30.0
176
     1
 62
     5
 63
     7
421
 16777215
176
     1
 74
     1
176
     1
 91
        4
176
     1
 64
     7
176
     1
 65
   257
176
     1
 75
     1
176
     1
175
     1
176
     1
 42
1.0
176
     1
 92
        0
176
     1
 66
   257
176
     1
 43
1.0
176
     1
 76
     1
176
     1
 77
     6
176
     1
 78
     2
176
     1
 67
     7
176
     1
 79
     5
176
     1
170
     0
176
     1
171
     0
176
     1
290
     0
176
     1
 93
       13
176
     1
 44
0.0
176
     1
173
     0
176
     1
  0
VISUALSTYLE
  5
2D
102
{ACAD_REACTORS
330
2A
102
}
330
2A
100
AcDbVisualStyle
  2
Gouraud
 70
     2
177
     2
291
     1
 71
     2
176
     1
 72
     2
176
     1
 73
     1
176
     1
 90
        2
176
     1
 40
-0.6
176
     1
 41
30.0
176
     1
 62
     5
 63
     7
421
 16777215
176
     1
 74
     0
176
     1
 91
        4
176
     1
 64
     7
176
     1
 65
   257
176
     1
 75
     1
176
     1
175
     1
176
     1
 42
1.0
176
     1
 92
        0
176
     1
 66
     7
176
     1
 43
1.0
176
     1
 76
     1
176
     1
 77
     6
176
     1
 78
     2
176
     1
 67
     7
176
     1
 79
     5
176
     1
170
     0
176
     1
171
     0
176
     1
290
     0
176
     1
 93
       13
176
     1
 44
0.0
176
     1
173
     0
176
     1
  0
VISUALSTYLE
  5
2E
102
{ACAD_REACTORS
330
2A
102
}
330
2A
100
AcDbVisualStyle
  2
GouraudWithEdges
 70
     3
177
     2
291
     1
 71
     2
176
     1
 72
     2
176
     1
 73
     1
176
     1
 90
        2
176
     1
 40
-0.6
176
     1
 41
30.0
176
     1
 62
     5
 63
     7
421
 16777215
176
     1
 74
     1
176
     1
 91
        4
176
     1
 64
     7
176
     1
 65
   257
176
     1
 75
     1
176
     1
175
     1
176
     1
 42
1.0
176
     1
 92
        0
176
     1
 66
   257
176
     1
 43
1.0
176
     1
 76
     1
176
     1
 77
     6
176
     1
 78
     2
176
     1
 67
     7
176
     1
 79
     5
176
     1
170
     0
176
     1
171
     0
176
     1
290
     0
176
     1
 93
       13
176
     1
 44
0.0
176
     1
173
     0
176
     1
  0
VISUALSTYLE
  5
38
102
{ACAD_REACTORS
330
2A
102
}
330
2A
100
AcDbVisualStyle
  2
Linepattern
 70
    14
177
     2
291
     1
 71
     2
176
     1
 72
     2
176
     1
 73
     0
176
     1
 90
        0
176
     1
 40
-0.6
176
     1
 41
-30.0
176
     1
 62
     5
 63
     7
421
 16777215
176
     1
 74
     1
176
     1
 91
        4
176
     1
 64
     7
176
     1
 65
   257
176
     1
 75
     7
176
     1
175
     7
176
     1
 42
1.0
176
     1
 92
        8
176
     1
 66
     7
176
     1
 43
1.0
176
     1
 76
     1
176
     1
 77
     6
176
     1
 78
     2
176
     1
 67
     7
176
     1
 79
     5
176
     1
170
     0
176
     1
171
     0
176
     1
290
     0
176
     1
 93
        1
176
     1
 44
0.0
176
     1
173
     0
176
     1
  0
VISUALSTYLE
  5
33
102
{ACAD_REACTORS
330
2A
102
}
330
2A
100
AcDbVisualStyle
  2
Realistic
 70
     8
177
     2
291
     0
 71
     2
176
     1
 72
     2
176
     1
 73
     0
176
     1
 90
        0
176
     1
 40
-0.6
176
     1
 41
-30.0
176
     1
 62
     5
 63
     7
421
 16777215
176
     1
 74
     1
176
     1
 91
        0
176
     1
 64
     7
176
     1
 65
   257
176
     1
 75
     1
176
     1
175
     1
176
     1
 42
1.0
176
     1
 92
        8
176
     1
 66
     8
424
  7895160
176
     1
 43
1.0
176
     1
 76
     1
176
     1
 77
     6
176
     1
 78
     2
176
     1
 67
     7
176
     1
 79
     5
176
     1
170
     0
176
     1
171
     0
176
     1
290
     0
176
     1
 93
       13
176
     1
 44
0.0
176
     1
173
     0
176
     1
  0
VISUALSTYLE
  5
37
102
{ACAD_REACTORS
330
2A
102
}
330
2A
100
AcDbVisualStyle
  2
Thicken
 70
    13
177
     2
291
     1
 71
     2
176
     1
 72
     2
176
     1
 73
     0
176
     1
 90
        0
176
     1
 40
-0.6
176
     1
 41
-30.0
176
     1
 62
     5
 63
     7
421
 16777215
176
     1
 74
     1
176
     1
 91
        4
176
     1
 64
     7
176
     1
 65
   257
176
     1
 75
     1
176
     1
175
     1
176
     1
 42
1.0
176
     1
 92
       12
176
     1
 66
     7
176
     1
 43
1.0
176
     1
 76
     1
176
     1
 77
     6
176
     1
 78
     2
176
     1
 67
     7
176
     1
 79
     5
176
     1
170
     0
176
     1
171
     0
176
     1
290
     0
176
     1
 93
        1
176
     1
 44
0.0
176
     1
173
     0
176
     1
  0
ENDSEC
  0
EOF
