<?xml version="1.0" encoding="utf-8"?>
<!-- Generator: Adobe Illustrator 22.0.0, SVG Export Plug-In . SVG Version: 6.00 Build 0)  -->
<svg version="1.1" id="Layer_1" xmlns="http://www.w3.org/2000/svg" xmlns:xlink="http://www.w3.org/1999/xlink" x="0px" y="0px"
	 viewBox="0 0 1080 1080" style="enable-background:new 0 0 1080 1080;" xml:space="preserve">
<style type="text/css">
	.st0{fill:#08CCDA;}
</style>
<g>
	<g>
		<g>
			<path class="st0" d="M375.8,379.7c-82.7,4.1-129.3,283.9-46,284.6c37.3,1.4,70.2-36.3,77.8-70.9c0.7-2.8,6.6-2.1,5.9,1.4
				c-8,37.3-43.6,77.1-83.7,75.4c-124.8-0.3-74-300.5,45.6-296.4c57.1,0,25.6,99.6-11.8,121.7c-2.8,1.7-5.5-3.8-3.1-5.2
				C394.4,470,423.1,380.1,375.8,379.7z"/>
			<path class="st0" d="M561.8,604.5c-5.2,24.2-24.2,38.7-49.8,36.7c-7.3,14.9-20.1,28-37.7,28c-65-0.3-64.3-107.2-23.2-125.9
				c11.1-25.9,46-27.7,61.6-1.7c11.4,18.7,12.5,47,9.7,65.7c-1.4,10-4.1,19.7-7.6,28.4c21.8,0.7,36.3-12.1,41.2-31.8
				C556.3,601.8,562.5,602.4,561.8,604.5z M473.6,663c14.5,0.3,25.9-10.7,32.2-22.5c-27.3-5.2-46.3-28.7-54.3-53.6
				C445.6,615.2,453.6,663,473.6,663z M454.9,576.2c5.2,26.3,24.6,54.3,53.6,58.8c3.8-8.3,6.2-18.3,8-28.4
				c2.1-16.3,1.7-42.2-7.3-59.5c-11.8-21.8-39.1-24.2-50.5-5.9c11.8,0.3,16.6,15.9,1.4,27.7C458.1,570.6,456.3,573.1,454.9,576.2z"
				/>
			<path class="st0" d="M587,676.8c58.8,34.2,73,129.7,27.3,136.6c-69.9,10-58.8-184.7-58.4-232c0.7-77.8,11.1-181.2,69.2-181.2
				c49.1,0,21.1,133.1-36.3,139c-0.7,12.5-1.4,25.2-1.7,38.4c-1,31.1-0.3,61.9,0,93.4c31.8-0.3,50.1-39.1,57.1-67.1v-1.4
				c0.7-77.8,11.1-181.2,68.8-181.2c49.1,0,21.4,133.1-36.3,139c-0.7,12.4-1.4,25.2-1.7,38.4c-1,31.1,0,40.8,0,72.3
				c32.2-0.3,50.5-39.4,57.1-67.1c0.7-2.1,6.6-1.4,5.9,0.7c-6.9,30.4-27.3,71.9-62.9,72.3c59.1,34.2,73.3,117.6,27.3,124.5
				c-60.9,9-60.2-113.1-58.8-175.7C633.4,651.2,614.7,676.5,587,676.8z M614.7,806.8c31.8,1.4,32.5-86.1-27.7-122.8
				C587,708.3,582.5,805.8,614.7,806.8z M589.1,532.9c51.2-6.6,74.4-126.6,36-126.6C599.1,406.4,594,457.5,589.1,532.9z
				 M702.9,794.7c31.5,1.4,32.2-74-28-110.7C674.9,708.3,670.4,793.7,702.9,794.7z M677,554c51.5-6.6,74.4-126.6,36-126.6
				C687,427.5,681.8,478.6,677,554z"/>
			<path class="st0" d="M834.6,604.5c-5.9,25.9-28,64.7-57.1,64.7c-71.6-0.7-51.9-131.1,3.1-128.3c32.9,1.7,18.3,58.4-21.1,65.7
				c-1.7,28.7,2.4,56.4,18,56.4c26.3,0.3,45.6-37,51.2-59.1C829.1,601.8,835,602.4,834.6,604.5z M781.7,546.8
				c-15.6,0-20.8,42.9-21.8,53.6C794.2,592.4,801.4,546.8,781.7,546.8z"/>
			<path class="st0" d="M931.5,604.5c-5.9,25.9-28,64.7-57.1,64.7c-71.6-0.7-51.9-131.1,3.1-128.3c32.9,1.7,18.3,58.4-21.1,65.7
				c-1.7,28.7,2.4,56.4,18,56.4c26.3,0.3,45.6-37,51.2-59.1C925.9,601.8,931.8,602.4,931.5,604.5z M878.6,546.8
				c-15.6,0-20.7,42.9-21.8,53.6C891,592.4,898.3,546.8,878.6,546.8z"/>
		</g>
	</g>
	<g>
		<g>
			<path class="st0" d="M596.6,296.8c-1.3-12.6-2.3-25.2-3.1-37.8c-0.3-4.2-2-7.7-5.5-9.7c-4.6-2.6-9.5-4.8-14.5-6.8
				c-2.6-1-3.6-2.2-3.6-5.1c0.2-13.8,0-27.7,0.1-41.5c0.1-4.2-1.2-7.5-4.8-9.3c-4-2-8.2-4-12.5-4.7c-19.9-3.3-39.8-6.5-59.7-8.9
				c-13.4-1.6-26.9-2.2-40.4-2.8c-58.2-2.5-116.3-3.1-174.4,1.2c-19.2,1.4-38.5,2.9-57.6,5.1c-10.4,1.2-20.7,3.6-30.9,6.1
				c-12.5,3.1-14.4,6-14.4,18.5c0,12.2-0.1,24.4,0,36.6c0,2.6-0.7,3.9-3.4,4.8c-4.4,1.4-8.6,3.2-12.7,5.4c-4.6,2.4-7.2,6.2-7.5,11.8
				c-0.8,12.1-1.7,24.3-3.2,36.4c-0.9,7.4,2.3,12,8.5,15.1c4,2,8.3,3.2,12.3,5.2c1.4,0.7,2.9,2.5,3.1,3.9
				c2.1,16.8,3.8,33.7,5.8,50.5c5.9,50.2,11.8,100.4,17.6,150.7c2,17.1,3.5,34.3,5.5,51.4c5,44.7,10.1,89.3,15.3,133.9
				c5.6,48.5,11.1,96.9,16.7,145.4c1.6,13.6,7.9,24.5,20.2,30.7c10.9,5.6,22.2,10.8,33.7,14.9c27.6,9.8,56.3,13.4,85.6,14
				c10.7-0.8,21.4-1.2,32-2.3c30.8-3.3,60-11.7,87.2-26.7c11.6-6.4,18.1-16.6,19.7-29.7c6-51.9,11.9-103.7,17.8-155.6
				c1.7-14.7,3.4-29.4,5.1-44.1c-3.1,0.9-6.3,1.5-9.7,1.9c-2.6,22.6-5.2,45.3-7.8,67.9c-0.2,1.7-2.2,3.8-3.9,4.5
				c-20.4,9-42,13.8-63.9,17.6c-27,4.6-54.3,6.2-81.6,5.9c-43.6-0.6-86.6-5.2-127.9-20.2c-11.6-4.2-11.4-4.3-12.8-16.7
				c-4.3-37.8-8.7-75.7-13-113.5c-2.5-22-5-44-7.5-66c-1.1-10-2.3-20-3.5-30.3c15,2.7,29.9,5,44.8,6.9c6.1-32.9,17.8-64.7,33.1-89.9
				c25.1-41.1,58.7-63,94.6-61.9c21.8,0.1,37.5,11.8,43.1,32.1c9.9,36-15.1,96.8-47.7,116.2c-5.1,3.1-11.2,3.2-16.4,0.3
				c-5.6-3.1-9.3-9.3-9.4-15.8c-0.1-6,2.9-11.3,8-14.3c19.2-11.6,37.8-56.1,32.1-76.8c-1.4-5.2-3.8-7.1-9.3-7.2
				c-28,1.9-57.7,58.6-70,123.1c50.1,3.5,100.1,3,150.2-1.4c6.4-4,13.8-6.5,21.8-7.1c6.6-0.4,13.1,0.5,19.1,2.6c0,0,0,0,0,0
				c15-1.9,29.9-4.2,44.9-6.8c-1.6,14.1-3.1,27.9-4.7,41.8c-0.6,5.5-1.3,11-1.9,16.5c3.2,16.2,2.9,33.2,1,46.6
				c-0.2,1.2-0.3,2.4-0.5,3.6c1.7-2.1,3-4.4,4-6.7c3.1-27.2,6.2-54.4,9.4-81.6c7.7-67.8,15.5-135.7,23.1-203.5
				c0.3-3,1.5-4.3,4.2-5.3c4.6-1.7,9.1-3.6,13.4-5.9C595.1,307.1,597.2,302.7,596.6,296.8z M205.6,188.4c17-2.5,34-5.4,51.2-6.6
				c45.6-3.4,91.4-4.5,137.2-3.7c19.3,0.3,38.7,0.9,58,1.8c18.1,0.8,36.2,1.7,54.1,3.6c14.7,1.6,29.2,4.7,43.8,7.3
				c2.8,0.5,5.5,1.8,8.3,2.7c0.1,0.5,0.1,1,0.1,1.5c-7.4,1.8-14.7,4.2-22.2,5.3c-15.2,2.2-30.5,4.3-45.8,5.5
				c-19.3,1.6-38.6,2.6-57.9,3.3c-54.1,1.9-108.3,1.7-162.4-2.3c-22.5-1.7-45-4.8-67.5-7.7c-5.3-0.7-10.4-2.9-15.6-4.4
				c0-0.6,0-1.1-0.1-1.7C193.1,191.5,199.3,189.3,205.6,188.4z M184.6,205.9c0-0.5,0.3-1.1,0.4-1.3c57.4,13.4,115.7,13.9,174,14.8
				c41.8,0.6,83.6-0.2,125.3-3.8c21.2-1.9,42.2-5.2,63.2-8.1c4.1-0.5,8-2.1,12.5-3.4c0.2,1.1,0.7,2.1,0.7,3.2
				c0,11.3-0.2,22.6,0,33.9c0,3.1-1.4,4.9-4,5.7c-9.5,2.8-18.9,6.3-28.7,8.1c-56,9.9-112.7,11.1-169.5,10.8
				c-43.8-0.3-87.5-2.2-130.8-8.9c-12.3-1.9-24.3-5.6-36.4-8.6c-4.8-1.2-7.1-4.1-6.8-9.7C185.1,227.6,184.6,216.7,184.6,205.9z
				 M584.6,302.2c-4.1,2-8.3,4-12.7,5.3c-22.2,6.5-45.1,9.4-68.1,11.7c-57.5,5.8-115.2,6.8-173,5.3c-43.1-1.1-86.2-3.3-128.8-10.7
				c-12.4-2.1-24.6-5.7-36.7-9.3c-7.5-2.2-7.6-3.3-7-11.1c0.6-7.7,1.3-15.3,1.9-22.9c0.6-0.1,1-0.3,1.2-0.3
				c24.6,11.2,50.9,15,77.3,18.5c70.9,9.3,142.1,10.5,213.3,5.3c40.4-2.9,80.4-8.7,119.5-19.7c4.2-1.2,8.3-2.9,13.1-4.6
				c0.8,10,1.7,19.6,2.2,29.2C587.2,300,585.8,301.7,584.6,302.2z"/>
		</g>
	</g>
</g>
</svg>
