<?xml version="1.0" encoding="utf-8"?>
<!-- Generator: Adobe Illustrator 22.0.0, SVG Export Plug-In . SVG Version: 6.00 Build 0)  -->
<svg version="1.1" id="Layer_1" xmlns="http://www.w3.org/2000/svg" xmlns:xlink="http://www.w3.org/1999/xlink" x="0px" y="0px"
	 viewBox="0 0 1080 1080" style="enable-background:new 0 0 1080 1080;" xml:space="preserve">
<style type="text/css">
	.st0{fill:#08CCDA;}
	.st1{fill:#FD2B7B;}
	.st2{fill:#CE0100;}
</style>
<g>
	<g>
		<g>
			<path class="st0" d="M427.2,524.3v-0.5c0-2.9-0.1-5.7-0.2-8.4c-0.1-2.7-0.3-5.4-0.5-8c-0.2-2.6-0.3-5.3-0.4-8
				c-0.1-2.7-0.1-5.4,0-8.3l-7.1,3.6h-22.5c-0.4,0-1-0.3-1.7-0.9c-0.7-0.6-1.4-1.3-2.2-2.2c-0.7-0.8-1.4-1.7-2-2.7
				c-0.6-1-1-1.8-1.3-2.5v-0.5c0-1,0-2.3,0-4c0-1.7,0.1-3.4,0.2-5.3c0.1-1.9,0.4-3.8,0.8-5.7c0.4-1.9,0.9-3.7,1.6-5.3
				c0.7-1.6,1.6-2.9,2.8-3.9c1.1-1,2.5-1.5,4.2-1.5c1.3,0,2.7,0.2,4,0.7c1.3,0.5,2.7,0.7,4.2,0.7c0.6,0,1.1-0.1,1.4-0.2
				c0.4-0.1,0.7-0.5,0.9-1.1h28.3c0.2,0.2,0.4,0.5,0.8,1c0.3,0.4,0.7,0.8,1.1,1.2c0.4,0.4,0.8,0.8,1.3,1c0.4,0.3,0.8,0.4,1,0.4
				c0.4,0,0.8-0.2,1.3-0.5c0.4-0.3,0.9-0.7,1.3-1.1c0.4-0.4,0.9-0.8,1.3-1.2c0.5-0.4,0.9-0.6,1.4-0.8c0.7-0.1,1.9-0.1,3.5-0.2
				c1.6-0.1,3.3-0.1,5.2-0.2c1.9-0.1,4-0.1,6.1-0.2c2.2-0.1,4.2-0.2,6.1-0.2c1.9-0.1,3.7-0.1,5.2-0.2s2.7-0.1,3.4-0.1
				c0.1,0,0.4,0,0.9,0c0.5,0,0.8,0,1.1,0c1,0,2,0.2,2.9,0.6s1.8,0.6,2.8,0.6c2.2,0,4.4-0.2,6.5-0.6c2.1-0.4,4.3-0.6,6.6-0.6
				c0.2,0,0.5,0,1,0c0.5,0,1.1,0,1.6,0c0.5,0,1.1,0,1.6,0c0.5,0,0.9,0,1,0c0.1,0.1,0.4,0.3,1,0.8c0.5,0.5,1.1,1,1.6,1.6
				c0.6,0.6,1.1,1.2,1.5,1.9c0.4,0.6,0.6,1.2,0.6,1.6v13c-0.2,0.1-0.4,0.3-0.6,0.6c-0.2,0.3-0.5,0.7-0.7,1c-0.3,0.4-0.5,0.7-0.7,1.1
				c-0.2,0.3-0.3,0.6-0.4,0.8c0,0.1,0.1,0.2,0.2,0.4c0.1,0.2,0.3,0.5,0.4,0.7c0.2,0.3,0.3,0.5,0.4,0.7c0.1,0.2,0.2,0.4,0.2,0.4
				c0,0.1,0,0.5,0,1.3c0,0.8,0,1.3,0,1.7c0,1.5-0.2,2.7-0.5,3.6c-0.3,0.9-0.8,1.5-1.3,2c-0.6,0.5-1.3,0.8-2,0.9
				c-0.8,0.1-1.7,0.2-2.6,0.2c-1.4,0-2.7-0.1-3.9-0.2c-1.2-0.1-2.2-0.3-3.2-0.5c-1-0.2-1.9-0.3-2.8-0.5c-0.9-0.1-1.8-0.2-2.8-0.2
				c-1.6,0-2.9,0.2-3.9,0.6c-1,0.4-2,0.8-2.9,1.3c-0.9,0.5-1.9,0.9-3,1.3c-1.1,0.4-2.4,0.6-4.1,0.6c-0.3,0-0.7,0-1.1,0
				c-0.4,0-0.8-0.1-1.3-0.1l-2.3,2.3c0.2,2.1,0.2,3.8,0.2,5.2s-0.1,2.6-0.2,3.6c-0.1,1-0.2,1.8-0.3,2.5c-0.1,0.7-0.3,1.4-0.4,2.1
				c-0.1,0.7-0.3,1.5-0.3,2.3c-0.1,0.9-0.1,2-0.1,3.3c0,0.1,0,0.3,0,0.6s0,0.5,0.1,0.5c0,0.2,0.1,0.4,0.2,0.7c0.1,0.3,0.2,0.7,0.3,1
				c0.1,0.4,0.2,0.7,0.3,1.1c0.1,0.3,0.2,0.6,0.3,0.7c-0.2,4.4-0.2,8.6,0,12.5c0.2,3.9,0.5,7.7,0.9,11.4c0.4,3.7,0.8,7.5,1.1,11.3
				c0.3,3.8,0.5,7.9,0.5,12.2c0,1.7,0,3.5-0.1,5.4c-0.1,1.9-0.4,3.7-0.9,5.4c-0.6,1.6-1.5,3-2.8,4.1c-1.3,1.1-3.3,1.6-5.8,1.6h-26
				c-1.7,0-3.2-0.6-4.4-1.7c-1.2-1.1-2.2-2.5-2.9-4c-0.8-1.6-1.3-3.2-1.6-4.9c-0.3-1.7-0.5-3.1-0.5-4.2c0-0.1,0-0.2,0-0.4
				s0-0.2,0-0.3c0.1-0.5,0.1-1.3,0.2-2.6c0.1-1.2,0.2-2.6,0.3-3.9c0.1-1.4,0.3-2.7,0.3-3.9c0.1-1.2,0.2-2.1,0.2-2.6
				c0.2-0.1,0.4-0.2,0.7-0.6c0.3-0.3,0.6-0.7,0.8-1c0.3-0.4,0.5-0.7,0.6-1.1c0.2-0.4,0.3-0.6,0.3-0.8c0-0.2-0.1-0.6-0.3-1
				c-0.2-0.5-0.4-1-0.6-1.5c-0.3-0.5-0.5-1-0.8-1.4c-0.3-0.4-0.5-0.7-0.7-0.8c0.1-0.5,0.1-1.4,0.1-2.8c0-1.3,0-2.8,0-4.3
				c0-1.5,0-3,0-4.3c0-1.3-0.1-2.3-0.1-2.8c0-0.2-0.1-0.5-0.2-1.1c-0.1-0.6-0.2-1.2-0.3-1.9c-0.1-0.7-0.2-1.3-0.4-1.9
				c-0.1-0.6-0.2-1-0.2-1.1v-0.3c-0.1-0.1-0.1-0.2-0.1-0.3c0-0.2,0-0.3,0.1-0.3c0-0.1,0-0.1,0-0.2c0-0.1,0.1-0.3,0.2-0.7
				s0.2-0.7,0.4-1.1c0.1-0.4,0.3-0.8,0.4-1.1C427.1,524.6,427.2,524.4,427.2,524.3z M417.7,468.7c0.3,0.4,0.8,1,1.4,1.6
				c0.7,0.7,1.4,1,2.1,1v-2.7H417.7z M434,556.2c0,1.1,0.5,1.9,1.5,2.4v-2.4H434z M436.7,562.2c0.3-0.2,0.5-0.6,0.5-1.3
				c0-0.6-0.2-1-0.5-1.2c-0.2-0.1-0.3,0-0.4,0.3c-0.1,0.3-0.2,0.6-0.2,1c0,0.3,0.1,0.6,0.2,0.9C436.4,562.1,436.5,562.2,436.7,562.2
				z M437.8,482.9v1.1h1.2v-1.1H437.8z M491.1,474.6c-0.3,0-0.5,0.1-0.6,0.3c-0.1,0.2-0.2,0.5-0.2,0.8s0.1,0.6,0.2,0.8
				c0.1,0.2,0.4,0.3,0.6,0.3c0.3,0,0.5-0.1,0.6-0.3c0.1-0.2,0.2-0.5,0.2-0.8s-0.1-0.6-0.2-0.8C491.6,474.7,491.4,474.6,491.1,474.6z
				 M498.5,477.5c-1,0-1.9,0.2-2.7,0.6c-0.8,0.4-1.2,1.2-1.2,2.4c0,0.2,0.1,0.5,0.4,0.8c0.3,0.3,0.5,0.4,0.7,0.4
				c0.9-0.6,1.6-1.2,2.1-1.8C498.3,479.3,498.5,478.5,498.5,477.5z"/>
			<path class="st0" d="M550.9,566.8c-0.4,0-0.8,0.1-1.1,0.4c-0.3,0.3-0.6,0.6-0.7,0.9c0.5,0.7,1.3,1.6,2.6,2.8
				c1.3,1.2,2.6,2.3,3.9,3.5c1.4,1.1,2.6,2.1,3.6,3c1.1,0.9,1.6,1.3,1.7,1.4c0,0.1,0,0.3,0,0.6c0,0.3,0,0.4,0,0.6
				c0,0.7-0.3,1.4-0.8,2.1c-0.5,0.7-1.2,1.3-2,1.9c-0.8,0.6-1.6,1.1-2.4,1.4s-1.5,0.6-2,0.6h-27.2c-0.1-0.2-0.2-0.5-0.6-0.9
				c-0.3-0.4-0.7-0.7-1-1.1c-0.4-0.4-0.7-0.7-1.1-1s-0.6-0.5-0.8-0.5c-0.1-0.1-0.3,0-0.6,0.1s-0.7,0.2-1.1,0.4
				c-0.4,0.1-0.7,0.3-1.1,0.4c-0.3,0.1-0.6,0.2-0.7,0.2c-0.1,0-0.2,0-0.3,0c-0.1,0-0.2,0-0.3,0c-1,0-1.8-0.7-2.4-2
				c-0.6-1.3-1-2.9-1.3-4.6c-0.3-1.8-0.4-3.5-0.4-5.2c0-1.7,0-2.9,0-3.6c0-1,0.1-2,0.4-3c0.3-1,0.5-2,0.8-2.9V490
				c0-0.2,0.2-0.6,0.5-1.2c0.3-0.6,0.6-1,0.7-1.3c0.1-0.1,0.4-0.4,0.9-0.9c0.5-0.5,1-1,1.5-1.5c0.5-0.5,1.1-1,1.5-1.5
				c0.5-0.5,0.7-0.7,0.8-0.9c0.1-0.1,0.1-0.2,0.1-0.3c0-0.1,0-0.3,0-0.4c0-0.5-0.2-0.8-0.6-1c-0.4-0.2-0.9-0.3-1.4-0.4
				c-0.5-0.1-1.1-0.3-1.6-0.4c-0.5-0.2-0.9-0.5-1.2-1c0-0.2,0-0.4,0-0.8c0-0.4,0-0.8,0-1.3c0-0.5,0-0.9,0-1.3c0-0.4,0-0.6,0-0.8
				c0-0.9,0.2-2.2,0.5-3.9c0.3-1.7,0.8-3.3,1.4-4.9c0.6-1.6,1.4-3,2.3-4.2c0.9-1.2,1.9-1.8,3.1-1.8h28.3c1.2,0,2.3,0.4,3.4,1.1
				c1.1,0.7,2,1.5,2.6,2.5c0,0.2,0,0.7,0,1.3c0,0.6,0,1.3,0,2c0,0.7,0,1.3,0,1.9c0,0.6,0,1,0,1.3c0,1-0.1,2-0.2,2.9
				c-0.1,0.9-0.3,1.8-0.4,2.6c-0.1,0.8-0.3,1.7-0.4,2.5c-0.1,0.8-0.2,1.7-0.2,2.6v0.6c0,0.1,0.1,0.3,0.2,0.6
				c0.1,0.4,0.3,0.8,0.4,1.1c0.1,0.4,0.2,0.7,0.4,1.1c0.1,0.3,0.2,0.6,0.2,0.7c0.1,0.5,0.1,1.5,0.3,2.8c0.1,1.4,0.2,2.8,0.3,4.3
				c0.1,1.5,0.2,2.9,0.3,4.3c0.1,1.4,0.2,2.3,0.2,2.8c2,1.2,4.5,2.1,7.5,2.7c3,0.6,6,0.9,9.1,0.9c1.3,0,2.9-0.1,4.8-0.3
				c1.9-0.2,3.7-0.6,5.5-1.3c1.8-0.7,3.3-1.7,4.5-3.1c1.2-1.4,1.9-3.3,1.9-5.7c0-1.6-0.2-3.1-0.6-4.6c-0.4-1.4-0.6-2.9-0.6-4.4v-1.9
				c0.1-0.7,0.1-1.9,0.2-3.6c0.1-1.7,0.2-3.4,0.3-5.3c0.1-1.9,0.3-3.7,0.4-5.3c0.1-1.7,0.2-2.9,0.3-3.6c0.2-0.2,0.4-0.5,0.8-1
				c0.3-0.4,0.7-0.8,1.2-1.2c0.5-0.4,0.9-0.7,1.4-1c0.5-0.3,0.9-0.4,1.3-0.4h21.3c1.6,0,2.8,0.5,3.8,1.4c1,0.9,1.7,2.1,2.1,3.4
				c0.5-1.2,1-1.9,1.6-2.1c0.6-0.3,1.4-0.4,2.4-0.4c1.2,0,2.2,0.4,2.9,1.2c0.7,0.8,1.3,1.7,1.6,2.7c0.4,1,0.6,2.1,0.7,3.1
				c0.1,1,0.2,1.8,0.2,2.4c0,1.4-0.2,2.5-0.6,3.4c-0.4,0.9-0.8,1.7-1.3,2.6c-0.5,0.9-0.9,1.9-1.3,3c-0.4,1.2-0.6,2.7-0.6,4.7
				c0,1.6,0.1,3.5,0.4,5.7c0.3,2.2,0.6,4.5,0.9,7.1c0.3,2.5,0.6,5.1,0.9,7.9c0.3,2.7,0.4,5.5,0.4,8.2c0,3.9-0.2,7.5-0.6,10.8
				c-0.4,3.3-0.6,6.4-0.6,9.1c0,1.3,0.1,2.6,0.2,3.9c0.1,1.3,0.3,2.8,0.4,4.7c0.2,1.8,0.3,4.2,0.4,7.1c0.1,2.9,0.2,6.6,0.2,11.1
				c0,3.9,0,7.2,0.1,10c0.1,2.8,0,5.1,0,7c-0.1,1.9-0.3,3.4-0.7,4.6c-0.4,1.2-1,2-1.9,2.6c-0.9,0.6-2,1-3.5,1.2
				c-1.5,0.2-3.4,0.3-5.7,0.3c-4.9,0-9-0.3-12.4-0.8c-3.4-0.5-6.3-1.3-8.5-2.2c-2.3-0.9-4.1-1.9-5.5-3c-1.4-1.1-2.4-2.3-3-3.4
				c-0.7-1.2-1.1-2.3-1.3-3.3c-0.2-1-0.3-1.9-0.3-2.7c0-0.3,0-0.7,0-1.2c0-0.5,0-1,0-1.6c0-0.5,0-1,0-1.3c0-0.4,0-0.6,0-0.6
				c0-0.1,0.1-0.3,0.2-0.7c0.1-0.3,0.3-0.7,0.4-1.1c0.1-0.4,0.3-0.7,0.4-1.1c0.1-0.4,0.2-0.6,0.2-0.6c0-0.1-0.1-0.4-0.2-0.9
				c-0.1-0.5-0.2-1-0.4-1.5c-0.1-0.5-0.3-1-0.4-1.5c-0.1-0.5-0.2-0.7-0.2-0.9v-17.8c0.6-0.2,1-0.6,1.1-1c0.1-0.4,0.2-0.9,0.2-1.4
				c0-0.1,0-0.3,0-0.6c0-0.3,0-0.4,0-0.6c-2.2-0.3-4.4-0.7-6.6-1.4c-2.2-0.6-4.3-1.4-6.4-2.2l-2.4,2.9h-16.5v27.8
				c0,1.1-0.3,2.2-0.9,3.2c-0.6,1.1-1.5,1.6-2.6,1.6c-0.1,0-0.3,0-0.6,0c-0.3,0-0.5-0.1-0.5-0.1c-0.1,0-0.3-0.1-0.7-0.3
				c-0.3-0.2-0.7-0.5-1.1-0.8c-0.4-0.3-0.8-0.5-1.1-0.8c-0.3-0.2-0.5-0.4-0.6-0.4c-0.1,0-0.2,0-0.3,0
				C551,566.8,550.9,566.8,550.9,566.8z M526.6,526.7c0.3,0,0.5-0.1,0.7-0.3c0.2-0.2,0.3-0.5,0.3-0.8c0-0.3-0.1-0.6-0.3-0.8
				c-0.2-0.2-0.4-0.3-0.7-0.3c-0.3,0-0.5,0.1-0.6,0.3c-0.1,0.2-0.2,0.5-0.2,0.8c0,0.3,0.1,0.6,0.2,0.8
				C526.1,526.5,526.3,526.7,526.6,526.7z M526.4,471.1c0,0.2,0,0.6,0,1.2c0,0.6,0.1,1,0.1,1.3c0.8-2.4,2.4-4,4.8-4.8
				c-0.1-0.2-0.2-0.6-0.6-1.3c-0.3-0.6-0.5-1-0.6-1.1c0-0.1-0.1-0.1-0.2-0.1c-0.1,0-0.3,0-0.4,0c-0.7,0-1.2,0.2-1.6,0.5
				c-0.4,0.3-0.7,0.7-0.9,1.2c-0.2,0.5-0.3,1-0.4,1.6C526.5,470.1,526.4,470.6,526.4,471.1z M539.6,479.4c-1.1-0.8-2.3-1.2-3.6-1.2
				c-0.1,0.1-0.3,0.3-0.6,0.6c-0.3,0.3-0.5,0.5-0.5,0.6H539.6z M540.7,553.2c0,0.2,0,0.3,0.1,0.3c0,0.1,0,0.2,0,0.3
				c0.1,0.2,0.2,0.6,0.5,1.2c0.3,0.6,0.5,1,0.6,1.2c0.1-0.1,0.1-0.3,0.1-0.6s0-0.4,0-0.6c0-0.5,0-1-0.1-1.4s-0.4-0.8-1.1-1
				c0,0.1,0,0.2,0,0.3C540.7,553.1,540.7,553.2,540.7,553.2z M544.4,480.5c0.1-0.2,0-0.3-0.4-0.4s-0.9-0.1-1.4-0.1
				c-0.5,0-1,0-1.3,0.1c-0.4,0.1-0.5,0.2-0.4,0.4c0.1,0.2,0.3,0.4,0.7,0.5c0.3,0.1,0.7,0.1,1,0.1c0.4,0,0.8,0,1.1-0.1
				C544,480.9,544.2,480.7,544.4,480.5z M570.3,508.9c-0.5,1.6-1.1,3.3-1.9,4.9c-0.8,1.7-1.7,3.2-2.9,4.5c0.1,0.1,0.2,0.1,0.3,0.1
				c0.1,0,0.2,0,0.3,0c0.2,0,0.6-0.2,1.3-0.6c0.7-0.4,1.5-1,2.3-1.6c0.8-0.6,1.5-1.2,2.1-1.8c0.6-0.6,0.9-1,0.9-1.4
				c0-0.7-0.2-1.5-0.7-2.3C571.5,510,571,509.4,570.3,508.9z M594.9,539.6c0,1.1,0.5,1.9,1.4,2.3v-2.3H594.9z M599.9,568.1
				c-0.3,0-0.5,0.1-0.6,0.3c-0.1,0.2-0.2,0.5-0.2,0.8c0,0.3,0.1,0.6,0.2,0.8c0.1,0.2,0.4,0.3,0.6,0.3c0.3,0,0.5-0.1,0.7-0.3
				c0.2-0.2,0.3-0.5,0.3-0.8c0-0.3-0.1-0.6-0.3-0.8C600.4,568.2,600.2,568.1,599.9,568.1z M616.5,551.5h-2.4c0.6,1,1.4,1.5,2.4,1.5
				V551.5z M618,555c-0.1,0.3,0,0.6,0.2,0.8c0.2,0.3,0.4,0.4,0.7,0.4c0.3,0,0.5-0.1,0.7-0.3c0.2-0.2,0.3-0.5,0.3-0.8
				c0-0.3-0.1-0.6-0.3-0.8s-0.4-0.3-0.7-0.3c-0.2,0-0.3,0-0.3,0.1c0.1-0.3,0-0.6-0.2-0.9c-0.2-0.3-0.4-0.4-0.7-0.4
				c-0.3,0-0.5,0.1-0.6,0.4c-0.1,0.3-0.2,0.5-0.2,0.8c0,0.3,0.1,0.6,0.2,0.8c0.1,0.3,0.4,0.4,0.6,0.4c0.1,0,0.1,0,0.2,0
				C617.9,555,617.9,555,618,555z M618.5,553.9c0,0.5-0.2,0.9-0.5,1c0-0.2,0-0.4,0.1-0.6C618.2,554.1,618.3,554,618.5,553.9z
				 M622.7,565.6c0-1.1-0.5-1.9-1.5-2.3v2.3H622.7z"/>
			<path class="st0" d="M684,468.7h0.6c-1.2-0.9-2.2-1.9-3.2-3.1c-1-1.2-1.5-2.5-1.5-4c0.1-0.2,0.3-0.4,0.6-0.6
				c0.3-0.3,0.5-0.5,0.8-0.8c0.3-0.3,0.5-0.5,0.7-0.6s0.3-0.3,0.4-0.3h35.4c1,0,1.9,0.2,2.8,0.7c0.9,0.5,1.6,1.1,2.3,1.9
				s1.2,1.6,1.6,2.6c0.4,0.9,0.6,1.9,0.6,2.9c0,1.2-0.2,2.3-0.6,3.4c-0.4,1.1-0.6,2.4-0.6,3.7c0.2,0,0.4,0,0.8-0.1
				c0.3-0.1,0.7-0.2,1.2-0.3c0.4-0.1,0.9-0.3,1.3-0.3s0.8-0.1,1-0.1c0.2,0,0.3,0,0.3,0.1c0.2,0.1,0.6,0.9,1.3,2.4
				c0.7,1.6,1.5,3.6,2.5,6.1c1,2.5,2.1,5.4,3.3,8.7c1.2,3.3,2.5,6.6,3.7,10.1c1.3,3.5,2.5,7,3.7,10.4c1.2,3.5,2.3,6.6,3.4,9.5
				c1,2.9,1.9,5.4,2.7,7.4c0.7,2.1,1.3,3.5,1.6,4.3c0.3,0.8,0.7,1.9,1.2,3.3c0.5,1.4,1,3,1.6,4.7c0.6,1.7,1.2,3.5,1.8,5.3
				c0.6,1.8,1.2,3.6,1.7,5.3c0.5,1.7,1,3.2,1.5,4.5c0.4,1.3,0.7,2.3,0.9,2.9c-0.7,1.8-0.6,3.6,0.1,5.5c0.8,1.8,1.8,3.7,3,5.6
				c1.2,1.9,2.4,3.8,3.6,5.8c1.1,2,1.7,4,1.7,6.1c0,1-0.1,1.8-0.4,2.4c-0.3,0.6-0.7,1-1.2,1.3c-0.5,0.3-1.1,0.5-1.8,0.6
				c-0.7,0.1-1.4,0.1-2.3,0.1h-2.3c-0.9,0-1.8,0-2.7,0.1c-0.9,0.1-1.7,0.4-2.5,0.8H726c-0.3,0-0.9-0.2-1.6-0.7
				c-0.7-0.5-1.4-1-2.2-1.6c-0.8-0.6-1.4-1.1-1.9-1.6c-0.5-0.5-0.8-0.8-0.8-0.8v-14.2c0-0.7-0.6-1.5-1.7-2.4
				c-1.2-0.8-2.5-1.6-4.1-2.3c-1.6-0.7-3.1-1.3-4.8-1.8c-1.6-0.5-2.9-0.7-3.7-0.7c-1,0-2,0.2-3.2,0.6c-1.2,0.4-2.4,0.6-3.7,0.6
				c-1.3,0-2.6-0.2-3.7-0.6c-1.2-0.4-2.4-0.6-3.8-0.6c-1.9,0-3.6,0.6-5,1.7c-1.4,1.1-2.7,2.5-3.9,4.2c-1.1,1.7-2.1,3.6-2.9,5.6
				c-0.8,2-1.6,3.9-2.4,5.8c-0.8,1.8-1.6,3.4-2.3,4.8c-0.8,1.4-1.6,2.3-2.6,2.6c-0.6,0.2-1.5,0.4-2.9,0.6c-1.3,0.2-2.8,0.3-4.3,0.5
				s-3.1,0.2-4.5,0.3c-1.4,0.1-2.6,0.1-3.4,0.1c-1.9,0-4.1-0.2-6.6-0.7c-2.5-0.5-4.9-1.2-7.1-2.2c-2.2-1-4.1-2.2-5.6-3.7
				c-1.5-1.5-2.3-3.2-2.3-5.2c0-1,0.1-2.2,0.4-3.8c0.3-1.5,0.7-3.2,1.2-4.9c0.5-1.7,1.1-3.5,1.9-5.3c0.7-1.8,1.5-3.4,2.4-4.9
				c0.9-1.5,1.8-2.8,2.8-3.9c1-1.1,2.1-1.8,3.2-2.1c-0.1-0.5,0.2-2.1,0.9-4.7c0.7-2.6,1.7-5.8,3-9.7c1.3-3.9,2.7-8.3,4.3-13.1
				c1.6-4.8,3.3-9.7,5-14.7c1.7-5,3.4-9.8,5.1-14.6c1.6-4.7,3.1-8.9,4.5-12.6c1.3-3.7,2.8-7.8,4.4-12.3c0.1-0.2,0.3-0.5,0.6-0.8
				c0.3-0.3,0.6-0.5,1-0.8c0.3-0.2,0.7-0.4,1-0.6c0.3-0.2,0.6-0.2,0.9-0.2c0.2,0,0.5,0.1,1.1,0.3c0.6,0.2,1.2,0.5,1.8,0.8
				c0.6,0.3,1.2,0.6,1.8,0.8c0.6,0.2,1,0.4,1.1,0.4H684z M652.6,556.2h1.4c0-1-0.3-2.1-1-3.2c-0.7-1.1-1.6-1.6-2.7-1.6
				c-0.1,0-0.3,0-0.6,0c-0.3,0-0.5,0-0.6,0.1L652.6,556.2z M658.9,575.2c0-0.7-0.3-1.5-1-2.1c-0.7-0.7-1.3-1.1-1.7-1.4l-1.1,3.6
				H658.9z M685.7,468.7c-0.3,0-0.5,0.1-0.6,0.3c-0.1,0.2-0.2,0.5-0.2,0.8c0,0.3,0.1,0.6,0.2,0.8c0.1,0.2,0.4,0.3,0.6,0.3
				c0.3,0,0.5-0.1,0.7-0.3s0.3-0.5,0.3-0.8c0-0.3-0.1-0.6-0.3-0.8C686.2,468.8,686,468.7,685.7,468.7z M688.1,515.1
				c1.1,0,1.9-0.5,2.3-1.5h-2.3V515.1z M696.5,517.4c0,1.3-0.2,2.5-0.6,3.6c-0.4,1.1-0.8,2.2-1.3,3.2c-0.5,1-0.9,2.1-1.3,3.2
				c-0.4,1.1-0.6,2.2-0.6,3.4c0,0.1,0,0.4,0,0.9c0,0.5,0,0.8,0,0.9c1-0.6,2.3-1.1,3.9-1.3s3.2-0.3,4.8-0.3c1.5,0,2.9,0.1,4.2,0.2
				c1.3,0.1,2.1,0.2,2.6,0.3c-0.4-0.7-1.1-1.9-2-3.7c-0.9-1.8-1.9-3.7-2.9-5.7c-1-2-1.9-3.9-2.8-5.7c-0.9-1.8-1.5-3.1-1.8-3.8
				c-0.1-0.2-0.2-0.6-0.4-1.2s-0.3-1.1-0.4-1.7c-0.1-0.6-0.2-1.2-0.3-1.8c-0.1-0.6-0.1-1-0.1-1.2c-0.1,0.1-0.3,0.3-0.6,0.6
				c-0.3,0.3-0.5,0.4-0.6,0.6c-0.1,0.2-0.3,0.5-0.7,1c-0.3,0.5-0.7,0.9-1.1,1.4c-0.4,0.5-0.7,1-1.1,1.4c-0.3,0.5-0.6,0.8-0.7,1
				c1,0,1.7,0.2,2.3,0.5c0.5,0.3,0.9,0.7,1.1,1.2c0.2,0.5,0.3,1,0.3,1.6C696.5,516.2,696.5,516.8,696.5,517.4z M699.9,478.2
				c0.3,0.5,0.8,1,1.4,1.7c0.7,0.7,1.4,1,2.1,1v-2.8H699.9z M704.7,546.8v1.2h1.2L704.7,546.8z M720,493.6h1.2v-1.2H720V493.6z
				 M728.3,542c-0.2-0.1-0.3,0-0.4,0.1c-0.1,0.1-0.1,0.3-0.1,0.5s0,0.3,0.1,0.5c0.1,0.1,0.2,0.2,0.4,0.1c0.3-0.1,0.5-0.3,0.5-0.6
				C728.8,542.3,728.7,542.1,728.3,542z"/>
			<path class="st0" d="M798,459.2c0.5,0,1.3,0,2.5,0.1c1.2,0.1,2.5,0.2,4,0.4c1.5,0.2,3,0.6,4.6,1.1c1.6,0.5,3,1.2,4.4,2.1
				c1.3,0.9,2.4,2,3.3,3.4c0.9,1.4,1.3,3.1,1.3,5c0,1.3-0.2,2.3-0.7,2.9c-0.5,0.6-1.2,0.9-2.3,0.9c-0.6,0-1.6-0.1-2.9-0.4
				c1,1.1,2,2.4,3,3.8c1,1.4,1.5,2.9,1.8,4.5c0.6-0.6,1.3-1,2-1.1c0.7-0.1,1.5-0.2,2.3-0.2h0.6c1.6,0,3.3,0.7,4.9,2.2
				c1.7,1.5,3.3,3.3,4.9,5.6c1.6,2.3,3.2,4.7,4.7,7.4c1.5,2.7,3,5.3,4.4,7.8c1.4,2.5,2.7,4.6,3.8,6.5c1.2,1.9,2.2,3.1,3,3.7
				c0.7-4.7,1.2-9.7,1.3-14.8c0.1-5.1,0.1-10-0.2-14.7c0.2-0.2,0.4-0.4,0.7-0.8c0.3-0.3,0.6-0.7,0.8-1.1c0.3-0.4,0.5-0.8,0.6-1.2
				c0.2-0.4,0.3-0.7,0.3-1c0-0.9-0.1-1.7-0.4-2.6c-0.3-0.9-0.5-1.8-0.9-2.8c-0.3-1-0.6-2-0.9-3c-0.3-1.1-0.4-2.2-0.4-3.4
				c0-2.3,0.5-4.1,1.5-5.4c1-1.4,2.3-2.4,3.9-3.1c1.6-0.7,3.3-1.2,5.3-1.4c2-0.2,3.9-0.3,5.8-0.3c1.2,0,2.3,0,3.3,0c1.1,0,2,0,2.9,0
				c1.3,0,3,0.1,5.2,0.3c2.1,0.2,4.2,0.5,6.2,1.1c2,0.6,3.8,1.4,5.2,2.5c1.5,1.1,2.2,2.6,2.2,4.4v20.1c0,0.1-0.2,0.6-0.5,1.5
				c-0.3,0.9-0.6,1.6-0.7,2c-0.1,0.1-0.2,0.5-0.6,1.2c-0.3,0.7-0.5,1.1-0.6,1.2v0.3c-0.1,0.1-0.1,0.1-0.1,0.3c0,0.2,0,0.3,0.1,0.3
				c0,0.1,0,0.2,0,0.3c0.1,0.1,0.2,0.5,0.6,1.2c0.3,0.7,0.5,1.1,0.6,1.2c0.2,0.5,0.4,1.1,0.7,2c0.3,0.9,0.5,1.4,0.5,1.5v40.2
				c-0.2,0.1-0.4,0.5-0.7,1.1c-0.3,0.6-0.5,1-0.5,1.3c0,0.1,0.1,0.2,0.2,0.4s0.2,0.5,0.4,0.7c0.1,0.3,0.3,0.5,0.4,0.7
				c0.1,0.2,0.2,0.4,0.2,0.4c0,0.1,0,0.4,0,0.9c0,0.5,0,0.8,0,1v1c-0.1,0.2-0.1,0.5-0.1,0.7c-0.1,0.1-0.2,0.3-0.4,0.7
				c-0.2,0.3-0.5,0.7-0.8,1.1c-0.3,0.4-0.5,0.7-0.8,1.1c-0.2,0.3-0.3,0.6-0.3,0.7s0.1,0.4,0.2,0.9c0.1,0.5,0.2,1,0.4,1.5
				c0.1,0.5,0.3,1.1,0.4,1.5c0.1,0.5,0.2,0.8,0.2,0.9c0.1,0.1,0.1,0.4,0.1,1s0,1.1,0,1.4c0,1.2-0.2,2.1-0.6,2.9s-0.6,1.8-0.6,2.9
				c0,1.3,0.2,2.6,0.6,3.9c0.4,1.3,0.6,2.8,0.6,4.5c0,3-0.9,5.4-2.6,7.1c-1.7,1.7-3.8,3-6.3,3.9c-2.5,0.9-5.2,1.4-8.1,1.6
				c-2.9,0.2-5.4,0.3-7.7,0.3c-3.5,0-6.4-0.3-8.9-1c-2.5-0.7-4.6-1.6-6.4-2.7c-1.8-1.1-3.2-2.4-4.3-3.8c-1.1-1.4-2.1-2.9-2.9-4.3
				c-0.8-1.5-1.5-2.9-2.1-4.3c-0.6-1.4-1.2-2.7-1.9-3.8c-0.6-1.2-1.6-2.6-2.9-4.3c-1.3-1.7-2.7-3.5-4.3-5.5
				c-1.6-1.9-3.2-3.9-4.9-5.8c-1.7-2-3.3-3.8-4.9-5.4c-1.5-1.6-2.8-3.1-4-4.2c-1.2-1.2-2-1.9-2.5-2.2l-0.3-0.1h-0.3
				c-0.1,0-0.1,0-0.3,0c-0.1,0-0.2,0-0.3,0c-0.1,0.3-0.2,1-0.5,2.1c-0.3,1.1-0.5,2.3-0.8,3.7c-0.3,1.4-0.6,2.7-0.8,4
				c-0.2,1.3-0.3,2.4-0.3,3.1c0,1.2,0.2,2.3,0.6,3.5c0.4,1.2,0.6,2.5,0.6,4c0,0.5,0,1.1,0,1.9c0,0.8,0,1.3,0,1.3
				c0,0.1-0.1,0.4-0.4,0.9c-0.3,0.5-0.5,1-0.8,1.5c-0.3,0.5-0.5,1.1-0.8,1.5c-0.3,0.5-0.4,0.7-0.4,0.9c0,0.1,0.1,0.2,0.2,0.4
				c0.1,0.2,0.2,0.5,0.4,0.7c0.1,0.3,0.3,0.5,0.4,0.7c0.1,0.2,0.2,0.4,0.2,0.4c0,0.1,0,0.3,0,0.6c0,0.4,0,0.8,0,1.3c0,0.5,0,1,0,1.5
				c0,0.5,0,1,0,1.3c0,0.2,0,0.5,0,0.9s0,0.9,0,1.4c0,0.5,0,1,0,1.4c0,0.4,0,0.7,0,0.9c-0.2,0.2-0.6,0.6-1.2,1.2
				c-0.6,0.6-1.3,1.3-2,2c-0.7,0.7-1.5,1.3-2.2,1.9c-0.7,0.6-1.3,0.9-1.7,0.9l-22.4,1.1c-1,0-2.2-0.3-3.5-0.8
				c-1.3-0.5-2.4-1.3-3.5-2.2c-1.1-0.9-2-1.9-2.7-3c-0.7-1.1-1.1-2.2-1.1-3.3c0-1.5,0.1-2.8,0.3-4s0.4-2.3,0.8-3.4
				c0.3-1.1,0.7-2.2,1.2-3.3c0.4-1.1,0.9-2.3,1.4-3.6l0.1-0.3v-0.3v-0.3l-0.1-0.3c-0.3-0.6-0.6-1.2-1-1.7c-0.4-0.5-0.8-1.1-1.2-1.6
				c-0.4-0.5-0.7-1.1-1-1.7s-0.4-1.3-0.4-2v-32c0-0.7,0.2-1.5,0.7-2.3c0.5-0.8,1-1.6,1.6-2.3c0.6-0.7,1.2-1.4,1.6-2
				c0.5-0.6,0.7-1.2,0.7-1.6c0-1.1-0.3-2.2-1-3.4c-0.6-1.2-1.3-2.5-2-3.8c-0.7-1.4-1.4-2.8-2-4.4c-0.6-1.6-1-3.2-1-5
				c0-1.2-0.1-3-0.3-5.4c-0.2-2.4-0.4-5-0.6-7.9c-0.1-2.9-0.1-5.8,0.1-8.9c0.2-3,0.7-5.8,1.6-8.3c0.9-2.5,2.2-4.5,3.9-6.1
				c1.7-1.6,4.1-2.4,7.1-2.4v5.5c1.2,0,2.1-0.1,2.8-0.4c0.7-0.3,1.3-0.6,1.9-1c0.5-0.4,1.1-0.9,1.6-1.3c0.5-0.5,1.2-0.9,2.1-1.3
				c0.9-0.4,1.9-0.8,3.2-1C794.3,459.3,796,459.2,798,459.2z M792.1,514.8c0.5,1,1.2,1.5,2.3,1.5v-2.6L792.1,514.8z M796.6,553
				c0.3,0,0.9-0.2,1.6-0.6c0.7-0.4,1.4-0.9,2.1-1.4c0.7-0.5,1.3-1.1,1.8-1.6c0.5-0.5,0.8-1,0.8-1.3c0-0.2,0-0.4,0-0.8
				c0-0.3,0-0.6,0-0.6c-0.1-0.2-0.1-0.5-0.2-1c-0.1-0.5-0.2-0.9-0.3-1.4c-0.1-0.5-0.3-1-0.4-1.4c-0.1-0.5-0.2-0.8-0.3-1
				c-0.3,0.5-0.7,1.3-1.3,2.3c-0.5,1-1.1,2.1-1.6,3.2c-0.6,1.1-1,2.2-1.4,3.2C796.8,551.7,796.6,552.5,796.6,553z M809.8,499.5v1.2
				h1.1v-1.2H809.8z M811.4,532.5c0-0.2,0-0.5,0-1c0-0.5,0-1-0.1-1.5c-0.1-0.5-0.2-1-0.4-1.4s-0.5-0.7-1-0.8v4.7H811.4z
				 M815.7,519.6h1.2v-1.2h-1.2V519.6z M860.7,487.6c-0.3,0-0.5,0.1-0.6,0.4c-0.1,0.3-0.2,0.5-0.2,0.8c0,0.3,0.1,0.6,0.2,0.8
				c0.1,0.3,0.4,0.4,0.6,0.4c0.3,0,0.5-0.1,0.6-0.4c0.1-0.3,0.2-0.5,0.2-0.8c0-0.3-0.1-0.6-0.2-0.8
				C861.2,487.7,861,487.6,860.7,487.6z M863,506.6c-0.2-0.1-0.3,0-0.4,0.1c-0.1,0.1-0.1,0.3-0.1,0.5c0,0.2,0,0.3,0.1,0.4
				c0.1,0.1,0.2,0.1,0.4,0.1c0.3-0.1,0.5-0.3,0.5-0.6C863.5,506.9,863.4,506.7,863,506.6z M864.5,531.4c0-1.2-0.5-2-1.5-2.4v2.4
				H864.5z M866.6,492.4c0.6-0.2,1-0.6,1.1-1c0.1-0.4,0.2-0.9,0.2-1.3c0-0.5-0.1-1-0.2-1.4c-0.1-0.4-0.5-0.8-1.1-1
				c-0.6,0.2-1,0.6-1.1,1c-0.1,0.4-0.2,0.9-0.2,1.4c0,0.5,0.1,0.9,0.2,1.3S865.9,492.1,866.6,492.4z M876,486.5l1.2,1.1l1.2-1.1
				l-1.2-1.2L876,486.5z M877.2,539.6h1.2v-1.2h-1.2V539.6z"/>
		</g>
	</g>
	<g>
		<path class="st1" d="M265.8,205.8l2-1h1.5c-5.7,6.1-10.8,12.6-15.2,19.7c-14.2,21.2-26.4,44.3-36.7,69.1
			c-10.3,24.8-17.3,48.8-21,72.1c-2,14.2-2.3,28.6-0.8,43.3s5.2,27.8,11.1,39.5c5.9,11.6,14.2,21.2,24.8,28.6
			c10.6,7.4,24,11.1,40.2,11.1c10.8,0,22.6-3.2,35.4-9.6C320.1,472,333,463,346,451.4c13-11.6,25.6-25.4,37.9-41.2
			c12.3-15.8,23.3-33.2,33.1-52.1c2.4-4.4,4.7-7,7.1-7.8c2.4-0.8,4.4-0.7,6.1,0.5c1.7,1.2,2.9,3,3.5,5.3c0.7,2.4,0.7,4.2,0,5.6
			c-12.8,26.3-27.5,50-44,71.1c-16.5,21.1-35.4,38-56.7,50.8c0-0.3,0.2-0.8,0.5-1.5l-2-1l-2,0.5c-2,1.7-2.2,3.2-0.5,4.6
			c-6.1,3.4-12.2,6.4-18.5,9.1c-6.2,2.7-12.7,4.9-19.5,6.6l-1.5-1.5h-3l-0.5,2.5c-8.4,1.3-17.4,2.4-26.8,3
			c-15.5,0.3-30-2.2-43.5-7.6c-13.5-5.4-25.5-13.7-35.9-24.8c-13.8-15.9-22.6-35.1-26.3-57.7l1,0.5c1.3,0.7,2.4,1,3,1l1-2.5l-1-1.5
			c-1.4-0.7-1.9-1-1.5-1h-0.5c-0.3,0-0.8,0.1-1.3,0.3c-0.5,0.2-0.9,0.3-1.3,0.3c-1-7.8-1.5-15.4-1.5-23c0-7.6,0.3-15.6,1-24
			c1-13.2,3.2-26.4,6.6-39.7c3.4-13.3,7.6-26.4,12.6-39.2c5.1-12.8,10.7-25.1,16.9-36.9c6.2-11.8,12.7-22.6,19.5-32.4
			c19.6-26.3,40.3-46.9,62.2-61.7c21.9-14.8,43.8-22.3,65.8-22.3c4.4,0,8.7,0.3,12.9,1c4.2,0.7,8.5,1.5,12.9,2.5
			c9.4,2.4,17.5,6,24,10.9c6.6,4.9,11.9,10.6,15.9,17.2c4,6.6,6.7,13.8,8.1,21.8c1.3,7.9,1.7,16.1,1,24.5
			c-1,13.5-4.6,27.1-10.6,40.7c-6.1,13.7-13.7,25.8-23,36.4c-9.3,10.6-19.7,19.1-31.1,25.3c-11.5,6.2-23.1,8.9-34.9,7.8
			c-9.4-1.7-16-4.7-19.7-9.1c-3.7-4.4-5.9-9.1-6.6-14.2c-0.7-5.1-0.6-9.9,0.3-14.4c0.8-4.6,1.1-7.8,0.8-9.9
			c2.4,8.1,6,13.5,10.9,16.2c4.9,2.7,11,4,18.5,4c8.1,0,15.5-2,22.3-6.1c6.7-4,12.9-9.3,18.5-15.7c5.6-6.4,10.4-13.6,14.4-21.5
			c4-7.9,7.4-15.9,10.1-24c1.7-5.7,2.9-11.2,3.8-16.4c0.8-5.2,1.6-10,2.3-14.4c1.3-15.5-0.8-26.6-6.3-33.4
			c-5.6-6.7-13.2-10.1-23-10.1c-12.5,0-26.7,4.7-42.7,14.2c-16,9.4-30.9,21.8-44.8,36.9l-0.5-1.5h-1l-1,1.5L265.8,205.8z
			 M160.1,347.9l-3,3h5.6l0.5-3H160.1z M160.1,374.7c-0.3,0.3-0.4,0.9-0.3,1.8c0.2,0.8,0.1,1.6-0.3,2.3l-2.5,1.5c0.3,1,1,1.5,2,1.5
			s2.7-0.7,5.1-2l0.5-3.5c-0.3-0.3-0.5-0.8-0.5-1.5H160.1z M157.1,389.4l2,2.5v-5.1h-1L157.1,389.4z M164.2,314.5c0,2,0.5,3,1.5,3
			c1.7,0,2.5-0.5,2.5-1.5l1.5-3l-3-0.5L164.2,314.5z M170.2,388.9l-2.5-0.5h-3l-0.5,3c0.3,1,1.2,1.5,2.5,1.5c0.7-0.7,1.5-1,2.5-1
			L170.2,388.9z M166.7,335.3v-0.5c-1.4,1.4-1.5,2.4-0.5,3l5.1,0.5c0.7-0.7,1-1.3,1-2c0.7-1.7,0.8-3.4,0.5-5.1h-3.5l-2,2
			L166.7,335.3z M172.3,361.6l-2.5-0.5c-2,0-3,0.3-3,1l-1,4.6c0.3,0.3,1.2,0.5,2.5,0.5c0.3,0,0.8-0.1,1.3-0.3
			c0.5-0.2,0.9-0.3,1.3-0.3c1.3,0,2.2-0.3,2.5-1h0.5c0.3,0,0.5-0.1,0.5-0.3c0-0.2,0.3-0.3,1-0.3l2-0.5l0.5-2c-0.3-0.7-0.3-1.5,0-2.5
			c-3.4,0-5.1,0.5-5.1,1.5H172.3z M169.2,411.2l-2.5-0.5l-0.5,4L169.2,411.2z M167.7,426.3l4,1l0.5-4l-4,1L167.7,426.3z
			 M170.7,385.9v-1l-1.5-1v1L170.7,385.9z M171.2,315c0,1,0.5,2,1.5,3c0,0.7,0.7,1.5,2,2.5c1.7-0.3,3.2-0.5,4.6-0.5l-1-3
			c-0.7-1.3-1.5-2-2.5-2v-1.5l-2-1l-1.5,1L171.2,315z M172.8,348.9c-1,0-1.5,0.7-1.5,2l3,1l1-3H172.8z M179.3,398.5
			c-1-1.7-1.8-2.6-2.3-2.8c-0.5-0.2-1.1,0.4-1.8,1.8c0,0.7-0.2,1.2-0.5,1.5l-1,4l2.5-0.5c0.3-0.3,1-0.5,2-0.5L179.3,398.5z
			 M175.8,441c-0.3,1.7-0.3,2.6,0,2.8c0.3,0.2,1.2,0.3,2.5,0.3l1.5-3H175.8z M178.8,416.2c0.7-1.3,1-2.4,1-3l-3.5-0.5
			c0,2.4,0.3,3.5,1,3.5H178.8z M178.3,420.3c1.3,0,2.2-0.8,2.5-2.5h-1L178.3,420.3z M181.9,357c0,0.3-0.1,0.8-0.3,1.3
			c-0.2,0.5-0.3,0.9-0.3,1.3l-2,1l-0.5,3h1c0-0.3,0.1-0.5,0.3-0.5c0.2,0,0.3-0.2,0.3-0.5l3.5-2l0.5-3L181.9,357z M181.4,436.5h-2.5
			v4h3l1-3L181.4,436.5z M180.4,385.4l3,0.5l0.5-3l-2.5-1L180.4,385.4z M180.4,392.4v2.5h3c0.3-0.3,0.5-1,0.5-2v-2.5
			c-1.7-0.7-2.7-0.5-3,0.5L180.4,392.4z M182.4,415.7l-1,3.5h1l1.5-1.5L182.4,415.7z M184.9,370.2l2.5,3.5l3-0.5l-0.5-3H184.9z
			 M186.9,321.6c1,0,1.8-0.7,2.5-2l-2.5-1l-1,2.5L186.9,321.6z M192.5,344.9l-3.5-4l-0.5,4H192.5z M191,315.5l0.5,4.6
			c0,0.3,0.5,0.5,1.5,0.5l-0.5,3.5h3l2.5-3.5c-1,0-1.9-0.3-2.5-1v-2c-0.7-0.7-1.4-1-2-1l-1.5-1H191z M196,346.4l-0.5,3h1l1-2v-4
			c-1.7,1-2.5,1.7-2.5,2L196,346.4z M196.5,356.5h-1v1c0,0.3-0.1,0.7-0.3,1c-0.2,0.3-0.3,0.8-0.3,1.5h1L196.5,356.5z M218.3,232.6
			c-0.7-0.3-0.5-1,0.5-2l-3-3l-1,3c0.7,1.4,0.7,2.4,0,3L218.3,232.6z M220.8,256.9l-1.5-1l-1,2l-1.5-1.5c-1.4,2-1.5,3.5-0.5,4.6
			l2.5-1v-0.5h2V256.9z M217.8,244.2c0.3,1.4,1,1.9,2,1.5l0.5-1L217.8,244.2z M218.8,258.4l-0.5-0.5l-0.5,1l1,0.5V258.4z
			 M224.9,500.7c2.4,1,3.5,0.7,3.5-1l1-0.5h-0.5l2-0.5v-0.5l1,0.5l-0.5-2.5c-0.7-0.7-1.7-1-3-1l-2,1c0,0.3-0.1,0.6-0.3,0.8
			c-0.2,0.2-0.3,0.4-0.3,0.8l-2.5,0.5L224.9,500.7z M230.9,199.2h-4l3,2.5L230.9,199.2z M228.4,213.9c-0.7,0.3-1.1,0.5-1.3,0.5
			c-0.2,0-0.3,0.5-0.3,1.5l2,0.5l2-1.5l-1-2h-1L228.4,213.9z M226.9,244.7l2,2.5l1-1L226.9,244.7z M229.4,242.2
			c0.3-0.3,0.7-0.5,1-0.5v-1l-2-1c-2,0.3-1.9,1.7,0.5,4L229.4,242.2z M235.5,205.3l-4.6,4.6c0,1,0.7,1.5,2,1.5
			c0.3,0,0.6-0.1,0.8-0.3c0.2-0.2,0.4-0.3,0.8-0.3l2.5,2.5c-0.3-0.3-0.5-0.7-0.5-1c-0.3-0.3-0.5-0.8-0.5-1.5c1-1,1.5-2,1.5-3
			L235.5,205.3z M235.5,220.9l-0.5-2.5l-3.5-1l-0.5,3c0.7,0.3,1,1.4,1,3l3-2.5H235.5z M236,230.6c-1-1.7-2-2.4-3-2
			c-1,0.3-1.6,0.8-1.8,1.3c-0.2,0.5,0.1,0.9,0.8,1.3v-0.5l0.5,2.5c0.7,0,1.3-0.1,1.8-0.3c0.5-0.2,0.9-0.3,1.3-0.3L236,230.6z
			 M232,498.2v0.5l-0.5,3.5c1-1,2.2-1.4,3.5-1v-3l-2.5-3L232,498.2z M234,493.6v2.5h4L234,493.6z M235.5,218.4l3,1l-1-2.5
			L235.5,218.4z M237.5,185.5c-0.7,0-1.2,1-1.5,3l2.5,1c1.7,0,2.5-0.5,2.5-1.5l0.5-2.5c-1.7,0-2.9-0.2-3.5-0.5L237.5,185.5z
			 M237,228l2.5,3l3-3c-1-2.4-2-3-3-2L237,228z M242.6,494.1c0.3-2,0-3-1-3H239l-1.5,3h4.6c1,2.4,2.7,3.9,5.1,4.6l1.5-1.5
			c-0.7-0.7-1-1.2-1-1.5c0-0.3-0.2-0.7-0.5-1l1,0.5v-1l-1-1l-1,1c-0.7,0-1-0.2-1-0.5h-1l-1,0.5H242.6z M244.1,485.5
			c-3,0.7-4.6,1.3-4.6,2c-0.3,1.3,1,2.4,4,3c0.7-1.7,1.7-2.7,3-3L244.1,485.5z M250.2,205.8c0-1.7-0.5-2.5-1.5-2.5v-1.5l-2.5-1h-2.5
			l-1.5,3.5l3,2.5h2l2.5,2.5L250.2,205.8z M243.1,223l0.5,1.5h1l0.5-1.5v-1.5h-1L243.1,223z M246.1,494.6h1l-0.5-0.5h-0.5V494.6z
			 M250.7,215.4l-1,3l4,0.5L250.7,215.4z M250.2,500.7l2,2h4l2-1l1.5-3l-3.5-2.5h-4L250.2,500.7z M254.2,205.3l-2.5,0.5l-1,3h3l2-2
			L254.2,205.3z M253.7,194.6l-2.5,1v1l2,1L253.7,194.6z M262.8,168.8c-2.4,1.7-2.7,2.5-1,2.5c0.3,0.3,1.2,0.5,2.5,0.5l2.5-0.5
			c0-1.3-0.2-2.2-0.5-2.5H262.8z M261.8,496.1l0.5,2h1l1-1v-1H261.8z M269.4,502.2c-0.7-2.7-1.5-4-2.5-4l-2.5,1.5v1.5l-2.5-0.5
			l2.5,3.5c0.7,0,1.3-0.5,2-1.5h2.5L269.4,502.2z M266.4,202.7l-1-3h-1L266.4,202.7z M266.9,172.9c0,0.3-0.1,0.6-0.3,0.8
			c-0.2,0.2-0.3,0.4-0.3,0.8c-0.7,0.3-1.2,0.8-1.5,1.5c-0.3,0.7-0.2,1.4,0.5,2h3.5c0.7-1.7,0.8-2.7,0.5-3l0.5-1l-0.5-2.5
			L266.9,172.9z M269.4,204.8l1-0.5l-0.5-0.5C269.9,204.1,269.7,204.4,269.4,204.8z M273.4,501.2c0-0.3,0.2-0.7,0.5-1l1-1h0.5
			c0.3,1.7,0.5,2.7,0.5,3c0,0.3,0.3,0.5,1,0.5h2.5l2-2l-2-3l-3,2l-0.5-1h0.5c0.3-0.3,0.7-0.5,1-0.5l-2-2h-3.5l-2,2L273.4,501.2z
			 M271.4,493.6l-0.5,1l2,0.5h2v-1L271.4,493.6z M272.4,183.5l2-1v-1l-2.5,1L272.4,183.5z M277.5,182.5l-3.5,1
			c0,0.3,0.3,0.8,0.8,1.3c0.5,0.5,0.9,0.9,1.3,1.3l-1,2.5l2.5-0.5l0.5-3l0.5-2L277.5,182.5z M275.5,498.2v1c0-0.3,0.2-0.5,0.5-0.5
			L275.5,498.2z M283,493.1l-0.5,1l8.1,0.5l0.5-1l-2.5-1c-0.3,0-0.6-0.1-0.8-0.3c-0.2-0.2-0.6-0.3-1.3-0.3L283,493.1z M292.7,503.2
			l-1.5-1.5l-5.1,1L292.7,503.2z M318,483l-3-1v2.5c1.3,1,2.4,0.8,3-0.5V483z M323,478.4l-0.5,3h1L323,478.4z M332.1,477.4l3.5-2.5
			l-5.6,0.5l-1,2H332.1z M331.6,486c0-0.3,0.1-0.6,0.3-0.8c0.2-0.2,0.3-0.4,0.3-0.8l1-1c-0.7,0.7-1.4,1.1-2,1.3
			c-0.7,0.2-1.4,0.6-2,1.3H331.6z M330.1,473.4v1l1.5,0.5v-1L330.1,473.4z M341.2,469.3c0-1-0.2-1.7-0.5-2l-1-1.5h-3
			c0,0.3-0.3,0.8-1,1.5v3l0.5,2c2.7,0,4.2-0.2,4.6-0.5L341.2,469.3z M336.7,303.4v1h2v-1H336.7z M343.2,301.9l-1-2.5
			c-1.7-0.7-2.9-0.2-3.5,1.5l-1,2h1l1-1c0.3,0.3,0.8,0.5,1.5,0.5L343.2,301.9z M345.3,459.2l2,3.5l2.5-1c-0.3-1-0.3-1.8,0-2.3
			c0.3-0.5,0.7-1.1,1-1.8c-0.3-0.3-0.5-0.6-0.5-0.8c0-0.2-0.2-0.4-0.5-0.8l-0.5-0.5h-2.5L345.3,459.2z M352.4,305.9
			c2,0,3.2-0.2,3.5-0.5c-0.3-1,0.2-2,1.5-3h-5.1V305.9z M356.4,292.8l-1.5-4.6l-1,3l-1,1v3.5l3-0.5L356.4,292.8z M361,282.2
			c-0.7,0.7-0.7,1.9,0,3.5c0.7,0.7,1.8,0.7,3.5,0l1.5-1.5c-0.3-0.7-0.5-1.7-0.5-3l-2-3c0,0.3-0.3,1.2-1,2.5c-1,0-1.5,0.3-1.5,1
			V282.2z M362,449.1v2.5c1.3,1,2.5,1.2,3.5,0.5c1,0,1.7-0.2,2-0.5l1-3.5l1-2.5c-2,0.7-3,1.4-3,2c0,0.3-0.1,0.5-0.3,0.5
			c-0.2,0-0.3,0.2-0.3,0.5l-1,0.5H362z M368.5,275.1l-2-0.5l-1,3.5l4-2L368.5,275.1z M367,268.5v2.5l1,1.5h1c0-0.3,0.3-0.8,1-1.5
			c0.7-1.7,0-2.5-2-2.5H367z M370.6,279.1l-1-2h-1L370.6,279.1z M370.6,286.2v1l2.5,1l0.5-3l-2.5,1H370.6z M376.6,273.6l0.5-2h-1
			l-1,1.5L376.6,273.6z M378.7,278.1l0.5,4.6c1.3-1.7,2.1-2.7,2.3-3c0.2-0.3,0.3-0.8,0.3-1.5H378.7z M385.7,244.7
			c-0.7,0-0.5-0.5,0.5-1.5c0.3-0.3,0.5-0.7,0.5-1c-1.7,0.3-3,0.8-3.8,1.3c-0.8,0.5-1.4,0.9-1.8,1.3c-1,0.3-1.5,1-1.5,2
			c0,0.3,0.3,0.8,0.8,1.3s0.9,0.9,1.3,1.3v3.5c2.7-2,3.5-3.5,2.5-4.6v-1.5L385.7,244.7z M388.8,195.7l-0.5,2c0,0.7-0.1,1.1-0.3,1.3
			c-0.2,0.2-0.1,0.6,0.3,1.3l2,0.5l2-0.5l1-2.5c0-1.7-0.8-2.5-2.5-2.5L388.8,195.7z M393.3,226.5c-0.3,0-0.7-0.1-1-0.3
			c-0.3-0.2-0.7-0.3-1-0.3l-0.5-1.5l-2.5-1l1,3.5c0.3,1.4,0,2.5-1,3.5c0.7,0,1.3,0.1,1.8,0.3c0.5,0.2,0.9,0.3,1.3,0.3
			c0.3,0.3,1.2,0.5,2.5,0.5V229L393.3,226.5z M392.8,215.4v1.5l2.5-0.5l2.5-2.5l-2-2.5l-3-1c-1.7,2-2.2,3.4-1.5,4L392.8,215.4z
			 M397.9,205.8v-1l-1-0.5l1-1.5l-3-1l-0.5,1l-2.5-1l2,5.6l2.5-2.5l-0.5,2.5L397.9,205.8z M396.4,204.8l0.5-0.5l-0.5-0.5V204.8z
			 M398.4,240.7c2-0.3,3-1.2,3-2.5c0-0.7-0.7-1.3-2-2h0.5l-2-2c-0.7,1.7-1,2.8-1,3.3c0,0.5,0,0.9,0,1.3L398.4,240.7z M397.4,197.2v1
			l2.5-0.5l-1-2l0.5-1.5h-1v2.5L397.4,197.2z M400.9,191.1l4-3c-2-2.4-3-2.7-3-1c-0.7,0-1,0.7-1,2V191.1z M404.5,212.9l4.6-0.5
			l-3.5-3.5l-1,3V212.9z M408,198.2v2.5c2.4-2,2.7-3,1-3l-1.5-1L408,198.2z"/>
		<path class="st1" d="M506.6,441.5c-4.7-1.3-8.7-3.8-11.9-7.3c-3.2-3.5-5.7-7.6-7.3-12.1c-1.7-4.6-2.9-9.5-3.5-14.9
			c-0.7-5.4-1-10.8-1-16.2c-1.4,4-3.5,8.9-6.3,14.7c-2.9,5.7-6.2,11.3-10.1,16.7c-3.9,5.4-7.8,10-11.9,13.9c-4,3.9-7.9,6-11.6,6.3
			c-4,0.3-8.7-0.3-13.9-2c-5.2-1.7-10.2-4.1-14.9-7.3c-4.7-3.2-8.8-6.9-12.1-11.1c-3.4-4.2-5.1-8.7-5.1-13.4c0-5.1,0.4-12.4,1.3-22
			c0.9-9.6,2.2-20,4.1-31.1c1.9-11.1,4.2-22.3,6.9-33.6c2.7-11.3,6-21,9.7-29.1c3.8-8.4,7.9-13.4,12.5-14.9
			c4.6-1.5,8.7-2.3,12.5-2.3c5.7,0,10.5,1.4,14.4,4.3c3.9,2.9,5.6,5.7,5.3,8.3c-2.7,5.7-5.7,13.4-9.1,23c-3.4,9.6-6.6,19.8-9.6,30.6
			c-3,10.8-5.7,21.3-8.1,31.6c-2.4,10.3-3.7,18.6-4,25c-1,10.8-0.6,17.7,1.2,20.7s4.2,3.9,7,2.5c2.8-1.3,5.9-4.1,9.1-8.3
			c3.2-4.2,5.8-8.2,7.8-11.9c1.7-3,3.8-7.6,6.5-13.7c2.7-6.1,5.4-12.4,8-19c2.7-6.6,5.3-12.9,7.8-19c2.5-6.1,4.3-10.8,5.3-14.2
			c0.7-2.4,1.3-4.6,2-6.8c0.7-2.2,1.6-4.9,2.8-8.1c1.2-3.2,2.6-7.2,4.3-11.9c1.7-4.7,4-10.6,7-17.7c2.3-5.7,6-9.8,10.8-12.1
			c4.9-2.4,10-3.5,15.4-3.5c6.7,0,12.5,1.5,17.2,4.6c4.7,3,5.7,6.7,3,11.1c-1.7,3-4.1,8.9-7.3,17.5c-3.2,8.6-6.5,18.4-9.9,29.3
			c-3.4,11-6.4,22.1-9.1,33.4c-2.7,11.3-4.4,21.2-5.1,29.6c-1.7,13.5,0.3,20.4,6.1,20.7c3,0.3,6.9-2.3,11.6-7.8
			c4.7-5.6,9.4-12.4,14.2-20.5c4.7-8.1,9.2-16.7,13.4-25.8c4.2-9.1,7.5-16.9,9.9-23.3c1-1.3,2.4-1.9,4-1.8c1.7,0.2,3.3,0.8,4.8,1.8
			c1.5,1,2.8,2.4,3.8,4c1,1.7,1.3,3.2,1,4.6c-2.7,10.5-6.8,21.5-12.1,33.1c-5.4,11.6-11.6,22-18.7,31.1c-7.1,9.1-14.8,16.1-23.3,21
			C523,443.1,514.7,444.2,506.6,441.5z M410.5,388.4v1l1,1l0.5-1L410.5,388.4z M411.8,393.5l5.1,1c0-1.7-0.2-2.7-0.5-3h-2.5
			L411.8,393.5z M414.6,337.8l0.5-2.5h-1l-0.5,2L414.6,337.8z M418.6,386.4c-1.7-1-2.9-1.4-3.5-1.3c-0.7,0.2-1,0.6-1,1.3H418.6z
			 M419.4,328.7l-4.1,1v1L419.4,328.7z M415.4,416.7v3l2.5,0.5l1-3.5H415.4z M417.4,341.3h-1l0.5,3h1L417.4,341.3z M417.4,396
			l-1,2.5v3c2-1.3,3.1-2.3,3.3-2.8c0.2-0.5,0.1-1.1-0.3-1.8L417.4,396z M416.4,406.6c0.7,4.4,1.7,5.6,3,3.5L416.4,406.6z
			 M421.5,310.5l-4.1,4.6h5.1L421.5,310.5z M417.4,403.1l3.1,0.5v-1L417.4,403.1z M421.9,343.9l-0.5-3.5h-1l0.5-2l-2,0.5l1,2.5
			l-2-0.5c1.7,3.4,2.9,5.1,3.5,5.1L421.9,343.9z M419.6,335.8l-1.5,1.5l0.5,1l2.5-1.5L419.6,335.8z M419.6,407.1l0.5-0.5l1-0.5l-2-2
			l-1,1l0.5,1l-0.5,1l1.5,0.5V407.1z M423.5,329.7l-2.6-1l-2.1,2l-0.5,3c0-0.3,0.2-0.5,0.5-0.5c0.3,0,0.7-0.2,1-0.5l1,2.5h1
			c0-1,0.3-1.8,1-2.5L423.5,329.7z M418.6,323.6c0.3,0,0.8,0.1,1.3,0.3c0.5,0.2,1.1,0.3,1.8,0.3l1.5,1.5l0.5-2.5
			c0-1,0.2-1.8,0.5-2.5l-2-0.5L418.6,323.6z M419.6,407.1l0.5-0.5l-1.5-0.5L419.6,407.1z M420.1,341.9v-0.5h-0.5L420.1,341.9z
			 M423.2,404.1c0-1-0.8-1.5-2.5-1.5l-0.5,2.5c1,0.7,2,0.5,3-0.5V404.1z M427.1,421.3l3.6,0.5l-3.1-2.5c-1,0-1.5-0.5-1.5-1.5h-1
			l-1.5,1.5l1.5,3L427.1,421.3z M425.6,315l3.6-1v-1L425.6,315z M429.2,427.9h-1l-0.5,2h1L429.2,427.9z M430.2,308.5
			c-2.7,0.7-3,1.9-1,3.5L430.2,308.5z M430.3,305.9l2.5-3l-3.5,1v2.5L430.3,305.9z M429.8,423.3l0.5,4l2.5,0.5l2-0.5v-1
			c-0.3,0-0.7-0.2-1-0.5c0-0.3,0.1-0.8,0.3-1.3c0.2-0.5,0.1-0.9-0.3-1.3H429.8z M431.8,310.5l0.5-1.5h-1v0.5h-1v2h2L431.8,310.5z
			 M434.3,433.4l-3.5-0.5l3,2.5L434.3,433.4z M438.3,304.9l-3.5-1l-0.5,3c1.7,1.7,3,1.5,4-0.5V304.9z M434.3,313.5
			c0.7,0,0.8-0.7,0.5-2L434.3,313.5z M437.3,428.4l-0.5,1l1,1l0.5-1L437.3,428.4z M438.9,297.8l-1,3l1.5,2c1-1.3,1.5-2.2,1.5-2.5
			L438.9,297.8z M437.8,432.4v1l2,0.5v-1L437.8,432.4z M442.9,429.4l-3-0.5l-1.5,2.5c2.4,0.7,3.9,0.2,4.6-1.5V429.4z M438.9,434.4v1
			l1,0.5l0.5-1L438.9,434.4z M442.4,293.3h1l0.5-3h-1L442.4,293.3z M445.9,298.3l0.5-1.5l-1.5,1.5H445.9z M450.5,295.3l-1-2h-1
			l-0.5,2l-2,0.5h1h0.5L450.5,295.3z M449,295.3h-1l-0.5,0.5L449,295.3z M493.5,372.2c-2.7,0-4,1.5-4,4.6c0.3,0,0.8,0.5,1.5,1.5
			l2,0.5h2c0.3,0,0.7-0.2,1-0.5c0.3-0.3,0.8-1.2,1.5-2.5l0.5-4h-3.5L493.5,372.2z M501.1,364.1c1.7,0.3,2.9-0.5,3.5-2.5h0.5
			c0.3,0,0.7-0.1,1-0.3c0.3-0.2,0.8-0.3,1.5-0.3l-2.5-3l-2.5-2l-8.1,2l-1.5,4c0.3,0.3,0.7,0.5,1,0.5c0.3,0.3,0.8,0.5,1.5,0.5l0.5,1
			l-1,1c-1.4-0.7-2.2-0.3-2.5,1l-1,2l2.5,0.5l3-0.5v-3.5c0.7,0,1.3-0.1,2-0.3C499.7,364.2,500.4,364.1,501.1,364.1z M496.5,364.6
			h0.5l0.5-2l-1.5,1.5L496.5,364.6z M504.6,324.1c-1,0-2,0.3-3,0.8c-1,0.5-1.9,1.6-2.5,3.3l2.5,2l3.5,0.5c0.3,0,1-0.8,2-2.5l1-4
			l-3-1L504.6,324.1z M503.1,371.2l-2,1v1h2V371.2z M506.1,365.1l-2.5-1c-1.7,1.7-2.2,2.7-1.5,3l3.5,1.5L506.1,365.1z M516.8,318.1
			l-3-1l2-2c0.7-0.7,1.5-1,2.5-1v-1c-0.3,0-0.7-0.2-1-0.5l-0.5-2l-2-2l-4.6,0.5l-4,1l-0.5,3.5l1,1.5v1l-0.5,0.5
			c-1-0.3-1.9-0.2-2.5,0.5l-0.5,2.5l2.5,0.5l2-0.5l0.5-2v-1.5h3l2,2c-0.7,1-0.7,1.5,0,1.5l2.5,2l1-2.5V318.1z M506.6,316.1h1.5
			l0.5-2L506.6,316.1z M511.7,354l-3.5,3c3,0,4.7-0.2,5.1-0.5L511.7,354z M512.2,358.5l-3.5,4h5.1l1-2.5L512.2,358.5z M511.7,325.2
			l2,1l-0.5-1.5L511.7,325.2z M514.2,380.8c-1-0.3-1.7,0.2-2,1.5c-0.3,1.4,0.5,2,2.5,2c1.3-1,2-2,2-3L514.2,380.8z M513.7,317.1
			l-0.5,1L513.7,317.1z M514.2,349.4l-1-0.5l0.5,4l3.5-2.5v-2.5L514.2,349.4z M523.8,312l-4,3.5l4,0.5l3-1L523.8,312z M523.3,308
			l-2.5,1v1l1.5,1c1,0,2.2-0.7,3.5-2L523.3,308z M522.3,335.3c-1,1.7-1.2,2.7-0.5,3v0.5l2.5-0.5c0-0.3,0.2-0.8,0.5-1.3
			c0.3-0.5,0.5-1.1,0.5-1.8H522.3z M526.4,302.9l-1-0.5l0.5,4l4.6-3.5l-3-0.5L526.4,302.9z"/>
		<path class="st1" d="M647.8,342.9c1-3.4,2.5-5.6,4.6-6.6c2-1,4-1.3,6.1-0.8c2,0.5,3.7,1.7,5.1,3.5c1.3,1.9,1.7,4.1,1,6.8
			c-3.7,12.5-7.3,23.8-10.9,33.9s-7.3,19.1-11.4,26.8c-7.4,13.8-15.7,23.8-24.8,29.8c-9.1,6.1-20.1,7.8-32.9,5.1
			c-12.1-2.4-20.9-7.4-26.3-15.2c-5.4-7.8-7.2-21.1-5.6-40c1-10.8,2.8-23.4,5.3-37.9c2.5-14.5,5.3-28.5,8.3-42l2.5,0.5v-3l-2,0.5
			c1.3-5.1,2.5-10,3.5-14.9c1-4.9,2.2-9.4,3.5-13.4l8.6-31.4l-13.7-3.5c-3.7-0.7-7.1-1.3-10.1-2c-3-0.7-6.2-1.3-9.6-2
			c-7.1-1.3-13.8-2.6-20.2-3.8c-6.4-1.2-12.6-1.8-18.7-1.8c-6.7,0-13.2,0.8-19.2,2.5c-6.1,1.7-12.3,4.6-18.7,8.6
			c-1.7,1.4-2.7,1.3-3-0.3c-0.3-1.5-0.7-2.9-1-4.3c1-6.1,4.4-11.5,10.1-16.4c5.7-4.9,15.7-7.2,29.8-6.8c7.4-0.3,14.1-0.2,20,0.5
			c5.9,0.7,12.7,1.7,20.5,3l39,5.1c3.4-8.4,6.2-15.2,8.6-20.2c2.4-5.1,4.6-8.9,6.8-11.4c2.2-2.5,4.6-4.2,7.3-5.1
			c2.7-0.8,6.1-1.3,10.1-1.3c2.4,0,4.9,0.4,7.6,1.3c2.7,0.8,5.1,2.1,7.1,3.8c2,1.7,3.5,3.8,4.6,6.3s1,5.3,0,8.3l-2,5.1l-6.1,12.1
			c3,1.4,7.5,2.4,13.4,3c5.9,0.7,12.6,1,20,1c11.5,0,23.4-0.8,35.9-2.5c12.5-1.7,23.8-4.2,33.9-7.6c10.1-3.4,18-7.6,23.8-12.6
			c5.7-5.1,7.6-11.1,5.6-18.2c4-1,7.6-0.6,10.6,1.3c3,1.9,5.1,4.6,6.3,8.1c1.2,3.5,1.3,7.8,0.3,12.6c-1,4.9-3.4,9.9-7.1,14.9
			c-7.1,9.8-18.9,17.5-35.4,23.3c-16.5,5.7-35.9,8.3-58.2,7.6c-13.2-0.3-22.5-0.8-28.1-1.3c-5.6-0.5-10-1.1-13.4-1.8l-14.2-1.5
			c-2,3.7-5,10.4-8.9,20c-3.9,9.6-7.8,21-11.9,34.1c-4,13.2-7.8,27.3-11.1,42.5c-3.4,15.2-5.7,30-7.1,44.5
			c-1.4,14.2-0.9,24.4,1.3,30.6c2.2,6.2,5.4,9.2,9.6,8.9c4.2-0.3,9.2-3.7,14.9-10.1c5.7-6.4,11.5-15.2,17.2-26.3
			c3.7-6.7,7.1-14.3,10.1-22.8C642.2,361.8,645.1,352.6,647.8,342.9z M555.7,231.1l-1.5-0.5l1,2l-1.5,2l4,0.5l1-2.5
			c-0.3,0-0.6-0.1-0.8-0.3c-0.2-0.2-0.4-0.3-0.8-0.3l-0.5-1H555.7z M559.3,223l-1.5-0.5l1,2l-1,2l4,0.5l0.5-2.5
			c-0.3,0-0.6-0.1-0.8-0.3c-0.2-0.2-0.4-0.3-0.8-0.3l-0.5-1H559.3z M564.3,407.6l2-2h-0.5c0.3,0,0.6-0.1,0.8-0.3
			c0.2-0.2,0.4-0.3,0.8-0.3c0,1.7,0.3,2.2,1,1.5l2,2v-5.1c-0.3-0.3-1-0.5-2-0.5h-1c0-0.7-0.1-1.3-0.3-1.8c-0.2-0.5-0.3-1.3-0.3-2.3
			c-0.7-0.7-1.3-0.7-2,0l-2,0.5c0,0.3-0.3,0.8-1,1.5c-0.3,1.4-1,2.2-2,2.5l1.5,4h1.5l-1,2c-1,0-0.7,0.8,1,2.5h2.5l-0.5-2v-2l-1-0.5
			H564.3z M562.3,231.6l-1,3l3,0.5l3-3c-1.7,0-2.9,0.3-3.5,1L562.3,231.6z M562.8,407.1v0.5h1L562.8,407.1z M565.8,415.7
			c-0.3,0.7-0.7,1.5-1,2.5c-0.3,1-0.3,2,0,3c0.3,0,0.8,0.3,1.5,1l2.5-1l1-3.5l-1-4l-2.5,1L565.8,415.7z M565.8,223.5l-0.5,3l3,0.5
			l2.5-3c-1.7,0-2.9,0.3-3.5,1L565.8,223.5z M566.3,386.9l0.5,2h1l0.5-3.5h-1L566.3,386.9z M566.3,392.9l0.5,2h1l1.5-3
			c0-0.7-0.8-1-2.5-1L566.3,392.9z M567.4,403.1v1.5C567.7,404.2,567.7,403.7,567.4,403.1z M570.4,396l-0.5,1.5l0.5,2h1l1-1.5v-2
			H570.4z M569.9,409.6v1l2.5,1l-0.5-2.5L569.9,409.6z M572.4,230.6l-1.5-0.5l1,2l-1.5,2l4,0.5l1-2.5c-0.3,0-0.6-0.1-0.8-0.3
			c-0.2-0.2-0.4-0.3-0.8-0.3l-0.5-1H572.4z M574.9,295.8l0.5,2h1l0.5-3L574.9,295.8z M575.4,314.5c-0.3,1-0.5,1.9-0.5,2.5l0.5,2
			l2.5-0.5l1-4.6L575.4,314.5z M579,231.1l-1,3l3,0.5l3-3c-1.7,0-2.9,0.3-3.5,1L579,231.1z M580,285.2l-0.5,2.5h1l1-1.5L580,285.2z
			 M582.5,411.2l-0.5,3h3c-0.3-0.7-0.5-1.5-0.5-2.5v-1L582.5,411.2z M585.1,304.4h1l1.5-2h-1L585.1,304.4z M586.1,270.5h1V270
			c0-0.3,0.2-0.7,0.5-1l2.5,1l1.5-4h-3c0,0.3-0.1,0.6-0.3,0.8c-0.2,0.2-0.3,0.4-0.3,0.8l-1.5-0.5L586.1,270.5z M595.2,286.7
			c0-1.3-1-2.4-3-3c-0.7,0.3-1.2,0.8-1.5,1.3c-0.3,0.5-0.7,0.9-1,1.3l-2.5-1l-0.5,5.6l3.5-0.5l-0.5,3l3.5-3l-2.5-1
			c0.3-0.3,0.5-0.7,0.5-1c0.3,0,0.8,0.2,1.5,0.5l2,0.5L595.2,286.7z M589.6,315h1l3.5-5.1l-4,2.5L589.6,315z M590.6,289.2l-0.5,1
			h0.5V289.2z M596.2,272c-1-0.7-2-1-3-1l-1.5,3l2,1l2.5-0.5V272z M592.1,295.3l-0.5,3l1,2.5h2.5c0.7-1.3,1-2.2,1-2.5l0.5-3H592.1z
			 M594.2,254.3c-0.7,1-1.1,1.7-1.3,2c-0.2,0.3,0.3,0.8,1.3,1.5l2.5,1l-0.5-2l1.5,1v-0.5l0.5,2.5c1,0,1.5-0.3,1.5-1
			c1,0.3,1.7,0.2,2-0.5c0.7-0.3,1.7-0.3,3,0h2l0.5-1v-2v-0.5h-2l-2-2c-0.7-0.7-1.9-0.7-3.5,0l-0.5,0.5l-0.5-1.5h-1
			c0,0.3-0.3,0.2-1-0.5c-0.7,1.4-1,2.7-1,4L594.2,254.3z M597.7,281.7l0.5-3l-3.5,4l3,3.5l1.5-4L597.7,281.7z M596.2,256.4v0.5
			l0.5-1l-1-0.5C595.7,256,595.8,256.4,596.2,256.4z M602.3,271l-2-1c-1,1.4-1.2,2.4-0.5,3c-0.7,1.4,0.2,2.5,2.5,3.5l1.5-2l0.5-3
			L602.3,271z M614.9,231.6l-1.5-0.5l1,2l-1.5,2l4,0.5l1-2.5c-0.3,0-0.6-0.1-0.8-0.3c-0.2-0.2-0.4-0.3-0.8-0.3l-0.5-1H614.9z
			 M621.5,232.1l-1,3l3,0.5l3-3c-1.4,0-2.7,0.3-4,1L621.5,232.1z M640.2,236.6v-1c-1-0.3-1.9-0.5-2.5-0.5v1L640.2,236.6z
			 M643.2,241.7v1c0.3,0,0.6-0.1,0.8-0.3c0.2-0.2,0.4-0.3,0.8-0.3h0.5L643.2,241.7z M646.8,238.1l-0.5,1h2l0.5-1H646.8z
			 M714.1,239.7l1,2h3l-1-2.5l-3-3V239.7z M720.1,235.1l4-1l-0.5-6.1c-0.7,1.4-1.3,2.4-1.8,3c-0.5,0.7-1.3,0.8-2.3,0.5L720.1,235.1z
			 M733.8,227.5l-4,1v2.5c0.7,0.7,1.2,1,1.5,1l2.5,1.5l2.5-3l-2.5-2V227.5z M734.8,237.1h-2.5v1h1.5l0.5,0.5l1-0.5h-0.5V237.1z
			 M733.8,237.1h-1l1,1h1L733.8,237.1z M742.9,222l-1.5,1.5l-2-0.5c0,1.7-0.3,2.5-1,2.5c-0.3,0.7-0.5,1.4-0.5,2h-3.5l6.6,4V229h1.5
			l0.5-1.5c0.3-0.3,0.5-1,0.5-2v-2h-0.5V222z M735.8,238.7h2c0-1,0.3-1.8,1-2.5l1-1h-3.5L735.8,238.7z M740.9,227.5h-3
			c0,0.7,0.7,1,2,1l1,0.5V227.5z M743.4,226v-0.5c0-0.3-0.1-0.5-0.3-0.5c-0.2,0-0.3-0.2-0.3-0.5v-1h-1.5l-2,2.5l3,2l0.5-0.5
			L743.4,226z M741.4,238.1l3-2v-1L741.4,238.1z M742.9,230.6v1l3-1.5v-1L742.9,230.6z M755,223.5l4,4.6l0.5-3.5L755,223.5z
			 M768.7,217.9h-1l1.5,2.5L768.7,217.9z M769.2,209.3l3,4l1-4H769.2z"/>
		<path class="st1" d="M700.9,428.9h3v-3.5h-0.5h2c1.3-0.3,2.2-0.8,2.5-1.5l-1-1.5v-1.5c12.1-3.4,24.6-11.2,37.4-23.5
			c12.8-12.3,23.3-29.6,31.4-51.9c2-4.4,4.9-6.6,8.6-6.6c2.7,0,5.1,0.7,7.3,2c2.2,1.4,3.3,2.7,3.3,4c-4.7,17.2-11.2,32-19.5,44.3
			c-8.3,12.3-17.4,22.4-27.3,30.4c-10,7.9-20.2,13.7-30.9,17.5c-10.6,3.7-20.7,5.6-30.1,5.6c-10.8,0-19.8-1.7-27.1-5.1
			c-7.3-3.4-13.2-7.8-17.7-13.2c-4.6-5.4-7.7-11.6-9.4-18.7c-1.7-7.1-2.2-14.5-1.5-22.3c0.7-9.4,2.6-18.9,5.8-28.3
			c3.2-9.4,7.3-18.5,12.4-27.1c5.1-8.6,11-16.4,17.7-23.5c6.7-7.1,14.2-13,22.3-17.7c5.7-3.7,11.5-6.3,17.2-7.8
			c5.7-1.5,11-2.3,15.7-2.3c5.1,0,9.6,0.8,13.7,2.3c4,1.5,6.9,3.8,8.6,6.8c4.4,6.4,6.2,13.2,5.6,20.2c-0.7,6.7-2.8,13.5-6.3,20.2
			c-3.5,6.8-7.9,12.9-13.2,18.5c-5.2,5.6-11.1,10-17.5,13.4c-6.4,3.4-12.8,5.1-19.2,5.1c-3.4,0-6.7-0.2-9.9-0.5
			c-3.2-0.3-5.8-1.7-7.8-4c-3.7,4-6.2,8.4-7.6,13.2c-1.4,4.7-2.4,9.3-3,13.7c-0.7,10.1,1,18.8,5.1,26.1c4,7.3,11.5,10.9,22.3,10.9
			c4,0,8.4-0.5,13.2-1.5l-3.5,3.5l-0.5-1l-3.5,2.5l3,2.5L700.9,428.9z M649.3,373.2l0.5-3l-2.5,1v2H649.3z M649.3,394.5l-0.5,1l3-1
			v-1L649.3,394.5z M654.4,377.3l-4,1.5v1h2.5L654.4,377.3z M656.4,363.1h-4.6l-1,4L656.4,363.1z M650.8,410.7v1.5l1,0.5l0.5-1
			L650.8,410.7z M658.9,403.1h-5.1l3.5,3.5L658.9,403.1z M653.9,412.7l3.5,0.5l0.5-1l-1.5-1.5L653.9,412.7z M657.9,371.7l-3.5,2.5
			l1,3.5c0.7-0.3,1.3-0.7,2-1c0.7-0.3,0.8-0.5,0.5-0.5l-0.5-2.5L657.9,371.7z M654.9,399.5h4l-4.6-3.5L654.9,399.5z M655.4,390.4v1
			l2,0.5l1.5-2.5l-3,1H655.4z M656.4,329.2c1.3,1,3,1.5,5.1,1.5l2.5-4.6l-3.5-1l-3.5,2L656.4,329.2z M656.9,407.1v1l2,0.5v-1
			L656.9,407.1z M657.4,338.8l0.5,2.5h5.1l2-3l-4.6-2L657.4,338.8z M660.9,371.2l1.5,0.5v-4l-3.5,2.5L660.9,371.2z M662,344.4
			l-2,0.5c0,1.4,0.3,2.4,1,3l4.6-1L662,344.4z M662,410.7v-1h-2v1H662z M667,364.1l-3.5-3.5c-1.4,0-2.4,0.2-3,0.5l1,2l0.5,2l3.5,0.5
			L667,364.1z M665.5,375.2l-1-2.5l-3.5-0.5c-0.7,2.7,0,4,2,4L665.5,375.2z M665.5,354.5l3.5,3.5l1-3.5c-1,0-1.5-0.5-1.5-1.5l-3-3
			l-1,3L665.5,354.5z M672.6,318.1v-1l-4-1v1L672.6,318.1z M674.6,333.3v-1l-5.1,0.5c1.3,1.4,2.7,2,4,2L674.6,333.3z M677.1,428.4
			l0.5-5.1l-3,2l-2,2c0.7,0.7,1.5,1,2.5,1H677.1z M674.1,343.9l2.5,1l4.6-2l-2.5-3l-2,0.5v1c-0.3,0-0.5,0.3-0.5,1L674.1,343.9z
			 M679.2,436.5l1,2.5l3-0.5l-2-3.5h-1L679.2,436.5z M683.2,333.3l2.5,2l2-4c0.7,0.7,1.7,0.2,3-1.5v0.5l1.5-3l-1-1l-4,4v0.5l-1-0.5
			l1-5.1l-4,0.5l-1.5,4l1,0.5l-2.5,3H683.2z M686.2,330.7v-0.5l-3-0.5l-0.5,0.5L686.2,330.7z M698.9,318.1h-6.1l-1.5-0.5l-3.5,0.5
			c-0.7,0.7-1,1.4-1,2v-2l-3.5,1v1l3,1l2.5,1l2-3h1.5v1.5l3,0.5L698.9,318.1z M685.2,431.4l3.5-0.5l0.5-5.6
			c-0.3,0.3-0.8,0.8-1.3,1.3c-0.5,0.5-0.9,1.1-1.3,1.8l-1.5-1.5l-1,4L685.2,431.4z M686.7,321.1v-1c-0.3,0-0.5,0.3-0.5,1H686.7z
			 M688.3,330.7h-1c0.3,0,0.5,0.2,0.5,0.5L688.3,330.7z M725.2,297.8c-2,0-5.1,1.7-9.4,5.1c-4.2,3.4-8.3,7.3-12.4,11.9
			c-4,4.6-7.6,9.1-10.6,13.7c-3,4.6-4.7,8-5.1,10.4c-0.3,2.7,0.9,4.5,3.8,5.3c2.9,0.8,5,1.3,6.3,1.3c3.4,0,6.9-1.3,10.6-4
			c3.7-2.7,7.2-5.9,10.4-9.6c3.2-3.7,6-7.8,8.3-12.1c2.4-4.4,3.7-8.4,4-12.1c0-3.7-1.4-6.9-4-9.6H725.2z M692.8,319.1v-1h-0.5v1
			H692.8z M698.4,425.3h-4v4h6.6l-3-3.5L698.4,425.3z M698.9,433.9l-1,1l1.5,2.5l1-1L698.9,433.9z M702.4,424.8l1,0.5l-0.5-1
			L702.4,424.8z M706.5,434.4h0.5c-0.3,0-0.6,0.2-0.8,0.5c-0.2,0.3-0.4,0.5-0.8,0.5v1l2.5-1.5l1-3.5L706.5,434.4z M707,420.3
			l-0.5,0.5h0.5V420.3z M707,428.4v1l2.5-0.5v-1L707,428.4z M711,427.9v1l2.5-0.5v-1L711,427.9z"/>
		<path class="st1" d="M877.9,300.4c-2.4,1.7-5.6,6.8-9.6,15.2c-4,8.4-8.3,18.2-12.6,29.3c-4.4,11.1-8.5,22.7-12.4,34.7
			c-3.9,12-6.7,22.2-8.3,30.6c-3.4,18.6-0.3,27.8,9.1,27.8c3,0,6.7-1.5,10.9-4.6c4.2-3,8.2-7.1,11.9-12.1
			c3.4-4.7,6.8-10.6,10.4-17.7c3.5-7.1,6.8-14.3,9.9-21.8c3-7.4,5.8-14.4,8.3-21c2.5-6.6,4.3-11.5,5.3-14.9c0.7-2,2.1-3.4,4.3-4
			c2.2-0.7,4.4-0.9,6.6-0.8c2.2,0.2,4,0.8,5.6,1.8c1.5,1,2.1,2.2,1.8,3.5c-2,7.1-4.5,14.9-7.3,23.5c-2.9,8.6-6.1,17.1-9.6,25.5
			c-3.5,8.4-7.5,16.4-11.9,23.8c-4.4,7.4-8.9,13.7-13.7,18.7c-6.4,6.7-12.5,10.6-18.2,11.6c-5.7,1-11.8,1.2-18.2,0.5
			c-16.2-2-27.3-8.2-33.4-18.5c-6.1-10.3-7.8-21.5-5.1-33.6c1.3-7.4,3.1-15.3,5.3-23.5c2.2-8.3,4.5-16.3,6.8-24
			c2.4-7.8,4.7-14.7,7.1-21c2.4-6.2,4.4-11.2,6.1-14.9c-2,0.7-4,0.9-6.1,0.8c-2-0.2-3.9-0.3-5.6-0.3h-11.6l-2.5,9.6
			c-1,4.4-2.3,9-3.8,13.9c-1.5,4.9-3,9.4-4.6,13.4c-1.5,4-3,7.5-4.6,10.4c-1.5,2.9-3,4.6-4.3,5.3c-2.7,1.4-5.7,1.6-9.1,0.8
			c-3.4-0.8-5.1-2.3-5.1-4.3c1.4-3,2.7-6.9,4-11.6c1.4-4.7,2.7-9.7,4-14.9c1.3-5.2,2.4-10.2,3.3-14.9c0.8-4.7,1.4-8.4,1.8-11.1
			c-9.8-4.4-16.6-10.1-20.5-17.2c-3.9-7.1-5.8-15-5.8-23.8c0-7.1,1.4-13.7,4.3-19.7c2.9-6.1,8.7-10.4,17.5-13.2c5.7-1.7,11.7-1,18,2
			c6.2,3,11.2,9.6,14.9,19.7c2.4,6.4,2.9,13.2,1.8,20.2c-1.2,7.1-2.6,13.8-4.3,20.2c7.4,0,13.3-0.9,17.7-2.8c4.4-1.9,7.2-4,8.6-6.3
			c0.3-2.4,1.7-4.9,4-7.6c4.4-5.7,9.4-8.6,15.2-8.6c4,0,8,1,11.9,3c3.9,2,7.1,4.5,9.6,7.3c2.5,2.9,4.1,5.7,4.8,8.6
			C881.2,296.4,880.3,298.7,877.9,300.4z M764.1,269.5l-1.5,3l2,2.5l2.5-5.1l-1.5-0.5H764.1z M767.2,257.4h-1l0.5,2l-0.5,2l1,2l3-1
			l-0.5-3h-2L767.2,257.4z M766.1,285.2h1l0.5-2.5h-1l-0.5,2V285.2z M766.7,259.4h1l-1-0.5V259.4z M769.7,293.8l0.5-1l-2.5-3v3.5
			L769.7,293.8z M770.2,272.5l-1.5,1l3,5.1h0.5l-1,3l2,2l2-2h0.5v-5.1c-0.7,1-1.3,1.2-2,0.5c-0.7-0.3-0.7-1.3,0-3h-2.5L770.2,272.5z
			 M771.7,276.1l1,1v0.5C772.1,276.9,771.7,276.4,771.7,276.1z M772.7,278.1v-0.5l-0.5,1L772.7,278.1z M772.7,276.6v0.5l1,1.5l0.5-1
			c-0.3,0-0.5-0.2-0.5-0.5C773.4,277.1,773.1,276.9,772.7,276.6z M774.2,288.7l-1,4l4,1L774.2,288.7z M777.3,286.2l-1-2h-1l-1.5,3.5
			h2.5L777.3,286.2z M776.8,295.3h-1l-0.5,1.5l1,1.5h1L776.8,295.3z M786.4,285.2c2,0.3,3.2-1.2,3.5-4.6c0.3-3.4,0.1-6.9-0.8-10.6
			c-0.8-3.7-2.2-6.9-4-9.6c-1.9-2.7-4-3.4-6.3-2c-2,1-2.9,3-2.8,6.1c0.2,3,0.8,6.1,2,9.1c1.2,3,2.6,5.7,4.3,8.1
			C784,284,785.4,285.2,786.4,285.2z M780.8,289.7c1.3-1.7,1.5-2.4,0.5-2.3c-1,0.2-1.7,0.3-2,0.3l-3,1
			C778,291.8,779.5,292.1,780.8,289.7z M794,277.6l0.5-1l-1-3l-1.5,3L794,277.6z M795,252.3l-2,2.5l1.5,3l3-4l-1-1L795,252.3z
			 M793,268l1,0.5l1-2l-1-1l-1,2V268z M800,273.6l-2.5,4l4,1.5L800,273.6z M800,257.4l-1.5,0.5l1.5,5.6l-1.5,2.5l1.5,2.5l2.5-1.5
			h0.5l1.5-4.6c-0.3,0.3-1,0.5-2,0.5c-0.7-0.7-0.5-1.8,0.5-3.5l-2.5-0.5L800,257.4z M800.6,280.6h-1l-1,1l1,2h1V280.6z M803.6,272
			l-0.5-2l-1-0.5l-2.5,3l2.5,0.5L803.6,272z M801.6,261.9l-0.5,0.5v0.5v-0.5l-1,1h1l0.5,0.5l1.5-1h-0.5
			C801.9,262.9,801.6,262.6,801.6,261.9z M801.1,260.9v1.5C800.4,262.1,800.4,261.6,801.1,260.9z M805.6,276.6c1.7-1.3,2.1-2,1.3-2
			c-0.8,0-1.4,0-1.8,0l-3-0.5C802.7,277.4,803.9,278.3,805.6,276.6z M811.2,423.8c2-1.3,2-2.7,0-4h0.5l-3-3l-0.5,4.6l0.5,2
			L811.2,423.8z M810.2,415.2l3-2l1-3.5l-3.5-1l-1.5,1.5l-0.5,2.5v2.5H810.2z M822.8,412.7c1-0.7,1.2-2,0.5-4
			c-0.3,0-0.5-0.1-0.5-0.3c0-0.2-0.2-0.3-0.5-0.3l-2-2.5l-0.5,5.1l1,1.5L822.8,412.7z M833.9,370.2c1-1.7,1.2-2.9,0.5-3.5v0.5
			l-0.5-2h-1l-1.5,3l-0.5-2c0.7-1.3,0.5-2-0.5-2l-0.5-2l-1.5,1.5c-1-1-1.9-1-2.5,0l-2.5,1l-1.5-0.5l-0.5,0.5c-1,1.7-1.2,2.7-0.5,3h2
			l2,2.5c1,1,1.7,1.4,2,1h0.5l1-0.5l0.5,2l3-1v-2.5L833.9,370.2z M823.8,356.5l2.5,0.5c0.7-2,0.8-3.5,0.5-4.6c-0.3-1-1-1.8-2-2.5
			l-2.5,2.5l-0.5,3.5L823.8,356.5z M825.3,423.3l2.5-2.5l1.5-4l-4-0.5l-2.5,4l1,3H825.3z M828.9,346.4l-0.5,1.5h1l2-3.5l-2-1l-3,0.5
			L828.9,346.4z M830.9,357c0.3,0.3,1,0.5,2,0.5c0-1.3,0.3-2.4,1-3l-3.5-3L830.9,357z M835.5,333.3l0.5-3l-0.5-3l-2.5-0.5l-2,2.5
			l0.5,3.5L835.5,333.3z M831.4,340.3c0.3,2.4,1.3,3.9,3,4.6c0.7-0.3,1.1-0.7,1.3-1c0.2-0.3,0.4-0.7,0.8-1l0.5,0.5l2.5,1l1-5.1
			l-3.5-1c0,0.3-0.2,0.7-0.5,1c-0.3,0.3-0.5,0.7-0.5,1c-0.7,0-1.2-0.2-1.5-0.5L831.4,340.3z M831.9,368.2h-0.5v0.5l0.5,0.5V368.2z
			 M839,360.6l0.5-2h-1v1l-3-0.5l-1,1.5l-1,2l2.5,0.5c1.3,0,2-0.3,2-1L839,360.6z M839.5,313h-1l-3.5,4.6l3,0.5c0-0.7,0.3-1.3,1-2
			L839.5,313z M836.5,338.8l1-2h-1l-1.5,1.5L836.5,338.8z M842.5,324.1h-1l-1,2h1L842.5,324.1z M846.6,344.9l0.5-2.5h-1l-1.5,1.5
			L846.6,344.9z M853.7,315.5l2-2l-0.5-2.5l-3,0.5l-2.5,4H853.7z M853.7,334.3l-2-3l-0.5,5.1L853.7,334.3z M862.3,322.1l-4,4
			l3.5-0.5L862.3,322.1z"/>
	</g>
	<g>
		<path class="st1" d="M301.7,655.3l1.5-0.8h1.1c-4.3,4.6-8.1,9.5-11.4,14.9c-10.7,16-19.9,33.3-27.6,52
			c-7.7,18.7-13,36.8-15.8,54.3c-1.5,10.7-1.7,21.5-0.6,32.6c1.1,11,3.9,20.9,8.4,29.7c4.4,8.8,10.7,15.9,18.7,21.5
			c8,5.6,18.1,8.4,30.3,8.4c8.1,0,17-2.4,26.7-7.2c9.6-4.8,19.4-11.6,29.1-20.4c9.8-8.8,19.3-19.1,28.6-31
			c9.3-11.9,17.6-25,24.9-39.2c1.8-3.3,3.6-5.3,5.3-5.9c1.8-0.6,3.3-0.5,4.6,0.4c1.3,0.9,2.2,2.2,2.7,4c0.5,1.8,0.5,3.2,0,4.2
			c-9.7,19.8-20.7,37.6-33.1,53.5c-12.4,15.9-26.7,28.6-42.7,38.3c0-0.3,0.1-0.6,0.4-1.1l-1.5-0.8l-1.5,0.4
			c-1.5,1.3-1.7,2.4-0.4,3.4c-4.6,2.5-9.2,4.8-13.9,6.9c-4.7,2-9.6,3.7-14.7,5l-1.1-1.1h-2.3l-0.4,1.9c-6.3,1-13.1,1.8-20.2,2.3
			c-11.7,0.2-22.6-1.7-32.8-5.7c-10.2-4.1-19.2-10.3-27-18.7c-10.4-11.9-17-26.4-19.8-43.4l0.8,0.4c1,0.5,1.8,0.8,2.3,0.8l0.8-1.9
			l-0.8-1.1c-1-0.5-1.4-0.8-1.1-0.8h-0.4c-0.3,0-0.6,0.1-1,0.2c-0.4,0.1-0.7,0.2-1,0.2c-0.8-5.8-1.1-11.6-1.1-17.3
			c0-5.7,0.2-11.7,0.8-18.1c0.8-9.9,2.4-19.9,5-29.9c2.5-10,5.7-19.9,9.5-29.5c3.8-9.6,8.1-18.9,12.8-27.8c4.7-8.9,9.6-17,14.7-24.4
			c14.7-19.8,30.3-35.3,46.8-46.5c16.5-11.2,33-16.8,49.5-16.8c3.3,0,6.5,0.3,9.7,0.8c3.2,0.5,6.4,1.1,9.7,1.9
			c7.1,1.8,13.1,4.5,18.1,8.2c4.9,3.7,8.9,8,12,12.9c3,4.9,5.1,10.4,6.1,16.4c1,6,1.3,12.1,0.8,18.5c-0.8,10.2-3.4,20.4-8,30.7
			c-4.6,10.3-10.3,19.4-17.3,27.4c-7,8-14.8,14.3-23.4,19c-8.6,4.7-17.4,6.7-26.3,5.9c-7.1-1.3-12.1-3.6-14.9-6.9
			c-2.8-3.3-4.4-6.9-5-10.7c-0.5-3.8-0.4-7.4,0.2-10.9c0.6-3.4,0.8-5.9,0.6-7.4c1.8,6.1,4.5,10.2,8.2,12.2c3.7,2,8.3,3,13.9,3
			c6.1,0,11.7-1.5,16.8-4.6c5.1-3,9.7-7,13.9-11.8c4.2-4.8,7.8-10.2,10.9-16.2c3-6,5.6-12,7.6-18.1c1.3-4.3,2.2-8.4,2.9-12.4
			c0.6-3.9,1.2-7.6,1.7-10.9c1-11.7-0.6-20.1-4.8-25.1c-4.2-5.1-10-7.6-17.3-7.6c-9.4,0-20.1,3.6-32.2,10.7
			c-12.1,7.1-23.3,16.4-33.7,27.8l-0.4-1.1h-0.8l-0.8,1.1L301.7,655.3z M222.1,762.3l-2.3,2.3h4.2l0.4-2.3H222.1z M222.1,782.5
			c-0.3,0.3-0.3,0.7-0.2,1.3c0.1,0.6,0.1,1.2-0.2,1.7l-1.9,1.1c0.2,0.8,0.8,1.1,1.5,1.1s2-0.5,3.8-1.5l0.4-2.7
			c-0.3-0.3-0.4-0.6-0.4-1.1H222.1z M219.8,793.5l1.5,1.9v-3.8h-0.8L219.8,793.5z M225.2,737.2c0,1.5,0.4,2.3,1.1,2.3
			c1.3,0,1.9-0.4,1.9-1.1l1.1-2.3l-2.3-0.4L225.2,737.2z M229.7,793.2l-1.9-0.4h-2.3l-0.4,2.3c0.2,0.8,0.9,1.1,1.9,1.1
			c0.5-0.5,1.1-0.8,1.9-0.8L229.7,793.2z M227.1,752.8v-0.4c-1,1-1.1,1.8-0.4,2.3l3.8,0.4c0.5-0.5,0.8-1,0.8-1.5
			c0.5-1.3,0.6-2.5,0.4-3.8H229l-1.5,1.5L227.1,752.8z M231.2,772.6l-1.9-0.4c-1.5,0-2.3,0.3-2.3,0.8l-0.8,3.4
			c0.2,0.3,0.9,0.4,1.9,0.4c0.2,0,0.6-0.1,1-0.2c0.4-0.1,0.7-0.2,1-0.2c1,0,1.6-0.2,1.9-0.8h0.4c0.3,0,0.4-0.1,0.4-0.2
			c0-0.1,0.3-0.2,0.8-0.2l1.5-0.4l0.4-1.5c-0.3-0.5-0.3-1.1,0-1.9c-2.5,0-3.8,0.4-3.8,1.1H231.2z M229,809.9l-1.9-0.4l-0.4,3
			L229,809.9z M227.8,821.3l3,0.8l0.4-3l-3,0.8L227.8,821.3z M230.1,790.9v-0.8l-1.1-0.8v0.8L230.1,790.9z M230.5,737.6
			c0,0.8,0.4,1.5,1.1,2.3c0,0.5,0.5,1.1,1.5,1.9c1.3-0.3,2.4-0.4,3.4-0.4l-0.8-2.3c-0.5-1-1.1-1.5-1.9-1.5v-1.1l-1.5-0.8l-1.1,0.8
			L230.5,737.6z M231.6,763.1c-0.8,0-1.1,0.5-1.1,1.5l2.3,0.8l0.8-2.3H231.6z M236.6,800.4c-0.8-1.3-1.3-2-1.7-2.1
			c-0.4-0.1-0.8,0.3-1.3,1.3c0,0.5-0.1,0.9-0.4,1.1l-0.8,3l1.9-0.4c0.2-0.3,0.8-0.4,1.5-0.4L236.6,800.4z M233.9,832.4
			c-0.3,1.3-0.3,2,0,2.1c0.3,0.1,0.9,0.2,1.9,0.2l1.1-2.3H233.9z M236.2,813.7c0.5-1,0.8-1.8,0.8-2.3l-2.7-0.4
			c0,1.8,0.2,2.7,0.8,2.7H236.2z M235.8,816.8c1,0,1.6-0.6,1.9-1.9H237L235.8,816.8z M238.5,769.2c0,0.3-0.1,0.6-0.2,1
			c-0.1,0.4-0.2,0.7-0.2,1l-1.5,0.8l-0.4,2.3h0.8c0-0.3,0.1-0.4,0.2-0.4c0.1,0,0.2-0.1,0.2-0.4l2.7-1.5l0.4-2.3L238.5,769.2z
			 M238.1,829h-1.9v3h2.3l0.8-2.3L238.1,829z M237.3,790.5l2.3,0.4l0.4-2.3l-1.9-0.8L237.3,790.5z M237.3,795.8v1.9h2.3
			c0.2-0.2,0.4-0.8,0.4-1.5v-1.9c-1.3-0.5-2-0.4-2.3,0.4L237.3,795.8z M238.9,813.4l-0.8,2.7h0.8l1.1-1.1L238.9,813.4z M240.8,779.1
			l1.9,2.7l2.3-0.4l-0.4-2.3H240.8z M242.3,742.5c0.8,0,1.4-0.5,1.9-1.5l-1.9-0.8l-0.8,1.9L242.3,742.5z M246.5,760l-2.7-3l-0.4,3
			H246.5z M245.3,737.9l0.4,3.4c0,0.3,0.4,0.4,1.1,0.4l-0.4,2.7h2.3l1.9-2.7c-0.8,0-1.4-0.3-1.9-0.8v-1.5c-0.5-0.5-1-0.8-1.5-0.8
			l-1.1-0.8H245.3z M249.1,761.2l-0.4,2.3h0.8l0.8-1.5v-3c-1.3,0.8-1.9,1.3-1.9,1.5L249.1,761.2z M249.5,768.8h-0.8v0.8
			c0,0.3-0.1,0.5-0.2,0.8c-0.1,0.3-0.2,0.6-0.2,1.1h0.8L249.5,768.8z M265.9,675.5c-0.5-0.3-0.4-0.8,0.4-1.5l-2.3-2.3l-0.8,2.3
			c0.5,1,0.5,1.8,0,2.3L265.9,675.5z M267.8,693.8l-1.1-0.8l-0.8,1.5l-1.1-1.1c-1,1.5-1.1,2.7-0.4,3.4l1.9-0.8v-0.4h1.5V693.8z
			 M265.5,684.2c0.2,1,0.8,1.4,1.5,1.1l0.4-0.8L265.5,684.2z M266.3,694.9l-0.4-0.4l-0.4,0.8l0.8,0.4V694.9z M270.9,877.3
			c1.8,0.8,2.7,0.5,2.7-0.8l0.8-0.4h-0.4l1.5-0.4v-0.4l0.8,0.4l-0.4-1.9c-0.5-0.5-1.3-0.8-2.3-0.8l-1.5,0.8c0,0.3-0.1,0.4-0.2,0.6
			c-0.1,0.1-0.2,0.3-0.2,0.6l-1.9,0.4L270.9,877.3z M275.4,650.4h-3l2.3,1.9L275.4,650.4z M273.5,661.4c-0.5,0.3-0.8,0.4-1,0.4
			c-0.1,0-0.2,0.4-0.2,1.1l1.5,0.4l1.5-1.1l-0.8-1.5h-0.8L273.5,661.4z M272.4,684.6l1.5,1.9l0.8-0.8L272.4,684.6z M274.3,682.7
			c0.3-0.3,0.5-0.4,0.8-0.4v-0.8l-1.5-0.8c-1.5,0.3-1.4,1.3,0.4,3L274.3,682.7z M278.8,654.9l-3.4,3.4c0,0.8,0.5,1.1,1.5,1.1
			c0.2,0,0.4-0.1,0.6-0.2c0.1-0.1,0.3-0.2,0.6-0.2l1.9,1.9c-0.3-0.2-0.4-0.5-0.4-0.8c-0.3-0.3-0.4-0.6-0.4-1.1
			c0.8-0.8,1.1-1.5,1.1-2.3L278.8,654.9z M278.8,666.7l-0.4-1.9l-2.7-0.8l-0.4,2.3c0.5,0.3,0.8,1,0.8,2.3l2.3-1.9H278.8z M279.2,674
			c-0.8-1.3-1.5-1.8-2.3-1.5c-0.8,0.3-1.2,0.6-1.3,1c-0.1,0.4,0.1,0.7,0.6,1V674l0.4,1.9c0.5,0,1-0.1,1.3-0.2c0.4-0.1,0.7-0.2,1-0.2
			L279.2,674z M276.2,875.4v0.4l-0.4,2.7c0.8-0.8,1.6-1,2.7-0.8v-2.3l-1.9-2.3L276.2,875.4z M277.7,872v1.9h3L277.7,872z
			 M278.8,664.8l2.3,0.8l-0.8-1.9L278.8,664.8z M280.4,640.1c-0.5,0-0.9,0.8-1.1,2.3l1.9,0.8c1.3,0,1.9-0.4,1.9-1.1l0.4-1.9
			c-1.3,0-2.2-0.1-2.7-0.4L280.4,640.1z M280,672.1l1.9,2.3l2.3-2.3c-0.8-1.8-1.5-2.3-2.3-1.5L280,672.1z M284.2,872.4
			c0.3-1.5,0-2.3-0.8-2.3h-1.9l-1.1,2.3h3.4c0.8,1.8,2,2.9,3.8,3.4l1.1-1.1c-0.5-0.5-0.8-0.9-0.8-1.1c0-0.3-0.1-0.5-0.4-0.8l0.8,0.4
			v-0.8l-0.8-0.8l-0.8,0.8c-0.5,0-0.8-0.1-0.8-0.4h-0.8l-0.8,0.4H284.2z M285.3,865.9c-2.3,0.5-3.4,1-3.4,1.5c-0.3,1,0.8,1.8,3,2.3
			c0.5-1.3,1.3-2,2.3-2.3L285.3,865.9z M289.9,655.3c0-1.3-0.4-1.9-1.1-1.9v-1.1l-1.9-0.8h-1.9l-1.1,2.7l2.3,1.9h1.5l1.9,1.9
			L289.9,655.3z M284.6,668.3l0.4,1.1h0.8l0.4-1.1v-1.1h-0.8L284.6,668.3z M286.8,872.8h0.8l-0.4-0.4h-0.4V872.8z M290.3,662.5
			l-0.8,2.3l3,0.4L290.3,662.5z M289.9,877.3l1.5,1.5h3l1.5-0.8l1.1-2.3l-2.7-1.9h-3L289.9,877.3z M292.9,654.9l-1.9,0.4l-0.8,2.3
			h2.3l1.5-1.5L292.9,654.9z M292.6,646.9l-1.9,0.8v0.8l1.5,0.8L292.6,646.9z M299.4,627.5c-1.8,1.3-2,1.9-0.8,1.9
			c0.3,0.3,0.9,0.4,1.9,0.4l1.9-0.4c0-1-0.1-1.6-0.4-1.9H299.4z M298.7,873.9l0.4,1.5h0.8l0.8-0.8v-0.8H298.7z M304.4,878.5
			c-0.5-2-1.1-3-1.9-3l-1.9,1.1v1.1l-1.9-0.4l1.9,2.7c0.5,0,1-0.4,1.5-1.1h1.9L304.4,878.5z M302.1,653l-0.8-2.3h-0.8L302.1,653z
			 M302.5,630.5c0,0.3-0.1,0.4-0.2,0.6c-0.1,0.1-0.2,0.3-0.2,0.6c-0.5,0.3-0.9,0.6-1.1,1.1c-0.3,0.5-0.1,1,0.4,1.5h2.7
			c0.5-1.3,0.6-2,0.4-2.3l0.4-0.8l-0.4-1.9L302.5,630.5z M304.4,654.5l0.8-0.4l-0.4-0.4C304.7,654,304.6,654.3,304.4,654.5z
			 M307.4,877.7c0-0.3,0.1-0.5,0.4-0.8l0.8-0.8h0.4c0.2,1.3,0.4,2,0.4,2.3c0,0.3,0.2,0.4,0.8,0.4h1.9l1.5-1.5L312,875l-2.3,1.5
			l-0.4-0.8h0.4c0.3-0.3,0.5-0.4,0.8-0.4l-1.5-1.5h-2.7l-1.5,1.5L307.4,877.7z M305.9,872l-0.4,0.8l1.5,0.4h1.5v-0.8L305.9,872z
			 M306.7,638.5l1.5-0.8V637l-1.9,0.8L306.7,638.5z M310.5,637.8l-2.7,0.8c0,0.3,0.2,0.6,0.6,1c0.4,0.4,0.7,0.7,1,1l-0.8,1.9
			l1.9-0.4l0.4-2.3l0.4-1.5L310.5,637.8z M308.9,875.4v0.8c0-0.3,0.1-0.4,0.4-0.4L308.9,875.4z M314.6,871.6l-0.4,0.8l6.1,0.4
			l0.4-0.8l-1.9-0.8c-0.3,0-0.4-0.1-0.6-0.2c-0.1-0.1-0.4-0.2-1-0.2L314.6,871.6z M321.9,879.2l-1.1-1.1l-3.8,0.8L321.9,879.2z
			 M340.9,864l-2.3-0.8v1.9c1,0.8,1.8,0.6,2.3-0.4V864z M344.7,860.6l-0.4,2.3h0.8L344.7,860.6z M351.6,859.8l2.7-1.9l-4.2,0.4
			l-0.8,1.5H351.6z M351.2,866.3c0-0.3,0.1-0.4,0.2-0.6c0.1-0.1,0.2-0.3,0.2-0.6l0.8-0.8c-0.5,0.5-1,0.8-1.5,1c-0.5,0.1-1,0.4-1.5,1
			H351.2z M350.1,856.8v0.8l1.1,0.4v-0.8L350.1,856.8z M358.4,853.7c0-0.8-0.1-1.3-0.4-1.5l-0.8-1.1H355c0,0.3-0.3,0.6-0.8,1.1v2.3
			l0.4,1.5c2,0,3.2-0.1,3.4-0.4L358.4,853.7z M355,728.8v0.8h1.5v-0.8H355z M360,727.7l-0.8-1.9c-1.3-0.5-2.2-0.1-2.7,1.1l-0.8,1.5
			h0.8l0.8-0.8c0.3,0.3,0.6,0.4,1.1,0.4L360,727.7z M361.5,846.1l1.5,2.7l1.9-0.8c-0.3-0.8-0.3-1.3,0-1.7c0.2-0.4,0.5-0.8,0.8-1.3
			c-0.3-0.3-0.4-0.4-0.4-0.6c0-0.1-0.1-0.3-0.4-0.6l-0.4-0.4h-1.9L361.5,846.1z M366.8,730.7c1.5,0,2.4-0.1,2.7-0.4
			c-0.3-0.8,0.1-1.5,1.1-2.3h-3.8V730.7z M369.9,720.8l-1.1-3.4l-0.8,2.3l-0.8,0.8v2.7l2.3-0.4L369.9,720.8z M373.3,712.8
			c-0.5,0.5-0.5,1.4,0,2.7c0.5,0.5,1.4,0.5,2.7,0l1.1-1.1c-0.3-0.5-0.4-1.3-0.4-2.3l-1.5-2.3c0,0.3-0.3,0.9-0.8,1.9
			c-0.8,0-1.1,0.3-1.1,0.8V712.8z M374.1,838.5v1.9c1,0.8,1.9,0.9,2.7,0.4c0.8,0,1.3-0.1,1.5-0.4l0.8-2.7l0.8-1.9
			c-1.5,0.5-2.3,1-2.3,1.5c0,0.3-0.1,0.4-0.2,0.4c-0.1,0-0.2,0.1-0.2,0.4l-0.8,0.4H374.1z M379,707.5l-1.5-0.4l-0.8,2.7l3-1.5
			L379,707.5z M377.9,702.5v1.9l0.8,1.1h0.8c0-0.2,0.2-0.6,0.8-1.1c0.5-1.3,0-1.9-1.5-1.9H377.9z M380.5,710.5l-0.8-1.5H379
			L380.5,710.5z M380.5,715.9v0.8l1.9,0.8l0.4-2.3l-1.9,0.8H380.5z M385.1,706.3l0.4-1.5h-0.8L384,706L385.1,706.3z M386.6,709.8
			l0.4,3.4c1-1.3,1.6-2,1.7-2.3c0.1-0.2,0.2-0.6,0.2-1.1H386.6z M392,684.6c-0.5,0-0.4-0.4,0.4-1.1c0.3-0.3,0.4-0.5,0.4-0.8
			c-1.3,0.3-2.2,0.6-2.9,1c-0.6,0.4-1.1,0.7-1.3,1c-0.8,0.3-1.1,0.8-1.1,1.5c0,0.3,0.2,0.6,0.6,1c0.4,0.4,0.7,0.7,1,1v2.7
			c2-1.5,2.7-2.7,1.9-3.4v-1.1L392,684.6z M394.2,647.7l-0.4,1.5c0,0.5-0.1,0.8-0.2,1c-0.1,0.1-0.1,0.4,0.2,1l1.5,0.4l1.5-0.4
			l0.8-1.9c0-1.3-0.6-1.9-1.9-1.9L394.2,647.7z M397.7,670.9c-0.3,0-0.5-0.1-0.8-0.2c-0.3-0.1-0.5-0.2-0.8-0.2l-0.4-1.1l-1.9-0.8
			l0.8,2.7c0.2,1,0,1.9-0.8,2.7c0.5,0,1,0.1,1.3,0.2c0.4,0.1,0.7,0.2,1,0.2c0.3,0.3,0.9,0.4,1.9,0.4v-1.9L397.7,670.9z M397.3,662.5
			v1.1l1.9-0.4l1.9-1.9l-1.5-1.9l-2.3-0.8c-1.3,1.5-1.7,2.5-1.1,3L397.3,662.5z M401.1,655.3v-0.8l-0.8-0.4l0.8-1.1l-2.3-0.8
			l-0.4,0.8l-1.9-0.8l1.5,4.2l1.9-1.9l-0.4,1.9L401.1,655.3z M400,654.5l0.4-0.4l-0.4-0.4V654.5z M401.5,681.6
			c1.5-0.3,2.3-0.9,2.3-1.9c0-0.5-0.5-1-1.5-1.5h0.4l-1.5-1.5c-0.5,1.3-0.8,2.1-0.8,2.5c0,0.4,0,0.7,0,1L401.5,681.6z M400.7,648.8
			v0.8l1.9-0.4l-0.8-1.5l0.4-1.1h-0.8v1.9L400.7,648.8z M403.4,644.3l3-2.3c-1.5-1.8-2.3-2-2.3-0.8c-0.5,0-0.8,0.5-0.8,1.5V644.3z
			 M406,660.6l3.4-0.4l-2.7-2.7l-0.8,2.3V660.6z M408.7,649.6v1.9c1.8-1.5,2-2.3,0.8-2.3l-1.1-0.8L408.7,649.6z"/>
		<path class="st1" d="M499.6,830.8c-4.4-1.2-8-3.5-11-6.8c-3-3.3-5.2-7-6.8-11.2s-2.7-8.8-3.3-13.8c-0.6-5-0.9-10-0.9-15
			c-1.2,3.7-3.2,8.3-5.9,13.6c-2.7,5.3-5.8,10.5-9.4,15.5c-3.6,5-7.3,9.3-11,12.9c-3.7,3.6-7.3,5.5-10.8,5.9
			c-3.7,0.3-8-0.3-12.9-1.9c-4.8-1.6-9.4-3.8-13.8-6.8c-4.4-3-8.1-6.4-11.2-10.3c-3.1-3.9-4.7-8-4.7-12.4c0-4.7,0.4-11.5,1.2-20.4
			c0.8-8.9,2.1-18.5,3.8-28.8c1.7-10.3,3.9-20.7,6.4-31.1c2.5-10.5,5.5-19.4,9-26.9c3.5-7.8,7.3-12.4,11.6-13.8s8.1-2.1,11.5-2.1
			c5.3,0,9.8,1.3,13.3,4c3.6,2.7,5.2,5.2,4.9,7.7c-2.5,5.3-5.3,12.4-8.4,21.3c-3.1,8.9-6.1,18.3-8.9,28.3c-2.8,10-5.3,19.7-7.5,29.3
			c-2.2,9.5-3.4,17.3-3.7,23.2c-0.9,10-0.6,16.4,1.2,19.2c1.7,2.8,3.9,3.6,6.5,2.3c2.6-1.2,5.4-3.8,8.4-7.7c2.9-3.9,5.4-7.6,7.2-11
			c1.6-2.8,3.6-7,6.1-12.6c2.5-5.6,5-11.5,7.4-17.6c2.5-6.1,4.9-11.9,7.2-17.6c2.3-5.6,3.9-10,4.9-13.1c0.6-2.2,1.2-4.3,1.9-6.3
			c0.6-2,1.5-4.5,2.6-7.5c1.1-3,2.4-6.6,4-11c1.6-4.4,3.7-9.8,6.5-16.4c2.2-5.3,5.5-9.1,10-11.2c4.5-2.2,9.3-3.3,14.3-3.3
			c6.2,0,11.5,1.4,15.9,4.2c4.4,2.8,5.3,6.2,2.8,10.3c-1.6,2.8-3.8,8.2-6.8,16.2c-3,8-6,17-9.1,27.2c-3.1,10.1-5.9,20.4-8.4,30.9
			c-2.5,10.5-4.1,19.6-4.7,27.4c-1.6,12.5,0.3,18.9,5.6,19.2c2.8,0.3,6.4-2.1,10.8-7.3c4.4-5.2,8.7-11.5,13.1-19
			c4.4-7.5,8.5-15.5,12.4-23.9c3.9-8.4,6.9-15.6,9.1-21.5c0.9-1.2,2.2-1.8,3.7-1.6c1.6,0.2,3,0.7,4.4,1.6c1.4,0.9,2.6,2.2,3.5,3.7
			c0.9,1.6,1.2,3,0.9,4.2c-2.5,9.7-6.3,19.9-11.2,30.7c-5,10.8-10.8,20.4-17.3,28.8c-6.6,8.4-13.7,14.9-21.5,19.4
			C514.7,832.2,507.1,833.3,499.6,830.8z M410.6,781.6v0.9l0.9,0.9l0.5-0.9L410.6,781.6z M411.8,786.3l4.7,0.9
			c0-1.6-0.2-2.5-0.5-2.8h-2.3L411.8,786.3z M414.4,734.8l0.5-2.3h-0.9l-0.5,1.9L414.4,734.8z M418.1,779.7
			c-1.6-0.9-2.7-1.3-3.3-1.2c-0.6,0.2-0.9,0.6-0.9,1.2H418.1z M418.9,726.3l-3.8,0.9v0.9L418.9,726.3z M415.1,807.8v2.8l2.3,0.5
			l1-3.3H415.1z M417,738.1H416l0.5,2.8h0.9L417,738.1z M417,788.6L416,791v2.8c1.9-1.2,2.9-2.1,3-2.6c0.2-0.5,0.1-1-0.2-1.6
			L417,788.6z M416,798.5c0.6,4.1,1.6,5.2,2.8,3.3L416,798.5z M420.8,709.5l-3.8,4.2h4.7L420.8,709.5z M417,795.2l2.8,0.5v-0.9
			L417,795.2z M421.2,740.4l-0.5-3.3h-0.9l0.5-1.9l-1.9,0.5l0.9,2.3l-1.9-0.5c1.6,3.1,2.6,4.7,3.3,4.7L421.2,740.4z M419,732.9
			l-1.4,1.4l0.5,0.9l2.3-1.4L419,732.9z M419,798.9l0.5-0.5l0.9-0.5l-1.9-1.9l-0.9,0.9l0.5,0.9l-0.5,0.9l1.4,0.5V798.9z
			 M422.7,727.3l-2.4-0.9l-1.9,1.9l-0.5,2.8c0-0.3,0.2-0.5,0.5-0.5s0.6-0.2,1-0.5l1,2.3h1c0-0.9,0.3-1.7,1-2.3L422.7,727.3z
			 M418.1,721.7c0.3,0,0.7,0.1,1.2,0.2c0.5,0.2,1,0.2,1.6,0.2l1.4,1.4l0.5-2.3c0-0.9,0.2-1.7,0.5-2.3l-1.9-0.5L418.1,721.7z
			 M419,798.9l0.5-0.5l-1.4-0.5L419,798.9z M419.5,738.5v-0.5H419L419.5,738.5z M422.3,796.1c0-0.9-0.8-1.4-2.3-1.4l-0.5,2.3
			c0.9,0.6,1.9,0.5,2.8-0.5V796.1z M426,812l3.3,0.5l-2.8-2.3c-1,0-1.4-0.5-1.4-1.4h-0.9l-1.4,1.4l1.4,2.8L426,812z M424.6,713.7
			l3.3-0.9v-0.9L424.6,713.7z M427.9,818.1H427l-0.5,1.9h0.9L427.9,818.1z M428.8,707.6c-2.5,0.6-2.8,1.7-0.9,3.3L428.8,707.6z
			 M428.9,705.3l2.3-2.8l-3.3,0.9v2.3L428.9,705.3z M428.4,813.9l0.5,3.7l2.3,0.5l1.9-0.5v-0.9c-0.3,0-0.6-0.2-0.9-0.5
			c0-0.3,0.1-0.7,0.2-1.2c0.2-0.5,0.1-0.9-0.2-1.2H428.4z M430.3,709.5l0.5-1.4h-0.9v0.5h-0.9v1.9h1.9L430.3,709.5z M432.6,823.3
			l-3.3-0.5l2.8,2.3L432.6,823.3z M436.4,704.3l-3.3-0.9l-0.5,2.8c1.6,1.6,2.8,1.4,3.7-0.5V704.3z M432.6,712.3
			c0.6,0,0.8-0.6,0.5-1.9L432.6,712.3z M435.4,818.6l-0.5,0.9l0.9,0.9l0.5-0.9L435.4,818.6z M436.8,697.8l-0.9,2.8l1.4,1.9
			c0.9-1.2,1.4-2,1.4-2.3L436.8,697.8z M435.9,822.3v0.9l1.9,0.5v-0.9L435.9,822.3z M440.6,819.5l-2.8-0.5l-1.4,2.3
			c2.2,0.6,3.6,0.2,4.2-1.4V819.5z M436.8,824.2v0.9l0.9,0.5l0.5-0.9L436.8,824.2z M440.1,693.6h0.9l0.5-2.8h-0.9L440.1,693.6z
			 M443.4,698.3l0.5-1.4l-1.4,1.4H443.4z M447.6,695.4l-0.9-1.9h-0.9l-0.5,1.9l-1.9,0.5h0.9h0.5L447.6,695.4z M446.2,695.4h-0.9
			l-0.5,0.5L446.2,695.4z M487.4,766.6c-2.5,0-3.7,1.4-3.7,4.2c0.3,0,0.8,0.5,1.4,1.4l1.9,0.5h1.9c0.3,0,0.6-0.2,0.9-0.5
			c0.3-0.3,0.8-1.1,1.4-2.3l0.5-3.7h-3.3L487.4,766.6z M494.4,759.1c1.6,0.3,2.6-0.5,3.3-2.3h0.5c0.3,0,0.6-0.1,0.9-0.2
			c0.3-0.2,0.8-0.2,1.4-0.2l-2.3-2.8l-2.3-1.9l-7.5,1.9l-1.4,3.7c0.3,0.3,0.6,0.5,0.9,0.5c0.3,0.3,0.8,0.5,1.4,0.5l0.5,0.9l-0.9,0.9
			c-1.3-0.6-2-0.3-2.3,0.9l-0.9,1.9l2.3,0.5l2.8-0.5v-3.3c0.6,0,1.2-0.1,1.9-0.2C493.2,759.2,493.8,759.1,494.4,759.1z M490.2,759.6
			h0.5l0.5-1.9l-1.4,1.4L490.2,759.6z M497.7,722.1c-0.9,0-1.9,0.2-2.8,0.7s-1.7,1.5-2.3,3l2.3,1.9l3.3,0.5c0.3,0,0.9-0.8,1.9-2.3
			l0.9-3.7l-2.8-0.9L497.7,722.1z M496.3,765.7l-1.9,0.9v0.9h1.9V765.7z M499.1,760.1l-2.3-0.9c-1.6,1.6-2,2.5-1.4,2.8l3.3,1.4
			L499.1,760.1z M508.9,716.5l-2.8-0.9l1.9-1.9c0.6-0.6,1.4-0.9,2.3-0.9v-0.9c-0.3,0-0.6-0.2-0.9-0.5l-0.5-1.9l-1.9-1.9l-4.2,0.5
			l-3.7,0.9l-0.5,3.3l0.9,1.4v0.9l-0.5,0.5c-0.9-0.3-1.7-0.2-2.3,0.5l-0.5,2.3l2.3,0.5l1.9-0.5l0.5-1.9v-1.4h2.8l1.9,1.9
			c-0.6,0.9-0.6,1.4,0,1.4l2.3,1.9l0.9-2.3V716.5z M499.6,714.6h1.4l0.5-1.9L499.6,714.6z M504.3,749.8l-3.3,2.8
			c2.8,0,4.4-0.2,4.7-0.5L504.3,749.8z M504.7,754l-3.3,3.7h4.7l0.9-2.3L504.7,754z M504.3,723.1l1.9,0.9l-0.5-1.4L504.3,723.1z
			 M506.6,774.6c-0.9-0.3-1.6,0.2-1.9,1.4c-0.3,1.3,0.5,1.9,2.3,1.9c1.2-0.9,1.9-1.9,1.9-2.8L506.6,774.6z M506.1,715.6l-0.5,0.9
			L506.1,715.6z M506.6,745.5l-0.9-0.5l0.5,3.7l3.3-2.3v-2.3L506.6,745.5z M515.5,710.9l-3.8,3.3l3.8,0.5l2.8-0.9L515.5,710.9z
			 M515,707.1l-2.3,0.9v0.9l1.4,0.9c0.9,0,2-0.6,3.3-1.9L515,707.1z M514.1,732.4c-0.9,1.6-1.1,2.5-0.5,2.8v0.5l2.3-0.5
			c0-0.3,0.2-0.7,0.5-1.2c0.3-0.5,0.5-1,0.5-1.6H514.1z M517.8,702.5l-0.9-0.5l0.5,3.7l4.2-3.3l-2.8-0.5L517.8,702.5z"/>
		<path class="st1" d="M562.3,692.6c1.6-5.9,4.8-10.2,9.8-12.9c5-2.6,10.1-4,15.5-4c4.4,0,8.2,0.9,11.5,2.8c3.3,1.9,4.1,4.5,2.6,8
			c-3.7,4.1-7,10-9.8,17.8h0.9c5-7.5,11.2-14,18.5-19.4c7.3-5.5,16-7.9,26-7.3c6.6,0,11.8,1.4,15.7,4.2c3.9,2.8,6.9,6.4,9.1,10.8
			c2.2,4.4,3.5,9.4,4,15s0.4,11.4-0.2,17.3c-0.9,10.3-2.7,20.1-5.1,29.5c-2.5,9.4-4.5,16.4-6.1,21.1c5.6,1.3,10.9-0.4,15.9-4.9
			c5-4.5,10-13,15-25.5c0.9-2.2,2.3-3.7,4-4.7c1.7-0.9,3.4-1.3,5.1-1.2c1.7,0.2,3.1,1,4.2,2.6c1.1,1.6,1.3,3.9,0.7,7
			c-5.3,18.4-12.6,30.5-21.8,36.3c-9.2,5.8-18.7,7.4-28.3,4.9c-2.2,4.7-5.1,9.7-8.7,15c-3.6,5.3-7.8,10.1-12.6,14.3
			c-4.8,4.2-10.4,7.5-16.6,9.8c-6.2,2.3-13.1,3-20.6,2.1c-5-0.6-9.1-2.6-12.2-6.1c-3.1-3.4-5.6-7.5-7.5-12.2h-0.9
			c-2.5,15.6-5.4,31-8.7,46.1c-3.3,15.1-7.5,28.9-12.6,41.2c-5.1,12.3-11.5,22.6-19,30.9c-7.5,8.3-16.9,13.2-28.1,14.8
			c-3.7,0.6-8,0.8-12.6,0.5c-4.7-0.3-9.2-1.4-13.6-3.3c-4.4-1.9-8.1-4.8-11.2-8.7c-3.1-3.9-5.2-9.1-6.1-15.7
			c-0.6-5.6-0.2-11.3,1.4-17.1c1.6-5.8,4.1-10.8,7.7-15.2c3.6-4.4,8.3-7.7,14-10.1c5.8-2.3,12.4-2.6,19.9-0.7c4.1,0.9,7,3.3,8.7,7
			c1.7,3.7,2.5,7.5,2.3,11.2c-0.2,3.7-0.9,6.6-2.3,8.7c-1.4,2-3.2,1.8-5.4-0.7c-2.8-3.1-6.2-5.1-10.1-6.1c-3.9-0.9-7.6-0.9-11.2,0.2
			c-3.6,1.1-6.8,3-9.6,5.9s-4.4,6.1-4.7,9.8c-0.6,6.9,0.9,11.9,4.7,15c3.7,3.1,8.3,4.7,13.6,4.7c7.5,0,14.7-2.7,21.5-8
			c3.7-2.8,7.4-9.8,11-20.8c3.6-11.1,7.2-24.2,10.8-39.3c3.6-15.1,7-31.5,10.1-49.2c3.1-17.6,6.1-34.4,8.9-50.3
			c2.5-14.7,4.8-28.2,6.8-40.7C558.5,710.6,560.5,700.4,562.3,692.6z M523.5,902.9h3.3v-0.9l-1.4-0.9L523.5,902.9z M523.9,910.4
			l2.3-0.9v-0.9L523.9,910.4z M531,913.6l-0.5-2.8h-0.9l-1.4,2.8l1.9,1.4L531,913.6z M529.5,889.3l-0.5,1.9c0.3,0.3,0.2,0.8-0.5,1.4
			l3.3-0.9l-0.5-2.8l0.9-1.9l-1.9,0.9l-1.4,0.5L529.5,889.3z M531,897.3l-1.9,0.5l-0.5,2.8h2.8c1.3-0.6,1.9-1.4,1.9-2.3L531,897.3z
			 M536.1,907.6l-1.9,0.9l-1.9-0.9l-0.9,2.8c0.9,1.6,1.9,1.9,2.8,0.9c0.6-0.6,0.9-1.1,0.9-1.4l1.4-0.5L536.1,907.6z M531.9,885.1
			l3.3,0.9l-2.3-2.8L531.9,885.1z M533.3,889.8v2.3l-0.9,0.5v0.9l0.9-0.5c0,0.6-0.2,1.1-0.5,1.4l0.9,0.5l0.5-1.4l1.9-0.5l-0.5-2.8
			L533.3,889.8z M536.1,869.6c-1.2,0-2.2-0.2-2.8-0.5l0.5,3.7L536.1,869.6z M536.1,901.9h3.7l-2.8-3.3h0.5v-0.9l-2.3-0.5l-1.4,3.3
			l2.8-1.4L536.1,901.9z M535.6,883.2l-0.5,2.3h0.9l0.9-1.9L535.6,883.2z M536.1,875.2c1.9,0.9,2.8,0.6,2.8-0.9L536.1,875.2z
			 M538.9,863.1h-2.3v0.9l1.9,0.5L538.9,863.1z M536.6,899.1l0.5-0.5l-0.5-0.5V899.1z M537,886h3.7l-2.8-3.7L537,886z M537.5,903.8
			l-0.5,2.8l2.8-0.5l0.5-3.3L537.5,903.8z M537.5,892.1c0.6,1.9,1.3,2.8,1.9,2.8l-0.5,2.3l1.9-0.9v-0.9l-0.9-1.4l1.9-0.5v-2.8h1.4
			l-0.5-2.3h-2.8l-0.9,1.9L537.5,892.1z M538.9,890.7h2.8l-0.5-0.5h-2.3V890.7z M539.4,893.5v0.9l0.5-0.5L539.4,893.5z M539.8,894.4
			h-0.5v0.5L539.8,894.4z M541.7,870.1h-0.9l-0.5,1.9l2.3,0.5v-0.9l-1.4-0.9L541.7,870.1z M542.2,847.6c-0.9,0.9-1.4,2.2-1.4,3.7
			c1.6,0,2.4-0.1,2.6-0.2c0.2-0.2,0.2-0.5,0.2-1.2L542.2,847.6z M542.2,865.9v0.9l0.9,0.5h0.5l1.9,0.9l0.9-3.3l-1.4,0.9H542.2z
			 M544.5,888.8l0.5,1.4h0.9v-1.4h1.4c0-0.6-0.5-1.3-1.4-1.9c0-1.3-0.2-2-0.5-2.3v0.5l-0.5-1.4h-0.9l-1.4,3.3
			c0.6,0.6,1.4,0.8,2.3,0.5L544.5,888.8z M545.5,860.3l-1.9,0.9l-0.5,2.8h2.8c0.6-1.6,1.3-2.3,1.9-2.3l-1.9-0.5L545.5,860.3z
			 M545.5,865.9H545l-1.9,1.4h0.5L545.5,865.9z M545.5,856.5h2.8c0-1.6-0.3-2.3-0.9-2.3l-2.8-0.5L545.5,856.5z M547.8,871.5l1.9-1.9
			l-2.3-2.3l-2.3,1.9c0,1.6,0.6,2.3,1.9,2.3H547.8z M545.5,880.4l0.5,2.3h0.9l0.9-1.9L545.5,880.4z M551.1,845.3
			c2.5,1.9,3.7,1.9,3.7,0v-2.3l-1.9-0.5v0.9h0.9l-0.9,2.3L551.1,845.3z M557.2,751.2h2.8c0.9,0,1.4-0.8,1.4-2.3l-1.9,0.5
			L557.2,751.2z M558.6,754.4l-0.9,2.3l2.3-0.9L558.6,754.4z M559,758.7h0.9l0.5-1.9h-0.9L559,758.7z M561.9,737.1l0.5,0.5h-1.9
			l2.8,3.3l0.9-2.8l-0.5-1.9l-1.9-0.5V737.1z M565.6,745.1l-3.3,0.5v2.8h2.8l0.5-2.3V745.1z M563.7,756.8l-0.9,4.7l1.9,1.4l0.9-0.5
			L563.7,756.8z M566.1,717.9h-0.9l-1.9-0.9v2.8L566.1,717.9z M563.3,732.9l1.9,1.4l0.9-0.9l-1.9-1.9L563.3,732.9z M565.1,741.8
			c0.3,0.3,0.2,0.9-0.5,1.9c1.6,0,2.3-0.8,2.3-2.3l0.9-1.4v-1.9l-2.3-0.5l-0.5,2.3l-0.9,1.4L565.1,741.8z M569.8,755.8
			c-0.3,0-0.7,0.1-1.2,0.2c-0.5,0.2-0.9,0.2-1.2,0.2l-2.8,2.3l3.3,0.5l2.3-1.9h0.5v-0.9L569.8,755.8z M568.4,710.9h-2.8v2.3l2.3-0.9
			L568.4,710.9z M566.1,723.1c1.6,1.6,2.4,2.1,2.6,1.6c0.2-0.5,0.4-1.3,0.7-2.6L566.1,723.1z M569.8,749.8h3.7l-3.3-2.8l1.4-1.4
			l-2.8-0.5l-2.3,0.5l0.9,3.3l2.8-1.9L569.8,749.8z M567,731.5v2.3h0.9l0.5-1.4V732L567,731.5z M569.8,695.4
			c-1.3,1.3-1.9,2.5-1.9,3.7c1.9,0.6,2.8,0.2,2.8-1.4L569.8,695.4z M568.4,732.4l2.3,1.9l0.9-0.9l-1.4-1.9L568.4,732.4z
			 M569.8,739.9l0.5,1.9c0.3,0.9,0.8,1.4,1.4,1.4v3.3l3.7-3.3l-2.8-0.9c0.6-1.2,0.9-2.5,0.9-3.7h1.9l-0.5-2.3h-2.8l-0.9,2.3
			L569.8,739.9z M571.7,718.4h-0.9l-0.5,1.9h0.9L571.7,718.4z M571.2,714.2v0.9c0.6,0.6,1.2,0.8,1.9,0.5l0.5,1.9l2.8-2.8H574
			l0.5-0.5H571.2z M571.2,738.5h2.3v-0.5h-0.9C572,738.1,571.5,738.2,571.2,738.5z M571.2,752.6v2.3l2.8-0.9v-4.2L571.2,752.6z
			 M573.6,758.7l-2.3-0.5l0.9,1.9L573.6,758.7z M574,708.6l-2.3,0.5l0.9,2.8h3.3c0.3-0.3,0.5-1.1,0.5-2.3L574,709V708.6z
			 M572.2,741.8l-0.5,1.4l0.5-0.5l0.5-0.5L572.2,741.8z M573.1,704.3h2.8c0-1.6-0.2-2.5-0.5-2.8h-2.8L573.1,704.3z M574,714.6
			l-0.9-0.5v1.4L574,714.6z M576.4,738.1l2.3,0.5c-0.3,0-0.5-0.2-0.5-0.5c-0.3-0.3-0.5-0.6-0.5-0.9c0.6-0.6,0.5-1.4-0.5-2.3
			c0.6-0.6,0.6-1.4,0-2.3l-2.8-0.5v2.3c0.3,1.3,0.9,1.6,1.9,0.9V738.1z M577.3,719.3l2.8-2.3l-3.7-0.9L575,717
			c-0.3,1.6,0.2,2.3,1.4,2.3H577.3z M576.8,728.2v2.3h0.9l0.5-1.4L576.8,728.2z M579.7,695.4c1.9-0.6,2.8-1.4,2.8-2.3l0.5-2.3
			l-2.3-0.5c-2.2,1.6-2.5,2.3-0.9,2.3V695.4z M590.9,735.7c-2.5,9.4-4.5,17.9-6.1,25.5c-1.6,7.7-2.7,15.5-3.3,23.6
			c-0.6,7.5-0.4,14,0.7,19.4c1.1,5.5,3.8,8.5,8.2,9.1c6.9,0.6,12.8-2.5,17.8-9.4c5-6.9,9.1-15.5,12.4-25.8s5.9-21.1,7.7-32.3
			c1.9-11.2,3.1-20.9,3.7-29c0.3-7.2-0.3-12.2-1.9-15.2c-1.6-3-3.7-4.4-6.6-4.4s-5.9,1.3-9.4,4c-3.4,2.7-6.7,6-9.8,10.1
			c-3.1,4.1-5.9,8.3-8.4,12.6C593.5,728.4,591.8,732.3,590.9,735.7z M611,819.1h-3.7l-3.3,2.3l1.9,1.9h3.3c0-0.6,0.2-1.1,0.5-1.4
			l1.9-0.5l0.9-1.9L611,819.1z M618.5,813.4c-2.8,0.6-4.2,1.6-4.2,2.8l-0.9,0.9l0.5,0.9l3.3-2.3L618.5,813.4z M629.3,808.8
			c0.9-1.6,1.1-2.6,0.5-3.3l-3.3,0.5v-0.5c0.6-0.6,0.8-1,0.5-1.2c-0.3-0.2-0.5-0.4-0.5-0.7c-0.6,0-1.3,0-1.9,0
			c-0.6,0-1.3,0.2-1.9,0.5h0.5c-0.9,0.9-1.9,1.4-2.8,1.4h-1.9l-0.9,0.5c-1.3,1.3-1.3,2.2,0,2.8c0.3,0,0.6-0.1,0.9-0.2
			c0.3-0.2,0.6-0.2,0.9-0.2l0.9,1.9c0.3,0.3,1.1,0.5,2.3,0.5c0.3-0.6,0.9-0.9,1.9-0.9c1.9,0,3-0.3,3.3-0.9c0.3-0.6,0-1.2-0.9-1.9
			h0.5L629.3,808.8z M620.9,798.9c2.2-0.6,3.1-1.1,2.8-1.4c0.9-1.6,0.5-2.7-1.4-3.3l-2.3,4.2L620.9,798.9z M626,796.6
			c1.2,1.3,2.7,1.9,4.2,1.9c0.3-0.3,0.5-1.1,0.5-2.3l-2.3-0.9L626,796.6z M627.4,790l0.9,0.9l0.9-2.3h-2.3L627.4,790z M635.8,800.3
			v-2.8l-4.2,1.9c0,0.3-0.2,0.5-0.5,0.7c-0.3,0.2-0.5,0.4-0.5,0.7l-0.9,0.5v0.9h1.9c1.2,0,1.9-0.6,1.9-1.9H635.8z M635.4,779.7
			l1.4-4.2L634,775l-2.3,1.4l-0.9,3.3H635.4z M630.7,785.8c0.9,1.9,1.7,3,2.3,3.3c1.2-0.6,2-1.2,2.3-1.9h3.7V783h-3.7l0.9-1.4h-0.9
			c0,0.3-0.3,0.8-0.9,1.4l0.5-0.5l-2.3,1.9L630.7,785.8z M632.1,784.9h0.5v-0.5L632.1,784.9z M632.6,784.9l1.9-0.9v0.5
			C634.1,784.7,633.5,784.9,632.6,784.9z M636.8,702l-0.9-1.4h-0.9l-0.5,1.4l-0.9,3.3l2.8-2.3L636.8,702z M635.4,783.5V783h-0.5
			c0,0.3-0.1,0.5-0.2,0.5c-0.2,0-0.2,0.2-0.2,0.5L635.4,783.5z M639.6,699.2l0.5-3.3c-0.3-0.3-1.4-0.5-3.3-0.5v0.9h-0.5l-1.4,1.9
			L639.6,699.2z M636.8,706.7l-0.9,0.9l1.4,1.9l0.9-0.9L636.8,706.7z M637.2,696.4h-0.5v1.9l0.5,0.5V696.4z M641.5,761.5l-4.7,4.7
			v0.9c0.9-0.3,1.7-0.5,2.3-0.5c0.3,0,0.7-0.1,1.2-0.2c0.5-0.2,0.9-0.2,1.2-0.2V761.5z M638.6,691.2l2.3,2.8l0.5-3.7L638.6,691.2z
			 M643.8,769.9l-3.7,4.2c0.3,0,0.9-0.1,1.6-0.2c0.8-0.2,1.3-0.2,1.6-0.2L643.8,769.9z M640.5,703.4l0.5,0.5c0,1.3,0.5,1.9,1.4,1.9
			l-0.9-1.4l1.9,1.4l0.9-0.9l-1.4-1.4H640.5z M642.9,698.7v-0.5h0.5l0.9,1.9l0.9,1.4h0.9l0.5-1.9l-1.4-1.9v0.5l-0.5-2.3h-0.9
			l-0.9,0.9l0.5-1.4l-2.3,0.9l0.5,1.9L642.9,698.7z M641,703.4v0.5l0.5,0.5L641,703.4z M648,690.8l-1.4,3.7l-0.9-1.4h0.5v-0.5
			c0-0.3,0.5-1.2,1.4-2.8l-2.3-0.9l-1.9,1.9h0.5l-2.3,0.9v0.9c0.3-0.3,0.6-0.5,0.9-0.5c0,0.3,0.2,0.6,0.5,0.9
			c0.9,1.3,2.5,1.9,4.7,1.9l0.9,0.5l1.9-0.9c-0.6-1.9-1.3-2.8-1.9-2.8L648,690.8z M642.9,698.3v-1.4l-0.5,0.9L642.9,698.3z
			 M644.7,786.7l-0.5-2.3h-0.9v1.9L644.7,786.7z M649.4,717c0.6-0.3,0.9-0.8,0.9-1.4l2.3-1.4l0.5-1.4l-1.9-2.3l-2.3,1.9v2.3
			l-0.9-0.5l-2.3,3.7l2.3,0.9L649.4,717z M649,704.8l-1.9,0.5v0.9l2.3,0.5l0.9-2.3L649,704.8z M650.8,777.4l-2.3-2.8l-0.9,5.6
			L650.8,777.4z M649.4,716.5l0.9-0.9v-0.9H649L649.4,716.5z M653.6,762.9l0.9-3.3l-3.3,0.5l-0.5,2.8H653.6z M651.3,705.3v0.9
			l1.9,0.5l1.9-0.5v-0.9l-1.9-0.5l-1.4,0.5H651.3z M656,697.3l-3.3,3.3l2.8-0.5L656,697.3z M656.9,704.8v-2.3H656l-0.9,2.8
			L656.9,704.8z M656.9,712.8H656l-0.9,1.9h0.9L656.9,712.8z M657.8,707.6l-0.5-1.4h-0.9l-0.9,3.3l2.8-0.9L657.8,707.6z"/>
		<path class="st1" d="M785.2,746.5c-1.9,7.5-4.9,16.2-9.1,26c-4.2,9.8-9.4,19.1-15.5,27.9c-6.1,8.7-13.1,16.2-21.1,22.2
			s-16.8,9.1-26.5,9.1c-6.2,0-11.6-0.7-15.9-2.1c-4.4-1.4-8.7-4-13.1-7.7c-5.3-5-8.7-11.9-10.3-20.8c-1.6-8.9-2-18.3-1.4-28.3
			c0.6-6.9,1.7-14,3.3-21.5c1.6-7.5,3.3-14.8,5.2-21.8c1.9-7,3.9-13.5,6.1-19.4c2.2-5.9,4.2-10.8,6.1-14.5c0.6-2.2,2.7-3.7,6.3-4.7
			c3.6-0.9,7.4-1.4,11.5-1.4c5.3,0,10.3,0.9,15,2.8c4.7,1.9,5.9,4.8,3.7,8.9c-0.9,2.5-2.7,6.9-5.1,13.1c-2.5,6.2-5,13.4-7.5,21.5
			c-2.5,8.1-4.9,16.6-7.3,25.5c-2.3,8.9-3.8,17.1-4.4,24.6c-0.6,7.2-0.2,13.3,1.4,18.5c1.6,5.2,4.7,8.2,9.4,9.1
			c5.3,1.3,10.3,0.2,15-3.3c4.7-3.4,9.1-8.1,13.1-14c4.1-5.9,7.9-12.6,11.5-20.1c3.6-7.5,7.1-15,10.5-22.5l4.7-9.8
			c0.9-1.2,2.3-2,4-2.3c1.7-0.3,3.4-0.3,4.9,0c1.6,0.3,3,0.9,4.2,1.9C785,744.1,785.5,745.2,785.2,746.5z M683.6,780.2
			c0,2.5,0.6,3.3,1.9,2.3c0.6,0,0.9-0.8,0.9-2.3l-0.9-1.4h-0.9l-0.5,1.4H683.6z M683.6,787.2l0.5,0.5l0.9-1.4h-0.9L683.6,787.2z
			 M684.1,790h0.5l0.5-1.9h-0.9V790z M693,781.1l-0.9-1.9h-0.9l0.5-2.3l-1.4-2.3h-3.3l1.9,2.3c-0.3,0.3-0.5,0.9-0.5,1.9l2.8,0.5
			l-0.5,1.4L693,781.1z M689.2,790.5h-0.9l-0.5,1.4v2.3h0.9L689.2,790.5z M688.7,765.7h0.9l-1.4,1.9l2.3,0.9l0.5-2.3l-0.5-2.3
			l-2.3,0.9L688.7,765.7z M690.1,763.3l3.7-3.3c-0.9,0-1.7-0.3-2.3-0.9c0-1.2-0.9-0.9-2.8,0.9l1.4,1.9V763.3z M692,767.1l-2.8,3.3
			h2.8v0.9l-0.9,1.9c0.6,0,1.6-0.6,2.8-1.9l1.9,0.5c-0.3-0.3-0.5-0.6-0.5-0.9c-0.3-0.3-0.5-0.6-0.5-0.9h1.4l-0.5-2.8l-3.7-0.5V767.1
			z M694.4,745.5l0.5-3.3l-2.8,0.5l-0.5,2.8H694.4z M692,767.1v3.3c0.6,0,0.9-0.3,0.9-0.9L692,767.1z M695.3,787.7l-0.5-2.3
			l-2.3,2.3c-0.3,0.3-0.2,0.8,0.5,1.4L692,790l1.9,0.9c0-0.3,0.1-0.6,0.2-0.9c0.2-0.3,0.2-0.6,0.2-0.9l1.4-0.5L695.3,787.7z
			 M695.8,774.6l-3.3,0.5l1.9,2.8l1.9-0.5l-0.5,3.3h2.8l0.5-2.3l-2.3-0.5l-0.5-0.5l1.9-0.5L695.8,774.6z M697.2,735.7l-3.7-0.5
			l2.8,2.3L697.2,735.7z M693.9,759.1l0.5,2.3h0.9l2.3-2.3H693.9z M696.7,761l2.3,2.3l1.4-2.8l-1.9-0.9h-0.5L696.7,761z
			 M697.6,792.4h0.9l-0.9-1.9h-0.9L697.6,792.4z M699,766.6l2.3,0.9H700c-0.9-0.3-1.9,0.3-2.8,1.9l0.5,1.9c0.6,0.6,1.4,0.9,2.3,0.9
			l1.4-4.7l1.4-2.3H700L699,766.6z M697.6,782.5l-0.5,3.3h0.9l0.5-1.4l0.9-1.9H697.6z M699.5,748.4l-1.9,0.5v0.9l0.9,0.9
			L699.5,748.4z M697.6,826.1c0.9,0,1.6-0.1,1.9-0.2c0.3-0.2,0.8-0.4,1.4-0.7h-0.5l1.4-0.9v-0.9c-2.2,0-3.4,0.2-3.7,0.5L697.6,826.1
			z M698.1,782.5v1.9h0.5L698.1,782.5z M701.4,771.3c-1.6,1.9-2.3,3-2.3,3.3c0,0.3,0.5,0.5,1.4,0.5L701.4,771.3z M700.9,718.4
			c-1.9,0-2.3,0.8-1.4,2.3c0,1.3,0.8,1.9,2.3,1.9l0.5-3.3L700.9,718.4z M701.4,741.3c0.9,0,1.7-0.2,2.3-0.5v0.5l2.3,0.5l-1.4-1.9
			c0.3,0,0.6-0.2,0.9-0.5h-0.9l-0.9-1.4v1.4h-2.8l-0.5,0.9L701.4,741.3z M700.4,746.9h2.3V746l-1.9-0.9L700.4,746.9z M703.7,766.1
			l1.4,0.5l1.9-0.5v-0.9c-0.3,0-0.5-0.1-0.5-0.2c0-0.2-0.2-0.2-0.5-0.2c0-0.6-0.5-0.9-1.4-0.9V761h0.5l-2.8-2.3l-0.5,3.7
			c0,1.6,0.8,2.3,2.3,2.3L703.7,766.1z M706.5,733.4l-1.4-1.4c-1.6,0.9-2.3,1.6-2.3,1.9l0.5,2.3c0.3,0.3,0.8,0.5,1.4,0.5
			c0.3,0,0.5,0.2,0.5,0.5h0.9c-0.3,0.6-0.2,0.4,0.5-0.7c0.6-1.1,1.2-1.9,1.9-2.6L706.5,733.4z M703.3,756.3l2.3,2.3l0.9-0.9
			L703.3,756.3z M704.7,828c0.6,0.3,1.3,0.6,2.1,0.9c0.8,0.3,1.6,0.2,2.6-0.5c0-0.9,0.2-1.7,0.5-2.3v-1.9l-4.2-0.5l-2.3,1.4v2.3
			L704.7,828z M704.7,739.9v-0.5h-0.9v1.4L704.7,739.9z M704.7,728.2h3.3l-0.9-2.3c-0.6-1.6-1.3-2.3-1.9-2.3l-0.9,2.3L704.7,728.2z
			 M705.1,742.7c0.3,2.2,0.9,3.1,1.9,2.8h0.9l1.4-2.8l-1.9-2.3L705.1,742.7z M706.5,822.3l1.9-0.9v-0.9l-2.8-0.5v1.9L706.5,822.3z
			 M726.2,661.7c-2.2,3.4-4.7,4.9-7.5,4.4s-5-2.9-6.6-7.3c-0.9-2.5-1.7-5.5-2.3-8.9c-0.6-3.4-0.8-7.2-0.5-11.2
			c0.3-4.7,1.5-9.3,3.5-13.8c2-4.5,4.8-8.4,8.2-11.7c3.4-3.3,7.6-5.6,12.4-7c4.8-1.4,10.4-1.5,16.6-0.2c4.1,1.3,6.3,3.2,6.8,5.9
			c0.5,2.7-0.1,5.7-1.6,9.1c-1.6,3.4-3.9,7-7,10.8c-3.1,3.7-6.2,7.3-9.4,10.8c-3.7,4.4-6.2,7.7-7.3,9.8
			C730.5,654.6,728.7,657.7,726.2,661.7z M712.2,821.4l2.3-0.9c-0.3-1.2-1.1-1.9-2.3-1.9c-0.6,0-1.1,0.6-1.4,1.9L712.2,821.4z
			 M711.7,716.5c2.5,0.6,3.7,0.2,3.7-1.4l-0.9-1.9h-0.9l-0.9,1.9L711.7,716.5z M715.9,816.7l1.4,0.5l1.9-0.5v-0.9l-1.4-0.9h-1.9
			V816.7z M718.7,634.1v-2.8c-1.9,1.9-2.5,2.8-1.9,2.8H718.7z M722.5,821.9c-0.6-0.6-0.9-1.1-0.9-1.4c0.3-0.6-0.6-0.6-2.8,0
			c-1.6,0.9-1.7,1.7-0.5,2.3v-0.5l0.5,2.3c0.6,0.3,1.2,1.1,1.9,2.3l2.3-2.3L722.5,821.9z M721.1,624.7l-3.3,0.5l2.3,2.8l0.9-1.9
			V624.7z M720.6,637.4l0.9-3.3c-2.2,1.3-3.3,2-3.3,2.3L720.6,637.4z M723.4,643v-0.9l-0.5-0.5l0.9-0.5l0.5-2.8h-3.7
			c-0.9,0.9-1.6,1.9-1.9,2.8v-0.5c-0.6,0.3-0.5,1.1,0.5,2.3H723.4z M722.5,619.6c-0.6-0.6-1.4-0.3-2.3,0.9l0.5,1.9l1.4-0.5l1.9,0.5
			l0.5-2.3L722.5,619.6z M723.4,631.3l-0.5-1.4H722l-0.5,0.5c0,0.3-0.2,0.5-0.5,0.5L723.4,631.3z M722.9,615.4l-0.5,2.3l4.7,0.5
			c-0.3-1.9-0.8-2.8-1.4-2.8h-0.9v-0.5L722.9,615.4z M722.5,819.1c2.8,0,3.7-0.5,2.8-1.4l0.9-1.9l-3.3,0.5c-0.3,0.3-0.5,0.9-0.5,1.9
			V819.1z M726.2,636.9l-0.5-0.5l1.9-0.9l0.5-2.8h-2.3c0,0.6-0.1,1.1-0.2,1.4c-0.2,0.3-0.2,0.8-0.2,1.4l-1.9,1.4l1.4,1.4
			c0.6,0.6,0.5,1.1-0.5,1.4c0.6,0.9,1.6,1.1,2.8,0.5c0.6-0.9,0.6-1.7,0-2.3v-0.9H726.2z M727.1,624.7v-3.3l-2.8-0.5l1.4,2.3
			L727.1,624.7z M725.3,641.1l-0.9,3.3l1.4-0.5L725.3,641.1z M724.8,626.1c-0.3,1.3-0.2,1.9,0.5,1.9l1.9-0.5L724.8,626.1z
			 M725.3,823.3c0.6,0,1.6,0.3,2.8,0.9c-0.3,0.6-0.2,0.8,0.5,0.5c0.6-0.3,1.2-0.8,1.9-1.4l0.5-2.8l-2.3,0.9h-1.9L725.3,823.3z
			 M728.1,627.5h1.4v-1.4h-2.3L728.1,627.5z M729,639.7l-1.4,3.7c0.3-0.3,0.5-0.5,0.7-0.5c0.2,0,0.4-0.2,0.7-0.5
			c0.3,0,0.5-0.2,0.5-0.5L729,639.7z M728.5,614.9h2.8V613l-2.3,0.5L728.5,614.9z M728.5,816.2h0.9l0.9-1.9h-0.9L728.5,816.2z
			 M730.4,633.2h0.9l0.9-2.8l-2.3,1.9L730.4,633.2z M730,644.4l0.9,0.9h0.5v-1.9h-0.9L730,644.4z M737.4,618.6l-2.3-2.3l-0.5,2.3
			l-0.5-1.9l-2.8,0.5l-0.9,0.9l0.5,2.3h2.3v-0.9l1.4-0.5v1.4l-0.9,1.4c0.9,0,1.7-0.3,2.3-0.9l0.5-1.9L737.4,618.6z M731.4,633.6
			c1.2,0.6,1.9,0.8,1.9,0.5v-1.9l-1.4,0.5L731.4,633.6z M732.8,636.4l-1.4,1.9l0.5,1.4h0.9l0.9-3.7L732.8,636.4z M734.2,641.1
			l-0.5,0.5c-0.3,0-0.5,0.2-0.5,0.5l2.3,3.3l0.9-2.8c0-0.3,0.2-0.5,0.5-0.7c0.3-0.2,0.5-0.4,0.5-0.7v0.5c0.3-0.3-0.2-0.9-1.4-1.9
			h-1.9V641.1z M735.1,619.1l-0.5-0.5v0.5H735.1z M736.5,634.1l-0.5,2.3l1.9-0.5v-1.9H736.5z"/>
		<path class="st1" d="M867.1,787.2c-0.9,10.6-0.2,18.3,2.1,22.9s6.5,3.9,12.4-2.3c3.4-4.1,6.7-9.2,9.8-15.5c3.1-6.2,6-12.6,8.7-19
			c2.6-6.4,4.9-12.5,6.8-18.3c1.9-5.8,3.3-10.4,4.2-13.8c0.3-1.6,1.3-2.6,3-3.3c1.7-0.6,3.7-0.9,5.9-0.9c2.2,0,4.1,0.4,5.9,1.2
			c1.7,0.8,2.6,1.8,2.6,3c-2.5,9.7-5.8,19.9-9.8,30.7c-4.1,10.8-8.7,20.7-14,29.7c-5.3,9.1-11.5,16.5-18.5,22.2
			c-7,5.8-14.9,8.4-23.6,7.7c-6.6-0.3-11.9-1.7-16.2-4.2c-4.2-2.5-7.7-5.8-10.3-9.8c-2.7-4.1-4.7-8.7-6.1-14
			c-1.4-5.3-2.4-10.8-3-16.4c-1.6,3.4-4.1,7.8-7.5,13.1c-3.4,5.3-7.5,10.5-12.2,15.5c-4.7,5-9.5,9.1-14.5,12.4
			c-5,3.3-9.7,4.4-14,3.5c-4.1-0.9-9.1-2.8-15.2-5.6c-6.1-2.8-10.2-7.2-12.4-13.1c-1.9-5.3-2.3-12-1.4-20.1
			c0.6-8.4,2.6-17.7,5.9-27.9c3.3-10.1,7.4-20.1,12.4-29.7c5-9.7,10.5-18.5,16.6-26.5c6.1-8,12.4-14,19-18c7.8-5,16.4-8.7,25.8-11
			c9.4-2.3,18.3-2.7,26.7-1.2c8.1-32.8,15.8-57.6,22.9-74.4c1.9-3.1,4.6-5.7,8.2-7.7c3.6-2,7.1-3,10.5-3c3.1,0,6.2,0.5,9.1,1.6
			c3,1.1,5.4,2.6,7.3,4.4c1.9,1.9,3.1,4,3.7,6.3c0.6,2.3,0.2,4.9-1.4,7.7c-3.7,8.1-6.9,15.2-9.4,21.3c-2.5,6.1-4.5,11.3-6.1,15.7
			c-1.6,4.4-3.3,9.5-5.1,15.5c-1.9,5.9-4.1,13-6.6,21.1l-7,28.1c-3.4,14-6.1,25.5-8,34.4c-1.9,8.9-3.4,15.9-4.4,21.1
			c-1.1,5.1-1.8,8.8-2.1,11c-0.3,2.2-0.5,3.7-0.5,4.7V787.2z M764.6,809.2l-0.5,2.3c0.3,0.9,1.1,0.9,2.3,0c0.3,0,1.2-0.8,2.8-2.3
			l-2.3-1.4L764.6,809.2z M768.3,814.4h-2.8l-1.4,3.7L768.3,814.4z M764.6,803.1c1.6,0,2.7,0.3,3.3,0.9c1.9-0.6,2.8-1.6,2.8-2.8
			l-1.9-1.9l-3.7,1.9L764.6,803.1z M767.4,821.4l0.5,0.9v3.3l3.3-3.3c-1.6-0.3-2.2-0.6-1.9-0.9v-2.3L766,820l-0.5,0.9L767.4,821.4z
			 M771.2,793.8v0.9h2.3v-0.9H771.2z M777.7,805.5l-3.3,1.4v0.9c2.2,0,3.3-0.5,3.3-1.4V805.5z M778.6,796.1l0.5-0.9l-2.3-1.4
			l-1.4-0.5l-0.5,0.9L778.6,796.1z M774.9,814.4c3.7,0.9,5.2,0.9,4.2,0h0.9l-0.5-3.3l-2.8,0.5c0,0.9,0.2,1.4,0.5,1.4h-1.9
			L774.9,814.4z M774.9,820.9v0.9l1.4-0.5v-0.5l1.9,0.5l-0.5-1.9h-0.9l-0.9,0.9L774.9,820.9z M775.8,743.2l0.9,0.5l0.9-1.4h-0.9
			L775.8,743.2z M776.3,820.5h-0.5v0.5h0.5V820.5z M779.1,814.4l-1.4-1.4h-0.5C777.2,813.3,777.9,813.8,779.1,814.4z M779.6,728.7
			v-0.9h-1.9v0.9H779.6z M779.1,739.5h-0.9l-0.5,2.8h0.9L779.1,739.5z M779.1,825.6c0.6,1.6,1.4,1.9,2.3,0.9l0.5-2.8l-2.3,0.9
			L779.1,825.6z M781.5,734.3l-1.9,1.4l0.9,0.9l1.9-1.4L781.5,734.3z M785.2,728.7l-2.3-0.5l-2.3,1.4v2.8h0.5c0.3,0,0.6-0.2,0.9-0.5
			l0.5,1.9h0.9l1.9-2.8V728.7z M783.3,742.7c0-1.9-0.3-2.8-0.9-2.8l0.5-1.4h-0.9l0.5-1.9l-1.9,0.5l0.5,2.3l-0.5,0.5
			c0,2.5,0.5,3.7,1.4,3.7L783.3,742.7z M781.5,739.9l0.5-1.4l-0.9,0.9L781.5,739.9z M783.8,824.7l0.9-3.3v-2.3
			c-1.9,0.6-3.1,0.9-3.7,0.9L783.8,824.7z M822.7,702.9c-9.1,9.4-16.9,21.5-23.4,36.3c-6.6,14.8-11.9,30-15.9,45.7
			c-2.2,9.4-2.8,16.1-1.9,20.1c0.9,4.1,3.1,6.1,6.6,6.1c3.1,0,6.8-1.8,11-5.4c4.2-3.6,8.5-8.5,12.9-14.8c7.5-10.6,13.6-20.6,18.3-30
			c4.7-9.4,8.5-17.9,11.5-25.5c3-7.6,5.2-14.5,6.8-20.6c1.6-6.1,2.8-11.3,3.7-15.7c0-0.6,0.2-1.2,0.5-1.9c0.3-0.6,0.5-1.2,0.5-1.9
			v-3.7c-3.7-2.2-8.2-2.4-13.3-0.7C834.6,692.7,828.9,696.7,822.7,702.9z M784.7,710.9l-3.3,4.2h4.2L784.7,710.9z M786.1,745.5
			l-3.3,0.9v0.9L786.1,745.5z M783.3,723.1c0.3,0,0.5,0.1,0.7,0.2c0.2,0.2,0.4,0.2,0.7,0.2v2.3l2.8-3.3c-0.6-0.3-0.3-1.1,0.9-2.3
			l-3.7-0.5l-1.4,1.9V723.1z M787.5,729.6l-2.8,2.8l3.7,0.9L787.5,729.6z M785.7,817.7l2.8,2.8l1.4-3.7c-0.6-1.9-2-2-4.2-0.5V817.7z
			 M790.3,746.5c-0.9-1.2-1.7-1.4-2.3-0.5l-1.9,1.4l0.5,2.8c0.3,0,0.5-0.1,0.7-0.2c0.2-0.2,0.4-0.2,0.7-0.2l2.8-0.5L790.3,746.5z
			 M788.9,741.8l0.5,1.4l1.4-3.3l1.9-1.9l-3.7-0.5l-2.3,3.7L788.9,741.8z M789.9,715.6c0.6,0,1.2-0.3,1.9-0.9
			c0.3-0.3,0.6-0.5,0.9-0.5v-0.9l-1.4-0.9L789.9,715.6z M790.3,813.4l-0.5,0.9l1.4,1.9l0.5-0.5l0.9,0.5l0.5-0.5l2.8-0.5l-1.4,1.9
			c2.5,0.9,3.7,0.3,3.7-1.9v-1.4h-0.9l-0.9,0.9l-2.3-2.8l-0.5,1.4l-1.9,1.9L790.3,813.4z M793.2,819.5l-2.8,1.9l2.8-0.5l1.9,0.5
			l0.5-2.3L793.2,819.5z M794.1,709c-3.1,0.6-3.9,1.7-2.3,3.3L794.1,709z M791.8,815.3v0.5l0.5-0.5H791.8z M796,726.3
			c-1.9,0.6-3,1.1-3.3,1.4c-0.3,0.3-0.2,0.8,0.5,1.4l0.5-0.5v1.4l-0.5,2.8c0.6,0,1.2-0.3,1.9-0.9l0.5-0.5v-0.9
			c-0.3,0-0.6-0.2-0.9-0.5L796,726.3z M794.6,706.7l2.3-2.8l-3.3,0.9l-0.5,2.3L794.6,706.7z M793.2,815.8l1.9-1.9l-0.9-0.9l-0.5,0.5
			L793.2,815.8z M796.4,709.5h-0.9v0.5h-0.9l-0.9,1.9l2.3,0.5v-0.5L796.4,709.5z M796.4,723.5l0.5-2.8H796l-0.5,1.4l-1.4,1.9
			L796.4,723.5z M795.5,710l-0.5,1.9h0.9L795.5,710z M798.8,726.3h-0.9v0.5h-0.9l-0.9,1.9l1.9,0.5v-0.5h0.5L798.8,726.3z
			 M796.9,815.3l-0.5-0.5l-0.5,0.5H796.9z M797.4,713.7c1.9,0,2.3-0.9,1.4-2.8c-1.6,0.9-2.3,1.6-2.3,2.1
			C796.4,713.5,796.7,713.7,797.4,713.7z M797.8,726.8l-0.5,1.9h0.5V726.8z M803.5,705.7l-3.7-0.9l-0.5,2.8c0.9,0.6,1.7,1,2.3,1.2
			c0.6,0.2,1.2-0.4,1.9-1.6V705.7z M799.7,726.3h0.9l-0.5-1.9h-0.9L799.7,726.3z M800.6,729.6c0.6,0,1.1-0.2,1.4-0.5
			c0.3-0.3,0.2-0.8-0.5-1.4L800.6,729.6z M804.9,720.7l-3.7-0.5v2.8c0.9,0.6,1.6,0.9,2.1,0.9s1-0.6,1.6-1.9V720.7z M806.7,805.9
			l0.9-2.3l-2.3,2.3c0,0.9-0.8,1.4-2.3,1.4l2.3,3.3l2.8-2.8c-0.3,0-0.5-0.2-0.7-0.7C807.3,806.6,807,806.3,806.7,805.9z M803,817.2
			h2.8l0.9-2.3l-2.3-2.3L803,817.2z M803.9,699.2l-0.5,2.3l0.5,2.8l2.8-2.3l-0.5-2.3L803.9,699.2z M804.4,714.2l-0.5,2.8l1.4,2.3
			c0.9-1.2,1.5-1.9,1.6-2.1c0.2-0.2,0.2-0.4,0.2-0.7l-0.5-1.9L804.4,714.2z M806.3,694.5v2.3h0.9l0.9-1.9L806.3,694.5z M806.3,709.5
			v2.3h0.9l0.5-1.9L806.3,709.5z M808.1,798.9v3.3c-0.3,1.3,0.5,1.6,2.3,0.9l1.9-0.9l0.5-2.8h-0.9l0.5-1.4h-0.9
			c0,0.3-0.5,0.6-1.4,0.9H808.1z M813.8,698.7v-1.9h-0.9l-1.4,2.3h0.5l-1.4,0.9l2.8,0.9l-0.9-1.9L813.8,698.7z M811,795.2h3.7v-0.9
			L811,795.2z M811.9,699.2h0.5v-0.5L811.9,699.2z M811.9,712.8v1.9h0.9l0.5-1.9H811.9z M812.4,803.6l-0.5,0.9l1.9,0.5v-0.9
			L812.4,803.6z M814.2,790.5c-0.9,0.3-1.1,0.8-0.5,1.4v1.9c0.9-0.9,1.4-1.6,1.4-1.9c0.6-1.6,0.6-2.6,0-3.3L814.2,790.5z
			 M815.6,793.8h0.9l0.9-2.8h-0.9L815.6,793.8z M817.5,798.5l-0.9,1.4h0.9l1.4-1.9L817.5,798.5z M836.7,794.7
			c0.3,2.2,0.9,3.3,1.9,3.3c0.6,0,0.9-0.5,0.9-1.4c0.9-0.3,1.4-1.1,1.4-2.3c-0.3,0-0.7-0.2-1.2-0.5c-0.5-0.3-0.9-0.5-1.2-0.5
			l-0.5-0.9h-0.9l0.5,2.3H836.7z M841.9,799.4l-4.7,2.3l0.9,1.9h0.9l0.9-1.9L841.9,799.4z M838.6,804.5l2.3,1.9l0.9-0.9l-1.4-1.9
			L838.6,804.5z M841.9,780.7c1.9,0.9,3.1,1.4,3.7,1.4l0.5,0.5v-0.5l0.5,0.5l-0.5-0.9l0.5-0.9h-0.5v-1.4l-1.4-1.9l-0.9,0.5l1.4,2.8
			H841.9z M847,789.1h-0.9l-0.9,0.9l-1.4,0.5v-1.4h-0.9l0.5,2.3l3.3,1.4c0.9-0.3,1.4-0.9,1.4-1.9L847,789.1z M847,776.4l-0.5-3.3
			c-1.3,0-2,0.8-2.3,2.3c0.6,0.6,1.2,0.9,1.9,0.9H847z M847.5,808.8l-0.9-2.8h-0.9l-0.9,1.4l-0.5,2.3l2.8,0.9L847.5,808.8z
			 M847.9,785.8l0.5-0.9l0.9,1.9h3.7l0.5-1.9l0.5-2.8l-4.2-0.9v1.4l-1.9-0.5l-3.3,3.3L847.9,785.8z M846.1,782.1v-1.4h-0.9
			L846.1,782.1z M849.8,757.7l-3.7-0.9l0.9,2.8h2.3L849.8,757.7z M850.3,796.1l-0.9-2.3v-1.4h-0.9v3.3L850.3,796.1z M848.9,784.9
			h0.9l0.9-2.3h-0.9L848.9,784.9z M855.4,803.6l0.5-1.9H855c-0.3,1.3-0.9,1.9-1.9,1.9l-2.3-0.5l-1.4,3.3l1.9,1.4l4.2-1.9
			c-1.3-0.3-1.9-0.6-1.9-0.9l1.9-0.5V803.6z M851.7,751.2l0.5-0.9h-1.9l-0.5,0.9H851.7z M850.3,773.2v2.8l1.9,0.5l1.4-0.9v-0.9
			L850.3,773.2z M852.6,789.6l-0.9,2.8h3.7v3.7h2.8v-3.7h-0.9l-0.5,0.5l-0.9-1.9l-0.5,0.9L852.6,789.6z M856.8,763.3l-3.7,0.5
			l-0.5,2.3l2.8,0.5L856.8,763.3z M855.9,733.8c-1.6,0-2.5,0.3-2.8,0.9c0,0.9,0.6,1.6,1.9,1.9h3.7l-1.9-2.8H855.9z M855.9,775
			c-1.3,0-1.9,0.2-1.9,0.5v0.9c0.6,0,0.9,0.3,0.9,0.9c1.6,0.6,2.5,0.5,2.8-0.5l2.3,0.5l-1.9-2.3H855.9z M856.4,792.4l-0.9-0.5v0.5
			H856.4z M860.6,782.5c-1.3,0-2.7,0.8-4.2,2.3c0,0.3,0.2,0.6,0.7,0.9c0.5,0.3,0.9,0.6,1.2,0.9v1.9l2.8-0.9c0.3-1.6,0.5-2.6,0.7-3.3
			c0.2-0.6,0.2-1.2,0.2-1.9l0.9-0.9l-2.3-3.3V782.5z M860.1,759.1h-0.9l-0.5,1.9h2.8v-0.9l-1.9-0.5L860.1,759.1z M858.7,799.9v2.3
			l0.9-0.5l-0.9,1.4l0.5,0.9l2.3-2.3l0.5-4.7L858.7,799.9z M859.6,809.7l0.5-0.9l-1.4-0.9v0.9L859.6,809.7z M863.9,756.8l-0.5-3.7
			l-3.7,4.2h3.3L863.9,756.8z M860.1,788.2v2.3h0.9l0.9-1.9L860.1,788.2z M866.2,748.4c-0.9-0.6-1.7-0.9-2.3-0.9l-2.3-0.5
			c-0.3,0.3-0.5,0.9-0.5,1.9l-0.5,2.3h2.3c0.9,0,1.6-0.1,1.9-0.2c0.3-0.2,0.8-0.4,1.4-0.7V748.4z M867.1,779.3h-2.3l0.5-4.2
			l-3.7,0.5l0.5,2.3c0,1.3,0.6,1.9,1.9,1.9l0.5,3.3c1.2-0.6,2.2-0.6,2.8,0V779.3z M862,745.1l1.9-1.9l1.4,0.9v-0.5l0.9,1.4h0.9
			l-0.5-2.8c-0.6-0.6-1.1-1.6-1.4-2.8l-3.3,0.5V745.1z M864.8,779.3h-0.9v0.5C864.2,779.7,864.5,779.6,864.8,779.3z M864.3,771.8
			l1.9,2.3l0.9-0.9L864.3,771.8z M867.1,761.5l2.8-2.8l-4.2-0.9c-0.6,1.6-0.9,2.5-0.7,2.8c0.2,0.3,0.5,0.6,1.2,0.9H867.1z
			 M865.3,669.7c0.3,2.2,0.8,3,1.4,2.3c1.2,0,2-0.9,2.3-2.8l-2.8-2.3l-0.5,2.8H865.3z M871.8,664.1l-0.9,1.9l0.5,2.3l4.2,0.5
			l0.5-1.9v-2.8H871.8z M874.2,652.8l-1.4,2.3l2.8,0.9l1.4-2.8c-0.6,0-1.1-0.2-1.4-0.5v-2.3l-2.3,0.5L874.2,652.8z M878.4,668.8
			l-4.2,3.3h3.3L878.4,668.8z M875.1,645.8c0,0.3,0.5,0.9,1.4,1.9h3.7c-0.3-0.3-0.8-0.8-1.4-1.4c-0.6-0.6-1.1-1.2-1.4-1.9
			c0-0.9-0.8-0.8-2.3,0.5V645.8z M877.9,659.9c0,0.6-0.3,1.3-0.9,1.9c1.6,0,2.8-0.6,3.7-1.9l1.9-0.9l0.5-1.9l-0.5-1.9l-3.3-0.5v1.4
			h-0.9l-1.9-0.9c0,0.3,0.3,0.8,0.9,1.4l-1.4,1.9l1.9,0.9V659.9z M879.8,638.3l-0.9-0.9l-0.9-0.9c-0.9,1.3-1.4,2.3-1.4,3.3l2.8,0.5
			L879.8,638.3z M882.1,680.9l-0.9-1.4h-0.9l-0.5,0.9l-3.3-0.9l2.3,2.8l3.3-0.5V680.9z M882.6,672h2.8l1.4-2.3l-2.8-1.9l0.9-0.5
			l-2.8-2.8l-2.8,0.9l0.9,2.8l3.7-0.5L882.6,672z M884,628.5l-2.3-0.5l-0.9,2.3h2.8L884,628.5z M882.1,644.9v0.9v0.5l0.5,2.3
			l2.3-0.9l-0.5,1.9c1.6,0.9,2.3,0.8,2.3-0.5l1.9,1.9l0.9-3.7l-2.8-0.9c-1.3,0-1.9,0.2-1.9,0.5c-0.3-0.3-0.5-0.6-0.5-0.9l0.5-0.9
			H882.1z M884.5,647.2v-1.4v-0.9h-1.9l-0.5,0.9v0.5L884.5,647.2z M884.5,674.8l-0.5,3.7h2.8l-0.5-2.8v-1.4L884.5,674.8z
			 M884.9,647.2v0.5v-0.9V647.2z M889.1,656.6c-1.9-0.3-3,0.3-3.3,1.9l-0.5,2.3c0.3,0.3,0.8,0.5,1.4,0.5c0.3,0,0.6,0.2,0.9,0.5
			l1.9-0.5c0.9-2.5,1.1-4.1,0.5-4.7H889.1z M885.4,675.3v1.9h0.9L885.4,675.3z M888.2,662.7c-0.6,0.6-0.9,1.4-0.9,2.3l-0.5,2.3
			l3.3-2.8L888.2,662.7z M887.7,642.1l3.7,0.5l-2.8-2.8L887.7,642.1z M887.7,655.6l1.9,0.5l2.8,0.9l-0.5-2.8l-2.8-0.9L887.7,655.6z
			 M889.6,609.3c-1.6,0-2,0.6-1.4,1.9c-0.6,1.6-0.3,2.3,0.9,2.3c2.2-0.9,3.4-1.9,3.7-2.8l-1.9-0.9L889.6,609.3z M889.6,635
			c0,0.9,0.8,0.9,2.3,0l-0.5,0.9l0.9,2.3l2.8-2.3l-2.3-3.3l-0.5,1.4l-1.9-0.5L889.6,635z M896.2,628v-0.5l-0.9-0.9l-1.4-0.5
			c-1.3,0.9-1.9,1.6-1.9,1.9v2.3h2.3l2.3,0.5c0-0.3,0.6-1.1,1.9-2.3L896.2,628z M893.4,634.1h-0.9L892,635
			C892.3,635,892.7,634.7,893.4,634.1z M897.6,653.8c-0.6,0-1.1-0.2-1.4-0.5c-0.3,0-0.6-0.2-0.9-0.5l0.9-0.5c0.6-1.6,0.6-2.6,0-3.3
			l-2.8-2.8L892,651c0.6,1.6,1.4,2.3,2.3,2.3l0.9-0.5l-0.5,3.3l2.8-0.5V653.8z M895.2,620.1l1.9,0.9l2.3,0.5l-1.4-4.2l-1.9-0.9
			l-3.3,0.9L895.2,620.1z M897.6,642.1l0.5-1.9v-2.8l-4.2,1.9c0,1.9,0.8,2.8,2.3,2.8H897.6z M894.8,642.5l3.3,4.2l0.9-3.3
			L894.8,642.5z M904.1,607.9l1.9,0.9c1.9,0,2.8-0.8,2.8-2.3l0.5-2.3l-0.5-2.3c-1.6,1.3-2.5,2-2.8,2.3c-0.3,0.3-0.2,0.5,0.5,0.5
			c0,0.3-0.1,0.5-0.2,0.5c-0.2,0-0.2,0.2-0.2,0.5c-0.6,0-1.1,0.2-1.4,0.5L904.1,607.9z"/>
	</g>
	<path class="st2" d="M384.8,493.1c-1-1.4-2.4-1.1-3.8-0.8c-3.5,0.7-7,1.5-10.5,2.3c-5.1,1.2-10.3,2.3-15.3,3.6
		c-2.3,0.6-4.6,1.5-6.9,2.4c-1,0.4-2,1-1.8,2.3c0.1,1.2,1.1,1.6,2.1,1.9c2.1,0.5,4.1,1,6.2,1.4c0.8,0.2,1.6,0.3,2.9,0.6
		c-1.1,0.8-1.9,1.3-2.6,1.9c-8.9,6.3-17.7,12.6-26.6,18.9c-4.7-7.1-11.7-11.9-20.8-11.9c-26.9,0.1-36,24.5-36,24.5
		c-7.7-16.1-20.4-25.1-36.1-24.5c-15.7,0.6-37.8,31.5-16.4,59.9c5,6.7,10.7,12.9,16.4,18.6c-6.3,4.5-12.6,9-18.8,13.6
		c-1.1,0.8-2,1-3.3,0.6c-2.8-0.9-5.7-1.6-8.6-2.5c-2.6-0.8-5-0.5-7.3,1.2c-10.5,7.3-21.1,14.5-31.6,21.7c-0.3,0.2-0.6,0.4-0.9,0.7
		c-1.9,1.8-1.6,3.6,0.9,4.4c0.5,0.2,1,0.3,1.6,0.4c3.8,0.6,7.7,1.2,11.5,1.8c1,0.2,2,0.2,3,0.3c-0.7,2.6-1.6,4.9-2.1,7.2
		c-0.5,2.4-0.7,4.8-0.7,7.2c0,2.7,2.5,3.7,4.6,2.1c3.3-2.5,6.9-4.8,10.4-6.9c5.7-3.4,10.8-7.6,16.2-11.5c1.9-1.4,3.7-2.9,5.5-4.4
		c1.7-1.4,2.6-3,2.5-5.3c-0.1-2.4,0.2-4.7,0-7.1c-0.1-1.9,0.7-3,2.2-4.1c6.7-4.8,13.4-9.6,20.1-14.4c16.5,15.3,31.7,24.8,31.7,24.8
		c19.7-13.6,37.9-27.8,54.4-47.2c9.4-11.1,10.5-29.5,4.8-43.3c9.6-7.1,19.3-14.2,29.1-21.3c0,1.3,0,2.1,0,2.9c0,1.7-0.1,3.4,0,5
		c0.2,2.3,2.1,3.1,3.9,1.7c0.7-0.5,1.4-1.2,2-1.9c3.6-4.3,7.3-8.5,10.8-13c2.5-3.2,4.7-6.6,6.9-9.9
		C385.2,495.9,385.8,494.5,384.8,493.1z M200.5,609.7c0.3-0.2,0.7-0.2,1.1-0.2c3.1,0.4,6.1,0.8,9.4,1.9c-1.9,1.9-4,3.1-5.9,4.5
		c-0.2,0.2-0.6,0.2-0.9,0.1c-3.2-0.6-6.3-1.2-9.8-1.9C196.7,612.5,198.6,611.1,200.5,609.7z M189.9,617.3c0.4-0.3,1-0.5,1.5-0.4
		c3.1,0.5,6.1,1.2,9.4,1.8c-0.4,0.4-0.6,0.8-0.9,1c-2,1.4-3.9,2.9-5.9,4.3c-0.5,0.4-1.3,0.8-1.8,0.7c-3.2-0.6-6.3-1.3-9.8-2
		C184.8,620.9,187.3,619.1,189.9,617.3z M182.7,631.6c-0.2,0.1-0.6,0.1-0.9,0c-3-0.5-6-1-9.5-1.6c1.9-1.4,3.5-2.6,5.1-3.6
		c0.3-0.2,0.9-0.2,1.3-0.1c2.9,0.4,5.7,0.9,8.6,1.3c0.3,0,0.5,0.2,1.3,0.4C186.3,629.4,184.5,630.5,182.7,631.6z M194.8,640.7
		c-3.3,2.3-6.5,4.6-9.8,6.9c-0.2-0.1-0.4-0.3-0.6-0.4c0.6-2.7,1.3-5.4,1.9-8.2c0.1-0.4,0.5-0.8,0.8-1c2.1-1.6,4.3-3.1,6.8-4.9
		c0.9,2.4,1.1,4.6,1.4,6.7C195.4,640,195,640.5,194.8,640.7z M198.8,637.4c-0.5-2.3-1-4.5-1.5-6.7c2.4-1.7,4.6-3.3,7.1-5.1
		c0.5,2.3,1,4.4,1.6,6.7C203.7,633.8,201.4,635.5,198.8,637.4z M214.5,625.5c-0.1,0.3-0.3,0.7-0.6,0.9c-0.3,0.3-0.7,0.6-1.1,0.8
		c-1.2,0.9-2.4,1.8-4,2.9c-0.3-2.4-0.6-4.4-0.8-6.4c0-0.5,0.4-1.1,0.8-1.4c1.5-1.2,3.2-2.3,4.8-3.5
		C214,619.8,214.7,624.8,214.5,625.5z M364.7,515.1c0.3-2.3,0.5-4.7,0.9-6.9c0.5-2.7-0.3-4.1-3-4.5c-2.8-0.4-5.5-0.9-8.3-1.7
		c8.6-2.1,17.2-4.2,25.8-6.4C379.5,497.9,368.1,512.7,364.7,515.1z"/>
</g>
</svg>
