  0
SECTION
  2
HEADER
  9
$ACADVER
  1
AC1024
  9
$ACADMAINTVER
 70
     6
  9
$DWGCODEPAGE
  3
ANSI_1252
  9
$INSBASE
 10
0.0
 20
0.0
 30
0.0
  9
$EXTMIN
 10
1.000000000000000E+20
 20
1.000000000000000E+20
 30
1.000000000000000E+20
  9
$EXTMAX
 10
-1.000000000000000E+20
 20
-1.000000000000000E+20
 30
-1.000000000000000E+20
  9
$LIMMIN
 10
0.0
 20
0.0
  9
$LIMMAX
 10
12.0
 20
9.0
  9
$ORTHOMODE
 70
     0
  9
$REGENMODE
 70
     1
  9
$FILLMODE
 70
     1
  9
$QTEXTMODE
 70
     0
  9
$MIRRTEXT
 70
     1
  9
$LTSCALE
 40
1.0
  9
$ATTMODE
 70
     1
  9
$TEXTSIZE
 40
0.2
  9
$TRACEWID
 40
0.05
  9
$TEXTSTYLE
  7
Standard
  9
$CLAYER
  8
0
  9
$CELTYPE
  6
ByLayer
  9
$CECOLOR
 62
   256
  9
$CELTSCALE
 40
1.0
  9
$DISPSILH
 70
     0
  9
$DIMSCALE
 40
1.0
  9
$DIMASZ
 40
0.18
  9
$DIMEXO
 40
0.0625
  9
$DIMDLI
 40
0.38
  9
$DIMRND
 40
0.0
  9
$DIMDLE
 40
0.0
  9
$DIMEXE
 40
0.18
  9
$DIMTP
 40
0.0
  9
$DIMTM
 40
0.0
  9
$DIMTXT
 40
0.18
  9
$DIMCEN
 40
0.09
  9
$DIMTSZ
 40
0.0
  9
$DIMTOL
 70
     0
  9
$DIMLIM
 70
     0
  9
$DIMTIH
 70
     1
  9
$DIMTOH
 70
     1
  9
$DIMSE1
 70
     0
  9
$DIMSE2
 70
     0
  9
$DIMTAD
 70
     0
  9
$DIMZIN
 70
     0
  9
$DIMBLK
  1

  9
$DIMASO
 70
     1
  9
$DIMSHO
 70
     1
  9
$DIMPOST
  1

  9
$DIMAPOST
  1

  9
$DIMALT
 70
     0
  9
$DIMALTD
 70
     2
  9
$DIMALTF
 40
25.4
  9
$DIMLFAC
 40
1.0
  9
$DIMTOFL
 70
     0
  9
$DIMTVP
 40
0.0
  9
$DIMTIX
 70
     0
  9
$DIMSOXD
 70
     0
  9
$DIMSAH
 70
     0
  9
$DIMBLK1
  1

  9
$DIMBLK2
  1

  9
$DIMSTYLE
  2
Standard
  9
$DIMCLRD
 70
     0
  9
$DIMCLRE
 70
     0
  9
$DIMCLRT
 70
     0
  9
$DIMTFAC
 40
1.0
  9
$DIMGAP
 40
0.09
  9
$DIMJUST
 70
     0
  9
$DIMSD1
 70
     0
  9
$DIMSD2
 70
     0
  9
$DIMTOLJ
 70
     1
  9
$DIMTZIN
 70
     0
  9
$DIMALTZ
 70
     0
  9
$DIMALTTZ
 70
     0
  9
$DIMUPT
 70
     0
  9
$DIMDEC
 70
     4
  9
$DIMTDEC
 70
     4
  9
$DIMALTU
 70
     2
  9
$DIMALTTD
 70
     2
  9
$DIMTXSTY
  7
Standard
  9
$DIMAUNIT
 70
     0
  9
$DIMADEC
 70
     0
  9
$DIMALTRND
 40
0.0
  9
$DIMAZIN
 70
     0
  9
$DIMDSEP
 70
    46
  9
$DIMATFIT
 70
     3
  9
$DIMFRAC
 70
     0
  9
$DIMLDRBLK
  1

  9
$DIMLUNIT
 70
     2
  9
$DIMLWD
 70
    -2
  9
$DIMLWE
 70
    -2
  9
$DIMTMOVE
 70
     0
  9
$DIMFXL
 40
1.0
  9
$DIMFXLON
 70
     0
  9
$DIMJOGANG
 40
0.7853981633974483
  9
$DIMTFILL
 70
     0
  9
$DIMTFILLCLR
 70
     0
  9
$DIMARCSYM
 70
     0
  9
$DIMLTYPE
  6

  9
$DIMLTEX1
  6

  9
$DIMLTEX2
  6

  9
$DIMTXTDIRECTION
 70
     0
  9
$LUNITS
 70
     2
  9
$LUPREC
 70
     4
  9
$SKETCHINC
 40
0.1
  9
$FILLETRAD
 40
0.5
  9
$AUNITS
 70
     0
  9
$AUPREC
 70
     0
  9
$MENU
  1
.
  9
$ELEVATION
 40
0.0
  9
$PELEVATION
 40
0.0
  9
$THICKNESS
 40
0.0
  9
$LIMCHECK
 70
     0
  9
$CHAMFERA
 40
0.5
  9
$CHAMFERB
 40
0.5
  9
$CHAMFERC
 40
1.0
  9
$CHAMFERD
 40
0.0
  9
$SKPOLY
 70
     0
  9
$TDCREATE
 40
2459566.987425231
  9
$TDUCREATE
 40
2459566.737425231
  9
$TDUPDATE
 40
2459566.987425278
  9
$TDUUPDATE
 40
2459566.737425278
  9
$TDINDWG
 40
0.0000000116
  9
$TDUSRTIMER
 40
0.0000000116
  9
$USRTIMER
 70
     1
  9
$ANGBASE
 50
0.0
  9
$ANGDIR
 70
     0
  9
$PDMODE
 70
     0
  9
$PDSIZE
 40
0.0
  9
$PLINEWID
 40
0.0
  9
$SPLFRAME
 70
     0
  9
$SPLINETYPE
 70
     6
  9
$SPLINESEGS
 70
     8
  9
$HANDSEED
  5
70
  9
$SURFTAB1
 70
     6
  9
$SURFTAB2
 70
     6
  9
$SURFTYPE
 70
     6
  9
$SURFU
 70
     6
  9
$SURFV
 70
     6
  9
$UCSBASE
  2

  9
$UCSNAME
  2

  9
$UCSORG
 10
0.0
 20
0.0
 30
0.0
  9
$UCSXDIR
 10
1.0
 20
0.0
 30
0.0
  9
$UCSYDIR
 10
0.0
 20
1.0
 30
0.0
  9
$UCSORTHOREF
  2

  9
$UCSORTHOVIEW
 70
     0
  9
$UCSORGTOP
 10
0.0
 20
0.0
 30
0.0
  9
$UCSORGBOTTOM
 10
0.0
 20
0.0
 30
0.0
  9
$UCSORGLEFT
 10
0.0
 20
0.0
 30
0.0
  9
$UCSORGRIGHT
 10
0.0
 20
0.0
 30
0.0
  9
$UCSORGFRONT
 10
0.0
 20
0.0
 30
0.0
  9
$UCSORGBACK
 10
0.0
 20
0.0
 30
0.0
  9
$PUCSBASE
  2

  9
$PUCSNAME
  2

  9
$PUCSORG
 10
0.0
 20
0.0
 30
0.0
  9
$PUCSXDIR
 10
1.0
 20
0.0
 30
0.0
  9
$PUCSYDIR
 10
0.0
 20
1.0
 30
0.0
  9
$PUCSORTHOREF
  2

  9
$PUCSORTHOVIEW
 70
     0
  9
$PUCSORGTOP
 10
0.0
 20
0.0
 30
0.0
  9
$PUCSORGBOTTOM
 10
0.0
 20
0.0
 30
0.0
  9
$PUCSORGLEFT
 10
0.0
 20
0.0
 30
0.0
  9
$PUCSORGRIGHT
 10
0.0
 20
0.0
 30
0.0
  9
$PUCSORGFRONT
 10
0.0
 20
0.0
 30
0.0
  9
$PUCSORGBACK
 10
0.0
 20
0.0
 30
0.0
  9
$USERI1
 70
     0
  9
$USERI2
 70
     0
  9
$USERI3
 70
     0
  9
$USERI4
 70
     0
  9
$USERI5
 70
     0
  9
$USERR1
 40
0.0
  9
$USERR2
 40
0.0
  9
$USERR3
 40
0.0
  9
$USERR4
 40
0.0
  9
$USERR5
 40
0.0
  9
$WORLDVIEW
 70
     1
  9
$SHADEDGE
 70
     3
  9
$SHADEDIF
 70
    70
  9
$TILEMODE
 70
     1
  9
$MAXACTVP
 70
    64
  9
$PINSBASE
 10
0.0
 20
0.0
 30
0.0
  9
$PLIMCHECK
 70
     0
  9
$PEXTMIN
 10
1.000000000000000E+20
 20
1.000000000000000E+20
 30
1.000000000000000E+20
  9
$PEXTMAX
 10
-1.000000000000000E+20
 20
-1.000000000000000E+20
 30
-1.000000000000000E+20
  9
$PLIMMIN
 10
0.0
 20
0.0
  9
$PLIMMAX
 10
12.0
 20
9.0
  9
$UNITMODE
 70
     0
  9
$VISRETAIN
 70
     1
  9
$PLINEGEN
 70
     0
  9
$PSLTSCALE
 70
     1
  9
$TREEDEPTH
 70
  3020
  9
$CMLSTYLE
  2
Standard
  9
$CMLJUST
 70
     0
  9
$CMLSCALE
 40
1.0
  9
$PROXYGRAPHICS
 70
     1
  9
$MEASUREMENT
 70
     0
  9
$CELWEIGHT
370
    -1
  9
$ENDCAPS
280
     0
  9
$JOINSTYLE
280
     0
  9
$LWDISPLAY
290
     1
  9
$INSUNITS
 70
     1
  9
$HYPERLINKBASE
  1

  9
$STYLESHEET
  1

  9
$XEDIT
290
     1
  9
$CEPSNTYPE
380
     0
  9
$PSTYLEMODE
290
     1
  9
$FINGERPRINTGUID
  2
{FDB7641B-2F93-4F4C-9581-4EE8DCFD3D13}
  9
$VERSIONGUID
  2
{FAEB1C32-E019-11D5-929B-00C0DF256EC4}
  9
$EXTNAMES
290
     1
  9
$PSVPSCALE
 40
0.0
  9
$OLESTARTUP
290
     0
  9
$SORTENTS
280
   127
  9
$INDEXCTL
280
     0
  9
$HIDETEXT
280
     1
  9
$XCLIPFRAME
280
     2
  9
$HALOGAP
280
     0
  9
$OBSCOLOR
 70
   257
  9
$OBSLTYPE
280
     0
  9
$INTERSECTIONDISPLAY
280
     0
  9
$INTERSECTIONCOLOR
 70
   257
  9
$DIMASSOC
280
     2
  9
$PROJECTNAME
  1

  9
$CAMERADISPLAY
290
     0
  9
$LENSLENGTH
 40
50.0
  9
$CAMERAHEIGHT
 40
0.0
  9
$STEPSPERSEC
 40
2.0
  9
$STEPSIZE
 40
6.0
  9
$3DDWFPREC
 40
2.0
  9
$PSOLWIDTH
 40
0.25
  9
$PSOLHEIGHT
 40
4.0
  9
$LOFTANG1
 40
1.570796326794897
  9
$LOFTANG2
 40
1.570796326794897
  9
$LOFTMAG1
 40
0.0
  9
$LOFTMAG2
 40
0.0
  9
$LOFTPARAM
 70
     7
  9
$LOFTNORMALS
280
     1
  9
$LATITUDE
 40
37.795
  9
$LONGITUDE
 40
-122.394
  9
$NORTHDIRECTION
 40
0.0
  9
$TIMEZONE
 70
 -8000
  9
$LIGHTGLYPHDISPLAY
280
     1
  9
$TILEMODELIGHTSYNCH
280
     1
  9
$CMATERIAL
347
3C
  9
$SOLIDHIST
280
     1
  9
$SHOWHIST
280
     1
  9
$DWFFRAME
280
     2
  9
$DGNFRAME
280
     2
  9
$REALWORLDSCALE
290
     1
  9
$INTERFERECOLOR
 62
   256
  9
$CSHADOW
280
     0
  9
$SHADOWPLANELOCATION
 40
0.0
  0
ENDSEC
  0
SECTION
  2
CLASSES
  0
CLASS
  1
ACDBDICTIONARYWDFLT
  2
AcDbDictionaryWithDefault
  3
ObjectDBX Classes
 90
        0
 91
        4
280
     0
281
     0
  0
CLASS
  1
VISUALSTYLE
  2
AcDbVisualStyle
  3
ObjectDBX Classes
 90
     4095
 91
        4
280
     0
281
     0
  0
CLASS
  1
MATERIAL
  2
AcDbMaterial
  3
ObjectDBX Classes
 90
     1153
 91
        4
280
     0
281
     0
  0
CLASS
  1
SUN
  2
AcDbSun
  3
SCENEOE
 90
     1024
 91
        4
280
     0
281
     0
  0
ENDSEC
  0
SECTION
  2
TABLES
  0
TABLE
  2
VPORT
  5
8
330
0
100
AcDbSymbolTable
 70
     1
  0
VPORT
  5
29
330
8
100
AcDbSymbolTableRecord
100
AcDbViewportTableRecord
  2
*Active
 70
     0
 10
0.0
 20
0.0
 11
1.0
 21
1.0
 12
0.0
 22
0.0
 13
0.0
 23
0.0
 14
0.5
 24
0.5
 15
0.5
 25
0.5
 16
0.0
 26
0.0
 36
1.0
 17
540.0
 27
-540.0
 37
0.0
 40
1080.0
 41
1.0
 42
50.0
 43
0.0
 44
0.0
 50
0.0
 51
0.0
 71
     0
 72
   100
 73
     1
 74
     3
 75
     0
 76
     0
 77
     0
 78
     0
281
     0
 65
     1
110
0.0
120
0.0
130
0.0
111
1.0
121
0.0
131
0.0
112
0.0
122
1.0
132
0.0
 79
     0
146
0.0
 60
     3
 61
     5
292
     1
282
     1
141
0.0
142
0.0
 63
   250
361
3F
  0
ENDTAB
  0
TABLE
  2
LTYPE
  5
5
330
0
100
AcDbSymbolTable
 70
     1
  0
LTYPE
  5
14
330
5
100
AcDbSymbolTableRecord
100
AcDbLinetypeTableRecord
  2
ByBlock
 70
     0
  3

 72
    65
 73
     0
 40
0.0
  0
LTYPE
  5
15
330
5
100
AcDbSymbolTableRecord
100
AcDbLinetypeTableRecord
  2
ByLayer
 70
     0
  3

 72
    65
 73
     0
 40
0.0
  0
LTYPE
  5
16
330
5
100
AcDbSymbolTableRecord
100
AcDbLinetypeTableRecord
  2
Continuous
 70
     0
  3
Solid line
 72
    65
 73
     0
 40
0.0
  0
ENDTAB
  0
TABLE
  2
LAYER
  5
2
330
0
100
AcDbSymbolTable
 70
     2
  0
LAYER
  5
10
330
2
100
AcDbSymbolTableRecord
100
AcDbLayerTableRecord
  2
0
 70
     0
 62
     7
  6
Continuous
370
    -3
390
F
347
3E
  0
LAYER
  5
40
330
2
100
AcDbSymbolTableRecord
100
AcDbLayerTableRecord
  2
Layer 1
 70
     0
 62
     7
  6
Continuous
370
    -3
390
F
347
3E
  0
ENDTAB
  0
TABLE
  2
STYLE
  5
3
330
0
100
AcDbSymbolTable
 70
     1
  0
STYLE
  5
11
330
3
100
AcDbSymbolTableRecord
100
AcDbTextStyleTableRecord
  2
Standard
 70
     0
 40
0.0
 41
1.0
 50
0.0
 71
     0
 42
0.2
  3
txt
  4

  0
ENDTAB
  0
TABLE
  2
VIEW
  5
6
330
0
100
AcDbSymbolTable
 70
     0
  0
ENDTAB
  0
TABLE
  2
UCS
  5
7
330
0
100
AcDbSymbolTable
 70
     0
  0
ENDTAB
  0
TABLE
  2
APPID
  5
9
330
0
100
AcDbSymbolTable
 70
     1
  0
APPID
  5
12
330
9
100
AcDbSymbolTableRecord
100
AcDbRegAppTableRecord
  2
ACAD
 70
     0
  0
ENDTAB
  0
TABLE
  2
DIMSTYLE
  5
A
330
0
100
AcDbSymbolTable
 70
     1
100
AcDbDimStyleTable
  0
DIMSTYLE
105
27
330
A
100
AcDbSymbolTableRecord
100
AcDbDimStyleTableRecord
  2
Standard
 70
     0
178
     0
340
11
  0
ENDTAB
  0
TABLE
  2
BLOCK_RECORD
  5
1
330
0
100
AcDbSymbolTable
 70
     5
  0
BLOCK_RECORD
  5
1F
330
1
100
AcDbSymbolTableRecord
100
AcDbBlockTableRecord
  2
*Model_Space
340
22
 70
     0
280
     1
281
     0
  0
BLOCK_RECORD
  5
1B
330
1
100
AcDbSymbolTableRecord
100
AcDbBlockTableRecord
  2
*Paper_Space
340
1E
 70
     0
280
     1
281
     0
  0
BLOCK_RECORD
  5
23
330
1
100
AcDbSymbolTableRecord
100
AcDbBlockTableRecord
  2
*Paper_Space0
340
26
 70
     0
280
     1
281
     0
  0
BLOCK_RECORD
  5
41
330
1
100
AcDbSymbolTableRecord
100
AcDbBlockTableRecord
  2
block 2
340
0
102
{BLKREFS
331
42
102
}
 70
     0
280
     1
281
     0
  0
BLOCK_RECORD
  5
45
330
1
100
AcDbSymbolTableRecord
100
AcDbBlockTableRecord
  2
block 3
340
0
102
{BLKREFS
331
46
102
}
 70
     0
280
     1
281
     0
  0
BLOCK_RECORD
  5
5B
330
1
100
AcDbSymbolTableRecord
100
AcDbBlockTableRecord
  2
block 4
340
0
102
{BLKREFS
331
5C
102
}
 70
     0
280
     1
281
     0
  0
BLOCK_RECORD
  5
68
330
1
100
AcDbSymbolTableRecord
100
AcDbBlockTableRecord
  2
block 5
340
0
102
{BLKREFS
331
69
102
}
 70
     0
280
     1
281
     0
  0
ENDTAB
  0
ENDSEC
  0
SECTION
  2
BLOCKS
  0
BLOCK
  5
20
330
1F
100
AcDbEntity
  8
0
100
AcDbBlockBegin
  2
*Model_Space
 70
     0
 10
0.0
 20
0.0
 30
0.0
  3
*Model_Space
  1

  0
ENDBLK
  5
21
330
1F
100
AcDbEntity
  8
0
100
AcDbBlockEnd
  0
BLOCK
  5
1C
330
1B
100
AcDbEntity
 67
     1
  8
0
100
AcDbBlockBegin
  2
*Paper_Space
 70
     0
 10
0.0
 20
0.0
 30
0.0
  3
*Paper_Space
  1

  0
ENDBLK
  5
1D
330
1B
100
AcDbEntity
 67
     1
  8
0
100
AcDbBlockEnd
  0
BLOCK
  5
24
330
23
100
AcDbEntity
  8
0
100
AcDbBlockBegin
  2
*Paper_Space0
 70
     0
 10
0.0
 20
0.0
 30
0.0
  3
*Paper_Space0
  1

  0
ENDBLK
  5
25
330
23
100
AcDbEntity
  8
0
100
AcDbBlockEnd
  0
BLOCK
  5
43
330
41
100
AcDbEntity
  8
0
100
AcDbBlockBegin
  2
block 2
 70
     0
 10
0.0
 20
0.0
 30
0.0
  3
block 2
  1

  0
INSERT
  5
46
330
41
100
AcDbEntity
  8
Layer 1
100
AcDbBlockReference
  2
block 3
 10
0.0
 20
0.0
 30
0.0
  0
SPLINE
  5
57
330
41
100
AcDbEntity
  8
Layer 1
370
     0
100
AcDbSpline
210
0.0
220
0.0
230
1.0
 70
    11
 71
     3
 72
    23
 73
    19
 74
     0
 42
0.0000000001
 43
0.0000000001
 12
1.0
 22
0.0
 32
0.0
 13
1.0
 23
0.0
 33
0.0
 40
0.0
 40
0.0
 40
0.0
 40
0.0
 40
1.0
 40
1.0
 40
1.0
 40
2.0
 40
2.0
 40
2.0
 40
3.0
 40
3.0
 40
3.0
 40
4.0
 40
4.0
 40
4.0
 40
5.0
 40
5.0
 40
5.0
 40
6.0
 40
6.0
 40
6.0
 40
6.0
 10
711.8887010851122
 20
-238.0483951906872
 30
0.0
 10
720.1787391640501
 20
-221.8653908579381
 30
0.0
 10
728.9963345246088
 20
-182.7929026092334
 30
0.0
 10
717.2538256415828
 20
-162.5617458471188
 30
0.0
 10
705.5111689833957
 20
-142.3354656649126
 30
0.0
 10
670.4822521344504
 20
-115.1993672946255
 30
0.0
 10
655.7808414446972
 20
-119.2860890378479
 30
0.0
 10
648.430357762556
 20
-121.3296715721872
 30
0.0
 10
647.7137960654672
 20
-127.5133226785119
 30
0.0
 10
648.837182747513
 20
-133.1836029174965
 30
0.0
 10
649.9120991807322
 20
-138.6215806224036
 30
0.0
 10
652.633526323134
 20
-143.6236216379939
 30
0.0
 10
656.4734635676778
 20
-147.6231560433625
 30
0.0
 10
694.5483217860474
 20
-187.3253142015928
 30
0.0
 10
711.8887010851122
 20
-238.0483951906872
 30
0.0
 10
711.8887010851122
 20
-238.0483951906872
 30
0.0
 10
711.8887010851122
 20
-238.0483951906872
 30
0.0
 10
711.8887010851122
 20
-238.0483951906872
 30
0.0
 10
711.8887010851122
 20
-238.0483951906872
 30
0.0
  0
SPLINE
  5
58
330
41
100
AcDbEntity
  8
Layer 1
370
     0
100
AcDbSpline
210
0.0
220
0.0
230
1.0
 70
    11
 71
     3
 72
    20
 73
    16
 74
     0
 42
0.0000000001
 43
0.0000000001
 12
1.0
 22
0.0
 32
0.0
 13
1.0
 23
0.0
 33
0.0
 40
0.0
 40
0.0
 40
0.0
 40
0.0
 40
1.0
 40
1.0
 40
1.0
 40
2.0
 40
2.0
 40
2.0
 40
3.0
 40
3.0
 40
3.0
 40
4.0
 40
4.0
 40
4.0
 40
5.0
 40
5.0
 40
5.0
 40
5.0
 10
830.035671517875
 20
-336.245424969723
 30
0.0
 10
892.3995920875386
 20
-277.3533337486369
 30
0.0
 10
915.9478576173387
 20
-216.3403735903275
 30
0.0
 10
905.2947471321168
 20
-175.2922793757889
 30
0.0
 10
894.6369078421103
 20
-134.239308581341
 30
0.0
 10
852.271693725299
 20
-109.6403617427759
 30
0.0
 10
830.8252341385123
 20
-128.2056492511756
 30
0.0
 10
809.3786267765736
 20
-146.7710845347292
 30
0.0
 10
822.932120109559
 20
-165.4235593809935
 30
0.0
 10
822.932120109559
 20
-165.4235593809935
 30
0.0
 10
875.0351254392081
 20
-236.0775180296032
 30
0.0
 10
830.035671517875
 20
-336.245424969723
 30
0.0
 10
830.035671517875
 20
-336.245424969723
 30
0.0
 10
830.035671517875
 20
-336.245424969723
 30
0.0
 10
830.035671517875
 20
-336.245424969723
 30
0.0
 10
830.035671517875
 20
-336.245424969723
 30
0.0
  0
SPLINE
  5
59
330
41
100
AcDbEntity
  8
Layer 1
370
     0
100
AcDbSpline
210
0.0
220
0.0
230
1.0
 70
    11
 71
     3
 72
    26
 73
    22
 74
     0
 42
0.0000000001
 43
0.0000000001
 12
1.0
 22
0.0
 32
0.0
 13
1.0
 23
0.0
 33
0.0
 40
0.0
 40
0.0
 40
0.0
 40
0.0
 40
1.0
 40
1.0
 40
1.0
 40
2.0
 40
2.0
 40
2.0
 40
3.0
 40
3.0
 40
3.0
 40
4.0
 40
4.0
 40
4.0
 40
5.0
 40
5.0
 40
5.0
 40
6.0
 40
6.0
 40
6.0
 40
7.0
 40
7.0
 40
7.0
 40
7.0
 10
741.2328557304663
 20
-179.0401527025579
 30
0.0
 10
741.2328557304663
 20
-179.0401527025579
 30
0.0
 10
768.4660423736041
 20
-106.8123887179909
 30
0.0
 10
848.1942818164553
 20
-106.4153168928588
 30
0.0
 10
927.9226690344713
 20
-106.0231216476341
 30
0.0
 10
954.3667363823915
 20
-230.5476241821052
 30
0.0
 10
905.4207993341242
 20
-288.1756467793703
 30
0.0
 10
856.4844676705598
 20
-345.7990883470275
 30
0.0
 10
802.4105851798195
 20
-388.0771151259723
 30
0.0
 10
743.9931477370446
 20
-428.3165837256511
 30
0.0
 10
743.9931477370446
 20
-428.3165837256511
 30
0.0
 10
648.8710232566336
 20
-368.6935966180372
 30
0.0
 10
585.3256403713785
 20
-284.2293114276154
 30
0.0
 10
521.7801097109677
 20
-199.7651740123392
 30
0.0
 10
587.4320273439989
 20
-108.192460833694
 30
0.0
 10
634.0051388261345
 20
-106.4153168928588
 30
0.0
 10
680.578250308281
 20
-104.6381729520153
 30
0.0
 10
718.4694240165554
 20
-131.3482355679762
 30
0.0
 10
741.2328557304663
 20
-179.0401527025579
 30
0.0
 10
741.2328557304663
 20
-179.0401527025579
 30
0.0
 10
741.2328557304663
 20
-179.0401527025579
 30
0.0
 10
741.2328557304663
 20
-179.0401527025579
 30
0.0
  0
HATCH
  5
5A
330
41
100
AcDbEntity
  8
Layer 1
 62
    40
420
 16635155
100
AcDbHatch
 10
0.0
 20
0.0
 30
0.0
210
0.0
220
0.0
230
1.0
  2
SOLID
 70
     1
 71
     0
 91
        3
 92
        1
 93
        1
 72
     4
 94
        3
 73
     0
 74
     1
 95
       23
 96
       19
 40
0.0
 40
0.0
 40
0.0
 40
0.0
 40
1.0
 40
1.0
 40
1.0
 40
2.0
 40
2.0
 40
2.0
 40
3.0
 40
3.0
 40
3.0
 40
4.0
 40
4.0
 40
4.0
 40
5.0
 40
5.0
 40
5.0
 40
6.0
 40
6.0
 40
6.0
 40
6.0
 10
711.8887010851122
 20
-238.0483951906872
 10
720.1787391640501
 20
-221.8653908579381
 10
728.9963345246088
 20
-182.7929026092334
 10
717.2538256415828
 20
-162.5617458471188
 10
705.5111689833957
 20
-142.3354656649126
 10
670.4822521344504
 20
-115.1993672946255
 10
655.7808414446972
 20
-119.2860890378479
 10
648.430357762556
 20
-121.3296715721872
 10
647.7137960654672
 20
-127.5133226785119
 10
648.837182747513
 20
-133.1836029174965
 10
649.9120991807322
 20
-138.6215806224036
 10
652.633526323134
 20
-143.6236216379939
 10
656.4734635676778
 20
-147.6231560433625
 10
694.5483217860474
 20
-187.3253142015928
 10
711.8887010851122
 20
-238.0483951906872
 10
711.8887010851122
 20
-238.0483951906872
 10
711.8887010851122
 20
-238.0483951906872
 10
711.8887010851122
 20
-238.0483951906872
 10
711.8887010851122
 20
-238.0483951906872
 97
        0
 97
        0
 92
        1
 93
        1
 72
     4
 94
        3
 73
     0
 74
     1
 95
       20
 96
       16
 40
0.0
 40
0.0
 40
0.0
 40
0.0
 40
1.0
 40
1.0
 40
1.0
 40
2.0
 40
2.0
 40
2.0
 40
3.0
 40
3.0
 40
3.0
 40
4.0
 40
4.0
 40
4.0
 40
5.0
 40
5.0
 40
5.0
 40
5.0
 10
830.035671517875
 20
-336.245424969723
 10
892.3995920875386
 20
-277.3533337486369
 10
915.9478576173387
 20
-216.3403735903275
 10
905.2947471321168
 20
-175.2922793757889
 10
894.6369078421103
 20
-134.239308581341
 10
852.271693725299
 20
-109.6403617427759
 10
830.8252341385123
 20
-128.2056492511756
 10
809.3786267765736
 20
-146.7710845347292
 10
822.932120109559
 20
-165.4235593809935
 10
822.932120109559
 20
-165.4235593809935
 10
875.0351254392081
 20
-236.0775180296032
 10
830.035671517875
 20
-336.245424969723
 10
830.035671517875
 20
-336.245424969723
 10
830.035671517875
 20
-336.245424969723
 10
830.035671517875
 20
-336.245424969723
 10
830.035671517875
 20
-336.245424969723
 97
        0
 97
        0
 92
        1
 93
        1
 72
     4
 94
        3
 73
     0
 74
     1
 95
       26
 96
       22
 40
0.0
 40
0.0
 40
0.0
 40
0.0
 40
1.0
 40
1.0
 40
1.0
 40
2.0
 40
2.0
 40
2.0
 40
3.0
 40
3.0
 40
3.0
 40
4.0
 40
4.0
 40
4.0
 40
5.0
 40
5.0
 40
5.0
 40
6.0
 40
6.0
 40
6.0
 40
7.0
 40
7.0
 40
7.0
 40
7.0
 10
741.2328557304663
 20
-179.0401527025579
 10
741.2328557304663
 20
-179.0401527025579
 10
768.4660423736041
 20
-106.8123887179909
 10
848.1942818164553
 20
-106.4153168928588
 10
927.9226690344713
 20
-106.0231216476341
 10
954.3667363823915
 20
-230.5476241821052
 10
905.4207993341242
 20
-288.1756467793703
 10
856.4844676705598
 20
-345.7990883470275
 10
802.4105851798195
 20
-388.0771151259723
 10
743.9931477370446
 20
-428.3165837256511
 10
743.9931477370446
 20
-428.3165837256511
 10
648.8710232566336
 20
-368.6935966180372
 10
585.3256403713785
 20
-284.2293114276154
 10
521.7801097109677
 20
-199.7651740123392
 10
587.4320273439989
 20
-108.192460833694
 10
634.0051388261345
 20
-106.4153168928588
 10
680.578250308281
 20
-104.6381729520153
 10
718.4694240165554
 20
-131.3482355679762
 10
741.2328557304663
 20
-179.0401527025579
 10
741.2328557304663
 20
-179.0401527025579
 10
741.2328557304663
 20
-179.0401527025579
 10
741.2328557304663
 20
-179.0401527025579
 97
        0
 97
        0
 75
     2
 76
     1
 98
        0
  0
INSERT
  5
5C
330
41
100
AcDbEntity
  8
Layer 1
100
AcDbBlockReference
  2
block 4
 10
0.0
 20
0.0
 30
0.0
  0
INSERT
  5
69
330
41
100
AcDbEntity
  8
Layer 1
100
AcDbBlockReference
  2
block 5
 10
0.0
 20
0.0
 30
0.0
  0
ENDBLK
  5
44
330
41
100
AcDbEntity
  8
0
100
AcDbBlockEnd
  0
BLOCK
  5
47
330
45
100
AcDbEntity
  8
0
100
AcDbBlockBegin
  2
block 3
 70
     0
 10
0.0
 20
0.0
 30
0.0
  3
block 3
  1

  0
SPLINE
  5
49
330
45
100
AcDbEntity
  8
Layer 1
370
     0
100
AcDbSpline
210
0.0
220
0.0
230
1.0
 70
    11
 71
     3
 72
   113
 73
   109
 74
     0
 42
0.0000000001
 43
0.0000000001
 12
1.0
 22
0.0
 32
0.0
 13
1.0
 23
0.0
 33
0.0
 40
0.0
 40
0.0
 40
0.0
 40
0.0
 40
1.0
 40
1.0
 40
1.0
 40
2.0
 40
2.0
 40
2.0
 40
3.0
 40
3.0
 40
3.0
 40
4.0
 40
4.0
 40
4.0
 40
5.0
 40
5.0
 40
5.0
 40
6.0
 40
6.0
 40
6.0
 40
7.0
 40
7.0
 40
7.0
 40
8.0
 40
8.0
 40
8.0
 40
9.0
 40
9.0
 40
9.0
 40
10.0
 40
10.0
 40
10.0
 40
11.0
 40
11.0
 40
11.0
 40
12.0
 40
12.0
 40
12.0
 40
13.0
 40
13.0
 40
13.0
 40
14.0
 40
14.0
 40
14.0
 40
15.0
 40
15.0
 40
15.0
 40
16.0
 40
16.0
 40
16.0
 40
17.0
 40
17.0
 40
17.0
 40
18.0
 40
18.0
 40
18.0
 40
19.0
 40
19.0
 40
19.0
 40
20.0
 40
20.0
 40
20.0
 40
21.0
 40
21.0
 40
21.0
 40
22.0
 40
22.0
 40
22.0
 40
23.0
 40
23.0
 40
23.0
 40
24.0
 40
24.0
 40
24.0
 40
25.0
 40
25.0
 40
25.0
 40
26.0
 40
26.0
 40
26.0
 40
27.0
 40
27.0
 40
27.0
 40
28.0
 40
28.0
 40
28.0
 40
29.0
 40
29.0
 40
29.0
 40
30.0
 40
30.0
 40
30.0
 40
31.0
 40
31.0
 40
31.0
 40
32.0
 40
32.0
 40
32.0
 40
33.0
 40
33.0
 40
33.0
 40
34.0
 40
34.0
 40
34.0
 40
35.0
 40
35.0
 40
35.0
 40
36.0
 40
36.0
 40
36.0
 40
36.0
 10
376.5364052843761
 20
-902.6633513818961
 30
0.0
 10
369.0659654106657
 20
-902.6633513818961
 30
0.0
 10
364.843008269183
 20
-898.4417604510672
 30
0.0
 10
362.0818965309281
 20
-892.2692207017208
 30
0.0
 10
359.56533650032
 20
-886.3425988706767
 30
0.0
 10
359.0775992956897
 20
-879.84490098491
 30
0.0
 10
358.5898620910611
 20
-873.5111483780129
 30
0.0
 10
358.5898620910611
 20
-873.5111483780129
 30
0.0
 10
358.5898620910611
 20
-868.0708975409398
 30
0.0
 10
358.5898620910611
 20
-868.0708975409398
 30
0.0
 10
358.5898620910611
 20
-863.4421758342578
 30
0.0
 10
358.9956266562549
 20
-858.8134541275758
 30
0.0
 10
360.2962592019358
 20
-854.4279179178811
 30
0.0
 10
360.4574720594883
 20
-853.9415469239102
 30
0.0
 10
360.5394446989212
 20
-853.4524435086241
 30
0.0
 10
360.5394446989212
 20
-852.9660725146496
 30
0.0
 10
360.5394446989212
 20
-852.1545433842584
 30
0.0
 10
360.2962592019358
 20
-851.4222544719851
 30
0.0
 10
359.7265493578725
 20
-850.6926979810269
 30
0.0
 10
358.2660701652985
 20
-848.7444815838244
 30
0.0
 10
357.6157538924563
 20
-846.3891344107651
 30
0.0
 10
357.3725683954726
 20
-844.0337872377095
 30
0.0
 10
357.2905957560379
 20
-843.383470964869
 30
0.0
 10
357.2905957560379
 20
-842.7358871133438
 30
0.0
 10
357.2905957560379
 20
-842.1675434799363
 30
0.0
 10
357.2905957560379
 20
-839.2438526734732
 30
0.0
 10
358.1840975258638
 20
-836.6453200034302
 30
0.0
 10
360.5394446989212
 20
-834.6943711849126
 30
0.0
 10
365.7365100390089
 20
-830.3908076146508
 30
0.0
 10
368.0918572120645
 20
-825.1145020564472
 30
0.0
 10
369.0659654106657
 20
-818.2916460342603
 30
0.0
 10
371.176760876082
 20
-802.9436355109865
 30
0.0
 10
374.9119808129362
 20
-787.9207831241329
 30
0.0
 10
380.5148107182195
 20
-773.3870341525617
 30
0.0
 10
382.8701578912751
 20
-767.1325217637859
 30
0.0
 10
386.5247713993558
 20
-761.7742435661457
 30
0.0
 10
391.3966786030214
 20
-757.3067347170145
 30
0.0
 10
394.9693194716674
 20
-754.0606181954463
 30
0.0
 10
398.7045394085217
 20
-751.7052710223907
 30
0.0
 10
402.8468901212309
 20
-751.7052710223907
 30
0.0
 10
404.9576855866453
 20
-751.7052710223907
 30
0.0
 10
407.1504536914927
 20
-752.2736146557982
 30
0.0
 10
409.5058008645501
 20
-753.6534874195968
 30
0.0
 10
410.0741444979558
 20
-753.9786455560134
 30
0.0
 10
410.7230945601386
 20
-754.2218310530006
 30
0.0
 10
411.3734108329772
 20
-754.2218310530006
 30
0.0
 10
411.3734108329772
 20
-754.2218310530006
 30
0.0
 10
412.5100980997904
 20
-754.2218310530006
 30
0.0
 10
412.5100980997904
 20
-754.2218310530006
 30
0.0
 10
415.676974403239
 20
-754.2218310530006
 30
0.0
 10
418.193534433849
 20
-755.7656490956651
 30
0.0
 10
420.6308542463394
 20
-757.6318928534347
 30
0.0
 10
430.6178541506597
 20
-765.1023327271469
 30
0.0
 10
435.4911275649847
 20
-775.4964634073222
 30
0.0
 10
437.114185825767
 20
-787.6775976271456
 30
0.0
 10
438.6580038684351
 20
-798.883257437712
 30
0.0
 10
438.4954248002232
 20
-810.2528625271443
 30
0.0
 10
439.6321120670364
 20
-821.4585223377107
 30
0.0
 10
441.1745638990451
 20
-836.3201618670137
 30
0.0
 10
443.1241465069033
 20
-851.0178561174471
 30
0.0
 10
445.560100108738
 20
-865.7155503678805
 30
0.0
 10
445.9658646739354
 20
-868.0708975409398
 30
0.0
 10
446.1284437421455
 20
-870.3442720745625
 30
0.0
 10
446.1284437421455
 20
-872.5356739687522
 30
0.0
 10
446.1284437421455
 20
-881.5499318851289
 30
0.0
 10
443.1241465069033
 20
-889.8319008892322
 30
0.0
 10
437.7645020986092
 20
-897.3843134023737
 30
0.0
 10
435.3285484967746
 20
-900.9583204816772
 30
0.0
 10
431.7545414174729
 20
-902.4201658849088
 30
0.0
 10
427.6135569154194
 20
-902.4201658849088
 30
0.0
 10
426.4768696486099
 20
-902.4201658849088
 30
0.0
 10
425.1776033135866
 20
-902.3381932454758
 30
0.0
 10
423.8783369785651
 20
-902.0950077484886
 30
0.0
 10
418.2755070732819
 20
-901.0402931211102
 30
0.0
 10
415.4337889062535
 20
-897.5482586812432
 30
0.0
 10
414.5402871364277
 20
-892.594378838141
 30
0.0
 10
413.6467853666018
 20
-887.1541280010679
 30
0.0
 10
413.4842062983917
 20
-881.6319045245618
 30
0.0
 10
413.0784417331943
 20
-876.1096810480558
 30
0.0
 10
412.4281254603557
 20
-866.6090521377082
 30
0.0
 10
411.6972027587399
 20
-857.1084232273606
 30
0.0
 10
410.3979364237184
 20
-847.6870345351308
 30
0.0
 10
410.0741444979558
 20
-845.2524471439538
 30
0.0
 10
409.6683799327584
 20
-844.2769727346968
 30
0.0
 10
408.287140958304
 20
-844.2769727346968
 30
0.0
 10
407.7187973249002
 20
-844.2769727346968
 30
0.0
 10
407.0698472627173
 20
-844.4409180135626
 30
0.0
 10
406.0943728534567
 20
-844.6841035105499
 30
0.0
 10
401.222465649791
 20
-845.982003634912
 30
0.0
 10
396.431164874899
 20
-847.6077943170094
 30
0.0
 10
391.5592576712315
 20
-849.0696397202446
 30
0.0
 10
389.3664895663842
 20
-849.7172235717699
 30
0.0
 10
388.6355668647702
 20
-851.1790689749978
 30
0.0
 10
388.6355668647702
 20
-853.4524435086241
 30
0.0
 10
388.7981459329803
 20
-858.8134541275758
 30
0.0
 10
389.4484622058189
 20
-864.171732325216
 30
0.0
 10
390.097412268
 20
-869.4507703047348
 30
0.0
 10
390.4225704044202
 20
-871.6421721989282
 30
0.0
 10
390.5031768331974
 20
-873.8363065144331
 30
0.0
 10
390.5031768331974
 20
-876.0277084086229
 30
0.0
 10
390.5031768331974
 20
-882.2002481579693
 30
0.0
 10
389.5290686345943
 20
-888.2088426284463
 30
0.0
 10
387.9866168025856
 20
-894.2174370989269
 30
0.0
 10
386.5247713993558
 20
-900.2260315694039
 30
0.0
 10
382.7075788230668
 20
-902.6633513818961
 30
0.0
 10
376.698984352588
 20
-902.6633513818961
 30
0.0
 10
376.698984352588
 20
-902.6633513818961
 30
0.0
 10
376.5364052843761
 20
-902.6633513818961
 30
0.0
 10
376.5364052843761
 20
-902.6633513818961
 30
0.0
  0
SPLINE
  5
4A
330
45
100
AcDbEntity
  8
Layer 1
370
     0
100
AcDbSpline
210
0.0
220
0.0
230
1.0
 70
    11
 71
     3
 72
    20
 73
    16
 74
     0
 42
0.0000000001
 43
0.0000000001
 12
1.0
 22
0.0
 32
0.0
 13
1.0
 23
0.0
 33
0.0
 40
0.0
 40
0.0
 40
0.0
 40
0.0
 40
1.0
 40
1.0
 40
1.0
 40
2.0
 40
2.0
 40
2.0
 40
3.0
 40
3.0
 40
3.0
 40
4.0
 40
4.0
 40
4.0
 40
5.0
 40
5.0
 40
5.0
 40
5.0
 10
404.3087355244643
 20
-816.8298006310288
 30
0.0
 10
407.3936391884799
 20
-816.3434296370579
 30
0.0
 10
407.9619828218838
 20
-815.6931133642174
 30
0.0
 10
407.9619828218838
 20
-812.3650242032163
 30
0.0
 10
407.8813763931084
 20
-808.3046461299382
 30
0.0
 10
407.7994037536755
 20
-804.0803227777978
 30
0.0
 10
407.3130327597028
 20
-800.0226771258385
 30
0.0
 10
406.9072681945072
 20
-796.6918555435223
 30
0.0
 10
407.0698472627173
 20
-793.2817937430882
 30
0.0
 10
405.6080018594839
 20
-790.0329448002012
 30
0.0
 10
402.3591529166024
 20
-798.965230077145
 30
0.0
 10
398.8671184767336
 20
-807.8155427146521
 30
0.0
 10
397.0814811477394
 20
-817.7233024008528
 30
0.0
 10
399.9231993147678
 20
-817.3981442644363
 30
0.0
 10
402.1159674196169
 20
-817.154958767449
 30
0.0
 10
404.3087355244643
 20
-816.8298006310288
 30
0.0
  0
HATCH
  5
4B
330
45
100
AcDbEntity
  8
Layer 1
 62
    40
420
 16635155
100
AcDbHatch
 10
0.0
 20
0.0
 30
0.0
210
0.0
220
0.0
230
1.0
  2
SOLID
 70
     1
 71
     0
 91
        2
 92
        1
 93
        1
 72
     4
 94
        3
 73
     0
 74
     1
 95
      113
 96
      109
 40
0.0
 40
0.0
 40
0.0
 40
0.0
 40
1.0
 40
1.0
 40
1.0
 40
2.0
 40
2.0
 40
2.0
 40
3.0
 40
3.0
 40
3.0
 40
4.0
 40
4.0
 40
4.0
 40
5.0
 40
5.0
 40
5.0
 40
6.0
 40
6.0
 40
6.0
 40
7.0
 40
7.0
 40
7.0
 40
8.0
 40
8.0
 40
8.0
 40
9.0
 40
9.0
 40
9.0
 40
10.0
 40
10.0
 40
10.0
 40
11.0
 40
11.0
 40
11.0
 40
12.0
 40
12.0
 40
12.0
 40
13.0
 40
13.0
 40
13.0
 40
14.0
 40
14.0
 40
14.0
 40
15.0
 40
15.0
 40
15.0
 40
16.0
 40
16.0
 40
16.0
 40
17.0
 40
17.0
 40
17.0
 40
18.0
 40
18.0
 40
18.0
 40
19.0
 40
19.0
 40
19.0
 40
20.0
 40
20.0
 40
20.0
 40
21.0
 40
21.0
 40
21.0
 40
22.0
 40
22.0
 40
22.0
 40
23.0
 40
23.0
 40
23.0
 40
24.0
 40
24.0
 40
24.0
 40
25.0
 40
25.0
 40
25.0
 40
26.0
 40
26.0
 40
26.0
 40
27.0
 40
27.0
 40
27.0
 40
28.0
 40
28.0
 40
28.0
 40
29.0
 40
29.0
 40
29.0
 40
30.0
 40
30.0
 40
30.0
 40
31.0
 40
31.0
 40
31.0
 40
32.0
 40
32.0
 40
32.0
 40
33.0
 40
33.0
 40
33.0
 40
34.0
 40
34.0
 40
34.0
 40
35.0
 40
35.0
 40
35.0
 40
36.0
 40
36.0
 40
36.0
 40
36.0
 10
376.5364052843761
 20
-902.6633513818961
 10
369.0659654106657
 20
-902.6633513818961
 10
364.843008269183
 20
-898.4417604510672
 10
362.0818965309281
 20
-892.2692207017208
 10
359.56533650032
 20
-886.3425988706767
 10
359.0775992956897
 20
-879.84490098491
 10
358.5898620910611
 20
-873.5111483780129
 10
358.5898620910611
 20
-873.5111483780129
 10
358.5898620910611
 20
-868.0708975409398
 10
358.5898620910611
 20
-868.0708975409398
 10
358.5898620910611
 20
-863.4421758342578
 10
358.9956266562549
 20
-858.8134541275758
 10
360.2962592019358
 20
-854.4279179178811
 10
360.4574720594883
 20
-853.9415469239102
 10
360.5394446989212
 20
-853.4524435086241
 10
360.5394446989212
 20
-852.9660725146496
 10
360.5394446989212
 20
-852.1545433842584
 10
360.2962592019358
 20
-851.4222544719851
 10
359.7265493578725
 20
-850.6926979810269
 10
358.2660701652985
 20
-848.7444815838244
 10
357.6157538924563
 20
-846.3891344107651
 10
357.3725683954726
 20
-844.0337872377095
 10
357.2905957560379
 20
-843.383470964869
 10
357.2905957560379
 20
-842.7358871133438
 10
357.2905957560379
 20
-842.1675434799363
 10
357.2905957560379
 20
-839.2438526734732
 10
358.1840975258638
 20
-836.6453200034302
 10
360.5394446989212
 20
-834.6943711849126
 10
365.7365100390089
 20
-830.3908076146508
 10
368.0918572120645
 20
-825.1145020564472
 10
369.0659654106657
 20
-818.2916460342603
 10
371.176760876082
 20
-802.9436355109865
 10
374.9119808129362
 20
-787.9207831241329
 10
380.5148107182195
 20
-773.3870341525617
 10
382.8701578912751
 20
-767.1325217637859
 10
386.5247713993558
 20
-761.7742435661457
 10
391.3966786030214
 20
-757.3067347170145
 10
394.9693194716674
 20
-754.0606181954463
 10
398.7045394085217
 20
-751.7052710223907
 10
402.8468901212309
 20
-751.7052710223907
 10
404.9576855866453
 20
-751.7052710223907
 10
407.1504536914927
 20
-752.2736146557982
 10
409.5058008645501
 20
-753.6534874195968
 10
410.0741444979558
 20
-753.9786455560134
 10
410.7230945601386
 20
-754.2218310530006
 10
411.3734108329772
 20
-754.2218310530006
 10
411.3734108329772
 20
-754.2218310530006
 10
412.5100980997904
 20
-754.2218310530006
 10
412.5100980997904
 20
-754.2218310530006
 10
415.676974403239
 20
-754.2218310530006
 10
418.193534433849
 20
-755.7656490956651
 10
420.6308542463394
 20
-757.6318928534347
 10
430.6178541506597
 20
-765.1023327271469
 10
435.4911275649847
 20
-775.4964634073222
 10
437.114185825767
 20
-787.6775976271456
 10
438.6580038684351
 20
-798.883257437712
 10
438.4954248002232
 20
-810.2528625271443
 10
439.6321120670364
 20
-821.4585223377107
 10
441.1745638990451
 20
-836.3201618670137
 10
443.1241465069033
 20
-851.0178561174471
 10
445.560100108738
 20
-865.7155503678805
 10
445.9658646739354
 20
-868.0708975409398
 10
446.1284437421455
 20
-870.3442720745625
 10
446.1284437421455
 20
-872.5356739687522
 10
446.1284437421455
 20
-881.5499318851289
 10
443.1241465069033
 20
-889.8319008892322
 10
437.7645020986092
 20
-897.3843134023737
 10
435.3285484967746
 20
-900.9583204816772
 10
431.7545414174729
 20
-902.4201658849088
 10
427.6135569154194
 20
-902.4201658849088
 10
426.4768696486099
 20
-902.4201658849088
 10
425.1776033135866
 20
-902.3381932454758
 10
423.8783369785651
 20
-902.0950077484886
 10
418.2755070732819
 20
-901.0402931211102
 10
415.4337889062535
 20
-897.5482586812432
 10
414.5402871364277
 20
-892.594378838141
 10
413.6467853666018
 20
-887.1541280010679
 10
413.4842062983917
 20
-881.6319045245618
 10
413.0784417331943
 20
-876.1096810480558
 10
412.4281254603557
 20
-866.6090521377082
 10
411.6972027587399
 20
-857.1084232273606
 10
410.3979364237184
 20
-847.6870345351308
 10
410.0741444979558
 20
-845.2524471439538
 10
409.6683799327584
 20
-844.2769727346968
 10
408.287140958304
 20
-844.2769727346968
 10
407.7187973249002
 20
-844.2769727346968
 10
407.0698472627173
 20
-844.4409180135626
 10
406.0943728534567
 20
-844.6841035105499
 10
401.222465649791
 20
-845.982003634912
 10
396.431164874899
 20
-847.6077943170094
 10
391.5592576712315
 20
-849.0696397202446
 10
389.3664895663842
 20
-849.7172235717699
 10
388.6355668647702
 20
-851.1790689749978
 10
388.6355668647702
 20
-853.4524435086241
 10
388.7981459329803
 20
-858.8134541275758
 10
389.4484622058189
 20
-864.171732325216
 10
390.097412268
 20
-869.4507703047348
 10
390.4225704044202
 20
-871.6421721989282
 10
390.5031768331974
 20
-873.8363065144331
 10
390.5031768331974
 20
-876.0277084086229
 10
390.5031768331974
 20
-882.2002481579693
 10
389.5290686345943
 20
-888.2088426284463
 10
387.9866168025856
 20
-894.2174370989269
 10
386.5247713993558
 20
-900.2260315694039
 10
382.7075788230668
 20
-902.6633513818961
 10
376.698984352588
 20
-902.6633513818961
 10
376.698984352588
 20
-902.6633513818961
 10
376.5364052843761
 20
-902.6633513818961
 10
376.5364052843761
 20
-902.6633513818961
 97
        0
 97
        0
 92
        1
 93
        1
 72
     4
 94
        3
 73
     0
 74
     1
 95
       20
 96
       16
 40
0.0
 40
0.0
 40
0.0
 40
0.0
 40
1.0
 40
1.0
 40
1.0
 40
2.0
 40
2.0
 40
2.0
 40
3.0
 40
3.0
 40
3.0
 40
4.0
 40
4.0
 40
4.0
 40
5.0
 40
5.0
 40
5.0
 40
5.0
 10
404.3087355244643
 20
-816.8298006310288
 10
407.3936391884799
 20
-816.3434296370579
 10
407.9619828218838
 20
-815.6931133642174
 10
407.9619828218838
 20
-812.3650242032163
 10
407.8813763931084
 20
-808.3046461299382
 10
407.7994037536755
 20
-804.0803227777978
 10
407.3130327597028
 20
-800.0226771258385
 10
406.9072681945072
 20
-796.6918555435223
 10
407.0698472627173
 20
-793.2817937430882
 10
405.6080018594839
 20
-790.0329448002012
 10
402.3591529166024
 20
-798.965230077145
 10
398.8671184767336
 20
-807.8155427146521
 10
397.0814811477394
 20
-817.7233024008528
 10
399.9231993147678
 20
-817.3981442644363
 10
402.1159674196169
 20
-817.154958767449
 10
404.3087355244643
 20
-816.8298006310288
 97
        0
 97
        0
 75
     2
 76
     1
 98
        0
  0
SPLINE
  5
4C
330
45
100
AcDbEntity
  8
Layer 1
370
     0
100
AcDbSpline
210
0.0
220
0.0
230
1.0
 70
    11
 71
     3
 72
   119
 73
   115
 74
     0
 42
0.0000000001
 43
0.0000000001
 12
1.0
 22
0.0
 32
0.0
 13
1.0
 23
0.0
 33
0.0
 40
0.0
 40
0.0
 40
0.0
 40
0.0
 40
1.0
 40
1.0
 40
1.0
 40
2.0
 40
2.0
 40
2.0
 40
3.0
 40
3.0
 40
3.0
 40
4.0
 40
4.0
 40
4.0
 40
5.0
 40
5.0
 40
5.0
 40
6.0
 40
6.0
 40
6.0
 40
7.0
 40
7.0
 40
7.0
 40
8.0
 40
8.0
 40
8.0
 40
9.0
 40
9.0
 40
9.0
 40
10.0
 40
10.0
 40
10.0
 40
11.0
 40
11.0
 40
11.0
 40
12.0
 40
12.0
 40
12.0
 40
13.0
 40
13.0
 40
13.0
 40
14.0
 40
14.0
 40
14.0
 40
15.0
 40
15.0
 40
15.0
 40
16.0
 40
16.0
 40
16.0
 40
17.0
 40
17.0
 40
17.0
 40
18.0
 40
18.0
 40
18.0
 40
19.0
 40
19.0
 40
19.0
 40
20.0
 40
20.0
 40
20.0
 40
21.0
 40
21.0
 40
21.0
 40
22.0
 40
22.0
 40
22.0
 40
23.0
 40
23.0
 40
23.0
 40
24.0
 40
24.0
 40
24.0
 40
25.0
 40
25.0
 40
25.0
 40
26.0
 40
26.0
 40
26.0
 40
27.0
 40
27.0
 40
27.0
 40
28.0
 40
28.0
 40
28.0
 40
29.0
 40
29.0
 40
29.0
 40
30.0
 40
30.0
 40
30.0
 40
31.0
 40
31.0
 40
31.0
 40
32.0
 40
32.0
 40
32.0
 40
33.0
 40
33.0
 40
33.0
 40
34.0
 40
34.0
 40
34.0
 40
35.0
 40
35.0
 40
35.0
 40
36.0
 40
36.0
 40
36.0
 40
37.0
 40
37.0
 40
37.0
 40
38.0
 40
38.0
 40
38.0
 40
38.0
 10
509.8157197393812
 20
-902.0950077484886
 30
0.0
 10
509.0847970377654
 20
-901.6086367545176
 30
0.0
 10
508.3538743361496
 20
-901.4446914756481
 30
0.0
 10
507.7049242739668
 20
-901.4446914756481
 30
0.0
 10
507.7049242739668
 20
-901.4446914756481
 30
0.0
 10
506.5682370071554
 20
-901.5266641150847
 30
0.0
 10
506.5682370071554
 20
-901.5266641150847
 30
0.0
 10
505.6747352373295
 20
-901.6878769726354
 30
0.0
 10
504.8618398962808
 20
-901.769849612072
 30
0.0
 10
504.130917194665
 20
-901.769849612072
 30
0.0
 10
498.3655082211735
 20
-901.769849612072
 30
0.0
 10
495.036052849513
 20
-898.116602314647
 30
0.0
 10
494.8734737813029
 20
-891.7828497077498
 30
0.0
 10
494.8734737813029
 20
-891.7828497077498
 30
0.0
 10
494.8734737813029
 20
-890.9685881560436
 30
0.0
 10
494.8734737813029
 20
-890.9685881560436
 30
0.0
 10
494.8734737813029
 20
-885.0419663249995
 30
0.0
 10
496.5798708921775
 20
-879.7629283454771
 30
0.0
 10
501.8575426610405
 20
-876.2708939056065
 30
0.0
 10
503.3999944930492
 20
-875.2161792782317
 30
0.0
 10
503.4819671324822
 20
-873.9975193719838
 30
0.0
 10
503.4819671324822
 20
-872.6996192476181
 30
0.0
 10
503.4819671324822
 20
-872.6996192476181
 30
0.0
 10
503.4819671324822
 20
-871.9673303353484
 30
0.0
 10
503.4819671324822
 20
-871.9673303353484
 30
0.0
 10
503.3193880642739
 20
-863.5241484736907
 30
0.0
 10
503.1568089960638
 20
-854.9962615512886
 30
0.0
 10
502.7510444308664
 20
-846.5503472683195
 30
0.0
 10
502.6690717914316
 20
-843.8725743801551
 30
0.0
 10
502.6690717914316
 20
-841.1920690706793
 30
0.0
 10
502.6690717914316
 20
-838.5115637612034
 30
0.0
 10
502.6690717914316
 20
-835.831058451724
 30
0.0
 10
502.6690717914316
 20
-833.1532855635633
 30
0.0
 10
502.7510444308664
 20
-830.4727802540874
 30
0.0
 10
502.7510444308664
 20
-830.4727802540874
 30
0.0
 10
502.8316508596417
 20
-825.3576875534345
 30
0.0
 10
502.8316508596417
 20
-825.3576875534345
 30
0.0
 10
502.8316508596417
 20
-818.5348315312476
 30
0.0
 10
502.5078589338809
 20
-811.7966805698088
 30
0.0
 10
501.9395153004753
 20
-805.0557971870585
 30
0.0
 10
501.1266199594265
 20
-794.8256117857527
 30
0.0
 10
501.0460135306494
 20
-784.5107213236952
 30
0.0
 10
499.9899326926134
 20
-774.2805359223894
 30
0.0
 10
499.9899326926134
 20
-774.2805359223894
 30
0.0
 10
499.909326263838
 20
-771.9251887493338
 30
0.0
 10
499.909326263838
 20
-771.9251887493338
 30
0.0
 10
499.909326263838
 20
-765.5914361424329
 30
0.0
 10
502.7510444308664
 20
-759.987240026494
 30
0.0
 10
506.6488434359308
 20
-754.954119965274
 30
0.0
 10
509.1667696772001
 20
-751.8664838799414
 30
0.0
 10
512.3336459806487
 20
-749.5931093463187
 30
0.0
 10
516.3926578432656
 20
-749.5931093463187
 30
0.0
 10
516.9623676873289
 20
-749.5931093463187
 30
0.0
 10
517.6113177495117
 20
-749.6750819857516
 30
0.0
 10
518.2602678116928
 20
-749.7570546251882
 30
0.0
 10
524.514780200474
 20
-750.8937418919995
 30
0.0
 10
528.2500001373301
 20
-754.7901746864081
 30
0.0
 10
530.1982165345325
 20
-760.6375562993344
 30
0.0
 10
531.9852200741843
 20
-765.9165942788532
 30
0.0
 10
531.9032474347496
 20
-771.436085334044
 30
0.0
 10
531.9852200741843
 20
-774.8488795557969
 30
0.0
 10
531.9032474347496
 20
-781.8302160142193
 30
0.0
 10
531.5780892983312
 20
-786.7048556392001
 30
0.0
 10
531.0097456649237
 20
-791.5767628428694
 30
0.0
 10
530.1982165345325
 20
-798.1537009467538
 30
0.0
 10
529.9550310375471
 20
-804.6486664112053
 30
0.0
 10
529.9550310375471
 20
-811.228336936405
 30
0.0
 10
529.9550310375471
 20
-816.9937459098983
 30
0.0
 10
530.1162438950996
 20
-822.8383951015057
 30
0.0
 10
530.3594293920851
 20
-828.6038040750027
 30
0.0
 10
530.6845875285035
 20
-836.5633473639973
 30
0.0
 10
530.7665601679382
 20
-844.5201582316804
 30
0.0
 10
530.7665601679382
 20
-852.4797015206786
 30
0.0
 10
530.7665601679382
 20
-852.4797015206786
 30
0.0
 10
530.7665601679382
 20
-859.3817977609833
 30
0.0
 10
530.7665601679382
 20
-859.3817977609833
 30
0.0
 10
530.7665601679382
 20
-864.8220485980564
 30
0.0
 10
531.0097456649237
 20
-866.283894001288
 30
0.0
 10
534.34056724724
 20
-866.283894001288
 30
0.0
 10
535.3133092351854
 20
-866.283894001288
 30
0.0
 10
536.6139417808663
 20
-866.1226811437336
 30
0.0
 10
538.2370000416486
 20
-865.9587358648678
 30
0.0
 10
542.4585909724756
 20
-865.3903922314603
 30
0.0
 10
546.6829143246196
 20
-864.4968904616362
 30
0.0
 10
550.9864778948795
 20
-863.6853613312451
 30
0.0
 10
553.1778797890693
 20
-863.2782305553919
 30
0.0
 10
555.2900414651413
 20
-863.0350450584046
 30
0.0
 10
557.4022031412132
 20
-863.0350450584046
 30
0.0
 10
557.4022031412132
 20
-863.0350450584046
 30
0.0
 10
560.2439213082416
 20
-863.1989903372705
 30
0.0
 10
560.2439213082416
 20
-863.1989903372705
 30
0.0
 10
568.2827048153576
 20
-864.171732325216
 30
0.0
 10
572.3430828886321
 20
-869.9371412987093
 30
0.0
 10
572.3430828886321
 20
-876.1096810480558
 30
0.0
 10
572.3430828886321
 20
-879.0333718545189
 30
0.0
 10
571.4495811188062
 20
-882.0363028790998
 30
0.0
 10
569.6625775791563
 20
-884.6348355491427
 30
0.0
 10
567.3072304061006
 20
-888.0476297708956
 30
0.0
 10
563.8971686056648
 20
-890.1570590256524
 30
0.0
 10
560.2439213082416
 20
-891.8620899258676
 30
0.0
 10
555.5332269621285
 20
-894.1381968808091
 30
0.0
 10
550.4181342614738
 20
-895.1929115081839
 30
0.0
 10
545.3030415608209
 20
-896.3295987749989
 30
0.0
 10
541.9722199785047
 20
-897.14112790539
 30
0.0
 10
538.6441308175035
 20
-897.627498899361
 30
0.0
 10
535.2313365957543
 20
-898.1958425327684
 30
0.0
 10
531.8212747953185
 20
-898.7669185874875
 30
0.0
 10
528.6543984918662
 20
-899.8216332148659
 30
0.0
 10
525.8126803248379
 20
-901.8518222515049
 30
0.0
 10
523.2141476547949
 20
-903.6388257911531
 30
0.0
 10
520.5350085559749
 20
-904.4503549215478
 30
0.0
 10
517.8545032464972
 20
-904.4503549215478
 30
0.0
 10
515.1753641476771
 20
-904.4503549215478
 30
0.0
 10
512.4948588382013
 20
-903.6388257911531
 30
0.0
 10
509.8157197393812
 20
-902.0950077484886
 30
0.0
  0
HATCH
  5
4D
330
45
100
AcDbEntity
  8
Layer 1
 62
    40
420
 16635155
100
AcDbHatch
 10
0.0
 20
0.0
 30
0.0
210
0.0
220
0.0
230
1.0
  2
SOLID
 70
     1
 71
     0
 91
        1
 92
        1
 93
        1
 72
     4
 94
        3
 73
     0
 74
     1
 95
      119
 96
      115
 40
0.0
 40
0.0
 40
0.0
 40
0.0
 40
1.0
 40
1.0
 40
1.0
 40
2.0
 40
2.0
 40
2.0
 40
3.0
 40
3.0
 40
3.0
 40
4.0
 40
4.0
 40
4.0
 40
5.0
 40
5.0
 40
5.0
 40
6.0
 40
6.0
 40
6.0
 40
7.0
 40
7.0
 40
7.0
 40
8.0
 40
8.0
 40
8.0
 40
9.0
 40
9.0
 40
9.0
 40
10.0
 40
10.0
 40
10.0
 40
11.0
 40
11.0
 40
11.0
 40
12.0
 40
12.0
 40
12.0
 40
13.0
 40
13.0
 40
13.0
 40
14.0
 40
14.0
 40
14.0
 40
15.0
 40
15.0
 40
15.0
 40
16.0
 40
16.0
 40
16.0
 40
17.0
 40
17.0
 40
17.0
 40
18.0
 40
18.0
 40
18.0
 40
19.0
 40
19.0
 40
19.0
 40
20.0
 40
20.0
 40
20.0
 40
21.0
 40
21.0
 40
21.0
 40
22.0
 40
22.0
 40
22.0
 40
23.0
 40
23.0
 40
23.0
 40
24.0
 40
24.0
 40
24.0
 40
25.0
 40
25.0
 40
25.0
 40
26.0
 40
26.0
 40
26.0
 40
27.0
 40
27.0
 40
27.0
 40
28.0
 40
28.0
 40
28.0
 40
29.0
 40
29.0
 40
29.0
 40
30.0
 40
30.0
 40
30.0
 40
31.0
 40
31.0
 40
31.0
 40
32.0
 40
32.0
 40
32.0
 40
33.0
 40
33.0
 40
33.0
 40
34.0
 40
34.0
 40
34.0
 40
35.0
 40
35.0
 40
35.0
 40
36.0
 40
36.0
 40
36.0
 40
37.0
 40
37.0
 40
37.0
 40
38.0
 40
38.0
 40
38.0
 40
38.0
 10
509.8157197393812
 20
-902.0950077484886
 10
509.0847970377654
 20
-901.6086367545176
 10
508.3538743361496
 20
-901.4446914756481
 10
507.7049242739668
 20
-901.4446914756481
 10
507.7049242739668
 20
-901.4446914756481
 10
506.5682370071554
 20
-901.5266641150847
 10
506.5682370071554
 20
-901.5266641150847
 10
505.6747352373295
 20
-901.6878769726354
 10
504.8618398962808
 20
-901.769849612072
 10
504.130917194665
 20
-901.769849612072
 10
498.3655082211735
 20
-901.769849612072
 10
495.036052849513
 20
-898.116602314647
 10
494.8734737813029
 20
-891.7828497077498
 10
494.8734737813029
 20
-891.7828497077498
 10
494.8734737813029
 20
-890.9685881560436
 10
494.8734737813029
 20
-890.9685881560436
 10
494.8734737813029
 20
-885.0419663249995
 10
496.5798708921775
 20
-879.7629283454771
 10
501.8575426610405
 20
-876.2708939056065
 10
503.3999944930492
 20
-875.2161792782317
 10
503.4819671324822
 20
-873.9975193719838
 10
503.4819671324822
 20
-872.6996192476181
 10
503.4819671324822
 20
-872.6996192476181
 10
503.4819671324822
 20
-871.9673303353484
 10
503.4819671324822
 20
-871.9673303353484
 10
503.3193880642739
 20
-863.5241484736907
 10
503.1568089960638
 20
-854.9962615512886
 10
502.7510444308664
 20
-846.5503472683195
 10
502.6690717914316
 20
-843.8725743801551
 10
502.6690717914316
 20
-841.1920690706793
 10
502.6690717914316
 20
-838.5115637612034
 10
502.6690717914316
 20
-835.831058451724
 10
502.6690717914316
 20
-833.1532855635633
 10
502.7510444308664
 20
-830.4727802540874
 10
502.7510444308664
 20
-830.4727802540874
 10
502.8316508596417
 20
-825.3576875534345
 10
502.8316508596417
 20
-825.3576875534345
 10
502.8316508596417
 20
-818.5348315312476
 10
502.5078589338809
 20
-811.7966805698088
 10
501.9395153004753
 20
-805.0557971870585
 10
501.1266199594265
 20
-794.8256117857527
 10
501.0460135306494
 20
-784.5107213236952
 10
499.9899326926134
 20
-774.2805359223894
 10
499.9899326926134
 20
-774.2805359223894
 10
499.909326263838
 20
-771.9251887493338
 10
499.909326263838
 20
-771.9251887493338
 10
499.909326263838
 20
-765.5914361424329
 10
502.7510444308664
 20
-759.987240026494
 10
506.6488434359308
 20
-754.954119965274
 10
509.1667696772001
 20
-751.8664838799414
 10
512.3336459806487
 20
-749.5931093463187
 10
516.3926578432656
 20
-749.5931093463187
 10
516.9623676873289
 20
-749.5931093463187
 10
517.6113177495117
 20
-749.6750819857516
 10
518.2602678116928
 20
-749.7570546251882
 10
524.514780200474
 20
-750.8937418919995
 10
528.2500001373301
 20
-754.7901746864081
 10
530.1982165345325
 20
-760.6375562993344
 10
531.9852200741843
 20
-765.9165942788532
 10
531.9032474347496
 20
-771.436085334044
 10
531.9852200741843
 20
-774.8488795557969
 10
531.9032474347496
 20
-781.8302160142193
 10
531.5780892983312
 20
-786.7048556392001
 10
531.0097456649237
 20
-791.5767628428694
 10
530.1982165345325
 20
-798.1537009467538
 10
529.9550310375471
 20
-804.6486664112053
 10
529.9550310375471
 20
-811.228336936405
 10
529.9550310375471
 20
-816.9937459098983
 10
530.1162438950996
 20
-822.8383951015057
 10
530.3594293920851
 20
-828.6038040750027
 10
530.6845875285035
 20
-836.5633473639973
 10
530.7665601679382
 20
-844.5201582316804
 10
530.7665601679382
 20
-852.4797015206786
 10
530.7665601679382
 20
-852.4797015206786
 10
530.7665601679382
 20
-859.3817977609833
 10
530.7665601679382
 20
-859.3817977609833
 10
530.7665601679382
 20
-864.8220485980564
 10
531.0097456649237
 20
-866.283894001288
 10
534.34056724724
 20
-866.283894001288
 10
535.3133092351854
 20
-866.283894001288
 10
536.6139417808663
 20
-866.1226811437336
 10
538.2370000416486
 20
-865.9587358648678
 10
542.4585909724756
 20
-865.3903922314603
 10
546.6829143246196
 20
-864.4968904616362
 10
550.9864778948795
 20
-863.6853613312451
 10
553.1778797890693
 20
-863.2782305553919
 10
555.2900414651413
 20
-863.0350450584046
 10
557.4022031412132
 20
-863.0350450584046
 10
557.4022031412132
 20
-863.0350450584046
 10
560.2439213082416
 20
-863.1989903372705
 10
560.2439213082416
 20
-863.1989903372705
 10
568.2827048153576
 20
-864.171732325216
 10
572.3430828886321
 20
-869.9371412987093
 10
572.3430828886321
 20
-876.1096810480558
 10
572.3430828886321
 20
-879.0333718545189
 10
571.4495811188062
 20
-882.0363028790998
 10
569.6625775791563
 20
-884.6348355491427
 10
567.3072304061006
 20
-888.0476297708956
 10
563.8971686056648
 20
-890.1570590256524
 10
560.2439213082416
 20
-891.8620899258676
 10
555.5332269621285
 20
-894.1381968808091
 10
550.4181342614738
 20
-895.1929115081839
 10
545.3030415608209
 20
-896.3295987749989
 10
541.9722199785047
 20
-897.14112790539
 10
538.6441308175035
 20
-897.627498899361
 10
535.2313365957543
 20
-898.1958425327684
 10
531.8212747953185
 20
-898.7669185874875
 10
528.6543984918662
 20
-899.8216332148659
 10
525.8126803248379
 20
-901.8518222515049
 10
523.2141476547949
 20
-903.6388257911531
 10
520.5350085559749
 20
-904.4503549215478
 10
517.8545032464972
 20
-904.4503549215478
 10
515.1753641476771
 20
-904.4503549215478
 10
512.4948588382013
 20
-903.6388257911531
 10
509.8157197393812
 20
-902.0950077484886
 97
        0
 97
        0
 75
     2
 76
     1
 98
        0
  0
SPLINE
  5
4E
330
45
100
AcDbEntity
  8
Layer 1
370
     0
100
AcDbSpline
210
0.0
220
0.0
230
1.0
 70
    11
 71
     3
 72
   113
 73
   109
 74
     0
 42
0.0000000001
 43
0.0000000001
 12
1.0
 22
0.0
 32
0.0
 13
1.0
 23
0.0
 33
0.0
 40
0.0
 40
0.0
 40
0.0
 40
0.0
 40
1.0
 40
1.0
 40
1.0
 40
2.0
 40
2.0
 40
2.0
 40
3.0
 40
3.0
 40
3.0
 40
4.0
 40
4.0
 40
4.0
 40
5.0
 40
5.0
 40
5.0
 40
6.0
 40
6.0
 40
6.0
 40
7.0
 40
7.0
 40
7.0
 40
8.0
 40
8.0
 40
8.0
 40
9.0
 40
9.0
 40
9.0
 40
10.0
 40
10.0
 40
10.0
 40
11.0
 40
11.0
 40
11.0
 40
12.0
 40
12.0
 40
12.0
 40
13.0
 40
13.0
 40
13.0
 40
14.0
 40
14.0
 40
14.0
 40
15.0
 40
15.0
 40
15.0
 40
16.0
 40
16.0
 40
16.0
 40
17.0
 40
17.0
 40
17.0
 40
18.0
 40
18.0
 40
18.0
 40
19.0
 40
19.0
 40
19.0
 40
20.0
 40
20.0
 40
20.0
 40
21.0
 40
21.0
 40
21.0
 40
22.0
 40
22.0
 40
22.0
 40
23.0
 40
23.0
 40
23.0
 40
24.0
 40
24.0
 40
24.0
 40
25.0
 40
25.0
 40
25.0
 40
26.0
 40
26.0
 40
26.0
 40
27.0
 40
27.0
 40
27.0
 40
28.0
 40
28.0
 40
28.0
 40
29.0
 40
29.0
 40
29.0
 40
30.0
 40
30.0
 40
30.0
 40
31.0
 40
31.0
 40
31.0
 40
32.0
 40
32.0
 40
32.0
 40
33.0
 40
33.0
 40
33.0
 40
34.0
 40
34.0
 40
34.0
 40
35.0
 40
35.0
 40
35.0
 40
36.0
 40
36.0
 40
36.0
 40
36.0
 10
594.4429064799169
 20
-902.6633513818961
 30
0.0
 10
586.9697341848932
 20
-902.6633513818961
 30
0.0
 10
582.7481432540662
 20
-898.4417604510672
 30
0.0
 10
579.988397726469
 20
-892.2692207017208
 30
0.0
 10
577.4691052745457
 20
-886.3425988706767
 30
0.0
 10
576.9827342805729
 20
-879.84490098491
 30
0.0
 10
576.4963632866002
 20
-873.5111483780129
 30
0.0
 10
576.4963632866002
 20
-873.5111483780129
 30
0.0
 10
576.4963632866002
 20
-868.0708975409398
 30
0.0
 10
576.4963632866002
 20
-868.0708975409398
 30
0.0
 10
576.4963632866002
 20
-863.4421758342578
 30
0.0
 10
576.9007616411382
 20
-858.8134541275758
 30
0.0
 10
578.201394186819
 20
-854.4279179178811
 30
0.0
 10
578.3626070443697
 20
-853.9415469239102
 30
0.0
 10
578.4445796838027
 20
-853.4524435086241
 30
0.0
 10
578.4445796838027
 20
-852.9660725146496
 30
0.0
 10
578.4445796838027
 20
-852.1545433842584
 30
0.0
 10
578.201394186819
 20
-851.4222544719851
 30
0.0
 10
577.6330505534115
 20
-850.6926979810269
 30
0.0
 10
576.1712051501781
 20
-848.7444815838244
 30
0.0
 10
575.5208888773395
 20
-846.3891344107651
 30
0.0
 10
575.2777033803559
 20
-844.0337872377095
 30
0.0
 10
575.1957307409211
 20
-843.383470964869
 30
0.0
 10
575.1957307409211
 20
-842.7358871133438
 30
0.0
 10
575.1957307409211
 20
-842.1675434799363
 30
0.0
 10
575.1957307409211
 20
-839.2438526734732
 30
0.0
 10
576.089232510747
 20
-836.6453200034302
 30
0.0
 10
578.4445796838027
 20
-834.6943711849126
 30
0.0
 10
583.6416450238921
 20
-830.3908076146508
 30
0.0
 10
585.9969921969478
 20
-825.1145020564472
 30
0.0
 10
586.9697341848932
 20
-818.2916460342603
 30
0.0
 10
589.0818958609652
 20
-802.9436355109865
 30
0.0
 10
592.8171157978195
 20
-787.9207831241329
 30
0.0
 10
598.4213119137585
 20
-773.3870341525617
 30
0.0
 10
600.7766590868159
 20
-767.1325217637859
 30
0.0
 10
604.4299063842391
 20
-761.7742435661457
 30
0.0
 10
609.3018135879047
 20
-757.3067347170145
 30
0.0
 10
612.8758206672064
 20
-754.0606181954463
 30
0.0
 10
616.6110406040625
 20
-751.7052710223907
 30
0.0
 10
620.7506588954566
 20
-751.7052710223907
 30
0.0
 10
622.8628205715286
 20
-751.7052710223907
 30
0.0
 10
625.0542224657183
 20
-752.2736146557982
 30
0.0
 10
627.4095696387758
 20
-753.6534874195968
 30
0.0
 10
627.9779132721815
 20
-753.9786455560134
 30
0.0
 10
628.6282295450219
 20
-754.2218310530006
 30
0.0
 10
629.2785458178605
 20
-754.2218310530006
 30
0.0
 10
629.2785458178605
 20
-754.2218310530006
 30
0.0
 10
630.41523308467
 20
-754.2218310530006
 30
0.0
 10
630.41523308467
 20
-754.2218310530006
 30
0.0
 10
633.5821093881223
 20
-754.2218310530006
 30
0.0
 10
636.0986694187304
 20
-755.7656490956651
 30
0.0
 10
638.5359892312226
 20
-757.6318928534347
 30
0.0
 10
648.5229891355411
 20
-765.1023327271469
 30
0.0
 10
653.3948963392104
 20
-775.4964634073222
 30
0.0
 10
655.0206870213078
 20
-787.6775976271456
 30
0.0
 10
656.561772642659
 20
-798.883257437712
 30
0.0
 10
656.4005597851065
 20
-810.2528625271443
 30
0.0
 10
657.5372470519196
 20
-821.4585223377107
 30
0.0
 10
659.0810650945841
 20
-836.3201618670137
 30
0.0
 10
661.0292814917866
 20
-851.0178561174471
 30
0.0
 10
663.4638688829655
 20
-865.7155503678805
 30
0.0
 10
663.8709996588168
 20
-868.0708975409398
 30
0.0
 10
664.0322125163693
 20
-870.3442720745625
 30
0.0
 10
664.0322125163693
 20
-872.5356739687522
 30
0.0
 10
664.0322125163693
 20
-881.5499318851289
 30
0.0
 10
661.0292814917866
 20
-889.8319008892322
 30
0.0
 10
655.6682708728331
 20
-897.3843134023737
 30
0.0
 10
653.2336834816579
 20
-900.9583204816772
 30
0.0
 10
649.6596764023561
 20
-902.4201658849088
 30
0.0
 10
645.5200581109602
 20
-902.4201658849088
 30
0.0
 10
644.3833708441489
 20
-902.4201658849088
 30
0.0
 10
643.0827382984698
 20
-902.3381932454758
 30
0.0
 10
641.7848381741042
 20
-902.0950077484886
 30
0.0
 10
636.1806420581652
 20
-901.0402931211102
 30
0.0
 10
633.338923891135
 20
-897.5482586812432
 30
0.0
 10
632.4454221213109
 20
-892.594378838141
 30
0.0
 10
631.551920351485
 20
-887.1541280010679
 30
0.0
 10
631.3907074939307
 20
-881.6319045245618
 30
0.0
 10
630.9835767180775
 20
-876.1096810480558
 30
0.0
 10
630.3332604452389
 20
-866.6090521377082
 30
0.0
 10
629.6037039542789
 20
-857.1084232273606
 30
0.0
 10
628.3030714086017
 20
-847.6870345351308
 30
0.0
 10
627.9779132721815
 20
-845.2524471439538
 30
0.0
 10
627.5735149176417
 20
-844.2769727346968
 30
0.0
 10
626.193642153843
 20
-844.2769727346968
 30
0.0
 10
625.6252985204392
 20
-844.2769727346968
 30
0.0
 10
624.9749822475987
 20
-844.4409180135626
 30
0.0
 10
623.9995078383399
 20
-844.6841035105499
 30
0.0
 10
619.1276006346743
 20
-845.982003634912
 30
0.0
 10
614.3376660704398
 20
-847.6077943170094
 30
0.0
 10
609.4630264454572
 20
-849.0696397202446
 30
0.0
 10
607.2716245512675
 20
-849.7172235717699
 30
0.0
 10
606.5420680603074
 20
-851.1790689749978
 30
0.0
 10
606.5420680603074
 20
-853.4524435086241
 30
0.0
 10
606.70328091786
 20
-858.8134541275758
 30
0.0
 10
607.3535971907022
 20
-864.171732325216
 30
0.0
 10
608.0039134635408
 20
-869.4507703047348
 30
0.0
 10
608.3263391786459
 20
-871.6421721989282
 30
0.0
 10
608.4083118180788
 20
-873.8363065144331
 30
0.0
 10
608.4083118180788
 20
-876.0277084086229
 30
0.0
 10
608.4083118180788
 20
-882.2002481579693
 30
0.0
 10
607.43283740882
 20
-888.2088426284463
 30
0.0
 10
605.8917517874688
 20
-894.2174370989269
 30
0.0
 10
604.4299063842391
 20
-900.2260315694039
 30
0.0
 10
600.6127138079482
 20
-902.6633513818961
 30
0.0
 10
594.6041193374695
 20
-902.6633513818961
 30
0.0
 10
594.6041193374695
 20
-902.6633513818961
 30
0.0
 10
594.4429064799169
 20
-902.6633513818961
 30
0.0
 10
594.4429064799169
 20
-902.6633513818961
 30
0.0
  0
SPLINE
  5
4F
330
45
100
AcDbEntity
  8
Layer 1
370
     0
100
AcDbSpline
210
0.0
220
0.0
230
1.0
 70
    11
 71
     3
 72
    20
 73
    16
 74
     0
 42
0.0000000001
 43
0.0000000001
 12
1.0
 22
0.0
 32
0.0
 13
1.0
 23
0.0
 33
0.0
 40
0.0
 40
0.0
 40
0.0
 40
0.0
 40
1.0
 40
1.0
 40
1.0
 40
2.0
 40
2.0
 40
2.0
 40
3.0
 40
3.0
 40
3.0
 40
4.0
 40
4.0
 40
4.0
 40
5.0
 40
5.0
 40
5.0
 40
5.0
 10
622.2125042986881
 20
-816.8298006310288
 30
0.0
 10
625.3001403840208
 20
-816.3434296370579
 30
0.0
 10
625.8684840174246
 20
-815.6931133642174
 30
0.0
 10
625.8684840174246
 20
-812.3650242032163
 30
0.0
 10
625.7865113779917
 20
-808.3046461299382
 30
0.0
 10
625.704538738557
 20
-804.0803227777978
 30
0.0
 10
625.218167744586
 20
-800.0226771258385
 30
0.0
 10
624.8110369687311
 20
-796.6918555435223
 30
0.0
 10
624.9749822475987
 20
-793.2817937430882
 30
0.0
 10
623.5131368443672
 20
-790.0329448002012
 30
0.0
 10
620.2642879014857
 20
-798.965230077145
 30
0.0
 10
616.772253461615
 20
-807.8155427146521
 30
0.0
 10
614.9852499219651
 20
-817.7233024008528
 30
0.0
 10
617.8269680889935
 20
-817.3981442644363
 30
0.0
 10
620.0211024044966
 20
-817.154958767449
 30
0.0
 10
622.2125042986881
 20
-816.8298006310288
 30
0.0
  0
HATCH
  5
50
330
45
100
AcDbEntity
  8
Layer 1
 62
    40
420
 16635155
100
AcDbHatch
 10
0.0
 20
0.0
 30
0.0
210
0.0
220
0.0
230
1.0
  2
SOLID
 70
     1
 71
     0
 91
        2
 92
        1
 93
        1
 72
     4
 94
        3
 73
     0
 74
     1
 95
      113
 96
      109
 40
0.0
 40
0.0
 40
0.0
 40
0.0
 40
1.0
 40
1.0
 40
1.0
 40
2.0
 40
2.0
 40
2.0
 40
3.0
 40
3.0
 40
3.0
 40
4.0
 40
4.0
 40
4.0
 40
5.0
 40
5.0
 40
5.0
 40
6.0
 40
6.0
 40
6.0
 40
7.0
 40
7.0
 40
7.0
 40
8.0
 40
8.0
 40
8.0
 40
9.0
 40
9.0
 40
9.0
 40
10.0
 40
10.0
 40
10.0
 40
11.0
 40
11.0
 40
11.0
 40
12.0
 40
12.0
 40
12.0
 40
13.0
 40
13.0
 40
13.0
 40
14.0
 40
14.0
 40
14.0
 40
15.0
 40
15.0
 40
15.0
 40
16.0
 40
16.0
 40
16.0
 40
17.0
 40
17.0
 40
17.0
 40
18.0
 40
18.0
 40
18.0
 40
19.0
 40
19.0
 40
19.0
 40
20.0
 40
20.0
 40
20.0
 40
21.0
 40
21.0
 40
21.0
 40
22.0
 40
22.0
 40
22.0
 40
23.0
 40
23.0
 40
23.0
 40
24.0
 40
24.0
 40
24.0
 40
25.0
 40
25.0
 40
25.0
 40
26.0
 40
26.0
 40
26.0
 40
27.0
 40
27.0
 40
27.0
 40
28.0
 40
28.0
 40
28.0
 40
29.0
 40
29.0
 40
29.0
 40
30.0
 40
30.0
 40
30.0
 40
31.0
 40
31.0
 40
31.0
 40
32.0
 40
32.0
 40
32.0
 40
33.0
 40
33.0
 40
33.0
 40
34.0
 40
34.0
 40
34.0
 40
35.0
 40
35.0
 40
35.0
 40
36.0
 40
36.0
 40
36.0
 40
36.0
 10
594.4429064799169
 20
-902.6633513818961
 10
586.9697341848932
 20
-902.6633513818961
 10
582.7481432540662
 20
-898.4417604510672
 10
579.988397726469
 20
-892.2692207017208
 10
577.4691052745457
 20
-886.3425988706767
 10
576.9827342805729
 20
-879.84490098491
 10
576.4963632866002
 20
-873.5111483780129
 10
576.4963632866002
 20
-873.5111483780129
 10
576.4963632866002
 20
-868.0708975409398
 10
576.4963632866002
 20
-868.0708975409398
 10
576.4963632866002
 20
-863.4421758342578
 10
576.9007616411382
 20
-858.8134541275758
 10
578.201394186819
 20
-854.4279179178811
 10
578.3626070443697
 20
-853.9415469239102
 10
578.4445796838027
 20
-853.4524435086241
 10
578.4445796838027
 20
-852.9660725146496
 10
578.4445796838027
 20
-852.1545433842584
 10
578.201394186819
 20
-851.4222544719851
 10
577.6330505534115
 20
-850.6926979810269
 10
576.1712051501781
 20
-848.7444815838244
 10
575.5208888773395
 20
-846.3891344107651
 10
575.2777033803559
 20
-844.0337872377095
 10
575.1957307409211
 20
-843.383470964869
 10
575.1957307409211
 20
-842.7358871133438
 10
575.1957307409211
 20
-842.1675434799363
 10
575.1957307409211
 20
-839.2438526734732
 10
576.089232510747
 20
-836.6453200034302
 10
578.4445796838027
 20
-834.6943711849126
 10
583.6416450238921
 20
-830.3908076146508
 10
585.9969921969478
 20
-825.1145020564472
 10
586.9697341848932
 20
-818.2916460342603
 10
589.0818958609652
 20
-802.9436355109865
 10
592.8171157978195
 20
-787.9207831241329
 10
598.4213119137585
 20
-773.3870341525617
 10
600.7766590868159
 20
-767.1325217637859
 10
604.4299063842391
 20
-761.7742435661457
 10
609.3018135879047
 20
-757.3067347170145
 10
612.8758206672064
 20
-754.0606181954463
 10
616.6110406040625
 20
-751.7052710223907
 10
620.7506588954566
 20
-751.7052710223907
 10
622.8628205715286
 20
-751.7052710223907
 10
625.0542224657183
 20
-752.2736146557982
 10
627.4095696387758
 20
-753.6534874195968
 10
627.9779132721815
 20
-753.9786455560134
 10
628.6282295450219
 20
-754.2218310530006
 10
629.2785458178605
 20
-754.2218310530006
 10
629.2785458178605
 20
-754.2218310530006
 10
630.41523308467
 20
-754.2218310530006
 10
630.41523308467
 20
-754.2218310530006
 10
633.5821093881223
 20
-754.2218310530006
 10
636.0986694187304
 20
-755.7656490956651
 10
638.5359892312226
 20
-757.6318928534347
 10
648.5229891355411
 20
-765.1023327271469
 10
653.3948963392104
 20
-775.4964634073222
 10
655.0206870213078
 20
-787.6775976271456
 10
656.561772642659
 20
-798.883257437712
 10
656.4005597851065
 20
-810.2528625271443
 10
657.5372470519196
 20
-821.4585223377107
 10
659.0810650945841
 20
-836.3201618670137
 10
661.0292814917866
 20
-851.0178561174471
 10
663.4638688829655
 20
-865.7155503678805
 10
663.8709996588168
 20
-868.0708975409398
 10
664.0322125163693
 20
-870.3442720745625
 10
664.0322125163693
 20
-872.5356739687522
 10
664.0322125163693
 20
-881.5499318851289
 10
661.0292814917866
 20
-889.8319008892322
 10
655.6682708728331
 20
-897.3843134023737
 10
653.2336834816579
 20
-900.9583204816772
 10
649.6596764023561
 20
-902.4201658849088
 10
645.5200581109602
 20
-902.4201658849088
 10
644.3833708441489
 20
-902.4201658849088
 10
643.0827382984698
 20
-902.3381932454758
 10
641.7848381741042
 20
-902.0950077484886
 10
636.1806420581652
 20
-901.0402931211102
 10
633.338923891135
 20
-897.5482586812432
 10
632.4454221213109
 20
-892.594378838141
 10
631.551920351485
 20
-887.1541280010679
 10
631.3907074939307
 20
-881.6319045245618
 10
630.9835767180775
 20
-876.1096810480558
 10
630.3332604452389
 20
-866.6090521377082
 10
629.6037039542789
 20
-857.1084232273606
 10
628.3030714086017
 20
-847.6870345351308
 10
627.9779132721815
 20
-845.2524471439538
 10
627.5735149176417
 20
-844.2769727346968
 10
626.193642153843
 20
-844.2769727346968
 10
625.6252985204392
 20
-844.2769727346968
 10
624.9749822475987
 20
-844.4409180135626
 10
623.9995078383399
 20
-844.6841035105499
 10
619.1276006346743
 20
-845.982003634912
 10
614.3376660704398
 20
-847.6077943170094
 10
609.4630264454572
 20
-849.0696397202446
 10
607.2716245512675
 20
-849.7172235717699
 10
606.5420680603074
 20
-851.1790689749978
 10
606.5420680603074
 20
-853.4524435086241
 10
606.70328091786
 20
-858.8134541275758
 10
607.3535971907022
 20
-864.171732325216
 10
608.0039134635408
 20
-869.4507703047348
 10
608.3263391786459
 20
-871.6421721989282
 10
608.4083118180788
 20
-873.8363065144331
 10
608.4083118180788
 20
-876.0277084086229
 10
608.4083118180788
 20
-882.2002481579693
 10
607.43283740882
 20
-888.2088426284463
 10
605.8917517874688
 20
-894.2174370989269
 10
604.4299063842391
 20
-900.2260315694039
 10
600.6127138079482
 20
-902.6633513818961
 10
594.6041193374695
 20
-902.6633513818961
 10
594.6041193374695
 20
-902.6633513818961
 10
594.4429064799169
 20
-902.6633513818961
 10
594.4429064799169
 20
-902.6633513818961
 97
        0
 97
        0
 92
        1
 93
        1
 72
     4
 94
        3
 73
     0
 74
     1
 95
       20
 96
       16
 40
0.0
 40
0.0
 40
0.0
 40
0.0
 40
1.0
 40
1.0
 40
1.0
 40
2.0
 40
2.0
 40
2.0
 40
3.0
 40
3.0
 40
3.0
 40
4.0
 40
4.0
 40
4.0
 40
5.0
 40
5.0
 40
5.0
 40
5.0
 10
622.2125042986881
 20
-816.8298006310288
 10
625.3001403840208
 20
-816.3434296370579
 10
625.8684840174246
 20
-815.6931133642174
 10
625.8684840174246
 20
-812.3650242032163
 10
625.7865113779917
 20
-808.3046461299382
 10
625.704538738557
 20
-804.0803227777978
 10
625.218167744586
 20
-800.0226771258385
 10
624.8110369687311
 20
-796.6918555435223
 10
624.9749822475987
 20
-793.2817937430882
 10
623.5131368443672
 20
-790.0329448002012
 10
620.2642879014857
 20
-798.965230077145
 10
616.772253461615
 20
-807.8155427146521
 10
614.9852499219651
 20
-817.7233024008528
 10
617.8269680889935
 20
-817.3981442644363
 10
620.0211024044966
 20
-817.154958767449
 10
622.2125042986881
 20
-816.8298006310288
 97
        0
 97
        0
 75
     2
 76
     1
 98
        0
  0
SPLINE
  5
51
330
45
100
AcDbEntity
  8
Layer 1
370
     0
100
AcDbSpline
210
0.0
220
0.0
230
1.0
 70
    11
 71
     3
 72
   101
 73
    97
 74
     0
 42
0.0000000001
 43
0.0000000001
 12
1.0
 22
0.0
 32
0.0
 13
1.0
 23
0.0
 33
0.0
 40
0.0
 40
0.0
 40
0.0
 40
0.0
 40
1.0
 40
1.0
 40
1.0
 40
2.0
 40
2.0
 40
2.0
 40
3.0
 40
3.0
 40
3.0
 40
4.0
 40
4.0
 40
4.0
 40
5.0
 40
5.0
 40
5.0
 40
6.0
 40
6.0
 40
6.0
 40
7.0
 40
7.0
 40
7.0
 40
8.0
 40
8.0
 40
8.0
 40
9.0
 40
9.0
 40
9.0
 40
10.0
 40
10.0
 40
10.0
 40
11.0
 40
11.0
 40
11.0
 40
12.0
 40
12.0
 40
12.0
 40
13.0
 40
13.0
 40
13.0
 40
14.0
 40
14.0
 40
14.0
 40
15.0
 40
15.0
 40
15.0
 40
16.0
 40
16.0
 40
16.0
 40
17.0
 40
17.0
 40
17.0
 40
18.0
 40
18.0
 40
18.0
 40
19.0
 40
19.0
 40
19.0
 40
20.0
 40
20.0
 40
20.0
 40
21.0
 40
21.0
 40
21.0
 40
22.0
 40
22.0
 40
22.0
 40
23.0
 40
23.0
 40
23.0
 40
24.0
 40
24.0
 40
24.0
 40
25.0
 40
25.0
 40
25.0
 40
26.0
 40
26.0
 40
26.0
 40
27.0
 40
27.0
 40
27.0
 40
28.0
 40
28.0
 40
28.0
 40
29.0
 40
29.0
 40
29.0
 40
30.0
 40
30.0
 40
30.0
 40
31.0
 40
31.0
 40
31.0
 40
32.0
 40
32.0
 40
32.0
 40
32.0
 10
696.1245008546011
 20
-900.7151349846899
 30
0.0
 10
691.4165389298014
 20
-899.9828460724166
 30
0.0
 10
688.5720883414597
 20
-897.5482586812432
 30
0.0
 10
687.5173737140813
 20
-892.9195369745612
 30
0.0
 10
686.3806864472699
 20
-887.6404989950424
 30
0.0
 10
685.487184677444
 20
-882.36146101552
 30
0.0
 10
685.487184677444
 20
-877.0031828178799
 30
0.0
 10
685.4052120380093
 20
-866.1226811437336
 30
0.0
 10
685.0008136834713
 20
-855.2394470482759
 30
0.0
 10
685.0008136834713
 20
-844.7660761499828
 30
0.0
 10
685.0008136834713
 20
-844.7660761499828
 30
0.0
 10
685.1620265410238
 20
-834.1260275515087
 30
0.0
 10
685.1620265410238
 20
-834.1260275515087
 30
0.0
 10
685.0827863229024
 20
-822.1908112499805
 30
0.0
 10
685.0827863229024
 20
-811.228336936405
 30
0.0
 10
684.6756555470511
 20
-800.1838899833892
 30
0.0
 10
684.6756555470511
 20
-800.1838899833892
 30
0.0
 10
684.6756555470511
 20
-798.3149138043045
 30
0.0
 10
684.6756555470511
 20
-798.3149138043045
 30
0.0
 10
684.6756555470511
 20
-794.9048520038705
 30
0.0
 10
685.0008136834713
 20
-791.4947902034328
 30
0.0
 10
685.2439991804567
 20
-788.1667010424317
 30
0.0
 10
685.2439991804567
 20
-788.1667010424317
 30
0.0
 10
685.2439991804567
 20
-787.6775976271456
 30
0.0
 10
685.2439991804567
 20
-787.6775976271456
 30
0.0
 10
685.2439991804567
 20
-785.9725667269267
 30
0.0
 10
684.4324700500638
 20
-785.3222504540863
 30
0.0
 10
682.8886520073993
 20
-785.3222504540863
 30
0.0
 10
682.8886520073993
 20
-785.3222504540863
 30
0.0
 10
682.4022810134265
 20
-785.3222504540863
 30
0.0
 10
682.4022810134265
 20
-785.3222504540863
 30
0.0
 10
682.4022810134265
 20
-785.3222504540863
 30
0.0
 10
674.9318411397162
 20
-786.1365120057962
 30
0.0
 10
674.9318411397162
 20
-786.1365120057962
 30
0.0
 10
674.9318411397162
 20
-786.1365120057962
 30
0.0
 10
673.6312085940372
 20
-786.215752223914
 30
0.0
 10
673.6312085940372
 20
-786.215752223914
 30
0.0
 10
666.4039542173141
 20
-786.215752223914
 30
0.0
 10
661.6140196530796
 20
-780.5323158898536
 30
0.0
 10
661.6140196530796
 20
-773.7914325071033
 30
0.0
 10
661.6140196530796
 20
-772.3295871038717
 30
0.0
 10
661.857205150065
 20
-770.8677417006402
 30
0.0
 10
662.2643359259182
 20
-769.4086287187238
 30
0.0
 10
664.4557378201098
 20
-761.9354564236965
 30
0.0
 10
669.4096176632102
 20
-757.9570509898549
 30
0.0
 10
677.2052156733425
 20
-757.875078350422
 30
0.0
 10
688.1676899869199
 20
-757.7138654928713
 30
0.0
 10
698.8050061640806
 20
-755.8448893137866
 30
0.0
 10
709.4423223412396
 20
-753.7354600590297
 30
0.0
 10
713.0163294205431
 20
-753.0851437861893
 30
0.0
 10
716.5083638604101
 20
-752.6780130103361
 30
0.0
 10
720.0796385184003
 20
-752.4348275133489
 30
0.0
 10
720.0796385184003
 20
-752.4348275133489
 30
0.0
 10
721.055112927661
 20
-752.4348275133489
 30
0.0
 10
721.055112927661
 20
-752.4348275133489
 30
0.0
 10
726.981734758705
 20
-752.4348275133489
 30
0.0
 10
731.9356146018054
 20
-755.1973054622613
 30
0.0
 10
736.2391781720653
 20
-758.9325253991155
 30
0.0
 10
738.433312487572
 20
-760.7987691568851
 30
0.0
 10
739.4880271149486
 20
-764.2115633786343
 30
0.0
 10
739.4880271149486
 20
-767.621625179072
 30
0.0
 10
739.4880271149486
 20
-770.4633433460986
 30
0.0
 10
738.6764979845557
 20
-773.4662743706831
 30
0.0
 10
737.2146525813259
 20
-775.4964634073222
 30
0.0
 10
733.3154873656022
 20
-780.8574740262738
 30
0.0
 10
728.6075254408024
 20
-784.1855631872786
 30
0.0
 10
721.7846694186173
 20
-784.1855631872786
 30
0.0
 10
721.7846694186173
 20
-784.1855631872786
 30
0.0
 10
719.1068965304548
 20
-784.1063229691572
 30
0.0
 10
719.1068965304548
 20
-784.1063229691572
 30
0.0
 10
715.9400202270062
 20
-784.1063229691572
 30
0.0
 10
715.4509168117183
 20
-785.0790649571027
 30
0.0
 10
715.0465184571804
 20
-789.0574703909442
 30
0.0
 10
714.314229544907
 20
-795.2300101402907
 30
0.0
 10
714.3962021843417
 20
-801.5637627471879
 30
0.0
 10
714.2349893267892
 20
-807.7363024965343
 30
0.0
 10
714.1530166873545
 20
-812.121838706229
 30
0.0
 10
714.0710440479197
 20
-816.4254022764908
 30
0.0
 10
714.0710440479197
 20
-820.8109384861855
 30
0.0
 10
714.0710440479197
 20
-837.2929038549555
 30
0.0
 10
714.721360320762
 20
-853.6983614269229
 30
0.0
 10
714.721360320762
 20
-870.1803267956966
 30
0.0
 10
714.721360320762
 20
-874.5658630053913
 30
0.0
 10
714.6393876813272
 20
-878.869426575653
 30
0.0
 10
714.5574150418925
 20
-883.2549627853441
 30
0.0
 10
714.4781748237747
 20
-885.9354680948236
 30
0.0
 10
714.3962021843417
 20
-888.5340007648665
 30
0.0
 10
713.8278585509343
 20
-891.2145060743424
 30
0.0
 10
713.4207277750811
 20
-893.2446951109814
 30
0.0
 10
712.5272260052552
 20
-894.9497260112003
 30
0.0
 10
710.9861403839059
 20
-896.0864132780116
 30
0.0
 10
707.250920447048
 20
-898.9281314450418
 30
0.0
 10
703.3517552313278
 20
-900.9583204816772
 30
0.0
 10
698.7230335246459
 20
-900.9583204816772
 30
0.0
 10
697.9115043942547
 20
-900.9583204816772
 30
0.0
 10
697.0180026244288
 20
-900.8763478422443
 30
0.0
 10
696.1245008546011
 20
-900.7151349846899
 30
0.0
  0
HATCH
  5
52
330
45
100
AcDbEntity
  8
Layer 1
 62
    40
420
 16635155
100
AcDbHatch
 10
0.0
 20
0.0
 30
0.0
210
0.0
220
0.0
230
1.0
  2
SOLID
 70
     1
 71
     0
 91
        1
 92
        1
 93
        1
 72
     4
 94
        3
 73
     0
 74
     1
 95
      101
 96
       97
 40
0.0
 40
0.0
 40
0.0
 40
0.0
 40
1.0
 40
1.0
 40
1.0
 40
2.0
 40
2.0
 40
2.0
 40
3.0
 40
3.0
 40
3.0
 40
4.0
 40
4.0
 40
4.0
 40
5.0
 40
5.0
 40
5.0
 40
6.0
 40
6.0
 40
6.0
 40
7.0
 40
7.0
 40
7.0
 40
8.0
 40
8.0
 40
8.0
 40
9.0
 40
9.0
 40
9.0
 40
10.0
 40
10.0
 40
10.0
 40
11.0
 40
11.0
 40
11.0
 40
12.0
 40
12.0
 40
12.0
 40
13.0
 40
13.0
 40
13.0
 40
14.0
 40
14.0
 40
14.0
 40
15.0
 40
15.0
 40
15.0
 40
16.0
 40
16.0
 40
16.0
 40
17.0
 40
17.0
 40
17.0
 40
18.0
 40
18.0
 40
18.0
 40
19.0
 40
19.0
 40
19.0
 40
20.0
 40
20.0
 40
20.0
 40
21.0
 40
21.0
 40
21.0
 40
22.0
 40
22.0
 40
22.0
 40
23.0
 40
23.0
 40
23.0
 40
24.0
 40
24.0
 40
24.0
 40
25.0
 40
25.0
 40
25.0
 40
26.0
 40
26.0
 40
26.0
 40
27.0
 40
27.0
 40
27.0
 40
28.0
 40
28.0
 40
28.0
 40
29.0
 40
29.0
 40
29.0
 40
30.0
 40
30.0
 40
30.0
 40
31.0
 40
31.0
 40
31.0
 40
32.0
 40
32.0
 40
32.0
 40
32.0
 10
696.1245008546011
 20
-900.7151349846899
 10
691.4165389298014
 20
-899.9828460724166
 10
688.5720883414597
 20
-897.5482586812432
 10
687.5173737140813
 20
-892.9195369745612
 10
686.3806864472699
 20
-887.6404989950424
 10
685.487184677444
 20
-882.36146101552
 10
685.487184677444
 20
-877.0031828178799
 10
685.4052120380093
 20
-866.1226811437336
 10
685.0008136834713
 20
-855.2394470482759
 10
685.0008136834713
 20
-844.7660761499828
 10
685.0008136834713
 20
-844.7660761499828
 10
685.1620265410238
 20
-834.1260275515087
 10
685.1620265410238
 20
-834.1260275515087
 10
685.0827863229024
 20
-822.1908112499805
 10
685.0827863229024
 20
-811.228336936405
 10
684.6756555470511
 20
-800.1838899833892
 10
684.6756555470511
 20
-800.1838899833892
 10
684.6756555470511
 20
-798.3149138043045
 10
684.6756555470511
 20
-798.3149138043045
 10
684.6756555470511
 20
-794.9048520038705
 10
685.0008136834713
 20
-791.4947902034328
 10
685.2439991804567
 20
-788.1667010424317
 10
685.2439991804567
 20
-788.1667010424317
 10
685.2439991804567
 20
-787.6775976271456
 10
685.2439991804567
 20
-787.6775976271456
 10
685.2439991804567
 20
-785.9725667269267
 10
684.4324700500638
 20
-785.3222504540863
 10
682.8886520073993
 20
-785.3222504540863
 10
682.8886520073993
 20
-785.3222504540863
 10
682.4022810134265
 20
-785.3222504540863
 10
682.4022810134265
 20
-785.3222504540863
 10
682.4022810134265
 20
-785.3222504540863
 10
674.9318411397162
 20
-786.1365120057962
 10
674.9318411397162
 20
-786.1365120057962
 10
674.9318411397162
 20
-786.1365120057962
 10
673.6312085940372
 20
-786.215752223914
 10
673.6312085940372
 20
-786.215752223914
 10
666.4039542173141
 20
-786.215752223914
 10
661.6140196530796
 20
-780.5323158898536
 10
661.6140196530796
 20
-773.7914325071033
 10
661.6140196530796
 20
-772.3295871038717
 10
661.857205150065
 20
-770.8677417006402
 10
662.2643359259182
 20
-769.4086287187238
 10
664.4557378201098
 20
-761.9354564236965
 10
669.4096176632102
 20
-757.9570509898549
 10
677.2052156733425
 20
-757.875078350422
 10
688.1676899869199
 20
-757.7138654928713
 10
698.8050061640806
 20
-755.8448893137866
 10
709.4423223412396
 20
-753.7354600590297
 10
713.0163294205431
 20
-753.0851437861893
 10
716.5083638604101
 20
-752.6780130103361
 10
720.0796385184003
 20
-752.4348275133489
 10
720.0796385184003
 20
-752.4348275133489
 10
721.055112927661
 20
-752.4348275133489
 10
721.055112927661
 20
-752.4348275133489
 10
726.981734758705
 20
-752.4348275133489
 10
731.9356146018054
 20
-755.1973054622613
 10
736.2391781720653
 20
-758.9325253991155
 10
738.433312487572
 20
-760.7987691568851
 10
739.4880271149486
 20
-764.2115633786343
 10
739.4880271149486
 20
-767.621625179072
 10
739.4880271149486
 20
-770.4633433460986
 10
738.6764979845557
 20
-773.4662743706831
 10
737.2146525813259
 20
-775.4964634073222
 10
733.3154873656022
 20
-780.8574740262738
 10
728.6075254408024
 20
-784.1855631872786
 10
721.7846694186173
 20
-784.1855631872786
 10
721.7846694186173
 20
-784.1855631872786
 10
719.1068965304548
 20
-784.1063229691572
 10
719.1068965304548
 20
-784.1063229691572
 10
715.9400202270062
 20
-784.1063229691572
 10
715.4509168117183
 20
-785.0790649571027
 10
715.0465184571804
 20
-789.0574703909442
 10
714.314229544907
 20
-795.2300101402907
 10
714.3962021843417
 20
-801.5637627471879
 10
714.2349893267892
 20
-807.7363024965343
 10
714.1530166873545
 20
-812.121838706229
 10
714.0710440479197
 20
-816.4254022764908
 10
714.0710440479197
 20
-820.8109384861855
 10
714.0710440479197
 20
-837.2929038549555
 10
714.721360320762
 20
-853.6983614269229
 10
714.721360320762
 20
-870.1803267956966
 10
714.721360320762
 20
-874.5658630053913
 10
714.6393876813272
 20
-878.869426575653
 10
714.5574150418925
 20
-883.2549627853441
 10
714.4781748237747
 20
-885.9354680948236
 10
714.3962021843417
 20
-888.5340007648665
 10
713.8278585509343
 20
-891.2145060743424
 10
713.4207277750811
 20
-893.2446951109814
 10
712.5272260052552
 20
-894.9497260112003
 10
710.9861403839059
 20
-896.0864132780116
 10
707.250920447048
 20
-898.9281314450418
 10
703.3517552313278
 20
-900.9583204816772
 10
698.7230335246459
 20
-900.9583204816772
 10
697.9115043942547
 20
-900.9583204816772
 10
697.0180026244288
 20
-900.8763478422443
 10
696.1245008546011
 20
-900.7151349846899
 97
        0
 97
        0
 75
     2
 76
     1
 98
        0
  0
SPLINE
  5
53
330
45
100
AcDbEntity
  8
Layer 1
370
     0
100
AcDbSpline
210
0.0
220
0.0
230
1.0
 70
    11
 71
     3
 72
   101
 73
    97
 74
     0
 42
0.0000000001
 43
0.0000000001
 12
1.0
 22
0.0
 32
0.0
 13
1.0
 23
0.0
 33
0.0
 40
0.0
 40
0.0
 40
0.0
 40
0.0
 40
1.0
 40
1.0
 40
1.0
 40
2.0
 40
2.0
 40
2.0
 40
3.0
 40
3.0
 40
3.0
 40
4.0
 40
4.0
 40
4.0
 40
5.0
 40
5.0
 40
5.0
 40
6.0
 40
6.0
 40
6.0
 40
7.0
 40
7.0
 40
7.0
 40
8.0
 40
8.0
 40
8.0
 40
9.0
 40
9.0
 40
9.0
 40
10.0
 40
10.0
 40
10.0
 40
11.0
 40
11.0
 40
11.0
 40
12.0
 40
12.0
 40
12.0
 40
13.0
 40
13.0
 40
13.0
 40
14.0
 40
14.0
 40
14.0
 40
15.0
 40
15.0
 40
15.0
 40
16.0
 40
16.0
 40
16.0
 40
17.0
 40
17.0
 40
17.0
 40
18.0
 40
18.0
 40
18.0
 40
19.0
 40
19.0
 40
19.0
 40
20.0
 40
20.0
 40
20.0
 40
21.0
 40
21.0
 40
21.0
 40
22.0
 40
22.0
 40
22.0
 40
23.0
 40
23.0
 40
23.0
 40
24.0
 40
24.0
 40
24.0
 40
25.0
 40
25.0
 40
25.0
 40
26.0
 40
26.0
 40
26.0
 40
27.0
 40
27.0
 40
27.0
 40
28.0
 40
28.0
 40
28.0
 40
29.0
 40
29.0
 40
29.0
 40
30.0
 40
30.0
 40
30.0
 40
31.0
 40
31.0
 40
31.0
 40
32.0
 40
32.0
 40
32.0
 40
32.0
 10
774.0121704230442
 20
-900.7151349846899
 30
0.0
 10
769.3042084982462
 20
-899.9828460724166
 30
0.0
 10
766.4597579099009
 20
-897.5482586812432
 30
0.0
 10
765.4050432825206
 20
-892.9195369745612
 30
0.0
 10
764.2683560157111
 20
-887.6404989950424
 30
0.0
 10
763.3748542458834
 20
-882.36146101552
 30
0.0
 10
763.3748542458834
 20
-877.0031828178799
 30
0.0
 10
763.2928816064523
 20
-866.1226811437336
 30
0.0
 10
762.8884832519125
 20
-855.2394470482759
 30
0.0
 10
762.8884832519125
 20
-844.7660761499828
 30
0.0
 10
762.8884832519125
 20
-844.7660761499828
 30
0.0
 10
763.049696109465
 20
-834.1260275515087
 30
0.0
 10
763.049696109465
 20
-834.1260275515087
 30
0.0
 10
762.9704558913472
 20
-822.1908112499805
 30
0.0
 10
762.9704558913472
 20
-811.228336936405
 30
0.0
 10
762.5633251154923
 20
-800.1838899833892
 30
0.0
 10
762.5633251154923
 20
-800.1838899833892
 30
0.0
 10
762.5633251154923
 20
-798.3149138043045
 30
0.0
 10
762.5633251154923
 20
-798.3149138043045
 30
0.0
 10
762.5633251154923
 20
-794.9048520038705
 30
0.0
 10
762.8884832519125
 20
-791.4947902034328
 30
0.0
 10
763.1316687488998
 20
-788.1667010424317
 30
0.0
 10
763.1316687488998
 20
-788.1667010424317
 30
0.0
 10
763.1316687488998
 20
-787.6775976271456
 30
0.0
 10
763.1316687488998
 20
-787.6775976271456
 30
0.0
 10
763.1316687488998
 20
-785.9725667269267
 30
0.0
 10
762.3201396185068
 20
-785.3222504540863
 30
0.0
 10
760.7763215758405
 20
-785.3222504540863
 30
0.0
 10
760.7763215758405
 20
-785.3222504540863
 30
0.0
 10
760.2899505818677
 20
-785.3222504540863
 30
0.0
 10
760.2899505818677
 20
-785.3222504540863
 30
0.0
 10
760.2899505818677
 20
-785.3222504540863
 30
0.0
 10
752.8195107081574
 20
-786.1365120057962
 30
0.0
 10
752.8195107081574
 20
-786.1365120057962
 30
0.0
 10
752.8195107081574
 20
-786.1365120057962
 30
0.0
 10
751.5188781624802
 20
-786.215752223914
 30
0.0
 10
751.5188781624802
 20
-786.215752223914
 30
0.0
 10
744.2916237857553
 20
-786.215752223914
 30
0.0
 10
739.5016892215208
 20
-780.5323158898536
 30
0.0
 10
739.5016892215208
 20
-773.7914325071033
 30
0.0
 10
739.5016892215208
 20
-772.3295871038717
 30
0.0
 10
739.7448747185081
 20
-770.8677417006402
 30
0.0
 10
740.152005494363
 20
-769.4086287187238
 30
0.0
 10
742.3434073885528
 20
-761.9354564236965
 30
0.0
 10
747.2972872316532
 20
-757.9570509898549
 30
0.0
 10
755.0928852417819
 20
-757.875078350422
 30
0.0
 10
766.0553595553629
 20
-757.7138654928713
 30
0.0
 10
776.6926757325218
 20
-755.8448893137866
 30
0.0
 10
787.3299919096826
 20
-753.7354600590297
 30
0.0
 10
790.9039989889843
 20
-753.0851437861893
 30
0.0
 10
794.3960334288549
 20
-752.6780130103361
 30
0.0
 10
797.9673080868397
 20
-752.4348275133489
 30
0.0
 10
797.9673080868397
 20
-752.4348275133489
 30
0.0
 10
798.9427824961003
 20
-752.4348275133489
 30
0.0
 10
798.9427824961003
 20
-752.4348275133489
 30
0.0
 10
804.8694043271462
 20
-752.4348275133489
 30
0.0
 10
809.8232841702466
 20
-755.1973054622613
 30
0.0
 10
814.1268477405083
 20
-758.9325253991155
 30
0.0
 10
816.3209820560114
 20
-760.7987691568851
 30
0.0
 10
817.3756966833917
 20
-764.2115633786343
 30
0.0
 10
817.3756966833917
 20
-767.621625179072
 30
0.0
 10
817.3756966833917
 20
-770.4633433460986
 30
0.0
 10
816.5641675529987
 20
-773.4662743706831
 30
0.0
 10
815.1023221497671
 20
-775.4964634073222
 30
0.0
 10
811.2031569340452
 20
-780.8574740262738
 30
0.0
 10
806.4951950092454
 20
-784.1855631872786
 30
0.0
 10
799.6723389870585
 20
-784.1855631872786
 30
0.0
 10
799.6723389870585
 20
-784.1855631872786
 30
0.0
 10
796.994566098896
 20
-784.1063229691572
 30
0.0
 10
796.994566098896
 20
-784.1063229691572
 30
0.0
 10
793.8276897954474
 20
-784.1063229691572
 30
0.0
 10
793.3385863801614
 20
-785.0790649571027
 30
0.0
 10
792.9341880256216
 20
-789.0574703909442
 30
0.0
 10
792.2018991133482
 20
-795.2300101402907
 30
0.0
 10
792.2838717527829
 20
-801.5637627471879
 30
0.0
 10
792.1226588952304
 20
-807.7363024965343
 30
0.0
 10
792.0406862557957
 20
-812.121838706229
 30
0.0
 10
791.9587136163627
 20
-816.4254022764908
 30
0.0
 10
791.9587136163627
 20
-820.8109384861855
 30
0.0
 10
791.9587136163627
 20
-837.2929038549555
 30
0.0
 10
792.6090298892013
 20
-853.6983614269229
 30
0.0
 10
792.6090298892013
 20
-870.1803267956966
 30
0.0
 10
792.6090298892013
 20
-874.5658630053913
 30
0.0
 10
792.5270572497666
 20
-878.869426575653
 30
0.0
 10
792.4450846103355
 20
-883.2549627853441
 30
0.0
 10
792.3658443922141
 20
-885.9354680948236
 30
0.0
 10
792.2838717527829
 20
-888.5340007648665
 30
0.0
 10
791.7155281193754
 20
-891.2145060743424
 30
0.0
 10
791.3083973435223
 20
-893.2446951109814
 30
0.0
 10
790.4148955736982
 20
-894.9497260112003
 30
0.0
 10
788.8738099523471
 20
-896.0864132780116
 30
0.0
 10
785.138590015491
 20
-898.9281314450418
 30
0.0
 10
781.2394247997672
 20
-900.9583204816772
 30
0.0
 10
776.6107030930889
 20
-900.9583204816772
 30
0.0
 10
775.7991739626941
 20
-900.9583204816772
 30
0.0
 10
774.9056721928719
 20
-900.8763478422443
 30
0.0
 10
774.0121704230442
 20
-900.7151349846899
 30
0.0
  0
HATCH
  5
54
330
45
100
AcDbEntity
  8
Layer 1
 62
    40
420
 16635155
100
AcDbHatch
 10
0.0
 20
0.0
 30
0.0
210
0.0
220
0.0
230
1.0
  2
SOLID
 70
     1
 71
     0
 91
        1
 92
        1
 93
        1
 72
     4
 94
        3
 73
     0
 74
     1
 95
      101
 96
       97
 40
0.0
 40
0.0
 40
0.0
 40
0.0
 40
1.0
 40
1.0
 40
1.0
 40
2.0
 40
2.0
 40
2.0
 40
3.0
 40
3.0
 40
3.0
 40
4.0
 40
4.0
 40
4.0
 40
5.0
 40
5.0
 40
5.0
 40
6.0
 40
6.0
 40
6.0
 40
7.0
 40
7.0
 40
7.0
 40
8.0
 40
8.0
 40
8.0
 40
9.0
 40
9.0
 40
9.0
 40
10.0
 40
10.0
 40
10.0
 40
11.0
 40
11.0
 40
11.0
 40
12.0
 40
12.0
 40
12.0
 40
13.0
 40
13.0
 40
13.0
 40
14.0
 40
14.0
 40
14.0
 40
15.0
 40
15.0
 40
15.0
 40
16.0
 40
16.0
 40
16.0
 40
17.0
 40
17.0
 40
17.0
 40
18.0
 40
18.0
 40
18.0
 40
19.0
 40
19.0
 40
19.0
 40
20.0
 40
20.0
 40
20.0
 40
21.0
 40
21.0
 40
21.0
 40
22.0
 40
22.0
 40
22.0
 40
23.0
 40
23.0
 40
23.0
 40
24.0
 40
24.0
 40
24.0
 40
25.0
 40
25.0
 40
25.0
 40
26.0
 40
26.0
 40
26.0
 40
27.0
 40
27.0
 40
27.0
 40
28.0
 40
28.0
 40
28.0
 40
29.0
 40
29.0
 40
29.0
 40
30.0
 40
30.0
 40
30.0
 40
31.0
 40
31.0
 40
31.0
 40
32.0
 40
32.0
 40
32.0
 40
32.0
 10
774.0121704230442
 20
-900.7151349846899
 10
769.3042084982462
 20
-899.9828460724166
 10
766.4597579099009
 20
-897.5482586812432
 10
765.4050432825206
 20
-892.9195369745612
 10
764.2683560157111
 20
-887.6404989950424
 10
763.3748542458834
 20
-882.36146101552
 10
763.3748542458834
 20
-877.0031828178799
 10
763.2928816064523
 20
-866.1226811437336
 10
762.8884832519125
 20
-855.2394470482759
 10
762.8884832519125
 20
-844.7660761499828
 10
762.8884832519125
 20
-844.7660761499828
 10
763.049696109465
 20
-834.1260275515087
 10
763.049696109465
 20
-834.1260275515087
 10
762.9704558913472
 20
-822.1908112499805
 10
762.9704558913472
 20
-811.228336936405
 10
762.5633251154923
 20
-800.1838899833892
 10
762.5633251154923
 20
-800.1838899833892
 10
762.5633251154923
 20
-798.3149138043045
 10
762.5633251154923
 20
-798.3149138043045
 10
762.5633251154923
 20
-794.9048520038705
 10
762.8884832519125
 20
-791.4947902034328
 10
763.1316687488998
 20
-788.1667010424317
 10
763.1316687488998
 20
-788.1667010424317
 10
763.1316687488998
 20
-787.6775976271456
 10
763.1316687488998
 20
-787.6775976271456
 10
763.1316687488998
 20
-785.9725667269267
 10
762.3201396185068
 20
-785.3222504540863
 10
760.7763215758405
 20
-785.3222504540863
 10
760.7763215758405
 20
-785.3222504540863
 10
760.2899505818677
 20
-785.3222504540863
 10
760.2899505818677
 20
-785.3222504540863
 10
760.2899505818677
 20
-785.3222504540863
 10
752.8195107081574
 20
-786.1365120057962
 10
752.8195107081574
 20
-786.1365120057962
 10
752.8195107081574
 20
-786.1365120057962
 10
751.5188781624802
 20
-786.215752223914
 10
751.5188781624802
 20
-786.215752223914
 10
744.2916237857553
 20
-786.215752223914
 10
739.5016892215208
 20
-780.5323158898536
 10
739.5016892215208
 20
-773.7914325071033
 10
739.5016892215208
 20
-772.3295871038717
 10
739.7448747185081
 20
-770.8677417006402
 10
740.152005494363
 20
-769.4086287187238
 10
742.3434073885528
 20
-761.9354564236965
 10
747.2972872316532
 20
-757.9570509898549
 10
755.0928852417819
 20
-757.875078350422
 10
766.0553595553629
 20
-757.7138654928713
 10
776.6926757325218
 20
-755.8448893137866
 10
787.3299919096826
 20
-753.7354600590297
 10
790.9039989889843
 20
-753.0851437861893
 10
794.3960334288549
 20
-752.6780130103361
 10
797.9673080868397
 20
-752.4348275133489
 10
797.9673080868397
 20
-752.4348275133489
 10
798.9427824961003
 20
-752.4348275133489
 10
798.9427824961003
 20
-752.4348275133489
 10
804.8694043271462
 20
-752.4348275133489
 10
809.8232841702466
 20
-755.1973054622613
 10
814.1268477405083
 20
-758.9325253991155
 10
816.3209820560114
 20
-760.7987691568851
 10
817.3756966833917
 20
-764.2115633786343
 10
817.3756966833917
 20
-767.621625179072
 10
817.3756966833917
 20
-770.4633433460986
 10
816.5641675529987
 20
-773.4662743706831
 10
815.1023221497671
 20
-775.4964634073222
 10
811.2031569340452
 20
-780.8574740262738
 10
806.4951950092454
 20
-784.1855631872786
 10
799.6723389870585
 20
-784.1855631872786
 10
799.6723389870585
 20
-784.1855631872786
 10
796.994566098896
 20
-784.1063229691572
 10
796.994566098896
 20
-784.1063229691572
 10
793.8276897954474
 20
-784.1063229691572
 10
793.3385863801614
 20
-785.0790649571027
 10
792.9341880256216
 20
-789.0574703909442
 10
792.2018991133482
 20
-795.2300101402907
 10
792.2838717527829
 20
-801.5637627471879
 10
792.1226588952304
 20
-807.7363024965343
 10
792.0406862557957
 20
-812.121838706229
 10
791.9587136163627
 20
-816.4254022764908
 10
791.9587136163627
 20
-820.8109384861855
 10
791.9587136163627
 20
-837.2929038549555
 10
792.6090298892013
 20
-853.6983614269229
 10
792.6090298892013
 20
-870.1803267956966
 10
792.6090298892013
 20
-874.5658630053913
 10
792.5270572497666
 20
-878.869426575653
 10
792.4450846103355
 20
-883.2549627853441
 10
792.3658443922141
 20
-885.9354680948236
 10
792.2838717527829
 20
-888.5340007648665
 10
791.7155281193754
 20
-891.2145060743424
 10
791.3083973435223
 20
-893.2446951109814
 10
790.4148955736982
 20
-894.9497260112003
 10
788.8738099523471
 20
-896.0864132780116
 10
785.138590015491
 20
-898.9281314450418
 10
781.2394247997672
 20
-900.9583204816772
 10
776.6107030930889
 20
-900.9583204816772
 10
775.7991739626941
 20
-900.9583204816772
 10
774.9056721928719
 20
-900.8763478422443
 10
774.0121704230442
 20
-900.7151349846899
 97
        0
 97
        0
 75
     2
 76
     1
 98
        0
  0
SPLINE
  5
55
330
45
100
AcDbEntity
  8
Layer 1
370
     0
100
AcDbSpline
210
0.0
220
0.0
230
1.0
 70
    11
 71
     3
 72
   158
 73
   154
 74
     0
 42
0.0000000001
 43
0.0000000001
 12
1.0
 22
0.0
 32
0.0
 13
1.0
 23
0.0
 33
0.0
 40
0.0
 40
0.0
 40
0.0
 40
0.0
 40
1.0
 40
1.0
 40
1.0
 40
2.0
 40
2.0
 40
2.0
 40
3.0
 40
3.0
 40
3.0
 40
4.0
 40
4.0
 40
4.0
 40
5.0
 40
5.0
 40
5.0
 40
6.0
 40
6.0
 40
6.0
 40
7.0
 40
7.0
 40
7.0
 40
8.0
 40
8.0
 40
8.0
 40
9.0
 40
9.0
 40
9.0
 40
10.0
 40
10.0
 40
10.0
 40
11.0
 40
11.0
 40
11.0
 40
12.0
 40
12.0
 40
12.0
 40
13.0
 40
13.0
 40
13.0
 40
14.0
 40
14.0
 40
14.0
 40
15.0
 40
15.0
 40
15.0
 40
16.0
 40
16.0
 40
16.0
 40
17.0
 40
17.0
 40
17.0
 40
18.0
 40
18.0
 40
18.0
 40
19.0
 40
19.0
 40
19.0
 40
20.0
 40
20.0
 40
20.0
 40
21.0
 40
21.0
 40
21.0
 40
22.0
 40
22.0
 40
22.0
 40
23.0
 40
23.0
 40
23.0
 40
24.0
 40
24.0
 40
24.0
 40
25.0
 40
25.0
 40
25.0
 40
26.0
 40
26.0
 40
26.0
 40
27.0
 40
27.0
 40
27.0
 40
28.0
 40
28.0
 40
28.0
 40
29.0
 40
29.0
 40
29.0
 40
30.0
 40
30.0
 40
30.0
 40
31.0
 40
31.0
 40
31.0
 40
32.0
 40
32.0
 40
32.0
 40
33.0
 40
33.0
 40
33.0
 40
34.0
 40
34.0
 40
34.0
 40
35.0
 40
35.0
 40
35.0
 40
36.0
 40
36.0
 40
36.0
 40
37.0
 40
37.0
 40
37.0
 40
38.0
 40
38.0
 40
38.0
 40
39.0
 40
39.0
 40
39.0
 40
40.0
 40
40.0
 40
40.0
 40
41.0
 40
41.0
 40
41.0
 40
42.0
 40
42.0
 40
42.0
 40
43.0
 40
43.0
 40
43.0
 40
44.0
 40
44.0
 40
44.0
 40
45.0
 40
45.0
 40
45.0
 40
46.0
 40
46.0
 40
46.0
 40
47.0
 40
47.0
 40
47.0
 40
48.0
 40
48.0
 40
48.0
 40
49.0
 40
49.0
 40
49.0
 40
50.0
 40
50.0
 40
50.0
 40
51.0
 40
51.0
 40
51.0
 40
51.0
 10
837.6885167350229
 20
-901.6086367545176
 30
0.0
 10
831.5187094069934
 20
-901.2015059786645
 30
0.0
 10
828.26986046411
 20
-896.8159697689698
 30
0.0
 10
825.9964859304855
 20
-891.8620899258676
 30
0.0
 10
824.6985858061216
 20
-889.0203717588374
 30
0.0
 10
824.3734276697014
 20
-885.8534954553907
 30
0.0
 10
823.8843242544135
 20
-882.7685917913732
 30
0.0
 10
822.6683967694844
 20
-874.0794920114167
 30
0.0
 10
822.2612659936294
 20
-865.3903922314603
 30
0.0
 10
822.2612659936294
 20
-856.1329488181
 30
0.0
 10
822.2612659936294
 20
-845.495632640941
 30
0.0
 10
822.7476369876022
 20
-834.0467873333873
 30
0.0
 10
823.1547677634571
 20
-821.0541239831728
 30
0.0
 10
823.3979532604408
 20
-813.8268696064442
 30
0.0
 10
823.1547677634571
 20
-800.9954191137804
 30
0.0
 10
823.8843242544135
 20
-788.1667010424317
 30
0.0
 10
824.2914550302667
 20
-781.1826321626941
 30
0.0
 10
825.835273072933
 20
-774.3597761405072
 30
0.0
 10
826.3216440669039
 20
-767.3784396820847
 30
0.0
 10
826.4036167063387
 20
-766.4029652728241
 30
0.0
 10
826.5648295638912
 20
-765.509463503
 30
0.0
 10
826.5648295638912
 20
-764.5339890937394
 30
0.0
 10
826.5648295638912
 20
-764.0476180997684
 30
0.0
 10
826.4828569244582
 20
-763.479274466361
 30
0.0
 10
826.4036167063387
 20
-762.9109308329571
 30
0.0
 10
826.157698788038
 20
-761.9354564236965
 30
0.0
 10
826.0784585699203
 20
-761.0419546538724
 30
0.0
 10
826.0784585699203
 20
-760.2304255234776
 30
0.0
 10
826.0784585699203
 20
-757.7138654928713
 30
0.0
 10
827.2151458367316
 20
-756.0908072320854
 30
0.0
 10
829.974891364327
 20
-754.4650165499879
 30
0.0
 10
832.7373693132377
 20
-752.841958289202
 30
0.0
 10
835.7403003378204
 20
-752.0304291588109
 30
0.0
 10
838.8279364231494
 20
-751.5413257435248
 30
0.0
 10
844.1862146207877
 20
-750.7297966131337
 30
0.0
 10
849.7084380972956
 20
-750.4046384767134
 30
0.0
 10
855.1486889343687
 20
-750.4046384767134
 30
0.0
 10
859.3702798651957
 20
-750.4046384767134
 30
0.0
 10
863.5126305779049
 20
-750.5685837555793
 30
0.0
 10
867.7342215087319
 20
-750.8937418919995
 30
0.0
 10
872.6088611337145
 20
-751.2189000284161
 30
0.0
 10
877.2375828403965
 20
-753.3283292831729
 30
0.0
 10
882.1094900440621
 20
-754.1398584135677
 30
0.0
 10
884.6260500746739
 20
-754.6289618288538
 30
0.0
 10
886.1698681173384
 20
-756.4159653685056
 30
0.0
 10
886.9813972477295
 20
-758.850552759679
 30
0.0
 10
887.954139235675
 20
-761.5310580691585
 30
0.0
 10
888.3612700115282
 20
-764.1295907392014
 30
0.0
 10
888.3612700115282
 20
-766.7281234092443
 30
0.0
 10
888.3612700115282
 20
-770.2201578491149
 30
0.0
 10
887.5497408811352
 20
-773.7121922889855
 30
0.0
 10
886.0878954779037
 20
-777.1222540894196
 30
0.0
 10
885.6015244839327
 20
-778.3409139956639
 30
0.0
 10
884.7872629322246
 20
-779.6388141200296
 30
0.0
 10
883.5713354472937
 20
-780.1251851140005
 30
0.0
 10
879.5901975921388
 20
-781.5077902991143
 30
0.0
 10
875.7757374371649
 20
-783.4560066963168
 30
0.0
 10
871.4721738669032
 20
-783.4560066963168
 30
0.0
 10
871.4721738669032
 20
-783.4560066963168
 30
0.0
 10
870.7398849546298
 20
-783.4560066963168
 30
0.0
 10
870.7398849546298
 20
-783.4560066963168
 30
0.0
 10
866.7614795207883
 20
-783.2128211993331
 30
0.0
 10
862.7830740869467
 20
-782.9696357023458
 30
0.0
 10
858.7226960136704
 20
-782.8876630629129
 30
0.0
 10
858.7226960136704
 20
-782.8876630629129
 30
0.0
 10
857.8291942438464
 20
-782.8876630629129
 30
0.0
 10
857.8291942438464
 20
-782.8876630629129
 30
0.0
 10
855.1486889343687
 20
-782.8876630629129
 30
0.0
 10
854.8235307979485
 20
-783.3740340568838
 30
0.0
 10
854.4191324434105
 20
-786.4589377209013
 30
0.0
 10
853.2004725371662
 20
-793.4430066006389
 30
0.0
 10
852.550156264324
 20
-800.5090481198094
 30
0.0
 10
852.550156264324
 20
-807.5723572176685
 30
0.0
 10
852.550156264324
 20
-807.5723572176685
 30
0.0
 10
852.550156264324
 20
-808.7090444844798
 30
0.0
 10
852.550156264324
 20
-808.7090444844798
 30
0.0
 10
852.6321289037587
 20
-812.2010789243468
 30
0.0
 10
852.7113691218765
 20
-812.2830515637797
 30
0.0
 10
856.4493214800495
 20
-812.4442644213341
 30
0.0
 10
856.4493214800495
 20
-812.4442644213341
 30
0.0
 10
861.9688125352404
 20
-812.526237060767
 30
0.0
 10
861.9688125352404
 20
-812.526237060767
 30
0.0
 10
861.9688125352404
 20
-812.526237060767
 30
0.0
 10
868.3025651421394
 20
-812.4442644213341
 30
0.0
 10
868.3025651421394
 20
-812.4442644213341
 30
0.0
 10
875.5298195188643
 20
-812.4442644213341
 30
0.0
 10
879.103826598166
 20
-814.7203713762719
 30
0.0
 10
881.2952284923558
 20
-820.646993207316
 30
0.0
 10
882.1094900440621
 20
-822.759154883388
 30
0.0
 10
882.4346481804823
 20
-824.789343920027
 30
0.0
 10
882.4346481804823
 20
-826.6555876777966
 30
0.0
 10
882.4346481804823
 20
-830.8799110299406
 30
0.0
 10
880.4836993619647
 20
-834.6151309667948
 30
0.0
 10
876.9124247039763
 20
-837.9432201277959
 30
0.0
 10
872.2017303578614
 20
-842.2467836980577
 30
0.0
 10
866.9226923783408
 20
-843.9518145982765
 30
0.0
 10
861.3212286837152
 20
-843.9518145982765
 30
0.0
 10
859.1270943682102
 20
-843.9518145982765
 30
0.0
 10
856.7717471951546
 20
-843.7086291012893
 30
0.0
 10
854.4983726615301
 20
-843.2222581073183
 30
0.0
 10
853.3616853947187
 20
-842.9790726103311
 30
0.0
 10
852.6321289037587
 20
-842.8151273314616
 30
0.0
 10
851.9818126309201
 20
-842.8151273314616
 30
0.0
 10
850.6839125065562
 20
-842.8151273314616
 30
0.0
 10
850.4379945882556
 20
-843.6266564618563
 30
0.0
 10
850.2767817307031
 20
-846.0639762743449
 30
0.0
 10
850.1128364518354
 20
-847.7690071745637
 30
0.0
 10
850.0335962337158
 20
-849.4740380747826
 30
0.0
 10
850.0335962337158
 20
-851.1790689749978
 30
0.0
 10
850.0335962337158
 20
-856.2968940969658
 30
0.0
 10
850.6019398671215
 20
-861.4119867976224
 30
0.0
 10
851.574681855067
 20
-866.4451068588423
 30
0.0
 10
851.8205997733676
 20
-868.0708975409398
 30
0.0
 10
852.6321289037587
 20
-868.5572685349107
 30
0.0
 10
853.6868435311371
 20
-868.5572685349107
 30
0.0
 10
854.0120016675573
 20
-868.5572685349107
 30
0.0
 10
854.3371598039776
 20
-868.5572685349107
 30
0.0
 10
854.7415581585155
 20
-868.4752958954778
 30
0.0
 10
855.880977846642
 20
-868.1528701803727
 30
0.0
 10
857.0969053315748
 20
-867.8277120439525
 30
0.0
 10
858.1543523802666
 20
-867.4205812680993
 30
0.0
 10
859.6954380016141
 20
-866.8522376346955
 30
0.0
 10
861.3212286837152
 20
-866.4451068588423
 30
0.0
 10
862.9442869445011
 20
-866.4451068588423
 30
0.0
 10
862.9442869445011
 20
-866.4451068588423
 30
0.0
 10
863.430657938472
 20
-866.4451068588423
 30
0.0
 10
863.430657938472
 20
-866.4451068588423
 30
0.0
 10
869.6851703272514
 20
-866.7702649952589
 30
0.0
 10
875.8549776552827
 20
-866.9342102741284
 30
0.0
 10
882.1094900440621
 20
-867.5845265469652
 30
0.0
 10
888.4432426509611
 20
-868.1528701803727
 30
0.0
 10
892.0145173089495
 20
-871.806117477794
 30
0.0
 10
892.8287788606576
 20
-878.0578974452619
 30
0.0
 10
892.9080190787754
 20
-879.1153444939519
 30
0.0
 10
892.9899917182101
 20
-880.0880864818973
 30
0.0
 10
892.9899917182101
 20
-881.1455335305909
 30
0.0
 10
892.9899917182101
 20
-885.3671244614161
 30
0.0
 10
891.853304451397
 20
-889.3455298952576
 30
0.0
 10
889.8231154147579
 20
-893.1627224715485
 30
0.0
 10
889.0908265024864
 20
-894.62456787478
 30
0.0
 10
887.954139235675
 20
-895.8432277810243
 30
0.0
 10
886.4130536143239
 20
-896.5727842719825
 30
0.0
 10
881.620386628776
 20
-899.0101040844747
 30
0.0
 10
876.5052939281231
 20
-900.633162345257
 30
0.0
 10
871.06504309105
 20
-900.633162345257
 30
0.0
 10
866.6795068813553
 20
-900.633162345257
 30
0.0
 10
862.4579159505283
 20
-900.9583204816772
 30
0.0
 10
858.1543523802666
 20
-901.4446914756481
 30
0.0
 10
854.8235307979485
 20
-901.8518222515049
 30
0.0
 10
851.4954416369474
 20
-902.0130351090556
 30
0.0
 10
848.2465926940658
 20
-902.0130351090556
 30
0.0
 10
844.6725856147623
 20
-902.0130351090556
 30
0.0
 10
841.1805511748935
 20
-901.8518222515049
 30
0.0
 10
837.6885167350229
 20
-901.6086367545176
 30
0.0
  0
HATCH
  5
56
330
45
100
AcDbEntity
  8
Layer 1
 62
    40
420
 16635155
100
AcDbHatch
 10
0.0
 20
0.0
 30
0.0
210
0.0
220
0.0
230
1.0
  2
SOLID
 70
     1
 71
     0
 91
        1
 92
        1
 93
        1
 72
     4
 94
        3
 73
     0
 74
     1
 95
      158
 96
      154
 40
0.0
 40
0.0
 40
0.0
 40
0.0
 40
1.0
 40
1.0
 40
1.0
 40
2.0
 40
2.0
 40
2.0
 40
3.0
 40
3.0
 40
3.0
 40
4.0
 40
4.0
 40
4.0
 40
5.0
 40
5.0
 40
5.0
 40
6.0
 40
6.0
 40
6.0
 40
7.0
 40
7.0
 40
7.0
 40
8.0
 40
8.0
 40
8.0
 40
9.0
 40
9.0
 40
9.0
 40
10.0
 40
10.0
 40
10.0
 40
11.0
 40
11.0
 40
11.0
 40
12.0
 40
12.0
 40
12.0
 40
13.0
 40
13.0
 40
13.0
 40
14.0
 40
14.0
 40
14.0
 40
15.0
 40
15.0
 40
15.0
 40
16.0
 40
16.0
 40
16.0
 40
17.0
 40
17.0
 40
17.0
 40
18.0
 40
18.0
 40
18.0
 40
19.0
 40
19.0
 40
19.0
 40
20.0
 40
20.0
 40
20.0
 40
21.0
 40
21.0
 40
21.0
 40
22.0
 40
22.0
 40
22.0
 40
23.0
 40
23.0
 40
23.0
 40
24.0
 40
24.0
 40
24.0
 40
25.0
 40
25.0
 40
25.0
 40
26.0
 40
26.0
 40
26.0
 40
27.0
 40
27.0
 40
27.0
 40
28.0
 40
28.0
 40
28.0
 40
29.0
 40
29.0
 40
29.0
 40
30.0
 40
30.0
 40
30.0
 40
31.0
 40
31.0
 40
31.0
 40
32.0
 40
32.0
 40
32.0
 40
33.0
 40
33.0
 40
33.0
 40
34.0
 40
34.0
 40
34.0
 40
35.0
 40
35.0
 40
35.0
 40
36.0
 40
36.0
 40
36.0
 40
37.0
 40
37.0
 40
37.0
 40
38.0
 40
38.0
 40
38.0
 40
39.0
 40
39.0
 40
39.0
 40
40.0
 40
40.0
 40
40.0
 40
41.0
 40
41.0
 40
41.0
 40
42.0
 40
42.0
 40
42.0
 40
43.0
 40
43.0
 40
43.0
 40
44.0
 40
44.0
 40
44.0
 40
45.0
 40
45.0
 40
45.0
 40
46.0
 40
46.0
 40
46.0
 40
47.0
 40
47.0
 40
47.0
 40
48.0
 40
48.0
 40
48.0
 40
49.0
 40
49.0
 40
49.0
 40
50.0
 40
50.0
 40
50.0
 40
51.0
 40
51.0
 40
51.0
 40
51.0
 10
837.6885167350229
 20
-901.6086367545176
 10
831.5187094069934
 20
-901.2015059786645
 10
828.26986046411
 20
-896.8159697689698
 10
825.9964859304855
 20
-891.8620899258676
 10
824.6985858061216
 20
-889.0203717588374
 10
824.3734276697014
 20
-885.8534954553907
 10
823.8843242544135
 20
-882.7685917913732
 10
822.6683967694844
 20
-874.0794920114167
 10
822.2612659936294
 20
-865.3903922314603
 10
822.2612659936294
 20
-856.1329488181
 10
822.2612659936294
 20
-845.495632640941
 10
822.7476369876022
 20
-834.0467873333873
 10
823.1547677634571
 20
-821.0541239831728
 10
823.3979532604408
 20
-813.8268696064442
 10
823.1547677634571
 20
-800.9954191137804
 10
823.8843242544135
 20
-788.1667010424317
 10
824.2914550302667
 20
-781.1826321626941
 10
825.835273072933
 20
-774.3597761405072
 10
826.3216440669039
 20
-767.3784396820847
 10
826.4036167063387
 20
-766.4029652728241
 10
826.5648295638912
 20
-765.509463503
 10
826.5648295638912
 20
-764.5339890937394
 10
826.5648295638912
 20
-764.0476180997684
 10
826.4828569244582
 20
-763.479274466361
 10
826.4036167063387
 20
-762.9109308329571
 10
826.157698788038
 20
-761.9354564236965
 10
826.0784585699203
 20
-761.0419546538724
 10
826.0784585699203
 20
-760.2304255234776
 10
826.0784585699203
 20
-757.7138654928713
 10
827.2151458367316
 20
-756.0908072320854
 10
829.974891364327
 20
-754.4650165499879
 10
832.7373693132377
 20
-752.841958289202
 10
835.7403003378204
 20
-752.0304291588109
 10
838.8279364231494
 20
-751.5413257435248
 10
844.1862146207877
 20
-750.7297966131337
 10
849.7084380972956
 20
-750.4046384767134
 10
855.1486889343687
 20
-750.4046384767134
 10
859.3702798651957
 20
-750.4046384767134
 10
863.5126305779049
 20
-750.5685837555793
 10
867.7342215087319
 20
-750.8937418919995
 10
872.6088611337145
 20
-751.2189000284161
 10
877.2375828403965
 20
-753.3283292831729
 10
882.1094900440621
 20
-754.1398584135677
 10
884.6260500746739
 20
-754.6289618288538
 10
886.1698681173384
 20
-756.4159653685056
 10
886.9813972477295
 20
-758.850552759679
 10
887.954139235675
 20
-761.5310580691585
 10
888.3612700115282
 20
-764.1295907392014
 10
888.3612700115282
 20
-766.7281234092443
 10
888.3612700115282
 20
-770.2201578491149
 10
887.5497408811352
 20
-773.7121922889855
 10
886.0878954779037
 20
-777.1222540894196
 10
885.6015244839327
 20
-778.3409139956639
 10
884.7872629322246
 20
-779.6388141200296
 10
883.5713354472937
 20
-780.1251851140005
 10
879.5901975921388
 20
-781.5077902991143
 10
875.7757374371649
 20
-783.4560066963168
 10
871.4721738669032
 20
-783.4560066963168
 10
871.4721738669032
 20
-783.4560066963168
 10
870.7398849546298
 20
-783.4560066963168
 10
870.7398849546298
 20
-783.4560066963168
 10
866.7614795207883
 20
-783.2128211993331
 10
862.7830740869467
 20
-782.9696357023458
 10
858.7226960136704
 20
-782.8876630629129
 10
858.7226960136704
 20
-782.8876630629129
 10
857.8291942438464
 20
-782.8876630629129
 10
857.8291942438464
 20
-782.8876630629129
 10
855.1486889343687
 20
-782.8876630629129
 10
854.8235307979485
 20
-783.3740340568838
 10
854.4191324434105
 20
-786.4589377209013
 10
853.2004725371662
 20
-793.4430066006389
 10
852.550156264324
 20
-800.5090481198094
 10
852.550156264324
 20
-807.5723572176685
 10
852.550156264324
 20
-807.5723572176685
 10
852.550156264324
 20
-808.7090444844798
 10
852.550156264324
 20
-808.7090444844798
 10
852.6321289037587
 20
-812.2010789243468
 10
852.7113691218765
 20
-812.2830515637797
 10
856.4493214800495
 20
-812.4442644213341
 10
856.4493214800495
 20
-812.4442644213341
 10
861.9688125352404
 20
-812.526237060767
 10
861.9688125352404
 20
-812.526237060767
 10
861.9688125352404
 20
-812.526237060767
 10
868.3025651421394
 20
-812.4442644213341
 10
868.3025651421394
 20
-812.4442644213341
 10
875.5298195188643
 20
-812.4442644213341
 10
879.103826598166
 20
-814.7203713762719
 10
881.2952284923558
 20
-820.646993207316
 10
882.1094900440621
 20
-822.759154883388
 10
882.4346481804823
 20
-824.789343920027
 10
882.4346481804823
 20
-826.6555876777966
 10
882.4346481804823
 20
-830.8799110299406
 10
880.4836993619647
 20
-834.6151309667948
 10
876.9124247039763
 20
-837.9432201277959
 10
872.2017303578614
 20
-842.2467836980577
 10
866.9226923783408
 20
-843.9518145982765
 10
861.3212286837152
 20
-843.9518145982765
 10
859.1270943682102
 20
-843.9518145982765
 10
856.7717471951546
 20
-843.7086291012893
 10
854.4983726615301
 20
-843.2222581073183
 10
853.3616853947187
 20
-842.9790726103311
 10
852.6321289037587
 20
-842.8151273314616
 10
851.9818126309201
 20
-842.8151273314616
 10
850.6839125065562
 20
-842.8151273314616
 10
850.4379945882556
 20
-843.6266564618563
 10
850.2767817307031
 20
-846.0639762743449
 10
850.1128364518354
 20
-847.7690071745637
 10
850.0335962337158
 20
-849.4740380747826
 10
850.0335962337158
 20
-851.1790689749978
 10
850.0335962337158
 20
-856.2968940969658
 10
850.6019398671215
 20
-861.4119867976224
 10
851.574681855067
 20
-866.4451068588423
 10
851.8205997733676
 20
-868.0708975409398
 10
852.6321289037587
 20
-868.5572685349107
 10
853.6868435311371
 20
-868.5572685349107
 10
854.0120016675573
 20
-868.5572685349107
 10
854.3371598039776
 20
-868.5572685349107
 10
854.7415581585155
 20
-868.4752958954778
 10
855.880977846642
 20
-868.1528701803727
 10
857.0969053315748
 20
-867.8277120439525
 10
858.1543523802666
 20
-867.4205812680993
 10
859.6954380016141
 20
-866.8522376346955
 10
861.3212286837152
 20
-866.4451068588423
 10
862.9442869445011
 20
-866.4451068588423
 10
862.9442869445011
 20
-866.4451068588423
 10
863.430657938472
 20
-866.4451068588423
 10
863.430657938472
 20
-866.4451068588423
 10
869.6851703272514
 20
-866.7702649952589
 10
875.8549776552827
 20
-866.9342102741284
 10
882.1094900440621
 20
-867.5845265469652
 10
888.4432426509611
 20
-868.1528701803727
 10
892.0145173089495
 20
-871.806117477794
 10
892.8287788606576
 20
-878.0578974452619
 10
892.9080190787754
 20
-879.1153444939519
 10
892.9899917182101
 20
-880.0880864818973
 10
892.9899917182101
 20
-881.1455335305909
 10
892.9899917182101
 20
-885.3671244614161
 10
891.853304451397
 20
-889.3455298952576
 10
889.8231154147579
 20
-893.1627224715485
 10
889.0908265024864
 20
-894.62456787478
 10
887.954139235675
 20
-895.8432277810243
 10
886.4130536143239
 20
-896.5727842719825
 10
881.620386628776
 20
-899.0101040844747
 10
876.5052939281231
 20
-900.633162345257
 10
871.06504309105
 20
-900.633162345257
 10
866.6795068813553
 20
-900.633162345257
 10
862.4579159505283
 20
-900.9583204816772
 10
858.1543523802666
 20
-901.4446914756481
 10
854.8235307979485
 20
-901.8518222515049
 10
851.4954416369474
 20
-902.0130351090556
 10
848.2465926940658
 20
-902.0130351090556
 10
844.6725856147623
 20
-902.0130351090556
 10
841.1805511748935
 20
-901.8518222515049
 10
837.6885167350229
 20
-901.6086367545176
 97
        0
 97
        0
 75
     2
 76
     1
 98
        0
  0
ENDBLK
  5
48
330
45
100
AcDbEntity
  8
0
100
AcDbBlockEnd
  0
BLOCK
  5
5D
330
5B
100
AcDbEntity
  8
0
100
AcDbBlockBegin
  2
block 4
 70
     0
 10
0.0
 20
0.0
 30
0.0
  3
block 4
  1

  0
SPLINE
  5
5F
330
5B
100
AcDbEntity
  8
Layer 1
370
     0
100
AcDbSpline
210
0.0
220
0.0
230
1.0
 70
    11
 71
     3
 72
    65
 73
    61
 74
     0
 42
0.0000000001
 43
0.0000000001
 12
1.0
 22
0.0
 32
0.0
 13
1.0
 23
0.0
 33
0.0
 40
0.0
 40
0.0
 40
0.0
 40
0.0
 40
1.0
 40
1.0
 40
1.0
 40
2.0
 40
2.0
 40
2.0
 40
3.0
 40
3.0
 40
3.0
 40
4.0
 40
4.0
 40
4.0
 40
5.0
 40
5.0
 40
5.0
 40
6.0
 40
6.0
 40
6.0
 40
7.0
 40
7.0
 40
7.0
 40
8.0
 40
8.0
 40
8.0
 40
9.0
 40
9.0
 40
9.0
 40
10.0
 40
10.0
 40
10.0
 40
11.0
 40
11.0
 40
11.0
 40
12.0
 40
12.0
 40
12.0
 40
13.0
 40
13.0
 40
13.0
 40
14.0
 40
14.0
 40
14.0
 40
15.0
 40
15.0
 40
15.0
 40
16.0
 40
16.0
 40
16.0
 40
17.0
 40
17.0
 40
17.0
 40
18.0
 40
18.0
 40
18.0
 40
19.0
 40
19.0
 40
19.0
 40
20.0
 40
20.0
 40
20.0
 40
20.0
 10
164.1370992481152
 20
-862.6661681809528
 30
0.0
 10
200.1722715431006
 20
-786.0927932647646
 30
0.0
 10
261.7337237576958
 20
-742.5489271976621
 30
0.0
 10
326.2953745755567
 20
-690.7504163396043
 30
0.0
 10
330.0497214616134
 20
-667.4756515831068
 30
0.0
 10
333.8040683476684
 20
-644.9550351093967
 30
0.0
 10
336.8069993722511
 20
-623.1831020758473
 30
0.0
 10
309.0292042895362
 20
-662.2212053954172
 30
0.0
 10
290.2602022805695
 20
-662.2212053954172
 30
0.0
 10
282.7542409297712
 20
-662.2212053954172
 30
0.0
 10
273.7454478560248
 20
-662.2212053954172
 30
0.0
 10
266.2367540839114
 20
-658.4668585093605
 30
0.0
 10
260.2308920347477
 20
-651.7095805987228
 30
0.0
 10
236.2074438380896
 20
-622.4316862143714
 30
0.0
 10
251.9735148224754
 20
-514.3261693294135
 30
0.0
 10
263.9852389208045
 20
-452.7674495361334
 30
0.0
 10
266.2367540839114
 20
-442.2544585287806
 30
0.0
 10
275.9969630191317
 20
-435.4985468287996
 30
0.0
 10
286.5072216051722
 20
-437.751428202565
 30
0.0
 10
297.017480191209
 20
-440.0029433656719
 30
0.0
 10
303.7747581018466
 20
-449.7631523008931
 30
0.0
 10
301.5218767280803
 20
-460.2734108869308
 30
0.0
 10
288.7601029789366
 20
-528.5921410121637
 30
0.0
 10
283.5042905805876
 20
-596.9081387160804
 30
0.0
 10
288.0086871174608
 20
-620.1801710512664
 30
0.0
 10
312.7835511755948
 20
-600.6624856021372
 30
0.0
 10
341.3100296984685
 20
-539.1010333875447
 30
0.0
 10
352.5717041459811
 20
-506.8202079786142
 30
0.0
 10
359.3276158459612
 20
-456.5217964221893
 30
0.0
 10
360.830447568911
 20
-441.5044088779641
 30
0.0
 10
377.3452019934539
 20
-437.000012341091
 30
0.0
 10
384.8538957655674
 20
-435.4985468287996
 30
0.0
 10
393.1112729778415
 20
-438.5014778533823
 30
0.0
 10
398.3657191655329
 20
-445.2573895533624
 30
0.0
 10
404.3715812146966
 20
-454.2675488377672
 30
0.0
 10
406.624462588461
 20
-467.7821046590443
 30
0.0
 10
394.612738490132
 20
-504.5686928155055
 30
0.0
 10
393.1112729778415
 20
-508.3203072802471
 30
0.0
 10
392.3598571163657
 20
-512.0746541663048
 30
0.0
 10
390.8597578147328
 20
-515.8290010523606
 30
0.0
 10
385.6039454163856
 20
-555.6157878120903
 30
0.0
 10
379.5980833672202
 20
-600.6624856021372
 30
0.0
 10
371.3393399442903
 20
-652.460996460195
 30
0.0
 10
411.8802749868082
 20
-615.6744083037338
 30
0.0
 10
450.1669624449041
 20
-572.1332746579501
 30
0.0
 10
477.193341666145
 20
-511.3232383048298
 30
0.0
 10
481.6977382030182
 20
-501.5630293696095
 30
0.0
 10
492.959412650529
 20
-497.059999043393
 30
0.0
 10
502.7182553750936
 20
-501.5630293696095
 30
0.0
 10
512.4770980996582
 20
-505.3173762556653
 30
0.0
 10
516.9828608471889
 20
-517.3291003539953
 30
0.0
 10
512.4770980996582
 20
-527.0893092892156
 30
0.0
 10
474.1904106415623
 20
-612.674209700468
 30
0.0
 10
416.3833053130256
 20
-666.7269681429461
 30
0.0
 10
361.5804972197275
 20
-711.7682010903663
 30
0.0
 10
333.0526524861962
 20
-870.1748619530663
 30
0.0
 10
289.5101526297531
 20
-1000.049579450264
 30
0.0
 10
209.9324804783228
 20
-1000.049579450264
 30
0.0
 10
154.3782565235506
 20
-1000.049579450264
 30
0.0
 10
133.3577393514752
 20
-929.4820665832376
 30
0.0
 10
164.1370992481152
 20
-862.6661681809528
 30
0.0
  0
SPLINE
  5
60
330
5B
100
AcDbEntity
  8
Layer 1
370
     0
100
AcDbSpline
210
0.0
220
0.0
230
1.0
 70
    11
 71
     3
 72
    20
 73
    16
 74
     0
 42
0.0000000001
 43
0.0000000001
 12
1.0
 22
0.0
 32
0.0
 13
1.0
 23
0.0
 33
0.0
 40
0.0
 40
0.0
 40
0.0
 40
0.0
 40
1.0
 40
1.0
 40
1.0
 40
2.0
 40
2.0
 40
2.0
 40
3.0
 40
3.0
 40
3.0
 40
4.0
 40
4.0
 40
4.0
 40
5.0
 40
5.0
 40
5.0
 40
5.0
 10
199.4222218922841
 20
-879.1836550268126
 30
0.0
 10
185.1576164201924
 20
-909.2129652726362
 30
0.0
 10
186.6604481431386
 20
-939.2422755184562
 30
0.0
 10
194.917825355411
 20
-952.7540989184199
 30
0.0
 10
198.6721722414677
 20
-958.7599609675854
 30
0.0
 10
203.9266184291591
 20
-961.7628919921699
 30
0.0
 10
209.9324804783228
 20
-961.7628919921699
 30
0.0
 10
228.7014824872913
 20
-961.7628919921699
 30
0.0
 10
266.2367540839114
 20
-940.7423748200927
 30
0.0
 10
302.2719263789004
 20
-804.1103794122573
 30
0.0
 10
306.7776891264311
 20
-786.0927932647646
 30
0.0
 10
310.5306698018285
 20
-767.3237912557961
 30
0.0
 10
315.0350663387035
 20
-749.3062051082998
 30
0.0
 10
267.7395858068594
 20
-786.8442091262368
 30
0.0
 10
224.9471356012345
 20
-825.1308965843309
 30
0.0
 10
199.4222218922841
 20
-879.1836550268126
 30
0.0
  0
HATCH
  5
61
330
5B
100
AcDbEntity
  8
Layer 1
 62
     7
420
 16777215
100
AcDbHatch
 10
0.0
 20
0.0
 30
0.0
210
0.0
220
0.0
230
1.0
  2
SOLID
 70
     1
 71
     0
 91
        2
 92
        1
 93
        1
 72
     4
 94
        3
 73
     0
 74
     1
 95
       65
 96
       61
 40
0.0
 40
0.0
 40
0.0
 40
0.0
 40
1.0
 40
1.0
 40
1.0
 40
2.0
 40
2.0
 40
2.0
 40
3.0
 40
3.0
 40
3.0
 40
4.0
 40
4.0
 40
4.0
 40
5.0
 40
5.0
 40
5.0
 40
6.0
 40
6.0
 40
6.0
 40
7.0
 40
7.0
 40
7.0
 40
8.0
 40
8.0
 40
8.0
 40
9.0
 40
9.0
 40
9.0
 40
10.0
 40
10.0
 40
10.0
 40
11.0
 40
11.0
 40
11.0
 40
12.0
 40
12.0
 40
12.0
 40
13.0
 40
13.0
 40
13.0
 40
14.0
 40
14.0
 40
14.0
 40
15.0
 40
15.0
 40
15.0
 40
16.0
 40
16.0
 40
16.0
 40
17.0
 40
17.0
 40
17.0
 40
18.0
 40
18.0
 40
18.0
 40
19.0
 40
19.0
 40
19.0
 40
20.0
 40
20.0
 40
20.0
 40
20.0
 10
164.1370992481152
 20
-862.6661681809528
 10
200.1722715431006
 20
-786.0927932647646
 10
261.7337237576958
 20
-742.5489271976621
 10
326.2953745755567
 20
-690.7504163396043
 10
330.0497214616134
 20
-667.4756515831068
 10
333.8040683476684
 20
-644.9550351093967
 10
336.8069993722511
 20
-623.1831020758473
 10
309.0292042895362
 20
-662.2212053954172
 10
290.2602022805695
 20
-662.2212053954172
 10
282.7542409297712
 20
-662.2212053954172
 10
273.7454478560248
 20
-662.2212053954172
 10
266.2367540839114
 20
-658.4668585093605
 10
260.2308920347477
 20
-651.7095805987228
 10
236.2074438380896
 20
-622.4316862143714
 10
251.9735148224754
 20
-514.3261693294135
 10
263.9852389208045
 20
-452.7674495361334
 10
266.2367540839114
 20
-442.2544585287806
 10
275.9969630191317
 20
-435.4985468287996
 10
286.5072216051722
 20
-437.751428202565
 10
297.017480191209
 20
-440.0029433656719
 10
303.7747581018466
 20
-449.7631523008931
 10
301.5218767280803
 20
-460.2734108869308
 10
288.7601029789366
 20
-528.5921410121637
 10
283.5042905805876
 20
-596.9081387160804
 10
288.0086871174608
 20
-620.1801710512664
 10
312.7835511755948
 20
-600.6624856021372
 10
341.3100296984685
 20
-539.1010333875447
 10
352.5717041459811
 20
-506.8202079786142
 10
359.3276158459612
 20
-456.5217964221893
 10
360.830447568911
 20
-441.5044088779641
 10
377.3452019934539
 20
-437.000012341091
 10
384.8538957655674
 20
-435.4985468287996
 10
393.1112729778415
 20
-438.5014778533823
 10
398.3657191655329
 20
-445.2573895533624
 10
404.3715812146966
 20
-454.2675488377672
 10
406.624462588461
 20
-467.7821046590443
 10
394.612738490132
 20
-504.5686928155055
 10
393.1112729778415
 20
-508.3203072802471
 10
392.3598571163657
 20
-512.0746541663048
 10
390.8597578147328
 20
-515.8290010523606
 10
385.6039454163856
 20
-555.6157878120903
 10
379.5980833672202
 20
-600.6624856021372
 10
371.3393399442903
 20
-652.460996460195
 10
411.8802749868082
 20
-615.6744083037338
 10
450.1669624449041
 20
-572.1332746579501
 10
477.193341666145
 20
-511.3232383048298
 10
481.6977382030182
 20
-501.5630293696095
 10
492.959412650529
 20
-497.059999043393
 10
502.7182553750936
 20
-501.5630293696095
 10
512.4770980996582
 20
-505.3173762556653
 10
516.9828608471889
 20
-517.3291003539953
 10
512.4770980996582
 20
-527.0893092892156
 10
474.1904106415623
 20
-612.674209700468
 10
416.3833053130256
 20
-666.7269681429461
 10
361.5804972197275
 20
-711.7682010903663
 10
333.0526524861962
 20
-870.1748619530663
 10
289.5101526297531
 20
-1000.049579450264
 10
209.9324804783228
 20
-1000.049579450264
 10
154.3782565235506
 20
-1000.049579450264
 10
133.3577393514752
 20
-929.4820665832376
 10
164.1370992481152
 20
-862.6661681809528
 97
        0
 97
        0
 92
        1
 93
        1
 72
     4
 94
        3
 73
     0
 74
     1
 95
       20
 96
       16
 40
0.0
 40
0.0
 40
0.0
 40
0.0
 40
1.0
 40
1.0
 40
1.0
 40
2.0
 40
2.0
 40
2.0
 40
3.0
 40
3.0
 40
3.0
 40
4.0
 40
4.0
 40
4.0
 40
5.0
 40
5.0
 40
5.0
 40
5.0
 10
199.4222218922841
 20
-879.1836550268126
 10
185.1576164201924
 20
-909.2129652726362
 10
186.6604481431386
 20
-939.2422755184562
 10
194.917825355411
 20
-952.7540989184199
 10
198.6721722414677
 20
-958.7599609675854
 10
203.9266184291591
 20
-961.7628919921699
 10
209.9324804783228
 20
-961.7628919921699
 10
228.7014824872913
 20
-961.7628919921699
 10
266.2367540839114
 20
-940.7423748200927
 10
302.2719263789004
 20
-804.1103794122573
 10
306.7776891264311
 20
-786.0927932647646
 10
310.5306698018285
 20
-767.3237912557961
 10
315.0350663387035
 20
-749.3062051082998
 10
267.7395858068594
 20
-786.8442091262368
 10
224.9471356012345
 20
-825.1308965843309
 10
199.4222218922841
 20
-879.1836550268126
 97
        0
 97
        0
 75
     2
 76
     1
 98
        0
  0
SPLINE
  5
62
330
5B
100
AcDbEntity
  8
Layer 1
370
     0
100
AcDbSpline
210
0.0
220
0.0
230
1.0
 70
    11
 71
     3
 72
    32
 73
    28
 74
     0
 42
0.0000000001
 43
0.0000000001
 12
1.0
 22
0.0
 32
0.0
 13
1.0
 23
0.0
 33
0.0
 40
0.0
 40
0.0
 40
0.0
 40
0.0
 40
1.0
 40
1.0
 40
1.0
 40
2.0
 40
2.0
 40
2.0
 40
3.0
 40
3.0
 40
3.0
 40
4.0
 40
4.0
 40
4.0
 40
5.0
 40
5.0
 40
5.0
 40
6.0
 40
6.0
 40
6.0
 40
7.0
 40
7.0
 40
7.0
 40
8.0
 40
8.0
 40
8.0
 40
9.0
 40
9.0
 40
9.0
 40
9.0
 10
483.9396898915256
 20
-581.8934835931686
 30
0.0
 10
459.9162416948675
 20
-527.0893092892156
 30
0.0
 10
488.4440864283988
 20
-430.9941502919273
 30
0.0
 10
553.0084696675731
 20
-430.9941502919273
 30
0.0
 10
573.2775709781745
 20
-430.9941502919273
 30
0.0
 10
589.7950578240343
 20
-441.5044088779641
 30
0.0
 10
599.5525343379431
 20
-461.0248267484067
 30
0.0
 10
614.5671894608549
 20
-490.3027211327544
 30
0.0
 10
612.3156742977462
 20
-533.8465871998542
 30
0.0
 10
606.309812248579
 20
-566.1274126087847
 30
0.0
 10
640.0934693804593
 20
-542.8553802736023
 30
0.0
 10
659.6111548295867
 20
-508.3203072802471
 30
0.0
 10
660.3625706910625
 20
-508.3203072802471
 30
0.0
 10
664.8683334385933
 20
-499.3115142065017
 30
0.0
 10
676.1286416754465
 20
-496.3085831819189
 30
0.0
 10
684.3860188877188
 20
-501.5630293696095
 30
0.0
 10
693.394811961467
 20
-506.0687921171402
 30
0.0
 10
696.3977429860479
 20
-517.3291003539953
 30
0.0
 10
691.8947126598305
 20
-525.5864775662676
 30
0.0
 10
689.6404650754084
 20
-529.3408244523234
 30
0.0
 10
655.1081245033711
 20
-589.399444943967
 30
0.0
 10
593.5466722887759
 20
-613.4228931406287
 30
0.0
 10
559.7657475782125
 20
-703.5108238780922
 30
0.0
 10
504.208791202127
 20
-702.0107245764593
 30
0.0
 10
487.6940367775824
 20
-661.469789533945
 30
0.0
 10
477.933827842362
 20
-638.9491730602349
 30
0.0
 10
479.4352933546506
 20
-606.6683476513026
 30
0.0
 10
483.9396898915256
 20
-581.8934835931686
 30
0.0
  0
SPLINE
  5
63
330
5B
100
AcDbEntity
  8
Layer 1
370
     0
100
AcDbSpline
210
0.0
220
0.0
230
1.0
 70
    11
 71
     3
 72
    29
 73
    25
 74
     0
 42
0.0000000001
 43
0.0000000001
 12
1.0
 22
0.0
 32
0.0
 13
1.0
 23
0.0
 33
0.0
 40
0.0
 40
0.0
 40
0.0
 40
0.0
 40
1.0
 40
1.0
 40
1.0
 40
2.0
 40
2.0
 40
2.0
 40
3.0
 40
3.0
 40
3.0
 40
4.0
 40
4.0
 40
4.0
 40
5.0
 40
5.0
 40
5.0
 40
6.0
 40
6.0
 40
6.0
 40
7.0
 40
7.0
 40
7.0
 40
8.0
 40
8.0
 40
8.0
 40
8.0
 10
542.4968448708787
 20
-587.1479297808619
 30
0.0
 10
550.0055386429904
 20
-587.1479297808619
 30
0.0
 10
558.2629158552627
 20
-586.396513919386
 30
0.0
 10
565.0201937659021
 20
-584.1449987562773
 30
0.0
 10
580.0348488888139
 20
-532.3437554769071
 30
0.0
 10
578.5320171658659
 20
-467.0306887975703
 30
0.0
 10
553.0084696675731
 20
-467.0306887975703
 30
0.0
 10
534.9908835200804
 20
-467.0306887975703
 30
0.0
 10
520.7262780479869
 20
-487.2997901081717
 30
0.0
 10
514.7204159988214
 20
-511.3232383048298
 30
0.0
 10
521.4763276988033
 20
-505.3173762556653
 30
0.0
 10
528.9836552602592
 20
-502.3144452310835
 30
0.0
 10
537.2423986831873
 20
-502.3144452310835
 30
0.0
 10
547.0026076184095
 20
-502.3144452310835
 30
0.0
 10
555.2599848306818
 20
-510.574554864671
 30
0.0
 10
555.2599848306818
 20
-520.3320313785771
 30
0.0
 10
555.2599848306818
 20
-530.0922403137984
 30
0.0
 10
547.7540234798817
 20
-537.5982016645967
 30
0.0
 10
537.9938145446631
 20
-538.3496175260707
 30
0.0
 10
534.2394676586064
 20
-541.3525485506507
 30
0.0
 10
526.7321400971505
 20
-554.8671043719296
 30
0.0
 10
521.4763276988033
 20
-576.639037405479
 30
0.0
 10
526.7321400971505
 20
-583.3935828948051
 30
0.0
 10
533.4880517971324
 20
-587.1479297808619
 30
0.0
 10
542.4968448708787
 20
-587.1479297808619
 30
0.0
  0
SPLINE
  5
64
330
5B
100
AcDbEntity
  8
Layer 1
370
     0
100
AcDbSpline
210
0.0
220
0.0
230
1.0
 70
    11
 71
     3
 72
    14
 73
    10
 74
     0
 42
0.0000000001
 43
0.0000000001
 12
1.0
 22
0.0
 32
0.0
 13
1.0
 23
0.0
 33
0.0
 40
0.0
 40
0.0
 40
0.0
 40
0.0
 40
1.0
 40
1.0
 40
1.0
 40
2.0
 40
2.0
 40
2.0
 40
3.0
 40
3.0
 40
3.0
 40
3.0
 10
522.9777932110937
 20
-651.7095805987228
 30
0.0
 10
531.2351704233679
 20
-651.7095805987228
 30
0.0
 10
540.9967455692458
 20
-640.4492723618641
 30
0.0
 10
550.0055386429904
 20
-622.4316862143714
 30
0.0
 10
537.9938145446631
 20
-623.1831020758473
 30
0.0
 10
527.4821897479669
 20
-622.4316862143714
 30
0.0
 10
516.2205153004561
 20
-617.9286558881577
 30
0.0
 10
516.2205153004561
 20
-638.9491730602349
 30
0.0
 10
520.7262780479869
 20
-649.4580654356141
 30
0.0
 10
522.9777932110937
 20
-651.7095805987228
 30
0.0
  0
HATCH
  5
65
330
5B
100
AcDbEntity
  8
Layer 1
 62
     7
420
 16777215
100
AcDbHatch
 10
0.0
 20
0.0
 30
0.0
210
0.0
220
0.0
230
1.0
  2
SOLID
 70
     1
 71
     0
 91
        3
 92
        1
 93
        1
 72
     4
 94
        3
 73
     0
 74
     1
 95
       32
 96
       28
 40
0.0
 40
0.0
 40
0.0
 40
0.0
 40
1.0
 40
1.0
 40
1.0
 40
2.0
 40
2.0
 40
2.0
 40
3.0
 40
3.0
 40
3.0
 40
4.0
 40
4.0
 40
4.0
 40
5.0
 40
5.0
 40
5.0
 40
6.0
 40
6.0
 40
6.0
 40
7.0
 40
7.0
 40
7.0
 40
8.0
 40
8.0
 40
8.0
 40
9.0
 40
9.0
 40
9.0
 40
9.0
 10
483.9396898915256
 20
-581.8934835931686
 10
459.9162416948675
 20
-527.0893092892156
 10
488.4440864283988
 20
-430.9941502919273
 10
553.0084696675731
 20
-430.9941502919273
 10
573.2775709781745
 20
-430.9941502919273
 10
589.7950578240343
 20
-441.5044088779641
 10
599.5525343379431
 20
-461.0248267484067
 10
614.5671894608549
 20
-490.3027211327544
 10
612.3156742977462
 20
-533.8465871998542
 10
606.309812248579
 20
-566.1274126087847
 10
640.0934693804593
 20
-542.8553802736023
 10
659.6111548295867
 20
-508.3203072802471
 10
660.3625706910625
 20
-508.3203072802471
 10
664.8683334385933
 20
-499.3115142065017
 10
676.1286416754465
 20
-496.3085831819189
 10
684.3860188877188
 20
-501.5630293696095
 10
693.394811961467
 20
-506.0687921171402
 10
696.3977429860479
 20
-517.3291003539953
 10
691.8947126598305
 20
-525.5864775662676
 10
689.6404650754084
 20
-529.3408244523234
 10
655.1081245033711
 20
-589.399444943967
 10
593.5466722887759
 20
-613.4228931406287
 10
559.7657475782125
 20
-703.5108238780922
 10
504.208791202127
 20
-702.0107245764593
 10
487.6940367775824
 20
-661.469789533945
 10
477.933827842362
 20
-638.9491730602349
 10
479.4352933546506
 20
-606.6683476513026
 10
483.9396898915256
 20
-581.8934835931686
 97
        0
 97
        0
 92
        1
 93
        1
 72
     4
 94
        3
 73
     0
 74
     1
 95
       29
 96
       25
 40
0.0
 40
0.0
 40
0.0
 40
0.0
 40
1.0
 40
1.0
 40
1.0
 40
2.0
 40
2.0
 40
2.0
 40
3.0
 40
3.0
 40
3.0
 40
4.0
 40
4.0
 40
4.0
 40
5.0
 40
5.0
 40
5.0
 40
6.0
 40
6.0
 40
6.0
 40
7.0
 40
7.0
 40
7.0
 40
8.0
 40
8.0
 40
8.0
 40
8.0
 10
542.4968448708787
 20
-587.1479297808619
 10
550.0055386429904
 20
-587.1479297808619
 10
558.2629158552627
 20
-586.396513919386
 10
565.0201937659021
 20
-584.1449987562773
 10
580.0348488888139
 20
-532.3437554769071
 10
578.5320171658659
 20
-467.0306887975703
 10
553.0084696675731
 20
-467.0306887975703
 10
534.9908835200804
 20
-467.0306887975703
 10
520.7262780479869
 20
-487.2997901081717
 10
514.7204159988214
 20
-511.3232383048298
 10
521.4763276988033
 20
-505.3173762556653
 10
528.9836552602592
 20
-502.3144452310835
 10
537.2423986831873
 20
-502.3144452310835
 10
547.0026076184095
 20
-502.3144452310835
 10
555.2599848306818
 20
-510.574554864671
 10
555.2599848306818
 20
-520.3320313785771
 10
555.2599848306818
 20
-530.0922403137984
 10
547.7540234798817
 20
-537.5982016645967
 10
537.9938145446631
 20
-538.3496175260707
 10
534.2394676586064
 20
-541.3525485506507
 10
526.7321400971505
 20
-554.8671043719296
 10
521.4763276988033
 20
-576.639037405479
 10
526.7321400971505
 20
-583.3935828948051
 10
533.4880517971324
 20
-587.1479297808619
 10
542.4968448708787
 20
-587.1479297808619
 97
        0
 97
        0
 92
        1
 93
        1
 72
     4
 94
        3
 73
     0
 74
     1
 95
       14
 96
       10
 40
0.0
 40
0.0
 40
0.0
 40
0.0
 40
1.0
 40
1.0
 40
1.0
 40
2.0
 40
2.0
 40
2.0
 40
3.0
 40
3.0
 40
3.0
 40
3.0
 10
522.9777932110937
 20
-651.7095805987228
 10
531.2351704233679
 20
-651.7095805987228
 10
540.9967455692458
 20
-640.4492723618641
 10
550.0055386429904
 20
-622.4316862143714
 10
537.9938145446631
 20
-623.1831020758473
 10
527.4821897479669
 20
-622.4316862143714
 10
516.2205153004561
 20
-617.9286558881577
 10
516.2205153004561
 20
-638.9491730602349
 10
520.7262780479869
 20
-649.4580654356141
 10
522.9777932110937
 20
-651.7095805987228
 97
        0
 97
        0
 75
     2
 76
     1
 98
        0
  0
SPLINE
  5
66
330
5B
100
AcDbEntity
  8
Layer 1
370
     0
100
AcDbSpline
210
0.0
220
0.0
230
1.0
 70
    11
 71
     3
 72
    68
 73
    64
 74
     0
 42
0.0000000001
 43
0.0000000001
 12
1.0
 22
0.0
 32
0.0
 13
1.0
 23
0.0
 33
0.0
 40
0.0
 40
0.0
 40
0.0
 40
0.0
 40
1.0
 40
1.0
 40
1.0
 40
2.0
 40
2.0
 40
2.0
 40
3.0
 40
3.0
 40
3.0
 40
4.0
 40
4.0
 40
4.0
 40
5.0
 40
5.0
 40
5.0
 40
6.0
 40
6.0
 40
6.0
 40
7.0
 40
7.0
 40
7.0
 40
8.0
 40
8.0
 40
8.0
 40
9.0
 40
9.0
 40
9.0
 40
10.0
 40
10.0
 40
10.0
 40
11.0
 40
11.0
 40
11.0
 40
12.0
 40
12.0
 40
12.0
 40
13.0
 40
13.0
 40
13.0
 40
14.0
 40
14.0
 40
14.0
 40
15.0
 40
15.0
 40
15.0
 40
16.0
 40
16.0
 40
16.0
 40
17.0
 40
17.0
 40
17.0
 40
18.0
 40
18.0
 40
18.0
 40
19.0
 40
19.0
 40
19.0
 40
20.0
 40
20.0
 40
20.0
 40
21.0
 40
21.0
 40
21.0
 40
21.0
 10
736.1736000605197
 20
-673.4815136322723
 30
0.0
 10
733.1706690359388
 20
-661.469789533945
 30
0.0
 10
732.4219855957781
 20
-647.2065502725054
 30
0.0
 10
732.4219855957781
 20
-631.4404792881214
 30
0.0
 10
717.4073304728663
 20
-652.460996460195
 30
0.0
 10
702.3926753499545
 20
-662.2212053954172
 30
0.0
 10
686.6266043655705
 20
-662.2212053954172
 30
0.0
 10
676.1149795688743
 20
-662.2212053954172
 30
0.0
 10
666.3575030549691
 20
-657.7154426478846
 30
0.0
 10
660.3516410058019
 20
-649.4580654356141
 30
0.0
 10
633.3252617845646
 20
-613.4228931406287
 30
0.0
 10
661.8517403074384
 20
-496.3085831819189
 30
0.0
 10
671.6119492426587
 20
-461.7762426098798
 30
0.0
 10
674.6148802672415
 20
-452.0160336746585
 30
0.0
 10
684.3750892024618
 20
-446.0088054148373
 30
0.0
 10
693.3838822762082
 20
-449.01173643942
 30
0.0
 10
703.1413587901152
 20
-451.2646178131854
 30
0.0
 10
709.1472208392788
 20
-461.0248267484067
 30
0.0
 10
706.1442898146961
 20
-470.7850356836279
 30
0.0
 10
687.3780202270445
 20
-539.8524492490187
 30
0.0
 10
679.1179105934552
 20
-610.4199621160442
 30
0.0
 10
688.1267036672034
 20
-625.434617238956
 30
0.0
 10
693.3838822762082
 20
-623.1831020758473
 30
0.0
 10
710.6500525622268
 20
-608.1684469529355
 30
0.0
 10
733.1706690359388
 20
-555.6157878120903
 30
0.0
 10
736.9250159219937
 20
-547.3584105998161
 30
0.0
 10
739.9279469465746
 20
-539.1010333875447
 30
0.0
 10
742.9308779711591
 20
-530.8436561752715
 30
0.0
 10
757.1941172325951
 20
-450.5132019517114
 30
0.0
 10
766.2029103063433
 20
-446.7602212763113
 30
0.0
 10
772.9601882169791
 20
-443.7572902517295
 30
0.0
 10
780.4688819890944
 20
-440.7543592271477
 30
0.0
 10
790.2263585029996
 20
-443.0058743902555
 30
0.0
 10
795.4835371120062
 20
-450.5132019517114
 30
0.0
 10
799.2351515767477
 20
-455.7703805607161
 30
0.0
 10
803.7409143242785
 20
-463.2763419115136
 30
0.0
 10
787.2234274784187
 20
-515.0775851908866
 30
0.0
 10
784.220496453836
 20
-523.3349624031589
 30
0.0
 10
781.217565429255
 20
-531.5923396154312
 30
0.0
 10
778.2146344046705
 20
-540.6038651104927
 30
0.0
 10
775.9631192415636
 20
-551.8641733473487
 30
0.0
 10
774.4630199399289
 20
-563.875897445676
 30
0.0
 10
772.9601882169791
 20
-576.639037405479
 30
0.0
 10
764.7028110047067
 20
-645.7037185495574
 30
0.0
 10
770.708673053874
 20
-671.9814143306394
 30
0.0
 10
775.2117033800878
 20
-677.9872763798012
 30
0.0
 10
813.5011232594989
 20
-675.733028795381
 30
0.0
 10
854.7907417421757
 20
-580.3906518702242
 30
0.0
 10
872.8083278896702
 20
-512.8260700277779
 30
0.0
 10
875.0598430527789
 20
-503.0658610925566
 30
0.0
 10
885.5714678494733
 20
-497.059999043393
 30
0.0
 10
894.5802609232196
 20
-499.3115142065017
 30
0.0
 10
904.3377374371248
 20
-502.3144452310835
 30
0.0
 10
910.3435994862921
 20
-512.0746541663048
 30
0.0
 10
907.3406684617075
 20
-521.834863101526
 30
0.0
 10
907.3406684617075
 20
-523.3349624031589
 30
0.0
 10
895.3289443633803
 20
-568.3789277718934
 30
0.0
 10
874.308427191303
 20
-614.1743090021009
 30
0.0
 10
844.2791169454813
 20
-680.2387915429099
 30
0.0
 10
810.4981922349143
 20
-714.0224486747902
 30
0.0
 10
773.7116040784549
 20
-714.0224486747902
 30
0.0
 10
762.4512958416017
 20
-714.0224486747902
 30
0.0
 10
742.9308779711591
 20
-708.7680024871006
 30
0.0
 10
736.1736000605197
 20
-673.4815136322723
 30
0.0
  0
HATCH
  5
67
330
5B
100
AcDbEntity
  8
Layer 1
 62
     7
420
 16777215
100
AcDbHatch
 10
0.0
 20
0.0
 30
0.0
210
0.0
220
0.0
230
1.0
  2
SOLID
 70
     1
 71
     0
 91
        1
 92
        1
 93
        1
 72
     4
 94
        3
 73
     0
 74
     1
 95
       68
 96
       64
 40
0.0
 40
0.0
 40
0.0
 40
0.0
 40
1.0
 40
1.0
 40
1.0
 40
2.0
 40
2.0
 40
2.0
 40
3.0
 40
3.0
 40
3.0
 40
4.0
 40
4.0
 40
4.0
 40
5.0
 40
5.0
 40
5.0
 40
6.0
 40
6.0
 40
6.0
 40
7.0
 40
7.0
 40
7.0
 40
8.0
 40
8.0
 40
8.0
 40
9.0
 40
9.0
 40
9.0
 40
10.0
 40
10.0
 40
10.0
 40
11.0
 40
11.0
 40
11.0
 40
12.0
 40
12.0
 40
12.0
 40
13.0
 40
13.0
 40
13.0
 40
14.0
 40
14.0
 40
14.0
 40
15.0
 40
15.0
 40
15.0
 40
16.0
 40
16.0
 40
16.0
 40
17.0
 40
17.0
 40
17.0
 40
18.0
 40
18.0
 40
18.0
 40
19.0
 40
19.0
 40
19.0
 40
20.0
 40
20.0
 40
20.0
 40
21.0
 40
21.0
 40
21.0
 40
21.0
 10
736.1736000605197
 20
-673.4815136322723
 10
733.1706690359388
 20
-661.469789533945
 10
732.4219855957781
 20
-647.2065502725054
 10
732.4219855957781
 20
-631.4404792881214
 10
717.4073304728663
 20
-652.460996460195
 10
702.3926753499545
 20
-662.2212053954172
 10
686.6266043655705
 20
-662.2212053954172
 10
676.1149795688743
 20
-662.2212053954172
 10
666.3575030549691
 20
-657.7154426478846
 10
660.3516410058019
 20
-649.4580654356141
 10
633.3252617845646
 20
-613.4228931406287
 10
661.8517403074384
 20
-496.3085831819189
 10
671.6119492426587
 20
-461.7762426098798
 10
674.6148802672415
 20
-452.0160336746585
 10
684.3750892024618
 20
-446.0088054148373
 10
693.3838822762082
 20
-449.01173643942
 10
703.1413587901152
 20
-451.2646178131854
 10
709.1472208392788
 20
-461.0248267484067
 10
706.1442898146961
 20
-470.7850356836279
 10
687.3780202270445
 20
-539.8524492490187
 10
679.1179105934552
 20
-610.4199621160442
 10
688.1267036672034
 20
-625.434617238956
 10
693.3838822762082
 20
-623.1831020758473
 10
710.6500525622268
 20
-608.1684469529355
 10
733.1706690359388
 20
-555.6157878120903
 10
736.9250159219937
 20
-547.3584105998161
 10
739.9279469465746
 20
-539.1010333875447
 10
742.9308779711591
 20
-530.8436561752715
 10
757.1941172325951
 20
-450.5132019517114
 10
766.2029103063433
 20
-446.7602212763113
 10
772.9601882169791
 20
-443.7572902517295
 10
780.4688819890944
 20
-440.7543592271477
 10
790.2263585029996
 20
-443.0058743902555
 10
795.4835371120062
 20
-450.5132019517114
 10
799.2351515767477
 20
-455.7703805607161
 10
803.7409143242785
 20
-463.2763419115136
 10
787.2234274784187
 20
-515.0775851908866
 10
784.220496453836
 20
-523.3349624031589
 10
781.217565429255
 20
-531.5923396154312
 10
778.2146344046705
 20
-540.6038651104927
 10
775.9631192415636
 20
-551.8641733473487
 10
774.4630199399289
 20
-563.875897445676
 10
772.9601882169791
 20
-576.639037405479
 10
764.7028110047067
 20
-645.7037185495574
 10
770.708673053874
 20
-671.9814143306394
 10
775.2117033800878
 20
-677.9872763798012
 10
813.5011232594989
 20
-675.733028795381
 10
854.7907417421757
 20
-580.3906518702242
 10
872.8083278896702
 20
-512.8260700277779
 10
875.0598430527789
 20
-503.0658610925566
 10
885.5714678494733
 20
-497.059999043393
 10
894.5802609232196
 20
-499.3115142065017
 10
904.3377374371248
 20
-502.3144452310835
 10
910.3435994862921
 20
-512.0746541663048
 10
907.3406684617075
 20
-521.834863101526
 10
907.3406684617075
 20
-523.3349624031589
 10
895.3289443633803
 20
-568.3789277718934
 10
874.308427191303
 20
-614.1743090021009
 10
844.2791169454813
 20
-680.2387915429099
 10
810.4981922349143
 20
-714.0224486747902
 10
773.7116040784549
 20
-714.0224486747902
 10
762.4512958416017
 20
-714.0224486747902
 10
742.9308779711591
 20
-708.7680024871006
 10
736.1736000605197
 20
-673.4815136322723
 97
        0
 97
        0
 75
     2
 76
     1
 98
        0
  0
ENDBLK
  5
5E
330
5B
100
AcDbEntity
  8
0
100
AcDbBlockEnd
  0
BLOCK
  5
6A
330
68
100
AcDbEntity
  8
0
100
AcDbBlockBegin
  2
block 5
 70
     0
 10
0.0
 20
0.0
 30
0.0
  3
block 5
  1

  0
SPLINE
  5
6C
330
68
100
AcDbEntity
  8
Layer 1
370
     0
100
AcDbSpline
210
0.0
220
0.0
230
1.0
 70
    11
 71
     3
 72
    77
 73
    73
 74
     0
 42
0.0000000001
 43
0.0000000001
 12
1.0
 22
0.0
 32
0.0
 13
1.0
 23
0.0
 33
0.0
 40
0.0
 40
0.0
 40
0.0
 40
0.0
 40
1.0
 40
1.0
 40
1.0
 40
2.0
 40
2.0
 40
2.0
 40
3.0
 40
3.0
 40
3.0
 40
4.0
 40
4.0
 40
4.0
 40
5.0
 40
5.0
 40
5.0
 40
6.0
 40
6.0
 40
6.0
 40
7.0
 40
7.0
 40
7.0
 40
8.0
 40
8.0
 40
8.0
 40
9.0
 40
9.0
 40
9.0
 40
10.0
 40
10.0
 40
10.0
 40
11.0
 40
11.0
 40
11.0
 40
12.0
 40
12.0
 40
12.0
 40
13.0
 40
13.0
 40
13.0
 40
14.0
 40
14.0
 40
14.0
 40
15.0
 40
15.0
 40
15.0
 40
16.0
 40
16.0
 40
16.0
 40
17.0
 40
17.0
 40
17.0
 40
18.0
 40
18.0
 40
18.0
 40
19.0
 40
19.0
 40
19.0
 40
20.0
 40
20.0
 40
20.0
 40
21.0
 40
21.0
 40
21.0
 40
22.0
 40
22.0
 40
22.0
 40
23.0
 40
23.0
 40
23.0
 40
24.0
 40
24.0
 40
24.0
 40
24.0
 10
364.7104858354323
 20
-310.5913712812753
 30
0.0
 10
364.7104858354323
 20
-310.5913712812753
 30
0.0
 10
364.7104858354323
 20
-155.0838094332075
 30
0.0
 10
364.7104858354323
 20
-155.0838094332075
 30
0.0
 10
364.7104858354323
 20
-155.0838094332075
 30
0.0
 10
333.6961377057487
 20
-155.0838094332075
 30
0.0
 10
333.6961377057487
 20
-155.0838094332075
 30
0.0
 10
328.7408916519908
 20
-155.0838094332075
 30
0.0
 10
325.2461247908068
 20
-148.8251984124572
 30
0.0
 10
323.2118371222004
 20
-136.3011453176687
 30
0.0
 10
322.338828512231
 20
-130.1846202052693
 30
0.0
 10
321.9016411019202
 20
-123.9260091845172
 30
0.0
 10
321.9016411019202
 20
-117.5171149914722
 30
0.0
 10
321.9016411019202
 20
-111.1150518517125
 30
0.0
 10
322.338828512231
 20
-104.8496097776742
 30
0.0
 10
323.2118371222004
 20
-98.73445087593154
 30
0.0
 10
325.2461247908068
 20
-86.2158626237715
 30
0.0
 10
328.7408916519908
 20
-79.9504205497351
 30
0.0
 10
333.6961377057487
 20
-79.9504205497351
 30
0.0
 10
333.6961377057487
 20
-79.9504205497351
 30
0.0
 10
480.4681486115132
 20
-79.9504205497351
 30
0.0
 10
480.4681486115132
 20
-79.9504205497351
 30
0.0
 10
485.4165636119851
 20
-79.9504205497351
 30
0.0
 10
488.7665121435039
 20
-86.2158626237715
 30
0.0
 10
490.5152617847525
 20
-98.73445087593154
 30
0.0
 10
491.6738084220797
 20
-104.8496097776742
 30
0.0
 10
492.2612790046878
 20
-111.1150518517125
 30
0.0
 10
492.2612790046878
 20
-117.5171149914722
 30
0.0
 10
492.2612790046878
 20
-123.9260091845172
 30
0.0
 10
491.6738084220797
 20
-130.1846202052693
 30
0.0
 10
490.5152617847525
 20
-136.3011453176687
 30
0.0
 10
488.7665121435039
 20
-148.8251984124572
 30
0.0
 10
485.4165636119851
 20
-155.0838094332075
 30
0.0
 10
480.4681486115132
 20
-155.0838094332075
 30
0.0
 10
480.4681486115132
 20
-155.0838094332075
 30
0.0
 10
451.2011839124225
 20
-155.0838094332075
 30
0.0
 10
451.2011839124225
 20
-155.0838094332075
 30
0.0
 10
451.2011839124225
 20
-155.0838094332075
 30
0.0
 10
451.2011839124225
 20
-310.5913712812753
 30
0.0
 10
451.2011839124225
 20
-310.5913712812753
 30
0.0
 10
451.2011839124225
 20
-310.5913712812753
 30
0.0
 10
481.7783446317935
 20
-310.5913712812753
 30
0.0
 10
481.7783446317935
 20
-310.5913712812753
 30
0.0
 10
486.7253934216078
 20
-310.5913712812753
 30
0.0
 10
490.2201602827918
 20
-316.8568133553117
 30
0.0
 10
492.2612790046878
 20
-329.3754016074736
 30
0.0
 10
493.4225580633283
 20
-335.4905605092144
 30
0.0
 10
494.0100286459365
 20
-341.7560025832518
 30
0.0
 10
494.0100286459365
 20
-348.1580657230124
 30
0.0
 10
494.0100286459365
 20
-354.5669599160601
 30
0.0
 10
493.4225580633283
 20
-360.8255709368104
 30
0.0
 10
492.2612790046878
 20
-366.9420960492098
 30
0.0
 10
490.2201602827918
 20
-379.4661491439983
 30
0.0
 10
486.7253934216078
 20
-385.7247601647505
 30
0.0
 10
481.7783446317935
 20
-385.7247601647505
 30
0.0
 10
481.7783446317935
 20
-385.7247601647505
 30
0.0
 10
334.5691463157145
 20
-385.7247601647505
 30
0.0
 10
334.5691463157145
 20
-385.7247601647505
 30
0.0
 10
329.6139002619584
 20
-385.7247601647505
 30
0.0
 10
326.26941657307
 20
-379.4661491439983
 30
0.0
 10
324.5233993531365
 20
-366.9420960492098
 30
0.0
 10
323.3552892412063
 20
-360.8255709368104
 30
0.0
 10
322.7760159225436
 20
-354.5669599160601
 30
0.0
 10
322.7760159225436
 20
-348.1580657230124
 30
0.0
 10
322.7760159225436
 20
-341.7560025832518
 30
0.0
 10
323.3552892412063
 20
-335.4905605092144
 30
0.0
 10
324.5233993531365
 20
-329.3754016074736
 30
0.0
 10
326.26941657307
 20
-316.8568133553117
 30
0.0
 10
329.6139002619584
 20
-310.5913712812753
 30
0.0
 10
334.5691463157145
 20
-310.5913712812753
 30
0.0
 10
334.5691463157145
 20
-310.5913712812753
 30
0.0
 10
364.7104858354323
 20
-310.5913712812753
 30
0.0
 10
364.7104858354323
 20
-310.5913712812753
 30
0.0
  0
HATCH
  5
6D
330
68
100
AcDbEntity
  8
Layer 1
 62
     7
420
 16777215
100
AcDbHatch
 10
0.0
 20
0.0
 30
0.0
210
0.0
220
0.0
230
1.0
  2
SOLID
 70
     1
 71
     0
 91
        1
 92
        1
 93
        1
 72
     4
 94
        3
 73
     0
 74
     1
 95
       77
 96
       73
 40
0.0
 40
0.0
 40
0.0
 40
0.0
 40
1.0
 40
1.0
 40
1.0
 40
2.0
 40
2.0
 40
2.0
 40
3.0
 40
3.0
 40
3.0
 40
4.0
 40
4.0
 40
4.0
 40
5.0
 40
5.0
 40
5.0
 40
6.0
 40
6.0
 40
6.0
 40
7.0
 40
7.0
 40
7.0
 40
8.0
 40
8.0
 40
8.0
 40
9.0
 40
9.0
 40
9.0
 40
10.0
 40
10.0
 40
10.0
 40
11.0
 40
11.0
 40
11.0
 40
12.0
 40
12.0
 40
12.0
 40
13.0
 40
13.0
 40
13.0
 40
14.0
 40
14.0
 40
14.0
 40
15.0
 40
15.0
 40
15.0
 40
16.0
 40
16.0
 40
16.0
 40
17.0
 40
17.0
 40
17.0
 40
18.0
 40
18.0
 40
18.0
 40
19.0
 40
19.0
 40
19.0
 40
20.0
 40
20.0
 40
20.0
 40
21.0
 40
21.0
 40
21.0
 40
22.0
 40
22.0
 40
22.0
 40
23.0
 40
23.0
 40
23.0
 40
24.0
 40
24.0
 40
24.0
 40
24.0
 10
364.7104858354323
 20
-310.5913712812753
 10
364.7104858354323
 20
-310.5913712812753
 10
364.7104858354323
 20
-155.0838094332075
 10
364.7104858354323
 20
-155.0838094332075
 10
364.7104858354323
 20
-155.0838094332075
 10
333.6961377057487
 20
-155.0838094332075
 10
333.6961377057487
 20
-155.0838094332075
 10
328.7408916519908
 20
-155.0838094332075
 10
325.2461247908068
 20
-148.8251984124572
 10
323.2118371222004
 20
-136.3011453176687
 10
322.338828512231
 20
-130.1846202052693
 10
321.9016411019202
 20
-123.9260091845172
 10
321.9016411019202
 20
-117.5171149914722
 10
321.9016411019202
 20
-111.1150518517125
 10
322.338828512231
 20
-104.8496097776742
 10
323.2118371222004
 20
-98.73445087593154
 10
325.2461247908068
 20
-86.2158626237715
 10
328.7408916519908
 20
-79.9504205497351
 10
333.6961377057487
 20
-79.9504205497351
 10
333.6961377057487
 20
-79.9504205497351
 10
480.4681486115132
 20
-79.9504205497351
 10
480.4681486115132
 20
-79.9504205497351
 10
485.4165636119851
 20
-79.9504205497351
 10
488.7665121435039
 20
-86.2158626237715
 10
490.5152617847525
 20
-98.73445087593154
 10
491.6738084220797
 20
-104.8496097776742
 10
492.2612790046878
 20
-111.1150518517125
 10
492.2612790046878
 20
-117.5171149914722
 10
492.2612790046878
 20
-123.9260091845172
 10
491.6738084220797
 20
-130.1846202052693
 10
490.5152617847525
 20
-136.3011453176687
 10
488.7665121435039
 20
-148.8251984124572
 10
485.4165636119851
 20
-155.0838094332075
 10
480.4681486115132
 20
-155.0838094332075
 10
480.4681486115132
 20
-155.0838094332075
 10
451.2011839124225
 20
-155.0838094332075
 10
451.2011839124225
 20
-155.0838094332075
 10
451.2011839124225
 20
-155.0838094332075
 10
451.2011839124225
 20
-310.5913712812753
 10
451.2011839124225
 20
-310.5913712812753
 10
451.2011839124225
 20
-310.5913712812753
 10
481.7783446317935
 20
-310.5913712812753
 10
481.7783446317935
 20
-310.5913712812753
 10
486.7253934216078
 20
-310.5913712812753
 10
490.2201602827918
 20
-316.8568133553117
 10
492.2612790046878
 20
-329.3754016074736
 10
493.4225580633283
 20
-335.4905605092144
 10
494.0100286459365
 20
-341.7560025832518
 10
494.0100286459365
 20
-348.1580657230124
 10
494.0100286459365
 20
-354.5669599160601
 10
493.4225580633283
 20
-360.8255709368104
 10
492.2612790046878
 20
-366.9420960492098
 10
490.2201602827918
 20
-379.4661491439983
 10
486.7253934216078
 20
-385.7247601647505
 10
481.7783446317935
 20
-385.7247601647505
 10
481.7783446317935
 20
-385.7247601647505
 10
334.5691463157145
 20
-385.7247601647505
 10
334.5691463157145
 20
-385.7247601647505
 10
329.6139002619584
 20
-385.7247601647505
 10
326.26941657307
 20
-379.4661491439983
 10
324.5233993531365
 20
-366.9420960492098
 10
323.3552892412063
 20
-360.8255709368104
 10
322.7760159225436
 20
-354.5669599160601
 10
322.7760159225436
 20
-348.1580657230124
 10
322.7760159225436
 20
-341.7560025832518
 10
323.3552892412063
 20
-335.4905605092144
 10
324.5233993531365
 20
-329.3754016074736
 10
326.26941657307
 20
-316.8568133553117
 10
329.6139002619584
 20
-310.5913712812753
 10
334.5691463157145
 20
-310.5913712812753
 10
334.5691463157145
 20
-310.5913712812753
 10
364.7104858354323
 20
-310.5913712812753
 10
364.7104858354323
 20
-310.5913712812753
 97
        0
 97
        0
 75
     2
 76
     1
 98
        0
  0
ENDBLK
  5
6B
330
68
100
AcDbEntity
  8
0
100
AcDbBlockEnd
  0
ENDSEC
  0
SECTION
  2
ENTITIES
  0
INSERT
  5
42
330
1F
100
AcDbEntity
  8
Layer 1
100
AcDbBlockReference
  2
block 2
 10
0.0
 20
0.0
 30
0.0
  0
ENDSEC
  0
SECTION
  2
OBJECTS
  0
DICTIONARY
  5
C
330
0
100
AcDbDictionary
281
     1
  3
ACAD_GROUP
350
D
  3
ACAD_LAYOUT
350
1A
  3
ACAD_MATERIAL
350
3B
  3
ACAD_MLEADERSTYLE
350
6F
  3
ACAD_MLINESTYLE
350
17
  3
ACAD_PLOTSETTINGS
350
19
  3
ACAD_PLOTSTYLENAME
350
E
  3
ACAD_TABLESTYLE
350
6E
  3
ACAD_VISUALSTYLE
350
2A
  0
SUN
  5
3F
330
29
100
AcDbSun
 90
        1
290
     0
 63
     7
421
 16777215
 40
1.0
291
     1
 91
  2455826
 92
 54000000
292
     0
 70
     2
 71
   256
280
     1
  0
DICTIONARY
  5
D
102
{ACAD_REACTORS
330
C
102
}
330
C
100
AcDbDictionary
281
     1
  0
DICTIONARY
  5
1A
102
{ACAD_REACTORS
330
C
102
}
330
C
100
AcDbDictionary
281
     1
  3
Layout1
350
1E
  3
Layout2
350
26
  3
Model
350
22
  0
DICTIONARY
  5
3B
102
{ACAD_REACTORS
330
C
102
}
330
C
100
AcDbDictionary
281
     1
  3
ByBlock
350
3D
  3
ByLayer
350
3C
  3
Global
350
3E
  0
DICTIONARY
  5
6F
102
{ACAD_REACTORS
330
C
102
}
330
C
100
AcDbDictionary
281
     1
  0
DICTIONARY
  5
17
102
{ACAD_REACTORS
330
C
102
}
330
C
100
AcDbDictionary
281
     1
  3
Standard
350
18
  0
DICTIONARY
  5
19
102
{ACAD_REACTORS
330
C
102
}
330
C
100
AcDbDictionary
281
     1
  0
ACDBDICTIONARYWDFLT
  5
E
102
{ACAD_REACTORS
330
C
102
}
330
C
100
AcDbDictionary
281
     1
  3
Normal
350
F
100
AcDbDictionaryWithDefault
340
F
  0
DICTIONARY
  5
6E
102
{ACAD_REACTORS
330
C
102
}
330
C
100
AcDbDictionary
281
     1
  0
DICTIONARY
  5
2A
102
{ACAD_REACTORS
330
C
102
}
330
C
100
AcDbDictionary
281
     1
  3
2dWireframe
350
2F
  3
3D Hidden
350
31
  3
3dWireframe
350
30
  3
Basic
350
32
  3
Brighten
350
36
  3
ColorChange
350
3A
  3
Conceptual
350
34
  3
Dim
350
35
  3
Facepattern
350
39
  3
Flat
350
2B
  3
FlatWithEdges
350
2C
  3
Gouraud
350
2D
  3
GouraudWithEdges
350
2E
  3
Linepattern
350
38
  3
Realistic
350
33
  3
Thicken
350
37
  0
LAYOUT
  5
1E
102
{ACAD_REACTORS
330
1A
102
}
330
1A
100
AcDbPlotSettings
  1

  2
none_device
  4

  6

 40
0.0
 41
0.0
 42
0.0
 43
0.0
 44
0.0
 45
0.0
 46
0.0
 47
0.0
 48
0.0
 49
0.0
140
0.0
141
0.0
142
1.0
143
1.0
 70
   688
 72
     0
 73
     0
 74
     5
  7

 75
    16
 76
     0
 77
     2
 78
   300
147
1.0
148
0.0
149
0.0
100
AcDbLayout
  1
Layout1
 70
     1
 71
     1
 10
0.0
 20
0.0
 11
12.0
 21
9.0
 12
0.0
 22
0.0
 32
0.0
 14
1.000000000000000E+20
 24
1.000000000000000E+20
 34
1.000000000000000E+20
 15
-1.000000000000000E+20
 25
-1.000000000000000E+20
 35
-1.000000000000000E+20
146
0.0
 13
0.0
 23
0.0
 33
0.0
 16
1.0
 26
0.0
 36
0.0
 17
0.0
 27
1.0
 37
0.0
 76
     0
330
1B
  0
LAYOUT
  5
26
102
{ACAD_REACTORS
330
1A
102
}
330
1A
100
AcDbPlotSettings
  1

  2
none_device
  4

  6

 40
0.0
 41
0.0
 42
0.0
 43
0.0
 44
0.0
 45
0.0
 46
0.0
 47
0.0
 48
0.0
 49
0.0
140
0.0
141
0.0
142
1.0
143
1.0
 70
   688
 72
     0
 73
     0
 74
     5
  7

 75
    16
 76
     0
 77
     2
 78
   300
147
1.0
148
0.0
149
0.0
100
AcDbLayout
  1
Layout2
 70
     1
 71
     2
 10
0.0
 20
0.0
 11
0.0
 21
0.0
 12
0.0
 22
0.0
 32
0.0
 14
0.0
 24
0.0
 34
0.0
 15
0.0
 25
0.0
 35
0.0
146
0.0
 13
0.0
 23
0.0
 33
0.0
 16
1.0
 26
0.0
 36
0.0
 17
0.0
 27
1.0
 37
0.0
 76
     0
330
23
  0
LAYOUT
  5
22
102
{ACAD_REACTORS
330
1A
102
}
330
1A
100
AcDbPlotSettings
  1

  2
none_device
  4

  6

 40
0.0
 41
0.0
 42
0.0
 43
0.0
 44
0.0
 45
0.0
 46
0.0
 47
0.0
 48
0.0
 49
0.0
140
0.0
141
0.0
142
1.0
143
1.0
 70
  1712
 72
     0
 73
     0
 74
     0
  7

 75
     0
 76
     0
 77
     2
 78
   300
147
1.0
148
0.0
149
0.0
100
AcDbLayout
  1
Model
 70
     1
 71
     0
 10
0.0
 20
0.0
 11
12.0
 21
9.0
 12
0.0
 22
0.0
 32
0.0
 14
1.000000000000000E+20
 24
1.000000000000000E+20
 34
1.000000000000000E+20
 15
-1.000000000000000E+20
 25
-1.000000000000000E+20
 35
-1.000000000000000E+20
146
0.0
 13
0.0
 23
0.0
 33
0.0
 16
1.0
 26
0.0
 36
0.0
 17
0.0
 27
1.0
 37
0.0
 76
     0
330
1F
331
29
  0
MATERIAL
  5
3D
102
{ACAD_REACTORS
330
3B
102
}
330
3B
100
AcDbMaterial
  1
ByBlock
 72
     1
 94
      127
  0
MATERIAL
  5
3C
102
{ACAD_REACTORS
330
3B
102
}
330
3B
100
AcDbMaterial
  1
ByLayer
 72
     1
 94
      127
  0
MATERIAL
  5
3E
102
{ACAD_REACTORS
330
3B
102
}
330
3B
100
AcDbMaterial
  1
Global
 72
     1
 94
      127
  0
MLINESTYLE
  5
18
102
{ACAD_REACTORS
330
17
102
}
330
17
100
AcDbMlineStyle
  2
Standard
 70
     0
  3

 62
   256
 51
90.0
 52
90.0
 71
     2
 49
0.5
 62
   256
  6
BYLAYER
 49
-0.5
 62
   256
  6
BYLAYER
  0
ACDBPLACEHOLDER
  5
F
102
{ACAD_REACTORS
330
E
102
}
330
E
  0
VISUALSTYLE
  5
2F
102
{ACAD_REACTORS
330
2A
102
}
330
2A
100
AcDbVisualStyle
  2
2dWireframe
 70
     4
177
     2
291
     0
 71
     0
176
     1
 72
     2
176
     1
 73
     0
176
     1
 90
        0
176
     1
 40
-0.6
176
     1
 41
-30.0
176
     1
 62
     5
 63
     7
421
 16777215
176
     1
 74
     1
176
     1
 91
        4
176
     1
 64
     7
176
     1
 65
   257
176
     1
 75
     1
176
     1
175
     1
176
     1
 42
1.0
176
     1
 92
        0
176
     1
 66
   257
176
     1
 43
1.0
176
     1
 76
     1
176
     1
 77
     6
176
     1
 78
     2
176
     1
 67
     7
176
     1
 79
     5
176
     1
170
     0
176
     1
171
     0
176
     1
290
     0
176
     1
 93
        1
176
     1
 44
0.0
176
     1
173
     0
176
     1
  0
VISUALSTYLE
  5
31
102
{ACAD_REACTORS
330
2A
102
}
330
2A
100
AcDbVisualStyle
  2
3D Hidden
 70
     6
177
     2
291
     0
 71
     1
176
     1
 72
     2
176
     1
 73
     2
176
     1
 90
        0
176
     1
 40
-0.6
176
     1
 41
-30.0
176
     1
 62
     5
 63
     7
421
 16777215
176
     1
 74
     2
176
     1
 91
        2
176
     1
 64
     7
176
     1
 65
   257
176
     1
 75
     2
176
     1
175
     1
176
     1
 42
40.0
176
     1
 92
        0
176
     1
 66
   257
176
     1
 43
1.0
176
     1
 76
     1
176
     1
 77
     6
176
     1
 78
     2
176
     1
 67
     7
176
     1
 79
     3
176
     1
170
     0
176
     1
171
     0
176
     1
290
     0
176
     1
 93
        1
176
     1
 44
0.0
176
     1
173
     0
176
     1
  0
VISUALSTYLE
  5
30
102
{ACAD_REACTORS
330
2A
102
}
330
2A
100
AcDbVisualStyle
  2
3dWireframe
 70
     5
177
     2
291
     0
 71
     0
176
     1
 72
     2
176
     1
 73
     0
176
     1
 90
        0
176
     1
 40
-0.6
176
     1
 41
-30.0
176
     1
 62
     5
 63
     7
421
 16777215
176
     1
 74
     1
176
     1
 91
        4
176
     1
 64
     7
176
     1
 65
   257
176
     1
 75
     1
176
     1
175
     1
176
     1
 42
1.0
176
     1
 92
        0
176
     1
 66
   257
176
     1
 43
1.0
176
     1
 76
     1
176
     1
 77
     6
176
     1
 78
     2
176
     1
 67
     7
176
     1
 79
     5
176
     1
170
     0
176
     1
171
     0
176
     1
290
     0
176
     1
 93
        1
176
     1
 44
0.0
176
     1
173
     0
176
     1
  0
VISUALSTYLE
  5
32
102
{ACAD_REACTORS
330
2A
102
}
330
2A
100
AcDbVisualStyle
  2
Basic
 70
     7
177
     2
291
     1
 71
     1
176
     1
 72
     0
176
     1
 73
     1
176
     1
 90
        0
176
     1
 40
-0.6
176
     1
 41
-30.0
176
     1
 62
     5
 63
     7
421
 16777215
176
     1
 74
     0
176
     1
 91
        4
176
     1
 64
     7
176
     1
 65
   257
176
     1
 75
     1
176
     1
175
     1
176
     1
 42
1.0
176
     1
 92
        8
176
     1
 66
     7
176
     1
 43
1.0
176
     1
 76
     1
176
     1
 77
     6
176
     1
 78
     2
176
     1
 67
     7
176
     1
 79
     5
176
     1
170
     0
176
     1
171
     0
176
     1
290
     0
176
     1
 93
        1
176
     1
 44
0.0
176
     1
173
     0
176
     1
  0
VISUALSTYLE
  5
36
102
{ACAD_REACTORS
330
2A
102
}
330
2A
100
AcDbVisualStyle
  2
Brighten
 70
    12
177
     2
291
     1
 71
     2
176
     1
 72
     2
176
     1
 73
     0
176
     1
 90
        0
176
     1
 40
-0.6
176
     1
 41
-30.0
176
     1
 62
     5
 63
     7
421
 16777215
176
     1
 74
     1
176
     1
 91
        4
176
     1
 64
     7
176
     1
 65
   257
176
     1
 75
     1
176
     1
175
     1
176
     1
 42
1.0
176
     1
 92
        8
176
     1
 66
     7
176
     1
 43
1.0
176
     1
 76
     1
176
     1
 77
     6
176
     1
 78
     2
176
     1
 67
     7
176
     1
 79
     5
176
     1
170
     0
176
     1
171
     0
176
     1
290
     0
176
     1
 93
        1
176
     1
 44
50.0
176
     1
173
     0
176
     1
  0
VISUALSTYLE
  5
3A
102
{ACAD_REACTORS
330
2A
102
}
330
2A
100
AcDbVisualStyle
  2
ColorChange
 70
    16
177
     2
291
     1
 71
     2
176
     1
 72
     2
176
     1
 73
     3
176
     1
 90
        0
176
     1
 40
-0.6
176
     1
 41
-30.0
176
     1
 62
     5
 63
     8
421
  8421504
176
     1
 74
     1
176
     1
 91
        4
176
     1
 64
     7
176
     1
 65
   257
176
     1
 75
     1
176
     1
175
     1
176
     1
 42
1.0
176
     1
 92
        8
176
     1
 66
     8
424
  8421504
176
     1
 43
1.0
176
     1
 76
     1
176
     1
 77
     6
176
     1
 78
     2
176
     1
 67
     7
176
     1
 79
     5
176
     1
170
     0
176
     1
171
     0
176
     1
290
     0
176
     1
 93
        1
176
     1
 44
0.0
176
     1
173
     0
176
     1
  0
VISUALSTYLE
  5
34
102
{ACAD_REACTORS
330
2A
102
}
330
2A
100
AcDbVisualStyle
  2
Conceptual
 70
     9
177
     2
291
     0
 71
     3
176
     1
 72
     2
176
     1
 73
     0
176
     1
 90
        0
176
     1
 40
-0.6
176
     1
 41
-30.0
176
     1
 62
     5
 63
     7
421
 16777215
176
     1
 74
     2
176
     1
 91
        2
176
     1
 64
     7
176
     1
 65
   257
176
     1
 75
     1
176
     1
175
     1
176
     1
 42
40.0
176
     1
 92
        8
176
     1
 66
     7
176
     1
 43
1.0
176
     1
 76
     1
176
     1
 77
     6
176
     1
 78
     2
176
     1
 67
     7
176
     1
 79
     3
176
     1
170
     0
176
     1
171
     0
176
     1
290
     0
176
     1
 93
        1
176
     1
 44
0.0
176
     1
173
     0
176
     1
  0
VISUALSTYLE
  5
35
102
{ACAD_REACTORS
330
2A
102
}
330
2A
100
AcDbVisualStyle
  2
Dim
 70
    11
177
     2
291
     1
 71
     2
176
     1
 72
     2
176
     1
 73
     0
176
     1
 90
        0
176
     1
 40
-0.6
176
     1
 41
-30.0
176
     1
 62
     5
 63
     7
421
 16777215
176
     1
 74
     1
176
     1
 91
        4
176
     1
 64
     7
176
     1
 65
   257
176
     1
 75
     1
176
     1
175
     1
176
     1
 42
1.0
176
     1
 92
        8
176
     1
 66
     7
176
     1
 43
1.0
176
     1
 76
     1
176
     1
 77
     6
176
     1
 78
     2
176
     1
 67
     7
176
     1
 79
     5
176
     1
170
     0
176
     1
171
     0
176
     1
290
     0
176
     1
 93
        1
176
     1
 44
-50.0
176
     1
173
     0
176
     1
  0
VISUALSTYLE
  5
39
102
{ACAD_REACTORS
330
2A
102
}
330
2A
100
AcDbVisualStyle
  2
Facepattern
 70
    15
177
     2
291
     1
 71
     2
176
     1
 72
     2
176
     1
 73
     0
176
     1
 90
        0
176
     1
 40
-0.6
176
     1
 41
-30.0
176
     1
 62
     5
 63
     7
421
 16777215
176
     1
 74
     1
176
     1
 91
        4
176
     1
 64
     7
176
     1
 65
   257
176
     1
 75
     1
176
     1
175
     1
176
     1
 42
1.0
176
     1
 92
        8
176
     1
 66
     7
176
     1
 43
1.0
176
     1
 76
     1
176
     1
 77
     6
176
     1
 78
     2
176
     1
 67
     7
176
     1
 79
     5
176
     1
170
     0
176
     1
171
     0
176
     1
290
     0
176
     1
 93
        1
176
     1
 44
0.0
176
     1
173
     0
176
     1
  0
VISUALSTYLE
  5
2B
102
{ACAD_REACTORS
330
2A
102
}
330
2A
100
AcDbVisualStyle
  2
Flat
 70
     0
177
     2
291
     1
 71
     2
176
     1
 72
     1
176
     1
 73
     1
176
     1
 90
        2
176
     1
 40
-0.6
176
     1
 41
30.0
176
     1
 62
     5
 63
     7
421
 16777215
176
     1
 74
     0
176
     1
 91
        4
176
     1
 64
     7
176
     1
 65
   257
176
     1
 75
     1
176
     1
175
     1
176
     1
 42
1.0
176
     1
 92
        8
176
     1
 66
     7
176
     1
 43
1.0
176
     1
 76
     1
176
     1
 77
     6
176
     1
 78
     2
176
     1
 67
     7
176
     1
 79
     5
176
     1
170
     0
176
     1
171
     0
176
     1
290
     0
176
     1
 93
       13
176
     1
 44
0.0
176
     1
173
     0
176
     1
  0
VISUALSTYLE
  5
2C
102
{ACAD_REACTORS
330
2A
102
}
330
2A
100
AcDbVisualStyle
  2
FlatWithEdges
 70
     1
177
     2
291
     1
 71
     2
176
     1
 72
     1
176
     1
 73
     1
176
     1
 90
        2
176
     1
 40
-0.6
176
     1
 41
30.0
176
     1
 62
     5
 63
     7
421
 16777215
176
     1
 74
     1
176
     1
 91
        4
176
     1
 64
     7
176
     1
 65
   257
176
     1
 75
     1
176
     1
175
     1
176
     1
 42
1.0
176
     1
 92
        0
176
     1
 66
   257
176
     1
 43
1.0
176
     1
 76
     1
176
     1
 77
     6
176
     1
 78
     2
176
     1
 67
     7
176
     1
 79
     5
176
     1
170
     0
176
     1
171
     0
176
     1
290
     0
176
     1
 93
       13
176
     1
 44
0.0
176
     1
173
     0
176
     1
  0
VISUALSTYLE
  5
2D
102
{ACAD_REACTORS
330
2A
102
}
330
2A
100
AcDbVisualStyle
  2
Gouraud
 70
     2
177
     2
291
     1
 71
     2
176
     1
 72
     2
176
     1
 73
     1
176
     1
 90
        2
176
     1
 40
-0.6
176
     1
 41
30.0
176
     1
 62
     5
 63
     7
421
 16777215
176
     1
 74
     0
176
     1
 91
        4
176
     1
 64
     7
176
     1
 65
   257
176
     1
 75
     1
176
     1
175
     1
176
     1
 42
1.0
176
     1
 92
        0
176
     1
 66
     7
176
     1
 43
1.0
176
     1
 76
     1
176
     1
 77
     6
176
     1
 78
     2
176
     1
 67
     7
176
     1
 79
     5
176
     1
170
     0
176
     1
171
     0
176
     1
290
     0
176
     1
 93
       13
176
     1
 44
0.0
176
     1
173
     0
176
     1
  0
VISUALSTYLE
  5
2E
102
{ACAD_REACTORS
330
2A
102
}
330
2A
100
AcDbVisualStyle
  2
GouraudWithEdges
 70
     3
177
     2
291
     1
 71
     2
176
     1
 72
     2
176
     1
 73
     1
176
     1
 90
        2
176
     1
 40
-0.6
176
     1
 41
30.0
176
     1
 62
     5
 63
     7
421
 16777215
176
     1
 74
     1
176
     1
 91
        4
176
     1
 64
     7
176
     1
 65
   257
176
     1
 75
     1
176
     1
175
     1
176
     1
 42
1.0
176
     1
 92
        0
176
     1
 66
   257
176
     1
 43
1.0
176
     1
 76
     1
176
     1
 77
     6
176
     1
 78
     2
176
     1
 67
     7
176
     1
 79
     5
176
     1
170
     0
176
     1
171
     0
176
     1
290
     0
176
     1
 93
       13
176
     1
 44
0.0
176
     1
173
     0
176
     1
  0
VISUALSTYLE
  5
38
102
{ACAD_REACTORS
330
2A
102
}
330
2A
100
AcDbVisualStyle
  2
Linepattern
 70
    14
177
     2
291
     1
 71
     2
176
     1
 72
     2
176
     1
 73
     0
176
     1
 90
        0
176
     1
 40
-0.6
176
     1
 41
-30.0
176
     1
 62
     5
 63
     7
421
 16777215
176
     1
 74
     1
176
     1
 91
        4
176
     1
 64
     7
176
     1
 65
   257
176
     1
 75
     7
176
     1
175
     7
176
     1
 42
1.0
176
     1
 92
        8
176
     1
 66
     7
176
     1
 43
1.0
176
     1
 76
     1
176
     1
 77
     6
176
     1
 78
     2
176
     1
 67
     7
176
     1
 79
     5
176
     1
170
     0
176
     1
171
     0
176
     1
290
     0
176
     1
 93
        1
176
     1
 44
0.0
176
     1
173
     0
176
     1
  0
VISUALSTYLE
  5
33
102
{ACAD_REACTORS
330
2A
102
}
330
2A
100
AcDbVisualStyle
  2
Realistic
 70
     8
177
     2
291
     0
 71
     2
176
     1
 72
     2
176
     1
 73
     0
176
     1
 90
        0
176
     1
 40
-0.6
176
     1
 41
-30.0
176
     1
 62
     5
 63
     7
421
 16777215
176
     1
 74
     1
176
     1
 91
        0
176
     1
 64
     7
176
     1
 65
   257
176
     1
 75
     1
176
     1
175
     1
176
     1
 42
1.0
176
     1
 92
        8
176
     1
 66
     8
424
  7895160
176
     1
 43
1.0
176
     1
 76
     1
176
     1
 77
     6
176
     1
 78
     2
176
     1
 67
     7
176
     1
 79
     5
176
     1
170
     0
176
     1
171
     0
176
     1
290
     0
176
     1
 93
       13
176
     1
 44
0.0
176
     1
173
     0
176
     1
  0
VISUALSTYLE
  5
37
102
{ACAD_REACTORS
330
2A
102
}
330
2A
100
AcDbVisualStyle
  2
Thicken
 70
    13
177
     2
291
     1
 71
     2
176
     1
 72
     2
176
     1
 73
     0
176
     1
 90
        0
176
     1
 40
-0.6
176
     1
 41
-30.0
176
     1
 62
     5
 63
     7
421
 16777215
176
     1
 74
     1
176
     1
 91
        4
176
     1
 64
     7
176
     1
 65
   257
176
     1
 75
     1
176
     1
175
     1
176
     1
 42
1.0
176
     1
 92
       12
176
     1
 66
     7
176
     1
 43
1.0
176
     1
 76
     1
176
     1
 77
     6
176
     1
 78
     2
176
     1
 67
     7
176
     1
 79
     5
176
     1
170
     0
176
     1
171
     0
176
     1
290
     0
176
     1
 93
        1
176
     1
 44
0.0
176
     1
173
     0
176
     1
  0
ENDSEC
  0
EOF
