<?xml version="1.0" encoding="utf-8"?>
<!-- Generator: Adobe Illustrator 22.0.0, SVG Export Plug-In . SVG Version: 6.00 Build 0)  -->
<svg version="1.1" id="Layer_1" xmlns="http://www.w3.org/2000/svg" xmlns:xlink="http://www.w3.org/1999/xlink" x="0px" y="0px"
	 viewBox="0 0 1080 1080" style="enable-background:new 0 0 1080 1080;" xml:space="preserve">
<style type="text/css">
	.st0{fill:#FDD513;}
</style>
<g>
	<g>
		<g>
			<path class="st0" d="M376.5,902.7c-7.5,0-11.7-4.2-14.5-10.4c-2.5-5.9-3-12.4-3.5-18.8v-5.4c0-4.6,0.4-9.3,1.7-13.6
				c0.2-0.5,0.2-1,0.2-1.5c0-0.8-0.2-1.5-0.8-2.3c-1.5-1.9-2.1-4.3-2.4-6.7c-0.1-0.7-0.1-1.3-0.1-1.9c0-2.9,0.9-5.5,3.2-7.5
				c5.2-4.3,7.6-9.6,8.5-16.4c2.1-15.3,5.8-30.4,11.4-44.9c2.4-6.3,6-11.6,10.9-16.1c3.6-3.2,7.3-5.6,11.5-5.6
				c2.1,0,4.3,0.6,6.7,1.9c0.6,0.3,1.2,0.6,1.9,0.6h1.1c3.2,0,5.7,1.5,8.1,3.4c10,7.5,14.9,17.9,16.5,30c1.5,11.2,1.4,22.6,2.5,33.8
				c1.5,14.9,3.5,29.6,5.9,44.3c0.4,2.4,0.6,4.6,0.6,6.8c0,9-3,17.3-8.4,24.8c-2.4,3.6-6,5-10.2,5c-1.1,0-2.4-0.1-3.7-0.3
				c-5.6-1.1-8.4-4.5-9.3-9.5c-0.9-5.4-1.1-11-1.5-16.5c-0.7-9.5-1.4-19-2.7-28.4c-0.3-2.4-0.7-3.4-2.1-3.4c-0.6,0-1.2,0.2-2.2,0.4
				c-4.9,1.3-9.7,2.9-14.5,4.4c-2.2,0.6-2.9,2.1-2.9,4.4c0.2,5.4,0.8,10.7,1.5,16c0.3,2.2,0.4,4.4,0.4,6.6c0,6.2-1,12.2-2.5,18.2
				c-1.5,6-5.3,8.4-11.3,8.4H376.5z M404.3,816.8c3.1-0.5,3.7-1.1,3.7-4.5c-0.1-4.1-0.2-8.3-0.6-12.3c-0.4-3.3-0.2-6.7-1.7-10
				c-3.2,8.9-6.7,17.8-8.5,27.7C399.9,817.4,402.1,817.2,404.3,816.8z"/>
			<path class="st0" d="M509.8,902.1c-0.7-0.5-1.5-0.7-2.1-0.7l-1.1,0.1c-0.9,0.2-1.7,0.2-2.4,0.2c-5.8,0-9.1-3.7-9.3-10V891
				c0-5.9,1.7-11.2,7-14.7c1.5-1.1,1.6-2.3,1.6-3.6V872c-0.2-8.4-0.3-17-0.7-25.4c-0.1-2.7-0.1-5.4-0.1-8c0-2.7,0-5.4,0.1-8l0.1-5.1
				c0-6.8-0.3-13.6-0.9-20.3c-0.8-10.2-0.9-20.5-1.9-30.8l-0.1-2.4c0-6.3,2.8-11.9,6.7-17c2.5-3.1,5.7-5.4,9.7-5.4
				c0.6,0,1.2,0.1,1.9,0.2c6.3,1.1,10,5,11.9,10.9c1.8,5.3,1.7,10.8,1.8,14.2c-0.1,7-0.4,11.9-1,16.7c-0.8,6.6-1.1,13.1-1.1,19.7
				c0,5.8,0.2,11.6,0.4,17.4c0.3,8,0.4,15.9,0.4,23.9v6.9c0,5.4,0.2,6.9,3.6,6.9c1,0,2.3-0.2,3.9-0.3c4.2-0.6,8.4-1.5,12.7-2.3
				c2.2-0.4,4.3-0.7,6.4-0.7l2.8,0.2c8,1,12.1,6.7,12.1,12.9c0,2.9-0.9,5.9-2.7,8.5c-2.4,3.4-5.8,5.5-9.4,7.2
				c-4.7,2.3-9.8,3.3-14.9,4.5c-3.3,0.8-6.7,1.3-10.1,1.9c-3.4,0.6-6.6,1.6-9.4,3.7c-2.6,1.8-5.3,2.6-8,2.6
				C515.2,904.5,512.5,903.6,509.8,902.1z"/>
			<path class="st0" d="M594.4,902.7c-7.5,0-11.7-4.2-14.5-10.4c-2.5-5.9-3-12.4-3.5-18.8v-5.4c0-4.6,0.4-9.3,1.7-13.6
				c0.2-0.5,0.2-1,0.2-1.5c0-0.8-0.2-1.5-0.8-2.3c-1.5-1.9-2.1-4.3-2.4-6.7c-0.1-0.7-0.1-1.3-0.1-1.9c0-2.9,0.9-5.5,3.2-7.5
				c5.2-4.3,7.6-9.6,8.5-16.4c2.1-15.3,5.8-30.4,11.5-44.9c2.4-6.3,6-11.6,10.9-16.1c3.6-3.2,7.3-5.6,11.4-5.6
				c2.1,0,4.3,0.6,6.7,1.9c0.6,0.3,1.2,0.6,1.9,0.6h1.1c3.2,0,5.7,1.5,8.1,3.4c10,7.5,14.9,17.9,16.5,30c1.5,11.2,1.4,22.6,2.5,33.8
				c1.5,14.9,3.5,29.6,5.9,44.3c0.4,2.4,0.6,4.6,0.6,6.8c0,9-3,17.3-8.4,24.8c-2.4,3.6-6,5-10.1,5c-1.1,0-2.4-0.1-3.7-0.3
				c-5.6-1.1-8.4-4.5-9.3-9.5c-0.9-5.4-1.1-11-1.5-16.5c-0.7-9.5-1.4-19-2.7-28.4c-0.3-2.4-0.7-3.4-2.1-3.4c-0.6,0-1.2,0.2-2.2,0.4
				c-4.9,1.3-9.7,2.9-14.5,4.4c-2.2,0.6-2.9,2.1-2.9,4.4c0.2,5.4,0.8,10.7,1.5,16c0.3,2.2,0.4,4.4,0.4,6.6c0,6.2-1,12.2-2.5,18.2
				c-1.5,6-5.3,8.4-11.3,8.4H594.4z M622.2,816.8c3.1-0.5,3.7-1.1,3.7-4.5c-0.1-4.1-0.2-8.3-0.7-12.3c-0.4-3.3-0.2-6.7-1.7-10
				c-3.2,8.9-6.7,17.8-8.5,27.7C617.8,817.4,620,817.2,622.2,816.8z"/>
			<path class="st0" d="M696.1,900.7c-4.7-0.7-7.6-3.2-8.6-7.8c-1.1-5.3-2-10.6-2-15.9c-0.1-10.9-0.5-21.8-0.5-32.2l0.2-10.6
				c-0.1-11.9-0.1-22.9-0.5-33.9v-1.9c0-3.4,0.3-6.8,0.6-10.1v-0.5c0-1.7-0.8-2.4-2.4-2.4h-0.5l-7.5,0.8l-1.3,0.1
				c-7.2,0-12-5.7-12-12.4c0-1.5,0.2-2.9,0.7-4.4c2.2-7.5,7.1-11.5,14.9-11.5c11-0.2,21.6-2,32.2-4.1c3.6-0.7,7.1-1.1,10.6-1.3h1
				c5.9,0,10.9,2.8,15.2,6.5c2.2,1.9,3.2,5.3,3.2,8.7c0,2.8-0.8,5.8-2.3,7.9c-3.9,5.4-8.6,8.7-15.4,8.7l-2.7-0.1c-3.2,0-3.7,1-4.1,5
				c-0.7,6.2-0.7,12.5-0.8,18.7c-0.1,4.4-0.2,8.7-0.2,13.1c0,16.5,0.7,32.9,0.7,49.4c0,4.4-0.1,8.7-0.2,13.1c-0.1,2.7-0.2,5.3-0.7,8
				c-0.4,2-1.3,3.7-2.8,4.9c-3.7,2.8-7.6,4.9-12.3,4.9C697.9,901,697,900.9,696.1,900.7z"/>
			<path class="st0" d="M774,900.7c-4.7-0.7-7.6-3.2-8.6-7.8c-1.1-5.3-2-10.6-2-15.9c-0.1-10.9-0.5-21.8-0.5-32.2l0.2-10.6
				c-0.1-11.9-0.1-22.9-0.5-33.9v-1.9c0-3.4,0.3-6.8,0.6-10.1v-0.5c0-1.7-0.8-2.4-2.4-2.4h-0.5l-7.5,0.8l-1.3,0.1
				c-7.2,0-12-5.7-12-12.4c0-1.5,0.2-2.9,0.7-4.4c2.2-7.5,7.1-11.5,14.9-11.5c11-0.2,21.6-2,32.2-4.1c3.6-0.7,7.1-1.1,10.6-1.3h1
				c5.9,0,10.9,2.8,15.2,6.5c2.2,1.9,3.2,5.3,3.2,8.7c0,2.8-0.8,5.8-2.3,7.9c-3.9,5.4-8.6,8.7-15.4,8.7l-2.7-0.1c-3.2,0-3.7,1-4.1,5
				c-0.7,6.2-0.7,12.5-0.8,18.7c-0.1,4.4-0.2,8.7-0.2,13.1c0,16.5,0.7,32.9,0.7,49.4c0,4.4-0.1,8.7-0.2,13.1c-0.1,2.7-0.2,5.3-0.7,8
				c-0.4,2-1.3,3.7-2.8,4.9c-3.7,2.8-7.6,4.9-12.3,4.9C775.8,901,774.9,900.9,774,900.7z"/>
			<path class="st0" d="M837.7,901.6c-6.2-0.4-9.4-4.8-11.7-9.7c-1.3-2.8-1.6-6-2.1-9.1c-1.2-8.7-1.6-17.4-1.6-26.6
				c0-10.6,0.5-22.1,0.9-35.1c0.2-7.2,0-20.1,0.7-32.9c0.4-7,2-13.8,2.4-20.8c0.1-1,0.2-1.9,0.2-2.8c0-0.5-0.1-1.1-0.2-1.6
				c-0.2-1-0.3-1.9-0.3-2.7c0-2.5,1.1-4.1,3.9-5.8c2.8-1.6,5.8-2.4,8.9-2.9c5.4-0.8,10.9-1.1,16.3-1.1c4.2,0,8.4,0.2,12.6,0.5
				c4.9,0.3,9.5,2.4,14.4,3.2c2.5,0.5,4.1,2.3,4.9,4.7c1,2.7,1.4,5.3,1.4,7.9c0,3.5-0.8,7-2.3,10.4c-0.5,1.2-1.3,2.5-2.5,3
				c-4,1.4-7.8,3.3-12.1,3.3h-0.7c-4-0.2-8-0.5-12-0.6h-0.9c-2.7,0-3,0.5-3.4,3.6c-1.2,7-1.9,14.1-1.9,21.1v1.1
				c0.1,3.5,0.2,3.6,3.9,3.7l5.5,0.1l6.3-0.1c7.2,0,10.8,2.3,13,8.2c0.8,2.1,1.1,4.1,1.1,6c0,4.2-2,8-5.5,11.3c-4.7,4.3-10,6-15.6,6
				c-2.2,0-4.5-0.2-6.8-0.7c-1.1-0.2-1.9-0.4-2.5-0.4c-1.3,0-1.5,0.8-1.7,3.2c-0.2,1.7-0.2,3.4-0.2,5.1c0,5.1,0.6,10.2,1.5,15.3
				c0.2,1.6,1.1,2.1,2.1,2.1c0.3,0,0.7,0,1.1-0.1c1.1-0.3,2.4-0.6,3.4-1.1c1.5-0.6,3.2-1,4.8-1h0.5c6.3,0.3,12.4,0.5,18.7,1.1
				c6.3,0.6,9.9,4.2,10.7,10.5c0.1,1.1,0.2,2,0.2,3.1c0,4.2-1.1,8.2-3.2,12c-0.7,1.5-1.9,2.7-3.4,3.4c-4.8,2.4-9.9,4.1-15.3,4.1
				c-4.4,0-8.6,0.3-12.9,0.8c-3.3,0.4-6.7,0.6-9.9,0.6C844.7,902,841.2,901.9,837.7,901.6z"/>
		</g>
	</g>
	<path class="st0" d="M711.9,238c8.3-16.2,17.1-55.3,5.4-75.5c-11.7-20.2-46.8-47.4-61.5-43.3c-7.4,2-8.1,8.2-6.9,13.9
		c1.1,5.4,3.8,10.4,7.6,14.4C694.5,187.3,711.9,238,711.9,238L711.9,238z M830,336.2c62.4-58.9,85.9-119.9,75.3-161
		c-10.7-41.1-53-65.7-74.5-47.1c-21.4,18.6-7.9,37.2-7.9,37.2C875,236.1,830,336.2,830,336.2L830,336.2z M741.2,179
		c0,0,27.2-72.2,107-72.6c79.7-0.4,106.2,124.1,57.2,181.8c-48.9,57.6-103,99.9-161.4,140.1c0,0-95.1-59.6-158.7-144.1
		c-63.5-84.5,2.1-176,48.7-177.8C680.6,104.6,718.5,131.3,741.2,179L741.2,179z"/>
	<g>
		<path d="M164.1,862.7c36-76.6,97.6-120.1,162.2-171.9c3.8-23.3,7.5-45.8,10.5-67.6c-27.8,39-46.5,39-54.1,39
			c-9,0-16.5-3.8-22.5-10.5c-24-29.3-8.3-137.4,3.8-198.9c2.3-10.5,12-17.3,22.5-15c10.5,2.3,17.3,12,15,22.5
			c-12.8,68.3-18,136.6-13.5,159.9c24.8-19.5,53.3-81.1,64.6-113.4c6.8-50.3,8.3-65.3,24.8-69.8c7.5-1.5,15.8,1.5,21,8.3
			c6,9,8.3,22.5-3.8,59.3c-1.5,3.8-2.3,7.5-3.8,11.3c-5.3,39.8-11.3,84.8-19.5,136.6c40.5-36.8,78.8-80.3,105.9-141.1
			c4.5-9.8,15.8-14.3,25.5-9.8c9.8,3.8,14.3,15.8,9.8,25.5c-38.3,85.6-96.1,139.6-150.9,184.7C333.1,870.2,289.5,1000,209.9,1000
			C154.4,1000,133.4,929.5,164.1,862.7z M199.4,879.2c-14.3,30-12.8,60.1-4.5,73.6c3.8,6,9,9,15,9c18.8,0,56.3-21,92.3-157.7
			c4.5-18,8.3-36.8,12.8-54.8C267.7,786.8,224.9,825.1,199.4,879.2z"/>
		<path d="M483.9,581.9c-24-54.8,4.5-150.9,69.1-150.9c20.3,0,36.8,10.5,46.5,30c15,29.3,12.8,72.8,6.8,105.1
			c33.8-23.3,53.3-57.8,54.1-57.8c4.5-9,15.8-12,24-6.8c9,4.5,12,15.8,7.5,24c-2.3,3.8-36.8,63.8-98.3,87.8
			c-33.8,90.1-89.3,88.6-105.9,48C477.9,638.9,479.4,606.7,483.9,581.9z M542.5,587.1c7.5,0,15.8-0.8,22.5-3
			c15-51.8,13.5-117.1-12-117.1c-18,0-32.3,20.3-38.3,44.3c6.8-6,14.3-9,22.5-9c9.8,0,18,8.3,18,18c0,9.8-7.5,17.3-17.3,18
			c-3.8,3-11.3,16.5-16.5,38.3C526.7,583.4,533.5,587.1,542.5,587.1z M523,651.7c8.3,0,18-11.3,27-29.3c-12,0.8-22.5,0-33.8-4.5
			C516.2,638.9,520.7,649.5,523,651.7z"/>
		<path d="M736.2,673.5c-3-12-3.8-26.3-3.8-42c-15,21-30,30.8-45.8,30.8c-10.5,0-20.3-4.5-26.3-12.8c-27-36,1.5-153.1,11.3-187.7
			c3-9.8,12.8-15.8,21.8-12.8c9.8,2.3,15.8,12,12.8,21.8c-18.8,69.1-27,139.6-18,154.6c5.3-2.3,22.5-17.3,45-69.8
			c3.8-8.3,6.8-16.5,9.8-24.8c14.3-80.3,23.3-84.1,30-87.1c7.5-3,17.3-0.8,22.5,6.8c3.8,5.3,8.3,12.8-8.3,64.6c-3,8.3-6,16.5-9,25.5
			c-2.3,11.3-3.8,23.3-5.3,36c-8.3,69.1-2.3,95.3,2.3,101.3c38.3-2.3,79.6-97.6,97.6-165.2c2.3-9.8,12.8-15.8,21.8-13.5
			c9.8,3,15.8,12.8,12.8,22.5c0,1.5-12,46.5-33,92.3c-30,66.1-63.8,99.8-100.6,99.8C762.5,714,742.9,708.8,736.2,673.5z"/>
	</g>
	<g>
		<path d="M364.7,310.6V155.1h-31c-5,0-8.5-6.3-10.5-18.8c-0.9-6.1-1.3-12.4-1.3-18.8c0-6.4,0.4-12.7,1.3-18.8
			c2-12.5,5.5-18.8,10.5-18.8h146.8c4.9,0,8.3,6.3,10,18.8c1.2,6.1,1.7,12.4,1.7,18.8c0,6.4-0.6,12.7-1.7,18.8
			c-1.7,12.5-5.1,18.8-10,18.8h-29.3v155.5h30.6c4.9,0,8.4,6.3,10.5,18.8c1.2,6.1,1.7,12.4,1.7,18.8c0,6.4-0.6,12.7-1.7,18.8
			c-2,12.5-5.5,18.8-10.5,18.8H334.6c-5,0-8.3-6.3-10-18.8c-1.2-6.1-1.7-12.4-1.7-18.8c0-6.4,0.6-12.7,1.7-18.8
			c1.7-12.5,5.1-18.8,10-18.8H364.7z"/>
	</g>
</g>
</svg>
