<?xml version="1.0" encoding="utf-8"?>
<!-- Generator: Adobe Illustrator 22.0.0, SVG Export Plug-In . SVG Version: 6.00 Build 0)  -->
<svg version="1.1" id="Layer_1" xmlns="http://www.w3.org/2000/svg" xmlns:xlink="http://www.w3.org/1999/xlink" x="0px" y="0px"
	 viewBox="0 0 1080 1080" style="enable-background:new 0 0 1080 1080;" xml:space="preserve">
<style type="text/css">
	.st0{fill:#CE0100;}
	.st1{fill:#231F20;}
</style>
<g>
	<path class="st0" d="M730.7,191.5c-20.3,11.1-32.6,46.9-35.7,56.8c-2.1,6.6-5.5,7.5-8.8,7.7c-1.8,0.1-3.6-0.3-5.3-0.9
		c-27.5-9.7-90.1-7.2-75.3,23.9c15.1,31.7,61.3,63.3,77.5,74.2c10.9,6.9,34.3,20.3,46.8-4.2c21.5-37.1,30-100.9,30.2-121.3
		C760.1,207.3,751,180.4,730.7,191.5z M635.1,263c-2.1,1.3-4.5,2.8-6.5,4.7c-2,1.9-3.3,3.9-3.7,6.3c-0.4,2.4,0,5.3,0.9,8.2
		c0.9,2.9,2.1,5.5,3.1,7.9c2.1,4.7,3.3,8,2.1,9.1c-1.1,1-4.5-0.5-8.6-4.5c-2-2.1-4.3-4.7-6.1-8.4c-1.9-3.6-3.4-8.5-2.5-14.2
		c0.5-2.8,1.7-5.4,3.3-7.5c1.6-2.1,3.4-3.8,5.2-4.9c3.7-2.4,7.2-3.5,10.1-4c5.9-1,9.5,0.2,9.7,1.7
		C642.3,258.7,639.3,260.4,635.1,263z"/>
	<g>
		<path class="st1" d="M205,268.1c-20.4,0-35.6,49.5-39.8,73.7c-0.7,4.5-5.2,7.6-9.7,6.6c-4.5-0.7-7.6-4.8-6.9-9.3
			c1.7-9,16.3-87.5,56.4-87.5c75.4,0-2.4,205.5,9,287.8c0.7,4.5-2.8,8.6-7.3,9.3c-4.5,0.7-8.6-2.4-9.3-7.3
			C187.1,465.9,251.4,268.1,205,268.1z"/>
		<path class="st1" d="M465.5,277.1c-2.4,2.4-6.2,3.1-9.3,1.4c-16.9-8.6-42.5-10-61.2-10l-30.1,274.6c-0.7,4.5-4.5,8-9.3,7.6
			c-4.5-0.7-8-4.8-7.3-9.3l30.1-271.9c-41.2,3.5-64,17.6-64.3,17.6c-1.4,1-3.1,1.4-4.5,1.4c-2.8,0-5.5-1.4-6.9-3.8
			c-2.4-3.8-1.4-9,2.4-11.4c1.4-1,33.6-21.4,91.3-21.4c36.7,0,56.7,6.6,67.4,11.8C468.6,266.3,469.6,273.3,465.5,277.1z"/>
		<path class="st1" d="M399.1,449c-11.1-25.2,2.1-69.5,31.8-69.5c9.3,0,16.9,4.8,21.4,13.8c6.9,13.5,5.9,33.6,3.1,48.4
			c15.6-10.7,24.6-26.6,24.9-26.6c2.1-4.2,7.3-5.5,11.1-3.1c4.2,2.1,5.5,7.3,3.5,11.1c-1,1.7-16.9,29.4-45.3,40.5
			c-15.6,41.5-41.2,40.8-48.8,22.1C396.3,475.3,397,460.4,399.1,449z M426,451.4c3.5,0,7.3-0.3,10.4-1.4c6.9-23.9,6.2-54-5.5-54
			c-8.3,0-14.9,9.3-17.6,20.4c3.1-2.8,6.6-4.2,10.4-4.2c4.5,0,8.3,3.8,8.3,8.3s-3.5,8-8,8.3c-1.7,1.4-5.2,7.6-7.6,17.6
			C418.8,449.7,421.9,451.4,426,451.4z M417.1,481.1c3.8,0,8.3-5.2,12.5-13.5c-5.5,0.3-10.4,0-15.6-2.1
			C413.9,475.3,416,480.1,417.1,481.1z"/>
		<path class="st1" d="M473.8,492.9c0-40.5,7.3-95.1,18-139c13.8-56.4,30.8-85.1,50.5-85.1c6.2,0,11.1,2.4,14.2,7.3
			c13.1,19.7-13.1,75.1-23.9,95.8c-14.5,28.7-27,46.3-37,52.6c-1.4,10.4-2.4,20.8-3.5,31.1c-4.5,56.4,1.4,77.1,4.5,81.3
			c2.4-1.4,12.5-9.7,28-58.8c9.7-30.1,16.6-60.2,16.6-60.2c1-4.5,5.5-7.3,10-6.6c4.5,1,7.3,5.5,6.2,10c0,0.3-7.3,32.2-17.3,63.6
			c-19.7,60.5-33.6,68.5-44.3,68.5C481,553.4,473.8,534.4,473.8,492.9z M517,325.8c-6.6,19-12.5,42.9-16.9,68.8
			c14.5-21.4,34.9-60.9,41.5-90.6c3.1-13.5,1.7-18,1-18.7C541.2,285.4,530.8,286.4,517,325.8z"/>
		<path class="st1" d="M542.9,469.7c-14.2-26.3,2.1-89.9,32.9-89.9c11.4,0,19.4,7.6,21.4,19.7c2.4,15.9-5.9,37-21.8,42.2
			c-8.6,2.8-15.6,1.4-21.1-1.4c0,1.4,0,3.1,0,4.5c0,8,1.4,21.4,9.3,21.4c22.1,0,46.7-36.7,54.3-50.5c2.1-4.2,7.3-5.5,11.4-3.5
			c3.8,2.1,5.5,7.3,3.1,11.4c-3.1,5.9-32.9,59.1-68.8,59.1C554.7,482.9,547.4,478.4,542.9,469.7z M570.3,425.8
			c7.3-2.1,11.8-15.2,10.7-23.5c-1-5.9-3.8-5.9-5.2-5.9c-6.6,0-13.8,10.7-18,24.6C559.2,423.7,562.7,428.2,570.3,425.8z"/>
		<path class="st1" d="M629.8,536.5c-8.6-11.4-1.4-35.3,11.1-73c5.9-17.6,12.1-35.6,13.1-46.7c-5.5,3.5-13.1,8-22.5,10
			c-6.9,1.7-13.8-1-18.7-7.3c-15.6-19.4-14.5-78.9,15.9-78.9c5.9,0,11.1,2.8,14.5,7.6c8.6,12.5,2.8,38.7-2.8,57.1
			c6.9-3.8,12.8-8.3,18.7-8.3c9,0,11.8,8,11.8,15.6c0,12.8-6.9,33.9-14.2,56c-5.9,18.3-15.9,48.4-14.2,57.1
			c3.1-1.7,13.1-9.7,32.2-53.6c11.8-27.7,21.1-55.3,21.1-55.7c1.4-4.5,6.2-6.6,10.7-5.2c4.2,1.4,6.6,6.2,5.2,10.4
			c-0.3,1.4-10,29.4-22.5,58.5c-23.9,55-37.4,62.6-47.4,62.6C636.7,542.7,632.5,540.3,629.8,536.5z M623.2,404.7
			c1.7-4.8,3.5-11.4,5.2-18.3c4.8-21.4,2.1-28.4,1-29.1c-0.3,0.3-3.1-1.4-6.2,5.2C617.7,373.9,618.7,394.3,623.2,404.7z"/>
		<path class="st1" d="M732.8,482.9c-1.7-4.2-2.4-9.7-2.4-16.9c-8.6,11.4-15.2,13.1-19.7,13.1c-4.8,0-20.4-2.1-20.4-30.4
			c0-24.2,12.8-67.4,37-67.4c8.3,0,15.6,4.5,19.4,13.1c1.4-0.7,2.4-0.7,4.1-0.7c4.5,0,8.6,3.5,8.6,9c0,4.5-3.5,14.9-8,24.6
			c-3.5,18-6.2,41.9-3.5,49.8c8-4.2,25.6-31.8,39.1-60.9c1.7-4.2,6.6-5.9,10.7-4.2c4.5,2.1,6.2,6.9,4.1,11.1
			c-0.3,0.7-7.6,17.3-17.6,33.9c-19.4,33.2-30.4,37.4-37.7,37.4C743.5,494.3,736.3,493.2,732.8,482.9z M706.9,448.6
			c0,8.3,1.7,13.5,3.8,13.8c5.2-1.7,14.5-17.6,21.8-32.9c1-5.5,3.8-31.8-5.2-31.8C714.8,397.8,706.9,439.6,706.9,448.6z"/>
		<path class="st1" d="M876.7,352.5c0,4.5-3.8,8.3-8.3,8.3l-54.6,0.3c-9,49.8-23.9,136.3-22.5,166.7c16.3-20.8,40.5-86.5,48.4-111.4
			c1.4-4.5,6.2-6.6,10.7-5.2c4.1,1.4,6.6,6.2,5.2,10.4c-0.3,0.3-10.4,31.1-22.8,61.2c-24.2,57.8-36,65.7-45.3,65.7
			c-18.7,0-18-33.2,9.3-187.1l-39.8,0.3c-4.8,0-8.3-3.8-8.3-8.3c-0.3-4.5,3.5-8.3,8-8.3l43.2-0.3c0.7-4.2,1.4-8,2.1-12.1
			c3.5-19,6.9-37,7.3-41.2c-0.7-7.6,8.6-12.1,14.2-6.2c3.5,3.5,3.5,3.5-4.8,50.5c-0.7,2.4-1,5.5-1.7,8.6l51.5-0.3
			C872.9,344.2,876.7,347.6,876.7,352.5z"/>
		<path class="st1" d="M840.7,469.7c-14.2-26.3,2.1-89.9,32.9-89.9c11.4,0,19.4,7.6,21.4,19.7c2.4,15.9-5.9,37-21.8,42.2
			c-8.6,2.8-15.6,1.4-21.1-1.4c0,1.4,0,3.1,0,4.5c0,8,1.4,21.4,9.3,21.4c22.1,0,46.7-36.7,54.3-50.5c2.1-4.2,7.3-5.5,11.4-3.5
			c3.8,2.1,5.5,7.3,3.1,11.4c-3.1,5.9-32.9,59.1-68.8,59.1C852.5,482.9,845.2,478.4,840.7,469.7z M868.1,425.8
			c7.3-2.1,11.8-15.2,10.7-23.5c-1-5.9-3.8-5.9-5.2-5.9c-6.6,0-13.8,10.7-18,24.6C857,423.7,860.4,428.2,868.1,425.8z"/>
	</g>
	<g>
		<path class="st1" d="M391.7,885c-9-7.9-15.1-17.9-20.6-28.4c-9.1-17.4-16.6-34.8-23.9-52.4c-1.6-3.9-3.2-7.8-4.9-11.7
			c-0.3-0.7-0.5-1.2-0.6-1.8c-1.3-4.1-2.8-8.2-4.5-12.3c-9.4-22.7-25.3-43.5-44.4-64.2c-14.8-16.3-27.9-33.5-41.8-50.4
			c-7.9-9.5-15.7-19.1-22.5-28.9c-2.8-4.1-5.4-8.2-7.5-12.3c-2.8-5.8-4.7-11.5-4.5-17.1c-0.1-10.2,12.5-18.7,27.2-18.7
			c1,0.1,2,0.1,3,0.2c8.3,0.7,16.1,3.6,23.1,8.7c5,3.6,9,7.6,12.2,12c15.1,20,32.4,38.9,44.3,59.5c0.8,1.3,2.2,2.6,4.6,5.6
			c3.2-18.2,6.8-34.8,11.4-51.4c1.7-6.9,3.5-13.8,6.6-20.2c5-10,13.6-15.1,30.3-15.1c3.2,0,6.6,0.2,10.5,0.5
			c11.3,1.2,17.9,7.1,22.3,14.8c3.2,5.9,5.3,11.8,6.5,17.7c1.7,9.2,0.9,18.4-1.6,27.4c-4.5,15.3-9,30.2-12.7,45.3
			c-3.5,13.8-6.4,27.6-9.2,41.1c-3.8,17.6-0.7,36.1,4,55.2c5.8,23.2,11.7,46.3,17.7,69.5c1.8,6.7,2.5,13.1,2.5,19.2
			c-0.1,10-5.2,15.4-12.2,15.4C402.5,892.1,397.2,889.8,391.7,885z"/>
		<path class="st1" d="M529.6,898.7c-15.9-2.5-29.7-12.2-42.4-31c-6-8.9-9.7-19.1-14-29.1c-11.3-27.3-18.8-55.4-26.1-94.5
			c-3.7-24.5-7.3-59.1,1.1-92.5c3.1-12.3,7.9-24,14.4-35.3c7.1-12.8,21-20.2,38.3-24.3c4.5-1.2,9.5-2,14.4-2.6
			c8-1.1,15.1-2.8,22-6.7c4.7-2.6,11.1-3.8,17.9-3.8c11.1,0,23.6,3.1,31.7,8.9c18.8,13.3,31.4,29.1,34.7,49.3
			c4.2,26.1,5.1,52.4,1.2,79.4c-0.7,4.8-1.6,9.7-2.6,14.6c-3.1,15.9-8.3,31.5-14.4,47c-5.6,13.8-11,27.6-15.7,41.6
			c-9.3,26.9-23.3,48.8-37.7,68.3c-5.7,7.6-12,11.2-19.3,11.2C532.1,898.9,530.8,898.8,529.6,898.7z M531.5,829.2
			c3.4-5.1,5.2-11,6.8-16.9c8.3-31.5,13.9-63.7,16.3-96.6c0-0.7,0-1.3,0-2c0.3-16.1-1.3-31.7-7.3-47c-1.5-3.5-3-6.7-5.4-9.7
			c-2.5-2.8-5.7-4.3-9-4.3c-3.4,0-7,2-9.2,5.6c-5,8.5-7.7,17.9-8.8,27.3c-3.1,28.1-4.6,56.4-2.9,84.9c0.1,2,0.2,3.9,0.4,5.9
			c0.9,12,2.9,23.8,5.1,35.8c1.3,6.4,4.8,11.5,7.9,16.8c0.9,1.6,1.9,2.5,2.9,2.5C529.4,831.5,530.4,830.7,531.5,829.2z"/>
		<path class="st1" d="M637.6,859.6c-6.9-20.7-9.3-44.2-8.2-69.3c1-22.8,4-45.8,8-68.8c1.7-10,3.7-20.2,5.6-30.2
			c4-21.2,10-42.1,17.8-62.9c4.6-12.2,11.7-23.2,25.4-31.9c7.5-4.8,15-7.1,21.7-7.1c8.2,0,15.3,3.5,19.7,10.2
			c4,6.4,4.2,13.5,2.8,21.2c-0.9,4.4-2,8.9-3.3,13.3c-1.5,5.3-3.2,10.3-5.1,15.6c-5.7,15.6-11.6,31.2-16.4,46.8
			c-1.7,5.8-3.4,11.5-5.1,17.3c-5.7,19.9-9.9,39.6-10.7,59c-0.1,4.1-0.1,8,0.1,12c0,2.6,0.2,5.1,0.9,7.2c1.3,4.4,3,8.7,8.1,8.7
			c0.2,0,0.5,0,0.7,0c5.3-0.7,9.2-5.8,12.7-10.5c4.3-5.7,7.6-12,10.5-18.4c9.1-20,15.8-40.2,24.7-60.5c3.5-9.8,7.1-19.6,10.6-29.4
			c1.9-4.9,3.7-9.9,5.6-14.8c6.2-15.4,15.8-30.6,26.2-45.3c7.6-10.5,17.9-19.2,32.5-24.8c8-3.1,15.5-4.6,22.6-4.6
			c1.9,0,3.7,0.2,5.5,0.3c9.8,1,15.3,5.3,15.2,13.1c-0.2,7.2-2.4,14.5-5.8,22.2c-2.6,6.1-5.4,12.2-8.3,18.1
			c-4.5,9-9.3,18.1-14.6,26.9c-12.8,21.5-24,43.2-34.6,64.9c-4.5,9.3-8.9,18.5-13.4,27.8c-9.8,20-21.5,39.8-34.5,59.5
			c-5.9,8.9-12.6,17.1-20.4,24.5c-10.1,9.7-20.6,17.7-30.4,26.1c-4.7,4.1-9.3,6.1-14,7.1c-6.9,1.5-13.4,1.8-19.9,2.8
			c-1.9,0.3-3.6,0.5-5.3,0.5C650.6,886,643,875.5,637.6,859.6z"/>
	</g>
</g>
</svg>
