  0
SECTION
  2
HEADER
  9
$ACADVER
  1
AC1024
  9
$ACADMAINTVER
 70
     6
  9
$DWGCODEPAGE
  3
ANSI_1252
  9
$INSBASE
 10
0.0
 20
0.0
 30
0.0
  9
$EXTMIN
 10
1.000000000000000E+20
 20
1.000000000000000E+20
 30
1.000000000000000E+20
  9
$EXTMAX
 10
-1.000000000000000E+20
 20
-1.000000000000000E+20
 30
-1.000000000000000E+20
  9
$LIMMIN
 10
0.0
 20
0.0
  9
$LIMMAX
 10
12.0
 20
9.0
  9
$ORTHOMODE
 70
     0
  9
$REGENMODE
 70
     1
  9
$FILLMODE
 70
     1
  9
$QTEXTMODE
 70
     0
  9
$MIRRTEXT
 70
     1
  9
$LTSCALE
 40
1.0
  9
$ATTMODE
 70
     1
  9
$TEXTSIZE
 40
0.2
  9
$TRACEWID
 40
0.05
  9
$TEXTSTYLE
  7
Standard
  9
$CLAYER
  8
0
  9
$CELTYPE
  6
ByLayer
  9
$CECOLOR
 62
   256
  9
$CELTSCALE
 40
1.0
  9
$DISPSILH
 70
     0
  9
$DIMSCALE
 40
1.0
  9
$DIMASZ
 40
0.18
  9
$DIMEXO
 40
0.0625
  9
$DIMDLI
 40
0.38
  9
$DIMRND
 40
0.0
  9
$DIMDLE
 40
0.0
  9
$DIMEXE
 40
0.18
  9
$DIMTP
 40
0.0
  9
$DIMTM
 40
0.0
  9
$DIMTXT
 40
0.18
  9
$DIMCEN
 40
0.09
  9
$DIMTSZ
 40
0.0
  9
$DIMTOL
 70
     0
  9
$DIMLIM
 70
     0
  9
$DIMTIH
 70
     1
  9
$DIMTOH
 70
     1
  9
$DIMSE1
 70
     0
  9
$DIMSE2
 70
     0
  9
$DIMTAD
 70
     0
  9
$DIMZIN
 70
     0
  9
$DIMBLK
  1

  9
$DIMASO
 70
     1
  9
$DIMSHO
 70
     1
  9
$DIMPOST
  1

  9
$DIMAPOST
  1

  9
$DIMALT
 70
     0
  9
$DIMALTD
 70
     2
  9
$DIMALTF
 40
25.4
  9
$DIMLFAC
 40
1.0
  9
$DIMTOFL
 70
     0
  9
$DIMTVP
 40
0.0
  9
$DIMTIX
 70
     0
  9
$DIMSOXD
 70
     0
  9
$DIMSAH
 70
     0
  9
$DIMBLK1
  1

  9
$DIMBLK2
  1

  9
$DIMSTYLE
  2
Standard
  9
$DIMCLRD
 70
     0
  9
$DIMCLRE
 70
     0
  9
$DIMCLRT
 70
     0
  9
$DIMTFAC
 40
1.0
  9
$DIMGAP
 40
0.09
  9
$DIMJUST
 70
     0
  9
$DIMSD1
 70
     0
  9
$DIMSD2
 70
     0
  9
$DIMTOLJ
 70
     1
  9
$DIMTZIN
 70
     0
  9
$DIMALTZ
 70
     0
  9
$DIMALTTZ
 70
     0
  9
$DIMUPT
 70
     0
  9
$DIMDEC
 70
     4
  9
$DIMTDEC
 70
     4
  9
$DIMALTU
 70
     2
  9
$DIMALTTD
 70
     2
  9
$DIMTXSTY
  7
Standard
  9
$DIMAUNIT
 70
     0
  9
$DIMADEC
 70
     0
  9
$DIMALTRND
 40
0.0
  9
$DIMAZIN
 70
     0
  9
$DIMDSEP
 70
    46
  9
$DIMATFIT
 70
     3
  9
$DIMFRAC
 70
     0
  9
$DIMLDRBLK
  1

  9
$DIMLUNIT
 70
     2
  9
$DIMLWD
 70
    -2
  9
$DIMLWE
 70
    -2
  9
$DIMTMOVE
 70
     0
  9
$DIMFXL
 40
1.0
  9
$DIMFXLON
 70
     0
  9
$DIMJOGANG
 40
0.7853981633974483
  9
$DIMTFILL
 70
     0
  9
$DIMTFILLCLR
 70
     0
  9
$DIMARCSYM
 70
     0
  9
$DIMLTYPE
  6

  9
$DIMLTEX1
  6

  9
$DIMLTEX2
  6

  9
$DIMTXTDIRECTION
 70
     0
  9
$LUNITS
 70
     2
  9
$LUPREC
 70
     4
  9
$SKETCHINC
 40
0.1
  9
$FILLETRAD
 40
0.5
  9
$AUNITS
 70
     0
  9
$AUPREC
 70
     0
  9
$MENU
  1
.
  9
$ELEVATION
 40
0.0
  9
$PELEVATION
 40
0.0
  9
$THICKNESS
 40
0.0
  9
$LIMCHECK
 70
     0
  9
$CHAMFERA
 40
0.5
  9
$CHAMFERB
 40
0.5
  9
$CHAMFERC
 40
1.0
  9
$CHAMFERD
 40
0.0
  9
$SKPOLY
 70
     0
  9
$TDCREATE
 40
2459566.990182836
  9
$TDUCREATE
 40
2459566.740182836
  9
$TDUPDATE
 40
2459566.990182882
  9
$TDUUPDATE
 40
2459566.740182882
  9
$TDINDWG
 40
0.0000000116
  9
$TDUSRTIMER
 40
0.0000000116
  9
$USRTIMER
 70
     1
  9
$ANGBASE
 50
0.0
  9
$ANGDIR
 70
     0
  9
$PDMODE
 70
     0
  9
$PDSIZE
 40
0.0
  9
$PLINEWID
 40
0.0
  9
$SPLFRAME
 70
     0
  9
$SPLINETYPE
 70
     6
  9
$SPLINESEGS
 70
     8
  9
$HANDSEED
  5
72
  9
$SURFTAB1
 70
     6
  9
$SURFTAB2
 70
     6
  9
$SURFTYPE
 70
     6
  9
$SURFU
 70
     6
  9
$SURFV
 70
     6
  9
$UCSBASE
  2

  9
$UCSNAME
  2

  9
$UCSORG
 10
0.0
 20
0.0
 30
0.0
  9
$UCSXDIR
 10
1.0
 20
0.0
 30
0.0
  9
$UCSYDIR
 10
0.0
 20
1.0
 30
0.0
  9
$UCSORTHOREF
  2

  9
$UCSORTHOVIEW
 70
     0
  9
$UCSORGTOP
 10
0.0
 20
0.0
 30
0.0
  9
$UCSORGBOTTOM
 10
0.0
 20
0.0
 30
0.0
  9
$UCSORGLEFT
 10
0.0
 20
0.0
 30
0.0
  9
$UCSORGRIGHT
 10
0.0
 20
0.0
 30
0.0
  9
$UCSORGFRONT
 10
0.0
 20
0.0
 30
0.0
  9
$UCSORGBACK
 10
0.0
 20
0.0
 30
0.0
  9
$PUCSBASE
  2

  9
$PUCSNAME
  2

  9
$PUCSORG
 10
0.0
 20
0.0
 30
0.0
  9
$PUCSXDIR
 10
1.0
 20
0.0
 30
0.0
  9
$PUCSYDIR
 10
0.0
 20
1.0
 30
0.0
  9
$PUCSORTHOREF
  2

  9
$PUCSORTHOVIEW
 70
     0
  9
$PUCSORGTOP
 10
0.0
 20
0.0
 30
0.0
  9
$PUCSORGBOTTOM
 10
0.0
 20
0.0
 30
0.0
  9
$PUCSORGLEFT
 10
0.0
 20
0.0
 30
0.0
  9
$PUCSORGRIGHT
 10
0.0
 20
0.0
 30
0.0
  9
$PUCSORGFRONT
 10
0.0
 20
0.0
 30
0.0
  9
$PUCSORGBACK
 10
0.0
 20
0.0
 30
0.0
  9
$USERI1
 70
     0
  9
$USERI2
 70
     0
  9
$USERI3
 70
     0
  9
$USERI4
 70
     0
  9
$USERI5
 70
     0
  9
$USERR1
 40
0.0
  9
$USERR2
 40
0.0
  9
$USERR3
 40
0.0
  9
$USERR4
 40
0.0
  9
$USERR5
 40
0.0
  9
$WORLDVIEW
 70
     1
  9
$SHADEDGE
 70
     3
  9
$SHADEDIF
 70
    70
  9
$TILEMODE
 70
     1
  9
$MAXACTVP
 70
    64
  9
$PINSBASE
 10
0.0
 20
0.0
 30
0.0
  9
$PLIMCHECK
 70
     0
  9
$PEXTMIN
 10
1.000000000000000E+20
 20
1.000000000000000E+20
 30
1.000000000000000E+20
  9
$PEXTMAX
 10
-1.000000000000000E+20
 20
-1.000000000000000E+20
 30
-1.000000000000000E+20
  9
$PLIMMIN
 10
0.0
 20
0.0
  9
$PLIMMAX
 10
12.0
 20
9.0
  9
$UNITMODE
 70
     0
  9
$VISRETAIN
 70
     1
  9
$PLINEGEN
 70
     0
  9
$PSLTSCALE
 70
     1
  9
$TREEDEPTH
 70
  3020
  9
$CMLSTYLE
  2
Standard
  9
$CMLJUST
 70
     0
  9
$CMLSCALE
 40
1.0
  9
$PROXYGRAPHICS
 70
     1
  9
$MEASUREMENT
 70
     0
  9
$CELWEIGHT
370
    -1
  9
$ENDCAPS
280
     0
  9
$JOINSTYLE
280
     0
  9
$LWDISPLAY
290
     1
  9
$INSUNITS
 70
     1
  9
$HYPERLINKBASE
  1

  9
$STYLESHEET
  1

  9
$XEDIT
290
     1
  9
$CEPSNTYPE
380
     0
  9
$PSTYLEMODE
290
     1
  9
$FINGERPRINTGUID
  2
{9117CE52-8633-42A4-BE8C-81D2106B7843}
  9
$VERSIONGUID
  2
{FAEB1C32-E019-11D5-929B-00C0DF256EC4}
  9
$EXTNAMES
290
     1
  9
$PSVPSCALE
 40
0.0
  9
$OLESTARTUP
290
     0
  9
$SORTENTS
280
   127
  9
$INDEXCTL
280
     0
  9
$HIDETEXT
280
     1
  9
$XCLIPFRAME
280
     2
  9
$HALOGAP
280
     0
  9
$OBSCOLOR
 70
   257
  9
$OBSLTYPE
280
     0
  9
$INTERSECTIONDISPLAY
280
     0
  9
$INTERSECTIONCOLOR
 70
   257
  9
$DIMASSOC
280
     2
  9
$PROJECTNAME
  1

  9
$CAMERADISPLAY
290
     0
  9
$LENSLENGTH
 40
50.0
  9
$CAMERAHEIGHT
 40
0.0
  9
$STEPSPERSEC
 40
2.0
  9
$STEPSIZE
 40
6.0
  9
$3DDWFPREC
 40
2.0
  9
$PSOLWIDTH
 40
0.25
  9
$PSOLHEIGHT
 40
4.0
  9
$LOFTANG1
 40
1.570796326794897
  9
$LOFTANG2
 40
1.570796326794897
  9
$LOFTMAG1
 40
0.0
  9
$LOFTMAG2
 40
0.0
  9
$LOFTPARAM
 70
     7
  9
$LOFTNORMALS
280
     1
  9
$LATITUDE
 40
37.795
  9
$LONGITUDE
 40
-122.394
  9
$NORTHDIRECTION
 40
0.0
  9
$TIMEZONE
 70
 -8000
  9
$LIGHTGLYPHDISPLAY
280
     1
  9
$TILEMODELIGHTSYNCH
280
     1
  9
$CMATERIAL
347
3C
  9
$SOLIDHIST
280
     1
  9
$SHOWHIST
280
     1
  9
$DWFFRAME
280
     2
  9
$DGNFRAME
280
     2
  9
$REALWORLDSCALE
290
     1
  9
$INTERFERECOLOR
 62
   256
  9
$CSHADOW
280
     0
  9
$SHADOWPLANELOCATION
 40
0.0
  0
ENDSEC
  0
SECTION
  2
CLASSES
  0
CLASS
  1
ACDBDICTIONARYWDFLT
  2
AcDbDictionaryWithDefault
  3
ObjectDBX Classes
 90
        0
 91
        4
280
     0
281
     0
  0
CLASS
  1
VISUALSTYLE
  2
AcDbVisualStyle
  3
ObjectDBX Classes
 90
     4095
 91
        4
280
     0
281
     0
  0
CLASS
  1
MATERIAL
  2
AcDbMaterial
  3
ObjectDBX Classes
 90
     1153
 91
        4
280
     0
281
     0
  0
CLASS
  1
SUN
  2
AcDbSun
  3
SCENEOE
 90
     1024
 91
        4
280
     0
281
     0
  0
ENDSEC
  0
SECTION
  2
TABLES
  0
TABLE
  2
VPORT
  5
8
330
0
100
AcDbSymbolTable
 70
     1
  0
VPORT
  5
29
330
8
100
AcDbSymbolTableRecord
100
AcDbViewportTableRecord
  2
*Active
 70
     0
 10
0.0
 20
0.0
 11
1.0
 21
1.0
 12
0.0
 22
0.0
 13
0.0
 23
0.0
 14
0.5
 24
0.5
 15
0.5
 25
0.5
 16
0.0
 26
0.0
 36
1.0
 17
540.0
 27
-540.0
 37
0.0
 40
1080.0
 41
1.0
 42
50.0
 43
0.0
 44
0.0
 50
0.0
 51
0.0
 71
     0
 72
   100
 73
     1
 74
     3
 75
     0
 76
     0
 77
     0
 78
     0
281
     0
 65
     1
110
0.0
120
0.0
130
0.0
111
1.0
121
0.0
131
0.0
112
0.0
122
1.0
132
0.0
 79
     0
146
0.0
 60
     3
 61
     5
292
     1
282
     1
141
0.0
142
0.0
 63
   250
361
3F
  0
ENDTAB
  0
TABLE
  2
LTYPE
  5
5
330
0
100
AcDbSymbolTable
 70
     1
  0
LTYPE
  5
14
330
5
100
AcDbSymbolTableRecord
100
AcDbLinetypeTableRecord
  2
ByBlock
 70
     0
  3

 72
    65
 73
     0
 40
0.0
  0
LTYPE
  5
15
330
5
100
AcDbSymbolTableRecord
100
AcDbLinetypeTableRecord
  2
ByLayer
 70
     0
  3

 72
    65
 73
     0
 40
0.0
  0
LTYPE
  5
16
330
5
100
AcDbSymbolTableRecord
100
AcDbLinetypeTableRecord
  2
Continuous
 70
     0
  3
Solid line
 72
    65
 73
     0
 40
0.0
  0
ENDTAB
  0
TABLE
  2
LAYER
  5
2
330
0
100
AcDbSymbolTable
 70
     2
  0
LAYER
  5
10
330
2
100
AcDbSymbolTableRecord
100
AcDbLayerTableRecord
  2
0
 70
     0
 62
     7
  6
Continuous
370
    -3
390
F
347
3E
  0
LAYER
  5
40
330
2
100
AcDbSymbolTableRecord
100
AcDbLayerTableRecord
  2
Layer 1
 70
     0
 62
     7
  6
Continuous
370
    -3
390
F
347
3E
  0
ENDTAB
  0
TABLE
  2
STYLE
  5
3
330
0
100
AcDbSymbolTable
 70
     1
  0
STYLE
  5
11
330
3
100
AcDbSymbolTableRecord
100
AcDbTextStyleTableRecord
  2
Standard
 70
     0
 40
0.0
 41
1.0
 50
0.0
 71
     0
 42
0.2
  3
txt
  4

  0
ENDTAB
  0
TABLE
  2
VIEW
  5
6
330
0
100
AcDbSymbolTable
 70
     0
  0
ENDTAB
  0
TABLE
  2
UCS
  5
7
330
0
100
AcDbSymbolTable
 70
     0
  0
ENDTAB
  0
TABLE
  2
APPID
  5
9
330
0
100
AcDbSymbolTable
 70
     1
  0
APPID
  5
12
330
9
100
AcDbSymbolTableRecord
100
AcDbRegAppTableRecord
  2
ACAD
 70
     0
  0
ENDTAB
  0
TABLE
  2
DIMSTYLE
  5
A
330
0
100
AcDbSymbolTable
 70
     1
100
AcDbDimStyleTable
  0
DIMSTYLE
105
27
330
A
100
AcDbSymbolTableRecord
100
AcDbDimStyleTableRecord
  2
Standard
 70
     0
178
     0
340
11
  0
ENDTAB
  0
TABLE
  2
BLOCK_RECORD
  5
1
330
0
100
AcDbSymbolTable
 70
     4
  0
BLOCK_RECORD
  5
1F
330
1
100
AcDbSymbolTableRecord
100
AcDbBlockTableRecord
  2
*Model_Space
340
22
 70
     0
280
     1
281
     0
  0
BLOCK_RECORD
  5
1B
330
1
100
AcDbSymbolTableRecord
100
AcDbBlockTableRecord
  2
*Paper_Space
340
1E
 70
     0
280
     1
281
     0
  0
BLOCK_RECORD
  5
23
330
1
100
AcDbSymbolTableRecord
100
AcDbBlockTableRecord
  2
*Paper_Space0
340
26
 70
     0
280
     1
281
     0
  0
BLOCK_RECORD
  5
41
330
1
100
AcDbSymbolTableRecord
100
AcDbBlockTableRecord
  2
block 2
340
0
102
{BLKREFS
331
42
102
}
 70
     0
280
     1
281
     0
  0
BLOCK_RECORD
  5
48
330
1
100
AcDbSymbolTableRecord
100
AcDbBlockTableRecord
  2
block 3
340
0
102
{BLKREFS
331
49
102
}
 70
     0
280
     1
281
     0
  0
BLOCK_RECORD
  5
65
330
1
100
AcDbSymbolTableRecord
100
AcDbBlockTableRecord
  2
block 4
340
0
102
{BLKREFS
331
66
102
}
 70
     0
280
     1
281
     0
  0
ENDTAB
  0
ENDSEC
  0
SECTION
  2
BLOCKS
  0
BLOCK
  5
20
330
1F
100
AcDbEntity
  8
0
100
AcDbBlockBegin
  2
*Model_Space
 70
     0
 10
0.0
 20
0.0
 30
0.0
  3
*Model_Space
  1

  0
ENDBLK
  5
21
330
1F
100
AcDbEntity
  8
0
100
AcDbBlockEnd
  0
BLOCK
  5
1C
330
1B
100
AcDbEntity
 67
     1
  8
0
100
AcDbBlockBegin
  2
*Paper_Space
 70
     0
 10
0.0
 20
0.0
 30
0.0
  3
*Paper_Space
  1

  0
ENDBLK
  5
1D
330
1B
100
AcDbEntity
 67
     1
  8
0
100
AcDbBlockEnd
  0
BLOCK
  5
24
330
23
100
AcDbEntity
  8
0
100
AcDbBlockBegin
  2
*Paper_Space0
 70
     0
 10
0.0
 20
0.0
 30
0.0
  3
*Paper_Space0
  1

  0
ENDBLK
  5
25
330
23
100
AcDbEntity
  8
0
100
AcDbBlockEnd
  0
BLOCK
  5
43
330
41
100
AcDbEntity
  8
0
100
AcDbBlockBegin
  2
block 2
 70
     0
 10
0.0
 20
0.0
 30
0.0
  3
block 2
  1

  0
SPLINE
  5
45
330
41
100
AcDbEntity
  8
Layer 1
370
     0
100
AcDbSpline
210
0.0
220
0.0
230
1.0
 70
    11
 71
     3
 72
    29
 73
    25
 74
     0
 42
0.0000000001
 43
0.0000000001
 12
1.0
 22
0.0
 32
0.0
 13
1.0
 23
0.0
 33
0.0
 40
0.0
 40
0.0
 40
0.0
 40
0.0
 40
1.0
 40
1.0
 40
1.0
 40
2.0
 40
2.0
 40
2.0
 40
3.0
 40
3.0
 40
3.0
 40
4.0
 40
4.0
 40
4.0
 40
5.0
 40
5.0
 40
5.0
 40
6.0
 40
6.0
 40
6.0
 40
7.0
 40
7.0
 40
7.0
 40
8.0
 40
8.0
 40
8.0
 40
8.0
 10
730.7021674571333
 20
-191.5154514746791
 30
0.0
 10
710.4273925647904
 20
-202.5990306202075
 30
0.0
 10
698.1170006806897
 20
-238.4281563026107
 30
0.0
 10
694.9978045434073
 20
-248.3472406337023
 30
0.0
 10
692.9183404518844
 20
-254.9807361624808
 30
0.0
 10
689.528803829071
 20
-255.8748904913846
 30
0.0
 10
686.2432150267487
 20
-255.9996532600562
 30
0.0
 10
684.4340914207569
 20
-256.0827861323614
 30
0.0
 10
682.6457827629456
 20
-255.708497826341
 30
0.0
 10
680.9197920292681
 20
-255.1054989311524
 30
0.0
 10
653.4085227129581
 20
-245.4359401374059
 30
0.0
 10
590.7750744299337
 20
-247.8688775867686
 30
0.0
 10
605.5808486079404
 20
-279.0193359836558
 30
0.0
 10
620.6569632714782
 20
-310.7311633793761
 30
0.0
 10
666.9250393078546
 20
-342.3182280064193
 30
0.0
 10
683.0408860171556
 20
-353.235414486915
 30
0.0
 10
693.958072497644
 20
-360.159938528981
 30
0.0
 10
717.3520435272767
 20
-373.510189379258
 30
0.0
 10
729.82882807641
 20
-349.0348564075048
 30
0.0
 10
751.3097276795525
 20
-311.9371611697625
 30
0.0
 10
759.8146647384492
 20
-248.1808479686679
 30
0.0
 10
759.9810574034855
 20
-227.7604953594637
 30
0.0
 10
760.1474500685217
 20
-207.3401427502613
 30
0.0
 10
750.9769423494799
 20
-180.4110573809612
 30
0.0
 10
730.7021674571333
 20
-191.5154514746791
 30
0.0
  0
SPLINE
  5
46
330
41
100
AcDbEntity
  8
Layer 1
370
     0
100
AcDbSpline
210
0.0
220
0.0
230
1.0
 70
    11
 71
     3
 72
    44
 73
    40
 74
     0
 42
0.0000000001
 43
0.0000000001
 12
1.0
 22
0.0
 32
0.0
 13
1.0
 23
0.0
 33
0.0
 40
0.0
 40
0.0
 40
0.0
 40
0.0
 40
1.0
 40
1.0
 40
1.0
 40
2.0
 40
2.0
 40
2.0
 40
3.0
 40
3.0
 40
3.0
 40
4.0
 40
4.0
 40
4.0
 40
5.0
 40
5.0
 40
5.0
 40
6.0
 40
6.0
 40
6.0
 40
7.0
 40
7.0
 40
7.0
 40
8.0
 40
8.0
 40
8.0
 40
9.0
 40
9.0
 40
9.0
 40
10.0
 40
10.0
 40
10.0
 40
11.0
 40
11.0
 40
11.0
 40
12.0
 40
12.0
 40
12.0
 40
13.0
 40
13.0
 40
13.0
 40
13.0
 10
635.1092640916431
 20
-263.0074370948514
 30
0.0
 10
633.0089850519362
 20
-264.2758797297829
 30
0.0
 10
630.6175505785213
 20
-265.8354777984205
 30
0.0
 10
628.6421612279082
 20
-267.707046248961
 30
0.0
 10
626.6250150605192
 20
-269.5993027272634
 30
0.0
 10
625.3565724255895
 20
-271.6372638428347
 30
0.0
 10
624.8990243268345
 20
-274.0077564476524
 30
0.0
 10
624.5039210726281
 20
-276.420005869255
 30
0.0
 10
624.8990243268345
 20
-279.3311794451329
 30
0.0
 10
625.8348085521029
 20
-282.1800350968897
 30
0.0
 10
626.7289628810067
 20
-285.0497056968252
 30
0.0
 10
627.9767174881708
 20
-287.7114806557711
 30
0.0
 10
628.9540046893853
 20
-290.0612852328231
 30
0.0
 10
631.0334687809118
 20
-294.7400794387504
 30
0.0
 10
632.2604084398918
 20
-298.0671712170224
 30
0.0
 10
631.0542837290923
 20
-299.1277182109607
 30
0.0
 10
629.931418811022
 20
-300.1051323325973
 30
0.0
 10
626.583385164151
 20
-298.6494820844491
 30
0.0
 10
622.4452719292894
 20
-294.6153166700788
 30
0.0
 10
620.4490676304922
 20
-292.5358525785541
 30
0.0
 10
618.1823959257526
 20
-289.8740776196064
 30
0.0
 10
616.3108274752121
 20
-286.2142005112619
 30
0.0
 10
614.4602008932779
 20
-282.6167682474625
 30
0.0
 10
612.9214177728172
 20
-277.6884485041865
 30
0.0
 10
613.8570750776671
 20
-271.9907372006837
 30
0.0
 10
614.3561261523682
 20
-269.1833845248766
 30
0.0
 10
615.5830658113482
 20
-266.5425514345243
 30
0.0
 10
617.1218489318053
 20
-264.4422723948228
 30
0.0
 10
618.6814470004501
 20
-262.3211784069299
 30
0.0
 10
620.5113855546224
 20
-260.678447465978
 30
0.0
 10
622.3413241087947
 20
-259.4931377033627
 30
0.0
 10
626.0012012171428
 20
-257.0810152021786
 30
0.0
 10
629.5155006086279
 20
-256.0412831564172
 30
0.0
 10
632.4474891326936
 20
-255.5214171335356
 30
0.0
 10
638.3115931012399
 20
-254.5648179600867
 30
0.0
 10
641.9714702095844
 20
-255.6876828781624
 30
0.0
 10
642.1378628746243
 20
-257.1849630226716
 30
0.0
 10
642.3457585156102
 20
-258.7445610913146
 30
0.0
 10
639.330510198819
 20
-260.4289219286329
 30
0.0
 10
635.1092640916431
 20
-263.0074370948514
 30
0.0
  0
HATCH
  5
47
330
41
100
AcDbEntity
  8
Layer 1
 62
    12
420
 13500672
100
AcDbHatch
 10
0.0
 20
0.0
 30
0.0
210
0.0
220
0.0
230
1.0
  2
SOLID
 70
     1
 71
     0
 91
        2
 92
        1
 93
        1
 72
     4
 94
        3
 73
     0
 74
     1
 95
       29
 96
       25
 40
0.0
 40
0.0
 40
0.0
 40
0.0
 40
1.0
 40
1.0
 40
1.0
 40
2.0
 40
2.0
 40
2.0
 40
3.0
 40
3.0
 40
3.0
 40
4.0
 40
4.0
 40
4.0
 40
5.0
 40
5.0
 40
5.0
 40
6.0
 40
6.0
 40
6.0
 40
7.0
 40
7.0
 40
7.0
 40
8.0
 40
8.0
 40
8.0
 40
8.0
 10
730.7021674571333
 20
-191.5154514746791
 10
710.4273925647904
 20
-202.5990306202075
 10
698.1170006806897
 20
-238.4281563026107
 10
694.9978045434073
 20
-248.3472406337023
 10
692.9183404518844
 20
-254.9807361624808
 10
689.528803829071
 20
-255.8748904913846
 10
686.2432150267487
 20
-255.9996532600562
 10
684.4340914207569
 20
-256.0827861323614
 10
682.6457827629456
 20
-255.708497826341
 10
680.9197920292681
 20
-255.1054989311524
 10
653.4085227129581
 20
-245.4359401374059
 10
590.7750744299337
 20
-247.8688775867686
 10
605.5808486079404
 20
-279.0193359836558
 10
620.6569632714782
 20
-310.7311633793761
 10
666.9250393078546
 20
-342.3182280064193
 10
683.0408860171556
 20
-353.235414486915
 10
693.958072497644
 20
-360.159938528981
 10
717.3520435272767
 20
-373.510189379258
 10
729.82882807641
 20
-349.0348564075048
 10
751.3097276795525
 20
-311.9371611697625
 10
759.8146647384492
 20
-248.1808479686679
 10
759.9810574034855
 20
-227.7604953594637
 10
760.1474500685217
 20
-207.3401427502613
 10
750.9769423494799
 20
-180.4110573809612
 10
730.7021674571333
 20
-191.5154514746791
 97
        0
 97
        0
 92
        1
 93
        1
 72
     4
 94
        3
 73
     0
 74
     1
 95
       44
 96
       40
 40
0.0
 40
0.0
 40
0.0
 40
0.0
 40
1.0
 40
1.0
 40
1.0
 40
2.0
 40
2.0
 40
2.0
 40
3.0
 40
3.0
 40
3.0
 40
4.0
 40
4.0
 40
4.0
 40
5.0
 40
5.0
 40
5.0
 40
6.0
 40
6.0
 40
6.0
 40
7.0
 40
7.0
 40
7.0
 40
8.0
 40
8.0
 40
8.0
 40
9.0
 40
9.0
 40
9.0
 40
10.0
 40
10.0
 40
10.0
 40
11.0
 40
11.0
 40
11.0
 40
12.0
 40
12.0
 40
12.0
 40
13.0
 40
13.0
 40
13.0
 40
13.0
 10
635.1092640916431
 20
-263.0074370948514
 10
633.0089850519362
 20
-264.2758797297829
 10
630.6175505785213
 20
-265.8354777984205
 10
628.6421612279082
 20
-267.707046248961
 10
626.6250150605192
 20
-269.5993027272634
 10
625.3565724255895
 20
-271.6372638428347
 10
624.8990243268345
 20
-274.0077564476524
 10
624.5039210726281
 20
-276.420005869255
 10
624.8990243268345
 20
-279.3311794451329
 10
625.8348085521029
 20
-282.1800350968897
 10
626.7289628810067
 20
-285.0497056968252
 10
627.9767174881708
 20
-287.7114806557711
 10
628.9540046893853
 20
-290.0612852328231
 10
631.0334687809118
 20
-294.7400794387504
 10
632.2604084398918
 20
-298.0671712170224
 10
631.0542837290923
 20
-299.1277182109607
 10
629.931418811022
 20
-300.1051323325973
 10
626.583385164151
 20
-298.6494820844491
 10
622.4452719292894
 20
-294.6153166700788
 10
620.4490676304922
 20
-292.5358525785541
 10
618.1823959257526
 20
-289.8740776196064
 10
616.3108274752121
 20
-286.2142005112619
 10
614.4602008932779
 20
-282.6167682474625
 10
612.9214177728172
 20
-277.6884485041865
 10
613.8570750776671
 20
-271.9907372006837
 10
614.3561261523682
 20
-269.1833845248766
 10
615.5830658113482
 20
-266.5425514345243
 10
617.1218489318053
 20
-264.4422723948228
 10
618.6814470004501
 20
-262.3211784069299
 10
620.5113855546224
 20
-260.678447465978
 10
622.3413241087947
 20
-259.4931377033627
 10
626.0012012171428
 20
-257.0810152021786
 10
629.5155006086279
 20
-256.0412831564172
 10
632.4474891326936
 20
-255.5214171335356
 10
638.3115931012399
 20
-254.5648179600867
 10
641.9714702095844
 20
-255.6876828781624
 10
642.1378628746243
 20
-257.1849630226716
 10
642.3457585156102
 20
-258.7445610913146
 10
639.330510198819
 20
-260.4289219286329
 10
635.1092640916431
 20
-263.0074370948514
 97
        0
 97
        0
 75
     2
 76
     1
 98
        0
  0
INSERT
  5
49
330
41
100
AcDbEntity
  8
Layer 1
100
AcDbBlockReference
  2
block 3
 10
0.0
 20
0.0
 30
0.0
  0
INSERT
  5
66
330
41
100
AcDbEntity
  8
Layer 1
100
AcDbBlockReference
  2
block 4
 10
0.0
 20
0.0
 30
0.0
  0
ENDBLK
  5
44
330
41
100
AcDbEntity
  8
0
100
AcDbBlockEnd
  0
BLOCK
  5
4A
330
48
100
AcDbEntity
  8
0
100
AcDbBlockBegin
  2
block 3
 70
     0
 10
0.0
 20
0.0
 30
0.0
  3
block 3
  1

  0
SPLINE
  5
4C
330
48
100
AcDbEntity
  8
Layer 1
370
     0
100
AcDbSpline
210
0.0
220
0.0
230
1.0
 70
    11
 71
     3
 72
    29
 73
    25
 74
     0
 42
0.0000000001
 43
0.0000000001
 12
1.0
 22
0.0
 32
0.0
 13
1.0
 23
0.0
 33
0.0
 40
0.0
 40
0.0
 40
0.0
 40
0.0
 40
1.0
 40
1.0
 40
1.0
 40
2.0
 40
2.0
 40
2.0
 40
3.0
 40
3.0
 40
3.0
 40
4.0
 40
4.0
 40
4.0
 40
5.0
 40
5.0
 40
5.0
 40
6.0
 40
6.0
 40
6.0
 40
7.0
 40
7.0
 40
7.0
 40
8.0
 40
8.0
 40
8.0
 40
8.0
 10
205.0449263783485
 20
-268.0743672369554
 30
0.0
 10
184.6373908269306
 20
-268.0743672369554
 30
0.0
 10
169.4187343775129
 20
-317.5350006975568
 30
0.0
 10
165.2682918190585
 20
-341.7472003613293
 30
0.0
 10
164.5767349268554
 20
-346.2434213658853
 30
0.0
 10
160.0805139222994
 20
-349.3565285860386
 30
0.0
 10
155.5831917124997
 20
-348.3191932477384
 30
0.0
 10
151.0869707079446
 20
-347.6265351502898
 30
0.0
 10
147.9738634877931
 20
-343.4760925918345
 30
0.0
 10
148.6665215852363
 20
-338.9798715872785
 30
0.0
 10
150.3954138157424
 20
-329.9874295781647
 30
0.0
 10
164.922513372956
 20
-251.4714957978922
 30
0.0
 10
205.0449263783485
 20
-251.4714957978922
 30
0.0
 10
280.4466517332294
 20
-251.4714957978922
 30
0.0
 10
202.6233760503974
 20
-456.9255602755038
 30
0.0
 10
214.0373683874595
 20
-539.2450569628891
 30
0.0
 10
214.7289252796627
 20
-543.7423791726851
 30
0.0
 10
211.2711408186506
 20
-547.8917205259004
 30
0.0
 10
206.7738186088536
 20
-548.5832774181054
 30
0.0
 10
202.2775976042967
 20
-549.2770367207886
 30
0.0
 10
198.1271550458414
 20
-546.1628282953952
 30
0.0
 10
197.4355981536391
 20
-541.3197276394967
 30
0.0
 10
187.0589411548799
 20
-465.9180022846122
 30
0.0
 10
251.3924526188002
 20
-268.0743672369554
 30
0.0
 10
205.0449263783485
 20
-268.0743672369554
 30
0.0
  0
HATCH
  5
4D
330
48
100
AcDbEntity
  8
Layer 1
 62
   250
420
  2301728
100
AcDbHatch
 10
0.0
 20
0.0
 30
0.0
210
0.0
220
0.0
230
1.0
  2
SOLID
 70
     1
 71
     0
 91
        1
 92
        1
 93
        1
 72
     4
 94
        3
 73
     0
 74
     1
 95
       29
 96
       25
 40
0.0
 40
0.0
 40
0.0
 40
0.0
 40
1.0
 40
1.0
 40
1.0
 40
2.0
 40
2.0
 40
2.0
 40
3.0
 40
3.0
 40
3.0
 40
4.0
 40
4.0
 40
4.0
 40
5.0
 40
5.0
 40
5.0
 40
6.0
 40
6.0
 40
6.0
 40
7.0
 40
7.0
 40
7.0
 40
8.0
 40
8.0
 40
8.0
 40
8.0
 10
205.0449263783485
 20
-268.0743672369554
 10
184.6373908269306
 20
-268.0743672369554
 10
169.4187343775129
 20
-317.5350006975568
 10
165.2682918190585
 20
-341.7472003613293
 10
164.5767349268554
 20
-346.2434213658853
 10
160.0805139222994
 20
-349.3565285860386
 10
155.5831917124997
 20
-348.3191932477384
 10
151.0869707079446
 20
-347.6265351502898
 10
147.9738634877931
 20
-343.4760925918345
 10
148.6665215852363
 20
-338.9798715872785
 10
150.3954138157424
 20
-329.9874295781647
 10
164.922513372956
 20
-251.4714957978922
 10
205.0449263783485
 20
-251.4714957978922
 10
280.4466517332294
 20
-251.4714957978922
 10
202.6233760503974
 20
-456.9255602755038
 10
214.0373683874595
 20
-539.2450569628891
 10
214.7289252796627
 20
-543.7423791726851
 10
211.2711408186506
 20
-547.8917205259004
 10
206.7738186088536
 20
-548.5832774181054
 10
202.2775976042967
 20
-549.2770367207886
 10
198.1271550458414
 20
-546.1628282953952
 10
197.4355981536391
 20
-541.3197276394967
 10
187.0589411548799
 20
-465.9180022846122
 10
251.3924526188002
 20
-268.0743672369554
 10
205.0449263783485
 20
-268.0743672369554
 97
        0
 97
        0
 75
     2
 76
     1
 98
        0
  0
SPLINE
  5
4E
330
48
100
AcDbEntity
  8
Layer 1
370
     0
100
AcDbSpline
210
0.0
220
0.0
230
1.0
 70
    11
 71
     3
 72
    44
 73
    40
 74
     0
 42
0.0000000001
 43
0.0000000001
 12
1.0
 22
0.0
 32
0.0
 13
1.0
 23
0.0
 33
0.0
 40
0.0
 40
0.0
 40
0.0
 40
0.0
 40
1.0
 40
1.0
 40
1.0
 40
2.0
 40
2.0
 40
2.0
 40
3.0
 40
3.0
 40
3.0
 40
4.0
 40
4.0
 40
4.0
 40
5.0
 40
5.0
 40
5.0
 40
6.0
 40
6.0
 40
6.0
 40
7.0
 40
7.0
 40
7.0
 40
8.0
 40
8.0
 40
8.0
 40
9.0
 40
9.0
 40
9.0
 40
10.0
 40
10.0
 40
10.0
 40
11.0
 40
11.0
 40
11.0
 40
12.0
 40
12.0
 40
12.0
 40
13.0
 40
13.0
 40
13.0
 40
13.0
 10
465.48326981224
 20
-277.0668092460674
 30
0.0
 10
463.0628206895335
 20
-279.4883595740175
 30
0.0
 10
459.2581565771789
 20
-280.1799164662207
 30
0.0
 10
456.1450493570273
 20
-278.4510242357155
 30
0.0
 10
439.1963994718626
 20
-269.8032594674605
 30
0.0
 10
413.6010860236865
 20
-268.420145683056
 30
0.0
 10
394.9235439080167
 20
-268.420145683056
 30
0.0
 10
394.9235439080167
 20
-268.420145683056
 30
0.0
 10
364.8320094552837
 20
-543.0508222804874
 30
0.0
 10
364.8320094552837
 20
-543.0508222804874
 30
0.0
 10
364.1404525630824
 20
-547.5459420797979
 30
0.0
 10
360.3357884507277
 20
-551.0059289512938
 30
0.0
 10
355.4926877948274
 20
-550.6601505051913
 30
0.0
 10
350.9964667902723
 20
-549.9685936129936
 30
0.0
 10
347.5375811240183
 20
-545.8170498492927
 30
0.0
 10
348.2302392214633
 20
-541.3197276394967
 30
0.0
 10
348.2302392214633
 20
-541.3197276394967
 30
0.0
 10
378.3217736741963
 20
-269.457481021358
 30
0.0
 10
378.3217736741963
 20
-269.457481021358
 30
0.0
 10
337.16092412526
 20
-272.9163666876138
 30
0.0
 10
314.3329394511347
 20
-287.0976877987268
 30
0.0
 10
313.9871610050332
 20
-287.0976877987268
 30
0.0
 10
312.6040472206287
 20
-288.1350231370288
 30
0.0
 10
310.8740537848807
 20
-288.4808015831295
 30
0.0
 10
309.4909400004763
 20
-288.4808015831295
 30
0.0
 10
306.7236112264263
 20
-288.4808015831295
 30
0.0
 10
303.9573836576174
 20
-287.0976877987268
 30
0.0
 10
302.5731686679701
 20
-284.6761374707785
 30
0.0
 10
300.1516183400217
 20
-280.8714733584202
 30
0.0
 10
301.1900548835656
 20
-275.6836954616647
 30
0.0
 10
304.9947189959212
 20
-273.2621451337109
 30
0.0
 10
306.3778327803257
 20
-272.2248097954089
 30
0.0
 10
338.5451391149063
 20
-251.8172742439947
 30
0.0
 10
396.307758897663
 20
-251.8172742439947
 30
0.0
 10
432.9701850315587
 20
-251.8172742439947
 30
0.0
 10
453.0319421368758
 20
-258.3892671303984
 30
0.0
 10
463.7543775817348
 20
-263.5781462323976
 30
0.0
 10
468.5963770323924
 20
-266.3443738012047
 30
0.0
 10
469.6337123706962
 20
-273.2621451337109
 30
0.0
 10
465.48326981224
 20
-277.0668092460674
 30
0.0
  0
HATCH
  5
4F
330
48
100
AcDbEntity
  8
Layer 1
 62
   250
420
  2301728
100
AcDbHatch
 10
0.0
 20
0.0
 30
0.0
210
0.0
220
0.0
230
1.0
  2
SOLID
 70
     1
 71
     0
 91
        1
 92
        1
 93
        1
 72
     4
 94
        3
 73
     0
 74
     1
 95
       44
 96
       40
 40
0.0
 40
0.0
 40
0.0
 40
0.0
 40
1.0
 40
1.0
 40
1.0
 40
2.0
 40
2.0
 40
2.0
 40
3.0
 40
3.0
 40
3.0
 40
4.0
 40
4.0
 40
4.0
 40
5.0
 40
5.0
 40
5.0
 40
6.0
 40
6.0
 40
6.0
 40
7.0
 40
7.0
 40
7.0
 40
8.0
 40
8.0
 40
8.0
 40
9.0
 40
9.0
 40
9.0
 40
10.0
 40
10.0
 40
10.0
 40
11.0
 40
11.0
 40
11.0
 40
12.0
 40
12.0
 40
12.0
 40
13.0
 40
13.0
 40
13.0
 40
13.0
 10
465.48326981224
 20
-277.0668092460674
 10
463.0628206895335
 20
-279.4883595740175
 10
459.2581565771789
 20
-280.1799164662207
 10
456.1450493570273
 20
-278.4510242357155
 10
439.1963994718626
 20
-269.8032594674605
 10
413.6010860236865
 20
-268.420145683056
 10
394.9235439080167
 20
-268.420145683056
 10
394.9235439080167
 20
-268.420145683056
 10
364.8320094552837
 20
-543.0508222804874
 10
364.8320094552837
 20
-543.0508222804874
 10
364.1404525630824
 20
-547.5459420797979
 10
360.3357884507277
 20
-551.0059289512938
 10
355.4926877948274
 20
-550.6601505051913
 10
350.9964667902723
 20
-549.9685936129936
 10
347.5375811240183
 20
-545.8170498492927
 10
348.2302392214633
 20
-541.3197276394967
 10
348.2302392214633
 20
-541.3197276394967
 10
378.3217736741963
 20
-269.457481021358
 10
378.3217736741963
 20
-269.457481021358
 10
337.16092412526
 20
-272.9163666876138
 10
314.3329394511347
 20
-287.0976877987268
 10
313.9871610050332
 20
-287.0976877987268
 10
312.6040472206287
 20
-288.1350231370288
 10
310.8740537848807
 20
-288.4808015831295
 10
309.4909400004763
 20
-288.4808015831295
 10
306.7236112264263
 20
-288.4808015831295
 10
303.9573836576174
 20
-287.0976877987268
 10
302.5731686679701
 20
-284.6761374707785
 10
300.1516183400217
 20
-280.8714733584202
 10
301.1900548835656
 20
-275.6836954616647
 10
304.9947189959212
 20
-273.2621451337109
 10
306.3778327803257
 20
-272.2248097954089
 10
338.5451391149063
 20
-251.8172742439947
 10
396.307758897663
 20
-251.8172742439947
 10
432.9701850315587
 20
-251.8172742439947
 10
453.0319421368758
 20
-258.3892671303984
 10
463.7543775817348
 20
-263.5781462323976
 10
468.5963770323924
 20
-266.3443738012047
 10
469.6337123706962
 20
-273.2621451337109
 10
465.48326981224
 20
-277.0668092460674
 97
        0
 97
        0
 75
     2
 76
     1
 98
        0
  0
SPLINE
  5
50
330
48
100
AcDbEntity
  8
Layer 1
370
     0
100
AcDbSpline
210
0.0
220
0.0
230
1.0
 70
    11
 71
     3
 72
    32
 73
    28
 74
     0
 42
0.0000000001
 43
0.0000000001
 12
1.0
 22
0.0
 32
0.0
 13
1.0
 23
0.0
 33
0.0
 40
0.0
 40
0.0
 40
0.0
 40
0.0
 40
1.0
 40
1.0
 40
1.0
 40
2.0
 40
2.0
 40
2.0
 40
3.0
 40
3.0
 40
3.0
 40
4.0
 40
4.0
 40
4.0
 40
5.0
 40
5.0
 40
5.0
 40
6.0
 40
6.0
 40
6.0
 40
7.0
 40
7.0
 40
7.0
 40
8.0
 40
8.0
 40
8.0
 40
9.0
 40
9.0
 40
9.0
 40
9.0
 10
399.0695816455018
 20
-448.970453604692
 30
0.0
 10
388.0013677545403
 20
-423.7209186026175
 30
0.0
 10
401.1442523221094
 20
-379.4480630387716
 30
0.0
 10
430.8900083287399
 20
-379.4480630387716
 30
0.0
 10
440.2293299891962
 20
-379.4480630387716
 30
0.0
 10
447.8386582139046
 20
-384.2900624894301
 30
0.0
 10
452.3348792184615
 20
-393.2836057037839
 30
0.0
 10
459.2526505509668
 20
-406.7722687174537
 30
0.0
 10
458.2153152126648
 20
-426.8340258227709
 30
0.0
 10
455.447986438613
 20
-441.7069038260834
 30
0.0
 10
471.0124213341314
 20
-430.9844683812262
 30
0.0
 10
480.0059645484853
 20
-415.0742550396062
 30
0.0
 10
480.3517429945869
 20
-415.0742550396062
 30
0.0
 10
482.4264136711936
 20
-410.9238124811527
 30
0.0
 10
487.6152927731946
 20
-409.5395974915045
 30
0.0
 10
491.4199568855483
 20
-411.9611478194529
 30
0.0
 10
495.5703994440037
 20
-414.0358184960605
 30
0.0
 10
496.9535132284082
 20
-419.2246975980615
 30
0.0
 10
494.8788425518023
 20
-423.0293617104144
 30
0.0
 10
493.8404060082567
 20
-424.7582539409195
 30
0.0
 10
477.9301926666376
 20
-452.4293392709478
 30
0.0
 10
449.5675504444098
 20
-463.4975531619075
 30
0.0
 10
434.0031155488923
 20
-505.0041811569426
 30
0.0
 10
408.4078021007163
 20
-504.3104218542594
 30
0.0
 10
400.7984738760069
 20
-485.6339809438286
 30
0.0
 10
396.3022528714519
 20
-475.2562227398266
 30
0.0
 10
396.9938097636532
 20
-460.3844459417542
 30
0.0
 10
399.0695816455018
 20
-448.970453604692
 30
0.0
  0
SPLINE
  5
51
330
48
100
AcDbEntity
  8
Layer 1
370
     0
100
AcDbSpline
210
0.0
220
0.0
230
1.0
 70
    11
 71
     3
 72
    29
 73
    25
 74
     0
 42
0.0000000001
 43
0.0000000001
 12
1.0
 22
0.0
 32
0.0
 13
1.0
 23
0.0
 33
0.0
 40
0.0
 40
0.0
 40
0.0
 40
0.0
 40
1.0
 40
1.0
 40
1.0
 40
2.0
 40
2.0
 40
2.0
 40
3.0
 40
3.0
 40
3.0
 40
4.0
 40
4.0
 40
4.0
 40
5.0
 40
5.0
 40
5.0
 40
6.0
 40
6.0
 40
6.0
 40
7.0
 40
7.0
 40
7.0
 40
8.0
 40
8.0
 40
8.0
 40
8.0
 10
426.0480088780823
 20
-451.3909027274021
 30
0.0
 10
429.5068945443363
 20
-451.3909027274021
 30
0.0
 10
433.3115586566901
 20
-451.0451242812996
 30
0.0
 10
436.4246658768425
 20
-450.0077889429922
 30
0.0
 10
443.3424372093477
 20
-426.1424689305677
 30
0.0
 10
442.6508803171464
 20
-396.0509344778347
 30
0.0
 10
430.8900083287399
 20
-396.0509344778347
 30
0.0
 10
422.5891232118292
 20
-396.0509344778347
 30
0.0
 10
416.0171303254247
 20
-405.3891549330492
 30
0.0
 10
413.2509027566157
 20
-416.4573688240107
 30
0.0
 10
416.3629087715253
 20
-413.690040049958
 30
0.0
 10
419.8217944377784
 20
-412.3069262655554
 30
0.0
 10
423.6264585501331
 20
-412.3069262655554
 30
0.0
 10
428.1237807599318
 20
-412.3069262655554
 30
0.0
 10
431.9284448722856
 20
-416.1115903779082
 30
0.0
 10
431.9284448722856
 20
-420.6078113824642
 30
0.0
 10
431.9284448722856
 20
-425.104032387022
 30
0.0
 10
428.4695592060325
 20
-428.562918053276
 30
0.0
 10
423.9733382014765
 20
-428.908696499373
 30
0.0
 10
422.2433447657286
 20
-430.2929114890212
 30
0.0
 10
418.7844590994755
 20
-436.5180247240842
 30
0.0
 10
416.3629087715253
 20
-446.5489032767437
 30
0.0
 10
418.7844590994755
 20
-449.662010496897
 30
0.0
 10
421.8975663196279
 20
-451.3909027274021
 30
0.0
 10
426.0480088780823
 20
-451.3909027274021
 30
0.0
  0
SPLINE
  5
52
330
48
100
AcDbEntity
  8
Layer 1
370
     0
100
AcDbSpline
210
0.0
220
0.0
230
1.0
 70
    11
 71
     3
 72
    14
 73
    10
 74
     0
 42
0.0000000001
 43
0.0000000001
 12
1.0
 22
0.0
 32
0.0
 13
1.0
 23
0.0
 33
0.0
 40
0.0
 40
0.0
 40
0.0
 40
0.0
 40
1.0
 40
1.0
 40
1.0
 40
2.0
 40
2.0
 40
2.0
 40
3.0
 40
3.0
 40
3.0
 40
3.0
 10
417.0555668689703
 20
-481.1366587340326
 30
0.0
 10
420.8602309813241
 20
-481.1366587340326
 30
0.0
 10
425.356451985881
 20
-475.9499820425153
 30
0.0
 10
429.5068945443363
 20
-467.6479957203628
 30
0.0
 10
423.9733382014765
 20
-467.9937741664635
 30
0.0
 10
419.1302375455771
 20
-467.6479957203628
 30
0.0
 10
413.9424596488188
 20
-465.5722238385151
 30
0.0
 10
413.9424596488188
 20
-475.2562227398266
 30
0.0
 10
416.0171303254247
 20
-480.0993233957252
 30
0.0
 10
417.0555668689703
 20
-481.1366587340326
 30
0.0
  0
HATCH
  5
53
330
48
100
AcDbEntity
  8
Layer 1
 62
   250
420
  2301728
100
AcDbHatch
 10
0.0
 20
0.0
 30
0.0
210
0.0
220
0.0
230
1.0
  2
SOLID
 70
     1
 71
     0
 91
        3
 92
        1
 93
        1
 72
     4
 94
        3
 73
     0
 74
     1
 95
       32
 96
       28
 40
0.0
 40
0.0
 40
0.0
 40
0.0
 40
1.0
 40
1.0
 40
1.0
 40
2.0
 40
2.0
 40
2.0
 40
3.0
 40
3.0
 40
3.0
 40
4.0
 40
4.0
 40
4.0
 40
5.0
 40
5.0
 40
5.0
 40
6.0
 40
6.0
 40
6.0
 40
7.0
 40
7.0
 40
7.0
 40
8.0
 40
8.0
 40
8.0
 40
9.0
 40
9.0
 40
9.0
 40
9.0
 10
399.0695816455018
 20
-448.970453604692
 10
388.0013677545403
 20
-423.7209186026175
 10
401.1442523221094
 20
-379.4480630387716
 10
430.8900083287399
 20
-379.4480630387716
 10
440.2293299891962
 20
-379.4480630387716
 10
447.8386582139046
 20
-384.2900624894301
 10
452.3348792184615
 20
-393.2836057037839
 10
459.2526505509668
 20
-406.7722687174537
 10
458.2153152126648
 20
-426.8340258227709
 10
455.447986438613
 20
-441.7069038260834
 10
471.0124213341314
 20
-430.9844683812262
 10
480.0059645484853
 20
-415.0742550396062
 10
480.3517429945869
 20
-415.0742550396062
 10
482.4264136711936
 20
-410.9238124811527
 10
487.6152927731946
 20
-409.5395974915045
 10
491.4199568855483
 20
-411.9611478194529
 10
495.5703994440037
 20
-414.0358184960605
 10
496.9535132284082
 20
-419.2246975980615
 10
494.8788425518023
 20
-423.0293617104144
 10
493.8404060082567
 20
-424.7582539409195
 10
477.9301926666376
 20
-452.4293392709478
 10
449.5675504444098
 20
-463.4975531619075
 10
434.0031155488923
 20
-505.0041811569426
 10
408.4078021007163
 20
-504.3104218542594
 10
400.7984738760069
 20
-485.6339809438286
 10
396.3022528714519
 20
-475.2562227398266
 10
396.9938097636532
 20
-460.3844459417542
 10
399.0695816455018
 20
-448.970453604692
 97
        0
 97
        0
 92
        1
 93
        1
 72
     4
 94
        3
 73
     0
 74
     1
 95
       29
 96
       25
 40
0.0
 40
0.0
 40
0.0
 40
0.0
 40
1.0
 40
1.0
 40
1.0
 40
2.0
 40
2.0
 40
2.0
 40
3.0
 40
3.0
 40
3.0
 40
4.0
 40
4.0
 40
4.0
 40
5.0
 40
5.0
 40
5.0
 40
6.0
 40
6.0
 40
6.0
 40
7.0
 40
7.0
 40
7.0
 40
8.0
 40
8.0
 40
8.0
 40
8.0
 10
426.0480088780823
 20
-451.3909027274021
 10
429.5068945443363
 20
-451.3909027274021
 10
433.3115586566901
 20
-451.0451242812996
 10
436.4246658768425
 20
-450.0077889429922
 10
443.3424372093477
 20
-426.1424689305677
 10
442.6508803171464
 20
-396.0509344778347
 10
430.8900083287399
 20
-396.0509344778347
 10
422.5891232118292
 20
-396.0509344778347
 10
416.0171303254247
 20
-405.3891549330492
 10
413.2509027566157
 20
-416.4573688240107
 10
416.3629087715253
 20
-413.690040049958
 10
419.8217944377784
 20
-412.3069262655554
 10
423.6264585501331
 20
-412.3069262655554
 10
428.1237807599318
 20
-412.3069262655554
 10
431.9284448722856
 20
-416.1115903779082
 10
431.9284448722856
 20
-420.6078113824642
 10
431.9284448722856
 20
-425.104032387022
 10
428.4695592060325
 20
-428.562918053276
 10
423.9733382014765
 20
-428.908696499373
 10
422.2433447657286
 20
-430.2929114890212
 10
418.7844590994755
 20
-436.5180247240842
 10
416.3629087715253
 20
-446.5489032767437
 10
418.7844590994755
 20
-449.662010496897
 10
421.8975663196279
 20
-451.3909027274021
 10
426.0480088780823
 20
-451.3909027274021
 97
        0
 97
        0
 92
        1
 93
        1
 72
     4
 94
        3
 73
     0
 74
     1
 95
       14
 96
       10
 40
0.0
 40
0.0
 40
0.0
 40
0.0
 40
1.0
 40
1.0
 40
1.0
 40
2.0
 40
2.0
 40
2.0
 40
3.0
 40
3.0
 40
3.0
 40
3.0
 10
417.0555668689703
 20
-481.1366587340326
 10
420.8602309813241
 20
-481.1366587340326
 10
425.356451985881
 20
-475.9499820425153
 10
429.5068945443363
 20
-467.6479957203628
 10
423.9733382014765
 20
-467.9937741664635
 10
419.1302375455771
 20
-467.6479957203628
 10
413.9424596488188
 20
-465.5722238385151
 10
413.9424596488188
 20
-475.2562227398266
 10
416.0171303254247
 20
-480.0993233957252
 10
417.0555668689703
 20
-481.1366587340326
 97
        0
 97
        0
 75
     2
 76
     1
 98
        0
  0
SPLINE
  5
54
330
48
100
AcDbEntity
  8
Layer 1
370
     0
100
AcDbSpline
210
0.0
220
0.0
230
1.0
 70
    11
 71
     3
 72
    47
 73
    43
 74
     0
 42
0.0000000001
 43
0.0000000001
 12
1.0
 22
0.0
 32
0.0
 13
1.0
 23
0.0
 33
0.0
 40
0.0
 40
0.0
 40
0.0
 40
0.0
 40
1.0
 40
1.0
 40
1.0
 40
2.0
 40
2.0
 40
2.0
 40
3.0
 40
3.0
 40
3.0
 40
4.0
 40
4.0
 40
4.0
 40
5.0
 40
5.0
 40
5.0
 40
6.0
 40
6.0
 40
6.0
 40
7.0
 40
7.0
 40
7.0
 40
8.0
 40
8.0
 40
8.0
 40
9.0
 40
9.0
 40
9.0
 40
10.0
 40
10.0
 40
10.0
 40
11.0
 40
11.0
 40
11.0
 40
12.0
 40
12.0
 40
12.0
 40
13.0
 40
13.0
 40
13.0
 40
14.0
 40
14.0
 40
14.0
 40
14.0
 10
473.7720416714856
 20
-492.8975307224355
 30
0.0
 10
473.7720416714856
 20
-452.4293392709478
 30
0.0
 10
481.0355914500924
 20
-397.7798267083399
 30
0.0
 10
491.7580268949532
 20
-353.8527495905964
 30
0.0
 10
505.5935695599655
 20
-297.4743447974834
 30
0.0
 10
522.5422194451294
 20
-268.7659241291585
 30
0.0
 10
542.2559956938603
 20
-268.7659241291585
 30
0.0
 10
548.4822101341633
 20
-268.7659241291585
 30
0.0
 10
553.3253107900637
 20
-271.1874744571087
 30
0.0
 10
556.4373168049751
 20
-276.0294739077617
 30
0.0
 10
569.5813025777825
 20
-295.7443513617382
 30
0.0
 10
543.2955334426479
 20
-351.0854208165438
 30
0.0
 10
532.5719967925461
 20
-371.8387348140623
 30
0.0
 10
518.0448972353315
 20
-400.5471554823907
 30
0.0
 10
505.5935695599655
 20
-418.1873622597559
 30
0.0
 10
495.5626910073079
 20
-424.412475494817
 30
0.0
 10
494.1795772229034
 20
-434.789132493579
 30
0.0
 10
493.1422418845996
 20
-445.1657894923392
 30
0.0
 10
492.1038053410539
 20
-455.5424464910957
 30
0.0
 10
487.6075843364988
 20
-511.9197500789633
 30
0.0
 10
493.4880203307002
 20
-532.6730640764854
 30
0.0
 10
496.6000263456099
 20
-536.8246078401808
 30
0.0
 10
499.021576673561
 20
-535.4414940557763
 30
0.0
 10
509.0524552262186
 20
-527.1406089388674
 30
0.0
 10
524.616890121737
 20
-478.024652719123
 30
0.0
 10
534.301990228294
 20
-447.93311826639
 30
0.0
 10
541.2197615607984
 20
-417.8404826084134
 30
0.0
 10
541.2197615607984
 20
-417.8404826084134
 30
0.0
 10
542.2559956938603
 20
-413.3442616038574
 30
0.0
 10
546.7533179036582
 20
-410.5769328298047
 30
0.0
 10
551.2506401134597
 20
-411.2695909272497
 30
0.0
 10
555.7457599127702
 20
-412.3069262655554
 30
0.0
 10
558.5141898920665
 20
-416.8031472701132
 30
0.0
 10
557.4746521432753
 20
-421.2993682746692
 30
0.0
 10
557.4746521432753
 20
-421.6451467207662
 30
0.0
 10
550.2133047751558
 20
-453.466674609248
 30
0.0
 10
540.1813250172545
 20
-484.9424240516291
 30
0.0
 10
520.4664475632808
 20
-545.4712714031921
 30
0.0
 10
506.6309048982685
 20
-553.4263780740039
 30
0.0
 10
495.9084694534085
 20
-553.4263780740039
 30
0.0
 10
481.0355914500924
 20
-553.4263780740039
 30
0.0
 10
473.7720416714856
 20
-534.4019563069905
 30
0.0
 10
473.7720416714856
 20
-492.8975307224355
 30
0.0
  0
SPLINE
  5
55
330
48
100
AcDbEntity
  8
Layer 1
370
     0
100
AcDbSpline
210
0.0
220
0.0
230
1.0
 70
    11
 71
     3
 72
    17
 73
    13
 74
     0
 42
0.0000000001
 43
0.0000000001
 12
1.0
 22
0.0
 32
0.0
 13
1.0
 23
0.0
 33
0.0
 40
0.0
 40
0.0
 40
0.0
 40
0.0
 40
1.0
 40
1.0
 40
1.0
 40
2.0
 40
2.0
 40
2.0
 40
3.0
 40
3.0
 40
3.0
 40
4.0
 40
4.0
 40
4.0
 40
4.0
 10
517.0075618970277
 20
-325.8358858144711
 30
0.0
 10
510.4355690106231
 20
-344.8603075814826
 30
0.0
 10
504.5562342216617
 20
-368.7256275939089
 30
0.0
 10
500.058912011863
 20
-394.6667194881866
 30
0.0
 10
514.5860115690775
 20
-373.2218485984649
 30
0.0
 10
534.9935471204954
 20
-333.792093690523
 30
0.0
 10
541.564438801659
 20
-304.0463376838925
 30
0.0
 10
544.6786472270505
 20
-290.5565734649772
 30
0.0
 10
543.2955334426479
 20
-286.0603524604212
 30
0.0
 10
542.6017741399628
 20
-285.3687955682217
 30
0.0
 10
541.2197615607984
 20
-285.3687955682217
 30
0.0
 10
530.8431045620409
 20
-286.4061309065237
 30
0.0
 10
517.0075618970277
 20
-325.8358858144711
 30
0.0
  0
HATCH
  5
56
330
48
100
AcDbEntity
  8
Layer 1
 62
   250
420
  2301728
100
AcDbHatch
 10
0.0
 20
0.0
 30
0.0
210
0.0
220
0.0
230
1.0
  2
SOLID
 70
     1
 71
     0
 91
        2
 92
        1
 93
        1
 72
     4
 94
        3
 73
     0
 74
     1
 95
       47
 96
       43
 40
0.0
 40
0.0
 40
0.0
 40
0.0
 40
1.0
 40
1.0
 40
1.0
 40
2.0
 40
2.0
 40
2.0
 40
3.0
 40
3.0
 40
3.0
 40
4.0
 40
4.0
 40
4.0
 40
5.0
 40
5.0
 40
5.0
 40
6.0
 40
6.0
 40
6.0
 40
7.0
 40
7.0
 40
7.0
 40
8.0
 40
8.0
 40
8.0
 40
9.0
 40
9.0
 40
9.0
 40
10.0
 40
10.0
 40
10.0
 40
11.0
 40
11.0
 40
11.0
 40
12.0
 40
12.0
 40
12.0
 40
13.0
 40
13.0
 40
13.0
 40
14.0
 40
14.0
 40
14.0
 40
14.0
 10
473.7720416714856
 20
-492.8975307224355
 10
473.7720416714856
 20
-452.4293392709478
 10
481.0355914500924
 20
-397.7798267083399
 10
491.7580268949532
 20
-353.8527495905964
 10
505.5935695599655
 20
-297.4743447974834
 10
522.5422194451294
 20
-268.7659241291585
 10
542.2559956938603
 20
-268.7659241291585
 10
548.4822101341633
 20
-268.7659241291585
 10
553.3253107900637
 20
-271.1874744571087
 10
556.4373168049751
 20
-276.0294739077617
 10
569.5813025777825
 20
-295.7443513617382
 10
543.2955334426479
 20
-351.0854208165438
 10
532.5719967925461
 20
-371.8387348140623
 10
518.0448972353315
 20
-400.5471554823907
 10
505.5935695599655
 20
-418.1873622597559
 10
495.5626910073079
 20
-424.412475494817
 10
494.1795772229034
 20
-434.789132493579
 10
493.1422418845996
 20
-445.1657894923392
 10
492.1038053410539
 20
-455.5424464910957
 10
487.6075843364988
 20
-511.9197500789633
 10
493.4880203307002
 20
-532.6730640764854
 10
496.6000263456099
 20
-536.8246078401808
 10
499.021576673561
 20
-535.4414940557763
 10
509.0524552262186
 20
-527.1406089388674
 10
524.616890121737
 20
-478.024652719123
 10
534.301990228294
 20
-447.93311826639
 10
541.2197615607984
 20
-417.8404826084134
 10
541.2197615607984
 20
-417.8404826084134
 10
542.2559956938603
 20
-413.3442616038574
 10
546.7533179036582
 20
-410.5769328298047
 10
551.2506401134597
 20
-411.2695909272497
 10
555.7457599127702
 20
-412.3069262655554
 10
558.5141898920665
 20
-416.8031472701132
 10
557.4746521432753
 20
-421.2993682746692
 10
557.4746521432753
 20
-421.6451467207662
 10
550.2133047751558
 20
-453.466674609248
 10
540.1813250172545
 20
-484.9424240516291
 10
520.4664475632808
 20
-545.4712714031921
 10
506.6309048982685
 20
-553.4263780740039
 10
495.9084694534085
 20
-553.4263780740039
 10
481.0355914500924
 20
-553.4263780740039
 10
473.7720416714856
 20
-534.4019563069905
 10
473.7720416714856
 20
-492.8975307224355
 97
        0
 97
        0
 92
        1
 93
        1
 72
     4
 94
        3
 73
     0
 74
     1
 95
       17
 96
       13
 40
0.0
 40
0.0
 40
0.0
 40
0.0
 40
1.0
 40
1.0
 40
1.0
 40
2.0
 40
2.0
 40
2.0
 40
3.0
 40
3.0
 40
3.0
 40
4.0
 40
4.0
 40
4.0
 40
4.0
 10
517.0075618970277
 20
-325.8358858144711
 10
510.4355690106231
 20
-344.8603075814826
 10
504.5562342216617
 20
-368.7256275939089
 10
500.058912011863
 20
-394.6667194881866
 10
514.5860115690775
 20
-373.2218485984649
 10
534.9935471204954
 20
-333.792093690523
 10
541.564438801659
 20
-304.0463376838925
 10
544.6786472270505
 20
-290.5565734649772
 10
543.2955334426479
 20
-286.0603524604212
 10
542.6017741399628
 20
-285.3687955682217
 10
541.2197615607984
 20
-285.3687955682217
 10
530.8431045620409
 20
-286.4061309065237
 10
517.0075618970277
 20
-325.8358858144711
 97
        0
 97
        0
 75
     2
 76
     1
 98
        0
  0
SPLINE
  5
57
330
48
100
AcDbEntity
  8
Layer 1
370
     0
100
AcDbSpline
210
0.0
220
0.0
230
1.0
 70
    11
 71
     3
 72
    38
 73
    34
 74
     0
 42
0.0000000001
 43
0.0000000001
 12
1.0
 22
0.0
 32
0.0
 13
1.0
 23
0.0
 33
0.0
 40
0.0
 40
0.0
 40
0.0
 40
0.0
 40
1.0
 40
1.0
 40
1.0
 40
2.0
 40
2.0
 40
2.0
 40
3.0
 40
3.0
 40
3.0
 40
4.0
 40
4.0
 40
4.0
 40
5.0
 40
5.0
 40
5.0
 40
6.0
 40
6.0
 40
6.0
 40
7.0
 40
7.0
 40
7.0
 40
8.0
 40
8.0
 40
8.0
 40
9.0
 40
9.0
 40
9.0
 40
10.0
 40
10.0
 40
10.0
 40
11.0
 40
11.0
 40
11.0
 40
11.0
 10
542.9431477650942
 20
-469.7237676022087
 30
0.0
 10
528.7618266539794
 20
-443.4357960565885
 30
0.0
 10
545.0178184416982
 20
-379.7938414848741
 30
0.0
 10
575.803112197118
 20
-379.7938414848741
 30
0.0
 10
587.2160033289401
 20
-379.7938414848741
 30
0.0
 10
595.1711099997483
 20
-387.4031697095779
 30
0.0
 10
597.2457806763559
 20
-399.508718938845
 30
0.0
 10
599.6684322095462
 20
-415.4200334857087
 30
0.0
 10
591.3675470926355
 20
-436.5180247240842
 30
0.0
 10
575.4573337510155
 20
-441.7069038260834
 30
0.0
 10
566.8084677775223
 20
-444.474232600136
 30
0.0
 10
559.8906964450143
 20
-443.0900176104878
 30
0.0
 10
554.3582413073964
 20
-440.3237900416807
 30
0.0
 10
554.3582413073964
 20
-441.7069038260834
 30
0.0
 10
554.3582413073964
 20
-443.4357960565885
 30
0.0
 10
554.3582413073964
 20
-444.8200110462367
 30
0.0
 10
554.3582413073964
 20
-452.7751177170448
 30
0.0
 10
555.7413550918027
 20
-466.2648819359583
 30
0.0
 10
563.6964617626109
 20
-466.2648819359583
 30
0.0
 10
585.8328895445338
 20
-466.2648819359583
 30
0.0
 10
610.3897664491633
 20
-429.6013545968235
 30
0.0
 10
617.9990946738726
 20
-415.7658119318057
 30
0.0
 10
620.075967760964
 20
-411.6153693733522
 30
0.0
 10
625.2626444524794
 20
-410.2311543837041
 30
0.0
 10
629.4141882161784
 20
-412.3069262655554
 30
0.0
 10
633.2177511232912
 20
-414.381596942163
 30
0.0
 10
634.9488457642801
 20
-419.570476044164
 30
0.0
 10
632.5261942310863
 20
-423.7209186026175
 30
0.0
 10
629.4141882161784
 20
-429.6013545968235
 30
0.0
 10
599.6684322095462
 20
-482.8677533750215
 30
0.0
 10
563.6964617626109
 20
-482.8677533750215
 30
0.0
 10
554.7040197534989
 20
-482.8677533750215
 30
0.0
 10
547.440469974892
 20
-478.37043116522
 30
0.0
 10
542.9431477650942
 20
-469.7237676022087
 30
0.0
  0
SPLINE
  5
58
330
48
100
AcDbEntity
  8
Layer 1
370
     0
100
AcDbSpline
210
0.0
220
0.0
230
1.0
 70
    11
 71
     3
 72
    17
 73
    13
 74
     0
 42
0.0000000001
 43
0.0000000001
 12
1.0
 22
0.0
 32
0.0
 13
1.0
 23
0.0
 33
0.0
 40
0.0
 40
0.0
 40
0.0
 40
0.0
 40
1.0
 40
1.0
 40
1.0
 40
2.0
 40
2.0
 40
2.0
 40
3.0
 40
3.0
 40
3.0
 40
4.0
 40
4.0
 40
4.0
 40
4.0
 10
570.2684546490163
 20
-425.7966904844652
 30
0.0
 10
577.5320044276232
 20
-423.7209186026175
 30
0.0
 10
582.0271242269373
 20
-410.5769328298047
 30
0.0
 10
580.9897888886335
 20
-402.2760477128959
 30
0.0
 10
579.9524535503297
 20
-396.3967129239372
 30
0.0
 10
577.1862259815207
 20
-396.3967129239372
 30
0.0
 10
575.803112197118
 20
-396.3967129239372
 30
0.0
 10
569.2311193107125
 20
-396.3967129239372
 30
0.0
 10
561.9675695321057
 20
-407.1180471635562
 30
0.0
 10
557.8160257684067
 20
-420.9535898285667
 30
0.0
 10
559.199139552813
 20
-423.7209186026175
 30
0.0
 10
562.659126424307
 20
-428.2171396071753
 30
0.0
 10
570.2684546490163
 20
-425.7966904844652
 30
0.0
  0
HATCH
  5
59
330
48
100
AcDbEntity
  8
Layer 1
 62
   250
420
  2301728
100
AcDbHatch
 10
0.0
 20
0.0
 30
0.0
210
0.0
220
0.0
230
1.0
  2
SOLID
 70
     1
 71
     0
 91
        2
 92
        1
 93
        1
 72
     4
 94
        3
 73
     0
 74
     1
 95
       38
 96
       34
 40
0.0
 40
0.0
 40
0.0
 40
0.0
 40
1.0
 40
1.0
 40
1.0
 40
2.0
 40
2.0
 40
2.0
 40
3.0
 40
3.0
 40
3.0
 40
4.0
 40
4.0
 40
4.0
 40
5.0
 40
5.0
 40
5.0
 40
6.0
 40
6.0
 40
6.0
 40
7.0
 40
7.0
 40
7.0
 40
8.0
 40
8.0
 40
8.0
 40
9.0
 40
9.0
 40
9.0
 40
10.0
 40
10.0
 40
10.0
 40
11.0
 40
11.0
 40
11.0
 40
11.0
 10
542.9431477650942
 20
-469.7237676022087
 10
528.7618266539794
 20
-443.4357960565885
 10
545.0178184416982
 20
-379.7938414848741
 10
575.803112197118
 20
-379.7938414848741
 10
587.2160033289401
 20
-379.7938414848741
 10
595.1711099997483
 20
-387.4031697095779
 10
597.2457806763559
 20
-399.508718938845
 10
599.6684322095462
 20
-415.4200334857087
 10
591.3675470926355
 20
-436.5180247240842
 10
575.4573337510155
 20
-441.7069038260834
 10
566.8084677775223
 20
-444.474232600136
 10
559.8906964450143
 20
-443.0900176104878
 10
554.3582413073964
 20
-440.3237900416807
 10
554.3582413073964
 20
-441.7069038260834
 10
554.3582413073964
 20
-443.4357960565885
 10
554.3582413073964
 20
-444.8200110462367
 10
554.3582413073964
 20
-452.7751177170448
 10
555.7413550918027
 20
-466.2648819359583
 10
563.6964617626109
 20
-466.2648819359583
 10
585.8328895445338
 20
-466.2648819359583
 10
610.3897664491633
 20
-429.6013545968235
 10
617.9990946738726
 20
-415.7658119318057
 10
620.075967760964
 20
-411.6153693733522
 10
625.2626444524794
 20
-410.2311543837041
 10
629.4141882161784
 20
-412.3069262655554
 10
633.2177511232912
 20
-414.381596942163
 10
634.9488457642801
 20
-419.570476044164
 10
632.5261942310863
 20
-423.7209186026175
 10
629.4141882161784
 20
-429.6013545968235
 10
599.6684322095462
 20
-482.8677533750215
 10
563.6964617626109
 20
-482.8677533750215
 10
554.7040197534989
 20
-482.8677533750215
 10
547.440469974892
 20
-478.37043116522
 10
542.9431477650942
 20
-469.7237676022087
 97
        0
 97
        0
 92
        1
 93
        1
 72
     4
 94
        3
 73
     0
 74
     1
 95
       17
 96
       13
 40
0.0
 40
0.0
 40
0.0
 40
0.0
 40
1.0
 40
1.0
 40
1.0
 40
2.0
 40
2.0
 40
2.0
 40
3.0
 40
3.0
 40
3.0
 40
4.0
 40
4.0
 40
4.0
 40
4.0
 10
570.2684546490163
 20
-425.7966904844652
 10
577.5320044276232
 20
-423.7209186026175
 10
582.0271242269373
 20
-410.5769328298047
 10
580.9897888886335
 20
-402.2760477128959
 10
579.9524535503297
 20
-396.3967129239372
 10
577.1862259815207
 20
-396.3967129239372
 10
575.803112197118
 20
-396.3967129239372
 10
569.2311193107125
 20
-396.3967129239372
 10
561.9675695321057
 20
-407.1180471635562
 10
557.8160257684067
 20
-420.9535898285667
 10
559.199139552813
 20
-423.7209186026175
 10
562.659126424307
 20
-428.2171396071753
 10
570.2684546490163
 20
-425.7966904844652
 97
        0
 97
        0
 75
     2
 76
     1
 98
        0
  0
SPLINE
  5
5A
330
48
100
AcDbEntity
  8
Layer 1
370
     0
100
AcDbSpline
210
0.0
220
0.0
230
1.0
 70
    11
 71
     3
 72
    59
 73
    55
 74
     0
 42
0.0000000001
 43
0.0000000001
 12
1.0
 22
0.0
 32
0.0
 13
1.0
 23
0.0
 33
0.0
 40
0.0
 40
0.0
 40
0.0
 40
0.0
 40
1.0
 40
1.0
 40
1.0
 40
2.0
 40
2.0
 40
2.0
 40
3.0
 40
3.0
 40
3.0
 40
4.0
 40
4.0
 40
4.0
 40
5.0
 40
5.0
 40
5.0
 40
6.0
 40
6.0
 40
6.0
 40
7.0
 40
7.0
 40
7.0
 40
8.0
 40
8.0
 40
8.0
 40
9.0
 40
9.0
 40
9.0
 40
10.0
 40
10.0
 40
10.0
 40
11.0
 40
11.0
 40
11.0
 40
12.0
 40
12.0
 40
12.0
 40
13.0
 40
13.0
 40
13.0
 40
14.0
 40
14.0
 40
14.0
 40
15.0
 40
15.0
 40
15.0
 40
16.0
 40
16.0
 40
16.0
 40
17.0
 40
17.0
 40
17.0
 40
18.0
 40
18.0
 40
18.0
 40
18.0
 10
629.7577642517936
 20
-536.4788293940837
 30
0.0
 10
621.1088982783003
 20
-525.0637358517761
 30
0.0
 10
628.3724480569035
 20
-501.1984158393443
 30
0.0
 10
640.8248769375132
 20
-463.4975531619075
 30
0.0
 10
646.7053129317173
 20
-445.8573463845387
 30
0.0
 10
652.9315273720204
 20
-427.8713611610729
 30
0.0
 10
653.9688627103242
 20
-416.8031472701132
 30
0.0
 10
648.4342051622225
 20
-420.2620329363617
 30
0.0
 10
640.8248769375132
 20
-424.7582539409195
 30
0.0
 10
631.4866564822987
 20
-426.8340258227709
 30
0.0
 10
624.5688851497944
 20
-428.562918053276
 30
0.0
 10
617.6511138172864
 20
-425.7966904844652
 30
0.0
 10
612.8080131613897
 20
-419.570476044164
 30
0.0
 10
597.2435782658686
 20
-400.2013770362901
 30
0.0
 10
598.2809136041724
 20
-340.7087638177836
 30
0.0
 10
628.718226503006
 20
-340.7087638177836
 30
0.0
 10
634.5986624972102
 20
-340.7087638177836
 30
0.0
 10
639.7875415992094
 20
-343.4760925918345
 30
0.0
 10
643.2453260602233
 20
-348.3191932477384
 30
0.0
 10
651.8941920337165
 20
-360.7705209231008
 30
0.0
 10
646.0137560395124
 20
-387.0573912634827
 30
0.0
 10
640.4790984914143
 20
-405.3891549330492
 30
0.0
 10
647.3968698239187
 20
-401.5844908206927
 30
0.0
 10
653.2773058181228
 20
-397.0882698161349
 30
0.0
 10
659.157741812327
 20
-397.0882698161349
 30
0.0
 10
668.1501838214353
 20
-397.0882698161349
 30
0.0
 10
670.9164113902443
 20
-405.0433764869485
 30
0.0
 10
670.9164113902443
 20
-412.6527047116579
 30
0.0
 10
670.9164113902443
 20
-425.4498108331227
 30
0.0
 10
663.99864005774
 20
-446.5489032767437
 30
0.0
 10
656.7350902791331
 20
-468.685331058663
 30
0.0
 10
650.854654284929
 20
-487.0170947282313
 30
0.0
 10
640.8248769375132
 20
-517.1086291809643
 30
0.0
 10
642.5537691680183
 20
-525.755292743981
 30
0.0
 10
645.6679775934135
 20
-524.0264005134759
 30
0.0
 10
655.6977549408293
 20
-516.0712938426623
 30
0.0
 10
674.7221767078445
 20
-472.1442167249188
 30
0.0
 10
686.4808462857654
 20
-444.474232600136
 30
0.0
 10
695.8212691514636
 20
-416.8031472701132
 30
0.0
 10
695.8212691514636
 20
-416.4573688240107
 30
0.0
 10
697.2043829358663
 20
-411.9611478194529
 30
0.0
 10
702.0452811812829
 20
-409.885375937607
 30
0.0
 10
706.5426033910808
 20
-411.2695909272497
 30
0.0
 10
710.6941471547761
 20
-412.6527047116579
 30
0.0
 10
713.1145962774863
 20
-417.4947041623109
 30
0.0
 10
711.73148249308
 20
-421.6451467207662
 30
0.0
 10
711.3857040469811
 20
-423.0293617104144
 30
0.0
 10
701.6995027351804
 20
-451.0451242812996
 30
0.0
 10
689.2492762650581
 20
-480.0993233957252
 30
0.0
 10
665.3817538421463
 20
-535.0957156096756
 30
0.0
 10
651.8941920337165
 20
-542.7050438343849
 30
0.0
 10
641.862212275817
 20
-542.7050438343849
 30
0.0
 10
636.6755355843015
 20
-542.7050438343849
 30
0.0
 10
632.5239918206025
 20
-540.2823923011911
 30
0.0
 10
629.7577642517936
 20
-536.4788293940837
 30
0.0
  0
SPLINE
  5
5B
330
48
100
AcDbEntity
  8
Layer 1
370
     0
100
AcDbSpline
210
0.0
220
0.0
230
1.0
 70
    11
 71
     3
 72
    17
 73
    13
 74
     0
 42
0.0000000001
 43
0.0000000001
 12
1.0
 22
0.0
 32
0.0
 13
1.0
 23
0.0
 33
0.0
 40
0.0
 40
0.0
 40
0.0
 40
0.0
 40
1.0
 40
1.0
 40
1.0
 40
2.0
 40
2.0
 40
2.0
 40
3.0
 40
3.0
 40
3.0
 40
4.0
 40
4.0
 40
4.0
 40
4.0
 10
623.1857713653881
 20
-404.6975980408461
 30
0.0
 10
624.9146635958932
 20
-399.8555985901876
 30
0.0
 10
626.6435558263984
 20
-393.2836057037839
 30
0.0
 10
628.3724480569035
 20
-386.3658343712777
 30
0.0
 10
633.2155487128039
 20
-364.9209634815561
 30
0.0
 10
630.4493211439985
 20
-358.0031921490499
 30
0.0
 10
629.4119858056947
 20
-357.3116352568468
 30
0.0
 10
629.0662073595922
 20
-357.6574137029475
 30
0.0
 10
626.2977773802995
 20
-355.9285214724423
 30
0.0
 10
623.1857713653881
 20
-362.4994131536077
 30
0.0
 10
617.6511138172864
 20
-373.9145066959136
 30
0.0
 10
618.6884491555902
 20
-394.3209410420841
 30
0.0
 10
623.1857713653881
 20
-404.6975980408461
 30
0.0
  0
HATCH
  5
5C
330
48
100
AcDbEntity
  8
Layer 1
 62
   250
420
  2301728
100
AcDbHatch
 10
0.0
 20
0.0
 30
0.0
210
0.0
220
0.0
230
1.0
  2
SOLID
 70
     1
 71
     0
 91
        2
 92
        1
 93
        1
 72
     4
 94
        3
 73
     0
 74
     1
 95
       59
 96
       55
 40
0.0
 40
0.0
 40
0.0
 40
0.0
 40
1.0
 40
1.0
 40
1.0
 40
2.0
 40
2.0
 40
2.0
 40
3.0
 40
3.0
 40
3.0
 40
4.0
 40
4.0
 40
4.0
 40
5.0
 40
5.0
 40
5.0
 40
6.0
 40
6.0
 40
6.0
 40
7.0
 40
7.0
 40
7.0
 40
8.0
 40
8.0
 40
8.0
 40
9.0
 40
9.0
 40
9.0
 40
10.0
 40
10.0
 40
10.0
 40
11.0
 40
11.0
 40
11.0
 40
12.0
 40
12.0
 40
12.0
 40
13.0
 40
13.0
 40
13.0
 40
14.0
 40
14.0
 40
14.0
 40
15.0
 40
15.0
 40
15.0
 40
16.0
 40
16.0
 40
16.0
 40
17.0
 40
17.0
 40
17.0
 40
18.0
 40
18.0
 40
18.0
 40
18.0
 10
629.7577642517936
 20
-536.4788293940837
 10
621.1088982783003
 20
-525.0637358517761
 10
628.3724480569035
 20
-501.1984158393443
 10
640.8248769375132
 20
-463.4975531619075
 10
646.7053129317173
 20
-445.8573463845387
 10
652.9315273720204
 20
-427.8713611610729
 10
653.9688627103242
 20
-416.8031472701132
 10
648.4342051622225
 20
-420.2620329363617
 10
640.8248769375132
 20
-424.7582539409195
 10
631.4866564822987
 20
-426.8340258227709
 10
624.5688851497944
 20
-428.562918053276
 10
617.6511138172864
 20
-425.7966904844652
 10
612.8080131613897
 20
-419.570476044164
 10
597.2435782658686
 20
-400.2013770362901
 10
598.2809136041724
 20
-340.7087638177836
 10
628.718226503006
 20
-340.7087638177836
 10
634.5986624972102
 20
-340.7087638177836
 10
639.7875415992094
 20
-343.4760925918345
 10
643.2453260602233
 20
-348.3191932477384
 10
651.8941920337165
 20
-360.7705209231008
 10
646.0137560395124
 20
-387.0573912634827
 10
640.4790984914143
 20
-405.3891549330492
 10
647.3968698239187
 20
-401.5844908206927
 10
653.2773058181228
 20
-397.0882698161349
 10
659.157741812327
 20
-397.0882698161349
 10
668.1501838214353
 20
-397.0882698161349
 10
670.9164113902443
 20
-405.0433764869485
 10
670.9164113902443
 20
-412.6527047116579
 10
670.9164113902443
 20
-425.4498108331227
 10
663.99864005774
 20
-446.5489032767437
 10
656.7350902791331
 20
-468.685331058663
 10
650.854654284929
 20
-487.0170947282313
 10
640.8248769375132
 20
-517.1086291809643
 10
642.5537691680183
 20
-525.755292743981
 10
645.6679775934135
 20
-524.0264005134759
 10
655.6977549408293
 20
-516.0712938426623
 10
674.7221767078445
 20
-472.1442167249188
 10
686.4808462857654
 20
-444.474232600136
 10
695.8212691514636
 20
-416.8031472701132
 10
695.8212691514636
 20
-416.4573688240107
 10
697.2043829358663
 20
-411.9611478194529
 10
702.0452811812829
 20
-409.885375937607
 10
706.5426033910808
 20
-411.2695909272497
 10
710.6941471547761
 20
-412.6527047116579
 10
713.1145962774863
 20
-417.4947041623109
 10
711.73148249308
 20
-421.6451467207662
 10
711.3857040469811
 20
-423.0293617104144
 10
701.6995027351804
 20
-451.0451242812996
 10
689.2492762650581
 20
-480.0993233957252
 10
665.3817538421463
 20
-535.0957156096756
 10
651.8941920337165
 20
-542.7050438343849
 10
641.862212275817
 20
-542.7050438343849
 10
636.6755355843015
 20
-542.7050438343849
 10
632.5239918206025
 20
-540.2823923011911
 10
629.7577642517936
 20
-536.4788293940837
 97
        0
 97
        0
 92
        1
 93
        1
 72
     4
 94
        3
 73
     0
 74
     1
 95
       17
 96
       13
 40
0.0
 40
0.0
 40
0.0
 40
0.0
 40
1.0
 40
1.0
 40
1.0
 40
2.0
 40
2.0
 40
2.0
 40
3.0
 40
3.0
 40
3.0
 40
4.0
 40
4.0
 40
4.0
 40
4.0
 10
623.1857713653881
 20
-404.6975980408461
 10
624.9146635958932
 20
-399.8555985901876
 10
626.6435558263984
 20
-393.2836057037839
 10
628.3724480569035
 20
-386.3658343712777
 10
633.2155487128039
 20
-364.9209634815561
 10
630.4493211439985
 20
-358.0031921490499
 10
629.4119858056947
 20
-357.3116352568468
 10
629.0662073595922
 20
-357.6574137029475
 10
626.2977773802995
 20
-355.9285214724423
 10
623.1857713653881
 20
-362.4994131536077
 10
617.6511138172864
 20
-373.9145066959136
 10
618.6884491555902
 20
-394.3209410420841
 10
623.1857713653881
 20
-404.6975980408461
 97
        0
 97
        0
 75
     2
 76
     1
 98
        0
  0
SPLINE
  5
5D
330
48
100
AcDbEntity
  8
Layer 1
370
     0
100
AcDbSpline
210
0.0
220
0.0
230
1.0
 70
    11
 71
     3
 72
    50
 73
    46
 74
     0
 42
0.0000000001
 43
0.0000000001
 12
1.0
 22
0.0
 32
0.0
 13
1.0
 23
0.0
 33
0.0
 40
0.0
 40
0.0
 40
0.0
 40
0.0
 40
1.0
 40
1.0
 40
1.0
 40
2.0
 40
2.0
 40
2.0
 40
3.0
 40
3.0
 40
3.0
 40
4.0
 40
4.0
 40
4.0
 40
5.0
 40
5.0
 40
5.0
 40
6.0
 40
6.0
 40
6.0
 40
7.0
 40
7.0
 40
7.0
 40
8.0
 40
8.0
 40
8.0
 40
9.0
 40
9.0
 40
9.0
 40
10.0
 40
10.0
 40
10.0
 40
11.0
 40
11.0
 40
11.0
 40
12.0
 40
12.0
 40
12.0
 40
13.0
 40
13.0
 40
13.0
 40
14.0
 40
14.0
 40
14.0
 40
15.0
 40
15.0
 40
15.0
 40
15.0
 10
732.8261701157317
 20
-482.8677533750215
 30
0.0
 10
731.0972778852265
 20
-478.7162096113225
 30
0.0
 10
730.4057209930252
 20
-473.181552063219
 30
0.0
 10
730.4057209930252
 20
-465.9180022846122
 30
0.0
 10
721.759057430012
 20
-477.3330958269198
 30
0.0
 10
715.1870645436065
 20
-479.061988057425
 30
0.0
 10
710.6897423338087
 20
-479.061988057425
 30
0.0
 10
705.8466416779083
 20
-479.061988057425
 30
0.0
 10
690.2822067823909
 20
-476.9873173808173
 30
0.0
 10
690.2822067823909
 20
-448.6246751585895
 30
0.0
 10
690.2822067823909
 20
-424.412475494817
 30
0.0
 10
703.0804141090994
 20
-381.1769552692767
 30
0.0
 10
727.29151256763
 20
-381.1769552692767
 30
0.0
 10
735.5923976845406
 20
-381.1769552692767
 30
0.0
 10
742.8559474631475
 20
-385.6742774790728
 30
0.0
 10
746.661712780744
 20
-394.3209410420841
 30
0.0
 10
748.0448265651466
 20
-393.6293841498864
 30
0.0
 10
749.0821619034505
 20
-393.6293841498864
 30
0.0
 10
750.8110541339556
 20
-393.6293841498864
 30
0.0
 10
755.3083763437571
 20
-393.6293841498864
 30
0.0
 10
759.4599201074525
 20
-397.0882698161349
 30
0.0
 10
759.4599201074525
 20
-402.6218261589984
 30
0.0
 10
759.4599201074525
 20
-407.1180471635562
 30
0.0
 10
755.9999332359585
 20
-417.4947041623109
 30
0.0
 10
751.5048134366443
 20
-427.1798042688679
 30
0.0
 10
748.0448265651466
 20
-445.1657894923392
 30
0.0
 10
745.2785989963413
 20
-469.032210710011
 30
0.0
 10
748.0448265651466
 20
-476.9873173808173
 30
0.0
 10
755.9999332359585
 20
-472.8357736171238
 30
0.0
 10
773.6412412185673
 20
-445.1657894923392
 30
0.0
 10
787.1288030269934
 20
-416.1115903779082
 30
0.0
 10
788.8598976679823
 20
-411.9611478194529
 30
0.0
 10
793.7007959133989
 20
-410.2311543837041
 30
0.0
 10
797.8523396770979
 20
-411.9611478194529
 30
0.0
 10
802.3474594764084
 20
-414.0358184960605
 30
0.0
 10
804.0785541174009
 20
-418.8789191519591
 30
0.0
 10
802.0016810303096
 20
-423.0293617104144
 30
0.0
 10
801.6559025842071
 20
-423.7209186026175
 30
0.0
 10
794.3923528056002
 20
-440.3237900416807
 30
0.0
 10
784.3625754581844
 20
-456.9255602755038
 30
0.0
 10
764.9923752450704
 20
-490.1291007431446
 30
0.0
 10
753.9252625593508
 20
-494.28064450684
 30
0.0
 10
746.661712780744
 20
-494.28064450684
 30
0.0
 10
743.5475043553488
 20
-494.28064450684
 30
0.0
 10
736.283954576742
 20
-493.243309168538
 30
0.0
 10
732.8261701157317
 20
-482.8677533750215
 30
0.0
  0
SPLINE
  5
5E
330
48
100
AcDbEntity
  8
Layer 1
370
     0
100
AcDbSpline
210
0.0
220
0.0
230
1.0
 70
    11
 71
     3
 72
    17
 73
    13
 74
     0
 42
0.0000000001
 43
0.0000000001
 12
1.0
 22
0.0
 32
0.0
 13
1.0
 23
0.0
 33
0.0
 40
0.0
 40
0.0
 40
0.0
 40
0.0
 40
1.0
 40
1.0
 40
1.0
 40
2.0
 40
2.0
 40
2.0
 40
3.0
 40
3.0
 40
3.0
 40
4.0
 40
4.0
 40
4.0
 40
4.0
 10
706.8861794266959
 20
-448.6246751585895
 30
0.0
 10
706.8861794266959
 20
-456.9255602755038
 30
0.0
 10
708.615071657201
 20
-462.1133381722593
 30
0.0
 10
710.6897423338087
 20
-462.4602178236019
 30
0.0
 10
715.8786214358079
 20
-460.7302243878567
 30
0.0
 10
725.2168418910223
 20
-444.8200110462367
 30
0.0
 10
732.4803916696328
 20
-429.6013545968235
 30
0.0
 10
733.517727007933
 20
-424.06669704872
 30
0.0
 10
736.283954576742
 20
-397.7798267083399
 30
0.0
 10
727.29151256763
 20
-397.7798267083399
 30
0.0
 10
714.8412860975077
 20
-397.7798267083399
 30
0.0
 10
706.8861794266959
 20
-439.6311319442375
 30
0.0
 10
706.8861794266959
 20
-448.6246751585895
 30
0.0
  0
HATCH
  5
5F
330
48
100
AcDbEntity
  8
Layer 1
 62
   250
420
  2301728
100
AcDbHatch
 10
0.0
 20
0.0
 30
0.0
210
0.0
220
0.0
230
1.0
  2
SOLID
 70
     1
 71
     0
 91
        2
 92
        1
 93
        1
 72
     4
 94
        3
 73
     0
 74
     1
 95
       50
 96
       46
 40
0.0
 40
0.0
 40
0.0
 40
0.0
 40
1.0
 40
1.0
 40
1.0
 40
2.0
 40
2.0
 40
2.0
 40
3.0
 40
3.0
 40
3.0
 40
4.0
 40
4.0
 40
4.0
 40
5.0
 40
5.0
 40
5.0
 40
6.0
 40
6.0
 40
6.0
 40
7.0
 40
7.0
 40
7.0
 40
8.0
 40
8.0
 40
8.0
 40
9.0
 40
9.0
 40
9.0
 40
10.0
 40
10.0
 40
10.0
 40
11.0
 40
11.0
 40
11.0
 40
12.0
 40
12.0
 40
12.0
 40
13.0
 40
13.0
 40
13.0
 40
14.0
 40
14.0
 40
14.0
 40
15.0
 40
15.0
 40
15.0
 40
15.0
 10
732.8261701157317
 20
-482.8677533750215
 10
731.0972778852265
 20
-478.7162096113225
 10
730.4057209930252
 20
-473.181552063219
 10
730.4057209930252
 20
-465.9180022846122
 10
721.759057430012
 20
-477.3330958269198
 10
715.1870645436065
 20
-479.061988057425
 10
710.6897423338087
 20
-479.061988057425
 10
705.8466416779083
 20
-479.061988057425
 10
690.2822067823909
 20
-476.9873173808173
 10
690.2822067823909
 20
-448.6246751585895
 10
690.2822067823909
 20
-424.412475494817
 10
703.0804141090994
 20
-381.1769552692767
 10
727.29151256763
 20
-381.1769552692767
 10
735.5923976845406
 20
-381.1769552692767
 10
742.8559474631475
 20
-385.6742774790728
 10
746.661712780744
 20
-394.3209410420841
 10
748.0448265651466
 20
-393.6293841498864
 10
749.0821619034505
 20
-393.6293841498864
 10
750.8110541339556
 20
-393.6293841498864
 10
755.3083763437571
 20
-393.6293841498864
 10
759.4599201074525
 20
-397.0882698161349
 10
759.4599201074525
 20
-402.6218261589984
 10
759.4599201074525
 20
-407.1180471635562
 10
755.9999332359585
 20
-417.4947041623109
 10
751.5048134366443
 20
-427.1798042688679
 10
748.0448265651466
 20
-445.1657894923392
 10
745.2785989963413
 20
-469.032210710011
 10
748.0448265651466
 20
-476.9873173808173
 10
755.9999332359585
 20
-472.8357736171238
 10
773.6412412185673
 20
-445.1657894923392
 10
787.1288030269934
 20
-416.1115903779082
 10
788.8598976679823
 20
-411.9611478194529
 10
793.7007959133989
 20
-410.2311543837041
 10
797.8523396770979
 20
-411.9611478194529
 10
802.3474594764084
 20
-414.0358184960605
 10
804.0785541174009
 20
-418.8789191519591
 10
802.0016810303096
 20
-423.0293617104144
 10
801.6559025842071
 20
-423.7209186026175
 10
794.3923528056002
 20
-440.3237900416807
 10
784.3625754581844
 20
-456.9255602755038
 10
764.9923752450704
 20
-490.1291007431446
 10
753.9252625593508
 20
-494.28064450684
 10
746.661712780744
 20
-494.28064450684
 10
743.5475043553488
 20
-494.28064450684
 10
736.283954576742
 20
-493.243309168538
 10
732.8261701157317
 20
-482.8677533750215
 97
        0
 97
        0
 92
        1
 93
        1
 72
     4
 94
        3
 73
     0
 74
     1
 95
       17
 96
       13
 40
0.0
 40
0.0
 40
0.0
 40
0.0
 40
1.0
 40
1.0
 40
1.0
 40
2.0
 40
2.0
 40
2.0
 40
3.0
 40
3.0
 40
3.0
 40
4.0
 40
4.0
 40
4.0
 40
4.0
 10
706.8861794266959
 20
-448.6246751585895
 10
706.8861794266959
 20
-456.9255602755038
 10
708.615071657201
 20
-462.1133381722593
 10
710.6897423338087
 20
-462.4602178236019
 10
715.8786214358079
 20
-460.7302243878567
 10
725.2168418910223
 20
-444.8200110462367
 10
732.4803916696328
 20
-429.6013545968235
 10
733.517727007933
 20
-424.06669704872
 10
736.283954576742
 20
-397.7798267083399
 10
727.29151256763
 20
-397.7798267083399
 10
714.8412860975077
 20
-397.7798267083399
 10
706.8861794266959
 20
-439.6311319442375
 10
706.8861794266959
 20
-448.6246751585895
 97
        0
 97
        0
 75
     2
 76
     1
 98
        0
  0
SPLINE
  5
60
330
48
100
AcDbEntity
  8
Layer 1
370
     0
100
AcDbSpline
210
0.0
220
0.0
230
1.0
 70
    11
 71
     3
 72
    65
 73
    61
 74
     0
 42
0.0000000001
 43
0.0000000001
 12
1.0
 22
0.0
 32
0.0
 13
1.0
 23
0.0
 33
0.0
 40
0.0
 40
0.0
 40
0.0
 40
0.0
 40
1.0
 40
1.0
 40
1.0
 40
2.0
 40
2.0
 40
2.0
 40
3.0
 40
3.0
 40
3.0
 40
4.0
 40
4.0
 40
4.0
 40
5.0
 40
5.0
 40
5.0
 40
6.0
 40
6.0
 40
6.0
 40
7.0
 40
7.0
 40
7.0
 40
8.0
 40
8.0
 40
8.0
 40
9.0
 40
9.0
 40
9.0
 40
10.0
 40
10.0
 40
10.0
 40
11.0
 40
11.0
 40
11.0
 40
12.0
 40
12.0
 40
12.0
 40
13.0
 40
13.0
 40
13.0
 40
14.0
 40
14.0
 40
14.0
 40
15.0
 40
15.0
 40
15.0
 40
16.0
 40
16.0
 40
16.0
 40
17.0
 40
17.0
 40
17.0
 40
18.0
 40
18.0
 40
18.0
 40
19.0
 40
19.0
 40
19.0
 40
20.0
 40
20.0
 40
20.0
 40
20.0
 10
876.707444672018
 20
-352.4696358061919
 30
0.0
 10
876.707444672018
 20
-356.9658568107498
 30
0.0
 10
872.9038817649052
 20
-360.7705209231008
 30
0.0
 10
868.4065595551074
 20
-360.7705209231008
 30
0.0
 10
868.4065595551074
 20
-360.7705209231008
 30
0.0
 10
813.7581481977468
 20
-361.1162993692033
 30
0.0
 10
813.7581481977468
 20
-361.1162993692033
 30
0.0
 10
804.7635037781474
 20
-410.9238124811527
 30
0.0
 10
789.8906257748313
 20
-497.3926505217532
 30
0.0
 10
791.2759419697213
 20
-527.832165831067
 30
0.0
 10
807.5319337574401
 20
-507.0788518335503
 30
0.0
 10
831.7430322159707
 20
-441.3611253799827
 30
0.0
 10
839.6981388867789
 20
-416.4573688240107
 30
0.0
 10
841.0812526711852
 20
-411.9611478194529
 30
0.0
 10
845.9243533270856
 20
-409.885375937607
 30
0.0
 10
850.4216755368834
 20
-411.2695909272497
 30
0.0
 10
854.571016890095
 20
-412.6527047116579
 30
0.0
 10
856.9914660128015
 20
-417.4947041623109
 30
0.0
 10
855.6083522283989
 20
-421.6451467207662
 30
0.0
 10
855.2625737822964
 20
-421.9920263721124
 30
0.0
 10
845.2327964348806
 20
-452.7751177170448
 30
0.0
 10
832.7803675542746
 20
-482.8677533750215
 30
0.0
 10
808.569269095744
 20
-540.6281707472936
 30
0.0
 10
796.8083971073393
 20
-548.5832774181054
 30
0.0
 10
787.4701766521248
 20
-548.5832774181054
 30
0.0
 10
768.7937357416959
 20
-548.5832774181054
 30
0.0
 10
769.4852926339008
 20
-515.3797369504591
 30
0.0
 10
796.8083971073393
 20
-361.4620778153057
 30
0.0
 10
796.8083971073393
 20
-361.4620778153057
 30
0.0
 10
757.0328637532912
 20
-361.8078562614028
 30
0.0
 10
757.0328637532912
 20
-361.8078562614028
 30
0.0
 10
752.1897630973908
 20
-361.8078562614028
 30
0.0
 10
748.7319786363805
 20
-358.0031921490499
 30
0.0
 10
748.7319786363805
 20
-353.5069711444939
 30
0.0
 10
748.386200190278
 20
-349.010750139938
 30
0.0
 10
752.1897630973908
 20
-345.2060860275851
 30
0.0
 10
756.6870853071887
 20
-345.2060860275851
 30
0.0
 10
756.6870853071887
 20
-345.2060860275851
 30
0.0
 10
799.9226055327345
 20
-344.8603075814826
 30
0.0
 10
799.9226055327345
 20
-344.8603075814826
 30
0.0
 10
800.6141624249358
 20
-340.7087638177836
 30
0.0
 10
801.3057193171371
 20
-336.9040997054308
 30
0.0
 10
801.9972762093385
 20
-332.7536571469773
 30
0.0
 10
805.4550606703488
 20
-313.730336585204
 30
0.0
 10
808.9150475418464
 20
-295.7443513617382
 30
0.0
 10
809.2608259879453
 20
-291.5939088032828
 30
0.0
 10
808.569269095744
 20
-283.9845805785735
 30
0.0
 10
817.9074895509584
 20
-279.4883595740175
 30
0.0
 10
823.4421470990601
 20
-285.3687955682217
 30
0.0
 10
826.8999315600704
 20
-288.826580029232
 30
0.0
 10
826.8999315600704
 20
-288.826580029232
 30
0.0
 10
818.5990464431598
 20
-335.8667643671306
 30
0.0
 10
817.9074895509584
 20
-338.288314695079
 30
0.0
 10
817.5617111048596
 20
-341.4014219152268
 30
0.0
 10
816.8701542126546
 20
-344.5145291353801
 30
0.0
 10
816.8701542126546
 20
-344.5145291353801
 30
0.0
 10
868.4065595551074
 20
-344.1676494840394
 30
0.0
 10
868.4065595551074
 20
-344.1676494840394
 30
0.0
 10
872.9038817649052
 20
-344.1676494840394
 30
0.0
 10
876.707444672018
 20
-347.6265351502898
 30
0.0
 10
876.707444672018
 20
-352.4696358061919
 30
0.0
  0
HATCH
  5
61
330
48
100
AcDbEntity
  8
Layer 1
 62
   250
420
  2301728
100
AcDbHatch
 10
0.0
 20
0.0
 30
0.0
210
0.0
220
0.0
230
1.0
  2
SOLID
 70
     1
 71
     0
 91
        1
 92
        1
 93
        1
 72
     4
 94
        3
 73
     0
 74
     1
 95
       65
 96
       61
 40
0.0
 40
0.0
 40
0.0
 40
0.0
 40
1.0
 40
1.0
 40
1.0
 40
2.0
 40
2.0
 40
2.0
 40
3.0
 40
3.0
 40
3.0
 40
4.0
 40
4.0
 40
4.0
 40
5.0
 40
5.0
 40
5.0
 40
6.0
 40
6.0
 40
6.0
 40
7.0
 40
7.0
 40
7.0
 40
8.0
 40
8.0
 40
8.0
 40
9.0
 40
9.0
 40
9.0
 40
10.0
 40
10.0
 40
10.0
 40
11.0
 40
11.0
 40
11.0
 40
12.0
 40
12.0
 40
12.0
 40
13.0
 40
13.0
 40
13.0
 40
14.0
 40
14.0
 40
14.0
 40
15.0
 40
15.0
 40
15.0
 40
16.0
 40
16.0
 40
16.0
 40
17.0
 40
17.0
 40
17.0
 40
18.0
 40
18.0
 40
18.0
 40
19.0
 40
19.0
 40
19.0
 40
20.0
 40
20.0
 40
20.0
 40
20.0
 10
876.707444672018
 20
-352.4696358061919
 10
876.707444672018
 20
-356.9658568107498
 10
872.9038817649052
 20
-360.7705209231008
 10
868.4065595551074
 20
-360.7705209231008
 10
868.4065595551074
 20
-360.7705209231008
 10
813.7581481977468
 20
-361.1162993692033
 10
813.7581481977468
 20
-361.1162993692033
 10
804.7635037781474
 20
-410.9238124811527
 10
789.8906257748313
 20
-497.3926505217532
 10
791.2759419697213
 20
-527.832165831067
 10
807.5319337574401
 20
-507.0788518335503
 10
831.7430322159707
 20
-441.3611253799827
 10
839.6981388867789
 20
-416.4573688240107
 10
841.0812526711852
 20
-411.9611478194529
 10
845.9243533270856
 20
-409.885375937607
 10
850.4216755368834
 20
-411.2695909272497
 10
854.571016890095
 20
-412.6527047116579
 10
856.9914660128015
 20
-417.4947041623109
 10
855.6083522283989
 20
-421.6451467207662
 10
855.2625737822964
 20
-421.9920263721124
 10
845.2327964348806
 20
-452.7751177170448
 10
832.7803675542746
 20
-482.8677533750215
 10
808.569269095744
 20
-540.6281707472936
 10
796.8083971073393
 20
-548.5832774181054
 10
787.4701766521248
 20
-548.5832774181054
 10
768.7937357416959
 20
-548.5832774181054
 10
769.4852926339008
 20
-515.3797369504591
 10
796.8083971073393
 20
-361.4620778153057
 10
796.8083971073393
 20
-361.4620778153057
 10
757.0328637532912
 20
-361.8078562614028
 10
757.0328637532912
 20
-361.8078562614028
 10
752.1897630973908
 20
-361.8078562614028
 10
748.7319786363805
 20
-358.0031921490499
 10
748.7319786363805
 20
-353.5069711444939
 10
748.386200190278
 20
-349.010750139938
 10
752.1897630973908
 20
-345.2060860275851
 10
756.6870853071887
 20
-345.2060860275851
 10
756.6870853071887
 20
-345.2060860275851
 10
799.9226055327345
 20
-344.8603075814826
 10
799.9226055327345
 20
-344.8603075814826
 10
800.6141624249358
 20
-340.7087638177836
 10
801.3057193171371
 20
-336.9040997054308
 10
801.9972762093385
 20
-332.7536571469773
 10
805.4550606703488
 20
-313.730336585204
 10
808.9150475418464
 20
-295.7443513617382
 10
809.2608259879453
 20
-291.5939088032828
 10
808.569269095744
 20
-283.9845805785735
 10
817.9074895509584
 20
-279.4883595740175
 10
823.4421470990601
 20
-285.3687955682217
 10
826.8999315600704
 20
-288.826580029232
 10
826.8999315600704
 20
-288.826580029232
 10
818.5990464431598
 20
-335.8667643671306
 10
817.9074895509584
 20
-338.288314695079
 10
817.5617111048596
 20
-341.4014219152268
 10
816.8701542126546
 20
-344.5145291353801
 10
816.8701542126546
 20
-344.5145291353801
 10
868.4065595551074
 20
-344.1676494840394
 10
868.4065595551074
 20
-344.1676494840394
 10
872.9038817649052
 20
-344.1676494840394
 10
876.707444672018
 20
-347.6265351502898
 10
876.707444672018
 20
-352.4696358061919
 97
        0
 97
        0
 75
     2
 76
     1
 98
        0
  0
SPLINE
  5
62
330
48
100
AcDbEntity
  8
Layer 1
370
     0
100
AcDbSpline
210
0.0
220
0.0
230
1.0
 70
    11
 71
     3
 72
    38
 73
    34
 74
     0
 42
0.0000000001
 43
0.0000000001
 12
1.0
 22
0.0
 32
0.0
 13
1.0
 23
0.0
 33
0.0
 40
0.0
 40
0.0
 40
0.0
 40
0.0
 40
1.0
 40
1.0
 40
1.0
 40
2.0
 40
2.0
 40
2.0
 40
3.0
 40
3.0
 40
3.0
 40
4.0
 40
4.0
 40
4.0
 40
5.0
 40
5.0
 40
5.0
 40
6.0
 40
6.0
 40
6.0
 40
7.0
 40
7.0
 40
7.0
 40
8.0
 40
8.0
 40
8.0
 40
9.0
 40
9.0
 40
9.0
 40
10.0
 40
10.0
 40
10.0
 40
11.0
 40
11.0
 40
11.0
 40
11.0
 10
840.7288669936315
 20
-469.7237676022087
 30
0.0
 10
826.5475458825167
 20
-443.4357960565885
 30
0.0
 10
842.8035376702355
 20
-379.7938414848741
 30
0.0
 10
873.5888314256554
 20
-379.7938414848741
 30
0.0
 10
885.0017225574775
 20
-379.7938414848741
 30
0.0
 10
892.9568292282856
 20
-387.4031697095779
 30
0.0
 10
895.033702315377
 20
-399.508718938845
 30
0.0
 10
897.4541514380835
 20
-415.4200334857087
 30
0.0
 10
889.1532663211729
 20
-436.5180247240842
 30
0.0
 10
873.2430529795529
 20
-441.7069038260834
 30
0.0
 10
864.5941870060597
 20
-444.474232600136
 30
0.0
 10
857.6764156735517
 20
-443.0900176104878
 30
0.0
 10
852.1439605359337
 20
-440.3237900416807
 30
0.0
 10
852.1439605359337
 20
-441.7069038260834
 30
0.0
 10
852.1439605359337
 20
-443.4357960565885
 30
0.0
 10
852.1439605359337
 20
-444.8200110462367
 30
0.0
 10
852.1439605359337
 20
-452.7751177170448
 30
0.0
 10
853.52707432034
 20
-466.2648819359583
 30
0.0
 10
861.4821809911482
 20
-466.2648819359583
 30
0.0
 10
883.6186087730712
 20
-466.2648819359583
 30
0.0
 10
908.1754856777006
 20
-429.6013545968235
 30
0.0
 10
915.78481390241
 20
-415.7658119318057
 30
0.0
 10
917.8616869895013
 20
-411.6153693733522
 30
0.0
 10
923.0483636810168
 20
-410.2311543837041
 30
0.0
 10
927.1999074447158
 20
-412.3069262655554
 30
0.0
 10
931.003470351825
 20
-414.381596942163
 30
0.0
 10
932.7345649928175
 20
-419.570476044164
 30
0.0
 10
930.3119134596236
 20
-423.7209186026175
 30
0.0
 10
927.1999074447158
 20
-429.6013545968235
 30
0.0
 10
897.4541514380835
 20
-482.8677533750215
 30
0.0
 10
861.4821809911482
 20
-482.8677533750215
 30
0.0
 10
852.4897389820362
 20
-482.8677533750215
 30
0.0
 10
845.2261892034294
 20
-478.37043116522
 30
0.0
 10
840.7288669936315
 20
-469.7237676022087
 30
0.0
  0
SPLINE
  5
63
330
48
100
AcDbEntity
  8
Layer 1
370
     0
100
AcDbSpline
210
0.0
220
0.0
230
1.0
 70
    11
 71
     3
 72
    17
 73
    13
 74
     0
 42
0.0000000001
 43
0.0000000001
 12
1.0
 22
0.0
 32
0.0
 13
1.0
 23
0.0
 33
0.0
 40
0.0
 40
0.0
 40
0.0
 40
0.0
 40
1.0
 40
1.0
 40
1.0
 40
2.0
 40
2.0
 40
2.0
 40
3.0
 40
3.0
 40
3.0
 40
4.0
 40
4.0
 40
4.0
 40
4.0
 10
868.0541738775537
 20
-425.7966904844652
 30
0.0
 10
875.3177236561605
 20
-423.7209186026175
 30
0.0
 10
879.8128434554746
 20
-410.5769328298047
 30
0.0
 10
878.7755081171708
 20
-402.2760477128959
 30
0.0
 10
877.738172778867
 20
-396.3967129239372
 30
0.0
 10
874.971945210058
 20
-396.3967129239372
 30
0.0
 10
873.5888314256554
 20
-396.3967129239372
 30
0.0
 10
867.0168385392499
 20
-396.3967129239372
 30
0.0
 10
859.753288760643
 20
-407.1180471635562
 30
0.0
 10
855.601744996944
 20
-420.9535898285667
 30
0.0
 10
856.9848587813503
 20
-423.7209186026175
 30
0.0
 10
860.4448456528444
 20
-428.2171396071753
 30
0.0
 10
868.0541738775537
 20
-425.7966904844652
 30
0.0
  0
HATCH
  5
64
330
48
100
AcDbEntity
  8
Layer 1
 62
   250
420
  2301728
100
AcDbHatch
 10
0.0
 20
0.0
 30
0.0
210
0.0
220
0.0
230
1.0
  2
SOLID
 70
     1
 71
     0
 91
        2
 92
        1
 93
        1
 72
     4
 94
        3
 73
     0
 74
     1
 95
       38
 96
       34
 40
0.0
 40
0.0
 40
0.0
 40
0.0
 40
1.0
 40
1.0
 40
1.0
 40
2.0
 40
2.0
 40
2.0
 40
3.0
 40
3.0
 40
3.0
 40
4.0
 40
4.0
 40
4.0
 40
5.0
 40
5.0
 40
5.0
 40
6.0
 40
6.0
 40
6.0
 40
7.0
 40
7.0
 40
7.0
 40
8.0
 40
8.0
 40
8.0
 40
9.0
 40
9.0
 40
9.0
 40
10.0
 40
10.0
 40
10.0
 40
11.0
 40
11.0
 40
11.0
 40
11.0
 10
840.7288669936315
 20
-469.7237676022087
 10
826.5475458825167
 20
-443.4357960565885
 10
842.8035376702355
 20
-379.7938414848741
 10
873.5888314256554
 20
-379.7938414848741
 10
885.0017225574775
 20
-379.7938414848741
 10
892.9568292282856
 20
-387.4031697095779
 10
895.033702315377
 20
-399.508718938845
 10
897.4541514380835
 20
-415.4200334857087
 10
889.1532663211729
 20
-436.5180247240842
 10
873.2430529795529
 20
-441.7069038260834
 10
864.5941870060597
 20
-444.474232600136
 10
857.6764156735517
 20
-443.0900176104878
 10
852.1439605359337
 20
-440.3237900416807
 10
852.1439605359337
 20
-441.7069038260834
 10
852.1439605359337
 20
-443.4357960565885
 10
852.1439605359337
 20
-444.8200110462367
 10
852.1439605359337
 20
-452.7751177170448
 10
853.52707432034
 20
-466.2648819359583
 10
861.4821809911482
 20
-466.2648819359583
 10
883.6186087730712
 20
-466.2648819359583
 10
908.1754856777006
 20
-429.6013545968235
 10
915.78481390241
 20
-415.7658119318057
 10
917.8616869895013
 20
-411.6153693733522
 10
923.0483636810168
 20
-410.2311543837041
 10
927.1999074447158
 20
-412.3069262655554
 10
931.003470351825
 20
-414.381596942163
 10
932.7345649928175
 20
-419.570476044164
 10
930.3119134596236
 20
-423.7209186026175
 10
927.1999074447158
 20
-429.6013545968235
 10
897.4541514380835
 20
-482.8677533750215
 10
861.4821809911482
 20
-482.8677533750215
 10
852.4897389820362
 20
-482.8677533750215
 10
845.2261892034294
 20
-478.37043116522
 10
840.7288669936315
 20
-469.7237676022087
 97
        0
 97
        0
 92
        1
 93
        1
 72
     4
 94
        3
 73
     0
 74
     1
 95
       17
 96
       13
 40
0.0
 40
0.0
 40
0.0
 40
0.0
 40
1.0
 40
1.0
 40
1.0
 40
2.0
 40
2.0
 40
2.0
 40
3.0
 40
3.0
 40
3.0
 40
4.0
 40
4.0
 40
4.0
 40
4.0
 10
868.0541738775537
 20
-425.7966904844652
 10
875.3177236561605
 20
-423.7209186026175
 10
879.8128434554746
 20
-410.5769328298047
 10
878.7755081171708
 20
-402.2760477128959
 10
877.738172778867
 20
-396.3967129239372
 10
874.971945210058
 20
-396.3967129239372
 10
873.5888314256554
 20
-396.3967129239372
 10
867.0168385392499
 20
-396.3967129239372
 10
859.753288760643
 20
-407.1180471635562
 10
855.601744996944
 20
-420.9535898285667
 10
856.9848587813503
 20
-423.7209186026175
 10
860.4448456528444
 20
-428.2171396071753
 10
868.0541738775537
 20
-425.7966904844652
 97
        0
 97
        0
 75
     2
 76
     1
 98
        0
  0
ENDBLK
  5
4B
330
48
100
AcDbEntity
  8
0
100
AcDbBlockEnd
  0
BLOCK
  5
67
330
65
100
AcDbEntity
  8
0
100
AcDbBlockBegin
  2
block 4
 70
     0
 10
0.0
 20
0.0
 30
0.0
  3
block 4
  1

  0
SPLINE
  5
69
330
65
100
AcDbEntity
  8
Layer 1
370
     0
100
AcDbSpline
210
0.0
220
0.0
230
1.0
 70
    11
 71
     3
 72
    95
 73
    91
 74
     0
 42
0.0000000001
 43
0.0000000001
 12
1.0
 22
0.0
 32
0.0
 13
1.0
 23
0.0
 33
0.0
 40
0.0
 40
0.0
 40
0.0
 40
0.0
 40
1.0
 40
1.0
 40
1.0
 40
2.0
 40
2.0
 40
2.0
 40
3.0
 40
3.0
 40
3.0
 40
4.0
 40
4.0
 40
4.0
 40
5.0
 40
5.0
 40
5.0
 40
6.0
 40
6.0
 40
6.0
 40
7.0
 40
7.0
 40
7.0
 40
8.0
 40
8.0
 40
8.0
 40
9.0
 40
9.0
 40
9.0
 40
10.0
 40
10.0
 40
10.0
 40
11.0
 40
11.0
 40
11.0
 40
12.0
 40
12.0
 40
12.0
 40
13.0
 40
13.0
 40
13.0
 40
14.0
 40
14.0
 40
14.0
 40
15.0
 40
15.0
 40
15.0
 40
16.0
 40
16.0
 40
16.0
 40
17.0
 40
17.0
 40
17.0
 40
18.0
 40
18.0
 40
18.0
 40
19.0
 40
19.0
 40
19.0
 40
20.0
 40
20.0
 40
20.0
 40
21.0
 40
21.0
 40
21.0
 40
22.0
 40
22.0
 40
22.0
 40
23.0
 40
23.0
 40
23.0
 40
24.0
 40
24.0
 40
24.0
 40
25.0
 40
25.0
 40
25.0
 40
26.0
 40
26.0
 40
26.0
 40
27.0
 40
27.0
 40
27.0
 40
28.0
 40
28.0
 40
28.0
 40
29.0
 40
29.0
 40
29.0
 40
30.0
 40
30.0
 40
30.0
 40
30.0
 10
391.7194260111773
 20
-885.036717526873
 30
0.0
 10
382.6810086831965
 20
-877.1498855810878
 30
0.0
 10
376.668290409255
 20
-867.128091971681
 30
0.0
 10
371.0741677780652
 20
-856.6146102215571
 30
0.0
 10
361.9707793407852
 20
-839.1997375669107
 30
0.0
 10
354.5025430377545
 20
-821.7863790694664
 30
0.0
 10
347.1979045385415
 20
-804.2082527376388
 30
0.0
 10
345.5785134043235
 20
-800.3203099788316
 30
0.0
 10
343.9590534447771
 20
-796.4322295693692
 30
0.0
 10
342.3397999612143
 20
-792.5442868105602
 30
0.0
 10
342.0657375065221
 20
-791.8854907743225
 30
0.0
 10
341.8593991742346
 20
-791.3902237165676
 30
0.0
 10
341.7347565058653
 20
-790.736107802606
 30
0.0
 10
340.4708481889456
 20
-786.628749899257
 30
0.0
 10
338.9196629544258
 20
-782.5215296465685
 30
0.0
 10
337.2158231431849
 20
-778.4158235510822
 30
0.0
 10
327.8647323517016
 20
-755.744210021372
 30
0.0
 10
311.949976538458
 20
-734.8780224865095
 30
0.0
 10
292.8530128761031
 20
-714.1781169432488
 30
0.0
 10
278.0073208772092
 20
-697.9160685266961
 30
0.0
 10
264.9065574101605
 20
-680.6643118985721
 30
0.0
 10
251.0205657799834
 20
-663.7429168431536
 30
0.0
 10
243.0920256856452
 20
-654.2150137849421
 30
0.0
 10
235.3659697052472
 20
-644.6851836175592
 30
0.0
 10
228.5508169362629
 20
-634.8296719997488
 30
0.0
 10
225.7452901053675
 20
-630.7221764457463
 30
0.0
 10
223.1185026503736
 20
-626.6146808917383
 30
0.0
 10
221.0887060873929
 20
-622.5071853377358
 30
0.0
 10
218.2494548459499
 20
-616.7569668634442
 30
0.0
 10
216.400118292062
 20
-611.0064730878385
 30
0.0
 10
216.5480239211756
 20
-605.4208847972768
 30
0.0
 10
216.4205594143732
 20
-595.2370763665876
 30
0.0
 10
229.0775371687496
 20
-586.6939260963554
 30
0.0
 10
243.7210891803443
 20
-586.693788445702
 30
0.0
 10
244.7303437849678
 20
-586.7481604545446
 30
0.0
 10
245.7391854376237
 20
-586.8023948127266
 30
0.0
 10
246.7479582649539
 20
-586.8567668215692
 30
0.0
 10
255.0571712465098
 20
-587.5154252071607
 30
0.0
 10
262.8352591746097
 20
-590.4707847763402
 30
0.0
 10
269.8828350750582
 20
-595.5650978781541
 30
0.0
 10
274.8817562727527
 20
-599.1799417368547
 30
0.0
 10
278.9101026999615
 20
-603.121430600575
 30
0.0
 10
282.0780637062489
 20
-607.5572229674581
 30
0.0
 10
297.1409684391992
 20
-627.5992960290641
 30
0.0
 10
314.4893558273407
 20
-646.4948767827209
 30
0.0
 10
326.4115543837515
 20
-667.0289132863581
 30
0.0
 10
327.2530816648978
 20
-668.3434770444255
 30
0.0
 10
328.654227685146
 20
-669.6569395972492
 30
0.0
 10
330.9887827989496
 20
-672.6142262756057
 30
0.0
 10
334.1842739362955
 20
-654.3784051127768
 30
0.0
 10
337.8365587732378
 20
-637.7851692195836
 30
0.0
 10
342.3573504197648
 20
-621.192346278358
 30
0.0
 10
344.0501781785815
 20
-614.2919189284203
 30
0.0
 10
345.8576689332613
 20
-607.392317482414
 30
0.0
 10
348.9728409132422
 20
-600.9852300810489
 30
0.0
 10
353.9349405606445
 20
-590.9645376768858
 30
0.0
 10
362.5741709882705
 20
-585.87201403359
 30
0.0
 10
379.2923248511433
 20
-585.872289334904
 30
0.0
 10
382.4629012198811
 20
-585.872289334904
 30
0.0
 10
385.8850341611706
 20
-586.0360936147026
 30
0.0
 10
389.7597624570699
 20
-586.3634268729911
 30
0.0
 10
401.0183472043045
 20
-587.515975809778
 30
0.0
 10
407.6832542830334
 20
-593.4288973586335
 30
0.0
 10
412.0616463266579
 20
-601.1504108674071
 30
0.0
 10
415.2749632238638
 20
-607.0645712721562
 30
0.0
 10
417.4019411494828
 20
-612.9788693275605
 30
0.0
 10
418.5211786276868
 20
-618.8930297323095
 30
0.0
 10
420.2601193560286
 20
-628.0927736282956
 30
0.0
 10
419.3980133019159
 20
-637.2944446334586
 30
0.0
 10
416.9683415853042
 20
-646.3284571404693
 30
0.0
 10
412.5037114061379
 20
-661.606028070355
 30
0.0
 10
407.9598632748493
 20
-676.5573669471869
 30
0.0
 10
404.2238868394879
 20
-691.6716841998914
 30
0.0
 10
400.7100097364437
 20
-705.4718506464942
 30
0.0
 10
397.8486655648267
 20
-719.2724300450627
 30
0.0
 10
395.0385274369783
 20
-732.7422349189565
 30
0.0
 10
391.2206488617157
 20
-750.3210495040603
 30
0.0
 10
394.3477964487074
 20
-768.8868192876307
 30
0.0
 10
399.054072353244
 20
-787.9434513079796
 30
0.0
 10
404.8056673340916
 20
-811.1077165329916
 30
0.0
 10
410.714046411319
 20
-834.2718441073484
 30
0.0
 10
416.7792784102558
 20
-857.4361093323605
 30
0.0
 10
418.5582066539619
 20
-864.1716311972559
 30
0.0
 10
419.2377879391524
 20
-870.580370406482
 30
0.0
 10
419.2995930833795
 20
-876.6587480429989
 30
0.0
 10
419.2065412404008
 20
-886.6795780978209
 30
0.0
 10
414.1127787412079
 20
-892.0994349994016
 30
0.0
 10
407.1127611421634
 20
-892.099847951371
 30
0.0
 10
402.5477836352875
 20
-892.0994349994016
 30
0.0
 10
397.1532544542761
 20
-889.8012196585987
 30
0.0
 10
391.7194260111773
 20
-885.036717526873
 30
0.0
  0
HATCH
  5
6A
330
65
100
AcDbEntity
  8
Layer 1
 62
   250
420
  2301728
100
AcDbHatch
 10
0.0
 20
0.0
 30
0.0
210
0.0
220
0.0
230
1.0
  2
SOLID
 70
     1
 71
     0
 91
        1
 92
        1
 93
        1
 72
     4
 94
        3
 73
     0
 74
     1
 95
       95
 96
       91
 40
0.0
 40
0.0
 40
0.0
 40
0.0
 40
1.0
 40
1.0
 40
1.0
 40
2.0
 40
2.0
 40
2.0
 40
3.0
 40
3.0
 40
3.0
 40
4.0
 40
4.0
 40
4.0
 40
5.0
 40
5.0
 40
5.0
 40
6.0
 40
6.0
 40
6.0
 40
7.0
 40
7.0
 40
7.0
 40
8.0
 40
8.0
 40
8.0
 40
9.0
 40
9.0
 40
9.0
 40
10.0
 40
10.0
 40
10.0
 40
11.0
 40
11.0
 40
11.0
 40
12.0
 40
12.0
 40
12.0
 40
13.0
 40
13.0
 40
13.0
 40
14.0
 40
14.0
 40
14.0
 40
15.0
 40
15.0
 40
15.0
 40
16.0
 40
16.0
 40
16.0
 40
17.0
 40
17.0
 40
17.0
 40
18.0
 40
18.0
 40
18.0
 40
19.0
 40
19.0
 40
19.0
 40
20.0
 40
20.0
 40
20.0
 40
21.0
 40
21.0
 40
21.0
 40
22.0
 40
22.0
 40
22.0
 40
23.0
 40
23.0
 40
23.0
 40
24.0
 40
24.0
 40
24.0
 40
25.0
 40
25.0
 40
25.0
 40
26.0
 40
26.0
 40
26.0
 40
27.0
 40
27.0
 40
27.0
 40
28.0
 40
28.0
 40
28.0
 40
29.0
 40
29.0
 40
29.0
 40
30.0
 40
30.0
 40
30.0
 40
30.0
 10
391.7194260111773
 20
-885.036717526873
 10
382.6810086831965
 20
-877.1498855810878
 10
376.668290409255
 20
-867.128091971681
 10
371.0741677780652
 20
-856.6146102215571
 10
361.9707793407852
 20
-839.1997375669107
 10
354.5025430377545
 20
-821.7863790694664
 10
347.1979045385415
 20
-804.2082527376388
 10
345.5785134043235
 20
-800.3203099788316
 10
343.9590534447771
 20
-796.4322295693692
 10
342.3397999612143
 20
-792.5442868105602
 10
342.0657375065221
 20
-791.8854907743225
 10
341.8593991742346
 20
-791.3902237165676
 10
341.7347565058653
 20
-790.736107802606
 10
340.4708481889456
 20
-786.628749899257
 10
338.9196629544258
 20
-782.5215296465685
 10
337.2158231431849
 20
-778.4158235510822
 10
327.8647323517016
 20
-755.744210021372
 10
311.949976538458
 20
-734.8780224865095
 10
292.8530128761031
 20
-714.1781169432488
 10
278.0073208772092
 20
-697.9160685266961
 10
264.9065574101605
 20
-680.6643118985721
 10
251.0205657799834
 20
-663.7429168431536
 10
243.0920256856452
 20
-654.2150137849421
 10
235.3659697052472
 20
-644.6851836175592
 10
228.5508169362629
 20
-634.8296719997488
 10
225.7452901053675
 20
-630.7221764457463
 10
223.1185026503736
 20
-626.6146808917383
 10
221.0887060873929
 20
-622.5071853377358
 10
218.2494548459499
 20
-616.7569668634442
 10
216.400118292062
 20
-611.0064730878385
 10
216.5480239211756
 20
-605.4208847972768
 10
216.4205594143732
 20
-595.2370763665876
 10
229.0775371687496
 20
-586.6939260963554
 10
243.7210891803443
 20
-586.693788445702
 10
244.7303437849678
 20
-586.7481604545446
 10
245.7391854376237
 20
-586.8023948127266
 10
246.7479582649539
 20
-586.8567668215692
 10
255.0571712465098
 20
-587.5154252071607
 10
262.8352591746097
 20
-590.4707847763402
 10
269.8828350750582
 20
-595.5650978781541
 10
274.8817562727527
 20
-599.1799417368547
 10
278.9101026999615
 20
-603.121430600575
 10
282.0780637062489
 20
-607.5572229674581
 10
297.1409684391992
 20
-627.5992960290641
 10
314.4893558273407
 20
-646.4948767827209
 10
326.4115543837515
 20
-667.0289132863581
 10
327.2530816648978
 20
-668.3434770444255
 10
328.654227685146
 20
-669.6569395972492
 10
330.9887827989496
 20
-672.6142262756057
 10
334.1842739362955
 20
-654.3784051127768
 10
337.8365587732378
 20
-637.7851692195836
 10
342.3573504197648
 20
-621.192346278358
 10
344.0501781785815
 20
-614.2919189284203
 10
345.8576689332613
 20
-607.392317482414
 10
348.9728409132422
 20
-600.9852300810489
 10
353.9349405606445
 20
-590.9645376768858
 10
362.5741709882705
 20
-585.87201403359
 10
379.2923248511433
 20
-585.872289334904
 10
382.4629012198811
 20
-585.872289334904
 10
385.8850341611706
 20
-586.0360936147026
 10
389.7597624570699
 20
-586.3634268729911
 10
401.0183472043045
 20
-587.515975809778
 10
407.6832542830334
 20
-593.4288973586335
 10
412.0616463266579
 20
-601.1504108674071
 10
415.2749632238638
 20
-607.0645712721562
 10
417.4019411494828
 20
-612.9788693275605
 10
418.5211786276868
 20
-618.8930297323095
 10
420.2601193560286
 20
-628.0927736282956
 10
419.3980133019159
 20
-637.2944446334586
 10
416.9683415853042
 20
-646.3284571404693
 10
412.5037114061379
 20
-661.606028070355
 10
407.9598632748493
 20
-676.5573669471869
 10
404.2238868394879
 20
-691.6716841998914
 10
400.7100097364437
 20
-705.4718506464942
 10
397.8486655648267
 20
-719.2724300450627
 10
395.0385274369783
 20
-732.7422349189565
 10
391.2206488617157
 20
-750.3210495040603
 10
394.3477964487074
 20
-768.8868192876307
 10
399.054072353244
 20
-787.9434513079796
 10
404.8056673340916
 20
-811.1077165329916
 10
410.714046411319
 20
-834.2718441073484
 10
416.7792784102558
 20
-857.4361093323605
 10
418.5582066539619
 20
-864.1716311972559
 10
419.2377879391524
 20
-870.580370406482
 10
419.2995930833795
 20
-876.6587480429989
 10
419.2065412404008
 20
-886.6795780978209
 10
414.1127787412079
 20
-892.0994349994016
 10
407.1127611421634
 20
-892.099847951371
 10
402.5477836352875
 20
-892.0994349994016
 10
397.1532544542761
 20
-889.8012196585987
 10
391.7194260111773
 20
-885.036717526873
 97
        0
 97
        0
 75
     2
 76
     1
 98
        0
  0
SPLINE
  5
6B
330
65
100
AcDbEntity
  8
Layer 1
370
     0
100
AcDbSpline
210
0.0
220
0.0
230
1.0
 70
    11
 71
     3
 72
    59
 73
    55
 74
     0
 42
0.0000000001
 43
0.0000000001
 12
1.0
 22
0.0
 32
0.0
 13
1.0
 23
0.0
 33
0.0
 40
0.0
 40
0.0
 40
0.0
 40
0.0
 40
1.0
 40
1.0
 40
1.0
 40
2.0
 40
2.0
 40
2.0
 40
3.0
 40
3.0
 40
3.0
 40
4.0
 40
4.0
 40
4.0
 40
5.0
 40
5.0
 40
5.0
 40
6.0
 40
6.0
 40
6.0
 40
7.0
 40
7.0
 40
7.0
 40
8.0
 40
8.0
 40
8.0
 40
9.0
 40
9.0
 40
9.0
 40
10.0
 40
10.0
 40
10.0
 40
11.0
 40
11.0
 40
11.0
 40
12.0
 40
12.0
 40
12.0
 40
13.0
 40
13.0
 40
13.0
 40
14.0
 40
14.0
 40
14.0
 40
15.0
 40
15.0
 40
15.0
 40
16.0
 40
16.0
 40
16.0
 40
17.0
 40
17.0
 40
17.0
 40
18.0
 40
18.0
 40
18.0
 40
18.0
 10
529.607046909281
 20
-898.6718408377747
 30
0.0
 10
513.6752224147822
 20
-896.2074811560269
 30
0.0
 10
499.8773960293192
 20
-886.5152232153941
 30
0.0
 10
487.1678357246201
 20
-867.6222578241886
 30
0.0
 10
481.2121048219715
 20
-858.7513613437004
 30
0.0
 10
477.4446063865462
 20
-848.5641116466268
 30
0.0
 10
473.1903064086709
 20
-838.5438321944275
 30
0.0
 10
461.8572526569214
 20
-811.2719337647595
 30
0.0
 10
454.4202630526433
 20
-783.1793621282231
 30
0.0
 10
447.0917421647364
 20
-744.0780416838079
 30
0.0
 10
443.4296841312689
 20
-719.6010021592501
 30
0.0
 10
439.7765733903934
 20
-684.9364376363046
 30
0.0
 10
448.213526180064
 20
-651.5856109674969
 30
0.0
 10
451.3171355049999
 20
-639.2658773185958
 30
0.0
 10
456.1578960997595
 20
-627.598607775788
 30
0.0
 10
462.6632660690029
 20
-616.2655540240412
 30
0.0
 10
469.7766389826829
 20
-603.44862620821
 30
0.0
 10
483.6263596651916
 20
-596.0556848136257
 30
0.0
 10
500.9905768786912
 20
-591.9509422727297
 30
0.0
 10
505.5302954903209
 20
-590.798530986598
 30
0.0
 10
510.5322450024305
 20
-589.977582478421
 30
0.0
 10
515.3443742608888
 20
-589.3212641539703
 30
0.0
 10
523.2968655692475
 20
-588.1722941342232
 30
0.0
 10
530.4048701073716
 20
-586.527644104759
 30
0.0
 10
537.3822441736202
 20
-582.5862928916995
 30
0.0
 10
542.0349739732446
 20
-579.957440676877
 30
0.0
 10
548.459680658485
 20
-578.8075071025396
 30
0.0
 10
555.2959628030585
 20
-578.8069564999169
 30
0.0
 10
566.4101520128897
 20
-578.8062682466389
 30
0.0
 10
578.9217706752715
 20
-581.9292863139763
 30
0.0
 10
586.9644231628481
 20
-587.6782659323744
 30
0.0
 10
605.7384583878811
 20
-600.9844041771175
 30
0.0
 10
618.403695181576
 20
-616.7566915621355
 30
0.0
 10
621.7096509697985
 20
-636.9638077594391
 30
0.0
 10
625.9082712576055
 20
-663.0870114706759
 30
0.0
 10
626.8583360804514
 20
-689.3727806058105
 30
0.0
 10
622.9211143870489
 20
-716.3144551134228
 30
0.0
 10
622.229832796158
 20
-721.0778560399103
 30
0.0
 10
621.3461155891637
 20
-726.0074013073336
 30
0.0
 10
620.300383560887
 20
-730.9362583214806
 30
0.0
 10
617.1667663930966
 20
-746.8727629382647
 30
0.0
 10
612.0131258588517
 20
-762.4790436329895
 30
0.0
 10
605.9187807463204
 20
-777.9224836025041
 30
0.0
 10
600.3322289011703
 20
-791.7230630010708
 30
0.0
 10
594.9327442965696
 20
-805.5241930022603
 30
0.0
 10
590.248767798188
 20
-819.4863742701418
 30
0.0
 10
580.9240371071937
 20
-846.4291499830051
 30
0.0
 10
566.9078967824353
 20
-868.2781631966718
 30
0.0
 10
552.5717186841139
 20
-887.8293740214995
 30
0.0
 10
546.9155156073866
 20
-895.3854314426062
 30
0.0
 10
540.5362336383951
 20
-898.9998623493448
 30
0.0
 10
533.2982868816734
 20
-899.0
 30
0.0
 10
532.0690665298889
 20
-898.8905677290368
 30
0.0
 10
530.8387449728616
 20
-898.7812731087361
 30
0.0
 10
529.607046909281
 20
-898.6718408377747
 30
0.0
  0
SPLINE
  5
6C
330
65
100
AcDbEntity
  8
Layer 1
370
     0
100
AcDbSpline
210
0.0
220
0.0
230
1.0
 70
    11
 71
     3
 72
    47
 73
    43
 74
     0
 42
0.0000000001
 43
0.0000000001
 12
1.0
 22
0.0
 32
0.0
 13
1.0
 23
0.0
 33
0.0
 40
0.0
 40
0.0
 40
0.0
 40
0.0
 40
1.0
 40
1.0
 40
1.0
 40
2.0
 40
2.0
 40
2.0
 40
3.0
 40
3.0
 40
3.0
 40
4.0
 40
4.0
 40
4.0
 40
5.0
 40
5.0
 40
5.0
 40
6.0
 40
6.0
 40
6.0
 40
7.0
 40
7.0
 40
7.0
 40
8.0
 40
8.0
 40
8.0
 40
9.0
 40
9.0
 40
9.0
 40
10.0
 40
10.0
 40
10.0
 40
11.0
 40
11.0
 40
11.0
 40
12.0
 40
12.0
 40
12.0
 40
13.0
 40
13.0
 40
13.0
 40
14.0
 40
14.0
 40
14.0
 40
14.0
 10
531.4844641968502
 20
-829.1791828133973
 30
0.0
 10
534.912240815007
 20
-824.0863838687928
 30
0.0
 10
536.6543475084209
 20
-818.1720858133885
 30
0.0
 10
538.3000987431278
 20
-812.2580630592929
 30
0.0
 10
546.550328418889
 20
-780.7154153984393
 30
0.0
 10
552.1868474519106
 20
-748.5136964000376
 30
0.0
 10
554.6107378409979
 20
-715.6581367889776
 30
0.0
 10
554.6253288104599
 20
-715.0011302112543
 30
0.0
 10
554.6399197799219
 20
-714.3439859828777
 30
0.0
 10
554.6543730987287
 20
-713.6869794051545
 30
0.0
 10
555.0016657020387
 20
-697.5859822552939
 30
0.0
 10
553.3226030087499
 20
-681.9786003553272
 30
0.0
 10
547.3043787085953
 20
-666.700754124131
 30
0.0
 10
545.8396380856029
 20
-663.2494392439203
 30
0.0
 10
544.3532863097244
 20
-659.9631674994071
 30
0.0
 10
541.888788977325
 20
-657.0079455808809
 30
0.0
 10
539.4236033916459
 20
-654.2154267369096
 30
0.0
 10
536.1618334637751
 20
-652.7351315898668
 30
0.0
 10
532.9178204704367
 20
-652.7352692405202
 30
0.0
 10
529.48040830641
 20
-652.734580987244
 30
0.0
 10
525.8932322294222
 20
-654.7057383710726
 30
0.0
 10
523.7366594129153
 20
-658.3227846402588
 30
0.0
 10
518.6996089837039
 20
-666.8642831026227
 30
0.0
 10
515.9920205940525
 20
-676.2289324836529
 30
0.0
 10
514.9823530374624
 20
-685.5930312620658
 30
0.0
 10
511.9188000532176
 20
-713.6854652479469
 30
0.0
 10
510.3826187401255
 20
-741.9443188760815
 30
0.0
 10
512.1309197130277
 20
-770.528991605297
 30
0.0
 10
512.2492992765801
 20
-772.5001489891238
 30
0.0
 10
512.3676788401344
 20
-774.4713063729469
 30
0.0
 10
512.4859207530317
 20
-776.4424637567754
 30
0.0
 10
513.3637189818492
 20
-788.4358277019728
 30
0.0
 10
515.4147137457448
 20
-800.2644238127814
 30
0.0
 10
517.6117558549086
 20
-812.2580630592929
 30
0.0
 10
518.9539873946906
 20
-818.6654257619666
 30
0.0
 10
522.4112212530799
 20
-823.756297597396
 30
0.0
 10
525.4727094774971
 20
-829.0140020270446
 30
0.0
 10
526.3533983700736
 20
-830.6572755499565
 30
0.0
 10
527.3312686252893
 20
-831.4790499620685
 30
0.0
 10
528.4174699462228
 20
-831.4784993594458
 30
0.0
 10
529.368360673001
 20
-831.4787746607544
 30
0.0
 10
530.4282707187722
 20
-830.6575508512651
 30
0.0
 10
531.4844641968502
 20
-829.1791828133973
 30
0.0
  0
HATCH
  5
6D
330
65
100
AcDbEntity
  8
Layer 1
 62
   250
420
  2301728
100
AcDbHatch
 10
0.0
 20
0.0
 30
0.0
210
0.0
220
0.0
230
1.0
  2
SOLID
 70
     1
 71
     0
 91
        2
 92
        1
 93
        1
 72
     4
 94
        3
 73
     0
 74
     1
 95
       59
 96
       55
 40
0.0
 40
0.0
 40
0.0
 40
0.0
 40
1.0
 40
1.0
 40
1.0
 40
2.0
 40
2.0
 40
2.0
 40
3.0
 40
3.0
 40
3.0
 40
4.0
 40
4.0
 40
4.0
 40
5.0
 40
5.0
 40
5.0
 40
6.0
 40
6.0
 40
6.0
 40
7.0
 40
7.0
 40
7.0
 40
8.0
 40
8.0
 40
8.0
 40
9.0
 40
9.0
 40
9.0
 40
10.0
 40
10.0
 40
10.0
 40
11.0
 40
11.0
 40
11.0
 40
12.0
 40
12.0
 40
12.0
 40
13.0
 40
13.0
 40
13.0
 40
14.0
 40
14.0
 40
14.0
 40
15.0
 40
15.0
 40
15.0
 40
16.0
 40
16.0
 40
16.0
 40
17.0
 40
17.0
 40
17.0
 40
18.0
 40
18.0
 40
18.0
 40
18.0
 10
529.607046909281
 20
-898.6718408377747
 10
513.6752224147822
 20
-896.2074811560269
 10
499.8773960293192
 20
-886.5152232153941
 10
487.1678357246201
 20
-867.6222578241886
 10
481.2121048219715
 20
-858.7513613437004
 10
477.4446063865462
 20
-848.5641116466268
 10
473.1903064086709
 20
-838.5438321944275
 10
461.8572526569214
 20
-811.2719337647595
 10
454.4202630526433
 20
-783.1793621282231
 10
447.0917421647364
 20
-744.0780416838079
 10
443.4296841312689
 20
-719.6010021592501
 10
439.7765733903934
 20
-684.9364376363046
 10
448.213526180064
 20
-651.5856109674969
 10
451.3171355049999
 20
-639.2658773185958
 10
456.1578960997595
 20
-627.598607775788
 10
462.6632660690029
 20
-616.2655540240412
 10
469.7766389826829
 20
-603.44862620821
 10
483.6263596651916
 20
-596.0556848136257
 10
500.9905768786912
 20
-591.9509422727297
 10
505.5302954903209
 20
-590.798530986598
 10
510.5322450024305
 20
-589.977582478421
 10
515.3443742608888
 20
-589.3212641539703
 10
523.2968655692475
 20
-588.1722941342232
 10
530.4048701073716
 20
-586.527644104759
 10
537.3822441736202
 20
-582.5862928916995
 10
542.0349739732446
 20
-579.957440676877
 10
548.459680658485
 20
-578.8075071025396
 10
555.2959628030585
 20
-578.8069564999169
 10
566.4101520128897
 20
-578.8062682466389
 10
578.9217706752715
 20
-581.9292863139763
 10
586.9644231628481
 20
-587.6782659323744
 10
605.7384583878811
 20
-600.9844041771175
 10
618.403695181576
 20
-616.7566915621355
 10
621.7096509697985
 20
-636.9638077594391
 10
625.9082712576055
 20
-663.0870114706759
 10
626.8583360804514
 20
-689.3727806058105
 10
622.9211143870489
 20
-716.3144551134228
 10
622.229832796158
 20
-721.0778560399103
 10
621.3461155891637
 20
-726.0074013073336
 10
620.300383560887
 20
-730.9362583214806
 10
617.1667663930966
 20
-746.8727629382647
 10
612.0131258588517
 20
-762.4790436329895
 10
605.9187807463204
 20
-777.9224836025041
 10
600.3322289011703
 20
-791.7230630010708
 10
594.9327442965696
 20
-805.5241930022603
 10
590.248767798188
 20
-819.4863742701418
 10
580.9240371071937
 20
-846.4291499830051
 10
566.9078967824353
 20
-868.2781631966718
 10
552.5717186841139
 20
-887.8293740214995
 10
546.9155156073866
 20
-895.3854314426062
 10
540.5362336383951
 20
-898.9998623493448
 10
533.2982868816734
 20
-899.0
 10
532.0690665298889
 20
-898.8905677290368
 10
530.8387449728616
 20
-898.7812731087361
 10
529.607046909281
 20
-898.6718408377747
 97
        0
 97
        0
 92
        1
 93
        1
 72
     4
 94
        3
 73
     0
 74
     1
 95
       47
 96
       43
 40
0.0
 40
0.0
 40
0.0
 40
0.0
 40
1.0
 40
1.0
 40
1.0
 40
2.0
 40
2.0
 40
2.0
 40
3.0
 40
3.0
 40
3.0
 40
4.0
 40
4.0
 40
4.0
 40
5.0
 40
5.0
 40
5.0
 40
6.0
 40
6.0
 40
6.0
 40
7.0
 40
7.0
 40
7.0
 40
8.0
 40
8.0
 40
8.0
 40
9.0
 40
9.0
 40
9.0
 40
10.0
 40
10.0
 40
10.0
 40
11.0
 40
11.0
 40
11.0
 40
12.0
 40
12.0
 40
12.0
 40
13.0
 40
13.0
 40
13.0
 40
14.0
 40
14.0
 40
14.0
 40
14.0
 10
531.4844641968502
 20
-829.1791828133973
 10
534.912240815007
 20
-824.0863838687928
 10
536.6543475084209
 20
-818.1720858133885
 10
538.3000987431278
 20
-812.2580630592929
 10
546.550328418889
 20
-780.7154153984393
 10
552.1868474519106
 20
-748.5136964000376
 10
554.6107378409979
 20
-715.6581367889776
 10
554.6253288104599
 20
-715.0011302112543
 10
554.6399197799219
 20
-714.3439859828777
 10
554.6543730987287
 20
-713.6869794051545
 10
555.0016657020387
 20
-697.5859822552939
 10
553.3226030087499
 20
-681.9786003553272
 10
547.3043787085953
 20
-666.700754124131
 10
545.8396380856029
 20
-663.2494392439203
 10
544.3532863097244
 20
-659.9631674994071
 10
541.888788977325
 20
-657.0079455808809
 10
539.4236033916459
 20
-654.2154267369096
 10
536.1618334637751
 20
-652.7351315898668
 10
532.9178204704367
 20
-652.7352692405202
 10
529.48040830641
 20
-652.734580987244
 10
525.8932322294222
 20
-654.7057383710726
 10
523.7366594129153
 20
-658.3227846402588
 10
518.6996089837039
 20
-666.8642831026227
 10
515.9920205940525
 20
-676.2289324836529
 10
514.9823530374624
 20
-685.5930312620658
 10
511.9188000532176
 20
-713.6854652479469
 10
510.3826187401255
 20
-741.9443188760815
 10
512.1309197130277
 20
-770.528991605297
 10
512.2492992765801
 20
-772.5001489891238
 10
512.3676788401344
 20
-774.4713063729469
 10
512.4859207530317
 20
-776.4424637567754
 10
513.3637189818492
 20
-788.4358277019728
 10
515.4147137457448
 20
-800.2644238127814
 10
517.6117558549086
 20
-812.2580630592929
 10
518.9539873946906
 20
-818.6654257619666
 10
522.4112212530799
 20
-823.756297597396
 10
525.4727094774971
 20
-829.0140020270446
 10
526.3533983700736
 20
-830.6572755499565
 10
527.3312686252893
 20
-831.4790499620685
 10
528.4174699462228
 20
-831.4784993594458
 10
529.368360673001
 20
-831.4787746607544
 10
530.4282707187722
 20
-830.6575508512651
 10
531.4844641968502
 20
-829.1791828133973
 97
        0
 97
        0
 75
     2
 76
     1
 98
        0
  0
SPLINE
  5
6E
330
65
100
AcDbEntity
  8
Layer 1
370
     0
100
AcDbSpline
210
0.0
220
0.0
230
1.0
 70
    11
 71
     3
 72
   122
 73
   118
 74
     0
 42
0.0000000001
 43
0.0000000001
 12
1.0
 22
0.0
 32
0.0
 13
1.0
 23
0.0
 33
0.0
 40
0.0
 40
0.0
 40
0.0
 40
0.0
 40
1.0
 40
1.0
 40
1.0
 40
2.0
 40
2.0
 40
2.0
 40
3.0
 40
3.0
 40
3.0
 40
4.0
 40
4.0
 40
4.0
 40
5.0
 40
5.0
 40
5.0
 40
6.0
 40
6.0
 40
6.0
 40
7.0
 40
7.0
 40
7.0
 40
8.0
 40
8.0
 40
8.0
 40
9.0
 40
9.0
 40
9.0
 40
10.0
 40
10.0
 40
10.0
 40
11.0
 40
11.0
 40
11.0
 40
12.0
 40
12.0
 40
12.0
 40
13.0
 40
13.0
 40
13.0
 40
14.0
 40
14.0
 40
14.0
 40
15.0
 40
15.0
 40
15.0
 40
16.0
 40
16.0
 40
16.0
 40
17.0
 40
17.0
 40
17.0
 40
18.0
 40
18.0
 40
18.0
 40
19.0
 40
19.0
 40
19.0
 40
20.0
 40
20.0
 40
20.0
 40
21.0
 40
21.0
 40
21.0
 40
22.0
 40
22.0
 40
22.0
 40
23.0
 40
23.0
 40
23.0
 40
24.0
 40
24.0
 40
24.0
 40
25.0
 40
25.0
 40
25.0
 40
26.0
 40
26.0
 40
26.0
 40
27.0
 40
27.0
 40
27.0
 40
28.0
 40
28.0
 40
28.0
 40
29.0
 40
29.0
 40
29.0
 40
30.0
 40
30.0
 40
30.0
 40
31.0
 40
31.0
 40
31.0
 40
32.0
 40
32.0
 40
32.0
 40
33.0
 40
33.0
 40
33.0
 40
34.0
 40
34.0
 40
34.0
 40
35.0
 40
35.0
 40
35.0
 40
36.0
 40
36.0
 40
36.0
 40
37.0
 40
37.0
 40
37.0
 40
38.0
 40
38.0
 40
38.0
 40
39.0
 40
39.0
 40
39.0
 40
39.0
 10
637.6147712371712
 20
-859.5724475025363
 30
0.0
 10
630.6883279133799
 20
-838.8719913566529
 30
0.0
 10
628.2797167470271
 20
-815.3791540174534
 30
0.0
 10
629.4180876663158
 20
-790.242767854028
 30
0.0
 10
630.4094476857499
 20
-767.4090018523802
 30
0.0
 10
633.4559319887412
 20
-744.4084032565188
 30
0.0
 10
637.4451856298474
 20
-721.4086305645833
 30
0.0
 10
639.1750414149392
 20
-711.385735749931
 30
0.0
 10
641.1065554100387
 20
-701.1990366554801
 30
0.0
 10
643.0230654837105
 20
-691.1783442513133
 30
0.0
 10
647.0478329938815
 20
-669.9874388206135
 30
0.0
 10
653.0568347001317
 20
-649.1209759844423
 30
0.0
 10
660.8701611959841
 20
-628.2576791133397
 30
0.0
 10
665.4934337553786
 20
-616.101061490961
 30
0.0
 10
672.5860214201093
 20
-605.0928632857103
 30
0.0
 10
686.3044233774672
 20
-596.3865969889575
 30
0.0
 10
693.7707325713236
 20
-591.6211313026415
 30
0.0
 10
701.2710414770372
 20
-589.3218147565931
 30
0.0
 10
708.0016079183442
 20
-589.3212641539703
 30
0.0
 10
716.209165890963
 20
-589.3214018046292
 30
0.0
 10
723.3447005601483
 20
-592.7725790341865
 30
0.0
 10
727.6996919923695
 20
-599.5074126458039
 30
0.0
 10
731.7340950484104
 20
-605.9138117938874
 30
0.0
 10
731.9127655989832
 20
-612.979970532806
 30
0.0
 10
730.4908343297866
 20
-620.7012087402654
 30
0.0
 10
729.6115219437634
 20
-625.1368634564933
 30
0.0
 10
728.521604055135
 20
-629.572518172723
 30
0.0
 10
727.2360845853364
 20
-634.0081728889454
 30
0.0
 10
725.7131177351512
 20
-639.2647761133503
 30
0.0
 10
724.0428646838009
 20
-644.3578503592689
 30
0.0
 10
722.1421844354882
 20
-649.6144535836738
 30
0.0
 10
716.47579521027
 20
-665.219770723812
 30
0.0
 10
710.5590194430697
 20
-680.82852913034
 30
0.0
 10
705.7837805602285
 20
-696.4354980783392
 30
0.0
 10
704.092329307965
 20
-702.1859918539449
 30
0.0
 10
702.4025298635643
 20
-707.9364856295506
 30
0.0
 10
700.7145198776816
 20
-713.6869794051545
 30
0.0
 10
695.055563787846
 20
-733.5631834271317
 30
0.0
 10
690.7782073252092
 20
-753.2799879902796
 30
0.0
 10
689.997039856411
 20
-772.6653297754765
 30
0.0
 10
689.8598021530815
 20
-776.7729629801343
 30
0.0
 10
689.9002714457383
 20
-780.7144518438527
 30
0.0
 10
690.0576061447391
 20
-784.6574548647804
 30
0.0
 10
690.0121814284939
 20
-787.2878212368105
 30
0.0
 10
690.3045514203404
 20
-789.7498408574174
 30
0.0
 10
690.9744971596592
 20
-791.8857660756312
 30
0.0
 10
692.272955791057
 20
-796.3218337438211
 30
0.0
 10
693.9597269210426
 20
-800.5931335776295
 30
0.0
 10
699.0322912193187
 20
-800.5940971322143
 30
0.0
 10
699.2745563726385
 20
-800.5939594815609
 30
0.0
 10
699.5168215259582
 20
-800.5939594815609
 30
0.0
 10
699.7589490286227
 20
-800.5940971322143
 30
0.0
 10
705.0536814845436
 20
-799.9365399518683
 30
0.0
 10
709.0083848111717
 20
-794.8431904046465
 30
0.0
 10
712.4767683726386
 20
-790.0797894781608
 30
0.0
 10
716.7348537435355
 20
-784.3301216064865
 30
0.0
 10
720.0503074269691
 20
-778.0860125809941
 30
0.0
 10
722.9785498170604
 20
-771.6786498783204
 30
0.0
 10
732.100658743464
 20
-751.6375403712991
 30
0.0
 10
738.8160836126845
 20
-731.4295982700587
 30
0.0
 10
747.7277246871381
 20
-711.2224820727552
 30
0.0
 10
751.2579133928339
 20
-701.4195530052657
 30
0.0
 10
754.7850737841145
 20
-691.6166239377708
 30
0.0
 10
758.3090682103211
 20
-681.8136948702831
 30
0.0
 10
760.1721698297406
 20
-676.885388458757
 30
0.0
 10
762.0370609076781
 20
-671.9572196978825
 30
0.0
 10
763.9034661428232
 20
-667.0289132863581
 30
0.0
 10
770.0970573778213
 20
-651.5860239194644
 30
0.0
 10
779.6607496064098
 20
-636.4728078720054
 30
0.0
 10
790.1162804306514
 20
-621.685686226936
 30
0.0
 10
797.7198273278373
 20
-611.1713785728825
 30
0.0
 10
808.05188551428
 20
-602.4652499267831
 30
0.0
 10
822.6520775694589
 20
-596.8777345270464
 30
0.0
 10
830.6042935765072
 20
-593.757469472821
 30
0.0
 10
838.1731525085561
 20
-592.2796520375723
 30
0.0
 10
845.2942338589346
 20
-592.279101434955
 30
0.0
 10
847.1778454259911
 20
-592.2796520375723
 30
0.0
 10
848.9918057614705
 20
-592.4420798108222
 30
0.0
 10
850.799571817457
 20
-592.6072605971749
 30
0.0
 10
860.6197072168616
 20
-593.5953170008852
 30
0.0
 10
866.1238063194869
 20
-597.8638638215798
 30
0.0
 10
865.978447227495
 20
-605.7512463699877
 30
0.0
 10
865.7533884060867
 20
-612.9796952314919
 30
0.0
 10
863.5834634760176
 20
-620.2080064423462
 30
0.0
 10
860.1734437923951
 20
-627.9295199511198
 30
0.0
 10
857.5708828527313
 20
-634.0089987928768
 30
0.0
 10
854.7628094847132
 20
-640.0865505254624
 30
0.0
 10
851.8408990247663
 20
-646.0002979782494
 30
0.0
 10
847.3757870683039
 20
-655.0367881970542
 30
0.0
 10
842.5236014691545
 20
-664.0702501014475
 30
0.0
 10
837.2350632927228
 20
-672.942385437831
 30
0.0
 10
824.4383701232218
 20
-694.4644783451713
 30
0.0
 10
813.2468212451167
 20
-716.148861375108
 30
0.0
 10
802.6792427874607
 20
-737.8364103701097
 30
0.0
 10
798.2274829445669
 20
-747.0909392269059
 30
0.0
 10
793.7728324379095
 20
-756.3454680836985
 30
0.0
 10
789.3154289181439
 20
-765.5999969404947
 30
0.0
 10
779.5445724533383
 20
-785.6441347619311
 30
0.0
 10
767.7655305784356
 20
-805.3579110106639
 30
0.0
 10
754.8230653649771
 20
-825.0716872593948
 30
0.0
 10
748.9559814843378
 20
-833.943271993161
 30
0.0
 10
742.2567993924386
 20
-842.157987799852
 30
0.0
 10
734.4700394730535
 20
-849.5514797970609
 30
0.0
 10
724.3349593743369
 20
-859.2437377376937
 30
0.0
 10
713.9189342881655
 20
-867.2943739632774
 30
0.0
 10
704.0306618143914
 20
-875.6720681458428
 30
0.0
 10
699.3020865036997
 20
-879.7799766518092
 30
0.0
 10
694.6850082237943
 20
-881.7500328303922
 30
0.0
 10
689.9904326249562
 20
-882.7374009808245
 30
0.0
 10
683.0759649081774
 20
-884.2154937173837
 30
0.0
 10
676.6350154456122
 20
-884.5436528796035
 30
0.0
 10
670.1066578169375
 20
-885.530057475451
 30
0.0
 10
668.2113459441789
 20
-885.8583542883316
 30
0.0
 10
666.4942916700275
 20
-886.0205067602674
 30
0.0
 10
664.8270669330959
 20
-886.0211950135454
 30
0.0
 10
650.6204181014073
 20
-886.0210573628847
 30
0.0
 10
643.0218266278134
 20
-875.507575612768
 30
0.0
 10
637.6147712371712
 20
-859.5724475025363
 30
0.0
  0
HATCH
  5
6F
330
65
100
AcDbEntity
  8
Layer 1
 62
   250
420
  2301728
100
AcDbHatch
 10
0.0
 20
0.0
 30
0.0
210
0.0
220
0.0
230
1.0
  2
SOLID
 70
     1
 71
     0
 91
        1
 92
        1
 93
        1
 72
     4
 94
        3
 73
     0
 74
     1
 95
      122
 96
      118
 40
0.0
 40
0.0
 40
0.0
 40
0.0
 40
1.0
 40
1.0
 40
1.0
 40
2.0
 40
2.0
 40
2.0
 40
3.0
 40
3.0
 40
3.0
 40
4.0
 40
4.0
 40
4.0
 40
5.0
 40
5.0
 40
5.0
 40
6.0
 40
6.0
 40
6.0
 40
7.0
 40
7.0
 40
7.0
 40
8.0
 40
8.0
 40
8.0
 40
9.0
 40
9.0
 40
9.0
 40
10.0
 40
10.0
 40
10.0
 40
11.0
 40
11.0
 40
11.0
 40
12.0
 40
12.0
 40
12.0
 40
13.0
 40
13.0
 40
13.0
 40
14.0
 40
14.0
 40
14.0
 40
15.0
 40
15.0
 40
15.0
 40
16.0
 40
16.0
 40
16.0
 40
17.0
 40
17.0
 40
17.0
 40
18.0
 40
18.0
 40
18.0
 40
19.0
 40
19.0
 40
19.0
 40
20.0
 40
20.0
 40
20.0
 40
21.0
 40
21.0
 40
21.0
 40
22.0
 40
22.0
 40
22.0
 40
23.0
 40
23.0
 40
23.0
 40
24.0
 40
24.0
 40
24.0
 40
25.0
 40
25.0
 40
25.0
 40
26.0
 40
26.0
 40
26.0
 40
27.0
 40
27.0
 40
27.0
 40
28.0
 40
28.0
 40
28.0
 40
29.0
 40
29.0
 40
29.0
 40
30.0
 40
30.0
 40
30.0
 40
31.0
 40
31.0
 40
31.0
 40
32.0
 40
32.0
 40
32.0
 40
33.0
 40
33.0
 40
33.0
 40
34.0
 40
34.0
 40
34.0
 40
35.0
 40
35.0
 40
35.0
 40
36.0
 40
36.0
 40
36.0
 40
37.0
 40
37.0
 40
37.0
 40
38.0
 40
38.0
 40
38.0
 40
39.0
 40
39.0
 40
39.0
 40
39.0
 10
637.6147712371712
 20
-859.5724475025363
 10
630.6883279133799
 20
-838.8719913566529
 10
628.2797167470271
 20
-815.3791540174534
 10
629.4180876663158
 20
-790.242767854028
 10
630.4094476857499
 20
-767.4090018523802
 10
633.4559319887412
 20
-744.4084032565188
 10
637.4451856298474
 20
-721.4086305645833
 10
639.1750414149392
 20
-711.385735749931
 10
641.1065554100387
 20
-701.1990366554801
 10
643.0230654837105
 20
-691.1783442513133
 10
647.0478329938815
 20
-669.9874388206135
 10
653.0568347001317
 20
-649.1209759844423
 10
660.8701611959841
 20
-628.2576791133397
 10
665.4934337553786
 20
-616.101061490961
 10
672.5860214201093
 20
-605.0928632857103
 10
686.3044233774672
 20
-596.3865969889575
 10
693.7707325713236
 20
-591.6211313026415
 10
701.2710414770372
 20
-589.3218147565931
 10
708.0016079183442
 20
-589.3212641539703
 10
716.209165890963
 20
-589.3214018046292
 10
723.3447005601483
 20
-592.7725790341865
 10
727.6996919923695
 20
-599.5074126458039
 10
731.7340950484104
 20
-605.9138117938874
 10
731.9127655989832
 20
-612.979970532806
 10
730.4908343297866
 20
-620.7012087402654
 10
729.6115219437634
 20
-625.1368634564933
 10
728.521604055135
 20
-629.572518172723
 10
727.2360845853364
 20
-634.0081728889454
 10
725.7131177351512
 20
-639.2647761133503
 10
724.0428646838009
 20
-644.3578503592689
 10
722.1421844354882
 20
-649.6144535836738
 10
716.47579521027
 20
-665.219770723812
 10
710.5590194430697
 20
-680.82852913034
 10
705.7837805602285
 20
-696.4354980783392
 10
704.092329307965
 20
-702.1859918539449
 10
702.4025298635643
 20
-707.9364856295506
 10
700.7145198776816
 20
-713.6869794051545
 10
695.055563787846
 20
-733.5631834271317
 10
690.7782073252092
 20
-753.2799879902796
 10
689.997039856411
 20
-772.6653297754765
 10
689.8598021530815
 20
-776.7729629801343
 10
689.9002714457383
 20
-780.7144518438527
 10
690.0576061447391
 20
-784.6574548647804
 10
690.0121814284939
 20
-787.2878212368105
 10
690.3045514203404
 20
-789.7498408574174
 10
690.9744971596592
 20
-791.8857660756312
 10
692.272955791057
 20
-796.3218337438211
 10
693.9597269210426
 20
-800.5931335776295
 10
699.0322912193187
 20
-800.5940971322143
 10
699.2745563726385
 20
-800.5939594815609
 10
699.5168215259582
 20
-800.5939594815609
 10
699.7589490286227
 20
-800.5940971322143
 10
705.0536814845436
 20
-799.9365399518683
 10
709.0083848111717
 20
-794.8431904046465
 10
712.4767683726386
 20
-790.0797894781608
 10
716.7348537435355
 20
-784.3301216064865
 10
720.0503074269691
 20
-778.0860125809941
 10
722.9785498170604
 20
-771.6786498783204
 10
732.100658743464
 20
-751.6375403712991
 10
738.8160836126845
 20
-731.4295982700587
 10
747.7277246871381
 20
-711.2224820727552
 10
751.2579133928339
 20
-701.4195530052657
 10
754.7850737841145
 20
-691.6166239377708
 10
758.3090682103211
 20
-681.8136948702831
 10
760.1721698297406
 20
-676.885388458757
 10
762.0370609076781
 20
-671.9572196978825
 10
763.9034661428232
 20
-667.0289132863581
 10
770.0970573778213
 20
-651.5860239194644
 10
779.6607496064098
 20
-636.4728078720054
 10
790.1162804306514
 20
-621.685686226936
 10
797.7198273278373
 20
-611.1713785728825
 10
808.05188551428
 20
-602.4652499267831
 10
822.6520775694589
 20
-596.8777345270464
 10
830.6042935765072
 20
-593.757469472821
 10
838.1731525085561
 20
-592.2796520375723
 10
845.2942338589346
 20
-592.279101434955
 10
847.1778454259911
 20
-592.2796520375723
 10
848.9918057614705
 20
-592.4420798108222
 10
850.799571817457
 20
-592.6072605971749
 10
860.6197072168616
 20
-593.5953170008852
 10
866.1238063194869
 20
-597.8638638215798
 10
865.978447227495
 20
-605.7512463699877
 10
865.7533884060867
 20
-612.9796952314919
 10
863.5834634760176
 20
-620.2080064423462
 10
860.1734437923951
 20
-627.9295199511198
 10
857.5708828527313
 20
-634.0089987928768
 10
854.7628094847132
 20
-640.0865505254624
 10
851.8408990247663
 20
-646.0002979782494
 10
847.3757870683039
 20
-655.0367881970542
 10
842.5236014691545
 20
-664.0702501014475
 10
837.2350632927228
 20
-672.942385437831
 10
824.4383701232218
 20
-694.4644783451713
 10
813.2468212451167
 20
-716.148861375108
 10
802.6792427874607
 20
-737.8364103701097
 10
798.2274829445669
 20
-747.0909392269059
 10
793.7728324379095
 20
-756.3454680836985
 10
789.3154289181439
 20
-765.5999969404947
 10
779.5445724533383
 20
-785.6441347619311
 10
767.7655305784356
 20
-805.3579110106639
 10
754.8230653649771
 20
-825.0716872593948
 10
748.9559814843378
 20
-833.943271993161
 10
742.2567993924386
 20
-842.157987799852
 10
734.4700394730535
 20
-849.5514797970609
 10
724.3349593743369
 20
-859.2437377376937
 10
713.9189342881655
 20
-867.2943739632774
 10
704.0306618143914
 20
-875.6720681458428
 10
699.3020865036997
 20
-879.7799766518092
 10
694.6850082237943
 20
-881.7500328303922
 10
689.9904326249562
 20
-882.7374009808245
 10
683.0759649081774
 20
-884.2154937173837
 10
676.6350154456122
 20
-884.5436528796035
 10
670.1066578169375
 20
-885.530057475451
 10
668.2113459441789
 20
-885.8583542883316
 10
666.4942916700275
 20
-886.0205067602674
 10
664.8270669330959
 20
-886.0211950135454
 10
650.6204181014073
 20
-886.0210573628847
 10
643.0218266278134
 20
-875.507575612768
 10
637.6147712371712
 20
-859.5724475025363
 97
        0
 97
        0
 75
     2
 76
     1
 98
        0
  0
ENDBLK
  5
68
330
65
100
AcDbEntity
  8
0
100
AcDbBlockEnd
  0
ENDSEC
  0
SECTION
  2
ENTITIES
  0
INSERT
  5
42
330
1F
100
AcDbEntity
  8
Layer 1
100
AcDbBlockReference
  2
block 2
 10
0.0
 20
0.0
 30
0.0
  0
ENDSEC
  0
SECTION
  2
OBJECTS
  0
DICTIONARY
  5
C
330
0
100
AcDbDictionary
281
     1
  3
ACAD_GROUP
350
D
  3
ACAD_LAYOUT
350
1A
  3
ACAD_MATERIAL
350
3B
  3
ACAD_MLEADERSTYLE
350
71
  3
ACAD_MLINESTYLE
350
17
  3
ACAD_PLOTSETTINGS
350
19
  3
ACAD_PLOTSTYLENAME
350
E
  3
ACAD_TABLESTYLE
350
70
  3
ACAD_VISUALSTYLE
350
2A
  0
SUN
  5
3F
330
29
100
AcDbSun
 90
        1
290
     0
 63
     7
421
 16777215
 40
1.0
291
     1
 91
  2455826
 92
 54000000
292
     0
 70
     2
 71
   256
280
     1
  0
DICTIONARY
  5
D
102
{ACAD_REACTORS
330
C
102
}
330
C
100
AcDbDictionary
281
     1
  0
DICTIONARY
  5
1A
102
{ACAD_REACTORS
330
C
102
}
330
C
100
AcDbDictionary
281
     1
  3
Layout1
350
1E
  3
Layout2
350
26
  3
Model
350
22
  0
DICTIONARY
  5
3B
102
{ACAD_REACTORS
330
C
102
}
330
C
100
AcDbDictionary
281
     1
  3
ByBlock
350
3D
  3
ByLayer
350
3C
  3
Global
350
3E
  0
DICTIONARY
  5
71
102
{ACAD_REACTORS
330
C
102
}
330
C
100
AcDbDictionary
281
     1
  0
DICTIONARY
  5
17
102
{ACAD_REACTORS
330
C
102
}
330
C
100
AcDbDictionary
281
     1
  3
Standard
350
18
  0
DICTIONARY
  5
19
102
{ACAD_REACTORS
330
C
102
}
330
C
100
AcDbDictionary
281
     1
  0
ACDBDICTIONARYWDFLT
  5
E
102
{ACAD_REACTORS
330
C
102
}
330
C
100
AcDbDictionary
281
     1
  3
Normal
350
F
100
AcDbDictionaryWithDefault
340
F
  0
DICTIONARY
  5
70
102
{ACAD_REACTORS
330
C
102
}
330
C
100
AcDbDictionary
281
     1
  0
DICTIONARY
  5
2A
102
{ACAD_REACTORS
330
C
102
}
330
C
100
AcDbDictionary
281
     1
  3
2dWireframe
350
2F
  3
3D Hidden
350
31
  3
3dWireframe
350
30
  3
Basic
350
32
  3
Brighten
350
36
  3
ColorChange
350
3A
  3
Conceptual
350
34
  3
Dim
350
35
  3
Facepattern
350
39
  3
Flat
350
2B
  3
FlatWithEdges
350
2C
  3
Gouraud
350
2D
  3
GouraudWithEdges
350
2E
  3
Linepattern
350
38
  3
Realistic
350
33
  3
Thicken
350
37
  0
LAYOUT
  5
1E
102
{ACAD_REACTORS
330
1A
102
}
330
1A
100
AcDbPlotSettings
  1

  2
none_device
  4

  6

 40
0.0
 41
0.0
 42
0.0
 43
0.0
 44
0.0
 45
0.0
 46
0.0
 47
0.0
 48
0.0
 49
0.0
140
0.0
141
0.0
142
1.0
143
1.0
 70
   688
 72
     0
 73
     0
 74
     5
  7

 75
    16
 76
     0
 77
     2
 78
   300
147
1.0
148
0.0
149
0.0
100
AcDbLayout
  1
Layout1
 70
     1
 71
     1
 10
0.0
 20
0.0
 11
12.0
 21
9.0
 12
0.0
 22
0.0
 32
0.0
 14
1.000000000000000E+20
 24
1.000000000000000E+20
 34
1.000000000000000E+20
 15
-1.000000000000000E+20
 25
-1.000000000000000E+20
 35
-1.000000000000000E+20
146
0.0
 13
0.0
 23
0.0
 33
0.0
 16
1.0
 26
0.0
 36
0.0
 17
0.0
 27
1.0
 37
0.0
 76
     0
330
1B
  0
LAYOUT
  5
26
102
{ACAD_REACTORS
330
1A
102
}
330
1A
100
AcDbPlotSettings
  1

  2
none_device
  4

  6

 40
0.0
 41
0.0
 42
0.0
 43
0.0
 44
0.0
 45
0.0
 46
0.0
 47
0.0
 48
0.0
 49
0.0
140
0.0
141
0.0
142
1.0
143
1.0
 70
   688
 72
     0
 73
     0
 74
     5
  7

 75
    16
 76
     0
 77
     2
 78
   300
147
1.0
148
0.0
149
0.0
100
AcDbLayout
  1
Layout2
 70
     1
 71
     2
 10
0.0
 20
0.0
 11
0.0
 21
0.0
 12
0.0
 22
0.0
 32
0.0
 14
0.0
 24
0.0
 34
0.0
 15
0.0
 25
0.0
 35
0.0
146
0.0
 13
0.0
 23
0.0
 33
0.0
 16
1.0
 26
0.0
 36
0.0
 17
0.0
 27
1.0
 37
0.0
 76
     0
330
23
  0
LAYOUT
  5
22
102
{ACAD_REACTORS
330
1A
102
}
330
1A
100
AcDbPlotSettings
  1

  2
none_device
  4

  6

 40
0.0
 41
0.0
 42
0.0
 43
0.0
 44
0.0
 45
0.0
 46
0.0
 47
0.0
 48
0.0
 49
0.0
140
0.0
141
0.0
142
1.0
143
1.0
 70
  1712
 72
     0
 73
     0
 74
     0
  7

 75
     0
 76
     0
 77
     2
 78
   300
147
1.0
148
0.0
149
0.0
100
AcDbLayout
  1
Model
 70
     1
 71
     0
 10
0.0
 20
0.0
 11
12.0
 21
9.0
 12
0.0
 22
0.0
 32
0.0
 14
1.000000000000000E+20
 24
1.000000000000000E+20
 34
1.000000000000000E+20
 15
-1.000000000000000E+20
 25
-1.000000000000000E+20
 35
-1.000000000000000E+20
146
0.0
 13
0.0
 23
0.0
 33
0.0
 16
1.0
 26
0.0
 36
0.0
 17
0.0
 27
1.0
 37
0.0
 76
     0
330
1F
331
29
  0
MATERIAL
  5
3D
102
{ACAD_REACTORS
330
3B
102
}
330
3B
100
AcDbMaterial
  1
ByBlock
 72
     1
 94
      127
  0
MATERIAL
  5
3C
102
{ACAD_REACTORS
330
3B
102
}
330
3B
100
AcDbMaterial
  1
ByLayer
 72
     1
 94
      127
  0
MATERIAL
  5
3E
102
{ACAD_REACTORS
330
3B
102
}
330
3B
100
AcDbMaterial
  1
Global
 72
     1
 94
      127
  0
MLINESTYLE
  5
18
102
{ACAD_REACTORS
330
17
102
}
330
17
100
AcDbMlineStyle
  2
Standard
 70
     0
  3

 62
   256
 51
90.0
 52
90.0
 71
     2
 49
0.5
 62
   256
  6
BYLAYER
 49
-0.5
 62
   256
  6
BYLAYER
  0
ACDBPLACEHOLDER
  5
F
102
{ACAD_REACTORS
330
E
102
}
330
E
  0
VISUALSTYLE
  5
2F
102
{ACAD_REACTORS
330
2A
102
}
330
2A
100
AcDbVisualStyle
  2
2dWireframe
 70
     4
177
     2
291
     0
 71
     0
176
     1
 72
     2
176
     1
 73
     0
176
     1
 90
        0
176
     1
 40
-0.6
176
     1
 41
-30.0
176
     1
 62
     5
 63
     7
421
 16777215
176
     1
 74
     1
176
     1
 91
        4
176
     1
 64
     7
176
     1
 65
   257
176
     1
 75
     1
176
     1
175
     1
176
     1
 42
1.0
176
     1
 92
        0
176
     1
 66
   257
176
     1
 43
1.0
176
     1
 76
     1
176
     1
 77
     6
176
     1
 78
     2
176
     1
 67
     7
176
     1
 79
     5
176
     1
170
     0
176
     1
171
     0
176
     1
290
     0
176
     1
 93
        1
176
     1
 44
0.0
176
     1
173
     0
176
     1
  0
VISUALSTYLE
  5
31
102
{ACAD_REACTORS
330
2A
102
}
330
2A
100
AcDbVisualStyle
  2
3D Hidden
 70
     6
177
     2
291
     0
 71
     1
176
     1
 72
     2
176
     1
 73
     2
176
     1
 90
        0
176
     1
 40
-0.6
176
     1
 41
-30.0
176
     1
 62
     5
 63
     7
421
 16777215
176
     1
 74
     2
176
     1
 91
        2
176
     1
 64
     7
176
     1
 65
   257
176
     1
 75
     2
176
     1
175
     1
176
     1
 42
40.0
176
     1
 92
        0
176
     1
 66
   257
176
     1
 43
1.0
176
     1
 76
     1
176
     1
 77
     6
176
     1
 78
     2
176
     1
 67
     7
176
     1
 79
     3
176
     1
170
     0
176
     1
171
     0
176
     1
290
     0
176
     1
 93
        1
176
     1
 44
0.0
176
     1
173
     0
176
     1
  0
VISUALSTYLE
  5
30
102
{ACAD_REACTORS
330
2A
102
}
330
2A
100
AcDbVisualStyle
  2
3dWireframe
 70
     5
177
     2
291
     0
 71
     0
176
     1
 72
     2
176
     1
 73
     0
176
     1
 90
        0
176
     1
 40
-0.6
176
     1
 41
-30.0
176
     1
 62
     5
 63
     7
421
 16777215
176
     1
 74
     1
176
     1
 91
        4
176
     1
 64
     7
176
     1
 65
   257
176
     1
 75
     1
176
     1
175
     1
176
     1
 42
1.0
176
     1
 92
        0
176
     1
 66
   257
176
     1
 43
1.0
176
     1
 76
     1
176
     1
 77
     6
176
     1
 78
     2
176
     1
 67
     7
176
     1
 79
     5
176
     1
170
     0
176
     1
171
     0
176
     1
290
     0
176
     1
 93
        1
176
     1
 44
0.0
176
     1
173
     0
176
     1
  0
VISUALSTYLE
  5
32
102
{ACAD_REACTORS
330
2A
102
}
330
2A
100
AcDbVisualStyle
  2
Basic
 70
     7
177
     2
291
     1
 71
     1
176
     1
 72
     0
176
     1
 73
     1
176
     1
 90
        0
176
     1
 40
-0.6
176
     1
 41
-30.0
176
     1
 62
     5
 63
     7
421
 16777215
176
     1
 74
     0
176
     1
 91
        4
176
     1
 64
     7
176
     1
 65
   257
176
     1
 75
     1
176
     1
175
     1
176
     1
 42
1.0
176
     1
 92
        8
176
     1
 66
     7
176
     1
 43
1.0
176
     1
 76
     1
176
     1
 77
     6
176
     1
 78
     2
176
     1
 67
     7
176
     1
 79
     5
176
     1
170
     0
176
     1
171
     0
176
     1
290
     0
176
     1
 93
        1
176
     1
 44
0.0
176
     1
173
     0
176
     1
  0
VISUALSTYLE
  5
36
102
{ACAD_REACTORS
330
2A
102
}
330
2A
100
AcDbVisualStyle
  2
Brighten
 70
    12
177
     2
291
     1
 71
     2
176
     1
 72
     2
176
     1
 73
     0
176
     1
 90
        0
176
     1
 40
-0.6
176
     1
 41
-30.0
176
     1
 62
     5
 63
     7
421
 16777215
176
     1
 74
     1
176
     1
 91
        4
176
     1
 64
     7
176
     1
 65
   257
176
     1
 75
     1
176
     1
175
     1
176
     1
 42
1.0
176
     1
 92
        8
176
     1
 66
     7
176
     1
 43
1.0
176
     1
 76
     1
176
     1
 77
     6
176
     1
 78
     2
176
     1
 67
     7
176
     1
 79
     5
176
     1
170
     0
176
     1
171
     0
176
     1
290
     0
176
     1
 93
        1
176
     1
 44
50.0
176
     1
173
     0
176
     1
  0
VISUALSTYLE
  5
3A
102
{ACAD_REACTORS
330
2A
102
}
330
2A
100
AcDbVisualStyle
  2
ColorChange
 70
    16
177
     2
291
     1
 71
     2
176
     1
 72
     2
176
     1
 73
     3
176
     1
 90
        0
176
     1
 40
-0.6
176
     1
 41
-30.0
176
     1
 62
     5
 63
     8
421
  8421504
176
     1
 74
     1
176
     1
 91
        4
176
     1
 64
     7
176
     1
 65
   257
176
     1
 75
     1
176
     1
175
     1
176
     1
 42
1.0
176
     1
 92
        8
176
     1
 66
     8
424
  8421504
176
     1
 43
1.0
176
     1
 76
     1
176
     1
 77
     6
176
     1
 78
     2
176
     1
 67
     7
176
     1
 79
     5
176
     1
170
     0
176
     1
171
     0
176
     1
290
     0
176
     1
 93
        1
176
     1
 44
0.0
176
     1
173
     0
176
     1
  0
VISUALSTYLE
  5
34
102
{ACAD_REACTORS
330
2A
102
}
330
2A
100
AcDbVisualStyle
  2
Conceptual
 70
     9
177
     2
291
     0
 71
     3
176
     1
 72
     2
176
     1
 73
     0
176
     1
 90
        0
176
     1
 40
-0.6
176
     1
 41
-30.0
176
     1
 62
     5
 63
     7
421
 16777215
176
     1
 74
     2
176
     1
 91
        2
176
     1
 64
     7
176
     1
 65
   257
176
     1
 75
     1
176
     1
175
     1
176
     1
 42
40.0
176
     1
 92
        8
176
     1
 66
     7
176
     1
 43
1.0
176
     1
 76
     1
176
     1
 77
     6
176
     1
 78
     2
176
     1
 67
     7
176
     1
 79
     3
176
     1
170
     0
176
     1
171
     0
176
     1
290
     0
176
     1
 93
        1
176
     1
 44
0.0
176
     1
173
     0
176
     1
  0
VISUALSTYLE
  5
35
102
{ACAD_REACTORS
330
2A
102
}
330
2A
100
AcDbVisualStyle
  2
Dim
 70
    11
177
     2
291
     1
 71
     2
176
     1
 72
     2
176
     1
 73
     0
176
     1
 90
        0
176
     1
 40
-0.6
176
     1
 41
-30.0
176
     1
 62
     5
 63
     7
421
 16777215
176
     1
 74
     1
176
     1
 91
        4
176
     1
 64
     7
176
     1
 65
   257
176
     1
 75
     1
176
     1
175
     1
176
     1
 42
1.0
176
     1
 92
        8
176
     1
 66
     7
176
     1
 43
1.0
176
     1
 76
     1
176
     1
 77
     6
176
     1
 78
     2
176
     1
 67
     7
176
     1
 79
     5
176
     1
170
     0
176
     1
171
     0
176
     1
290
     0
176
     1
 93
        1
176
     1
 44
-50.0
176
     1
173
     0
176
     1
  0
VISUALSTYLE
  5
39
102
{ACAD_REACTORS
330
2A
102
}
330
2A
100
AcDbVisualStyle
  2
Facepattern
 70
    15
177
     2
291
     1
 71
     2
176
     1
 72
     2
176
     1
 73
     0
176
     1
 90
        0
176
     1
 40
-0.6
176
     1
 41
-30.0
176
     1
 62
     5
 63
     7
421
 16777215
176
     1
 74
     1
176
     1
 91
        4
176
     1
 64
     7
176
     1
 65
   257
176
     1
 75
     1
176
     1
175
     1
176
     1
 42
1.0
176
     1
 92
        8
176
     1
 66
     7
176
     1
 43
1.0
176
     1
 76
     1
176
     1
 77
     6
176
     1
 78
     2
176
     1
 67
     7
176
     1
 79
     5
176
     1
170
     0
176
     1
171
     0
176
     1
290
     0
176
     1
 93
        1
176
     1
 44
0.0
176
     1
173
     0
176
     1
  0
VISUALSTYLE
  5
2B
102
{ACAD_REACTORS
330
2A
102
}
330
2A
100
AcDbVisualStyle
  2
Flat
 70
     0
177
     2
291
     1
 71
     2
176
     1
 72
     1
176
     1
 73
     1
176
     1
 90
        2
176
     1
 40
-0.6
176
     1
 41
30.0
176
     1
 62
     5
 63
     7
421
 16777215
176
     1
 74
     0
176
     1
 91
        4
176
     1
 64
     7
176
     1
 65
   257
176
     1
 75
     1
176
     1
175
     1
176
     1
 42
1.0
176
     1
 92
        8
176
     1
 66
     7
176
     1
 43
1.0
176
     1
 76
     1
176
     1
 77
     6
176
     1
 78
     2
176
     1
 67
     7
176
     1
 79
     5
176
     1
170
     0
176
     1
171
     0
176
     1
290
     0
176
     1
 93
       13
176
     1
 44
0.0
176
     1
173
     0
176
     1
  0
VISUALSTYLE
  5
2C
102
{ACAD_REACTORS
330
2A
102
}
330
2A
100
AcDbVisualStyle
  2
FlatWithEdges
 70
     1
177
     2
291
     1
 71
     2
176
     1
 72
     1
176
     1
 73
     1
176
     1
 90
        2
176
     1
 40
-0.6
176
     1
 41
30.0
176
     1
 62
     5
 63
     7
421
 16777215
176
     1
 74
     1
176
     1
 91
        4
176
     1
 64
     7
176
     1
 65
   257
176
     1
 75
     1
176
     1
175
     1
176
     1
 42
1.0
176
     1
 92
        0
176
     1
 66
   257
176
     1
 43
1.0
176
     1
 76
     1
176
     1
 77
     6
176
     1
 78
     2
176
     1
 67
     7
176
     1
 79
     5
176
     1
170
     0
176
     1
171
     0
176
     1
290
     0
176
     1
 93
       13
176
     1
 44
0.0
176
     1
173
     0
176
     1
  0
VISUALSTYLE
  5
2D
102
{ACAD_REACTORS
330
2A
102
}
330
2A
100
AcDbVisualStyle
  2
Gouraud
 70
     2
177
     2
291
     1
 71
     2
176
     1
 72
     2
176
     1
 73
     1
176
     1
 90
        2
176
     1
 40
-0.6
176
     1
 41
30.0
176
     1
 62
     5
 63
     7
421
 16777215
176
     1
 74
     0
176
     1
 91
        4
176
     1
 64
     7
176
     1
 65
   257
176
     1
 75
     1
176
     1
175
     1
176
     1
 42
1.0
176
     1
 92
        0
176
     1
 66
     7
176
     1
 43
1.0
176
     1
 76
     1
176
     1
 77
     6
176
     1
 78
     2
176
     1
 67
     7
176
     1
 79
     5
176
     1
170
     0
176
     1
171
     0
176
     1
290
     0
176
     1
 93
       13
176
     1
 44
0.0
176
     1
173
     0
176
     1
  0
VISUALSTYLE
  5
2E
102
{ACAD_REACTORS
330
2A
102
}
330
2A
100
AcDbVisualStyle
  2
GouraudWithEdges
 70
     3
177
     2
291
     1
 71
     2
176
     1
 72
     2
176
     1
 73
     1
176
     1
 90
        2
176
     1
 40
-0.6
176
     1
 41
30.0
176
     1
 62
     5
 63
     7
421
 16777215
176
     1
 74
     1
176
     1
 91
        4
176
     1
 64
     7
176
     1
 65
   257
176
     1
 75
     1
176
     1
175
     1
176
     1
 42
1.0
176
     1
 92
        0
176
     1
 66
   257
176
     1
 43
1.0
176
     1
 76
     1
176
     1
 77
     6
176
     1
 78
     2
176
     1
 67
     7
176
     1
 79
     5
176
     1
170
     0
176
     1
171
     0
176
     1
290
     0
176
     1
 93
       13
176
     1
 44
0.0
176
     1
173
     0
176
     1
  0
VISUALSTYLE
  5
38
102
{ACAD_REACTORS
330
2A
102
}
330
2A
100
AcDbVisualStyle
  2
Linepattern
 70
    14
177
     2
291
     1
 71
     2
176
     1
 72
     2
176
     1
 73
     0
176
     1
 90
        0
176
     1
 40
-0.6
176
     1
 41
-30.0
176
     1
 62
     5
 63
     7
421
 16777215
176
     1
 74
     1
176
     1
 91
        4
176
     1
 64
     7
176
     1
 65
   257
176
     1
 75
     7
176
     1
175
     7
176
     1
 42
1.0
176
     1
 92
        8
176
     1
 66
     7
176
     1
 43
1.0
176
     1
 76
     1
176
     1
 77
     6
176
     1
 78
     2
176
     1
 67
     7
176
     1
 79
     5
176
     1
170
     0
176
     1
171
     0
176
     1
290
     0
176
     1
 93
        1
176
     1
 44
0.0
176
     1
173
     0
176
     1
  0
VISUALSTYLE
  5
33
102
{ACAD_REACTORS
330
2A
102
}
330
2A
100
AcDbVisualStyle
  2
Realistic
 70
     8
177
     2
291
     0
 71
     2
176
     1
 72
     2
176
     1
 73
     0
176
     1
 90
        0
176
     1
 40
-0.6
176
     1
 41
-30.0
176
     1
 62
     5
 63
     7
421
 16777215
176
     1
 74
     1
176
     1
 91
        0
176
     1
 64
     7
176
     1
 65
   257
176
     1
 75
     1
176
     1
175
     1
176
     1
 42
1.0
176
     1
 92
        8
176
     1
 66
     8
424
  7895160
176
     1
 43
1.0
176
     1
 76
     1
176
     1
 77
     6
176
     1
 78
     2
176
     1
 67
     7
176
     1
 79
     5
176
     1
170
     0
176
     1
171
     0
176
     1
290
     0
176
     1
 93
       13
176
     1
 44
0.0
176
     1
173
     0
176
     1
  0
VISUALSTYLE
  5
37
102
{ACAD_REACTORS
330
2A
102
}
330
2A
100
AcDbVisualStyle
  2
Thicken
 70
    13
177
     2
291
     1
 71
     2
176
     1
 72
     2
176
     1
 73
     0
176
     1
 90
        0
176
     1
 40
-0.6
176
     1
 41
-30.0
176
     1
 62
     5
 63
     7
421
 16777215
176
     1
 74
     1
176
     1
 91
        4
176
     1
 64
     7
176
     1
 65
   257
176
     1
 75
     1
176
     1
175
     1
176
     1
 42
1.0
176
     1
 92
       12
176
     1
 66
     7
176
     1
 43
1.0
176
     1
 76
     1
176
     1
 77
     6
176
     1
 78
     2
176
     1
 67
     7
176
     1
 79
     5
176
     1
170
     0
176
     1
171
     0
176
     1
290
     0
176
     1
 93
        1
176
     1
 44
0.0
176
     1
173
     0
176
     1
  0
ENDSEC
  0
EOF
