  0
SECTION
  2
HEADER
  9
$ACADVER
  1
AC1024
  9
$ACADMAINTVER
 70
     6
  9
$DWGCODEPAGE
  3
ANSI_1252
  9
$INSBASE
 10
0.0
 20
0.0
 30
0.0
  9
$EXTMIN
 10
1.000000000000000E+20
 20
1.000000000000000E+20
 30
1.000000000000000E+20
  9
$EXTMAX
 10
-1.000000000000000E+20
 20
-1.000000000000000E+20
 30
-1.000000000000000E+20
  9
$LIMMIN
 10
0.0
 20
0.0
  9
$LIMMAX
 10
12.0
 20
9.0
  9
$ORTHOMODE
 70
     0
  9
$REGENMODE
 70
     1
  9
$FILLMODE
 70
     1
  9
$QTEXTMODE
 70
     0
  9
$MIRRTEXT
 70
     1
  9
$LTSCALE
 40
1.0
  9
$ATTMODE
 70
     1
  9
$TEXTSIZE
 40
0.2
  9
$TRACEWID
 40
0.05
  9
$TEXTSTYLE
  7
Standard
  9
$CLAYER
  8
0
  9
$CELTYPE
  6
ByLayer
  9
$CECOLOR
 62
   256
  9
$CELTSCALE
 40
1.0
  9
$DISPSILH
 70
     0
  9
$DIMSCALE
 40
1.0
  9
$DIMASZ
 40
0.18
  9
$DIMEXO
 40
0.0625
  9
$DIMDLI
 40
0.38
  9
$DIMRND
 40
0.0
  9
$DIMDLE
 40
0.0
  9
$DIMEXE
 40
0.18
  9
$DIMTP
 40
0.0
  9
$DIMTM
 40
0.0
  9
$DIMTXT
 40
0.18
  9
$DIMCEN
 40
0.09
  9
$DIMTSZ
 40
0.0
  9
$DIMTOL
 70
     0
  9
$DIMLIM
 70
     0
  9
$DIMTIH
 70
     1
  9
$DIMTOH
 70
     1
  9
$DIMSE1
 70
     0
  9
$DIMSE2
 70
     0
  9
$DIMTAD
 70
     0
  9
$DIMZIN
 70
     0
  9
$DIMBLK
  1

  9
$DIMASO
 70
     1
  9
$DIMSHO
 70
     1
  9
$DIMPOST
  1

  9
$DIMAPOST
  1

  9
$DIMALT
 70
     0
  9
$DIMALTD
 70
     2
  9
$DIMALTF
 40
25.4
  9
$DIMLFAC
 40
1.0
  9
$DIMTOFL
 70
     0
  9
$DIMTVP
 40
0.0
  9
$DIMTIX
 70
     0
  9
$DIMSOXD
 70
     0
  9
$DIMSAH
 70
     0
  9
$DIMBLK1
  1

  9
$DIMBLK2
  1

  9
$DIMSTYLE
  2
Standard
  9
$DIMCLRD
 70
     0
  9
$DIMCLRE
 70
     0
  9
$DIMCLRT
 70
     0
  9
$DIMTFAC
 40
1.0
  9
$DIMGAP
 40
0.09
  9
$DIMJUST
 70
     0
  9
$DIMSD1
 70
     0
  9
$DIMSD2
 70
     0
  9
$DIMTOLJ
 70
     1
  9
$DIMTZIN
 70
     0
  9
$DIMALTZ
 70
     0
  9
$DIMALTTZ
 70
     0
  9
$DIMUPT
 70
     0
  9
$DIMDEC
 70
     4
  9
$DIMTDEC
 70
     4
  9
$DIMALTU
 70
     2
  9
$DIMALTTD
 70
     2
  9
$DIMTXSTY
  7
Standard
  9
$DIMAUNIT
 70
     0
  9
$DIMADEC
 70
     0
  9
$DIMALTRND
 40
0.0
  9
$DIMAZIN
 70
     0
  9
$DIMDSEP
 70
    46
  9
$DIMATFIT
 70
     3
  9
$DIMFRAC
 70
     0
  9
$DIMLDRBLK
  1

  9
$DIMLUNIT
 70
     2
  9
$DIMLWD
 70
    -2
  9
$DIMLWE
 70
    -2
  9
$DIMTMOVE
 70
     0
  9
$DIMFXL
 40
1.0
  9
$DIMFXLON
 70
     0
  9
$DIMJOGANG
 40
0.7853981633974483
  9
$DIMTFILL
 70
     0
  9
$DIMTFILLCLR
 70
     0
  9
$DIMARCSYM
 70
     0
  9
$DIMLTYPE
  6

  9
$DIMLTEX1
  6

  9
$DIMLTEX2
  6

  9
$DIMTXTDIRECTION
 70
     0
  9
$LUNITS
 70
     2
  9
$LUPREC
 70
     4
  9
$SKETCHINC
 40
0.1
  9
$FILLETRAD
 40
0.5
  9
$AUNITS
 70
     0
  9
$AUPREC
 70
     0
  9
$MENU
  1
.
  9
$ELEVATION
 40
0.0
  9
$PELEVATION
 40
0.0
  9
$THICKNESS
 40
0.0
  9
$LIMCHECK
 70
     0
  9
$CHAMFERA
 40
0.5
  9
$CHAMFERB
 40
0.5
  9
$CHAMFERC
 40
1.0
  9
$CHAMFERD
 40
0.0
  9
$SKPOLY
 70
     0
  9
$TDCREATE
 40
2459566.986888449
  9
$TDUCREATE
 40
2459566.736888449
  9
$TDUPDATE
 40
2459566.986888495
  9
$TDUUPDATE
 40
2459566.736888495
  9
$TDINDWG
 40
0.0000000116
  9
$TDUSRTIMER
 40
0.0000000116
  9
$USRTIMER
 70
     1
  9
$ANGBASE
 50
0.0
  9
$ANGDIR
 70
     0
  9
$PDMODE
 70
     0
  9
$PDSIZE
 40
0.0
  9
$PLINEWID
 40
0.0
  9
$SPLFRAME
 70
     0
  9
$SPLINETYPE
 70
     6
  9
$SPLINESEGS
 70
     8
  9
$HANDSEED
  5
78
  9
$SURFTAB1
 70
     6
  9
$SURFTAB2
 70
     6
  9
$SURFTYPE
 70
     6
  9
$SURFU
 70
     6
  9
$SURFV
 70
     6
  9
$UCSBASE
  2

  9
$UCSNAME
  2

  9
$UCSORG
 10
0.0
 20
0.0
 30
0.0
  9
$UCSXDIR
 10
1.0
 20
0.0
 30
0.0
  9
$UCSYDIR
 10
0.0
 20
1.0
 30
0.0
  9
$UCSORTHOREF
  2

  9
$UCSORTHOVIEW
 70
     0
  9
$UCSORGTOP
 10
0.0
 20
0.0
 30
0.0
  9
$UCSORGBOTTOM
 10
0.0
 20
0.0
 30
0.0
  9
$UCSORGLEFT
 10
0.0
 20
0.0
 30
0.0
  9
$UCSORGRIGHT
 10
0.0
 20
0.0
 30
0.0
  9
$UCSORGFRONT
 10
0.0
 20
0.0
 30
0.0
  9
$UCSORGBACK
 10
0.0
 20
0.0
 30
0.0
  9
$PUCSBASE
  2

  9
$PUCSNAME
  2

  9
$PUCSORG
 10
0.0
 20
0.0
 30
0.0
  9
$PUCSXDIR
 10
1.0
 20
0.0
 30
0.0
  9
$PUCSYDIR
 10
0.0
 20
1.0
 30
0.0
  9
$PUCSORTHOREF
  2

  9
$PUCSORTHOVIEW
 70
     0
  9
$PUCSORGTOP
 10
0.0
 20
0.0
 30
0.0
  9
$PUCSORGBOTTOM
 10
0.0
 20
0.0
 30
0.0
  9
$PUCSORGLEFT
 10
0.0
 20
0.0
 30
0.0
  9
$PUCSORGRIGHT
 10
0.0
 20
0.0
 30
0.0
  9
$PUCSORGFRONT
 10
0.0
 20
0.0
 30
0.0
  9
$PUCSORGBACK
 10
0.0
 20
0.0
 30
0.0
  9
$USERI1
 70
     0
  9
$USERI2
 70
     0
  9
$USERI3
 70
     0
  9
$USERI4
 70
     0
  9
$USERI5
 70
     0
  9
$USERR1
 40
0.0
  9
$USERR2
 40
0.0
  9
$USERR3
 40
0.0
  9
$USERR4
 40
0.0
  9
$USERR5
 40
0.0
  9
$WORLDVIEW
 70
     1
  9
$SHADEDGE
 70
     3
  9
$SHADEDIF
 70
    70
  9
$TILEMODE
 70
     1
  9
$MAXACTVP
 70
    64
  9
$PINSBASE
 10
0.0
 20
0.0
 30
0.0
  9
$PLIMCHECK
 70
     0
  9
$PEXTMIN
 10
1.000000000000000E+20
 20
1.000000000000000E+20
 30
1.000000000000000E+20
  9
$PEXTMAX
 10
-1.000000000000000E+20
 20
-1.000000000000000E+20
 30
-1.000000000000000E+20
  9
$PLIMMIN
 10
0.0
 20
0.0
  9
$PLIMMAX
 10
12.0
 20
9.0
  9
$UNITMODE
 70
     0
  9
$VISRETAIN
 70
     1
  9
$PLINEGEN
 70
     0
  9
$PSLTSCALE
 70
     1
  9
$TREEDEPTH
 70
  3020
  9
$CMLSTYLE
  2
Standard
  9
$CMLJUST
 70
     0
  9
$CMLSCALE
 40
1.0
  9
$PROXYGRAPHICS
 70
     1
  9
$MEASUREMENT
 70
     0
  9
$CELWEIGHT
370
    -1
  9
$ENDCAPS
280
     0
  9
$JOINSTYLE
280
     0
  9
$LWDISPLAY
290
     1
  9
$INSUNITS
 70
     1
  9
$HYPERLINKBASE
  1

  9
$STYLESHEET
  1

  9
$XEDIT
290
     1
  9
$CEPSNTYPE
380
     0
  9
$PSTYLEMODE
290
     1
  9
$FINGERPRINTGUID
  2
{CEE14713-F740-4D11-A1DB-5045CFE987C8}
  9
$VERSIONGUID
  2
{FAEB1C32-E019-11D5-929B-00C0DF256EC4}
  9
$EXTNAMES
290
     1
  9
$PSVPSCALE
 40
0.0
  9
$OLESTARTUP
290
     0
  9
$SORTENTS
280
   127
  9
$INDEXCTL
280
     0
  9
$HIDETEXT
280
     1
  9
$XCLIPFRAME
280
     2
  9
$HALOGAP
280
     0
  9
$OBSCOLOR
 70
   257
  9
$OBSLTYPE
280
     0
  9
$INTERSECTIONDISPLAY
280
     0
  9
$INTERSECTIONCOLOR
 70
   257
  9
$DIMASSOC
280
     2
  9
$PROJECTNAME
  1

  9
$CAMERADISPLAY
290
     0
  9
$LENSLENGTH
 40
50.0
  9
$CAMERAHEIGHT
 40
0.0
  9
$STEPSPERSEC
 40
2.0
  9
$STEPSIZE
 40
6.0
  9
$3DDWFPREC
 40
2.0
  9
$PSOLWIDTH
 40
0.25
  9
$PSOLHEIGHT
 40
4.0
  9
$LOFTANG1
 40
1.570796326794897
  9
$LOFTANG2
 40
1.570796326794897
  9
$LOFTMAG1
 40
0.0
  9
$LOFTMAG2
 40
0.0
  9
$LOFTPARAM
 70
     7
  9
$LOFTNORMALS
280
     1
  9
$LATITUDE
 40
37.795
  9
$LONGITUDE
 40
-122.394
  9
$NORTHDIRECTION
 40
0.0
  9
$TIMEZONE
 70
 -8000
  9
$LIGHTGLYPHDISPLAY
280
     1
  9
$TILEMODELIGHTSYNCH
280
     1
  9
$CMATERIAL
347
3C
  9
$SOLIDHIST
280
     1
  9
$SHOWHIST
280
     1
  9
$DWFFRAME
280
     2
  9
$DGNFRAME
280
     2
  9
$REALWORLDSCALE
290
     1
  9
$INTERFERECOLOR
 62
   256
  9
$CSHADOW
280
     0
  9
$SHADOWPLANELOCATION
 40
0.0
  0
ENDSEC
  0
SECTION
  2
CLASSES
  0
CLASS
  1
ACDBDICTIONARYWDFLT
  2
AcDbDictionaryWithDefault
  3
ObjectDBX Classes
 90
        0
 91
        4
280
     0
281
     0
  0
CLASS
  1
VISUALSTYLE
  2
AcDbVisualStyle
  3
ObjectDBX Classes
 90
     4095
 91
        4
280
     0
281
     0
  0
CLASS
  1
MATERIAL
  2
AcDbMaterial
  3
ObjectDBX Classes
 90
     1153
 91
        4
280
     0
281
     0
  0
CLASS
  1
SUN
  2
AcDbSun
  3
SCENEOE
 90
     1024
 91
        4
280
     0
281
     0
  0
ENDSEC
  0
SECTION
  2
TABLES
  0
TABLE
  2
VPORT
  5
8
330
0
100
AcDbSymbolTable
 70
     1
  0
VPORT
  5
29
330
8
100
AcDbSymbolTableRecord
100
AcDbViewportTableRecord
  2
*Active
 70
     0
 10
0.0
 20
0.0
 11
1.0
 21
1.0
 12
0.0
 22
0.0
 13
0.0
 23
0.0
 14
0.5
 24
0.5
 15
0.5
 25
0.5
 16
0.0
 26
0.0
 36
1.0
 17
540.0
 27
-540.0
 37
0.0
 40
1080.0
 41
1.0
 42
50.0
 43
0.0
 44
0.0
 50
0.0
 51
0.0
 71
     0
 72
   100
 73
     1
 74
     3
 75
     0
 76
     0
 77
     0
 78
     0
281
     0
 65
     1
110
0.0
120
0.0
130
0.0
111
1.0
121
0.0
131
0.0
112
0.0
122
1.0
132
0.0
 79
     0
146
0.0
 60
     3
 61
     5
292
     1
282
     1
141
0.0
142
0.0
 63
   250
361
3F
  0
ENDTAB
  0
TABLE
  2
LTYPE
  5
5
330
0
100
AcDbSymbolTable
 70
     1
  0
LTYPE
  5
14
330
5
100
AcDbSymbolTableRecord
100
AcDbLinetypeTableRecord
  2
ByBlock
 70
     0
  3

 72
    65
 73
     0
 40
0.0
  0
LTYPE
  5
15
330
5
100
AcDbSymbolTableRecord
100
AcDbLinetypeTableRecord
  2
ByLayer
 70
     0
  3

 72
    65
 73
     0
 40
0.0
  0
LTYPE
  5
16
330
5
100
AcDbSymbolTableRecord
100
AcDbLinetypeTableRecord
  2
Continuous
 70
     0
  3
Solid line
 72
    65
 73
     0
 40
0.0
  0
ENDTAB
  0
TABLE
  2
LAYER
  5
2
330
0
100
AcDbSymbolTable
 70
     2
  0
LAYER
  5
10
330
2
100
AcDbSymbolTableRecord
100
AcDbLayerTableRecord
  2
0
 70
     0
 62
     7
  6
Continuous
370
    -3
390
F
347
3E
  0
LAYER
  5
40
330
2
100
AcDbSymbolTableRecord
100
AcDbLayerTableRecord
  2
Layer 1
 70
     0
 62
     7
  6
Continuous
370
    -3
390
F
347
3E
  0
ENDTAB
  0
TABLE
  2
STYLE
  5
3
330
0
100
AcDbSymbolTable
 70
     1
  0
STYLE
  5
11
330
3
100
AcDbSymbolTableRecord
100
AcDbTextStyleTableRecord
  2
Standard
 70
     0
 40
0.0
 41
1.0
 50
0.0
 71
     0
 42
0.2
  3
txt
  4

  0
ENDTAB
  0
TABLE
  2
VIEW
  5
6
330
0
100
AcDbSymbolTable
 70
     0
  0
ENDTAB
  0
TABLE
  2
UCS
  5
7
330
0
100
AcDbSymbolTable
 70
     0
  0
ENDTAB
  0
TABLE
  2
APPID
  5
9
330
0
100
AcDbSymbolTable
 70
     1
  0
APPID
  5
12
330
9
100
AcDbSymbolTableRecord
100
AcDbRegAppTableRecord
  2
ACAD
 70
     0
  0
ENDTAB
  0
TABLE
  2
DIMSTYLE
  5
A
330
0
100
AcDbSymbolTable
 70
     1
100
AcDbDimStyleTable
  0
DIMSTYLE
105
27
330
A
100
AcDbSymbolTableRecord
100
AcDbDimStyleTableRecord
  2
Standard
 70
     0
178
     0
340
11
  0
ENDTAB
  0
TABLE
  2
BLOCK_RECORD
  5
1
330
0
100
AcDbSymbolTable
 70
     5
  0
BLOCK_RECORD
  5
1F
330
1
100
AcDbSymbolTableRecord
100
AcDbBlockTableRecord
  2
*Model_Space
340
22
 70
     0
280
     1
281
     0
  0
BLOCK_RECORD
  5
1B
330
1
100
AcDbSymbolTableRecord
100
AcDbBlockTableRecord
  2
*Paper_Space
340
1E
 70
     0
280
     1
281
     0
  0
BLOCK_RECORD
  5
23
330
1
100
AcDbSymbolTableRecord
100
AcDbBlockTableRecord
  2
*Paper_Space0
340
26
 70
     0
280
     1
281
     0
  0
BLOCK_RECORD
  5
41
330
1
100
AcDbSymbolTableRecord
100
AcDbBlockTableRecord
  2
block 2
340
0
102
{BLKREFS
331
42
102
}
 70
     0
280
     1
281
     0
  0
BLOCK_RECORD
  5
4E
330
1
100
AcDbSymbolTableRecord
100
AcDbBlockTableRecord
  2
block 3
340
0
102
{BLKREFS
331
4F
102
}
 70
     0
280
     1
281
     0
  0
BLOCK_RECORD
  5
52
330
1
100
AcDbSymbolTableRecord
100
AcDbBlockTableRecord
  2
block 4
340
0
102
{BLKREFS
331
53
102
}
 70
     0
280
     1
281
     0
  0
BLOCK_RECORD
  5
63
330
1
100
AcDbSymbolTableRecord
100
AcDbBlockTableRecord
  2
block 5
340
0
102
{BLKREFS
331
64
102
}
 70
     0
280
     1
281
     0
  0
ENDTAB
  0
ENDSEC
  0
SECTION
  2
BLOCKS
  0
BLOCK
  5
20
330
1F
100
AcDbEntity
  8
0
100
AcDbBlockBegin
  2
*Model_Space
 70
     0
 10
0.0
 20
0.0
 30
0.0
  3
*Model_Space
  1

  0
ENDBLK
  5
21
330
1F
100
AcDbEntity
  8
0
100
AcDbBlockEnd
  0
BLOCK
  5
1C
330
1B
100
AcDbEntity
 67
     1
  8
0
100
AcDbBlockBegin
  2
*Paper_Space
 70
     0
 10
0.0
 20
0.0
 30
0.0
  3
*Paper_Space
  1

  0
ENDBLK
  5
1D
330
1B
100
AcDbEntity
 67
     1
  8
0
100
AcDbBlockEnd
  0
BLOCK
  5
24
330
23
100
AcDbEntity
  8
0
100
AcDbBlockBegin
  2
*Paper_Space0
 70
     0
 10
0.0
 20
0.0
 30
0.0
  3
*Paper_Space0
  1

  0
ENDBLK
  5
25
330
23
100
AcDbEntity
  8
0
100
AcDbBlockEnd
  0
BLOCK
  5
43
330
41
100
AcDbEntity
  8
0
100
AcDbBlockBegin
  2
block 2
 70
     0
 10
0.0
 20
0.0
 30
0.0
  3
block 2
  1

  0
SPLINE
  5
45
330
41
100
AcDbEntity
  8
Layer 1
370
     0
100
AcDbSpline
210
0.0
220
0.0
230
1.0
 70
    11
 71
     3
 72
    41
 73
    37
 74
     0
 42
0.0000000001
 43
0.0000000001
 12
1.0
 22
0.0
 32
0.0
 13
1.0
 23
0.0
 33
0.0
 40
0.0
 40
0.0
 40
0.0
 40
0.0
 40
1.0
 40
1.0
 40
1.0
 40
2.0
 40
2.0
 40
2.0
 40
3.0
 40
3.0
 40
3.0
 40
4.0
 40
4.0
 40
4.0
 40
5.0
 40
5.0
 40
5.0
 40
6.0
 40
6.0
 40
6.0
 40
7.0
 40
7.0
 40
7.0
 40
8.0
 40
8.0
 40
8.0
 40
9.0
 40
9.0
 40
9.0
 40
10.0
 40
10.0
 40
10.0
 40
11.0
 40
11.0
 40
11.0
 40
12.0
 40
12.0
 40
12.0
 40
12.0
 10
310.3866952202825
 20
-628.0185153452039
 30
0.0
 10
310.3866952202825
 20
-628.0185153452039
 30
0.0
 10
309.2069440577761
 20
-647.5345029468153
 30
0.0
 10
309.2069440577761
 20
-647.5345029468153
 30
0.0
 10
308.6140015324254
 20
-656.4899797090002
 30
0.0
 10
304.0350539961437
 20
-657.7269804946445
 30
0.0
 10
298.7343522824531
 20
-657.6922217948813
 30
0.0
 10
298.7343522824531
 20
-657.6922217948813
 30
0.0
 10
199.8622084950166
 20
-657.0563420521794
 30
0.0
 10
199.8622084950166
 20
-657.0563420521794
 30
0.0
 10
199.8622084950166
 20
-657.0563420521794
 30
0.0
 10
188.0667414993441
 20
-657.6881325360846
 30
0.0
 10
188.0667414993441
 20
-657.6881325360846
 30
0.0
 10
182.9469894873546
 20
-657.9600682459877
 30
0.0
 10
178.397689077342
 20
-650.1577624641395
 30
0.0
 10
177.9795623655
 20
-640.3885232016473
 30
0.0
 10
177.9795623655
 20
-640.3885232016473
 30
0.0
 10
169.7376612631333
 20
-447.0238317967796
 30
0.0
 10
169.7376612631333
 20
-447.0238317967796
 30
0.0
 10
169.322601495388
 20
-437.2648156812775
 30
0.0
 10
173.1941072600457
 20
-429.3480106531533
 30
0.0
 10
178.3271493631191
 20
-429.4645545288258
 30
0.0
 10
178.3271493631191
 20
-429.4645545288258
 30
0.0
 10
231.2063771626626
 20
-430.644305691334
 30
0.0
 10
231.2063771626626
 20
-430.644305691334
 30
0.0
 10
236.2770580691049
 20
-430.7567603082098
 30
0.0
 10
240.6413195186215
 20
-438.6817438539256
 30
0.0
 10
240.9429023547909
 20
-448.328305352552
 30
0.0
 10
240.9429023547909
 20
-448.328305352552
 30
0.0
 10
246.2763181388473
 20
-618.901512860597
 30
0.0
 10
246.2763181388473
 20
-618.901512860597
 30
0.0
 10
246.2763181388473
 20
-618.901512860597
 30
0.0
 10
300.9231280527529
 20
-618.635711038889
 30
0.0
 10
300.9231280527529
 20
-618.635711038889
 30
0.0
 10
306.2892579071722
 20
-618.6050415979225
 30
0.0
 10
311.0225749629844
 20
-619.9708540356241
 30
0.0
 10
310.3866952202825
 20
-628.0185153452039
 30
0.0
  0
HATCH
  5
46
330
41
100
AcDbEntity
  8
Layer 1
 62
     7
420
 16777215
100
AcDbHatch
 10
0.0
 20
0.0
 30
0.0
210
0.0
220
0.0
230
1.0
  2
SOLID
 70
     1
 71
     0
 91
        1
 92
        1
 93
        1
 72
     4
 94
        3
 73
     0
 74
     1
 95
       41
 96
       37
 40
0.0
 40
0.0
 40
0.0
 40
0.0
 40
1.0
 40
1.0
 40
1.0
 40
2.0
 40
2.0
 40
2.0
 40
3.0
 40
3.0
 40
3.0
 40
4.0
 40
4.0
 40
4.0
 40
5.0
 40
5.0
 40
5.0
 40
6.0
 40
6.0
 40
6.0
 40
7.0
 40
7.0
 40
7.0
 40
8.0
 40
8.0
 40
8.0
 40
9.0
 40
9.0
 40
9.0
 40
10.0
 40
10.0
 40
10.0
 40
11.0
 40
11.0
 40
11.0
 40
12.0
 40
12.0
 40
12.0
 40
12.0
 10
310.3866952202825
 20
-628.0185153452039
 10
310.3866952202825
 20
-628.0185153452039
 10
309.2069440577761
 20
-647.5345029468153
 10
309.2069440577761
 20
-647.5345029468153
 10
308.6140015324254
 20
-656.4899797090002
 10
304.0350539961437
 20
-657.7269804946445
 10
298.7343522824531
 20
-657.6922217948813
 10
298.7343522824531
 20
-657.6922217948813
 10
199.8622084950166
 20
-657.0563420521794
 10
199.8622084950166
 20
-657.0563420521794
 10
199.8622084950166
 20
-657.0563420521794
 10
188.0667414993441
 20
-657.6881325360846
 10
188.0667414993441
 20
-657.6881325360846
 10
182.9469894873546
 20
-657.9600682459877
 10
178.397689077342
 20
-650.1577624641395
 10
177.9795623655
 20
-640.3885232016473
 10
177.9795623655
 20
-640.3885232016473
 10
169.7376612631333
 20
-447.0238317967796
 10
169.7376612631333
 20
-447.0238317967796
 10
169.322601495388
 20
-437.2648156812775
 10
173.1941072600457
 20
-429.3480106531533
 10
178.3271493631191
 20
-429.4645545288258
 10
178.3271493631191
 20
-429.4645545288258
 10
231.2063771626626
 20
-430.644305691334
 10
231.2063771626626
 20
-430.644305691334
 10
236.2770580691049
 20
-430.7567603082098
 10
240.6413195186215
 20
-438.6817438539256
 10
240.9429023547909
 20
-448.328305352552
 10
240.9429023547909
 20
-448.328305352552
 10
246.2763181388473
 20
-618.901512860597
 10
246.2763181388473
 20
-618.901512860597
 10
246.2763181388473
 20
-618.901512860597
 10
300.9231280527529
 20
-618.635711038889
 10
300.9231280527529
 20
-618.635711038889
 10
306.2892579071722
 20
-618.6050415979225
 10
311.0225749629844
 20
-619.9708540356241
 10
310.3866952202825
 20
-628.0185153452039
 97
        0
 97
        0
 75
     2
 76
     1
 98
        0
  0
SPLINE
  5
47
330
41
100
AcDbEntity
  8
Layer 1
370
     0
100
AcDbSpline
210
0.0
220
0.0
230
1.0
 70
    11
 71
     3
 72
    20
 73
    16
 74
     0
 42
0.0000000001
 43
0.0000000001
 12
1.0
 22
0.0
 32
0.0
 13
1.0
 23
0.0
 33
0.0
 40
0.0
 40
0.0
 40
0.0
 40
0.0
 40
1.0
 40
1.0
 40
1.0
 40
2.0
 40
2.0
 40
2.0
 40
3.0
 40
3.0
 40
3.0
 40
4.0
 40
4.0
 40
4.0
 40
5.0
 40
5.0
 40
5.0
 40
5.0
 10
624.7766892500094
 20
-282.9565022709594
 30
0.0
 10
615.5042949311719
 20
-327.8463406987612
 30
0.0
 10
567.0506674630797
 20
-364.9195609389262
 30
0.0
 10
520.8768017734928
 20
-353.9174101495864
 30
0.0
 10
479.6182251561122
 20
-344.0909212639563
 30
0.0
 10
452.6771658965399
 20
-302.2005541626677
 30
0.0
 10
449.6776945700294
 20
-261.6514639463094
 30
0.0
 10
446.2345386642019
 20
-215.0952525593366
 30
0.0
 10
457.6865079210502
 20
-161.5280069674482
 30
0.0
 10
502.5415876490879
 20
-138.1190449925034
 30
0.0
 10
567.7601538641011
 20
-104.0759655198162
 30
0.0
 10
625.4739078746443
 20
-156.1526762807389
 30
0.0
 10
630.2828762181744
 20
-221.2025605704421
 30
0.0
 10
631.9880971359053
 20
-244.2373553655962
 30
0.0
 10
630.1111273487641
 20
-264.9903437528501
 30
0.0
 10
624.7766892500094
 20
-282.9565022709594
 30
0.0
  0
SPLINE
  5
48
330
41
100
AcDbEntity
  8
Layer 1
370
     0
100
AcDbSpline
210
0.0
220
0.0
230
1.0
 70
    11
 71
     3
 72
    47
 73
    43
 74
     0
 42
0.0000000001
 43
0.0000000001
 12
1.0
 22
0.0
 32
0.0
 13
1.0
 23
0.0
 33
0.0
 40
0.0
 40
0.0
 40
0.0
 40
0.0
 40
1.0
 40
1.0
 40
1.0
 40
2.0
 40
2.0
 40
2.0
 40
3.0
 40
3.0
 40
3.0
 40
4.0
 40
4.0
 40
4.0
 40
5.0
 40
5.0
 40
5.0
 40
6.0
 40
6.0
 40
6.0
 40
7.0
 40
7.0
 40
7.0
 40
8.0
 40
8.0
 40
8.0
 40
9.0
 40
9.0
 40
9.0
 40
10.0
 40
10.0
 40
10.0
 40
11.0
 40
11.0
 40
11.0
 40
12.0
 40
12.0
 40
12.0
 40
13.0
 40
13.0
 40
13.0
 40
14.0
 40
14.0
 40
14.0
 40
14.0
 10
569.6146327278675
 20
-225.6925667279211
 30
0.0
 10
569.3529201649544
 20
-222.0449478823193
 30
0.0
 10
568.4696402651225
 20
-213.985018796353
 30
0.0
 10
565.7216583545342
 20
-206.3197031841555
 30
0.0
 10
563.189384845411
 20
-199.2125713975438
 30
0.0
 10
559.0520772590444
 20
-192.4407588321646
 30
0.0
 10
552.307867190535
 20
-189.8134100560455
 30
0.0
 10
551.4777476550462
 20
-189.4903586111996
 30
0.0
 10
550.6149140491925
 20
-189.2163782718999
 30
0.0
 10
549.7428796110471
 20
-189.0037368145331
 30
0.0
 10
548.0213016581347
 20
-188.5784538997996
 30
0.0
 10
546.2250947322027
 20
-188.3637678130344
 30
0.0
 10
544.4033299387993
 20
-188.3637678130344
 30
0.0
 10
544.4033299387993
 20
-188.3637678130344
 30
0.0
 10
544.249982733967
 20
-188.3637678130344
 30
0.0
 10
544.249982733967
 20
-188.3637678130344
 30
0.0
 10
537.4873710008869
 20
-188.6070787113676
 30
0.0
 10
530.0265183284646
 20
-192.177001639855
 30
0.0
 10
523.9110317997674
 20
-198.2883989097572
 30
0.0
 10
509.3829176139898
 20
-212.7991337456533
 30
0.0
 10
509.1712984713213
 20
-241.409632908495
 30
0.0
 10
510.3357149133453
 20
-257.1635024182287
 30
0.0
 10
510.6117398820425
 20
-260.8152105226254
 30
0.0
 10
511.4929751524778
 20
-268.8751396085936
 30
0.0
 10
514.2399347483661
 20
-276.5363659619961
 30
0.0
 10
516.7752752015876
 20
-283.643497748606
 30
0.0
 10
520.9125827879525
 20
-290.4173549433817
 30
0.0
 10
527.6527035976669
 20
-293.0426590901043
 30
0.0
 10
528.4828231331567
 20
-293.3677551643486
 30
0.0
 10
529.3456567390103
 20
-293.6437801330449
 30
0.0
 10
530.217691177153
 20
-293.8543769610151
 30
0.0
 10
531.9423360741639
 20
-294.281704505147
 30
0.0
 10
533.7354760559992
 20
-294.4923013331172
 30
0.0
 10
535.5613301081976
 20
-294.4923013331172
 30
0.0
 10
535.5613301081976
 20
-294.4923013331172
 30
0.0
 10
535.6942310190525
 20
-294.4923013331172
 30
0.0
 10
535.6942310190525
 20
-294.4923013331172
 30
0.0
 10
542.4639989550251
 20
-294.2592135817722
 30
0.0
 10
549.937119403834
 20
-290.6790675062948
 30
0.0
 10
556.0495389884345
 20
-284.5676702363944
 30
0.0
 10
570.5776531742104
 20
-270.0487568829067
 30
0.0
 10
570.7923392609755
 20
-241.4484808670531
 30
0.0
 10
569.6146327278675
 20
-225.6925667279211
 30
0.0
  0
HATCH
  5
49
330
41
100
AcDbEntity
  8
Layer 1
 62
     7
420
 16777215
100
AcDbHatch
 10
0.0
 20
0.0
 30
0.0
210
0.0
220
0.0
230
1.0
  2
SOLID
 70
     1
 71
     0
 91
        2
 92
        1
 93
        1
 72
     4
 94
        3
 73
     0
 74
     1
 95
       20
 96
       16
 40
0.0
 40
0.0
 40
0.0
 40
0.0
 40
1.0
 40
1.0
 40
1.0
 40
2.0
 40
2.0
 40
2.0
 40
3.0
 40
3.0
 40
3.0
 40
4.0
 40
4.0
 40
4.0
 40
5.0
 40
5.0
 40
5.0
 40
5.0
 10
624.7766892500094
 20
-282.9565022709594
 10
615.5042949311719
 20
-327.8463406987612
 10
567.0506674630797
 20
-364.9195609389262
 10
520.8768017734928
 20
-353.9174101495864
 10
479.6182251561122
 20
-344.0909212639563
 10
452.6771658965399
 20
-302.2005541626677
 10
449.6776945700294
 20
-261.6514639463094
 10
446.2345386642019
 20
-215.0952525593366
 10
457.6865079210502
 20
-161.5280069674482
 10
502.5415876490879
 20
-138.1190449925034
 10
567.7601538641011
 20
-104.0759655198162
 10
625.4739078746443
 20
-156.1526762807389
 10
630.2828762181744
 20
-221.2025605704421
 10
631.9880971359053
 20
-244.2373553655962
 10
630.1111273487641
 20
-264.9903437528501
 10
624.7766892500094
 20
-282.9565022709594
 97
        0
 97
        0
 92
        1
 93
        1
 72
     4
 94
        3
 73
     0
 74
     1
 95
       47
 96
       43
 40
0.0
 40
0.0
 40
0.0
 40
0.0
 40
1.0
 40
1.0
 40
1.0
 40
2.0
 40
2.0
 40
2.0
 40
3.0
 40
3.0
 40
3.0
 40
4.0
 40
4.0
 40
4.0
 40
5.0
 40
5.0
 40
5.0
 40
6.0
 40
6.0
 40
6.0
 40
7.0
 40
7.0
 40
7.0
 40
8.0
 40
8.0
 40
8.0
 40
9.0
 40
9.0
 40
9.0
 40
10.0
 40
10.0
 40
10.0
 40
11.0
 40
11.0
 40
11.0
 40
12.0
 40
12.0
 40
12.0
 40
13.0
 40
13.0
 40
13.0
 40
14.0
 40
14.0
 40
14.0
 40
14.0
 10
569.6146327278675
 20
-225.6925667279211
 10
569.3529201649544
 20
-222.0449478823193
 10
568.4696402651225
 20
-213.985018796353
 10
565.7216583545342
 20
-206.3197031841555
 10
563.189384845411
 20
-199.2125713975438
 10
559.0520772590444
 20
-192.4407588321646
 10
552.307867190535
 20
-189.8134100560455
 10
551.4777476550462
 20
-189.4903586111996
 10
550.6149140491925
 20
-189.2163782718999
 10
549.7428796110471
 20
-189.0037368145331
 10
548.0213016581347
 20
-188.5784538997996
 10
546.2250947322027
 20
-188.3637678130344
 10
544.4033299387993
 20
-188.3637678130344
 10
544.4033299387993
 20
-188.3637678130344
 10
544.249982733967
 20
-188.3637678130344
 10
544.249982733967
 20
-188.3637678130344
 10
537.4873710008869
 20
-188.6070787113676
 10
530.0265183284646
 20
-192.177001639855
 10
523.9110317997674
 20
-198.2883989097572
 10
509.3829176139898
 20
-212.7991337456533
 10
509.1712984713213
 20
-241.409632908495
 10
510.3357149133453
 20
-257.1635024182287
 10
510.6117398820425
 20
-260.8152105226254
 10
511.4929751524778
 20
-268.8751396085936
 10
514.2399347483661
 20
-276.5363659619961
 10
516.7752752015876
 20
-283.643497748606
 10
520.9125827879525
 20
-290.4173549433817
 10
527.6527035976669
 20
-293.0426590901043
 10
528.4828231331567
 20
-293.3677551643486
 10
529.3456567390103
 20
-293.6437801330449
 10
530.217691177153
 20
-293.8543769610151
 10
531.9423360741639
 20
-294.281704505147
 10
533.7354760559992
 20
-294.4923013331172
 10
535.5613301081976
 20
-294.4923013331172
 10
535.5613301081976
 20
-294.4923013331172
 10
535.6942310190525
 20
-294.4923013331172
 10
535.6942310190525
 20
-294.4923013331172
 10
542.4639989550251
 20
-294.2592135817722
 10
549.937119403834
 20
-290.6790675062948
 10
556.0495389884345
 20
-284.5676702363944
 10
570.5776531742104
 20
-270.0487568829067
 10
570.7923392609755
 20
-241.4484808670531
 10
569.6146327278675
 20
-225.6925667279211
 97
        0
 97
        0
 75
     2
 76
     1
 98
        0
  0
SPLINE
  5
4A
330
41
100
AcDbEntity
  8
Layer 1
370
     0
100
AcDbSpline
210
0.0
220
0.0
230
1.0
 70
    11
 71
     3
 72
    50
 73
    46
 74
     0
 42
0.0000000001
 43
0.0000000001
 12
1.0
 22
0.0
 32
0.0
 13
1.0
 23
0.0
 33
0.0
 40
0.0
 40
0.0
 40
0.0
 40
0.0
 40
1.0
 40
1.0
 40
1.0
 40
2.0
 40
2.0
 40
2.0
 40
3.0
 40
3.0
 40
3.0
 40
4.0
 40
4.0
 40
4.0
 40
5.0
 40
5.0
 40
5.0
 40
6.0
 40
6.0
 40
6.0
 40
7.0
 40
7.0
 40
7.0
 40
8.0
 40
8.0
 40
8.0
 40
9.0
 40
9.0
 40
9.0
 40
10.0
 40
10.0
 40
10.0
 40
11.0
 40
11.0
 40
11.0
 40
12.0
 40
12.0
 40
12.0
 40
13.0
 40
13.0
 40
13.0
 40
14.0
 40
14.0
 40
14.0
 40
15.0
 40
15.0
 40
15.0
 40
15.0
 10
637.0087798883724
 20
-743.3773105458167
 30
0.0
 10
637.0087798883724
 20
-743.3773105458167
 30
0.0
 10
568.7447381853908
 20
-939.3795738737954
 30
0.0
 10
568.7447381853908
 20
-939.3795738737954
 30
0.0
 10
565.5469378072958
 20
-948.5190672817807
 30
0.0
 10
560.9199414801642
 20
-952.624683112479
 30
0.0
 10
551.4982892152912
 20
-952.624683112479
 30
0.0
 10
551.4982892152912
 20
-952.624683112479
 30
0.0
 10
512.4806264178569
 20
-952.0767224338797
 30
0.0
 10
512.4806264178569
 20
-952.0767224338797
 30
0.0
 10
502.7461458551243
 20
-952.0767224338797
 30
0.0
 10
497.5548318142155
 20
-946.6523206416241
 30
0.0
 10
495.129901348474
 20
-937.6763975854628
 30
0.0
 10
495.129901348474
 20
-937.6763975854628
 30
0.0
 10
441.9225105305886
 20
-743.9436728889959
 30
0.0
 10
441.9225105305886
 20
-743.9436728889959
 30
0.0
 10
441.7896096197346
 20
-743.4447833159429
 30
0.0
 10
441.6648872264714
 20
-742.9479383722883
 30
0.0
 10
441.5503879801963
 20
-742.4531380580302
 30
0.0
 10
439.4689552532782
 20
-733.4424563021057
 30
0.0
 10
445.8890915622414
 20
-724.7302904382541
 30
0.0
 10
454.4519994800557
 20
-724.6546391505362
 30
0.0
 10
454.4519994800557
 20
-724.6546391505362
 30
0.0
 10
489.5828217923527
 20
-724.3418108526803
 30
0.0
 10
489.5828217923527
 20
-724.3418108526803
 30
0.0
 10
494.8027606448322
 20
-724.5094704632957
 30
0.0
 10
496.7226676493283
 20
-726.3210121097109
 30
0.0
 10
499.1741782972404
 20
-735.7283519688008
 30
0.0
 10
499.1741782972404
 20
-735.7283519688008
 30
0.0
 10
529.9622077686945
 20
-853.8854402358975
 30
0.0
 10
529.9622077686945
 20
-853.8854402358975
 30
0.0
 10
529.9622077686945
 20
-853.8854402358975
 30
0.0
 10
569.376528669296
 20
-737.2577347583228
 30
0.0
 10
569.376528669296
 20
-737.2577347583228
 30
0.0
 10
572.4414281365371
 20
-728.2000265262504
 30
0.0
 10
577.0602459460752
 20
-723.5403161287595
 30
0.0
 10
583.0264745287368
 20
-723.5403161287595
 30
0.0
 10
583.0264745287368
 20
-723.5403161287595
 30
0.0
 10
630.4189393393954
 20
-723.9676436728896
 30
0.0
 10
630.4189393393954
 20
-723.9676436728896
 30
0.0
 10
634.8966777204878
 20
-724.0064916314477
 30
0.0
 10
638.6874206239318
 20
-727.8074576818817
 30
0.0
 10
638.8346339405707
 20
-732.6634525015597
 30
0.0
 10
638.9286868928684
 20
-735.83876195628
 30
0.0
 10
638.341878255711
 20
-739.5742998659844
 30
0.0
 10
637.0087798883724
 20
-743.3773105458167
 30
0.0
  0
HATCH
  5
4B
330
41
100
AcDbEntity
  8
Layer 1
 62
     7
420
 16777215
100
AcDbHatch
 10
0.0
 20
0.0
 30
0.0
210
0.0
220
0.0
230
1.0
  2
SOLID
 70
     1
 71
     0
 91
        1
 92
        1
 93
        1
 72
     4
 94
        3
 73
     0
 74
     1
 95
       50
 96
       46
 40
0.0
 40
0.0
 40
0.0
 40
0.0
 40
1.0
 40
1.0
 40
1.0
 40
2.0
 40
2.0
 40
2.0
 40
3.0
 40
3.0
 40
3.0
 40
4.0
 40
4.0
 40
4.0
 40
5.0
 40
5.0
 40
5.0
 40
6.0
 40
6.0
 40
6.0
 40
7.0
 40
7.0
 40
7.0
 40
8.0
 40
8.0
 40
8.0
 40
9.0
 40
9.0
 40
9.0
 40
10.0
 40
10.0
 40
10.0
 40
11.0
 40
11.0
 40
11.0
 40
12.0
 40
12.0
 40
12.0
 40
13.0
 40
13.0
 40
13.0
 40
14.0
 40
14.0
 40
14.0
 40
15.0
 40
15.0
 40
15.0
 40
15.0
 10
637.0087798883724
 20
-743.3773105458167
 10
637.0087798883724
 20
-743.3773105458167
 10
568.7447381853908
 20
-939.3795738737954
 10
568.7447381853908
 20
-939.3795738737954
 10
565.5469378072958
 20
-948.5190672817807
 10
560.9199414801642
 20
-952.624683112479
 10
551.4982892152912
 20
-952.624683112479
 10
551.4982892152912
 20
-952.624683112479
 10
512.4806264178569
 20
-952.0767224338797
 10
512.4806264178569
 20
-952.0767224338797
 10
502.7461458551243
 20
-952.0767224338797
 10
497.5548318142155
 20
-946.6523206416241
 10
495.129901348474
 20
-937.6763975854628
 10
495.129901348474
 20
-937.6763975854628
 10
441.9225105305886
 20
-743.9436728889959
 10
441.9225105305886
 20
-743.9436728889959
 10
441.7896096197346
 20
-743.4447833159429
 10
441.6648872264714
 20
-742.9479383722883
 10
441.5503879801963
 20
-742.4531380580302
 10
439.4689552532782
 20
-733.4424563021057
 10
445.8890915622414
 20
-724.7302904382541
 10
454.4519994800557
 20
-724.6546391505362
 10
454.4519994800557
 20
-724.6546391505362
 10
489.5828217923527
 20
-724.3418108526803
 10
489.5828217923527
 20
-724.3418108526803
 10
494.8027606448322
 20
-724.5094704632957
 10
496.7226676493283
 20
-726.3210121097109
 10
499.1741782972404
 20
-735.7283519688008
 10
499.1741782972404
 20
-735.7283519688008
 10
529.9622077686945
 20
-853.8854402358975
 10
529.9622077686945
 20
-853.8854402358975
 10
529.9622077686945
 20
-853.8854402358975
 10
569.376528669296
 20
-737.2577347583228
 10
569.376528669296
 20
-737.2577347583228
 10
572.4414281365371
 20
-728.2000265262504
 10
577.0602459460752
 20
-723.5403161287595
 10
583.0264745287368
 20
-723.5403161287595
 10
583.0264745287368
 20
-723.5403161287595
 10
630.4189393393954
 20
-723.9676436728896
 10
630.4189393393954
 20
-723.9676436728896
 10
634.8966777204878
 20
-724.0064916314477
 10
638.6874206239318
 20
-727.8074576818817
 10
638.8346339405707
 20
-732.6634525015597
 10
638.9286868928684
 20
-735.83876195628
 10
638.341878255711
 20
-739.5742998659844
 10
637.0087798883724
 20
-743.3773105458167
 97
        0
 97
        0
 75
     2
 76
     1
 98
        0
  0
SPLINE
  5
4C
330
41
100
AcDbEntity
  8
Layer 1
370
     0
100
AcDbSpline
210
0.0
220
0.0
230
1.0
 70
    11
 71
     3
 72
    71
 73
    67
 74
     0
 42
0.0000000001
 43
0.0000000001
 12
1.0
 22
0.0
 32
0.0
 13
1.0
 23
0.0
 33
0.0
 40
0.0
 40
0.0
 40
0.0
 40
0.0
 40
1.0
 40
1.0
 40
1.0
 40
2.0
 40
2.0
 40
2.0
 40
3.0
 40
3.0
 40
3.0
 40
4.0
 40
4.0
 40
4.0
 40
5.0
 40
5.0
 40
5.0
 40
6.0
 40
6.0
 40
6.0
 40
7.0
 40
7.0
 40
7.0
 40
8.0
 40
8.0
 40
8.0
 40
9.0
 40
9.0
 40
9.0
 40
10.0
 40
10.0
 40
10.0
 40
11.0
 40
11.0
 40
11.0
 40
12.0
 40
12.0
 40
12.0
 40
13.0
 40
13.0
 40
13.0
 40
14.0
 40
14.0
 40
14.0
 40
15.0
 40
15.0
 40
15.0
 40
16.0
 40
16.0
 40
16.0
 40
17.0
 40
17.0
 40
17.0
 40
18.0
 40
18.0
 40
18.0
 40
19.0
 40
19.0
 40
19.0
 40
20.0
 40
20.0
 40
20.0
 40
21.0
 40
21.0
 40
21.0
 40
22.0
 40
22.0
 40
22.0
 40
22.0
 10
929.7168236202742
 20
-623.7125246452324
 30
0.0
 10
929.7168236202742
 20
-623.7125246452324
 30
0.0
 10
927.9727547439852
 20
-652.7155926524447
 30
0.0
 10
927.9727547439852
 20
-652.7155926524447
 30
0.0
 10
927.8071397627682
 20
-655.4962886333979
 30
0.0
 10
923.3662047108355
 20
-657.7269793063533
 30
0.0
 10
918.0644806824457
 20
-657.6942652359885
 30
0.0
 10
918.0644806824457
 20
-657.6942652359885
 30
0.0
 10
819.192336895012
 20
-657.0563408638882
 30
0.0
 10
819.192336895012
 20
-657.0563408638882
 30
0.0
 10
819.192336895012
 20
-657.0563408638882
 30
0.0
 10
807.3968698993394
 20
-657.6881313477952
 30
0.0
 10
807.3968698993394
 20
-657.6881313477952
 30
0.0
 10
802.27711788735
 20
-657.9600670576983
 30
0.0
 10
797.7278174773364
 20
-650.1598059052449
 30
0.0
 10
797.3107130801927
 20
-640.3885220133561
 30
0.0
 10
797.3107130801927
 20
-640.3885220133561
 30
0.0
 10
789.068811977826
 20
-447.0238306084866
 30
0.0
 10
789.068811977826
 20
-447.0238306084866
 30
0.0
 10
788.6537522100825
 20
-437.2689037517775
 30
0.0
 10
792.5242356600393
 20
-429.3480094648585
 30
0.0
 10
797.6583000778137
 20
-429.464553340531
 30
0.0
 10
797.6583000778137
 20
-429.464553340531
 30
0.0
 10
841.337717902139
 20
-430.4398415632622
 30
0.0
 10
841.337717902139
 20
-430.4398415632622
 30
0.0
 10
841.337717902139
 20
-430.4398415632622
 30
0.0
 10
920.2542787674447
 20
-430.0534066070868
 30
0.0
 10
920.2542787674447
 20
-430.0534066070868
 30
0.0
 10
925.6193863071658
 20
-430.0288710543136
 30
0.0
 10
929.886527860288
 20
-432.3168113504053
 30
0.0
 10
929.7168236202742
 20
-435.1322660311198
 30
0.0
 10
929.7168236202742
 20
-435.1322660311198
 30
0.0
 10
927.9727547439852
 20
-464.1332894089337
 30
0.0
 10
927.9727547439852
 20
-464.1332894089337
 30
0.0
 10
927.8071397627682
 20
-466.9160300192834
 30
0.0
 10
923.3662047108355
 20
-469.1467206922389
 30
0.0
 10
918.0644806824457
 20
-469.1140066218741
 30
0.0
 10
918.0644806824457
 20
-469.1140066218741
 30
0.0
 10
860.912999756285
 20
-468.7439287008801
 30
0.0
 10
860.912999756285
 20
-468.7439287008801
 30
0.0
 10
860.912999756285
 20
-468.7439287008801
 30
0.0
 10
862.4791858749686
 20
-518.8414382047722
 30
0.0
 10
862.4791858749686
 20
-518.8414382047722
 30
0.0
 10
862.4791858749686
 20
-518.8414382047722
 30
0.0
 10
912.9876658878111
 20
-518.5960826770406
 30
0.0
 10
912.9876658878111
 20
-518.5960826770406
 30
0.0
 10
918.3527734275303
 20
-518.5695024948709
 30
0.0
 10
922.4931479579918
 20
-520.7204526213136
 30
0.0
 10
922.1557841073627
 20
-526.1284973783877
 30
0.0
 10
922.1557841073627
 20
-526.1284973783877
 30
0.0
 10
920.7081864937481
 20
-547.4171786678544
 30
0.0
 10
920.7081864937481
 20
-547.4171786678544
 30
0.0
 10
919.4527840435239
 20
-554.8514511581052
 30
0.0
 10
916.0995918312001
 20
-557.6914413915929
 30
0.0
 10
910.7978678028103
 20
-557.6566826918315
 30
0.0
 10
910.7978678028103
 20
-557.6566826918315
 30
0.0
 10
863.6814279608516
 20
-557.3520329115654
 30
0.0
 10
863.6814279608516
 20
-557.3520329115654
 30
0.0
 10
863.6814279608516
 20
-557.3520329115654
 30
0.0
 10
865.6074688535391
 20
-618.9015116723058
 30
0.0
 10
865.6074688535391
 20
-618.9015116723058
 30
0.0
 10
865.6074688535391
 20
-618.9015116723058
 30
0.0
 10
920.2542787674447
 20
-618.635709850596
 30
0.0
 10
920.2542787674447
 20
-618.635709850596
 30
0.0
 10
925.6193863071658
 20
-618.6050404096313
 30
0.0
 10
929.886527860288
 20
-620.8950253351213
 30
0.0
 10
929.7168236202742
 20
-623.7125246452324
 30
0.0
  0
HATCH
  5
4D
330
41
100
AcDbEntity
  8
Layer 1
 62
     7
420
 16777215
100
AcDbHatch
 10
0.0
 20
0.0
 30
0.0
210
0.0
220
0.0
230
1.0
  2
SOLID
 70
     1
 71
     0
 91
        1
 92
        1
 93
        1
 72
     4
 94
        3
 73
     0
 74
     1
 95
       71
 96
       67
 40
0.0
 40
0.0
 40
0.0
 40
0.0
 40
1.0
 40
1.0
 40
1.0
 40
2.0
 40
2.0
 40
2.0
 40
3.0
 40
3.0
 40
3.0
 40
4.0
 40
4.0
 40
4.0
 40
5.0
 40
5.0
 40
5.0
 40
6.0
 40
6.0
 40
6.0
 40
7.0
 40
7.0
 40
7.0
 40
8.0
 40
8.0
 40
8.0
 40
9.0
 40
9.0
 40
9.0
 40
10.0
 40
10.0
 40
10.0
 40
11.0
 40
11.0
 40
11.0
 40
12.0
 40
12.0
 40
12.0
 40
13.0
 40
13.0
 40
13.0
 40
14.0
 40
14.0
 40
14.0
 40
15.0
 40
15.0
 40
15.0
 40
16.0
 40
16.0
 40
16.0
 40
17.0
 40
17.0
 40
17.0
 40
18.0
 40
18.0
 40
18.0
 40
19.0
 40
19.0
 40
19.0
 40
20.0
 40
20.0
 40
20.0
 40
21.0
 40
21.0
 40
21.0
 40
22.0
 40
22.0
 40
22.0
 40
22.0
 10
929.7168236202742
 20
-623.7125246452324
 10
929.7168236202742
 20
-623.7125246452324
 10
927.9727547439852
 20
-652.7155926524447
 10
927.9727547439852
 20
-652.7155926524447
 10
927.8071397627682
 20
-655.4962886333979
 10
923.3662047108355
 20
-657.7269793063533
 10
918.0644806824457
 20
-657.6942652359885
 10
918.0644806824457
 20
-657.6942652359885
 10
819.192336895012
 20
-657.0563408638882
 10
819.192336895012
 20
-657.0563408638882
 10
819.192336895012
 20
-657.0563408638882
 10
807.3968698993394
 20
-657.6881313477952
 10
807.3968698993394
 20
-657.6881313477952
 10
802.27711788735
 20
-657.9600670576983
 10
797.7278174773364
 20
-650.1598059052449
 10
797.3107130801927
 20
-640.3885220133561
 10
797.3107130801927
 20
-640.3885220133561
 10
789.068811977826
 20
-447.0238306084866
 10
789.068811977826
 20
-447.0238306084866
 10
788.6537522100825
 20
-437.2689037517775
 10
792.5242356600393
 20
-429.3480094648585
 10
797.6583000778137
 20
-429.464553340531
 10
797.6583000778137
 20
-429.464553340531
 10
841.337717902139
 20
-430.4398415632622
 10
841.337717902139
 20
-430.4398415632622
 10
841.337717902139
 20
-430.4398415632622
 10
920.2542787674447
 20
-430.0534066070868
 10
920.2542787674447
 20
-430.0534066070868
 10
925.6193863071658
 20
-430.0288710543136
 10
929.886527860288
 20
-432.3168113504053
 10
929.7168236202742
 20
-435.1322660311198
 10
929.7168236202742
 20
-435.1322660311198
 10
927.9727547439852
 20
-464.1332894089337
 10
927.9727547439852
 20
-464.1332894089337
 10
927.8071397627682
 20
-466.9160300192834
 10
923.3662047108355
 20
-469.1467206922389
 10
918.0644806824457
 20
-469.1140066218741
 10
918.0644806824457
 20
-469.1140066218741
 10
860.912999756285
 20
-468.7439287008801
 10
860.912999756285
 20
-468.7439287008801
 10
860.912999756285
 20
-468.7439287008801
 10
862.4791858749686
 20
-518.8414382047722
 10
862.4791858749686
 20
-518.8414382047722
 10
862.4791858749686
 20
-518.8414382047722
 10
912.9876658878111
 20
-518.5960826770406
 10
912.9876658878111
 20
-518.5960826770406
 10
918.3527734275303
 20
-518.5695024948709
 10
922.4931479579918
 20
-520.7204526213136
 10
922.1557841073627
 20
-526.1284973783877
 10
922.1557841073627
 20
-526.1284973783877
 10
920.7081864937481
 20
-547.4171786678544
 10
920.7081864937481
 20
-547.4171786678544
 10
919.4527840435239
 20
-554.8514511581052
 10
916.0995918312001
 20
-557.6914413915929
 10
910.7978678028103
 20
-557.6566826918315
 10
910.7978678028103
 20
-557.6566826918315
 10
863.6814279608516
 20
-557.3520329115654
 10
863.6814279608516
 20
-557.3520329115654
 10
863.6814279608516
 20
-557.3520329115654
 10
865.6074688535391
 20
-618.9015116723058
 10
865.6074688535391
 20
-618.9015116723058
 10
865.6074688535391
 20
-618.9015116723058
 10
920.2542787674447
 20
-618.635709850596
 10
920.2542787674447
 20
-618.635709850596
 10
925.6193863071658
 20
-618.6050404096313
 10
929.886527860288
 20
-620.8950253351213
 10
929.7168236202742
 20
-623.7125246452324
 97
        0
 97
        0
 75
     2
 76
     1
 98
        0
  0
INSERT
  5
4F
330
41
100
AcDbEntity
  8
Layer 1
100
AcDbBlockReference
  2
block 3
 10
0.0
 20
0.0
 30
0.0
  0
SPLINE
  5
74
330
41
100
AcDbEntity
  8
Layer 1
370
     0
100
AcDbSpline
210
0.0
220
0.0
230
1.0
 70
    11
 71
     3
 72
    23
 73
    19
 74
     0
 42
0.0000000001
 43
0.0000000001
 12
1.0
 22
0.0
 32
0.0
 13
1.0
 23
0.0
 33
0.0
 40
0.0
 40
0.0
 40
0.0
 40
0.0
 40
1.0
 40
1.0
 40
1.0
 40
2.0
 40
2.0
 40
2.0
 40
3.0
 40
3.0
 40
3.0
 40
4.0
 40
4.0
 40
4.0
 40
5.0
 40
5.0
 40
5.0
 40
6.0
 40
6.0
 40
6.0
 40
6.0
 10
661.6523799068618
 20
-354.7298892627114
 30
0.0
 10
568.0800433077566
 20
-355.1958091867255
 30
0.0
 10
536.1180131939764
 20
-439.9652494924539
 30
0.0
 10
536.1180131939764
 20
-439.9652494924539
 30
0.0
 10
509.4019909574945
 20
-383.9921140460901
 30
0.0
 10
464.9314293455736
 20
-352.6441116983224
 30
0.0
 10
410.2713293405795
 20
-354.7298892627114
 30
0.0
 10
355.6112293355891
 20
-356.8155390377633
 30
0.0
 10
278.5593704810399
 20
-464.2890553335583
 30
0.0
 10
353.1390168150238
 20
-563.4195891611344
 30
0.0
 10
427.7185353596706
 20
-662.5502507780493
 30
0.0
 10
539.3577284747253
 20
-732.5262862336422
 30
0.0
 10
539.3577284747253
 20
-732.5262862336422
 30
0.0
 10
607.9187525977322
 20
-685.2995641935395
 30
0.0
 10
671.3820044747754
 20
-635.680370179387
 30
0.0
 10
728.8157720471645
 20
-568.0511859044072
 30
0.0
 10
786.2606572919049
 20
-500.416506687925
 30
0.0
 10
755.2248442953078
 20
-354.2695920695405
 30
0.0
 10
661.6523799068618
 20
-354.7298892627114
 30
0.0
  0
HATCH
  5
75
330
41
100
AcDbEntity
  8
Layer 1
 62
   230
420
 16591739
100
AcDbHatch
 10
0.0
 20
0.0
 30
0.0
210
0.0
220
0.0
230
1.0
  2
SOLID
 70
     1
 71
     0
 91
        1
 92
        1
 93
        1
 72
     4
 94
        3
 73
     0
 74
     1
 95
       23
 96
       19
 40
0.0
 40
0.0
 40
0.0
 40
0.0
 40
1.0
 40
1.0
 40
1.0
 40
2.0
 40
2.0
 40
2.0
 40
3.0
 40
3.0
 40
3.0
 40
4.0
 40
4.0
 40
4.0
 40
5.0
 40
5.0
 40
5.0
 40
6.0
 40
6.0
 40
6.0
 40
6.0
 10
661.6523799068618
 20
-354.7298892627114
 10
568.0800433077566
 20
-355.1958091867255
 10
536.1180131939764
 20
-439.9652494924539
 10
536.1180131939764
 20
-439.9652494924539
 10
509.4019909574945
 20
-383.9921140460901
 10
464.9314293455736
 20
-352.6441116983224
 10
410.2713293405795
 20
-354.7298892627114
 10
355.6112293355891
 20
-356.8155390377633
 10
278.5593704810399
 20
-464.2890553335583
 10
353.1390168150238
 20
-563.4195891611344
 10
427.7185353596706
 20
-662.5502507780493
 10
539.3577284747253
 20
-732.5262862336422
 10
539.3577284747253
 20
-732.5262862336422
 10
607.9187525977322
 20
-685.2995641935395
 10
671.3820044747754
 20
-635.680370179387
 10
728.8157720471645
 20
-568.0511859044072
 10
786.2606572919049
 20
-500.416506687925
 10
755.2248442953078
 20
-354.2695920695405
 10
661.6523799068618
 20
-354.7298892627114
 97
        0
 97
        0
 75
     2
 76
     1
 98
        0
  0
ENDBLK
  5
44
330
41
100
AcDbEntity
  8
0
100
AcDbBlockEnd
  0
BLOCK
  5
50
330
4E
100
AcDbEntity
  8
0
100
AcDbBlockBegin
  2
block 3
 70
     0
 10
0.0
 20
0.0
 30
0.0
  3
block 3
  1

  0
INSERT
  5
53
330
4E
100
AcDbEntity
  8
Layer 1
100
AcDbBlockReference
  2
block 4
 10
0.0
 20
0.0
 30
0.0
  0
INSERT
  5
64
330
4E
100
AcDbEntity
  8
Layer 1
100
AcDbBlockReference
  2
block 5
 10
0.0
 20
0.0
 30
0.0
  0
ENDBLK
  5
51
330
4E
100
AcDbEntity
  8
0
100
AcDbBlockEnd
  0
BLOCK
  5
54
330
52
100
AcDbEntity
  8
0
100
AcDbBlockBegin
  2
block 4
 70
     0
 10
0.0
 20
0.0
 30
0.0
  3
block 4
  1

  0
SPLINE
  5
56
330
52
100
AcDbEntity
  8
Layer 1
370
     0
100
AcDbSpline
210
0.0
220
0.0
230
1.0
 70
    11
 71
     3
 72
    74
 73
    70
 74
     0
 42
0.0000000001
 43
0.0000000001
 12
1.0
 22
0.0
 32
0.0
 13
1.0
 23
0.0
 33
0.0
 40
0.0
 40
0.0
 40
0.0
 40
0.0
 40
1.0
 40
1.0
 40
1.0
 40
2.0
 40
2.0
 40
2.0
 40
3.0
 40
3.0
 40
3.0
 40
4.0
 40
4.0
 40
4.0
 40
5.0
 40
5.0
 40
5.0
 40
6.0
 40
6.0
 40
6.0
 40
7.0
 40
7.0
 40
7.0
 40
8.0
 40
8.0
 40
8.0
 40
9.0
 40
9.0
 40
9.0
 40
10.0
 40
10.0
 40
10.0
 40
11.0
 40
11.0
 40
11.0
 40
12.0
 40
12.0
 40
12.0
 40
13.0
 40
13.0
 40
13.0
 40
14.0
 40
14.0
 40
14.0
 40
15.0
 40
15.0
 40
15.0
 40
16.0
 40
16.0
 40
16.0
 40
17.0
 40
17.0
 40
17.0
 40
18.0
 40
18.0
 40
18.0
 40
19.0
 40
19.0
 40
19.0
 40
20.0
 40
20.0
 40
20.0
 40
21.0
 40
21.0
 40
21.0
 40
22.0
 40
22.0
 40
22.0
 40
23.0
 40
23.0
 40
23.0
 40
23.0
 10
466.5062684458535
 20
-594.4167548564292
 30
0.0
 10
476.2989739377954
 20
-598.2774153541868
 30
0.0
 10
485.1591038414999
 20
-601.7704569298112
 30
0.0
 10
495.2802254329745
 20
-605.7608332221971
 30
0.0
 10
492.3992656643295
 20
-608.8231303771881
 30
0.0
 10
490.1247622728224
 20
-611.3778541437077
 30
0.0
 10
487.7074819674908
 20
-613.7898009965284
 30
0.0
 10
445.1686625813245
 20
-656.2349151252656
 30
0.0
 10
402.7011051285826
 20
-698.7525369573268
 30
0.0
 10
359.944704237003
 20
-740.97726659832
 30
0.0
 10
354.7555663582407
 20
-746.1018580222371
 30
0.0
 10
352.2036066437367
 20
-750.8167857886529
 30
0.0
 10
353.7908732638098
 20
-758.2199293563954
 30
0.0
 10
355.7384593728038
 20
-767.3039085455512
 30
0.0
 10
356.1938272148727
 20
-776.7054617426475
 30
0.0
 10
358.0945996254923
 20
-785.8024241903677
 30
0.0
 10
359.9451714007428
 20
-794.6592060873845
 30
0.0
 10
357.3568702413431
 20
-801.7332522752495
 30
0.0
 10
351.5480007495808
 20
-808.0986694860294
 30
0.0
 10
345.2697874343494
 20
-814.9784339592625
 30
0.0
 10
339.2062163860664
 20
-822.0698819959271
 30
0.0
 10
332.6712966033283
 20
-828.6965215902328
 30
0.0
 10
314.3374172416288
 20
-847.2877303043788
 30
0.0
 10
296.950089449705
 20
-866.8096070215743
 30
0.0
 10
276.8375231311202
 20
-883.647199898809
 30
0.0
 10
264.1831283742504
 20
-894.2410522507616
 30
0.0
 10
251.827368029235
 20
-905.330214943293
 30
0.0
 10
240.4443788180997
 20
-917.2538683068069
 30
0.0
 10
233.2543592352322
 20
-924.7854235037685
 30
0.0
 10
222.7834488038798
 20
-922.5496752363724
 30
0.0
 10
221.1378645786699
 20
-911.8355087597665
 30
0.0
 10
219.6905718900207
 20
-902.4131083813918
 30
0.0
 10
219.1958844343662
 20
-892.7182542248684
 30
0.0
 10
219.5177991719584
 20
-883.1855058813271
 30
0.0
 10
219.8404730506218
 20
-873.6275112314142
 30
0.0
 10
221.6942565764493
 20
-864.1211187081099
 30
0.0
 10
222.9899741011614
 20
-853.6815277115456
 30
0.0
 10
218.8974641391314
 20
-853.9144866896477
 30
0.0
 10
214.9004307636606
 20
-854.3153326318043
 30
0.0
 10
210.9011783604838
 20
-854.3389827954452
 30
0.0
 10
195.5795123093158
 20
-854.4295152325249
 30
0.0
 10
180.2571649777346
 20
-854.4173689756062
 30
0.0
 10
164.9350512279852
 20
-854.3915971100905
 30
0.0
 10
162.8383814948829
 20
-854.3881323124479
 30
0.0
 10
160.72051420771
 20
-854.2307954625139
 30
0.0
 10
158.6496358053091
 20
-853.9069536745192
 30
0.0
 10
148.5735273854134
 20
-852.3312006937958
 30
0.0
 10
145.9137988388093
 20
-845.2036739918731
 30
0.0
 10
152.3696414283222
 20
-837.1271431106634
 30
0.0
 10
153.3038715547727
 20
-835.9583578634174
 30
0.0
 10
154.3772872738846
 20
-834.8892050133163
 30
0.0
 10
155.4640171591927
 20
-833.855478745736
 30
0.0
 10
192.0298076667532
 20
-799.0735334612164
 30
0.0
 10
228.7696750577416
 20
-764.4715824672858
 30
0.0
 10
265.0532500118461
 20
-729.3977669123269
 30
0.0
 10
273.2364888741449
 20
-721.4873711312175
 30
0.0
 10
282.12128112958
 20
-718.9411341722989
 30
0.0
 10
292.8779205749279
 20
-720.2920548773254
 30
0.0
 10
304.5001365441276
 20
-721.7515911486571
 30
0.0
 10
316.2081549177256
 20
-722.6400976253681
 30
0.0
 10
327.7569483212756
 20
-724.5238964206219
 30
0.0
 10
333.1913082259471
 20
-725.4102617303397
 30
0.0
 10
336.6010584022206
 20
-723.9135470124547
 30
0.0
 10
340.3431955696324
 20
-720.1651809953692
 30
0.0
 10
377.91725192169
 20
-682.5286804252646
 30
0.0
 10
415.6672927423651
 20
-645.068475766333
 30
0.0
 10
453.3647776438393
 20
-607.5554037457587
 30
0.0
 10
457.6165515061366
 20
-603.3244186692245
 30
0.0
 10
461.8491132602285
 20
-599.0739100420542
 30
0.0
 10
466.5062684458535
 20
-594.4167548564292
 30
0.0
  0
SPLINE
  5
57
330
52
100
AcDbEntity
  8
Layer 1
370
     0
100
AcDbSpline
210
0.0
220
0.0
230
1.0
 70
    11
 71
     3
 72
    26
 73
    22
 74
     0
 42
0.0000000001
 43
0.0000000001
 12
1.0
 22
0.0
 32
0.0
 13
1.0
 23
0.0
 33
0.0
 40
0.0
 40
0.0
 40
0.0
 40
0.0
 40
1.0
 40
1.0
 40
1.0
 40
2.0
 40
2.0
 40
2.0
 40
3.0
 40
3.0
 40
3.0
 40
4.0
 40
4.0
 40
4.0
 40
5.0
 40
5.0
 40
5.0
 40
6.0
 40
6.0
 40
6.0
 40
7.0
 40
7.0
 40
7.0
 40
7.0
 10
215.8732018975043
 20
-800.5628319549287
 30
0.0
 10
229.661733925348
 20
-801.2181458717296
 30
0.0
 10
242.4131624811962
 20
-802.0322954553831
 30
0.0
 10
255.1742068237581
 20
-802.2327086939149
 30
0.0
 10
257.3842416210591
 20
-802.2674734612137
 30
0.0
 10
259.9632968317146
 20
-800.0468885497485
 30
0.0
 10
261.8088076665535
 20
-798.2798222905567
 30
0.0
 10
268.7313176207463
 20
-791.6514697625571
 30
0.0
 10
275.4496186311535
 20
-784.8081635251201
 30
0.0
 10
282.1673356869032
 20
-777.9694121340017
 30
0.0
 10
283.2477491293575
 20
-776.8695724666268
 30
0.0
 10
283.9342072945328
 20
-775.3829406992045
 30
0.0
 10
285.2151702315241
 20
-773.454177395326
 30
0.0
 10
271.9298319322261
 20
-772.9507500849813
 30
0.0
 10
259.6889743986885
 20
-772.3774623324243
 30
0.0
 10
247.4416349684889
 20
-772.1418366280486
 30
0.0
 10
245.6261783333302
 20
-772.1070523956168
 30
0.0
 10
243.3694076982438
 20
-773.2426690183383
 30
0.0
 10
242.0149443349655
 20
-774.5564891374197
 30
0.0
 10
233.2262515510556
 20
-783.0811954857782
 30
0.0
 10
224.6308088284968
 20
-791.8052250239416
 30
0.0
 10
215.8732018975043
 20
-800.5628319549287
 30
0.0
  0
SPLINE
  5
58
330
52
100
AcDbEntity
  8
Layer 1
370
     0
100
AcDbSpline
210
0.0
220
0.0
230
1.0
 70
    11
 71
     3
 72
    26
 73
    22
 74
     0
 42
0.0000000001
 43
0.0000000001
 12
1.0
 22
0.0
 32
0.0
 13
1.0
 23
0.0
 33
0.0
 40
0.0
 40
0.0
 40
0.0
 40
0.0
 40
1.0
 40
1.0
 40
1.0
 40
2.0
 40
2.0
 40
2.0
 40
3.0
 40
3.0
 40
3.0
 40
4.0
 40
4.0
 40
4.0
 40
5.0
 40
5.0
 40
5.0
 40
6.0
 40
6.0
 40
6.0
 40
7.0
 40
7.0
 40
7.0
 40
7.0
 10
239.133459007172
 20
-894.2726247325918
 30
0.0
 10
239.996018431948
 20
-894.6536940770056
 30
0.0
 10
240.8585973219415
 20
-895.0347828865852
 30
0.0
 10
241.7211567467439
 20
-895.4158522310354
 30
0.0
 10
253.057682632264
 20
-884.4492032256057
 30
0.0
 10
264.4233089249192
 20
-873.5119660698274
 30
0.0
 10
275.6782368796084
 20
-862.4623176424502
 30
0.0
 10
276.6233480278825
 20
-861.5344136914409
 30
0.0
 10
277.58080008455
 20
-859.6192759962432
 30
0.0
 10
277.2544667566963
 20
-858.5546682598942
 30
0.0
 10
274.7689610822017
 20
-850.4479371903253
 30
0.0
 10
272.4869830710777
 20
-842.2099331136651
 30
0.0
 10
267.5925281777281
 20
-833.3291701454236
 30
0.0
 10
259.0150907237867
 20
-841.9066075993633
 30
0.0
 10
251.5705447708078
 20
-849.2691273880573
 30
0.0
 10
244.2507315327148
 20
-856.7534211880611
 30
0.0
 10
243.0595224265808
 20
-857.9713754175264
 30
0.0
 10
241.77174668525
 20
-859.6700216559693
 30
0.0
 10
241.6292812139491
 20
-861.24594009057
 30
0.0
 10
240.6349232228731
 20
-872.2402490815566
 30
0.0
 10
239.9306155103204
 20
-883.2606608457681
 30
0.0
 10
239.133459007172
 20
-894.2726247325918
 30
0.0
  0
SPLINE
  5
59
330
52
100
AcDbEntity
  8
Layer 1
370
     0
100
AcDbSpline
210
0.0
220
0.0
230
1.0
 70
    11
 71
     3
 72
    23
 73
    19
 74
     0
 42
0.0000000001
 43
0.0000000001
 12
1.0
 22
0.0
 32
0.0
 13
1.0
 23
0.0
 33
0.0
 40
0.0
 40
0.0
 40
0.0
 40
0.0
 40
1.0
 40
1.0
 40
1.0
 40
2.0
 40
2.0
 40
2.0
 40
3.0
 40
3.0
 40
3.0
 40
4.0
 40
4.0
 40
4.0
 40
5.0
 40
5.0
 40
5.0
 40
6.0
 40
6.0
 40
6.0
 40
6.0
 10
257.7737783080147
 20
-759.0921240330463
 30
0.0
 10
271.6680450591903
 20
-759.5713172251253
 30
0.0
 10
284.4030255588514
 20
-760.0384225557646
 30
0.0
 10
297.1409452969638
 20
-760.400863746625
 30
0.0
 10
298.25688264771
 20
-760.4326698103068
 30
0.0
 10
299.7128957259138
 20
-760.1123706805593
 30
0.0
 10
300.4685719832432
 20
-759.3890065810047
 30
0.0
 10
307.2480909069109
 20
-752.8993627494019
 30
0.0
 10
314.4520280757606
 20
-746.7824377105571
 30
0.0
 10
320.7282948754901
 20
-738.327007849759
 30
0.0
 10
307.434450303308
 20
-736.1634947735001
 30
0.0
 10
295.2188780064771
 20
-736.305181638596
 30
0.0
 10
282.9969795341658
 20
-736.7958982025557
 30
0.0
 10
281.5744854533277
 20
-736.8530673635632
 30
0.0
 10
279.7904455787211
 20
-737.2366671781529
 30
0.0
 10
278.837139600133
 20
-738.1563762987989
 30
0.0
 10
272.0446568830548
 20
-744.7095154668568
 30
0.0
 10
265.4245186505941
 20
-751.441383690475
 30
0.0
 10
257.7737783080147
 20
-759.0921240330463
 30
0.0
  0
SPLINE
  5
5A
330
52
100
AcDbEntity
  8
Layer 1
370
     0
100
AcDbSpline
210
0.0
220
0.0
230
1.0
 70
    11
 71
     3
 72
    17
 73
    13
 74
     0
 42
0.0000000001
 43
0.0000000001
 12
1.0
 22
0.0
 32
0.0
 13
1.0
 23
0.0
 33
0.0
 40
0.0
 40
0.0
 40
0.0
 40
0.0
 40
1.0
 40
1.0
 40
1.0
 40
2.0
 40
2.0
 40
2.0
 40
3.0
 40
3.0
 40
3.0
 40
4.0
 40
4.0
 40
4.0
 40
4.0
 10
279.5681145754243
 20
-821.823706177438
 30
0.0
 10
282.8585044197034
 20
-830.1868712023352
 30
0.0
 10
286.1019832398106
 20
-838.4305591042757
 30
0.0
 10
289.5437341313573
 20
-847.1783555970178
 30
0.0
 10
298.3104507549697
 20
-838.4116389734045
 30
0.0
 10
306.4396446137416
 20
-830.2824451146298
 30
0.0
 10
314.2778733317318
 20
-822.4442163966414
 30
0.0
 10
310.7337162583826
 20
-813.8140478371151
 30
0.0
 10
307.4928652342451
 20
-805.922737640707
 30
0.0
 10
303.9924463647749
 20
-797.3993743880819
 30
0.0
 10
295.4713021398293
 20
-805.9205186130239
 30
0.0
 10
287.6717701504767
 20
-813.7200506023837
 30
0.0
 10
279.5681145754243
 20
-821.823706177438
 30
0.0
  0
SPLINE
  5
5B
330
52
100
AcDbEntity
  8
Layer 1
370
     0
100
AcDbSpline
210
0.0
220
0.0
230
1.0
 70
    11
 71
     3
 72
    26
 73
    22
 74
     0
 42
0.0000000001
 43
0.0000000001
 12
1.0
 22
0.0
 32
0.0
 13
1.0
 23
0.0
 33
0.0
 40
0.0
 40
0.0
 40
0.0
 40
0.0
 40
1.0
 40
1.0
 40
1.0
 40
2.0
 40
2.0
 40
2.0
 40
3.0
 40
3.0
 40
3.0
 40
4.0
 40
4.0
 40
4.0
 40
5.0
 40
5.0
 40
5.0
 40
6.0
 40
6.0
 40
6.0
 40
7.0
 40
7.0
 40
7.0
 40
7.0
 10
181.5231397451989
 20
-835.1796835251644
 30
0.0
 10
195.4336404358346
 20
-835.2735055734884
 30
0.0
 10
207.3960683886162
 20
-835.3734007502426
 30
0.0
 10
219.3587493883815
 20
-835.4040973000701
 30
0.0
 10
220.5194760613767
 20
-835.4070365385378
 30
0.0
 10
221.989542981657
 20
-835.3577313002861
 30
0.0
 10
222.7940573134947
 20
-834.697064465794
 30
0.0
 10
229.3653185411313
 20
-829.3009925215465
 30
0.0
 10
235.8124894039902
 20
-823.753734716387
 30
0.0
 10
243.6133644890615
 20
-817.1360685586442
 30
0.0
 10
240.4110544723017
 20
-816.5652918111064
 30
0.0
 10
239.3346119215548
 20
-816.2036097613509
 30
0.0
 10
238.2597071181153
 20
-816.2080088864186
 30
0.0
 10
226.8726886198283
 20
-816.2541996998552
 30
0.0
 10
215.4852224229817
 20
-816.3088189254559
 30
0.0
 10
204.1001309750991
 20
-816.5006674956803
 30
0.0
 10
202.3979226132105
 20
-816.5293007390501
 30
0.0
 10
200.2100391625881
 20
-816.7421716769022
 30
0.0
 10
199.0960483273175
 20
-817.7807155703813
 30
0.0
 10
193.4956311832166
 20
-823.0019904204692
 30
0.0
 10
188.1771862780988
 20
-828.5256369922608
 30
0.0
 10
181.5231397451989
 20
-835.1796835251644
 30
0.0
  0
SPLINE
  5
5C
330
52
100
AcDbEntity
  8
Layer 1
370
     0
100
AcDbSpline
210
0.0
220
0.0
230
1.0
 70
    11
 71
     3
 72
    26
 73
    22
 74
     0
 42
0.0000000001
 43
0.0000000001
 12
1.0
 22
0.0
 32
0.0
 13
1.0
 23
0.0
 33
0.0
 40
0.0
 40
0.0
 40
0.0
 40
0.0
 40
1.0
 40
1.0
 40
1.0
 40
2.0
 40
2.0
 40
2.0
 40
3.0
 40
3.0
 40
3.0
 40
4.0
 40
4.0
 40
4.0
 40
5.0
 40
5.0
 40
5.0
 40
6.0
 40
6.0
 40
6.0
 40
7.0
 40
7.0
 40
7.0
 40
7.0
 10
323.9496223489296
 20
-812.9996257412295
 30
0.0
 10
329.4417548343717
 20
-807.5074932557873
 30
0.0
 10
333.6591726976567
 20
-803.3075551019338
 30
0.0
 10
337.8537773989628
 20
-799.0848037860997
 30
0.0
 10
339.1188956996102
 20
-797.8111986778022
 30
0.0
 10
340.4774856757595
 20
-796.5851274785891
 30
0.0
 10
341.5012944466907
 20
-795.1315670099266
 30
0.0
 10
342.3176435929217
 20
-793.9724364796839
 30
0.0
 10
343.0065932980169
 20
-792.5435772930578
 30
0.0
 10
343.1938286263858
 20
-791.1589624043263
 30
0.0
 10
343.5842607104969
 20
-788.2717737860075
 30
0.0
 10
337.7467385102418
 20
-769.1557455558595
 30
0.0
 10
335.5096666122372
 20
-765.5969117554614
 30
0.0
 10
329.9448901673713
 20
-771.16168820032
 30
0.0
 10
324.3124333777077
 20
-776.5253311959495
 30
0.0
 10
319.0533182658464
 20
-782.233040275858
 30
0.0
 10
317.6526251588357
 20
-783.7532105057799
 30
0.0
 10
316.3609953167615
 20
-786.5769816482898
 30
0.0
 10
316.7936862529259
 20
-788.3753478770814
 30
0.0
 10
318.6625747392327
 20
-796.1428012905853
 30
0.0
 10
321.1899694278145
 20
-803.751847270616
 30
0.0
 10
323.9496223489296
 20
-812.9996257412295
 30
0.0
  0
HATCH
  5
5D
330
52
100
AcDbEntity
  8
Layer 1
 62
     7
420
 16777215
100
AcDbHatch
 10
0.0
 20
0.0
 30
0.0
210
0.0
220
0.0
230
1.0
  2
SOLID
 70
     1
 71
     0
 91
        7
 92
        1
 93
        1
 72
     4
 94
        3
 73
     0
 74
     1
 95
       74
 96
       70
 40
0.0
 40
0.0
 40
0.0
 40
0.0
 40
1.0
 40
1.0
 40
1.0
 40
2.0
 40
2.0
 40
2.0
 40
3.0
 40
3.0
 40
3.0
 40
4.0
 40
4.0
 40
4.0
 40
5.0
 40
5.0
 40
5.0
 40
6.0
 40
6.0
 40
6.0
 40
7.0
 40
7.0
 40
7.0
 40
8.0
 40
8.0
 40
8.0
 40
9.0
 40
9.0
 40
9.0
 40
10.0
 40
10.0
 40
10.0
 40
11.0
 40
11.0
 40
11.0
 40
12.0
 40
12.0
 40
12.0
 40
13.0
 40
13.0
 40
13.0
 40
14.0
 40
14.0
 40
14.0
 40
15.0
 40
15.0
 40
15.0
 40
16.0
 40
16.0
 40
16.0
 40
17.0
 40
17.0
 40
17.0
 40
18.0
 40
18.0
 40
18.0
 40
19.0
 40
19.0
 40
19.0
 40
20.0
 40
20.0
 40
20.0
 40
21.0
 40
21.0
 40
21.0
 40
22.0
 40
22.0
 40
22.0
 40
23.0
 40
23.0
 40
23.0
 40
23.0
 10
466.5062684458535
 20
-594.4167548564292
 10
476.2989739377954
 20
-598.2774153541868
 10
485.1591038414999
 20
-601.7704569298112
 10
495.2802254329745
 20
-605.7608332221971
 10
492.3992656643295
 20
-608.8231303771881
 10
490.1247622728224
 20
-611.3778541437077
 10
487.7074819674908
 20
-613.7898009965284
 10
445.1686625813245
 20
-656.2349151252656
 10
402.7011051285826
 20
-698.7525369573268
 10
359.944704237003
 20
-740.97726659832
 10
354.7555663582407
 20
-746.1018580222371
 10
352.2036066437367
 20
-750.8167857886529
 10
353.7908732638098
 20
-758.2199293563954
 10
355.7384593728038
 20
-767.3039085455512
 10
356.1938272148727
 20
-776.7054617426475
 10
358.0945996254923
 20
-785.8024241903677
 10
359.9451714007428
 20
-794.6592060873845
 10
357.3568702413431
 20
-801.7332522752495
 10
351.5480007495808
 20
-808.0986694860294
 10
345.2697874343494
 20
-814.9784339592625
 10
339.2062163860664
 20
-822.0698819959271
 10
332.6712966033283
 20
-828.6965215902328
 10
314.3374172416288
 20
-847.2877303043788
 10
296.950089449705
 20
-866.8096070215743
 10
276.8375231311202
 20
-883.647199898809
 10
264.1831283742504
 20
-894.2410522507616
 10
251.827368029235
 20
-905.330214943293
 10
240.4443788180997
 20
-917.2538683068069
 10
233.2543592352322
 20
-924.7854235037685
 10
222.7834488038798
 20
-922.5496752363724
 10
221.1378645786699
 20
-911.8355087597665
 10
219.6905718900207
 20
-902.4131083813918
 10
219.1958844343662
 20
-892.7182542248684
 10
219.5177991719584
 20
-883.1855058813271
 10
219.8404730506218
 20
-873.6275112314142
 10
221.6942565764493
 20
-864.1211187081099
 10
222.9899741011614
 20
-853.6815277115456
 10
218.8974641391314
 20
-853.9144866896477
 10
214.9004307636606
 20
-854.3153326318043
 10
210.9011783604838
 20
-854.3389827954452
 10
195.5795123093158
 20
-854.4295152325249
 10
180.2571649777346
 20
-854.4173689756062
 10
164.9350512279852
 20
-854.3915971100905
 10
162.8383814948829
 20
-854.3881323124479
 10
160.72051420771
 20
-854.2307954625139
 10
158.6496358053091
 20
-853.9069536745192
 10
148.5735273854134
 20
-852.3312006937958
 10
145.9137988388093
 20
-845.2036739918731
 10
152.3696414283222
 20
-837.1271431106634
 10
153.3038715547727
 20
-835.9583578634174
 10
154.3772872738846
 20
-834.8892050133163
 10
155.4640171591927
 20
-833.855478745736
 10
192.0298076667532
 20
-799.0735334612164
 10
228.7696750577416
 20
-764.4715824672858
 10
265.0532500118461
 20
-729.3977669123269
 10
273.2364888741449
 20
-721.4873711312175
 10
282.12128112958
 20
-718.9411341722989
 10
292.8779205749279
 20
-720.2920548773254
 10
304.5001365441276
 20
-721.7515911486571
 10
316.2081549177256
 20
-722.6400976253681
 10
327.7569483212756
 20
-724.5238964206219
 10
333.1913082259471
 20
-725.4102617303397
 10
336.6010584022206
 20
-723.9135470124547
 10
340.3431955696324
 20
-720.1651809953692
 10
377.91725192169
 20
-682.5286804252646
 10
415.6672927423651
 20
-645.068475766333
 10
453.3647776438393
 20
-607.5554037457587
 10
457.6165515061366
 20
-603.3244186692245
 10
461.8491132602285
 20
-599.0739100420542
 10
466.5062684458535
 20
-594.4167548564292
 97
        0
 97
        0
 92
        1
 93
        1
 72
     4
 94
        3
 73
     0
 74
     1
 95
       26
 96
       22
 40
0.0
 40
0.0
 40
0.0
 40
0.0
 40
1.0
 40
1.0
 40
1.0
 40
2.0
 40
2.0
 40
2.0
 40
3.0
 40
3.0
 40
3.0
 40
4.0
 40
4.0
 40
4.0
 40
5.0
 40
5.0
 40
5.0
 40
6.0
 40
6.0
 40
6.0
 40
7.0
 40
7.0
 40
7.0
 40
7.0
 10
215.8732018975043
 20
-800.5628319549287
 10
229.661733925348
 20
-801.2181458717296
 10
242.4131624811962
 20
-802.0322954553831
 10
255.1742068237581
 20
-802.2327086939149
 10
257.3842416210591
 20
-802.2674734612137
 10
259.9632968317146
 20
-800.0468885497485
 10
261.8088076665535
 20
-798.2798222905567
 10
268.7313176207463
 20
-791.6514697625571
 10
275.4496186311535
 20
-784.8081635251201
 10
282.1673356869032
 20
-777.9694121340017
 10
283.2477491293575
 20
-776.8695724666268
 10
283.9342072945328
 20
-775.3829406992045
 10
285.2151702315241
 20
-773.454177395326
 10
271.9298319322261
 20
-772.9507500849813
 10
259.6889743986885
 20
-772.3774623324243
 10
247.4416349684889
 20
-772.1418366280486
 10
245.6261783333302
 20
-772.1070523956168
 10
243.3694076982438
 20
-773.2426690183383
 10
242.0149443349655
 20
-774.5564891374197
 10
233.2262515510556
 20
-783.0811954857782
 10
224.6308088284968
 20
-791.8052250239416
 10
215.8732018975043
 20
-800.5628319549287
 97
        0
 97
        0
 92
        1
 93
        1
 72
     4
 94
        3
 73
     0
 74
     1
 95
       26
 96
       22
 40
0.0
 40
0.0
 40
0.0
 40
0.0
 40
1.0
 40
1.0
 40
1.0
 40
2.0
 40
2.0
 40
2.0
 40
3.0
 40
3.0
 40
3.0
 40
4.0
 40
4.0
 40
4.0
 40
5.0
 40
5.0
 40
5.0
 40
6.0
 40
6.0
 40
6.0
 40
7.0
 40
7.0
 40
7.0
 40
7.0
 10
239.133459007172
 20
-894.2726247325918
 10
239.996018431948
 20
-894.6536940770056
 10
240.8585973219415
 20
-895.0347828865852
 10
241.7211567467439
 20
-895.4158522310354
 10
253.057682632264
 20
-884.4492032256057
 10
264.4233089249192
 20
-873.5119660698274
 10
275.6782368796084
 20
-862.4623176424502
 10
276.6233480278825
 20
-861.5344136914409
 10
277.58080008455
 20
-859.6192759962432
 10
277.2544667566963
 20
-858.5546682598942
 10
274.7689610822017
 20
-850.4479371903253
 10
272.4869830710777
 20
-842.2099331136651
 10
267.5925281777281
 20
-833.3291701454236
 10
259.0150907237867
 20
-841.9066075993633
 10
251.5705447708078
 20
-849.2691273880573
 10
244.2507315327148
 20
-856.7534211880611
 10
243.0595224265808
 20
-857.9713754175264
 10
241.77174668525
 20
-859.6700216559693
 10
241.6292812139491
 20
-861.24594009057
 10
240.6349232228731
 20
-872.2402490815566
 10
239.9306155103204
 20
-883.2606608457681
 10
239.133459007172
 20
-894.2726247325918
 97
        0
 97
        0
 92
        1
 93
        1
 72
     4
 94
        3
 73
     0
 74
     1
 95
       23
 96
       19
 40
0.0
 40
0.0
 40
0.0
 40
0.0
 40
1.0
 40
1.0
 40
1.0
 40
2.0
 40
2.0
 40
2.0
 40
3.0
 40
3.0
 40
3.0
 40
4.0
 40
4.0
 40
4.0
 40
5.0
 40
5.0
 40
5.0
 40
6.0
 40
6.0
 40
6.0
 40
6.0
 10
257.7737783080147
 20
-759.0921240330463
 10
271.6680450591903
 20
-759.5713172251253
 10
284.4030255588514
 20
-760.0384225557646
 10
297.1409452969638
 20
-760.400863746625
 10
298.25688264771
 20
-760.4326698103068
 10
299.7128957259138
 20
-760.1123706805593
 10
300.4685719832432
 20
-759.3890065810047
 10
307.2480909069109
 20
-752.8993627494019
 10
314.4520280757606
 20
-746.7824377105571
 10
320.7282948754901
 20
-738.327007849759
 10
307.434450303308
 20
-736.1634947735001
 10
295.2188780064771
 20
-736.305181638596
 10
282.9969795341658
 20
-736.7958982025557
 10
281.5744854533277
 20
-736.8530673635632
 10
279.7904455787211
 20
-737.2366671781529
 10
278.837139600133
 20
-738.1563762987989
 10
272.0446568830548
 20
-744.7095154668568
 10
265.4245186505941
 20
-751.441383690475
 10
257.7737783080147
 20
-759.0921240330463
 97
        0
 97
        0
 92
        1
 93
        1
 72
     4
 94
        3
 73
     0
 74
     1
 95
       17
 96
       13
 40
0.0
 40
0.0
 40
0.0
 40
0.0
 40
1.0
 40
1.0
 40
1.0
 40
2.0
 40
2.0
 40
2.0
 40
3.0
 40
3.0
 40
3.0
 40
4.0
 40
4.0
 40
4.0
 40
4.0
 10
279.5681145754243
 20
-821.823706177438
 10
282.8585044197034
 20
-830.1868712023352
 10
286.1019832398106
 20
-838.4305591042757
 10
289.5437341313573
 20
-847.1783555970178
 10
298.3104507549697
 20
-838.4116389734045
 10
306.4396446137416
 20
-830.2824451146298
 10
314.2778733317318
 20
-822.4442163966414
 10
310.7337162583826
 20
-813.8140478371151
 10
307.4928652342451
 20
-805.922737640707
 10
303.9924463647749
 20
-797.3993743880819
 10
295.4713021398293
 20
-805.9205186130239
 10
287.6717701504767
 20
-813.7200506023837
 10
279.5681145754243
 20
-821.823706177438
 97
        0
 97
        0
 92
        1
 93
        1
 72
     4
 94
        3
 73
     0
 74
     1
 95
       26
 96
       22
 40
0.0
 40
0.0
 40
0.0
 40
0.0
 40
1.0
 40
1.0
 40
1.0
 40
2.0
 40
2.0
 40
2.0
 40
3.0
 40
3.0
 40
3.0
 40
4.0
 40
4.0
 40
4.0
 40
5.0
 40
5.0
 40
5.0
 40
6.0
 40
6.0
 40
6.0
 40
7.0
 40
7.0
 40
7.0
 40
7.0
 10
181.5231397451989
 20
-835.1796835251644
 10
195.4336404358346
 20
-835.2735055734884
 10
207.3960683886162
 20
-835.3734007502426
 10
219.3587493883815
 20
-835.4040973000701
 10
220.5194760613767
 20
-835.4070365385378
 10
221.989542981657
 20
-835.3577313002861
 10
222.7940573134947
 20
-834.697064465794
 10
229.3653185411313
 20
-829.3009925215465
 10
235.8124894039902
 20
-823.753734716387
 10
243.6133644890615
 20
-817.1360685586442
 10
240.4110544723017
 20
-816.5652918111064
 10
239.3346119215548
 20
-816.2036097613509
 10
238.2597071181153
 20
-816.2080088864186
 10
226.8726886198283
 20
-816.2541996998552
 10
215.4852224229817
 20
-816.3088189254559
 10
204.1001309750991
 20
-816.5006674956803
 10
202.3979226132105
 20
-816.5293007390501
 10
200.2100391625881
 20
-816.7421716769022
 10
199.0960483273175
 20
-817.7807155703813
 10
193.4956311832166
 20
-823.0019904204692
 10
188.1771862780988
 20
-828.5256369922608
 10
181.5231397451989
 20
-835.1796835251644
 97
        0
 97
        0
 92
        1
 93
        1
 72
     4
 94
        3
 73
     0
 74
     1
 95
       26
 96
       22
 40
0.0
 40
0.0
 40
0.0
 40
0.0
 40
1.0
 40
1.0
 40
1.0
 40
2.0
 40
2.0
 40
2.0
 40
3.0
 40
3.0
 40
3.0
 40
4.0
 40
4.0
 40
4.0
 40
5.0
 40
5.0
 40
5.0
 40
6.0
 40
6.0
 40
6.0
 40
7.0
 40
7.0
 40
7.0
 40
7.0
 10
323.9496223489296
 20
-812.9996257412295
 10
329.4417548343717
 20
-807.5074932557873
 10
333.6591726976567
 20
-803.3075551019338
 10
337.8537773989628
 20
-799.0848037860997
 10
339.1188956996102
 20
-797.8111986778022
 10
340.4774856757595
 20
-796.5851274785891
 10
341.5012944466907
 20
-795.1315670099266
 10
342.3176435929217
 20
-793.9724364796839
 10
343.0065932980169
 20
-792.5435772930578
 10
343.1938286263858
 20
-791.1589624043263
 10
343.5842607104969
 20
-788.2717737860075
 10
337.7467385102418
 20
-769.1557455558595
 10
335.5096666122372
 20
-765.5969117554614
 10
329.9448901673713
 20
-771.16168820032
 10
324.3124333777077
 20
-776.5253311959495
 10
319.0533182658464
 20
-782.233040275858
 10
317.6526251588357
 20
-783.7532105057799
 10
316.3609953167615
 20
-786.5769816482898
 10
316.7936862529259
 20
-788.3753478770814
 10
318.6625747392327
 20
-796.1428012905853
 10
321.1899694278145
 20
-803.751847270616
 10
323.9496223489296
 20
-812.9996257412295
 97
        0
 97
        0
 75
     2
 76
     1
 98
        0
  0
SPLINE
  5
5E
330
52
100
AcDbEntity
  8
Layer 1
370
     0
100
AcDbSpline
210
0.0
220
0.0
230
1.0
 70
    11
 71
     3
 72
    65
 73
    61
 74
     0
 42
0.0000000001
 43
0.0000000001
 12
1.0
 22
0.0
 32
0.0
 13
1.0
 23
0.0
 33
0.0
 40
0.0
 40
0.0
 40
0.0
 40
0.0
 40
1.0
 40
1.0
 40
1.0
 40
2.0
 40
2.0
 40
2.0
 40
3.0
 40
3.0
 40
3.0
 40
4.0
 40
4.0
 40
4.0
 40
5.0
 40
5.0
 40
5.0
 40
6.0
 40
6.0
 40
6.0
 40
7.0
 40
7.0
 40
7.0
 40
8.0
 40
8.0
 40
8.0
 40
9.0
 40
9.0
 40
9.0
 40
10.0
 40
10.0
 40
10.0
 40
11.0
 40
11.0
 40
11.0
 40
12.0
 40
12.0
 40
12.0
 40
13.0
 40
13.0
 40
13.0
 40
14.0
 40
14.0
 40
14.0
 40
15.0
 40
15.0
 40
15.0
 40
16.0
 40
16.0
 40
16.0
 40
17.0
 40
17.0
 40
17.0
 40
18.0
 40
18.0
 40
18.0
 40
19.0
 40
19.0
 40
19.0
 40
20.0
 40
20.0
 40
20.0
 40
20.0
 10
842.7539576559029
 20
-258.134182739559
 30
0.0
 10
755.5405047232744
 20
-345.6377832764229
 30
0.0
 10
671.2892201869927
 20
-432.9900616963205
 30
0.0
 10
582.9695819464123
 20
-519.0252693162165
 30
0.0
 10
581.6320338030982
 20
-511.8322910297757
 30
0.0
 10
581.3271510763134
 20
-505.858843650336
 30
0.0
 10
579.3563625022234
 20
-500.4976921945963
 30
0.0
 10
575.2648841934715
 20
-489.3679251881731
 30
0.0
 10
578.9102990044212
 20
-482.0714312060445
 30
0.0
 10
587.2234969757828
 20
-473.9666271868555
 30
0.0
 10
664.4872579393195
 20
-398.6394545196599
 30
0.0
 10
741.2837383857786
 20
-322.8331665209771
 30
0.0
 10
818.2122120500844
 20
-247.162297607425
 30
0.0
 10
820.6861359571976
 20
-244.7288222929055
 30
0.0
 10
823.122647835904
 20
-242.2570006225706
 30
0.0
 10
827.0709599278034
 20
-238.308688530693
 30
0.0
 10
821.6551113857604
 20
-238.1341055532066
 30
0.0
 10
818.4845295720916
 20
-238.109715713661
 30
0.0
 10
815.3244978725434
 20
-237.9149279050343
 30
0.0
 10
806.93939561767
 20
-237.3984200103569
 30
0.0
 10
798.5403563116361
 20
-236.9937978280796
 30
0.0
 10
790.1843155335682
 20
-236.1662562175552
 30
0.0
 10
786.3101462180657
 20
-235.7827342636247
 30
0.0
 10
782.1760976147107
 20
-234.8257104403347
 30
0.0
 10
781.0099012331029
 20
-230.1900447860844
 30
0.0
 10
779.7445590832031
 20
-225.1606087736109
 30
0.0
 10
783.1068921412898
 20
-222.0524127825574
 30
0.0
 10
786.7278489846922
 20
-219.9506139810255
 30
0.0
 10
795.0186620274908
 20
-215.1381073913235
 30
0.0
 10
803.3583326099997
 20
-210.2545529848958
 30
0.0
 10
812.1413221034636
 20
-206.4767556530423
 30
0.0
 10
831.179762224705
 20
-198.2876480464456
 30
0.0
 10
850.4839211803701
 20
-190.7112062014639
 30
0.0
 10
869.7275629683536
 20
-183.0047955148602
 30
0.0
 10
882.8252571710091
 20
-177.7597731753613
 30
0.0
 10
895.9638865952493
 20
-172.6095656071266
 30
0.0
 10
909.1687948730323
 20
-167.642427824072
 30
0.0
 10
914.2020363233751
 20
-165.7491884285155
 30
0.0
 10
919.6210382205245
 20
-163.5767797763074
 30
0.0
 10
924.3329683530374
 20
-168.3780939017415
 30
0.0
 10
929.1692418973234
 20
-173.3059315363917
 30
0.0
 10
927.7746803142709
 20
-179.1785688767359
 30
0.0
 10
925.4037660087415
 20
-184.4065397402082
 30
0.0
 10
918.8371180229387
 20
-198.8865519433457
 30
0.0
 10
912.4467854134127
 20
-213.5129810442486
 30
0.0
 10
904.7559663161319
 20
-227.3998315712543
 30
0.0
 10
893.9929812302107
 20
-246.8339982988746
 30
0.0
 10
882.1573687639338
 20
-265.676093399099
 30
0.0
 10
870.6746400972916
 20
-284.7075649947838
 30
0.0
 10
868.824671741877
 20
-287.7737162505382
 30
0.0
 10
866.7228632077877
 20
-290.8019883141333
 30
0.0
 10
864.2204617785155
 20
-293.3377919498053
 30
0.0
 10
857.8539350538867
 20
-299.7893035422621
 30
0.0
 10
850.1969074661429
 20
-297.9740026283889
 30
0.0
 10
847.7892234823994
 20
-289.1502920301373
 30
0.0
 10
846.060192136556
 20
-282.813469132403
 30
0.0
 10
845.569611828696
 20
-276.1382639757267
 30
0.0
 10
844.5350582920601
 20
-269.6126680023463
 30
0.0
 10
844.0330908683227
 20
-266.4453757999127
 30
0.0
 10
843.55074432113
 20
-263.274969172644
 30
0.0
 10
842.7539576559029
 20
-258.134182739559
 30
0.0
  0
SPLINE
  5
5F
330
52
100
AcDbEntity
  8
Layer 1
370
     0
100
AcDbSpline
210
0.0
220
0.0
230
1.0
 70
    11
 71
     3
 72
    20
 73
    16
 74
     0
 42
0.0000000001
 43
0.0000000001
 12
1.0
 22
0.0
 32
0.0
 13
1.0
 23
0.0
 33
0.0
 40
0.0
 40
0.0
 40
0.0
 40
0.0
 40
1.0
 40
1.0
 40
1.0
 40
2.0
 40
2.0
 40
2.0
 40
3.0
 40
3.0
 40
3.0
 40
4.0
 40
4.0
 40
4.0
 40
5.0
 40
5.0
 40
5.0
 40
5.0
 10
859.5539243880539
 20
-266.8244986287991
 30
0.0
 10
871.4186372614131
 20
-255.1092781477892
 30
0.0
 10
906.5533787523873
 20
-190.345728446393
 30
0.0
 10
907.7528605495208
 20
-181.031223423568
 30
0.0
 10
875.2383041422054
 20
-194.8172639115382
 30
0.0
 10
843.1227250222637
 20
-208.4342105957749
 30
0.0
 10
811.0071653673695
 20
-222.0511767452099
 30
0.0
 10
822.3016659827244
 20
-223.3508651615684
 30
0.0
 10
833.3464286561612
 20
-223.4889120426124
 30
0.0
 10
844.3910550734872
 20
-223.4997541340817
 30
0.0
 10
855.0174531649918
 20
-223.5100122709446
 30
0.0
 10
859.1007755737301
 20
-228.3977906160089
 30
0.0
 10
858.7443685810013
 20
-239.2047280225415
 30
0.0
 10
858.4411987879103
 20
-248.3924564892022
 30
0.0
 10
859.2416838325989
 20
-257.6165264006977
 30
0.0
 10
859.5539243880539
 20
-266.8244986287991
 30
0.0
  0
HATCH
  5
60
330
52
100
AcDbEntity
  8
Layer 1
 62
     7
420
 16777215
100
AcDbHatch
 10
0.0
 20
0.0
 30
0.0
210
0.0
220
0.0
230
1.0
  2
SOLID
 70
     1
 71
     0
 91
        2
 92
        1
 93
        1
 72
     4
 94
        3
 73
     0
 74
     1
 95
       65
 96
       61
 40
0.0
 40
0.0
 40
0.0
 40
0.0
 40
1.0
 40
1.0
 40
1.0
 40
2.0
 40
2.0
 40
2.0
 40
3.0
 40
3.0
 40
3.0
 40
4.0
 40
4.0
 40
4.0
 40
5.0
 40
5.0
 40
5.0
 40
6.0
 40
6.0
 40
6.0
 40
7.0
 40
7.0
 40
7.0
 40
8.0
 40
8.0
 40
8.0
 40
9.0
 40
9.0
 40
9.0
 40
10.0
 40
10.0
 40
10.0
 40
11.0
 40
11.0
 40
11.0
 40
12.0
 40
12.0
 40
12.0
 40
13.0
 40
13.0
 40
13.0
 40
14.0
 40
14.0
 40
14.0
 40
15.0
 40
15.0
 40
15.0
 40
16.0
 40
16.0
 40
16.0
 40
17.0
 40
17.0
 40
17.0
 40
18.0
 40
18.0
 40
18.0
 40
19.0
 40
19.0
 40
19.0
 40
20.0
 40
20.0
 40
20.0
 40
20.0
 10
842.7539576559029
 20
-258.134182739559
 10
755.5405047232744
 20
-345.6377832764229
 10
671.2892201869927
 20
-432.9900616963205
 10
582.9695819464123
 20
-519.0252693162165
 10
581.6320338030982
 20
-511.8322910297757
 10
581.3271510763134
 20
-505.858843650336
 10
579.3563625022234
 20
-500.4976921945963
 10
575.2648841934715
 20
-489.3679251881731
 10
578.9102990044212
 20
-482.0714312060445
 10
587.2234969757828
 20
-473.9666271868555
 10
664.4872579393195
 20
-398.6394545196599
 10
741.2837383857786
 20
-322.8331665209771
 10
818.2122120500844
 20
-247.162297607425
 10
820.6861359571976
 20
-244.7288222929055
 10
823.122647835904
 20
-242.2570006225706
 10
827.0709599278034
 20
-238.308688530693
 10
821.6551113857604
 20
-238.1341055532066
 10
818.4845295720916
 20
-238.109715713661
 10
815.3244978725434
 20
-237.9149279050343
 10
806.93939561767
 20
-237.3984200103569
 10
798.5403563116361
 20
-236.9937978280796
 10
790.1843155335682
 20
-236.1662562175552
 10
786.3101462180657
 20
-235.7827342636247
 10
782.1760976147107
 20
-234.8257104403347
 10
781.0099012331029
 20
-230.1900447860844
 10
779.7445590832031
 20
-225.1606087736109
 10
783.1068921412898
 20
-222.0524127825574
 10
786.7278489846922
 20
-219.9506139810255
 10
795.0186620274908
 20
-215.1381073913235
 10
803.3583326099997
 20
-210.2545529848958
 10
812.1413221034636
 20
-206.4767556530423
 10
831.179762224705
 20
-198.2876480464456
 10
850.4839211803701
 20
-190.7112062014639
 10
869.7275629683536
 20
-183.0047955148602
 10
882.8252571710091
 20
-177.7597731753613
 10
895.9638865952493
 20
-172.6095656071266
 10
909.1687948730323
 20
-167.642427824072
 10
914.2020363233751
 20
-165.7491884285155
 10
919.6210382205245
 20
-163.5767797763074
 10
924.3329683530374
 20
-168.3780939017415
 10
929.1692418973234
 20
-173.3059315363917
 10
927.7746803142709
 20
-179.1785688767359
 10
925.4037660087415
 20
-184.4065397402082
 10
918.8371180229387
 20
-198.8865519433457
 10
912.4467854134127
 20
-213.5129810442486
 10
904.7559663161319
 20
-227.3998315712543
 10
893.9929812302107
 20
-246.8339982988746
 10
882.1573687639338
 20
-265.676093399099
 10
870.6746400972916
 20
-284.7075649947838
 10
868.824671741877
 20
-287.7737162505382
 10
866.7228632077877
 20
-290.8019883141333
 10
864.2204617785155
 20
-293.3377919498053
 10
857.8539350538867
 20
-299.7893035422621
 10
850.1969074661429
 20
-297.9740026283889
 10
847.7892234823994
 20
-289.1502920301373
 10
846.060192136556
 20
-282.813469132403
 10
845.569611828696
 20
-276.1382639757267
 10
844.5350582920601
 20
-269.6126680023463
 10
844.0330908683227
 20
-266.4453757999127
 10
843.55074432113
 20
-263.274969172644
 10
842.7539576559029
 20
-258.134182739559
 97
        0
 97
        0
 92
        1
 93
        1
 72
     4
 94
        3
 73
     0
 74
     1
 95
       20
 96
       16
 40
0.0
 40
0.0
 40
0.0
 40
0.0
 40
1.0
 40
1.0
 40
1.0
 40
2.0
 40
2.0
 40
2.0
 40
3.0
 40
3.0
 40
3.0
 40
4.0
 40
4.0
 40
4.0
 40
5.0
 40
5.0
 40
5.0
 40
5.0
 10
859.5539243880539
 20
-266.8244986287991
 10
871.4186372614131
 20
-255.1092781477892
 10
906.5533787523873
 20
-190.345728446393
 10
907.7528605495208
 20
-181.031223423568
 10
875.2383041422054
 20
-194.8172639115382
 10
843.1227250222637
 20
-208.4342105957749
 10
811.0071653673695
 20
-222.0511767452099
 10
822.3016659827244
 20
-223.3508651615684
 10
833.3464286561612
 20
-223.4889120426124
 10
844.3910550734872
 20
-223.4997541340817
 10
855.0174531649918
 20
-223.5100122709446
 10
859.1007755737301
 20
-228.3977906160089
 10
858.7443685810013
 20
-239.2047280225415
 10
858.4411987879103
 20
-248.3924564892022
 10
859.2416838325989
 20
-257.6165264006977
 10
859.5539243880539
 20
-266.8244986287991
 97
        0
 97
        0
 75
     2
 76
     1
 98
        0
  0
SPLINE
  5
61
330
52
100
AcDbEntity
  8
Layer 1
370
     0
100
AcDbSpline
210
0.0
220
0.0
230
1.0
 70
    11
 71
     3
 72
    44
 73
    40
 74
     0
 42
0.0000000001
 43
0.0000000001
 12
1.0
 22
0.0
 32
0.0
 13
1.0
 23
0.0
 33
0.0
 40
0.0
 40
0.0
 40
0.0
 40
0.0
 40
1.0
 40
1.0
 40
1.0
 40
2.0
 40
2.0
 40
2.0
 40
3.0
 40
3.0
 40
3.0
 40
4.0
 40
4.0
 40
4.0
 40
5.0
 40
5.0
 40
5.0
 40
6.0
 40
6.0
 40
6.0
 40
7.0
 40
7.0
 40
7.0
 40
8.0
 40
8.0
 40
8.0
 40
9.0
 40
9.0
 40
9.0
 40
10.0
 40
10.0
 40
10.0
 40
11.0
 40
11.0
 40
11.0
 40
12.0
 40
12.0
 40
12.0
 40
13.0
 40
13.0
 40
13.0
 40
13.0
 10
497.6296502070863
 20
-523.0453494355206
 30
0.0
 10
496.9274836615432
 20
-513.7564021615435
 30
0.0
 10
495.9866548474638
 20
-505.7040956660785
 30
0.0
 10
495.7817646232552
 20
-497.6331026215448
 30
0.0
 10
495.4202382947069
 20
-483.3812415031643
 30
0.0
 10
501.6125616124082
 20
-472.1639299610124
 30
0.0
 10
512.7018313633307
 20
-463.4594726363994
 30
0.0
 10
519.1196390395116
 20
-458.4218028632949
 30
0.0
 10
526.3222428452245
 20
-457.299549069643
 30
0.0
 10
533.9756401814602
 20
-459.5235695810334
 30
0.0
 10
544.4605655246105
 20
-462.570314076971
 30
0.0
 10
553.0234917053167
 20
-468.3981523625262
 30
0.0
 10
558.3581510847416
 20
-478.1736701223872
 30
0.0
 10
560.6513604904794
 20
-482.3760219554806
 30
0.0
 10
562.7425799801131
 20
-486.7491805259779
 30
0.0
 10
564.3652147873345
 20
-491.2467409036726
 30
0.0
 10
573.6540452703539
 20
-516.9977982100427
 30
0.0
 10
576.165167089146
 20
-543.9540406039996
 30
0.0
 10
576.9366490525372
 20
-570.9710921429469
 30
0.0
 10
577.4372344502244
 20
-588.4954351627639
 30
0.0
 10
575.9361206072717
 20
-589.5033019715574
 30
0.0
 10
558.1583801963643
 20
-591.2252869311487
 30
0.0
 10
543.2332777532156
 20
-592.6708472209793
 30
0.0
 10
528.2039588688403
 20
-593.4522174832091
 30
0.0
 10
513.2088597273823
 20
-593.6542657947575
 30
0.0
 10
496.9420435977017
 20
-593.873346117165
 30
0.0
 10
481.7269492715423
 20
-589.2379529750851
 30
0.0
 10
467.867856055911
 20
-580.6842824757005
 30
0.0
 10
457.3119802218644
 20
-574.1690614300769
 30
0.0
 10
449.397136652804
 20
-565.3466744623984
 30
0.0
 10
446.1257448000488
 20
-553.0555968283516
 30
0.0
 10
441.8065728376969
 20
-536.828421487282
 30
0.0
 10
450.2783534289192
 20
-523.8421263681594
 30
0.0
 10
466.9801087201986
 20
-522.042640892887
 30
0.0
 10
474.3735489080727
 20
-521.2460780769416
 30
0.0
 10
481.9528423982865
 20
-522.1150318052587
 30
0.0
 10
489.4449611906784
 20
-522.3274939748862
 30
0.0
 10
492.0563674893347
 20
-522.4015783557825
 30
0.0
 10
494.6591701894195
 20
-522.7753871972673
 30
0.0
 10
497.6296502070863
 20
-523.0453494355206
 30
0.0
  0
HATCH
  5
62
330
52
100
AcDbEntity
  8
Layer 1
 62
     7
420
 16777215
100
AcDbHatch
 10
0.0
 20
0.0
 30
0.0
210
0.0
220
0.0
230
1.0
  2
SOLID
 70
     1
 71
     0
 91
        1
 92
        1
 93
        1
 72
     4
 94
        3
 73
     0
 74
     1
 95
       44
 96
       40
 40
0.0
 40
0.0
 40
0.0
 40
0.0
 40
1.0
 40
1.0
 40
1.0
 40
2.0
 40
2.0
 40
2.0
 40
3.0
 40
3.0
 40
3.0
 40
4.0
 40
4.0
 40
4.0
 40
5.0
 40
5.0
 40
5.0
 40
6.0
 40
6.0
 40
6.0
 40
7.0
 40
7.0
 40
7.0
 40
8.0
 40
8.0
 40
8.0
 40
9.0
 40
9.0
 40
9.0
 40
10.0
 40
10.0
 40
10.0
 40
11.0
 40
11.0
 40
11.0
 40
12.0
 40
12.0
 40
12.0
 40
13.0
 40
13.0
 40
13.0
 40
13.0
 10
497.6296502070863
 20
-523.0453494355206
 10
496.9274836615432
 20
-513.7564021615435
 10
495.9866548474638
 20
-505.7040956660785
 10
495.7817646232552
 20
-497.6331026215448
 10
495.4202382947069
 20
-483.3812415031643
 10
501.6125616124082
 20
-472.1639299610124
 10
512.7018313633307
 20
-463.4594726363994
 10
519.1196390395116
 20
-458.4218028632949
 10
526.3222428452245
 20
-457.299549069643
 10
533.9756401814602
 20
-459.5235695810334
 10
544.4605655246105
 20
-462.570314076971
 10
553.0234917053167
 20
-468.3981523625262
 10
558.3581510847416
 20
-478.1736701223872
 10
560.6513604904794
 20
-482.3760219554806
 10
562.7425799801131
 20
-486.7491805259779
 10
564.3652147873345
 20
-491.2467409036726
 10
573.6540452703539
 20
-516.9977982100427
 10
576.165167089146
 20
-543.9540406039996
 10
576.9366490525372
 20
-570.9710921429469
 10
577.4372344502244
 20
-588.4954351627639
 10
575.9361206072717
 20
-589.5033019715574
 10
558.1583801963643
 20
-591.2252869311487
 10
543.2332777532156
 20
-592.6708472209793
 10
528.2039588688403
 20
-593.4522174832091
 10
513.2088597273823
 20
-593.6542657947575
 10
496.9420435977017
 20
-593.873346117165
 10
481.7269492715423
 20
-589.2379529750851
 10
467.867856055911
 20
-580.6842824757005
 10
457.3119802218644
 20
-574.1690614300769
 10
449.397136652804
 20
-565.3466744623984
 10
446.1257448000488
 20
-553.0555968283516
 10
441.8065728376969
 20
-536.828421487282
 10
450.2783534289192
 20
-523.8421263681594
 10
466.9801087201986
 20
-522.042640892887
 10
474.3735489080727
 20
-521.2460780769416
 10
481.9528423982865
 20
-522.1150318052587
 10
489.4449611906784
 20
-522.3274939748862
 10
492.0563674893347
 20
-522.4015783557825
 10
494.6591701894195
 20
-522.7753871972673
 10
497.6296502070863
 20
-523.0453494355206
 97
        0
 97
        0
 75
     2
 76
     1
 98
        0
  0
ENDBLK
  5
55
330
52
100
AcDbEntity
  8
0
100
AcDbBlockEnd
  0
BLOCK
  5
65
330
63
100
AcDbEntity
  8
0
100
AcDbBlockBegin
  2
block 5
 70
     0
 10
0.0
 20
0.0
 30
0.0
  3
block 5
  1

  0
SPLINE
  5
67
330
63
100
AcDbEntity
  8
Layer 1
370
     0
100
AcDbSpline
210
0.0
220
0.0
230
1.0
 70
    11
 71
     3
 72
    74
 73
    70
 74
     0
 42
0.0000000001
 43
0.0000000001
 12
1.0
 22
0.0
 32
0.0
 13
1.0
 23
0.0
 33
0.0
 40
0.0
 40
0.0
 40
0.0
 40
0.0
 40
1.0
 40
1.0
 40
1.0
 40
2.0
 40
2.0
 40
2.0
 40
3.0
 40
3.0
 40
3.0
 40
4.0
 40
4.0
 40
4.0
 40
5.0
 40
5.0
 40
5.0
 40
6.0
 40
6.0
 40
6.0
 40
7.0
 40
7.0
 40
7.0
 40
8.0
 40
8.0
 40
8.0
 40
9.0
 40
9.0
 40
9.0
 40
10.0
 40
10.0
 40
10.0
 40
11.0
 40
11.0
 40
11.0
 40
12.0
 40
12.0
 40
12.0
 40
13.0
 40
13.0
 40
13.0
 40
14.0
 40
14.0
 40
14.0
 40
15.0
 40
15.0
 40
15.0
 40
16.0
 40
16.0
 40
16.0
 40
17.0
 40
17.0
 40
17.0
 40
18.0
 40
18.0
 40
18.0
 40
19.0
 40
19.0
 40
19.0
 40
20.0
 40
20.0
 40
20.0
 40
21.0
 40
21.0
 40
21.0
 40
22.0
 40
22.0
 40
22.0
 40
23.0
 40
23.0
 40
23.0
 40
23.0
 10
626.6352223454778
 20
-607.5554037418642
 30
0.0
 10
664.3327072486445
 20
-645.0684757607487
 30
0.0
 10
702.0827480709941
 20
-682.5286804179905
 30
0.0
 10
739.6568044247415
 20
-720.1651809864034
 30
0.0
 10
743.3989415923279
 20
-723.9135470033216
 30
0.0
 10
746.8086917686687
 20
-725.4102617210556
 30
0.0
 10
752.2430516732984
 20
-724.5238964110922
 30
0.0
 10
763.7918450767611
 20
-722.6400976153236
 30
0.0
 10
775.4998634503208
 20
-721.7515911380851
 30
0.0
 10
787.122079419456
 20
-720.292054866226
 30
0.0
 10
797.8787188647439
 20
-718.941134160721
 30
0.0
 10
806.7635111202908
 20
-721.487371119234
 30
0.0
 10
814.9467499829461
 20
-729.3977668999814
 30
0.0
 10
851.2303249386241
 20
-764.4715824533159
 30
0.0
 10
887.9701923311659
 20
-799.0735334455931
 30
0.0
 10
924.5359828402925
 20
-833.8554787284756
 30
0.0
 10
925.6227127256407
 20
-834.889204996005
 30
0.0
 10
926.6961284447989
 20
-835.9583578460515
 30
0.0
 10
927.6303585713067
 20
-837.1271430932593
 30
0.0
 10
934.0862011611789
 20
-845.203673974178
 30
0.0
 10
931.4264726148976
 20
-852.3312006762244
 30
0.0
 10
921.3503641950738
 20
-853.9069536573952
 30
0.0
 10
919.2794857926874
 20
-854.2307954454827
 30
0.0
 10
917.1616185055191
 20
-854.3881322955167
 30
0.0
 10
915.0649487724222
 20
-854.3915970932594
 30
0.0
 10
899.742835022671
 20
-854.4173689594536
 30
0.0
 10
884.420487691088
 20
-854.4295152170635
 30
0.0
 10
869.0988216399201
 20
-854.3389827806695
 30
0.0
 10
865.0995692367414
 20
-854.3153326172123
 30
0.0
 10
861.1025358612515
 20
-853.9144866752304
 30
0.0
 10
857.0100258992152
 20
-853.6815276973102
 30
0.0
 10
858.3057434243892
 20
-864.1211186938217
 30
0.0
 10
860.1595269506452
 20
-873.6275112170406
 30
0.0
 10
860.4822008297397
 20
-883.1855058669389
 30
0.0
 10
860.804115567762
 20
-892.7182542104656
 30
0.0
 10
860.3094281125359
 20
-902.4131083670109
 30
0.0
 10
858.8621354243114
 20
-911.8355087454547
 30
0.0
 10
857.2165511995863
 20
-922.5496752221297
 30
0.0
 10
846.7456407683367
 20
-924.7854234899969
 30
0.0
 10
839.5556211851217
 20
-917.2538682933628
 30
0.0
 10
828.1726319734553
 20
-905.33021493036
 30
0.0
 10
815.8168716279451
 20
-894.2410522383761
 30
0.0
 10
803.162476870597
 20
-883.6471998869965
 30
0.0
 10
783.0499105512554
 20
-866.8096070106603
 30
0.0
 10
765.6625827584576
 20
-847.287730294247
 30
0.0
 10
747.3287033959205
 20
-828.696521580925
 30
0.0
 10
740.7937836128858
 20
-822.0698819869176
 30
0.0
 10
734.7302125642855
 20
-814.9784339505186
 30
0.0
 10
728.4519992487421
 20
-808.0986694775675
 30
0.0
 10
722.643129756696
 20
-801.7332522670531
 30
0.0
 10
720.054828596978
 20
-794.6592060792973
 30
0.0
 10
721.905400371832
 20
-785.8024241822022
 30
0.0
 10
723.8061727820459
 20
-776.7054617343892
 30
0.0
 10
724.2615406236891
 20
-767.3039085372802
 30
0.0
 10
726.2091267322794
 20
-758.2199293480298
 30
0.0
 10
727.7963933520168
 20
-750.81678578022
 30
0.0
 10
725.2444336372992
 20
-746.1018580139189
 30
0.0
 10
720.0552957583132
 20
-740.9772665902383
 30
0.0
 10
677.2988948648363
 20
-698.7525369511641
 30
0.0
 10
634.8313374101854
 20
-656.2349151210092
 30
0.0
 10
592.2925180221118
 20
-613.7898009941837
 30
0.0
 10
589.8752377166693
 20
-611.3778541414686
 30
0.0
 10
587.6007343250512
 20
-608.8231303750545
 30
0.0
 10
584.7197745562698
 20
-605.7608332201889
 30
0.0
 10
594.8408961475652
 20
-601.7704569273501
 30
0.0
 10
603.7010260511088
 20
-598.2774153513219
 30
0.0
 10
613.4937315428815
 20
-594.4167548531295
 30
0.0
 10
618.1508867287139
 20
-599.0739100385435
 30
0.0
 10
622.3834484829931
 20
-603.324418665532
 30
0.0
 10
626.6352223454778
 20
-607.5554037418642
 30
0.0
  0
SPLINE
  5
68
330
63
100
AcDbEntity
  8
Layer 1
370
     0
100
AcDbSpline
210
0.0
220
0.0
230
1.0
 70
    11
 71
     3
 72
    26
 73
    22
 74
     0
 42
0.0000000001
 43
0.0000000001
 12
1.0
 22
0.0
 32
0.0
 13
1.0
 23
0.0
 33
0.0
 40
0.0
 40
0.0
 40
0.0
 40
0.0
 40
1.0
 40
1.0
 40
1.0
 40
2.0
 40
2.0
 40
2.0
 40
3.0
 40
3.0
 40
3.0
 40
4.0
 40
4.0
 40
4.0
 40
5.0
 40
5.0
 40
5.0
 40
6.0
 40
6.0
 40
6.0
 40
7.0
 40
7.0
 40
7.0
 40
7.0
 10
837.985055661853
 20
-774.5564891240374
 30
0.0
 10
836.6305922985175
 20
-773.2426690050179
 30
0.0
 10
834.373821663381
 20
-772.1070523824019
 30
0.0
 10
832.558365028226
 20
-772.1418366149082
 30
0.0
 10
820.31102559803
 20
-772.3774623198406
 30
0.0
 10
808.0701680645216
 20
-772.9507500729469
 30
0.0
 10
794.7848297652508
 20
-773.4541773838864
 30
0.0
 10
796.0657927023221
 20
-775.382940687703
 30
0.0
 10
796.7522508675647
 20
-776.8695724551035
 30
0.0
 10
797.8326643100718
 20
-777.9694121224238
 30
0.0
 10
804.5503813661253
 20
-784.8081635132476
 30
0.0
 10
811.2686823768399
 20
-791.6514697503771
 30
0.0
 10
818.1911923313255
 20
-798.2798222780657
 30
0.0
 10
820.0367031662481
 20
-800.0468885371811
 30
0.0
 10
822.6157583770055
 20
-802.2674734485227
 30
0.0
 10
824.8257931743046
 20
-802.2327086811274
 30
0.0
 10
837.5868375168557
 20
-802.0322954420226
 30
0.0
 10
850.3382660726711
 20
-801.2181458577979
 30
0.0
 10
864.1267981004839
 20
-800.5628319403731
 30
0.0
 10
855.3691911690948
 20
-791.8052250097826
 30
0.0
 10
846.7737484461468
 20
-783.0811954720048
 30
0.0
 10
837.985055661853
 20
-774.5564891240374
 30
0.0
  0
SPLINE
  5
69
330
63
100
AcDbEntity
  8
Layer 1
370
     0
100
AcDbSpline
210
0.0
220
0.0
230
1.0
 70
    11
 71
     3
 72
    26
 73
    22
 74
     0
 42
0.0000000001
 43
0.0000000001
 12
1.0
 22
0.0
 32
0.0
 13
1.0
 23
0.0
 33
0.0
 40
0.0
 40
0.0
 40
0.0
 40
0.0
 40
1.0
 40
1.0
 40
1.0
 40
2.0
 40
2.0
 40
2.0
 40
3.0
 40
3.0
 40
3.0
 40
4.0
 40
4.0
 40
4.0
 40
5.0
 40
5.0
 40
5.0
 40
6.0
 40
6.0
 40
6.0
 40
7.0
 40
7.0
 40
7.0
 40
7.0
 10
838.3707187867603
 20
-861.2459400771804
 30
0.0
 10
838.2282533153939
 20
-859.6700216425779
 30
0.0
 10
836.940477573984
 20
-857.9713754041968
 30
0.0
 10
835.7492684677945
 20
-856.7534211747843
 30
0.0
 10
828.4294552293668
 20
-849.2691273751079
 30
0.0
 10
820.9849092760578
 20
-841.9066075867486
 30
0.0
 10
812.4074718217307
 20
-833.3291701331982
 30
0.0
 10
807.5130169287786
 20
-842.2099331016525
 30
0.0
 10
805.2310389180293
 20
-850.4479371784182
 30
0.0
 10
802.7455332438913
 20
-858.5546682481036
 30
0.0
 10
802.4191999160867
 20
-859.6192759844616
 30
0.0
 10
803.3766519728379
 20
-861.534413679612
 30
0.0
 10
804.3217631211592
 20
-862.4623176305831
 30
0.0
 10
815.576691076345
 20
-873.5119660574492
 30
0.0
 10
826.9423173694904
 20
-884.4492032127273
 30
0.0
 10
838.2788432555044
 20
-895.415852217644
 30
0.0
 10
839.1414026802868
 20
-895.0347828731574
 30
0.0
 10
840.0039815702639
 20
-894.6536940635397
 30
0.0
 10
840.8665409950208
 20
-894.2726247190876
 30
0.0
 10
840.0693844913822
 20
-883.2606608323003
 30
0.0
 10
839.3650767783347
 20
-872.2402490681125
 30
0.0
 10
838.3707187867603
 20
-861.2459400771804
 30
0.0
  0
SPLINE
  5
6A
330
63
100
AcDbEntity
  8
Layer 1
370
     0
100
AcDbSpline
210
0.0
220
0.0
230
1.0
 70
    11
 71
     3
 72
    23
 73
    19
 74
     0
 42
0.0000000001
 43
0.0000000001
 12
1.0
 22
0.0
 32
0.0
 13
1.0
 23
0.0
 33
0.0
 40
0.0
 40
0.0
 40
0.0
 40
0.0
 40
1.0
 40
1.0
 40
1.0
 40
2.0
 40
2.0
 40
2.0
 40
3.0
 40
3.0
 40
3.0
 40
4.0
 40
4.0
 40
4.0
 40
5.0
 40
5.0
 40
5.0
 40
6.0
 40
6.0
 40
6.0
 40
6.0
 10
801.1628603950539
 20
-738.1563762870774
 30
0.0
 10
800.2095544164258
 20
-737.2366671664677
 30
0.0
 10
798.4255145417992
 20
-736.8530673519635
 30
0.0
 10
797.0030204609557
 20
-736.795898191016
 30
0.0
 10
784.7811219886262
 20
-736.3051816276056
 30
0.0
 10
772.565549691788
 20
-736.1634947630573
 30
0.0
 10
759.2717051197014
 20
-738.3270078399091
 30
0.0
 10
765.5479719198156
 20
-746.7824377004345
 30
0.0
 10
772.7519090889382
 20
-752.89936273895
 30
0.0
 10
779.5314280128969
 20
-759.3890065702508
 30
0.0
 10
780.2871042702554
 20
-760.1123706697745
 30
0.0
 10
781.7431173484783
 20
-760.4326697994511
 30
0.0
 10
782.8590546992255
 20
-760.4008637357183
 30
0.0
 10
795.5969744373178
 20
-760.0384225442867
 30
0.0
 10
808.3319549369571
 20
-759.5713172130745
 30
0.0
 10
822.2262216881118
 20
-759.0921240203788
 30
0.0
 10
814.5754813451858
 20
-751.4413836781441
 30
0.0
 10
807.9553431124277
 20
-744.7095154548224
 30
0.0
 10
801.1628603950539
 20
-738.1563762870774
 30
0.0
  0
SPLINE
  5
6B
330
63
100
AcDbEntity
  8
Layer 1
370
     0
100
AcDbSpline
210
0.0
220
0.0
230
1.0
 70
    11
 71
     3
 72
    17
 73
    13
 74
     0
 42
0.0000000001
 43
0.0000000001
 12
1.0
 22
0.0
 32
0.0
 13
1.0
 23
0.0
 33
0.0
 40
0.0
 40
0.0
 40
0.0
 40
0.0
 40
1.0
 40
1.0
 40
1.0
 40
2.0
 40
2.0
 40
2.0
 40
3.0
 40
3.0
 40
3.0
 40
4.0
 40
4.0
 40
4.0
 40
4.0
 10
776.0075536330733
 20
-797.3993743774863
 30
0.0
 10
772.5071347639805
 20
-805.9227376302642
 30
0.0
 10
769.2662837402022
 20
-813.814047826816
 30
0.0
 10
765.7221266672404
 20
-822.4442163865097
 30
0.0
 10
773.5603553855799
 20
-830.2824451041415
 30
0.0
 10
781.6895492447129
 20
-838.4116389625487
 30
0.0
 10
790.4562658687228
 20
-847.1783555857746
 30
0.0
 10
793.8980167598784
 20
-838.4305590928816
 30
0.0
 10
797.1414955796117
 20
-830.1868711907882
 30
0.0
 10
800.4318854235189
 20
-821.8237061657455
 30
0.0
 10
792.328229848099
 20
-813.7200505910496
 30
0.0
 10
784.528697858399
 20
-805.9205186020481
 30
0.0
 10
776.0075536330733
 20
-797.3993743774863
 30
0.0
  0
SPLINE
  5
6C
330
63
100
AcDbEntity
  8
Layer 1
370
     0
100
AcDbSpline
210
0.0
220
0.0
230
1.0
 70
    11
 71
     3
 72
    26
 73
    22
 74
     0
 42
0.0000000001
 43
0.0000000001
 12
1.0
 22
0.0
 32
0.0
 13
1.0
 23
0.0
 33
0.0
 40
0.0
 40
0.0
 40
0.0
 40
0.0
 40
1.0
 40
1.0
 40
1.0
 40
2.0
 40
2.0
 40
2.0
 40
3.0
 40
3.0
 40
3.0
 40
4.0
 40
4.0
 40
4.0
 40
5.0
 40
5.0
 40
5.0
 40
6.0
 40
6.0
 40
6.0
 40
7.0
 40
7.0
 40
7.0
 40
7.0
 10
880.903951671442
 20
-817.78071555508
 30
0.0
 10
879.7899608361258
 20
-816.7421716616482
 30
0.0
 10
877.6020773854943
 20
-816.5293007238943
 30
0.0
 10
875.8998690236058
 20
-816.5006674805991
 30
0.0
 10
864.5147775757159
 20
-816.3088189108839
 30
0.0
 10
853.1273113788611
 20
-816.2541996857944
 30
0.0
 10
841.7402928805768
 20
-816.208008872869
 30
0.0
 10
840.6653880771319
 20
-816.203609747854
 30
0.0
 10
839.5889455264023
 20
-816.5652917976549
 30
0.0
 10
836.3866355096688
 20
-817.1360685453401
 30
0.0
 10
844.1875105950403
 20
-823.7537347027301
 30
0.0
 10
850.6346814581466
 20
-829.3009925076003
 30
0.0
 10
857.2059426860269
 20
-834.6970644515495
 30
0.0
 10
858.0104570178955
 20
-835.3577312860143
 30
0.0
 10
859.4805239381731
 20
-835.4070365241969
 30
0.0
 10
860.6412506111683
 20
-835.4040972856747
 30
0.0
 10
872.6039316109363
 20
-835.3734007353141
 30
0.0
 10
884.5663595637125
 20
-835.2735055580179
 30
0.0
 10
898.4768602543463
 20
-835.17968350907
 30
0.0
 10
891.8228137211463
 20
-828.525636976472
 30
0.0
 10
886.5043688157766
 20
-823.001990404915
 30
0.0
 10
880.903951671442
 20
-817.78071555508
 30
0.0
  0
SPLINE
  5
6D
330
63
100
AcDbEntity
  8
Layer 1
370
     0
100
AcDbSpline
210
0.0
220
0.0
230
1.0
 70
    11
 71
     3
 72
    26
 73
    22
 74
     0
 42
0.0000000001
 43
0.0000000001
 12
1.0
 22
0.0
 32
0.0
 13
1.0
 23
0.0
 33
0.0
 40
0.0
 40
0.0
 40
0.0
 40
0.0
 40
1.0
 40
1.0
 40
1.0
 40
2.0
 40
2.0
 40
2.0
 40
3.0
 40
3.0
 40
3.0
 40
4.0
 40
4.0
 40
4.0
 40
5.0
 40
5.0
 40
5.0
 40
6.0
 40
6.0
 40
6.0
 40
7.0
 40
7.0
 40
7.0
 40
7.0
 10
763.2063137445166
 20
-788.375347867066
 30
0.0
 10
763.6390046805973
 20
-786.5769816382526
 30
0.0
 10
762.3473748383985
 20
-783.7532104957954
 30
0.0
 10
760.9466817313187
 20
-782.2330402659336
 30
0.0
 10
755.6875666191972
 20
-776.5253311862616
 30
0.0
 10
750.0551098292981
 20
-771.1616881908903
 30
0.0
 10
744.4903333841812
 20
-765.5969117462846
 30
0.0
 10
742.2532614863321
 20
-769.1557455467791
 30
0.0
 10
736.4157392869383
 20
-788.2717737771945
 30
0.0
 10
736.8061713711813
 20
-791.1589623954915
 30
0.0
 10
736.9934066996102
 20
-792.5435772842138
 30
0.0
 10
737.6823564047736
 20
-793.972436470809
 30
0.0
 10
738.4987055510519
 20
-795.1315670010135
 30
0.0
 10
739.5225143220487
 20
-796.5851274696324
 30
0.0
 10
740.8811042982525
 20
-797.8111986687836
 30
0.0
 10
742.1462225989617
 20
-799.0848037770193
 30
0.0
 10
746.3408273004552
 20
-803.3075550926715
 30
0.0
 10
750.5582451639293
 20
-807.507493246334
 30
0.0
 10
756.0503776496171
 20
-812.9996257315324
 30
0.0
 10
758.8100305703156
 20
-803.7518472607971
 30
0.0
 10
761.3374252585545
 20
-796.1428012806464
 30
0.0
 10
763.2063137445166
 20
-788.375347867066
 30
0.0
  0
HATCH
  5
6E
330
63
100
AcDbEntity
  8
Layer 1
 62
     7
420
 16777215
100
AcDbHatch
 10
0.0
 20
0.0
 30
0.0
210
0.0
220
0.0
230
1.0
  2
SOLID
 70
     1
 71
     0
 91
        7
 92
        1
 93
        1
 72
     4
 94
        3
 73
     0
 74
     1
 95
       74
 96
       70
 40
0.0
 40
0.0
 40
0.0
 40
0.0
 40
1.0
 40
1.0
 40
1.0
 40
2.0
 40
2.0
 40
2.0
 40
3.0
 40
3.0
 40
3.0
 40
4.0
 40
4.0
 40
4.0
 40
5.0
 40
5.0
 40
5.0
 40
6.0
 40
6.0
 40
6.0
 40
7.0
 40
7.0
 40
7.0
 40
8.0
 40
8.0
 40
8.0
 40
9.0
 40
9.0
 40
9.0
 40
10.0
 40
10.0
 40
10.0
 40
11.0
 40
11.0
 40
11.0
 40
12.0
 40
12.0
 40
12.0
 40
13.0
 40
13.0
 40
13.0
 40
14.0
 40
14.0
 40
14.0
 40
15.0
 40
15.0
 40
15.0
 40
16.0
 40
16.0
 40
16.0
 40
17.0
 40
17.0
 40
17.0
 40
18.0
 40
18.0
 40
18.0
 40
19.0
 40
19.0
 40
19.0
 40
20.0
 40
20.0
 40
20.0
 40
21.0
 40
21.0
 40
21.0
 40
22.0
 40
22.0
 40
22.0
 40
23.0
 40
23.0
 40
23.0
 40
23.0
 10
626.6352223454778
 20
-607.5554037418642
 10
664.3327072486445
 20
-645.0684757607487
 10
702.0827480709941
 20
-682.5286804179905
 10
739.6568044247415
 20
-720.1651809864034
 10
743.3989415923279
 20
-723.9135470033216
 10
746.8086917686687
 20
-725.4102617210556
 10
752.2430516732984
 20
-724.5238964110922
 10
763.7918450767611
 20
-722.6400976153236
 10
775.4998634503208
 20
-721.7515911380851
 10
787.122079419456
 20
-720.292054866226
 10
797.8787188647439
 20
-718.941134160721
 10
806.7635111202908
 20
-721.487371119234
 10
814.9467499829461
 20
-729.3977668999814
 10
851.2303249386241
 20
-764.4715824533159
 10
887.9701923311659
 20
-799.0735334455931
 10
924.5359828402925
 20
-833.8554787284756
 10
925.6227127256407
 20
-834.889204996005
 10
926.6961284447989
 20
-835.9583578460515
 10
927.6303585713067
 20
-837.1271430932593
 10
934.0862011611789
 20
-845.203673974178
 10
931.4264726148976
 20
-852.3312006762244
 10
921.3503641950738
 20
-853.9069536573952
 10
919.2794857926874
 20
-854.2307954454827
 10
917.1616185055191
 20
-854.3881322955167
 10
915.0649487724222
 20
-854.3915970932594
 10
899.742835022671
 20
-854.4173689594536
 10
884.420487691088
 20
-854.4295152170635
 10
869.0988216399201
 20
-854.3389827806695
 10
865.0995692367414
 20
-854.3153326172123
 10
861.1025358612515
 20
-853.9144866752304
 10
857.0100258992152
 20
-853.6815276973102
 10
858.3057434243892
 20
-864.1211186938217
 10
860.1595269506452
 20
-873.6275112170406
 10
860.4822008297397
 20
-883.1855058669389
 10
860.804115567762
 20
-892.7182542104656
 10
860.3094281125359
 20
-902.4131083670109
 10
858.8621354243114
 20
-911.8355087454547
 10
857.2165511995863
 20
-922.5496752221297
 10
846.7456407683367
 20
-924.7854234899969
 10
839.5556211851217
 20
-917.2538682933628
 10
828.1726319734553
 20
-905.33021493036
 10
815.8168716279451
 20
-894.2410522383761
 10
803.162476870597
 20
-883.6471998869965
 10
783.0499105512554
 20
-866.8096070106603
 10
765.6625827584576
 20
-847.287730294247
 10
747.3287033959205
 20
-828.696521580925
 10
740.7937836128858
 20
-822.0698819869176
 10
734.7302125642855
 20
-814.9784339505186
 10
728.4519992487421
 20
-808.0986694775675
 10
722.643129756696
 20
-801.7332522670531
 10
720.054828596978
 20
-794.6592060792973
 10
721.905400371832
 20
-785.8024241822022
 10
723.8061727820459
 20
-776.7054617343892
 10
724.2615406236891
 20
-767.3039085372802
 10
726.2091267322794
 20
-758.2199293480298
 10
727.7963933520168
 20
-750.81678578022
 10
725.2444336372992
 20
-746.1018580139189
 10
720.0552957583132
 20
-740.9772665902383
 10
677.2988948648363
 20
-698.7525369511641
 10
634.8313374101854
 20
-656.2349151210092
 10
592.2925180221118
 20
-613.7898009941837
 10
589.8752377166693
 20
-611.3778541414686
 10
587.6007343250512
 20
-608.8231303750545
 10
584.7197745562698
 20
-605.7608332201889
 10
594.8408961475652
 20
-601.7704569273501
 10
603.7010260511088
 20
-598.2774153513219
 10
613.4937315428815
 20
-594.4167548531295
 10
618.1508867287139
 20
-599.0739100385435
 10
622.3834484829931
 20
-603.324418665532
 10
626.6352223454778
 20
-607.5554037418642
 97
        0
 97
        0
 92
        1
 93
        1
 72
     4
 94
        3
 73
     0
 74
     1
 95
       26
 96
       22
 40
0.0
 40
0.0
 40
0.0
 40
0.0
 40
1.0
 40
1.0
 40
1.0
 40
2.0
 40
2.0
 40
2.0
 40
3.0
 40
3.0
 40
3.0
 40
4.0
 40
4.0
 40
4.0
 40
5.0
 40
5.0
 40
5.0
 40
6.0
 40
6.0
 40
6.0
 40
7.0
 40
7.0
 40
7.0
 40
7.0
 10
837.985055661853
 20
-774.5564891240374
 10
836.6305922985175
 20
-773.2426690050179
 10
834.373821663381
 20
-772.1070523824019
 10
832.558365028226
 20
-772.1418366149082
 10
820.31102559803
 20
-772.3774623198406
 10
808.0701680645216
 20
-772.9507500729469
 10
794.7848297652508
 20
-773.4541773838864
 10
796.0657927023221
 20
-775.382940687703
 10
796.7522508675647
 20
-776.8695724551035
 10
797.8326643100718
 20
-777.9694121224238
 10
804.5503813661253
 20
-784.8081635132476
 10
811.2686823768399
 20
-791.6514697503771
 10
818.1911923313255
 20
-798.2798222780657
 10
820.0367031662481
 20
-800.0468885371811
 10
822.6157583770055
 20
-802.2674734485227
 10
824.8257931743046
 20
-802.2327086811274
 10
837.5868375168557
 20
-802.0322954420226
 10
850.3382660726711
 20
-801.2181458577979
 10
864.1267981004839
 20
-800.5628319403731
 10
855.3691911690948
 20
-791.8052250097826
 10
846.7737484461468
 20
-783.0811954720048
 10
837.985055661853
 20
-774.5564891240374
 97
        0
 97
        0
 92
        1
 93
        1
 72
     4
 94
        3
 73
     0
 74
     1
 95
       26
 96
       22
 40
0.0
 40
0.0
 40
0.0
 40
0.0
 40
1.0
 40
1.0
 40
1.0
 40
2.0
 40
2.0
 40
2.0
 40
3.0
 40
3.0
 40
3.0
 40
4.0
 40
4.0
 40
4.0
 40
5.0
 40
5.0
 40
5.0
 40
6.0
 40
6.0
 40
6.0
 40
7.0
 40
7.0
 40
7.0
 40
7.0
 10
838.3707187867603
 20
-861.2459400771804
 10
838.2282533153939
 20
-859.6700216425779
 10
836.940477573984
 20
-857.9713754041968
 10
835.7492684677945
 20
-856.7534211747843
 10
828.4294552293668
 20
-849.2691273751079
 10
820.9849092760578
 20
-841.9066075867486
 10
812.4074718217307
 20
-833.3291701331982
 10
807.5130169287786
 20
-842.2099331016525
 10
805.2310389180293
 20
-850.4479371784182
 10
802.7455332438913
 20
-858.5546682481036
 10
802.4191999160867
 20
-859.6192759844616
 10
803.3766519728379
 20
-861.534413679612
 10
804.3217631211592
 20
-862.4623176305831
 10
815.576691076345
 20
-873.5119660574492
 10
826.9423173694904
 20
-884.4492032127273
 10
838.2788432555044
 20
-895.415852217644
 10
839.1414026802868
 20
-895.0347828731574
 10
840.0039815702639
 20
-894.6536940635397
 10
840.8665409950208
 20
-894.2726247190876
 10
840.0693844913822
 20
-883.2606608323003
 10
839.3650767783347
 20
-872.2402490681125
 10
838.3707187867603
 20
-861.2459400771804
 97
        0
 97
        0
 92
        1
 93
        1
 72
     4
 94
        3
 73
     0
 74
     1
 95
       23
 96
       19
 40
0.0
 40
0.0
 40
0.0
 40
0.0
 40
1.0
 40
1.0
 40
1.0
 40
2.0
 40
2.0
 40
2.0
 40
3.0
 40
3.0
 40
3.0
 40
4.0
 40
4.0
 40
4.0
 40
5.0
 40
5.0
 40
5.0
 40
6.0
 40
6.0
 40
6.0
 40
6.0
 10
801.1628603950539
 20
-738.1563762870774
 10
800.2095544164258
 20
-737.2366671664677
 10
798.4255145417992
 20
-736.8530673519635
 10
797.0030204609557
 20
-736.795898191016
 10
784.7811219886262
 20
-736.3051816276056
 10
772.565549691788
 20
-736.1634947630573
 10
759.2717051197014
 20
-738.3270078399091
 10
765.5479719198156
 20
-746.7824377004345
 10
772.7519090889382
 20
-752.89936273895
 10
779.5314280128969
 20
-759.3890065702508
 10
780.2871042702554
 20
-760.1123706697745
 10
781.7431173484783
 20
-760.4326697994511
 10
782.8590546992255
 20
-760.4008637357183
 10
795.5969744373178
 20
-760.0384225442867
 10
808.3319549369571
 20
-759.5713172130745
 10
822.2262216881118
 20
-759.0921240203788
 10
814.5754813451858
 20
-751.4413836781441
 10
807.9553431124277
 20
-744.7095154548224
 10
801.1628603950539
 20
-738.1563762870774
 97
        0
 97
        0
 92
        1
 93
        1
 72
     4
 94
        3
 73
     0
 74
     1
 95
       17
 96
       13
 40
0.0
 40
0.0
 40
0.0
 40
0.0
 40
1.0
 40
1.0
 40
1.0
 40
2.0
 40
2.0
 40
2.0
 40
3.0
 40
3.0
 40
3.0
 40
4.0
 40
4.0
 40
4.0
 40
4.0
 10
776.0075536330733
 20
-797.3993743774863
 10
772.5071347639805
 20
-805.9227376302642
 10
769.2662837402022
 20
-813.814047826816
 10
765.7221266672404
 20
-822.4442163865097
 10
773.5603553855799
 20
-830.2824451041415
 10
781.6895492447129
 20
-838.4116389625487
 10
790.4562658687228
 20
-847.1783555857746
 10
793.8980167598784
 20
-838.4305590928816
 10
797.1414955796117
 20
-830.1868711907882
 10
800.4318854235189
 20
-821.8237061657455
 10
792.328229848099
 20
-813.7200505910496
 10
784.528697858399
 20
-805.9205186020481
 10
776.0075536330733
 20
-797.3993743774863
 97
        0
 97
        0
 92
        1
 93
        1
 72
     4
 94
        3
 73
     0
 74
     1
 95
       26
 96
       22
 40
0.0
 40
0.0
 40
0.0
 40
0.0
 40
1.0
 40
1.0
 40
1.0
 40
2.0
 40
2.0
 40
2.0
 40
3.0
 40
3.0
 40
3.0
 40
4.0
 40
4.0
 40
4.0
 40
5.0
 40
5.0
 40
5.0
 40
6.0
 40
6.0
 40
6.0
 40
7.0
 40
7.0
 40
7.0
 40
7.0
 10
880.903951671442
 20
-817.78071555508
 10
879.7899608361258
 20
-816.7421716616482
 10
877.6020773854943
 20
-816.5293007238943
 10
875.8998690236058
 20
-816.5006674805991
 10
864.5147775757159
 20
-816.3088189108839
 10
853.1273113788611
 20
-816.2541996857944
 10
841.7402928805768
 20
-816.208008872869
 10
840.6653880771319
 20
-816.203609747854
 10
839.5889455264023
 20
-816.5652917976549
 10
836.3866355096688
 20
-817.1360685453401
 10
844.1875105950403
 20
-823.7537347027301
 10
850.6346814581466
 20
-829.3009925076003
 10
857.2059426860269
 20
-834.6970644515495
 10
858.0104570178955
 20
-835.3577312860143
 10
859.4805239381731
 20
-835.4070365241969
 10
860.6412506111683
 20
-835.4040972856747
 10
872.6039316109363
 20
-835.3734007353141
 10
884.5663595637125
 20
-835.2735055580179
 10
898.4768602543463
 20
-835.17968350907
 10
891.8228137211463
 20
-828.525636976472
 10
886.5043688157766
 20
-823.001990404915
 10
880.903951671442
 20
-817.78071555508
 97
        0
 97
        0
 92
        1
 93
        1
 72
     4
 94
        3
 73
     0
 74
     1
 95
       26
 96
       22
 40
0.0
 40
0.0
 40
0.0
 40
0.0
 40
1.0
 40
1.0
 40
1.0
 40
2.0
 40
2.0
 40
2.0
 40
3.0
 40
3.0
 40
3.0
 40
4.0
 40
4.0
 40
4.0
 40
5.0
 40
5.0
 40
5.0
 40
6.0
 40
6.0
 40
6.0
 40
7.0
 40
7.0
 40
7.0
 40
7.0
 10
763.2063137445166
 20
-788.375347867066
 10
763.6390046805973
 20
-786.5769816382526
 10
762.3473748383985
 20
-783.7532104957954
 10
760.9466817313187
 20
-782.2330402659336
 10
755.6875666191972
 20
-776.5253311862616
 10
750.0551098292981
 20
-771.1616881908903
 10
744.4903333841812
 20
-765.5969117462846
 10
742.2532614863321
 20
-769.1557455467791
 10
736.4157392869383
 20
-788.2717737771945
 10
736.8061713711813
 20
-791.1589623954915
 10
736.9934066996102
 20
-792.5435772842138
 10
737.6823564047736
 20
-793.972436470809
 10
738.4987055510519
 20
-795.1315670010135
 10
739.5225143220487
 20
-796.5851274696324
 10
740.8811042982525
 20
-797.8111986687836
 10
742.1462225989617
 20
-799.0848037770193
 10
746.3408273004552
 20
-803.3075550926715
 10
750.5582451639293
 20
-807.507493246334
 10
756.0503776496171
 20
-812.9996257315324
 10
758.8100305703156
 20
-803.7518472607971
 10
761.3374252585545
 20
-796.1428012806464
 10
763.2063137445166
 20
-788.375347867066
 97
        0
 97
        0
 75
     2
 76
     1
 98
        0
  0
SPLINE
  5
6F
330
63
100
AcDbEntity
  8
Layer 1
370
     0
100
AcDbSpline
210
0.0
220
0.0
230
1.0
 70
    11
 71
     3
 72
    65
 73
    61
 74
     0
 42
0.0000000001
 43
0.0000000001
 12
1.0
 22
0.0
 32
0.0
 13
1.0
 23
0.0
 33
0.0
 40
0.0
 40
0.0
 40
0.0
 40
0.0
 40
1.0
 40
1.0
 40
1.0
 40
2.0
 40
2.0
 40
2.0
 40
3.0
 40
3.0
 40
3.0
 40
4.0
 40
4.0
 40
4.0
 40
5.0
 40
5.0
 40
5.0
 40
6.0
 40
6.0
 40
6.0
 40
7.0
 40
7.0
 40
7.0
 40
8.0
 40
8.0
 40
8.0
 40
9.0
 40
9.0
 40
9.0
 40
10.0
 40
10.0
 40
10.0
 40
11.0
 40
11.0
 40
11.0
 40
12.0
 40
12.0
 40
12.0
 40
13.0
 40
13.0
 40
13.0
 40
14.0
 40
14.0
 40
14.0
 40
15.0
 40
15.0
 40
15.0
 40
16.0
 40
16.0
 40
16.0
 40
17.0
 40
17.0
 40
17.0
 40
18.0
 40
18.0
 40
18.0
 40
19.0
 40
19.0
 40
19.0
 40
20.0
 40
20.0
 40
20.0
 40
20.0
 10
235.4649416820866
 20
-269.6126680160178
 30
0.0
 10
234.4303881457472
 20
-276.1382639894455
 30
0.0
 10
233.9398078381837
 20
-282.8134691461437
 30
0.0
 10
232.2107764926259
 20
-289.1502920439598
 30
0.0
 10
229.8030925092844
 20
-297.9740026423115
 30
0.0
 10
222.1460649216187
 20
-299.7893035565285
 30
0.0
 10
215.779538196698
 20
-293.3377919643626
 30
0.0
 10
213.2771367673158
 20
-290.8019883288034
 30
0.0
 10
211.1753282330883
 20
-287.7737162653066
 30
0.0
 10
209.3253598775318
 20
-284.7075650096303
 30
0.0
 10
197.8426312100419
 20
-265.6760934144622
 30
0.0
 10
186.0070187429137
 20
-246.8339983147653
 30
0.0
 10
175.2440336561212
 20
-227.3998315876306
 30
0.0
 10
167.5532145582147
 20
-213.5129810609669
 30
0.0
 10
161.1628819480347
 20
-198.8865519603532
 30
0.0
 10
154.5962339615799
 20
-184.4065397575141
 30
0.0
 10
152.2253196558195
 20
-179.1785688941491
 30
0.0
 10
150.8307580724977
 20
-173.3059315538649
 30
0.0
 10
155.6670316165673
 20
-168.3780939189928
 30
0.0
 10
160.378961748861
 20
-163.5767797933549
 30
0.0
 10
165.7979636461141
 20
-165.7491884453138
 30
0.0
 10
170.831205096536
 20
-167.6424278406466
 30
0.0
 10
184.0361133745464
 20
-172.6095656231064
 30
0.0
 10
197.1747427990113
 20
-177.7597731907554
 30
0.0
 10
210.2724370019077
 20
-183.0047955296595
 30
0.0
 10
229.516078790235
 20
-190.7112062154029
 30
0.0
 10
248.8202377462367
 20
-198.2876480595169
 30
0.0
 10
267.8586778678509
 20
-206.4767556652587
 30
0.0
 10
276.6416673614822
 20
-210.2545529967247
 30
0.0
 10
284.981337944213
 20
-215.1381074027704
 30
0.0
 10
293.2721509872308
 20
-219.9506139921014
 30
0.0
 10
296.8931078307287
 20
-222.0524127934714
 30
0.0
 10
300.25544088895
 20
-225.160608784372
 30
0.0
 10
298.9900987392766
 20
-230.1900447969001
 30
0.0
 10
297.823902357879
 20
-234.8257104512031
 30
0.0
 10
293.6898537545658
 20
-235.7827342746859
 30
0.0
 10
289.8156844390778
 20
-236.1662562287911
 30
0.0
 10
281.45964366105
 20
-236.9937978396883
 30
0.0
 10
273.0606043550342
 20
-237.3984200223385
 30
0.0
 10
264.6755021001809
 20
-237.914927917398
 30
0.0
 10
261.5154704006463
 20
-238.1097157261665
 30
0.0
 10
258.344888586973
 20
-238.1341055658504
 30
0.0
 10
252.9290400449418
 20
-238.3086885435787
 30
0.0
 10
256.8773521370149
 20
-242.2570006352817
 30
0.0
 10
259.3138640158359
 20
-244.7288223055111
 30
0.0
 10
261.78778792306
 20
-247.162297619916
 30
0.0
 10
338.7162615907582
 20
-322.833166530012
 30
0.0
 10
415.5127420406216
 20
-398.6394545252515
 30
0.0
 10
492.7765030075361
 20
-473.9666271889782
 30
0.0
 10
501.0897009792698
 20
-482.071431207798
 30
0.0
 10
504.735115790545
 20
-489.3679251897574
 30
0.0
 10
500.6436374822897
 20
-500.4976921963626
 30
0.0
 10
498.6728489084435
 20
-505.8588436521859
 30
0.0
 10
498.3679661819242
 20
-511.8322910316419
 30
0.0
 10
497.0304180389321
 20
-519.0252693181446
 30
0.0
 10
408.7107797944918
 20
-432.9900617022176
 30
0.0
 10
324.459495254283
 20
-345.6377832861035
 30
0.0
 10
237.246042317729
 20
-258.1341827531542
 30
0.0
 10
236.4492556527339
 20
-263.2749691862718
 30
0.0
 10
235.9669091056867
 20
-266.4453758135624
 30
0.0
 10
235.4649416820866
 20
-269.6126680160178
 30
0.0
  0
SPLINE
  5
70
330
63
100
AcDbEntity
  8
Layer 1
370
     0
100
AcDbSpline
210
0.0
220
0.0
230
1.0
 70
    11
 71
     3
 72
    20
 73
    16
 74
     0
 42
0.0000000001
 43
0.0000000001
 12
1.0
 22
0.0
 32
0.0
 13
1.0
 23
0.0
 33
0.0
 40
0.0
 40
0.0
 40
0.0
 40
0.0
 40
1.0
 40
1.0
 40
1.0
 40
2.0
 40
2.0
 40
2.0
 40
3.0
 40
3.0
 40
3.0
 40
4.0
 40
4.0
 40
4.0
 40
5.0
 40
5.0
 40
5.0
 40
5.0
 10
221.255631391783
 20
-239.2047280368533
 30
0.0
 10
220.8992243985704
 20
-228.3977906303371
 30
0.0
 10
224.9825468070894
 20
-223.510012285089
 30
0.0
 10
235.608944898594
 20
-223.4997541477478
 30
0.0
 10
246.6535713159174
 20
-223.4889120557818
 30
0.0
 10
257.6983339893486
 20
-223.3508651742432
 30
0.0
 10
268.9928346046472
 20
-222.0511767573735
 30
0.0
 10
236.8772749491409
 20
-208.4342106093864
 30
0.0
 10
204.7616958285807
 20
-194.8172639265886
 30
0.0
 10
172.2471394206486
 20
-181.0312234400772
 30
0.0
 10
173.4466212182015
 20
-190.345728462853
 30
0.0
 10
208.5813627120851
 20
-255.1092781626649
 30
0.0
 10
220.44607558597
 20
-266.8244986431419
 30
0.0
 10
220.7583161410148
 20
-257.6165264150313
 30
0.0
 10
221.5588011852842
 20
-248.3924565034995
 30
0.0
 10
221.255631391783
 20
-239.2047280368533
 30
0.0
  0
HATCH
  5
71
330
63
100
AcDbEntity
  8
Layer 1
 62
     7
420
 16777215
100
AcDbHatch
 10
0.0
 20
0.0
 30
0.0
210
0.0
220
0.0
230
1.0
  2
SOLID
 70
     1
 71
     0
 91
        2
 92
        1
 93
        1
 72
     4
 94
        3
 73
     0
 74
     1
 95
       65
 96
       61
 40
0.0
 40
0.0
 40
0.0
 40
0.0
 40
1.0
 40
1.0
 40
1.0
 40
2.0
 40
2.0
 40
2.0
 40
3.0
 40
3.0
 40
3.0
 40
4.0
 40
4.0
 40
4.0
 40
5.0
 40
5.0
 40
5.0
 40
6.0
 40
6.0
 40
6.0
 40
7.0
 40
7.0
 40
7.0
 40
8.0
 40
8.0
 40
8.0
 40
9.0
 40
9.0
 40
9.0
 40
10.0
 40
10.0
 40
10.0
 40
11.0
 40
11.0
 40
11.0
 40
12.0
 40
12.0
 40
12.0
 40
13.0
 40
13.0
 40
13.0
 40
14.0
 40
14.0
 40
14.0
 40
15.0
 40
15.0
 40
15.0
 40
16.0
 40
16.0
 40
16.0
 40
17.0
 40
17.0
 40
17.0
 40
18.0
 40
18.0
 40
18.0
 40
19.0
 40
19.0
 40
19.0
 40
20.0
 40
20.0
 40
20.0
 40
20.0
 10
235.4649416820866
 20
-269.6126680160178
 10
234.4303881457472
 20
-276.1382639894455
 10
233.9398078381837
 20
-282.8134691461437
 10
232.2107764926259
 20
-289.1502920439598
 10
229.8030925092844
 20
-297.9740026423115
 10
222.1460649216187
 20
-299.7893035565285
 10
215.779538196698
 20
-293.3377919643626
 10
213.2771367673158
 20
-290.8019883288034
 10
211.1753282330883
 20
-287.7737162653066
 10
209.3253598775318
 20
-284.7075650096303
 10
197.8426312100419
 20
-265.6760934144622
 10
186.0070187429137
 20
-246.8339983147653
 10
175.2440336561212
 20
-227.3998315876306
 10
167.5532145582147
 20
-213.5129810609669
 10
161.1628819480347
 20
-198.8865519603532
 10
154.5962339615799
 20
-184.4065397575141
 10
152.2253196558195
 20
-179.1785688941491
 10
150.8307580724977
 20
-173.3059315538649
 10
155.6670316165673
 20
-168.3780939189928
 10
160.378961748861
 20
-163.5767797933549
 10
165.7979636461141
 20
-165.7491884453138
 10
170.831205096536
 20
-167.6424278406466
 10
184.0361133745464
 20
-172.6095656231064
 10
197.1747427990113
 20
-177.7597731907554
 10
210.2724370019077
 20
-183.0047955296595
 10
229.516078790235
 20
-190.7112062154029
 10
248.8202377462367
 20
-198.2876480595169
 10
267.8586778678509
 20
-206.4767556652587
 10
276.6416673614822
 20
-210.2545529967247
 10
284.981337944213
 20
-215.1381074027704
 10
293.2721509872308
 20
-219.9506139921014
 10
296.8931078307287
 20
-222.0524127934714
 10
300.25544088895
 20
-225.160608784372
 10
298.9900987392766
 20
-230.1900447969001
 10
297.823902357879
 20
-234.8257104512031
 10
293.6898537545658
 20
-235.7827342746859
 10
289.8156844390778
 20
-236.1662562287911
 10
281.45964366105
 20
-236.9937978396883
 10
273.0606043550342
 20
-237.3984200223385
 10
264.6755021001809
 20
-237.914927917398
 10
261.5154704006463
 20
-238.1097157261665
 10
258.344888586973
 20
-238.1341055658504
 10
252.9290400449418
 20
-238.3086885435787
 10
256.8773521370149
 20
-242.2570006352817
 10
259.3138640158359
 20
-244.7288223055111
 10
261.78778792306
 20
-247.162297619916
 10
338.7162615907582
 20
-322.833166530012
 10
415.5127420406216
 20
-398.6394545252515
 10
492.7765030075361
 20
-473.9666271889782
 10
501.0897009792698
 20
-482.071431207798
 10
504.735115790545
 20
-489.3679251897574
 10
500.6436374822897
 20
-500.4976921963626
 10
498.6728489084435
 20
-505.8588436521859
 10
498.3679661819242
 20
-511.8322910316419
 10
497.0304180389321
 20
-519.0252693181446
 10
408.7107797944918
 20
-432.9900617022176
 10
324.459495254283
 20
-345.6377832861035
 10
237.246042317729
 20
-258.1341827531542
 10
236.4492556527339
 20
-263.2749691862718
 10
235.9669091056867
 20
-266.4453758135624
 10
235.4649416820866
 20
-269.6126680160178
 97
        0
 97
        0
 92
        1
 93
        1
 72
     4
 94
        3
 73
     0
 74
     1
 95
       20
 96
       16
 40
0.0
 40
0.0
 40
0.0
 40
0.0
 40
1.0
 40
1.0
 40
1.0
 40
2.0
 40
2.0
 40
2.0
 40
3.0
 40
3.0
 40
3.0
 40
4.0
 40
4.0
 40
4.0
 40
5.0
 40
5.0
 40
5.0
 40
5.0
 10
221.255631391783
 20
-239.2047280368533
 10
220.8992243985704
 20
-228.3977906303371
 10
224.9825468070894
 20
-223.510012285089
 10
235.608944898594
 20
-223.4997541477478
 10
246.6535713159174
 20
-223.4889120557818
 10
257.6983339893486
 20
-223.3508651742432
 10
268.9928346046472
 20
-222.0511767573735
 10
236.8772749491409
 20
-208.4342106093864
 10
204.7616958285807
 20
-194.8172639265886
 10
172.2471394206486
 20
-181.0312234400772
 10
173.4466212182015
 20
-190.345728462853
 10
208.5813627120851
 20
-255.1092781626649
 10
220.44607558597
 20
-266.8244986431419
 10
220.7583161410148
 20
-257.6165264150313
 10
221.5588011852842
 20
-248.3924565034995
 10
221.255631391783
 20
-239.2047280368533
 97
        0
 97
        0
 75
     2
 76
     1
 98
        0
  0
SPLINE
  5
72
330
63
100
AcDbEntity
  8
Layer 1
370
     0
100
AcDbSpline
210
0.0
220
0.0
230
1.0
 70
    11
 71
     3
 72
    44
 73
    40
 74
     0
 42
0.0000000001
 43
0.0000000001
 12
1.0
 22
0.0
 32
0.0
 13
1.0
 23
0.0
 33
0.0
 40
0.0
 40
0.0
 40
0.0
 40
0.0
 40
1.0
 40
1.0
 40
1.0
 40
2.0
 40
2.0
 40
2.0
 40
3.0
 40
3.0
 40
3.0
 40
4.0
 40
4.0
 40
4.0
 40
5.0
 40
5.0
 40
5.0
 40
6.0
 40
6.0
 40
6.0
 40
7.0
 40
7.0
 40
7.0
 40
8.0
 40
8.0
 40
8.0
 40
9.0
 40
9.0
 40
9.0
 40
10.0
 40
10.0
 40
10.0
 40
11.0
 40
11.0
 40
11.0
 40
12.0
 40
12.0
 40
12.0
 40
13.0
 40
13.0
 40
13.0
 40
13.0
 10
582.3703497784372
 20
-523.0453494336161
 30
0.0
 10
583.0725163235711
 20
-513.7564021596099
 30
0.0
 10
584.0133451372876
 20
-505.7040956641049
 30
0.0
 10
584.2182353611297
 20
-497.6331026195639
 30
0.0
 10
584.5797616890395
 20
-483.3812415011616
 30
0.0
 10
578.3874383708335
 20
-472.1639299592916
 30
0.0
 10
567.2981686195217
 20
-463.4594726351716
 30
0.0
 10
560.8803609431143
 20
-458.4218028623582
 30
0.0
 10
553.6777571373514
 20
-457.2995490690337
 30
0.0
 10
546.0243598012166
 20
-459.5235695807678
 30
0.0
 10
535.5394344582037
 20
-462.5703140771675
 30
0.0
 10
526.976508277754
 20
-468.3981523631137
 30
0.0
 10
521.6418488987711
 20
-478.1736701232112
 30
0.0
 10
519.3486394932206
 20
-482.3760219564101
 30
0.0
 10
517.2574200037861
 20
-486.7491805269983
 30
0.0
 10
515.6347851967621
 20
-491.2467409047622
 30
0.0
 10
506.345954714905
 20
-516.9977982115506
 30
0.0
 10
503.8348328973207
 20
-543.9540406056221
 30
0.0
 10
503.0633509351392
 20
-570.9710921446058
 30
0.0
 10
502.5627655382414
 20
-588.4954351644483
 30
0.0
 10
504.0638793812341
 20
-589.5033019731727
 30
0.0
 10
521.841619792227
 20
-591.2252869319655
 30
0.0
 10
536.7667222354421
 20
-592.6708472211249
 30
0.0
 10
551.7960411198528
 20
-593.4522174826834
 30
0.0
 10
566.7911402613136
 20
-593.6542657935533
 30
0.0
 10
583.0579563910087
 20
-593.8733461152297
 30
0.0
 10
598.2730507169545
 20
-589.237952972464
 30
0.0
 10
612.1321439322073
 20
-580.6842824724627
 30
0.0
 10
622.6880197659557
 20
-574.1690614263607
 30
0.0
 10
630.602863334625
 20
-565.3466744583311
 30
0.0
 10
633.8742551868272
 20
-553.0555968241297
 30
0.0
 10
638.1934271484533
 20
-536.82842148288
 30
0.0
 10
629.7216465566398
 20
-523.8421263641285
 30
0.0
 10
613.0198912652813
 20
-522.0426408896037
 30
0.0
 10
605.6264510773726
 20
-521.246078073993
 30
0.0
 10
598.0471575872016
 20
-522.1150318026557
 30
0.0
 10
590.5550387948188
 20
-522.327493972618
 30
0.0
 10
587.9436324961644
 20
-522.401578353627
 30
0.0
 10
585.3408297960978
 20
-522.7753871952336
 30
0.0
 10
582.3703497784372
 20
-523.0453494336161
 30
0.0
  0
HATCH
  5
73
330
63
100
AcDbEntity
  8
Layer 1
 62
     7
420
 16777215
100
AcDbHatch
 10
0.0
 20
0.0
 30
0.0
210
0.0
220
0.0
230
1.0
  2
SOLID
 70
     1
 71
     0
 91
        1
 92
        1
 93
        1
 72
     4
 94
        3
 73
     0
 74
     1
 95
       44
 96
       40
 40
0.0
 40
0.0
 40
0.0
 40
0.0
 40
1.0
 40
1.0
 40
1.0
 40
2.0
 40
2.0
 40
2.0
 40
3.0
 40
3.0
 40
3.0
 40
4.0
 40
4.0
 40
4.0
 40
5.0
 40
5.0
 40
5.0
 40
6.0
 40
6.0
 40
6.0
 40
7.0
 40
7.0
 40
7.0
 40
8.0
 40
8.0
 40
8.0
 40
9.0
 40
9.0
 40
9.0
 40
10.0
 40
10.0
 40
10.0
 40
11.0
 40
11.0
 40
11.0
 40
12.0
 40
12.0
 40
12.0
 40
13.0
 40
13.0
 40
13.0
 40
13.0
 10
582.3703497784372
 20
-523.0453494336161
 10
583.0725163235711
 20
-513.7564021596099
 10
584.0133451372876
 20
-505.7040956641049
 10
584.2182353611297
 20
-497.6331026195639
 10
584.5797616890395
 20
-483.3812415011616
 10
578.3874383708335
 20
-472.1639299592916
 10
567.2981686195217
 20
-463.4594726351716
 10
560.8803609431143
 20
-458.4218028623582
 10
553.6777571373514
 20
-457.2995490690337
 10
546.0243598012166
 20
-459.5235695807678
 10
535.5394344582037
 20
-462.5703140771675
 10
526.976508277754
 20
-468.3981523631137
 10
521.6418488987711
 20
-478.1736701232112
 10
519.3486394932206
 20
-482.3760219564101
 10
517.2574200037861
 20
-486.7491805269983
 10
515.6347851967621
 20
-491.2467409047622
 10
506.345954714905
 20
-516.9977982115506
 10
503.8348328973207
 20
-543.9540406056221
 10
503.0633509351392
 20
-570.9710921446058
 10
502.5627655382414
 20
-588.4954351644483
 10
504.0638793812341
 20
-589.5033019731727
 10
521.841619792227
 20
-591.2252869319655
 10
536.7667222354421
 20
-592.6708472211249
 10
551.7960411198528
 20
-593.4522174826834
 10
566.7911402613136
 20
-593.6542657935533
 10
583.0579563910087
 20
-593.8733461152297
 10
598.2730507169545
 20
-589.237952972464
 10
612.1321439322073
 20
-580.6842824724627
 10
622.6880197659557
 20
-574.1690614263607
 10
630.602863334625
 20
-565.3466744583311
 10
633.8742551868272
 20
-553.0555968241297
 10
638.1934271484533
 20
-536.82842148288
 10
629.7216465566398
 20
-523.8421263641285
 10
613.0198912652813
 20
-522.0426408896037
 10
605.6264510773726
 20
-521.246078073993
 10
598.0471575872016
 20
-522.1150318026557
 10
590.5550387948188
 20
-522.327493972618
 10
587.9436324961644
 20
-522.401578353627
 10
585.3408297960978
 20
-522.7753871952336
 10
582.3703497784372
 20
-523.0453494336161
 97
        0
 97
        0
 75
     2
 76
     1
 98
        0
  0
ENDBLK
  5
66
330
63
100
AcDbEntity
  8
0
100
AcDbBlockEnd
  0
ENDSEC
  0
SECTION
  2
ENTITIES
  0
INSERT
  5
42
330
1F
100
AcDbEntity
  8
Layer 1
100
AcDbBlockReference
  2
block 2
 10
0.0
 20
0.0
 30
0.0
  0
ENDSEC
  0
SECTION
  2
OBJECTS
  0
DICTIONARY
  5
C
330
0
100
AcDbDictionary
281
     1
  3
ACAD_GROUP
350
D
  3
ACAD_LAYOUT
350
1A
  3
ACAD_MATERIAL
350
3B
  3
ACAD_MLEADERSTYLE
350
77
  3
ACAD_MLINESTYLE
350
17
  3
ACAD_PLOTSETTINGS
350
19
  3
ACAD_PLOTSTYLENAME
350
E
  3
ACAD_TABLESTYLE
350
76
  3
ACAD_VISUALSTYLE
350
2A
  0
SUN
  5
3F
330
29
100
AcDbSun
 90
        1
290
     0
 63
     7
421
 16777215
 40
1.0
291
     1
 91
  2455826
 92
 54000000
292
     0
 70
     2
 71
   256
280
     1
  0
DICTIONARY
  5
D
102
{ACAD_REACTORS
330
C
102
}
330
C
100
AcDbDictionary
281
     1
  0
DICTIONARY
  5
1A
102
{ACAD_REACTORS
330
C
102
}
330
C
100
AcDbDictionary
281
     1
  3
Layout1
350
1E
  3
Layout2
350
26
  3
Model
350
22
  0
DICTIONARY
  5
3B
102
{ACAD_REACTORS
330
C
102
}
330
C
100
AcDbDictionary
281
     1
  3
ByBlock
350
3D
  3
ByLayer
350
3C
  3
Global
350
3E
  0
DICTIONARY
  5
77
102
{ACAD_REACTORS
330
C
102
}
330
C
100
AcDbDictionary
281
     1
  0
DICTIONARY
  5
17
102
{ACAD_REACTORS
330
C
102
}
330
C
100
AcDbDictionary
281
     1
  3
Standard
350
18
  0
DICTIONARY
  5
19
102
{ACAD_REACTORS
330
C
102
}
330
C
100
AcDbDictionary
281
     1
  0
ACDBDICTIONARYWDFLT
  5
E
102
{ACAD_REACTORS
330
C
102
}
330
C
100
AcDbDictionary
281
     1
  3
Normal
350
F
100
AcDbDictionaryWithDefault
340
F
  0
DICTIONARY
  5
76
102
{ACAD_REACTORS
330
C
102
}
330
C
100
AcDbDictionary
281
     1
  0
DICTIONARY
  5
2A
102
{ACAD_REACTORS
330
C
102
}
330
C
100
AcDbDictionary
281
     1
  3
2dWireframe
350
2F
  3
3D Hidden
350
31
  3
3dWireframe
350
30
  3
Basic
350
32
  3
Brighten
350
36
  3
ColorChange
350
3A
  3
Conceptual
350
34
  3
Dim
350
35
  3
Facepattern
350
39
  3
Flat
350
2B
  3
FlatWithEdges
350
2C
  3
Gouraud
350
2D
  3
GouraudWithEdges
350
2E
  3
Linepattern
350
38
  3
Realistic
350
33
  3
Thicken
350
37
  0
LAYOUT
  5
1E
102
{ACAD_REACTORS
330
1A
102
}
330
1A
100
AcDbPlotSettings
  1

  2
none_device
  4

  6

 40
0.0
 41
0.0
 42
0.0
 43
0.0
 44
0.0
 45
0.0
 46
0.0
 47
0.0
 48
0.0
 49
0.0
140
0.0
141
0.0
142
1.0
143
1.0
 70
   688
 72
     0
 73
     0
 74
     5
  7

 75
    16
 76
     0
 77
     2
 78
   300
147
1.0
148
0.0
149
0.0
100
AcDbLayout
  1
Layout1
 70
     1
 71
     1
 10
0.0
 20
0.0
 11
12.0
 21
9.0
 12
0.0
 22
0.0
 32
0.0
 14
1.000000000000000E+20
 24
1.000000000000000E+20
 34
1.000000000000000E+20
 15
-1.000000000000000E+20
 25
-1.000000000000000E+20
 35
-1.000000000000000E+20
146
0.0
 13
0.0
 23
0.0
 33
0.0
 16
1.0
 26
0.0
 36
0.0
 17
0.0
 27
1.0
 37
0.0
 76
     0
330
1B
  0
LAYOUT
  5
26
102
{ACAD_REACTORS
330
1A
102
}
330
1A
100
AcDbPlotSettings
  1

  2
none_device
  4

  6

 40
0.0
 41
0.0
 42
0.0
 43
0.0
 44
0.0
 45
0.0
 46
0.0
 47
0.0
 48
0.0
 49
0.0
140
0.0
141
0.0
142
1.0
143
1.0
 70
   688
 72
     0
 73
     0
 74
     5
  7

 75
    16
 76
     0
 77
     2
 78
   300
147
1.0
148
0.0
149
0.0
100
AcDbLayout
  1
Layout2
 70
     1
 71
     2
 10
0.0
 20
0.0
 11
0.0
 21
0.0
 12
0.0
 22
0.0
 32
0.0
 14
0.0
 24
0.0
 34
0.0
 15
0.0
 25
0.0
 35
0.0
146
0.0
 13
0.0
 23
0.0
 33
0.0
 16
1.0
 26
0.0
 36
0.0
 17
0.0
 27
1.0
 37
0.0
 76
     0
330
23
  0
LAYOUT
  5
22
102
{ACAD_REACTORS
330
1A
102
}
330
1A
100
AcDbPlotSettings
  1

  2
none_device
  4

  6

 40
0.0
 41
0.0
 42
0.0
 43
0.0
 44
0.0
 45
0.0
 46
0.0
 47
0.0
 48
0.0
 49
0.0
140
0.0
141
0.0
142
1.0
143
1.0
 70
  1712
 72
     0
 73
     0
 74
     0
  7

 75
     0
 76
     0
 77
     2
 78
   300
147
1.0
148
0.0
149
0.0
100
AcDbLayout
  1
Model
 70
     1
 71
     0
 10
0.0
 20
0.0
 11
12.0
 21
9.0
 12
0.0
 22
0.0
 32
0.0
 14
1.000000000000000E+20
 24
1.000000000000000E+20
 34
1.000000000000000E+20
 15
-1.000000000000000E+20
 25
-1.000000000000000E+20
 35
-1.000000000000000E+20
146
0.0
 13
0.0
 23
0.0
 33
0.0
 16
1.0
 26
0.0
 36
0.0
 17
0.0
 27
1.0
 37
0.0
 76
     0
330
1F
331
29
  0
MATERIAL
  5
3D
102
{ACAD_REACTORS
330
3B
102
}
330
3B
100
AcDbMaterial
  1
ByBlock
 72
     1
 94
      127
  0
MATERIAL
  5
3C
102
{ACAD_REACTORS
330
3B
102
}
330
3B
100
AcDbMaterial
  1
ByLayer
 72
     1
 94
      127
  0
MATERIAL
  5
3E
102
{ACAD_REACTORS
330
3B
102
}
330
3B
100
AcDbMaterial
  1
Global
 72
     1
 94
      127
  0
MLINESTYLE
  5
18
102
{ACAD_REACTORS
330
17
102
}
330
17
100
AcDbMlineStyle
  2
Standard
 70
     0
  3

 62
   256
 51
90.0
 52
90.0
 71
     2
 49
0.5
 62
   256
  6
BYLAYER
 49
-0.5
 62
   256
  6
BYLAYER
  0
ACDBPLACEHOLDER
  5
F
102
{ACAD_REACTORS
330
E
102
}
330
E
  0
VISUALSTYLE
  5
2F
102
{ACAD_REACTORS
330
2A
102
}
330
2A
100
AcDbVisualStyle
  2
2dWireframe
 70
     4
177
     2
291
     0
 71
     0
176
     1
 72
     2
176
     1
 73
     0
176
     1
 90
        0
176
     1
 40
-0.6
176
     1
 41
-30.0
176
     1
 62
     5
 63
     7
421
 16777215
176
     1
 74
     1
176
     1
 91
        4
176
     1
 64
     7
176
     1
 65
   257
176
     1
 75
     1
176
     1
175
     1
176
     1
 42
1.0
176
     1
 92
        0
176
     1
 66
   257
176
     1
 43
1.0
176
     1
 76
     1
176
     1
 77
     6
176
     1
 78
     2
176
     1
 67
     7
176
     1
 79
     5
176
     1
170
     0
176
     1
171
     0
176
     1
290
     0
176
     1
 93
        1
176
     1
 44
0.0
176
     1
173
     0
176
     1
  0
VISUALSTYLE
  5
31
102
{ACAD_REACTORS
330
2A
102
}
330
2A
100
AcDbVisualStyle
  2
3D Hidden
 70
     6
177
     2
291
     0
 71
     1
176
     1
 72
     2
176
     1
 73
     2
176
     1
 90
        0
176
     1
 40
-0.6
176
     1
 41
-30.0
176
     1
 62
     5
 63
     7
421
 16777215
176
     1
 74
     2
176
     1
 91
        2
176
     1
 64
     7
176
     1
 65
   257
176
     1
 75
     2
176
     1
175
     1
176
     1
 42
40.0
176
     1
 92
        0
176
     1
 66
   257
176
     1
 43
1.0
176
     1
 76
     1
176
     1
 77
     6
176
     1
 78
     2
176
     1
 67
     7
176
     1
 79
     3
176
     1
170
     0
176
     1
171
     0
176
     1
290
     0
176
     1
 93
        1
176
     1
 44
0.0
176
     1
173
     0
176
     1
  0
VISUALSTYLE
  5
30
102
{ACAD_REACTORS
330
2A
102
}
330
2A
100
AcDbVisualStyle
  2
3dWireframe
 70
     5
177
     2
291
     0
 71
     0
176
     1
 72
     2
176
     1
 73
     0
176
     1
 90
        0
176
     1
 40
-0.6
176
     1
 41
-30.0
176
     1
 62
     5
 63
     7
421
 16777215
176
     1
 74
     1
176
     1
 91
        4
176
     1
 64
     7
176
     1
 65
   257
176
     1
 75
     1
176
     1
175
     1
176
     1
 42
1.0
176
     1
 92
        0
176
     1
 66
   257
176
     1
 43
1.0
176
     1
 76
     1
176
     1
 77
     6
176
     1
 78
     2
176
     1
 67
     7
176
     1
 79
     5
176
     1
170
     0
176
     1
171
     0
176
     1
290
     0
176
     1
 93
        1
176
     1
 44
0.0
176
     1
173
     0
176
     1
  0
VISUALSTYLE
  5
32
102
{ACAD_REACTORS
330
2A
102
}
330
2A
100
AcDbVisualStyle
  2
Basic
 70
     7
177
     2
291
     1
 71
     1
176
     1
 72
     0
176
     1
 73
     1
176
     1
 90
        0
176
     1
 40
-0.6
176
     1
 41
-30.0
176
     1
 62
     5
 63
     7
421
 16777215
176
     1
 74
     0
176
     1
 91
        4
176
     1
 64
     7
176
     1
 65
   257
176
     1
 75
     1
176
     1
175
     1
176
     1
 42
1.0
176
     1
 92
        8
176
     1
 66
     7
176
     1
 43
1.0
176
     1
 76
     1
176
     1
 77
     6
176
     1
 78
     2
176
     1
 67
     7
176
     1
 79
     5
176
     1
170
     0
176
     1
171
     0
176
     1
290
     0
176
     1
 93
        1
176
     1
 44
0.0
176
     1
173
     0
176
     1
  0
VISUALSTYLE
  5
36
102
{ACAD_REACTORS
330
2A
102
}
330
2A
100
AcDbVisualStyle
  2
Brighten
 70
    12
177
     2
291
     1
 71
     2
176
     1
 72
     2
176
     1
 73
     0
176
     1
 90
        0
176
     1
 40
-0.6
176
     1
 41
-30.0
176
     1
 62
     5
 63
     7
421
 16777215
176
     1
 74
     1
176
     1
 91
        4
176
     1
 64
     7
176
     1
 65
   257
176
     1
 75
     1
176
     1
175
     1
176
     1
 42
1.0
176
     1
 92
        8
176
     1
 66
     7
176
     1
 43
1.0
176
     1
 76
     1
176
     1
 77
     6
176
     1
 78
     2
176
     1
 67
     7
176
     1
 79
     5
176
     1
170
     0
176
     1
171
     0
176
     1
290
     0
176
     1
 93
        1
176
     1
 44
50.0
176
     1
173
     0
176
     1
  0
VISUALSTYLE
  5
3A
102
{ACAD_REACTORS
330
2A
102
}
330
2A
100
AcDbVisualStyle
  2
ColorChange
 70
    16
177
     2
291
     1
 71
     2
176
     1
 72
     2
176
     1
 73
     3
176
     1
 90
        0
176
     1
 40
-0.6
176
     1
 41
-30.0
176
     1
 62
     5
 63
     8
421
  8421504
176
     1
 74
     1
176
     1
 91
        4
176
     1
 64
     7
176
     1
 65
   257
176
     1
 75
     1
176
     1
175
     1
176
     1
 42
1.0
176
     1
 92
        8
176
     1
 66
     8
424
  8421504
176
     1
 43
1.0
176
     1
 76
     1
176
     1
 77
     6
176
     1
 78
     2
176
     1
 67
     7
176
     1
 79
     5
176
     1
170
     0
176
     1
171
     0
176
     1
290
     0
176
     1
 93
        1
176
     1
 44
0.0
176
     1
173
     0
176
     1
  0
VISUALSTYLE
  5
34
102
{ACAD_REACTORS
330
2A
102
}
330
2A
100
AcDbVisualStyle
  2
Conceptual
 70
     9
177
     2
291
     0
 71
     3
176
     1
 72
     2
176
     1
 73
     0
176
     1
 90
        0
176
     1
 40
-0.6
176
     1
 41
-30.0
176
     1
 62
     5
 63
     7
421
 16777215
176
     1
 74
     2
176
     1
 91
        2
176
     1
 64
     7
176
     1
 65
   257
176
     1
 75
     1
176
     1
175
     1
176
     1
 42
40.0
176
     1
 92
        8
176
     1
 66
     7
176
     1
 43
1.0
176
     1
 76
     1
176
     1
 77
     6
176
     1
 78
     2
176
     1
 67
     7
176
     1
 79
     3
176
     1
170
     0
176
     1
171
     0
176
     1
290
     0
176
     1
 93
        1
176
     1
 44
0.0
176
     1
173
     0
176
     1
  0
VISUALSTYLE
  5
35
102
{ACAD_REACTORS
330
2A
102
}
330
2A
100
AcDbVisualStyle
  2
Dim
 70
    11
177
     2
291
     1
 71
     2
176
     1
 72
     2
176
     1
 73
     0
176
     1
 90
        0
176
     1
 40
-0.6
176
     1
 41
-30.0
176
     1
 62
     5
 63
     7
421
 16777215
176
     1
 74
     1
176
     1
 91
        4
176
     1
 64
     7
176
     1
 65
   257
176
     1
 75
     1
176
     1
175
     1
176
     1
 42
1.0
176
     1
 92
        8
176
     1
 66
     7
176
     1
 43
1.0
176
     1
 76
     1
176
     1
 77
     6
176
     1
 78
     2
176
     1
 67
     7
176
     1
 79
     5
176
     1
170
     0
176
     1
171
     0
176
     1
290
     0
176
     1
 93
        1
176
     1
 44
-50.0
176
     1
173
     0
176
     1
  0
VISUALSTYLE
  5
39
102
{ACAD_REACTORS
330
2A
102
}
330
2A
100
AcDbVisualStyle
  2
Facepattern
 70
    15
177
     2
291
     1
 71
     2
176
     1
 72
     2
176
     1
 73
     0
176
     1
 90
        0
176
     1
 40
-0.6
176
     1
 41
-30.0
176
     1
 62
     5
 63
     7
421
 16777215
176
     1
 74
     1
176
     1
 91
        4
176
     1
 64
     7
176
     1
 65
   257
176
     1
 75
     1
176
     1
175
     1
176
     1
 42
1.0
176
     1
 92
        8
176
     1
 66
     7
176
     1
 43
1.0
176
     1
 76
     1
176
     1
 77
     6
176
     1
 78
     2
176
     1
 67
     7
176
     1
 79
     5
176
     1
170
     0
176
     1
171
     0
176
     1
290
     0
176
     1
 93
        1
176
     1
 44
0.0
176
     1
173
     0
176
     1
  0
VISUALSTYLE
  5
2B
102
{ACAD_REACTORS
330
2A
102
}
330
2A
100
AcDbVisualStyle
  2
Flat
 70
     0
177
     2
291
     1
 71
     2
176
     1
 72
     1
176
     1
 73
     1
176
     1
 90
        2
176
     1
 40
-0.6
176
     1
 41
30.0
176
     1
 62
     5
 63
     7
421
 16777215
176
     1
 74
     0
176
     1
 91
        4
176
     1
 64
     7
176
     1
 65
   257
176
     1
 75
     1
176
     1
175
     1
176
     1
 42
1.0
176
     1
 92
        8
176
     1
 66
     7
176
     1
 43
1.0
176
     1
 76
     1
176
     1
 77
     6
176
     1
 78
     2
176
     1
 67
     7
176
     1
 79
     5
176
     1
170
     0
176
     1
171
     0
176
     1
290
     0
176
     1
 93
       13
176
     1
 44
0.0
176
     1
173
     0
176
     1
  0
VISUALSTYLE
  5
2C
102
{ACAD_REACTORS
330
2A
102
}
330
2A
100
AcDbVisualStyle
  2
FlatWithEdges
 70
     1
177
     2
291
     1
 71
     2
176
     1
 72
     1
176
     1
 73
     1
176
     1
 90
        2
176
     1
 40
-0.6
176
     1
 41
30.0
176
     1
 62
     5
 63
     7
421
 16777215
176
     1
 74
     1
176
     1
 91
        4
176
     1
 64
     7
176
     1
 65
   257
176
     1
 75
     1
176
     1
175
     1
176
     1
 42
1.0
176
     1
 92
        0
176
     1
 66
   257
176
     1
 43
1.0
176
     1
 76
     1
176
     1
 77
     6
176
     1
 78
     2
176
     1
 67
     7
176
     1
 79
     5
176
     1
170
     0
176
     1
171
     0
176
     1
290
     0
176
     1
 93
       13
176
     1
 44
0.0
176
     1
173
     0
176
     1
  0
VISUALSTYLE
  5
2D
102
{ACAD_REACTORS
330
2A
102
}
330
2A
100
AcDbVisualStyle
  2
Gouraud
 70
     2
177
     2
291
     1
 71
     2
176
     1
 72
     2
176
     1
 73
     1
176
     1
 90
        2
176
     1
 40
-0.6
176
     1
 41
30.0
176
     1
 62
     5
 63
     7
421
 16777215
176
     1
 74
     0
176
     1
 91
        4
176
     1
 64
     7
176
     1
 65
   257
176
     1
 75
     1
176
     1
175
     1
176
     1
 42
1.0
176
     1
 92
        0
176
     1
 66
     7
176
     1
 43
1.0
176
     1
 76
     1
176
     1
 77
     6
176
     1
 78
     2
176
     1
 67
     7
176
     1
 79
     5
176
     1
170
     0
176
     1
171
     0
176
     1
290
     0
176
     1
 93
       13
176
     1
 44
0.0
176
     1
173
     0
176
     1
  0
VISUALSTYLE
  5
2E
102
{ACAD_REACTORS
330
2A
102
}
330
2A
100
AcDbVisualStyle
  2
GouraudWithEdges
 70
     3
177
     2
291
     1
 71
     2
176
     1
 72
     2
176
     1
 73
     1
176
     1
 90
        2
176
     1
 40
-0.6
176
     1
 41
30.0
176
     1
 62
     5
 63
     7
421
 16777215
176
     1
 74
     1
176
     1
 91
        4
176
     1
 64
     7
176
     1
 65
   257
176
     1
 75
     1
176
     1
175
     1
176
     1
 42
1.0
176
     1
 92
        0
176
     1
 66
   257
176
     1
 43
1.0
176
     1
 76
     1
176
     1
 77
     6
176
     1
 78
     2
176
     1
 67
     7
176
     1
 79
     5
176
     1
170
     0
176
     1
171
     0
176
     1
290
     0
176
     1
 93
       13
176
     1
 44
0.0
176
     1
173
     0
176
     1
  0
VISUALSTYLE
  5
38
102
{ACAD_REACTORS
330
2A
102
}
330
2A
100
AcDbVisualStyle
  2
Linepattern
 70
    14
177
     2
291
     1
 71
     2
176
     1
 72
     2
176
     1
 73
     0
176
     1
 90
        0
176
     1
 40
-0.6
176
     1
 41
-30.0
176
     1
 62
     5
 63
     7
421
 16777215
176
     1
 74
     1
176
     1
 91
        4
176
     1
 64
     7
176
     1
 65
   257
176
     1
 75
     7
176
     1
175
     7
176
     1
 42
1.0
176
     1
 92
        8
176
     1
 66
     7
176
     1
 43
1.0
176
     1
 76
     1
176
     1
 77
     6
176
     1
 78
     2
176
     1
 67
     7
176
     1
 79
     5
176
     1
170
     0
176
     1
171
     0
176
     1
290
     0
176
     1
 93
        1
176
     1
 44
0.0
176
     1
173
     0
176
     1
  0
VISUALSTYLE
  5
33
102
{ACAD_REACTORS
330
2A
102
}
330
2A
100
AcDbVisualStyle
  2
Realistic
 70
     8
177
     2
291
     0
 71
     2
176
     1
 72
     2
176
     1
 73
     0
176
     1
 90
        0
176
     1
 40
-0.6
176
     1
 41
-30.0
176
     1
 62
     5
 63
     7
421
 16777215
176
     1
 74
     1
176
     1
 91
        0
176
     1
 64
     7
176
     1
 65
   257
176
     1
 75
     1
176
     1
175
     1
176
     1
 42
1.0
176
     1
 92
        8
176
     1
 66
     8
424
  7895160
176
     1
 43
1.0
176
     1
 76
     1
176
     1
 77
     6
176
     1
 78
     2
176
     1
 67
     7
176
     1
 79
     5
176
     1
170
     0
176
     1
171
     0
176
     1
290
     0
176
     1
 93
       13
176
     1
 44
0.0
176
     1
173
     0
176
     1
  0
VISUALSTYLE
  5
37
102
{ACAD_REACTORS
330
2A
102
}
330
2A
100
AcDbVisualStyle
  2
Thicken
 70
    13
177
     2
291
     1
 71
     2
176
     1
 72
     2
176
     1
 73
     0
176
     1
 90
        0
176
     1
 40
-0.6
176
     1
 41
-30.0
176
     1
 62
     5
 63
     7
421
 16777215
176
     1
 74
     1
176
     1
 91
        4
176
     1
 64
     7
176
     1
 65
   257
176
     1
 75
     1
176
     1
175
     1
176
     1
 42
1.0
176
     1
 92
       12
176
     1
 66
     7
176
     1
 43
1.0
176
     1
 76
     1
176
     1
 77
     6
176
     1
 78
     2
176
     1
 67
     7
176
     1
 79
     5
176
     1
170
     0
176
     1
171
     0
176
     1
290
     0
176
     1
 93
        1
176
     1
 44
0.0
176
     1
173
     0
176
     1
  0
ENDSEC
  0
EOF
