<?xml version="1.0" encoding="utf-8"?>
<!-- Generator: Adobe Illustrator 22.0.0, SVG Export Plug-In . SVG Version: 6.00 Build 0)  -->
<svg version="1.1" id="Layer_1" xmlns="http://www.w3.org/2000/svg" xmlns:xlink="http://www.w3.org/1999/xlink" x="0px" y="0px"
	 viewBox="0 0 1080 1080" style="enable-background:new 0 0 1080 1080;" xml:space="preserve">
<style type="text/css">
	.st0{fill:#FD2B7B;}
</style>
<g>
	<path d="M310.4,628l-1.2,19.5c-0.6,9-5.2,10.2-10.5,10.2l-98.9-0.6l-11.8,0.6c-5.1,0.3-9.7-7.5-10.1-17.3L169.7,447
		c-0.4-9.8,3.5-17.7,8.6-17.6l52.9,1.2c5.1,0.1,9.4,8,9.7,17.7l5.3,170.6l54.6-0.3C306.3,618.6,311,620,310.4,628z"/>
	<path d="M624.8,283c-9.3,44.9-57.7,82-103.9,71c-41.3-9.8-68.2-51.7-71.2-92.3c-3.4-46.6,8-100.1,52.9-123.5
		c65.2-34,122.9,18,127.7,83.1C632,244.2,630.1,265,624.8,283z M569.6,225.7c-0.3-3.6-1.1-11.7-3.9-19.4
		c-2.5-7.1-6.7-13.9-13.4-16.5c-0.8-0.3-1.7-0.6-2.6-0.8c-1.7-0.4-3.5-0.6-5.3-0.6h-0.2c-6.8,0.2-14.2,3.8-20.3,9.9
		c-14.5,14.5-14.7,43.1-13.6,58.9c0.3,3.7,1.2,11.7,3.9,19.4c2.5,7.1,6.7,13.9,13.4,16.5c0.8,0.3,1.7,0.6,2.6,0.8
		c1.7,0.4,3.5,0.6,5.3,0.6h0.1c6.8-0.2,14.2-3.8,20.4-9.9C570.6,270,570.8,241.4,569.6,225.7z"/>
	<path d="M637,743.4l-68.3,196c-3.2,9.1-7.8,13.2-17.2,13.2l-39-0.5c-9.7,0-14.9-5.4-17.4-14.4l-53.2-193.7c-0.1-0.5-0.3-1-0.4-1.5
		c-2.1-9,4.3-17.7,12.9-17.8l35.1-0.3c5.2,0.2,7.1,2,9.6,11.4L530,853.9l39.4-116.6c3.1-9.1,7.7-13.7,13.6-13.7l47.4,0.4
		c4.5,0,8.3,3.8,8.4,8.7C638.9,735.8,638.3,739.6,637,743.4z"/>
	<path d="M929.7,623.7l-1.7,29c-0.2,2.8-4.6,5-9.9,5l-98.9-0.6l-11.8,0.6c-5.1,0.3-9.7-7.5-10.1-17.3L789.1,447
		c-0.4-9.8,3.5-17.7,8.6-17.6l43.7,1l78.9-0.4c5.4,0,9.6,2.3,9.5,5.1l-1.7,29c-0.2,2.8-4.6,5-9.9,5l-57.2-0.4l1.6,50.1l50.5-0.2
		c5.4,0,9.5,2.1,9.2,7.5l-1.4,21.3c-1.3,7.4-4.6,10.3-9.9,10.2l-47.1-0.3l1.9,61.5l54.6-0.3C925.6,618.6,929.9,620.9,929.7,623.7z"
		/>
	<g>
		<g>
			<path d="M466.5,594.4c9.8,3.9,18.7,7.4,28.8,11.3c-2.9,3.1-5.2,5.6-7.6,8c-42.5,42.4-85,85-127.8,127.2
				c-5.2,5.1-7.7,9.8-6.2,17.2c1.9,9.1,2.4,18.5,4.3,27.6c1.9,8.9-0.7,15.9-6.5,22.3c-6.3,6.9-12.3,14-18.9,20.6
				c-18.3,18.6-35.7,38.1-55.8,55c-12.7,10.6-25,21.7-36.4,33.6c-7.2,7.5-17.7,5.3-19.3-5.4c-1.4-9.4-1.9-19.1-1.6-28.7
				c0.3-9.6,2.2-19.1,3.5-29.5c-4.1,0.2-8.1,0.6-12.1,0.7c-15.3,0.1-30.6,0.1-46,0.1c-2.1,0-4.2-0.2-6.3-0.5
				c-10.1-1.6-12.7-8.7-6.3-16.8c0.9-1.2,2-2.2,3.1-3.3c36.6-34.8,73.3-69.4,109.6-104.5c8.2-7.9,17.1-10.5,27.8-9.1
				c11.6,1.5,23.3,2.3,34.9,4.2c5.4,0.9,8.8-0.6,12.6-4.4c37.6-37.6,75.3-75.1,113-112.6C457.6,603.3,461.8,599.1,466.5,594.4z
				 M215.9,800.6c13.8,0.7,26.5,1.5,39.3,1.7c2.2,0,4.8-2.2,6.6-4c6.9-6.6,13.6-13.5,20.4-20.3c1.1-1.1,1.8-2.6,3-4.5
				c-13.3-0.5-25.5-1.1-37.8-1.3c-1.8,0-4.1,1.1-5.4,2.4C233.2,783.1,224.6,791.8,215.9,800.6z M239.1,894.3
				c0.9,0.4,1.7,0.8,2.6,1.1c11.3-11,22.7-21.9,34-33c0.9-0.9,1.9-2.8,1.6-3.9c-2.5-8.1-4.8-16.3-9.7-25.2
				c-8.6,8.6-16,15.9-23.3,23.4c-1.2,1.2-2.5,2.9-2.6,4.5C240.6,872.2,239.9,883.3,239.1,894.3z M257.8,759.1
				c13.9,0.5,26.6,0.9,39.4,1.3c1.1,0,2.6-0.3,3.3-1c6.8-6.5,14-12.6,20.3-21.1c-13.3-2.2-25.5-2-37.7-1.5c-1.4,0.1-3.2,0.4-4.2,1.4
				C272,744.7,265.4,751.4,257.8,759.1z M279.6,821.8c3.3,8.4,6.5,16.6,10,25.4c8.8-8.8,16.9-16.9,24.7-24.7
				c-3.5-8.6-6.8-16.5-10.3-25C295.5,805.9,287.7,813.7,279.6,821.8z M181.5,835.2c13.9,0.1,25.9,0.2,37.8,0.2c1.2,0,2.6,0,3.4-0.7
				c6.6-5.4,13-10.9,20.8-17.6c-3.2-0.6-4.3-0.9-5.4-0.9c-11.4,0-22.8,0.1-34.2,0.3c-1.7,0-3.9,0.2-5,1.3
				C193.5,823,188.2,828.5,181.5,835.2z M323.9,813c5.5-5.5,9.7-9.7,13.9-13.9c1.3-1.3,2.6-2.5,3.6-4c0.8-1.2,1.5-2.6,1.7-4
				c0.4-2.9-5.4-22-7.7-25.6c-5.6,5.6-11.2,10.9-16.5,16.6c-1.4,1.5-2.7,4.3-2.3,6.1C318.7,796.1,321.2,803.8,323.9,813z"/>
			<path d="M842.8,258.1C755.5,345.6,671.3,433,583,519c-1.3-7.2-1.6-13.2-3.6-18.5c-4.1-11.1-0.4-18.4,7.9-26.5
				c77.3-75.3,154.1-151.1,231-226.8c2.5-2.4,4.9-4.9,8.9-8.9c-5.4-0.2-8.6-0.2-11.7-0.4c-8.4-0.5-16.8-0.9-25.1-1.7
				c-3.9-0.4-8-1.3-9.2-6c-1.3-5,2.1-8.1,5.7-10.2c8.3-4.8,16.6-9.7,25.4-13.5c19-8.2,38.3-15.8,57.6-23.5
				c13.1-5.2,26.2-10.4,39.4-15.4c5-1.9,10.5-4.1,15.2,0.7c4.8,4.9,3.4,10.8,1.1,16c-6.6,14.5-13,29.1-20.6,43
				c-10.8,19.4-22.6,38.3-34.1,57.3c-1.8,3.1-4,6.1-6.5,8.6c-6.4,6.5-14,4.6-16.4-4.2c-1.7-6.3-2.2-13-3.3-19.5
				C844,266.4,843.6,263.3,842.8,258.1z M859.6,266.8c11.9-11.7,47-76.5,48.2-85.8c-32.5,13.8-64.6,27.4-96.7,41
				c11.3,1.3,22.3,1.4,33.4,1.4c10.6,0,14.7,4.9,14.4,15.7C858.4,248.4,859.2,257.6,859.6,266.8z"/>
			<path d="M497.6,523c-0.7-9.3-1.6-17.3-1.8-25.4c-0.4-14.3,5.8-25.5,16.9-34.2c6.4-5,13.6-6.2,21.3-3.9c10.5,3,19,8.9,24.4,18.7
				c2.3,4.2,4.4,8.6,6,13.1c9.3,25.8,11.8,52.7,12.6,79.7c0.5,17.5-1,18.5-18.8,20.3c-14.9,1.4-30,2.2-44.9,2.4
				c-16.3,0.2-31.5-4.4-45.3-13c-10.6-6.5-18.5-15.3-21.7-27.6c-4.3-16.2,4.2-29.2,20.9-31c7.4-0.8,15,0.1,22.5,0.3
				C492.1,522.4,494.7,522.8,497.6,523z"/>
		</g>
		<g>
			<path d="M626.6,607.6c37.7,37.5,75.4,75,113,112.6c3.7,3.7,7.2,5.2,12.6,4.4c11.5-1.9,23.3-2.8,34.9-4.2
				c10.8-1.4,19.6,1.2,27.8,9.1c36.3,35.1,73,69.7,109.6,104.5c1.1,1,2.2,2.1,3.1,3.3c6.5,8.1,3.8,15.2-6.3,16.8
				c-2.1,0.3-4.2,0.5-6.3,0.5c-15.3,0-30.6,0-46-0.1c-4,0-8-0.4-12.1-0.7c1.3,10.4,3.1,19.9,3.5,29.5c0.3,9.5-0.2,19.2-1.6,28.7
				c-1.6,10.7-12.1,12.9-19.3,5.4c-11.4-11.9-23.7-23-36.4-33.6c-20.1-16.8-37.5-36.4-55.8-55c-6.5-6.6-12.6-13.7-18.9-20.6
				c-5.8-6.4-8.4-13.4-6.5-22.3c1.9-9.1,2.4-18.5,4.3-27.6c1.6-7.4-1-12.1-6.2-17.2c-42.8-42.2-85.2-84.7-127.8-127.2
				c-2.4-2.4-4.7-5-7.6-8c10.1-4,19-7.5,28.8-11.3C618.2,599.1,622.4,603.3,626.6,607.6z M838,774.6c-1.4-1.3-3.6-2.4-5.4-2.4
				c-12.2,0.2-24.5,0.8-37.8,1.3c1.3,1.9,2,3.4,3,4.5c6.7,6.8,13.4,13.7,20.4,20.3c1.8,1.8,4.4,4,6.6,4c12.8-0.2,25.5-1,39.3-1.7
				C855.4,791.8,846.8,783.1,838,774.6z M838.4,861.2c-0.1-1.6-1.4-3.3-2.6-4.5c-7.3-7.5-14.8-14.8-23.3-23.4
				c-4.9,8.9-7.2,17.1-9.7,25.2c-0.3,1.1,0.6,3,1.6,3.9c11.3,11,22.6,22,34,33c0.9-0.4,1.7-0.8,2.6-1.1
				C840.1,883.3,839.4,872.2,838.4,861.2z M801.2,738.2c-1-0.9-2.7-1.3-4.2-1.4c-12.2-0.5-24.4-0.6-37.7,1.5
				c6.3,8.5,13.5,14.6,20.3,21.1c0.8,0.7,2.2,1,3.3,1c12.7-0.4,25.5-0.8,39.4-1.3C814.6,751.4,808,744.7,801.2,738.2z M776,797.4
				c-3.5,8.5-6.7,16.4-10.3,25c7.8,7.8,16,16,24.7,24.7c3.4-8.7,6.7-17,10-25.4C792.3,813.7,784.5,805.9,776,797.4z M880.9,817.8
				c-1.1-1-3.3-1.3-5-1.3c-11.4-0.2-22.8-0.2-34.2-0.3c-1.1,0-2.2,0.4-5.4,0.9c7.8,6.6,14.2,12.2,20.8,17.6c0.8,0.7,2.3,0.7,3.4,0.7
				c12,0,23.9-0.1,37.8-0.2C891.8,828.5,886.5,823,880.9,817.8z M763.2,788.4c0.4-1.8-0.9-4.6-2.3-6.1c-5.3-5.7-10.9-11.1-16.5-16.6
				c-2.2,3.6-8.1,22.7-7.7,25.6c0.2,1.4,0.9,2.8,1.7,4c1,1.5,2.4,2.7,3.6,4c4.2,4.2,8.4,8.4,13.9,13.9
				C758.8,803.8,761.3,796.1,763.2,788.4z"/>
			<path d="M235.5,269.6c-1,6.5-1.5,13.2-3.3,19.5c-2.4,8.8-10.1,10.6-16.4,4.2c-2.5-2.5-4.6-5.6-6.5-8.6
				c-11.5-19-23.3-37.9-34.1-57.3c-7.7-13.9-14.1-28.5-20.6-43c-2.4-5.2-3.8-11.1,1.1-16c4.7-4.8,10.1-2.6,15.2-0.7
				c13.2,5,26.3,10.1,39.4,15.4c19.2,7.7,38.5,15.3,57.6,23.5c8.8,3.8,17.1,8.7,25.4,13.5c3.6,2.1,7,5.2,5.7,10.2
				c-1.2,4.6-5.3,5.6-9.2,6c-8.4,0.8-16.8,1.2-25.1,1.7c-3.2,0.2-6.3,0.2-11.7,0.4c3.9,3.9,6.4,6.4,8.9,8.9
				c76.9,75.7,153.7,151.5,231,226.8c8.3,8.1,12,15.4,7.9,26.5c-2,5.4-2.3,11.3-3.6,18.5c-88.3-86-172.6-173.4-259.8-260.9
				C236.4,263.3,236,266.4,235.5,269.6z M221.3,239.2c-0.4-10.8,3.7-15.7,14.4-15.7c11,0,22.1-0.1,33.4-1.4
				c-32.1-13.6-64.2-27.2-96.7-41c1.2,9.3,36.3,74.1,48.2,85.8C220.8,257.6,221.6,248.4,221.3,239.2z"/>
			<path d="M582.4,523c0.7-9.3,1.6-17.3,1.8-25.4c0.4-14.3-5.8-25.5-16.9-34.2c-6.4-5-13.6-6.2-21.3-3.9c-10.5,3-19,8.9-24.4,18.7
				c-2.3,4.2-4.4,8.6-6,13.1c-9.3,25.8-11.8,52.7-12.6,79.7c-0.5,17.5,1,18.5,18.8,20.3c14.9,1.4,30,2.2,44.9,2.4
				c16.3,0.2,31.5-4.4,45.3-13c10.6-6.5,18.5-15.3,21.7-27.6c4.3-16.2-4.2-29.2-20.9-31c-7.4-0.8-15,0.1-22.5,0.3
				C587.9,522.4,585.3,522.8,582.4,523z"/>
		</g>
	</g>
	<path class="st0" d="M661.7,354.7c-93.6,0.5-125.5,85.2-125.5,85.2c-26.7-56-71.2-87.3-125.8-85.2
		c-54.7,2.1-131.7,109.6-57.1,208.7c74.6,99.1,186.2,169.1,186.2,169.1c68.6-47.2,132-96.8,189.5-164.5
		C786.3,500.4,755.2,354.3,661.7,354.7z"/>
</g>
</svg>
