<?xml version="1.0" encoding="utf-8"?>
<!-- Generator: Adobe Illustrator 22.0.0, SVG Export Plug-In . SVG Version: 6.00 Build 0)  -->
<svg version="1.1" id="Layer_1" xmlns="http://www.w3.org/2000/svg" xmlns:xlink="http://www.w3.org/1999/xlink" x="0px" y="0px"
	 viewBox="0 0 1080 1080" style="enable-background:new 0 0 1080 1080;" xml:space="preserve">
<style type="text/css">
	.st0{fill:#CE0100;}
	.st1{fill:#231F20;}
	.st2{fill:#FD2B7B;}
</style>
<g>
	<g>
		<g>
			<path class="st0" d="M403.4,531.5c1.6-4.3,9.5-6.5,23.7-6.5c3.6,0,7.8,0.2,12.7,0.7c4.9,0.5,7.1,1.1,6.7,1.8L408,604.9V650
				c0,2.1-3.4,3.6-10.2,4.4c-3.5,0.5-6.8,0.7-10.2,0.7c-3.3,0-6.7-0.2-10-0.6c-6.8-0.9-10.2-2.4-10.2-4.6v-44l-39.7-78
				c-0.5-0.7,2-1.4,7.6-2.1c5.5-0.7,10.2-1,14-1c15.2,0,23.5,2.2,24.9,6.7l13.5,37.7L403.4,531.5z"/>
			<path class="st0" d="M507.7,656.6c-17.3,0-31.4-5.7-42.3-17C454.5,628.3,449,611.7,449,590c0-21.7,5.5-38.2,16.5-49.4
				c11-11.2,25.3-16.8,42.7-16.8c17.4,0,31.5,5.5,42.2,16.5c10.7,11,16.1,27.7,16.1,50.1c0,22.4-5.5,39-16.4,49.9
				S525,656.6,507.7,656.6z M507.8,559.2c-5.9,0-10.9,2.7-14.9,8.1c-4,5.4-6,13-6,22.8c0,9.8,1.9,17.3,5.7,22.5
				c3.8,5.2,8.8,7.9,15.1,7.9c6.2,0,11.3-2.6,15.2-7.9c3.9-5.3,5.8-12.9,5.8-22.7s-2-17.4-6-22.7
				C518.7,561.9,513.7,559.2,507.8,559.2z"/>
			<path class="st0" d="M641.8,529.1c0-2.5,6.7-3.7,20.1-3.7c13.4,0,20.1,1.2,20.1,3.7v84.8c0,12.6-4.5,22.8-13.5,30.8
				c-9,7.9-21.4,11.9-37.2,11.9c-15.8,0-28.7-4.1-38.6-12.3c-9.9-8.2-14.9-19.2-14.9-33.2v-81.9c0-2.5,6.7-3.7,20.1-3.7
				c13.4,0,20.1,1.2,20.1,3.7v83.3c0,2.5,1.3,4.4,3.9,5.9c2.7,1.5,5.5,2.2,8.5,2.2c3,0,5.6-0.7,8-2c2.4-1.4,3.6-3.4,3.6-6.1V529.1z"
				/>
			<path class="st0" d="M732.7,652.2c0,2-5.9,3-17.6,3c-11.8,0-17.7-0.9-17.7-2.8V531.9c0-4.3,2.3-6.5,6.8-6.5h35.3
				c32.4,0,48.6,12.6,48.6,37.9c0,7.6-1.5,14.6-4.4,20.8c-3,6.2-7.1,11.2-12.6,14.9l23.3,38.8c-1,3-4.2,6.3-9.6,10.2
				c-7.4,5.3-13.5,7.9-18.3,7.9c-4.8,0-8.4-1.7-10.7-5.2l-17.4-40.5h-5.7V652.2z M732.7,558.1v27.7h0.9c11.7,0,17.6-4.9,17.6-14.6
				c0-4.4-1.1-7.7-3.4-9.9c-2.3-2.2-6-3.2-11.2-3.2H732.7z"/>
		</g>
	</g>
	<g>
		<path class="st1" d="M195.9,514.7c2.7,2.4,6.5,4.1,11.2,5.1c4.8,1,9,1.5,12.7,1.5c9.5,0,19-2.9,28.5-8.7
			c5.8-3.7,11.2-7.6,16.3-11.7c5.1-4.1,9.9-8.5,14.3-13.3c2.4-2.4,4.2-4.8,5.6-7.1c1.4-2.4,2.9-4.8,4.6-7.1c0.7-2,1-3.4,1-4.1
			c0-2.7-1.5-4.8-4.6-6.1c-3.7-1.7-7.6-3.3-11.5-4.8c-3.9-1.5-8.1-2.8-12.5-3.8c-12.9-2.7-25.2-5.4-36.7-8.2
			c-11.6-2.7-22.8-6.3-33.6-10.7c-15.3-7.1-26.3-16.8-32.9-29.1c-6.6-12.2-9.9-27-9.9-44.4c0-8.5,0.7-16.8,2-25
			c1.4-8.2,3.2-16.3,5.6-24.5c6.1-19.7,14.2-38.2,24.2-55.6c10-17.3,22.5-33.1,37.5-47.4c7.8-7.1,16.1-13.1,24.7-17.8
			c8.7-4.8,18.3-8,28.8-9.7c1.7-0.3,3.2-0.6,4.6-0.8c1.4-0.2,2.9-0.3,4.6-0.3c11.9,0,22.9,4,32.9,12c10,8,16.2,17.9,18.6,29.8
			c1,6.5,1.9,12.6,2.5,18.4c0.7,5.8,1,11.6,1,17.3c0,1.4-0.1,2.7-0.3,4.1c-0.2,1.4-0.3,2.7-0.3,4.1c-1,13.3-2.3,26.3-3.8,39
			c-1.5,12.7-4.2,25.6-7.9,38.5c-1,3.7-2.5,8.2-4.6,13.3h8.7c6.1,0,9.5,1.9,10.2,5.6c0.7,1.7,1.1,3.1,1.3,4.3
			c0.2,1.2,0.3,2.6,0.3,4.3c0,4.1-1.4,8.5-4.1,13.3c-2,3.1-5.6,4.6-10.7,4.6c-9.5,0-18.7-0.4-27.5-1.3c-8.8-0.8-18-1.6-27.5-2.3
			h-2.5c-2.7,0-5.4-0.3-7.9-0.8c-2.5-0.5-4.2-2-4.8-4.3c-2-3.1-3.1-6.3-3.1-9.7c0-4.4,1.2-7.1,3.6-8.2c2.4-1,5.4-2,9.2-3.1h21.9
			c3.4-7.1,5.9-14.3,7.4-21.4c1.5-7.1,2.8-14.6,3.8-22.4c1.4-6.8,2.3-13.8,2.8-20.9c0.5-7.1,0.8-14.1,0.8-20.9
			c0-17-1.5-33.8-4.6-50.5c-1-5.1-2-9-2.8-11.7c-0.9-2.7-2.6-4.1-5.4-4.1c-2.4,0-7,1.9-13.8,5.6c-6.1,3.7-11.8,8.2-17.1,13.3
			c-5.3,5.1-10.3,10.7-15,16.8c-7.1,9.2-13.8,18.4-19.9,27.8c-6.1,9.4-11.5,19.2-16.1,29.6c-4.6,10.4-8.4,21.6-11.5,33.6
			c-3.1,12.1-5.1,25.2-6.1,39.5c0,0.7-0.1,1.1-0.3,1.3c-0.2,0.2-0.3,0.6-0.3,1.3c0,6.8,2.5,12.6,7.6,17.3c5.1,4.8,10,8,14.8,9.7
			c10.5,4.8,21.2,8.9,32.1,12.5c10.9,3.6,21.7,6.7,32.6,9.4c5.1,1,11.1,2.9,18.1,5.6c7,2.7,13.5,6.2,19.6,10.5
			c6.1,4.3,11.3,9.3,15.5,15c4.2,5.8,6.4,12.2,6.4,19.4c0,2-0.2,4.2-0.5,6.4c-0.3,2.2-1,4.5-2,6.9c-5.8,13.9-13,25.8-21.7,35.7
			c-8.7,9.9-20.5,17-35.4,21.4c-7.5,2-14.6,3.1-21.4,3.1c-11.9,0-22.7-2.5-32.4-7.6s-18.4-10.5-26.3-16.3v11.2
			c-0.7,5.4-1.8,9.9-3.3,13.5c-1.5,3.6-5.2,5.4-11,5.4c-3.4,0-6.5-0.9-9.2-2.5c-1.7-1-2.6-2.5-2.8-4.6c-0.2-2-0.3-4.3-0.3-6.6
			c-0.7-7.1-1-14.3-1-21.4s-0.3-14.6-1-22.4c0-3.4-0.3-6.5-0.8-9.2c-0.5-2.7-0.8-5.8-0.8-9.2c0-8.8,4.8-13.3,14.3-13.3
			c3.7,0,7.6,1.2,11.7,3.6c4.1,2.4,6.1,5.8,6.1,10.2v2.5v6.6c0,4.4-0.2,8.8-0.5,13C196.1,507,195.9,511,195.9,514.7z"/>
		<path class="st1" d="M447.3,162.4c0,4.8-0.9,9.2-2.8,13.3c-1.9,4.1-5.2,6.1-9.9,6.1l-1.5-0.5h-0.5h-3.6c-2,15.3-4.6,31.1-7.6,47.4
			c-0.3,1.7-0.5,3.6-0.5,5.6c0,2,0.7,3.3,2,3.8c1.4,0.5,4.1,0.8,8.2,0.8h11.7c5.4,0,10.9-0.3,16.3-0.8c5.4-0.5,10.9-1.8,16.3-3.8
			c0.7-0.3,1.7-0.5,3.1-0.5c2.7,0,4.1,1.7,4.1,5.1v3.1c-1,5.1-4.3,9.2-9.7,12.2c-7.1,3.4-14.4,6.2-21.7,8.4
			c-7.3,2.2-15,3.7-23.2,4.3c-1,1-2.9,1.5-5.6,1.5c-3.7,0-5.6,2.2-5.6,6.6c-0.7,4.4-1.2,8.8-1.5,13c-0.3,4.3-0.5,8.6-0.5,13
			c-0.7,17.3-1.5,34.6-2.5,51.7c-1,17.2-1.5,34.4-1.5,51.7c0,4.1,0.1,8.2,0.3,12.5c0.2,4.3,0.4,8.4,0.8,12.5v8.7
			c0,7.8,0.3,15.6,0.8,23.5c0.5,7.8,2,15.5,4.3,22.9c0.7,1,1.3,2,1.8,2.8c0.5,0.9,1.1,2.1,1.8,3.8c5.4-4.4,10.6-11.7,15.5-21.9
			c4.9-10.2,9.3-21.2,13.3-32.9c3.9-11.7,7.1-23.1,9.7-34.2c2.6-11,4.3-19.8,5.4-26.3c0-3.7,0.6-7.3,1.8-10.7
			c1.2-3.4,3.6-5.1,7.4-5.1l1.5,0.5c3.7,0,5.6,2.6,5.6,7.6c-0.7,6.8-1.1,13.3-1.3,19.6c-0.2,6.3-1.1,12.8-2.8,19.6
			c-0.3,1.4-0.7,2.7-1,4.1c-0.3,1.4-0.7,2.7-1,4.1l-4.1,16.3c-1.7,8.2-3.8,16.6-6.4,25.2c-2.5,8.7-6,16.7-10.5,24.2l-4.6,8.7
			c-3.7,6.1-8.4,10.5-14,13.3c-5.6,2.7-11.5,4.1-17.6,4.1c-7.8,0-15.4-2-22.7-6.1c-7.3-4.1-12.7-10-16.1-17.8
			c-4.1-10.9-6.7-22-7.9-33.4c-1.2-11.4-1.8-23-1.8-34.9c-0.7-14.3-1-28.5-1-42.8c0-14.3,0-28.9,0-43.8c0-7.8,0.2-15.7,0.5-23.7
			c0.3-8,0.5-16.1,0.5-24.2c0-3.7-0.3-6.1-1-7.1c-0.7-1-2.9-2-6.6-3.1c-17.7-4.1-26.5-13.9-26.5-29.6c0-2.7,0.7-5.7,2-8.9
			c1.4-3.2,3.2-4.8,5.6-4.8c1.4,0,2.6,0.2,3.6,0.5c2.7,1.7,6.5,3.2,11.5,4.6c4.9,1.4,9.1,2,12.5,2c2.7,0,4.2-2.6,4.6-7.6
			c1-6.1,1.8-12.1,2.3-18.1c0.5-5.9,1.1-12,1.8-18.1c0.7-1.7,1.3-3.5,1.8-5.4c0.5-1.9,0.8-3.7,0.8-5.4c-2.7-0.7-5.5-1.2-8.4-1.5
			c-2.9-0.3-4.8-1.7-5.9-4.1c-2-3.1-3.1-6.5-3.1-10.2c0-2.7,0.5-5.3,1.5-7.6c1-1.7,2.6-2.6,4.8-2.8c2.2-0.2,4.3-0.3,6.4-0.3
			c6.8-0.7,13.7-1.1,20.6-1.3c7-0.2,14-0.6,21.2-1.3h4.1l9.2-1c5.4,0,9.4,0.6,12,1.8C446,152.7,447.3,156.3,447.3,162.4z"/>
		<path class="st1" d="M530.9,488.7c6.5-4.1,12.1-9.2,17.1-15.3c4.9-6.1,9.3-12.8,13-20.1c3.7-7.3,7.1-14.9,9.9-22.7
			c2.9-7.8,5.7-15.5,8.4-22.9c2.7-6.1,5-12.1,6.9-18.1c1.9-5.9,3.6-12,5.4-18.1c2-5.4,4.9-7.6,8.7-6.6c6.8,1,9.7,4.3,8.7,9.7
			c0,2.4-0.2,4.4-0.5,6.1c-0.3,1.7-0.9,3.7-1.5,6.1c-3.7,16.7-8.8,32.5-15,47.7c-6.3,15.1-13.9,29.7-22.7,43.6c0,0.3-0.3,1.2-1,2.5
			l-2,3.6c-0.3,0.7-0.5,1.1-0.5,1.3c0,0.2-0.2,0.6-0.5,1.3c-5.8,7.5-12.4,13-19.9,16.6c-7.5,3.6-15.1,5.4-22.9,5.4
			c-12.2,0-22.5-3.5-30.8-10.5c-8.3-7-15-15.6-19.9-26c-4.9-10.4-8.5-21.5-10.7-33.4c-2.2-11.9-3.3-22.6-3.3-32.1
			c0.7-9.9,1.9-21.5,3.6-34.9c1.7-13.4,4.8-26.3,9.4-38.5c4.6-12.2,11-22.7,19.1-31.4c8.2-8.7,19-13,32.6-13c10.2,0,19.5,3.1,28,9.2
			c8.5,6.1,12.7,15,12.7,26.5v6.1c0,8.5-0.9,18.3-2.5,29.3c-1.7,11-4.5,21.8-8.4,32.4c-3.9,10.5-9,20.1-15.3,28.5
			c-6.3,8.5-14,14.4-23.2,17.8c-4.8,1-6.6,3.6-5.6,7.6c2,14.3,6.5,27.7,13.3,40.3c1.7,2.7,3.1,4.3,4.1,4.6c1,0.3,2.9-0.3,5.6-2
			V488.7z M528.8,312.3c-3.4,3.4-6.5,8.3-9.4,14.8c-2.9,6.5-5.4,13.5-7.6,21.2c-2.2,7.6-3.9,15.5-5.1,23.5c-1.2,8-1.8,15.6-1.8,22.7
			c0,8.8,1,15.8,3.1,20.9c6.8-11.9,12.7-24,17.6-36.2c4.9-12.2,7.4-25.1,7.4-38.7C532.9,331.9,531.5,322.5,528.8,312.3z"/>
		<path class="st1" d="M720,297c4.8,0,9.9,1.4,15.5,4.3c5.6,2.9,8.4,7.1,8.4,12.5v3.1c0,5.4-0.3,11-0.8,16.6
			c-0.5,5.6-1.1,11.3-1.8,17.1c-1.4,9.5-2.3,19-2.8,28.3c-0.5,9.4-0.8,18.8-0.8,28.3c0,7.8,0.3,15.7,0.8,23.7
			c0.5,8,1.1,16.1,1.8,24.2c0,2.7,0.1,5.4,0.3,8.2c0.2,2.7,1.1,5.4,2.8,8.2c2.7-1,4.8-2.7,6.4-5.1c1.5-2.4,3.1-4.8,4.8-7.1
			c12.2-20.1,20.7-41.6,25.5-64.7c1-3.7,1.9-7.6,2.5-11.5c0.7-3.9,1.9-7.7,3.6-11.5c1-2.7,2.6-4.2,4.8-4.6c2.2-0.3,4.3-0.2,6.4,0.5
			c3.7,0,5.6,2.5,5.6,7.6c0,2.4,0,4.5,0,6.4c0,1.9-0.3,4-1,6.4c-4.1,18.7-9.2,36.9-15.3,54.5c-6.1,17.7-13.8,34.7-22.9,51
			c-2.7,3.7-5.9,6.5-9.4,8.4c-3.6,1.9-8.2,2.8-14,2.8h-2c-11.9,0-22.1-4.2-30.6-12.5c-8.5-8.3-13.8-18.1-15.8-29.3
			c-1-4.1-2.4-8.2-4.1-12.2c-2.7,8.2-5.4,16.2-7.9,24.2c-2.5,8-5.7,15.7-9.4,23.2c-5.8,10.9-16.1,16.3-31.1,16.3
			c-23.1,0-38.7-11.4-46.9-34.2c-3.1-8.8-5.2-17.7-6.4-26.5c-1.2-8.8-1.8-18.7-1.8-29.6c0-19.4,2.2-39,6.6-58.9
			c4.4-19.9,11-36.4,19.9-49.7c4.8-7.8,11.2-13.7,19.4-17.6c8.2-3.9,16.6-5.9,25.5-5.9c8.2,0,15.5,1.6,22.2,4.8
			c6.6,3.2,12.1,7.7,16.6,13.5c3.1-4.4,6.9-7.7,11.5-9.9C710.6,298.1,715.2,297,720,297z M675.6,392.4c2.4-6.8,3.6-13.9,3.6-21.4
			c0-5.4-0.9-11.9-2.5-19.4c-1.7-6.8-3.8-13.3-6.4-19.6c-2.5-6.3-6.2-11.8-11-16.6c-2.4,1-4,2.4-4.8,4.1c-0.9,1.7-1.8,3.4-2.8,5.1
			c-4.1,7.5-7.1,15.8-9.2,25c-2,11.6-3.8,23-5.4,34.4c-1.5,11.4-2.3,22.9-2.3,34.4c0,10.2,0.8,20.5,2.3,30.8
			c1.5,10.4,4.2,20.6,7.9,30.8c1.7-1,2.6-2.3,2.8-3.8c0.2-1.5,0.6-2.8,1.3-3.8c6.1-12.9,11-26,14.5-39.3
			C667.2,419.9,671.2,406.3,675.6,392.4z"/>
		<path class="st1" d="M784.7,428.6c-1-11.9-1.5-23.3-1.5-34.2c0-5.8,0.1-11.4,0.3-16.8c0.2-5.4,0.3-11,0.3-16.8
			c0-23.5,1.2-46.6,3.6-69.6c2.4-22.9,6.6-45.6,12.7-68.1c2.4-7.8,5.3-16,8.7-24.5c3.4-8.5,7.6-16.2,12.7-23.2
			c5.1-7,11.3-12.7,18.6-17.1c7.3-4.4,15.9-6.6,25.7-6.6c13.9,0,21.9,7.1,24,21.4c0.7,4.8,1.3,9.8,1.8,15c0.5,5.3,0.8,10.5,0.8,15.5
			c-0.7,12.9-2.2,25.8-4.6,38.7c-2.4,12.9-5.3,26-8.7,39.3c-5.1,20.4-11.8,39.9-20.1,58.6c-8.3,18.7-18.4,36.7-30.3,54
			c-1,1-2,2.4-3.1,4.1c-1,1.7-1.2,3.7-0.5,6.1c0,11.6,1.2,23.4,3.6,35.4c2.4,12.1,6.5,21.5,12.2,28.3c3.4,4.8,6.8,7.1,10.2,7.1
			c2.7,0,5.8-1.7,9.2-5.1c7.1-6.1,13.1-13.8,17.8-22.9c6.8-11.9,12.3-24.1,16.6-36.7c4.2-12.6,8.2-25.3,12-38.2c1-3.1,2.1-6,3.3-8.9
			c1.2-2.9,3.5-4.3,6.9-4.3c1.4,0,2.4,0.2,3.1,0.5c2,0,3.2,0.9,3.6,2.6c0.3,1.7,0.5,3.4,0.5,5.1c-0.7,3.7-1.3,7.5-1.8,11.2
			c-0.5,3.7-1.3,7.3-2.3,10.7c-2.7,13.9-6.2,27.2-10.5,39.8c-4.3,12.6-9.9,24.8-17.1,36.7c-2.4,4.8-5.5,9.6-9.4,14.5
			c-3.9,4.9-8.2,9.4-13,13.5c-4.8,4.1-10.1,7.4-16.1,9.9c-5.9,2.5-12.3,3.8-19.1,3.8c-9.9,0-17.8-2-23.7-6.1
			c-5.9-4.1-10.3-10-13-17.8C791.2,465.9,786.8,447.6,784.7,428.6z M857.1,183.8c-11.9,26.9-20.1,54.2-24.5,82.1
			c-4.4,27.9-7.6,56.4-9.7,85.6c4.8-5.8,9.3-14.4,13.8-25.7c4.4-11.4,8.4-24,12-37.7c3.6-13.8,6.4-27.8,8.4-42.1s3.1-27,3.1-38.2
			C860.2,197.3,859.2,189.3,857.1,183.8z"/>
	</g>
	<g>
		<g>
			<path class="st0" d="M631.5,254.4c-10.3,0-15.4-1.1-15.4-3.5l-3.6-69.3l-21.1,70.2c-0.5,1.4-4.4,2.1-11.8,2.1
				c-7.4,0-11.2-0.6-11.4-1.9l-21.8-71l-2.4,69c-0.1,1.7-2.3,2.9-6.6,3.5c-4.3,0.6-7.8,0.9-10.6,0.9c-2.8,0-5.6-0.2-8.2-0.5
				c-5.5-0.8-8.2-2.2-8.1-4.3l4-112.3c0-2.8,7-4.1,21.1-4.1c4.2,0,9.2,0.3,15.2,1c6,0.6,9.3,1.9,10,3.7l19.4,54.4l16.9-54.6
				c1-3,9-4.5,23.9-4.5c4.3,0,9.4,0.3,15.3,1c5.9,0.6,8.9,1.8,8.9,3.4l5,113.4c0,1.3-2.2,2.2-6.7,2.8
				C638.9,254.1,634.9,254.4,631.5,254.4z"/>
			<path class="st0" d="M704.2,254c0,0.8-5.2,1.2-15.7,1.2c-10.5-0.2-15.7-0.7-15.7-1.4v-57.4h-4.7c-1.8,0-3.3-1.1-4.4-3.4
				c-1.1-2.2-1.6-5-1.6-8.4c0-12.4,3.7-18.7,11.1-18.7c5.2,0,9.5,1.6,13,4.8c3.5,3.2,5.2,6.8,5.2,10.8c2.4-4.7,5.7-8.5,9.8-11.3
				c4.1-2.8,8.3-4.2,12.5-4.2c6.7,0,10.7,1.7,12.1,5.2c0.3,0.9,0.5,2.3,0.5,4.1c0,1.8-0.6,5-1.6,9.6c-1.1,4.6-2.2,7.9-3.4,10
				c-1.2,2.1-1.8,3.1-2.1,3.1c-0.2,0-1.3-0.4-3.2-1.3c-1.9-0.9-3.6-1.3-5.1-1.3c-4.4,0-6.6,3.5-6.6,10.4V254z"/>
			<path class="st0" d="M763.2,254.7c0,0.8-5.4,1.2-16.3,1.2c-10.9,0-16.3-0.3-16.3-1v-31.1c0-1,5.4-1.6,16.3-1.6
				c10.9,0,16.3,0.3,16.3,0.9V254.7z"/>
		</g>
	</g>
	<g>
		<path class="st1" d="M569.7,706.7c0,3.1,3.4,43.2,1.4,88.1c15-13.6,28.2-31.3,33.7-53.1c0.3-1.4,2.7-2.7,4.8-2.4
			c2.7,0.7,3.4,3.4,3.4,4.1c-4.1,24.5-22.5,50.4-42.5,66C566,870,550,932.6,501.7,921.1c-47.3-11.2-8.5-76.9,19.7-94.3
			c2-38.1,3.7-96,2.4-107.5c-2.4-22.8-16.7,86.4-49.3,106.5c-17,10.5-49.7,8.5-63-20.8c-14.3-30.6,2.7-78.6,28.6-93.2
			c16.3-8.8,54.8-12.3,66.7,8.8c2.7,4.1-2.7,7.5-5.4,4.4c-4.8-5.1-5.1-13.9-17.7-12.2c-33.3,6.5-42.2,120.5-16.3,109.2
			c32.7-19.1,39.8-119.1,58.5-127.3c3.4-1.7,9.9-3.1,16.7-3.1C553.7,691.7,566,694.8,569.7,706.7z M496.6,906.4
			c14.6,6.8,21.1-26.2,24.2-67C495.5,862.2,480.2,898.6,496.6,906.4z"/>
		<path class="st1" d="M649.3,727.4c-1.7,27.9-3.4,87.8,3.7,93.2c12.9,9.9,37.8-69.8,40.5-78.3c0.3-1.7,1.7-3.1,4.8-2
			c1.7,0.7,3.4,3.4,3.1,4.8c-8.2,37.8-28.6,90.5-53.4,95.3c-69.1,14-43.9-107.5-42.5-115.4c0.7-3.7,10.2-11.2,20.1-11.2
			C637.4,713.8,650,719.6,649.3,727.4z M650.7,689c0,8.8-10.5,16.3-23.5,16.3s-23.5-7.5-23.5-16.3c0-9.2,10.5-16.3,23.5-16.3
			S650.7,679.8,650.7,689z"/>
		<path class="st1" d="M702.1,681.2c2.4,2,3.7,4.4,4.4,7.1c1.7,4.8,2,11.2,2,17c10.9-1.7,14.6-5.8,25.5-6.1
			c18.4-0.7,33.4,17,33.4,33.7c0,28.2-12.6,99.4,0.3,106.2c13.6,7.1,30.3-64.3,36.1-95.6c0.3-1.7,2-2.7,4.1-2.7c1,0,3.7,1,3.4,3.4
			c-7.1,38.5-15.3,106.5-55.1,108.6c-54.8,2.7-32.3-80-31-122.2c0-5.8,0.7-17.4-3.4-19.4c-2-1-6.8,0.7-14,1
			c-1,12.6-6.1,33.4-8.2,40.2c-1.7,5.4-9.5,3.1-8.2-2c1.7-6.5,6.8-26.2,7.8-37.4c-9.5-1.4-17.4-4.8-20.8-10.9
			c-2.7-5.1-3.1-11.2-0.3-16.3c2.7-4.8,8.5-7.8,15.7-7.8C697,678.1,700,679.1,702.1,681.2z M685.4,689.7c-1,2-1,5.1,0.7,8.2
			c1.7,3.4,6.8,6.1,14,7.1c0-5.4,0-10.5-1.4-14c-0.7-1.7-1.4-3.1-2-3.7c-1-0.7-1.4-1-2.7-1C688.8,686.3,686.4,688,685.4,689.7z"/>
		<path class="st1" d="M889.9,588.9c14.6,20.1,20.1,71.5-38.8,130.7c-1,60.9,6.5,118.8,19.1,118.8c20.1,0,47.3-71.5,53.1-95.6
			c0.7-3.1,8.8-2.7,8.2,1c-6.8,31.6-35.1,109.6-73.2,108.2c-83.4-2.7-59.2-234.1-23.1-267.1c4.1-3.7,14.6-7.1,25.5-7.5
			C871.9,577,883.5,580.1,889.9,588.9z M868.5,598.5c-10.2,22.1-15.7,64.3-17,107.2c39.8-38.1,47.3-92.6,33.7-110.3
			c-3.1-4.1-5.4-6.5-8.2-6.1C874.3,589.3,871.5,592,868.5,598.5z"/>
	</g>
	<path class="st2" d="M343.4,668.3c-10.1,5.5-16.2,23.4-17.8,28.3c-1,3.3-2.7,3.7-4.4,3.8c-0.9,0-1.8-0.1-2.6-0.4
		c-13.7-4.8-44.9-3.6-37.5,11.9c7.5,15.8,30.5,31.5,38.6,36.9c5.4,3.4,17.1,10.1,23.3-2.1c10.7-18.5,14.9-50.2,15-60.4
		S353.5,662.7,343.4,668.3z M295.8,703.9c-1,0.6-2.2,1.4-3.2,2.3c-1,0.9-1.6,2-1.9,3.1c-0.2,1.2,0,2.6,0.5,4.1
		c0.4,1.4,1.1,2.8,1.6,3.9c1,2.3,1.6,4,1,4.5c-0.6,0.5-2.2-0.2-4.3-2.2c-1-1-2.1-2.4-3.1-4.2c-0.9-1.8-1.7-4.2-1.2-7.1
		c0.2-1.4,0.9-2.7,1.6-3.8c0.8-1.1,1.7-1.9,2.6-2.5c1.8-1.2,3.6-1.7,5-2c2.9-0.5,4.7,0.1,4.8,0.8
		C299.4,701.7,297.9,702.6,295.8,703.9z"/>
	<path class="st2" d="M235.1,661.2c-6.4,3.5-10.3,14.8-11.3,17.9c-0.7,2.1-1.7,2.4-2.8,2.4c-0.6,0-1.1-0.1-1.7-0.3
		c-8.7-3.1-28.5-2.3-23.8,7.5c4.8,10,19.4,20,24.5,23.4c3.4,2.2,10.8,6.4,14.8-1.3c6.8-11.7,9.5-31.8,9.5-38.3
		C244.4,666.2,241.5,657.7,235.1,661.2z M204.9,683.8c-0.7,0.4-1.4,0.9-2,1.5c-0.6,0.6-1,1.2-1.2,2c-0.1,0.8,0,1.7,0.3,2.6
		c0.3,0.9,0.7,1.7,1,2.5c0.7,1.5,1,2.5,0.7,2.9c-0.4,0.3-1.4-0.2-2.7-1.4c-0.6-0.7-1.3-1.5-1.9-2.7c-0.6-1.1-1.1-2.7-0.8-4.5
		c0.2-0.9,0.5-1.7,1-2.4c0.5-0.7,1.1-1.2,1.6-1.6c1.2-0.8,2.3-1.1,3.2-1.3c1.9-0.3,3,0.1,3.1,0.5C207.2,682.4,206.2,683,204.9,683.8
		z"/>
	<path class="st2" d="M289.8,617.3c-4.1,2.2-6.5,9.4-7.1,11.4c-0.4,1.3-1.1,1.5-1.8,1.5c-0.4,0-0.7-0.1-1.1-0.2
		c-5.5-1.9-18-1.4-15.1,4.8c3,6.3,12.3,12.7,15.5,14.9c2.2,1.4,6.9,4.1,9.4-0.8c4.3-7.4,6-20.2,6-24.3
		C295.7,620.4,293.9,615,289.8,617.3z M270.7,631.6c-0.4,0.3-0.9,0.6-1.3,0.9c-0.4,0.4-0.7,0.8-0.7,1.3c-0.1,0.5,0,1.1,0.2,1.6
		c0.2,0.6,0.4,1.1,0.6,1.6c0.4,0.9,0.7,1.6,0.4,1.8c-0.2,0.2-0.9-0.1-1.7-0.9c-0.4-0.4-0.9-0.9-1.2-1.7c-0.4-0.7-0.7-1.7-0.5-2.8
		c0.1-0.6,0.3-1.1,0.7-1.5c0.3-0.4,0.7-0.8,1-1c0.7-0.5,1.4-0.7,2-0.8c1.2-0.2,1.9,0,1.9,0.3C272.1,630.7,271.5,631.1,270.7,631.6z"
		/>
	<path class="st2" d="M220.1,591.1c-2.6,1.4-4.1,6-4.5,7.2c-0.3,0.8-0.7,1-1.1,1c-0.2,0-0.5,0-0.7-0.1c-3.5-1.2-11.4-0.9-9.6,3
		c1.9,4,7.8,8,9.8,9.4c1.4,0.9,4.4,2.6,5.9-0.5c2.7-4.7,3.8-12.8,3.8-15.4C223.8,593.1,222.7,589.7,220.1,591.1z M208,600.2
		c-0.3,0.2-0.6,0.4-0.8,0.6c-0.3,0.2-0.4,0.5-0.5,0.8c-0.1,0.3,0,0.7,0.1,1c0.1,0.4,0.3,0.7,0.4,1c0.3,0.6,0.4,1,0.3,1.2
		c-0.1,0.1-0.6-0.1-1.1-0.6c-0.3-0.3-0.5-0.6-0.8-1.1c-0.2-0.5-0.4-1.1-0.3-1.8c0.1-0.4,0.2-0.7,0.4-1c0.2-0.3,0.4-0.5,0.7-0.6
		c0.5-0.3,0.9-0.4,1.3-0.5c0.7-0.1,1.2,0,1.2,0.2C208.9,599.7,208.5,599.9,208,600.2z"/>
	<path class="st2" d="M222.8,794c0.2,23.1,9.8,95.1,34.1,137c14.1,27.7,40.5,12.6,52.9,4.7c18.2-12.3,70.5-48,87.5-83.9
		c16.7-35.2-54-37.9-85.1-27c-2,0.7-4,1.1-6,1c-3.7-0.1-7.5-1.2-9.9-8.6c-3.5-11.2-17.4-51.7-40.3-64.2
		C233,740.5,222.6,770.9,222.8,794z M356,827.2c0.2-1.7,4.3-3,10.9-1.9c3.3,0.6,7.3,1.8,11.4,4.5c2.1,1.3,4.1,3.2,5.9,5.6
		c1.7,2.4,3.1,5.4,3.7,8.5c1.1,6.4-0.7,12-2.8,16.1c-2.1,4.1-4.7,7.1-6.9,9.5c-4.7,4.6-8.5,6.2-9.7,5.1c-1.4-1.2,0-5,2.4-10.2
		c1.1-2.7,2.5-5.7,3.5-8.9c1.1-3.2,1.5-6.5,1.1-9.2c-0.5-2.7-2-5-4.2-7.1c-2.2-2.1-4.9-3.9-7.3-5.3C359.1,830.9,355.7,829,356,827.2
		z"/>
</g>
</svg>
