<?xml version="1.0" encoding="utf-8"?>
<!-- Generator: Adobe Illustrator 22.0.0, SVG Export Plug-In . SVG Version: 6.00 Build 0)  -->
<svg version="1.1" id="Layer_1" xmlns="http://www.w3.org/2000/svg" xmlns:xlink="http://www.w3.org/1999/xlink" x="0px" y="0px"
	 viewBox="0 0 1080 1080" style="enable-background:new 0 0 1080 1080;" xml:space="preserve">
<style type="text/css">
	.st0{fill:#CE0100;}
	.st1{fill:#FD2B7B;}
</style>
<g>
	<g>
		<g>
			<path class="st0" d="M216.3,612.4c0,2.6-6.5,3.9-19.4,3.9s-19.4-1.3-19.4-3.9v-98.6h-23.6c-2.2,0-3.8-3-4.7-9
				c-0.4-2.9-0.6-5.8-0.6-8.8s0.2-6,0.6-8.8c0.9-6,2.5-9,4.7-9h85.4c2.2,0,3.8,3,4.7,9c0.4,2.9,0.6,5.8,0.6,8.8s-0.2,6-0.6,8.8
				c-0.9,6-2.5,9-4.7,9h-23V612.4z"/>
			<path class="st0" d="M314.2,617.5c-18.4,0-33.4-6-45-18.1c-11.6-12-17.4-29.6-17.4-52.7c0-23.1,5.9-40.6,17.6-52.5
				c11.7-11.9,26.8-17.9,45.4-17.9c18.5,0,33.5,5.9,44.9,17.6c11.4,11.7,17.1,29.5,17.1,53.2c0,23.8-5.8,41.4-17.5,53
				C347.6,611.7,332.6,617.5,314.2,617.5z M314.3,514c-6.3,0-11.6,2.9-15.8,8.6c-4.3,5.8-6.4,13.8-6.4,24.3s2,18.4,6.1,24
				c4.1,5.6,9.4,8.3,16,8.3c6.6,0,12-2.8,16.1-8.4c4.1-5.6,6.2-13.7,6.2-24.2c0-10.5-2.1-18.5-6.4-24.2
				C325.9,516.8,320.6,514,314.3,514z"/>
			<path class="st0" d="M434.5,567.6c2.5,2,6.8,4.7,12.9,8.1c6.1,3.4,11.9,5.1,17.5,5.1c5.6,0,8.3-2.2,8.3-6.5c0-2-0.8-3.7-2.4-5.2
				c-1.6-1.5-4.5-3.2-8.6-5.2c-4.2-2-7.3-3.5-9.4-4.6c-2.1-1.1-4.9-2.9-8.3-5.5c-3.5-2.6-6.1-5.2-8-8c-5.2-7.5-7.9-17-7.9-28.5
				c0-11.5,4.3-21.2,12.9-29.2c8.6-7.9,19.8-11.9,33.7-11.9c9.4,0,18.1,1,26.1,3c8,2,12.1,4.7,12.4,8c0,0.4,0,0.8,0,1.2
				c0,4.6-1.4,10.4-4.3,17.4c-2.9,7-4.9,10.9-6.1,11.7c-8.4-4.3-15.9-6.5-22.5-6.5c-6.6,0-9.9,2.4-9.9,7.1c0,2.9,2.4,5.4,7.3,7.7
				c1,0.5,2.6,1.2,4.5,2.2c2,0.9,4.2,2,6.8,3.2c2.6,1.2,5.3,2.8,8.3,4.7s6.1,4.4,9.5,7.6c6.9,6.5,10.4,15.2,10.4,25.9
				c0,14-3.9,25.5-11.6,34.4c-7.7,8.9-19.6,13.5-35.8,13.7c-7.9,0-15-0.7-21.3-2c-6.4-1.3-11.9-3.9-16.6-7.7
				c-4.7-3.8-7.1-8.4-7.1-13.7c0-5.4,1-10.7,2.9-16C430.2,572.8,432.3,569.3,434.5,567.6z"/>
			<path class="st0" d="M592.8,612.4c0,2.6-6.5,3.9-19.4,3.9c-13,0-19.4-1.3-19.4-3.9v-98.6h-23.6c-2.2,0-3.8-3-4.7-9
				c-0.4-2.9-0.6-5.8-0.6-8.8s0.2-6,0.6-8.8c0.9-6,2.5-9,4.7-9h85.4c2.2,0,3.8,3,4.7,9c0.4,2.9,0.6,5.8,0.6,8.8s-0.2,6-0.6,8.8
				c-0.9,6-2.5,9-4.7,9h-23V612.4z"/>
			<path class="st0" d="M696.2,532.6c2.5,0,3.7,4.6,3.7,13.8c0,2.7-0.3,6-0.9,9.7c-0.6,3.7-1.7,5.6-3.2,5.6h-24.9v19.6H707
				c2.2,0,3.7,2.9,4.5,8.6c0.4,2.5,0.6,5.1,0.6,8c0,2.8-0.4,6.5-1.2,10.9c-0.8,4.5-2.1,6.7-3.9,6.7h-67.2c-5,0-7.5-2-7.5-6.1V483.1
				c0-3.4,1.5-5.1,4.5-5.1h70.3c2.8,0,4.1,5.8,4.1,17.4c0,11.6-1.4,17.4-4.1,17.4h-36.3v19.8H696.2z"/>
			<path class="st0" d="M821.5,615.9c-11.4,0-17.6-1.8-18.5-5.5l-6.5-25.3h-31.2l-5.7,24.4c-0.8,4.1-7.1,6.1-18.9,6.1
				c-6.3,0-10.9-0.4-13.9-1.1c-3-0.7-4.5-1.3-4.5-1.7l34.8-133c0-1,9-1.6,26.9-1.6c17.9,0,26.9,0.5,26.9,1.6l34,133.2
				c0,0.9-3,1.6-9,2.2C829.8,615.7,825,615.9,821.5,615.9z M770.2,560.1h20.6l-8.8-40.7h-1.2L770.2,560.1z"/>
			<path class="st0" d="M855.9,603.9V481.8c0-2.8,6.6-4.1,19.9-4.1c13.3,0,19.9,1.4,19.9,4.1V578H926c2.4,0,4,3.1,4.9,9.2
				c0.4,3,0.6,6.1,0.6,9.2c0,3.1-0.2,6.4-0.6,9.6c-1,6.3-2.8,9.4-5.1,9.4h-60.5c-2.9,0-5.2-1.2-6.9-3.5
				C856.7,609.6,855.9,607,855.9,603.9z"/>
		</g>
	</g>
	<g>
		<g>
			<path d="M236.3,446.8c-0.6,0.1-1.2,0.1-1.7,0.2c-0.7,0.1-1.4,0.3-2.1,0.4c-1.7,0.5-3.6,0.7-5.6,0.7s-3.8-0.2-5.6-0.7
				c-0.7-0.1-1.4-0.3-2.1-0.4c-2.6-0.4-5.1-1.1-7.4-2c-0.6-0.2-1.2-0.4-1.9-0.7c-1.9-0.5-3.6-1.3-5.2-2.4c-1.7-1.3-3.1-2.8-4.3-4.7
				c-0.3-0.4-0.5-0.8-0.8-1.1c-1.5-1.9-2.8-4.1-3.8-6.7c-1-2.2-1.8-4.7-2.3-7.3c-0.3-2.4-0.5-5.1-0.5-7.8v-1.8c0-1.9,0-2.9-0.1-5.8
				c0-1.9-0.1-2.9-0.2-3.7c0-0.9-0.2-1.9-0.2-3.9c0-1.9,0.1-2.9,0.2-3.8c0.1-0.9,0.2-1.8,0.2-3.8c0-1.9,0.1-2.9,0.1-3.7
				c0.1-0.9,0.2-1.9,0.2-3.8V380v-3.8c0-1.9-0.1-2.9-0.1-3.8c0-0.8-0.1-1.8-0.1-3.7s-0.1-2.9-0.1-3.8c-0.1-0.9-0.2-1.9-0.2-3.8
				s0.1-2.9,0.1-3.8v-3.7c0-2,0-2.9-0.1-3.8v-3.8c0-1.9,0.1-2.9,0.2-3.8c0.1-0.9,0.2-1.8,0.2-3.8c0-2.7,0.2-5.3,0.7-7.6
				c0.1-0.6,0.2-1.2,0.3-1.7c0.3-2.1,0.7-4,1.4-5.9c1-2.4,2.3-4.7,3.9-6.7c0.1-0.1,0.1-0.1,0.1-0.2c1.5-2.1,3.2-3.9,5.2-5.5
				c1.7-1.1,3.5-1.9,5.5-2.6c0.5-0.1,1.1-0.3,1.6-0.6c2.3-0.8,4.9-1.4,7.5-1.7c0.9-0.2,1.7-0.4,2.6-0.6c1.6-0.5,3.3-0.8,5.1-0.8
				c2.5,0,5.1,0.3,7.4,0.8h0.4c2.6,0.5,5.1,1.3,7.4,2.2c2.5,0.9,4.8,2.1,6.9,3.6c2.1,1.5,3.9,3.2,5.7,5.3c1.5,2,2.8,4.2,3.8,6.8
				c0.9,2.3,1.5,4.8,1.9,7.5c0.4,2.4,0.6,5,0.6,7.7c0,2,0,3-0.1,3.8c-0.1,0.9-0.1,1.9-0.1,3.8v3.8v3.8v3.8c-0.1,0.8-0.1,1.8-0.1,3.8
				v3.7v3.8v3.8v3.8v3.7v3.8c0,1.9,0,2.9,0.1,3.8c0,0.9,0.1,1.9,0.1,3.8s-0.1,2.9-0.1,3.8c-0.1,0.8-0.1,1.8-0.1,3.7
				c0,2,0.1,2.9,0.2,3.8c0.1,0.9,0.3,1.9,0.3,3.8s0,2.9,0.1,3.8c0,0.8,0.1,1.8,0.1,3.7s-0.3,3.8-0.8,5.6c-0.1,0.7-0.3,1.4-0.4,2.1
				c-0.4,2.7-1,5.2-1.9,7.5c-1.1,2.3-2.4,4.4-4,6.4l-0.1,0.1c-1.5,2-3.3,3.8-5.5,5.4c-0.4,0.3-0.8,0.5-1.1,0.8
				c-1.6,1.3-3.4,2.4-5.4,3.3C240.3,446.1,238.4,446.5,236.3,446.8z M226.9,431.6c3,0,5.8-0.6,8.2-1.8c2.5-1.3,4.3-3.3,5.7-6
				c1.3-2.3,1.9-5,1.9-8.1c0-1.9-0.1-3-0.2-3.9c-0.1-0.9-0.3-1.9-0.3-3.9s0-3-0.1-3.9c0-0.9-0.1-2-0.1-3.9c0-2,0.2-3.1,0.3-4
				c0.1-0.9,0.3-1.9,0.3-3.9c0-2,0-3-0.1-3.9c0-0.9-0.1-1.9-0.1-3.9c0-2,0.1-3,0.2-3.9c0.1-0.9,0.2-2,0.2-3.9v-4v-3.9
				c0-2-0.2-3-0.3-3.9c-0.1-0.9-0.3-1.9-0.3-3.9c0-2,0.2-3,0.2-3.9c0.1-0.9,0.3-2,0.3-3.9c0-2-0.2-3.1-0.3-4
				c-0.1-0.9-0.2-1.9-0.2-3.9c0-1.9,0.1-3,0.2-3.9c0.1-0.9,0.3-1.9,0.3-3.9c0-3-0.6-5.8-1.8-8.1c-1.4-2.3-3.4-4.1-6.2-5.4
				c-2.1-1.2-4.7-2.3-7.8-2.3c-3,0-5.8,0.6-8.1,1.8c-2.5,1.3-4.3,3.3-5.7,6c-1.2,2.3-1.8,5-1.8,8c0,2,0.1,3.1,0.2,4
				c0.1,0.9,0.3,1.9,0.3,3.8c0,2,0,3-0.1,4.1c-0.1,0.9-0.1,1.9-0.1,3.8c0,2-0.1,3-0.1,3.9c-0.1,0.9-0.1,2-0.1,3.9v3.9
				c0.1,0.9,0.1,2,0.1,4c0,1.9,0,3,0.1,3.9c0,0.9,0.1,1.9,0.1,3.9c0,2-0.1,3-0.1,3.9v3.9c0,2-0.1,3-0.1,3.9c-0.1,0.9-0.1,2-0.1,4
				v3.9v3.9c0,2-0.1,3-0.1,3.9c-0.1,0.9-0.2,1.9-0.2,3.9s0,3,0.1,3.9v3.9c0,3.1,0.6,5.9,1.7,8.2c1.3,2.5,3.3,4.5,5.9,5.9
				C221.1,431,223.8,431.6,226.9,431.6z"/>
			<path d="M343.2,360.1c0,1.1,0.1,2,0.1,4c0,2-0.2,3.1-0.3,4c-0.1,0.9-0.3,2-0.3,4c0,2,0.1,3.1,0.1,4c0.1,0.9,0.1,2,0.1,4
				c0,1.9-0.1,3-0.2,3.9c0,1.1-0.1,2-0.1,4v4v4c0,2,0.1,2.9,0.2,4c0.3,0.9,0.3,1.9,0.3,3.9c0,2-0.1,3.1-0.2,4c-0.1,0.9-0.2,2-0.2,4
				c0,2,0.1,3.1,0.2,4c0.1,0.9,0.3,2,0.3,4c0,2-0.2,3-0.3,3.9c-0.1,1.1-0.2,2-0.2,4c0,2,0,3.1-0.1,4v4c0,2,0.1,3.1,0.4,4
				c0.1,0.9,0.3,2,0.3,3.9c0,1.9-1.9,3.1-3.6,3.1h-3.3h-3.2c-1.6,0-2.5,0-3.3,0.1c-0.7,0-1.6,0.1-3.2,0.1c-1.9,0-3.6-1.4-4.1-3.1
				c-0.2-0.7-0.4-1.3-0.6-1.8c-0.6-2.1-0.8-2.7-1.8-5.9c-0.5-1.7-1-2.7-1.3-3.6c-0.4-0.8-0.9-1.8-1.4-3.8c-0.5-1.7-0.8-2.9-0.9-3.8
				c-0.1-0.9-0.4-2-0.9-3.9c-0.5-1.7-0.8-2.7-1.1-3.5c-0.3-0.9-0.7-2-1.2-4c-0.7-1.7-0.9-2.8-1.3-3.7c-0.3-0.9-0.7-1.8-1.2-3.7
				c-0.7-1.9-1-2.9-1.4-3.7c-0.4-0.9-0.8-1.8-1.3-3.7s-0.9-2.9-1.2-3.8c-0.3-0.8-0.7-1.8-1.2-3.7s-0.7-2.9-1-3.8
				c-0.1-0.9-0.4-2-0.9-3.9c-0.5-1.7-1-2.8-1.4-3.6c-0.4-0.9-0.9-1.8-1.4-3.7c-0.5-1.9-1-2.9-1.1-3.8c-0.3-0.9-0.5-1.9-1.2-3.8
				c-0.5-1.7-0.7-2.9-1-3.8c-0.1-0.9-0.3-1.9-1-3.8c-0.5-1.9-0.7-2.9-1-3.8c-0.3-0.9-0.5-1.9-1-3.8c-0.7-1.7-1-2.8-1.3-3.7
				c-0.4-0.8-0.7-1.8-1.4-3.7c-0.5-1.9-0.9-2.8-1.3-3.7c-0.3-0.8-0.8-1.8-1.3-3.7v-0.1c-0.4-1.6-0.6-1.6-0.5,0.1v0.1
				c0,2-0.1,3.1-0.2,4c-0.1,0.9-0.3,2-0.3,4.1c0,2,0.2,3.1,0.3,4c0.1,0.9,0.2,2,0.2,4c0,2-0.2,3-0.3,4.1c-0.1,0.9-0.3,2-0.3,4
				c0,2,0.1,3.1,0.1,4c0.1,1.1,0.1,2.1,0.1,4.1c0,2,0.1,3.1,0.1,4v4c0,2.1,0.1,3,0.2,4.1c0.1,0.9,0.2,2,0.2,4c0,2-0.2,3.1-0.3,4
				c-0.3,1.1-0.4,2.1-0.4,4.1v4v4v4.1v4c0,2,0.2,3.1,0.3,4c0.1,1.1,0.2,2.1,0.2,4.1c0,2,0,3.1-0.1,4c0,0.9-0.1,2-0.1,4
				c0,2,0.1,3,0.1,4.1v4c0,2,0.1,3.1,0.2,4c0,0.9,0.1,2,0.1,4c0,1.9-1.7,3.4-3.6,3.4c-2.4,0-3.7-0.1-5-0.2c-1.2-0.1-2.4-0.2-5-0.2
				c-1.7,0-3.4-1.1-3.4-3v-3.9v-4c0-2,0.1-3.1,0.1-4c0.1-0.9,0.2-2,0.2-4v-4v-4v-4c0-0.9-0.1-1.9-0.1-3.9c0-2-0.1-3.1-0.1-4
				c-0.1-0.9-0.2-2-0.2-4c0-2,0.2-3.1,0.3-4c0.1-0.9,0.3-2,0.3-4c0-2-0.1-2.9-0.2-4c-0.1-0.9-0.2-1.9-0.2-3.9c0-2,0-3.1-0.1-4v-4
				c0-2,0.1-3.1,0.2-4c0.1-0.9,0.2-2,0.2-4v-3.9v-4v-4c-0.1-0.9-0.1-2-0.1-4c0-2-0.1-2.9-0.1-4c-0.1-0.9-0.2-1.9-0.2-3.9v-4v-4v-4
				v-4c0-2,0.1-3,0.2-3.9c0.1-1.1,0.2-2,0.2-4v-4c0-0.9-0.1-2-0.1-4c0-2-0.1-3.1-0.2-4c-0.1-0.9-0.2-2-0.2-4c0-1.7,1.8-3.2,3.5-3.2
				h4.5h4.5h4.5h4.4c1.9,0,3.7,1.2,4.4,3.1c0.5,1.9,0.8,3,1.1,3.9c0.3,0.9,0.5,1.9,1.2,3.8c0.5,1.9,0.8,3,1.1,3.9
				c0.1,0.9,0.5,2,1,3.9c0.7,1.9,1,2.9,1.4,3.8c0.4,0.9,0.8,1.9,1.3,3.8c0.7,2,0.9,3,1,3.9c0.3,1.1,0.4,2,1.1,4c0.5,1.9,0.7,3,1,3.9
				c0.1,0.9,0.5,1.9,1,3.9c0.7,2.1,0.9,3.1,1.3,4.2c0.2,0.7,0.5,1.9,1,3.5c0.7,1.9,0.9,2.9,1.3,3.8c0.3,0.9,0.7,2,1.2,3.9
				c0.7,1.9,1,2.9,1.3,3.8c0.4,0.9,0.8,1.9,1.3,3.8c0.7,1.9,1,3,1.1,3.9c0.3,0.9,0.5,2,1.2,3.9c0.5,1.9,0.9,2.9,1.2,3.8
				c0.3,0.9,0.7,1.9,1.2,3.8c0.7,2,0.9,2.9,1,4c0.1,0.9,0.5,2,1,3.9c0.5,1.9,0.8,3,1.1,3.9c0.3,0.9,0.6,1.9,1.1,3.8
				c0.5,1.7,1.2,1.5,1.2-0.2c0-2,0-3,0.1-3.9v-3.8c0-2-0.1-3-0.2-3.9c-0.1-0.9-0.2-1.9-0.2-3.8c0-2,0.2-3,0.3-3.9
				c0.1-0.9,0.3-1.9,0.3-3.9c0-1.9,0.1-2.9,0.1-3.8c0-0.9,0.1-1.9,0.1-3.9c0-1.9-0.1-2.9-0.4-3.8c-0.1-0.9-0.4-1.9-0.4-3.9
				c0-1.9,0.1-2.9,0.2-3.8c0-0.9,0.1-1.9,0.1-3.9c0-1.9,0-2.9,0.1-3.8c0-0.9,0.1-1.9,0.1-3.9c0-1.9-0.1-2.9-0.1-3.8v-3.9
				c0-1.9-0.1-2.9-0.1-3.8c-0.1-0.9-0.1-1.9-0.1-3.9v-3.8v-3.9c0-1.9,0.1-2.9,0.2-3.8c0-0.9,0.1-1.9,0.1-3.9v-3.8
				c-0.1-0.9-0.1-1.9-0.1-3.9c0-1.7,1.4-2.9,3.3-2.9c2.4,0,3.6-0.1,4.9-0.1h4.9c1.8,0,2.8,1,2.9,3v4v4v4v4v4v4c0,2,0,2.9,0.1,4
				c0,0.9,0.1,1.9,0.1,3.9c0,2-0.1,3.1-0.1,4c-0.1,0.9-0.1,2-0.1,4s0.2,3.1,0.2,4c0.1,0.9,0.3,2,0.3,4S343.2,359.2,343.2,360.1z"/>
			<path d="M409.3,447.9c-2.4,0-3.5-0.1-4.7-0.1c-1.1-0.1-2.3-0.2-4.6-0.2c-1.8,0-2.8-1-3-3v-3.9v-4c0-2,0.1-3.1,0.1-4v-4v-4v-4v-4
				v-3.9c0-2,0-3.1-0.1-4c0-0.9-0.1-2-0.1-4c0-2,0.1-3.1,0.1-4c0-0.9,0.1-2,0.1-4c0-2-0.2-2.9-0.3-4c-0.1-0.9-0.2-1.9-0.2-3.9
				c0-2-0.1-3.1-0.1-4c-0.1-0.9-0.1-2-0.1-4c0-2,0.2-3.1,0.3-4c0.1-0.9,0.3-2,0.3-4c0-2-0.1-3-0.1-3.9c-0.1-1.1-0.1-2-0.1-4
				c0-2,0.1-3.1,0.1-4c0.1-0.9,0.2-2,0.2-4v-4V348c0-2-0.2-3.1-0.3-4c-0.1-0.9-0.2-2-0.2-4c0-2,0.1-3.1,0.2-4c0.1-0.9,0.2-2,0.2-4
				s-0.1-3-0.2-3.9c-0.1-1.1-0.3-2-0.3-4c0-2,0.2-3.1,0.3-4c0.1-0.9,0.2-2,0.2-4v-4v-4c0-1.7,1.1-3.6,3-3.6c1.7,0,2.6,0.2,3.5,0.3
				c0.8,0.1,1.7,0.3,3.4,0.3h3.5h3.4c1.7,0,2.6,0,3.5-0.1c0.8,0,1.7-0.1,3.4-0.1c1.9,0,3.3,1.5,3.7,3.2c0.2,1.5,0.4,2.7,0.5,3.4
				c0.1,1.2,0.3,2.2,0.7,4.5c0.4,2.4,0.5,3.5,0.8,4.9c0.1,0.7,0.2,1.7,0.5,3.1c0.3,2,0.5,2.9,0.6,4c0.1,0.9,0.3,1.9,0.6,3.9
				c0.3,1.9,0.5,3,0.8,3.9c0.3,0.9,0.5,2,0.9,3.9c0.3,1.9,0.5,3,0.6,3.9c0.1,1.1,0.2,2,0.6,4c0.3,1.9,0.3,2.9,0.4,4
				c0,0.9,0,2,0.4,3.9c0.3,2,0.5,3.1,0.8,4c0.3,0.8,0.5,1.9,0.8,3.9c0.3,1.9,0.5,3,0.6,3.9c0.1,0.9,0.2,2,0.5,4
				c0.4,1.9,0.5,3,0.8,3.9c0.1,0.9,0.4,2,0.7,3.9c0.3,1.9,0.3,3.1,0.4,4c0,0.9,0,2,0.3,3.9c0.4,2,0.5,3.1,0.8,4
				c0.3,0.9,0.4,1.9,0.8,3.9c0.3,1.9,0.4,3,0.5,3.9c0.1,0.9,0.2,2,0.6,4c0.3,1.9,0.6,3,0.7,3.9c0.3,0.9,0.5,2,0.8,3.9
				c0.3,2,0.4,2.9,0.5,4c0,0.9,0.1,2,0.5,3.9c0.3,2,0.5,3,0.8,3.9c0.1,0.9,0.4,2,0.7,4c0.3,1.7,0.5,1.7,0.7-0.1
				c0.3-1.9,0.4-3,0.5-3.9c0.1-0.9,0.2-2,0.5-4c0.3-1.9,0.5-3,0.8-3.9c0.3-0.9,0.5-2,0.8-3.9c0.3-2,0.4-2.9,0.5-4
				c0.1-0.9,0.2-2,0.5-3.9c0.3-2,0.4-3.1,0.5-4c0-0.9,0.1-2,0.4-3.9c0.3-2,0.4-3.1,0.7-4c0.1-0.9,0.3-1.9,0.6-3.9
				c0.3-1.9,0.5-3,0.8-3.9c0.1-0.9,0.4-2,0.7-3.9c0.3-2,0.4-3.1,0.4-4c0.1-0.9,0.1-2,0.4-3.9c0.4-2,0.4-3.1,0.7-4
				c0.1-0.9,0.3-2,0.6-3.9s0.4-3,0.7-3.9c0.1-0.9,0.3-2,0.7-4c0.3-1.9,0.4-3,0.5-3.9c0.1-0.9,0.3-2,0.6-3.9c0.3-2,0.4-3,0.7-3.9
				c0.1-1.1,0.3-2,0.6-4c0.3-1.9,0.5-2.9,0.6-3.8c0.1-0.9,0.3-2.1,0.6-4c0.3-2,0.4-3.1,0.5-4c0.1-0.9,0.2-2,0.5-3.9
				c0.3-2,0.6-3.1,0.7-4c0.3-0.9,0.5-1.9,0.8-3.9c0.3-1.9,0.3-2.9,0.2-4c0-0.9,0-2,0.3-3.9c0.4-1.9,2.4-3.2,4.1-3.2
				c1.7,0,2.7-0.1,3.5-0.2c0.8,0,1.7-0.2,3.4-0.2c1.7,0,2.7,0.2,3.5,0.3c0.8,0.3,1.7,0.3,3.4,0.3c1.7,0,2.7-0.1,3.5-0.2
				c0.8-0.1,1.7-0.2,3.4-0.2c1.9,0,3.7,1.7,3.7,3.4c0,2-0.2,3.1-0.3,4c0,0.9-0.2,2-0.2,4c0,2,0.1,3.1,0.2,4c0.1,0.9,0.2,2,0.2,4
				c0,2-0.2,3.1-0.3,4c-0.1,0.9-0.3,2-0.3,4v4v3.9c0,2,0.1,3.1,0.1,4c0.1,0.9,0.1,2,0.1,4s0.1,3.1,0.2,4c0.1,0.9,0.2,2,0.2,4v3.9v4
				c0,2-0.1,3.1-0.2,4c-0.1,0.9-0.2,2-0.2,4c0,2,0.1,3.1,0.2,4c0.1,0.9,0.3,2,0.3,4c0,1.9,0,3-0.1,3.9v4c0,2-0.1,3.1-0.2,4
				c-0.1,0.9-0.2,2-0.2,4c0,2,0,2.9-0.1,4c-0.1,0.9-0.1,1.9-0.1,3.9c0,2,0.1,3.1,0.1,4c0.1,0.9,0.2,2,0.2,4c0,2,0.1,3.1,0.1,4
				c0.1,0.9,0.2,2,0.2,4v3.9c-0.1,1.1-0.1,2-0.1,4c0,2-0.1,3.1-0.2,4c-0.1,0.9-0.2,2-0.2,4c0,2,0.1,3.1,0.2,4c0.1,0.9,0.3,2,0.3,3.9
				c0,1.9-1.7,2.9-3.6,2.9c-2.7,0-4.1,0.1-5.4,0.2c-1.3,0-2.7,0.1-5.5,0.1c-1.9,0-3.2-1.3-3.2-3.2c0-1.9-0.1-3-0.2-3.9
				c-0.1-0.9-0.2-2-0.2-4c0-1.9,0.2-3,0.3-3.9c0.3-0.9,0.4-2,0.4-4v-3.9v-3.9v-4v-3.9c0-2-0.2-3.1-0.3-4c-0.1-0.9-0.2-1.9-0.2-3.9
				c0-2,0-3.1,0.1-4c0-0.9,0.1-1.9,0.1-3.9c0-2-0.1-2.9-0.1-4v-3.9c0-2-0.1-3-0.2-3.9c0-1.1-0.1-2-0.1-4c0-2,0-3,0.1-3.9
				c0-0.9,0.1-2,0.1-4c0-2,0.1-3,0.2-3.9c0.1-0.9,0.2-2,0.2-4c0-1.9-0.1-3-0.2-3.9c-0.1-0.9-0.2-2-0.2-3.9c0-2,0-3.1-0.1-4V349
				c0-1.9-0.5-3.5-1.3-3.6c-0.8,0-1.8,1.4-2.2,3.3c-0.3,2-0.4,3.1-0.5,4c-0.1,0.9-0.3,2-0.6,4c-0.3,1.9-0.3,3-0.4,3.9
				c0,1.1-0.1,2.1-0.4,4c-0.3,2-0.6,3.1-0.9,3.9c-0.3,0.9-0.6,2-0.9,4c-0.3,1.9-0.3,3-0.4,3.9c0,1.1,0,2.1-0.3,4
				c-0.4,2-0.5,3.1-0.6,4c-0.1,0.9-0.2,2-0.5,4c-0.4,1.9-0.5,3-0.8,3.9c-0.3,0.9-0.5,2-0.8,3.9c-0.3,1.9-0.5,2.9-0.6,3.8
				c-0.1,0.9-0.2,2.1-0.6,4.1c-0.3,2-0.4,3.1-0.5,4c-0.1,0.9-0.3,2-0.6,3.9c-0.3,2-0.4,3.1-0.4,4c-0.1,0.9-0.1,2-0.4,4
				c-0.4,2-0.5,3.1-0.6,4c-0.1,0.9-0.3,2-0.6,3.9c-0.3,2-0.5,2.9-0.6,4c-0.1,0.9-0.3,2-0.6,3.9c-0.3,2-0.5,3-0.8,3.9
				c-0.3,0.9-0.5,2-0.8,3.9c-0.3,1.9-1.6,3.2-3.5,3.2c-2,0-2.9,0.1-4,0.2c-0.9,0-1.9,0.1-3.9,0.1c-2,0-3.1,0-4-0.1
				c-0.9-0.1-2-0.1-4-0.1c-1.7,0-3.4-1.5-3.7-3.2c-0.4-1.9-0.6-3-0.7-3.9c-0.1-0.9-0.3-2-0.6-3.9c-0.3-2-0.6-3-0.7-3.9
				c-0.3-0.9-0.4-2-0.8-3.9c-0.3-1.9-0.5-3-0.6-3.9c-0.1-0.9-0.2-2-0.6-3.9c-0.3-2-0.4-3-0.5-3.9c-0.1-0.9-0.2-2-0.6-4
				c-0.3-1.9-0.5-2.9-0.8-3.8c-0.3-0.9-0.5-2-0.8-3.9s-0.4-3-0.5-3.9c0-0.9-0.1-2-0.4-3.9c-0.4-2-0.5-3.1-0.5-4
				c-0.1-0.9-0.2-2-0.5-3.9c-0.2-1.3-0.4-2.3-0.5-3c-0.3-1.3-0.4-2.4-0.8-4.9c-0.3-1.9-0.4-3-0.7-3.9c-0.1-0.9-0.4-1.9-0.7-3.9
				c-0.3-1.9-0.5-2.9-0.8-3.8c-0.3-0.9-0.4-2-0.8-3.9c-0.3-1.9-0.4-3-0.5-3.9c-0.1-0.9-0.3-2-0.6-3.9s-0.6-3-0.7-3.9
				c-0.3-0.9-0.4-1.9-0.7-3.9c-0.4-1.9-1.1-3.4-2-3.4c-0.8,0.1-1.8,1.8-1.8,3.7c0,1.9,0.1,3,0.2,3.9c0.1,0.9,0.3,1.9,0.3,3.9
				c0,1.9-0.1,2.9-0.1,3.8c0,0.9-0.1,2-0.1,3.9c0,2,0.2,3,0.2,3.9c0.1,0.9,0.2,2,0.2,3.9c0,2-0.1,3-0.2,3.9
				c-0.3,0.9-0.3,1.9-0.3,3.9c0,1.9-0.1,3-0.1,3.9c-0.1,0.9-0.2,1.9-0.2,3.9c0,1.9,0.3,2.9,0.4,3.8c0.3,0.9,0.4,2,0.4,3.9
				c0,2-0.1,3-0.1,3.9c-0.1,0.9-0.1,1.9-0.1,3.9c0,2-0.1,3-0.1,3.9c-0.1,0.9-0.1,1.9-0.1,3.9v3.9c0.1,0.9,0.1,1.9,0.1,3.8
				c0,2,0,3,0.1,3.9c0,0.9,0.1,2,0.1,3.9c0,2,0,3-0.1,3.9v3.9c0,1.9,0,3-0.1,3.9c0,0.9-0.1,1.9-0.1,3.8
				C412.6,446.5,411,447.9,409.3,447.9z"/>
			<path d="M576.6,307.8c-0.5,1.9-0.8,2.9-1.2,3.8c-0.3,0.8-0.6,1.9-1.1,3.8c-0.5,1.7-0.9,2.9-1.2,3.7c-0.3,0.9-0.5,1.9-1.2,3.8
				c-0.5,1.9-0.8,2.9-1.1,3.8c-0.3,0.9-0.5,1.9-1.2,3.8c-0.5,1.9-0.8,2.9-1.1,3.8c-0.3,0.9-0.6,1.9-1.1,3.8
				c-0.7,1.9-0.8,2.9-1.1,3.8c-0.3,0.9-0.5,2.1-1,3.8c-0.7,1.9-0.9,2.9-1.3,3.8c-0.3,0.9-0.7,1.9-1.2,3.8c-0.5,1.9-0.8,2.8-0.9,3.9
				c-0.1,0.9-0.4,1.9-0.9,3.8c-0.5,1.9-0.9,2.9-1,3.8c-0.3,0.9-0.6,2-1.1,3.9c-0.5,1.9-1,2.8-1.4,3.7c-0.4,0.8-0.9,1.8-1.4,3.7
				c-0.5,1.9-0.8,2.9-1.1,3.8c-0.1,0.9-0.5,1.9-1,3.8c-0.5,1.9-0.9,2.9-1.3,3.8c-0.4,0.8-0.8,1.8-1.3,3.7c-0.5,1.9-0.8,2.9-1.1,3.7
				c-0.3,0.9-0.7,2-1.2,3.9c-0.4,1.6-0.4,3.8-0.4,5.8v0.8c0,1.9-0.1,2.9-0.2,3.8c-0.1,0.9-0.3,1.9-0.3,3.8s0.2,2.9,0.3,3.8
				c0.1,0.9,0.3,1.9,0.3,3.8c0,2-0.2,2.9-0.3,3.8c-0.1,0.9-0.3,1.9-0.3,3.8v3.8v3.8c0,1.9,0.2,2.9,0.3,3.8c0.3,0.9,0.4,1.9,0.4,3.8
				c0,1.9-1.9,3-3.6,3h-3h-3c-1.5,0-2.3,0.1-3,0.1c-0.8,0.1-1.5,0.1-3,0.1c-1.9,0-3.1-1.3-3.1-3.2c0-2-0.2-3-0.2-3.9
				c-0.1-0.9-0.2-1.8-0.2-3.7s0-3,0.3-3.9c0.1-0.8,0.3-1.8,0.3-3.7s-0.1-2.9-0.2-3.8c-0.1-0.9-0.3-1.9-0.3-3.8v-3.8V414
				c0-1.9,0.1-2.9,0.2-3.8c0-0.9,0.2-1.9,0.2-3.8c0-1.7-0.5-4.7-1-6.6c-0.5-1.9-0.8-2.9-1.1-3.8c-0.3-0.8-0.7-1.9-1.2-3.8
				c-0.5-1.9-0.9-2.8-1.2-3.7c-0.4-0.9-0.8-1.9-1.3-3.8c-0.5-1.9-0.8-2.9-1.1-3.8c-0.4-0.8-0.7-2-1.2-3.7c-0.5-1.9-0.8-3-1.1-3.8
				c-0.3-0.9-0.6-2.1-1.1-3.8c-0.5-1.9-0.6-3-0.9-3.9c-0.1-0.9-0.4-2.1-0.9-3.8c-0.5-1.9-0.8-2.9-1.1-3.8c-0.4-0.9-0.7-1.9-1.2-3.8
				c-0.5-1.9-0.9-2.9-1.3-3.7c-0.4-0.9-0.8-1.9-1.3-3.8c-0.5-1.9-0.7-2.9-1-3.8c-0.1-0.9-0.5-2.1-1-3.8c-0.5-1.9-0.8-3-1.1-3.9
				c-0.3-0.8-0.6-1.8-1.1-3.7c-0.5-1.9-0.8-2.9-1.1-3.8c-0.3-0.9-0.6-1.9-1.1-3.8c-0.5-1.9-0.9-2.9-1.2-3.8
				c-0.4-0.8-0.7-1.8-1.2-3.7c-0.5-1.9-0.8-2.9-1.1-3.8c-0.3-0.9-0.6-1.9-1.1-3.8c-0.5-1.9,0.7-3.1,2.4-3.1c1.6,0,2.4-0.1,3.2-0.2
				c0.8,0,1.6-0.2,3.2-0.2c1.6,0,2.4,0.1,3.2,0.2c0.7,0.1,1.6,0.2,3.2,0.2c1.7,0,3.3,1.3,3.7,3.2c0.5,1.9,0.7,2.9,1,3.8
				c0.3,0.8,0.5,2,1,3.7c0.5,1.9,0.8,2.9,1.1,3.8c0.3,0.9,0.6,1.9,1,3.8c0.5,1.9,0.8,2.9,1.2,3.7c0.3,0.9,0.6,1.9,1.1,3.8
				c0.5,1.9,0.8,2.9,0.9,3.8c0.3,0.9,0.5,1.9,1,3.8c0.4,1.7,0.7,2.9,1,3.7c0.4,0.9,0.6,1.9,1.1,3.8c0.5,1.9,0.7,2.9,0.8,3.8
				c0.1,0.9,0.3,2.1,0.8,3.8c0.5,1.9,0.8,3,0.9,3.8c0.3,0.9,0.5,1.9,1,3.8c0.4,1.9,0.8,2.9,1.2,3.8c0.4,0.8,0.7,1.8,1.2,3.7
				c0.5,1.9,0.8,2.9,0.9,3.8c0.3,0.9,0.5,1.9,1,3.8c0.4,1.7,0.8,1.6,1.3-0.1c0.5-1.9,0.9-2.9,1.3-3.7c0.4-0.9,0.8-1.9,1.3-3.8
				c0.5-1.7,0.8-2.8,1.1-3.7c0.4-0.9,0.7-1.9,1.2-3.8c0.5-1.9,0.6-2.8,0.6-3.9c0.1-0.9,0.2-2.1,0.7-3.8c0.5-1.9,0.8-2.9,1.1-3.8
				c0.4-0.9,0.7-2,1.2-3.7c0.5-1.9,0.8-2.9,1.1-3.8c0.3-0.9,0.6-1.9,1.1-3.8c0.5-1.7,0.7-2.9,1-3.8c0.3-0.8,0.5-2,1-3.7
				c0.5-1.9,0.8-3,0.9-3.9c0.3-0.8,0.5-1.9,1-3.8c0.4-1.7,0.7-2.9,1-3.7c0.3-0.9,0.6-1.9,1.1-3.8c0.4-1.9,0.8-2.9,1.1-3.8
				c0.3-0.8,0.7-1.8,1.2-3.7c0.5-1.7,2.3-3.2,4-3.2c2.8,0,4.2,0.1,5.5,0.2c1.3,0,2.7,0.1,5.5,0.1C576.3,305,577,305.9,576.6,307.8z"
				/>
			<path d="M709.7,447.8c-2.4,0-3.7,0.1-4.9,0.1c-1.2,0.1-2.5,0.1-5,0.1c-1.9,0-3.3-1.3-3.6-3.2c-0.3-2.1-0.4-3.3-0.7-4.2
				c-0.1-0.9-0.3-2-0.6-4c-0.3-2-0.3-3.1-0.3-4.2c0-0.9,0-2.1-0.3-4.1c-0.3-2-0.6-3.1-0.7-4c-0.3-1.1-0.4-2.1-0.7-4.1
				c-0.3-2-0.4-3.2-0.5-4.1c-0.1-1.1-0.2-2.1-0.5-4.1c-0.3-2-0.5-3.2-0.6-4.1c-0.1-1.1-0.3-2.1-0.6-4.1c-0.3-2-0.3-3.1-0.3-4.2
				c0-0.9,0-2.1-0.3-4.1c-0.3-2-0.5-3.2-0.6-4.1c-0.3-0.9-0.4-2.1-0.7-4.1c-0.3-2-0.4-3-0.4-4.1c-0.1-0.9-0.2-2.1-0.5-4.1
				c-0.3-2-0.4-3.2-0.7-4.1c-0.1-0.9-0.3-2.1-0.6-4.1c-0.3-1.9-1-3.4-1.8-3.4c-0.8,0-1.4,1.5-1.7,3.4c-0.3,2-0.4,3.2-0.5,4.1
				c-0.1,1.1-0.2,2.1-0.5,4.2c-0.3,2-0.4,3-0.4,4.1c-0.1,0.9-0.3,2.1-0.4,4.1c-0.3,2-0.5,3.2-0.8,4.1c-0.3,0.9-0.4,2.1-0.7,4.1
				c-0.3,2-0.4,3-0.5,4.1c0,0.9-0.1,2.1-0.4,4.1c-0.3,2-0.4,3.2-0.4,4.1c-0.1,1.1-0.1,2.1-0.4,4.1c-0.3,2-0.5,3.2-0.6,4.1
				c-0.1,1.1-0.3,2.1-0.6,4.1c-0.3,2-0.4,3.2-0.7,4.1c-0.1,0.9-0.4,2.1-0.7,4.1c-0.3,2-0.3,3.2-0.3,4.1c-0.1,1.1-0.1,2.1-0.4,4.2
				c-0.3,2-0.4,3-0.5,4.1c-0.3,0.9-0.3,2-0.6,4.1c-0.3,1.7-2,3.2-3.9,3.2h-3.4h-3.4c-1.7,0-2.6,0-3.4-0.1h-3.4h-3.4
				c-0.8,0-1.7-0.1-3.4-0.1c-1.9,0-3.4-1.2-3.7-3.1c-0.1-1.9-0.2-3.1-0.3-4c0-0.9-0.1-2-0.2-4c-0.3-1.9-0.5-3-0.8-3.9
				c-0.3-0.9-0.4-2-0.7-4c-0.3-2-0.2-3.1-0.2-4c0-0.9-0.1-2-0.2-4c-0.3-2-0.5-3.1-0.6-4c-0.3-0.9-0.5-2-0.6-3.9
				c-0.3-2-0.2-3.1-0.2-4c0.1-1.1,0-2.1-0.1-4c-0.3-2-0.5-3.1-0.6-4c-0.3-0.9-0.4-2-0.7-4c-0.1-1.9-0.4-3-0.5-3.9
				c-0.1-0.9-0.2-2-0.5-4c-0.3-2-0.2-3.1-0.2-4c0-0.9-0.1-2.1-0.2-4c-0.3-2-0.5-3.1-0.6-4c-0.3-0.9-0.4-2-0.7-3.9
				c-0.1-2-0.1-3.1-0.1-4c0-1.1,0-2.1-0.1-4c-0.3-2-0.4-3.1-0.5-4c0-0.9-0.1-2-0.4-4c-0.1-2-0.4-3.1-0.5-4c-0.1-0.9-0.2-2-0.5-3.9
				c-0.3-2-0.5-3.1-0.6-4c-0.1-0.9-0.3-2-0.6-4c-0.3-1.9-0.4-3-0.5-3.9c0-1.1-0.3-2.1-0.4-4c-0.3-2-0.2-3.1-0.2-4
				c0-0.9,0.1-2.1-0.2-4c-0.1-2-0.4-3.1-0.7-4c-0.1-0.9-0.5-2-0.6-3.9c-0.3-2-0.4-3.1-0.4-4c-0.1-0.9-0.1-2-0.4-4
				c-0.1-1.9,1.3-3.2,3.2-3.2c2.8,0,4.4,0.1,5.8,0.1c1.3,0.1,2.8,0.2,5.8,0.2c1.7,0,3.2,1,3.5,2.9c0.3,1.9,0.3,3,0.6,3.9
				c0.1,0.9,0.4,1.9,0.5,3.9c0.3,1.9,0.3,3,0.4,3.9c0,0.9,0.2,2,0.3,3.9c0.3,1.9,0.2,3,0.2,3.9c0,0.9,0.1,2,0.2,4
				c0.1,1.9,0.5,2.9,0.6,3.8c0.3,0.9,0.4,2,0.7,3.9c0.1,1.9,0.1,3,0,3.9c0,1.1,0,2,0.1,4c0.3,1.9,0.4,3,0.5,3.9
				c0.1,0.9,0.4,1.9,0.5,3.9c0.3,1.9,0.4,3,0.5,3.9c0.1,0.9,0.3,1.9,0.4,3.9c0.3,1.9,0.5,3,0.6,3.9c0.3,0.8,0.5,1.9,0.6,3.8
				c0.3,2,0.1,3.1,0,4c0,0.9-0.2,2,0.1,3.9c0.1,2,0.3,3,0.4,3.9c0.1,0.9,0.3,2,0.4,3.9c0.1,1.9,0.3,3,0.4,3.9c0,0.9,0.1,2,0.4,3.9
				c0.1,2,0.3,3,0.6,3.9c0.3,0.9,0.4,1.9,0.7,3.9c0.1,1.9,0.2,3,0.3,3.9c0,0.9,0.1,2,0.2,3.9c0.3,1.9,0.4,3,0.5,3.9
				c0.1,0.9,0.3,2,0.4,3.9c0.3,1.9,0.9,2.8,1.8,2.9c0.9-0.1,1.4-1.1,1.6-3c0.3-1.9,0.5-3,0.6-3.9c0.3-0.8,0.5-1.9,0.6-3.8
				c0.1-2,0.1-3.1,0.1-4c0-0.9,0-2,0.1-3.9c0.3-1.9,0.3-3,0.4-3.9c0-0.9,0.2-2,0.3-3.9c0.1-1.9,0.4-3,0.5-3.9c0.3-0.9,0.3-2,0.6-3.9
				c0.1-1.9,0.2-3,0.3-3.9c0.1-0.9,0.1-1.9,0.4-3.9c0.1-1.9,0.2-3,0.3-3.9c0-0.9,0.2-2,0.3-3.9c0.1-1.9,0.2-3,0.2-3.9
				c0-0.9-0.1-2,0.2-3.9c0.1-2,0.3-3,0.6-3.9c0.3-0.9,0.6-2,0.7-3.9c0.1-1.9,0.2-3,0.1-3.9c0-0.9-0.1-2,0.2-3.9c0.1-2,0.2-3,0.3-3.9
				c0-0.9,0.2-2,0.3-3.9c0.1-2,0.4-3,0.5-3.9c0.3-0.9,0.5-2,0.6-3.9c0.1-1.9,0.3-3,0.3-3.9c0.1-0.9,0.3-1.9,0.4-3.9
				c0.1-1.9,0.3-3,0.3-3.9c0.1-0.9,0.2-2,0.3-3.9c0.3-1.9,0.2-3,0.2-3.9c0-0.9,0.1-2,0.2-3.9c0.3-1.9,1.9-3.5,3.8-3.5
				c2,0,3.1,0,4,0.1h4c2,0,3.1,0.1,4,0.2c1.1,0.1,2,0.2,4.1,0.2c1.8,0,2.9,1,3.4,3c0.1,1.9,0.4,3,0.5,3.9c0.3,0.9,0.5,2,0.6,3.9
				c0.1,2,0.2,3.1,0.2,4c0,0.9,0.1,2,0.2,3.9c0.3,2,0.3,3,0.4,3.9c0.1,0.9,0.3,2,0.4,4s0.3,3,0.3,3.9c0.1,0.9,0.3,2,0.4,4
				c0.1,1.9,0.4,3,0.5,3.9c0.1,0.9,0.3,2,0.4,3.9c0.3,2,0.3,3,0.4,3.9c0,1.1,0.2,2,0.3,4c0.3,1.9,0.3,3,0.3,3.9c0,0.9,0,2,0.3,4
				c0.1,1.9,0.4,3,0.5,3.9c0.3,0.9,0.5,2,0.6,3.9c0.1,1.9,0.2,3,0.2,3.9c0,1.1,0.1,2,0.2,4c0.1,1.9,0.2,3,0.2,3.9c0,0.9,0.1,2,0.2,4
				c0.3,1.9,0.3,3,0.4,3.9c0.1,0.9,0.1,2,0.4,3.9c0.1,2,0.3,3.1,0.4,4c0.1,0.9,0.2,1.9,0.5,3.9c0.1,1.9,0.4,3,0.5,3.9
				c0.1,0.9,0.2,2,0.5,3.9c0.1,2,0.3,3,0.3,3.9c0,1.1,0.2,2,0.3,4c0.3,1.9,1,3.1,1.8,3.1c0.8,0,1.8-1.2,2.1-3.1
				c0.1-1.9,0.3-3,0.4-3.9c0.1-0.9,0.3-2,0.4-4c0.3-1.9,0.2-3,0.2-3.9s0-2,0.1-4c0.3-1.9,0.4-3,0.5-3.9c0.1-0.9,0.3-2,0.4-3.9
				c0.3-2,0.2-3.1,0.2-4c0-0.9-0.1-2,0.2-3.9c0.1-2,0.5-3,0.6-3.9c0.3-0.9,0.6-2,0.7-3.9c0.1-2,0.4-3.1,0.5-4
				c0.1-0.9,0.4-1.9,0.5-3.9c0.1-1.9,0.1-2.9,0-4c-0.1-0.9-0.3-2,0-3.9c0.1-2,0.4-2.9,0.5-4c0.1-0.9,0.2-1.9,0.5-3.9
				c0.1-1.9,0.4-3,0.5-3.9c0.1-0.9,0.3-2,0.4-3.9c0.3-2,0.3-2.9,0.4-4c0-0.9,0-1.9,0.3-3.9c0.1-1.9,0.2-3,0.3-3.9c0-0.9,0-2,0.3-4
				c0.1-1.9,0.3-3,0.4-3.9c0-0.9,0.1-2,0.4-3.9c0.1-2,0.2-3,0.5-3.9c0.1-0.9,0.2-2,0.5-4c0.1-1.9,0.3-3,0.3-3.9
				c0.1-0.9,0.1-2,0.4-3.9c0.1-1.9,1.7-3,3.6-3h4.5h4.7c1.8,0,2.7,1,2.6,2.9c-0.1,2-0.3,3.1-0.4,4c-0.1,0.9-0.2,2-0.5,4
				c-0.1,2-0.3,3.1-0.4,4c-0.1,0.9-0.3,2-0.4,4c-0.3,2-0.4,3.1-0.4,4c-0.1,0.9-0.2,2-0.5,3.9c-0.1,2-0.3,3.1-0.3,4
				c0,1.1-0.2,2.1-0.3,4c-0.3,2-0.4,3.1-0.5,4c-0.1,0.9-0.4,2-0.5,4c-0.3,1.9-0.2,3.1-0.2,4c0,0.9,0.1,2-0.2,4
				c-0.1,1.9-0.3,3.1-0.3,4c0,0.9-0.2,2-0.3,4c-0.3,1.9-0.6,3-0.7,3.9c-0.3,0.9-0.5,2-0.8,4c-0.1,1.9-0.2,2.9-0.3,4
				c0,0.9-0.2,2-0.3,3.9c-0.3,2-0.5,3.1-0.6,4c-0.1,0.9-0.3,2-0.6,4c-0.3,1.9-0.3,3-0.4,3.9c-0.1,0.9-0.3,2.1-0.4,4
				c-0.3,2-0.2,3.1-0.2,4c0,1.1,0,2.1-0.1,4c-0.3,2-0.4,3.1-0.7,4c-0.1,0.9-0.5,2-0.6,3.9c-0.3,2-0.2,3-0.2,4.1c0,0.9,0.1,2-0.2,4
				c-0.1,1.9-0.4,3-0.7,3.9c-0.1,0.9-0.5,2-0.6,4c-0.3,1.9-0.4,2.9-0.5,4c0,0.9-0.1,2-0.4,3.9c-0.3,2-0.1,3.1-0.1,4
				c0.1,1.1,0.2,2.1-0.1,4.1c-0.3,1.7-2.1,2.9-4,2.9h-4.9H709.7z"/>
			<path d="M737.8,424.6c0.1-0.9,0.3-2,0.6-3.9c0.4-2,0.5-3,0.6-4.1c0.3-0.9,0.3-2,0.7-3.9c0.3-2,0.4-3.1,0.5-4c0-0.9,0.2-2,0.5-4
				c0.3-2,0.4-3.1,0.7-4c0.1-0.9,0.3-2,0.6-3.9c0.4-2,0.4-3,0.4-4.1c0-0.9,0.1-2,0.4-4c0.3-2,0.4-3.1,0.5-4c0.1-0.9,0.2-2,0.5-4
				c0.3-2,0.6-3,0.9-3.9c0.3-0.9,0.6-2,0.9-4c0.3-1.9,0.4-2.9,0.5-4c0.1-0.9,0.2-2,0.5-4c0.3-1.9,0.5-3,0.8-3.9c0.3-0.9,0.4-2,0.8-4
				c0.3-1.9,0.5-2.9,0.6-4c0.1-0.9,0.2-2,0.6-3.9c0.3-2,0.3-3,0.3-4.1c0-0.9,0-2,0.3-4c0.4-2,0.6-3,0.9-3.9c0.3-0.9,0.5-2,0.8-4
				c0.3-2,0.3-3.1,0.4-4c0-0.9,0-2.1,0.3-4c0.3-2,0.6-3.1,0.9-4c0.3-0.9,0.5-2,0.8-3.9c0.4-2,0.4-3.1,0.7-4c0.1-0.9,0.3-2,0.6-4
				c0.3-1.9,1.7-3.6,3.4-3.6c2.3,0,3.5,0.2,4.6,0.3c1.1,0.1,2.2,0.3,4.5,0.3h4.5h4.7c2.3,0,3.4-0.1,4.5-0.1c1.1-0.1,2.3-0.1,4.6-0.1
				c1.7,0,3.3,1.3,3.6,3.2c0.3,2,0.5,3.2,0.8,4.1c0.1,0.9,0.4,1.9,0.7,3.8c0.4,2.8,0.7,3.8,0.8,5.5c0.1,0.7,0.3,1.5,0.4,2.6
				c0.4,2,0.5,3.1,0.6,4c0.1,0.9,0.3,2,0.6,4c0.3,1.9,0.4,3.1,0.4,4c0,0.9,0.1,2.1,0.4,4c0.3,2,0.4,3.1,0.7,4c0.1,0.9,0.3,2,0.6,4
				c0.4,1.9,0.7,3,0.8,3.9c0.3,0.9,0.5,2,0.8,4c0.4,1.9,0.4,3.1,0.5,4c0.1,0.9,0.1,2,0.5,4c0.3,2,0.5,3.1,0.6,4c0.1,0.9,0.3,2,0.6,4
				c0.3,1.9,0.5,3,0.6,3.9c0.1,0.9,0.3,2.1,0.6,4c0.3,2,0.4,3.1,0.7,4c0.1,0.9,0.4,2,0.7,4c0.3,1.9,0.5,2.9,0.6,4
				c0.1,0.9,0.2,2,0.6,3.9c0.3,2,0.4,3.1,0.5,4c0.1,1.1,0.2,2.1,0.5,4c0.3,2,0.5,3.1,0.8,4c0.3,0.9,0.5,2,0.8,3.9
				c0.3,2,0.4,3.1,0.4,4c0.1,1.1,0.2,2.1,0.5,4.1c0.3,1.9,0.4,2.9,0.4,4c0.1,0.9,0.2,2,0.5,4c0.3,1.9,0.5,3,0.6,3.9
				c0.1,0.9,0.3,2.1,0.6,4c0.3,2,0.6,3.1,0.7,4c0.1,0.9,0.4,2,0.7,4c0.3,1.9-0.7,3.3-2.6,3.3c-1.5,0-2.3-0.1-3-0.1h-3.1
				c-1.5,0-2.2,0-3,0.1h-3c-1.9,0-3.2-1.5-3.5-3.4c-0.3-1.7-0.5-2.8-0.5-3.6c-0.1-0.9-0.2-1.8-0.6-3.7c-0.3-1.7-0.6-2.7-0.7-3.5
				c-0.3-0.9-0.5-1.9-0.8-3.6c-0.3-1.9-0.5-2.8-0.5-3.7c-0.1-0.8-0.2-1.9-0.5-3.6c-0.4-1.7-0.5-2.7-0.8-3.6
				c-0.3-0.8-0.5-1.7-0.8-3.6c-0.3-1.7-0.2-2.7-0.2-3.6c0-0.9,0-1.8-0.3-3.7c-0.4-1.9-2.1-2.7-3.7-1.9c-1.6,0.9-2.4,1.5-3.1,2.2
				c-0.7,0.7-1.4,1.3-3,2.2c-1.6,0.9-2.5,1.3-3.3,1.7c-0.8,0.4-1.7,0.9-3.3,1.8c-1.6,0.9-2.4,1.4-3.2,1.8c-0.8,0.4-1.7,0.9-3.3,1.8
				c-1.6,0.8-2.4,1.4-3.2,1.9c-0.8,0.4-1.6,1-3.2,1.9c-1.6,0.9-2.8,2.9-3.1,4.9c-0.4,2.3-0.6,3.4-0.7,4.5c-0.3,1.1-0.4,2.3-0.7,4.7
				c-0.4,2.1-0.5,3.3-0.8,4.4c-0.3,1.1-0.5,2.4-0.8,4.5c-0.4,1.9-2,3.3-3.7,3.3c-2.5,0-3.9-0.1-5.2-0.2c-1.2,0-2.5-0.1-5.1-0.1
				c-1.8,0-2.6-1-2.5-2.9c0.3-2,0.5-3.1,0.6-4c0.1-0.9,0.3-2,0.6-4c0.4-2,0.4-3.1,0.7-4c0.1-0.9,0.3-2,0.6-4
				C737.5,426.6,737.7,425.5,737.8,424.6z M760.1,400.7c1.7-0.9,2.7-1.3,3.5-1.7c0.9-0.3,1.9-0.8,3.5-1.7c1.7-0.9,2.5-1.5,3.3-2
				c0.8-0.5,1.7-1.1,3.3-2c1.6-0.9,2.6-1.4,3.4-1.8c0.9-0.4,1.8-0.8,3.5-1.7c1.6-1.1,2.8-3.4,2.5-5.4c-0.3-1.9-0.6-2.9-0.9-3.8
				c-0.3-0.8-0.5-1.8-0.8-3.7c-0.3-1.9-0.4-3-0.4-3.8c0-0.9-0.1-2-0.4-3.9c-0.3-1.9-0.5-2.9-0.8-3.7c-0.3-0.9-0.5-1.9-0.9-3.8
				c-0.3-1.7-0.3-2.9-0.3-3.8c0-0.9,0-1.9-0.3-3.8c-0.3-1.9-0.5-2.9-0.6-3.7c-0.1-0.9-0.3-2-0.6-3.9c-0.3-1.7-0.6-2.8-0.9-3.7
				c-0.3-0.9-0.6-1.8-0.9-3.7c-0.3-1.9-0.3-3-0.3-3.8c0-0.9,0-2-0.3-3.9c-0.3-1.9-0.5-2.7-0.6-3.4c-0.1-0.8-0.3-1.6-0.6-3.5
				c-0.7-3.7-2.9-3.8-3.7,0.1c-0.3,2-0.3,2.8-0.6,3.6c-0.1,0.7-0.2,1.6-0.5,3.2c-0.4,1.9-0.5,2.9-0.8,3.8c-0.1,0.9-0.4,2-0.7,3.7
				c-0.3,1.9-0.5,2.9-0.6,3.8c-0.1,0.9-0.2,1.9-0.6,3.8c-0.3,1.9-0.5,2.9-0.6,3.7c-0.1,0.9-0.3,1.9-0.6,3.8
				c-0.3,1.9-0.5,2.9-0.6,3.8c-0.3,0.8-0.3,2-0.7,3.7c-0.3,1.9-0.4,2.9-0.5,3.8c-0.3,0.9-0.3,1.9-0.6,3.8c-0.4,1.7-0.5,2.8-0.6,3.7
				c-0.3,0.9-0.3,1.9-0.7,3.8c-0.3,1.9-0.4,2.9-0.4,3.8c-0.1,0.9-0.2,1.9-0.5,3.8c-0.4,1.9-0.6,2.9-0.7,3.7
				c-0.3,0.9-0.4,1.9-0.7,3.8c-0.3,1.9-0.3,2.9-0.3,3.8c-0.1,0.9-0.1,1.9-0.4,3.8C757.8,401.2,758.5,401.6,760.1,400.7z"/>
			<path d="M877.7,307.8c-0.5,1.9-0.8,2.9-1.2,3.8c-0.3,0.8-0.6,1.9-1.1,3.8c-0.5,1.7-0.9,2.9-1.2,3.7c-0.3,0.9-0.5,1.9-1.2,3.8
				c-0.5,1.9-0.8,2.9-1.1,3.8c-0.3,0.9-0.5,1.9-1.2,3.8c-0.5,1.9-0.8,2.9-1.1,3.8c-0.3,0.9-0.6,1.9-1.1,3.8
				c-0.7,1.9-0.8,2.9-1.1,3.8c-0.3,0.9-0.5,2.1-1,3.8c-0.7,1.9-0.9,2.9-1.3,3.8c-0.3,0.9-0.7,1.9-1.2,3.8c-0.5,1.9-0.8,2.8-0.9,3.9
				c-0.1,0.9-0.4,1.9-0.9,3.8c-0.5,1.9-0.9,2.9-1,3.8c-0.3,0.9-0.6,2-1.1,3.9c-0.5,1.9-1,2.8-1.4,3.7c-0.4,0.8-0.9,1.8-1.4,3.7
				c-0.5,1.9-0.8,2.9-1.1,3.8c-0.1,0.9-0.5,1.9-1,3.8c-0.5,1.9-0.9,2.9-1.3,3.8c-0.4,0.8-0.8,1.8-1.3,3.7c-0.5,1.9-0.8,2.9-1.1,3.7
				c-0.3,0.9-0.7,2-1.2,3.9c-0.4,1.6-0.4,3.8-0.4,5.8v0.8c0,1.9-0.1,2.9-0.2,3.8c-0.1,0.9-0.3,1.9-0.3,3.8s0.2,2.9,0.3,3.8
				c0.1,0.9,0.3,1.9,0.3,3.8c0,2-0.2,2.9-0.3,3.8c-0.1,0.9-0.3,1.9-0.3,3.8v3.8v3.8c0,1.9,0.2,2.9,0.3,3.8c0.3,0.9,0.4,1.9,0.4,3.8
				c0,1.9-1.9,3-3.6,3h-3h-3c-1.5,0-2.3,0.1-3,0.1c-0.8,0.1-1.5,0.1-3,0.1c-1.9,0-3.1-1.3-3.1-3.2c0-2-0.2-3-0.2-3.9
				c-0.1-0.9-0.2-1.8-0.2-3.7s0-3,0.3-3.9c0.1-0.8,0.3-1.8,0.3-3.7s-0.1-2.9-0.2-3.8c-0.1-0.9-0.3-1.9-0.3-3.8v-3.8V414
				c0-1.9,0.1-2.9,0.2-3.8c0-0.9,0.2-1.9,0.2-3.8c0-1.7-0.5-4.7-1-6.6c-0.5-1.9-0.8-2.9-1.1-3.8c-0.3-0.8-0.7-1.9-1.2-3.8
				c-0.5-1.9-0.9-2.8-1.2-3.7c-0.4-0.9-0.8-1.9-1.3-3.8c-0.5-1.9-0.8-2.9-1.1-3.8c-0.4-0.8-0.7-2-1.2-3.7c-0.5-1.9-0.8-3-1.1-3.8
				c-0.3-0.9-0.6-2.1-1.1-3.8c-0.5-1.9-0.6-3-0.9-3.9c-0.1-0.9-0.4-2.1-0.9-3.8c-0.5-1.9-0.8-2.9-1.1-3.8c-0.4-0.9-0.7-1.9-1.2-3.8
				c-0.5-1.9-0.9-2.9-1.3-3.7c-0.4-0.9-0.8-1.9-1.3-3.8c-0.5-1.9-0.7-2.9-1-3.8c-0.1-0.9-0.5-2.1-1-3.8c-0.5-1.9-0.8-3-1.1-3.9
				c-0.3-0.8-0.6-1.8-1.1-3.7c-0.5-1.9-0.8-2.9-1.1-3.8c-0.3-0.9-0.6-1.9-1.1-3.8c-0.5-1.9-0.9-2.9-1.2-3.8
				c-0.4-0.8-0.7-1.8-1.2-3.7c-0.5-1.9-0.8-2.9-1.1-3.8c-0.3-0.9-0.6-1.9-1.1-3.8c-0.5-1.9,0.7-3.1,2.4-3.1c1.6,0,2.4-0.1,3.2-0.2
				c0.8,0,1.6-0.2,3.2-0.2c1.6,0,2.4,0.1,3.2,0.2c0.7,0.1,1.6,0.2,3.2,0.2c1.7,0,3.3,1.3,3.7,3.2c0.5,1.9,0.7,2.9,1,3.8
				c0.3,0.8,0.5,2,1,3.7c0.5,1.9,0.8,2.9,1.1,3.8c0.3,0.9,0.6,1.9,1,3.8c0.5,1.9,0.8,2.9,1.2,3.7c0.3,0.9,0.6,1.9,1.1,3.8
				c0.5,1.9,0.8,2.9,0.9,3.8c0.3,0.9,0.5,1.9,1,3.8c0.4,1.7,0.7,2.9,1,3.7c0.4,0.9,0.6,1.9,1.1,3.8c0.5,1.9,0.7,2.9,0.8,3.8
				c0.1,0.9,0.3,2.1,0.8,3.8c0.5,1.9,0.8,3,0.9,3.8c0.3,0.9,0.5,1.9,1,3.8c0.4,1.9,0.8,2.9,1.2,3.8c0.4,0.8,0.7,1.8,1.2,3.7
				c0.5,1.9,0.8,2.9,0.9,3.8c0.3,0.9,0.5,1.9,1,3.8c0.4,1.7,0.8,1.6,1.3-0.1c0.5-1.9,0.9-2.9,1.3-3.7c0.4-0.9,0.8-1.9,1.3-3.8
				c0.5-1.7,0.8-2.8,1.1-3.7c0.4-0.9,0.7-1.9,1.2-3.8c0.5-1.9,0.6-2.8,0.6-3.9c0.1-0.9,0.2-2.1,0.7-3.8c0.5-1.9,0.8-2.9,1.1-3.8
				c0.4-0.9,0.7-2,1.2-3.7c0.5-1.9,0.8-2.9,1.1-3.8c0.3-0.9,0.6-1.9,1.1-3.8c0.5-1.7,0.7-2.9,1-3.8c0.3-0.8,0.5-2,1-3.7
				c0.5-1.9,0.8-3,0.9-3.9c0.3-0.8,0.5-1.9,1-3.8c0.4-1.7,0.7-2.9,1-3.7c0.3-0.9,0.6-1.9,1.1-3.8c0.4-1.9,0.8-2.9,1.1-3.8
				c0.3-0.8,0.7-1.8,1.2-3.7c0.5-1.7,2.3-3.2,4-3.2c2.8,0,4.2,0.1,5.5,0.2c1.3,0,2.7,0.1,5.5,0.1C877.4,305,878.1,305.9,877.7,307.8
				z"/>
		</g>
	</g>
	<g>
		<g>
			<path d="M333.4,649.4c-0.5,1.7-0.7,2.6-1.1,3.4c-0.3,0.7-0.5,1.7-1,3.4c-0.5,1.5-0.8,2.6-1.1,3.3c-0.3,0.8-0.5,1.7-1.1,3.4
				c-0.5,1.7-0.7,2.6-1,3.4c-0.3,0.8-0.5,1.7-1.1,3.4c-0.5,1.7-0.7,2.6-1,3.4c-0.3,0.8-0.5,1.7-1,3.4c-0.6,1.7-0.7,2.6-1,3.4
				c-0.3,0.8-0.5,1.9-0.9,3.4c-0.6,1.7-0.8,2.6-1.2,3.4c-0.3,0.8-0.6,1.7-1.1,3.4c-0.5,1.7-0.7,2.5-0.8,3.5
				c-0.1,0.8-0.4,1.7-0.8,3.4c-0.5,1.7-0.8,2.6-0.9,3.4c-0.3,0.8-0.5,1.8-1,3.5c-0.5,1.7-0.9,2.5-1.3,3.3c-0.4,0.7-0.8,1.6-1.3,3.3
				c-0.5,1.7-0.7,2.6-1,3.4c-0.1,0.8-0.5,1.7-0.9,3.4c-0.5,1.7-0.8,2.6-1.2,3.4c-0.4,0.7-0.7,1.6-1.2,3.3s-0.7,2.6-1,3.3
				c-0.3,0.8-0.6,1.8-1.1,3.5c-0.4,1.4-0.4,3.4-0.4,5.2v0.7c0,1.7-0.1,2.6-0.2,3.4c-0.1,0.8-0.3,1.7-0.3,3.4c0,1.7,0.2,2.6,0.3,3.4
				c0.1,0.8,0.3,1.7,0.3,3.4c0,1.8-0.2,2.6-0.3,3.4c-0.1,0.8-0.3,1.7-0.3,3.4v3.4v3.4c0,1.7,0.2,2.6,0.3,3.4
				c0.3,0.8,0.4,1.7,0.4,3.4s-1.7,2.7-3.3,2.7h-2.7h-2.7c-1.4,0-2.1,0.1-2.7,0.1c-0.7,0.1-1.4,0.1-2.7,0.1c-1.7,0-2.8-1.2-2.8-2.9
				c0-1.8-0.2-2.7-0.2-3.5c-0.1-0.8-0.2-1.6-0.2-3.3c0-1.7,0-2.7,0.3-3.5c0.1-0.7,0.3-1.6,0.3-3.3c0-1.7-0.1-2.6-0.2-3.4
				c-0.1-0.8-0.3-1.7-0.3-3.4v-3.4v-3.4c0-1.7,0.1-2.6,0.2-3.4c0-0.8,0.2-1.7,0.2-3.4c0-1.5-0.5-4.2-0.9-5.9c-0.5-1.7-0.7-2.6-1-3.4
				c-0.3-0.7-0.6-1.7-1.1-3.4c-0.5-1.7-0.8-2.5-1.1-3.3c-0.4-0.8-0.7-1.7-1.2-3.4c-0.5-1.7-0.7-2.6-1-3.4c-0.4-0.7-0.6-1.8-1.1-3.3
				c-0.5-1.7-0.7-2.7-1-3.4c-0.3-0.8-0.5-1.9-1-3.4c-0.5-1.7-0.5-2.7-0.8-3.5c-0.1-0.8-0.4-1.9-0.8-3.4c-0.5-1.7-0.7-2.6-1-3.4
				c-0.4-0.8-0.6-1.7-1.1-3.4c-0.5-1.7-0.8-2.6-1.2-3.3c-0.4-0.8-0.7-1.7-1.2-3.4c-0.5-1.7-0.6-2.6-0.9-3.4
				c-0.1-0.8-0.5-1.9-0.9-3.4c-0.5-1.7-0.7-2.7-1-3.5c-0.3-0.7-0.5-1.6-1-3.3s-0.7-2.6-1-3.4c-0.3-0.8-0.5-1.7-1-3.4
				c-0.5-1.7-0.8-2.6-1.1-3.4c-0.4-0.7-0.6-1.6-1.1-3.3c-0.5-1.7-0.7-2.6-1-3.4c-0.3-0.8-0.5-1.7-1-3.4c-0.5-1.7,0.6-2.8,2.2-2.8
				c1.4,0,2.2-0.1,2.9-0.2c0.7,0,1.4-0.2,2.9-0.2c1.4,0,2.2,0.1,2.9,0.2c0.6,0.1,1.4,0.2,2.9,0.2c1.5,0,3,1.2,3.3,2.9
				c0.5,1.7,0.6,2.6,0.9,3.4c0.3,0.7,0.5,1.8,0.9,3.3c0.5,1.7,0.7,2.6,1,3.4c0.3,0.8,0.5,1.7,0.9,3.4c0.5,1.7,0.7,2.6,1.1,3.3
				c0.3,0.8,0.5,1.7,1,3.4s0.7,2.6,0.8,3.4c0.3,0.8,0.5,1.7,0.9,3.4c0.4,1.5,0.6,2.6,0.9,3.3c0.4,0.8,0.5,1.7,1,3.4
				c0.5,1.7,0.6,2.6,0.7,3.4c0.1,0.8,0.3,1.9,0.7,3.4c0.5,1.7,0.7,2.7,0.8,3.4c0.3,0.8,0.5,1.7,0.9,3.4c0.4,1.7,0.7,2.6,1.1,3.4
				c0.4,0.7,0.6,1.6,1.1,3.3c0.5,1.7,0.7,2.6,0.8,3.4c0.3,0.8,0.5,1.7,0.9,3.4c0.4,1.5,0.7,1.4,1.2-0.1c0.5-1.7,0.8-2.6,1.2-3.3
				c0.4-0.8,0.7-1.7,1.2-3.4c0.5-1.5,0.7-2.5,1-3.3c0.4-0.8,0.6-1.7,1.1-3.4c0.5-1.7,0.5-2.5,0.5-3.5c0.1-0.8,0.2-1.9,0.6-3.4
				c0.5-1.7,0.7-2.6,1-3.4c0.4-0.8,0.6-1.8,1.1-3.3c0.5-1.7,0.7-2.6,1-3.4c0.3-0.8,0.5-1.7,1-3.4c0.5-1.5,0.6-2.6,0.9-3.4
				c0.3-0.7,0.5-1.8,0.9-3.3c0.5-1.7,0.7-2.7,0.8-3.5c0.3-0.7,0.5-1.7,0.9-3.4c0.4-1.5,0.6-2.6,0.9-3.3c0.3-0.8,0.5-1.7,1-3.4
				c0.4-1.7,0.7-2.6,1-3.4c0.3-0.7,0.6-1.6,1.1-3.3c0.5-1.5,2.1-2.9,3.6-2.9c2.5,0,3.8,0.1,4.9,0.2c1.2,0,2.4,0.1,4.9,0.1
				C333.1,646.8,333.8,647.7,333.4,649.4z"/>
			<path d="M375.9,773.7c-0.5,0.1-1.1,0.1-1.5,0.2c-0.6,0.1-1.3,0.3-1.9,0.4c-1.5,0.5-3.3,0.6-5,0.6c-1.7,0-3.4-0.2-5-0.6
				c-0.6-0.1-1.3-0.3-1.9-0.4c-2.4-0.4-4.5-1-6.6-1.8c-0.5-0.2-1.1-0.4-1.7-0.6c-1.7-0.5-3.3-1.2-4.6-2.2c-1.5-1.2-2.8-2.5-3.9-4.2
				c-0.3-0.4-0.5-0.7-0.7-1c-1.4-1.7-2.5-3.7-3.4-6c-0.9-2-1.6-4.2-2.1-6.5c-0.3-2.2-0.5-4.5-0.5-7V743c0-1.7,0-2.6-0.1-5.2
				c0-1.7-0.1-2.6-0.2-3.3c0-0.8-0.2-1.7-0.2-3.5c0-1.7,0.1-2.6,0.2-3.4c0.1-0.8,0.2-1.6,0.2-3.4c0-1.7,0.1-2.6,0.1-3.3
				c0.1-0.8,0.2-1.7,0.2-3.4v-3.4v-3.4c0-1.7-0.1-2.6-0.1-3.4c0-0.7-0.1-1.6-0.1-3.3s-0.1-2.6-0.1-3.4c-0.1-0.8-0.2-1.7-0.2-3.4
				s0.1-2.6,0.1-3.4v-3.3c0-1.8,0-2.6-0.1-3.4v-3.4c0-1.7,0.1-2.6,0.2-3.4c0.1-0.8,0.2-1.6,0.2-3.4c0-2.4,0.2-4.7,0.6-6.8
				c0.1-0.5,0.2-1.1,0.3-1.5c0.3-1.9,0.6-3.6,1.3-5.2c0.9-2.2,2.1-4.2,3.5-6c0.1-0.1,0.1-0.1,0.1-0.2c1.4-1.9,2.9-3.5,4.6-4.9
				c1.5-1,3.2-1.7,4.9-2.4c0.5-0.1,1-0.3,1.4-0.5c2.1-0.7,4.3-1.3,6.7-1.5c0.8-0.2,1.5-0.4,2.4-0.5c1.4-0.5,3-0.7,4.5-0.7
				c2.3,0,4.5,0.3,6.6,0.7h0.4c2.4,0.5,4.5,1.2,6.6,2c2.3,0.8,4.2,1.9,6.1,3.3c1.9,1.4,3.5,2.9,5.1,4.7c1.4,1.8,2.5,3.8,3.4,6.1
				c0.8,2.1,1.4,4.3,1.7,6.7c0.4,2.2,0.5,4.4,0.5,6.9c0,1.8,0,2.7-0.1,3.4c-0.1,0.8-0.1,1.7-0.1,3.4v3.4v3.4v3.4
				c-0.1,0.7-0.1,1.6-0.1,3.4v3.3v3.4v3.4v3.4v3.3v3.4c0,1.7,0,2.6,0.1,3.4c0,0.8,0.1,1.7,0.1,3.4s-0.1,2.6-0.1,3.4
				c-0.1,0.7-0.1,1.6-0.1,3.3c0,1.8,0.1,2.6,0.2,3.4c0.1,0.8,0.3,1.7,0.3,3.4c0,1.7,0,2.6,0.1,3.4c0,0.7,0.1,1.6,0.1,3.3
				s-0.3,3.4-0.7,5c-0.1,0.6-0.3,1.3-0.4,1.9c-0.4,2.4-0.9,4.6-1.7,6.7c-1,2.1-2.2,4-3.6,5.7l-0.1,0.1c-1.4,1.8-3,3.4-4.9,4.8
				c-0.4,0.3-0.7,0.5-1,0.7c-1.4,1.2-3.1,2.2-4.8,3C379.5,773.1,377.8,773.4,375.9,773.7z M367.5,760.1c2.7,0,5.2-0.5,7.3-1.6
				c2.3-1.2,3.9-3,5.1-5.3c1.2-2.1,1.7-4.4,1.7-7.2c0-1.7-0.1-2.7-0.2-3.5c-0.1-0.8-0.3-1.7-0.3-3.5s0-2.7-0.1-3.5
				c0-0.8-0.1-1.8-0.1-3.5c0-1.8,0.2-2.8,0.3-3.6c0.1-0.8,0.3-1.7,0.3-3.5c0-1.8,0-2.7-0.1-3.5c0-0.8-0.1-1.7-0.1-3.5
				c0-1.8,0.1-2.7,0.2-3.5c0.1-0.8,0.2-1.8,0.2-3.5V707v-3.5c0-1.8-0.2-2.7-0.3-3.5c-0.1-0.8-0.3-1.7-0.3-3.5c0-1.8,0.2-2.7,0.2-3.5
				c0.1-0.8,0.3-1.8,0.3-3.5c0-1.8-0.2-2.8-0.3-3.6c-0.1-0.8-0.2-1.7-0.2-3.5c0-1.7,0.1-2.7,0.2-3.5c0.1-0.8,0.3-1.7,0.3-3.5
				c0-2.7-0.5-5.2-1.6-7.2c-1.3-2.1-3.1-3.7-5.5-4.8c-1.9-1.1-4.2-2.1-7-2.1c-2.7,0-5.2,0.5-7.2,1.6c-2.3,1.2-3.9,3-5.1,5.3
				c-1.1,2.1-1.6,4.4-1.6,7.1c0,1.8,0.1,2.8,0.2,3.6c0.1,0.8,0.3,1.7,0.3,3.4c0,1.8,0,2.7-0.1,3.7c-0.1,0.8-0.1,1.7-0.1,3.4
				c0,1.8-0.1,2.7-0.1,3.5c-0.1,0.8-0.1,1.8-0.1,3.5v3.5c0.1,0.8,0.1,1.8,0.1,3.6c0,1.7,0,2.7,0.1,3.5c0,0.8,0.1,1.7,0.1,3.5
				c0,1.8-0.1,2.7-0.1,3.5v3.5c0,1.8-0.1,2.7-0.1,3.5c-0.1,0.8-0.1,1.8-0.1,3.6v3.5v3.5c0,1.8-0.1,2.7-0.1,3.5
				c-0.1,0.8-0.2,1.7-0.2,3.5s0,2.7,0.1,3.5v3.5c0,2.8,0.5,5.2,1.5,7.3c1.2,2.3,3,4.1,5.2,5.2C362.3,759.6,364.8,760.1,367.5,760.1z
				"/>
			<path d="M467.8,704.4c-0.1,1-0.3,1.9-0.3,3.7c0,1.8-0.1,2.8-0.1,3.6c-0.1,1-0.1,1.9-0.1,3.7c0,1.8,0.2,2.8,0.3,3.6
				c0.3,1,0.4,1.9,0.4,3.7c0,1.8,0,2.8-0.1,3.6c0,1-0.1,1.9-0.1,3.7c0,1.8-0.1,2.8-0.1,3.6c0,0.8-0.1,1.8-0.1,3.7
				c0,1.8,0,2.8,0.1,3.6v3.7c0,2.4-0.1,4.7-0.4,6.9c-0.5,2.3-1.1,4.5-1.9,6.6c-0.9,2.3-2.1,4.2-3.5,6c-1.4,1.9-2.9,3.5-4.8,4.9
				c-1.8,1.3-3.8,2.3-6.1,3.1c-2.1,0.8-4.2,1.4-6.6,1.8c-2.1,0.4-4.3,0.5-6.8,0.5s-4.7-0.2-6.8-0.6c-2.4-0.4-4.5-1-6.6-1.8
				c-2.2-0.8-4.2-1.9-5.9-3.3c-1.9-1.4-3.5-2.9-5-4.7c-1.3-1.8-2.4-3.8-3.2-6.1c-0.2-0.5-0.4-0.8-0.5-1.3c-0.7-1.6-1.3-3.3-1.6-5.2
				c-0.5-2.2-0.7-4.4-0.7-6.9c0-1.9,0.1-2.9,0.2-3.7c0.3-0.8,0.3-1.8,0.3-3.7c0-1.8,0-2.8-0.1-3.6c0-0.8-0.1-1.8-0.1-3.7
				c0-1.8,0.1-2.8,0.2-3.6c0.1-0.8,0.2-1.8,0.2-3.7v-3.6v-3.7c0-1.8-0.2-2.8-0.3-3.6c-0.1-0.8-0.3-1.8-0.3-3.7
				c0-1.8,0.2-2.8,0.3-3.6c0-0.8,0.2-1.8,0.2-3.7c0-1.8-0.2-2.8-0.3-3.6c-0.1-0.8-0.2-1.8-0.2-3.7c0-1.8,0.1-2.8,0.2-3.6
				c0.1-0.8,0.3-1.8,0.3-3.6v-3.7v-3.6c0-1.9-0.2-2.9-0.3-3.7c-0.1-0.8-0.3-1.8-0.3-3.6c0-1.8,0.1-2.9,0.2-3.7
				c0.3-0.8,0.3-1.8,0.3-3.6v-3.7v-3.6v-3.7c-0.1-0.8-0.1-1.8-0.1-3.6c0-1.7,1.2-2.8,2.9-2.8c1.4,0,2.1-0.2,2.7-0.3s1.4-0.2,2.6-0.3
				c1.4,0,2.1,0.3,2.8,0.4c0.6,0.3,1.3,0.4,2.6,0.4c1.6,0,2.5,0.9,2.7,2.6v3.4c-0.1,0.8-0.1,1.7-0.1,3.4c0,1.8,0.2,2.7,0.3,3.4
				c0.1,0.8,0.3,1.7,0.3,3.5c0,1.7-0.1,2.6-0.1,3.4c-0.1,0.7-0.2,1.6-0.2,3.4c0,1.7,0.1,2.6,0.1,3.4c0,0.8,0.1,1.7,0.1,3.4
				s0.1,2.6,0.1,3.4c0.1,0.8,0.2,1.7,0.2,3.4c0,1.7-0.1,2.6-0.2,3.4c0,0.8-0.1,1.7-0.1,3.4c0,1.8-0.1,2.7-0.2,3.4
				c-0.1,0.8-0.2,1.7-0.2,3.4c0,1.8,0.1,2.7,0.2,3.5c0.1,0.7,0.3,1.6,0.3,3.4v3.4v3.4c0,1.7-0.1,2.6-0.2,3.4c0,0.8-0.2,1.7-0.2,3.4
				v3.4v3.4c0,1.7,0.1,2.6,0.1,3.4v3.4c0,1.7,0.1,2.6,0.2,3.4c0.1,0.8,0.2,1.7,0.2,3.4c0,1.8-0.2,2.7-0.3,3.4
				c-0.3,0.8-0.4,1.7-0.4,3.5c0,2.6,0.9,5,2,7.1c1.2,2.2,2.9,3.8,5.2,4.9c2.1,1.1,4.2,1.9,7.1,1.9c2.6,0,5.1-0.5,7.1-1.5
				c2.3-1.2,4.1-2.9,5.2-5.2c0.8-2.1,1.3-4.4,1.3-7.1v-3.5v-3.4v-3.4v-3.4c0-1.7,0.2-2.6,0.2-3.4c0.1-0.8,0.3-1.7,0.3-3.4
				c0-1.8-0.1-2.7-0.1-3.4c0-0.8-0.1-1.7-0.1-3.4c0-1.8-0.1-2.7-0.2-3.5c0-0.7-0.2-1.6-0.2-3.4c0-1.7,0.1-2.6,0.2-3.4
				c0-0.8,0.1-1.7,0.1-3.4v-3.4v-3.4v-3.4v-3.4c0-1.8,0-2.6-0.1-3.4c0-0.8-0.1-1.7-0.1-3.4c0-1.8,0-2.7,0.1-3.4V677
				c0-1.7,0-2.6,0.1-3.4c0-0.7,0.1-1.6,0.1-3.4c0-1.7-0.2-2.6-0.2-3.4c-0.1-0.8-0.2-1.7-0.2-3.4c0-1.7,0.1-2.6,0.1-3.4
				c0.1-0.8,0.2-1.7,0.2-3.4c0-1.7,0.1-2.6,0.2-3.4c0-0.8,0.1-1.7,0.1-3.4c0-1.6,0.9-2.5,2.6-2.6c2.5,0,3.7-0.1,4.9-0.1
				c1.2,0,2.4-0.1,4.9-0.1c1.5,0,3.1,1.1,3.1,2.8c0,1.8-0.1,2.8-0.1,3.6c0,1-0.1,1.9-0.1,3.7c0,1.8,0.1,2.7,0.1,3.7
				c0.1,0.8,0.1,1.8,0.1,3.6c0,1.8-0.1,2.7-0.2,3.7c-0.1,0.8-0.2,1.8-0.2,3.6v3.7c-0.1,0.8-0.1,1.8-0.1,3.6c0,1.8,0.2,2.7,0.2,3.7
				c0.1,0.8,0.3,1.8,0.3,3.6c0,1.8-0.1,2.7-0.1,3.7v3.6c0,1.8,0.1,2.7,0.2,3.7c0,0.8,0.2,1.8,0.2,3.6
				C468,702.6,467.8,703.6,467.8,704.4z"/>
			<path d="M484.2,774.9c-0.8-0.1-1.4-0.1-2.3-0.1c-0.9,0.1-4.9-0.1-4.8-3c0-2.9,0.4-4.2,0.4-7.1l0.1-3.6c0.1-1,0.2-2.9,0.2-5.8
				l-0.2-14.4c-0.2-2.6-0.3-4.3-0.3-5.1c0-2,0-3.2,0.1-3.6v-3.6c0-2,0-3.2-0.1-3.6c0-3.3,0-5.2,0.1-5.7c0.1-1.3,0.1-2.2,0.2-2.8
				c0.1-0.6,0.1-2.1,0.1-4.4l0.1-5.1c0-1-0.1-2.2-0.3-3.6c-0.1-0.8-0.2-2-0.2-3.5c0-2,0-3.2,0.1-3.6v-3.6c0-3.2-0.4-4.1-0.4-7.2
				c0.2-3.4,0.7-8,0.5-9.3c0.2-1.6,0.2-2.3,0.2-5.1c0-3.6-0.7-3.6-0.7-7.1c0-0.6,0.1-2.4,0.3-5.1v-4.3l0.2-2.9
				c0-1.7-0.2-5.2,2.9-5.2c1.8,0,2.8-0.1,3.6-0.1h1.5c0.5-0.1,2.5-0.1,5.9-0.1c0.5,0.1,2.4,0.1,5.9,0.1l2.9,0.2h5.9h3.7
				c2.5,0,5,0.3,7.4,0.7c11.5,1.7,17.5,7.6,19.3,19.2c0.4,2.3,0.5,5.4,0.5,9.7l0.2,3v2.3l-0.2,7.5c0,1.4,0.2,2.8,0.2,4
				c0,3.5-0.6,7-2,10.5c-1,2.2-2.4,4.2-4.1,5.9c-0.1,0-0.1,0-0.1,0.1l-1.9,1.9c-0.5,0.6-0.8,1.1-0.8,1.4c0,0.5,0.5,1.4,1.3,2.5
				l0.4,0.6c0.9,1.4,1.7,2.5,2.4,3.4c1.1,1.5,1.9,3.4,2.4,5.5c1.2,3.2,1.8,5.9,1.9,8c0.4,3.1,0.5,6.1,0.5,9.1c0,1.6,0.1,2.9,0.4,3.7
				c0.2,1.4,0.3,2.7,0.3,3.8c0,2.2-0.5,4.3-0.5,9.8l0.1,7.5l0.1,5.2c0,1.7-1.4,2.9-2.9,2.9c-1.2,0-1.9,0-2.4-0.1l-8.4,0.1
				c-1.7,0-3.2-1.2-3.3-2.9c0-2.4,0.5-5.5,0.5-8c0-1.7-0.4-4.3-0.4-5.9c0-2.3,0-3.7-0.1-4.2v-4.2c0-1.8,0.1-3.2,0.2-4.2
				c0.1-1,0.2-2.4,0.2-4.2c0-6.2-0.5-10.9-1.7-14.1c-1.3-3.5-3.5-5.3-6.8-5.3c-2.6,0-7.1,2.5-9.5,4c-2.1,1.1-3,1.7-6.3,3.5
				c-1.4,0.8-2.9,2.8-2.9,4.3l0.2,7.7c0,0.6,0.1,2.4,0.3,5.3v2.3c0,2.1,0,3.4-0.1,3.9c-0.1,0.5-0.1,0.9-0.1,1.5v15.2
				c0.1,1.6-0.1,5.6-3,5.3H484.2z M499.7,713.3c0.6-0.5,1.5-1.1,2.7-1.7c1.5-0.8,2.5-1.3,2.9-1.4c2.4-0.8,4.9-2.2,7.3-4.3l2-1.4
				c4.2-2.6,6.4-6.4,6.4-11.3c0-1.4-0.1-2.9-0.3-4.3c-0.3-1.1-0.4-2.5-0.4-4.4c0-2.5,0.5-6.2,0.5-8.8c0-2.5-0.3-4.9-0.8-7
				c-1.5-5-5.2-7.5-10.9-7.5h-1.6l-2.4-0.2h-8c-1.5,0-3.3,1.6-3.3,3.3c0,0.8,0,1.5,0.1,2.1c0.1,1.5,0.1,3.2,0.1,4.9
				c0,1.9,0,3-0.1,3.4v3.5c0,1.5,0.1,2.7,0.2,3.4c0.2,1.3,0.3,3.2,0.3,5.7l0.2,2.8v2c0,2.2-0.5,4.2-0.5,9.1l0.2,2.8v2
				c0,3-0.4,4.1-0.4,7c0,1.4,0.7,2.2,2.1,2.2C496.8,715.3,498,714.7,499.7,713.3z"/>
			<path d="M585.7,710.5c0-1.7-0.1-2.6-0.2-3.4c-0.1-0.7-0.2-1.6-0.2-3.3s0.1-2.6,0.1-3.4c0.1-0.8,0.2-1.7,0.2-3.4v-3.4v-3.3v-3.4
				v-3.4c0-1.7-0.1-2.6-0.1-3.4c0-0.8-0.1-1.6-0.1-3.4c0-2.4,0.2-4.7,0.5-6.8c0.5-2.4,1.2-4.6,2-6.6c0.1-0.1,0.1-0.3,0.2-0.5
				c0.7-2.1,1.7-4.1,2.9-5.8c1.4-1.7,3.2-3.3,5.1-4.6c1.8-1.3,3.8-2.3,6.1-3.1c2.1-0.8,4.3-1.4,6.6-1.8c2.1-0.5,4.3-0.6,6.8-0.6h1.1
				c2.1-0.1,4,0,5.8,0.3c2.3,0.5,4.5,1.1,6.6,1.9c2.3,0.8,4.2,1.9,6.1,3.2c1.7,1.4,3.2,3,4.4,4.9c0.1,0.1,0.1,0.2,0.2,0.3
				c1.4,1.7,2.4,3.7,3.2,6c0.2,0.4,0.4,0.7,0.5,1.2c0.8,1.6,1.4,3.4,1.7,5.3c0.3,2.1,0.5,4.3,0.5,6.8c0,1.4,0.1,2.3,0.2,2.9
				c0.1,0.7,0.2,1.4,0.2,2.9c0,1.4-0.2,2.2-0.3,2.9c-0.1,0.6-0.3,1.4-0.3,2.8c0,1.6-0.9,2.5-2.8,2.6c-2.4,0-3.7,0.1-4.9,0.4
				c-1.2,0.1-2.4,0.4-4.9,0.4c-1.5,0-3.1-1.6-3.1-3.3c0-1.5,0.1-2.4,0.1-3.2c0-0.7,0.1-1.6,0.1-3.2c0-1.5-0.1-2.4-0.1-3.2v-3.2
				c0-2.7-0.5-5.1-1.7-7.1c-1.2-2.3-2.8-3.9-5-5.1c-2-1.2-4.3-1.8-7.1-1.8s-5.1,0.5-7.1,1.6c-2.3,1.2-4.1,2.8-5.3,5.1
				c-1,2.1-1.5,4.5-1.5,7.2c0,1.8,0,2.7-0.1,3.5v3.5v3.6v3.5v3.5c0,0.8-0.1,1.8-0.1,3.5v3.5v3.6c0,1.7,0.1,2.7,0.1,3.5
				c0.1,0.8,0.1,1.7,0.1,3.5v3.5c-0.1,0.8-0.1,1.8-0.1,3.5c0,1.8,0.1,2.7,0.2,3.5c0.1,0.8,0.3,1.8,0.3,3.6c0,1.7,0,2.7,0.1,3.5
				c0,0.8,0.1,1.7,0.1,3.5c0,1.8-0.2,2.7-0.3,3.5c-0.1,0.8-0.3,1.7-0.3,3.5s0,2.7,0.1,3.5c0,0.8,0.1,1.8,0.1,3.5
				c0,2.8,0.5,5.2,1.3,7.2c1.2,2.3,3,4.1,5.3,5.2c1.9,1,4.4,1.1,7.2,1.1c2.6,0,5.2-0.2,7.1-1.2c2.2-1.2,3.8-3,4.9-5.3
				c1.1-2.1,2-4.3,2-7.1v-3.7c0-1,0.1-1.9,0.1-3.8c0-1.8-0.3-2.9-0.4-3.7c-0.1-0.8-0.3-1.9-0.3-3.7c0-1.9,0.2-2.8,0.3-3.8
				c0.1-0.8,0.3-1.9,0.3-3.7c0-1.7-1.5-3.3-3.3-3.3c-1.2,0-1.9,0.1-2.5,0.1c-0.6,0-1.4,0.1-2.5,0.1c-1.7,0-2.9-1.4-2.9-2.9
				c0-2.1,0.1-3.3,0.2-4.2c0-1.2,0.1-2.4,0.1-4.8c0-1.6,0.9-2.5,2.6-2.8h3.4c0.8,0,1.7-0.1,3.4-0.1c1.8,0,2.7-0.1,3.5-0.2
				c0.8-0.1,1.7-0.2,3.4-0.2c1.8,0,2.7,0.1,3.5,0.4c0.8,0.1,1.7,0.3,3.4,0.3c1.6,0,2.5,0.9,2.6,2.6v3.6v3.6c0,1.8,0.2,2.7,0.3,3.7
				c0.1,0.8,0.2,1.8,0.2,3.6c0,1.8,0,2.6-0.1,3.6c0,0.8-0.1,1.8-0.1,3.6c0,1.8,0.1,2.6,0.1,3.6v3.5c0,1.8,0.1,2.8,0.2,3.6
				c0,1,0.1,1.8,0.1,3.6c0,2.4-0.3,4.6-0.7,6.7v0.2c-0.4,1.9-0.9,3.7-1.7,5.3c-0.2,0.5-0.4,0.8-0.5,1.2c-0.2,0.4-0.4,0.7-0.5,1.1
				c-0.6,1.9-1.4,3.6-2.5,5.2c-1.4,1.9-3,3.5-4.8,4.9c-1.8,1.2-3.8,2.2-5.9,3c-0.1,0-0.3,0-0.4,0.1c-2,0.8-4.2,1.4-6.5,1.8
				c-2.2,0.4-4.4,0.5-6.9,0.5H614c-1.9,0.1-3.6,0.1-5.3-0.2c-1.7-0.4-3.3-0.9-4.8-1.6c-0.6-0.3-1.2-0.5-1.7-0.7
				c-0.3-0.1-0.5-0.3-0.8-0.4c-1.9-0.6-3.7-1.5-5.3-2.6c-1.9-1.4-3.5-3-4.9-4.8c-1.2-1.7-2.1-3.5-2.8-5.6l-0.3-0.5
				c-0.8-2.1-1.4-4.2-1.8-6.6c-0.4-2.2-0.5-4.4-0.5-6.9c0-1.7-0.1-2.6-0.2-3.3c0-0.8-0.1-1.7-0.1-3.4c0-1.7,0-2.6-0.1-3.4V731
				c0-1.7,0-2.6,0.1-3.4v-3.4c0-1.7,0.1-2.6,0.2-3.3c0.1-0.8,0.2-1.7,0.2-3.4c0-1.7,0-2.6-0.1-3.4V710.5z"/>
			<path d="M672.3,696.1c0.1,1,0.1,1.8,0.1,3.6c0,1.8,0,2.8-0.3,3.6c-0.1,0.8-0.3,1.8-0.3,3.6s0.1,2.8,0.2,3.6
				c0,0.8,0.1,1.8,0.1,3.6c0,1.7-0.2,2.7-0.2,3.5c-0.1,1-0.2,1.8-0.2,3.6v3.6v3.6c0,1.8,0.2,2.6,0.3,3.6c0.1,0.8,0.3,1.7,0.3,3.5
				c0,1.8-0.2,2.8-0.3,3.6c-0.1,0.8-0.2,1.8-0.2,3.6c0,1.8,0.2,2.8,0.3,3.6c0.1,0.8,0.2,1.8,0.2,3.6c0,1.8-0.1,2.7-0.2,3.5
				c-0.1,1-0.3,1.8-0.3,3.6v3.6v3.6c0,1.8,0.2,2.8,0.3,3.6c0.1,0.8,0.3,1.8,0.3,3.5c0,1.7-1.5,2.8-3.3,2.8h-2.7h-2.7
				c-1.4,0-2,0-2.7,0.1c-0.6,0-1.3,0.1-2.6,0.1c-1.7,0-2.9-1.3-2.9-3c0-1.8,0-2.9-0.1-3.7c0-0.8-0.1-1.9-0.1-3.4v-3.8
				c0.1-0.8,0.1-1.7,0.1-3.4c0-1.8-0.1-2.8-0.1-3.6s-0.1-1.8-0.1-3.6c0-1.8,0.2-2.6,0.2-3.6c0.1-0.8,0.2-1.7,0.2-3.5
				c0-1.8,0.1-2.8,0.1-3.6v-3.6c0-1.8-0.1-2.8-0.2-3.6c-0.1-0.8-0.2-1.8-0.2-3.6v-3.6c0-0.8,0.1-1.7,0.1-3.5c0-1.8-0.1-2.8-0.2-3.6
				c-0.1-0.8-0.2-1.8-0.2-3.6s0.2-2.8,0.3-3.6c0.1-0.8,0.3-1.8,0.3-3.6c0-1.8,0-2.7,0.1-3.5c0-1,0.1-1.8,0.1-3.6
				c0-1.8-0.3-2.8-0.4-3.6c-0.3-0.8-0.4-1.8-0.4-3.6c0-1.8,0.1-2.6,0.1-3.6c0.1-0.8,0.2-1.7,0.2-3.5v-3.6c0.1-0.8,0.1-1.8,0.1-3.6
				v-3.6c0-0.8-0.1-1.8-0.1-3.6s0-2.7-0.1-3.5v-3.6v-3.6v-3.6c0-1.8,0.1-2.8,0.1-3.6c0.1-0.8,0.1-1.8,0.1-3.6c0-1.5,1.3-2.9,3-2.9
				c1.4,0,2,0.1,2.6,0.1c0.7,0.1,1.4,0.2,2.7,0.2c1.4,0,2.1-0.1,2.7-0.1h2.7c1.6,0,2.5,0.9,2.7,2.7c0,1.8,0,2.8-0.1,3.6v3.6v3.6v3.6
				v3.6v3.6c0,1.8,0.1,2.6,0.1,3.6c0,0.8,0.1,1.7,0.1,3.5c0,1.8-0.1,2.8-0.1,3.6c0,0.8-0.1,1.8-0.1,3.6c0,1.8,0.2,2.8,0.3,3.6
				c0.1,0.8,0.2,1.8,0.2,3.6C672.2,694.4,672.3,695.3,672.3,696.1z"/>
			<path d="M688.5,774.9c-0.8-0.1-1.4-0.1-2.3-0.1c-0.9,0.1-4.9-0.1-4.8-3c0-2.9,0.4-4.2,0.4-7.1l0.1-3.6c0.1-1,0.2-2.9,0.2-5.8
				l-0.2-14.4c-0.2-2.6-0.3-4.3-0.3-5.1c0-2,0-3.2,0.1-3.6v-3.6c0-2,0-3.2-0.1-3.6c0-3.3,0-5.2,0.1-5.7c0.1-1.3,0.1-2.2,0.2-2.8
				c0.1-0.6,0.1-2.1,0.1-4.4l0.1-5.1c0-1-0.1-2.2-0.3-3.6c-0.1-0.8-0.2-2-0.2-3.5c0-2,0-3.2,0.1-3.6v-3.6c0-3.2-0.4-4.1-0.4-7.2
				c0.2-3.4,0.7-8,0.5-9.3c0.2-1.6,0.2-2.3,0.2-5.1c0-3.6-0.7-3.6-0.7-7.1c0-0.6,0.1-2.4,0.3-5.1v-4.3l0.2-2.9
				c0-1.7-0.2-5.2,2.9-5.2c1.8,0,2.8-0.1,3.6-0.1h1.5c0.5-0.1,2.5-0.1,5.9-0.1c0.5,0.1,2.3,0.1,5.9,0.1l2.9,0.2h5.9h3.7
				c2.5,0,5,0.3,7.4,0.7c11.5,1.7,17.5,7.6,19.3,19.2c0.4,2.3,0.5,5.4,0.5,9.7l0.2,3v2.3l-0.2,7.5c0,1.4,0.2,2.8,0.2,4
				c0,3.5-0.6,7-2,10.5c-1,2.2-2.4,4.2-4.1,5.9c-0.1,0-0.1,0-0.1,0.1l-1.9,1.9c-0.5,0.6-0.8,1.1-0.8,1.4c0,0.5,0.5,1.4,1.3,2.5
				l0.4,0.6c0.9,1.4,1.7,2.5,2.4,3.4c1.1,1.5,1.9,3.4,2.4,5.5c1.2,3.2,1.8,5.9,1.9,8c0.4,3.1,0.5,6.1,0.5,9.1c0,1.6,0.1,2.9,0.4,3.7
				c0.2,1.4,0.3,2.7,0.3,3.8c0,2.2-0.5,4.3-0.5,9.8l0.1,7.5l0.1,5.2c0,1.7-1.4,2.9-2.9,2.9c-1.2,0-1.9,0-2.4-0.1l-8.4,0.1
				c-1.7,0-3.2-1.2-3.3-2.9c0-2.4,0.5-5.5,0.5-8c0-1.7-0.4-4.3-0.4-5.9c0-2.3,0-3.7-0.1-4.2v-4.2c0-1.8,0.1-3.2,0.2-4.2
				c0.1-1,0.2-2.4,0.2-4.2c0-6.2-0.5-10.9-1.7-14.1c-1.3-3.5-3.5-5.3-6.8-5.3c-2.6,0-7.1,2.5-9.5,4c-2.1,1.1-3,1.7-6.3,3.5
				c-1.4,0.8-2.9,2.8-2.9,4.3l0.2,7.7c0,0.6,0.1,2.4,0.3,5.3v2.3c0,2.1,0,3.4-0.1,3.9c-0.1,0.5-0.1,0.9-0.1,1.5v15.2
				c0.1,1.6-0.1,5.6-3,5.3H688.5z M704,713.3c0.6-0.5,1.5-1.1,2.7-1.7c1.5-0.8,2.5-1.3,2.9-1.4c2.4-0.8,4.9-2.2,7.3-4.3l2-1.4
				c4.2-2.6,6.4-6.4,6.4-11.3c0-1.4-0.1-2.9-0.3-4.3c-0.3-1.1-0.4-2.5-0.4-4.4c0-2.5,0.5-6.2,0.5-8.8c0-2.5-0.3-4.9-0.8-7
				c-1.5-5-5.2-7.5-10.9-7.5h-1.6l-2.4-0.2h-8c-1.5,0-3.3,1.6-3.3,3.3c0,0.8,0,1.5,0.1,2.1c0.1,1.5,0.1,3.2,0.1,4.9
				c0,1.9,0,3-0.1,3.4v3.5c0,1.5,0.1,2.7,0.2,3.4c0.2,1.3,0.3,3.2,0.3,5.7l0.2,2.8v2c0,2.2-0.5,4.2-0.5,9.1l0.2,2.8v2
				c0,3-0.4,4.1-0.4,7c0,1.4,0.7,2.2,2.1,2.2C701.1,715.3,702.4,714.7,704,713.3z"/>
			<path d="M761.3,774.5c-1.7,0-2.6,0-3.4,0.1c-0.7,0-1.6,0.1-3.3,0.1s-2.8-1.3-2.8-3c0-2.2-0.1-3.2-0.1-4.3v-2.9c-0.1-1.9,0-3,0-4
				v-3.2c0-1.8-0.1-2.7-0.1-3.5c-0.1-1-0.1-1.8-0.1-3.6v-3.6v-3.5c0-1.8,0.1-2.8,0.1-3.6c0.1-0.8,0.1-1.7,0.1-3.5
				c0-1.8-0.1-2.8-0.2-3.6c0-0.8-0.2-1.7-0.2-3.5c0-1.8,0.1-2.8,0.2-3.6c0.1-0.8,0.2-1.8,0.2-3.5c0-1.8,0.1-2.8,0.1-3.6
				c0.1-0.8,0.2-1.8,0.2-3.5V711v-3.5c0-1.8-0.1-2.8-0.1-3.6c0-0.8-0.1-1.8-0.1-3.5c0-1.8-0.1-2.8-0.1-3.6c-0.1-0.8-0.2-1.8-0.2-3.6
				c0-1.7,0-2.7,0.1-3.5v-3.6c0-1.7,0-2.7-0.1-3.5v-3.6c0-1.7,0.1-2.7,0.2-3.5c0-0.8,0.2-1.8,0.2-3.6v-3.5c0-0.8,0.1-1.8,0.1-3.6
				s-0.2-2.7-0.3-3.5c-0.1-0.8-0.2-1.8-0.2-3.6c0-1.8,0-2.7,0.1-3.5v-3.6c0-1.5,1.3-3.3,3-3.3c1.4,0,2,0.2,2.7,0.3
				c0.6,0.1,1.3,0.3,2.6,0.3c1.4,0,2.1,0.1,2.7,0.1c0.7,0.1,1.4,0.1,2.7,0.1c1.7,0,3.3,1.1,3.3,2.6c0,1.8-0.1,2.8-0.2,3.6
				c0,0.8-0.1,1.7-0.1,3.5c0,1.8,0,2.7-0.1,3.5c0,0.8-0.1,1.8-0.1,3.6c0,1.7,0.1,2.7,0.1,3.5v3.5c0,1.8,0.1,2.8,0.1,3.6
				c0,0.8,0.1,1.7,0.1,3.5v3.5v3.5c0,1.8-0.1,2.8-0.2,3.6c0,0.8-0.1,1.7-0.1,3.5v3.5c0.1,0.8,0.1,1.8,0.1,3.6c0,1.7-0.1,2.7-0.2,3.5
				c0,0.8-0.1,1.8-0.1,3.5v3.6v3.5v3.5v3.5c0,1.8-0.1,2.8-0.1,3.6v3.5v3.5v3.5v3.6v3.5c0,1.8,0,2.7,0.1,3.5c0,0.8,0.1,1.8,0.1,3.6
				c0,1.7-0.1,2.7-0.1,3.5c0,0.8-0.1,1.8-0.1,3.5c0,1.7,1.6,2.9,3.3,2.9c1.9,0,3-0.1,3.8-0.1c1-0.1,2-0.1,3.9-0.1s3,0.2,3.8,0.3
				c1,0.1,2,0.3,3.9,0.3c1.9,0,3-0.1,3.8-0.1c1-0.1,2-0.1,3.9-0.1c1.9,0,2.8,0.1,3.8,0.1c1,0.1,2,0.2,3.8,0.2c1.7,0,2.5,0.9,2.6,2.6
				c0,2.3,0.2,3.4,0.3,4.5c0.1,1.1,0.3,2.3,0.3,4.4c0,1.7-1.4,2.7-3.2,2.7c-1.7,0-2.5,0.2-3.3,0.3c-0.8,0.1-1.6,0.2-3.4,0.2
				c-1.7,0-2.5-0.1-3.3-0.2c-0.8-0.1-1.7-0.3-3.4-0.3H785h-3.4c-1.7,0-2.5,0.2-3.3,0.3c-0.8,0.3-1.6,0.4-3.3,0.4
				c-1.7,0-2.6-0.2-3.4-0.3c-0.8-0.1-1.6-0.3-3.3-0.3h-3.4H761.3z"/>
		</g>
	</g>
	<path class="st1" d="M869.1,656.6c-11.3,6.2-18.2,26.1-19.9,31.7c-1.2,3.7-3,4.2-4.9,4.3c-1,0-2-0.2-3-0.5
		c-15.3-5.4-50.2-4-42,13.3c8.4,17.7,34.2,35.3,43.1,41.3c6.1,3.9,19.1,11.3,26.1-2.3c12-20.7,16.7-56.2,16.8-67.6
		C885.5,665.4,880.4,650.4,869.1,656.6z M815.8,696.5c-1.2,0.7-2.5,1.6-3.6,2.6c-1.1,1.1-1.8,2.2-2.1,3.5c-0.2,1.3,0,3,0.5,4.6
		c0.5,1.6,1.2,3.1,1.7,4.4c1.2,2.6,1.8,4.5,1.2,5.1c-0.6,0.5-2.5-0.3-4.8-2.5c-1.1-1.2-2.4-2.6-3.4-4.7c-1-2-1.9-4.7-1.4-7.9
		c0.3-1.6,1-3,1.8-4.2c0.9-1.2,1.9-2.1,2.9-2.8c2-1.3,4-1.9,5.6-2.2c3.3-0.5,5.3,0.1,5.4,0.9C819.9,694.1,818.2,695,815.8,696.5z"/>
	<path class="st1" d="M183,676.8c0.1,11.4,4.8,46.9,16.8,67.6c6.9,13.6,20,6.2,26.1,2.3c9-6.1,34.7-23.7,43.1-41.3
		c8.2-17.4-26.6-18.7-42-13.3c-1,0.3-2,0.5-3,0.5c-1.8-0.1-3.7-0.6-4.9-4.3c-1.7-5.5-8.6-25.5-19.9-31.7
		C188,650.4,182.9,665.4,183,676.8z M248.6,693.2c0.1-0.8,2.1-1.5,5.4-0.9c1.6,0.3,3.6,0.9,5.6,2.2c1,0.7,2,1.6,2.9,2.8
		c0.9,1.2,1.5,2.6,1.8,4.2c0.5,3.2-0.3,5.9-1.4,7.9c-1,2-2.3,3.5-3.4,4.7c-2.3,2.2-4.2,3.1-4.8,2.5c-0.7-0.6,0-2.4,1.2-5.1
		c0.5-1.3,1.2-2.8,1.7-4.4c0.5-1.6,0.7-3.2,0.5-4.6c-0.3-1.3-1-2.5-2.1-3.5c-1.1-1-2.4-1.9-3.6-2.6
		C250.2,695,248.5,694.1,248.6,693.2z"/>
</g>
</svg>
