<?xml version="1.0" encoding="utf-8"?>
<!-- Generator: Adobe Illustrator 22.0.0, SVG Export Plug-In . SVG Version: 6.00 Build 0)  -->
<svg version="1.1" id="Layer_1" xmlns="http://www.w3.org/2000/svg" xmlns:xlink="http://www.w3.org/1999/xlink" x="0px" y="0px"
	 viewBox="0 0 1080 1080" style="enable-background:new 0 0 1080 1080;" xml:space="preserve">
<style type="text/css">
	.st0{fill:#FD2B7B;}
	.st1{fill:#CE0100;}
	.st2{fill:#231F20;}
	.st3{fill:#08CCDA;}
</style>
<g>
	<g>
		<path class="st0" d="M286.4,417.3c-4.7,2.3-9.4,4.6-14.1,7c0-46.3,0-92.6,0-139c5,0,9.9,0,14.9,0
			C286.9,329.3,286.6,373.3,286.4,417.3z"/>
		<path class="st0" d="M344,393.4c0.9-36,1.8-72.1,2.7-108.1c5,0,9.9,0,14.9,0c-0.9,30.7-1.7,61.4-2.6,92.1
			c11.5-3.3,23-6.4,34.6-9.1c-0.1,3.3-0.2,6.6-0.3,10C376.7,382.6,360.3,387.6,344,393.4z"/>
		<path class="st0" d="M405.7,301.5c0.4-10.8,8.8-16.2,25.3-16.2c16.5,0.1,24.7,4.8,24.4,14.4c-0.5,17.3-1,34.5-1.5,51.8
			c-0.3,9.6-8.9,15.5-25.6,18.8c-16.8,3.4-24.9,0.2-24.5-10.6C404.5,340.2,405.1,320.8,405.7,301.5z M430.8,294.4
			c-6.6,0.1-10,2.3-10.1,6.4c-0.6,18.6-1.2,37.3-1.8,55.9c-0.1,4.2,3.1,5.6,9.8,4.4c6.7-1.2,10.1-3.7,10.2-7.6
			c0.5-17.8,1.1-35.6,1.6-53.4C440.7,296.2,437.4,294.3,430.8,294.4z"/>
		<path class="st0" d="M492.6,338.9c6.4-18.2,12.7-36,18.9-53.6c5,0,9.9,0,14.9,0c-8.6,24.6-17.5,49.5-26.5,75.3
			c-5.1,0.4-10.2,0.8-15.3,1.3c-8.1-24.7-16-50-23.7-76.6c5,0,9.9,0,14.9,0C481.3,303.6,486.9,321.4,492.6,338.9z"/>
		<path class="st0" d="M583.4,285.3c0,2.7,0.1,5.4,0.1,8c-11.6-0.1-23.2-0.1-34.8-0.1c0,7.9,0,15.8,0,23.7c8.4,0,16.7,0.1,25.1,0.3
			c0,2.7,0.1,5.3,0.1,8c-8.4-0.2-16.8-0.4-25.2-0.4c0,8.8,0,17.5,0,26.3c11.9,0.1,23.8,0.5,35.6,1.2c0,2.7,0.1,5.4,0.1,8
			c-17-1.1-34-1.5-51-1.2c0.1-24.6,0.2-49.1,0.3-73.7C550.4,285.3,566.9,285.3,583.4,285.3z"/>
		<path class="st0" d="M679.2,329.9c0.5,14.9,1,29.8,1.5,44.6c-5-1.2-10-2.3-15-3.3c-0.5-14.3-0.9-28.7-1.4-43
			c-8.8-15.2-17.5-29.4-26.2-43c5,0,9.9,0,14.9,0c6.1,9.8,12.2,20,18.4,30.6c5.5-9.8,10.9-20,16.4-30.6c5,0,9.9,0,14.9,0
			C694.8,301.2,687,316,679.2,329.9z"/>
		<path class="st0" d="M708.1,302.6c-0.4-11.5,7.7-17.2,24.3-17.3c16.5-0.1,25,6.6,25.2,20.3c0.5,24.3,1,48.6,1.5,73
			c0.3,13.7-7.6,17.1-23.9,11.5c-16.4-5.5-24.8-13.5-25.2-25C709.4,344.2,708.7,323.4,708.1,302.6z M732.6,296.5
			c-6.6-0.2-9.8,2.1-9.7,6.9c0.6,21.8,1.3,43.5,1.9,65.3c0.1,4.8,3.5,8.1,10,10.1c6.5,2,9.7,0.5,9.6-4.7
			c-0.6-23.2-1.2-46.3-1.7-69.5C742.6,299.4,739.3,296.7,732.6,296.5z"/>
		<path class="st0" d="M768.8,381.7c-0.6-32.1-1.2-64.2-1.7-96.4c5,0,9.9,0,14.9,0c0.4,33.8,0.9,67.5,1.3,101.3
			c0.1,5.9,3.3,10,9.7,12.6c6.4,2.6,9.5,0.8,9.5-5.5c-0.2-36.1-0.4-72.3-0.6-108.4c5,0,9.9,0,14.9,0c0,38,0,76.1,0,114.1
			c0,16.7-7.8,20.9-23.6,13.4C777.3,405.6,769.1,395.5,768.8,381.7z"/>
	</g>
	<g>
		<g>
			<path class="st1" d="M321,261.7c-1.3-2.8-2.3-5.7-2.7-8.8c-0.6-4-0.7-8.1-0.8-12.1c-0.4-10.5-0.7-21.1-0.7-31.6l0-6.6
				c0-1.1,0-2.1-1.3-2.7c-0.7-0.4-0.9-1.2-1.1-2c-0.2-0.8-0.3-1.5-0.3-2.1c0-2.6,1.2-4.8,3.3-6.8c2.6-2.4,5.9-3.5,9.4-3.7
				c1.4,0,2.7-0.1,4.1-0.1c2.5,0,4.9,0.1,7.4,0.5c3.3,0.5,6.2,2.1,8.9,4.1c0.8,0.6,1.5,1.3,2.3,1.9c4.9,3.5,6.5,8.6,6.5,14.2v0.5
				c-0.1,6.6-1.7,12.9-4.2,18.9c-1,2.6-2.8,4.8-4.2,7.1c-0.7,1.2-1.9,1.7-3,2.4c-1.3,0.7-1.9,1.2-1.9,1.7c0,0.5,0.5,1,1.6,1.8
				c2.6,2,4.6,4.4,6.3,7.2c1.6,2.5,2.5,5.2,3.1,8.1c0.1,0.6,0.2,1.2,0.2,1.7c0,1.7-0.5,3.3-1.6,4.8c-1,1.3-2.3,2.1-3.8,2.2l-1.3,0.1
				c-2.4,0-4.7-0.7-6.5-2.6c-2.4-2.6-4.6-5.3-7-7.9c-0.1-0.1-0.2-0.3-0.4-0.3l-0.3,0v2.6c0,0.9,0,1.8,0,2.7
				c-0.1,2.7-1.3,4.8-3.5,6.6c-0.9,0.7-2,1-3.1,1C324.1,264.7,321.9,263.5,321,261.7z M339.5,215.1c0.5-1.8,0.7-3.5,0.7-5.3
				c0-0.8,0-1.6-0.1-2.4c-0.2-2.9-1.7-4.8-4.2-6.1c-1.1-0.5-1.9-0.8-2.5-0.8c-1.1,0-1.5,1-1.6,3.2c0,1.9,0.2,3.8,0.2,5.7l-0.1,6.3
				l0,7.7c0.2,0.1,0.4,0.2,0.6,0.3C336,221.7,338.4,218.9,339.5,215.1z"/>
			<path class="st1" d="M365.4,264.1c-3.8,0-6-2.2-7.4-5.3c-1.3-3-1.5-6.4-1.8-9.6v-2.8c0-2.4,0.2-4.8,0.9-7
				c0.1-0.3,0.1-0.5,0.1-0.8c0-0.4-0.1-0.8-0.4-1.2c-0.8-1-1.1-2.2-1.2-3.4c0-0.3,0-0.7,0-1c0-1.5,0.5-2.8,1.7-3.8
				c2.7-2.2,3.9-4.9,4.4-8.4c1.1-7.9,3-15.6,5.9-23.1c1.2-3.2,3.1-6,5.6-8.3c1.8-1.7,3.8-2.9,5.9-2.9c1.1,0,2.2,0.3,3.4,1
				c0.3,0.2,0.6,0.3,1,0.3h0.6c1.6,0,2.9,0.8,4.2,1.8c5.1,3.8,7.6,9.2,8.5,15.5c0.8,5.8,0.7,11.6,1.3,17.4c0.8,7.6,1.8,15.2,3,22.8
				c0.2,1.2,0.3,2.4,0.3,3.5c0,4.6-1.5,8.9-4.3,12.8c-1.3,1.8-3.1,2.6-5.2,2.6c-0.6,0-1.3,0-1.9-0.2c-2.9-0.5-4.3-2.3-4.8-4.9
				c-0.5-2.8-0.5-5.6-0.8-8.5c-0.3-4.9-0.7-9.8-1.4-14.6c-0.2-1.3-0.4-1.8-1.1-1.8c-0.3,0-0.6,0.1-1.1,0.2c-2.5,0.7-5,1.5-7.5,2.3
				c-1.1,0.3-1.5,1.1-1.5,2.3c0.1,2.8,0.4,5.5,0.8,8.2c0.2,1.1,0.2,2.3,0.2,3.4c0,3.2-0.5,6.3-1.3,9.4
				C370.5,262.9,368.5,264.1,365.4,264.1L365.4,264.1z M379.7,220c1.6-0.3,1.9-0.6,1.9-2.3c0-2.1-0.1-4.3-0.3-6.3
				c-0.2-1.7-0.1-3.5-0.9-5.1c-1.7,4.6-3.5,9.1-4.4,14.2C377.4,220.3,378.5,220.2,379.7,220z"/>
			<path class="st1" d="M438.6,261.4c-1.3-1.7-2.4-3.5-3.1-5.6l-1.6-5c-0.9,0.4-0.7,1.2-0.9,1.8c-0.9,3.2-2.5,5.9-5.1,8
				c-0.8,0.7-1.6,1.5-2.4,2.2c-1.2,1-2.5,1.6-3.9,1.6c-0.8,0-1.6-0.2-2.5-0.6c-4.1-1.8-7.3-4.7-9.4-8.7c-2.7-5.1-3.6-10.6-4.1-16.1
				c-0.7-6.9-1-13.9-1-20.8c0-4.1,0.1-8.3,0.3-12.4c0.1-3.3,0.3-6.6,0.8-9.8c0.3-1.9,1-3.7,1.8-5.5c1-2.1,2.7-3.3,5-3.4h1.2
				c5.2,0,6.4,1.7,7.3,6.3c0.4,2,0.5,4,0.5,5.9c0,1.7-0.1,3.3-0.4,5c-0.5,3-0.8,6.1-0.8,9.1c0.1,7.1,0.8,14.1,1.4,21.2
				c0.6-0.3,0.8-0.6,0.8-0.9c1-4.6,2.6-8.9,4.1-13.4c0.8-2.4,2-4.5,3.2-6.6c1.6-2.7,3.8-3.6,6.2-3.6c1.5,0,3.2,0.4,4.7,1
				c1.5,0.6,2.3,2.2,2.9,3.7c1.6,4.4,2.8,8.9,3.5,13.5c0.3,2,0.6,3.9,1.1,5.8c0.7-2.6,0.8-5.3,1-8c0.5-5.3,0.9-10.5,1.5-15.8
				c0.4-2.8,0.4-5.6,0.4-8.4v-6c0-1.9,0.3-3.8,0.5-5.7c0.2-1.8,1-3.4,2.5-4.5c0.9-0.6,1.8-1.3,2.6-1.8c1.3-0.9,2.6-1.2,3.8-1.2
				c1.6,0,3.2,0.6,4.8,1.5c1.7,1,2.6,2.5,3,4.4c0.3,1.3,0.5,2.6,0.5,3.9l0,0.9c-0.5,5.6-0.1,11.3-0.8,17c-0.8,6.4-1.2,12.8-2,19.2
				c-0.5,3.6-1.5,7.1-2.3,10.5c-1.4,5.3-3.1,10.6-4.3,16c-1,4.4-4,6.9-7.6,8.9c-0.7,0.4-1.5,0.5-2.2,0.5h-1.6l-1.7,0.1
				C443.2,265.4,440.6,263.9,438.6,261.4z"/>
			<path class="st1" d="M477.1,261.7c-1.3-2.8-2.3-5.7-2.7-8.8c-0.6-4-0.7-8.1-0.8-12.1c-0.4-10.5-0.7-21.1-0.7-31.6l0-6.6
				c0-1.1,0-2.1-1.3-2.7c-0.7-0.4-0.9-1.2-1.1-2c-0.2-0.8-0.3-1.5-0.3-2.1c0-2.6,1.2-4.8,3.3-6.8c2.6-2.4,5.9-3.5,9.4-3.7
				c1.4,0,2.7-0.1,4.1-0.1c2.5,0,4.9,0.1,7.4,0.5c3.3,0.5,6.2,2.1,8.9,4.1c0.8,0.6,1.5,1.3,2.3,1.9c4.9,3.5,6.5,8.6,6.5,14.2v0.5
				c-0.1,6.6-1.7,12.9-4.2,18.9c-1,2.6-2.8,4.8-4.2,7.1c-0.7,1.2-1.9,1.7-3,2.4c-1.3,0.7-1.9,1.2-1.9,1.7c0,0.5,0.5,1,1.6,1.8
				c2.6,2,4.6,4.4,6.3,7.2c1.6,2.5,2.5,5.2,3.1,8.1c0.1,0.6,0.2,1.2,0.2,1.7c0,1.7-0.5,3.3-1.6,4.8c-1,1.3-2.3,2.1-3.8,2.2l-1.3,0.1
				c-2.4,0-4.7-0.7-6.5-2.6c-2.4-2.6-4.6-5.3-7-7.9c-0.1-0.1-0.2-0.3-0.4-0.3l-0.3,0v2.6c0,0.9,0,1.8,0,2.7
				c-0.1,2.7-1.3,4.8-3.5,6.6c-0.9,0.7-2,1-3.1,1C480.2,264.7,478,263.5,477.1,261.7z M495.6,215.1c0.5-1.8,0.7-3.5,0.7-5.3
				c0-0.8,0-1.6-0.1-2.4c-0.2-2.9-1.7-4.8-4.2-6.1c-1.1-0.5-1.9-0.8-2.5-0.8c-1.1,0-1.5,1-1.6,3.2c0,1.9,0.2,3.8,0.2,5.7l-0.1,6.3
				l0,7.7c0.2,0.1,0.4,0.2,0.6,0.3C492.1,221.7,494.5,218.9,495.6,215.1z"/>
			<path class="st1" d="M587,263.7c-1-0.3-1.3-1.2-1.8-2c-1.3-2.6-1.6-5.6-2.1-8.4c-1-5.7-1.3-11.5-1.3-17.2l0-4.8
				c0-0.4-0.1-0.8-0.1-1.3c-0.8,0.3-0.8,1-0.9,1.5c-0.7,2.2-1.5,4.3-2.6,6.3c-1.9,3.2-4.6,4.7-7.6,4.7c-1.5,0-3-0.4-4.5-1
				c-1-0.4-1.6-1.2-2.1-2c-2.3-3.8-4.7-7.5-6.4-11.6c-0.1-0.1-0.2-0.2-0.4-0.5c-0.2,0.3-0.2,0.6-0.2,0.9v0.6
				c0.2,6,0.2,11.9,0.8,17.9c0.1,0.8,0.1,1.7,0.1,2.5c0,2.5-0.3,4.9-0.5,7.3c-0.3,3.6-4,6.6-7.3,6.6l-0.6,0
				c-3.3-0.4-5.1-2.5-6.3-5.3c-1.2-3-1.7-6.2-1.9-9.4c-0.1-2.4-0.1-4.8-0.1-7.1c0-6,0.3-11.9,0.9-17.9c0.7-7.1,0.5-14.2,0.6-21.3
				c0-1.8,0-3.7,0-5.5c0-1,0.1-2,0.3-3c0.4-3,2.3-4.6,5-5.3c1.1-0.3,2.1-0.4,3-0.4c3.8,0,6.6,2.1,8.3,6.1l9.1,21.6
				c0.2,0.5,0.3,1,0.8,1.3c0.8-0.6,1-1.5,1.3-2.4c2.6-7.1,5.8-13.8,9.9-20.2c1.7-2.6,3.4-5.3,6.1-7.1c1.4-1,2.7-1.7,4.2-1.7
				c0.8,0,1.6,0.3,2.5,0.8c2.4,1.3,3.8,3.1,4.2,5.8c0.5,3.2,0.7,6.4,0.7,9.6c0,3.1-0.2,6.2-0.4,9.2c-0.3,4.1-0.4,8.3-0.4,12.4
				c0,5.5,0.3,10.9,0.9,16.5c0.6,4.8,1.3,9.5,1.5,14.4l0,0.5c0,1.8-0.5,3.3-1.5,4.7c-0.9,1.2-1.7,2.4-2.5,3.5
				c-0.5,0.8-1.2,1.2-2,1.4c-0.5,0.1-1.1,0.2-1.7,0.2C590.2,264.5,588.6,264.1,587,263.7z"/>
			<path class="st1" d="M611.1,263.6c-3.2-0.2-4.8-2.5-6-5c-0.7-1.5-0.8-3.1-1.1-4.7c-0.6-4.5-0.8-8.9-0.8-13.7
				c0-5.5,0.3-11.4,0.5-18c0.1-3.7,0-10.3,0.4-16.9c0.2-3.6,1-7.1,1.3-10.7c0-0.5,0.1-1,0.1-1.5c0-0.3,0-0.5-0.1-0.8
				c-0.1-0.5-0.2-1-0.2-1.4c0-1.3,0.6-2.1,2-3c1.4-0.8,3-1.3,4.6-1.5c2.8-0.4,5.6-0.6,8.4-0.6c2.2,0,4.3,0.1,6.5,0.3
				c2.5,0.2,4.9,1.3,7.4,1.7c1.3,0.3,2.1,1.2,2.5,2.4c0.5,1.4,0.7,2.7,0.7,4.1c0,1.8-0.4,3.6-1.2,5.3c-0.3,0.6-0.7,1.3-1.3,1.5
				c-2,0.7-4,1.7-6.2,1.7h-0.4c-2-0.1-4.1-0.3-6.2-0.3h-0.5c-1.4,0-1.5,0.3-1.8,1.8c-0.6,3.6-1,7.2-1,10.9v0.6c0,1.8,0.1,1.8,2,1.9
				l2.8,0l3.3,0c3.7,0,5.6,1.2,6.7,4.2c0.4,1.1,0.6,2.1,0.6,3.1c0,2.2-1,4.1-2.8,5.8c-2.4,2.2-5.1,3.1-8,3.1c-1.1,0-2.3-0.1-3.5-0.4
				c-0.6-0.1-1-0.2-1.3-0.2c-0.7,0-0.8,0.4-0.9,1.7c-0.1,0.9-0.1,1.8-0.1,2.6c0,2.6,0.3,5.3,0.8,7.9c0.1,0.8,0.5,1.1,1.1,1.1
				c0.2,0,0.3,0,0.5,0c0.6-0.2,1.2-0.3,1.8-0.5c0.8-0.3,1.6-0.5,2.5-0.5h0.3c3.2,0.2,6.4,0.3,9.6,0.6c3.3,0.3,5.1,2.2,5.5,5.4
				c0,0.5,0.1,1,0.1,1.6c0,2.2-0.6,4.2-1.6,6.2c-0.4,0.8-1,1.4-1.8,1.8c-2.5,1.3-5.1,2.1-7.9,2.1c-2.3,0-4.4,0.2-6.6,0.4
				c-1.7,0.2-3.4,0.3-5.1,0.3C614.7,263.8,612.9,263.7,611.1,263.6z"/>
			<path class="st1" d="M651.8,264.1c-3.8,0-6-2.2-7.4-5.3c-1.3-3-1.5-6.4-1.8-9.6v-2.8c0-2.4,0.2-4.8,0.9-7
				c0.1-0.3,0.1-0.5,0.1-0.8c0-0.4-0.1-0.8-0.4-1.2c-0.8-1-1.1-2.2-1.2-3.4c0-0.3,0-0.7,0-1c0-1.5,0.5-2.8,1.7-3.8
				c2.7-2.2,3.9-4.9,4.4-8.4c1.1-7.9,3-15.6,5.9-23.1c1.2-3.2,3.1-6,5.6-8.3c1.8-1.7,3.8-2.9,5.9-2.9c1.1,0,2.2,0.3,3.4,1
				c0.3,0.2,0.6,0.3,1,0.3h0.6c1.6,0,2.9,0.8,4.2,1.8c5.1,3.8,7.6,9.2,8.5,15.5c0.8,5.8,0.7,11.6,1.3,17.4c0.8,7.6,1.8,15.2,3,22.8
				c0.2,1.2,0.3,2.4,0.3,3.5c0,4.6-1.5,8.9-4.3,12.8c-1.3,1.8-3.1,2.6-5.2,2.6c-0.6,0-1.3,0-1.9-0.2c-2.9-0.5-4.3-2.3-4.8-4.9
				c-0.5-2.8-0.5-5.6-0.8-8.5c-0.3-4.9-0.7-9.8-1.4-14.6c-0.2-1.3-0.4-1.8-1.1-1.8c-0.3,0-0.6,0.1-1.1,0.2c-2.5,0.7-5,1.5-7.5,2.3
				c-1.1,0.3-1.5,1.1-1.5,2.3c0.1,2.8,0.4,5.5,0.8,8.2c0.2,1.1,0.2,2.3,0.2,3.4c0,3.2-0.5,6.3-1.3,9.4
				C656.9,262.9,655,264.1,651.8,264.1L651.8,264.1z M666.1,220c1.6-0.3,1.9-0.6,1.9-2.3c0-2.1-0.1-4.3-0.3-6.3
				c-0.2-1.7-0.1-3.5-0.9-5.1c-1.7,4.6-3.5,9.1-4.4,14.2C663.8,220.3,664.9,220.2,666.1,220z"/>
			<path class="st1" d="M722,264.4c-3-0.5-5.3-2-6.8-4.9c-2.5-5.1-4.6-10.3-6.3-15.7c-0.8-2.5-1.6-5-2.6-7.5c-0.1,1-0.2,2-0.2,2.9
				c0,1.3,0.1,2.6,0.3,3.9c0.3,2.7,0.4,5.4,0.4,8.1v2.9c0,4.5-2.8,6.9-6.2,8.9c-0.6,0.4-1.3,0.5-1.9,0.5c-1.2,0-2.4-0.6-3.4-1.4
				c-1.5-1.3-2.3-3-2.8-4.9c-0.6-2.1-0.7-4.3-0.8-6.4c-0.4-5.3-0.5-10.6-0.5-16c0-5.3,0.1-10.7,0.2-16c0-3.8,0.2-7.5,0.3-11.2v-1.3
				l0-1c0.2-1,0.3-2,0.3-2.9c0-2.2-0.5-4.3-1.9-6.3c-0.4-0.6-0.6-1.3-0.6-2.1c0-0.9,0.3-1.9,0.8-2.8c0.8-1.7,2-3.2,3.7-4
				c1.9-1,3.9-1.5,5.9-1.5c1.3,0,2.7,0.2,4.1,0.8c1.9,0.7,3.3,2,3.6,3.9c1.1,6.9,4.9,12.8,7,19.4c0.9,2.7,1.6,5.4,2.4,8.1
				c0.2,0.6,0.4,1.3,0.8,1.9c0.4-0.5,0.5-1,0.5-1.5v-0.6c0.1-1.8,0.1-3.5,0.1-5.3c0-2-0.1-3.9-0.2-5.9c-0.1-1.3-0.1-2.6-0.1-3.9
				c0-2.4,0.2-4.9,0.4-7.3c0.3-2.5,1.1-4.9,3-6.8c1.3-1.2,3.1-1.9,5-1.9c2.9,0,5.8,1.5,6.9,5.1c0.4,1.3,0.7,2.5,0.7,3.8l0,0.7
				c-0.3,4.5-0.5,8.9-0.8,13.3c-0.1,1.5-0.1,3-0.1,4.6c0,5.8,0.6,11.7,1.1,17.5c0.5,5.8,0.8,11.7,1,17.6v0.4c0,2.6-0.7,5.1-2,7.3
				c-0.5,1-1.1,2-1.7,3c-1.5,2.8-4.6,4.5-7.8,4.5C723,264.5,722.5,264.5,722,264.4z"/>
			<path class="st1" d="M759.1,265c-2.6,0-5-0.2-7.1-0.8c-4-1.1-7.4-3.1-9.6-6.9c-1.7-3-3.2-6.1-4-9.5c-0.3-1.2-0.4-2.2-0.4-3.1
				c0-3,1.5-4.5,4.8-6.6c0.7-0.4,1.4-0.6,2.1-0.6c0.5,0,1.1,0.1,1.6,0.3c2.2,0.8,4.2,1.8,5.5,3.9c1.2,1.9,2.3,3.8,3.8,5.5l1,1
				c0.6,0.6,1.4,0.9,2.1,0.9c0.4,0,0.8-0.1,1.3-0.2c1.3-0.5,2-1.5,2-2.8v-0.4c0-0.7-0.1-1.4-0.2-2.1c-0.5-2.3-1.3-4.6-2.8-6.5
				c-3.3-4.1-6.9-8.1-11.3-11c-1.7-1.1-3.2-2.5-4.6-4.1c-2.7-2.9-3.9-6.2-3.9-9.9c0-0.8,0.1-1.7,0.2-2.6c0.7-4.5,1.9-8.9,4.2-12.8
				c2.6-4.6,6.2-8.3,11-10.7c2-1,4.1-1.5,6.1-1.5c2.3,0,4.6,0.8,6.8,2.3c2.1,1.5,4,3.2,5.6,5.3c1,1.3,1.5,3.3,1.5,5.5
				c0,2.1-0.5,4.3-1.8,6c-1,1.4-2.9,2.1-4.9,2.1c-1.1,0-2.3-0.2-3.3-0.7c-1-0.5-1.8-1.2-2.6-1.9c-0.9-0.8-1.8-1.3-2.8-1.3
				c-0.4,0-0.9,0.1-1.3,0.3c-1.7,0.8-2.5,2.2-2.8,4.1c0,0.4-0.1,0.8-0.1,1.2c0,4.2,2.3,7.3,5.2,9.8c4.2,3.6,8.3,7.3,12.1,11.3
				c3.2,3.3,5,7.6,5.2,12.2l0,1.5c0,6.7-2.3,12.8-6.8,17.9c-2.7,3-6.2,4.8-10.1,4.8C760.1,265.1,759.6,265,759.1,265z"/>
		</g>
	</g>
	<g>
		<g>
			<path class="st2" d="M272.4,890.3c-2.4-0.9-3.5-3.4-4.4-5.7c-2.4-5.8-3.1-12.1-3.3-18.3c-0.6-15.9-0.9-31.9-1.3-47.4l-0.1-29.5
				c0-5.9,0.1-11.8,0.4-17.7c0.4-9.2,1.7-18.3,4.7-27c1.4-3.9,3.3-7.5,5.9-10.7c1.4-1.8,3.1-2.9,5.3-3.2c1.4-0.3,2.8-0.4,4.1-0.4
				c5.3,0,7.3,0.4,9.3,1.1c3.8,1.3,6,4.4,6.4,8.5c0.2,2,0.3,4,0.3,6c0,3.1-0.2,6.3-0.7,9.2c-2.9,18.1-3.9,36.3-3.9,54.5
				c0,11.8,0.4,23.6,0.9,35.5c0.3,5.4,0.3,10.8,0.3,16.2v16.3c0,1,0,2.1-0.2,3c-1.8,8.3-5.9,11.6-15,11.6
				C278.6,892,275.6,891.4,272.4,890.3z"/>
			<path class="st2" d="M372.9,895.2c-6.4-1.2-11.5-4.2-14.5-10.5c-5.3-10.9-9.9-22.1-13.6-33.8c-1.7-5.4-3.5-10.7-5.6-16
				c-0.3,2.1-0.4,4.2-0.4,6.3c0,2.8,0.2,5.6,0.5,8.3c0.7,5.8,0.8,11.6,0.8,17.4v6.3c-0.1,9.6-6,14.9-13.3,19.1
				c-1.3,0.8-2.8,1.2-4.1,1.2c-2.6,0-5.1-1.3-7.3-3c-3.3-2.7-5-6.4-6-10.5c-1.3-4.5-1.4-9.1-1.8-13.7c-0.9-11.4-1.2-22.7-1.2-34.2
				c0-11.4,0.3-22.8,0.4-34.2c0.1-8.1,0.4-16,0.7-24.1v-2.9l0.1-2.1c0.4-2.1,0.6-4.2,0.6-6.2c0-4.7-1.2-9.1-4.1-13.4
				c-0.9-1.3-1.3-2.9-1.3-4.5c0-2,0.6-4,1.6-5.9c1.8-3.6,4.3-6.8,7.9-8.6c4.1-2.1,8.3-3.1,12.6-3.1c2.9,0,5.8,0.4,8.8,1.6
				c4,1.4,7.1,4.3,7.7,8.3c2.3,14.9,10.5,27.5,15,41.6c1.9,5.7,3.5,11.6,5.2,17.5c0.4,1.3,0.8,2.7,1.7,4c0.9-1,1-2.1,1-3.1v-1.3
				c0.2-3.8,0.3-7.5,0.3-11.4c0-4.2-0.2-8.4-0.4-12.7c-0.2-2.8-0.3-5.6-0.3-8.4c0-5.2,0.4-10.5,0.9-15.7c0.6-5.5,2.3-10.5,6.4-14.5
				c2.7-2.6,6.6-4,10.7-4c6.2,0,12.5,3.3,14.9,10.8c0.9,2.7,1.4,5.5,1.4,8.2l-0.1,1.4c-0.5,9.6-1.2,19.1-1.6,28.6
				c-0.2,3.3-0.3,6.5-0.3,9.8c0,12.5,1.3,25,2.3,37.4c1.2,12.5,1.7,25.2,2.2,37.8v0.9c0,5.6-1.4,10.8-4.2,15.7
				c-1.2,2.1-2.4,4.3-3.7,6.4c-3.3,5.9-9.9,9.6-16.7,9.6C375.1,895.4,374.1,895.3,372.9,895.2z"/>
			<path class="st2" d="M496.1,892.5c-5.2-0.8-8.3-3.5-9.5-8.6c-1.3-5.8-2.2-11.6-2.2-17.6c-0.1-12-0.5-24-0.5-35.6L484,819
				c-0.1-13.2-0.1-25.3-0.5-37.4v-2.1c0-3.8,0.4-7.5,0.6-11.2v-0.5c0-1.9-0.9-2.6-2.6-2.6H481l-8.2,0.9l-1.4,0.1
				c-8,0-13.3-6.3-13.3-13.7c0-1.6,0.3-3.2,0.7-4.8c2.4-8.2,7.9-12.6,16.5-12.7c12.1-0.2,23.8-2.2,35.6-4.6
				c3.9-0.7,7.8-1.2,11.7-1.4h1.1c6.5,0,12,3,16.7,7.2c2.4,2.1,3.6,5.8,3.6,9.6c0,3.1-0.9,6.4-2.5,8.7c-4.3,5.9-9.5,9.6-17,9.6
				l-3-0.1c-3.5,0-4,1.1-4.5,5.5c-0.8,6.8-0.7,13.8-0.9,20.6c-0.1,4.8-0.2,9.6-0.2,14.4c0,18.2,0.7,36.3,0.7,54.5
				c0,4.8-0.1,9.6-0.2,14.4c-0.1,3-0.2,5.8-0.8,8.8c-0.4,2.2-1.4,4.1-3.1,5.4c-4.1,3.1-8.4,5.4-13.5,5.4
				C498.1,892.8,497.1,892.7,496.1,892.5z"/>
			<path class="st2" d="M558,889.3c-2.9-6-4.8-12.3-5.8-18.8c-1.3-8.6-1.4-17.3-1.8-26c-0.9-22.6-1.4-45.1-1.4-67.7l0.1-14.1
				c0-2.3-0.1-4.6-2.7-5.8c-1.5-0.8-2-2.6-2.3-4.2c-0.4-1.6-0.5-3.1-0.5-4.6c0-5.6,2.6-10.4,7-14.5c5.6-5.2,12.7-7.6,20.2-7.9
				c3-0.1,5.8-0.2,8.8-0.2c5.3,0,10.6,0.3,15.8,1c7,1,13.3,4.6,19.1,8.8c1.7,1.3,3.1,2.9,4.9,4.1c10.6,7.5,14,18.4,14,30.4v1
				c-0.2,14.1-3.7,27.6-9,40.6c-2.2,5.6-5.9,10.3-9,15.3c-1.4,2.5-4.1,3.7-6.5,5.1c-2.7,1.5-4,2.5-4,3.7c0,1,1.2,2.1,3.4,3.9
				c5.6,4.2,9.8,9.5,13.5,15.4c3.4,5.4,5.4,11.2,6.7,17.3c0.3,1.3,0.4,2.5,0.4,3.7c0,3.7-1.1,7.2-3.4,10.4c-2.1,2.9-4.9,4.5-8.2,4.7
				l-2.9,0.2c-5.2,0-10.1-1.5-13.9-5.6c-5.1-5.6-9.9-11.3-15-16.9c-0.2-0.3-0.4-0.6-0.9-0.6l-0.7,0.1v5.6c0,2,0,3.9-0.1,5.8
				c-0.3,5.8-2.7,10.4-7.5,14.2c-1.9,1.5-4.3,2.2-6.7,2.2C564.7,895.9,560,893.4,558,889.3z M597.7,789.5c1.1-3.8,1.5-7.5,1.5-11.5
				c0-1.7-0.1-3.4-0.3-5.1c-0.4-6.3-3.6-10.3-9-13c-2.3-1.2-4-1.8-5.4-1.8c-2.4,0-3.3,2.1-3.4,6.8c0,4,0.4,8.1,0.4,12.2l-0.2,13.4
				l0.1,16.6c0.4,0.2,0.9,0.4,1.3,0.6C590.2,803.7,595.3,797.7,597.7,789.5z"/>
			<path class="st2" d="M659.2,893.5c-6.8-0.4-10.4-5.3-12.9-10.7c-1.4-3.1-1.8-6.6-2.3-10c-1.3-9.6-1.8-19.2-1.8-29.4
				c0-11.7,0.5-24.4,1-38.7c0.3-8,0-22.1,0.8-36.3c0.4-7.7,2.1-15.2,2.7-22.9c0.1-1.1,0.3-2.1,0.3-3.1c0-0.5-0.1-1.2-0.2-1.8
				c-0.3-1.1-0.4-2.1-0.4-3c0-2.8,1.3-4.6,4.3-6.4c3-1.8,6.4-2.7,9.8-3.2c5.9-0.9,12-1.3,18-1.3c4.7,0,9.2,0.2,13.9,0.5
				c5.4,0.4,10.5,2.7,15.9,3.6c2.8,0.5,4.5,2.5,5.4,5.2c1.1,3,1.5,5.8,1.5,8.7c0,3.9-0.9,7.7-2.5,11.5c-0.5,1.3-1.4,2.8-2.8,3.3
				c-4.4,1.5-8.6,3.7-13.3,3.7h-0.8c-4.4-0.3-8.8-0.5-13.3-0.6h-1c-3,0-3.3,0.5-3.8,3.9c-1.3,7.7-2.1,15.5-2.1,23.3v1.3
				c0.1,3.9,0.2,3.9,4.3,4.1l6.1,0.1l7-0.1c8,0,11.9,2.5,14.3,9c0.9,2.3,1.3,4.6,1.3,6.6c0,4.7-2.1,8.8-6.1,12.4
				c-5.2,4.7-11,6.6-17.2,6.6c-2.4,0-5-0.3-7.5-0.8c-1.3-0.3-2.1-0.4-2.8-0.4c-1.4,0-1.7,0.9-1.9,3.6c-0.2,1.9-0.3,3.8-0.3,5.6
				c0,5.6,0.6,11.3,1.7,16.8c0.3,1.8,1.2,2.3,2.3,2.3c0.4,0,0.7,0,1.2-0.1c1.3-0.4,2.6-0.7,3.8-1.2c1.7-0.6,3.5-1.1,5.3-1.1h0.5
				c6.9,0.4,13.7,0.5,20.6,1.3c7,0.6,10.9,4.7,11.8,11.6c0.1,1.2,0.2,2.2,0.2,3.4c0,4.7-1.3,9-3.5,13.3c-0.8,1.6-2.1,3-3.8,3.8
				c-5.3,2.7-10.9,4.5-16.9,4.5c-4.8,0-9.5,0.4-14.2,0.9c-3.7,0.4-7.3,0.6-10.9,0.6C666.9,893.9,663,893.7,659.2,893.5z"/>
			<path class="st2" d="M727.2,891.6c-1.7-2.8-2.7-5.6-3-8.8c-0.3-2.7-0.4-5.4-0.4-8.1c0-4.5,0.5-9,1.9-13.4
				c4.5-14.1,10.6-27.5,16.3-41.1c1.5-3.7,2.9-7.3,4.2-11c0.7-2.2,1.1-4.3,1.1-6.4c0-3.2-0.7-6.3-2.1-9.4
				c-2.6-5.9-6.4-11.1-9.1-16.9c-3.6-7.7-6.7-15.7-8.6-24.1c-0.4-2.2-0.8-4.4-0.8-6.6c0-3.2,0.7-6.4,2.7-9.5
				c1.2-1.9,2.6-3.3,4.7-4.2c4.4-1.8,9-2,13.5-2.1h0.2c3,0,4.7,2.3,6.4,4.7c6.4,8.6,9.8,18.5,12.5,28.7c0.3,1.3,0.7,2.5,1.3,4.8
				c3.3-7,6.4-13.1,9.2-19.3c1.9-4.2,3.9-8.3,6.4-12.2c4-6.2,10.2-9.1,16.9-11c1-0.3,2-0.4,2.8-0.4c3.3,0,6,1.8,8.2,4.8
				c3.8,5,5.3,10.1,5.3,15.2c0,5.7-2,11.6-4.6,17.4c-3,6.8-7.5,12.7-11.1,19.2c-4.3,7.8-8.8,15.4-12.8,23.4
				c-1.3,2.8-2.1,5.6-2.1,8.4c0,3.3,1,6.8,3,10.2c3.1,5.2,5.6,10.8,7.9,16.4c4.1,10.2,8.4,20.3,11.9,30.7c0.9,2.5,1.3,4.9,1.3,7.4
				c0,1.7-0.2,3.4-0.7,5.2c-1.6,6.2-8.8,10.8-15.3,10.8c-1.2,0-2.3-0.1-3.5-0.4c-1.4-0.4-2.6-1.3-3.7-2.4c-2-2-3.8-4.1-4.9-6.6
				c-3.9-8.2-8-16.3-11.1-24.7c-1.2-3-2.5-6-4.1-9.7c-2.4,10.6-6.7,19.3-10.8,28.2c-2.4,5.4-6.2,10-10,14.5
				c-2.2,2.7-5.4,3.9-8.6,3.9C733.6,897.3,729.6,895.3,727.2,891.6z"/>
		</g>
	</g>
	<g>
		<g>
			<path class="st3" d="M670,483.7c3.7,5.1,7.3,10.2,11,15.3c0.2,0.6,0.4,1.2,0.7,1.7c8,12.1,14.8,25,20.7,38.2
				c3.6,8,7,16.1,10.5,24.2c2.2,5.2,4.2,10.5,7.9,14.9c1.4,2,2.7,3.9,4.1,5.9c2.9,3.9,6.1,7.7,9.6,11c1.7,1.7,3.4,3.3,5,5
				c4.9,5,10.1,9.7,15.7,13.9c1.6,1.3,3.1,2.6,4.7,3.9c0.6,1,1.6,1.6,2.6,2c1.4,1.7,3.1,3,5.1,3.9c3.3,3.5,7.5,5.9,11.3,8.7
				c1.2,1.8,3.5,2.3,4.8,3.9c2.3,2.2,4.7,4.3,6.8,6.7c2.8,3.2,2.8,5.5,0,8.7c-4.4,5-10.3,7.4-16.5,8.9c-15,3.8-30.3,4.2-45.6,3.6
				c-19.1-0.7-37.6-4.6-55.4-11.3c-0.9-0.3-1.8-0.6-2.9-0.9c-0.2,9.5,0.5,18.8,1,28.1c0.3,6.7,0.5,13.4,0.3,20.1
				c-0.3,8.1-5.4,12.8-11.9,16.4c-6.2,3.4-13.1,5.1-20.1,5.6c-16.6,1-32.9-0.4-48-8.1c-3.8-2-7.1-4.6-9.1-8.6
				c-0.4-0.9-0.8-1.7-2.1-1.4c-2.4,0.5-4.8,0.9-7.2,1.3c-0.8,0.1-1.3,0.5-1.6,1.3c-2.8,7.7-9.2,11.6-16.4,13.9
				c-20.8,6.6-41.2,4.4-61.2-3.9c-4.7-2-8.6-5.1-10.8-9.9c-0.6-1.2-1.2-1.3-2.5-1.1c-8.3,1.5-16.6,2.6-25,2.1
				c-8.9-0.5-17.6-2.1-25.8-6.1c-9-4.4-13.2-11.5-12.7-21.5c0.7-12.1,1.2-24.2,1.9-36.3c0.1-2.3-0.3-3.5-2.6-4.6
				c-5.1-2.4-10-5.1-14.9-7.8c-1.3-0.7-2.4-0.9-3.8-0.2c-14.5,6.7-29.6,11-45.5,12.4c-18.5,1.6-36.6,0.8-54-7.7
				c-22.5-11.1-28.4-38.1-22-55.5c3.8-10.3,10.5-18.3,19.1-24.9c1.7-1.3,2.6-2.8,3.2-4.8c7.1-23.8,20.6-42.2,44.2-51.8
				c25.1-10.2,48.2-6.1,69.3,10.3c2.9,2.3,5.7,4.8,8.5,7.2c1.1,1,1.8,1.6,2.9-0.1c2.1-3.4,4.5-6.7,6.7-10c0.6-0.6,1.2-1.2,1.7-1.8
				c5.8-7.8,12.2-15.1,19-22.1c7.5-7.7,15.7-14.7,24.1-21.4c3.2-2.2,6.4-4.4,9.6-6.6c0.8-0.6,2-0.8,2.2-2.1c0.9,0.3,1.6-0.2,2.3-0.6
				c3.7-2.1,7.3-4.3,11.1-6.2c18.4-9.4,37.9-14.9,58.6-15.8c6.1-0.3,12.3,0,18.4,0c5.1,0.7,10.1,1.5,15.2,2.2
				c3.2,0.9,6.5,1.7,9.7,2.7c23.8,7.4,43.2,21.4,59.7,39.7C664.5,477.3,667.2,480.5,670,483.7z M392.2,557.6
				c-0.1-19-15.4-33.7-34.9-33.6c-17.9,0.1-33.2,15.8-33.1,33.9c0.1,18.7,15.5,34.1,34,34.1C377.1,592,392.3,576.6,392.2,557.6z
				 M602.8,704.6c-0.4-1.9-0.5-3.2-0.9-4.4c-0.4-1.2-0.8-2.4-1.5-3.5c-1.8-3.1-4.9-3.6-7.8-1.4c-4.3,3.3-4.1,9.1,0.5,12
				c0.5,0.3,1.1,0.6,1.7,0.9c10.5,5.1,21.6,7.3,33.2,7.6c3.9,0.1,7.8,0.2,11.7-0.4c1.2-0.2,2-0.6,1.6-2c-1-3.6-1.7-7.4-3.7-10.8
				c-1.7-2.8-3.8-5-7.3-4.8c-3.3,0.3-5.5,2.5-7,5.4c-0.7,1.4-0.9,3-2.1,4.2c-1.1-3.8-2.2-7.5-4.4-10.7c-3-4.1-7.4-4.1-10.6-0.1
				C604.6,698.8,603.9,701.5,602.8,704.6z M504.6,706c-0.9-2.6-1.4-4.7-2.3-6.6c-2-4.2-6.4-4.5-9.2-0.9c-3.6,4.7-2.9,8.5,2.3,11.2
				c9,4.8,18.8,6.4,28.7,7.3c5.4,0.5,10.8,0.5,16.2,0c1.9-0.2,2.9-0.6,2.2-2.9c-1.1-3.8-2-7.6-4.3-10.9c-3-4.2-8-4.5-11.4-0.7
				c-1.9,2.1-3,4.6-3.8,7.7c-1.4-4.2-2.3-8.1-4.7-11.4c-2.8-3.8-6.7-4.2-9.9-0.7C506.7,700.2,505.7,702.8,504.6,706z M438.4,689.8
				c-0.8-2.9-1.1-5.5-2.5-7.7c-1.9-2.9-5.9-3.4-7.8-0.7c-3.3,4.9-4.3,8.4,1.1,11.8c1.1,0.7,2.1,1.4,3.2,2
				c13.2,6.4,27.1,6.8,41.3,4.6c1.4-0.2,1.5-1,1.2-2c-0.9-4.2-1.9-8.3-4.6-11.7c-2.9-3.7-7.2-3.7-10.4-0.3c-1.8,1.9-2.5,4.5-3.9,7.1
				c-0.9-3.7-2-6.9-3.8-9.8c-3.1-5-8.4-5-11.3,0.2C439.9,685.3,439,687.2,438.4,689.8z M485.5,658.2c0.6-3-0.2-5.9,0.6-8.5
				c0.6-1.9-0.2-2.6-2-3c-15.2-3.5-29.9-8.6-44.2-14.7c-5.7-2.4-11.6-4.7-18-4.8c-2,0-3.8,0.3-4.3,2.3c-0.5,2.1,0.9,3.4,2.8,4.3
				c15.1,7.4,30.6,13.6,46.5,18.7C473.1,654.5,479.3,656.3,485.5,658.2z M706.5,654.6c-13.9-8.2-27.8-16.4-42-24.8
				c0.5,3.6,1.1,6.8,1.2,10c0.1,2.3,1,3.2,3,4.1C680.9,649.1,693.4,652.6,706.5,654.6z M584.6,661.5c0.1-1.5,0.1-3,0.4-4.4
				c0.3-1.8,0-2.7-2.2-2.4c-2.8,0.4-5.7,0.5-8.5,0.7c-6.4,0.5-6.5,0.4-6,6.7c0.2,2.6-1.1,6.1,0.8,7.4c1.8,1.2,5.1,0.2,7.8,0
				C584.4,669.1,584.4,669.1,584.6,661.5z M341.2,519.1c11.1-4.5,21.4-4,31.5,1.5c-1.3-6.8-6.6-12.3-12.4-13.1
				C351.9,506.3,345.7,509.9,341.2,519.1z M345.2,623.1c1.8-3.3,2.8-6,0.7-8.6c-1.6-2.1-5-2.7-7.5-1.6c3.5,2.3,3.5,2.6,0,4.8
				c-0.4,0.3-0.9,0.5-1.4,0.8c-6.2,3.3-12.8,3.5-20.4,1.9c4.6,3.2,9.2,4.6,13.4,4.5c3.9-0.1,8.4-1,11.8-3.9
				C344,619.1,345.3,618.8,345.2,623.1z M300.8,590.2c0-3.5-2.4-6.7-5-6.7c-2.8,0-5.3,3.2-5.4,6.8c0,3.9,2.5,7,5.4,6.9
				C298.6,597.1,300.8,594,300.8,590.2z"/>
			<path class="st3" d="M577,429.6c-6.1,0-12.3-0.3-18.4,0c-20.7,0.9-40.2,6.4-58.6,15.8c-3.8,1.9-7.4,4.1-11.1,6.2
				c-0.8,0.4-1.4,0.9-2.3,0.6c0.9-13.1,2.3-26.1,5-39c2.2-10.1,4.9-20,10.5-28.8c6.7-10.6,15.9-13.1,27-7.4
				c10.2,5.1,17.9,13.1,25.2,21.5C562.9,408.2,570.2,418.7,577,429.6z"/>
			<path class="st3" d="M670,483.7c-2.8-3.2-5.5-6.4-8.3-9.5c-16.5-18.4-35.9-32.4-59.7-39.7c-3.2-1-6.5-1.8-9.7-2.7
				c12.8-10.9,26.1-21.1,41-28.8c7.3-3.8,14.8-6.9,23.2-7.2c7.5-0.2,13,3.1,16.5,9.7c4.2,8.1,5,16.9,4.8,25.7
				c-0.3,16.6-2.9,32.9-6.9,49.1C670.5,481.4,670.3,482.5,670,483.7z"/>
			<path class="st3" d="M713,563c-3.5-8.1-6.9-16.2-10.5-24.2c-6-13.2-12.7-26.1-20.7-38.2c-0.3-0.5-0.5-1.1-0.7-1.7
				c13-2.7,26-4.4,39.3-3.6c5.3,0.3,10.7,1.2,15.5,3.9c5.7,3.1,8.5,8.7,7.6,15.1c-1.2,8.9-5.5,16.4-10.2,23.7
				C727.2,547,720.4,555.2,713,563z"/>
			<path class="st3" d="M474.8,460.8c-8.4,6.7-16.6,13.7-24.1,21.4c-6.8,7-13.1,14.3-19,22.1c-0.5,0.7-1.1,1.2-1.7,1.8
				c-4.2-9.6-8.4-19.2-10.9-29.4c-1.3-5.3-1.9-10.6-1.6-16.1c0.5-7.8,5.6-12.9,13.4-13.4c7.1-0.5,13.9,0.9,20.6,3.2
				C459.7,453.3,467.5,456.4,474.8,460.8z"/>
			<path class="st3" d="M340.8,560.7c7.7,3.9,14.6-0.1,16.3-5.5c1.7-5.2,0.2-9.5-3.8-13.1c4.2-1.2,8.4-1.6,12.6-0.6
				c10.6,2.7,17.3,13.6,14.8,23.9c-2.7,11.4-13,18.1-24.2,15.7C346.9,579.2,339.6,569.8,340.8,560.7z"/>
			<path class="st3" d="M340.8,560.7c-1.2,9.1,6,18.5,15.7,20.5c11.2,2.3,21.5-4.3,24.2-15.7c2.5-10.4-4.2-21.2-14.8-23.9
				c-4.2-1.1-8.4-0.6-12.6,0.6c-1.7-0.7-3.4-1.5-5.2-2.2c6.9-5.6,20.7-5.7,30.1,3c8.4,7.9,10,21.9,3.4,31.8
				c-7,10.4-20.1,14-31.5,8.7c-10.1-4.8-16.3-17.1-13.5-26.6C337.9,558.1,339.4,559.4,340.8,560.7z"/>
		</g>
	</g>
</g>
</svg>
