<?xml version="1.0" encoding="utf-8"?>
<!-- Generator: Adobe Illustrator 22.0.0, SVG Export Plug-In . SVG Version: 6.00 Build 0)  -->
<svg version="1.1" id="Layer_1" xmlns="http://www.w3.org/2000/svg" xmlns:xlink="http://www.w3.org/1999/xlink" x="0px" y="0px"
	 viewBox="0 0 1080 1080" style="enable-background:new 0 0 1080 1080;" xml:space="preserve">
<style type="text/css">
	.st0{fill:#CE0100;}
	.st1{fill:#FD2B7B;}
	.st2{fill:#08CCDA;}
	.st3{fill:#FDD513;}
</style>
<g>
	<g>
		<g>
			<path class="st0" d="M403.5,601.8c0,2.5-6.3,3.8-18.8,3.8c-12.5,0-18.8-1.3-18.8-3.8v-95.2h-22.8c-2.2,0-3.7-2.9-4.6-8.7
				c-0.4-2.8-0.6-5.6-0.6-8.5c0-2.9,0.2-5.8,0.6-8.5c0.9-5.8,2.4-8.7,4.6-8.7h82.5c2.1,0,3.7,2.9,4.6,8.7c0.4,2.8,0.6,5.6,0.6,8.5
				c0,2.9-0.2,5.8-0.6,8.5c-0.9,5.8-2.4,8.7-4.6,8.7h-22.2V601.8z"/>
			<path class="st0" d="M447.9,535.9c-3.5-6.3-5.3-11.5-5.3-15.5s1.1-6.5,3.2-7.7c7.2-3.2,17.1-4.7,29.7-4.7
				c12.6,0,21.5,2.9,26.7,8.8c5.2,5.9,7.8,14.6,7.8,26.1v30h6.4c2.1,0,3.8,1.3,5,3.8c1.2,2.5,1.8,6,1.8,10.4c0,4.4-1.1,8.8-3.3,13.1
				c-2.2,4.3-5.2,6.4-9,6.4c-6.8,0-12.3-1.8-16.5-5.5c-1.9-1.5-3.4-3.3-4.4-5.5c-5.8,7.3-14.9,11-27.1,11c-9.2,0-17-3.3-23.3-9.9
				c-6.3-6.6-9.5-14.3-9.5-23.3c0-20.6,12.3-30.9,37-30.9h10.4v-1.9c0-3.3-0.5-5.4-1.6-6.4c-1.1-0.9-3.6-1.4-7.5-1.4
				C463.6,532.9,456.8,533.9,447.9,535.9z M463.1,570.8c0,2.8,0.8,4.9,2.3,6.4c1.5,1.5,3.4,2.2,5.8,2.2c2.3,0,4.5-0.9,6.4-2.8v-14.6
				h-5.3C466.1,561.9,463.1,564.9,463.1,570.8z"/>
			<path class="st0" d="M534,473.5c0-2,5.8-3,17.3-3c10.7,0.4,16.1,1.2,16.1,2.5v72.8l18.8-34.7c0.9-1.9,6.3-2.8,16.1-2.8
				c9.9,0,16.2,0.6,19,1.9l-24.7,40.2l28.5,53.3c0.3,0.5-2.1,0.9-7.1,1.2c-5,0.3-9.1,0.5-12.4,0.5c-12.1,0-18.7-0.6-19.5-1.7
				l-18.8-42.1v41.9c0,1.6-5.5,2.5-16.6,2.5c-11.1,0-16.6-0.8-16.6-2.3V473.5z"/>
			<path class="st0" d="M701.7,599.7c-8,4.7-18.2,7-30.7,7c-12.5,0-23.1-4.3-31.7-12.8c-8.6-8.5-12.9-20.4-12.9-35.5
				c0-15.1,4.1-27.3,12.4-36.5c8.3-9.2,18.7-13.8,31.4-13.8s22.4,3.2,29.3,9.7c6.9,6.4,10.3,14.3,10.3,23.5
				c0,20.5-11.8,30.7-35.3,30.7h-13.1c0,3.8,1,6.4,3.1,7.9c2.1,1.5,5.2,2.2,9.2,2.2c8.8,0,17.3-2,25.2-6.1c0.1-0.1,0.7,0.8,1.7,2.7
				c3,5.4,4.6,10,4.6,13.8C705.3,596.1,704.1,598.5,701.7,599.7z M678,544.8c0-5.3-2.6-8-7.8-8c-2.4,0-4.5,0.7-6.2,2.2
				c-1.7,1.5-2.6,3.6-2.6,6.4v5.9h10.2C675.9,551.3,678,549.1,678,544.8z"/>
			<path class="st0" d="M761.8,603.6c0,0.9-4.6,1.3-13.7,1.3c-12.6-0.4-19-1.1-19-2.1v-61.5h-4.9c-3.3,0-5.4-2.8-6.4-8.3
				c-0.3-1.6-0.4-3.3-0.4-4.9c0-3.9,0.8-7.8,2.3-11.8c2.3-5.6,5.8-8.3,10.6-8.3c4.8,0,9.1,1.1,12.9,3.4c3.8,2.3,6.3,4.6,7.6,6.8
				c8-6.8,17.5-10.2,28.5-10.2c11,0,19,3,23.9,8.9c4.9,5.9,7.4,15.7,7.4,29.2v56.9c0,1.5-5.4,2.3-16.2,2.3
				c-10.8,0-16.2-0.8-16.2-2.3v-54.8c0-6.3-2.2-9.5-6.6-9.5c-1.3,0-3,0.5-5.3,1.6c-2.3,1.1-3.7,1.9-4.4,2.4V603.6z"/>
		</g>
	</g>
	<g>
		<path class="st1" d="M345.8,345.3c2.4,1.9,6.5,4.5,12.4,7.8c5.9,3.3,11.5,4.9,16.9,4.9c5.4,0,8.1-2.1,8.1-6.3c0-1.9-0.8-3.6-2.3-5
			s-4.3-3.1-8.3-5c-4-1.9-7.1-3.4-9.1-4.5c-2-1.1-4.7-2.8-8.1-5.3c-3.4-2.5-5.9-5-7.7-7.7c-5.1-7.2-7.6-16.4-7.6-27.5
			c0-11.1,4.1-20.5,12.4-28.2c8.3-7.6,19.1-11.5,32.5-11.5c9.1,0,17.5,1,25.2,2.9c7.7,2,11.7,4.5,12,7.7c0,0.4,0,0.8,0,1.1
			c0,4.4-1.4,10-4.2,16.8c-2.8,6.8-4.7,10.5-5.9,11.3c-8.1-4.2-15.3-6.3-21.7-6.3c-6.4,0-9.6,2.3-9.6,6.8c0,2.8,2.3,5.3,7,7.4
			c1,0.5,2.5,1.2,4.4,2.1c1.9,0.9,4.1,1.9,6.5,3.1c2.5,1.2,5.1,2.7,8,4.6c2.8,1.8,5.9,4.3,9.2,7.3c6.7,6.3,10.1,14.7,10.1,25
			c0,13.5-3.7,24.6-11.2,33.2c-7.5,8.6-19,13-34.5,13.3c-7.6,0-14.4-0.6-20.6-1.9c-6.1-1.3-11.5-3.7-16-7.4
			c-4.6-3.7-6.8-8.1-6.8-13.3s0.9-10.3,2.8-15.5C341.6,350.3,343.6,347,345.8,345.3z"/>
		<path class="st1" d="M475.3,286.1c0,0.9-5.8,1.3-17.4,1.3c-11.6,0-17.4-0.4-17.4-1.1V259c0-1.3,5.8-1.9,17.4-1.9
			c11.6,0,17.4,0.4,17.4,1.1V286.1z M475.3,390.5c0,1-5.8,1.5-17.4,1.5c-11.6,0-17.4-0.4-17.4-1.3v-93.1c0-0.9,5.8-1.3,17.4-1.3
			c11.6,0,17.4,0.4,17.4,1.1V390.5z"/>
		<path class="st1" d="M532,390.5c0,0.9-4.6,1.3-13.7,1.3c-12.6-0.4-19-1.1-19-2.1v-61.5h-4.9c-3.3,0-5.4-2.8-6.4-8.3
			c-0.3-1.6-0.4-3.3-0.4-4.9c0-3.9,0.8-7.8,2.3-11.8c2.3-5.6,5.8-8.3,10.6-8.3c4.8,0,9.1,1.1,12.9,3.4s6.3,4.6,7.6,6.8
			c8-6.8,17.5-10.2,28.5-10.2c11,0,19,3,23.9,8.9c4.9,5.9,7.4,15.7,7.4,29.2v56.9c0,1.5-5.4,2.3-16.2,2.3c-10.8,0-16.2-0.8-16.2-2.3
			v-54.8c0-6.3-2.2-9.5-6.6-9.5c-1.3,0-3,0.5-5.3,1.6s-3.7,1.9-4.4,2.4V390.5z"/>
		<path class="st1" d="M631.8,391.6c-12.3,0-21.8-3.9-28.5-11.9c-6.7-7.9-10.1-19.6-10.1-35.1c0-15.5,4.4-27.6,13.2-36.4
			c8.8-8.8,20.5-13.2,35.1-13.2c14.6,0,26.6,3.2,36.1,9.7v94.5c0,9.4-3.8,16.5-11.4,21.5c-7.6,5-17.3,7.5-29.2,7.5
			c-11.9,0-22.5-1.5-31.9-4.6c-1.3-3-1.9-5.8-1.9-8.2c0-8.1,1.3-14,4-17.8c8.5,3.7,17.5,5.5,27.1,5.5c7,0,10.4-2.5,10.4-7.4v-5.7
			C639.5,391.1,635.1,391.6,631.8,391.6z M640.5,326c-8.5,0-12.7,6.4-12.7,19.2c0,8,1.6,13.2,4.9,15.6c2.1,1.6,4.3,2.5,6.4,2.5
			c2.1,0,4-0.2,5.7-0.6v-36C643.4,326.2,641.9,326,640.5,326z"/>
		<path class="st1" d="M729.3,390.1c0,1.1-6.4,1.7-19.3,1.7c-10.1-0.1-15.2-0.6-15.2-1.5V261.1c0-1.9,6.1-2.8,18.4-2.8
			c10.7,0.4,16.1,1,16.1,1.9V390.1z"/>
		<path class="st1" d="M818.1,386.5c-8,4.7-18.2,7-30.7,7c-12.5,0-23.1-4.3-31.7-12.8c-8.6-8.5-12.9-20.4-12.9-35.5
			c0-15.1,4.1-27.3,12.4-36.5c8.3-9.2,18.7-13.8,31.4-13.8c12.6,0,22.4,3.2,29.3,9.7c6.9,6.4,10.3,14.3,10.3,23.5
			c0,20.5-11.8,30.7-35.3,30.7h-13.1c0,3.8,1,6.4,3.1,7.9c2.1,1.5,5.2,2.2,9.2,2.2c8.9,0,17.3-2,25.2-6.1c0.1-0.1,0.7,0.8,1.7,2.7
			c3,5.4,4.6,10,4.6,13.8C821.7,382.9,820.5,385.3,818.1,386.5z M794.4,331.7c0-5.3-2.6-8-7.8-8c-2.4,0-4.5,0.7-6.2,2.2
			c-1.7,1.5-2.6,3.6-2.6,6.4v5.9h10.2C792.3,338.1,794.4,336,794.4,331.7z"/>
	</g>
	<g>
		<g>
			<path class="st2" d="M441.5,805c0,2.1-6.4,3.2-19.2,3.2c-12.8,0-19.2-1.1-19.2-3.2v-43.6h-26.6V805c0,2.1-6.4,3.2-19.2,3.2
				c-12.8,0-19.2-1.1-19.2-3.2V679.2c0-2.7,6.4-4,19.2-4c12.8,0,19.2,1.3,19.2,4v44.6h26.6v-44.2c0-1.8,3.2-3,9.5-3.8
				c3.3-0.3,6.5-0.4,9.7-0.4l9.7,0.4c6.3,0.8,9.5,2,9.5,3.8V805z"/>
			<path class="st2" d="M458.6,714.5c0-1.4,5.4-2.1,16.3-2.1c10.9,0,16.3,0.7,16.3,2.1v55.4c0,6.3,2,9.5,6.1,9.5c3,0,6.4-1.3,10.2-4
				v-60.9c0-1.3,5.4-1.9,16.1-1.9c10.7,0,16.1,0.6,16.1,1.9v62.2h4.9c4.3,0,6.4,4.1,6.4,12.3c0,4.2-0.9,8.4-2.7,12.7
				c-2.5,5.6-5.9,8.3-10.2,8.3c-8.5,0-14.7-3.5-18.8-10.4l-0.2,0.2c-7.7,6.8-16,10.2-24.9,10.2c-12.3,0-21.3-3.1-27.1-9.2
				c-5.8-6.1-8.7-16.3-8.7-30.4V714.5z"/>
			<path class="st2" d="M602.3,807.1c0,0.9-4.6,1.3-13.7,1.3c-12.6-0.4-19-1.1-19-2.1v-61.5h-4.9c-3.3,0-5.4-2.8-6.4-8.3
				c-0.3-1.6-0.4-3.3-0.4-4.9c0-3.9,0.8-7.8,2.3-11.8c2.3-5.6,5.8-8.3,10.6-8.3c4.8,0,9.1,1.1,12.9,3.4c3.8,2.3,6.3,4.6,7.6,6.8
				c8-6.8,17.5-10.2,28.5-10.2c11,0,19,3,23.9,8.9c4.9,5.9,7.4,15.7,7.4,29.2v56.9c0,1.5-5.4,2.3-16.2,2.3
				c-10.8,0-16.2-0.8-16.2-2.3v-54.8c0-6.3-2.2-9.5-6.6-9.5c-1.3,0-3,0.5-5.3,1.6c-2.3,1.1-3.7,1.9-4.4,2.4V807.1z"/>
			<path class="st2" d="M702.1,808.2c-12.3,0-21.8-4-28.5-11.9c-6.7-7.9-10.1-19.6-10.1-35.1c0-15.5,4.4-27.6,13.2-36.4
				c8.8-8.8,20.5-13.2,35.1-13.2c14.6,0,26.6,3.2,36.1,9.7v94.5c0,9.4-3.8,16.5-11.4,21.5c-7.6,5-17.3,7.5-29.2,7.5
				c-11.9,0-22.5-1.5-31.9-4.6c-1.3-3-1.9-5.8-1.9-8.2c0-8.1,1.3-14,4-17.8c8.5,3.7,17.5,5.5,27.1,5.5c7,0,10.4-2.5,10.4-7.4v-5.7
				C709.8,807.7,705.4,808.2,702.1,808.2z M710.8,742.6c-8.5,0-12.7,6.4-12.7,19.2c0,8,1.6,13.2,4.9,15.6c2.1,1.6,4.3,2.5,6.4,2.5
				c2.1,0,4-0.2,5.7-0.6v-36C713.7,742.8,712.2,742.6,710.8,742.6z"/>
			<path class="st2" d="M806.6,808c0,0.9-5.8,1.3-17.3,1.3c-11.5-0.3-17.3-0.8-17.3-1.5v-63H767c-2,0-3.6-1.2-4.8-3.7
				c-1.2-2.5-1.8-5.5-1.8-9.2c0-13.7,4-20.5,12.1-20.5c5.7,0,10.4,1.7,14.2,5.2c3.8,3.5,5.7,7.4,5.7,11.9c2.7-5.2,6.2-9.3,10.7-12.4
				c4.5-3.1,9.1-4.6,13.8-4.6c7.3,0,11.8,1.9,13.3,5.7c0.4,1,0.6,2.5,0.6,4.5c0,2-0.6,5.5-1.8,10.5c-1.2,5.1-2.4,8.7-3.7,11
				c-1.3,2.3-2,3.4-2.3,3.4c-0.3,0-1.4-0.5-3.5-1.4c-2.1-0.9-4-1.4-5.6-1.4c-4.8,0-7.2,3.8-7.2,11.4V808z"/>
			<path class="st2" d="M833.6,714.3c0-1.4,5.8-2.1,17.4-2.1c11.6,0,17.5,0.6,17.9,1.9l13.7,44.8l13.1-45.1c0.5-1,4.4-1.5,11.8-1.5
				c16.8,0,24.8,0.8,24.1,2.5l-44.6,126.9c-0.1,0.8-3.6,1.1-10.3,1.1c-6.8,0-13.1-0.2-18.9-0.7c-5.8-0.4-8.6-1-8.3-1.6l16.5-39.8
				L833.6,714.3z"/>
		</g>
	</g>
	<path class="st3" d="M320.1,578.5c-6.5,0-13,0-19.5,0c0-30.3,0-60.7,0-91c6.5,0,13,0,19.5,0c10.8,0,10.8-16.7,0-16.7
		c-6.5,0-13,0-19.5,0c0-6.5,0-13,0-19.5c0-10.8-16.7-10.8-16.7,0c0,6.5,0,13,0,19.5c-30.3,0-60.7,0-91,0c0-6.5,0-13,0-19.5
		c0-10.8-16.7-10.8-16.7,0c0,6.5,0,13,0,19.5c-6.5,0-13,0-19.5,0c-10.8,0-10.8,16.7,0,16.7c6.5,0,13,0,19.5,0c0,30.3,0,60.7,0,91
		c-6.5,0-13,0-19.5,0c-10.8,0-10.8,16.7,0,16.7c6.5,0,13,0,19.5,0c0,6.5,0,13,0,19.5c0,10.8,16.7,10.8,16.7,0c0-6.5,0-13,0-19.5
		c30.3,0,60.7,0,91,0c0,6.5,0,13,0,19.5c0,10.8,16.7,10.8,16.7,0c0-6.5,0-13,0-19.5c6.5,0,13,0,19.5,0
		C330.9,595.2,330.9,578.5,320.1,578.5z M283.9,578.5c-30.3,0-60.7,0-91,0c0-30.3,0-60.7,0-91c30.3,0,60.7,0,91,0
		C283.9,517.8,283.9,548.1,283.9,578.5z"/>
	<path class="st3" d="M320.1,786.4c-6.5,0-13,0-19.5,0c0-30.3,0-60.7,0-91c6.5,0,13,0,19.5,0c10.8,0,10.8-16.7,0-16.7
		c-6.5,0-13,0-19.5,0c0-6.5,0-13,0-19.5c0-10.8-16.7-10.8-16.7,0c0,6.5,0,13,0,19.5c-30.3,0-60.7,0-91,0c0-6.5,0-13,0-19.5
		c0-10.8-16.7-10.8-16.7,0c0,6.5,0,13,0,19.5c-6.5,0-13,0-19.5,0c-10.8,0-10.8,16.7,0,16.7c6.5,0,13,0,19.5,0c0,30.3,0,60.7,0,91
		c-6.5,0-13,0-19.5,0c-10.8,0-10.8,16.7,0,16.7c6.5,0,13,0,19.5,0c0,6.5,0,13,0,19.5c0,10.8,16.7,10.8,16.7,0c0-6.5,0-13,0-19.5
		c30.3,0,60.7,0,91,0c0,6.5,0,13,0,19.5c0,10.8,16.7,10.8,16.7,0c0-6.5,0-13,0-19.5c6.5,0,13,0,19.5,0
		C330.9,803.1,330.9,786.4,320.1,786.4z M283.9,786.4c-30.3,0-60.7,0-91,0c0-30.3,0-60.7,0-91c30.3,0,60.7,0,91,0
		C283.9,725.7,283.9,756,283.9,786.4z"/>
	<path class="st3" d="M320.1,370.5c-6.5,0-13,0-19.5,0c0-30.3,0-60.7,0-91c6.5,0,13,0,19.5,0c10.8,0,10.8-16.7,0-16.7
		c-6.5,0-13,0-19.5,0c0-6.5,0-13,0-19.5c0-10.8-16.7-10.8-16.7,0c0,6.5,0,13,0,19.5c-30.3,0-60.7,0-91,0c0-6.5,0-13,0-19.5
		c0-10.8-16.7-10.8-16.7,0c0,6.5,0,13,0,19.5c-6.5,0-13,0-19.5,0c-10.8,0-10.8,16.7,0,16.7c6.5,0,13,0,19.5,0c0,30.3,0,60.7,0,91
		c-6.5,0-13,0-19.5,0c-10.8,0-10.8,16.7,0,16.7c6.5,0,13,0,19.5,0c0,6.5,0,13,0,19.5c0,10.8,16.7,10.8,16.7,0c0-6.5,0-13,0-19.5
		c30.3,0,60.7,0,91,0c0,6.5,0,13,0,19.5c0,10.8,16.7,10.8,16.7,0c0-6.5,0-13,0-19.5c6.5,0,13,0,19.5,0
		C330.9,387.3,330.9,370.5,320.1,370.5z M283.9,370.5c-30.3,0-60.7,0-91,0c0-30.3,0-60.7,0-91c30.3,0,60.7,0,91,0
		C283.9,309.8,283.9,340.2,283.9,370.5z"/>
	<path class="st1" d="M231.8,319.2c1.7-3.2,3.4-11,1.1-15.1c-2.3-4-9.4-9.5-12.3-8.7c-1.5,0.4-1.6,1.6-1.4,2.8
		c0.2,1.1,0.8,2.1,1.5,2.9C228.4,309,231.8,319.2,231.8,319.2L231.8,319.2z M255.4,338.8c12.5-11.8,17.2-24,15-32.2
		c-2.1-8.2-10.6-13.1-14.9-9.4c-4.3,3.7-1.6,7.4-1.6,7.4C264.4,318.8,255.4,338.8,255.4,338.8L255.4,338.8z M237.7,307.4
		c0,0,5.4-14.4,21.4-14.5c15.9-0.1,21.2,24.8,11.4,36.3c-9.8,11.5-20.6,20-32.3,28c0,0-19-11.9-31.7-28.8
		c-12.7-16.9,0.4-35.2,9.7-35.6C225.6,292.5,233.1,297.8,237.7,307.4L237.7,307.4z"/>
	<g>
		<g>
			<path class="st0" d="M266.2,559.4c0.3,0.5,0.5,0.9,1.1,1.8c0.4,0.8-0.2,1.2-1.5,1.2c-1.2,0-1.8,0-2.4,0.1c-0.6,0-1.3,0-2.5,0
				h-2.4c-0.6,0-1.2,0-2.5,0c-1.3,0-2.9-0.6-3.4-1.4c-0.5-0.7-0.7-1.2-0.9-1.6c-0.1-0.4-0.3-0.8-0.8-1.6c-0.5-0.8-0.8-1.2-1.1-1.6
				c-0.3-0.3-0.6-0.8-1.1-1.6c-0.5-0.7-0.8-1.2-1.1-1.6c-0.3-0.3-0.6-0.8-1.1-1.6c-0.5-0.8-0.8-1.3-1-1.6c-0.2-0.3-0.4-0.8-0.9-1.6
				c-0.5-0.8-0.8-1.3-1.1-1.6c-0.2-0.4-0.5-0.8-1-1.6c-0.5-0.7-0.8-1.2-1.1-1.6c-0.2-0.3-0.5-0.8-1-1.6c-0.5-0.7-0.8-1.2-1.1-1.6
				c-0.3-0.4-0.5-0.8-1.1-1.6c-0.5-0.7-1.1-0.7-1.7,0c-0.5,0.7-0.8,1.2-1.1,1.6c-0.3,0.4-0.6,0.9-1.1,1.6c-0.5,0.8-0.7,1.3-0.9,1.6
				c-0.1,0.4-0.4,0.8-0.9,1.6c-0.5,0.7-0.8,1.2-1.1,1.6c-0.3,0.3-0.6,0.8-1.1,1.6c-0.5,0.8-0.8,1.2-1.1,1.6
				c-0.3,0.3-0.6,0.8-1.1,1.6c-0.5,0.7-0.8,1.1-1,1.5c-0.3,0.5-0.5,0.9-1.1,1.7c-0.5,0.8-0.8,1.3-1,1.6c-0.2,0.4-0.5,0.9-1,1.6
				c-0.5,0.8-0.7,1.3-0.9,1.6c-0.2,0.4-0.4,0.9-0.9,1.6c-0.6,0.7-2,1.3-3.5,1.3h-3.8c-1,0-2,0-3.9,0c-1.4,0-1.9-0.6-1.5-1.3
				c0.5-0.9,0.8-1.3,1.1-1.7c0.3-0.4,0.5-0.9,1.1-1.7c0.5-0.9,0.8-1.3,0.8-1.8c0.2-0.4,0.4-0.9,0.9-1.7c0.5-0.9,0.8-1.3,1.1-1.7
				c0.2-0.4,0.5-0.8,1.1-1.7c0.5-0.9,0.8-1.3,0.8-1.7c0.2-0.5,0.4-0.9,0.9-1.8c0.5-0.8,0.9-1.3,1.2-1.6c0.4-0.4,0.8-0.8,1.3-1.7
				c0.5-0.8,0.8-1.3,1.1-1.7c0.3-0.4,0.6-0.9,1.1-1.7c0.5-0.9,0.7-1.4,0.8-1.8c0.1-0.5,0.2-0.9,0.8-1.8c0.4-0.9,0.8-1.3,1.1-1.7
				c0.3-0.4,0.6-0.9,1.1-1.7c0.4-0.8,0.5-1.9,0.2-2.7c-0.5-0.7-0.7-1.2-0.9-1.6c-0.2-0.4-0.5-0.8-0.9-1.6c-0.4-0.7-0.7-1.2-0.9-1.6
				c-0.3-0.4-0.5-0.8-0.9-1.6c-0.4-0.7-0.8-1.2-0.8-1.6c-0.2-0.4-0.4-0.9-0.9-1.6c-0.4-0.8-0.5-1.2-0.8-1.6
				c-0.1-0.4-0.4-0.9-0.8-1.6c-0.4-0.8-0.6-1.2-0.8-1.6c-0.3-0.3-0.5-0.8-0.9-1.6c-0.4-0.8-0.5-1.3-0.8-1.6
				c-0.1-0.4-0.4-0.9-0.8-1.6c-0.4-0.8-0.6-1.3-0.8-1.6c-0.2-0.4-0.5-0.8-0.9-1.6c-0.4-0.7-0.6-1.2-0.8-1.6
				c-0.2-0.3-0.5-0.8-0.8-1.6c-0.4-0.8-0.6-1.2-0.8-1.6c-0.2-0.4-0.5-0.8-0.8-1.6c-0.4-0.7,0.1-1.1,1.5-1.1h2.3h2.4
				c1.1,0,1.7,0,2.3,0c0.6,0,1.2,0,2.4,0c1.3,0,2.6,0.6,2.9,1.3c0.5,0.9,0.8,1.3,1.1,1.7c0.4,0.4,0.7,0.8,1.2,1.6
				c0.4,0.9,0.8,1.3,1,1.7c0.3,0.4,0.5,0.9,1.1,1.7c0.5,0.9,0.7,1.3,0.8,1.8c0.1,0.4,0.4,0.9,0.8,1.7c0.5,0.8,0.8,1.3,1.1,1.7
				c0.3,0.4,0.5,0.8,1.1,1.7c0.4,0.8,0.6,1.3,0.8,1.7c0.2,0.5,0.3,0.9,0.8,1.7c0.5,0.9,0.8,1.3,1,1.7c0.2,0.4,0.5,0.9,1,1.7
				c0.4,0.8,0.8,1.3,1.1,1.6c0.3,0.4,0.8,0.8,1.1,1.6c0.5,0.7,1.3,0.8,1.7,0.1c0.5-0.9,0.8-1.3,0.8-1.7c0.1-0.5,0.3-0.9,0.8-1.7
				c0.5-0.9,0.8-1.3,1.1-1.7c0.3-0.4,0.7-0.8,1.2-1.6c0.5-0.9,0.7-1.3,1-1.7c0.2-0.4,0.5-0.8,1-1.7c0.5-0.8,0.7-1.3,0.8-1.7
				s0.2-0.9,0.8-1.7c0.5-0.9,0.8-1.3,1.2-1.7c0.3-0.3,0.8-0.8,1.1-1.6c0.5-0.8,0.8-1.3,1-1.7c0.3-0.4,0.5-0.9,1.1-1.7
				c0.4-0.9,0.7-1.3,0.9-1.7c0.2-0.4,0.4-0.9,0.9-1.7c0.5-0.7,1.9-1.3,3.2-1.3c1.8,0,2.8,0,3.7,0c1,0,2,0,4.1,0
				c1.4,0,1.9,0.4,1.5,1.1c-0.4,0.8-0.7,1.3-0.9,1.6c-0.2,0.4-0.5,0.8-0.8,1.6c-0.4,0.7-0.6,1.2-0.7,1.6c-0.1,0.4-0.3,0.8-0.7,1.6
				c-0.4,0.7-0.7,1.2-0.9,1.6c-0.3,0.4-0.5,0.8-0.9,1.6c-0.5,0.8-0.6,1.3-0.8,1.6c-0.2,0.4-0.5,0.9-0.8,1.6
				c-0.4,0.8-0.5,1.2-0.8,1.6c-0.1,0.4-0.2,0.9-0.8,1.6c-0.4,0.8-0.7,1.2-0.9,1.6c-0.2,0.3-0.5,0.7-0.9,1.6
				c-0.5,0.7-0.8,1.2-1.1,1.6c-0.3,0.3-0.6,0.8-1,1.6c-0.4,0.7-0.6,1.2-0.7,1.6c-0.1,0.4-0.3,0.8-0.7,1.6c-0.4,0.7-0.6,1.2-0.8,1.6
				c-0.2,0.3-0.5,0.8-0.8,1.6c-0.5,0.8-0.6,1.9-0.2,2.7c0.6,0.9,0.8,1.3,1.1,1.8c0.2,0.3,0.5,0.8,0.9,1.6c0.5,0.8,0.8,1.3,1.1,1.7
				c0.3,0.4,0.5,0.9,1.1,1.7c0.5,0.8,0.8,1.3,1.1,1.7c0.3,0.4,0.6,0.9,1.1,1.7c0.5,0.9,0.8,1.3,0.8,1.8c0.1,0.4,0.3,0.9,0.8,1.7
				c0.5,0.9,0.8,1.3,1.1,1.7c0.3,0.4,0.7,0.8,1.2,1.7c0.5,0.9,0.8,1.3,1.1,1.7c0.2,0.4,0.5,0.9,1.1,1.7c0.5,0.8,0.8,1.3,0.8,1.7
				c0.2,0.5,0.4,0.9,0.9,1.7C265.8,558.6,266,559,266.2,559.4z"/>
		</g>
	</g>
	<g>
		<g>
			<path class="st2" d="M200.4,755.8c6.2,6.9,12.2,13.9,18.1,21c1.3,1.6,4.4,1.2,5.2-0.7c11.4-25.2,27.6-51.1,51.8-65.9
				c3.7-2.2,0.3-8-3.4-5.8c-25.1,15.3-42.3,42-54.2,68.3c1.7-0.2,3.5-0.5,5.2-0.7c-5.9-7.1-11.9-14.1-18.1-21
				C202.3,747.8,197.6,752.6,200.4,755.8L200.4,755.8z"/>
		</g>
	</g>
</g>
</svg>
