  0
SECTION
  2
HEADER
  9
$ACADVER
  1
AC1024
  9
$ACADMAINTVER
 70
     6
  9
$DWGCODEPAGE
  3
ANSI_1252
  9
$INSBASE
 10
0.0
 20
0.0
 30
0.0
  9
$EXTMIN
 10
1.000000000000000E+20
 20
1.000000000000000E+20
 30
1.000000000000000E+20
  9
$EXTMAX
 10
-1.000000000000000E+20
 20
-1.000000000000000E+20
 30
-1.000000000000000E+20
  9
$LIMMIN
 10
0.0
 20
0.0
  9
$LIMMAX
 10
12.0
 20
9.0
  9
$ORTHOMODE
 70
     0
  9
$REGENMODE
 70
     1
  9
$FILLMODE
 70
     1
  9
$QTEXTMODE
 70
     0
  9
$MIRRTEXT
 70
     1
  9
$LTSCALE
 40
1.0
  9
$ATTMODE
 70
     1
  9
$TEXTSIZE
 40
0.2
  9
$TRACEWID
 40
0.05
  9
$TEXTSTYLE
  7
Standard
  9
$CLAYER
  8
0
  9
$CELTYPE
  6
ByLayer
  9
$CECOLOR
 62
   256
  9
$CELTSCALE
 40
1.0
  9
$DISPSILH
 70
     0
  9
$DIMSCALE
 40
1.0
  9
$DIMASZ
 40
0.18
  9
$DIMEXO
 40
0.0625
  9
$DIMDLI
 40
0.38
  9
$DIMRND
 40
0.0
  9
$DIMDLE
 40
0.0
  9
$DIMEXE
 40
0.18
  9
$DIMTP
 40
0.0
  9
$DIMTM
 40
0.0
  9
$DIMTXT
 40
0.18
  9
$DIMCEN
 40
0.09
  9
$DIMTSZ
 40
0.0
  9
$DIMTOL
 70
     0
  9
$DIMLIM
 70
     0
  9
$DIMTIH
 70
     1
  9
$DIMTOH
 70
     1
  9
$DIMSE1
 70
     0
  9
$DIMSE2
 70
     0
  9
$DIMTAD
 70
     0
  9
$DIMZIN
 70
     0
  9
$DIMBLK
  1

  9
$DIMASO
 70
     1
  9
$DIMSHO
 70
     1
  9
$DIMPOST
  1

  9
$DIMAPOST
  1

  9
$DIMALT
 70
     0
  9
$DIMALTD
 70
     2
  9
$DIMALTF
 40
25.4
  9
$DIMLFAC
 40
1.0
  9
$DIMTOFL
 70
     0
  9
$DIMTVP
 40
0.0
  9
$DIMTIX
 70
     0
  9
$DIMSOXD
 70
     0
  9
$DIMSAH
 70
     0
  9
$DIMBLK1
  1

  9
$DIMBLK2
  1

  9
$DIMSTYLE
  2
Standard
  9
$DIMCLRD
 70
     0
  9
$DIMCLRE
 70
     0
  9
$DIMCLRT
 70
     0
  9
$DIMTFAC
 40
1.0
  9
$DIMGAP
 40
0.09
  9
$DIMJUST
 70
     0
  9
$DIMSD1
 70
     0
  9
$DIMSD2
 70
     0
  9
$DIMTOLJ
 70
     1
  9
$DIMTZIN
 70
     0
  9
$DIMALTZ
 70
     0
  9
$DIMALTTZ
 70
     0
  9
$DIMUPT
 70
     0
  9
$DIMDEC
 70
     4
  9
$DIMTDEC
 70
     4
  9
$DIMALTU
 70
     2
  9
$DIMALTTD
 70
     2
  9
$DIMTXSTY
  7
Standard
  9
$DIMAUNIT
 70
     0
  9
$DIMADEC
 70
     0
  9
$DIMALTRND
 40
0.0
  9
$DIMAZIN
 70
     0
  9
$DIMDSEP
 70
    46
  9
$DIMATFIT
 70
     3
  9
$DIMFRAC
 70
     0
  9
$DIMLDRBLK
  1

  9
$DIMLUNIT
 70
     2
  9
$DIMLWD
 70
    -2
  9
$DIMLWE
 70
    -2
  9
$DIMTMOVE
 70
     0
  9
$DIMFXL
 40
1.0
  9
$DIMFXLON
 70
     0
  9
$DIMJOGANG
 40
0.7853981633974483
  9
$DIMTFILL
 70
     0
  9
$DIMTFILLCLR
 70
     0
  9
$DIMARCSYM
 70
     0
  9
$DIMLTYPE
  6

  9
$DIMLTEX1
  6

  9
$DIMLTEX2
  6

  9
$DIMTXTDIRECTION
 70
     0
  9
$LUNITS
 70
     2
  9
$LUPREC
 70
     4
  9
$SKETCHINC
 40
0.1
  9
$FILLETRAD
 40
0.5
  9
$AUNITS
 70
     0
  9
$AUPREC
 70
     0
  9
$MENU
  1
.
  9
$ELEVATION
 40
0.0
  9
$PELEVATION
 40
0.0
  9
$THICKNESS
 40
0.0
  9
$LIMCHECK
 70
     0
  9
$CHAMFERA
 40
0.5
  9
$CHAMFERB
 40
0.5
  9
$CHAMFERC
 40
1.0
  9
$CHAMFERD
 40
0.0
  9
$SKPOLY
 70
     0
  9
$TDCREATE
 40
2459566.989475995
  9
$TDUCREATE
 40
2459566.739475995
  9
$TDUPDATE
 40
2459566.989476042
  9
$TDUUPDATE
 40
2459566.739476042
  9
$TDINDWG
 40
0.0000000116
  9
$TDUSRTIMER
 40
0.0000000116
  9
$USRTIMER
 70
     1
  9
$ANGBASE
 50
0.0
  9
$ANGDIR
 70
     0
  9
$PDMODE
 70
     0
  9
$PDSIZE
 40
0.0
  9
$PLINEWID
 40
0.0
  9
$SPLFRAME
 70
     0
  9
$SPLINETYPE
 70
     6
  9
$SPLINESEGS
 70
     8
  9
$HANDSEED
  5
78
  9
$SURFTAB1
 70
     6
  9
$SURFTAB2
 70
     6
  9
$SURFTYPE
 70
     6
  9
$SURFU
 70
     6
  9
$SURFV
 70
     6
  9
$UCSBASE
  2

  9
$UCSNAME
  2

  9
$UCSORG
 10
0.0
 20
0.0
 30
0.0
  9
$UCSXDIR
 10
1.0
 20
0.0
 30
0.0
  9
$UCSYDIR
 10
0.0
 20
1.0
 30
0.0
  9
$UCSORTHOREF
  2

  9
$UCSORTHOVIEW
 70
     0
  9
$UCSORGTOP
 10
0.0
 20
0.0
 30
0.0
  9
$UCSORGBOTTOM
 10
0.0
 20
0.0
 30
0.0
  9
$UCSORGLEFT
 10
0.0
 20
0.0
 30
0.0
  9
$UCSORGRIGHT
 10
0.0
 20
0.0
 30
0.0
  9
$UCSORGFRONT
 10
0.0
 20
0.0
 30
0.0
  9
$UCSORGBACK
 10
0.0
 20
0.0
 30
0.0
  9
$PUCSBASE
  2

  9
$PUCSNAME
  2

  9
$PUCSORG
 10
0.0
 20
0.0
 30
0.0
  9
$PUCSXDIR
 10
1.0
 20
0.0
 30
0.0
  9
$PUCSYDIR
 10
0.0
 20
1.0
 30
0.0
  9
$PUCSORTHOREF
  2

  9
$PUCSORTHOVIEW
 70
     0
  9
$PUCSORGTOP
 10
0.0
 20
0.0
 30
0.0
  9
$PUCSORGBOTTOM
 10
0.0
 20
0.0
 30
0.0
  9
$PUCSORGLEFT
 10
0.0
 20
0.0
 30
0.0
  9
$PUCSORGRIGHT
 10
0.0
 20
0.0
 30
0.0
  9
$PUCSORGFRONT
 10
0.0
 20
0.0
 30
0.0
  9
$PUCSORGBACK
 10
0.0
 20
0.0
 30
0.0
  9
$USERI1
 70
     0
  9
$USERI2
 70
     0
  9
$USERI3
 70
     0
  9
$USERI4
 70
     0
  9
$USERI5
 70
     0
  9
$USERR1
 40
0.0
  9
$USERR2
 40
0.0
  9
$USERR3
 40
0.0
  9
$USERR4
 40
0.0
  9
$USERR5
 40
0.0
  9
$WORLDVIEW
 70
     1
  9
$SHADEDGE
 70
     3
  9
$SHADEDIF
 70
    70
  9
$TILEMODE
 70
     1
  9
$MAXACTVP
 70
    64
  9
$PINSBASE
 10
0.0
 20
0.0
 30
0.0
  9
$PLIMCHECK
 70
     0
  9
$PEXTMIN
 10
1.000000000000000E+20
 20
1.000000000000000E+20
 30
1.000000000000000E+20
  9
$PEXTMAX
 10
-1.000000000000000E+20
 20
-1.000000000000000E+20
 30
-1.000000000000000E+20
  9
$PLIMMIN
 10
0.0
 20
0.0
  9
$PLIMMAX
 10
12.0
 20
9.0
  9
$UNITMODE
 70
     0
  9
$VISRETAIN
 70
     1
  9
$PLINEGEN
 70
     0
  9
$PSLTSCALE
 70
     1
  9
$TREEDEPTH
 70
  3020
  9
$CMLSTYLE
  2
Standard
  9
$CMLJUST
 70
     0
  9
$CMLSCALE
 40
1.0
  9
$PROXYGRAPHICS
 70
     1
  9
$MEASUREMENT
 70
     0
  9
$CELWEIGHT
370
    -1
  9
$ENDCAPS
280
     0
  9
$JOINSTYLE
280
     0
  9
$LWDISPLAY
290
     1
  9
$INSUNITS
 70
     1
  9
$HYPERLINKBASE
  1

  9
$STYLESHEET
  1

  9
$XEDIT
290
     1
  9
$CEPSNTYPE
380
     0
  9
$PSTYLEMODE
290
     1
  9
$FINGERPRINTGUID
  2
{BC78A376-00C6-4719-9980-3A3D194EFA19}
  9
$VERSIONGUID
  2
{FAEB1C32-E019-11D5-929B-00C0DF256EC4}
  9
$EXTNAMES
290
     1
  9
$PSVPSCALE
 40
0.0
  9
$OLESTARTUP
290
     0
  9
$SORTENTS
280
   127
  9
$INDEXCTL
280
     0
  9
$HIDETEXT
280
     1
  9
$XCLIPFRAME
280
     2
  9
$HALOGAP
280
     0
  9
$OBSCOLOR
 70
   257
  9
$OBSLTYPE
280
     0
  9
$INTERSECTIONDISPLAY
280
     0
  9
$INTERSECTIONCOLOR
 70
   257
  9
$DIMASSOC
280
     2
  9
$PROJECTNAME
  1

  9
$CAMERADISPLAY
290
     0
  9
$LENSLENGTH
 40
50.0
  9
$CAMERAHEIGHT
 40
0.0
  9
$STEPSPERSEC
 40
2.0
  9
$STEPSIZE
 40
6.0
  9
$3DDWFPREC
 40
2.0
  9
$PSOLWIDTH
 40
0.25
  9
$PSOLHEIGHT
 40
4.0
  9
$LOFTANG1
 40
1.570796326794897
  9
$LOFTANG2
 40
1.570796326794897
  9
$LOFTMAG1
 40
0.0
  9
$LOFTMAG2
 40
0.0
  9
$LOFTPARAM
 70
     7
  9
$LOFTNORMALS
280
     1
  9
$LATITUDE
 40
37.795
  9
$LONGITUDE
 40
-122.394
  9
$NORTHDIRECTION
 40
0.0
  9
$TIMEZONE
 70
 -8000
  9
$LIGHTGLYPHDISPLAY
280
     1
  9
$TILEMODELIGHTSYNCH
280
     1
  9
$CMATERIAL
347
3C
  9
$SOLIDHIST
280
     1
  9
$SHOWHIST
280
     1
  9
$DWFFRAME
280
     2
  9
$DGNFRAME
280
     2
  9
$REALWORLDSCALE
290
     1
  9
$INTERFERECOLOR
 62
   256
  9
$CSHADOW
280
     0
  9
$SHADOWPLANELOCATION
 40
0.0
  0
ENDSEC
  0
SECTION
  2
CLASSES
  0
CLASS
  1
ACDBDICTIONARYWDFLT
  2
AcDbDictionaryWithDefault
  3
ObjectDBX Classes
 90
        0
 91
        4
280
     0
281
     0
  0
CLASS
  1
VISUALSTYLE
  2
AcDbVisualStyle
  3
ObjectDBX Classes
 90
     4095
 91
        4
280
     0
281
     0
  0
CLASS
  1
MATERIAL
  2
AcDbMaterial
  3
ObjectDBX Classes
 90
     1153
 91
        4
280
     0
281
     0
  0
CLASS
  1
SUN
  2
AcDbSun
  3
SCENEOE
 90
     1024
 91
        4
280
     0
281
     0
  0
ENDSEC
  0
SECTION
  2
TABLES
  0
TABLE
  2
VPORT
  5
8
330
0
100
AcDbSymbolTable
 70
     1
  0
VPORT
  5
29
330
8
100
AcDbSymbolTableRecord
100
AcDbViewportTableRecord
  2
*Active
 70
     0
 10
0.0
 20
0.0
 11
1.0
 21
1.0
 12
0.0
 22
0.0
 13
0.0
 23
0.0
 14
0.5
 24
0.5
 15
0.5
 25
0.5
 16
0.0
 26
0.0
 36
1.0
 17
540.0
 27
-540.0
 37
0.0
 40
1080.0
 41
1.0
 42
50.0
 43
0.0
 44
0.0
 50
0.0
 51
0.0
 71
     0
 72
   100
 73
     1
 74
     3
 75
     0
 76
     0
 77
     0
 78
     0
281
     0
 65
     1
110
0.0
120
0.0
130
0.0
111
1.0
121
0.0
131
0.0
112
0.0
122
1.0
132
0.0
 79
     0
146
0.0
 60
     3
 61
     5
292
     1
282
     1
141
0.0
142
0.0
 63
   250
361
3F
  0
ENDTAB
  0
TABLE
  2
LTYPE
  5
5
330
0
100
AcDbSymbolTable
 70
     1
  0
LTYPE
  5
14
330
5
100
AcDbSymbolTableRecord
100
AcDbLinetypeTableRecord
  2
ByBlock
 70
     0
  3

 72
    65
 73
     0
 40
0.0
  0
LTYPE
  5
15
330
5
100
AcDbSymbolTableRecord
100
AcDbLinetypeTableRecord
  2
ByLayer
 70
     0
  3

 72
    65
 73
     0
 40
0.0
  0
LTYPE
  5
16
330
5
100
AcDbSymbolTableRecord
100
AcDbLinetypeTableRecord
  2
Continuous
 70
     0
  3
Solid line
 72
    65
 73
     0
 40
0.0
  0
ENDTAB
  0
TABLE
  2
LAYER
  5
2
330
0
100
AcDbSymbolTable
 70
     2
  0
LAYER
  5
10
330
2
100
AcDbSymbolTableRecord
100
AcDbLayerTableRecord
  2
0
 70
     0
 62
     7
  6
Continuous
370
    -3
390
F
347
3E
  0
LAYER
  5
40
330
2
100
AcDbSymbolTableRecord
100
AcDbLayerTableRecord
  2
Layer 1
 70
     0
 62
     7
  6
Continuous
370
    -3
390
F
347
3E
  0
ENDTAB
  0
TABLE
  2
STYLE
  5
3
330
0
100
AcDbSymbolTable
 70
     1
  0
STYLE
  5
11
330
3
100
AcDbSymbolTableRecord
100
AcDbTextStyleTableRecord
  2
Standard
 70
     0
 40
0.0
 41
1.0
 50
0.0
 71
     0
 42
0.2
  3
txt
  4

  0
ENDTAB
  0
TABLE
  2
VIEW
  5
6
330
0
100
AcDbSymbolTable
 70
     0
  0
ENDTAB
  0
TABLE
  2
UCS
  5
7
330
0
100
AcDbSymbolTable
 70
     0
  0
ENDTAB
  0
TABLE
  2
APPID
  5
9
330
0
100
AcDbSymbolTable
 70
     1
  0
APPID
  5
12
330
9
100
AcDbSymbolTableRecord
100
AcDbRegAppTableRecord
  2
ACAD
 70
     0
  0
ENDTAB
  0
TABLE
  2
DIMSTYLE
  5
A
330
0
100
AcDbSymbolTable
 70
     1
100
AcDbDimStyleTable
  0
DIMSTYLE
105
27
330
A
100
AcDbSymbolTableRecord
100
AcDbDimStyleTableRecord
  2
Standard
 70
     0
178
     0
340
11
  0
ENDTAB
  0
TABLE
  2
BLOCK_RECORD
  5
1
330
0
100
AcDbSymbolTable
 70
     5
  0
BLOCK_RECORD
  5
1F
330
1
100
AcDbSymbolTableRecord
100
AcDbBlockTableRecord
  2
*Model_Space
340
22
 70
     0
280
     1
281
     0
  0
BLOCK_RECORD
  5
1B
330
1
100
AcDbSymbolTableRecord
100
AcDbBlockTableRecord
  2
*Paper_Space
340
1E
 70
     0
280
     1
281
     0
  0
BLOCK_RECORD
  5
23
330
1
100
AcDbSymbolTableRecord
100
AcDbBlockTableRecord
  2
*Paper_Space0
340
26
 70
     0
280
     1
281
     0
  0
BLOCK_RECORD
  5
41
330
1
100
AcDbSymbolTableRecord
100
AcDbBlockTableRecord
  2
block 2
340
0
102
{BLKREFS
331
42
102
}
 70
     0
280
     1
281
     0
  0
BLOCK_RECORD
  5
45
330
1
100
AcDbSymbolTableRecord
100
AcDbBlockTableRecord
  2
block 3
340
0
102
{BLKREFS
331
46
102
}
 70
     0
280
     1
281
     0
  0
BLOCK_RECORD
  5
56
330
1
100
AcDbSymbolTableRecord
100
AcDbBlockTableRecord
  2
block 4
340
0
102
{BLKREFS
331
57
102
}
 70
     0
280
     1
281
     0
  0
BLOCK_RECORD
  5
65
330
1
100
AcDbSymbolTableRecord
100
AcDbBlockTableRecord
  2
block 5
340
0
102
{BLKREFS
331
66
102
}
 70
     0
280
     1
281
     0
  0
ENDTAB
  0
ENDSEC
  0
SECTION
  2
BLOCKS
  0
BLOCK
  5
20
330
1F
100
AcDbEntity
  8
0
100
AcDbBlockBegin
  2
*Model_Space
 70
     0
 10
0.0
 20
0.0
 30
0.0
  3
*Model_Space
  1

  0
ENDBLK
  5
21
330
1F
100
AcDbEntity
  8
0
100
AcDbBlockEnd
  0
BLOCK
  5
1C
330
1B
100
AcDbEntity
 67
     1
  8
0
100
AcDbBlockBegin
  2
*Paper_Space
 70
     0
 10
0.0
 20
0.0
 30
0.0
  3
*Paper_Space
  1

  0
ENDBLK
  5
1D
330
1B
100
AcDbEntity
 67
     1
  8
0
100
AcDbBlockEnd
  0
BLOCK
  5
24
330
23
100
AcDbEntity
  8
0
100
AcDbBlockBegin
  2
*Paper_Space0
 70
     0
 10
0.0
 20
0.0
 30
0.0
  3
*Paper_Space0
  1

  0
ENDBLK
  5
25
330
23
100
AcDbEntity
  8
0
100
AcDbBlockEnd
  0
BLOCK
  5
43
330
41
100
AcDbEntity
  8
0
100
AcDbBlockBegin
  2
block 2
 70
     0
 10
0.0
 20
0.0
 30
0.0
  3
block 2
  1

  0
INSERT
  5
46
330
41
100
AcDbEntity
  8
Layer 1
100
AcDbBlockReference
  2
block 3
 10
0.0
 20
0.0
 30
0.0
  0
INSERT
  5
57
330
41
100
AcDbEntity
  8
Layer 1
100
AcDbBlockReference
  2
block 4
 10
0.0
 20
0.0
 30
0.0
  0
SPLINE
  5
62
330
41
100
AcDbEntity
  8
Layer 1
370
     0
100
AcDbSpline
210
0.0
220
0.0
230
1.0
 70
    11
 71
     3
 72
    59
 73
    55
 74
     0
 42
0.0000000001
 43
0.0000000001
 12
1.0
 22
0.0
 32
0.0
 13
1.0
 23
0.0
 33
0.0
 40
0.0
 40
0.0
 40
0.0
 40
0.0
 40
1.0
 40
1.0
 40
1.0
 40
2.0
 40
2.0
 40
2.0
 40
3.0
 40
3.0
 40
3.0
 40
4.0
 40
4.0
 40
4.0
 40
5.0
 40
5.0
 40
5.0
 40
6.0
 40
6.0
 40
6.0
 40
7.0
 40
7.0
 40
7.0
 40
8.0
 40
8.0
 40
8.0
 40
9.0
 40
9.0
 40
9.0
 40
10.0
 40
10.0
 40
10.0
 40
11.0
 40
11.0
 40
11.0
 40
12.0
 40
12.0
 40
12.0
 40
13.0
 40
13.0
 40
13.0
 40
14.0
 40
14.0
 40
14.0
 40
15.0
 40
15.0
 40
15.0
 40
16.0
 40
16.0
 40
16.0
 40
17.0
 40
17.0
 40
17.0
 40
18.0
 40
18.0
 40
18.0
 40
18.0
 10
916.1352086651132
 20
-744.0180866768824
 30
0.0
 10
870.7466972925504
 20
-744.0180866768824
 30
0.0
 10
825.3581964270052
 20
-744.0180866768824
 30
0.0
 10
779.9696955614563
 20
-744.0180866768824
 30
0.0
 10
779.8898370436436
 20
-742.8748401002977
 30
0.0
 10
779.8099837793525
 20
-741.7315514956808
 30
0.0
 10
779.7301252615471
 20
-740.588304919087
 30
0.0
 10
793.5180837051339
 20
-736.4271513163676
 30
0.0
 10
807.328096359488
 20
-732.337361315118
 30
0.0
 10
821.0877804433039
 20
-728.084712682723
 30
0.0
 10
834.8129279903151
 20
-723.8428232269853
 30
0.0
 10
842.0557346394999
 20
-715.9098637270745
 30
0.0
 10
841.4075572875554
 20
-700.049618511799
 30
0.0
 10
840.2846943073891
 20
-672.5744638357519
 30
0.0
 10
841.1017718203293
 20
-645.0202124000189
 30
0.0
 10
841.0939651130466
 20
-617.4991631110333
 30
0.0
 10
841.0885224826634
 20
-598.3061788681043
 30
0.0
 10
837.0323759224993
 20
-593.1685038990454
 30
0.0
 10
818.804029619343
 20
-585.3638980144788
 30
0.0
 10
783.9580876775544
 20
-570.4443242526795
 30
0.0
 10
766.5608037156017
 20
-542.7336024469496
 30
0.0
 10
765.2987491408458
 20
-505.7682655610497
 30
0.0
 10
764.0679056347253
 20
-469.7167862430215
 30
0.0
 10
774.7234726879979
 20
-436.0601903774532
 30
0.0
 10
792.305212436986
 20
-404.7872354652809
 30
0.0
 10
794.4295299145633
 20
-401.0086840686472
 30
0.0
 10
800.6041678161127
 20
-397.4320563606107
 30
0.0
 10
804.9829846061111
 20
-397.3322397802276
 30
0.0
 10
833.8650487290543
 20
-396.673744545993
 30
0.0
 10
862.7767741368771
 20
-396.6713279340438
 30
0.0
 10
891.658785724765
 20
-397.3318825419392
 30
0.0
 10
896.1201770942389
 20
-397.4339266081097
 30
0.0
 10
902.5238625267484
 20
-400.9396109950249
 30
0.0
 10
904.565227172523
 20
-404.7346163669081
 30
0.0
 10
923.0924243173249
 20
-439.1772835634529
 30
0.0
 10
935.1467368719204
 20
-475.5897836921886
 30
0.0
 10
930.4700043640369
 20
-515.3027032905375
 30
0.0
 10
926.3693921440645
 20
-550.1236017776555
 30
0.0
 10
907.4691961989083
 20
-574.3851669019914
 30
0.0
 10
874.186092963093
 20
-586.747713056784
 30
0.0
 10
862.4810648907478
 20
-591.0953870737048
 30
0.0
 10
855.9112846685202
 20
-598.9719869802448
 30
0.0
 10
855.9532811813333
 20
-611.919899590388
 30
0.0
 10
856.0529506635867
 20
-642.6514703846206
 30
0.0
 10
856.4088125331364
 20
-673.3922453182659
 30
0.0
 10
855.7760174415962
 20
-704.1110816182463
 30
0.0
 10
855.5239122805833
 20
-716.349350876957
 30
0.0
 10
861.1135462185739
 20
-722.9822992340687
 30
0.0
 10
871.7122178210375
 20
-726.4937834896464
 30
0.0
 10
886.402160912934
 20
-731.3607979207554
 30
0.0
 10
901.2153196930485
 20
-735.8559483084155
 30
0.0
 10
915.975733290692
 20
-740.5103008882779
 30
0.0
 10
916.0288987535059
 20
-741.6795628178115
 30
0.0
 10
916.0820432023102
 20
-742.8488247473488
 30
0.0
 10
916.1352086651132
 20
-744.0180866768824
 30
0.0
  0
SPLINE
  5
63
330
41
100
AcDbEntity
  8
Layer 1
370
     0
100
AcDbSpline
210
0.0
220
0.0
230
1.0
 70
    11
 71
     3
 72
    20
 73
    16
 74
     0
 42
0.0000000001
 43
0.0000000001
 12
1.0
 22
0.0
 32
0.0
 13
1.0
 23
0.0
 33
0.0
 40
0.0
 40
0.0
 40
0.0
 40
0.0
 40
1.0
 40
1.0
 40
1.0
 40
2.0
 40
2.0
 40
2.0
 40
3.0
 40
3.0
 40
3.0
 40
4.0
 40
4.0
 40
4.0
 40
5.0
 40
5.0
 40
5.0
 40
5.0
 10
805.5215528457811
 20
-416.7042214192934
 30
0.0
 10
803.8143636040913
 20
-416.3607893407443
 30
0.0
 10
802.107169108891
 20
-416.0173782762158
 30
0.0
 10
800.3999798672012
 20
-415.6739461976686
 30
0.0
 10
794.3518463475193
 20
-436.026231726104
 30
0.0
 10
785.4784307877999
 20
-456.0519594315883
 30
0.0
 10
783.0775268194957
 20
-476.825744111431
 30
0.0
 10
780.8311914526639
 20
-496.2620286422716
 30
0.0
 10
783.4918024025865
 20
-516.9122088745844
 30
0.0
 10
787.6537545379506
 20
-536.2397668818667
 30
0.0
 10
791.0439248738476
 20
-551.9832582191211
 30
0.0
 10
803.9483279619635
 20
-562.2056948626141
 30
0.0
 10
813.4039210999617
 20
-564.2090871798173
 30
0.0
 10
788.7318839296022
 20
-516.6403295236505
 30
0.0
 10
792.2264939295928
 20
-466.9831568378049
 30
0.0
 10
805.5215528457811
 20
-416.7042214192934
 30
0.0
  0
HATCH
  5
64
330
41
100
AcDbEntity
  8
Layer 1
 62
     7
420
 16777215
100
AcDbHatch
 10
0.0
 20
0.0
 30
0.0
210
0.0
220
0.0
230
1.0
  2
SOLID
 70
     1
 71
     0
 91
        2
 92
        1
 93
        1
 72
     4
 94
        3
 73
     0
 74
     1
 95
       59
 96
       55
 40
0.0
 40
0.0
 40
0.0
 40
0.0
 40
1.0
 40
1.0
 40
1.0
 40
2.0
 40
2.0
 40
2.0
 40
3.0
 40
3.0
 40
3.0
 40
4.0
 40
4.0
 40
4.0
 40
5.0
 40
5.0
 40
5.0
 40
6.0
 40
6.0
 40
6.0
 40
7.0
 40
7.0
 40
7.0
 40
8.0
 40
8.0
 40
8.0
 40
9.0
 40
9.0
 40
9.0
 40
10.0
 40
10.0
 40
10.0
 40
11.0
 40
11.0
 40
11.0
 40
12.0
 40
12.0
 40
12.0
 40
13.0
 40
13.0
 40
13.0
 40
14.0
 40
14.0
 40
14.0
 40
15.0
 40
15.0
 40
15.0
 40
16.0
 40
16.0
 40
16.0
 40
17.0
 40
17.0
 40
17.0
 40
18.0
 40
18.0
 40
18.0
 40
18.0
 10
916.1352086651132
 20
-744.0180866768824
 10
870.7466972925504
 20
-744.0180866768824
 10
825.3581964270052
 20
-744.0180866768824
 10
779.9696955614563
 20
-744.0180866768824
 10
779.8898370436436
 20
-742.8748401002977
 10
779.8099837793525
 20
-741.7315514956808
 10
779.7301252615471
 20
-740.588304919087
 10
793.5180837051339
 20
-736.4271513163676
 10
807.328096359488
 20
-732.337361315118
 10
821.0877804433039
 20
-728.084712682723
 10
834.8129279903151
 20
-723.8428232269853
 10
842.0557346394999
 20
-715.9098637270745
 10
841.4075572875554
 20
-700.049618511799
 10
840.2846943073891
 20
-672.5744638357519
 10
841.1017718203293
 20
-645.0202124000189
 10
841.0939651130466
 20
-617.4991631110333
 10
841.0885224826634
 20
-598.3061788681043
 10
837.0323759224993
 20
-593.1685038990454
 10
818.804029619343
 20
-585.3638980144788
 10
783.9580876775544
 20
-570.4443242526795
 10
766.5608037156017
 20
-542.7336024469496
 10
765.2987491408458
 20
-505.7682655610497
 10
764.0679056347253
 20
-469.7167862430215
 10
774.7234726879979
 20
-436.0601903774532
 10
792.305212436986
 20
-404.7872354652809
 10
794.4295299145633
 20
-401.0086840686472
 10
800.6041678161127
 20
-397.4320563606107
 10
804.9829846061111
 20
-397.3322397802276
 10
833.8650487290543
 20
-396.673744545993
 10
862.7767741368771
 20
-396.6713279340438
 10
891.658785724765
 20
-397.3318825419392
 10
896.1201770942389
 20
-397.4339266081097
 10
902.5238625267484
 20
-400.9396109950249
 10
904.565227172523
 20
-404.7346163669081
 10
923.0924243173249
 20
-439.1772835634529
 10
935.1467368719204
 20
-475.5897836921886
 10
930.4700043640369
 20
-515.3027032905375
 10
926.3693921440645
 20
-550.1236017776555
 10
907.4691961989083
 20
-574.3851669019914
 10
874.186092963093
 20
-586.747713056784
 10
862.4810648907478
 20
-591.0953870737048
 10
855.9112846685202
 20
-598.9719869802448
 10
855.9532811813333
 20
-611.919899590388
 10
856.0529506635867
 20
-642.6514703846206
 10
856.4088125331364
 20
-673.3922453182659
 10
855.7760174415962
 20
-704.1110816182463
 10
855.5239122805833
 20
-716.349350876957
 10
861.1135462185739
 20
-722.9822992340687
 10
871.7122178210375
 20
-726.4937834896464
 10
886.402160912934
 20
-731.3607979207554
 10
901.2153196930485
 20
-735.8559483084155
 10
915.975733290692
 20
-740.5103008882779
 10
916.0288987535059
 20
-741.6795628178115
 10
916.0820432023102
 20
-742.8488247473488
 10
916.1352086651132
 20
-744.0180866768824
 97
        0
 97
        0
 92
        1
 93
        1
 72
     4
 94
        3
 73
     0
 74
     1
 95
       20
 96
       16
 40
0.0
 40
0.0
 40
0.0
 40
0.0
 40
1.0
 40
1.0
 40
1.0
 40
2.0
 40
2.0
 40
2.0
 40
3.0
 40
3.0
 40
3.0
 40
4.0
 40
4.0
 40
4.0
 40
5.0
 40
5.0
 40
5.0
 40
5.0
 10
805.5215528457811
 20
-416.7042214192934
 10
803.8143636040913
 20
-416.3607893407443
 10
802.107169108891
 20
-416.0173782762158
 10
800.3999798672012
 20
-415.6739461976686
 10
794.3518463475193
 20
-436.026231726104
 10
785.4784307877999
 20
-456.0519594315883
 10
783.0775268194957
 20
-476.825744111431
 10
780.8311914526639
 20
-496.2620286422716
 10
783.4918024025865
 20
-516.9122088745844
 10
787.6537545379506
 20
-536.2397668818667
 10
791.0439248738476
 20
-551.9832582191211
 10
803.9483279619635
 20
-562.2056948626141
 10
813.4039210999617
 20
-564.2090871798173
 10
788.7318839296022
 20
-516.6403295236505
 10
792.2264939295928
 20
-466.9831568378049
 10
805.5215528457811
 20
-416.7042214192934
 97
        0
 97
        0
 75
     2
 76
     1
 98
        0
  0
INSERT
  5
66
330
41
100
AcDbEntity
  8
Layer 1
100
AcDbBlockReference
  2
block 5
 10
0.0
 20
0.0
 30
0.0
  0
ENDBLK
  5
44
330
41
100
AcDbEntity
  8
0
100
AcDbBlockEnd
  0
BLOCK
  5
47
330
45
100
AcDbEntity
  8
0
100
AcDbBlockBegin
  2
block 3
 70
     0
 10
0.0
 20
0.0
 30
0.0
  3
block 3
  1

  0
SPLINE
  5
49
330
45
100
AcDbEntity
  8
Layer 1
370
     0
100
AcDbSpline
210
0.0
220
0.0
230
1.0
 70
    11
 71
     3
 72
    74
 73
    70
 74
     0
 42
0.0000000001
 43
0.0000000001
 12
1.0
 22
0.0
 32
0.0
 13
1.0
 23
0.0
 33
0.0
 40
0.0
 40
0.0
 40
0.0
 40
0.0
 40
1.0
 40
1.0
 40
1.0
 40
2.0
 40
2.0
 40
2.0
 40
3.0
 40
3.0
 40
3.0
 40
4.0
 40
4.0
 40
4.0
 40
5.0
 40
5.0
 40
5.0
 40
6.0
 40
6.0
 40
6.0
 40
7.0
 40
7.0
 40
7.0
 40
8.0
 40
8.0
 40
8.0
 40
9.0
 40
9.0
 40
9.0
 40
10.0
 40
10.0
 40
10.0
 40
11.0
 40
11.0
 40
11.0
 40
12.0
 40
12.0
 40
12.0
 40
13.0
 40
13.0
 40
13.0
 40
14.0
 40
14.0
 40
14.0
 40
15.0
 40
15.0
 40
15.0
 40
16.0
 40
16.0
 40
16.0
 40
17.0
 40
17.0
 40
17.0
 40
18.0
 40
18.0
 40
18.0
 40
19.0
 40
19.0
 40
19.0
 40
20.0
 40
20.0
 40
20.0
 40
21.0
 40
21.0
 40
21.0
 40
22.0
 40
22.0
 40
22.0
 40
23.0
 40
23.0
 40
23.0
 40
23.0
 10
389.7666463615778
 20
-717.9927784912707
 30
0.0
 10
392.1499057006813
 20
-723.4781569799688
 30
0.0
 10
394.3061879598708
 20
-728.4411691156656
 30
0.0
 10
396.7692771650263
 20
-734.1106067469336
 30
0.0
 10
394.3815133193702
 20
-734.1834608840745
 30
0.0
 10
392.4413222492922
 20
-734.296042266451
 30
0.0
 10
390.5011311791668
 20
-734.293899497723
 30
0.0
 10
356.3579725515056
 20
-734.2562524586119
 30
0.0
 10
322.214313423131
 20
-734.2763663316
 30
0.0
 10
288.0722809220943
 20
-734.0627620055184
 30
0.0
 10
283.9286353992347
 20
-734.0368298115627
 30
0.0
 10
281.0090895306375
 20
-734.9058241996627
 30
0.0
 10
278.6725018843581
 20
-738.5178128247444
 30
0.0
 10
275.8053834669399
 20
-742.9498562511653
 30
0.0
 10
272.2111626177038
 20
-746.9099744135165
 30
0.0
 10
269.3200201653699
 20
-751.3284261170684
 30
0.0
 10
266.5052040739911
 20
-755.6302142291734
 30
0.0
 10
262.6232578690042
 20
-757.4324078643203
 30
0.0
 10
257.7321145096439
 20
-757.6560065643134
 30
0.0
 10
252.4457632633557
 20
-757.8976858531041
 30
0.0
 10
247.1606007062665
 20
-758.3106458752209
 30
0.0
 10
241.8728105203818
 20
-758.3474952412871
 30
0.0
 10
227.0377812699126
 20
-758.4508799227951
 30
0.0
 10
212.2091334037241
 20
-759.3084566380621
 30
0.0
 10
197.3640315761068
 20
-757.9927027880785
 30
0.0
 10
188.0238121249522
 20
-757.1648589441847
 30
0.0
 10
178.6045761214309
 20
-756.6559904701371
 30
0.0
 10
169.2408956986537
 20
-756.8732077858731
 30
0.0
 10
163.3263534767548
 20
-757.0104231884416
 30
0.0
 10
160.0177934177036
 20
-751.9053939713267
 30
0.0
 10
163.6611884634631
 20
-746.9397385661614
 30
0.0
 10
166.8652689956461
 20
-742.5727289530241
 30
0.0
 10
170.5615294307217
 20
-738.4789770964308
 30
0.0
 10
174.520740435496
 20
-734.7784311238702
 30
0.0
 10
178.4903993929702
 20
-731.0680471838878
 30
0.0
 10
183.0544655269032
 20
-727.9935337775296
 30
0.0
 10
187.7692449424276
 20
-724.3198897190832
 30
0.0
 10
186.0314438539926
 20
-722.7692759027359
 30
0.0
 10
184.2645511607871
 20
-721.3244710683157
 30
0.0
 10
182.648309186553
 20
-719.7272324810783
 30
0.0
 10
176.45630187386
 20
-713.607969820996
 30
0.0
 10
170.3052730582594
 20
-707.4471812411703
 30
0.0
 10
164.1598123132017
 20
-701.2810122785486
 30
0.0
 10
163.3188459658495
 20
-700.4372618958932
 30
0.0
 10
162.5311829459761
 20
-699.5231755203804
 30
0.0
 10
161.8292932382765
 20
-698.5610723563113
 30
0.0
 10
158.414189086855
 20
-693.8798186692347
 30
0.0
 10
160.2091723833901
 20
-689.9476894459949
 30
0.0
 10
166.0477010572877
 20
-689.2965614604964
 30
0.0
 10
166.8926088478647
 20
-689.20232655791
 30
0.0
 10
167.7534075365538
 20
-689.2040392088402
 30
0.0
 10
168.6053223373483
 20
-689.225333950717
 30
0.0
 10
197.2700000019386
 20
-689.9420118908693
 30
0.0
 10
225.9323002880838
 20
-690.8009415221368
 30
0.0
 10
254.6008568333009
 20
-691.2869746504894
 30
0.0
 10
261.0666380439243
 20
-691.3965921301278
 30
0.0
 10
265.6591701567677
 20
-693.9431711128618
 30
0.0
 10
269.438013211874
 20
-698.8075064020213
 30
0.0
 10
273.5209730215129
 20
-704.0632332600635
 30
0.0
 10
277.8678218397554
 20
-709.1240150847425
 30
0.0
 10
281.7508316087597
 20
-714.5206954601435
 30
0.0
 10
283.578034639625
 20
-717.0601110262469
 30
0.0
 10
285.5492567548345
 20
-717.8286924558761
 30
0.0
 10
288.5586425040192
 20
-717.8261899522386
 30
0.0
 10
318.7752477993936
 20
-717.8011023532799
 30
0.0
 10
348.9917279695628
 20
-717.9175469756537
 30
0.0
 10
379.2083332648899
 20
-717.9916367239766
 30
0.0
 10
382.6163678435414
 20
-717.9999888298498
 30
0.0
 10
386.0245275473562
 20
-717.9927784912707
 30
0.0
 10
389.7666463615778
 20
-717.9927784912707
 30
0.0
  0
SPLINE
  5
4A
330
45
100
AcDbEntity
  8
Layer 1
370
     0
100
AcDbSpline
210
0.0
220
0.0
230
1.0
 70
    11
 71
     3
 72
    26
 73
    22
 74
     0
 42
0.0000000001
 43
0.0000000001
 12
1.0
 22
0.0
 32
0.0
 13
1.0
 23
0.0
 33
0.0
 40
0.0
 40
0.0
 40
0.0
 40
0.0
 40
1.0
 40
1.0
 40
1.0
 40
2.0
 40
2.0
 40
2.0
 40
3.0
 40
3.0
 40
3.0
 40
4.0
 40
4.0
 40
4.0
 40
5.0
 40
5.0
 40
5.0
 40
6.0
 40
6.0
 40
6.0
 40
7.0
 40
7.0
 40
7.0
 40
7.0
 10
206.2509850559409
 20
-700.1196785436568
 30
0.0
 10
211.5273888502934
 20
-705.9226403846133
 30
0.0
 10
216.3233119462593
 20
-711.3727492126727
 30
0.0
 10
221.3696730937236
 20
-716.5801464692304
 30
0.0
 10
222.2436099264951
 20
-717.4820174988672
 30
0.0
 10
224.1719141043204
 20
-717.6260365832113
 30
0.0
 10
225.6233036514395
 20
-717.6575524883829
 30
0.0
 10
231.0675003146816
 20
-717.7757332226483
 30
0.0
 10
236.5160137966805
 20
-717.7255111027844
 30
0.0
 10
241.9624627131825
 20
-717.676884328981
 30
0.0
 10
242.8384015488909
 20
-717.6690796457751
 30
0.0
 10
243.7114625053882
 20
-717.3476017722332
 30
0.0
 10
245.0010026297468
 20
-717.0873413939389
 30
0.0
 10
239.8657400405655
 20
-711.5475647324201
 30
0.0
 10
235.1781753520963
 20
-706.3993516869104
 30
0.0
 10
230.3523473376945
 20
-701.3841936316603
 30
0.0
 10
229.6369441103352
 20
-700.6408405668062
 30
0.0
 10
228.2740180667943
 20
-700.1904055527175
 30
0.0
 10
227.2020080710981
 20
-700.174076716472
 30
0.0
 10
220.2461740856843
 20
-700.0680174841928
 30
0.0
 10
213.2879001592146
 20
-700.1196785436568
 30
0.0
 10
206.2509850559409
 20
-700.1196785436568
 30
0.0
  0
SPLINE
  5
4B
330
45
100
AcDbEntity
  8
Layer 1
370
     0
100
AcDbSpline
210
0.0
220
0.0
230
1.0
 70
    11
 71
     3
 72
    26
 73
    22
 74
     0
 42
0.0000000001
 43
0.0000000001
 12
1.0
 22
0.0
 32
0.0
 13
1.0
 23
0.0
 33
0.0
 40
0.0
 40
0.0
 40
0.0
 40
0.0
 40
1.0
 40
1.0
 40
1.0
 40
2.0
 40
2.0
 40
2.0
 40
3.0
 40
3.0
 40
3.0
 40
4.0
 40
4.0
 40
4.0
 40
5.0
 40
5.0
 40
5.0
 40
6.0
 40
6.0
 40
6.0
 40
7.0
 40
7.0
 40
7.0
 40
7.0
 10
177.947168415868
 20
-747.1135843657303
 30
0.0
 10
178.140611947033
 20
-747.6132248575759
 30
0.0
 10
178.3340554782217
 20
-748.1128809900965
 30
0.0
 10
178.5274990093867
 20
-748.6125214819658
 30
0.0
 10
187.4880260961718
 20
-748.7611232760701
 30
0.0
 10
196.4484280577681
 20
-748.9332329637382
 30
0.0
 10
205.4095182078518
 20
-749.0157060992406
 30
0.0
 10
206.1620210516476
 20
-749.0226192655446
 30
0.0
 10
207.316113166632
 20
-748.6378593312929
 30
0.0
 10
207.6127224102574
 20
-748.0790346284048
 30
0.0
 10
209.8711068178482
 20
-743.8234959116544
 30
0.0
 10
212.2640007959826
 20
-739.5969862370894
 30
0.0
 10
213.865540561329
 20
-734.0626525209827
 30
0.0
 10
206.9733952934885
 20
-734.0626525209827
 30
0.0
 10
201.024506209179
 20
-734.0296976761947
 30
0.0
 10
195.0768058140957
 20
-734.0957794128681
 30
0.0
 10
194.1088999697158
 20
-734.1065245378686
 30
0.0
 10
192.9090746007651
 20
-734.2715959340476
 30
0.0
 10
192.2186964097828
 20
-734.8475002242703
 30
0.0
 10
187.4021276588091
 20
-738.8650821263709
 30
0.0
 10
182.6916024994871
 20
-743.0096817287613
 30
0.0
 10
177.947168415868
 20
-747.1135843657303
 30
0.0
  0
SPLINE
  5
4C
330
45
100
AcDbEntity
  8
Layer 1
370
     0
100
AcDbSpline
210
0.0
220
0.0
230
1.0
 70
    11
 71
     3
 72
    23
 73
    19
 74
     0
 42
0.0000000001
 43
0.0000000001
 12
1.0
 22
0.0
 32
0.0
 13
1.0
 23
0.0
 33
0.0
 40
0.0
 40
0.0
 40
0.0
 40
0.0
 40
1.0
 40
1.0
 40
1.0
 40
2.0
 40
2.0
 40
2.0
 40
3.0
 40
3.0
 40
3.0
 40
4.0
 40
4.0
 40
4.0
 40
5.0
 40
5.0
 40
5.0
 40
6.0
 40
6.0
 40
6.0
 40
6.0
 10
239.746245491885
 20
-700.2923825759299
 30
0.0
 10
245.1358875758169
 20
-706.0670661257882
 30
0.0
 10
250.0646310523343
 20
-711.3711382259644
 30
0.0
 10
255.0366052791787
 20
-716.634341313631
 30
0.0
 10
255.4721660372716
 20
-717.0954588901186
 30
0.0
 10
256.1858175120806
 20
-717.5517435064485
 30
0.0
 10
256.7800370007926
 20
-717.5647252440849
 30
0.0
 10
262.1110579370043
 20
-717.6811855071155
 30
0.0
 10
267.4628496534342
 20
-718.1179036731264
 30
0.0
 10
273.3814584437268
 20
-717.2424027755751
 30
0.0
 10
268.9097346940025
 20
-711.0322523115119
 30
0.0
 10
263.9450802902966
 20
-706.1814461826634
 30
0.0
 10
258.8376580540762
 20
-701.4683246758013
 30
0.0
 10
258.2431883149975
 20
-700.9197915191507
 30
0.0
 10
257.3723170491658
 20
-700.3571504981883
 30
0.0
 10
256.61981420539
 20
-700.3436526192054
 30
0.0
 10
251.2580750370225
 20
-700.2474939169351
 30
0.0
 10
245.8937708024159
 20
-700.2923825759299
 30
0.0
 10
239.746245491885
 20
-700.2923825759299
 30
0.0
  0
SPLINE
  5
4D
330
45
100
AcDbEntity
  8
Layer 1
370
     0
100
AcDbSpline
210
0.0
220
0.0
230
1.0
 70
    11
 71
     3
 72
    17
 73
    13
 74
     0
 42
0.0000000001
 43
0.0000000001
 12
1.0
 22
0.0
 32
0.0
 13
1.0
 23
0.0
 33
0.0
 40
0.0
 40
0.0
 40
0.0
 40
0.0
 40
1.0
 40
1.0
 40
1.0
 40
2.0
 40
2.0
 40
2.0
 40
3.0
 40
3.0
 40
3.0
 40
4.0
 40
4.0
 40
4.0
 40
4.0
 10
223.2992910859421
 20
-734.2515289830135
 30
0.0
 10
221.2612521236251
 20
-738.9334630382873
 30
0.0
 10
219.2523673286805
 20
-743.5485489651437
 30
0.0
 10
217.1206096051437
 20
-748.4458234584217
 30
0.0
 10
224.1648445315286
 20
-748.4458234584217
 30
0.0
 10
230.6968169633883
 20
-748.4458234584217
 30
0.0
 10
236.9949929928907
 20
-748.4458234584217
 30
0.0
 10
239.0383497754292
 20
-743.5546644584083
 30
0.0
 10
240.9067189911539
 20
-739.0822055982226
 30
0.0
 10
242.924737924367
 20
-734.2515289830135
 30
0.0
 10
236.0778254097704
 20
-734.2515289830135
 30
0.0
 10
229.8107429879519
 20
-734.2515289830135
 30
0.0
 10
223.2992910859421
 20
-734.2515289830135
 30
0.0
  0
SPLINE
  5
4E
330
45
100
AcDbEntity
  8
Layer 1
370
     0
100
AcDbSpline
210
0.0
220
0.0
230
1.0
 70
    11
 71
     3
 72
    26
 73
    22
 74
     0
 42
0.0000000001
 43
0.0000000001
 12
1.0
 22
0.0
 32
0.0
 13
1.0
 23
0.0
 33
0.0
 40
0.0
 40
0.0
 40
0.0
 40
0.0
 40
1.0
 40
1.0
 40
1.0
 40
2.0
 40
2.0
 40
2.0
 40
3.0
 40
3.0
 40
3.0
 40
4.0
 40
4.0
 40
4.0
 40
5.0
 40
5.0
 40
5.0
 40
6.0
 40
6.0
 40
6.0
 40
7.0
 40
7.0
 40
7.0
 40
7.0
 10
178.5428268441747
 20
-700.2268639025788
 30
0.0
 10
184.0938178501283
 20
-705.853242830608
 30
0.0
 10
188.8597109024495
 20
-710.6994036870947
 30
0.0
 10
193.6535068703115
 20
-715.5178649564277
 30
0.0
 10
194.118659733912
 20
-715.985379557851
 30
0.0
 10
194.7290829336571
 20
-716.5561849968963
 30
0.0
 10
195.3177343517737
 20
-716.6139771902726
 30
0.0
 10
200.1257320277791
 20
-717.0861214234337
 30
0.0
 10
204.9446155946216
 20
-717.4476706364349
 30
0.0
 10
210.7374110145511
 20
-717.9230368430162
 30
0.0
 10
209.6801657903188
 20
-716.4071609052862
 30
0.0
 10
209.3930034979121
 20
-715.8293797373572
 30
0.0
 10
208.9593821801582
 20
-715.3992932059737
 30
0.0
 10
204.365974191046
 20
-710.8430004739512
 30
0.0
 10
199.7690001342808
 20
-706.289914074694
 30
0.0
 10
195.1178468737426
 20
-701.7929150382479
 30
0.0
 10
194.4224636754889
 20
-701.1205392328029
 30
0.0
 10
193.4579362110444
 20
-700.3270578919619
 30
0.0
 10
192.5931335165178
 20
-700.296746316646
 30
0.0
 10
188.2454088220302
 20
-700.1444220483809
 30
0.0
 10
183.8894884281244
 20
-700.2268639025788
 30
0.0
 10
178.5428268441747
 20
-700.2268639025788
 30
0.0
  0
SPLINE
  5
4F
330
45
100
AcDbEntity
  8
Layer 1
370
     0
100
AcDbSpline
210
0.0
220
0.0
230
1.0
 70
    11
 71
     3
 72
    26
 73
    22
 74
     0
 42
0.0000000001
 43
0.0000000001
 12
1.0
 22
0.0
 32
0.0
 13
1.0
 23
0.0
 33
0.0
 40
0.0
 40
0.0
 40
0.0
 40
0.0
 40
1.0
 40
1.0
 40
1.0
 40
2.0
 40
2.0
 40
2.0
 40
3.0
 40
3.0
 40
3.0
 40
4.0
 40
4.0
 40
4.0
 40
5.0
 40
5.0
 40
5.0
 40
6.0
 40
6.0
 40
6.0
 40
7.0
 40
7.0
 40
7.0
 40
7.0
 10
244.6751766561656
 20
-748.5370866379362
 30
0.0
 10
249.0882166955898
 20
-748.5370866379362
 30
0.0
 10
252.4699749860401
 20
-748.5441092887704
 30
0.0
 10
255.8517332764832
 20
-748.5328011004476
 30
0.0
 10
256.8716911965103
 20
-748.5293914392587
 30
0.0
 10
257.9101050808613
 20
-748.5826322041303
 30
0.0
 10
258.9054133400668
 20
-748.4099750937876
 30
0.0
 10
259.6990823686692
 20
-748.2722591905022
 30
0.0
 10
260.549933605399
 20
-747.974993039672
 30
0.0
 10
261.1814403982908
 20
-747.4939336373118
 30
0.0
 10
262.4982578123081
 20
-746.490836335548
 30
0.0
 10
267.8330325040124
 20
-736.4654939510492
 30
0.0
 10
268.3640637758681
 20
-734.1369299570415
 30
0.0
 10
263.8926528390921
 20
-734.1369299570415
 30
0.0
 10
259.4748580427486
 20
-734.0289312844525
 30
0.0
 10
255.0688250135127
 20
-734.2091584683094
 30
0.0
 10
253.8953384953211
 20
-734.2571596161852
 30
0.0
 10
252.2419343420688
 20
-734.8727129484159
 30
0.0
 10
251.6932604195817
 20
-735.7690628293876
 30
0.0
 10
249.3234520375145
 20
-739.6405610816728
 30
0.0
 10
247.2818470074972
 20
-743.7129790947529
 30
0.0
 10
244.6751766561656
 20
-748.5370866379362
 30
0.0
  0
HATCH
  5
50
330
45
100
AcDbEntity
  8
Layer 1
 62
     7
420
 16777215
100
AcDbHatch
 10
0.0
 20
0.0
 30
0.0
210
0.0
220
0.0
230
1.0
  2
SOLID
 70
     1
 71
     0
 91
        7
 92
        1
 93
        1
 72
     4
 94
        3
 73
     0
 74
     1
 95
       74
 96
       70
 40
0.0
 40
0.0
 40
0.0
 40
0.0
 40
1.0
 40
1.0
 40
1.0
 40
2.0
 40
2.0
 40
2.0
 40
3.0
 40
3.0
 40
3.0
 40
4.0
 40
4.0
 40
4.0
 40
5.0
 40
5.0
 40
5.0
 40
6.0
 40
6.0
 40
6.0
 40
7.0
 40
7.0
 40
7.0
 40
8.0
 40
8.0
 40
8.0
 40
9.0
 40
9.0
 40
9.0
 40
10.0
 40
10.0
 40
10.0
 40
11.0
 40
11.0
 40
11.0
 40
12.0
 40
12.0
 40
12.0
 40
13.0
 40
13.0
 40
13.0
 40
14.0
 40
14.0
 40
14.0
 40
15.0
 40
15.0
 40
15.0
 40
16.0
 40
16.0
 40
16.0
 40
17.0
 40
17.0
 40
17.0
 40
18.0
 40
18.0
 40
18.0
 40
19.0
 40
19.0
 40
19.0
 40
20.0
 40
20.0
 40
20.0
 40
21.0
 40
21.0
 40
21.0
 40
22.0
 40
22.0
 40
22.0
 40
23.0
 40
23.0
 40
23.0
 40
23.0
 10
389.7666463615778
 20
-717.9927784912707
 10
392.1499057006813
 20
-723.4781569799688
 10
394.3061879598708
 20
-728.4411691156656
 10
396.7692771650263
 20
-734.1106067469336
 10
394.3815133193702
 20
-734.1834608840745
 10
392.4413222492922
 20
-734.296042266451
 10
390.5011311791668
 20
-734.293899497723
 10
356.3579725515056
 20
-734.2562524586119
 10
322.214313423131
 20
-734.2763663316
 10
288.0722809220943
 20
-734.0627620055184
 10
283.9286353992347
 20
-734.0368298115627
 10
281.0090895306375
 20
-734.9058241996627
 10
278.6725018843581
 20
-738.5178128247444
 10
275.8053834669399
 20
-742.9498562511653
 10
272.2111626177038
 20
-746.9099744135165
 10
269.3200201653699
 20
-751.3284261170684
 10
266.5052040739911
 20
-755.6302142291734
 10
262.6232578690042
 20
-757.4324078643203
 10
257.7321145096439
 20
-757.6560065643134
 10
252.4457632633557
 20
-757.8976858531041
 10
247.1606007062665
 20
-758.3106458752209
 10
241.8728105203818
 20
-758.3474952412871
 10
227.0377812699126
 20
-758.4508799227951
 10
212.2091334037241
 20
-759.3084566380621
 10
197.3640315761068
 20
-757.9927027880785
 10
188.0238121249522
 20
-757.1648589441847
 10
178.6045761214309
 20
-756.6559904701371
 10
169.2408956986537
 20
-756.8732077858731
 10
163.3263534767548
 20
-757.0104231884416
 10
160.0177934177036
 20
-751.9053939713267
 10
163.6611884634631
 20
-746.9397385661614
 10
166.8652689956461
 20
-742.5727289530241
 10
170.5615294307217
 20
-738.4789770964308
 10
174.520740435496
 20
-734.7784311238702
 10
178.4903993929702
 20
-731.0680471838878
 10
183.0544655269032
 20
-727.9935337775296
 10
187.7692449424276
 20
-724.3198897190832
 10
186.0314438539926
 20
-722.7692759027359
 10
184.2645511607871
 20
-721.3244710683157
 10
182.648309186553
 20
-719.7272324810783
 10
176.45630187386
 20
-713.607969820996
 10
170.3052730582594
 20
-707.4471812411703
 10
164.1598123132017
 20
-701.2810122785486
 10
163.3188459658495
 20
-700.4372618958932
 10
162.5311829459761
 20
-699.5231755203804
 10
161.8292932382765
 20
-698.5610723563113
 10
158.414189086855
 20
-693.8798186692347
 10
160.2091723833901
 20
-689.9476894459949
 10
166.0477010572877
 20
-689.2965614604964
 10
166.8926088478647
 20
-689.20232655791
 10
167.7534075365538
 20
-689.2040392088402
 10
168.6053223373483
 20
-689.225333950717
 10
197.2700000019386
 20
-689.9420118908693
 10
225.9323002880838
 20
-690.8009415221368
 10
254.6008568333009
 20
-691.2869746504894
 10
261.0666380439243
 20
-691.3965921301278
 10
265.6591701567677
 20
-693.9431711128618
 10
269.438013211874
 20
-698.8075064020213
 10
273.5209730215129
 20
-704.0632332600635
 10
277.8678218397554
 20
-709.1240150847425
 10
281.7508316087597
 20
-714.5206954601435
 10
283.578034639625
 20
-717.0601110262469
 10
285.5492567548345
 20
-717.8286924558761
 10
288.5586425040192
 20
-717.8261899522386
 10
318.7752477993936
 20
-717.8011023532799
 10
348.9917279695628
 20
-717.9175469756537
 10
379.2083332648899
 20
-717.9916367239766
 10
382.6163678435414
 20
-717.9999888298498
 10
386.0245275473562
 20
-717.9927784912707
 10
389.7666463615778
 20
-717.9927784912707
 97
        0
 97
        0
 92
        1
 93
        1
 72
     4
 94
        3
 73
     0
 74
     1
 95
       26
 96
       22
 40
0.0
 40
0.0
 40
0.0
 40
0.0
 40
1.0
 40
1.0
 40
1.0
 40
2.0
 40
2.0
 40
2.0
 40
3.0
 40
3.0
 40
3.0
 40
4.0
 40
4.0
 40
4.0
 40
5.0
 40
5.0
 40
5.0
 40
6.0
 40
6.0
 40
6.0
 40
7.0
 40
7.0
 40
7.0
 40
7.0
 10
206.2509850559409
 20
-700.1196785436568
 10
211.5273888502934
 20
-705.9226403846133
 10
216.3233119462593
 20
-711.3727492126727
 10
221.3696730937236
 20
-716.5801464692304
 10
222.2436099264951
 20
-717.4820174988672
 10
224.1719141043204
 20
-717.6260365832113
 10
225.6233036514395
 20
-717.6575524883829
 10
231.0675003146816
 20
-717.7757332226483
 10
236.5160137966805
 20
-717.7255111027844
 10
241.9624627131825
 20
-717.676884328981
 10
242.8384015488909
 20
-717.6690796457751
 10
243.7114625053882
 20
-717.3476017722332
 10
245.0010026297468
 20
-717.0873413939389
 10
239.8657400405655
 20
-711.5475647324201
 10
235.1781753520963
 20
-706.3993516869104
 10
230.3523473376945
 20
-701.3841936316603
 10
229.6369441103352
 20
-700.6408405668062
 10
228.2740180667943
 20
-700.1904055527175
 10
227.2020080710981
 20
-700.174076716472
 10
220.2461740856843
 20
-700.0680174841928
 10
213.2879001592146
 20
-700.1196785436568
 10
206.2509850559409
 20
-700.1196785436568
 97
        0
 97
        0
 92
        1
 93
        1
 72
     4
 94
        3
 73
     0
 74
     1
 95
       26
 96
       22
 40
0.0
 40
0.0
 40
0.0
 40
0.0
 40
1.0
 40
1.0
 40
1.0
 40
2.0
 40
2.0
 40
2.0
 40
3.0
 40
3.0
 40
3.0
 40
4.0
 40
4.0
 40
4.0
 40
5.0
 40
5.0
 40
5.0
 40
6.0
 40
6.0
 40
6.0
 40
7.0
 40
7.0
 40
7.0
 40
7.0
 10
177.947168415868
 20
-747.1135843657303
 10
178.140611947033
 20
-747.6132248575759
 10
178.3340554782217
 20
-748.1128809900965
 10
178.5274990093867
 20
-748.6125214819658
 10
187.4880260961718
 20
-748.7611232760701
 10
196.4484280577681
 20
-748.9332329637382
 10
205.4095182078518
 20
-749.0157060992406
 10
206.1620210516476
 20
-749.0226192655446
 10
207.316113166632
 20
-748.6378593312929
 10
207.6127224102574
 20
-748.0790346284048
 10
209.8711068178482
 20
-743.8234959116544
 10
212.2640007959826
 20
-739.5969862370894
 10
213.865540561329
 20
-734.0626525209827
 10
206.9733952934885
 20
-734.0626525209827
 10
201.024506209179
 20
-734.0296976761947
 10
195.0768058140957
 20
-734.0957794128681
 10
194.1088999697158
 20
-734.1065245378686
 10
192.9090746007651
 20
-734.2715959340476
 10
192.2186964097828
 20
-734.8475002242703
 10
187.4021276588091
 20
-738.8650821263709
 10
182.6916024994871
 20
-743.0096817287613
 10
177.947168415868
 20
-747.1135843657303
 97
        0
 97
        0
 92
        1
 93
        1
 72
     4
 94
        3
 73
     0
 74
     1
 95
       23
 96
       19
 40
0.0
 40
0.0
 40
0.0
 40
0.0
 40
1.0
 40
1.0
 40
1.0
 40
2.0
 40
2.0
 40
2.0
 40
3.0
 40
3.0
 40
3.0
 40
4.0
 40
4.0
 40
4.0
 40
5.0
 40
5.0
 40
5.0
 40
6.0
 40
6.0
 40
6.0
 40
6.0
 10
239.746245491885
 20
-700.2923825759299
 10
245.1358875758169
 20
-706.0670661257882
 10
250.0646310523343
 20
-711.3711382259644
 10
255.0366052791787
 20
-716.634341313631
 10
255.4721660372716
 20
-717.0954588901186
 10
256.1858175120806
 20
-717.5517435064485
 10
256.7800370007926
 20
-717.5647252440849
 10
262.1110579370043
 20
-717.6811855071155
 10
267.4628496534342
 20
-718.1179036731264
 10
273.3814584437268
 20
-717.2424027755751
 10
268.9097346940025
 20
-711.0322523115119
 10
263.9450802902966
 20
-706.1814461826634
 10
258.8376580540762
 20
-701.4683246758013
 10
258.2431883149975
 20
-700.9197915191507
 10
257.3723170491658
 20
-700.3571504981883
 10
256.61981420539
 20
-700.3436526192054
 10
251.2580750370225
 20
-700.2474939169351
 10
245.8937708024159
 20
-700.2923825759299
 10
239.746245491885
 20
-700.2923825759299
 97
        0
 97
        0
 92
        1
 93
        1
 72
     4
 94
        3
 73
     0
 74
     1
 95
       17
 96
       13
 40
0.0
 40
0.0
 40
0.0
 40
0.0
 40
1.0
 40
1.0
 40
1.0
 40
2.0
 40
2.0
 40
2.0
 40
3.0
 40
3.0
 40
3.0
 40
4.0
 40
4.0
 40
4.0
 40
4.0
 10
223.2992910859421
 20
-734.2515289830135
 10
221.2612521236251
 20
-738.9334630382873
 10
219.2523673286805
 20
-743.5485489651437
 10
217.1206096051437
 20
-748.4458234584217
 10
224.1648445315286
 20
-748.4458234584217
 10
230.6968169633883
 20
-748.4458234584217
 10
236.9949929928907
 20
-748.4458234584217
 10
239.0383497754292
 20
-743.5546644584083
 10
240.9067189911539
 20
-739.0822055982226
 10
242.924737924367
 20
-734.2515289830135
 10
236.0778254097704
 20
-734.2515289830135
 10
229.8107429879519
 20
-734.2515289830135
 10
223.2992910859421
 20
-734.2515289830135
 97
        0
 97
        0
 92
        1
 93
        1
 72
     4
 94
        3
 73
     0
 74
     1
 95
       26
 96
       22
 40
0.0
 40
0.0
 40
0.0
 40
0.0
 40
1.0
 40
1.0
 40
1.0
 40
2.0
 40
2.0
 40
2.0
 40
3.0
 40
3.0
 40
3.0
 40
4.0
 40
4.0
 40
4.0
 40
5.0
 40
5.0
 40
5.0
 40
6.0
 40
6.0
 40
6.0
 40
7.0
 40
7.0
 40
7.0
 40
7.0
 10
178.5428268441747
 20
-700.2268639025788
 10
184.0938178501283
 20
-705.853242830608
 10
188.8597109024495
 20
-710.6994036870947
 10
193.6535068703115
 20
-715.5178649564277
 10
194.118659733912
 20
-715.985379557851
 10
194.7290829336571
 20
-716.5561849968963
 10
195.3177343517737
 20
-716.6139771902726
 10
200.1257320277791
 20
-717.0861214234337
 10
204.9446155946216
 20
-717.4476706364349
 10
210.7374110145511
 20
-717.9230368430162
 10
209.6801657903188
 20
-716.4071609052862
 10
209.3930034979121
 20
-715.8293797373572
 10
208.9593821801582
 20
-715.3992932059737
 10
204.365974191046
 20
-710.8430004739512
 10
199.7690001342808
 20
-706.289914074694
 10
195.1178468737426
 20
-701.7929150382479
 10
194.4224636754889
 20
-701.1205392328029
 10
193.4579362110444
 20
-700.3270578919619
 10
192.5931335165178
 20
-700.296746316646
 10
188.2454088220302
 20
-700.1444220483809
 10
183.8894884281244
 20
-700.2268639025788
 10
178.5428268441747
 20
-700.2268639025788
 97
        0
 97
        0
 92
        1
 93
        1
 72
     4
 94
        3
 73
     0
 74
     1
 95
       26
 96
       22
 40
0.0
 40
0.0
 40
0.0
 40
0.0
 40
1.0
 40
1.0
 40
1.0
 40
2.0
 40
2.0
 40
2.0
 40
3.0
 40
3.0
 40
3.0
 40
4.0
 40
4.0
 40
4.0
 40
5.0
 40
5.0
 40
5.0
 40
6.0
 40
6.0
 40
6.0
 40
7.0
 40
7.0
 40
7.0
 40
7.0
 10
244.6751766561656
 20
-748.5370866379362
 10
249.0882166955898
 20
-748.5370866379362
 10
252.4699749860401
 20
-748.5441092887704
 10
255.8517332764832
 20
-748.5328011004476
 10
256.8716911965103
 20
-748.5293914392587
 10
257.9101050808613
 20
-748.5826322041303
 10
258.9054133400668
 20
-748.4099750937876
 10
259.6990823686692
 20
-748.2722591905022
 10
260.549933605399
 20
-747.974993039672
 10
261.1814403982908
 20
-747.4939336373118
 10
262.4982578123081
 20
-746.490836335548
 10
267.8330325040124
 20
-736.4654939510492
 10
268.3640637758681
 20
-734.1369299570415
 10
263.8926528390921
 20
-734.1369299570415
 10
259.4748580427486
 20
-734.0289312844525
 10
255.0688250135127
 20
-734.2091584683094
 10
253.8953384953211
 20
-734.2571596161852
 10
252.2419343420688
 20
-734.8727129484159
 10
251.6932604195817
 20
-735.7690628293876
 10
249.3234520375145
 20
-739.6405610816728
 10
247.2818470074972
 20
-743.7129790947529
 10
244.6751766561656
 20
-748.5370866379362
 97
        0
 97
        0
 75
     2
 76
     1
 98
        0
  0
SPLINE
  5
51
330
45
100
AcDbEntity
  8
Layer 1
370
     0
100
AcDbSpline
210
0.0
220
0.0
230
1.0
 70
    11
 71
     3
 72
    65
 73
    61
 74
     0
 42
0.0000000001
 43
0.0000000001
 12
1.0
 22
0.0
 32
0.0
 13
1.0
 23
0.0
 33
0.0
 40
0.0
 40
0.0
 40
0.0
 40
0.0
 40
1.0
 40
1.0
 40
1.0
 40
2.0
 40
2.0
 40
2.0
 40
3.0
 40
3.0
 40
3.0
 40
4.0
 40
4.0
 40
4.0
 40
5.0
 40
5.0
 40
5.0
 40
6.0
 40
6.0
 40
6.0
 40
7.0
 40
7.0
 40
7.0
 40
8.0
 40
8.0
 40
8.0
 40
9.0
 40
9.0
 40
9.0
 40
10.0
 40
10.0
 40
10.0
 40
11.0
 40
11.0
 40
11.0
 40
12.0
 40
12.0
 40
12.0
 40
13.0
 40
13.0
 40
13.0
 40
14.0
 40
14.0
 40
14.0
 40
15.0
 40
15.0
 40
15.0
 40
16.0
 40
16.0
 40
16.0
 40
17.0
 40
17.0
 40
17.0
 40
18.0
 40
18.0
 40
18.0
 40
19.0
 40
19.0
 40
19.0
 40
20.0
 40
20.0
 40
20.0
 40
20.0
 10
676.0329173294776
 20
-734.0491702826257
 30
0.0
 10
605.8385661757784
 20
-734.1657400301901
 30
0.0
 10
536.8950914652714
 20
-735.4115958254297
 30
0.0
 10
466.8462608981163
 20
-734.4938026164036
 30
0.0
 10
469.1987394424787
 20
-731.0665769630123
 30
0.0
 10
471.4761428777174
 20
-728.5441940622877
 30
0.0
 10
472.8382556075658
 20
-725.5985126713185
 30
0.0
 10
475.6659595927022
 20
-719.4832227357674
 30
0.0
 10
480.0619826073935
 20
-718.0163645880257
 30
0.0
 10
486.6580816949399
 20
-718.1000889753577
 30
0.0
 10
547.9630394277192
 20
-718.8781329968933
 30
0.0
 10
609.2727519174332
 20
-719.2759528719962
 30
0.0
 10
670.5810880301506
 20
-719.7812083564113
 30
0.0
 10
672.5526855209137
 20
-719.797458989402
 30
0.0
 10
674.5246583872067
 20
-719.7832729219081
 30
0.0
 10
677.6972073735669
 20
-719.7832729219081
 30
0.0
 10
675.5914756878483
 20
-717.5372602666557
 30
0.0
 10
674.3274611005836
 20
-716.2536479477767
 30
0.0
 10
673.1361442439702
 20
-714.9058151292975
 30
0.0
 10
669.9748565239788
 20
-711.3295028216944
 30
0.0
 10
666.7630182305256
 20
-707.7925423837896
 30
0.0
 10
663.7383672091491
 20
-704.1029448646477
 30
0.0
 10
662.3359641707248
 20
-702.3923741439485
 30
0.0
 10
661.0595621904431
 20
-700.3469840771595
 30
0.0
 10
662.4534567165101
 20
-698.0160270640772
 30
0.0
 10
663.9657196646185
 20
-695.4870359897104
 30
0.0
 10
666.5653204431765
 20
-695.589138138128
 30
0.0
 10
668.8644956600656
 20
-696.1994753143299
 30
0.0
 10
674.1288874369347
 20
-697.5969202674187
 30
0.0
 10
679.4414524088497
 20
-698.9854500512865
 30
0.0
 10
684.4878761189175
 20
-700.9963368491462
 30
0.0
 10
695.4268200188453
 20
-705.3551664035222
 30
0.0
 10
706.2263744661868
 20
-710.0668958927217
 30
0.0
 10
717.053831829071
 20
-714.7020956925717
 30
0.0
 10
724.4232045405843
 20
-717.8569863876237
 30
0.0
 10
731.7709305956414
 20
-721.0664160213546
 30
0.0
 10
739.0717347074715
 20
-724.3760240037936
 30
0.0
 10
741.8545187523123
 20
-725.637551728074
 30
0.0
 10
744.9044450604197
 20
-726.9419035458468
 30
0.0
 10
744.8685341332348
 20
-730.7639460699847
 30
0.0
 10
744.8317473297429
 20
-734.6867769281544
 30
0.0
 10
741.9120763359642
 20
-736.4858893556866
 30
0.0
 10
738.8591470234715
 20
-737.633740852225
 30
0.0
 10
730.4034374829425
 20
-740.8130153171242
 30
0.0
 10
721.9597399598933
 20
-744.1219507517108
 30
0.0
 10
713.290691984279
 20
-746.6112693230862
 30
0.0
 10
701.1586794752002
 20
-750.0950046367707
 30
0.0
 10
688.8335988104955
 20
-752.9099302126833
 30
0.0
 10
676.57420886627
 20
-755.9427143708836
 30
0.0
 10
674.5991078704101
 20
-756.431328206103
 30
0.0
 10
672.5380458746367
 20
-756.8035443408753
 30
0.0
 10
670.5138958074785
 20
-756.8169640166252
 30
0.0
 10
665.364118697209
 20
-756.8511075506212
 30
0.0
 10
663.0171456608332
 20
-753.0455033472372
 30
0.0
 10
665.5948495325792
 20
-748.5331764760067
 30
0.0
 10
667.446076598364
 20
-745.2926375939387
 30
0.0
 10
669.9308124599811
 20
-742.4137104875008
 30
0.0
 10
672.1368945415561
 20
-739.376343619515
 30
0.0
 10
673.2077158480024
 20
-737.9021812892879
 30
0.0
 10
674.2876712927391
 20
-736.4346505937119
 30
0.0
 10
676.0329173294776
 20
-734.0491702826257
 30
0.0
  0
SPLINE
  5
52
330
45
100
AcDbEntity
  8
Layer 1
370
     0
100
AcDbSpline
210
0.0
220
0.0
230
1.0
 70
    11
 71
     3
 72
    20
 73
    16
 74
     0
 42
0.0000000001
 43
0.0000000001
 12
1.0
 22
0.0
 32
0.0
 13
1.0
 23
0.0
 33
0.0
 40
0.0
 40
0.0
 40
0.0
 40
0.0
 40
1.0
 40
1.0
 40
1.0
 40
2.0
 40
2.0
 40
2.0
 40
3.0
 40
3.0
 40
3.0
 40
4.0
 40
4.0
 40
4.0
 40
5.0
 40
5.0
 40
5.0
 40
5.0
 10
679.2910519402467
 20
-744.2901502774312
 30
0.0
 10
688.7645297100898
 20
-744.3502103647243
 30
0.0
 10
728.8996830472279
 20
-732.4465356719138
 30
0.0
 10
733.1237840620379
 20
-729.1862426517855
 30
0.0
 10
714.5220488990817
 20
-721.6618711212159
 30
0.0
 10
696.1485420679019
 20
-714.2298576155536
 30
0.0
 10
677.7750352366784
 20
-706.7978597505116
 30
0.0
 10
681.7905525733004
 20
-711.8577031363366
 30
0.0
 10
686.172436442459
 20
-716.3505104792039
 30
0.0
 10
690.6053713858055
 20
-720.7921572633313
 30
0.0
 10
694.8705134602424
 20
-725.0655419591512
 30
0.0
 10
694.5473151154838
 20
-728.6697728229537
 30
0.0
 10
690.0623280964683
 20
-732.8683795819506
 30
0.0
 10
686.2492633041147
 20
-736.4378412858514
 30
0.0
 10
682.8650025100324
 20
-740.4653080773351
 30
0.0
 10
679.2910519402467
 20
-744.2901502774312
 30
0.0
  0
HATCH
  5
53
330
45
100
AcDbEntity
  8
Layer 1
 62
     7
420
 16777215
100
AcDbHatch
 10
0.0
 20
0.0
 30
0.0
210
0.0
220
0.0
230
1.0
  2
SOLID
 70
     1
 71
     0
 91
        2
 92
        1
 93
        1
 72
     4
 94
        3
 73
     0
 74
     1
 95
       65
 96
       61
 40
0.0
 40
0.0
 40
0.0
 40
0.0
 40
1.0
 40
1.0
 40
1.0
 40
2.0
 40
2.0
 40
2.0
 40
3.0
 40
3.0
 40
3.0
 40
4.0
 40
4.0
 40
4.0
 40
5.0
 40
5.0
 40
5.0
 40
6.0
 40
6.0
 40
6.0
 40
7.0
 40
7.0
 40
7.0
 40
8.0
 40
8.0
 40
8.0
 40
9.0
 40
9.0
 40
9.0
 40
10.0
 40
10.0
 40
10.0
 40
11.0
 40
11.0
 40
11.0
 40
12.0
 40
12.0
 40
12.0
 40
13.0
 40
13.0
 40
13.0
 40
14.0
 40
14.0
 40
14.0
 40
15.0
 40
15.0
 40
15.0
 40
16.0
 40
16.0
 40
16.0
 40
17.0
 40
17.0
 40
17.0
 40
18.0
 40
18.0
 40
18.0
 40
19.0
 40
19.0
 40
19.0
 40
20.0
 40
20.0
 40
20.0
 40
20.0
 10
676.0329173294776
 20
-734.0491702826257
 10
605.8385661757784
 20
-734.1657400301901
 10
536.8950914652714
 20
-735.4115958254297
 10
466.8462608981163
 20
-734.4938026164036
 10
469.1987394424787
 20
-731.0665769630123
 10
471.4761428777174
 20
-728.5441940622877
 10
472.8382556075658
 20
-725.5985126713185
 10
475.6659595927022
 20
-719.4832227357674
 10
480.0619826073935
 20
-718.0163645880257
 10
486.6580816949399
 20
-718.1000889753577
 10
547.9630394277192
 20
-718.8781329968933
 10
609.2727519174332
 20
-719.2759528719962
 10
670.5810880301506
 20
-719.7812083564113
 10
672.5526855209137
 20
-719.797458989402
 10
674.5246583872067
 20
-719.7832729219081
 10
677.6972073735669
 20
-719.7832729219081
 10
675.5914756878483
 20
-717.5372602666557
 10
674.3274611005836
 20
-716.2536479477767
 10
673.1361442439702
 20
-714.9058151292975
 10
669.9748565239788
 20
-711.3295028216944
 10
666.7630182305256
 20
-707.7925423837896
 10
663.7383672091491
 20
-704.1029448646477
 10
662.3359641707248
 20
-702.3923741439485
 10
661.0595621904431
 20
-700.3469840771595
 10
662.4534567165101
 20
-698.0160270640772
 10
663.9657196646185
 20
-695.4870359897104
 10
666.5653204431765
 20
-695.589138138128
 10
668.8644956600656
 20
-696.1994753143299
 10
674.1288874369347
 20
-697.5969202674187
 10
679.4414524088497
 20
-698.9854500512865
 10
684.4878761189175
 20
-700.9963368491462
 10
695.4268200188453
 20
-705.3551664035222
 10
706.2263744661868
 20
-710.0668958927217
 10
717.053831829071
 20
-714.7020956925717
 10
724.4232045405843
 20
-717.8569863876237
 10
731.7709305956414
 20
-721.0664160213546
 10
739.0717347074715
 20
-724.3760240037936
 10
741.8545187523123
 20
-725.637551728074
 10
744.9044450604197
 20
-726.9419035458468
 10
744.8685341332348
 20
-730.7639460699847
 10
744.8317473297429
 20
-734.6867769281544
 10
741.9120763359642
 20
-736.4858893556866
 10
738.8591470234715
 20
-737.633740852225
 10
730.4034374829425
 20
-740.8130153171242
 10
721.9597399598933
 20
-744.1219507517108
 10
713.290691984279
 20
-746.6112693230862
 10
701.1586794752002
 20
-750.0950046367707
 10
688.8335988104955
 20
-752.9099302126833
 10
676.57420886627
 20
-755.9427143708836
 10
674.5991078704101
 20
-756.431328206103
 10
672.5380458746367
 20
-756.8035443408753
 10
670.5138958074785
 20
-756.8169640166252
 10
665.364118697209
 20
-756.8511075506212
 10
663.0171456608332
 20
-753.0455033472372
 10
665.5948495325792
 20
-748.5331764760067
 10
667.446076598364
 20
-745.2926375939387
 10
669.9308124599811
 20
-742.4137104875008
 10
672.1368945415561
 20
-739.376343619515
 10
673.2077158480024
 20
-737.9021812892879
 10
674.2876712927391
 20
-736.4346505937119
 10
676.0329173294776
 20
-734.0491702826257
 97
        0
 97
        0
 92
        1
 93
        1
 72
     4
 94
        3
 73
     0
 74
     1
 95
       20
 96
       16
 40
0.0
 40
0.0
 40
0.0
 40
0.0
 40
1.0
 40
1.0
 40
1.0
 40
2.0
 40
2.0
 40
2.0
 40
3.0
 40
3.0
 40
3.0
 40
4.0
 40
4.0
 40
4.0
 40
5.0
 40
5.0
 40
5.0
 40
5.0
 10
679.2910519402467
 20
-744.2901502774312
 10
688.7645297100898
 20
-744.3502103647243
 10
728.8996830472279
 20
-732.4465356719138
 10
733.1237840620379
 20
-729.1862426517855
 10
714.5220488990817
 20
-721.6618711212159
 10
696.1485420679019
 20
-714.2298576155536
 10
677.7750352366784
 20
-706.7978597505116
 10
681.7905525733004
 20
-711.8577031363366
 10
686.172436442459
 20
-716.3505104792039
 10
690.6053713858055
 20
-720.7921572633313
 10
694.8705134602424
 20
-725.0655419591512
 10
694.5473151154838
 20
-728.6697728229537
 10
690.0623280964683
 20
-732.8683795819506
 10
686.2492633041147
 20
-736.4378412858514
 10
682.8650025100324
 20
-740.4653080773351
 10
679.2910519402467
 20
-744.2901502774312
 97
        0
 97
        0
 75
     2
 76
     1
 98
        0
  0
SPLINE
  5
54
330
45
100
AcDbEntity
  8
Layer 1
370
     0
100
AcDbSpline
210
0.0
220
0.0
230
1.0
 70
    11
 71
     3
 72
    44
 73
    40
 74
     0
 42
0.0000000001
 43
0.0000000001
 12
1.0
 22
0.0
 32
0.0
 13
1.0
 23
0.0
 33
0.0
 40
0.0
 40
0.0
 40
0.0
 40
0.0
 40
1.0
 40
1.0
 40
1.0
 40
2.0
 40
2.0
 40
2.0
 40
3.0
 40
3.0
 40
3.0
 40
4.0
 40
4.0
 40
4.0
 40
5.0
 40
5.0
 40
5.0
 40
6.0
 40
6.0
 40
6.0
 40
7.0
 40
7.0
 40
7.0
 40
8.0
 40
8.0
 40
8.0
 40
9.0
 40
9.0
 40
9.0
 40
10.0
 40
10.0
 40
10.0
 40
11.0
 40
11.0
 40
11.0
 40
12.0
 40
12.0
 40
12.0
 40
13.0
 40
13.0
 40
13.0
 40
13.0
 10
430.9449683399898
 20
-701.822726112825
 30
0.0
 10
434.3947947293518
 20
-697.8086946377225
 30
0.0
 10
437.2519031322036
 20
-694.1956111673044
 30
0.0
 10
440.4121898507337
 20
-690.8706909907323
 30
0.0
 10
445.9927729622241
 20
-684.9996141288811
 30
0.0
 10
452.9872706288361
 20
-682.9807740616634
 30
0.0
 10
460.939601562698
 20
-683.9388966808601
 30
0.0
 10
465.541956002292
 20
-684.4933811040191
 30
0.0
 10
468.8865521137222
 20
-686.9362234906548
 30
0.0
 10
471.0678594092706
 20
-690.9045764540369
 30
0.0
 10
474.0562241279176
 20
-696.3410622779284
 30
0.0
 10
475.1550734751154
 20
-702.1226980957053
 30
0.0
 10
473.370913506812
 20
-708.1933652632633
 30
0.0
 10
472.603896141939
 20
-710.8030229783162
 30
0.0
 10
471.6871039343505
 20
-713.4001525345466
 30
0.0
 10
470.5320733805102
 20
-715.8590031241638
 30
0.0
 10
463.918206517129
 20
-729.9366340081051
 30
0.0
 10
454.0971309920342
 20
-741.775446934771
 30
0.0
 10
443.5527067905541
 20
-752.9397725685612
 30
0.0
 10
436.7132392242574
 20
-760.1814706726273
 30
0.0
 10
435.7052307590848
 20
-759.9833036658401
 30
0.0
 10
427.8710179969321
 20
-753.5327408054418
 30
0.0
 10
421.2939379370355
 20
-748.1171978088587
 30
0.0
 10
414.9418329541541
 20
-742.392939707308
 30
0.0
 10
408.8362245795443
 20
-736.449681256172
 30
0.0
 10
402.2128482023591
 20
-730.0023403692485
 30
0.0
 10
397.9623457741791
 20
-722.0272053709887
 30
0.0
 10
395.8308383009944
 20
-713.0226498608336
 30
0.0
 10
394.2074641913869
 20
-706.1641632669107
 30
0.0
 10
394.5720789713696
 20
-699.4398108679543
 30
0.0
 10
398.1958293635353
 20
-693.1874306550199
 30
0.0
 10
402.9799906924136
 20
-684.9327268988509
 30
0.0
 10
411.6009905981691
 20
-683.1189748250399
 30
0.0
 10
419.0340520272466
 20
-689.1061131133702
 30
0.0
 10
422.3244689349476
 20
-691.7564756141583
 30
0.0
 10
425.0204161035499
 20
-695.1506447585798
 30
0.0
 10
427.9450921046
 20
-698.2460384296628
 30
0.0
 10
428.964486961303
 20
-699.3249615916411
 30
0.0
 10
429.8600078879817
 20
-700.5208455173833
 30
0.0
 10
430.9449683399898
 20
-701.822726112825
 30
0.0
  0
HATCH
  5
55
330
45
100
AcDbEntity
  8
Layer 1
 62
     7
420
 16777215
100
AcDbHatch
 10
0.0
 20
0.0
 30
0.0
210
0.0
220
0.0
230
1.0
  2
SOLID
 70
     1
 71
     0
 91
        1
 92
        1
 93
        1
 72
     4
 94
        3
 73
     0
 74
     1
 95
       44
 96
       40
 40
0.0
 40
0.0
 40
0.0
 40
0.0
 40
1.0
 40
1.0
 40
1.0
 40
2.0
 40
2.0
 40
2.0
 40
3.0
 40
3.0
 40
3.0
 40
4.0
 40
4.0
 40
4.0
 40
5.0
 40
5.0
 40
5.0
 40
6.0
 40
6.0
 40
6.0
 40
7.0
 40
7.0
 40
7.0
 40
8.0
 40
8.0
 40
8.0
 40
9.0
 40
9.0
 40
9.0
 40
10.0
 40
10.0
 40
10.0
 40
11.0
 40
11.0
 40
11.0
 40
12.0
 40
12.0
 40
12.0
 40
13.0
 40
13.0
 40
13.0
 40
13.0
 10
430.9449683399898
 20
-701.822726112825
 10
434.3947947293518
 20
-697.8086946377225
 10
437.2519031322036
 20
-694.1956111673044
 10
440.4121898507337
 20
-690.8706909907323
 10
445.9927729622241
 20
-684.9996141288811
 10
452.9872706288361
 20
-682.9807740616634
 10
460.939601562698
 20
-683.9388966808601
 10
465.541956002292
 20
-684.4933811040191
 10
468.8865521137222
 20
-686.9362234906548
 10
471.0678594092706
 20
-690.9045764540369
 10
474.0562241279176
 20
-696.3410622779284
 10
475.1550734751154
 20
-702.1226980957053
 10
473.370913506812
 20
-708.1933652632633
 10
472.603896141939
 20
-710.8030229783162
 10
471.6871039343505
 20
-713.4001525345466
 10
470.5320733805102
 20
-715.8590031241638
 10
463.918206517129
 20
-729.9366340081051
 10
454.0971309920342
 20
-741.775446934771
 10
443.5527067905541
 20
-752.9397725685612
 10
436.7132392242574
 20
-760.1814706726273
 10
435.7052307590848
 20
-759.9833036658401
 10
427.8710179969321
 20
-753.5327408054418
 10
421.2939379370355
 20
-748.1171978088587
 10
414.9418329541541
 20
-742.392939707308
 10
408.8362245795443
 20
-736.449681256172
 10
402.2128482023591
 20
-730.0023403692485
 10
397.9623457741791
 20
-722.0272053709887
 10
395.8308383009944
 20
-713.0226498608336
 10
394.2074641913869
 20
-706.1641632669107
 10
394.5720789713696
 20
-699.4398108679543
 10
398.1958293635353
 20
-693.1874306550199
 10
402.9799906924136
 20
-684.9327268988509
 10
411.6009905981691
 20
-683.1189748250399
 10
419.0340520272466
 20
-689.1061131133702
 10
422.3244689349476
 20
-691.7564756141583
 10
425.0204161035499
 20
-695.1506447585798
 10
427.9450921046
 20
-698.2460384296628
 10
428.964486961303
 20
-699.3249615916411
 10
429.8600078879817
 20
-700.5208455173833
 10
430.9449683399898
 20
-701.822726112825
 97
        0
 97
        0
 75
     2
 76
     1
 98
        0
  0
ENDBLK
  5
48
330
45
100
AcDbEntity
  8
0
100
AcDbBlockEnd
  0
BLOCK
  5
58
330
56
100
AcDbEntity
  8
0
100
AcDbBlockBegin
  2
block 4
 70
     0
 10
0.0
 20
0.0
 30
0.0
  3
block 4
  1

  0
SPLINE
  5
5A
330
56
100
AcDbEntity
  8
Layer 1
370
     0
100
AcDbSpline
210
0.0
220
0.0
230
1.0
 70
    11
 71
     3
 72
    59
 73
    55
 74
     0
 42
0.0000000001
 43
0.0000000001
 12
1.0
 22
0.0
 32
0.0
 13
1.0
 23
0.0
 33
0.0
 40
0.0
 40
0.0
 40
0.0
 40
0.0
 40
1.0
 40
1.0
 40
1.0
 40
2.0
 40
2.0
 40
2.0
 40
3.0
 40
3.0
 40
3.0
 40
4.0
 40
4.0
 40
4.0
 40
5.0
 40
5.0
 40
5.0
 40
6.0
 40
6.0
 40
6.0
 40
7.0
 40
7.0
 40
7.0
 40
8.0
 40
8.0
 40
8.0
 40
9.0
 40
9.0
 40
9.0
 40
10.0
 40
10.0
 40
10.0
 40
11.0
 40
11.0
 40
11.0
 40
12.0
 40
12.0
 40
12.0
 40
13.0
 40
13.0
 40
13.0
 40
14.0
 40
14.0
 40
14.0
 40
15.0
 40
15.0
 40
15.0
 40
16.0
 40
16.0
 40
16.0
 40
17.0
 40
17.0
 40
17.0
 40
18.0
 40
18.0
 40
18.0
 40
18.0
 10
336.1756594224544
 20
-640.277757333175
 30
0.0
 10
335.6138148553846
 20
-642.2436364754485
 30
0.0
 10
331.9624020119054
 20
-650.1117677843049
 30
0.0
 10
320.4440115445132
 20
-648.7065795241597
 30
0.0
 10
311.7359975974096
 20
-647.8643895160258
 30
0.0
 10
297.1280388536079
 20
-648.9857712802786
 30
0.0
 10
290.1044049227703
 20
-646.4592012558805
 30
0.0
 10
286.4518383943478
 20
-644.7725138697297
 30
0.0
 10
280.8333927236554
 20
-635.2223099144958
 30
0.0
 10
275.2149470529612
 20
-622.0172320609508
 30
0.0
 10
269.596501382267
 20
-609.0959607032983
 30
0.0
 10
264.2595548375803
 20
-587.4643680286608
 30
0.0
 10
259.2029537339558
 20
-570.60903101658
 30
0.0
 10
245.9990295653561
 20
-599.2642576220587
 30
0.0
 10
242.9094612889467
 20
-623.7039194471017
 30
0.0
 10
236.1673264841147
 20
-637.4696881827731
 30
0.0
 10
233.9199482158374
 20
-642.2436364754485
 30
0.0
 10
231.1107253804903
 20
-646.1777021298749
 30
0.0
 10
223.2449014415206
 20
-648.1435812721484
 30
0.0
 10
210.6039755249321
 20
-650.6724586664295
 30
0.0
 10
192.9052948197777
 20
-648.1435812721484
 30
0.0
 10
184.4776263137364
 20
-642.2436364754485
 30
0.0
 10
170.4315121370046
 20
-632.9749316462166
 30
0.0
 10
148.5195740212994
 20
-488.3005324683381
 30
0.0
 10
148.5195740212994
 20
-486.053154200059
 30
0.0
 10
148.5195740212994
 20
-483.5242768057778
 30
0.0
 10
148.801073147305
 20
-475.3769537408007
 30
0.0
 10
165.3749110333783
 20
-471.7243872123781
 30
0.0
 10
181.9487489194535
 20
-468.0741280538405
 30
0.0
 10
195.1526730880532
 20
-472.2873854643894
 30
0.0
 10
196.5567076632551
 20
-476.5006428749402
 30
0.0
 10
196.5567076632551
 20
-476.5006428749402
 30
0.0
 10
209.7606318318567
 20
-518.0771408380697
 30
0.0
 10
221.2778686143056
 20
-558.811448793067
 30
0.0
 10
228.5830016711507
 20
-524.2585847607752
 30
0.0
 10
237.0095164922468
 20
-489.7034133585967
 30
0.0
 10
240.943582146675
 20
-487.7375342163268
 30
0.0
 10
249.0897515267088
 20
-484.3664668139081
 30
0.0
 10
290.9465949309024
 20
-482.6797794277609
 30
0.0
 10
291.228094056908
 20
-489.7034133585967
 30
0.0
 10
291.228094056908
 20
-489.7034133585967
 30
0.0
 10
294.0373168922533
 20
-497.5692372975664
 30
0.0
 10
298.5320734288098
 20
-509.9298177730925
 30
0.0
 10
304.7123636665719
 20
-527.0666539111771
 30
0.0
 10
311.1729993453982
 20
-543.9219909232579
 30
0.0
 10
318.1966332762358
 20
-561.3380188174651
 30
0.0
 10
325.5006126481358
 20
-524.8192756429016
 30
0.0
 10
344.883673369558
 20
-469.4770089441026
 30
0.0
 10
347.9743953309089
 20
-467.7926289278348
 30
0.0
 10
355.8402192698804
 20
-463.0163732652763
 30
0.0
 10
378.5943473937159
 20
-464.4215615254197
 30
0.0
 10
381.9654147961328
 20
-477.624332009078
 30
0.0
 10
383.6521021822819
 20
-482.6797794277609
 30
0.0
 10
342.6362951012788
 20
-624.2646103292263
 30
0.0
 10
336.1756594224544
 20
-640.277757333175
 30
0.0
  0
HATCH
  5
5B
330
56
100
AcDbEntity
  8
Layer 1
 62
   250
420
  2301728
100
AcDbHatch
 10
0.0
 20
0.0
 30
0.0
210
0.0
220
0.0
230
1.0
  2
SOLID
 70
     1
 71
     0
 91
        1
 92
        1
 93
        1
 72
     4
 94
        3
 73
     0
 74
     1
 95
       59
 96
       55
 40
0.0
 40
0.0
 40
0.0
 40
0.0
 40
1.0
 40
1.0
 40
1.0
 40
2.0
 40
2.0
 40
2.0
 40
3.0
 40
3.0
 40
3.0
 40
4.0
 40
4.0
 40
4.0
 40
5.0
 40
5.0
 40
5.0
 40
6.0
 40
6.0
 40
6.0
 40
7.0
 40
7.0
 40
7.0
 40
8.0
 40
8.0
 40
8.0
 40
9.0
 40
9.0
 40
9.0
 40
10.0
 40
10.0
 40
10.0
 40
11.0
 40
11.0
 40
11.0
 40
12.0
 40
12.0
 40
12.0
 40
13.0
 40
13.0
 40
13.0
 40
14.0
 40
14.0
 40
14.0
 40
15.0
 40
15.0
 40
15.0
 40
16.0
 40
16.0
 40
16.0
 40
17.0
 40
17.0
 40
17.0
 40
18.0
 40
18.0
 40
18.0
 40
18.0
 10
336.1756594224544
 20
-640.277757333175
 10
335.6138148553846
 20
-642.2436364754485
 10
331.9624020119054
 20
-650.1117677843049
 10
320.4440115445132
 20
-648.7065795241597
 10
311.7359975974096
 20
-647.8643895160258
 10
297.1280388536079
 20
-648.9857712802786
 10
290.1044049227703
 20
-646.4592012558805
 10
286.4518383943478
 20
-644.7725138697297
 10
280.8333927236554
 20
-635.2223099144958
 10
275.2149470529612
 20
-622.0172320609508
 10
269.596501382267
 20
-609.0959607032983
 10
264.2595548375803
 20
-587.4643680286608
 10
259.2029537339558
 20
-570.60903101658
 10
245.9990295653561
 20
-599.2642576220587
 10
242.9094612889467
 20
-623.7039194471017
 10
236.1673264841147
 20
-637.4696881827731
 10
233.9199482158374
 20
-642.2436364754485
 10
231.1107253804903
 20
-646.1777021298749
 10
223.2449014415206
 20
-648.1435812721484
 10
210.6039755249321
 20
-650.6724586664295
 10
192.9052948197777
 20
-648.1435812721484
 10
184.4776263137364
 20
-642.2436364754485
 10
170.4315121370046
 20
-632.9749316462166
 10
148.5195740212994
 20
-488.3005324683381
 10
148.5195740212994
 20
-486.053154200059
 10
148.5195740212994
 20
-483.5242768057778
 10
148.801073147305
 20
-475.3769537408007
 10
165.3749110333783
 20
-471.7243872123781
 10
181.9487489194535
 20
-468.0741280538405
 10
195.1526730880532
 20
-472.2873854643894
 10
196.5567076632551
 20
-476.5006428749402
 10
196.5567076632551
 20
-476.5006428749402
 10
209.7606318318567
 20
-518.0771408380697
 10
221.2778686143056
 20
-558.811448793067
 10
228.5830016711507
 20
-524.2585847607752
 10
237.0095164922468
 20
-489.7034133585967
 10
240.943582146675
 20
-487.7375342163268
 10
249.0897515267088
 20
-484.3664668139081
 10
290.9465949309024
 20
-482.6797794277609
 10
291.228094056908
 20
-489.7034133585967
 10
291.228094056908
 20
-489.7034133585967
 10
294.0373168922533
 20
-497.5692372975664
 10
298.5320734288098
 20
-509.9298177730925
 10
304.7123636665719
 20
-527.0666539111771
 10
311.1729993453982
 20
-543.9219909232579
 10
318.1966332762358
 20
-561.3380188174651
 10
325.5006126481358
 20
-524.8192756429016
 10
344.883673369558
 20
-469.4770089441026
 10
347.9743953309089
 20
-467.7926289278348
 10
355.8402192698804
 20
-463.0163732652763
 10
378.5943473937159
 20
-464.4215615254197
 10
381.9654147961328
 20
-477.624332009078
 10
383.6521021822819
 20
-482.6797794277609
 10
342.6362951012788
 20
-624.2646103292263
 10
336.1756594224544
 20
-640.277757333175
 97
        0
 97
        0
 75
     2
 76
     1
 98
        0
  0
SPLINE
  5
5C
330
56
100
AcDbEntity
  8
Layer 1
370
     0
100
AcDbSpline
210
0.0
220
0.0
230
1.0
 70
    11
 71
     3
 72
    29
 73
    25
 74
     0
 42
0.0000000001
 43
0.0000000001
 12
1.0
 22
0.0
 32
0.0
 13
1.0
 23
0.0
 33
0.0
 40
0.0
 40
0.0
 40
0.0
 40
0.0
 40
1.0
 40
1.0
 40
1.0
 40
2.0
 40
2.0
 40
2.0
 40
3.0
 40
3.0
 40
3.0
 40
4.0
 40
4.0
 40
4.0
 40
5.0
 40
5.0
 40
5.0
 40
6.0
 40
6.0
 40
6.0
 40
7.0
 40
7.0
 40
7.0
 40
8.0
 40
8.0
 40
8.0
 40
8.0
 10
451.3664862060332
 20
-550.1011274760804
 30
0.0
 10
453.0508662222992
 20
-598.1405684879192
 30
0.0
 10
452.4901753401728
 20
-647.3013912640145
 30
0.0
 10
447.9954188036181
 20
-651.233149548556
 30
0.0
 10
438.4429074784975
 20
-658.8197817314049
 30
0.0
 10
405.5755771474132
 20
-663.5960373939652
 30
0.0
 10
394.3386858060267
 20
-649.2672704062843
 30
0.0
 10
389.0005855763966
 20
-642.2436364754485
 30
0.0
 10
390.1242747105362
 20
-595.6116910936344
 30
0.0
 10
391.810962096687
 20
-549.5404365939521
 30
0.0
 10
392.6531521048191
 20
-526.7851547851715
 30
0.0
 10
393.7768412389569
 20
-504.3113721024001
 30
0.0
 10
394.619031247089
 20
-487.4560350903212
 30
0.0
 10
395.4623749401644
 20
-470.3215063221196
 30
0.0
 10
396.3057186332398
 20
-458.8031158547292
 30
0.0
 10
396.3057186332398
 20
-458.2401176027161
 30
0.0
 10
396.8664095153681
 20
-455.4320484523105
 30
0.0
 10
398.8334423425813
 20
-445.6003453710709
 30
0.0
 10
416.25062392173
 20
-444.1951571109257
 30
0.0
 10
433.3874600598165
 20
-443.0714679767862
 30
0.0
 10
445.4665414093352
 20
-450.0951019076238
 30
0.0
 10
445.7480405353408
 20
-455.4320484523105
 30
0.0
 10
445.7480405353408
 20
-455.4320484523105
 30
0.0
 10
449.6797988198823
 20
-502.3454929601266
 30
0.0
 10
451.3664862060332
 20
-550.1011274760804
 30
0.0
  0
HATCH
  5
5D
330
56
100
AcDbEntity
  8
Layer 1
 62
   250
420
  2301728
100
AcDbHatch
 10
0.0
 20
0.0
 30
0.0
210
0.0
220
0.0
230
1.0
  2
SOLID
 70
     1
 71
     0
 91
        1
 92
        1
 93
        1
 72
     4
 94
        3
 73
     0
 74
     1
 95
       29
 96
       25
 40
0.0
 40
0.0
 40
0.0
 40
0.0
 40
1.0
 40
1.0
 40
1.0
 40
2.0
 40
2.0
 40
2.0
 40
3.0
 40
3.0
 40
3.0
 40
4.0
 40
4.0
 40
4.0
 40
5.0
 40
5.0
 40
5.0
 40
6.0
 40
6.0
 40
6.0
 40
7.0
 40
7.0
 40
7.0
 40
8.0
 40
8.0
 40
8.0
 40
8.0
 10
451.3664862060332
 20
-550.1011274760804
 10
453.0508662222992
 20
-598.1405684879192
 10
452.4901753401728
 20
-647.3013912640145
 10
447.9954188036181
 20
-651.233149548556
 10
438.4429074784975
 20
-658.8197817314049
 10
405.5755771474132
 20
-663.5960373939652
 10
394.3386858060267
 20
-649.2672704062843
 10
389.0005855763966
 20
-642.2436364754485
 10
390.1242747105362
 20
-595.6116910936344
 10
391.810962096687
 20
-549.5404365939521
 10
392.6531521048191
 20
-526.7851547851715
 10
393.7768412389569
 20
-504.3113721024001
 10
394.619031247089
 20
-487.4560350903212
 10
395.4623749401644
 20
-470.3215063221196
 10
396.3057186332398
 20
-458.8031158547292
 10
396.3057186332398
 20
-458.2401176027161
 10
396.8664095153681
 20
-455.4320484523105
 10
398.8334423425813
 20
-445.6003453710709
 10
416.25062392173
 20
-444.1951571109257
 10
433.3874600598165
 20
-443.0714679767862
 10
445.4665414093352
 20
-450.0951019076238
 10
445.7480405353408
 20
-455.4320484523105
 10
445.7480405353408
 20
-455.4320484523105
 10
449.6797988198823
 20
-502.3454929601266
 10
451.3664862060332
 20
-550.1011274760804
 97
        0
 97
        0
 75
     2
 76
     1
 98
        0
  0
SPLINE
  5
5E
330
56
100
AcDbEntity
  8
Layer 1
370
     0
100
AcDbSpline
210
0.0
220
0.0
230
1.0
 70
    11
 71
     3
 72
    68
 73
    64
 74
     0
 42
0.0000000001
 43
0.0000000001
 12
1.0
 22
0.0
 32
0.0
 13
1.0
 23
0.0
 33
0.0
 40
0.0
 40
0.0
 40
0.0
 40
0.0
 40
1.0
 40
1.0
 40
1.0
 40
2.0
 40
2.0
 40
2.0
 40
3.0
 40
3.0
 40
3.0
 40
4.0
 40
4.0
 40
4.0
 40
5.0
 40
5.0
 40
5.0
 40
6.0
 40
6.0
 40
6.0
 40
7.0
 40
7.0
 40
7.0
 40
8.0
 40
8.0
 40
8.0
 40
9.0
 40
9.0
 40
9.0
 40
10.0
 40
10.0
 40
10.0
 40
11.0
 40
11.0
 40
11.0
 40
12.0
 40
12.0
 40
12.0
 40
13.0
 40
13.0
 40
13.0
 40
14.0
 40
14.0
 40
14.0
 40
15.0
 40
15.0
 40
15.0
 40
16.0
 40
16.0
 40
16.0
 40
17.0
 40
17.0
 40
17.0
 40
18.0
 40
18.0
 40
18.0
 40
19.0
 40
19.0
 40
19.0
 40
20.0
 40
20.0
 40
20.0
 40
21.0
 40
21.0
 40
21.0
 40
21.0
 10
637.617383347042
 20
-471.4428880863725
 30
0.0
 10
637.617383347042
 20
-471.4428880863725
 30
0.0
 10
636.7751933389118
 20
-482.4005876716383
 30
0.0
 10
636.2145024567835
 20
-498.4114273057003
 30
0.0
 10
635.0885059527609
 20
-514.9875725616603
 30
0.0
 10
634.246315944627
 20
-536.3376661102939
 30
0.0
 10
633.967124188508
 20
-558.5299496670596
 30
0.0
 10
633.4041259364967
 20
-580.4430414677063
 30
0.0
 10
633.6856250625024
 20
-602.3538258984681
 30
0.0
 10
633.4041259364967
 20
-619.7698537926735
 30
0.0
 10
633.4041259364967
 20
-636.627498174641
 30
0.0
 10
632.8411276844818
 20
-648.7065795241597
 30
0.0
 10
630.5937494162063
 20
-650.6724586664295
 30
0.0
 10
623.0094246032422
 20
-657.133094345254
 30
0.0
 10
596.6038836359257
 20
-663.5960373939652
 30
0.0
 10
582.2774240181279
 20
-656.0094052111162
 30
0.0
 10
578.9040492458262
 20
-654.0435260688464
 30
0.0
 10
574.4092927092752
 20
-649.2672704062843
 30
0.0
 10
569.9145361727169
 20
-643.6488247355901
 30
0.0
 10
551.9355100264984
 20
-620.3328520446867
 30
0.0
 10
538.4512404168372
 20
-586.0591797685156
 30
0.0
 10
525.8114681851903
 20
-557.9692587849349
 30
0.0
 10
527.7773473274619
 20
-603.7590141586134
 30
0.0
 10
526.9351573193298
 20
-648.425080398154
 30
0.0
 10
522.719592538896
 20
-652.0776469265747
 30
0.0
 10
513.1693885836603
 20
-659.9434708655444
 30
0.0
 10
480.3009045676326
 20
-664.4382274020991
 30
0.0
 10
469.0640132262461
 20
-650.3909595404239
 30
0.0
 10
463.7270666815593
 20
-643.3696329794711
 30
0.0
 10
464.8507558156989
 20
-596.7353802277739
 30
0.0
 10
465.9744449498367
 20
-551.506315736222
 30
0.0
 10
466.5351358319631
 20
-529.0325330534488
 30
0.0
 10
467.3796332099819
 20
-506.5587503706774
 30
0.0
 10
467.6611323359875
 20
-489.7034133585967
 30
0.0
 10
468.221823218114
 20
-472.8480763465177
 30
0.0
 10
468.5033223441196
 20
-461.6111850051311
 30
0.0
 10
468.7825141002404
 20
-460.768994996999
 30
0.0
 10
470.7507006123969
 20
-442.2269705987674
 30
0.0
 10
512.6086977015339
 20
-442.5084697247748
 30
0.0
 10
520.1930225144979
 20
-453.184670184035
 30
0.0
 10
520.1930225144979
 20
-453.184670184035
 30
0.0
 10
525.248469933179
 20
-464.1400623994141
 30
0.0
 10
532.8351021160279
 20
-480.7139002854874
 30
0.0
 10
540.4194269289919
 20
-497.0085464154399
 30
0.0
 10
550.8141282622455
 20
-518.9193308462036
 30
0.0
 10
561.7695204776282
 20
-541.1116144029693
 30
0.0
 10
565.7012787621716
 20
-548.9797457118239
 30
0.0
 10
569.9145361727169
 20
-556.8432622809087
 30
0.0
 10
573.5671027011413
 20
-564.7113935897651
 30
0.0
 10
573.8486018271469
 20
-561.3380188174651
 30
0.0
 10
574.1301009531526
 20
-557.9692587849349
 30
0.0
 10
574.4092927092752
 20
-554.8773831386388
 30
0.0
 10
576.6566709775507
 20
-532.4036004558675
 30
0.0
 10
579.7485466238468
 20
-510.4928160251038
 30
0.0
 10
582.8381149002562
 20
-494.1981698951513
 30
0.0
 10
585.6461840506599
 20
-477.9058311350855
 30
0.0
 10
588.1750614449411
 20
-466.9481315498178
 30
0.0
 10
588.1750614449411
 20
-466.3874406676896
 30
0.0
 10
589.2987505790807
 20
-463.5793715172877
 30
0.0
 10
592.951317107505
 20
-454.8690502002992
 30
0.0
 10
610.0881532455896
 20
-456.5557375864501
 30
0.0
 10
627.2249893836743
 20
-457.9586184767104
 30
0.0
 10
638.1803815990534
 20
-466.9481315498178
 30
0.0
 10
637.617383347042
 20
-471.4428880863725
 30
0.0
  0
HATCH
  5
5F
330
56
100
AcDbEntity
  8
Layer 1
 62
   250
420
  2301728
100
AcDbHatch
 10
0.0
 20
0.0
 30
0.0
210
0.0
220
0.0
230
1.0
  2
SOLID
 70
     1
 71
     0
 91
        1
 92
        1
 93
        1
 72
     4
 94
        3
 73
     0
 74
     1
 95
       68
 96
       64
 40
0.0
 40
0.0
 40
0.0
 40
0.0
 40
1.0
 40
1.0
 40
1.0
 40
2.0
 40
2.0
 40
2.0
 40
3.0
 40
3.0
 40
3.0
 40
4.0
 40
4.0
 40
4.0
 40
5.0
 40
5.0
 40
5.0
 40
6.0
 40
6.0
 40
6.0
 40
7.0
 40
7.0
 40
7.0
 40
8.0
 40
8.0
 40
8.0
 40
9.0
 40
9.0
 40
9.0
 40
10.0
 40
10.0
 40
10.0
 40
11.0
 40
11.0
 40
11.0
 40
12.0
 40
12.0
 40
12.0
 40
13.0
 40
13.0
 40
13.0
 40
14.0
 40
14.0
 40
14.0
 40
15.0
 40
15.0
 40
15.0
 40
16.0
 40
16.0
 40
16.0
 40
17.0
 40
17.0
 40
17.0
 40
18.0
 40
18.0
 40
18.0
 40
19.0
 40
19.0
 40
19.0
 40
20.0
 40
20.0
 40
20.0
 40
21.0
 40
21.0
 40
21.0
 40
21.0
 10
637.617383347042
 20
-471.4428880863725
 10
637.617383347042
 20
-471.4428880863725
 10
636.7751933389118
 20
-482.4005876716383
 10
636.2145024567835
 20
-498.4114273057003
 10
635.0885059527609
 20
-514.9875725616603
 10
634.246315944627
 20
-536.3376661102939
 10
633.967124188508
 20
-558.5299496670596
 10
633.4041259364967
 20
-580.4430414677063
 10
633.6856250625024
 20
-602.3538258984681
 10
633.4041259364967
 20
-619.7698537926735
 10
633.4041259364967
 20
-636.627498174641
 10
632.8411276844818
 20
-648.7065795241597
 10
630.5937494162063
 20
-650.6724586664295
 10
623.0094246032422
 20
-657.133094345254
 10
596.6038836359257
 20
-663.5960373939652
 10
582.2774240181279
 20
-656.0094052111162
 10
578.9040492458262
 20
-654.0435260688464
 10
574.4092927092752
 20
-649.2672704062843
 10
569.9145361727169
 20
-643.6488247355901
 10
551.9355100264984
 20
-620.3328520446867
 10
538.4512404168372
 20
-586.0591797685156
 10
525.8114681851903
 20
-557.9692587849349
 10
527.7773473274619
 20
-603.7590141586134
 10
526.9351573193298
 20
-648.425080398154
 10
522.719592538896
 20
-652.0776469265747
 10
513.1693885836603
 20
-659.9434708655444
 10
480.3009045676326
 20
-664.4382274020991
 10
469.0640132262461
 20
-650.3909595404239
 10
463.7270666815593
 20
-643.3696329794711
 10
464.8507558156989
 20
-596.7353802277739
 10
465.9744449498367
 20
-551.506315736222
 10
466.5351358319631
 20
-529.0325330534488
 10
467.3796332099819
 20
-506.5587503706774
 10
467.6611323359875
 20
-489.7034133585967
 10
468.221823218114
 20
-472.8480763465177
 10
468.5033223441196
 20
-461.6111850051311
 10
468.7825141002404
 20
-460.768994996999
 10
470.7507006123969
 20
-442.2269705987674
 10
512.6086977015339
 20
-442.5084697247748
 10
520.1930225144979
 20
-453.184670184035
 10
520.1930225144979
 20
-453.184670184035
 10
525.248469933179
 20
-464.1400623994141
 10
532.8351021160279
 20
-480.7139002854874
 10
540.4194269289919
 20
-497.0085464154399
 10
550.8141282622455
 20
-518.9193308462036
 10
561.7695204776282
 20
-541.1116144029693
 10
565.7012787621716
 20
-548.9797457118239
 10
569.9145361727169
 20
-556.8432622809087
 10
573.5671027011413
 20
-564.7113935897651
 10
573.8486018271469
 20
-561.3380188174651
 10
574.1301009531526
 20
-557.9692587849349
 10
574.4092927092752
 20
-554.8773831386388
 10
576.6566709775507
 20
-532.4036004558675
 10
579.7485466238468
 20
-510.4928160251038
 10
582.8381149002562
 20
-494.1981698951513
 10
585.6461840506599
 20
-477.9058311350855
 10
588.1750614449411
 20
-466.9481315498178
 10
588.1750614449411
 20
-466.3874406676896
 10
589.2987505790807
 20
-463.5793715172877
 10
592.951317107505
 20
-454.8690502002992
 10
610.0881532455896
 20
-456.5557375864501
 10
627.2249893836743
 20
-457.9586184767104
 10
638.1803815990534
 20
-466.9481315498178
 10
637.617383347042
 20
-471.4428880863725
 97
        0
 97
        0
 75
     2
 76
     1
 98
        0
  0
SPLINE
  5
60
330
56
100
AcDbEntity
  8
Layer 1
370
     0
100
AcDbSpline
210
0.0
220
0.0
230
1.0
 70
    11
 71
     3
 72
    53
 73
    49
 74
     0
 42
0.0000000001
 43
0.0000000001
 12
1.0
 22
0.0
 32
0.0
 13
1.0
 23
0.0
 33
0.0
 40
0.0
 40
0.0
 40
0.0
 40
0.0
 40
1.0
 40
1.0
 40
1.0
 40
2.0
 40
2.0
 40
2.0
 40
3.0
 40
3.0
 40
3.0
 40
4.0
 40
4.0
 40
4.0
 40
5.0
 40
5.0
 40
5.0
 40
6.0
 40
6.0
 40
6.0
 40
7.0
 40
7.0
 40
7.0
 40
8.0
 40
8.0
 40
8.0
 40
9.0
 40
9.0
 40
9.0
 40
10.0
 40
10.0
 40
10.0
 40
11.0
 40
11.0
 40
11.0
 40
12.0
 40
12.0
 40
12.0
 40
13.0
 40
13.0
 40
13.0
 40
14.0
 40
14.0
 40
14.0
 40
15.0
 40
15.0
 40
15.0
 40
16.0
 40
16.0
 40
16.0
 40
16.0
 10
751.9590980128341
 20
-642.8066347274598
 30
0.0
 10
749.7117197445586
 20
-647.3013912640145
 30
0.0
 10
729.485315330061
 20
-649.54876953229
 30
0.0
 10
709.5381026716859
 20
-650.3909595404239
 30
0.0
 10
697.4590213221672
 20
-650.9539577924352
 30
0.0
 10
660.6587790215999
 20
-654.3250251948521
 30
0.0
 10
651.387766822485
 20
-645.8962030038692
 30
0.0
 10
649.4218876802115
 20
-644.2118229876014
 30
0.0
 10
646.8930102859304
 20
-640.277757333175
 30
0.0
 10
646.6115111599211
 20
-634.6593116624827
 30
0.0
 10
643.2427511273927
 20
-585.7799880123948
 30
0.0
 10
648.0166994200663
 20
-535.49547610216
 30
0.0
 10
652.5114559566209
 20
-506.5587503706774
 30
0.0
 10
655.3218324769114
 20
-486.053154200059
 30
0.0
 10
655.3218324769114
 20
-480.153209403361
 30
0.0
 10
675.5482368914054
 20
-479.5902111513478
 30
0.0
 10
682.8510625783674
 20
-479.3110193952289
 30
0.0
 10
692.403573903488
 20
-479.3110193952289
 30
0.0
 10
701.9537778587219
 20
-479.3110193952289
 30
0.0
 10
722.7431805252309
 20
-479.5902111513478
 30
0.0
 10
743.8117749478588
 20
-480.4324011594817
 30
0.0
 10
745.216963208004
 20
-483.5242768057778
 30
0.0
 10
748.0250323584078
 20
-489.7034133585967
 30
0.0
 10
748.8695297364247
 20
-511.6165051592434
 30
0.0
 10
742.1273949315946
 20
-518.9193308462036
 30
0.0
 10
739.0355192852985
 20
-522.5718973746243
 30
0.0
 10
722.7431805252309
 20
-521.7297073664904
 30
0.0
 10
705.0433461351313
 20
-519.7638282242206
 30
0.0
 10
705.3248452611369
 20
-525.6614656510337
 30
0.0
 10
705.6063443871462
 20
-532.6850995818731
 30
0.0
 10
705.8878435131519
 20
-539.9902326387146
 30
0.0
 10
721.3379922650856
 20
-537.7428543704391
 30
0.0
 10
739.8800166633155
 20
-536.0561669842882
 30
0.0
 10
741.282897553574
 20
-539.1457352606976
 30
0.0
 10
743.8117749478588
 20
-545.0456800573975
 30
0.0
 10
746.0591532161343
 20
-566.9587718580424
 30
0.0
 10
742.4065866877136
 20
-574.822288427129
 30
0.0
 10
740.1592084194381
 20
-579.3170449636837
 30
0.0
 10
721.900990517097
 20
-579.3170449636837
 30
0.0
 10
706.7300335212822
 20
-578.4748549555497
 30
0.0
 10
706.7300335212822
 20
-583.8118015002383
 30
0.0
 10
706.7300335212822
 20
-588.8695562888042
 30
0.0
 10
706.7300335212822
 20
-610.7803407195661
 30
0.0
 10
726.1142479276459
 20
-607.6907724431549
 30
0.0
 10
745.496154964123
 20
-604.8827032927511
 30
0.0
 10
747.7435332324021
 20
-607.6907724431549
 30
0.0
 10
751.3960997608228
 20
-613.0277189878416
 30
0.0
 10
757.014545431517
 20
-634.6593116624827
 30
0.0
 10
751.9590980128341
 20
-642.8066347274598
 30
0.0
  0
HATCH
  5
61
330
56
100
AcDbEntity
  8
Layer 1
 62
   250
420
  2301728
100
AcDbHatch
 10
0.0
 20
0.0
 30
0.0
210
0.0
220
0.0
230
1.0
  2
SOLID
 70
     1
 71
     0
 91
        1
 92
        1
 93
        1
 72
     4
 94
        3
 73
     0
 74
     1
 95
       53
 96
       49
 40
0.0
 40
0.0
 40
0.0
 40
0.0
 40
1.0
 40
1.0
 40
1.0
 40
2.0
 40
2.0
 40
2.0
 40
3.0
 40
3.0
 40
3.0
 40
4.0
 40
4.0
 40
4.0
 40
5.0
 40
5.0
 40
5.0
 40
6.0
 40
6.0
 40
6.0
 40
7.0
 40
7.0
 40
7.0
 40
8.0
 40
8.0
 40
8.0
 40
9.0
 40
9.0
 40
9.0
 40
10.0
 40
10.0
 40
10.0
 40
11.0
 40
11.0
 40
11.0
 40
12.0
 40
12.0
 40
12.0
 40
13.0
 40
13.0
 40
13.0
 40
14.0
 40
14.0
 40
14.0
 40
15.0
 40
15.0
 40
15.0
 40
16.0
 40
16.0
 40
16.0
 40
16.0
 10
751.9590980128341
 20
-642.8066347274598
 10
749.7117197445586
 20
-647.3013912640145
 10
729.485315330061
 20
-649.54876953229
 10
709.5381026716859
 20
-650.3909595404239
 10
697.4590213221672
 20
-650.9539577924352
 10
660.6587790215999
 20
-654.3250251948521
 10
651.387766822485
 20
-645.8962030038692
 10
649.4218876802115
 20
-644.2118229876014
 10
646.8930102859304
 20
-640.277757333175
 10
646.6115111599211
 20
-634.6593116624827
 10
643.2427511273927
 20
-585.7799880123948
 10
648.0166994200663
 20
-535.49547610216
 10
652.5114559566209
 20
-506.5587503706774
 10
655.3218324769114
 20
-486.053154200059
 10
655.3218324769114
 20
-480.153209403361
 10
675.5482368914054
 20
-479.5902111513478
 10
682.8510625783674
 20
-479.3110193952289
 10
692.403573903488
 20
-479.3110193952289
 10
701.9537778587219
 20
-479.3110193952289
 10
722.7431805252309
 20
-479.5902111513478
 10
743.8117749478588
 20
-480.4324011594817
 10
745.216963208004
 20
-483.5242768057778
 10
748.0250323584078
 20
-489.7034133585967
 10
748.8695297364247
 20
-511.6165051592434
 10
742.1273949315946
 20
-518.9193308462036
 10
739.0355192852985
 20
-522.5718973746243
 10
722.7431805252309
 20
-521.7297073664904
 10
705.0433461351313
 20
-519.7638282242206
 10
705.3248452611369
 20
-525.6614656510337
 10
705.6063443871462
 20
-532.6850995818731
 10
705.8878435131519
 20
-539.9902326387146
 10
721.3379922650856
 20
-537.7428543704391
 10
739.8800166633155
 20
-536.0561669842882
 10
741.282897553574
 20
-539.1457352606976
 10
743.8117749478588
 20
-545.0456800573975
 10
746.0591532161343
 20
-566.9587718580424
 10
742.4065866877136
 20
-574.822288427129
 10
740.1592084194381
 20
-579.3170449636837
 10
721.900990517097
 20
-579.3170449636837
 10
706.7300335212822
 20
-578.4748549555497
 10
706.7300335212822
 20
-583.8118015002383
 10
706.7300335212822
 20
-588.8695562888042
 10
706.7300335212822
 20
-610.7803407195661
 10
726.1142479276459
 20
-607.6907724431549
 10
745.496154964123
 20
-604.8827032927511
 10
747.7435332324021
 20
-607.6907724431549
 10
751.3960997608228
 20
-613.0277189878416
 10
757.014545431517
 20
-634.6593116624827
 10
751.9590980128341
 20
-642.8066347274598
 97
        0
 97
        0
 75
     2
 76
     1
 98
        0
  0
ENDBLK
  5
59
330
56
100
AcDbEntity
  8
0
100
AcDbBlockEnd
  0
BLOCK
  5
67
330
65
100
AcDbEntity
  8
0
100
AcDbBlockBegin
  2
block 5
 70
     0
 10
0.0
 20
0.0
 30
0.0
  3
block 5
  1

  0
SPLINE
  5
69
330
65
100
AcDbEntity
  8
Layer 1
370
     0
100
AcDbSpline
210
0.0
220
0.0
230
1.0
 70
    11
 71
     3
 72
    53
 73
    49
 74
     0
 42
0.0000000001
 43
0.0000000001
 12
1.0
 22
0.0
 32
0.0
 13
1.0
 23
0.0
 33
0.0
 40
0.0
 40
0.0
 40
0.0
 40
0.0
 40
1.0
 40
1.0
 40
1.0
 40
2.0
 40
2.0
 40
2.0
 40
3.0
 40
3.0
 40
3.0
 40
4.0
 40
4.0
 40
4.0
 40
5.0
 40
5.0
 40
5.0
 40
6.0
 40
6.0
 40
6.0
 40
7.0
 40
7.0
 40
7.0
 40
8.0
 40
8.0
 40
8.0
 40
9.0
 40
9.0
 40
9.0
 40
10.0
 40
10.0
 40
10.0
 40
11.0
 40
11.0
 40
11.0
 40
12.0
 40
12.0
 40
12.0
 40
13.0
 40
13.0
 40
13.0
 40
14.0
 40
14.0
 40
14.0
 40
15.0
 40
15.0
 40
15.0
 40
16.0
 40
16.0
 40
16.0
 40
16.0
 10
156.7569281340629
 20
-417.0472290726811
 30
0.0
 10
155.2028179504787
 20
-415.3652684454228
 30
0.0
 10
156.8398650486224
 20
-412.6104869295286
 30
0.0
 10
159.0516011670343
 20
-413.2032944757484
 30
0.0
 10
164.4126433241354
 20
-414.6395066453733
 30
0.0
 10
168.6342598704441
 20
-418.263467025854
 30
0.0
 10
173.8097785294385
 20
-420.103135386029
 30
0.0
 10
179.6475165523725
 20
-422.1783445835445
 30
0.0
 10
185.6909381234154
 20
-423.6712090456112
 30
0.0
 10
191.8201037045865
 20
-424.5722867234836
 30
0.0
 10
205.8596646011474
 20
-426.6362675387518
 30
0.0
 10
219.5621188388441
 20
-424.820842276682
 30
0.0
 10
233.3618006594561
 20
-422.3401353645622
 30
0.0
 10
252.3717070479224
 20
-418.9223689132141
 30
0.0
 10
271.0192429173831
 20
-413.5130957504389
 30
0.0
 10
290.1718007988957
 20
-411.0140151218893
 30
0.0
 10
321.2440520408318
 20
-406.9595483572066
 30
0.0
 10
352.0292139631447
 20
-411.3148847288376
 30
0.0
 10
381.5736396436505
 20
-421.2744598101071
 30
0.0
 10
385.19300659501
 20
-422.4945256208975
 30
0.0
 10
388.6692116723143
 20
-424.0983979532375
 30
0.0
 10
391.9900057312616
 20
-425.9857869381012
 30
0.0
 10
393.6168452091506
 20
-426.9103421425334
 30
0.0
 10
395.4133863737543
 20
-427.9173238805251
 30
0.0
 10
396.7299141959384
 20
-429.3854348634814
 30
0.0
 10
398.219461181422
 20
-431.0467250597485
 30
0.0
 10
396.7449704358141
 20
-433.661406987665
 30
0.0
 10
394.5510976528449
 20
-433.2553988920845
 30
0.0
 10
393.1174373882504
 20
-432.9902559559778
 30
0.0
 10
391.7845773736581
 20
-432.2670460610207
 30
0.0
 10
390.4103764970432
 20
-431.7561546673369
 30
0.0
 10
382.9817808576108
 20
-428.9942278172875
 30
0.0
 10
375.6784837567893
 20
-425.7145194298409
 30
0.0
 10
368.0424182357065
 20
-423.7299028620928
 30
0.0
 10
341.0986390052649
 20
-416.7269649872087
 30
0.0
 10
313.6401405235474
 20
-420.9766524892093
 30
0.0
 10
286.927308701338
 20
-426.9123836666058
 30
0.0
 10
266.3163370761258
 20
-431.4920324933064
 30
0.0
 10
245.7028135458486
 20
-436.820155075091
 30
0.0
 10
224.608000720621
 20
-437.7125562757192
 30
0.0
 10
212.4703746677778
 20
-438.2259995744662
 30
0.0
 10
200.1622813567001
 20
-437.1687453067443
 30
0.0
 10
188.4653693082992
 20
-433.7821120971366
 30
0.0
 10
182.6115542834641
 20
-432.0873919445894
 30
0.0
 10
176.9205508016703
 20
-429.8003746267841
 30
0.0
 10
171.5903866958388
 20
-426.8383784197431
 30
0.0
 10
166.4207374184889
 20
-423.9654436994479
 30
0.0
 10
160.8190506139172
 20
-421.4431407347929
 30
0.0
 10
156.7569281340629
 20
-417.0472290726811
 30
0.0
  0
HATCH
  5
6A
330
65
100
AcDbEntity
  8
Layer 1
 62
     7
420
 16777215
100
AcDbHatch
 10
0.0
 20
0.0
 30
0.0
210
0.0
220
0.0
230
1.0
  2
SOLID
 70
     1
 71
     0
 91
        1
 92
        1
 93
        1
 72
     4
 94
        3
 73
     0
 74
     1
 95
       53
 96
       49
 40
0.0
 40
0.0
 40
0.0
 40
0.0
 40
1.0
 40
1.0
 40
1.0
 40
2.0
 40
2.0
 40
2.0
 40
3.0
 40
3.0
 40
3.0
 40
4.0
 40
4.0
 40
4.0
 40
5.0
 40
5.0
 40
5.0
 40
6.0
 40
6.0
 40
6.0
 40
7.0
 40
7.0
 40
7.0
 40
8.0
 40
8.0
 40
8.0
 40
9.0
 40
9.0
 40
9.0
 40
10.0
 40
10.0
 40
10.0
 40
11.0
 40
11.0
 40
11.0
 40
12.0
 40
12.0
 40
12.0
 40
13.0
 40
13.0
 40
13.0
 40
14.0
 40
14.0
 40
14.0
 40
15.0
 40
15.0
 40
15.0
 40
16.0
 40
16.0
 40
16.0
 40
16.0
 10
156.7569281340629
 20
-417.0472290726811
 10
155.2028179504787
 20
-415.3652684454228
 10
156.8398650486224
 20
-412.6104869295286
 10
159.0516011670343
 20
-413.2032944757484
 10
164.4126433241354
 20
-414.6395066453733
 10
168.6342598704441
 20
-418.263467025854
 10
173.8097785294385
 20
-420.103135386029
 10
179.6475165523725
 20
-422.1783445835445
 10
185.6909381234154
 20
-423.6712090456112
 10
191.8201037045865
 20
-424.5722867234836
 10
205.8596646011474
 20
-426.6362675387518
 10
219.5621188388441
 20
-424.820842276682
 10
233.3618006594561
 20
-422.3401353645622
 10
252.3717070479224
 20
-418.9223689132141
 10
271.0192429173831
 20
-413.5130957504389
 10
290.1718007988957
 20
-411.0140151218893
 10
321.2440520408318
 20
-406.9595483572066
 10
352.0292139631447
 20
-411.3148847288376
 10
381.5736396436505
 20
-421.2744598101071
 10
385.19300659501
 20
-422.4945256208975
 10
388.6692116723143
 20
-424.0983979532375
 10
391.9900057312616
 20
-425.9857869381012
 10
393.6168452091506
 20
-426.9103421425334
 10
395.4133863737543
 20
-427.9173238805251
 10
396.7299141959384
 20
-429.3854348634814
 10
398.219461181422
 20
-431.0467250597485
 10
396.7449704358141
 20
-433.661406987665
 10
394.5510976528449
 20
-433.2553988920845
 10
393.1174373882504
 20
-432.9902559559778
 10
391.7845773736581
 20
-432.2670460610207
 10
390.4103764970432
 20
-431.7561546673369
 10
382.9817808576108
 20
-428.9942278172875
 10
375.6784837567893
 20
-425.7145194298409
 10
368.0424182357065
 20
-423.7299028620928
 10
341.0986390052649
 20
-416.7269649872087
 10
313.6401405235474
 20
-420.9766524892093
 10
286.927308701338
 20
-426.9123836666058
 10
266.3163370761258
 20
-431.4920324933064
 10
245.7028135458486
 20
-436.820155075091
 10
224.608000720621
 20
-437.7125562757192
 10
212.4703746677778
 20
-438.2259995744662
 10
200.1622813567001
 20
-437.1687453067443
 10
188.4653693082992
 20
-433.7821120971366
 10
182.6115542834641
 20
-432.0873919445894
 10
176.9205508016703
 20
-429.8003746267841
 10
171.5903866958388
 20
-426.8383784197431
 10
166.4207374184889
 20
-423.9654436994479
 10
160.8190506139172
 20
-421.4431407347929
 10
156.7569281340629
 20
-417.0472290726811
 97
        0
 97
        0
 75
     2
 76
     1
 98
        0
  0
SPLINE
  5
6B
330
65
100
AcDbEntity
  8
Layer 1
370
     0
100
AcDbSpline
210
0.0
220
0.0
230
1.0
 70
    11
 71
     3
 72
    47
 73
    43
 74
     0
 42
0.0000000001
 43
0.0000000001
 12
1.0
 22
0.0
 32
0.0
 13
1.0
 23
0.0
 33
0.0
 40
0.0
 40
0.0
 40
0.0
 40
0.0
 40
1.0
 40
1.0
 40
1.0
 40
2.0
 40
2.0
 40
2.0
 40
3.0
 40
3.0
 40
3.0
 40
4.0
 40
4.0
 40
4.0
 40
5.0
 40
5.0
 40
5.0
 40
6.0
 40
6.0
 40
6.0
 40
7.0
 40
7.0
 40
7.0
 40
8.0
 40
8.0
 40
8.0
 40
9.0
 40
9.0
 40
9.0
 40
10.0
 40
10.0
 40
10.0
 40
11.0
 40
11.0
 40
11.0
 40
12.0
 40
12.0
 40
12.0
 40
13.0
 40
13.0
 40
13.0
 40
14.0
 40
14.0
 40
14.0
 40
14.0
 10
747.0518686264804
 20
-402.4970319729091
 30
0.0
 10
747.3313022309158
 20
-402.4615604925584
 30
0.0
 10
747.6015489771344
 20
-402.4891210672449
 30
0.0
 10
747.8554635309374
 20
-402.6016600805324
 30
0.0
 10
749.8686614354156
 20
-403.4945716622078
 30
0.0
 10
748.2423323385337
 20
-406.1944872192144
 30
0.0
 10
747.6209434556076
 20
-407.4257814123066
 30
0.0
 10
745.7105873251785
 20
-411.2105118117452
 30
0.0
 10
743.2393224618281
 20
-414.706876939048
 30
0.0
 10
740.3413790718769
 20
-417.7992754948264
 30
0.0
 10
719.0686984637359
 20
-440.4997469859463
 30
0.0
 10
681.7310099102397
 20
-433.6399709851084
 30
0.0
 10
654.3115555759941
 20
-430.9954317679531
 30
0.0
 10
641.7515892351621
 20
-429.7842976249067
 30
0.0
 10
629.219438659522
 20
-428.2865845432007
 30
0.0
 10
616.7278633743954
 20
-426.5045892374565
 30
0.0
 10
604.4623868778726
 20
-424.7547479355362
 30
0.0
 10
592.3071526800886
 20
-422.3317140778545
 30
0.0
 10
579.9937003683772
 20
-421.252768617067
 30
0.0
 10
558.5500421209981
 20
-419.3740561094219
 30
0.0
 10
535.7283551393966
 20
-417.8429130714376
 30
0.0
 10
515.3205151572265
 20
-425.603256369106
 30
0.0
 10
509.9742740494921
 20
-427.6361039425519
 30
0.0
 10
504.5397370265628
 20
-429.465054301485
 30
0.0
 10
498.7349185789526
 20
-429.0006075799229
 30
0.0
 10
522.8187778048768
 20
-411.4036910250416
 30
0.0
 10
554.605817655065
 20
-408.0469151047273
 30
0.0
 10
584.3265799754481
 20
-410.5702388313475
 30
0.0
 10
614.0473422958457
 20
-413.0935625579932
 30
0.0
 10
643.1566681630429
 20
-420.8362977107263
 30
0.0
 10
672.9026943435565
 20
-423.0406333044521
 30
0.0
 10
685.4039668679216
 20
-423.9669748424549
 30
0.0
 10
698.4028608796543
 20
-423.6773336177903
 30
0.0
 10
710.7515294812438
 20
-420.7291176980925
 30
0.0
 10
718.5687802618195
 20
-418.8629095252309
 30
0.0
 10
725.8103212601054
 20
-415.2550261466877
 30
0.0
 10
732.7285358868758
 20
-411.2477696256956
 30
0.0
 10
736.2072928692396
 20
-409.2330405781813
 30
0.0
 10
739.6186795579306
 20
-407.1050069458452
 30
0.0
 10
743.0537989637196
 20
-405.0139759369304
 30
0.0
 10
744.0350064605846
 20
-404.4160645805805
 30
0.0
 10
745.6590388428995
 20
-402.6738789938045
 30
0.0
 10
747.0518686264804
 20
-402.4970319729091
 30
0.0
  0
HATCH
  5
6C
330
65
100
AcDbEntity
  8
Layer 1
 62
     7
420
 16777215
100
AcDbHatch
 10
0.0
 20
0.0
 30
0.0
210
0.0
220
0.0
230
1.0
  2
SOLID
 70
     1
 71
     0
 91
        1
 92
        1
 93
        1
 72
     4
 94
        3
 73
     0
 74
     1
 95
       47
 96
       43
 40
0.0
 40
0.0
 40
0.0
 40
0.0
 40
1.0
 40
1.0
 40
1.0
 40
2.0
 40
2.0
 40
2.0
 40
3.0
 40
3.0
 40
3.0
 40
4.0
 40
4.0
 40
4.0
 40
5.0
 40
5.0
 40
5.0
 40
6.0
 40
6.0
 40
6.0
 40
7.0
 40
7.0
 40
7.0
 40
8.0
 40
8.0
 40
8.0
 40
9.0
 40
9.0
 40
9.0
 40
10.0
 40
10.0
 40
10.0
 40
11.0
 40
11.0
 40
11.0
 40
12.0
 40
12.0
 40
12.0
 40
13.0
 40
13.0
 40
13.0
 40
14.0
 40
14.0
 40
14.0
 40
14.0
 10
747.0518686264804
 20
-402.4970319729091
 10
747.3313022309158
 20
-402.4615604925584
 10
747.6015489771344
 20
-402.4891210672449
 10
747.8554635309374
 20
-402.6016600805324
 10
749.8686614354156
 20
-403.4945716622078
 10
748.2423323385337
 20
-406.1944872192144
 10
747.6209434556076
 20
-407.4257814123066
 10
745.7105873251785
 20
-411.2105118117452
 10
743.2393224618281
 20
-414.706876939048
 10
740.3413790718769
 20
-417.7992754948264
 10
719.0686984637359
 20
-440.4997469859463
 10
681.7310099102397
 20
-433.6399709851084
 10
654.3115555759941
 20
-430.9954317679531
 10
641.7515892351621
 20
-429.7842976249067
 10
629.219438659522
 20
-428.2865845432007
 10
616.7278633743954
 20
-426.5045892374565
 10
604.4623868778726
 20
-424.7547479355362
 10
592.3071526800886
 20
-422.3317140778545
 10
579.9937003683772
 20
-421.252768617067
 10
558.5500421209981
 20
-419.3740561094219
 10
535.7283551393966
 20
-417.8429130714376
 10
515.3205151572265
 20
-425.603256369106
 10
509.9742740494921
 20
-427.6361039425519
 10
504.5397370265628
 20
-429.465054301485
 10
498.7349185789526
 20
-429.0006075799229
 10
522.8187778048768
 20
-411.4036910250416
 10
554.605817655065
 20
-408.0469151047273
 10
584.3265799754481
 20
-410.5702388313475
 10
614.0473422958457
 20
-413.0935625579932
 10
643.1566681630429
 20
-420.8362977107263
 10
672.9026943435565
 20
-423.0406333044521
 10
685.4039668679216
 20
-423.9669748424549
 10
698.4028608796543
 20
-423.6773336177903
 10
710.7515294812438
 20
-420.7291176980925
 10
718.5687802618195
 20
-418.8629095252309
 10
725.8103212601054
 20
-415.2550261466877
 10
732.7285358868758
 20
-411.2477696256956
 10
736.2072928692396
 20
-409.2330405781813
 10
739.6186795579306
 20
-407.1050069458452
 10
743.0537989637196
 20
-405.0139759369304
 10
744.0350064605846
 20
-404.4160645805805
 10
745.6590388428995
 20
-402.6738789938045
 10
747.0518686264804
 20
-402.4970319729091
 97
        0
 97
        0
 75
     2
 76
     1
 98
        0
  0
SPLINE
  5
6D
330
65
100
AcDbEntity
  8
Layer 1
370
     0
100
AcDbSpline
210
0.0
220
0.0
230
1.0
 70
    11
 71
     3
 72
    35
 73
    31
 74
     0
 42
0.0000000001
 43
0.0000000001
 12
1.0
 22
0.0
 32
0.0
 13
1.0
 23
0.0
 33
0.0
 40
0.0
 40
0.0
 40
0.0
 40
0.0
 40
1.0
 40
1.0
 40
1.0
 40
2.0
 40
2.0
 40
2.0
 40
3.0
 40
3.0
 40
3.0
 40
4.0
 40
4.0
 40
4.0
 40
5.0
 40
5.0
 40
5.0
 40
6.0
 40
6.0
 40
6.0
 40
7.0
 40
7.0
 40
7.0
 40
8.0
 40
8.0
 40
8.0
 40
9.0
 40
9.0
 40
9.0
 40
10.0
 40
10.0
 40
10.0
 40
10.0
 10
431.1954336006229
 20
-358.7576343775072
 30
0.0
 10
431.181142932267
 20
-357.662867105324
 30
0.0
 10
431.1887986474603
 20
-356.5658031185667
 30
0.0
 10
431.2209526512588
 20
-355.4666976078042
 30
0.0
 10
431.519270353162
 20
-345.2641811645044
 30
0.0
 10
433.6715470835998
 20
-332.7736266413685
 30
0.0
 10
441.2085986882257
 20
-325.3042005209263
 30
0.0
 10
445.6200769712477
 20
-320.9322767664107
 30
0.0
 10
451.3314956935474
 20
-319.8737465461254
 30
0.0
 10
456.5991381253325
 20
-323.3785329601142
 30
0.0
 10
461.8024725495079
 20
-326.8404473690916
 30
0.0
 10
464.4225134780618
 20
-333.4577923888537
 30
0.0
 10
465.6453863844172
 20
-339.3703012301721
 30
0.0
 10
466.7580169920466
 20
-344.7504826752483
 30
0.0
 10
466.7960403774841
 20
-350.2939860443566
 30
0.0
 10
466.5867841622921
 20
-355.7838994071772
 30
0.0
 10
466.1491324439294
 20
-367.2595612865625
 30
0.0
 10
464.6164582628799
 20
-378.731650498883
 30
0.0
 10
461.5638694260897
 20
-389.8148293795766
 30
0.0
 10
460.0245602918776
 20
-395.4040118493158
 30
0.0
 10
458.0973615880239
 20
-400.8895869735006
 30
0.0
 10
455.7317455942894
 20
-406.1837692179452
 30
0.0
 10
453.8446117999456
 20
-410.4066617167864
 30
0.0
 10
451.8018117967231
 20
-417.4233798789955
 30
0.0
 10
446.0319544484764
 20
-417.0183925454421
 30
0.0
 10
443.2187343066353
 20
-416.820875093561
 30
0.0
 10
442.6057667104151
 20
-414.7709297561651
 30
0.0
 10
441.704178651521
 20
-412.613549215579
 30
0.0
 10
434.7737148804617
 20
-396.0299941613757
 30
0.0
 10
431.4294432949346
 20
-376.7016100209785
 30
0.0
 10
431.1954336006229
 20
-358.7576343775072
 30
0.0
  0
SPLINE
  5
6E
330
65
100
AcDbEntity
  8
Layer 1
370
     0
100
AcDbSpline
210
0.0
220
0.0
230
1.0
 70
    11
 71
     3
 72
    32
 73
    28
 74
     0
 42
0.0000000001
 43
0.0000000001
 12
1.0
 22
0.0
 32
0.0
 13
1.0
 23
0.0
 33
0.0
 40
0.0
 40
0.0
 40
0.0
 40
0.0
 40
1.0
 40
1.0
 40
1.0
 40
2.0
 40
2.0
 40
2.0
 40
3.0
 40
3.0
 40
3.0
 40
4.0
 40
4.0
 40
4.0
 40
5.0
 40
5.0
 40
5.0
 40
6.0
 40
6.0
 40
6.0
 40
7.0
 40
7.0
 40
7.0
 40
8.0
 40
8.0
 40
8.0
 40
9.0
 40
9.0
 40
9.0
 40
9.0
 10
450.9068586910062
 20
-331.9312427799578
 30
0.0
 10
450.5674553175768
 20
-331.1470423539886
 30
0.0
 10
450.0930561662981
 20
-330.4559864628591
 30
0.0
 10
449.4254778017284
 20
-329.9604064995274
 30
0.0
 10
447.3949269428131
 20
-328.4529961786284
 30
0.0
 10
444.3734713477998
 20
-329.4980013020431
 30
0.0
 10
442.9903388034572
 20
-331.4537813426032
 30
0.0
 10
442.1178424622985
 20
-332.6878826312368
 30
0.0
 10
441.6733006002551
 20
-334.1672219964948
 30
0.0
 10
441.2749482198697
 20
-335.6253805496763
 30
0.0
 10
436.2698968191098
 20
-353.9411687609299
 30
0.0
 10
437.5119090134476
 20
-371.8083320620226
 30
0.0
 10
441.6130756407701
 20
-390.1547431339877
 30
0.0
 10
442.0275050230512
 20
-392.0076814005188
 30
0.0
 10
442.7234095338326
 20
-393.7978428024599
 30
0.0
 10
443.6688903598124
 20
-396.8374169234248
 30
0.0
 10
444.5401107484313
 20
-394.2574409043464
 30
0.0
 10
445.1791077762982
 20
-393.005476280292
 30
0.0
 10
445.3750940851633
 20
-391.6874173150409
 30
0.0
 10
446.825086542166
 20
-381.9332705914003
 30
0.0
 10
448.5437946023421
 20
-371.8774886892115
 30
0.0
 10
449.804946084646
 20
-361.9651238516435
 30
0.0
 10
450.4579785903543
 20
-356.8329875787294
 30
0.0
 10
450.9994928448059
 20
-351.6850294943906
 30
0.0
 10
451.3343027891178
 20
-346.5217599797234
 30
0.0
 10
451.625475156844
 20
-342.034745306828
 30
0.0
 10
452.7472926226974
 20
-336.184758139585
 30
0.0
 10
450.9068586910062
 20
-331.9312427799578
 30
0.0
  0
HATCH
  5
6F
330
65
100
AcDbEntity
  8
Layer 1
 62
     7
420
 16777215
100
AcDbHatch
 10
0.0
 20
0.0
 30
0.0
210
0.0
220
0.0
230
1.0
  2
SOLID
 70
     1
 71
     0
 91
        2
 92
        1
 93
        1
 72
     4
 94
        3
 73
     0
 74
     1
 95
       35
 96
       31
 40
0.0
 40
0.0
 40
0.0
 40
0.0
 40
1.0
 40
1.0
 40
1.0
 40
2.0
 40
2.0
 40
2.0
 40
3.0
 40
3.0
 40
3.0
 40
4.0
 40
4.0
 40
4.0
 40
5.0
 40
5.0
 40
5.0
 40
6.0
 40
6.0
 40
6.0
 40
7.0
 40
7.0
 40
7.0
 40
8.0
 40
8.0
 40
8.0
 40
9.0
 40
9.0
 40
9.0
 40
10.0
 40
10.0
 40
10.0
 40
10.0
 10
431.1954336006229
 20
-358.7576343775072
 10
431.181142932267
 20
-357.662867105324
 10
431.1887986474603
 20
-356.5658031185667
 10
431.2209526512588
 20
-355.4666976078042
 10
431.519270353162
 20
-345.2641811645044
 10
433.6715470835998
 20
-332.7736266413685
 10
441.2085986882257
 20
-325.3042005209263
 10
445.6200769712477
 20
-320.9322767664107
 10
451.3314956935474
 20
-319.8737465461254
 10
456.5991381253325
 20
-323.3785329601142
 10
461.8024725495079
 20
-326.8404473690916
 10
464.4225134780618
 20
-333.4577923888537
 10
465.6453863844172
 20
-339.3703012301721
 10
466.7580169920466
 20
-344.7504826752483
 10
466.7960403774841
 20
-350.2939860443566
 10
466.5867841622921
 20
-355.7838994071772
 10
466.1491324439294
 20
-367.2595612865625
 10
464.6164582628799
 20
-378.731650498883
 10
461.5638694260897
 20
-389.8148293795766
 10
460.0245602918776
 20
-395.4040118493158
 10
458.0973615880239
 20
-400.8895869735006
 10
455.7317455942894
 20
-406.1837692179452
 10
453.8446117999456
 20
-410.4066617167864
 10
451.8018117967231
 20
-417.4233798789955
 10
446.0319544484764
 20
-417.0183925454421
 10
443.2187343066353
 20
-416.820875093561
 10
442.6057667104151
 20
-414.7709297561651
 10
441.704178651521
 20
-412.613549215579
 10
434.7737148804617
 20
-396.0299941613757
 10
431.4294432949346
 20
-376.7016100209785
 10
431.1954336006229
 20
-358.7576343775072
 97
        0
 97
        0
 92
        1
 93
        1
 72
     4
 94
        3
 73
     0
 74
     1
 95
       32
 96
       28
 40
0.0
 40
0.0
 40
0.0
 40
0.0
 40
1.0
 40
1.0
 40
1.0
 40
2.0
 40
2.0
 40
2.0
 40
3.0
 40
3.0
 40
3.0
 40
4.0
 40
4.0
 40
4.0
 40
5.0
 40
5.0
 40
5.0
 40
6.0
 40
6.0
 40
6.0
 40
7.0
 40
7.0
 40
7.0
 40
8.0
 40
8.0
 40
8.0
 40
9.0
 40
9.0
 40
9.0
 40
9.0
 10
450.9068586910062
 20
-331.9312427799578
 10
450.5674553175768
 20
-331.1470423539886
 10
450.0930561662981
 20
-330.4559864628591
 10
449.4254778017284
 20
-329.9604064995274
 10
447.3949269428131
 20
-328.4529961786284
 10
444.3734713477998
 20
-329.4980013020431
 10
442.9903388034572
 20
-331.4537813426032
 10
442.1178424622985
 20
-332.6878826312368
 10
441.6733006002551
 20
-334.1672219964948
 10
441.2749482198697
 20
-335.6253805496763
 10
436.2698968191098
 20
-353.9411687609299
 10
437.5119090134476
 20
-371.8083320620226
 10
441.6130756407701
 20
-390.1547431339877
 10
442.0275050230512
 20
-392.0076814005188
 10
442.7234095338326
 20
-393.7978428024599
 10
443.6688903598124
 20
-396.8374169234248
 10
444.5401107484313
 20
-394.2574409043464
 10
445.1791077762982
 20
-393.005476280292
 10
445.3750940851633
 20
-391.6874173150409
 10
446.825086542166
 20
-381.9332705914003
 10
448.5437946023421
 20
-371.8774886892115
 10
449.804946084646
 20
-361.9651238516435
 10
450.4579785903543
 20
-356.8329875787294
 10
450.9994928448059
 20
-351.6850294943906
 10
451.3343027891178
 20
-346.5217599797234
 10
451.625475156844
 20
-342.034745306828
 10
452.7472926226974
 20
-336.184758139585
 10
450.9068586910062
 20
-331.9312427799578
 97
        0
 97
        0
 75
     2
 76
     1
 98
        0
  0
SPLINE
  5
70
330
65
100
AcDbEntity
  8
Layer 1
370
     0
100
AcDbSpline
210
0.0
220
0.0
230
1.0
 70
    11
 71
     3
 72
    32
 73
    28
 74
     0
 42
0.0000000001
 43
0.0000000001
 12
1.0
 22
0.0
 32
0.0
 13
1.0
 23
0.0
 33
0.0
 40
0.0
 40
0.0
 40
0.0
 40
0.0
 40
1.0
 40
1.0
 40
1.0
 40
2.0
 40
2.0
 40
2.0
 40
3.0
 40
3.0
 40
3.0
 40
4.0
 40
4.0
 40
4.0
 40
5.0
 40
5.0
 40
5.0
 40
6.0
 40
6.0
 40
6.0
 40
7.0
 40
7.0
 40
7.0
 40
8.0
 40
8.0
 40
8.0
 40
9.0
 40
9.0
 40
9.0
 40
9.0
 10
427.2751970422987
 20
-415.437742549193
 30
0.0
 10
427.9910064125679
 20
-417.3866324460814
 30
0.0
 10
427.1361182163391
 20
-419.6223564721131
 30
0.0
 10
425.2523018985748
 20
-420.4951080037808
 30
0.0
 10
421.6132852782275
 20
-422.1811516791404
 30
0.0
 10
417.9819243730717
 20
-421.7062421468272
 30
0.0
 10
414.6641926001985
 20
-419.9150599828554
 30
0.0
 10
404.9049420664005
 20
-414.6463967890722
 30
0.0
 10
394.3255092452446
 20
-410.8006758585707
 30
0.0
 10
385.8863592007228
 20
-403.1574650033126
 30
0.0
 10
380.2920729208336
 20
-398.0911678810298
 30
0.0
 10
375.2313899896862
 20
-392.7112416264863
 30
0.0
 10
371.7457428636526
 20
-385.9675773060571
 30
0.0
 10
369.0994173129484
 20
-380.8482005584319
 30
0.0
 10
367.7734474420313
 20
-375.2927032355055
 30
0.0
 10
371.4458940187078
 20
-370.5150265759094
 30
0.0
 10
375.153046504246
 20
-365.6924363871858
 30
0.0
 10
380.8869219911003
 20
-365.6970298162942
 30
0.0
 10
386.5317359912451
 20
-366.9239857707307
 30
0.0
 10
401.3304886441574
 20
-370.1404069125874
 30
0.0
 10
410.6265684089567
 20
-380.3291430685731
 30
0.0
 10
418.1115611502873
 20
-392.4282353549588
 30
0.0
 10
420.8086696117489
 20
-396.7881651557
 30
0.0
 10
422.1616896763435
 20
-401.9881821033068
 30
0.0
 10
424.0564791858842
 20
-406.8329738660887
 30
0.0
 10
425.1418044093289
 20
-409.6086810035013
 30
0.0
 10
426.162821625182
 20
-412.4093968105353
 30
0.0
 10
427.2751970422987
 20
-415.437742549193
 30
0.0
  0
SPLINE
  5
71
330
65
100
AcDbEntity
  8
Layer 1
370
     0
100
AcDbSpline
210
0.0
220
0.0
230
1.0
 70
    11
 71
     3
 72
    17
 73
    13
 74
     0
 42
0.0000000001
 43
0.0000000001
 12
1.0
 22
0.0
 32
0.0
 13
1.0
 23
0.0
 33
0.0
 40
0.0
 40
0.0
 40
0.0
 40
0.0
 40
1.0
 40
1.0
 40
1.0
 40
2.0
 40
2.0
 40
2.0
 40
3.0
 40
3.0
 40
3.0
 40
4.0
 40
4.0
 40
4.0
 40
4.0
 10
408.5454898297876
 20
-407.3316161154653
 30
0.0
 10
402.3466572403859
 20
-395.0276058524651
 30
0.0
 10
394.6332689958845
 20
-382.2461341521412
 30
0.0
 10
382.7776284525398
 20
-374.1285241456007
 30
0.0
 10
380.8514505107223
 20
-372.8096996088807
 30
0.0
 10
378.2571838233098
 20
-374.1165301918281
 30
0.0
 10
378.127547046096
 20
-376.4471850861901
 30
0.0
 10
377.9759638853275
 20
-379.1728748843652
 30
0.0
 10
378.9125130435814
 20
-381.9345465439019
 30
0.0
 10
380.0611255125978
 20
-383.8224459097983
 30
0.0
 10
386.7813123064452
 20
-394.8658150714764
 30
0.0
 10
396.8901738339182
 20
-401.9955826279875
 30
0.0
 10
408.5454898297876
 20
-407.3316161154653
 30
0.0
  0
HATCH
  5
72
330
65
100
AcDbEntity
  8
Layer 1
 62
     7
420
 16777215
100
AcDbHatch
 10
0.0
 20
0.0
 30
0.0
210
0.0
220
0.0
230
1.0
  2
SOLID
 70
     1
 71
     0
 91
        2
 92
        1
 93
        1
 72
     4
 94
        3
 73
     0
 74
     1
 95
       32
 96
       28
 40
0.0
 40
0.0
 40
0.0
 40
0.0
 40
1.0
 40
1.0
 40
1.0
 40
2.0
 40
2.0
 40
2.0
 40
3.0
 40
3.0
 40
3.0
 40
4.0
 40
4.0
 40
4.0
 40
5.0
 40
5.0
 40
5.0
 40
6.0
 40
6.0
 40
6.0
 40
7.0
 40
7.0
 40
7.0
 40
8.0
 40
8.0
 40
8.0
 40
9.0
 40
9.0
 40
9.0
 40
9.0
 10
427.2751970422987
 20
-415.437742549193
 10
427.9910064125679
 20
-417.3866324460814
 10
427.1361182163391
 20
-419.6223564721131
 10
425.2523018985748
 20
-420.4951080037808
 10
421.6132852782275
 20
-422.1811516791404
 10
417.9819243730717
 20
-421.7062421468272
 10
414.6641926001985
 20
-419.9150599828554
 10
404.9049420664005
 20
-414.6463967890722
 10
394.3255092452446
 20
-410.8006758585707
 10
385.8863592007228
 20
-403.1574650033126
 10
380.2920729208336
 20
-398.0911678810298
 10
375.2313899896862
 20
-392.7112416264863
 10
371.7457428636526
 20
-385.9675773060571
 10
369.0994173129484
 20
-380.8482005584319
 10
367.7734474420313
 20
-375.2927032355055
 10
371.4458940187078
 20
-370.5150265759094
 10
375.153046504246
 20
-365.6924363871858
 10
380.8869219911003
 20
-365.6970298162942
 10
386.5317359912451
 20
-366.9239857707307
 10
401.3304886441574
 20
-370.1404069125874
 10
410.6265684089567
 20
-380.3291430685731
 10
418.1115611502873
 20
-392.4282353549588
 10
420.8086696117489
 20
-396.7881651557
 10
422.1616896763435
 20
-401.9881821033068
 10
424.0564791858842
 20
-406.8329738660887
 10
425.1418044093289
 20
-409.6086810035013
 10
426.162821625182
 20
-412.4093968105353
 10
427.2751970422987
 20
-415.437742549193
 97
        0
 97
        0
 92
        1
 93
        1
 72
     4
 94
        3
 73
     0
 74
     1
 95
       17
 96
       13
 40
0.0
 40
0.0
 40
0.0
 40
0.0
 40
1.0
 40
1.0
 40
1.0
 40
2.0
 40
2.0
 40
2.0
 40
3.0
 40
3.0
 40
3.0
 40
4.0
 40
4.0
 40
4.0
 40
4.0
 10
408.5454898297876
 20
-407.3316161154653
 10
402.3466572403859
 20
-395.0276058524651
 10
394.6332689958845
 20
-382.2461341521412
 10
382.7776284525398
 20
-374.1285241456007
 10
380.8514505107223
 20
-372.8096996088807
 10
378.2571838233098
 20
-374.1165301918281
 10
378.127547046096
 20
-376.4471850861901
 10
377.9759638853275
 20
-379.1728748843652
 10
378.9125130435814
 20
-381.9345465439019
 10
380.0611255125978
 20
-383.8224459097983
 10
386.7813123064452
 20
-394.8658150714764
 10
396.8901738339182
 20
-401.9955826279875
 10
408.5454898297876
 20
-407.3316161154653
 97
        0
 97
        0
 75
     2
 76
     1
 98
        0
  0
SPLINE
  5
73
330
65
100
AcDbEntity
  8
Layer 1
370
     0
100
AcDbSpline
210
0.0
220
0.0
230
1.0
 70
    11
 71
     3
 72
    32
 73
    28
 74
     0
 42
0.0000000001
 43
0.0000000001
 12
1.0
 22
0.0
 32
0.0
 13
1.0
 23
0.0
 33
0.0
 40
0.0
 40
0.0
 40
0.0
 40
0.0
 40
1.0
 40
1.0
 40
1.0
 40
2.0
 40
2.0
 40
2.0
 40
3.0
 40
3.0
 40
3.0
 40
4.0
 40
4.0
 40
4.0
 40
5.0
 40
5.0
 40
5.0
 40
6.0
 40
6.0
 40
6.0
 40
7.0
 40
7.0
 40
7.0
 40
8.0
 40
8.0
 40
8.0
 40
9.0
 40
9.0
 40
9.0
 40
9.0
 10
483.4926448260239
 20
-420.9496022955682
 30
0.0
 10
480.6574783006336
 20
-419.5664697512238
 30
0.0
 10
480.860354753172
 20
-417.8048896859636
 30
0.0
 10
481.7731711943334
 20
-415.7363154416325
 30
0.0
 10
484.697399206435
 20
-409.1095283730847
 30
0.0
 10
486.993858572946
 20
-402.2778233279969
 30
0.0
 10
490.4146873103755
 20
-395.8403876151751
 30
0.0
 10
494.0325231187026
 20
-389.0326704776307
 30
0.0
 10
498.3240618637419
 20
-382.5822200490056
 30
0.0
 10
503.2155534891926
 20
-376.6230113450347
 30
0.0
 10
506.7088563304123
 20
-372.3674544613805
 30
0.0
 10
510.5589154995077
 20
-368.3152844112701
 30
0.0
 10
515.2186941451992
 20
-365.3828903029935
 30
0.0
 10
520.2620241219001
 20
-362.2090859756736
 30
0.0
 10
526.9337247195408
 20
-360.0514502446058
 30
0.0
 10
532.8551652285541
 20
-361.8069057376833
 30
0.0
 10
536.4661108932114
 20
-362.8776851022976
 30
0.0
 10
539.1374451135316
 20
-365.816969354275
 30
0.0
 10
539.2635092236587
 20
-369.6721323334605
 30
0.0
 10
539.3533362818862
 20
-372.4210444677101
 30
0.0
 10
538.3361469236379
 20
-375.0831918298027
 30
0.0
 10
537.1405794014509
 20
-377.5600708842921
 30
0.0
 10
528.0006762265375
 20
-396.4972479784537
 30
0.0
 10
509.5621413817616
 20
-408.8903197281707
 30
0.0
 10
491.1187579173538
 20
-417.5793012783906
 30
0.0
 10
488.6878131540007
 20
-418.7248514613275
 30
0.0
 10
486.2027680033034
 20
-419.7555659163954
 30
0.0
 10
483.4926448260239
 20
-420.9496022955682
 30
0.0
  0
SPLINE
  5
74
330
65
100
AcDbEntity
  8
Layer 1
370
     0
100
AcDbSpline
210
0.0
220
0.0
230
1.0
 70
    11
 71
     3
 72
    26
 73
    22
 74
     0
 42
0.0000000001
 43
0.0000000001
 12
1.0
 22
0.0
 32
0.0
 13
1.0
 23
0.0
 33
0.0
 40
0.0
 40
0.0
 40
0.0
 40
0.0
 40
1.0
 40
1.0
 40
1.0
 40
2.0
 40
2.0
 40
2.0
 40
3.0
 40
3.0
 40
3.0
 40
4.0
 40
4.0
 40
4.0
 40
5.0
 40
5.0
 40
5.0
 40
6.0
 40
6.0
 40
6.0
 40
7.0
 40
7.0
 40
7.0
 40
7.0
 10
527.4617138771546
 20
-365.2698409086606
 30
0.0
 10
526.875286093592
 20
-364.8355066668846
 30
0.0
 10
526.0581660923062
 20
-364.6387547865179
 30
0.0
 10
524.9554879144298
 20
-364.8023319010845
 30
0.0
 10
522.1346120573917
 20
-365.2213547124611
 30
0.0
 10
519.4311238332766
 20
-367.7117588638157
 30
0.0
 10
517.2533280522066
 20
-369.3944850625921
 30
0.0
 10
506.2232287968627
 20
-377.9178479742059
 30
0.0
 10
498.788253394775
 20
-389.2819916023454
 30
0.0
 10
492.549866276885
 20
-401.49081580643
 30
0.0
 10
491.1621403034324
 20
-404.2065531748831
 30
0.0
 10
490.6004659989894
 20
-407.3441204502797
 30
0.0
 10
489.2012564527495
 20
-411.7168097763115
 30
0.0
 10
496.611223185223
 20
-406.0064118160717
 30
0.0
 10
504.0867738778115
 20
-400.3353131937711
 30
0.0
 10
510.89168391976
 20
-393.8986430524656
 30
0.0
 10
517.1841714249922
 20
-387.9463244921553
 30
0.0
 10
524.7847654656898
 20
-380.4240739369034
 30
0.0
 10
528.0170084189367
 20
-372.2194439677296
 30
0.0
 10
528.9106855721247
 20
-369.9513107474158
 30
0.0
 10
529.204920225925
 20
-366.5605944897088
 30
0.0
 10
527.4617138771546
 20
-365.2698409086606
 30
0.0
  0
HATCH
  5
75
330
65
100
AcDbEntity
  8
Layer 1
 62
     7
420
 16777215
100
AcDbHatch
 10
0.0
 20
0.0
 30
0.0
210
0.0
220
0.0
230
1.0
  2
SOLID
 70
     1
 71
     0
 91
        2
 92
        1
 93
        1
 72
     4
 94
        3
 73
     0
 74
     1
 95
       32
 96
       28
 40
0.0
 40
0.0
 40
0.0
 40
0.0
 40
1.0
 40
1.0
 40
1.0
 40
2.0
 40
2.0
 40
2.0
 40
3.0
 40
3.0
 40
3.0
 40
4.0
 40
4.0
 40
4.0
 40
5.0
 40
5.0
 40
5.0
 40
6.0
 40
6.0
 40
6.0
 40
7.0
 40
7.0
 40
7.0
 40
8.0
 40
8.0
 40
8.0
 40
9.0
 40
9.0
 40
9.0
 40
9.0
 10
483.4926448260239
 20
-420.9496022955682
 10
480.6574783006336
 20
-419.5664697512238
 10
480.860354753172
 20
-417.8048896859636
 10
481.7731711943334
 20
-415.7363154416325
 10
484.697399206435
 20
-409.1095283730847
 10
486.993858572946
 20
-402.2778233279969
 10
490.4146873103755
 20
-395.8403876151751
 10
494.0325231187026
 20
-389.0326704776307
 10
498.3240618637419
 20
-382.5822200490056
 10
503.2155534891926
 20
-376.6230113450347
 10
506.7088563304123
 20
-372.3674544613805
 10
510.5589154995077
 20
-368.3152844112701
 10
515.2186941451992
 20
-365.3828903029935
 10
520.2620241219001
 20
-362.2090859756736
 10
526.9337247195408
 20
-360.0514502446058
 10
532.8551652285541
 20
-361.8069057376833
 10
536.4661108932114
 20
-362.8776851022976
 10
539.1374451135316
 20
-365.816969354275
 10
539.2635092236587
 20
-369.6721323334605
 10
539.3533362818862
 20
-372.4210444677101
 10
538.3361469236379
 20
-375.0831918298027
 10
537.1405794014509
 20
-377.5600708842921
 10
528.0006762265375
 20
-396.4972479784537
 10
509.5621413817616
 20
-408.8903197281707
 10
491.1187579173538
 20
-417.5793012783906
 10
488.6878131540007
 20
-418.7248514613275
 10
486.2027680033034
 20
-419.7555659163954
 10
483.4926448260239
 20
-420.9496022955682
 97
        0
 97
        0
 92
        1
 93
        1
 72
     4
 94
        3
 73
     0
 74
     1
 95
       26
 96
       22
 40
0.0
 40
0.0
 40
0.0
 40
0.0
 40
1.0
 40
1.0
 40
1.0
 40
2.0
 40
2.0
 40
2.0
 40
3.0
 40
3.0
 40
3.0
 40
4.0
 40
4.0
 40
4.0
 40
5.0
 40
5.0
 40
5.0
 40
6.0
 40
6.0
 40
6.0
 40
7.0
 40
7.0
 40
7.0
 40
7.0
 10
527.4617138771546
 20
-365.2698409086606
 10
526.875286093592
 20
-364.8355066668846
 10
526.0581660923062
 20
-364.6387547865179
 10
524.9554879144298
 20
-364.8023319010845
 10
522.1346120573917
 20
-365.2213547124611
 10
519.4311238332766
 20
-367.7117588638157
 10
517.2533280522066
 20
-369.3944850625921
 10
506.2232287968627
 20
-377.9178479742059
 10
498.788253394775
 20
-389.2819916023454
 10
492.549866276885
 20
-401.49081580643
 10
491.1621403034324
 20
-404.2065531748831
 10
490.6004659989894
 20
-407.3441204502797
 10
489.2012564527495
 20
-411.7168097763115
 10
496.611223185223
 20
-406.0064118160717
 10
504.0867738778115
 20
-400.3353131937711
 10
510.89168391976
 20
-393.8986430524656
 10
517.1841714249922
 20
-387.9463244921553
 10
524.7847654656898
 20
-380.4240739369034
 10
528.0170084189367
 20
-372.2194439677296
 10
528.9106855721247
 20
-369.9513107474158
 10
529.204920225925
 20
-366.5605944897088
 10
527.4617138771546
 20
-365.2698409086606
 97
        0
 97
        0
 75
     2
 76
     1
 98
        0
  0
ENDBLK
  5
68
330
65
100
AcDbEntity
  8
0
100
AcDbBlockEnd
  0
ENDSEC
  0
SECTION
  2
ENTITIES
  0
INSERT
  5
42
330
1F
100
AcDbEntity
  8
Layer 1
100
AcDbBlockReference
  2
block 2
 10
0.0
 20
0.0
 30
0.0
  0
ENDSEC
  0
SECTION
  2
OBJECTS
  0
DICTIONARY
  5
C
330
0
100
AcDbDictionary
281
     1
  3
ACAD_GROUP
350
D
  3
ACAD_LAYOUT
350
1A
  3
ACAD_MATERIAL
350
3B
  3
ACAD_MLEADERSTYLE
350
77
  3
ACAD_MLINESTYLE
350
17
  3
ACAD_PLOTSETTINGS
350
19
  3
ACAD_PLOTSTYLENAME
350
E
  3
ACAD_TABLESTYLE
350
76
  3
ACAD_VISUALSTYLE
350
2A
  0
SUN
  5
3F
330
29
100
AcDbSun
 90
        1
290
     0
 63
     7
421
 16777215
 40
1.0
291
     1
 91
  2455826
 92
 54000000
292
     0
 70
     2
 71
   256
280
     1
  0
DICTIONARY
  5
D
102
{ACAD_REACTORS
330
C
102
}
330
C
100
AcDbDictionary
281
     1
  0
DICTIONARY
  5
1A
102
{ACAD_REACTORS
330
C
102
}
330
C
100
AcDbDictionary
281
     1
  3
Layout1
350
1E
  3
Layout2
350
26
  3
Model
350
22
  0
DICTIONARY
  5
3B
102
{ACAD_REACTORS
330
C
102
}
330
C
100
AcDbDictionary
281
     1
  3
ByBlock
350
3D
  3
ByLayer
350
3C
  3
Global
350
3E
  0
DICTIONARY
  5
77
102
{ACAD_REACTORS
330
C
102
}
330
C
100
AcDbDictionary
281
     1
  0
DICTIONARY
  5
17
102
{ACAD_REACTORS
330
C
102
}
330
C
100
AcDbDictionary
281
     1
  3
Standard
350
18
  0
DICTIONARY
  5
19
102
{ACAD_REACTORS
330
C
102
}
330
C
100
AcDbDictionary
281
     1
  0
ACDBDICTIONARYWDFLT
  5
E
102
{ACAD_REACTORS
330
C
102
}
330
C
100
AcDbDictionary
281
     1
  3
Normal
350
F
100
AcDbDictionaryWithDefault
340
F
  0
DICTIONARY
  5
76
102
{ACAD_REACTORS
330
C
102
}
330
C
100
AcDbDictionary
281
     1
  0
DICTIONARY
  5
2A
102
{ACAD_REACTORS
330
C
102
}
330
C
100
AcDbDictionary
281
     1
  3
2dWireframe
350
2F
  3
3D Hidden
350
31
  3
3dWireframe
350
30
  3
Basic
350
32
  3
Brighten
350
36
  3
ColorChange
350
3A
  3
Conceptual
350
34
  3
Dim
350
35
  3
Facepattern
350
39
  3
Flat
350
2B
  3
FlatWithEdges
350
2C
  3
Gouraud
350
2D
  3
GouraudWithEdges
350
2E
  3
Linepattern
350
38
  3
Realistic
350
33
  3
Thicken
350
37
  0
LAYOUT
  5
1E
102
{ACAD_REACTORS
330
1A
102
}
330
1A
100
AcDbPlotSettings
  1

  2
none_device
  4

  6

 40
0.0
 41
0.0
 42
0.0
 43
0.0
 44
0.0
 45
0.0
 46
0.0
 47
0.0
 48
0.0
 49
0.0
140
0.0
141
0.0
142
1.0
143
1.0
 70
   688
 72
     0
 73
     0
 74
     5
  7

 75
    16
 76
     0
 77
     2
 78
   300
147
1.0
148
0.0
149
0.0
100
AcDbLayout
  1
Layout1
 70
     1
 71
     1
 10
0.0
 20
0.0
 11
12.0
 21
9.0
 12
0.0
 22
0.0
 32
0.0
 14
1.000000000000000E+20
 24
1.000000000000000E+20
 34
1.000000000000000E+20
 15
-1.000000000000000E+20
 25
-1.000000000000000E+20
 35
-1.000000000000000E+20
146
0.0
 13
0.0
 23
0.0
 33
0.0
 16
1.0
 26
0.0
 36
0.0
 17
0.0
 27
1.0
 37
0.0
 76
     0
330
1B
  0
LAYOUT
  5
26
102
{ACAD_REACTORS
330
1A
102
}
330
1A
100
AcDbPlotSettings
  1

  2
none_device
  4

  6

 40
0.0
 41
0.0
 42
0.0
 43
0.0
 44
0.0
 45
0.0
 46
0.0
 47
0.0
 48
0.0
 49
0.0
140
0.0
141
0.0
142
1.0
143
1.0
 70
   688
 72
     0
 73
     0
 74
     5
  7

 75
    16
 76
     0
 77
     2
 78
   300
147
1.0
148
0.0
149
0.0
100
AcDbLayout
  1
Layout2
 70
     1
 71
     2
 10
0.0
 20
0.0
 11
0.0
 21
0.0
 12
0.0
 22
0.0
 32
0.0
 14
0.0
 24
0.0
 34
0.0
 15
0.0
 25
0.0
 35
0.0
146
0.0
 13
0.0
 23
0.0
 33
0.0
 16
1.0
 26
0.0
 36
0.0
 17
0.0
 27
1.0
 37
0.0
 76
     0
330
23
  0
LAYOUT
  5
22
102
{ACAD_REACTORS
330
1A
102
}
330
1A
100
AcDbPlotSettings
  1

  2
none_device
  4

  6

 40
0.0
 41
0.0
 42
0.0
 43
0.0
 44
0.0
 45
0.0
 46
0.0
 47
0.0
 48
0.0
 49
0.0
140
0.0
141
0.0
142
1.0
143
1.0
 70
  1712
 72
     0
 73
     0
 74
     0
  7

 75
     0
 76
     0
 77
     2
 78
   300
147
1.0
148
0.0
149
0.0
100
AcDbLayout
  1
Model
 70
     1
 71
     0
 10
0.0
 20
0.0
 11
12.0
 21
9.0
 12
0.0
 22
0.0
 32
0.0
 14
1.000000000000000E+20
 24
1.000000000000000E+20
 34
1.000000000000000E+20
 15
-1.000000000000000E+20
 25
-1.000000000000000E+20
 35
-1.000000000000000E+20
146
0.0
 13
0.0
 23
0.0
 33
0.0
 16
1.0
 26
0.0
 36
0.0
 17
0.0
 27
1.0
 37
0.0
 76
     0
330
1F
331
29
  0
MATERIAL
  5
3D
102
{ACAD_REACTORS
330
3B
102
}
330
3B
100
AcDbMaterial
  1
ByBlock
 72
     1
 94
      127
  0
MATERIAL
  5
3C
102
{ACAD_REACTORS
330
3B
102
}
330
3B
100
AcDbMaterial
  1
ByLayer
 72
     1
 94
      127
  0
MATERIAL
  5
3E
102
{ACAD_REACTORS
330
3B
102
}
330
3B
100
AcDbMaterial
  1
Global
 72
     1
 94
      127
  0
MLINESTYLE
  5
18
102
{ACAD_REACTORS
330
17
102
}
330
17
100
AcDbMlineStyle
  2
Standard
 70
     0
  3

 62
   256
 51
90.0
 52
90.0
 71
     2
 49
0.5
 62
   256
  6
BYLAYER
 49
-0.5
 62
   256
  6
BYLAYER
  0
ACDBPLACEHOLDER
  5
F
102
{ACAD_REACTORS
330
E
102
}
330
E
  0
VISUALSTYLE
  5
2F
102
{ACAD_REACTORS
330
2A
102
}
330
2A
100
AcDbVisualStyle
  2
2dWireframe
 70
     4
177
     2
291
     0
 71
     0
176
     1
 72
     2
176
     1
 73
     0
176
     1
 90
        0
176
     1
 40
-0.6
176
     1
 41
-30.0
176
     1
 62
     5
 63
     7
421
 16777215
176
     1
 74
     1
176
     1
 91
        4
176
     1
 64
     7
176
     1
 65
   257
176
     1
 75
     1
176
     1
175
     1
176
     1
 42
1.0
176
     1
 92
        0
176
     1
 66
   257
176
     1
 43
1.0
176
     1
 76
     1
176
     1
 77
     6
176
     1
 78
     2
176
     1
 67
     7
176
     1
 79
     5
176
     1
170
     0
176
     1
171
     0
176
     1
290
     0
176
     1
 93
        1
176
     1
 44
0.0
176
     1
173
     0
176
     1
  0
VISUALSTYLE
  5
31
102
{ACAD_REACTORS
330
2A
102
}
330
2A
100
AcDbVisualStyle
  2
3D Hidden
 70
     6
177
     2
291
     0
 71
     1
176
     1
 72
     2
176
     1
 73
     2
176
     1
 90
        0
176
     1
 40
-0.6
176
     1
 41
-30.0
176
     1
 62
     5
 63
     7
421
 16777215
176
     1
 74
     2
176
     1
 91
        2
176
     1
 64
     7
176
     1
 65
   257
176
     1
 75
     2
176
     1
175
     1
176
     1
 42
40.0
176
     1
 92
        0
176
     1
 66
   257
176
     1
 43
1.0
176
     1
 76
     1
176
     1
 77
     6
176
     1
 78
     2
176
     1
 67
     7
176
     1
 79
     3
176
     1
170
     0
176
     1
171
     0
176
     1
290
     0
176
     1
 93
        1
176
     1
 44
0.0
176
     1
173
     0
176
     1
  0
VISUALSTYLE
  5
30
102
{ACAD_REACTORS
330
2A
102
}
330
2A
100
AcDbVisualStyle
  2
3dWireframe
 70
     5
177
     2
291
     0
 71
     0
176
     1
 72
     2
176
     1
 73
     0
176
     1
 90
        0
176
     1
 40
-0.6
176
     1
 41
-30.0
176
     1
 62
     5
 63
     7
421
 16777215
176
     1
 74
     1
176
     1
 91
        4
176
     1
 64
     7
176
     1
 65
   257
176
     1
 75
     1
176
     1
175
     1
176
     1
 42
1.0
176
     1
 92
        0
176
     1
 66
   257
176
     1
 43
1.0
176
     1
 76
     1
176
     1
 77
     6
176
     1
 78
     2
176
     1
 67
     7
176
     1
 79
     5
176
     1
170
     0
176
     1
171
     0
176
     1
290
     0
176
     1
 93
        1
176
     1
 44
0.0
176
     1
173
     0
176
     1
  0
VISUALSTYLE
  5
32
102
{ACAD_REACTORS
330
2A
102
}
330
2A
100
AcDbVisualStyle
  2
Basic
 70
     7
177
     2
291
     1
 71
     1
176
     1
 72
     0
176
     1
 73
     1
176
     1
 90
        0
176
     1
 40
-0.6
176
     1
 41
-30.0
176
     1
 62
     5
 63
     7
421
 16777215
176
     1
 74
     0
176
     1
 91
        4
176
     1
 64
     7
176
     1
 65
   257
176
     1
 75
     1
176
     1
175
     1
176
     1
 42
1.0
176
     1
 92
        8
176
     1
 66
     7
176
     1
 43
1.0
176
     1
 76
     1
176
     1
 77
     6
176
     1
 78
     2
176
     1
 67
     7
176
     1
 79
     5
176
     1
170
     0
176
     1
171
     0
176
     1
290
     0
176
     1
 93
        1
176
     1
 44
0.0
176
     1
173
     0
176
     1
  0
VISUALSTYLE
  5
36
102
{ACAD_REACTORS
330
2A
102
}
330
2A
100
AcDbVisualStyle
  2
Brighten
 70
    12
177
     2
291
     1
 71
     2
176
     1
 72
     2
176
     1
 73
     0
176
     1
 90
        0
176
     1
 40
-0.6
176
     1
 41
-30.0
176
     1
 62
     5
 63
     7
421
 16777215
176
     1
 74
     1
176
     1
 91
        4
176
     1
 64
     7
176
     1
 65
   257
176
     1
 75
     1
176
     1
175
     1
176
     1
 42
1.0
176
     1
 92
        8
176
     1
 66
     7
176
     1
 43
1.0
176
     1
 76
     1
176
     1
 77
     6
176
     1
 78
     2
176
     1
 67
     7
176
     1
 79
     5
176
     1
170
     0
176
     1
171
     0
176
     1
290
     0
176
     1
 93
        1
176
     1
 44
50.0
176
     1
173
     0
176
     1
  0
VISUALSTYLE
  5
3A
102
{ACAD_REACTORS
330
2A
102
}
330
2A
100
AcDbVisualStyle
  2
ColorChange
 70
    16
177
     2
291
     1
 71
     2
176
     1
 72
     2
176
     1
 73
     3
176
     1
 90
        0
176
     1
 40
-0.6
176
     1
 41
-30.0
176
     1
 62
     5
 63
     8
421
  8421504
176
     1
 74
     1
176
     1
 91
        4
176
     1
 64
     7
176
     1
 65
   257
176
     1
 75
     1
176
     1
175
     1
176
     1
 42
1.0
176
     1
 92
        8
176
     1
 66
     8
424
  8421504
176
     1
 43
1.0
176
     1
 76
     1
176
     1
 77
     6
176
     1
 78
     2
176
     1
 67
     7
176
     1
 79
     5
176
     1
170
     0
176
     1
171
     0
176
     1
290
     0
176
     1
 93
        1
176
     1
 44
0.0
176
     1
173
     0
176
     1
  0
VISUALSTYLE
  5
34
102
{ACAD_REACTORS
330
2A
102
}
330
2A
100
AcDbVisualStyle
  2
Conceptual
 70
     9
177
     2
291
     0
 71
     3
176
     1
 72
     2
176
     1
 73
     0
176
     1
 90
        0
176
     1
 40
-0.6
176
     1
 41
-30.0
176
     1
 62
     5
 63
     7
421
 16777215
176
     1
 74
     2
176
     1
 91
        2
176
     1
 64
     7
176
     1
 65
   257
176
     1
 75
     1
176
     1
175
     1
176
     1
 42
40.0
176
     1
 92
        8
176
     1
 66
     7
176
     1
 43
1.0
176
     1
 76
     1
176
     1
 77
     6
176
     1
 78
     2
176
     1
 67
     7
176
     1
 79
     3
176
     1
170
     0
176
     1
171
     0
176
     1
290
     0
176
     1
 93
        1
176
     1
 44
0.0
176
     1
173
     0
176
     1
  0
VISUALSTYLE
  5
35
102
{ACAD_REACTORS
330
2A
102
}
330
2A
100
AcDbVisualStyle
  2
Dim
 70
    11
177
     2
291
     1
 71
     2
176
     1
 72
     2
176
     1
 73
     0
176
     1
 90
        0
176
     1
 40
-0.6
176
     1
 41
-30.0
176
     1
 62
     5
 63
     7
421
 16777215
176
     1
 74
     1
176
     1
 91
        4
176
     1
 64
     7
176
     1
 65
   257
176
     1
 75
     1
176
     1
175
     1
176
     1
 42
1.0
176
     1
 92
        8
176
     1
 66
     7
176
     1
 43
1.0
176
     1
 76
     1
176
     1
 77
     6
176
     1
 78
     2
176
     1
 67
     7
176
     1
 79
     5
176
     1
170
     0
176
     1
171
     0
176
     1
290
     0
176
     1
 93
        1
176
     1
 44
-50.0
176
     1
173
     0
176
     1
  0
VISUALSTYLE
  5
39
102
{ACAD_REACTORS
330
2A
102
}
330
2A
100
AcDbVisualStyle
  2
Facepattern
 70
    15
177
     2
291
     1
 71
     2
176
     1
 72
     2
176
     1
 73
     0
176
     1
 90
        0
176
     1
 40
-0.6
176
     1
 41
-30.0
176
     1
 62
     5
 63
     7
421
 16777215
176
     1
 74
     1
176
     1
 91
        4
176
     1
 64
     7
176
     1
 65
   257
176
     1
 75
     1
176
     1
175
     1
176
     1
 42
1.0
176
     1
 92
        8
176
     1
 66
     7
176
     1
 43
1.0
176
     1
 76
     1
176
     1
 77
     6
176
     1
 78
     2
176
     1
 67
     7
176
     1
 79
     5
176
     1
170
     0
176
     1
171
     0
176
     1
290
     0
176
     1
 93
        1
176
     1
 44
0.0
176
     1
173
     0
176
     1
  0
VISUALSTYLE
  5
2B
102
{ACAD_REACTORS
330
2A
102
}
330
2A
100
AcDbVisualStyle
  2
Flat
 70
     0
177
     2
291
     1
 71
     2
176
     1
 72
     1
176
     1
 73
     1
176
     1
 90
        2
176
     1
 40
-0.6
176
     1
 41
30.0
176
     1
 62
     5
 63
     7
421
 16777215
176
     1
 74
     0
176
     1
 91
        4
176
     1
 64
     7
176
     1
 65
   257
176
     1
 75
     1
176
     1
175
     1
176
     1
 42
1.0
176
     1
 92
        8
176
     1
 66
     7
176
     1
 43
1.0
176
     1
 76
     1
176
     1
 77
     6
176
     1
 78
     2
176
     1
 67
     7
176
     1
 79
     5
176
     1
170
     0
176
     1
171
     0
176
     1
290
     0
176
     1
 93
       13
176
     1
 44
0.0
176
     1
173
     0
176
     1
  0
VISUALSTYLE
  5
2C
102
{ACAD_REACTORS
330
2A
102
}
330
2A
100
AcDbVisualStyle
  2
FlatWithEdges
 70
     1
177
     2
291
     1
 71
     2
176
     1
 72
     1
176
     1
 73
     1
176
     1
 90
        2
176
     1
 40
-0.6
176
     1
 41
30.0
176
     1
 62
     5
 63
     7
421
 16777215
176
     1
 74
     1
176
     1
 91
        4
176
     1
 64
     7
176
     1
 65
   257
176
     1
 75
     1
176
     1
175
     1
176
     1
 42
1.0
176
     1
 92
        0
176
     1
 66
   257
176
     1
 43
1.0
176
     1
 76
     1
176
     1
 77
     6
176
     1
 78
     2
176
     1
 67
     7
176
     1
 79
     5
176
     1
170
     0
176
     1
171
     0
176
     1
290
     0
176
     1
 93
       13
176
     1
 44
0.0
176
     1
173
     0
176
     1
  0
VISUALSTYLE
  5
2D
102
{ACAD_REACTORS
330
2A
102
}
330
2A
100
AcDbVisualStyle
  2
Gouraud
 70
     2
177
     2
291
     1
 71
     2
176
     1
 72
     2
176
     1
 73
     1
176
     1
 90
        2
176
     1
 40
-0.6
176
     1
 41
30.0
176
     1
 62
     5
 63
     7
421
 16777215
176
     1
 74
     0
176
     1
 91
        4
176
     1
 64
     7
176
     1
 65
   257
176
     1
 75
     1
176
     1
175
     1
176
     1
 42
1.0
176
     1
 92
        0
176
     1
 66
     7
176
     1
 43
1.0
176
     1
 76
     1
176
     1
 77
     6
176
     1
 78
     2
176
     1
 67
     7
176
     1
 79
     5
176
     1
170
     0
176
     1
171
     0
176
     1
290
     0
176
     1
 93
       13
176
     1
 44
0.0
176
     1
173
     0
176
     1
  0
VISUALSTYLE
  5
2E
102
{ACAD_REACTORS
330
2A
102
}
330
2A
100
AcDbVisualStyle
  2
GouraudWithEdges
 70
     3
177
     2
291
     1
 71
     2
176
     1
 72
     2
176
     1
 73
     1
176
     1
 90
        2
176
     1
 40
-0.6
176
     1
 41
30.0
176
     1
 62
     5
 63
     7
421
 16777215
176
     1
 74
     1
176
     1
 91
        4
176
     1
 64
     7
176
     1
 65
   257
176
     1
 75
     1
176
     1
175
     1
176
     1
 42
1.0
176
     1
 92
        0
176
     1
 66
   257
176
     1
 43
1.0
176
     1
 76
     1
176
     1
 77
     6
176
     1
 78
     2
176
     1
 67
     7
176
     1
 79
     5
176
     1
170
     0
176
     1
171
     0
176
     1
290
     0
176
     1
 93
       13
176
     1
 44
0.0
176
     1
173
     0
176
     1
  0
VISUALSTYLE
  5
38
102
{ACAD_REACTORS
330
2A
102
}
330
2A
100
AcDbVisualStyle
  2
Linepattern
 70
    14
177
     2
291
     1
 71
     2
176
     1
 72
     2
176
     1
 73
     0
176
     1
 90
        0
176
     1
 40
-0.6
176
     1
 41
-30.0
176
     1
 62
     5
 63
     7
421
 16777215
176
     1
 74
     1
176
     1
 91
        4
176
     1
 64
     7
176
     1
 65
   257
176
     1
 75
     7
176
     1
175
     7
176
     1
 42
1.0
176
     1
 92
        8
176
     1
 66
     7
176
     1
 43
1.0
176
     1
 76
     1
176
     1
 77
     6
176
     1
 78
     2
176
     1
 67
     7
176
     1
 79
     5
176
     1
170
     0
176
     1
171
     0
176
     1
290
     0
176
     1
 93
        1
176
     1
 44
0.0
176
     1
173
     0
176
     1
  0
VISUALSTYLE
  5
33
102
{ACAD_REACTORS
330
2A
102
}
330
2A
100
AcDbVisualStyle
  2
Realistic
 70
     8
177
     2
291
     0
 71
     2
176
     1
 72
     2
176
     1
 73
     0
176
     1
 90
        0
176
     1
 40
-0.6
176
     1
 41
-30.0
176
     1
 62
     5
 63
     7
421
 16777215
176
     1
 74
     1
176
     1
 91
        0
176
     1
 64
     7
176
     1
 65
   257
176
     1
 75
     1
176
     1
175
     1
176
     1
 42
1.0
176
     1
 92
        8
176
     1
 66
     8
424
  7895160
176
     1
 43
1.0
176
     1
 76
     1
176
     1
 77
     6
176
     1
 78
     2
176
     1
 67
     7
176
     1
 79
     5
176
     1
170
     0
176
     1
171
     0
176
     1
290
     0
176
     1
 93
       13
176
     1
 44
0.0
176
     1
173
     0
176
     1
  0
VISUALSTYLE
  5
37
102
{ACAD_REACTORS
330
2A
102
}
330
2A
100
AcDbVisualStyle
  2
Thicken
 70
    13
177
     2
291
     1
 71
     2
176
     1
 72
     2
176
     1
 73
     0
176
     1
 90
        0
176
     1
 40
-0.6
176
     1
 41
-30.0
176
     1
 62
     5
 63
     7
421
 16777215
176
     1
 74
     1
176
     1
 91
        4
176
     1
 64
     7
176
     1
 65
   257
176
     1
 75
     1
176
     1
175
     1
176
     1
 42
1.0
176
     1
 92
       12
176
     1
 66
     7
176
     1
 43
1.0
176
     1
 76
     1
176
     1
 77
     6
176
     1
 78
     2
176
     1
 67
     7
176
     1
 79
     5
176
     1
170
     0
176
     1
171
     0
176
     1
290
     0
176
     1
 93
        1
176
     1
 44
0.0
176
     1
173
     0
176
     1
  0
ENDSEC
  0
EOF
