<?xml version="1.0" encoding="utf-8"?>
<!-- Generator: Adobe Illustrator 22.0.0, SVG Export Plug-In . SVG Version: 6.00 Build 0)  -->
<svg version="1.1" id="Layer_1" xmlns="http://www.w3.org/2000/svg" xmlns:xlink="http://www.w3.org/1999/xlink" x="0px" y="0px"
	 viewBox="0 0 1080 1080" style="enable-background:new 0 0 1080 1080;" xml:space="preserve">
<style type="text/css">
	.st0{fill:#050505;}
	.st1{fill:#08CCDA;}
	.st2{fill:#CE0100;}
</style>
<g>
	<g>
		<g>
			<path class="st0" d="M211.9,648.9c1,4.7,0.3,8.9-1.9,12.6c-2.2,3.6-5.2,6.7-9,9.3c-4.7,2.9-9.5,4.4-14.2,4.5
				c-4.7,0.2-9.3-0.8-13.8-2.9c-4.4-2.1-8.4-5.1-11.9-9c-3.5-4-6.2-8.3-8.1-13.1c-2.8-9.5-4.4-19.3-4.5-29.4
				c-0.2-10.1,0.5-19.9,2.1-29.4c4.4-24.4,13.2-47.2,26.3-68.6c13.1-21.4,30.6-39.6,52.5-54.8c7.6-5.4,15.1-9.3,22.5-11.9
				c7.4-2.5,14.3-3.8,20.6-3.8c10.8,0,20.4,3.3,29,10c8.5,6.6,15.6,15.7,21.1,27.1c5.5,11.4,9.4,24.6,11.6,39.6
				c2.2,15,2.7,31.1,1.4,48.2c-0.6,3.5-1.1,7-1.4,10.7c-0.3,3.6-0.8,7.4-1.4,11.2c-1,4.4-2.2,9.8-3.8,16.1
				c-1.6,6.3-3.4,12.8-5.5,19.5c-2.1,6.6-4.1,13.3-6.2,19.9c-2.1,6.6-4,12.5-5.9,17.6c-3.5,10.1-6.7,20.3-9.7,30.4
				c-3,10.1-5.5,19.5-7.4,28l-1.9-0.5l-0.9,1.9l0.9,2.4h0.5c0.3,0,0.6-0.2,0.9-0.5c-1.6,7.3-2.7,13.6-3.3,19
				c-0.6,8.2,0.1,14.3,2.1,18.3c2.1,4,5.1,6.4,9.3,7.4c8.9,1.3,17.9-1.7,27.1-8.8c9.2-7.1,18-16.5,26.3-28
				c8.4-11.5,16.2-24.4,23.5-38.4c7.3-14.1,13.3-27.6,18-40.6c1.9-11.1,4-22,6.2-32.8c2.2-10.8,4.3-21.7,6.2-32.8
				c1-5.1,3.6-8.7,8.1-10.9c4.4-2.2,9.2-3.3,14.2-3.3c5.7,0,10.7,1.5,15,4.5c4.3,3,6.2,6.3,5.9,9.7c-4.7,14.6-9.2,30.9-13.3,49.1
				c-4.1,18.2-7.9,35.8-11.4,52.9c-4.1,20.9-8.5,41.7-13.1,62.4c-4.6,20.7-10.4,40.1-17.3,58.1c4.1,0.3,8,0.5,11.6,0.5
				c3.6,0,7.2,0,10.7,0c7.9,0,16.7,0.1,26.3,0.2c9.6,0.2,19.5-0.1,29.4-0.7c10-0.6,19.7-1.7,29.2-3.3c9.5-1.6,18-4,25.6-7.1
				c7.6-3.2,13.8-7.4,18.7-12.8c4.9-5.4,7.8-12.2,8.8-20.4c1.9,0.3,3.7,1.6,5.5,3.8c1.7,2.2,3.2,5.1,4.3,8.5
				c1.1,3.5,1.7,7.4,1.7,11.9c0,4.4-0.8,8.9-2.4,13.3c-1.9,5.7-5.3,10.7-10.2,15c-4.9,4.3-10.9,7.8-18,10.4
				c-7.1,2.7-15,4.7-23.7,6.2c-8.7,1.4-17.8,2.1-27.3,2.1c-17.4,0-34.7-0.8-52-2.4c-17.3-1.6-32.5-4-45.8-7.1
				c-3.5,7.3-7.4,14.5-11.9,21.6c-4.4,7.1-8.9,13.8-13.3,20.2c-7.6,9.2-15.8,15.9-24.7,20.2c-8.9,4.3-17.3,6.4-25.2,6.4
				c-8.9,0-16.3-1.6-22.3-4.7c-7.9-3.5-14.2-9.1-18.7-16.8c-4.6-7.8-6.6-15.6-5.9-23.5c0.3-4.1,1.3-6.9,2.8-8.3
				c1.6-1.4,3.1-2,4.5-1.7c1.4,0.3,2.8,1.3,4,2.8c1.3,1.6,1.9,3.5,1.9,5.7c0.6,6,2.8,10.6,6.4,13.8c3.6,3.2,8.1,4.7,13.5,4.7
				c6.3,0,12.1-1.4,17.3-4c5.2-2.7,9.9-6.2,14-10.4c4.1-4.3,7.8-9,11.2-14.2c3.3-5.2,6.2-10.2,8.8-15c-16.8,1-31.9,1-45.3,0.2
				c-13.5-0.8-22.7-0.9-27.8-0.2c-5.4,0.6-8.2-0.1-8.3-2.1c-0.2-2.1,1-4.3,3.6-6.6c2.5-2.4,5.9-4.6,10.2-6.6
				c4.3-2.1,8.1-2.9,11.6-2.6l63.6,1.9c5.7-13.9,10.6-28.9,14.7-44.9c4.1-16,7.8-31.9,10.9-47.7h-1c-5.4,10.1-11.2,19.7-17.6,28.7
				c-6.3,9-13.1,17-20.2,24c-7.1,7-14.6,12.5-22.5,16.6c-7.9,4.1-16.1,6.2-24.7,6.2c-15.8,0-27.9-5.6-36.1-16.9
				c-8.2-11.2-11.6-25.9-10-43.9c0-1.9,0.2-4.1,0.5-6.6c0.3-2.5,0.8-4.9,1.4-7.1c1-4.1,2.4-9.3,4.3-15.7c1.9-6.3,4.1-13.4,6.6-21.4
				c3.2-9.8,6.6-20.7,10.2-32.8c3.6-12,7.2-24.5,10.7-37.5c3.5-13,6.6-26.3,9.5-40.1c2.8-13.8,4.9-27.5,6.2-41.1
				c2.5-22.8,0.4-39.7-6.4-50.8c-6.8-11.1-15.9-16.6-27.3-16.6c-12.7,0-25.6,6.2-38.9,18.5c-6.3,5.7-11.8,12.5-16.4,20.4
				c-4.6,7.9-8.6,16.5-12.1,25.9c-3.5,9.3-6.5,19.3-9,29.9c-2.5,10.6-4.7,21.6-6.6,33c-1.3,7.6-1.7,15.7-1.4,24.2
				c0.3,8.5,1.6,15.8,3.8,21.8c2.2,6,5.2,9.8,9,11.4C201.5,657.6,206.2,655.2,211.9,648.9z M159.2,587.2l0.5-3.3h-0.9l-1,1.4
				L159.2,587.2z M159.2,619c0,1.6,0,2.5,0,2.6c0,0.2,0.3,0.2,1,0.2h2.4l-0.5-2.8H159.2z M163,577.7v-1l-2.8,0.5v1l1.9-0.5H163z
				 M162.1,591h-1v1.9h1V591z M164.4,587.2h-0.9l-1,1.4l0.5,1.9h1L164.4,587.2z M166.3,637.5l-3.8,3.3l2.8-0.5L166.3,637.5z
				 M167.8,557.7l-2.8,0.9l0.5,3.8l4.7-3.8L167.8,557.7z M166.8,584.3l1,1.4l-1.4,0.5v0.9h0.5c-0.6,1.9,0,2.5,1.9,1.9l0.5-1.4
				l-1-2.4l0.5-3.8l-3.8,1.9l0.5,1.4h0.9L166.8,584.3z M169.7,577.7l-0.5-2.8c-1.3-0.3-2.2,0-2.8,1l-0.9,1.9l2.4,0.5L169.7,577.7z
				 M168.2,649.3l-1.4-1.9c-0.6,1.6-1,2.5-1.2,2.6c-0.2,0.2-0.1,0.4,0.2,0.7L168.2,649.3z M165.9,625.1l2.4,2.4l2.8-1.9l-0.5-2.4
				c-1.3-0.3-1.7-1-1.4-1.9c-1.9,0-2.8,0.5-2.8,1.4L165.9,625.1z M166.8,568.6l3.8,0.5c0-0.3,0.6-1.6,1.9-3.8l-2.8-1L166.8,568.6z
				 M168.2,605.2c-0.6,1.3-0.9,2.1-0.9,2.4c0,0.3,0.3,0.6,0.9,1l2.4-0.5l0.5-2.8H168.2z M167.8,585.7l0.5,0.5v-1L167.8,585.7z
				 M170.6,572.9v-2.8h-1l-0.5,1.4L170.6,572.9z M174.4,636l-0.5-4.3h-4.7l0.5,4.7l2.4,0.5l1.4,0.5L174.4,636z M173,623.7l-3.3,3.3
				l2.8-1L173,623.7z M170.6,654.6l3.3,1l0.5-2.8L170.6,654.6z M173,577.2h-1l-0.5,1.9h1L173,577.2z M173.9,636.5l-0.5-1.9h-0.9
				l-1,1.4L173.9,636.5z M174.4,563.4v-1l-2.4,1v1l1.9-1H174.4z M174.9,642.2l1-2.4l-3.3-0.5l-0.5,2.9H174.9z M173.5,610.4l1.9,2.4
				l3.8-1l-0.5-2.4c-1.3-0.3-1.9-1.3-1.9-2.8l-2.8,2.4L173.5,610.4z M174.9,573.4h-0.9v2.8h0.9V573.4z M178.7,549.7
				c-2.2,1.6-3,3-2.4,4.3v1.4l-1,0.5v1l1,0.5c0.6-0.3,1.1-0.6,1.4-1c0.3-0.3,0.5-0.5,0.7-0.5c0.2,0,0.4-0.2,0.7-0.5
				c-0.3,0-0.6-0.3-0.9-0.9c-0.3-0.6-0.6-1.1-1-1.4L178.7,549.7z M177.7,570.1l1.9,1l0.5-4.3l-3.8,2.4L177.7,570.1z M179.2,617.5
				h-2.8l0.9,4.7l3.3,1l1-5.2h-1L179.2,617.5z M176.3,640.8h4.3v-1L176.3,640.8z M179.6,644.6l1.4-2.4l-4.3-1l-0.5,2.8
				c0.9,1.3,1.5,2.1,1.7,2.4c0.2,0.3,0.5-0.3,1.2-1.9H179.6z M179.6,574.3c0.3,0,0.8-0.8,1.4-2.4l-1.9-0.5l-1.9,0.5
				c-0.6,3.5,0.2,4.4,2.4,2.8V574.3z M181.1,560.6c-1.3-0.6-2.2-0.2-2.8,1.4l-0.5,2.8l1.9-0.5c1.3,0,1.9-0.5,1.9-1.4L181.1,560.6z
				 M181.1,543l-2.4,1.9v3.8l3.8-2.8L181.1,543z M179.6,554.9l3.8,0.5c0-0.6,0.1-1.2,0.2-1.7c0.2-0.5,0.7-1.3,1.7-2.6l-2.8-0.5
				L179.6,554.9z M180.1,632.7l0.5,1.9h1c0-0.3,0.2-0.6,0.5-1L180.1,632.7z M189.1,541.1l-0.5,1.4c2.2,1.9,3.3,2.1,3.3,0.5l-0.5-2.8
				l-1.9,1H189.1z M192.4,538.3l-0.9-0.9c-1,0.9-1.6,2.2-1.9,3.8L192.4,538.3z M255.6,738.1c-0.3,1-0.4,1.7-0.2,2.1
				c0.2,0.5,0.2,1,0.2,1.7h2.4c1.6-0.6,1.9-1.6,0.9-2.8l-2.8-1.4L255.6,738.1z M262.2,724.8v-2.4l-2.8-0.5l-0.5,2.8
				c0.3,0.3,0.6,0.5,1,0.5l0.5,0.5L262.2,724.8z M260.3,736.2c1,0,1.9-0.3,2.8-1c-1-1-2.1-1.4-3.3-1.4L260.3,736.2z M262.2,747.6
				l0.5,1h1l1.4-3.8l0.9-1.9h-2.8l-0.5,1.9l-0.5-1h-0.9c0.3,1.3,0.3,2.1,0,2.4L262.2,747.6z M267.9,750.9l2.4,0.5
				c0-0.3,0.1-0.6,0.2-0.9c0.2-0.3,0.2-0.6,0.2-1c0.3-0.3,0.4-0.7,0.2-1.2c-0.2-0.5-0.2-0.9-0.2-1.2c0.6-0.6,0.6-1.3,0-1.9l-5.2,1.9
				v5.2l2.8-2.4L267.9,750.9z M269.8,719.6l-2.4-0.9l-0.9,3.8l2.4-1L269.8,719.6z M273.6,757.1l-1-2.4h-2.8c-0.3,0-0.6,0.2-0.9,0.5
				l-1,1l0.5,2.4c1.9,1,2.8,1,2.8,0L273.6,757.1z M273.6,712.5v-0.9V711l0.9-1v-2.4h-0.9l-1.9-1.4l-0.5,2.8l-1.9,0.5
				c-0.3,2.2-0.3,3.5,0,3.8l3.8,0.5L273.6,712.5z M276,725.3l-0.5,0.5l-1-0.5c0-2.5-0.8-3-2.4-1.4h0.5c-1.3,0.6-1.7,1.6-1.4,2.8h3.3
				l-0.9,1l0.9,1l0.5-1.9h0.5v-0.5L276,725.3z M273.1,720.5c1.6-0.6,2.4-1.1,2.4-1.4l2.4-2.4l-3.3-1l-2.8,4.3L273.1,720.5z
				 M275.5,725.8l-1,0.9h0.5l0.5-0.5V725.8z M276.9,736.7l-1.4-0.9l0.9,3.8l2.4-1l-1-2.4L276.9,736.7z M279.3,757.1l0.9-1.9
				l-1.9-2.8h-0.9l-1,1.9c0,1.6,0.2,2.5,0.5,2.9l0.9,1.4L279.3,757.1z M278.4,742.4l-0.5,4.7l1.9,1c1-1.6,1.3-2.5,1-2.8L278.4,742.4
				z M280.3,710.1l1.4-2.8l-2.4-0.5l-1,3.8L280.3,710.1z M280.7,750.9l2.8,1l1.9-1v-2.8l-1.9,0.5c-0.3,0-0.5-0.1-0.5-0.2
				c0-0.2-0.2-0.2-0.5-0.2v-2.4l-4.3,4.3L280.7,750.9z M281.2,714.8l2.4-1.9l-2.4-2.8l-1.9,1.9c0.3,0.9,0.5,1.8,0.5,2.6
				c0,0.8,0,1,0,0.7L281.2,714.8z M283.1,741c0-2.5-0.3-3.8-0.9-3.8l-2.8,0.5L283.1,741z M284.1,722.4c0,0.3-0.1,0.6-0.2,0.7
				c-0.2,0.2-0.2,0.4-0.2,0.7l-2.4,0.5c-0.9,1-1.4,2.2-1.4,3.8l2.4,0.5h2.4c0-0.6,0.2-1.2,0.5-1.7c0.3-0.5,0.5-1,0.5-1.7l3.8-2.8
				h2.4c0.9,0,1.9-0.8,2.8-2.4v0.5l1.4-1.9c-0.9-0.3-1.4-1-1.4-1.9l-1.4-1.9h-2.8c0,0.3-0.1,0.6-0.2,0.7c-0.2,0.2-0.2,0.4-0.2,0.7
				c-1,1-1.1,1.7-0.5,2.4l-1.4,3.3l-1.4-0.5H286l0.9-1.4c-0.6,0-0.5-0.5,0.5-1.4c-1.3-0.6-2.8-1-4.7-1c-0.3,1.6-0.2,2.7,0.5,3.3
				v-0.5L284.1,722.4z M284.1,680.2l0.5,2.8h2.8c-0.6-2.2-1.3-3-1.9-2.4L284.1,680.2z M285,731.5l-0.5,5.7l2.8-3.3l-0.5-1.9
				L285,731.5z M286,744.3l2.8-0.5l0.5-2.8l-2.8-0.5l-1,2.4L286,744.3z M286,714.8h3.8l-3.8-3.3V714.8z M288.8,657.4l-0.9-0.5
				c-0.6,0.6-1,1.3-1,1.9h1L288.8,657.4z M289.8,708.7l-2.8,0.5l1,2.4h2.8l1-2.4L289.8,708.7z M290.2,674l-0.9-2.8
				c-1.3,1.3-1.9,2.2-1.9,2.8v3.3h5.2l-1.9-3.3H290.2z M287.9,722v0.5h1.4L287.9,722z M293.1,724.3l-2.4,1l-2.8,3.8
				c2.5-0.6,4.1-1,4.7-1.2c0.6-0.2,0.9-0.5,0.9-1.2L293.1,724.3z M288.3,653.1l0.5,1.9h1L288.3,653.1z M290.2,667.9
				c2.2,0,3.6-0.3,4.3-1l0.5-3.8l-1.9-1h-2.4c-0.3,1.6-0.6,2.7-0.7,3.3c-0.2,0.6-0.2,1.1-0.2,1.4L290.2,667.9z M298.3,670.7l-2.8,1
				l-0.9,1l0.9-1.9l-0.5-2.8l-3.3,2.4v1.4c-0.6,1.6-0.6,2.5,0,2.8l2.4-0.5l-0.5,0.5c0.6,1.6,1.6,2.4,2.8,2.4l1.4-2.4L298.3,670.7z
				 M296.4,681.6h-2.8l-0.9,4.7l-0.5,3.3c0.6-0.6,1.3-1.3,1.9-1.9c0.6-0.6,1.3-1.6,1.9-2.8l-0.5-1.9L296.4,681.6z M298.3,653.1
				l-3.3,0.5l-1.4,3.8c0.6,0.6,1,1.3,1,1.9l2.4,0.9l3.3-0.9v-2.4L298.3,653.1z M294.5,673.5v-1L294,674L294.5,673.5z M296.9,661.2
				l-0.5,3.8l1.9-1L296.9,661.2z M296.9,685.4l0.5,2.8h1L296.9,685.4z M299.3,666.9V665h-0.9L299.3,666.9z M307.3,651.2H305l1.4-1.4
				l-1.4-2.4c-1.3,0-2.5,0.6-3.8,1.9l0.5,2.4c1.3,0.6,2.2,0.6,2.8,0l0.5,1.9l1.9-0.9L307.3,651.2z M301.6,498.4l1.9-0.5l0.5-1
				c-0.9-0.6-1.7-0.6-2.4,0V498.4z M308.7,641.3l-2.4-1l0.5-1.9c1.6-0.6,2.4-1.4,2.4-2.4l-0.5-1.4l-0.5-2.4l-2.8,0.5
				c-1.3,1-1.6,1.7-1,2.4c0.3,0,0.6,0.1,1,0.2c0.3,0.2,0.6,0.2,0.9,0.2l-0.5,1v1.4l-1.4-0.5l-2.8,0.5c0.6,1,0.6,1.9,0,2.8l2.4-0.5
				l2.4,0.5l-0.5,1.9l1.9,0.5l0.5-0.9l-1.4,4.3v3.3l2.4,0.5l1.4-0.9l0.5,2.4c0.6,0,1.1,0.6,1.4,1.9l1.9-0.9l1.4-1
				c-0.6-2.5-1.3-4-1.9-4.3h0.5c-1.3-1-2.4-0.6-3.3,1l-1.4-3.8l-1.4-2.4L308.7,641.3z M302.6,611.8l-0.5,1.9h0.9l0.9-1.4
				L302.6,611.8z M306.4,493.6l-3.8-0.5l3.3,3.8L306.4,493.6z M307.8,611.4c-1.3,1-1.9,1.6-1.9,1.9H305l-0.5,2.4h2.8
				c0.3-0.3,0.5-1,0.5-1.9V611.4z M304.5,651.7l0.5-0.5h-0.5V651.7z M305.4,500.3l1.9-1v-0.9h-1.9V500.3z M306.8,637.9h-1v0.5h1
				V637.9z M308.3,504.1l3.3,1l-1.9-2.8h-2.4l-0.5,0.9L308.3,504.1z M310.6,597.6l0.5-2.8c-1.6,0-2.3,0.1-2.1,0.2
				c0.2,0.2-0.1,0.6-0.7,1.2l-0.5,0.5c-0.6,0.6-0.9,1.3-0.9,1.9L310.6,597.6z M307.3,610.9h3.8l0.5-2.9h-2.8L307.3,610.9z
				 M309.7,667.9c-1.3,0-1.9,0.5-1.9,1.4l-0.5,3.3l3.3-3.3L309.7,667.9z M312.1,508.4l-2.4,0.5v0.9l2.4,1l2.8,0.5L312.1,508.4z
				 M313,591.9l-2.4-1l0.9,3.8l3.3,1h-3.3l1.9,4.3l-0.5,1.4h2.4l1.9-0.9l-0.5-4.7h-1.9l1.4-3.3L313,591.9z M311.6,648.9l-0.5-0.5
				l-0.5,1L311.6,648.9z M312.1,500.8h0.9l0.5-1.4h-0.9L312.1,500.8z M313,610.9l2.8-1c0.6-1.9,0.6-3.2,0-3.8l-1.9-0.5l-0.5,1h0.5
				l-1,1.4l-0.9,2.4L313,610.9z M314.9,518.8v-1c-1.6,0-2.5,0.1-2.6,0.2c-0.2,0.2,0.1,0.6,0.7,1.2v1h1L314.9,518.8z M313,539.2v2.8
				h3.8c-0.3-3.2-1.4-4.3-3.3-3.3L313,539.2z M314,522.1h0.9l0.5-1.9h-1L314,522.1z M317.8,577.7c-3.2,0-4.3,0.8-3.3,2.4v-0.5l1,3.3
				h0.9c0-0.3-0.1-0.5-0.2-0.7c-0.2-0.2-0.2-0.4-0.2-0.7c0.6-0.6,0.8-1.3,0.5-1.9L317.8,577.7z M317.3,553.5l3.3,2.4
				c0-0.9,0.3-2.1,0.9-3.3c0.3-0.6,0.5-1.1,0.5-1.4l-1.9-0.5l-2.4-0.5l-1.9,2.4L317.3,553.5z M321.1,512.6l-3.8-1l-1,2.8
				L321.1,512.6z M321.1,545.9v-1h-1.9l0.9-0.5v-1l-1.4-1l-0.5,0.5h-1.4l-0.5,3.8l2.8-1.4v0.5H321.1z M316.3,606.1l0.5,2.8l3.8-1
				l0.5-3.8L316.3,606.1z M321.6,564.8l-1.4-2.8l-2.8-2.4l-0.5,4.7c1,0.6,1.1,1.3,0.5,1.9l3.3,0.5L321.6,564.8z M321.1,539.7
				l0.9-1.9l-0.9-1.9c-1.6,0-2.4,0.2-2.4,0.5c0,0.3-0.2,0.6-0.5,1l1.9,2.4H321.1z M320.6,535.4l3.8-3.8l-2.8,0.5L320.6,535.4z
				 M321.1,591.4l3.8-1.9v-1c-2.2,0-3.3,0.3-3.3,1L321.1,591.4z M327.7,574.3l0.9-1.9l-0.9-2.4l-4.3,2.4L327.7,574.3z M327.7,539.7
				v1.4h0.9l1-1.4c0-1-0.2-1.6-0.5-1.9l-2.4-0.5L327.7,539.7z M326.8,551.1l4.3-1l-3.8-3.8l-0.5,3.3V551.1z M333.9,578.6
				c-0.9-1-2.1-1.1-3.3-0.5l-1.9,0.5l-0.5,3.8l3.8,0.9l2.4-3.3L333.9,578.6z M375.2,793.2c-0.3,1-0.2,2.1,0.5,3.3
				c2.2-0.3,3-1.4,2.4-3.3c-0.9,0-1.6-0.2-1.9-0.5L375.2,793.2z M380.4,780.8l0.5-2.8l-2.4-0.5l-1,2.8c0.3,0.3,0.6,0.5,1,0.5h0.5
				H380.4z M379.5,791.3l1.4-3.8c-0.9,1-1.7,1.4-2.4,1.4L379.5,791.3z M380,802.2l0.5,0.9h0.9l1-3.8l0.9-1.9l-2.4,0.5v0.5H380
				c0.3,1,0.2,1.7-0.5,2.4L380,802.2z M384.7,806l1.9-1.9c0.6-0.6,0.6-1.4,0-2.4v-1.9l-4.3,1.9l-0.5,5.2l2.8-2.4V806z M386.1,775.1
				l-2.8-0.9l0.5,3.8l1.9-1L386.1,775.1z M389,811.2l-1-2.4h-2.4c-0.6,0-1.1,0.6-1.4,1.9v1.9c1.9,0.9,2.8,0.9,2.8,0L389,811.2z
				 M389.4,768v-0.5v-0.5l1-1l-0.5-2.4H389l-0.5,0.5v-0.5h-0.9v1.4l-1.4,1.9l1.9,2.4L389.4,768z M389.9,780.4c0.6-2.5,0-2.8-1.9-1
				h0.5c-1.3,0.3-2,0.7-2.1,1.2c-0.2,0.5,0.1,0.9,0.7,1.2h2.4L389.9,780.4z M389,776.1l1.4-1.4l2.8-2.4l-3.3-0.9l-2.4,4.3L389,776.1
				z M391.3,780.4l-2.4,2.4l0.9,1L391.3,780.4z M390.4,792.7l2.8,1l-0.9-2.4L390.4,792.7z M392.3,797c0,2.2-0.6,3.8-1.9,4.7l3.8,1
				l0.5-2.9L392.3,797z M393.2,811.2l0.5-1.9l-1.4-2.9h-1l-0.5,4.7l0.9,1.4L393.2,811.2z M393.2,766.6h1l1.4-3.3l-1.9-0.5
				L393.2,766.6z M395.1,770.4l2.8-2.4c-1,0-1.7-0.3-2.4-1h-1l-0.9,1.4l0.5,1.9H395.1z M397,778l-0.5,1.9l-1.4-0.5
				c-0.6,0.6-1,1-1.2,1.2c-0.2,0.2-0.2,1-0.2,2.6l2.4,0.5l1.4-1.4c0-0.6,0.3-1.3,0.9-1.9v0.5l3.3-2.8h1.4c0.6,0,1.4-0.8,2.4-2.4
				v-2.8l-0.9-1.9l-2.4-0.5c0,0.3-0.1,0.5-0.2,0.7c-0.2,0.2-0.2,0.4-0.2,0.7c-0.6,0.6-0.9,1.4-0.9,2.4l-1,2.8h-0.5v-3.3
				c-0.3-0.3-1.4-0.5-3.3-0.5c-0.3,1.6-0.2,2.7,0.5,3.3v-0.5L397,778z M394.2,805.5l2.4,0.9l1.4-0.9v-2.8h-2.8l-1.4,0.9L394.2,805.5
				z M396.6,795.1c0-1.9-0.5-2.8-1.4-2.8L396.6,795.1z M397.5,786.5l-0.5,5.7l2.8-3.3l-0.5-1.9L397.5,786.5z M397.5,737.2l0.9,4.3
				c0.6-0.6,0.9-1.2,0.7-1.7c-0.2-0.5-0.2-1-0.2-1.7L397.5,737.2z M400.8,798.4l0.5-2.8l-2.8-0.5l-0.5,3.8L400.8,798.4z
				 M399.4,770.9l3.3-2.8h-1.9l3.8-2.9l-3.3-0.5l-1.9,0.5l0.5,2.9h-0.9L399.4,770.9z M402.3,731c-1.6,0.6-2.5,1-2.6,1
				c-0.2,0,0.1,0.3,0.7,1v-0.5l0.5,1.9h3.3l-0.9-2.4L402.3,731z M400.4,768.5l0.5-0.5h-1L400.4,768.5z M399.9,777v1h1.4
				C401,778,400.5,777.7,399.9,777z M401.8,715.8h-0.9c0,0.3-0.1,0.6-0.2,0.7c-0.2,0.2-0.2,0.4-0.2,0.7h1L401.8,715.8z M401.3,711.5
				l0.9,1.9h1L401.3,711.5z M404.2,779.9l-2.8,0.5v3.3c2.2-0.6,3.3-1.3,3.3-1.9L404.2,779.9z M402.7,725.8c1.3,0,2.5-0.3,3.8-1v-3.3
				l-0.5-2.4l-2.8,0.9c-0.3,1.6-0.5,2.7-0.5,3.3c0,0.6,0,1.1,0,1.4V725.8z M405.6,784.6l-2.8,1.9l0.9,3.8l2.4-2.4L405.6,784.6z
				 M403.7,728.1l0.5,2.4l1.9,0.5l0.9-2.4l-0.5-2.8L403.7,728.1z M407.5,739.1h-0.9l-2.4,3.8v1.9h1l1.9-2.8V740L407.5,739.1z
				 M409.4,711.5l-2.8,0.5l-1.4,3.8c0.6,0.6,0.9,1.3,0.9,1.9l2.4,0.5l2.4-0.5v-2.4L409.4,711.5z M408.9,729.1H408l-2.4,2.8
				c0.3,1.3,1.1,1.9,2.4,1.9l0.5-1.9L408.9,729.1z M408.9,720.5H408l-0.5,1.9h1L408.9,720.5z M408.4,743.3h-1l0.5,1.4h0.9
				L408.4,743.3z M410.3,724.8l-0.5-1.9h-1L410.3,724.8z M414.1,696.3l-2.4,3.3l3.3-0.5l0.5-1.4c0.9-0.3,1.6-0.8,1.9-1.4
				c0.3-0.6,0.5-1.1,0.5-1.4l-0.5-1.4v-1.9l-2.4,0.5l0.5,1.9l-0.5,1.4v1.4L414.1,696.3z M416,709.6l-2.8,0.5l2.4-1.4l-1-2.9
				c-1.3,0-2.2,0.8-2.8,2.4v2.8l1.4-1l0.5,3.3l2.4-2.4V709.6z M413.2,671.2l-0.5,1.9h1l0.9-1.4L413.2,671.2z M417.9,670.2
				c-1.3,0.9-1.9,1.7-1.9,2.4h-0.9l-0.5,2.8c1.6-0.6,2.4-1,2.6-1.2c0.2-0.2,0.2-0.5,0.2-1.2L417.9,670.2z M417,725.8l-2.4,2.8l3.3,1
				l0.5-2.9L417,725.8z M415.6,697.8l0.5-1h-0.9L415.6,697.8z M417.5,700.1l-1.9,0.5v1L417.5,700.1z M415.6,704.9l0.5,3.3h2.8v-2.4
				l-0.5-1.4l-0.5-1.9H417L415.6,704.9z M421.7,652.2l-1.9-1v2.4c-0.6,0.6-1.1,1.2-1.4,1.7c-0.3,0.5-0.6,1-1,1.7
				c-0.3,0.6-0.6,1.1-0.9,1.4l3.3-1l0.5-2.8l2.8,1h-2.4l0.9,4.3l-0.5,1.4l3.8-1l-0.5-4.7h-1.4l1-2.8L421.7,652.2z M421.2,670.2
				l2.4-1c0-0.3,0.1-0.5,0.2-0.5c0.2,0,0.2-0.2,0.2-0.5l3.3-1l0.5-3.3l-4.3,1.9l-1.9-0.5l-0.5,2.4l-0.5,1.4l-0.5-2.8l-3.8,3.8
				l3.8-0.5L421.2,670.2z M418.4,833h0.9l1-3.8h-2.8l-0.5,3.3L418.4,833z M418.4,836.8l1.9,0.5l1.4-4.3l-3.8,2.4L418.4,836.8z
				 M422.7,710.6c-0.3-1.9-0.6-3.1-0.7-3.6c-0.2-0.5-0.2-0.9-0.2-1.2c-0.9-0.9-1.7-0.3-2.4,1.9l-0.5,2.4c0.6,0,0.9,0.6,0.9,1.9
				L422.7,710.6z M420.3,653.1l-0.5,0.5l0.5,0.5V653.1z M420.8,669.8v-0.5l-0.5,0.5H420.8z M423.1,824.5l-1.4,1.9v1l-0.5,1.4
				c0.6,2.2,1.9,2.4,3.8,0.5h0.5l0.5-1c-0.3,0-0.8-0.3-1.4-0.9c-0.6-0.3-1.3-0.5-1.9-0.5l2.8-1v-1l-1.4-0.5H423.1z M422.2,827.3
				l0.5-0.5h-0.9L422.2,827.3z M421.7,835.9v2.8h2.8l-0.5-2.4L421.7,835.9z M425,638.4c-1.6,0-2.4,0.6-2.4,1.9l1,2.8h0.9
				c0-0.3-0.1-0.5-0.2-0.7c-0.2-0.2-0.2-0.4-0.2-0.7c0.3-0.3,0.5-0.8,0.5-1.4L425,638.4z M424.1,668.3c0.3-0.3,0.2-1.1-0.5-2.4
				L424.1,668.3z M428.4,625.1c0-0.6-0.3-1.3-0.9-1.9l-1.9-2.4l-0.5,4.7c0.6,0.6,0.6,1.3,0,1.9l2.8,0.5l1-1.9L428.4,625.1z
				 M426.5,834.9V834l-0.9-0.5l-0.5,0.9L426.5,834.9z M426.5,836.8l-0.9,2.8l2.8-0.5v-1.9L426.5,836.8z M427.9,652.2l4.3-3.3
				c-2.5,0-4,0.3-4.3,0.9V652.2z M427.9,836.4c1.6,0,2.4-0.6,2.4-1.9h-0.9L427.9,836.4z M433.6,635.1c0.3-2.2,0.2-3.8-0.5-4.7
				l-3.8,2.8L433.6,635.1z M430.7,830.7h-1l-0.5,1.4h0.9L430.7,830.7z M435.5,835.4h-4.3v1c0.6,0.3,1.3,0.5,1.9,0.5L435.5,835.4z
				 M435,841.1v-3.8l-3.8,3.8H435z M437.4,639.4c-0.3-0.3-1.6-0.2-3.8,0.5v3.8h3.3l1.4-2.4L437.4,639.4z M436.9,829.2l-0.5-1.9h-1
				L436.9,829.2z M444,833v1.4h-2.8c0-0.6,0.3-0.9,0.9-0.9c0-0.3,0.8-1.3,2.4-2.8c-2.2,0.3-3.5,0.6-3.8,0.9c-0.6-0.6-1.3-0.6-1.9,0
				v1c-1.6-1-2.5-1.3-2.8-1l-0.5,3.8v0.5c1-1,1.6-1.4,1.9-1.4l1.9,1V834l0.5,0.5l-0.5,2.9l1.4,1.4l2.8-0.9h1v-3.3h0.5l0.9-1.9
				L444,833z M437.9,827.8c0.6-0.3,1-0.6,1.2-0.7c0.2-0.2-0.1-1-0.7-2.6l-1.9,2.9L437.9,827.8z M438.8,836.8
				c-0.6,0.3-1.3,0.8-1.9,1.4l-0.5,0.5L438.8,836.8z M438.8,833l0.5,1l0.5-1.4h-1V833z M441.2,835.9v-1.4h-1.4L441.2,835.9z
				 M441.2,826.9l2.4-1v-1l-1.4,1L441.2,826.9z M442.6,830.2c0.6,0,1.2-0.2,1.7-0.5c0.5-0.3,0.9-0.5,1.2-0.5l0.5-1L442.6,830.2z
				 M444.5,825h3.8v-2.8H445L444.5,825z M448.3,834l-0.5-1.4h-0.9l-1,1.9l1.9,1L448.3,834z M447.4,828.3l1.4-0.9v-1l-2.4,0.5
				L447.4,828.3z M464,832.6l0.5-1l-3.3-0.5c0,1,0.6,1.6,1.9,1.9L464,832.6z M464.9,824.5H464v2.4h0.9V824.5z M469.2,826.9l-0.5-1.4
				h-0.9v2.4L469.2,826.9z M472,831.6l-2.4-1.9l1.4,0.5c0.6-1.3,1-2.1,1.2-2.4c0.2-0.3,0.2-0.6,0.2-0.9l-2.4,0.5l-1.4,0.9h-0.5v4.3
				L472,831.6z M468.2,829.2l1.4,0.5l-1.4-1.4V829.2z M473.5,836.4h-2.4v1l2.4,0.5V836.4z M473,826.9l1.4,1.4l2.4-0.9l-0.5-2.4h-2.4
				L473,826.9z M473.5,831.6h1l-0.5-1.4H473L473.5,831.6z M476.3,830.2v-1.4l-1-0.5l-0.5,1L476.3,830.2z M482,827.3V825h-2.8
				l-1.4,5.7h3.3L482,827.3z M487.2,831.6l-1.9,0.5c0-0.6,0.2-1,0.5-1c0-0.6-0.1-1.1-0.2-1.4c-0.2-0.3-0.2-0.6-0.2-1v-1l-2.8,2.9
				l2.4,1.9v0.5h-0.5c-0.3,1-0.5,1.7-0.5,2.4c0,0.3-0.2,0.5-0.5,0.5l0.9,1.9c1,0,1.9-0.8,2.8-2.4l-0.9-1l1.4-0.9L487.2,831.6z
				 M483.9,834l-0.5-2.4h-1L483.9,834z M484.4,835.9l1.9-1.4l-1.4-1.4L484.4,835.9z M485.3,833v-1h-0.5v0.5L485.3,833z M494.8,828.3
				l-1.9,0.5v1.4l1.9,0.9l0.5-2.4L494.8,828.3z M507.6,825.9v-1l-1.9-1v1L507.6,825.9z M509.1,825.4h-1l0.5,1.9l1.9-0.5v-1
				L509.1,825.4z M511.4,829.2h-1v2.8h3.8L511.4,829.2z M516.2,822.6v2.4h0.5l-1.4,1.4h-0.9l0.5,4.3l3.3-2.9v-1.9l1.9,1l0.5-2.9
				h-1.9l-0.5-0.9L516.2,822.6z M518.1,824l-1.4,1l1.4,1V824z M519.5,828.8l2.8,3.3l1-1l-1.4-2.4H519.5z M528.5,825v-3.3l-4.3,3.3
				H528.5z M528.1,834.5c0.6-0.3,1-0.8,1.2-1.4c0.2-0.6,0.1-1.1-0.2-1.4l-2.8,0.5v2.8L528.1,834.5z M530.9,830.7
				c1.9,0,3.2-0.5,3.8-1.4l-2.4-2.8L530.9,830.7z M535.2,825h2.8l1-2.4c-1.3,0-2.4-0.5-3.3-1.4L535.2,825z"/>
			<path class="st0" d="M508.9,553c3.1-6.5,5.4-12,6.9-16.6c1.5-4.6,2.6-8.7,3.3-12.3c0.7-3.6,1-7.2,1-10.7s-0.2-7.6-0.5-12
				c-0.3-3.4,0.8-5.6,3.3-6.6c2.6-1,5.7-1.1,9.5-0.3c3.7,0.9,7.7,2.5,11.8,4.9c4.1,2.4,7.5,5.3,10.2,8.7c2.7,3.4,4.4,7.2,5.1,11.2
				c0.7,4.1-0.3,8.2-3.1,12.3c-3.8,5.8-8.8,11.3-15.1,16.6c-6.3,5.3-13.4,9.6-21.2,13c-6.5,2.7-10.5,3.2-12,1.5
				C506.6,561,506.9,557.8,508.9,553z M525.8,530l-1.5-3.6l-3.6,4.1l3.6,1L525.8,530z M526.8,508.5l-3.6-0.5l4.1,4.6v-3.1
				L526.8,508.5z M526.3,524.9l1,2.6l2.6-1l2-2l-2.6-2.6h-0.5l1.5-0.5l2.6-2.6c-2,0-3.9-0.3-5.6-1v-2.6l-3.6,1l2.6,3.1l-3.1-0.5
				l2.6,3.6v1L526.3,524.9z M525.8,522.3l3.1-0.5l-2.6-1L525.8,522.3z M527.8,520.8l-0.5-3.1v1l-0.5,0.5h-0.5L527.8,520.8z
				 M528.8,537.7l2.6-1l-1.5-5.1c-2,0.7-3.1,1.4-3.1,2v2l-0.5,2.6L528.8,537.7z M529.9,514.7c-2,0-3,0.1-2.8,0.3
				c0.2,0.2,1.8,0.6,4.9,1.3L529.9,514.7z M534,503.9l-1-0.5c-0.3-0.3-0.8-0.6-1.3-0.8c-0.5-0.2-1.1,0.1-1.8,0.8l-2,3.1h3.1
				c0,0.7,0.1,1.2,0.3,1.5c0.2,0.3,0.3,0.7,0.3,1l3.6-3.6L534,503.9z M533.4,536.6l3.6,1l0.5-4.1h-4.6L533.4,536.6z M533.4,518.2
				l2.6,2.6v-3.6l-2.6-2.6V518.2z M535.5,512.6l2-3.1l-3.6-1v2.6L535.5,512.6z M537,528.5h-2.6v3.6l2.6-0.5V528.5z M536.5,498.3h-1
				v3.6l4.1,3.1c1-1.7,1-3.1,0-4.1l-2-0.5v-2.6h-1V498.3z M542.6,524.9l-1-3.6l-2.6,2.6l1.5,2.6l1-1L542.6,524.9z M548.3,514.2
				l1,3.1h1l2-3.6h-1l-3.6-2v-1.5l-1.5-0.5l-2.6-2.6l-2,2v3.6l2,1l1.5-0.5l-0.5,1.5v3.6l1-1c0.3-0.3,0.6-0.5,0.8-0.5
				c0.2,0,0.4-0.2,0.8-0.5l0.5-1.5L548.3,514.2z M541.6,530l2-0.5l-1-2h-1V530z M542.6,536.1l0.5,3.1l3.1-4.6h-3.6V536.1z
				 M543.2,504.4l3.1,1l1-2.6c-0.3-1.7-1.2-2.2-2.6-1.5c-0.3,0-0.5,0.1-0.5,0.3c0,0.2-0.2,0.3-0.5,0.3L543.2,504.4z M547.8,513.1
				v-1.5l-1-1l-1.5,2.6H547.8z M548.3,513.7v0.5l3.1-0.5H548.3z"/>
			<path class="st0" d="M587.1,741.1c-2-0.3-4.6-1.1-7.7-2.3c-3.1-1.2-6.1-2.6-9.2-4.1c-3.1-1.5-6-3.3-8.7-5.4
				c-2.7-2-4.6-4.1-5.6-6.1c-1-2.7-1.7-6.1-2-10.2c-0.3-4.1-0.3-8.2,0-12.3c1-9.5,3.4-19.9,7.2-31.2c3.8-11.2,8.4-22.2,13.8-33
				c5.4-10.7,11.6-20.5,18.4-29.4c6.8-8.9,13.8-15.5,21-19.9c6.8-4.4,14.3-7.8,22.5-10.2c8.2-2.4,16-3.6,23.5-3.6
				c9.9,0,18.5,2.2,25.8,6.6c7.3,4.4,11,11.6,11,21.5c-0.3,5.8-1.5,9.8-3.3,12c-1.9,2.2-3.8,3.2-5.9,3.1c-2-0.2-3.9-1.1-5.6-2.8
				c-1.7-1.7-2.6-3.9-2.6-6.6c0-4.4-1.5-8.5-4.6-12.3c-3.1-3.7-7.5-5.6-13.3-5.6c-7.8,0-16.4,4.6-25.6,13.8
				c-4.4,4.8-8.7,10.7-12.8,17.6c-4.1,7-8,14.4-11.8,22.2c-3.8,7.8-7.2,15.8-10.2,23.8c-3.1,8-5.6,15.3-7.7,21.7
				c-1.4,4.1-2.3,7.8-2.8,11.2c-0.5,3.4-0.9,6.5-1.3,9.2c-0.7,9.5,1.3,13.4,5.9,11.5c4.6-1.9,10.6-8.8,18.1-20.7l25-44.5l7.2-12.8
				c5.8-9.5,11.9-15.3,18.4-17.4c6.5-2,13.3-2.7,20.4-2c7.5,2.4,11.4,5.8,11.8,10.2c0.3,4.4-0.3,9-2,13.8
				c-3.1,6.1-5.5,13.4-7.4,21.7c-1.9,8.4-3.5,16.1-4.9,23.3c-1,5.5-1.4,10.4-1,14.8c0.3,4.4,1.3,7.8,2.8,10.2
				c1.5,2.4,3.6,3.6,6.1,3.6s5.5-1.5,8.9-4.6c3.4-3.4,6.8-8.4,10.2-15.1c3.4-6.6,6.6-13.5,9.5-20.7c2.9-7.2,5.4-14.1,7.7-20.7
				c2.2-6.6,3.7-11.8,4.3-15.6c0.3-1.7,1.5-3,3.6-3.8c2-0.8,4.2-1.4,6.4-1.5c2.2-0.2,4.3,0.2,6.4,1c2,0.9,3.1,2,3.1,3.3
				c-7.8,30.3-17.6,54.4-29.1,72.3c-11.6,17.9-25.6,26.7-41.9,26.3c-7.8,0-14.2-1.6-19.2-4.9c-4.9-3.2-8.8-7.3-11.5-12.3
				c-2.7-4.9-4.8-10.6-6.1-16.9c-1.4-6.3-2.4-12.7-3.1-19.2c-1,2.7-3.2,7.2-6.4,13.5c-3.2,6.3-7.2,12.6-11.8,18.9
				c-4.6,6.3-9.8,11.7-15.6,16.1C599.7,741.4,593.6,742.8,587.1,741.1z M573.3,702.3h-2.6c0-0.3,0.1-0.6,0.3-0.8
				c0.2-0.2,0.3-0.6,0.3-1.3l3.1-2l-4.1-3.1l-2-1l-1.5,1l-2.6,0.5c0,0.3-0.5,0.5-1.5,0.5c-0.3,1.4-0.7,2-1,2l-0.5,3.1l2,2l-1,1
				l-3.6,3.1h3.6l2-0.5l1-2l-0.5-1.5l3.1-1l2.6,1v3.1h2.6l1.5-2.6L573.3,702.3z M562.6,712c-2.7,0.7-3.9,2.4-3.6,5.1
				c0.3,0,0.9,0.3,1.5,1h4.6l1.5-7.2h-3.1L562.6,712z M564.1,703.3h0.5l-0.5-1.5l-1,1.5H564.1z M570.7,702.3h-0.5v1
				C570.2,702.9,570.4,702.6,570.7,702.3z M570.7,708.4c0,0.7,0.2,1.4,0.5,2l-1,0.5l2,1l1.5-3.6H570.7z M576.9,691l-3.1,3.1l3.6,0.5
				l3.6-2.6L576.9,691z M578.4,695.6l-2.6,3.1l3.1,0.5l2-0.5l0.5-2.6L578.4,695.6z M579.4,686.4l2,2.6l1-3.1l-0.5-2l-2,1
				L579.4,686.4z M584,717.1c-1,0-1.5,0.7-1.5,2c0,1.4,0.3,2,1,2l2-1c0.3-1,0.6-1.7,0.8-2c0.2-0.3,0.3-0.7,0.3-1H584z M589.7,625.1
				l-4.1,4.6l3.6-0.5L589.7,625.1z M589.7,620.5l1-3.6l-3.1,2.6L589.7,620.5z M593.8,623.5l-3.1,0.5v4.6L593.8,623.5z M596.8,611.8
				h-2.6l-0.5,1h2.6L596.8,611.8z M597.3,628.7c0.3-2,0.5-3.2,0.5-3.6l-2.6-1c-1.7,3.8-1.2,5.3,1.5,4.6H597.3z M599.4,621l-3.6,0.5
				v1L599.4,621z M603.5,613.8c-1.4-0.7-2.4-1-3.1-1l-3.1,3.6l3.1,0.5c1.7,0,2.7-0.2,3.1-0.5V613.8z M605,606.2l2,3.1l3.6-3.1
				l-1-2.6L605,606.2z M610.1,595.4H607l-1,3.1h4.6L610.1,595.4z M623.9,592.9c-3.4,1-4.8,2-4.1,3.1l-0.5,1.5l-1.5-0.5v2.6v1
				c1.7-0.7,2.9-1.4,3.6-2l-0.5-2.6L623.9,592.9z M619.8,595.9c0,0.3,0.2,0.5,0.5,0.5l0.5-0.5H619.8z M628,594.4l-1-1l-2.6,2l0.5-1
				l-3.1,1v1h2l0.5-1l1,1L628,594.4z M625.4,590.3l1.5-0.5v-1l-2,0.5L625.4,590.3z M629,600c0-1,0.3-1.9,1-2.6
				c0.3-0.3,0.5-0.7,0.5-1l-3.1-1c-0.7,2-0.3,3.1,1,3.1L629,600z M631.6,593.9v-1l-2,0.5v1L631.6,593.9z M633.1,586.7h1l-0.5-1.5h-1
				L633.1,586.7z M638.2,591.3l-1-2.6l-3.6,1.5v1c0.3,0,0.6,0.1,0.8,0.3c0.2,0.2,0.4,0.3,0.8,0.3h-0.5c0.7,0.7,1.5,0.7,2.6,0
				L638.2,591.3z M641.8,584.2v3.1l-1,3.1l6.1-5.1L641.8,584.2z M648.4,579.1l-1-1.5h-1c0,0.3-0.3,0.9-1,1.5l2,2L648.4,579.1z
				 M649.5,698.2v-4.6c-2.7,3.1-3.4,4.6-2,4.6H649.5z M652.5,683.9l-4.1,1l3.1,4.1l1-3.1V683.9z M652,702.8l1.5-4.6
				c-3.1,1.4-4.6,2.4-4.6,3.1L652,702.8z M659.7,701.7l-0.5-0.5l2.6-1l0.5-4.1h-3.1c0,0.7-0.1,1.3-0.3,1.8c-0.2,0.5-0.3,1.1-0.3,1.8
				l-2.6,2.6l1,1.5h-2.6l-2.6,0.5c-0.3,0.3-0.8,0.8-1.3,1.3c-0.5,0.5-0.9,1.3-1.3,2.3v-0.5c-0.7,0.7-0.3,1.9,1,3.6h5.6v-1.5l-1-0.5
				l1.5-0.5l0.5-4.6l0.5,0.5c0.7,0.7,0.5,1.4-0.5,2c1,1,2.4,1.2,4.1,0.5c0.7-1.7,0.7-2.9,0-3.6c0-0.7-0.2-1.2-0.5-1.5H659.7z
				 M654.6,676.7c-0.7-0.7-1.7-0.3-3.1,1l0.5,3.1l2-1l2.6,1l0.5-3.6L654.6,676.7z M657.1,582.1l-0.5-1l-2.6,1.5l-1,2h1
				c0.3,0,0.5-0.2,0.5-0.5c0-0.3,0.2-0.7,0.5-1L657.1,582.1z M656.1,693.6l-0.5-2h-1.5c-0.3,0.3-0.5,0.7-0.5,1
				c0,0.3-0.2,0.5-0.5,0.5L656.1,693.6z M655.6,670.6l-1,3.1l6.6,1c-0.7-2.7-1.4-4.1-2-4.1h-1.5v-1L655.6,670.6z M658.2,708.4
				l-1,4.6l1-0.5l-3.6,3.6h4.1v-3.6l0.5-0.5L658.2,708.4z M660.7,683.9l0.5-4.6l-4.1-0.5l2,3.6L660.7,683.9z M657.6,685.9
				c-0.3,2-0.2,3.1,0.5,3.1l3.1-0.5L657.6,685.9z M658.7,712l-0.5,0.5h0.5V712z M663.3,687.9l1,0.5v-2.6h-3.1l1,2H663.3z
				 M663.3,706.3l-1.5,5.1c0.7-0.3,1.4-0.8,2-1.5l0.5-0.5L663.3,706.3z M662.8,670.1h4.1V667l-3.6,0.5L662.8,670.1z M665.3,696.6h1
				l1.5-4.1l-3.1,2.6L665.3,696.6z M664.8,713l1,1.5h1l-0.5-3.1h-1L664.8,713z M666.8,673.1l-1.5,1.5l0.5,3.1l3.1,0.5
				c0-0.3,0.1-0.6,0.3-0.8c0.2-0.2,0.3-0.4,0.3-0.8l1.5-0.5v1.5l-1,2c1.4,0,2.4-0.3,3.1-1l0.5-2.6l2.6,2.6l0.5-4.1l-2.6,0.5
				l-2.6-3.1l-0.5,3.1l-0.5-2.6L666.8,673.1z M666.8,697.1c1.7,1.7,2.6,1.9,2.6,0.5v-2.6l-2,0.5L666.8,697.1z M668.4,701.2l-1.5,3.1
				l0.5,1.5h1l1.5-5.1L668.4,701.2z M670.4,708.4c0,0.3-0.3,0.5-1,0.5c-0.3,0-0.5,0.2-0.5,0.5l3.6,4.6l1-3.6c0-0.3,0.3-0.8,1-1.5
				c0.7-0.7,0.2-1.5-1.5-2.6h-2.6V708.4z M671.4,675.7l-0.5-0.5v1L671.4,675.7z M672.5,675.2l1,1v-0.5l1-0.5H674H672.5z
				 M673.5,698.2l-0.5,3.1l2.6-0.5v-3.1L673.5,698.2z"/>
			<path class="st0" d="M799.7,523.9c-2.4,6.8-5.8,16.6-10.2,29.4c-4.4,12.8-8.9,26.9-13.5,42.4c-4.6,15.5-8.9,31.4-12.8,47.8
				c-3.9,16.4-6.6,31.2-7.9,44.5c-1.4,14.7-0.9,25.1,1.3,31.4c2.2,6.3,5.5,9.1,10,8.4c4.4-0.7,9.5-4.4,15.1-11.2
				c5.6-6.8,11.3-16,17.1-27.6c3.4-6.8,6.7-14.2,10-22.2c3.2-8,6.2-16.6,8.9-25.8c1-3.4,2.6-5.6,4.6-6.6c2-1,4.1-1.3,6.1-0.8
				c2,0.5,3.7,1.7,5.1,3.6c1.4,1.9,1.7,4.2,1,6.9c-3.4,11.9-6.8,22.7-10.2,32.5c-3.4,9.7-7,18.5-10.7,26.3
				c-7.2,15-15.1,25.6-23.8,31.9c-8.7,6.3-19,8.1-30.9,5.4c-11.9-2.7-21.8-8.1-29.6-16.1c-7.8-8-10.9-20.2-9.2-36.5
				c1.4-12.6,3.4-26.3,6.1-41.1c2.7-14.8,5.8-29.7,9.2-44.7c3.4-15,7-29.6,10.7-43.7c3.7-14.1,7.3-26.8,10.7-38.1
				c2.7-8.5,5.2-15.2,7.4-20.2c2.2-4.9,4.6-8.7,7.2-11.2c2.6-2.6,5.3-4.3,8.2-5.1c2.9-0.8,6.4-1.3,10.5-1.3c2.4,0,4.9,0.4,7.7,1.3
				c2.7,0.9,5.1,2.1,7.2,3.8c2,1.7,3.6,3.8,4.6,6.4c1,2.6,1,5.4,0,8.4L799.7,523.9z M732.8,705.8l2.6-2h-0.5c1-0.3,1.5-0.7,1.5-1
				c0,2,0.3,2.7,1,2l2,2v-5.1c-0.3-0.3-1-0.5-2-0.5h-1c0-0.7-0.1-1.3-0.3-1.8c-0.2-0.5-0.3-1.3-0.3-2.3c-1-0.7-1.9-0.7-2.6,0
				l-1.5,0.5c0,0.3-0.3,0.9-1,1.5c-0.3,1.4-1,2.2-2,2.6l1.5,4.1h1.5l-1,2c-1,0-0.7,0.9,1,2.6h2.6l-1-2v-2L732.8,705.8z M731.7,705.3
				v0.5h1L731.7,705.3z M734.8,714c-0.3,0.7-0.8,1.5-1.3,2.6c-0.5,1-0.6,2-0.3,3.1c0.7,0,1.4,0.3,2,1l2.6-1l1-3.6l-1-4.1l-2.6,1
				L734.8,714z M735.8,602.1l-0.5,2l2.6,0.5v-3.1L735.8,602.1z M735.3,684.9l0.5,2h1l0.5-3.6h-1L735.3,684.9z M735.3,691l0.5,2h1
				l1.5-3.1c0-0.7-0.8-1-2.6-1L735.3,691z M736.3,701.2v1.5C736.7,702.4,736.7,701.9,736.3,701.2z M739.4,694.1l-0.5,1.5l0.5,2h1
				l1-1.5v-2H739.4z M738.9,707.9v1l2.6,1l-0.5-2.6L738.9,707.9z M744,593.4l0.5,2h1l0.5-3.1L744,593.4z M744.5,612.3
				c-0.3,1-0.5,1.9-0.5,2.6l0.5,2l2.6-0.5l1-4.6L744.5,612.3z M749.1,582.7l-0.5,2.6h1l1-1.5L749.1,582.7z M751.7,709.4l-0.5,3.1
				h3.1c-0.3-0.7-0.5-1.5-0.5-2.6v-1L751.7,709.4z M754.2,602.1h1l1.5-2h-1L754.2,602.1z M755.3,567.8h1v-0.5c0-0.3,0.2-0.7,0.5-1
				l2.6,1l1.5-4.1h-3.1c0,0.3-0.1,0.6-0.3,0.8c-0.2,0.2-0.3,0.4-0.3,0.8l-1.5-0.5L755.3,567.8z M764.5,584.2c0-1.4-1-2.4-3.1-3.1
				c-0.7,0.3-1.2,0.8-1.5,1.3c-0.3,0.5-0.7,0.9-1,1.3l-2.6-1l-0.5,5.6l3.6-0.5l-0.5,3.1l3.6-3.1l-2.6-1c0.3-0.3,0.5-0.7,0.5-1
				c0.3,0,0.8,0.2,1.5,0.5l2,0.5L764.5,584.2z M758.8,612.8h1l3.6-5.1l-4.1,2.6L758.8,612.8z M759.9,586.7l-0.5,1h0.5V586.7z
				 M765.5,569.4c-1-0.7-2-1-3.1-1l-1.5,3.1l2,1l2.6-0.5V569.4z M761.4,592.9l-0.5,3.1l1,2.6h2.6c0.7-1.4,1-2.2,1-2.6l0.5-3.1H761.4
				z M763.4,551.5c-0.7,1-1.1,1.7-1.3,2c-0.2,0.3,0.3,0.9,1.3,1.5l2.6,1v-2l1,1v-0.5l0.5,2.6c1,0,1.5-0.3,1.5-1c1,0.3,1.7,0.2,2-0.5
				c1-0.3,2-0.3,3.1,0h2l0.5-1v-2V552h-2l-2-2c-0.7-0.7-1.9-0.7-3.6,0l-0.5,0.5l-0.5-1.5h-1c0,0.3-0.3,0.2-1-0.5
				c-0.7,1.4-1,2.7-1,4.1L763.4,551.5z M767,579.1l0.5-3.1l-3.6,4.1l3.1,3.6l1.5-4.1L767,579.1z M765.5,553.5l0.5,0.5v-1l-1-0.5
				C765,553.2,765.1,553.5,765.5,553.5z M771.6,568.3l-2-1c-1,1.4-1.2,2.4-0.5,3.1c-0.7,1.4,0.2,2.6,2.6,3.6l1.5-2l0.5-3.1
				L771.6,568.3z M784.4,528.5l-1.5-0.5l1,2l-1.5,2l4.1,0.5l1-2.6c-0.3,0-0.6-0.1-0.8-0.3c-0.2-0.2-0.4-0.3-0.8-0.3l-0.5-1H784.4z
				 M791,529l-1,3.1l3.1,0.5l3.1-3.1c-1.4,0-2.7,0.3-4.1,1L791,529z"/>
			<path class="st0" d="M873.3,523.9c-2.4,6.8-5.8,16.6-10.2,29.4c-4.4,12.8-8.9,26.9-13.5,42.4c-4.6,15.5-8.9,31.4-12.8,47.8
				c-3.9,16.4-6.6,31.2-7.9,44.5c-1.4,14.7-0.9,25.1,1.3,31.4c2.2,6.3,5.5,9.1,10,8.4c4.4-0.7,9.5-4.4,15.1-11.2
				c5.6-6.8,11.3-16,17.1-27.6c3.4-6.8,6.7-14.2,10-22.2c3.2-8,6.2-16.6,8.9-25.8c1-3.4,2.6-5.6,4.6-6.6c2-1,4.1-1.3,6.1-0.8
				c2,0.5,3.7,1.7,5.1,3.6c1.4,1.9,1.7,4.2,1,6.9c-3.4,11.9-6.8,22.7-10.2,32.5c-3.4,9.7-7,18.5-10.7,26.3
				c-7.2,15-15.1,25.6-23.8,31.9c-8.7,6.3-19,8.1-30.9,5.4c-11.9-2.7-21.8-8.1-29.6-16.1c-7.8-8-10.9-20.2-9.2-36.5
				c1.4-12.6,3.4-26.3,6.1-41.1c2.7-14.8,5.8-29.7,9.2-44.7c3.4-15,7-29.6,10.7-43.7c3.7-14.1,7.3-26.8,10.7-38.1
				c2.7-8.5,5.2-15.2,7.4-20.2c2.2-4.9,4.6-8.7,7.2-11.2c2.6-2.6,5.3-4.3,8.2-5.1c2.9-0.8,6.4-1.3,10.5-1.3c2.4,0,4.9,0.4,7.7,1.3
				c2.7,0.9,5.1,2.1,7.2,3.8c2,1.7,3.6,3.8,4.6,6.4c1,2.6,1,5.4,0,8.4L873.3,523.9z M806.4,705.8l2.6-2h-0.5c1-0.3,1.5-0.7,1.5-1
				c0,2,0.3,2.7,1,2l2,2v-5.1c-0.3-0.3-1-0.5-2-0.5h-1c0-0.7-0.1-1.3-0.3-1.8c-0.2-0.5-0.3-1.3-0.3-2.3c-1-0.7-1.9-0.7-2.6,0
				l-1.5,0.5c0,0.3-0.3,0.9-1,1.5c-0.3,1.4-1,2.2-2,2.6l1.5,4.1h1.5l-1,2c-1,0-0.7,0.9,1,2.6h2.6l-1-2v-2L806.4,705.8z M805.3,705.3
				v0.5h1L805.3,705.3z M808.4,714c-0.3,0.7-0.8,1.5-1.3,2.6c-0.5,1-0.6,2-0.3,3.1c0.7,0,1.4,0.3,2,1l2.6-1l1-3.6l-1-4.1l-2.6,1
				L808.4,714z M809.4,602.1l-0.5,2l2.6,0.5v-3.1L809.4,602.1z M808.9,684.9l0.5,2h1l0.5-3.6h-1L808.9,684.9z M808.9,691l0.5,2h1
				l1.5-3.1c0-0.7-0.8-1-2.6-1L808.9,691z M809.9,701.2v1.5C810.3,702.4,810.3,701.9,809.9,701.2z M813,694.1l-0.5,1.5l0.5,2h1
				l1-1.5v-2H813z M812.5,707.9v1l2.6,1l-0.5-2.6L812.5,707.9z M817.6,593.4l0.5,2h1l0.5-3.1L817.6,593.4z M818.1,612.3
				c-0.3,1-0.5,1.9-0.5,2.6l0.5,2l2.6-0.5l1-4.6L818.1,612.3z M822.7,582.7l-0.5,2.6h1l1-1.5L822.7,582.7z M825.3,709.4l-0.5,3.1
				h3.1c-0.3-0.7-0.5-1.5-0.5-2.6v-1L825.3,709.4z M827.8,602.1h1l1.5-2h-1L827.8,602.1z M828.9,567.8h1v-0.5c0-0.3,0.2-0.7,0.5-1
				l2.6,1l1.5-4.1h-3.1c0,0.3-0.1,0.6-0.3,0.8c-0.2,0.2-0.3,0.4-0.3,0.8l-1.5-0.5L828.9,567.8z M838.1,584.2c0-1.4-1-2.4-3.1-3.1
				c-0.7,0.3-1.2,0.8-1.5,1.3c-0.3,0.5-0.7,0.9-1,1.3l-2.6-1l-0.5,5.6l3.6-0.5l-0.5,3.1l3.6-3.1l-2.6-1c0.3-0.3,0.5-0.7,0.5-1
				c0.3,0,0.8,0.2,1.5,0.5l2,0.5L838.1,584.2z M832.4,612.8h1l3.6-5.1l-4.1,2.6L832.4,612.8z M833.5,586.7l-0.5,1h0.5V586.7z
				 M839.1,569.4c-1-0.7-2-1-3.1-1l-1.5,3.1l2,1l2.6-0.5V569.4z M835,592.9l-0.5,3.1l1,2.6h2.6c0.7-1.4,1-2.2,1-2.6l0.5-3.1H835z
				 M837,551.5c-0.7,1-1.1,1.7-1.3,2c-0.2,0.3,0.3,0.9,1.3,1.5l2.6,1v-2l1,1v-0.5l0.5,2.6c1,0,1.5-0.3,1.5-1c1,0.3,1.7,0.2,2-0.5
				c1-0.3,2-0.3,3.1,0h2l0.5-1v-2V552h-2l-2-2c-0.7-0.7-1.9-0.7-3.6,0l-0.5,0.5l-0.5-1.5h-1c0,0.3-0.3,0.2-1-0.5
				c-0.7,1.4-1,2.7-1,4.1L837,551.5z M840.6,579.1l0.5-3.1l-3.6,4.1l3.1,3.6l1.5-4.1L840.6,579.1z M839.1,553.5l0.5,0.5v-1l-1-0.5
				C838.6,553.2,838.7,553.5,839.1,553.5z M845.2,568.3l-2-1c-1,1.4-1.2,2.4-0.5,3.1c-0.7,1.4,0.2,2.6,2.6,3.6l1.5-2l0.5-3.1
				L845.2,568.3z M858,528.5l-1.5-0.5l1,2l-1.5,2l4.1,0.5l1-2.6c-0.3,0-0.6-0.1-0.8-0.3c-0.2-0.2-0.4-0.3-0.8-0.3l-0.5-1H858z
				 M864.6,529l-1,3.1l3.1,0.5l3.1-3.1c-1.4,0-2.7,0.3-4.1,1L864.6,529z"/>
		</g>
	</g>
	<g>
		<path class="st1" d="M318.4,313c28,40.3,50.8,77.8,50.5,82.7c-1.1,12.6-20.7,33-37.9,23.5c-6-3.2-23.5-29.4-44.2-61.3
			c-6,9.1-11.6,17.5-16.5,24.9c-11.2,17.5-18.6,29.4-19.3,30.1c-2.1,3.2-10.2,12.3-30.1,3.9c-19.6-8.4-28.7-24.2-25.9-30.1
			c0,0,6-14,16.5-34.4c8.4-17.2,19.6-38.9,32.6-60.6c-9.5-14.4-18.6-28.4-25.9-39.3c-11.6-17.5-19.6-29.4-20-30.5
			c-1.8-2.8-7-13.7,3.5-23.5c10.5-9.8,24.5-7.7,28-2.8c0,0,9.5,11.2,23.1,28.7c5.6,7,11.6,15.1,18.2,23.8
			c10.5-15.8,21.4-30.5,30.8-42.8c15.1-18.9,27-31.6,30.8-31.6c15.1-0.7,50.8,20.7,50.8,43.1c0,5.3-9.1,19.6-22.8,37.5
			C348.9,271.3,333.5,292,318.4,313z"/>
		<path class="st1" d="M694.2,377.1c28,40.3,50.8,77.8,50.5,82.7c-1.1,12.6-20.7,33-37.9,23.5c-6-3.2-23.5-29.4-44.2-61.3
			c-6,9.1-11.6,17.5-16.5,24.9c-11.2,17.5-18.6,29.4-19.3,30.1c-2.1,3.2-10.2,12.3-30.1,3.9c-19.6-8.4-28.7-24.2-25.9-30.1
			c0,0,6-14,16.5-34.4c8.4-17.2,19.6-38.9,32.6-60.6c-9.5-14.4-18.6-28.4-25.9-39.3c-11.6-17.5-19.6-29.4-20-30.5
			c-1.8-2.8-7-13.7,3.5-23.5c10.5-9.8,24.5-7.7,28-2.8c0,0,9.5,11.2,23.1,28.7c5.6,7,11.6,15.1,18.2,23.8
			c10.5-15.8,21.4-30.5,30.8-42.8c15.1-18.9,27-31.6,30.8-31.6c15.1-0.7,50.8,20.7,50.8,43.1c0,5.3-9.1,19.6-22.8,37.5
			C724.7,335.4,709.3,356.1,694.2,377.1z"/>
		<path class="st2" d="M520.7,247.7c-23.3,12.7-37.5,54-41.1,65.4c-2.4,7.6-6.3,8.7-10.1,8.8c-2.1,0.1-4.1-0.3-6.1-1
			c-31.6-11.1-103.7-8.3-86.6,27.5c17.3,36.5,70.5,72.8,89.1,85.4c12.6,8,39.5,23.3,53.8-4.8c24.7-42.7,34.5-116,34.7-139.5
			C554.6,265.9,544,235,520.7,247.7z M410.8,330c-2.4,1.5-5.2,3.3-7.4,5.4c-2.3,2.2-3.8,4.5-4.3,7.2c-0.5,2.8,0,6.1,1.1,9.4
			c1,3.3,2.5,6.4,3.6,9.1c2.4,5.4,3.8,9.2,2.4,10.4c-1.3,1.1-5.1-0.6-9.9-5.2c-2.3-2.4-4.9-5.5-7.1-9.7c-2.1-4.1-3.9-9.8-2.8-16.4
			c0.6-3.2,2-6.3,3.8-8.7c1.8-2.4,3.9-4.3,6-5.7c4.2-2.8,8.3-4,11.6-4.6c6.7-1.1,11,0.2,11.1,1.9C419.1,325.1,415.6,327,410.8,330z"
			/>
		<path class="st2" d="M897.8,254.1c-23.3,12.7-37.5,54-41.1,65.4c-2.4,7.6-6.3,8.7-10.1,8.8c-2.1,0.1-4.1-0.3-6.1-1
			c-31.6-11.1-103.7-8.3-86.6,27.5c17.3,36.5,70.5,72.8,89.1,85.4c12.6,8,39.5,23.3,53.8-4.8c24.7-42.7,34.5-116,34.7-139.5
			C931.7,272.3,921.1,241.3,897.8,254.1z M787.9,336.3c-2.4,1.5-5.2,3.3-7.4,5.4c-2.3,2.2-3.8,4.5-4.3,7.2c-0.5,2.8,0,6.1,1.1,9.4
			c1,3.3,2.5,6.4,3.6,9.1c2.4,5.4,3.8,9.2,2.4,10.4c-1.3,1.1-5.1-0.5-9.9-5.2c-2.3-2.4-4.9-5.5-7.1-9.7c-2.1-4.1-3.9-9.8-2.8-16.4
			c0.6-3.2,2-6.3,3.8-8.7c1.8-2.4,3.9-4.3,6-5.7c4.2-2.8,8.3-4,11.6-4.6c6.7-1.1,11,0.2,11.1,1.9
			C796.2,331.4,792.7,333.3,787.9,336.3z"/>
	</g>
	<path d="M420,495c0.7-0.3,1.2-0.5,1.7-0.8c3.2-2.3,6.5-4.3,10-5.8c1.3-0.6,2.5-1.1,3.9-1.5c2.4-0.7,4.6,0,6.6,1.3
		c1.6,1,2,2.6,1.4,4.5c-1.2,3.5-3.1,6.5-5.8,9.1c-0.4,0.3-0.8,0.7-1.1,1c-3.3,3.6-7,6.6-11,9.4c-2.5,1.7-5,3.3-7.6,4.9
		c-0.5,0.3-1,0.6-1.5,0.8c-0.9,0.4-1.8,0.5-2.7,0.2c-2.1-0.5-3.7-1.8-4.8-3.6c-3.4-5.7-6-11.7-8-18c-0.7-2.2-1-4.5-1.2-6.8
		c-0.1-1.8,0.2-3.6,0.6-5.4c0.6-2.4,2.9-4.3,5.3-4.4c0.6,0,1.3,0.1,1.8,0.3c0.9,0.3,1.7,0.7,2.6,1.1c1.7,0.7,3.1,1.8,4.3,3.3
		c1.4,1.8,2.4,3.7,3.3,5.7c0.4,1,0.8,2,1.2,2.9C419.2,493.6,419.5,494.2,420,495z"/>
</g>
</svg>
