  0
SECTION
  2
HEADER
  9
$ACADVER
  1
AC1024
  9
$ACADMAINTVER
 70
     6
  9
$DWGCODEPAGE
  3
ANSI_1252
  9
$INSBASE
 10
0.0
 20
0.0
 30
0.0
  9
$EXTMIN
 10
1.000000000000000E+20
 20
1.000000000000000E+20
 30
1.000000000000000E+20
  9
$EXTMAX
 10
-1.000000000000000E+20
 20
-1.000000000000000E+20
 30
-1.000000000000000E+20
  9
$LIMMIN
 10
0.0
 20
0.0
  9
$LIMMAX
 10
12.0
 20
9.0
  9
$ORTHOMODE
 70
     0
  9
$REGENMODE
 70
     1
  9
$FILLMODE
 70
     1
  9
$QTEXTMODE
 70
     0
  9
$MIRRTEXT
 70
     1
  9
$LTSCALE
 40
1.0
  9
$ATTMODE
 70
     1
  9
$TEXTSIZE
 40
0.2
  9
$TRACEWID
 40
0.05
  9
$TEXTSTYLE
  7
Standard
  9
$CLAYER
  8
0
  9
$CELTYPE
  6
ByLayer
  9
$CECOLOR
 62
   256
  9
$CELTSCALE
 40
1.0
  9
$DISPSILH
 70
     0
  9
$DIMSCALE
 40
1.0
  9
$DIMASZ
 40
0.18
  9
$DIMEXO
 40
0.0625
  9
$DIMDLI
 40
0.38
  9
$DIMRND
 40
0.0
  9
$DIMDLE
 40
0.0
  9
$DIMEXE
 40
0.18
  9
$DIMTP
 40
0.0
  9
$DIMTM
 40
0.0
  9
$DIMTXT
 40
0.18
  9
$DIMCEN
 40
0.09
  9
$DIMTSZ
 40
0.0
  9
$DIMTOL
 70
     0
  9
$DIMLIM
 70
     0
  9
$DIMTIH
 70
     1
  9
$DIMTOH
 70
     1
  9
$DIMSE1
 70
     0
  9
$DIMSE2
 70
     0
  9
$DIMTAD
 70
     0
  9
$DIMZIN
 70
     0
  9
$DIMBLK
  1

  9
$DIMASO
 70
     1
  9
$DIMSHO
 70
     1
  9
$DIMPOST
  1

  9
$DIMAPOST
  1

  9
$DIMALT
 70
     0
  9
$DIMALTD
 70
     2
  9
$DIMALTF
 40
25.4
  9
$DIMLFAC
 40
1.0
  9
$DIMTOFL
 70
     0
  9
$DIMTVP
 40
0.0
  9
$DIMTIX
 70
     0
  9
$DIMSOXD
 70
     0
  9
$DIMSAH
 70
     0
  9
$DIMBLK1
  1

  9
$DIMBLK2
  1

  9
$DIMSTYLE
  2
Standard
  9
$DIMCLRD
 70
     0
  9
$DIMCLRE
 70
     0
  9
$DIMCLRT
 70
     0
  9
$DIMTFAC
 40
1.0
  9
$DIMGAP
 40
0.09
  9
$DIMJUST
 70
     0
  9
$DIMSD1
 70
     0
  9
$DIMSD2
 70
     0
  9
$DIMTOLJ
 70
     1
  9
$DIMTZIN
 70
     0
  9
$DIMALTZ
 70
     0
  9
$DIMALTTZ
 70
     0
  9
$DIMUPT
 70
     0
  9
$DIMDEC
 70
     4
  9
$DIMTDEC
 70
     4
  9
$DIMALTU
 70
     2
  9
$DIMALTTD
 70
     2
  9
$DIMTXSTY
  7
Standard
  9
$DIMAUNIT
 70
     0
  9
$DIMADEC
 70
     0
  9
$DIMALTRND
 40
0.0
  9
$DIMAZIN
 70
     0
  9
$DIMDSEP
 70
    46
  9
$DIMATFIT
 70
     3
  9
$DIMFRAC
 70
     0
  9
$DIMLDRBLK
  1

  9
$DIMLUNIT
 70
     2
  9
$DIMLWD
 70
    -2
  9
$DIMLWE
 70
    -2
  9
$DIMTMOVE
 70
     0
  9
$DIMFXL
 40
1.0
  9
$DIMFXLON
 70
     0
  9
$DIMJOGANG
 40
0.7853981633974483
  9
$DIMTFILL
 70
     0
  9
$DIMTFILLCLR
 70
     0
  9
$DIMARCSYM
 70
     0
  9
$DIMLTYPE
  6

  9
$DIMLTEX1
  6

  9
$DIMLTEX2
  6

  9
$DIMTXTDIRECTION
 70
     0
  9
$LUNITS
 70
     2
  9
$LUPREC
 70
     4
  9
$SKETCHINC
 40
0.1
  9
$FILLETRAD
 40
0.5
  9
$AUNITS
 70
     0
  9
$AUPREC
 70
     0
  9
$MENU
  1
.
  9
$ELEVATION
 40
0.0
  9
$PELEVATION
 40
0.0
  9
$THICKNESS
 40
0.0
  9
$LIMCHECK
 70
     0
  9
$CHAMFERA
 40
0.5
  9
$CHAMFERB
 40
0.5
  9
$CHAMFERC
 40
1.0
  9
$CHAMFERD
 40
0.0
  9
$SKPOLY
 70
     0
  9
$TDCREATE
 40
2459520.662541713
  9
$TDUCREATE
 40
2459520.412541713
  9
$TDUPDATE
 40
2459520.662541759
  9
$TDUUPDATE
 40
2459520.412541759
  9
$TDINDWG
 40
0.0000000116
  9
$TDUSRTIMER
 40
0.0000000116
  9
$USRTIMER
 70
     1
  9
$ANGBASE
 50
0.0
  9
$ANGDIR
 70
     0
  9
$PDMODE
 70
     0
  9
$PDSIZE
 40
0.0
  9
$PLINEWID
 40
0.0
  9
$SPLFRAME
 70
     0
  9
$SPLINETYPE
 70
     6
  9
$SPLINESEGS
 70
     8
  9
$HANDSEED
  5
C5
  9
$SURFTAB1
 70
     6
  9
$SURFTAB2
 70
     6
  9
$SURFTYPE
 70
     6
  9
$SURFU
 70
     6
  9
$SURFV
 70
     6
  9
$UCSBASE
  2

  9
$UCSNAME
  2

  9
$UCSORG
 10
0.0
 20
0.0
 30
0.0
  9
$UCSXDIR
 10
1.0
 20
0.0
 30
0.0
  9
$UCSYDIR
 10
0.0
 20
1.0
 30
0.0
  9
$UCSORTHOREF
  2

  9
$UCSORTHOVIEW
 70
     0
  9
$UCSORGTOP
 10
0.0
 20
0.0
 30
0.0
  9
$UCSORGBOTTOM
 10
0.0
 20
0.0
 30
0.0
  9
$UCSORGLEFT
 10
0.0
 20
0.0
 30
0.0
  9
$UCSORGRIGHT
 10
0.0
 20
0.0
 30
0.0
  9
$UCSORGFRONT
 10
0.0
 20
0.0
 30
0.0
  9
$UCSORGBACK
 10
0.0
 20
0.0
 30
0.0
  9
$PUCSBASE
  2

  9
$PUCSNAME
  2

  9
$PUCSORG
 10
0.0
 20
0.0
 30
0.0
  9
$PUCSXDIR
 10
1.0
 20
0.0
 30
0.0
  9
$PUCSYDIR
 10
0.0
 20
1.0
 30
0.0
  9
$PUCSORTHOREF
  2

  9
$PUCSORTHOVIEW
 70
     0
  9
$PUCSORGTOP
 10
0.0
 20
0.0
 30
0.0
  9
$PUCSORGBOTTOM
 10
0.0
 20
0.0
 30
0.0
  9
$PUCSORGLEFT
 10
0.0
 20
0.0
 30
0.0
  9
$PUCSORGRIGHT
 10
0.0
 20
0.0
 30
0.0
  9
$PUCSORGFRONT
 10
0.0
 20
0.0
 30
0.0
  9
$PUCSORGBACK
 10
0.0
 20
0.0
 30
0.0
  9
$USERI1
 70
     0
  9
$USERI2
 70
     0
  9
$USERI3
 70
     0
  9
$USERI4
 70
     0
  9
$USERI5
 70
     0
  9
$USERR1
 40
0.0
  9
$USERR2
 40
0.0
  9
$USERR3
 40
0.0
  9
$USERR4
 40
0.0
  9
$USERR5
 40
0.0
  9
$WORLDVIEW
 70
     1
  9
$SHADEDGE
 70
     3
  9
$SHADEDIF
 70
    70
  9
$TILEMODE
 70
     1
  9
$MAXACTVP
 70
    64
  9
$PINSBASE
 10
0.0
 20
0.0
 30
0.0
  9
$PLIMCHECK
 70
     0
  9
$PEXTMIN
 10
1.000000000000000E+20
 20
1.000000000000000E+20
 30
1.000000000000000E+20
  9
$PEXTMAX
 10
-1.000000000000000E+20
 20
-1.000000000000000E+20
 30
-1.000000000000000E+20
  9
$PLIMMIN
 10
0.0
 20
0.0
  9
$PLIMMAX
 10
12.0
 20
9.0
  9
$UNITMODE
 70
     0
  9
$VISRETAIN
 70
     1
  9
$PLINEGEN
 70
     0
  9
$PSLTSCALE
 70
     1
  9
$TREEDEPTH
 70
  3020
  9
$CMLSTYLE
  2
Standard
  9
$CMLJUST
 70
     0
  9
$CMLSCALE
 40
1.0
  9
$PROXYGRAPHICS
 70
     1
  9
$MEASUREMENT
 70
     0
  9
$CELWEIGHT
370
    -1
  9
$ENDCAPS
280
     0
  9
$JOINSTYLE
280
     0
  9
$LWDISPLAY
290
     1
  9
$INSUNITS
 70
     1
  9
$HYPERLINKBASE
  1

  9
$STYLESHEET
  1

  9
$XEDIT
290
     1
  9
$CEPSNTYPE
380
     0
  9
$PSTYLEMODE
290
     1
  9
$FINGERPRINTGUID
  2
{6EA0DC97-FD18-4D08-957C-34AA25AE8E62}
  9
$VERSIONGUID
  2
{FAEB1C32-E019-11D5-929B-00C0DF256EC4}
  9
$EXTNAMES
290
     1
  9
$PSVPSCALE
 40
0.0
  9
$OLESTARTUP
290
     0
  9
$SORTENTS
280
   127
  9
$INDEXCTL
280
     0
  9
$HIDETEXT
280
     1
  9
$XCLIPFRAME
280
     2
  9
$HALOGAP
280
     0
  9
$OBSCOLOR
 70
   257
  9
$OBSLTYPE
280
     0
  9
$INTERSECTIONDISPLAY
280
     0
  9
$INTERSECTIONCOLOR
 70
   257
  9
$DIMASSOC
280
     2
  9
$PROJECTNAME
  1

  9
$CAMERADISPLAY
290
     0
  9
$LENSLENGTH
 40
50.0
  9
$CAMERAHEIGHT
 40
0.0
  9
$STEPSPERSEC
 40
2.0
  9
$STEPSIZE
 40
6.0
  9
$3DDWFPREC
 40
2.0
  9
$PSOLWIDTH
 40
0.25
  9
$PSOLHEIGHT
 40
4.0
  9
$LOFTANG1
 40
1.570796326794897
  9
$LOFTANG2
 40
1.570796326794897
  9
$LOFTMAG1
 40
0.0
  9
$LOFTMAG2
 40
0.0
  9
$LOFTPARAM
 70
     7
  9
$LOFTNORMALS
280
     1
  9
$LATITUDE
 40
37.795
  9
$LONGITUDE
 40
-122.394
  9
$NORTHDIRECTION
 40
0.0
  9
$TIMEZONE
 70
 -8000
  9
$LIGHTGLYPHDISPLAY
280
     1
  9
$TILEMODELIGHTSYNCH
280
     1
  9
$CMATERIAL
347
3C
  9
$SOLIDHIST
280
     1
  9
$SHOWHIST
280
     1
  9
$DWFFRAME
280
     2
  9
$DGNFRAME
280
     2
  9
$REALWORLDSCALE
290
     1
  9
$INTERFERECOLOR
 62
   256
  9
$CSHADOW
280
     0
  9
$SHADOWPLANELOCATION
 40
0.0
  0
ENDSEC
  0
SECTION
  2
CLASSES
  0
CLASS
  1
ACDBDICTIONARYWDFLT
  2
AcDbDictionaryWithDefault
  3
ObjectDBX Classes
 90
        0
 91
        4
280
     0
281
     0
  0
CLASS
  1
VISUALSTYLE
  2
AcDbVisualStyle
  3
ObjectDBX Classes
 90
     4095
 91
        4
280
     0
281
     0
  0
CLASS
  1
MATERIAL
  2
AcDbMaterial
  3
ObjectDBX Classes
 90
     1153
 91
        4
280
     0
281
     0
  0
CLASS
  1
SUN
  2
AcDbSun
  3
SCENEOE
 90
     1024
 91
        4
280
     0
281
     0
  0
ENDSEC
  0
SECTION
  2
TABLES
  0
TABLE
  2
VPORT
  5
8
330
0
100
AcDbSymbolTable
 70
     1
  0
VPORT
  5
29
330
8
100
AcDbSymbolTableRecord
100
AcDbViewportTableRecord
  2
*Active
 70
     0
 10
0.0
 20
0.0
 11
1.0
 21
1.0
 12
0.0
 22
0.0
 13
0.0
 23
0.0
 14
0.5
 24
0.5
 15
0.5
 25
0.5
 16
0.0
 26
0.0
 36
1.0
 17
540.0
 27
-540.0
 37
0.0
 40
1080.0
 41
1.0
 42
50.0
 43
0.0
 44
0.0
 50
0.0
 51
0.0
 71
     0
 72
   100
 73
     1
 74
     3
 75
     0
 76
     0
 77
     0
 78
     0
281
     0
 65
     1
110
0.0
120
0.0
130
0.0
111
1.0
121
0.0
131
0.0
112
0.0
122
1.0
132
0.0
 79
     0
146
0.0
 60
     3
 61
     5
292
     1
282
     1
141
0.0
142
0.0
 63
   250
361
3F
  0
ENDTAB
  0
TABLE
  2
LTYPE
  5
5
330
0
100
AcDbSymbolTable
 70
     1
  0
LTYPE
  5
14
330
5
100
AcDbSymbolTableRecord
100
AcDbLinetypeTableRecord
  2
ByBlock
 70
     0
  3

 72
    65
 73
     0
 40
0.0
  0
LTYPE
  5
15
330
5
100
AcDbSymbolTableRecord
100
AcDbLinetypeTableRecord
  2
ByLayer
 70
     0
  3

 72
    65
 73
     0
 40
0.0
  0
LTYPE
  5
16
330
5
100
AcDbSymbolTableRecord
100
AcDbLinetypeTableRecord
  2
Continuous
 70
     0
  3
Solid line
 72
    65
 73
     0
 40
0.0
  0
ENDTAB
  0
TABLE
  2
LAYER
  5
2
330
0
100
AcDbSymbolTable
 70
     2
  0
LAYER
  5
10
330
2
100
AcDbSymbolTableRecord
100
AcDbLayerTableRecord
  2
0
 70
     0
 62
     7
  6
Continuous
370
    -3
390
F
347
3E
  0
LAYER
  5
40
330
2
100
AcDbSymbolTableRecord
100
AcDbLayerTableRecord
  2
Layer 1
 70
     0
 62
     7
  6
Continuous
370
    -3
390
F
347
3E
  0
ENDTAB
  0
TABLE
  2
STYLE
  5
3
330
0
100
AcDbSymbolTable
 70
     1
  0
STYLE
  5
11
330
3
100
AcDbSymbolTableRecord
100
AcDbTextStyleTableRecord
  2
Standard
 70
     0
 40
0.0
 41
1.0
 50
0.0
 71
     0
 42
0.2
  3
txt
  4

  0
ENDTAB
  0
TABLE
  2
VIEW
  5
6
330
0
100
AcDbSymbolTable
 70
     0
  0
ENDTAB
  0
TABLE
  2
UCS
  5
7
330
0
100
AcDbSymbolTable
 70
     0
  0
ENDTAB
  0
TABLE
  2
APPID
  5
9
330
0
100
AcDbSymbolTable
 70
     1
  0
APPID
  5
12
330
9
100
AcDbSymbolTableRecord
100
AcDbRegAppTableRecord
  2
ACAD
 70
     0
  0
ENDTAB
  0
TABLE
  2
DIMSTYLE
  5
A
330
0
100
AcDbSymbolTable
 70
     1
100
AcDbDimStyleTable
  0
DIMSTYLE
105
27
330
A
100
AcDbSymbolTableRecord
100
AcDbDimStyleTableRecord
  2
Standard
 70
     0
178
     0
340
11
  0
ENDTAB
  0
TABLE
  2
BLOCK_RECORD
  5
1
330
0
100
AcDbSymbolTable
 70
    25
  0
BLOCK_RECORD
  5
1F
330
1
100
AcDbSymbolTableRecord
100
AcDbBlockTableRecord
  2
*Model_Space
340
22
 70
     0
280
     1
281
     0
  0
BLOCK_RECORD
  5
1B
330
1
100
AcDbSymbolTableRecord
100
AcDbBlockTableRecord
  2
*Paper_Space
340
1E
 70
     0
280
     1
281
     0
  0
BLOCK_RECORD
  5
23
330
1
100
AcDbSymbolTableRecord
100
AcDbBlockTableRecord
  2
*Paper_Space0
340
26
 70
     0
280
     1
281
     0
  0
BLOCK_RECORD
  5
41
330
1
100
AcDbSymbolTableRecord
100
AcDbBlockTableRecord
  2
block 2
340
0
102
{BLKREFS
331
42
102
}
 70
     0
280
     1
281
     0
  0
BLOCK_RECORD
  5
45
330
1
100
AcDbSymbolTableRecord
100
AcDbBlockTableRecord
  2
block 3
340
0
102
{BLKREFS
331
46
102
}
 70
     0
280
     1
281
     0
  0
BLOCK_RECORD
  5
4F
330
1
100
AcDbSymbolTableRecord
100
AcDbBlockTableRecord
  2
block 4
340
0
102
{BLKREFS
331
50
102
}
 70
     0
280
     1
281
     0
  0
BLOCK_RECORD
  5
53
330
1
100
AcDbSymbolTableRecord
100
AcDbBlockTableRecord
  2
block 5
340
0
102
{BLKREFS
331
54
102
}
 70
     0
280
     1
281
     0
  0
BLOCK_RECORD
  5
5A
330
1
100
AcDbSymbolTableRecord
100
AcDbBlockTableRecord
  2
block 6
340
0
102
{BLKREFS
331
5B
102
}
 70
     0
280
     1
281
     0
  0
BLOCK_RECORD
  5
60
330
1
100
AcDbSymbolTableRecord
100
AcDbBlockTableRecord
  2
block 7
340
0
102
{BLKREFS
331
61
102
}
 70
     0
280
     1
281
     0
  0
BLOCK_RECORD
  5
65
330
1
100
AcDbSymbolTableRecord
100
AcDbBlockTableRecord
  2
block 8
340
0
102
{BLKREFS
331
66
102
}
 70
     0
280
     1
281
     0
  0
BLOCK_RECORD
  5
6A
330
1
100
AcDbSymbolTableRecord
100
AcDbBlockTableRecord
  2
block 9
340
0
102
{BLKREFS
331
6B
102
}
 70
     0
280
     1
281
     0
  0
BLOCK_RECORD
  5
70
330
1
100
AcDbSymbolTableRecord
100
AcDbBlockTableRecord
  2
block 10
340
0
102
{BLKREFS
331
71
102
}
 70
     0
280
     1
281
     0
  0
BLOCK_RECORD
  5
7A
330
1
100
AcDbSymbolTableRecord
100
AcDbBlockTableRecord
  2
block 11
340
0
102
{BLKREFS
331
7B
102
}
 70
     0
280
     1
281
     0
  0
BLOCK_RECORD
  5
7F
330
1
100
AcDbSymbolTableRecord
100
AcDbBlockTableRecord
  2
block 12
340
0
102
{BLKREFS
331
80
102
}
 70
     0
280
     1
281
     0
  0
BLOCK_RECORD
  5
83
330
1
100
AcDbSymbolTableRecord
100
AcDbBlockTableRecord
  2
block 13
340
0
102
{BLKREFS
331
84
102
}
 70
     0
280
     1
281
     0
  0
BLOCK_RECORD
  5
88
330
1
100
AcDbSymbolTableRecord
100
AcDbBlockTableRecord
  2
block 14
340
0
102
{BLKREFS
331
89
102
}
 70
     0
280
     1
281
     0
  0
BLOCK_RECORD
  5
8D
330
1
100
AcDbSymbolTableRecord
100
AcDbBlockTableRecord
  2
block 15
340
0
102
{BLKREFS
331
8E
102
}
 70
     0
280
     1
281
     0
  0
BLOCK_RECORD
  5
92
330
1
100
AcDbSymbolTableRecord
100
AcDbBlockTableRecord
  2
block 16
340
0
102
{BLKREFS
331
93
102
}
 70
     0
280
     1
281
     0
  0
BLOCK_RECORD
  5
97
330
1
100
AcDbSymbolTableRecord
100
AcDbBlockTableRecord
  2
block 17
340
0
102
{BLKREFS
331
98
102
}
 70
     0
280
     1
281
     0
  0
BLOCK_RECORD
  5
9C
330
1
100
AcDbSymbolTableRecord
100
AcDbBlockTableRecord
  2
block 18
340
0
102
{BLKREFS
331
9D
102
}
 70
     0
280
     1
281
     0
  0
BLOCK_RECORD
  5
A0
330
1
100
AcDbSymbolTableRecord
100
AcDbBlockTableRecord
  2
block 19
340
0
102
{BLKREFS
331
A1
102
}
 70
     0
280
     1
281
     0
  0
BLOCK_RECORD
  5
A5
330
1
100
AcDbSymbolTableRecord
100
AcDbBlockTableRecord
  2
block 20
340
0
102
{BLKREFS
331
A6
102
}
 70
     0
280
     1
281
     0
  0
BLOCK_RECORD
  5
AA
330
1
100
AcDbSymbolTableRecord
100
AcDbBlockTableRecord
  2
block 21
340
0
102
{BLKREFS
331
AB
102
}
 70
     0
280
     1
281
     0
  0
BLOCK_RECORD
  5
AF
330
1
100
AcDbSymbolTableRecord
100
AcDbBlockTableRecord
  2
block 22
340
0
102
{BLKREFS
331
B0
102
}
 70
     0
280
     1
281
     0
  0
BLOCK_RECORD
  5
B4
330
1
100
AcDbSymbolTableRecord
100
AcDbBlockTableRecord
  2
block 23
340
0
102
{BLKREFS
331
B5
102
}
 70
     0
280
     1
281
     0
  0
BLOCK_RECORD
  5
B9
330
1
100
AcDbSymbolTableRecord
100
AcDbBlockTableRecord
  2
block 24
340
0
102
{BLKREFS
331
BA
102
}
 70
     0
280
     1
281
     0
  0
BLOCK_RECORD
  5
BE
330
1
100
AcDbSymbolTableRecord
100
AcDbBlockTableRecord
  2
block 25
340
0
102
{BLKREFS
331
BF
102
}
 70
     0
280
     1
281
     0
  0
ENDTAB
  0
ENDSEC
  0
SECTION
  2
BLOCKS
  0
BLOCK
  5
20
330
1F
100
AcDbEntity
  8
0
100
AcDbBlockBegin
  2
*Model_Space
 70
     0
 10
0.0
 20
0.0
 30
0.0
  3
*Model_Space
  1

  0
ENDBLK
  5
21
330
1F
100
AcDbEntity
  8
0
100
AcDbBlockEnd
  0
BLOCK
  5
1C
330
1B
100
AcDbEntity
 67
     1
  8
0
100
AcDbBlockBegin
  2
*Paper_Space
 70
     0
 10
0.0
 20
0.0
 30
0.0
  3
*Paper_Space
  1

  0
ENDBLK
  5
1D
330
1B
100
AcDbEntity
 67
     1
  8
0
100
AcDbBlockEnd
  0
BLOCK
  5
24
330
23
100
AcDbEntity
  8
0
100
AcDbBlockBegin
  2
*Paper_Space0
 70
     0
 10
0.0
 20
0.0
 30
0.0
  3
*Paper_Space0
  1

  0
ENDBLK
  5
25
330
23
100
AcDbEntity
  8
0
100
AcDbBlockEnd
  0
BLOCK
  5
43
330
41
100
AcDbEntity
  8
0
100
AcDbBlockBegin
  2
block 2
 70
     0
 10
0.0
 20
0.0
 30
0.0
  3
block 2
  1

  0
INSERT
  5
46
330
41
100
AcDbEntity
  8
Layer 1
100
AcDbBlockReference
  2
block 3
 10
0.0
 20
0.0
 30
0.0
  0
INSERT
  5
50
330
41
100
AcDbEntity
  8
Layer 1
100
AcDbBlockReference
  2
block 4
 10
0.0
 20
0.0
 30
0.0
  0
INSERT
  5
71
330
41
100
AcDbEntity
  8
Layer 1
100
AcDbBlockReference
  2
block 10
 10
0.0
 20
0.0
 30
0.0
  0
INSERT
  5
7B
330
41
100
AcDbEntity
  8
Layer 1
100
AcDbBlockReference
  2
block 11
 10
0.0
 20
0.0
 30
0.0
  0
INSERT
  5
80
330
41
100
AcDbEntity
  8
Layer 1
100
AcDbBlockReference
  2
block 12
 10
0.0
 20
0.0
 30
0.0
  0
INSERT
  5
9D
330
41
100
AcDbEntity
  8
Layer 1
100
AcDbBlockReference
  2
block 18
 10
0.0
 20
0.0
 30
0.0
  0
INSERT
  5
BA
330
41
100
AcDbEntity
  8
Layer 1
100
AcDbBlockReference
  2
block 24
 10
0.0
 20
0.0
 30
0.0
  0
INSERT
  5
BF
330
41
100
AcDbEntity
  8
Layer 1
100
AcDbBlockReference
  2
block 25
 10
0.0
 20
0.0
 30
0.0
  0
ENDBLK
  5
44
330
41
100
AcDbEntity
  8
0
100
AcDbBlockEnd
  0
BLOCK
  5
47
330
45
100
AcDbEntity
  8
0
100
AcDbBlockBegin
  2
block 3
 70
     0
 10
0.0
 20
0.0
 30
0.0
  3
block 3
  1

  0
SPLINE
  5
49
330
45
100
AcDbEntity
  8
Layer 1
370
     0
100
AcDbSpline
210
0.0
220
0.0
230
1.0
 70
    11
 71
     3
 72
   143
 73
   139
 74
     0
 42
0.0000000001
 43
0.0000000001
 12
1.0
 22
0.0
 32
0.0
 13
1.0
 23
0.0
 33
0.0
 40
0.0
 40
0.0
 40
0.0
 40
0.0
 40
1.0
 40
1.0
 40
1.0
 40
2.0
 40
2.0
 40
2.0
 40
3.0
 40
3.0
 40
3.0
 40
4.0
 40
4.0
 40
4.0
 40
5.0
 40
5.0
 40
5.0
 40
6.0
 40
6.0
 40
6.0
 40
7.0
 40
7.0
 40
7.0
 40
8.0
 40
8.0
 40
8.0
 40
9.0
 40
9.0
 40
9.0
 40
10.0
 40
10.0
 40
10.0
 40
11.0
 40
11.0
 40
11.0
 40
12.0
 40
12.0
 40
12.0
 40
13.0
 40
13.0
 40
13.0
 40
14.0
 40
14.0
 40
14.0
 40
15.0
 40
15.0
 40
15.0
 40
16.0
 40
16.0
 40
16.0
 40
17.0
 40
17.0
 40
17.0
 40
18.0
 40
18.0
 40
18.0
 40
19.0
 40
19.0
 40
19.0
 40
20.0
 40
20.0
 40
20.0
 40
21.0
 40
21.0
 40
21.0
 40
22.0
 40
22.0
 40
22.0
 40
23.0
 40
23.0
 40
23.0
 40
24.0
 40
24.0
 40
24.0
 40
25.0
 40
25.0
 40
25.0
 40
26.0
 40
26.0
 40
26.0
 40
27.0
 40
27.0
 40
27.0
 40
28.0
 40
28.0
 40
28.0
 40
29.0
 40
29.0
 40
29.0
 40
30.0
 40
30.0
 40
30.0
 40
31.0
 40
31.0
 40
31.0
 40
32.0
 40
32.0
 40
32.0
 40
33.0
 40
33.0
 40
33.0
 40
34.0
 40
34.0
 40
34.0
 40
35.0
 40
35.0
 40
35.0
 40
36.0
 40
36.0
 40
36.0
 40
37.0
 40
37.0
 40
37.0
 40
38.0
 40
38.0
 40
38.0
 40
39.0
 40
39.0
 40
39.0
 40
40.0
 40
40.0
 40
40.0
 40
41.0
 40
41.0
 40
41.0
 40
42.0
 40
42.0
 40
42.0
 40
43.0
 40
43.0
 40
43.0
 40
44.0
 40
44.0
 40
44.0
 40
45.0
 40
45.0
 40
45.0
 40
46.0
 40
46.0
 40
46.0
 40
46.0
 10
419.6845877418646
 20
-597.6624758264115
 30
0.0
 10
418.7209937838461
 20
-604.4054029909712
 30
0.0
 10
415.8313271805755
 20
-610.5059341835185
 30
0.0
 10
412.6204625912987
 20
-616.6086959176337
 30
0.0
 10
409.7296807172434
 20
-621.7456331521626
 30
0.0
 10
404.5916282119297
 20
-623.0304250961872
 30
0.0
 10
399.1323777206107
 20
-622.709227110181
 30
0.0
 10
391.4258565980326
 20
-622.3880291241749
 30
0.0
 10
384.360616176682
 20
-619.4994777916891
 30
0.0
 10
378.9013656853622
 20
-614.0391120295844
 30
0.0
 10
372.79971922203
 20
-607.6173828510309
 30
0.0
 10
366.3779900434765
 20
-601.5146211169158
 30
0.0
 10
360.9187395521567
 20
-594.1292979803438
 30
0.0
 10
353.5323011447999
 20
-584.1743909557226
 30
0.0
 10
350.000238569517
 20
-572.9346919870768
 30
0.0
 10
347.7518526674739
 20
-560.7313990604125
 30
0.0
 10
345.1833840502095
 20
-545.3183568152563
 30
0.0
 10
344.8621860642033
 20
-529.581886042527
 30
0.0
 10
346.4681759942341
 20
-513.8476458113646
 30
0.0
 10
347.1094566954616
 20
-508.38728004926
 30
0.0
 10
348.0730506534801
 20
-502.6079468427188
 30
0.0
 10
350.000238569517
 20
-497.1475810806151
 30
0.0
 10
352.5687071867815
 20
-490.7258519020615
 30
0.0
 10
357.385561706089
 20
-486.8725913407725
 30
0.0
 10
364.7720001134458
 20
-486.8725913407725
 30
0.0
 10
369.9100526187594
 20
-486.5525086255511
 30
0.0
 10
375.3693031100793
 20
-485.2677166815265
 30
0.0
 10
380.8285536013991
 20
-486.231310639545
 30
0.0
 10
384.6818141626882
 20
-486.8725913407725
 30
0.0
 10
388.5350747239772
 20
-487.836185298791
 30
0.0
 10
392.3894505560511
 20
-490.084571200834
 30
0.0
 10
395.921513131334
 20
-492.0106438460862
 30
0.0
 10
397.5275030613648
 20
-494.9014257201416
 30
0.0
 10
396.8851070893525
 20
-499.3959669826581
 30
0.0
 10
394.9579191733155
 20
-511.2780619233154
 30
0.0
 10
393.3519292432848
 20
-523.4813548499797
 30
0.0
 10
392.0682525700449
 20
-535.3634497906369
 30
0.0
 10
391.1046586120265
 20
-542.1063769551965
 30
0.0
 10
391.1046586120265
 20
-549.1705021057605
 30
0.0
 10
391.7470545840388
 20
-556.2368577978959
 30
0.0
 10
392.3894505560511
 20
-570.6863060850337
 30
0.0
 10
393.3519292432848
 20
-585.1379849137411
 30
0.0
 10
397.2063050753586
 20
-598.9472677704362
 30
0.0
 10
397.8487010473709
 20
-601.5146211169158
 30
0.0
 10
398.4899817485984
 20
-604.084205004965
 30
0.0
 10
400.4171696646354
 20
-606.3325909070081
 30
0.0
 10
403.6280342539121
 20
-603.4418090329527
 30
0.0
 10
405.234024183942
 20
-599.5896637424485
 30
0.0
 10
406.5188161279666
 20
-595.7352879103746
 30
0.0
 10
411.014472661268
 20
-583.2107969977042
 30
0.0
 10
414.5465352365509
 20
-570.6863060850337
 30
0.0
 10
417.1161191246001
 20
-557.8428477279267
 30
0.0
 10
418.4009110686247
 20
-552.3824819658221
 30
0.0
 10
418.7209937838461
 20
-546.924346745287
 30
0.0
 10
418.4009110686247
 20
-541.4639809831842
 30
0.0
 10
417.7585150966124
 20
-528.2970940985024
 30
0.0
 10
417.7585150966124
 20
-515.1324377553892
 30
0.0
 10
419.3633897558584
 20
-501.9655508707065
 30
0.0
 10
419.6845877418646
 20
-500.0383629546695
 30
0.0
 10
420.0057857278707
 20
-498.4323730246397
 30
0.0
 10
420.648181699883
 20
-496.5074156501714
 30
0.0
 10
421.9329736439076
 20
-492.0106438460862
 30
0.0
 10
424.8226402471782
 20
-488.7997792568094
 30
0.0
 10
429.6394947664858
 20
-487.836185298791
 30
0.0
 10
435.4199432438118
 20
-487.1937893267786
 30
0.0
 10
441.2003917211368
 20
-485.9101126535388
 30
0.0
 10
447.302038184469
 20
-487.1937893267786
 30
0.0
 10
448.9080281144998
 20
-487.5149873127848
 30
0.0
 10
450.5129027737457
 20
-487.836185298791
 30
0.0
 10
451.7976947177704
 20
-488.4785812708033
 30
0.0
 10
455.9721532650656
 20
-490.4057691868402
 30
0.0
 10
458.2205391671087
 20
-493.2954357901108
 30
0.0
 10
458.2205391671087
 20
-498.1111750386335
 30
0.0
 10
457.8993411811025
 20
-506.1411246887865
 30
0.0
 10
458.2205391671087
 20
-514.4900417833769
 30
0.0
 10
458.2205391671087
 20
-522.5177608919612
 30
0.0
 10
457.8993411811025
 20
-546.6031487592809
 30
0.0
 10
461.4314037563854
 20
-569.7227121270153
 30
0.0
 10
468.8178421637422
 20
-592.5233080503131
 30
0.0
 10
469.7814361217606
 20
-596.0564858963808
 30
0.0
 10
471.3863107810066
 20
-599.2684657564423
 30
0.0
 10
472.6711027250312
 20
-602.4782150749343
 30
0.0
 10
472.9923007110374
 20
-603.4418090329527
 30
0.0
 10
472.9923007110374
 20
-604.4054029909712
 30
0.0
 10
474.277092655062
 20
-605.0477989629835
 30
0.0
 10
476.5243632863203
 20
-604.084205004965
 30
0.0
 10
477.8091552303449
 20
-602.1570170889281
 30
0.0
 10
479.0939471743695
 20
-600.2298291728912
 30
0.0
 10
481.3412178056278
 20
-596.3776838823869
 30
0.0
 10
482.9472077356586
 20
-592.5233080503131
 30
0.0
 10
484.2319996796832
 20
-588.3499647738026
 30
0.0
 10
489.3700521849969
 20
-572.9346919870768
 30
0.0
 10
492.2597187882675
 20
-556.5580557839021
 30
0.0
 10
495.1505006623229
 20
-540.5003870251658
 30
0.0
 10
495.7917813635504
 20
-538.2520011231236
 30
0.0
 10
495.1505006623229
 20
-536.6482417346615
 30
0.0
 10
493.223312746286
 20
-535.684647776643
 30
0.0
 10
492.5809167742736
 20
-535.3634497906369
 30
0.0
 10
491.9385208022613
 20
-534.7210538186246
 30
0.0
 10
491.6173228162552
 20
-534.3998558326193
 30
0.0
 10
480.057541132388
 20
-527.0145326960474
 30
0.0
 10
476.2031653003141
 20
-516.0960317134077
 30
0.0
 10
477.1667592583326
 20
-502.9291448287249
 30
0.0
 10
477.4879572443388
 20
-497.7899770526274
 30
0.0
 10
479.7363431463818
 20
-493.2954357901108
 30
0.0
 10
482.6260097496524
 20
-489.4421752288217
 30
0.0
 10
484.5531976656894
 20
-486.5525086255511
 30
0.0
 10
487.7640622549661
 20
-485.2677166815265
 30
0.0
 10
490.9749268442429
 20
-485.2677166815265
 30
0.0
 10
495.7917813635504
 20
-485.2677166815265
 30
0.0
 10
500.6097511536427
 20
-486.8725913407725
 30
0.0
 10
504.4630117149309
 20
-489.7633732148279
 30
0.0
 10
507.9950742902138
 20
-492.0106438460862
 30
0.0
 10
508.9586682482322
 20
-495.5438216921539
 30
0.0
 10
509.2798662342384
 20
-499.3959669826581
 30
0.0
 10
510.2434601922569
 20
-511.2780619233154
 30
0.0
 10
509.9222622062507
 20
-523.1601568639735
 30
0.0
 10
508.9586682482322
 20
-535.0422518046307
 30
0.0
 10
507.6738763042076
 20
-548.2091386893117
 30
0.0
 10
505.7466883881707
 20
-561.3737950324248
 30
0.0
 10
502.8570217849001
 20
-574.2194839311014
 30
0.0
 10
499.9673551816304
 20
-586.4227768577657
 30
0.0
 10
497.076573307575
 20
-598.62606978443
 30
0.0
 10
491.296124830249
 20
-610.1847361975124
 30
0.0
 10
485.515676352923
 20
-621.4244351661564
 30
0.0
 10
471.0651127950005
 20
-626.884800928261
 30
0.0
 10
459.5053311111333
 20
-622.0668311381687
 30
0.0
 10
452.4400906897827
 20
-618.8570818196768
 30
0.0
 10
446.0172462404444
 20
-614.3603100155906
 30
0.0
 10
441.2003917211368
 20
-608.2597788230432
 30
0.0
 10
434.1351512997871
 20
-599.908631186885
 30
0.0
 10
428.0346201072398
 20
-590.5961201342761
 30
0.0
 10
425.7862342051967
 20
-579.3564211656303
 30
0.0
 10
425.4650362191906
 20
-579.0374537211937
 30
0.0
 10
425.1438382331844
 20
-578.7162557351876
 30
0.0
 10
424.5014422611721
 20
-577.431463791163
 30
0.0
 10
421.9329736439076
 20
-584.4955889417288
 30
0.0
 10
420.3269837138769
 20
-590.9173181202823
 30
0.0
 10
419.6845877418646
 20
-597.6624758264115
 30
0.0
  0
SPLINE
  5
4A
330
45
100
AcDbEntity
  8
Layer 1
370
     0
100
AcDbSpline
210
0.0
220
0.0
230
1.0
 70
    11
 71
     3
 72
    20
 73
    16
 74
     0
 42
0.0000000001
 43
0.0000000001
 12
1.0
 22
0.0
 32
0.0
 13
1.0
 23
0.0
 33
0.0
 40
0.0
 40
0.0
 40
0.0
 40
0.0
 40
1.0
 40
1.0
 40
1.0
 40
2.0
 40
2.0
 40
2.0
 40
3.0
 40
3.0
 40
3.0
 40
4.0
 40
4.0
 40
4.0
 40
5.0
 40
5.0
 40
5.0
 40
5.0
 10
495.1505006623229
 20
-499.3959669826581
 30
0.0
 10
494.5081046903106
 20
-497.7899770526274
 30
0.0
 10
494.1869067043044
 20
-494.9014257201416
 30
0.0
 10
491.9385208022613
 20
-494.9014257201416
 30
0.0
 10
489.691250171003
 20
-494.9014257201416
 30
0.0
 10
489.0488541989907
 20
-497.4687790666212
 30
0.0
 10
488.0852602409723
 20
-499.3959669826581
 30
0.0
 10
484.5531976656894
 20
-508.0660820632538
 30
0.0
 10
487.1216662829538
 20
-522.8389588779673
 30
0.0
 10
493.8657087182983
 20
-529.581886042527
 30
0.0
 10
494.1869067043044
 20
-530.2242820145393
 30
0.0
 10
494.8293026763167
 20
-530.8666779865516
 30
0.0
 10
496.4341773355627
 20
-530.8666779865516
 30
0.0
 10
498.3613652515996
 20
-520.2693749899181
 30
0.0
 10
498.6825632376058
 20
-509.6720719932846
 30
0.0
 10
495.1505006623229
 20
-499.3959669826581
 30
0.0
  0
SPLINE
  5
4B
330
45
100
AcDbEntity
  8
Layer 1
370
     0
100
AcDbSpline
210
0.0
220
0.0
230
1.0
 70
    11
 71
     3
 72
    68
 73
    64
 74
     0
 42
0.0000000001
 43
0.0000000001
 12
1.0
 22
0.0
 32
0.0
 13
1.0
 23
0.0
 33
0.0
 40
0.0
 40
0.0
 40
0.0
 40
0.0
 40
1.0
 40
1.0
 40
1.0
 40
2.0
 40
2.0
 40
2.0
 40
3.0
 40
3.0
 40
3.0
 40
4.0
 40
4.0
 40
4.0
 40
5.0
 40
5.0
 40
5.0
 40
6.0
 40
6.0
 40
6.0
 40
7.0
 40
7.0
 40
7.0
 40
8.0
 40
8.0
 40
8.0
 40
9.0
 40
9.0
 40
9.0
 40
10.0
 40
10.0
 40
10.0
 40
11.0
 40
11.0
 40
11.0
 40
12.0
 40
12.0
 40
12.0
 40
13.0
 40
13.0
 40
13.0
 40
14.0
 40
14.0
 40
14.0
 40
15.0
 40
15.0
 40
15.0
 40
16.0
 40
16.0
 40
16.0
 40
17.0
 40
17.0
 40
17.0
 40
18.0
 40
18.0
 40
18.0
 40
19.0
 40
19.0
 40
19.0
 40
20.0
 40
20.0
 40
20.0
 40
21.0
 40
21.0
 40
21.0
 40
21.0
 10
611.0739765701383
 20
-544.675960843244
 30
0.0
 10
610.431580598126
 20
-550.4552940497852
 30
0.0
 10
609.4679866401075
 20
-555.9156598118898
 30
0.0
 10
608.1831946960829
 20
-561.694993018431
 30
0.0
 10
604.3310494055786
 20
-578.7162557351876
 30
0.0
 10
598.870683643474
 20
-595.4140899243685
 30
0.0
 10
589.5581725908651
 20
-610.8271321695229
 30
0.0
 10
585.0636313283485
 20
-618.2146858476644
 30
0.0
 10
579.6032655662439
 20
-623.0304250961872
 30
0.0
 10
569.9695565276288
 20
-622.709227110181
 30
0.0
 10
550.7021384503987
 20
-622.0668311381687
 30
0.0
 10
538.4999607945201
 20
-609.5445707670679
 30
0.0
 10
534.0043042612187
 20
-597.6624758264115
 30
0.0
 10
529.8287304431387
 20
-587.3863708157842
 30
0.0
 10
527.9026577978866
 20
-576.4678698331445
 30
0.0
 10
526.2966678678558
 20
-565.5493688505048
 30
0.0
 10
524.0482819658127
 20
-547.8879407033055
 30
0.0
 10
523.0858032785791
 20
-529.9030840285332
 30
0.0
 10
522.7646052925729
 20
-511.9204578953277
 30
0.0
 10
522.7646052925729
 20
-505.4987287167742
 30
0.0
 10
523.7281992505914
 20
-499.3959669826581
 30
0.0
 10
524.3694799518189
 20
-493.2954357901108
 30
0.0
 10
525.0118759238312
 20
-487.836185298791
 30
0.0
 10
528.2238557838928
 20
-485.2677166815265
 30
0.0
 10
534.9667829484524
 20
-484.6253207095142
 30
0.0
 10
544.6004919870666
 20
-483.6617267514957
 30
0.0
 10
553.5929203244541
 20
-485.5889146675327
 30
0.0
 10
561.9418374190445
 20
-490.7258519020615
 30
0.0
 10
563.5478273490753
 20
-491.68944586008
 30
0.0
 10
564.8326192930999
 20
-492.6530398180985
 30
0.0
 10
566.4363786815611
 20
-493.9378317621231
 30
0.0
 10
569.0059625696103
 20
-496.1862176641662
 30
0.0
 10
570.290754513635
 20
-499.074768996652
 30
0.0
 10
569.3271605556165
 20
-502.9291448287249
 30
0.0
 10
567.7211706255857
 20
-509.9932699792907
 30
0.0
 10
568.363566597598
 20
-517.3808236574323
 30
0.0
 10
567.0787746535734
 20
-524.7661467940043
 30
0.0
 10
566.115180695555
 20
-534.0786578466132
 30
0.0
 10
565.4727847235426
 20
-543.0699709132132
 30
0.0
 10
564.5114213070938
 20
-552.3824819658221
 30
0.0
 10
562.5842333910568
 20
-567.4765567665418
 30
0.0
 10
563.8690253350815
 20
-582.5684010256919
 30
0.0
 10
565.7939827095488
 20
-597.6624758264115
 30
0.0
 10
566.4363786815611
 20
-602.4782150749343
 30
0.0
 10
567.7211706255857
 20
-607.2961848650248
 30
0.0
 10
570.290754513635
 20
-612.4331220995537
 30
0.0
 10
575.1087243037273
 20
-608.5809768090494
 30
0.0
 10
579.6032655662439
 20
-604.4054029909712
 30
0.0
 10
582.1728494542931
 20
-599.2684657564423
 30
0.0
 10
589.5581725908651
 20
-584.1743909557226
 30
0.0
 10
596.6222977414309
 20
-568.7613487105664
 30
0.0
 10
599.1918816294801
 20
-551.7400859938098
 30
0.0
 10
599.8342776014924
 20
-547.2455447312932
 30
0.0
 10
600.4766735735047
 20
-542.4275749412009
 30
0.0
 10
601.119069545517
 20
-537.9330336786861
 30
0.0
 10
601.4402675315232
 20
-536.3270437486553
 30
0.0
 10
601.4402675315232
 20
-534.0786578466132
 30
0.0
 10
603.6886534335663
 20
-533.757459860607
 30
0.0
 10
605.6158413496032
 20
-533.757459860607
 30
0.0
 10
607.8619967100767
 20
-534.0786578466132
 30
0.0
 10
609.4679866401075
 20
-536.0058457626492
 30
0.0
 10
611.0739765701383
 20
-538.894397095135
 30
0.0
 10
611.7163725421506
 20
-541.7851789691904
 30
0.0
 10
611.0739765701383
 20
-544.675960843244
 30
0.0
  0
SPLINE
  5
4C
330
45
100
AcDbEntity
  8
Layer 1
370
     0
100
AcDbSpline
210
0.0
220
0.0
230
1.0
 70
    11
 71
     3
 72
    23
 73
    19
 74
     0
 42
0.0000000001
 43
0.0000000001
 12
1.0
 22
0.0
 32
0.0
 13
1.0
 23
0.0
 33
0.0
 40
0.0
 40
0.0
 40
0.0
 40
0.0
 40
1.0
 40
1.0
 40
1.0
 40
2.0
 40
2.0
 40
2.0
 40
3.0
 40
3.0
 40
3.0
 40
4.0
 40
4.0
 40
4.0
 40
5.0
 40
5.0
 40
5.0
 40
6.0
 40
6.0
 40
6.0
 40
6.0
 10
531.7559183591757
 20
-452.5122137336075
 30
0.0
 10
531.7559183591757
 20
-447.3741612282938
 30
0.0
 10
532.7195123171941
 20
-443.8420986530109
 30
0.0
 10
534.6455849624463
 20
-440.6312340637342
 30
0.0
 10
535.9303769064709
 20
-438.7040461476972
 30
0.0
 10
537.2151688504955
 20
-437.0980562176665
 30
0.0
 10
539.4635547525386
 20
-436.4556602456541
 30
0.0
 10
545.564085945085
 20
-435.4920662876366
 30
0.0
 10
551.9869303944233
 20
-433.8871916283906
 30
0.0
 10
558.4086595729768
 20
-436.1344622596489
 30
0.0
 10
569.9695565276288
 20
-439.9888380917218
 30
0.0
 10
574.1451303457088
 20
-450.2649431023492
 30
0.0
 10
568.0423686115919
 20
-461.1834440849889
 30
0.0
 10
562.5842333910568
 20
-470.8171531236039
 30
0.0
 10
553.271722338448
 20
-474.0280177128807
 30
0.0
 10
543.3168153138267
 20
-469.5323611795793
 30
0.0
 10
535.6091789204647
 20
-466.0002986042964
 30
0.0
 10
532.398314331188
 20
-459.2562561689519
 30
0.0
 10
531.7559183591757
 20
-452.5122137336075
 30
0.0
  0
SPLINE
  5
4D
330
45
100
AcDbEntity
  8
Layer 1
370
     0
100
AcDbSpline
210
0.0
220
0.0
230
1.0
 70
    11
 71
     3
 72
   116
 73
   112
 74
     0
 42
0.0000000001
 43
0.0000000001
 12
1.0
 22
0.0
 32
0.0
 13
1.0
 23
0.0
 33
0.0
 40
0.0
 40
0.0
 40
0.0
 40
0.0
 40
1.0
 40
1.0
 40
1.0
 40
2.0
 40
2.0
 40
2.0
 40
3.0
 40
3.0
 40
3.0
 40
4.0
 40
4.0
 40
4.0
 40
5.0
 40
5.0
 40
5.0
 40
6.0
 40
6.0
 40
6.0
 40
7.0
 40
7.0
 40
7.0
 40
8.0
 40
8.0
 40
8.0
 40
9.0
 40
9.0
 40
9.0
 40
10.0
 40
10.0
 40
10.0
 40
11.0
 40
11.0
 40
11.0
 40
12.0
 40
12.0
 40
12.0
 40
13.0
 40
13.0
 40
13.0
 40
14.0
 40
14.0
 40
14.0
 40
15.0
 40
15.0
 40
15.0
 40
16.0
 40
16.0
 40
16.0
 40
17.0
 40
17.0
 40
17.0
 40
18.0
 40
18.0
 40
18.0
 40
19.0
 40
19.0
 40
19.0
 40
20.0
 40
20.0
 40
20.0
 40
21.0
 40
21.0
 40
21.0
 40
22.0
 40
22.0
 40
22.0
 40
23.0
 40
23.0
 40
23.0
 40
24.0
 40
24.0
 40
24.0
 40
25.0
 40
25.0
 40
25.0
 40
26.0
 40
26.0
 40
26.0
 40
27.0
 40
27.0
 40
27.0
 40
28.0
 40
28.0
 40
28.0
 40
29.0
 40
29.0
 40
29.0
 40
30.0
 40
30.0
 40
30.0
 40
31.0
 40
31.0
 40
31.0
 40
32.0
 40
32.0
 40
32.0
 40
33.0
 40
33.0
 40
33.0
 40
34.0
 40
34.0
 40
34.0
 40
35.0
 40
35.0
 40
35.0
 40
36.0
 40
36.0
 40
36.0
 40
37.0
 40
37.0
 40
37.0
 40
37.0
 10
630.2410202767405
 20
-590.9173181202823
 30
0.0
 10
630.7384310467369
 20
-595.6460662475947
 30
0.0
 10
631.4856624725144
 20
-600.3770449164767
 30
0.0
 10
632.2328938982919
 20
-604.8582029295758
 30
0.0
 10
632.4804840125053
 20
-607.0976666653405
 30
0.0
 10
633.4775360940657
 20
-609.0895402868937
 30
0.0
 10
634.969768404053
 20
-610.8315932526621
 30
0.0
 10
636.7140519113927
 20
-612.5758767600018
 30
0.0
 10
637.4612833371702
 20
-612.5758767600018
 30
0.0
 10
639.2033363029404
 20
-610.8315932526621
 30
0.0
 10
641.6926206944881
 20
-608.0947187469028
 30
0.0
 10
643.9320844302529
 20
-605.1057930437892
 30
0.0
 10
645.4265472818079
 20
-601.6216871122506
 30
0.0
 10
651.6497582606771
 20
-587.9283924171687
 30
0.0
 10
656.8781476995555
 20
-573.7399174936618
 30
0.0
 10
658.1227898953293
 20
-558.552159947023
 30
0.0
 10
658.1227898953293
 20
-557.3075177512492
 30
0.0
 10
658.3726105511123
 20
-556.0628755554753
 30
0.0
 10
658.6202006653257
 20
-554.8182333597015
 30
0.0
 10
658.8700213211087
 20
-553.0761803939331
 30
0.0
 10
659.8648428610995
 20
-552.3289489681538
 30
0.0
 10
661.6091263684375
 20
-552.0813588539422
 30
0.0
 10
663.3511793342077
 20
-551.8315381981593
 30
0.0
 10
664.5958215299815
 20
-551.8315381981593
 30
0.0
 10
665.343052955759
 20
-553.8234118197106
 30
0.0
 10
666.3378744957499
 20
-555.815285441262
 30
0.0
 10
666.5876951515329
 20
-557.5573384070321
 30
0.0
 10
666.3378744957499
 20
-559.5492120285835
 30
0.0
 10
666.0902843815384
 20
-564.2779601558977
 30
0.0
 10
664.8456421857627
 20
-568.7591181689968
 30
0.0
 10
663.6009999899907
 20
-573.2402761820958
 30
0.0
 10
660.3644841726637
 20
-586.1863394514003
 30
0.0
 10
655.3836848479987
 20
-598.3851712949254
 30
0.0
 10
649.4102945249124
 20
-610.3341824826675
 30
0.0
 10
646.9210101333647
 20
-615.0651611515495
 30
0.0
 10
643.4346736602565
 20
-618.5492670830881
 30
0.0
 10
639.2033363029404
 20
-621.5381927861999
 30
0.0
 10
637.4612833371702
 20
-622.7828349819756
 30
0.0
 10
635.4694097156189
 20
-623.2802457519701
 30
0.0
 10
633.4775360940657
 20
-623.2802457519701
 30
0.0
 10
622.0259356763199
 20
-622.2831936704097
 30
0.0
 10
612.3163882243425
 20
-618.3016769688747
 30
0.0
 10
606.5905880154678
 20
-607.3474873211235
 30
0.0
 10
602.1094300023688
 20
-598.6349919507065
 30
0.0
 10
600.3673770366004
 20
-589.4228552687255
 30
0.0
 10
599.1227348408247
 20
-579.963128472531
 30
0.0
 10
596.8810405634904
 20
-563.283138615905
 30
0.0
 10
597.3784513334867
 20
-546.6031487592809
 30
0.0
 10
598.6253240708302
 20
-529.9231589026585
 30
0.0
 10
599.1227348408247
 20
-524.1973586937847
 30
0.0
 10
599.620145610821
 20
-518.7213791406939
 30
0.0
 10
599.869966266604
 20
-512.995578931821
 30
0.0
 10
600.1175563808174
 20
-509.2616523444995
 30
0.0
 10
599.869966266604
 20
-509.2616523444995
 30
0.0
 10
596.3836297934959
 20
-509.2616523444995
 30
0.0
 10
594.1441660577311
 20
-509.2616523444995
 30
0.0
 10
591.6526511246138
 20
-509.2616523444995
 30
0.0
 10
589.4131873888473
 20
-509.0118316887165
 30
0.0
 10
587.171493111513
 20
-509.0118316887165
 30
0.0
 10
585.4294401457446
 20
-507.7671894929426
 30
0.0
 10
584.4346186057537
 20
-505.7753158713913
 30
0.0
 10
583.6873871799744
 20
-504.0332629056211
 30
0.0
 10
583.9372078357574
 20
-503.0384413656302
 30
0.0
 10
585.9268509157391
 20
-503.0384413656302
 30
0.0
 10
589.1633667330661
 20
-503.0384413656302
 30
0.0
 10
592.3998825503913
 20
-503.0384413656302
 30
0.0
 10
595.6363983677165
 20
-503.0384413656302
 30
0.0
 10
601.3621985765913
 20
-503.0384413656302
 30
0.0
 10
601.1146084623779
 20
-503.2860314798436
 30
0.0
 10
601.8596093465858
 20
-498.0576420409652
 30
0.0
 10
602.3592506581517
 20
-494.3237154536437
 30
0.0
 10
603.3540721981426
 20
-490.5909041371069
 30
0.0
 10
604.1013036239201
 20
-487.1056829347835
 30
0.0
 10
604.5987143939165
 20
-485.3625146982295
 30
0.0
 10
605.345945819694
 20
-484.6152832724511
 30
0.0
 10
606.8404086712508
 20
-483.8691671174574
 30
0.0
 10
614.8056726158902
 20
-479.6367144893557
 30
0.0
 10
622.2735257905333
 20
-481.1300620701277
 30
0.0
 10
629.493788850963
 20
-484.865103928234
 30
0.0
 10
632.4804840125053
 20
-486.6071568940033
 30
0.0
 10
634.224767519845
 20
-489.096441285551
 30
0.0
 10
633.9749468640621
 20
-492.8314831436564
 30
0.0
 10
633.7251262082791
 20
-495.0709468794221
 30
0.0
 10
633.4775360940657
 20
-497.5602312709698
 30
0.0
 10
633.2277154382828
 20
-499.8019255483041
 30
0.0
 10
632.9801253240712
 20
-502.5388000540652
 30
0.0
 10
632.9801253240712
 20
-502.5388000540652
 30
0.0
 10
635.4694097156189
 20
-502.5388000540652
 30
0.0
 10
642.1900314644827
 20
-502.2912099398518
 30
0.0
 10
648.9128837549179
 20
-502.0413892840697
 30
0.0
 10
655.8833261595646
 20
-501.5439785140734
 30
0.0
 10
659.6172527468862
 20
-501.2941578582913
 30
0.0
 10
661.6091263684375
 20
-502.0413892840697
 30
0.0
 10
662.8537685642114
 20
-504.5306736756174
 30
0.0
 10
663.8485901042022
 20
-506.2727266413858
 30
0.0
 10
663.3511793342077
 20
-507.5173688371597
 30
0.0
 10
661.1094850568734
 20
-507.5173688371597
 30
0.0
 10
659.6172527468862
 20
-507.7671894929426
 30
0.0
 10
657.875199781116
 20
-507.5173688371597
 30
0.0
 10
656.130916273778
 20
-507.5173688371597
 30
0.0
 10
649.4102945249124
 20
-507.7671894929426
 30
0.0
 10
642.4398521202656
 20
-507.7671894929426
 30
0.0
 10
635.4694097156189
 20
-508.0170101487256
 30
0.0
 10
632.4804840125053
 20
-508.0170101487256
 30
0.0
 10
632.4804840125053
 20
-508.2646002629381
 30
0.0
 10
632.2328938982919
 20
-511.0037053102687
 30
0.0
 10
630.4908409325235
 20
-527.1862843968975
 30
0.0
 10
628.2491466551892
 20
-543.1190428277423
 30
0.0
 10
629.2439681951801
 20
-554.8182333597015
 30
0.0
 10
629.7436095067442
 20
-570.0037603647706
 30
0.0
 10
629.2439681951801
 20
-580.4605392425256
 30
0.0
 10
630.2410202767405
 20
-590.9173181202823
 30
0.0
  0
SPLINE
  5
4E
330
45
100
AcDbEntity
  8
Layer 1
370
     0
100
AcDbSpline
210
0.0
220
0.0
230
1.0
 70
    11
 71
     3
 72
   101
 73
    97
 74
     0
 42
0.0000000001
 43
0.0000000001
 12
1.0
 22
0.0
 32
0.0
 13
1.0
 23
0.0
 33
0.0
 40
0.0
 40
0.0
 40
0.0
 40
0.0
 40
1.0
 40
1.0
 40
1.0
 40
2.0
 40
2.0
 40
2.0
 40
3.0
 40
3.0
 40
3.0
 40
4.0
 40
4.0
 40
4.0
 40
5.0
 40
5.0
 40
5.0
 40
6.0
 40
6.0
 40
6.0
 40
7.0
 40
7.0
 40
7.0
 40
8.0
 40
8.0
 40
8.0
 40
9.0
 40
9.0
 40
9.0
 40
10.0
 40
10.0
 40
10.0
 40
11.0
 40
11.0
 40
11.0
 40
12.0
 40
12.0
 40
12.0
 40
13.0
 40
13.0
 40
13.0
 40
14.0
 40
14.0
 40
14.0
 40
15.0
 40
15.0
 40
15.0
 40
16.0
 40
16.0
 40
16.0
 40
17.0
 40
17.0
 40
17.0
 40
18.0
 40
18.0
 40
18.0
 40
19.0
 40
19.0
 40
19.0
 40
20.0
 40
20.0
 40
20.0
 40
21.0
 40
21.0
 40
21.0
 40
22.0
 40
22.0
 40
22.0
 40
23.0
 40
23.0
 40
23.0
 40
24.0
 40
24.0
 40
24.0
 40
25.0
 40
25.0
 40
25.0
 40
26.0
 40
26.0
 40
26.0
 40
27.0
 40
27.0
 40
27.0
 40
28.0
 40
28.0
 40
28.0
 40
29.0
 40
29.0
 40
29.0
 40
30.0
 40
30.0
 40
30.0
 40
31.0
 40
31.0
 40
31.0
 40
32.0
 40
32.0
 40
32.0
 40
32.0
 10
685.7591999412743
 20
-576.726612655204
 30
0.0
 10
687.7510735628275
 20
-564.7776014674619
 30
0.0
 10
691.4850001501491
 20
-553.3260010497143
 30
0.0
 10
694.7215159674743
 20
-541.8744006319703
 30
0.0
 10
696.960979703239
 20
-534.4043169157576
 30
0.0
 10
700.4473161763472
 20
-527.6836951668938
 30
0.0
 10
704.928474189448
 20
-521.708074302237
 30
0.0
 10
707.6675792367769
 20
-517.9741477149155
 30
0.0
 10
710.9018645125343
 20
-516.4796848633596
 30
0.0
 10
715.3830225256334
 20
-517.47673694492
 30
0.0
 10
722.1058748160685
 20
-519.2187899106893
 30
0.0
 10
727.3342642549451
 20
-522.7051263837984
 30
0.0
 10
730.5707800722703
 20
-528.6785167068847
 30
0.0
 10
735.5493488553657
 20
-538.1382435030791
 30
0.0
 10
738.7858646726927
 20
-547.8477909550547
 30
0.0
 10
739.7806862126836
 20
-558.3045698328096
 30
0.0
 10
741.2751490642404
 20
-573.4900968378788
 30
0.0
 10
742.0223804900179
 20
-588.9254444987291
 30
0.0
 10
742.2699706042313
 20
-604.1109715037983
 30
0.0
 10
742.2699706042313
 20
-608.3423088611144
 30
0.0
 10
741.7725598342349
 20
-612.3260561042189
 30
0.0
 10
742.7673813742276
 20
-616.5573934615368
 30
0.0
 10
743.7644334557881
 20
-620.5411407046395
 30
0.0
 10
742.5197912600142
 20
-622.0356035561963
 30
0.0
 10
738.2862233611268
 20
-621.7857829004133
 30
0.0
 10
730.5707800722703
 20
-621.5381927861999
 30
0.0
 10
723.8479277818369
 20
-618.7990877388711
 30
0.0
 10
718.3719482287452
 20
-612.8234668742152
 30
0.0
 10
713.8907902156461
 20
-607.5950774353369
 30
0.0
 10
711.6490959383118
 20
-601.1242763422542
 30
0.0
 10
710.9018645125343
 20
-594.4014240518209
 30
0.0
 10
709.4096322025471
 20
-583.6970550598526
 30
0.0
 10
710.1568636283246
 20
-573.2402761820958
 30
0.0
 10
711.4015058240984
 20
-562.5359071901275
 30
0.0
 10
712.3963273640911
 20
-552.5787696239368
 30
0.0
 10
714.3882009856425
 20
-542.8692221719593
 30
0.0
 10
714.3882009856425
 20
-532.9120846057713
 30
0.0
 10
714.3882009856425
 20
-530.1729795584406
 30
0.0
 10
714.3882009856425
 20
-527.4338745111108
 30
0.0
 10
712.8937381340857
 20
-524.6970000053498
 30
0.0
 10
710.6542743983209
 20
-525.4420008895586
 30
0.0
 10
709.4096322025471
 20
-527.1862843968975
 30
0.0
 10
708.4125801209866
 20
-528.9283373626668
 30
0.0
 10
704.678653533665
 20
-534.9039582273235
 30
0.0
 10
701.442137716338
 20
-541.1271692061928
 30
0.0
 10
699.2026739805733
 20
-547.8477909550547
 30
0.0
 10
694.4716953116913
 20
-561.2912649943537
 30
0.0
 10
691.7348208059302
 20
-574.9845596894356
 30
0.0
 10
690.2403579543752
 20
-589.1730346129425
 30
0.0
 10
689.7429471843789
 20
-592.1619603160561
 30
0.0
 10
689.4931265285959
 20
-595.1486554775984
 30
0.0
 10
688.9957157586014
 20
-598.1353506391424
 30
0.0
 10
688.498304988605
 20
-602.6165086522415
 30
0.0
 10
688.498304988605
 20
-606.8500765511271
 30
0.0
 10
689.4931265285959
 20
-611.331234564228
 30
0.0
 10
690.4879480685886
 20
-615.5625719215441
 30
0.0
 10
687.7510735628275
 20
-618.3016769688747
 30
0.0
 10
686.0090205970573
 20
-621.5381927861999
 30
0.0
 10
685.5093792854932
 20
-622.2831936704097
 30
0.0
 10
684.017146975506
 20
-622.5330143261926
 30
0.0
 10
683.0200948939455
 20
-622.7828349819756
 30
0.0
 10
679.5359889624051
 20
-623.2802457519701
 30
0.0
 10
675.8020623750854
 20
-623.2802457519701
 30
0.0
 10
673.0629573277547
 20
-621.2883721304188
 30
0.0
 10
668.5817993146557
 20
-618.5492670830881
 30
0.0
 10
664.3504619573378
 20
-615.0651611515495
 30
0.0
 10
662.606178449998
 20
-610.0865923684541
 30
0.0
 10
658.1250204368989
 20
-597.887760524929
 30
0.0
 10
655.3881459311378
 20
-585.439108025621
 30
0.0
 10
653.6438624237999
 20
-572.4952752978879
 30
0.0
 10
650.9069879180388
 20
-552.0813588539422
 30
0.0
 10
652.1516301138126
 20
-531.4176217542145
 30
0.0
 10
652.1516301138126
 20
-510.7538846544858
 30
0.0
 10
652.1516301138126
 20
-504.5306736756174
 30
0.0
 10
652.399220228026
 20
-498.3074626967482
 30
0.0
 10
653.3962723095865
 20
-492.3318418320923
 30
0.0
 10
654.8885046195737
 20
-484.3665778874529
 30
0.0
 10
658.6224312068953
 20
-481.3798827259106
 30
0.0
 10
666.5899256931025
 20
-481.3798827259106
 30
0.0
 10
672.5655465577584
 20
-481.3798827259106
 30
0.0
 10
678.0415261108501
 20
-482.8732303066818
 30
0.0
 10
683.0200948939455
 20
-486.1097461240079
 30
0.0
 10
687.2536627928312
 20
-488.8477359005528
 30
0.0
 10
688.248484332822
 20
-491.3370202921005
 30
0.0
 10
687.0038421370482
 20
-496.3155890751959
 30
0.0
 10
685.2617891712798
 20
-505.2779051013949
 30
0.0
 10
684.2647370897193
 20
-514.4900417833769
 30
0.0
 10
683.767326319723
 20
-523.4501272680063
 30
0.0
 10
683.0200948939455
 20
-541.1271692061928
 30
0.0
 10
683.51750566394
 20
-558.552159947023
 30
0.0
 10
684.5145577455005
 20
-576.2292018852095
 30
0.0
 10
684.5145577455005
 20
-576.726612655204
 30
0.0
 10
684.5145577455005
 20
-577.2240234252004
 30
0.0
 10
685.0119685154968
 20
-577.4738440809833
 30
0.0
 10
685.7591999412743
 20
-577.4738440809833
 30
0.0
 10
685.7591999412743
 20
-577.2240234252004
 30
0.0
 10
685.7591999412743
 20
-576.726612655204
 30
0.0
  0
ENDBLK
  5
48
330
45
100
AcDbEntity
  8
0
100
AcDbBlockEnd
  0
BLOCK
  5
51
330
4F
100
AcDbEntity
  8
0
100
AcDbBlockBegin
  2
block 4
 70
     0
 10
0.0
 20
0.0
 30
0.0
  3
block 4
  1

  0
INSERT
  5
54
330
4F
100
AcDbEntity
  8
Layer 1
100
AcDbBlockReference
  2
block 5
 10
0.0
 20
0.0
 30
0.0
  0
INSERT
  5
5B
330
4F
100
AcDbEntity
  8
Layer 1
100
AcDbBlockReference
  2
block 6
 10
0.0
 20
0.0
 30
0.0
  0
INSERT
  5
61
330
4F
100
AcDbEntity
  8
Layer 1
100
AcDbBlockReference
  2
block 7
 10
0.0
 20
0.0
 30
0.0
  0
INSERT
  5
66
330
4F
100
AcDbEntity
  8
Layer 1
100
AcDbBlockReference
  2
block 8
 10
0.0
 20
0.0
 30
0.0
  0
INSERT
  5
6B
330
4F
100
AcDbEntity
  8
Layer 1
100
AcDbBlockReference
  2
block 9
 10
0.0
 20
0.0
 30
0.0
  0
ENDBLK
  5
52
330
4F
100
AcDbEntity
  8
0
100
AcDbBlockEnd
  0
BLOCK
  5
55
330
53
100
AcDbEntity
  8
0
100
AcDbBlockBegin
  2
block 5
 70
     0
 10
0.0
 20
0.0
 30
0.0
  3
block 5
  1

  0
SPLINE
  5
57
330
53
100
AcDbEntity
  8
Layer 1
370
     0
100
AcDbSpline
210
0.0
220
0.0
230
1.0
 70
    11
 71
     3
 72
    32
 73
    28
 74
     0
 42
0.0000000001
 43
0.0000000001
 12
1.0
 22
0.0
 32
0.0
 13
1.0
 23
0.0
 33
0.0
 40
0.0
 40
0.0
 40
0.0
 40
0.0
 40
1.0
 40
1.0
 40
1.0
 40
2.0
 40
2.0
 40
2.0
 40
3.0
 40
3.0
 40
3.0
 40
4.0
 40
4.0
 40
4.0
 40
5.0
 40
5.0
 40
5.0
 40
6.0
 40
6.0
 40
6.0
 40
7.0
 40
7.0
 40
7.0
 40
8.0
 40
8.0
 40
8.0
 40
9.0
 40
9.0
 40
9.0
 40
9.0
 10
243.4238471086383
 20
-431.875243132713
 30
0.0
 10
243.4238471086383
 20
-431.875243132713
 30
0.0
 10
157.4665819160973
 20
-431.875243132713
 30
0.0
 10
157.4665819160973
 20
-431.875243132713
 30
0.0
 10
157.4665819160973
 20
-431.875243132713
 30
0.0
 10
157.4665819160973
 20
-428.5205086122041
 30
0.0
 10
157.4665819160973
 20
-428.5205086122041
 30
0.0
 10
169.9185802277589
 20
-428.5205086122041
 30
0.0
 10
172.4480143675573
 20
-423.4226058551412
 30
0.0
 10
172.4480143675573
 20
-415.2543626276802
 30
0.0
 10
172.4480143675573
 20
-415.2543626276802
 30
0.0
 10
172.4480143675573
 20
-187.5182989246141
 30
0.0
 10
172.4480143675573
 20
-187.5182989246141
 30
0.0
 10
172.4480143675573
 20
-179.3500556971521
 30
0.0
 10
169.9185802277589
 20
-174.2521529400892
 30
0.0
 10
157.4665819160973
 20
-174.2521529400892
 30
0.0
 10
157.4665819160973
 20
-174.2521529400892
 30
0.0
 10
157.4665819160973
 20
-170.8974184195804
 30
0.0
 10
157.4665819160973
 20
-170.8974184195804
 30
0.0
 10
157.4665819160973
 20
-170.8974184195804
 30
0.0
 10
239.0341412998878
 20
-170.8974184195804
 30
0.0
 10
239.0341412998878
 20
-170.8974184195804
 30
0.0
 10
308.2690363459824
 20
-170.8974184195804
 30
0.0
 10
310.7672429038084
 20
-286.8521219093691
 30
0.0
 10
246.5521816598439
 20
-295.2590330847652
 30
0.0
 10
321.1693735131121
 20
-298.8825478643976
 30
0.0
 10
320.1310564125151
 20
-431.8730125911434
 30
0.0
 10
243.4238471086383
 20
-431.875243132713
 30
0.0
  0
SPLINE
  5
58
330
53
100
AcDbEntity
  8
Layer 1
370
     0
100
AcDbSpline
210
0.0
220
0.0
230
1.0
 70
    11
 71
     3
 72
    20
 73
    16
 74
     0
 42
0.0000000001
 43
0.0000000001
 12
1.0
 22
0.0
 32
0.0
 13
1.0
 23
0.0
 33
0.0
 40
0.0
 40
0.0
 40
0.0
 40
0.0
 40
1.0
 40
1.0
 40
1.0
 40
2.0
 40
2.0
 40
2.0
 40
3.0
 40
3.0
 40
3.0
 40
4.0
 40
4.0
 40
4.0
 40
5.0
 40
5.0
 40
5.0
 40
5.0
 10
206.2574482070586
 20
-292.4017093342527
 30
0.0
 10
206.2574482070586
 20
-292.4017093342527
 30
0.0
 10
221.741867782438
 20
-292.4017093342527
 30
0.0
 10
221.741867782438
 20
-292.4017093342527
 30
0.0
 10
272.7398549564077
 20
-292.4017093342527
 30
0.0
 10
272.7398549564077
 20
-177.2198884982918
 30
0.0
 10
221.741867782438
 20
-177.2198884982918
 30
0.0
 10
221.741867782438
 20
-177.2198884982918
 30
0.0
 10
220.9165674017277
 20
-177.2198884982918
 30
0.0
 10
220.9165674017277
 20
-177.2198884982918
 30
0.0
 10
206.0566994658047
 20
-177.2198884982918
 30
0.0
 10
206.2574482070586
 20
-183.4129871659725
 30
0.0
 10
206.2574482070586
 20
-190.4849192120319
 30
0.0
 10
206.2574482070586
 20
-190.4849192120319
 30
0.0
 10
206.2574482070586
 20
-292.4017093342527
 30
0.0
 10
206.2574482070586
 20
-292.4017093342527
 30
0.0
  0
SPLINE
  5
59
330
53
100
AcDbEntity
  8
Layer 1
370
     0
100
AcDbSpline
210
0.0
220
0.0
230
1.0
 70
    11
 71
     3
 72
    20
 73
    16
 74
     0
 42
0.0000000001
 43
0.0000000001
 12
1.0
 22
0.0
 32
0.0
 13
1.0
 23
0.0
 33
0.0
 40
0.0
 40
0.0
 40
0.0
 40
0.0
 40
1.0
 40
1.0
 40
1.0
 40
2.0
 40
2.0
 40
2.0
 40
3.0
 40
3.0
 40
3.0
 40
4.0
 40
4.0
 40
4.0
 40
5.0
 40
5.0
 40
5.0
 40
5.0
 10
224.7051422575023
 20
-298.8457439285012
 30
0.0
 10
224.7051422575023
 20
-298.8457439285012
 30
0.0
 10
206.2574482070586
 20
-298.8457439285012
 30
0.0
 10
206.2574482070586
 20
-298.8457439285012
 30
0.0
 10
206.2574482070586
 20
-298.8457439285012
 30
0.0
 10
206.2574482070586
 20
-412.0256537058467
 30
0.0
 10
206.2574482070586
 20
-412.0256537058467
 30
0.0
 10
206.2574482070586
 20
-418.1551819387978
 30
0.0
 10
206.1080019219035
 20
-423.6244698671799
 30
0.0
 10
215.7439415020872
 20
-424.972832245935
 30
0.0
 10
215.7439415020872
 20
-424.972832245935
 30
0.0
 10
224.7029117159327
 20
-424.972832245935
 30
0.0
 10
224.7029117159327
 20
-424.972832245935
 30
0.0
 10
279.9110461023083
 20
-424.972832245935
 30
0.0
 10
279.9121613730931
 20
-298.8479744700708
 30
0.0
 10
224.7051422575023
 20
-298.8457439285012
 30
0.0
  0
ENDBLK
  5
56
330
53
100
AcDbEntity
  8
0
100
AcDbBlockEnd
  0
BLOCK
  5
5C
330
5A
100
AcDbEntity
  8
0
100
AcDbBlockBegin
  2
block 6
 70
     0
 10
0.0
 20
0.0
 30
0.0
  3
block 6
  1

  0
SPLINE
  5
5E
330
5A
100
AcDbEntity
  8
Layer 1
370
     0
100
AcDbSpline
210
0.0
220
0.0
230
1.0
 70
    11
 71
     3
 72
    77
 73
    73
 74
     0
 42
0.0000000001
 43
0.0000000001
 12
1.0
 22
0.0
 32
0.0
 13
1.0
 23
0.0
 33
0.0
 40
0.0
 40
0.0
 40
0.0
 40
0.0
 40
1.0
 40
1.0
 40
1.0
 40
2.0
 40
2.0
 40
2.0
 40
3.0
 40
3.0
 40
3.0
 40
4.0
 40
4.0
 40
4.0
 40
5.0
 40
5.0
 40
5.0
 40
6.0
 40
6.0
 40
6.0
 40
7.0
 40
7.0
 40
7.0
 40
8.0
 40
8.0
 40
8.0
 40
9.0
 40
9.0
 40
9.0
 40
10.0
 40
10.0
 40
10.0
 40
11.0
 40
11.0
 40
11.0
 40
12.0
 40
12.0
 40
12.0
 40
13.0
 40
13.0
 40
13.0
 40
14.0
 40
14.0
 40
14.0
 40
15.0
 40
15.0
 40
15.0
 40
16.0
 40
16.0
 40
16.0
 40
17.0
 40
17.0
 40
17.0
 40
18.0
 40
18.0
 40
18.0
 40
19.0
 40
19.0
 40
19.0
 40
20.0
 40
20.0
 40
20.0
 40
21.0
 40
21.0
 40
21.0
 40
22.0
 40
22.0
 40
22.0
 40
23.0
 40
23.0
 40
23.0
 40
24.0
 40
24.0
 40
24.0
 40
24.0
 10
419.4001936917548
 20
-344.4971229604089
 30
0.0
 10
419.4001936917548
 20
-344.4971229604089
 30
0.0
 10
405.5195335048365
 20
-295.2300360443624
 30
0.0
 10
405.5195335048365
 20
-295.2300360443624
 30
0.0
 10
405.5195335048365
 20
-295.2300360443624
 30
0.0
 10
347.7328930641343
 20
-295.2300360443624
 30
0.0
 10
347.7328930641343
 20
-295.2300360443624
 30
0.0
 10
342.89819421227
 20
-313.4546759378572
 30
0.0
 10
338.1014145670888
 20
-331.6057079595585
 30
0.0
 10
333.0269324965047
 20
-349.7745843138155
 30
0.0
 10
331.9607336262907
 20
-352.9609129458277
 30
0.0
 10
334.6016948445631
 20
-353.9222763622765
 30
0.0
 10
338.7192745818365
 20
-353.9222763622765
 30
0.0
 10
338.7192745818365
 20
-353.9222763622765
 30
0.0
 10
338.7192745818365
 20
-356.3056100292742
 30
0.0
 10
338.7192745818365
 20
-356.3056100292742
 30
0.0
 10
338.7192745818365
 20
-356.3056100292742
 30
0.0
 10
317.6428872917522
 20
-356.3056100292742
 30
0.0
 10
317.6428872917522
 20
-356.3056100292742
 30
0.0
 10
317.6428872917522
 20
-356.3056100292742
 30
0.0
 10
317.6428872917522
 20
-353.9222763622765
 30
0.0
 10
317.6428872917522
 20
-353.9222763622765
 30
0.0
 10
317.6428872917522
 20
-353.9222763622765
 30
0.0
 10
317.9462409452026
 20
-353.9189305499222
 30
0.0
 10
317.9462409452026
 20
-353.9189305499222
 30
0.0
 10
317.9462409452026
 20
-353.9189305499222
 30
0.0
 10
318.1692951021514
 20
-353.9122389252143
 30
0.0
 10
318.1692951021514
 20
-353.9122389252143
 30
0.0
 10
318.1692951021514
 20
-353.9122389252143
 30
0.0
 10
318.1748714560754
 20
-353.9122389252143
 30
0.0
 10
318.1748714560754
 20
-353.9122389252143
 30
0.0
 10
321.13145430643
 20
-353.7839827849684
 30
0.0
 10
323.7891445864743
 20
-352.520380985854
 30
0.0
 10
324.6044075301215
 20
-350.3812916207162
 30
0.0
 10
324.6044075301215
 20
-350.3812916207162
 30
0.0
 10
325.0427089485256
 20
-348.816566709721
 30
0.0
 10
325.0427089485256
 20
-348.816566709721
 30
0.0
 10
325.0427089485256
 20
-348.816566709721
 30
0.0
 10
325.04605476088
 20
-348.7964918355956
 30
0.0
 10
325.04605476088
 20
-348.7964918355956
 30
0.0
 10
325.04605476088
 20
-348.7964918355956
 30
0.0
 10
325.0527463855888
 20
-348.7485351918513
 30
0.0
 10
325.0527463855888
 20
-348.7485351918513
 30
0.0
 10
325.0527463855888
 20
-348.7485351918513
 30
0.0
 10
325.0605532810823
 20
-348.7485351918513
 30
0.0
 10
325.0605532810823
 20
-348.7485351918513
 30
0.0
 10
341.0669195837218
 20
-291.4581902503596
 30
0.0
 10
355.0769511816707
 20
-233.8076128453959
 30
0.0
 10
370.9439086362163
 20
-176.5005388421323
 30
0.0
 10
370.9439086362163
 20
-176.5005388421323
 30
0.0
 10
372.4985961101493
 20
-170.8739977331006
 30
0.0
 10
372.4985961101493
 20
-170.8739977331006
 30
0.0
 10
367.2088667781109
 20
-170.8706519207472
 30
0.0
 10
396.6798972649594
 20
-170.8907267948725
 30
0.0
 10
401.5201724707458
 20
-170.8907267948725
 30
0.0
 10
417.822085531343
 20
-228.7598972736459
 30
0.0
 10
434.1228833211553
 20
-286.6290677524203
 30
0.0
 10
450.4236811109668
 20
-344.4982382311937
 30
0.0
 10
452.7925162577621
 20
-350.3478334971733
 30
0.0
 10
454.7888509624527
 20
-353.9233916330613
 30
0.0
 10
468.424151576728
 20
-353.9233916330613
 30
0.0
 10
468.424151576728
 20
-353.9233916330613
 30
0.0
 10
468.424151576728
 20
-356.3078405708438
 30
0.0
 10
468.424151576728
 20
-356.3078405708438
 30
0.0
 10
468.424151576728
 20
-356.3078405708438
 30
0.0
 10
410.1992097176208
 20
-356.3078405708438
 30
0.0
 10
410.1992097176208
 20
-356.3078405708438
 30
0.0
 10
410.1992097176208
 20
-356.3078405708438
 30
0.0
 10
410.1992097176208
 20
-353.9233916330613
 30
0.0
 10
410.1992097176208
 20
-353.9233916330613
 30
0.0
 10
417.8945781323509
 20
-353.9233916330613
 30
0.0
 10
420.9493048117638
 20
-350.848590079524
 30
0.0
 10
419.4001936917548
 20
-344.4971229604089
 30
0.0
  0
SPLINE
  5
5F
330
5A
100
AcDbEntity
  8
Layer 1
370
     0
100
AcDbSpline
210
0.0
220
0.0
230
1.0
 70
    11
 71
     3
 72
    14
 73
    10
 74
     0
 42
0.0000000001
 43
0.0000000001
 12
1.0
 22
0.0
 32
0.0
 13
1.0
 23
0.0
 33
0.0
 40
0.0
 40
0.0
 40
0.0
 40
0.0
 40
1.0
 40
1.0
 40
1.0
 40
2.0
 40
2.0
 40
2.0
 40
3.0
 40
3.0
 40
3.0
 40
3.0
 10
403.4875101350335
 20
-288.0120035255022
 30
0.0
 10
403.4875101350335
 20
-288.0120035255022
 30
0.0
 10
375.8232183194696
 20
-189.8079498456927
 30
0.0
 10
375.8232183194696
 20
-189.8079498456927
 30
0.0
 10
373.9462175887465
 20
-196.4728080553195
 30
0.0
 10
361.4674527782508
 20
-243.4825869030456
 30
0.0
 10
349.6511588138928
 20
-288.0120035255022
 30
0.0
 10
349.6511588138928
 20
-288.0120035255022
 30
0.0
 10
403.4875101350335
 20
-288.0120035255022
 30
0.0
 10
403.4875101350335
 20
-288.0120035255022
 30
0.0
  0
ENDBLK
  5
5D
330
5A
100
AcDbEntity
  8
0
100
AcDbBlockEnd
  0
BLOCK
  5
62
330
60
100
AcDbEntity
  8
0
100
AcDbBlockBegin
  2
block 7
 70
     0
 10
0.0
 20
0.0
 30
0.0
  3
block 7
  1

  0
SPLINE
  5
64
330
60
100
AcDbEntity
  8
Layer 1
370
     0
100
AcDbSpline
210
0.0
220
0.0
230
1.0
 70
    11
 71
     3
 72
    89
 73
    85
 74
     0
 42
0.0000000001
 43
0.0000000001
 12
1.0
 22
0.0
 32
0.0
 13
1.0
 23
0.0
 33
0.0
 40
0.0
 40
0.0
 40
0.0
 40
0.0
 40
1.0
 40
1.0
 40
1.0
 40
2.0
 40
2.0
 40
2.0
 40
3.0
 40
3.0
 40
3.0
 40
4.0
 40
4.0
 40
4.0
 40
5.0
 40
5.0
 40
5.0
 40
6.0
 40
6.0
 40
6.0
 40
7.0
 40
7.0
 40
7.0
 40
8.0
 40
8.0
 40
8.0
 40
9.0
 40
9.0
 40
9.0
 40
10.0
 40
10.0
 40
10.0
 40
11.0
 40
11.0
 40
11.0
 40
12.0
 40
12.0
 40
12.0
 40
13.0
 40
13.0
 40
13.0
 40
14.0
 40
14.0
 40
14.0
 40
15.0
 40
15.0
 40
15.0
 40
16.0
 40
16.0
 40
16.0
 40
17.0
 40
17.0
 40
17.0
 40
18.0
 40
18.0
 40
18.0
 40
19.0
 40
19.0
 40
19.0
 40
20.0
 40
20.0
 40
20.0
 40
21.0
 40
21.0
 40
21.0
 40
22.0
 40
22.0
 40
22.0
 40
23.0
 40
23.0
 40
23.0
 40
24.0
 40
24.0
 40
24.0
 40
25.0
 40
25.0
 40
25.0
 40
26.0
 40
26.0
 40
26.0
 40
27.0
 40
27.0
 40
27.0
 40
28.0
 40
28.0
 40
28.0
 40
28.0
 10
497.6777042605518
 20
-182.7081360300144
 30
0.0
 10
497.6777042605518
 20
-176.9042668662096
 30
0.0
 10
495.4025518596745
 20
-173.2829826281468
 30
0.0
 10
484.1929652022172
 20
-173.2829826281468
 30
0.0
 10
484.1929652022172
 20
-173.2829826281468
 30
0.0
 10
484.1929652022172
 20
-170.8985336903652
 30
0.0
 10
484.1929652022172
 20
-170.8985336903652
 30
0.0
 10
484.1929652022172
 20
-170.8985336903652
 30
0.0
 10
541.3037515473661
 20
-170.8985336903652
 30
0.0
 10
541.3037515473661
 20
-170.8985336903652
 30
0.0
 10
541.3037515473661
 20
-170.8985336903652
 30
0.0
 10
541.3037515473661
 20
-173.2829826281468
 30
0.0
 10
541.3037515473661
 20
-173.2829826281468
 30
0.0
 10
527.9294242967208
 20
-173.2829826281468
 30
0.0
 10
528.1089828930644
 20
-177.68495641553
 30
0.0
 10
528.1089828930644
 20
-182.7081360300144
 30
0.0
 10
528.1089828930644
 20
-182.7081360300144
 30
0.0
 10
528.1089828930644
 20
-252.7270664377847
 30
0.0
 10
528.1089828930644
 20
-252.7270664377847
 30
0.0
 10
528.1089828930644
 20
-252.7270664377847
 30
0.0
 10
604.3087439898827
 20
-181.2393244065079
 30
0.0
 10
604.3087439898827
 20
-181.2393244065079
 30
0.0
 10
609.0553364497518
 20
-177.4942451113384
 30
0.0
 10
607.8285385865347
 20
-173.2829826281468
 30
0.0
 10
598.826072812084
 20
-173.2829826281468
 30
0.0
 10
598.826072812084
 20
-173.2829826281468
 30
0.0
 10
598.826072812084
 20
-170.8974184195804
 30
0.0
 10
598.826072812084
 20
-170.8974184195804
 30
0.0
 10
598.826072812084
 20
-170.8974184195804
 30
0.0
 10
634.2805310590811
 20
-170.8974184195804
 30
0.0
 10
634.2805310590811
 20
-170.8974184195804
 30
0.0
 10
634.2805310590811
 20
-170.8974184195804
 30
0.0
 10
634.2805310590811
 20
-173.2807520865772
 30
0.0
 10
634.2805310590811
 20
-173.2807520865772
 30
0.0
 10
633.7965035385023
 20
-173.2807520865772
 30
0.0
 10
629.4291031454468
 20
-173.2907895236403
 30
0.0
 10
628.9696115821334
 20
-173.3097491269809
 30
0.0
 10
622.9426882613789
 20
-173.5528781580551
 30
0.0
 10
618.711350904061
 20
-178.0440736082173
 30
0.0
 10
612.6732748754603
 20
-182.7059054884458
 30
0.0
 10
612.6732748754603
 20
-182.7059054884458
 30
0.0
 10
542.9298163515214
 20
-248.4366197288764
 30
0.0
 10
542.9298163515214
 20
-248.4366197288764
 30
0.0
 10
542.9298163515214
 20
-248.4366197288764
 30
0.0
 10
623.408871449401
 20
-344.4982382311937
 30
0.0
 10
623.408871449401
 20
-344.4982382311937
 30
0.0
 10
628.006017624115
 20
-350.1203182570862
 30
0.0
 10
632.1503638602208
 20
-353.9233916330613
 30
0.0
 10
645.5246911108661
 20
-353.9233916330613
 30
0.0
 10
645.5246911108661
 20
-353.9233916330613
 30
0.0
 10
645.5246911108661
 20
-356.3078405708438
 30
0.0
 10
645.5246911108661
 20
-356.3078405708438
 30
0.0
 10
645.5246911108661
 20
-356.3078405708438
 30
0.0
 10
586.0896804503118
 20
-356.3078405708438
 30
0.0
 10
586.0896804503118
 20
-356.3078405708438
 30
0.0
 10
586.0896804503118
 20
-356.3078405708438
 30
0.0
 10
586.0896804503118
 20
-353.9233916330613
 30
0.0
 10
586.0896804503118
 20
-353.9233916330613
 30
0.0
 10
593.6378331214564
 20
-353.9233916330613
 30
0.0
 10
594.5545857065154
 20
-349.8314631238372
 30
0.0
 10
590.6533685014838
 20
-344.4982382311937
 30
0.0
 10
590.6533685014838
 20
-344.4982382311937
 30
0.0
 10
528.1089828930644
 20
-271.0654639513232
 30
0.0
 10
528.1089828930644
 20
-271.0654639513232
 30
0.0
 10
528.1089828930644
 20
-271.0654639513232
 30
0.0
 10
528.1089828930644
 20
-344.5004687727633
 30
0.0
 10
528.1089828930644
 20
-344.5004687727633
 30
0.0
 10
528.1089828930644
 20
-349.5258789288182
 30
0.0
 10
527.9294242967208
 20
-353.9256221746309
 30
0.0
 10
541.3037515473661
 20
-353.9256221746309
 30
0.0
 10
541.3037515473661
 20
-353.9256221746309
 30
0.0
 10
541.3037515473661
 20
-356.3100711124134
 30
0.0
 10
541.3037515473661
 20
-356.3100711124134
 30
0.0
 10
541.3037515473661
 20
-356.3100711124134
 30
0.0
 10
484.1929652022172
 20
-356.3100711124134
 30
0.0
 10
484.1929652022172
 20
-356.3100711124134
 30
0.0
 10
484.1929652022172
 20
-356.3100711124134
 30
0.0
 10
484.1929652022172
 20
-353.9256221746309
 30
0.0
 10
484.1929652022172
 20
-353.9256221746309
 30
0.0
 10
495.4025518596745
 20
-353.9256221746309
 30
0.0
 10
497.6777042605518
 20
-350.304337936569
 30
0.0
 10
497.6777042605518
 20
-344.5004687727633
 30
0.0
 10
497.6777042605518
 20
-344.5004687727633
 30
0.0
 10
497.6777042605518
 20
-182.7081360300144
 30
0.0
 10
497.6777042605518
 20
-182.7081360300144
 30
0.0
  0
ENDBLK
  5
63
330
60
100
AcDbEntity
  8
0
100
AcDbBlockEnd
  0
BLOCK
  5
67
330
65
100
AcDbEntity
  8
0
100
AcDbBlockBegin
  2
block 8
 70
     0
 10
0.0
 20
0.0
 30
0.0
  3
block 8
  1

  0
SPLINE
  5
69
330
65
100
AcDbEntity
  8
Layer 1
370
     0
100
AcDbSpline
210
0.0
220
0.0
230
1.0
 70
    11
 71
     3
 72
    89
 73
    85
 74
     0
 42
0.0000000001
 43
0.0000000001
 12
1.0
 22
0.0
 32
0.0
 13
1.0
 23
0.0
 33
0.0
 40
0.0
 40
0.0
 40
0.0
 40
0.0
 40
1.0
 40
1.0
 40
1.0
 40
2.0
 40
2.0
 40
2.0
 40
3.0
 40
3.0
 40
3.0
 40
4.0
 40
4.0
 40
4.0
 40
5.0
 40
5.0
 40
5.0
 40
6.0
 40
6.0
 40
6.0
 40
7.0
 40
7.0
 40
7.0
 40
8.0
 40
8.0
 40
8.0
 40
9.0
 40
9.0
 40
9.0
 40
10.0
 40
10.0
 40
10.0
 40
11.0
 40
11.0
 40
11.0
 40
12.0
 40
12.0
 40
12.0
 40
13.0
 40
13.0
 40
13.0
 40
14.0
 40
14.0
 40
14.0
 40
15.0
 40
15.0
 40
15.0
 40
16.0
 40
16.0
 40
16.0
 40
17.0
 40
17.0
 40
17.0
 40
18.0
 40
18.0
 40
18.0
 40
19.0
 40
19.0
 40
19.0
 40
20.0
 40
20.0
 40
20.0
 40
21.0
 40
21.0
 40
21.0
 40
22.0
 40
22.0
 40
22.0
 40
23.0
 40
23.0
 40
23.0
 40
24.0
 40
24.0
 40
24.0
 40
25.0
 40
25.0
 40
25.0
 40
26.0
 40
26.0
 40
26.0
 40
27.0
 40
27.0
 40
27.0
 40
28.0
 40
28.0
 40
28.0
 40
28.0
 10
782.6450035535181
 20
-170.8985336903652
 30
0.0
 10
782.6450035535181
 20
-170.8985336903652
 30
0.0
 10
782.6450035535181
 20
-231.2904466842292
 30
0.0
 10
782.6450035535181
 20
-231.2904466842292
 30
0.0
 10
782.6450035535181
 20
-231.2904466842292
 30
0.0
 10
778.0010160058446
 20
-231.2904466842292
 30
0.0
 10
778.0010160058446
 20
-231.2904466842292
 30
0.0
 10
778.0010160058446
 20
-231.2904466842292
 30
0.0
 10
778.0010160058446
 20
-231.1599600024147
 30
0.0
 10
778.0010160058446
 20
-231.1599600024147
 30
0.0
 10
778.0010160058446
 20
-201.7056585773371
 30
0.0
 10
753.9022448891064
 20
-177.6057721898133
 30
0.0
 10
724.4457129224593
 20
-177.6057721898133
 30
0.0
 10
713.2350109942181
 20
-177.6057721898133
 30
0.0
 10
710.1657857946029
 20
-179.9099216310933
 30
0.0
 10
710.1657857946029
 20
-187.5171836538293
 30
0.0
 10
710.1657857946029
 20
-187.5171836538293
 30
0.0
 10
710.1657857946029
 20
-242.6729003133223
 30
0.0
 10
710.1657857946029
 20
-242.6729003133223
 30
0.0
 10
710.1657857946029
 20
-242.6729003133223
 30
0.0
 10
718.8916644144374
 20
-242.6729003133223
 30
0.0
 10
718.8916644144374
 20
-242.6729003133223
 30
0.0
 10
737.6282135981292
 20
-242.6729003133223
 30
0.0
 10
752.960956346782
 20
-232.2975362028528
 30
0.0
 10
752.960956346782
 20
-213.5609870191611
 30
0.0
 10
752.960956346782
 20
-213.5609870191611
 30
0.0
 10
752.960956346782
 20
-213.4784569810899
 30
0.0
 10
752.960956346782
 20
-213.4784569810899
 30
0.0
 10
752.960956346782
 20
-213.4784569810899
 30
0.0
 10
755.9141933847841
 20
-213.4784569810899
 30
0.0
 10
755.9141933847841
 20
-213.4784569810899
 30
0.0
 10
755.9141933847841
 20
-213.4784569810899
 30
0.0
 10
755.9141933847841
 20
-286.7740529544362
 30
0.0
 10
755.9141933847841
 20
-286.7740529544362
 30
0.0
 10
755.9141933847841
 20
-286.7740529544362
 30
0.0
 10
752.960956346782
 20
-286.7740529544362
 30
0.0
 10
752.960956346782
 20
-286.7740529544362
 30
0.0
 10
752.960956346782
 20
-286.7740529544362
 30
0.0
 10
752.960956346782
 20
-286.691522916366
 30
0.0
 10
752.960956346782
 20
-286.691522916366
 30
0.0
 10
752.960956346782
 20
-267.9549737326743
 30
0.0
 10
737.62375251499
 20
-257.5796096222048
 30
0.0
 10
718.8916644144374
 20
-257.5796096222048
 30
0.0
 10
718.8916644144374
 20
-257.5796096222048
 30
0.0
 10
710.1657857946029
 20
-257.5796096222048
 30
0.0
 10
710.1657857946029
 20
-257.5796096222048
 30
0.0
 10
710.1657857946029
 20
-257.5796096222048
 30
0.0
 10
710.1657857946029
 20
-340.9182190121674
 30
0.0
 10
710.1657857946029
 20
-340.9182190121674
 30
0.0
 10
710.1657857946029
 20
-348.0871796164984
 30
0.0
 10
713.2350109942181
 20
-350.8285152053986
 30
0.0
 10
724.4457129224593
 20
-350.8285152053986
 30
0.0
 10
753.9022448891064
 20
-350.8285152053986
 30
0.0
 10
778.0010160058446
 20
-326.7297440886596
 30
0.0
 10
778.0010160058446
 20
-297.275442663582
 30
0.0
 10
778.0010160058446
 20
-297.275442663582
 30
0.0
 10
778.0010160058446
 20
-297.1449559817665
 30
0.0
 10
778.0010160058446
 20
-297.1449559817665
 30
0.0
 10
778.0010160058446
 20
-297.1449559817665
 30
0.0
 10
782.6450035535181
 20
-297.1449559817665
 30
0.0
 10
782.6450035535181
 20
-297.1449559817665
 30
0.0
 10
782.6450035535181
 20
-297.1449559817665
 30
0.0
 10
782.6450035535181
 20
-357.5368689756306
 30
0.0
 10
782.6450035535181
 20
-357.5368689756306
 30
0.0
 10
782.6450035535181
 20
-357.5368689756306
 30
0.0
 10
661.3793805867808
 20
-357.5368689756306
 30
0.0
 10
661.3793805867808
 20
-357.5368689756306
 30
0.0
 10
661.3793805867808
 20
-357.5368689756306
 30
0.0
 10
661.3793805867808
 20
-354.1821344551227
 30
0.0
 10
661.3793805867808
 20
-354.1821344551227
 30
0.0
 10
673.8302636276585
 20
-354.1821344551227
 30
0.0
 10
676.359697767457
 20
-349.0842316980597
 30
0.0
 10
676.359697767457
 20
-340.9159884705978
 30
0.0
 10
676.359697767457
 20
-340.9159884705978
 30
0.0
 10
676.359697767457
 20
-187.5138378414749
 30
0.0
 10
676.359697767457
 20
-187.5138378414749
 30
0.0
 10
676.359697767457
 20
-179.3467098847977
 30
0.0
 10
673.8302636276585
 20
-174.2488071277348
 30
0.0
 10
661.3793805867808
 20
-174.2488071277348
 30
0.0
 10
661.3793805867808
 20
-174.2488071277348
 30
0.0
 10
661.3793805867808
 20
-170.8974184195804
 30
0.0
 10
661.3793805867808
 20
-170.8974184195804
 30
0.0
 10
661.3793805867808
 20
-170.8974184195804
 30
0.0
 10
782.6450035535181
 20
-170.8985336903652
 30
0.0
 10
782.6450035535181
 20
-170.8985336903652
 30
0.0
  0
ENDBLK
  5
68
330
65
100
AcDbEntity
  8
0
100
AcDbBlockEnd
  0
BLOCK
  5
6C
330
6A
100
AcDbEntity
  8
0
100
AcDbBlockBegin
  2
block 9
 70
     0
 10
0.0
 20
0.0
 30
0.0
  3
block 9
  1

  0
SPLINE
  5
6E
330
6A
100
AcDbEntity
  8
Layer 1
370
     0
100
AcDbSpline
210
0.0
220
0.0
230
1.0
 70
    11
 71
     3
 72
    32
 73
    28
 74
     0
 42
0.0000000001
 43
0.0000000001
 12
1.0
 22
0.0
 32
0.0
 13
1.0
 23
0.0
 33
0.0
 40
0.0
 40
0.0
 40
0.0
 40
0.0
 40
1.0
 40
1.0
 40
1.0
 40
2.0
 40
2.0
 40
2.0
 40
3.0
 40
3.0
 40
3.0
 40
4.0
 40
4.0
 40
4.0
 40
5.0
 40
5.0
 40
5.0
 40
6.0
 40
6.0
 40
6.0
 40
7.0
 40
7.0
 40
7.0
 40
8.0
 40
8.0
 40
8.0
 40
9.0
 40
9.0
 40
9.0
 40
9.0
 10
952.4360583644466
 20
-300.3301693429949
 30
0.0
 10
952.6925706449383
 20
-365.924820547687
 30
0.0
 10
929.1848930441138
 20
-431.875243132713
 30
0.0
 10
881.913025561973
 20
-431.875243132713
 30
0.0
 10
881.913025561973
 20
-431.875243132713
 30
0.0
 10
798.5219984451269
 20
-431.875243132713
 30
0.0
 10
798.5219984451269
 20
-431.875243132713
 30
0.0
 10
798.5219984451269
 20
-431.875243132713
 30
0.0
 10
798.5219984451269
 20
-428.5205086122041
 30
0.0
 10
798.5219984451269
 20
-428.5205086122041
 30
0.0
 10
810.9728814860046
 20
-428.5205086122041
 30
0.0
 10
813.502315625803
 20
-423.4226058551412
 30
0.0
 10
813.502315625803
 20
-415.2543626276802
 30
0.0
 10
813.502315625803
 20
-415.2543626276802
 30
0.0
 10
813.502315625803
 20
-187.5182989246141
 30
0.0
 10
813.502315625803
 20
-187.5182989246141
 30
0.0
 10
813.502315625803
 20
-179.3500556971521
 30
0.0
 10
810.9728814860046
 20
-174.2521529400892
 30
0.0
 10
798.5219984451269
 20
-174.2521529400892
 30
0.0
 10
798.5219984451269
 20
-174.2521529400892
 30
0.0
 10
798.5219984451269
 20
-170.8974184195804
 30
0.0
 10
798.5219984451269
 20
-170.8974184195804
 30
0.0
 10
798.5219984451269
 20
-170.8974184195804
 30
0.0
 10
881.913025561973
 20
-170.8974184195804
 30
0.0
 10
881.913025561973
 20
-170.8974184195804
 30
0.0
 10
928.6763295662695
 20
-170.8974184195804
 30
0.0
 10
952.184007167094
 20
-235.4392540034751
 30
0.0
 10
952.4360583644466
 20
-300.3301693429949
 30
0.0
  0
SPLINE
  5
6F
330
6A
100
AcDbEntity
  8
Layer 1
370
     0
100
AcDbSpline
210
0.0
220
0.0
230
1.0
 70
    11
 71
     3
 72
    20
 73
    16
 74
     0
 42
0.0000000001
 43
0.0000000001
 12
1.0
 22
0.0
 32
0.0
 13
1.0
 23
0.0
 33
0.0
 40
0.0
 40
0.0
 40
0.0
 40
0.0
 40
1.0
 40
1.0
 40
1.0
 40
2.0
 40
2.0
 40
2.0
 40
3.0
 40
3.0
 40
3.0
 40
4.0
 40
4.0
 40
4.0
 40
5.0
 40
5.0
 40
5.0
 40
5.0
 10
914.3629443148711
 20
-300.3279388014253
 30
0.0
 10
914.2558783195364
 20
-265.3329721177415
 30
0.0
 10
908.6839854789578
 20
-230.4461867001783
 30
0.0
 10
897.6472657931354
 20
-206.2726924408616
 30
0.0
 10
883.6305425704777
 20
-175.5715182784406
 30
0.0
 10
876.238527809197
 20
-177.6046569190285
 30
0.0
 10
847.3128647360882
 20
-177.6046569190285
 30
0.0
 10
847.3128647360882
 20
-177.6046569190285
 30
0.0
 10
847.3128647360882
 20
-425.0798982412707
 30
0.0
 10
847.3128647360882
 20
-425.0798982412707
 30
0.0
 10
869.3015435280922
 20
-425.0798982412707
 30
0.0
 10
885.8432398074092
 20
-425.6464557999207
 30
0.0
 10
899.587836958588
 20
-391.9418574141855
 30
0.0
 10
909.53828290007
 20
-367.5475395394888
 30
0.0
 10
914.463318685499
 20
-333.8886672559283
 30
0.0
 10
914.3629443148711
 20
-300.3279388014253
 30
0.0
  0
ENDBLK
  5
6D
330
6A
100
AcDbEntity
  8
0
100
AcDbBlockEnd
  0
BLOCK
  5
72
330
70
100
AcDbEntity
  8
0
100
AcDbBlockBegin
  2
block 10
 70
     0
 10
0.0
 20
0.0
 30
0.0
  3
block 10
  1

  0
SPLINE
  5
74
330
70
100
AcDbEntity
  8
Layer 1
370
     0
100
AcDbSpline
210
0.0
220
0.0
230
1.0
 70
    11
 71
     3
 72
    62
 73
    58
 74
     0
 42
0.0000000001
 43
0.0000000001
 12
1.0
 22
0.0
 32
0.0
 13
1.0
 23
0.0
 33
0.0
 40
0.0
 40
0.0
 40
0.0
 40
0.0
 40
1.0
 40
1.0
 40
1.0
 40
2.0
 40
2.0
 40
2.0
 40
3.0
 40
3.0
 40
3.0
 40
4.0
 40
4.0
 40
4.0
 40
5.0
 40
5.0
 40
5.0
 40
6.0
 40
6.0
 40
6.0
 40
7.0
 40
7.0
 40
7.0
 40
8.0
 40
8.0
 40
8.0
 40
9.0
 40
9.0
 40
9.0
 40
10.0
 40
10.0
 40
10.0
 40
11.0
 40
11.0
 40
11.0
 40
12.0
 40
12.0
 40
12.0
 40
13.0
 40
13.0
 40
13.0
 40
14.0
 40
14.0
 40
14.0
 40
15.0
 40
15.0
 40
15.0
 40
16.0
 40
16.0
 40
16.0
 40
17.0
 40
17.0
 40
17.0
 40
18.0
 40
18.0
 40
18.0
 40
19.0
 40
19.0
 40
19.0
 40
19.0
 10
210.7006870134774
 20
-894.7549990911084
 30
0.0
 10
210.7006870134774
 20
-894.7549990911084
 30
0.0
 10
202.6395097813511
 20
-892.6538289326527
 30
0.0
 10
186.8673503435075
 20
-892.6538289326527
 30
0.0
 10
173.5487866321
 20
-892.6538289326527
 30
0.0
 10
154.270215847022
 20
-894.4048040646994
 30
0.0
 10
130.0844536090735
 20
-900.0123855703896
 30
0.0
 10
130.0844536090735
 20
-900.0123855703896
 30
0.0
 10
113.6096735768415
 20
-808.8813792074252
 30
0.0
 10
113.6096735768415
 20
-707.233369344327
 30
0.0
 10
113.6096735768415
 20
-693.2144155800997
 30
0.0
 10
113.962099144821
 20
-678.8430362478939
 30
0.0
 10
114.6624891976398
 20
-664.4716569156881
 30
0.0
 10
114.6624891976398
 20
-664.4716569156881
 30
0.0
 10
94.33333333333394
 20
-664.8218519420989
 30
0.0
 10
94.33333333333394
 20
-664.8218519420989
 30
0.0
 10
94.33333333333394
 20
-664.8218519420989
 30
0.0
 10
95.73411343897169
 20
-629.0707316663593
 30
0.0
 10
95.73411343897169
 20
-629.0707316663593
 30
0.0
 10
109.7552977447676
 20
-629.7711217191772
 30
0.0
 10
140.5992265676359
 20
-632.2247174456134
 30
0.0
 10
163.031783131968
 20
-632.2247174456134
 30
0.0
 10
173.5487866321
 20
-632.2247174456134
 30
0.0
 10
182.3103539170452
 20
-631.5243273927954
 30
0.0
 10
186.5171553170976
 20
-630.121316745588
 30
0.0
 10
186.5171553170976
 20
-630.121316745588
 30
0.0
 10
188.6205560171238
 20
-662.3682562156628
 30
0.0
 10
188.6205560171238
 20
-662.3682562156628
 30
0.0
 10
188.6205560171238
 20
-662.3682562156628
 30
0.0
 10
174.9495667377378
 20
-662.7184512420718
 30
0.0
 10
174.9495667377378
 20
-662.7184512420718
 30
0.0
 10
174.9495667377378
 20
-662.7184512420718
 30
0.0
 10
167.9389745848393
 20
-751.7482874465804
 30
0.0
 10
167.9389745848393
 20
-812.0353649866793
 30
0.0
 10
167.9389745848393
 20
-841.1283186774999
 30
0.0
 10
169.3419852320467
 20
-863.210680215423
 30
0.0
 10
174.2491766849189
 20
-866.0144709682681
 30
0.0
 10
174.2491766849189
 20
-866.0144709682681
 30
0.0
 10
215.2576834399397
 20
-863.210680215423
 30
0.0
 10
215.2576834399397
 20
-863.210680215423
 30
0.0
 10
215.2576834399397
 20
-863.210680215423
 30
0.0
 10
216.3104990607371
 20
-822.5501379452417
 30
0.0
 10
216.3104990607371
 20
-822.5501379452417
 30
0.0
 10
216.3104990607371
 20
-822.5501379452417
 30
0.0
 10
255.5658001421416
 20
-826.0565492924743
 30
0.0
 10
255.5658001421416
 20
-826.0565492924743
 30
0.0
 10
255.5658001421416
 20
-826.0565492924743
 30
0.0
 10
234.8864492514258
 20
-881.7866304061099
 30
0.0
 10
234.8864492514258
 20
-897.5610203855231
 30
0.0
 10
234.8864492514258
 20
-897.5610203855231
 30
0.0
 10
235.2366442778357
 20
-900.0123855703896
 30
0.0
 10
235.2366442778357
 20
-900.0123855703896
 30
0.0
 10
235.2366442778357
 20
-900.0123855703896
 30
0.0
 10
210.3504919870675
 20
-903.1686018912151
 30
0.0
 10
210.3504919870675
 20
-903.1686018912151
 30
0.0
 10
210.3504919870675
 20
-903.1686018912151
 30
0.0
 10
210.7006870134774
 20
-894.7549990911084
 30
0.0
 10
210.7006870134774
 20
-894.7549990911084
 30
0.0
  0
SPLINE
  5
75
330
70
100
AcDbEntity
  8
Layer 1
370
     0
100
AcDbSpline
210
0.0
220
0.0
230
1.0
 70
    11
 71
     3
 72
    17
 73
    13
 74
     0
 42
0.0000000001
 43
0.0000000001
 12
1.0
 22
0.0
 32
0.0
 13
1.0
 23
0.0
 33
0.0
 40
0.0
 40
0.0
 40
0.0
 40
0.0
 40
1.0
 40
1.0
 40
1.0
 40
2.0
 40
2.0
 40
2.0
 40
3.0
 40
3.0
 40
3.0
 40
4.0
 40
4.0
 40
4.0
 40
4.0
 10
254.858718464614
 20
-758.408684573069
 30
0.0
 10
254.858718464614
 20
-692.8619900121212
 30
0.0
 10
300.0740266196872
 20
-639.5855046249217
 30
0.0
 10
355.4539127069129
 20
-639.5855046249217
 30
0.0
 10
411.1839938205494
 20
-639.5855046249217
 30
0.0
 10
456.0491069492127
 20
-692.8619900121212
 30
0.0
 10
456.0491069492127
 20
-758.408684573069
 30
0.0
 10
456.0491069492127
 20
-823.953148592449
 30
0.0
 10
411.1839938205494
 20
-876.8794389532395
 30
0.0
 10
355.4539127069129
 20
-876.8794389532395
 30
0.0
 10
300.0740266196872
 20
-876.8794389532395
 30
0.0
 10
254.858718464614
 20
-823.953148592449
 30
0.0
 10
254.858718464614
 20
-758.408684573069
 30
0.0
  0
SPLINE
  5
76
330
70
100
AcDbEntity
  8
Layer 1
370
     0
100
AcDbSpline
210
0.0
220
0.0
230
1.0
 70
    11
 71
     3
 72
    17
 73
    13
 74
     0
 42
0.0000000001
 43
0.0000000001
 12
1.0
 22
0.0
 32
0.0
 13
1.0
 23
0.0
 33
0.0
 40
0.0
 40
0.0
 40
0.0
 40
0.0
 40
1.0
 40
1.0
 40
1.0
 40
2.0
 40
2.0
 40
2.0
 40
3.0
 40
3.0
 40
3.0
 40
4.0
 40
4.0
 40
4.0
 40
4.0
 10
417.1440008942191
 20
-755.6048938202239
 30
0.0
 10
417.1440008942191
 20
-705.1299686442999
 30
0.0
 10
397.1650400563231
 20
-669.3788483685603
 30
0.0
 10
368.4222813919114
 20
-669.3788483685603
 30
0.0
 10
339.6817532690702
 20
-669.3788483685603
 30
0.0
 10
316.5465761103496
 20
-706.1827842650982
 30
0.0
 10
316.5465761103496
 20
-756.6554788994526
 30
0.0
 10
316.5465761103496
 20
-807.1281735338071
 30
0.0
 10
339.6817532690702
 20
-839.3751130038836
 30
0.0
 10
368.4222813919114
 20
-839.3751130038836
 30
0.0
 10
397.1650400563231
 20
-839.3751130038836
 30
0.0
 10
417.1440008942191
 20
-806.0775884545783
 30
0.0
 10
417.1440008942191
 20
-755.6048938202239
 30
0.0
  0
SPLINE
  5
77
330
70
100
AcDbEntity
  8
Layer 1
370
     0
100
AcDbSpline
210
0.0
220
0.0
230
1.0
 70
    11
 71
     3
 72
    56
 73
    52
 74
     0
 42
0.0000000001
 43
0.0000000001
 12
1.0
 22
0.0
 32
0.0
 13
1.0
 23
0.0
 33
0.0
 40
0.0
 40
0.0
 40
0.0
 40
0.0
 40
1.0
 40
1.0
 40
1.0
 40
2.0
 40
2.0
 40
2.0
 40
3.0
 40
3.0
 40
3.0
 40
4.0
 40
4.0
 40
4.0
 40
5.0
 40
5.0
 40
5.0
 40
6.0
 40
6.0
 40
6.0
 40
7.0
 40
7.0
 40
7.0
 40
8.0
 40
8.0
 40
8.0
 40
9.0
 40
9.0
 40
9.0
 40
10.0
 40
10.0
 40
10.0
 40
11.0
 40
11.0
 40
11.0
 40
12.0
 40
12.0
 40
12.0
 40
13.0
 40
13.0
 40
13.0
 40
14.0
 40
14.0
 40
14.0
 40
15.0
 40
15.0
 40
15.0
 40
16.0
 40
16.0
 40
16.0
 40
17.0
 40
17.0
 40
17.0
 40
17.0
 10
459.2053232700373
 20
-677.4400256006866
 30
0.0
 10
459.2053232700373
 20
-677.4400256006866
 30
0.0
 10
440.2791780529387
 20
-674.9864298742505
 30
0.0
 10
440.2791780529387
 20
-674.9864298742505
 30
0.0
 10
440.2791780529387
 20
-674.9864298742505
 30
0.0
 10
450.7939510115011
 20
-637.8322989513035
 30
0.0
 10
450.7939510115011
 20
-637.8322989513035
 30
0.0
 10
450.7939510115011
 20
-637.8322989513035
 30
0.0
 10
536.3173758687772
 20
-647.646681857048
 30
0.0
 10
536.3173758687772
 20
-647.646681857048
 30
0.0
 10
536.3173758687772
 20
-647.646681857048
 30
0.0
 10
533.1633900895222
 20
-674.9864298742505
 30
0.0
 10
533.1633900895222
 20
-681.29663197433
 30
0.0
 10
533.1633900895222
 20
-681.29663197433
 30
0.0
 10
515.2878299516524
 20
-682.6974120799678
 30
0.0
 10
515.2878299516524
 20
-682.6974120799678
 30
0.0
 10
514.5874398988335
 20
-683.4000326743571
 30
0.0
 10
514.235014330854
 20
-685.8536284007932
 30
0.0
 10
514.235014330854
 20
-689.7080042328671
 30
0.0
 10
514.235014330854
 20
-720.5519330557345
 30
0.0
 10
534.9165957631385
 20
-843.2317193775252
 30
0.0
 10
545.7815637481108
 20
-857.95329373614
 30
0.0
 10
545.7815637481108
 20
-857.95329373614
 30
0.0
 10
599.0580491353103
 20
-706.883174317918
 30
0.0
 10
599.0580491353103
 20
-684.1004227271751
 30
0.0
 10
599.0580491353103
 20
-684.1004227271751
 30
0.0
 10
599.0580491353103
 20
-683.7502277007661
 30
0.0
 10
599.0580491353103
 20
-683.7502277007661
 30
0.0
 10
599.0580491353103
 20
-683.7502277007661
 30
0.0
 10
578.0285032181855
 20
-680.946436947921
 30
0.0
 10
578.0285032181855
 20
-680.946436947921
 30
0.0
 10
578.0285032181855
 20
-680.946436947921
 30
0.0
 10
582.2353046182379
 20
-651.5032882306914
 30
0.0
 10
582.2353046182379
 20
-651.5032882306914
 30
0.0
 10
582.2353046182379
 20
-651.5032882306914
 30
0.0
 10
635.5117900054393
 20
-657.4610647627906
 30
0.0
 10
635.5117900054393
 20
-657.4610647627906
 30
0.0
 10
635.5117900054393
 20
-657.4610647627906
 30
0.0
 10
629.5540134733383
 20
-688.6574191536383
 30
0.0
 10
629.5540134733383
 20
-688.6574191536383
 30
0.0
 10
629.5540134733383
 20
-688.6574191536383
 30
0.0
 10
618.6868149467973
 20
-686.5540184536112
 30
0.0
 10
618.6868149467973
 20
-686.5540184536112
 30
0.0
 10
618.6868149467973
 20
-686.5540184536112
 30
0.0
 10
586.0896804503118
 20
-859.3540738417796
 30
0.0
 10
560.1529430803166
 20
-884.240226132546
 30
0.0
 10
560.1529430803166
 20
-884.240226132546
 30
0.0
 10
525.8026029102148
 20
-891.6010133118543
 30
0.0
 10
524.752017830986
 20
-899.6621905439806
 30
0.0
 10
524.752017830986
 20
-899.6621905439806
 30
0.0
 10
469.3699012021898
 20
-876.5292439268305
 30
0.0
 10
459.2053232700373
 20
-677.4400256006866
 30
0.0
  0
SPLINE
  5
78
330
70
100
AcDbEntity
  8
Layer 1
370
     0
100
AcDbSpline
210
0.0
220
0.0
230
1.0
 70
    11
 71
     3
 72
    86
 73
    82
 74
     0
 42
0.0000000001
 43
0.0000000001
 12
1.0
 22
0.0
 32
0.0
 13
1.0
 23
0.0
 33
0.0
 40
0.0
 40
0.0
 40
0.0
 40
0.0
 40
1.0
 40
1.0
 40
1.0
 40
2.0
 40
2.0
 40
2.0
 40
3.0
 40
3.0
 40
3.0
 40
4.0
 40
4.0
 40
4.0
 40
5.0
 40
5.0
 40
5.0
 40
6.0
 40
6.0
 40
6.0
 40
7.0
 40
7.0
 40
7.0
 40
8.0
 40
8.0
 40
8.0
 40
9.0
 40
9.0
 40
9.0
 40
10.0
 40
10.0
 40
10.0
 40
11.0
 40
11.0
 40
11.0
 40
12.0
 40
12.0
 40
12.0
 40
13.0
 40
13.0
 40
13.0
 40
14.0
 40
14.0
 40
14.0
 40
15.0
 40
15.0
 40
15.0
 40
16.0
 40
16.0
 40
16.0
 40
17.0
 40
17.0
 40
17.0
 40
18.0
 40
18.0
 40
18.0
 40
19.0
 40
19.0
 40
19.0
 40
20.0
 40
20.0
 40
20.0
 40
21.0
 40
21.0
 40
21.0
 40
22.0
 40
22.0
 40
22.0
 40
23.0
 40
23.0
 40
23.0
 40
24.0
 40
24.0
 40
24.0
 40
25.0
 40
25.0
 40
25.0
 40
26.0
 40
26.0
 40
26.0
 40
27.0
 40
27.0
 40
27.0
 40
27.0
 10
726.2926013419947
 20
-885.6432367797534
 30
0.0
 10
689.8388604718675
 20
-885.6432367797534
 30
0.0
 10
653.3873501433081
 20
-886.3436268325731
 30
0.0
 10
653.3873501433081
 20
-886.3436268325731
 30
0.0
 10
653.3873501433081
 20
-886.3436268325731
 30
0.0
 10
652.6847295489206
 20
-864.9616553474698
 30
0.0
 10
652.6847295489206
 20
-864.9616553474698
 30
0.0
 10
652.6847295489206
 20
-864.9616553474698
 30
0.0
 10
669.1595095811517
 20
-865.3140809154484
 30
0.0
 10
669.1595095811517
 20
-865.3140809154484
 30
0.0
 10
669.5097046075607
 20
-864.9616553474698
 30
0.0
 10
669.5097046075607
 20
-863.210680215423
 30
0.0
 10
669.5097046075607
 20
-860.757084488987
 30
0.0
 10
669.5097046075607
 20
-832.0143258245753
 30
0.0
 10
658.2945415961804
 20
-683.0476071063786
 30
0.0
 10
658.2945415961804
 20
-683.0476071063786
 30
0.0
 10
658.2945415961804
 20
-683.0476071063786
 30
0.0
 10
645.3239423696123
 20
-684.1004227271751
 30
0.0
 10
645.3239423696123
 20
-684.1004227271751
 30
0.0
 10
645.3239423696123
 20
-684.1004227271751
 30
0.0
 10
642.5201516167672
 20
-651.8534832571004
 30
0.0
 10
642.5201516167672
 20
-651.8534832571004
 30
0.0
 10
642.5201516167672
 20
-651.8534832571004
 30
0.0
 10
813.569231872887
 20
-645.8957067250012
 30
0.0
 10
813.569231872887
 20
-645.8957067250012
 30
0.0
 10
810.0628205256526
 20
-650.8028981778716
 30
0.0
 10
809.7126254992436
 20
-677.7902206270956
 30
0.0
 10
809.7126254992436
 20
-693.5646106065087
 30
0.0
 10
809.7126254992436
 20
-693.5646106065087
 30
0.0
 10
809.7126254992436
 20
-705.1299686442999
 30
0.0
 10
809.7126254992436
 20
-705.1299686442999
 30
0.0
 10
809.7126254992436
 20
-705.1299686442999
 30
0.0
 10
780.6219023499925
 20
-706.5329792915072
 30
0.0
 10
780.6219023499925
 20
-706.5329792915072
 30
0.0
 10
780.6219023499925
 20
-706.5329792915072
 30
0.0
 10
784.8264732084754
 20
-674.6362348478415
 30
0.0
 10
784.8264732084754
 20
-674.6362348478415
 30
0.0
 10
784.8264732084754
 20
-674.6362348478415
 30
0.0
 10
723.4888105891496
 20
-680.946436947921
 30
0.0
 10
723.4888105891496
 20
-680.946436947921
 30
0.0
 10
721.7356049155333
 20
-684.1004227271751
 30
0.0
 10
721.3854098891243
 20
-719.1511529500967
 30
0.0
 10
721.3854098891243
 20
-757.3558689522724
 30
0.0
 10
721.3854098891243
 20
-757.3558689522724
 30
0.0
 10
755.0331294648367
 20
-753.5014931201986
 30
0.0
 10
755.0331294648367
 20
-753.5014931201986
 30
0.0
 10
755.0331294648367
 20
-753.5014931201986
 30
0.0
 10
754.332739412017
 20
-744.3875002672739
 30
0.0
 10
754.332739412017
 20
-744.3875002672739
 30
0.0
 10
754.332739412017
 20
-744.3875002672739
 30
0.0
 10
769.0543137706336
 20
-744.037305240865
 30
0.0
 10
769.0543137706336
 20
-744.037305240865
 30
0.0
 10
769.0543137706336
 20
-744.037305240865
 30
0.0
 10
770.4573244178391
 20
-788.9024183695274
 30
0.0
 10
770.4573244178391
 20
-788.9024183695274
 30
0.0
 10
770.4573244178391
 20
-788.9024183695274
 30
0.0
 10
753.632349359199
 20
-787.49940772232
 30
0.0
 10
753.632349359199
 20
-787.49940772232
 30
0.0
 10
753.632349359199
 20
-787.49940772232
 30
0.0
 10
754.6829344384278
 20
-776.9846347637576
 30
0.0
 10
754.6829344384278
 20
-776.9846347637576
 30
0.0
 10
754.6829344384278
 20
-776.9846347637576
 30
0.0
 10
721.3854098891243
 20
-778.7378404373758
 30
0.0
 10
721.3854098891243
 20
-778.7378404373758
 30
0.0
 10
721.7356049155333
 20
-821.4995528660129
 30
0.0
 10
722.4359949683512
 20
-862.1578645946247
 30
0.0
 10
722.4359949683512
 20
-862.1578645946247
 30
0.0
 10
722.4359949683512
 20
-862.1578645946247
 30
0.0
 10
768.3539237178138
 20
-863.210680215423
 30
0.0
 10
768.3539237178138
 20
-863.210680215423
 30
0.0
 10
768.3539237178138
 20
-863.210680215423
 30
0.0
 10
773.961505223504
 20
-819.0459571395768
 30
0.0
 10
773.961505223504
 20
-819.0459571395768
 30
0.0
 10
773.961505223504
 20
-819.0459571395768
 30
0.0
 10
814.9700119785248
 20
-828.1599499925014
 30
0.0
 10
814.9700119785248
 20
-828.1599499925014
 30
0.0
 10
808.3118453936058
 20
-829.2105350717302
 30
0.0
 10
797.7970724350434
 20
-889.1474175854182
 30
0.0
 10
797.7970724350434
 20
-889.1474175854182
 30
0.0
 10
794.6408561142198
 20
-886.3436268325731
 30
0.0
 10
760.2905159441179
 20
-885.6432367797534
 30
0.0
 10
726.2926013419947
 20
-885.6432367797534
 30
0.0
  0
SPLINE
  5
79
330
70
100
AcDbEntity
  8
Layer 1
370
     0
100
AcDbSpline
210
0.0
220
0.0
230
1.0
 70
    11
 71
     3
 72
    92
 73
    88
 74
     0
 42
0.0000000001
 43
0.0000000001
 12
1.0
 22
0.0
 32
0.0
 13
1.0
 23
0.0
 33
0.0
 40
0.0
 40
0.0
 40
0.0
 40
0.0
 40
1.0
 40
1.0
 40
1.0
 40
2.0
 40
2.0
 40
2.0
 40
3.0
 40
3.0
 40
3.0
 40
4.0
 40
4.0
 40
4.0
 40
5.0
 40
5.0
 40
5.0
 40
6.0
 40
6.0
 40
6.0
 40
7.0
 40
7.0
 40
7.0
 40
8.0
 40
8.0
 40
8.0
 40
9.0
 40
9.0
 40
9.0
 40
10.0
 40
10.0
 40
10.0
 40
11.0
 40
11.0
 40
11.0
 40
12.0
 40
12.0
 40
12.0
 40
13.0
 40
13.0
 40
13.0
 40
14.0
 40
14.0
 40
14.0
 40
15.0
 40
15.0
 40
15.0
 40
16.0
 40
16.0
 40
16.0
 40
17.0
 40
17.0
 40
17.0
 40
18.0
 40
18.0
 40
18.0
 40
19.0
 40
19.0
 40
19.0
 40
20.0
 40
20.0
 40
20.0
 40
21.0
 40
21.0
 40
21.0
 40
22.0
 40
22.0
 40
22.0
 40
23.0
 40
23.0
 40
23.0
 40
24.0
 40
24.0
 40
24.0
 40
25.0
 40
25.0
 40
25.0
 40
26.0
 40
26.0
 40
26.0
 40
27.0
 40
27.0
 40
27.0
 40
28.0
 40
28.0
 40
28.0
 40
29.0
 40
29.0
 40
29.0
 40
29.0
 10
843.0101500485471
 20
-856.5502830889345
 30
0.0
 10
843.0101500485471
 20
-856.5502830889345
 30
0.0
 10
831.0923664427773
 20
-861.1072795153959
 30
0.0
 10
831.0923664427773
 20
-861.1072795153959
 30
0.0
 10
831.0923664427773
 20
-861.1072795153959
 30
0.0
 10
821.9783735898527
 20
-845.6853151039613
 30
0.0
 10
821.9783735898527
 20
-845.6853151039613
 30
0.0
 10
821.9783735898527
 20
-845.6853151039613
 30
0.0
 10
864.3898909920827
 20
-819.3961521659858
 30
0.0
 10
864.3898909920827
 20
-819.3961521659858
 30
0.0
 10
864.3898909920827
 20
-819.3961521659858
 30
0.0
 10
877.0080646506703
 20
-838.6747229510638
 30
0.0
 10
877.0080646506703
 20
-838.6747229510638
 30
0.0
 10
877.0080646506703
 20
-838.6747229510638
 30
0.0
 10
861.5861002392357
 20
-848.4891058568064
 30
0.0
 10
861.5861002392357
 20
-848.4891058568064
 30
0.0
 10
869.647277471362
 20
-867.7676766418845
 30
0.0
 10
884.3688518299787
 20
-875.4786588476018
 30
0.0
 10
897.3372205149753
 20
-875.4786588476018
 30
0.0
 10
911.0082097943632
 20
-875.4786588476018
 30
0.0
 10
922.5757983737221
 20
-867.0650560474951
 30
0.0
 10
922.5757983737221
 20
-854.7970774153164
 30
0.0
 10
922.5757983737221
 20
-854.7970774153164
 30
0.0
 10
922.5757983737221
 20
-854.0966873624984
 30
0.0
 10
922.5757983737221
 20
-854.0966873624984
 30
0.0
 10
922.2233728057436
 20
-832.3645208509843
 30
0.0
 10
888.2254582036203
 20
-800.8202019752971
 30
0.0
 10
865.7929016392882
 20
-776.6344397373487
 30
0.0
 10
845.8139408013922
 20
-754.9022732258363
 30
0.0
 10
834.9467422748512
 20
-726.5119401294032
 30
0.0
 10
834.9467422748512
 20
-700.5729722178385
 30
0.0
 10
834.9467422748512
 20
-662.3682562156628
 30
0.0
 10
858.4321144599817
 20
-629.0707316663593
 30
0.0
 10
911.7085998471812
 20
-629.0707316663593
 30
0.0
 10
911.7085998471812
 20
-629.0707316663593
 30
0.0
 10
921.5229827529256
 20
-629.4209266927683
 30
0.0
 10
921.5229827529256
 20
-629.4209266927683
 30
0.0
 10
974.8016986816947
 20
-633.2753025248421
 30
0.0
 10
985.6666666666661
 20
-661.667866162843
 30
0.0
 10
985.6666666666661
 20
-682.3472170535588
 30
0.0
 10
985.6666666666661
 20
-691.4612099064834
 30
0.0
 10
983.9134609930497
 20
-699.1721921122007
 30
0.0
 10
982.1624858610012
 20
-702.6763729178638
 30
0.0
 10
978.3058794873577
 20
-711.4401707443794
 30
0.0
 10
961.4809044287176
 20
-734.2229223351205
 30
0.0
 10
942.2023336436396
 20
-734.2229223351205
 30
0.0
 10
935.1939720323116
 20
-734.2229223351205
 30
0.0
 10
927.4829898265943
 20
-730.7187415294575
 30
0.0
 10
920.122202647286
 20
-722.3051387293508
 30
0.0
 10
914.5123906000263
 20
-715.9971671708408
 30
0.0
 10
912.4112204415705
 20
-709.6869650707631
 30
0.0
 10
912.4112204415705
 20
-704.4295785914819
 30
0.0
 10
912.4112204415705
 20
-692.8619900121212
 30
0.0
 10
923.2761884265419
 20
-685.5012028328129
 30
0.0
 10
934.1411564115133
 20
-685.5012028328129
 30
0.0
 10
941.8521386172306
 20
-685.5012028328129
 30
0.0
 10
949.9155463909265
 20
-689.7080042328671
 30
0.0
 10
952.7193371437716
 20
-699.5223871386097
 30
0.0
 10
954.4703122758183
 20
-696.0182063329448
 30
0.0
 10
955.1729328702077
 20
-692.5117949857122
 30
0.0
 10
955.1729328702077
 20
-689.3578092064563
 30
0.0
 10
955.1729328702077
 20
-674.9864298742505
 30
0.0
 10
940.8015535380018
 20
-664.4716569156881
 30
0.0
 10
926.079979179387
 20
-664.4716569156881
 30
0.0
 10
926.079979179387
 20
-664.4716569156881
 30
0.0
 10
925.0293941001582
 20
-664.4716569156881
 30
0.0
 10
925.0293941001582
 20
-664.4716569156881
 30
0.0
 10
904.3478126678747
 20
-665.1720469685079
 30
0.0
 10
895.9364404093376
 20
-683.4000326743571
 30
0.0
 10
895.9364404093376
 20
-703.0265679442746
 30
0.0
 10
895.9364404093376
 20
-718.8009579236859
 30
0.0
 10
901.1938268886188
 20
-735.2735074143493
 30
0.0
 10
909.2550041207451
 20
-744.3875002672739
 30
0.0
 10
932.3901812794666
 20
-770.6766632052495
 30
0.0
 10
978.6560745137685
 20
-801.5205920281169
 30
0.0
 10
978.6560745137685
 20
-847.0860952095991
 30
0.0
 10
978.6560745137685
 20
-847.0860952095991
 30
0.0
 10
978.6560745137685
 20
-850.2423115304246
 30
0.0
 10
978.6560745137685
 20
-850.2423115304246
 30
0.0
 10
976.9028688401504
 20
-884.5904211589568
 30
0.0
 10
946.058940017283
 20
-904.9195770232618
 30
0.0
 10
921.5229827529256
 20
-908.4259883704963
 30
0.0
 10
918.3689969736697
 20
-908.7761833969053
 30
0.0
 10
915.2150111944156
 20
-909.1263784233142
 30
0.0
 10
912.058794873592
 20
-909.1263784233142
 30
0.0
 10
883.3182667507499
 20
-909.1263784233142
 30
0.0
 10
852.1219123599021
 20
-890.5504282326256
 30
0.0
 10
843.0101500485471
 20
-856.5502830889345
 30
0.0
  0
ENDBLK
  5
73
330
70
100
AcDbEntity
  8
0
100
AcDbBlockEnd
  0
BLOCK
  5
7C
330
7A
100
AcDbEntity
  8
0
100
AcDbBlockBegin
  2
block 11
 70
     0
 10
0.0
 20
0.0
 30
0.0
  3
block 11
  1

  0
SPLINE
  5
7E
330
7A
100
AcDbEntity
  8
Layer 1
370
     0
100
AcDbSpline
210
0.0
220
0.0
230
1.0
 70
    11
 71
     3
 72
   125
 73
   121
 74
     0
 42
0.0000000001
 43
0.0000000001
 12
1.0
 22
0.0
 32
0.0
 13
1.0
 23
0.0
 33
0.0
 40
0.0
 40
0.0
 40
0.0
 40
0.0
 40
1.0
 40
1.0
 40
1.0
 40
2.0
 40
2.0
 40
2.0
 40
3.0
 40
3.0
 40
3.0
 40
4.0
 40
4.0
 40
4.0
 40
5.0
 40
5.0
 40
5.0
 40
6.0
 40
6.0
 40
6.0
 40
7.0
 40
7.0
 40
7.0
 40
8.0
 40
8.0
 40
8.0
 40
9.0
 40
9.0
 40
9.0
 40
10.0
 40
10.0
 40
10.0
 40
11.0
 40
11.0
 40
11.0
 40
12.0
 40
12.0
 40
12.0
 40
13.0
 40
13.0
 40
13.0
 40
14.0
 40
14.0
 40
14.0
 40
15.0
 40
15.0
 40
15.0
 40
16.0
 40
16.0
 40
16.0
 40
17.0
 40
17.0
 40
17.0
 40
18.0
 40
18.0
 40
18.0
 40
19.0
 40
19.0
 40
19.0
 40
20.0
 40
20.0
 40
20.0
 40
21.0
 40
21.0
 40
21.0
 40
22.0
 40
22.0
 40
22.0
 40
23.0
 40
23.0
 40
23.0
 40
24.0
 40
24.0
 40
24.0
 40
25.0
 40
25.0
 40
25.0
 40
26.0
 40
26.0
 40
26.0
 40
27.0
 40
27.0
 40
27.0
 40
28.0
 40
28.0
 40
28.0
 40
29.0
 40
29.0
 40
29.0
 40
30.0
 40
30.0
 40
30.0
 40
31.0
 40
31.0
 40
31.0
 40
32.0
 40
32.0
 40
32.0
 40
33.0
 40
33.0
 40
33.0
 40
34.0
 40
34.0
 40
34.0
 40
35.0
 40
35.0
 40
35.0
 40
36.0
 40
36.0
 40
36.0
 40
37.0
 40
37.0
 40
37.0
 40
38.0
 40
38.0
 40
38.0
 40
39.0
 40
39.0
 40
39.0
 40
40.0
 40
40.0
 40
40.0
 40
40.0
 10
759.812761821704
 20
-413.1635087239811
 30
0.0
 10
758.4556166855182
 20
-410.5713406025416
 30
0.0
 10
756.583913491022
 20
-408.9608895893716
 30
0.0
 10
754.5242871692972
 20
-408.9608895893716
 30
0.0
 10
754.5242871692972
 20
-408.9608895893716
 30
0.0
 10
712.7516805178784
 20
-408.9608895893716
 30
0.0
 10
712.7516805178784
 20
-408.9608895893716
 30
0.0
 10
710.4733217134963
 20
-414.8405971665397
 30
0.0
 10
692.6156059081823
 20
-413.3815441623992
 30
0.0
 10
689.0797792940011
 20
-412.6490900745184
 30
0.0
 10
685.5503654868317
 20
-411.9195635724482
 30
0.0
 10
682.1674703790086
 20
-410.6400691646513
 30
0.0
 10
679.2665116590415
 20
-408.7711541471172
 30
0.0
 10
679.2665116590415
 20
-408.7711541471172
 30
0.0
 10
679.2665116590415
 20
-406.0277274254959
 30
0.0
 10
679.2665116590415
 20
-406.0277274254959
 30
0.0
 10
679.2665116590415
 20
-395.200539238358
 30
0.0
 10
673.06323614545
 20
-386.3431980747719
 30
0.0
 10
665.4785583561061
 20
-386.3431980747719
 30
0.0
 10
665.4785583561061
 20
-386.3431980747719
 30
0.0
 10
421.5298032552228
 20
-386.3431980747719
 30
0.0
 10
421.5298032552228
 20
-386.3431980747719
 30
0.0
 10
413.9459619189665
 20
-386.3431980747719
 30
0.0
 10
407.7424075876788
 20
-395.200539238358
 30
0.0
 10
407.7424075876788
 20
-406.0277274254959
 30
0.0
 10
407.7424075876788
 20
-406.0277274254959
 30
0.0
 10
407.7424075876788
 20
-408.7703176940286
 30
0.0
 10
407.7424075876788
 20
-408.7703176940286
 30
0.0
 10
404.8411700500164
 20
-410.6396509381066
 30
0.0
 10
401.4582749421934
 20
-411.9194241635996
 30
0.0
 10
397.9285823173277
 20
-412.6490900745184
 30
0.0
 10
394.3934527473866
 20
-413.3815441623992
 30
0.0
 10
376.5340640358954
 20
-414.8405971665397
 30
0.0
 10
374.2557052315133
 20
-408.9608895893716
 30
0.0
 10
374.2557052315133
 20
-408.9608895893716
 30
0.0
 10
332.4833773977907
 20
-408.9608895893716
 30
0.0
 10
332.4833773977907
 20
-408.9608895893716
 30
0.0
 10
330.4234722583697
 20
-408.9608895893716
 30
0.0
 10
328.5510720196326
 20
-410.5713406025416
 30
0.0
 10
327.1940662922962
 20
-413.1635087239811
 30
0.0
 10
325.8369211561112
 20
-415.7553980277262
 30
0.0
 10
324.9943340782374
 20
-419.3348596113601
 30
0.0
 10
324.9943340782374
 20
-423.2686984868469
 30
0.0
 10
324.9943340782374
 20
-423.2686984868469
 30
0.0
 10
324.9943340782374
 20
-430.6901285150743
 30
0.0
 10
324.9943340782374
 20
-430.6901285150743
 30
0.0
 10
324.9943340782374
 20
-434.6206215782076
 30
0.0
 10
325.8360847030226
 20
-438.1986890733606
 30
0.0
 10
327.1940662922962
 20
-440.790857194801
 30
0.0
 10
327.1940662922962
 20
-440.790857194801
 30
0.0
 10
327.1940662922962
 20
-440.7918330567372
 30
0.0
 10
327.1940662922962
 20
-440.7918330567372
 30
0.0
 10
327.1940662922962
 20
-440.7918330567372
 30
0.0
 10
327.1955997896257
 20
-440.7942030071554
 30
0.0
 10
327.1955997896257
 20
-440.7942030071554
 30
0.0
 10
328.5527449258097
 20
-443.387346990532
 30
0.0
 10
330.4275151149641
 20
-444.9968221417657
 30
0.0
 10
332.4833773977907
 20
-444.9968221417657
 30
0.0
 10
332.4833773977907
 20
-444.9968221417657
 30
0.0
 10
374.2700643428661
 20
-444.9968221417657
 30
0.0
 10
374.2700643428661
 20
-444.9968221417657
 30
0.0
 10
376.3363822892998
 20
-439.0493618644241
 30
0.0
 10
395.977276670571
 20
-442.2475402485243
 30
0.0
 10
398.8497959855258
 20
-442.8421189856408
 30
0.0
 10
402.0297118105264
 20
-443.4995711132469
 30
0.0
 10
405.0784439094705
 20
-444.5606118560827
 30
0.0
 10
407.7424075876788
 20
-446.098152041699
 30
0.0
 10
407.7424075876788
 20
-446.098152041699
 30
0.0
 10
407.7424075876788
 20
-447.9287296260081
 30
0.0
 10
407.7424075876788
 20
-447.9287296260081
 30
0.0
 10
407.7424075876788
 20
-458.7570330839317
 30
0.0
 10
413.9459619189665
 20
-467.6170230156304
 30
0.0
 10
421.5298032552228
 20
-467.6170230156304
 30
0.0
 10
421.5298032552228
 20
-467.6170230156304
 30
0.0
 10
530.4071377538767
 20
-467.6170230156304
 30
0.0
 10
530.4071377538767
 20
-467.6170230156304
 30
0.0
 10
524.5254784528352
 20
-458.2618528555049
 30
0.0
 10
525.116850786445
 20
-444.8348290602808
 30
0.0
 10
532.1872493351748
 20
-436.304122827778
 30
0.0
 10
536.1856345073284
 20
-430.9208501586691
 30
0.0
 10
542.557455318265
 20
-427.2216363745229
 30
0.0
 10
551.3081487130585
 20
-427.2216363745229
 30
0.0
 10
562.928433836998
 20
-427.2216363745229
 30
0.0
 10
570.3526520421874
 20
-433.7189251487416
 30
0.0
 10
573.592095445325
 20
-442.0302018543471
 30
0.0
 10
577.3787185772253
 20
-449.977900284126
 30
0.0
 10
577.0757831503179
 20
-460.0071122247809
 30
0.0
 10
572.6731123186946
 20
-467.6170230156304
 30
0.0
 10
572.6731123186946
 20
-467.6170230156304
 30
0.0
 10
665.4785583561061
 20
-467.6170230156304
 30
0.0
 10
665.4785583561061
 20
-467.6170230156304
 30
0.0
 10
673.06323614545
 20
-467.6170230156304
 30
0.0
 10
679.2665116590415
 20
-458.7570330839317
 30
0.0
 10
679.2665116590415
 20
-447.9287296260081
 30
0.0
 10
679.2665116590415
 20
-447.9287296260081
 30
0.0
 10
679.2665116590415
 20
-446.0978732240037
 30
0.0
 10
679.2665116590415
 20
-446.0978732240037
 30
0.0
 10
681.9304753372508
 20
-444.5606118560827
 30
0.0
 10
684.979207436194
 20
-443.4995711132469
 30
0.0
 10
688.1584262169545
 20
-442.8421189856408
 30
0.0
 10
691.0302484876702
 20
-442.2475402485243
 30
0.0
 10
710.67267636627
 20
-439.0493618644241
 30
0.0
 10
712.7388549038551
 20
-444.9968221417657
 30
0.0
 10
712.7388549038551
 20
-444.9968221417657
 30
0.0
 10
754.5242871692972
 20
-444.9968221417657
 30
0.0
 10
754.5242871692972
 20
-444.9968221417657
 30
0.0
 10
756.5808464963648
 20
-444.9968221417657
 30
0.0
 10
758.4556166855182
 20
-443.387346990532
 30
0.0
 10
759.812761821704
 20
-440.7942030071554
 30
0.0
 10
759.812761821704
 20
-440.7942030071554
 30
0.0
 10
759.812761821704
 20
-440.790857194801
 30
0.0
 10
759.812761821704
 20
-440.790857194801
 30
0.0
 10
761.1729739525454
 20
-438.1986890733606
 30
0.0
 10
762.0140275330905
 20
-434.6206215782076
 30
0.0
 10
762.0140275330905
 20
-430.6901285150743
 30
0.0
 10
762.0140275330905
 20
-430.6901285150743
 30
0.0
 10
762.0140275330905
 20
-423.2686984868469
 30
0.0
 10
762.0140275330905
 20
-423.2686984868469
 30
0.0
 10
762.0140275330905
 20
-419.3348596113601
 30
0.0
 10
761.1697675490395
 20
-415.7553980277262
 30
0.0
 10
759.812761821704
 20
-413.1635087239811
 30
0.0
  0
ENDBLK
  5
7D
330
7A
100
AcDbEntity
  8
0
100
AcDbBlockEnd
  0
BLOCK
  5
81
330
7F
100
AcDbEntity
  8
0
100
AcDbBlockBegin
  2
block 12
 70
     0
 10
0.0
 20
0.0
 30
0.0
  3
block 12
  1

  0
INSERT
  5
84
330
7F
100
AcDbEntity
  8
Layer 1
100
AcDbBlockReference
  2
block 13
 10
0.0
 20
0.0
 30
0.0
  0
INSERT
  5
89
330
7F
100
AcDbEntity
  8
Layer 1
100
AcDbBlockReference
  2
block 14
 10
0.0
 20
0.0
 30
0.0
  0
INSERT
  5
8E
330
7F
100
AcDbEntity
  8
Layer 1
100
AcDbBlockReference
  2
block 15
 10
0.0
 20
0.0
 30
0.0
  0
INSERT
  5
93
330
7F
100
AcDbEntity
  8
Layer 1
100
AcDbBlockReference
  2
block 16
 10
0.0
 20
0.0
 30
0.0
  0
INSERT
  5
98
330
7F
100
AcDbEntity
  8
Layer 1
100
AcDbBlockReference
  2
block 17
 10
0.0
 20
0.0
 30
0.0
  0
ENDBLK
  5
82
330
7F
100
AcDbEntity
  8
0
100
AcDbBlockEnd
  0
BLOCK
  5
85
330
83
100
AcDbEntity
  8
0
100
AcDbBlockBegin
  2
block 13
 70
     0
 10
0.0
 20
0.0
 30
0.0
  3
block 13
  1

  0
SPLINE
  5
87
330
83
100
AcDbEntity
  8
Layer 1
370
     0
100
AcDbSpline
210
0.0
220
0.0
230
1.0
 70
    11
 71
     3
 72
    53
 73
    49
 74
     0
 42
0.0000000001
 43
0.0000000001
 12
1.0
 22
0.0
 32
0.0
 13
1.0
 23
0.0
 33
0.0
 40
0.0
 40
0.0
 40
0.0
 40
0.0
 40
1.0
 40
1.0
 40
1.0
 40
2.0
 40
2.0
 40
2.0
 40
3.0
 40
3.0
 40
3.0
 40
4.0
 40
4.0
 40
4.0
 40
5.0
 40
5.0
 40
5.0
 40
6.0
 40
6.0
 40
6.0
 40
7.0
 40
7.0
 40
7.0
 40
8.0
 40
8.0
 40
8.0
 40
9.0
 40
9.0
 40
9.0
 40
10.0
 40
10.0
 40
10.0
 40
11.0
 40
11.0
 40
11.0
 40
12.0
 40
12.0
 40
12.0
 40
13.0
 40
13.0
 40
13.0
 40
14.0
 40
14.0
 40
14.0
 40
15.0
 40
15.0
 40
15.0
 40
16.0
 40
16.0
 40
16.0
 40
16.0
 10
866.2287538011769
 20
-544.1787056170433
 30
0.0
 10
865.6738896190927
 20
-543.1046455108626
 30
0.0
 10
864.7674215884326
 20
-542.4748786711752
 30
0.0
 10
863.6611081462506
 20
-542.0439283359119
 30
0.0
 10
861.6922641436413
 20
-541.2769814456933
 30
0.0
 10
859.6603633323139
 20
-540.8687511109838
 30
0.0
 10
857.5539856849718
 20
-540.7402271006131
 30
0.0
 10
854.2995441829698
 20
-540.5416882211794
 30
0.0
 10
851.073791314986
 20
-540.859019629439
 30
0.0
 10
847.8483962892606
 20
-541.2012658095864
 30
0.0
 10
835.6769783282689
 20
-542.4928369563459
 30
0.0
 10
823.5974003880692
 20
-544.4183847574841
 30
0.0
 10
811.5667693570795
 20
-546.6344778356797
 30
0.0
 10
806.3792442683407
 20
-547.5901340374676
 30
0.0
 10
801.2561324488815
 20
-548.8919842235246
 30
0.0
 10
796.0942402348646
 20
-549.9920080637148
 30
0.0
 10
794.153824138215
 20
-550.4055015869799
 30
0.0
 10
792.1861406083353
 20
-550.6905793870064
 30
0.0
 10
790.2318334683041
 20
-551.0394927097877
 30
0.0
 10
789.872524550241
 20
-551.1036236882137
 30
0.0
 10
789.5005897741212
 20
-551.148799656221
 30
0.0
 10
789.1645041952252
 20
-551.2797890066813
 30
0.0
 10
788.4902779120657
 20
-551.5424728886064
 30
0.0
 10
788.236745149532
 20
-552.0883943031004
 30
0.0
 10
788.3116957950151
 20
-552.7883975606019
 30
0.0
 10
788.3820400805853
 20
-553.4453988504592
 30
0.0
 10
788.7883338722568
 20
-553.822673804978
 30
0.0
 10
789.4057291755798
 20
-553.9589179343093
 30
0.0
 10
789.70750979902
 20
-554.0254681655952
 30
0.0
 10
790.0285741437874
 20
-554.0166246455701
 30
0.0
 10
790.3411507962592
 20
-554.0206857918183
 30
0.0
 10
795.8331178637236
 20
-554.0922844228317
 30
0.0
 10
801.3259004362717
 20
-554.1243070653418
 30
0.0
 10
806.8169892665173
 20
-554.2375519136622
 30
0.0
 10
816.8669052939895
 20
-554.4448865374343
 30
0.0
 10
826.896550792475
 20
-554.2409798972385
 30
0.0
 10
836.8991604254406
 20
-553.1272798085065
 30
0.0
 10
842.7186481030258
 20
-552.4792982232975
 30
0.0
 10
848.5534558441141
 20
-551.9703065716021
 30
0.0
 10
854.3772640866846
 20
-551.359562378173
 30
0.0
 10
857.1916397684618
 20
-551.0644543914714
 30
0.0
 10
859.9642574800273
 20
-550.5429480042858
 30
0.0
 10
862.5874080260528
 20
-549.4163018419695
 30
0.0
 10
863.9272857061987
 20
-548.8408663844602
 30
0.0
 10
865.1833526915289
 20
-548.141479844362
 30
0.0
 10
866.143103529379
 20
-547.0052579234598
 30
0.0
 10
866.1716536199801
 20
-546.0630738213022
 30
0.0
 10
866.2002037105813
 20
-545.1208897191773
 30
0.0
 10
866.2287538011769
 20
-544.1787056170433
 30
0.0
  0
ENDBLK
  5
86
330
83
100
AcDbEntity
  8
0
100
AcDbBlockEnd
  0
BLOCK
  5
8A
330
88
100
AcDbEntity
  8
0
100
AcDbBlockBegin
  2
block 14
 70
     0
 10
0.0
 20
0.0
 30
0.0
  3
block 14
  1

  0
SPLINE
  5
8C
330
88
100
AcDbEntity
  8
Layer 1
370
     0
100
AcDbSpline
210
0.0
220
0.0
230
1.0
 70
    11
 71
     3
 72
    38
 73
    34
 74
     0
 42
0.0000000001
 43
0.0000000001
 12
1.0
 22
0.0
 32
0.0
 13
1.0
 23
0.0
 33
0.0
 40
0.0
 40
0.0
 40
0.0
 40
0.0
 40
1.0
 40
1.0
 40
1.0
 40
2.0
 40
2.0
 40
2.0
 40
3.0
 40
3.0
 40
3.0
 40
4.0
 40
4.0
 40
4.0
 40
5.0
 40
5.0
 40
5.0
 40
6.0
 40
6.0
 40
6.0
 40
7.0
 40
7.0
 40
7.0
 40
8.0
 40
8.0
 40
8.0
 40
9.0
 40
9.0
 40
9.0
 40
10.0
 40
10.0
 40
10.0
 40
11.0
 40
11.0
 40
11.0
 40
11.0
 10
783.0690253579705
 20
-456.4700168119871
 30
0.0
 10
782.9206672298205
 20
-456.5982143027995
 30
0.0
 10
782.7924909725334
 20
-456.7720729787652
 30
0.0
 10
782.6209350779227
 20
-456.8477642889111
 30
0.0
 10
779.2838011125805
 20
-458.3207701813717
 30
0.0
 10
776.5810768880438
 20
-460.6196723752191
 30
0.0
 10
774.3722851388538
 20
-463.4606301123713
 30
0.0
 10
772.4801717506016
 20
-465.894225313471
 30
0.0
 10
770.71599906546
 20
-468.4339991859179
 30
0.0
 10
769.0041153637285
 20
-470.999532366588
 30
0.0
 10
765.4617770097684
 20
-476.3078566586846
 30
0.0
 10
761.9927076060922
 20
-481.6650624386284
 30
0.0
 10
758.4917041486278
 20
-487.0010013558713
 30
0.0
 10
757.6256168203818
 20
-488.3209890880062
 30
0.0
 10
757.5780540087162
 20
-489.6525411681941
 30
0.0
 10
758.3654693176268
 20
-490.8123122267198
 30
0.0
 10
759.4784500577589
 20
-492.4516696722221
 30
0.0
 10
761.3754768301587
 20
-492.7089988267435
 30
0.0
 10
762.8180263801551
 20
-491.3488815402015
 30
0.0
 10
766.3198950475144
 20
-488.0472629390615
 30
0.0
 10
769.902096098067
 20
-484.8210252104172
 30
0.0
 10
773.2509895865896
 20
-481.3694150931142
 30
0.0
 10
777.8717596296683
 20
-476.606775049755
 30
0.0
 10
781.5286690405082
 20
-471.1138959137588
 30
0.0
 10
784.4189300148792
 20
-465.1511650887878
 30
0.0
 10
785.2724747089087
 20
-463.3903162474662
 30
0.0
 10
785.633591687756
 20
-461.3885302238832
 30
0.0
 10
786.1988435416351
 20
-459.4908572137056
 30
0.0
 10
786.5507649710453
 20
-458.3092023970039
 30
0.0
 10
786.1780310545619
 20
-457.3322186399137
 30
0.0
 10
785.2674549296298
 20
-456.5366336900861
 30
0.0
 10
784.5346322932255
 20
-456.5144276768215
 30
0.0
 10
783.8018479943785
 20
-456.4922228252553
 30
0.0
 10
783.0690253579705
 20
-456.4700168119871
 30
0.0
  0
ENDBLK
  5
8B
330
88
100
AcDbEntity
  8
0
100
AcDbBlockEnd
  0
BLOCK
  5
8F
330
8D
100
AcDbEntity
  8
0
100
AcDbBlockBegin
  2
block 15
 70
     0
 10
0.0
 20
0.0
 30
0.0
  3
block 15
  1

  0
SPLINE
  5
91
330
8D
100
AcDbEntity
  8
Layer 1
370
     0
100
AcDbSpline
210
0.0
220
0.0
230
1.0
 70
    11
 71
     3
 72
    44
 73
    40
 74
     0
 42
0.0000000001
 43
0.0000000001
 12
1.0
 22
0.0
 32
0.0
 13
1.0
 23
0.0
 33
0.0
 40
0.0
 40
0.0
 40
0.0
 40
0.0
 40
1.0
 40
1.0
 40
1.0
 40
2.0
 40
2.0
 40
2.0
 40
3.0
 40
3.0
 40
3.0
 40
4.0
 40
4.0
 40
4.0
 40
5.0
 40
5.0
 40
5.0
 40
6.0
 40
6.0
 40
6.0
 40
7.0
 40
7.0
 40
7.0
 40
8.0
 40
8.0
 40
8.0
 40
9.0
 40
9.0
 40
9.0
 40
10.0
 40
10.0
 40
10.0
 40
11.0
 40
11.0
 40
11.0
 40
12.0
 40
12.0
 40
12.0
 40
13.0
 40
13.0
 40
13.0
 40
13.0
 10
786.2255656608522
 20
-588.1521156170838
 30
0.0
 10
784.8370939098841
 20
-588.1049768990924
 30
0.0
 10
783.8152312364182
 20
-588.9127644214568
 30
0.0
 10
783.4859592911889
 20
-590.2080750022451
 30
0.0
 10
783.1614342153152
 20
-591.4847651376367
 30
0.0
 10
783.6537523634706
 20
-592.5245817258237
 30
0.0
 10
785.0198831128328
 20
-593.0785233667357
 30
0.0
 10
788.7514148908049
 20
-594.5914734236776
 30
0.0
 10
792.4766186704655
 20
-596.1283682025824
 30
0.0
 10
796.2584120279753
 20
-597.5073086591019
 30
0.0
 10
805.1991729838155
 20
-600.767470748191
 30
0.0
 10
814.1517360720518
 20
-603.9977910947982
 30
0.0
 10
823.1397438812237
 20
-607.1246580593361
 30
0.0
 10
827.1504717856114
 20
-608.5199753990237
 30
0.0
 10
831.3131297494256
 20
-609.3538981509901
 30
0.0
 10
835.5766265132879
 20
-609.5662061790536
 30
0.0
 10
835.9946431122353
 20
-609.5870079579581
 30
0.0
 10
836.4139805887535
 20
-609.5819481414765
 30
0.0
 10
836.8322423127775
 20
-609.5997258992411
 30
0.0
 10
837.9651569976086
 20
-609.6479464568238
 30
0.0
 10
838.9242290576585
 20
-609.3547153805539
 30
0.0
 10
839.3928640225386
 20
-608.210326886865
 30
0.0
 10
839.8389147296893
 20
-607.121086426585
 30
0.0
 10
839.4923242917721
 20
-605.7245595329714
 30
0.0
 10
838.5281719965733
 20
-604.9292313821934
 30
0.0
 10
837.926448266302
 20
-604.4328348285417
 30
0.0
 10
837.2442029555168
 20
-604.0281267155697
 30
0.0
 10
836.5742988543989
 20
-603.6213750817187
 30
0.0
 10
832.9348055864921
 20
-601.4112562568862
 30
0.0
 10
829.0489451634858
 20
-599.7144672595077
 30
0.0
 10
825.0313118839931
 20
-598.3532843032735
 30
0.0
 10
816.3130729355289
 20
-595.3996331721883
 30
0.0
 10
807.5508655660105
 20
-592.5685937600138
 30
0.0
 10
798.5954015168281
 20
-590.4154243175617
 30
0.0
 10
795.3980313044576
 20
-589.6466686576005
 30
0.0
 10
792.1101743530053
 20
-589.255406856746
 30
0.0
 10
788.8656816544226
 20
-588.680425577495
 30
0.0
 10
787.9391193947959
 20
-588.5162406405507
 30
0.0
 10
787.0196414130642
 20
-588.3120173345214
 30
0.0
 10
786.2255656608522
 20
-588.1521156170838
 30
0.0
  0
ENDBLK
  5
90
330
8D
100
AcDbEntity
  8
0
100
AcDbBlockEnd
  0
BLOCK
  5
94
330
92
100
AcDbEntity
  8
0
100
AcDbBlockBegin
  2
block 16
 70
     0
 10
0.0
 20
0.0
 30
0.0
  3
block 16
  1

  0
SPLINE
  5
96
330
92
100
AcDbEntity
  8
Layer 1
370
     0
100
AcDbSpline
210
0.0
220
0.0
230
1.0
 70
    11
 71
     3
 72
    47
 73
    43
 74
     0
 42
0.0000000001
 43
0.0000000001
 12
1.0
 22
0.0
 32
0.0
 13
1.0
 23
0.0
 33
0.0
 40
0.0
 40
0.0
 40
0.0
 40
0.0
 40
1.0
 40
1.0
 40
1.0
 40
2.0
 40
2.0
 40
2.0
 40
3.0
 40
3.0
 40
3.0
 40
4.0
 40
4.0
 40
4.0
 40
5.0
 40
5.0
 40
5.0
 40
6.0
 40
6.0
 40
6.0
 40
7.0
 40
7.0
 40
7.0
 40
8.0
 40
8.0
 40
8.0
 40
9.0
 40
9.0
 40
9.0
 40
10.0
 40
10.0
 40
10.0
 40
11.0
 40
11.0
 40
11.0
 40
12.0
 40
12.0
 40
12.0
 40
13.0
 40
13.0
 40
13.0
 40
14.0
 40
14.0
 40
14.0
 40
14.0
 10
827.4553223651183
 20
-487.197388050944
 30
0.0
 10
827.4977238462361
 20
-485.0040957376132
 30
0.0
 10
826.0503667729499
 20
-483.8154246212807
 30
0.0
 10
824.3190904005187
 20
-484.3869430676223
 30
0.0
 10
822.1386953747351
 20
-485.1067470294156
 30
0.0
 10
819.9714176884772
 20
-485.9090662038125
 30
0.0
 10
817.8865903264013
 20
-486.8675667395491
 30
0.0
 10
811.6191908090859
 20
-489.7489316839583
 30
0.0
 10
805.9177685562663
 20
-493.5389614841988
 30
0.0
 10
800.7058039106869
 20
-498.0427828728889
 30
0.0
 10
799.3695142767647
 20
-499.1975640384426
 30
0.0
 10
798.2217853001675
 20
-500.5854560174339
 30
0.0
 10
797.0730664828479
 20
-501.9388976264099
 30
0.0
 10
795.410609755605
 20
-503.8977584921677
 30
0.0
 10
793.6805382475959
 20
-505.7667735920541
 30
0.0
 10
791.6935780935873
 20
-507.4161483741791
 30
0.0
 10
789.0776000408077
 20
-509.5876338311064
 30
0.0
 10
786.5674721408868
 20
-511.8864243049375
 30
0.0
 10
784.003239412008
 20
-514.1206055748826
 30
0.0
 10
783.4137312731673
 20
-514.6343202828002
 30
0.0
 10
783.0565140237231
 20
-515.2271379406648
 30
0.0
 10
783.1453673726483
 20
-516.0343922736602
 30
0.0
 10
783.2882005077881
 20
-517.332074664726
 30
0.0
 10
784.4724184711195
 20
-518.022368114549
 30
0.0
 10
785.6640808319189
 20
-517.4893713313886
 30
0.0
 10
785.9009035016115
 20
-517.383462981883
 30
0.0
 10
786.115966646501
 20
-517.2269722991477
 30
0.0
 10
786.3361217330512
 20
-517.0860617666112
 30
0.0
 10
790.1088276172577
 20
-514.6708109543588
 30
0.0
 10
794.1756111753875
 20
-512.9004999770623
 30
0.0
 10
798.4646114134976
 20
-511.6481246756512
 30
0.0
 10
800.7608556488485
 20
-510.9776482689686
 30
0.0
 10
802.8758116404097
 20
-509.9670295219457
 30
0.0
 10
804.6948359357048
 20
-508.4334401721408
 30
0.0
 10
810.4951261918795
 20
-503.5435728254643
 30
0.0
 10
816.2957556763904
 20
-498.6526413204929
 30
0.0
 10
822.0112593982794
 20
-493.664694941971
 30
0.0
 10
823.6964902907821
 20
-492.1940118664088
 30
0.0
 10
825.1319481470891
 20
-490.4284248493113
 30
0.0
 10
826.6131788110761
 20
-488.7377470710553
 30
0.0
 10
827.0689248448507
 20
-488.2175232424697
 30
0.0
 10
827.2966876171758
 20
-487.4975678825194
 30
0.0
 10
827.4553223651183
 20
-487.197388050944
 30
0.0
  0
ENDBLK
  5
95
330
92
100
AcDbEntity
  8
0
100
AcDbBlockEnd
  0
BLOCK
  5
99
330
97
100
AcDbEntity
  8
0
100
AcDbBlockBegin
  2
block 17
 70
     0
 10
0.0
 20
0.0
 30
0.0
  3
block 17
  1

  0
SPLINE
  5
9B
330
97
100
AcDbEntity
  8
Layer 1
370
     0
100
AcDbSpline
210
0.0
220
0.0
230
1.0
 70
    11
 71
     3
 72
    29
 73
    25
 74
     0
 42
0.0000000001
 43
0.0000000001
 12
1.0
 22
0.0
 32
0.0
 13
1.0
 23
0.0
 33
0.0
 40
0.0
 40
0.0
 40
0.0
 40
0.0
 40
1.0
 40
1.0
 40
1.0
 40
2.0
 40
2.0
 40
2.0
 40
3.0
 40
3.0
 40
3.0
 40
4.0
 40
4.0
 40
4.0
 40
5.0
 40
5.0
 40
5.0
 40
6.0
 40
6.0
 40
6.0
 40
7.0
 40
7.0
 40
7.0
 40
8.0
 40
8.0
 40
8.0
 40
8.0
 10
773.2243217861924
 20
-611.5646572360565
 30
0.0
 10
772.2598160098933
 20
-611.6205799329364
 30
0.0
 10
771.568347252276
 20
-612.0204612091584
 30
0.0
 10
771.1359386251206
 20
-612.8241227875333
 30
0.0
 10
770.6959333646755
 20
-613.6416753523663
 30
0.0
 10
770.6923049351863
 20
-614.5022282914288
 30
0.0
 10
771.3393275615981
 20
-615.1537571882382
 30
0.0
 10
772.9155898782174
 20
-616.7409599752955
 30
0.0
 10
774.414794962544
 20
-618.4460880371389
 30
0.0
 10
776.4567373484351
 20
-619.4714265780458
 30
0.0
 10
777.0948374461168
 20
-619.7918350698765
 30
0.0
 10
777.8230156597929
 20
-620.0458253775178
 30
0.0
 10
778.5273918514249
 20
-620.0988269421032
 30
0.0
 10
780.2319000069965
 20
-620.2270690503392
 30
0.0
 10
781.4126862388166
 20
-618.6549534061287
 30
0.0
 10
780.7287819529665
 20
-617.0842383664603
 30
0.0
 10
780.326363193959
 20
-616.1599234871373
 30
0.0
 10
779.7262177679349
 20
-615.1568239413245
 30
0.0
 10
778.9277235091795
 20
-614.6045418657504
 30
0.0
 10
777.3128046149504
 20
-613.487653947057
 30
0.0
 10
775.5043997785979
 20
-612.6497057203214
 30
0.0
 10
773.7691359491146
 20
-611.7091010305267
 30
0.0
 10
773.5923020777936
 20
-611.6132596105363
 30
0.0
 10
773.3699441710542
 20
-611.601456508859
 30
0.0
 10
773.2243217861924
 20
-611.5646572360565
 30
0.0
  0
ENDBLK
  5
9A
330
97
100
AcDbEntity
  8
0
100
AcDbBlockEnd
  0
BLOCK
  5
9E
330
9C
100
AcDbEntity
  8
0
100
AcDbBlockBegin
  2
block 18
 70
     0
 10
0.0
 20
0.0
 30
0.0
  3
block 18
  1

  0
INSERT
  5
A1
330
9C
100
AcDbEntity
  8
Layer 1
100
AcDbBlockReference
  2
block 19
 10
0.0
 20
0.0
 30
0.0
  0
INSERT
  5
A6
330
9C
100
AcDbEntity
  8
Layer 1
100
AcDbBlockReference
  2
block 20
 10
0.0
 20
0.0
 30
0.0
  0
INSERT
  5
AB
330
9C
100
AcDbEntity
  8
Layer 1
100
AcDbBlockReference
  2
block 21
 10
0.0
 20
0.0
 30
0.0
  0
INSERT
  5
B0
330
9C
100
AcDbEntity
  8
Layer 1
100
AcDbBlockReference
  2
block 22
 10
0.0
 20
0.0
 30
0.0
  0
INSERT
  5
B5
330
9C
100
AcDbEntity
  8
Layer 1
100
AcDbBlockReference
  2
block 23
 10
0.0
 20
0.0
 30
0.0
  0
ENDBLK
  5
9F
330
9C
100
AcDbEntity
  8
0
100
AcDbBlockEnd
  0
BLOCK
  5
A2
330
A0
100
AcDbEntity
  8
0
100
AcDbBlockBegin
  2
block 19
 70
     0
 10
0.0
 20
0.0
 30
0.0
  3
block 19
  1

  0
SPLINE
  5
A4
330
A0
100
AcDbEntity
  8
Layer 1
370
     0
100
AcDbSpline
210
0.0
220
0.0
230
1.0
 70
    11
 71
     3
 72
    53
 73
    49
 74
     0
 42
0.0000000001
 43
0.0000000001
 12
1.0
 22
0.0
 32
0.0
 13
1.0
 23
0.0
 33
0.0
 40
0.0
 40
0.0
 40
0.0
 40
0.0
 40
1.0
 40
1.0
 40
1.0
 40
2.0
 40
2.0
 40
2.0
 40
3.0
 40
3.0
 40
3.0
 40
4.0
 40
4.0
 40
4.0
 40
5.0
 40
5.0
 40
5.0
 40
6.0
 40
6.0
 40
6.0
 40
7.0
 40
7.0
 40
7.0
 40
8.0
 40
8.0
 40
8.0
 40
9.0
 40
9.0
 40
9.0
 40
10.0
 40
10.0
 40
10.0
 40
11.0
 40
11.0
 40
11.0
 40
12.0
 40
12.0
 40
12.0
 40
13.0
 40
13.0
 40
13.0
 40
14.0
 40
14.0
 40
14.0
 40
15.0
 40
15.0
 40
15.0
 40
16.0
 40
16.0
 40
16.0
 40
16.0
 10
225.3477569415772
 20
-544.1787056024532
 30
0.0
 10
225.9026211237069
 20
-543.1046454962961
 30
0.0
 10
226.8090891543961
 20
-542.4748786566433
 30
0.0
 10
227.9154025965991
 20
-542.0439283214382
 30
0.0
 10
229.884246599242
 20
-541.2769814313069
 30
0.0
 10
231.9161474105858
 20
-540.8687510966874
 30
0.0
 10
234.022525057936
 20
-540.7402270864077
 30
0.0
 10
237.2769665599471
 20
-540.541688207124
 30
0.0
 10
240.5027194279182
 20
-540.8590196155292
 30
0.0
 10
243.7281144536264
 20
-541.2012657958221
 30
0.0
 10
255.8995324145599
 20
-542.4928369431273
 30
0.0
 10
267.979110354674
 20
-544.4183847448039
 30
0.0
 10
280.0097413855628
 20
-546.6344778235398
 30
0.0
 10
285.1972664742598
 20
-547.5901340255605
 30
0.0
 10
290.3203782936607
 20
-548.8919842118503
 30
0.0
 10
295.4822705076294
 20
-549.9920080522734
 30
0.0
 10
297.4226866042573
 20
-550.4055015756203
 30
0.0
 10
299.3903701341242
 20
-550.6905793757378
 30
0.0
 10
301.3446772741427
 20
-551.0394926986119
 30
0.0
 10
301.7039861922021
 20
-551.1036236770542
 30
0.0
 10
302.0759209683183
 20
-551.1487996450687
 30
0.0
 10
302.4120065472098
 20
-551.2797889955473
 30
0.0
 10
303.0862328303565
 20
-551.5424728775051
 30
0.0
 10
303.3397655928648
 20
-552.0883942920082
 30
0.0
 10
303.2648149473534
 20
-552.7883975495079
 30
0.0
 10
303.1944706617542
 20
-553.4453988393652
 30
0.0
 10
302.7881768700609
 20
-553.8226737938603
 30
0.0
 10
302.1707815667351
 20
-553.9589179231662
 30
0.0
 10
301.8690009432912
 20
-554.0254681544357
 30
0.0
 10
301.547936598522
 20
-554.0166246344015
 30
0.0
 10
301.2353599460512
 20
-554.0206857806334
 30
0.0
 10
295.7433928785867
 20
-554.0922844113993
 30
0.0
 10
290.250610306035
 20
-554.1243070536584
 30
0.0
 10
284.7595214757839
 20
-554.2375519017369
 30
0.0
 10
274.7096054483036
 20
-554.4448865250615
 30
0.0
 10
264.6799599498272
 20
-554.2409798844164
 30
0.0
 10
254.6773503169106
 20
-553.127279795237
 30
0.0
 10
248.8578626393546
 20
-552.4792982097624
 30
0.0
 10
243.0230548982872
 20
-551.9703065577996
 30
0.0
 10
237.1992466557467
 20
-551.3595623641122
 30
0.0
 10
234.3848709739823
 20
-551.0644543772796
 30
0.0
 10
231.6122532624413
 20
-550.5429479899685
 30
0.0
 10
228.9891027164649
 20
-549.4163018275358
 30
0.0
 10
227.6492250363453
 20
-548.8408663699702
 30
0.0
 10
226.3931580510462
 20
-548.1414798298119
 30
0.0
 10
225.4334072132469
 20
-547.0052579088697
 30
0.0
 10
225.4048571226876
 20
-546.0630738067102
 30
0.0
 10
225.3763070321329
 20
-545.1208897045854
 30
0.0
 10
225.3477569415772
 20
-544.1787056024532
 30
0.0
  0
ENDBLK
  5
A3
330
A0
100
AcDbEntity
  8
0
100
AcDbBlockEnd
  0
BLOCK
  5
A7
330
A5
100
AcDbEntity
  8
0
100
AcDbBlockBegin
  2
block 20
 70
     0
 10
0.0
 20
0.0
 30
0.0
  3
block 20
  1

  0
SPLINE
  5
A9
330
A5
100
AcDbEntity
  8
Layer 1
370
     0
100
AcDbSpline
210
0.0
220
0.0
230
1.0
 70
    11
 71
     3
 72
    38
 73
    34
 74
     0
 42
0.0000000001
 43
0.0000000001
 12
1.0
 22
0.0
 32
0.0
 13
1.0
 23
0.0
 33
0.0
 40
0.0
 40
0.0
 40
0.0
 40
0.0
 40
1.0
 40
1.0
 40
1.0
 40
2.0
 40
2.0
 40
2.0
 40
3.0
 40
3.0
 40
3.0
 40
4.0
 40
4.0
 40
4.0
 40
5.0
 40
5.0
 40
5.0
 40
6.0
 40
6.0
 40
6.0
 40
7.0
 40
7.0
 40
7.0
 40
8.0
 40
8.0
 40
8.0
 40
9.0
 40
9.0
 40
9.0
 40
10.0
 40
10.0
 40
10.0
 40
11.0
 40
11.0
 40
11.0
 40
11.0
 10
308.507485388719
 20
-456.4700168011304
 30
0.0
 10
308.6558435168645
 20
-456.5982142919474
 30
0.0
 10
308.7840197741425
 20
-456.7720729679168
 30
0.0
 10
308.9555756687505
 20
-456.8477642780708
 30
0.0
 10
312.2927096340254
 20
-458.3207701706815
 30
0.0
 10
314.9954338584621
 20
-460.6196723646499
 30
0.0
 10
317.2042256075238
 20
-463.4606301019057
 30
0.0
 10
319.0963389956687
 20
-465.8942253030882
 30
0.0
 10
320.8605116806939
 20
-468.4339991756151
 30
0.0
 10
322.5723953823081
 20
-470.9995323563589
 30
0.0
 10
326.1147337360308
 20
-476.3078566486183
 30
0.0
 10
329.583803139466
 20
-481.6650624287195
 30
0.0
 10
333.0848065966939
 20
-487.0010013461206
 30
0.0
 10
333.950893924879
 20
-488.3209890782919
 30
0.0
 10
333.9984567364845
 20
-489.6525411584807
 30
0.0
 10
333.2110414275212
 20
-490.8123122169682
 30
0.0
 10
332.098060687319
 20
-492.4516696624214
 30
0.0
 10
330.2010339149074
 20
-492.7089988168591
 30
0.0
 10
328.7584843649729
 20
-491.3488815302517
 30
0.0
 10
325.2566156977573
 20
-488.0472629289525
 30
0.0
 10
321.6744146473502
 20
-484.8210252001509
 30
0.0
 10
318.3255211589822
 20
-481.3694150826987
 30
0.0
 10
313.7047511161181
 20
-476.6067750391312
 30
0.0
 10
310.0478417055238
 20
-471.1138959029695
 30
0.0
 10
307.1575807314239
 20
-465.1511650778693
 30
0.0
 10
306.3040360374735
 20
-463.3903162365059
 30
0.0
 10
305.9429190587125
 20
-461.3885302129102
 30
0.0
 10
305.3776672049207
 20
-459.4908572027089
 30
0.0
 10
305.0257457755652
 20
-458.3092023859863
 30
0.0
 10
305.3984796920895
 20
-457.3322186289161
 30
0.0
 10
306.3090558170588
 20
-456.5366336791258
 30
0.0
 10
307.0418784534641
 20
-456.5144276658993
 30
0.0
 10
307.7746627523102
 20
-456.492222814366
 30
0.0
 10
308.507485388719
 20
-456.4700168011304
 30
0.0
  0
ENDBLK
  5
A8
330
A5
100
AcDbEntity
  8
0
100
AcDbBlockEnd
  0
BLOCK
  5
AC
330
AA
100
AcDbEntity
  8
0
100
AcDbBlockBegin
  2
block 21
 70
     0
 10
0.0
 20
0.0
 30
0.0
  3
block 21
  1

  0
SPLINE
  5
AE
330
AA
100
AcDbEntity
  8
Layer 1
370
     0
100
AcDbSpline
210
0.0
220
0.0
230
1.0
 70
    11
 71
     3
 72
    44
 73
    40
 74
     0
 42
0.0000000001
 43
0.0000000001
 12
1.0
 22
0.0
 32
0.0
 13
1.0
 23
0.0
 33
0.0
 40
0.0
 40
0.0
 40
0.0
 40
0.0
 40
1.0
 40
1.0
 40
1.0
 40
2.0
 40
2.0
 40
2.0
 40
3.0
 40
3.0
 40
3.0
 40
4.0
 40
4.0
 40
4.0
 40
5.0
 40
5.0
 40
5.0
 40
6.0
 40
6.0
 40
6.0
 40
7.0
 40
7.0
 40
7.0
 40
8.0
 40
8.0
 40
8.0
 40
9.0
 40
9.0
 40
9.0
 40
10.0
 40
10.0
 40
10.0
 40
11.0
 40
11.0
 40
11.0
 40
12.0
 40
12.0
 40
12.0
 40
13.0
 40
13.0
 40
13.0
 40
13.0
 10
305.3509450799284
 20
-588.1521156060826
 30
0.0
 10
306.7394168308974
 20
-588.1049768881567
 30
0.0
 10
307.761279504326
 20
-588.9127644105629
 30
0.0
 10
308.0905514494971
 20
-590.2080749913694
 30
0.0
 10
308.4150765253125
 20
-591.4847651267664
 30
0.0
 10
307.9227583771108
 20
-592.5245817149389
 30
0.0
 10
306.556627627725
 20
-593.0785233557908
 30
0.0
 10
302.8250958496865
 20
-594.5914734125672
 30
0.0
 10
299.0998920699549
 20
-596.1283681913083
 30
0.0
 10
295.3180987123824
 20
-597.5073086476514
 30
0.0
 10
286.3773377563966
 20
-600.7674707363421
 30
0.0
 10
277.4247746680139
 20
-603.9977910825419
 30
0.0
 10
268.4367668587029
 20
-607.1246580466723
 30
0.0
 10
264.4260389542515
 20
-608.5199753861853
 30
0.0
 10
260.2633809904
 20
-609.3538981379606
 30
0.0
 10
255.9998842265304
 20
-609.5662061658422
 30
0.0
 10
255.5818676275821
 20
-609.5870079447213
 30
0.0
 10
255.1625301510639
 20
-609.5819481282233
 30
0.0
 10
254.7442684270409
 20
-609.5997258859716
 30
0.0
 10
253.6113537422052
 20
-609.6479464435033
 30
0.0
 10
252.6522816821671
 20
-609.3547153671934
 30
0.0
 10
252.1836467173416
 20
-608.2103268734791
 30
0.0
 10
251.7375960102408
 20
-607.1210864131717
 30
0.0
 10
252.084186448219
 20
-605.7245595195764
 30
0.0
 10
253.0483387434515
 20
-604.9292313688493
 30
0.0
 10
253.6500624737482
 20
-604.4328348152212
 30
0.0
 10
254.3323077845498
 20
-604.0281267022838
 30
0.0
 10
255.0022118856841
 20
-603.6213750684565
 30
0.0
 10
258.6417051536919
 20
-601.4112562437913
 30
0.0
 10
262.5275655767764
 20
-599.7144672465784
 30
0.0
 10
266.5451988563273
 20
-598.3532842905261
 30
0.0
 10
275.2634378049243
 20
-595.3996331598319
 30
0.0
 10
284.0256451745718
 20
-592.5685937480557
 30
0.0
 10
292.9811092238488
 20
-590.4154243060038
 30
0.0
 10
296.1784794362538
 20
-589.6466686461918
 30
0.0
 10
299.4663363877271
 20
-589.2554068454865
 30
0.0
 10
302.7108290863334
 20
-588.6804255663774
 30
0.0
 10
303.6373913459684
 20
-588.5162406294749
 30
0.0
 10
304.5568693277091
 20
-588.3120173234856
 30
0.0
 10
305.3509450799284
 20
-588.1521156060826
 30
0.0
  0
ENDBLK
  5
AD
330
AA
100
AcDbEntity
  8
0
100
AcDbBlockEnd
  0
BLOCK
  5
B1
330
AF
100
AcDbEntity
  8
0
100
AcDbBlockBegin
  2
block 22
 70
     0
 10
0.0
 20
0.0
 30
0.0
  3
block 22
  1

  0
SPLINE
  5
B3
330
AF
100
AcDbEntity
  8
Layer 1
370
     0
100
AcDbSpline
210
0.0
220
0.0
230
1.0
 70
    11
 71
     3
 72
    47
 73
    43
 74
     0
 42
0.0000000001
 43
0.0000000001
 12
1.0
 22
0.0
 32
0.0
 13
1.0
 23
0.0
 33
0.0
 40
0.0
 40
0.0
 40
0.0
 40
0.0
 40
1.0
 40
1.0
 40
1.0
 40
2.0
 40
2.0
 40
2.0
 40
3.0
 40
3.0
 40
3.0
 40
4.0
 40
4.0
 40
4.0
 40
5.0
 40
5.0
 40
5.0
 40
6.0
 40
6.0
 40
6.0
 40
7.0
 40
7.0
 40
7.0
 40
8.0
 40
8.0
 40
8.0
 40
9.0
 40
9.0
 40
9.0
 40
10.0
 40
10.0
 40
10.0
 40
11.0
 40
11.0
 40
11.0
 40
12.0
 40
12.0
 40
12.0
 40
13.0
 40
13.0
 40
13.0
 40
14.0
 40
14.0
 40
14.0
 40
14.0
 10
264.1211883801916
 20
-487.1973880380938
 30
0.0
 10
264.0787868991738
 20
-485.0040957247584
 30
0.0
 10
265.5261439725136
 20
-483.8154246084923
 30
0.0
 10
267.2574203449194
 20
-484.386943054913
 30
0.0
 10
269.4378153706693
 20
-485.1067470168018
 30
0.0
 10
271.6050930568917
 20
-485.9090661912978
 30
0.0
 10
273.6899204189258
 20
-486.8675667271264
 30
0.0
 10
279.9573199361121
 20
-489.7489316718184
 30
0.0
 10
285.6587421887607
 20
-493.5389614723163
 30
0.0
 10
290.8707068341373
 20
-498.0427828612392
 30
0.0
 10
292.2069964680095
 20
-499.1975640268547
 30
0.0
 10
293.354725444543
 20
-500.5854560058924
 30
0.0
 10
294.5034442618007
 20
-501.9388976149221
 30
0.0
 10
296.1659009889563
 20
-503.897758480759
 30
0.0
 10
297.8959724968836
 20
-505.7667735807245
 30
0.0
 10
299.8829326508167
 20
-507.4161483629323
 30
0.0
 10
302.4989107034962
 20
-509.5876338199796
 30
0.0
 10
305.0090386033189
 20
-511.8864242939189
 30
0.0
 10
307.5732713320976
 20
-514.120605563985
 30
0.0
 10
308.1627794709129
 20
-514.6343202719272
 30
0.0
 10
308.5199967203316
 20
-515.2271379298045
 30
0.0
 10
308.4311433713692
 20
-516.0343922627999
 30
0.0
 10
308.288310236172
 20
-517.3320746538611
 30
0.0
 10
307.1040922728062
 20
-518.0223681036259
 30
0.0
 10
305.9124299120331
 20
-517.4893713204119
 30
0.0
 10
305.6756072423432
 20
-517.3834629709027
 30
0.0
 10
305.4605440974619
 20
-517.2269722881538
 30
0.0
 10
305.2403890109172
 20
-517.08606175561
 30
0.0
 10
301.4676831268225
 20
-514.670810943182
 30
0.0
 10
297.4008995687709
 20
-512.9004999657072
 30
0.0
 10
293.1118993307164
 20
-511.6481246641051
 30
0.0
 10
290.8156550953945
 20
-510.9776482573188
 30
0.0
 10
288.7006991038779
 20
-509.9670295102005
 30
0.0
 10
286.8816748086529
 20
-508.4334401603164
 30
0.0
 10
281.0813845527
 20
-503.543572813378
 30
0.0
 10
275.2807550684074
 20
-498.6526413081456
 30
0.0
 10
269.5652513467439
 20
-493.6646949293654
 30
0.0
 10
267.8800204543031
 20
-492.1940118537241
 30
0.0
 10
266.4445625980798
 20
-490.4284248365648
 30
0.0
 10
264.9633319341683
 20
-488.7377470582423
 30
0.0
 10
264.5075859004137
 20
-488.2175232296358
 30
0.0
 10
264.2798231281213
 20
-487.4975678696774
 30
0.0
 10
264.1211883801916
 20
-487.1973880380938
 30
0.0
  0
ENDBLK
  5
B2
330
AF
100
AcDbEntity
  8
0
100
AcDbBlockEnd
  0
BLOCK
  5
B6
330
B4
100
AcDbEntity
  8
0
100
AcDbBlockBegin
  2
block 23
 70
     0
 10
0.0
 20
0.0
 30
0.0
  3
block 23
  1

  0
SPLINE
  5
B8
330
B4
100
AcDbEntity
  8
Layer 1
370
     0
100
AcDbSpline
210
0.0
220
0.0
230
1.0
 70
    11
 71
     3
 72
    29
 73
    25
 74
     0
 42
0.0000000001
 43
0.0000000001
 12
1.0
 22
0.0
 32
0.0
 13
1.0
 23
0.0
 33
0.0
 40
0.0
 40
0.0
 40
0.0
 40
0.0
 40
1.0
 40
1.0
 40
1.0
 40
2.0
 40
2.0
 40
2.0
 40
3.0
 40
3.0
 40
3.0
 40
4.0
 40
4.0
 40
4.0
 40
5.0
 40
5.0
 40
5.0
 40
6.0
 40
6.0
 40
6.0
 40
7.0
 40
7.0
 40
7.0
 40
8.0
 40
8.0
 40
8.0
 40
8.0
 10
318.3521889535386
 20
-611.5646572256446
 30
0.0
 10
319.3166947298332
 20
-611.6205799225663
 30
0.0
 10
320.0081634874341
 20
-612.020461198812
 30
0.0
 10
320.4405721145513
 20
-612.8241227772123
 30
0.0
 10
320.8805773749591
 20
-613.6416753420617
 30
0.0
 10
320.8842058044111
 20
-614.5022282811242
 30
0.0
 10
320.2371831779692
 20
-615.1537571779008
 30
0.0
 10
318.660920861279
 20
-616.7409599648927
 30
0.0
 10
317.1617157768751
 20
-618.4460880266706
 30
0.0
 10
315.1197733909376
 20
-619.4714265674847
 30
0.0
 10
314.4816732932441
 20
-619.7918350592809
 30
0.0
 10
313.7534950795553
 20
-620.0458253668985
 30
0.0
 10
313.0491188879187
 20
-620.0988269314512
 30
0.0
 10
311.3446107323434
 20
-620.2270690396035
 30
0.0
 10
310.1638245005934
 20
-618.6549533953439
 30
0.0
 10
310.8477287865135
 20
-617.0842383557083
 30
0.0
 10
311.2501475455647
 20
-616.1599234764017
 30
0.0
 10
311.8502929716333
 20
-615.1568239306143
 30
0.0
 10
312.6487872304142
 20
-614.6045418550821
 30
0.0
 10
314.2637061246924
 20
-613.4876539364541
 30
0.0
 10
316.0721109610831
 20
-612.6497057098022
 30
0.0
 10
317.8073747906083
 20
-611.7091010200893
 30
0.0
 10
317.9842086619319
 20
-611.613259600108
 30
0.0
 10
318.2065665686714
 20
-611.6014564984307
 30
0.0
 10
318.3521889535386
 20
-611.5646572256446
 30
0.0
  0
ENDBLK
  5
B7
330
B4
100
AcDbEntity
  8
0
100
AcDbBlockEnd
  0
BLOCK
  5
BB
330
B9
100
AcDbEntity
  8
0
100
AcDbBlockBegin
  2
block 24
 70
     0
 10
0.0
 20
0.0
 30
0.0
  3
block 24
  1

  0
SPLINE
  5
BD
330
B9
100
AcDbEntity
  8
Layer 1
370
     0
100
AcDbSpline
210
0.0
220
0.0
230
1.0
 70
    11
 71
     3
 72
    35
 73
    31
 74
     0
 42
0.0000000001
 43
0.0000000001
 12
1.0
 22
0.0
 32
0.0
 13
1.0
 23
0.0
 33
0.0
 40
0.0
 40
0.0
 40
0.0
 40
0.0
 40
1.0
 40
1.0
 40
1.0
 40
2.0
 40
2.0
 40
2.0
 40
3.0
 40
3.0
 40
3.0
 40
4.0
 40
4.0
 40
4.0
 40
5.0
 40
5.0
 40
5.0
 40
6.0
 40
6.0
 40
6.0
 40
7.0
 40
7.0
 40
7.0
 40
8.0
 40
8.0
 40
8.0
 40
9.0
 40
9.0
 40
9.0
 40
10.0
 40
10.0
 40
10.0
 40
10.0
 10
894.7230213855146
 20
-604.6358270318979
 30
0.0
 10
891.5975290262613
 20
-584.7894610794247
 30
0.0
 10
905.3733557749492
 20
-503.3449819133102
 30
0.0
 10
898.5981108195501
 20
-499.2068821388038
 30
0.0
 10
893.7000471350311
 20
-496.2146553938328
 30
0.0
 10
892.1855173376243
 20
-495.5870570914349
 30
0.0
 10
888.9637286890575
 20
-490.8412520322554
 30
0.0
 10
886.5276262182142
 20
-487.2507921659271
 30
0.0
 10
885.1214030821975
 20
-483.8399660613468
 30
0.0
 10
884.4078755424343
 20
-480.4247046121227
 30
0.0
 10
881.9684477161791
 20
-468.7540168536316
 30
0.0
 10
886.7013820455486
 20
-444.8084569400626
 30
0.0
 10
901.378028012572
 20
-439.3380531115481
 30
0.0
 10
902.337293973238
 20
-438.9993436770956
 30
0.0
 10
903.6507612759524
 20
-438.9829360935937
 30
0.0
 10
904.6341653808959
 20
-439.384317346221
 30
0.0
 10
919.2111501540585
 20
-444.9450673980291
 30
0.0
 10
923.9131201564942
 20
-468.7867611128877
 30
0.0
 10
921.4803625293443
 20
-480.4247046121227
 30
0.0
 10
920.7652701578609
 20
-483.8399660613468
 30
0.0
 10
919.3572670098765
 20
-487.2507921659271
 30
0.0
 10
916.9211645390351
 20
-490.8412520322554
 30
0.0
 10
913.7028967785573
 20
-495.5870570914349
 30
0.0
 10
912.1864705289863
 20
-496.2146553938328
 30
0.0
 10
907.2867824085406
 20
-499.2068821388038
 30
0.0
 10
900.5132978971851
 20
-503.3449819133102
 30
0.0
 10
914.3303190365532
 20
-584.795446589178
 30
0.0
 10
911.1618920683322
 20
-604.6358270318979
 30
0.0
 10
908.8375575686514
 20
-619.1834324503525
 30
0.0
 10
897.5941494631315
 20
-622.8298402028104
 30
0.0
 10
894.7230213855146
 20
-604.6358270318979
 30
0.0
  0
ENDBLK
  5
BC
330
B9
100
AcDbEntity
  8
0
100
AcDbBlockEnd
  0
BLOCK
  5
C0
330
BE
100
AcDbEntity
  8
0
100
AcDbBlockBegin
  2
block 25
 70
     0
 10
0.0
 20
0.0
 30
0.0
  3
block 25
  1

  0
SPLINE
  5
C2
330
BE
100
AcDbEntity
  8
Layer 1
370
     0
100
AcDbSpline
210
0.0
220
0.0
230
1.0
 70
    11
 71
     3
 72
    35
 73
    31
 74
     0
 42
0.0000000001
 43
0.0000000001
 12
1.0
 22
0.0
 32
0.0
 13
1.0
 23
0.0
 33
0.0
 40
0.0
 40
0.0
 40
0.0
 40
0.0
 40
1.0
 40
1.0
 40
1.0
 40
2.0
 40
2.0
 40
2.0
 40
3.0
 40
3.0
 40
3.0
 40
4.0
 40
4.0
 40
4.0
 40
5.0
 40
5.0
 40
5.0
 40
6.0
 40
6.0
 40
6.0
 40
7.0
 40
7.0
 40
7.0
 40
8.0
 40
8.0
 40
8.0
 40
9.0
 40
9.0
 40
9.0
 40
10.0
 40
10.0
 40
10.0
 40
10.0
 10
178.8907940132431
 20
-604.6358270318979
 30
0.0
 10
175.7653016539889
 20
-584.7894610794247
 30
0.0
 10
189.5411284026777
 20
-503.3449819133102
 30
0.0
 10
182.7658834472786
 20
-499.2068821388038
 30
0.0
 10
177.8678197627596
 20
-496.2146553938328
 30
0.0
 10
176.3532899653528
 20
-495.5870570914349
 30
0.0
 10
173.131501316785
 20
-490.8412520322554
 30
0.0
 10
170.6953988459436
 20
-487.2507921659271
 30
0.0
 10
169.2891757099251
 20
-483.8399660613468
 30
0.0
 10
168.5756481701637
 20
-480.4247046121227
 30
0.0
 10
166.1362203439076
 20
-468.7540168536316
 30
0.0
 10
170.8691546732771
 20
-444.8084569400626
 30
0.0
 10
185.5458006403005
 20
-439.3380531115481
 30
0.0
 10
186.5050666009665
 20
-438.9993436770956
 30
0.0
 10
187.8185339036818
 20
-438.9829360935937
 30
0.0
 10
188.8019380086243
 20
-439.384317346221
 30
0.0
 10
203.378922781787
 20
-444.9450673980291
 30
0.0
 10
208.0808927842227
 20
-468.7867611128877
 30
0.0
 10
205.6481351570728
 20
-480.4247046121227
 30
0.0
 10
204.9330427855903
 20
-483.8399660613468
 30
0.0
 10
203.525039637605
 20
-487.2507921659271
 30
0.0
 10
201.0889371667627
 20
-490.8412520322554
 30
0.0
 10
197.8706694062857
 20
-495.5870570914349
 30
0.0
 10
196.3542431567148
 20
-496.2146553938328
 30
0.0
 10
191.4545550362691
 20
-499.2068821388038
 30
0.0
 10
184.6810705249136
 20
-503.3449819133102
 30
0.0
 10
198.4980916642817
 20
-584.795446589178
 30
0.0
 10
195.3296646960607
 20
-604.6358270318979
 30
0.0
 10
193.0053301963808
 20
-619.1834324503525
 30
0.0
 10
181.76192209086
 20
-622.8298402028104
 30
0.0
 10
178.8907940132431
 20
-604.6358270318979
 30
0.0
  0
ENDBLK
  5
C1
330
BE
100
AcDbEntity
  8
0
100
AcDbBlockEnd
  0
ENDSEC
  0
SECTION
  2
ENTITIES
  0
INSERT
  5
42
330
1F
100
AcDbEntity
  8
Layer 1
100
AcDbBlockReference
  2
block 2
 10
0.0
 20
0.0
 30
0.0
  0
ENDSEC
  0
SECTION
  2
OBJECTS
  0
DICTIONARY
  5
C
330
0
100
AcDbDictionary
281
     1
  3
ACAD_GROUP
350
D
  3
ACAD_LAYOUT
350
1A
  3
ACAD_MATERIAL
350
3B
  3
ACAD_MLEADERSTYLE
350
C4
  3
ACAD_MLINESTYLE
350
17
  3
ACAD_PLOTSETTINGS
350
19
  3
ACAD_PLOTSTYLENAME
350
E
  3
ACAD_TABLESTYLE
350
C3
  3
ACAD_VISUALSTYLE
350
2A
  0
SUN
  5
3F
330
29
100
AcDbSun
 90
        1
290
     0
 63
     7
421
 16777215
 40
1.0
291
     1
 91
  2455826
 92
 54000000
292
     0
 70
     2
 71
   256
280
     1
  0
DICTIONARY
  5
D
102
{ACAD_REACTORS
330
C
102
}
330
C
100
AcDbDictionary
281
     1
  0
DICTIONARY
  5
1A
102
{ACAD_REACTORS
330
C
102
}
330
C
100
AcDbDictionary
281
     1
  3
Layout1
350
1E
  3
Layout2
350
26
  3
Model
350
22
  0
DICTIONARY
  5
3B
102
{ACAD_REACTORS
330
C
102
}
330
C
100
AcDbDictionary
281
     1
  3
ByBlock
350
3D
  3
ByLayer
350
3C
  3
Global
350
3E
  0
DICTIONARY
  5
C4
102
{ACAD_REACTORS
330
C
102
}
330
C
100
AcDbDictionary
281
     1
  0
DICTIONARY
  5
17
102
{ACAD_REACTORS
330
C
102
}
330
C
100
AcDbDictionary
281
     1
  3
Standard
350
18
  0
DICTIONARY
  5
19
102
{ACAD_REACTORS
330
C
102
}
330
C
100
AcDbDictionary
281
     1
  0
ACDBDICTIONARYWDFLT
  5
E
102
{ACAD_REACTORS
330
C
102
}
330
C
100
AcDbDictionary
281
     1
  3
Normal
350
F
100
AcDbDictionaryWithDefault
340
F
  0
DICTIONARY
  5
C3
102
{ACAD_REACTORS
330
C
102
}
330
C
100
AcDbDictionary
281
     1
  0
DICTIONARY
  5
2A
102
{ACAD_REACTORS
330
C
102
}
330
C
100
AcDbDictionary
281
     1
  3
2dWireframe
350
2F
  3
3D Hidden
350
31
  3
3dWireframe
350
30
  3
Basic
350
32
  3
Brighten
350
36
  3
ColorChange
350
3A
  3
Conceptual
350
34
  3
Dim
350
35
  3
Facepattern
350
39
  3
Flat
350
2B
  3
FlatWithEdges
350
2C
  3
Gouraud
350
2D
  3
GouraudWithEdges
350
2E
  3
Linepattern
350
38
  3
Realistic
350
33
  3
Thicken
350
37
  0
LAYOUT
  5
1E
102
{ACAD_REACTORS
330
1A
102
}
330
1A
100
AcDbPlotSettings
  1

  2
none_device
  4

  6

 40
0.0
 41
0.0
 42
0.0
 43
0.0
 44
0.0
 45
0.0
 46
0.0
 47
0.0
 48
0.0
 49
0.0
140
0.0
141
0.0
142
1.0
143
1.0
 70
   688
 72
     0
 73
     0
 74
     5
  7

 75
    16
 76
     0
 77
     2
 78
   300
147
1.0
148
0.0
149
0.0
100
AcDbLayout
  1
Layout1
 70
     1
 71
     1
 10
0.0
 20
0.0
 11
12.0
 21
9.0
 12
0.0
 22
0.0
 32
0.0
 14
1.000000000000000E+20
 24
1.000000000000000E+20
 34
1.000000000000000E+20
 15
-1.000000000000000E+20
 25
-1.000000000000000E+20
 35
-1.000000000000000E+20
146
0.0
 13
0.0
 23
0.0
 33
0.0
 16
1.0
 26
0.0
 36
0.0
 17
0.0
 27
1.0
 37
0.0
 76
     0
330
1B
  0
LAYOUT
  5
26
102
{ACAD_REACTORS
330
1A
102
}
330
1A
100
AcDbPlotSettings
  1

  2
none_device
  4

  6

 40
0.0
 41
0.0
 42
0.0
 43
0.0
 44
0.0
 45
0.0
 46
0.0
 47
0.0
 48
0.0
 49
0.0
140
0.0
141
0.0
142
1.0
143
1.0
 70
   688
 72
     0
 73
     0
 74
     5
  7

 75
    16
 76
     0
 77
     2
 78
   300
147
1.0
148
0.0
149
0.0
100
AcDbLayout
  1
Layout2
 70
     1
 71
     2
 10
0.0
 20
0.0
 11
0.0
 21
0.0
 12
0.0
 22
0.0
 32
0.0
 14
0.0
 24
0.0
 34
0.0
 15
0.0
 25
0.0
 35
0.0
146
0.0
 13
0.0
 23
0.0
 33
0.0
 16
1.0
 26
0.0
 36
0.0
 17
0.0
 27
1.0
 37
0.0
 76
     0
330
23
  0
LAYOUT
  5
22
102
{ACAD_REACTORS
330
1A
102
}
330
1A
100
AcDbPlotSettings
  1

  2
none_device
  4

  6

 40
0.0
 41
0.0
 42
0.0
 43
0.0
 44
0.0
 45
0.0
 46
0.0
 47
0.0
 48
0.0
 49
0.0
140
0.0
141
0.0
142
1.0
143
1.0
 70
  1712
 72
     0
 73
     0
 74
     0
  7

 75
     0
 76
     0
 77
     2
 78
   300
147
1.0
148
0.0
149
0.0
100
AcDbLayout
  1
Model
 70
     1
 71
     0
 10
0.0
 20
0.0
 11
12.0
 21
9.0
 12
0.0
 22
0.0
 32
0.0
 14
1.000000000000000E+20
 24
1.000000000000000E+20
 34
1.000000000000000E+20
 15
-1.000000000000000E+20
 25
-1.000000000000000E+20
 35
-1.000000000000000E+20
146
0.0
 13
0.0
 23
0.0
 33
0.0
 16
1.0
 26
0.0
 36
0.0
 17
0.0
 27
1.0
 37
0.0
 76
     0
330
1F
331
29
  0
MATERIAL
  5
3D
102
{ACAD_REACTORS
330
3B
102
}
330
3B
100
AcDbMaterial
  1
ByBlock
 72
     1
 94
      127
  0
MATERIAL
  5
3C
102
{ACAD_REACTORS
330
3B
102
}
330
3B
100
AcDbMaterial
  1
ByLayer
 72
     1
 94
      127
  0
MATERIAL
  5
3E
102
{ACAD_REACTORS
330
3B
102
}
330
3B
100
AcDbMaterial
  1
Global
 72
     1
 94
      127
  0
MLINESTYLE
  5
18
102
{ACAD_REACTORS
330
17
102
}
330
17
100
AcDbMlineStyle
  2
Standard
 70
     0
  3

 62
   256
 51
90.0
 52
90.0
 71
     2
 49
0.5
 62
   256
  6
BYLAYER
 49
-0.5
 62
   256
  6
BYLAYER
  0
ACDBPLACEHOLDER
  5
F
102
{ACAD_REACTORS
330
E
102
}
330
E
  0
VISUALSTYLE
  5
2F
102
{ACAD_REACTORS
330
2A
102
}
330
2A
100
AcDbVisualStyle
  2
2dWireframe
 70
     4
177
     2
291
     0
 71
     0
176
     1
 72
     2
176
     1
 73
     0
176
     1
 90
        0
176
     1
 40
-0.6
176
     1
 41
-30.0
176
     1
 62
     5
 63
     7
421
 16777215
176
     1
 74
     1
176
     1
 91
        4
176
     1
 64
     7
176
     1
 65
   257
176
     1
 75
     1
176
     1
175
     1
176
     1
 42
1.0
176
     1
 92
        0
176
     1
 66
   257
176
     1
 43
1.0
176
     1
 76
     1
176
     1
 77
     6
176
     1
 78
     2
176
     1
 67
     7
176
     1
 79
     5
176
     1
170
     0
176
     1
171
     0
176
     1
290
     0
176
     1
 93
        1
176
     1
 44
0.0
176
     1
173
     0
176
     1
  0
VISUALSTYLE
  5
31
102
{ACAD_REACTORS
330
2A
102
}
330
2A
100
AcDbVisualStyle
  2
3D Hidden
 70
     6
177
     2
291
     0
 71
     1
176
     1
 72
     2
176
     1
 73
     2
176
     1
 90
        0
176
     1
 40
-0.6
176
     1
 41
-30.0
176
     1
 62
     5
 63
     7
421
 16777215
176
     1
 74
     2
176
     1
 91
        2
176
     1
 64
     7
176
     1
 65
   257
176
     1
 75
     2
176
     1
175
     1
176
     1
 42
40.0
176
     1
 92
        0
176
     1
 66
   257
176
     1
 43
1.0
176
     1
 76
     1
176
     1
 77
     6
176
     1
 78
     2
176
     1
 67
     7
176
     1
 79
     3
176
     1
170
     0
176
     1
171
     0
176
     1
290
     0
176
     1
 93
        1
176
     1
 44
0.0
176
     1
173
     0
176
     1
  0
VISUALSTYLE
  5
30
102
{ACAD_REACTORS
330
2A
102
}
330
2A
100
AcDbVisualStyle
  2
3dWireframe
 70
     5
177
     2
291
     0
 71
     0
176
     1
 72
     2
176
     1
 73
     0
176
     1
 90
        0
176
     1
 40
-0.6
176
     1
 41
-30.0
176
     1
 62
     5
 63
     7
421
 16777215
176
     1
 74
     1
176
     1
 91
        4
176
     1
 64
     7
176
     1
 65
   257
176
     1
 75
     1
176
     1
175
     1
176
     1
 42
1.0
176
     1
 92
        0
176
     1
 66
   257
176
     1
 43
1.0
176
     1
 76
     1
176
     1
 77
     6
176
     1
 78
     2
176
     1
 67
     7
176
     1
 79
     5
176
     1
170
     0
176
     1
171
     0
176
     1
290
     0
176
     1
 93
        1
176
     1
 44
0.0
176
     1
173
     0
176
     1
  0
VISUALSTYLE
  5
32
102
{ACAD_REACTORS
330
2A
102
}
330
2A
100
AcDbVisualStyle
  2
Basic
 70
     7
177
     2
291
     1
 71
     1
176
     1
 72
     0
176
     1
 73
     1
176
     1
 90
        0
176
     1
 40
-0.6
176
     1
 41
-30.0
176
     1
 62
     5
 63
     7
421
 16777215
176
     1
 74
     0
176
     1
 91
        4
176
     1
 64
     7
176
     1
 65
   257
176
     1
 75
     1
176
     1
175
     1
176
     1
 42
1.0
176
     1
 92
        8
176
     1
 66
     7
176
     1
 43
1.0
176
     1
 76
     1
176
     1
 77
     6
176
     1
 78
     2
176
     1
 67
     7
176
     1
 79
     5
176
     1
170
     0
176
     1
171
     0
176
     1
290
     0
176
     1
 93
        1
176
     1
 44
0.0
176
     1
173
     0
176
     1
  0
VISUALSTYLE
  5
36
102
{ACAD_REACTORS
330
2A
102
}
330
2A
100
AcDbVisualStyle
  2
Brighten
 70
    12
177
     2
291
     1
 71
     2
176
     1
 72
     2
176
     1
 73
     0
176
     1
 90
        0
176
     1
 40
-0.6
176
     1
 41
-30.0
176
     1
 62
     5
 63
     7
421
 16777215
176
     1
 74
     1
176
     1
 91
        4
176
     1
 64
     7
176
     1
 65
   257
176
     1
 75
     1
176
     1
175
     1
176
     1
 42
1.0
176
     1
 92
        8
176
     1
 66
     7
176
     1
 43
1.0
176
     1
 76
     1
176
     1
 77
     6
176
     1
 78
     2
176
     1
 67
     7
176
     1
 79
     5
176
     1
170
     0
176
     1
171
     0
176
     1
290
     0
176
     1
 93
        1
176
     1
 44
50.0
176
     1
173
     0
176
     1
  0
VISUALSTYLE
  5
3A
102
{ACAD_REACTORS
330
2A
102
}
330
2A
100
AcDbVisualStyle
  2
ColorChange
 70
    16
177
     2
291
     1
 71
     2
176
     1
 72
     2
176
     1
 73
     3
176
     1
 90
        0
176
     1
 40
-0.6
176
     1
 41
-30.0
176
     1
 62
     5
 63
     8
421
  8421504
176
     1
 74
     1
176
     1
 91
        4
176
     1
 64
     7
176
     1
 65
   257
176
     1
 75
     1
176
     1
175
     1
176
     1
 42
1.0
176
     1
 92
        8
176
     1
 66
     8
424
  8421504
176
     1
 43
1.0
176
     1
 76
     1
176
     1
 77
     6
176
     1
 78
     2
176
     1
 67
     7
176
     1
 79
     5
176
     1
170
     0
176
     1
171
     0
176
     1
290
     0
176
     1
 93
        1
176
     1
 44
0.0
176
     1
173
     0
176
     1
  0
VISUALSTYLE
  5
34
102
{ACAD_REACTORS
330
2A
102
}
330
2A
100
AcDbVisualStyle
  2
Conceptual
 70
     9
177
     2
291
     0
 71
     3
176
     1
 72
     2
176
     1
 73
     0
176
     1
 90
        0
176
     1
 40
-0.6
176
     1
 41
-30.0
176
     1
 62
     5
 63
     7
421
 16777215
176
     1
 74
     2
176
     1
 91
        2
176
     1
 64
     7
176
     1
 65
   257
176
     1
 75
     1
176
     1
175
     1
176
     1
 42
40.0
176
     1
 92
        8
176
     1
 66
     7
176
     1
 43
1.0
176
     1
 76
     1
176
     1
 77
     6
176
     1
 78
     2
176
     1
 67
     7
176
     1
 79
     3
176
     1
170
     0
176
     1
171
     0
176
     1
290
     0
176
     1
 93
        1
176
     1
 44
0.0
176
     1
173
     0
176
     1
  0
VISUALSTYLE
  5
35
102
{ACAD_REACTORS
330
2A
102
}
330
2A
100
AcDbVisualStyle
  2
Dim
 70
    11
177
     2
291
     1
 71
     2
176
     1
 72
     2
176
     1
 73
     0
176
     1
 90
        0
176
     1
 40
-0.6
176
     1
 41
-30.0
176
     1
 62
     5
 63
     7
421
 16777215
176
     1
 74
     1
176
     1
 91
        4
176
     1
 64
     7
176
     1
 65
   257
176
     1
 75
     1
176
     1
175
     1
176
     1
 42
1.0
176
     1
 92
        8
176
     1
 66
     7
176
     1
 43
1.0
176
     1
 76
     1
176
     1
 77
     6
176
     1
 78
     2
176
     1
 67
     7
176
     1
 79
     5
176
     1
170
     0
176
     1
171
     0
176
     1
290
     0
176
     1
 93
        1
176
     1
 44
-50.0
176
     1
173
     0
176
     1
  0
VISUALSTYLE
  5
39
102
{ACAD_REACTORS
330
2A
102
}
330
2A
100
AcDbVisualStyle
  2
Facepattern
 70
    15
177
     2
291
     1
 71
     2
176
     1
 72
     2
176
     1
 73
     0
176
     1
 90
        0
176
     1
 40
-0.6
176
     1
 41
-30.0
176
     1
 62
     5
 63
     7
421
 16777215
176
     1
 74
     1
176
     1
 91
        4
176
     1
 64
     7
176
     1
 65
   257
176
     1
 75
     1
176
     1
175
     1
176
     1
 42
1.0
176
     1
 92
        8
176
     1
 66
     7
176
     1
 43
1.0
176
     1
 76
     1
176
     1
 77
     6
176
     1
 78
     2
176
     1
 67
     7
176
     1
 79
     5
176
     1
170
     0
176
     1
171
     0
176
     1
290
     0
176
     1
 93
        1
176
     1
 44
0.0
176
     1
173
     0
176
     1
  0
VISUALSTYLE
  5
2B
102
{ACAD_REACTORS
330
2A
102
}
330
2A
100
AcDbVisualStyle
  2
Flat
 70
     0
177
     2
291
     1
 71
     2
176
     1
 72
     1
176
     1
 73
     1
176
     1
 90
        2
176
     1
 40
-0.6
176
     1
 41
30.0
176
     1
 62
     5
 63
     7
421
 16777215
176
     1
 74
     0
176
     1
 91
        4
176
     1
 64
     7
176
     1
 65
   257
176
     1
 75
     1
176
     1
175
     1
176
     1
 42
1.0
176
     1
 92
        8
176
     1
 66
     7
176
     1
 43
1.0
176
     1
 76
     1
176
     1
 77
     6
176
     1
 78
     2
176
     1
 67
     7
176
     1
 79
     5
176
     1
170
     0
176
     1
171
     0
176
     1
290
     0
176
     1
 93
       13
176
     1
 44
0.0
176
     1
173
     0
176
     1
  0
VISUALSTYLE
  5
2C
102
{ACAD_REACTORS
330
2A
102
}
330
2A
100
AcDbVisualStyle
  2
FlatWithEdges
 70
     1
177
     2
291
     1
 71
     2
176
     1
 72
     1
176
     1
 73
     1
176
     1
 90
        2
176
     1
 40
-0.6
176
     1
 41
30.0
176
     1
 62
     5
 63
     7
421
 16777215
176
     1
 74
     1
176
     1
 91
        4
176
     1
 64
     7
176
     1
 65
   257
176
     1
 75
     1
176
     1
175
     1
176
     1
 42
1.0
176
     1
 92
        0
176
     1
 66
   257
176
     1
 43
1.0
176
     1
 76
     1
176
     1
 77
     6
176
     1
 78
     2
176
     1
 67
     7
176
     1
 79
     5
176
     1
170
     0
176
     1
171
     0
176
     1
290
     0
176
     1
 93
       13
176
     1
 44
0.0
176
     1
173
     0
176
     1
  0
VISUALSTYLE
  5
2D
102
{ACAD_REACTORS
330
2A
102
}
330
2A
100
AcDbVisualStyle
  2
Gouraud
 70
     2
177
     2
291
     1
 71
     2
176
     1
 72
     2
176
     1
 73
     1
176
     1
 90
        2
176
     1
 40
-0.6
176
     1
 41
30.0
176
     1
 62
     5
 63
     7
421
 16777215
176
     1
 74
     0
176
     1
 91
        4
176
     1
 64
     7
176
     1
 65
   257
176
     1
 75
     1
176
     1
175
     1
176
     1
 42
1.0
176
     1
 92
        0
176
     1
 66
     7
176
     1
 43
1.0
176
     1
 76
     1
176
     1
 77
     6
176
     1
 78
     2
176
     1
 67
     7
176
     1
 79
     5
176
     1
170
     0
176
     1
171
     0
176
     1
290
     0
176
     1
 93
       13
176
     1
 44
0.0
176
     1
173
     0
176
     1
  0
VISUALSTYLE
  5
2E
102
{ACAD_REACTORS
330
2A
102
}
330
2A
100
AcDbVisualStyle
  2
GouraudWithEdges
 70
     3
177
     2
291
     1
 71
     2
176
     1
 72
     2
176
     1
 73
     1
176
     1
 90
        2
176
     1
 40
-0.6
176
     1
 41
30.0
176
     1
 62
     5
 63
     7
421
 16777215
176
     1
 74
     1
176
     1
 91
        4
176
     1
 64
     7
176
     1
 65
   257
176
     1
 75
     1
176
     1
175
     1
176
     1
 42
1.0
176
     1
 92
        0
176
     1
 66
   257
176
     1
 43
1.0
176
     1
 76
     1
176
     1
 77
     6
176
     1
 78
     2
176
     1
 67
     7
176
     1
 79
     5
176
     1
170
     0
176
     1
171
     0
176
     1
290
     0
176
     1
 93
       13
176
     1
 44
0.0
176
     1
173
     0
176
     1
  0
VISUALSTYLE
  5
38
102
{ACAD_REACTORS
330
2A
102
}
330
2A
100
AcDbVisualStyle
  2
Linepattern
 70
    14
177
     2
291
     1
 71
     2
176
     1
 72
     2
176
     1
 73
     0
176
     1
 90
        0
176
     1
 40
-0.6
176
     1
 41
-30.0
176
     1
 62
     5
 63
     7
421
 16777215
176
     1
 74
     1
176
     1
 91
        4
176
     1
 64
     7
176
     1
 65
   257
176
     1
 75
     7
176
     1
175
     7
176
     1
 42
1.0
176
     1
 92
        8
176
     1
 66
     7
176
     1
 43
1.0
176
     1
 76
     1
176
     1
 77
     6
176
     1
 78
     2
176
     1
 67
     7
176
     1
 79
     5
176
     1
170
     0
176
     1
171
     0
176
     1
290
     0
176
     1
 93
        1
176
     1
 44
0.0
176
     1
173
     0
176
     1
  0
VISUALSTYLE
  5
33
102
{ACAD_REACTORS
330
2A
102
}
330
2A
100
AcDbVisualStyle
  2
Realistic
 70
     8
177
     2
291
     0
 71
     2
176
     1
 72
     2
176
     1
 73
     0
176
     1
 90
        0
176
     1
 40
-0.6
176
     1
 41
-30.0
176
     1
 62
     5
 63
     7
421
 16777215
176
     1
 74
     1
176
     1
 91
        0
176
     1
 64
     7
176
     1
 65
   257
176
     1
 75
     1
176
     1
175
     1
176
     1
 42
1.0
176
     1
 92
        8
176
     1
 66
     8
424
  7895160
176
     1
 43
1.0
176
     1
 76
     1
176
     1
 77
     6
176
     1
 78
     2
176
     1
 67
     7
176
     1
 79
     5
176
     1
170
     0
176
     1
171
     0
176
     1
290
     0
176
     1
 93
       13
176
     1
 44
0.0
176
     1
173
     0
176
     1
  0
VISUALSTYLE
  5
37
102
{ACAD_REACTORS
330
2A
102
}
330
2A
100
AcDbVisualStyle
  2
Thicken
 70
    13
177
     2
291
     1
 71
     2
176
     1
 72
     2
176
     1
 73
     0
176
     1
 90
        0
176
     1
 40
-0.6
176
     1
 41
-30.0
176
     1
 62
     5
 63
     7
421
 16777215
176
     1
 74
     1
176
     1
 91
        4
176
     1
 64
     7
176
     1
 65
   257
176
     1
 75
     1
176
     1
175
     1
176
     1
 42
1.0
176
     1
 92
       12
176
     1
 66
     7
176
     1
 43
1.0
176
     1
 76
     1
176
     1
 77
     6
176
     1
 78
     2
176
     1
 67
     7
176
     1
 79
     5
176
     1
170
     0
176
     1
171
     0
176
     1
290
     0
176
     1
 93
        1
176
     1
 44
0.0
176
     1
173
     0
176
     1
  0
ENDSEC
  0
EOF
