  0
SECTION
  2
HEADER
  9
$ACADVER
  1
AC1024
  9
$ACADMAINTVER
 70
     6
  9
$DWGCODEPAGE
  3
ANSI_1252
  9
$INSBASE
 10
0.0
 20
0.0
 30
0.0
  9
$EXTMIN
 10
1.000000000000000E+20
 20
1.000000000000000E+20
 30
1.000000000000000E+20
  9
$EXTMAX
 10
-1.000000000000000E+20
 20
-1.000000000000000E+20
 30
-1.000000000000000E+20
  9
$LIMMIN
 10
0.0
 20
0.0
  9
$LIMMAX
 10
12.0
 20
9.0
  9
$ORTHOMODE
 70
     0
  9
$REGENMODE
 70
     1
  9
$FILLMODE
 70
     1
  9
$QTEXTMODE
 70
     0
  9
$MIRRTEXT
 70
     1
  9
$LTSCALE
 40
1.0
  9
$ATTMODE
 70
     1
  9
$TEXTSIZE
 40
0.2
  9
$TRACEWID
 40
0.05
  9
$TEXTSTYLE
  7
Standard
  9
$CLAYER
  8
0
  9
$CELTYPE
  6
ByLayer
  9
$CECOLOR
 62
   256
  9
$CELTSCALE
 40
1.0
  9
$DISPSILH
 70
     0
  9
$DIMSCALE
 40
1.0
  9
$DIMASZ
 40
0.18
  9
$DIMEXO
 40
0.0625
  9
$DIMDLI
 40
0.38
  9
$DIMRND
 40
0.0
  9
$DIMDLE
 40
0.0
  9
$DIMEXE
 40
0.18
  9
$DIMTP
 40
0.0
  9
$DIMTM
 40
0.0
  9
$DIMTXT
 40
0.18
  9
$DIMCEN
 40
0.09
  9
$DIMTSZ
 40
0.0
  9
$DIMTOL
 70
     0
  9
$DIMLIM
 70
     0
  9
$DIMTIH
 70
     1
  9
$DIMTOH
 70
     1
  9
$DIMSE1
 70
     0
  9
$DIMSE2
 70
     0
  9
$DIMTAD
 70
     0
  9
$DIMZIN
 70
     0
  9
$DIMBLK
  1

  9
$DIMASO
 70
     1
  9
$DIMSHO
 70
     1
  9
$DIMPOST
  1

  9
$DIMAPOST
  1

  9
$DIMALT
 70
     0
  9
$DIMALTD
 70
     2
  9
$DIMALTF
 40
25.4
  9
$DIMLFAC
 40
1.0
  9
$DIMTOFL
 70
     0
  9
$DIMTVP
 40
0.0
  9
$DIMTIX
 70
     0
  9
$DIMSOXD
 70
     0
  9
$DIMSAH
 70
     0
  9
$DIMBLK1
  1

  9
$DIMBLK2
  1

  9
$DIMSTYLE
  2
Standard
  9
$DIMCLRD
 70
     0
  9
$DIMCLRE
 70
     0
  9
$DIMCLRT
 70
     0
  9
$DIMTFAC
 40
1.0
  9
$DIMGAP
 40
0.09
  9
$DIMJUST
 70
     0
  9
$DIMSD1
 70
     0
  9
$DIMSD2
 70
     0
  9
$DIMTOLJ
 70
     1
  9
$DIMTZIN
 70
     0
  9
$DIMALTZ
 70
     0
  9
$DIMALTTZ
 70
     0
  9
$DIMUPT
 70
     0
  9
$DIMDEC
 70
     4
  9
$DIMTDEC
 70
     4
  9
$DIMALTU
 70
     2
  9
$DIMALTTD
 70
     2
  9
$DIMTXSTY
  7
Standard
  9
$DIMAUNIT
 70
     0
  9
$DIMADEC
 70
     0
  9
$DIMALTRND
 40
0.0
  9
$DIMAZIN
 70
     0
  9
$DIMDSEP
 70
    46
  9
$DIMATFIT
 70
     3
  9
$DIMFRAC
 70
     0
  9
$DIMLDRBLK
  1

  9
$DIMLUNIT
 70
     2
  9
$DIMLWD
 70
    -2
  9
$DIMLWE
 70
    -2
  9
$DIMTMOVE
 70
     0
  9
$DIMFXL
 40
1.0
  9
$DIMFXLON
 70
     0
  9
$DIMJOGANG
 40
0.7853981633974483
  9
$DIMTFILL
 70
     0
  9
$DIMTFILLCLR
 70
     0
  9
$DIMARCSYM
 70
     0
  9
$DIMLTYPE
  6

  9
$DIMLTEX1
  6

  9
$DIMLTEX2
  6

  9
$DIMTXTDIRECTION
 70
     0
  9
$LUNITS
 70
     2
  9
$LUPREC
 70
     4
  9
$SKETCHINC
 40
0.1
  9
$FILLETRAD
 40
0.5
  9
$AUNITS
 70
     0
  9
$AUPREC
 70
     0
  9
$MENU
  1
.
  9
$ELEVATION
 40
0.0
  9
$PELEVATION
 40
0.0
  9
$THICKNESS
 40
0.0
  9
$LIMCHECK
 70
     0
  9
$CHAMFERA
 40
0.5
  9
$CHAMFERB
 40
0.5
  9
$CHAMFERC
 40
1.0
  9
$CHAMFERD
 40
0.0
  9
$SKPOLY
 70
     0
  9
$TDCREATE
 40
2459520.662876736
  9
$TDUCREATE
 40
2459520.412876736
  9
$TDUPDATE
 40
2459520.662876771
  9
$TDUUPDATE
 40
2459520.412876771
  9
$TDINDWG
 40
0.0000000116
  9
$TDUSRTIMER
 40
0.0000000116
  9
$USRTIMER
 70
     1
  9
$ANGBASE
 50
0.0
  9
$ANGDIR
 70
     0
  9
$PDMODE
 70
     0
  9
$PDSIZE
 40
0.0
  9
$PLINEWID
 40
0.0
  9
$SPLFRAME
 70
     0
  9
$SPLINETYPE
 70
     6
  9
$SPLINESEGS
 70
     8
  9
$HANDSEED
  5
99
  9
$SURFTAB1
 70
     6
  9
$SURFTAB2
 70
     6
  9
$SURFTYPE
 70
     6
  9
$SURFU
 70
     6
  9
$SURFV
 70
     6
  9
$UCSBASE
  2

  9
$UCSNAME
  2

  9
$UCSORG
 10
0.0
 20
0.0
 30
0.0
  9
$UCSXDIR
 10
1.0
 20
0.0
 30
0.0
  9
$UCSYDIR
 10
0.0
 20
1.0
 30
0.0
  9
$UCSORTHOREF
  2

  9
$UCSORTHOVIEW
 70
     0
  9
$UCSORGTOP
 10
0.0
 20
0.0
 30
0.0
  9
$UCSORGBOTTOM
 10
0.0
 20
0.0
 30
0.0
  9
$UCSORGLEFT
 10
0.0
 20
0.0
 30
0.0
  9
$UCSORGRIGHT
 10
0.0
 20
0.0
 30
0.0
  9
$UCSORGFRONT
 10
0.0
 20
0.0
 30
0.0
  9
$UCSORGBACK
 10
0.0
 20
0.0
 30
0.0
  9
$PUCSBASE
  2

  9
$PUCSNAME
  2

  9
$PUCSORG
 10
0.0
 20
0.0
 30
0.0
  9
$PUCSXDIR
 10
1.0
 20
0.0
 30
0.0
  9
$PUCSYDIR
 10
0.0
 20
1.0
 30
0.0
  9
$PUCSORTHOREF
  2

  9
$PUCSORTHOVIEW
 70
     0
  9
$PUCSORGTOP
 10
0.0
 20
0.0
 30
0.0
  9
$PUCSORGBOTTOM
 10
0.0
 20
0.0
 30
0.0
  9
$PUCSORGLEFT
 10
0.0
 20
0.0
 30
0.0
  9
$PUCSORGRIGHT
 10
0.0
 20
0.0
 30
0.0
  9
$PUCSORGFRONT
 10
0.0
 20
0.0
 30
0.0
  9
$PUCSORGBACK
 10
0.0
 20
0.0
 30
0.0
  9
$USERI1
 70
     0
  9
$USERI2
 70
     0
  9
$USERI3
 70
     0
  9
$USERI4
 70
     0
  9
$USERI5
 70
     0
  9
$USERR1
 40
0.0
  9
$USERR2
 40
0.0
  9
$USERR3
 40
0.0
  9
$USERR4
 40
0.0
  9
$USERR5
 40
0.0
  9
$WORLDVIEW
 70
     1
  9
$SHADEDGE
 70
     3
  9
$SHADEDIF
 70
    70
  9
$TILEMODE
 70
     1
  9
$MAXACTVP
 70
    64
  9
$PINSBASE
 10
0.0
 20
0.0
 30
0.0
  9
$PLIMCHECK
 70
     0
  9
$PEXTMIN
 10
1.000000000000000E+20
 20
1.000000000000000E+20
 30
1.000000000000000E+20
  9
$PEXTMAX
 10
-1.000000000000000E+20
 20
-1.000000000000000E+20
 30
-1.000000000000000E+20
  9
$PLIMMIN
 10
0.0
 20
0.0
  9
$PLIMMAX
 10
12.0
 20
9.0
  9
$UNITMODE
 70
     0
  9
$VISRETAIN
 70
     1
  9
$PLINEGEN
 70
     0
  9
$PSLTSCALE
 70
     1
  9
$TREEDEPTH
 70
  3020
  9
$CMLSTYLE
  2
Standard
  9
$CMLJUST
 70
     0
  9
$CMLSCALE
 40
1.0
  9
$PROXYGRAPHICS
 70
     1
  9
$MEASUREMENT
 70
     0
  9
$CELWEIGHT
370
    -1
  9
$ENDCAPS
280
     0
  9
$JOINSTYLE
280
     0
  9
$LWDISPLAY
290
     1
  9
$INSUNITS
 70
     1
  9
$HYPERLINKBASE
  1

  9
$STYLESHEET
  1

  9
$XEDIT
290
     1
  9
$CEPSNTYPE
380
     0
  9
$PSTYLEMODE
290
     1
  9
$FINGERPRINTGUID
  2
{70E2C105-219A-4A5D-BC9A-3FDD525806E5}
  9
$VERSIONGUID
  2
{FAEB1C32-E019-11D5-929B-00C0DF256EC4}
  9
$EXTNAMES
290
     1
  9
$PSVPSCALE
 40
0.0
  9
$OLESTARTUP
290
     0
  9
$SORTENTS
280
   127
  9
$INDEXCTL
280
     0
  9
$HIDETEXT
280
     1
  9
$XCLIPFRAME
280
     2
  9
$HALOGAP
280
     0
  9
$OBSCOLOR
 70
   257
  9
$OBSLTYPE
280
     0
  9
$INTERSECTIONDISPLAY
280
     0
  9
$INTERSECTIONCOLOR
 70
   257
  9
$DIMASSOC
280
     2
  9
$PROJECTNAME
  1

  9
$CAMERADISPLAY
290
     0
  9
$LENSLENGTH
 40
50.0
  9
$CAMERAHEIGHT
 40
0.0
  9
$STEPSPERSEC
 40
2.0
  9
$STEPSIZE
 40
6.0
  9
$3DDWFPREC
 40
2.0
  9
$PSOLWIDTH
 40
0.25
  9
$PSOLHEIGHT
 40
4.0
  9
$LOFTANG1
 40
1.570796326794897
  9
$LOFTANG2
 40
1.570796326794897
  9
$LOFTMAG1
 40
0.0
  9
$LOFTMAG2
 40
0.0
  9
$LOFTPARAM
 70
     7
  9
$LOFTNORMALS
280
     1
  9
$LATITUDE
 40
37.795
  9
$LONGITUDE
 40
-122.394
  9
$NORTHDIRECTION
 40
0.0
  9
$TIMEZONE
 70
 -8000
  9
$LIGHTGLYPHDISPLAY
280
     1
  9
$TILEMODELIGHTSYNCH
280
     1
  9
$CMATERIAL
347
3C
  9
$SOLIDHIST
280
     1
  9
$SHOWHIST
280
     1
  9
$DWFFRAME
280
     2
  9
$DGNFRAME
280
     2
  9
$REALWORLDSCALE
290
     1
  9
$INTERFERECOLOR
 62
   256
  9
$CSHADOW
280
     0
  9
$SHADOWPLANELOCATION
 40
0.0
  0
ENDSEC
  0
SECTION
  2
CLASSES
  0
CLASS
  1
ACDBDICTIONARYWDFLT
  2
AcDbDictionaryWithDefault
  3
ObjectDBX Classes
 90
        0
 91
        4
280
     0
281
     0
  0
CLASS
  1
VISUALSTYLE
  2
AcDbVisualStyle
  3
ObjectDBX Classes
 90
     4095
 91
        4
280
     0
281
     0
  0
CLASS
  1
MATERIAL
  2
AcDbMaterial
  3
ObjectDBX Classes
 90
     1153
 91
        4
280
     0
281
     0
  0
CLASS
  1
SUN
  2
AcDbSun
  3
SCENEOE
 90
     1024
 91
        4
280
     0
281
     0
  0
ENDSEC
  0
SECTION
  2
TABLES
  0
TABLE
  2
VPORT
  5
8
330
0
100
AcDbSymbolTable
 70
     1
  0
VPORT
  5
29
330
8
100
AcDbSymbolTableRecord
100
AcDbViewportTableRecord
  2
*Active
 70
     0
 10
0.0
 20
0.0
 11
1.0
 21
1.0
 12
0.0
 22
0.0
 13
0.0
 23
0.0
 14
0.5
 24
0.5
 15
0.5
 25
0.5
 16
0.0
 26
0.0
 36
1.0
 17
540.0
 27
-540.0
 37
0.0
 40
1080.0
 41
1.0
 42
50.0
 43
0.0
 44
0.0
 50
0.0
 51
0.0
 71
     0
 72
   100
 73
     1
 74
     3
 75
     0
 76
     0
 77
     0
 78
     0
281
     0
 65
     1
110
0.0
120
0.0
130
0.0
111
1.0
121
0.0
131
0.0
112
0.0
122
1.0
132
0.0
 79
     0
146
0.0
 60
     3
 61
     5
292
     1
282
     1
141
0.0
142
0.0
 63
   250
361
3F
  0
ENDTAB
  0
TABLE
  2
LTYPE
  5
5
330
0
100
AcDbSymbolTable
 70
     1
  0
LTYPE
  5
14
330
5
100
AcDbSymbolTableRecord
100
AcDbLinetypeTableRecord
  2
ByBlock
 70
     0
  3

 72
    65
 73
     0
 40
0.0
  0
LTYPE
  5
15
330
5
100
AcDbSymbolTableRecord
100
AcDbLinetypeTableRecord
  2
ByLayer
 70
     0
  3

 72
    65
 73
     0
 40
0.0
  0
LTYPE
  5
16
330
5
100
AcDbSymbolTableRecord
100
AcDbLinetypeTableRecord
  2
Continuous
 70
     0
  3
Solid line
 72
    65
 73
     0
 40
0.0
  0
ENDTAB
  0
TABLE
  2
LAYER
  5
2
330
0
100
AcDbSymbolTable
 70
     2
  0
LAYER
  5
10
330
2
100
AcDbSymbolTableRecord
100
AcDbLayerTableRecord
  2
0
 70
     0
 62
     7
  6
Continuous
370
    -3
390
F
347
3E
  0
LAYER
  5
40
330
2
100
AcDbSymbolTableRecord
100
AcDbLayerTableRecord
  2
Layer 1
 70
     0
 62
     7
  6
Continuous
370
    -3
390
F
347
3E
  0
ENDTAB
  0
TABLE
  2
STYLE
  5
3
330
0
100
AcDbSymbolTable
 70
     1
  0
STYLE
  5
11
330
3
100
AcDbSymbolTableRecord
100
AcDbTextStyleTableRecord
  2
Standard
 70
     0
 40
0.0
 41
1.0
 50
0.0
 71
     0
 42
0.2
  3
txt
  4

  0
ENDTAB
  0
TABLE
  2
VIEW
  5
6
330
0
100
AcDbSymbolTable
 70
     0
  0
ENDTAB
  0
TABLE
  2
UCS
  5
7
330
0
100
AcDbSymbolTable
 70
     0
  0
ENDTAB
  0
TABLE
  2
APPID
  5
9
330
0
100
AcDbSymbolTable
 70
     1
  0
APPID
  5
12
330
9
100
AcDbSymbolTableRecord
100
AcDbRegAppTableRecord
  2
ACAD
 70
     0
  0
ENDTAB
  0
TABLE
  2
DIMSTYLE
  5
A
330
0
100
AcDbSymbolTable
 70
     1
100
AcDbDimStyleTable
  0
DIMSTYLE
105
27
330
A
100
AcDbSymbolTableRecord
100
AcDbDimStyleTableRecord
  2
Standard
 70
     0
178
     0
340
11
  0
ENDTAB
  0
TABLE
  2
BLOCK_RECORD
  5
1
330
0
100
AcDbSymbolTable
 70
    16
  0
BLOCK_RECORD
  5
1F
330
1
100
AcDbSymbolTableRecord
100
AcDbBlockTableRecord
  2
*Model_Space
340
22
 70
     0
280
     1
281
     0
  0
BLOCK_RECORD
  5
1B
330
1
100
AcDbSymbolTableRecord
100
AcDbBlockTableRecord
  2
*Paper_Space
340
1E
 70
     0
280
     1
281
     0
  0
BLOCK_RECORD
  5
23
330
1
100
AcDbSymbolTableRecord
100
AcDbBlockTableRecord
  2
*Paper_Space0
340
26
 70
     0
280
     1
281
     0
  0
BLOCK_RECORD
  5
41
330
1
100
AcDbSymbolTableRecord
100
AcDbBlockTableRecord
  2
block 2
340
0
102
{BLKREFS
331
42
102
}
 70
     0
280
     1
281
     0
  0
BLOCK_RECORD
  5
45
330
1
100
AcDbSymbolTableRecord
100
AcDbBlockTableRecord
  2
block 3
340
0
102
{BLKREFS
331
46
102
}
 70
     0
280
     1
281
     0
  0
BLOCK_RECORD
  5
49
330
1
100
AcDbSymbolTableRecord
100
AcDbBlockTableRecord
  2
block 4
340
0
102
{BLKREFS
331
4A
102
}
 70
     0
280
     1
281
     0
  0
BLOCK_RECORD
  5
4E
330
1
100
AcDbSymbolTableRecord
100
AcDbBlockTableRecord
  2
block 5
340
0
102
{BLKREFS
331
4F
102
}
 70
     0
280
     1
281
     0
  0
BLOCK_RECORD
  5
53
330
1
100
AcDbSymbolTableRecord
100
AcDbBlockTableRecord
  2
block 6
340
0
102
{BLKREFS
331
54
102
}
 70
     0
280
     1
281
     0
  0
BLOCK_RECORD
  5
59
330
1
100
AcDbSymbolTableRecord
100
AcDbBlockTableRecord
  2
block 7
340
0
102
{BLKREFS
331
5A
102
}
 70
     0
280
     1
281
     0
  0
BLOCK_RECORD
  5
5F
330
1
100
AcDbSymbolTableRecord
100
AcDbBlockTableRecord
  2
block 8
340
0
102
{BLKREFS
331
60
102
}
 70
     0
280
     1
281
     0
  0
BLOCK_RECORD
  5
64
330
1
100
AcDbSymbolTableRecord
100
AcDbBlockTableRecord
  2
block 9
340
0
102
{BLKREFS
331
65
102
}
 70
     0
280
     1
281
     0
  0
BLOCK_RECORD
  5
69
330
1
100
AcDbSymbolTableRecord
100
AcDbBlockTableRecord
  2
block 10
340
0
102
{BLKREFS
331
6A
102
}
 70
     0
280
     1
281
     0
  0
BLOCK_RECORD
  5
76
330
1
100
AcDbSymbolTableRecord
100
AcDbBlockTableRecord
  2
block 11
340
0
102
{BLKREFS
331
77
102
}
 70
     0
280
     1
281
     0
  0
BLOCK_RECORD
  5
7A
330
1
100
AcDbSymbolTableRecord
100
AcDbBlockTableRecord
  2
block 12
340
0
102
{BLKREFS
331
7B
102
}
 70
     0
280
     1
281
     0
  0
BLOCK_RECORD
  5
83
330
1
100
AcDbSymbolTableRecord
100
AcDbBlockTableRecord
  2
block 13
340
0
102
{BLKREFS
331
84
102
}
 70
     0
280
     1
281
     0
  0
BLOCK_RECORD
  5
88
330
1
100
AcDbSymbolTableRecord
100
AcDbBlockTableRecord
  2
block 14
340
0
102
{BLKREFS
331
89
102
}
 70
     0
280
     1
281
     0
  0
BLOCK_RECORD
  5
8D
330
1
100
AcDbSymbolTableRecord
100
AcDbBlockTableRecord
  2
block 15
340
0
102
{BLKREFS
331
8E
102
}
 70
     0
280
     1
281
     0
  0
BLOCK_RECORD
  5
92
330
1
100
AcDbSymbolTableRecord
100
AcDbBlockTableRecord
  2
block 16
340
0
102
{BLKREFS
331
93
102
}
 70
     0
280
     1
281
     0
  0
ENDTAB
  0
ENDSEC
  0
SECTION
  2
BLOCKS
  0
BLOCK
  5
20
330
1F
100
AcDbEntity
  8
0
100
AcDbBlockBegin
  2
*Model_Space
 70
     0
 10
0.0
 20
0.0
 30
0.0
  3
*Model_Space
  1

  0
ENDBLK
  5
21
330
1F
100
AcDbEntity
  8
0
100
AcDbBlockEnd
  0
BLOCK
  5
1C
330
1B
100
AcDbEntity
 67
     1
  8
0
100
AcDbBlockBegin
  2
*Paper_Space
 70
     0
 10
0.0
 20
0.0
 30
0.0
  3
*Paper_Space
  1

  0
ENDBLK
  5
1D
330
1B
100
AcDbEntity
 67
     1
  8
0
100
AcDbBlockEnd
  0
BLOCK
  5
24
330
23
100
AcDbEntity
  8
0
100
AcDbBlockBegin
  2
*Paper_Space0
 70
     0
 10
0.0
 20
0.0
 30
0.0
  3
*Paper_Space0
  1

  0
ENDBLK
  5
25
330
23
100
AcDbEntity
  8
0
100
AcDbBlockEnd
  0
BLOCK
  5
43
330
41
100
AcDbEntity
  8
0
100
AcDbBlockBegin
  2
block 2
 70
     0
 10
0.0
 20
0.0
 30
0.0
  3
block 2
  1

  0
INSERT
  5
46
330
41
100
AcDbEntity
  8
Layer 1
100
AcDbBlockReference
  2
block 3
 10
0.0
 20
0.0
 30
0.0
  0
INSERT
  5
6A
330
41
100
AcDbEntity
  8
Layer 1
100
AcDbBlockReference
  2
block 10
 10
0.0
 20
0.0
 30
0.0
  0
INSERT
  5
77
330
41
100
AcDbEntity
  8
Layer 1
100
AcDbBlockReference
  2
block 11
 10
0.0
 20
0.0
 30
0.0
  0
INSERT
  5
8E
330
41
100
AcDbEntity
  8
Layer 1
100
AcDbBlockReference
  2
block 15
 10
0.0
 20
0.0
 30
0.0
  0
INSERT
  5
93
330
41
100
AcDbEntity
  8
Layer 1
100
AcDbBlockReference
  2
block 16
 10
0.0
 20
0.0
 30
0.0
  0
ENDBLK
  5
44
330
41
100
AcDbEntity
  8
0
100
AcDbBlockEnd
  0
BLOCK
  5
47
330
45
100
AcDbEntity
  8
0
100
AcDbBlockBegin
  2
block 3
 70
     0
 10
0.0
 20
0.0
 30
0.0
  3
block 3
  1

  0
INSERT
  5
4A
330
45
100
AcDbEntity
  8
Layer 1
100
AcDbBlockReference
  2
block 4
 10
0.0
 20
0.0
 30
0.0
  0
INSERT
  5
4F
330
45
100
AcDbEntity
  8
Layer 1
100
AcDbBlockReference
  2
block 5
 10
0.0
 20
0.0
 30
0.0
  0
INSERT
  5
54
330
45
100
AcDbEntity
  8
Layer 1
100
AcDbBlockReference
  2
block 6
 10
0.0
 20
0.0
 30
0.0
  0
INSERT
  5
5A
330
45
100
AcDbEntity
  8
Layer 1
100
AcDbBlockReference
  2
block 7
 10
0.0
 20
0.0
 30
0.0
  0
INSERT
  5
60
330
45
100
AcDbEntity
  8
Layer 1
100
AcDbBlockReference
  2
block 8
 10
0.0
 20
0.0
 30
0.0
  0
INSERT
  5
65
330
45
100
AcDbEntity
  8
Layer 1
100
AcDbBlockReference
  2
block 9
 10
0.0
 20
0.0
 30
0.0
  0
ENDBLK
  5
48
330
45
100
AcDbEntity
  8
0
100
AcDbBlockEnd
  0
BLOCK
  5
4B
330
49
100
AcDbEntity
  8
0
100
AcDbBlockBegin
  2
block 4
 70
     0
 10
0.0
 20
0.0
 30
0.0
  3
block 4
  1

  0
SPLINE
  5
4D
330
49
100
AcDbEntity
  8
Layer 1
370
     0
100
AcDbSpline
210
0.0
220
0.0
230
1.0
 70
    11
 71
     3
 72
    53
 73
    49
 74
     0
 42
0.0000000001
 43
0.0000000001
 12
1.0
 22
0.0
 32
0.0
 13
1.0
 23
0.0
 33
0.0
 40
0.0
 40
0.0
 40
0.0
 40
0.0
 40
1.0
 40
1.0
 40
1.0
 40
2.0
 40
2.0
 40
2.0
 40
3.0
 40
3.0
 40
3.0
 40
4.0
 40
4.0
 40
4.0
 40
5.0
 40
5.0
 40
5.0
 40
6.0
 40
6.0
 40
6.0
 40
7.0
 40
7.0
 40
7.0
 40
8.0
 40
8.0
 40
8.0
 40
9.0
 40
9.0
 40
9.0
 40
10.0
 40
10.0
 40
10.0
 40
11.0
 40
11.0
 40
11.0
 40
12.0
 40
12.0
 40
12.0
 40
13.0
 40
13.0
 40
13.0
 40
14.0
 40
14.0
 40
14.0
 40
15.0
 40
15.0
 40
15.0
 40
16.0
 40
16.0
 40
16.0
 40
16.0
 10
211.0152158522933
 20
-253.3214622898922
 30
0.0
 10
211.0622803490951
 20
-262.7537053107781
 30
0.0
 10
211.1096494704725
 20
-272.1861006439522
 30
0.0
 10
211.1567139672743
 20
-281.6184959771253
 30
0.0
 10
198.3236421936572
 20
-283.8070712345589
 30
0.0
 10
185.5128080139993
 20
-286.1270919960061
 30
0.0
 10
172.7271053617596
 20
-288.5784059491789
 30
0.0
 10
172.6882657284759
 20
-279.3670157450015
 30
0.0
 10
172.6494260951931
 20
-270.1554732285358
 30
0.0
 10
172.6106626180535
 20
-260.9442353366449
 30
0.0
 10
172.5345826305047
 20
-242.5047005766774
 30
0.0
 10
163.9676257142528
 20
-235.1659899458973
 30
0.0
 10
147.0048347366246
 20
-239.3551870981319
 30
0.0
 10
130.044480755595
 20
-243.5797207010401
 30
0.0
 10
121.6269421932675
 20
-254.7536547281725
 30
0.0
 10
121.6612124579297
 20
-272.4506670871397
 30
0.0
 10
121.8431494852102
 20
-352.3495806175097
 30
0.0
 10
122.0253149809232
 20
-432.2489510847427
 30
0.0
 10
122.2072520082038
 20
-512.1478646151127
 30
0.0
 10
122.2453300800507
 20
-529.8649821960144
 30
0.0
 10
130.8445772012283
 20
-538.4694079349638
 30
0.0
 10
148.0164929494358
 20
-538.0059216444515
 30
0.0
 10
165.1838393290209
 20
-537.5425876662266
 30
0.0
 10
173.7387635745699
 20
-528.1083645856042
 30
0.0
 10
173.6588757798363
 20
-509.6464399193901
 30
0.0
 10
173.6200361465535
 20
-500.4348974029253
 30
0.0
 10
173.5811965132707
 20
-491.2236595110344
 30
0.0
 10
173.5424330361311
 20
-482.012269306857
 30
0.0
 10
186.402616396902
 20
-481.1951138850363
 30
0.0
 10
199.2711769334792
 20
-480.4216720896957
 30
0.0
 10
212.1471246159945
 20
-479.6922485454097
 30
0.0
 10
212.1943414250836
 20
-489.1246438785829
 30
0.0
 10
212.2414059218863
 20
-498.5570392117561
 30
0.0
 10
212.2886227309755
 20
-507.9892822326419
 30
0.0
 10
212.529809238049
 20
-555.3456093772129
 30
0.0
 10
191.1507996438395
 20
-578.941828938885
 30
0.0
 10
148.1544117256626
 20
-578.7317902945815
 30
0.0
 10
105.1418025488792
 20
-578.4704224094276
 30
0.0
 10
83.64444630737125
 20
-556.9584441883308
 30
0.0
 10
83.66668390132963
 20
-514.2427678158056
 30
0.0
 10
83.66668390132963
 20
-436.8576162764357
 30
0.0
 10
83.66668390132963
 20
-359.4723124247785
 30
0.0
 10
83.66668390132963
 20
-282.0870085731212
 30
0.0
 10
83.71153986996433
 20
-239.48632797757
 30
0.0
 10
104.5609596409367
 20
-210.6766111309998
 30
0.0
 10
146.8669159603978
 20
-198.6306131024448
 30
0.0
 10
189.2240492084202
 20
-186.8589295034699
 30
0.0
 10
210.7966477198961
 20
-206.0792170485729
 30
0.0
 10
211.0152158522933
 20
-253.3214622898922
 30
0.0
  0
ENDBLK
  5
4C
330
49
100
AcDbEntity
  8
0
100
AcDbBlockEnd
  0
BLOCK
  5
50
330
4E
100
AcDbEntity
  8
0
100
AcDbBlockBegin
  2
block 5
 70
     0
 10
0.0
 20
0.0
 30
0.0
  3
block 5
  1

  0
SPLINE
  5
52
330
4E
100
AcDbEntity
  8
Layer 1
370
     0
100
AcDbSpline
210
0.0
220
0.0
230
1.0
 70
    11
 71
     3
 72
    41
 73
    37
 74
     0
 42
0.0000000001
 43
0.0000000001
 12
1.0
 22
0.0
 32
0.0
 13
1.0
 23
0.0
 33
0.0
 40
0.0
 40
0.0
 40
0.0
 40
0.0
 40
1.0
 40
1.0
 40
1.0
 40
2.0
 40
2.0
 40
2.0
 40
3.0
 40
3.0
 40
3.0
 40
4.0
 40
4.0
 40
4.0
 40
5.0
 40
5.0
 40
5.0
 40
6.0
 40
6.0
 40
6.0
 40
7.0
 40
7.0
 40
7.0
 40
8.0
 40
8.0
 40
8.0
 40
9.0
 40
9.0
 40
9.0
 40
10.0
 40
10.0
 40
10.0
 40
11.0
 40
11.0
 40
11.0
 40
12.0
 40
12.0
 40
12.0
 40
12.0
 10
276.1184376299489
 20
-388.7068282408654
 30
0.0
 10
276.4556570342193
 20
-452.0484822587705
 30
0.0
 10
276.7928764384897
 20
-515.3899839643882
 30
0.0
 10
277.1300958427601
 20
-578.7317902945815
 30
0.0
 10
264.2326721277232
 20
-578.7317902945815
 30
0.0
 10
251.3353245688304
 20
-578.7317902945815
 30
0.0
 10
238.4379008537935
 20
-578.7317902945815
 30
0.0
 10
237.7331519000636
 20
-444.8134962956992
 30
0.0
 10
237.0287075709075
 20
-310.8953546091052
 30
0.0
 10
236.3239586171785
 20
-176.977136766367
 30
0.0
 10
249.1736324301191
 20
-174.2924042327768
 30
0.0
 10
262.0504178302153
 20
-171.7827546735352
 30
0.0
 10
274.951192415575
 20
-169.4481119324992
 30
0.0
 10
275.2625187309895
 20
-227.9174481892487
 30
0.0
 10
275.5736927341168
 20
-286.38663213371
 30
0.0
 10
275.8850190495314
 20
-344.8556637658839
 30
0.0
 10
293.0847317901862
 20
-343.0768085615155
 30
0.0
 10
310.308205247673
 20
-341.4760064211005
 30
0.0
 10
327.5513269902331
 20
-340.0529527200633
 30
0.0
 10
327.2588873984541
 20
-280.383091014146
 30
0.0
 10
326.9662954943879
 20
-220.7132293082286
 30
0.0
 10
326.6738559026089
 20
-161.0434437584554
 30
0.0
 10
339.6315191273061
 20
-159.1757904905417
 30
0.0
 10
352.6082213879263
 20
-157.4834486654081
 30
0.0
 10
365.6006879702909
 20
-155.9657328777612
 30
0.0
 10
366.2049869704915
 20
-296.8878027874634
 30
0.0
 10
366.8092098145471
 20
-437.8098726971657
 30
0.0
 10
367.4135088147468
 20
-578.7317902945815
 30
0.0
 10
354.5160850997099
 20
-578.7317902945815
 30
0.0
 10
341.6187375408172
 20
-578.7317902945815
 30
0.0
 10
328.7213138257803
 20
-578.7317902945815
 30
0.0
 10
328.4044281118759
 20
-514.0895416546955
 30
0.0
 10
328.0874662418282
 20
-449.4469883902366
 30
0.0
 10
327.7707328402112
 20
-384.8045874380641
 30
0.0
 10
310.5362928980321
 20
-385.9607900116025
 30
0.0
 10
293.3175411214543
 20
-387.2615369458699
 30
0.0
 10
276.1184376299489
 20
-388.7068282408654
 30
0.0
  0
ENDBLK
  5
51
330
4E
100
AcDbEntity
  8
0
100
AcDbBlockEnd
  0
BLOCK
  5
55
330
53
100
AcDbEntity
  8
0
100
AcDbBlockBegin
  2
block 6
 70
     0
 10
0.0
 20
0.0
 30
0.0
  3
block 6
  1

  0
SPLINE
  5
57
330
53
100
AcDbEntity
  8
Layer 1
370
     0
100
AcDbSpline
210
0.0
220
0.0
230
1.0
 70
    11
 71
     3
 72
    23
 73
    19
 74
     0
 42
0.0000000001
 43
0.0000000001
 12
1.0
 22
0.0
 32
0.0
 13
1.0
 23
0.0
 33
0.0
 40
0.0
 40
0.0
 40
0.0
 40
0.0
 40
1.0
 40
1.0
 40
1.0
 40
2.0
 40
2.0
 40
2.0
 40
3.0
 40
3.0
 40
3.0
 40
4.0
 40
4.0
 40
4.0
 40
5.0
 40
5.0
 40
5.0
 40
6.0
 40
6.0
 40
6.0
 40
6.0
 10
391.889331836067
 20
-229.1584887068611
 30
0.0
 10
391.6945244205017
 20
-178.6991033313971
 30
0.0
 10
413.2605735036195
 20
-150.7216208230984
 30
0.0
 10
456.7523571365164
 20
-148.2033656196199
 30
0.0
 10
500.2514517592072
 20
-145.9579017228471
 30
0.0
 10
522.0458169611156
 20
-172.0174679083957
 30
0.0
 10
522.0494724560131
 20
-223.4051966754705
 30
0.0
 10
522.0841996575364
 20
-316.0989515953233
 30
0.0
 10
522.1189268590606
 20
-408.7919449537403
 30
0.0
 10
522.1535017482965
 20
-501.4856998735941
 30
0.0
 10
522.1617266118155
 20
-552.9897952282299
 30
0.0
 10
500.673204482976
 20
-578.7531140148149
 30
0.0
 10
457.6944847901359
 20
-578.7317902945815
 30
0.0
 10
414.709748761944
 20
-578.6580711474871
 30
0.0
 10
393.1184158391197
 20
-553.3114787791874
 30
0.0
 10
392.920333709375
 20
-502.7363360653108
 30
0.0
 10
392.5767933451789
 20
-411.5437710499236
 30
0.0
 10
392.2330245125504
 20
-320.3510537222483
 30
0.0
 10
391.889331836067
 20
-229.1584887068611
 30
0.0
  0
SPLINE
  5
58
330
53
100
AcDbEntity
  8
Layer 1
370
     0
100
AcDbSpline
210
0.0
220
0.0
230
1.0
 70
    11
 71
     3
 72
    23
 73
    19
 74
     0
 42
0.0000000001
 43
0.0000000001
 12
1.0
 22
0.0
 32
0.0
 13
1.0
 23
0.0
 33
0.0
 40
0.0
 40
0.0
 40
0.0
 40
0.0
 40
1.0
 40
1.0
 40
1.0
 40
2.0
 40
2.0
 40
2.0
 40
3.0
 40
3.0
 40
3.0
 40
4.0
 40
4.0
 40
4.0
 40
5.0
 40
5.0
 40
5.0
 40
6.0
 40
6.0
 40
6.0
 40
6.0
 10
456.8532640269086
 20
-194.3307610734246
 30
0.0
 10
439.4787729364798
 20
-195.1895739058446
 30
0.0
 10
430.8321566939248
 20
-206.0300963358914
 30
0.0
 10
430.8913300175736
 20
-226.4257016466008
 30
0.0
 10
431.1542210256002
 20
-318.3313927915242
 30
0.0
 10
431.4171120336268
 20
-410.2366269995864
 30
0.0
 10
431.6798507293661
 20
-502.1423181445098
 30
0.0
 10
431.7397094583084
 20
-522.559018707022
 30
0.0
 10
440.3762730898952
 20
-532.6950968079136
 30
0.0
 10
457.5935778997427
 20
-532.6029478740456
 30
0.0
 10
474.8084457129926
 20
-532.5112558770397
 30
0.0
 10
483.4047989007104
 20
-522.206415761726
 30
0.0
 10
483.3760118783948
 20
-501.6419722804503
 30
0.0
 10
483.2390831320354
 20
-409.1358660986552
 30
0.0
 10
483.1023066979642
 20
-316.6302168537222
 30
0.0
 10
482.9655302638921
 20
-224.1244152965019
 30
0.0
 10
482.9364386170018
 20
-203.5803055055922
 30
0.0
 10
474.2275266489069
 20
-193.5072846916783
 30
0.0
 10
456.8532640269086
 20
-194.3307610734246
 30
0.0
  0
ENDBLK
  5
56
330
53
100
AcDbEntity
  8
0
100
AcDbBlockEnd
  0
BLOCK
  5
5B
330
59
100
AcDbEntity
  8
0
100
AcDbBlockBegin
  2
block 7
 70
     0
 10
0.0
 20
0.0
 30
0.0
  3
block 7
  1

  0
SPLINE
  5
5D
330
59
100
AcDbEntity
  8
Layer 1
370
     0
100
AcDbSpline
210
0.0
220
0.0
230
1.0
 70
    11
 71
     3
 72
    23
 73
    19
 74
     0
 42
0.0000000001
 43
0.0000000001
 12
1.0
 22
0.0
 32
0.0
 13
1.0
 23
0.0
 33
0.0
 40
0.0
 40
0.0
 40
0.0
 40
0.0
 40
1.0
 40
1.0
 40
1.0
 40
2.0
 40
2.0
 40
2.0
 40
3.0
 40
3.0
 40
3.0
 40
4.0
 40
4.0
 40
4.0
 40
5.0
 40
5.0
 40
5.0
 40
6.0
 40
6.0
 40
6.0
 40
6.0
 10
548.1105617644353
 20
-223.4051966754705
 30
0.0
 10
548.1142172593318
 20
-172.0176963768272
 30
0.0
 10
569.9046223417681
 20
-145.9584348158533
 30
0.0
 10
613.4077532400752
 20
-148.2032894634758
 30
0.0
 10
656.8953482850684
 20
-150.7212400423796
 30
0.0
 10
678.465205175371
 20
-178.6990271752538
 30
0.0
 10
678.2710070089561
 20
-229.1583363945738
 30
0.0
 10
677.9273904886159
 20
-320.3509014099609
 30
0.0
 10
677.5834693437009
 20
-411.5436187376363
 30
0.0
 10
677.2398528233607
 20
-502.7363360653108
 30
0.0
 10
677.0423037866221
 20
-553.3117834037621
 30
0.0
 10
655.446249182889
 20
-578.6580711474871
 30
0.0
 10
612.4657017425998
 20
-578.7317902945815
 30
0.0
 10
569.4839358040117
 20
-578.7528093902401
 30
0.0
 10
547.9978506717707
 20
-552.9882721053564
 30
0.0
 10
548.0066847844391
 20
-501.4856998735941
 30
0.0
 10
548.0414119859634
 20
-408.7920972660277
 30
0.0
 10
548.075834562911
 20
-316.098799283036
 30
0.0
 10
548.1105617644353
 20
-223.4051966754705
 30
0.0
  0
SPLINE
  5
5E
330
59
100
AcDbEntity
  8
Layer 1
370
     0
100
AcDbSpline
210
0.0
220
0.0
230
1.0
 70
    11
 71
     3
 72
    23
 73
    19
 74
     0
 42
0.0000000001
 43
0.0000000001
 12
1.0
 22
0.0
 32
0.0
 13
1.0
 23
0.0
 33
0.0
 40
0.0
 40
0.0
 40
0.0
 40
0.0
 40
1.0
 40
1.0
 40
1.0
 40
2.0
 40
2.0
 40
2.0
 40
3.0
 40
3.0
 40
3.0
 40
4.0
 40
4.0
 40
4.0
 40
5.0
 40
5.0
 40
5.0
 40
6.0
 40
6.0
 40
6.0
 40
6.0
 10
613.3067701935397
 20
-194.3306849172805
 30
0.0
 10
595.9308321363806
 20
-193.5058377249479
 30
0.0
 10
587.2222247928603
 20
-203.5794677880122
 30
0.0
 10
587.1946562688427
 20
-224.1243391403586
 30
0.0
 10
587.0578798347706
 20
-316.6300645414349
 30
0.0
 10
586.9211034007003
 20
-409.1360184109426
 30
0.0
 10
586.78417465434
 20
-501.6419722804503
 30
0.0
 10
586.7555399443117
 20
-522.2083958214616
 30
0.0
 10
595.3483899494204
 20
-532.5107989401777
 30
0.0
 10
612.5666847891353
 20
-532.6029478740456
 30
0.0
 10
629.7816287585301
 20
-532.6954014324883
 30
0.0
 10
638.4204770744273
 20
-522.5596279561714
 30
0.0
 10
638.4803358033696
 20
-502.1421658322224
 30
0.0
 10
638.7430744991088
 20
-410.2366269995864
 30
0.0
 10
639.0059655071345
 20
-318.3310881669495
 30
0.0
 10
639.268856515162
 20
-226.4256254904567
 30
0.0
 10
639.3274967458037
 20
-206.0297155551734
 30
0.0
 10
630.6779865697899
 20
-195.1893454374131
 30
0.0
 10
613.3067701935397
 20
-194.3306849172805
 30
0.0
  0
ENDBLK
  5
5C
330
59
100
AcDbEntity
  8
0
100
AcDbBlockEnd
  0
BLOCK
  5
61
330
5F
100
AcDbEntity
  8
0
100
AcDbBlockBegin
  2
block 8
 70
     0
 10
0.0
 20
0.0
 30
0.0
  3
block 8
  1

  0
SPLINE
  5
63
330
5F
100
AcDbEntity
  8
Layer 1
370
     0
100
AcDbSpline
210
0.0
220
0.0
230
1.0
 70
    11
 71
     3
 72
    50
 73
    46
 74
     0
 42
0.0000000001
 43
0.0000000001
 12
1.0
 22
0.0
 32
0.0
 13
1.0
 23
0.0
 33
0.0
 40
0.0
 40
0.0
 40
0.0
 40
0.0
 40
1.0
 40
1.0
 40
1.0
 40
2.0
 40
2.0
 40
2.0
 40
3.0
 40
3.0
 40
3.0
 40
4.0
 40
4.0
 40
4.0
 40
5.0
 40
5.0
 40
5.0
 40
6.0
 40
6.0
 40
6.0
 40
7.0
 40
7.0
 40
7.0
 40
8.0
 40
8.0
 40
8.0
 40
9.0
 40
9.0
 40
9.0
 40
10.0
 40
10.0
 40
10.0
 40
11.0
 40
11.0
 40
11.0
 40
12.0
 40
12.0
 40
12.0
 40
13.0
 40
13.0
 40
13.0
 40
14.0
 40
14.0
 40
14.0
 40
15.0
 40
15.0
 40
15.0
 40
15.0
 10
769.3787340802701
 20
-165.0123211869886
 30
0.0
 10
812.4671186200285
 20
-172.2936100854249
 30
0.0
 10
833.6970144848874
 20
-201.1880125637808
 30
0.0
 10
833.4612350640164
 20
-248.7188895896943
 30
0.0
 10
820.6031840752676
 20
-246.5135599806481
 30
0.0
 10
807.7224385557001
 20
-244.4518608586059
 30
0.0
 10
794.8223493756341
 20
-242.534401472717
 30
0.0
 10
794.9236370467443
 20
-223.0867116825484
 30
0.0
 10
786.3792223490254
 20
-211.8797258890536
 30
0.0
 10
769.1491994631815
 20
-209.3387761547547
 30
0.0
 10
751.908971654082
 20
-206.8161800510852
 30
0.0
 10
743.1814775869261
 20
-223.1844961710494
 30
0.0
 10
743.0134771339399
 20
-258.0049128146911
 30
0.0
 10
742.8599463482569
 20
-288.8396215220437
 30
0.0
 10
757.806046484764
 20
-324.2982266498293
 30
0.0
 10
787.7238352220593
 20
-363.2522464608101
 30
0.0
 10
817.6303528500885
 20
-402.273435990528
 30
0.0
 10
832.4363256822035
 20
-442.4854029830212
 30
0.0
 10
832.2153205532068
 20
-485.4650365495854
 30
0.0
 10
831.892266191664
 20
-547.405112898974
 30
0.0
 10
810.2273664340319
 20
-578.5136790990455
 30
0.0
 10
767.2369186950637
 20
-578.7317902945815
 30
0.0
 10
724.2490602649796
 20
-578.8480045698561
 30
0.0
 10
702.8631966178382
 20
-553.6659094719325
 30
0.0
 10
703.072930637567
 20
-503.2365296170829
 30
0.0
 10
715.9870325480733
 20
-503.5076454886284
 30
0.0
 10
728.8985451496919
 20
-503.8098330667999
 30
0.0
 10
741.806859193277
 20
-504.1433969761729
 30
0.0
 10
741.7101408907874
 20
-524.0554869305788
 30
0.0
 10
750.2633897011747
 20
-534.1269846216192
 30
0.0
 10
767.4664533121522
 20
-534.4038883600851
 30
0.0
 10
784.663119807059
 20
-534.6637331223637
 30
0.0
 10
793.3568005464167
 20
-517.7844854343666
 30
0.0
 10
793.5383567929784
 20
-483.7172530518437
 30
0.0
 10
793.5389660421279
 20
-483.6205347493542
 30
0.0
 10
793.5392706667044
 20
-483.523968759152
 30
0.0
 10
793.5398799158538
 20
-483.4272504566625
 30
0.0
 10
793.6963046349974
 20
-453.2470276482027
 30
0.0
 10
778.8400687480462
 20
-419.4190778691609
 30
0.0
 10
748.876434012247
 20
-380.6300122654175
 30
0.0
 10
718.9045744129307
 20
-341.8922759025227
 30
0.0
 10
703.9465939180063
 20
-299.4260870567332
 30
0.0
 10
704.1412490212842
 20
-254.1058705699243
 30
0.0
 10
704.4009414712764
 20
-188.6633731721195
 30
0.0
 10
726.2504437212174
 20
-157.9681825200105
 30
0.0
 10
769.3787340802701
 20
-165.0123211869886
 30
0.0
  0
ENDBLK
  5
62
330
5F
100
AcDbEntity
  8
0
100
AcDbBlockEnd
  0
BLOCK
  5
66
330
64
100
AcDbEntity
  8
0
100
AcDbBlockBegin
  2
block 9
 70
     0
 10
0.0
 20
0.0
 30
0.0
  3
block 9
  1

  0
SPLINE
  5
68
330
64
100
AcDbEntity
  8
Layer 1
370
     0
100
AcDbSpline
210
0.0
220
0.0
230
1.0
 70
    11
 71
     3
 72
    41
 73
    37
 74
     0
 42
0.0000000001
 43
0.0000000001
 12
1.0
 22
0.0
 32
0.0
 13
1.0
 23
0.0
 33
0.0
 40
0.0
 40
0.0
 40
0.0
 40
0.0
 40
1.0
 40
1.0
 40
1.0
 40
2.0
 40
2.0
 40
2.0
 40
3.0
 40
3.0
 40
3.0
 40
4.0
 40
4.0
 40
4.0
 40
5.0
 40
5.0
 40
5.0
 40
6.0
 40
6.0
 40
6.0
 40
7.0
 40
7.0
 40
7.0
 40
8.0
 40
8.0
 40
8.0
 40
9.0
 40
9.0
 40
9.0
 40
10.0
 40
10.0
 40
10.0
 40
11.0
 40
11.0
 40
11.0
 40
12.0
 40
12.0
 40
12.0
 40
12.0
 10
986.4959396280046
 20
-217.5992045926441
 30
0.0
 10
986.4959396280046
 20
-230.496628307681
 30
0.0
 10
986.4959396280046
 20
-243.3940520227179
 30
0.0
 10
986.4959396280046
 20
-256.2913995816107
 30
0.0
 10
957.0757551335955
 20
-247.7797320256796
 30
0.0
 10
927.452842984676
 20
-240.119337843942
 30
0.0
 10
897.6684798111291
 20
-233.3100647241117
 30
0.0
 10
897.4937776174993
 20
-274.7607875499061
 30
0.0
 10
897.3189231115812
 20
-316.2116626879888
 30
0.0
 10
897.1443732302378
 20
-357.6625378260705
 30
0.0
 10
918.4985559216038
 20
-360.7753440433562
 30
0.0
 10
939.7997339369595
 20
-364.1661201851193
 30
0.0
 10
961.039073163638
 20
-367.8347139390726
 30
0.0
 10
961.0180540679794
 20
-381.0155146647885
 30
0.0
 10
960.9967303477442
 20
-394.1963153905053
 30
0.0
 10
960.9755589397973
 20
-407.3772684285086
 30
0.0
 10
939.6880890303073
 20
-404.3966692766735
 30
0.0
 10
918.3506606905539
 20
-401.6416446224548
 30
0.0
 10
896.9696710366079
 20
-399.1123467781408
 30
0.0
 10
896.7754728701912
 20
-445.1682316130191
 30
0.0
 10
896.5814270160627
 20
-491.2247256970459
 30
0.0
 10
896.3872288496477
 20
-537.2806105319241
 30
0.0
 10
926.4445356421875
 20
-538.0974613291692
 30
0.0
 10
956.482346461944
 20
-539.016818295825
 30
0.0
 10
986.4959396280046
 20
-540.0383768073152
 30
0.0
 10
986.4959396280046
 20
-552.93618130307
 30
0.0
 10
986.4959396280046
 20
-565.8339857988249
 30
0.0
 10
986.4959396280046
 20
-578.7317902945815
 30
0.0
 10
943.503968766161
 20
-578.7317902945815
 30
0.0
 10
900.512302528894
 20
-578.7317902945815
 30
0.0
 10
857.5204839793387
 20
-578.7317902945815
 30
0.0
 10
858.1807577451509
 20
-446.6813018759003
 30
0.0
 10
858.8408791986785
 20
-314.6308134572209
 30
0.0
 10
859.501305276779
 20
-182.5802488823965
 30
0.0
 10
902.2072336629135
 20
-192.3079777408093
 30
0.0
 10
944.5826443854203
 20
-203.9807345091276
 30
0.0
 10
986.4959396280046
 20
-217.5992045926441
 30
0.0
  0
ENDBLK
  5
67
330
64
100
AcDbEntity
  8
0
100
AcDbBlockEnd
  0
BLOCK
  5
6B
330
69
100
AcDbEntity
  8
0
100
AcDbBlockBegin
  2
block 10
 70
     0
 10
0.0
 20
0.0
 30
0.0
  3
block 10
  1

  0
SPLINE
  5
6D
330
69
100
AcDbEntity
  8
Layer 1
370
     0
100
AcDbSpline
210
0.0
220
0.0
230
1.0
 70
    11
 71
     3
 72
   119
 73
   115
 74
     0
 42
0.0000000001
 43
0.0000000001
 12
1.0
 22
0.0
 32
0.0
 13
1.0
 23
0.0
 33
0.0
 40
0.0
 40
0.0
 40
0.0
 40
0.0
 40
1.0
 40
1.0
 40
1.0
 40
2.0
 40
2.0
 40
2.0
 40
3.0
 40
3.0
 40
3.0
 40
4.0
 40
4.0
 40
4.0
 40
5.0
 40
5.0
 40
5.0
 40
6.0
 40
6.0
 40
6.0
 40
7.0
 40
7.0
 40
7.0
 40
8.0
 40
8.0
 40
8.0
 40
9.0
 40
9.0
 40
9.0
 40
10.0
 40
10.0
 40
10.0
 40
11.0
 40
11.0
 40
11.0
 40
12.0
 40
12.0
 40
12.0
 40
13.0
 40
13.0
 40
13.0
 40
14.0
 40
14.0
 40
14.0
 40
15.0
 40
15.0
 40
15.0
 40
16.0
 40
16.0
 40
16.0
 40
17.0
 40
17.0
 40
17.0
 40
18.0
 40
18.0
 40
18.0
 40
19.0
 40
19.0
 40
19.0
 40
20.0
 40
20.0
 40
20.0
 40
21.0
 40
21.0
 40
21.0
 40
22.0
 40
22.0
 40
22.0
 40
23.0
 40
23.0
 40
23.0
 40
24.0
 40
24.0
 40
24.0
 40
25.0
 40
25.0
 40
25.0
 40
26.0
 40
26.0
 40
26.0
 40
27.0
 40
27.0
 40
27.0
 40
28.0
 40
28.0
 40
28.0
 40
29.0
 40
29.0
 40
29.0
 40
30.0
 40
30.0
 40
30.0
 40
31.0
 40
31.0
 40
31.0
 40
32.0
 40
32.0
 40
32.0
 40
33.0
 40
33.0
 40
33.0
 40
34.0
 40
34.0
 40
34.0
 40
35.0
 40
35.0
 40
35.0
 40
36.0
 40
36.0
 40
36.0
 40
37.0
 40
37.0
 40
37.0
 40
38.0
 40
38.0
 40
38.0
 40
38.0
 10
333.6318619710701
 20
-781.7579768871856
 30
0.0
 10
332.9446289303896
 20
-808.15796103504
 30
0.0
 10
330.4174634580986
 20
-834.328867502667
 30
0.0
 10
326.0552395473951
 20
-860.2706962900666
 30
0.0
 10
323.7595887519292
 20
-873.3573680221798
 30
0.0
 10
321.0057825960102
 20
-886.2125250774661
 30
0.0
 10
317.7913840830388
 20
-899.070119129352
 30
0.0
 10
317.7913840830388
 20
-899.070119129352
 30
0.0
 10
316.1854033248519
 20
-905.2674014784698
 30
0.0
 10
316.1854033248519
 20
-905.2674014784698
 30
0.0
 10
315.4957332875729
 20
-908.4817999914412
 30
0.0
 10
314.5769855700673
 20
-911.6961985044127
 30
0.0
 10
313.6582378525609
 20
-914.4500046603316
 30
0.0
 10
311.3625870570959
 20
-920.1891316489964
 30
0.0
 10
308.1506255407221
 20
-924.3222778794734
 30
0.0
 10
304.0174793102451
 20
-926.8470063551649
 30
0.0
 10
300.1134107599946
 20
-929.6032495076834
 30
0.0
 10
294.3742837713307
 20
-930.7510749054163
 30
0.0
 10
289.3248268199459
 20
-929.832327187909
 30
0.0
 10
284.2729328719633
 20
-928.9135794704034
 30
0.0
 10
279.6816312810315
 20
-926.3888509947119
 30
0.0
 10
276.009077407607
 20
-922.4847824444605
 30
0.0
 10
272.5656012144082
 20
-919.0413062512634
 30
0.0
 10
270.0408727387157
 20
-914.2209269801042
 30
0.0
 10
267.9742996234772
 20
-908.9399553518942
 30
0.0
 10
267.7452219432507
 20
-908.2527223112138
 30
0.0
 10
267.5161442630233
 20
-907.7921299541631
 30
0.0
 10
267.2846295861982
 20
-907.1048969134808
 30
0.0
 10
266.8264742257443
 20
-909.8587030693998
 30
0.0
 10
266.1368041884652
 20
-912.6149462219182
 30
0.0
 10
265.2204934675574
 20
-914.9105970173841
 30
0.0
 10
263.8411533930002
 20
-918.812228571036
 30
0.0
 10
262.0060949545868
 20
-921.7975494037801
 30
0.0
 10
259.7104441591209
 20
-924.551355559699
 30
0.0
 10
257.4147933636559
 20
-926.8470063551649
 30
0.0
 10
254.8876278913649
 20
-928.9135794704034
 30
0.0
 10
251.6756663749911
 20
-930.0614048681364
 30
0.0
 10
248.6903455422471
 20
-931.4383079460968
 30
0.0
 10
244.7887139885952
 20
-931.8989003031493
 30
0.0
 10
241.3428007987986
 20
-931.4383079460968
 30
0.0
 10
237.6702469253732
 20
-930.9801525856419
 30
0.0
 10
234.6873630892269
 20
-929.6032495076834
 30
0.0
 10
232.1601976169368
 20
-927.7657540726705
 30
0.0
 10
229.4063914610169
 20
-925.9282586376594
 30
0.0
 10
227.1107406655519
 20
-923.403530161966
 30
0.0
 10
225.0441675503125
 20
-919.960053968769
 30
0.0
 10
225.0441675503125
 20
-919.960053968769
 30
0.0
 10
220.2237882791551
 20
-907.3339745937083
 30
0.0
 10
220.2237882791551
 20
-907.3339745937083
 30
0.0
 10
219.3050405616486
 20
-905.2674014784698
 30
0.0
 10
218.6153705243705
 20
-902.9717506830038
 30
0.0
 10
217.9281374836892
 20
-900.6760998875379
 30
0.0
 10
217.9281374836892
 20
-900.6760998875379
 30
0.0
 10
216.7803120859562
 20
-896.5429536570609
 30
0.0
 10
216.7803120859562
 20
-896.5429536570609
 30
0.0
 10
205.9892911493098
 20
-858.6647155318806
 30
0.0
 10
199.3314164431395
 20
-819.6362150123678
 30
0.0
 10
196.5776102872205
 20
-780.381073809227
 30
0.0
 10
196.3485326069931
 20
-775.3291798612427
 30
0.0
 10
198.4151057222325
 20
-771.1960336307657
 30
0.0
 10
201.3979895583789
 20
-771.1960336307657
 30
0.0
 10
201.3979895583789
 20
-771.1960336307657
 30
0.0
 10
217.2384674464101
 20
-770.2797229098578
 30
0.0
 10
217.2384674464101
 20
-770.2797229098578
 30
0.0
 10
220.2237882791551
 20
-770.2797229098578
 30
0.0
 10
222.7485167548475
 20
-773.9522767832841
 30
0.0
 10
222.977594435074
 20
-778.7726560544415
 30
0.0
 10
225.5023229107665
 20
-816.1927388191689
 30
0.0
 10
231.9311199367094
 20
-853.3837439036706
 30
0.0
 10
242.2615485163042
 20
-889.4269235904376
 30
0.0
 10
242.2615485163042
 20
-889.4269235904376
 30
0.0
 10
243.1802962338097
 20
-892.1807297463565
 30
0.0
 10
243.1802962338097
 20
-892.1807297463565
 30
0.0
 10
243.1802962338097
 20
-892.1807297463565
 30
0.0
 10
253.281647133178
 20
-837.5432660156384
 30
0.0
 10
253.281647133178
 20
-837.5432660156384
 30
0.0
 10
254.2003948506845
 20
-832.7228867444792
 30
0.0
 10
257.1857156834285
 20
-829.2794105512821
 30
0.0
 10
260.1685995195749
 20
-829.7375659117351
 30
0.0
 10
260.1685995195749
 20
-829.7375659117351
 30
0.0
 10
275.7799997273796
 20
-832.7228867444792
 30
0.0
 10
275.7799997273796
 20
-832.7228867444792
 30
0.0
 10
278.0756505228455
 20
-833.181042104934
 30
0.0
 10
279.452553600805
 20
-835.708207577225
 30
0.0
 10
279.6816312810315
 20
-838.920169093597
 30
0.0
 10
280.142223638084
 20
-840.06799449133
 30
0.0
 10
280.3713013183105
 20
-841.447334565888
 30
0.0
 10
280.600378998538
 20
-842.8242376438484
 30
0.0
 10
281.5191267160435
 20
-853.6128215838962
 30
0.0
 10
283.1251074742304
 20
-864.1747648403161
 30
0.0
 10
285.6522729465205
 20
-874.7342711001384
 30
0.0
 10
286.8000983442535
 20
-880.0152427283483
 30
0.0
 10
288.1770014222129
 20
-885.2937773599606
 30
0.0
 10
289.7829821803998
 20
-890.3456713079431
 30
0.0
 10
289.7829821803998
 20
-890.3456713079431
 30
0.0
 10
291.3913999351844
 20
-895.6266429361531
 30
0.0
 10
291.3913999351844
 20
-895.6266429361531
 30
0.0
 10
291.3913999351844
 20
-895.6266429361531
 30
0.0
 10
292.0786329758657
 20
-892.641322103409
 30
0.0
 10
292.0786329758657
 20
-892.641322103409
 30
0.0
 10
295.0639538086098
 20
-880.4733980888032
 30
0.0
 10
297.5886822843022
 20
-868.3054740741954
 30
0.0
 10
299.8843330797681
 20
-855.9084723793621
 30
0.0
 10
304.0174793102451
 20
-831.1144689896955
 30
0.0
 10
306.5422077859375
 20
-806.0913879198015
 30
0.0
 10
307.2318778232166
 20
-781.0683068499075
 30
0.0
 10
307.2318778232166
 20
-776.4770052589756
 30
0.0
 10
309.756606298909
 20
-772.8044513855511
 30
0.0
 10
312.7419271316539
 20
-772.8044513855511
 30
0.0
 10
312.7419271316539
 20
-772.8044513855511
 30
0.0
 10
328.5824050196852
 20
-773.0335290657786
 30
0.0
 10
328.5824050196852
 20
-773.0335290657786
 30
0.0
 10
331.5652888558316
 20
-773.0335290657786
 30
0.0
 10
333.8609396512975
 20
-776.9375976160281
 30
0.0
 10
333.6318619710701
 20
-781.7579768871856
 30
0.0
  0
SPLINE
  5
6E
330
69
100
AcDbEntity
  8
Layer 1
370
     0
100
AcDbSpline
210
0.0
220
0.0
230
1.0
 70
    11
 71
     3
 72
    77
 73
    73
 74
     0
 42
0.0000000001
 43
0.0000000001
 12
1.0
 22
0.0
 32
0.0
 13
1.0
 23
0.0
 33
0.0
 40
0.0
 40
0.0
 40
0.0
 40
0.0
 40
1.0
 40
1.0
 40
1.0
 40
2.0
 40
2.0
 40
2.0
 40
3.0
 40
3.0
 40
3.0
 40
4.0
 40
4.0
 40
4.0
 40
5.0
 40
5.0
 40
5.0
 40
6.0
 40
6.0
 40
6.0
 40
7.0
 40
7.0
 40
7.0
 40
8.0
 40
8.0
 40
8.0
 40
9.0
 40
9.0
 40
9.0
 40
10.0
 40
10.0
 40
10.0
 40
11.0
 40
11.0
 40
11.0
 40
12.0
 40
12.0
 40
12.0
 40
13.0
 40
13.0
 40
13.0
 40
14.0
 40
14.0
 40
14.0
 40
15.0
 40
15.0
 40
15.0
 40
16.0
 40
16.0
 40
16.0
 40
17.0
 40
17.0
 40
17.0
 40
18.0
 40
18.0
 40
18.0
 40
19.0
 40
19.0
 40
19.0
 40
20.0
 40
20.0
 40
20.0
 40
21.0
 40
21.0
 40
21.0
 40
22.0
 40
22.0
 40
22.0
 40
23.0
 40
23.0
 40
23.0
 40
24.0
 40
24.0
 40
24.0
 40
24.0
 10
436.7168180731851
 20
-777.1666752962556
 30
0.0
 10
436.7168180731851
 20
-777.1666752962556
 30
0.0
 10
436.7168180731851
 20
-793.2362308645133
 30
0.0
 10
436.7168180731851
 20
-793.2362308645133
 30
0.0
 10
436.7168180731851
 20
-795.9900370204341
 30
0.0
 10
435.3399149952256
 20
-798.2856878158982
 30
0.0
 10
433.5024195602136
 20
-798.2856878158982
 30
0.0
 10
433.5024195602136
 20
-798.2856878158982
 30
0.0
 10
373.3549065210573
 20
-798.2856878158982
 30
0.0
 10
373.3549065210573
 20
-798.2856878158982
 30
0.0
 10
373.3549065210573
 20
-798.2856878158982
 30
0.0
 10
373.8130618815121
 20
-843.0533153240758
 30
0.0
 10
373.8130618815121
 20
-843.0533153240758
 30
0.0
 10
373.8130618815121
 20
-843.0533153240758
 30
0.0
 10
415.5953685569439
 20
-841.6764122461154
 30
0.0
 10
415.5953685569439
 20
-841.6764122461154
 30
0.0
 10
416.5141162744494
 20
-841.6764122461154
 30
0.0
 10
417.4328639919549
 20
-843.9720630415814
 30
0.0
 10
417.4328639919549
 20
-846.9549468777277
 30
0.0
 10
417.4328639919549
 20
-846.9549468777277
 30
0.0
 10
418.122534029234
 20
-863.026939442585
 30
0.0
 10
418.122534029234
 20
-863.026939442585
 30
0.0
 10
418.122534029234
 20
-865.7807455985039
 30
0.0
 10
417.4328639919549
 20
-868.3054740741954
 30
0.0
 10
416.285038594222
 20
-868.3054740741954
 30
0.0
 10
416.285038594222
 20
-868.3054740741954
 30
0.0
 10
374.0445765583372
 20
-869.4532994719284
 30
0.0
 10
374.0445765583372
 20
-869.4532994719284
 30
0.0
 10
374.0445765583372
 20
-869.4532994719284
 30
0.0
 10
374.5027319187902
 20
-904.1195760807368
 30
0.0
 10
374.5027319187902
 20
-904.1195760807368
 30
0.0
 10
374.5027319187902
 20
-904.1195760807368
 30
0.0
 10
427.5342148913232
 20
-902.7426730027764
 30
0.0
 10
427.5342148913232
 20
-902.7426730027764
 30
0.0
 10
428.9111179692827
 20
-902.7426730027764
 30
0.0
 10
430.0589433670157
 20
-905.0383237982423
 30
0.0
 10
430.0589433670157
 20
-907.7921299541631
 30
0.0
 10
430.0589433670157
 20
-907.7921299541631
 30
0.0
 10
430.5195357240673
 20
-923.8641225190186
 30
0.0
 10
430.5195357240673
 20
-923.8641225190186
 30
0.0
 10
430.7486134042947
 20
-926.8470063551649
 30
0.0
 10
429.6007880065617
 20
-929.1426571506308
 30
0.0
 10
428.2238849286023
 20
-929.1426571506308
 30
0.0
 10
428.2238849286023
 20
-929.1426571506308
 30
0.0
 10
363.2535556216899
 20
-930.9801525856419
 30
0.0
 10
363.2535556216899
 20
-930.9801525856419
 30
0.0
 10
363.0244779414625
 20
-930.9801525856419
 30
0.0
 10
362.5638855844109
 20
-930.9801525856419
 30
0.0
 10
362.3348079041843
 20
-930.5195602285912
 30
0.0
 10
362.3348079041843
 20
-930.5195602285912
 30
0.0
 10
353.381282402549
 20
-930.7510749054163
 30
0.0
 10
353.381282402549
 20
-930.7510749054163
 30
0.0
 10
350.3983985664026
 20
-930.7510749054163
 30
0.0
 10
348.1027477709367
 20
-928.2239094331253
 30
0.0
 10
348.1027477709367
 20
-925.0119479167515
 30
0.0
 10
348.1027477709367
 20
-925.0119479167515
 30
0.0
 10
346.7234076963796
 20
-776.9375976160281
 30
0.0
 10
346.7234076963796
 20
-776.9375976160281
 30
0.0
 10
346.7234076963796
 20
-773.7231991030567
 30
0.0
 10
349.0190584918446
 20
-771.1960336307657
 30
0.0
 10
352.0043793245895
 20
-771.1960336307657
 30
0.0
 10
352.0043793245895
 20
-771.1960336307657
 30
0.0
 10
367.8448572126208
 20
-771.1960336307657
 30
0.0
 10
367.8448572126208
 20
-771.1960336307657
 30
0.0
 10
368.7636049301273
 20
-770.9669559505401
 30
0.0
 10
369.4532749674054
 20
-771.1960336307657
 30
0.0
 10
370.3695856883132
 20
-771.6566259878182
 30
0.0
 10
370.3695856883132
 20
-771.6566259878182
 30
0.0
 10
433.7314972404411
 20
-771.8857036680456
 30
0.0
 10
433.7314972404411
 20
-771.8857036680456
 30
0.0
 10
435.3399149952256
 20
-771.8857036680456
 30
0.0
 10
436.7168180731851
 20
-774.1813544635115
 30
0.0
 10
436.7168180731851
 20
-777.1666752962556
 30
0.0
  0
SPLINE
  5
6F
330
69
100
AcDbEntity
  8
Layer 1
370
     0
100
AcDbSpline
210
0.0
220
0.0
230
1.0
 70
    11
 71
     3
 72
    92
 73
    88
 74
     0
 42
0.0000000001
 43
0.0000000001
 12
1.0
 22
0.0
 32
0.0
 13
1.0
 23
0.0
 33
0.0
 40
0.0
 40
0.0
 40
0.0
 40
0.0
 40
1.0
 40
1.0
 40
1.0
 40
2.0
 40
2.0
 40
2.0
 40
3.0
 40
3.0
 40
3.0
 40
4.0
 40
4.0
 40
4.0
 40
5.0
 40
5.0
 40
5.0
 40
6.0
 40
6.0
 40
6.0
 40
7.0
 40
7.0
 40
7.0
 40
8.0
 40
8.0
 40
8.0
 40
9.0
 40
9.0
 40
9.0
 40
10.0
 40
10.0
 40
10.0
 40
11.0
 40
11.0
 40
11.0
 40
12.0
 40
12.0
 40
12.0
 40
13.0
 40
13.0
 40
13.0
 40
14.0
 40
14.0
 40
14.0
 40
15.0
 40
15.0
 40
15.0
 40
16.0
 40
16.0
 40
16.0
 40
17.0
 40
17.0
 40
17.0
 40
18.0
 40
18.0
 40
18.0
 40
19.0
 40
19.0
 40
19.0
 40
20.0
 40
20.0
 40
20.0
 40
21.0
 40
21.0
 40
21.0
 40
22.0
 40
22.0
 40
22.0
 40
23.0
 40
23.0
 40
23.0
 40
24.0
 40
24.0
 40
24.0
 40
25.0
 40
25.0
 40
25.0
 40
26.0
 40
26.0
 40
26.0
 40
27.0
 40
27.0
 40
27.0
 40
28.0
 40
28.0
 40
28.0
 40
29.0
 40
29.0
 40
29.0
 40
29.0
 10
543.0112986950753
 20
-917.6644031733031
 30
0.0
 10
543.7009687323534
 20
-923.8641225190186
 30
0.0
 10
541.8634732973424
 20
-928.9135794704034
 30
0.0
 10
538.880589461196
 20
-929.3717348308583
 30
0.0
 10
538.880589461196
 20
-929.3717348308583
 30
0.0
 10
523.0401115731638
 20
-930.9801525856419
 30
0.0
 10
523.0401115731638
 20
-930.9801525856419
 30
0.0
 10
520.2838684206472
 20
-931.4383079460968
 30
0.0
 10
517.3009845845008
 20
-926.8470063551649
 30
0.0
 10
516.6113145472218
 20
-920.6497240060471
 30
0.0
 10
515.4634891494889
 20
-911.4671208241853
 30
0.0
 10
514.3156637517559
 20
-902.0530029654983
 30
0.0
 10
513.1678383540238
 20
-892.8703997836365
 30
0.0
 10
499.6230112614567
 20
-894.7078952186475
 30
0.0
 10
485.8491064886639
 20
-894.936972898875
 30
0.0
 10
472.3042793960976
 20
-893.3285551440895
 30
0.0
 10
470.6958616413121
 20
-902.7426730027764
 30
0.0
 10
469.0898808831262
 20
-912.1543538648657
 30
0.0
 10
467.7129778051658
 20
-921.7975494037801
 30
0.0
 10
467.0233077678877
 20
-927.7657540726705
 30
0.0
 10
464.0379869351427
 20
-932.3570556636023
 30
0.0
 10
461.0551030989964
 20
-931.8989003031493
 30
0.0
 10
461.0551030989964
 20
-931.8989003031493
 30
0.0
 10
445.2146252109651
 20
-929.832327187909
 30
0.0
 10
445.2146252109651
 20
-929.832327187909
 30
0.0
 10
442.2293043782201
 20
-929.3717348308583
 30
0.0
 10
440.6233236200333
 20
-924.093200199246
 30
0.0
 10
441.5396343409411
 20
-917.8934808535305
 30
0.0
 10
444.9855475307377
 20
-894.0182251813694
 30
0.0
 10
448.8871790843896
 20
-869.9138918289809
 30
0.0
 10
453.9366360357744
 20
-845.8071214799947
 30
0.0
 10
456.6928791882929
 20
-833.8707121422121
 30
0.0
 10
459.4466853442118
 20
-821.9318658078337
 30
0.0
 10
463.1216762142358
 20
-809.7663787898255
 30
0.0
 10
464.0379869351427
 20
-806.7810579570796
 30
0.0
 10
465.1858123328757
 20
-803.5666594441082
 30
0.0
 10
466.1045600503812
 20
-800.5813386113641
 30
0.0
 10
466.7942300876603
 20
-798.9753578531781
 30
0.0
 10
467.2523854481142
 20
-797.3693770949903
 30
0.0
 10
467.9420554853932
 20
-795.9900370204341
 30
0.0
 10
468.4002108458471
 20
-795.0737262995262
 30
0.0
 10
468.6292885260737
 20
-794.3840562622463
 30
0.0
 10
468.8608032028988
 20
-793.4653085447408
 30
0.0
 10
468.8608032028988
 20
-793.4653085447408
 30
0.0
 10
469.5480362435801
 20
-792.3174831470078
 30
0.0
 10
469.5480362435801
 20
-792.3174831470078
 30
0.0
 10
469.5480362435801
 20
-792.3174831470078
 30
0.0
 10
470.2377062808591
 20
-790.7115023888218
 30
0.0
 10
470.2377062808591
 20
-790.7115023888218
 30
0.0
 10
472.7624347565516
 20
-785.4305307606119
 30
0.0
 10
475.7477555892956
 20
-780.1495591324019
 30
0.0
 10
479.6493871429484
 20
-776.4770052589756
 30
0.0
 10
483.553455693198
 20
-772.5753737053237
 30
0.0
 10
487.9156796039024
 20
-770.5088005900852
 30
0.0
 10
492.9651365552872
 20
-770.0482082330327
 30
0.0
 10
494.1129619530202
 20
-770.0482082330327
 30
0.0
 10
495.4898650309797
 20
-770.0482082330327
 30
0.0
 10
496.6376904287126
 20
-770.2797229098578
 30
0.0
 10
498.0145935066721
 20
-770.2797229098578
 30
0.0
 10
499.1624189044051
 20
-770.7378782703126
 30
0.0
 10
500.310244302138
 20
-771.1960336307657
 30
0.0
 10
502.6083320942016
 20
-771.8857036680456
 30
0.0
 10
504.6724682128424
 20
-773.0335290657786
 30
0.0
 10
506.7390413280809
 20
-774.6395098239645
 30
0.0
 10
510.6431098783305
 20
-777.853908336936
 30
0.0
 10
513.8550713947043
 20
-782.9058022849185
 30
0.0
 10
516.6113145472218
 20
-788.4158515933559
 30
0.0
 10
516.8403922274483
 20
-788.8740069538107
 30
0.0
 10
517.3009845845008
 20
-789.5636769910889
 30
0.0
 10
517.5300622647273
 20
-790.2509100317693
 30
0.0
 10
517.7591399449539
 20
-790.9405800690474
 30
0.0
 10
518.2172953054087
 20
-791.8593277865548
 30
0.0
 10
518.4488099822338
 20
-792.3174831470078
 30
0.0
 10
518.4488099822338
 20
-792.3174831470078
 30
0.0
 10
519.3651207031407
 20
-794.8422116227011
 30
0.0
 10
519.3651207031407
 20
-794.8422116227011
 30
0.0
 10
520.0547907404198
 20
-796.4506293774848
 30
0.0
 10
520.5129461008737
 20
-798.0566101356726
 30
0.0
 10
521.2026161381527
 20
-799.4335132136312
 30
0.0
 10
522.1213638556583
 20
-802.6479117266026
 30
0.0
 10
523.0401115731638
 20
-805.6332325593467
 30
0.0
 10
523.9564222940717
 20
-808.8476310723181
 30
0.0
 10
527.6314131640956
 20
-821.0131180903263
 30
0.0
 10
530.1561416397881
 20
-833.181042104934
 30
0.0
 10
532.4517924352531
 20
-845.3489661195399
 30
0.0
 10
536.8140163459575
 20
-869.4532994719284
 30
0.0
 10
540.028414858929
 20
-893.5600698209146
 30
0.0
 10
543.0112986950753
 20
-917.6644031733031
 30
0.0
  0
SPLINE
  5
70
330
69
100
AcDbEntity
  8
Layer 1
370
     0
100
AcDbSpline
210
0.0
220
0.0
230
1.0
 70
    11
 71
     3
 72
    44
 73
    40
 74
     0
 42
0.0000000001
 43
0.0000000001
 12
1.0
 22
0.0
 32
0.0
 13
1.0
 23
0.0
 33
0.0
 40
0.0
 40
0.0
 40
0.0
 40
0.0
 40
1.0
 40
1.0
 40
1.0
 40
2.0
 40
2.0
 40
2.0
 40
3.0
 40
3.0
 40
3.0
 40
4.0
 40
4.0
 40
4.0
 40
5.0
 40
5.0
 40
5.0
 40
6.0
 40
6.0
 40
6.0
 40
7.0
 40
7.0
 40
7.0
 40
8.0
 40
8.0
 40
8.0
 40
9.0
 40
9.0
 40
9.0
 40
10.0
 40
10.0
 40
10.0
 40
11.0
 40
11.0
 40
11.0
 40
12.0
 40
12.0
 40
12.0
 40
13.0
 40
13.0
 40
13.0
 40
13.0
 10
509.0346921235459
 20
-866.470415635782
 30
0.0
 10
508.3474590828655
 20
-860.9603663273447
 30
0.0
 10
507.1996336851325
 20
-855.6793946991347
 30
0.0
 10
506.280885967627
 20
-850.1693453906992
 30
0.0
 10
504.2143128523876
 20
-838.462013733144
 30
0.0
 10
501.6895843766961
 20
-826.9837597558162
 30
0.0
 10
498.4751858637246
 20
-816.1927388191689
 30
0.0
 10
497.7855158264456
 20
-813.43893266325
 30
0.0
 10
496.8667681089391
 20
-810.6826895107333
 30
0.0
 10
495.9504573880313
 20
-808.15796103504
 30
0.0
 10
495.4898650309797
 20
-807.010135637307
 30
0.0
 10
495.0317096705257
 20
-805.6332325593467
 30
0.0
 10
494.5711173134741
 20
-804.4854071616137
 30
0.0
 10
494.5711173134741
 20
-804.4854071616137
 30
0.0
 10
493.8838842727928
 20
-802.6479117266026
 30
0.0
 10
493.8838842727928
 20
-802.6479117266026
 30
0.0
 10
493.8838842727928
 20
-802.6479117266026
 30
0.0
 10
493.6548065925663
 20
-803.1085040836551
 30
0.0
 10
493.6548065925663
 20
-803.1085040836551
 30
0.0
 10
493.6548065925663
 20
-803.1085040836551
 30
0.0
 10
493.4232919157412
 20
-804.024814804563
 30
0.0
 10
493.4232919157412
 20
-804.024814804563
 30
0.0
 10
493.1942142355147
 20
-804.4854071616137
 30
0.0
 10
492.7360588750598
 20
-805.172640202296
 30
0.0
 10
492.5069811948333
 20
-805.8623102395741
 30
0.0
 10
492.0463888377817
 20
-807.010135637307
 30
0.0
 10
491.5882334773278
 20
-808.3870387152674
 30
0.0
 10
491.1276411202753
 20
-809.5348641130004
 30
0.0
 10
490.2113303993683
 20
-812.291107265517
 30
0.0
 10
489.2925826818619
 20
-814.8158357412103
 30
0.0
 10
488.3738349643563
 20
-817.5696418971293
 30
0.0
 10
485.1594364513849
 20
-828.3606628337766
 30
0.0
 10
482.405630295465
 20
-839.8389168111044
 30
0.0
 10
479.8784648231749
 20
-851.5486854652554
 30
0.0
 10
478.962154102267
 20
-856.5981424166421
 30
0.0
 10
477.8143287045341
 20
-861.879114044852
 30
0.0
 10
476.8955809870286
 20
-867.1576486764625
 30
0.0
 10
487.4550872468499
 20
-868.3054740741954
 30
0.0
 10
498.4751858637246
 20
-868.076396393968
 30
0.0
 10
509.0346921235459
 20
-866.470415635782
 30
0.0
  0
SPLINE
  5
71
330
69
100
AcDbEntity
  8
Layer 1
370
     0
100
AcDbSpline
210
0.0
220
0.0
230
1.0
 70
    11
 71
     3
 72
    53
 73
    49
 74
     0
 42
0.0000000001
 43
0.0000000001
 12
1.0
 22
0.0
 32
0.0
 13
1.0
 23
0.0
 33
0.0
 40
0.0
 40
0.0
 40
0.0
 40
0.0
 40
1.0
 40
1.0
 40
1.0
 40
2.0
 40
2.0
 40
2.0
 40
3.0
 40
3.0
 40
3.0
 40
4.0
 40
4.0
 40
4.0
 40
5.0
 40
5.0
 40
5.0
 40
6.0
 40
6.0
 40
6.0
 40
7.0
 40
7.0
 40
7.0
 40
8.0
 40
8.0
 40
8.0
 40
9.0
 40
9.0
 40
9.0
 40
10.0
 40
10.0
 40
10.0
 40
11.0
 40
11.0
 40
11.0
 40
12.0
 40
12.0
 40
12.0
 40
13.0
 40
13.0
 40
13.0
 40
14.0
 40
14.0
 40
14.0
 40
15.0
 40
15.0
 40
15.0
 40
16.0
 40
16.0
 40
16.0
 40
16.0
 10
647.9313132356037
 20
-820.7840404101007
 30
0.0
 10
648.8500609531093
 20
-830.6563136292407
 30
0.0
 10
647.2416431983256
 20
-840.7576645286099
 30
0.0
 10
642.6503416073938
 20
-849.9402677104717
 30
0.0
 10
638.5196323735145
 20
-859.1228708923336
 30
0.0
 10
631.6326799871185
 20
-866.6994933160095
 30
0.0
 10
623.8269798832152
 20
-872.2095426244468
 30
0.0
 10
616.0212797793138
 20
-877.9486696131098
 30
0.0
 10
607.0677542776775
 20
-881.8503011667617
 30
0.0
 10
597.8851510958157
 20
-883.6877966017746
 30
0.0
 10
592.8332571478331
 20
-884.8356219995076
 30
0.0
 10
587.5547225162209
 20
-885.2937773599606
 30
0.0
 10
582.2737508880109
 20
-885.5252920367857
 30
0.0
 10
582.2737508880109
 20
-885.5252920367857
 30
0.0
 10
582.7319062484639
 20
-925.0119479167515
 30
0.0
 10
582.7319062484639
 20
-925.0119479167515
 30
0.0
 10
582.7319062484639
 20
-928.2239094331253
 30
0.0
 10
580.4362554529998
 20
-930.7510749054163
 30
0.0
 10
577.6824492970791
 20
-930.7510749054163
 30
0.0
 10
577.6824492970791
 20
-930.7510749054163
 30
0.0
 10
561.6128937288213
 20
-930.9801525856419
 30
0.0
 10
561.6128937288213
 20
-930.9801525856419
 30
0.0
 10
558.6275728960773
 20
-930.9801525856419
 30
0.0
 10
556.3319221006113
 20
-928.4554241099504
 30
0.0
 10
556.3319221006113
 20
-925.4701032772064
 30
0.0
 10
556.3319221006113
 20
-925.4701032772064
 30
0.0
 10
554.7259413424254
 20
-777.3957529764812
 30
0.0
 10
554.7259413424254
 20
-777.3957529764812
 30
0.0
 10
554.7259413424254
 20
-774.1813544635115
 30
0.0
 10
556.7900774610644
 20
-771.8857036680456
 30
0.0
 10
559.5463206135828
 20
-771.6566259878182
 30
0.0
 10
560.0044759740358
 20
-771.4275483075908
 30
0.0
 10
560.4650683310883
 20
-771.1960336307657
 30
0.0
 10
560.9232236915414
 20
-770.9669559505401
 30
0.0
 10
569.8767491931776
 20
-767.2944020771138
 30
0.0
 10
579.2884300552669
 20
-765.4569066421027
 30
0.0
 10
588.9316255941812
 20
-765.9174989991552
 30
0.0
 10
598.5723841364961
 20
-766.1465766793808
 30
0.0
 10
608.4446573556379
 20
-768.9003828353016
 30
0.0
 10
616.9400274968193
 20
-773.4916844262316
 30
0.0
 10
625.432960641403
 20
-778.0854230137611
 30
0.0
 10
632.7805053848515
 20
-784.7408607233319
 30
0.0
 10
638.2881176966894
 20
-793.0071531842877
 30
0.0
 10
641.0443608492078
 20
-797.1378624181671
 30
0.0
 10
643.3400116446719
 20
-801.5000863288697
 30
0.0
 10
644.9459924028597
 20
-806.3229025966266
 30
0.0
 10
646.5544101576434
 20
-810.9142041875566
 30
0.0
 10
647.4731578751507
 20
-815.9636611389433
 30
0.0
 10
647.9313132356037
 20
-820.7840404101007
 30
0.0
  0
SPLINE
  5
72
330
69
100
AcDbEntity
  8
Layer 1
370
     0
100
AcDbSpline
210
0.0
220
0.0
230
1.0
 70
    11
 71
     3
 72
    29
 73
    25
 74
     0
 42
0.0000000001
 43
0.0000000001
 12
1.0
 22
0.0
 32
0.0
 13
1.0
 23
0.0
 33
0.0
 40
0.0
 40
0.0
 40
0.0
 40
0.0
 40
1.0
 40
1.0
 40
1.0
 40
2.0
 40
2.0
 40
2.0
 40
3.0
 40
3.0
 40
3.0
 40
4.0
 40
4.0
 40
4.0
 40
5.0
 40
5.0
 40
5.0
 40
6.0
 40
6.0
 40
6.0
 40
7.0
 40
7.0
 40
7.0
 40
8.0
 40
8.0
 40
8.0
 40
8.0
 10
621.5313290877493
 20
-822.8506135253392
 30
0.0
 10
621.0707367306986
 20
-817.5696418971293
 30
0.0
 10
619.2356782922852
 20
-812.291107265517
 30
0.0
 10
616.2503574595394
 20
-807.9288833548126
 30
0.0
 10
613.2650366267953
 20
-803.3375817638826
 30
0.0
 10
608.9028127160909
 20
-799.4335132136312
 30
0.0
 10
604.0824334449335
 20
-796.6797070577122
 30
0.0
 10
599.0329764935486
 20
-793.9259009017933
 30
0.0
 10
593.7520048653387
 20
-792.5465608272352
 30
0.0
 10
588.0128778766739
 20
-792.3174831470078
 30
0.0
 10
585.7172270812098
 20
-792.3174831470078
 30
0.0
 10
583.6506539659713
 20
-792.3174831470078
 30
0.0
 10
581.3550031705054
 20
-792.7780755040603
 30
0.0
 10
581.3550031705054
 20
-792.7780755040603
 30
0.0
 10
582.0446732077835
 20
-858.8937932121062
 30
0.0
 10
582.0446732077835
 20
-858.8937932121062
 30
0.0
 10
591.9145094303276
 20
-858.6647155318806
 30
0.0
 10
601.0995496087871
 20
-856.1399870561872
 30
0.0
 10
608.2155796754105
 20
-850.8590154279773
 30
0.0
 10
612.8068812663423
 20
-847.4155392347784
 30
0.0
 10
616.7085128199942
 20
-843.2823930043014
 30
0.0
 10
618.7750859352327
 20
-838.462013733144
 30
0.0
 10
621.0707367306986
 20
-833.8707121422121
 30
0.0
 10
621.9894844482042
 20
-828.3606628337766
 30
0.0
 10
621.5313290877493
 20
-822.8506135253392
 30
0.0
  0
SPLINE
  5
73
330
69
100
AcDbEntity
  8
Layer 1
370
     0
100
AcDbSpline
210
0.0
220
0.0
230
1.0
 70
    11
 71
     3
 72
    92
 73
    88
 74
     0
 42
0.0000000001
 43
0.0000000001
 12
1.0
 22
0.0
 32
0.0
 13
1.0
 23
0.0
 33
0.0
 40
0.0
 40
0.0
 40
0.0
 40
0.0
 40
1.0
 40
1.0
 40
1.0
 40
2.0
 40
2.0
 40
2.0
 40
3.0
 40
3.0
 40
3.0
 40
4.0
 40
4.0
 40
4.0
 40
5.0
 40
5.0
 40
5.0
 40
6.0
 40
6.0
 40
6.0
 40
7.0
 40
7.0
 40
7.0
 40
8.0
 40
8.0
 40
8.0
 40
9.0
 40
9.0
 40
9.0
 40
10.0
 40
10.0
 40
10.0
 40
11.0
 40
11.0
 40
11.0
 40
12.0
 40
12.0
 40
12.0
 40
13.0
 40
13.0
 40
13.0
 40
14.0
 40
14.0
 40
14.0
 40
15.0
 40
15.0
 40
15.0
 40
16.0
 40
16.0
 40
16.0
 40
17.0
 40
17.0
 40
17.0
 40
18.0
 40
18.0
 40
18.0
 40
19.0
 40
19.0
 40
19.0
 40
20.0
 40
20.0
 40
20.0
 40
21.0
 40
21.0
 40
21.0
 40
22.0
 40
22.0
 40
22.0
 40
23.0
 40
23.0
 40
23.0
 40
24.0
 40
24.0
 40
24.0
 40
25.0
 40
25.0
 40
25.0
 40
26.0
 40
26.0
 40
26.0
 40
27.0
 40
27.0
 40
27.0
 40
28.0
 40
28.0
 40
28.0
 40
29.0
 40
29.0
 40
29.0
 40
29.0
 10
759.0461731286523
 20
-834.7894598597195
 30
0.0
 10
760.1939985263853
 20
-842.1345676065685
 30
0.0
 10
760.8836685636634
 20
-849.4821123500187
 30
0.0
 10
760.8836685636634
 20
-857.2878124539202
 30
0.0
 10
760.654590883436
 20
-864.8619978809984
 30
0.0
 10
759.7358431659304
 20
-872.4386203046724
 30
0.0
 10
757.8983477309193
 20
-880.0152427283483
 30
0.0
 10
756.0632892925059
 20
-887.5894281554265
 30
0.0
 10
753.5361238202149
 20
-895.1660505791024
 30
0.0
 10
749.4054145863356
 20
-902.2820806457257
 30
0.0
 10
747.5679191513245
 20
-905.9570715157479
 30
0.0
 10
745.0431906756312
 20
-909.4005477089468
 30
0.0
 10
742.2869475231146
 20
-912.8440239021456
 30
0.0
 10
741.1391221253816
 20
-914.4500046603316
 30
0.0
 10
739.5331413671956
 20
-916.0584224151171
 30
0.0
 10
737.9271606090078
 20
-917.4353254930757
 30
0.0
 10
737.9271606090078
 20
-917.4353254930757
 30
0.0
 10
735.3999951367168
 20
-919.7309762885416
 30
0.0
 10
735.3999951367168
 20
-919.7309762885416
 30
0.0
 10
735.3999951367168
 20
-919.7309762885416
 30
0.0
 10
732.8752666610253
 20
-921.7975494037801
 30
0.0
 10
732.8752666610253
 20
-921.7975494037801
 30
0.0
 10
725.5301589141745
 20
-927.3075987122174
 30
0.0
 10
717.0347887729931
 20
-930.9801525856419
 30
0.0
 10
707.3940302306764
 20
-931.6673856263224
 30
0.0
 10
702.8027286397464
 20
-932.1279779833749
 30
0.0
 10
697.7508346917639
 20
-931.8989003031493
 30
0.0
 10
692.9304554206046
 20
-930.7510749054163
 30
0.0
 10
688.1100761494472
 20
-929.6032495076834
 30
0.0
 10
683.5163375619177
 20
-927.3075987122174
 30
0.0
 10
679.3856283280384
 20
-924.551355559699
 30
0.0
 10
671.3508505439095
 20
-918.812228571036
 30
0.0
 10
666.0698789156995
 20
-911.2356061473602
 30
0.0
 10
662.6264027225006
 20
-903.6614207202838
 30
0.0
 10
658.9538488490762
 20
-896.0847982966079
 30
0.0
 10
657.1163534140651
 20
-887.8209428322516
 30
0.0
 10
655.9685280163321
 20
-880.2443204085757
 30
0.0
 10
655.0497802988248
 20
-872.6676979848999
 30
0.0
 10
655.0497802988248
 20
-865.0935125578235
 30
0.0
 10
655.0497802988248
 20
-857.9750454946006
 30
0.0
 10
655.2788579790522
 20
-850.8590154279773
 30
0.0
 10
655.7394503361047
 20
-843.9720630415814
 30
0.0
 10
656.4266833767851
 20
-836.6245182981329
 30
0.0
 10
657.3454310942907
 20
-829.5084882315095
 30
0.0
 10
658.4932564920236
 20
-821.9318658078337
 30
0.0
 10
660.5598296072621
 20
-814.5867580609829
 30
0.0
 10
661.7076550049951
 20
-810.9142041875566
 30
0.0
 10
663.0845580829555
 20
-807.010135637307
 30
0.0
 10
664.6929758377391
 20
-803.3375817638826
 30
0.0
 10
666.2989565959269
 20
-799.6650278904563
 30
0.0
 10
668.3655297111654
 20
-795.9900370204341
 30
0.0
 10
670.6611805066314
 20
-792.5465608272352
 30
0.0
 10
675.4815597777888
 20
-785.4305307606119
 30
0.0
 10
681.4522014432769
 20
-779.001733734669
 30
0.0
 10
689.7160569076332
 20
-774.4104321437371
 30
0.0
 10
692.2407853833265
 20
-773.0335290657786
 30
0.0
 10
694.765513859018
 20
-772.1147813482712
 30
0.0
 10
697.292679331309
 20
-771.6566259878182
 30
0.0
 10
697.7508346917639
 20
-771.4275483075908
 30
0.0
 10
698.2089900522169
 20
-771.4275483075908
 30
0.0
 10
698.6695824092694
 20
-771.1960336307657
 30
0.0
 10
701.1943108849609
 20
-770.5088005900852
 30
0.0
 10
703.2608840001994
 20
-770.2797229098578
 30
0.0
 10
705.0983794352123
 20
-770.0482082330327
 30
0.0
 10
706.2462048329435
 20
-770.0482082330327
 30
0.0
 10
706.9334378736257
 20
-770.0482082330327
 30
0.0
 10
707.8521855911313
 20
-770.0482082330327
 30
0.0
 10
707.8521855911313
 20
-770.0482082330327
 30
0.0
 10
710.3769140668228
 20
-770.0482082330327
 30
0.0
 10
710.3769140668228
 20
-770.0482082330327
 30
0.0
 10
711.2956617843302
 20
-770.0482082330327
 30
0.0
 10
712.4434871820631
 20
-770.0482082330327
 30
0.0
 10
713.5913125797942
 20
-770.2797229098578
 30
0.0
 10
714.0494679402491
 20
-770.2797229098578
 30
0.0
 10
714.5100602972998
 20
-770.5088005900852
 30
0.0
 10
714.9682156577546
 20
-770.5088005900852
 30
0.0
 10
717.7244588102731
 20
-770.7378782703126
 30
0.0
 10
721.1679350034701
 20
-771.6566259878182
 30
0.0
 10
724.3823335164416
 20
-773.4916844262316
 30
0.0
 10
732.8752666610253
 20
-778.0854230137611
 30
0.0
 10
738.8434713299157
 20
-784.7408607233319
 30
0.0
 10
743.4347729208475
 20
-791.6278131097297
 30
0.0
 10
748.0285115083752
 20
-798.5172024927233
 30
0.0
 10
751.240473024749
 20
-805.6332325593467
 30
0.0
 10
753.76763849704
 20
-812.74926262597
 30
0.0
 10
756.2923669727315
 20
-820.0968073694203
 30
0.0
 10
757.8983477309193
 20
-827.4419151162692
 30
0.0
 10
759.0461731286523
 20
-834.7894598597195
 30
0.0
  0
SPLINE
  5
74
330
69
100
AcDbEntity
  8
Layer 1
370
     0
100
AcDbSpline
210
0.0
220
0.0
230
1.0
 70
    11
 71
     3
 72
    62
 73
    58
 74
     0
 42
0.0000000001
 43
0.0000000001
 12
1.0
 22
0.0
 32
0.0
 13
1.0
 23
0.0
 33
0.0
 40
0.0
 40
0.0
 40
0.0
 40
0.0
 40
1.0
 40
1.0
 40
1.0
 40
2.0
 40
2.0
 40
2.0
 40
3.0
 40
3.0
 40
3.0
 40
4.0
 40
4.0
 40
4.0
 40
5.0
 40
5.0
 40
5.0
 40
6.0
 40
6.0
 40
6.0
 40
7.0
 40
7.0
 40
7.0
 40
8.0
 40
8.0
 40
8.0
 40
9.0
 40
9.0
 40
9.0
 40
10.0
 40
10.0
 40
10.0
 40
11.0
 40
11.0
 40
11.0
 40
12.0
 40
12.0
 40
12.0
 40
13.0
 40
13.0
 40
13.0
 40
14.0
 40
14.0
 40
14.0
 40
15.0
 40
15.0
 40
15.0
 40
16.0
 40
16.0
 40
16.0
 40
17.0
 40
17.0
 40
17.0
 40
18.0
 40
18.0
 40
18.0
 40
19.0
 40
19.0
 40
19.0
 40
19.0
 10
734.2521697389857
 20
-856.8272200968677
 30
0.0
 10
734.483684415809
 20
-845.1198884393143
 30
0.0
 10
732.4171113005705
 20
-832.4938090642536
 30
0.0
 10
728.7421204305483
 20
-821.4737104473788
 30
0.0
 10
726.6779843119075
 20
-815.9636611389433
 30
0.0
 10
724.3823335164416
 20
-810.6826895107333
 30
0.0
 10
721.3970126836975
 20
-806.3229025966266
 30
0.0
 10
718.4116918509535
 20
-801.9606786859222
 30
0.0
 10
714.9682156577546
 20
-798.5172024927233
 30
0.0
 10
711.5247394645558
 20
-796.6797070577122
 30
0.0
 10
711.0665841041027
 20
-796.4506293774848
 30
0.0
 10
710.8375064238753
 20
-796.2215516972574
 30
0.0
 10
710.3769140668228
 20
-795.9900370204341
 30
0.0
 10
708.0812632713587
 20
-795.5318816599793
 30
0.0
 10
706.0146901561202
 20
-795.7609593402067
 30
0.0
 10
704.4087093979324
 20
-796.4506293774848
 30
0.0
 10
703.7190393606543
 20
-796.9087847379396
 30
0.0
 10
703.2608840001994
 20
-797.1378624181671
 30
0.0
 10
702.5712139629213
 20
-797.5984547752178
 30
0.0
 10
699.1277377697224
 20
-799.4335132136312
 30
0.0
 10
695.455183896298
 20
-803.1085040836551
 30
0.0
 10
692.7013777403772
 20
-807.2392133175344
 30
0.0
 10
691.322037665821
 20
-809.305786432773
 30
0.0
 10
689.9451345878606
 20
-811.6014372282389
 30
0.0
 10
689.026386870355
 20
-814.1261657039304
 30
0.0
 10
687.8785614726221
 20
-816.4218164993963
 30
0.0
 10
686.9598137551166
 20
-819.1780596519129
 30
0.0
 10
686.0435030342087
 20
-821.9318658078337
 30
0.0
 10
682.8291045212372
 20
-832.9519644247066
 30
0.0
 10
682.1394344839573
 20
-845.5780437997673
 30
0.0
 10
681.6812791235043
 20
-858.6647155318806
 30
0.0
 10
681.2206867664518
 20
-871.2907949069413
 30
0.0
 10
682.1394344839573
 20
-883.2296412413198
 30
0.0
 10
686.5016583946617
 20
-892.4122444231816
 30
0.0
 10
688.7973091901276
 20
-897.0035460141135
 30
0.0
 10
691.5535523426461
 20
-900.6760998875379
 30
0.0
 10
694.5364361787924
 20
-902.7426730027764
 30
0.0
 10
697.5217570115365
 20
-904.8092461180167
 30
0.0
 10
700.9652332047335
 20
-905.7255568389228
 30
0.0
 10
705.0983794352123
 20
-905.2674014784698
 30
0.0
 10
709.2290886690898
 20
-905.0383237982423
 30
0.0
 10
713.3622348995686
 20
-903.2008283632313
 30
0.0
 10
717.0347887729931
 20
-900.6760998875379
 30
0.0
 10
717.0347887729931
 20
-900.6760998875379
 30
0.0
 10
718.1826141707261
 20
-899.5282744898068
 30
0.0
 10
718.1826141707261
 20
-899.5282744898068
 30
0.0
 10
718.1826141707261
 20
-899.5282744898068
 30
0.0
 10
719.5595172486865
 20
-898.3804490920738
 30
0.0
 10
719.5595172486865
 20
-898.3804490920738
 30
0.0
 10
720.2491872859646
 20
-897.6907790547939
 30
0.0
 10
721.1679350034701
 20
-896.774468333886
 30
0.0
 10
722.0866827209757
 20
-895.8557206163805
 30
0.0
 10
723.463585798936
 20
-893.789147501142
 30
0.0
 10
725.069566557122
 20
-891.7225743859035
 30
0.0
 10
726.217391954855
 20
-889.4269235904376
 30
0.0
 10
731.4983635830649
 20
-880.2443204085757
 30
0.0
 10
734.0230920587583
 20
-868.3054740741954
 30
0.0
 10
734.2521697389857
 20
-856.8272200968677
 30
0.0
  0
SPLINE
  5
75
330
69
100
AcDbEntity
  8
Layer 1
370
     0
100
AcDbSpline
210
0.0
220
0.0
230
1.0
 70
    11
 71
     3
 72
    65
 73
    61
 74
     0
 42
0.0000000001
 43
0.0000000001
 12
1.0
 22
0.0
 32
0.0
 13
1.0
 23
0.0
 33
0.0
 40
0.0
 40
0.0
 40
0.0
 40
0.0
 40
1.0
 40
1.0
 40
1.0
 40
2.0
 40
2.0
 40
2.0
 40
3.0
 40
3.0
 40
3.0
 40
4.0
 40
4.0
 40
4.0
 40
5.0
 40
5.0
 40
5.0
 40
6.0
 40
6.0
 40
6.0
 40
7.0
 40
7.0
 40
7.0
 40
8.0
 40
8.0
 40
8.0
 40
9.0
 40
9.0
 40
9.0
 40
10.0
 40
10.0
 40
10.0
 40
11.0
 40
11.0
 40
11.0
 40
12.0
 40
12.0
 40
12.0
 40
13.0
 40
13.0
 40
13.0
 40
14.0
 40
14.0
 40
14.0
 40
15.0
 40
15.0
 40
15.0
 40
16.0
 40
16.0
 40
16.0
 40
17.0
 40
17.0
 40
17.0
 40
18.0
 40
18.0
 40
18.0
 40
19.0
 40
19.0
 40
19.0
 40
20.0
 40
20.0
 40
20.0
 40
20.0
 10
877.2819370815196
 20
-776.9375976160281
 30
0.0
 10
877.2819370815196
 20
-776.9375976160281
 30
0.0
 10
878.890354836305
 20
-925.0119479167515
 30
0.0
 10
878.890354836305
 20
-925.0119479167515
 30
0.0
 10
878.890354836305
 20
-928.2239094331253
 30
0.0
 10
876.5947040408391
 20
-930.7510749054163
 30
0.0
 10
873.6093832080951
 20
-930.7510749054163
 30
0.0
 10
873.6093832080951
 20
-930.7510749054163
 30
0.0
 10
857.5398276398355
 20
-930.9801525856419
 30
0.0
 10
857.5398276398355
 20
-930.9801525856419
 30
0.0
 10
855.015099164144
 20
-930.9801525856419
 30
0.0
 10
852.7194483686781
 20
-928.9135794704034
 30
0.0
 10
852.2588560116255
 20
-926.1597733144845
 30
0.0
 10
840.5515243540722
 20
-903.2008283632313
 30
0.0
 10
827.4648526219589
 20
-880.4733980888032
 30
0.0
 10
814.6096955666708
 20
-857.5168901341476
 30
0.0
 10
810.0183939757408
 20
-849.2505976731918
 30
0.0
 10
805.1980147045815
 20
-840.9867422088355
 30
0.0
 10
800.6042761170538
 20
-832.7228867444792
 30
0.0
 10
800.6042761170538
 20
-832.7228867444792
 30
0.0
 10
801.5230238345594
 20
-925.0119479167515
 30
0.0
 10
801.5230238345594
 20
-925.0119479167515
 30
0.0
 10
801.5230238345594
 20
-928.2239094331253
 30
0.0
 10
799.2273730390934
 20
-930.7510749054163
 30
0.0
 10
796.4735668831745
 20
-930.7510749054163
 30
0.0
 10
796.4735668831745
 20
-930.7510749054163
 30
0.0
 10
780.4040113149149
 20
-930.9801525856419
 30
0.0
 10
780.4040113149149
 20
-930.9801525856419
 30
0.0
 10
777.4186904821709
 20
-930.9801525856419
 30
0.0
 10
775.1230396867049
 20
-928.4554241099504
 30
0.0
 10
775.1230396867049
 20
-925.4701032772064
 30
0.0
 10
775.1230396867049
 20
-925.4701032772064
 30
0.0
 10
773.517058928519
 20
-777.3957529764812
 30
0.0
 10
773.517058928519
 20
-777.3957529764812
 30
0.0
 10
773.517058928519
 20
-774.1813544635115
 30
0.0
 10
775.8127097239849
 20
-771.6566259878182
 30
0.0
 10
778.7955935601312
 20
-771.6566259878182
 30
0.0
 10
778.7955935601312
 20
-771.6566259878182
 30
0.0
 10
794.6360714481616
 20
-771.4275483075908
 30
0.0
 10
794.6360714481616
 20
-771.4275483075908
 30
0.0
 10
797.1607999238549
 20
-771.4275483075908
 30
0.0
 10
799.2273730390934
 20
-773.2626067460042
 30
0.0
 10
799.9170430763716
 20
-775.7873352216975
 30
0.0
 10
811.8534524141542
 20
-798.7462801729507
 30
0.0
 10
824.71104646604
 20
-821.4737104473788
 30
0.0
 10
837.7952812015537
 20
-844.4302184020344
 30
0.0
 10
842.3865827924856
 20
-852.6965108629884
 30
0.0
 10
846.9803213800133
 20
-860.9603663273447
 30
0.0
 10
851.5716229709451
 20
-869.224221791701
 30
0.0
 10
851.5716229709451
 20
-869.224221791701
 30
0.0
 10
850.6528752534396
 20
-777.3957529764812
 30
0.0
 10
850.6528752534396
 20
-777.3957529764812
 30
0.0
 10
850.6528752534396
 20
-774.1813544635115
 30
0.0
 10
852.9485260489055
 20
-771.6566259878182
 30
0.0
 10
855.9314098850518
 20
-771.6566259878182
 30
0.0
 10
855.9314098850518
 20
-771.6566259878182
 30
0.0
 10
872.0034024499073
 20
-771.4275483075908
 30
0.0
 10
872.0034024499073
 20
-771.4275483075908
 30
0.0
 10
874.757208605828
 20
-771.4275483075908
 30
0.0
 10
877.2819370815196
 20
-773.9522767832841
 30
0.0
 10
877.2819370815196
 20
-776.9375976160281
 30
0.0
  0
ENDBLK
  5
6C
330
69
100
AcDbEntity
  8
0
100
AcDbBlockEnd
  0
BLOCK
  5
78
330
76
100
AcDbEntity
  8
0
100
AcDbBlockBegin
  2
block 11
 70
     0
 10
0.0
 20
0.0
 30
0.0
  3
block 11
  1

  0
INSERT
  5
7B
330
76
100
AcDbEntity
  8
Layer 1
100
AcDbBlockReference
  2
block 12
 10
0.0
 20
0.0
 30
0.0
  0
INSERT
  5
84
330
76
100
AcDbEntity
  8
Layer 1
100
AcDbBlockReference
  2
block 13
 10
0.0
 20
0.0
 30
0.0
  0
INSERT
  5
89
330
76
100
AcDbEntity
  8
Layer 1
100
AcDbBlockReference
  2
block 14
 10
0.0
 20
0.0
 30
0.0
  0
ENDBLK
  5
79
330
76
100
AcDbEntity
  8
0
100
AcDbBlockEnd
  0
BLOCK
  5
7C
330
7A
100
AcDbEntity
  8
0
100
AcDbBlockBegin
  2
block 12
 70
     0
 10
0.0
 20
0.0
 30
0.0
  3
block 12
  1

  0
SPLINE
  5
7E
330
7A
100
AcDbEntity
  8
Layer 1
370
     0
100
AcDbSpline
210
0.0
220
0.0
230
1.0
 70
    11
 71
     3
 72
   113
 73
   109
 74
     0
 42
0.0000000001
 43
0.0000000001
 12
1.0
 22
0.0
 32
0.0
 13
1.0
 23
0.0
 33
0.0
 40
0.0
 40
0.0
 40
0.0
 40
0.0
 40
1.0
 40
1.0
 40
1.0
 40
2.0
 40
2.0
 40
2.0
 40
3.0
 40
3.0
 40
3.0
 40
4.0
 40
4.0
 40
4.0
 40
5.0
 40
5.0
 40
5.0
 40
6.0
 40
6.0
 40
6.0
 40
7.0
 40
7.0
 40
7.0
 40
8.0
 40
8.0
 40
8.0
 40
9.0
 40
9.0
 40
9.0
 40
10.0
 40
10.0
 40
10.0
 40
11.0
 40
11.0
 40
11.0
 40
12.0
 40
12.0
 40
12.0
 40
13.0
 40
13.0
 40
13.0
 40
14.0
 40
14.0
 40
14.0
 40
15.0
 40
15.0
 40
15.0
 40
16.0
 40
16.0
 40
16.0
 40
17.0
 40
17.0
 40
17.0
 40
18.0
 40
18.0
 40
18.0
 40
19.0
 40
19.0
 40
19.0
 40
20.0
 40
20.0
 40
20.0
 40
21.0
 40
21.0
 40
21.0
 40
22.0
 40
22.0
 40
22.0
 40
23.0
 40
23.0
 40
23.0
 40
24.0
 40
24.0
 40
24.0
 40
25.0
 40
25.0
 40
25.0
 40
26.0
 40
26.0
 40
26.0
 40
27.0
 40
27.0
 40
27.0
 40
28.0
 40
28.0
 40
28.0
 40
29.0
 40
29.0
 40
29.0
 40
30.0
 40
30.0
 40
30.0
 40
31.0
 40
31.0
 40
31.0
 40
32.0
 40
32.0
 40
32.0
 40
33.0
 40
33.0
 40
33.0
 40
34.0
 40
34.0
 40
34.0
 40
35.0
 40
35.0
 40
35.0
 40
36.0
 40
36.0
 40
36.0
 40
36.0
 10
991.8166647632206
 20
-644.6624485734555
 30
0.0
 10
989.0320915252505
 20
-639.9258410603579
 30
0.0
 10
985.1915371988398
 20
-636.9831676680824
 30
0.0
 10
980.9653281607698
 20
-636.9831676680824
 30
0.0
 10
980.9653281607698
 20
-636.9831676680824
 30
0.0
 10
895.2531115577785
 20
-636.9831676680824
 30
0.0
 10
895.2531115577785
 20
-636.9831676680824
 30
0.0
 10
890.5783428333616
 20
-647.7269717956406
 30
0.0
 10
853.9365758571712
 20
-645.0610498295409
 30
0.0
 10
846.6813323598781
 20
-643.7225294480031
 30
0.0
 10
839.439492343874
 20
-642.3893399965218
 30
0.0
 10
832.4981644708805
 20
-640.0514986974522
 30
0.0
 10
826.5456479675904
 20
-636.6366572142815
 30
0.0
 10
826.5456479675904
 20
-636.6366572142815
 30
0.0
 10
826.5456479675904
 20
-631.6237552118691
 30
0.0
 10
826.5456479675904
 20
-631.6237552118691
 30
0.0
 10
826.5456479675904
 20
-611.8397598911542
 30
0.0
 10
813.8173670476954
 20
-595.6549039213442
 30
0.0
 10
798.254554459565
 20
-595.6549039213442
 30
0.0
 10
798.254554459565
 20
-595.6549039213442
 30
0.0
 10
297.7013933769667
 20
-595.6549039213442
 30
0.0
 10
297.7013933769667
 20
-595.6549039213442
 30
0.0
 10
282.1401039117118
 20
-595.6549039213442
 30
0.0
 10
269.4115183672411
 20
-611.8397598911542
 30
0.0
 10
269.4115183672411
 20
-631.6237552118691
 30
0.0
 10
269.4115183672411
 20
-631.6237552118691
 30
0.0
 10
269.4115183672411
 20
-636.635134091408
 30
0.0
 10
269.4115183672411
 20
-636.635134091408
 30
0.0
 10
263.4583926148016
 20
-640.0508894483028
 30
0.0
 10
256.5172170540964
 20
-642.3891876842354
 30
0.0
 10
249.2744631643682
 20
-643.7225294480031
 30
0.0
 10
242.020895102236
 20
-645.0610498295409
 30
0.0
 10
205.3757772557228
 20
-647.7269717956406
 30
0.0
 10
200.7007039067303
 20
-636.9831676680824
 30
0.0
 10
200.7007039067303
 20
-636.9831676680824
 30
0.0
 10
114.9887919283146
 20
-636.9831676680824
 30
0.0
 10
114.9887919283146
 20
-636.9831676680824
 30
0.0
 10
110.7622782656699
 20
-636.9831676680824
 30
0.0
 10
106.920353128673
 20
-639.9258410603579
 30
0.0
 10
104.135779890702
 20
-644.6624485734555
 30
0.0
 10
101.351206652731
 20
-649.3985991496884
 30
0.0
 10
99.62246219091139
 20
-655.938888769997
 30
0.0
 10
99.62246219091139
 20
-663.1269625485547
 30
0.0
 10
99.62246219091139
 20
-663.1269625485547
 30
0.0
 10
99.62246219091139
 20
-676.6880870558707
 30
0.0
 10
99.62246219091139
 20
-676.6880870558707
 30
0.0
 10
99.62246219091139
 20
-683.8699160306442
 30
0.0
 10
101.3495312175692
 20
-690.4080732789298
 30
0.0
 10
104.135779890702
 20
-695.1446807920256
 30
0.0
 10
104.135779890702
 20
-695.1446807920256
 30
0.0
 10
104.135779890702
 20
-695.1463562271874
 30
0.0
 10
104.135779890702
 20
-695.1463562271874
 30
0.0
 10
104.135779890702
 20
-695.1463562271874
 30
0.0
 10
104.1391307610238
 20
-695.1506209712352
 30
0.0
 10
104.1391307610238
 20
-695.1506209712352
 30
0.0
 10
106.9237039989948
 20
-699.888903919491
 30
0.0
 10
110.7708077537636
 20
-702.8299018766065
 30
0.0
 10
114.9887919283146
 20
-702.8299018766065
 30
0.0
 10
114.9887919283146
 20
-702.8299018766065
 30
0.0
 10
200.7304048027709
 20
-702.8299018766065
 30
0.0
 10
200.7304048027709
 20
-702.8299018766065
 30
0.0
 10
204.9700173221299
 20
-691.962267859406
 30
0.0
 10
245.2706300658811
 20
-697.8063380140775
 30
0.0
 10
251.164658650815
 20
-698.8927815599945
 30
0.0
 10
257.6894124178107
 20
-700.0940685705991
 30
0.0
 10
263.9454873098584
 20
-702.0330039890086
 30
0.0
 10
269.4115183672411
 20
-704.8425564421123
 30
0.0
 10
269.4115183672411
 20
-704.8425564421123
 30
0.0
 10
269.4115183672411
 20
-708.1871819607968
 30
0.0
 10
269.4115183672411
 20
-708.1871819607968
 30
0.0
 10
269.4115183672411
 20
-727.9731573412482
 30
0.0
 10
282.1401039117118
 20
-744.1624303673907
 30
0.0
 10
297.7013933769667
 20
-744.1624303673907
 30
0.0
 10
297.7013933769667
 20
-744.1624303673907
 30
0.0
 10
798.254554459565
 20
-744.1624303673907
 30
0.0
 10
798.254554459565
 20
-744.1624303673907
 30
0.0
 10
813.8173670476954
 20
-744.1624303673907
 30
0.0
 10
826.5456479675904
 20
-727.9731573412482
 30
0.0
 10
826.5456479675904
 20
-708.1871819607968
 30
0.0
 10
826.5456479675904
 20
-708.1871819607968
 30
0.0
 10
826.5456479675904
 20
-704.8420995052493
 30
0.0
 10
826.5456479675904
 20
-704.8420995052493
 30
0.0
 10
832.011679024974
 20
-702.0328516767222
 30
0.0
 10
838.2672969801588
 20
-700.0940685705991
 30
0.0
 10
844.7906799365683
 20
-698.8927815599945
 30
0.0
 10
850.6834900232043
 20
-697.8063380140775
 30
0.0
 10
890.9874536372772
 20
-691.962267859406
 30
0.0
 10
895.2267615320616
 20
-702.8299018766065
 30
0.0
 10
895.2267615320616
 20
-702.8299018766065
 30
0.0
 10
980.9653281607698
 20
-702.8299018766065
 30
0.0
 10
980.9653281607698
 20
-702.8299018766065
 30
0.0
 10
985.1849877704826
 20
-702.8299018766065
 30
0.0
 10
989.0320915252505
 20
-699.888903919491
 30
0.0
 10
991.8166647632206
 20
-695.1506209712352
 30
0.0
 10
991.8166647632206
 20
-695.1506209712352
 30
0.0
 10
991.8166647632206
 20
-695.1463562271874
 30
0.0
 10
991.8166647632206
 20
-695.1463562271874
 30
0.0
 10
991.8166647632206
 20
-695.1463562271874
 30
0.0
 10
991.8166647632206
 20
-695.1446807920256
 30
0.0
 10
991.8166647632206
 20
-695.1446807920256
 30
0.0
 10
994.6076351172633
 20
-690.4080732789298
 30
0.0
 10
996.3333333333339
 20
-683.8699160306442
 30
0.0
 10
996.3333333333339
 20
-676.6880870558707
 30
0.0
 10
996.3333333333339
 20
-676.6880870558707
 30
0.0
 10
996.3333333333339
 20
-663.1269625485547
 30
0.0
 10
996.3333333333339
 20
-663.1269625485547
 30
0.0
 10
996.3333333333339
 20
-655.938888769997
 30
0.0
 10
994.6010856889043
 20
-649.3985991496884
 30
0.0
 10
991.8166647632206
 20
-644.6624485734555
 30
0.0
  0
SPLINE
  5
7F
330
7A
100
AcDbEntity
  8
Layer 1
370
     0
100
AcDbSpline
210
0.0
220
0.0
230
1.0
 70
    11
 71
     3
 72
   122
 73
   118
 74
     0
 42
0.0000000001
 43
0.0000000001
 12
1.0
 22
0.0
 32
0.0
 13
1.0
 23
0.0
 33
0.0
 40
0.0
 40
0.0
 40
0.0
 40
0.0
 40
1.0
 40
1.0
 40
1.0
 40
2.0
 40
2.0
 40
2.0
 40
3.0
 40
3.0
 40
3.0
 40
4.0
 40
4.0
 40
4.0
 40
5.0
 40
5.0
 40
5.0
 40
6.0
 40
6.0
 40
6.0
 40
7.0
 40
7.0
 40
7.0
 40
8.0
 40
8.0
 40
8.0
 40
9.0
 40
9.0
 40
9.0
 40
10.0
 40
10.0
 40
10.0
 40
11.0
 40
11.0
 40
11.0
 40
12.0
 40
12.0
 40
12.0
 40
13.0
 40
13.0
 40
13.0
 40
14.0
 40
14.0
 40
14.0
 40
15.0
 40
15.0
 40
15.0
 40
16.0
 40
16.0
 40
16.0
 40
17.0
 40
17.0
 40
17.0
 40
18.0
 40
18.0
 40
18.0
 40
19.0
 40
19.0
 40
19.0
 40
20.0
 40
20.0
 40
20.0
 40
21.0
 40
21.0
 40
21.0
 40
22.0
 40
22.0
 40
22.0
 40
23.0
 40
23.0
 40
23.0
 40
24.0
 40
24.0
 40
24.0
 40
25.0
 40
25.0
 40
25.0
 40
26.0
 40
26.0
 40
26.0
 40
27.0
 40
27.0
 40
27.0
 40
28.0
 40
28.0
 40
28.0
 40
29.0
 40
29.0
 40
29.0
 40
30.0
 40
30.0
 40
30.0
 40
31.0
 40
31.0
 40
31.0
 40
32.0
 40
32.0
 40
32.0
 40
33.0
 40
33.0
 40
33.0
 40
34.0
 40
34.0
 40
34.0
 40
35.0
 40
35.0
 40
35.0
 40
36.0
 40
36.0
 40
36.0
 40
37.0
 40
37.0
 40
37.0
 40
38.0
 40
38.0
 40
38.0
 40
39.0
 40
39.0
 40
39.0
 40
39.0
 10
422.8685849041485
 20
-618.7765183955253
 30
0.0
 10
421.2674781391579
 20
-619.1323198988575
 30
0.0
 10
419.946625982956
 20
-619.6221562150859
 30
0.0
 10
418.9096839304393
 20
-620.2460273442157
 30
0.0
 10
417.8715233796238
 20
-620.867461476746
 30
0.0
 10
416.7310089716848
 20
-621.8471341092063
 30
0.0
 10
415.4857037100264
 20
-623.1801712483975
 30
0.0
 10
414.2403984483672
 20
-624.5156453841901
 30
0.0
 10
412.7574860183877
 20
-626.5164195912785
 30
0.0
 10
411.0381849183868
 20
-629.1849308662622
 30
0.0
 10
409.3176653200862
 20
-631.853442141246
 30
0.0
 10
407.3315130925876
 20
-635.323725297023
 30
0.0
 10
405.0785097375892
 20
-639.5933433369973
 30
0.0
 10
405.0785097375892
 20
-639.5933433369973
 30
0.0
 10
379.5497518735774
 20
-687.6265462867068
 30
0.0
 10
379.5497518735774
 20
-687.6265462867068
 30
0.0
 10
379.5497518735774
 20
-687.6265462867068
 30
0.0
 10
379.5497518735774
 20
-711.9965122682934
 30
0.0
 10
379.5497518735774
 20
-711.9965122682934
 30
0.0
 10
379.5497518735774
 20
-715.142674876517
 30
0.0
 10
379.63870224941
 20
-717.5284945461135
 30
0.0
 10
379.8166030010761
 20
-719.1588452702817
 30
0.0
 10
379.9945037527414
 20
-720.78919599445
 30
0.0
 10
380.3198427985953
 20
-722.1100481506528
 30
0.0
 10
380.7950571352367
 20
-723.116527745693
 30
0.0
 10
381.2690529735783
 20
-724.1254443373291
 30
0.0
 10
381.8466211673422
 20
-724.9394012011144
 30
0.0
 10
382.5301987131252
 20
-725.5632723302442
 30
0.0
 10
383.2101207640117
 20
-726.1847064627746
 30
0.0
 10
384.1593309389946
 20
-726.7500896735473
 30
0.0
 10
385.3766107397751
 20
-727.2521109727677
 30
0.0
 10
386.5902350456581
 20
-727.7565692685857
 30
0.0
 10
388.236426247714
 20
-728.158673707283
 30
0.0
 10
390.312747349346
 20
-728.4535502956605
 30
0.0
 10
390.312747349346
 20
-728.4535502956605
 30
0.0
 10
390.312747349346
 20
-734.3242751006237
 30
0.0
 10
390.312747349346
 20
-734.3242751006237
 30
0.0
 10
390.312747349346
 20
-734.3242751006237
 30
0.0
 10
341.2121398896434
 20
-734.3242751006237
 30
0.0
 10
341.2121398896434
 20
-734.3242751006237
 30
0.0
 10
341.2121398896434
 20
-734.3242751006237
 30
0.0
 10
341.2121398896434
 20
-728.4535502956605
 30
0.0
 10
341.2121398896434
 20
-728.4535502956605
 30
0.0
 10
343.643043996306
 20
-728.039260873973
 30
0.0
 10
345.5841117867403
 20
-727.5055586189756
 30
0.0
 10
347.0377802575413
 20
-726.8524435306699
 30
0.0
 10
348.4902302300443
 20
-726.201765438962
 30
0.0
 10
349.573475217926
 20
-725.2513367656793
 30
0.0
 10
350.2850782245878
 20
-724.0060315040209
 30
0.0
 10
350.9966812312505
 20
-722.7607262423608
 30
0.0
 10
351.4548365917044
 20
-721.1742414569599
 30
0.0
 10
351.663199800847
 20
-719.2465771478164
 30
0.0
 10
351.8703445116898
 20
-717.3213498352707
 30
0.0
 10
351.975135365411
 20
-714.9038492098971
 30
0.0
 10
351.975135365411
 20
-711.9965122682934
 30
0.0
 10
351.975135365411
 20
-711.9965122682934
 30
0.0
 10
351.975135365411
 20
-687.6265462867068
 30
0.0
 10
351.975135365411
 20
-687.6265462867068
 30
0.0
 10
351.975135365411
 20
-687.6265462867068
 30
0.0
 10
327.8695835147237
 20
-636.7469313103484
 30
0.0
 10
327.8695835147237
 20
-636.7469313103484
 30
0.0
 10
325.7932624130926
 20
-632.4188253520188
 30
0.0
 10
324.1629116889244
 20
-629.2166118220375
 30
0.0
 10
322.9773128439201
 20
-627.1402907204065
 30
0.0
 10
321.6125947489509
 20
-624.7081681154432
 30
0.0
 10
320.4428363818351
 20
-622.958404557965
 30
0.0
 10
319.4631637493749
 20
-621.8910000479718
 30
0.0
 10
318.4859281135141
 20
-620.8235955379787
 30
0.0
 10
317.5805838772976
 20
-620.0827485721384
 30
0.0
 10
316.7507865356247
 20
-619.6684591504509
 30
0.0
 10
315.9197706956529
 20
-619.2541697287652
 30
0.0
 10
314.7634158098263
 20
-618.95685614379
 30
0.0
 10
313.2817218781456
 20
-618.7765183955253
 30
0.0
 10
313.2817218781456
 20
-618.7765183955253
 30
0.0
 10
313.2817218781456
 20
-612.9082305871598
 30
0.0
 10
313.2817218781456
 20
-612.9082305871598
 30
0.0
 10
313.2817218781456
 20
-612.9082305871598
 30
0.0
 10
360.692272197025
 20
-612.9082305871598
 30
0.0
 10
360.692272197025
 20
-612.9082305871598
 30
0.0
 10
360.692272197025
 20
-612.9082305871598
 30
0.0
 10
360.692272197025
 20
-618.7765183955253
 30
0.0
 10
360.692272197025
 20
-618.7765183955253
 30
0.0
 10
356.1253405720754
 20
-619.3711455654757
 30
0.0
 10
353.8430932578995
 20
-621.6229304221742
 30
0.0
 10
353.8430932578995
 20
-625.5367469588182
 30
0.0
 10
353.8430932578995
 20
-627.0818028020512
 30
0.0
 10
354.2122982425208
 20
-628.9192982370623
 30
0.0
 10
354.9555822049588
 20
-631.0541072570486
 30
0.0
 10
355.6952106725003
 20
-633.1889162770367
 30
0.0
 10
356.8966499953931
 20
-636.0353283036857
 30
0.0
 10
358.5574631770378
 20
-639.5933433369973
 30
0.0
 10
358.5574631770378
 20
-639.5933433369973
 30
0.0
 10
373.5900766927798
 20
-673.0386846501278
 30
0.0
 10
373.5900766927798
 20
-673.0386846501278
 30
0.0
 10
373.5900766927798
 20
-673.0386846501278
 30
0.0
 10
389.867995470182
 20
-640.3926782211929
 30
0.0
 10
389.867995470182
 20
-640.3926782211929
 30
0.0
 10
391.4691022351717
 20
-637.1319767728564
 30
0.0
 10
392.5803726839322
 20
-634.4195995591072
 30
0.0
 10
393.2042438130611
 20
-632.2531095833438
 30
0.0
 10
393.8256779455915
 20
-630.089056604178
 30
0.0
 10
394.1376135101555
 20
-627.939625604602
 30
0.0
 10
394.1376135101555
 20
-625.8048165846158
 30
0.0
 10
394.1376135101555
 20
-623.6700075646277
 30
0.0
 10
393.5283643606163
 20
-621.9957909016939
 30
0.0
 10
392.3147400547332
 20
-620.7797295992114
 30
0.0
 10
391.0974602539527
 20
-619.5636682967306
 30
0.0
 10
389.3927811335407
 20
-618.8983682254329
 30
0.0
 10
387.1994841951973
 20
-618.7765183955253
 30
0.0
 10
387.1994841951973
 20
-618.7765183955253
 30
0.0
 10
387.1994841951973
 20
-612.9082305871598
 30
0.0
 10
387.1994841951973
 20
-612.9082305871598
 30
0.0
 10
387.1994841951973
 20
-612.9082305871598
 30
0.0
 10
422.8685849041485
 20
-612.9082305871598
 30
0.0
 10
422.8685849041485
 20
-612.9082305871598
 30
0.0
 10
422.8685849041485
 20
-612.9082305871598
 30
0.0
 10
422.8685849041485
 20
-618.7765183955253
 30
0.0
 10
422.8685849041485
 20
-618.7765183955253
 30
0.0
  0
SPLINE
  5
80
330
7A
100
AcDbEntity
  8
Layer 1
370
     0
100
AcDbSpline
210
0.0
220
0.0
230
1.0
 70
    11
 71
     3
 72
    38
 73
    34
 74
     0
 42
0.0000000001
 43
0.0000000001
 12
1.0
 22
0.0
 32
0.0
 13
1.0
 23
0.0
 33
0.0
 40
0.0
 40
0.0
 40
0.0
 40
0.0
 40
1.0
 40
1.0
 40
1.0
 40
2.0
 40
2.0
 40
2.0
 40
3.0
 40
3.0
 40
3.0
 40
4.0
 40
4.0
 40
4.0
 40
5.0
 40
5.0
 40
5.0
 40
6.0
 40
6.0
 40
6.0
 40
7.0
 40
7.0
 40
7.0
 40
8.0
 40
8.0
 40
8.0
 40
9.0
 40
9.0
 40
9.0
 40
10.0
 40
10.0
 40
10.0
 40
11.0
 40
11.0
 40
11.0
 40
11.0
 10
527.0745594414166
 20
-700.9227997262606
 30
0.0
 10
524.4340736273116
 20
-708.960014506989
 30
0.0
 10
520.683535862745
 20
-715.554527301605
 30
0.0
 10
515.8217276494179
 20
-720.716086096505
 30
0.0
 10
510.9587009377919
 20
-725.8727708982096
 30
0.0
 10
505.1318420715943
 20
-729.6696115981413
 30
0.0
 10
498.3423695491247
 20
-732.1017342031046
 30
0.0
 10
491.5516785283553
 20
-734.5314198114684
 30
0.0
 10
483.977493101278
 20
-735.7474811139491
 30
0.0
 10
475.6161577729954
 20
-735.7474811139491
 30
0.0
 10
458.1818841097675
 20
-735.7474811139491
 30
0.0
 10
445.0903383844588
 20
-730.6492842306016
 30
0.0
 10
436.3451760919661
 20
-720.4480164707093
 30
0.0
 10
427.5963583045759
 20
-710.2491857074147
 30
0.0
 10
423.224386407479
 20
-694.9789650233506
 30
0.0
 10
423.224386407479
 20
-674.6373544185208
 30
0.0
 10
423.224386407479
 20
-661.2972350401997
 30
0.0
 10
425.3433549495785
 20
-649.8969649540122
 30
0.0
 10
429.5849475286741
 20
-640.4365441599602
 30
0.0
 10
433.8228846128713
 20
-630.978560362506
 30
0.0
 10
440.0652513990553
 20
-623.7894203979376
 30
0.0
 10
448.3083923923277
 20
-618.8666872696576
 30
0.0
 10
456.5503148873004
 20
-613.9463911379753
 30
0.0
 10
466.3653186863849
 20
-611.4850245738344
 30
0.0
 10
477.7509667929826
 20
-611.4850245738344
 30
0.0
 10
495.481335542886
 20
-611.4850245738344
 30
0.0
 10
508.7946479586271
 20
-616.568599477594
 30
0.0
 10
517.6896855419072
 20
-626.7381862817092
 30
0.0
 10
526.5847231251864
 20
-636.9102100824239
 30
0.0
 10
531.032241916826
 20
-652.0171519944106
 30
0.0
 10
531.032241916826
 20
-672.0590120176676
 30
0.0
 10
531.032241916826
 20
-683.2667593726001
 30
0.0
 10
529.7113897606241
 20
-692.8880219421317
 30
0.0
 10
527.0745594414166
 20
-700.9227997262606
 30
0.0
  0
SPLINE
  5
81
330
7A
100
AcDbEntity
  8
Layer 1
370
     0
100
AcDbSpline
210
0.0
220
0.0
230
1.0
 70
    11
 71
     3
 72
   128
 73
   124
 74
     0
 42
0.0000000001
 43
0.0000000001
 12
1.0
 22
0.0
 32
0.0
 13
1.0
 23
0.0
 33
0.0
 40
0.0
 40
0.0
 40
0.0
 40
0.0
 40
1.0
 40
1.0
 40
1.0
 40
2.0
 40
2.0
 40
2.0
 40
3.0
 40
3.0
 40
3.0
 40
4.0
 40
4.0
 40
4.0
 40
5.0
 40
5.0
 40
5.0
 40
6.0
 40
6.0
 40
6.0
 40
7.0
 40
7.0
 40
7.0
 40
8.0
 40
8.0
 40
8.0
 40
9.0
 40
9.0
 40
9.0
 40
10.0
 40
10.0
 40
10.0
 40
11.0
 40
11.0
 40
11.0
 40
12.0
 40
12.0
 40
12.0
 40
13.0
 40
13.0
 40
13.0
 40
14.0
 40
14.0
 40
14.0
 40
15.0
 40
15.0
 40
15.0
 40
16.0
 40
16.0
 40
16.0
 40
17.0
 40
17.0
 40
17.0
 40
18.0
 40
18.0
 40
18.0
 40
19.0
 40
19.0
 40
19.0
 40
20.0
 40
20.0
 40
20.0
 40
21.0
 40
21.0
 40
21.0
 40
22.0
 40
22.0
 40
22.0
 40
23.0
 40
23.0
 40
23.0
 40
24.0
 40
24.0
 40
24.0
 40
25.0
 40
25.0
 40
25.0
 40
26.0
 40
26.0
 40
26.0
 40
27.0
 40
27.0
 40
27.0
 40
28.0
 40
28.0
 40
28.0
 40
29.0
 40
29.0
 40
29.0
 40
30.0
 40
30.0
 40
30.0
 40
31.0
 40
31.0
 40
31.0
 40
32.0
 40
32.0
 40
32.0
 40
33.0
 40
33.0
 40
33.0
 40
34.0
 40
34.0
 40
34.0
 40
35.0
 40
35.0
 40
35.0
 40
36.0
 40
36.0
 40
36.0
 40
37.0
 40
37.0
 40
37.0
 40
38.0
 40
38.0
 40
38.0
 40
39.0
 40
39.0
 40
39.0
 40
40.0
 40
40.0
 40
40.0
 40
41.0
 40
41.0
 40
41.0
 40
41.0
 10
657.0749244718954
 20
-618.7765183955253
 30
0.0
 10
654.9401154519092
 20
-619.3711455654757
 30
0.0
 10
653.2512768093839
 20
-620.0096386741934
 30
0.0
 10
652.0059715477255
 20
-620.6895607250808
 30
0.0
 10
650.7606662860671
 20
-621.3719197725641
 30
0.0
 10
649.8102376127845
 20
-622.3223484458467
 30
0.0
 10
649.1595595210765
 20
-623.5359727517298
 30
0.0
 10
648.5064444327691
 20
-624.7520340542105
 30
0.0
 10
648.0921550110816
 20
-626.2946529008459
 30
0.0
 10
647.9142542594163
 20
-628.1613922950346
 30
0.0
 10
647.7363535077511
 20
-630.0305686858228
 30
0.0
 10
647.6461846336188
 20
-632.3871443962416
 30
0.0
 10
647.6461846336188
 20
-635.2335564228924
 30
0.0
 10
647.6461846336188
 20
-635.2335564228924
 30
0.0
 10
647.6461846336188
 20
-690.8287598166862
 30
0.0
 10
647.6461846336188
 20
-690.8287598166862
 30
0.0
 10
647.6461846336188
 20
-698.1811785533318
 30
0.0
 10
647.053994460266
 20
-704.3345949636823
 30
0.0
 10
645.8671771169629
 20
-709.2841350545423
 30
0.0
 10
644.6803597736598
 20
-714.2361121420017
 30
0.0
 10
642.8428643386487
 20
-718.4009393282558
 30
0.0
 10
640.3522538153302
 20
-721.7834906065
 30
0.0
 10
637.8616432920116
 20
-725.1611678915469
 30
0.0
 10
634.761783619153
 20
-727.8906040814854
 30
0.0
 10
631.0575487899532
 20
-729.9669251831165
 30
0.0
 10
627.3508769641539
 20
-732.0432462847475
 30
0.0
 10
623.1860497778998
 20
-733.5249402164281
 30
0.0
 10
618.560630234595
 20
-734.4120069781584
 30
0.0
 10
613.9352106912884
 20
-735.303947733084
 30
0.0
 10
608.7444079372108
 20
-735.7474811139491
 30
0.0
 10
602.9930959655558
 20
-735.7474811139491
 30
0.0
 10
594.5732727189188
 20
-735.7474811139491
 30
0.0
 10
587.4572426522936
 20
-734.8725993352091
 30
0.0
 10
581.6450057656857
 20
-733.1228357777327
 30
0.0
 10
575.8327688790778
 20
-731.3755092168522
 30
0.0
 10
571.1049954786486
 20
-728.736241901046
 30
0.0
 10
567.459248567804
 20
-725.207470826912
 30
0.0
 10
563.81106466036
 20
-721.6786997527779
 30
0.0
 10
561.1108724296009
 20
-717.3944597332156
 30
0.0
 10
559.3635458687204
 20
-712.3523137716256
 30
0.0
 10
557.6137823112422
 20
-707.315041803231
 30
0.0
 10
556.738900532504
 20
-700.820445869138
 30
0.0
 10
556.738900532504
 20
-692.873399962542
 30
0.0
 10
556.738900532504
 20
-692.873399962542
 30
0.0
 10
556.738900532504
 20
-635.323725297023
 30
0.0
 10
556.738900532504
 20
-635.323725297023
 30
0.0
 10
556.738900532504
 20
-632.5358011887292
 30
0.0
 10
556.6633536379613
 20
-630.1938474579001
 30
0.0
 10
556.5171338420714
 20
-628.2954271079343
 30
0.0
 10
556.3684770495838
 20
-626.3994437545662
 30
0.0
 10
555.9834315870739
 20
-624.8568249079326
 30
0.0
 10
555.3619974545436
 20
-623.6700075646277
 30
0.0
 10
554.7381263254156
 20
-622.485627217924
 30
0.0
 10
553.7876976521329
 20
-621.5205765650517
 30
0.0
 10
552.5155854278946
 20
-620.7797295992114
 30
0.0
 10
551.2385992104591
 20
-620.038882633371
 30
0.0
 10
549.474213673393
 20
-619.3711455654757
 30
0.0
 10
547.2212103183938
 20
-618.7765183955253
 30
0.0
 10
547.2212103183938
 20
-618.7765183955253
 30
0.0
 10
547.2212103183938
 20
-612.9082305871598
 30
0.0
 10
547.2212103183938
 20
-612.9082305871598
 30
0.0
 10
547.2212103183938
 20
-612.9082305871598
 30
0.0
 10
593.9201576306114
 20
-612.9082305871598
 30
0.0
 10
593.9201576306114
 20
-612.9082305871598
 30
0.0
 10
593.9201576306114
 20
-612.9082305871598
 30
0.0
 10
593.9201576306114
 20
-618.7765183955253
 30
0.0
 10
593.9201576306114
 20
-618.7765183955253
 30
0.0
 10
591.4880350256499
 20
-619.4320704804304
 30
0.0
 10
589.696842526002
 20
-620.1266145109057
 30
0.0
 10
588.5392691418765
 20
-620.867461476746
 30
0.0
 10
587.3841327543505
 20
-621.610745439184
 30
0.0
 10
586.5068139790128
 20
-622.5148711771017
 30
0.0
 10
585.9146238056601
 20
-623.5822756870948
 30
0.0
 10
585.3224336323074
 20
-624.649680197088
 30
0.0
 10
584.9057072140222
 20
-626.0436422512357
 30
0.0
 10
584.6693185440017
 20
-627.7617248529368
 30
0.0
 10
584.4329298739794
 20
-629.4822444512374
 30
0.0
 10
584.3135170406695
 20
-632.0020989337336
 30
0.0
 10
584.3135170406695
 20
-635.323725297023
 30
0.0
 10
584.3135170406695
 20
-635.323725297023
 30
0.0
 10
584.3135170406695
 20
-694.0309733466675
 30
0.0
 10
584.3135170406695
 20
-694.0309733466675
 30
0.0
 10
584.3135170406695
 20
-698.7148808083293
 30
0.0
 10
584.6108306256447
 20
-702.9844988483019
 30
0.0
 10
585.2030207989974
 20
-706.8398274665906
 30
0.0
 10
585.7952109723501
 20
-710.6951560848775
 30
0.0
 10
586.877237461933
 20
-713.9997234719813
 30
0.0
 10
588.4515372643436
 20
-716.7559666244979
 30
0.0
 10
590.0209630735571
 20
-719.514646773614
 30
0.0
 10
592.1996380323108
 20
-721.6348338140124
 30
0.0
 10
594.9875621406045
 20
-723.116527745693
 30
0.0
 10
597.7754862488982
 20
-724.6006586739713
 30
0.0
 10
601.3627452413875
 20
-725.3415056398117
 30
0.0
 10
605.7517761146719
 20
-725.3415056398117
 30
0.0
 10
611.8004016713021
 20
-725.3415056398117
 30
0.0
 10
616.3064083812969
 20
-724.1254443373291
 30
0.0
 10
619.2722332412577
 20
-721.6933217323676
 30
0.0
 10
622.2356211046172
 20
-719.2636361240038
 30
0.0
 10
624.3265641858379
 20
-715.86646286617
 30
0.0
 10
625.5426254883187
 20
-711.5091129486627
 30
0.0
 10
626.7562497942017
 20
-707.149326034556
 30
0.0
 10
627.3654989437418
 20
-700.6425451174728
 30
0.0
 10
627.3654989437418
 20
-691.983896204214
 30
0.0
 10
627.3654989437418
 20
-691.983896204214
 30
0.0
 10
627.3654989437418
 20
-635.2335564228924
 30
0.0
 10
627.3654989437418
 20
-635.2335564228924
 30
0.0
 10
627.3654989437418
 20
-630.7860376312528
 30
0.0
 10
627.1729762124869
 20
-627.6886149549919
 30
0.0
 10
626.7879307499788
 20
-625.9388513975136
 30
0.0
 10
626.4004482908713
 20
-624.1890878400354
 30
0.0
 10
625.6449793454412
 20
-622.7805038062997
 30
0.0
 10
624.5190869170929
 20
-621.7130992963066
 30
0.0
 10
623.3931944887427
 20
-620.6456947863135
 30
0.0
 10
621.1974605538016
 20
-619.6684591504509
 30
0.0
 10
617.9367591054652
 20
-618.7765183955253
 30
0.0
 10
617.9367591054652
 20
-618.7765183955253
 30
0.0
 10
617.9367591054652
 20
-612.9082305871598
 30
0.0
 10
617.9367591054652
 20
-612.9082305871598
 30
0.0
 10
617.9367591054652
 20
-612.9082305871598
 30
0.0
 10
657.0749244718954
 20
-612.9082305871598
 30
0.0
 10
657.0749244718954
 20
-612.9082305871598
 30
0.0
 10
657.0749244718954
 20
-612.9082305871598
 30
0.0
 10
657.0749244718954
 20
-618.7765183955253
 30
0.0
 10
657.0749244718954
 20
-618.7765183955253
 30
0.0
  0
SPLINE
  5
82
330
7A
100
AcDbEntity
  8
Layer 1
370
     0
100
AcDbSpline
210
0.0
220
0.0
230
1.0
 70
    11
 71
     3
 72
   125
 73
   121
 74
     0
 42
0.0000000001
 43
0.0000000001
 12
1.0
 22
0.0
 32
0.0
 13
1.0
 23
0.0
 33
0.0
 40
0.0
 40
0.0
 40
0.0
 40
0.0
 40
1.0
 40
1.0
 40
1.0
 40
2.0
 40
2.0
 40
2.0
 40
3.0
 40
3.0
 40
3.0
 40
4.0
 40
4.0
 40
4.0
 40
5.0
 40
5.0
 40
5.0
 40
6.0
 40
6.0
 40
6.0
 40
7.0
 40
7.0
 40
7.0
 40
8.0
 40
8.0
 40
8.0
 40
9.0
 40
9.0
 40
9.0
 40
10.0
 40
10.0
 40
10.0
 40
11.0
 40
11.0
 40
11.0
 40
12.0
 40
12.0
 40
12.0
 40
13.0
 40
13.0
 40
13.0
 40
14.0
 40
14.0
 40
14.0
 40
15.0
 40
15.0
 40
15.0
 40
16.0
 40
16.0
 40
16.0
 40
17.0
 40
17.0
 40
17.0
 40
18.0
 40
18.0
 40
18.0
 40
19.0
 40
19.0
 40
19.0
 40
20.0
 40
20.0
 40
20.0
 40
21.0
 40
21.0
 40
21.0
 40
22.0
 40
22.0
 40
22.0
 40
23.0
 40
23.0
 40
23.0
 40
24.0
 40
24.0
 40
24.0
 40
25.0
 40
25.0
 40
25.0
 40
26.0
 40
26.0
 40
26.0
 40
27.0
 40
27.0
 40
27.0
 40
28.0
 40
28.0
 40
28.0
 40
29.0
 40
29.0
 40
29.0
 40
30.0
 40
30.0
 40
30.0
 40
31.0
 40
31.0
 40
31.0
 40
32.0
 40
32.0
 40
32.0
 40
33.0
 40
33.0
 40
33.0
 40
34.0
 40
34.0
 40
34.0
 40
35.0
 40
35.0
 40
35.0
 40
36.0
 40
36.0
 40
36.0
 40
37.0
 40
37.0
 40
37.0
 40
38.0
 40
38.0
 40
38.0
 40
39.0
 40
39.0
 40
39.0
 40
40.0
 40
40.0
 40
40.0
 40
40.0
 10
784.4518626644567
 20
-734.3242751006237
 30
0.0
 10
784.4518626644567
 20
-734.3242751006237
 30
0.0
 10
750.2071864671307
 20
-734.3242751006237
 30
0.0
 10
750.2071864671307
 20
-734.3242751006237
 30
0.0
 10
746.7661472705295
 20
-729.5818797206084
 30
0.0
 10
742.881574693065
 20
-722.5243375723403
 30
0.0
 10
738.5534687347354
 20
-713.1540856524189
 30
0.0
 10
738.5534687347354
 20
-713.1540856524189
 30
0.0
 10
731.6153394197772
 20
-697.9447898833114
 30
0.0
 10
731.6153394197772
 20
-697.9447898833114
 30
0.0
 10
729.5390183181462
 20
-693.4387831733147
 30
0.0
 10
727.7600108014904
 20
-690.2365696433335
 30
0.0
 10
726.2783168698097
 20
-688.3381492933695
 30
0.0
 10
724.7966229381291
 20
-686.4397289434037
 30
0.0
 10
723.2686260710834
 20
-685.1359357633883
 30
0.0
 10
721.6967632652704
 20
-684.4243327567256
 30
0.0
 10
720.1249004594592
 20
-683.7127297500629
 30
0.0
 10
717.7098368306833
 20
-683.3569282467324
 30
0.0
 10
714.4491353823469
 20
-683.3569282467324
 30
0.0
 10
714.4491353823469
 20
-683.3569282467324
 30
0.0
 10
709.2900135840446
 20
-683.3569282467324
 30
0.0
 10
709.2900135840446
 20
-683.3569282467324
 30
0.0
 10
709.2900135840446
 20
-683.3569282467324
 30
0.0
 10
709.2900135840446
 20
-711.9965122682934
 30
0.0
 10
709.2900135840446
 20
-711.9965122682934
 30
0.0
 10
709.2900135840446
 20
-716.4464680565325
 30
0.0
 10
709.4971582948892
 20
-719.5585127123813
 30
0.0
 10
709.9114477165749
 20
-721.3375202290372
 30
0.0
 10
710.3257371382624
 20
-723.116527745693
 30
0.0
 10
711.1275090190557
 20
-724.5397337590166
 30
0.0
 10
712.3143263623606
 20
-725.6071382690097
 30
0.0
 10
713.4987067090642
 20
-726.6745427790047
 30
0.0
 10
715.6944406440052
 20
-727.6249714522855
 30
0.0
 10
718.8966541739865
 20
-728.4535502956605
 30
0.0
 10
718.8966541739865
 20
-728.4535502956605
 30
0.0
 10
718.8966541739865
 20
-734.3242751006237
 30
0.0
 10
718.8966541739865
 20
-734.3242751006237
 30
0.0
 10
718.8966541739865
 20
-734.3242751006237
 30
0.0
 10
672.19648836347
 20
-734.3242751006237
 30
0.0
 10
672.19648836347
 20
-734.3242751006237
 30
0.0
 10
672.19648836347
 20
-734.3242751006237
 30
0.0
 10
672.19648836347
 20
-728.4535502956605
 30
0.0
 10
672.19648836347
 20
-728.4535502956605
 30
0.0
 10
674.3897853018134
 20
-727.8613601223078
 30
0.0
 10
676.1249268797019
 20
-727.2228670135901
 30
0.0
 10
677.3994761005397
 20
-726.540507966105
 30
0.0
 10
678.6740253213757
 20
-725.8605859152194
 30
0.0
 10
679.6244539946583
 20
-724.9101572419368
 30
0.0
 10
680.2458881271887
 20
-723.694095939456
 30
0.0
 10
680.8697592563167
 20
-722.480471633573
 30
0.0
 10
681.2694266984145
 20
-720.9378527869376
 30
0.0
 10
681.4473274500815
 20
-719.0686763961512
 30
0.0
 10
681.6252282017467
 20
-717.2019370019607
 30
0.0
 10
681.7153970758791
 20
-714.8429242949423
 30
0.0
 10
681.7153970758791
 20
-711.9965122682934
 30
0.0
 10
681.7153970758791
 20
-711.9965122682934
 30
0.0
 10
681.7153970758791
 20
-635.323725297023
 30
0.0
 10
681.7153970758791
 20
-635.323725297023
 30
0.0
 10
681.7153970758791
 20
-632.5358011887292
 30
0.0
 10
681.6398501813346
 20
-630.1938474579001
 30
0.0
 10
681.491193388847
 20
-628.2954271079343
 30
0.0
 10
681.3425365963594
 20
-626.3994437545662
 30
0.0
 10
680.9574911338514
 20
-624.8568249079326
 30
0.0
 10
680.336057001321
 20
-623.6700075646277
 30
0.0
 10
679.7121858721912
 20
-622.485627217924
 30
0.0
 10
678.764194195508
 20
-621.5205765650517
 30
0.0
 10
677.489644974672
 20
-620.7797295992114
 30
0.0
 10
676.2126587572366
 20
-620.038882633371
 30
0.0
 10
674.4507102167663
 20
-619.3711455654757
 30
0.0
 10
672.19648836347
 20
-618.7765183955253
 30
0.0
 10
672.19648836347
 20
-618.7765183955253
 30
0.0
 10
672.19648836347
 20
-612.9082305871598
 30
0.0
 10
672.19648836347
 20
-612.9082305871598
 30
0.0
 10
672.19648836347
 20
-612.9082305871598
 30
0.0
 10
724.0557759722888
 20
-612.9082305871598
 30
0.0
 10
724.0557759722888
 20
-612.9082305871598
 30
0.0
 10
731.0523932056021
 20
-612.9082305871598
 30
0.0
 10
736.9962279085121
 20
-613.3956299067904
 30
0.0
 10
741.8897170776145
 20
-614.3753025392507
 30
0.0
 10
746.7807692501192
 20
-615.3525381751133
 30
0.0
 10
751.0650092696815
 20
-616.8512910829795
 30
0.0
 10
754.7424371363031
 20
-618.8666872696576
 30
0.0
 10
757.8252378329744
 20
-620.5287189496012
 30
0.0
 10
760.4352611896029
 20
-622.6172250342242
 30
0.0
 10
762.5700702095892
 20
-625.1370795167204
 30
0.0
 10
764.7048792295773
 20
-627.6593709958142
 30
0.0
 10
766.3498519333334
 20
-630.5935148999979
 30
0.0
 10
767.5074253174589
 20
-633.9443852224649
 30
0.0
 10
768.6625617049867
 20
-637.2952555449338
 30
0.0
 10
769.2425668953474
 20
-641.1920131053903
 30
0.0
 10
769.2425668953474
 20
-645.6419688936276
 30
0.0
 10
769.2425668953474
 20
-651.4542057802355
 30
0.0
 10
768.2190283241216
 20
-656.4354268268726
 30
0.0
 10
766.1719511816682
 20
-660.585632033537
 30
0.0
 10
764.1273110358125
 20
-664.7358372402014
 30
0.0
 10
761.3686308866963
 20
-668.1890614197928
 30
0.0
 10
757.900784727517
 20
-670.9477415689071
 30
0.0
 10
754.43050157174
 20
-673.7039847214255
 30
0.0
 10
749.7904600488455
 20
-676.2993860984643
 30
0.0
 10
743.9806601588352
 20
-678.7315087034276
 30
0.0
 10
743.9806601588352
 20
-678.7315087034276
 30
0.0
 10
743.9806601588352
 20
-679.618575465156
 30
0.0
 10
743.9806601588352
 20
-679.618575465156
 30
0.0
 10
748.3672540355201
 20
-681.5194328117213
 30
0.0
 10
751.9983789667767
 20
-684.0539092738054
 30
0.0
 10
754.8764719492028
 20
-687.2244418480095
 30
0.0
 10
757.7521279350294
 20
-690.3974114188131
 30
0.0
 10
760.3475293120682
 20
-694.4160188091773
 30
0.0
 10
762.6602390837215
 20
-699.2778270225026
 30
0.0
 10
762.6602390837215
 20
-699.2778270225026
 30
0.0
 10
768.262894262889
 20
-711.375078135763
 30
0.0
 10
768.262894262889
 20
-711.375078135763
 30
0.0
 10
770.7535047862075
 20
-716.7730256006853
 30
0.0
 10
773.2294933299363
 20
-720.8184399536294
 30
0.0
 10
775.6908598940754
 20
-723.5161951877908
 30
0.0
 10
778.1497894616186
 20
-726.2163874185499
 30
0.0
 10
781.0717483828103
 20
-727.8613601223078
 30
0.0
 10
784.4518626644567
 20
-728.4535502956605
 30
0.0
 10
784.4518626644567
 20
-728.4535502956605
 30
0.0
 10
784.4518626644567
 20
-734.3242751006237
 30
0.0
 10
784.4518626644567
 20
-734.3242751006237
 30
0.0
  0
ENDBLK
  5
7D
330
7A
100
AcDbEntity
  8
0
100
AcDbBlockEnd
  0
BLOCK
  5
85
330
83
100
AcDbEntity
  8
0
100
AcDbBlockBegin
  2
block 13
 70
     0
 10
0.0
 20
0.0
 30
0.0
  3
block 13
  1

  0
SPLINE
  5
87
330
83
100
AcDbEntity
  8
Layer 1
370
     0
100
AcDbSpline
210
0.0
220
0.0
230
1.0
 70
    11
 71
     3
 72
    32
 73
    28
 74
     0
 42
0.0000000001
 43
0.0000000001
 12
1.0
 22
0.0
 32
0.0
 13
1.0
 23
0.0
 33
0.0
 40
0.0
 40
0.0
 40
0.0
 40
0.0
 40
1.0
 40
1.0
 40
1.0
 40
2.0
 40
2.0
 40
2.0
 40
3.0
 40
3.0
 40
3.0
 40
4.0
 40
4.0
 40
4.0
 40
5.0
 40
5.0
 40
5.0
 40
6.0
 40
6.0
 40
6.0
 40
7.0
 40
7.0
 40
7.0
 40
8.0
 40
8.0
 40
8.0
 40
9.0
 40
9.0
 40
9.0
 40
9.0
 10
719.3401875548516
 20
-623.3142060612972
 30
0.0
 10
714.2395536749045
 20
-623.3142060612972
 30
0.0
 10
710.8911203490352
 20
-623.375130976252
 30
0.0
 10
709.2900135840446
 20
-623.4921068129624
 30
0.0
 10
709.2900135840446
 20
-623.4921068129624
 30
0.0
 10
709.2900135840446
 20
-672.9485157759955
 30
0.0
 10
709.2900135840446
 20
-672.9485157759955
 30
0.0
 10
709.2900135840446
 20
-672.9485157759955
 30
0.0
 10
718.0948822931932
 20
-672.9485157759955
 30
0.0
 10
718.0948822931932
 20
-672.9485157759955
 30
0.0
 10
722.839714669808
 20
-672.9485157759955
 30
0.0
 10
726.7535312064501
 20
-672.3124596638772
 30
0.0
 10
729.8363319031214
 20
-671.0354734464418
 30
0.0
 10
732.9191325997926
 20
-669.760924225604
 30
0.0
 10
735.3658771843438
 20
-667.9819167089481
 30
0.0
 10
737.1741286601773
 20
-665.6984508964742
 30
0.0
 10
738.9823801360108
 20
-663.417422080598
 30
0.0
 10
740.2276853976691
 20
-660.7342888260246
 30
0.0
 10
740.9100444451542
 20
-657.6490511327556
 30
0.0
 10
741.5924034926393
 20
-654.5662504360844
 30
0.0
 10
741.9335830163818
 20
-651.1861361544397
 30
0.0
 10
741.9335830163818
 20
-647.5087082878163
 30
0.0
 10
741.9335830163818
 20
-639.4446865445098
 30
0.0
 10
740.035162666416
 20
-633.3960609878795
 30
0.0
 10
736.240758963082
 20
-629.3628316179274
 30
0.0
 10
732.4463552597499
 20
-625.332039244573
 30
0.0
 10
726.8120191248054
 20
-623.3142060612972
 30
0.0
 10
719.3401875548516
 20
-623.3142060612972
 30
0.0
  0
ENDBLK
  5
86
330
83
100
AcDbEntity
  8
0
100
AcDbBlockEnd
  0
BLOCK
  5
8A
330
88
100
AcDbEntity
  8
0
100
AcDbBlockBegin
  2
block 14
 70
     0
 10
0.0
 20
0.0
 30
0.0
  3
block 14
  1

  0
SPLINE
  5
8C
330
88
100
AcDbEntity
  8
Layer 1
370
     0
100
AcDbSpline
210
0.0
220
0.0
230
1.0
 70
    11
 71
     3
 72
    38
 73
    34
 74
     0
 42
0.0000000001
 43
0.0000000001
 12
1.0
 22
0.0
 32
0.0
 13
1.0
 23
0.0
 33
0.0
 40
0.0
 40
0.0
 40
0.0
 40
0.0
 40
1.0
 40
1.0
 40
1.0
 40
2.0
 40
2.0
 40
2.0
 40
3.0
 40
3.0
 40
3.0
 40
4.0
 40
4.0
 40
4.0
 40
5.0
 40
5.0
 40
5.0
 40
6.0
 40
6.0
 40
6.0
 40
7.0
 40
7.0
 40
7.0
 40
8.0
 40
8.0
 40
8.0
 40
9.0
 40
9.0
 40
9.0
 40
10.0
 40
10.0
 40
10.0
 40
11.0
 40
11.0
 40
11.0
 40
11.0
 10
491.4042402341665
 20
-627.9834915433694
 30
0.0
 10
487.6378619917123
 20
-623.9234552108373
 30
0.0
 10
482.8211382154514
 20
-621.8910000479718
 30
0.0
 10
476.9504134104873
 20
-621.8910000479718
 30
0.0
 10
468.3514709138835
 20
-621.8910000479718
 30
0.0
 10
461.9628843318105
 20
-625.9973393158707
 30
0.0
 10
457.7809981693699
 20
-634.2100178516648
 30
0.0
 10
453.6015490035279
 20
-642.4251333840584
 30
0.0
 10
451.5106059223081
 20
-655.0999526910819
 30
0.0
 10
451.5106059223081
 20
-672.2369127693346
 30
0.0
 10
451.5106059223081
 20
-690.146400769203
 30
0.0
 10
453.6588184235843
 20
-703.474335164532
 30
0.0
 10
457.9588989210361
 20
-712.2207159553254
 30
0.0
 10
462.257760920188
 20
-720.967096746117
 30
0.0
 10
468.825466752226
 20
-725.3415056398117
 30
0.0
 10
477.6620164171491
 20
-725.3415056398117
 30
0.0
 10
482.2277295437998
 20
-725.3415056398117
 30
0.0
 10
486.1123021212652
 20
-724.1108223577412
 30
0.0
 10
489.3145156512455
 20
-721.6494557936003
 30
0.0
 10
492.5167291812259
 20
-719.1880892294612
 30
0.0
 10
495.109693561667
 20
-715.7494870294577
 30
0.0
 10
497.0970642874654
 20
-711.3312121969975
 30
0.0
 10
499.083216514965
 20
-706.9129373645355
 30
0.0
 10
500.5064225282895
 20
-701.6782686716906
 30
0.0
 10
501.3666823274398
 20
-695.6296431150604
 30
0.0
 10
502.2257236282903
 20
-689.5810175584302
 30
0.0
 10
502.6570720261643
 20
-682.9426388250449
 30
0.0
 10
502.6570720261643
 20
-675.7047589285139
 30
0.0
 10
502.6570720261643
 20
-663.9072583968264
 30
0.0
 10
501.7224838307702
 20
-654.017926201499
 30
0.0
 10
499.8557444365815
 20
-646.0416363357253
 30
0.0
 10
497.9865680457933
 20
-638.0653464699517
 30
0.0
 10
495.169399978322
 20
-632.0459648725009
 30
0.0
 10
491.4042402341665
 20
-627.9834915433694
 30
0.0
  0
ENDBLK
  5
8B
330
88
100
AcDbEntity
  8
0
100
AcDbBlockEnd
  0
BLOCK
  5
8F
330
8D
100
AcDbEntity
  8
0
100
AcDbBlockBegin
  2
block 15
 70
     0
 10
0.0
 20
0.0
 30
0.0
  3
block 15
  1

  0
SPLINE
  5
91
330
8D
100
AcDbEntity
  8
Layer 1
370
     0
100
AcDbSpline
210
0.0
220
0.0
230
1.0
 70
    11
 71
     3
 72
    35
 73
    31
 74
     0
 42
0.0000000001
 43
0.0000000001
 12
1.0
 22
0.0
 32
0.0
 13
1.0
 23
0.0
 33
0.0
 40
0.0
 40
0.0
 40
0.0
 40
0.0
 40
1.0
 40
1.0
 40
1.0
 40
2.0
 40
2.0
 40
2.0
 40
3.0
 40
3.0
 40
3.0
 40
4.0
 40
4.0
 40
4.0
 40
5.0
 40
5.0
 40
5.0
 40
6.0
 40
6.0
 40
6.0
 40
7.0
 40
7.0
 40
7.0
 40
8.0
 40
8.0
 40
8.0
 40
9.0
 40
9.0
 40
9.0
 40
10.0
 40
10.0
 40
10.0
 40
10.0
 10
948.976863383421
 20
-919.1374307543138
 30
0.0
 10
945.9133294963067
 20
-899.6844909794036
 30
0.0
 10
959.416069934201
 20
-819.8545335952258
 30
0.0
 10
952.7751346419009
 20
-815.7984658048445
 30
0.0
 10
947.9741681527848
 20
-812.865555729406
 30
0.0
 10
946.4896617697596
 20
-812.250398677048
 30
0.0
 10
943.3317405312773
 20
-807.5986725010443
 30
0.0
 10
940.9439303516065
 20
-804.0793884310478
 30
0.0
 10
939.5655836033675
 20
-800.7361771371507
 30
0.0
 10
938.8662007394196
 20
-797.3886184230632
 30
0.0
 10
936.4751311248128
 20
-785.9492855677981
 30
0.0
 10
941.1142417150477
 20
-762.4784125631122
 30
0.0
 10
955.4999439024341
 20
-757.116451765085
 30
0.0
 10
956.4401937701186
 20
-756.7844567668435
 30
0.0
 10
957.7276234384572
 20
-756.7683744405113
 30
0.0
 10
958.6915329458116
 20
-757.1617988766411
 30
0.0
 10
972.9795495817561
 20
-762.6123149116756
 30
0.0
 10
977.5883096691141
 20
-785.9813807183564
 30
0.0
 10
975.2037780263272
 20
-797.3886184230632
 30
0.0
 10
974.5028613512404
 20
-800.7361771371507
 30
0.0
 10
973.1227698772545
 20
-804.0793884310478
 30
0.0
 10
970.7349596975819
 20
-807.5986725010443
 30
0.0
 10
967.5804895505571
 20
-812.250398677048
 30
0.0
 10
966.0941243098587
 20
-812.865555729406
 30
0.0
 10
961.2915655869601
 20
-815.7984658048445
 30
0.0
 10
954.6523558403896
 20
-819.8545335952258
 30
0.0
 10
968.1954740483434
 20
-899.6903578348847
 30
0.0
 10
965.0898566702544
 20
-919.1374307543138
 30
0.0
 10
962.8115988195605
 20
-933.3966504397686
 30
0.0
 10
951.7910754015647
 20
-936.9707733080686
 30
0.0
 10
948.976863383421
 20
-919.1374307543138
 30
0.0
  0
ENDBLK
  5
90
330
8D
100
AcDbEntity
  8
0
100
AcDbBlockEnd
  0
BLOCK
  5
94
330
92
100
AcDbEntity
  8
0
100
AcDbBlockBegin
  2
block 16
 70
     0
 10
0.0
 20
0.0
 30
0.0
  3
block 16
  1

  0
SPLINE
  5
96
330
92
100
AcDbEntity
  8
Layer 1
370
     0
100
AcDbSpline
210
0.0
220
0.0
230
1.0
 70
    11
 71
     3
 72
    35
 73
    31
 74
     0
 42
0.0000000001
 43
0.0000000001
 12
1.0
 22
0.0
 32
0.0
 13
1.0
 23
0.0
 33
0.0
 40
0.0
 40
0.0
 40
0.0
 40
0.0
 40
1.0
 40
1.0
 40
1.0
 40
2.0
 40
2.0
 40
2.0
 40
3.0
 40
3.0
 40
3.0
 40
4.0
 40
4.0
 40
4.0
 40
5.0
 40
5.0
 40
5.0
 40
6.0
 40
6.0
 40
6.0
 40
7.0
 40
7.0
 40
7.0
 40
8.0
 40
8.0
 40
8.0
 40
9.0
 40
9.0
 40
9.0
 40
10.0
 40
10.0
 40
10.0
 40
10.0
 10
129.0328907579515
 20
-919.1374307543138
 30
0.0
 10
125.9693568708381
 20
-899.6844909794036
 30
0.0
 10
139.4720973087324
 20
-819.8545335952258
 30
0.0
 10
132.8311620164322
 20
-815.7984658048445
 30
0.0
 10
128.0301955273162
 20
-812.865555729406
 30
0.0
 10
126.5456891442918
 20
-812.250398677048
 30
0.0
 10
123.3877679058096
 20
-807.5986725010443
 30
0.0
 10
120.9999577261369
 20
-804.0793884310478
 30
0.0
 10
119.6216109778989
 20
-800.7361771371507
 30
0.0
 10
118.92222811395
 20
-797.3886184230632
 30
0.0
 10
116.5311584993433
 20
-785.9492855677981
 30
0.0
 10
121.17026908958
 20
-762.4784125631122
 30
0.0
 10
135.5559712769646
 20
-757.116451765085
 30
0.0
 10
136.4962211446491
 20
-756.7844567668435
 30
0.0
 10
137.7836508129885
 20
-756.7683744405113
 30
0.0
 10
138.7475603203429
 20
-757.1617988766411
 30
0.0
 10
153.0355769562866
 20
-762.6123149116756
 30
0.0
 10
157.6443370436455
 20
-785.9813807183564
 30
0.0
 10
155.2598054008577
 20
-797.3886184230632
 30
0.0
 10
154.5588887257709
 20
-800.7361771371507
 30
0.0
 10
153.1787972517859
 20
-804.0793884310478
 30
0.0
 10
150.7909870721141
 20
-807.5986725010443
 30
0.0
 10
147.6365169250885
 20
-812.250398677048
 30
0.0
 10
146.1501516843891
 20
-812.865555729406
 30
0.0
 10
141.3475929614906
 20
-815.7984658048445
 30
0.0
 10
134.7083832149219
 20
-819.8545335952258
 30
0.0
 10
148.2515014228748
 20
-899.6903578348847
 30
0.0
 10
145.1458840447849
 20
-919.1374307543138
 30
0.0
 10
142.8676261940909
 20
-933.3966504397686
 30
0.0
 10
131.8471027760952
 20
-936.9707733080686
 30
0.0
 10
129.0328907579515
 20
-919.1374307543138
 30
0.0
  0
ENDBLK
  5
95
330
92
100
AcDbEntity
  8
0
100
AcDbBlockEnd
  0
ENDSEC
  0
SECTION
  2
ENTITIES
  0
INSERT
  5
42
330
1F
100
AcDbEntity
  8
Layer 1
100
AcDbBlockReference
  2
block 2
 10
0.0
 20
0.0
 30
0.0
  0
ENDSEC
  0
SECTION
  2
OBJECTS
  0
DICTIONARY
  5
C
330
0
100
AcDbDictionary
281
     1
  3
ACAD_GROUP
350
D
  3
ACAD_LAYOUT
350
1A
  3
ACAD_MATERIAL
350
3B
  3
ACAD_MLEADERSTYLE
350
98
  3
ACAD_MLINESTYLE
350
17
  3
ACAD_PLOTSETTINGS
350
19
  3
ACAD_PLOTSTYLENAME
350
E
  3
ACAD_TABLESTYLE
350
97
  3
ACAD_VISUALSTYLE
350
2A
  0
SUN
  5
3F
330
29
100
AcDbSun
 90
        1
290
     0
 63
     7
421
 16777215
 40
1.0
291
     1
 91
  2455826
 92
 54000000
292
     0
 70
     2
 71
   256
280
     1
  0
DICTIONARY
  5
D
102
{ACAD_REACTORS
330
C
102
}
330
C
100
AcDbDictionary
281
     1
  0
DICTIONARY
  5
1A
102
{ACAD_REACTORS
330
C
102
}
330
C
100
AcDbDictionary
281
     1
  3
Layout1
350
1E
  3
Layout2
350
26
  3
Model
350
22
  0
DICTIONARY
  5
3B
102
{ACAD_REACTORS
330
C
102
}
330
C
100
AcDbDictionary
281
     1
  3
ByBlock
350
3D
  3
ByLayer
350
3C
  3
Global
350
3E
  0
DICTIONARY
  5
98
102
{ACAD_REACTORS
330
C
102
}
330
C
100
AcDbDictionary
281
     1
  0
DICTIONARY
  5
17
102
{ACAD_REACTORS
330
C
102
}
330
C
100
AcDbDictionary
281
     1
  3
Standard
350
18
  0
DICTIONARY
  5
19
102
{ACAD_REACTORS
330
C
102
}
330
C
100
AcDbDictionary
281
     1
  0
ACDBDICTIONARYWDFLT
  5
E
102
{ACAD_REACTORS
330
C
102
}
330
C
100
AcDbDictionary
281
     1
  3
Normal
350
F
100
AcDbDictionaryWithDefault
340
F
  0
DICTIONARY
  5
97
102
{ACAD_REACTORS
330
C
102
}
330
C
100
AcDbDictionary
281
     1
  0
DICTIONARY
  5
2A
102
{ACAD_REACTORS
330
C
102
}
330
C
100
AcDbDictionary
281
     1
  3
2dWireframe
350
2F
  3
3D Hidden
350
31
  3
3dWireframe
350
30
  3
Basic
350
32
  3
Brighten
350
36
  3
ColorChange
350
3A
  3
Conceptual
350
34
  3
Dim
350
35
  3
Facepattern
350
39
  3
Flat
350
2B
  3
FlatWithEdges
350
2C
  3
Gouraud
350
2D
  3
GouraudWithEdges
350
2E
  3
Linepattern
350
38
  3
Realistic
350
33
  3
Thicken
350
37
  0
LAYOUT
  5
1E
102
{ACAD_REACTORS
330
1A
102
}
330
1A
100
AcDbPlotSettings
  1

  2
none_device
  4

  6

 40
0.0
 41
0.0
 42
0.0
 43
0.0
 44
0.0
 45
0.0
 46
0.0
 47
0.0
 48
0.0
 49
0.0
140
0.0
141
0.0
142
1.0
143
1.0
 70
   688
 72
     0
 73
     0
 74
     5
  7

 75
    16
 76
     0
 77
     2
 78
   300
147
1.0
148
0.0
149
0.0
100
AcDbLayout
  1
Layout1
 70
     1
 71
     1
 10
0.0
 20
0.0
 11
12.0
 21
9.0
 12
0.0
 22
0.0
 32
0.0
 14
1.000000000000000E+20
 24
1.000000000000000E+20
 34
1.000000000000000E+20
 15
-1.000000000000000E+20
 25
-1.000000000000000E+20
 35
-1.000000000000000E+20
146
0.0
 13
0.0
 23
0.0
 33
0.0
 16
1.0
 26
0.0
 36
0.0
 17
0.0
 27
1.0
 37
0.0
 76
     0
330
1B
  0
LAYOUT
  5
26
102
{ACAD_REACTORS
330
1A
102
}
330
1A
100
AcDbPlotSettings
  1

  2
none_device
  4

  6

 40
0.0
 41
0.0
 42
0.0
 43
0.0
 44
0.0
 45
0.0
 46
0.0
 47
0.0
 48
0.0
 49
0.0
140
0.0
141
0.0
142
1.0
143
1.0
 70
   688
 72
     0
 73
     0
 74
     5
  7

 75
    16
 76
     0
 77
     2
 78
   300
147
1.0
148
0.0
149
0.0
100
AcDbLayout
  1
Layout2
 70
     1
 71
     2
 10
0.0
 20
0.0
 11
0.0
 21
0.0
 12
0.0
 22
0.0
 32
0.0
 14
0.0
 24
0.0
 34
0.0
 15
0.0
 25
0.0
 35
0.0
146
0.0
 13
0.0
 23
0.0
 33
0.0
 16
1.0
 26
0.0
 36
0.0
 17
0.0
 27
1.0
 37
0.0
 76
     0
330
23
  0
LAYOUT
  5
22
102
{ACAD_REACTORS
330
1A
102
}
330
1A
100
AcDbPlotSettings
  1

  2
none_device
  4

  6

 40
0.0
 41
0.0
 42
0.0
 43
0.0
 44
0.0
 45
0.0
 46
0.0
 47
0.0
 48
0.0
 49
0.0
140
0.0
141
0.0
142
1.0
143
1.0
 70
  1712
 72
     0
 73
     0
 74
     0
  7

 75
     0
 76
     0
 77
     2
 78
   300
147
1.0
148
0.0
149
0.0
100
AcDbLayout
  1
Model
 70
     1
 71
     0
 10
0.0
 20
0.0
 11
12.0
 21
9.0
 12
0.0
 22
0.0
 32
0.0
 14
1.000000000000000E+20
 24
1.000000000000000E+20
 34
1.000000000000000E+20
 15
-1.000000000000000E+20
 25
-1.000000000000000E+20
 35
-1.000000000000000E+20
146
0.0
 13
0.0
 23
0.0
 33
0.0
 16
1.0
 26
0.0
 36
0.0
 17
0.0
 27
1.0
 37
0.0
 76
     0
330
1F
331
29
  0
MATERIAL
  5
3D
102
{ACAD_REACTORS
330
3B
102
}
330
3B
100
AcDbMaterial
  1
ByBlock
 72
     1
 94
      127
  0
MATERIAL
  5
3C
102
{ACAD_REACTORS
330
3B
102
}
330
3B
100
AcDbMaterial
  1
ByLayer
 72
     1
 94
      127
  0
MATERIAL
  5
3E
102
{ACAD_REACTORS
330
3B
102
}
330
3B
100
AcDbMaterial
  1
Global
 72
     1
 94
      127
  0
MLINESTYLE
  5
18
102
{ACAD_REACTORS
330
17
102
}
330
17
100
AcDbMlineStyle
  2
Standard
 70
     0
  3

 62
   256
 51
90.0
 52
90.0
 71
     2
 49
0.5
 62
   256
  6
BYLAYER
 49
-0.5
 62
   256
  6
BYLAYER
  0
ACDBPLACEHOLDER
  5
F
102
{ACAD_REACTORS
330
E
102
}
330
E
  0
VISUALSTYLE
  5
2F
102
{ACAD_REACTORS
330
2A
102
}
330
2A
100
AcDbVisualStyle
  2
2dWireframe
 70
     4
177
     2
291
     0
 71
     0
176
     1
 72
     2
176
     1
 73
     0
176
     1
 90
        0
176
     1
 40
-0.6
176
     1
 41
-30.0
176
     1
 62
     5
 63
     7
421
 16777215
176
     1
 74
     1
176
     1
 91
        4
176
     1
 64
     7
176
     1
 65
   257
176
     1
 75
     1
176
     1
175
     1
176
     1
 42
1.0
176
     1
 92
        0
176
     1
 66
   257
176
     1
 43
1.0
176
     1
 76
     1
176
     1
 77
     6
176
     1
 78
     2
176
     1
 67
     7
176
     1
 79
     5
176
     1
170
     0
176
     1
171
     0
176
     1
290
     0
176
     1
 93
        1
176
     1
 44
0.0
176
     1
173
     0
176
     1
  0
VISUALSTYLE
  5
31
102
{ACAD_REACTORS
330
2A
102
}
330
2A
100
AcDbVisualStyle
  2
3D Hidden
 70
     6
177
     2
291
     0
 71
     1
176
     1
 72
     2
176
     1
 73
     2
176
     1
 90
        0
176
     1
 40
-0.6
176
     1
 41
-30.0
176
     1
 62
     5
 63
     7
421
 16777215
176
     1
 74
     2
176
     1
 91
        2
176
     1
 64
     7
176
     1
 65
   257
176
     1
 75
     2
176
     1
175
     1
176
     1
 42
40.0
176
     1
 92
        0
176
     1
 66
   257
176
     1
 43
1.0
176
     1
 76
     1
176
     1
 77
     6
176
     1
 78
     2
176
     1
 67
     7
176
     1
 79
     3
176
     1
170
     0
176
     1
171
     0
176
     1
290
     0
176
     1
 93
        1
176
     1
 44
0.0
176
     1
173
     0
176
     1
  0
VISUALSTYLE
  5
30
102
{ACAD_REACTORS
330
2A
102
}
330
2A
100
AcDbVisualStyle
  2
3dWireframe
 70
     5
177
     2
291
     0
 71
     0
176
     1
 72
     2
176
     1
 73
     0
176
     1
 90
        0
176
     1
 40
-0.6
176
     1
 41
-30.0
176
     1
 62
     5
 63
     7
421
 16777215
176
     1
 74
     1
176
     1
 91
        4
176
     1
 64
     7
176
     1
 65
   257
176
     1
 75
     1
176
     1
175
     1
176
     1
 42
1.0
176
     1
 92
        0
176
     1
 66
   257
176
     1
 43
1.0
176
     1
 76
     1
176
     1
 77
     6
176
     1
 78
     2
176
     1
 67
     7
176
     1
 79
     5
176
     1
170
     0
176
     1
171
     0
176
     1
290
     0
176
     1
 93
        1
176
     1
 44
0.0
176
     1
173
     0
176
     1
  0
VISUALSTYLE
  5
32
102
{ACAD_REACTORS
330
2A
102
}
330
2A
100
AcDbVisualStyle
  2
Basic
 70
     7
177
     2
291
     1
 71
     1
176
     1
 72
     0
176
     1
 73
     1
176
     1
 90
        0
176
     1
 40
-0.6
176
     1
 41
-30.0
176
     1
 62
     5
 63
     7
421
 16777215
176
     1
 74
     0
176
     1
 91
        4
176
     1
 64
     7
176
     1
 65
   257
176
     1
 75
     1
176
     1
175
     1
176
     1
 42
1.0
176
     1
 92
        8
176
     1
 66
     7
176
     1
 43
1.0
176
     1
 76
     1
176
     1
 77
     6
176
     1
 78
     2
176
     1
 67
     7
176
     1
 79
     5
176
     1
170
     0
176
     1
171
     0
176
     1
290
     0
176
     1
 93
        1
176
     1
 44
0.0
176
     1
173
     0
176
     1
  0
VISUALSTYLE
  5
36
102
{ACAD_REACTORS
330
2A
102
}
330
2A
100
AcDbVisualStyle
  2
Brighten
 70
    12
177
     2
291
     1
 71
     2
176
     1
 72
     2
176
     1
 73
     0
176
     1
 90
        0
176
     1
 40
-0.6
176
     1
 41
-30.0
176
     1
 62
     5
 63
     7
421
 16777215
176
     1
 74
     1
176
     1
 91
        4
176
     1
 64
     7
176
     1
 65
   257
176
     1
 75
     1
176
     1
175
     1
176
     1
 42
1.0
176
     1
 92
        8
176
     1
 66
     7
176
     1
 43
1.0
176
     1
 76
     1
176
     1
 77
     6
176
     1
 78
     2
176
     1
 67
     7
176
     1
 79
     5
176
     1
170
     0
176
     1
171
     0
176
     1
290
     0
176
     1
 93
        1
176
     1
 44
50.0
176
     1
173
     0
176
     1
  0
VISUALSTYLE
  5
3A
102
{ACAD_REACTORS
330
2A
102
}
330
2A
100
AcDbVisualStyle
  2
ColorChange
 70
    16
177
     2
291
     1
 71
     2
176
     1
 72
     2
176
     1
 73
     3
176
     1
 90
        0
176
     1
 40
-0.6
176
     1
 41
-30.0
176
     1
 62
     5
 63
     8
421
  8421504
176
     1
 74
     1
176
     1
 91
        4
176
     1
 64
     7
176
     1
 65
   257
176
     1
 75
     1
176
     1
175
     1
176
     1
 42
1.0
176
     1
 92
        8
176
     1
 66
     8
424
  8421504
176
     1
 43
1.0
176
     1
 76
     1
176
     1
 77
     6
176
     1
 78
     2
176
     1
 67
     7
176
     1
 79
     5
176
     1
170
     0
176
     1
171
     0
176
     1
290
     0
176
     1
 93
        1
176
     1
 44
0.0
176
     1
173
     0
176
     1
  0
VISUALSTYLE
  5
34
102
{ACAD_REACTORS
330
2A
102
}
330
2A
100
AcDbVisualStyle
  2
Conceptual
 70
     9
177
     2
291
     0
 71
     3
176
     1
 72
     2
176
     1
 73
     0
176
     1
 90
        0
176
     1
 40
-0.6
176
     1
 41
-30.0
176
     1
 62
     5
 63
     7
421
 16777215
176
     1
 74
     2
176
     1
 91
        2
176
     1
 64
     7
176
     1
 65
   257
176
     1
 75
     1
176
     1
175
     1
176
     1
 42
40.0
176
     1
 92
        8
176
     1
 66
     7
176
     1
 43
1.0
176
     1
 76
     1
176
     1
 77
     6
176
     1
 78
     2
176
     1
 67
     7
176
     1
 79
     3
176
     1
170
     0
176
     1
171
     0
176
     1
290
     0
176
     1
 93
        1
176
     1
 44
0.0
176
     1
173
     0
176
     1
  0
VISUALSTYLE
  5
35
102
{ACAD_REACTORS
330
2A
102
}
330
2A
100
AcDbVisualStyle
  2
Dim
 70
    11
177
     2
291
     1
 71
     2
176
     1
 72
     2
176
     1
 73
     0
176
     1
 90
        0
176
     1
 40
-0.6
176
     1
 41
-30.0
176
     1
 62
     5
 63
     7
421
 16777215
176
     1
 74
     1
176
     1
 91
        4
176
     1
 64
     7
176
     1
 65
   257
176
     1
 75
     1
176
     1
175
     1
176
     1
 42
1.0
176
     1
 92
        8
176
     1
 66
     7
176
     1
 43
1.0
176
     1
 76
     1
176
     1
 77
     6
176
     1
 78
     2
176
     1
 67
     7
176
     1
 79
     5
176
     1
170
     0
176
     1
171
     0
176
     1
290
     0
176
     1
 93
        1
176
     1
 44
-50.0
176
     1
173
     0
176
     1
  0
VISUALSTYLE
  5
39
102
{ACAD_REACTORS
330
2A
102
}
330
2A
100
AcDbVisualStyle
  2
Facepattern
 70
    15
177
     2
291
     1
 71
     2
176
     1
 72
     2
176
     1
 73
     0
176
     1
 90
        0
176
     1
 40
-0.6
176
     1
 41
-30.0
176
     1
 62
     5
 63
     7
421
 16777215
176
     1
 74
     1
176
     1
 91
        4
176
     1
 64
     7
176
     1
 65
   257
176
     1
 75
     1
176
     1
175
     1
176
     1
 42
1.0
176
     1
 92
        8
176
     1
 66
     7
176
     1
 43
1.0
176
     1
 76
     1
176
     1
 77
     6
176
     1
 78
     2
176
     1
 67
     7
176
     1
 79
     5
176
     1
170
     0
176
     1
171
     0
176
     1
290
     0
176
     1
 93
        1
176
     1
 44
0.0
176
     1
173
     0
176
     1
  0
VISUALSTYLE
  5
2B
102
{ACAD_REACTORS
330
2A
102
}
330
2A
100
AcDbVisualStyle
  2
Flat
 70
     0
177
     2
291
     1
 71
     2
176
     1
 72
     1
176
     1
 73
     1
176
     1
 90
        2
176
     1
 40
-0.6
176
     1
 41
30.0
176
     1
 62
     5
 63
     7
421
 16777215
176
     1
 74
     0
176
     1
 91
        4
176
     1
 64
     7
176
     1
 65
   257
176
     1
 75
     1
176
     1
175
     1
176
     1
 42
1.0
176
     1
 92
        8
176
     1
 66
     7
176
     1
 43
1.0
176
     1
 76
     1
176
     1
 77
     6
176
     1
 78
     2
176
     1
 67
     7
176
     1
 79
     5
176
     1
170
     0
176
     1
171
     0
176
     1
290
     0
176
     1
 93
       13
176
     1
 44
0.0
176
     1
173
     0
176
     1
  0
VISUALSTYLE
  5
2C
102
{ACAD_REACTORS
330
2A
102
}
330
2A
100
AcDbVisualStyle
  2
FlatWithEdges
 70
     1
177
     2
291
     1
 71
     2
176
     1
 72
     1
176
     1
 73
     1
176
     1
 90
        2
176
     1
 40
-0.6
176
     1
 41
30.0
176
     1
 62
     5
 63
     7
421
 16777215
176
     1
 74
     1
176
     1
 91
        4
176
     1
 64
     7
176
     1
 65
   257
176
     1
 75
     1
176
     1
175
     1
176
     1
 42
1.0
176
     1
 92
        0
176
     1
 66
   257
176
     1
 43
1.0
176
     1
 76
     1
176
     1
 77
     6
176
     1
 78
     2
176
     1
 67
     7
176
     1
 79
     5
176
     1
170
     0
176
     1
171
     0
176
     1
290
     0
176
     1
 93
       13
176
     1
 44
0.0
176
     1
173
     0
176
     1
  0
VISUALSTYLE
  5
2D
102
{ACAD_REACTORS
330
2A
102
}
330
2A
100
AcDbVisualStyle
  2
Gouraud
 70
     2
177
     2
291
     1
 71
     2
176
     1
 72
     2
176
     1
 73
     1
176
     1
 90
        2
176
     1
 40
-0.6
176
     1
 41
30.0
176
     1
 62
     5
 63
     7
421
 16777215
176
     1
 74
     0
176
     1
 91
        4
176
     1
 64
     7
176
     1
 65
   257
176
     1
 75
     1
176
     1
175
     1
176
     1
 42
1.0
176
     1
 92
        0
176
     1
 66
     7
176
     1
 43
1.0
176
     1
 76
     1
176
     1
 77
     6
176
     1
 78
     2
176
     1
 67
     7
176
     1
 79
     5
176
     1
170
     0
176
     1
171
     0
176
     1
290
     0
176
     1
 93
       13
176
     1
 44
0.0
176
     1
173
     0
176
     1
  0
VISUALSTYLE
  5
2E
102
{ACAD_REACTORS
330
2A
102
}
330
2A
100
AcDbVisualStyle
  2
GouraudWithEdges
 70
     3
177
     2
291
     1
 71
     2
176
     1
 72
     2
176
     1
 73
     1
176
     1
 90
        2
176
     1
 40
-0.6
176
     1
 41
30.0
176
     1
 62
     5
 63
     7
421
 16777215
176
     1
 74
     1
176
     1
 91
        4
176
     1
 64
     7
176
     1
 65
   257
176
     1
 75
     1
176
     1
175
     1
176
     1
 42
1.0
176
     1
 92
        0
176
     1
 66
   257
176
     1
 43
1.0
176
     1
 76
     1
176
     1
 77
     6
176
     1
 78
     2
176
     1
 67
     7
176
     1
 79
     5
176
     1
170
     0
176
     1
171
     0
176
     1
290
     0
176
     1
 93
       13
176
     1
 44
0.0
176
     1
173
     0
176
     1
  0
VISUALSTYLE
  5
38
102
{ACAD_REACTORS
330
2A
102
}
330
2A
100
AcDbVisualStyle
  2
Linepattern
 70
    14
177
     2
291
     1
 71
     2
176
     1
 72
     2
176
     1
 73
     0
176
     1
 90
        0
176
     1
 40
-0.6
176
     1
 41
-30.0
176
     1
 62
     5
 63
     7
421
 16777215
176
     1
 74
     1
176
     1
 91
        4
176
     1
 64
     7
176
     1
 65
   257
176
     1
 75
     7
176
     1
175
     7
176
     1
 42
1.0
176
     1
 92
        8
176
     1
 66
     7
176
     1
 43
1.0
176
     1
 76
     1
176
     1
 77
     6
176
     1
 78
     2
176
     1
 67
     7
176
     1
 79
     5
176
     1
170
     0
176
     1
171
     0
176
     1
290
     0
176
     1
 93
        1
176
     1
 44
0.0
176
     1
173
     0
176
     1
  0
VISUALSTYLE
  5
33
102
{ACAD_REACTORS
330
2A
102
}
330
2A
100
AcDbVisualStyle
  2
Realistic
 70
     8
177
     2
291
     0
 71
     2
176
     1
 72
     2
176
     1
 73
     0
176
     1
 90
        0
176
     1
 40
-0.6
176
     1
 41
-30.0
176
     1
 62
     5
 63
     7
421
 16777215
176
     1
 74
     1
176
     1
 91
        0
176
     1
 64
     7
176
     1
 65
   257
176
     1
 75
     1
176
     1
175
     1
176
     1
 42
1.0
176
     1
 92
        8
176
     1
 66
     8
424
  7895160
176
     1
 43
1.0
176
     1
 76
     1
176
     1
 77
     6
176
     1
 78
     2
176
     1
 67
     7
176
     1
 79
     5
176
     1
170
     0
176
     1
171
     0
176
     1
290
     0
176
     1
 93
       13
176
     1
 44
0.0
176
     1
173
     0
176
     1
  0
VISUALSTYLE
  5
37
102
{ACAD_REACTORS
330
2A
102
}
330
2A
100
AcDbVisualStyle
  2
Thicken
 70
    13
177
     2
291
     1
 71
     2
176
     1
 72
     2
176
     1
 73
     0
176
     1
 90
        0
176
     1
 40
-0.6
176
     1
 41
-30.0
176
     1
 62
     5
 63
     7
421
 16777215
176
     1
 74
     1
176
     1
 91
        4
176
     1
 64
     7
176
     1
 65
   257
176
     1
 75
     1
176
     1
175
     1
176
     1
 42
1.0
176
     1
 92
       12
176
     1
 66
     7
176
     1
 43
1.0
176
     1
 76
     1
176
     1
 77
     6
176
     1
 78
     2
176
     1
 67
     7
176
     1
 79
     5
176
     1
170
     0
176
     1
171
     0
176
     1
290
     0
176
     1
 93
        1
176
     1
 44
0.0
176
     1
173
     0
176
     1
  0
ENDSEC
  0
EOF
