<?xml version="1.0" encoding="utf-8"?>
<!-- Generator: Adobe Illustrator 22.0.0, SVG Export Plug-In . SVG Version: 6.00 Build 0)  -->
<svg version="1.1" id="Layer_1" xmlns="http://www.w3.org/2000/svg" xmlns:xlink="http://www.w3.org/1999/xlink" x="0px" y="0px"
	 viewBox="0 0 1080 1080" style="enable-background:new 0 0 1080 1080;" xml:space="preserve">
<g>
	<path d="M206.9,721.3c-1-1.1-2-2.1-3.1-2.9c-1.1-0.8-2.2-1.7-3.3-2.7l-0.4-0.4l-0.8-0.6l-0.4-0.4l0.4-0.4c1.4,0,2.6-0.2,3.8-0.5
		c1.2-0.3,1.9-1.3,2.2-3c0.1-1.1-0.2-2-1-2.8c-0.8-0.7-1.8-1.2-2.9-1.3c-1.4,0-2.4,0.1-3.1,0.2c-1.4,0.4-2.7,0.9-4,1.3
		c-1.3,0.5-2.7,1-4.2,1.5c-2.5-1.2-5.1-2.3-7.8-3.2c-2.7-0.9-5.5-1.7-8.2-2.6c-2.3-0.7-4.6-1.2-7-1.5c-2.3-0.3-4.6-0.5-7-0.5
		c-6.7,0-13.2,1.3-19.5,3.8c-6.3,2.5-12.2,5.9-17.6,10.3c-5.5,4.3-10.3,9.2-14.5,14.7c-4.2,5.5-7.5,11.2-9.9,17.2
		c-1.5,3.7-2.6,7.4-3.3,11.2c-0.7,3.8-0.7,7.6,0,11.6c0.8,5.2,3,9.8,6.7,13.8c3.6,4,8,6.6,13.2,7.7c0.8,0.3,1.7,0.4,2.6,0.4
		s1.7-0.2,2.6-0.6c2.2-1.1,3.1-2.7,2.7-4.9c-0.4-1.9-1.8-2.9-4.3-2.9c-4.1,0-7.5-1.6-10.3-4.8c-2.7-3.2-4.4-6.7-4.9-10.6
		c-0.4-3.1-0.3-6.2,0.2-9c0.5-2.9,1.4-5.7,2.5-8.4c3.6-8.7,8.4-16.2,14.6-22.3c6.2-6.2,13.5-11.2,22.1-15.2c6.4-3,13.4-4.1,20.9-3.3
		c3,0.3,5.9,0.8,8.8,1.5c2.9,0.8,5.7,1.7,8.4,2.8c0.1,0,0.2,0,0.2,0.1c0,0.1,0.1,0.1,0.2,0.1l0.6,0.4c0.1,0,0.2,0,0.2,0.1
		c0,0.1,0.1,0.1,0.2,0.1c-0.1,0.1-0.2,0.3-0.2,0.4c-4.1,3.7-8,8.1-11.7,13.3c-3.7,5.2-7.1,10.6-10.4,16.3
		c-3.2,5.7-6.2,11.4-8.9,17.1c-2.7,5.7-5.1,11.1-7.2,16.2c-2.9,7-5.9,13.5-9,19.7c-3.1,6.1-6.7,12.4-10.7,18.7l-0.4,0.4l-0.6,0.8
		l-0.4,0.4c-0.7-0.3-1.3-0.6-1.7-0.9c-0.5-0.3-1-0.6-1.5-0.9c-5.2-2.7-10.2-5-15-6.9c-4.8-1.8-10.2-2.8-16.2-2.8
		c-2.6,0-5.3,0.2-8,0.6c-4.4,0.8-7.9,2.9-10.5,6.3c-2.6,3.4-3.7,7.2-3.3,11.6c0.5,7.7,4.6,13.1,12.1,16.2c5.2,2.1,10.6,2.9,16.2,2.5
		c7.1-0.7,13.5-2.9,19.3-6.8c1.9-1.2,3.7-2.5,5.3-3.8c1.6-1.3,3.4-2.7,5.3-4.2c0.3,0.1,0.8,0.5,1.6,1c0.4,0.3,0.8,0.5,1.1,0.7
		c0.3,0.2,0.7,0.4,1.1,0.7l4.5,2.9c0.4,0.3,0.8,0.5,1.1,0.7c0.3,0.2,0.7,0.4,1.1,0.7c5.2,2.9,10.5,5.1,15.8,6.6
		c5.3,1.5,11,1.8,17,0.8c9.7-1.5,17.8-5.7,24.2-12.7c3.1-3.6,5.3-7.3,6.4-11.4c1.1-4,1.3-8.3,0.6-12.8c-1.5-9.2-6.2-16.1-14.1-20.7
		c-0.5-0.3-1.1-0.6-1.6-0.9c-0.5-0.3-1.2-0.7-1.8-1.1c0.3-0.1,0.5-0.3,0.7-0.4c0.2-0.1,0.4-0.3,0.7-0.4c3.8-1.6,7.6-3.8,11.2-6.5
		c3.6-2.7,6.9-5.7,9.7-9c2.9-3.3,5.3-7,7.3-11.1c2-4,3.2-8.2,3.6-12.4c0.5-4.5,0.1-8.7-1.4-12.5C212.4,727.9,210,724.4,206.9,721.3z
		 M108.5,831.8c-3.1,1.9-6.6,3.2-10.5,3.9c-4.5,0.8-9,0.6-13.5-0.6c-0.7-0.3-1.3-0.5-1.9-0.7c-0.6-0.2-1.3-0.4-1.9-0.7
		c-2.7-1.5-4.4-3.8-5-6.8c-0.6-3-0.2-5.7,1.3-8c1-1.5,2-2.3,3.1-2.5c1.1-0.3,2.1-0.5,3-0.7c0.9-0.2,1.9-0.3,3-0.3
		c7-0.4,13.5,0.8,19.7,3.7c1.6,0.7,3.3,1.4,4.9,2.3c1.6,0.8,3.3,1.6,4.9,2.5c0.3,0.1,0.6,0.3,0.9,0.5c0.3,0.2,0.7,0.4,1.1,0.7
		C114.6,827.6,111.6,829.9,108.5,831.8z M184.5,795.3c2.5,1.9,4.2,4.1,5.3,6.7c1.1,2.5,1.8,5.4,2.1,8.5c0.4,6.8-2.1,12.6-7.6,17.4
		c-2.6,2.3-5.4,4-8.3,5.1c-2.9,1.1-6,1.9-9.3,2.5c-3.3,0.5-6.5,0.5-9.5,0c-3.1-0.5-6.2-1.4-9.3-2.5c-3.1-1.1-6.1-2.6-9-4.4
		s-5.7-3.7-8.6-5.6c4.4-6.2,8.2-12.6,11.6-19.3c3.3-6.7,6.5-13.6,9.5-20.7c0.5,1.5,1.3,2.5,2.4,3.1c1,0.5,2.2,0.8,3.4,0.8
		c5.7,0,10.6,0.5,14.6,1.5C175.6,789.5,179.9,791.7,184.5,795.3z M206.3,747.5c-1.1,3.8-2.7,7.4-4.9,10.8c-2.2,3.3-4.8,6.4-7.7,9
		c-2.9,2.7-6.2,4.9-9.7,6.8c-3.6,1.8-7.3,3.1-11.3,3.8c-1.6,0.3-3.3,0.4-5,0.5c-1.7,0.1-3.4,0.1-5,0.1l-3.9-0.2h-1.8
		c-0.7,0-1.3,0.1-1.8,0.2c-0.5,0.1-1.2,0.3-1.8,0.4c0.1-0.3,0.2-0.5,0.1-0.6c-0.1-0.1,0-0.3,0.1-0.4c2-4.5,4.2-9.2,6.6-14.1
		c2.3-4.9,4.8-9.7,7.5-14.5c2.7-4.7,5.5-9.3,8.6-13.6c3.1-4.4,6.3-8.4,9.7-12.1c0.7-0.8,1.5-1.6,2.4-2.4c0.9-0.7,1.7-1.5,2.6-2.4
		c2.6,1.8,5.1,3.6,7.5,5.4c2.4,1.8,4.4,4.1,6,6.9C207.2,736.2,207.9,741.6,206.3,747.5z"/>
	<path d="M362.9,745.3c1.2,0.8,2.4,1.2,3.5,1.2c1.5,0,2.8-0.5,4-1.6c1.2-1.1,1.9-2.4,2.2-3.9c0.3-1.5-0.1-2.9-1.2-4.2
		c-1.1-1.3-2.4-1.9-3.9-1.9c-1.2,0-2.4,0.5-3.6,1.4c-1.2,1-2,2.1-2.6,3.3c-0.4,1.1-0.5,2.2-0.2,3.2
		C361.3,743.7,362,744.6,362.9,745.3z"/>
	<path d="M442.5,787.7c-1.5,0-2.7,0.9-3.5,2.7c-1.4,3.1-3,6.6-4.8,10.5c-1.8,3.8-3.9,7.6-6,11.4c-2.2,3.8-4.4,7.2-6.7,10.5
		c-2.3,3.2-4.5,5.8-6.7,7.7c-0.8,0.7-1.7,1.2-2.8,1.6c-1,0.4-2.1,0.4-3.2,0c-1.5-0.5-2.4-1.5-2.8-3c-0.3-1.4-0.4-3-0.2-4.6
		c0.2-1.6,0.6-3.3,1.1-5c0.5-1.7,1-3,1.4-4c1.4-3.3,2.8-6.5,4.2-9.7c1.4-3.2,2.9-6.5,4.4-9.7c1.2-2.7,2.5-5.5,3.8-8.4
		c1.3-2.9,2.5-5.7,3.6-8.4c1.6-3.7,2.3-7.7,2.1-12.1c-0.3-3.4-1.5-6.1-3.6-8.2c-2.1-2.1-4.9-3-8.3-2.9c-4.4,0.3-8.1,1.6-11.3,3.9
		c-1.1,0.8-2.2,1.7-3.3,2.7c-1.1,1-2.2,1.9-3.3,2.9c-0.5,0.3-1,0.5-1.2,0.8c0-0.3,0-0.4,0.1-0.5c0.1-0.1,0.1-0.2,0.1-0.3l1.4-3.3
		c0.5-1.1,0.7-2.2,0.5-3.2c-0.2-1-0.9-1.8-1.9-2.4c-1-0.5-1.9-0.6-2.9-0.2c-1,0.4-1.8,1.2-2.5,2.3l-0.4,0.8l-0.8,1.8
		c-2.5,5.5-4.4,9.9-5.9,13.2c-1.5,3.4-2.9,6.5-4.2,9.4c-1.3,2.9-2.1,4.8-2.4,5.4c-0.9,2-1.8,4.2-2.7,6.4c-0.6,1.3-1.3,2.8-2.1,4.5
		c-2.1,4.5-4.5,9.1-7.3,13.8c-2.7,4.7-5.6,8.9-8.5,12.4c-2.9,3.6-5.6,5.3-8.1,5.3c-0.8,0-1.6-0.2-2.4-0.5c-0.8-0.3-1.4-0.7-1.9-1.1
		c-1-0.8-1.6-1.9-1.9-3.3c-0.3-1.4-0.4-2.9-0.3-4.5c0.1-1.6,0.4-3.3,0.8-5c0.4-1.7,0.8-3.2,1.2-4.6c1.2-4,2.7-8.1,4.3-12.4
		c1.6-4.3,3.3-8.4,4.9-12.4c1.5-3.3,2.6-5.7,3.2-7.4c0.6-1.6,1.1-2.9,1.3-3.9l0.8-3.3c0.3-1,0.7-2.3,1.4-3.9
		c0.7-1.6,1.7-4.1,3.1-7.4c0.3-0.5,0.4-1.1,0.4-1.6c0.3-1.9-0.5-3.1-2.5-3.7c-1.6-0.5-3-0.1-4.1,1.4c-0.7,1-1.2,1.9-1.6,2.9
		c-1.5,3.3-2.7,5.9-3.6,7.9c-0.9,2-1.6,3.7-2.3,5c-0.6,1.4-1.1,2.6-1.4,3.6c-0.3,1-0.8,2.2-1.3,3.6c-0.5,1.4-1.2,3.1-1.8,5.1
		c-0.4,1.3-1,3-1.8,4.9c-0.9,2-2.3,5-4.3,9c-2.3,4.6-4.8,9.3-7.5,14c-2.7,4.8-5.6,9-8.5,12.6c-2.9,3.6-5.6,5.4-7.9,5.4
		c-1.6-0.3-2.8-1.1-3.5-2.4c-0.7-1.3-1.1-2.8-1.1-4.6c-0.1-1.8,0.1-3.5,0.5-5.2c0.4-1.7,0.8-3.1,1.2-4.2c2.3-6.2,4.8-12.3,7.4-18.5
		c1.1-2.5,2.2-5.1,3.3-7.8l6.8-15.8c0.1-0.3,0.3-0.6,0.4-0.9c0.1-0.3,0.3-0.7,0.4-1.1l1.6-3.7c1.1-2.7,2.1-5.3,2.9-7.6
		c0.4-1.8-0.1-3.1-1.4-4.1c-1.4-1.2-2.8-1.2-4.3,0c-0.3,0.3-0.6,0.6-0.9,0.9c-0.3,0.3-0.7,0.7-0.9,0.9c-0.3,0.3-0.5,0.6-0.6,0.9
		c-0.1,0.3-0.3,0.6-0.6,0.9c-0.7-0.5-1.3-1-1.7-1.4c-0.5-0.4-1-0.9-1.5-1.4c-2.7-2.7-5.9-3.9-9.6-3.5c-5.3,0.4-10.3,2.3-15,5.7
		c-4.6,3.4-8.8,7.5-12.5,12.3c-3.7,4.8-6.9,9.8-9.6,15.2c-1.9,3.7-3.5,7.3-4.7,10.6c-0.4,0.9-0.9,1.9-1.4,2.9
		c-1.6,3.4-3.7,7.2-6,11.4c-2.4,4.2-4.9,8-7.6,11.5c-2.7,3.5-5.3,6.3-8,8.3c-2.7,2.1-5.2,2.8-7.5,2.3c-0.7-0.4-1.3-0.8-1.7-1.2
		c-0.5-0.4-0.8-0.8-0.9-1.2c-0.5-1.6-0.7-3.2-0.4-4.7c0.5-3.1,1.3-5.8,2.4-8.1c1-2.3,2.4-4.7,4-7.3c0.5-0.8,1.1-1.6,1.5-2.5
		c0.5-0.8,1-1.7,1.5-2.7l6.4-9.8c0.5-1,1.1-1.8,1.5-2.7c0.5-0.8,1-1.6,1.5-2.5c1.5-2.5,2.9-5,4.2-7.5c1.3-2.5,2.4-5.2,3.4-7.9
		c0.7-1.9,1.1-3.9,1.3-5.8c0.2-2,0.1-4-0.3-6c-0.5-2.3-1.4-4.3-2.7-5.9c-1.2-1.6-3-2.8-5.3-3.5c-2.7-0.8-5.6-0.9-8.6-0.2
		c-0.8,0.1-1.7,0.4-2.8,0.7c-1,0.3-2,0.7-3,1c-1,0.3-1.8,0.6-2.6,0.9c-0.8,0.3-1.3,0.4-1.5,0.4c0-0.5,0-1-0.1-1.3
		c-0.1-0.3-0.1-0.6-0.1-0.9c-0.1-1-0.2-1.9-0.2-2.9c0-1-0.1-1.9-0.4-2.9c-0.3-1.2-0.7-2.6-1.2-4c-0.5-1.4-1.3-2.8-2.2-4
		c-0.9-1.2-1.9-2.3-3.1-3.1c-1.2-0.8-2.5-1.2-4-1.2c-1.5,0-3,0.5-4.5,1.4c-3,1.9-5,4.7-5.8,8.3c-0.9,3.6-0.4,7,1.5,10.1
		c1.4,2.3,2.9,4,4.5,4.9c1.6,1,3.6,1.9,5.9,2.9c-0.8,3-1.6,5.8-2.5,8.3c-0.8,2.5-1.6,5-2.5,7.4c-0.8,2.4-1.7,4.8-2.8,7.1
		c-1,2.3-2.2,4.9-3.6,7.6c-0.7,1.2-0.9,2.4-0.5,3.5c0.3,1.1,1.2,1.8,2.6,2.3c2.5,0.7,4.2,0,5.3-2.1c1.5-2.9,2.7-5.6,3.7-8.1
		c1-2.5,1.9-5,2.8-7.5c0.9-2.5,1.8-5.1,2.7-7.8c0.9-2.7,1.9-5.8,3.2-9.2h0.2c1.1-0.3,2-0.5,2.7-0.8c0.7-0.3,1.3-0.5,1.9-0.8
		c0.6-0.3,1.3-0.5,1.9-0.8c0.7-0.3,1.6-0.5,2.7-0.6c2.3-0.4,4.7-0.6,7.2-0.6c1.6,0,2.6,0.8,2.9,2.3c0.3,1.6,0.3,3.4,0,5.1
		c-0.3,2.1-0.8,4-1.5,5.9c-0.8,1.9-1.7,3.8-2.8,5.5c-2.1,3.6-4.2,7.1-6.4,10.6c-2.2,3.5-4.4,7-6.6,10.6c-1.2,2.1-2.5,4.1-3.7,6.2
		c-1.2,2.1-2.4,4.1-3.5,6.1c-0.8,1.5-1.5,3-1.9,4.5c-0.5,1.5-0.9,3-1.1,4.5c-0.3,1.9-0.3,3.8-0.2,5.6c0.1,1.8,0.6,3.7,1.4,5.6
		c1.1,2.3,2.6,4,4.6,5.1c2,1.1,4.1,1.6,6.5,1.6c2.2,0,4.3-0.4,6.5-1.2c2.1-0.8,4-1.9,5.6-3.3c2.7-2.3,5.5-5.3,8.3-8.8
		c1.6-2.1,3.2-4.2,4.7-6.5c0.2,2,0.6,3.9,1.1,5.9c0.7,2.4,1.7,4.6,3,6.6c1.3,2,2.9,3.6,4.9,4.8c2,1.2,4.3,1.8,7.1,1.8
		c2.1,0,4-0.4,5.7-1.3c1.8-0.9,3.5-2,5.1-3.4c1.6-1.4,3.1-2.9,4.5-4.5c1.4-1.6,2.6-3.1,3.7-4.5c0.3,1.5,0.6,2.9,0.9,4.2
		c0.3,1.3,1,2.6,1.9,3.8c3.3,4.1,7.5,5.7,12.7,4.7c1.2-0.3,2.4-0.7,3.6-1.2c1.2-0.5,2.2-1.2,3.2-2.1c2.6-2.2,5.2-5.1,7.8-8.6
		c0.4-0.6,0.8-1.1,1.2-1.7c0.3,3.2,1.6,6.2,3.9,8.9c2.9,3.3,6.5,4.9,10.9,4.9c3.4,0,6.6-1.2,9.6-3.5c0.9-0.7,1.8-1.6,2.7-2.5
		c0,1,0.4,2,1.1,2.9c0.9,1.1,1.9,1.6,3,1.6c1.1,0,1.9-0.4,2.6-1.2c0.6-0.8,1.1-1.7,1.5-2.7c2.6-8.1,5.5-16.6,8.8-25.5
		c0.3-0.8,0.6-1.6,0.9-2.3c0.4-0.9,0.9-1.7,1.3-2.6c1.6-3.5,3-6.6,4.1-9.6c1.9-3.9,4.1-7.7,6.4-11.4c0.8-1.4,2.2-3.1,4.1-5.1
		c1.9-2.1,4-4.1,6.3-6c2.3-2,4.5-3.7,6.9-5.2c2.3-1.5,4.4-2.4,6.2-2.7c2.1-0.4,3.4-0.3,4.2,0.4c0.8,0.7,1.1,2.1,0.9,4.3
		c-0.1,1.9-0.4,3.7-0.9,5.4c-0.5,1.7-1.1,3.4-1.7,5c-3,6.7-6.2,13.5-9.6,20.5c-1.5,3.1-2.9,6.3-4.1,9.3c-1.2,3.1-2.3,6.3-3.3,9.5
		c-0.7,2.3-1.2,4.6-1.4,6.8c-0.3,2.2-0.2,4.4,0.2,6.8c0.7,3,2.1,5.2,4.1,6.5c2.1,1.3,4.4,1.9,7,1.9c2.2,0,4.3-0.4,6.4-1.1
		c2.1-0.7,3.8-1.7,5.3-3c2.6-2.2,5.2-5.1,7.8-8.6c2.6-3.6,5.1-7.3,7.5-11.4c2.4-4,4.5-8.1,6.5-12.3c1.9-4.2,3.5-8,4.7-11.4
		c0.5-1.5,0.3-2.8-0.6-3.9C444.8,788.3,443.7,787.7,442.5,787.7z M226.1,754c-1-1-1.8-2.1-2.3-3.1c-0.5-1-0.6-1.9-0.3-2.7
		c0.3-0.7,1-1.2,2.3-1.3c1.1,0,1.9,0.3,2.4,0.9c0.5,0.6,0.8,1.4,1,2.3c0.2,0.9,0.3,1.9,0.4,3c0.1,1.1,0.1,2.1,0.1,3.1
		C228.3,755.7,227.1,755,226.1,754z M301.6,811.1c-1.5,2.6-3,5.2-4.4,7.7c-1.4,2.5-3.1,5-5,7.3c-1.1,1.4-2.6,2.8-4.5,4.4
		c-1.9,1.6-3.8,2.4-5.7,2.4c-2.5,0-4.3-1.2-5.4-3.7c-1.2-2.5-1.8-4.7-1.9-6.8c-0.3-2.5-0.2-4.9,0.1-7.4c0.3-2.5,0.9-4.8,1.5-7.2
		c1-3.7,2.6-8.1,4.9-13.3c2.3-5.2,5.1-10.2,8.4-15c3.3-4.8,7-8.9,11.1-12.4c4.1-3.5,8.4-5.4,12.9-5.6c2.1-0.1,3.4,0.8,4.1,2.7
		c0.1,0.3,0.2,0.6,0.2,1l0.6,2.1v0.2l0.2,0.6c-0.1,3.3-0.8,6.9-2.1,10.8c-1.2,3.9-2.7,7.8-4.4,11.7c-1.7,3.9-3.5,7.6-5.4,11.2
		C304.8,805.2,303.1,808.4,301.6,811.1z"/>
	<path d="M619.2,731.1c-3-4.5-6.7-8.5-11.1-12.1c-0.8-0.5-1.5-1-2.1-1.4c1.5-0.8,3-1.6,4.4-2.3c1.4-0.7,3-1,4.6-1
		c2.1,0,3.3-1,3.7-2.9c0.5-1.9-0.3-3.3-2.5-4.3c-1.4-0.5-2.9-0.6-4.5-0.2c-2.1,0.5-4,1.3-5.9,2.2c-1.9,0.9-3.8,1.9-5.5,3l-0.4,0.2
		l-1,0.6c-0.1,0-0.3,0.1-0.4,0.2c-2.2-0.8-4.3-1.6-6.3-2.5c-2-0.8-4-1.6-6-2.5c-5.1-1.9-9.9-2.8-14.6-2.7c-5.6,0.3-10.9,1.3-16,3.2
		c-5.1,1.8-9.8,4.3-14.2,7.5c-4.4,3.1-8.4,6.8-12,11.1c-3.6,4.2-6.6,8.8-9,13.7c-2.7,5.5-4.2,11-4.5,16.6
		c-0.3,5.6,0.5,11.3,2.5,17.2c0.7,2.2,1.7,4.1,3.2,5.7c1.4,1.6,3,3.2,4.6,4.7c1.9,1.6,3.7,1.6,5.3,0c1.6-1.5,1.7-3.3,0.2-5.5
		c-0.3-0.4-0.6-0.8-1-1.2c-0.4-0.4-0.8-0.7-1-1c-1.1-1-1.9-2-2.5-3.1c-0.5-1.1-1-2.3-1.4-3.7c-1-3-1.5-6-1.5-9c-0.1-3,0.2-6,0.7-9
		c0.4-2.3,1.1-4.5,2.2-6.5c1-2,2.2-3.9,3.4-5.8c4.6-7.7,10.7-14,18.1-19.1c7.4-5.1,15.8-7.6,24.9-7.6c3.1,0,6.1,0.6,8.9,1.7
		c2.8,1.2,5.7,2.3,8.7,3.4c-5.9,5.9-11.2,12-16.1,18.5c-4.9,6.4-9.1,13.3-12.8,20.7c-2.3,4.6-4.6,9.3-6.8,13.9
		c-2.2,4.6-4.4,9.4-6.8,14.1c-1.9,4.1-3.9,8.2-6,12.2c-2.1,4-4.5,7.9-7.1,11.6c-2.6,3.7-5.5,7.1-8.6,10.4c-3.1,3.2-6.8,6-10.9,8.3
		c-0.7,0.4-1.4,0.8-2.2,1c-0.8,0.3-1.6,0.3-2.6,0.2c-1-0.1-1.8-0.2-2.7-0.1c-0.8,0.1-1.7,0.1-2.7,0.1c-2.2,0.3-4.4,0.9-6.8,1.7
		c-2.3,0.9-3.8,2.5-4.5,4.8c-0.5,1.6-0.3,3.1,0.7,4.4c1,1.3,2.4,1.8,4.2,1.5c4.9-0.7,9.5-1.8,13.7-3.3c1.2-0.4,2.4-0.5,3.5-0.4
		c0.3,0,0.5,0,0.8,0.1c0.3,0.1,0.5,0.1,0.8,0.1l3.3,0.6c0.7,0,1.2,0.1,1.6,0.2l13.1,2.1c0.4,0.1,1,0.2,1.6,0.2l3.3,0.6
		c0.3,0,0.5,0,0.8,0.1c0.3,0.1,0.5,0.1,0.8,0.1c1.9,0.3,3.8,0.5,5.7,0.7c1.9,0.2,3.8,0.3,5.7,0.3c7.1,0,14.1-1.2,21.1-3.5
		c7-2.3,13.1-5.9,18.5-10.7c6.7-6.1,12.8-13.1,18.5-20.9c5.6-7.8,9.7-16.1,12.3-25c1.9-6.2,3-12.3,3.2-18.6
		c0.2-6.2-0.5-12.5-2.2-18.8C624.5,740.7,622.2,735.6,619.2,731.1z M619.1,772.2c-1,6.2-2.9,12.3-5.6,18.4
		c-2.2,4.8-4.8,9.3-7.7,13.4c-2.9,4.2-6.2,8.2-9.7,12c-5.6,6.3-11.8,11.1-18.5,14.5c-6.7,3.3-14.4,5-23,5c-1.5,0-3.1-0.1-4.7-0.2
		c-1.6-0.1-3.2-0.3-4.7-0.6c-2.9-0.4-5.7-0.9-8.6-1.3c-2.9-0.5-5.7-1-8.6-1.5c-0.1,0-0.3-0.1-0.6-0.4v-0.2c3.3-2.5,6.4-5.5,9.3-9
		c2.9-3.6,5.7-7.3,8.2-11.3c2.5-4,4.9-8,7-12.2c2.1-4.2,4-8.1,5.6-11.8c2.5-5.3,4.9-10.6,7.4-15.9c2.5-5.3,5.2-10.5,8.2-15.7
		c3.3-5.6,6.8-10.9,10.7-16c3.8-5.1,8.1-9.8,12.9-14.1c0.4-0.4,0.9-0.8,1.3-1.1c0.5-0.3,1-0.8,1.5-1.3c1.1,1,2.2,1.8,3.4,2.6
		c1.2,0.8,2.2,1.6,3.2,2.6c7,7,11.3,15.3,12.9,25C620.1,759.6,620.1,766,619.1,772.2z"/>
	<path d="M987.7,789.3c-1-1.1-2.2-1.6-3.4-1.6c-1.4,0-2.5,0.9-3.3,2.7c-0.7,1.6-1.4,3.4-2.3,5.2c-0.8,1.8-1.7,3.7-2.7,5.6
		c-1.1,2.2-2.3,4.7-3.6,7.5c-1.3,2.8-2.8,5.6-4.4,8.3c-3.3,5.5-6.9,9.4-11,11.9c-4,2.5-7.8,3.7-11.4,3.7c-3.3,0-6.2-1-8.8-2.9
		c-3.7-3.4-6-7.3-7.1-11.8c-1-4.4-1.1-9.1-0.1-13.8c0.1-1,0.5-2.1,1-3.3c1.1,0.3,2.1,0.5,3.1,0.6c1,0.1,2,0.2,3.1,0.2
		c3.3,0,6.6-0.8,10-2.4c3.4-1.6,6.7-3.6,9.7-6c3.1-2.5,5.9-5.1,8.4-8c2.5-2.9,4.6-5.6,6.3-8.2c1.2-2.2,2.2-4.4,3-6.6
		c0.7-2.2,1-4.6,0.7-7.2c-0.7-4.8-3.4-7.7-8.2-8.8c-1.5-0.3-3-0.3-4.4-0.1c-1.4,0.2-2.9,0.6-4.4,1.1c-4.4,1.8-8.5,4.5-12.4,8.2
		c-3.9,3.7-7.3,7.3-10.1,10.9c-5.2,6.5-8.9,12.8-11.3,18.9c-1.8,3.9-3.8,7.7-5.9,11.6c-2.7,4.9-5.7,9.5-9,13.9
		c-3.3,4.4-7.1,8.4-11.2,12c-4.1,3.6-8.7,6.4-13.7,8.6c3.1-6.7,6.4-13.4,9.6-20c3.3-6.6,6.6-13.3,9.8-20c1-1.9,1.9-3.8,2.9-5.6
		c1-1.8,2-3.7,3.1-5.4c0.7-1.1,1.1-2.1,1.3-3.1c0.2-1,0-2-0.7-3.1c0.3-1,0.4-1.8,0.5-2.6c0.1-0.7,0.2-1.5,0.5-2.2
		c0.4-1.6,0.7-3.3,0.8-5c0.1-1.7-0.1-3.4-0.6-5c-0.7-2.3-1.9-4.6-3.8-6.8c-1.8-2.2-4.4-3.4-7.7-3.7c-1.1-0.1-2.2-0.1-3.2,0.1
		c-1,0.2-2.1,0.4-3.2,0.7c-4.1,1.2-8.1,3.5-12,6.7c-3.9,3.2-7.5,6.9-10.8,11c-3.3,4.1-6.2,8.4-8.7,12.8c0,0.1-0.1,0.1-0.1,0.2
		c-0.5,0.4-0.9,1-1.2,1.8c-0.3,0.7-0.7,1.7-1.3,2.8c-1.4,2.6-2.6,5.1-3.7,7.5c-0.1,0.1-0.1,0.3-0.2,0.4c-2.1,4.3-4.5,8.6-7,13.1
		c-2.7,4.8-5.6,9-8.5,12.6c-2.9,3.6-5.6,5.4-7.9,5.4c-1.6-0.3-2.8-1.1-3.5-2.4c-0.7-1.3-1.1-2.8-1.1-4.6c-0.1-1.8,0.1-3.5,0.5-5.2
		c0.4-1.7,0.8-3.1,1.2-4.2c2.3-6.2,4.8-12.3,7.4-18.5c1.1-2.5,2.2-5.1,3.3-7.8l6.8-15.8c0.1-0.3,0.3-0.6,0.4-0.9
		c0.1-0.3,0.3-0.7,0.4-1.1l1.6-3.7c1.1-2.7,2.1-5.3,2.9-7.6c0.4-1.8-0.1-3.1-1.4-4.1c-1.4-1.2-2.8-1.2-4.3,0
		c-0.3,0.3-0.6,0.6-0.9,0.9c-0.3,0.3-0.7,0.7-0.9,0.9c-0.3,0.3-0.5,0.6-0.6,0.9c-0.1,0.3-0.3,0.6-0.6,0.9c-0.7-0.5-1.3-1-1.7-1.4
		c-0.5-0.4-1-0.9-1.5-1.4c-2.7-2.7-5.9-3.9-9.6-3.5c-5.3,0.4-10.3,2.3-15,5.7c-4.6,3.4-8.8,7.5-12.5,12.3c-3.7,4.8-6.9,9.8-9.6,15.2
		c-1.8,3.5-3.2,6.7-4.4,9.8c-1.2,2.6-2.6,5.4-4.2,8.4c-1.6,3.1-3.4,6.4-5.3,9.6c-1.9,3.3-3.9,6.3-5.8,8.9c-2,2.7-4,4.9-5.9,6.6
		c-2,1.7-3.9,2.6-5.6,2.6c-1.6,0-2.9-0.7-3.7-2.1c-0.8-1.4-0.8-3.6,0.2-6.8c1.1-3.1,2.3-6.2,3.6-9.1c1.3-2.9,2.7-5.9,4.2-8.9
		l6.6-13.7c1.4-2.7,2.7-5.5,3.9-8.2c1.2-2.7,2.2-5.7,2.9-8.8c1.4-5.1,1-9.8-1.2-14.1c-1.9-3.8-4.9-5.7-8.8-5.7
		c-4.6,0-8.3,0.9-11.1,2.6c-2.7,1.7-5.7,4.3-8.8,7.9c-0.1-0.5-0.3-1.2-0.6-2.1c-0.7-2.9-2.1-5-4.3-6.5c-2.2-1.4-4.7-1.9-7.6-1.3
		c-2.1,0.3-3.9,0.8-5.6,1.6c-1.7,0.8-3.5,1.8-5.2,2.9c-0.3-1.1-0.6-2-1-2.7c-0.4-0.7-1.2-1.1-2.5-1.2c-1.5-0.1-2.7,0.5-3.7,2.1
		l-1.2,2.5c-0.3,0.8-0.6,1.6-1,2.4c-0.4,0.8-0.8,1.5-1,2.4l-4.1,9.4c-0.3,0.8-0.6,1.6-1,2.4c-0.4,0.8-0.8,1.5-1,2.4
		c-1.4,3.2-2.7,6.4-4,9.6c-0.2,0.3-0.3,0.6-0.5,0.9c-0.8,1.9-2.4,5.2-4.6,9.7c-2.3,4.6-4.8,9.3-7.5,14c-2.7,4.8-5.6,9-8.5,12.6
		c-2.9,3.6-5.6,5.4-7.9,5.4c-1.6-0.3-2.8-1.1-3.5-2.4c-0.7-1.3-1.1-2.8-1.1-4.6c-0.1-1.8,0.1-3.5,0.5-5.2c0.4-1.7,0.8-3.1,1.2-4.2
		c2.3-6.2,4.8-12.3,7.4-18.5c1.1-2.5,2.2-5.1,3.3-7.8l6.8-15.8c0.1-0.3,0.3-0.6,0.4-0.9c0.1-0.3,0.3-0.7,0.4-1.1l1.6-3.7
		c1.1-2.7,2.1-5.3,2.9-7.6c0.4-1.8-0.1-3.1-1.4-4.1c-1.4-1.2-2.8-1.2-4.3,0c-0.3,0.3-0.6,0.6-0.9,0.9c-0.3,0.3-0.7,0.7-0.9,0.9
		c-0.3,0.3-0.5,0.6-0.6,0.9c-0.1,0.3-0.3,0.6-0.6,0.9c-0.7-0.5-1.3-1-1.7-1.4c-0.5-0.4-1-0.9-1.5-1.4c-2.7-2.7-5.9-3.9-9.6-3.5
		c-5.3,0.4-10.3,2.3-15,5.7c-4.6,3.4-8.8,7.5-12.5,12.3c-3.7,4.8-6.9,9.8-9.6,15.2c-2.7,5.3-4.8,10.3-6.2,14.8
		c-1.1,3.1-1.9,6.3-2.5,9.5c-0.5,3.2-0.7,6.5-0.6,9.7c0.1,2.3,0.5,4.7,1.2,7.1c0.7,2.4,1.7,4.6,3,6.6c1.3,2,2.9,3.6,4.9,4.8
		c2,1.2,4.3,1.8,7.1,1.8c2.1,0,4-0.4,5.7-1.3c1.8-0.9,3.5-2,5.1-3.4c1.6-1.4,3.1-2.9,4.5-4.5c1.4-1.6,2.6-3.1,3.7-4.5
		c0.3,1.5,0.6,2.9,0.9,4.2c0.3,1.3,1,2.6,1.9,3.8c3.3,4.1,7.5,5.7,12.7,4.7c1.2-0.3,2.4-0.7,3.6-1.2c1.2-0.5,2.2-1.2,3.2-2.1
		c1.4-1.2,2.8-2.5,4.2-4.1c-0.1,0.3-0.2,0.7-0.3,1c-0.4,1.8-0.3,3.1,0.4,3.9c0.7,0.8,1.6,1.2,2.7,1.2c1.5,0,2.6-0.5,3.3-1.4
		c0.7-1,1.2-2.1,1.4-3.3c2.5-7.1,5-14.2,7.6-21.2c2.6-7,5.3-14,8.2-21c1-2.3,2.3-5,3.9-7.9c1.6-2.9,3.5-5.8,5.6-8.5
		c2.1-2.7,4.4-5.2,6.9-7.3c2.5-2.1,5.1-3.5,7.8-4c2.1-0.5,3.1,0.2,3.3,2.3c0.3,1.9,0.2,3.7-0.2,5.3c-0.7,3.1-1.6,6.2-2.7,9.2
		c-1.1,3-2.3,6-3.5,9c-1.8,4.1-3.6,8.2-5.3,12.3c-1.8,4.1-3.5,8.3-5.1,12.5c-1.1,2.7-2.1,5.5-3,8.3c-0.9,2.8-1.8,5.6-2.8,8.3
		c-0.4,1.4-0.5,2.7-0.4,3.9c0.3,1.5,1.2,2.5,2.7,2.9c1.5,0.4,2.7,0,3.7-1.2c0.4-0.5,0.7-1,1-1.4c0.3-0.4,0.5-1,0.8-1.6
		c1.6-4.4,3.2-8.7,4.8-13c1.6-4.3,3.2-8.6,5-13c1.2-3,2.7-6.4,4.3-10c1.6-3.7,3.4-7.3,5.3-11c1.9-3.6,4-7.1,6.2-10.5
		c2.2-3.3,4.4-6.2,6.8-8.5c2.9-2.9,6.2-4.3,9.8-4.3c1,0,1.6,0.1,1.9,0.2c0.3,0.1,0.6,0.7,0.9,1.6c0.5,2.2,0.6,4.6,0.2,7.2
		c-0.5,3.1-1.5,6.1-2.8,9c-1.3,2.9-2.7,5.7-4.2,8.4l-6.2,13.3c-1.5,2.6-3.1,5.8-4.9,9.7c-1.8,3.9-2.9,7.3-3.5,10.1
		c-0.4,2.6-0.5,5.1-0.2,7.5c0.3,2.4,1,4.4,2.3,6c1.2,1.6,3,2.8,5.2,3.4c2.3,0.6,5.1,0.6,8.5-0.1c1.2-0.3,2.4-0.7,3.6-1.2
		c1.2-0.5,2.2-1.2,3.2-2.1c2.6-2.2,5.2-5.1,7.8-8.6c1.3-1.8,2.6-3.6,3.9-5.6c0.2,1.7,0.6,3.5,1.1,5.3c0.7,2.4,1.7,4.6,3,6.6
		c1.3,2,2.9,3.6,4.9,4.8c2,1.2,4.3,1.8,7.1,1.8c2.1,0,4-0.4,5.7-1.3c1.8-0.9,3.5-2,5.1-3.4c1.6-1.4,3.1-2.9,4.5-4.5
		c1.4-1.6,2.6-3.1,3.7-4.5c0.3,1.5,0.6,2.9,0.9,4.2c0.3,1.3,1,2.6,1.9,3.8c3.3,4.1,7.5,5.7,12.7,4.7c1.2-0.3,2.4-0.7,3.6-1.2
		c1.2-0.5,2.2-1.2,3.2-2.1c2.6-2.2,5.2-5.1,7.8-8.6c0.7-0.9,1.4-1.9,2-2.9c0.1,1.2,0.3,2.4,0.5,3.6c0.3,1.7,0.9,3.3,1.7,4.8
		c1.5,2.9,3.7,4.9,6.6,6c2.9,1.2,5.5,1.4,7.8,0.7c1.1-0.3,2.2-0.6,3.2-1.1c1-0.5,2.1-0.9,3.2-1.3l1.2-0.6c-0.3,1.1-0.7,1.9-1.2,2.5
		c-0.5,0.5-1.3,1-2.3,1.2c-3,1.1-6,1.9-8.9,2.5c-2.9,0.5-6,1-9.1,1.4c-8.6,1.4-16.3,3.8-23.1,7.3c-6.8,3.5-12.2,9.4-16.3,17.7
		c-2.6,5.5-3.4,10.9-2.5,16.4c1,5.2,3.1,9.6,6.6,13.2c3.4,3.6,8,5.4,13.7,5.4c4.9,0,9.5-1.8,13.7-5.3c7.5-7,13.7-14.7,18.7-23.2
		c4.9-8.5,9.6-17.3,13.9-26.4c5.7-1.8,11.4-4.7,17-8.7c5.6-4,10.8-8.6,15.6-13.8c3.3-3.6,6.4-7.5,9.2-11.5c0.2,1.8,0.6,3.5,1,5.1
		c1.8,6,5,10.8,9.5,14.4c4.6,3.6,9.6,5.3,15.1,5.3c4.8,0,9.6-1.4,14.5-4.3c4.9-2.9,9.3-7.6,13.2-14.1c2.7-4.5,5.3-9.3,7.7-14.3
		c2.4-5,4.5-10,6.3-15.1C989,791.7,988.8,790.4,987.7,789.3z M664.3,811.1c-1.5,2.6-3,5.2-4.4,7.7c-1.4,2.5-3.1,5-5,7.3
		c-1.1,1.4-2.6,2.8-4.5,4.4c-1.9,1.6-3.8,2.4-5.7,2.4c-2.5,0-4.3-1.2-5.4-3.7c-1.2-2.5-1.8-4.7-1.9-6.8c-0.3-2.5-0.2-4.9,0.1-7.4
		c0.3-2.5,0.9-4.8,1.5-7.2c1-3.7,2.6-8.1,4.9-13.3c2.3-5.2,5.1-10.2,8.4-15c3.3-4.8,7-8.9,11.1-12.4c4.1-3.5,8.4-5.4,12.9-5.6
		c2.1-0.1,3.4,0.8,4.1,2.7c0.1,0.3,0.2,0.6,0.2,1l0.6,2.1v0.2l0.2,0.6c-0.1,3.3-0.8,6.9-2.1,10.8c-1.2,3.9-2.7,7.8-4.4,11.7
		c-1.7,3.9-3.5,7.6-5.4,11.2C667.5,805.2,665.8,808.4,664.3,811.1z M819.9,811.1c-1.5,2.6-3,5.2-4.4,7.7c-1.4,2.5-3.1,5-5,7.3
		c-1.1,1.4-2.6,2.8-4.5,4.4c-1.9,1.6-3.8,2.4-5.7,2.4c-2.5,0-4.3-1.2-5.4-3.7c-1.2-2.5-1.8-4.7-1.9-6.8c-0.3-2.5-0.2-4.9,0.1-7.4
		c0.3-2.5,0.9-4.8,1.5-7.2c1-3.7,2.6-8.1,4.9-13.3c2.3-5.2,5.1-10.2,8.4-15c3.3-4.8,7-8.9,11.1-12.4c4.1-3.5,8.4-5.4,12.9-5.6
		c2.1-0.1,3.4,0.8,4.1,2.7c0.1,0.3,0.2,0.6,0.2,1l0.6,2.1v0.2l0.2,0.6c-0.1,3.3-0.8,6.9-2.1,10.8c-1.2,3.9-2.7,7.8-4.4,11.7
		c-1.7,3.9-3.5,7.6-5.4,11.2C823.1,805.2,821.4,808.4,819.9,811.1z M857.9,874c-4.6,7.5-10.2,14.1-16.6,19.7c-2.3,2.1-5,3.1-8,3.1
		c-2.7,0-5.2-0.8-7.5-2.4c-2.3-1.6-3.7-3.9-4.4-6.9c-1.1-4.4-0.8-8.5,0.8-12.5c2.7-6.4,6.7-11.3,11.9-14.6
		c5.2-3.3,11.1-5.5,17.6-6.6c0.7-0.1,1.4-0.2,2.2-0.3c0.8-0.1,1.5-0.2,2.2-0.5l8.6-1.2c0.7-0.3,1.4-0.4,2.2-0.5
		c0.7-0.1,1.5-0.2,2.2-0.3h0.6C866.4,858.9,862.5,866.5,857.9,874z M876.3,825.6c-1.1,1.5-2.4,2.9-3.9,4.1c-1.5,1.2-3.2,2.1-5.1,2.7
		c-2.6,0.5-4.5-0.4-5.7-2.9c-0.7-1.4-1.1-2.7-1.1-4c-0.1-1.3-0.2-2.4-0.3-3.4c0-5.1,0.8-9.9,2.2-14.5c0.5-1,1-2,1.5-3.1
		c1.3-2.9,2.5-5.6,3.5-8.1c0.5-0.9,1-1.8,1.6-2.8c2.3-3.9,4.8-7.7,7.6-11.3c2.8-3.6,5.8-6.9,9.1-9.8c3.3-2.9,6.6-5.1,10-6.5h0.6
		c0-0.1,0.1-0.2,0.2-0.2c4.4-1.5,7,0.2,7.8,5.1c0.3,2.2,0.2,4.3-0.3,6.5c-0.5,2.1-1.1,4.2-1.9,6.3c-3.1,7.5-7,14.7-11.6,21.6
		C885.8,812.4,881.1,819.1,876.3,825.6z M938.3,784.8c2.3-3.4,4.9-6.7,7.8-9.8c2.9-3.1,6-5.9,9.2-8.3c3.2-2.4,6.3-3.7,9.3-4
		c1.2-0.1,1.9,0.5,2,1.8c0,3-1.1,6.3-3.3,9.7c-2.2,3.5-4.9,6.7-8.1,9.5c-3.2,2.9-6.6,5.3-10.1,7.2c-3.6,1.9-6.7,2.9-9.4,2.9
		c-0.4,0-0.8,0-1.1-0.1c-0.3-0.1-0.8-0.1-1.3-0.1C934.4,791.2,936.1,788.3,938.3,784.8z"/>
</g>
<g>
	<g>
		<path d="M197,361.9c5.2,0.4,8.5,2.2,10.1,5.2c0,0.2,0.1,0.4,0.1,0.6c0.7,15.4-1.8,28.6-7.7,39.8c-5.9,11.3-13.8,20.4-24,27.7
			c-4.7,3.4-9.7,6.3-14.8,8.7c-11.9,5.5-24,7.4-36.6,5.4c-12.6-2-23.6-7.5-32.8-17.1c-5-5.2-8.9-11.1-11.8-17.9
			c-2.8-6.8-4.4-13.7-4.8-20.7c-0.4-7,0.1-14.2,1.5-21.8c1.4-7.6,3.4-14.7,6.2-21.4c2.8-6.7,6.1-13.1,9.9-19.3
			c3.3-5.3,7.2-10.3,11.7-15.1c4.5-4.8,9.6-9,15.1-12.5c5.5-3.5,10.7-5.4,15.5-5.9c9.6-1.1,16.4,3.5,20.6,13.5
			c0,0.1,0.1,0.1,0.1,0.2c1.4,4.1,0.7,7.4-2.2,10.2c-1,1.1-2.2,1.9-3.6,2.5c-1.4,0.6-2.8,1-4.2,1.1c-1.4,0.2-2.7,0.1-3.9-0.1
			c-1.2-0.2-2.6-0.2-4.1,0c-1.6,0.2-3.2,0.7-4.8,1.3c-1.6,0.7-2.9,1.4-4,2.1c-1.9,1.6-4.1,3.9-6.6,6.7c-2.4,2.8-4.9,6.2-7.4,10.2
			c-2.5,3.9-4.6,8.4-6.3,13.3c-1.7,4.9-2.9,9.9-3.7,14.9c-0.7,5-0.5,10.3,0.7,15.8c1.2,5.5,3.4,10.6,6.6,15.4
			c3.5,5.5,8.6,9.6,15,12.5c6.5,2.9,12.5,3.3,18.3,1.3c11.9-4.1,20.9-10.4,27.3-19.5c6.9-9.6,9.6-19.7,8-30.7c0-0.4-0.1-0.7-0.1-1.1
			c0.3-0.3,0.6-0.6,0.9-0.8C185.1,362.9,190.5,361.4,197,361.9z"/>
	</g>
	<g>
		<path d="M305.7,304.3c8.8,21.9,15.4,39.2,20,51.8c0.6,1.5,0,2.7-1.7,3.7c-0.3,0.1-0.6,0.2-0.8,0.3c-1.9,0.7-4.7,1.3-8.3,1.6
			c-3.6,0.4-7.1,0.5-10.6,0.3c-3.5-0.2-5.7-0.8-6.6-1.9c-0.1-0.2-0.3-0.3-0.4-0.5c-3.2-7.6-7.8-17.4-14-29.2c-3-5.8-5.3-10.5-7-14
			c-3.4,1.5-9.5,4.1-18,8.1c-10,4.7-16.9,8.3-20.8,10.4c2.3,4.2,5.7,10.9,10.3,20.1c5.9,11.9,10.4,20.5,13.4,25.8
			c0.2,0.5,0.5,1,0.7,1.5c-0.5,0.3-1,0.7-1.5,1c-1.2,0.9-3.4,1.9-6.5,3c-3.1,1.1-6.3,2-9.7,2.8c-3.4,0.8-5.9,1.2-7.7,1.1
			c-0.3,0-0.7,0.1-1,0.1c-0.2-0.3-0.3-0.6-0.5-0.9c-7.2-11.4-19.2-31.6-36.3-60.5c-13.5-23.2-23.5-39.9-29.8-50.2
			c-0.8-1.4,0.1-3.1,2.6-4.9c3.2-2.2,8-4.4,14.4-6.4c6.4-2,10.5-2.2,12.3-0.6c9.2,14.6,18.6,30.5,28.2,47.7
			c4.2-2.2,10.8-5.5,20.1-9.5c9.4-4.2,16.1-7,20-8.9c-2.4-4.9-6-11.8-10.8-20.8c-5.1-9.3-8.9-16.3-11.3-21c-0.4-1.3,0.2-2.6,1.6-3.8
			c2.6-2.1,8.3-4,16.9-5.4c8.7-1.4,14.6-1.5,17.9-0.4c1.7,0.5,2.6,1.4,2.7,2.7C288.6,261.5,296,280.5,305.7,304.3z"/>
	</g>
	<g>
		<path d="M401.5,202c5.5,7.2,13.5,18.4,23.3,33.5c9.9,15.2,18.8,30.3,26.8,45.1c8,14.8,12.5,24.5,14.1,28.8c0.5,1.4,0,3.1-1.4,4.9
			c-1.2,1.5-3,3.1-5.3,4.7c-2.4,1.6-5,3.1-7.8,4.4c-2.8,1.3-5.2,2.1-7.2,2.4c-0.4,0.1-0.9,0.1-1.3,0.2c-1.5,0.1-2.8-0.2-4.1-1
			c-1.2-0.8-2.1-1.8-2.7-3.1c-3.4-8.6-7.9-18.4-13.5-29.4c-0.5-1-1.2-1.4-2.1-1.1c-8.1,1.8-19.8,4.6-35.1,9.2
			c-8.1,2.4-13.7,4.2-16.8,5.2c-0.8,0.2-1.3,0.7-1.5,1.5c-0.4,2.2-0.9,5.1-1.7,8.7c-1.8,9.4-3,16.9-3.6,22.6
			c-0.3,3.1-4.8,4.5-13.6,4.6c-5.2,0-9.7-0.6-13.5-1.8c-3.8-1.2-5.8-3.1-5.7-5.7c1.9-14.1,5.5-35.9,13-65.3
			c8.6-32.9,16.5-57.2,21.1-73c0.8-2.3,2.4-3.8,5.1-4.5c7.1-2.2,12.9-3.6,17.1-4.4c2.7-0.4,4.8,0.2,6.5,1.8
			C395.5,194.5,398.8,198.3,401.5,202z M405.8,262.9c0.1-0.2,0.2-0.4,0.1-0.6c-5-8.4-11.8-18.4-20.7-30c-1.5,5.2-3.6,12.2-6.2,21
			c-2.3,8.3-4,14.8-5.3,19.3c0,0.1,0,0.1,0,0.2c2.8-0.8,7.7-2.4,14.8-4.6c7.5-2.3,13.1-3.8,16.7-4.8
			C405.5,263.2,405.6,263,405.8,262.9z"/>
	</g>
	<g>
		<path d="M582.5,180.5c-0.7,15.8-2.3,41.9-4.9,78.1c-1.6,25.3-2.7,43.6-3.3,55c-0.1,1.9-1.1,3.2-3.1,3.9c-1.3,0.5-3,0.7-5.1,0.6
			c-2.6-0.1-5.6-0.7-9-1.8c-3.4-1.1-5.2-2.4-5.5-4.1c-3-7.1-7.2-14.7-12.6-22.8c-5.5-8.1-10.4-14.6-14.7-19.6
			c-4.2-5-10.3-11.8-18.6-20.3c-4.6-4.6-8.4-8.3-11.3-11.1c1.1,11.9,2.4,29.5,3.8,52.7c0.5,9.9,1,17.7,1.3,23.3
			c0,0.4,0.1,0.8,0.1,1.2c-0.4,0.3-0.7,0.6-1,0.9c-2.1,1.5-9.2-0.1-21.6-4.3c-0.4-0.1-0.8-0.2-1.2-0.3c0-0.4-0.1-0.8-0.1-1.2
			c-2.3-21.8-8-62.9-18.2-123c-0.6-2.4,0.1-4.4,2.3-6c2.5-1.6,5.7-2.6,9.3-2.9c3.7-0.3,7.3,0,10.8,0.8c4.4,1,6.9,2.5,7.6,4.5
			c14,15.7,35.6,38.3,61.1,69.4c0.9,1,1.8,2.1,2.6,3.1c-0.5-24.9-1.2-48.9-2.2-72c0-0.2,0-0.4,0-0.6c0.1-0.1,0.2-0.3,0.3-0.4
			c1.4-2.4,5.4-4.3,12-5.6c6.6-1.3,11.9-1.6,15.8-1c3,0.4,4.8,1.4,5.2,2.9C582.5,180.3,582.5,180.4,582.5,180.5z"/>
	</g>
	<g>
		<path d="M705.8,273.9c1.7,0.6,2.6,1.5,2.7,2.8c0.1,1.3-0.2,3.2-0.8,5.7c-0.7,1.9-1.1,3.4-1.4,4.5c-4.9,20.3-9.1,36.6-12.5,49.1
			c-1.1,1.8-5,2.9-11.8,3.3c-6.8,0.5-11.5,0.5-14.2-0.1c-0.1,0-0.1,0-0.2,0c-1.5-0.5-2.3-1.2-2.2-2.3c0.1-1.1,0.3-2.7,0.8-4.8
			c-19.7,2.5-36.1-1-50.9-11.2c-7.6-5.1-13.8-11.4-18.7-19c-4.9-7.6-7.8-15.7-8.7-24.3c-1.4-12.3,0.6-24.5,6.5-36.4
			c5.9-11.9,14.7-22.1,26.8-30.1c12.1-8,25.8-12.7,40.7-13.7c8-0.6,15.3-0.3,21.8,0.8c6.5,1.2,11.9,2.9,16,5.3
			c4.2,2.3,7.4,4.6,9.7,6.7c2.3,2.1,4.2,4.4,5.6,6.8c0.9,2.4,0.9,5.3,0,8.5c-0.9,3.2-2.2,5.6-4,7.1c-1.7,1.3-3.5,1.7-5.3,1.3
			c-2.8-0.8-5.3-2.4-7.4-5c-2.8-3.4-7.5-5.7-13.9-6.8c-14-3.2-27.4-1.4-39.4,5.3c-12,6.6-20.9,17-26.6,30.6
			c-4.8,18.3,0.4,31.5,14.5,40.1c7.6,4.2,15.1,6.8,22.7,7.7c7.6,0.9,13.3,0.5,17.3-1.5c0.9-2.3,1.8-6.6,2.6-12.9
			c-0.3-0.1-0.8-0.2-1.6-0.3c-0.8-0.2-1.5-0.3-2.3-0.5c-0.8-0.2-1.5-0.3-2.1-0.4c-2.2-0.3-4.4-2.7-6.8-7.3c-1.6-2.8-2.9-5.9-3.9-9.4
			c-1-3.5-1-5.9,0-7.2c0.8-1,1.9-1.3,3.1-1.1c3.7,0.4,13.2,2,28.5,5.4c7.5,1.6,12.4,2.8,15,3.5C705.7,273.9,705.8,273.9,705.8,273.9
			z"/>
	</g>
	<g>
		<path d="M774.1,222c-4.3,14.6-12.2,38.6-23.6,72.1c-8.1,23-13.7,39.9-17.1,50.5c-0.1,0.3-0.2,0.5-0.2,0.8
			c-0.2,0.1-0.4,0.3-0.6,0.4c-1.4,0.5-3.8,0.3-7.2-0.8c-5.7-1.7-10.3-3.8-13.9-6.4c-2-1.6-2.9-3-2.5-4.3
			c5.9-21.6,15.2-60.8,26.7-117.9c0.1-0.2,0.1-0.4,0.2-0.6c0.1-0.1,0.2-0.2,0.4-0.3c2.5-1.9,7.8-2.4,15.8-1.4c8,1,14.2,2.4,18.3,4.1
			C772.8,219.3,774.1,220.6,774.1,222z"/>
	</g>
	<g>
		<path d="M903.9,270.2c-7.3,14.1-19.9,36.9-37.6,68.6c-12.2,22.2-21,38.3-26.4,48.4c-0.9,1.7-2.4,2.4-4.5,2.2
			c-1.5-0.2-3.1-0.7-5-1.7c-2.4-1.2-4.9-3.1-7.6-5.6c-2.7-2.5-3.8-4.5-3.3-6.1c0.2-7.7-0.4-16.5-2-26.2c-1.6-9.7-3.4-17.8-5.3-24.1
			c-1.8-6.3-4.6-15.2-8.6-26.4c-2.3-6.2-4.2-11.2-5.7-14.9c-4,11.2-10.3,27.7-18.9,49.4c-3.7,9.2-6.6,16.4-8.7,21.7
			c-0.1,0.4-0.3,0.8-0.4,1.1c-0.4,0.1-0.9,0.2-1.3,0.4c-2.6,0.5-8.4-4-18-13.1c-0.3-0.3-0.6-0.5-0.9-0.8c0.1-0.4,0.3-0.8,0.4-1.2
			c7.1-20.8,19.3-60.4,35.4-119.2c0.4-2.4,2-3.9,4.7-4.4c3-0.4,6.3,0,9.8,1.4c3.5,1.3,6.7,3.1,9.6,5.3c3.6,2.8,5.3,5.3,5.1,7.4
			c6.2,20.2,16.6,50,27,89.3c0.4,1.3,0.8,2.6,1.1,3.9c10.1-22.8,19.6-44.9,28.5-66.2c0.1-0.2,0.2-0.4,0.3-0.5
			c0.1-0.1,0.3-0.2,0.4-0.2c2.4-1.6,6.9-1.5,13.5,0.2c6.6,1.7,11.7,3.8,15.1,6c2.7,1.7,3.9,3.4,3.6,4.9
			C904,270,903.9,270.1,903.9,270.2z"/>
	</g>
	<g>
		<path d="M979.9,410.7c1.4,1.3,1.8,2.6,1.4,3.8c-0.4,1.2-1.5,2.8-3.1,4.8c-1.4,1.5-2.5,2.6-3.2,3.4c-13.2,16.2-24,29.1-32.5,38.8
			c-1.8,1.2-6,0.3-12.5-2.5c-6.6-2.7-11-4.9-13.3-6.7c-0.1,0-0.1-0.1-0.2-0.1c-1.3-1.1-1.6-2.2-1.1-3.1c0.5-1,1.4-2.3,2.7-4
			c-19.6-6.8-33.5-17.4-43-33.3c-4.9-8-8-16.5-9.4-25.6c-1.3-9.1-0.7-17.7,2.2-25.9c4-11.8,11-21.9,21.5-30.1
			c10.5-8.2,23.1-13.5,37.8-15.4c14.7-1.9,29.5,0,43.9,5.9c7.8,3.1,14.5,6.7,20.1,10.7c5.6,4,9.9,8.1,12.8,12.2
			c2.9,4,5,7.6,6.3,10.6c1.3,3,2.1,6,2.4,8.8c-0.2,2.6-1.4,5.2-3.6,7.7c-2.2,2.5-4.4,4-6.7,4.6c-2.2,0.3-4-0.1-5.6-1.3
			c-2.3-2-3.9-4.7-4.8-7.9c-1.2-4.4-4.6-8.6-10.2-12.6c-11.9-9.3-25.1-13.7-39.2-13.2c-14.1,0.6-26.7,6-37.9,15.8
			c-12.2,14.5-12.9,28.7-3.4,42.9c5.3,7.3,11.3,13,18,17.3c6.7,4.3,12.3,6.6,16.9,6.6c1.9-1.7,4.5-5.2,8-10.5
			c-0.3-0.2-0.7-0.5-1.4-1c-0.7-0.5-1.3-1-2-1.5c-0.7-0.5-1.3-0.9-1.8-1.3c-1.9-1.3-3-4.5-3.3-9.7c-0.3-3.2-0.2-6.7,0.3-10.3
			c0.5-3.6,1.5-5.8,3.1-6.5c1.2-0.5,2.3-0.4,3.4,0.4c3.3,2.1,11.6,7.8,24.5,18c6.3,4.9,10.5,8.4,12.6,10.1
			C979.7,410.6,979.8,410.7,979.9,410.7z"/>
	</g>
</g>
<g>
	<path d="M499.4,367c-7.6,0-15.3,0-23,0v78.8h-20.3V367c-8.5,0-16.9,0-25.4,0c-5.2,0-5.2-8.1,0-8.1c22.9,0,45.7,0,68.6,0
		C504.6,358.9,504.6,367,499.4,367z M471.9,384.9c0-3.5-2.7-6.3-6-6.3c-3.3,0-6,2.8-6,6.3s2.7,6.3,6,6.3
		C469.2,391.3,471.9,388.4,471.9,384.9z M471.9,404.2c0-3.5-2.7-6.3-6-6.3c-3.3,0-6,2.8-6,6.3c0,3.5,2.7,6.3,6,6.3
		C469.2,410.5,471.9,407.6,471.9,404.2z M471.9,423.4c0-3.5-2.7-6.3-6-6.3c-3.3,0-6,2.8-6,6.3c0,3.5,2.7,6.3,6,6.3
		C469.2,429.7,471.9,426.9,471.9,423.4z"/>
	<path d="M570.1,360v85.1h-20.3v-39.7c-8.1-0.1-16.2,0-24.3,0.1v39.6h-20.3V360h20.3v37.3c8.1-0.1,16.2-0.1,24.3-0.1V360H570.1z
		 M521.8,386.6c0-3.5-2.7-6.3-6-6.3c-3.3,0-6,2.8-6,6.3c0,3.5,2.7,6.3,6,6.3C519.1,392.9,521.8,390.1,521.8,386.6z M521.8,405.8
		c0-3.5-2.7-6.3-6-6.3c-3.3,0-6,2.8-6,6.3s2.7,6.3,6,6.3C519.1,412.1,521.8,409.3,521.8,405.8z M521.8,425c0-3.5-2.7-6.3-6-6.3
		c-3.3,0-6,2.8-6,6.3c0,3.5,2.7,6.3,6,6.3C519.1,431.3,521.8,428.5,521.8,425z"/>
	<path d="M614.4,445.9c-5.5-0.1-11.1-0.1-16.6,0v0H597c-2.8,0-5.7,0.1-8.5,0.1c-0.5,0-0.9,0-1.3-0.1h-9.7v-86.7h18.6
		c5.8-0.1,11.6-0.1,17.4,0c5.2,0.1,5.2,8.2,0,8.1c-5.3-0.1-10.5-0.1-15.8-0.1v25.1c5.3,0,10.5,0,15.8,0.1c5.2,0.1,5.2,8.2,0,8.1
		c-5.3-0.1-10.5-0.1-15.8-0.1v37.3c5.5-0.1,11.1,0,16.6,0C619.7,437.9,619.7,446,614.4,445.9z M594.1,382.5c0-3.5-2.7-6.3-6-6.3
		c-3.3,0-6,2.8-6,6.3s2.7,6.3,6,6.3C591.4,388.8,594.1,386,594.1,382.5z M594.1,401.7c0-3.5-2.7-6.3-6-6.3c-3.3,0-6,2.8-6,6.3
		c0,3.5,2.7,6.3,6,6.3C591.4,408,594.1,405.2,594.1,401.7z M594.1,420.9c0-3.5-2.7-6.3-6-6.3c-3.3,0-6,2.8-6,6.3
		c0,3.5,2.7,6.3,6,6.3C591.4,427.2,594.1,424.4,594.1,420.9z"/>
</g>
<g>
	<path d="M132.7,604.5c-4.3,0-8.3-0.6-11.8-1.9c-3-0.9-4.6-2.4-4.6-4.4c0-9.5,4.2-41.2,12.5-95.1l-15.6-0.2
		c-4.1-0.2-6.5-1.7-7.3-4.4c-0.8-2.7-1.1-4.9-1.1-6.7c0-2,0.3-4,1.1-6.1c1.3-3.7,3.5-5.7,6.7-6l26,0.2c11.7,0,23.3-0.1,34.9-0.4
		c3,0.2,5.1,1.8,6.1,4.7c1.1,2.9,1.6,5.4,1.6,7.5c0,7-2.9,10.7-8.6,11.1l-16.3,0.2c-2,16.7-4.6,35.5-7.7,56.4
		c-3.5,23.9-5.3,37.7-5.4,41.4C142.7,603.2,139.2,604.5,132.7,604.5z"/>
	<path d="M204.8,604.8c-13.8-0.6-22.5-5.8-26.1-15.7c-3.6-9.9-5.4-20.2-5.4-31c0-4.9,0.3-10.2,0.9-15.8c1.6-17.7,5.8-32.5,12.5-44.4
		c6.7-11.9,16.9-17.9,30.7-17.9h0.3c13.8,0.8,22.5,6.1,26.2,15.8c3.6,9.7,5.4,19.8,5.4,30.2c0,5.2-0.4,10.6-1.1,16.3
		C244.5,583.8,230,604.6,204.8,604.8z M207.1,580.2c6.8-0.5,11.5-13.5,14-39c0.7-6.4,1.1-12.3,1.1-17.7c0-3.2-0.2-7.3-0.7-12.6
		c-0.5-5.2-2.6-8.2-6.3-8.9c-3.7,0-6.8,3.8-9.1,11.5c-2.3,7.7-4,16.6-5.1,26.9c-0.7,6.6-1.1,12.5-1.1,17.9c0,3.3,0.3,7.5,0.8,12.8
		C201.2,576.6,203.4,579.5,207.1,580.2z"/>
	<path d="M268.9,603.9c-4.4,0-8.4-0.6-11.9-1.8c-3.2-1.1-4.7-2.5-4.7-4.4c0-5,2-22.8,6-53.4c2.7-20.2,5.4-40.4,8.3-60.4
		c0.8-2.5,5-3.7,12.5-3.7c7.4,0,11.9,1,13.7,3c0.5,0.7,0.7,2.4,0.7,5.1c0,10.8-3,37.3-9.1,79.5c-2.1,15.3-3.5,25.7-4,31.1
		C279.6,602.3,275.8,603.9,268.9,603.9z"/>
	<path d="M334.7,604.3h-8.6c-20.6,0-30.9-2.2-30.9-6.5c0-5,2-22.8,6-53.4c2.7-20.2,5.4-40.4,8.3-60.4c0.8-2.5,5-3.7,12.5-3.7
		c7.4,0,11.9,1,13.7,3c0.5,0.7,0.7,2.4,0.7,5.1c0,10.8-3,37.3-9.1,79.5c-0.7,4.7-1.3,9-1.8,13l31.4-0.7c3,0.2,5.1,1.8,6.1,4.7
		c1.1,2.9,1.6,5.3,1.6,7.3c0,7.1-2.9,10.9-8.6,11.2l-5.8,0.2C344.6,603.9,339.4,604.2,334.7,604.3z"/>
	<path d="M401.1,603.6c-15.6,0-26.2-1.1-32-3.2c-1.5-0.9-2.3-4.3-2.3-10c0-8.9,1.5-22.5,4.6-40.9c3.6-21.4,7.5-42,11.8-61.6l0.7-3
		c0.8-3.3,8.8-5,23.9-5.3h9.5c13.6,0,22.6,0.5,27.2,1.6c1.8,0.6,2.6,3.9,2.6,9.8c0,3.5-0.4,6.5-1.3,8.9c-0.9,2.4-2.1,3.8-3.8,4.1
		c-2.9,0.4-6,0.5-9.1,0.5c-5,0-11.2-0.4-18.4-1.2l-2.6-0.2c-1.1,0-3.6,10.7-7.7,32.1l20.7-0.2c3,0.4,5.1,1.9,6.1,4.7
		c1.1,2.8,1.6,5.2,1.6,7.2c0,7.1-2.9,10.9-8.6,11.2h-23.9c-0.9,6-1.4,10.8-1.4,14.4c0,1.4,0.2,2.3,0.5,2.6c0.8,0.5,2.4,0.7,4.7,0.7
		c4.1,0,10.4-0.6,19-1.8c6.8-0.8,10.8-1.2,12.1-1.2c2.2,0.6,3.3,3.7,3.3,9.5c0,4.9-0.9,9.7-2.8,14.4c-1.9,3-6.6,4.9-14.1,5.6
		C413.8,603.2,407.1,603.6,401.1,603.6z"/>
	<path d="M480.3,604.5c-4.3,0-8.3-0.6-11.8-1.9c-3-0.9-4.6-2.4-4.6-4.4c0-9.5,4.2-41.2,12.5-95.1l-15.6-0.2
		c-4.1-0.2-6.5-1.7-7.3-4.4c-0.8-2.7-1.1-4.9-1.1-6.7c0-2,0.3-4,1.1-6.1c1.3-3.7,3.5-5.7,6.7-6l26,0.2c11.7,0,23.3-0.1,34.9-0.4
		c3,0.2,5.1,1.8,6.1,4.7c1.1,2.9,1.6,5.4,1.6,7.5c0,7-2.9,10.7-8.6,11.1l-16.3,0.2c-2,16.7-4.6,35.5-7.7,56.4
		c-3.5,23.9-5.3,37.7-5.4,41.4C490.3,603.2,486.8,604.5,480.3,604.5z"/>
	<path d="M580.5,604.5c-4.2,0-8.1-0.6-11.8-1.9c-3-0.9-4.6-2.4-4.6-4.4c0-5.3,2.2-23.1,6.5-53.5c1.9-13.6,3.7-26.1,5.4-37.7
		c1.8-11.5,2.9-19.3,3.5-23.4c0.7-1.8,3.6-3,8.7-3.6c5.1-0.6,9-1,11.7-1c18.5,0,32.2,5,41.1,15.1c5.7,6.6,8.6,15,8.6,25.5
		c0,17.1-6,30.7-18.1,40.9c-9.6,8.1-20,12.1-31.1,12.1c-2,0-4-0.1-6-0.4c-2.1,13.8-3.3,23.3-3.7,28.4
		C590.5,603.2,587.1,604.5,580.5,604.5z M601.4,550c4.9,0,9.2-2,12.8-6c6.9-7.3,10.4-15.9,10.4-25.8c0-4.8-1.2-8.5-3.5-11.2
		c-3.3-3.6-7.8-5.4-13.5-5.4l-3.3,0.2c-1.6,13.8-3.8,29.8-6.5,47.9C599,549.9,600.2,550,601.4,550z"/>
	<path d="M660.7,600.1c-0.6,1.4-2.3,2.5-5.1,3.2c-2.6,0.7-5.3,1.1-8.3,1.1c-0.4,0-1.5,0-3.5,0c-2,0-4.2-0.4-6.8-1.3
		c-2.5-0.9-3.8-2.2-3.8-4c5.5-24.2,13.2-47,23.1-68.4c9.9-21.4,17.6-36.4,23.3-45.2c2.6-3.6,6.7-5.6,12.3-5.8h1.6
		c5,0,10,1.1,14.9,3.3c4.9,2.2,7.8,5.3,8.6,9.3c0.6,4,0.9,9,0.9,14.9c0,4.6-0.3,11.6-0.8,21c-0.5,9.4-1.5,20.9-2.8,34.4
		c-1.3,13.5-2.5,24.3-3.4,32.2c-0.2,2.2-0.4,4-0.5,5.3c-0.5,1.5-2.1,2.6-4.9,3.3c-2.5,0.6-5.2,0.9-8.3,0.9c-0.6,0-1.9,0-4,0
		c-2.1,0-4.6-0.4-7.4-1.2c-2.8-0.8-4.3-2-4.6-3.7c-0.1-0.9-0.2-2-0.2-3.3c0-2.7,0.2-6,0.5-9.8h-16L660.7,600.1z M673.2,564.8h10.7
		c1.2-8.4,2.3-16.6,3.5-24.6c1.2-8,2.2-14.6,3-20l1.4-7.9L673.2,564.8z"/>
	<path d="M738.2,604.5c-4.2,0-8.1-0.6-11.8-1.9c-3-0.9-4.6-2.4-4.6-4.4c0-5.3,2.2-23.1,6.5-53.5c1.9-13.6,3.7-26.1,5.4-37.7
		c1.8-11.5,2.9-19.3,3.5-23.4c0.7-1.8,3.6-3,8.7-3.6c5.1-0.6,9-1,11.7-1c18.5,0,32.2,5,41.1,15.1c5.7,6.6,8.6,15,8.6,25.5
		c0,17.1-6,30.7-18.1,40.9c-9.6,8.1-20,12.1-31.1,12.1c-2,0-4-0.1-6-0.4c-2.1,13.8-3.3,23.3-3.7,28.4
		C748.2,603.2,744.7,604.5,738.2,604.5z M759.1,550c4.9,0,9.2-2,12.8-6c6.9-7.3,10.4-15.9,10.4-25.8c0-4.8-1.2-8.5-3.5-11.2
		c-3.3-3.6-7.8-5.4-13.5-5.4l-3.3,0.2c-1.6,13.8-3.8,29.8-6.5,47.9C756.7,549.9,757.9,550,759.1,550z"/>
	<path d="M840.7,603.6c-15.6,0-26.2-1.1-32-3.2c-1.5-0.9-2.3-4.3-2.3-10c0-8.9,1.5-22.5,4.6-40.9c3.6-21.4,7.5-42,11.8-61.6l0.7-3
		c0.8-3.3,8.8-5,23.9-5.3h9.5c13.6,0,22.6,0.5,27.2,1.6c1.8,0.6,2.6,3.9,2.6,9.8c0,3.5-0.4,6.5-1.3,8.9c-0.9,2.4-2.1,3.8-3.8,4.1
		c-2.9,0.4-6,0.5-9.1,0.5c-5,0-11.2-0.4-18.4-1.2l-2.6-0.2c-1.1,0-3.6,10.7-7.7,32.1l20.7-0.2c3,0.4,5.1,1.9,6.1,4.7
		c1.1,2.8,1.6,5.2,1.6,7.2c0,7.1-2.9,10.9-8.6,11.2h-23.9c-0.9,6-1.4,10.8-1.4,14.4c0,1.4,0.2,2.3,0.5,2.6c0.8,0.5,2.4,0.7,4.7,0.7
		c4.1,0,10.4-0.6,19-1.8c6.8-0.8,10.8-1.2,12.1-1.2c2.2,0.6,3.3,3.7,3.3,9.5c0,4.9-0.9,9.7-2.8,14.4c-1.9,3-6.6,4.9-14.1,5.6
		S846.7,603.6,840.7,603.6z"/>
	<path d="M898.8,604.5c-4.3,0-8.2-0.6-11.5-1.7c-3.3-1.1-5-2.4-5-3.9c0-6.8,4-37.5,12.1-92l3.3-23.3c0.7-1.8,3.6-3,8.7-3.6
		c5.1-0.6,9-1,11.8-1c18.5,0,32.1,5.1,40.9,15.3c5.9,6.6,8.8,15.1,8.8,25.6c0,2.7-0.2,5.6-0.5,8.6c-3,16.9-11.9,29.6-26.5,38.3
		c13.8,11.9,20.7,20.1,20.7,24.4l-0.2,1.1c-1.3,3.7-3.4,6.6-6.2,8.7c-2.9,2.1-5.5,3.1-7.8,3.1c-5.7,0-17.3-10.6-34.8-31.8
		c-2.1,13.9-3.3,23.4-3.7,28.4C908.7,603.2,905.3,604.5,898.8,604.5z M919.5,550c4.9,0,9.2-2,12.8-6c7-7.4,10.5-16,10.5-25.8
		c0-4.8-1.2-8.5-3.7-11.2c-3.2-3.6-7.6-5.4-13.3-5.4l-3.5,0.2c-1.5,13.8-3.6,29.8-6.3,47.9C917.2,549.9,918.3,550,919.5,550z"/>
</g>
<g>
	<path d="M272.4,612.1c-1.1,0-2,0.2-2.7,0.6c-1.3,0.7-2,1.9-2,3.2v57.3c-3.6-7.2-7.2-14.7-10.6-22.1c-1.2-2.6-4-4.3-7.5-4.5
		c0,0-4.4-0.3-6.1,2.3c-0.7,1.1-0.8,2.4-0.3,3.6c-3,6.5-6.2,12.9-9.3,19.3c0-3.5-0.1-6.9-0.2-10.4c-0.2-14.3-0.4-29.1-0.4-43.7
		c0-1.9-1.1-3.6-3.1-4.8c-2.5-1.5-6.7-2.2-9.2-0.7c-1.3,0.7-2.1,2-2.1,3.5c-0.1,14.6,0.1,29.4,0.4,43.8c0.2,12,0.4,24.4,0.4,36.6
		c0,1.9,1.1,3.6,3.2,4.8c1.6,0.9,3.7,1.5,5.7,1.5c1.3,0,2.5-0.2,3.4-0.8c1.2-0.7,2-1.9,2-3.3c0.4-0.4,0.7-0.8,0.9-1.3
		c3.1-6.6,6.3-13.3,9.5-19.7c1.8-3.6,3.5-7.1,5.2-10.7c1.5,3.2,3.1,6.3,4.7,9.5c3.2,6.5,6.5,13.1,9.6,19.7c1.2,2.6,4,4.2,7.5,4.5
		c0.5,0,1.1,0,1.8-0.1c1.3,0.2,3.5,0.4,5.1-0.8c0.9-0.7,1.4-1.7,1.4-2.8v-79.1C279.8,614.2,275.9,612.1,272.4,612.1z"/>
	<path d="M304.1,619.2c0.6-1.2,0.6-2.6-0.1-3.8c-1.8-3-6.1-3-6.9-3c-2.4,0.1-4.8,0.1-7.3-0.1c-1-0.1-3.3,0-4.7,1.5
		c-0.8,0.9-1.1,2-0.9,3.2c0.4,2.2,2.3,3.4,4.2,3.9v71.5c-1.1,0.1-2.4,0.5-3.3,1.5c-0.8,0.9-1.1,2-0.9,3.2c0.5,3.2,4.4,4.2,6.3,4.4
		c1.4,0.1,2.7,0.1,4.1,0.2c0.4,0,0.7,0.1,1.1,0.1c0.3,0,0.6,0,0.9-0.1c1.2,0,2.4,0,3.6-0.1c1.8-0.1,3.3-0.9,4.1-2.3
		c0.6-1.2,0.6-2.6-0.1-3.8c-0.9-1.4-2.3-2.2-3.6-2.6v-71.5C302,621.3,303.5,620.5,304.1,619.2z"/>
	<path d="M340.3,691.9h-17.1V619c0-4.3-5.3-6.3-8.9-6.3c-1.3,0-2.4,0.2-3.3,0.7c-1.4,0.7-2.2,2-2.2,3.6v79.1l0,0.1c0,0.4,0,0.7,0,1
		c0.6,3.6,5.3,5,7.3,5.1c0.5,0.1,1.1,0.1,1.6,0.1c0.4,0,0.8,0,1.2-0.1h22.8c1.7,0,4.1-0.2,5.6-1.9c0.8-0.9,1.1-2.1,0.9-3.4
		C347.6,693.4,342.8,691.9,340.3,691.9z"/>
	<path d="M380.6,691.9h-17.1V619c0-4.3-5.3-6.3-8.9-6.3c-1.3,0-2.4,0.2-3.3,0.7c-1.4,0.7-2.2,2-2.2,3.6v79.1l0,0.1c0,0.4,0,0.7,0,1
		c0.6,3.6,5.3,5,7.3,5.1c0.5,0.1,1.1,0.1,1.6,0.1c0.4,0,0.8,0,1.2-0.1H382c1.7,0,4.1-0.2,5.6-1.9c0.8-0.9,1.1-2.1,0.9-3.4
		C387.9,693.4,383.1,691.9,380.6,691.9z"/>
	<path d="M464.8,620.5c-5.6-5.7-13.6-6.7-19.3-6.6c-3.7,0.1-7.6,0.7-11.6,1.7c-2-2.2-5.8-3.1-8.4-2.9c-3.4,0.3-4.6,2.5-4.6,4.2v79.1
		c0,4.3,5.3,6.3,8.9,6.3c1.3,0,2.4-0.2,3.3-0.7c1.4-0.7,2.2-2,2.2-3.6v-74.3c5.1-1.6,9.6-2.3,13.5-2.2c6.6,0.3,10.8,4.1,12,10.8
		c0.6,3.8,0.7,7.9,0.7,11.8l0,2c0.1,6.1,0.2,12.2,0.2,18.3c0.1,10.6,0.1,21.6,0.1,32.7c0,2.8,2.9,4.4,5.7,4.4c0,0,0,0,0,0
		c2.8,0,4-1.8,4-3.4l0-8.9c0.1-16.5,0.1-33.5-0.6-50.2C470.7,633,470,625.8,464.8,620.5z"/>
	<path d="M499.3,613.3c-13.3,0-23.8,19.4-23.8,44.3s10.4,44.3,23.8,44.3c13.3,0,23.8-19.4,23.8-44.3S512.6,613.3,499.3,613.3z
		 M499.3,690.7c-5.5,0-11.6-14.5-11.6-33.8c0-19.3,6.1-33.8,11.6-33.8s11.6,14.5,11.6,33.8C510.9,676.3,504.8,690.7,499.3,690.7z"/>
	<path d="M556.1,612.9h-15.2c-1.3-0.2-2.5-0.2-3.6,0H523c-1.7,0-4.1,0.2-5.6,1.9c-0.8,0.9-1.1,2.1-0.9,3.4c0.6,3.6,5.4,5.1,7.9,5.1
		h9.1v72.8c0,4.3,5.3,6.3,8.9,6.3c1.3,0,2.4-0.2,3.3-0.7c1.4-0.7,2.2-2,2.2-3.6v-74.9h9.6c1.7,0,4.1-0.2,5.6-1.9
		c0.8-0.9,1.1-2.1,0.9-3.4C563.4,614.4,558.6,612.9,556.1,612.9z"/>
	<path d="M626.2,679.4c-2-0.1-3.7,0.7-4.5,2.1c-1.8,2.9-3.9,5.7-6.3,8.3c-1-1.3-1.9-3.3-2.3-4.2c-1.2-2.8-2.1-5.8-2.8-9
		c-1.4-6.2-1.8-12.9-1.3-19.9c0.5-6.2,1.7-12.7,3.6-19.3c0.8-2.8,1.8-5.8,3.1-8.4c0.6-1.1,1.7-3.4,2.9-4.8c2.2,2.9,3,6.7,3.4,9.9
		c0.7,5.5,0.3,11.2-1.3,17.2c-0.7,2.5,1.1,4.8,4.5,5.7c3.6,1,6.7-0.2,7.4-2.8c3.4-12.5,3.4-28.9-7-37.3c-1.1-0.8-2.4-1.4-3.8-1.7
		c-2.1-1.9-5.9-2.8-8.9-2c-7.6,2.1-11.3,10.4-13.8,18.2c-2.7,8.4-4.3,16.7-4.7,24.9c-0.5,8.7,0.4,16.9,2.5,24.3
		c2,7.1,5.5,15.6,14.2,19.1c1,0.4,2.6,0.8,4.2,0.8c0.8,0,1.5-0.1,2.3-0.3c2,0.2,3.6-0.2,4.7-1.2c4-3.7,7.4-7.9,10.1-12.4
		c0.8-1.2,0.8-2.7,0.1-3.9C631.5,680.5,628.5,679.5,626.2,679.4z"/>
	<path d="M670.8,617.2c-0.4-1.8-2.1-3.2-4.5-3.8c-2-0.7-5.2-1.2-7.5,0c-1.2,0.6-2.1,1.6-2.4,2.9L634.2,694c-0.4,1.5,0,3.1,1.2,4.3
		c1.6,1.6,4.5,2.6,7.2,2.6c0.7,0,1.5-0.1,2.1-0.2c1.9-0.5,3.3-1.7,3.7-3.3l4.4-15.6h21.5l3.7,15c0.8,3.4,5.8,4.6,8.8,3.9
		c2.4-0.6,3.7-2.5,3.1-4.7L670.8,617.2z M671.9,671.4h-16.1l8.7-30.4L671.9,671.4z"/>
	<path d="M725.6,612.7c-1.3,0-2.4,0.2-3.3,0.7c-1.4,0.7-2.2,2-2.2,3.6v72.6c-1,1.7-2.5,3.1-4.5,3.9c-2.6,1.1-6.2,1.8-8.2,1.2
		c-1.3-0.4-2.4-2.3-3.1-5.3c-0.9-3.6-0.9-7.6-1-11.5c0-1.3,0-2.6-0.1-3.9c-0.2-5.1-0.2-10.3-0.2-15.3l0-3l0-36.6
		c0-1.7-1-3.2-2.7-4.2c-2-1.2-5.4-1.8-7.5-0.5c-1.2,0.7-1.9,1.8-1.9,3.1c0,5.6,0,11.1-0.1,16.7c-0.1,16.4-0.2,33.3,0.6,49.9
		c0.5,9.2,4.4,15.7,11,18.4c2.6,1.1,5.7,1.6,8.8,1.6c4.3,0,8.7-1,12.5-2.8c2.6,1.4,6.2,1.7,8.4,0.7c1.5-0.7,2.4-2.1,2.4-3.6V619
		C734.6,614.7,729.2,612.7,725.6,612.7z"/>
	<path d="M772.4,666.3l-2.2-1.9c-8.2-6.9-16.8-14-16.9-25.1c-0.1-5.3,2.2-12,7.5-15c2.7-1.5,3.6-0.7,4.1-0.3
		c1.9,1.8,2.4,4.7,2.2,6.8c-0.3,3.8,3.7,6.2,7.8,6.6c1,0.1,2.4,0.1,3.8-0.4c1.7-0.7,2.7-2,2.8-3.6c0.6-6.1-1.9-11.8-6.8-15.8
		c-5.5-4.4-13.1-5.9-19.7-3.8c-13,4.1-18,19-15.2,30.5c2.8,11.4,11,18.4,19,25.2c1.3,1.1,2.6,2.2,3.8,3.3c3.3,2.9,7,7.4,6.2,12.8
		c-0.6,4-4.4,6.5-7.9,7.1c-1.5,0.3-2.8,0.1-3.6-0.5c-1.2-0.9-1.7-2.6-1.9-3.9c-0.4-3.3,0.9-6.8,3.5-9.3c1-0.9,1.4-2.2,1.2-3.5
		c-0.6-2.9-4.4-4.5-4.6-4.5c-2.6-1-6.3-1.3-8.8,1c-3.8,3.6-6,8.9-5.8,14.2c0.1,4.9,2.2,9.2,5.7,12.2c4,3.3,9.4,5,14.9,5
		c5.6,0,11.3-1.7,15.6-5.2c5-4,7.1-10.3,5.6-16.9C781.5,676,778.3,671.2,772.4,666.3z"/>
	<path d="M818.9,691.8h-17.7v-25.9c6.3,0.1,12.5,0.1,18.6,0c1.7,0,3.2-0.8,4-2.1c0.7-1.2,0.7-2.6,0-3.9c-1.5-3-5.7-3.1-6.9-3.1
		c-5.2,0.1-10.4,0.1-15.7,0v-33.7h19.1c1.7,0,4.1-0.2,5.6-1.9c0.8-0.9,1.1-2.1,0.9-3.4c-0.6-3.6-5.4-5.1-7.9-5.1h-25.6
		c-5.7,0-6.5,2.6-6.5,4.2V696c0,4.1,4.6,6.2,7.9,6.2h25.6c1.7,0,4.1-0.2,5.6-1.9c0.8-0.9,1.1-2.1,0.9-3.4
		C826.1,693.3,821.3,691.8,818.9,691.8z"/>
</g>
<path d="M666,401.7c7.9,1.1,15.7,2.1,23.6,3.2c2.6,0.4,3.9,1.9,4.1,4.5c0.4,4,0.8,8,1.2,12c0.5,5.3,2.3,10,5.5,14.2
	c1.1,1.5,2.6,2.8,4.2,3.8c4.3,2.5,8.5,0.9,10.3-3.8c1.4-3.7,1.6-7.6,0.3-11.2c-1.2-3.4-3.1-6.7-4.8-9.9c-1-1.8-2.3-3.5-3.9-5.8
	c1.6,0.3,2.5,0.4,3.4,0.7c4.7,1.3,9.5,2.7,14.2,3.9c2.7,0.7,3.8,2.4,3.7,5.1c0,6,0.5,11.9,1.9,17.7c1.1,4.4,2.9,8.4,5.7,12.1
	c1.8,2.5,4.2,3.6,7.3,3.2c3.2-0.4,5.2-2.4,6.4-5.3c0.9-2.3,1-4.8,0.5-7.3c-1-5.2-3.5-9.7-6.2-14.1c-0.7-1.1-1.4-2.3-2.4-3.9
	c1.1,0.3,1.8,0.4,2.4,0.7c1.6,0.7,3.2,1.6,4.8,2.4c2.9,1.4,5.2,3.3,7.1,5.9c4.6,6.4,10.5,11.3,17.6,14.7c2.6,1.2,5.4,2.1,8.2,2.7
	c3.3,0.8,6.6,0.4,8.8-2.6c2.3-3.2,2.4-6.7,0.8-10.2c-1.3-2.9-3.6-4.8-6.3-6.4c-5.6-3.3-11.7-5-18.1-6c-2.6-0.4-5.1-0.6-7.6,0.2
	c-0.8,0.2-1.9,0.3-2.6,0c-5.2-2.5-10.4-5-15.6-7.6c0.1-0.3,0.1-0.5,0.2-0.8c3.4-0.6,6.8-1.1,10.2-1.9c3.6-0.8,7.2-1.7,10.6-3.1
	c3.8-1.5,6.1-4.4,6-8.8c-0.1-3.2-1.5-5.5-4.6-6.2c-2.4-0.6-5.2-0.9-7.6-0.4c-8.8,1.6-16.5,5.6-23.1,11.7c-1.3,1.2-2.3,2.7-3.7,4.3
	c-6.8-2.2-13.6-4.4-20.5-6.6c0-0.2,0-0.5,0-0.7c1.5-0.5,3-1,4.5-1.5c3.9-1.3,7.9-2.4,11.7-4.1c2.4-1.1,4.8-2.6,6.6-4.5
	c4.5-4.8,2.8-10.5-3.5-12.5c-4.1-1.3-8.2-0.9-12.1,0.8c-8.6,3.7-15.4,9.5-20.3,17.5c-0.9,1.5-1.8,2.4-3.7,2.1
	c-9.4-1.4-18.8-2.6-28.4-4.5c1.1-0.6,2.2-1.3,3.3-1.9c4.2-2.3,8.5-4.4,12.7-6.8c3.2-1.8,6.2-4.1,8.4-7.1c2.1-2.9,3-6,1.6-9.5
	c-1.5-3.7-4.9-6-8.8-5.2c-2.7,0.5-5.5,1.5-7.8,2.9c-8.4,5.4-14.7,12.7-19,21.7c-0.8,1.7-1.2,3.6-1.9,5.7c-5.1,0.3-10.4,0.7-16,1.1
	c-0.3,1.4-0.5,2.8-0.9,4.7c6,0,11.6,0,17.6,0c0.4,2,0.8,3.6,1.1,5.2c1.1,6.8,3.2,13.3,6.6,19.3c1.5,2.7,3.5,5.2,5.8,7.3
	c2.6,2.5,6,3.2,9.4,1.5c3.5-1.7,5.3-4.7,5.3-8.6c0-3.1-0.8-6.1-2.6-8.6c-2.4-3.5-5.1-6.8-7.8-10c-1.3-1.5-2.8-2.8-4.2-4.2
	C665.7,402.3,665.8,402,666,401.7z"/>
<path d="M405.6,401.7c-7.9,1.1-15.7,2.1-23.6,3.2c-2.6,0.4-3.9,1.9-4.1,4.5c-0.4,4-0.8,8-1.2,12c-0.5,5.3-2.3,10-5.5,14.2
	c-1.1,1.5-2.6,2.8-4.2,3.8c-4.3,2.5-8.5,0.9-10.3-3.8c-1.4-3.7-1.6-7.6-0.3-11.2c1.2-3.4,3.1-6.7,4.8-9.9c1-1.8,2.3-3.5,3.9-5.8
	c-1.6,0.3-2.5,0.4-3.4,0.7c-4.7,1.3-9.5,2.7-14.2,3.9c-2.7,0.7-3.8,2.4-3.7,5.1c0,6-0.5,11.9-1.9,17.7c-1.1,4.4-2.9,8.4-5.7,12.1
	c-1.8,2.5-4.2,3.6-7.3,3.2c-3.2-0.4-5.2-2.4-6.4-5.3c-0.9-2.3-1-4.8-0.5-7.3c1-5.2,3.5-9.7,6.2-14.1c0.7-1.1,1.4-2.3,2.4-3.9
	c-1.1,0.3-1.8,0.4-2.4,0.7c-1.6,0.7-3.2,1.6-4.8,2.4c-2.9,1.4-5.2,3.3-7.1,5.9c-4.6,6.4-10.5,11.3-17.6,14.7
	c-2.6,1.2-5.4,2.1-8.2,2.7c-3.3,0.8-6.6,0.4-8.8-2.6c-2.3-3.2-2.4-6.7-0.8-10.2c1.3-2.9,3.6-4.8,6.3-6.4c5.6-3.3,11.7-5,18.1-6
	c2.6-0.4,5.1-0.6,7.6,0.2c0.8,0.2,1.9,0.3,2.6,0c5.2-2.5,10.4-5,15.6-7.6c-0.1-0.3-0.1-0.5-0.2-0.8c-3.4-0.6-6.8-1.1-10.2-1.9
	c-3.6-0.8-7.2-1.7-10.6-3.1c-3.8-1.5-6.1-4.4-6-8.8c0.1-3.2,1.5-5.5,4.6-6.2c2.4-0.6,5.2-0.9,7.6-0.4c8.8,1.6,16.5,5.6,23.1,11.7
	c1.3,1.2,2.3,2.7,3.7,4.3c6.8-2.2,13.6-4.4,20.5-6.6c0-0.2,0-0.5,0-0.7c-1.5-0.5-3-1-4.5-1.5c-3.9-1.3-7.9-2.4-11.7-4.1
	c-2.4-1.1-4.8-2.6-6.6-4.5c-4.5-4.8-2.8-10.5,3.5-12.5c4.1-1.3,8.2-0.9,12.1,0.8c8.6,3.7,15.4,9.5,20.3,17.5
	c0.9,1.5,1.8,2.4,3.7,2.1c9.4-1.4,18.8-2.6,28.4-4.5c-1.1-0.6-2.2-1.3-3.3-1.9c-4.2-2.3-8.5-4.4-12.7-6.8c-3.2-1.8-6.2-4.1-8.4-7.1
	c-2.1-2.9-3-6-1.6-9.5c1.5-3.7,4.9-6,8.8-5.2c2.7,0.5,5.5,1.5,7.8,2.9c8.4,5.4,14.7,12.7,19,21.7c0.8,1.7,1.2,3.6,1.9,5.7
	c5.1,0.3,10.4,0.7,16,1.1c0.3,1.4,0.5,2.8,0.9,4.7c-6,0-11.6,0-17.6,0c-0.4,2-0.8,3.6-1.1,5.2c-1.1,6.8-3.2,13.3-6.6,19.3
	c-1.5,2.7-3.5,5.2-5.8,7.3c-2.6,2.5-6,3.2-9.4,1.5c-3.5-1.7-5.3-4.7-5.3-8.6c0-3.1,0.8-6.1,2.6-8.6c2.4-3.5,5.1-6.8,7.8-10
	c1.3-1.5,2.8-2.8,4.2-4.2C405.9,402.3,405.7,402,405.6,401.7z"/>
<g>
	<circle cx="850.4" cy="662.3" r="10.4"/>
	<circle cx="879.5" cy="662.3" r="10.4"/>
	<circle cx="907.8" cy="662.3" r="10.4"/>
	<circle cx="937.6" cy="662.3" r="10.4"/>
</g>
<g>
	<circle cx="109.6" cy="662.3" r="10.4"/>
	<circle cx="138.7" cy="662.3" r="10.4"/>
	<circle cx="167" cy="662.3" r="10.4"/>
	<circle cx="196.8" cy="662.3" r="10.4"/>
</g>
</svg>
