<?xml version="1.0" encoding="utf-8"?>
<!-- Generator: Adobe Illustrator 22.0.0, SVG Export Plug-In . SVG Version: 6.00 Build 0)  -->
<svg version="1.1" id="Layer_1" xmlns="http://www.w3.org/2000/svg" xmlns:xlink="http://www.w3.org/1999/xlink" x="0px" y="0px"
	 viewBox="0 0 1080 1080" style="enable-background:new 0 0 1080 1080;" xml:space="preserve">
<g>
	<ellipse transform="matrix(0.1175 -0.9931 0.9931 0.1175 -160.8345 817.0504)" cx="379.3" cy="499" rx="9.3" ry="9.3"/>
	<ellipse transform="matrix(0.9807 -0.1957 0.1957 0.9807 -132.8601 126.0376)" cx="571.5" cy="735.5" rx="9.3" ry="9.3"/>
	<ellipse transform="matrix(0.9807 -0.1957 0.1957 0.9807 -68.3869 122.4575)" cx="585.6" cy="407.4" rx="9.3" ry="9.3"/>
	<ellipse transform="matrix(0.2052 -0.9787 0.9787 0.2052 194.881 1083.6187)" cx="764.6" cy="421.8" rx="9.3" ry="9.3"/>
	<ellipse transform="matrix(0.9495 -0.3138 0.3138 0.9495 -204.6925 155.0426)" cx="379.3" cy="713.4" rx="4.8" ry="4.8"/>
	<path d="M775,386.5c2.6,0.7,5.2-0.8,5.9-3.4s-0.8-5.2-3.4-5.9c-2.6-0.7-5.2,0.8-5.9,3.4C770.9,383.1,772.4,385.8,775,386.5z"/>
	<path d="M424.2,369.6c0.7-2.6-0.8-5.2-3.4-5.9c-2.6-0.7-5.2,0.8-5.9,3.4c-0.7,2.6,0.8,5.2,3.4,5.9
		C420.8,373.7,423.5,372.1,424.2,369.6z"/>
	<path d="M203.5,376.4c-0.7,2.6,0.8,5.2,3.4,5.9c2.6,0.7,5.2-0.8,5.9-3.4c0.7-2.6-0.8-5.2-3.4-5.9
		C206.8,372.3,204.2,373.8,203.5,376.4z"/>
	<ellipse transform="matrix(0.25 -0.9682 0.9682 0.25 -146.9154 1290.855)" cx="759.8" cy="740.3" rx="4.8" ry="4.8"/>
	<path d="M569.5,483.9c-0.7,2.6,0.8,5.2,3.4,5.9c2.6,0.7,5.2-0.8,5.9-3.4c0.7-2.6-0.8-5.2-3.4-5.9
		C572.9,479.8,570.2,481.3,569.5,483.9z"/>
	<ellipse transform="matrix(0.941 -0.3383 0.3383 0.941 -85.6835 304.5385)" cx="830.8" cy="398.1" rx="8.1" ry="8.1"/>
	<path d="M342.1,475.8c3.9,2.7,9.9-6.6,13.5-6.8c3.6-0.3,13.4,7.7,17.6,2.9c4.2-4.8-2.7-12.7-2.2-16.9c0.5-4.3,9.2-9.2,8.2-14.2
		c-1-5-10.5-2.1-15.1-3.3c-4.7-1.2-8.2-12-11.8-11.9c-3.5,0.1-5.3,6.4-8.8,11.8c-3.5,5.4-14.5,4.3-15.1,8.9
		c-0.6,4.6,8.9,10.9,10.1,14.8C341,468,338.2,473.1,342.1,475.8z M345.8,451c0.2-1.4,3.5-1,4.6-2.7c1-1.6,1.6-3.5,2.7-3.6
		c1.1,0,2.1,3.2,3.5,3.6s4.3-0.5,4.6,1c0.3,1.5-2.3,3-2.5,4.3c-0.2,1.3,1.9,3.7,0.7,5.1c-1.3,1.5-4.2-1-5.3-0.9
		c-1.1,0.1-2.9,2.9-4.1,2.1c-1.2-0.8-0.3-2.3-1.1-4.5C348.5,454.3,345.6,452.3,345.8,451z"/>
	<path d="M701.9,470.3c3,0.9,5.6,2.5,7.9,4.8c5.5,5.6,12.2,9.6,19.7,11.9c2.8,0.8,5.7,1.2,8.6,1.4c3.4,0.3,6.6-0.6,8.3-3.9
		c1.8-3.5,1.3-7-0.8-10.2c-1.7-2.6-4.3-4.2-7.2-5.3c-6-2.4-12.3-3.1-18.8-3.1c-2.6,0-5.1,0.2-7.5,1.4c-0.8,0.4-1.8,0.6-2.6,0.4
		c-5.6-1.6-11.1-3.4-16.6-5.1c0-0.3,0-0.5,0-0.8c3.3-1.1,6.6-2.1,9.8-3.4c3.4-1.4,6.9-2.8,10-4.7c3.5-2.1,5.4-5.3,4.5-9.7
		c-0.6-3.1-2.3-5.2-5.5-5.5c-2.5-0.2-5.2-0.1-7.6,0.7c-8.4,2.9-15.5,8.1-21,15.1c-1.1,1.4-1.9,3-3,4.9c-7-1.1-14.2-2.2-21.3-3.3
		c0-0.2-0.1-0.5-0.1-0.7c1.4-0.7,2.8-1.5,4.2-2.2c3.7-1.9,7.5-3.6,11-5.9c2.2-1.4,4.3-3.3,5.8-5.5c3.7-5.5,1.2-10.9-5.4-11.8
		c-4.3-0.7-8.3,0.4-11.9,2.6c-8,4.9-13.8,11.8-17.4,20.4c-0.7,1.6-1.4,2.6-3.3,2.6c-9.5,0.1-19,0.3-28.8-0.1c1-0.8,2-1.6,3-2.4
		c3.8-2.9,7.8-5.7,11.5-8.7c2.9-2.3,5.5-5,7.2-8.3c1.6-3.2,2-6.4,0.1-9.6c-2-3.4-5.8-5.1-9.5-3.8c-2.6,0.9-5.2,2.3-7.2,4.1
		c-7.5,6.6-12.6,14.9-15.5,24.4c-0.6,1.8-0.6,3.7-1,5.9c-5,1.1-10.2,2.3-15.7,3.5c-0.1,1.5-0.1,2.8-0.2,4.7
		c5.9-0.9,11.5-1.8,17.4-2.7c0.7,1.9,1.4,3.4,1.9,5c2.1,6.6,5.2,12.7,9.5,18.1c1.9,2.4,4.3,4.6,6.8,6.3c3,2,6.4,2.2,9.5,0
		c3.2-2.3,4.5-5.4,3.9-9.4c-0.5-3.1-1.7-5.9-3.8-8.1c-2.9-3.1-6.1-5.9-9.3-8.7c-1.5-1.3-3.2-2.4-4.8-3.5c0.1-0.3,0.2-0.7,0.2-1
		c7.9-0.2,15.9-0.3,23.8-0.5c2.7-0.1,4.1,1.3,4.8,3.8c1,3.9,2.1,7.8,3.1,11.7c1.3,5.1,3.8,9.6,7.6,13.2c1.3,1.3,3,2.4,4.7,3.1
		c4.7,1.8,8.6-0.4,9.7-5.3c0.8-3.8,0.4-7.7-1.4-11.1c-1.7-3.2-4.1-6.1-6.3-9.1c-1.3-1.7-2.8-3.1-4.7-5.1c1.6,0.1,2.6,0.1,3.5,0.2
		c4.9,0.6,9.8,1.2,14.7,1.7c2.8,0.3,4.1,1.8,4.5,4.5c0.9,5.9,2.4,11.7,4.6,17.2c1.7,4.2,4.2,7.9,7.5,11.1c2.2,2.2,4.7,2.9,7.7,2.1
		c3.1-0.9,4.8-3.2,5.5-6.2c0.5-2.5,0.3-4.9-0.6-7.3c-1.8-4.9-4.9-9-8.3-13c-0.9-1-1.7-2-3-3.5c1.1,0.1,1.8,0.1,2.5,0.3
		C698.5,469.2,700.2,469.8,701.9,470.3z"/>
	<path d="M324.3,741.7c-8.7-6.9-18.6-12.5-29.6-16.8c-11.1-4.3-22.7-7.6-34.7-10c-12.1-2.4-24.2-3.9-36.2-4.5
		c-12.1-0.6-23.3-0.8-33.6-0.6c-6,0.5-11.3,1.7-15.7,3.6c-4.4,1.9-6.4,4.2-5.9,7c-0.8,11.1-1.1,24.1-0.9,39.1
		c0.1,15,0.4,30.5,0.8,46.6c0.4,16.1,0.9,32.3,1.5,48.5c0.6,16.2,1.3,31.2,1.9,44.9c0.6,13.7,1.3,25.6,1.9,35.7
		c0.6,10.1,0.9,17,0.9,20.8c-0.3,2.8,0.9,5.2,3.6,7.2c2.6,2,6,3.5,10,4.5c4,1,8.4,1.5,13,1.3c4.7-0.1,9-1.1,13-3
		c4-1.9,7.4-4.7,10-8.5c2.6-3.8,4-8.7,4-14.7v-41.9c8.1-0.5,16.7-1.8,25.9-3.8c9.2-2,18.4-4.8,27.8-8.3c9.3-3.5,18.2-7.9,26.8-13.2
		c8.6-5.3,16.1-11.5,22.7-18.5c6.5-7,11.8-15.2,15.7-24.4c3.9-9.2,5.9-19.3,5.9-30.4c0-13.6-2.6-25.4-7.7-35.3
		C339.9,757.1,333,748.7,324.3,741.7z M194.4,836.7c-0.1,12.1-0.3,23.8-0.4,35.1c-0.1,11.3-0.3,21.8-0.4,31.5
		c-0.1,9.7-0.2,17.4-0.2,23.2c-2.3-12.8-4-27.3-5.1-43.4c-1.1-16.1-1.8-32-2.1-47.6c-0.3-15.6,0-30,0.8-43c0.8-13.1,1.9-23,3.4-29.8
		c1,2.3,1.8,7,2.5,14.3c0.6,7.3,1.1,16,1.3,26.2C194.4,813.5,194.5,824.6,194.4,836.7z M294.5,823.5c-3.7,5.5-8.7,10.5-15.3,14.9
		c-6.6,4.4-14.2,8.2-22.8,11.3c-8.7,3.2-17.9,5.4-27.8,6.6c0-15.9-0.1-31.3-0.4-46.3c-0.3-15-0.8-29.6-1.5-44c8.6,0.3,17,1,25.3,2.3
		c8.3,1.3,15.9,3.3,22.7,6.2c6.8,2.9,12.4,6.9,16.8,11.9c4.4,5,7,11.3,7.7,18.9C299.7,811.9,298.1,818,294.5,823.5z"/>
	<path d="M534.8,751c-7.1-12.1-16-21.8-26.8-29.3c-10.8-7.4-23.5-11.1-38.1-11.1c-16.1,0-30.3,3.7-42.5,11.1
		c-12.2,7.4-22.4,17.2-30.6,29.5c-8.2,12.2-14.5,26.1-18.9,41.5c-4.4,15.5-6.8,31.3-7.2,47.6c-0.4,16.2,1.3,32.1,4.9,47.6
		c3.6,15.5,9.3,29.3,16.8,41.3c7.6,12.1,17.1,21.8,28.7,29.1c11.6,7.3,25.2,10.9,40.8,10.9c15.1,0,28.4-3.7,40-11.1
		c11.6-7.4,21.2-17.2,28.9-29.5c7.7-12.2,13.5-26.1,17.6-41.5c4-15.5,6.2-31.3,6.6-47.4c0.4-16.1-1.1-31.9-4.5-47.4
		C547.1,776.9,541.8,763.1,534.8,751z M411.9,793.7c-2.9,9.6-5.3,20.1-7.2,31.7c-1.9,11.6-2.8,23.4-2.6,35.3
		c0.1,12,1.6,23.5,4.3,34.5c2.8,11.1,7.6,20.9,14.3,29.5c-8.6-6.8-15.2-15.3-20-25.5c-4.8-10.2-7.9-21.1-9.4-32.7
		c-1.5-11.6-1.6-23.3-0.2-35.3c1.4-12,3.8-23,7.4-33.2c3.5-10.2,8-18.9,13.4-26.2c5.4-7.3,11.4-12.2,17.9-14.7
		c-2.5,1.8-5.4,5.9-8.7,12.5C417.9,776.1,414.8,784.1,411.9,793.7z M501.7,882.6c-2.6,12-6.7,22.1-12.3,30.4
		c-5.5,8.3-12.5,12.8-20.8,13.6c-9.8,0.8-17.8-2.6-24-10.2c-6.2-7.6-10.7-17.2-13.6-28.9c-2.9-11.7-4.2-24.6-3.8-38.7
		c0.4-14.1,2.3-27.2,5.7-39.3c3.4-12.1,8.3-22.3,14.7-30.6c6.4-8.3,14.2-12.6,23.2-12.8c7.6-0.2,14,3.5,19.3,11.1
		c5.3,7.7,9.2,17.3,11.7,28.9c2.5,11.6,3.8,24.2,3.8,37.9C505.7,857.8,504.4,870.6,501.7,882.6z"/>
	<path d="M738.3,751c-7.1-12.1-16-21.8-26.8-29.3c-10.8-7.4-23.5-11.1-38.1-11.1c-16.1,0-30.3,3.7-42.5,11.1
		c-12.2,7.4-22.4,17.2-30.6,29.5c-8.2,12.2-14.5,26.1-18.9,41.5c-4.4,15.5-6.8,31.3-7.2,47.6c-0.4,16.2,1.3,32.1,4.9,47.6
		c3.6,15.5,9.3,29.3,16.8,41.3c7.6,12.1,17.1,21.8,28.7,29.1c11.6,7.3,25.2,10.9,40.8,10.9c15.1,0,28.4-3.7,40-11.1
		c11.6-7.4,21.2-17.2,28.9-29.5c7.7-12.2,13.5-26.1,17.6-41.5c4-15.5,6.2-31.3,6.6-47.4c0.4-16.1-1.1-31.9-4.5-47.4
		C750.6,776.9,745.4,763.1,738.3,751z M615.4,793.7c-2.9,9.6-5.3,20.1-7.2,31.7c-1.9,11.6-2.8,23.4-2.6,35.3
		c0.1,12,1.6,23.5,4.3,34.5c2.8,11.1,7.6,20.9,14.3,29.5c-8.6-6.8-15.2-15.3-20-25.5c-4.8-10.2-7.9-21.1-9.4-32.7
		c-1.5-11.6-1.6-23.3-0.2-35.3c1.4-12,3.8-23,7.4-33.2c3.5-10.2,8-18.9,13.4-26.2c5.4-7.3,11.4-12.2,17.9-14.7
		c-2.5,1.8-5.4,5.9-8.7,12.5C621.4,776.1,618.3,784.1,615.4,793.7z M705.3,882.6c-2.6,12-6.7,22.1-12.3,30.4
		c-5.5,8.3-12.5,12.8-20.8,13.6c-9.8,0.8-17.8-2.6-24-10.2c-6.2-7.6-10.7-17.2-13.6-28.9c-2.9-11.7-4.2-24.6-3.8-38.7
		c0.4-14.1,2.3-27.2,5.7-39.3c3.4-12.1,8.3-22.3,14.7-30.6c6.4-8.3,14.2-12.6,23.2-12.8c7.6-0.2,14,3.5,19.3,11.1
		c5.3,7.7,9.2,17.3,11.7,28.9c2.5,11.6,3.8,24.2,3.8,37.9C709.2,857.8,707.9,870.6,705.3,882.6z"/>
	<path d="M955.6,767c-5.2-9.9-12.1-18.4-20.8-25.3c-8.7-6.9-18.6-12.5-29.6-16.8c-11.1-4.3-22.7-7.6-34.7-10
		c-12.1-2.4-24.2-3.9-36.2-4.5c-12.1-0.6-23.3-0.8-33.6-0.6c-6,0.5-11.3,1.7-15.7,3.6c-4.4,1.9-6.4,4.2-5.9,7
		c-0.8,11.1-1.1,24.1-0.9,39.1c0.1,15,0.4,30.5,0.8,46.6c0.4,16.1,0.9,32.3,1.5,48.5c0.6,16.2,1.3,31.2,1.9,44.9
		c0.6,13.7,1.3,25.6,1.9,35.7c0.6,10.1,0.9,17,0.9,20.8c-0.3,2.8,0.9,5.2,3.6,7.2c2.6,2,6,3.5,10,4.5c4,1,8.4,1.5,13,1.3
		c4.7-0.1,9-1.1,13-3c4-1.9,7.4-4.7,10-8.5c2.6-3.8,4-8.7,4-14.7v-41.9c8.1-0.5,16.7-1.8,25.9-3.8c9.2-2,18.4-4.8,27.8-8.3
		c9.3-3.5,18.2-7.9,26.8-13.2c8.6-5.3,16.1-11.5,22.7-18.5c6.5-7,11.8-15.2,15.7-24.4c3.9-9.2,5.9-19.3,5.9-30.4
		C963.4,788.8,960.8,777,955.6,767z M804.9,836.7c-0.1,12.1-0.3,23.8-0.4,35.1c-0.1,11.3-0.3,21.8-0.4,31.5
		c-0.1,9.7-0.2,17.4-0.2,23.2c-2.3-12.8-4-27.3-5.1-43.4c-1.1-16.1-1.8-32-2.1-47.6c-0.3-15.6,0-30,0.8-43c0.8-13.1,1.9-23,3.4-29.8
		c1,2.3,1.8,7,2.5,14.3c0.6,7.3,1.1,16,1.3,26.2C805,813.5,805.1,824.6,804.9,836.7z M905,823.5c-3.7,5.5-8.7,10.5-15.3,14.9
		c-6.6,4.4-14.2,8.2-22.8,11.3c-8.7,3.2-17.9,5.4-27.8,6.6c0-15.9-0.1-31.3-0.4-46.3c-0.3-15-0.8-29.6-1.5-44c8.6,0.3,17,1,25.3,2.3
		c8.3,1.3,15.9,3.3,22.7,6.2c6.8,2.9,12.4,6.9,16.8,11.9c4.4,5,7,11.3,7.7,18.9C910.2,811.9,908.7,818,905,823.5z"/>
	<path d="M225.1,485.1c50.9,0,98.8-45.3,98.8-102.9c0-5.6-0.5-11.5-1.4-17.4l-40.9,7.6c0.5,3.4,0.9,6.9,0.9,10
		c0,34.3-31.7,59.5-58.7,59.5c-12,0-23.8-5.4-33.3-18.1c-14.8-19.6-24.7-55.1-28.7-93.6c33.5-2,42.1-3.2,68-3.2
		c5.5,0,10.6,0.2,14.8,0.5l3-43.9c-5.8-0.5-12-0.7-18.7-0.7c-21.7,0-48.8,2.2-68.9,3.4c0.5-16.4,2.1-32.3,4.9-47.3
		c9.9-49.2,32.6-85.5,61.5-85.5c7.2,0,15.5,2.2,25.7,6.6c21.5,9.3,26.8,21.3,26.8,29.2l-0.5,3.4c-1.2,6.1-5.1,13.2-20.1,13.2
		c-3,0-6.5-0.2-10.6-1l-6.5,43.6c4.6,0.7,9.3,1.2,13.6,1.2c38.9,0,65.7-27.2,65.7-59.5c0-28.4-19.7-56.6-52.5-71.1
		c-15-6.4-26.4-8.6-39.6-8.6c-22.4,0-43,8.6-58.5,23.3c-37.5,35.8-52.7,104.1-52.7,168.1c0,56.1,12.5,111.7,40.7,149.2
		C175.6,474.9,200.6,485.1,225.1,485.1z"/>
	<path d="M338.3,363.3c0,16.2,1.4,20.8,1.9,37.3h0.5l0.2,4.9l41-4.4v-4.4c0-13-0.7-31-1.2-46.1c0.5-11.8,1.2-24.3,1.9-32.2
		c2.1-17.6,16.9-54.4,34.1-79c8.8-12.3,18.3-21.5,24.1-24.8c2.8-1.6,4.4-1.9,4.4-1.9l0.2,0.5c0,0,6,11.1,9,26.2
		c5.3,24.8,6.5,45.2,7.2,78.8c0,14.8-0.7,29.4-1.9,42.4c-1.9,18.5-5.8,34.1-7.9,38.7l37.3,18.3c7.2-14.6,10-32.2,12-53
		c1.4-14.1,2.1-29.4,2.1-45.2c0-31-2.5-61.8-7.9-88.5c-4.2-19.7-7.9-35.9-22.5-48.9c-7.4-6.7-17.6-10.7-27.3-10.9
		c-9.7,0-18.3,3.2-25.7,7.4c-14.8,8.6-29.7,23.6-39.8,41.7l-0.2-29.2c0-7.4,0.2-14.1,0.9-19.7l-41.5-4.9
		c-2.5,22.7-3.5,48.2-3.5,74.8c0,37.5,1.9,76.4,3,110.5C338.8,356.9,338.3,358,338.3,363.3z"/>
	<path d="M457.2,495.1c8.6,5.7,19.2,9.9,30.6,9.9c20.2,0,38.2-13.7,49.5-40.3c25.1-59.2,34.2-149.3,34.2-223.9
		c0-18.3-0.4-35.6-1.5-51.4l-37.7,2.5c0.8,12.7,1.3,26.6,1.3,41.5c0,73-9.9,165.9-31.2,216.5c-5.7,13.5-10.5,16.4-12.9,17.1
		l-1.9,0.2c-2.1,0-4.8-0.8-9.3-3.8c-11.6-7.8-25.3-31-26.6-40.5l-37.5,5.1C417.6,453.8,433.6,479.3,457.2,495.1z"/>
	<path d="M552.5,175.7c11,0,16.7-7,19.2-11.4c2.5-4.4,3.4-8.6,3.4-13.3c0-4.4-0.8-8.6-3.4-13.1c-2.5-4.6-8.2-11.4-19.2-11.4
		c-10.8,0-16.7,6.7-19,11.4c-2.5,4.4-3.4,8.6-3.4,13.1c0,4.6,0.8,8.9,3.4,13.3C535.8,168.7,541.7,175.7,552.5,175.7z"/>
	<path d="M626.1,401.6c11.1,7.4,24.3,11.1,37.3,11.1c4.4,0,9-0.5,13.4-1.4c62.1-12.5,89-66.7,89-120.5l-0.5-11.3
		c-3.7-54-36.1-112.1-90.3-112.6c-25.7,0-47,15.1-60.7,34.3c-19.7,27.3-28.7,66.2-28.7,101.7C585.6,341.1,596.2,381.9,626.1,401.6z
		 M674.8,208.6c11.8,0.2,22,6.5,31.3,19.9c11.8,16.9,16.9,36.1,18.1,63c0,36.8-16.2,70.6-55.6,79c-3,0.7-5.3,0.9-7.4,0.9
		c-12.3,0-33.8-19-33.8-68.1C627.3,253.5,648.1,208.6,674.8,208.6z"/>
	<path d="M788.9,327.6c2.2,4.3,5.1,8.6,8.8,12.5c3.7,3.9,8.4,6.9,14.1,8.8c3.1,1,6.1,1.4,9.2,1.4c8.6,0,16.8-2.7,24.3-8.2
		c9.6-6.3,19.2-16.3,29-29.6c3.5-4.9,6.7-10.4,9.6-16.6c0.6-1.2,1-2.4,1.6-3.5c-0.2,5.3-0.2,10.2-0.2,14.5c0,7.6-0.2,15.9-0.8,25.1
		c-1.6,31.9-4.3,60.1-8,84.6c-1.8,12.1-4.1,22.3-6.5,30.4c-2.7,8.2-4.3,12.9-5.3,14.3c-4.3,5.9-8.4,10-12.1,12.5
		c-3.9,2.7-6.9,4.1-9.6,4.5l-3.3,0.4c-3.5,0-6.5-1.2-9.2-3.9c-2-1.8-3.9-4.5-5.3-8c-1.6-3.5-2.4-7.4-2.4-11.9
		c0-3.5,0.6-7.4,1.8-11.2c1-3.9,3.1-8.2,5.9-12.5l-30.9-20c-9,14.9-13.5,29.6-13.5,43.9c0,18.6,6.5,34.1,19.8,47
		c10,8.8,21.5,13.1,34.5,13.1c3.1,0,6.3-0.2,9.4-0.8c16.5-3.5,31.5-13.9,44.3-31.3c5.5-7.8,9.6-16.8,12.3-26.8
		c2.5-10,4.5-21.2,6.3-34.1c3.9-26.4,6.5-55.8,8.4-88.3c3.1-65.6,4.3-118.5,4.1-159v-5.5l-36-5.3c-2.2,8-4.9,17-7.8,27.4
		c-3.5,12.9-7.2,26.2-11.2,39.8c-3.9,12.5-8.2,24.1-12.5,34.5c-4.5,10.6-8.8,18.6-12.9,24.1c-9,11.4-15.7,18.6-20.2,21.2
		c-0.8,0.6-1.6,1-2,1.4c-0.4-0.6-0.6-1-1-1.8c-1.8-3.9-3.7-10.2-5.3-18.6c-2-13.7-3.1-28.8-3.1-45.4c0-27,1.4-50.7,4.5-71.1
		l-36.4-5.1c-1.4,9.2-2.7,20.2-3.7,33.5c-1,13.3-1.6,27-1.6,41.5c0,18.2,1.2,35.8,3.9,52.9C781.7,309.3,784.6,318.9,788.9,327.6z"/>
	<path d="M277.9,697.1c0.5,0.6,1.1,1,1.9,1.2l35.2,5.9c0.9,0,1.6-0.3,2.2-0.8c0.6-0.6,1-1.3,1-2.2l4.8-91.2l56-66.8
		c0.3-0.8,0.4-1.6,0.1-2.3c-0.3-0.8-0.8-1.3-1.6-1.7l-9.5-4.2l5.9-7.2c0.3-0.9,0.4-1.7,0.1-2.4c-0.3-0.7-0.8-1.3-1.6-1.8L338.7,509
		c-1.4-0.5-2.6-0.3-3.7,0.8l-36,43.7l-24.9-40.7c-0.5-0.7-1.2-1.1-2-1.3c-0.8-0.2-1.6,0-2.3,0.4l-4.8,3l-5.9-9.5
		c-0.4-0.7-1.1-1.1-1.9-1.3c-0.8-0.2-1.6,0-2.3,0.4l-29.1,18.9c-0.8,0.5-1.3,1.2-1.4,2c-0.2,0.8,0,1.5,0.4,2.2l43.7,72l-1.3,85.6
		c0,0.8,0.2,1.5,0.7,2.1c0.5,0.6,1.1,1,1.9,1.2l7.4,1.2l-0.1,5.5C277.1,695.8,277.4,696.5,277.9,697.1z M273.5,682.6l1.3-84
		c0-0.6-0.2-1.2-0.5-1.7l-42.5-70.1l23.9-15.5l34.6,56.2c0.4,0.8,1.1,1.3,1.9,1.4c0.8,0.2,1.6,0,2.3-0.4c0.3-0.3,0.7-0.5,0.9-0.8
		l43.1-52.3l27.7,12.1l-58.2,69.1c-0.5,0.5-0.8,1.2-0.8,2l-4.7,88.7L273.5,682.6z"/>
	<path d="M400.8,619.5c0.5,6,1.5,11.7,3,17.3c1.5,5.6,3.7,10.6,6.6,15.1c2.9,4.5,6.7,8,11.4,10.7c4.7,2.7,10.6,4,17.6,4
		c5.9,0,11.5-1.4,16.8-4.2c5.3-2.8,9.9-7.5,13.8-13.9c3.2-5.2,5.7-11.8,7.6-19.8c1.8-8,2.7-17.5,2.7-28.5c0-7.8-0.7-15.1-2-21.9
		c-1.3-6.7-3.4-12.6-6.4-17.7c-3-5-6.9-9-11.7-12c-4.9-3-10.9-4.6-18-5c-8.3-0.2-15.3,1.4-20.7,4.8c-5.5,3.4-9.8,8-13,13.8
		c-3.2,5.8-5.4,12.2-6.7,19.2c-1.3,7-1.9,13.9-1.8,20.7C400,607.8,400.3,613.6,400.8,619.5z M416.2,608.5
		c0.4-16.4,3.7-28.5,9.7-36.5c5.7-7.9,13.4-12,23.1-12.1c6.3-0.3,12.2,0.9,17.7,3.8c2.3,4,4.2,9,5.5,15c1.3,6,2,13.2,2,21.5
		c0,10.4-0.8,19.4-2.5,26.8c-1.7,7.4-3.9,13.5-6.8,18.3c-3.3,5.3-7.2,9.2-11.5,11.5c-4.4,2.4-9,3.6-13.9,3.6c-2.6,0-5.2-0.3-7.7-0.8
		c-2.5-0.5-4.9-1.4-7-2.6c-3.7-6.6-6.2-14.4-7.2-23.3C416.4,624.8,415.9,616.4,416.2,608.5z"/>
	<path d="M396.2,675.6c6.7,8.2,14.6,14.3,23.7,18.3c9.1,4,19,6,29.6,6c10.3,0,19.4-1.7,27.3-5c8-3.3,14.8-8,20.5-13.8
		c5.7-5.9,10.5-12.7,14.2-20.4c3.7-7.7,6.4-16,8.2-24.9s2.6-17.9,2.6-27c0-8.9-0.7-17.1-2-24.7c-1.3-7.6-3.2-14.6-5.7-20.9
		c-5.5-13.7-13-24.3-22.7-32c-6.7-8.2-14.5-14.3-23.4-18.4c-8.9-4.1-18.5-6.1-28.6-6.1c-10,0-19,1.8-26.9,5.3
		c-7.9,3.6-14.8,8.4-20.5,14.5c-5.8,6.1-10.6,13.1-14.4,21c-3.8,7.9-6.7,16.2-8.5,25.1c-1.9,8.9-2.8,17.7-2.8,26.5
		c0,10.8,1,21,3.1,30.5c2.1,9.6,5.3,18.2,9.7,26C384,663.5,389.5,670.1,396.2,675.6z M372.9,599.1c0-8.1,0.8-16.2,2.5-24.5
		c1.7-8.2,4.3-16,7.7-23.4c3.4-7.4,7.8-14,13.1-19.8c5.3-5.8,11.6-10.3,18.9-13.7c7.3-3.3,15.5-5,24.9-5c9.3,0,18,1.9,26.2,5.7
		c8.1,3.8,15.2,9.4,21.3,16.9c4.7,5.8,8.4,12.2,11.2,19.2c2.8,7,4.8,14.3,5.9,21.9c1.2,7.6,1.8,15,1.8,22.4
		c0,17.6-2.8,32.7-8.3,45.4c-5.6,12.7-13.4,22.4-23.4,29.2c-10,6.8-21.7,10.2-35,10.2c-10.1,0-19.3-1.9-27.6-5.6
		c-8.3-3.7-15.4-9.3-21.2-16.7c-5.7-7.1-10.2-15.9-13.3-26.4C374.5,624.6,372.9,612.6,372.9,599.1z"/>
	<path d="M602.8,699.1c10.6,0,20.2-2.5,28.6-7.4c8.5-5,15.9-12.6,22.1-23c12.2-19.9,19.7-51.3,22.4-94.1c0.1-1.2,0.2-4.2,0.4-9.1
		c0.2-4.8,0.3-10.2,0.5-16.1c0.2-5.9,0.3-11.1,0.5-15.5c0.1-4.4,0.1-6.7-0.1-6.7c0-0.9-0.3-1.6-0.8-2.2c-0.5-0.6-1.2-0.9-2-1
		l-7.2-0.9c0-0.2,0-0.6,0-1.2c0-0.6,0-1.3,0-2c0-0.7,0-1.6,0-2.7c0-0.9-0.3-1.6-0.8-2.2c-0.5-0.6-1.2-0.9-2-1l-38.1-5
		c-1-0.1-1.8,0.2-2.4,0.7c-0.7,0.6-1,1.4-1,2.4c0.4,22.3,0,43.4-1.2,63.5c-1.3,20.1-3.7,37.4-7.2,51.9c-2.7,10.5-6,18.6-10,24.1
		c-4,5.6-8.6,8-13.9,7.2c-3.7-9.1-5.4-24.2-5-45.3c0.4-22.5,3.3-52.1,8.5-88.8c0.1-1-0.1-1.8-0.7-2.5c-0.5-0.7-1.3-1.1-2.2-1.2
		l-7.8-0.5c0.3-1.9,0.5-3.8,0.8-5.7c0.1-1-0.1-1.8-0.7-2.5c-0.5-0.7-1.3-1.1-2.2-1.2l-39.3-2.7c-0.9-0.1-1.6,0.2-2.2,0.7
		c-0.6,0.6-1,1.3-1,2.2c-0.6,7.3-1.3,15.1-2,23.5c-1.1,11.5-2.1,23.1-2.9,34.9c-0.8,11.8-1.1,23.3-0.9,34.6
		c0.2,29.8,4.9,51.4,14.1,64.6c3,4.3,6.4,7.8,10.4,10.7c4.8,6.6,10.9,11.4,18.4,14.5C583.5,697.5,592.4,699.1,602.8,699.1z
		 M552.4,665.7c-8.5-12.2-12.9-32.5-13-61.1c-0.1-11.1,0.3-22.5,1-34.2c0.8-11.7,1.7-23.3,2.7-34.8c0.6-6.9,1.2-13.7,1.7-20.5
		l33,2.2c-7,49.3-9.5,85.8-7.7,109.6c1,13,3.5,22.7,7.2,29c3.8,6.3,8.9,9.5,15.5,9.5c12.2,0,21.4-12,27.7-36c3.6-14.2,6-31,7.4-50.6
		c1.3-19.5,1.8-40.6,1.4-63.1l32,4.2c-0.1,6.7-0.2,13.1-0.3,19.3c-0.3,13-1,26.6-2.3,40.8c-1.3,14.1-3.6,27.7-6.8,40.8
		c-3.2,13.1-7.7,24.7-13.6,34.8c-5.6,9.3-12.2,16.2-19.8,20.6c-7.6,4.4-16.2,6.7-25.6,6.7c-9.5,0-17.5-1.4-24.2-4.1
		C562,676,556.6,671.7,552.4,665.7z"/>
	<path d="M784.4,698.2c0.7,0.2,1.5,0.2,2.2-0.2l33.8-13.4c1-0.4,1.7-1.2,1.8-2.2c0.2-1-0.1-1.9-0.8-2.8l-58.3-65.4
		c8.5-1.7,16.3-4.3,23.4-8c7.1-3.7,12.8-8.7,17.2-15c4.3-6.3,6.7-14.2,7.2-23.8c0.2-7.8-1.6-15.2-5.3-22
		c-3.3-6.1-7.7-11.2-13.2-15.3c-2.7-3.6-5.8-6.7-9.3-9.4c-6.1-4.6-12.8-8-20.3-10.2c-7.4-2.2-15-3.2-22.6-3.1
		c-5,0.2-10.5,0.8-16.4,1.8c-5.9,1-11.9,2.2-17.9,3.4c-4.4,1-8.7,1.8-12.7,2.5c-0.8,0.2-1.4,0.5-1.8,1.1c-0.4,0.6-0.7,1.2-0.8,2v170
		c0,1,0.3,1.7,0.9,2.3c0.6,0.6,1.4,0.8,2.3,0.8l6.7-0.5v7.3c0,1,0.3,1.7,0.9,2.3c0.6,0.6,1.4,0.8,2.3,0.8l35.2-3
		c0.9-0.1,1.6-0.4,2.1-1c0.5-0.6,0.8-1.2,0.8-2v-52.2l30.9,44c0.4,0.6,1,1,1.7,1.2c0.7,0.2,1.3,0.1,2-0.1l6.3,8.9
		C783.1,697.6,783.7,698,784.4,698.2z M754.7,650.7c-7.7-11-15.5-22.1-23.2-33.1c-1-1.3-2.3-1.7-3.7-1.3c-1.4,0.4-2.1,1.4-2.1,2.9
		v63.4l-29.1,2.3l0.1-164.1c3-0.6,6.3-1.2,9.7-1.8c5.9-1.3,11.8-2.5,17.7-3.5c5.9-1,11.3-1.6,16-1.7c7-0.2,13.8,0.7,20.6,2.7
		c6.8,2,12.9,5,18.4,9.2c4.5,3.6,8.2,8,11.2,13.2c2.9,5.3,4.4,10.8,4.4,16.6c0,7.1-1.3,13.2-3.8,18.3c-2.5,5-6,9.3-10.4,12.7
		c-4.4,3.5-9.6,6.2-15.4,8.3c-5.8,2-12,3.6-18.5,4.6c-1.3,0.3-2.1,0.9-2.5,2c-0.3,1.1-0.1,2.2,0.8,3.2l59.1,66.1l-27.7,11
		C769.2,671.2,762,660.9,754.7,650.7z"/>
	<path d="M761.3,575.2c3.4-4.6,5-10.7,4.7-18.3c-0.3-3.9-1.8-6.8-4.7-8.8c-2.9-2-6.4-3.2-10.5-3.8c-4.1-0.6-8.2-0.8-12.3-0.6
		c-4,0.2-7.3,0.4-9.9,0.7c-0.8,0.1-1.5,0.4-2,1c-0.6,0.6-0.8,1.3-0.8,2.2v39c0,0.9,0.3,1.6,0.9,2.2c0.6,0.6,1.3,0.9,2.1,0.9
		c6.9-0.5,13.2-1.9,18.9-4.2C753.3,583.3,757.9,579.9,761.3,575.2z M741.8,560.2c6-0.6,12-0.6,18,0.1c-0.4,5.7-2.2,10.2-5.4,13.5
		c-3.2,3.3-7.4,5.8-12.6,7.2V560.2z"/>
	<ellipse transform="matrix(0.8659 -0.5002 0.5002 0.8659 -217.8436 537.5099)" cx="893.6" cy="675.1" rx="8.2" ry="8.2"/>
	<path d="M903.6,603l-79.2-4.3c-4.1-0.2-7.6,2.9-7.9,7c-0.2,4.1,2.9,7.7,7.1,7.9l79.2,4.3c4.1,0.2,7.6-2.9,7.9-7l0,0
		C910.9,606.8,907.7,603.2,903.6,603z"/>
	<circle cx="891.6" cy="541.5" r="8.2"/>
	<path d="M865.5,542.8l-43.6,12c-3.9,1.1-6.3,5.1-5.3,9c1,4.1,5.2,6.5,9.2,5.4l43.6-12c3.9-1.1,6.3-5.1,5.3-9v0
		C873.7,544.1,869.6,541.7,865.5,542.8z"/>
	<path d="M877.6,669.4c1-3.9-1.3-8-5.3-9l-43.6-12c-4-1.1-8.2,1.3-9.2,5.4v0c-1,3.9,1.3,8,5.3,9l43.6,12
		C872.4,675.9,876.5,673.5,877.6,669.4L877.6,669.4z"/>
	<ellipse transform="matrix(0.5002 -0.8659 0.8659 0.5002 -504.4812 476.1357)" cx="160.2" cy="675.1" rx="8.2" ry="8.2"/>
	<path d="M237.4,605.7c-0.2-4.1-3.8-7.3-7.9-7l-79.2,4.3c-4.1,0.2-7.3,3.8-7.1,7.9v0c0.2,4.1,3.8,7.3,7.9,7l79.2-4.3
		C234.5,613.4,237.6,609.9,237.4,605.7z"/>
	<ellipse transform="matrix(0.7071 -0.7071 0.7071 0.7071 -335.3428 273.3522)" cx="162.3" cy="541.5" rx="8.2" ry="8.2"/>
	<path d="M231.9,554.8l-43.6-12c-4-1.1-8.2,1.3-9.2,5.4v0c-1,3.9,1.3,8,5.3,9l43.6,12c4,1.1,8.2-1.3,9.2-5.4
		C238.2,559.9,235.8,555.9,231.9,554.8z"/>
	<path d="M185.5,674.8l43.6-12c3.9-1.1,6.3-5.1,5.3-9v0c-1-4.1-5.2-6.5-9.2-5.4l-43.6,12c-3.9,1.1-6.3,5.1-5.3,9
		C177.3,673.5,181.5,675.9,185.5,674.8z"/>
</g>
</svg>
