<?xml version="1.0" encoding="utf-8"?>
<!-- Generator: Adobe Illustrator 22.0.0, SVG Export Plug-In . SVG Version: 6.00 Build 0)  -->
<svg version="1.1" id="Layer_1" xmlns="http://www.w3.org/2000/svg" xmlns:xlink="http://www.w3.org/1999/xlink" x="0px" y="0px"
	 viewBox="0 0 1080 1080" style="enable-background:new 0 0 1080 1080;" xml:space="preserve">
<style type="text/css">
	.st0{fill:#050505;}
</style>
<g>
	<g>
		<g>
			<path class="st0" d="M608.6,270.1c-1.3,1.7-1.7,3.9-3,5.7c-0.4,1.3-1.3,2.2-1.7,3c-4.8-6.1-11.3-11.3-19.6-15.2
				c-13.9-7-36.6-12.6-70.1-7.8c-58.8,8.3-107.9,34.8-130.1,68.8c0,0.4-0.4,0-0.9-0.4c-10.9-8.3-11.3-9.6,0.4-24.8
				c24.8-30,130.6-84,213.7-61.4C616.8,248.7,615.1,258.3,608.6,270.1z M541.1,408.4c-2.2-16.1-47.9-3.9-61.4-1.7
				c-11.8,57.9-19.6,113.2-13.1,118.8c-5.7,0.4-11.3,0.4-16.5,0c-8.7-1.3-17.8-3-19.6-9.6c-4.8-16.1,5.2-62.2,14.4-97.9
				c-12.6,3.5-19.6,7.8-30,9.1c-7.4,1.3-13.5-7.8-10.4-16.5c13.9,3.5,25.2,1.7,44-5.7c0-2.6,0.9-6.1,26.5-115.3
				c0.4-0.4,0.4-1.3,0.4-2.2c0.4-0.4,0.4-0.4,0.4-0.4c0.9-4.8,0.9-8.7-0.4-11.7l-1.7-4.4l1.3-1.3h0.9c3.9-0.4,7.8,0,10.9,0.4
				c5.7,1.3,11.7,3,14.8,7c3.9,6.5,0.9,20.5-0.9,29.6c-0.4,2.2-0.9,3.5-0.9,3.9c-0.4,0.4-0.4,0.9-0.4,1.3
				c-6.5,27.4-12.2,54-17.8,83.6c33.1-11.3,47.9-20,57-14.4C544.6,384.9,544.6,401.5,541.1,408.4z"/>
			<path class="st0" d="M569.8,449.4c0,134.9,48.3-16.1,57.9-44.8c3.9,0,8.3,0.4,9.6,5.2c-17,67.9-37.4,108.4-50.9,117.1
				c-3.5,2.2-23.9-5.7-26.1-9.1C518,454.6,572,243.1,599.4,219.1h4.4c8.3,0,15.2,1.7,21.8,7C597.7,288.8,569.8,378.4,569.8,449.4z"
				/>
			<path class="st0" d="M642.9,444.6l21.8-41.3c11.7-20.9,22.6-41.3,25.7-41.3c5.7,0,20.9,0.4,20.9,8.7c0,8.3-10,100.5,0.9,106.2
				c-3.9,2.2-7.4,3.5-10.4,4.8c-5.7,2.2-12.2,3.5-14.4,0.4c-7-9.6-6.1-37.9-1.3-64.8l4.8-30.9c0.4-1.7,0.4-2.2,0-1.7
				c-3,4.8-6.5,9.6-9.6,14.8c-5.7,8.7-12.6,20.5-19.2,32.2c-12.2,22.6-14.4,27-17,27c-2.2,0.4-6.1,0-9.6-1.3l-7-1.7
				c-2.6-17-3.5-33.5-2.2-49.6c2.2-26.5,10-58.3,36.6-74.4c29.6-18.7,66.2-2.6,66.2,7.8c0,5.2-2.2,10-4.4,14.8
				c-1.3,2.6-2.6,4.8-4.4,7c-4.4-3.5-9.1-6.1-14.4-8.3c-8.7-3.5-20.9-5.2-33.1,1.3C642.1,370.1,636.9,443.3,642.9,444.6z"/>
			<path class="st0" d="M794,431.5l4.8,3.9c17,19.1,7,36.6-10.4,55.3c-17.4,19.6-37,18.7-44,10.4c-4.8-4.8-17-12.2-14.8-29.2
				c0.4-3.5,12.6-20.5,37-39.2c-15.7-8.7-38.3-23.5-46.6-40.9c-9.6-18.7,21.8-69.2,60.5-101.8c14.8-10.4,27,1.3,35.3,10.9
				c-6.1,3.5-27.9,22.2-36.1,32.6c-32.2,39.2-35.3,48.3-36.6,58.8c-0.9,8.3,20,21.3,36.6,30.9c0.4-0.4,0.9-0.9,1.3-0.9
				c13.9-10,27-16.1,44-19.1c8.7,3.5,9.1,4.4,6.1,9.6C818.8,415.8,808.3,419.8,794,431.5z M785.3,447.2c0.4-1.3-1.3-3.5-4.4-6.5
				c-22.6,17-42.6,33.9-37,40.9C750.9,491.1,783.1,457.2,785.3,447.2z"/>
			<path class="st0" d="M900.6,497.2c-4.8,0.9-9.1,0.9-12.6,0.4c-6.5-0.4-12.6-3-12.6-9.6c0-54,33.9-135.3,30-133.2
				c-13.5,5.7-53.1,77-63.5,116.6l0.9,0.9c-0.4,0-0.9,0.4-1.3,0.4v0.4c-3.9,1.7-11.3,5.7-17.8,4.4c-3.9-0.9-6.1-2.6-7-4.8
				c-0.9-1.3-1.3-2.6-1.3-3.9c0-4.8,0-10,0.4-15.2l-0.4-0.4l0.4-0.4c3.5-45.7,17.4-110.1,35.7-168c8.3-24.4,16.5-47,24.8-66.6
				c10-1.3,18.7,0.4,27,6.1c-6.5,13.5-13.9,29.6-20.9,48.7c-15.2,38.3-26.5,90.5-27.9,95.7c-4.8,22.2-8.3,41.8-10.4,57.4
				c18.3-40.5,48.3-91.8,61.8-90.5c7,0,25.7,11.8,25.7,14.8C931.5,352.7,897.1,441.5,900.6,497.2z"/>
		</g>
	</g>
	<g>
		<g>
			<path class="st0" d="M386.7,605c-1.3,1.7-1.7,3.9-3,5.7c-0.4,1.3-1.3,2.2-1.7,3c-4.8-6.1-11.3-11.3-19.6-15.2
				c-13.9-7-36.6-12.6-70.1-7.8c-58.8,8.3-107.9,34.8-130.1,68.8c0,0.4-0.4,0-0.9-0.4c-10.9-8.3-11.3-9.6,0.4-24.8
				c24.8-30,130.6-84,213.7-61.4C394.9,583.7,393.2,593.3,386.7,605z M319.2,743.4c-2.2-16.1-47.9-3.9-61.4-1.7
				c-11.8,57.9-19.6,113.2-13.1,118.8c-5.7,0.4-11.3,0.4-16.5,0c-8.7-1.3-17.8-3-19.6-9.6c-4.8-16.1,5.2-62.2,14.4-97.9
				c-12.6,3.5-19.6,7.8-30,9.1c-7.4,1.3-13.5-7.8-10.4-16.5c13.9,3.5,25.2,1.7,44-5.7c0-2.6,0.9-6.1,26.5-115.3
				c0.4-0.4,0.4-1.3,0.4-2.2c0.4-0.4,0.4-0.4,0.4-0.4c0.9-4.8,0.9-8.7-0.4-11.8l-1.7-4.4l1.3-1.3h0.9c3.9-0.4,7.8,0,10.9,0.4
				c5.7,1.3,11.8,3,14.8,7c3.9,6.5,0.9,20.5-0.9,29.6c-0.4,2.2-0.9,3.5-0.9,3.9c-0.4,0.4-0.4,0.9-0.4,1.3
				c-6.5,27.4-12.2,54-17.8,83.6c33.1-11.3,47.9-20,57-14.4C322.7,719.9,322.7,736.4,319.2,743.4z"/>
			<path class="st0" d="M347.9,784.3c0,134.9,48.3-16.1,57.9-44.8c3.9,0,8.3,0.4,9.6,5.2c-17,67.9-37.4,108.4-50.9,117.1
				c-3.5,2.2-23.9-5.7-26.1-9.1c-42.2-63.1,11.8-274.6,39.2-298.5h4.4c8.3,0,15.2,1.7,21.8,7C375.8,623.7,347.9,713.4,347.9,784.3z"
				/>
			<path class="st0" d="M530.3,744.7c-2.6,7.8-5.7,14.8-9.1,20.5c-6.5,10.4-15.2,20.5-26.1,20.5c-2.6,0-4.8-0.4-7-1.3
				c-8.7,24.4-21.3,46.1-40.5,57.9c-32.6,19.6-56.1-39.6-40-112.7c16.1-72.7,41.8-82.3,49.2-84.4c7.4-2.2,29.2-6.1,39.6,11.3
				c10.4,16.5,3,27.9-1.7,27.9c-2.2,0.4-4.4,0.4-5.7,0.4c-0.9,0-1.7,0-2.2,0.4c0.9-4.4,1.3-8.3,1.7-12.2c0.4-6.5-0.4-14.4-5.2-17.8
				c-8.7-6.5-34.4,19.1-49.2,74.4c-13.9,55.3-1.3,106.2,5.7,101.4c18.7-11.8,30-35.7,37-60.1c-9.1-23.9-4.8-67.5,1.3-70.9
				c4.8-3,10.9-3.9,16.1-4.4c3.5-0.4,7-1.3,8.3,0c1.7,1.7,0.4,37.4-10,74.9c0.9,1.7,2.2,2.6,3.9,2.2c3.9-1.3,10.4-9.6,15.2-17.8
				c3-4.8,5.7-10.4,8.7-16.1C525.9,738.6,528.1,741.2,530.3,744.7z"/>
			<path class="st0" d="M584.2,766.5l4.8,3.9c17,19.2,7,36.6-10.4,55.3c-17.4,19.6-37,18.7-44,10.4c-4.8-4.8-17-12.2-14.8-29.2
				c0.4-3.5,12.6-20.5,37-39.2c-15.7-8.7-38.3-23.5-46.6-40.9c-9.6-18.7,21.8-69.2,60.5-101.8c14.8-10.4,27,1.3,35.3,10.9
				c-6.1,3.5-27.9,22.2-36.1,32.6c-32.2,39.2-35.3,48.3-36.6,58.8c-0.9,8.3,20,21.3,36.6,30.9c0.4-0.4,0.9-0.9,1.3-0.9
				c13.9-10,27-16.1,44-19.1c8.7,3.5,9.1,4.4,6.1,9.6C609.1,750.8,598.6,754.7,584.2,766.5z M575.5,782.1c0.4-1.3-1.3-3.5-4.4-6.5
				c-22.6,17-42.6,33.9-37,40.9C541.2,826.1,573.4,792.1,575.5,782.1z"/>
			<path class="st0" d="M676.9,766.5l4.8,3.9c17,19.2,7,36.6-10.4,55.3c-17.4,19.6-37,18.7-44,10.4c-4.8-4.8-17-12.2-14.8-29.2
				c0.4-3.5,12.6-20.5,37-39.2c-15.7-8.7-38.3-23.5-46.6-40.9c-9.6-18.7,21.8-69.2,60.5-101.8c14.8-10.4,27,1.3,35.3,10.9
				c-6.1,3.5-27.9,22.2-36.1,32.6c-32.2,39.2-35.2,48.3-36.6,58.8c-0.9,8.3,20,21.3,36.6,30.9c0.4-0.4,0.9-0.9,1.3-0.9
				c13.9-10,27-16.1,44-19.1c8.7,3.5,9.1,4.4,6.1,9.6C701.7,750.8,691.3,754.7,676.9,766.5z M668.2,782.1c0.4-1.3-1.3-3.5-4.4-6.5
				c-22.6,17-42.6,33.9-37,40.9C633.9,826.1,666.1,792.1,668.2,782.1z"/>
		</g>
	</g>
	<g>
		<path class="st0" d="M245.6,354.1c-9.6-2.1-19.1-2.2-29.1-0.5c0.7-3,1.1-5.7,1.9-8.3c10-35.3,43.3-60.2,82.3-57.6
			c35.6,2.3,66.7,30.6,72,66.5c1.2,8.4,1.2,17,1.5,25.5c0.9,34.1,1.7,68.1,2.5,102.2c0.3,13.7,0.7,27.4,1,41c0,0.9,0,1.8,0,2.9
			c-9.4,0-18.8,0-28.4,0c-0.1-2.4-0.3-4.8-0.3-7.2c-1-42-2-84.1-3.1-126.1c-0.2-9-0.5-17.9-0.7-26.9c-0.6-24.7-18.8-45.3-43.2-48.9
			c-24.1-3.6-47.5,10.9-55.3,34.3C246.3,352,246,352.9,245.6,354.1z"/>
		<path class="st0" d="M290.6,401.9c-40.5,0-80.9,0-121.2,0c5.1-18.8,26.4-43.3,59.7-43.7C262.5,357.8,284.8,381.6,290.6,401.9z"/>
		<path class="st0" d="M229.7,422c-20,0-40,0-60.1,0c-4.5,0-7.5-2.3-8.1-6c-0.7-4.7,2.6-8.3,7.7-8.3c7.5-0.1,15,0,22.6,0
			c21.5,0,43.1,0,64.6,0c11.3,0,22.6,0,33.9,0c3.2,0,5.9,1.1,7.3,4.2c1.2,2.6,0.9,5.2-0.9,7.4c-1.7,2.2-4.1,2.8-6.8,2.8
			C270,422,249.9,422,229.7,422z"/>
		<path class="st0" d="M159.4,498.7c4.3,3.4,8.1,6.9,10,12c2,5.1,0.5,10.3-3.6,13.4c-3.8,2.8-9,2.8-12.9,0c-4-2.9-5.5-8.1-3.7-13.1
			C151.2,505.7,155,502.1,159.4,498.7z"/>
		<path class="st0" d="M176.7,463.9c4.5,3.4,8.4,7.1,10.2,12.4c2.5,7.1-1.8,14.3-8.8,15c-8.1,0.8-14.1-6.4-11.7-14.3
			C168,471.4,172.1,467.6,176.7,463.9z"/>
		<path class="st0" d="M282.6,463.9c4.6,3.6,8.7,7.4,10.3,13.1c1.3,4.3,0.4,8.3-2.9,11.5c-3.3,3-7.2,3.7-11.4,2.2
			c-5.8-2.1-8.5-8.8-6.1-14.9C274.5,470.8,278.2,467.2,282.6,463.9z"/>
		<path class="st0" d="M300.5,498.7c4.5,3.4,8.3,7.1,10.2,12.5c1.7,4.8,0.2,10-3.7,12.9c-3.7,2.8-8.9,2.8-12.7,0.2
			c-4-2.9-5.7-7.9-4.1-12.8C292,506,295.9,502.2,300.5,498.7z"/>
		<path class="st0" d="M264.5,429.2c4,2.9,7.3,6.2,9.5,10.5c3.1,6.2,1.1,12.9-4.4,15.8c-4,2.1-8.8,1.5-12.2-1.4c-3.5-3-4.7-8-3-12.6
			C256.4,436.2,260.2,432.6,264.5,429.2z"/>
		<path class="st0" d="M194.8,498.8c4.3,3.5,8.2,7.1,10.1,12.4c1.7,4.9,0.3,9.9-3.7,12.9c-3.7,2.8-8.8,2.9-12.7,0.2
			c-3.9-2.7-5.6-7.8-4.2-12.5C185.7,507.1,189.6,502.2,194.8,498.8z"/>
		<path class="st0" d="M229.9,498.7c4.5,3.5,8.4,7.2,10.2,12.5c1.7,5,0.1,10.1-4,13c-3.7,2.6-9.1,2.6-12.7-0.2
			c-3.9-3-5.4-8.1-3.7-12.9C221.6,505.8,225.5,502.1,229.9,498.7z"/>
		<path class="st0" d="M194.1,429.2c4.3,3.5,8.1,7,10,12.1c1.8,5,0.5,10.2-3.5,13.2c-3.8,2.9-9.4,2.9-13.2,0
			c-3.9-3-5.4-8.2-3.5-13.2C185.9,436.1,189.7,432.5,194.1,429.2z"/>
		<path class="st0" d="M212,463.9c4.5,3.4,8.4,7.2,10.2,12.5c2,5.7-0.6,11.8-5.9,14.1c-5.3,2.3-11.5,0-14.1-5.2
			c-1.6-3.2-1.5-6.5-0.2-9.7C204.1,470.7,207.8,467.2,212,463.9z"/>
		<path class="st0" d="M228.8,428.8c5,3.9,9,7.6,10.8,13.1c2,6-1,12.2-6.7,14.1c-5.6,1.9-11.6-0.8-13.8-6.4c-1.4-3.7-1-7.5,1.2-10.6
			C222.9,435.4,225.9,432.2,228.8,428.8z"/>
		<path class="st0" d="M265.2,498.8c4.3,3.1,7.9,6.7,10,11.6c2.1,5,0.7,10.5-3.2,13.5c-4,3.1-9.4,3.1-13.4,0.1
			c-4-3.1-5.4-8.4-3.3-13.5C257.2,505.5,260.9,501.9,265.2,498.8z"/>
		<path class="st0" d="M247.2,463.9c4.6,3.5,8.5,7.3,10.3,12.7c1.9,5.6-0.5,11.4-5.6,13.8c-4,1.9-8.7,1.2-11.9-1.7
			c-3.4-3.1-4.6-7.8-2.9-12.4C239,471,242.9,467.4,247.2,463.9z"/>
	</g>
	<g>
		<path class="st0" d="M775.3,677.3c0-3.3-0.2-5.9,0-8.5c0.4-4.2-1-6.3-5.3-7.8c-23.4-8-32.9-21.8-32.8-46.1c0.1-14.8,0-29.6,0-45
			c52.4,0,104.1,0,156.3,0c0,19.7,1.4,39.2-0.4,58.5c-1.4,15.1-12.8,24.5-26.3,30.6c-3.3,1.5-6.8,2.5-10.5,3.9c0,4.6,0,9.3,0,14.3
			c4.6,1.3,9.1,2.2,13.5,3.8c6.6,2.5,13.3,4.7,19.3,8.3c14.8,8.7,15.3,21.6,0,29.1c-13.1,6.4-27.7,10.8-42.1,13.3
			c-29.3,5-58.8,3.6-87.4-5.3c-7.6-2.3-15.1-6.1-21.5-10.7c-9.6-6.9-9.7-16.7,0-23.2c8.1-5.4,17.6-8.6,26.7-12.5
			C767.8,678.7,771.2,678.3,775.3,677.3z M822.8,684.1c-12,0.7-22.4,0.7-32.7,2.1c-9.2,1.3-18.4,3.5-27.1,6.7
			c-3.6,1.3-7.8,6.2-8.1,9.7c-0.3,2.9,4.5,6.8,7.8,9.2c2.8,2,6.7,2.9,10.2,3.7c24.6,5.7,49.5,6.1,74.4,2.2c6.6-1,13.5-2.4,19.4-5.3
			c4.1-2,9.6-6.8,9.5-10.2c-0.1-3.6-5.9-7.3-9.9-10.2c-2.6-1.9-6.2-2.6-9.5-3.1C845,687.1,833.2,685.6,822.8,684.1z"/>
		<path class="st0" d="M733.6,718.1c34.1,28.9,133.9,27.1,163.2,1.6c-1.2,2.6-1.9,5.5-3.6,7.7c-11.4,15.1-22.8,30.3-34.7,45
			c-2.8,3.5-4.5,6.2-3.7,10.9c2.2,12.3,3.4,24.8,5.6,37.1c0.8,4.7-0.9,7.3-4.8,8.2c-10.8,2.5-21.8,6.3-32.7,6.3
			c-15.2-0.1-30.3-3-45.4-5.4c-5.5-0.9-7.7-4.6-6.4-11c2.4-11.7,3.9-23.6,5-35.6c0.3-3.2-1.3-7.3-3.3-10
			c-11.1-14.7-22.6-29.1-33.8-43.8C736.9,726.4,735.9,722.8,733.6,718.1z"/>
		<path class="st0" d="M800.9,549.5c3.5-12.5,13.3-5.5,20.1-6.9c4.5-0.9,9.6-0.8,8.2,6.9c19.9,0,38.9,0,57.8,0
			c2.3,0,5.2-0.8,6.9,0.3c2.5,1.5,5.9,4.5,5.7,6.5c-0.3,2.7-3.3,6.7-5.8,7.2c-5.5,1.1-11.4,0.4-17.1,0.4c-44,0-88.1,0-132.1,0
			c-2.1,0-4.2,0-6.3,0c-4.7-0.1-7.2-2.4-7.2-7.2c0-4.9,2.6-7,7.3-7c16.2,0,32.3,0,48.5,0C791.6,549.5,796.3,549.5,800.9,549.5z"/>
		<path class="st0" d="M760.7,702.3c15.1-15.3,93.4-15.5,110.2,0.2c-4,4.6-8.7,6.8-14.9,5.5c-26.9-5.4-53.8-5.4-80.7-0.1
			C769.3,709.2,765.3,707.6,760.7,702.3z"/>
	</g>
</g>
</svg>
