  0
SECTION
  2
HEADER
  9
$ACADVER
  1
AC1024
  9
$ACADMAINTVER
 70
     6
  9
$DWGCODEPAGE
  3
ANSI_1252
  9
$INSBASE
 10
0.0
 20
0.0
 30
0.0
  9
$EXTMIN
 10
1.000000000000000E+20
 20
1.000000000000000E+20
 30
1.000000000000000E+20
  9
$EXTMAX
 10
-1.000000000000000E+20
 20
-1.000000000000000E+20
 30
-1.000000000000000E+20
  9
$LIMMIN
 10
0.0
 20
0.0
  9
$LIMMAX
 10
12.0
 20
9.0
  9
$ORTHOMODE
 70
     0
  9
$REGENMODE
 70
     1
  9
$FILLMODE
 70
     1
  9
$QTEXTMODE
 70
     0
  9
$MIRRTEXT
 70
     1
  9
$LTSCALE
 40
1.0
  9
$ATTMODE
 70
     1
  9
$TEXTSIZE
 40
0.2
  9
$TRACEWID
 40
0.05
  9
$TEXTSTYLE
  7
Standard
  9
$CLAYER
  8
0
  9
$CELTYPE
  6
ByLayer
  9
$CECOLOR
 62
   256
  9
$CELTSCALE
 40
1.0
  9
$DISPSILH
 70
     0
  9
$DIMSCALE
 40
1.0
  9
$DIMASZ
 40
0.18
  9
$DIMEXO
 40
0.0625
  9
$DIMDLI
 40
0.38
  9
$DIMRND
 40
0.0
  9
$DIMDLE
 40
0.0
  9
$DIMEXE
 40
0.18
  9
$DIMTP
 40
0.0
  9
$DIMTM
 40
0.0
  9
$DIMTXT
 40
0.18
  9
$DIMCEN
 40
0.09
  9
$DIMTSZ
 40
0.0
  9
$DIMTOL
 70
     0
  9
$DIMLIM
 70
     0
  9
$DIMTIH
 70
     1
  9
$DIMTOH
 70
     1
  9
$DIMSE1
 70
     0
  9
$DIMSE2
 70
     0
  9
$DIMTAD
 70
     0
  9
$DIMZIN
 70
     0
  9
$DIMBLK
  1

  9
$DIMASO
 70
     1
  9
$DIMSHO
 70
     1
  9
$DIMPOST
  1

  9
$DIMAPOST
  1

  9
$DIMALT
 70
     0
  9
$DIMALTD
 70
     2
  9
$DIMALTF
 40
25.4
  9
$DIMLFAC
 40
1.0
  9
$DIMTOFL
 70
     0
  9
$DIMTVP
 40
0.0
  9
$DIMTIX
 70
     0
  9
$DIMSOXD
 70
     0
  9
$DIMSAH
 70
     0
  9
$DIMBLK1
  1

  9
$DIMBLK2
  1

  9
$DIMSTYLE
  2
Standard
  9
$DIMCLRD
 70
     0
  9
$DIMCLRE
 70
     0
  9
$DIMCLRT
 70
     0
  9
$DIMTFAC
 40
1.0
  9
$DIMGAP
 40
0.09
  9
$DIMJUST
 70
     0
  9
$DIMSD1
 70
     0
  9
$DIMSD2
 70
     0
  9
$DIMTOLJ
 70
     1
  9
$DIMTZIN
 70
     0
  9
$DIMALTZ
 70
     0
  9
$DIMALTTZ
 70
     0
  9
$DIMUPT
 70
     0
  9
$DIMDEC
 70
     4
  9
$DIMTDEC
 70
     4
  9
$DIMALTU
 70
     2
  9
$DIMALTTD
 70
     2
  9
$DIMTXSTY
  7
Standard
  9
$DIMAUNIT
 70
     0
  9
$DIMADEC
 70
     0
  9
$DIMALTRND
 40
0.0
  9
$DIMAZIN
 70
     0
  9
$DIMDSEP
 70
    46
  9
$DIMATFIT
 70
     3
  9
$DIMFRAC
 70
     0
  9
$DIMLDRBLK
  1

  9
$DIMLUNIT
 70
     2
  9
$DIMLWD
 70
    -2
  9
$DIMLWE
 70
    -2
  9
$DIMTMOVE
 70
     0
  9
$DIMFXL
 40
1.0
  9
$DIMFXLON
 70
     0
  9
$DIMJOGANG
 40
0.7853981633974483
  9
$DIMTFILL
 70
     0
  9
$DIMTFILLCLR
 70
     0
  9
$DIMARCSYM
 70
     0
  9
$DIMLTYPE
  6

  9
$DIMLTEX1
  6

  9
$DIMLTEX2
  6

  9
$DIMTXTDIRECTION
 70
     0
  9
$LUNITS
 70
     2
  9
$LUPREC
 70
     4
  9
$SKETCHINC
 40
0.1
  9
$FILLETRAD
 40
0.5
  9
$AUNITS
 70
     0
  9
$AUPREC
 70
     0
  9
$MENU
  1
.
  9
$ELEVATION
 40
0.0
  9
$PELEVATION
 40
0.0
  9
$THICKNESS
 40
0.0
  9
$LIMCHECK
 70
     0
  9
$CHAMFERA
 40
0.5
  9
$CHAMFERB
 40
0.5
  9
$CHAMFERC
 40
1.0
  9
$CHAMFERD
 40
0.0
  9
$SKPOLY
 70
     0
  9
$TDCREATE
 40
2459570.899407419
  9
$TDUCREATE
 40
2459570.649407419
  9
$TDUPDATE
 40
2459570.899407454
  9
$TDUUPDATE
 40
2459570.649407454
  9
$TDINDWG
 40
0.0000000116
  9
$TDUSRTIMER
 40
0.0000000116
  9
$USRTIMER
 70
     1
  9
$ANGBASE
 50
0.0
  9
$ANGDIR
 70
     0
  9
$PDMODE
 70
     0
  9
$PDSIZE
 40
0.0
  9
$PLINEWID
 40
0.0
  9
$SPLFRAME
 70
     0
  9
$SPLINETYPE
 70
     6
  9
$SPLINESEGS
 70
     8
  9
$HANDSEED
  5
97
  9
$SURFTAB1
 70
     6
  9
$SURFTAB2
 70
     6
  9
$SURFTYPE
 70
     6
  9
$SURFU
 70
     6
  9
$SURFV
 70
     6
  9
$UCSBASE
  2

  9
$UCSNAME
  2

  9
$UCSORG
 10
0.0
 20
0.0
 30
0.0
  9
$UCSXDIR
 10
1.0
 20
0.0
 30
0.0
  9
$UCSYDIR
 10
0.0
 20
1.0
 30
0.0
  9
$UCSORTHOREF
  2

  9
$UCSORTHOVIEW
 70
     0
  9
$UCSORGTOP
 10
0.0
 20
0.0
 30
0.0
  9
$UCSORGBOTTOM
 10
0.0
 20
0.0
 30
0.0
  9
$UCSORGLEFT
 10
0.0
 20
0.0
 30
0.0
  9
$UCSORGRIGHT
 10
0.0
 20
0.0
 30
0.0
  9
$UCSORGFRONT
 10
0.0
 20
0.0
 30
0.0
  9
$UCSORGBACK
 10
0.0
 20
0.0
 30
0.0
  9
$PUCSBASE
  2

  9
$PUCSNAME
  2

  9
$PUCSORG
 10
0.0
 20
0.0
 30
0.0
  9
$PUCSXDIR
 10
1.0
 20
0.0
 30
0.0
  9
$PUCSYDIR
 10
0.0
 20
1.0
 30
0.0
  9
$PUCSORTHOREF
  2

  9
$PUCSORTHOVIEW
 70
     0
  9
$PUCSORGTOP
 10
0.0
 20
0.0
 30
0.0
  9
$PUCSORGBOTTOM
 10
0.0
 20
0.0
 30
0.0
  9
$PUCSORGLEFT
 10
0.0
 20
0.0
 30
0.0
  9
$PUCSORGRIGHT
 10
0.0
 20
0.0
 30
0.0
  9
$PUCSORGFRONT
 10
0.0
 20
0.0
 30
0.0
  9
$PUCSORGBACK
 10
0.0
 20
0.0
 30
0.0
  9
$USERI1
 70
     0
  9
$USERI2
 70
     0
  9
$USERI3
 70
     0
  9
$USERI4
 70
     0
  9
$USERI5
 70
     0
  9
$USERR1
 40
0.0
  9
$USERR2
 40
0.0
  9
$USERR3
 40
0.0
  9
$USERR4
 40
0.0
  9
$USERR5
 40
0.0
  9
$WORLDVIEW
 70
     1
  9
$SHADEDGE
 70
     3
  9
$SHADEDIF
 70
    70
  9
$TILEMODE
 70
     1
  9
$MAXACTVP
 70
    64
  9
$PINSBASE
 10
0.0
 20
0.0
 30
0.0
  9
$PLIMCHECK
 70
     0
  9
$PEXTMIN
 10
1.000000000000000E+20
 20
1.000000000000000E+20
 30
1.000000000000000E+20
  9
$PEXTMAX
 10
-1.000000000000000E+20
 20
-1.000000000000000E+20
 30
-1.000000000000000E+20
  9
$PLIMMIN
 10
0.0
 20
0.0
  9
$PLIMMAX
 10
12.0
 20
9.0
  9
$UNITMODE
 70
     0
  9
$VISRETAIN
 70
     1
  9
$PLINEGEN
 70
     0
  9
$PSLTSCALE
 70
     1
  9
$TREEDEPTH
 70
  3020
  9
$CMLSTYLE
  2
Standard
  9
$CMLJUST
 70
     0
  9
$CMLSCALE
 40
1.0
  9
$PROXYGRAPHICS
 70
     1
  9
$MEASUREMENT
 70
     0
  9
$CELWEIGHT
370
    -1
  9
$ENDCAPS
280
     0
  9
$JOINSTYLE
280
     0
  9
$LWDISPLAY
290
     1
  9
$INSUNITS
 70
     1
  9
$HYPERLINKBASE
  1

  9
$STYLESHEET
  1

  9
$XEDIT
290
     1
  9
$CEPSNTYPE
380
     0
  9
$PSTYLEMODE
290
     1
  9
$FINGERPRINTGUID
  2
{2E1C4A1F-76EB-4516-8DC8-F4706CE0F55D}
  9
$VERSIONGUID
  2
{FAEB1C32-E019-11D5-929B-00C0DF256EC4}
  9
$EXTNAMES
290
     1
  9
$PSVPSCALE
 40
0.0
  9
$OLESTARTUP
290
     0
  9
$SORTENTS
280
   127
  9
$INDEXCTL
280
     0
  9
$HIDETEXT
280
     1
  9
$XCLIPFRAME
280
     2
  9
$HALOGAP
280
     0
  9
$OBSCOLOR
 70
   257
  9
$OBSLTYPE
280
     0
  9
$INTERSECTIONDISPLAY
280
     0
  9
$INTERSECTIONCOLOR
 70
   257
  9
$DIMASSOC
280
     2
  9
$PROJECTNAME
  1

  9
$CAMERADISPLAY
290
     0
  9
$LENSLENGTH
 40
50.0
  9
$CAMERAHEIGHT
 40
0.0
  9
$STEPSPERSEC
 40
2.0
  9
$STEPSIZE
 40
6.0
  9
$3DDWFPREC
 40
2.0
  9
$PSOLWIDTH
 40
0.25
  9
$PSOLHEIGHT
 40
4.0
  9
$LOFTANG1
 40
1.570796326794897
  9
$LOFTANG2
 40
1.570796326794897
  9
$LOFTMAG1
 40
0.0
  9
$LOFTMAG2
 40
0.0
  9
$LOFTPARAM
 70
     7
  9
$LOFTNORMALS
280
     1
  9
$LATITUDE
 40
37.795
  9
$LONGITUDE
 40
-122.394
  9
$NORTHDIRECTION
 40
0.0
  9
$TIMEZONE
 70
 -8000
  9
$LIGHTGLYPHDISPLAY
280
     1
  9
$TILEMODELIGHTSYNCH
280
     1
  9
$CMATERIAL
347
3C
  9
$SOLIDHIST
280
     1
  9
$SHOWHIST
280
     1
  9
$DWFFRAME
280
     2
  9
$DGNFRAME
280
     2
  9
$REALWORLDSCALE
290
     1
  9
$INTERFERECOLOR
 62
   256
  9
$CSHADOW
280
     0
  9
$SHADOWPLANELOCATION
 40
0.0
  0
ENDSEC
  0
SECTION
  2
CLASSES
  0
CLASS
  1
ACDBDICTIONARYWDFLT
  2
AcDbDictionaryWithDefault
  3
ObjectDBX Classes
 90
        0
 91
        4
280
     0
281
     0
  0
CLASS
  1
VISUALSTYLE
  2
AcDbVisualStyle
  3
ObjectDBX Classes
 90
     4095
 91
        4
280
     0
281
     0
  0
CLASS
  1
MATERIAL
  2
AcDbMaterial
  3
ObjectDBX Classes
 90
     1153
 91
        4
280
     0
281
     0
  0
CLASS
  1
SUN
  2
AcDbSun
  3
SCENEOE
 90
     1024
 91
        4
280
     0
281
     0
  0
ENDSEC
  0
SECTION
  2
TABLES
  0
TABLE
  2
VPORT
  5
8
330
0
100
AcDbSymbolTable
 70
     1
  0
VPORT
  5
29
330
8
100
AcDbSymbolTableRecord
100
AcDbViewportTableRecord
  2
*Active
 70
     0
 10
0.0
 20
0.0
 11
1.0
 21
1.0
 12
0.0
 22
0.0
 13
0.0
 23
0.0
 14
0.5
 24
0.5
 15
0.5
 25
0.5
 16
0.0
 26
0.0
 36
1.0
 17
540.0
 27
-540.0
 37
0.0
 40
1080.0
 41
1.0
 42
50.0
 43
0.0
 44
0.0
 50
0.0
 51
0.0
 71
     0
 72
   100
 73
     1
 74
     3
 75
     0
 76
     0
 77
     0
 78
     0
281
     0
 65
     1
110
0.0
120
0.0
130
0.0
111
1.0
121
0.0
131
0.0
112
0.0
122
1.0
132
0.0
 79
     0
146
0.0
 60
     3
 61
     5
292
     1
282
     1
141
0.0
142
0.0
 63
   250
361
3F
  0
ENDTAB
  0
TABLE
  2
LTYPE
  5
5
330
0
100
AcDbSymbolTable
 70
     1
  0
LTYPE
  5
14
330
5
100
AcDbSymbolTableRecord
100
AcDbLinetypeTableRecord
  2
ByBlock
 70
     0
  3

 72
    65
 73
     0
 40
0.0
  0
LTYPE
  5
15
330
5
100
AcDbSymbolTableRecord
100
AcDbLinetypeTableRecord
  2
ByLayer
 70
     0
  3

 72
    65
 73
     0
 40
0.0
  0
LTYPE
  5
16
330
5
100
AcDbSymbolTableRecord
100
AcDbLinetypeTableRecord
  2
Continuous
 70
     0
  3
Solid line
 72
    65
 73
     0
 40
0.0
  0
ENDTAB
  0
TABLE
  2
LAYER
  5
2
330
0
100
AcDbSymbolTable
 70
     2
  0
LAYER
  5
10
330
2
100
AcDbSymbolTableRecord
100
AcDbLayerTableRecord
  2
0
 70
     0
 62
     7
  6
Continuous
370
    -3
390
F
347
3E
  0
LAYER
  5
40
330
2
100
AcDbSymbolTableRecord
100
AcDbLayerTableRecord
  2
Layer 1
 70
     0
 62
     7
  6
Continuous
370
    -3
390
F
347
3E
  0
ENDTAB
  0
TABLE
  2
STYLE
  5
3
330
0
100
AcDbSymbolTable
 70
     1
  0
STYLE
  5
11
330
3
100
AcDbSymbolTableRecord
100
AcDbTextStyleTableRecord
  2
Standard
 70
     0
 40
0.0
 41
1.0
 50
0.0
 71
     0
 42
0.2
  3
txt
  4

  0
ENDTAB
  0
TABLE
  2
VIEW
  5
6
330
0
100
AcDbSymbolTable
 70
     0
  0
ENDTAB
  0
TABLE
  2
UCS
  5
7
330
0
100
AcDbSymbolTable
 70
     0
  0
ENDTAB
  0
TABLE
  2
APPID
  5
9
330
0
100
AcDbSymbolTable
 70
     1
  0
APPID
  5
12
330
9
100
AcDbSymbolTableRecord
100
AcDbRegAppTableRecord
  2
ACAD
 70
     0
  0
ENDTAB
  0
TABLE
  2
DIMSTYLE
  5
A
330
0
100
AcDbSymbolTable
 70
     1
100
AcDbDimStyleTable
  0
DIMSTYLE
105
27
330
A
100
AcDbSymbolTableRecord
100
AcDbDimStyleTableRecord
  2
Standard
 70
     0
178
     0
340
11
  0
ENDTAB
  0
TABLE
  2
BLOCK_RECORD
  5
1
330
0
100
AcDbSymbolTable
 70
     6
  0
BLOCK_RECORD
  5
1F
330
1
100
AcDbSymbolTableRecord
100
AcDbBlockTableRecord
  2
*Model_Space
340
22
 70
     0
280
     1
281
     0
  0
BLOCK_RECORD
  5
1B
330
1
100
AcDbSymbolTableRecord
100
AcDbBlockTableRecord
  2
*Paper_Space
340
1E
 70
     0
280
     1
281
     0
  0
BLOCK_RECORD
  5
23
330
1
100
AcDbSymbolTableRecord
100
AcDbBlockTableRecord
  2
*Paper_Space0
340
26
 70
     0
280
     1
281
     0
  0
BLOCK_RECORD
  5
41
330
1
100
AcDbSymbolTableRecord
100
AcDbBlockTableRecord
  2
block 2
340
0
102
{BLKREFS
331
42
102
}
 70
     0
280
     1
281
     0
  0
BLOCK_RECORD
  5
45
330
1
100
AcDbSymbolTableRecord
100
AcDbBlockTableRecord
  2
block 3
340
0
102
{BLKREFS
331
46
102
}
 70
     0
280
     1
281
     0
  0
BLOCK_RECORD
  5
55
330
1
100
AcDbSymbolTableRecord
100
AcDbBlockTableRecord
  2
block 4
340
0
102
{BLKREFS
331
56
102
}
 70
     0
280
     1
281
     0
  0
BLOCK_RECORD
  5
66
330
1
100
AcDbSymbolTableRecord
100
AcDbBlockTableRecord
  2
block 5
340
0
102
{BLKREFS
331
67
102
}
 70
     0
280
     1
281
     0
  0
BLOCK_RECORD
  5
88
330
1
100
AcDbSymbolTableRecord
100
AcDbBlockTableRecord
  2
block 6
340
0
102
{BLKREFS
331
89
102
}
 70
     0
280
     1
281
     0
  0
ENDTAB
  0
ENDSEC
  0
SECTION
  2
BLOCKS
  0
BLOCK
  5
20
330
1F
100
AcDbEntity
  8
0
100
AcDbBlockBegin
  2
*Model_Space
 70
     0
 10
0.0
 20
0.0
 30
0.0
  3
*Model_Space
  1

  0
ENDBLK
  5
21
330
1F
100
AcDbEntity
  8
0
100
AcDbBlockEnd
  0
BLOCK
  5
1C
330
1B
100
AcDbEntity
 67
     1
  8
0
100
AcDbBlockBegin
  2
*Paper_Space
 70
     0
 10
0.0
 20
0.0
 30
0.0
  3
*Paper_Space
  1

  0
ENDBLK
  5
1D
330
1B
100
AcDbEntity
 67
     1
  8
0
100
AcDbBlockEnd
  0
BLOCK
  5
24
330
23
100
AcDbEntity
  8
0
100
AcDbBlockBegin
  2
*Paper_Space0
 70
     0
 10
0.0
 20
0.0
 30
0.0
  3
*Paper_Space0
  1

  0
ENDBLK
  5
25
330
23
100
AcDbEntity
  8
0
100
AcDbBlockEnd
  0
BLOCK
  5
43
330
41
100
AcDbEntity
  8
0
100
AcDbBlockBegin
  2
block 2
 70
     0
 10
0.0
 20
0.0
 30
0.0
  3
block 2
  1

  0
INSERT
  5
46
330
41
100
AcDbEntity
  8
Layer 1
100
AcDbBlockReference
  2
block 3
 10
0.0
 20
0.0
 30
0.0
  0
INSERT
  5
56
330
41
100
AcDbEntity
  8
Layer 1
100
AcDbBlockReference
  2
block 4
 10
0.0
 20
0.0
 30
0.0
  0
INSERT
  5
67
330
41
100
AcDbEntity
  8
Layer 1
100
AcDbBlockReference
  2
block 5
 10
0.0
 20
0.0
 30
0.0
  0
INSERT
  5
89
330
41
100
AcDbEntity
  8
Layer 1
100
AcDbBlockReference
  2
block 6
 10
0.0
 20
0.0
 30
0.0
  0
ENDBLK
  5
44
330
41
100
AcDbEntity
  8
0
100
AcDbBlockEnd
  0
BLOCK
  5
47
330
45
100
AcDbEntity
  8
0
100
AcDbBlockBegin
  2
block 3
 70
     0
 10
0.0
 20
0.0
 30
0.0
  3
block 3
  1

  0
SPLINE
  5
49
330
45
100
AcDbEntity
  8
Layer 1
370
     0
100
AcDbSpline
210
0.0
220
0.0
230
1.0
 70
    11
 71
     3
 72
    32
 73
    28
 74
     0
 42
0.0000000001
 43
0.0000000001
 12
1.0
 22
0.0
 32
0.0
 13
1.0
 23
0.0
 33
0.0
 40
0.0
 40
0.0
 40
0.0
 40
0.0
 40
1.0
 40
1.0
 40
1.0
 40
2.0
 40
2.0
 40
2.0
 40
3.0
 40
3.0
 40
3.0
 40
4.0
 40
4.0
 40
4.0
 40
5.0
 40
5.0
 40
5.0
 40
6.0
 40
6.0
 40
6.0
 40
7.0
 40
7.0
 40
7.0
 40
8.0
 40
8.0
 40
8.0
 40
9.0
 40
9.0
 40
9.0
 40
9.0
 10
608.5650787446048
 20
-270.0533107235278
 30
0.0
 10
607.2591139315282
 20
-271.7945971409681
 30
0.0
 10
606.8237923271681
 20
-273.9692617627461
 30
0.0
 10
605.5197709141066
 20
-275.7105481801846
 30
0.0
 10
605.0844493097466
 20
-277.0165129932648
 30
0.0
 10
604.2138061010264
 20
-277.8871562019849
 30
0.0
 10
603.7784844966664
 20
-278.757799410705
 30
0.0
 10
598.9918902487279
 20
-272.6632969496659
 30
0.0
 10
592.4640095833493
 20
-267.4413810973674
 30
0.0
 10
584.1948425005303
 20
-263.5254300581473
 30
0.0
 10
570.2684379610546
 20
-256.5612560884001
 30
0.0
 10
547.637544734398
 20
-250.9040186317397
 30
0.0
 10
514.1274981987863
 20
-255.6906128796818
 30
0.0
 10
455.3746288103584
 20
-263.9607516625056
 30
0.0
 10
406.196891317828
 20
-290.5075959283804
 30
0.0
 10
384.0013196955351
 20
-324.4529640683559
 30
0.0
 10
384.0013196955351
 20
-324.8882856727159
 30
0.0
 10
383.5669697911826
 20
-324.4529640683559
 30
0.0
 10
383.1316481868225
 20
-324.0176424639958
 30
0.0
 10
372.2515231778561
 20
-315.7484753811787
 30
0.0
 10
371.8162015734961
 20
-314.4425105680984
 30
0.0
 10
383.5669697911826
 20
-299.2120846155576
 30
0.0
 10
408.3725276396181
 20
-269.1826675148077
 30
0.0
 10
514.1274981987863
 20
-215.2173640743276
 30
0.0
 10
597.2506038312877
 20
-237.8472856009739
 30
0.0
 10
616.8342458274255
 20
-248.7274106099394
 30
0.0
 10
615.0929594099853
 20
-258.3015708058301
 30
0.0
 10
608.5650787446048
 20
-270.0533107235278
 30
0.0
  0
SPLINE
  5
4A
330
45
100
AcDbEntity
  8
Layer 1
370
     0
100
AcDbSpline
210
0.0
220
0.0
230
1.0
 70
    11
 71
     3
 72
    74
 73
    70
 74
     0
 42
0.0000000001
 43
0.0000000001
 12
1.0
 22
0.0
 32
0.0
 13
1.0
 23
0.0
 33
0.0
 40
0.0
 40
0.0
 40
0.0
 40
0.0
 40
1.0
 40
1.0
 40
1.0
 40
2.0
 40
2.0
 40
2.0
 40
3.0
 40
3.0
 40
3.0
 40
4.0
 40
4.0
 40
4.0
 40
5.0
 40
5.0
 40
5.0
 40
6.0
 40
6.0
 40
6.0
 40
7.0
 40
7.0
 40
7.0
 40
8.0
 40
8.0
 40
8.0
 40
9.0
 40
9.0
 40
9.0
 40
10.0
 40
10.0
 40
10.0
 40
11.0
 40
11.0
 40
11.0
 40
12.0
 40
12.0
 40
12.0
 40
13.0
 40
13.0
 40
13.0
 40
14.0
 40
14.0
 40
14.0
 40
15.0
 40
15.0
 40
15.0
 40
16.0
 40
16.0
 40
16.0
 40
17.0
 40
17.0
 40
17.0
 40
18.0
 40
18.0
 40
18.0
 40
19.0
 40
19.0
 40
19.0
 40
20.0
 40
20.0
 40
20.0
 40
21.0
 40
21.0
 40
21.0
 40
22.0
 40
22.0
 40
22.0
 40
23.0
 40
23.0
 40
23.0
 40
23.0
 10
541.1096640690212
 20
-408.4467129095756
 30
0.0
 10
538.9330560472208
 20
-392.3437003482995
 30
0.0
 10
493.2369196895606
 20
-404.5288184703386
 30
0.0
 10
479.7458367544432
 20
-406.7054264921389
 30
0.0
 10
467.9950685367567
 20
-464.5876526718421
 30
0.0
 10
460.1621947583071
 20
-519.8579492253921
 30
0.0
 10
466.6900754236849
 20
-525.5151866820524
 30
0.0
 10
461.0318662670179
 20
-525.9505082864125
 30
0.0
 10
455.3746288103584
 20
-525.9505082864125
 30
0.0
 10
450.1517412580497
 20
-525.5151866820524
 30
0.0
 10
441.4482242708809
 20
-524.211165268991
 30
0.0
 10
432.309385679353
 20
-522.4698788515507
 30
0.0
 10
430.5680992619127
 20
-515.9419981861738
 30
0.0
 10
425.780533313964
 20
-499.8389856248978
 30
0.0
 10
435.7900151142121
 20
-453.7065559628663
 30
0.0
 10
444.9298254057521
 20
-418.0218448054729
 30
0.0
 10
432.309385679353
 20
-421.502474240333
 30
0.0
 10
425.3461834096152
 20
-425.8537468839149
 30
0.0
 10
414.9004083049977
 20
-427.1597116969951
 30
0.0
 10
407.5028561309082
 20
-428.4656765100735
 30
0.0
 10
401.4093253698793
 20
-419.3258662185362
 30
0.0
 10
404.4565766003989
 20
-410.6233209313741
 30
0.0
 10
418.3829811398755
 20
-414.1039503662359
 30
0.0
 10
429.6974560531935
 20
-412.3626639487957
 30
0.0
 10
448.4114265406206
 20
-404.9641400746987
 30
0.0
 10
448.4114265406206
 20
-402.354153848557
 30
0.0
 10
449.2820697493407
 20
-398.8715810136764
 30
0.0
 10
474.9582708064945
 20
-289.6369527196603
 30
0.0
 10
475.3935924108546
 20
-289.2016311153002
 30
0.0
 10
475.3935924108546
 20
-288.33098790658
 30
0.0
 10
475.3935924108546
 20
-287.4603446978599
 30
0.0
 10
475.8289140152147
 20
-287.0250230935017
 30
0.0
 10
475.8289140152147
 20
-287.0250230935017
 30
0.0
 10
475.8289140152147
 20
-287.0250230935017
 30
0.0
 10
476.6995572239348
 20
-282.2384288455632
 30
0.0
 10
476.6995572239348
 20
-278.322477806345
 30
0.0
 10
475.3935924108546
 20
-275.2752265758245
 30
0.0
 10
475.3935924108546
 20
-275.2752265758245
 30
0.0
 10
473.6532776934246
 20
-270.923953932248
 30
0.0
 10
473.6532776934246
 20
-270.923953932248
 30
0.0
 10
473.6532776934246
 20
-270.923953932248
 30
0.0
 10
474.9582708064945
 20
-269.6179891191678
 30
0.0
 10
474.9582708064945
 20
-269.6179891191678
 30
0.0
 10
474.9582708064945
 20
-269.6179891191678
 30
0.0
 10
475.8289140152147
 20
-269.6179891191678
 30
0.0
 10
475.8289140152147
 20
-269.6179891191678
 30
0.0
 10
479.7458367544432
 20
-269.1826675148077
 30
0.0
 10
483.6627594936726
 20
-269.6179891191678
 30
0.0
 10
486.709039024181
 20
-270.0533107235278
 30
0.0
 10
492.3662764808405
 20
-271.359275536608
 30
0.0
 10
498.45883554186
 20
-273.098618554026
 30
0.0
 10
501.5060867723787
 20
-277.0165129932648
 30
0.0
 10
505.4220378115979
 20
-283.5443936586435
 30
0.0
 10
502.3757582810886
 20
-297.4707981981192
 30
0.0
 10
500.6354435636604
 20
-306.6106084896564
 30
0.0
 10
500.2001219593003
 20
-308.7852731114399
 30
0.0
 10
499.7648003549402
 20
-310.0912379245165
 30
0.0
 10
499.7648003549402
 20
-310.5265595288765
 30
0.0
 10
499.3294787505802
 20
-310.9618811332366
 30
0.0
 10
499.3294787505802
 20
-311.3972027375967
 30
0.0
 10
499.3294787505802
 20
-311.8325243419567
 30
0.0
 10
492.8015980852006
 20
-339.2500118165517
 30
0.0
 10
487.1443606285411
 20
-365.7968560824247
 30
0.0
 10
481.4861514718723
 20
-395.39095157882
 30
0.0
 10
514.5628198031463
 20
-384.0745332654824
 30
0.0
 10
529.3598675513422
 20
-375.3719879783257
 30
0.0
 10
538.4977344428607
 20
-381.0292254349843
 30
0.0
 10
544.5902935038812
 20
-384.9451764742025
 30
0.0
 10
544.5902935038812
 20
-401.4835106398368
 30
0.0
 10
541.1096640690212
 20
-408.4467129095756
 30
0.0
  0
HATCH
  5
4B
330
45
100
AcDbEntity
  8
Layer 1
 62
    18
420
   263172
100
AcDbHatch
 10
0.0
 20
0.0
 30
0.0
210
0.0
220
0.0
230
1.0
  2
SOLID
 70
     1
 71
     0
 91
        2
 92
        1
 93
        1
 72
     4
 94
        3
 73
     0
 74
     1
 95
       32
 96
       28
 40
0.0
 40
0.0
 40
0.0
 40
0.0
 40
1.0
 40
1.0
 40
1.0
 40
2.0
 40
2.0
 40
2.0
 40
3.0
 40
3.0
 40
3.0
 40
4.0
 40
4.0
 40
4.0
 40
5.0
 40
5.0
 40
5.0
 40
6.0
 40
6.0
 40
6.0
 40
7.0
 40
7.0
 40
7.0
 40
8.0
 40
8.0
 40
8.0
 40
9.0
 40
9.0
 40
9.0
 40
9.0
 10
608.5650787446048
 20
-270.0533107235278
 10
607.2591139315282
 20
-271.7945971409681
 10
606.8237923271681
 20
-273.9692617627461
 10
605.5197709141066
 20
-275.7105481801846
 10
605.0844493097466
 20
-277.0165129932648
 10
604.2138061010264
 20
-277.8871562019849
 10
603.7784844966664
 20
-278.757799410705
 10
598.9918902487279
 20
-272.6632969496659
 10
592.4640095833493
 20
-267.4413810973674
 10
584.1948425005303
 20
-263.5254300581473
 10
570.2684379610546
 20
-256.5612560884001
 10
547.637544734398
 20
-250.9040186317397
 10
514.1274981987863
 20
-255.6906128796818
 10
455.3746288103584
 20
-263.9607516625056
 10
406.196891317828
 20
-290.5075959283804
 10
384.0013196955351
 20
-324.4529640683559
 10
384.0013196955351
 20
-324.8882856727159
 10
383.5669697911826
 20
-324.4529640683559
 10
383.1316481868225
 20
-324.0176424639958
 10
372.2515231778561
 20
-315.7484753811787
 10
371.8162015734961
 20
-314.4425105680984
 10
383.5669697911826
 20
-299.2120846155576
 10
408.3725276396181
 20
-269.1826675148077
 10
514.1274981987863
 20
-215.2173640743276
 10
597.2506038312877
 20
-237.8472856009739
 10
616.8342458274255
 20
-248.7274106099394
 10
615.0929594099853
 20
-258.3015708058301
 10
608.5650787446048
 20
-270.0533107235278
 97
        0
 97
        0
 92
        1
 93
        1
 72
     4
 94
        3
 73
     0
 74
     1
 95
       74
 96
       70
 40
0.0
 40
0.0
 40
0.0
 40
0.0
 40
1.0
 40
1.0
 40
1.0
 40
2.0
 40
2.0
 40
2.0
 40
3.0
 40
3.0
 40
3.0
 40
4.0
 40
4.0
 40
4.0
 40
5.0
 40
5.0
 40
5.0
 40
6.0
 40
6.0
 40
6.0
 40
7.0
 40
7.0
 40
7.0
 40
8.0
 40
8.0
 40
8.0
 40
9.0
 40
9.0
 40
9.0
 40
10.0
 40
10.0
 40
10.0
 40
11.0
 40
11.0
 40
11.0
 40
12.0
 40
12.0
 40
12.0
 40
13.0
 40
13.0
 40
13.0
 40
14.0
 40
14.0
 40
14.0
 40
15.0
 40
15.0
 40
15.0
 40
16.0
 40
16.0
 40
16.0
 40
17.0
 40
17.0
 40
17.0
 40
18.0
 40
18.0
 40
18.0
 40
19.0
 40
19.0
 40
19.0
 40
20.0
 40
20.0
 40
20.0
 40
21.0
 40
21.0
 40
21.0
 40
22.0
 40
22.0
 40
22.0
 40
23.0
 40
23.0
 40
23.0
 40
23.0
 10
541.1096640690212
 20
-408.4467129095756
 10
538.9330560472208
 20
-392.3437003482995
 10
493.2369196895606
 20
-404.5288184703386
 10
479.7458367544432
 20
-406.7054264921389
 10
467.9950685367567
 20
-464.5876526718421
 10
460.1621947583071
 20
-519.8579492253921
 10
466.6900754236849
 20
-525.5151866820524
 10
461.0318662670179
 20
-525.9505082864125
 10
455.3746288103584
 20
-525.9505082864125
 10
450.1517412580497
 20
-525.5151866820524
 10
441.4482242708809
 20
-524.211165268991
 10
432.309385679353
 20
-522.4698788515507
 10
430.5680992619127
 20
-515.9419981861738
 10
425.780533313964
 20
-499.8389856248978
 10
435.7900151142121
 20
-453.7065559628663
 10
444.9298254057521
 20
-418.0218448054729
 10
432.309385679353
 20
-421.502474240333
 10
425.3461834096152
 20
-425.8537468839149
 10
414.9004083049977
 20
-427.1597116969951
 10
407.5028561309082
 20
-428.4656765100735
 10
401.4093253698793
 20
-419.3258662185362
 10
404.4565766003989
 20
-410.6233209313741
 10
418.3829811398755
 20
-414.1039503662359
 10
429.6974560531935
 20
-412.3626639487957
 10
448.4114265406206
 20
-404.9641400746987
 10
448.4114265406206
 20
-402.354153848557
 10
449.2820697493407
 20
-398.8715810136764
 10
474.9582708064945
 20
-289.6369527196603
 10
475.3935924108546
 20
-289.2016311153002
 10
475.3935924108546
 20
-288.33098790658
 10
475.3935924108546
 20
-287.4603446978599
 10
475.8289140152147
 20
-287.0250230935017
 10
475.8289140152147
 20
-287.0250230935017
 10
475.8289140152147
 20
-287.0250230935017
 10
476.6995572239348
 20
-282.2384288455632
 10
476.6995572239348
 20
-278.322477806345
 10
475.3935924108546
 20
-275.2752265758245
 10
475.3935924108546
 20
-275.2752265758245
 10
473.6532776934246
 20
-270.923953932248
 10
473.6532776934246
 20
-270.923953932248
 10
473.6532776934246
 20
-270.923953932248
 10
474.9582708064945
 20
-269.6179891191678
 10
474.9582708064945
 20
-269.6179891191678
 10
474.9582708064945
 20
-269.6179891191678
 10
475.8289140152147
 20
-269.6179891191678
 10
475.8289140152147
 20
-269.6179891191678
 10
479.7458367544432
 20
-269.1826675148077
 10
483.6627594936726
 20
-269.6179891191678
 10
486.709039024181
 20
-270.0533107235278
 10
492.3662764808405
 20
-271.359275536608
 10
498.45883554186
 20
-273.098618554026
 10
501.5060867723787
 20
-277.0165129932648
 10
505.4220378115979
 20
-283.5443936586435
 10
502.3757582810886
 20
-297.4707981981192
 10
500.6354435636604
 20
-306.6106084896564
 10
500.2001219593003
 20
-308.7852731114399
 10
499.7648003549402
 20
-310.0912379245165
 10
499.7648003549402
 20
-310.5265595288765
 10
499.3294787505802
 20
-310.9618811332366
 10
499.3294787505802
 20
-311.3972027375967
 10
499.3294787505802
 20
-311.8325243419567
 10
492.8015980852006
 20
-339.2500118165517
 10
487.1443606285411
 20
-365.7968560824247
 10
481.4861514718723
 20
-395.39095157882
 10
514.5628198031463
 20
-384.0745332654824
 10
529.3598675513422
 20
-375.3719879783257
 10
538.4977344428607
 20
-381.0292254349843
 10
544.5902935038812
 20
-384.9451764742025
 10
544.5902935038812
 20
-401.4835106398368
 10
541.1096640690212
 20
-408.4467129095756
 97
        0
 97
        0
 75
     2
 76
     1
 98
        0
  0
SPLINE
  5
4C
330
45
100
AcDbEntity
  8
Layer 1
370
     0
100
AcDbSpline
210
0.0
220
0.0
230
1.0
 70
    11
 71
     3
 72
    29
 73
    25
 74
     0
 42
0.0000000001
 43
0.0000000001
 12
1.0
 22
0.0
 32
0.0
 13
1.0
 23
0.0
 33
0.0
 40
0.0
 40
0.0
 40
0.0
 40
0.0
 40
1.0
 40
1.0
 40
1.0
 40
2.0
 40
2.0
 40
2.0
 40
3.0
 40
3.0
 40
3.0
 40
4.0
 40
4.0
 40
4.0
 40
5.0
 40
5.0
 40
5.0
 40
6.0
 40
6.0
 40
6.0
 40
7.0
 40
7.0
 40
7.0
 40
8.0
 40
8.0
 40
8.0
 40
8.0
 10
569.8311729566758
 20
-449.355283319288
 30
0.0
 10
569.8311729566758
 20
-584.2680560704775
 30
0.0
 10
618.1382672404852
 20
-433.2522707580119
 30
0.0
 10
627.711455736362
 20
-404.5288184703386
 30
0.0
 10
631.6293501756027
 20
-404.5288184703386
 30
0.0
 10
635.980622819181
 20
-404.9641400746987
 30
0.0
 10
637.2865876322594
 20
-409.752677722654
 30
0.0
 10
620.312931862265
 20
-477.6434140026013
 30
0.0
 10
599.858646657407
 20
-518.1166628079536
 30
0.0
 10
586.3675637222932
 20
-526.8211514951327
 30
0.0
 10
582.8869342874314
 20
-528.9977595169312
 30
0.0
 10
562.432649082577
 20
-521.1639140384705
 30
0.0
 10
560.2560410607766
 20
-517.6813412035954
 30
0.0
 10
518.0415058379858
 20
-454.5771991715847
 30
0.0
 10
572.0058375784538
 20
-243.0701731532827
 30
0.0
 10
599.4233250530469
 20
-219.1342868135562
 30
0.0
 10
599.4233250530469
 20
-219.1342868135562
 30
0.0
 10
603.7765410966476
 20
-219.1342868135562
 30
0.0
 10
603.7765410966476
 20
-219.1342868135562
 30
0.0
 10
612.0457081794648
 20
-219.1342868135562
 30
0.0
 10
619.0089104492035
 20
-220.8746015309862
 30
0.0
 10
625.536791114584
 20
-226.0974890832949
 30
0.0
 10
597.6839820356308
 20
-288.7663095109401
 30
0.0
 10
569.8311729566758
 20
-378.4172958088238
 30
0.0
 10
569.8311729566758
 20
-449.355283319288
 30
0.0
  0
HATCH
  5
4D
330
45
100
AcDbEntity
  8
Layer 1
 62
    18
420
   263172
100
AcDbHatch
 10
0.0
 20
0.0
 30
0.0
210
0.0
220
0.0
230
1.0
  2
SOLID
 70
     1
 71
     0
 91
        1
 92
        1
 93
        1
 72
     4
 94
        3
 73
     0
 74
     1
 95
       29
 96
       25
 40
0.0
 40
0.0
 40
0.0
 40
0.0
 40
1.0
 40
1.0
 40
1.0
 40
2.0
 40
2.0
 40
2.0
 40
3.0
 40
3.0
 40
3.0
 40
4.0
 40
4.0
 40
4.0
 40
5.0
 40
5.0
 40
5.0
 40
6.0
 40
6.0
 40
6.0
 40
7.0
 40
7.0
 40
7.0
 40
8.0
 40
8.0
 40
8.0
 40
8.0
 10
569.8311729566758
 20
-449.355283319288
 10
569.8311729566758
 20
-584.2680560704775
 10
618.1382672404852
 20
-433.2522707580119
 10
627.711455736362
 20
-404.5288184703386
 10
631.6293501756027
 20
-404.5288184703386
 10
635.980622819181
 20
-404.9641400746987
 10
637.2865876322594
 20
-409.752677722654
 10
620.312931862265
 20
-477.6434140026013
 10
599.858646657407
 20
-518.1166628079536
 10
586.3675637222932
 20
-526.8211514951327
 10
582.8869342874314
 20
-528.9977595169312
 10
562.432649082577
 20
-521.1639140384705
 10
560.2560410607766
 20
-517.6813412035954
 10
518.0415058379858
 20
-454.5771991715847
 10
572.0058375784538
 20
-243.0701731532827
 10
599.4233250530469
 20
-219.1342868135562
 10
599.4233250530469
 20
-219.1342868135562
 10
603.7765410966476
 20
-219.1342868135562
 10
603.7765410966476
 20
-219.1342868135562
 10
612.0457081794648
 20
-219.1342868135562
 10
619.0089104492035
 20
-220.8746015309862
 10
625.536791114584
 20
-226.0974890832949
 10
597.6839820356308
 20
-288.7663095109401
 10
569.8311729566758
 20
-378.4172958088238
 10
569.8311729566758
 20
-449.355283319288
 97
        0
 97
        0
 75
     2
 76
     1
 98
        0
  0
SPLINE
  5
4E
330
45
100
AcDbEntity
  8
Layer 1
370
     0
100
AcDbSpline
210
0.0
220
0.0
230
1.0
 70
    11
 71
     3
 72
    71
 73
    67
 74
     0
 42
0.0000000001
 43
0.0000000001
 12
1.0
 22
0.0
 32
0.0
 13
1.0
 23
0.0
 33
0.0
 40
0.0
 40
0.0
 40
0.0
 40
0.0
 40
1.0
 40
1.0
 40
1.0
 40
2.0
 40
2.0
 40
2.0
 40
3.0
 40
3.0
 40
3.0
 40
4.0
 40
4.0
 40
4.0
 40
5.0
 40
5.0
 40
5.0
 40
6.0
 40
6.0
 40
6.0
 40
7.0
 40
7.0
 40
7.0
 40
8.0
 40
8.0
 40
8.0
 40
9.0
 40
9.0
 40
9.0
 40
10.0
 40
10.0
 40
10.0
 40
11.0
 40
11.0
 40
11.0
 40
12.0
 40
12.0
 40
12.0
 40
13.0
 40
13.0
 40
13.0
 40
14.0
 40
14.0
 40
14.0
 40
15.0
 40
15.0
 40
15.0
 40
16.0
 40
16.0
 40
16.0
 40
17.0
 40
17.0
 40
17.0
 40
18.0
 40
18.0
 40
18.0
 40
19.0
 40
19.0
 40
19.0
 40
20.0
 40
20.0
 40
20.0
 40
21.0
 40
21.0
 40
21.0
 40
22.0
 40
22.0
 40
22.0
 40
22.0
 10
642.9438250889198
 20
-444.5686890713496
 30
0.0
 10
642.9438250889198
 20
-444.5686890713496
 30
0.0
 10
664.7040751068544
 20
-403.2247970572771
 30
0.0
 10
664.7040751068544
 20
-403.2247970572771
 30
0.0
 10
676.4538716245315
 20
-382.3351902480645
 30
0.0
 10
687.3349683335091
 20
-361.8809050432046
 30
0.0
 10
690.380276164009
 20
-361.8809050432046
 30
0.0
 10
696.0375136206694
 20
-361.8809050432046
 30
0.0
 10
711.2698829732235
 20
-362.3162266475647
 30
0.0
 10
711.2698829732235
 20
-370.5834503303668
 30
0.0
 10
711.2698829732235
 20
-378.8526174131839
 30
0.0
 10
701.2613728729866
 20
-471.1155333372244
 30
0.0
 10
712.1405261819436
 20
-476.7727707938848
 30
0.0
 10
708.2245751427272
 20
-478.9493788156815
 30
0.0
 10
704.7420023078466
 20
-480.2553436287617
 30
0.0
 10
701.6966944773467
 20
-481.5593650418232
 30
0.0
 10
696.0375136206694
 20
-483.7359730636235
 30
0.0
 10
689.5096329552889
 20
-485.0419378767019
 30
0.0
 10
687.3349683335091
 20
-481.9946866461833
 30
0.0
 10
680.3717660637722
 20
-472.4214981503046
 30
0.0
 10
681.2424092724923
 20
-444.1333674669895
 30
0.0
 10
686.0290035204289
 20
-417.1512015967564
 30
0.0
 10
686.0290035204289
 20
-417.1512015967564
 30
0.0
 10
690.8155977683691
 20
-386.2511412872809
 30
0.0
 10
690.8155977683691
 20
-386.2511412872809
 30
0.0
 10
691.2509193727292
 20
-384.5098548698425
 30
0.0
 10
691.2509193727292
 20
-384.0745332654824
 30
0.0
 10
690.8155977683691
 20
-384.5098548698425
 30
0.0
 10
687.7702899378692
 20
-389.2983925178014
 30
0.0
 10
684.2877171029904
 20
-394.0849867657398
 30
0.0
 10
681.2424092724923
 20
-399.3069026180365
 30
0.0
 10
675.5832284158114
 20
-408.0113913052155
 30
0.0
 10
668.6200261460745
 20
-419.7611878228963
 30
0.0
 10
662.0921454806958
 20
-431.512927740594
 30
0.0
 10
649.9070273586585
 20
-454.1418775672246
 30
0.0
 10
647.7304193368582
 20
-458.4950936108253
 30
0.0
 10
645.1204331107201
 20
-458.4950936108253
 30
0.0
 10
642.9438250889198
 20
-458.9304152151853
 30
0.0
 10
639.0278740496997
 20
-458.4950936108253
 30
0.0
 10
635.5453012148209
 20
-457.1891287977451
 30
0.0
 10
635.5453012148209
 20
-457.1891287977451
 30
0.0
 10
628.5820989450822
 20
-455.4478423803048
 30
0.0
 10
628.5820989450822
 20
-455.4478423803048
 30
0.0
 10
625.9701693189236
 20
-438.4761300103328
 30
0.0
 10
625.101469510224
 20
-421.937795844693
 30
0.0
 10
626.4054909232818
 20
-405.8347832834188
 30
0.0
 10
628.5820989450822
 20
-379.287939017544
 30
0.0
 10
636.4159444235411
 20
-347.5191788993689
 30
0.0
 10
662.9627886894159
 20
-331.4161663380928
 30
0.0
 10
692.5568841858076
 20
-312.7031675506769
 30
0.0
 10
729.1141819519416
 20
-328.8042367119342
 30
0.0
 10
729.1141819519416
 20
-339.2500118165517
 30
0.0
 10
729.1141819519416
 20
-344.4719276688484
 30
0.0
 10
726.9375739301431
 20
-349.2585219167904
 30
0.0
 10
724.7609659083428
 20
-354.0470595647457
 30
0.0
 10
723.4550010952644
 20
-356.6570457908874
 30
0.0
 10
722.1509796822011
 20
-358.8336538126878
 30
0.0
 10
720.4096932647644
 20
-361.0102618344881
 30
0.0
 10
716.0584206211843
 20
-357.5276889996076
 30
0.0
 10
711.2698829732235
 20
-354.9177027734659
 30
0.0
 10
706.0479671209268
 20
-352.7410947516673
 30
0.0
 10
697.3434784337496
 20
-349.2585219167904
 30
0.0
 10
685.1583603117106
 20
-347.5191788993689
 30
0.0
 10
672.9732421896733
 20
-354.0470595647457
 30
0.0
 10
642.0731818801996
 20
-370.1481287260067
 30
0.0
 10
636.8512660278993
 20
-443.2627242582694
 30
0.0
 10
642.9438250889198
 20
-444.5686890713496
 30
0.0
  0
HATCH
  5
4F
330
45
100
AcDbEntity
  8
Layer 1
 62
    18
420
   263172
100
AcDbHatch
 10
0.0
 20
0.0
 30
0.0
210
0.0
220
0.0
230
1.0
  2
SOLID
 70
     1
 71
     0
 91
        1
 92
        1
 93
        1
 72
     4
 94
        3
 73
     0
 74
     1
 95
       71
 96
       67
 40
0.0
 40
0.0
 40
0.0
 40
0.0
 40
1.0
 40
1.0
 40
1.0
 40
2.0
 40
2.0
 40
2.0
 40
3.0
 40
3.0
 40
3.0
 40
4.0
 40
4.0
 40
4.0
 40
5.0
 40
5.0
 40
5.0
 40
6.0
 40
6.0
 40
6.0
 40
7.0
 40
7.0
 40
7.0
 40
8.0
 40
8.0
 40
8.0
 40
9.0
 40
9.0
 40
9.0
 40
10.0
 40
10.0
 40
10.0
 40
11.0
 40
11.0
 40
11.0
 40
12.0
 40
12.0
 40
12.0
 40
13.0
 40
13.0
 40
13.0
 40
14.0
 40
14.0
 40
14.0
 40
15.0
 40
15.0
 40
15.0
 40
16.0
 40
16.0
 40
16.0
 40
17.0
 40
17.0
 40
17.0
 40
18.0
 40
18.0
 40
18.0
 40
19.0
 40
19.0
 40
19.0
 40
20.0
 40
20.0
 40
20.0
 40
21.0
 40
21.0
 40
21.0
 40
22.0
 40
22.0
 40
22.0
 40
22.0
 10
642.9438250889198
 20
-444.5686890713496
 10
642.9438250889198
 20
-444.5686890713496
 10
664.7040751068544
 20
-403.2247970572771
 10
664.7040751068544
 20
-403.2247970572771
 10
676.4538716245315
 20
-382.3351902480645
 10
687.3349683335091
 20
-361.8809050432046
 10
690.380276164009
 20
-361.8809050432046
 10
696.0375136206694
 20
-361.8809050432046
 10
711.2698829732235
 20
-362.3162266475647
 10
711.2698829732235
 20
-370.5834503303668
 10
711.2698829732235
 20
-378.8526174131839
 10
701.2613728729866
 20
-471.1155333372244
 10
712.1405261819436
 20
-476.7727707938848
 10
708.2245751427272
 20
-478.9493788156815
 10
704.7420023078466
 20
-480.2553436287617
 10
701.6966944773467
 20
-481.5593650418232
 10
696.0375136206694
 20
-483.7359730636235
 10
689.5096329552889
 20
-485.0419378767019
 10
687.3349683335091
 20
-481.9946866461833
 10
680.3717660637722
 20
-472.4214981503046
 10
681.2424092724923
 20
-444.1333674669895
 10
686.0290035204289
 20
-417.1512015967564
 10
686.0290035204289
 20
-417.1512015967564
 10
690.8155977683691
 20
-386.2511412872809
 10
690.8155977683691
 20
-386.2511412872809
 10
691.2509193727292
 20
-384.5098548698425
 10
691.2509193727292
 20
-384.0745332654824
 10
690.8155977683691
 20
-384.5098548698425
 10
687.7702899378692
 20
-389.2983925178014
 10
684.2877171029904
 20
-394.0849867657398
 10
681.2424092724923
 20
-399.3069026180365
 10
675.5832284158114
 20
-408.0113913052155
 10
668.6200261460745
 20
-419.7611878228963
 10
662.0921454806958
 20
-431.512927740594
 10
649.9070273586585
 20
-454.1418775672246
 10
647.7304193368582
 20
-458.4950936108253
 10
645.1204331107201
 20
-458.4950936108253
 10
642.9438250889198
 20
-458.9304152151853
 10
639.0278740496997
 20
-458.4950936108253
 10
635.5453012148209
 20
-457.1891287977451
 10
635.5453012148209
 20
-457.1891287977451
 10
628.5820989450822
 20
-455.4478423803048
 10
628.5820989450822
 20
-455.4478423803048
 10
625.9701693189236
 20
-438.4761300103328
 10
625.101469510224
 20
-421.937795844693
 10
626.4054909232818
 20
-405.8347832834188
 10
628.5820989450822
 20
-379.287939017544
 10
636.4159444235411
 20
-347.5191788993689
 10
662.9627886894159
 20
-331.4161663380928
 10
692.5568841858076
 20
-312.7031675506769
 10
729.1141819519416
 20
-328.8042367119342
 10
729.1141819519416
 20
-339.2500118165517
 10
729.1141819519416
 20
-344.4719276688484
 10
726.9375739301431
 20
-349.2585219167904
 10
724.7609659083428
 20
-354.0470595647457
 10
723.4550010952644
 20
-356.6570457908874
 10
722.1509796822011
 20
-358.8336538126878
 10
720.4096932647644
 20
-361.0102618344881
 10
716.0584206211843
 20
-357.5276889996076
 10
711.2698829732235
 20
-354.9177027734659
 10
706.0479671209268
 20
-352.7410947516673
 10
697.3434784337496
 20
-349.2585219167904
 10
685.1583603117106
 20
-347.5191788993689
 10
672.9732421896733
 20
-354.0470595647457
 10
642.0731818801996
 20
-370.1481287260067
 10
636.8512660278993
 20
-443.2627242582694
 10
642.9438250889198
 20
-444.5686890713496
 97
        0
 97
        0
 75
     2
 76
     1
 98
        0
  0
SPLINE
  5
50
330
45
100
AcDbEntity
  8
Layer 1
370
     0
100
AcDbSpline
210
0.0
220
0.0
230
1.0
 70
    11
 71
     3
 72
    50
 73
    46
 74
     0
 42
0.0000000001
 43
0.0000000001
 12
1.0
 22
0.0
 32
0.0
 13
1.0
 23
0.0
 33
0.0
 40
0.0
 40
0.0
 40
0.0
 40
0.0
 40
1.0
 40
1.0
 40
1.0
 40
2.0
 40
2.0
 40
2.0
 40
3.0
 40
3.0
 40
3.0
 40
4.0
 40
4.0
 40
4.0
 40
5.0
 40
5.0
 40
5.0
 40
6.0
 40
6.0
 40
6.0
 40
7.0
 40
7.0
 40
7.0
 40
8.0
 40
8.0
 40
8.0
 40
9.0
 40
9.0
 40
9.0
 40
10.0
 40
10.0
 40
10.0
 40
11.0
 40
11.0
 40
11.0
 40
12.0
 40
12.0
 40
12.0
 40
13.0
 40
13.0
 40
13.0
 40
14.0
 40
14.0
 40
14.0
 40
15.0
 40
15.0
 40
15.0
 40
15.0
 10
793.9557236013479
 20
-431.512927740594
 30
0.0
 10
793.9557236013479
 20
-431.512927740594
 30
0.0
 10
798.7442612493087
 20
-435.4288787798123
 30
0.0
 10
798.7442612493087
 20
-435.4288787798123
 30
0.0
 10
815.7159736192843
 20
-454.5771991715847
 30
0.0
 10
805.7074635190456
 20
-471.9861765459445
 30
0.0
 10
788.2984861446912
 20
-490.6991753333605
 30
0.0
 10
770.8914521703537
 20
-510.2828173294929
 30
0.0
 10
751.3078101742176
 20
-509.4121741207728
 30
0.0
 10
744.3446079044788
 20
-501.144950437978
 30
0.0
 10
739.5560702565199
 20
-496.356412790019
 30
0.0
 10
727.3709521344826
 20
-488.9578889159202
 30
0.0
 10
729.5475601562812
 20
-471.9861765459445
 30
0.0
 10
729.9828817606412
 20
-468.503603711064
 30
0.0
 10
742.1679998826785
 20
-451.5318913410883
 30
0.0
 10
766.538236126753
 20
-432.8169491536519
 30
0.0
 10
750.8724885698575
 20
-424.1144038664934
 30
0.0
 10
728.241595343201
 20
-409.3173561182939
 30
0.0
 10
719.9724282603838
 20
-391.9083787439395
 30
0.0
 10
710.3972963644865
 20
-373.1953799565254
 30
0.0
 10
741.7326782783184
 20
-322.7116776509156
 30
0.0
 10
780.4646406662305
 20
-290.0722743240203
 30
0.0
 10
795.2616884144281
 20
-279.6264992194028
 30
0.0
 10
807.4487499364859
 20
-291.3782391371005
 30
0.0
 10
815.7159736192843
 20
-300.9514276329792
 30
0.0
 10
809.6234145582657
 20
-304.4340004678597
 30
0.0
 10
787.8631645403311
 20
-323.1469992552757
 30
0.0
 10
779.5959408575309
 20
-333.5927743598932
 30
0.0
 10
747.389915734977
 20
-372.7600583521653
 30
0.0
 10
744.3446079044788
 20
-381.8998686437044
 30
0.0
 10
743.0386430913986
 20
-392.3437003482995
 30
0.0
 10
742.1679998826785
 20
-400.6128674311167
 30
0.0
 10
763.0576066918948
 20
-413.6686287618759
 30
0.0
 10
779.5959408575309
 20
-423.2437606577732
 30
0.0
 10
780.0293190618722
 20
-422.8084390534132
 30
0.0
 10
780.4646406662305
 20
-422.3731174490531
 30
0.0
 10
780.8999622705905
 20
-422.3731174490531
 30
0.0
 10
794.8263668100681
 20
-412.3626639487957
 30
0.0
 10
807.8821281408254
 20
-406.2701048877789
 30
0.0
 10
824.8557839108216
 20
-403.2247970572771
 30
0.0
 10
833.5602725980007
 20
-406.7054264921389
 30
0.0
 10
833.9955942023607
 20
-407.5760697008554
 30
0.0
 10
830.9483429718402
 20
-412.7979855531557
 30
0.0
 10
818.763224849803
 20
-415.8452367836762
 30
0.0
 10
808.3174497451855
 20
-419.7611878228963
 30
0.0
 10
793.9557236013479
 20
-431.512927740594
 30
0.0
  0
SPLINE
  5
51
330
45
100
AcDbEntity
  8
Layer 1
370
     0
100
AcDbSpline
210
0.0
220
0.0
230
1.0
 70
    11
 71
     3
 72
    14
 73
    10
 74
     0
 42
0.0000000001
 43
0.0000000001
 12
1.0
 22
0.0
 32
0.0
 13
1.0
 23
0.0
 33
0.0
 40
0.0
 40
0.0
 40
0.0
 40
0.0
 40
1.0
 40
1.0
 40
1.0
 40
2.0
 40
2.0
 40
2.0
 40
3.0
 40
3.0
 40
3.0
 40
3.0
 10
785.2531783141894
 20
-447.1786752974876
 30
0.0
 10
785.6884999185495
 20
-445.8746538844298
 30
0.0
 10
783.9472135011092
 20
-443.6980458626294
 30
0.0
 10
780.8999622705905
 20
-440.6507946321108
 30
0.0
 10
758.2710124439545
 20
-457.6244504021051
 30
0.0
 10
738.2501054434397
 20
-474.5961627720844
 30
0.0
 10
743.9092863001188
 20
-481.5593650418232
 30
0.0
 10
750.8724885698575
 20
-491.1344969377205
 30
0.0
 10
783.0765702923909
 20
-457.1891287977451
 30
0.0
 10
785.2531783141894
 20
-447.1786752974876
 30
0.0
  0
HATCH
  5
52
330
45
100
AcDbEntity
  8
Layer 1
 62
    18
420
   263172
100
AcDbHatch
 10
0.0
 20
0.0
 30
0.0
210
0.0
220
0.0
230
1.0
  2
SOLID
 70
     1
 71
     0
 91
        2
 92
        1
 93
        1
 72
     4
 94
        3
 73
     0
 74
     1
 95
       50
 96
       46
 40
0.0
 40
0.0
 40
0.0
 40
0.0
 40
1.0
 40
1.0
 40
1.0
 40
2.0
 40
2.0
 40
2.0
 40
3.0
 40
3.0
 40
3.0
 40
4.0
 40
4.0
 40
4.0
 40
5.0
 40
5.0
 40
5.0
 40
6.0
 40
6.0
 40
6.0
 40
7.0
 40
7.0
 40
7.0
 40
8.0
 40
8.0
 40
8.0
 40
9.0
 40
9.0
 40
9.0
 40
10.0
 40
10.0
 40
10.0
 40
11.0
 40
11.0
 40
11.0
 40
12.0
 40
12.0
 40
12.0
 40
13.0
 40
13.0
 40
13.0
 40
14.0
 40
14.0
 40
14.0
 40
15.0
 40
15.0
 40
15.0
 40
15.0
 10
793.9557236013479
 20
-431.512927740594
 10
793.9557236013479
 20
-431.512927740594
 10
798.7442612493087
 20
-435.4288787798123
 10
798.7442612493087
 20
-435.4288787798123
 10
815.7159736192843
 20
-454.5771991715847
 10
805.7074635190456
 20
-471.9861765459445
 10
788.2984861446912
 20
-490.6991753333605
 10
770.8914521703537
 20
-510.2828173294929
 10
751.3078101742176
 20
-509.4121741207728
 10
744.3446079044788
 20
-501.144950437978
 10
739.5560702565199
 20
-496.356412790019
 10
727.3709521344826
 20
-488.9578889159202
 10
729.5475601562812
 20
-471.9861765459445
 10
729.9828817606412
 20
-468.503603711064
 10
742.1679998826785
 20
-451.5318913410883
 10
766.538236126753
 20
-432.8169491536519
 10
750.8724885698575
 20
-424.1144038664934
 10
728.241595343201
 20
-409.3173561182939
 10
719.9724282603838
 20
-391.9083787439395
 10
710.3972963644865
 20
-373.1953799565254
 10
741.7326782783184
 20
-322.7116776509156
 10
780.4646406662305
 20
-290.0722743240203
 10
795.2616884144281
 20
-279.6264992194028
 10
807.4487499364859
 20
-291.3782391371005
 10
815.7159736192843
 20
-300.9514276329792
 10
809.6234145582657
 20
-304.4340004678597
 10
787.8631645403311
 20
-323.1469992552757
 10
779.5959408575309
 20
-333.5927743598932
 10
747.389915734977
 20
-372.7600583521653
 10
744.3446079044788
 20
-381.8998686437044
 10
743.0386430913986
 20
-392.3437003482995
 10
742.1679998826785
 20
-400.6128674311167
 10
763.0576066918948
 20
-413.6686287618759
 10
779.5959408575309
 20
-423.2437606577732
 10
780.0293190618722
 20
-422.8084390534132
 10
780.4646406662305
 20
-422.3731174490531
 10
780.8999622705905
 20
-422.3731174490531
 10
794.8263668100681
 20
-412.3626639487957
 10
807.8821281408254
 20
-406.2701048877789
 10
824.8557839108216
 20
-403.2247970572771
 10
833.5602725980007
 20
-406.7054264921389
 10
833.9955942023607
 20
-407.5760697008554
 10
830.9483429718402
 20
-412.7979855531557
 10
818.763224849803
 20
-415.8452367836762
 10
808.3174497451855
 20
-419.7611878228963
 10
793.9557236013479
 20
-431.512927740594
 97
        0
 97
        0
 92
        1
 93
        1
 72
     4
 94
        3
 73
     0
 74
     1
 95
       14
 96
       10
 40
0.0
 40
0.0
 40
0.0
 40
0.0
 40
1.0
 40
1.0
 40
1.0
 40
2.0
 40
2.0
 40
2.0
 40
3.0
 40
3.0
 40
3.0
 40
3.0
 10
785.2531783141894
 20
-447.1786752974876
 10
785.6884999185495
 20
-445.8746538844298
 10
783.9472135011092
 20
-443.6980458626294
 10
780.8999622705905
 20
-440.6507946321108
 10
758.2710124439545
 20
-457.6244504021051
 10
738.2501054434397
 20
-474.5961627720844
 10
743.9092863001188
 20
-481.5593650418232
 10
750.8724885698575
 20
-491.1344969377205
 10
783.0765702923909
 20
-457.1891287977451
 10
785.2531783141894
 20
-447.1786752974876
 97
        0
 97
        0
 75
     2
 76
     1
 98
        0
  0
SPLINE
  5
53
330
45
100
AcDbEntity
  8
Layer 1
370
     0
100
AcDbSpline
210
0.0
220
0.0
230
1.0
 70
    11
 71
     3
 72
    71
 73
    67
 74
     0
 42
0.0000000001
 43
0.0000000001
 12
1.0
 22
0.0
 32
0.0
 13
1.0
 23
0.0
 33
0.0
 40
0.0
 40
0.0
 40
0.0
 40
0.0
 40
1.0
 40
1.0
 40
1.0
 40
2.0
 40
2.0
 40
2.0
 40
3.0
 40
3.0
 40
3.0
 40
4.0
 40
4.0
 40
4.0
 40
5.0
 40
5.0
 40
5.0
 40
6.0
 40
6.0
 40
6.0
 40
7.0
 40
7.0
 40
7.0
 40
8.0
 40
8.0
 40
8.0
 40
9.0
 40
9.0
 40
9.0
 40
10.0
 40
10.0
 40
10.0
 40
11.0
 40
11.0
 40
11.0
 40
12.0
 40
12.0
 40
12.0
 40
13.0
 40
13.0
 40
13.0
 40
14.0
 40
14.0
 40
14.0
 40
15.0
 40
15.0
 40
15.0
 40
16.0
 40
16.0
 40
16.0
 40
17.0
 40
17.0
 40
17.0
 40
18.0
 40
18.0
 40
18.0
 40
19.0
 40
19.0
 40
19.0
 40
20.0
 40
20.0
 40
20.0
 40
21.0
 40
21.0
 40
21.0
 40
22.0
 40
22.0
 40
22.0
 40
22.0
 10
900.5803656692278
 20
-497.2270559987373
 30
0.0
 10
895.7937714212876
 20
-498.0976992074575
 30
0.0
 10
891.4424987777074
 20
-498.0976992074575
 30
0.0
 10
887.9599259428269
 20
-497.6623776030974
 30
0.0
 10
881.43204527745
 20
-497.2270559987373
 30
0.0
 10
875.3394862164296
 20
-494.6170697725993
 30
0.0
 10
875.3394862164296
 20
-488.0872457072001
 30
0.0
 10
875.3394862164296
 20
-434.1229139667321
 30
0.0
 10
909.284854356405
 20
-352.7410947516673
 30
0.0
 10
905.368903317185
 20
-354.9177027734659
 30
0.0
 10
891.8778203820675
 20
-360.574940230128
 30
0.0
 10
852.2732713854148
 20
-431.9482493449505
 30
0.0
 10
841.8294396808178
 20
-471.5508549415845
 30
0.0
 10
841.8294396808178
 20
-471.5508549415845
 30
0.0
 10
842.700082889538
 20
-472.4214981503046
 30
0.0
 10
842.700082889538
 20
-472.4214981503046
 30
0.0
 10
842.2647612851779
 20
-472.4214981503046
 30
0.0
 10
841.8294396808178
 20
-472.8568197546647
 30
0.0
 10
841.3941180764577
 20
-472.8568197546647
 30
0.0
 10
841.3941180764577
 20
-472.8568197546647
 30
0.0
 10
841.3941180764577
 20
-473.2921413590229
 30
0.0
 10
841.3941180764577
 20
-473.2921413590229
 30
0.0
 10
837.4781670372395
 20
-475.0314843764445
 30
0.0
 10
830.0796431631406
 20
-478.9493788156815
 30
0.0
 10
823.5517624977601
 20
-477.6434140026013
 30
0.0
 10
819.6338680585231
 20
-476.7727707938848
 30
0.0
 10
817.4572600367246
 20
-475.0314843764445
 30
0.0
 10
816.5885602280232
 20
-472.8568197546647
 30
0.0
 10
815.7179170193031
 20
-471.5508549415845
 30
0.0
 10
815.282595414943
 20
-470.2448901285043
 30
0.0
 10
815.282595414943
 20
-468.9389253154241
 30
0.0
 10
815.282595414943
 20
-464.1523310674838
 30
0.0
 10
815.282595414943
 20
-458.9304152151853
 30
0.0
 10
815.7179170193031
 20
-453.7065559628663
 30
0.0
 10
815.7179170193031
 20
-453.7065559628663
 30
0.0
 10
815.282595414943
 20
-453.2712343585063
 30
0.0
 10
815.282595414943
 20
-453.2712343585063
 30
0.0
 10
815.282595414943
 20
-453.2712343585063
 30
0.0
 10
815.7179170193031
 20
-452.8378561541667
 30
0.0
 10
815.7179170193031
 20
-452.8378561541667
 30
0.0
 10
819.1985464541631
 20
-407.1407480964972
 30
0.0
 10
833.1249509936406
 20
-342.7306412514081
 30
0.0
 10
851.4045715767152
 20
-284.8503584717237
 30
0.0
 10
859.6717952595136
 20
-260.4781788276305
 30
0.0
 10
867.9409623423326
 20
-237.8472856009739
 30
0.0
 10
876.2101294251497
 20
-218.2636436048379
 30
0.0
 10
886.2205829254071
 20
-216.9576787917576
 30
0.0
 10
894.9231282125675
 20
-218.6989652091979
 30
0.0
 10
903.1922952953846
 20
-224.3562026658547
 30
0.0
 10
896.6644146300059
 20
-237.8472856009739
 30
0.0
 10
889.2658907559071
 20
-253.9502981622481
 30
0.0
 10
882.3026884861702
 20
-273.098618554026
 30
0.0
 10
867.0703191336124
 20
-311.3972027375967
 30
0.0
 10
855.7558442202953
 20
-363.620248060628
 30
0.0
 10
854.4498794072151
 20
-368.8441073129452
 30
0.0
 10
849.6632851592767
 20
-391.0377355352193
 30
0.0
 10
846.180712324398
 20
-410.6233209313741
 30
0.0
 10
844.0060477026182
 20
-426.289068488275
 30
0.0
 10
862.283724885674
 20
-385.8158196829208
 30
0.0
 10
892.3131419864276
 20
-334.4634175686133
 30
0.0
 10
905.804224921545
 20
-335.7674389816711
 30
0.0
 10
912.7674271912838
 20
-335.7674389816711
 30
0.0
 10
931.4804259786997
 20
-347.5191788993689
 30
0.0
 10
931.4804259786997
 20
-350.5644867298706
 30
0.0
 10
931.4804259786997
 20
-352.7410947516673
 30
0.0
 10
897.0997362343642
 20
-441.5214378408291
 30
0.0
 10
900.5803656692278
 20
-497.2270559987373
 30
0.0
  0
HATCH
  5
54
330
45
100
AcDbEntity
  8
Layer 1
 62
    18
420
   263172
100
AcDbHatch
 10
0.0
 20
0.0
 30
0.0
210
0.0
220
0.0
230
1.0
  2
SOLID
 70
     1
 71
     0
 91
        1
 92
        1
 93
        1
 72
     4
 94
        3
 73
     0
 74
     1
 95
       71
 96
       67
 40
0.0
 40
0.0
 40
0.0
 40
0.0
 40
1.0
 40
1.0
 40
1.0
 40
2.0
 40
2.0
 40
2.0
 40
3.0
 40
3.0
 40
3.0
 40
4.0
 40
4.0
 40
4.0
 40
5.0
 40
5.0
 40
5.0
 40
6.0
 40
6.0
 40
6.0
 40
7.0
 40
7.0
 40
7.0
 40
8.0
 40
8.0
 40
8.0
 40
9.0
 40
9.0
 40
9.0
 40
10.0
 40
10.0
 40
10.0
 40
11.0
 40
11.0
 40
11.0
 40
12.0
 40
12.0
 40
12.0
 40
13.0
 40
13.0
 40
13.0
 40
14.0
 40
14.0
 40
14.0
 40
15.0
 40
15.0
 40
15.0
 40
16.0
 40
16.0
 40
16.0
 40
17.0
 40
17.0
 40
17.0
 40
18.0
 40
18.0
 40
18.0
 40
19.0
 40
19.0
 40
19.0
 40
20.0
 40
20.0
 40
20.0
 40
21.0
 40
21.0
 40
21.0
 40
22.0
 40
22.0
 40
22.0
 40
22.0
 10
900.5803656692278
 20
-497.2270559987373
 10
895.7937714212876
 20
-498.0976992074575
 10
891.4424987777074
 20
-498.0976992074575
 10
887.9599259428269
 20
-497.6623776030974
 10
881.43204527745
 20
-497.2270559987373
 10
875.3394862164296
 20
-494.6170697725993
 10
875.3394862164296
 20
-488.0872457072001
 10
875.3394862164296
 20
-434.1229139667321
 10
909.284854356405
 20
-352.7410947516673
 10
905.368903317185
 20
-354.9177027734659
 10
891.8778203820675
 20
-360.574940230128
 10
852.2732713854148
 20
-431.9482493449505
 10
841.8294396808178
 20
-471.5508549415845
 10
841.8294396808178
 20
-471.5508549415845
 10
842.700082889538
 20
-472.4214981503046
 10
842.700082889538
 20
-472.4214981503046
 10
842.2647612851779
 20
-472.4214981503046
 10
841.8294396808178
 20
-472.8568197546647
 10
841.3941180764577
 20
-472.8568197546647
 10
841.3941180764577
 20
-472.8568197546647
 10
841.3941180764577
 20
-473.2921413590229
 10
841.3941180764577
 20
-473.2921413590229
 10
837.4781670372395
 20
-475.0314843764445
 10
830.0796431631406
 20
-478.9493788156815
 10
823.5517624977601
 20
-477.6434140026013
 10
819.6338680585231
 20
-476.7727707938848
 10
817.4572600367246
 20
-475.0314843764445
 10
816.5885602280232
 20
-472.8568197546647
 10
815.7179170193031
 20
-471.5508549415845
 10
815.282595414943
 20
-470.2448901285043
 10
815.282595414943
 20
-468.9389253154241
 10
815.282595414943
 20
-464.1523310674838
 10
815.282595414943
 20
-458.9304152151853
 10
815.7179170193031
 20
-453.7065559628663
 10
815.7179170193031
 20
-453.7065559628663
 10
815.282595414943
 20
-453.2712343585063
 10
815.282595414943
 20
-453.2712343585063
 10
815.282595414943
 20
-453.2712343585063
 10
815.7179170193031
 20
-452.8378561541667
 10
815.7179170193031
 20
-452.8378561541667
 10
819.1985464541631
 20
-407.1407480964972
 10
833.1249509936406
 20
-342.7306412514081
 10
851.4045715767152
 20
-284.8503584717237
 10
859.6717952595136
 20
-260.4781788276305
 10
867.9409623423326
 20
-237.8472856009739
 10
876.2101294251497
 20
-218.2636436048379
 10
886.2205829254071
 20
-216.9576787917576
 10
894.9231282125675
 20
-218.6989652091979
 10
903.1922952953846
 20
-224.3562026658547
 10
896.6644146300059
 20
-237.8472856009739
 10
889.2658907559071
 20
-253.9502981622481
 10
882.3026884861702
 20
-273.098618554026
 10
867.0703191336124
 20
-311.3972027375967
 10
855.7558442202953
 20
-363.620248060628
 10
854.4498794072151
 20
-368.8441073129452
 10
849.6632851592767
 20
-391.0377355352193
 10
846.180712324398
 20
-410.6233209313741
 10
844.0060477026182
 20
-426.289068488275
 10
862.283724885674
 20
-385.8158196829208
 10
892.3131419864276
 20
-334.4634175686133
 10
905.804224921545
 20
-335.7674389816711
 10
912.7674271912838
 20
-335.7674389816711
 10
931.4804259786997
 20
-347.5191788993689
 10
931.4804259786997
 20
-350.5644867298706
 10
931.4804259786997
 20
-352.7410947516673
 10
897.0997362343642
 20
-441.5214378408291
 10
900.5803656692278
 20
-497.2270559987373
 97
        0
 97
        0
 75
     2
 76
     1
 98
        0
  0
ENDBLK
  5
48
330
45
100
AcDbEntity
  8
0
100
AcDbBlockEnd
  0
BLOCK
  5
57
330
55
100
AcDbEntity
  8
0
100
AcDbBlockBegin
  2
block 4
 70
     0
 10
0.0
 20
0.0
 30
0.0
  3
block 4
  1

  0
SPLINE
  5
59
330
55
100
AcDbEntity
  8
Layer 1
370
     0
100
AcDbSpline
210
0.0
220
0.0
230
1.0
 70
    11
 71
     3
 72
    32
 73
    28
 74
     0
 42
0.0000000001
 43
0.0000000001
 12
1.0
 22
0.0
 32
0.0
 13
1.0
 23
0.0
 33
0.0
 40
0.0
 40
0.0
 40
0.0
 40
0.0
 40
1.0
 40
1.0
 40
1.0
 40
2.0
 40
2.0
 40
2.0
 40
3.0
 40
3.0
 40
3.0
 40
4.0
 40
4.0
 40
4.0
 40
5.0
 40
5.0
 40
5.0
 40
6.0
 40
6.0
 40
6.0
 40
7.0
 40
7.0
 40
7.0
 40
8.0
 40
8.0
 40
8.0
 40
9.0
 40
9.0
 40
9.0
 40
9.0
 10
386.6676645222378
 20
-605.0041342781569
 30
0.0
 10
385.3616997091576
 20
-606.7454206955972
 30
0.0
 10
384.9263781047985
 20
-608.9220287173976
 30
0.0
 10
383.6213849917294
 20
-610.6613717348155
 30
0.0
 10
383.1860633873694
 20
-611.9673365478939
 30
0.0
 10
382.3154201786492
 20
-612.837979756614
 30
0.0
 10
381.8800985742891
 20
-613.7086229653341
 30
0.0
 10
377.0935043263498
 20
-607.6160639043173
 30
0.0
 10
370.5646519609609
 20
-602.3941480520189
 30
0.0
 10
362.2964565781531
 20
-598.4762536127782
 30
0.0
 10
348.3700520386756
 20
-591.5130513430413
 30
0.0
 10
325.7391588120208
 20
-585.8558138863827
 30
0.0
 10
292.2291122764072
 20
-590.6424081343212
 30
0.0
 10
233.4772145879888
 20
-598.9115752171383
 30
0.0
 10
184.299477095461
 20
-625.4584194830168
 30
0.0
 10
162.1039054731655
 20
-659.403787622985
 30
0.0
 10
162.1039054731655
 20
-659.839109227345
 30
0.0
 10
161.6685838688054
 20
-659.403787622985
 30
0.0
 10
161.2342339644565
 20
-658.9684660186249
 30
0.0
 10
150.3541089554865
 20
-650.7012423358301
 30
0.0
 10
149.9187873511264
 20
-649.3952775227499
 30
0.0
 10
161.6685838688054
 20
-634.162908170194
 30
0.0
 10
186.4751134172502
 20
-604.1334910694368
 30
0.0
 10
292.2291122764072
 20
-550.1691593289688
 30
0.0
 10
375.3522179089096
 20
-572.8000525556254
 30
0.0
 10
394.9368316050559
 20
-583.6792058645842
 30
0.0
 10
393.1955451876156
 20
-593.2543377604816
 30
0.0
 10
386.6676645222378
 20
-605.0041342781569
 30
0.0
  0
SPLINE
  5
5A
330
55
100
AcDbEntity
  8
Layer 1
370
     0
100
AcDbSpline
210
0.0
220
0.0
230
1.0
 70
    11
 71
     3
 72
    74
 73
    70
 74
     0
 42
0.0000000001
 43
0.0000000001
 12
1.0
 22
0.0
 32
0.0
 13
1.0
 23
0.0
 33
0.0
 40
0.0
 40
0.0
 40
0.0
 40
0.0
 40
1.0
 40
1.0
 40
1.0
 40
2.0
 40
2.0
 40
2.0
 40
3.0
 40
3.0
 40
3.0
 40
4.0
 40
4.0
 40
4.0
 40
5.0
 40
5.0
 40
5.0
 40
6.0
 40
6.0
 40
6.0
 40
7.0
 40
7.0
 40
7.0
 40
8.0
 40
8.0
 40
8.0
 40
9.0
 40
9.0
 40
9.0
 40
10.0
 40
10.0
 40
10.0
 40
11.0
 40
11.0
 40
11.0
 40
12.0
 40
12.0
 40
12.0
 40
13.0
 40
13.0
 40
13.0
 40
14.0
 40
14.0
 40
14.0
 40
15.0
 40
15.0
 40
15.0
 40
16.0
 40
16.0
 40
16.0
 40
17.0
 40
17.0
 40
17.0
 40
18.0
 40
18.0
 40
18.0
 40
19.0
 40
19.0
 40
19.0
 40
20.0
 40
20.0
 40
20.0
 40
21.0
 40
21.0
 40
21.0
 40
22.0
 40
22.0
 40
22.0
 40
23.0
 40
23.0
 40
23.0
 40
23.0
 10
319.2112781466431
 20
-743.3975364642101
 30
0.0
 10
317.035641824853
 20
-727.2945239029359
 30
0.0
 10
271.3395054671928
 20
-739.4815854249864
 30
0.0
 10
257.8484225320744
 20
-741.6562500467699
 30
0.0
 10
246.0976543143879
 20
-799.5384762264785
 30
0.0
 10
238.2638088359299
 20
-854.8087727800266
 30
0.0
 10
244.7926612013189
 20
-860.4660102366852
 30
0.0
 10
239.1344520446501
 20
-860.9013318410452
 30
0.0
 10
233.4772145879888
 20
-860.9013318410452
 30
0.0
 10
228.2543270356819
 20
-860.4660102366852
 30
0.0
 10
219.5508100485131
 20
-859.1619888236273
 30
0.0
 10
210.4109997569758
 20
-857.420702406187
 30
0.0
 10
208.6706850395449
 20
-850.8928217408029
 30
0.0
 10
203.8831190915962
 20
-834.7898091795269
 30
0.0
 10
213.8935725918536
 20
-788.659322917516
 30
0.0
 10
223.0324111833825
 20
-752.9726683601075
 30
0.0
 10
210.4109997569758
 20
-756.4532977949657
 30
0.0
 10
203.4477974872361
 20
-760.8065138385664
 30
0.0
 10
193.0039657826392
 20
-762.1105352516242
 30
0.0
 10
185.6054419085394
 20
-763.4165000647045
 30
0.0
 10
179.5119111475115
 20
-754.2786331731877
 30
0.0
 10
182.5581906780217
 20
-745.5741444860105
 30
0.0
 10
196.4845952174974
 20
-749.0547739208687
 30
0.0
 10
207.8000418308247
 20
-747.3154309034508
 30
0.0
 10
226.5140123182509
 20
-739.9169070293465
 30
0.0
 10
226.5140123182509
 20
-737.3049774031933
 30
0.0
 10
227.3846555269711
 20
-733.8243479683279
 30
0.0
 10
253.0608565841248
 20
-624.5877762742966
 30
0.0
 10
253.4961781884849
 20
-624.1524546699366
 30
0.0
 10
253.4961781884849
 20
-623.2837548612315
 30
0.0
 10
253.4961781884849
 20
-622.4131116525114
 30
0.0
 10
253.931499792845
 20
-621.9777900481513
 30
0.0
 10
253.931499792845
 20
-621.9777900481513
 30
0.0
 10
253.931499792845
 20
-621.9777900481513
 30
0.0
 10
254.8021430015651
 20
-617.1892524001923
 30
0.0
 10
254.8021430015651
 20
-613.2733013609741
 30
0.0
 10
253.4961781884849
 20
-610.2260501304554
 30
0.0
 10
253.4961781884849
 20
-610.2260501304554
 30
0.0
 10
251.7558634710558
 20
-605.8747774868771
 30
0.0
 10
251.7558634710558
 20
-605.8747774868771
 30
0.0
 10
251.7558634710558
 20
-605.8747774868771
 30
0.0
 10
253.0608565841248
 20
-604.5688126737969
 30
0.0
 10
253.0608565841248
 20
-604.5688126737969
 30
0.0
 10
253.0608565841248
 20
-604.5688126737969
 30
0.0
 10
253.931499792845
 20
-604.5688126737969
 30
0.0
 10
253.931499792845
 20
-604.5688126737969
 30
0.0
 10
257.8484225320744
 20
-604.1334910694368
 30
0.0
 10
261.765345271303
 20
-604.5688126737969
 30
0.0
 10
264.8116248018132
 20
-605.0041342781569
 30
0.0
 10
270.4688622584727
 20
-606.3100990912371
 30
0.0
 10
276.5623930195015
 20
-608.0513855086774
 30
0.0
 10
279.6086725500099
 20
-611.9673365478939
 30
0.0
 10
283.5255952892394
 20
-618.4952172132726
 30
0.0
 10
280.4783440587189
 20
-632.4216217527537
 30
0.0
 10
278.7380293412907
 20
-641.561432044291
 30
0.0
 10
278.3027077369306
 20
-643.7380400660913
 30
0.0
 10
277.8673861325706
 20
-645.0420614791492
 30
0.0
 10
277.8673861325706
 20
-645.4773830835093
 30
0.0
 10
277.4320645282105
 20
-645.9127046878693
 30
0.0
 10
277.4320645282105
 20
-646.3480262922294
 30
0.0
 10
277.4320645282105
 20
-646.7833478965895
 30
0.0
 10
270.9041838628327
 20
-674.2008353711808
 30
0.0
 10
265.2469464061733
 20
-700.7476796370574
 30
0.0
 10
259.5887372495044
 20
-730.3417751334491
 30
0.0
 10
292.6644338807673
 20
-719.0273002201338
 30
0.0
 10
307.4614816289641
 20
-710.3228115329548
 30
0.0
 10
316.6003202204929
 20
-715.9800489896134
 30
0.0
 10
322.6928792815124
 20
-719.897943428854
 30
0.0
 10
322.6928792815124
 20
-736.4343341944732
 30
0.0
 10
319.2112781466431
 20
-743.3975364642101
 30
0.0
  0
HATCH
  5
5B
330
55
100
AcDbEntity
  8
Layer 1
 62
    18
420
   263172
100
AcDbHatch
 10
0.0
 20
0.0
 30
0.0
210
0.0
220
0.0
230
1.0
  2
SOLID
 70
     1
 71
     0
 91
        2
 92
        1
 93
        1
 72
     4
 94
        3
 73
     0
 74
     1
 95
       32
 96
       28
 40
0.0
 40
0.0
 40
0.0
 40
0.0
 40
1.0
 40
1.0
 40
1.0
 40
2.0
 40
2.0
 40
2.0
 40
3.0
 40
3.0
 40
3.0
 40
4.0
 40
4.0
 40
4.0
 40
5.0
 40
5.0
 40
5.0
 40
6.0
 40
6.0
 40
6.0
 40
7.0
 40
7.0
 40
7.0
 40
8.0
 40
8.0
 40
8.0
 40
9.0
 40
9.0
 40
9.0
 40
9.0
 10
386.6676645222378
 20
-605.0041342781569
 10
385.3616997091576
 20
-606.7454206955972
 10
384.9263781047985
 20
-608.9220287173976
 10
383.6213849917294
 20
-610.6613717348155
 10
383.1860633873694
 20
-611.9673365478939
 10
382.3154201786492
 20
-612.837979756614
 10
381.8800985742891
 20
-613.7086229653341
 10
377.0935043263498
 20
-607.6160639043173
 10
370.5646519609609
 20
-602.3941480520189
 10
362.2964565781531
 20
-598.4762536127782
 10
348.3700520386756
 20
-591.5130513430413
 10
325.7391588120208
 20
-585.8558138863827
 10
292.2291122764072
 20
-590.6424081343212
 10
233.4772145879888
 20
-598.9115752171383
 10
184.299477095461
 20
-625.4584194830168
 10
162.1039054731655
 20
-659.403787622985
 10
162.1039054731655
 20
-659.839109227345
 10
161.6685838688054
 20
-659.403787622985
 10
161.2342339644565
 20
-658.9684660186249
 10
150.3541089554865
 20
-650.7012423358301
 10
149.9187873511264
 20
-649.3952775227499
 10
161.6685838688054
 20
-634.162908170194
 10
186.4751134172502
 20
-604.1334910694368
 10
292.2291122764072
 20
-550.1691593289688
 10
375.3522179089096
 20
-572.8000525556254
 10
394.9368316050559
 20
-583.6792058645842
 10
393.1955451876156
 20
-593.2543377604816
 10
386.6676645222378
 20
-605.0041342781569
 97
        0
 97
        0
 92
        1
 93
        1
 72
     4
 94
        3
 73
     0
 74
     1
 95
       74
 96
       70
 40
0.0
 40
0.0
 40
0.0
 40
0.0
 40
1.0
 40
1.0
 40
1.0
 40
2.0
 40
2.0
 40
2.0
 40
3.0
 40
3.0
 40
3.0
 40
4.0
 40
4.0
 40
4.0
 40
5.0
 40
5.0
 40
5.0
 40
6.0
 40
6.0
 40
6.0
 40
7.0
 40
7.0
 40
7.0
 40
8.0
 40
8.0
 40
8.0
 40
9.0
 40
9.0
 40
9.0
 40
10.0
 40
10.0
 40
10.0
 40
11.0
 40
11.0
 40
11.0
 40
12.0
 40
12.0
 40
12.0
 40
13.0
 40
13.0
 40
13.0
 40
14.0
 40
14.0
 40
14.0
 40
15.0
 40
15.0
 40
15.0
 40
16.0
 40
16.0
 40
16.0
 40
17.0
 40
17.0
 40
17.0
 40
18.0
 40
18.0
 40
18.0
 40
19.0
 40
19.0
 40
19.0
 40
20.0
 40
20.0
 40
20.0
 40
21.0
 40
21.0
 40
21.0
 40
22.0
 40
22.0
 40
22.0
 40
23.0
 40
23.0
 40
23.0
 40
23.0
 10
319.2112781466431
 20
-743.3975364642101
 10
317.035641824853
 20
-727.2945239029359
 10
271.3395054671928
 20
-739.4815854249864
 10
257.8484225320744
 20
-741.6562500467699
 10
246.0976543143879
 20
-799.5384762264785
 10
238.2638088359299
 20
-854.8087727800266
 10
244.7926612013189
 20
-860.4660102366852
 10
239.1344520446501
 20
-860.9013318410452
 10
233.4772145879888
 20
-860.9013318410452
 10
228.2543270356819
 20
-860.4660102366852
 10
219.5508100485131
 20
-859.1619888236273
 10
210.4109997569758
 20
-857.420702406187
 10
208.6706850395449
 20
-850.8928217408029
 10
203.8831190915962
 20
-834.7898091795269
 10
213.8935725918536
 20
-788.659322917516
 10
223.0324111833825
 20
-752.9726683601075
 10
210.4109997569758
 20
-756.4532977949657
 10
203.4477974872361
 20
-760.8065138385664
 10
193.0039657826392
 20
-762.1105352516242
 10
185.6054419085394
 20
-763.4165000647045
 10
179.5119111475115
 20
-754.2786331731877
 10
182.5581906780217
 20
-745.5741444860105
 10
196.4845952174974
 20
-749.0547739208687
 10
207.8000418308247
 20
-747.3154309034508
 10
226.5140123182509
 20
-739.9169070293465
 10
226.5140123182509
 20
-737.3049774031933
 10
227.3846555269711
 20
-733.8243479683279
 10
253.0608565841248
 20
-624.5877762742966
 10
253.4961781884849
 20
-624.1524546699366
 10
253.4961781884849
 20
-623.2837548612315
 10
253.4961781884849
 20
-622.4131116525114
 10
253.931499792845
 20
-621.9777900481513
 10
253.931499792845
 20
-621.9777900481513
 10
253.931499792845
 20
-621.9777900481513
 10
254.8021430015651
 20
-617.1892524001923
 10
254.8021430015651
 20
-613.2733013609741
 10
253.4961781884849
 20
-610.2260501304554
 10
253.4961781884849
 20
-610.2260501304554
 10
251.7558634710558
 20
-605.8747774868771
 10
251.7558634710558
 20
-605.8747774868771
 10
251.7558634710558
 20
-605.8747774868771
 10
253.0608565841248
 20
-604.5688126737969
 10
253.0608565841248
 20
-604.5688126737969
 10
253.0608565841248
 20
-604.5688126737969
 10
253.931499792845
 20
-604.5688126737969
 10
253.931499792845
 20
-604.5688126737969
 10
257.8484225320744
 20
-604.1334910694368
 10
261.765345271303
 20
-604.5688126737969
 10
264.8116248018132
 20
-605.0041342781569
 10
270.4688622584727
 20
-606.3100990912371
 10
276.5623930195015
 20
-608.0513855086774
 10
279.6086725500099
 20
-611.9673365478939
 10
283.5255952892394
 20
-618.4952172132726
 10
280.4783440587189
 20
-632.4216217527537
 10
278.7380293412907
 20
-641.561432044291
 10
278.3027077369306
 20
-643.7380400660913
 10
277.8673861325706
 20
-645.0420614791492
 10
277.8673861325706
 20
-645.4773830835093
 10
277.4320645282105
 20
-645.9127046878693
 10
277.4320645282105
 20
-646.3480262922294
 10
277.4320645282105
 20
-646.7833478965895
 10
270.9041838628327
 20
-674.2008353711808
 10
265.2469464061733
 20
-700.7476796370574
 10
259.5887372495044
 20
-730.3417751334491
 10
292.6644338807673
 20
-719.0273002201338
 10
307.4614816289641
 20
-710.3228115329548
 10
316.6003202204929
 20
-715.9800489896134
 10
322.6928792815124
 20
-719.897943428854
 10
322.6928792815124
 20
-736.4343341944732
 10
319.2112781466431
 20
-743.3975364642101
 97
        0
 97
        0
 75
     2
 76
     1
 98
        0
  0
SPLINE
  5
5C
330
55
100
AcDbEntity
  8
Layer 1
370
     0
100
AcDbSpline
210
0.0
220
0.0
230
1.0
 70
    11
 71
     3
 72
    29
 73
    25
 74
     0
 42
0.0000000001
 43
0.0000000001
 12
1.0
 22
0.0
 32
0.0
 13
1.0
 23
0.0
 33
0.0
 40
0.0
 40
0.0
 40
0.0
 40
0.0
 40
1.0
 40
1.0
 40
1.0
 40
2.0
 40
2.0
 40
2.0
 40
3.0
 40
3.0
 40
3.0
 40
4.0
 40
4.0
 40
4.0
 40
5.0
 40
5.0
 40
5.0
 40
6.0
 40
6.0
 40
6.0
 40
7.0
 40
7.0
 40
7.0
 40
8.0
 40
8.0
 40
8.0
 40
8.0
 10
347.932787034295
 20
-784.3061068739171
 30
0.0
 10
347.932787034295
 20
-919.2188796251121
 30
0.0
 10
396.2398813181062
 20
-768.2050377126634
 30
0.0
 10
405.8140415139942
 20
-739.4815854249864
 30
0.0
 10
409.7309642532246
 20
-739.4815854249864
 30
0.0
 10
414.0832085968132
 20
-739.9169070293465
 30
0.0
 10
415.3882017098822
 20
-744.7035012772903
 30
0.0
 10
398.4155176398945
 20
-812.594237557234
 30
0.0
 10
377.9612324350401
 20
-853.0674863625864
 30
0.0
 10
364.4701494999226
 20
-861.7719750497654
 30
0.0
 10
360.9885483650542
 20
-863.9485830715639
 30
0.0
 10
340.534263160198
 20
-856.1147375931068
 30
0.0
 10
338.3576551383976
 20
-852.6321647582281
 30
0.0
 10
296.144091615618
 20
-789.5299661262361
 30
0.0
 10
350.108423356086
 20
-578.0219684079257
 30
0.0
 10
377.52591083068
 20
-554.0870537682076
 30
0.0
 10
377.52591083068
 20
-554.0870537682076
 30
0.0
 10
381.8781551742704
 20
-554.0870537682076
 30
0.0
 10
381.8781551742704
 20
-554.0870537682076
 30
0.0
 10
390.1463505570773
 20
-554.0870537682076
 30
0.0
 10
397.1095528268161
 20
-555.8263967856255
 30
0.0
 10
403.6384051922032
 20
-561.0502560379464
 30
0.0
 10
375.7855961132491
 20
-623.7190764655916
 30
0.0
 10
347.932787034295
 20
-713.3700627634753
 30
0.0
 10
347.932787034295
 20
-784.3061068739171
 30
0.0
  0
HATCH
  5
5D
330
55
100
AcDbEntity
  8
Layer 1
 62
    18
420
   263172
100
AcDbHatch
 10
0.0
 20
0.0
 30
0.0
210
0.0
220
0.0
230
1.0
  2
SOLID
 70
     1
 71
     0
 91
        1
 92
        1
 93
        1
 72
     4
 94
        3
 73
     0
 74
     1
 95
       29
 96
       25
 40
0.0
 40
0.0
 40
0.0
 40
0.0
 40
1.0
 40
1.0
 40
1.0
 40
2.0
 40
2.0
 40
2.0
 40
3.0
 40
3.0
 40
3.0
 40
4.0
 40
4.0
 40
4.0
 40
5.0
 40
5.0
 40
5.0
 40
6.0
 40
6.0
 40
6.0
 40
7.0
 40
7.0
 40
7.0
 40
8.0
 40
8.0
 40
8.0
 40
8.0
 10
347.932787034295
 20
-784.3061068739171
 10
347.932787034295
 20
-919.2188796251121
 10
396.2398813181062
 20
-768.2050377126634
 10
405.8140415139942
 20
-739.4815854249864
 10
409.7309642532246
 20
-739.4815854249864
 10
414.0832085968132
 20
-739.9169070293465
 10
415.3882017098822
 20
-744.7035012772903
 10
398.4155176398945
 20
-812.594237557234
 10
377.9612324350401
 20
-853.0674863625864
 10
364.4701494999226
 20
-861.7719750497654
 10
360.9885483650542
 20
-863.9485830715639
 10
340.534263160198
 20
-856.1147375931068
 10
338.3576551383976
 20
-852.6321647582281
 10
296.144091615618
 20
-789.5299661262361
 10
350.108423356086
 20
-578.0219684079257
 10
377.52591083068
 20
-554.0870537682076
 10
377.52591083068
 20
-554.0870537682076
 10
381.8781551742704
 20
-554.0870537682076
 10
381.8781551742704
 20
-554.0870537682076
 10
390.1463505570773
 20
-554.0870537682076
 10
397.1095528268161
 20
-555.8263967856255
 10
403.6384051922032
 20
-561.0502560379464
 10
375.7855961132491
 20
-623.7190764655916
 10
347.932787034295
 20
-713.3700627634753
 10
347.932787034295
 20
-784.3061068739171
 97
        0
 97
        0
 75
     2
 76
     1
 98
        0
  0
SPLINE
  5
5E
330
55
100
AcDbEntity
  8
Layer 1
370
     0
100
AcDbSpline
210
0.0
220
0.0
230
1.0
 70
    11
 71
     3
 72
    74
 73
    70
 74
     0
 42
0.0000000001
 43
0.0000000001
 12
1.0
 22
0.0
 32
0.0
 13
1.0
 23
0.0
 33
0.0
 40
0.0
 40
0.0
 40
0.0
 40
0.0
 40
1.0
 40
1.0
 40
1.0
 40
2.0
 40
2.0
 40
2.0
 40
3.0
 40
3.0
 40
3.0
 40
4.0
 40
4.0
 40
4.0
 40
5.0
 40
5.0
 40
5.0
 40
6.0
 40
6.0
 40
6.0
 40
7.0
 40
7.0
 40
7.0
 40
8.0
 40
8.0
 40
8.0
 40
9.0
 40
9.0
 40
9.0
 40
10.0
 40
10.0
 40
10.0
 40
11.0
 40
11.0
 40
11.0
 40
12.0
 40
12.0
 40
12.0
 40
13.0
 40
13.0
 40
13.0
 40
14.0
 40
14.0
 40
14.0
 40
15.0
 40
15.0
 40
15.0
 40
16.0
 40
16.0
 40
16.0
 40
17.0
 40
17.0
 40
17.0
 40
18.0
 40
18.0
 40
18.0
 40
19.0
 40
19.0
 40
19.0
 40
20.0
 40
20.0
 40
20.0
 40
21.0
 40
21.0
 40
21.0
 40
22.0
 40
22.0
 40
22.0
 40
23.0
 40
23.0
 40
23.0
 40
23.0
 10
530.2810391605681
 20
-744.7035012772903
 30
0.0
 10
527.67105293443
 20
-752.5373467557474
 30
0.0
 10
524.6238017039095
 20
-759.5005490254862
 30
0.0
 10
521.1431722690486
 20
-765.1577864821429
 30
0.0
 10
514.6152916036708
 20
-775.6035615867622
 30
0.0
 10
505.9098312164824
 20
-785.6120716869973
 30
0.0
 10
495.029706207516
 20
-785.6120716869973
 30
0.0
 10
492.4187482813668
 20
-785.6120716869973
 30
0.0
 10
490.2431119595767
 20
-785.1767500826372
 30
0.0
 10
488.0665039377782
 20
-784.3061068739171
 30
0.0
 10
479.3629869506085
 20
-808.6782865180157
 30
0.0
 10
466.7415755242018
 20
-830.4385365359503
 30
0.0
 10
447.5932551324249
 20
-842.1883330536257
 30
0.0
 10
414.9528801055221
 20
-861.7719750497654
 30
0.0
 10
391.4523153701575
 20
-802.5857274569989
 30
0.0
 10
407.5543562314251
 20
-729.471131924729
 30
0.0
 10
423.6573687927003
 20
-656.7938013968469
 30
0.0
 10
449.333569849854
 20
-647.2186695009495
 30
0.0
 10
456.7320937239538
 20
-645.0420614791492
 30
0.0
 10
464.1306175980526
 20
-642.8673968573712
 30
0.0
 10
485.8908676159872
 20
-638.9495024181324
 30
0.0
 10
496.3356710205953
 20
-656.3584797924868
 30
0.0
 10
506.7804744252026
 20
-672.8948705581006
 30
0.0
 10
499.3819505511046
 20
-684.2112888714382
 30
0.0
 10
494.594384603156
 20
-684.2112888714382
 30
0.0
 10
492.4187482813668
 20
-684.6466104757983
 30
0.0
 10
490.2431119595767
 20
-684.6466104757983
 30
0.0
 10
488.9371471464983
 20
-684.6466104757983
 30
0.0
 10
488.0665039377782
 20
-684.6466104757983
 30
0.0
 10
487.195860729058
 20
-684.6466104757983
 30
0.0
 10
486.7615108247073
 20
-685.0819320801584
 30
0.0
 10
487.6311823334181
 20
-680.728716036565
 30
0.0
 10
488.0665039377782
 20
-676.8127649973412
 30
0.0
 10
488.5018255421382
 20
-672.8948705581006
 30
0.0
 10
488.9371471464983
 20
-666.3669898927237
 30
0.0
 10
488.0665039377782
 20
-658.5350878142872
 30
0.0
 10
483.279909689837
 20
-655.0525149794066
 30
0.0
 10
474.5754210026598
 20
-648.5246343140298
 30
0.0
 10
448.8992199455051
 20
-674.2008353711808
 30
0.0
 10
434.1021721973084
 20
-729.471131924729
 30
0.0
 10
420.1757676578309
 20
-784.7414284782772
 30
0.0
 10
432.79620738423
 20
-835.660452388247
 30
0.0
 10
439.7594096539679
 20
-830.8738581403104
 30
0.0
 10
458.4733801413931
 20
-819.1221182226127
 30
0.0
 10
469.7888267547214
 20
-795.1872035828947
 30
0.0
 10
476.7520290244593
 20
-770.8150239388015
 30
0.0
 10
467.612218732922
 20
-746.8801092990907
 30
0.0
 10
471.9644630765106
 20
-703.3596092632179
 30
0.0
 10
478.0570221375283
 20
-699.8789798283597
 30
0.0
 10
482.844588085477
 20
-696.8317285978392
 30
0.0
 10
488.9371471464983
 20
-695.9610853891209
 30
0.0
 10
494.1590629987959
 20
-695.5257637847608
 30
0.0
 10
497.6416358336755
 20
-695.0904421804007
 30
0.0
 10
501.1222652685337
 20
-694.2197989716806
 30
0.0
 10
502.4282300816139
 20
-695.5257637847608
 30
0.0
 10
504.1695164990533
 20
-697.2670502021992
 30
0.0
 10
502.8635516859731
 20
-732.9537047596095
 30
0.0
 10
492.4187482813668
 20
-770.3797023344414
 30
0.0
 10
493.2893914900869
 20
-772.1209887518817
 30
0.0
 10
494.594384603156
 20
-772.9916319606018
 30
0.0
 10
496.3356710205953
 20
-772.5563103562417
 30
0.0
 10
500.2525937598248
 20
-771.2503455431615
 30
0.0
 10
506.7804744252026
 20
-762.9811784603444
 30
0.0
 10
511.5680403731512
 20
-754.7120113775254
 30
0.0
 10
514.6152916036708
 20
-749.9254171295888
 30
0.0
 10
517.2252778298125
 20
-744.2681796729303
 30
0.0
 10
520.2725290603303
 20
-738.6109422162663
 30
0.0
 10
525.9297665169897
 20
-738.6109422162663
 30
0.0
 10
528.1063745387883
 20
-741.2209284424116
 30
0.0
 10
530.2810391605681
 20
-744.7035012772903
 30
0.0
  0
HATCH
  5
5F
330
55
100
AcDbEntity
  8
Layer 1
 62
    18
420
   263172
100
AcDbHatch
 10
0.0
 20
0.0
 30
0.0
210
0.0
220
0.0
230
1.0
  2
SOLID
 70
     1
 71
     0
 91
        1
 92
        1
 93
        1
 72
     4
 94
        3
 73
     0
 74
     1
 95
       74
 96
       70
 40
0.0
 40
0.0
 40
0.0
 40
0.0
 40
1.0
 40
1.0
 40
1.0
 40
2.0
 40
2.0
 40
2.0
 40
3.0
 40
3.0
 40
3.0
 40
4.0
 40
4.0
 40
4.0
 40
5.0
 40
5.0
 40
5.0
 40
6.0
 40
6.0
 40
6.0
 40
7.0
 40
7.0
 40
7.0
 40
8.0
 40
8.0
 40
8.0
 40
9.0
 40
9.0
 40
9.0
 40
10.0
 40
10.0
 40
10.0
 40
11.0
 40
11.0
 40
11.0
 40
12.0
 40
12.0
 40
12.0
 40
13.0
 40
13.0
 40
13.0
 40
14.0
 40
14.0
 40
14.0
 40
15.0
 40
15.0
 40
15.0
 40
16.0
 40
16.0
 40
16.0
 40
17.0
 40
17.0
 40
17.0
 40
18.0
 40
18.0
 40
18.0
 40
19.0
 40
19.0
 40
19.0
 40
20.0
 40
20.0
 40
20.0
 40
21.0
 40
21.0
 40
21.0
 40
22.0
 40
22.0
 40
22.0
 40
23.0
 40
23.0
 40
23.0
 40
23.0
 10
530.2810391605681
 20
-744.7035012772903
 10
527.67105293443
 20
-752.5373467557474
 10
524.6238017039095
 20
-759.5005490254862
 10
521.1431722690486
 20
-765.1577864821429
 10
514.6152916036708
 20
-775.6035615867622
 10
505.9098312164824
 20
-785.6120716869973
 10
495.029706207516
 20
-785.6120716869973
 10
492.4187482813668
 20
-785.6120716869973
 10
490.2431119595767
 20
-785.1767500826372
 10
488.0665039377782
 20
-784.3061068739171
 10
479.3629869506085
 20
-808.6782865180157
 10
466.7415755242018
 20
-830.4385365359503
 10
447.5932551324249
 20
-842.1883330536257
 10
414.9528801055221
 20
-861.7719750497654
 10
391.4523153701575
 20
-802.5857274569989
 10
407.5543562314251
 20
-729.471131924729
 10
423.6573687927003
 20
-656.7938013968469
 10
449.333569849854
 20
-647.2186695009495
 10
456.7320937239538
 20
-645.0420614791492
 10
464.1306175980526
 20
-642.8673968573712
 10
485.8908676159872
 20
-638.9495024181324
 10
496.3356710205953
 20
-656.3584797924868
 10
506.7804744252026
 20
-672.8948705581006
 10
499.3819505511046
 20
-684.2112888714382
 10
494.594384603156
 20
-684.2112888714382
 10
492.4187482813668
 20
-684.6466104757983
 10
490.2431119595767
 20
-684.6466104757983
 10
488.9371471464983
 20
-684.6466104757983
 10
488.0665039377782
 20
-684.6466104757983
 10
487.195860729058
 20
-684.6466104757983
 10
486.7615108247073
 20
-685.0819320801584
 10
487.6311823334181
 20
-680.728716036565
 10
488.0665039377782
 20
-676.8127649973412
 10
488.5018255421382
 20
-672.8948705581006
 10
488.9371471464983
 20
-666.3669898927237
 10
488.0665039377782
 20
-658.5350878142872
 10
483.279909689837
 20
-655.0525149794066
 10
474.5754210026598
 20
-648.5246343140298
 10
448.8992199455051
 20
-674.2008353711808
 10
434.1021721973084
 20
-729.471131924729
 10
420.1757676578309
 20
-784.7414284782772
 10
432.79620738423
 20
-835.660452388247
 10
439.7594096539679
 20
-830.8738581403104
 10
458.4733801413931
 20
-819.1221182226127
 10
469.7888267547214
 20
-795.1872035828947
 10
476.7520290244593
 20
-770.8150239388015
 10
467.612218732922
 20
-746.8801092990907
 10
471.9644630765106
 20
-703.3596092632179
 10
478.0570221375283
 20
-699.8789798283597
 10
482.844588085477
 20
-696.8317285978392
 10
488.9371471464983
 20
-695.9610853891209
 10
494.1590629987959
 20
-695.5257637847608
 10
497.6416358336755
 20
-695.0904421804007
 10
501.1222652685337
 20
-694.2197989716806
 10
502.4282300816139
 20
-695.5257637847608
 10
504.1695164990533
 20
-697.2670502021992
 10
502.8635516859731
 20
-732.9537047596095
 10
492.4187482813668
 20
-770.3797023344414
 10
493.2893914900869
 20
-772.1209887518817
 10
494.594384603156
 20
-772.9916319606018
 10
496.3356710205953
 20
-772.5563103562417
 10
500.2525937598248
 20
-771.2503455431615
 10
506.7804744252026
 20
-762.9811784603444
 10
511.5680403731512
 20
-754.7120113775254
 10
514.6152916036708
 20
-749.9254171295888
 10
517.2252778298125
 20
-744.2681796729303
 10
520.2725290603303
 20
-738.6109422162663
 10
525.9297665169897
 20
-738.6109422162663
 10
528.1063745387883
 20
-741.2209284424116
 10
530.2810391605681
 20
-744.7035012772903
 97
        0
 97
        0
 75
     2
 76
     1
 98
        0
  0
SPLINE
  5
60
330
55
100
AcDbEntity
  8
Layer 1
370
     0
100
AcDbSpline
210
0.0
220
0.0
230
1.0
 70
    11
 71
     3
 72
    50
 73
    46
 74
     0
 42
0.0000000001
 43
0.0000000001
 12
1.0
 22
0.0
 32
0.0
 13
1.0
 23
0.0
 33
0.0
 40
0.0
 40
0.0
 40
0.0
 40
0.0
 40
1.0
 40
1.0
 40
1.0
 40
2.0
 40
2.0
 40
2.0
 40
3.0
 40
3.0
 40
3.0
 40
4.0
 40
4.0
 40
4.0
 40
5.0
 40
5.0
 40
5.0
 40
6.0
 40
6.0
 40
6.0
 40
7.0
 40
7.0
 40
7.0
 40
8.0
 40
8.0
 40
8.0
 40
9.0
 40
9.0
 40
9.0
 40
10.0
 40
10.0
 40
10.0
 40
11.0
 40
11.0
 40
11.0
 40
12.0
 40
12.0
 40
12.0
 40
13.0
 40
13.0
 40
13.0
 40
14.0
 40
14.0
 40
14.0
 40
15.0
 40
15.0
 40
15.0
 40
15.0
 10
584.2453709010351
 20
-766.4637512952231
 30
0.0
 10
584.2453709010351
 20
-766.4637512952231
 30
0.0
 10
589.0319651489772
 20
-770.3797023344414
 30
0.0
 10
589.0319651489772
 20
-770.3797023344414
 30
0.0
 10
606.0056209189734
 20
-789.5299661262361
 30
0.0
 10
595.9951674187159
 20
-806.9370001005773
 30
0.0
 10
578.5881334443784
 20
-825.6499988879896
 30
0.0
 10
561.179156070024
 20
-845.2355842841444
 30
0.0
 10
541.5955140738861
 20
-844.3649410754242
 30
0.0
 10
534.6323118041491
 20
-836.0957739926071
 30
0.0
 10
529.845717556208
 20
-831.3091797446705
 30
0.0
 10
517.658656034152
 20
-823.9106558705716
 30
0.0
 10
519.8352640559497
 20
-806.9370001005773
 30
0.0
 10
520.2705856603097
 20
-803.4563706657191
 30
0.0
 10
532.4557037823488
 20
-786.4827148957174
 30
0.0
 10
556.827883426442
 20
-767.7697161083033
 30
0.0
 10
541.160192469526
 20
-759.0652274211261
 30
0.0
 10
518.5292992428704
 20
-744.2681796729303
 30
0.0
 10
510.2611038600635
 20
-726.8592022985758
 30
0.0
 10
500.6859719641661
 20
-708.1462035111563
 30
0.0
 10
532.0203821779887
 20
-657.664444605567
 30
0.0
 10
570.7542879659213
 20
-625.0230978786567
 30
0.0
 10
585.5513357141153
 20
-614.5792661740543
 30
0.0
 10
597.7364538361544
 20
-626.3290626917369
 30
0.0
 10
606.0056209189734
 20
-635.9041945876343
 30
0.0
 10
599.9130618579547
 20
-639.3848240224925
 30
0.0
 10
578.1528118400183
 20
-658.0997662099271
 30
0.0
 10
569.8836447572012
 20
-668.5435979145223
 30
0.0
 10
537.6795630346669
 20
-707.7108819067962
 30
0.0
 10
534.6323118041491
 20
-716.8506921983335
 30
0.0
 10
533.3263469910689
 20
-727.2945239029359
 30
0.0
 10
532.4557037823488
 20
-735.563690985753
 30
0.0
 10
553.3453105915632
 20
-748.6194523165086
 30
0.0
 10
569.8836447572012
 20
-758.194584212406
 30
0.0
 10
570.3189663615613
 20
-757.7592626080459
 30
0.0
 10
570.7542879659213
 20
-757.3239410036858
 30
0.0
 10
571.1896095702814
 20
-757.3239410036858
 30
0.0
 10
585.1160141097553
 20
-747.3154309034508
 30
0.0
 10
598.1717754405145
 20
-741.2209284424116
 30
0.0
 10
615.1434878104901
 20
-738.1756206119135
 30
0.0
 10
623.8479764976692
 20
-741.6562500467699
 30
0.0
 10
624.2832981020292
 20
-742.52689325549
 30
0.0
 10
621.2379902715293
 20
-747.7507525078108
 30
0.0
 10
609.0509287494715
 20
-750.796060338309
 30
0.0
 10
598.6070970448745
 20
-754.7120113775254
 30
0.0
 10
584.2453709010351
 20
-766.4637512952231
 30
0.0
  0
SPLINE
  5
61
330
55
100
AcDbEntity
  8
Layer 1
370
     0
100
AcDbSpline
210
0.0
220
0.0
230
1.0
 70
    11
 71
     3
 72
    14
 73
    10
 74
     0
 42
0.0000000001
 43
0.0000000001
 12
1.0
 22
0.0
 32
0.0
 13
1.0
 23
0.0
 33
0.0
 40
0.0
 40
0.0
 40
0.0
 40
0.0
 40
1.0
 40
1.0
 40
1.0
 40
2.0
 40
2.0
 40
2.0
 40
3.0
 40
3.0
 40
3.0
 40
3.0
 10
575.5408822138579
 20
-782.1314422521391
 30
0.0
 10
575.976203818218
 20
-780.8254774390589
 30
0.0
 10
574.2349174007777
 20
-778.6488694172585
 30
0.0
 10
571.1896095702814
 20
-775.6035615867622
 30
0.0
 10
548.558716343623
 20
-792.5752739567415
 30
0.0
 10
528.5397527431278
 20
-809.5489297267359
 30
0.0
 10
534.1969901997891
 20
-816.5121319964746
 30
0.0
 10
541.160192469526
 20
-826.0853204923496
 30
0.0
 10
573.3642741920612
 20
-792.1399523523814
 30
0.0
 10
575.5408822138579
 20
-782.1314422521391
 30
0.0
  0
HATCH
  5
62
330
55
100
AcDbEntity
  8
Layer 1
 62
    18
420
   263172
100
AcDbHatch
 10
0.0
 20
0.0
 30
0.0
210
0.0
220
0.0
230
1.0
  2
SOLID
 70
     1
 71
     0
 91
        2
 92
        1
 93
        1
 72
     4
 94
        3
 73
     0
 74
     1
 95
       50
 96
       46
 40
0.0
 40
0.0
 40
0.0
 40
0.0
 40
1.0
 40
1.0
 40
1.0
 40
2.0
 40
2.0
 40
2.0
 40
3.0
 40
3.0
 40
3.0
 40
4.0
 40
4.0
 40
4.0
 40
5.0
 40
5.0
 40
5.0
 40
6.0
 40
6.0
 40
6.0
 40
7.0
 40
7.0
 40
7.0
 40
8.0
 40
8.0
 40
8.0
 40
9.0
 40
9.0
 40
9.0
 40
10.0
 40
10.0
 40
10.0
 40
11.0
 40
11.0
 40
11.0
 40
12.0
 40
12.0
 40
12.0
 40
13.0
 40
13.0
 40
13.0
 40
14.0
 40
14.0
 40
14.0
 40
15.0
 40
15.0
 40
15.0
 40
15.0
 10
584.2453709010351
 20
-766.4637512952231
 10
584.2453709010351
 20
-766.4637512952231
 10
589.0319651489772
 20
-770.3797023344414
 10
589.0319651489772
 20
-770.3797023344414
 10
606.0056209189734
 20
-789.5299661262361
 10
595.9951674187159
 20
-806.9370001005773
 10
578.5881334443784
 20
-825.6499988879896
 10
561.179156070024
 20
-845.2355842841444
 10
541.5955140738861
 20
-844.3649410754242
 10
534.6323118041491
 20
-836.0957739926071
 10
529.845717556208
 20
-831.3091797446705
 10
517.658656034152
 20
-823.9106558705716
 10
519.8352640559497
 20
-806.9370001005773
 10
520.2705856603097
 20
-803.4563706657191
 10
532.4557037823488
 20
-786.4827148957174
 10
556.827883426442
 20
-767.7697161083033
 10
541.160192469526
 20
-759.0652274211261
 10
518.5292992428704
 20
-744.2681796729303
 10
510.2611038600635
 20
-726.8592022985758
 10
500.6859719641661
 20
-708.1462035111563
 10
532.0203821779887
 20
-657.664444605567
 10
570.7542879659213
 20
-625.0230978786567
 10
585.5513357141153
 20
-614.5792661740543
 10
597.7364538361544
 20
-626.3290626917369
 10
606.0056209189734
 20
-635.9041945876343
 10
599.9130618579547
 20
-639.3848240224925
 10
578.1528118400183
 20
-658.0997662099271
 10
569.8836447572012
 20
-668.5435979145223
 10
537.6795630346669
 20
-707.7108819067962
 10
534.6323118041491
 20
-716.8506921983335
 10
533.3263469910689
 20
-727.2945239029359
 10
532.4557037823488
 20
-735.563690985753
 10
553.3453105915632
 20
-748.6194523165086
 10
569.8836447572012
 20
-758.194584212406
 10
570.3189663615613
 20
-757.7592626080459
 10
570.7542879659213
 20
-757.3239410036858
 10
571.1896095702814
 20
-757.3239410036858
 10
585.1160141097553
 20
-747.3154309034508
 10
598.1717754405145
 20
-741.2209284424116
 10
615.1434878104901
 20
-738.1756206119135
 10
623.8479764976692
 20
-741.6562500467699
 10
624.2832981020292
 20
-742.52689325549
 10
621.2379902715293
 20
-747.7507525078108
 10
609.0509287494715
 20
-750.796060338309
 10
598.6070970448745
 20
-754.7120113775254
 10
584.2453709010351
 20
-766.4637512952231
 97
        0
 97
        0
 92
        1
 93
        1
 72
     4
 94
        3
 73
     0
 74
     1
 95
       14
 96
       10
 40
0.0
 40
0.0
 40
0.0
 40
0.0
 40
1.0
 40
1.0
 40
1.0
 40
2.0
 40
2.0
 40
2.0
 40
3.0
 40
3.0
 40
3.0
 40
3.0
 10
575.5408822138579
 20
-782.1314422521391
 10
575.976203818218
 20
-780.8254774390589
 10
574.2349174007777
 20
-778.6488694172585
 10
571.1896095702814
 20
-775.6035615867622
 10
548.558716343623
 20
-792.5752739567415
 10
528.5397527431278
 20
-809.5489297267359
 10
534.1969901997891
 20
-816.5121319964746
 10
541.160192469526
 20
-826.0853204923496
 10
573.3642741920612
 20
-792.1399523523814
 10
575.5408822138579
 20
-782.1314422521391
 97
        0
 97
        0
 75
     2
 76
     1
 98
        0
  0
SPLINE
  5
63
330
55
100
AcDbEntity
  8
Layer 1
370
     0
100
AcDbSpline
210
0.0
220
0.0
230
1.0
 70
    11
 71
     3
 72
    50
 73
    46
 74
     0
 42
0.0000000001
 43
0.0000000001
 12
1.0
 22
0.0
 32
0.0
 13
1.0
 23
0.0
 33
0.0
 40
0.0
 40
0.0
 40
0.0
 40
0.0
 40
1.0
 40
1.0
 40
1.0
 40
2.0
 40
2.0
 40
2.0
 40
3.0
 40
3.0
 40
3.0
 40
4.0
 40
4.0
 40
4.0
 40
5.0
 40
5.0
 40
5.0
 40
6.0
 40
6.0
 40
6.0
 40
7.0
 40
7.0
 40
7.0
 40
8.0
 40
8.0
 40
8.0
 40
9.0
 40
9.0
 40
9.0
 40
10.0
 40
10.0
 40
10.0
 40
11.0
 40
11.0
 40
11.0
 40
12.0
 40
12.0
 40
12.0
 40
13.0
 40
13.0
 40
13.0
 40
14.0
 40
14.0
 40
14.0
 40
15.0
 40
15.0
 40
15.0
 40
15.0
 10
676.941665029417
 20
-766.4637512952231
 30
0.0
 10
676.941665029417
 20
-766.4637512952231
 30
0.0
 10
681.7302026773777
 20
-770.3797023344414
 30
0.0
 10
681.7302026773777
 20
-770.3797023344414
 30
0.0
 10
698.7019150473534
 20
-789.5299661262361
 30
0.0
 10
688.6934049471147
 20
-806.9370001005773
 30
0.0
 10
671.2844275727603
 20
-825.6499988879896
 30
0.0
 10
653.8773935984227
 20
-845.2355842841444
 30
0.0
 10
634.2937516022866
 20
-844.3649410754242
 30
0.0
 10
627.3305493325479
 20
-836.0957739926071
 30
0.0
 10
622.5420116845889
 20
-831.3091797446705
 30
0.0
 10
610.3568935625517
 20
-823.9106558705716
 30
0.0
 10
612.5335015843502
 20
-806.9370001005773
 30
0.0
 10
612.9688231887103
 20
-803.4563706657191
 30
0.0
 10
625.1539413107475
 20
-786.4827148957174
 30
0.0
 10
649.524177554822
 20
-767.7697161083033
 30
0.0
 10
633.8584299979266
 20
-759.0652274211261
 30
0.0
 10
611.2275367712718
 20
-744.2681796729303
 30
0.0
 10
602.9583696884529
 20
-726.8592022985758
 30
0.0
 10
593.3832377925555
 20
-708.1462035111563
 30
0.0
 10
624.7186197063875
 20
-657.664444605567
 30
0.0
 10
663.4505820943014
 20
-625.0230978786567
 30
0.0
 10
678.2476298424972
 20
-614.5792661740543
 30
0.0
 10
690.4327479645362
 20
-626.3290626917369
 30
0.0
 10
698.7019150473534
 20
-635.9041945876343
 30
0.0
 10
692.6093559863348
 20
-639.3848240224925
 30
0.0
 10
670.8491059684002
 20
-658.0997662099271
 30
0.0
 10
662.579938885583
 20
-668.5435979145223
 30
0.0
 10
630.3758571630478
 20
-707.7108819067962
 30
0.0
 10
627.3305493325479
 20
-716.8506921983335
 30
0.0
 10
626.0245845194677
 20
-727.2945239029359
 30
0.0
 10
625.1539413107475
 20
-735.563690985753
 30
0.0
 10
646.0435481199656
 20
-748.6194523165086
 30
0.0
 10
662.579938885583
 20
-758.194584212406
 30
0.0
 10
663.0152604899413
 20
-757.7592626080459
 30
0.0
 10
663.4505820943014
 20
-757.3239410036858
 30
0.0
 10
663.8859036986614
 20
-757.3239410036858
 30
0.0
 10
677.8123082381371
 20
-747.3154309034508
 30
0.0
 10
690.8680695688945
 20
-741.2209284424116
 30
0.0
 10
707.8417253388925
 20
-738.1756206119135
 30
0.0
 10
716.5462140260697
 20
-741.6562500467699
 30
0.0
 10
716.9815356304298
 20
-742.52689325549
 30
0.0
 10
713.9342843999093
 20
-747.7507525078108
 30
0.0
 10
701.7491662778721
 20
-750.796060338309
 30
0.0
 10
691.3033911732546
 20
-754.7120113775254
 30
0.0
 10
676.941665029417
 20
-766.4637512952231
 30
0.0
  0
SPLINE
  5
64
330
55
100
AcDbEntity
  8
Layer 1
370
     0
100
AcDbSpline
210
0.0
220
0.0
230
1.0
 70
    11
 71
     3
 72
    14
 73
    10
 74
     0
 42
0.0000000001
 43
0.0000000001
 12
1.0
 22
0.0
 32
0.0
 13
1.0
 23
0.0
 33
0.0
 40
0.0
 40
0.0
 40
0.0
 40
0.0
 40
1.0
 40
1.0
 40
1.0
 40
2.0
 40
2.0
 40
2.0
 40
3.0
 40
3.0
 40
3.0
 40
3.0
 10
668.2391197422585
 20
-782.1314422521391
 30
0.0
 10
668.6744413466186
 20
-780.8254774390589
 30
0.0
 10
666.9331549291801
 20
-778.6488694172585
 30
0.0
 10
663.8859036986614
 20
-775.6035615867622
 30
0.0
 10
641.2569538720254
 20
-792.5752739567415
 30
0.0
 10
621.2360468715087
 20
-809.5489297267359
 30
0.0
 10
626.8952277281878
 20
-816.5121319964746
 30
0.0
 10
633.8584299979266
 20
-826.0853204923496
 30
0.0
 10
666.06251172046
 20
-792.1399523523814
 30
0.0
 10
668.2391197422585
 20
-782.1314422521391
 30
0.0
  0
HATCH
  5
65
330
55
100
AcDbEntity
  8
Layer 1
 62
    18
420
   263172
100
AcDbHatch
 10
0.0
 20
0.0
 30
0.0
210
0.0
220
0.0
230
1.0
  2
SOLID
 70
     1
 71
     0
 91
        2
 92
        1
 93
        1
 72
     4
 94
        3
 73
     0
 74
     1
 95
       50
 96
       46
 40
0.0
 40
0.0
 40
0.0
 40
0.0
 40
1.0
 40
1.0
 40
1.0
 40
2.0
 40
2.0
 40
2.0
 40
3.0
 40
3.0
 40
3.0
 40
4.0
 40
4.0
 40
4.0
 40
5.0
 40
5.0
 40
5.0
 40
6.0
 40
6.0
 40
6.0
 40
7.0
 40
7.0
 40
7.0
 40
8.0
 40
8.0
 40
8.0
 40
9.0
 40
9.0
 40
9.0
 40
10.0
 40
10.0
 40
10.0
 40
11.0
 40
11.0
 40
11.0
 40
12.0
 40
12.0
 40
12.0
 40
13.0
 40
13.0
 40
13.0
 40
14.0
 40
14.0
 40
14.0
 40
15.0
 40
15.0
 40
15.0
 40
15.0
 10
676.941665029417
 20
-766.4637512952231
 10
676.941665029417
 20
-766.4637512952231
 10
681.7302026773777
 20
-770.3797023344414
 10
681.7302026773777
 20
-770.3797023344414
 10
698.7019150473534
 20
-789.5299661262361
 10
688.6934049471147
 20
-806.9370001005773
 10
671.2844275727603
 20
-825.6499988879896
 10
653.8773935984227
 20
-845.2355842841444
 10
634.2937516022866
 20
-844.3649410754242
 10
627.3305493325479
 20
-836.0957739926071
 10
622.5420116845889
 20
-831.3091797446705
 10
610.3568935625517
 20
-823.9106558705716
 10
612.5335015843502
 20
-806.9370001005773
 10
612.9688231887103
 20
-803.4563706657191
 10
625.1539413107475
 20
-786.4827148957174
 10
649.524177554822
 20
-767.7697161083033
 10
633.8584299979266
 20
-759.0652274211261
 10
611.2275367712718
 20
-744.2681796729303
 10
602.9583696884529
 20
-726.8592022985758
 10
593.3832377925555
 20
-708.1462035111563
 10
624.7186197063875
 20
-657.664444605567
 10
663.4505820943014
 20
-625.0230978786567
 10
678.2476298424972
 20
-614.5792661740543
 10
690.4327479645362
 20
-626.3290626917369
 10
698.7019150473534
 20
-635.9041945876343
 10
692.6093559863348
 20
-639.3848240224925
 10
670.8491059684002
 20
-658.0997662099271
 10
662.579938885583
 20
-668.5435979145223
 10
630.3758571630478
 20
-707.7108819067962
 10
627.3305493325479
 20
-716.8506921983335
 10
626.0245845194677
 20
-727.2945239029359
 10
625.1539413107475
 20
-735.563690985753
 10
646.0435481199656
 20
-748.6194523165086
 10
662.579938885583
 20
-758.194584212406
 10
663.0152604899413
 20
-757.7592626080459
 10
663.4505820943014
 20
-757.3239410036858
 10
663.8859036986614
 20
-757.3239410036858
 10
677.8123082381371
 20
-747.3154309034508
 10
690.8680695688945
 20
-741.2209284424116
 10
707.8417253388925
 20
-738.1756206119135
 10
716.5462140260697
 20
-741.6562500467699
 10
716.9815356304298
 20
-742.52689325549
 10
713.9342843999093
 20
-747.7507525078108
 10
701.7491662778721
 20
-750.796060338309
 10
691.3033911732546
 20
-754.7120113775254
 10
676.941665029417
 20
-766.4637512952231
 97
        0
 97
        0
 92
        1
 93
        1
 72
     4
 94
        3
 73
     0
 74
     1
 95
       14
 96
       10
 40
0.0
 40
0.0
 40
0.0
 40
0.0
 40
1.0
 40
1.0
 40
1.0
 40
2.0
 40
2.0
 40
2.0
 40
3.0
 40
3.0
 40
3.0
 40
3.0
 10
668.2391197422585
 20
-782.1314422521391
 10
668.6744413466186
 20
-780.8254774390589
 10
666.9331549291801
 20
-778.6488694172585
 10
663.8859036986614
 20
-775.6035615867622
 10
641.2569538720254
 20
-792.5752739567415
 10
621.2360468715087
 20
-809.5489297267359
 10
626.8952277281878
 20
-816.5121319964746
 10
633.8584299979266
 20
-826.0853204923496
 10
666.06251172046
 20
-792.1399523523814
 10
668.2391197422585
 20
-782.1314422521391
 97
        0
 97
        0
 75
     2
 76
     1
 98
        0
  0
ENDBLK
  5
58
330
55
100
AcDbEntity
  8
0
100
AcDbBlockEnd
  0
BLOCK
  5
68
330
66
100
AcDbEntity
  8
0
100
AcDbBlockBegin
  2
block 5
 70
     0
 10
0.0
 20
0.0
 30
0.0
  3
block 5
  1

  0
SPLINE
  5
6A
330
66
100
AcDbEntity
  8
Layer 1
370
     0
100
AcDbSpline
210
0.0
220
0.0
230
1.0
 70
    11
 71
     3
 72
    50
 73
    46
 74
     0
 42
0.0000000001
 43
0.0000000001
 12
1.0
 22
0.0
 32
0.0
 13
1.0
 23
0.0
 33
0.0
 40
0.0
 40
0.0
 40
0.0
 40
0.0
 40
1.0
 40
1.0
 40
1.0
 40
2.0
 40
2.0
 40
2.0
 40
3.0
 40
3.0
 40
3.0
 40
4.0
 40
4.0
 40
4.0
 40
5.0
 40
5.0
 40
5.0
 40
6.0
 40
6.0
 40
6.0
 40
7.0
 40
7.0
 40
7.0
 40
8.0
 40
8.0
 40
8.0
 40
9.0
 40
9.0
 40
9.0
 40
10.0
 40
10.0
 40
10.0
 40
11.0
 40
11.0
 40
11.0
 40
12.0
 40
12.0
 40
12.0
 40
13.0
 40
13.0
 40
13.0
 40
14.0
 40
14.0
 40
14.0
 40
15.0
 40
15.0
 40
15.0
 40
15.0
 10
245.5959503383074
 20
-354.1258136837987
 30
0.0
 10
235.9674659418315
 20
-352.0401107630933
 30
0.0
 10
226.5213921511659
 20
-351.9001984418537
 30
0.0
 10
216.5021061464477
 20
-353.6573697017484
 30
0.0
 10
217.1672042999926
 20
-350.6858431620058
 30
0.0
 10
217.6335897713816
 20
-347.9814415820401
 30
0.0
 10
218.3809121450395
 20
-345.3570065008134
 30
0.0
 10
228.4272576043868
 20
-310.0759184025428
 30
0.0
 10
261.7031986123748
 20
-285.2014566311664
 30
0.0
 10
300.6601808149362
 20
-287.7578778561819
 30
0.0
 10
336.2801014277584
 20
-290.0953084089615
 30
0.0
 10
367.3535522369266
 20
-318.3313512881687
 30
0.0
 10
372.6709176814584
 20
-354.2432815984976
 30
0.0
 10
373.9121996087988
 20
-362.6267820686262
 30
0.0
 10
373.9137268908999
 20
-371.2181921153042
 30
0.0
 10
374.1415575383453
 20
-379.7231613152053
 30
0.0
 10
375.0541749977383
 20
-413.7934052223736
 30
0.0
 10
375.8304991304358
 20
-447.8672847249745
 30
0.0
 10
376.6590828724429
 20
-481.9398029544045
 30
0.0
 10
376.9918311599249
 20
-495.6229225150728
 30
0.0
 10
377.3306553740294
 20
-509.3059092686071
 30
0.0
 10
377.6619759847626
 20
-522.9890620310689
 30
0.0
 10
377.6837895573908
 20
-523.890556892542
 30
0.0
 10
377.664798136474
 20
-524.7930810093494
 30
0.0
 10
377.664798136474
 20
-525.9283164359676
 30
0.0
 10
368.2347940096624
 20
-525.9283164359676
 30
0.0
 10
358.8722559096068
 20
-525.9283164359676
 30
0.0
 10
349.2504118700945
 20
-525.9283164359676
 30
0.0
 10
349.1362309320939
 20
-523.5291886665455
 30
0.0
 10
348.9730109579114
 20
-521.1166141742688
 30
0.0
 10
348.9136461666503
 20
-518.7014831445613
 30
0.0
 10
347.880373421217
 20
-476.6571333750089
 30
0.0
 10
346.8639339806905
 20
-434.6123685831462
 30
0.0
 10
345.8332177726888
 20
-392.5679524100251
 30
0.0
 10
345.6132891500301
 20
-383.5968467521234
 30
0.0
 10
345.3425285948106
 20
-374.6269695602623
 30
0.0
 10
345.1111121546037
 20
-365.6561295166412
 30
0.0
 10
344.4735382806739
 20
-340.9414845364972
 30
0.0
 10
326.3034299138581
 20
-320.3662637785455
 30
0.0
 10
301.9085181215514
 20
-316.7460324665099
 30
0.0
 10
277.7640805939373
 20
-313.1629788530263
 30
0.0
 10
254.410941203977
 20
-327.6384922102498
 30
0.0
 10
246.5989762577692
 20
-351.0315567464568
 30
0.0
 10
246.2856676152996
 20
-351.9697893828379
 30
0.0
 10
245.9884784393607
 20
-352.9134007083612
 30
0.0
 10
245.5959503383074
 20
-354.1258136837987
 30
0.0
  0
HATCH
  5
6B
330
66
100
AcDbEntity
  8
Layer 1
 62
    18
420
   263172
100
AcDbHatch
 10
0.0
 20
0.0
 30
0.0
210
0.0
220
0.0
230
1.0
  2
SOLID
 70
     1
 71
     0
 91
        1
 92
        1
 93
        1
 72
     4
 94
        3
 73
     0
 74
     1
 95
       50
 96
       46
 40
0.0
 40
0.0
 40
0.0
 40
0.0
 40
1.0
 40
1.0
 40
1.0
 40
2.0
 40
2.0
 40
2.0
 40
3.0
 40
3.0
 40
3.0
 40
4.0
 40
4.0
 40
4.0
 40
5.0
 40
5.0
 40
5.0
 40
6.0
 40
6.0
 40
6.0
 40
7.0
 40
7.0
 40
7.0
 40
8.0
 40
8.0
 40
8.0
 40
9.0
 40
9.0
 40
9.0
 40
10.0
 40
10.0
 40
10.0
 40
11.0
 40
11.0
 40
11.0
 40
12.0
 40
12.0
 40
12.0
 40
13.0
 40
13.0
 40
13.0
 40
14.0
 40
14.0
 40
14.0
 40
15.0
 40
15.0
 40
15.0
 40
15.0
 10
245.5959503383074
 20
-354.1258136837987
 10
235.9674659418315
 20
-352.0401107630933
 10
226.5213921511659
 20
-351.9001984418537
 10
216.5021061464477
 20
-353.6573697017484
 10
217.1672042999926
 20
-350.6858431620058
 10
217.6335897713816
 20
-347.9814415820401
 10
218.3809121450395
 20
-345.3570065008134
 10
228.4272576043868
 20
-310.0759184025428
 10
261.7031986123748
 20
-285.2014566311664
 10
300.6601808149362
 20
-287.7578778561819
 10
336.2801014277584
 20
-290.0953084089615
 10
367.3535522369266
 20
-318.3313512881687
 10
372.6709176814584
 20
-354.2432815984976
 10
373.9121996087988
 20
-362.6267820686262
 10
373.9137268908999
 20
-371.2181921153042
 10
374.1415575383453
 20
-379.7231613152053
 10
375.0541749977383
 20
-413.7934052223736
 10
375.8304991304358
 20
-447.8672847249745
 10
376.6590828724429
 20
-481.9398029544045
 10
376.9918311599249
 20
-495.6229225150728
 10
377.3306553740294
 20
-509.3059092686071
 10
377.6619759847626
 20
-522.9890620310689
 10
377.6837895573908
 20
-523.890556892542
 10
377.664798136474
 20
-524.7930810093494
 10
377.664798136474
 20
-525.9283164359676
 10
368.2347940096624
 20
-525.9283164359676
 10
358.8722559096068
 20
-525.9283164359676
 10
349.2504118700945
 20
-525.9283164359676
 10
349.1362309320939
 20
-523.5291886665455
 10
348.9730109579114
 20
-521.1166141742688
 10
348.9136461666503
 20
-518.7014831445613
 10
347.880373421217
 20
-476.6571333750089
 10
346.8639339806905
 20
-434.6123685831462
 10
345.8332177726888
 20
-392.5679524100251
 10
345.6132891500301
 20
-383.5968467521234
 10
345.3425285948106
 20
-374.6269695602623
 10
345.1111121546037
 20
-365.6561295166412
 10
344.4735382806739
 20
-340.9414845364972
 10
326.3034299138581
 20
-320.3662637785455
 10
301.9085181215514
 20
-316.7460324665099
 10
277.7640805939373
 20
-313.1629788530263
 10
254.410941203977
 20
-327.6384922102498
 10
246.5989762577692
 20
-351.0315567464568
 10
246.2856676152996
 20
-351.9697893828379
 10
245.9884784393607
 20
-352.9134007083612
 10
245.5959503383074
 20
-354.1258136837987
 97
        0
 97
        0
 75
     2
 76
     1
 98
        0
  0
SPLINE
  5
6C
330
66
100
AcDbEntity
  8
Layer 1
370
     0
100
AcDbSpline
210
0.0
220
0.0
230
1.0
 70
    11
 71
     3
 72
    14
 73
    10
 74
     0
 42
0.0000000001
 43
0.0000000001
 12
1.0
 22
0.0
 32
0.0
 13
1.0
 23
0.0
 33
0.0
 40
0.0
 40
0.0
 40
0.0
 40
0.0
 40
1.0
 40
1.0
 40
1.0
 40
2.0
 40
2.0
 40
2.0
 40
3.0
 40
3.0
 40
3.0
 40
3.0
 10
290.5650287319013
 20
-401.9082619151395
 30
0.0
 10
250.0376685108477
 20
-401.9082619151395
 30
0.0
 10
209.7146154726934
 20
-401.9082619151395
 30
0.0
 10
169.353513189134
 20
-401.9082619151395
 30
0.0
 10
174.4210850055597
 20
-383.1316565449906
 30
0.0
 10
195.7901355372614
 20
-358.6313788885509
 30
0.0
 10
229.0799880930863
 20
-358.2083549481376
 30
0.0
 10
262.4710396890514
 20
-357.7840195372264
 30
0.0
 10
284.7746872616926
 20
-381.6435525492871
 30
0.0
 10
290.5650287319013
 20
-401.9082619151395
 30
0.0
  0
HATCH
  5
6D
330
66
100
AcDbEntity
  8
Layer 1
 62
    18
420
   263172
100
AcDbHatch
 10
0.0
 20
0.0
 30
0.0
210
0.0
220
0.0
230
1.0
  2
SOLID
 70
     1
 71
     0
 91
        1
 92
        1
 93
        1
 72
     4
 94
        3
 73
     0
 74
     1
 95
       14
 96
       10
 40
0.0
 40
0.0
 40
0.0
 40
0.0
 40
1.0
 40
1.0
 40
1.0
 40
2.0
 40
2.0
 40
2.0
 40
3.0
 40
3.0
 40
3.0
 40
3.0
 10
290.5650287319013
 20
-401.9082619151395
 10
250.0376685108477
 20
-401.9082619151395
 10
209.7146154726934
 20
-401.9082619151395
 10
169.353513189134
 20
-401.9082619151395
 10
174.4210850055597
 20
-383.1316565449906
 10
195.7901355372614
 20
-358.6313788885509
 10
229.0799880930863
 20
-358.2083549481376
 10
262.4710396890514
 20
-357.7840195372264
 10
284.7746872616926
 20
-381.6435525492871
 10
290.5650287319013
 20
-401.9082619151395
 97
        0
 97
        0
 75
     2
 76
     1
 98
        0
  0
SPLINE
  5
6E
330
66
100
AcDbEntity
  8
Layer 1
370
     0
100
AcDbSpline
210
0.0
220
0.0
230
1.0
 70
    11
 71
     3
 72
    35
 73
    31
 74
     0
 42
0.0000000001
 43
0.0000000001
 12
1.0
 22
0.0
 32
0.0
 13
1.0
 23
0.0
 33
0.0
 40
0.0
 40
0.0
 40
0.0
 40
0.0
 40
1.0
 40
1.0
 40
1.0
 40
2.0
 40
2.0
 40
2.0
 40
3.0
 40
3.0
 40
3.0
 40
4.0
 40
4.0
 40
4.0
 40
5.0
 40
5.0
 40
5.0
 40
6.0
 40
6.0
 40
6.0
 40
7.0
 40
7.0
 40
7.0
 40
8.0
 40
8.0
 40
8.0
 40
9.0
 40
9.0
 40
9.0
 40
10.0
 40
10.0
 40
10.0
 40
10.0
 10
229.7490206581342
 20
-422.0480993682813
 30
0.0
 10
209.7276139714504
 20
-422.04896261469
 30
0.0
 10
189.7062072847666
 20
-422.0546069181073
 30
0.0
 10
169.6848005980819
 20
-422.0446795844491
 30
0.0
 10
165.1626262004738
 20
-422.0424384639718
 30
0.0
 10
162.1574911540429
 20
-419.7648624287795
 30
0.0
 10
161.6081593237222
 20
-415.9947997622876
 30
0.0
 10
160.9254144215438
 20
-411.3092476820202
 30
0.0
 10
164.1638169076859
 20
-407.7428779654092
 30
0.0
 10
169.3229924484367
 20
-407.6946357720644
 30
0.0
 10
176.840416061048
 20
-407.6243641944875
 30
0.0
 10
184.358960233898
 20
-407.6710957066243
 30
0.0
 10
191.8770229808642
 20
-407.671925751245
 30
0.0
 10
213.408828661758
 20
-407.6742830779694
 30
0.0
 10
234.9406177417595
 20
-407.6799273813867
 30
0.0
 10
256.4724234226569
 20
-407.6817368786596
 30
0.0
 10
267.7845039238646
 20
-407.6826997304197
 30
0.0
 10
279.096567824181
 20
-407.6765574002275
 30
0.0
 10
290.4086483253895
 20
-407.6774704493109
 30
0.0
 10
293.6424025616598
 20
-407.6777360635879
 30
0.0
 10
296.301350898204
 20
-408.7744076171402
 30
0.0
 10
297.7017191775158
 20
-411.8759523462486
 30
0.0
 10
298.8742402084899
 20
-414.4729295514207
 30
0.0
 10
298.6093065665054
 20
-417.029018758587
 30
0.0
 10
296.8444656943129
 20
-419.2983109484649
 30
0.0
 10
295.1442520962792
 20
-421.4845156718293
 30
0.0
 10
292.7675521325018
 20
-422.0700125462663
 30
0.0
 10
290.0849973269487
 20
-422.0655303053118
 30
0.0
 10
269.9730659739507
 20
-422.0319134981837
 30
0.0
 10
249.8610184147019
 20
-422.0472195209895
 30
0.0
 10
229.7490206581342
 20
-422.0480993682813
 30
0.0
  0
HATCH
  5
6F
330
66
100
AcDbEntity
  8
Layer 1
 62
    18
420
   263172
100
AcDbHatch
 10
0.0
 20
0.0
 30
0.0
210
0.0
220
0.0
230
1.0
  2
SOLID
 70
     1
 71
     0
 91
        1
 92
        1
 93
        1
 72
     4
 94
        3
 73
     0
 74
     1
 95
       35
 96
       31
 40
0.0
 40
0.0
 40
0.0
 40
0.0
 40
1.0
 40
1.0
 40
1.0
 40
2.0
 40
2.0
 40
2.0
 40
3.0
 40
3.0
 40
3.0
 40
4.0
 40
4.0
 40
4.0
 40
5.0
 40
5.0
 40
5.0
 40
6.0
 40
6.0
 40
6.0
 40
7.0
 40
7.0
 40
7.0
 40
8.0
 40
8.0
 40
8.0
 40
9.0
 40
9.0
 40
9.0
 40
10.0
 40
10.0
 40
10.0
 40
10.0
 10
229.7490206581342
 20
-422.0480993682813
 10
209.7276139714504
 20
-422.04896261469
 10
189.7062072847666
 20
-422.0546069181073
 10
169.6848005980819
 20
-422.0446795844491
 10
165.1626262004738
 20
-422.0424384639718
 10
162.1574911540429
 20
-419.7648624287795
 10
161.6081593237222
 20
-415.9947997622876
 10
160.9254144215438
 20
-411.3092476820202
 10
164.1638169076859
 20
-407.7428779654092
 10
169.3229924484367
 20
-407.6946357720644
 10
176.840416061048
 20
-407.6243641944875
 10
184.358960233898
 20
-407.6710957066243
 10
191.8770229808642
 20
-407.671925751245
 10
213.408828661758
 20
-407.6742830779694
 10
234.9406177417595
 20
-407.6799273813867
 10
256.4724234226569
 20
-407.6817368786596
 10
267.7845039238646
 20
-407.6826997304197
 10
279.096567824181
 20
-407.6765574002275
 10
290.4086483253895
 20
-407.6774704493109
 10
293.6424025616598
 20
-407.6777360635879
 10
296.301350898204
 20
-408.7744076171402
 10
297.7017191775158
 20
-411.8759523462486
 10
298.8742402084899
 20
-414.4729295514207
 10
298.6093065665054
 20
-417.029018758587
 10
296.8444656943129
 20
-419.2983109484649
 10
295.1442520962792
 20
-421.4845156718293
 10
292.7675521325018
 20
-422.0700125462663
 10
290.0849973269487
 20
-422.0655303053118
 10
269.9730659739507
 20
-422.0319134981837
 10
249.8610184147019
 20
-422.0472195209895
 10
229.7490206581342
 20
-422.0480993682813
 97
        0
 97
        0
 75
     2
 76
     1
 98
        0
  0
SPLINE
  5
70
330
66
100
AcDbEntity
  8
Layer 1
370
     0
100
AcDbSpline
210
0.0
220
0.0
230
1.0
 70
    11
 71
     3
 72
    20
 73
    16
 74
     0
 42
0.0000000001
 43
0.0000000001
 12
1.0
 22
0.0
 32
0.0
 13
1.0
 23
0.0
 33
0.0
 40
0.0
 40
0.0
 40
0.0
 40
0.0
 40
1.0
 40
1.0
 40
1.0
 40
2.0
 40
2.0
 40
2.0
 40
3.0
 40
3.0
 40
3.0
 40
4.0
 40
4.0
 40
4.0
 40
5.0
 40
5.0
 40
5.0
 40
5.0
 10
159.4237059945099
 20
-498.6774867186596
 30
0.0
 10
163.7336960857701
 20
-502.0440148924281
 30
0.0
 10
167.5176703000989
 20
-505.6016857414161
 30
0.0
 10
169.4678186338269
 20
-510.6965992276419
 30
0.0
 10
171.4215029576399
 20
-515.8007428100518
 30
0.0
 10
169.9995203164071
 20
-521.012260964575
 30
0.0
 10
165.877643237498
 20
-524.0843557105454
 30
0.0
 10
162.088954369724
 20
-526.908134307836
 30
0.0
 10
156.8476874160033
 20
-526.8946211814164
 30
0.0
 10
152.9629706860778
 20
-524.0510543203727
 30
0.0
 10
148.9674014970769
 20
-521.126342297217
 30
0.0
 10
147.4554171176405
 20
-515.9053284322417
 30
0.0
 10
149.2972363279423
 20
-510.912576837909
 30
0.0
 10
151.2172125397119
 20
-505.7080642599849
 30
0.0
 10
155.0471546251283
 20
-502.0655296489949
 30
0.0
 10
159.4237059945099
 20
-498.6774867186596
 30
0.0
  0
HATCH
  5
71
330
66
100
AcDbEntity
  8
Layer 1
 62
    18
420
   263172
100
AcDbHatch
 10
0.0
 20
0.0
 30
0.0
210
0.0
220
0.0
230
1.0
  2
SOLID
 70
     1
 71
     0
 91
        1
 92
        1
 93
        1
 72
     4
 94
        3
 73
     0
 74
     1
 95
       20
 96
       16
 40
0.0
 40
0.0
 40
0.0
 40
0.0
 40
1.0
 40
1.0
 40
1.0
 40
2.0
 40
2.0
 40
2.0
 40
3.0
 40
3.0
 40
3.0
 40
4.0
 40
4.0
 40
4.0
 40
5.0
 40
5.0
 40
5.0
 40
5.0
 10
159.4237059945099
 20
-498.6774867186596
 10
163.7336960857701
 20
-502.0440148924281
 10
167.5176703000989
 20
-505.6016857414161
 10
169.4678186338269
 20
-510.6965992276419
 10
171.4215029576399
 20
-515.8007428100518
 10
169.9995203164071
 20
-521.012260964575
 10
165.877643237498
 20
-524.0843557105454
 10
162.088954369724
 20
-526.908134307836
 10
156.8476874160033
 20
-526.8946211814164
 10
152.9629706860778
 20
-524.0510543203727
 10
148.9674014970769
 20
-521.126342297217
 10
147.4554171176405
 20
-515.9053284322417
 10
149.2972363279423
 20
-510.912576837909
 10
151.2172125397119
 20
-505.7080642599849
 10
155.0471546251283
 20
-502.0655296489949
 10
159.4237059945099
 20
-498.6774867186596
 97
        0
 97
        0
 75
     2
 76
     1
 98
        0
  0
SPLINE
  5
72
330
66
100
AcDbEntity
  8
Layer 1
370
     0
100
AcDbSpline
210
0.0
220
0.0
230
1.0
 70
    11
 71
     3
 72
    17
 73
    13
 74
     0
 42
0.0000000001
 43
0.0000000001
 12
1.0
 22
0.0
 32
0.0
 13
1.0
 23
0.0
 33
0.0
 40
0.0
 40
0.0
 40
0.0
 40
0.0
 40
1.0
 40
1.0
 40
1.0
 40
2.0
 40
2.0
 40
2.0
 40
3.0
 40
3.0
 40
3.0
 40
4.0
 40
4.0
 40
4.0
 40
4.0
 10
176.732385753684
 20
-463.9377952241357
 30
0.0
 10
181.2564775543669
 20
-467.3858337796446
 30
0.0
 10
185.0880216259011
 20
-471.0620017986621
 30
0.0
 10
186.9239143176092
 20
-476.3224261822252
 30
0.0
 10
189.3885326075942
 20
-483.3843462084205
 30
0.0
 10
185.0744420959081
 20
-490.6361140402259
 30
0.0
 10
178.0793572625562
 20
-491.3296329215791
 30
0.0
 10
169.9867708310367
 20
-492.1319540517925
 30
0.0
 10
164.0083993529379
 20
-484.8809498610335
 30
0.0
 10
166.3489923757188
 20
-477.0399167522173
 30
0.0
 10
168.041337150752
 20
-471.37051278322
 30
0.0
 10
172.1178605915957
 20
-467.556590558981
 30
0.0
 10
176.732385753684
 20
-463.9377952241357
 30
0.0
  0
HATCH
  5
73
330
66
100
AcDbEntity
  8
Layer 1
 62
    18
420
   263172
100
AcDbHatch
 10
0.0
 20
0.0
 30
0.0
210
0.0
220
0.0
230
1.0
  2
SOLID
 70
     1
 71
     0
 91
        1
 92
        1
 93
        1
 72
     4
 94
        3
 73
     0
 74
     1
 95
       17
 96
       13
 40
0.0
 40
0.0
 40
0.0
 40
0.0
 40
1.0
 40
1.0
 40
1.0
 40
2.0
 40
2.0
 40
2.0
 40
3.0
 40
3.0
 40
3.0
 40
4.0
 40
4.0
 40
4.0
 40
4.0
 10
176.732385753684
 20
-463.9377952241357
 10
181.2564775543669
 20
-467.3858337796446
 10
185.0880216259011
 20
-471.0620017986621
 10
186.9239143176092
 20
-476.3224261822252
 10
189.3885326075942
 20
-483.3843462084205
 10
185.0744420959081
 20
-490.6361140402259
 10
178.0793572625562
 20
-491.3296329215791
 10
169.9867708310367
 20
-492.1319540517925
 10
164.0083993529379
 20
-484.8809498610335
 10
166.3489923757188
 20
-477.0399167522173
 10
168.041337150752
 20
-471.37051278322
 10
172.1178605915957
 20
-467.556590558981
 10
176.732385753684
 20
-463.9377952241357
 97
        0
 97
        0
 75
     2
 76
     1
 98
        0
  0
SPLINE
  5
74
330
66
100
AcDbEntity
  8
Layer 1
370
     0
100
AcDbSpline
210
0.0
220
0.0
230
1.0
 70
    11
 71
     3
 72
    20
 73
    16
 74
     0
 42
0.0000000001
 43
0.0000000001
 12
1.0
 22
0.0
 32
0.0
 13
1.0
 23
0.0
 33
0.0
 40
0.0
 40
0.0
 40
0.0
 40
0.0
 40
1.0
 40
1.0
 40
1.0
 40
2.0
 40
2.0
 40
2.0
 40
3.0
 40
3.0
 40
3.0
 40
4.0
 40
4.0
 40
4.0
 40
5.0
 40
5.0
 40
5.0
 40
5.0
 10
282.571466623609
 20
-463.9351722831361
 30
0.0
 10
287.1442322408402
 20
-467.5345113720741
 30
0.0
 10
291.2578835775575
 20
-471.3417268357807
 30
0.0
 10
292.9011561146235
 20
-477.0122928672463
 30
0.0
 10
294.1533282273867
 20
-481.3332395474936
 30
0.0
 10
293.3159294115085
 20
-485.3354158916754
 30
0.0
 10
289.9515759546448
 20
-488.4749102608366
 30
0.0
 10
286.684603332661
 20
-491.5234981431513
 30
0.0
 10
282.7725034307041
 20
-492.2094138157809
 30
0.0
 10
278.5937433939507
 20
-490.6902993530566
 30
0.0
 10
272.8004137631096
 20
-488.5842437382526
 30
0.0
 10
270.0953149456627
 20
-481.934822686675
 30
0.0
 10
272.5150776243536
 20
-475.8316373989874
 30
0.0
 10
274.5191373561847
 20
-470.7769644759683
 30
0.0
 10
278.2353135259109
 20
-467.1520600127133
 30
0.0
 10
282.571466623609
 20
-463.9351722831361
 30
0.0
  0
HATCH
  5
75
330
66
100
AcDbEntity
  8
Layer 1
 62
    18
420
   263172
100
AcDbHatch
 10
0.0
 20
0.0
 30
0.0
210
0.0
220
0.0
230
1.0
  2
SOLID
 70
     1
 71
     0
 91
        1
 92
        1
 93
        1
 72
     4
 94
        3
 73
     0
 74
     1
 95
       20
 96
       16
 40
0.0
 40
0.0
 40
0.0
 40
0.0
 40
1.0
 40
1.0
 40
1.0
 40
2.0
 40
2.0
 40
2.0
 40
3.0
 40
3.0
 40
3.0
 40
4.0
 40
4.0
 40
4.0
 40
5.0
 40
5.0
 40
5.0
 40
5.0
 10
282.571466623609
 20
-463.9351722831361
 10
287.1442322408402
 20
-467.5345113720741
 10
291.2578835775575
 20
-471.3417268357807
 10
292.9011561146235
 20
-477.0122928672463
 10
294.1533282273867
 20
-481.3332395474936
 10
293.3159294115085
 20
-485.3354158916754
 10
289.9515759546448
 20
-488.4749102608366
 10
286.684603332661
 20
-491.5234981431513
 10
282.7725034307041
 20
-492.2094138157809
 10
278.5937433939507
 20
-490.6902993530566
 10
272.8004137631096
 20
-488.5842437382526
 10
270.0953149456627
 20
-481.934822686675
 10
272.5150776243536
 20
-475.8316373989874
 10
274.5191373561847
 20
-470.7769644759683
 10
278.2353135259109
 20
-467.1520600127133
 10
282.571466623609
 20
-463.9351722831361
 97
        0
 97
        0
 75
     2
 76
     1
 98
        0
  0
SPLINE
  5
76
330
66
100
AcDbEntity
  8
Layer 1
370
     0
100
AcDbSpline
210
0.0
220
0.0
230
1.0
 70
    11
 71
     3
 72
    20
 73
    16
 74
     0
 42
0.0000000001
 43
0.0000000001
 12
1.0
 22
0.0
 32
0.0
 13
1.0
 23
0.0
 33
0.0
 40
0.0
 40
0.0
 40
0.0
 40
0.0
 40
1.0
 40
1.0
 40
1.0
 40
2.0
 40
2.0
 40
2.0
 40
3.0
 40
3.0
 40
3.0
 40
4.0
 40
4.0
 40
4.0
 40
5.0
 40
5.0
 40
5.0
 40
5.0
 10
300.4539645294108
 20
-498.6910662486534
 30
0.0
 10
304.9194053772044
 20
-502.1203125939501
 30
0.0
 10
308.7894552186845
 20
-505.8331353834092
 30
0.0
 10
310.6748683724563
 20
-511.1731112434045
 30
0.0
 10
312.3695206715338
 20
-515.9728608625701
 30
0.0
 10
310.8266171299838
 20
-521.1791331350887
 30
0.0
 10
306.9276983365999
 20
-524.0642686307274
 30
0.0
 10
303.1781709740198
 20
-526.838842182915
 30
0.0
 10
297.9981447124028
 20
-526.9069722453678
 30
0.0
 10
294.236980124243
 20
-524.2312072048135
 30
0.0
 10
290.200024910464
 20
-521.3592196159589
 30
0.0
 10
288.5184541146045
 20
-516.3333658421616
 30
0.0
 10
290.1477985029405
 20
-511.4559572483013
 30
0.0
 10
291.9740460761595
 20
-505.9890841667166
 30
0.0
 10
295.9144504996757
 20
-502.1900031402911
 30
0.0
 10
300.4539645294108
 20
-498.6910662486534
 30
0.0
  0
HATCH
  5
77
330
66
100
AcDbEntity
  8
Layer 1
 62
    18
420
   263172
100
AcDbHatch
 10
0.0
 20
0.0
 30
0.0
210
0.0
220
0.0
230
1.0
  2
SOLID
 70
     1
 71
     0
 91
        1
 92
        1
 93
        1
 72
     4
 94
        3
 73
     0
 74
     1
 95
       20
 96
       16
 40
0.0
 40
0.0
 40
0.0
 40
0.0
 40
1.0
 40
1.0
 40
1.0
 40
2.0
 40
2.0
 40
2.0
 40
3.0
 40
3.0
 40
3.0
 40
4.0
 40
4.0
 40
4.0
 40
5.0
 40
5.0
 40
5.0
 40
5.0
 10
300.4539645294108
 20
-498.6910662486534
 10
304.9194053772044
 20
-502.1203125939501
 10
308.7894552186845
 20
-505.8331353834092
 10
310.6748683724563
 20
-511.1731112434045
 10
312.3695206715338
 20
-515.9728608625701
 10
310.8266171299838
 20
-521.1791331350887
 10
306.9276983365999
 20
-524.0642686307274
 10
303.1781709740198
 20
-526.838842182915
 10
297.9981447124028
 20
-526.9069722453678
 10
294.236980124243
 20
-524.2312072048135
 10
290.200024910464
 20
-521.3592196159589
 10
288.5184541146045
 20
-516.3333658421616
 10
290.1477985029405
 20
-511.4559572483013
 10
291.9740460761595
 20
-505.9890841667166
 10
295.9144504996757
 20
-502.1900031402911
 10
300.4539645294108
 20
-498.6910662486534
 97
        0
 97
        0
 75
     2
 76
     1
 98
        0
  0
SPLINE
  5
78
330
66
100
AcDbEntity
  8
Layer 1
370
     0
100
AcDbSpline
210
0.0
220
0.0
230
1.0
 70
    11
 71
     3
 72
    20
 73
    16
 74
     0
 42
0.0000000001
 43
0.0000000001
 12
1.0
 22
0.0
 32
0.0
 13
1.0
 23
0.0
 33
0.0
 40
0.0
 40
0.0
 40
0.0
 40
0.0
 40
1.0
 40
1.0
 40
1.0
 40
2.0
 40
2.0
 40
2.0
 40
3.0
 40
3.0
 40
3.0
 40
4.0
 40
4.0
 40
4.0
 40
5.0
 40
5.0
 40
5.0
 40
5.0
 10
264.5166182528019
 20
-429.1802079675908
 30
0.0
 10
268.5399607348045
 20
-432.0652604587722
 30
0.0
 10
271.8645052516667
 20
-435.3665305244776
 30
0.0
 10
274.0036962477225
 20
-439.6714407426589
 30
0.0
 10
277.0725206178886
 20
-445.8471719301815
 30
0.0
 10
275.1504028909958
 20
-452.569039276239
 30
0.0
 10
269.626754757368
 20
-455.4273643306351
 30
0.0
 10
265.6253420542407
 20
-457.4979770401424
 30
0.0
 10
260.8703152392309
 20
-456.9367340695189
 30
0.0
 10
257.4498673669123
 20
-453.9900756666011
 30
0.0
 10
253.9186583404262
 20
-450.9479953341051
 30
0.0
 10
252.7296858250738
 20
-446.0138614908774
 30
0.0
 10
254.4728459317766
 20
-441.3451925181944
 30
0.0
 10
256.3849035178664
 20
-436.2242488326647
 30
0.0
 10
260.154268946877
 20
-432.6153144279106
 30
0.0
 10
264.5166182528019
 20
-429.1802079675908
 30
0.0
  0
HATCH
  5
79
330
66
100
AcDbEntity
  8
Layer 1
 62
    18
420
   263172
100
AcDbHatch
 10
0.0
 20
0.0
 30
0.0
210
0.0
220
0.0
230
1.0
  2
SOLID
 70
     1
 71
     0
 91
        1
 92
        1
 93
        1
 72
     4
 94
        3
 73
     0
 74
     1
 95
       20
 96
       16
 40
0.0
 40
0.0
 40
0.0
 40
0.0
 40
1.0
 40
1.0
 40
1.0
 40
2.0
 40
2.0
 40
2.0
 40
3.0
 40
3.0
 40
3.0
 40
4.0
 40
4.0
 40
4.0
 40
5.0
 40
5.0
 40
5.0
 40
5.0
 10
264.5166182528019
 20
-429.1802079675908
 10
268.5399607348045
 20
-432.0652604587722
 10
271.8645052516667
 20
-435.3665305244776
 10
274.0036962477225
 20
-439.6714407426589
 10
277.0725206178886
 20
-445.8471719301815
 10
275.1504028909958
 20
-452.569039276239
 10
269.626754757368
 20
-455.4273643306351
 10
265.6253420542407
 20
-457.4979770401424
 10
260.8703152392309
 20
-456.9367340695189
 10
257.4498673669123
 20
-453.9900756666011
 10
253.9186583404262
 20
-450.9479953341051
 10
252.7296858250738
 20
-446.0138614908774
 10
254.4728459317766
 20
-441.3451925181944
 10
256.3849035178664
 20
-436.2242488326647
 10
260.154268946877
 20
-432.6153144279106
 10
264.5166182528019
 20
-429.1802079675908
 97
        0
 97
        0
 75
     2
 76
     1
 98
        0
  0
SPLINE
  5
7A
330
66
100
AcDbEntity
  8
Layer 1
370
     0
100
AcDbSpline
210
0.0
220
0.0
230
1.0
 70
    11
 71
     3
 72
    20
 73
    16
 74
     0
 42
0.0000000001
 43
0.0000000001
 12
1.0
 22
0.0
 32
0.0
 13
1.0
 23
0.0
 33
0.0
 40
0.0
 40
0.0
 40
0.0
 40
0.0
 40
1.0
 40
1.0
 40
1.0
 40
2.0
 40
2.0
 40
2.0
 40
3.0
 40
3.0
 40
3.0
 40
4.0
 40
4.0
 40
4.0
 40
5.0
 40
5.0
 40
5.0
 40
5.0
 10
194.8268023515529
 20
-498.7687584251325
 30
0.0
 10
199.1525798914954
 20
-502.2371828765245
 30
0.0
 10
203.0400274682243
 20
-505.8558122024406
 30
0.0
 10
204.8831249472423
 20
-511.1226445304728
 30
0.0
 10
206.6076422517663
 20
-516.050652644406
 30
0.0
 10
205.1637630334444
 20
-521.0026988505433
 30
0.0
 10
201.2028897095834
 20
-524.0241276728775
 30
0.0
 10
197.5375620733103
 20
-526.8201163762733
 30
0.0
 10
192.3980751909612
 20
-526.9189912914735
 30
0.0
 10
188.5111090401133
 20
-524.2683268002438
 30
0.0
 10
184.5916715437106
 20
-521.5955831221017
 30
0.0
 10
182.8663739972408
 20
-516.4871897112407
 30
0.0
 10
184.2900665303905
 20
-511.7703449487744
 30
0.0
 10
185.6968261532802
 20
-507.109644404447
 30
0.0
 10
189.6284653056055
 20
-502.2126135557555
 30
0.0
 10
194.8268023515529
 20
-498.7687584251325
 30
0.0
  0
HATCH
  5
7B
330
66
100
AcDbEntity
  8
Layer 1
 62
    18
420
   263172
100
AcDbHatch
 10
0.0
 20
0.0
 30
0.0
210
0.0
220
0.0
230
1.0
  2
SOLID
 70
     1
 71
     0
 91
        1
 92
        1
 93
        1
 72
     4
 94
        3
 73
     0
 74
     1
 95
       20
 96
       16
 40
0.0
 40
0.0
 40
0.0
 40
0.0
 40
1.0
 40
1.0
 40
1.0
 40
2.0
 40
2.0
 40
2.0
 40
3.0
 40
3.0
 40
3.0
 40
4.0
 40
4.0
 40
4.0
 40
5.0
 40
5.0
 40
5.0
 40
5.0
 10
194.8268023515529
 20
-498.7687584251325
 10
199.1525798914954
 20
-502.2371828765245
 10
203.0400274682243
 20
-505.8558122024406
 10
204.8831249472423
 20
-511.1226445304728
 10
206.6076422517663
 20
-516.050652644406
 10
205.1637630334444
 20
-521.0026988505433
 10
201.2028897095834
 20
-524.0241276728775
 10
197.5375620733103
 20
-526.8201163762733
 10
192.3980751909612
 20
-526.9189912914735
 10
188.5111090401133
 20
-524.2683268002438
 10
184.5916715437106
 20
-521.5955831221017
 10
182.8663739972408
 20
-516.4871897112407
 10
184.2900665303905
 20
-511.7703449487744
 10
185.6968261532802
 20
-507.109644404447
 10
189.6284653056055
 20
-502.2126135557555
 10
194.8268023515529
 20
-498.7687584251325
 97
        0
 97
        0
 75
     2
 76
     1
 98
        0
  0
SPLINE
  5
7C
330
66
100
AcDbEntity
  8
Layer 1
370
     0
100
AcDbSpline
210
0.0
220
0.0
230
1.0
 70
    11
 71
     3
 72
    20
 73
    16
 74
     0
 42
0.0000000001
 43
0.0000000001
 12
1.0
 22
0.0
 32
0.0
 13
1.0
 23
0.0
 33
0.0
 40
0.0
 40
0.0
 40
0.0
 40
0.0
 40
1.0
 40
1.0
 40
1.0
 40
2.0
 40
2.0
 40
2.0
 40
3.0
 40
3.0
 40
3.0
 40
4.0
 40
4.0
 40
4.0
 40
5.0
 40
5.0
 40
5.0
 40
5.0
 10
229.9282604934933
 20
-498.6969097627789
 30
0.0
 10
234.4165939719232
 20
-502.1556724947841
 30
0.0
 10
238.3180693027352
 20
-505.8603276451795
 30
0.0
 10
240.1614489969252
 20
-511.2305835329335
 30
0.0
 10
241.88548487557
 20
-516.253117128248
 30
0.0
 10
240.2923304326914
 20
-521.3121726868667
 30
0.0
 10
236.1522504752538
 20
-524.247874500792
 30
0.0
 10
232.4182947497575
 20
-526.8956504367434
 30
0.0
 10
227.0985553776109
 20
-526.8142728621478
 30
0.0
 10
223.4479029302302
 20
-524.0536108577999
 30
0.0
 10
219.5452489360532
 20
-521.1024038103624
 30
0.0
 10
218.044096638916
 20
-515.9894285531918
 30
0.0
 10
219.7507015805295
 20
-511.1429308210027
 30
0.0
 10
221.6309850585458
 20
-505.8032537770705
 30
0.0
 10
225.5006696803957
 20
-502.0916926554328
 30
0.0
 10
229.9282604934933
 20
-498.6969097627789
 30
0.0
  0
HATCH
  5
7D
330
66
100
AcDbEntity
  8
Layer 1
 62
    18
420
   263172
100
AcDbHatch
 10
0.0
 20
0.0
 30
0.0
210
0.0
220
0.0
230
1.0
  2
SOLID
 70
     1
 71
     0
 91
        1
 92
        1
 93
        1
 72
     4
 94
        3
 73
     0
 74
     1
 95
       20
 96
       16
 40
0.0
 40
0.0
 40
0.0
 40
0.0
 40
1.0
 40
1.0
 40
1.0
 40
2.0
 40
2.0
 40
2.0
 40
3.0
 40
3.0
 40
3.0
 40
4.0
 40
4.0
 40
4.0
 40
5.0
 40
5.0
 40
5.0
 40
5.0
 10
229.9282604934933
 20
-498.6969097627789
 10
234.4165939719232
 20
-502.1556724947841
 10
238.3180693027352
 20
-505.8603276451795
 10
240.1614489969252
 20
-511.2305835329335
 10
241.88548487557
 20
-516.253117128248
 10
240.2923304326914
 20
-521.3121726868667
 10
236.1522504752538
 20
-524.247874500792
 10
232.4182947497575
 20
-526.8956504367434
 10
227.0985553776109
 20
-526.8142728621478
 10
223.4479029302302
 20
-524.0536108577999
 10
219.5452489360532
 20
-521.1024038103624
 10
218.044096638916
 20
-515.9894285531918
 10
219.7507015805295
 20
-511.1429308210027
 10
221.6309850585458
 20
-505.8032537770705
 10
225.5006696803957
 20
-502.0916926554328
 10
229.9282604934933
 20
-498.6969097627789
 97
        0
 97
        0
 75
     2
 76
     1
 98
        0
  0
SPLINE
  5
7E
330
66
100
AcDbEntity
  8
Layer 1
370
     0
100
AcDbSpline
210
0.0
220
0.0
230
1.0
 70
    11
 71
     3
 72
    20
 73
    16
 74
     0
 42
0.0000000001
 43
0.0000000001
 12
1.0
 22
0.0
 32
0.0
 13
1.0
 23
0.0
 33
0.0
 40
0.0
 40
0.0
 40
0.0
 40
0.0
 40
1.0
 40
1.0
 40
1.0
 40
2.0
 40
2.0
 40
2.0
 40
3.0
 40
3.0
 40
3.0
 40
4.0
 40
4.0
 40
4.0
 40
5.0
 40
5.0
 40
5.0
 40
5.0
 10
194.1181268554283
 20
-429.1609675332911
 30
0.0
 10
198.420812554029
 20
-432.6193816465548
 30
0.0
 10
202.2663428774204
 20
-436.1482665480999
 30
0.0
 10
204.1431733698137
 20
-441.2951242266809
 30
0.0
 10
205.9823364373287
 20
-446.3387243544676
 30
0.0
 10
204.5949666567758
 20
-451.4768499636393
 30
0.0
 10
200.6417463443122
 20
-454.4791877596981
 30
0.0
 10
196.8424661071795
 20
-457.3646054705114
 30
0.0
 10
191.2896170037993
 20
-457.3531508547494
 30
0.0
 10
187.4857549203607
 20
-454.4520785023924
 30
0.0
 10
183.5545639921311
 20
-451.4538909294351
 30
0.0
 10
182.1112160023649
 20
-446.2241947977254
 30
0.0
 10
183.9950354704652
 20
-441.243429047714
 30
0.0
 10
185.9233121284415
 20
-436.145128979435
 30
0.0
 10
189.6687224697034
 20
-432.5130197288781
 30
0.0
 10
194.1181268554283
 20
-429.1609675332911
 30
0.0
  0
HATCH
  5
7F
330
66
100
AcDbEntity
  8
Layer 1
 62
    18
420
   263172
100
AcDbHatch
 10
0.0
 20
0.0
 30
0.0
210
0.0
220
0.0
230
1.0
  2
SOLID
 70
     1
 71
     0
 91
        1
 92
        1
 93
        1
 72
     4
 94
        3
 73
     0
 74
     1
 95
       20
 96
       16
 40
0.0
 40
0.0
 40
0.0
 40
0.0
 40
1.0
 40
1.0
 40
1.0
 40
2.0
 40
2.0
 40
2.0
 40
3.0
 40
3.0
 40
3.0
 40
4.0
 40
4.0
 40
4.0
 40
5.0
 40
5.0
 40
5.0
 40
5.0
 10
194.1181268554283
 20
-429.1609675332911
 10
198.420812554029
 20
-432.6193816465548
 10
202.2663428774204
 20
-436.1482665480999
 10
204.1431733698137
 20
-441.2951242266809
 10
205.9823364373287
 20
-446.3387243544676
 10
204.5949666567758
 20
-451.4768499636393
 10
200.6417463443122
 20
-454.4791877596981
 10
196.8424661071795
 20
-457.3646054705114
 10
191.2896170037993
 20
-457.3531508547494
 10
187.4857549203607
 20
-454.4520785023924
 10
183.5545639921311
 20
-451.4538909294351
 10
182.1112160023649
 20
-446.2241947977254
 10
183.9950354704652
 20
-441.243429047714
 10
185.9233121284415
 20
-436.145128979435
 10
189.6687224697034
 20
-432.5130197288781
 10
194.1181268554283
 20
-429.1609675332911
 97
        0
 97
        0
 75
     2
 76
     1
 98
        0
  0
SPLINE
  5
80
330
66
100
AcDbEntity
  8
Layer 1
370
     0
100
AcDbSpline
210
0.0
220
0.0
230
1.0
 70
    11
 71
     3
 72
    20
 73
    16
 74
     0
 42
0.0000000001
 43
0.0000000001
 12
1.0
 22
0.0
 32
0.0
 13
1.0
 23
0.0
 33
0.0
 40
0.0
 40
0.0
 40
0.0
 40
0.0
 40
1.0
 40
1.0
 40
1.0
 40
2.0
 40
2.0
 40
2.0
 40
3.0
 40
3.0
 40
3.0
 40
4.0
 40
4.0
 40
4.0
 40
5.0
 40
5.0
 40
5.0
 40
5.0
 10
212.004808186115
 20
-463.9262410030169
 30
0.0
 10
216.5010768911197
 20
-467.3744123656688
 30
0.0
 10
220.3790121564944
 20
-471.1176811918031
 30
0.0
 10
222.2382623038266
 20
-476.465359865877
 30
0.0
 10
224.2358808894005
 20
-482.2111279399651
 30
0.0
 10
221.6372269940939
 20
-488.2808458285526
 30
0.0
 10
216.3294900671608
 20
-490.5611112083134
 30
0.0
 10
211.0087048387895
 20
-492.847020891495
 30
0.0
 10
204.8378377127428
 20
-490.5862781612104
 30
0.0
 10
202.2581918392461
 20
-485.3416910290052
 30
0.0
 10
200.6866351573926
 20
-482.14658367027
 30
0.0
 10
200.7606751375442
 20
-478.8451641965366
 30
0.0
 10
202.0894105661046
 20
-475.606330087192
 30
0.0
 10
204.1119968938665
 20
-470.6761638572461
 30
0.0
 10
207.8023752767849
 20
-467.150333519905
 30
0.0
 10
212.004808186115
 20
-463.9262410030169
 30
0.0
  0
HATCH
  5
81
330
66
100
AcDbEntity
  8
Layer 1
 62
    18
420
   263172
100
AcDbHatch
 10
0.0
 20
0.0
 30
0.0
210
0.0
220
0.0
230
1.0
  2
SOLID
 70
     1
 71
     0
 91
        1
 92
        1
 93
        1
 72
     4
 94
        3
 73
     0
 74
     1
 95
       20
 96
       16
 40
0.0
 40
0.0
 40
0.0
 40
0.0
 40
1.0
 40
1.0
 40
1.0
 40
2.0
 40
2.0
 40
2.0
 40
3.0
 40
3.0
 40
3.0
 40
4.0
 40
4.0
 40
4.0
 40
5.0
 40
5.0
 40
5.0
 40
5.0
 10
212.004808186115
 20
-463.9262410030169
 10
216.5010768911197
 20
-467.3744123656688
 10
220.3790121564944
 20
-471.1176811918031
 10
222.2382623038266
 20
-476.465359865877
 10
224.2358808894005
 20
-482.2111279399651
 10
221.6372269940939
 20
-488.2808458285526
 10
216.3294900671608
 20
-490.5611112083134
 10
211.0087048387895
 20
-492.847020891495
 10
204.8378377127428
 20
-490.5862781612104
 10
202.2581918392461
 20
-485.3416910290052
 10
200.6866351573926
 20
-482.14658367027
 10
200.7606751375442
 20
-478.8451641965366
 10
202.0894105661046
 20
-475.606330087192
 10
204.1119968938665
 20
-470.6761638572461
 10
207.8023752767849
 20
-467.150333519905
 10
212.004808186115
 20
-463.9262410030169
 97
        0
 97
        0
 75
     2
 76
     1
 98
        0
  0
SPLINE
  5
82
330
66
100
AcDbEntity
  8
Layer 1
370
     0
100
AcDbSpline
210
0.0
220
0.0
230
1.0
 70
    11
 71
     3
 72
    20
 73
    16
 74
     0
 42
0.0000000001
 43
0.0000000001
 12
1.0
 22
0.0
 32
0.0
 13
1.0
 23
0.0
 33
0.0
 40
0.0
 40
0.0
 40
0.0
 40
0.0
 40
1.0
 40
1.0
 40
1.0
 40
2.0
 40
2.0
 40
2.0
 40
3.0
 40
3.0
 40
3.0
 40
4.0
 40
4.0
 40
4.0
 40
5.0
 40
5.0
 40
5.0
 40
5.0
 10
228.8304102765833
 20
-428.7587445110694
 30
0.0
 10
233.8141309854436
 20
-432.6593731963731
 30
0.0
 10
237.8319287693821
 20
-436.3955036387761
 30
0.0
 10
239.6176369633322
 20
-441.9027002880248
 30
0.0
 10
241.5736869143111
 20
-447.935198975827
 30
0.0
 10
238.6223636606273
 20
-454.0764169080303
 30
0.0
 10
232.9282243619391
 20
-456.0407839061081
 30
0.0
 10
227.2862450672092
 20
-457.9871555368081
 30
0.0
 10
221.3006937031432
 20
-455.212631787299
 30
0.0
 10
219.1705003907755
 20
-449.6218662456595
 30
0.0
 10
217.7445667371458
 20
-445.8794108632483
 30
0.0
 10
218.17351719615
 20
-442.1352621898059
 30
0.0
 10
220.3729860325484
 20
-438.9724435668104
 30
0.0
 10
222.866406870864
 20
-435.3869496221414
 30
0.0
 10
225.9378209802471
 20
-432.203379883631
 30
0.0
 10
228.8304102765833
 20
-428.7587445110694
 30
0.0
  0
HATCH
  5
83
330
66
100
AcDbEntity
  8
Layer 1
 62
    18
420
   263172
100
AcDbHatch
 10
0.0
 20
0.0
 30
0.0
210
0.0
220
0.0
230
1.0
  2
SOLID
 70
     1
 71
     0
 91
        1
 92
        1
 93
        1
 72
     4
 94
        3
 73
     0
 74
     1
 95
       20
 96
       16
 40
0.0
 40
0.0
 40
0.0
 40
0.0
 40
1.0
 40
1.0
 40
1.0
 40
2.0
 40
2.0
 40
2.0
 40
3.0
 40
3.0
 40
3.0
 40
4.0
 40
4.0
 40
4.0
 40
5.0
 40
5.0
 40
5.0
 40
5.0
 10
228.8304102765833
 20
-428.7587445110694
 10
233.8141309854436
 20
-432.6593731963731
 10
237.8319287693821
 20
-436.3955036387761
 10
239.6176369633322
 20
-441.9027002880248
 10
241.5736869143111
 20
-447.935198975827
 10
238.6223636606273
 20
-454.0764169080303
 10
232.9282243619391
 20
-456.0407839061081
 10
227.2862450672092
 20
-457.9871555368081
 10
221.3006937031432
 20
-455.212631787299
 10
219.1705003907755
 20
-449.6218662456595
 10
217.7445667371458
 20
-445.8794108632483
 10
218.17351719615
 20
-442.1352621898059
 10
220.3729860325484
 20
-438.9724435668104
 10
222.866406870864
 20
-435.3869496221414
 10
225.9378209802471
 20
-432.203379883631
 10
228.8304102765833
 20
-428.7587445110694
 97
        0
 97
        0
 75
     2
 76
     1
 98
        0
  0
SPLINE
  5
84
330
66
100
AcDbEntity
  8
Layer 1
370
     0
100
AcDbSpline
210
0.0
220
0.0
230
1.0
 70
    11
 71
     3
 72
    20
 73
    16
 74
     0
 42
0.0000000001
 43
0.0000000001
 12
1.0
 22
0.0
 32
0.0
 13
1.0
 23
0.0
 33
0.0
 40
0.0
 40
0.0
 40
0.0
 40
0.0
 40
1.0
 40
1.0
 40
1.0
 40
2.0
 40
2.0
 40
2.0
 40
3.0
 40
3.0
 40
3.0
 40
4.0
 40
4.0
 40
4.0
 40
5.0
 40
5.0
 40
5.0
 40
5.0
 10
265.1761219056043
 20
-498.7555109129917
 30
0.0
 10
269.4803514871983
 20
-501.8675806078882
 30
0.0
 10
273.095162607864
 20
-505.465392414726
 30
0.0
 10
275.1295521701286
 20
-510.3769324433833
 30
0.0
 10
277.2053443580671
 20
-515.3885094497073
 30
0.0
 10
275.8353059091905
 20
-520.8738095218669
 30
0.0
 10
271.9036833577547
 20
-523.8784714428657
 30
0.0
 10
267.8893551603314
 20
-526.9463495621621
 30
0.0
 10
262.4997758338131
 20
-526.9693251972622
 30
0.0
 10
258.5528638604701
 20
-523.9353793020455
 30
0.0
 10
254.56453266056
 20
-520.8695928951965
 30
0.0
 10
253.1902277823337
 20
-515.5212169836414
 30
0.0
 10
255.2397573584758
 20
-510.4590736590344
 30
0.0
 10
257.2408289296745
 20
-505.5166559704921
 30
0.0
 10
260.9076008435877
 20
-501.9454719950809
 30
0.0
 10
265.1761219056043
 20
-498.7555109129917
 30
0.0
  0
HATCH
  5
85
330
66
100
AcDbEntity
  8
Layer 1
 62
    18
420
   263172
100
AcDbHatch
 10
0.0
 20
0.0
 30
0.0
210
0.0
220
0.0
230
1.0
  2
SOLID
 70
     1
 71
     0
 91
        1
 92
        1
 93
        1
 72
     4
 94
        3
 73
     0
 74
     1
 95
       20
 96
       16
 40
0.0
 40
0.0
 40
0.0
 40
0.0
 40
1.0
 40
1.0
 40
1.0
 40
2.0
 40
2.0
 40
2.0
 40
3.0
 40
3.0
 40
3.0
 40
4.0
 40
4.0
 40
4.0
 40
5.0
 40
5.0
 40
5.0
 40
5.0
 10
265.1761219056043
 20
-498.7555109129917
 10
269.4803514871983
 20
-501.8675806078882
 10
273.095162607864
 20
-505.465392414726
 10
275.1295521701286
 20
-510.3769324433833
 10
277.2053443580671
 20
-515.3885094497073
 10
275.8353059091905
 20
-520.8738095218669
 10
271.9036833577547
 20
-523.8784714428657
 10
267.8893551603314
 20
-526.9463495621621
 10
262.4997758338131
 20
-526.9693251972622
 10
258.5528638604701
 20
-523.9353793020455
 10
254.56453266056
 20
-520.8695928951965
 10
253.1902277823337
 20
-515.5212169836414
 10
255.2397573584758
 20
-510.4590736590344
 10
257.2408289296745
 20
-505.5166559704921
 10
260.9076008435877
 20
-501.9454719950809
 10
265.1761219056043
 20
-498.7555109129917
 97
        0
 97
        0
 75
     2
 76
     1
 98
        0
  0
SPLINE
  5
86
330
66
100
AcDbEntity
  8
Layer 1
370
     0
100
AcDbSpline
210
0.0
220
0.0
230
1.0
 70
    11
 71
     3
 72
    20
 73
    16
 74
     0
 42
0.0000000001
 43
0.0000000001
 12
1.0
 22
0.0
 32
0.0
 13
1.0
 23
0.0
 33
0.0
 40
0.0
 40
0.0
 40
0.0
 40
0.0
 40
1.0
 40
1.0
 40
1.0
 40
2.0
 40
2.0
 40
2.0
 40
3.0
 40
3.0
 40
3.0
 40
4.0
 40
4.0
 40
4.0
 40
5.0
 40
5.0
 40
5.0
 40
5.0
 10
247.2341098005127
 20
-463.921957972776
 30
0.0
 10
251.8217664182339
 20
-467.4625963061517
 30
0.0
 10
255.7203531937685
 20
-471.1812294079555
 30
0.0
 10
257.5250860104234
 20
-476.5755233879154
 30
0.0
 10
259.3850665970222
 20
-482.1350294491513
 30
0.0
 10
256.9961981791075
 20
-487.9757878296114
 30
0.0
 10
251.9482984201886
 20
-490.360638831562
 30
0.0
 10
247.9821460125422
 20
-492.234414759756
 30
0.0
 10
243.2548426878593
 20
-491.5687853776508
 30
0.0
 10
240.0373241243697
 20
-488.6835170748673
 30
0.0
 10
236.6062018782304
 20
-485.6067076754516
 30
0.0
 10
235.4569552984149
 20
-480.8369724697695
 30
0.0
 10
237.1103377789586
 20
-476.2646882784175
 30
0.0
 10
239.004599208386
 20
-471.0263430817613
 30
0.0
 10
242.8535493156132
 20
-467.3886227295698
 30
0.0
 10
247.2341098005127
 20
-463.921957972776
 30
0.0
  0
HATCH
  5
87
330
66
100
AcDbEntity
  8
Layer 1
 62
    18
420
   263172
100
AcDbHatch
 10
0.0
 20
0.0
 30
0.0
210
0.0
220
0.0
230
1.0
  2
SOLID
 70
     1
 71
     0
 91
        1
 92
        1
 93
        1
 72
     4
 94
        3
 73
     0
 74
     1
 95
       20
 96
       16
 40
0.0
 40
0.0
 40
0.0
 40
0.0
 40
1.0
 40
1.0
 40
1.0
 40
2.0
 40
2.0
 40
2.0
 40
3.0
 40
3.0
 40
3.0
 40
4.0
 40
4.0
 40
4.0
 40
5.0
 40
5.0
 40
5.0
 40
5.0
 10
247.2341098005127
 20
-463.921957972776
 10
251.8217664182339
 20
-467.4625963061517
 10
255.7203531937685
 20
-471.1812294079555
 10
257.5250860104234
 20
-476.5755233879154
 10
259.3850665970222
 20
-482.1350294491513
 10
256.9961981791075
 20
-487.9757878296114
 10
251.9482984201886
 20
-490.360638831562
 10
247.9821460125422
 20
-492.234414759756
 10
243.2548426878593
 20
-491.5687853776508
 10
240.0373241243697
 20
-488.6835170748673
 10
236.6062018782304
 20
-485.6067076754516
 10
235.4569552984149
 20
-480.8369724697695
 10
237.1103377789586
 20
-476.2646882784175
 10
239.004599208386
 20
-471.0263430817613
 10
242.8535493156132
 20
-467.3886227295698
 10
247.2341098005127
 20
-463.921957972776
 97
        0
 97
        0
 75
     2
 76
     1
 98
        0
  0
ENDBLK
  5
69
330
66
100
AcDbEntity
  8
0
100
AcDbBlockEnd
  0
BLOCK
  5
8A
330
88
100
AcDbEntity
  8
0
100
AcDbBlockBegin
  2
block 6
 70
     0
 10
0.0
 20
0.0
 30
0.0
  3
block 6
  1

  0
SPLINE
  5
8C
330
88
100
AcDbEntity
  8
Layer 1
370
     0
100
AcDbSpline
210
0.0
220
0.0
230
1.0
 70
    11
 71
     3
 72
    59
 73
    55
 74
     0
 42
0.0000000001
 43
0.0000000001
 12
1.0
 22
0.0
 32
0.0
 13
1.0
 23
0.0
 33
0.0
 40
0.0
 40
0.0
 40
0.0
 40
0.0
 40
1.0
 40
1.0
 40
1.0
 40
2.0
 40
2.0
 40
2.0
 40
3.0
 40
3.0
 40
3.0
 40
4.0
 40
4.0
 40
4.0
 40
5.0
 40
5.0
 40
5.0
 40
6.0
 40
6.0
 40
6.0
 40
7.0
 40
7.0
 40
7.0
 40
8.0
 40
8.0
 40
8.0
 40
9.0
 40
9.0
 40
9.0
 40
10.0
 40
10.0
 40
10.0
 40
11.0
 40
11.0
 40
11.0
 40
12.0
 40
12.0
 40
12.0
 40
13.0
 40
13.0
 40
13.0
 40
14.0
 40
14.0
 40
14.0
 40
15.0
 40
15.0
 40
15.0
 40
16.0
 40
16.0
 40
16.0
 40
17.0
 40
17.0
 40
17.0
 40
18.0
 40
18.0
 40
18.0
 40
18.0
 10
775.3085569337982
 20
-677.2834899470399
 30
0.0
 10
775.3085569337982
 20
-673.9891626462195
 30
0.0
 10
775.0962565042482
 20
-671.3766318781145
 30
0.0
 10
775.3565438737351
 20
-668.8120761128903
 30
0.0
 10
775.7849168405501
 20
-664.5913979414345
 30
0.0
 10
774.4008875459931
 20
-662.5079649658073
 30
0.0
 10
770.03871952402
 20
-661.0182569699446
 30
0.0
 10
746.6830103114498
 20
-653.0421232663757
 30
0.0
 10
737.1027042420992
 20
-639.2549024439159
 30
0.0
 10
737.2023427962431
 20
-614.9172992682797
 30
0.0
 10
737.262983008899
 20
-600.1085773517334
 30
0.0
 10
737.2135397488946
 20
-585.2994137643454
 30
0.0
 10
737.2135397488946
 20
-569.9431155023303
 30
0.0
 10
789.6299129837316
 20
-569.9431155023303
 30
0.0
 10
841.3356020255087
 20
-569.9431155023303
 30
0.0
 10
893.5444854618454
 20
-569.9431155023303
 30
0.0
 10
893.5444854618454
 20
-589.603197676066
 30
0.0
 10
894.8947806538454
 20
-609.1887329742112
 30
0.0
 10
893.1117435348224
 20
-628.4847231939639
 30
0.0
 10
891.7175916220895
 20
-643.5722349070857
 30
0.0
 10
880.2838795255229
 20
-652.9592801412127
 30
0.0
 10
866.7849623282764
 20
-659.1061684062224
 30
0.0
 10
863.4926285147685
 20
-660.6053663566327
 30
0.0
 10
859.982324173081
 20
-661.6258886126379
 30
0.0
 10
856.2734350719948
 20
-662.9752049665676
 30
0.0
 10
856.2734350719948
 20
-667.6100510156521
 30
0.0
 10
856.2734350719948
 20
-672.2278032095182
 30
0.0
 10
856.2734350719948
 20
-677.24544656953
 30
0.0
 10
860.845062505683
 20
-678.5021791657127
 30
0.0
 10
865.4165944429751
 20
-679.4117584814667
 30
0.0
 10
869.7250576781898
 20
-681.0241435374737
 30
0.0
 10
876.2825565800067
 20
-683.4781741591942
 30
0.0
 10
883.0474736580381
 20
-685.7576612396788
 30
0.0
 10
889.0333788703156
 20
-689.2841522208055
 30
0.0
 10
903.7912012067882
 20
-697.9784068994177
 30
0.0
 10
904.3417140664988
 20
-710.8836468651098
 30
0.0
 10
889.0336176113105
 20
-718.3647153049824
 30
0.0
 10
875.9401064971898
 20
-724.7635230676169
 30
0.0
 10
861.3735634456843
 20
-729.1849346674317
 30
0.0
 10
846.973780978984
 20
-731.6567395562088
 30
0.0
 10
817.6431367028399
 20
-736.6915245196415
 30
0.0
 10
788.2047844269346
 20
-735.2079402302825
 30
0.0
 10
759.587904102691
 20
-726.3686981455776
 30
0.0
 10
752.0171645452047
 20
-724.0302539764543
 30
0.0
 10
744.5248752785737
 20
-720.2944826393559
 30
0.0
 10
738.0960816470033
 20
-715.6713826472114
 30
0.0
 10
728.5313295534634
 20
-708.7931590930912
 30
0.0
 10
728.3655478067285
 20
-699.0201532298579
 30
0.0
 10
738.1223431564267
 20
-692.4658534573664
 30
0.0
 10
746.173728021522
 20
-687.0572000962075
 30
0.0
 10
755.7480536289531
 20
-683.8648868224282
 30
0.0
 10
764.7753161840446
 20
-679.9880195574624
 30
0.0
 10
767.8129491673462
 20
-678.6834671400466
 30
0.0
 10
771.2434304574472
 20
-678.2936866550281
 30
0.0
 10
775.3085569337982
 20
-677.2834899470399
 30
0.0
  0
SPLINE
  5
8D
330
88
100
AcDbEntity
  8
Layer 1
370
     0
100
AcDbSpline
210
0.0
220
0.0
230
1.0
 70
    11
 71
     3
 72
    38
 73
    34
 74
     0
 42
0.0000000001
 43
0.0000000001
 12
1.0
 22
0.0
 32
0.0
 13
1.0
 23
0.0
 33
0.0
 40
0.0
 40
0.0
 40
0.0
 40
0.0
 40
1.0
 40
1.0
 40
1.0
 40
2.0
 40
2.0
 40
2.0
 40
3.0
 40
3.0
 40
3.0
 40
4.0
 40
4.0
 40
4.0
 40
5.0
 40
5.0
 40
5.0
 40
6.0
 40
6.0
 40
6.0
 40
7.0
 40
7.0
 40
7.0
 40
8.0
 40
8.0
 40
8.0
 40
9.0
 40
9.0
 40
9.0
 40
10.0
 40
10.0
 40
10.0
 40
11.0
 40
11.0
 40
11.0
 40
11.0
 10
822.8292595828261
 20
-684.1016223927945
 30
0.0
 10
810.850060124485
 20
-684.8180244326813
 30
0.0
 10
800.3802767311299
 20
-684.8055621527546
 30
0.0
 10
790.1149749997439
 20
-686.2481546133185
 30
0.0
 10
780.9227066061558
 20
-687.5399821357205
 30
0.0
 10
771.699246701608
 20
-689.7413173515833
 30
0.0
 10
763.0119513229893
 20
-692.9540071692554
 30
0.0
 10
759.3940344779348
 20
-694.2919594518335
 30
0.0
 10
755.1820703527828
 20
-699.1181802822866
 30
0.0
 10
754.8645448298103
 20
-702.681198635606
 30
0.0
 10
754.6084473647861
 20
-705.5549478630819
 30
0.0
 10
759.3820258059004
 20
-709.4891845890779
 30
0.0
 10
762.697266817855
 20
-711.8817035935099
 30
0.0
 10
765.5172515733211
 20
-713.9168273288506
 30
0.0
 10
769.3664487570004
 20
-714.7442081201352
 30
0.0
 10
772.8871741431049
 20
-715.5549009158913
 30
0.0
 10
797.5309029592136
 20
-721.2295594933512
 30
0.0
 10
822.3870396383154
 20
-721.6289970516082
 30
0.0
 10
847.2891100848046
 20
-717.7159366518481
 30
0.0
 10
853.9124537529678
 20
-716.6751452853896
 30
0.0
 10
860.7605959417542
 20
-715.3035305225549
 30
0.0
 10
866.7276167413493
 20
-712.4545148621328
 30
0.0
 10
870.8411240802798
 20
-710.4904643209175
 30
0.0
 10
876.3582374753369
 20
-705.6218192157066
 30
0.0
 10
876.2348561292656
 20
-702.2338457597107
 30
0.0
 10
876.1054346360306
 20
-698.6811648914627
 30
0.0
 10
870.3167772335855
 20
-694.8911516003736
 30
0.0
 10
866.3781954214865
 20
-692.0771592438687
 30
0.0
 10
863.7683266154654
 20
-690.2124965787516
 30
0.0
 10
860.1282665431554
 20
-689.4590538735356
 30
0.0
 10
856.8342137944801
 20
-688.9421796199786
 30
0.0
 10
845.0375915118511
 20
-687.0911490656563
 30
0.0
 10
833.191836332504
 20
-685.5529885849064
 30
0.0
 10
822.8292595828261
 20
-684.1016223927945
 30
0.0
  0
HATCH
  5
8E
330
88
100
AcDbEntity
  8
Layer 1
 62
    18
420
   263172
100
AcDbHatch
 10
0.0
 20
0.0
 30
0.0
210
0.0
220
0.0
230
1.0
  2
SOLID
 70
     1
 71
     0
 91
        2
 92
        1
 93
        1
 72
     4
 94
        3
 73
     0
 74
     1
 95
       59
 96
       55
 40
0.0
 40
0.0
 40
0.0
 40
0.0
 40
1.0
 40
1.0
 40
1.0
 40
2.0
 40
2.0
 40
2.0
 40
3.0
 40
3.0
 40
3.0
 40
4.0
 40
4.0
 40
4.0
 40
5.0
 40
5.0
 40
5.0
 40
6.0
 40
6.0
 40
6.0
 40
7.0
 40
7.0
 40
7.0
 40
8.0
 40
8.0
 40
8.0
 40
9.0
 40
9.0
 40
9.0
 40
10.0
 40
10.0
 40
10.0
 40
11.0
 40
11.0
 40
11.0
 40
12.0
 40
12.0
 40
12.0
 40
13.0
 40
13.0
 40
13.0
 40
14.0
 40
14.0
 40
14.0
 40
15.0
 40
15.0
 40
15.0
 40
16.0
 40
16.0
 40
16.0
 40
17.0
 40
17.0
 40
17.0
 40
18.0
 40
18.0
 40
18.0
 40
18.0
 10
775.3085569337982
 20
-677.2834899470399
 10
775.3085569337982
 20
-673.9891626462195
 10
775.0962565042482
 20
-671.3766318781145
 10
775.3565438737351
 20
-668.8120761128903
 10
775.7849168405501
 20
-664.5913979414345
 10
774.4008875459931
 20
-662.5079649658073
 10
770.03871952402
 20
-661.0182569699446
 10
746.6830103114498
 20
-653.0421232663757
 10
737.1027042420992
 20
-639.2549024439159
 10
737.2023427962431
 20
-614.9172992682797
 10
737.262983008899
 20
-600.1085773517334
 10
737.2135397488946
 20
-585.2994137643454
 10
737.2135397488946
 20
-569.9431155023303
 10
789.6299129837316
 20
-569.9431155023303
 10
841.3356020255087
 20
-569.9431155023303
 10
893.5444854618454
 20
-569.9431155023303
 10
893.5444854618454
 20
-589.603197676066
 10
894.8947806538454
 20
-609.1887329742112
 10
893.1117435348224
 20
-628.4847231939639
 10
891.7175916220895
 20
-643.5722349070857
 10
880.2838795255229
 20
-652.9592801412127
 10
866.7849623282764
 20
-659.1061684062224
 10
863.4926285147685
 20
-660.6053663566327
 10
859.982324173081
 20
-661.6258886126379
 10
856.2734350719948
 20
-662.9752049665676
 10
856.2734350719948
 20
-667.6100510156521
 10
856.2734350719948
 20
-672.2278032095182
 10
856.2734350719948
 20
-677.24544656953
 10
860.845062505683
 20
-678.5021791657127
 10
865.4165944429751
 20
-679.4117584814667
 10
869.7250576781898
 20
-681.0241435374737
 10
876.2825565800067
 20
-683.4781741591942
 10
883.0474736580381
 20
-685.7576612396788
 10
889.0333788703156
 20
-689.2841522208055
 10
903.7912012067882
 20
-697.9784068994177
 10
904.3417140664988
 20
-710.8836468651098
 10
889.0336176113105
 20
-718.3647153049824
 10
875.9401064971898
 20
-724.7635230676169
 10
861.3735634456843
 20
-729.1849346674317
 10
846.973780978984
 20
-731.6567395562088
 10
817.6431367028399
 20
-736.6915245196415
 10
788.2047844269346
 20
-735.2079402302825
 10
759.587904102691
 20
-726.3686981455776
 10
752.0171645452047
 20
-724.0302539764543
 10
744.5248752785737
 20
-720.2944826393559
 10
738.0960816470033
 20
-715.6713826472114
 10
728.5313295534634
 20
-708.7931590930912
 10
728.3655478067285
 20
-699.0201532298579
 10
738.1223431564267
 20
-692.4658534573664
 10
746.173728021522
 20
-687.0572000962075
 10
755.7480536289531
 20
-683.8648868224282
 10
764.7753161840446
 20
-679.9880195574624
 10
767.8129491673462
 20
-678.6834671400466
 10
771.2434304574472
 20
-678.2936866550281
 10
775.3085569337982
 20
-677.2834899470399
 97
        0
 97
        0
 92
        1
 93
        1
 72
     4
 94
        3
 73
     0
 74
     1
 95
       38
 96
       34
 40
0.0
 40
0.0
 40
0.0
 40
0.0
 40
1.0
 40
1.0
 40
1.0
 40
2.0
 40
2.0
 40
2.0
 40
3.0
 40
3.0
 40
3.0
 40
4.0
 40
4.0
 40
4.0
 40
5.0
 40
5.0
 40
5.0
 40
6.0
 40
6.0
 40
6.0
 40
7.0
 40
7.0
 40
7.0
 40
8.0
 40
8.0
 40
8.0
 40
9.0
 40
9.0
 40
9.0
 40
10.0
 40
10.0
 40
10.0
 40
11.0
 40
11.0
 40
11.0
 40
11.0
 10
822.8292595828261
 20
-684.1016223927945
 10
810.850060124485
 20
-684.8180244326813
 10
800.3802767311299
 20
-684.8055621527546
 10
790.1149749997439
 20
-686.2481546133185
 10
780.9227066061558
 20
-687.5399821357205
 10
771.699246701608
 20
-689.7413173515833
 10
763.0119513229893
 20
-692.9540071692554
 10
759.3940344779348
 20
-694.2919594518335
 10
755.1820703527828
 20
-699.1181802822866
 10
754.8645448298103
 20
-702.681198635606
 10
754.6084473647861
 20
-705.5549478630819
 10
759.3820258059004
 20
-709.4891845890779
 10
762.697266817855
 20
-711.8817035935099
 10
765.5172515733211
 20
-713.9168273288506
 10
769.3664487570004
 20
-714.7442081201352
 10
772.8871741431049
 20
-715.5549009158913
 10
797.5309029592136
 20
-721.2295594933512
 10
822.3870396383154
 20
-721.6289970516082
 10
847.2891100848046
 20
-717.7159366518481
 10
853.9124537529678
 20
-716.6751452853896
 10
860.7605959417542
 20
-715.3035305225549
 10
866.7276167413493
 20
-712.4545148621328
 10
870.8411240802798
 20
-710.4904643209175
 10
876.3582374753369
 20
-705.6218192157066
 10
876.2348561292656
 20
-702.2338457597107
 10
876.1054346360306
 20
-698.6811648914627
 10
870.3167772335855
 20
-694.8911516003736
 10
866.3781954214865
 20
-692.0771592438687
 10
863.7683266154654
 20
-690.2124965787516
 10
860.1282665431554
 20
-689.4590538735356
 10
856.8342137944801
 20
-688.9421796199786
 10
845.0375915118511
 20
-687.0911490656563
 10
833.191836332504
 20
-685.5529885849064
 10
822.8292595828261
 20
-684.1016223927945
 97
        0
 97
        0
 75
     2
 76
     1
 98
        0
  0
SPLINE
  5
8F
330
88
100
AcDbEntity
  8
Layer 1
370
     0
100
AcDbSpline
210
0.0
220
0.0
230
1.0
 70
    11
 71
     3
 72
    44
 73
    40
 74
     0
 42
0.0000000001
 43
0.0000000001
 12
1.0
 22
0.0
 32
0.0
 13
1.0
 23
0.0
 33
0.0
 40
0.0
 40
0.0
 40
0.0
 40
0.0
 40
1.0
 40
1.0
 40
1.0
 40
2.0
 40
2.0
 40
2.0
 40
3.0
 40
3.0
 40
3.0
 40
4.0
 40
4.0
 40
4.0
 40
5.0
 40
5.0
 40
5.0
 40
6.0
 40
6.0
 40
6.0
 40
7.0
 40
7.0
 40
7.0
 40
8.0
 40
8.0
 40
8.0
 40
9.0
 40
9.0
 40
9.0
 40
10.0
 40
10.0
 40
10.0
 40
11.0
 40
11.0
 40
11.0
 40
12.0
 40
12.0
 40
12.0
 40
13.0
 40
13.0
 40
13.0
 40
13.0
 10
733.6400645400081
 20
-718.0816401075481
 30
0.0
 10
767.766955714711
 20
-746.948601623757
 30
0.0
 10
867.515987254099
 20
-745.1725834899735
 30
0.0
 10
896.8114888558157
 20
-719.6797723261698
 30
0.0
 10
895.6351164784592
 20
-722.2590106625648
 30
0.0
 10
894.8816976473408
 20
-725.1576605757891
 30
0.0
 10
893.2141156733578
 20
-727.3660147768969
 30
0.0
 10
881.7985001441903
 20
-742.4834287996164
 30
0.0
 10
870.3976149343962
 20
-757.6229502384376
 30
0.0
 10
858.4943947976244
 20
-772.3532696123148
 30
0.0
 10
855.6633802082051
 20
-775.8566743392566
 30
0.0
 10
853.9840521772803
 20
-778.5399798752442
 30
0.0
 10
854.8068968896641
 20
-783.2440369387077
 30
0.0
 10
856.9592902016102
 20
-795.548795554485
 30
0.0
 10
858.2352891960636
 20
-808.0065632737751
 30
0.0
 10
860.3721882174541
 20
-820.3145210188904
 30
0.0
 10
861.1815440636328
 20
-824.9762731780847
 30
0.0
 10
859.5016908025245
 20
-827.6554962430655
 30
0.0
 10
855.5568778504621
 20
-828.560420109432
 30
0.0
 10
844.726631366233
 20
-831.0447827745302
 30
0.0
 10
833.7749612120951
 20
-834.8991128895996
 30
0.0
 10
822.8969426548265
 20
-834.8170337356169
 30
0.0
 10
807.7410077726181
 20
-834.702700673246
 30
0.0
 10
792.5582145285025
 20
-831.8235558992874
 30
0.0
 10
777.4921895049029
 20
-829.4574177747727
 30
0.0
 10
772.0358953782525
 20
-828.6005047224444
 30
0.0
 10
769.8303463838292
 20
-824.8495494580875
 30
0.0
 10
771.109389325964
 20
-818.4794383630142
 30
0.0
 10
773.463339722699
 20
-806.7558708247689
 30
0.0
 10
774.9891931051698
 20
-794.830901383375
 30
0.0
 10
776.1175069202891
 20
-782.9195163045897
 30
0.0
 10
776.4242532873486
 20
-779.6811618299816
 30
0.0
 10
774.844444440072
 20
-775.6137076289324
 30
0.0
 10
772.8169126683624
 20
-772.9128785039302
 30
0.0
 10
761.7532729877003
 20
-758.1753491520012
 30
0.0
 10
750.1871909466208
 20
-743.8158900393119
 30
0.0
 10
739.0292605100967
 20
-729.1474284571577
 30
0.0
 10
736.9317656898838
 20
-726.3899938423056
 30
0.0
 10
735.9004642779673
 20
-722.8215083202103
 30
0.0
 10
733.6400645400081
 20
-718.0816401075481
 30
0.0
  0
HATCH
  5
90
330
88
100
AcDbEntity
  8
Layer 1
 62
    18
420
   263172
100
AcDbHatch
 10
0.0
 20
0.0
 30
0.0
210
0.0
220
0.0
230
1.0
  2
SOLID
 70
     1
 71
     0
 91
        1
 92
        1
 93
        1
 72
     4
 94
        3
 73
     0
 74
     1
 95
       44
 96
       40
 40
0.0
 40
0.0
 40
0.0
 40
0.0
 40
1.0
 40
1.0
 40
1.0
 40
2.0
 40
2.0
 40
2.0
 40
3.0
 40
3.0
 40
3.0
 40
4.0
 40
4.0
 40
4.0
 40
5.0
 40
5.0
 40
5.0
 40
6.0
 40
6.0
 40
6.0
 40
7.0
 40
7.0
 40
7.0
 40
8.0
 40
8.0
 40
8.0
 40
9.0
 40
9.0
 40
9.0
 40
10.0
 40
10.0
 40
10.0
 40
11.0
 40
11.0
 40
11.0
 40
12.0
 40
12.0
 40
12.0
 40
13.0
 40
13.0
 40
13.0
 40
13.0
 10
733.6400645400081
 20
-718.0816401075481
 10
767.766955714711
 20
-746.948601623757
 10
867.515987254099
 20
-745.1725834899735
 10
896.8114888558157
 20
-719.6797723261698
 10
895.6351164784592
 20
-722.2590106625648
 10
894.8816976473408
 20
-725.1576605757891
 10
893.2141156733578
 20
-727.3660147768969
 10
881.7985001441903
 20
-742.4834287996164
 10
870.3976149343962
 20
-757.6229502384376
 10
858.4943947976244
 20
-772.3532696123148
 10
855.6633802082051
 20
-775.8566743392566
 10
853.9840521772803
 20
-778.5399798752442
 10
854.8068968896641
 20
-783.2440369387077
 10
856.9592902016102
 20
-795.548795554485
 10
858.2352891960636
 20
-808.0065632737751
 10
860.3721882174541
 20
-820.3145210188904
 10
861.1815440636328
 20
-824.9762731780847
 10
859.5016908025245
 20
-827.6554962430655
 10
855.5568778504621
 20
-828.560420109432
 10
844.726631366233
 20
-831.0447827745302
 10
833.7749612120951
 20
-834.8991128895996
 10
822.8969426548265
 20
-834.8170337356169
 10
807.7410077726181
 20
-834.702700673246
 10
792.5582145285025
 20
-831.8235558992874
 10
777.4921895049029
 20
-829.4574177747727
 10
772.0358953782525
 20
-828.6005047224444
 10
769.8303463838292
 20
-824.8495494580875
 10
771.109389325964
 20
-818.4794383630142
 10
773.463339722699
 20
-806.7558708247689
 10
774.9891931051698
 20
-794.830901383375
 10
776.1175069202891
 20
-782.9195163045897
 10
776.4242532873486
 20
-779.6811618299816
 10
774.844444440072
 20
-775.6137076289324
 10
772.8169126683624
 20
-772.9128785039302
 10
761.7532729877003
 20
-758.1753491520012
 10
750.1871909466208
 20
-743.8158900393119
 10
739.0292605100967
 20
-729.1474284571577
 10
736.9317656898838
 20
-726.3899938423056
 10
735.9004642779673
 20
-722.8215083202103
 10
733.6400645400081
 20
-718.0816401075481
 97
        0
 97
        0
 75
     2
 76
     1
 98
        0
  0
SPLINE
  5
91
330
88
100
AcDbEntity
  8
Layer 1
370
     0
100
AcDbSpline
210
0.0
220
0.0
230
1.0
 70
    11
 71
     3
 72
    44
 73
    40
 74
     0
 42
0.0000000001
 43
0.0000000001
 12
1.0
 22
0.0
 32
0.0
 13
1.0
 23
0.0
 33
0.0
 40
0.0
 40
0.0
 40
0.0
 40
0.0
 40
1.0
 40
1.0
 40
1.0
 40
2.0
 40
2.0
 40
2.0
 40
3.0
 40
3.0
 40
3.0
 40
4.0
 40
4.0
 40
4.0
 40
5.0
 40
5.0
 40
5.0
 40
6.0
 40
6.0
 40
6.0
 40
7.0
 40
7.0
 40
7.0
 40
8.0
 40
8.0
 40
8.0
 40
9.0
 40
9.0
 40
9.0
 40
10.0
 40
10.0
 40
10.0
 40
11.0
 40
11.0
 40
11.0
 40
12.0
 40
12.0
 40
12.0
 40
13.0
 40
13.0
 40
13.0
 40
13.0
 10
800.8612562761282
 20
-549.5249232369242
 30
0.0
 10
804.3788302811063
 20
-537.0736074930119
 30
0.0
 10
814.1366522170738
 20
-544.0417468742653
 30
0.0
 10
820.9772740645294
 20
-542.6069910868537
 30
0.0
 10
825.4989330080207
 20
-541.6586223279792
 30
0.0
 10
830.6154390139473
 20
-541.7581534486708
 30
0.0
 10
829.16277168341
 20
-549.5163584037346
 30
0.0
 10
849.0263089328455
 20
-549.5163584037346
 30
0.0
 10
868.0181550623802
 20
-549.5137322527899
 30
0.0
 10
887.0100250660162
 20
-549.51972465176
 30
0.0
 10
889.3549152419964
 20
-549.5204647488445
 30
0.0
 10
892.1879352557771
 20
-548.7497252585563
 30
0.0
 10
893.9276170101621
 20
-549.7885947600043
 30
0.0
 10
896.3936443668626
 20
-551.2611969636037
 30
0.0
 10
899.8155429182061
 20
-554.2516965060258
 30
0.0
 10
899.6208973852135
 20
-556.2866113429955
 30
0.0
 10
899.366876966842
 20
-558.941661882267
 30
0.0
 10
896.3043074866418
 20
-562.9606516613894
 30
0.0
 10
893.8663799450169
 20
-563.4432009284301
 30
0.0
 10
888.3455660645432
 20
-564.535936366814
 30
0.0
 10
882.467070425786
 20
-563.8387589455215
 30
0.0
 10
876.7340396751151
 20
-563.8394035462097
 30
0.0
 10
832.6902415026107
 20
-563.8443454848002
 30
0.0
 10
788.6464313930628
 20
-563.8423937771677
 30
0.0
 10
744.6026332205529
 20
-563.8411582925219
 30
0.0
 10
742.5177797360102
 20
-563.8410986072686
 30
0.0
 10
740.4326636363712
 20
-563.8457540566669
 30
0.0
 10
738.348108578075
 20
-563.8165679700614
 30
0.0
 10
733.6064259338546
 20
-563.750192005009
 30
0.0
 10
731.1316129085444
 20
-561.4645871865323
 30
0.0
 10
731.147202695498
 20
-556.5902242345037
 30
0.0
 10
731.1630073493488
 20
-551.6478857527472
 30
0.0
 10
733.7802174409535
 20
-549.5447387394834
 30
0.0
 10
738.4894551839952
 20
-549.5439389571493
 30
0.0
 10
754.6474815174206
 20
-549.5411874671845
 30
0.0
 10
770.8055078508423
 20
-549.5313453696763
 30
0.0
 10
786.9635341842713
 20
-549.5251918205377
 30
0.0
 10
791.6380709237255
 20
-549.5234132001315
 30
0.0
 10
796.3126076631834
 20
-549.5249232369242
 30
0.0
 10
800.8612562761282
 20
-549.5249232369242
 30
0.0
  0
HATCH
  5
92
330
88
100
AcDbEntity
  8
Layer 1
 62
    18
420
   263172
100
AcDbHatch
 10
0.0
 20
0.0
 30
0.0
210
0.0
220
0.0
230
1.0
  2
SOLID
 70
     1
 71
     0
 91
        1
 92
        1
 93
        1
 72
     4
 94
        3
 73
     0
 74
     1
 95
       44
 96
       40
 40
0.0
 40
0.0
 40
0.0
 40
0.0
 40
1.0
 40
1.0
 40
1.0
 40
2.0
 40
2.0
 40
2.0
 40
3.0
 40
3.0
 40
3.0
 40
4.0
 40
4.0
 40
4.0
 40
5.0
 40
5.0
 40
5.0
 40
6.0
 40
6.0
 40
6.0
 40
7.0
 40
7.0
 40
7.0
 40
8.0
 40
8.0
 40
8.0
 40
9.0
 40
9.0
 40
9.0
 40
10.0
 40
10.0
 40
10.0
 40
11.0
 40
11.0
 40
11.0
 40
12.0
 40
12.0
 40
12.0
 40
13.0
 40
13.0
 40
13.0
 40
13.0
 10
800.8612562761282
 20
-549.5249232369242
 10
804.3788302811063
 20
-537.0736074930119
 10
814.1366522170738
 20
-544.0417468742653
 10
820.9772740645294
 20
-542.6069910868537
 10
825.4989330080207
 20
-541.6586223279792
 10
830.6154390139473
 20
-541.7581534486708
 10
829.16277168341
 20
-549.5163584037346
 10
849.0263089328455
 20
-549.5163584037346
 10
868.0181550623802
 20
-549.5137322527899
 10
887.0100250660162
 20
-549.51972465176
 10
889.3549152419964
 20
-549.5204647488445
 10
892.1879352557771
 20
-548.7497252585563
 10
893.9276170101621
 20
-549.7885947600043
 10
896.3936443668626
 20
-551.2611969636037
 10
899.8155429182061
 20
-554.2516965060258
 10
899.6208973852135
 20
-556.2866113429955
 10
899.366876966842
 20
-558.941661882267
 10
896.3043074866418
 20
-562.9606516613894
 10
893.8663799450169
 20
-563.4432009284301
 10
888.3455660645432
 20
-564.535936366814
 10
882.467070425786
 20
-563.8387589455215
 10
876.7340396751151
 20
-563.8394035462097
 10
832.6902415026107
 20
-563.8443454848002
 10
788.6464313930628
 20
-563.8423937771677
 10
744.6026332205529
 20
-563.8411582925219
 10
742.5177797360102
 20
-563.8410986072686
 10
740.4326636363712
 20
-563.8457540566669
 10
738.348108578075
 20
-563.8165679700614
 10
733.6064259338546
 20
-563.750192005009
 10
731.1316129085444
 20
-561.4645871865323
 10
731.147202695498
 20
-556.5902242345037
 10
731.1630073493488
 20
-551.6478857527472
 10
733.7802174409535
 20
-549.5447387394834
 10
738.4894551839952
 20
-549.5439389571493
 10
754.6474815174206
 20
-549.5411874671845
 10
770.8055078508423
 20
-549.5313453696763
 10
786.9635341842713
 20
-549.5251918205377
 10
791.6380709237255
 20
-549.5234132001315
 10
796.3126076631834
 20
-549.5249232369242
 10
800.8612562761282
 20
-549.5249232369242
 97
        0
 97
        0
 75
     2
 76
     1
 98
        0
  0
SPLINE
  5
93
330
88
100
AcDbEntity
  8
Layer 1
370
     0
100
AcDbSpline
210
0.0
220
0.0
230
1.0
 70
    11
 71
     3
 72
    17
 73
    13
 74
     0
 42
0.0000000001
 43
0.0000000001
 12
1.0
 22
0.0
 32
0.0
 13
1.0
 23
0.0
 33
0.0
 40
0.0
 40
0.0
 40
0.0
 40
0.0
 40
1.0
 40
1.0
 40
1.0
 40
2.0
 40
2.0
 40
2.0
 40
3.0
 40
3.0
 40
3.0
 40
4.0
 40
4.0
 40
4.0
 40
4.0
 10
760.6945402354922
 20
-702.2785858221177
 30
0.0
 10
775.8063199707303
 20
-686.9631122701903
 30
0.0
 10
854.1272251518149
 20
-686.8062594366638
 30
0.0
 10
870.9225825076774
 20
-702.4870783328042
 30
0.0
 10
866.9336979679865
 20
-707.1037561921894
 30
0.0
 10
862.2483343244148
 20
-709.2680626797774
 30
0.0
 10
856.0722002875536
 20
-708.024580208803
 30
0.0
 10
829.186526412379
 20
-702.6116295097436
 30
0.0
 10
802.2922459243491
 20
-702.670670157735
 30
0.0
 10
775.3898004942985
 20
-707.9497110328648
 30
0.0
 10
769.2629425987434
 20
-709.151986808145
 30
0.0
 10
765.3139874904209
 20
-707.5698741102751
 30
0.0
 10
760.6945402354922
 20
-702.2785858221177
 30
0.0
  0
HATCH
  5
94
330
88
100
AcDbEntity
  8
Layer 1
 62
    18
420
   263172
100
AcDbHatch
 10
0.0
 20
0.0
 30
0.0
210
0.0
220
0.0
230
1.0
  2
SOLID
 70
     1
 71
     0
 91
        1
 92
        1
 93
        1
 72
     4
 94
        3
 73
     0
 74
     1
 95
       17
 96
       13
 40
0.0
 40
0.0
 40
0.0
 40
0.0
 40
1.0
 40
1.0
 40
1.0
 40
2.0
 40
2.0
 40
2.0
 40
3.0
 40
3.0
 40
3.0
 40
4.0
 40
4.0
 40
4.0
 40
4.0
 10
760.6945402354922
 20
-702.2785858221177
 10
775.8063199707303
 20
-686.9631122701903
 10
854.1272251518149
 20
-686.8062594366638
 10
870.9225825076774
 20
-702.4870783328042
 10
866.9336979679865
 20
-707.1037561921894
 10
862.2483343244148
 20
-709.2680626797774
 10
856.0722002875536
 20
-708.024580208803
 10
829.186526412379
 20
-702.6116295097436
 10
802.2922459243491
 20
-702.670670157735
 10
775.3898004942985
 20
-707.9497110328648
 10
769.2629425987434
 20
-709.151986808145
 10
765.3139874904209
 20
-707.5698741102751
 10
760.6945402354922
 20
-702.2785858221177
 97
        0
 97
        0
 75
     2
 76
     1
 98
        0
  0
ENDBLK
  5
8B
330
88
100
AcDbEntity
  8
0
100
AcDbBlockEnd
  0
ENDSEC
  0
SECTION
  2
ENTITIES
  0
INSERT
  5
42
330
1F
100
AcDbEntity
  8
Layer 1
100
AcDbBlockReference
  2
block 2
 10
0.0
 20
0.0
 30
0.0
  0
ENDSEC
  0
SECTION
  2
OBJECTS
  0
DICTIONARY
  5
C
330
0
100
AcDbDictionary
281
     1
  3
ACAD_GROUP
350
D
  3
ACAD_LAYOUT
350
1A
  3
ACAD_MATERIAL
350
3B
  3
ACAD_MLEADERSTYLE
350
96
  3
ACAD_MLINESTYLE
350
17
  3
ACAD_PLOTSETTINGS
350
19
  3
ACAD_PLOTSTYLENAME
350
E
  3
ACAD_TABLESTYLE
350
95
  3
ACAD_VISUALSTYLE
350
2A
  0
SUN
  5
3F
330
29
100
AcDbSun
 90
        1
290
     0
 63
     7
421
 16777215
 40
1.0
291
     1
 91
  2455826
 92
 54000000
292
     0
 70
     2
 71
   256
280
     1
  0
DICTIONARY
  5
D
102
{ACAD_REACTORS
330
C
102
}
330
C
100
AcDbDictionary
281
     1
  0
DICTIONARY
  5
1A
102
{ACAD_REACTORS
330
C
102
}
330
C
100
AcDbDictionary
281
     1
  3
Layout1
350
1E
  3
Layout2
350
26
  3
Model
350
22
  0
DICTIONARY
  5
3B
102
{ACAD_REACTORS
330
C
102
}
330
C
100
AcDbDictionary
281
     1
  3
ByBlock
350
3D
  3
ByLayer
350
3C
  3
Global
350
3E
  0
DICTIONARY
  5
96
102
{ACAD_REACTORS
330
C
102
}
330
C
100
AcDbDictionary
281
     1
  0
DICTIONARY
  5
17
102
{ACAD_REACTORS
330
C
102
}
330
C
100
AcDbDictionary
281
     1
  3
Standard
350
18
  0
DICTIONARY
  5
19
102
{ACAD_REACTORS
330
C
102
}
330
C
100
AcDbDictionary
281
     1
  0
ACDBDICTIONARYWDFLT
  5
E
102
{ACAD_REACTORS
330
C
102
}
330
C
100
AcDbDictionary
281
     1
  3
Normal
350
F
100
AcDbDictionaryWithDefault
340
F
  0
DICTIONARY
  5
95
102
{ACAD_REACTORS
330
C
102
}
330
C
100
AcDbDictionary
281
     1
  0
DICTIONARY
  5
2A
102
{ACAD_REACTORS
330
C
102
}
330
C
100
AcDbDictionary
281
     1
  3
2dWireframe
350
2F
  3
3D Hidden
350
31
  3
3dWireframe
350
30
  3
Basic
350
32
  3
Brighten
350
36
  3
ColorChange
350
3A
  3
Conceptual
350
34
  3
Dim
350
35
  3
Facepattern
350
39
  3
Flat
350
2B
  3
FlatWithEdges
350
2C
  3
Gouraud
350
2D
  3
GouraudWithEdges
350
2E
  3
Linepattern
350
38
  3
Realistic
350
33
  3
Thicken
350
37
  0
LAYOUT
  5
1E
102
{ACAD_REACTORS
330
1A
102
}
330
1A
100
AcDbPlotSettings
  1

  2
none_device
  4

  6

 40
0.0
 41
0.0
 42
0.0
 43
0.0
 44
0.0
 45
0.0
 46
0.0
 47
0.0
 48
0.0
 49
0.0
140
0.0
141
0.0
142
1.0
143
1.0
 70
   688
 72
     0
 73
     0
 74
     5
  7

 75
    16
 76
     0
 77
     2
 78
   300
147
1.0
148
0.0
149
0.0
100
AcDbLayout
  1
Layout1
 70
     1
 71
     1
 10
0.0
 20
0.0
 11
12.0
 21
9.0
 12
0.0
 22
0.0
 32
0.0
 14
1.000000000000000E+20
 24
1.000000000000000E+20
 34
1.000000000000000E+20
 15
-1.000000000000000E+20
 25
-1.000000000000000E+20
 35
-1.000000000000000E+20
146
0.0
 13
0.0
 23
0.0
 33
0.0
 16
1.0
 26
0.0
 36
0.0
 17
0.0
 27
1.0
 37
0.0
 76
     0
330
1B
  0
LAYOUT
  5
26
102
{ACAD_REACTORS
330
1A
102
}
330
1A
100
AcDbPlotSettings
  1

  2
none_device
  4

  6

 40
0.0
 41
0.0
 42
0.0
 43
0.0
 44
0.0
 45
0.0
 46
0.0
 47
0.0
 48
0.0
 49
0.0
140
0.0
141
0.0
142
1.0
143
1.0
 70
   688
 72
     0
 73
     0
 74
     5
  7

 75
    16
 76
     0
 77
     2
 78
   300
147
1.0
148
0.0
149
0.0
100
AcDbLayout
  1
Layout2
 70
     1
 71
     2
 10
0.0
 20
0.0
 11
0.0
 21
0.0
 12
0.0
 22
0.0
 32
0.0
 14
0.0
 24
0.0
 34
0.0
 15
0.0
 25
0.0
 35
0.0
146
0.0
 13
0.0
 23
0.0
 33
0.0
 16
1.0
 26
0.0
 36
0.0
 17
0.0
 27
1.0
 37
0.0
 76
     0
330
23
  0
LAYOUT
  5
22
102
{ACAD_REACTORS
330
1A
102
}
330
1A
100
AcDbPlotSettings
  1

  2
none_device
  4

  6

 40
0.0
 41
0.0
 42
0.0
 43
0.0
 44
0.0
 45
0.0
 46
0.0
 47
0.0
 48
0.0
 49
0.0
140
0.0
141
0.0
142
1.0
143
1.0
 70
  1712
 72
     0
 73
     0
 74
     0
  7

 75
     0
 76
     0
 77
     2
 78
   300
147
1.0
148
0.0
149
0.0
100
AcDbLayout
  1
Model
 70
     1
 71
     0
 10
0.0
 20
0.0
 11
12.0
 21
9.0
 12
0.0
 22
0.0
 32
0.0
 14
1.000000000000000E+20
 24
1.000000000000000E+20
 34
1.000000000000000E+20
 15
-1.000000000000000E+20
 25
-1.000000000000000E+20
 35
-1.000000000000000E+20
146
0.0
 13
0.0
 23
0.0
 33
0.0
 16
1.0
 26
0.0
 36
0.0
 17
0.0
 27
1.0
 37
0.0
 76
     0
330
1F
331
29
  0
MATERIAL
  5
3D
102
{ACAD_REACTORS
330
3B
102
}
330
3B
100
AcDbMaterial
  1
ByBlock
 72
     1
 94
      127
  0
MATERIAL
  5
3C
102
{ACAD_REACTORS
330
3B
102
}
330
3B
100
AcDbMaterial
  1
ByLayer
 72
     1
 94
      127
  0
MATERIAL
  5
3E
102
{ACAD_REACTORS
330
3B
102
}
330
3B
100
AcDbMaterial
  1
Global
 72
     1
 94
      127
  0
MLINESTYLE
  5
18
102
{ACAD_REACTORS
330
17
102
}
330
17
100
AcDbMlineStyle
  2
Standard
 70
     0
  3

 62
   256
 51
90.0
 52
90.0
 71
     2
 49
0.5
 62
   256
  6
BYLAYER
 49
-0.5
 62
   256
  6
BYLAYER
  0
ACDBPLACEHOLDER
  5
F
102
{ACAD_REACTORS
330
E
102
}
330
E
  0
VISUALSTYLE
  5
2F
102
{ACAD_REACTORS
330
2A
102
}
330
2A
100
AcDbVisualStyle
  2
2dWireframe
 70
     4
177
     2
291
     0
 71
     0
176
     1
 72
     2
176
     1
 73
     0
176
     1
 90
        0
176
     1
 40
-0.6
176
     1
 41
-30.0
176
     1
 62
     5
 63
     7
421
 16777215
176
     1
 74
     1
176
     1
 91
        4
176
     1
 64
     7
176
     1
 65
   257
176
     1
 75
     1
176
     1
175
     1
176
     1
 42
1.0
176
     1
 92
        0
176
     1
 66
   257
176
     1
 43
1.0
176
     1
 76
     1
176
     1
 77
     6
176
     1
 78
     2
176
     1
 67
     7
176
     1
 79
     5
176
     1
170
     0
176
     1
171
     0
176
     1
290
     0
176
     1
 93
        1
176
     1
 44
0.0
176
     1
173
     0
176
     1
  0
VISUALSTYLE
  5
31
102
{ACAD_REACTORS
330
2A
102
}
330
2A
100
AcDbVisualStyle
  2
3D Hidden
 70
     6
177
     2
291
     0
 71
     1
176
     1
 72
     2
176
     1
 73
     2
176
     1
 90
        0
176
     1
 40
-0.6
176
     1
 41
-30.0
176
     1
 62
     5
 63
     7
421
 16777215
176
     1
 74
     2
176
     1
 91
        2
176
     1
 64
     7
176
     1
 65
   257
176
     1
 75
     2
176
     1
175
     1
176
     1
 42
40.0
176
     1
 92
        0
176
     1
 66
   257
176
     1
 43
1.0
176
     1
 76
     1
176
     1
 77
     6
176
     1
 78
     2
176
     1
 67
     7
176
     1
 79
     3
176
     1
170
     0
176
     1
171
     0
176
     1
290
     0
176
     1
 93
        1
176
     1
 44
0.0
176
     1
173
     0
176
     1
  0
VISUALSTYLE
  5
30
102
{ACAD_REACTORS
330
2A
102
}
330
2A
100
AcDbVisualStyle
  2
3dWireframe
 70
     5
177
     2
291
     0
 71
     0
176
     1
 72
     2
176
     1
 73
     0
176
     1
 90
        0
176
     1
 40
-0.6
176
     1
 41
-30.0
176
     1
 62
     5
 63
     7
421
 16777215
176
     1
 74
     1
176
     1
 91
        4
176
     1
 64
     7
176
     1
 65
   257
176
     1
 75
     1
176
     1
175
     1
176
     1
 42
1.0
176
     1
 92
        0
176
     1
 66
   257
176
     1
 43
1.0
176
     1
 76
     1
176
     1
 77
     6
176
     1
 78
     2
176
     1
 67
     7
176
     1
 79
     5
176
     1
170
     0
176
     1
171
     0
176
     1
290
     0
176
     1
 93
        1
176
     1
 44
0.0
176
     1
173
     0
176
     1
  0
VISUALSTYLE
  5
32
102
{ACAD_REACTORS
330
2A
102
}
330
2A
100
AcDbVisualStyle
  2
Basic
 70
     7
177
     2
291
     1
 71
     1
176
     1
 72
     0
176
     1
 73
     1
176
     1
 90
        0
176
     1
 40
-0.6
176
     1
 41
-30.0
176
     1
 62
     5
 63
     7
421
 16777215
176
     1
 74
     0
176
     1
 91
        4
176
     1
 64
     7
176
     1
 65
   257
176
     1
 75
     1
176
     1
175
     1
176
     1
 42
1.0
176
     1
 92
        8
176
     1
 66
     7
176
     1
 43
1.0
176
     1
 76
     1
176
     1
 77
     6
176
     1
 78
     2
176
     1
 67
     7
176
     1
 79
     5
176
     1
170
     0
176
     1
171
     0
176
     1
290
     0
176
     1
 93
        1
176
     1
 44
0.0
176
     1
173
     0
176
     1
  0
VISUALSTYLE
  5
36
102
{ACAD_REACTORS
330
2A
102
}
330
2A
100
AcDbVisualStyle
  2
Brighten
 70
    12
177
     2
291
     1
 71
     2
176
     1
 72
     2
176
     1
 73
     0
176
     1
 90
        0
176
     1
 40
-0.6
176
     1
 41
-30.0
176
     1
 62
     5
 63
     7
421
 16777215
176
     1
 74
     1
176
     1
 91
        4
176
     1
 64
     7
176
     1
 65
   257
176
     1
 75
     1
176
     1
175
     1
176
     1
 42
1.0
176
     1
 92
        8
176
     1
 66
     7
176
     1
 43
1.0
176
     1
 76
     1
176
     1
 77
     6
176
     1
 78
     2
176
     1
 67
     7
176
     1
 79
     5
176
     1
170
     0
176
     1
171
     0
176
     1
290
     0
176
     1
 93
        1
176
     1
 44
50.0
176
     1
173
     0
176
     1
  0
VISUALSTYLE
  5
3A
102
{ACAD_REACTORS
330
2A
102
}
330
2A
100
AcDbVisualStyle
  2
ColorChange
 70
    16
177
     2
291
     1
 71
     2
176
     1
 72
     2
176
     1
 73
     3
176
     1
 90
        0
176
     1
 40
-0.6
176
     1
 41
-30.0
176
     1
 62
     5
 63
     8
421
  8421504
176
     1
 74
     1
176
     1
 91
        4
176
     1
 64
     7
176
     1
 65
   257
176
     1
 75
     1
176
     1
175
     1
176
     1
 42
1.0
176
     1
 92
        8
176
     1
 66
     8
424
  8421504
176
     1
 43
1.0
176
     1
 76
     1
176
     1
 77
     6
176
     1
 78
     2
176
     1
 67
     7
176
     1
 79
     5
176
     1
170
     0
176
     1
171
     0
176
     1
290
     0
176
     1
 93
        1
176
     1
 44
0.0
176
     1
173
     0
176
     1
  0
VISUALSTYLE
  5
34
102
{ACAD_REACTORS
330
2A
102
}
330
2A
100
AcDbVisualStyle
  2
Conceptual
 70
     9
177
     2
291
     0
 71
     3
176
     1
 72
     2
176
     1
 73
     0
176
     1
 90
        0
176
     1
 40
-0.6
176
     1
 41
-30.0
176
     1
 62
     5
 63
     7
421
 16777215
176
     1
 74
     2
176
     1
 91
        2
176
     1
 64
     7
176
     1
 65
   257
176
     1
 75
     1
176
     1
175
     1
176
     1
 42
40.0
176
     1
 92
        8
176
     1
 66
     7
176
     1
 43
1.0
176
     1
 76
     1
176
     1
 77
     6
176
     1
 78
     2
176
     1
 67
     7
176
     1
 79
     3
176
     1
170
     0
176
     1
171
     0
176
     1
290
     0
176
     1
 93
        1
176
     1
 44
0.0
176
     1
173
     0
176
     1
  0
VISUALSTYLE
  5
35
102
{ACAD_REACTORS
330
2A
102
}
330
2A
100
AcDbVisualStyle
  2
Dim
 70
    11
177
     2
291
     1
 71
     2
176
     1
 72
     2
176
     1
 73
     0
176
     1
 90
        0
176
     1
 40
-0.6
176
     1
 41
-30.0
176
     1
 62
     5
 63
     7
421
 16777215
176
     1
 74
     1
176
     1
 91
        4
176
     1
 64
     7
176
     1
 65
   257
176
     1
 75
     1
176
     1
175
     1
176
     1
 42
1.0
176
     1
 92
        8
176
     1
 66
     7
176
     1
 43
1.0
176
     1
 76
     1
176
     1
 77
     6
176
     1
 78
     2
176
     1
 67
     7
176
     1
 79
     5
176
     1
170
     0
176
     1
171
     0
176
     1
290
     0
176
     1
 93
        1
176
     1
 44
-50.0
176
     1
173
     0
176
     1
  0
VISUALSTYLE
  5
39
102
{ACAD_REACTORS
330
2A
102
}
330
2A
100
AcDbVisualStyle
  2
Facepattern
 70
    15
177
     2
291
     1
 71
     2
176
     1
 72
     2
176
     1
 73
     0
176
     1
 90
        0
176
     1
 40
-0.6
176
     1
 41
-30.0
176
     1
 62
     5
 63
     7
421
 16777215
176
     1
 74
     1
176
     1
 91
        4
176
     1
 64
     7
176
     1
 65
   257
176
     1
 75
     1
176
     1
175
     1
176
     1
 42
1.0
176
     1
 92
        8
176
     1
 66
     7
176
     1
 43
1.0
176
     1
 76
     1
176
     1
 77
     6
176
     1
 78
     2
176
     1
 67
     7
176
     1
 79
     5
176
     1
170
     0
176
     1
171
     0
176
     1
290
     0
176
     1
 93
        1
176
     1
 44
0.0
176
     1
173
     0
176
     1
  0
VISUALSTYLE
  5
2B
102
{ACAD_REACTORS
330
2A
102
}
330
2A
100
AcDbVisualStyle
  2
Flat
 70
     0
177
     2
291
     1
 71
     2
176
     1
 72
     1
176
     1
 73
     1
176
     1
 90
        2
176
     1
 40
-0.6
176
     1
 41
30.0
176
     1
 62
     5
 63
     7
421
 16777215
176
     1
 74
     0
176
     1
 91
        4
176
     1
 64
     7
176
     1
 65
   257
176
     1
 75
     1
176
     1
175
     1
176
     1
 42
1.0
176
     1
 92
        8
176
     1
 66
     7
176
     1
 43
1.0
176
     1
 76
     1
176
     1
 77
     6
176
     1
 78
     2
176
     1
 67
     7
176
     1
 79
     5
176
     1
170
     0
176
     1
171
     0
176
     1
290
     0
176
     1
 93
       13
176
     1
 44
0.0
176
     1
173
     0
176
     1
  0
VISUALSTYLE
  5
2C
102
{ACAD_REACTORS
330
2A
102
}
330
2A
100
AcDbVisualStyle
  2
FlatWithEdges
 70
     1
177
     2
291
     1
 71
     2
176
     1
 72
     1
176
     1
 73
     1
176
     1
 90
        2
176
     1
 40
-0.6
176
     1
 41
30.0
176
     1
 62
     5
 63
     7
421
 16777215
176
     1
 74
     1
176
     1
 91
        4
176
     1
 64
     7
176
     1
 65
   257
176
     1
 75
     1
176
     1
175
     1
176
     1
 42
1.0
176
     1
 92
        0
176
     1
 66
   257
176
     1
 43
1.0
176
     1
 76
     1
176
     1
 77
     6
176
     1
 78
     2
176
     1
 67
     7
176
     1
 79
     5
176
     1
170
     0
176
     1
171
     0
176
     1
290
     0
176
     1
 93
       13
176
     1
 44
0.0
176
     1
173
     0
176
     1
  0
VISUALSTYLE
  5
2D
102
{ACAD_REACTORS
330
2A
102
}
330
2A
100
AcDbVisualStyle
  2
Gouraud
 70
     2
177
     2
291
     1
 71
     2
176
     1
 72
     2
176
     1
 73
     1
176
     1
 90
        2
176
     1
 40
-0.6
176
     1
 41
30.0
176
     1
 62
     5
 63
     7
421
 16777215
176
     1
 74
     0
176
     1
 91
        4
176
     1
 64
     7
176
     1
 65
   257
176
     1
 75
     1
176
     1
175
     1
176
     1
 42
1.0
176
     1
 92
        0
176
     1
 66
     7
176
     1
 43
1.0
176
     1
 76
     1
176
     1
 77
     6
176
     1
 78
     2
176
     1
 67
     7
176
     1
 79
     5
176
     1
170
     0
176
     1
171
     0
176
     1
290
     0
176
     1
 93
       13
176
     1
 44
0.0
176
     1
173
     0
176
     1
  0
VISUALSTYLE
  5
2E
102
{ACAD_REACTORS
330
2A
102
}
330
2A
100
AcDbVisualStyle
  2
GouraudWithEdges
 70
     3
177
     2
291
     1
 71
     2
176
     1
 72
     2
176
     1
 73
     1
176
     1
 90
        2
176
     1
 40
-0.6
176
     1
 41
30.0
176
     1
 62
     5
 63
     7
421
 16777215
176
     1
 74
     1
176
     1
 91
        4
176
     1
 64
     7
176
     1
 65
   257
176
     1
 75
     1
176
     1
175
     1
176
     1
 42
1.0
176
     1
 92
        0
176
     1
 66
   257
176
     1
 43
1.0
176
     1
 76
     1
176
     1
 77
     6
176
     1
 78
     2
176
     1
 67
     7
176
     1
 79
     5
176
     1
170
     0
176
     1
171
     0
176
     1
290
     0
176
     1
 93
       13
176
     1
 44
0.0
176
     1
173
     0
176
     1
  0
VISUALSTYLE
  5
38
102
{ACAD_REACTORS
330
2A
102
}
330
2A
100
AcDbVisualStyle
  2
Linepattern
 70
    14
177
     2
291
     1
 71
     2
176
     1
 72
     2
176
     1
 73
     0
176
     1
 90
        0
176
     1
 40
-0.6
176
     1
 41
-30.0
176
     1
 62
     5
 63
     7
421
 16777215
176
     1
 74
     1
176
     1
 91
        4
176
     1
 64
     7
176
     1
 65
   257
176
     1
 75
     7
176
     1
175
     7
176
     1
 42
1.0
176
     1
 92
        8
176
     1
 66
     7
176
     1
 43
1.0
176
     1
 76
     1
176
     1
 77
     6
176
     1
 78
     2
176
     1
 67
     7
176
     1
 79
     5
176
     1
170
     0
176
     1
171
     0
176
     1
290
     0
176
     1
 93
        1
176
     1
 44
0.0
176
     1
173
     0
176
     1
  0
VISUALSTYLE
  5
33
102
{ACAD_REACTORS
330
2A
102
}
330
2A
100
AcDbVisualStyle
  2
Realistic
 70
     8
177
     2
291
     0
 71
     2
176
     1
 72
     2
176
     1
 73
     0
176
     1
 90
        0
176
     1
 40
-0.6
176
     1
 41
-30.0
176
     1
 62
     5
 63
     7
421
 16777215
176
     1
 74
     1
176
     1
 91
        0
176
     1
 64
     7
176
     1
 65
   257
176
     1
 75
     1
176
     1
175
     1
176
     1
 42
1.0
176
     1
 92
        8
176
     1
 66
     8
424
  7895160
176
     1
 43
1.0
176
     1
 76
     1
176
     1
 77
     6
176
     1
 78
     2
176
     1
 67
     7
176
     1
 79
     5
176
     1
170
     0
176
     1
171
     0
176
     1
290
     0
176
     1
 93
       13
176
     1
 44
0.0
176
     1
173
     0
176
     1
  0
VISUALSTYLE
  5
37
102
{ACAD_REACTORS
330
2A
102
}
330
2A
100
AcDbVisualStyle
  2
Thicken
 70
    13
177
     2
291
     1
 71
     2
176
     1
 72
     2
176
     1
 73
     0
176
     1
 90
        0
176
     1
 40
-0.6
176
     1
 41
-30.0
176
     1
 62
     5
 63
     7
421
 16777215
176
     1
 74
     1
176
     1
 91
        4
176
     1
 64
     7
176
     1
 65
   257
176
     1
 75
     1
176
     1
175
     1
176
     1
 42
1.0
176
     1
 92
       12
176
     1
 66
     7
176
     1
 43
1.0
176
     1
 76
     1
176
     1
 77
     6
176
     1
 78
     2
176
     1
 67
     7
176
     1
 79
     5
176
     1
170
     0
176
     1
171
     0
176
     1
290
     0
176
     1
 93
        1
176
     1
 44
0.0
176
     1
173
     0
176
     1
  0
ENDSEC
  0
EOF
