<?xml version="1.0" encoding="utf-8"?>
<!-- Generator: Adobe Illustrator 22.0.0, SVG Export Plug-In . SVG Version: 6.00 Build 0)  -->
<svg version="1.1" id="Layer_1" xmlns="http://www.w3.org/2000/svg" xmlns:xlink="http://www.w3.org/1999/xlink" x="0px" y="0px"
	 viewBox="0 0 1080 1080" style="enable-background:new 0 0 1080 1080;" xml:space="preserve">
<style type="text/css">
	.st0{fill:#050505;}
</style>
<g>
	<g>
		<path class="st0" d="M412.3,597.9c6.8-1.4,9.5,2.3,11.4,5.9c1.4,2.3,1.8,4.5,2.3,7.7c-3.6,1.4-7.7,2.7-11.8,4.5
			c-7.3,3.6-16.8,9.1-27.7,18.6c-25,21.3-54.1,55.9-39.5,76.3c26.8-23.2,77.7-61.3,98.6-131.7c19.5-66.3,24.1-120.4-34.5-128.5
			c-64-8.6-131.7,60.4-151.3,134.9c-10.4,36.8-8.6,59.5-4.5,73.6c2.3,8.2,5.9,14.5,10.4,18.6c-6.8,5-13.2,8.2-18.6,9.5
			c-10.4,3.2-20.4,1.4-24.5-16.4c-23.6-101.3,75.9-233.5,180.3-235.3c33.2,1.4,61.8,13.2,74.5,47.7c36.8,98.6-47.2,222.1-114,258.5
			c-5.9,2.3-24.5-6.8-28.2-16.8c-8.6-9.5-10.9-30.9,0-53.1C356.9,627.8,394.1,601.5,412.3,597.9z M328.7,658.3
			c-7.3,45.4-12.3,79.5-5.5,84.9c-5.9,0.5-11.8,0.5-17.3,0c-9.1-1.4-18.6-3.2-20.4-10c-5.9-21.3,10.9-86.3,20.4-124.9
			c3.6-16.8,17.3-76.3,25.9-111.3c0-0.9,0-1.8,0.5-2.3v-0.5c0.9-5,0.9-9.1-0.5-12.3l-1.8-4.5l1.4-1.4h0.9c4.1-0.5,8.2,0,11.8,0.5
			c6.8,1.4,12.3,3.2,15.4,7.3c4.1,6.8,0.5,21.3-1.4,30.9c-0.5,1.4-0.5,2.7-0.5,4.1c0,0.5,0,0.9-0.5,1.4
			c-7.7,34.5-16.4,73.1-23.2,109.5L328.7,658.3z"/>
		<path class="st0" d="M540,623.3c14.5-26.8,29.5-70.4,36.8-88.6c-37.2-10.9-63.1-30.4-45.4-70.9c17.3-39.1,71.3-26.3,74.9,7.3
			c0,18.6-6.8,42.7-14.1,56.8l21.8,10.4c16.8,8.6,24.5,17.3,23.6,25.9c-5.5,53.1-45.9,142.2-31.8,144c11.4,1.8,47.7-69.5,50.9-86.3
			c3.2-0.9,5.5,0.5,6.8,4.1c-6.4,25.9-24.5,80.4-45.9,95.4c-11.4,3.2-40.4-4.5-45.4-29.1c3.6-37.7,54.1-131.3,45-138.5
			c-11.4-8.6-21.8-10.9-29.1-15.9c-12.3,40.4-51.8,137.2-86.3,163.1c-4.1-1.4-8.2-2.3-11.4-3.6c-5.9-2.3-12.3-5.5-13.6-9.5
			c-5.9-7.3-0.5-34.5,5.9-67.7l6.4-33.6l1.8-9.1c0.5,0,0.9,0,0.9,0.5c4.1,0,24.5,9.1,24.5,14.5c0,5-20.9,89-17.3,92.7
			c3.6,2.3,21.3-24.5,40.9-62.2V623.3z M519.1,567.9l-17.3-3.6c-3.2-12.3-3.6-22.3,0.5-38.6c0-1.4,33.2-5.5,26.8,13.2l-7.3,22.3
			L519.1,567.9z M587.6,464.8c-8.6-7.3-18.2,0.5-24.1,10.9c-5,8.6-6.8,19.5-4.5,26.8c5.5,16.8,22.3,19.5,22.3,19.5
			S603.5,477.9,587.6,464.8z"/>
		<path class="st0" d="M846.2,471.2c-1.7-1.5-3.4-2.9-5.2-4.4c-0.5-0.4-1-0.8-1.5-1.2c-0.1,0-0.1-0.1-0.2-0.1
			c-46.4,5.7-94.7,16.2-135,26.1c0.5-2.3,1.4-4.1,1.8-5.5c5.5-21.3,12.3-43.6,20.9-66.8c-9.5-4.1-18.6-5-27.7-2.3l-4.1,13.6
			c-7.3,22.3-13.6,45-19.1,68.1c-20.4,5.5-37.2,10.4-49.5,14.1l-19.1,5.9c-1.8,0.5-3.6,0.9-5,1.8c-3.2,1.8-5.5,4.1-6.8,6.4
			c-1.4,3.2-1.4,5.9,0,8.2c0.9,1.4,1.8,2.3,3.2,2.7c1.4-0.9,4.5-2.3,10-4.1c9.5-3.2,27.7-7.7,62.7-16.4l-5,23.6v1.4
			c-0.5,2.3-0.9,4.1-0.9,5.5c-0.5,0.5-0.5,0.9-0.5,1.8c-0.5,2.3-0.9,4.1-0.9,5.9l-0.5,0.5l-3.6,27.3c-4.1,32.3-5.5,61.8-3.6,84.9
			v0.5c1.4,14.5,4.1,25.9,8.2,34.1c5,10.4,10,16.8,15.9,15.4c6.8-1.4,12.7-3.6,16.8-5.5l3.2-1.4c0.5-0.5,0.5-0.5,0.9-0.5
			c-3.2-3.2-5.9-8.6-8.6-15.4c-5-12.3-9.1-31.3-8.6-65.4c-1.4-39.1,12.7-103.6,12.7-106.3l1.8-9.1l0.9-4.1c2.3-0.5,4.5-1.4,7.7-1.8
			c67.2-15.9,114.9-21.3,147.2-22.7c2.2-0.1,4.3-0.2,6.3-0.3C856.5,480.8,851.6,475.9,846.2,471.2z"/>
		<path class="st0" d="M815.2,548.8c0,1.8,0,7.7-0.5,16.4c-1.4,38.6-10.4,136.3-59,212.6c-19.5,30.9-41.3,45.9-57.7,53.1
			c-10,4.1-19.5,6.4-28.2,6.8c-17.3,0-32.7-30.9-29.5-33.2c20.4,5.9,76.3-1.8,109.9-71.8c21.8-43.6,31.3-97.7,37.2-137.6
			c-16.8,41.8-40.9,97.7-50.4,97.7c-4.1-0.9-8.2-1.8-11.4-3.2c-5.9-2.3-12.7-5-14.1-9.1c-2.7-7.7,0-37.7,2.3-56.3
			c0.5-3.6,0.5-6.8,1.8-9.1l7.7-43.6l0.9-6.8c0.5-3.6,0.9-8.6,0.9-12.7c0.9,0,1.4,0,1.8,0.5c4.5,0,23.2,7.3,24.5,13.2
			c0,5-21.8,108.6-17.7,111.3c2.7,2.7,42.7-93.6,57.2-133.1v-0.5c1.4-2.3,1.8-4.5,3.2-6.8c6.4,1.4,20.9,3.2,20.9,8.2V548.8z"/>
	</g>
	<g>
		<path class="st0" d="M586.2,324.9c-6.2,27.8-20.8,42.3-41.5,55c-3.6,22.9-11.7,85.4-43.6,85.4c-21.8,0-21.8-28-15.3-42.8
			c7-16.4,20.8-27.8,36.9-36.4c1.3-12.2,2.1-24.9,2.6-36.9c-6,15.3-14.3,27.5-26.5,27.5c-33.8,0.3-27.8-56.3-25.2-81.5
			c0.8-8.3,26-9.9,24.7,0.3c-2.3,20-11.2,74,2.6,74c11.7,0,20-21,25.2-42.1c0.5-13.2,0.8-24.4,0.8-32.2c0.3-9.1,25.2-9.1,24.9-0.3
			c-0.8,17.9-2.1,48.3-6,78.4c17.4-11.2,29.1-24.2,34.8-48.6H586.2z M522.1,392.4c-15.1,8-25.7,18.4-31.2,33.5
			c-3.1,9.1-6.2,30.9,8.6,30.6C519.2,456.1,520.5,405.9,522.1,392.4z"/>
		<path class="st0" d="M683.1,324.9c-3.9,17.1-15.3,41-36.9,35.6c-6.5,13.2-16.9,23.1-30.9,23.1c-53.2-0.3-47.3-99.7,9.9-99.7
			c28.3,0.3,34.5,42.3,23.1,71.7c17.9,3.6,25.7-16.9,29.1-30.6H683.1z M647.8,316.6c-1.8-14.8-8.6-26.7-21-26.7
			c-24.9,0-33.8,87-9.3,87c10.4,0,18.4-7.8,23.6-18.7C625.7,348.8,628.8,317.9,647.8,316.6z"/>
		<path class="st0" d="M792.7,324.9c-5.7,24.9-15.6,51.7-33.5,51.9c-17.4,0.3-24.1-14.5-26.5-32.2c-6,17.7-14.8,32.2-28,32.2
			c-34,0.3-28-56.9-25.4-81.8c0.8-8.3,26-9.3,24.9,0.3c-2.3,19.7-11.4,74.3,2.6,74.3c11.7,0,19.7-20.5,24.9-41.5
			c0-12.2,1.3-24.4,2.1-33c0.8-8,26-9.6,24.9,0.5c-2.6,19.7-11.4,74,2.6,74c12.2,0,20.5-22.6,25.7-44.7H792.7z"/>
	</g>
	<g>
		<path class="st0" d="M272.7,160.8v106.8h-12.8V160.8h-15V148h42.7v12.8H272.7z"/>
		<path class="st0" d="M320.8,233.4h-18.3l-6.2,34.2h-12.8L305.2,148H318l21.8,119.7H327L320.8,233.4z M304.8,220.6h13.7l-6.8-37.4
			L304.8,220.6z"/>
		<path class="st0" d="M359,223v44.6h-12.8V148H359v44.6L383,148h14.5l-32.1,59.8l32.1,59.8H383L359,223z"/>
		<path class="st0" d="M446.7,148v12.8h-29.9v38.5h21.4v12.8h-21.4v42.7h29.9v12.8h-42.7V148H446.7z"/>
		<path class="st0" d="M531,233.4h-18.3l-6.2,34.2h-12.8L515.5,148h12.8l21.8,119.7h-12.8L531,233.4z M515,220.6h13.7l-6.8-37.4
			L515,220.6z"/>
		<path class="st0" d="M620.6,148c14.2,0,21.4,7.1,21.4,21.4v21.4c0,6.4-1.5,11.4-4.4,15c2.9,3.5,4.4,8.5,4.4,15v25.6
			c0,14.2-7.1,21.4-21.4,21.4h-21.4V148H620.6z M629.1,169.3c0-5.7-2.8-8.5-8.5-8.5H612v38.5h8.5c5.7,0,8.5-2.8,8.5-8.5V169.3z
			 M620.6,212.1H612v42.7h8.5c5.7,0,8.5-2.8,8.5-8.5v-25.6C629.1,214.9,626.3,212.1,620.6,212.1z"/>
		<path class="st0" d="M683.6,233.4h-18.3l-6.2,34.2h-12.8L668,148h12.8l21.8,119.7h-12.8L683.6,233.4z M667.6,220.6h13.7l-6.8-37.4
			L667.6,220.6z"/>
		<path class="st0" d="M728.3,160.8v106.8h-12.8V160.8h-15V148h42.7v12.8H728.3z"/>
		<path class="st0" d="M764.6,212.1v55.6h-12.8V148h12.8v51.3h17.1V148h12.8v119.7h-12.8v-55.6H764.6z"/>
	</g>
	<g>
		<path class="st0" d="M349.9,831.3c-0.9,12.7-2.2,39.7-18.5,42.2c-34.6,5.4-18.4-57-33.1-54.6c-16,2.6-12,43.3-10.3,58.7
			c0.6,5-15.7,8-16.5,2.3c-3.4-25.9-17.6-120.2,13.7-125.2c19.9-3.2,10.7,41-2.7,59.4l1.5,17.8c2.1-9,5.9-17,14.4-18.6
			c37.8-7.1,20.5,56.8,33.5,54.7c11.6-1.9,13.1-27,13.8-35.9L349.9,831.3z M281.9,808.2c10.5-17.6,15.7-50.9,4-49
			C280,760.1,279.9,782.7,281.9,808.2z"/>
		<path class="st0" d="M359.4,786.1c0.8,5-2.8,9.7-7.7,10.5c-5,0.8-9.8-2.5-10.6-7.5c-0.8-5.2,2.7-9.8,7.7-10.6
			C353.8,777.6,358.6,780.9,359.4,786.1z M372.2,861.4c9-1.4,12.4-19,13.8-35.9l4-0.6c-1.1,19-5.1,39.8-18.5,42.2
			c-24.4,4.1-27-39.5-28.3-57.7c-0.4-7.4,17.9-9,18.3-3C362.1,820.5,361.7,863.1,372.2,861.4z"/>
		<path class="st0" d="M459.5,813.6c-1.4,23-13.4,39.8-36.1,44.8c-8.2,2.7-13.9,0.3-17.4-4.8c1.7,36-1.2,74.8-22.1,78.2
			c-15.8,2.6-19.2-18.1-16.4-29.7c3.2-12.9,12.2-22.9,23-31.1c-1.6-26-6.1-54.5-7.8-67.9c-0.8-5.9,17.3-9.1,18.2-2.5
			c0.7,4.2,1.4,9.8,2,16.3c1.8-10.9,5.5-21.5,14.9-23c23.9-3.9,32.4,36.9,17.5,56.1c12.6-7.1,18.6-19.5,19.9-35.7L459.5,813.6z
			 M391,875.6c-10.1,7.7-16.7,16.6-18.9,28.3c-1.4,7.1-1.1,23.5,9.7,21.5C396.4,922.7,391.4,885.7,391,875.6z M417.9,799.6
			c-12.8,2.1-21,57.9,0,54.5C430.5,852.2,426.6,798.1,417.9,799.6z"/>
		<path class="st0" d="M528.8,802.4c-1.4,23-13.4,39.8-36.1,44.8c-8.2,2.7-13.9,0.3-17.4-4.8c1.7,36-1.2,74.8-22.1,78.2
			c-15.8,2.6-19.2-18.1-16.4-29.7c3.2-12.9,12.2-22.9,23-31.1c-1.6-26-6.1-54.5-7.8-67.9c-0.8-5.9,17.3-9.1,18.2-2.5
			c0.7,4.2,1.4,9.8,2,16.3c1.8-10.9,5.5-21.5,14.9-23c23.9-3.9,32.4,36.9,17.5,56.1c12.6-7.1,18.6-19.5,19.9-35.7L528.8,802.4z
			 M460.3,864.4c-10.1,7.7-16.7,16.6-18.9,28.3c-1.4,7.1-1.1,23.5,9.7,21.5C465.7,911.6,460.7,874.5,460.3,864.4z M487.2,788.4
			c-12.8,2.1-21,57.9,0,54.5C499.8,841,496,787,487.2,788.4z"/>
		<path class="st0" d="M538.4,757.2c0.8,5-2.8,9.7-7.7,10.5c-5,0.8-9.8-2.5-10.6-7.5c-0.8-5.2,2.7-9.8,7.7-10.6
			C532.7,748.7,537.5,752,538.4,757.2z M551.1,832.5c9-1.4,12.4-19,13.8-35.9l4-0.6c-1,19-5.1,39.8-18.5,42.2
			c-24.4,4.1-27-39.5-28.3-57.7c-0.4-7.4,17.9-9,18.3-3C541,791.6,540.6,834.2,551.1,832.5z"/>
		<path class="st0" d="M628.5,786.3c-1.1,17.6-10.8,41.1-30.1,44c-39.9,6.4-47.2-58.2-7.1-64.7c5-0.8,10,1.3,10.9,6.9
			c1.8,11.3-11.6,21.3-21.2,23.8c0.5,15,6.7,30.5,17.5,28.5c17-2.9,24.8-22.6,25.8-37.9L628.5,786.3z M580.9,792.4
			c6.7-2.3,18.1-10.6,16.8-18.6c-0.5-2.9-3.2-2.8-5.5-2.4C584.9,772.6,581.3,781.8,580.9,792.4z"/>
	</g>
	<g>
		<path class="st0" d="M321,354.8c0.8-1.6,1.3-2.8,2-4c1.2-1.9,1-3.2-0.7-4.9c-9.2-9.1-10.5-17.8-4.8-29.3c3.4-7,6.8-14,10.4-21.2
			c24.7,12.1,49.1,24,73.7,36c-4.5,9.3-8.4,18.8-13.7,27.5c-4.1,6.8-11.7,8.6-19.5,8.4c-1.9-0.1-3.8-0.4-5.8-0.6
			c-1.1,2.2-2.1,4.4-3.3,6.7c1.9,1.6,3.8,3.1,5.5,4.9c2.5,2.7,5.2,5.3,7.2,8.3c4.9,7.5,2.2,13.7-6.7,13.7c-7.6,0-15.5-1.3-22.9-3.4
			c-15-4.4-28.5-11.9-40-22.6c-3-2.8-5.7-6.3-7.7-10c-2.9-5.4-0.7-10.1,5.4-10.9c5-0.7,10.3,0,15.4,0.3
			C317.1,353.7,318.8,354.3,321,354.8z M341.8,368.9c-5.8-2.4-10.7-4.8-15.9-6.5c-4.6-1.5-9.5-2.6-14.3-3.1c-2-0.2-5.1,1.1-6.1,2.7
			c-0.8,1.3,0.6,4.2,1.6,6.1c0.9,1.6,2.5,2.9,4,4.1c10.3,8.4,21.9,14.3,34.6,18.2c3.4,1,6.9,2,10.4,2c2.4,0,6.1-1,6.8-2.6
			c0.8-1.7-1.1-4.8-2.3-7.1c-0.8-1.5-2.3-2.7-3.8-3.7C351.6,375.4,346.3,372,341.8,368.9z"/>
		<path class="st0" d="M291.9,364.4c9.4,21.5,56.8,43.6,76.5,38.3c-1.1,0.9-2.2,2.1-3.5,2.8c-8.9,4.5-17.7,9-26.7,13.2
			c-2.1,1-3.6,1.9-4.2,4.3c-1.8,6.3-4.1,12.5-5.9,18.7c-0.7,2.4-2.1,3.3-4.2,2.8c-5.7-1.3-11.7-2-16.8-4.6
			c-7.1-3.5-13.6-8.4-20.2-13c-2.4-1.7-2.5-3.9-0.5-6.6c3.8-5,7.3-10.2,10.6-15.6c0.9-1.5,1.1-3.7,0.8-5.5c-1.8-9.5-4-18.9-5.8-28.4
			C291.6,369.1,291.9,367.1,291.9,364.4z"/>
		<path class="st0" d="M362.4,300.5c4.5-5.1,7.5,0.5,11.1,1.4c2.3,0.6,4.7,1.8,2.3,5.1c9.4,4.6,18.3,9,27.3,13.3
			c1.1,0.5,2.6,0.8,3.2,1.7c0.8,1.3,1.7,3.5,1.2,4.4c-0.7,1.2-3.1,2.4-4.4,2c-2.9-0.8-5.5-2.4-8.2-3.8
			c-20.8-10.1-41.5-20.3-62.3-30.4c-1-0.5-2-1-2.9-1.5c-2.2-1.1-2.9-2.8-1.7-5.1c1.1-2.3,2.9-2.7,5.1-1.6
			c7.6,3.7,15.2,7.4,22.8,11.2C358.1,298.3,360.3,299.4,362.4,300.5z"/>
		<path class="st0" d="M308.3,363.2c10.6-3.7,47.6,14.2,51.9,25.5c-2.9,1.3-5.6,1.2-8.3-0.8c-11.4-8.7-24.1-14.9-38-18.6
			C310.8,368.4,309.3,366.7,308.3,363.2z"/>
	</g>
</g>
</svg>
