<?xml version="1.0" encoding="utf-8"?>
<!-- Generator: Adobe Illustrator 22.0.0, SVG Export Plug-In . SVG Version: 6.00 Build 0)  -->
<svg version="1.1" id="Layer_1" xmlns="http://www.w3.org/2000/svg" xmlns:xlink="http://www.w3.org/1999/xlink" x="0px" y="0px"
	 viewBox="0 0 1080 1080" style="enable-background:new 0 0 1080 1080;" xml:space="preserve">
<circle cx="772.1" cy="423.3" r="7.5"/>
<circle cx="448" cy="402.5" r="7.5"/>
<circle cx="414.7" cy="655.1" r="7.5"/>
<circle cx="583" cy="427.8" r="4.6"/>
<circle cx="296.6" cy="401.2" r="4.6"/>
<circle cx="177.2" cy="513" r="4.6"/>
<circle cx="772.1" cy="640" r="4.6"/>
<circle cx="642.9" cy="667.2" r="4.6"/>
<circle cx="275.8" cy="644.6" r="4.6"/>
<g>
	<path d="M149.2,672.5c-5.8-6.4-17-13.2-33.7-13.2C81.1,659.3,62,708.6,62,746c0,30.2,9.4,44.4,32.3,44.4
		c16.8,0,33.5-27.4,44.9-52.7c0.2,57.8,1.9,135.9-30.2,135.9c-35.6,0-14.1-55-26.8-55c-4.9,0-15.2,65.2,27.5,65.2
		c77.5,0,46.5-100.5,58.2-199.9c1-8.1,6.9-9.7,3.5-13C168.2,667.7,157.1,666,149.2,672.5z M142.1,684c-1.5,5.5-2.2,13.9-2.6,24
		c-9.2,24.9-34.9,70.4-46.2,70.4c-4.5,0-6.8-7.4-6.8-18.3c0-35.2,15.4-88.5,39.4-88.5c6.6,0,13.7,5.3,16.7,10.7
		C142.5,682.9,142.3,683.4,142.1,684z"/>
	<path d="M392.1,677.2c0-8.6-2.5-22.1-24-22.1c-14.6,0-29.5,25.5-40.4,55.3c0.8-18.5,1.9-34,3.2-42.5c1.8-11.4-22.7-12.2-25.3-0.3
		c-17.6,3.4-55-2.9-70.4-3.2c-0.8-7.6-18.4-9.8-28.7-3.2c-23.3,14.8-60.6,133.1,19.4,133.1c43.3,0,61.2-82.3,35.7-114.2
		c13.3,4.2,30.5,3.8,42.6,1.7c-1.5,21-3,59.9-3,94.7c0,13.4,25,20.4,25,12.5c0-7.6,0.1-15.4,0.1-23.3c6.6-37.2,27.1-90.9,34.4-90.9
		c9.5,0-3.6,52.8,21,52.8c16.8,0,14.6-5.6,12.8-9.2C390.6,710.8,392.1,685.8,392.1,677.2z M232.2,779.1c-42.5,0-23.5-76-7-100.2
		c0.7,0.1,1.3,0.2,2.1,0.2C281.6,679.2,256.5,779.1,232.2,779.1z"/>
	<path d="M501.9,672.5c-5.8-6.4-17-13.2-33.7-13.2c-34.4,0-53.5,49.3-53.5,86.7c0,30.2,9.4,44.4,32.3,44.4
		c16.8,0,33.5-27.4,44.9-52.7c0.2,57.8,1.9,135.9-30.2,135.9c-35.6,0-14.1-55-26.8-55c-4.9,0-15.2,65.2,27.5,65.2
		c77.5,0,46.5-100.5,58.2-199.9c1-8.1,6.9-9.7,3.5-13C520.9,667.7,509.8,666,501.9,672.5z M494.8,684c-1.5,5.5-2.2,13.9-2.6,24
		c-9.2,24.9-34.9,70.4-46.2,70.4c-4.5,0-6.8-7.4-6.8-18.3c0-35.2,15.4-88.5,39.4-88.5c6.6,0,13.7,5.3,16.7,10.7
		C495.2,682.9,495,683.4,494.8,684z"/>
	<path d="M890.3,704.1c-7.8,26.6-17.6,70.3-27.3,70.3c-14.3,0-6.3-84.8-3.6-101.8c1.8-11.5-23.6-13.8-25.9-1.6
		c-1.1,5.8-2.6,22.3-3.4,42.5c-9.1,26.4-26.2,60.8-34.8,60.8c-14.3,0-6.3-84.8-3.6-101.8c1.7-10.5-19.7-13.4-24.9-4.3
		c-19,1.4-50.6-3.7-64.5-3.9c-0.8-7.6-18.4-9.8-28.7-3.2c-8.3,5.3-18.4,23.7-24.3,45.2c-1.4,0.4-2.7,1.3-3.9,3.1
		c-9,13.9-41.5,72.4-69.2,72.4c-14.4,0-20.6-17.2-20.6-38.2c0-3.9,0.3-7.8,0.7-11.6c3.9,3.6,9.1,6.8,15.6,6.8c26,0,44-26.1,44-48.4
		c0-20.4-9-31.1-32.1-31.1c-33.7,0-54,39.7-54,77.6c0,43.4,12.4,57.2,47.4,57.2c27,0,51.5-34.7,67.4-60.2
		c-2,31.1,8.8,60.2,48.5,60.2c43.3,0,61.2-82.3,35.7-114.2c11,3.5,24.5,3.8,35.7,2.6c-1.7,17.9-3.4,50.4-1.7,80.1
		c0.8,14.7,10.2,29.8,23.4,29.8c16.6,0,31-15.5,43.7-45.2c0.1,5.1,0.3,10.3,0.6,15.4c0.9,14.7,10.2,29.8,23.5,29.8
		c22.1,0,31.1-16.7,45.2-79.5C901.2,703.9,892.8,695.4,890.3,704.1z M592,669.6c9.1,0,11.6,8,11.6,18.2c0,21.4-16.6,40.3-31.8,40.3
		c-5.5,0-9.5-3.8-13.5-7.9C564,692.9,578.4,669.6,592,669.6z M699.4,779.1c-42.5,0-23.5-76-7-100.2c0.7,0.1,1.3,0.2,2.1,0.2
		C748.8,679.2,723.7,779.1,699.4,779.1z"/>
	<path d="M1005.1,708.2c-8,3.1-32.9,7.2-56.9,13.2c-4.8-12-8.6-24-8.6-34.5c0-12.3,7.1-19,20.8-13.4c6.2,2.6,7.4,2.1,7.4-3.2
		c0-5.3-11.3-12-30-12c-18.7,0-25.5,12.5-25.5,29.8c0,6.8,5.8,23.1,12,40.3c-18,6.3-30.9,14.1-27.4,24.1
		c11.8,33.5,39.5,46.5,47.6,46.5c8.1,0,24.3-4.3,24.3-19.5c0-12.3-8.2-29.2-15.9-46.8c21.3-5.7,45.2-11.2,58.9-14.6
		C1036.8,711.9,1025.1,700.4,1005.1,708.2z M937.5,783.4c-7,0-31-28.6-28.2-34.2c1.3-2.6,8.8-5.9,19.2-9.4
		C936.7,762.5,943.7,783.4,937.5,783.4z"/>
</g>
<g>
	<path d="M89.1,463.6c0-11.2,9.2-19.8,20.4-19.8c13.1,0,17,8.1,20.7,19l51.1,145.5l53.6-157.3c3.4-9.8,25.7-10.9,25.7,2.8v177.1
		c0,5-4.2,9.8-10.1,9.8c-5.6,0-10.1-4.7-10.1-9.8V498l-42.7,124.3c-8.1,22.9-24.3,25.1-33,0.3L129.9,522l-0.3,98.3
		c0,11.5-8.9,20.4-20.1,20.4s-20.7-8.9-20.7-20.4L89.1,463.6z"/>
	<path d="M386.5,555.8c-1.1,26.3-14.2,82.1-50,85.2c-52.2,4.7-62.3-69-62.3-105c0-33.2,11.2-96.6,59.5-91.1
		C378.2,448.8,387.7,524,386.5,555.8z M355.3,605.8c6.7-12.3,10.3-31,11.5-51.1c3.1-93.3-53.1-114.2-53.1-18.7
		C313.6,553,325.7,657.2,355.3,605.8z"/>
	<path d="M400,463.9c0-10.9,9.5-20.1,20.1-20.1c8.4,0,18.7,0,27.7,0c18.2,0,47.8,5.9,58.7,37.1c6.1,18.2,5.6,39.7-3.9,55.9
		c-8.1,13.4-23.5,22.3-38.8,24.6l44.4,62.3c3.9,4.2,2.8,11.2-1.1,14.5c-4.5,3.4-10.9,2.8-14.2-1.1L441,563.6v55.6
		c0,11.5-9.8,20.7-20.4,20.7c-11.2,0-20.1-9.2-20.1-20.7L400,463.9z M439.9,463.9l1.1,79c12.6,0.6,47.5,0,49.2-37.7
		C488.5,463.9,453,463.3,439.9,463.9z"/>
	<path d="M523.1,463.9c0-10.9,8.4-20.1,20.4-20.1c15.9-1.1,19.8,19,25.7,30.7l53.1,112.6l-1.1-133.5c0-4.5,5-9.8,10.9-9.8
		c5,0,10.3,3.9,10.3,9.8l0.6,173.2c0,2.8-1.4,6.4-3.6,8.7c-4.5,6.1-13.7,6.1-17-0.6L565,514.5l2.8,104.7c0,10.9-8.4,20.7-19.3,21.2
		c-12,0-20.9-8.4-20.9-20.1L523.1,463.9z"/>
	<path d="M657.2,463.9c0-10.9,9.8-20.1,20.7-20.1c10.6,0,19.6,8.7,19.6,20.1l1.7,155.3c0,11.5-8.9,21.2-20.1,21.2
		c-10.9,0-20.1-9.8-20.1-20.1L657.2,463.9z"/>
	<path d="M712.2,463.9c0-10.9,8.4-20.1,20.4-20.1c15.9-1.1,19.8,19,25.7,30.7l53.1,112.6l-1.1-133.5c0-4.5,5-9.8,10.9-9.8
		c5,0,10.3,3.9,10.3,9.8l0.6,173.2c0,2.8-1.4,6.4-3.6,8.7c-4.5,6.1-13.7,6.1-17-0.6l-57.3-120.4l2.8,104.7
		c0,10.9-8.4,20.7-19.3,21.2c-12,0-20.9-8.4-20.9-20.1L712.2,463.9z"/>
	<path d="M923.9,491.8c-3.6-8.7-5.3-19.6-12.3-23.7c-23.5-13.4-23.7,61.2-22.9,75.4c1.1,17,8.9,77.6,26.8,74.6
		c16.2-2.5,10.9-50.3,10.9-60.3h-18.2c-5.3,0-10.1-4.7-10.1-9.8c0-5.6,4.7-10.3,10.1-10.3c1.1,0,38-0.6,38-0.6
		c5.9,0,10.6,4.2,10.6,10.1c0.6,22.9-0.3,60.3-17.9,79.9c-16.2,17.6-46.4,16.5-63.1,1.7c-18.7-16.5-26.5-50.8-27.9-83.2
		c-1.4-33,2-80.7,32.1-96.9c11.2-5.9,26.8-6.4,38.5-3.6c20.7,4.2,33,21.2,34.4,41.6C952.4,508.3,930.6,508.6,923.9,491.8z"/>
</g>
<g>
	<g>
		<path d="M370.4,414.9c-17.4,0-31.8-5.7-42.9-17.2c-11.1-11.4-18.9-26.2-23.3-44.3c-3.1-12-4.5-24.2-4.5-36.9
			c0-6.4,0.8-16.1,2.3-29.2c1.5-13,6.8-27.4,15.8-43.1c8.9-15.6,21.3-26.8,37.1-33.6c7.1-2.7,14.1-4.1,20.9-4.1
			c5.2,0,11.8,1.3,20.1,4c8.4,2.7,16.2,9.5,23.8,20.2c7.6,10.9,11.6,24.8,12,41.7c-0.4,4-2.9,6.9-7.6,8.7c-2.7,1.1-5.3,1.5-8.1,1.5
			c-2,0-4.7-0.4-8-1.3c-3.3-0.9-5.2-3.9-5.6-9.1c-0.1-10.8-2-19.2-5.7-25.4c-3.9-6.1-8.7-9.2-14.4-9.2h-0.3
			c-5.7,0-11.6,3.7-17.6,11.3c-9.2,15.3-14.8,32-16.9,49.9c-0.9,7.7-1.3,15.2-1.3,22.2c0,9.6,1.1,20.1,3.3,31.8
			c2.3,11.6,6.4,20.4,12.1,26.2c4.3,3.7,8.4,5.7,12.4,5.7c2.4,0,5.7-1.3,10-4c4.1-2.7,8.3-8.5,12.1-17.4c3.9-8.9,6.1-18.1,6.5-27.6
			l-24,0.1c-3.3-0.4-5.5-2.7-6.7-7.1c-0.7-2.3-0.9-4.5-0.9-6.8c0-2.1,0.4-4.8,1.2-8c0.7-3.3,2.8-5.1,6.1-5.5l43.8-0.4
			c3.1,0.1,5.2,0.7,6.5,1.7c1.3,1.1,2.1,2.3,2.5,3.6c0.4,1.5,0.5,2.7,0.5,3.7v0.5c0.1,2.3,0.3,4.4,0.3,6.7c0,11.2-1.9,23.6-5.6,37
			c-3.6,13.4-10,25.4-19.2,35.9c-9.2,10.7-21.3,16.5-36.2,17.4H370.4z"/>
		<path d="M522.4,411.6c-15.2,0-28.4-4.5-39.5-13.4c-11.2-9.1-19.7-21.4-25.7-37.3c-6-15.8-9.1-32.8-9.2-50.9v-1.6
			c0-17.4,2.8-34.2,8.5-50.2c5.7-16,14.4-29.2,26.2-39.5c11.8-10.3,26.8-15.6,44.7-16c15.7,0.3,28.8,5.2,39.3,14.8
			c10.4,9.7,18.1,22.2,23.3,37.7c5.2,15,7.7,31.3,7.7,48.3c0,0.4,0,4.9,0,13.7c0,8.9-2.7,21.2-7.9,37c-5.2,15.8-13,28.9-23.6,39.4
			c-10.5,10.5-23.6,16.4-39.1,17.8C525.6,411.6,524,411.6,522.4,411.6z M507.3,256.7c-6,10.3-9.7,22.5-11.2,36.9
			c-0.5,5.3-0.8,10.6-0.8,15.8c0,8.9,1.1,18.9,3.2,30.2c2.1,11.2,6.4,21,12.9,29.6c5.5,7.2,12.2,10.8,20.4,10.8
			c1.5,0,2.9-0.1,4.5-0.4c8.4-2,15-8,20.2-18.1c5.2-10.1,8.5-22.1,10.3-36.1c0.9-6.8,1.3-13.6,1.3-20.2c0-6.9-0.8-15.6-2.1-25.7
			c-1.5-10.1-4.9-19.4-10.6-28.1c-5.5-8.1-12.6-12.1-21.4-12.1h-1.7C521.5,240.8,513.2,246.5,507.3,256.7z"/>
		<path d="M688.2,411.6c-15.2,0-28.4-4.5-39.5-13.4c-11.2-9.1-19.7-21.4-25.7-37.3c-6-15.8-9.1-32.8-9.2-50.9v-1.6
			c0-17.4,2.8-34.2,8.5-50.2c5.7-16,14.4-29.2,26.2-39.5c11.8-10.3,26.8-15.6,44.7-16c15.7,0.3,28.8,5.2,39.3,14.8
			c10.4,9.7,18.1,22.2,23.3,37.7c5.2,15,7.7,31.3,7.7,48.3c0,0.4,0,4.9,0,13.7c0,8.9-2.7,21.2-7.9,37c-5.2,15.8-13,28.9-23.6,39.4
			c-10.5,10.5-23.6,16.4-39.1,17.8C691.4,411.6,689.8,411.6,688.2,411.6z M673,256.7c-6,10.3-9.7,22.5-11.2,36.9
			c-0.5,5.3-0.8,10.6-0.8,15.8c0,8.9,1.1,18.9,3.2,30.2c2.1,11.2,6.4,21,12.9,29.6c5.5,7.2,12.2,10.8,20.4,10.8
			c1.5,0,2.9-0.1,4.5-0.4c8.4-2,15-8,20.2-18.1c5.2-10.1,8.5-22.1,10.3-36.1c0.9-6.8,1.3-13.6,1.3-20.2c0-6.9-0.8-15.6-2.1-25.7
			c-1.5-10.1-4.9-19.4-10.6-28.1c-5.5-8.1-12.6-12.1-21.4-12.1h-1.7C687.3,240.8,679,246.5,673,256.7z"/>
		<path d="M809,412.5c-3.9,0-7.2-0.8-9.7-2.5c-2.7-1.6-4.9-5.6-6.9-12c-7.7-26.8-12-56.2-12.6-88.5c-0.1-4-0.1-8.1-0.1-12
			c0-27.8,2.4-53.7,7.3-77.6c0.7-2.5,2.3-4.7,4.7-6.4c2.4-1.6,5.1-2.7,7.9-3.3c11.3-2.5,21.8-3.7,31.7-3.7c12.2,0,25.2,2.8,38.7,8.3
			c13.7,5.5,24.6,16.4,32.9,32.6c6.5,12.6,9.7,27,9.7,43.1c0,4.5-0.3,9.3-0.8,14.2c-1.7,15.8-6.4,31.6-14,47.1
			c-7.6,15.6-18.2,28.8-31.8,39.8c-13.7,11-30.4,17.8-50.2,20.4C813.3,412.2,811,412.5,809,412.5z M827.8,300.7c0,0.8,0,8.3,0,22.2
			c0,14.1,2.3,32.1,6.7,54.1c10.8-5.1,19.8-13.3,27-24.9c7.1-11.6,12.1-24.4,14.9-38.6c1.7-8.3,2.5-16.2,2.5-24.1
			c0-5.6-0.7-13-2.1-22.2c-1.5-9.2-6-17.6-13.4-25.4c-6.5-6.8-15.2-10.3-26.2-10.3c-1.7,0-3.3,0.1-5.1,0.3
			C829.2,251.4,827.8,274.3,827.8,300.7z"/>
	</g>
	<g>
		<g>
			<g>
				<path d="M161.7,395.7c-10.6-65.8,41.1-115.1,104.5-101.3c3.5,0.8,9.2,0.3,9.5,5.1c0.4,6.6-0.3,13.5-2,19.9
					c-0.8,3-5.1,0.4-7.7,0.1c-29.1-3.9-54.3,3.7-74.7,25.1c-18.9,19.8-23.7,43-15.5,69c0.4,1.3,1,2.6,1.7,3.9
					c2.1,4.2,0.5,6.9-3.5,8.3c-4.2,1.4-4.5-2.8-5.2-4.8C165.8,412.2,162.3,403.6,161.7,395.7z"/>
			</g>
			<g>
				<path d="M65.5,399.4c24.3-0.9,48.5-5.6,73-1.6c9.6,1.6,11,7.3,11.3,14.9c0.2,7.5-2,13-10.6,14.3c-29.3,4.5-58.6,1.6-87.9,0
					c-6.1-0.3-8.3-5-8.4-10.5c0-6.6,1.2-13,9-14.9C56.3,400.5,60.9,400.1,65.5,399.4z"/>
			</g>
			<g>
				<path d="M164.4,313.9c-3.7,1.3-6.6-1-9.2-3.4c-19.2-18.1-35.1-38.8-49.4-60.9c-3.1-4.8-2.4-8.6,1.7-12.1
					c4.6-3.9,9.8-6.9,15.2-2.3c20.9,17.8,39.1,38.1,52.9,61.9C179.5,303.7,173.5,312.2,164.4,313.9z"/>
			</g>
			<g>
				<path d="M200.8,234.3c-1.2-7.4-2.5-14.7-3.4-22.1c-0.9-7.1,2.6-11.2,9.5-13.1c7.1-1.9,11.8-0.2,14.3,6.8
					c6.8,19.4,13.5,38.9,14.4,59.8c0.4,9-4.7,12.6-12.5,14.3c-8.1,1.7-10.8-4.1-13-9.7C205.5,258.7,203,246.6,200.8,234.3z"/>
			</g>
			<g>
				<path d="M88.9,319.9c15.7,3.4,31.5,8.7,46.2,16.9c2.8,1.6,5.4,3.5,8.2,5c4.9,2.6,9.7,5.1,6.4,12.1c-3.2,6.6-6.9,11.6-15.5,8.9
					c-17.7-5.4-34.6-12.9-51.4-20.7c-4-1.9-9.7-3.4-7.4-9.7C77.6,326.5,80.3,320.4,88.9,319.9z"/>
			</g>
			<g>
				<path d="M289,198.8c9.6-1.6,14.4,2.3,14.6,11.1c0.4,18.2-3.2,35.8-7.8,53.3c-2,7.6-7.5,8.7-13.9,8.1c-7.5-0.7-7.5-6.2-7-11.8
					c1.5-16.9,3.1-33.8,6.2-50.5C282.1,203.8,283.8,199.4,289,198.8z"/>
			</g>
		</g>
		<g>
			<path d="M244,346.9c-5,0.2-7.6,9.1-12.5,16.8c-4.9,7.7-20.5,6.1-21.4,12.6s12.6,15.5,14.4,21c3.4,10-0.6,17.2,5,21
				c5.6,3.8,14-9.3,19.1-9.7c5.1-0.4,19,11,25,4.1c6-6.8-3.8-18-3.1-24.1c0.7-6.1,13.1-13,11.7-20.2c-1.4-7.2-14.9-3-21.5-4.7
				C254.1,362.2,249,346.8,244,346.9z M256.5,380.7c0.4,2.2-3.3,4.3-3.5,6.1c-0.2,1.8,2.7,5.2,0.9,7.3c-1.8,2.1-6-1.4-7.5-1.3
				c-1.5,0.1-4.1,4.1-5.8,2.9c-1.7-1.2-0.5-3.3-1.5-6.3c-0.6-1.6-4.6-4.4-4.3-6.3c0.3-2,5-1.5,6.5-3.8c1.5-2.3,2.3-5,3.8-5.1
				c1.5,0,3,4.6,5,5.1C252,379.8,256.1,378.5,256.5,380.7z"/>
		</g>
	</g>
</g>
<path d="M911.6,381.8c-0.9,0-1.7,0.4-2.5,1c-1.9,1.3-3.4,3-4.8,4.8c-0.9,1.1-1.8,2.3-2.8,3.3c-0.8,0.8-1.9,1.4-2.9,2
	c-1,0.6-2.1,0.6-3.2,0.2c-0.6-0.2-1.3-0.5-1.9-0.9c-1-0.6-1.9-1.3-2.9-2.1c-1.2-0.9-2.4-1.9-3.6-2.8c-0.9-0.7-1.9-1.2-3-1.4
	c-1.5-0.3-2.7,0.4-3,1.9c-0.2,0.7-0.1,1.4,0,2c0.1,0.7,0.4,1.3,0.7,2c0.7,1.7,1.8,3.1,2.8,4.6c1,1.4,1.9,2.9,2.7,4.4
	c0.9,1.7,0.5,3.4-0.7,4.8c-1.3,1.5-2.7,2.8-4.4,3.7c-1.7,0.9-3.1,2.1-4.4,3.4c-1,1.1-1.9,2.3-2.1,3.8c-0.3,1.5,0.3,2.4,1.8,2.8
	c0.8,0.2,1.7,0.2,2.5,0.1c1.3-0.2,2.6-0.6,3.8-1.1c2.5-0.9,5.1-1.3,7.8-1.3c2.4,0,4,1.3,5,3.5c0.3,0.6,0.5,1.3,0.7,2
	c0.3,1.1,0.5,2.2,0.8,3.2c0.6,2.1,1.3,4.1,2.6,5.9c0.6,0.8,1.3,1.4,2.2,1.8c1.7,0.8,3.1,0.3,4.1-1.3c0.6-1,0.9-2.2,0.9-3.4
	c0-1.1-0.1-2.2-0.2-3.3c-0.2-2.5-0.5-5-0.7-7.4c-0.1-0.6,0-1.2,0-1.9c0.1-1.2,0.7-1.9,1.9-2.2c0.7-0.1,1.5-0.2,2.3-0.2
	c2.4,0.1,4.8,0.2,7.3,0.3c2.2,0.1,4.3,0,6.4-0.8c2.8-1.1,3.4-3.5,1.4-5.7c-0.3-0.3-0.6-0.6-0.9-0.8c-0.6-0.4-1.3-0.9-1.9-1.2
	c-1.7-1-3.6-1.5-5.4-2.1c-1.5-0.5-3-1.1-4.5-1.7c-1.8-0.7-2.4-2.2-2.2-4c0.1-0.7,0.2-1.4,0.4-2c0.2-0.7,0.5-1.4,0.8-2.2
	c0.8-2.5,1.8-5,2-7.6c0.1-0.8,0.1-1.5-0.1-2.3C913.7,382.4,912.9,381.8,911.6,381.8z M882.2,415.7c-0.4,0.4-1,0.4-1.4,0
	c-0.3-0.3-0.4-0.9-0.1-1.3c0.3-0.4,1-0.5,1.5-0.2C882.5,414.6,882.6,415.3,882.2,415.7z M904,429.4c-0.4,0.4-1.2,0.4-1.6,0
	c-0.3-0.3-0.3-0.9,0-1.3c0.4-0.4,1.2-0.4,1.6,0C904.3,428.5,904.4,429.1,904,429.4z M888,413.1c-0.5,0.5-1.2,0.5-1.7,0.1
	c-0.5-0.5-0.5-1.2-0.1-1.7s1.2-0.5,1.7-0.1C888.5,411.8,888.5,412.6,888,413.1z M903.2,422.9c-0.5,0.5-1.3,0.6-1.8,0.1
	c-0.5-0.5-0.6-1.3-0.1-1.8s1.3-0.6,1.8-0.1C903.7,421.5,903.7,422.3,903.2,422.9z M891.5,410.9c-0.6-0.5-0.6-1.4-0.1-2
	c0.5-0.6,1.4-0.6,2-0.1c0.6,0.5,0.6,1.4,0.1,2S892.1,411.4,891.5,410.9z M901.3,415.1c-0.5,0.6-1.4,0.6-2,0.1
	c-0.6-0.5-0.6-1.4-0.1-2c0.5-0.6,1.4-0.6,2-0.1C901.9,413.6,901.9,414.5,901.3,415.1z M884.5,391.4c-0.2-0.2-0.1-0.6-0.2-1.1
	c0.5,0.1,0.9,0.1,1.1,0.2c0.3,0.2,0.3,0.6,0,0.9C885.1,391.7,884.7,391.7,884.5,391.4z M899.9,406.7c-0.5,0.6-1.4,0.6-2,0.1
	c-0.6-0.5-0.6-1.4-0.1-2c0.5-0.6,1.4-0.6,2-0.1C900.4,405.2,900.5,406.1,899.9,406.7z M895,402.1c-0.5,0.6-1.4,0.6-2,0.1
	c-0.6-0.5-0.6-1.4-0.1-2c0.5-0.6,1.4-0.6,2-0.1C895.5,400.6,895.5,401.5,895,402.1z M890.9,397.4c-0.5,0.5-1.4,0.6-1.9,0.1
	c-0.5-0.5-0.6-1.4-0.1-1.9c0.5-0.5,1.4-0.6,1.9-0.1C891.3,396,891.4,396.9,890.9,397.4z M908.5,409c-0.5,0.6-1.4,0.6-2,0.1
	c-0.6-0.5-0.6-1.4-0.1-2c0.5-0.6,1.4-0.6,2-0.1C909,407.5,909,408.4,908.5,409z M915.3,409.5c-0.5,0.6-1.4,0.6-2,0.1
	c-0.6-0.5-0.6-1.4-0.1-2s1.4-0.6,2-0.1C915.8,408,915.8,408.9,915.3,409.5z M904.8,399.3c-0.5,0.6-1.4,0.6-2,0.1
	c-0.6-0.5-0.6-1.4-0.1-2c0.5-0.6,1.4-0.6,2-0.1C905.3,397.8,905.3,398.7,904.8,399.3z M921.7,408.8c0.3-0.4,0.9-0.4,1.3-0.1
	c0.5,0.3,0.6,1,0.2,1.5c-0.3,0.4-1,0.5-1.5,0.2C921.3,409.9,921.3,409.2,921.7,408.8z M908.5,393.2c-0.5,0.5-1.4,0.6-1.9,0.1
	c-0.5-0.5-0.6-1.4-0.1-1.9s1.4-0.6,1.9-0.1C908.9,391.9,909,392.7,908.5,393.2z M911.3,386.6c-0.3,0.4-0.8,0.5-1.2,0.3
	c-0.5-0.3-0.6-1-0.2-1.4c0.3-0.4,0.9-0.4,1.3-0.1C911.5,385.6,911.6,386.2,911.3,386.6z"/>
</svg>
