<?xml version="1.0" encoding="utf-8"?>
<!-- Generator: Adobe Illustrator 22.0.0, SVG Export Plug-In . SVG Version: 6.00 Build 0)  -->
<svg version="1.1" id="Layer_1" xmlns="http://www.w3.org/2000/svg" xmlns:xlink="http://www.w3.org/1999/xlink" x="0px" y="0px"
	 viewBox="0 0 1080 1080" style="enable-background:new 0 0 1080 1080;" xml:space="preserve">
<circle cx="482.6" cy="380.3" r="8.9"/>
<circle cx="683.2" cy="441.2" r="8.9"/>
<circle cx="175.1" cy="466.6" r="8.9"/>
<circle cx="870" cy="336.1" r="8.9"/>
<circle cx="226.6" cy="358" r="5.7"/>
<circle cx="673.1" cy="657" r="5.7"/>
<circle cx="638.9" cy="358" r="5.2"/>
<circle cx="517.4" cy="161.8" r="5.2"/>
<circle cx="342.4" cy="427.1" r="5.2"/>
<circle cx="409.1" cy="450.1" r="8"/>
<circle cx="332" cy="347.6" r="3.9"/>
<circle cx="527.5" cy="352.8" r="3.9"/>
<circle cx="398.2" cy="175.3" r="3.9"/>
<circle cx="710.3" cy="337.4" r="3.9"/>
<g>
	<path d="M399.7,344.1c-4.8,0.1-7.2,8.6-11.9,16c-4.7,7.4-19.5,5.8-20.4,12c-0.8,6.2,12,14.7,13.7,19.9c3.2,9.5-0.6,16.3,4.7,20
		c5.3,3.6,13.3-8.9,18.2-9.2c4.8-0.3,18.1,10.4,23.8,3.9c5.7-6.5-3.6-17.1-2.9-22.9c0.7-5.8,12.5-12.4,11.1-19.2
		c-1.4-6.8-14.1-2.8-20.4-4.4C409.2,358.6,404.4,343.9,399.7,344.1z M411.5,376.2c0.4,2.1-3.1,4-3.3,5.8c-0.2,1.7,2.6,4.9,0.9,6.9
		c-1.7,2-5.7-1.3-7.2-1.2c-1.5,0.1-3.9,3.9-5.5,2.8c-1.6-1.1-0.5-3.2-1.4-6c-0.5-1.6-4.4-4.2-4.1-6c0.3-1.9,4.7-1.4,6.1-3.6
		c1.4-2.2,2.1-4.8,3.6-4.8c1.4,0,2.9,4.4,4.8,4.9C407.3,375.3,411.1,374.1,411.5,376.2z"/>
</g>
<g>
	<path d="M469.2,113.4c-3.3-0.7-6.4,4.7-10.8,8.9c-4.4,4.2-14.3,0.6-16,4.7c-1.6,4.1,5.7,12.1,6,16c0.6,7.1-3.2,11.1-0.2,14.5
		c3,3.4,10.6-3.8,14-3.2c3.4,0.6,10.6,10.2,15.6,6.7c5-3.5,0.4-12.3,1.9-16.1c1.5-3.8,10.6-6.3,10.9-11.2c0.2-4.9-9.2-4.3-13.2-6.5
		C473.3,125,472.5,114.2,469.2,113.4z M471.9,137.4c-0.1,1.5-2.8,2.2-3.3,3.4c-0.4,1.2,0.9,3.8-0.6,4.9c-1.5,1.1-3.7-1.9-4.7-2
		c-1-0.2-3.3,2-4.2,1c-0.9-1,0.2-2.2,0.1-4.4c-0.1-1.2-2.3-3.6-1.8-4.8c0.5-1.2,3.5-0.1,4.8-1.4c1.3-1.3,2.3-2.9,3.3-2.7
		c1,0.2,1.2,3.5,2.5,4.1C469.1,136.1,472,135.9,471.9,137.4z"/>
</g>
<circle cx="133.4" cy="716.9" r="20.9"/>
<circle cx="204.6" cy="716.9" r="20.9"/>
<circle cx="279.8" cy="719.4" r="20.9"/>
<circle cx="406.8" cy="716.9" r="20.9"/>
<circle cx="489.2" cy="716.9" r="20.9"/>
<circle cx="571.6" cy="716.9" r="20.9"/>
<circle cx="654" cy="716.9" r="20.9"/>
<circle cx="792.7" cy="716.9" r="20.9"/>
<circle cx="875.2" cy="716.9" r="20.9"/>
<g>
	<path d="M887.2,258.1c6.4,4.8,12.8,9.7,19.2,14.5c2.1,1.6,2.5,3.6,1.4,6c-1.7,3.7-3.2,7.5-4.9,11.2c-2.2,4.9-2.9,10-2.2,15.2
		c0.3,1.9,0.9,3.8,1.8,5.4c2.6,4.3,7.1,5,11,1.8c3.1-2.5,5.1-5.9,5.8-9.7c0.6-3.6,0.6-7.4,0.6-11.1c0-2.1-0.3-4.2-0.5-7
		c1.2,1.1,2,1.6,2.7,2.3c3.5,3.5,7,7,10.6,10.5c2.1,2,2.1,4,0.8,6.4c-3,5.2-5.4,10.7-7,16.5c-1.2,4.4-1.6,8.9-1,13.4
		c0.4,3.1,1.9,5.3,4.8,6.4c3,1.3,5.8,0.5,8.2-1.5c2-1.6,3.2-3.7,4-6.2c1.6-5,1.7-10.2,1.5-15.4c0-1.4-0.1-2.7-0.2-4.6
		c0.8,0.8,1.4,1.2,1.8,1.8c1.1,1.5,2,3,3.1,4.5c1.8,2.6,2.9,5.4,3.3,8.7c0.9,7.9,3.7,15.2,8.2,21.7c1.7,2.4,3.8,4.5,5.9,6.5
		c2.5,2.4,5.6,3.6,9,2.1c3.6-1.7,5.4-4.8,5.7-8.6c0.3-3.1-0.8-6-2.4-8.7c-3.3-5.7-7.9-10.1-12.9-14.2c-2.1-1.6-4.2-3-6.8-3.6
		c-0.8-0.2-1.8-0.7-2.3-1.3c-3.4-4.7-6.7-9.6-10-14.4c0.2-0.2,0.3-0.4,0.5-0.6c3.3,1.1,6.5,2.4,9.9,3.4c3.6,1,7.2,2.1,10.8,2.5
		c4.1,0.5,7.6-0.9,9.6-4.8c1.5-2.9,1.4-5.6-1-7.8c-1.9-1.7-4.1-3.3-6.5-4.1c-8.5-2.9-17.3-3.2-26.1-1.1c-1.7,0.4-3.4,1.2-5.4,2
		c-4.9-5.3-9.9-10.6-14.8-15.9c0.1-0.2,0.2-0.4,0.3-0.7c1.6,0.3,3.1,0.6,4.7,0.9c4.1,0.8,8.2,1.8,12.3,2.2c2.6,0.3,5.5,0.1,8-0.7
		c6.4-2,7.7-7.9,3.1-12.7c-3-3.2-6.8-4.8-11.1-5.3c-9.4-1-18.2,0.8-26.5,5.3c-1.6,0.9-2.7,1.2-4.3,0c-7.6-5.8-15.3-11.6-22.7-18
		c1.3,0,2.6-0.1,3.9,0c4.9,0.1,9.7,0.3,14.6,0.3c3.7,0,7.5-0.5,10.9-2.1c3.3-1.5,5.6-3.8,6.1-7.6c0.5-4-1.4-7.7-5.2-8.9
		c-2.6-0.9-5.5-1.4-8.3-1.2c-10.1,0.6-19.2,4-27.5,9.7c-1.6,1.1-2.8,2.6-4.5,4.1c-4.6-2.2-9.5-4.5-14.6-7c-0.9,1.1-1.9,2.2-3.1,3.6
		c5.3,3,10.2,5.8,15.4,8.7c-0.6,1.9-1,3.5-1.6,5.1c-2.4,6.5-3.7,13.3-3.7,20.2c0,3.1,0.5,6.3,1.5,9.3c1.1,3.5,3.7,5.7,7.5,5.9
		c4,0.2,7-1.5,8.9-5c1.5-2.8,2.3-5.8,2-8.8c-0.4-4.3-1.2-8.5-2-12.7c-0.4-2-1.1-3.9-1.6-5.8C886.7,258.5,886.9,258.3,887.2,258.1z"
		/>
</g>
<g>
	<path d="M198.5,282.4c-6.6,4.5-13.2,9.1-19.8,13.6c-2.2,1.5-2.6,3.5-1.7,5.9c1.5,3.8,2.9,7.6,4.4,11.4c1.9,5,2.5,10.1,1.5,15.3
		c-0.3,1.8-1.1,3.7-2.1,5.3c-2.8,4.2-7.3,4.7-11,1.3c-2.9-2.7-4.9-6.1-5.4-10c-0.5-3.6-0.2-7.4-0.1-11.1c0.1-2.1,0.5-4.2,0.9-7
		c-1.3,1-2.1,1.5-2.8,2.2c-3.7,3.3-7.3,6.7-11.1,10c-2.1,1.9-2.3,3.9-1,6.3c2.7,5.3,4.9,10.9,6.3,16.8c1,4.5,1.2,8.9,0.4,13.5
		c-0.5,3.1-2.2,5.2-5.1,6.2c-3.1,1.1-5.8,0.2-8.1-1.9c-1.9-1.7-3.1-3.9-3.7-6.3c-1.4-5.1-1.2-10.3-0.8-15.5c0.1-1.3,0.2-2.7,0.4-4.6
		c-0.9,0.8-1.5,1.2-1.9,1.7c-1.1,1.4-2.2,2.9-3.3,4.3c-1.9,2.6-3.2,5.3-3.7,8.6c-1.3,7.8-4.4,15-9.2,21.3c-1.8,2.3-4,4.3-6.2,6.2
		c-2.6,2.2-5.8,3.4-9.1,1.7c-3.5-1.8-5.2-5-5.3-8.9c-0.1-3.2,1.1-6,2.8-8.6c3.5-5.5,8.3-9.8,13.6-13.6c2.1-1.5,4.3-2.8,7-3.3
		c0.8-0.1,1.8-0.6,2.3-1.2c3.6-4.6,7.1-9.3,10.6-13.9c-0.2-0.2-0.3-0.4-0.5-0.6c-3.3,1-6.6,2.1-10,2.9c-3.6,0.9-7.3,1.8-10.9,2
		c-4.1,0.3-7.5-1.2-9.4-5.3c-1.3-2.9-1.1-5.6,1.3-7.7c1.9-1.6,4.3-3.1,6.7-3.9c8.6-2.5,17.4-2.4,26.1,0c1.7,0.5,3.3,1.4,5.3,2.2
		c5.1-5,10.3-10.1,15.5-15.2c-0.1-0.2-0.2-0.5-0.3-0.7c-1.6,0.2-3.1,0.4-4.7,0.6c-4.1,0.6-8.3,1.4-12.4,1.6c-2.6,0.1-5.5-0.2-8-1.1
		c-6.3-2.3-7.3-8.2-2.5-12.9c3.1-3,7-4.5,11.3-4.8c9.4-0.6,18.2,1.6,26.2,6.5c1.5,0.9,2.7,1.3,4.3,0.2c7.9-5.5,15.8-10.9,23.5-17
		c-1.3-0.1-2.6-0.2-3.9-0.2c-4.9-0.1-9.7-0.1-14.6-0.4c-3.7-0.2-7.4-0.9-10.8-2.6c-3.2-1.6-5.4-4-5.7-7.8c-0.3-4,1.8-7.6,5.6-8.7
		c2.7-0.7,5.6-1.1,8.3-0.9c10,1,19,4.8,27,10.9c1.5,1.1,2.7,2.7,4.3,4.3c4.7-2,9.7-4.1,14.9-6.3c0.9,1.2,1.8,2.3,2.9,3.8
		c-5.4,2.7-10.5,5.3-15.8,8c0.5,2,0.9,3.6,1.4,5.2c2.1,6.6,3.1,13.5,2.8,20.4c-0.1,3.1-0.8,6.3-1.9,9.2c-1.2,3.4-3.9,5.5-7.8,5.6
		c-4,0-6.9-1.8-8.7-5.4c-1.4-2.8-2-5.8-1.6-8.9c0.6-4.2,1.6-8.4,2.5-12.6c0.4-1.9,1.2-3.8,1.9-5.7
		C199,282.8,198.8,282.6,198.5,282.4z"/>
</g>
<path d="M901.8,827.3c-7.9-18-21.7-34-41.2-47.9l-2.5-1.5c0-2,0-4,0-6c0-2-0.2-4-0.5-6c-0.7-6-2.8-12-6.4-18.1
	c-3.6-6.1-8.9-9.2-15.9-9.2c-5.3,0-9.3,1.6-11.9,4.7c-2.7,3.1-4.5,7-5.5,11.7c-1,5.6-0.5,10.8,1.5,15.4c2,4.6,5,8.8,8.9,12.4
	c-4.6,15.9-9.8,31.1-15.6,45.7c-3.6,9.1-7.4,17.9-11.3,26.5c-1.7,3.6-3.7,7.7-5.8,12.3c-0.5,1-0.9,2-1.4,3c-0.1,0.2-0.2,0.5-0.3,0.7
	c-0.5,1-0.9,2-1.4,3c-4.8,10.1-10.1,20.1-15.9,30c-5.8,9.9-11.7,19.1-17.9,27.5c-6.1,8.4-11.7,14.1-16.6,17.1c-2.3,1.3-4.5,2-6.5,2
	c-3.3,0-5.6-1.7-6.9-5c-1.3-3.3-2.3-6.3-3-8.9c-0.3-3.3-0.6-6.5-0.7-9.7c-0.2-3.1-0.2-6.4-0.2-9.7c0-7.6-0.1-15-0.2-22.3
	c-0.2-7.3-1.6-14.6-4.2-21.8c8.3-2,15.7-5.2,22.3-9.7c6.6-4.5,13.2-9.3,19.8-14.6c7.6-6.3,13.9-14.1,18.9-23.6
	c5-9.4,7.9-18.9,8.9-28.5c0.7-9.6-2-16.9-7.9-21.8c-6-5-13.7-6.6-23.3-5c-9.9,1.7-19.3,6.1-28,13.4c-8.8,7.3-16.6,14.4-23.6,21.3
	c1.3-4.3,3.1-9.1,5.5-14.4c1.7-3.3,3.1-6.4,4.2-9.4c1.2-3,2.6-6.1,4.2-9.4l16.9-37.2c1.7-3.3,3.1-6.5,4.2-9.7
	c1.2-3.1,2.6-6.2,4.2-9.2c0.3-0.7,0.5-1.5,0.5-2.5c1.3-4.6,0.2-7.8-3.5-9.4c-1.7-1-3.6-1.3-5.7-1c-2.2,0.3-4.1,1.3-5.7,3
	c-1,1-2.3,3-4,6c-1.7,3-3.3,6.2-5,9.7c-1.7,3.5-3.1,6.7-4.5,9.7c-1.3,3-2.3,5.3-3,6.9c-8.6,19.2-17.3,38.3-26.1,57.3
	c-7.7,16.7-15.3,33.4-22.8,50.2c-1,1-1.9,2.4-2.7,4.1c-1.7,4-3.5,8.2-5.5,12.7c-2,4.5-4.1,9-6.5,13.6c-2.7,5.3-5.5,11.3-8.7,18.1
	c-3.1,6.8-6.7,13.5-10.7,20.1c-7.9,13.2-16.8,22.8-26.5,28.8c-9.8,6-18.9,8.9-27.5,8.9c-7.9,0-15.1-2.3-21.3-6.9
	c-8.9-8.3-14.6-17.8-17.1-28.5c-2.5-10.7-2.6-21.9-0.2-33.5c0.3-2.3,1.2-5,2.5-7.9c2.6,0.7,5.1,1.2,7.4,1.5c2.3,0.3,4.8,0.5,7.4,0.5
	c7.9,0,16-1.9,24.3-5.7c8.3-3.8,16.1-8.7,23.6-14.6c7.4-6,14.2-12.4,20.3-19.4c6.1-6.9,11.2-13.6,15.1-19.8c3-5.3,5.4-10.6,7.2-15.9
	c1.8-5.3,2.4-11.1,1.7-17.4c-1.7-11.6-8.3-18.7-19.8-21.3c-3.6-0.7-7.2-0.7-10.7-0.2c-3.5,0.5-7,1.4-10.7,2.7
	c-10.6,4.3-20.6,10.9-30,19.8c-9.4,8.9-17.6,17.7-24.6,26.3c-9.6,12.1-17,23.9-22.6,35.3c-0.6,0.8-1.2,1.8-1.7,2.9
	c-1.7,4-3.5,8.2-5.5,12.7c-2,4.5-4.1,9-6.5,13.6c-2.7,5.3-5.5,11.3-8.7,18.1c-3.1,6.8-6.7,13.5-10.7,20.1
	c-7.9,13.2-16.8,22.8-26.5,28.8c-9.8,6-18.9,8.9-27.5,8.9c-7.9,0-15.1-2.3-21.3-6.9c-8.9-8.3-14.6-17.8-17.1-28.5
	c-2.5-10.7-2.6-21.9-0.2-33.5c0.3-2.3,1.2-5,2.5-7.9c2.6,0.7,5.1,1.2,7.4,1.5c2.3,0.3,4.8,0.5,7.4,0.5c7.9,0,16-1.9,24.3-5.7
	c8.3-3.8,16.1-8.7,23.6-14.6c7.4-6,14.2-12.4,20.3-19.4c6.1-6.9,11.2-13.6,15.1-19.8c3-5.3,5.4-10.6,7.2-15.9
	c1.8-5.3,2.4-11.1,1.7-17.4c-1.7-11.6-8.3-18.7-19.8-21.3c-3.6-0.7-7.2-0.7-10.7-0.2c-3.5,0.5-7,1.4-10.7,2.7
	c-10.6,4.3-20.6,10.9-30,19.8c-9.4,8.9-17.6,17.7-24.6,26.3c-14.4,18.3-24.3,35.8-29.6,52.5c-0.1,0.1-0.1,0.2-0.2,0.3
	c-3,6.5-6.5,13.4-10.4,20.8c-4,7.4-8.3,15.1-12.9,23.1c-4.6,7.9-9.4,15.1-14.1,21.3c-4.8,6.3-9.5,11.5-14.1,15.6
	c-4.6,4.1-8.9,6.2-12.9,6.2c-3.6,0-6.6-2-8.9-6c-2.3-4-2.3-12.2,0-24.8c1.7-7.6,4-14.9,7.2-21.8c3.1-6.9,6.5-13.7,10.2-20.3
	l15.4-29.3c3.6-6.6,7.1-13.4,10.4-20.3c3.3-6.9,6.3-14.1,8.9-21.3c2.3-5.6,3-11.7,2-18.4c-1.7-8.9-5.4-15-11.2-18.1
	c-5.8-3.1-12.3-3.9-19.6-2.2c-11.9,3-21.9,8.6-30,16.9c-8.1,8.3-15.8,17-23.1,26.3c6.6-14.6,13.6-28.8,20.8-42.7
	c7.3-13.9,15.2-27.5,23.8-40.7c2.3-3.6,5-6.8,8.2-9.4c3.1-2.6,7-4.5,11.7-5.5l0.5-0.5h0.5c4-2,5.6-5.1,5-9.4c-0.7-3.6-3-6-6.9-6.9
	c-3.6-1-7.3-0.7-10.9,1c-5.3,2-10.3,5.3-14.9,9.9c-4.6,4.6-9,9.8-13.2,15.4c-4.1,5.6-7.9,11.4-11.2,17.4c-3.3,6-6.1,11.3-8.4,15.9
	c-6.6,12.9-14.1,28.1-22.3,45.7c-6.8,14.5-13.5,29.4-20,44.6c-0.7,0.9-1.3,1.9-1.8,3.1c-1.7,4-3.5,8.2-5.5,12.7
	c-2,4.5-4.1,9-6.4,13.6c-2.7,5.3-5.5,11.3-8.7,18.1c-3.1,6.8-6.7,13.5-10.7,20.1c-7.9,13.6-17,23.4-27.3,29.5
	c-10.3,6.1-20.2,9.2-29.8,9.2c-9.6,0-18.1-2.6-25.6-7.9c-7.4-5.3-12.7-12.7-15.6-22.3c-3.6-10.9-4.3-23.5-2-37.7
	c2-10.2,4.9-20.4,8.7-30.5c3.8-10.1,8.7-19.4,14.6-28c6-8.6,12.8-16.5,20.6-23.6c7.8-7.1,16.6-12.8,26.5-17.1
	c5.3-2.3,11.2-3.1,17.9-2.5c6.6,0.7,10.9,4.1,12.9,10.4c2,5.6,1.7,11.6-1,17.9c-2.7,6-5.9,11.3-9.7,16.1c-3.8,4.8-8.2,9.2-13.2,13.1
	c-1.7,1.7-3.4,2.9-5.2,3.7c-1.8,0.8-4.1,1.1-6.7,0.7c-5.3-0.7-8.4,1.7-9.4,6.9c-1,5,1,8.3,6,9.9c3.3,1,6.3,1.3,8.9,1
	c5-0.7,9.8-2.4,14.4-5.2c4.6-2.8,9-6.2,13.2-10.2c4.1-4,7.9-8.3,11.2-12.9c3.3-4.6,6-8.9,7.9-12.9c5-9.9,6.3-20.2,4-30.8
	c-2-8.3-5.9-15-11.7-20.1c-5.8-5.1-13.3-7.9-22.6-8.2c-11.9-0.3-23.2,2.5-33.7,8.4c-21.2,11.9-38,28.4-50.6,49.4
	c-12.6,21-20.5,43.4-23.8,67.2c-2.3,18.2-0.7,34.1,5,47.6c5,11.9,12.8,21.1,23.6,27.5c10.7,6.5,22.4,9.7,35,9.7
	c12.6,0,25.5-3.6,38.7-10.7c4.9-2.6,9.6-5.9,14-9.7c-0.6,2.4-1.1,4.7-1.6,7c-0.7,2.7-0.4,5.2,0.7,7.7c1.2,2.5,3.1,4.1,5.7,4.7
	c5.6,2.3,9.8,0.3,12.4-6l3-7.9c4-11.6,8-23.2,12.2-34.7c4.1-11.6,8.4-23.2,12.7-34.7c4-6.9,8.7-14.6,14.1-23.1
	c5.5-8.4,11.3-16.9,17.6-25.3c6.3-8.4,12.8-16.4,19.6-23.8c6.8-7.4,13.3-13.6,19.6-18.6c2-1.7,3.9-3.1,5.7-4.2
	c1.8-1.2,3.9-2.4,6.2-3.7c3-1.7,6.1-2,9.4-1l1.5,2.5c0.7,1.7,0.8,3.5,0.5,5.5c-0.3,2-0.8,3.8-1.5,5.5c-2,4.6-3.9,9.1-5.7,13.4
	c-1.8,4.3-3.9,8.6-6.2,12.9l-29.8,57.1c-2.3,4.6-4.4,9.3-6.2,14.1c-1.8,4.8-3.2,9.7-4.2,14.6c-1.3,5.6-2,11.3-2,17.1
	c0,5.8,0.8,11.5,2.5,17.1c1,4,2.8,7.4,5.5,10.4c7.9,9.9,18.2,13.7,30.8,11.4c8.6-2,17.1-7.7,25.6-17.1s16.2-20,23.3-31.8
	c1-1.6,1.9-3.2,2.9-4.9c0.5,2.8,1.1,5.5,1.8,8.1c4.3,14.6,12,26.1,23.1,34.7c11.1,8.6,23.2,12.9,36.5,12.9c11.6,0,23.2-3.5,35-10.4
	c11.7-6.9,22.4-18.4,32-34.2c2.1-3.5,4.1-7,6.2-10.6c0.5,2.6,1,5.2,1.8,7.6c4.3,14.6,12,26.1,23.1,34.7
	c11.1,8.6,23.2,12.9,36.5,12.9c11.6,0,23.2-3.5,35-10.4c0.3-0.2,0.6-0.4,0.9-0.6c0,0,0,0.1,0.1,0.1c1.8,2.7,4.4,4,7.7,4
	c2.7,0,5.2-1,7.7-3c2.5-2,4.2-4.1,5.2-6.5l38.7-73.9l3-4.5c2.3,1.3,4.8,2,7.4,2c5,0,9.9-0.5,14.9-1.5c0,0.3,0.1,0.6,0.2,0.7
	c0.2,0.2,0.2,0.6,0.2,1.2l1.5,3c0,0.7,0.1,1.1,0.2,1.2c0.2,0.2,0.2,0.4,0.2,0.7c0.3,4.3,0.6,8.5,0.7,12.7c0.2,4.1,0.2,8.4,0.2,12.7
	l-0.5,12.9c0,7.9,0.9,16,2.7,24.3c1.8,8.3,6.4,14.7,13.6,19.4c5.6,3.6,12.4,4.8,20.3,3.5c3-0.7,5.9-1.7,8.7-3c2.8-1.3,5.4-3,7.7-5
	c6.3-5.3,12.6-12.2,18.9-20.8c0.3-0.4,0.5-0.7,0.8-1.1c0.6,1.8,1.4,3.6,2.2,5.3c3,6.1,7,11.5,12.2,16.1c5.1,4.6,11.2,7.9,18.1,9.9
	s13.7,3,20.3,3c12.9,0,24.1-2.6,33.5-7.9c9.4-5.3,17.4-12.3,23.8-21.1c6.5-8.8,11.6-18.7,15.4-29.8c3.8-11.1,6.4-22.2,7.7-33.5
	C912.7,863.6,909.7,845.4,901.8,827.3z M426.2,836c5.5-8.3,11.7-16.2,18.9-23.8c7.1-7.6,14.6-14.3,22.3-20.1
	c7.8-5.8,15.3-9,22.6-9.7c3-0.3,4.6,1.2,5,4.5c0,7.3-2.7,15.1-7.9,23.6c-5.3,8.4-11.8,16.1-19.6,23.1c-7.8,6.9-16,12.7-24.6,17.4
	c-8.6,4.6-16.2,6.9-22.8,6.9c-1,0-1.9-0.1-2.7-0.2c-0.8-0.2-1.9-0.2-3.2-0.2C416.6,851.4,420.7,844.3,426.2,836z M560.6,836
	c5.5-8.3,11.7-16.2,18.9-23.8c7.1-7.6,14.6-14.3,22.3-20.1c7.8-5.8,15.3-9,22.6-9.7c3-0.3,4.6,1.2,5,4.5c0,7.3-2.7,15.1-7.9,23.6
	c-5.3,8.4-11.8,16.1-19.6,23.1c-7.8,6.9-16,12.7-24.6,17.4c-8.6,4.6-16.2,6.9-22.8,6.9c-1,0-1.9-0.1-2.7-0.2
	c-0.8-0.2-1.9-0.2-3.2-0.2C551.1,851.4,555.2,844.3,560.6,836z M709.7,855.4c-2,0.3-4.1,0.7-6.2,1c-2.2,0.3-4.2,0.8-6.2,1.5h-1.5
	l-3,0.5h-1.5c0.3-0.3,0.5-0.7,0.5-1c3.6-5.6,8.1-12.2,13.4-19.6c5.3-7.4,11.1-14.5,17.4-21.1c6.3-6.6,12.9-12.5,19.8-17.6
	c6.9-5.1,13.7-8.2,20.3-9.2c5.3-1,7.6,1.2,6.9,6.4c0,2.7-0.5,5.3-1.5,7.9c-2,6.3-4.9,12.3-8.7,18.1c-3.8,5.8-8.3,10.9-13.4,15.4
	c-5.1,4.5-10.8,8.3-17.1,11.4C722.8,852.3,716.3,854.4,709.7,855.4z M888.6,900c-3.8,12.2-10,23.8-18.6,34.7
	c-9.9,12.6-22.3,18.9-37.2,18.9c-7.9,0-14.4-0.7-19.4-2.2c-5-1.5-9.9-5.5-14.9-12.2c-3.6-5-5-10.7-4.2-17.4c0.8-6.6,3-12.8,6.5-18.6
	c3.5-5.8,7.9-10.7,13.4-14.9c5.5-4.1,10.8-6.2,16.1-6.2c3.6,0,6,1.7,6.9,5c1,3.3,1.5,6.3,1.5,8.9c0.7,6.3,3.6,9.8,8.9,10.4
	c2.6,0.3,4.9-0.4,6.7-2.2c1.8-1.8,3.1-4.2,3.7-7.2c1.7-7.6,1.6-14-0.2-19.1c-1.8-5.1-4.6-9.2-8.4-12.2c-3.8-3-8.3-4.9-13.4-5.7
	c-5.1-0.8-10.3-0.6-15.6,0.7c4.6-10.3,8.8-20.8,12.4-31.5c3.6-10.7,7.6-21.7,11.9-33c6,4.3,11.3,8.3,16.1,11.9
	c4.8,3.6,9.1,7.7,12.9,12.2c3.8,4.5,7.1,9.9,9.9,16.4c2.8,6.4,5,14.6,6.7,24.6C893,874.9,892.4,887.8,888.6,900z"/>
<g>
	<path d="M374.8,118c1.1-0.1,2.1,0.2,2.9,0.9c0.8,0.7,1.2,1.7,1.2,3l-0.2,202.8c0,0.9-0.3,1.7-0.9,2.4c-0.6,0.7-1.3,1.1-2.3,1.2
		l-41.9,7.8c-1.1,0.1-2.1-0.2-3-0.9c-0.8-0.7-1.3-1.6-1.4-2.9v-9.5l-7.5,1.4c-1.1,0.1-2.1-0.2-3-0.9c-0.8-0.7-1.3-1.6-1.4-2.9v-74.8
		l-23.8-0.6v83.8c0,0.9-0.3,1.8-1,2.5c-0.7,0.7-1.5,1.1-2.6,1.1l-41.9,3.6c-1.1,0.1-2.1-0.2-2.9-1c-0.8-0.8-1.2-1.8-1.2-3v-8.4
		l-7.8,0.6c-1.1,0.1-2.1-0.2-2.9-1c-0.8-0.8-1.2-1.8-1.2-3l0.2-202.6c0-0.9,0.3-1.7,0.9-2.4c0.6-0.7,1.3-1.1,2.3-1.3l41.9-7.6
		c1.1-0.1,2.1,0.2,3,0.9c0.8,0.7,1.3,1.6,1.4,2.9v9.5l7.5-1.4c1.1-0.1,2.1,0.2,3,0.9c0.8,0.7,1.3,1.6,1.4,2.9v73.5h23.8v-81.9
		c0-0.9,0.3-1.8,1-2.5c0.7-0.7,1.5-1.1,2.6-1.1l41.9-3.6c1.1-0.1,2.1,0.2,2.9,0.9c0.8,0.7,1.2,1.7,1.2,3v8.6L374.8,118z
		 M359.7,113.8l-34.7,3v82.1c0,1-0.4,1.9-1.1,2.6c-0.7,0.7-1.6,1.1-2.7,1.1h-43.1c-1,0-1.9-0.3-2.6-1c-0.7-0.7-1.1-1.5-1.1-2.6
		v-84.7l-34.6,6.2l-0.2,195.9l34.7-2.8v-84.3c0-1,0.4-1.9,1.2-2.6c0.8-0.7,1.8-1.1,3-1.1l42.5,1.4h0.2c1,0,1.9,0.4,2.7,1.1
		c0.7,0.7,1.1,1.6,1.1,2.6v85.4c5.5-1,11-2,16.4-3c6-1.1,12.1-2.3,18.2-3.4L359.7,113.8z"/>
	<path d="M469.6,290c5.2,0.4,10.5-0.1,15.8-1.3c4.5-1.1,8.9-2.8,13.4-5c1-0.5,2.1-0.5,3.1-0.1s1.7,1.3,2,2.4l2.6,11.4
		c1.3-0.6,2.7-1.2,4-1.9c1.2-0.6,2.4-0.6,3.3,0c1,0.6,1.6,1.6,1.9,3l6.1,26c0.2,1,0.1,1.9-0.4,2.7c-0.5,0.8-1.2,1.3-2.1,1.6
		c-20.4,7.7-39.8,10.2-58.3,7.5c-8.4-1.4-16.1-4-23.2-7.9c-7.1-3.9-13.1-9.2-18.1-16c-8.9-6.4-15.7-15.5-20.2-27.3
		c-3.9-10.2-5.7-22-5.3-35.5c0.4-14.5,2.8-27,7-37.4c4.3-10.4,9.9-18.8,16.8-25.4c7.1-6.7,14.8-11.7,23.2-14.7
		c8.4-3.1,16.8-4.5,25.2-4.3c9.6,0.2,18.2,2.2,25.9,5.8c7.7,3.7,13.9,9,18.5,15.8c6.3,4.4,11.3,10.1,14.9,17.1
		c3.5,6.8,5.3,14.6,5.3,23.7c0,7.2-1.9,14.2-5.8,21.1c-3.9,6.9-9.1,12.9-15.7,18c-15.4,11.6-34,16.3-55.9,14
		c0.4,0.8,0.8,1.7,1.2,2.5C459.5,288.3,464.3,289.7,469.6,290z M434,264.7c0.8-0.9,2-1.3,3.4-1.1c4.5,0.7,9.4,1,14.8,0.8
		c5.4-0.2,10.9-1,16.5-2.3c5.6-1.3,11-3.2,16.1-5.7c5.1-2.4,9.8-5.5,13.9-9c4.1-3.6,7.4-7.8,9.8-12.5c2.4-4.8,3.7-10.2,3.7-16.2
		c0-9.2-2.1-17.1-6.2-23.5c-4.2-6.4-9.8-11.3-16.8-14.7c-7.1-3.4-15-5.1-23.8-5.1c-7.2,0-14.4,1.3-21.7,4c-7.3,2.7-14,7-20.2,12.9
		c-6.6,6.3-11.9,14.5-15.8,24.5c-3.9,10-5.8,22-5.8,36.1c0,8.5,1,16.5,3,24.1c2,7.5,5.2,14.2,9.7,20s10.1,10.5,17.2,14.2
		c7.1,3.6,14.6,5.8,22.7,6.6c8.1,0.8,16.2,0.5,24.5-0.7c8.2-1.2,16-3.2,23.4-5.8l-4.4-19c-6.5,2.8-13.3,4.5-20.2,5.1
		c-7,0.6-13.7-0.2-20.1-2.3c-12.9-4.6-21-13.5-24.3-26.8C432.9,266.9,433.2,265.7,434,264.7z M433.4,252.8c-0.8-0.8-1.1-1.7-1-2.9
		c0.2-4.9,0.9-10,2.1-15.3c1.2-5.3,2.9-10.4,5.1-15.4c2.2-5,5-9.5,8.3-13.5c3.3-4,7.2-7.2,11.8-9.7c4.5-2.4,9.7-3.7,15.5-3.7
		c3.1,0,5.8,0.9,8,2.8c2.2,1.9,3.9,4.4,5.1,7.6c1.1,3.2,1.7,6.7,1.6,10.5c-0.6,9-3.7,16.5-9.2,22.3c-5.5,5.8-12.3,10.2-20.2,13.2
		c-8,3-16,4.6-24.1,5.1C435.2,253.9,434.2,253.6,433.4,252.8z M464.8,223.3c-4.6,5.9-7.9,12.5-10,19.8c6.5-2.1,11.8-4.8,15.9-8.3
		c4-3.4,7-7.1,8.9-11.1c1.8-3.7,2.7-7.6,3-11.7C475.3,213.6,469.4,217.4,464.8,223.3z"/>
	<path d="M596.3,335.7c-0.1,1.1-0.5,2-1.3,2.7c-0.8,0.7-1.7,1-2.9,0.9l-37.4-4.4c-1-0.1-1.9-0.5-2.5-1.3c-0.6-0.8-0.9-1.7-0.8-2.7
		l0.2-6.7l-8.7-1.1c-1-0.1-1.9-0.5-2.5-1.3c-0.6-0.8-0.9-1.7-0.8-2.7l7.2-207.5c0-1.1,0.4-2,1.2-2.7c0.8-0.7,1.8-1,2.8-0.9
		c8.4,1.1,16.8,2.2,25.1,3.3c4.2,0.6,8.3,1.2,12.5,1.7c0.9,0.1,1.7,0.5,2.3,1.2c0.6,0.7,0.9,1.6,0.8,2.5l-0.2,6.9
		c1.6,0.2,3.2,0.4,4.8,0.6c1.3,0.2,2.7,0.4,4.1,0.6c0.9,0.1,1.7,0.5,2.3,1.2c0.6,0.7,0.9,1.6,0.8,2.5L596.3,335.7z M584,119.9
		l-30.1-3.9l-6.9,200.3l30.1,3.4L584,119.9z"/>
	<path d="M676.2,335.7c-0.1,1.1-0.5,2-1.3,2.7c-0.8,0.7-1.7,1-2.9,0.9l-37.4-4.4c-1-0.1-1.9-0.5-2.5-1.3c-0.6-0.8-0.9-1.7-0.8-2.7
		l0.2-6.7l-8.7-1.1c-1-0.1-1.9-0.5-2.5-1.3c-0.6-0.8-0.9-1.7-0.8-2.7l7.2-207.5c0-1.1,0.4-2,1.2-2.7c0.8-0.7,1.8-1,2.8-0.9
		c8.4,1.1,16.8,2.2,25.1,3.3c4.1,0.6,8.3,1.2,12.5,1.7c0.9,0.1,1.7,0.5,2.3,1.2c0.6,0.7,0.9,1.6,0.8,2.5l-0.2,6.9
		c1.6,0.2,3.2,0.4,4.8,0.6c1.3,0.2,2.7,0.4,4,0.6c0.9,0.1,1.7,0.5,2.3,1.2c0.6,0.7,0.9,1.6,0.8,2.5L676.2,335.7z M663.9,119.9
		l-30.1-3.9L627,316.3l30.1,3.4L663.9,119.9z"/>
	<path d="M707.6,297.9c-4-7.1-6.9-14.9-8.7-23.6c-1.8-8.7-2.7-17.8-2.7-27.3c0-27.3,5.9-48,17.8-62.1c12.3-14.5,29.8-21.8,52.6-21.8
		c12.1,0,22.8,1.9,31.9,5.8c9.1,3.9,16.8,9.4,23,16.4c1,1.1,2,2.3,2.8,3.6c9.6,7.3,16.7,16.8,21.3,28.5c5,12.4,7.5,26.3,7.5,41.7
		c0,24.8-6.8,44.5-20.2,59.2c-6.5,7-14.5,12.3-23.8,16c-9.3,3.7-19.9,5.6-31.8,5.6c-11,0-21.1-1.9-30.4-5.7
		c-9.2-3.8-17-9.9-23.4-18.5C716.9,310.9,711.6,305,707.6,297.9z M830.1,217.7c-2.4-9.2-6.3-17.4-11.7-24.5
		c-5.3-7.1-12.3-12.6-20.9-16.7c-8.6-4.1-18.9-6.1-31.1-6.1c-11.4,0-21.2,1.8-29.2,5.5c-8,3.7-14.6,8.9-19.5,15.7
		c-5,6.8-8.6,14.9-10.9,24.2c-2.3,9.3-3.4,19.7-3.4,31c0,10.7,1.1,20.5,3.4,29.5c2.3,9,5.9,16.8,10.8,23.4
		c4.9,6.6,11.3,11.7,19.2,15.3c7.8,3.6,17.4,5.5,28.6,5.5c15,0,27.5-3,37.6-9.1c10.1-6.1,17.8-14.6,23-25.7
		c5.2-11.1,7.8-23.9,7.8-38.5C833.8,236.8,832.6,226.9,830.1,217.7z M740.3,279.9c-1.3-4.9-2.2-10.1-2.6-15.7
		c-0.4-5.5-0.6-10.9-0.6-16.2c0-7.6,0.8-15,2.4-22.1c1.6-7.2,3.9-13.5,6.9-19.2c2.9-5.5,6.5-9.8,10.7-12.9c4.2-3.1,9-4.6,14.4-4.5
		c6.4,0.2,11.6,2.1,15.5,5.8c3.9,3.6,6.8,8.5,8.8,14.6c1.9,5.6,3.1,11.8,3.7,18.6c0.6,6.8,0.9,13.6,0.9,20.5c0,4.9-0.2,9.9-0.7,15.1
		c-0.5,5.2-1.3,10.1-2.6,14.9c-1.3,4.7-3.1,9-5.5,12.7c-2.4,3.7-5.5,6.7-9.3,8.9c-3.8,2.2-8.5,3.3-14.1,3.3c-5,0-9.3-0.9-13-2.7
		c-3.7-1.8-6.7-4.5-9.1-8.2C743.5,289.1,741.6,284.8,740.3,279.9z M761.1,295.3c2.1,0.7,4.4,1.1,7,1.1c4.6,0,8.4-1,11.5-3.1
		c3.1-2.1,5.6-5,7.5-8.9c2.1-4.3,3.6-9.4,4.4-15.4c0.9-6,1.3-12.7,1.3-20.1c0-6.7-0.3-13.7-0.9-20.9c-0.6-7.2-2-13.4-4.2-18.8
		c-1.6-0.4-3.2-0.6-5-0.6c-3.7,0-7.1,1.2-10.1,3.7c-3,2.4-5.7,5.8-7.9,10c-2.7,5-4.8,10.7-6.2,17.3c-1.5,6.5-2.2,13.3-2.2,20.4
		c0,8.2,0.4,15.4,1.2,21.7C758.3,286.9,759.5,291.5,761.1,295.3z"/>
</g>
<g>
	<path d="M184.3,509.6c-29.3-9.2-45.1-28.2-42.2-50.8c1.9-14.8,12.6-30.2,32.4-31.2c6.8-0.4,19.1-0.1,24,5.7
		c4.9,5.8,4.2,18.1,3.1,23.1l23,5.4l23,5.6c0.9-3.9,8.6-38.6-12.7-64.2c-9.5-11.4-28.1-24.6-63-22.7c-40.1,2.2-71.6,32-76.7,72.6
		c-4.4,34.7,12.7,82.2,75,101.8c32.2,10.1,40.8,34.1,38.4,51.6c-1.8,13.3-10.3,27.6-28.8,28.2c-14.2,0.5-24.4-2.4-30.2-8.6
		c-4.8-5.1-10-15.9-7.9-38.3c0.1-1.2,0.2-2,0.2-2.6l-47.2-2.8l-0.1,0.9c-3.8,40,9,62.9,20.5,75.1c14.7,15.7,35.5,23.6,61.8,23.6
		c1.5,0,2.9,0,4.4-0.1c38.3-1.2,68.7-29.7,74.1-69.1C260.7,574.1,240.7,527.3,184.3,509.6z"/>
	<path d="M482,428.9l-46.9,6.2c0.1,0.5,6.1,46.4,7.7,73.5c1.8,30.4,1.8,64.3,0,90.6c-0.5,3.4-3.8,11.9-8.3,21.9
		c-4.2-11.2-8.5-22.7-10.1-28.4c-9.4-32.9-28.4-112.1-28.6-112.9c-2.5-10.6-12-18.1-22.9-18.1c0,0,0,0-0.1,0c-10.9,0-20.4,7.4-23,18
		c-0.2,0.7-16.1,66-24.3,94.3c-1.4,4.9-4.3,13.1-7.8,22.2c-4.4-37.4-8.4-76.4-8.4-88.1c0-15.7,3.6-57.5,6.2-88.1
		c2.3-27.5,3.6-42.1,3.6-48h-47.3c0,4.2-1.8,25.3-3.4,44c-3,34.9-6.3,74.4-6.3,92.1c0,24.9,12.7,126.6,14.1,138.1
		c1,8,6.1,15,13.4,18.4l21.1,10c3.2,1.5,6.6,2.2,10.1,2.2c2.9,0,5.8-0.5,8.6-1.6c6-2.4,10.8-7.1,13.3-13.1
		c2.3-5.6,22.6-55.7,28.2-74.9c0.5-1.7,1-3.5,1.5-5.3c2.4,9,4.6,17.3,6.5,23.9c4.2,14.5,19,51.9,20.6,56.2c3.6,9,12.3,14.9,22,14.9
		h23.6c8.8,0,16.9-4.9,21-12.7c8.4-16.2,22.7-45.6,23.8-61.4c1.9-28.3,1.9-64.5,0-96.9C488.3,477,482.3,430.9,482,428.9z"/>
	<path d="M618,528.4c34.1-21.8,50-41.1,50-60.7c0-40.9-14-72.6-38.2-87c-11.1-6.6-34.6-15.2-66.8,2.2c-22.7,12.3-40.7,37-52.3,71.6
		c-9.2,27.6-13.9,60-13.1,91.1c1,42.3,5.6,84.8,32.4,109.2C543.1,666.9,560,673,580,673c2.4,0,4.8-0.1,7.2-0.2
		c31.4-2.2,56.3-22.7,70-57.9c9-23.1,10.5-44.9,10.6-47.3l-47.2-2.8c0,0.6-4.6,58.6-36.7,60.8c-13.3,0.9-19.1-2.8-22.2-5.7
		c-11.2-10.2-14.9-35.4-16.2-55.6c4.9-1.7,10.5-3.9,16.9-6.6C581.2,549.7,601.4,539,618,528.4z M585.4,424.5
		c4.3-2.3,9.7-4.6,14.5-4.6c2,0,4,0.4,5.6,1.4c7,4.2,14.6,19.7,15.1,44.2c-2.9,4.3-14.9,16.4-44.8,33c-10.8,6-21.1,11-29.7,14.8
		C550.7,471.2,566,435,585.4,424.5z"/>
	<path d="M816.7,366.1c-70.6,1.5-137.9,4.6-138.6,4.7l2.2,47.2c66.5-3.2,124.8-4.8,171.5-5.2c-2.8,40.3-7.4,115.1-5.6,146
		c2.4,39.6-0.4,114-0.4,114.8l47.2,1.8c0.1-3.1,2.9-77.5,0.4-119.4c-1.7-28.8,3.1-104.8,5.8-143.2c39.8,0.4,65.2,2.1,72.2,4.5
		l17.8-43.8C981.6,370.3,963.7,363.1,816.7,366.1z"/>
	<path d="M781.7,555.9c26.6-17.3,38.5-32.5,38.5-49.3c0-33.4-11.9-59.7-32.5-72.2c-9.8-6-30.6-13.7-58.9,1.1
		c-40.1,21-56.8,81.5-55.6,132.3c0.8,33.9,4.7,68.2,27.2,88.7c11.6,10.6,26.5,16,44.1,16c2,0,4-0.1,6.1-0.2
		c27.2-1.8,48.7-19,60.5-48.3c7.6-18.9,8.9-36.8,9-38.8l-47.2-2.9c0,0.1-0.9,12.8-6,24.9c-7.2,17.2-16.1,17.8-19.5,18
		c-10.5,0.7-14-2.5-15.2-3.5c-6.9-6.3-9.7-21.9-10.9-35.6c3.7-1.3,7.9-3,12.5-4.9C750.5,574,767.9,564.9,781.7,555.9z M750.7,477.5
		c1.6-0.9,6.3-3.1,9.9-3.1c1,0,1.9,0.2,2.6,0.6c3.6,2.2,8.9,11.4,9.6,28.1c-3.3,3.8-13.2,12.3-34.5,23.6c-5.5,2.9-10.8,5.5-15.5,7.7
		C727.3,507,737.9,484.2,750.7,477.5z"/>
</g>
</svg>
