<?xml version="1.0" encoding="utf-8"?>
<!-- Generator: Adobe Illustrator 22.0.0, SVG Export Plug-In . SVG Version: 6.00 Build 0)  -->
<svg version="1.1" id="Layer_1" xmlns="http://www.w3.org/2000/svg" xmlns:xlink="http://www.w3.org/1999/xlink" x="0px" y="0px"
	 viewBox="0 0 1080 1080" style="enable-background:new 0 0 1080 1080;" xml:space="preserve">
<style type="text/css">
	.st0{fill:#050505;}
</style>
<g>
	<g>
		<g>
			<path class="st0" d="M187.9,704.1c-25.7-1.3-36.1-28.3-39.4-50.8c-0.2-0.8,0.5-1.8,1.5-1.8c0.8-0.2,1.6,0.5,1.8,1.3
				c3.1,21,12.7,47,36.9,48c30.3,1,53.9-28.5,70.6-63.6c-15.8,1-32.6,0.2-47-7.3c-6.7-3.1,4.7-10.7,6.7-9.8
				c14.2,10.6,29,12.7,42.8,12.2c13.7-29.9,22.5-63.2,26.2-84.5c0.3-2.6,0.7-4.7,0.8-6.5c0-2.1,17.6,3.9,17.1,7.5
				c-2.1,13.3-3.9,44.4,2.1,80.6c5.2,0.3,9.8,1.8,13.3,5c0.7,0.7,0.5,1.8-0.2,2.4c-0.7,0.7-1.8,0.5-2.3-0.2c-2-2.3-5.5-3.3-10.1-3.4
				c6.3,35.3,18.9,68,39.6,68.2c1.3,0,0.3,2.1-0.7,2.3c-36.8,6.7-49.5-30.9-56-70c-8.3,0.8-18.1,2.3-28.5,3.3
				C245.7,674.2,220.5,705.9,187.9,704.1z M265.4,632.2c9.3-0.5,17.9-2.1,25.7-2.6c-3.3-21.5-4.2-43.8-4.1-61.2
				C282.3,587.6,275.2,610.5,265.4,632.2z"/>
			<path class="st0" d="M377.2,639.8c0.5,1,0.3,1.3,0.8,2.4c-2,0.3-8,2.3-15.6,5.4c1.8,4.2,2.6,8.3,2.6,14.3
				c-2.9,27.2-35.2,26.5-33.5,8.6c0.8-9,8.3-14,15.3-18.2c-1.5-3.6-4.7-9.3-6.5-12.7c-0.5,2.9-2.3,8.3-3.3,11.4h-2.9
				c1.3-4.1,3.6-12.2,4.2-15.3c-4.1-6.8-8.6-22,2-27c7.2-3.4,15.1,3.7,8.3,14.8c-1.1,1.5,8.6,12.2,12.7,21.8
				C366.2,643.4,373.8,640.6,377.2,639.8z M347.6,654.8c-8.1,4.9-15.1,11.2-13.2,19.4C336.9,684.1,355.4,677.1,347.6,654.8z"/>
			<path class="st0" d="M421.8,616.7c0.7,21.8-3.1,59.7,4.7,58.3c3.6-0.7,8.6-9.9,11.1-21.3l0.2-43c0-2.9,16.4,0.3,16.1,6.2
				c-0.3,36.9,0,37.9,0,56.2c8-6.2,11.7-11.1,16.6-24.3c0-0.2,2.9,0,2.9,0c-4.7,13.3-8.6,22.1-19.7,29.8
				c1.1,32.9-4.4,48.5-16.1,52.4c-19.7,6.7-37.1-15.8-0.2-45.6v-22.1c-3.6,10.7-8.6,18.2-15.6,18.4c-15.1,0.2-17.4-13.7-16.4-71.1
				C405.4,607.6,421.7,610.8,421.8,616.7z M437.6,690.9c-18.9,15.6-21.5,32.1-11.2,34.5C430,726.2,439.1,721.8,437.6,690.9z"/>
			<path class="st0" d="M500,617.8c4.7-1.8,8.1,13,7.5,32.4c7.2-0.8,12.5-7,16.1-13c0.5-0.7,1.5-1,2.3-0.5c0.8,0.5,1.1,1.5,0.7,2.3
				c-4.2,7-10.1,13.7-19.2,14.8c-1.6,38.1-39.4,40.4-38.6-8.5C469.4,601.7,498.8,604.3,500,617.8z M484.8,646.8
				c0,36.8,17.4,33.5,18.1,7c-12.2-5.2-12.2-23.9-7.5-31.6c0.7-1,1.3-1.8,2-2.4C496.4,613.1,484.8,610.2,484.8,646.8z M498.2,625.2
				c-4.4,4.6-2.8,21.5,4.7,24.4c0.3-9.9-0.3-16.3-1.5-22c-1.1,0.8-3.7,1.8-3.4,0.5C498.2,627,498.2,626.1,498.2,625.2z"/>
			<path class="st0" d="M570.4,616.7c0.3,12.5-0.2,26.5,0,43.8c0,0.8-0.8,11.7,5.5,11.4c3.7-0.2,9.4-15.5,11.7-23.6h2.9
				c-2.3,7.6-7.8,28.6-18.4,32.9c-9.4,3.7-16.1-2.4-17.1-14.5c-0.3-2.4-0.3-5-0.3-8c-3.6,13.2-9,22.8-16.9,22.9
				c-15.1,0.2-17.4-13.7-16.4-71.1c0-2.9,16.3,0.3,16.4,6.2c0.7,21.8-3.1,59.7,4.7,58.3c3.9-0.8,9.6-12.2,11.6-25.2
				c-0.5-9.9-0.5-22.8-0.2-39.2C554,607.6,570.3,610.8,570.4,616.7z"/>
			<path class="st0" d="M589.8,651h-2.9c3.1-9.8,5.2-20,5.9-24.6c-18.7-11.4-12.4-43.8,0-43c13,0.8,4.2,33.2,3.1,41.5
				c6.3,3.3,10.9-1.5,13-8v-6.5c0.2-2.9,16.6,0.3,16.3,6.2c-0.3,4.9-0.8,22.1-1,39.2c-0.2,12.4,1.5,16.3,5.4,16
				c3.7-0.2,9.4-15.1,11.7-23.3h2.9c-2.6,8.6-9.4,33.4-22.6,33.4c-4.2,0-12.9-0.8-12.9-18.4c0-14.8,0-29.9,0.2-40.2
				c-2.3,4.4-7,7-13.3,4.6C594,635.1,592.4,642.9,589.8,651z M595,591.1c-9.4-2.6-10.6,27.5-1.8,32.4
				C594.7,616.4,598.6,592.1,595,591.1z"/>
		</g>
	</g>
	<g>
		<g>
			<path class="st0" d="M321.2,529.5c0-0.9-0.1-1.9-0.2-2.8c-0.1-0.9-0.3-1.9-0.4-2.8c-0.2-0.9-0.3-1.9-0.4-2.9
				c-0.1-1-0.2-2.1-0.2-3.2c0-1,0.1-1.8,0.2-2.5c0.1-0.6,0.2-1.3,0.3-2c0.1-0.7,0.2-1.6,0.2-2.6c0.1-1,0-2.4,0-4.2
				c0.6-0.4,1.2-1,1.6-1.8c0.4-0.8,0.9-1.6,1.4-2.4c0.5-0.8,1-1.5,1.7-2.1c0.6-0.6,1.5-0.9,2.4-0.9h9.7c1.4,0,2.6,0.3,3.5,1
				c0.9,0.7,1.5,1.5,2,2.4c0.4,0.9,0.7,1.9,0.9,2.9c0.1,1,0.2,1.8,0.2,2.5c0,1.3-0.1,2.3-0.4,3.1s-0.6,1.4-0.9,1.9
				c-0.3,0.5-0.6,0.9-0.9,1.3c-0.3,0.4-0.4,0.8-0.4,1.3c0,0.4,0.1,0.7,0.3,1c0.2,0.3,0.4,0.6,0.6,0.8c0.2,0.3,0.4,0.5,0.7,0.8
				c0.2,0.3,0.4,0.6,0.5,0.9c-0.1,2.2-0.1,3.9,0,5.3c0.1,1.3,0.1,2.5,0.2,3.6c0.1,1.1,0.2,2.1,0.3,3.1c0.1,1,0.2,2.3,0.2,3.8
				c0,1.4,0,2.8-0.1,4.2c-0.1,1.4-0.2,2.8-0.3,4.2c-0.1,1.4-0.2,2.8-0.2,4.3c-0.1,1.4-0.1,2.9,0,4.3c-0.2,0.1-0.4,0.3-0.7,0.6
				c-0.3,0.3-0.5,0.6-0.5,0.7c0,0,0,0.1,0.1,0.3c0.1,0.2,0.1,0.4,0.2,0.6c0.1,0.2,0.1,0.4,0.2,0.6c0.1,0.2,0.1,0.3,0.1,0.4
				c0,0.2,0.1,0.6,0.1,1.2c0,0.6,0,1.3,0,2c0,0.7,0,1.3,0,1.9c0,0.6,0,1-0.1,1.3c0.1,0,0.3,0,0.5,0c0.3,0,0.4,0.1,0.6,0.2
				c0.1,0.1,0.2,0.3,0.3,0.5c0,0.2,0.1,0.4,0.1,0.6c0,0.2,0,0.4,0,0.6c0,0.9-0.1,1.6-0.4,2.2c-0.3,0.6-0.8,1.2-1.5,1.7
				c-0.3,0-0.7,0-1.1,0c-0.4,0-0.7,0-1.1,0c-1.6,0-3.2,0.1-4.8,0.2c-1.6,0.1-3.1,0.3-4.6,0.5c-0.1,0.3-0.2,0.5-0.5,0.6
				c-0.3,0.1-0.5,0.1-0.8,0.1c-0.1,0-0.2,0-0.4,0c-0.1,0-0.2,0-0.3,0h-0.8c-0.6,0-1.2,0-1.8-0.1c-0.6,0-1.2-0.2-1.8-0.3
				c-0.6-0.2-1.1-0.4-1.6-0.8c-0.5-0.4-0.8-0.8-1.1-1.4c0.1-2.6,0.1-5.1,0-7.5c-0.1-2.3-0.2-4.5-0.3-6.7c-0.1-2.1-0.2-4.1-0.3-5.9
				c-0.1-1.9-0.1-3.6-0.1-5.3c0-1.5,0-2.8,0.1-3.9s0.2-2.1,0.2-3c0.1-0.9,0.2-1.7,0.2-2.4C321.2,530.9,321.2,530.2,321.2,529.5z
				 M324.4,512.3c0,0.1,0.1,0.2,0.3,0.3c0.2,0.2,0.3,0.3,0.4,0.3c0,0,0,0,0.1,0c0.1,0,0.1,0,0.2,0c0,0,0.1,0,0.2,0
				c0.1,0,0.1,0,0.2,0c-0.1-0.2-0.2-0.3-0.4-0.4c-0.2-0.1-0.4-0.2-0.6-0.2c0,0-0.1,0-0.2,0C324.5,512.3,324.4,512.3,324.4,512.3z
				 M329.6,516.1l-1.3-0.7v0.7H329.6z M333.4,541.9c0-0.3,0-0.6-0.2-0.8c-0.1-0.2-0.3-0.4-0.5-0.5c-0.2-0.1-0.5-0.2-0.7-0.3
				c-0.3,0-0.5-0.1-0.8-0.1c0,0.7,0.2,1.2,0.6,1.4C332.3,541.8,332.8,541.9,333.4,541.9z M335.7,532.9c0,0-0.1,0-0.2,0s-0.1,0-0.2,0
				v1.3h1.5c0-0.3-0.1-0.6-0.3-0.9C336.3,533,336,532.9,335.7,532.9z M337.2,552.8c0,0.2,0,0.4,0,0.6c0,0.2,0.1,0.4,0.1,0.7
				c0.1,0.2,0.2,0.4,0.3,0.5c0.1,0.1,0.3,0.2,0.5,0.2c0.4,0,0.6-0.1,0.8-0.4c0.2-0.3,0.2-0.6,0.2-0.9c0-0.2,0-0.4,0-0.6
				c0-0.2-0.1-0.5-0.1-0.7c-0.1-0.2-0.2-0.4-0.3-0.5c-0.1-0.1-0.3-0.2-0.5-0.2c-0.4,0-0.6,0.1-0.8,0.4
				C337.3,552.2,337.2,552.5,337.2,552.8z M338,546.4c-0.2,0-0.3,0.1-0.4,0.2c-0.1,0.1-0.1,0.3-0.1,0.4c0,0.2,0,0.3,0.1,0.4
				c0.1,0.1,0.2,0.2,0.4,0.2s0.3-0.1,0.4-0.2c0.1-0.1,0.1-0.3,0.1-0.4c0-0.2,0-0.3-0.1-0.4C338.2,546.5,338.1,546.4,338,546.4z"/>
			<path class="st0" d="M379,569c-0.8,0-1.7-0.1-2.7-0.2c-0.9-0.1-1.9-0.3-2.9-0.5s-2.1-0.3-3.2-0.5c-1.1-0.1-2.3-0.2-3.4-0.2
				c-0.3,0-0.6,0-0.8,0s-0.6,0-0.9,0c-0.1-0.1-0.2-0.2-0.4-0.4c-0.2-0.2-0.4-0.4-0.6-0.6c-0.2-0.2-0.4-0.4-0.6-0.6
				c-0.2-0.2-0.3-0.3-0.4-0.4l-0.1,0h-0.2c-0.4,0-0.8,0.1-1.1,0.4c-0.3,0.2-0.7,0.4-1.1,0.4c-1.3,0-2.5-0.4-3.6-1.3
				c-1.1-0.8-2.1-1.9-2.9-3.1c-0.8-1.2-1.4-2.5-1.9-3.8c-0.5-1.3-0.7-2.5-0.7-3.4c0-0.6,0.1-1.1,0.2-1.5c0.1-0.4,0.3-0.9,0.5-1.2
				c0.2-0.4,0.3-0.7,0.5-1.1c0.1-0.3,0.2-0.7,0.2-1.1c0-0.1-0.1-0.3-0.4-0.5c-0.3-0.2-0.6-0.4-0.9-0.7c-0.3-0.3-0.6-0.7-0.9-1.2
				c-0.3-0.5-0.4-1.1-0.4-1.8c0-0.9,0.2-1.6,0.7-2.1c0.5-0.5,1-0.9,1.7-1.2c0.7-0.3,1.5-0.4,2.4-0.5c0.9-0.1,1.8-0.1,2.6-0.1
				c0.2,0,0.4,0,0.7,0c0.3,0,0.7,0,1.1,0c0.4,0,0.7,0,1.1,0c0.3,0,0.6,0,0.7,0c0.6,0.6,1.3,1,2,1.2c0.7,0.1,1.4,0.2,2.2,0.2h1.2
				c0.6,0,1.2,0,1.7,0.1c0.5,0.1,1,0.4,1.4,0.8c0.4,0.4,0.7,1.1,0.9,1.9c0.2,0.9,0.3,2,0.2,3.5c0.3,0,0.7,0.2,1.4,0.4
				c0.7,0.2,1.5,0.4,2.3,0.7c0.8,0.2,1.7,0.4,2.5,0.6c0.8,0.2,1.4,0.3,1.9,0.3c0.4,0,0.9-0.1,1.4-0.3c0.5-0.2,1-0.4,1.6-0.6
				c0.5-0.2,1.1-0.4,1.6-0.7c0.5-0.2,1-0.3,1.4-0.4c-0.1-0.6-0.2-1.2-0.2-1.8c0-0.6,0-1.3,0-1.9c0.1-0.6,0.2-1.3,0.5-1.8
				c0.2-0.6,0.6-1.1,1-1.6c-0.3-0.5-0.9-0.9-1.7-1.3c-0.8-0.4-1.7-0.8-2.8-1.2c-1.1-0.4-2.2-0.7-3.4-1.1c-1.2-0.3-2.3-0.6-3.4-0.8
				c-1.1-0.2-2.1-0.4-3-0.5c-0.9-0.1-1.5-0.2-2-0.2c-0.4,0-0.7,0-1,0.1c-0.3,0.1-0.6,0.2-1,0.3c-0.3,0.1-0.7,0.2-1.2,0.3
				c-0.5,0.1-1,0.1-1.6,0.1c-1.9,0-3.7-0.4-5.5-1.2c-1.8-0.8-3.4-1.8-4.9-3.2c-1.4-1.4-2.6-3-3.5-4.8c-0.9-1.9-1.3-3.9-1.3-6v-0.3
				c0-0.1,0-0.2,0.1-0.5c0.1-0.3,0.1-0.5,0.2-0.8c0.1-0.3,0.1-0.6,0.2-0.8c0.1-0.3,0.1-0.4,0.1-0.5v-0.3c0-0.8-0.1-1.5-0.3-2.3
				c-0.2-0.7-0.3-1.4-0.3-2.2c0-0.6,0.1-1.2,0.4-1.7c0.2-0.5,0.6-1,0.9-1.5c0.4-0.5,0.8-1.1,1.3-1.7c0.5-0.6,1-1.3,1.5-2.1
				c1.4-2.2,3.1-3.9,4.9-5.1c1.8-1.2,3.7-2.1,5.6-2.7c1.9-0.6,3.8-0.9,5.7-1.1c1.9-0.1,3.6-0.2,5.1-0.2c2.1,0,4,0,5.7-0.1
				c1.7,0,3.2-0.1,4.5-0.1c1.6,0,2.9,0.1,4,0.2c1.1,0.1,2,0.4,2.7,0.8c0.5,0.3,1,0.7,1.3,1.2c0.3,0.5,0.7,0.9,1,1.3
				c0.3,0.4,0.6,0.8,0.9,1.1c0.3,0.3,0.7,0.4,1.2,0.4c0.4,0,0.8-0.1,1.4-0.4c1.2,1,2.2,2,3,2.9c0.8,0.9,1.5,1.8,2,2.6
				c0.5,0.8,0.9,1.6,1.1,2.4c0.2,0.8,0.4,1.6,0.4,2.3c0,1.7-0.4,3-1.3,4c-0.9,1-1.9,1.7-3.1,2.2c-1.2,0.5-2.3,0.8-3.5,0.9
				c-1.2,0.1-2,0.2-2.6,0.2c-1.6,0-3-0.2-4.3-0.6c-1.2-0.4-2.3-0.9-3.3-1.6c-0.9-0.6-1.7-1.3-2.4-2c-0.6-0.7-1.2-1.4-1.7-2
				c-0.5-0.6-0.8-1.1-1.1-1.6c-0.3-0.4-0.5-0.6-0.7-0.6c-0.7,0-1.6,0.1-2.7,0.2c-1.2,0.1-2.3,0.4-3.5,0.8c-1.1,0.4-2.1,1-3,1.8
				c-0.8,0.8-1.3,1.8-1.3,3.1c0,0.3,0,0.6,0.1,1.2c0.1,0.5,0.2,1.1,0.4,1.6c0.2,0.5,0.5,1,0.8,1.4c0.4,0.4,0.9,0.6,1.5,0.6
				c0-0.8,0-1.4,0-1.5c0-0.2,0.3-0.2,0.7-0.2c1.7,0,3.5,0.3,5.3,0.8c1.9,0.5,3.6,1.1,5.3,1.8c1.7,0.7,3.2,1.3,4.5,1.8
				c1.3,0.5,2.3,0.8,3,0.8c0.3,0,0.6,0,0.8-0.1c0.3-0.1,0.6-0.2,0.8-0.2c0.3-0.1,0.7-0.2,1.1-0.2c0.4-0.1,0.9-0.1,1.5-0.1
				c0.9,0,1.6,0.1,2.1,0.3c0.6,0.2,1,0.4,1.3,0.7c0.3,0.3,0.6,0.6,0.7,1c0.2,0.4,0.3,0.7,0.4,1.1c0.3,1,0.6,1.7,0.9,2.2
				c0.4,0.5,0.8,0.9,1.2,1.2c0.4,0.3,0.8,0.6,1.3,1c0.4,0.3,0.8,0.8,1.2,1.5c0.3,0.7,0.6,1.6,0.8,2.7c0.2,1.2,0.3,2.8,0.3,4.8
				c0,1.7-0.1,3.5-0.3,5.4c-0.2,1.9-0.5,3.8-0.9,5.6c-0.4,1.8-0.9,3.6-1.6,5.3c-0.6,1.7-1.4,3.2-2.3,4.5c-0.9,1.3-2,2.3-3.2,3.1
				c-1.2,0.8-2.6,1.2-4.1,1.2c-0.7,0-1.3-0.1-1.8-0.2c-0.5-0.1-0.9-0.3-1.2-0.5c-0.3-0.2-0.7-0.4-1-0.5c-0.3-0.1-0.7-0.2-1-0.2
				c-0.5,0-1.2,0.1-1.9,0.4c-0.7,0.3-1.5,0.6-2.5,0.9c-0.9,0.3-1.9,0.7-3,0.9C381.3,568.9,380.2,569,379,569z M357.4,518.1
				c0-0.3-0.1-0.7-0.3-1c-0.2-0.4-0.3-0.7-0.5-0.9l-1.9,1.9H357.4z M361.8,546.4v-0.6h-0.6L361.8,546.4z M365.7,560.6
				c-0.3,0.3-0.5,0.7-0.6,1.2c-0.1,0.5-0.2,0.9-0.2,1.3h0.8V560.6z M374.1,525.8c0.2,0,0.3-0.1,0.4-0.2c0.1-0.1,0.1-0.3,0.1-0.4
				s0-0.3-0.1-0.4c-0.1-0.1-0.2-0.2-0.4-0.2c-0.2,0-0.3,0.1-0.4,0.2c-0.1,0.1-0.1,0.3-0.1,0.4s0,0.3,0.1,0.4
				C373.8,525.7,373.9,525.8,374.1,525.8z M374.7,526.4h0.7l-0.7-0.7V526.4z M392.1,512.3c-0.5,0.3-0.8,0.7-0.8,1.3h1.6
				C392.9,513,392.6,512.5,392.1,512.3z M396,536.1c-0.2,0-0.3,0.1-0.4,0.2c-0.1,0.1-0.1,0.3-0.1,0.4s0,0.3,0.1,0.4
				c0.1,0.1,0.2,0.2,0.4,0.2c0.2,0,0.3-0.1,0.4-0.2c0.1-0.1,0.1-0.3,0.1-0.4s0-0.3-0.1-0.4C396.2,536.2,396.1,536.1,396,536.1z
				 M398.5,531.6h-0.6v0.7L398.5,531.6z M399.8,554.1h-0.7v0.7h0.7V554.1z"/>
			<path class="st0" d="M458.7,504.5h0.3c-0.6-0.5-1.2-1-1.8-1.7c-0.6-0.6-0.8-1.4-0.8-2.2c0.1-0.1,0.2-0.2,0.3-0.4
				c0.1-0.1,0.3-0.3,0.4-0.4c0.1-0.1,0.3-0.3,0.4-0.4c0.1-0.1,0.2-0.1,0.2-0.1h19.3c0.5,0,1,0.1,1.5,0.4c0.5,0.3,0.9,0.6,1.3,1
				c0.4,0.4,0.6,0.9,0.8,1.4c0.2,0.5,0.3,1,0.3,1.6c0,0.6-0.1,1.2-0.3,1.9c-0.2,0.6-0.3,1.3-0.3,2c0.1,0,0.2,0,0.4-0.1
				c0.2,0,0.4-0.1,0.6-0.2c0.2-0.1,0.5-0.1,0.7-0.2c0.2,0,0.4-0.1,0.5-0.1c0.1,0,0.2,0,0.2,0c0.1,0,0.3,0.5,0.7,1.3
				c0.4,0.8,0.8,2,1.3,3.4c0.5,1.4,1.1,3,1.8,4.7c0.7,1.8,1.3,3.6,2,5.5c0.7,1.9,1.4,3.8,2,5.7c0.7,1.9,1.3,3.6,1.8,5.2
				c0.6,1.6,1.1,2.9,1.5,4.1c0.4,1.1,0.7,1.9,0.8,2.4c0.2,0.4,0.4,1,0.6,1.8s0.6,1.6,0.9,2.5c0.3,0.9,0.6,1.9,1,2.9
				c0.3,1,0.6,2,0.9,2.9c0.3,0.9,0.6,1.7,0.8,2.4c0.2,0.7,0.4,1.2,0.5,1.6c-0.4,1-0.4,2,0.1,3c0.4,1,1,2,1.7,3
				c0.7,1,1.3,2.1,1.9,3.1c0.6,1.1,0.9,2.2,0.9,3.4c0,0.6-0.1,1-0.2,1.3c-0.2,0.3-0.4,0.5-0.7,0.7c-0.3,0.2-0.6,0.3-1,0.3
				c-0.4,0-0.8,0.1-1.2,0.1h-1.2c-0.5,0-1,0-1.5,0.1c-0.5,0-0.9,0.2-1.3,0.4h-15.4c-0.2,0-0.5-0.1-0.8-0.4c-0.4-0.3-0.8-0.5-1.2-0.8
				c-0.4-0.3-0.8-0.6-1.1-0.9c-0.3-0.3-0.4-0.4-0.4-0.4v-7.7c0-0.4-0.3-0.8-0.9-1.3c-0.6-0.5-1.4-0.9-2.2-1.3
				c-0.8-0.4-1.7-0.7-2.6-1c-0.9-0.3-1.6-0.4-2-0.4c-0.5,0-1.1,0.1-1.7,0.4c-0.6,0.2-1.3,0.4-2,0.4c-0.7,0-1.4-0.1-2-0.4
				c-0.6-0.2-1.3-0.4-2.1-0.4c-1,0-2,0.3-2.7,0.9c-0.8,0.6-1.5,1.4-2.1,2.3c-0.6,0.9-1.2,1.9-1.6,3c-0.5,1.1-0.9,2.1-1.3,3.1
				c-0.4,1-0.8,1.9-1.3,2.6c-0.4,0.8-0.9,1.2-1.4,1.4c-0.3,0.1-0.8,0.2-1.6,0.3c-0.7,0.1-1.5,0.2-2.4,0.3c-0.8,0.1-1.7,0.1-2.5,0.2
				c-0.8,0-1.4,0-1.8,0c-1,0-2.2-0.1-3.6-0.4c-1.4-0.3-2.7-0.7-3.9-1.2c-1.2-0.5-2.2-1.2-3.1-2c-0.8-0.8-1.3-1.8-1.3-2.9
				c0-0.5,0.1-1.2,0.2-2.1c0.2-0.8,0.4-1.7,0.7-2.7c0.3-0.9,0.6-1.9,1-2.9c0.4-1,0.8-1.9,1.3-2.7c0.5-0.8,1-1.5,1.5-2.1
				c0.5-0.6,1.1-1,1.7-1.1c-0.1-0.3,0.1-1.1,0.5-2.5c0.4-1.4,0.9-3.2,1.6-5.3c0.7-2.1,1.5-4.5,2.4-7.1c0.9-2.6,1.8-5.3,2.7-8
				c0.9-2.7,1.9-5.4,2.8-7.9c0.9-2.6,1.7-4.8,2.4-6.8c0.7-2,1.5-4.2,2.4-6.7c0.1-0.1,0.2-0.3,0.4-0.4c0.2-0.2,0.4-0.3,0.5-0.4
				c0.2-0.1,0.4-0.2,0.6-0.3c0.2-0.1,0.3-0.1,0.5-0.1c0.1,0,0.3,0.1,0.6,0.2c0.3,0.1,0.6,0.3,1,0.4c0.3,0.2,0.7,0.3,1,0.4
				c0.3,0.1,0.5,0.2,0.6,0.2H458.7z M441.6,552.2h0.8c0-0.6-0.2-1.1-0.5-1.7c-0.4-0.6-0.9-0.9-1.5-0.9c-0.1,0-0.2,0-0.3,0
				s-0.3,0-0.3,0L441.6,552.2z M445.1,562.5c0-0.4-0.2-0.8-0.6-1.2s-0.7-0.6-0.9-0.8l-0.6,1.9H445.1z M459.6,504.5
				c-0.2,0-0.3,0.1-0.4,0.2c-0.1,0.1-0.1,0.3-0.1,0.4c0,0.2,0,0.3,0.1,0.4c0.1,0.1,0.2,0.2,0.4,0.2s0.3-0.1,0.4-0.2
				c0.1-0.1,0.1-0.3,0.1-0.4c0-0.2,0-0.3-0.1-0.4C459.9,504.6,459.8,504.5,459.6,504.5z M461,529.8c0.6,0,1-0.3,1.3-0.8H461V529.8z
				 M465.5,531.1c0,0.7-0.1,1.3-0.3,2c-0.2,0.6-0.5,1.2-0.7,1.8c-0.3,0.6-0.5,1.1-0.7,1.7c-0.2,0.6-0.3,1.2-0.3,1.9
				c0,0.1,0,0.2,0,0.5c0,0.3,0,0.4,0,0.5c0.5-0.3,1.2-0.6,2.1-0.7c0.9-0.1,1.7-0.2,2.6-0.2c0.8,0,1.6,0,2.3,0.1
				c0.7,0.1,1.2,0.1,1.4,0.1c-0.2-0.4-0.6-1.1-1.1-2c-0.5-1-1-2-1.6-3.1c-0.5-1.1-1-2.1-1.5-3.1c-0.5-1-0.8-1.7-1-2.1
				c-0.1-0.1-0.1-0.3-0.2-0.6c-0.1-0.3-0.2-0.6-0.2-0.9c-0.1-0.3-0.1-0.7-0.2-1c0-0.3-0.1-0.5-0.1-0.7c-0.1,0.1-0.2,0.2-0.3,0.3
				c-0.2,0.1-0.3,0.2-0.3,0.3c-0.1,0.1-0.2,0.3-0.4,0.5c-0.2,0.3-0.4,0.5-0.6,0.8c-0.2,0.3-0.4,0.5-0.6,0.8
				c-0.2,0.3-0.3,0.4-0.4,0.5c0.5,0,0.9,0.1,1.2,0.3c0.3,0.2,0.5,0.4,0.6,0.6c0.1,0.3,0.2,0.5,0.2,0.8
				C465.5,530.4,465.5,530.7,465.5,531.1z M467.4,509.7c0.2,0.3,0.4,0.6,0.8,0.9c0.4,0.4,0.7,0.6,1.2,0.6v-1.5H467.4z M470,547.1
				v0.7h0.7L470,547.1z M478.3,518.1h0.7v-0.7h-0.7V518.1z M482.9,544.5c-0.1,0-0.2,0-0.2,0.1c0,0.1-0.1,0.2-0.1,0.3
				c0,0.1,0,0.2,0.1,0.3c0,0.1,0.1,0.1,0.2,0.1c0.2-0.1,0.3-0.2,0.3-0.3C483.1,544.6,483.1,544.5,482.9,544.5z"/>
			<path class="st0" d="M534.1,569c-0.8,0-1.7-0.1-2.7-0.2c-0.9-0.1-1.9-0.3-2.9-0.5c-1-0.2-2.1-0.3-3.2-0.5
				c-1.1-0.1-2.2-0.2-3.4-0.2c-0.3,0-0.6,0-0.8,0c-0.3,0-0.6,0-0.9,0c-0.1-0.1-0.2-0.2-0.4-0.4c-0.2-0.2-0.4-0.4-0.6-0.6
				s-0.4-0.4-0.6-0.6c-0.2-0.2-0.3-0.3-0.4-0.4l-0.1,0h-0.2c-0.4,0-0.8,0.1-1.1,0.4c-0.3,0.2-0.7,0.4-1.1,0.4
				c-1.3,0-2.5-0.4-3.6-1.3c-1.1-0.8-2.1-1.9-2.9-3.1c-0.8-1.2-1.4-2.5-1.9-3.8c-0.5-1.3-0.7-2.5-0.7-3.4c0-0.6,0.1-1.1,0.2-1.5
				c0.1-0.4,0.3-0.9,0.5-1.2c0.2-0.4,0.3-0.7,0.5-1.1c0.1-0.3,0.2-0.7,0.2-1.1c0-0.1-0.1-0.3-0.4-0.5c-0.3-0.2-0.6-0.4-0.9-0.7
				c-0.3-0.3-0.6-0.7-0.9-1.2c-0.3-0.5-0.4-1.1-0.4-1.8c0-0.9,0.2-1.6,0.7-2.1c0.5-0.5,1-0.9,1.7-1.2c0.7-0.3,1.5-0.4,2.4-0.5
				c0.9-0.1,1.8-0.1,2.6-0.1c0.2,0,0.4,0,0.7,0c0.3,0,0.7,0,1.1,0c0.4,0,0.7,0,1.1,0c0.3,0,0.6,0,0.7,0c0.6,0.6,1.3,1,2,1.2
				c0.7,0.1,1.4,0.2,2.2,0.2h1.2c0.6,0,1.2,0,1.7,0.1s1,0.4,1.4,0.8c0.4,0.4,0.7,1.1,0.9,1.9c0.2,0.9,0.3,2,0.2,3.5
				c0.3,0,0.7,0.2,1.4,0.4c0.7,0.2,1.5,0.4,2.3,0.7c0.8,0.2,1.7,0.4,2.5,0.6c0.8,0.2,1.4,0.3,1.9,0.3c0.4,0,0.9-0.1,1.4-0.3
				c0.5-0.2,1-0.4,1.6-0.6c0.5-0.2,1.1-0.4,1.6-0.7c0.5-0.2,1-0.3,1.4-0.4c-0.1-0.6-0.2-1.2-0.2-1.8c0-0.6,0-1.3,0-1.9
				c0.1-0.6,0.2-1.3,0.5-1.8c0.2-0.6,0.6-1.1,1-1.6c-0.3-0.5-0.9-0.9-1.7-1.3c-0.8-0.4-1.7-0.8-2.8-1.2c-1.1-0.4-2.2-0.7-3.4-1.1
				c-1.2-0.3-2.3-0.6-3.4-0.8c-1.1-0.2-2.1-0.4-3-0.5c-0.9-0.1-1.5-0.2-2-0.2c-0.4,0-0.7,0-1,0.1c-0.3,0.1-0.6,0.2-1,0.3
				c-0.3,0.1-0.7,0.2-1.2,0.3c-0.5,0.1-1,0.1-1.6,0.1c-1.9,0-3.7-0.4-5.5-1.2c-1.8-0.8-3.4-1.8-4.9-3.2c-1.4-1.4-2.6-3-3.5-4.8
				c-0.9-1.9-1.3-3.9-1.3-6v-0.3c0-0.1,0-0.2,0.1-0.5c0.1-0.3,0.2-0.5,0.2-0.8c0.1-0.3,0.1-0.6,0.2-0.8c0.1-0.3,0.1-0.4,0.1-0.5
				v-0.3c0-0.8-0.1-1.5-0.3-2.3c-0.2-0.7-0.3-1.4-0.3-2.2c0-0.6,0.1-1.2,0.4-1.7c0.2-0.5,0.6-1,0.9-1.5c0.4-0.5,0.8-1.1,1.3-1.7
				c0.5-0.6,1-1.3,1.5-2.1c1.4-2.2,3.1-3.9,4.9-5.1c1.8-1.2,3.7-2.1,5.6-2.7c1.9-0.6,3.8-0.9,5.7-1.1c1.9-0.1,3.6-0.2,5.1-0.2
				c2.1,0,4,0,5.7-0.1c1.7,0,3.2-0.1,4.5-0.1c1.6,0,2.9,0.1,4,0.2c1.1,0.1,2,0.4,2.7,0.8c0.5,0.3,1,0.7,1.3,1.2
				c0.3,0.5,0.7,0.9,1,1.3c0.3,0.4,0.6,0.8,0.9,1.1c0.3,0.3,0.7,0.4,1.2,0.4c0.4,0,0.8-0.1,1.4-0.4c1.2,1,2.2,2,3,2.9
				c0.8,0.9,1.5,1.8,2,2.6c0.5,0.8,0.9,1.6,1.1,2.4c0.2,0.8,0.4,1.6,0.4,2.3c0,1.7-0.4,3-1.3,4c-0.9,1-1.9,1.7-3.1,2.2
				c-1.2,0.5-2.3,0.8-3.5,0.9c-1.2,0.1-2,0.2-2.6,0.2c-1.6,0-3-0.2-4.3-0.6c-1.2-0.4-2.3-0.9-3.3-1.6c-0.9-0.6-1.7-1.3-2.4-2
				c-0.6-0.7-1.2-1.4-1.7-2c-0.5-0.6-0.8-1.1-1.1-1.6c-0.3-0.4-0.5-0.6-0.7-0.6c-0.7,0-1.6,0.1-2.7,0.2c-1.2,0.1-2.3,0.4-3.5,0.8
				c-1.1,0.4-2.1,1-3,1.8c-0.8,0.8-1.3,1.8-1.3,3.1c0,0.3,0,0.6,0.1,1.2c0.1,0.5,0.2,1.1,0.4,1.6c0.2,0.5,0.5,1,0.8,1.4
				c0.4,0.4,0.9,0.6,1.5,0.6c0-0.8,0-1.4,0-1.5c0-0.2,0.3-0.2,0.7-0.2c1.7,0,3.5,0.3,5.3,0.8c1.9,0.5,3.6,1.1,5.3,1.8
				c1.7,0.7,3.2,1.3,4.5,1.8c1.3,0.5,2.3,0.8,3,0.8c0.3,0,0.6,0,0.8-0.1c0.3-0.1,0.6-0.2,0.8-0.2c0.3-0.1,0.7-0.2,1.1-0.2
				c0.4-0.1,0.9-0.1,1.5-0.1c0.9,0,1.6,0.1,2.1,0.3c0.6,0.2,1,0.4,1.3,0.7c0.3,0.3,0.6,0.6,0.7,1c0.2,0.4,0.3,0.7,0.4,1.1
				c0.3,1,0.6,1.7,0.9,2.2c0.4,0.5,0.8,0.9,1.2,1.2c0.4,0.3,0.8,0.6,1.3,1c0.4,0.3,0.8,0.8,1.2,1.5c0.3,0.7,0.6,1.6,0.8,2.7
				c0.2,1.2,0.3,2.8,0.3,4.8c0,1.7-0.1,3.5-0.3,5.4c-0.2,1.9-0.5,3.8-0.9,5.6c-0.4,1.8-0.9,3.6-1.6,5.3c-0.6,1.7-1.4,3.2-2.3,4.5
				c-0.9,1.3-2,2.3-3.2,3.1c-1.2,0.8-2.6,1.2-4.1,1.2c-0.7,0-1.3-0.1-1.8-0.2c-0.5-0.1-0.9-0.3-1.2-0.5c-0.3-0.2-0.7-0.4-1-0.5
				c-0.3-0.1-0.7-0.2-1-0.2c-0.5,0-1.2,0.1-1.9,0.4c-0.7,0.3-1.5,0.6-2.5,0.9c-0.9,0.3-1.9,0.7-3,0.9
				C536.4,568.9,535.3,569,534.1,569z M512.6,518.1c0-0.3-0.1-0.7-0.3-1c-0.2-0.4-0.3-0.7-0.5-0.9l-1.9,1.9H512.6z M516.9,546.4
				v-0.6h-0.6L516.9,546.4z M520.8,560.6c-0.3,0.3-0.5,0.7-0.6,1.2c-0.1,0.5-0.2,0.9-0.2,1.3h0.8V560.6z M529.2,525.8
				c0.2,0,0.3-0.1,0.4-0.2c0.1-0.1,0.1-0.3,0.1-0.4s0-0.3-0.1-0.4c-0.1-0.1-0.2-0.2-0.4-0.2c-0.2,0-0.3,0.1-0.4,0.2
				c-0.1,0.1-0.1,0.3-0.1,0.4s0,0.3,0.1,0.4C528.9,525.7,529.1,525.8,529.2,525.8z M529.8,526.4h0.7l-0.7-0.7V526.4z M547.2,512.3
				c-0.5,0.3-0.8,0.7-0.8,1.3h1.6C548.1,513,547.8,512.5,547.2,512.3z M551.1,536.1c-0.2,0-0.3,0.1-0.4,0.2
				c-0.1,0.1-0.1,0.3-0.1,0.4s0,0.3,0.1,0.4c0.1,0.1,0.2,0.2,0.4,0.2s0.3-0.1,0.4-0.2c0.1-0.1,0.1-0.3,0.1-0.4s0-0.3-0.1-0.4
				C551.4,536.2,551.3,536.1,551.1,536.1z M553.7,531.6h-0.6v0.7L553.7,531.6z M555,554.1h-0.7v0.7h0.7V554.1z"/>
			<path class="st0" d="M602.6,499.3c0.3,0,0.7,0,1.3,0c0.6,0,1.4,0.1,2.2,0.2c0.8,0.1,1.7,0.3,2.5,0.6c0.9,0.3,1.7,0.6,2.4,1.1
				s1.3,1.1,1.8,1.9c0.5,0.8,0.7,1.7,0.7,2.7c0,0.7-0.1,1.2-0.4,1.6c-0.3,0.3-0.7,0.5-1.3,0.5c-0.3,0-0.9-0.1-1.6-0.2
				c0.6,0.6,1.1,1.3,1.6,2.1c0.5,0.8,0.8,1.6,1,2.5c0.3-0.3,0.7-0.6,1.1-0.6c0.4-0.1,0.8-0.1,1.3-0.1h0.3c0.9,0,1.8,0.4,2.7,1.2
				c0.9,0.8,1.8,1.8,2.7,3c0.9,1.2,1.7,2.6,2.6,4.1c0.8,1.5,1.6,2.9,2.4,4.2c0.8,1.3,1.4,2.5,2.1,3.5c0.6,1,1.2,1.7,1.7,2
				c0.4-2.6,0.6-5.3,0.7-8.1c0.1-2.8,0-5.5-0.1-8c0.1-0.1,0.2-0.2,0.4-0.4c0.2-0.2,0.3-0.4,0.4-0.6c0.1-0.2,0.3-0.4,0.4-0.7
				c0.1-0.2,0.1-0.4,0.1-0.5c0-0.5-0.1-1-0.2-1.4c-0.1-0.5-0.3-1-0.5-1.5c-0.2-0.5-0.3-1.1-0.5-1.7c-0.1-0.6-0.2-1.2-0.2-1.9
				c0-1.2,0.3-2.2,0.8-3s1.3-1.3,2.1-1.7c0.8-0.4,1.8-0.6,2.9-0.8c1.1-0.1,2.1-0.2,3.2-0.2c0.6,0,1.2,0,1.8,0c0.6,0,1.1,0,1.6,0
				c0.7,0,1.7,0,2.8,0.1c1.1,0.1,2.3,0.3,3.4,0.6c1.1,0.3,2.1,0.8,2.9,1.4c0.8,0.6,1.2,1.4,1.2,2.4v11c0,0.1-0.1,0.3-0.3,0.8
				c-0.2,0.5-0.3,0.9-0.4,1.1c0,0.1-0.1,0.3-0.3,0.7s-0.3,0.6-0.3,0.7v0.1c0,0,0,0.1,0,0.1c0,0.1,0,0.2,0,0.2c0,0.1,0,0.1,0,0.1
				c0,0.1,0.1,0.3,0.3,0.7s0.3,0.6,0.3,0.7c0.1,0.3,0.2,0.6,0.4,1.1c0.2,0.5,0.3,0.8,0.3,0.8v21.9c-0.1,0.1-0.2,0.3-0.4,0.6
				c-0.2,0.3-0.3,0.6-0.3,0.7c0,0,0,0.1,0.1,0.2c0.1,0.1,0.1,0.3,0.2,0.4c0.1,0.1,0.2,0.3,0.2,0.4c0.1,0.1,0.1,0.2,0.1,0.2
				c0,0.1,0,0.2,0,0.5c0,0.3,0,0.4,0,0.6v0.5c0,0.1,0,0.3,0,0.4c0,0.1-0.1,0.2-0.2,0.4c-0.1,0.2-0.3,0.4-0.4,0.6
				c-0.2,0.2-0.3,0.4-0.4,0.6c-0.1,0.2-0.2,0.3-0.2,0.4c0,0.1,0,0.2,0.1,0.5c0.1,0.3,0.1,0.5,0.2,0.8c0.1,0.3,0.1,0.6,0.2,0.8
				c0.1,0.3,0.1,0.4,0.1,0.5c0,0,0,0.2,0,0.6c0,0.3,0,0.6,0,0.8c0,0.6-0.1,1.2-0.4,1.6c-0.2,0.4-0.4,1-0.4,1.6
				c0,0.7,0.1,1.4,0.4,2.1c0.2,0.7,0.4,1.5,0.4,2.5c0,1.6-0.5,2.9-1.4,3.9c-0.9,0.9-2.1,1.7-3.4,2.1c-1.4,0.5-2.8,0.8-4.4,0.9
				c-1.6,0.1-3,0.2-4.2,0.2c-1.9,0-3.5-0.2-4.9-0.6c-1.4-0.4-2.5-0.9-3.5-1.5c-1-0.6-1.7-1.3-2.4-2.1c-0.6-0.8-1.1-1.6-1.6-2.4
				c-0.4-0.8-0.8-1.6-1.2-2.4c-0.3-0.8-0.7-1.5-1-2.1c-0.3-0.6-0.9-1.4-1.6-2.3c-0.7-0.9-1.5-1.9-2.3-3c-0.8-1.1-1.7-2.1-2.7-3.2
				c-0.9-1.1-1.8-2.1-2.6-3c-0.8-0.9-1.6-1.7-2.2-2.3c-0.6-0.6-1.1-1-1.3-1.2l-0.1,0h-0.2c0,0-0.1,0-0.1,0c-0.1,0-0.1,0-0.1,0
				c0,0.2-0.1,0.5-0.3,1.1c-0.1,0.6-0.3,1.3-0.4,2c-0.2,0.7-0.3,1.5-0.4,2.2c-0.1,0.7-0.2,1.3-0.2,1.7c0,0.6,0.1,1.3,0.4,1.9
				c0.2,0.6,0.4,1.4,0.4,2.2c0,0.3,0,0.6,0,1.1s0,0.7,0,0.7c0,0.1-0.1,0.2-0.2,0.5c-0.1,0.3-0.3,0.5-0.4,0.8
				c-0.1,0.3-0.3,0.6-0.4,0.8c-0.1,0.3-0.2,0.4-0.2,0.5c0,0,0,0.1,0.1,0.2c0.1,0.1,0.1,0.3,0.2,0.4c0.1,0.1,0.2,0.3,0.2,0.4
				c0.1,0.1,0.1,0.2,0.1,0.2c0,0,0,0.2,0,0.4c0,0.2,0,0.4,0,0.7s0,0.5,0,0.8c0,0.3,0,0.5,0,0.7c0,0.1,0,0.3,0,0.5c0,0.2,0,0.5,0,0.8
				s0,0.5,0,0.8c0,0.2,0,0.4,0,0.5c-0.1,0.1-0.3,0.3-0.6,0.7c-0.3,0.3-0.7,0.7-1.1,1.1c-0.4,0.4-0.8,0.7-1.2,1
				c-0.4,0.3-0.7,0.5-0.9,0.5l-12.2,0.6c-0.6,0-1.2-0.1-1.9-0.4c-0.7-0.3-1.3-0.7-1.9-1.2c-0.6-0.5-1.1-1-1.5-1.7
				c-0.4-0.6-0.6-1.2-0.6-1.8c0-0.8,0-1.5,0.1-2.2s0.2-1.3,0.4-1.9c0.2-0.6,0.4-1.2,0.6-1.8c0.2-0.6,0.5-1.2,0.8-1.9l0-0.1v-0.2
				v-0.1l0-0.1c-0.2-0.3-0.3-0.7-0.6-0.9c-0.2-0.3-0.4-0.6-0.6-0.9c-0.2-0.3-0.4-0.6-0.5-0.9c-0.1-0.3-0.2-0.7-0.2-1.1v-17.4
				c0-0.4,0.1-0.8,0.4-1.3c0.3-0.4,0.6-0.9,0.9-1.2c0.3-0.4,0.6-0.8,0.9-1.1c0.3-0.3,0.4-0.6,0.4-0.9c0-0.6-0.2-1.2-0.5-1.9
				c-0.3-0.6-0.7-1.3-1.1-2.1c-0.4-0.7-0.8-1.5-1.1-2.4c-0.3-0.8-0.5-1.8-0.5-2.7c0-0.7-0.1-1.6-0.2-3c-0.1-1.3-0.2-2.7-0.3-4.3
				c-0.1-1.6-0.1-3.2,0-4.8c0.1-1.7,0.4-3.2,0.9-4.5c0.5-1.4,1.2-2.5,2.1-3.3c0.9-0.9,2.2-1.3,3.9-1.3v3c0.6,0,1.1-0.1,1.5-0.2
				c0.4-0.1,0.7-0.3,1-0.6c0.3-0.2,0.6-0.5,0.9-0.7c0.3-0.3,0.7-0.5,1.1-0.7c0.5-0.2,1.1-0.4,1.8-0.6
				C600.6,499.4,601.5,499.3,602.6,499.3z M599.4,529.6c0.3,0.5,0.7,0.8,1.3,0.8V529L599.4,529.6z M601.8,550.5
				c0.2,0,0.5-0.1,0.8-0.3c0.4-0.2,0.8-0.5,1.1-0.8c0.4-0.3,0.7-0.6,1-0.9c0.3-0.3,0.4-0.5,0.4-0.7c0-0.1,0-0.2,0-0.4
				c0-0.2,0-0.3,0-0.3c0-0.1-0.1-0.3-0.1-0.5c0-0.3-0.1-0.5-0.2-0.8c-0.1-0.3-0.2-0.5-0.2-0.8c-0.1-0.3-0.1-0.4-0.1-0.5
				c-0.2,0.3-0.4,0.7-0.7,1.3c-0.3,0.6-0.6,1.1-0.9,1.7c-0.3,0.6-0.6,1.2-0.8,1.7C601.9,549.8,601.8,550.2,601.8,550.5z M609,521.3
				v0.7h0.6v-0.7H609z M609.9,539.3c0-0.1,0-0.3,0-0.5c0-0.3,0-0.5-0.1-0.8c0-0.3-0.1-0.5-0.2-0.8c-0.1-0.2-0.3-0.4-0.5-0.4v2.5
				H609.9z M612.2,532.2h0.7v-0.7h-0.7V532.2z M636.7,514.8c-0.2,0-0.3,0.1-0.4,0.2c-0.1,0.1-0.1,0.3-0.1,0.4c0,0.2,0,0.3,0.1,0.4
				c0.1,0.1,0.2,0.2,0.4,0.2s0.3-0.1,0.4-0.2c0.1-0.1,0.1-0.3,0.1-0.4c0-0.2,0-0.3-0.1-0.4C637,514.9,636.9,514.8,636.7,514.8z
				 M638,525.2c-0.1,0-0.2,0-0.2,0.1c0,0.1-0.1,0.2-0.1,0.3s0,0.2,0.1,0.2c0,0.1,0.1,0.1,0.2,0c0.2-0.1,0.3-0.2,0.3-0.3
				C638.3,525.3,638.2,525.2,638,525.2z M638.8,538.7c0-0.6-0.3-1.1-0.8-1.3v1.3H638.8z M640,517.4c0.3-0.1,0.6-0.3,0.6-0.5
				c0.1-0.2,0.1-0.5,0.1-0.7c0-0.3,0-0.5-0.1-0.8c-0.1-0.2-0.3-0.4-0.6-0.5c-0.3,0.1-0.6,0.3-0.6,0.5c-0.1,0.2-0.1,0.5-0.1,0.8
				c0,0.3,0,0.5,0.1,0.7C639.4,517.1,639.6,517.3,640,517.4z M645.1,514.2l0.7,0.6l0.7-0.6l-0.7-0.7L645.1,514.2z M645.8,543.2h0.7
				v-0.7h-0.7V543.2z"/>
			<path class="st0" d="M662.3,529.5c0-0.9-0.1-1.9-0.2-2.8c-0.1-0.9-0.3-1.9-0.4-2.8c-0.2-0.9-0.3-1.9-0.4-2.9
				c-0.1-1-0.2-2.1-0.2-3.2c0-1,0.1-1.8,0.2-2.5c0.1-0.6,0.2-1.3,0.3-2c0.1-0.7,0.2-1.6,0.2-2.6c0.1-1,0-2.4,0-4.2
				c0.6-0.4,1.2-1,1.6-1.8c0.4-0.8,0.9-1.6,1.4-2.4c0.5-0.8,1-1.5,1.7-2.1c0.6-0.6,1.5-0.9,2.4-0.9h9.7c1.4,0,2.6,0.3,3.5,1
				c0.9,0.7,1.5,1.5,2,2.4c0.4,0.9,0.7,1.9,0.9,2.9c0.1,1,0.2,1.8,0.2,2.5c0,1.3-0.1,2.3-0.4,3.1s-0.6,1.4-0.9,1.9
				c-0.3,0.5-0.6,0.9-0.9,1.3c-0.3,0.4-0.4,0.8-0.4,1.3c0,0.4,0.1,0.7,0.3,1c0.2,0.3,0.4,0.6,0.6,0.8c0.2,0.3,0.4,0.5,0.7,0.8
				c0.2,0.3,0.4,0.6,0.5,0.9c-0.1,2.2-0.1,3.9,0,5.3c0.1,1.3,0.1,2.5,0.2,3.6c0.1,1.1,0.2,2.1,0.3,3.1c0.1,1,0.2,2.3,0.2,3.8
				c0,1.4,0,2.8-0.1,4.2c-0.1,1.4-0.2,2.8-0.3,4.2c-0.1,1.4-0.2,2.8-0.2,4.3c-0.1,1.4-0.1,2.9,0,4.3c-0.2,0.1-0.4,0.3-0.7,0.6
				c-0.3,0.3-0.5,0.6-0.5,0.7c0,0,0,0.1,0.1,0.3c0.1,0.2,0.1,0.4,0.2,0.6c0.1,0.2,0.2,0.4,0.2,0.6c0.1,0.2,0.1,0.3,0.1,0.4
				c0,0.2,0.1,0.6,0.1,1.2c0,0.6,0,1.3,0,2c0,0.7,0,1.3,0,1.9c0,0.6,0,1-0.1,1.3c0.1,0,0.3,0,0.5,0c0.3,0,0.4,0.1,0.6,0.2
				c0.1,0.1,0.2,0.3,0.3,0.5c0,0.2,0.1,0.4,0.1,0.6c0,0.2,0,0.4,0,0.6c0,0.9-0.2,1.6-0.4,2.2c-0.3,0.6-0.8,1.2-1.5,1.7
				c-0.3,0-0.7,0-1.1,0c-0.4,0-0.7,0-1.1,0c-1.6,0-3.2,0.1-4.8,0.2c-1.6,0.1-3.1,0.3-4.6,0.5c-0.1,0.3-0.2,0.5-0.5,0.6
				c-0.3,0.1-0.5,0.1-0.8,0.1c-0.1,0-0.2,0-0.4,0c-0.1,0-0.2,0-0.3,0h-0.8c-0.6,0-1.2,0-1.8-0.1c-0.6,0-1.2-0.2-1.8-0.3
				c-0.6-0.2-1.1-0.4-1.6-0.8c-0.5-0.4-0.8-0.8-1.1-1.4c0.1-2.6,0.1-5.1,0-7.5c-0.1-2.3-0.1-4.5-0.3-6.7c-0.1-2.1-0.2-4.1-0.3-5.9
				c-0.1-1.9-0.1-3.6-0.1-5.3c0-1.5,0-2.8,0.1-3.9c0.1-1.1,0.2-2.1,0.2-3c0.1-0.9,0.2-1.7,0.2-2.4
				C662.3,530.9,662.3,530.2,662.3,529.5z M665.5,512.3c0,0.1,0.1,0.2,0.3,0.3c0.2,0.2,0.3,0.3,0.4,0.3c0,0,0,0,0.1,0
				c0.1,0,0.1,0,0.2,0c0,0,0.1,0,0.2,0s0.1,0,0.2,0c-0.1-0.2-0.2-0.3-0.4-0.4c-0.2-0.1-0.4-0.2-0.6-0.2c0,0-0.1,0-0.2,0
				C665.6,512.3,665.6,512.3,665.5,512.3z M670.7,516.1l-1.3-0.7v0.7H670.7z M674.6,541.9c0-0.3,0-0.6-0.2-0.8
				c-0.1-0.2-0.3-0.4-0.5-0.5c-0.2-0.1-0.5-0.2-0.7-0.3c-0.3,0-0.5-0.1-0.8-0.1c0,0.7,0.2,1.2,0.6,1.4
				C673.4,541.8,674,541.9,674.6,541.9z M676.8,532.9c0,0-0.1,0-0.2,0c-0.1,0-0.1,0-0.2,0v1.3h1.5c0-0.3-0.1-0.6-0.3-0.9
				C677.4,533,677.2,532.9,676.8,532.9z M678.4,552.8c0,0.2,0,0.4,0,0.6c0,0.2,0.1,0.4,0.1,0.7c0.1,0.2,0.2,0.4,0.3,0.5
				c0.1,0.1,0.3,0.2,0.5,0.2c0.4,0,0.6-0.1,0.8-0.4c0.2-0.3,0.2-0.6,0.2-0.9c0-0.2,0-0.4,0-0.6c0-0.2-0.1-0.5-0.1-0.7
				c-0.1-0.2-0.2-0.4-0.3-0.5c-0.1-0.1-0.3-0.2-0.5-0.2c-0.4,0-0.6,0.1-0.8,0.4C678.5,552.2,678.4,552.5,678.4,552.8z M679.1,546.4
				c-0.2,0-0.3,0.1-0.4,0.2c-0.1,0.1-0.1,0.3-0.1,0.4c0,0.2,0,0.3,0.1,0.4c0.1,0.1,0.2,0.2,0.4,0.2c0.2,0,0.3-0.1,0.4-0.2
				c0.1-0.1,0.1-0.3,0.1-0.4c0-0.2,0-0.3-0.1-0.4C679.4,546.5,679.2,546.4,679.1,546.4z"/>
			<path class="st0" d="M712.9,527c0,0.8-0.1,1.8-0.2,3.2c-0.1,1.4-0.2,2.9-0.2,4.6c0,1.6,0.1,3.3,0.4,5c0.2,1.7,0.7,3.2,1.4,4.6
				c0.7,1.4,1.7,2.5,3,3.4c1.3,0.9,2.9,1.3,5,1.3c1.3,0,2.5-0.2,3.6-0.5c1.1-0.3,2.1-0.7,3.1-1.1c1-0.4,1.9-0.7,2.9-1.1
				c0.9-0.3,1.9-0.5,2.9-0.5c0-0.5-0.1-1-0.3-1.4c-0.2-0.4-0.3-0.9-0.3-1.4c0-1.1,0.6-2,1.7-2.8c1.1-0.8,2.7-1.1,4.6-1.1
				c1.3,0,2.7,0.2,4.1,0.6c1.5,0.4,2.9,1,4.2,1.8c1.3,0.8,2.5,1.9,3.4,3.2c1,1.3,1.6,2.9,1.8,4.7c0.3,1.8,0.1,3.5-0.5,5
				c-0.6,1.5-1.4,2.9-2.6,4.2c-1.2,1.2-2.6,2.4-4.3,3.4c-1.7,1-3.5,1.9-5.4,2.7c-1.9,0.8-3.9,1.4-6,2c-2.1,0.6-4.1,1-6.1,1.3
				c-2,0.3-3.9,0.6-5.7,0.8c-1.8,0.2-3.4,0.3-4.8,0.3c-0.3,0-0.7,0-1.3,0c-0.6,0-1.3-0.1-2.1-0.2s-1.6-0.3-2.4-0.5
				c-0.8-0.2-1.6-0.5-2.3-0.9c-0.7-0.4-1.3-0.9-1.8-1.5c-0.5-0.6-0.8-1.3-0.9-2.1c-0.2,0.1-0.5,0.2-1,0.3c-0.5,0.2-0.8,0.3-1,0.3
				h-0.7c-1.5,0-2.9-0.6-4.1-1.7c-1.3-1.1-2.4-2.6-3.5-4.3c-1.1-1.8-2-3.7-2.9-5.9c-0.9-2.2-1.6-4.3-2.3-6.3c-0.6-2-1.2-3.9-1.7-5.6
				c-0.5-1.7-0.8-3-1-3.8v-0.3c0-0.7,0.1-1.2,0.3-1.5c0.2-0.3,0.4-0.6,0.7-0.8c0.3-0.2,0.5-0.4,0.8-0.7c0.3-0.2,0.6-0.7,0.8-1.2
				c0.1-0.1,0-0.4-0.1-0.8c-0.1-0.4-0.3-0.9-0.5-1.4c-0.2-0.5-0.3-1-0.5-1.5c-0.2-0.5-0.2-0.8-0.2-1.1c0-1.6,0.1-2.9,0.4-4
				c0.3-1.1,0.7-2.1,1.2-3.1c0.5-0.9,1.1-1.9,1.9-2.9c0.7-1,1.5-2.1,2.3-3.3c0-0.1,0.1-0.2,0.2-0.5c0.1-0.3,0.3-0.5,0.4-0.8
				c0.1-0.3,0.3-0.6,0.4-0.8c0.1-0.3,0.2-0.4,0.2-0.5c1.1-1.9,2.3-3.4,3.6-4.8c1.3-1.3,2.7-2.4,4.2-3.4c1.5-0.9,3-1.6,4.5-2.2
				c1.5-0.6,3-1,4.5-1.3c1.4-0.3,2.8-0.5,4.2-0.6c1.3-0.1,2.5-0.1,3.5-0.1c2.3,0,4.5,0.1,6.7,0.4s4.2,0.6,5.9,1.1
				c1.8,0.4,3.3,0.9,4.6,1.5c1.3,0.5,2.2,1.1,2.8,1.6l8.4,8.4c0.7,0.7,1.1,1.2,1.2,1.7c0.1,0.5,0.2,0.8,0.2,0.9c0,1-0.1,2.1-0.2,3.2
				c-0.1,1.1-0.4,2.1-0.7,3.1c-0.3,0.9-0.8,1.7-1.4,2.3c-0.6,0.6-1.4,0.9-2.3,0.9h-12.2c-0.9,0-1.7-0.3-2.4-1
				c-0.7-0.7-1.4-1.4-2.1-2.2c-0.7-0.8-1.6-1.6-2.6-2.2c-1-0.7-2.2-1-3.7-1c-0.3,0-0.9,0-1.6,0.1c-0.7,0.1-1.5,0.2-2.4,0.4
				c-0.9,0.2-1.8,0.5-2.7,0.9s-1.7,0.9-2.5,1.6c-0.8,0.7-1.4,1.5-1.9,2.5C713.2,524.4,712.9,525.6,712.9,527z M711.3,560.6
				c-0.2,0-0.4,0.1-0.6,0.2c-0.2,0.1-0.3,0.3-0.5,0.5c-0.1,0.2-0.3,0.4-0.3,0.7c-0.1,0.2-0.2,0.4-0.2,0.6l1.9-1.9c0,0-0.1,0-0.2,0
				C711.4,560.6,711.4,560.6,711.3,560.6z M718.7,511.6c0-0.1,0-0.2-0.1-0.2c-0.1,0-0.2-0.1-0.3-0.1c-0.3,0-0.4,0.1-0.3,0.3
				c0.1,0.2,0.2,0.3,0.3,0.3C718.6,511.9,718.7,511.8,718.7,511.6z M722.6,552.9h-0.7v0.7h0.7V552.9z M725.6,503.1
				c-0.5,0-1,0.1-1.3,0.3c-0.3,0.2-0.5,0.6-0.5,1.1c0,0.1,0,0.2,0,0.3c0,0.2,0,0.3,0,0.3c0.6,0,1.1-0.2,1.3-0.7
				C725.5,504.1,725.6,503.6,725.6,503.1z M730.3,505.8l0.6-0.6l-0.6-0.7l-0.7,0.7L730.3,505.8z M734.8,557.3c-0.1,0-0.2,0-0.3,0
				c-0.2,0-0.3,0-0.3,0c0.2,0.3,0.3,0.7,0.5,1.1c0.2,0.4,0.5,0.7,0.8,0.9c0.1-0.1,0.2-0.3,0.4-0.6c0.2-0.3,0.2-0.6,0.2-0.7
				c0-0.3-0.2-0.5-0.5-0.6C735.3,557.3,735,557.3,734.8,557.3z M741.1,520c0,0.4,0.1,0.7,0.4,1c0.3,0.3,0.6,0.4,1,0.4V520H741.1z
				 M741.3,554.2c0.3,0,0.6-0.1,1-0.2c0.4-0.2,0.7-0.3,0.9-0.5c-0.2-0.3-0.5-0.6-0.9-0.8c-0.4-0.2-0.7-0.4-1.1-0.5V554.2z"/>
			<path class="st0" d="M756.9,504.5c0.4-0.5,0.9-1.1,1.7-1.7c0.7-0.6,1.5-1.2,2.4-1.7c0.9-0.5,1.7-1,2.6-1.3
				c0.9-0.3,1.7-0.5,2.4-0.5c0.1,0,0.2,0,0.4,0c0.2,0,0.3,0,0.3,0c0.2,0,0.5,0,0.9,0.1c0.4,0.1,0.9,0.1,1.3,0.2
				c0.5,0.1,0.9,0.1,1.3,0.2c0.4,0.1,0.7,0.1,0.9,0.1h38.7c0.1,0,0.3,0.1,0.6,0.2c0.3,0.2,0.6,0.3,0.9,0.5c0.3,0.2,0.6,0.4,0.8,0.6
				c0.2,0.2,0.3,0.4,0.3,0.5v9.7c0,0.8-0.3,1.6-0.9,2.2c-0.6,0.6-1.4,1.1-2.3,1.5s-1.9,0.7-3,0.9c-1.1,0.2-2.1,0.4-3.1,0.4
				c-1,0.1-1.8,0.1-2.5,0.2c-0.7,0-1.1,0-1.2,0c-0.9,0-1.8-0.1-2.5-0.2c-0.8-0.1-1.5-0.3-2.1-0.4c-0.6-0.2-1.3-0.3-1.9-0.4
				c-0.6-0.1-1.2-0.2-1.8-0.2s-1.1,0.1-1.6,0.4c-0.5,0.2-1,0.4-1.6,0.4c-0.4,0-0.8-0.1-1.1-0.3c-0.3-0.2-0.6-0.4-0.8-0.7
				c-0.3-0.3-0.5-0.5-0.8-0.7c-0.3-0.2-0.5-0.3-0.8-0.3c-0.8,0-1.5,0.2-2,0.6c-0.5,0.4-1,0.9-1.3,1.4c-0.3,0.6-0.6,1.1-0.7,1.7
				c-0.1,0.6-0.2,1.1-0.2,1.6c0,0.9,0.2,1.7,0.7,2.5c0.5,0.8,1,1.4,1.7,2c0.7,0.6,1.4,1,2.2,1.4c0.8,0.3,1.5,0.5,2.2,0.5
				c0.1,0,0.1,0,0.2,0c0.1,0,0.1,0,0.1,0c0.1,0,0.3-0.1,0.7-0.3c0.3-0.2,0.6-0.3,0.6-0.3c0.3,0,0.9-0.1,1.6-0.1
				c0.7-0.1,1.6-0.1,2.5-0.2c0.9-0.1,1.9-0.2,3-0.3c1-0.1,2-0.2,2.9-0.3c0.9-0.1,1.8-0.1,2.5-0.2c0.7-0.1,1.3-0.1,1.6-0.1
				c0,0,0,0,0.1,0s0.1,0,0.2,0c0.4,0,0.9,0,1.5,0c0.6,0,1.1,0.1,1.6,0.2c0.5,0.1,1,0.3,1.4,0.6c0.4,0.3,0.7,0.6,0.9,1.1
				c0,0.1,0,0.3,0,0.5c0,0.3,0,0.5,0,0.8c0,0.3,0,0.5,0,0.8c0,0.2,0,0.4,0,0.5c0,0.6,0,1.4,0,2.5c0,1.1-0.1,2.1-0.3,3.2
				c-0.2,1.1-0.4,2.1-0.8,3c-0.4,0.9-0.9,1.4-1.5,1.7c-2,0.2-4,0.5-5.9,0.8c-1.9,0.3-3.7,0.5-5.4,0.5c-1.5,0-2.8-0.1-3.8-0.4
				c-1.1-0.2-2.2-0.4-3.3-0.4c-0.6,0-1.1,0.1-1.6,0.4c-0.5,0.2-1,0.4-1.6,0.4c-0.8,0-1.5-0.1-2.3-0.3c-0.7-0.2-1.5-0.3-2.3-0.3v7.6
				c-0.1,0.1-0.2,0.2-0.3,0.4c-0.2,0.2-0.3,0.4-0.5,0.6c-0.2,0.2-0.3,0.4-0.5,0.6c-0.1,0.2-0.2,0.3-0.3,0.4v0.1c0,0,0,0.1,0,0.2
				c0,0,0,0.1,0,0.2c0,0.1,0,0.1,0,0.2c0,0.1,0.1,0.2,0.3,0.3c0.2,0.2,0.3,0.3,0.4,0.3c1,0.2,1.9,0.3,2.6,0.4
				c0.7,0.1,1.4,0.2,1.9,0.2c0.6,0,1.1,0.1,1.5,0.1c0.5,0,0.9,0,1.4,0c1.7,0,3.3-0.1,4.8-0.2c1.5-0.1,2.9-0.3,4.3-0.5
				c1.4-0.2,2.8-0.4,4.2-0.5c1.4-0.1,2.8-0.2,4.2-0.2c0.9,0,1.9,0.1,3.1,0.2c1.1,0.1,2.2,0.4,3.2,0.8c1,0.4,1.8,1,2.5,1.8
				c0.7,0.8,1,1.9,1,3.3v1.1c0,0.7-0.1,1.6-0.2,2.7c-0.1,1.1-0.2,2.1-0.2,3.2c-0.1,1-0.2,2.3-0.3,3.8l-0.6,0.6
				c-0.1,0.1-0.4,0.1-1,0.2c-0.6,0.1-1.4,0.2-2.5,0.3c-1,0.1-2.2,0.2-3.4,0.3c-1.3,0.1-2.6,0.2-4,0.3c-1.4,0.1-2.8,0.2-4.1,0.3
				c-1.4,0.1-2.6,0.2-3.8,0.3c-1.2,0.1-2.2,0.1-3.1,0.2c-0.9,0-1.5,0.1-1.9,0.1c-0.7,0-1.4-0.1-2.1-0.2c-0.6-0.1-1.3-0.3-2-0.5
				c-0.7-0.2-1.3-0.4-2.1-0.5c-0.7-0.1-1.5-0.2-2.4-0.2c-0.8,0-1.8,0.1-2.7,0.2c-1,0.1-1.9,0.3-3,0.5c-1,0.2-2,0.3-3,0.5
				c-1,0.1-2,0.2-3,0.2c-1.8,0-3.5-0.3-5-0.8c-1.6-0.6-2.9-1.3-4.1-2.3c-1.2-1-2.1-2.2-2.7-3.7c-0.7-1.4-1-3-1-4.8
				c0-0.4,0.1-0.7,0.2-1c0.1-0.3,0.3-0.5,0.5-0.7c0.2-0.2,0.4-0.4,0.5-0.6c0.1-0.2,0.2-0.5,0.2-0.8c0-0.6-0.1-1.1-0.4-1.7
				c-0.2-0.5-0.4-1-0.4-1.6c0-1.5,0.1-3,0.4-4.4c0.2-1.4,0.4-2.9,0.4-4.4c0-1-0.1-2.1-0.2-3c-0.1-1-0.3-2-0.5-2.9
				c-0.2-0.9-0.3-1.9-0.5-2.8c-0.1-0.9-0.2-1.8-0.2-2.6c0-0.9,0.1-1.7,0.2-2.5c0.1-0.8,0.3-1.6,0.5-2.3s0.3-1.5,0.5-2.2
				c0.1-0.7,0.2-1.4,0.2-2.1c0-0.5,0-1.1-0.1-1.6c-0.1-0.6-0.2-1.2-0.2-1.8c-0.1-0.7-0.2-1.5-0.2-2.4c-0.1-0.9-0.1-2-0.1-3.2
				c0-0.4,0-0.8,0-1.3c0-0.5,0-1.1,0.1-1.7c0-0.6,0.1-1.4,0.2-2.2C756.6,506.7,756.8,505.7,756.9,504.5z M759.5,520.6
				c0.1,0.2,0.2,0.4,0.4,0.5c0.2,0.1,0.4,0.2,0.6,0.2c0.1,0,0.1,0,0.1,0h0.1c0.5-0.4,0.9-0.7,1.2-0.9c0.3-0.2,0.6-0.4,0.8-0.6
				c0.2-0.2,0.4-0.4,0.5-0.7c0.1-0.2,0.2-0.6,0.2-1c0-0.5-0.1-0.9-0.2-1.3s-0.3-0.8-0.5-1.3c-0.3,0.9-0.8,1.8-1.3,2.7
				C760.8,519.1,760.2,519.9,759.5,520.6z M759.5,558h0.7v-0.7h-0.7V558z M771.1,502.6c0-0.1,0-0.2-0.1-0.2c-0.1,0-0.2-0.1-0.3-0.1
				c-0.3,0-0.4,0.1-0.3,0.3c0.1,0.2,0.2,0.3,0.3,0.3C771,502.9,771.1,502.8,771.1,502.6z M776.3,532.9v0.6h0.7L776.3,532.9z
				 M783.5,563.8c0-0.6-0.3-1-0.8-1.3v1.3H783.5z M796.2,509v0.7h0.7V509H796.2z M798.8,565.8v-1.5c-0.5,0-1,0.1-1.4,0.3
				c-0.4,0.2-0.7,0.6-0.7,1.2H798.8z"/>
		</g>
	</g>
	<g>
		<g>
			<path class="st0" d="M229.7,373.5c1,34.5-4.9,94.4,7.5,92.1c5.7-1,13.6-15.7,17.5-33.7l0.3-67.9c0-4.6,26,0.5,25.5,9.8
				c-0.5,58.4,0,59.9,0,88.8c12.6-9.8,18.5-17.5,26.2-38.3c0-0.3,4.6,0,4.6,0c-7.5,21.1-13.6,35-31.1,47.1
				c1.8,52-6.9,76.7-25.5,82.8c-31.1,10.5-58.7-25-0.3-72v-35c-5.7,17-13.6,28.8-24.7,29.1c-23.9,0.3-27.5-21.6-26-112.4
				C203.7,359.1,229.4,364.2,229.7,373.5z M254.6,490.8c-29.8,24.7-34,50.7-17.8,54.5C242.5,546.6,256.9,539.7,254.6,490.8z"/>
			<path class="st0" d="M353.1,375.3c7.5-2.8,12.9,20.6,11.8,51.2c11.3-1.3,19.8-11.1,25.5-20.6c0.8-1,2.3-1.5,3.6-0.8
				c1.3,0.8,1.8,2.3,1,3.6c-6.7,11.1-16,21.6-30.4,23.4c-2.6,60.2-62.3,63.8-61-13.4C304.8,349.8,351.3,353.9,353.1,375.3z
				 M329.2,421.1c0,58.1,27.5,53,28.6,11.1c-19.3-8.2-19.3-37.8-11.8-49.9c1-1.5,2.1-2.8,3.1-3.9
				C347.5,367.8,329.2,363.2,329.2,421.1z M350.3,386.9c-6.9,7.2-4.4,34,7.5,38.6c0.5-15.7-0.5-25.7-2.3-34.7
				c-1.8,1.3-5.9,2.8-5.4,0.8C350.3,389.7,350.3,388.4,350.3,386.9z"/>
			<path class="st0" d="M464.5,373.5c0.5,19.8-0.3,41.9,0,69.2c0,1.3-1.3,18.5,8.7,18c5.9-0.3,14.9-24.4,18.5-37.3h4.6
				c-3.6,12.1-12.3,45.3-29.1,52c-14.9,5.9-25.5-3.9-27-22.9c-0.5-3.9-0.5-8-0.5-12.6c-5.7,20.8-14.1,36-26.8,36.3
				c-23.9,0.3-27.5-21.6-26-112.4c0-4.6,25.7,0.5,26,9.8c1,34.5-4.9,94.4,7.5,92.1c6.2-1.3,15.2-19.3,18.3-39.9
				c-0.8-15.7-0.8-36-0.3-62C438.6,359.1,464.3,364.2,464.5,373.5z"/>
			<path class="st0" d="M495.2,427.8h-4.6c4.9-15.4,8.2-31.6,9.3-38.8c-29.6-18-19.6-69.2,0-67.9c20.6,1.3,6.7,52.5,4.9,65.6
				c10,5.1,17.2-2.3,20.6-12.6v-10.3c0.3-4.6,26.2,0.5,25.7,9.8c-0.5,7.7-1.3,35-1.5,62c-0.3,19.6,2.3,25.7,8.5,25.2
				c5.9-0.3,14.9-23.9,18.5-36.8h4.6c-4.1,13.6-14.9,52.7-35.8,52.7c-6.7,0-20.3-1.3-20.3-29.1c0-23.4,0-47.3,0.3-63.5
				c-3.6,6.9-11.1,11.1-21.1,7.2C501.9,402.6,499.3,414.9,495.2,427.8z M503.4,333.1c-14.9-4.1-16.7,43.5-2.8,51.2
				C502.9,373,509.1,334.6,503.4,333.1z"/>
			<path class="st0" d="M676,279.3c0-4.6,26.2,0.5,25.7,9.8c0,53.8-0.3,143.6-0.3,156.7c0,18.5,4.9,18.8,10,13.4
				c5.4-5.7,12.9-24.7,16-35.8h4.6c-4.1,13.6-14.9,53.3-35.8,53.3c-14.7,0-20.6-12.1-20.1-25c-2.6,6.9-8.2,22.9-26.8,23.7
				c-17.2,0.8-25.5-22.4-25.2-56.1c0.3-27.3,6.4-57.4,28.3-56.6c14.1,0.5,21.6,11.3,23.4,17.2V279.3z M658,464.3
				c7.2,3.6,14.7-12.6,17-20.8c0.3-10.8-0.3-39.9,0.8-53.8c-1.8-4.9-6.9-17.8-15.2-17.5C646.2,372.7,647.5,459.1,658,464.3z"/>
			<path class="st0" d="M776.1,363.7c0-4.6,26.2,0.5,25.7,9.8c-1,24.4-4.6,85.7,6.9,87c5.9-0.3,14.9-23.9,18.5-36.8h4.6
				c-4.1,13.6-14.9,52.7-35.8,52.7c-12.6,0-19.6-14.7-19.8-25c-2.6,6.9-8.2,22.9-26.8,23.7c-17.2,0.8-25.5-22.4-25.2-56.1
				c0.3-27.3,6.4-57.4,28.3-56.6c14.1,0.5,21.6,11.3,23.4,17.2V363.7z M758.1,463.8c6.9,4.1,14.7-12.3,17-20.6
				c0.3-10.8-0.3-41.9,0.8-55.8c-1.8-4.9-6.7-17-14.9-16.7C745.2,371.2,746,456.6,758.1,463.8z"/>
			<path class="st0" d="M849.9,373.5c1,34.5-4.9,94.4,7.5,92.1c5.7-1,13.6-15.7,17.5-33.7l0.3-67.9c0-4.6,26,0.5,25.5,9.8
				c-0.5,58.4,0,59.9,0,88.8c12.6-9.8,18.5-17.5,26.2-38.3c0-0.3,4.6,0,4.6,0c-7.5,21.1-13.6,35-31.1,47.1
				c1.8,52-6.9,76.7-25.5,82.8c-31.1,10.5-58.7-25-0.3-72v-35c-5.7,17-13.6,28.8-24.7,29.1c-23.9,0.3-27.5-21.6-26-112.4
				C823.9,359.1,849.7,364.2,849.9,373.5z M874.9,490.8c-29.8,24.7-34,50.7-17.8,54.5C862.8,546.6,877.2,539.7,874.9,490.8z"/>
		</g>
	</g>
	<g>
		<g>
			<path class="st0" d="M211,214.7c0-2.2-0.2-4.4-0.5-6.5c-0.3-2.2-0.7-4.3-1-6.5c-0.4-2.2-0.7-4.5-1-6.8c-0.3-2.3-0.5-4.8-0.5-7.5
				c0-2.3,0.1-4.2,0.4-5.7c0.3-1.5,0.5-3,0.7-4.7c0.2-1.6,0.4-3.7,0.5-6c0.1-2.4,0.1-5.6-0.1-9.8c1.5-1,2.7-2.3,3.7-4.2
				c1-1.8,2.1-3.7,3.2-5.5c1.1-1.8,2.4-3.4,3.9-4.8c1.5-1.4,3.4-2,5.6-2h22.5c3.4,0,6,0.8,8.1,2.4c2,1.6,3.5,3.5,4.6,5.6
				c1,2.2,1.7,4.5,2,6.8c0.3,2.3,0.5,4.3,0.5,5.8c0,3-0.3,5.4-1,7.2c-0.7,1.8-1.4,3.3-2.1,4.4c-0.8,1.2-1.5,2.2-2.1,3.1
				c-0.7,0.9-1,1.9-1,3.1c0,0.9,0.2,1.6,0.6,2.3c0.4,0.7,0.9,1.3,1.4,1.9c0.5,0.6,1,1.2,1.5,1.8c0.5,0.6,0.9,1.3,1.1,2.1
				c-0.2,5-0.3,9.1-0.1,12.2c0.1,3.1,0.3,5.9,0.5,8.3c0.2,2.5,0.5,4.9,0.7,7.2c0.3,2.4,0.4,5.3,0.4,8.8c0,3.3-0.1,6.6-0.3,9.9
				c-0.2,3.3-0.4,6.6-0.7,9.9s-0.4,6.6-0.5,9.9c-0.1,3.3-0.1,6.7,0,10c-0.4,0.1-0.9,0.6-1.7,1.4c-0.8,0.8-1.2,1.3-1.3,1.7
				c0,0.1,0.1,0.3,0.2,0.8c0.1,0.4,0.3,0.9,0.5,1.4c0.2,0.5,0.3,1,0.5,1.4c0.1,0.4,0.2,0.7,0.2,0.9c0.1,0.5,0.1,1.5,0.2,2.9
				c0,1.4,0.1,2.9,0.1,4.6c0,1.6,0,3.1-0.1,4.5c0,1.4-0.1,2.4-0.2,3c0.3-0.1,0.7-0.1,1.1-0.1c0.6,0,1,0.2,1.3,0.5
				c0.3,0.3,0.5,0.7,0.6,1.2c0.1,0.4,0.2,0.9,0.2,1.4s0,1,0,1.3c0,2-0.3,3.8-1,5.2c-0.7,1.4-1.9,2.8-3.6,4c-0.8-0.1-1.6-0.1-2.5-0.1
				c-0.8,0-1.7,0-2.6,0c-3.7,0-7.5,0.2-11.2,0.5c-3.7,0.3-7.3,0.7-10.8,1.2c-0.1,0.7-0.5,1.2-1.1,1.4c-0.6,0.2-1.2,0.3-1.8,0.3
				c-0.3,0-0.6,0-0.8-0.1c-0.3,0-0.5-0.1-0.6-0.1h-2c-1.4,0-2.8-0.1-4.3-0.2c-1.5-0.1-2.9-0.3-4.2-0.7c-1.4-0.4-2.6-1-3.6-1.8
				c-1.1-0.8-1.9-2-2.6-3.3c0.1-6.1,0.1-11.9,0-17.3c-0.1-5.4-0.3-10.6-0.6-15.5c-0.3-4.9-0.5-9.5-0.7-13.8
				c-0.2-4.3-0.3-8.4-0.3-12.4c0-3.4,0.1-6.5,0.3-9.1c0.2-2.6,0.4-5,0.5-7.1c0.2-2.1,0.4-4,0.5-5.6C210.9,217.9,211,216.3,211,214.7
				z M218.4,174.7c0.1,0.1,0.3,0.4,0.7,0.8c0.4,0.4,0.7,0.6,0.8,0.7c0,0.1,0.1,0.1,0.3,0.1c0.2,0,0.3,0,0.4,0c0.1,0,0.2,0,0.4,0
				c0.2,0,0.3,0,0.4-0.1c-0.1-0.4-0.4-0.7-0.9-1c-0.4-0.3-0.9-0.5-1.3-0.5c-0.1,0-0.2,0-0.4,0.1
				C218.6,174.6,218.5,174.7,218.4,174.7z M230.4,183.7l-3-1.5v1.5H230.4z M239.4,243.5c0.1-0.8-0.1-1.4-0.4-1.9
				c-0.3-0.5-0.8-0.9-1.3-1.2c-0.5-0.3-1.1-0.5-1.6-0.7c-0.6-0.1-1.2-0.2-1.8-0.2c0,1.7,0.5,2.8,1.5,3.2
				C236.8,243.3,238,243.5,239.4,243.5z M244.6,222.5c-0.1,0-0.2,0-0.4,0c-0.2,0-0.3,0-0.4,0.1v3h3.4c0-0.7-0.2-1.4-0.7-2.1
				C246.1,222.8,245.4,222.5,244.6,222.5z M248.3,268.9c0,0.4,0,0.9,0.1,1.4c0,0.5,0.1,1,0.3,1.5c0.2,0.5,0.4,0.9,0.7,1.3
				c0.3,0.3,0.7,0.5,1.2,0.5c0.9,0,1.5-0.3,1.9-0.9c0.4-0.6,0.5-1.3,0.5-2.1c0-0.4,0-0.8-0.1-1.4c0-0.5-0.1-1.1-0.3-1.5
				c-0.2-0.5-0.4-0.9-0.7-1.2c-0.3-0.3-0.7-0.5-1.2-0.5c-0.9,0-1.5,0.3-1.9,0.9C248.4,267.5,248.3,268.1,248.3,268.9z M249.9,254
				c-0.4,0-0.6,0.2-0.8,0.5c-0.2,0.3-0.3,0.7-0.3,1c0,0.4,0.1,0.7,0.3,1s0.5,0.5,0.8,0.5c0.4,0,0.6-0.2,0.8-0.5
				c0.2-0.3,0.3-0.7,0.3-1c0-0.4-0.1-0.7-0.3-1C250.5,254.1,250.3,254,249.9,254z"/>
			<path class="st0" d="M367.8,280.8c-0.5,0-1,0.2-1.4,0.5c-0.4,0.3-0.7,0.7-0.9,1.2c0.6,0.9,1.7,2.1,3.3,3.6c1.6,1.5,3.3,3,5,4.4
				c1.7,1.4,3.3,2.7,4.6,3.8c1.4,1.1,2.1,1.7,2.1,1.8c0,0.1,0,0.4,0.1,0.7c0,0.3,0.1,0.6,0.1,0.7c0,0.9-0.3,1.8-1,2.6
				c-0.7,0.9-1.5,1.7-2.5,2.4c-1,0.7-2,1.3-3,1.8c-1,0.5-1.9,0.7-2.5,0.7h-34.4c-0.1-0.3-0.3-0.7-0.7-1.2s-0.8-1-1.3-1.4
				c-0.5-0.5-1-0.9-1.4-1.3c-0.5-0.4-0.8-0.6-1-0.7c-0.1-0.1-0.3,0-0.8,0.1c-0.5,0.1-1,0.3-1.4,0.5c-0.5,0.2-0.9,0.4-1.4,0.5
				c-0.4,0.2-0.7,0.3-0.9,0.3c-0.1,0-0.2,0-0.4,0.1c-0.2,0-0.3,0.1-0.4,0.1c-1.3,0-2.3-0.8-3.1-2.5c-0.7-1.7-1.3-3.6-1.6-5.9
				c-0.3-2.2-0.5-4.4-0.5-6.6c0-2.2-0.1-3.7-0.1-4.6c0-1.2,0.2-2.5,0.5-3.8c0.3-1.3,0.7-2.5,1-3.7v-91.4c0-0.2,0.2-0.7,0.6-1.5
				c0.4-0.8,0.7-1.3,0.9-1.6c0.1-0.1,0.5-0.5,1.1-1.1c0.6-0.6,1.2-1.2,1.9-1.9s1.3-1.3,1.9-1.9c0.6-0.6,0.9-1,1-1.1
				c0.1-0.1,0.1-0.2,0.2-0.4c0-0.2,0.1-0.3,0.1-0.5c0-0.6-0.3-1-0.8-1.2c-0.5-0.2-1.1-0.4-1.8-0.5c-0.7-0.1-1.4-0.3-2.1-0.5
				c-0.7-0.2-1.2-0.7-1.5-1.3c0-0.2,0-0.6-0.1-1c0-0.5-0.1-1-0.1-1.6c0-0.6,0-1.1,0-1.6c0-0.5,0-0.8,0-1c0-1.2,0.2-2.8,0.6-4.9
				c0.4-2.1,1-4.2,1.8-6.3c0.8-2,1.7-3.8,2.9-5.3c1.1-1.5,2.4-2.2,3.9-2.2H370c1.5,0,2.9,0.5,4.3,1.4c1.4,0.9,2.5,2,3.2,3.1
				c0,0.3,0,0.8,0,1.6s0,1.6,0.1,2.5c0,0.9,0.1,1.7,0.1,2.5s0,1.3,0,1.6c0,1.3-0.1,2.5-0.3,3.7c-0.2,1.1-0.4,2.2-0.5,3.3
				c-0.2,1.1-0.4,2.1-0.5,3.2c-0.2,1.1-0.3,2.2-0.3,3.3v0.8c0,0.1,0.1,0.3,0.3,0.8c0.2,0.5,0.3,1,0.5,1.4c0.1,0.5,0.3,0.9,0.5,1.4
				c0.2,0.4,0.3,0.7,0.3,0.9c0.1,0.7,0.2,1.8,0.3,3.6c0.1,1.7,0.3,3.5,0.4,5.4c0.1,1.9,0.3,3.7,0.4,5.4c0.1,1.7,0.2,2.9,0.2,3.6
				c2.6,1.5,5.7,2.7,9.5,3.4c3.8,0.7,7.6,1.1,11.5,1.1c1.7,0,3.7-0.1,6.1-0.3c2.4-0.2,4.7-0.8,6.9-1.6c2.2-0.9,4.1-2.2,5.7-3.9
				c1.6-1.8,2.4-4.2,2.4-7.2c0-2-0.3-4-0.8-5.8c-0.5-1.8-0.8-3.7-0.8-5.6v-2.4c0.1-0.9,0.2-2.4,0.3-4.5c0.1-2.1,0.3-4.4,0.4-6.7
				c0.2-2.4,0.3-4.6,0.5-6.7c0.1-2.1,0.3-3.6,0.3-4.5c0.2-0.3,0.5-0.7,1-1.2c0.4-0.5,1-1,1.5-1.5c0.6-0.5,1.2-0.9,1.8-1.3
				c0.6-0.4,1.2-0.5,1.6-0.5h27c2,0,3.6,0.6,4.8,1.8c1.2,1.2,2.1,2.6,2.7,4.3c0.6-1.5,1.3-2.4,2.1-2.7c0.8-0.3,1.8-0.5,3.1-0.5
				c1.5,0,2.8,0.5,3.7,1.5c0.9,1,1.6,2.1,2.1,3.5c0.5,1.3,0.8,2.6,0.9,3.9c0.1,1.3,0.2,2.3,0.2,3.1c0,1.8-0.2,3.2-0.7,4.3
				c-0.5,1.1-1,2.2-1.6,3.3c-0.6,1.1-1.2,2.4-1.6,3.8c-0.5,1.5-0.7,3.4-0.7,5.9c0,2,0.2,4.5,0.5,7.2c0.3,2.8,0.7,5.8,1.2,8.9
				c0.4,3.2,0.8,6.5,1.2,10c0.3,3.5,0.5,6.9,0.5,10.4c0,4.9-0.3,9.5-0.8,13.7c-0.5,4.2-0.8,8.1-0.8,11.5c0,1.7,0.1,3.3,0.2,4.9
				c0.1,1.6,0.3,3.6,0.5,5.9c0.2,2.3,0.4,5.3,0.5,8.9c0.1,3.6,0.2,8.3,0.2,14.1c0,4.9,0,9.1,0.1,12.6c0.1,3.5,0.1,6.5-0.1,8.9
				c-0.1,2.4-0.4,4.4-0.9,5.8c-0.5,1.5-1.3,2.6-2.4,3.3c-1.1,0.8-2.6,1.3-4.4,1.5c-1.9,0.3-4.3,0.4-7.2,0.4c-6.1,0-11.4-0.3-15.7-1
				c-4.3-0.7-7.9-1.6-10.8-2.7c-2.9-1.1-5.2-2.4-6.9-3.8c-1.7-1.4-3-2.9-3.8-4.3c-0.8-1.5-1.4-2.9-1.6-4.2c-0.3-1.3-0.4-2.5-0.4-3.4
				c0-0.4,0-0.9,0-1.5c0-0.7,0-1.3,0.1-2c0-0.7,0.1-1.2,0.1-1.7c0-0.5,0-0.7,0-0.8c0-0.1,0.1-0.4,0.3-0.9c0.2-0.4,0.4-0.9,0.5-1.4
				c0.2-0.5,0.3-1,0.5-1.4c0.1-0.5,0.2-0.7,0.2-0.8c0-0.1-0.1-0.5-0.2-1.1c-0.1-0.6-0.3-1.2-0.5-1.9c-0.2-0.7-0.4-1.3-0.5-1.9
				c-0.2-0.6-0.3-1-0.3-1.1V248c0.8-0.3,1.3-0.7,1.4-1.3c0.1-0.5,0.2-1.2,0.2-1.8c0-0.1,0-0.4-0.1-0.7c0-0.3-0.1-0.6-0.1-0.7
				c-2.8-0.4-5.6-1-8.4-1.8c-2.8-0.8-5.5-1.7-8.1-2.7l-3.1,3.7H379V278c0,1.4-0.4,2.8-1.2,4.1c-0.8,1.4-1.9,2-3.3,2
				c-0.1,0-0.4,0-0.8-0.1c-0.4,0-0.6-0.1-0.6-0.2c-0.1,0-0.4-0.1-0.9-0.4c-0.4-0.3-0.9-0.6-1.4-1c-0.5-0.4-1-0.7-1.4-1
				c-0.4-0.3-0.7-0.5-0.8-0.5c-0.1,0-0.2,0-0.4-0.1C368,280.9,367.9,280.8,367.8,280.8z M337.1,230c0.4,0,0.7-0.1,0.9-0.4
				c0.2-0.3,0.3-0.6,0.3-1c0-0.4-0.1-0.7-0.3-1c-0.2-0.3-0.5-0.4-0.9-0.4c-0.4,0-0.6,0.1-0.8,0.4c-0.2,0.3-0.3,0.6-0.3,1
				c0,0.4,0.1,0.8,0.3,1C336.5,229.9,336.7,230,337.1,230z M336.9,159.6c0,0.2,0,0.7,0.1,1.5c0,0.8,0.1,1.3,0.2,1.6c1-3,3-5,6-6
				c-0.1-0.3-0.3-0.8-0.7-1.6c-0.4-0.8-0.7-1.2-0.8-1.4c0-0.1-0.1-0.1-0.3-0.2c-0.2,0-0.3-0.1-0.5-0.1c-0.9,0-1.6,0.2-2.1,0.6
				c-0.5,0.4-0.9,0.9-1.2,1.5c-0.3,0.6-0.4,1.3-0.5,2C336.9,158.4,336.9,159,336.9,159.6z M353.6,170.2c-1.4-1-2.9-1.5-4.5-1.5
				c-0.1,0.1-0.4,0.4-0.8,0.8c-0.4,0.4-0.6,0.6-0.7,0.8H353.6z M355,263.7c0,0.2,0,0.4,0.1,0.4c0,0.1,0,0.3,0,0.3
				c0.1,0.2,0.3,0.7,0.7,1.5c0.4,0.8,0.6,1.3,0.8,1.5c0.1-0.1,0.1-0.4,0.1-0.7c0-0.3,0-0.6,0-0.7c0-0.7-0.1-1.3-0.2-1.8
				c-0.1-0.5-0.6-1-1.4-1.3c0,0.1,0,0.2-0.1,0.4C355,263.5,355,263.6,355,263.7z M359.6,171.6c0.1-0.2,0-0.4-0.5-0.5
				c-0.5-0.1-1.1-0.2-1.8-0.2c-0.7,0-1.2,0.1-1.7,0.2c-0.5,0.1-0.6,0.3-0.5,0.5c0.1,0.3,0.4,0.5,0.9,0.6c0.4,0.1,0.9,0.2,1.3,0.2
				c0.5,0,1-0.1,1.4-0.2C359.2,172.1,359.4,171.9,359.6,171.6z M392.5,207.6c-0.6,2-1.4,4.1-2.4,6.3c-1,2.1-2.2,4-3.7,5.7
				c0.1,0.1,0.2,0.1,0.4,0.1c0.2,0,0.3,0,0.4,0c0.2,0,0.8-0.3,1.7-0.8c0.9-0.5,1.9-1.2,2.9-2c1-0.8,1.9-1.5,2.6-2.2
				c0.8-0.7,1.2-1.3,1.2-1.8c0-1-0.3-1.9-0.9-2.9C394,208.9,393.3,208.1,392.5,207.6z M423.6,246.5c0,1.4,0.6,2.4,1.8,3v-3H423.6z
				 M429.9,282.5c-0.4,0-0.6,0.1-0.8,0.4c-0.2,0.3-0.3,0.6-0.3,1c0,0.4,0.1,0.8,0.3,1c0.2,0.3,0.5,0.4,0.8,0.4s0.7-0.1,0.9-0.4
				c0.2-0.3,0.3-0.6,0.3-1c0-0.4-0.1-0.7-0.3-1C430.6,282.6,430.3,282.5,429.9,282.5z M451,261.5h-3.1c0.7,1.2,1.8,1.9,3.1,1.9
				V261.5z M452.8,265.9c-0.1,0.4,0,0.7,0.2,1c0.2,0.3,0.5,0.5,0.9,0.5s0.7-0.1,0.9-0.4c0.2-0.3,0.3-0.6,0.3-1c0-0.4-0.1-0.7-0.3-1
				c-0.2-0.3-0.5-0.4-0.9-0.4c-0.2,0-0.4,0-0.4,0.1c0.1-0.4,0-0.7-0.2-1.1c-0.2-0.4-0.5-0.5-0.9-0.5c-0.4,0-0.6,0.2-0.8,0.5
				c-0.2,0.3-0.3,0.7-0.3,1c0,0.4,0.1,0.7,0.3,1c0.2,0.3,0.5,0.5,0.8,0.5c0.1,0,0.1,0,0.2-0.1C452.7,265.9,452.7,265.9,452.8,265.9z
				 M453.5,264.6c0,0.7-0.2,1.1-0.7,1.3c0-0.3,0.1-0.6,0.2-0.8S453.3,264.7,453.5,264.6z M458.7,279.4c0-1.4-0.6-2.4-1.9-3v3H458.7z
				"/>
			<path class="st0" d="M487.6,231.6c0-0.1-0.1-0.7-0.2-1.5c-0.1-0.9-0.3-1.9-0.4-3c-0.1-1.1-0.3-2.2-0.4-3.3
				c-0.1-1.1-0.3-2-0.3-2.6v-0.7c0-4.2,0.1-7.6,0.2-10.4c0.1-2.8,0.4-5.3,0.9-7.5c0.5-2.2,1.2-4.4,2.2-6.6c1-2.2,2.4-4.8,4.2-7.7
				c0-0.1,0-0.2,0.1-0.3c0-0.1,0.1-0.3,0.1-0.4c0-1-0.3-1.9-0.8-2.6c-0.5-0.7-0.8-1.6-0.8-2.6c0-1.2,0.2-2.2,0.7-3
				c0.5-0.8,1.1-1.6,1.9-2.5c0.8-0.9,1.7-1.9,2.7-3.2c1.1-1.2,2.2-2.9,3.3-4.9c2.1-3.7,4.5-6.7,7.2-9.3c2.7-2.5,5.6-4.6,8.6-6.3
				c3-1.7,6.1-3,9.3-3.9c3.2-0.9,6.3-1.6,9.3-2c3-0.4,5.9-0.7,8.6-0.8c2.7-0.1,5.1-0.2,7.2-0.2c5,0,10.6,0.1,16.7,0.4
				c6.1,0.3,12.2,0.8,18.4,1.8c6.2,0.9,12.2,2.3,18,4.2s11,4.4,15.5,7.7c4.5,3.3,8.1,7.3,10.9,12.2c2.7,4.9,4.1,10.8,4.1,17.7
				c0,1.8-0.1,3.4-0.3,4.7c-0.2,1.3-0.4,2.4-0.5,3.3c-0.2,0.9-0.4,1.8-0.5,2.6c-0.2,0.8-0.3,1.7-0.3,2.6c0,1.6,0.2,3.3,0.7,5.2
				c0.5,1.9,1,3.8,1.6,5.8s1.2,4,1.6,6c0.5,2,0.7,4.1,0.7,6.3c0,0.4,0,1.2,0,2.2c0,1.1,0,2.2-0.1,3.3c0,1.2-0.1,2.3-0.1,3.3
				c0,1.1,0,1.8,0,2.2c-0.1,0.1-0.2,0.4-0.4,0.9c-0.2,0.4-0.4,0.9-0.5,1.4c-0.2,0.5-0.3,0.9-0.4,1.3c-0.1,0.4-0.2,0.7-0.2,0.9
				c-0.4,6-0.9,11.7-1.5,17.2c-0.7,5.5-1.7,10.6-3.2,15.2s-3.4,8.9-5.8,12.7c-2.4,3.8-5.5,7-9.3,9.7c-3.8,2.7-8.4,4.7-13.8,6.1
				c-5.4,1.4-11.8,2.1-19.3,2.1c-0.6,0-1.4,0-2.4-0.1c-1,0-1.6-0.1-1.6-0.1c-0.1,0-0.4-0.2-0.9-0.5c-0.4-0.3-0.9-0.7-1.4-1.1
				c-0.5-0.4-0.9-0.7-1.4-1c-0.4-0.3-0.7-0.4-0.9-0.4c-0.1,0-0.4,0.2-0.8,0.7c-0.4,0.5-0.9,1-1.4,1.5c-0.5,0.5-1,1-1.4,1.5
				c-0.4,0.4-0.7,0.7-0.9,0.8c0,0.1-0.4,0.1-1.2,0.1c-0.8,0-1.4,0-1.9,0c-0.4,0-1.2,0-2.4,0c-1.1,0-1.8,0-2-0.1
				c-1,0-2.8-0.1-5.4-0.2c-2.6-0.1-5.3-0.3-8.1-0.4c-2.9-0.1-5.6-0.3-8.1-0.4c-2.6-0.1-4.4-0.3-5.4-0.3c-1.2-1.8-2.5-2.9-3.9-3.6
				s-3-1-4.7-1.3c-1.7-0.2-3.5-0.4-5.6-0.7c-2-0.2-4.3-0.8-6.7-1.8c-4.1-1.7-7.8-4.2-11.1-7.6c-3.3-3.4-6.2-7.2-8.6-11.5
				s-4.2-8.9-5.5-13.7c-1.3-4.8-1.9-9.5-1.9-13.9c0-1.8,0.1-3.3,0.3-4.8c0.2-1.4,0.4-2.7,0.5-3.9c0.2-1.2,0.4-2.4,0.5-3.5
				c0.2-1.1,0.3-2.3,0.3-3.5v-0.8c-0.1-0.1-0.3-0.6-0.8-1.5C487.9,232.2,487.7,231.7,487.6,231.6z M502.6,177.6v0.3
				c-0.1,0.1-0.1,0.2-0.1,0.4c0,0.1,0,0.3,0.1,0.4c0,0.1,0.1,0.3,0.1,0.3c0.1,0.1,0.3,0.4,0.7,0.8c0.4,0.4,0.7,0.6,0.8,0.7
				c0,0.1,0.1,0.1,0.3,0.1c0.2,0,0.3,0,0.4,0c0.1,0,0.3,0,0.5,0c0.2,0,0.3,0,0.3-0.1c0.2-0.1,0.5-0.2,1-0.5c0.4-0.3,0.9-0.5,1.4-0.9
				c0.5-0.3,0.9-0.6,1.3-0.9c0.4-0.3,0.7-0.5,0.8-0.7c-0.1-0.1-0.4-0.2-0.9-0.3c-0.4-0.1-0.9-0.3-1.4-0.4c-0.5-0.1-0.9-0.3-1.3-0.4
				c-0.4-0.1-0.7-0.3-0.9-0.3h-0.8h-0.7c-0.1,0.1-0.4,0.4-0.8,0.8C502.9,177.2,502.7,177.5,502.6,177.6z M505.6,269
				c-0.4,0-0.6,0.1-0.8,0.4c-0.2,0.3-0.3,0.6-0.3,1c0,0.4,0.1,0.8,0.3,1c0.2,0.3,0.5,0.4,0.8,0.4s0.7-0.1,0.9-0.4
				c0.2-0.3,0.3-0.6,0.3-1c0-0.4-0.1-0.7-0.3-1C506.2,269.1,505.9,269,505.6,269z M507.1,271.9c-0.2-0.1-0.4,0-0.5,0.3
				c-0.1,0.4-0.2,0.8-0.2,1.2c0,0.4,0.1,0.8,0.2,1.2c0.1,0.3,0.3,0.5,0.5,0.4c0.4-0.3,0.7-0.8,0.7-1.6
				C507.8,272.7,507.6,272.2,507.1,271.9z M516.1,289.9c0.8,0.7,1.5,1.2,2.1,1.3c0.6,0.1,1.4,0.2,2.4,0.2h1.4
				c-0.1-0.3-0.6-0.8-1.4-1.6c-0.8-0.8-1.3-1.3-1.6-1.5h-0.7h-0.9c-0.1,0.1-0.4,0.4-0.8,0.8C516.4,289.5,516.2,289.8,516.1,289.9z
				 M528.1,181.2h1.5c0.7,0,1.5,0,2.2-0.1c0.7-0.1,1.4-0.2,2-0.5c0.6-0.3,1.1-0.6,1.5-1.1s0.6-1.2,0.6-2c-0.1,0-0.5,0-0.9,0.1
				c-0.5,0-0.8,0.1-0.9,0.1c-0.4,0.1-1,0.2-1.7,0.3c-0.7,0.1-1.4,0.3-2,0.5c-0.7,0.2-1.4,0.4-2.3,0.7V181.2z M535.5,227.9v0.7
				c0.1,0.3,0.4,0.8,0.8,1.6c0.4,0.8,0.6,1.3,0.8,1.5v23.9c0,1.2,0.5,2.3,1.6,3.3c1.1,1.1,2.4,2,4.1,2.9c1.6,0.9,3.5,1.7,5.6,2.4
				c2.1,0.7,4.2,1.4,6.3,1.9c2.1,0.5,4.1,0.9,5.9,1.2c1.9,0.3,3.4,0.4,4.7,0.4c2.9,0,5.7-0.7,8.4-2.1c2.7-1.4,5.2-3.2,7.3-5.5
				c2.2-2.3,3.9-5,5.2-8c1.3-3,2-6.2,2-9.4c0-2.1-0.3-4.3-0.8-6.6c-0.5-2.3-1.1-4.6-1.6-7c-0.6-2.4-1.1-4.7-1.6-7.1
				c-0.5-2.3-0.8-4.6-0.8-6.7c0-0.6,0-1.4,0.1-2.4c0-1,0.1-2,0.1-3c0-1,0-1.8,0.1-2.6c0-0.7,0.1-1.1,0.1-1.2l3.1-4.4
				c0.2-0.4-0.1-1-1.1-2c-1-1-2.2-2.2-3.8-3.5c-1.6-1.4-3.3-2.8-5.3-4.2c-1.9-1.5-3.8-2.8-5.6-4.1c-1.8-1.2-3.4-2.3-4.7-3.1
				c-1.4-0.8-2.2-1.2-2.7-1.2c-2.2,0-4.5,0.4-6.9,1.3c-2.4,0.8-4.8,1.9-7,3.2c-2.3,1.3-4.3,2.8-6.2,4.4c-1.9,1.6-3.4,3.2-4.7,4.7
				c0,0.9-0.1,2.5-0.2,4.7c-0.1,2.3-0.3,4.7-0.4,7.2c-0.1,2.5-0.3,4.9-0.5,7.2c-0.2,2.3-0.3,3.9-0.4,4.8c0,0.1-0.1,0.5-0.3,1.1
				c-0.2,0.6-0.3,1.2-0.5,1.9c-0.1,0.7-0.3,1.3-0.5,1.9c-0.2,0.6-0.3,1-0.3,1.1V227.9z M555,159.6h1.4l-1.4-1.4V159.6z M580.5,289.9
				c-0.4,0-0.6,0.1-0.8,0.4c-0.2,0.3-0.3,0.6-0.3,1c0,0.4,0.1,0.8,0.3,1c0.2,0.3,0.5,0.4,0.8,0.4s0.7-0.1,0.9-0.4
				c0.2-0.3,0.3-0.6,0.3-1c0-0.4-0.1-0.7-0.3-1C581.2,290.1,580.9,289.9,580.5,289.9z M603.3,270.9c0-2.5-1.2-3.7-3.7-3.7
				c0,1.1,0.3,2,1,2.7S602.2,270.9,603.3,270.9z M604.4,270.5c-0.4,0-0.6,0.1-0.8,0.4c-0.2,0.3-0.3,0.6-0.3,1c0,0.4,0.1,0.8,0.3,1
				c0.2,0.3,0.5,0.4,0.8,0.4c0.4,0,0.7-0.1,0.9-0.4c0.2-0.3,0.3-0.6,0.3-1c0-0.4-0.1-0.7-0.3-1C605.1,270.7,604.8,270.5,604.4,270.5
				z M610.8,287c0-1.4-0.6-2.4-1.9-3.1v3.1H610.8z M622.4,168.6c0.1-0.2,0-0.4-0.2-0.5c-0.2-0.1-0.4-0.2-0.6-0.2
				c-0.2,0-0.4,0.1-0.6,0.2c-0.2,0.1-0.2,0.3-0.1,0.5c0.1,0.4,0.4,0.7,0.7,0.7C622.1,169.3,622.3,169.1,622.4,168.6z M622.4,197.1v3
				l1.5-1.5L622.4,197.1z"/>
			<path class="st0" d="M729,146h5.4c4.1,0,7.7,0.1,10.8,0.3c3.1,0.2,5.8,0.6,8.2,1.3c2.4,0.7,4.5,1.8,6.3,3.3
				c1.8,1.5,3.5,3.6,5.2,6.2c1.1,1.8,2.1,3.1,2.9,3.9c0.8,0.9,1.6,1.6,2.4,2.3c0.7,0.7,1.4,1.4,2,2.1s1.2,1.9,1.7,3.5
				c0.2,0.4,0.5,1.3,0.9,2.5s0.8,2.5,1.3,3.8c0.4,1.3,0.8,2.5,1.2,3.6c0.3,1.1,0.5,1.6,0.5,1.7v36c-1.8,3-3.8,6.4-6.1,10.2
				c-2.3,3.8-5,7.4-8,10.8c-3,3.4-6.3,6.2-9.9,8.5s-7.6,3.5-11.9,3.5h-28.5c-0.1-0.1-0.2-0.3-0.5-0.6c-0.3-0.3-0.5-0.5-0.9-0.9
				c-0.3-0.3-0.6-0.6-0.9-0.9c-0.3-0.3-0.5-0.5-0.7-0.5l-0.3-0.1h-0.4c-0.1,0-0.2,0-0.4,0.1c-0.2,0-0.3,0.1-0.4,0.1
				c-0.1,0.3-0.3,0.8-0.5,1.5c-0.3,0.7-0.6,1.4-0.9,2.2c-0.3,0.8-0.6,1.6-0.9,2.2c-0.3,0.7-0.5,1.2-0.5,1.5c0,0.1,0,0.2-0.1,0.4
				c0,0.2-0.1,0.3-0.1,0.4c0,0.2,0,0.4,0.1,0.4c0,0.1,0,0.3,0,0.3c0,0.1,0.1,0.3,0.2,0.5c0.1,0.3,0.3,0.6,0.5,0.9
				c0.2,0.3,0.3,0.6,0.5,0.9c0.1,0.3,0.3,0.5,0.3,0.5v36c0,0.5-0.4,1.2-1.3,1.9c-0.9,0.8-1.8,1.6-2.9,2.5c-1.1,0.9-2.1,1.9-3,2.9
				c-1,1-1.5,2.1-1.8,3.2h-37.5c-0.9,0-1.8-0.4-2.6-1.1c-0.9-0.7-1.7-1.6-2.4-2.6c-0.7-1-1.3-2-1.8-3c-0.4-1-0.7-1.8-0.7-2.3
				l-0.8-49.5V242c-0.1-1.2-0.1-3.1-0.2-5.7c0-2.6-0.1-5.5-0.2-8.7c-0.1-3.3-0.1-6.7-0.2-10.3c0-3.6-0.1-7-0.1-10.3
				c0-3.3-0.1-6.2-0.1-8.7c0-2.6-0.1-4.5-0.1-5.7c0-0.5,0.1-1.5,0.2-3c0.1-1.5,0.3-3.1,0.4-4.9c0.2-1.8,0.3-3.5,0.5-5.1
				c0.1-1.6,0.3-2.8,0.4-3.6c0-0.1,0.1-0.4,0.3-0.8c0.2-0.4,0.3-0.9,0.5-1.4c0.1-0.5,0.3-1,0.5-1.4c0.2-0.4,0.3-0.7,0.3-0.9v-0.8
				v-0.7c-0.1-0.1-0.3-0.5-0.6-1.1c-0.3-0.6-0.7-1.2-1-1.9c-0.3-0.7-0.6-1.3-0.9-1.9c-0.3-0.6-0.5-0.9-0.5-1.1v-1.4
				c0-1,0.3-2.5,1-4.3c0.7-1.9,1.5-3.7,2.5-5.5s2.2-3.4,3.4-4.7c1.2-1.4,2.4-2,3.6-2h47.9c0.9,0.7,1.6,1.2,2.2,1.4
				c0.6,0.2,1.4,0.3,2.3,0.3c0.9,0,1.7-0.1,2.3-0.3c0.6-0.2,1.3-0.6,2.2-1.4c0.4,0,1,0,1.9,0c0.9,0,1.9,0,2.9-0.1c1,0,2-0.1,3-0.1
				C728,146,728.6,146,729,146z M681.8,161.9c0-0.1,0-0.2,0-0.4s0-0.3-0.1-0.4c-0.8,0.7-1.8,1.3-2.9,2c-1.1,0.7-2.2,1.4-3.3,2.1
				c-1.1,0.7-2.2,1.5-3.2,2.3s-1.9,1.6-2.5,2.5c0,0.2,0.2,0.5,0.6,0.9c0.4,0.4,0.7,0.6,0.9,0.6c3.1,0,5.6-0.8,7.6-2.4
				C680.9,167.6,681.8,165.2,681.8,161.9z M673.5,279.4h-0.7v1.5h3c-0.1-0.1-0.4-0.4-0.8-0.8c-0.4-0.4-0.6-0.6-0.8-0.8H673.5z
				 M678.8,246.5v3.4c1,0,1.8-0.3,2.4-1c0.7-0.7,1-1.5,1-2.4H678.8z M692.3,212.1c-0.2-0.1-0.4,0-0.5,0.2c-0.1,0.2-0.2,0.4-0.2,0.6
				c0,0.2,0.1,0.4,0.2,0.6c0.1,0.2,0.3,0.2,0.5,0.2c0.4-0.1,0.7-0.4,0.7-0.8C692.9,212.5,692.7,212.2,692.3,212.1z M708.7,236.1H707
				c0,0.7,0.2,1.4,0.6,2.3c0.4,0.9,0.8,1.6,1.2,2.2V236.1z M708.7,188.1l-1.4,19.4c-0.1,1,0.4,1.8,1.3,2.5c0.9,0.6,2.1,1.1,3.3,1.4
				c1.3,0.3,2.5,0.5,3.7,0.7c1.2,0.1,2,0.2,2.5,0.2c3,0,6-0.6,9-1.9c3-1.2,5.3-3.2,7-5.8c0.1-0.4,0.2-1.2,0.3-2.4
				c0.1-1.2,0.3-2.4,0.5-3.6c0.2-1.2,0.3-2.4,0.4-3.6c0.1-1.1,0.2-1.9,0.3-2.4v-0.9c0-0.6-0.3-1.3-1-2c-0.7-0.8-1.5-1.5-2.5-2.2
				c-1-0.7-1.9-1.3-2.9-1.8c-1-0.5-1.8-0.7-2.4-0.7c-0.6,0-1.8,0.1-3.6,0.2c-1.8,0.1-3.7,0.3-5.6,0.5c-1.9,0.2-4.4,0.5-7.5,0.8
				L708.7,188.1z M756.5,182.9c0,0.1,0,0.3,0.1,0.4c0,0.1,0.1,0.3,0.1,0.3c0.1,0.1,0.3,0.4,0.7,0.8c0.4,0.4,0.7,0.6,0.8,0.7
				c0.1-0.1,0.4-0.3,0.8-0.7c0.4-0.4,0.6-0.6,0.7-0.8c0.1-0.1,0.1-0.2,0.1-0.3c0-0.1,0-0.3,0-0.4c0-0.1,0-0.3,0-0.5
				c0-0.2,0-0.3-0.1-0.3c-0.1-0.1-0.3-0.4-0.7-0.8c-0.4-0.4-0.6-0.6-0.8-0.8c-0.1,0.1-0.4,0.4-0.8,0.8c-0.4,0.4-0.6,0.6-0.7,0.8v0.3
				C756.6,182.5,756.5,182.7,756.5,182.9z"/>
			<path class="st0" d="M791.6,156.7c0.9-1.2,2.2-2.6,3.8-3.9c1.7-1.4,3.5-2.7,5.5-3.9c2-1.2,4-2.2,6.1-3c2-0.8,3.9-1.2,5.5-1.2
				c0.1,0,0.4,0,0.8,0.1c0.4,0,0.6,0.1,0.7,0.1c0.4,0,1.2,0.1,2.1,0.2c1,0.1,2,0.3,3.1,0.4c1.1,0.1,2.1,0.3,3.1,0.4
				c1,0.1,1.7,0.3,2.1,0.3h89.8c0.3,0,0.8,0.2,1.4,0.5s1.3,0.8,2,1.3c0.7,0.5,1.3,1,1.8,1.5c0.5,0.5,0.8,0.9,0.8,1.2v22.5
				c0,2-0.7,3.7-2.1,5c-1.4,1.4-3.2,2.5-5.4,3.4c-2.2,0.9-4.5,1.6-7.1,2c-2.6,0.5-5,0.8-7.2,1c-2.2,0.2-4.1,0.3-5.7,0.4
				c-1.6,0-2.5,0.1-2.7,0.1c-2.2,0-4.2-0.2-5.9-0.5c-1.8-0.3-3.4-0.7-4.9-1s-2.9-0.7-4.3-1c-1.4-0.3-2.8-0.5-4.2-0.5
				s-2.7,0.3-3.8,0.8c-1.1,0.5-2.4,0.8-3.8,0.8c-1,0-1.8-0.2-2.5-0.7c-0.7-0.5-1.4-1-2-1.6c-0.6-0.6-1.2-1.1-1.8-1.6
				c-0.6-0.5-1.2-0.7-1.9-0.7c-1.9,0-3.5,0.5-4.7,1.4c-1.2,0.9-2.2,2-3,3.3c-0.8,1.3-1.3,2.6-1.6,4c-0.3,1.4-0.5,2.6-0.5,3.6
				c0,2,0.5,4,1.6,5.8c1.1,1.8,2.4,3.4,3.9,4.7c1.6,1.4,3.3,2.4,5.1,3.2c1.8,0.8,3.5,1.2,5.2,1.2c0.1,0,0.3,0,0.5,0
				c0.2,0,0.3,0,0.3-0.1c0.2-0.1,0.7-0.3,1.5-0.7c0.8-0.4,1.3-0.6,1.4-0.8c0.8-0.1,2.1-0.2,3.8-0.3c1.7-0.1,3.7-0.3,5.9-0.5
				c2.2-0.2,4.5-0.4,6.9-0.7c2.4-0.2,4.7-0.4,6.9-0.6c2.2-0.2,4.1-0.3,5.9-0.5c1.7-0.1,3-0.3,3.8-0.3c0-0.1,0.1-0.1,0.3-0.1
				s0.3,0,0.5,0c1,0,2.2,0,3.5,0.1c1.3,0,2.5,0.2,3.8,0.5c1.2,0.3,2.4,0.8,3.3,1.4c1,0.6,1.7,1.5,2.1,2.6c0,0.2,0,0.6,0,1.2
				c0,0.6,0,1.2,0.1,1.9c0,0.7,0.1,1.3,0.1,1.8s0,0.9,0,1.2c0,1.4,0,3.3-0.1,5.8c-0.1,2.5-0.3,4.9-0.7,7.5c-0.4,2.5-1,4.8-1.9,6.9
				c-0.8,2-2,3.4-3.5,3.9c-4.7,0.5-9.2,1.2-13.7,1.9c-4.4,0.8-8.6,1.2-12.4,1.2c-3.4,0-6.4-0.3-8.9-0.8c-2.5-0.5-5.1-0.8-7.6-0.8
				c-1.3,0-2.6,0.3-3.7,0.8c-1.2,0.5-2.4,0.8-3.7,0.8c-1.8,0-3.6-0.2-5.3-0.7c-1.7-0.5-3.4-0.7-5.3-0.7v17.8
				c-0.1,0.1-0.4,0.4-0.8,0.8c-0.4,0.4-0.8,0.8-1.2,1.3c-0.4,0.5-0.8,0.9-1.1,1.4c-0.3,0.4-0.6,0.8-0.7,1v0.3
				c-0.1,0.1-0.1,0.2-0.1,0.4c0,0.1,0,0.2,0.1,0.4c0,0.2,0.1,0.3,0.1,0.4c0.1,0.1,0.3,0.4,0.7,0.8c0.4,0.4,0.7,0.6,0.8,0.7
				c2.3,0.4,4.4,0.7,6,0.9c1.7,0.2,3.2,0.4,4.5,0.5c1.3,0.1,2.5,0.2,3.6,0.2c1.1,0,2.1,0.1,3.2,0.1c3.9,0,7.7-0.2,11.1-0.5
				c3.5-0.3,6.8-0.7,10.1-1.2c3.3-0.4,6.5-0.8,9.7-1.2c3.2-0.3,6.5-0.5,9.9-0.5c2.1,0,4.5,0.1,7.1,0.4c2.6,0.3,5.1,0.9,7.4,1.9
				c2.3,1,4.2,2.4,5.8,4.3c1.6,1.9,2.4,4.4,2.4,7.6v2.5c-0.1,1.7-0.2,3.8-0.4,6.3c-0.2,2.5-0.3,5-0.5,7.4c-0.1,2.4-0.4,5.3-0.7,8.8
				l-1.4,1.4c-0.1,0.1-1,0.3-2.4,0.5c-1.5,0.2-3.4,0.4-5.7,0.7c-2.3,0.3-5,0.5-8,0.8c-3,0.3-6.1,0.5-9.3,0.8
				c-3.2,0.3-6.4,0.5-9.6,0.8c-3.2,0.3-6.1,0.5-8.9,0.7c-2.7,0.2-5.1,0.3-7.1,0.4c-2,0.1-3.5,0.2-4.3,0.2c-1.7,0-3.3-0.2-4.8-0.5
				c-1.5-0.3-3-0.7-4.6-1.2c-1.5-0.4-3.1-0.8-4.8-1.2c-1.6-0.3-3.5-0.5-5.5-0.5c-2,0-4.1,0.2-6.3,0.5c-2.2,0.3-4.5,0.7-6.9,1.1
				c-2.3,0.4-4.7,0.8-7,1.1c-2.3,0.3-4.7,0.5-7,0.5c-4.2,0-8.1-0.6-11.7-1.9c-3.6-1.3-6.8-3.1-9.5-5.4c-2.7-2.3-4.8-5.2-6.4-8.5
				c-1.5-3.3-2.3-7.1-2.3-11.2c0-1,0.2-1.7,0.5-2.3c0.3-0.6,0.7-1.1,1.2-1.6c0.4-0.5,0.8-0.9,1.2-1.4c0.3-0.5,0.5-1.1,0.5-1.9
				c0-1.4-0.3-2.7-0.8-3.8c-0.5-1.2-0.8-2.4-0.8-3.7c0-3.5,0.3-6.9,0.8-10.1c0.5-3.3,0.8-6.6,0.8-10.1c0-2.4-0.2-4.8-0.5-7.1
				s-0.7-4.6-1.1-6.7c-0.4-2.2-0.8-4.3-1.1-6.4c-0.3-2.1-0.5-4.1-0.5-6.1s0.2-3.9,0.5-5.7c0.3-1.8,0.7-3.6,1.1-5.4
				c0.4-1.8,0.8-3.5,1.1-5.1c0.3-1.6,0.5-3.3,0.5-5c0-1.2-0.1-2.5-0.3-3.8c-0.2-1.3-0.4-2.7-0.5-4.3c-0.2-1.6-0.4-3.4-0.5-5.5
				c-0.2-2.1-0.3-4.6-0.3-7.5c0-0.9,0-1.9,0.1-3c0-1.1,0.1-2.4,0.2-3.9c0.1-1.5,0.3-3.2,0.4-5.2C791,161.6,791.3,159.3,791.6,156.7z
				 M797.7,194.1c0.2,0.4,0.5,0.8,0.9,1.2c0.4,0.3,0.9,0.5,1.4,0.5c0.1,0,0.3,0,0.3-0.1h0.3c1.1-0.9,2-1.6,2.8-2.1
				c0.8-0.5,1.4-1,1.9-1.5c0.5-0.5,0.8-1,1.1-1.5c0.3-0.5,0.4-1.3,0.4-2.2c0-1.2-0.1-2.2-0.4-3.1c-0.3-0.9-0.7-1.9-1.3-3.1
				c-0.8,2.2-1.8,4.3-3.1,6.3C800.7,190.4,799.3,192.3,797.7,194.1z M797.7,280.9h1.5v-1.5h-1.5V280.9z M824.7,152.2
				c0.1-0.2,0-0.4-0.2-0.5c-0.2-0.1-0.4-0.2-0.6-0.2c-0.6,0-0.8,0.2-0.8,0.7c0.1,0.4,0.4,0.7,0.8,0.7
				C824.3,152.8,824.6,152.6,824.7,152.2z M836.6,222.6v1.4h1.5L836.6,222.6z M853.4,294.4c0-1.4-0.6-2.4-1.9-3v3H853.4z M883,167.1
				v1.5h1.5v-1.5H883z M889,298.9v-3.5c-1.2,0-2.3,0.2-3.3,0.7c-1,0.5-1.5,1.4-1.5,2.8H889z"/>
		</g>
	</g>
	<g>
		<g>
			<path class="st0" d="M206.1,926.2c-8,0-11.7-5.5-11.5-16.5c0.2-12.7,11.2-143.6,10-155.8c-1.2-9,3.2-16,11.2-17.9
				c6-1.5,12-2.2,17.7-2.2c18.2,0,34.4,7.5,48.6,21.9c10.2,10.5,9.2,26.2,1.5,35.4c-5.2,5.7-10.5,11.2-15.7,17
				c-6,7,2.7,4.2,16.2,14.2c14.7,10.5,18.2,25.9,9.5,41.9c-6.5,12-15.5,21.2-24.9,30.2c-16,15-34.4,24.4-54.8,30.7
				C210.8,926,208.3,926.2,206.1,926.2z M219,898.6c1.2,0,2.7-0.3,4.7-1.2c20.4-8.5,36.4-23.2,49.1-41.9c4.7-7.2,3.2-12-4.2-16
				c-7.5-3.5-15.5-5.5-23.7-6.2c-3,0.5-6.2,1-9.5,1.7c-16.2,3.5-14.7,11.2-18.9,56.6C216,896.6,216.8,898.6,219,898.6z M223.5,809.8
				c1.2,0.2,2,0.7,2.5,0.5c16.2-7,28.2-19.7,39.6-32.9c1.5-2,1.7-4.2,0-5.7c-9.7-8.7-20.2-15.5-33.9-13.2
				C226,759.5,227.3,760,223.5,809.8z"/>
			<path class="st0" d="M328.7,747.3c2.7-4,6-5.7,9.5-5.7c8,0,15.2,10.2,10.7,22.7c-9,24.2-16.7,97-9.2,125.1
				c1.7,6.7,5.7,9.7,10,9.7c7,0,15.5-7.5,19.7-17.2c29.7-69,28.2-87.2,30.4-117.2c0.3-4.2-0.2-8.2-1.7-12.2c-2.5-6.7,2.7-13,9.2-13
				c7.2,0,13,7.2,13.2,14c1.7,60.3-19.9,106.4-30.4,133.6c-5.7,15.7-21.9,33.4-39.9,33.4c-12.5,0-24.4-7.2-29.7-20.2
				C304.5,861.4,324.7,752.8,328.7,747.3z"/>
			<path class="st0" d="M423.2,740.3c2-0.7,3.5-1,5-1c5,0,8.2,3.2,23.4,2.7c19.4-0.7,38.6,0.7,58.1-1.2c10-0.7,19.7,1.2,29.2,4
				c7.7,2.2,14.5,7.2,12.2,15.2c-1.2,5-6,8.2-11.7,7.2c-7.5-1.2-14.7-2.5-22.2-3c-8-0.5-16.2,0.7-24.2,0.7c-4,0-6,2-5.7,6.2
				c1.7,18.2-0.7,90.7-6.7,122.4c-1.5,7.7,0,12.5-1.2,17.4c-1.5,6.5-6.2,9.7-11,9.7c-5.2,0-10.7-4.2-10.5-12
				c0-6.7,0.7-13.5,1.7-19.9c4.5-26.7,5-53.6,5.2-80.5c0-45.6,2.2-43.1-10.5-43.4c-19.7-0.2-25.9,1-31.2-1
				C410.7,759.7,411.7,744.3,423.2,740.3z"/>
			<path class="st0" d="M529.6,740.3c2-0.7,3.5-1,5-1c5,0,8.2,3.2,23.4,2.7c19.4-0.7,38.6,0.7,58.1-1.2c10-0.7,19.7,1.2,29.2,4
				c7.7,2.2,14.5,7.2,12.2,15.2c-1.2,5-6,8.2-11.7,7.2c-7.5-1.2-14.7-2.5-22.2-3c-8-0.5-16.2,0.7-24.2,0.7c-4,0-6,2-5.7,6.2
				c1.7,18.2-0.7,90.7-6.7,122.4c-1.5,7.7,0,12.5-1.2,17.4c-1.5,6.5-6.2,9.7-11,9.7c-5.2,0-10.7-4.2-10.5-12
				c0-6.7,0.7-13.5,1.7-19.9c4.5-26.7,5-53.6,5.2-80.5c0-45.6,2.2-43.1-10.5-43.4c-19.7-0.2-25.9,1-31.2-1
				C517.2,759.7,518.2,744.3,529.6,740.3z"/>
		</g>
	</g>
	<g>
		<path class="st0" d="M712.9,748.1c0-3.9-0.3-7,0.1-10.1c0.6-5-1.3-7.5-7-9.3c-30.7-9.5-43.3-25.9-43.2-54.8
			c0.1-17.6,0-35.2,0-53.5c68.9,0,136.9,0,205.5,0c0,23.4,1.8,46.7-0.6,69.6c-1.8,17.9-16.9,29.1-34.6,36.4c-4.3,1.8-8.9,3-13.8,4.6
			c0,5.5,0,11,0,17c6,1.5,12,2.6,17.7,4.5c8.6,2.9,17.5,5.6,25.4,9.8c19.4,10.3,20.1,25.7,0,34.6c-17.2,7.6-36.4,12.9-55.3,15.8
			c-38.6,6-77.3,4.2-114.9-6.3c-10-2.8-19.8-7.2-28.3-12.7c-12.6-8.2-12.8-19.8,0-27.6c10.6-6.4,23.2-10.2,35-14.8
			C703,749.8,707.5,749.3,712.9,748.1z M775.4,756.2c-15.7,0.9-29.5,0.8-43,2.6c-12.1,1.5-24.2,4.2-35.6,8
			c-4.8,1.6-10.3,7.3-10.7,11.6c-0.3,3.4,5.9,8.1,10.3,10.9c3.7,2.4,8.8,3.4,13.4,4.4c32.4,6.7,65.1,7.2,97.8,2.6
			c8.7-1.2,17.7-2.9,25.6-6.3c5.4-2.3,12.7-8.1,12.5-12.2c-0.2-4.2-7.8-8.7-13-12.1c-3.4-2.2-8.2-3.1-12.5-3.7
			C804.5,759.8,789,757.9,775.4,756.2z"/>
		<path class="st0" d="M658.1,796.6c44.9,34.3,176,32.2,214.5,1.9c-1.5,3.1-2.5,6.5-4.7,9.1c-15,18-30,36-45.6,53.5
			c-3.7,4.2-5.9,7.4-4.8,12.9c2.8,14.6,4.5,29.4,7.3,44.1c1.1,5.5-1.1,8.7-6.3,9.8c-14.2,3-28.6,7.5-42.9,7.4
			c-19.9-0.1-39.9-3.6-59.7-6.4c-7.2-1-10.1-5.5-8.4-13.1c3.1-13.9,5.1-28.1,6.6-42.3c0.4-3.9-1.7-8.7-4.3-11.9
			c-14.5-17.5-29.7-34.6-44.4-52C662.4,806.5,661.1,802.2,658.1,796.6z"/>
		<path class="st0" d="M746.5,596.2c4.6-14.8,17.5-6.5,26.4-8.2c5.9-1.1,12.7-1,10.8,8.2c26.1,0,51.1,0,76,0c3.1,0,6.8-0.9,9.1,0.3
			c3.2,1.8,7.7,5.3,7.5,7.7c-0.3,3.2-4.4,7.9-7.6,8.5c-7.3,1.3-15,0.5-22.5,0.5c-57.9,0-115.8,0-173.7,0c-2.7,0-5.5,0-8.2,0
			c-6.2-0.1-9.5-2.8-9.5-8.6c0-5.9,3.5-8.4,9.7-8.4c21.2,0,42.5,0,63.7,0C734.4,596.2,740.5,596.2,746.5,596.2z"/>
		<path class="st0" d="M693.7,777.8c19.9-18.2,122.8-18.4,144.9,0.2c-5.2,5.5-11.4,8.1-19.5,6.6c-35.3-6.4-70.7-6.4-106.1-0.1
			C704.9,786,699.7,784.1,693.7,777.8z"/>
	</g>
</g>
</svg>
