<?xml version="1.0" encoding="utf-8"?>
<!-- Generator: Adobe Illustrator 22.0.0, SVG Export Plug-In . SVG Version: 6.00 Build 0)  -->
<svg version="1.1" id="Layer_1" xmlns="http://www.w3.org/2000/svg" xmlns:xlink="http://www.w3.org/1999/xlink" x="0px" y="0px"
	 viewBox="0 0 1080 1080" style="enable-background:new 0 0 1080 1080;" xml:space="preserve">
<style type="text/css">
	.st0{fill:#FFFFFF;}
</style>
<g>
	<polygon points="168.1,283.1 163.2,287.2 157.1,292.4 163.2,297.5 168.1,301.6 163.2,305.7 157.1,310.9 163.2,316 168.1,320.1 
		164,323.6 891.8,323.6 887.7,320.1 892.5,316 898.8,310.8 892.5,305.5 887.7,301.4 892.5,297.3 898.7,292.1 892.5,287 887.7,282.9 
		892.5,278.8 898.7,273.6 892.5,268.5 887.7,264.4 891.8,260.9 164,260.9 168.1,264.4 163.2,268.5 157,273.8 163.2,279 	"/>
</g>
<g>
	<path d="M497.6,931.5h-10c-10.6,0-19.7-1-27.3-3c-8.3-2-12.7-4.3-13.2-7v-2.6c0-13.1,2.4-35.2,7.2-66.2
		c5.9-37.2,11.3-56.8,16.3-58.8c12.7-2.5,23.7-3.8,33.1-3.8c7.5,0,13.9,0.8,19.1,2.4c11.9,3.6,19.2,8.6,22,15.1
		c2.7,6.4,4.1,12.2,4.1,17.3c0,3.5-0.5,7.1-1.4,10.8c-2.3,9.1-6.2,16.9-11.6,23.5c-5.5,6.6-11.2,10.1-17.3,10.6
		c16.1,4.6,24.1,13.6,24.1,27.1c0,3.6-0.7,7.5-2.2,11.6c-3.3,8.4-9.8,14.4-19.5,17.9C511.3,929.7,503.5,931.5,497.6,931.5z
		 M492.2,907.4c4.7,0,8.4-0.8,11-2.4c4.4-2.5,6.6-5.8,6.6-9.6c0-4.7-1.8-7.9-5.5-9.7c-3.7-1.8-6.9-2.7-9.5-2.7
		c-3.7,0-8,0.9-12.8,2.6l-2.2,20.5C484.4,906.9,488.6,907.4,492.2,907.4z M487,860.4c9.2-0.8,16.5-3.9,21.7-9.4
		c5.2-5.5,8.1-10.2,8.6-14.1c0.5-3.9,0.8-6.4,0.8-7.6c0-4.7-1.4-8.4-4.2-11.2c-2.1-2.1-5.1-3.2-8.8-3.2c-2.8,0-6,0.6-9.6,1.8
		L487,860.4z"/>
	<path d="M567.7,931.5c-5,0-9.3-0.6-13.1-1.9c-3.8-1.3-5.7-2.8-5.7-4.5c0-7.8,4.6-42.8,13.9-105.2l3.8-26.7c0.8-2,4.1-3.4,9.9-4.1
		c5.8-0.7,10.3-1.1,13.5-1.1c21.1,0,36.7,5.8,46.8,17.5c6.7,7.5,10,17.3,10,29.3c0,3.1-0.2,6.4-0.6,9.8
		c-3.5,19.3-13.6,33.9-30.3,43.8c15.8,13.6,23.7,23,23.7,27.9l-0.2,1.2c-1.5,4.3-3.8,7.6-7.1,9.9c-3.3,2.3-6.3,3.5-8.9,3.5
		c-6.6,0-19.8-12.1-39.7-36.3c-2.4,15.9-3.8,26.8-4.2,32.5C579.1,930,575.2,931.5,567.7,931.5z M591.4,869.2
		c5.6,0,10.5-2.3,14.7-6.8c8-8.4,12-18.3,12-29.5c0-5.5-1.4-9.8-4.2-12.8c-3.6-4.1-8.7-6.2-15.3-6.2l-4,0.2
		c-1.7,15.8-4.1,34.1-7.2,54.8C588.7,869.1,590,869.2,591.4,869.2z"/>
	<path d="M690.3,931.1c-12,0-21.2-3.2-27.5-9.6c-5.9-5.9-9.6-12.6-11-20.2c-1.5-7.6-2.2-14.6-2.2-21.2l0.2-6.6
		c1.3-20.1,3.9-40.4,7.8-61l3-19.5c0.7-2.1,2.5-3.4,5.4-3.7c2.9-0.3,5.3-0.5,7-0.5c2.5,0,5.1,0.3,7.8,0.8c4.3,0.8,7.1,1.9,8.4,3.2
		c0.5,1.1,0.8,3,0.8,5.8c0,7.1-1.6,20.8-4.7,41.2c-3.1,20.4-4.7,33.7-4.7,39.8c0,4.8,0.5,9.6,1.4,14.3c1.3,6.2,4.5,9.6,9.6,10.2
		c4,0,7.3-5.8,9.8-17.3c1.9-8,4.7-26,8.4-54c1.9-13.5,3.8-27,5.8-40.3c0.5-2.1,2.2-3.3,5-3.6c2.8-0.3,4.9-0.4,6.4-0.4
		c2.8,0,5.7,0.3,8.6,0.8c4.4,0.7,7.2,1.7,8.4,3.2c0.4,0.9,0.6,2.7,0.6,5.4c0,6.7-1.6,22.1-4.8,46.2l-4.4,30.9
		c-2.7,22.5-9.1,38.3-19.3,47.6C710.1,928.2,701.4,931.1,690.3,931.1z"/>
	<path d="M789.3,931.3c-14.6-0.7-25.3-4.1-32.1-10.2c-8.2-7.2-12.2-15.5-12.2-24.7c0-4.1,1-7.3,3-9.3c2-2.1,5.1-3.1,9.2-3.1
		c4.7,0,9,0.8,12.9,2.3c3.9,1.5,5.9,3.2,5.9,4.9l-0.2,1.2c-0.3,1.2-0.4,2.5-0.4,4c0,1.5,0.4,3,1.2,4.6c3.5,5,7.5,7.4,12,7.4
		c7.9,0,11.8-4.5,11.8-13.4c0-3.7-2.1-7-6.2-9.8c-3.6-2.3-8.1-4.5-13.3-6.8c-5.3-2.3-10.5-5.1-15.6-8.4
		c-10.4-6.6-15.7-15.9-15.7-28.1c0-6.7,1.6-14.3,4.8-22.7c4.9-12.4,11-20.9,18.1-25.3c5.2-3.2,11.5-4.8,18.9-4.8
		c2.7,0,5.5,0.2,8.4,0.6c17.9,3.2,26.9,13.9,26.9,32.1c0,11.1-2.9,18.3-8.6,21.5c-2.7,1.2-5.1,1.8-7.2,1.8c-3.9,0-7.4-1.2-10.4-3.6
		l-3.6-3.6c-0.8-1.2-1.2-2.5-1.2-3.8c0-2.3,1.1-5.6,3.4-10c2.1-3.7,3.2-6.8,3.2-9c0-2-1.4-3.5-4.2-4.4h-1c-2.4,0-4.9,1.9-7.3,5.7
		c-2.5,3.8-4.6,8.7-6.3,14.8c-0.9,3.3-1.4,6.4-1.4,9c0,8.2,6.6,15.2,19.7,21.1c7.1,2.9,13.2,7.1,18.5,12.4c4,4.1,6,10.1,6,17.9
		c0,12.6-4.1,22.7-12.2,30.5C807.7,928,799.4,931.1,789.3,931.3z"/>
	<path d="M848.5,931.5c-5,0-9.4-0.7-13.4-2.2c-3.5-1.1-5.2-2.7-5.2-5c0-7.9,4.5-42.7,13.6-104.4l3.8-26.7c0.7-2.1,2.5-3.4,5.4-3.7
		c2.9-0.3,5.3-0.5,7-0.5c2.5,0,5.1,0.3,7.8,0.8c4.4,0.8,7.2,1.9,8.4,3.2c0.4,0.9,0.6,2.7,0.6,5.2c0,8.4-2.9,32.5-8.6,72.1l22.3-0.2
		c4-28.2,7.8-53.9,11.4-77.1c0.5-2,2.3-3.2,5.2-3.5c2.9-0.3,5.3-0.5,7-0.5c2.5,0,5.2,0.3,7.8,0.8c4.4,0.7,7.2,1.7,8.4,3.2
		c0.5,0.7,0.8,2.3,0.8,5c0,10.2-3.5,37.3-10.4,81.5c-4,27.3-6.1,42.9-6.2,46.8c-0.4,2.9-4.1,4.4-11.2,4.4c-5.4,0-10-0.7-14.1-2.2
		c-3.5-1.1-5.2-2.7-5.2-4.8c0-4,1-13.7,3-29.1h-22.5c-2.3,15.8-3.6,26.6-4,32.5C859.9,930,856,931.5,848.5,931.5z"/>
</g>
<g>
	<path d="M992.9,1015c-302.1,0-603.9,0-906.1,0c0-316.5,0-633,0-949.7c302,0,603.9,0,906.1,0C992.9,381.7,992.9,698.1,992.9,1015z
		 M128,106.5c0,289.4,0,578.2,0,867.2c274.7,0,549,0,823.5,0c0-289.2,0-578.1,0-867.2C676.9,106.5,402.7,106.5,128,106.5z"/>
</g>
<g>
	<g>
		<path d="M219,830.2c-8,0-15.7,0-23.7,0c0-4.8,0-9.3,0-14.2c-10,0-19.8,0-29.7,0c0-25.4,0-50.4,0-75.6c103.1,0,206.1,0,309.9,0
			c-3.6,8.5-6.9,16.6-10.6,24.5c-4.6,9.8-10.4,18.9-17.3,27.2c-9.2,11-20.5,18-34.7,21.1c-13.6,2.9-27,6.5-40.3,10.4
			c-5.3,1.5-10.5,4.2-15.2,7.2c-7.4,4.6-8,8.9-3.3,16.1c12,18.4,27.8,32.9,45.6,45.3c7.1,5,14.3,9.8,21.2,15.1
			c4,3.1,7.7,6.8,10.9,10.8c4.3,5.2,5.5,11.5,4.3,18.3c-0.4,2.2-1.1,2.8-3.2,2.8c-15.6-0.2-31.3-0.4-46.9-0.5
			c-54.7-0.4-109.5-0.7-164.2-1c-1.9,0-3.8-0.1-5.7-0.4c-5.9-0.9-9.4-4.8-8.6-10.7c0.6-4.5,1.8-9.2,3.7-13.3
			c4.6-9.8,6.4-20,6.5-30.7c0.1-14.7,1-29.4,1.5-44.1C219.1,835.8,219,833.3,219,830.2z"/>
	</g>
	<g>
		<path d="M220.9,737c-18.6,0-36.9,0-55.4,0c0-39.2,0-78.1,0-117.4c18.4,0,36.7,0,55.4,0C220.9,658.7,220.9,697.7,220.9,737z"/>
	</g>
	<g>
		<path d="M464.8,729.6c0,2.9,0,5.5,0,8.4c-67.7,0-135.3,0-203.1,0c0-2.7,0-5.4,0-8.4C329.3,729.6,396.9,729.6,464.8,729.6z"/>
	</g>
	<g>
		<path d="M221.1,616.3c-18.7,0-37,0-55.4,0c0-3.7-0.4-7.4,0.1-11c0.5-4,2.4-5.2,6.8-5.2c11.4-0.1,22.8,0,34.1,0c3.1,0,6.2,0,9.4,0
			c3.4,0.1,4.9,1.6,5,5C221.1,608.7,221.1,612.3,221.1,616.3z"/>
	</g>
</g>
<g>
	<path d="M207.3,233.5c1.2,0.3,2.1,1.4,2.7,3.2c0.6,1.8,0.9,3.8,1,5.8c0,2-0.1,3.9-0.5,5.5c-0.4,1.6-1,2.4-1.8,2.4
		c-1.2,0.1-3.1,0.2-5.9,0.3c-2.7,0.1-5.8,0.2-9.3,0.2c-3.5,0-7.1,0.1-11,0.1c-3.9,0-7.6,0-11.2,0c-3.6-0.1-6.7-0.1-9.5-0.2
		c-2.8-0.1-4.8-0.2-6.1-0.4c-0.6-1-1.1-2.5-1.4-4.4c-0.3-2-0.5-3.9-0.5-5.9c0-1.9,0.2-3.6,0.5-5c0.3-1.4,0.9-2.1,1.6-2.1
		c1.9-0.1,4.1-0.1,6.6-0.1c2.5,0,6.2,0,11.2,0c-0.4-4.7-0.7-9.7-1-15c-0.3-5.2-0.6-10.6-0.8-16.1c-0.2-5.5-0.5-11-0.7-16.6
		c-0.2-5.6-0.3-11-0.4-16.2c-2.5-0.1-4.6-0.2-6.3-0.3c-1.7-0.1-3.2-0.2-4.4-0.3c-1.2-0.1-2.3-0.2-3.2-0.3c-0.9-0.1-1.7-0.2-2.4-0.3
		c-0.6-1.1-1-2.4-1.2-3.9c-0.2-1.5-0.2-3.1-0.1-4.8c0.1-1.7,0.4-3.4,0.9-5.1c0.4-1.7,1.1-3.3,1.9-4.7c2.5-0.1,5.9-0.2,10.4-0.2
		c4.4,0,9.2-0.1,14.2-0.1c5,0,9.9,0,14.7,0c4.7,0.1,8.6,0.2,11.7,0.4c1.3,0,2.2,1,2.7,3.1c0.5,2.1,0.8,4.4,0.9,6.9
		c0,2.5-0.1,4.9-0.4,7c-0.3,2.2-0.8,3.4-1.4,3.6c-0.7,0.1-1.4,0.1-2.1,0.1c-0.7,0-1.6,0-2.6,0c-1,0-2.4,0-4-0.1
		c-1.6,0-3.7-0.1-6.2-0.1c-0.3,4.6-0.6,9.6-0.8,14.9c-0.2,5.3-0.5,10.7-0.7,16.1c-0.2,5.5-0.4,11-0.5,16.4
		c-0.1,5.5-0.3,10.7-0.4,15.6c2.3,0,4.2,0,5.7,0.1c1.5,0.1,2.9,0.1,4,0.1c1.1,0.1,2.2,0.1,3.1,0.1
		C205.2,233.3,206.3,233.4,207.3,233.5z M179.2,234.5c0-2.3,0-5.3,0.1-9.1c0.1-3.8,0.1-7.9,0.1-12.4c0-4.4,0.1-9,0.1-13.8
		c0-4.7-0.1-9.1-0.1-13.1c-0.1-4-0.3-7.4-0.5-10.3c-0.2-2.9-0.6-4.7-1-5.6c-0.6,2.7-1,6.6-1.3,11.7c-0.3,5.1-0.4,10.8-0.3,16.9
		c0.1,6.1,0.4,12.4,0.9,18.7C177.6,223.8,178.3,229.5,179.2,234.5z"/>
	<path d="M281.9,149.2c0.9,0,1.6,0.6,2.1,1.9c0.5,1.2,0.9,2.8,1.2,4.6c0.2,1.8,0.4,3.8,0.4,5.9c0,2.1-0.1,4.1-0.2,6
		c-0.1,1.9-0.4,3.5-0.7,4.8c-0.3,1.3-0.6,2.1-1,2.1c-1.1,0.1-3,0.2-5.9,0.2c-2.8,0.1-6.1,0.1-10,0c-3.9,0-8-0.1-12.5-0.1
		c-4.5,0-9-0.2-13.4-0.4c0.2,3.8,0.3,7.3,0.4,10.7c0,3.4,0.1,7.1,0.2,11.3c4.5-0.1,9.1-0.2,13.6-0.3c4.5-0.1,8.1-0.2,10.7-0.4
		c1.4,0,2.3,1.2,2.8,3.6c0.5,2.4,0.6,5,0.4,7.8c-0.2,2.8-0.7,5.4-1.5,7.8c-0.8,2.4-1.7,3.6-2.7,3.7c-0.7,0.1-1.8,0.2-3.4,0.3
		c-1.6,0.1-3.4,0.2-5.6,0.2c-2.1,0.1-4.4,0.1-7,0.1c-2.5,0-5,0-7.5,0c0,1.3,0,3.1,0,5.5c0,2.4,0,4.8-0.1,7.4c-0.1,2.6-0.1,5-0.1,7.4
		c0,2.4,0,4.2,0,5.5c0,1.3-0.5,2.4-1.5,3.3c-1,0.9-2.3,1.6-3.9,2.1c-1.6,0.5-3.3,0.8-5.1,0.9c-1.8,0.1-3.5,0-5.1-0.4
		c-1.6-0.3-2.9-0.9-3.9-1.6c-1-0.7-1.6-1.6-1.6-2.8c0-0.9-0.1-2.8-0.1-5.6c-0.1-2.9-0.2-6.3-0.4-10.4c-0.1-4-0.3-8.6-0.5-13.6
		c-0.2-5-0.4-10.1-0.6-15.2c-0.2-5.1-0.4-10.2-0.5-15.1c-0.1-4.9-0.3-9.4-0.4-13.5c-0.1-4-0.2-7.4-0.3-10.1
		c-0.1-2.7-0.1-4.5-0.1-5.3c0-3,0.4-5.1,1.3-6.3c0.9-1.2,2.4-1.9,4.6-1.9H281.9z M228.1,234.7c0-2.3,0-5.3,0.1-9.1
		c0-3.8,0.1-8,0.1-12.4c0-4.5,0.1-9.1,0.1-13.8c0-4.7-0.1-9.1-0.1-13.1c-0.1-4-0.3-7.5-0.5-10.4c-0.2-2.9-0.6-4.7-1-5.6
		c-0.6,2.7-1,6.6-1.3,11.8c-0.3,5.2-0.4,10.8-0.3,17c0.1,6.1,0.4,12.3,0.9,18.7C226.5,223.9,227.2,229.6,228.1,234.7z"/>
	<path d="M365,153.8c-0.1-1,0.5-1.8,1.7-2.4c1.2-0.6,2.8-1,4.6-1.3c1.8-0.3,3.8-0.4,6-0.4c2.2,0,4.2,0.2,6,0.5
		c1.8,0.3,3.4,0.9,4.6,1.6c1.2,0.7,1.9,1.5,1.9,2.4c-0.3,10.9-1.1,20.1-2.4,27.7c-1.3,7.6-3.1,13.9-5.2,19c-2.1,5-4.6,9-7.5,11.9
		c-2.9,2.9-5.9,4.9-9.2,6.2c0,2.4-0.1,4.9-0.4,7.7c-0.3,2.8-0.6,5.5-1,8.1c-0.4,2.6-0.8,5.1-1.1,7.3c-0.3,2.3-0.6,4.1-0.7,5.5
		c-0.3,1.2-1.5,2-3.6,2.5c-2.1,0.5-4.3,0.7-6.8,0.5c-2.5-0.1-4.7-0.6-6.7-1.3c-2-0.7-3.2-1.7-3.5-2.9c-0.2-3.8-0.6-8.1-1.3-13.2
		c-0.6-5-0.9-10.1-0.7-15.1c-4-1.9-7.5-4.7-10.6-8.4c-3.1-3.8-5.6-8.3-7.6-13.6c-1.9-5.3-3.2-11.4-3.9-18.2
		c-0.7-6.8-0.6-14.1,0.3-22c0-1.2,0.6-2.2,1.8-3.1c1.2-0.9,2.6-1.6,4.4-2.1c1.7-0.5,3.6-0.9,5.6-1.1c2-0.2,3.9-0.2,5.8,0.1
		c1.8,0.2,3.4,0.7,4.7,1.5c1.3,0.7,2,1.8,2.2,3c-0.6,9.5-0.6,17.3-0.1,23.6c0.5,6.2,1.3,11.2,2.5,14.8c1.2,3.7,2.6,6.2,4.2,7.7
		c1.6,1.5,3.3,2.2,5.1,2.2c1.8,0,3.5-0.7,5-2c1.6-1.3,2.9-3.8,4-7.4c1.1-3.6,1.8-8.5,2.2-14.8C365.7,171.7,365.6,163.6,365,153.8z
		 M323.8,161.9c-1.1,4.5-1.6,9.3-1.5,14.3c0.1,5,0.8,9.8,2.1,14.3c1.3,4.5,3.4,8.7,6.1,12.4c2.7,3.7,6.1,6.5,10.3,8.4
		c-3.3-2.3-6-5.6-8.1-9.9c-2.2-4.3-3.9-8.9-5.2-13.8c-1.3-4.9-2.2-9.7-2.7-14.3C324.2,168.7,323.9,164.9,323.8,161.9z"/>
	<path d="M430.9,149.2c5.7,0,10.7,1.5,15,4.4c4.2,2.9,7.8,6.7,10.5,11.5c2.8,4.7,4.8,10.1,6.1,16.2s1.9,12.3,1.8,18.6
		c-0.1,6.3-1,12.5-2.6,18.6c-1.6,6.1-3.9,11.5-6.9,16.3c-3,4.8-6.8,8.6-11.3,11.6c-4.5,2.9-9.8,4.4-15.7,4.4c-6.1,0-11.5-1.4-16-4.3
		c-4.5-2.9-8.3-6.7-11.3-11.4c-3-4.7-5.2-10.1-6.6-16.2c-1.4-6.1-2.1-12.3-1.9-18.7c0.1-6.4,1.1-12.6,2.8-18.7
		c1.7-6.1,4.2-11.5,7.4-16.3c3.2-4.8,7.2-8.6,12-11.6C419,150.6,424.6,149.2,430.9,149.2z M415.2,167.4c-2.6,1-4.9,2.9-7,5.8
		c-2.1,2.9-3.9,6.3-5.3,10.3c-1.4,4-2.3,8.3-2.9,13c-0.5,4.7-0.5,9.3,0.1,13.9c0.6,4.5,1.8,8.8,3.7,12.8c1.9,4,4.5,7.3,7.9,10
		c-2.7-3.4-4.5-7.2-5.6-11.6c-1.1-4.3-1.7-8.9-1.7-13.6c-0.1-4.7,0.3-9.3,1-13.9c0.7-4.5,1.7-8.7,2.8-12.4c1.1-3.8,2.3-6.9,3.6-9.5
		C413.1,169.7,414.2,168.1,415.2,167.4z M430.5,233.9c3.3-0.3,6-2.1,8.1-5.3c2.2-3.3,3.8-7.2,4.8-11.9c1-4.7,1.6-9.7,1.6-15.1
		c0-5.4-0.5-10.3-1.5-14.9c-1-4.5-2.5-8.3-4.6-11.3c-2.1-3-4.6-4.5-7.6-4.4c-3.6,0.1-6.6,1.8-9.1,5c-2.5,3.3-4.4,7.3-5.8,12
		c-1.3,4.7-2.1,9.9-2.2,15.4c-0.1,5.5,0.3,10.6,1.5,15.2c1.1,4.6,2.9,8.4,5.3,11.3C423.5,232.9,426.6,234.2,430.5,233.9z"/>
	<path d="M534.9,153.3c0.3,14.7,0.1,27.3-0.6,37.9c-0.7,10.5-1.7,19.4-3,26.5c-1.3,7.2-3,12.9-5,17.3c-2,4.3-4.2,7.7-6.7,9.9
		c-2.4,2.3-5,3.8-7.7,4.5c-2.7,0.7-5.5,1.1-8.4,1.1c-4.9,0-9.5-1.6-13.8-4.7c-4.2-3.2-7.8-8.4-10.7-15.8c-2.9-7.4-4.9-17-6.2-29
		c-1.3-12-1.4-26.9-0.4-44.7c0-1.8,1.1-3.3,3.3-4.4c2.2-1.2,4.7-1.9,7.4-2.2c2.7-0.3,5.3-0.1,7.7,0.6c2.4,0.7,3.8,2,4.1,3.9
		c-0.2,15.9-0.1,28.8,0.1,38.7c0.3,9.9,0.8,17.6,1.6,23.1c0.8,5.5,1.8,9.3,3,11.3c1.2,2,2.6,3,4.1,3c0.8,0,1.6-0.4,2.4-1.1
		c0.8-0.7,1.6-2.1,2.4-4.2c0.7-2.1,1.4-4.9,2.1-8.5c0.6-3.6,1.2-8.3,1.6-14c0.4-5.7,0.8-12.6,1-20.6c0.2-8,0.3-17.4,0.2-28.3
		c0-1,0.5-1.8,1.6-2.4c1-0.6,2.4-1.1,4-1.5c1.6-0.3,3.4-0.5,5.2-0.5c1.8,0,3.5,0.1,5.1,0.4c1.6,0.3,2.9,0.8,3.9,1.4
		C534.4,151.5,534.9,152.3,534.9,153.3z M480.9,172.4c-0.8,2.7-1.4,6-1.9,10.1c-0.4,4.1-0.6,8.4-0.6,13c0,4.6,0.3,9.3,0.9,14
		c0.5,4.7,1.4,9.1,2.7,13c1.2,3.9,2.8,7.2,4.7,9.9c1.9,2.7,4.3,4.4,7.2,5c-2.3-1.9-4.2-4.5-5.8-7.9c-1.6-3.4-2.8-7.2-3.8-11.4
		c-0.9-4.2-1.7-8.6-2.1-13.1c-0.5-4.5-0.8-8.9-1-13.1c-0.2-4.2-0.3-8-0.3-11.4C480.9,176.9,480.9,174.3,480.9,172.4z"/>
	<path d="M641.9,208c0.7,1,1.2,2.7,1.4,5.2c0.2,2.5,0.1,5.3-0.4,8.4c-0.5,3.2-1.6,6.4-3,9.9c-1.5,3.4-3.7,6.5-6.5,9.3
		c-2.9,2.8-6.5,5.2-10.8,7c-4.3,1.9-9.6,2.8-15.9,2.8c-6.1,0-11.4-1.4-15.9-4.3c-4.5-2.9-8.2-6.7-11.1-11.5
		c-2.9-4.8-5-10.2-6.3-16.3c-1.3-6.1-1.8-12.3-1.6-18.7c0.2-6.4,1.3-12.6,3-18.7c1.8-6.1,4.3-11.5,7.6-16.3
		c3.3-4.8,7.4-8.6,12.2-11.6c4.8-2.9,10.4-4.4,16.7-4.4c6.1,0,11.3,1.4,15.6,4.3c4.2,2.9,7.7,6.3,10.2,10.3c2.6,4,4.3,8.1,5.3,12.2
		c0.9,4.1,1.2,7.6,0.7,10.2c-0.4,1.5-1.6,2.7-3.6,3.7c-2,1-4.3,1.7-6.8,2c-2.5,0.3-5,0.4-7.3,0.2c-2.4-0.2-4.1-0.7-5-1.6
		c0.1-2.7,0-5.2-0.3-7.6c-0.3-2.4-0.8-4.5-1.6-6.3c-0.7-1.8-1.7-3.2-2.7-4.2c-1.1-1-2.4-1.6-3.9-1.6c-3.1,0.1-5.7,1.8-7.9,5.1
		c-2.2,3.3-3.8,7.4-5,12.3c-1.1,4.9-1.8,10.1-1.9,15.8c-0.1,5.6,0.2,10.8,1.2,15.6c0.9,4.7,2.4,8.6,4.5,11.7c2.1,3.1,4.7,4.4,8,4.1
		c1.9-0.2,3.4-1,4.4-2.4c1.1-1.4,1.9-3.2,2.4-5.3c0.5-2.1,0.8-4.5,0.9-7c0.1-2.6,0.1-5,0.1-7.4c0-1.3,0.8-2.4,2.4-3.4
		c1.6-1,3.7-1.7,6.1-2.2c2.4-0.5,5-0.7,7.6-0.6C637.5,206.9,639.8,207.3,641.9,208z M587.2,172.4c-1.5,1.7-2.8,4-3.9,7
		c-1.1,3-2.1,6.3-2.7,9.9c-0.7,3.7-1.1,7.5-1.2,11.6c-0.1,4.1,0.1,8.1,0.7,12.1c0.6,4,1.6,7.7,3,11.1c1.4,3.5,3.3,6.4,5.7,8.7
		c-2.9-5.6-4.7-11.6-5.4-17.8c-0.7-6.2-0.9-12.2-0.5-17.8c0.4-5.6,1.1-10.7,2-15.1C585.9,177.8,586.6,174.5,587.2,172.4z"/>
	<path d="M685,148.9c3.7,0,7.1,0.4,10.3,1.3c3.2,0.9,6.2,2.6,8.9,5c2.7,2.5,5.1,5.9,7,10.2c2,4.3,3.6,10,4.7,17
		c1.2,7,1.9,15.5,2.1,25.4c0.2,9.9-0.1,21.7-1,35.3c-0.2,1.7-0.8,3.1-1.9,4.2c-1.1,1.1-2.4,2-4,2.6c-1.6,0.6-3.3,0.9-5.1,0.9
		c-1.8,0-3.5-0.3-5-0.8c-1.5-0.5-2.8-1.3-3.7-2.4c-0.9-1-1.4-2.4-1.3-4.1c0.1-1.8,0.1-4,0.1-6.7c0-2.7,0-4.8,0-6.5
		c-3.4-0.1-7-0.2-11-0.2s-7.7-0.1-11-0.2v14.2c0,2.1-1.1,3.7-3.4,4.7c-2.3,1.1-4.8,1.6-7.6,1.6c-2.8,0-5.3-0.5-7.5-1.6
		c-2.2-1-3.3-2.6-3.3-4.7c-1-14.6-1.3-27.1-0.9-37.5c0.4-10.4,1.3-19.1,2.7-26.2c1.4-7.1,3.2-12.8,5.4-17c2.2-4.2,4.7-7.4,7.5-9.6
		c2.8-2.2,5.7-3.7,8.8-4.3C678.9,149.2,682,148.9,685,148.9z M660.1,240c-0.3-5.8-0.4-12.1-0.2-18.8c0.1-6.7,0.4-13.2,0.7-19.3
		c0.3-6.2,0.8-11.7,1.3-16.4c0.5-4.8,1.1-8.2,1.7-10.3c-1.5,1.7-2.7,4.2-3.6,7.6c-0.9,3.4-1.7,7.1-2.1,11.3
		c-0.5,4.2-0.8,8.6-0.9,13.3c-0.1,4.6-0.1,9.1,0.1,13.3c0.2,4.2,0.6,8.1,1.1,11.6C658.8,235.6,659.4,238.2,660.1,240z M696,212.7
		c-0.2-8.9-0.6-16.2-1.3-22c-0.7-5.8-1.5-10.4-2.5-13.8c-1-3.4-2.1-5.8-3.4-7.2c-1.3-1.4-2.6-2.1-3.9-2.1c-1.1,0-2.2,0.6-3.3,1.9
		c-1.1,1.3-2.1,3.6-3,7c-0.9,3.4-1.8,8-2.5,13.9c-0.7,5.9-1.3,13.3-1.6,22.3H696z"/>
	<path d="M774.4,153.9c0-2.1,1-3.5,3.1-4.2c2.1-0.7,4.4-1,7.1-0.7c2.7,0.2,5.3,0.9,7.9,1.9c2.6,1,4.5,2.3,5.6,3.8
		c0,1.2-0.1,3.8-0.1,7.7c-0.1,4-0.2,8.7-0.4,14.4c-0.1,5.6-0.3,11.8-0.6,18.5c-0.2,6.7-0.5,13.4-0.7,20.1c-0.2,6.7-0.5,13-0.7,19.1
		c-0.2,6.1-0.5,11.3-0.7,15.6c-0.2,0.6-1,1-2.4,1.2c-1.4,0.2-3,0.2-4.7,0.1c-1.7-0.1-3.4-0.3-5-0.7c-1.6-0.3-2.7-0.7-3.3-1.1
		c0-0.1-0.1-0.1-0.1-0.1l-0.3-0.3c-1.1-1.3-2.7-3.7-4.7-7.3c-2.1-3.6-4.5-7.8-7.2-12.7c-2.7-4.9-5.6-10.2-8.7-15.9
		c-3.1-5.7-6.1-11.3-9-16.8c0.1,7.3,0.1,14.6,0,22c-0.1,7.4-0.1,14.6-0.1,21.9c0,2.4-0.5,4.3-1.6,5.9c-1,1.5-2.3,2.7-3.9,3.4
		c-1.6,0.7-3.3,1.1-5.1,1.2c-1.8,0-3.5-0.1-5-0.5c-1.5-0.4-2.8-1-3.9-1.8c-1-0.8-1.5-1.7-1.4-2.8c-0.1-1.6-0.2-4.3-0.4-8.3
		c-0.2-3.9-0.4-8.6-0.7-14c-0.2-5.4-0.5-11.3-0.8-17.6c-0.3-6.4-0.5-12.7-0.7-19c-0.1-6.3-0.2-12.4-0.2-18.2
		c0-5.8,0.1-10.9,0.3-15.3c-0.1-1,0.6-1.9,2.1-2.7c1.5-0.8,3.4-1.3,5.5-1.5c2.1-0.2,4.3,0,6.7,0.6c2.3,0.6,4.2,1.8,5.7,3.6
		c0.5,0.6,1.7,2.6,3.7,6.1c2,3.5,4.4,7.8,7.2,12.9c2.8,5.1,5.9,10.7,9.3,16.7c3.4,6.1,6.7,12.1,9.9,18c-0.5-9.3-0.9-18.5-1.1-27.8
		C774.5,170.1,774.4,161.6,774.4,153.9z M735.3,234.2c0-2.3,0-5.3,0.1-9.1c0-3.8,0.1-8,0.1-12.4c0-4.5,0.1-9.1,0.1-13.8
		c0-4.7-0.1-9.1-0.1-13.1c-0.1-4-0.3-7.5-0.5-10.4c-0.2-2.9-0.6-4.7-1-5.6c-0.6,2.7-1,6.6-1.3,11.8c-0.2,5.2-0.3,10.8-0.2,17
		c0.1,6.1,0.4,12.3,0.8,18.7C733.7,223.5,734.4,229.2,735.3,234.2z"/>
	<path d="M835.9,156.7c0.1,1-0.3,2.4-1.1,4.2c-0.8,1.8-2,3.7-3.6,5.7c-1.5,2-3.4,3.9-5.6,5.7c-2.2,1.8-4.4,3.2-6.8,4.2
		c-0.7,0.3-1.6,0.3-2.6,0.1c-1-0.2-2-0.7-2.8-1.3c-0.8-0.6-1.4-1.3-1.8-2.1c-0.3-0.8-0.1-1.7,0.7-2.6c1-1.3,2-2.7,2.9-4.3
		c0.9-1.6,1.8-3.2,2.5-4.9c0.7-1.7,1.4-3.4,2.1-5c0.6-1.7,1.2-3.3,1.7-4.7c0.6-1.9,1.7-2.8,3.2-2.9c1.5,0,3.1,0.4,4.7,1.3
		c1.6,0.9,3,2.1,4.3,3.4C834.9,154.9,835.7,155.9,835.9,156.7z M816.9,172c1.3-0.6,2.8-1.8,4.6-3.5c1.8-1.7,3.3-3.6,4.5-5.6
		c1.2-2,2-3.8,2.4-5.5c0.4-1.7-0.1-2.8-1.5-3.4c-0.5,1.1-1.2,2.5-2.1,4.3c-0.9,1.8-1.9,3.6-3,5.5c-1,1.9-2,3.6-3,5.1
		C818,170.5,817.3,171.5,816.9,172z"/>
	<path d="M908.6,149.5c1,1.2,1.5,2.8,1.6,5c0.1,2.1,0,4.3-0.4,6.6c-0.3,2.3-0.8,4.4-1.3,6.5c-0.5,2.1-1,3.7-1.3,4.7
		c-1.3,0.2-4,0.3-8.2,0.3c-4.2,0-9.1-0.1-14.6-0.3c-0.4,6-0.7,12.5-0.9,19.6c-0.2,7-0.4,14-0.6,21c-0.2,7-0.4,13.7-0.5,20.2
		c-0.1,6.5-0.4,12.1-0.7,17c-0.7,0.3-1.8,0.7-3.4,1.1c-1.6,0.4-3.3,0.7-5.1,0.7c-1.8,0.1-3.6-0.1-5.3-0.6c-1.7-0.4-3-1.4-3.9-2.7
		c-0.5-4.7-0.9-10.2-1.1-16.3c-0.2-6.1-0.4-12.6-0.6-19.3c-0.1-6.8-0.3-13.7-0.4-20.7c-0.1-7-0.3-13.8-0.4-20.4
		c-5.7-0.2-10.8-0.4-15.3-0.7c-4.4-0.2-7.4-0.5-8.9-0.7c-0.6-1.1-1-2.6-1.2-4.4c-0.2-1.9-0.2-3.9-0.1-5.9c0.1-2.1,0.4-4.1,0.9-6.1
		c0.4-2,1.1-3.7,1.9-5.1c1.7,0,4.3,0,7.8-0.1c3.5,0,7.5-0.1,11.9-0.1s9.2,0,14.2,0.1c5,0.1,9.9,0.1,14.4,0.2
		c4.6,0.1,8.8,0.2,12.5,0.3C903.6,149.3,906.5,149.4,908.6,149.5z M868.3,234.1c0-2.3,0-5.3,0.1-9.1c0-3.8,0.1-8,0.1-12.4
		c0-4.5,0.1-9.1,0.1-13.8c0-4.7-0.1-9.1-0.1-13.1c-0.1-4-0.3-7.5-0.5-10.4c-0.2-2.9-0.6-4.7-1-5.6c-0.6,2.7-1,6.6-1.3,11.8
		c-0.2,5.2-0.3,10.8-0.2,17c0.1,6.1,0.4,12.3,0.8,18.7C866.8,223.3,867.4,229,868.3,234.1z"/>
</g>
<g>
	<path class="st0" d="M216.5,271v9.7h-4.7c-0.5-1.9-1.1-3.4-1.8-4.4c-0.7-1-1.5-1.8-2.6-2.3c-1.1-0.5-2.4-0.8-4.1-0.8
		c-2.2,0-4.2,0.7-6,2.1c-1.7,1.4-3.1,3.6-4.1,6.6c-1,3-1.5,6.8-1.5,11.4c0,4,0.3,7.4,1,10.3c0.7,2.9,1.7,5.2,3.1,6.8
		c1.4,1.6,3.1,2.4,5.1,2.4c2,0,3.5-0.6,4.4-1.8c1-1.2,1.4-3.1,1.4-5.7V304c0-1.7-0.1-3-0.2-3.7c-0.1-0.7-0.3-1.3-0.5-1.7
		c-0.2-0.4-0.6-0.7-0.9-0.9c-0.4-0.2-1.1-0.5-2-0.8v-2.2h17.4v2.2c-1.1,0.3-1.9,0.7-2.3,1.2c-0.4,0.4-0.7,1-0.8,1.7
		c-0.1,0.7-0.2,1.7-0.2,3v12.8l-4.9,1l-2.3-2.5c-2.7,1.7-5.8,2.5-9.3,2.5c-6.6,0-11.6-1.9-14.8-5.8c-3.3-3.9-4.9-9.7-4.9-17.6
		c0-4.1,0.6-7.8,1.7-10.9c1.2-3.1,2.8-5.7,4.8-7.6c2.1-2,4.4-3.4,6.9-4.3c2.6-0.9,5.3-1.3,8.3-1.3
		C207.8,269.2,212.3,269.8,216.5,271z"/>
	<path class="st0" d="M259.6,269.7v10.8H255c-0.7-2.2-1.4-3.6-1.9-4.4c-0.5-0.8-1.1-1.4-1.9-1.8c-0.7-0.4-2-0.7-3.7-0.7h-7.4v16.3
		h4.5c1,0,1.8-0.1,2.4-0.4c0.6-0.3,1-0.8,1.4-1.4s0.7-1.7,1.1-3.1h3.8V299h-3.8c-0.3-1.3-0.7-2.3-1.1-3c-0.4-0.7-0.8-1.2-1.4-1.5
		s-1.3-0.4-2.4-0.4h-4.5v18.2h7.4c0.8,0,1.5-0.1,2-0.2c0.5-0.1,1-0.3,1.5-0.5s0.8-0.6,1.2-1c0.4-0.4,0.7-0.9,1.1-1.4s0.6-1.2,1-2
		c0.3-0.8,0.7-1.9,1.1-3.4h4.7l-0.6,12.4h-33.5V314c0.8-0.2,1.5-0.5,2-0.7c0.5-0.3,0.9-0.6,1.1-1.1c0.2-0.5,0.4-1.1,0.5-1.8
		s0.1-1.6,0.1-2.7v-29.4c0-1.1,0-2-0.1-2.7s-0.2-1.3-0.4-1.8c-0.2-0.5-0.6-0.8-1.1-1.1s-1.2-0.5-2-0.8v-2.2H259.6z"/>
	<path class="st0" d="M275.8,316.2V314c1-0.2,1.7-0.4,2.3-0.6c0.6-0.3,1-0.6,1.2-1.1s0.4-1.1,0.5-1.8c0.1-0.7,0.1-1.7,0.1-2.7v-34
		h-2.8c-1.4,0-2.4,0.2-3.1,0.5c-0.7,0.3-1.4,0.8-1.9,1.5c-0.5,0.7-1,1.6-1.4,2.7s-0.7,2.2-1,3.3h-4.7v-12h40.1v12h-4.7
		c-0.4-1.5-0.8-2.7-1-3.4s-0.5-1.3-0.8-1.9c-0.3-0.5-0.6-0.9-1-1.3c-0.3-0.3-0.7-0.6-1.1-0.8c-0.4-0.2-0.9-0.4-1.4-0.5
		c-0.6-0.1-1.3-0.2-2.3-0.2h-2.5v34c0,1.2,0,2.1,0.1,2.7c0.1,0.6,0.2,1.1,0.4,1.5c0.2,0.4,0.4,0.7,0.7,0.9c0.3,0.2,0.6,0.5,1.1,0.6
		c0.5,0.2,1.1,0.3,1.9,0.5v2.2H275.8z"/>
	<path class="st0" d="M340.3,307.7c0,0.8,0,1.5,0.1,2.2c0,0.7,0.1,1.2,0.3,1.7c0.1,0.4,0.3,0.8,0.6,1.1c0.3,0.3,0.6,0.5,1.1,0.8
		c0.5,0.2,1,0.4,1.7,0.6v2.2h-17.9V314c0.8-0.2,1.5-0.5,2-0.7c0.5-0.3,0.9-0.6,1.1-1.1c0.2-0.5,0.4-1.1,0.5-1.8
		c0.1-0.7,0.1-1.6,0.1-2.7v-29.4c0-1.1,0-2-0.1-2.7c-0.1-0.7-0.2-1.3-0.4-1.8c-0.2-0.5-0.6-0.8-1.1-1.1c-0.5-0.3-1.2-0.5-2-0.7v-2.2
		H344v2.2c-0.9,0.3-1.6,0.5-2.1,0.8c-0.4,0.3-0.8,0.6-1,1c-0.2,0.4-0.4,0.9-0.5,1.6c-0.1,0.7-0.1,1.6-0.1,2.9V307.7z"/>
	<path class="st0" d="M360.1,316.2V314c1-0.2,1.7-0.4,2.3-0.6c0.6-0.3,1-0.6,1.2-1.1s0.4-1.1,0.5-1.8c0.1-0.7,0.1-1.7,0.1-2.7v-34
		h-2.8c-1.4,0-2.4,0.2-3.1,0.5c-0.7,0.3-1.4,0.8-1.9,1.5c-0.5,0.7-1,1.6-1.4,2.7s-0.7,2.2-1,3.3h-4.7v-12h40.1v12h-4.7
		c-0.4-1.5-0.8-2.7-1-3.4c-0.2-0.7-0.5-1.3-0.8-1.9c-0.3-0.5-0.6-0.9-1-1.3c-0.3-0.3-0.7-0.6-1.1-0.8c-0.4-0.2-0.9-0.4-1.4-0.5
		s-1.3-0.2-2.3-0.2h-2.5v34c0,1.2,0,2.1,0.1,2.7c0.1,0.6,0.2,1.1,0.4,1.5c0.2,0.4,0.4,0.7,0.7,0.9c0.3,0.2,0.6,0.5,1.1,0.6
		c0.5,0.2,1.1,0.3,1.9,0.5v2.2H360.1z"/>
	<path class="st0" d="M462.4,281.4c0.3-1,0.6-2.1,0.8-3.2c0.2-1.1,0.3-2,0.3-2.7c0-1.2-0.3-2-0.9-2.6c-0.6-0.6-1.4-0.9-2.6-1v-2.2
		h14.2v2.2c-0.8,0.2-1.5,0.5-2.1,1c-0.6,0.5-1.1,1.1-1.5,2c-0.5,0.8-1,2.2-1.7,4.2l-12.8,37.3h-8.1l-7.7-32l-9.1,32h-8.5l-10.3-38.1
		c-0.5-1.9-0.9-3.2-1.3-3.9c-0.4-0.7-0.8-1.3-1.3-1.6c-0.5-0.4-1.1-0.6-1.8-0.8v-2.2h18.3v2.2c-1.2,0.1-2.1,0.5-2.6,1
		c-0.6,0.5-0.9,1.3-0.9,2.2c0,1.2,0.3,3.1,1,5.6l5.9,23.7l9.8-34.7h7.7l8,34.7L462.4,281.4z"/>
	<path class="st0" d="M491.7,307.7c0,0.8,0,1.5,0.1,2.2c0,0.7,0.1,1.2,0.3,1.7c0.1,0.4,0.3,0.8,0.6,1.1c0.3,0.3,0.6,0.5,1.1,0.8
		c0.5,0.2,1,0.4,1.7,0.6v2.2h-17.9V314c0.8-0.2,1.5-0.5,2-0.7c0.5-0.3,0.9-0.6,1.1-1.1s0.4-1.1,0.5-1.8c0.1-0.7,0.1-1.6,0.1-2.7
		v-29.4c0-1.1,0-2-0.1-2.7c-0.1-0.7-0.2-1.3-0.4-1.8c-0.2-0.5-0.6-0.8-1.1-1.1c-0.5-0.3-1.2-0.5-2-0.7v-2.2h17.9v2.2
		c-0.9,0.3-1.6,0.5-2.1,0.8c-0.4,0.3-0.8,0.6-1,1c-0.2,0.4-0.4,0.9-0.5,1.6c-0.1,0.7-0.1,1.6-0.1,2.9V307.7z"/>
	<path class="st0" d="M511.5,316.2V314c1-0.2,1.7-0.4,2.3-0.6s1-0.6,1.2-1.1s0.4-1.1,0.5-1.8c0.1-0.7,0.1-1.7,0.1-2.7v-34h-2.8
		c-1.4,0-2.4,0.2-3.1,0.5c-0.7,0.3-1.4,0.8-1.9,1.5c-0.5,0.7-1,1.6-1.4,2.7s-0.7,2.2-1,3.3h-4.7v-12h40.1v12h-4.7
		c-0.4-1.5-0.8-2.7-1-3.4s-0.5-1.3-0.8-1.9c-0.3-0.5-0.6-0.9-1-1.3c-0.3-0.3-0.7-0.6-1.1-0.8c-0.4-0.2-0.9-0.4-1.4-0.5
		s-1.3-0.2-2.3-0.2h-2.5v34c0,1.2,0,2.1,0.1,2.7s0.2,1.1,0.4,1.5c0.2,0.4,0.4,0.7,0.7,0.9c0.3,0.2,0.6,0.5,1.1,0.6
		c0.5,0.2,1.1,0.3,1.9,0.5v2.2H511.5z"/>
	<path class="st0" d="M586.6,307.7c0,1.7,0.1,2.9,0.2,3.6c0.1,0.6,0.4,1.2,0.9,1.6c0.5,0.4,1.3,0.8,2.5,1.1v2.2h-17.8V314
		c1.3-0.3,2.2-0.7,2.6-1c0.4-0.3,0.7-0.8,0.8-1.4c0.2-0.6,0.2-1.9,0.2-3.8V294h-15.4v13.7c0,0.8,0,1.5,0.1,2.2
		c0,0.7,0.1,1.2,0.3,1.7c0.1,0.4,0.3,0.8,0.6,1.1c0.3,0.3,0.6,0.5,1.1,0.8c0.5,0.2,1,0.4,1.7,0.6v2.2h-17.9V314
		c0.8-0.2,1.5-0.5,2-0.7c0.5-0.3,0.9-0.6,1.1-1.1s0.4-1.1,0.5-1.8s0.1-1.6,0.1-2.7v-29.4c0-1.1,0-2-0.1-2.7
		c-0.1-0.7-0.2-1.3-0.4-1.8c-0.2-0.5-0.6-0.8-1.1-1.1s-1.2-0.5-2-0.8v-2.2h17.9v2.2c-1.2,0.3-2,0.7-2.5,1.1
		c-0.4,0.4-0.8,0.9-0.9,1.6c-0.2,0.7-0.3,1.9-0.3,3.6v11.4H576v-11.4c0-1.7-0.1-2.9-0.2-3.6s-0.4-1.2-0.9-1.6
		c-0.4-0.4-1.3-0.8-2.5-1.1v-2.2h17.8v2.2c-1,0.3-1.7,0.6-2.2,0.9c-0.5,0.3-0.8,0.7-1,1.2c-0.2,0.5-0.3,1-0.4,1.6s-0.1,1.5-0.1,2.7
		V307.7z"/>
	<path class="st0" d="M636.3,301.8h-14.5l-1.1,3.2c-0.3,0.9-0.6,1.8-0.8,2.6c-0.2,0.9-0.3,1.8-0.3,2.7c0,2.2,1.2,3.4,3.5,3.6v2.2
		h-14.5V314c0.8-0.1,1.6-0.4,2.2-0.9c0.6-0.5,1.2-1.2,1.7-2c0.5-0.9,1.1-2.1,1.7-3.7l14.2-37.8h9.1l11.2,38.1
		c0.5,1.7,0.9,2.9,1.3,3.6s0.8,1.3,1.3,1.7c0.5,0.4,1.3,0.8,2.3,1v2.2h-18.8V314c1.2-0.1,2.1-0.5,2.6-1c0.6-0.5,0.9-1.3,0.9-2.2
		c0-0.7-0.1-1.5-0.2-2.3c-0.2-0.9-0.4-2-0.8-3.3L636.3,301.8z M623.1,297.8h12.3l-5.4-19.2L623.1,297.8z"/>
	<path class="st0" d="M687.1,307.7c0,1.2,0,2.1,0.1,2.7c0.1,0.6,0.2,1.1,0.4,1.5s0.4,0.7,0.7,0.9c0.3,0.2,0.6,0.5,1.1,0.6
		c0.5,0.2,1.1,0.3,1.9,0.5v2.2h-18.3V314c0.8-0.2,1.5-0.4,2-0.7s0.9-0.6,1.1-1.1s0.4-1.1,0.5-1.8c0.1-0.7,0.1-1.6,0.1-2.7v-29.3
		c0-1.1,0-2-0.1-2.7s-0.2-1.3-0.4-1.8c-0.2-0.5-0.6-0.8-1.1-1.1s-1.2-0.5-2-0.8v-2.2h32.9v10.8h-4.7c-0.7-2.2-1.4-3.6-1.9-4.4
		c-0.5-0.8-1.1-1.4-1.9-1.8c-0.7-0.4-2-0.7-3.7-0.7h-6.6v17.3h4.4c1.1,0,1.9-0.2,2.5-0.5c0.6-0.3,1.1-0.9,1.4-1.7
		c0.4-0.8,0.7-1.9,0.9-3.3h3.8v14.8h-3.8c-0.3-1.4-0.6-2.5-1-3.3c-0.4-0.8-0.9-1.3-1.4-1.7c-0.6-0.3-1.4-0.5-2.4-0.5h-4.4V307.7z"/>
	<path class="st0" d="M729.3,269.7v2.2c-0.8,0.2-1.5,0.5-1.9,0.7s-0.8,0.6-1.1,1.1c-0.3,0.5-0.4,1-0.5,1.8c-0.1,0.7-0.1,1.6-0.1,2.7
		v33.9h6.6c1.3,0,2.4-0.2,3.2-0.6c0.8-0.4,1.5-1,2.1-1.9c0.6-0.9,1.1-2,1.5-3.3c0.4-1.4,0.8-2.7,1-3.9h4.7l-0.7,13.8h-32.5V314
		c0.8-0.2,1.5-0.5,2-0.7s0.9-0.6,1.1-1.1c0.2-0.5,0.4-1.1,0.5-1.8c0.1-0.7,0.1-1.6,0.1-2.7v-29.3c0-1.1,0-2-0.1-2.7
		s-0.2-1.3-0.4-1.8c-0.2-0.5-0.6-0.8-1.1-1.1s-1.2-0.5-2-0.8v-2.2H729.3z"/>
	<path class="st0" d="M778,278.3c0-1.7-0.1-2.9-0.2-3.6c-0.1-0.7-0.4-1.2-0.9-1.6c-0.4-0.4-1.3-0.8-2.5-1.1v-2.2h15v2.2
		c-0.8,0.2-1.5,0.5-1.9,0.7c-0.5,0.3-0.8,0.6-1.1,1.1c-0.2,0.5-0.4,1.1-0.5,1.8c-0.1,0.7-0.1,1.6-0.1,2.7v21.3
		c0,2.8-0.2,5.2-0.7,7.1c-0.5,1.9-1.2,3.5-2.1,4.8c-1,1.3-2.1,2.3-3.6,3.1s-3,1.4-4.8,1.7c-1.8,0.3-3.8,0.5-6,0.5
		c-3.2,0-5.9-0.3-8.2-1c-2.2-0.7-4-1.7-5.4-3c-1.4-1.4-2.4-3-3.1-4.9c-0.7-1.9-1-4.4-1-7.5v-22c0-1.1,0-2-0.1-2.7
		c-0.1-0.7-0.2-1.3-0.4-1.8c-0.2-0.5-0.6-0.8-1.1-1.1c-0.5-0.3-1.2-0.5-2-0.8v-2.2h17.9v2.2c-0.9,0.3-1.6,0.5-2.1,0.8s-0.8,0.6-1,1
		c-0.2,0.4-0.4,0.9-0.5,1.6c-0.1,0.7-0.1,1.6-0.1,2.9v22.5c0,1.8,0.1,3.4,0.3,4.9c0.2,1.5,0.6,2.7,1.2,3.8s1.4,1.9,2.5,2.4
		c1.1,0.6,2.4,0.9,4.1,0.9c2.3,0,4-0.5,5.2-1.4c1.1-0.9,1.9-2.2,2.4-3.9c0.5-1.7,0.7-4.2,0.7-7.5V278.3z"/>
	<path class="st0" d="M799.4,304.8c0.6,2.7,1.5,4.7,2.8,6c1.3,1.3,3.3,2,5.8,2c1.3,0,2.5-0.2,3.6-0.7s1.9-1.2,2.6-2.2
		c0.6-1,1-2.3,1-3.8c0-1.4-0.3-2.6-0.8-3.7s-1.4-2-2.5-2.9c-1.2-0.9-2.8-1.9-4.8-3c-1.8-0.9-3.4-1.8-4.8-2.8c-1.4-1-2.7-2-3.7-3.2
		s-1.8-2.4-2.3-3.8s-0.8-2.9-0.8-4.6c0-2.8,0.7-5.2,2.1-7.1c1.4-2,3.4-3.4,6-4.4c2.6-1,5.7-1.5,9.1-1.5c2,0,4,0.1,5.8,0.3
		c1.8,0.2,3.9,0.6,6.3,1.1v9.9h-4.7c-0.4-1.8-1-3.2-1.7-4.3c-0.7-1.1-1.5-1.8-2.5-2.3c-1-0.5-2.3-0.8-3.8-0.8
		c-1.3,0-2.5,0.2-3.5,0.7c-1,0.5-1.8,1.1-2.4,2c-0.6,0.9-0.9,2-0.9,3.3c0,1.3,0.3,2.5,0.8,3.4c0.5,1,1.4,1.9,2.6,2.8
		c1.2,0.9,3,2,5.2,3.2c2.8,1.5,5,2.9,6.6,4.3c1.6,1.4,2.8,2.9,3.5,4.6c0.8,1.6,1.1,3.6,1.1,5.7c0,2.8-0.6,5.2-1.9,7.3
		s-3.2,3.6-5.7,4.7c-2.5,1.1-5.3,1.7-8.6,1.7c-2.3,0-4.7-0.1-7.2-0.4c-2.5-0.3-4.9-0.6-7.1-1.1v-10.5H799.4z"/>
	<path class="st0" d="M871.1,307.7c0,1.7,0.1,2.9,0.2,3.6c0.1,0.6,0.4,1.2,0.9,1.6c0.5,0.4,1.3,0.8,2.5,1.1v2.2h-17.8V314
		c1.3-0.3,2.2-0.7,2.6-1c0.4-0.3,0.7-0.8,0.8-1.4c0.2-0.6,0.2-1.9,0.2-3.8V294h-15.4v13.7c0,0.8,0,1.5,0.1,2.2
		c0,0.7,0.1,1.2,0.3,1.7c0.1,0.4,0.3,0.8,0.6,1.1c0.3,0.3,0.6,0.5,1.1,0.8c0.5,0.2,1,0.4,1.7,0.6v2.2h-17.9V314
		c0.8-0.2,1.5-0.5,2-0.7c0.5-0.3,0.9-0.6,1.1-1.1s0.4-1.1,0.5-1.8s0.1-1.6,0.1-2.7v-29.4c0-1.1,0-2-0.1-2.7
		c-0.1-0.7-0.2-1.3-0.4-1.8c-0.2-0.5-0.6-0.8-1.1-1.1c-0.5-0.3-1.2-0.5-2-0.8v-2.2h17.9v2.2c-1.2,0.3-2,0.7-2.5,1.1
		c-0.4,0.4-0.8,0.9-0.9,1.6c-0.2,0.7-0.3,1.9-0.3,3.6v11.4h15.4v-11.4c0-1.7-0.1-2.9-0.2-3.6c-0.1-0.7-0.4-1.2-0.9-1.6
		c-0.4-0.4-1.3-0.8-2.5-1.1v-2.2h17.8v2.2c-1,0.3-1.7,0.6-2.2,0.9c-0.5,0.3-0.8,0.7-1,1.2c-0.2,0.5-0.3,1-0.4,1.6s-0.1,1.5-0.1,2.7
		V307.7z"/>
</g>
<g>
	<path d="M384.8,343.8c5.9,5.7,8.5,13.9,7.6,24.5c-1,10.9-5.8,19.8-14.4,26.8c-8.7,7-20.9,11.8-36.7,14.3c-0.5,0.1-1,0.2-1.4,0.2
		c-1.6,0-2.8-0.6-3.5-1.7c-1.4-2.2-0.3-5.6,3.2-10.1c0.6-15.9,0.2-35.5-1.1-58.6v-0.3l0.2-0.5c0.8-0.9,5.1-1.6,13-2.3h0.3
		C366.7,334.2,377.6,336.8,384.8,343.8z M353.9,347.5c0.6,9.4,0.7,22.9,0.2,40.5c-0.1,0.5-0.1,1.5-0.2,3c0,1.5-0.1,2.8-0.1,3.6
		c1.6-0.8,3.2-1.6,4.8-2.4c1.6-0.9,3.4-2,5.5-3.6c2.1-1.5,4-3.2,5.6-4.9c1.7-1.7,3.3-3.9,4.8-6.4c1.5-2.5,2.6-5.1,3.4-7.9
		c1.6-6.4,0.4-11.7-3.6-16.1c-2.3-2.5-5.3-4.2-8.9-5.2C361.9,347.1,358,346.9,353.9,347.5z"/>
	<path d="M444.3,347.1c5.5,6.2,8.7,13.8,9.5,22.6c0.8,8.8-0.9,17.1-5.1,24.8c-2,3.7-4.7,6.7-8.2,9.1c-3.5,2.4-7.4,3.8-11.5,4.3
		c-1.1,0.1-2.2,0.2-3.3,0.2c-7.6,0-14-2.8-19.3-8.5c-4-4.3-6.8-9.5-8.4-15.6c-1.6-6.1-1.8-12.3-0.6-18.4c1.2-6.2,3.6-11.5,7.3-15.8
		c3.6-4.3,7.8-7.4,12.8-9.3c5-1.9,9.8-2.3,14.6-1.2c1.7,0.3,3.5,1.1,5.5,2.3c1.9,1.2,3.4,2.3,4.5,3.3
		C443.1,345.7,443.9,346.5,444.3,347.1z M413,386.6c1.4,2.3,3.3,4,5.6,5.2c2.3,1.1,4.9,1.5,7.6,1.2c3.6-0.4,6.7-1.8,9.5-4.1
		c2.8-2.3,4.7-5.2,5.8-8.5l0.1-0.1c1.5-3.6,1.5-7.9-0.2-13.1c-1.6-5.2-4.5-9.5-8.7-12.8c-2.3-1.6-4.8-2.5-7.4-2.5
		c-0.6,0-1.2,0-1.8,0.1c-3.8,0.7-7.1,2.9-9.7,6.7c-2.9,4.2-4.5,8.8-4.7,13.9C409.1,377.6,410.3,382.3,413,386.6z"/>
	<path d="M506.1,337.2c0.1,8,0,21.1-0.3,39.5c-0.1,12.8-0.2,22-0.2,27.8c0,1-0.4,1.6-1.3,2c-0.6,0.3-1.4,0.4-2.4,0.4
		c-1.2,0-2.6-0.3-4.2-0.8s-2.4-1.2-2.6-2c-1.4-3.6-3.4-7.4-5.8-11.5c-2.4-4.1-4.5-7.4-6.3-10c-1.8-2.6-4.3-6.1-7.6-10.6
		c-1.8-2.5-3.3-4.4-4.4-5.9c0.1,6,0.2,14.9,0.1,26.6c-0.1,5-0.1,8.9-0.1,11.8v0.6l-0.5,0.4c-1,0.7-4.3-0.3-9.7-3.1l-0.5-0.2v-0.6
		c0-11.1-0.7-31.9-2.1-62.6c-0.1-1.2,0.2-2.2,1.1-2.9c1-0.7,2.2-1,3.6-1c1.4,0,2.7,0.3,4,0.9c1.6,0.7,2.6,1.5,2.8,2.6
		c4.9,8.4,12.8,20.4,23.7,36l1.1,1.5c-0.3-12.6-0.8-24.7-1.2-36.3v-0.3l0.1-0.2c0.5-1.2,2.1-2.2,4.6-2.9c2.5-0.7,4.5-1,6-0.8
		c1.2,0.1,1.8,0.6,2,1.3V337.2z"/>
	<path d="M522.4,336.8l-1.7,24.6h-5.5l-1.6-24.6H522.4z"/>
	<path d="M585.2,335.4c0.1,0.3,0.2,0.6,0.2,1c0,1.2-0.8,3.2-2.3,6c-1.5,2.8-2.8,4.1-3.7,4.1c-2.9,0-6.5,0-11,0.1l-2.6,0.1
		c-0.1,5.9-0.2,16-0.4,30.1c-0.2,13.5-0.3,23.1-0.3,28.8c-0.1,0.8-0.7,1.2-1.7,1.2c-0.1,0-0.2,0-0.3,0c-1.4-0.1-3.5-0.7-6-1.7
		c-2.6-1-3.9-2-3.9-3c0-10.6-0.5-29-1.6-55.2l-22.5,0.5h-0.7l-0.2-0.7c-0.3-0.9-0.1-2.7,0.7-5.4c0.7-2.7,1.4-4.7,2.1-5.9
		c0.4-0.7,0.8-1.1,1.2-1.2c6.3-0.1,16.5-0.1,30.6,0.2c9.8,0.2,16.9,0.3,21.3,0.3C584.5,334.8,584.9,335,585.2,335.4z"/>
	<path d="M651.4,363.9c4,0.5,7.3,2,9.9,4.6c2.7,2.6,4,6.3,4.1,11.1c0,3.4-0.7,6.6-2.1,9.5c-1.4,2.9-3.3,5.4-5.6,7.4
		c-2.3,2-4.9,3.8-7.7,5.4c-2.8,1.6-5.8,2.8-8.9,3.7c-3.1,0.9-6,1.6-8.7,2.1c-2.7,0.5-5.1,0.7-7.4,0.7h-0.4c-4.3,0-6.5-0.8-6.6-2.5
		c-0.1-6.1-0.2-16.1-0.5-30c-0.2-13.9-0.4-23.8-0.5-29.9c-0.1-0.2-0.4-0.7-1.1-1.5c-1.8-2.1-2.4-3.8-1.9-5c0.4-1.3,1.9-2.2,4.6-2.7
		c2.7-0.5,5.3-0.9,7.9-1.1c2.6-0.2,5.2-0.3,7.7-0.2c2.6,0.1,5,0.4,7.2,1c2.2,0.6,4.3,1.4,6.1,2.4c1.8,1,3.4,2.3,4.7,3.9
		c1.3,1.6,2.2,3.5,2.7,5.6C656.2,353.8,655,359,651.4,363.9z M643.5,354c0.8-1.5,1-3,0.5-4.6c-0.7-2.3-5.3-3.3-13.9-3.1l0.3,16
		c2.5-0.7,5-1.8,7.6-3.3C640.5,357.6,642.4,355.9,643.5,354z M630.5,385.9c0,4.5,0,8,0.1,10.3c1.5,0.1,3.2-0.1,5.1-0.6
		c1.9-0.4,3.9-1.2,6-2.3c2.1-1.1,3.9-2.3,5.5-3.7c3.3-3.1,5-6.7,5-10.8c0-0.8-0.3-1.6-1-2.3c-1.2-1-3.2-1.8-5.9-2.2
		c-2.7-0.4-5.6-0.5-8.7-0.1c-0.2,0-0.8,0.1-1.7,0.3c-1.9,0.3-3.3,0.7-4.3,0.9C630.6,377.9,630.5,381.3,630.5,385.9z"/>
	<path d="M712.1,393.4c1.5,0.1,2.2,1,2.2,2.8c0,2-0.8,4.3-2.5,6.9c-1.7,2.6-3.3,3.9-5,3.9c-3.4-0.1-10.8-0.2-22.1-0.2
		c-5.7,0-9.4,0-11.2-0.1c-1-0.1-1.6-0.4-1.8-1.1c-0.2-0.6-0.3-2-0.2-3.9c0.5-18.7,0.9-35.5,0.9-50.2c0-0.3-0.5-1.2-1.5-2.8
		c-2.4-3.9-3.4-6.8-3.1-8.7c0.1-0.5,0.3-1,0.6-1.3c0.3-0.3,0.9-0.5,1.5-0.7c0.7-0.1,1.3-0.2,1.7-0.3c0.5,0,1.2-0.1,2.2-0.1h1
		c5-0.1,13.1-0.5,24.4-1.1c6.5-0.3,11.2-0.6,14-0.7c1.1,0.1,1.7,0.8,1.7,2.1c0.1,1.2-0.3,2.8-1,4.8c-0.8,2-1.8,3.8-3.2,5.5
		c-1.4,1.7-2.7,2.6-4.1,2.7c-2.3,0.1-5.9,0.4-10.9,0.7c-4.5,0.3-7.7,0.5-9.4,0.6v9.6l18.8,0.3c1.3-0.1,2.1,0.5,2.3,1.9
		c0.3,1.6-0.3,3.7-1.8,6.5c-1.5,2.7-2.9,4.3-4.1,4.6c-2.1,0.1-4.5,0.1-7.5,0c-3.4,0-6,0-7.8,0c0,3.2,0,6.4,0.1,9.7
		c0,3.2,0.1,6.5,0.1,9.7c2.4-0.1,6.3-0.2,11.8-0.5C704.9,393.7,709.5,393.5,712.1,393.4z"/>
</g>
<g>
	<path d="M200.1,581.9l-41.7-8.3L217,418.9c1.5,0,5,1,10.6,2.8c5.6,1.8,9.4,3,11.5,3.6c2.4,0.7,4.3,1.2,5.5,1.6
		c1.2,0.4,2.8,1.3,4.6,2.7c1.4,1.1,2.7,2.1,4.1,3.1c1.3,1,2.7,2,4.1,3.1c1.1,0.8,2.5,1.9,4.2,3.1c1.8,1.3,3.1,2.3,3.9,3.1
		c0.7,0.7,1.4,2.3,2.1,5c0.7,2.6,1.3,4.5,1.7,5.7c1.1,3.6,2.3,7.3,3.4,10.9c1.2,3.6,2.3,7.3,3.6,10.9c2.4,7.3,4.8,14.6,7,21.9
		c2.2,7.3,4.6,14.5,7,21.8c0.4,1.3,1.4,4.2,2.9,8.7c1.5,4.5,3,9.2,4.6,14.2c1.6,5,3.1,9.6,4.3,13.7c1.3,4.2,1.9,6.6,1.9,7.2
		c0,0.5-1.5,2.9-4.4,7c-2.9,4.2-4.7,6.8-5.3,7.7l-47.3,5.3l-6.9-36.7l-5.1-0.3c-0.1,1.1-0.7,3.3-1.9,6.7c-1.2,3.4-2,5.8-2.4,7
		c-1.3,3.9-2.1,6.1-2.4,6.6c-0.3,0.5-2.2,1.6-5.6,3.5c-1.9,1.1-3.9,2.2-6,3.2c-2.1,1-4,2.1-5.8,3.2c-1,0.6-2,1.2-3,1.6
		c-1,0.5-1.9,1-2.9,1.5c-0.6,0.4-1.7,0.9-3.1,1.5C200.9,580.4,200.2,581.1,200.1,581.9z M219.9,424.3l-55.3,146l32.3,6.6l12.3-37.8
		l35,1.7L251,577l37.7-4.1l-45.1-141.5L219.9,424.3z M217.3,514.9l13.4-44.4l10.9,45.5L217.3,514.9z"/>
	<path d="M294.9,569.3c1.3-23.5,2.3-42.5,3.1-57c0.8-14.5,1.5-28.2,2.1-41.2s1-20.6,1-22.9c0-2.3,0.1-4.8,0.4-7.5
		c0.3-2.7,0.4-5.2,0.4-7.5c0-4.7,0.3-7,1-7c0.7,0.1,3.2-0.1,7.4-0.6c2.1-0.2,4.6-0.5,7.4-0.7c2.8-0.2,5.2-0.4,7.3-0.4
		c2.4-0.1,4.9-0.3,7.6-0.6c2.6-0.3,5.1-0.5,7.4-0.5c2.3,0,4.7-0.2,7.3-0.5c2.5-0.4,5-0.6,7.4-0.6c2.1,0,4.6-0.1,7.3-0.4
		c2.8-0.3,5.3-0.5,7.6-0.7c4.7-0.3,9.6-0.8,14.7-1.4c5.1-0.6,10.1-0.9,14.9-0.9c0,1.7,0,2.7,0.1,2.8c0.1,0.1,0.5,1,1.1,2.5
		c0.6,1.6,1.3,3.2,2.1,4.9c0.4,0.8,1.1,2.5,2.3,5.2c1.2,2.7,1.9,4.2,2.2,4.6v1.9c-0.3,0.5-0.7,2.9-1.3,7.2c-0.6,4.4-1,7-1.1,8.1
		c-0.6,3.4-1,5.9-1.2,7.6c-0.2,1.4-0.3,2.2-0.3,2.2s-0.4,0.3-1.2,0.7c-0.6,0.3-0.9,0.7-0.8,1.1c0.1,0.4-0.5,0.6-1.6,0.7
		c-2.6,0.3-5.4,0.4-8.4,0.4c-3,0-5.7,0.2-8.1,0.6c-1.7,0.3-4.4,0.6-8.1,0.7c-3.7,0.1-6.5,0.2-8.4,0.2v8.2h14.9
		c0.1,0.7,1,1.5,2.8,2.5c1.8,0.9,3.1,1.6,3.8,2c1.2,0.7,2.3,1.3,3.4,1.9c1.1,0.6,1.9,1.7,2.2,3.2c1,5.2,2.3,11.2,3.9,17.9
		c-0.5,0.7-0.9,1.1-1.3,1.4c-0.4,0.2-0.6,0.8-0.6,1.7l-29.6,4.3c0,3.1-0.4,6.7-1.1,10.6c-0.7,3.9-1.2,7.5-1.5,10.8
		c-0.7,7.6-1.5,14.7-2.6,21c-1.1,6.2-1.5,9.5-1.4,10.2c0.1,0.6-2.1,2.4-6.7,5.4c-1.3,0.8-2.5,1.6-3.6,2.3c-1.2,0.7-2.4,1.5-3.6,2.3
		c-1,0.7-2.3,1.4-3.8,2.2c-1.5,0.8-2.4,1.8-2.7,3.1l-44-11.6V569.3z M306.5,430.6l-6.8,135.7l35.4,9.4l8.3-67.2
		c2.6,0,5.7-0.4,9.5-1.1c3.8-0.7,7-1.3,9.7-1.6c1.6-0.2,3.2-0.4,4.9-0.7c1.6-0.3,3.2-0.5,4.7-0.7c0.7-0.1,2.4-0.2,5.3-0.5
		c2.9-0.3,4.3-0.7,4.3-1.1c0-0.8-0.3-2.4-0.9-4.9c-0.6-2.4-1-4.2-1.2-5.2c-0.2-0.8-0.5-2.6-0.9-5.3c-0.4-2.7-1-4.1-1.8-4.1h-33.3
		l0-28.4l45.9-3l4.3-28.1L306.5,430.6z"/>
	<path d="M563.7,546.1c-1.7,0.8-3.8,2.3-6.2,4.4c-2.4,2.1-4.5,3.7-6.2,4.9c-1.9,1.4-4.1,2.7-6.7,3.9c-2.5,1.2-4.9,2.5-7,3.7
		c-2.3,1.4-4.6,2.7-6.9,3.9c-2.4,1.2-4.6,2.5-6.8,3.8c-1.9,1.2-4.1,2.5-6.8,4c-2.6,1.5-4.9,2.7-6.9,3.6c-1.1-0.8-3.4-3.2-7.1-7.2
		c-3.6-4-5.7-6-6.2-6.1c0,0-1.8,0.9-5.2,2.6c-3.4,1.7-5.4,2.7-6,3c-1,0.5-1.9,0.9-2.8,1.4c-0.9,0.5-1.8,0.9-2.7,1.3
		c-0.6,0.3-1,0.5-1.4,0.7c-0.4,0.2-0.8,0.5-1.4,0.7c-1.4,0.6-2,1.2-1.9,1.8l-59.7,1.7l-5.1-155.8c5.3-0.2,10.6-0.7,16.1-1.4
		c5.5-0.7,10.7-1.4,15.6-2c2.5-0.3,5.1-0.6,7.9-1c2.8-0.3,5.4-0.6,8-0.7c0.7,0,3.6-0.1,8.8-0.3c5.2-0.2,7.8-0.4,7.9-0.4l6.8,0.2
		c0.6,0.5,1.7,0.7,3.2,0.7c1.5,0,2.6,0.1,3.4,0.3c0.9,0.3,1.8,0.6,2.8,0.9c0.9,0.4,1.9,0.7,2.8,1c2.3,0.9,4,1.6,5.3,2.2
		c1.2,0.6,2.8,1.5,4.7,2.8c3,2,6,4,8.9,5.9c2.9,1.9,5.9,3.8,9,5.8c3.6,2.4,6.4,4.5,8.4,6.3c2,1.8,4.2,4.5,6.5,8.2
		c1.6,2.6,3,6,4.3,10.2c1.3,4.2,1.9,8.4,1.7,12.4c-0.3,7.9-2.9,14.3-7.8,19.3c-1.2,1.2-3.6,3.3-7.4,6.3c-3.7,3-6.4,4.7-8,5.1
		l44.1,37.8L563.7,546.1z M415.6,426.8l4.8,146.9l50-1.5l-6.9-49.5l47.7,50l33.1-18.6l-57.7-49.9c0.2-0.3,2-1.4,5.3-3.4
		c3.3-2,5.4-3.2,6.1-3.7c3.6-2.2,7.1-4.9,10.5-8c3.7-3.4,6.4-7,8-10.8c1.3-3,1.9-5.6,2-7.8c0.1-2.2,0.1-5,0.1-8.5
		c-0.1-5.3-1.2-10.2-3.4-14.7c-2.2-4.5-4.4-8.4-6.8-11.7c-1.3-1.8-2.8-3.4-4.5-4.8c-1.7-1.4-3.5-2.7-5.4-4c-1.1-0.7-3.3-1.7-6.7-2.9
		c-3.4-1.2-6-1.9-7.7-2l-10.4-0.4c-4.8-0.2-9.8-0.1-15,0.4c-5.2,0.5-10,1-14.3,1.6c-5.1,0.7-9.8,1.3-14.1,1.8
		c-1.9,0.2-4.3,0.6-7.2,1C419.9,426.8,417.5,426.9,415.6,426.8z M451.8,446.9c4.2,0.2,8,0.3,11.2,0.3s6.4,0.8,9.6,2.3
		c5.4,2.6,7.9,7.6,7.6,15c-0.2,3.6-1.3,6.6-3.5,9c-2.2,2.4-4.4,4.3-6.7,5.6c-1.7,1-4.7,2-8.9,3.2c-4.2,1.1-7.4,1.9-9.7,2.3
		l-2.1-37.7L451.8,446.9z"/>
	<path d="M587.3,581.9l-41.7-8.3l58.6-154.7c1.5,0,5,1,10.6,2.8c5.6,1.8,9.4,3,11.5,3.6c2.4,0.7,4.3,1.2,5.5,1.6
		c1.2,0.4,2.8,1.3,4.6,2.7c1.4,1.1,2.7,2.1,4.1,3.1c1.3,1,2.7,2,4.1,3.1c1.1,0.8,2.5,1.9,4.2,3.1c1.8,1.3,3.1,2.3,3.9,3.1
		c0.7,0.7,1.4,2.3,2.1,5c0.7,2.6,1.3,4.5,1.7,5.7c1.1,3.6,2.3,7.3,3.4,10.9c1.2,3.6,2.3,7.3,3.6,10.9c2.4,7.3,4.8,14.6,7,21.9
		s4.6,14.5,7,21.8c0.4,1.3,1.4,4.2,2.9,8.7c1.5,4.5,3,9.2,4.6,14.2c1.6,5,3.1,9.6,4.3,13.7c1.3,4.2,1.9,6.6,1.9,7.2
		c0,0.5-1.5,2.9-4.4,7c-2.9,4.2-4.7,6.8-5.3,7.7l-47.3,5.3l-6.9-36.7l-5.1-0.3c-0.1,1.1-0.7,3.3-1.9,6.7c-1.2,3.4-2,5.8-2.4,7
		c-1.3,3.9-2.1,6.1-2.4,6.6c-0.3,0.5-2.2,1.6-5.6,3.5c-1.9,1.1-3.9,2.2-6,3.2c-2.1,1-4,2.1-5.8,3.2c-1,0.6-2,1.2-3,1.6
		c-1,0.5-1.9,1-2.9,1.5c-0.6,0.4-1.7,0.9-3.1,1.5C588.2,580.4,587.4,581.1,587.3,581.9z M607.1,424.3l-55.3,146l32.3,6.6l12.3-37.8
		l35,1.7l6.8,36.3l37.7-4.1l-45.1-141.5L607.1,424.3z M604.5,514.9l13.4-44.4l10.9,45.5L604.5,514.9z"/>
	<path d="M689,581.1l2-156.3l37.2-6.6v0.8c0,0.4,1.5,2.2,4.6,5.3c3.1,3.1,4.9,5,5.5,5.6c0.9,0.9,1.8,1.8,2.6,2.6
		c0.8,0.8,1.7,1.7,2.7,2.6c1.1,1.1,1.7,2.4,1.8,3.7c0,1.3,0.2,3,0.4,4.8c0.3,2.9,0.6,6.3,0.9,10c0.3,3.7,0.4,7,0.5,9.8
		c0.1,3.2,0.4,6.6,0.8,10.1c0.4,3.5,0.6,6.7,0.6,9.7c0,1.5,0.3,6.4,0.9,14.7c0.6,8.4,1.3,17.3,2,26.8c0.7,9.5,1.4,18.1,2.1,25.7
		c0.6,7.7,1,11.5,1,11.5v2.2c-0.5,0.7-0.7,1.1-0.6,1.1c0.1,0.1-0.2,0.5-1,1.2l-1.8,1.8c-0.7,0.7-1.3,1.3-1.8,2s-1.2,1.3-1.9,2
		c-0.5,0.5-1.8,1.8-4,3.9c-2.2,2.1-3.3,3.4-3.3,3.7v0.9l-31.9,0.2H689z M693.5,576.3h41.7L724,423.6c-1.9,0-5.1,0.5-9.6,1.4
		c-4.5,0.9-7.8,1.6-9.9,2c-0.8,0.2-2.5,0.4-5.1,0.7c-2.5,0.3-3.9,0.8-4,1.5c-0.2,1.1-0.2,2.9-0.1,5.6c0.1,2.7,0.2,4.7,0.2,6
		c0,7.3-0.2,14.8-0.5,22.4c-0.3,7.7-0.4,15.2-0.4,22.4c0,15.2-0.2,30.3-0.6,45.4C693.7,546,693.5,561.1,693.5,576.3z"/>
	<path d="M761.2,424.4l54.2-5.7h1.4c0.2,0.2,1.6,0.4,4.2,0.8c2.6,0.4,4.2,0.6,4.8,0.7c3.2,0.6,6,1.4,8.5,2.2
		c2.5,0.9,5.2,1.8,7.9,2.9c2.7,1,5.1,2.2,7.3,3.5c5,3.1,9.2,6.1,12.5,8.8c3.3,2.8,7,6.2,11.1,10.2c3.4,3.5,7.1,6.9,11,10.4
		c3.9,3.4,7.3,7.1,10.3,11c3.5,4.7,6,9.2,7.5,13.7c1,3,1.7,5.8,2.2,8.5c0.1,0.6,0.2,2.3,0.5,5.1c0.3,2.8,0.5,4.3,0.6,4.5v10.7
		c0,0-0.2,1.8-0.6,5.2c-0.4,3.4-0.7,5.4-0.8,6.1c-1.1,4.3-2.1,7.5-3.1,9.7c-2.9,6.4-6.2,11.5-9.9,15.4c-4,4.2-8.9,7.7-14.7,10.6
		c-5.8,2.9-11.7,5.3-17.9,7.3c-6.9,2.3-13.6,4.1-20,5.3c-6.5,1.2-13.6,2.5-21.4,3.8c-3.4,0.6-7.1,1.3-11,2c-4,0.7-7.6,1.2-10.9,1.5
		c-3.7,0.3-7.3,0.8-11,1.5c-3.6,0.7-7.5,1-11.6,1h-0.8c-0.8,0-1.2-1.3-1.1-4c0.1-2.6,0-4.4-0.1-5.3c-0.2-1.4-0.3-3.1-0.3-4.9
		c0-1.9-0.1-3.5-0.3-4.9c-0.5-2.9-0.7-6.2-0.6-9.8c0.1-3.7-0.1-6.9-0.6-9.8c-0.3-1.4-0.4-3-0.4-4.9c0-1.9-0.1-3.6-0.2-4.9
		c-0.2-1.4-0.3-3-0.4-5c-0.1-1.9-0.1-3.5-0.2-4.9c-0.1-3.2-0.4-6.5-0.7-9.9c-0.3-3.4-0.5-6.6-0.5-9.6c0-1.5-0.2-6.4-0.7-14.7
		s-1-17.2-1.6-26.6c-0.6-9.4-1.1-17.9-1.6-25.5c-0.5-7.6-0.7-11.4-0.7-11.4V424.4z M816.5,423.4l-50.5,5l9,147.9
		c10.1,0,23.4-2.3,40-6.9c16.5-4.6,27.9-8.8,34-12.7c2.5-1.6,4.9-3,7.3-4.1c2.4-1.1,4.6-2.8,6.8-4.9c2.1-2.1,3.9-4.1,5.7-6.1
		c1.7-2,3.3-4.3,4.9-6.9c2.9-5,5.2-10.5,6.9-16.5c1.7-6.1,2.5-13.1,2.5-21c0-12.4-1.5-22.5-4.5-30.3c-3-7.8-7.6-14.8-13.9-21.1
		c-6.2-6.2-12.9-11.1-20.3-14.7c-2.9-1.5-7.1-3.1-12.7-4.9c-5.6-1.8-10.5-2.7-14.7-2.7L816.5,423.4z M848.8,495v7.3
		c0,2.5-0.6,4.9-1.8,7.4c-1.2,2.4-2.2,4.5-3.2,6.1c-0.9,1.6-2.3,3.2-4.4,4.9s-3.8,2.9-5.4,3.7c-3.1,1.5-5.1,2.5-6,3
		c-0.9,0.5-3.5,1-7.8,1.5c-2.2,0.3-4.9,0.7-8.1,1.3s-5.9,0.9-8,0.9c0-6.3-0.4-12.7-1.1-19.2c-0.7-6.5-1.1-12.9-1.1-19.1
		c0-1.1-0.1-2.6-0.2-4.7c-0.1-2.1-0.3-3.7-0.4-4.9c-0.2-1.4-0.3-3-0.3-4.8c0-1.8-0.1-3.4-0.3-4.8c-0.2-1.4-0.3-2.9-0.3-4.7
		c0-1.8-0.1-3.4-0.3-4.8c-0.6-3-0.6-4.6-0.1-4.8c0.5-0.2,1.9-0.4,4.2-0.4c4,0,7.3-0.1,9.9-0.2c2.6-0.2,5.6,0.2,8.9,1.2
		c3.7,1.1,6.2,2,7.5,2.8c1.3,0.8,3.4,2.1,6.3,3.7c2.2,1.3,3.9,3,5.3,4.9c1.3,2,2.6,4,3.9,6.2c0.9,1.6,1.6,4.3,2.1,8.1
		C848.5,489.4,848.8,492.5,848.8,495z"/>
</g>
<g>
	<path d="M360.6,597.9v11.2v7.4H358c0-0.3,0-3.2,0-5.3c0-13.3-22.8-13.3-22.8,2.1c0,28.8,0,57.4,0,86.2c0,13.7,6.3,12.6,9.9,12.6
		v2.8c-12.9,0-26,0-39,0v-2.8c3.6,0,9.9,1.1,9.9-12.6c0-28.8,0-57.4,0-86.2c0-15.4-22.8-15.5-22.8-2.1l0.2,5.3h-2.8v-7.4v-11.2
		H360.6z"/>
	<path d="M368.2,694.7c-4.7-14.7-4.7-62.6,0.6-77.1c9.9-27.7,54-28,63.2,2.3c4.2,14.1,4.2,58.4,0.5,72.8
		C423.9,725.6,377.5,724.4,368.2,694.7z M396.9,600.7c-6.6,2.3-9.1,10.4-10.7,20.5c-2.4,16.3-2.6,56.1,0.2,72.3
		c1.6,9.5,3.7,17,9.9,19.4c2.9,1.3,6,1.1,8.7-0.5c5.7-2.9,7.8-10.7,9.1-20.2c2.4-16.3,2.4-52.9,0.2-69.4c-1.3-10.5-3.6-19.2-10-21.8
		C401.7,599.9,399.4,599.9,396.9,600.7z"/>
	<path d="M477.6,613.3c0-13.7-6.5-12.6-10-12.6v-2.7h39v2.7c-3.6,0-9.9-1.1-9.9,12.6v33.2c0,25.1,23.8,26.8,27.7,2.8
		c1.3-7.9,1-16.5,1-21.8v-14.1c0-8.7-1.3-12.6-9.9-12.6v-2.7H540v2.7c-3.7,0-10-1.1-10,12.6v14.1c0,8.6-0.2,15.9-1,21.8
		c-1.8,13.3-9.1,20.4-19.6,21.8c-21.5,3.1-31.9-11-31.9-31.1V613.3z M531.9,774.2c-30.6-1.6-57.7-27.3-56.1-58.5
		c1.9-36.2,47.9-56.1,70.7-27.5c11.2,14.1,9.4,37.7-6.1,47.5c-3.4,2.1-9.9,4.7-13.7,4c-6.1-1-5.3-10,1.1-9.5c2.3,0.2,4.4,1.6,4.9,4
		c1.9-0.6,3.7-1.5,5.3-2.4c13.3-8.4,14.4-29.1,5.2-40.8c-20.4-25.2-61.1-7.3-62.7,24.9c-1.5,28.6,23.8,52.2,51.8,53.7
		c46.4,2.4,64.2-55.5,41.1-90.6c-10.5-15.8-25.9-24.3-31.2-40.9c-5.2-16.3,1.3-37.4,20.5-40.9c8.9-1.8,18.9,0.3,24.6,6.6
		c1.1,1.1,1.9,1.5,2.6,1c1.5-1,1.5-5.5,1.6-7l2.8-0.2l-0.6,25.2l-3.1,0.2c-0.5-8.2-3.2-14.1-7.9-18c-11-9.4-21.8-2.6-23.9,9.9
		c-3.4,21.7,23,34.9,33.6,55.3C617.9,719.6,590.9,777.3,531.9,774.2z"/>
	<path d="M653.5,685.9h-2.7c-0.2-7.1,0.2-9.7-11.5-9.9v23.5c0,15.5,22.8,15.5,22.8,2.1v-3.2h2.6v16.5h-54.5v-2.8
		c3.6,0,9.9,1.1,9.9-12.6c0-28.8,0-57.4,0-86.2c0-13.7-6.3-12.6-9.9-12.6v-2.7h54.5v16.8h-2.6c0-0.3,0-1.5,0-3.6
		c0-13.3-22.8-13.3-22.8,2.1V673c11.6-0.2,11.3-2.8,11.5-9.9h2.7C653.5,670.7,653.5,678.3,653.5,685.9z"/>
	<path d="M768.5,597.9v11.2v7.4h-2.6c0-0.3,0-3.2,0-5.3c0-13.3-22.8-13.3-22.8,2.1c0,28.8,0,57.4,0,86.2c0,13.7,6.3,12.6,9.9,12.6
		v2.8c-12.9,0-26,0-39,0v-2.8c3.6,0,9.9,1.1,9.9-12.6c0-28.8,0-57.4,0-86.2c0-15.4-22.8-15.5-22.8-2.1l0.2,5.3h-2.8v-7.4v-11.2
		H768.5z"/>
	<path d="M859.9,600.7c-3.6,0-9.9-1.1-9.9,12.6c0,28.8,0,57.4,0,86.2c0,13.7,6.3,12.6,9.9,12.6v2.8c-12.9,0-25.9,0-39,0v-2.8
		c3.6,0,10,1.1,10-12.6V690c-6.3-7.4-18.8-10.7-29.3-11.5v21c0,13.7,6.3,12.6,9.9,12.6v2.8c-12.9,0-26,0-39,0v-2.8
		c3.6,0,9.9,1.1,9.9-12.6c0-28.8,0-57.4,0-86.2c0-13.7-6.3-12.6-9.9-12.6v-2.7c12.9,0,26,0,39,0v2.7c-3.6,0-9.9-1.1-9.9,12.6v60.8
		c9.9,0.6,22.8,4,29.3,9.7v-70.5c0-13.7-6.5-12.6-10-12.6v-2.7c13.1,0,26,0,39,0V600.7z"/>
	<path d="M907.3,685.9h-2.7c-0.2-7.1,0.2-9.7-11.5-9.9v23.5c0,15.5,22.8,15.5,22.8,2.1v-3.2h2.6v16.5h-54.5v-2.8
		c3.6,0,9.9,1.1,9.9-12.6c0-28.8,0-57.4,0-86.2c0-13.7-6.3-12.6-9.9-12.6v-2.7h54.5v16.8h-2.6c0-0.3,0-1.5,0-3.6
		c0-13.3-22.8-13.3-22.8,2.1V673c11.6-0.2,11.3-2.8,11.5-9.9h2.7C907.3,670.7,907.3,678.3,907.3,685.9z"/>
</g>
<circle cx="730.4" cy="370.2" r="11.7"/>
<circle cx="776.5" cy="370.2" r="11.7"/>
<circle cx="822.6" cy="370.2" r="11.7"/>
<circle cx="868.7" cy="370.2" r="11.7"/>
<circle cx="321.1" cy="370.2" r="11.7"/>
<circle cx="275" cy="370.2" r="11.7"/>
<circle cx="228.9" cy="370.2" r="11.7"/>
<circle cx="182.8" cy="370.2" r="11.7"/>
</svg>
