<?xml version="1.0" encoding="utf-8"?>
<!-- Generator: Adobe Illustrator 22.0.0, SVG Export Plug-In . SVG Version: 6.00 Build 0)  -->
<svg version="1.1" id="Layer_1" xmlns="http://www.w3.org/2000/svg" xmlns:xlink="http://www.w3.org/1999/xlink" x="0px" y="0px"
	 viewBox="0 0 1080 1080" style="enable-background:new 0 0 1080 1080;" xml:space="preserve">
<g>
	<g>
		<g>
			<path d="M192.2,193.5c29.1,0,43.6,14.5,43.6,43.6h-26.2c0-11.6-5.8-17.5-17.5-17.5c-11.6,0-17.5,10.2-17.5,30.6
				c0,18,10.2,37.8,30.6,59.4c20.4,21.5,30.6,45.4,30.6,71.6c0,37.8-14.6,56.7-43.6,56.7c-29.1,0-43.6-14.5-43.6-43.6h26.2
				c0,11.6,5.8,17.5,17.5,17.5c11.6,0,17.5-10.2,17.5-30.6V381c0-18-10.2-37.8-30.6-59.3c-20.4-21.5-30.6-45.3-30.6-71.5
				C148.5,212.4,163.1,193.5,192.2,193.5z"/>
			<path d="M340.6,437.9h-26.2V307c0-11.6-5.8-17.5-17.5-17.5c-11.6,0-17.5,5.8-17.5,17.5v130.9h-26.2V193.5h26.2v72.1
				c5.1-1.5,10.9-2.3,17.5-2.3c29.1,0,43.6,14.6,43.6,43.6V437.9z"/>
			<path d="M419.1,263.3h26.2v174.6h-26.2v-2.3c-5.1,1.5-10.9,2.3-17.5,2.3c-29.1,0-43.6-14.5-43.6-43.6V263.3h26.2v130.9
				c0,11.6,5.8,17.5,17.5,17.5c11.6,0,17.5-5.8,17.5-17.5V263.3z"/>
			<path d="M515.1,289.5v148.4H489V289.5h-26.2v-26.2H489v-69.8h26.2v69.8h26.2v26.2H515.1z"/>
		</g>
	</g>
	<g>
		<g>
			<path d="M213.5,575.7v113.2h-24.3V575.7l-40.4-113.2h24.3l28.3,79.2l28.3-79.2h24.3L213.5,575.7z"/>
			<path d="M258,567.6c0-26.9,13.5-40.4,40.4-40.4c26.9,0,40.4,13.5,40.4,40.4v80.8c0,26.9-13.5,40.4-40.4,40.4
				c-26.9,0-40.4-13.5-40.4-40.4V567.6z M298.4,551.4c-10.8,0-16.2,5.4-16.2,16.2v80.8c0,10.8,5.4,16.2,16.2,16.2
				s16.2-5.4,16.2-16.2v-80.8C314.6,556.8,309.2,551.4,298.4,551.4z"/>
			<path d="M411.6,527.2h24.2v161.7h-24.2v-2.1c-4.7,1.4-10.1,2.1-16.2,2.1c-26.9,0-40.4-13.5-40.4-40.4V527.2h24.3v121.3
				c0,10.8,5.4,16.2,16.2,16.2s16.2-5.4,16.2-16.2V527.2z"/>
			<path d="M476.2,536.9c10.2-6.5,23.7-9.7,40.4-9.7v24.3c-26.9,0-40.4,13.5-40.4,40.4v97H452V527.2h24.2V536.9z"/>
		</g>
	</g>
	<g>
		<g>
			<path d="M171.9,749.6c0-2.1-0.3-4.1-1-6c-0.7-1.9-1-4.2-1-6.9c0-1.4,0.2-2.8,0.5-4.2c0.3-1.4,0.8-2.7,1.5-4
				c0.7-1.3,1.7-2.4,2.8-3.3c1.2-0.9,2.6-1.7,4.4-2.2c0.8,0,2.2,0,4.2-0.1c2,0,4.1-0.1,6.3-0.1c2.2,0,4.3-0.1,6.3-0.1
				c2,0,3.4,0,4.2,0c6,0,10.8-0.1,14.3-0.3c3.5-0.2,6.3-0.3,8.3-0.3c2.1,0,3.6,0.2,4.5,0.5c0.9,0.4,1.8,1.1,2.6,2.2
				c0.8,1.1,1.8,2.7,2.9,4.7c1.1,2,2.8,4.7,5,8V791c-0.7,2.6-1.2,4.6-1.5,6.1c-0.3,1.4-0.4,2.9-0.4,4.3c0,2.9,0.3,5.2,1,7.1
				c0.7,1.8,1,3.8,1,5.7c0,0.4,0,0.9-0.1,1.5c0,0.6-0.1,1-0.1,1.1c-0.1,0.2-0.3,0.5-0.7,1.1c-0.4,0.5-0.8,1.1-1.2,1.7
				c-0.5,0.6-0.9,1.1-1.2,1.7c-0.4,0.5-0.5,0.9-0.5,1.1c-0.4,2.7-0.6,5.9-0.7,9.6c-0.1,3.7,0.1,7.4,0.6,11c0.5,3.7,1.5,7.2,3,10.4
				c1.5,3.3,3.6,5.8,6.3,7.6c0.6,0.1,1.7,0.2,3.3,0.4c1.6,0.2,3.2,0.4,5,0.6c1.8,0.2,3.4,0.4,5,0.5c1.6,0.1,2.7,0.2,3.3,0.2
				c0.9,0,2.2,0,3.9,0.1c1.7,0,3.7,0.1,5.9,0.1c2.2,0,4.6,0.1,7.2,0.1c2.6,0,5.1,0,7.7,0c2.6,0,5.2,0,7.7,0s5,0,7.2-0.1
				c2.2,0,4.2-0.1,5.9-0.1c1.7,0,3-0.1,3.9-0.1c3.2,1.2,5.8,3.1,7.7,5.9c1.9,2.8,3.4,5.8,4.5,9.2c1.1,3.3,1.8,6.6,2.2,9.8
				c0.4,3.2,0.5,5.8,0.5,7.7c0,3.4-0.4,6.7-1.1,9.9c-0.8,3.2-1.9,6-3.4,8.5c-1.5,2.5-3.3,4.4-5.5,5.9c-2.2,1.5-4.6,2.2-7.3,2.2
				c-1.4,0-2.8-0.2-4-0.6c-1.3-0.4-2.6-0.9-4.1-1.3c-1.5-0.5-3.2-0.9-5.1-1.3c-1.9-0.4-4.3-0.6-7.2-0.6c-2.9,0-6.3,0.2-10.2,0.6
				c-3.9,0.4-8.3,0.8-13.1,1.3c-4.8,0.4-10.1,0.9-15.9,1.3c-5.7,0.4-12,0.6-18.7,0.6c-2.6,0-4.8-0.2-6.7-0.5
				c-1.9-0.3-3.6-0.9-5.1-1.7c-1.5-0.8-3-2-4.3-3.4c-1.3-1.5-2.8-3.3-4.3-5.6l-0.4-0.1c-0.1-0.1-0.2-0.1-0.4-0.1
				c-0.3,0-0.5,0-0.5,0.1c-0.2,0-0.3,0-0.4,0.1l-5.5,7.4c-2.9,0.6-5.3,1.1-7.2,1.5c-1.9,0.4-4,0.8-6.1,1.1c-2.1,0.4-3.8,0.7-5.2,0.9
				l-0.4,0.1h-0.5c-1,0-2-0.3-3-0.7c-1-0.5-1.9-1.1-2.7-1.9c-0.8-0.8-1.5-1.6-2-2.6c-0.5-0.9-0.7-1.9-0.7-2.9c0-1.9,0.3-3.6,1-5.3
				c0.7-1.6,1-3.4,1-5.2c0-3.2-0.3-6.5-0.9-9.9c-0.6-3.4-1.2-6.8-2-10.3c-0.7-3.5-1.4-7-2-10.5c-0.6-3.5-0.9-7-0.9-10.5
				c0-0.5,0-1.5,0-2.8c0-1.3,0-2.7,0-4.2c0-1.5,0-2.9,0.1-4.2c0-1.3,0.1-2.2,0.1-2.8c0.9-1.1,1.4-2,1.6-2.6c0.2-0.7,0.3-1.6,0.3-2.8
				c0-0.2,0-0.5,0-1c0-0.5,0-0.8-0.1-0.9c-0.1-0.9-0.3-2.5-0.6-4.8c-0.3-2.3-0.7-4.7-1.1-7.2c-0.4-2.5-0.8-4.9-1.1-7.2
				c-0.4-2.3-0.6-3.9-0.8-4.8c0.4-2.6,1.2-4.6,2.2-5.9c1-1.3,2.8-2.4,5.2-3.2l1.8-11c-1,0.8-1.9,1.3-2.6,1.5
				c-0.8,0.2-1.7,0.3-2.9,0.3c-2.1,0-3.2-0.6-3.4-1.9c-0.2-1.3-0.3-2.8-0.3-4.6c0-1.5,0-3,0.1-4.4c0-1.4,0.7-2.7,2-4v-29.4
				c0.4-0.6,0.9-1.4,1.3-2.2C171.7,751.2,171.9,750.4,171.9,749.6z M181,754.2c0.4,1.1,1.1,1.7,2.4,2c1.2,0.3,2.3,0.4,3.2,0.4v-2.4
				H181z M188.3,862.6l1.9-1.8l-1.9-1.9V862.6z M208.5,893.9v-3.6h-1.7L208.5,893.9z M210.4,895.7c-0.3-0.1-0.5,0-0.6,0.2
				s-0.2,0.5-0.2,0.7c0,0.3,0.1,0.5,0.2,0.7s0.3,0.3,0.6,0.2c0.5-0.2,0.8-0.5,0.8-0.9S210.9,895.9,210.4,895.7z M214,776.3
				c0.1-0.3,0-0.5-0.2-0.6c-0.2-0.1-0.4-0.2-0.6-0.2c-0.7,0-1,0.3-0.9,0.8c0.2,0.5,0.5,0.8,0.9,0.8
				C213.7,777.1,213.9,776.8,214,776.3z M219.5,746.8v-1.8h-1.7v1.8H219.5z M282.2,893.9c0.4,0.7,1.2,1.6,2.2,2.7
				c1,1.1,2.1,1.6,3.3,1.6v-4.3H282.2z M296.8,914.2c0.4,0,0.8-0.2,1-0.6c0.2-0.4,0.3-0.8,0.3-1.3c0-0.4-0.1-0.9-0.3-1.3
				c-0.2-0.4-0.6-0.6-1-0.6c-0.4,0-0.8,0.2-1,0.6c-0.2,0.4-0.3,0.8-0.3,1.3c0,0.4,0.1,0.9,0.3,1.3C296,914,296.4,914.2,296.8,914.2z
				"/>
			<path d="M331.7,808.9c0-2.7-0.2-5.4-0.6-8c-0.4-2.6-0.8-5.3-1.3-8c-0.4-2.7-0.9-5.5-1.3-8.3c-0.4-2.9-0.6-5.9-0.6-9.2
				c0-2.9,0.2-5.2,0.5-7c0.3-1.8,0.6-3.7,0.9-5.7c0.3-2,0.5-4.5,0.7-7.4c0.2-2.9,0.1-6.9-0.1-12c1.8-1.2,3.3-2.9,4.6-5.1
				c1.3-2.2,2.6-4.5,3.9-6.7c1.3-2.2,2.9-4.2,4.8-5.9c1.8-1.7,4.2-2.5,6.9-2.5h27.6c4.1,0,7.4,1,9.9,2.9c2.5,1.9,4.3,4.2,5.6,6.9
				c1.3,2.7,2.1,5.5,2.5,8.3c0.4,2.9,0.6,5.3,0.6,7.1c0,3.7-0.4,6.6-1.2,8.8c-0.8,2.2-1.7,4-2.6,5.5c-0.9,1.4-1.8,2.7-2.6,3.8
				c-0.8,1.1-1.2,2.3-1.2,3.8c0,1.1,0.2,2,0.7,2.8c0.5,0.8,1.1,1.6,1.7,2.3c0.6,0.7,1.3,1.4,1.9,2.2c0.6,0.7,1.1,1.6,1.3,2.6
				c-0.3,6.2-0.3,11.2-0.1,15c0.2,3.8,0.4,7.2,0.7,10.2c0.3,3,0.6,6,0.9,8.9c0.3,2.9,0.5,6.5,0.5,10.8c0,4-0.1,8.1-0.4,12.1
				c-0.3,4-0.5,8.1-0.8,12.1c-0.3,4-0.5,8.1-0.7,12.2c-0.2,4.1-0.2,8.2,0,12.3c-0.5,0.2-1.1,0.7-2.1,1.7c-0.9,0.9-1.5,1.6-1.5,2.1
				c0,0.1,0.1,0.4,0.3,0.9c0.2,0.5,0.4,1.1,0.6,1.8c0.2,0.6,0.4,1.2,0.6,1.7c0.2,0.5,0.3,0.9,0.3,1.1c0.1,0.6,0.2,1.8,0.2,3.6
				c0,1.8,0.1,3.6,0.1,5.6c0,2,0,3.8-0.1,5.5c0,1.7-0.1,2.9-0.2,3.6c0.4-0.1,0.8-0.1,1.3-0.1c0.7,0,1.3,0.2,1.6,0.6
				c0.4,0.4,0.6,0.9,0.7,1.4c0.1,0.5,0.2,1.1,0.2,1.7c0,0.6,0,1.2,0,1.6c0,2.5-0.4,4.6-1.3,6.4c-0.9,1.7-2.3,3.4-4.4,4.9
				c-1-0.1-2-0.1-3-0.1c-1,0-2.1,0-3.2,0c-4.6,0-9.2,0.2-13.7,0.6c-4.6,0.4-9,0.9-13.2,1.4c-0.2,0.9-0.6,1.5-1.3,1.7
				c-0.7,0.2-1.4,0.3-2.2,0.3c-0.4,0-0.7,0-1-0.1c-0.3,0-0.6-0.1-0.7-0.1h-2.4c-1.7,0-3.5-0.1-5.3-0.2c-1.8-0.1-3.5-0.4-5.2-0.9
				c-1.7-0.5-3.1-1.2-4.4-2.2c-1.3-1-2.4-2.4-3.2-4.1c0.2-7.5,0.2-14.6,0-21.3c-0.2-6.6-0.4-13-0.7-19c-0.3-6-0.6-11.7-0.9-17
				c-0.3-5.3-0.4-10.4-0.4-15.2c0-4.2,0.1-7.9,0.3-11.2c0.2-3.2,0.4-6.1,0.7-8.7c0.2-2.6,0.4-4.9,0.7-6.9
				C331.6,812.9,331.7,810.9,331.7,808.9z M340.9,759.7c0.1,0.2,0.4,0.5,0.9,0.9c0.5,0.4,0.8,0.7,1,0.8c0,0.1,0.1,0.1,0.3,0.1
				c0.2,0,0.4,0,0.5,0c0.1,0,0.2,0,0.5,0c0.2,0,0.4,0,0.5-0.1c-0.2-0.4-0.5-0.9-1.1-1.3c-0.5-0.4-1.1-0.6-1.6-0.6
				c-0.1,0-0.2,0-0.5,0.1C341.1,759.7,340.9,759.7,340.9,759.7z M355.5,770.8l-3.6-1.9v1.9H355.5z M366.6,844.3
				c0.1-1-0.1-1.8-0.5-2.4c-0.4-0.6-0.9-1.1-1.5-1.5c-0.6-0.4-1.3-0.7-2-0.8c-0.7-0.1-1.4-0.2-2.2-0.2c0,2.1,0.6,3.4,1.8,4
				C363.4,844,364.9,844.3,366.6,844.3z M373,818.5c-0.1,0-0.2,0-0.5,0c-0.2,0-0.4,0-0.5,0.1v3.6h4.2c0-0.9-0.3-1.8-0.9-2.6
				C374.8,818.9,374,818.5,373,818.5z M377.5,875.4c0,0.5,0,1.1,0.1,1.8c0,0.6,0.2,1.3,0.4,1.9c0.2,0.6,0.5,1.1,0.9,1.6
				c0.4,0.4,0.9,0.6,1.5,0.6c1.1,0,1.8-0.4,2.3-1.1c0.4-0.8,0.7-1.6,0.7-2.6c0-0.4,0-1-0.1-1.7c0-0.7-0.2-1.3-0.4-1.9
				c-0.2-0.6-0.5-1.1-0.9-1.5c-0.4-0.4-0.9-0.6-1.5-0.6c-1.1,0-1.8,0.4-2.3,1.1C377.7,873.7,377.5,874.5,377.5,875.4z M379.5,857.1
				c-0.4,0-0.8,0.2-1,0.6c-0.2,0.4-0.3,0.8-0.3,1.3s0.1,0.9,0.3,1.3c0.2,0.4,0.6,0.6,1,0.6c0.4,0,0.8-0.2,1-0.6
				c0.2-0.4,0.3-0.8,0.3-1.3s-0.1-0.9-0.3-1.3C380.3,857.3,380,857.1,379.5,857.1z"/>
			<path d="M418.6,831.2c0-6,0.2-11.1,0.6-15.2c0.4-4.1,0.9-7.8,1.4-10.9c0.5-3.1,1-6,1.4-8.6c0.4-2.6,0.6-5.3,0.6-8.2
				c0-4.3-0.4-9.1-1.1-14.4c-0.7-5.3-1.1-10.9-1.1-17c0-0.6,0-1.8,0-3.4c0-1.7,0-3.4,0.1-5.3c0-1.8,0.1-3.6,0.1-5.2
				c0-1.7,0-2.8,0-3.4c0.5-0.6,1.7-1.8,3.4-3.6c1.7-1.8,3.5-3.7,5.5-5.6c1.9-1.9,3.8-3.6,5.7-5.1c1.8-1.5,3.2-2.2,4-2.2
				c0.3,0,0.9,0.1,2,0.3c1.1,0.2,2.2,0.4,3.4,0.6c1.2,0.2,2.4,0.4,3.5,0.6c1.1,0.2,1.8,0.3,2.1,0.3c0.1,0,0.6,0,1.5,0.1
				c0.9,0,2.1,0.1,3.4,0.1c1.3,0,2.6,0,3.8,0c1.3,0,2.3,0,3.1,0c0.4,0,1.3,0,2.4,0c1.2,0,2.4,0,3.6,0c1.3,0,2.4,0,3.6-0.1
				c1.1,0,1.9-0.1,2.4-0.1c1.1-1,2.1-1.6,3.2-1.7c1-0.2,2.2-0.3,3.4-0.3c1.8,0,3.7,0.3,5.8,0.9c2.1,0.6,4.2,1.3,6.4,2
				c2.2,0.8,4.4,1.4,6.7,2c2.3,0.6,4.6,0.9,6.8,0.9c0.8,0,1.7-0.3,2.8-0.9c1.1-0.6,2.3-1.2,3.6-2c1.3-0.7,2.9-1.4,4.6-2
				c1.7-0.6,3.6-0.9,5.7-0.9c2.7,0,5.9,0.5,9.6,1.5c3.7,1,7.3,2.1,10.9,3.3c3.6,1.2,6.8,2.4,9.7,3.5c2.9,1.1,4.8,1.9,5.7,2.2
				c3.5,1.2,7,3.6,10.4,7.2c3.4,3.6,6.7,7.9,9.8,12.9c3.1,4.9,6,10.3,8.7,16.2c2.6,5.8,5,11.6,6.9,17.3c2,5.7,3.5,11.1,4.6,16.1
				c1.1,5,1.7,9.2,1.7,12.7c0,3.2-0.5,7-1.4,11.2c-0.9,4.3-2,8.9-3.1,13.9c-1.1,5-2.2,10.2-3.2,15.8c-1,5.5-1.5,11.2-1.6,17.2
				c-0.2,0.3-0.5,0.7-1,1.2c-0.5,0.5-1,1.1-1.6,1.7c-0.6,0.6-1.1,1.1-1.7,1.6c-0.5,0.5-0.9,0.8-1.2,1c-1.9,1.3-4,3.2-6.5,5.9
				c-2.4,2.6-5,5.6-7.8,8.9c-2.8,3.3-5.7,6.7-8.7,10.2c-3,3.5-6.1,6.7-9.2,9.5c-3.1,2.8-6.3,5.2-9.4,7c-3.1,1.8-6.1,2.8-9,2.8
				c-1.7,0-3.2-0.3-4.4-0.9c-1.2-0.6-2.4-1.2-3.4-2c-1.1-0.7-2.2-1.4-3.2-2c-1.1-0.6-2.4-0.9-3.9-0.9s-3,0.3-4.3,0.9
				c-1.3,0.6-3,1.3-4.9,2c-1.9,0.8-4.3,1.4-7.1,2c-2.8,0.6-6.3,0.9-10.6,0.9c-2.5,0-5.3,0.1-8.5,0.2c-3.1,0.1-6.6,0.2-10.4,0.2
				c-4.4,0-9-0.2-13.9-0.7c-4.8-0.4-9.6-1.4-14.3-2.9c-4.7-1.5-9.1-3.6-13.3-6.3c-4.2-2.7-7.8-6.4-11-10.8
				c-0.6-7.2-1.2-14.4-1.7-21.5c-0.5-7.2-0.9-14-1.3-20.3c-0.4-6.4-0.6-12.2-0.7-17.4C418.6,838.7,418.6,834.5,418.6,831.2z
				 M439,899.4h-1.9v1.9h1.9V899.4z M444.4,894.8c0,0.1,0,0.2,0,0.5c0,0.2,0,0.4,0.1,0.5l7.3-7.4c-0.2,0-0.5,0-0.9-0.1
				c-0.4-0.1-0.7-0.1-0.9-0.1c-1.7,0-3.1,0.7-4.1,2.2C444.9,891.8,444.4,893.3,444.4,894.8z M455.4,779.9v-1.9l-1.7,1.9H455.4z
				 M468.4,849.8v1.7h5.5v-1.7H468.4z M470.3,745.1v1.8l1.7-1.8H470.3z M484.9,778.1v29.5c-0.3,0.1-0.6,0.4-0.9,0.9
				c-0.4,0.5-0.7,1.1-1.1,1.7c-0.4,0.6-0.8,1.2-1.1,1.7c-0.3,0.5-0.5,0.9-0.5,1.2c0,0.2,0.1,0.6,0.3,1.3c0.2,0.7,0.4,1.5,0.6,2.3
				c0.2,0.8,0.4,1.6,0.6,2.3c0.2,0.7,0.3,1.2,0.3,1.3c0.1,1,0.2,2.7,0.5,5.1c0.2,2.4,0.4,5,0.6,7.7c0.2,2.7,0.4,5.3,0.5,7.7
				c0.2,2.4,0.3,4.1,0.3,5.1c0.3,1.1,0.8,2.2,1.5,3.5c0.7,1.3,1.6,2.5,2.6,3.6c1,1.2,2,2.1,3,2.9c1,0.8,2,1.1,2.9,1.1
				c6.6,0,11.8-0.6,15.5-1.8s6.5-2.7,8.3-4.6c1.9-1.8,3.1-3.8,3.6-5.9c0.5-2.1,0.9-4,1.1-5.7c0.8-5.5,1.6-10.1,2.5-13.9
				c0.9-3.8,1.7-7,2.4-9.8c0.8-2.8,1.4-5.3,1.9-7.5c0.5-2.2,0.7-4.4,0.7-6.7c0-0.4,0-1.1,0-1.8c0-0.8,0-1.2-0.1-1.3l-20.2-20.2
				H484.9z M481.3,868.1h1.7v-1.7h-1.7V868.1z M521.7,881.1c-0.2-0.2-0.5-0.4-1.1-0.5c-0.5-0.2-1.1-0.4-1.7-0.5
				c-0.6-0.2-1.1-0.4-1.6-0.5c-0.5-0.2-0.9-0.3-1.1-0.3v1.9c0.1,0.3,0.3,0.7,0.6,1.1c0.3,0.5,0.7,1,1.1,1.6c0.4,0.6,0.8,1.1,1.1,1.7
				c0.4,0.5,0.6,0.9,0.8,1.1c0.2-0.3,0.5-0.9,1-1.8c0.5-0.9,0.8-1.5,0.9-1.8c0-0.1,0-0.3,0.1-0.5c0-0.3,0.1-0.4,0.1-0.5v-0.5
				C521.7,881.3,521.7,881.2,521.7,881.1z M527.2,904.9c-0.3-0.1-0.5,0-0.6,0.2c-0.1,0.2-0.2,0.5-0.2,0.7c0,0.3,0.1,0.5,0.2,0.7
				c0.1,0.2,0.3,0.3,0.6,0.2c0.5-0.2,0.8-0.5,0.8-0.9S527.8,905.1,527.2,904.9z M536,796.5c0,1.7,0.8,2.9,2.3,3.6v-3.6H536z
				 M536.4,770.8c0.1,0.3,0.4,0.9,0.8,1.9c0.4,1,0.8,1.6,1.1,1.7h0.4c0.1,0,0.1,0,0.1,0.1c0,0,0,0.1,0.1,0.1h0.1
				c1,0,1.8-0.4,2.4-1.2c0.6-0.8,0.9-1.7,0.9-2.6H536.4z M536.4,870.6c0.9,0,2-0.1,3.2-0.3c1.2-0.2,2-0.9,2.4-2.1
				c-0.6-0.9-1.5-1.6-2.5-2.2c-1-0.6-2-1.1-3-1.4V870.6z M549.3,824.1c-0.5,0-0.8,0.2-1,0.5c-0.2,0.4-0.3,0.8-0.3,1.3
				c0,0.5,0.1,0.9,0.3,1.3c0.2,0.4,0.6,0.5,1,0.5c0.4,0,0.8-0.2,1-0.5s0.3-0.8,0.3-1.3c0-0.5-0.1-0.9-0.3-1.3
				S549.7,824.1,549.3,824.1z"/>
		</g>
	</g>
	<g>
		<path d="M646.3,514.9c0-8.4-0.5-15.1,0.1-21.7c1-10.8-2.2-16.1-12.1-19.9c-53.3-20.4-75.1-55.7-74.9-117.9c0.1-37.9,0-75.8,0-115
			c119.6,0,237.5,0,356.6,0c0,50.3,3.1,100.4-1,149.7c-3.2,38.6-29.3,62.6-60.1,78.3c-7.5,3.8-15.5,6.4-24,9.9c0,11.9,0,23.7,0,36.5
			c10.4,3.2,20.9,5.5,30.7,9.7c15,6.3,30.4,12.1,44,21.1c33.7,22.2,34.9,55.2,0,74.4c-29.9,16.4-63.1,27.7-96,34
			c-66.9,12.9-134.1,9.1-199.4-13.5c-17.3-6-34.4-15.5-49-27.4c-21.8-17.6-22.2-42.6,0.1-59.4c18.4-13.8,40.2-22,60.8-31.9
			C629.2,518.5,637,517.5,646.3,514.9z M754.7,532.4c-27.3,1.8-51.2,1.8-74.6,5.5c-21,3.3-42,8.9-61.8,17.2
			c-8.3,3.4-17.9,15.8-18.6,24.9c-0.6,7.3,10.3,17.4,17.9,23.5c6.4,5.2,15.2,7.3,23.2,9.4c56.2,14.5,112.9,15.5,169.7,5.5
			c15.1-2.7,30.7-6.2,44.3-13.5c9.4-5,22-17.5,21.7-26.1c-0.3-9.1-13.5-18.8-22.5-26c-6-4.8-14.3-6.7-21.8-8
			C805.4,540,778.4,536.1,754.7,532.4z"/>
		<path d="M551.3,619.3c77.9,73.8,305.4,69.3,372.2,4.1c-2.7,6.6-4.4,14-8.2,19.7c-26,38.7-52.1,77.4-79.2,115.1
			c-6.5,9-10.3,15.8-8.4,27.9c4.9,31.5,7.8,63.3,12.7,94.8c1.8,11.9-2,18.8-11,21.1c-24.7,6.4-49.7,16.2-74.5,16
			c-34.6-0.3-69.2-7.7-103.6-13.7c-12.4-2.2-17.5-11.8-14.6-28.1c5.4-30,8.9-60.5,11.4-90.9c0.7-8.3-2.9-18.7-7.5-25.6
			c-25.2-37.7-51.6-74.4-77.1-111.9C558.8,640.5,556.4,631.4,551.3,619.3z"/>
		<path d="M704.6,188.2c8-31.8,30.3-14,45.9-17.7c10.3-2.4,22-2.2,18.7,17.7c45.3,0,88.6,0,132,0c5.3,0,11.8-2,15.8,0.7
			c5.6,3.8,13.4,11.4,13,16.6c-0.6,6.8-7.6,17.1-13.1,18.3c-12.6,2.8-26,1-39.1,1c-100.5,0-201,0-301.4,0c-4.8,0-9.5,0-14.3-0.1
			c-10.8-0.2-16.5-6-16.4-18.5c0-12.6,6-18,16.7-18c36.9,0,73.7,0,110.6,0C683.6,188.2,694.2,188.2,704.6,188.2z"/>
		<path d="M613,578.8c34.5-39.2,213.1-39.6,251.5,0.5c-9.1,11.8-19.8,17.3-33.9,14.2c-61.3-13.8-122.7-13.7-184.1-0.2
			C632.5,596.4,623.5,592.4,613,578.8z"/>
	</g>
</g>
</svg>
