<?xml version="1.0" encoding="utf-8"?>
<!-- Generator: Adobe Illustrator 22.0.0, SVG Export Plug-In . SVG Version: 6.00 Build 0)  -->
<svg version="1.1" id="Layer_1" xmlns="http://www.w3.org/2000/svg" xmlns:xlink="http://www.w3.org/1999/xlink" x="0px" y="0px"
	 viewBox="0 0 1080 1080" style="enable-background:new 0 0 1080 1080;" xml:space="preserve">
<g>
	<path d="M310,883.6c-24.2-14.4-40-18.3-48.7,8.3c-2.8,8.6-6,18.4-18.9,25.5c-1.6,0.9-5.3-0.7-8.4-3.7
		c-31.9-30.8-19.8-110.4-0.3-115c7.7-1.8,18.2,10.3,19.7,27.5c1,11.3,4.8,18.6,18.2,19.3c13.2,0.6,26.7,1.8,34.6-6.7
		c14.5-15.4-2.2-56.3-16.8-72.7c-33.2-37.4-91.5-35.7-118.1,15.8c-35.8,69.3-9.5,194.4,69.7,194.4c27.2,0,59.4-18.5,76.5-67.7
		C321.2,898.1,320.6,889.9,310,883.6z M183.8,905.7c-19-53.5-6.1-146,50.6-146c27.1,0,53.6,22.8,57.7,60c0.7,6.5,2.5,7.1-19,6
		c-6-62.6-78-72.3-78,30.2c0,28.3,5.1,52.2,25.4,71.7c23.4,22.5,49.3,1.2,59.5-29.8c0.7-2,1.5-4.6,2.2-6c1.8,0.3,6.6,1.7,17.6,8.3
		C271.7,980.8,205.7,967.4,183.8,905.7z"/>
	<path d="M479,850.1c14.1,0,82.7-18,68.6-40.5c-25.4-40.6-67.2-24.2-79.2,26.4C466.5,844,471.9,850.1,479,850.1z M527.2,814.7
		c-6,3.9-18.6,9.8-35.8,13.6C499.4,809.2,513.1,797.7,527.2,814.7z"/>
	<path d="M579.8,902.5c-0.2-0.1-17.2-13.9-27.2-16.4c-10.7-2.7-16.8,2.5-22.5,11.1c-13.2,19.8-27.1,14.8-37-4.9
		c58.5-8.2,99.3-43.9,104.5-69.4c2.8-13.8-17.4-46.1-32.7-59.5c-56.5-49.3-141.9-4.2-142.5,95c-0.6,34.6,10.8,63.8,28.5,84.1
		c-11.4-4.3-32.3-2.3-66.5-2.6c-3.7-207.1,10-222.9-20.2-226.3c-17-1.9-33.7-2.5-40.8,7.8c-4.1,6-2.5-10.8-1.8,218.4
		c-9,1.7-14.8,7.7-15.6,17.8c-1.5,19.9-1.2,44.7,21.2,44.9c96.4,0.8,113.4,1.1,113.7,1.1c6.9,0,17.6-2.3,19.9-16.3
		c1.6-9.9,2-19.6,1-28.8c-0.2-2.4-0.7-4.5-1.3-6.3c35.6,30.9,88.3,30.5,123.7-22.3C591,920.2,589.3,910.2,579.8,902.5z M441.7,984
		c-0.1,0-114.8-1.2-114.9-1.2c-2.9-3.8-1.5-19.2-1.2-23.9c1.6-0.2,15.1,3.5,15.6-13.9c0.8-30.5-1.6-212.2-1.6-212.3
		c6.6-1.1,20.9-0.3,24.1,0.5c1.3,5,0.6,179.4,1,205.9c0.2,10.6,0.3,16,5.7,19.3c4,2.4,61.7-0.1,72,1.8
		C443.3,967,443.2,975.2,441.7,984z M568.2,919c-34.2,51.1-84.4,40.3-110,0.3c-36.8-57.5-8.2-156.6,55.4-156.6
		c40.2,0,62.4,43.8,64.7,57c-1.4,5-7.4,15.4-22.2,26.8c-11.6,8.9-31.5,20.5-61.1,25.6c-14.6,2.5-19.4,0.4-23.4,6.4
		c-2.9,4.2-1.5,8.6-1,10c14,43.3,51.4,56.4,76.5,18.6c0.4-0.6,0.9-1.3,1.3-1.9C552.3,906.7,569.1,917.6,568.2,919z"/>
	<path d="M674.2,822.9c-2.3-0.9-4.8-1-7.2-0.1c-6.4,2.4-4.5,0.9-27.1,73.4c-2,6.3,2.8,12.7,9.4,12.7c0.9,0,23.7-0.8,29.7-1.2
		c4.4,0.2,7-2,8.3-3.3c4.4-4.8,3.1-9.1-0.9-35.2C680,828.7,681.3,825.7,674.2,822.9z M662.7,888.9c1.7-5.4,3.2-10.2,4.5-14.5
		c0.9,5.9,1.7,10.6,2.2,14.3C667.3,888.7,665,888.8,662.7,888.9z"/>
	<path d="M888.7,730.3c-48.6-1.8-40.9,6.5-42.9,81c-44.1-103.2-40.6-93.8-107.5-95.6c-21.7-0.6-34.6-1.1-38.8,16
		c-4.1-3.1-9.2-3.8-14.7-5.8c-10.7-3.9-12-3-17.6-3.3c-19-1.2-15.9,6.1-86.5,232.8c-3.2,10.2,0.7,18.6,10.8,23
		c42.5,18.6,42.2,3.9,52.7-30.2c4-0.2,12.5-0.6,34-1.4c4.4,29.6,2.4,46.9,23.8,46.9c13.5,0,26.7-1.6,33.7-8.1c3.8,16,9.5,15,21.8,15
		c19.7,0,38.6-3.2,39.4-22.8c0.5-13.7-3.7-46.2-11-147.5c31.9,80.8,44.5,88.2,56.1,147.4c3.5,17.9,18.2,15.6,32.5,16.2
		c17.3,0.8,29.6-2.8,30.1-20.3c2.5-87.9,5.3-201.8,5.4-203.5C910.8,745.1,912.9,731.2,888.7,730.3z M702,974.2
		c-8.4-55.4,1.3-48.2-56.2-45.6c-22.6,1-14.4,1.2-27.9,38.3c-2.1-0.2-7-1.4-18.2-6.3c46.7-150.1,62.9-206.1,68.7-218.4
		c6.7-0.1,9,2.6,18.7,4.9c0.8,2.3-2.3-17,34.2,225C718,973.1,704.3,974.2,702,974.2z M711.7,778.3c1.2,0.4,2.5,0.6,3.9,0.8
		c4.6,0.5,3.3-1.6,4.1,8c2.3,31.1,4.2,57.7,5.7,80.4C720.6,835.9,715.6,802.9,711.7,778.3z M875.5,974.5c-6.1-0.3-11.4-0.2-14.2-0.5
		c-12.4-62.8-26-71.1-58.8-154.8c-5.1-13-13.3-31.9-19.1-42.5c-8.3-15.3-21.4-7.7-20.8,1.7c9.4,142.1,15.6,189.2,14.6,200
		c-5.1,2.7-17,2.9-22.8,2.8c-2.7-13.2-15.9-204.4-15.9-204.5c-0.5-9.7-2.4-19-15.3-17.1c-0.7,0.1-5.1,0.7-5.2,0
		c-0.8-9.3-0.3-17.7,0.8-23.9c5-1,20.2,0.1,40.6,0.2c32.5,0.1,31.5-2.6,65.9,78c18.4,43.1,20.4,53.3,31.3,50.6c10-2.4,7.2-7,9-67.5
		c1.4-50.1,0-45.8,3-46.7c5.5-1.7,8.3-0.6,19.1-0.2c4,0.2,4.1-19.1-2.8,223.3C885.1,974.4,886.2,975,875.5,974.5z"/>
	<path d="M411.8,274.8c17.8,9.3,37.1,14,58.1,14c20.1,0,36.1-7.8,47.9-23.5c11.4-15.7,17.1-32.6,17.1-50.8c0-22.2-8.7-38-26-47.3
		c-3.8-2.1-6.8-3.6-8.9-4.4l-26.7-8.6c-6.3-2.5-11-4.5-14-6c-2.1-1.3-4-3.1-5.7-5.4c-1.3-1.9-1.9-3.6-1.9-5.1c0-2.3,1.1-4.5,3.2-6.7
		c2.5-2.5,5.6-4.1,9.2-4.8c4.2-0.8,7.3-1.3,9.2-1.3c3,0,6.2,0.5,9.8,1.6c12.7,4.2,23.7,10.7,33,19.4l4.1,3.5
		c0.4-0.2,0.8-0.4,1.1-0.5c0.3-0.1,0.5-0.3,0.5-0.5c10.2-20.7,17.7-36.3,22.5-46.7c-0.2-1.7-0.8-3-1.7-4c-1-1-2.4-2.2-4.3-3.7
		c-8.5-5.9-14.8-10.3-19-13c-10.2-6.6-20.2-11.1-30.2-13.6c-5.7-1.7-11.2-2.5-16.5-2.5c-5.1,0-9.8,0.7-14.3,2.2
		c-20.5,6.3-35.9,18.2-46,35.5c-2.8,4.7-5.5,11.6-8.3,20.9c-1.9,6.6-2.9,13.3-2.9,20.3c0,4.7,0.5,9.8,1.6,15.6
		c1.5,7.6,4,13.8,7.6,18.4c8,10.2,17.6,16.8,28.6,20c4.7,1.5,7.7,2.3,9.2,2.5l14.9,3.8c4.7,1.1,8.5,3.4,11.4,7
		c1.7,2.3,2.5,4.6,2.5,6.7c0,3.6-1.7,6.3-5.1,8.3c-2.8,1.7-5.4,2.5-7.9,2.5l-2.2-0.3c-8-0.8-13.9-1.9-17.5-3.2
		c-9.7-2.7-19.2-7.1-28.2-13c-0.6-0.6-1.7-1.2-3.2-1.6c-1.9,0.2-3.3,1.5-4.1,3.8l-14.6,46c-0.2,0.4-0.1,1.3,0.3,2.5
		C399.3,267.3,405,271.2,411.8,274.8z M512.9,107.8c1.2-1.9,3-2.9,5.6-2.9c1.7,0,3.2,0.6,4.4,1.7c1.3,1.2,1.9,2.7,1.9,4.6
		c0,3-1.4,5-4.1,6c-0.8,0.6-2,0.7-3.5,0.3c-2.3-0.4-3.9-1.7-4.8-3.8C511.6,111.8,511.7,109.7,512.9,107.8z M490.8,90.7
		c1.1-2.5,3-3.8,5.7-3.8l2.5,0.6c2.7,1.1,4.1,3,4.1,5.7c0,0.4-0.2,1.3-0.6,2.5c-1.3,2.5-3.3,3.8-6,3.8h-1l-1.3-0.3
		c-2.8-1.5-4.1-3.5-4.1-6C490.2,92.8,490.4,92,490.8,90.7z M464.2,83.6c1.3-1.2,2.7-1.7,4.4-1.7c1.7,0,3.2,0.6,4.4,1.9
		s1.9,2.8,1.9,4.4c0,1.7-0.6,3.1-1.7,4.3c-1.2,1.2-2.5,1.9-4,2.1h-1.6c-1.7-0.4-3-1.2-4-2.4c-1-1.2-1.4-2.5-1.4-4
		C462.3,86.3,462.9,84.7,464.2,83.6z M430.2,158.6c-1.3,0.4-2.4,0.5-3.5,0.3c-2.3-0.4-3.9-1.7-4.8-3.8c-0.6-1.7-0.6-3.3,0.2-4.9
		c0.7-1.6,1.8-2.7,3.3-3.3l2.5-0.6c1.7,0,3.1,0.6,4.3,1.7c1.2,1.2,1.7,2.7,1.7,4.6C434,155.6,432.8,157.6,430.2,158.6z M434.7,126.6
		c-0.4,1.3-1.3,2.3-2.5,3.2c-1.3,0.8-2.5,1.3-3.8,1.3h-0.6l-1-0.3c-1.5-0.2-2.6-1-3.5-2.2c-0.8-1.3-1.3-2.6-1.3-4.1
		c0-0.6,0.1-1.2,0.3-1.6c0.4-1.5,1.2-2.6,2.4-3.3c1.2-0.7,2.4-1.1,3.6-1.1c1.1,0,1.8,0.1,2.2,0.3c1.3,0.4,2.3,1.2,3.2,2.2
		c0.8,1.1,1.3,2.3,1.3,3.8C435,125.5,434.9,126.2,434.7,126.6z M438.5,104.7c-1.3-1.3-1.9-2.7-1.9-4.4c0-1.7,0.7-3.3,2.2-4.8
		c1.3-1.3,2.6-1.9,4.1-1.9c1.7,0,3.3,0.7,4.8,2.2c1.3,0.8,1.9,2.3,1.9,4.4c0,1.7-0.6,3.2-1.9,4.4c-1.3,1.3-3.1,1.9-5.4,1.9
		C440.6,106.2,439.3,105.5,438.5,104.7z M454.3,174.2c-0.6,1.1-1.5,2-2.7,2.7c-1.2,0.7-2.3,1.1-3.3,1.1h-0.6l-1.9-0.6
		c-2.3-1.3-3.5-3.2-3.5-5.7c0-0.6,0.2-1.6,0.6-2.9c1.1-2.5,3-3.8,5.7-3.8c0.6,0,1.6,0.2,2.9,0.6c2.3,1.3,3.5,3.2,3.5,5.7
		C455,172,454.8,172.9,454.3,174.2z M510.5,214.8h0.6c1.9,0,3.4,0.6,4.6,1.9c1.2,1.3,1.7,2.8,1.7,4.4c0,1.9-0.6,3.4-1.9,4.6
		c-1.3,1.2-2.9,1.7-4.8,1.7h-0.6c-1.5-0.4-2.8-1.2-3.8-2.2c-1.1-1.1-1.6-2.3-1.6-3.8v-0.6c0-1.7,0.6-3.1,1.7-4.3
		C507.7,215.4,509,214.8,510.5,214.8z M495.9,191.3c1.3-1.5,2.9-2.2,4.8-2.2c1.5,0,3,0.5,4.4,1.6c1.5,1.5,2.2,3.1,2.2,4.8
		c0,1.7-0.6,3.2-1.9,4.4c-1.3,1.3-2.9,1.9-4.8,1.9h-1c-1.5-0.4-2.5-1-3.2-1.6c-1.5-1.3-2.2-2.9-2.2-4.8
		C494.3,194.2,494.9,192.8,495.9,191.3z M495,241.8c1.3-1.3,2.7-1.9,4.4-1.9c1.7,0,3.3,0.7,4.8,2.2c1.1,1.5,1.6,3,1.6,4.4
		c0,1.7-0.6,3.2-1.9,4.4s-3.1,1.9-5.4,1.9c-1.7-0.4-3-1.2-3.8-2.2c-1.1-1.5-1.6-3-1.6-4.4C493.1,244.5,493.7,243,495,241.8z
		 M475.9,188.1h-1.3c-0.6,0-1.1-0.1-1.3-0.3c-2.8-1.1-4.1-3-4.1-5.7c0-1.1,0.1-1.9,0.3-2.5c0.4-1.3,1.2-2.3,2.4-3
		c1.2-0.7,2.4-1.1,3.6-1.1c1.1,0,1.8,0.1,2.2,0.3c1.3,0.4,2.3,1.3,3,2.5c0.7,1.3,1.1,2.5,1.1,3.8c0,0.8-0.1,1.5-0.3,1.9
		c-0.4,1.3-1.2,2.3-2.4,3C478.1,187.8,477,188.1,475.9,188.1z M469.1,256.2c1.4-1.8,3-2.7,4.9-2.7c1.9,0,3.5,0.6,4.8,1.7
		c1.3,1.2,1.9,2.7,1.9,4.6c0,1.5-0.4,2.9-1.3,4.1c-0.9,1.3-2,2-3.5,2.2c-0.6,0.4-1.5,0.4-2.5,0c-2.8-0.4-4.4-1.9-5.1-4.4
		C467.5,259.9,467.7,258,469.1,256.2z M439.4,261.1c0.2-1.5,1-2.7,2.2-3.8c1.3-1.1,2.7-1.6,4.4-1.6h0.6c1.7,0.4,3,1.2,4,2.4
		c1,1.2,1.4,2.5,1.4,4v1c-0.4,1.7-1.2,3-2.4,4c-1.2,1-2.5,1.4-4,1.4h-1c-1.7-0.4-3-1.2-4-2.4c-0.9-1.2-1.4-2.5-1.4-4V261.1z
		 M415.6,245.9c1.5-1.5,3.1-2.2,4.8-2.2c1.5,0,2.9,0.6,4.1,1.9c1.3,1.3,1.9,2.9,1.9,4.8c0,1.5-0.5,3-1.6,4.4
		c-1.5,1.3-3.4,1.9-5.7,1.9c-1.5-0.4-2.6-1.1-3.5-1.9c-1.3-1.3-1.9-2.7-1.9-4.4C413.7,248.7,414.4,247.2,415.6,245.9z"/>
	<path d="M584.2,271.9c15.4,13.1,33.2,19.7,53.3,19.7c17.1,0,33.5-5.4,49.2-16.2c12.9-9.5,23.4-21.5,31.4-35.9
		c8.3-15,13.2-31.5,14.9-49.5c0.4-5.9,0.6-10.3,0.6-13c0-20.1-5-39.5-14.9-58.1c-7.6-14.6-17.9-26-30.8-34.3
		c-14.2-9.3-29.2-14-45.1-14c-10.8,0-21.7,2.2-32.7,6.7c-14.8,5.9-27.5,15.8-38.1,29.5c-17.4,22.2-26,48.9-26,80
		c0,9.9,1.3,19.7,3.8,29.2C555.8,239.6,567.2,258.2,584.2,271.9z M580.3,215.8c-0.4,0.2-1,0.3-1.6,0.3c-1.5,0-2.8-0.5-4-1.4
		c-1.2-1-2-2.2-2.4-3.6c-0.2-1.7,0.2-3.3,1.1-4.8c1-1.5,2.3-2.4,4-2.9c1.7-0.4,3.3-0.2,4.8,0.8c1.5,1,2.4,2.3,2.9,4
		c0.2,1.7-0.1,3.3-1,4.8C583.3,214.4,582,215.3,580.3,215.8z M594.9,240.8c-0.8,0.8-2.1,1.3-3.8,1.3c-2.1,0-3.8-0.7-5.1-2.2
		c-0.8-1.1-1.3-2.3-1.3-3.8c0-2.3,0.8-4.1,2.5-5.4c1.3-0.8,2.5-1.3,3.8-1.3c2.1,0,3.8,0.8,5.1,2.5c0.8,1.1,1.3,2.3,1.3,3.8
		C597.5,237.9,596.6,239.6,594.9,240.8z M619.4,257c-1.3,2.3-3.2,3.5-5.7,3.5c-0.6,0-1.6-0.2-2.9-0.6c-2.3-1.3-3.5-3.2-3.5-5.7
		c0-0.6,0.2-1.6,0.6-2.9c1.3-2.3,3.2-3.5,5.7-3.5c0.6,0,1.6,0.2,2.9,0.6c2.3,1.3,3.5,3.2,3.5,5.7C620,254.8,619.8,255.7,619.4,257z
		 M646.5,264.2c-1.2,1.2-2.5,1.9-4,2.1h-0.6c-1.7,0-3.2-0.6-4.4-1.7c-1.3-1.2-1.9-2.7-1.9-4.6c0-1.7,0.6-3.2,1.9-4.4
		c1.3-1.3,2.7-1.9,4.4-1.9c1.7,0,3.2,0.6,4.4,1.9c1.3,1.3,1.9,2.8,1.9,4.4C648.3,261.6,647.7,263,646.5,264.2z M710.5,206.9
		c-0.4,1.5-1.2,2.6-2.4,3.3c-1.2,0.7-2.4,1.1-3.6,1.1c-0.8,0-1.5-0.1-1.9-0.3c-1.5-0.4-2.6-1.2-3.3-2.4c-0.7-1.2-1.1-2.4-1.1-3.6
		c0-1.1,0.1-1.8,0.3-2.2c0.2-1.3,0.9-2.3,2.1-3c1.2-0.7,2.4-1.1,3.7-1.1c1.1,0,1.8,0.1,2.2,0.3c1.3,0.2,2.3,0.9,3.2,2.1
		c0.8,1.2,1.3,2.4,1.3,3.6C710.8,205.7,710.7,206.4,710.5,206.9z M714.3,175.8c0,1.7-0.6,3.2-1.7,4.6c-1.2,1.4-2.6,2.1-4.3,2.1h-0.3
		c-1.7,0-3.2-0.6-4.4-1.7c-1.3-1.2-1.9-2.6-1.9-4.3c-0.2-1.7,0.3-3.2,1.6-4.6c1.3-1.4,2.7-2.1,4.4-2.1c1.7-0.2,3.2,0.3,4.4,1.6
		C713.3,172.6,714.1,174.1,714.3,175.8z M702.9,140.9c1.5,0,2.8,0.4,4,1.3c1.2,0.8,2,2,2.4,3.5c0.4,1.7,0.2,3.3-0.6,4.9
		c-0.8,1.6-2.1,2.6-3.8,3l-1.9,0.3c-1.5,0-2.9-0.6-4.3-1.7c-1.4-1.2-2.1-2.7-2.1-4.6c0-1.9,0.6-3.5,1.7-4.8
		C699.4,141.5,700.9,140.9,702.9,140.9z M686.7,116.1c1.1-0.8,2.3-1.3,3.8-1.3c2.1,0,3.8,0.8,5.1,2.5c0.6,0.8,1,2.1,1,3.8
		c0,2.3-0.8,4-2.5,5.1c-0.8,0.9-2.1,1.3-3.8,1.3c-2.1,0-3.8-0.8-5.1-2.5c-0.6-1.1-0.9-2.3-0.9-3.8
		C684.1,118.8,685,117.2,686.7,116.1z M685.4,226.5c1.3-1.7,3.1-2.5,5.4-2.5c1.5,0,2.7,0.4,3.8,1.3c1.5,1.3,2.2,3,2.2,5.1
		c0,1.7-0.4,3.1-1.3,4.1c-1.3,1.5-3,2.2-5.1,2.2c-1.7,0-3-0.4-3.8-1.3c-1.7-1.3-2.5-3-2.5-5.1C684.1,228.7,684.5,227.4,685.4,226.5z
		 M672.4,255.4c-0.8,0.6-2,0.9-3.5,0.9c-2.3,0-4.1-0.9-5.4-2.9c-0.6-1.1-1-2.2-1-3.5c0-2.3,1.1-4.1,3.2-5.4c1.1-0.6,2.2-1,3.5-1
		c2.1,0,3.8,1,5.1,2.9c0.6,0.8,1,2,1,3.5C675.2,252.4,674.3,254.2,672.4,255.4z M662.5,99.6c1.3-2.3,3.2-3.5,5.7-3.5
		c0.6,0,1.6,0.2,2.9,0.6c2.3,1.3,3.5,3.2,3.5,5.7c0,0.6-0.2,1.6-0.6,2.9c-1.1,2.3-3,3.5-5.7,3.5c-1.3,0-2.2-0.2-2.9-0.6
		c-2.3-1.3-3.5-3.2-3.5-5.7C661.9,101.8,662.1,100.9,662.5,99.6z M635.3,91.7c1.3-1.3,2.7-1.9,4.4-1.9h0.3c1.7,0,3.2,0.7,4.4,2.1
		c1.3,1.4,1.9,2.9,1.9,4.6c0,1.7-0.6,3.2-1.9,4.4s-2.8,1.9-4.4,1.9h-0.3c-1.7,0-3.2-0.6-4.4-1.9c-1.3-1.3-1.9-2.7-1.9-4.4
		C633.3,94.5,634,92.9,635.3,91.7z M608.6,98.3c0.8-0.6,2-1,3.5-1c2.3,0,4.1,1.1,5.4,3.2c0.6,0.8,1,1.9,1,3.2c0,2.3-1.1,4.1-3.2,5.4
		c-1.1,0.6-2.1,1-3.2,1c-2.3,0-4.1-1-5.4-2.9c-0.6-1.3-1-2.4-1-3.5C605.7,101.4,606.7,99.6,608.6,98.3z M616.5,151.6
		c3-4.4,7.2-8,12.7-10.8c3.8-1.7,7.4-2.5,10.8-2.5c6.6,0,12.2,2.2,16.8,6.7c4.4,4,7.6,9,9.5,14.9c2.1,5.9,3.2,11.5,3.2,16.8
		c0,12.7-3.1,23.7-9.2,33c-4.4,6.1-9.4,10.5-14.9,13c-3.2,1.5-6.7,2.2-10.5,2.2c-5.9,0-11.2-2-15.9-6c-4.4-3.4-7.6-7.8-9.5-13.3
		c-2.8-7-4.1-14.2-4.1-21.6C605.4,172.4,609.1,161.6,616.5,151.6z M586.7,121.5c1.3-2.1,3.1-3.2,5.4-3.2c1.5,0,2.6,0.3,3.5,1
		c1.9,1.3,2.9,3.2,2.9,5.7c0,1.3-0.2,2.2-0.6,2.9c-1.3,2.1-3.2,3.2-5.7,3.2c-0.9,0-1.9-0.2-3.2-0.6c-2.1-1.5-3.2-3.4-3.2-5.7
		C585.7,123.4,586.1,122.3,586.7,121.5z M575.3,150.4c0.4-1.5,1.2-2.7,2.4-3.7c1.2-1,2.5-1.4,4-1.4l1.6,0.3c1.3,0.4,2.4,1.2,3.3,2.4
		c1,1.2,1.4,2.4,1.4,3.6l-0.3,1.6c-0.2,1.5-0.9,2.7-2.1,3.7c-1.2,0.9-2.5,1.4-4,1.4L580,158c-1.5-0.4-2.7-1.2-3.6-2.4
		c-1-1.2-1.4-2.4-1.4-3.6L575.3,150.4z M570.8,180.2c0.2-1.7,1-3.1,2.2-4.3c1.3-1.2,2.7-1.7,4.4-1.7c1.7,0.2,3.1,0.9,4.3,2.1
		c1.2,1.2,1.7,2.6,1.7,4.3v0.6c0,1.7-0.6,3.1-1.9,4.3c-1.3,1.2-2.8,1.7-4.4,1.7h-0.3c-1.7-0.2-3.1-1-4.3-2.2
		c-1.2-1.3-1.7-2.6-1.7-4.1V180.2z"/>
	<path d="M173.7,326c1.4,2,2.6,3.6,3.5,4.7c0.9,1.1,2.2,2.6,4,4.3c3.1,3.1,4.7,5,4.7,5.7c0,56.9-1,116.7-3,179.4v1.7l1.3,1
		c5.6,3.8,12.7,7,21.3,9.7c8.7,2.7,15.9,4,21.7,4h1l0.7-0.3c0.4-0.4,0.8-0.9,1-1.3c0.2-0.4,0.5-1.5,0.8-3.2c0.3-1.7,0.5-3.8,0.5-6.5
		c0-2.7,0-6.6,0-11.8c0-5.2-0.1-11.4-0.2-18.7c-0.1-7.2-0.4-16.4-0.8-27.5c-0.4-21.3-0.7-35.8-0.7-43.3c5.3,0,13.9,0,25.7,0
		c10,0.2,18.3,0.2,25,0c4.2-1.1,8.7-6.2,13.5-15.3c4.8-9.1,6.8-16.3,6.2-21.7c-0.7-4.4-3.2-6.6-7.7-6.3l-62.3-1v-35.7
		c4.7,0,11.8,0.2,21.3,0.7c19.3,0.9,34.7,1.2,46,1c4.2-0.3,8.2-1.9,12-5c3.6,84.3,5.4,143.7,5.4,178c0,1.6,0.9,3.1,2.7,4.7
		c3.1,2.4,8.7,4.8,16.7,7c8,2.2,13.7,3,17,2.3l2.3-0.7v-2.3c0-12.7,0.3-37.8,1-75.3l0.3-10.3c0.4,0.7,1.3,1.9,2.7,3.7
		c1.3,1.8,2.3,3.1,3,4c26.2,35.3,46.6,63.6,61,84.7l0.7,0.7c0.9,0.7,1.8,1,2.7,1c2.2,0,4.6-1.3,7-4c3.8-4.2,7.5-10.6,11.2-19
		c3.7-8.4,4.5-13.9,2.5-16.3c-4.7-6.7-13.8-18.3-27.3-35c-14-17.6-24.3-30.8-31-39.7c11.1-3.1,20.7-6.9,28.7-11.5
		c8-4.6,14.1-9.5,18.2-14.8c4.1-5.3,7.1-10.4,9-15.3c1.9-4.9,2.9-10,3.2-15.3c0.9-14.9-2.6-27.4-10.5-37.5
		c-7.9-10.1-20-17.4-36.2-21.8c-10.9-3.1-23.6-4.9-38-5.3c-14.4-0.4-26.6,0.1-36.5,1.7c-4.8,0.8-8.5,1.6-11.3,2.4l-18.6,0.3
		c-50.7,0-84.2-0.2-100.7-0.7c-2.4,0-5,0.1-7.7,0.2c-2.7,0.1-5.1,0.3-7.3,0.7c-2.2,0.3-4.1,1.1-5.7,2.2c-1.6,1.1-2.4,2.6-2.7,4.3
		c-0.4,2.4-0.4,4.7,0,6.8C171.3,322,172.3,324,173.7,326z M354.9,341.4c8.4-1.1,17.3-1.1,26.5,0.2c9.2,1.2,16.1,3.8,20.5,7.8
		c3.1,2.7,4.7,5.8,4.7,9.3c0,6.2-2.3,11.4-7,15.7c-3.6,3.3-8.6,6.1-15,8.3c-6.4,2.2-12,3.6-16.7,4.2c-4.7,0.6-9,0.9-13,1.2V341.4z"
		/>
	<path d="M551.3,357.4c16-1.1,27.8-1.9,35.3-2.3c4.4-0.2,8.9-3.1,13.3-8.7c4.4-5.6,7.9-11.6,10.3-18c2.4-6.4,3.6-11.7,3.3-15.7
		c-0.2-4.2-2.1-6.4-5.7-6.7c-9.3,0.4-24.6,1.2-45.7,2.3c-36.7,2-63.1,3.2-79.4,3.7h-3.3c-3.1,0-5.4,0.1-7,0.2
		c-1.6,0.1-3.4,0.4-5.7,0.8c-2.2,0.4-3.9,1.2-5,2.2c-1.1,1-1.8,2.4-2,4.2c-1.1,6.2,2.2,15.7,10,28.3c3.3,5.1,5,8.1,5,9
		c-0.2,48-1.2,102.5-3,163.4c-0.2,6.4,0,10.7,0.7,12.8c0.7,2.1,2.7,3.3,6,3.5c5.8,0.2,17.9,0.3,36.3,0.3c36.9,0,60.9,0.2,72,0.7
		c5.3,0,10.7-4.2,16.2-12.7c5.4-8.4,8.2-15.9,8.2-22.3c0.2-5.8-2.1-8.8-7-9c-8.4,0.2-23.7,0.9-45.7,2c-17.8,0.9-30.6,1.4-38.3,1.7
		c0-10.4-0.1-20.9-0.2-31.5c-0.1-10.6-0.2-21.1-0.2-31.5c5.8,0,14.2,0,25.3,0c9.6,0.2,17.7,0.2,24.3,0c4.2-1.1,8.7-6.1,13.5-15
		c4.8-8.9,6.7-15.9,5.8-21c-0.7-4.7-3.1-6.8-7.3-6.3l-61-1v-31.3C526.4,359.2,536.6,358.5,551.3,357.4z"/>
	<path d="M660,319c-13.1,6.2-23.2,14.4-30.3,24.7c-7.1,10.2-10.6,21.8-10.3,34.7c0.2,9.6,2,18,5.3,25.3c3.3,7.3,8.2,13.5,14.5,18.3
		c6.3,4.9,12.7,8.8,19.2,11.8c6.4,3,14.2,5.8,23.3,8.5c0.9,0.4,2.7,1,5.3,1.7c10.7,2.9,17.4,6,20.3,9.3c4.7,5.8,6.6,12.2,5.7,19.3
		c-0.9,7.1-3.8,12.9-8.7,17.3c-7.8,7.3-16.1,9.9-25,7.7c-10.2-2.2-17.8-9.2-22.7-21c-1.3-3.8-7.3-3.6-18,0.7c-3.1,1.3-6.1,2.7-9,4.2
		c-2.9,1.4-5.8,3.6-8.7,6.5c-2.9,2.9-3.9,5.7-3,8.3c5.6,13.6,14.1,23.7,25.5,30.3c11.4,6.7,24.2,10,38.2,10c6.4,0,12.9-0.8,19.3-2.3
		c17.1-3.8,31.5-12,43.2-24.7c11.7-12.7,16.9-28.3,15.8-47c-0.4-5.3-1.5-10.3-3.2-14.8c-1.7-4.6-3.7-8.4-6-11.7
		c-2.3-3.2-5.4-6.3-9.3-9.2c-3.9-2.9-7.4-5.2-10.5-7c-3.1-1.8-7.2-3.6-12.3-5.3c-5.1-1.8-9.1-3.1-11.8-3.8
		c-2.8-0.8-6.7-1.8-11.8-3.2c-5.8-1.6-9.9-2.8-12.3-3.7c-14.4-4-22.9-10.4-25.3-19.3c-2.4-8.7,0.7-17.6,9.3-26.7
		c4.2-4.7,10.6-8.4,19-11.3c8.4-2.9,15.1-3.1,20-0.7c5.8,3.1,7.3,10.6,4.7,22.3c-1.3,4,0.3,7.1,5,9.3c4,2,9.7,3,17,3
		s11.9-1.3,13.7-4l0.3-0.7c7.3-23.1,4.1-40.7-9.7-52.7c-8.7-7.6-20.2-11.7-34.7-12.5C687.5,310.1,673.5,312.8,660,319z"/>
	<path d="M846,410.1c-13.3-0.4-23.1-0.6-29.3-0.3c-1.1-32.2-2.7-62.5-4.7-90.7c-1.1-3.6-5.7-6.3-13.7-8.3c-8-2-14.3-2.7-19-2
		c-3.8,0.7-5.7,2.3-5.7,5c0.7,19.8,1.3,51.7,2,95.7c1.1,55.1,2.2,93.7,3.3,115.7v1.7l1.3,0.7c2.2,1.6,5.8,3.1,10.7,4.5
		c4.9,1.4,9.7,2.6,14.5,3.3c4.8,0.8,8.3,0.9,10.5,0.5l2.7-0.3v-2.7c-0.4-10-0.7-25.9-0.7-47.7c0-16.9-0.1-29.2-0.3-37
		c6-0.2,16.6-0.4,31.7-0.7c12.9-0.2,21.9-0.3,27-0.3c0.2,6.4,0.7,15,1.3,25.7c1.6,21.8,2.3,39.5,2.3,53l0.3,1c0.7,2.2,3.3,4.6,8,7
		c4.7,2.4,9.6,4.4,14.8,6c5.2,1.6,9.4,2.3,12.5,2.3c0.4,0,0.9,0,1.3,0c2.9-0.4,4.3-2,4.3-4.7c0-22-0.4-52.3-1.3-91
		c-1.1-42.2-1.6-75.7-1.3-100.4c0.4-2-0.2-3.9-2-5.7c-3.3-3.6-10.3-6.9-21-10c-10.7-3.1-18-3.9-22-2.3c-2.2,0.9-3.5,2.4-3.7,4.7
		c0.4,8.7,1.3,21.7,2.7,39c1.1,16.7,1.9,29.5,2.3,38.3C869.2,410.3,859.5,410.3,846,410.1z"/>
	<path d="M539.6,663.8c1-2.9,2-5.7,3-8.6c1-2.9,2.1-5.7,3.3-8.6c6.1-15.6,12.9-31,20.4-46c7.5-15.1,14.9-30.3,22.2-45.7v-0.9
		c0.2,0,0.3-0.1,0.3-0.3l1.7-2.9c0-0.2,0.1-0.3,0.3-0.3v-0.9c0.2,0,0.3-0.1,0.3-0.3c1.1-2.7,0.6-4.9-1.7-6.6c-1-0.8-2.1-1-3.4-0.7
		c-1.3,0.3-2.5,0.9-3.4,1.9l-1.7,2.6l-20.6,40.3c-0.4,0.8-0.8,1.4-1.1,2c-0.2-0.4-0.3-0.7-0.3-0.9c0-0.2-0.1-0.4-0.3-0.6
		c-1.9-4-4.6-7-8.1-8.9c-3.5-1.9-7.5-2.7-11.9-2.3c-5.9,0.6-11.4,3-16.4,7.1c-5.1,4.2-9.4,8.5-13,12.9c-5,6.1-9.8,12.4-14.4,19
		c-4.7,6.6-8.6,13.4-11.7,20.4c-1.1,2.5-2.1,5.1-3,7.6c-0.1,0.1-0.1,0.3-0.2,0.4c-2.6,5.3-5.4,10.6-8.4,15.9
		c-3.1,5.2-6.1,10.1-9.3,14.6c-3.1,4.5-6.2,8.1-9.3,10.7c-1.1,1-2.4,1.7-3.9,2.3c-1.4,0.6-2.9,0.6-4.4,0c-2.1-0.8-3.4-2.1-3.9-4.1
		c-0.5-2-0.6-4.1-0.3-6.4c0.3-2.3,0.8-4.6,1.6-7c0.8-2.4,1.4-4.2,2-5.6c1.9-4.6,3.9-9.1,5.9-13.6c2-4.5,4-9,6.1-13.6
		c1.7-3.8,3.5-7.7,5.3-11.7c1.8-4,3.5-7.9,5-11.7c2.3-5.1,3.2-10.8,2.9-16.9c-0.4-4.8-2.1-8.6-5-11.4c-3-2.9-6.8-4.2-11.6-4
		c-6.1,0.4-11.3,2.2-15.7,5.4c-1.5,1.1-3.1,2.4-4.6,3.7c-1.5,1.3-3.1,2.7-4.6,4c-0.8,0.4-1.3,0.8-1.7,1.1c0-0.4,0-0.6,0.1-0.7
		c0.1-0.1,0.1-0.2,0.1-0.4l2-4.6c0.8-1.5,1-3,0.7-4.4c-0.3-1.4-1.2-2.5-2.7-3.3c-1.3-0.8-2.7-0.9-4-0.3c-1.3,0.6-2.5,1.6-3.4,3.1
		l-0.6,1.1l-1.1,2.6c-3.4,7.6-6.2,13.8-8.3,18.4c-2.1,4.7-4.1,9.1-5.9,13.2c-1.8,4.1-2.9,6.6-3.3,7.6c-0.6,1.3-1.1,2.6-1.7,4
		c-1.2,2.7-3,6.4-5.3,11c-3.1,6.4-6.6,12.9-10.4,19.6c-3.8,6.7-7.8,12.5-11.9,17.6c-4.1,5.1-7.8,7.6-11,7.6
		c-2.3-0.4-3.9-1.5-4.9-3.3c-1-1.8-1.5-4-1.6-6.4c-0.1-2.5,0.1-4.9,0.7-7.3c0.6-2.4,1.1-4.3,1.7-5.9c3.2-8.6,6.7-17.2,10.3-25.7
		c1.5-3.4,3-7,4.6-10.9l9.4-22c0.2-0.4,0.4-0.8,0.6-1.3c0.2-0.5,0.4-1,0.6-1.6l2.3-5.1c1.5-3.8,2.9-7.3,4-10.6
		c0.6-2.5-0.1-4.4-2-5.7c-1.9-1.7-3.9-1.7-6,0c-0.4,0.4-0.8,0.8-1.3,1.3c-0.5,0.5-0.9,0.9-1.3,1.3c-0.4,0.4-0.7,0.8-0.9,1.3
		c-0.2,0.5-0.5,0.9-0.9,1.3c-1-0.8-1.8-1.4-2.4-2c-0.7-0.6-1.4-1.2-2.1-2c-3.8-3.8-8.3-5.4-13.4-4.9c-7.4,0.6-14.4,3.2-20.9,8
		c-6.5,4.8-12.3,10.5-17.4,17.2c-5.1,6.7-9.6,13.7-13.4,21.2c-3.8,7.4-6.7,14.3-8.6,20.6c-1.5,4.4-2.7,8.8-3.4,13.3
		c-0.8,4.5-1,9-0.9,13.6c0.2,3.2,0.8,6.5,1.7,9.9c1,3.3,2.3,6.4,4.1,9.1c1.8,2.8,4.1,5,6.9,6.7c2.8,1.7,6,2.6,9.9,2.6
		c2.9,0,5.5-0.6,8-1.9c2.5-1.2,4.9-2.8,7.1-4.7c2.3-1.9,4.4-4,6.3-6.3c1.9-2.3,3.6-4.4,5.1-6.3c0.4,2.1,0.8,4.1,1.3,5.9
		c0.5,1.8,1.4,3.6,2.7,5.3c4.6,5.7,10.5,7.9,17.7,6.6c1.7-0.4,3.4-1,5-1.7c1.6-0.8,3.1-1.7,4.4-2.9c1.2-1,2.5-2.2,3.7-3.4
		c0,1.4,0.6,2.7,1.6,4c1.2,1.5,2.6,2.3,4.1,2.3c1.5,0,2.7-0.6,3.6-1.7c0.9-1.1,1.6-2.4,2.1-3.7c3.6-11.2,7.7-23.1,12.3-35.6
		c0.5-1.4,1.1-2.8,1.6-4.3c0.4-0.9,0.8-1.7,1.2-2.6c1.7-3.8,3.3-7.3,4.6-10.7c3.1-6.3,6.5-12.5,10.3-18.6c1.1-1.9,3-4.3,5.7-7.1
		c2.7-2.9,5.6-5.7,8.7-8.4c3.1-2.8,6.3-5.2,9.6-7.3c3.2-2.1,6.1-3.3,8.6-3.7c2.9-0.6,4.8-0.4,5.9,0.6c1,1,1.5,3,1.3,6
		c-0.2,2.7-0.6,5.2-1.3,7.6c-0.7,2.4-1.5,4.7-2.4,7c-4.2,9.3-8.7,18.9-13.4,28.6c-2.1,4.4-4,8.7-5.7,13c-1.7,4.3-3.2,8.7-4.6,13.3
		c-1,3.2-1.6,6.4-2,9.4c-0.4,3.1-0.3,6.2,0.3,9.4c1,4.2,2.9,7.2,5.7,9c2.9,1.8,6.1,2.7,9.7,2.7c3,0,6-0.5,8.9-1.6
		c2.9-1,5.3-2.4,7.4-4.1c3.6-3,7.2-7,10.9-12c2-2.8,4-5.7,6-8.7c0.3,2.2,0.8,4.5,1.4,6.7c0.4,1,0.7,2,1,3c0.3,1,0.6,2.1,1,3
		c2.1,5,5.4,8.7,9.9,11.2c4.5,2.5,9.2,3.2,14.2,2.3c2.1-0.4,4.1-1.2,6-2.6c1.9-1.3,3.7-2.9,5.3-4.6c1.6-1.7,3.1-3.5,4.4-5.4
		c1.3-1.9,2.6-3.7,3.7-5.4c0.2-0.4,0.4-0.7,0.7-1c0.3-0.3,0.6-0.6,1-1c0.4,6.3,1.9,11.2,4.6,14.6c2.7,3.4,6.1,5.1,10.3,5.1
		c5.1,0,10.5-2.7,16-8c5.5-5.3,10.6-11.7,15.3-19c4.7-7.3,8.8-14.7,12.3-22c3.5-7.3,6-13,7.3-17c0.8-2.1,0.4-3.9-1-5.4
		c-1.4-1.5-3-2.3-4.7-2.3c-1.9,0-3.4,1.2-4.6,3.7c-1.5,3.4-3.9,8.4-7,14.9c-3.1,6.5-6.6,13-10.4,19.4c-3.8,6.5-7.7,12.2-11.6,17
		c-3.9,4.9-7.3,7.3-10.1,7.3c-1.1,0-2.1-0.7-2.9-2.1c-0.8-1.4-1.3-3.9-1.7-7.3c-0.2-2.5,0-5,0.4-7.4
		C538,668.5,538.7,666.1,539.6,663.8z M341.5,658.1c-2.1,3.6-4.1,7.2-6.1,10.7c-2,3.5-4.3,6.9-7,10.1c-1.5,1.9-3.6,4-6.3,6.1
		c-2.7,2.2-5.3,3.3-8,3.3c-3.4,0-6-1.7-7.6-5.1c-1.6-3.4-2.5-6.6-2.7-9.4c-0.4-3.4-0.3-6.9,0.1-10.3c0.5-3.4,1.2-6.8,2.1-10
		c1.3-5.1,3.6-11.3,6.9-18.6c3.2-7.2,7.1-14.2,11.7-20.9c4.6-6.7,9.7-12.4,15.4-17.3c5.7-4.9,11.7-7.5,18-7.9c2.9-0.2,4.8,1,5.7,3.7
		c0.2,0.4,0.3,0.9,0.3,1.4l0.9,2.9v0.3l0.3,0.9c-0.2,4.6-1.1,9.6-2.9,15c-1.7,5.4-3.8,10.9-6.1,16.3c-2.4,5.4-4.9,10.6-7.6,15.6
		C346,649.9,343.6,654.3,341.5,658.1z M534.3,635.4c-1.6,3.7-3.1,7.1-4.4,10.1c-1.3,3.1-2.3,5.2-2.9,6.6c-2.1,4.8-4.5,9.3-7.1,13.6
		c-2.7,4.3-5.4,8.6-8.3,13c-1,1.1-1.9,2.3-2.7,3.4c-0.9,1.1-1.8,2.2-2.7,3.1c-1.7,2.1-3.8,3.1-6.3,3.1c-2.3,0-4.2-0.8-5.7-2.3
		c-1.5-1.5-2.7-3.3-3.6-5.4c-0.9-2.1-1.5-4.4-1.9-6.9c-0.4-2.5-0.6-4.6-0.6-6.3c0-5.7,1.4-12.3,4.3-19.9c2.9-7.5,6.4-15,10.7-22.3
		c4.3-7.3,8.9-14.1,13.9-20.2c5-6.1,9.5-10.6,13.7-13.4c1.1-0.8,2.3-1.4,3.6-2c1.2-0.6,2.5-1.1,3.9-1.7c1.7-0.6,3.2-0.8,4.6-0.6
		c1.9,0.4,3.4,1.2,4.6,2.4c1.1,1.2,1.6,2.9,1.4,5c0,1.3-0.5,3.5-1.4,6.4c-1,3-2.1,6.3-3.6,10.1c-1.4,3.8-3,7.8-4.6,12
		C537.6,627.7,536,631.7,534.3,635.4z"/>
	<path d="M636.8,661.6c-1.3,3.8-1.9,7.7-1.6,11.7c0.3,4,1.3,7.8,3,11.3c1.7,3.5,4.1,6.6,7,9.3c3,2.7,6.4,4.6,10.4,5.7
		c4,1.1,7.9,1.7,11.7,1.7c7.4,0,13.9-1.5,19.3-4.6c5.4-3,10-7.1,13.7-12.1c3.7-5,6.7-10.8,8.9-17.2c2.2-6.4,3.7-12.8,4.4-19.3
		c1.1-10.7-0.6-21.2-5.1-31.6c-4.6-10.4-12.5-19.6-23.7-27.6l-1.4-0.9c0-1.1,0-2.3,0-3.4c0-1.1-0.1-2.3-0.3-3.4
		c-0.4-3.4-1.6-6.9-3.7-10.4c-2.1-3.5-5.1-5.3-9.1-5.3c-3.1,0-5.3,0.9-6.9,2.7c-1.5,1.8-2.6,4.1-3.1,6.7c-0.6,3.2-0.3,6.2,0.9,8.9
		c1.1,2.7,2.9,5.1,5.1,7.1c-2.7,9.1-5.7,17.9-9,26.3c-3.3,8.4-6.9,16.4-10.7,24c-1,1.7-1,3.4-0.3,5.1c-2.1,2.3-4,4.7-5.6,7.1
		C639.1,656,637.8,658.7,636.8,661.6z M646.7,671c0.5-3.8,1.7-7.4,3.7-10.7c2-3.3,4.6-6.2,7.7-8.6c3.1-2.4,6.2-3.6,9.3-3.6
		c2.1,0,3.4,1,4,2.9c0.6,1.9,0.9,3.6,0.9,5.1c0.4,3.6,2.1,5.6,5.1,6c1.5,0.2,2.8-0.2,3.9-1.3c1-1,1.8-2.4,2.1-4.1
		c1-4.4,0.9-8.1-0.1-11c-1-3-2.7-5.3-4.9-7c-2.2-1.7-4.8-2.8-7.7-3.3c-3-0.5-6-0.3-9,0.4c2.7-5.9,5-12,7.1-18.2
		c2.1-6.2,4.4-12.5,6.9-19c3.4,2.5,6.5,4.8,9.3,6.9c2.8,2.1,5.2,4.4,7.4,7c2.2,2.6,4.1,5.7,5.7,9.4c1.6,3.7,2.9,8.4,3.9,14.2
		c1.5,7.8,1.2,15.3-1,22.3c-2.2,7.1-5.8,13.7-10.7,20c-5.7,7.2-12.9,10.9-21.4,10.9c-4.6,0-8.3-0.4-11.1-1.3c-2.9-0.9-5.7-3.2-8.6-7
		C647,678.1,646.2,674.8,646.7,671z"/>
	<path d="M762.9,591.8c-6.1,5-12.4,11.6-19,20c-6.6,8.4-11.9,17.4-16,27c-4.1,9.6-6.3,19.3-6.6,28.9c-0.3,9.6,2.8,18.3,9.3,25.9
		c4.8,5.7,10.6,7.5,17.4,5.4c4-1,7.8-2.8,11.3-5.4c3.5-2.7,6.7-5.8,9.6-9.3c2.9-3.5,5.4-7.2,7.7-11.1c2.3-3.9,4.2-7.6,5.7-11
		l1.1-2.6c0.2-0.2,0.3-0.4,0.3-0.6c0-0.2,0.1-0.4,0.3-0.6c5.1,1.5,9.5,2.3,13.2,2.3c8.2,0,15-2.5,20.4-7.6c5.4-5,9.7-11.7,12.7-19.9
		c0.8-2.1,0.4-3.9-1-5.4c-1.4-1.5-3-2.3-4.7-2.3c-1.9,0-3.4,1.2-4.6,3.7c-2.1,5-4.9,9.5-8.3,13.7c-3.4,4.2-8.3,6.3-14.6,6.3
		c-1.3,0-2.7-0.1-4.1-0.3c-1.4-0.2-3-0.6-4.7-1.1c0.2-0.2,0.3-0.6,0.3-1.1l0.9-2c0-0.4,0-0.6,0.1-0.7c0.1-0.1,0.1-0.2,0.1-0.4
		c1-2.7,1.7-5.4,2.3-8.1c0.6-2.8,1-5.6,1.1-8.4c0.4-4.6-0.5-9.1-2.6-13.4c-1.3-2.7-3.1-4.6-5.4-5.9c-2.3-1.2-4.8-1.5-7.4-0.7
		c-3.2,1-5.8,3-7.7,6c-1.9,3-3.1,6.1-3.7,9.1c-2.1,9.9-0.2,19.3,5.7,28.3l1.7,2.6c-1.3,2.9-2.9,6.1-4.7,9.7c-1.8,3.6-4,7.1-6.4,10.6
		c-2.5,3.4-5.1,6.5-8,9.1c-2.9,2.7-6,4.5-9.4,5.4c-2.9,0.6-5-0.3-6.3-2.6l-1.7-2.6c-4.2-8.4-5-17.2-2.3-26.6
		c1.3-4.8,3.6-10.5,6.7-17.3c3.1-6.8,6.8-13.3,11-19.7c4.2-6.4,8.7-12,13.6-16.7c4.9-4.8,9.6-7.5,14.2-8.3l0.3-0.3h0.3
		c2.5-1.1,3.5-3,3.1-5.4c-0.4-2.7-1.9-4-4.6-4c-3.6,0-6.6,0.7-9,2C768.1,587.7,765.6,589.5,762.9,591.8z M777.1,627.5
		c0.1-1.9,0.4-3.7,1-5.3c0.6-1.6,1.3-2.7,2.3-3.3c1.1,3.2,1.4,6.4,0.9,9.6c-0.6,3.1-1.2,6.3-2,9.6c-1-1.1-1.6-2.7-1.9-4.7
		C777.1,631.4,777,629.4,777.1,627.5z"/>
	<path d="M191.8,281.9c1.7,0.3,3.4,0.8,5.1,1.2c7.5,1.8,13.7-0.5,18.9-5.9c7.3-7.6,9.5-16.8,8.1-27c-0.9-6.5-0.9-6.4,4.7-9.7
		c8.6-5,17.2-10.2,25.8-15.2c5-2.9,10.1-5.8,16-9.2c-0.2,2.8-0.2,4.7-0.4,6.6c-0.6,4.9-1.6,9.9-2,14.8c-0.4,4.5-2.3,7-6.7,8.3
		c-8.6,2.6-13.7,8.8-15.9,17.4c-1.4,5.4-0.3,10.2,3.5,14.5c9,10.3,21.2,12.5,34.2,6c6.6-3.4,11.3-8.2,11.4-16.1
		c0.1-7.9-2.9-14.4-9.8-18.6c-2-1.2-4.1-2.4-6.3-3.4c-3.3-1.5-4.2-3.8-3.6-7.3c1.3-7.9,2.5-15.9,3.6-23.8c0.4-3.4,2.1-5.4,5-7
		c9.8-5.6,19.5-11.4,29.2-17c1.2-0.7,2.5-1.1,4.6-2c-0.5,4.3-1.2,7.7-1.4,11.1c-0.3,4.7-1.9,7.9-6.5,10.2c-3.5,1.8-6.6,4.9-9.2,8
		c-4.3,5.1-5.3,11.3-3.6,17.8c2.6,9.9,14.2,18.7,24.6,18.7c12.3,0,22.2-7.2,24.6-18.1c2.4-10.9-3.6-23.4-13.9-28.3
		c-2.9-1.4-6.2-1.8-10.3-2.9c1.3-6.3,2.8-12.1,3.7-18c0.6-3.8,2.5-6.3,5.7-8.1c5.5-3,11.1-6,16.5-9.1c12.8-7.4,25.5-14.8,38.2-22.3
		c1.5-0.9,3.2-1.9,3.8-3.3c0.7-1.5,1.1-4.1,0.2-5.2c-0.8-1-3.3-0.8-5.1-0.9c-0.5,0-1,0.7-1.6,1c-18.3,10.8-36.5,21.7-54.9,32.3
		c-2.1,1.2-4.9,2.2-7.3,2.1c-7.5-0.3-14.2-3.2-20.3-6.1c-0.1-5.1,0.5-9.6-0.5-13.6c-2.8-10.5-11.2-16.7-21.9-17.3
		c-13-0.7-21,6.7-25.3,14.9c-1.9,3.6-1.7,7.5-0.4,11.4c6.2,17.9,24.6,23.9,40.5,13.3c1.3-0.9,3.3-2,4.6-1.6
		c4.9,1.5,9.5,3.5,15.4,5.8c-12.9,7.8-24.4,15-36.1,21.9c-1.6,1-4.2,0.8-6.2,0.5c-6.2-0.9-12.4-2.2-18.6-3.3
		c-4.2-0.8-8.4-1.5-12.5-2.2c-0.2-1.9-0.4-3.2-0.6-4.5c-1.2-9.9-7-15.7-16.8-16.6c-6-0.5-11.7,1.1-16.6,4.4c-8.9,6-11.6,18-5.7,25.7
		c7.6,10,25.4,15.7,35,1.8c1.6-2.3,3.6-2.9,6.2-2.4c6.4,1.1,12.8,2.1,19.2,3.3c0.9,0.2,1.7,0.9,3.1,1.6c-1.5,1-2.3,1.7-3.1,2.2
		c-11.7,7-23.6,13.8-35.2,20.9c-4.5,2.8-8.2,3.2-13,0.1c-9.7-6.1-19.8-4.4-28.8,1.9c-8.7,6.1-12.5,15-10.3,25.6
		C174.6,271.7,179.8,280,191.8,281.9z"/>
	<path d="M930.9,242.8c-8.2-5.7-17.5-7.3-26.5-1.7c-4.5,2.8-7.8,2.5-12-0.1c-10.7-6.6-21.6-12.9-32.4-19.3c-0.8-0.5-1.5-1.1-2.9-2
		c1.3-0.7,2.1-1.4,2.9-1.5c5.9-1.1,11.8-2,17.7-3c2.4-0.4,4.2,0.1,5.7,2.2c8.8,12.8,25.2,7.6,32.2-1.6c5.4-7,2.9-18.1-5.3-23.6
		c-4.6-3.1-9.7-4.6-15.3-4.1c-9.1,0.8-14.4,6.1-15.5,15.2c-0.1,1.2-0.3,2.4-0.5,4.1c-3.7,0.7-7.6,1.4-11.5,2.1
		c-5.7,1-11.4,2.2-17.1,3c-1.9,0.3-4.2,0.4-5.7-0.5c-10.8-6.3-21.4-12.9-33.2-20.1c5.4-2.1,9.7-3.9,14.2-5.3c1.2-0.4,3,0.7,4.2,1.5
		c14.7,9.8,31.6,4.2,37.3-12.3c1.2-3.6,1.4-7.2-0.3-10.5c-4-7.6-11.3-14.4-23.3-13.7c-9.9,0.5-17.6,6.2-20.1,15.9
		c-1,3.7-0.3,7.8-0.5,12.5c-5.6,2.6-11.8,5.3-18.7,5.6c-2.2,0.1-4.8-0.8-6.7-1.9c-16.9-9.8-33.7-19.8-50.5-29.8c-0.5-0.3-1-1-1.5-1
		c-1.6,0.1-4-0.1-4.7,0.9c-0.8,1-0.5,3.4,0.2,4.8c0.6,1.3,2.2,2.3,3.5,3.1c11.7,6.9,23.4,13.8,35.1,20.6c5,2.9,10.1,5.6,15.2,8.4
		c3,1.6,4.7,3.9,5.3,7.4c0.8,5.5,2.2,10.9,3.4,16.6c-3.8,1.1-6.8,1.5-9.5,2.7c-9.5,4.4-15,16-12.7,26c2.2,10,11.3,16.7,22.7,16.7
		c9.5,0,20.2-8.1,22.6-17.2c1.6-6,0.6-11.6-3.3-16.4c-2.4-2.9-5.2-5.7-8.5-7.4c-4.2-2.1-5.7-5.1-6-9.4c-0.2-3.1-0.8-6.2-1.3-10.2
		c1.9,0.8,3.1,1.2,4.2,1.9c9,5.2,17.9,10.5,26.9,15.7c2.6,1.5,4.2,3.4,4.6,6.5c1,7.3,2.1,14.6,3.3,21.9c0.6,3.2-0.3,5.4-3.4,6.7
		c-2,0.9-3.9,2-5.8,3.1c-6.4,3.9-9.1,9.9-9.1,17.1c0.1,7.2,4.4,11.7,10.5,14.8c11.9,6,23.1,4,31.4-5.5c3.5-4,4.5-8.4,3.2-13.3
		c-2-7.9-6.7-13.6-14.6-16c-4.1-1.2-5.8-3.5-6.2-7.6c-0.4-4.6-1.3-9.1-1.8-13.6c-0.2-1.7-0.2-3.4-0.4-6c5.4,3.1,10.1,5.7,14.7,8.5
		c7.9,4.6,15.8,9.4,23.7,14c5.1,3,5.1,2.9,4.3,8.9c-1.3,9.4,0.7,17.9,7.4,24.9c4.7,5,10.5,7.1,17.4,5.5c1.6-0.4,3.1-0.9,4.7-1.1
		c11-1.7,15.8-9.3,17.9-19.2C942.4,256.6,939,248.4,930.9,242.8z"/>
	<circle cx="907" cy="699.1" r="7.6"/>
	<path d="M916.2,632.1l-73.6-4c-3.8-0.2-7.1,2.7-7.3,6.5c-0.2,3.8,2.7,7.1,6.6,7.3l73.6,4c3.8,0.2,7.1-2.7,7.3-6.5
		C923,635.6,920,632.3,916.2,632.1z"/>
	<path d="M897.7,573c-1.1,4,1.3,8.2,5.4,9.3s8.2-1.3,9.3-5.4c1.1-4-1.3-8.2-5.4-9.3C902.9,566.5,898.8,568.9,897.7,573z"/>
	<path d="M844,600.7l40.5-11.1c3.6-1,5.8-4.7,4.9-8.4c-1-3.8-4.8-6-8.6-5l-40.5,11.1c-3.6,1-5.8,4.7-4.9,8.4
		C836.4,599.5,840.3,601.7,844,600.7z"/>
	<path d="M838,679.3c-0.9,3.7,1.3,7.4,4.9,8.4l40.5,11.1c3.8,1,7.6-1.2,8.6-5c0.9-3.7-1.3-7.4-4.9-8.4l-40.5-11.1
		C842.9,673.2,839,675.5,838,679.3L838,679.3z"/>
	<ellipse transform="matrix(0.2494 -0.9684 0.9684 0.2494 -522.6526 723.8686)" cx="205.6" cy="699.1" rx="7.6" ry="7.6"/>
	<path d="M277.4,634.7c-0.2-3.8-3.5-6.8-7.3-6.5l-73.6,4c-3.8,0.2-6.8,3.5-6.6,7.3c0.2,3.8,3.5,6.8,7.3,6.5l73.6-4
		C274.6,641.8,277.6,638.5,277.4,634.7z"/>
	<path d="M209.5,582.3c4-1.1,6.5-5.2,5.4-9.3s-5.2-6.5-9.3-5.4c-4,1.1-6.5,5.2-5.4,9.3S205.5,583.3,209.5,582.3z"/>
	<path d="M228.1,589.6l40.5,11.1c3.8,1,7.6-1.2,8.6-5c0.9-3.7-1.3-7.4-4.9-8.4l-40.5-11.1c-3.8-1-7.6,1.2-8.6,5
		C222.3,584.8,224.4,588.5,228.1,589.6z"/>
	<path d="M229.2,698.8l40.5-11.1c3.6-1,5.8-4.7,4.9-8.4v0c-1-3.8-4.8-6-8.6-5l-40.5,11.1c-3.6,1-5.8,4.7-4.9,8.4
		C221.5,697.6,225.4,699.9,229.2,698.8z"/>
</g>
</svg>
