<?xml version="1.0" encoding="utf-8"?>
<!-- Generator: Adobe Illustrator 22.0.0, SVG Export Plug-In . SVG Version: 6.00 Build 0)  -->
<svg version="1.1" id="Layer_1" xmlns="http://www.w3.org/2000/svg" xmlns:xlink="http://www.w3.org/1999/xlink" x="0px" y="0px"
	 viewBox="0 0 1080 1080" style="enable-background:new 0 0 1080 1080;" xml:space="preserve">
<style type="text/css">
	.st0{fill:#050505;}
</style>
<g>
	<g>
		<g>
			<path class="st0" d="M472.3,488.7c6.2,6.2,8.9,12.2,8.2,18c-0.7,5.8-3.4,12-8.2,18.5c-1,1.4-2.7,2.1-5.1,2.1
				c-2.7,0-5.4-1.2-8-3.6c-2.6-2.4-3-5.3-1.3-8.7c3.4-5.8,5.4-10.6,5.9-14.4c0.5-3.8-2.1-7.4-8-10.8c-3.8-2.1-8.7-3.6-14.6-4.6
				c-6-1-12.3-1.8-18.8-2.3c-6.5-0.5-12.9-0.9-19.3-1c-6.3-0.2-11.9-0.1-16.7,0.3c-12,0.7-24.9,2.7-38.8,5.9
				c-13.9,3.3-27.9,7.5-42.1,12.8c-14.2,5.3-28.2,11.3-41.9,18c-13.7,6.7-26.2,13.8-37.5,21.3c-11.3,7.5-21.1,15.2-29.3,23.1
				c-8.2,7.9-13.9,15.6-17,23.1c-1.7,3.8-2,6.4-0.8,8c1.2,1.5,4.5,2.3,10,2.3c5.1,0,12.3-0.6,21.6-1.8c9.2-1.2,21.2-3.2,36-5.9
				c7.9-1.4,12.8-0.9,14.6,1.3c1.9,2.2,2,3.9,0.3,4.9c-4.1,2.7-9.2,5.1-15.2,7.2c-6,2.1-12.2,3.7-18.5,4.9
				c-6.3,1.2-12.6,2.2-18.8,3.1c-6.2,0.9-11.7,1.5-16.4,1.8c-8.2,1-16.6-0.2-25.2-3.6c-10.3-4.1-15.8-10.2-16.7-18.2
				c-0.9-8,2.2-17,9.3-27c7-9.9,17.2-20.2,30.6-30.8c13.4-10.6,28.9-20.5,46.5-29.5c17.6-9.1,36.9-17,57.8-23.9
				c20.9-6.9,42.3-11.5,64.2-13.9c3.8-0.7,7.5-0.9,11-0.5c3.6,0.3,7.3,0.5,11,0.5c7.2-0.3,15-0.3,23.4,0.3
				c8.4,0.5,16.8,1.6,25.2,3.3c8.4,1.7,16.4,4.2,23.9,7.5C461.3,479.3,467.5,483.5,472.3,488.7z M302.7,629.5
				c4.8-0.7,9.3-1.3,13.6-1.8c4.3-0.5,8.5-0.8,12.6-0.8c6.2,0,12.2,0.9,18,2.8c5.8,1.9,11.6,5.7,17.5,11.6c1.7,1.7,3.3,3.5,4.6,5.4
				c1.4,1.9,1.4,3.7,0,5.4c-1.4,2.1-3.3,2.7-5.7,2.1c-1.4-0.3-2.6-0.5-3.6-0.5c-1,0-2.1-0.3-3.1-1c-1.7-1.4-3.5-2.2-5.4-2.6
				c-1.9-0.3-3.9-0.5-5.9-0.5c-3.8,0-7.7,0.5-11.8,1.5c-6.9,1.4-13.5,3.1-19.8,5.1c-6.3,2.1-12.8,4.3-19.3,6.7
				c-3.8,1.4-6.2,4.1-7.2,8.2c-2.7,14.7-5.3,29.2-7.7,43.4c-2.4,14.2-4.5,28.4-6.2,42.7c-1.7,14.2-3,28.7-3.9,43.4
				c-0.9,14.7-1.1,30-0.8,45.7c0,3.1,0.2,6,0.5,8.7c0.3,2.7,1.4,5.3,3.1,7.7c1,1.7,1.2,3.2,0.5,4.4c-0.7,1.2-1.9,1.8-3.6,1.8
				c-2.7,0.3-5.5,0.3-8.2-0.3c-2.7-0.5-5.3-1.8-7.7-3.9c-3.8-3.8-6.8-7.6-9-11.6c-2.2-3.9-3.7-8.5-4.4-13.6c-1-10.3-1.5-22.3-1.3-36
				c0.2-13.7,0.8-27.6,1.8-41.6c1-14,2.3-27.8,3.9-41.1c1.5-13.4,3.2-24.8,4.9-34.4c0-1-0.3-2.1-1-3.1c-4.8,1.4-8.9,2.7-12.3,4.1
				c-3.4,1.4-6.4,2.7-9,4.1c-2.6,1.4-5,2.5-7.2,3.3c-2.2,0.9-4.7,1.3-7.5,1.3c-4.5,0-8.7-0.9-12.8-2.6c-4.1-1.7-7.4-4.6-9.8-8.7
				c-1.7-3.1-1.2-6.1,1.5-9c2.7-2.9,6.3-5.9,10.8-9c11-7.5,20-12.8,27.2-15.9c7.2-3.1,13-5.4,17.5-6.9c4.4-1.5,7.7-3.1,9.8-4.6
				c2.1-1.5,3.6-4.4,4.6-8.5c2.1-7.5,4.2-15.5,6.4-23.9c2.2-8.4,4.6-16.6,7.2-24.7c2.6-8,5.1-15.8,7.7-23.1
				c2.6-7.4,4.9-13.8,6.9-19.3c1.7-4.4,3.3-7.1,4.9-8c1.5-0.9,4.4-0.8,8.5,0.3c3.4,0.7,6.4,2.1,9,4.4c2.6,2.2,3.5,5.2,2.8,9
				c-1,8.2-1.7,14.2-2.1,18c-0.3,3.8-0.9,7.6-1.8,11.6c-0.9,3.9-2.1,9.2-3.9,15.9c-1.7,6.7-4.5,17-8.2,31.1c-1,4.1-1.4,6.5-1,7.2
				C297.9,630.2,299.6,630.2,302.7,629.5z"/>
			<path class="st0" d="M493.9,650.7c0.7-1,1.7-1.5,3.1-1.5c1.7,0,3.5,0.9,5.4,2.8c1.9,1.9,2.3,3.9,1.3,5.9
				c-3.1,6.2-8,14.2-14.6,24.2c-6.7,9.9-14.4,19.6-23.1,29c-8.7,9.4-17.9,17.6-27.5,24.4c-9.6,6.9-18.5,10.3-26.7,10.3
				c-5.8,0-10.9-1.6-15.2-4.9c-4.3-3.3-7.1-8-8.5-14.1c-1-6.2-1.5-13.3-1.5-21.3c0-8,0.5-16,1.5-23.9c1-7.9,2.4-15.4,4.1-22.6
				c1.7-7.2,3.6-13.4,5.7-18.5c2.4-5.8,4-9.7,4.9-11.6c0.9-1.9,3-3.2,6.4-3.9c6.5-0.3,11.8,2.1,15.9,7.2c0.7,1,0.9,2.4,0.5,4.1
				c-0.3,1.7-0.7,2.9-1,3.6c-1.4,4.8-3,10.6-4.9,17.5c-1.9,6.9-3.6,14.1-5.1,21.8c-1.5,7.7-2.7,15.3-3.6,22.6
				c-0.9,7.4-0.9,14-0.3,19.8c1,6.5,2.7,9.8,5.1,9.8c2.7,0,6.4-1.6,11-4.9c4.6-3.3,9.5-7.5,14.6-12.8c5.1-5.3,10.4-11,15.9-17.2
				c5.5-6.2,10.7-12.2,15.7-18.2c5-6,9.2-11.5,12.8-16.4C489.5,656.8,492.2,653.1,493.9,650.7z M419.9,611.7
				c-5.8-0.7-8.4-3.6-7.7-8.7c0.7-6.2,2.6-13.4,5.9-21.8c3.3-8.4,6.2-15,9-19.8c2.1-3.1,5-4.4,8.7-4.1c2.1,0.3,4.1,0.7,6.2,1
				c2.1,0.3,3.9,1,5.7,2.1c2.7,1.7,3.7,3.4,2.8,5.1c-0.9,1.7-2.7,5-5.4,9.8c-5.5,9.3-9.3,16.3-11.3,21.1c-2.1,4.8-3.5,8.3-4.4,10.5
				c-0.9,2.2-1.7,3.5-2.6,3.9C426,611,423.7,611.3,419.9,611.7z"/>
			<path class="st0" d="M610,649.7c3.8,2.7,4.8,6,3.1,9.8c-4.8,9.6-10.6,20.9-17.5,33.9c-6.9,13-14.3,25.4-22.4,37
				c-8.1,11.7-16.2,21.5-24.4,29.5c-8.2,8.1-15.9,12.1-23.1,12.1c-12.7,0-21.8-4.8-27.2-14.4c-5.5-9.6-8.8-20.8-10-33.7
				c-1.2-12.8-1.2-25.8,0-38.8c1.2-13,2.3-23.1,3.3-30.3c1.7-12.7,4.3-27,7.7-42.9c3.4-15.9,7.6-32.1,12.6-48.6
				c5-16.4,10.4-32.4,16.2-47.8c5.8-15.4,12.1-28.9,18.8-40.6c6.7-11.6,13.4-20.6,20.3-27c6.8-6.3,13.7-8.5,20.6-6.4
				c6.8,2.1,12.3,4.9,16.4,8.5c4.1,3.6,6.2,9,6.2,16.2c-0.3,9.3-2.7,21.6-6.9,37c-4.3,15.4-9.9,31.3-17,47.5
				c-7,16.3-15.2,31.9-24.4,47c-9.3,15.1-19,27.1-29.3,36c-1.4,1-2.7,2.3-3.9,3.9c-1.2,1.5-2,3.2-2.3,4.9c-1,6.5-2.1,15.9-3.3,28.3
				c-1.2,12.3-2,24.7-2.3,37c-0.3,12.3,0.1,23.1,1.3,32.4c1.2,9.3,3.5,13.9,6.9,13.9c2.7,0,7.1-3.4,13.1-10.3
				c6-6.8,12.5-15.3,19.5-25.4c7-10.1,14-20.9,20.8-32.4c6.8-11.5,12.3-21.8,16.4-31.1c1.4-3.4,3.2-5.4,5.4-5.9
				C606.9,648.4,608.7,648.7,610,649.7z M582.8,476.5c-3.4,4.5-7.5,11.7-12.1,21.6c-4.6,9.9-9,20.6-13.1,32.1
				c-4.1,11.5-7.8,22.9-11,34.2c-3.3,11.3-5.6,20.7-6.9,28.3c5.8-7.9,11.4-17.4,16.7-28.5c5.3-11.1,9.9-22.3,13.9-33.4
				c3.9-11.1,7-21.6,9.2-31.3C581.7,489.6,582.8,482,582.8,476.5z"/>
			<path class="st0" d="M613.6,762.2c0.7,3.4,1.9,5.5,3.6,6.2c2.4,1,3.3,2.9,2.6,5.7c-0.3,2.1-1.9,3.1-4.6,3.1
				c-4.8,0.7-9.2-0.1-13.1-2.3c-3.9-2.2-6.8-5.7-8.5-10.5c-1.7-6.2-2.5-14.5-2.3-24.9c0.2-10.4,0.8-21.3,1.8-32.6
				c1-11.3,2.3-22.3,3.9-32.9c1.5-10.6,2.6-19.2,3.3-25.7c3.1-24,6.1-42.5,9-55.5c2.9-13,5.1-22.5,6.7-28.5c1.5-6,2-9.3,1.3-10
				c-0.7-0.7-3.1-0.7-7.2,0c-10.3,2.1-20.6,4-31.1,5.9c-10.4,1.9-20.6,4.5-30.6,8c-2.1,0.7-4.4,0.8-6.9,0.3
				c-2.6-0.5-4.7-1.5-6.4-2.8c-1.7-1.4-2.9-3-3.6-4.9c-0.7-1.9-0.2-3.7,1.5-5.4c2.7-3.4,8-6.7,15.7-9.8c7.7-3.1,16.1-5.9,25.2-8.5
				c9.1-2.6,17.9-4.7,26.5-6.4c8.6-1.7,15.2-2.9,20-3.6c2.1-0.3,3.5-1,4.4-2.1c0.9-1,1.7-3.2,2.6-6.4c0.9-3.3,2.1-8.2,3.9-14.9
				c1.7-6.7,4.3-15.7,7.7-27c3.1-9.9,5.2-15.8,6.4-17.5c1.2-1.7,3.3-2.2,6.4-1.5c3.8,0.3,6.3,1.5,7.7,3.3c1.4,1.9,2.1,4.3,2.3,7.2
				c0.2,2.9-0.1,6.3-0.8,10c-0.7,3.8-1.4,7.5-2.1,11.3c-1.7,8.9-3.1,15.7-4.1,20.3c-1,4.6-1.6,8-1.8,10c-0.2,2.1,0,3.1,0.5,3.1
				c0.5,0,1.6,0,3.3,0c6.5-0.7,13.6-1.4,21.3-2.1c7.7-0.7,15.3-1,22.9-1c3.4,0,7.2,0.2,11.3,0.5c4.1,0.3,8.1,1,12.1,2.1
				c3.9,1,7.5,2.6,10.8,4.6c3.3,2.1,5.9,4.8,8,8.2c0.3,0.7,0.6,1.5,0.8,2.3c0.2,0.9-0.1,1.8-0.8,2.8c-1,1-1.9,1.5-2.6,1.5
				c-1.4,0-3.6-0.6-6.7-1.8c-3.1-1.2-9.1-1.5-18-0.8c-18.5,1.4-33,2.9-43.4,4.6c-10.5,1.7-17.6,2.6-21.3,2.6
				c-3.4,0.3-5.7,2.6-6.7,6.7c-1.4,5.5-3.3,13.5-5.7,24.2c-2.4,10.6-5,22.6-7.7,36c-2.7,13.4-5.4,27.3-8,41.9
				c-2.6,14.6-4.8,28.7-6.7,42.4c-1.9,13.7-3.1,26.3-3.6,37.8C612.3,746.7,612.6,755.7,613.6,762.2z"/>
			<path class="st0" d="M728.7,649.7c-4.5,5.5-9.1,11.8-13.9,19c-3.8,6.5-8.2,14.5-13.4,23.9c-5.1,9.4-10.5,20.3-15.9,32.6
				c-2.7,5.8-4.8,10.4-6.2,13.6c-1.4,3.3-1.7,6.9-1,11c0.3,4.1-1.5,5.8-5.7,5.1c-4.8-0.7-8.7-2.8-11.8-6.4c-3.1-3.6-5-7.6-5.7-12.1
				c-2.1-13-2.9-25.4-2.6-37c0.3-11.6,1.2-22.6,2.6-32.9c1.4-10.3,3.1-19.8,5.1-28.5s3.8-16.7,5.1-23.9c0.7-3.8,2.9-12,6.7-24.7
				c3.8-12.7,8.5-26.8,14.1-42.4c5.7-15.6,11.9-31,18.8-46.3c6.8-15.2,13.7-27.1,20.6-35.7c3.8-4.4,7.9-8.3,12.3-11.6
				c4.4-3.3,9.2-3.7,14.4-1.3c8.9,3.8,14.8,8.5,17.7,14.1c2.9,5.7,4,12.6,3.3,20.8c-0.3,11.7-2.2,22.9-5.7,33.7
				c-3.4,10.8-7.5,21.3-12.3,31.6c-5.1,11-10.2,20.5-15.2,28.5c-5,8.1-9.9,15.3-14.9,21.8c-5,6.5-9.9,12.6-14.9,18.2
				c-5,5.7-10.4,11.6-16.2,17.7c-1,1-2.2,3.9-3.6,8.7c-1.4,4.8-2.7,9.9-3.9,15.2c-1.2,5.3-2.1,10.1-2.8,14.4
				c-0.7,4.3-0.9,6.6-0.5,6.9c4.1-7.2,8.5-14.8,13.1-22.9c4.6-8,10.5-16.2,17.7-24.4c3.1-3.8,6.4-7.3,10-10.5
				c3.6-3.3,7.8-4.4,12.6-3.3c7.5,1.7,12.5,4,14.9,6.9c2.4,2.9,3.4,7.1,3.1,12.6c-0.3,2.7-1.2,7.6-2.6,14.6
				c-1.4,7-2.7,14.3-3.9,21.8c-1.2,7.5-2.1,14.1-2.8,19.8c-0.7,5.7-0.3,8.5,1,8.5c1.4,0,4-1.6,8-4.9c3.9-3.3,8.3-7.5,13.1-12.6
				c4.8-5.1,9.8-11,15.2-17.5c5.3-6.5,10.2-13,14.6-19.5c2.1-3.1,5-4.4,8.7-4.1c3.1,0.7,4.6,2.3,4.6,4.9s-0.9,5.4-2.6,8.5
				c-4.8,7.9-9.4,14.4-13.9,19.5c-4.5,5.1-9.6,11.1-15.4,18c-7.5,8.6-13.6,15-18.2,19.3c-4.6,4.3-10.7,6.3-18.2,5.9
				c-4.8,0-8.7-1.2-11.8-3.6c-3.1-2.4-5.4-5.4-6.9-9c-1.5-3.6-2.4-7.6-2.6-12.1c-0.2-4.4,0.1-8.9,0.8-13.4c0.7-4.8,1.4-9.3,2.1-13.6
				c0.7-4.3,1.4-8.1,2.1-11.6C727.2,657.4,728,653.5,728.7,649.7z M749.3,481.1c-2.7,2.7-6.4,9.1-11,19c-4.6,9.9-9.3,21-13.9,33.1
				c-4.6,12.2-8.9,24.1-12.8,35.7c-3.9,11.7-6.4,20.6-7.5,26.7c4.8-6.8,9.4-13.8,13.9-20.8c4.4-7,8.7-14.4,12.8-22.1
				c4.1-7.7,7.7-16,10.8-24.9c3.1-8.9,5.7-18.8,7.7-29.8c0.7-2.7,1-5.5,1-8.2C750.3,487.1,750,484.2,749.3,481.1z"/>
			<path class="st0" d="M873.6,741.7c5.5-2.1,11-3.9,16.4-5.7c5.5-1.7,11-2.6,16.4-2.6c6.5,0,12.7,1.7,18.5,5.1
				c1,0.7,2.1,1.5,3.1,2.3c1,0.9,1.4,2.1,1,3.9c-0.7,1.7-1.6,2.5-2.8,2.3c-1.2-0.2-2.3-0.1-3.3,0.3c-1.7,0.3-3.1,0.3-4.1,0
				c-1-0.3-2.1-0.8-3.1-1.3c-1-0.5-2.2-0.8-3.6-0.8c-1.4,0-3.4,0.3-6.2,1c-6.9,2.1-13.5,4.5-20,7.5c-6.5,2.9-13,6.3-19.5,10
				c-1.4,0.7-2.4,1.6-3.1,2.8c-0.7,1.2-1.4,2.5-2.1,3.9c-1.7,4.1-4.2,10.3-7.5,18.5c-3.3,8.2-7.3,17.2-12.1,27
				c-4.8,9.8-10.2,19.8-16.2,30.1c-6,10.3-12.5,19.6-19.5,28c-7,8.4-14.6,15.3-22.6,20.8c-8,5.5-16.4,8.2-24.9,8.2
				c-5.8,0-10.4-2.7-13.6-8c-3.3-5.3-4.9-10.7-4.9-16.2c0-5.5,1.4-13.1,4.1-22.9c2.7-9.8,7.6-20.4,14.6-31.9
				c7-11.5,16.5-23,28.5-34.4c12-11.5,27.4-21.8,46.3-31.1c5.1-2.7,8.5-4.6,10-5.7c1.5-1,3-3.6,4.4-7.7c3.8-12,7.1-24,10-36
				c2.9-12,5.2-24.5,6.9-37.5c-1.7,0.7-4.3,5.1-7.7,13.4c-3.4,8.2-8.7,17.3-15.9,27.2c-4.8,5.8-9.4,10.6-13.9,14.4
				c-4.5,3.8-9.6,5.7-15.4,5.7c-3.8,0-7.2-0.7-10.3-2.1c-5.1-2.1-8.7-5.9-10.8-11.6c-2.1-5.7-3.1-12.1-3.1-19.3
				c0-7.2,0.9-14.8,2.6-22.9c1.7-8,3.9-15.6,6.4-22.6c2.6-7,5.3-13.2,8.2-18.5c2.9-5.3,5.4-9,7.5-11c3.8-2.7,7.9-3.1,12.3-1
				c3.4,1.4,4.1,3.8,2.1,7.2c-6.9,11.7-11.9,24.5-15.2,38.5c-3.3,14.1-4.9,27.8-4.9,41.1c0.7,3.8,1.5,5.9,2.3,6.4
				c0.9,0.5,2.7-0.3,5.4-2.3c5.1-4.1,10-9.8,14.6-17c4.6-7.2,8.8-14.7,12.6-22.6c3.8-7.9,7.2-15.6,10.3-23.1
				c3.1-7.5,5.7-13.5,7.7-18c1.4-3.8,2.7-6.9,4.1-9.5c1.4-2.6,3.6-3.7,6.7-3.3c4.4,0.3,7.9,1.7,10.3,4.1c2.4,2.4,4.1,5.6,5.1,9.5
				c1,3.9,1.6,8.2,1.8,12.8c0.2,4.6,0.1,9.5-0.3,14.6c-2.1,26.4-6.9,51.6-14.4,75.5c0,0.7-0.1,1.3-0.3,1.8
				C872.7,739.9,873,740.6,873.6,741.7z M832,783.3c-9.6,5.8-18.6,13.4-27,22.9c-8.4,9.4-15.7,19-21.8,28.8
				c-6.2,9.8-11,18.8-14.6,27c-3.6,8.2-5.4,14.2-5.4,18c3.1,0.3,6.9-1.5,11.3-5.4c4.5-3.9,9.1-9.1,13.9-15.4
				c4.8-6.3,9.6-13.4,14.4-21.1c4.8-7.7,9.2-15.2,13.1-22.4c3.9-7.2,7.4-13.7,10.3-19.5C829,790.3,831,786,832,783.3z"/>
		</g>
	</g>
	<g>
		<g>
			<path class="st0" d="M291.8,921.2c0.7-32.2,9.5-41.9,2.6-49.5c-2.6-2.8-1.9-7.6,1.8-9.9c4.1-2.6,4.2-6.3,4.2-10.4
				c0-24.3,0.4-27.3-1.1-32.9c-2.5-10.4,3-16.7,8.3-16.7c4.4,0,8.8,4.2,8.8,13.7c0.2,6,0.2,12,0.2,17.8c0,23.4-1.2,24.1,5.6,23.8
				c7.7-0.4,15.5-0.9,23.2-1.6c4.4-0.5,4.6-1.2,5.5-6.2c2.1-11.3,0.5-30.5,1.2-39.5c0.4-5.8,4.2-8.8,7.9-8.8c3.9,0,7.8,3.2,8.1,8.8
				c0.9,20.8-1.6,55.1-3.5,66.6c-2.8,16-0.4,37.7-2.1,44.2c-1.4,4.8-4.8,6.9-7.9,6.9c-3.9,0-7.4-3-7.6-8.3c0-9.5-0.5-24.8,0.5-34.2
				c1.2-9.7,2.3-12.5-6.7-12.5c-4.2,0-10.6,0.7-20.3,1.4c-5.5,0.5-6.3,1.2-7.4,6.5c-1.9,9.9-3.5,19.6-4.8,29.4
				c-0.2,2.3,0.2,4.2,1.6,6c4.2,5.3-0.7,16-6.9,18.5C297.9,936.4,291.4,933,291.8,921.2z"/>
			<path class="st0" d="M387.2,928.4c-4.2,0-8.3-3.5-7.9-9.5c0.4-3.7,4.6-22,5.5-25.9c0.7-3,1.4-6,0.5-9.2c-0.9-3,0.2-5.5,1.9-7.8
				c6.3-8.1-2.8-7.8,24.7-58.7c2.5-4.4,4.8-8.8,8.5-12.3c2.8-2.8,5.8-4.2,8.6-4.2c3.9,0,7.4,2.6,9.7,7.6c5.5,12.2,8.5,25,9.3,38.4
				c1.6,21.7,0.2,8.8,0.2,64.1c0.2,4.1,0.4,7.9,3,11.3c3.3,4.4,2.8,8.6-1.1,11.6c-1.8,1.4-3.3,1.9-5.1,1.9
				c-5.8,0-11.1-7.6-11.1-16.6c0-37,1.6-35.6-6.5-35.2c-7,0.4-13.9,1.1-20.8,2.8c-3,0.9-4.9,2.5-5.5,5.8c-1.2,7.6-4.1,14.6-3.7,22.4
				c0.2,3.2-1.1,6.2-2.8,9C392.7,927,390,928.4,387.2,928.4z M410.3,869.4c25.2-1.9,23.3-1.9,23.6-7.9c0.4-12.5-1.8-24.7-5.5-36.5
				c-0.2-0.5-0.7-1.1-0.9-1.4c-1.2,0-1.6,0.7-2.1,1.4c-7.9,14.4-13.6,25-18,40.7C406.6,868.9,407.3,869.8,410.3,869.4z"/>
			<path class="st0" d="M493.6,802.1c2.3,0,4.4,1.2,6.7,4.1c11.1,14.1,6.9,73.8,19.6,105.7c1.6,4.2,3.5,6.3,5.5,6.3
				c2.3,0,4.6-3,6.3-9.5c10.2-36.6,6.2-50.9,11.4-85.8c1.4-9.5-0.2-13,0.5-17.3c0.7-3.9,3.9-6.2,7.2-6.2c2.5,0,4.8,1.1,6.3,3.3
				c4.4,5.8,0.7,16.2-1.1,38c-1.6,19-1.8,50.7-12.5,78.6c-4.1,10.6-10.9,15.3-17.8,15.3c-5.6,0-11.3-3.2-15.5-8.8
				c-12.2-16.6-14.4-48.8-17.8-81.4c-0.2-2.3,0-4.6-1.8-7.7c-2.6,10-5.3,18.7-6.3,27.5c-1.8,13.2-6.2,45.1,0.5,56.5
				c4.2,7.2-2.3,14.1-8.6,14.1c-3.3,0-6.5-1.9-8.3-6.5C458.2,900.9,474.4,802.1,493.6,802.1z"/>
			<path class="st0" d="M564.8,923.3c3.7-8.8,2.8-18.3,4.2-27.3c3.7-23.1,8.5-57.6,2.5-80.3c-1.4-5.6,0.9-9.7,6.3-11.1
				c6-1.6,12-3.2,16.7-2.8c40.7-0.5,74,53.5,36.3,97.6c-11.4,13.4-28.9,33.3-53.7,35.6C566.2,936,563.4,926.5,564.8,923.3z
				 M588.5,915c12-4.6,25-18.7,33.1-30.1c6-8.3,13.4-42.4-4.9-58.3c-6.2-5.5-13.6-8.6-22-7.9c-11.4,1.1,2.3,3.9-9,74.7
				C583.1,909.8,581.3,917.9,588.5,915z"/>
			<path class="st0" d="M671.2,901.5c3.3,0.2,6,2.6,7,6.3c1.8,6.9,2.1,7.2,9,6.2c6.5-0.9,12.5-3.5,18.1-7c3.2-1.9,4.1-4.6,2.8-8.1
				c-3.5-10.4-12.5-17.1-22.4-22.5c-19-10.7-28.5-33.8-14.6-49.8c7.6-8.6,21.1-20.8,33.3-20.8c2.8,0,5.6,0.5,8.5,1.4
				c16.4,5.3,11.6,25.7,1.1,26.1c-8.6,0.4-7.2-9-11.8-9c-4.4,0-14.8,10-17.6,13.2c-7.2,7.8-0.5,17.8,8.1,23.4
				c16.6,10.7,31,21.1,32.6,41.2c0.5,6.5-2.3,12-7.4,16c-11.3,9-25.2,12.9-35.6,12.9c-2.8,0-5.3-0.2-7.4-0.7
				C655.8,925.6,659.5,900.2,671.2,901.5z"/>
		</g>
	</g>
	<g>
		<g>
			<path class="st0" d="M227.7,197.4c2.2-22.5-0.7-38.4,2-45.2c2-5.4,6.1-8.1,10.3-8.1c4.2,0,8.3,2.7,10.3,8.1
				c2.9,8.1,0.2,13.9-3.4,94.1c-0.7,12.5-0.2,24.7-0.2,37.1c2.4,0,2.7-2,3.2-3.2c34.2-80.6,29.8-72.1,36.4-81.8
				c2.4-3.4,5.6-5.1,9-5.1c4.6,0,9,3.4,10,10.3c1.5,11.2-1,1,2.7,66.2c0.5,8.6,2,17.1,4.9,25.4l2.2,0.2c15.9-51.5,5.1-12,23-130.7
				c1-7.3,5.6-10.7,10.3-10.7c5.6,0,11.2,5.1,10.3,14.4c-3.2,26.4-2,6.1-11.7,84.5c-2.4,19.5-7.8,38.4-15.9,56.4
				c-3.2,7.3-8.1,13.9-16.4,13.7c-24.2-0.5-27.9-46.9-27.9-72.6c-3.4,3.2-2.9,1.2-28.1,62.8c-3.9,9.5-10.7,14.7-17.1,14.7
				c-11.2,0-16.1-15.6-16.1-24.9C225,267.8,224.3,232.6,227.7,197.4z"/>
			<path class="st0" d="M402.7,227.5c6.1-5.9,11.7-9,17.6-9c5.4,0,11,2.9,17.3,8.6c2.2-1.2,2.7-2.9,3.7-4.4
				c3.7-4.6,8.1-6.6,12.5-5.1c11.7,3.7,7.1,19.3,3.4,31c-3.7,11.2-10.5,36.2-6.6,47.4c3.2,9-2.7,14.9-9.3,14.9
				c-3.2,0-6.6-1.5-9.3-4.2c-6.6-6.8-2.9-13.2-5.4-17.8c-3.4,1.2-4.9,4.2-6.8,6.4c-11.5,12.5-22.2,17.6-30.5,17.6
				c-9.5,0-15.9-6.8-16.4-16.4C371.9,273.4,381.2,248,402.7,227.5z M394.1,289.3c9.5-6.6,14.7-14.4,20.8-21.5
				c5.9-6.8,11-13.7,2-23.5C403.6,255.8,397.3,270.5,394.1,289.3z"/>
			<path class="st0" d="M505.3,213.3c4.2-2.4,8.6-4.4,13.4-5.1c6.8-1,12.5,2,14.9,7.3c4.6,9.3-2.7,23.7-13.9,19.8
				c-2.2-0.7-4.4-1.7-6.6-0.2c-9.5,6.6-19.1,12.9-25.4,24.4c27.4,2.4,30.5,1.5,42.5,8.1c38.4,20.8-11.7,69.4-37.4,64
				c-9.3-2-13.9-12.7-7.6-19.8c6.6-7.6,15.1-13.4,24.4-18.1c4.4-2.2,9.8,2.2,11.7-2.2c2.7-5.9-9.5-8.8-16.4-9
				c-13.4-0.7-22.5,1-33-2.7C440.5,269,479.6,228.7,505.3,213.3z"/>
			<path class="st0" d="M561,317.4c-5.9,0-11.5-5.6-10-15.1c9-67.9,21.3-94.5,16.9-113.8c-0.7-3.9-0.2-8.6,0.5-12.7
				c1.2-8.1,6.4-12.9,12.5-12.7c6.1,0.2,10.5,5.6,11,13.9c0.7,12.5,0,24.9-2.7,37.1c-2.2,9.5-7.1,31.5-7.1,31.5s9-8.8,12.9-11.5
				c4.2-2.9,8.3-4.4,12-4.4c7.1,0,12.7,5.4,14.7,14.9c5.6,27.4-9.8,46.7-2.7,53.7c3.7,3.9,4.6,8.6,1.5,13.2
				c-2.7,4.2-6.6,6.1-10.3,6.1c-5.4,0-10.5-3.4-12.7-9c-2.7-7.3,1.7-24.7,4.4-34.9c1.7-6.4,3.9-20.3-1.5-20.3
				c-8.3,0-21,41.3-30.1,57.9C568.1,315.4,564.4,317.4,561,317.4z"/>
		</g>
	</g>
	<g>
		<g>
			<path class="st0" d="M254.8,408.8v17.8c0,2.3,0.1,4,0.2,5.2c0.1,1.2,0.4,2.2,0.7,2.9c0.3,0.7,0.8,1.3,1.3,1.8
				c0.5,0.5,1.2,0.9,2.1,1.2c0.9,0.4,2.1,0.7,3.6,0.9v4.3h-35.9v-4.3c1.8-0.3,3.2-0.7,4.3-1.2c1.1-0.5,1.9-1.2,2.4-2.1
				c0.5-0.9,0.9-2.1,1-3.5c0.2-1.4,0.2-3.2,0.2-5.3v-17.8l-17.6-37.2c-1.5-3.2-2.7-5.5-3.6-7c-1-1.8-1.9-3.1-2.6-3.8s-1.4-1.3-2-1.6
				c-0.6-0.3-1.5-0.5-2.5-0.6v-4.3H241v4.3c-3.3,0.4-5,2.1-5,4.9c0,1.1,0.3,2.5,0.8,4c0.5,1.6,1.4,3.6,2.6,6.2l11,24.4l11.9-23.8
				c1.2-2.4,2-4.4,2.4-5.9c0.5-1.6,0.7-3.2,0.7-4.7c0-1.6-0.4-2.8-1.3-3.7c-0.9-0.9-2.1-1.4-3.7-1.5v-4.3h26.1v4.3
				c-1.2,0.3-2.1,0.6-2.9,1.1c-0.8,0.5-1.6,1.2-2.5,2.1c-0.9,1-2,2.4-3.2,4.4c-1.3,1.9-2.7,4.5-4.4,7.6L254.8,408.8z"/>
			<path class="st0" d="M325,444c-12.7,0-22.3-3.7-28.7-11.2c-6.4-7.5-9.6-18.6-9.6-33.5c0-9.7,1.5-18.1,4.6-25
				c3.1-6.9,7.7-12.2,13.7-15.8c6-3.6,13.2-5.4,21.5-5.4c13,0,22.7,3.7,29.2,11.1c6.5,7.4,9.7,18.5,9.7,33.1c0,8.2-1,15.2-2.9,21.1
				c-1.9,5.9-4.7,10.7-8.2,14.5c-3.6,3.8-7.8,6.5-12.8,8.3C336.6,443.1,331.1,444,325,444z M307.4,397.6c0,13.1,1.6,22.8,4.7,29.2
				c3.1,6.4,7.9,9.6,14.4,9.6c3.3,0,6.2-0.9,8.5-2.7c2.3-1.8,4.2-4.3,5.7-7.5c1.4-3.2,2.5-7.1,3.1-11.5c0.6-4.4,0.9-9.3,0.9-14.6
				c0-8.6-0.7-15.8-2-21.7s-3.4-10.2-6.2-13.2c-2.8-3-6.3-4.5-10.6-4.5c-6.3,0-10.9,3-14,9C308.9,375.8,307.4,385.1,307.4,397.6z"/>
			<path class="st0" d="M435.9,370.6c0-3.2-0.1-5.5-0.4-6.8c-0.3-1.3-0.8-2.3-1.7-3.1c-0.8-0.8-2.4-1.5-4.8-2.1v-4.3h28.6v4.3
				c-1.6,0.4-2.8,0.9-3.7,1.4c-0.9,0.5-1.6,1.2-2.1,2.1c-0.5,0.9-0.8,2-0.9,3.4c-0.1,1.4-0.2,3.1-0.2,5.2v40.6
				c0,5.4-0.4,9.9-1.3,13.5c-0.9,3.6-2.2,6.7-4,9.1c-1.8,2.5-4.1,4.5-6.8,6c-2.7,1.5-5.7,2.6-9.1,3.2c-3.4,0.7-7.2,1-11.4,1
				c-6.2,0-11.3-0.6-15.6-1.9c-4.2-1.3-7.7-3.2-10.4-5.8c-2.7-2.6-4.6-5.7-5.9-9.4c-1.3-3.7-1.9-8.4-1.9-14.2v-42
				c0-2-0.1-3.7-0.2-5.1c-0.1-1.4-0.4-2.5-0.8-3.4c-0.5-0.9-1.1-1.6-2.1-2.1c-0.9-0.5-2.2-1-3.9-1.5v-4.3h34.1v4.3
				c-1.8,0.5-3.1,1-3.9,1.5s-1.5,1.2-1.9,2c-0.4,0.8-0.7,1.8-0.9,3.1c-0.2,1.3-0.3,3.1-0.3,5.5v42.9c0,3.4,0.2,6.5,0.6,9.4
				c0.4,2.8,1.2,5.2,2.4,7.2c1.1,2,2.7,3.6,4.8,4.6c2,1.1,4.7,1.6,7.9,1.6c4.4,0,7.7-0.9,9.9-2.7c2.2-1.8,3.7-4.3,4.6-7.4
				c0.9-3.2,1.3-7.9,1.3-14.3V370.6z"/>
			<path class="st0" d="M502.7,442.9h-34.1v-4.3c1.6-0.4,2.9-0.9,3.8-1.4c0.9-0.5,1.6-1.2,2.1-2.1c0.5-0.9,0.7-2,0.9-3.4
				c0.1-1.4,0.2-3.1,0.2-5.2v-56c0-2-0.1-3.7-0.2-5.1c-0.1-1.4-0.4-2.5-0.8-3.4c-0.5-0.9-1.1-1.6-2.1-2.1c-0.9-0.5-2.2-1-3.9-1.5
				v-4.3h37.9c5.1,0,9.5,0.4,13,1.1c3.6,0.7,6.7,1.8,9.4,3.3c2.3,1.2,4.2,2.7,5.7,4.6c1.6,1.8,2.8,4,3.6,6.4
				c0.8,2.4,1.3,5.3,1.3,8.5c0,4.2-0.7,7.9-2.2,10.9c-1.5,3-3.5,5.6-6,7.6c-2.5,2-5.9,3.9-10.2,5.7v0.6c3.2,1.4,5.9,3.2,8,5.6
				c2.1,2.3,4,5.3,5.7,8.8l4.1,8.8c1.8,3.9,3.6,6.9,5.4,8.9c1.8,2,3.9,3.2,6.4,3.6v4.3h-25c-2.5-3.5-5.4-8.6-8.5-15.5l-5.1-11.1
				c-1.5-3.3-2.8-5.6-3.9-7c-1.1-1.4-2.2-2.3-3.3-2.9c-1.1-0.5-2.9-0.8-5.3-0.8h-3.8v20.9c0,3.2,0.2,5.5,0.5,6.8
				c0.3,1.3,0.9,2.3,1.8,3.1c0.9,0.8,2.5,1.5,4.8,2.1V442.9z M495.7,362v36.1h6.4c3.5,0,6.3-0.5,8.6-1.4c2.3-0.9,4-2.2,5.4-3.9
				c1.3-1.7,2.2-3.6,2.7-5.9c0.5-2.3,0.7-4.7,0.7-7.4c0-5.9-1.4-10.3-4.2-13.3c-2.8-2.9-6.9-4.4-12.3-4.4
				C499.3,361.9,496.9,361.9,495.7,362z"/>
		</g>
	</g>
	<g>
		<path class="st0" d="M689.7,331.7c-12.3-2.7-24.4-2.8-37.2-0.6c0.9-3.8,1.4-7.3,2.4-10.6c12.9-45.2,55.4-77,105.3-73.7
			c45.6,3,85.4,39.1,92.2,85.1c1.6,10.7,1.6,21.7,1.9,32.6c1.2,43.6,2.2,87.2,3.2,130.8c0.4,17.5,0.9,96.8,1.3,114.3
			c0,1.2,0,2.3,0,3.8c-12.1,0-24.1,0-36.4,0c-0.1-3.1-0.4-67.9-0.4-71c-1.3-53.8-2.6-107.6-3.9-161.4c-0.3-11.5-0.6-23-0.9-34.4
			c-0.8-31.6-24.1-58-55.3-62.6c-30.9-4.6-60.8,13.9-70.8,43.9C690.6,328.9,690.2,330.2,689.7,331.7z"/>
		<path class="st0" d="M747.3,392.9c-51.9,0-103.5,0-155.1,0c6.5-24,33.8-55.4,76.4-55.9C711.3,336.4,739.9,366.9,747.3,392.9z"/>
		<path class="st0" d="M669.5,418.6c-25.6,0-51.2,0-76.9,0c-5.8,0-9.6-2.9-10.3-7.7c-0.9-6,3.3-10.6,9.9-10.6c9.6-0.1,19.2,0,28.9,0
			c27.6,0,55.1,0,82.7,0c14.5,0,29,0,43.4,0c4.1,0,7.5,1.4,9.3,5.4c1.5,3.3,1.2,6.6-1.1,9.5c-2.2,2.8-5.2,3.5-8.7,3.5
			C720.9,418.6,695.2,418.6,669.5,418.6z"/>
	</g>
</g>
</svg>
