<?xml version="1.0" encoding="utf-8"?>
<!-- Generator: Adobe Illustrator 22.0.0, SVG Export Plug-In . SVG Version: 6.00 Build 0)  -->
<svg version="1.1" id="Layer_1" xmlns="http://www.w3.org/2000/svg" xmlns:xlink="http://www.w3.org/1999/xlink" x="0px" y="0px"
	 viewBox="0 0 1080 1080" style="enable-background:new 0 0 1080 1080;" xml:space="preserve">
<style type="text/css">
	.st0{fill:#71020C;}
</style>
<g>
	<path class="st0" d="M339.8,797.4c0.1-0.6,0.2-1.3,0.3-1.9c0.1-0.7,0.2-1.3,0.3-2l-0.4-0.4c0.2-1.3,0.1-2.7-0.2-4.2
		c-0.1-0.6-0.3-1-0.4-1.3c-0.5-0.9-1-1.2-1.7-0.8c-0.7,0.4-1,1.1-1,2.1c0.1,0.3,0.1,0.6,0.2,0.9c0.1,0.3,0.1,0.6,0.2,0.9
		c0.1,0.5,0.1,0.9,0,1.4c0,0.5-0.2,0.9-0.5,1.3l-1.6-1.9c-2.7-2.9-5.8-4.7-9.1-5.2c-3.4-0.5-6.7,0.3-9.9,2.4
		c-1.9,1.2-3.6,2.7-5.1,4.4c-2.5,3-4.4,6.2-5.9,9.6c-1.5,3.5-2.6,7.2-3.5,11.1c-0.5,2-0.8,4-1.1,6.1c-0.3,2-0.5,4.1-0.6,6.3
		c-0.6-0.4-1.1-0.6-1.4-0.7c-0.6-0.2-1.2,0-1.6,0.7c-0.5,0.6-0.4,1.3,0.1,2.1c0.1,0.2,0.1,0.3,0.2,0.3c0.1,0.1,0.1,0.2,0.2,0.3
		c1.4,2.1,2.3,4.5,2.6,7.2c0.3,2.7,0.7,5.4,1.3,8c0.5,2.6,1.2,5.1,2.1,7.6c0.9,2.5,2,4.8,3.2,6.9c1.2,2.1,2.8,4,4.6,5.6
		c5.6,5.2,11.6,6,17.8,2.3c2.5-1.5,4.6-3.4,6.4-5.7c1.8-2.3,3.3-4.9,4.6-7.8l0.3-0.7c0.2-1,0-1.8-0.7-2.3c-0.8-0.6-1.5-0.5-2.1,0.2
		c-0.1,0.2-0.3,0.5-0.4,0.8c-0.1,0.3-0.3,0.5-0.4,0.8c-1,1.9-2,3.6-3.2,5.3c-1.2,1.7-2.5,3.1-4.1,4.4c-0.9,0.8-1.8,1.4-2.8,1.9
		c-1,0.5-2.1,0.6-3.3,0.3c-0.5-0.2-1-0.3-1.5-0.5c-0.5-0.2-0.9-0.5-1.3-1c-1.2-1.4-2.1-3.1-2.8-5.2c-0.9-2.6-1.6-5.3-2-8.1
		c-0.5-2.8-0.7-5.6-0.9-8.4c-0.1-3.5-0.2-7-0.1-10.5c0-3.5,0.3-7,0.7-10.5c0.4-3.3,0.9-6.5,1.6-9.7c0.6-3.2,1.5-6.3,2.6-9.3
		c0.6-1.6,1.2-3,1.9-4.5c0.7-1.4,1.6-2.8,2.6-4c1-1.2,2.2-1.5,3.7-0.9c1.4,0.6,2.7,1.4,3.8,2.4c1.1,1,2.2,2.1,3.2,3.4
		c0.5,0.6,0.8,1.2,1,1.8c0.2,0.6,0.2,1.3,0.1,2.2c-0.3,1.4-0.1,2.9,0.6,4.4c0.4,0.9,1,1.3,1.9,1c0.8-0.2,1.2-0.9,1.2-2v-0.7
		c-0.3-1.1-0.3-2.1-0.2-3.1C339.4,799.6,339.6,798.5,339.8,797.4z M315.2,803l0.1-0.1c-1.8,6.4-3,13-3.6,19.9
		c-0.1,1.2-0.2,2.3-0.3,3.5c-0.1,1.2-0.1,2.3-0.1,3.5c0,1-0.4,1.3-1.1,0.9c-1-0.6-1.9-0.9-2.9-0.9c-1,0-2,0.2-3,0.6
		c-0.5,0.2-0.8,0.2-1,0.1c-0.1-0.1-0.2-0.5-0.2-1.1c0.1-3.3,0.4-6.4,0.8-9.5c0.4-3.1,1.1-6.2,2-9.2c0.8-2.5,1.7-4.9,2.8-7.2
		c1.1-2.3,2.4-4.4,4-6.5c1.5-2,3.3-3.7,5.5-5c0.3-0.2,0.5-0.3,0.8-0.4c0.3-0.1,0.6-0.1,1,0.1C318,795.2,316.3,799,315.2,803z"/>
	<path class="st0" d="M306.9,821.5c-1,0-1.6,0.7-1.6,2.1c0,0.7,0.2,1.3,0.5,1.8c0.3,0.5,0.7,0.8,1.3,0.8c0.5,0,0.9-0.2,1.2-0.7
		c0.3-0.5,0.4-1,0.4-1.7C308.8,822.3,308.1,821.5,306.9,821.5z"/>
	<path class="st0" d="M386.5,818.4c-0.3-0.3-0.6-0.6-0.9-0.8c-0.3-0.2-0.7-0.2-1.1,0.1c-0.9,0.4-1.4,1.2-1.4,2.4
		c0,0.6,0.2,1.2,0.5,1.8c0.4,0.6,0.8,1,1.3,1.1c0.9,0.4,1.6,0.1,2.1-0.9c0.6-1.2,0.5-2.3-0.5-3.5L386.5,818.4z"/>
	<path class="st0" d="M356.1,818.1L356.1,818.1c-0.4,0.5-0.7,1.1-0.8,1.8c-0.1,0.7,0.1,1.4,0.5,2c0.2,0.4,0.5,0.7,0.8,0.9
		c0.6,0.5,1.3,0.6,1.9,0.1c0.6-0.5,1-1.1,1-2c0-0.8-0.2-1.5-0.6-2.1C357.9,817.6,357,817.3,356.1,818.1z"/>
	<path class="st0" d="M396.1,786.5v1.3c-0.6-0.2-1.3-0.3-2-0.1c-0.6,0.2-1.2,0.3-1.7,0.4c-0.6,0.1-1.1,0.3-1.7,0.6
		c-1.1,0.6-2.2,1-3.3,1c-1.1,0.1-2.2,0-3.3-0.1c-0.8-0.2-1.7-0.4-2.4-0.8s-1.6-0.6-2.4-0.8c-0.5-0.1-0.9-0.1-1.3-0.1
		c-0.4,0-0.9,0.1-1.3,0.2c-0.7,0.2-1.1,0.8-1.1,1.7s0.4,1.5,1.2,1.7c0.2,0.1,0.5,0.1,0.9,0.1c0.6,0.1,1,0.5,1,1.3v1.4l-0.3,14.7
		c-0.1,2.2-0.1,4.3-0.1,6.5s0,4.3-0.1,6.5c0,0.9,0,1.7,0,2.4c0,0.8-0.1,1.6-0.1,2.4c0,0.8-0.3,1-0.9,0.6c-0.3-0.2-0.5-0.3-0.7-0.3
		c-1.7-1-3.5-1.6-5.2-1.7c-1.7-0.1-3.5,0.4-5.2,1.5c-0.1,0.1-0.3,0.2-0.4,0.2c-0.2,0.1-0.3,0-0.5-0.1c-0.2-0.2-0.3-0.5-0.2-0.8
		c0-0.3,0-0.5,0-0.8c-0.1-1.1,0-2.1,0.1-3.1c0.1-1,0.1-2.1,0.1-3.1c0-3.5,0.1-6.9,0.2-10.2c0.2-3.3,0.2-6.7,0.1-10.2
		c0-0.9,0-1.9,0-2.8c0-0.9,0-1.9,0-2.8c0-0.9,0.1-1.4,0.2-1.6c0.2-0.2,0.6-0.3,1.3-0.4h0.6c1.2-0.2,1.7-0.9,1.7-2
		c0-1.1-0.5-1.7-1.6-2c-0.5-0.1-1-0.1-1.5,0c-0.5,0.1-1,0.2-1.6,0.2c-0.5,0.1-1,0.3-1.6,0.6c-1.7,0.9-3.4,1.4-5.1,1.3
		c-1.7,0-3.4-0.4-5.1-1.1c-0.6-0.2-1.2-0.4-1.8-0.6c-0.6-0.2-1.2-0.2-1.9-0.1c-1.3,0.2-1.9,0.8-1.9,1.9c0,0.9,0.6,1.5,1.8,1.7h0.6
		c0.5,0.2,0.8,0.5,0.8,1v1.4c0.1,1.9,0,3.9,0,5.8c-0.1,1.9-0.1,3.8-0.1,5.8c-0.1,2.7-0.1,5.4-0.1,8s0,5.3,0,8c0,0.4,0,0.7,0,1
		c0,0.3,0,0.7-0.1,1c-0.1,0.6-0.2,1-0.3,1.1c-0.1,0.1-0.5,0.1-1,0.1c-1.2-0.2-1.8,0.2-2,1.2c-0.3,0.9,0,1.7,0.9,2.2
		c0.5,0.3,0.8,0.7,1,1.1c0.2,0.4,0.4,0.9,0.6,1.5c0.3,0.6,0.4,1.3,0.5,1.9c0.1,0.7,0.1,1.3,0.1,2l-0.3,23v4.2c0,0.9,0,1.4-0.1,1.6
		c-0.1,0.2-0.5,0.4-1.2,0.6c-0.4,0.2-0.7,0.3-0.9,0.5c-0.5,0.4-0.7,0.9-0.7,1.6c0.1,0.8,0.5,1.3,1.2,1.5c0.6,0.2,1.3,0.2,2-0.1
		l1.7-0.7c1.5-0.6,3-1,4.5-1c1.5-0.1,3.1,0.2,4.6,0.8c0.6,0.2,1.3,0.4,1.9,0.5c0.6,0.1,1.2,0.3,1.9,0.4c0.6,0.2,1.2,0.1,1.7-0.1
		c0.8-0.4,1.2-1,1.2-1.9c0-0.9-0.5-1.5-1.5-1.7c-1-0.2-1.6-0.5-1.8-0.7c-0.2-0.2-0.2-1-0.2-2.2v-1.4c0.1-3,0.3-6.1,0.4-9.1
		c0.1-3,0.2-6.1,0.2-9.1c0-1.3,0-2.6,0-3.8s0.1-2.5,0.1-3.8c0-0.3,0-0.6,0.1-0.9c0-0.3,0.2-0.5,0.4-0.8c1-0.9,2.1-1.7,3.2-2.2
		c1.1-0.5,2.3-0.7,3.7-0.3c1,0.2,1.8,0.5,2.6,1.1c0.7,0.6,1.4,1.3,2.1,2.2c0.5,0.7,0.9,1.4,1,2.2c0.2,0.8,0.2,1.6,0.2,2.4
		c-0.1,3.6-0.2,7.1-0.2,10.7s-0.1,7.1-0.1,10.6v3.1c0,0.9-0.1,1.5-0.2,1.7c-0.1,0.2-0.6,0.4-1.3,0.8c-0.4,0.2-0.6,0.3-0.8,0.3
		c-0.6,0.4-0.9,1-0.9,1.7c0.1,0.8,0.5,1.2,1.3,1.4c0.6,0.1,1.3,0,2-0.2l2-0.7c1.4-0.5,2.8-0.9,4.2-1c1.4-0.1,2.8,0.1,4.2,0.8
		c0.6,0.3,1.3,0.5,1.9,0.6c0.6,0.1,1.3,0.3,2,0.4c0.8,0.2,1.5,0.1,2-0.2c0.6-0.4,0.9-1,0.9-1.9c-0.1-0.9-0.5-1.5-1.3-1.7
		c-0.2-0.1-0.5-0.1-0.9-0.1c-0.5-0.2-0.8-0.3-1-0.5c-0.1-0.2-0.2-0.6-0.3-1.3c-0.1-0.9-0.1-1.7,0-2.4c0.1-0.8,0.1-1.6,0.2-2.4
		l0.6-21.6c0.1-2.8,0.2-5.6,0.2-8.4s0.1-5.6,0.2-8.4c0.1-3.5,0.3-6.9,0.4-10.3c0.1-3.4,0.2-6.8,0.1-10.3c0-0.9,0-1.7,0-2.6
		c0-0.9,0-1.8,0-2.6s0.1-1.4,0.2-1.6c0.2-0.2,0.6-0.3,1.2-0.4c0.4,0,0.7,0,0.9-0.1c0.9-0.2,1.4-0.9,1.6-1.9
		C397.6,787.6,397.2,786.9,396.1,786.5z M362.1,806.1c-0.2,3.8-0.3,7.5-0.4,11.3l0.1,0.5l-0.3,9.4c0,0.8-0.1,1.2-0.2,1.3
		c-0.1,0.1-0.5,0-1-0.3c-1.1-0.6-2.2-0.8-3.3-0.6c-1.1,0.2-2.2,0.6-3.3,1.3c-0.1-0.6-0.2-1.2-0.2-1.6c0-0.5,0-0.9,0.1-1.4
		c0.2-3.5,0.3-7,0.2-10.5c-0.1-3.5,0-7,0.1-10.5c0.1-2,0.1-4,0.2-5.9c0.1-1.9,0.1-3.9,0.1-5.9c0-0.8,0.1-1.2,0.2-1.3
		c0.1-0.1,0.5-0.1,1.1-0.1c0.9,0.2,1.9,0.3,2.8,0.4c1,0.1,1.9,0.1,2.9-0.2c0.8-0.2,1.2,0.2,1.2,1.3v1.4
		C362.3,798.6,362.2,802.3,362.1,806.1z M390,805.6c-0.2,3.8-0.3,7.5-0.4,11.3l0.1,0.5l-0.3,9.4c0,0.8-0.1,1.2-0.2,1.3s-0.5,0-1-0.3
		c-1.1-0.6-2.2-0.8-3.3-0.6c-1.1,0.2-2.2,0.6-3.3,1.3c-0.1-0.6-0.2-1.2-0.2-1.6c0-0.5,0-0.9,0.1-1.4c0.2-3.5,0.3-7,0.2-10.5
		c-0.1-3.5,0-7,0.1-10.5c0.1-2,0.1-4,0.2-5.9c0.1-1.9,0.1-3.9,0.1-5.9c0-0.8,0.1-1.2,0.2-1.3c0.1-0.1,0.5-0.1,1.1-0.1
		c0.9,0.2,1.9,0.3,2.8,0.4c1,0.1,1.9,0.1,2.9-0.2c0.8-0.2,1.2,0.2,1.2,1.3v1.4C390.2,798.1,390.1,801.9,390,805.6z"/>
	<path class="st0" d="M413.2,819.3l0.1,0.1c-0.5,0.4-0.8,1-0.9,1.7c-0.1,0.8,0,1.5,0.3,2.1c0.2,0.4,0.5,0.7,0.8,0.9
		c0.6,0.7,1.3,0.8,1.9,0.3c0.7-0.4,1.1-1.1,1.1-2.2c0-0.8-0.2-1.5-0.6-2.1C415.1,818.9,414.1,818.6,413.2,819.3z"/>
	<path class="st0" d="M451,866.6c-0.2-0.8-0.6-1.2-1.4-1.4h-0.6c-0.8,0.1-1.3-0.4-1.5-1.4c-0.2-0.8-0.4-1.5-0.5-2.3
		c-0.2-0.7-0.3-1.5-0.3-2.4c-0.3-4-1-7.8-2-11.5c-0.7-2.3-1.6-4.5-2.7-6.5c-1.1-2-2.4-3.8-3.9-5.5c-0.5-0.5-0.7-0.8-0.7-0.9
		c0-0.2,0.2-0.5,0.7-0.9c7.8-8.5,10.7-19.1,8.6-31.7c-0.5-2.8-1.6-5.2-3.2-7.3c-1.5-2-3.2-3.6-5.1-4.7c-1.9-1.1-3.9-1.9-6-2.6
		c-1.2-0.4-2.4-0.5-3.6-0.5c-1.2,0.1-2.4,0.1-3.6,0.1c-0.8,0-1.7,0.1-2.5,0.2c-0.8,0.2-1.6,0.4-2.3,0.8c-1.7,0.9-3.3,1.3-5,1.2
		c-1.6,0-3.3-0.4-5-1c-0.6-0.2-1.2-0.4-1.7-0.6c-0.6-0.2-1.2-0.2-1.7-0.2c-1.6,0-2.3,0.6-2.3,1.9c0,0.9,0.6,1.5,1.9,1.7
		c0.8,0.1,1.2,0.6,1.2,1.6v3.8c0,2,0,4-0.1,6.1c-0.1,2-0.1,4-0.1,6.1c0,2.2,0,4.3,0,6.5c0,2.1,0,4.3,0,6.5c0,0.4,0,0.8,0,1.2
		c0,0.4-0.1,0.8-0.1,1.2c-0.1,0.6-0.4,0.8-0.9,0.6l-0.6-0.4c-1-0.3-1.7-0.1-2.1,0.7c-0.5,0.9-0.2,1.7,0.8,2.3
		c0.5,0.4,0.9,0.8,1.2,1.3c0.3,0.5,0.6,1,0.8,1.6c0.3,0.7,0.4,1.4,0.5,2.1c0.1,0.7,0.1,1.4,0.1,2.1l-0.3,22.3v5.6
		c0,1-0.4,1.6-1.1,1.6c-0.6,0.2-1.1,0.3-1.4,0.6c-0.5,0.4-0.6,0.9-0.6,1.4c0.1,0.7,0.4,1.2,1.1,1.4c0.6,0.2,1.3,0.2,2,0
		c0.4-0.2,0.8-0.3,1.2-0.5c0.4-0.2,0.8-0.3,1.2-0.5c1.4-0.6,2.8-1,4.2-1.1c1.4-0.1,2.8,0.1,4.3,0.8c0.6,0.3,1.3,0.5,1.9,0.6
		c0.6,0.1,1.3,0.3,2,0.4c0.6,0.2,1.2,0.1,1.7-0.1c0.8-0.4,1.2-1,1.2-1.9c0-1-0.5-1.6-1.5-1.9c-1-0.2-1.6-0.5-1.8-0.7
		c-0.2-0.2-0.2-1-0.2-2.2v-1.4c0.1-3,0.3-6.1,0.4-9.1c0.1-3,0.2-6.1,0.2-9.1c0-0.6,0-1.2,0.1-1.7c0.1-0.5,0.1-1.1,0.2-1.7
		c0.1-1,0.6-1.5,1.4-1.5c1.1-0.1,2.2,0,3.3,0.2c1.1,0.2,2.1,0.6,3.1,1.1c1,0.5,1.9,1.3,2.7,2.2c0.8,0.9,1.5,2,2.1,3.3
		c0.3,0.9,0.6,1.7,0.9,2.6c0.3,0.9,0.5,1.7,0.8,2.6c0.6,2.2,1,4.4,1.3,6.6c0.3,2.3,0.6,4.5,0.9,6.8c0.1,0.9-0.2,1.5-0.9,2l-2.6,1.7
		c-0.8,0.5-1.1,1.2-0.9,2c0.2,1.1,0.8,1.6,1.7,1.4c0.3-0.1,0.8-0.3,1.5-0.6c1.1-0.5,2.2-0.7,3.4-0.8c1.1-0.1,2.2,0.2,3.4,0.7
		c0.5,0.2,1.1,0.4,1.7,0.5c0.6,0.1,1.1,0.3,1.7,0.4c1.2,0.3,2.3,0.2,3.1-0.5c0.8-0.5,1.1-1.2,0.9-2.1V866.6z M419.2,796.2
		c0,0.7,0,1.3,0,1.9c0.1,3.8,0,7.6-0.1,11.3c-0.1,3.8-0.3,7.5-0.4,11.3c-0.1,1.2-0.1,2.5-0.1,3.7c0,1.2,0,2.4-0.1,3.7
		c0,1-0.3,1.4-0.9,1c-1.1-0.7-2.2-1-3.2-0.9c-1.1,0.1-2.1,0.5-3.2,1.1h-0.4c-0.2-0.9-0.2-1.9-0.1-2.9c0.1-2,0.2-4.1,0.2-6.1
		c0-2.1,0-4.1,0.1-6.1l0.3-19.9c0-0.9,0.1-1.5,0.2-1.6c0.1-0.2,0.6-0.2,1.3-0.1c0.9,0.1,1.8,0.2,2.6,0.3c0.8,0.1,1.7,0.1,2.6-0.2
		c0.5-0.2,0.8-0.1,1,0.1c0.2,0.2,0.2,0.7,0.2,1.4C419.3,794.9,419.2,795.5,419.2,796.2z M431.8,817.4c-0.8,2.8-2.1,5.5-3.7,8v-0.2
		c-0.6,0.9-1.4,1.7-2.2,2.3c-0.8,0.6-1.7,1.1-2.7,1.5c-0.5,0.2-0.8,0.2-1,0.1c-0.1-0.1-0.2-0.5-0.2-1.1c0-0.9,0-1.9,0-2.8
		s0-1.9,0.1-2.8c0.4-9.3,0.6-18.6,0.6-27.9c0-1.3,0.1-2.1,0.4-2.4c0.3-0.3,1-0.2,2.1,0.2c1.5,0.5,2.8,1.2,3.8,2.2
		c1.1,1,1.9,2.4,2.5,4.2c0.5,1.6,0.9,3.1,1.1,4.8c0.2,1.6,0.4,3.3,0.4,5C433,811.5,432.6,814.6,431.8,817.4z M437.1,829.1
		c-0.4,0.5-0.8,0.5-1.3,0.1v-0.1c-0.3-0.4-0.8-0.8-1.5-1.2c-0.5-0.4-0.8-0.7-0.9-0.8c-0.1-0.2,0-0.6,0.3-1.3
		c0.6-1.6,1.1-3.1,1.4-4.7c0.4-1.6,0.7-3.1,0.9-4.8c0.3-2.6,0.4-5.1,0.3-7.6c-0.1-2.5-0.4-5-0.8-7.5c-0.4-2.2-0.9-4.1-1.7-5.5
		c-0.7-1.4-1.8-3-3.4-4.8c1.9,0.5,3.8,1.2,5.4,2.1c1.7,0.9,3.2,2.1,4.5,3.7c1.3,1.6,2.1,3.3,2.5,5.1c2,9.7,0.3,18.4-5.1,26.2
		L437.1,829.1z"/>
	<path class="st0" d="M470.1,867.4c0.6,0.2,1.3,0.4,1.9,0.5c0.6,0.1,1.2,0.3,1.9,0.4s1.3,0,2-0.4c0.7-0.4,1-1,0.9-1.9
		c-0.1-0.9-0.5-1.4-1.2-1.6c-0.2-0.1-0.5-0.1-0.9-0.1c-0.6-0.2-0.9-0.3-1.1-0.5c-0.1-0.2-0.2-0.6-0.2-1.3c0-1.7,0-3.4,0-5.1
		c0-1.7,0.1-3.4,0.1-5.1c0.1-3.9,0.3-7.7,0.4-11.5c0.1-3.8,0.2-7.6,0.4-11.5c0.1-2.9,0.1-5.9,0.1-8.7c0-2.9,0.1-5.8,0.2-8.7
		c0.1-2.9,0.2-5.9,0.1-8.9c0-3,0-6,0.1-8.9c0.1-1.2,0.2-1.9,0.3-2.1c0.1-0.2,0.7-0.4,1.7-0.6h0.6c0.8-0.2,1.2-0.7,1.3-1.5
		c0.1-0.9-0.3-1.6-1-2.1l-0.1,0.1c-0.3-0.2-0.7-0.4-1.1-0.4c-0.4,0-0.8,0-1.2,0.1c-0.7,0.2-1.4,0.3-2,0.5c-0.6,0.2-1.3,0.4-1.9,0.8
		c-1.2,0.6-2.6,0.9-4.2,0.9c-0.9,0-1.8-0.1-2.7-0.3c-0.9-0.2-1.8-0.5-2.7-0.9c-0.6-0.2-1.2-0.4-1.8-0.6c-0.6-0.2-1.2-0.2-1.9,0
		c-1,0.2-1.6,0.9-1.6,1.9c0,1,0.5,1.6,1.5,1.9c0.8,0.2,1.2,0.4,1.4,0.6c0.1,0.2,0.2,0.8,0.2,1.8v9.1c0.1,3.5,0,6.9-0.1,10.3
		c-0.2,3.4-0.2,6.8-0.1,10.3c0,0.9-0.1,1.5-0.2,1.6c-0.1,0.1-0.6,0.1-1.3-0.2c-1-0.3-1.7-0.1-2.1,0.7c-0.5,0.9-0.2,1.7,0.8,2.3
		c0.6,0.4,1.1,0.9,1.4,1.5c0.3,0.6,0.6,1.3,0.8,2c0.3,1,0.5,2,0.4,3c0,1,0,2,0,3c-0.1,4-0.1,7.9-0.1,11.8c0,3.9-0.1,7.8-0.2,11.8
		c-0.1,0.9-0.1,1.8-0.2,2.6c-0.1,0.8-0.7,1.2-1.8,1.4c-0.6,0.2-1,0.7-1,1.6c0,0.9,0.4,1.4,1.2,1.6c0.6,0.2,1.1,0.2,1.7,0
		c0.4-0.2,0.8-0.3,1.2-0.4c0.4-0.1,0.8-0.2,1.2-0.4c1.5-0.6,2.9-1,4.4-1S468.6,866.8,470.1,867.4z M463.2,830
		c-0.1-0.1-0.2-0.5-0.2-1.2v-6.9c0.1-4.3,0.2-8.6,0.2-13.1c0-4.5,0-9,0-13.6v-1c0-0.6,0.3-0.9,0.9-0.8l2.3,0.3
		c0.6,0.2,1.3,0.2,1.9,0.1c0.6-0.1,1.2-0.2,1.9-0.3c0.8-0.1,1.2,0.3,1.2,1.2c-0.1,1.6-0.1,3.1,0,4.7c0,1.6,0,3.2-0.1,4.7l0.2,0.1v1
		c-0.1,3.7-0.2,7.4-0.3,11.2c-0.1,3.7-0.2,7.4-0.1,11.2v1.4c-0.1,0.6-0.2,1-0.3,1c-0.1,0.1-0.4,0-0.9-0.2c-1.9-1-3.8-1-5.7-0.1
		C463.6,830,463.3,830.1,463.2,830z"/>
	<path class="st0" d="M468.9,822.9c0-0.7-0.2-1.4-0.7-2c-0.5-0.7-0.9-1.1-1.5-1.2h-0.2c-0.4-0.1-0.8,0-1.1,0.3
		c-0.4,0.3-0.6,0.7-0.7,1.2c-0.2,0.7-0.2,1.4,0,2.1c0.2,0.7,0.6,1.2,1.1,1.6c0.7,0.5,1.4,0.6,2,0.1
		C468.6,824.5,468.9,823.8,468.9,822.9z"/>
	<path class="st0" d="M516.4,831.5c-3-4-6.4-7.5-10.1-10.7c-1.3-1.1-2.6-2.2-3.9-3.3c-1.3-1.1-2.6-2.2-3.8-3.5
		c-1.2-1.2-2.2-2.4-3.2-3.8c-0.9-1.4-1.7-2.9-2.2-4.7c-0.5-2-0.4-4.1,0.3-6.3c0.7-2.2,1.8-3.8,3.4-4.9c1.5-1,3.1-1.7,5-2.2
		c1-0.2,2.1-0.3,3.1-0.2s2,0.4,2.9,1c1.4,0.9,2.5,1.9,3.4,3.3c0.9,1.3,1.3,3,1.2,5.1c-0.1,2,0.4,3.7,1.6,5.1
		c0.5,0.8,1.1,0.9,1.8,0.5c0.8-0.5,1-1.4,0.7-2.4c-0.1-0.2-0.2-0.6-0.5-1c-0.5-1.1-0.6-2.4-0.3-4c0.3-0.9,0.6-1.9,1.2-2.9
		c0.5-1,0.9-2,1.2-2.9c0.2-0.9,0.3-1.7,0.2-2.4c-0.2-1-0.7-1.5-1.5-1.5c-0.8,0-1.3,0.4-1.5,1.3c-0.1,0.2-0.1,0.6-0.1,1
		c-0.1,0.9-0.5,1.8-1,2.6c-0.3-0.2-0.6-0.3-0.7-0.5c-0.1-0.2-0.3-0.4-0.4-0.5c-1.4-2.2-3.1-3.8-5-4.6c-1.9-0.8-4-1-6.3-0.6
		c-4.1,0.6-7.7,2.7-10.6,6.2c-1.9,2.3-3.4,4.7-4.4,7.4c-1.1,2.7-1.9,5.6-2.4,8.7c-0.9,5.6,0,10.8,2.6,15.6c0.1,0.2,0.2,0.5,0.3,0.7
		c0.1,0.2,0.2,0.5,0.3,0.7c0.3,0.6,0.5,1,0.4,1.1c0,0.1-0.3,0.3-0.8,0.6c-0.1,0.2-0.3,0.3-0.5,0.3c-0.2,0.1-0.4,0.2-0.5,0.3
		c-0.6,0.5-0.8,1.2-0.6,2c0.2,0.9,0.7,1.3,1.7,1.2c0.3-0.1,0.5-0.2,0.7-0.2c0.2-0.1,0.5-0.2,0.7-0.2c1.5-0.5,2.8,0,3.9,1.3
		c0.3,0.4,0.7,0.8,1.1,1.1c0.4,0.3,0.9,0.7,1.3,1.1c1.4,1.2,2.8,2.5,4.2,3.7c1.4,1.2,2.8,2.5,4.1,3.8c2.1,1.9,3.8,4,5.1,6.3
		c0.6,1,1,2.1,1.1,3.2c0.2,1.1,0.2,2.2,0,3.3c-0.2,1.1-0.5,2.1-1,3.1c-0.5,1-1.2,1.8-2,2.5c-1.6,1.4-3.2,2.1-5,2.2
		c-1.5,0.1-2.9-0.1-4.2-0.6c-1.3-0.5-2.6-1.1-3.9-1.9c-1.2-0.6-2.2-1.7-3.2-3.3c-0.8-1.2-1.3-2.4-1.5-3.7c-0.2-1.3-0.3-2.7-0.2-4.2
		c0-1.1,0.1-2.1,0.4-2.9c0.3-0.9,0.8-1.6,1.6-2.2c0.9-0.9,1.1-1.7,0.7-2.6c-0.5-1-1.2-1.2-2.2-0.6c-1.2,0.7-2.2,1.8-2.9,3.3
		c-1.9,4.1-2.2,8.2-0.7,12.3c1,3,2.4,5.4,4.2,7.4c1.8,2,4,3.4,6.8,4.1c1.1,0.3,2.2,0.5,3.2,0.5s2.1,0,3.2-0.1
		c1.5-0.1,2.9-0.3,4.3-0.8c1.4-0.5,2.6-1.2,3.8-2.3c3.2-2.8,5.7-6.1,7.4-9.8c1.7-3.7,2.4-8,2-12.9l0.1-0.3
		C520.3,838.8,518.9,834.8,516.4,831.5z M508.1,829.6c-0.2,0-0.4,0.1-0.6,0.2l0.1-0.1c-1.3,0.4-2.4,1-3.4,1.8c-1,0.8-1.9,2-2.6,3.4
		c-0.3,0.6-0.5,1-0.6,1c-0.1,0-0.4-0.1-0.9-0.5c-1.7-1.4-3.3-2.9-4.8-4.4c-1.5-1.6-2.9-3.3-4.2-5.1c-3.2-4.6-4.3-9.7-3.1-15.2
		c0.1-0.9,0.3-1.7,0.4-2.6c0.2-0.9,0.5-1.8,1-2.9c0.7,3.5,1.9,6.3,3.6,8.6c1.7,2.2,3.6,4.2,5.7,6.1c1.3,1.2,2.6,2.4,4,3.5
		c1.4,1.1,2.7,2.3,4,3.6c0.3,0.4,0.6,0.7,1,1c0.3,0.3,0.6,0.7,0.9,1C508.4,829.4,508.3,829.6,508.1,829.6z"/>
	<path class="st0" d="M498.6,824l0.1,0.1c-0.5,0-0.8,0.2-1.1,0.6c-0.3,0.4-0.4,1-0.4,1.6c0,0.6,0.2,1.2,0.5,1.7
		c0.4,0.5,0.8,0.8,1.3,0.8c0.5,0,0.8-0.2,1.2-0.6c0.3-0.4,0.5-1,0.5-1.6c0-0.6-0.2-1.2-0.6-1.7S499.1,824,498.6,824z"/>
	<path class="st0" d="M547.1,821.3c-0.5,0-1,0.3-1.3,0.8c-0.4,0.5-0.5,1.1-0.5,1.8c0,0.8,0.2,1.5,0.7,2.1c0.5,0.6,1,0.9,1.6,0.9
		c0.5,0,1-0.2,1.4-0.7c0.4-0.5,0.6-1,0.6-1.7c0-0.8-0.3-1.5-0.8-2.2C548.2,821.6,547.6,821.3,547.1,821.3z"/>
	<path class="st0" d="M570.9,785.6c-0.6-0.2-1.2,0.1-1.7,1c-0.1,0.3-0.2,0.5-0.2,0.7c-0.1,0.8-0.6,1.1-1.4,0.9
		c-2.7-0.6-5.2-0.8-7.8-0.5c-2.5,0.3-5.1,1-7.6,2.1c-1.1,0.5-2.2,0.8-3.3,1c-1.1,0.2-2.2,0.1-3.3-0.3c-1.6-0.5-3.1-0.8-4.7-1.1
		c-1.6-0.3-3.2-0.5-4.8-0.8c-0.8-0.2-1.7-0.2-2.5-0.2c-0.8,0-1.6,0.1-2.5,0.2c-0.5,0.2-0.8,0.2-1.1,0.1c-0.3-0.1-0.5-0.5-0.7-1.1
		c-0.4-1.1-1-1.5-1.7-1.3c-0.7,0.2-1,1-1,2.2c0.1,1.1,0,2.1-0.1,3.1c-0.2,1-0.4,2-0.6,3c-0.1,0.6-0.2,1.2-0.3,1.7
		c-0.1,0.5-0.2,1.1-0.3,1.7c-0.2,1.2-0.1,2.4,0.4,3.8c0.5,1.3,1.1,1.8,2,1.5c0.5-0.2,0.8-0.4,1-0.9c0.2-0.4,0.3-1,0.1-1.6
		c-0.3-1.1-0.3-2.1-0.1-3.1c0.2-1,0.4-2.1,0.6-3.1c0.2-0.9,0.7-1.5,1.7-1.7c1.5-0.3,2.9-0.4,4.3-0.2c1.4,0.2,2.8,0.4,4.2,0.7
		c0.9,0.2,1.4,0.3,1.6,0.6c0.2,0.2,0.2,0.9,0.2,2.1c0,3-0.1,6.1-0.2,9.1c-0.1,3-0.2,6.1-0.1,9.1c0,1.5,0,2.9,0,4.4
		c0,1.4,0,2.9,0,4.4c0,0.4,0,0.7,0,1c0,0.3,0,0.7-0.1,1c-0.1,0.9-0.5,1.2-1.2,0.9c-0.3-0.2-0.5-0.2-0.6-0.2c-1-0.2-1.6,0.1-1.9,1
		c-0.3,0.9,0,1.7,0.9,2.2c0.5,0.4,0.9,0.8,1.2,1.3c0.3,0.5,0.5,1,0.7,1.6c0.3,0.7,0.4,1.4,0.5,2.1c0.1,0.7,0.1,1.4,0.1,2.1
		l-0.3,16.4c-0.1,1.8-0.1,3.6-0.1,5.4c0,1.8,0,3.6,0,5.4c0,0.9,0,1.5-0.1,1.7c-0.1,0.2-0.5,0.4-1.2,0.6c-0.3,0-0.5,0-0.6,0.1
		c-0.8,0.4-1.2,1-1.1,1.9c0.1,1,0.6,1.6,1.5,1.6c0.4,0.2,0.8,0.2,1.3,0c0.5-0.2,0.9-0.3,1.3-0.4c0.4-0.1,0.8-0.2,1.2-0.4
		c1.5-0.6,2.9-1,4.4-1c1.4-0.1,2.9,0.2,4.4,0.8c0.7,0.2,1.4,0.4,2.1,0.6c0.7,0.2,1.4,0.3,2.1,0.3c0.3,0,0.6,0,0.9,0
		c0.3,0,0.5-0.1,0.8-0.2c0.6-0.4,1-0.9,1-1.6c0-0.8-0.4-1.4-1.1-1.7c-0.3-0.2-0.8-0.2-1.5-0.2c-0.8,0-1.2-0.5-1.2-1.4
		c0-0.5,0-1.1,0-1.6c0-0.5,0-1,0-1.6c0.1-1.7,0.2-3.4,0.2-5.1c0-1.7,0.1-3.4,0.1-5.1c0.1-4.2,0.2-8.3,0.2-12.4
		c0-4.1,0.1-8.2,0.1-12.4v-1.7c0.1-3.6,0.3-7.3,0.4-10.8c0.1-3.6,0.2-7.2,0.2-10.8v-7.3c0-0.9,0.1-1.6,0.3-1.9
		c0.2-0.3,0.7-0.6,1.5-0.8c0.6-0.2,1.2-0.2,1.7-0.2h4.7c0.7,0,1.4,0.1,2.1,0.3c0.7,0.2,1.4,0.4,2.1,0.6c1,0.3,1.7,1.1,1.8,2.4
		c0.1,0.9,0.2,1.7,0.3,2.6c0.1,0.9-0.1,1.8-0.4,2.6c-0.1,0.5-0.1,1,0.1,1.5c0.2,0.4,0.5,0.7,0.9,0.9c0.8,0.4,1.5,0,2-1
		c0.4-0.8,0.6-1.7,0.6-2.7c0.1-2-0.2-4.1-0.8-6.2l0.4-0.5c-0.3-0.9-0.5-1.7-0.6-2.5c-0.2-0.8-0.2-1.6-0.2-2.5v-0.7
		C571.8,786.1,571.5,785.6,570.9,785.6z M551.9,813.1c-0.1,3.2-0.2,6.5-0.3,9.8c-0.1,1.2-0.1,2.5-0.1,3.7s0,2.4,0,3.7
		c0,0.8-0.1,1.2-0.2,1.3c-0.1,0.1-0.5,0-1-0.3c-1.8-1.1-3.7-1.1-5.6,0c-0.5,0.3-0.9,0.4-1,0.3c-0.2-0.1-0.2-0.5-0.1-1.2
		c0.1-2,0.2-4.1,0.2-6.1c0-2.1,0-4.1,0.1-6.1l0.3-21c0-0.9,0-1.4,0.1-1.5s0.5-0.2,1.2-0.1c1,0.1,1.9,0.1,2.9,0.1
		c0.9,0,1.9-0.2,2.8-0.5c0.5-0.2,0.8-0.2,0.9-0.1c0.1,0.1,0.1,0.5,0.1,1.1v8.1l0.1-0.5C552.1,806.8,552,809.9,551.9,813.1z"/>
	<path class="st0" d="M638.5,787.9c-1.5,0.1-3,0.5-4.6,1.3c-1.1,0.5-2.3,0.8-3.6,0.8c-2.2,0.2-4.2-0.2-6.1-1.2
		c-1.4-0.6-2.6-0.6-3.5,0c-0.9,0.6-1.7,1.5-2.3,2.6c-0.6,1.1-1.1,2.3-1.5,3.5c-0.3,1.1-0.6,2.2-0.9,3.3c-0.3,1.1-0.5,2.2-0.7,3.3
		c-1,5.4-1.9,10.7-2.9,16.1c-0.9,5.4-1.8,10.7-2.7,16.2c-0.2,1.3-0.4,2.7-0.7,4c-0.3,1.4-0.5,2.7-0.8,4c-0.2-1.3-0.3-2.7-0.4-4
		c-0.1-1.4-0.2-2.7-0.3-4c-0.3-3.3-0.6-6.5-0.9-9.8c-0.3-3.3-0.6-6.5-0.9-9.8c-0.3-2.8-0.6-5.6-0.9-8.4c-0.3-2.8-0.8-5.5-1.4-8.3
		c-0.1-0.6-0.3-1.3-0.4-1.9c-0.2-0.7-0.4-1.3-0.6-1.9c-0.9-2.2-2.1-3.8-3.4-4.6c-1.4-0.8-3-0.8-4.7,0.1c-1.6,0.8-3.1,1.2-4.6,1.2
		c-1.5,0-3.1-0.3-4.6-0.9c-0.5-0.2-1-0.3-1.5-0.4c-0.5-0.1-0.9-0.2-1.5-0.4c-0.7-0.2-1.4-0.2-2,0c-0.9,0.3-1.4,0.9-1.4,1.7
		c0,0.9,0.5,1.5,1.4,1.7h0.6c0.8,0,1.2,0.5,1.2,1.6v1.7c0.1,4.7,0,9.3-0.1,14c-0.1,4.7-0.2,9.3-0.3,14c0,0.4,0,0.8,0.1,1.2
		c0.1,0.4,0,0.8-0.3,1.1c-0.3,0.3-0.5,0.3-0.8,0.1c-0.3-0.2-0.6-0.4-0.9-0.5c-0.8-0.2-1.4,0.2-1.7,1c-0.3,0.9-0.1,1.6,0.6,2.2
		l0.6,0.4c0.5,0.3,0.9,0.9,1.3,1.6c0.4,0.9,0.7,1.9,0.9,2.8c0.2,0.9,0.3,1.9,0.1,3c-0.1,0.5-0.1,0.9-0.1,1.4c0,0.5,0,0.9,0,1.4
		c0,2.9,0,5.7,0,8.6c0,2.8,0,5.7-0.1,8.6c0,1.2,0,2.5,0,3.7c0,1.2-0.1,2.4-0.1,3.7c0,1.1-0.4,1.7-1.1,1.7c-0.1,0-0.3,0.1-0.6,0.2
		c-0.8,0.4-1.2,1-1.2,2c0.1,0.9,0.7,1.5,1.7,1.6c0.8,0.2,1.5,0,2.2-0.3c3.8-1.9,7.6-2,11.5-0.3c0.6,0.2,1.2,0.4,1.8,0.5
		c0.6,0.1,1.2,0,1.9-0.1c1.1-0.2,1.7-0.9,1.7-2.1c0-1-0.6-1.6-1.7-1.9c-0.8-0.2-1.3-0.3-1.5-0.5c-0.1-0.2-0.2-0.7-0.2-1.7
		c0-2.9,0.1-5.9,0.2-8.9c0.1-3,0.3-6,0.4-8.9c0.2-4.7,0.3-9.5,0.3-14.3c0.1-4.9,0.2-9.8,0.4-14.7c0.2-4.9,0.3-9.8,0.2-14.7
		c0-0.8,0-1.5,0.1-2.3c0.1-0.7,0.2-1.5,0.4-2.3c0.3,0.5,0.6,1.1,0.7,1.6c0.1,0.5,0.3,1.1,0.4,1.7c0.6,3.4,1.1,6.8,1.4,10.2
		c0.3,3.4,0.6,6.9,0.9,10.4c0.3,3,0.5,6.1,0.7,9.1c0.1,3,0.4,6.1,0.9,9.1c0.5,3.6,1,7.3,1.7,10.8c0.2,1.1,0.6,2,1.1,2.7
		c0.5,0.7,1.2,1.3,2.1,1.7c1.6,0.7,2.7,0.1,3.2-1.9c0.1-0.4,0.3-1,0.4-1.7c0.8-4.4,1.5-8.8,2.2-13.2c0.7-4.3,1.3-8.7,1.8-13.2
		c0.3-3.3,0.8-6.4,1.5-9.5c0.7-3.1,1.3-6.2,1.8-9.4c0.3-1.8,0.7-3.5,1-5.2c0.4-1.7,0.8-3.4,1.4-5.1c0.1-0.4,0.3-0.8,0.4-1.3
		c0.1-0.5,0.4-0.6,0.9-0.5c0.3,0.2,0.5,0.4,0.4,0.9c0,0.4,0,0.8,0,1.2c0.1,4.7,0,9.4-0.1,14.1c-0.1,4.7-0.2,9.4-0.2,14.1
		c0,1-0.1,1.6-0.2,1.7c-0.1,0.1-0.6,0.1-1.5-0.1c-1-0.2-1.6,0.1-1.9,0.9c-0.3,0.9-0.1,1.6,0.8,2.3c0.3,0.2,0.5,0.3,0.8,0.5
		c0.3,0.2,0.5,0.4,0.6,0.8c0.5,0.9,0.9,1.9,1.2,2.9c0.3,1,0.3,2.1,0.2,3.1c-0.1,0.5-0.1,0.9-0.1,1.4c0,0.5,0,0.9,0,1.4
		c-0.1,4.1-0.1,8.2-0.1,12.2c0,4-0.1,8.1-0.2,12.2c-0.1,1-0.2,1.6-0.3,1.8c-0.1,0.2-0.6,0.4-1.4,0.8c-1.1,0.5-1.6,1.2-1.5,2.1
		c0.2,1.2,0.9,1.7,2,1.5c0.5-0.1,1-0.2,1.5-0.3c0.5-0.2,0.9-0.3,1.5-0.5c1.6-0.6,3.1-1,4.7-1c1.6-0.1,3.1,0.2,4.8,0.8
		c1.5,0.6,2.9,0.9,4.3,0.8c1.3-0.2,2-0.8,2.1-2c0.1-1.2-0.6-1.9-2-2.1h-0.3c-0.6-0.1-0.9-0.2-1-0.3c-0.1-0.1-0.1-0.6-0.1-1.3
		c0-1.6,0-3.3,0-4.9c0-1.6,0.1-3.3,0.1-4.9l0.1-0.9c0.1-3.9,0.2-7.7,0.3-11.5c0.1-3.8,0.2-7.6,0.3-11.5c0.1-3.1,0.1-6.2,0.1-9.3
		c0-3.1,0.1-6.1,0.2-9.3c0.1-2.8,0.2-5.6,0.1-8.4c0-2.8,0-5.6,0.1-8.4c0.1-1.1,0.1-1.7,0.2-1.9c0.1-0.2,0.6-0.3,1.4-0.5
		c1.6-0.2,2.3-0.9,2.2-2.1C640.8,788.3,640,787.7,638.5,787.9z M593.4,805.4c-0.1,3.1-0.2,6.3-0.3,9.6l0.1,0.1
		c-0.1,2.3-0.2,4.5-0.1,6.7c0,2.3,0,4.5,0,6.8c0,0.4,0,0.8,0.1,1.3c0.1,0.5-0.1,0.9-0.4,1.2c-0.3,0.3-0.6,0.3-1,0
		c-0.3-0.3-0.6-0.5-1-0.7c-1.6-0.4-3.1-0.2-4.5,0.5c-0.6,0.3-1,0.4-1.2,0.3c-0.1-0.1-0.2-0.6-0.2-1.5v-6.7c0.1-4.3,0.2-8.7,0.2-13.2
		c0-4.5,0-9,0-13.6v-0.7c0-0.8,0.3-1.1,1-1c0.4,0.1,0.8,0.1,1.2,0.1c0.4,0,0.8,0,1.2,0.1c0.6,0.2,1.3,0.2,1.9,0.2
		c0.6,0,1.2-0.1,1.9-0.3c0.6-0.2,0.9-0.2,1.1,0c0.1,0.2,0.2,0.6,0.2,1.3C593.5,799.1,593.5,802.3,593.4,805.4z M633.7,804.2
		l-0.2-0.6c-0.2,4.2-0.4,8.3-0.5,12.4c-0.1,4.1-0.2,8.2-0.2,12.4v0.7c0,1.1-0.1,1.7-0.2,1.9c-0.2,0.2-0.6,0-1.4-0.3
		c-1.6-0.8-3.3-0.7-5.1,0.3c-0.5,0.3-0.8,0.4-1,0.3c-0.1-0.1-0.2-0.5-0.2-1.2v-6.9c0.1-4.3,0.2-8.7,0.2-13.2c0-4.5,0.1-9,0.1-13.6
		c0-1,0.1-1.6,0.3-1.7c0.2-0.2,0.7-0.2,1.6,0c0.9,0.2,1.8,0.3,2.6,0.3c0.8,0,1.7,0,2.6-0.1c0.6-0.1,0.9-0.1,1.1,0.1
		c0.1,0.1,0.2,0.5,0.2,1.2c0,1.3,0,2.7,0,4C633.7,801.5,633.7,802.9,633.7,804.2z"/>
	<path class="st0" d="M590,822c-0.3-0.3-0.6-0.5-0.9-0.7c-0.3-0.2-0.6-0.1-1,0.1c-0.7,0.5-1.1,1.2-1.1,2.3c0,0.7,0.2,1.3,0.5,1.9
		c0.4,0.6,0.8,1,1.3,1.1c0.8,0.2,1.5-0.2,2-1.2c0.6-1.2,0.4-2.3-0.6-3.5L590,822z"/>
	<path class="st0" d="M628.7,820.9v0.1c-0.5,0-1,0.3-1.3,0.8c-0.4,0.5-0.5,1.1-0.5,1.9c0,0.9,0.2,1.6,0.7,2.1c0.5,0.5,1,0.8,1.7,0.8
		c1.2,0,1.7-0.9,1.7-2.6c0-0.8-0.2-1.5-0.7-2.2C629.7,821.3,629.2,820.9,628.7,820.9z"/>
	<path class="st0" d="M700.5,864c-0.5-0.1-0.9-0.1-1.3-0.2c-0.4,0-0.9-0.1-1.3-0.3c-1.2-0.2-2-1.1-2.2-2.6c-0.5-3-1.1-6.1-1.7-9.1
		s-1.2-6.1-1.8-9.1l-9.3-48.9c-0.3-1.3-0.3-2.1-0.2-2.4c0.1-0.3,0.8-0.4,2.2-0.4c1.6,0,2.3-0.7,2.3-2c0-1.2-0.8-1.8-2.3-2
		c-0.9-0.1-1.8,0-2.7,0.1c-0.9,0.2-1.8,0.4-2.7,0.7c-1.2,0.4-2.4,0.6-3.6,0.7c-1.2,0.1-2.4-0.2-3.6-0.7c-0.3-0.2-0.7-0.2-1-0.3
		c-0.4,0-0.7-0.1-1-0.2c-0.8-0.2-1.7-0.3-2.5-0.3c-0.8,0-1.6,0-2.5,0.1c-0.9,0.2-1.4,0.7-1.4,1.6c0,1,0.4,1.6,1.3,1.9
		c0.3,0.1,0.5,0.1,0.8,0.1c0.3,0,0.6,0,0.9,0c1,0.1,1.5,0.2,1.7,0.4c0.1,0.2,0,0.8-0.3,1.9l-8.5,32.5c-0.1,0.4-0.2,0.8-0.3,1.1
		c-0.1,0.3-0.3,0.7-0.6,1.1c-0.1-0.2-0.2-0.3-0.2-0.5s-0.1-0.3-0.2-0.5l-0.6-0.7c-0.7-0.6-1.3-0.6-1.8,0c-0.6,0.6-0.7,1.4-0.3,2.3
		c0.1,0.2,0.1,0.3,0.2,0.3c0.1,0.1,0.1,0.2,0.2,0.3c0.5,1.1,0.9,2.2,1.1,3.4c0.2,1.2,0.2,2.4-0.1,3.7c-1.2,4.4-2.3,8.8-3.4,13.2
		c-1.1,4.3-2.3,8.7-3.5,13.2l-0.3,0.7c-0.2,0.8-0.6,1.2-1.4,1.2c-0.3,0-0.7,0-1,0s-0.7,0-1,0.1c-0.9,0.2-1.4,0.7-1.4,1.6
		c0,1,0.4,1.6,1.3,1.7c0.5,0.2,1.1,0.3,1.6,0.3s1.1,0.1,1.6,0c1.8-0.2,3.5-0.7,5.1-1.4c1.8-0.9,3.6-0.9,5.3-0.1
		c0.5,0.2,1.1,0.4,1.7,0.6c0.6,0.2,1.1,0.3,1.7,0.5c0.8,0.2,1.5,0.3,2,0.2c0.8-0.2,1.2-0.7,1.4-1.6c0.1-0.9-0.3-1.6-1.1-2
		c-0.2-0.2-0.4-0.3-0.6-0.3c-0.2,0-0.4-0.1-0.6-0.2c-0.5-0.2-0.8-0.3-0.9-0.4c-0.1-0.1,0-0.5,0.1-1.1c0.1-0.8,0.3-1.4,0.4-1.7
		l4.7-17.5c0.2-0.8,0.4-1.2,0.5-1.4c0.2-0.2,0.6-0.3,1.3-0.4c2.7-0.2,5.4-0.2,8-0.2s5.3,0,8-0.1c0.9,0,1.4,0.1,1.6,0.2
		c0.2,0.2,0.3,0.8,0.5,1.9c0.6,2.9,1.2,5.7,1.7,8.6c0.6,2.8,1.1,5.7,1.6,8.6c0.1,0.9,0.2,1.4,0.1,1.6c-0.1,0.2-0.5,0.5-1.2,0.9
		c-0.6,0.3-1.3,0.6-1.9,0.8c-0.6,0.2-1.3,0.4-2,0.6c-1.1,0.2-1.6,0.8-1.5,1.9c0.1,1,0.7,1.5,1.7,1.5c0.3,0,0.8-0.1,1.5-0.2
		c0.5-0.2,1-0.3,1.6-0.5c0.5-0.2,1-0.4,1.6-0.6c1.4-0.7,2.7-0.7,4.1,0c0.7,0.4,1.5,0.6,2.2,0.8c0.8,0.1,1.6,0.2,2.3,0.3
		c0.8,0.2,1.4-0.2,1.7-1c0.2-0.5,0.2-1,0-1.6C701.7,864.5,701.2,864.1,700.5,864z M668.6,829.3L668.6,829.3
		c-0.2,0.2-0.2,0.5-0.2,0.8c0,0.3-0.2,0.5-0.4,0.8c-0.5-0.4-0.8-0.8-1.2-1.3c-0.3-0.5-0.7-0.9-1.3-1.2c-0.5-0.3-1.1-0.4-1.6-0.4
		c-0.6,0-1.1,0.1-1.7,0.3c-0.1-0.5-0.2-1-0.1-1.3c0.1-0.4,0.2-0.7,0.3-1.1l6.1-23.4c0.4-1.6,0.7-3.1,1.1-4.5c0.3-1.5,0.6-3,1-4.5
		c0.2-0.9,0.4-1.4,0.6-1.5c0.2-0.2,0.7-0.1,1.4,0.1c1.6,0.5,3,0.5,4.4,0.2c0.5-0.2,0.8-0.2,0.9,0c0.1,0.2,0.1,0.5,0,1.2
		c-0.1,0.8-0.2,1.5-0.3,2.2s-0.3,1.4-0.5,2.1L668.6,829.3z M686.7,834.6c-0.1,0.2-0.5,0.2-1,0.2v-0.1H672c-0.6,0-0.9-0.1-1-0.3
		c-0.1-0.2,0-0.6,0.1-1.3c0.4-1.6,0.8-3,1.2-4.5c0.4-1.4,0.8-2.9,1.2-4.4l6.1-22.3c0.1-0.2,0.1-0.5,0.1-0.8c0-0.3,0.2-0.5,0.5-0.8
		c0.3,1.3,0.5,2.6,0.7,3.8c0.2,1.2,0.5,2.5,0.7,3.7l4.7,24.4l0.3,1C686.8,834,686.8,834.4,686.7,834.6z"/>
	<path class="st0" d="M702,864.7c0,0.1,0,0.1,0,0.2c0,0.1,0.1,0.1,0.2,0.2L702,864.7z"/>
	<path class="st0" d="M667.5,818.6l0.1-0.1c-0.5-0.1-1,0.1-1.4,0.6c-0.4,0.5-0.6,1-0.7,1.6c-0.1,0.6,0,1.1,0.3,1.6
		c0.3,0.4,0.7,0.7,1.2,0.8c0.5,0.1,1-0.1,1.4-0.6c0.4-0.5,0.6-1.1,0.6-1.7c0-0.6-0.1-1.1-0.4-1.5C668.4,818.8,668,818.6,667.5,818.6
		z"/>
	<path class="st0" d="M737.9,831.5c-3-4-6.4-7.5-10.1-10.7c-1.3-1.1-2.6-2.2-3.9-3.3c-1.3-1.1-2.6-2.2-3.8-3.5
		c-1.2-1.2-2.2-2.4-3.2-3.8c-0.9-1.4-1.7-2.9-2.2-4.7c-0.5-2-0.4-4.1,0.3-6.3c0.7-2.2,1.8-3.8,3.4-4.9c1.5-1,3.1-1.7,5-2.2
		c1-0.2,2.1-0.3,3.1-0.2s2,0.4,2.9,1c1.4,0.9,2.5,1.9,3.4,3.3c0.9,1.3,1.3,3,1.2,5.1c-0.1,2,0.4,3.7,1.6,5.1
		c0.5,0.8,1.1,0.9,1.8,0.5c0.8-0.5,1-1.4,0.7-2.4c-0.1-0.2-0.2-0.6-0.5-1c-0.5-1.1-0.6-2.4-0.3-4c0.3-0.9,0.6-1.9,1.2-2.9
		c0.5-1,0.9-2,1.2-2.9c0.2-0.9,0.3-1.7,0.2-2.4c-0.2-1-0.7-1.5-1.5-1.5c-0.8,0-1.3,0.4-1.5,1.3c-0.1,0.2-0.1,0.6-0.1,1
		c-0.1,0.9-0.5,1.8-1,2.6c-0.3-0.2-0.6-0.3-0.7-0.5c-0.1-0.2-0.3-0.4-0.4-0.5c-1.4-2.2-3.1-3.8-5-4.6c-1.9-0.8-4-1-6.3-0.6
		c-4.1,0.6-7.7,2.7-10.6,6.2c-1.9,2.3-3.4,4.7-4.4,7.4c-1.1,2.7-1.9,5.6-2.4,8.7c-0.9,5.6,0,10.8,2.6,15.6c0.1,0.2,0.2,0.5,0.3,0.7
		c0.1,0.2,0.2,0.5,0.3,0.7c0.3,0.6,0.5,1,0.4,1.1c0,0.1-0.3,0.3-0.8,0.6c-0.1,0.2-0.3,0.3-0.5,0.3c-0.2,0.1-0.4,0.2-0.5,0.3
		c-0.6,0.5-0.8,1.2-0.6,2c0.2,0.9,0.7,1.3,1.7,1.2c0.3-0.1,0.5-0.2,0.7-0.2c0.2-0.1,0.5-0.2,0.7-0.2c1.5-0.5,2.8,0,3.9,1.3
		c0.3,0.4,0.7,0.8,1.1,1.1c0.4,0.3,0.9,0.7,1.3,1.1c1.4,1.2,2.8,2.5,4.2,3.7c1.4,1.2,2.8,2.5,4.1,3.8c2.1,1.9,3.8,4,5.1,6.3
		c0.6,1,1,2.1,1.1,3.2c0.2,1.1,0.2,2.2,0,3.3c-0.2,1.1-0.5,2.1-1,3.1c-0.5,1-1.2,1.8-2,2.5c-1.6,1.4-3.2,2.1-5,2.2
		c-1.5,0.1-2.9-0.1-4.2-0.6c-1.3-0.5-2.6-1.1-3.9-1.9c-1.2-0.6-2.2-1.7-3.2-3.3c-0.8-1.2-1.3-2.4-1.5-3.7c-0.2-1.3-0.3-2.7-0.2-4.2
		c0-1.1,0.1-2.1,0.4-2.9c0.3-0.9,0.8-1.6,1.6-2.2c0.9-0.9,1.1-1.7,0.7-2.6c-0.5-1-1.2-1.2-2.2-0.6c-1.2,0.7-2.2,1.8-2.9,3.3
		c-1.9,4.1-2.2,8.2-0.7,12.3c1,3,2.4,5.4,4.2,7.4c1.8,2,4,3.4,6.8,4.1c1.1,0.3,2.2,0.5,3.2,0.5s2.1,0,3.2-0.1
		c1.5-0.1,2.9-0.3,4.3-0.8c1.4-0.5,2.6-1.2,3.8-2.3c3.2-2.8,5.7-6.1,7.4-9.8c1.7-3.7,2.4-8,2-12.9l0.1-0.3
		C741.9,838.8,740.5,834.8,737.9,831.5z M729.7,829.6c-0.2,0-0.4,0.1-0.6,0.2l0.1-0.1c-1.3,0.4-2.4,1-3.4,1.8c-1,0.8-1.9,2-2.6,3.4
		c-0.3,0.6-0.5,1-0.6,1c-0.1,0-0.4-0.1-0.9-0.5c-1.7-1.4-3.3-2.9-4.8-4.4c-1.5-1.6-2.9-3.3-4.2-5.1c-3.2-4.6-4.3-9.7-3.1-15.2
		c0.1-0.9,0.3-1.7,0.4-2.6c0.2-0.9,0.5-1.8,1-2.9c0.7,3.5,1.9,6.3,3.6,8.6c1.7,2.2,3.6,4.2,5.7,6.1c1.3,1.2,2.6,2.4,4,3.5
		c1.4,1.1,2.7,2.3,4,3.6c0.3,0.4,0.6,0.7,1,1c0.3,0.3,0.6,0.7,0.9,1C730,829.4,729.9,829.6,729.7,829.6z"/>
	<path class="st0" d="M720.1,824l0.1,0.1c-0.5,0-0.8,0.2-1.1,0.6c-0.3,0.4-0.4,1-0.4,1.6c0,0.6,0.2,1.2,0.5,1.7
		c0.4,0.5,0.8,0.8,1.3,0.8c0.5,0,0.8-0.2,1.2-0.6c0.3-0.4,0.5-1,0.5-1.6c0-0.6-0.2-1.2-0.6-1.7S720.7,824,720.1,824z"/>
	<path class="st0" d="M267.9,339.7c-1.2,0-1.8,0.7-1.8,2.1c0,1.4,0.6,2.1,1.8,2.1h49.5c10.2,0,18.9-1.7,26-5.1
		c7.1-3.4,12.6-7.7,16.6-13c4-5.3,6.4-11,7.2-17.3c0.8-6.3,0.1-12.2-2-18c-2.2-5.7-5.9-10.8-11.1-15.1c-5.2-4.4-11.9-7.2-20-8.6
		c4.4-0.8,8.1-2.2,11.3-4.3c3.2-2.1,5.8-4.6,7.8-7.3c2-2.8,3.5-5.8,4.4-9c0.9-3.2,1.4-6.4,1.4-9.6c-0.2-6.5-1.7-11.8-4.7-16.1
		c-3-4.2-6.9-7.5-11.5-9.8c-4.7-2.3-9.8-4-15.4-4.9c-5.6-0.9-10.9-1.4-16.1-1.4h-43.4c-1.2,0-1.8,0.7-1.8,2.1c0,1.4,0.6,2.1,1.8,2.1
		h8.8v130.9H267.9z M296.4,208.8h14.9c3.6,0,7,0.5,10.2,1.4c3.2,0.9,6,2.5,8.5,4.6c2.5,2.2,4.4,5.1,5.9,8.7
		c1.4,3.6,2.1,8.1,2.1,13.3c0,5.3-1.1,10.4-3.3,15.3c-2.2,4.9-5.2,8.5-9.2,10.7c-0.8,0.5-1.6,0.9-2.5,1.2c-0.9,0.4-1.9,0.6-2.9,0.8
		c-5,0-9.8,1.1-14.6,3.3c-4.8,2.2-7.8,5.8-9.2,11V208.8z M296.4,289.3c0.9,3.6,2.7,6.8,5.5,9.6c2.8,2.8,6.6,4.2,11.4,4.2
		c4.7,0,8.3-1.9,10.9-5.7c1.8-2.6,2.4-5.4,1.8-8.5c-0.6-3.1-2.2-5.5-4.8-7.3c-2.1-1.4-4.4-1.7-7-1.1c-2,0.5-3.3,1.2-4.1,2.4
		c-0.8,1.1-1,2.2-0.8,3.2c0.2,1,0.8,1.7,1.8,2.3c1,0.5,2.2,0.4,3.7-0.3c1.7-0.8,3-1,4-0.8c1,0.2,1.8,0.7,2.4,1.5
		c0.8,0.9,1.1,2,0.9,3.2c-0.2,1.2-0.6,2.4-1.4,3.6c-0.8,1.2-1.8,2.1-3.1,2.8c-1.3,0.7-2.7,1-4.2,1c-2.3,0.2-4.3-0.2-6-1.1
		c-1.7-0.9-3.2-2.1-4.3-3.7c-1.1-1.6-2-3.4-2.5-5.3c-0.5-2-0.6-3.9-0.3-5.9c0.5-5,2.5-8.6,6.2-10.9c3.7-2.3,7.7-3.2,12.1-2.9
		c6.6,0.5,11.8,2.1,15.6,5c3.9,3,6.9,7.2,8.8,12.7c2,5.4,2.8,11.1,2.5,17c-0.2,4.4-0.8,8.7-2,13c-1.2,4.3-3.2,8.1-6,11.5
		c-2.8,3.4-6.4,6.1-10.9,8.1c-4.4,2-9.9,3.1-16.4,3.1h-14V289.3z"/>
	<path class="st0" d="M389.4,330c3.7,4.8,8.4,8.7,14.1,11.8c5.7,3,12.5,4.6,20.3,4.7c6.5,0.1,12.3-1.1,17.5-3.7
		c5.2-2.6,9.8-6.4,13.7-11.2c0.8-1.1,0.6-2-0.3-2.9c-1-0.9-1.8-0.8-2.6,0.2c-2.6,3.5-5.9,6.4-10.1,8.9c-4.1,2.5-9.4,3.6-15.7,3.3
		c-6.2-0.1-11.3-2.1-15.4-5.8c-4.1-3.7-7.2-8.3-9.3-13.7c-2.1-5.4-3.3-11.4-3.6-18c-0.3-6.6,0.2-12.8,1.6-18.7
		c0,2.4,0.5,4.8,1.6,7.2c1.1,2.4,2.7,4.6,4.9,6.6c2.2,2,4.9,3.5,8.3,4.6c3.3,1.1,7.2,1.5,11.8,1.2c3.8-0.1,7.4-0.9,11-2.1
		c3.5-1.3,6.7-3.1,9.5-5.4c2.8-2.3,5-5.2,6.7-8.5c1.7-3.3,2.4-7,2.3-11.1c-0.2-3.9-1.1-7.5-2.7-10.6c-1.7-3.2-3.9-5.8-6.7-8
		c-2.8-2.2-5.9-3.8-9.4-5c-3.5-1.1-7.1-1.7-10.9-1.7c-5.6-0.1-11,0.7-16.4,2.5c-5.4,1.8-9.9,4.4-13.7,7.7
		c-4.7,4.2-8.4,9.2-11.1,14.9c-2.7,5.7-4.3,11.7-4.9,18c-0.5,6.3,0,12.4,1.6,18.4C383.1,319.8,385.7,325.2,389.4,330z M408.8,265
		c2.6-3.2,6-5.7,10.2-7.3c2.6-1.1,5.1-1.7,7.7-1.8c2.6-0.1,4.9,0.3,6.9,1.4c2,1.1,3.7,2.8,5,5.1c1.3,2.3,1.9,5.4,1.9,9.2
		c0,5.6-1.3,10.9-3.8,16.1c-2.6,5.1-6.3,8.7-11.1,10.6c-4.1,1.7-8.1,1.7-12.2,0.1c-4.1-1.6-6.9-4.6-8.6-9.2c-1.2-3.2-1-6.3,0.6-9.4
		c1.6-3.1,4.3-4.6,8-4.6c1.5,0,2.9,0.3,4.1,1c1.2,0.7,2,1.7,2.3,3.1c0.3,0.9,0.2,1.8-0.2,2.7c-0.5,0.9-1.5,1.7-3.2,2.5
		c-1.5,0.8-2.4,1.7-2.6,2.8c-0.2,1.1,0,2.1,0.7,2.8c0.7,0.8,1.7,1.2,2.9,1.4c1.3,0.2,2.7-0.4,4.2-1.6c2.1-1.8,3.3-3.8,3.6-6.1
		c0.5-3.9-0.6-7-3.2-9.3s-5.5-3.3-8.8-3.2c-4.7,0.2-8.2,1.8-10.6,5C404.1,272,406.2,268.3,408.8,265z"/>
	<path class="st0" d="M483.6,203c-0.9,0.6-2.3,1-4.1,1.2c-1.9,0.2-3.9,0.4-6,0.5c-2.2,0.1-4.4,0.1-6.7,0.1c-2.3,0-4.5,0-6.4,0
		c-1.1,0-1.6,0.6-1.6,1.9c0,1.3,0.5,1.9,1.4,1.9h9.3V333c0.2,3.2,1.1,5.8,2.9,7.9c1.8,2.1,3.9,3.7,6.5,4.6c2.5,1,5.3,1.4,8.3,1.2
		c3-0.2,5.8-0.9,8.3-2.3c2.1-1.2,2.8-2.3,2-3.3c-0.8-1-1.8-1.1-3.2-0.3c-3.5,1.8-5.8,1.7-7.1-0.5c-1.3-2.1-1.9-5.3-1.9-9.5V203
		H483.6z"/>
	<path class="st0" d="M627.6,402.2c2.6-6.3,2.8-12.3,0.7-17.9c-2.1-5.6-6.6-10.2-13.6-13.9c-6.9-3.7-16.4-5.2-28.3-4.4
		c-9,0.6-18.8,2.3-29.4,5.2c-10.6,2.9-21.6,6.5-33.2,10.9c-0.6-3.2-1.1-6.5-1.5-9.9c-0.4-3.5-0.7-7.3-0.9-11.4
		c-0.2-4.1-0.4-8.8-0.5-13.9c-0.1-5.1-0.1-10.9-0.1-17.4c0-2.3,0-4.9,0-7.8c0-2.9,0-7.1,0-12.4c0-5.3,0-12.4,0-21.1
		c0-8.7,0-20.2,0-34.4H518c-3.5,0.8-7.1,1.2-10.9,1.2c-3.8,0.1-7.5,0.1-11.1,0.1c-1.2,0-1.8,0.6-1.7,1.9c0.1,1.3,0.6,1.9,1.5,1.9
		h9.3v72.8c0.1,10.4,0.6,20.2,1.2,29.5s2.5,17.7,5.5,25.2c-4.2,1.5-8.4,3.1-12.4,4.6c-4.1,1.6-8.2,3.1-12.4,4.6
		c-4.5-8.3-11.2-15.5-19.9-21.5c-5.7-3.9-12-7.1-18.8-9.6c-6.8-2.5-13.8-4.4-20.9-5.8c-7.2-1.4-14.4-2.1-21.7-2.4
		c-7.3-0.2-14.4,0-21.1,0.6c-10.7,1.1-20.3,3.1-28.8,6.2c-8.5,3.1-15.9,6.8-22.3,11.2c-9.8,6.9-16,14.4-18.7,22.5
		c-2.6,8.1-2.4,15.6,0.7,22.5c3.1,6.9,8.7,12.7,16.8,17.3c8.1,4.6,18,6.8,29.6,6.7c10.7-0.2,22.2-1.5,34.4-4.1
		c12.2-2.6,24.1-5.6,35.6-9.2c11.5-3.5,22.2-7.2,32.1-11c9.9-3.8,17.9-6.9,24.1-9.5c0.9,4.5,1.3,9.2,1.2,13.9
		c-0.1,4.7-0.7,9.3-1.9,13.7c-1.2,4.4-3,8.5-5.3,12.4c-2.3,3.9-5.4,7.3-9.2,10.2c-3.9,3-8.8,5.4-14.6,7.2c-5.8,1.8-11.5,2.5-17,2.1
		c-5.5-0.4-10.4-2.1-14.8-5.2c-4.4-3.1-7-8-7.9-14.8c-0.3-2-1.1-3.4-2.5-4.2c-1.4-0.8-2.7-1.1-4-0.8c-1.3,0.3-2.3,1.3-2.9,2.9
		c-0.7,1.7-0.4,4.1,0.8,7.2c2,5.6,5.6,9.8,10.9,12.7c5.3,2.9,11.2,4.6,17.6,5.2c6.5,0.6,13,0,19.6-1.7c6.6-1.7,12.2-4.4,17.1-8
		c4.1-3.2,7.4-6.9,9.9-11.1c2.6-4.2,4.4-8.7,5.7-13.5c1.2-4.7,1.8-9.6,1.8-14.7c0-5.1-0.5-10.1-1.6-15c4.4-1.7,8.6-3.4,12.8-5.2
		c4.1-1.8,8.4-3.7,12.8-5.7c4.5,8.1,10.7,14.7,18.5,19.6c7.8,4.9,16.3,8.3,25.4,10.1c9.1,1.8,18.3,2,27.7,0.6
		c9.3-1.4,17.6-4.5,24.9-9.2C620.3,413.9,625.1,408.5,627.6,402.2z M454.6,407.6c-10.3,3.6-20.8,7-31.4,10.2
		c-10.6,3.2-21.2,5.8-31.7,8c-10.5,2.2-20.5,3.5-30.2,4c-9.5,0.5-17.9-0.8-25.1-3.7c-7.2-2.9-12.4-6.9-15.6-12
		c-3.2-5.1-3.8-10.8-2-17.2c1.8-6.4,7.1-12.8,15.8-19.1c6.2-4.4,13.5-8.1,21.8-11.2c8.4-3.1,17.9-5.2,28.6-6.2
		c6.6-0.6,13.5-0.8,20.6-0.7c7.1,0.1,14.1,0.9,21.1,2.1c7,1.3,13.8,3.2,20.5,5.7c6.6,2.5,12.7,5.6,18.1,9.4
		c8.3,5.6,14.6,12.3,19,20.1C474.7,400.4,464.9,404,454.6,407.6z M611.4,415.3c-3.9,2.6-8.5,4.6-13.7,6.1
		c-5.2,1.5-10.6,2.4-16.2,2.6c-5.6,0.2-11.2-0.2-17-1.2c-5.7-1.1-11.1-2.8-16.1-5.3c-5-2.5-9.5-5.7-13.5-9.6c-4-3.9-7-8.7-9.2-14.2
		c11.8-4.8,23.1-9.1,33.9-12.9c10.9-3.8,20.5-6.2,28.9-7.2c11.2-1.4,19.7-0.6,25.8,2.1c6,2.8,9.8,6.5,11.3,11.1
		c1.5,4.6,0.9,9.6-1.7,14.9C621.5,406.9,617.2,411.5,611.4,415.3z"/>
	<path class="st0" d="M561.2,191.4c-7.2,0.5-13.5,1.8-18.9,4.2c-5.4,2.3-9.8,5.3-13.2,8.9c-3.7,3.8-6.5,8-8.3,12.5
		c-0.3-0.4-0.7-0.9-1.1-1.3c-1.9-1.9-4.1-2.8-6.7-2.8c-2.7,0-5,0.9-6.9,2.8c-1.9,1.9-2.8,4.2-2.8,6.9c0,2.6,0.9,4.8,2.8,6.7
		c1.9,1.9,4.2,2.8,6.9,2.8c2,0,3.7-0.6,5.3-1.7c0.1,6,1.7,11.6,4.9,16.8c3.5,5.6,8,9.7,13.5,12.3c5.5,2.6,11.6,3.4,18.4,2.4
		l-0.5,0.5c-4.7,4.2-8.4,9.2-11.1,14.9c-2.7,5.7-4.3,11.7-4.9,18c-0.5,6.3,0,12.4,1.6,18.4c1.6,6,4.2,11.5,7.9,16.3
		c3.7,4.8,8.4,8.7,14.1,11.8c5.7,3,12.5,4.6,20.3,4.7c6.5,0.1,12.3-1.1,17.5-3.7c5.2-2.6,9.8-6.4,13.7-11.2c0.8-1.1,0.6-2-0.3-2.9
		c-1-0.9-1.8-0.8-2.6,0.2c-2.6,3.5-5.9,6.4-10.1,8.9c-4.1,2.5-9.4,3.6-15.7,3.3c-6.2-0.1-11.3-2.1-15.4-5.8
		c-4.1-3.7-7.2-8.3-9.3-13.7c-2.1-5.4-3.3-11.4-3.6-18c-0.3-6.6,0.2-12.8,1.6-18.7c0,2.4,0.5,4.8,1.6,7.2c1.1,2.4,2.7,4.6,4.9,6.6
		c2.2,2,4.9,3.5,8.3,4.6c3.3,1.1,7.2,1.5,11.8,1.2c3.8-0.1,7.4-0.9,11-2.1c3.5-1.3,6.7-3.1,9.5-5.4c2.8-2.3,5-5.2,6.7-8.5
		c1.7-3.3,2.4-7,2.3-11.1c-0.2-3.9-1.1-7.5-2.7-10.6c-1.7-3.2-3.9-5.8-6.7-8c-2.8-2.2-5.9-3.8-9.4-5c-3.5-1.1-7.1-1.7-10.9-1.7
		c-3.6,0-7.2,0.3-10.9,1c-3.6,0.7-7,1.8-10.2,3.3c-3.5,1.1-7,1.7-10.7,1.8c-3.7,0.2-7.3-0.2-10.9-1.1c-3.5-0.9-6.9-2.4-9.9-4.4
		c-3.1-2-5.7-4.8-7.8-8.3c-1.7-2.7-2.8-5.7-3.5-9c-0.5-2.3-0.6-4.6-0.6-6.9c1.5-1.7,2.3-3.7,2.3-6c0-1.1-0.2-2.1-0.5-3.1
		c0.4-1.2,0.9-2.4,1.5-3.6c1.6-3.1,3.7-5.9,6.4-8.5c3.9-3.5,8.7-5.8,14.2-7c5.6-1.2,10.8-1.7,15.6-1.6c4.1,0.2,8,0.7,11.8,1.6
		c3.8,0.9,7.6,2.1,11.4,3.5c3.8,1.4,7.8,3.1,12,5.1c4.1,2,8.6,4.1,13.5,6.3c6.6,3.2,13.5,6.3,20.5,9.4c7,3.1,14.1,5.7,21.3,7.9
		c7.2,2.2,14.4,3.7,21.7,4.5c7.3,0.8,14.7,0.6,22-0.8c5.1-0.9,9.9-2.6,14.4-5.1c4.4-2.5,8.1-5.5,11-9.2c2.9-3.6,4.7-7.7,5.7-12.3
		c0.9-4.6,0.4-9.4-1.6-14.4c2.3-1.5,4.7-2.9,7.4-4.2c2.6-1.3,5.3-2.1,8-2.4c2.7-0.1,4.8,0.1,6.3,0.8c1.5,0.7,2.5,1.6,3.1,2.8
		c0.5,1.2,0.8,2.5,0.7,4c-0.1,1.4-0.3,2.8-0.8,4.2c2-0.1,3.6-1.1,5-2.9c1.4-1.8,2-3.7,1.9-5.8c-0.1-2-1.1-3.8-2.9-5.2
		c-1.9-1.4-5.1-1.8-9.6-1.2c-3.8,0.5-7.2,1.3-10.4,2.6c-3.2,1.3-6.5,2.8-9.9,4.4c-3.9-6-9.5-10.7-16.6-13.9
		c-7.2-3.2-14.6-4.9-22.3-5.1c-8.6,0-15.6,1.3-21.1,4c-5.5,2.6-9.6,5.9-12.3,9.8c-2.3,3.2-3.5,6.6-3.7,10.3c-0.2,3.7,0.7,7,2.8,10.1
		c2.3,3.5,5.8,6.1,10.7,8c4.9,1.9,11.2,2.5,18.9,1.7c3.5-0.5,7.1-1.4,10.9-2.8c3.8-1.4,7.5-3.2,11.2-5.2c3.7-2,7.3-4.2,10.9-6.4
		c3.5-2.3,6.8-4.3,9.8-6.1c1.8,4.4,2.3,8.4,1.6,12.1c-0.8,3.7-2.5,7-5.1,9.9c-2.6,2.9-5.9,5.4-9.7,7.3c-3.8,2-7.9,3.4-12.1,4.3
		c-4.8,0.9-10,0.9-15.5,0.1c-5.5-0.8-11.2-2.2-17.2-4.2c-6-2-12.1-4.3-18.3-7c-6.3-2.7-12.5-5.6-18.9-8.6c-5-2.3-10.1-4.6-15.4-7
		c-5.3-2.4-10.6-4.6-16.1-6.6c-5.4-2-10.9-3.5-16.5-4.6C572.3,191.5,566.7,191.1,561.2,191.4z M567.5,265c2.6-3.2,6-5.7,10.2-7.3
		c2.6-1.1,5.1-1.7,7.7-1.8c2.6-0.1,4.9,0.3,6.9,1.4c2,1.1,3.7,2.8,5,5.1c1.3,2.3,1.9,5.4,1.9,9.2c0,5.6-1.3,10.9-3.8,16.1
		c-2.6,5.1-6.3,8.7-11.1,10.6c-4.1,1.7-8.1,1.7-12.2,0.1c-4.1-1.6-6.9-4.6-8.6-9.2c-1.2-3.2-1-6.3,0.6-9.4c1.6-3.1,4.3-4.6,8-4.6
		c1.5,0,2.9,0.3,4.1,1c1.2,0.7,2,1.7,2.3,3.1c0.3,0.9,0.2,1.8-0.2,2.7c-0.5,0.9-1.5,1.7-3.2,2.5c-1.5,0.8-2.4,1.7-2.6,2.8
		c-0.2,1.1,0,2.1,0.7,2.8c0.7,0.8,1.7,1.2,2.9,1.4c1.3,0.2,2.7-0.4,4.2-1.6c2.1-1.8,3.3-3.8,3.6-6.1c0.5-3.9-0.6-7-3.2-9.3
		s-5.5-3.3-8.8-3.2c-4.7,0.2-8.2,1.8-10.6,5C562.8,272,564.9,268.3,567.5,265z M709.9,198.4c-3.3,1.7-6.7,3.2-10.3,4.7
		c-3.5,1.5-7,2.8-10.4,4c-3.4,1.1-6.7,1.9-9.8,2.4c-7.7,0.8-13.9,0.6-18.8-0.5c-4.8-1.1-8.2-2.7-10.2-5c-1.7-2.1-2.4-4.7-2.3-7.7
		c0.1-3,1.1-5.7,2.7-7.9c2.1-3.2,5.6-6,10.4-8.4c4.8-2.4,10.4-3.8,16.7-4.3c3.8-0.1,7.6,0.1,11.6,0.7c4,0.6,7.9,1.6,11.6,3.1
		c3.8,1.4,7.2,3.3,10.3,5.7c3.1,2.3,5.7,5.2,7.8,8.5C716.4,195.2,713.2,196.8,709.9,198.4z"/>
	<path class="st0" d="M662,346.5l29.8-60.6c1.7-3.5,3.2-7.2,4.6-11.2c1.4-4,2.1-8.1,2.1-12.3c0-4.7-1.5-8.4-4.5-11.1
		c-3.3-3.2-7.4-4.7-12.1-4.7c-4.7,0-8.8,1.6-12.1,4.7c-3,2.7-4.8,6.1-5.4,10.1c-0.6,4,0.5,7.5,3.2,10.5c1.5,1.7,3.2,2.8,5.2,3.5
		c2,0.7,3.9,0.9,5.9,0.7c2-0.2,3.7-0.9,5.3-2.1c1.6-1.2,2.8-2.8,3.5-4.7c0.9-2.1,0.8-4.4-0.5-7c-0.9-1.8-2-2.9-3.3-3.4
		c-1.3-0.5-2.4-0.5-3.3,0c-0.9,0.5-1.5,1.2-1.7,2.3c-0.2,1.1,0.2,2.3,1.2,3.6c1.2,1.4,1.8,2.6,1.8,3.6c0,1.1-0.4,2-1.1,2.7
		c-1.2,1.4-2.9,1.9-5.2,1.7c-2.3-0.2-4-1.3-5.2-3.3c-1.8-2.7-2.3-5.6-1.6-8.6c0.8-3,2.4-5.5,5-7.5c2.4-1.8,5.3-2.7,8.8-2.6
		c3.5,0.1,6.3,1.2,8.6,3.5c2.1,2.1,3.2,4.8,3.2,8.1c0,3.6-0.6,7.2-1.8,10.9c-1.2,3.6-2.6,7.2-4.3,10.9l-22.6,45.2l-23.1-70.5h8.6
		c1.1,0,1.6-0.6,1.6-1.9c0-1.3-0.5-1.9-1.6-1.9h-33.9c-0.9,0-1.4,0.6-1.5,1.9c-0.1,1.3,0.4,1.9,1.5,1.9h8.6l31,87.7H662z"/>
	<path class="st0" d="M734.5,254.7c-5.4,1.8-9.9,4.4-13.7,7.7c-4.7,4.2-8.4,9.2-11.1,14.9c-2.7,5.7-4.3,11.7-4.9,18
		c-0.5,6.3,0,12.4,1.6,18.4c1.6,6,4.2,11.5,7.9,16.3c3.7,4.8,8.4,8.7,14.1,11.8c5.7,3,12.5,4.6,20.3,4.7c6.5,0.1,12.3-1.1,17.5-3.7
		c5.2-2.6,9.8-6.4,13.7-11.2c0.8-1.1,0.6-2-0.3-2.9c-1-0.9-1.8-0.8-2.6,0.2c-2.6,3.5-5.9,6.4-10.1,8.9c-4.1,2.5-9.4,3.6-15.7,3.3
		c-6.2-0.1-11.3-2.1-15.4-5.8c-4.1-3.7-7.2-8.3-9.3-13.7c-2.1-5.4-3.3-11.4-3.6-18c-0.3-6.6,0.2-12.8,1.6-18.7
		c0,2.4,0.5,4.8,1.6,7.2c1.1,2.4,2.7,4.6,4.9,6.6c2.2,2,4.9,3.5,8.3,4.6c3.3,1.1,7.2,1.5,11.8,1.2c3.8-0.1,7.4-0.9,11-2.1
		c3.5-1.3,6.7-3.1,9.5-5.4c2.8-2.3,5-5.2,6.7-8.5c1.7-3.3,2.4-7,2.3-11.1c-0.2-3.9-1.1-7.5-2.7-10.6c-1.7-3.2-3.9-5.8-6.7-8
		c-2.8-2.2-5.9-3.8-9.4-5c-3.5-1.1-7.1-1.7-10.9-1.7C745.3,252.1,739.8,252.9,734.5,254.7z M758.4,257.2c2,1.1,3.7,2.8,5,5.1
		c1.3,2.3,1.9,5.4,1.9,9.2c0,5.6-1.3,10.9-3.8,16.1c-2.6,5.1-6.3,8.7-11.1,10.6c-4.1,1.7-8.1,1.7-12.2,0.1c-4.1-1.6-6.9-4.6-8.6-9.2
		c-1.2-3.2-1-6.3,0.6-9.4c1.6-3.1,4.3-4.6,8-4.6c1.5,0,2.9,0.3,4.1,1c1.2,0.7,2,1.7,2.3,3.1c0.3,0.9,0.2,1.8-0.2,2.7
		c-0.5,0.9-1.5,1.7-3.2,2.5c-1.5,0.8-2.4,1.7-2.6,2.8c-0.2,1.1,0,2.1,0.7,2.8c0.7,0.8,1.7,1.2,2.9,1.4c1.3,0.2,2.7-0.4,4.2-1.6
		c2.1-1.8,3.3-3.8,3.6-6.1c0.5-3.9-0.6-7-3.2-9.3s-5.5-3.3-8.8-3.2c-4.7,0.2-8.2,1.8-10.6,5c1.7-4.2,3.8-7.9,6.3-11.2
		c2.6-3.2,6-5.7,10.2-7.3c2.6-1.1,5.1-1.7,7.7-1.8C754.1,255.7,756.4,256.2,758.4,257.2z"/>
	<path class="st0" d="M798.5,397c0.5-0.1,0.9-0.4,1.1-0.8c0.3-0.4,0.3-0.9,0.2-1.4c-0.3-1-0.3-2-0.1-2.9c0.2-0.9,0.4-1.9,0.7-2.9
		c0.2-0.8,0.8-1.4,1.8-1.6c1.6-0.3,3.2-0.3,4.7-0.2c1.5,0.2,3.1,0.4,4.6,0.7c1,0.2,1.6,0.3,1.7,0.5c0.2,0.2,0.3,0.9,0.2,1.9
		c0,2.8-0.1,5.5-0.3,8.3c-0.2,2.8-0.2,5.5-0.2,8.3c0,1.3,0,2.7-0.1,4c-0.1,1.3-0.1,2.6-0.1,4c0,0.4,0,0.7,0,1c0,0.3,0,0.6-0.1,1
		c-0.2,0.8-0.6,1.1-1.3,0.8c-0.3-0.1-0.5-0.2-0.6-0.2c-1.1-0.2-1.8,0.1-2.1,0.9c-0.4,0.8,0,1.5,0.9,2c0.6,0.4,1,0.8,1.3,1.2
		c0.3,0.4,0.6,0.9,0.8,1.5c0.3,0.6,0.5,1.3,0.5,1.9c0.1,0.6,0.1,1.3,0.1,1.9l-0.5,15c-0.1,1.6-0.1,3.3-0.2,4.9c0,1.7,0,3.3,0,4.9
		c0,0.9-0.1,1.4-0.2,1.5c-0.1,0.2-0.6,0.4-1.3,0.6c-0.3,0-0.5,0-0.6,0.1c-0.9,0.3-1.3,0.9-1.2,1.7c0.1,0.9,0.7,1.4,1.6,1.5
		c0.4,0.1,0.9,0.1,1.4,0c0.5-0.1,1-0.3,1.4-0.4c0.5-0.1,0.9-0.2,1.3-0.4c1.6-0.6,3.2-0.9,4.8-0.9c1.6-0.1,3.1,0.2,4.8,0.8
		c0.8,0.2,1.5,0.4,2.3,0.6c0.7,0.2,1.5,0.3,2.3,0.3c0.4,0,0.7,0,1,0c0.3,0,0.6-0.1,0.9-0.2c0.7-0.3,1.1-0.8,1.1-1.5
		c0-0.7-0.4-1.2-1.2-1.6c-0.4-0.1-0.9-0.2-1.6-0.2c-0.9,0-1.3-0.4-1.3-1.3c0-0.5,0-1,0-1.4c0-0.5,0-0.9,0.1-1.4
		c0.2-1.6,0.3-3.1,0.3-4.7c0-1.6,0.1-3.1,0.2-4.7c0.2-3.8,0.3-7.6,0.4-11.3c0.1-3.7,0.2-7.5,0.3-11.3l0-1.6c0.2-3.3,0.3-6.6,0.5-9.9
		c0.2-3.3,0.3-6.6,0.3-9.9l0.1-6.7c0-0.9,0.1-1.4,0.3-1.7c0.2-0.3,0.7-0.5,1.6-0.7c0.7-0.1,1.3-0.2,1.8-0.2l5.1,0
		c0.8,0,1.5,0.1,2.3,0.3c0.7,0.2,1.5,0.4,2.3,0.6c1.1,0.3,1.8,1,2,2.2c0.1,0.8,0.2,1.6,0.3,2.4c0.1,0.8-0.1,1.6-0.4,2.4
		c-0.2,0.5-0.1,0.9,0.1,1.3c0.2,0.4,0.5,0.7,1,0.8c0.9,0.4,1.7,0.1,2.2-0.9c0.4-0.7,0.6-1.5,0.7-2.4c0.1-1.8-0.2-3.7-0.8-5.6
		l0.4-0.4c-0.3-0.8-0.5-1.5-0.7-2.3c-0.2-0.7-0.3-1.5-0.2-2.3l0-0.6c-0.1-0.9-0.5-1.3-1.2-1.4c-0.7-0.2-1.3,0.1-1.8,0.9
		c-0.1,0.3-0.2,0.5-0.2,0.6c-0.2,0.7-0.6,1-1.5,0.8c-2.9-0.6-5.7-0.8-8.5-0.5c-2.8,0.3-5.5,0.9-8.3,1.8c-1.2,0.4-2.4,0.7-3.6,0.9
		c-1.2,0.2-2.4,0.1-3.6-0.3c-1.7-0.4-3.4-0.8-5.1-1.1c-1.7-0.3-3.5-0.5-5.3-0.7c-0.9-0.2-1.8-0.2-2.7-0.2c-0.9,0-1.8,0.1-2.7,0.2
		c-0.5,0.1-0.9,0.2-1.2,0c-0.3-0.1-0.6-0.4-0.8-1c-0.4-1-1.1-1.4-1.9-1.2c-0.8,0.2-1.1,0.9-1.1,2c0.1,1,0,1.9-0.2,2.8
		c-0.2,0.9-0.4,1.8-0.7,2.7c-0.1,0.6-0.3,1.1-0.4,1.6c-0.1,0.5-0.2,1-0.4,1.6c-0.2,1.1-0.1,2.2,0.4,3.5
		C796.8,396.8,797.5,397.3,798.5,397z M815.7,421.7c0.2-1.8,0.2-3.7,0.3-5.6c0-1.9,0.1-3.7,0.2-5.6l0.5-19.1c0-0.8,0.1-1.2,0.2-1.4
		c0.1-0.1,0.6-0.2,1.3-0.1c1.1,0.1,2.1,0.1,3.1,0.1c1,0,2-0.2,3-0.5c0.6-0.1,0.9-0.2,1,0c0.1,0.1,0.1,0.4,0.1,1l-0.1,7.4l0.1-0.4
		c-0.2,2.7-0.3,5.5-0.4,8.4c-0.1,2.9-0.2,5.9-0.4,9c-0.1,1.1-0.1,2.2-0.1,3.3c0,1.1,0,2.2,0,3.3c0,0.7-0.1,1.1-0.2,1.2
		c-0.1,0.1-0.5,0-1.1-0.3c-2-1-4-1-6.2-0.1c-0.6,0.3-0.9,0.4-1.1,0.3C815.7,422.7,815.7,422.3,815.7,421.7z"/>
	<path class="st0" d="M820.1,418.6c0.6,0,1.1-0.2,1.5-0.6c0.4-0.4,0.6-0.9,0.7-1.6c0-0.7-0.3-1.4-0.8-2c-0.6-0.6-1.2-0.9-1.8-0.9
		c-0.6,0-1,0.2-1.4,0.7c-0.4,0.5-0.6,1-0.6,1.6c0,0.7,0.3,1.3,0.8,1.9S819.5,418.6,820.1,418.6z"/>
	<path class="st0" d="M895,415.7c1,0.4,1.8,0.1,2.3-0.8c0.7-1.1,0.6-2.1-0.5-3.2l-0.1-0.2c-0.4-0.3-0.7-0.5-1-0.7
		c-0.3-0.2-0.7-0.2-1.2,0c-1,0.3-1.5,1.1-1.5,2.2c0,0.6,0.2,1.1,0.6,1.7C893.9,415.2,894.4,415.6,895,415.7z"/>
	<path class="st0" d="M863.9,415.3c0.7,0.5,1.4,0.5,2.1,0.1c0.7-0.4,1.1-1,1.1-1.8c0-0.7-0.2-1.3-0.6-1.9c-1.1-1.3-2.1-1.5-3.1-0.8
		h0.1c-0.6,0.4-0.9,1-1,1.6c-0.1,0.7,0.1,1.3,0.5,1.9C863.3,414.8,863.6,415.1,863.9,415.3z"/>
	<path class="st0" d="M856,450.6c0,0.8-0.1,1.3-0.2,1.4c-0.1,0.2-0.6,0.4-1.3,0.6c-0.4,0.1-0.7,0.3-1,0.4c-0.6,0.4-0.8,0.8-0.8,1.5
		c0.1,0.7,0.5,1.2,1.3,1.4c0.6,0.2,1.4,0.2,2.2-0.1l1.9-0.6c1.6-0.6,3.3-0.9,5-0.9c1.7-0.1,3.3,0.2,5,0.8c0.7,0.2,1.4,0.4,2.1,0.5
		c0.7,0.1,1.4,0.2,2.1,0.4c0.7,0.1,1.3,0.1,1.9-0.1c0.9-0.3,1.3-0.9,1.3-1.7c0-0.9-0.5-1.4-1.6-1.6c-1.1-0.2-1.8-0.4-2-0.7
		c-0.2-0.2-0.3-0.9-0.2-2l0-1.3c0.2-2.8,0.3-5.5,0.5-8.3c0.2-2.8,0.3-5.5,0.3-8.3c0-1.2,0-2.4,0.1-3.5c0-1.1,0.1-2.3,0.2-3.5
		c0-0.3,0-0.5,0.1-0.8c0-0.2,0.2-0.5,0.5-0.7c1.1-0.8,2.3-1.5,3.5-2c1.2-0.5,2.6-0.6,4-0.3c1.1,0.2,2,0.5,2.8,1
		c0.8,0.5,1.6,1.2,2.3,2c0.6,0.6,0.9,1.3,1.1,2c0.2,0.7,0.3,1.5,0.2,2.2c-0.2,3.3-0.3,6.5-0.4,9.7c-0.1,3.2-0.1,6.5-0.2,9.7l0,2.9
		c0,0.9-0.1,1.4-0.2,1.5c-0.1,0.2-0.6,0.4-1.4,0.7c-0.4,0.1-0.7,0.2-0.9,0.3c-0.7,0.4-1,0.9-1,1.6c0.1,0.7,0.5,1.1,1.4,1.3
		c0.6,0.1,1.4,0,2.2-0.2l2.2-0.6c1.6-0.5,3.1-0.8,4.6-0.9s3.1,0.2,4.6,0.7c0.7,0.3,1.4,0.5,2.1,0.6c0.7,0.1,1.4,0.2,2.2,0.4
		c0.8,0.2,1.6,0.1,2.2-0.2c0.7-0.3,1-0.9,1-1.7c-0.1-0.9-0.5-1.4-1.4-1.6c-0.2-0.1-0.5-0.1-1-0.1c-0.6-0.1-0.9-0.3-1.1-0.5
		c-0.1-0.2-0.2-0.6-0.3-1.2c-0.1-0.8-0.1-1.5,0-2.2c0.1-0.7,0.2-1.5,0.2-2.2l0.8-19.8c0.2-2.5,0.3-5.1,0.3-7.6
		c0-2.5,0.1-5.1,0.3-7.6c0.2-3.2,0.3-6.3,0.5-9.4c0.2-3.1,0.2-6.2,0.2-9.4c0-0.8,0-1.6,0.1-2.4c0-0.8,0.1-1.6,0.1-2.4
		c0-0.8,0.1-1.3,0.3-1.4c0.2-0.2,0.6-0.3,1.3-0.4c0.4,0,0.7,0,1-0.1c1-0.2,1.6-0.8,1.7-1.7c0.1-0.9-0.3-1.6-1.5-1.9l0,1.2
		c-0.6-0.2-1.4-0.3-2.2-0.1c-0.6,0.1-1.3,0.3-1.9,0.4c-0.6,0.1-1.2,0.3-1.8,0.6c-1.2,0.6-2.4,0.9-3.6,0.9c-1.2,0.1-2.4,0-3.6-0.1
		c-0.9-0.1-1.8-0.4-2.6-0.7c-0.8-0.3-1.7-0.6-2.7-0.7c-0.5-0.1-1-0.1-1.4-0.1c-0.5,0-0.9,0.1-1.4,0.2c-0.8,0.2-1.2,0.7-1.2,1.6
		c0,0.9,0.4,1.4,1.3,1.6c0.2,0.1,0.5,0.1,1,0.1c0.7,0.1,1.1,0.5,1.1,1.2l0,1.3l-0.4,13.4c-0.1,2-0.1,3.9-0.2,5.9
		c0,1.9-0.1,3.9-0.2,5.9c0,0.8,0,1.5-0.1,2.2c0,0.7-0.1,1.5-0.2,2.2c0,0.7-0.3,0.9-1,0.5c-0.3-0.1-0.5-0.3-0.7-0.3
		c-1.9-0.9-3.8-1.5-5.7-1.6c-1.9-0.1-3.8,0.3-5.7,1.3c-0.1,0.1-0.3,0.1-0.5,0.2c-0.2,0.1-0.4,0-0.6-0.1c-0.2-0.2-0.3-0.4-0.3-0.7
		c0-0.2,0.1-0.5,0.1-0.7c-0.1-1,0-1.9,0.1-2.9c0.1-0.9,0.2-1.9,0.2-2.9c0-3.2,0.1-6.3,0.3-9.3c0.2-3,0.2-6.2,0.1-9.3
		c0-0.8,0-1.7,0.1-2.5c0-0.9,0.1-1.7,0.1-2.5c0-0.8,0.1-1.3,0.3-1.4c0.2-0.2,0.7-0.3,1.4-0.4l0.6,0c1.3-0.2,1.9-0.8,1.9-1.8
		c0-1-0.6-1.6-1.7-1.8c-0.6-0.1-1.1-0.1-1.6,0c-0.6,0.1-1.1,0.1-1.7,0.2c-0.6,0.1-1.1,0.2-1.7,0.5c-1.9,0.8-3.7,1.2-5.6,1.2
		s-3.7-0.4-5.6-1.1c-0.6-0.2-1.3-0.4-2-0.5c-0.7-0.1-1.4-0.2-2.1-0.1c-1.4,0.1-2.1,0.7-2.1,1.7c0,0.8,0.7,1.4,2,1.6l0.6,0
		c0.6,0.2,0.8,0.5,0.8,1l0,1.3c0.1,1.8,0,3.5-0.1,5.3c-0.1,1.7-0.2,3.5-0.2,5.3c-0.1,2.5-0.2,4.9-0.2,7.3c0,2.4,0,4.9-0.1,7.3
		c0,0.4,0,0.7,0,1c0,0.3,0,0.6-0.1,1c-0.1,0.6-0.2,0.9-0.3,1c-0.1,0.1-0.5,0.1-1.1,0c-1.3-0.2-2,0.2-2.2,1c-0.3,0.8,0,1.5,0.9,2
		c0.5,0.3,0.9,0.6,1.1,1c0.2,0.4,0.5,0.8,0.7,1.3c0.3,0.6,0.4,1.2,0.5,1.8c0.1,0.6,0.1,1.2,0.1,1.9l-0.5,21L856,450.6z M891,418
		c0.2-3.2,0.3-6.4,0.3-9.6c0-3.2,0-6.4,0.2-9.6c0.1-1.8,0.2-3.6,0.3-5.4c0.1-1.8,0.1-3.6,0.2-5.4c0-0.7,0.1-1.1,0.2-1.2
		c0.1-0.1,0.5-0.1,1.2,0c1,0.2,2,0.3,3.1,0.4c1,0.1,2.1,0.1,3.2-0.1c0.9-0.2,1.3,0.2,1.3,1.2l0,1.3c0,3.5,0,6.9-0.3,10.4
		c-0.2,3.4-0.4,6.9-0.6,10.4l0.1,0.4l-0.4,8.6c0,0.7-0.1,1.1-0.2,1.2c-0.1,0.1-0.5,0-1.1-0.3c-1.2-0.6-2.4-0.8-3.7-0.6
		c-1.2,0.2-2.4,0.6-3.7,1.2c-0.1-0.6-0.2-1.1-0.2-1.5C890.9,418.9,890.9,418.4,891,418z M860.5,418.2c0.2-3.2,0.3-6.4,0.3-9.6
		c0-3.2,0-6.4,0.2-9.6c0.1-1.8,0.2-3.6,0.3-5.4c0.1-1.8,0.1-3.6,0.2-5.4c0-0.7,0.1-1.1,0.2-1.2c0.1-0.1,0.5-0.1,1.2,0
		c1,0.2,2,0.3,3.1,0.4c1,0.1,2.1,0.1,3.2-0.1c0.9-0.2,1.3,0.2,1.3,1.2l0,1.3c0,3.5,0,6.9-0.2,10.4c-0.2,3.4-0.4,6.9-0.6,10.4
		l0.1,0.4l-0.4,8.6c0,0.7-0.1,1.1-0.2,1.2c-0.1,0.1-0.5,0-1.1-0.3c-1.2-0.6-2.4-0.8-3.7-0.6c-1.2,0.2-2.4,0.6-3.7,1.2
		c-0.1-0.6-0.2-1.1-0.2-1.5C860.4,419,860.4,418.6,860.5,418.2z"/>
	<path class="st0" d="M927.7,416.2c0.5,0,0.9-0.2,1.3-0.6s0.5-0.9,0.5-1.4c0-1.1-0.5-1.6-1.5-1.6v-0.1c-0.5,0-1,0.2-1.4,0.6
		c-0.4,0.4-0.6,0.9-0.6,1.4c0,0.4,0.2,0.8,0.5,1.2C926.9,416,927.2,416.2,927.7,416.2z"/>
	<path class="st0" d="M918.3,456.8c1.8-1,3.7-1.6,5.6-1.8c1.9-0.2,3.8-0.1,5.8,0.2c1.1,0.2,2.1,0.4,3.1,0.6c1,0.3,2.1,0.5,3.1,0.7
		c5.2,1.3,10.4,1.1,15.5-0.5c1-0.3,1.9-0.8,2.7-1.3c0.8-0.5,1.6-1.1,2.3-1.9c0.2-0.3,0.4-0.6,0.6-0.8c0.2-0.3,0.3-0.6,0.5-1
		c0.2-0.9,0-1.6-0.7-2c-0.7-0.4-1.4-0.4-2,0.2l-0.6,0.6c-0.5,0.8-1.1,1.4-1.8,1.7c-0.7,0.4-1.5,0.7-2.2,1c-1.3,0.4-2.8,0.7-4.4,0.9
		c-1.6,0.1-3.2,0.2-4.8,0.1c-1.6-0.1-3.2-0.3-4.8-0.7c-0.4-0.1-0.7-0.3-1-0.5c-0.2-0.2-0.3-0.6-0.2-1.1c0.2-2.5,0.2-5.1,0.2-7.7
		c0-2.6,0-5.2,0.1-7.8l0.1-11.2c0-0.4,0-0.7,0.1-1.1c0.1-0.4,0.3-0.7,0.6-1c1.2-0.9,2.5-1.6,3.8-1.9c1.3-0.4,2.8-0.3,4.4,0.1
		c2.1,0.6,2.9,1.9,2.5,4c-0.1,0.4-0.2,0.8-0.2,1.3c-0.1,0.4-0.1,0.8-0.1,1.3c0,0.6,0.1,1.2,0.4,1.7c0.5,0.7,1.1,1,1.8,1
		c0.9-0.1,1.3-0.6,1.5-1.5l0-0.6c-0.1-0.6,0-1.2,0.1-1.7c0.1-0.5,0.4-1.1,0.6-1.6c0.4-0.8,0.7-1.5,1-2.3c0.3-0.7,0.6-1.5,0.7-2.3
		c0.4-1.6,0.2-3.1-0.4-4.6c-0.4-0.9-1-1.2-1.9-1c-0.8,0.2-1.2,0.8-1.2,1.8c0,0.2,0,0.4,0,0.6c0,0.2,0.1,0.4,0,0.6
		c0.1,0.4,0.1,0.7,0,1.1c0,0.4-0.2,0.7-0.6,1.1c-1.1-1.1-2.4-1.8-4-2.2c-1.3-0.3-2.7-0.3-3.9-0.1c-1.3,0.2-2.5,0.5-3.7,1
		c-0.6,0.3-0.9,0.4-1.1,0.3c-0.1-0.1-0.2-0.5-0.3-1.1l0-1.3c0.1-4.4,0.2-8.7,0.2-13.1c0-4.3,0.1-8.7,0.3-13.1c0.1-0.6,0.2-1,0.3-1.2
		c0.1-0.1,0.5-0.3,1.1-0.4c0.8-0.1,1.6-0.2,2.4-0.3c0.8-0.1,1.6-0.1,2.4-0.2c1.6-0.1,3.3-0.1,4.9,0c1.6,0.1,3.3,0.5,4.9,1.1
		c2.4,0.9,4,2.5,4.7,5c0.1,0.4,0.2,0.7,0.3,1c0.1,0.3,0.2,0.6,0.4,0.9c0.4,0.6,1,0.8,1.7,0.5c0.8-0.2,1.2-0.7,1.3-1.4
		c0.1-0.6,0-1.2-0.2-1.8l0,0.4c-1-3.7-3.2-6.2-6.6-7.6c-2.1-0.8-4.1-1.3-6.2-1.5c-2.1-0.2-4.1-0.2-6.3,0.1c-1.6,0.2-3.1,0.4-4.6,0.6
		c-1.5,0.2-3.1,0.5-4.6,0.6c-2.4,0.3-4.8,0.5-7.2,0.6s-4.7-0.4-7-1.4c-0.8-0.4-1.5-0.1-2,0.7c-0.5,0.8-0.3,1.6,0.6,2.1
		c0.4,0.4,0.9,0.6,1.4,0.8c0.5,0.2,1,0.3,1.6,0.5c0.8,0.3,1.3,0.5,1.5,0.7c0.1,0.2,0.2,0.7,0.2,1.4c0,1.2,0,2.4-0.1,3.7
		c0,1.2-0.1,2.5-0.1,3.7c-0.1,2.1-0.1,4.1-0.2,6.1c0,2-0.1,4-0.2,6.1c0,1.3-0.1,2.5-0.1,3.8s-0.2,2.6-0.2,3.9
		c-0.4,0-0.6-0.1-0.8-0.2c-0.2-0.1-0.3-0.2-0.5-0.4c-1.3-0.6-2.3-0.6-2.8,0.3c-0.5,0.8-0.2,1.6,0.9,2.5c0.3,0.1,0.5,0.3,0.8,0.5
		c0.2,0.2,0.4,0.4,0.6,0.7c0.6,0.9,1,1.9,1.4,2.8c0.3,1,0.5,2,0.4,3.1c-0.2,2.2-0.3,4.4-0.3,6.5c-0.1,2.2-0.1,4.3-0.2,6.5
		c0,1.4,0,2.8-0.1,4.1c0,1.3-0.1,2.7-0.1,4.1c0,1.2-0.2,2.2-0.6,2.9c-0.4,0.7-1.2,1.4-2.4,1.8c-0.7,0.3-1.2,0.6-1.3,1.1
		c-0.2,0.5-0.1,0.9,0.1,1.3C916,457.4,916.9,457.5,918.3,456.8z M924,417.5c0.2-3.4,0.4-6.8,0.4-10.1c0-3.3,0.1-6.7,0.3-10.1
		c0-1,0-2,0.1-3c0-1,0.1-2,0.1-3c0-0.7,0.1-1.1,0.3-1.3c0.2-0.2,0.6-0.3,1.3-0.3c0.8,0,1.5,0,2.3-0.1c0.7-0.1,1.5-0.2,2.3-0.2
		c0.6,0,1,0.1,1.2,0.3c0.2,0.2,0.2,0.6,0.2,1.1l0.2,0.1c-0.2,4.2-0.4,8.4-0.4,12.6c0,4.1-0.1,8.3-0.2,12.6c0,0.6,0,1.3,0,1.9
		c0,0.6-0.1,1.3-0.1,1.9c-0.1,0.6-0.2,1-0.3,1.1c-0.1,0.1-0.5,0-1-0.2c-0.9-0.4-1.8-0.5-2.6-0.3c-0.8,0.1-1.6,0.4-2.4,0.7
		c-0.7,0.3-1.1,0.4-1.3,0.3c-0.1-0.1-0.2-0.6-0.2-1.3L924,417.5z"/>
	<path class="st0" d="M200.6,523c-0.6-4.6-3.2-8.6-7.9-12c-3.4-2.2-6.4-3-9-2.5c-2.6,0.5-4.6,1.5-5.8,3c-1.2,1.5-1.6,3.5-1.2,5.8
		c0.5,2.3,2.4,4.1,5.8,5.3c3.4,1.5,5.6,3.2,6.7,5.1c1.1,1.9,1.5,3.5,1.2,5.1c-0.9,4-3.5,6.7-7.6,8.1c-4.2,1.4-8.4,1.3-12.7-0.2
		c-4-1.2-7.1-3.6-9.2-7.2c-2.2-3.5-3.2-7.5-3.2-11.8c-0.3-8.9,2.6-16.2,8.7-21.7c6.1-5.5,13.1-8.8,20.9-9.7s15.2,0.8,22.3,5.1
		c7,4.3,11.3,12,12.9,23.1c0.6,2.5,0.9,5.1,0.9,7.9c0,2.8,0,5.9,0,9.2V658h-19c-2.2,0-3.2,1.3-3.2,3.9c0,2.6,1.1,3.9,3.2,3.9h69.4
		c2.2,0,3.2-1.3,3.2-3.9c0-2.6-1.1-3.9-3.2-3.9h-18V535.9c-0.3-4,0.3-8.6,1.8-13.6c1.5-5.1,3.7-9.8,6.5-14.1
		c4.9-7.4,10.9-12.6,17.8-15.5c6.9-2.9,13.8-3.6,20.6-2.1c6.8,1.5,12.6,5.2,17.6,11.1c4.9,5.9,7.9,13.9,8.8,24v116.1
		c0,7.1,1.8,12.9,5.5,17.3c3.7,4.5,8.2,7.8,13.6,9.9c5.4,2.2,11.2,3,17.3,2.5c6.2-0.5,11.9-2.1,17.1-4.9c4.3-2.5,5.6-4.7,3.9-6.7
		c-1.7-2-3.8-2.2-6.2-0.7c-6.2,4-11,3.8-14.6-0.7c-3.5-4.5-5-11-4.4-19.7v-93.4c0-12.9-2-23.9-6-32.8c-4-8.9-9.6-16-16.6-21.3
		c-6.5-4.3-13.9-7.4-22.2-9.2c-8.3-1.9-16.6-2.1-25-0.7c-8.3,1.4-16,4.4-23.1,9c-7.1,4.6-12.6,11.3-16.6,19.9
		c-2.5-5.5-5.7-10.3-9.7-14.3c-4-4-8.6-7.2-13.8-9.5c-5.2-2.3-10.8-3.9-16.8-4.9c-6-0.9-11.9-1.2-17.7-0.9
		c-10.1,0.6-19.3,3.4-27.4,8.3c-8.1,4.9-13.4,12.3-15.9,22.2l-0.4-30.5h-6c-7.1,1.5-14.6,2.4-22.4,2.5c-7.9,0.2-15.5,0.2-22.9,0.2
		c-2.2,0-3.2,1.3-3,3.9c0.2,2.6,1,3.9,2.5,3.9h19.4V658h-19c-2.2,0-3.2,1.3-3.2,3.9c0,2.6,1.1,3.9,3.2,3.9h69.4
		c2.2,0,3.2-1.3,3.2-3.9c0-2.6-1.1-3.9-3.2-3.9h-18V529c1.3,4.3,3.5,8.2,6.5,11.6c3,3.4,6.9,5.9,11.5,7.4c4.3,1.5,8.6,1.8,12.7,0.9
		c4.2-0.9,7.9-2.5,11.1-4.9c3.2-2.3,5.7-5.3,7.4-9C200.6,531.3,201.2,527.3,200.6,523z"/>
	<path class="st0" d="M410.5,656.9c6.5,5.4,13.8,9.3,22,11.8c8.2,2.5,16.4,3.5,24.7,3.2c9.9-0.6,19.2-3.2,28-7.9
		c8.8-4.6,16-11.6,21.5-20.8c0.3,6.5,2.3,11.9,6,16.2c3.7,4.3,8.2,7.5,13.6,9.5c5.4,2,11.1,2.8,17.1,2.5c6-0.3,11.5-1.9,16.4-4.6
		c4.3-2.5,5.6-4.7,3.9-6.7c-1.7-2-3.8-2.2-6.2-0.7c-6.2,3.4-10.8,3.1-13.9-0.9c-3.1-4-4.6-10.5-4.6-19.4v-96.6
		c0-13.3-3.1-24.3-9.2-33.3c-6.2-8.9-14-15.9-23.4-20.8c-9.4-4.9-19.7-7.9-30.8-8.8c-11.1-0.9-21.6-0.1-31.4,2.5
		c-9.9,2.6-18.4,7-25.7,13.2c-7.2,6.2-11.5,14-12.7,23.6c-0.6,4-0.1,6.9,1.6,8.8c1.7,1.9,3.6,2.8,5.8,2.8c2.2,0,4.1-0.8,5.8-2.5
		c1.7-1.7,2.2-4.2,1.6-7.6c-0.9-6.2,0.5-11.9,4.4-17.1c3.9-5.2,9-9.3,15.5-12.3c6.5-2.9,13.5-4.5,21-4.6c7.6-0.2,14.7,1.6,21.5,5.3
		c6.8,3.7,12.4,9.6,16.9,17.8c4.5,8.2,6.7,19,6.7,32.6V572c-3.1-8-8.1-14.3-15-19s-14.7-7.5-23.4-8.8c-8.6-1.2-17.7-0.9-27.1,0.9
		c-9.4,1.8-18,5.4-25.7,10.6c-7.7,5.2-14.1,12.2-19.2,20.8c-5.1,8.6-7.6,18.8-7.6,30.5c0,11.4,2,21.2,6,29.4
		C398.8,644.7,404,651.5,410.5,656.9z M434.1,572.9c5.2-8.6,11.5-14.6,18.7-17.8c7.2-3.2,14.7-3.8,22.4-1.6
		c7.7,2.2,14.2,6.8,19.4,13.9c2.2,3.1,3.8,6.6,4.9,10.6c1.1,4,1.5,7.9,1.2,11.8c-0.3,3.9-1.5,7.4-3.5,10.6c-2,3.2-5,5.5-9,6.7
		c-4.3,1.5-8.6,1.5-12.7,0c-4.2-1.5-6.7-4.2-7.6-7.9c-0.3-1.8,0.1-3.7,1.2-5.5c1.1-1.8,3.3-3.5,6.7-5.1c3.1-1.2,4.9-2.9,5.5-5.1
		c0.6-2.2,0.3-4.1-0.9-5.8c-1.2-1.7-3.2-2.7-6-3c-2.8-0.3-5.7,0.6-8.8,2.8c-4.6,2.8-7.2,6.8-7.9,12c-0.6,4.3-0.1,8.3,1.6,11.8
		c1.7,3.5,4.2,6.5,7.4,8.8c3.2,2.3,6.9,3.9,11.1,4.9c4.2,0.9,8.4,0.6,12.7-0.9c4-1.2,7.3-3.1,9.9-5.5c2.6-2.5,4.7-5.4,6.2-8.8v13.9
		c0,5.2-0.9,10.4-2.8,15.5c-1.8,5.1-4,9.5-6.5,13.2c-6.2,9.6-13.3,15.4-21.5,17.6c-8.2,2.2-16,1.4-23.4-2.3
		c-7.4-3.7-13.6-9.9-18.7-18.7c-5.1-8.8-7.6-19.3-7.6-31.7C426.2,593,428.8,581.6,434.1,572.9z"/>
	<path class="st0" d="M723.1,685.1c-1.5-11.3-6.6-20.9-15.3-28.9c-5.6-4.9-12.4-8.6-20.4-11.1c-8.1-2.5-16.5-4.2-25.3-5.3
		c-8.8-1.1-17.7-1.8-26.7-2.1c-9-0.3-17.2-0.9-24.6-1.8c-8-0.9-13.9-2.9-17.4-6c-3.6-3.1-5.3-6.5-5.3-10.2c0-3.7,1.5-7,4.6-9.9
		c3.1-2.9,7.4-4.7,13-5.3c6.2-0.6,12.5-0.3,19,0.9c6.5,1.2,13.1,1.8,20,1.8c9.3,0,18.1-1.4,26.5-4.2c8.4-2.8,15.7-6.9,22.1-12.3
		c6.3-5.4,11.4-12,15.1-19.9c3.7-7.9,5.6-16.9,5.6-27.1c0-13.2-3.9-25.1-11.6-35.6c-1.8-3.1-3.2-6.2-3.9-9.5c-0.8-3.2-0.8-6.2,0-9
		c0.8-2.8,2.5-5,5.1-6.7c2.6-1.7,6.1-2.4,10.4-2.1c-0.9-1.2-2.7-2.2-5.3-3c-2.6-0.8-5.5-1.2-8.8-1.2c-3.2,0-6.6,0.5-9.9,1.6
		c-3.4,1.1-6.5,3-9.2,5.8c-12-9.2-20.1-19.7-24.3-31.4c-4.2-11.7-5-23-2.5-34c2.5-10.9,7.9-20.6,16.2-29.1
		c8.3-8.5,19-14.1,31.9-16.9c5.9-1.2,12-1.7,18.5-1.4c6.5,0.3,12.8,1.5,19,3.5c6.2,2,11.9,4.9,17.3,8.8c5.4,3.9,9.9,8.6,13.6,14.1
		c-8-1.2-14,0.4-18,4.9c-4,4.5-6,9.5-6,15c0,5.2,1.9,9.8,5.8,13.6c3.9,3.9,8.6,5.8,14.1,5.8c5.2,0,9.7-1.9,13.4-5.5
		c3.7-3.7,5.7-8.2,6-13.4c0.3-4.9-0.2-9.7-1.4-14.3c-1.2-4.6-4.2-9.7-8.8-15.3c-6.2-7.4-13.6-13.2-22.4-17.3
		c-8.8-4.2-18-6.6-27.5-7.4c-9.6-0.8-19.1,0-28.7,2.3c-9.6,2.3-18.2,6-25.9,11.1c-7.7,5.1-14.2,11.7-19.4,19.9
		c-5.2,8.2-8.2,17.7-8.8,28.4c-0.6,8.9,0.5,17,3.2,24.3c2.8,7.2,6.1,13.9,9.9,19.9c3.9,6,7.6,11.3,11.1,16c3.5,4.6,5.8,8.6,6.7,12
		c-2.5-4.3-6.2-8-11.1-11.1c-4.9-3.1-11.1-4.9-18.5-5.5c-8-0.6-15.8,0.4-23.4,3c-7.6,2.6-14.4,6.2-20.6,10.9
		c-7.7,5.9-13.8,12.9-18.3,21.3c-4.5,8.3-6.7,17.6-6.7,27.7c0,12.3,2.8,23,8.3,31.9c5.5,8.9,12.8,16,21.7,21.3
		c-9.6,1.5-17,5.2-22.2,10.9c-5.2,5.7-8.4,12.1-9.5,19.2c-1.1,7.1-0.2,14.1,2.8,21c2.9,6.9,7.6,12.4,14.1,16.4
		c-4.3,1.5-8.7,3.7-13.2,6.5c-4.5,2.8-8.4,5.9-11.8,9.2c-5.5,6.8-8.6,14.5-9.2,23.1c-0.6,8.6,1.9,16.9,7.4,24.7
		c5.5,7.9,14.6,14.4,27.1,19.7c12.5,5.2,29,7.9,49.4,7.9c19.8,0,36.1-3.7,49-11.1c12.8-7.4,22.1-16.3,27.8-26.8
		C722.5,707.2,724.6,696.3,723.1,685.1z M615.4,512.8c1.8-6.5,5-11.9,9.5-16.4c4.5-4.5,10.4-6.7,17.8-6.7c7.7,0,13.7,2.2,18,6.5
		c4.3,4.3,6.9,9.2,7.9,14.6c0.9,5.4,0.2,10.7-2.3,16c-2.5,5.2-6.6,8.9-12.5,11.1c-4.3,1.5-8.6,1.5-12.9,0c-4.3-1.5-6.8-4.3-7.4-8.3
		c-0.9-4.3,1.5-7.7,7.4-10.2c3.4-1.2,5.4-3,6-5.3c0.6-2.3,0.3-4.3-0.9-6c-1.2-1.7-3.2-2.7-6-3c-2.8-0.3-5.9,0.6-9.2,2.8
		c-4.6,2.8-7.2,6.8-7.9,12c-0.6,4.3-0.1,8.3,1.6,11.8c1.7,3.5,4.2,6.5,7.4,8.8c3.2,2.3,7,3.9,11.3,4.6c4.3,0.8,8.6,0.7,12.9-0.2
		c4.9-1.2,9-3.3,12.3-6.2c3.2-2.9,5.6-6.5,7.2-10.9c0.3,2.5,0.5,5,0.7,7.6c0.2,2.6,0.2,5.5,0.2,8.6c0,18.5-2.5,32.2-7.6,41.2
		c-5.1,8.9-13.2,13.4-24.3,13.4c-21.9,0-32.8-18.2-32.8-54.6C611.7,532.1,612.9,521.8,615.4,512.8z M701.1,723.7
		c-3.5,4.9-8.4,9.2-14.6,12.7c-6.2,3.5-13.4,6.3-21.7,8.3c-8.3,2-17.1,3-26.4,3c-17.3,0-30.8-4.2-40.7-12.7
		c-9.9-8.5-15.6-18.3-17.1-29.4c-0.6-7.4,0.5-14.8,3.2-22.2c2.8-7.4,7.1-12.6,12.9-15.7c4,1.5,9.5,2.8,16.4,3.7
		c6.9,0.9,14.1,1.8,21.5,2.5c7.4,0.8,14.7,1.4,22,1.9c7.2,0.5,13.3,1,18.3,1.6c7.7,0.9,14.9,3.9,21.5,9c6.6,5.1,9.9,12.1,9.9,21
		C706.4,713.3,704.7,718.7,701.1,723.7z"/>
	<path class="st0" d="M731.4,658c-2.2,0-3.3,1.3-3.5,3.9c-0.2,2.6,1,3.9,3.5,3.9h69.4c2.2,0,3.2-1.3,3.2-3.9c0-2.6-1.1-3.9-3.2-3.9
		h-18.5V480.9h-6c-7.1,1.5-14.5,2.4-22.2,2.5c-7.7,0.2-15.3,0.2-22.7,0.2c-2.5,0-3.6,1.3-3.5,3.9c0.2,2.6,1.2,3.9,3,3.9h19V658
		H731.4z"/>
	<path class="st0" d="M958.5,635.8c-5.2,7.1-12.1,13.2-20.6,18.3c-8.5,5.1-19.2,7.3-32.1,6.7c-11.4-0.3-21-3.6-28.9-9.9
		c-7.9-6.3-14.1-14.3-18.7-23.8c-4.6-9.6-7.6-20.2-9-31.9c-1.4-11.7-1.4-23.4,0-34.9s4.2-22.3,8.3-32.4c4.2-10,9.5-18.3,16-24.7
		c10.5-10.2,21.7-15.3,33.8-15.5c12-0.2,22.3,2.9,31,9c4.6,3.4,8.2,7.3,10.6,11.8c2.5,4.5,3.9,8.9,4.2,13.4c0.3,4.5-0.5,8.5-2.5,12
		c-2,3.5-5.2,6.2-9.5,8.1c-4.3,1.8-8.6,2.1-12.7,0.7c-4.2-1.4-6.9-3.9-8.1-7.6c-0.6-1.5-0.5-3.3,0.5-5.3c0.9-2,3.1-3.8,6.5-5.3
		c3.1-1.5,4.9-3.4,5.5-5.5c0.6-2.2,0.2-4.1-1.2-5.8c-1.4-1.7-3.5-2.7-6.2-3c-2.8-0.3-5.7,0.8-8.8,3.2c-4.3,3.7-6.6,7.9-6.9,12.5
		c-0.6,4.3,0.1,8.3,2.1,12c2,3.7,4.6,6.6,7.9,8.8c3.2,2.2,7,3.5,11.3,4.2c4.3,0.6,8.6,0.2,12.9-1.4c6.2-2.2,10.6-5.9,13.4-11.3
		c2.8-5.4,4-11,3.7-16.9c-0.3-7.1-2.2-13.3-5.5-18.5c-3.4-5.2-7.9-9.7-13.4-13.4c-7.1-4.6-15.1-7.6-24-9c-8.9-1.4-17.9-1.5-26.8-0.5
		c-8.9,1.1-17.6,3.4-25.9,6.9c-8.3,3.5-15.4,7.9-21.3,13.2c-9.6,8.6-17.1,18.8-22.7,30.5c-5.5,11.7-8.9,23.9-9.9,36.5
		c-1.1,12.6,0,25.2,3.2,37.7c3.2,12.5,8.6,23.6,16,33.3c7.4,9.7,16.9,17.7,28.7,23.8c11.7,6.2,25.6,9.2,41.6,9.2
		c13.3,0,25.3-2.5,36.1-7.4c10.8-4.9,20-12.3,27.7-22.2c1.5-2.2,1.3-4.2-0.7-6C961.8,633.5,960,633.7,958.5,635.8z"/>
	<path class="st0" d="M171.7,410c1.1,0.7,2.1,0.7,3,0.1c1-0.7,1.4-1.5,1.4-2.6c0-0.9-0.3-1.7-1-2.5c-0.7-0.8-1.4-1.3-2.2-1.5h-0.3
		c-0.6-0.1-1.1,0.1-1.7,0.4c-0.5,0.4-0.9,0.9-1.1,1.4c-0.3,0.9-0.3,1.7,0.1,2.6C170.4,408.8,171,409.5,171.7,410z"/>
	<path class="st0" d="M158.3,414.2c1,0.5,1.7,1.1,2.1,1.9c0.4,0.8,0.8,1.6,1.2,2.5c0.5,1.3,0.7,2.5,0.7,3.7
		c-0.1,1.2-0.1,2.4-0.1,3.7c-0.1,4.9-0.1,9.8-0.1,14.6c0,4.8-0.1,9.7-0.3,14.6c-0.1,1.2-0.2,2.2-0.4,3.2c-0.1,1-1,1.5-2.7,1.7
		c-1,0.2-1.5,0.9-1.5,2c0,1.1,0.6,1.7,1.7,2c0.9,0.2,1.7,0.2,2.5,0c0.6-0.2,1.2-0.4,1.7-0.5c0.6-0.1,1.2-0.3,1.7-0.5
		c2.2-0.8,4.4-1.2,6.5-1.3c2.1-0.1,4.3,0.2,6.5,1c1,0.3,1.9,0.5,2.8,0.7c0.9,0.1,1.9,0.3,2.8,0.5c1,0.2,2,0,3-0.4
		c1.1-0.5,1.5-1.3,1.3-2.3c-0.2-1.1-0.8-1.7-1.7-2c-0.3-0.1-0.7-0.1-1.3-0.1c-0.9-0.2-1.4-0.4-1.6-0.6c-0.2-0.2-0.3-0.7-0.3-1.6
		c0-2.1,0-4.2,0.1-6.3c0-2.1,0.1-4.2,0.2-6.3c0.2-4.8,0.4-9.6,0.6-14.4c0.2-4.7,0.4-9.5,0.6-14.4c0.1-3.7,0.1-7.3,0.1-10.9
		c0-3.6,0.1-7.2,0.3-10.9c0.2-3.7,0.3-7.4,0.2-11.1c-0.1-3.7,0-7.4,0.2-11.1c0.1-1.5,0.2-2.3,0.4-2.6c0.2-0.3,1.1-0.5,2.6-0.7h0.9
		c1.2-0.3,1.8-0.9,1.9-1.9c0.1-1.1-0.4-1.9-1.4-2.6l-0.1,0.1c-0.5-0.3-1-0.5-1.6-0.5c-0.6,0-1.2,0-1.7,0.1c-1.1,0.2-2.1,0.4-3,0.7
		c-0.9,0.2-1.9,0.6-2.8,0.9c-1.8,0.8-3.9,1.2-6.3,1.2c-1.4,0-2.7-0.1-4-0.4c-1.3-0.3-2.7-0.7-4-1.2c-0.9-0.3-1.7-0.5-2.6-0.7
		c-0.9-0.2-1.8-0.2-2.8,0c-1.6,0.3-2.3,1.1-2.3,2.3c0,1.3,0.7,2,2.2,2.3c1.2,0.3,1.8,0.6,2,0.8c0.2,0.2,0.3,1,0.3,2.2V383
		c0.1,4.4,0,8.6-0.2,12.8c-0.2,4.2-0.3,8.5-0.2,12.8c0,1.2-0.1,1.8-0.3,2c-0.2,0.1-0.8,0.1-1.9-0.2c-1.5-0.4-2.6-0.1-3.2,0.9
		C156.4,412.4,156.8,413.4,158.3,414.2z M167.4,406.2c0.2-5.3,0.3-10.8,0.4-16.3c0-5.6,0.1-11.2,0.1-16.9v-1.3c0-0.8,0.4-1.1,1.3-1
		l3.5,0.4c1,0.2,1.9,0.2,2.8,0.1c0.9-0.1,1.9-0.2,2.8-0.4c1.2-0.1,1.7,0.4,1.7,1.4c-0.1,1.9-0.1,3.9-0.1,5.9c0,2,0,3.9-0.2,5.9
		l0.3,0.1v1.3c-0.1,4.6-0.2,9.3-0.4,13.9c-0.2,4.6-0.2,9.3-0.1,13.9v1.7c-0.1,0.8-0.2,1.2-0.4,1.3c-0.2,0.1-0.6,0-1.3-0.3
		c-2.8-1.3-5.7-1.3-8.6-0.1c-0.8,0.4-1.3,0.5-1.4,0.4c-0.2-0.1-0.3-0.7-0.3-1.5V406.2z"/>
	<path class="st0" d="M201.5,413.7c1,0.5,1.7,1.1,2.1,1.8c0.4,0.7,0.8,1.5,1.2,2.4c0.5,1.3,0.7,2.5,0.7,3.7
		c-0.1,1.2-0.1,2.4-0.1,3.7c-0.1,4.9-0.1,9.8-0.1,14.7c0,4.9-0.1,9.8-0.3,14.7c-0.1,1.2-0.2,2.2-0.4,3.1c-0.1,0.9-1,1.5-2.7,1.7
		c-1,0.2-1.5,0.9-1.5,2c0.1,1.2,0.7,1.9,1.9,2.2c0.9,0.1,1.9,0,3-0.3l3-0.9c2.2-0.8,4.4-1.2,6.5-1.3c2.1-0.1,4.3,0.2,6.5,1
		c1,0.3,1.9,0.5,2.8,0.7c0.9,0.1,1.9,0.3,2.8,0.5c1.3,0.2,2.4,0,3.3-0.6c0.9-0.5,1.3-1.2,1.2-2.2c-0.2-1.1-0.7-1.7-1.6-2
		c-0.3-0.1-0.7-0.1-1.3-0.1c-1.2-0.2-1.8-0.4-2-0.6c-0.2-0.2-0.3-0.9-0.3-2c0-3.7,0.1-7.4,0.3-11.1c0.2-3.7,0.4-7.4,0.6-11.1
		c0.4-6.1,0.6-12.2,0.6-18.3c0.1-6.1,0.3-12.2,0.6-18.3c0.3-6.1,0.3-12.2,0.1-18.3c0-1.8,0.2-3.4,0.6-4.8c0.6,2.3,1.1,4.6,1.4,7
		c0.4,2.3,0.7,4.6,1,7c0.4,2.9,0.7,5.8,0.9,8.8c0.2,3,0.6,5.9,1.1,8.8c0.8,4.5,1.6,9,2.5,13.5c0.9,4.4,1.8,8.9,2.9,13.3
		c1,4.1,2,8.1,3.2,12c1.2,4,2.6,7.9,4.2,11.7c0.7,1.5,1.6,3,2.9,4.5c1.2,1.4,2.4,2.3,3.8,2.8c1.4,0.5,3,0.4,4.7-0.3
		c0.4-0.2,0.7-0.3,1.1-0.4c0.3,0,0.7-0.2,1.1-0.4c2-0.7,4.1-1.1,6.1-1.2c2-0.1,4.1,0.2,6.1,0.9c1.8,0.6,3.8,1,5.9,1.3
		c1.4,0.2,2.5,0.1,3.3-0.3c1.1-0.5,1.5-1.3,1.3-2.3c-0.2-1.1-0.8-1.7-1.7-2c-0.3-0.1-0.7-0.1-1.3-0.1c-0.9-0.2-1.4-0.4-1.6-0.6
		c-0.2-0.2-0.3-0.7-0.3-1.6c0-2.1,0-4.2,0.1-6.3c0-2.1,0.1-4.2,0.2-6.3c0.2-4.7,0.4-9.4,0.6-14.1c0.2-4.7,0.4-9.4,0.6-14.1
		c0.1-3.8,0.1-7.5,0.1-11.3s0.1-7.5,0.3-11.3c0.2-3.7,0.3-7.3,0.2-10.9c-0.1-3.6,0-7.2,0.2-10.9c0.1-1.4,0.3-2.2,0.5-2.4
		c0.2-0.2,1-0.5,2.4-0.7c0.4,0,0.7,0,0.9-0.1c1.2-0.3,1.8-1,1.9-2c0.1-1.1-0.4-1.9-1.4-2.6l-1,0.6c-0.8-0.5-1.8-0.6-3-0.4
		c-0.9,0.2-1.8,0.4-2.6,0.6c-0.9,0.2-1.7,0.5-2.5,0.9c-2.2,1.1-4.5,1.6-6.9,1.5c-2.3,0-4.7-0.5-7-1.2c-0.8-0.2-1.6-0.4-2.4-0.6
		c-0.8-0.2-1.6-0.4-2.4-0.6c-1.2-0.2-2.2-0.1-3,0.3c-0.8,0.5-1.2,1.1-1.2,1.9c0,1.1,0.5,1.7,1.4,2c0.6,0.2,1,0.3,1.3,0.3
		c1.2,0,1.7,0.7,1.7,2v2.2c0.1,5.8,0,11.6-0.1,17.4c-0.2,5.8-0.3,11.6-0.4,17.4c0,0.5,0,1,0.1,1.5c0.1,0.5-0.1,1-0.4,1.4
		c-0.4,0.4-0.8,0.4-1.2,0.1s-0.8-0.5-1.3-0.6c-1.3-0.2-2.1,0.2-2.6,1.3c-0.5,1.1-0.2,2,0.9,2.8c0.2,0.2,0.4,0.3,0.6,0.4
		c1.1,0.5,1.9,1.4,2.6,2.8c0.5,1.1,0.8,2.2,1.1,3.3c0.2,1.1,0.3,2.2,0.1,3.4c-0.1,0.6-0.1,1.2-0.1,1.7c0,0.6,0,1.2,0,1.7
		c-0.1,4.4-0.1,8.7-0.1,13.1c0,4.4-0.1,8.7-0.4,13.1c0,0.4,0,0.8,0.1,1.2c0.1,0.4-0.1,0.8-0.6,0.9c-0.5,0.2-0.9,0.1-1.2-0.4
		c-0.3-0.4-0.6-0.8-0.9-1.1l-1.3-1.7c-1.1-1.6-1.9-3.4-2.6-5.2c-0.7-1.8-1.3-3.7-1.7-5.7c-1.6-6.4-2.9-12.8-3.8-19.1
		c-0.9-6.4-1.9-12.8-2.8-19.1c-0.8-5-1.5-10-2.1-15c-0.6-5-1.5-9.9-2.5-14.9c-0.2-1.2-0.4-2.3-0.6-3.6c-0.2-1.2-0.5-2.4-0.9-3.6
		c-0.4-1.2-0.9-2-1.4-2.4c-0.6-0.4-1.5-0.6-2.8-0.5c-2.2,0.2-4.2,0.7-5.9,1.5c-2.2,1-4.4,1.4-6.6,1.4c-2.2,0-4.4-0.4-6.6-1.1
		c-0.8-0.2-1.6-0.4-2.4-0.6c-0.8-0.2-1.6-0.4-2.4-0.6c-1.1-0.3-2.1-0.3-3,0c-1.4,0.3-2,1-2,2.2c0.1,1.1,0.7,1.7,1.9,2h0.9
		c0.9,0.2,1.4,0.4,1.6,0.7c0.2,0.2,0.3,0.8,0.4,1.7v1.7c0.1,6,0,11.9-0.1,17.8c-0.2,5.9-0.3,11.8-0.3,17.8c0,0.4,0,0.8,0,1.1
		c0,0.3-0.1,0.7-0.3,0.9c-0.2,0.2-0.5,0.2-0.9,0l-1.3-0.4c-1.5-0.5-2.6-0.1-3,1.2C199.8,412.1,200.2,413.1,201.5,413.7z
		 M262.2,404.5c0.2-5.2,0.3-10.6,0.4-16.2c0-5.6,0.1-11.2,0.1-16.9v-1.3c0-0.9,0.4-1.3,1.3-1.2h0.9c1.4,0.2,2.8,0.3,4.2,0.4
		c1.4,0.1,2.9,0,4.3-0.3c0.8-0.2,1.3-0.2,1.5,0c0.2,0.2,0.3,0.7,0.3,1.4c0,4.1-0.1,8-0.1,12c-0.1,3.9-0.2,7.9-0.4,12l-0.1,0.7
		c-0.2,2.8-0.3,5.6-0.3,8.5c0,2.9,0,5.7-0.1,8.5v2.2c0,1-0.4,1.2-1.2,0.7c-2.9-1.5-6-1.5-9.3,0c-0.9,0.4-1.3,0-1.3-1.2V404.5z
		 M211.2,405.2c0.2-5.2,0.3-10.6,0.4-16.2c0-5.6,0.1-11.2,0.1-16.9v-1.3c0-0.9,0.4-1.3,1.3-1.2h0.9c1.4,0.2,2.7,0.3,4.1,0.4
		c1.4,0.1,2.8,0,4.3-0.3c0.8-0.2,1.3-0.2,1.4,0c0.2,0.2,0.3,0.7,0.3,1.5c0,4.1,0,8-0.1,12c-0.1,3.9-0.2,7.9-0.4,12l-0.1,0.7
		c-0.2,2.8-0.3,5.6-0.3,8.5c0,2.9,0,5.7-0.1,8.5v2.2c0,1-0.4,1.2-1.2,0.7c-2.9-1.5-5.9-1.5-9.1,0c-0.9,0.4-1.3,0-1.3-1.2V405.2z"/>
	<path class="st0" d="M216.1,408.1c1.1,0.7,2.1,0.7,3,0.1c1-0.7,1.5-1.5,1.5-2.6c0-0.8-0.3-1.6-0.9-2.4c-0.6-0.8-1.3-1.3-2-1.5
		l-0.4-0.1c-0.6-0.2-1.2-0.1-1.7,0.3s-1,0.9-1.2,1.6c-0.3,0.9-0.3,1.7,0.1,2.6C214.8,406.9,215.3,407.6,216.1,408.1z"/>
	<path class="st0" d="M266.9,407.9c1.1,0.7,2,0.8,2.9,0.3c1.1-0.6,1.6-1.5,1.6-2.6c0-0.9-0.3-1.7-1-2.5c-0.7-0.8-1.4-1.3-2.2-1.5
		c-1.4-0.2-2.3,0.4-2.8,1.7C264.7,405.2,265.1,406.8,266.9,407.9z"/>
	<path class="st0" d="M303.9,763c3.1-5.2,5.4-10.5,6.7-16c1.3-5.5,2.1-11,2.1-16.5c0-5.2-0.5-10-1.4-14.6c-0.9-4.6-2.4-9-4.6-13.4
		l0.4-0.6c-1.6-3.2-3.5-6.2-5.7-8.9c-2.2-2.7-4.9-5-8.2-6.9c-7.1-4.3-14.5-5-22.3-1.9c-2.9,1.1-5.4,2.6-7.8,4.4
		c-2.3,1.8-4.4,3.9-6.2,6.3c-3.5,4.4-6.2,9.1-8.1,14c-1.9,4.9-3.2,10.2-3.9,15.7c-0.2,0.9-0.3,1.5-0.5,1.6c-0.1,0.1-0.6,0.1-1.5-0.1
		c-1.5-0.3-2.4,0-2.8,1c-0.5,0.9-0.2,1.8,0.7,2.6c1.3,1,2.1,2.2,2.6,3.5c0.4,1.3,0.7,2.7,0.8,4.2c0.2,3.1,0.6,6.2,1.2,9.3
		c0.6,3,1.5,6,2.6,9c1.3,3.5,2.9,6.8,4.8,9.8c1.9,3,4.2,5.7,6.8,8.2c4.4,4.1,9.5,6.3,15.2,6.9c5.7,0.5,11-0.9,16.1-4.1
		c2.7-1.7,5.1-3.8,7.2-6C300.4,768.2,302.3,765.7,303.9,763z M262.1,722.1c-0.3,2.8-0.4,5.5-0.3,8.3l-0.1,0.1v1.2
		c0,0.7-0.4,1-1.1,0.7c-1.7-0.7-3.3-1.1-5-1c-1.7,0-3.3,0.4-5,1c-0.6,0.2-1,0.1-1.2-0.1c-0.1-0.3-0.2-0.6-0.2-1.1
		c0-1.6,0.1-3.1,0.3-4.6c0.2-1.5,0.4-3,0.7-4.6c0.7-4,1.8-7.8,3.1-11.5c1.3-3.7,3.2-7.2,5.6-10.5c1.9-2.7,4.2-5,6.6-7.1
		c2.5-2,5.4-3.6,8.7-4.6c0.2-0.1,0.5-0.1,0.8-0.1l0.4,0.4c-0.5,0.6-0.9,1.1-1.5,1.7c-0.5,0.6-1,1.2-1.5,1.8
		c-2.4,3.2-4.3,6.7-5.6,10.4c-1.3,3.7-2.5,7.5-3.4,11.3C262.9,716.6,262.4,719.3,262.1,722.1z M288.2,771.7c-2,0.2-4,0-6.2-0.8
		c-2.1-0.7-4-1.8-5.6-3.3c-1.6-1.5-3-3.2-4.2-5.1c-1.4-2.3-2.5-4.7-3.2-7.1c-0.8-2.4-1.4-5-1.7-7.7c-0.3-2.1-0.4-4.3-0.4-6.6
		c0-2.3,0-5,0-8.2c-0.2-4,0.1-8.2,0.8-12.8c0.7-4.6,1.9-9.2,3.6-13.8c0.8-2.4,1.8-4.7,2.9-6.9c1.1-2.2,2.4-4.2,4-6.2
		c0.7-1,1.6-1.9,2.5-2.6c0.9-0.7,2-1.3,3.3-1.7c1.2-0.4,2.4-0.4,3.6,0c3,1.2,5.5,2.8,7.6,4.8c2.1,2,4,4.3,5.7,6.8
		c1.9,3,3.5,6.3,4.6,9.6c1.1,3.4,1.9,6.8,2.4,10.3c1.7,11.7,0.3,22.9-4,33.5l-0.4-0.1c-2.2,5.4-5.4,10.3-9.5,14.7
		C292.1,770.4,290.2,771.5,288.2,771.7z"/>
	<path class="st0" d="M255.6,722.1v0.3c-1.8,0-2.8,0.7-2.8,2.1c0,0.7,0.3,1.4,1,2c0.6,0.6,1.4,0.9,2.2,0.9c0.7,0,1.4-0.3,2-0.8
		c0.6-0.5,0.9-1.1,0.9-1.7c-0.1-0.7-0.5-1.4-1.2-1.9C257.1,722.4,256.4,722.1,255.6,722.1z"/>
	<path class="st0" d="M336.7,719.9l0.1-0.1c-0.7,0-1.4,0.3-1.9,0.8c-0.6,0.6-0.8,1.2-0.8,1.8c0,0.6,0.2,1.1,0.7,1.5
		c0.5,0.5,1,0.7,1.5,0.7c0.6,0,1.2-0.3,1.7-0.8c0.5-0.5,0.7-1.1,0.7-1.9C338.7,720.6,338,719.9,336.7,719.9z"/>
	<path class="st0" d="M350.2,777.7c1.6,0.2,2.4-0.6,2.6-2.2c0.1-1.2-0.6-2-1.9-2.4l-3.3-0.8c-0.9-0.1-1.3-0.6-1.1-1.7
		c0.2-2.5,0.3-5,0.3-7.5s0-5,0-7.5v-19.5c0-0.5,0-0.9,0.1-1.4s0.3-0.9,0.8-1.4c0.6-0.6,1.3-1.2,2.3-1.7c1-0.5,2-0.8,3.1-1
		c1.1-0.2,2.2-0.3,3.3-0.3c1.1,0,2.1,0.3,2.9,0.6c1.9,0.8,2.8,2.3,2.6,4.4c-0.1,0.5-0.2,0.9-0.3,1.2c-0.1,0.4-0.2,0.8-0.3,1.2
		c-0.1,0.6-0.1,1.1-0.1,1.7c0,0.6,0.3,1.1,0.6,1.5c0.5,0.7,1.1,1.1,1.9,1.2c0.8,0,1.4-0.3,1.9-1c0.5-0.6,0.6-1.2,0.4-1.9
		c-0.1-1.5,0.2-3,1-4.7c0.5-1,0.9-2,1.2-3c0.4-1,0.6-2,0.8-3c0.5-1.9,0.4-3.7-0.1-5.3c-0.6-1.6-1.4-2.2-2.6-1.9
		c-1.3,0.3-1.8,1.3-1.7,3c0,0.2,0,0.4,0.1,0.6c0,0.2,0.1,0.4,0.1,0.6c0,0.5,0,0.9,0,1.3c0,0.4-0.2,0.9-0.7,1.5
		c-1.3-1.2-2.7-2-4.1-2.4c-1.4-0.4-2.9-0.6-4.5-0.6c-1.3,0-2.5,0.2-3.6,0.5c-1.1,0.3-2.2,0.7-3.3,1.2c-0.7,0.3-1.2,0.3-1.3,0.2
		c-0.1-0.1-0.3-0.6-0.3-1.3v-0.8c0.1-5.9,0.1-11.8,0.1-17.6c0-5.9,0.1-11.7,0.3-17.6c0-0.7,0.1-1.2,0.4-1.5c0.3-0.2,0.7-0.4,1.2-0.5
		c1-0.2,2.1-0.3,3.1-0.5c1.1-0.1,2.1-0.3,3.1-0.3c1.8-0.2,3.7-0.2,5.6-0.1c1.9,0.1,3.8,0.4,5.6,0.8c2.1,0.6,3.9,1.5,5.3,2.7
		c1.4,1.2,2.4,2.9,2.9,5.1c0.6,2.2,1.6,3.1,3,2.6c1.5-0.5,1.9-1.8,1.4-3.9l0.3-0.1c-1.3-4.9-4.2-8.2-8.6-10
		c-3.5-1.5-7.4-2.1-11.6-1.9c-2.9,0.1-5.7,0.4-8.4,0.8c-2.8,0.5-5.5,0.9-8.3,1.2c-3.1,0.5-6.3,0.8-9.3,0.9c-3.1,0.1-6.2-0.4-9.2-1.7
		c-0.6-0.3-1.2-0.3-1.7-0.1c-0.5,0.2-0.8,0.6-1,1c-0.5,1.1-0.1,2,1,2.6c0.6,0.4,1.1,0.7,1.7,0.9c0.6,0.2,1.2,0.4,1.8,0.6
		c1.2,0.5,1.9,0.8,2.1,1.1c0.2,0.3,0.3,1.1,0.2,2.5c-0.1,2.5-0.2,5-0.3,7.5c-0.1,2.5-0.1,5-0.1,7.5c0,6.3-0.1,12.5-0.4,18.7
		c0,0.2,0,0.4,0,0.7c0,0.3-0.1,0.5-0.3,0.7c-0.5,0.1-0.8,0-1.1-0.2c-0.3-0.2-0.6-0.4-1-0.6c-1.5-0.6-2.5-0.3-3,0.7
		c-0.6,1.1-0.4,2.1,0.8,2.9c1.7,1.2,2.8,2.6,3.5,4.2c0.6,1.6,1,3.4,1,5.3c0,1.9-0.1,3.9-0.2,5.8c-0.1,1.9-0.2,3.9-0.2,5.8
		c0,3.1,0,6.3-0.1,9.3c0,3.1-0.2,6.2-0.3,9.3c-0.1,0.7-0.2,1.3-0.4,1.8c-0.2,0.5-0.6,0.8-1.4,1.1c-1.1,0.5-2,1-2.8,1.7
		c-1.1,0.8-1.3,1.8-0.7,2.9c0.6,0.9,1.4,1.2,2.6,0.7l0.8-0.4c2.4-1.3,4.9-2.1,7.4-2.3c2.5-0.2,5.1-0.2,7.8,0.2
		c1.3,0.2,2.6,0.4,3.9,0.8c1.3,0.3,2.6,0.6,3.9,0.9C348.2,777.6,349.1,777.7,350.2,777.7z M342.3,691.2v0.1
		c-0.2,3.1-0.2,6.3-0.1,9.6c0.1,3.2,0,6.9-0.1,10.9v14.7v1.7c-0.1,1.2-0.2,1.9-0.5,2.1c-0.2,0.2-0.9,0.1-2.1-0.3
		c-1.2-0.4-2.5-0.3-4.1,0.1l-2,0.8c-0.6,0.2-1,0.2-1.2,0.1c-0.2-0.1-0.3-0.5-0.3-1.2c0-1.1,0-2.2-0.1-3.3c0-1.1,0-2.2,0.1-3.3
		c0.3-3.3,0.4-6.7,0.3-10c0-3.4,0-6.7,0.1-10l0.4-11.2c0-0.9,0.1-1.5,0.3-1.7c0.2-0.2,0.8-0.3,1.6-0.3c1,0,2-0.1,3.1-0.2
		c1-0.1,2.1-0.2,3.1-0.2c0.7,0,1.2,0.1,1.4,0.3C342.3,690,342.4,690.5,342.3,691.2z"/>
	<path class="st0" d="M497.9,115.9c-3.7,5.1-7.1,9.6-10.4,14.2c0.3,0.3,0.5,0.7,0.8,1c5.6-1.5,10.2-5.5,15.9-7.5
		c0.3,1.6,0.6,3,0.8,4.3c1.1,12,2.1,24.1,3.1,36.1c0.8,9.2,1.6,18.4,2.5,27.7c0.1,0.9,0.6,1.8,1,2.7c0.4,0,0.7-0.1,1.1-0.1
		c1.7-7.7,1.6-15.6,2.5-23.4c0.9-7.8,1.4-15.6,2.1-23.4c0.7-7.9,1.4-15.8,2.1-24.3c6.4,3.4,12.3,6.5,18.1,9.6
		c0.3-0.3,0.6-0.6,0.9-0.9c-3.1-5.5-8.4-9.6-11.9-15.7c16-2,31.4-3.9,46.9-5.8c0-0.4,0-0.8,0-1.2c-15.1-1.8-30.2-3.5-46.2-5.4
		c2.9-3.6,5.4-6.4,7.6-9.4c2.2-2.9,5.1-5.2,6.1-9.1c-7.4,3.6-14,8.5-21.4,12.7c-0.4-1.8-0.8-3.1-0.9-4.4c-0.8-5.8-1.4-11.5-2.2-17.3
		c-1-8.2-2-16.5-3.2-24.7c-0.2-1.4,0-3.1-2.2-4.5c-2.9,17-4,33.8-6.8,50.8c-3.1-1.8-5.5-3.3-7.9-4.7c-2.4-1.5-4.7-3.1-7.2-4.4
		c-2.3-1.2-4.2-3.6-8.1-3.6c5.3,6.3,10,12.1,15.4,18.5c-8.4,1-16,1.8-23.5,2.8c-7.4,1-14.9,1.2-22.1,2.9c0,0.4,0,0.7,0,1.1
		C466.4,112.3,481.8,114.1,497.9,115.9z"/>
	<path class="st0" d="M546,932.9c2.2-2.9,5.1-5.2,6.1-9.1c-7.4,3.6-14,8.5-21.4,12.7c-0.4-1.8-0.8-3.1-0.9-4.4
		c-0.8-5.8-1.4-11.5-2.2-17.3c-1-8.2-2-16.5-3.2-24.7c-0.2-1.4,0-3.1-2.2-4.5c-2.9,17-4,33.8-6.8,50.8c-3.1-1.8-5.5-3.3-7.9-4.7
		c-2.4-1.5-4.7-3.1-7.2-4.4c-2.3-1.2-4.2-3.6-8.1-3.6c5.3,6.3,10,12.1,15.4,18.5c-8.4,1-16,1.8-23.5,2.8c-7.4,1-14.9,1.2-22.1,2.9
		c0,0.4,0,0.7,0,1.1c15.3,1.8,30.7,3.6,46.8,5.5c-3.7,5.1-7.1,9.6-10.4,14.2c0.3,0.3,0.5,0.7,0.8,1c5.6-1.5,10.2-5.5,15.9-7.5
		c0.3,1.6,0.6,3,0.8,4.3c1.1,12,2.1,24.1,3.1,36.1c0.8,9.2,1.6,18.4,2.5,27.7c0.1,0.9,0.6,1.8,1,2.7c0.4,0,0.7-0.1,1.1-0.1
		c1.7-7.7,1.6-15.6,2.5-23.4c0.9-7.8,1.4-15.6,2.1-23.4c0.7-7.9,1.4-15.8,2.1-24.3c6.4,3.4,12.3,6.5,18.1,9.6
		c0.3-0.3,0.6-0.6,0.9-0.9c-3.1-5.5-8.4-9.6-11.9-15.7c16-2,31.4-3.9,46.9-5.8c0-0.4,0-0.8,0-1.2c-15.1-1.8-30.2-3.5-46.2-5.4
		C541.3,938.7,543.8,935.9,546,932.9z"/>
	<path class="st0" d="M826.2,723c-1.8-0.7-3.5-1.5-5.3-2.2c-6.1-2.3-9.1-6.7-9.5-13.1c-0.5-9.7-0.7-19.3,2.3-28.7
		c0.2-0.6,0.3-1.2,0.5-1.7c0.4-1.5-0.3-2-2-2c-0.6,1.8-1.2,3.6-1.7,5.4c-1.1,4-2.1,8-3.5,11.9c-2.1,5.6-4.7,10.9-9.1,15.1
		c-3.7,3.6-8.1,5.9-13.3,6.5c-2.9,0.4-5.9,0.8-8.9,1c1.7,0.6,3.4,1,5.1,1.5c3.6,0.9,6.4,2.7,8,6.2c1.2,2.6,2.3,5.1,2.9,7.9
		c0.9,4.5,1.4,9,1,13.5c-0.5,6,0.1,12.1-1.3,18c-0.3,1.1-0.2,2.1,1.7,2.1c1.6-4.5,3.3-8.9,4.2-13.6c1.4-7.1,5-13,9.6-18.3
		c5.1-5.9,11.4-9.1,19.5-7.9c0.5,0.1,1,0.1,1.3-0.4C827.6,723.4,826.9,723.2,826.2,723z M801.5,732.1c2-4.6,6.1-7.3,9.6-10.6
		c-4.8-2.3-4.9-6.9-5.4-11.4c-2,3.8-1.9,4,1.5,11.9c-2,1.8-4.2,3.4-5.7,5.7c-1,1.5-1.9,3.1-1.2,5c0.6,1.9-1.5,2.6-1.8,4.3
		c-1.5-2.1-5-12.9-6.7-20.6c2.3-2.2,5.4-3.4,8-5.4c2.5-2,4.7-4.3,6.6-7.2c1.3,6.8,1.3,13.6,8,17.7
		C809.8,725.2,805.5,728.4,801.5,732.1z"/>
	<path class="st0" d="M767.6,763.7c-3.9-1.8-5.8-4.8-5.7-9.1c0.1-4.3,0-8.6,1.2-12.9c0.2-0.6,0.5-1.3-0.1-2.2
		c-1.1,1-1.1,2.2-1.4,3.3c-0.8,3.2-1.8,6.4-3.4,9.3c-2.5,4.5-6.2,7.3-11.5,7.8c-0.9,0.1-1.7,0.2-3.3,0.4c1.3,0.3,1.9,0.5,2.6,0.6
		c2.3,0.4,3.7,1.7,4.6,3.8c1.3,2.8,1.9,5.8,1.8,8.8c-0.1,3.7,0.1,7.4-0.7,11.1c-0.1,0.4,0,0.8,0.4,1c0.7,0,0.8-0.6,0.9-1
		c0.7-2.1,1.4-4.2,1.9-6.4c1-4.2,3.3-7.5,6.3-10.4c2-1.9,4.2-2.6,6.9-2.2c0.7,0.1,1.5,0.7,2.1-0.3
		C769.7,764.5,768.6,764.1,767.6,763.7z M759.1,766.8c0.7-1.3,1.2-1.9,2.3-2C761.1,765.8,760.2,766.1,759.1,766.8z M761.4,764.7
		c0.1-0.4,0.3-0.9,0.1-1.1c-1.7-1.4-1.9-3.5-2.4-5.8c-1.4,2.4,0.2,4,0.8,6.1c-2.5,1.3-3.5,3.9-4.6,7c-2.1-3.4-2.5-6.7-3.6-9.9
		c2.6-1.9,5.4-3.5,7.7-6.4c0.6,3.7,1.2,6.8,4,8.9C762.7,764.2,762.3,764.9,761.4,764.7z"/>
	<path class="st0" d="M455.5,753.9c-2.7-2.6-6-4.8-9.4-6.4c-5.8-2.7-12.2-3.2-18.6-2.8c-1.1,0.1-2.3,0.1-3.8,0.2
		c0.6-0.5,0.6-0.6,0.8-0.7c10.6-5.8,22.1-9.2,33.8-12.1c0.5-0.1,1.5,0.4,1.9,0.9c1.9,2.3,3.6,4.7,5.5,7.1
		c5.4,6.6,10.6,13.4,17.3,18.7c3.1,2.5,6.6,4.5,10.7,4.9c6.1,0.7,10.6-4.1,9.6-10.1c-0.2-1.2-0.6-2.5-1.1-3.6c-2.5-6-6.6-10.6-12-14
		c-3.9-2.5-8.1-4.5-12-6.5c-0.2,0.1,0,0,0.2,0c11.3-0.8,22.3,0.3,32.9,4.2c0.6,0.2,1.2,0.9,1.6,1.5c5.6,9.8,13.3,17.5,23.3,22.9
		c3.9,2.1,8,3.4,12.4,3.4c3.7,0,5.7-1.8,6.5-5.4c1.1-4.8-0.2-9-3-12.8c-6.7-9.1-16-13.6-26.8-15.4c-6.3-1-12.9,0.1-19.2-2.1
		c-1.4-0.5-3.1-0.7-4.6-0.9c-8.5-1.2-17-1.5-26.1-0.9c0.9-0.7,1.3-1.1,1.7-1.4c4.9-3.8,9.1-8.2,12.6-13.3c3.4-5,5.5-10.4,5.6-16.5
		c0-6.8-5.5-10.4-11.6-7.3c-2.5,1.3-4.8,3.1-6.7,5.2c-8.8,9.5-13.6,21-15.8,33.7c-0.2,1.3-0.6,1.7-1.9,1.9
		c-12,2.2-23.6,5.5-34.8,10.5c-0.4,0.2-0.8,0.2-1.2,0.4c2.3-3.9,4.6-7.7,6.6-11.6c3-5.6,5.2-11.6,5.4-18c0.1-4.2-1.9-5.9-6-5.2
		c-4.5,0.8-8.3,3-11.5,6.1c-5.2,5.1-8.9,11.2-11.5,18c-2.7,7.3-4.5,14.7-2.7,22.5c0.1,0.5-0.4,1.3-0.8,1.7c-2.4,2.5-4.9,4.8-7.2,7.3
		c-0.8,0.9-1.5,2.1-1.8,3.3c-0.6,2.2,1,3.6,3,2.7c1.3-0.5,2.4-1.5,3.4-2.4c2.7-2.3,5.4-4.7,8-7c10.1,6.7,20.5,11.6,32.3,13
		c3.8,0.4,7.9,0.3,11.6-0.7C458.4,765.1,460,758.4,455.5,753.9z M543.3,744.4c1.2,0.9,2.3,2.2,3,3.5c1.1,2-0.4,3.9-2.7,3.7
		c-0.6-0.1-1.1-0.2-1.7-0.4c-8.9-3.7-16.2-9.5-22.9-17.2C528,736.6,536.3,739,543.3,744.4z M481.7,739.3c4.7,2.9,9,6.4,13.5,9.6
		c0.6,0.4,1.2,0.9,1.5,1.5c0.5,1,1.4,2.5,1.1,3.1c-0.5,0.9-2.1,1.5-3.2,1.5c-1.5,0-3.2-0.5-4.4-1.3c-8.1-5.7-14.5-13.2-21.4-20.1
		c0.1-0.2,0.2-0.3,0.3-0.5C473.2,735.1,477.7,736.8,481.7,739.3z M477.9,705c2-3.2,4.4-6.1,6.8-9c0.8-1,1.9-2.4,3.6-1.3
		c1.8,1.2,1.2,2.8,0.4,4.2c-1.9,3.2-3.6,6.5-6,9.3c-4.4,5.2-9.2,10-13.9,15c-0.3-0.2-0.6-0.4-0.9-0.6
		C471.3,716.7,474.4,710.7,477.9,705z M410.1,742.1c0.3-8,2.4-15.5,6.4-22.3c1.8-3.1,4.1-6.1,6.7-8.7c1.5-1.5,3.9-2.1,6.1-2.7
		c1.5-0.4,2.4,0.6,1.9,2.3c-0.3,1-0.7,2.1-1.2,2.9c-4.7,7-9.4,14-14.2,21C414,737.2,412,739.6,410.1,742.1z M448.2,757.7
		c-0.1,0.5-1.4,1.2-2.1,1.1c-5.3-0.8-10.6-1.5-15.9-2.8c-4.4-1.1-8.6-2.8-12.9-4.2c-0.4-0.1-0.7-0.3-1-0.5c0-0.1,0-0.3,0.1-0.4
		c2.4-0.2,4.9-0.5,7.3-0.4c6.8,0.1,13.6,0.5,20.2,2.5c1.3,0.4,2.7,1,3.7,2C448.2,755.4,448.4,756.8,448.2,757.7z"/>
	<path class="st0" d="M207.4,700.6c-8.8,0-8.9,13.7,0,13.7C216.2,714.4,216.2,700.6,207.4,700.6z"/>
	<path class="st0" d="M388.8,469.8c-8.8,0-8.9,13.7,0,13.7C397.6,483.5,397.6,469.8,388.8,469.8z"/>
	<path class="st0" d="M527.5,464.3c8.8,0,8.9-13.7,0-13.7C518.7,450.6,518.7,464.3,527.5,464.3z"/>
	<path class="st0" d="M608.6,467c8.8,0,8.9-13.7,0-13.7C599.8,453.3,599.7,467,608.6,467z"/>
	<path class="st0" d="M233.5,329.6c8.8,0,8.9-13.7,0-13.7C224.7,315.9,224.6,329.6,233.5,329.6z"/>
	<path class="st0" d="M114,440.9c8.8,0,8.9-13.7,0-13.7C105.1,427.2,105.1,440.9,114,440.9z"/>
	<path class="st0" d="M831.2,347.5c8.8,0,8.9-13.7,0-13.7C822.4,333.8,822.3,347.5,831.2,347.5z"/>
	<path class="st0" d="M902.6,359.9c8.8,0,8.9-13.7,0-13.7C893.8,346.1,893.8,359.9,902.6,359.9z"/>
	<path class="st0" d="M978.2,467c-8.8,0-8.9,13.7,0,13.7C987.1,480.8,987.1,467,978.2,467z"/>
	<path class="st0" d="M872.4,703.4c-8.8,0-8.9,13.7,0,13.7C881.3,717.1,881.3,703.4,872.4,703.4z"/>
	<path class="st0" d="M412.1,189.5c8.8,0,8.9-13.7,0-13.7C403.3,175.8,403.3,189.5,412.1,189.5z"/>
	<path class="st0" d="M599,162c8.8,0,8.9-13.7,0-13.7C590.1,148.3,590.1,162,599,162z"/>
</g>
</svg>
