<?xml version="1.0" encoding="utf-8"?>
<!-- Generator: Adobe Illustrator 22.0.0, SVG Export Plug-In . SVG Version: 6.00 Build 0)  -->
<svg version="1.1" id="Layer_1" xmlns="http://www.w3.org/2000/svg" xmlns:xlink="http://www.w3.org/1999/xlink" x="0px" y="0px"
	 viewBox="0 0 1080 1080" style="enable-background:new 0 0 1080 1080;" xml:space="preserve">
<style type="text/css">
	.st0{fill:#71020C;}
</style>
<g>
	<path class="st0" d="M340.1,740.2c-2.1,0.9-2.8,1.8-2,2.7c0.2,0.2,0.5,0.4,0.7,0.4c0.4,0,1.1-0.3,2.3-0.9c1.3-0.7,3-1.2,5.1-1.6
		c2.1-0.4,4.1-0.5,6-0.5c2.4,0,4,0.2,5,0.7c0.9,0.4,1.7,0.5,2.1,0.5c0.8,0,1.2-0.3,1.2-0.9s-0.6-1.2-1.8-1.8c-1-0.5-1.8-0.8-2.4-0.9
		c-0.7-0.1-2-0.2-4.2-0.2c-2.6,0.1-4.8,0.3-6.6,0.6C343.8,738.6,342,739.2,340.1,740.2z"/>
	<path class="st0" d="M362.5,751.5c-1.8-1.2-3.7-2.2-5.8-2.9c-2.1-0.7-4-1.1-5.8-1.2c-3.3,0-6.3,0.4-8.8,1.2
		c-2.6,0.8-5.2,2.2-7.9,4.2l-2.5,2l-0.4-2c-0.4-3-1.5-5.2-3.4-6.8c-1.3-1.3-3-2-5.2-2c-1.4,0-2.8,0.4-4.2,1.2
		c-1.4,0.8-2.5,1.9-3.3,3.3c-0.4,0.6-0.6,1.2-0.7,1.7c-0.1,0.5-0.2,1.3-0.3,2.4c-0.1,1.1-0.1,2.6,0,4.5c0.1,2,0.1,4.6,0.3,7.9
		c0.1,1.4,0.2,3.3,0.4,5.7c0.1,2.4,0.2,5,0.3,7.7c0.1,2.8,0.1,5.7,0.3,8.7c0.1,3,0.2,6,0.4,8.8c0.2,5.6,0.4,10.5,0.5,14.8
		c0.1,4.3,0.2,6.6,0.4,7.1c0.5,2.4,1.6,4.4,3.3,6.1c1.7,1.7,3.8,2.6,6.3,2.6c2,0,3.9-0.7,5.6-2c1.7-1.3,2.8-3,3.3-5
		c0.4-0.9,0.6-2.2,0.6-3.6c0.1-1.5,0-4.7-0.3-9.5c-0.2-3.1-0.4-6.5-0.4-10.2c-0.1-3.7-0.2-6.7-0.3-8.8l-0.2-7.8l1.8-2.8
		c0.6-0.7,1.4-1.6,2.3-2.8c0.9-1.1,2-2.2,3.1-3.3c1.1-1.1,2.3-2,3.6-2.8c1.2-0.8,2.4-1.2,3.5-1.2c1.2,0,2.4,0.5,3.6,1.6
		c2.1,1.8,4.4,2.7,6.9,2.7c0.7,0,1.2-0.1,1.6-0.2c4.9-1.2,7.4-4.3,7.7-9.3c0-2.1-0.6-4-1.8-5.7C365.8,754.2,364.3,752.7,362.5,751.5
		z"/>
	<path class="st0" d="M400.4,837.7c-0.4,0-1,0.4-2,1.1c-0.4,0.4-0.9,0.7-1.6,1.2c-0.7,0.4-1.4,0.8-2,1.2c-1.1,0.5-2,0.8-2.7,0.9
		c-0.7,0.1-1.8,0.2-3.4,0.2c-4,0-7.2-0.8-9.4-2.3c-1.1-0.7-1.9-1.1-2.5-1.1c-0.5,0-0.8,0.2-0.9,0.7c-0.2,0.7,0.5,1.6,2.3,2.6
		c1.8,1,3.8,1.8,6.1,2.4c0.5,0.1,1.2,0.2,2.3,0.2c1.1,0,2.1,0,3.2,0c1.7,0,2.8-0.1,3.6-0.2c0.7-0.1,1.7-0.5,2.8-1.1
		c3.4-1.8,5.1-3.3,5-4.6C401.3,838.1,401,837.7,400.4,837.7z"/>
	<path class="st0" d="M376.9,808.6c0.1,5,0.2,9.5,0.4,13.4c0.2,3.9,0.6,6.5,1.1,7.7c0.5,0.9,1.2,1.9,2,2.8c0.9,0.9,1.8,1.7,2.8,2.1
		c1.1,0.6,2.4,0.9,3.9,0.9c1.9,0,3.7-0.5,5.3-1.6c1.7-1.1,2.9-2.5,3.7-4.3c0.2-0.5,0.4-1,0.4-1.6c0.1-0.6,0.1-1.6,0.1-2.9
		c0-1.4,0-3.2-0.1-5.5c-0.1-2.3-0.2-5.5-0.3-9.5c-0.1-1.9-0.2-4-0.3-6.3c-0.1-2.3-0.1-4.7-0.2-7.2c-0.1-2.5-0.1-4.9-0.2-7.3
		c-0.1-2.4-0.1-4.5-0.1-6.4V769l-1.1-1.6c-1.7-2.6-4-3.9-7.1-3.9c-1.9,0-3.4,0.5-4.6,1.5c-1.2,1-2.1,2.3-2.8,3.7
		c-0.7,1.5-1.1,3.1-1.4,4.8c-0.3,1.7-0.5,3.3-0.6,4.7c-0.5,4.3-0.8,9.1-1,14.6C376.9,798.3,376.8,803.6,376.9,808.6z"/>
	<path class="st0" d="M381.9,750.7c1.9,1.4,3.9,2.1,5.9,2.1c1.4,0,3-0.5,4.6-1.4c1.9-0.9,3.4-2.5,4.4-4.5c1.1-2.1,1.5-4.2,1.2-6.3
		c-0.4-2.7-1.6-5-3.6-6.8c-2.1-1.8-4.4-2.7-7-2.7c-1.9,0-3.6,0.5-5,1.4c-2,1.2-3.4,3-4.2,5.5c-0.8,2.5-0.8,5-0.1,7.5
		C378.8,747.5,380,749.3,381.9,750.7z"/>
	<path class="st0" d="M472.3,748.7c-2.1-1.2-4-2-5.7-2.4c-1.7-0.4-3.9-0.6-6.8-0.6c-5.8,0-11.2,1.3-16.2,4c-5,2.7-9.6,6-13.7,9.9
		l-2.8,2.5v-3.4c0-3.1-0.6-5.6-1.8-7.7c-1.2-2-3.6-3-7.1-3c-4.5,0.4-7.2,3.2-8.2,8.5c-0.1,0.6-0.2,2-0.4,4.1
		c-0.1,2.1-0.3,4.3-0.5,6.6c-0.1,2.4-0.2,5-0.4,7.7c-0.1,2.8-0.2,5-0.4,6.7c-0.1,1.7-0.2,3.6-0.3,5.7c-0.1,2.1-0.1,3.9-0.1,5.3
		c0,1.3-0.1,2.9-0.2,4.7c-0.1,1.8-0.3,3.4-0.5,4.7c-0.4,2.4-0.5,5.1-0.4,8.2c0.1,3.1,0.3,5.3,0.8,6.8c0.5,1.7,1.4,3.1,2.8,4.3
		c1.4,1.2,2.9,2,4.5,2.5c0.4,0.1,0.9,0.2,1.6,0.2c1.4,0,2.9-0.3,4.4-1c1.5-0.6,2.7-1.5,3.4-2.4c0.8-1.3,1.4-2.4,1.6-3.3
		c0.2-0.9,0.4-2.3,0.5-4.2c0-0.9,0-2.4,0.1-4.4c0.1-2,0.1-3.8,0.3-5.6c0.1-1.5,0.2-2.7,0.3-3.6c0.1-0.8,0.1-1.5,0.3-2.1
		c0.1-0.6,0.3-1.2,0.4-1.7c0.2-0.5,0.4-1.2,0.8-1.9c2.5-5.1,5.8-10.3,10-15.6c4.2-5.3,9-9.1,14.4-11.5c1.3-0.7,2.3-1.2,3.1-1.3
		c0.8-0.2,1.8-0.3,3.1-0.4c1.4,0,2.4,0,2.8,0.1c0.5,0.1,0.9,0.3,1.4,0.8c1.3,1,2.3,2.5,2.8,4.7c0.6,2.2,0.8,5.3,0.7,9.3
		c0,4.7-0.6,9.6-1.7,14.4c-1.1,4.9-2.5,9.5-4.2,13.9c-1.8,4.5-1.2,8.3,1.8,11.4c1.7,1.7,3.7,2.6,6,2.7c2.1,0,4.1-0.5,5.8-1.5
		c1.7-1,3.1-2.5,4-4.5c0.6-1.3,1.2-3,1.9-5c0.7-2,1.3-4.2,1.9-6.5c0.6-2.3,1.2-4.6,1.7-6.8c0.5-2.2,1-4.1,1.3-5.8
		c1.8-10.8,1.5-20-0.8-27.6C482.6,757.1,478.4,751.8,472.3,748.7z"/>
	<path class="st0" d="M450.4,739.1c0.2-0.1,0.7-0.2,1.3-0.4c0.6-0.1,1.3-0.3,1.9-0.5c0.8-0.2,1.7-0.4,2.7-0.5c0.9-0.1,2-0.2,3-0.2
		c3.2,0,6.5,0.5,9.9,1.4c3.4,1,6,2.2,7.7,3.7c0.8,0.6,1.4,0.9,1.8,0.9c0.8,0,1.2-0.4,1.2-1.2c0-1.1-1.5-2.3-4.4-3.7
		c-3-1.4-6.1-2.4-9.3-3c-0.8-0.1-1.7-0.2-2.6-0.3c-0.9-0.1-1.8-0.1-2.8-0.1c-2.5,0-4.8,0.2-7,0.5c-2.2,0.4-3.6,0.8-4.2,1.4
		c-0.5,0.5-0.6,1-0.4,1.4C449.5,739.1,449.8,739.2,450.4,739.1z"/>
	<path class="st0" d="M522.3,859.4c-0.4,0-0.7,0-1.2,0.1c-0.4,0.1-0.9,0.1-1.3,0.1c-3.2,0-6.6-0.6-10.1-1.7
		c-3.6-1.1-6.7-2.5-9.4-4.2c-1-0.6-1.8-1.2-2.6-1.9c-0.8-0.7-1.3-1.1-1.5-1.3c-0.6-0.6-1.1-0.9-1.4-0.9c-0.5,0-0.8,0.2-1.1,0.7
		c-0.1,0.4,0.2,0.9,0.9,1.7c0.7,0.8,1.6,1.6,2.7,2.5c1.1,0.9,2.3,1.7,3.6,2.5c1.4,0.8,2.6,1.4,3.7,1.9c2.5,0.9,5.1,1.7,7.7,2.4
		c2.7,0.7,5.4,1,8.1,1c1.5,0,2.8-0.1,3.9-0.3c1.1-0.2,1.7-0.5,1.8-1c0.5-1.1-0.3-1.6-2.3-1.6H522.3z"/>
	<path class="st0" d="M548.8,834c2.6-5.5,4.4-11.6,5.3-18.3c0.9-6.7,1.5-13.1,1.8-19.1c0.1-2.4,0.1-5.4,0.1-9
		c-0.1-3.6-0.2-7.3-0.4-10.9c-0.2-3.7-0.5-7-0.9-10.1c-0.4-3-0.7-5.2-1.1-6.5c-0.6-2.1-1.8-3.7-3.6-4.6c-1.8-0.9-3.7-1.4-5.7-1.4
		c-0.4,0.1-0.8,0.2-1.2,0.2c-0.4,0-1-0.4-2-1.1c-4.6-3.6-9.8-5.3-15.7-5.3c-5.7,0-11.1,1.8-16.3,5.3c-5.2,3.6-9.1,8.6-11.8,15.1
		c-2.3,5.3-3.2,10.9-2.8,16.7c0.1,3.7,0.7,7.2,1.9,10.6c1.1,3.4,2.8,6.3,4.9,8.9c2.1,2.6,4.7,4.6,7.8,6.1c3.1,1.5,6.6,2.2,10.5,2.2
		c2.5,0,4.9-0.2,7.1-0.6c2.3-0.4,4.4-1.3,6.6-2.6l2-1.1c0.1,0,0.2,0.2,0.2,0.7c0,0.4-0.1,1-0.2,2c-0.1,0.9-0.3,2-0.5,3.2
		c-0.2,1.2-0.5,2.4-0.8,3.6c-0.3,1.2-0.6,2.2-0.8,3c-2.5,8.8-6.8,13.2-12.8,13.2c-3.9,0-6.7-1.8-8.4-5.5c-2-4.6-5.1-6.9-9.3-6.9
		c-4,0-6.9,1.8-8.7,5.5c-0.7,1.7-1,3.3-0.8,5.1c0.2,1.7,0.9,3.8,2.2,6.3c2.4,5,5.6,8.7,9.8,11c4.2,2.4,8.9,3.6,14.2,3.6
		c7.7,0,13.9-1.8,18.5-5.4C542.6,844.1,546.2,839.6,548.8,834z M535.8,773.8c-0.4,1.5-1,3.5-2,5.8c-1,2.3-2.2,4.5-3.6,6.6
		c-1.4,2.1-2.9,3.9-4.6,5.3c-1.7,1.5-3.6,2.2-5.6,2.2c-1.4,0-2.6-0.4-3.4-1.1c-0.8-0.7-1.4-1.6-1.8-2.7c-0.4-1.1-0.6-2.2-0.6-3.4
		c-0.1-1.2-0.1-2.3-0.1-3.4c0-1.3,0-2.3,0-3c0-0.7,0.1-1.3,0.2-1.9c0.1-0.5,0.3-1,0.4-1.5c0.2-0.5,0.4-1.1,0.8-2
		c1.9-3.9,4.3-6.6,7.3-8c1.3-0.7,2.6-1.1,3.7-1.1c1.9,0,4,1.1,6.2,3.2c0.6,0.6,1.2,1.1,1.7,1.5c0.5,0.4,0.9,0.7,1.2,0.8
		c0.4,0.2,0.5,0.5,0.5,0.7C536.2,772.3,536.1,772.9,535.8,773.8z"/>
	<path class="st0" d="M585.5,767.4c-1.7-2.6-4-3.9-7.1-3.9c-1.9,0-3.4,0.5-4.6,1.5s-2.1,2.3-2.8,3.7c-0.7,1.5-1.1,3.1-1.4,4.8
		c-0.3,1.7-0.5,3.3-0.6,4.7c-0.5,4.3-0.8,9.1-1,14.6c-0.2,5.5-0.2,10.7-0.2,15.7c0.1,5,0.2,9.5,0.4,13.4c0.2,3.9,0.6,6.5,1.1,7.7
		c0.5,0.9,1.2,1.9,2,2.8c0.9,0.9,1.8,1.7,2.8,2.1c1.1,0.6,2.4,0.9,3.9,0.9c1.9,0,3.7-0.5,5.3-1.6c1.7-1.1,2.9-2.5,3.7-4.3
		c0.2-0.5,0.4-1,0.4-1.6c0.1-0.6,0.1-1.6,0.1-2.9c0-1.4,0-3.2-0.1-5.5c-0.1-2.3-0.2-5.5-0.3-9.5c-0.1-1.9-0.2-4-0.3-6.3
		c-0.1-2.3-0.1-4.7-0.2-7.2c-0.1-2.5-0.1-4.9-0.2-7.3c-0.1-2.4-0.1-4.5-0.1-6.4V769L585.5,767.4z"/>
	<path class="st0" d="M567,839.5c-0.2,0.7,0.5,1.6,2.3,2.6c1.8,1,3.8,1.8,6.1,2.4c0.5,0.1,1.2,0.2,2.3,0.2c1.1,0,2.1,0,3.2,0
		c1.7,0,2.8-0.1,3.6-0.2c0.7-0.1,1.7-0.5,2.8-1.1c3.4-1.8,5.1-3.3,5-4.6c0-0.7-0.3-1.1-0.9-1.1c-0.4,0-1,0.4-2,1.1
		c-0.4,0.4-0.9,0.7-1.6,1.2c-0.7,0.4-1.4,0.8-2,1.2c-1.1,0.5-2,0.8-2.7,0.9c-0.7,0.1-1.8,0.2-3.4,0.2c-4,0-7.2-0.8-9.4-2.3
		c-1.1-0.7-1.9-1.1-2.5-1.1C567.4,838.8,567.1,839,567,839.5z"/>
	<path class="st0" d="M585.4,733.8c-2.1-1.8-4.4-2.7-7-2.7c-1.9,0-3.6,0.5-5,1.4c-2,1.2-3.4,3-4.2,5.5c-0.8,2.5-0.8,5-0.1,7.5
		c0.6,2,1.8,3.7,3.7,5.2c1.9,1.4,3.9,2.1,5.9,2.1c1.4,0,3-0.5,4.6-1.4c1.9-0.9,3.4-2.5,4.4-4.5c1.1-2.1,1.5-4.2,1.2-6.3
		C588.7,737.8,587.5,735.6,585.4,733.8z"/>
	<path class="st0" d="M641.4,739.1c0.2-0.1,0.7-0.2,1.3-0.4c0.6-0.1,1.3-0.3,1.9-0.5c0.8-0.2,1.7-0.4,2.7-0.5c0.9-0.1,2-0.2,3-0.2
		c3.2,0,6.5,0.5,9.9,1.4c3.4,1,6,2.2,7.7,3.7c0.8,0.6,1.4,0.9,1.8,0.9c0.8,0,1.2-0.4,1.2-1.2c0-1.1-1.5-2.3-4.4-3.7
		c-3-1.4-6.1-2.4-9.3-3c-0.8-0.1-1.7-0.2-2.6-0.3c-0.9-0.1-1.8-0.1-2.8-0.1c-2.5,0-4.8,0.2-7,0.5c-2.2,0.4-3.6,0.8-4.2,1.4
		c-0.5,0.5-0.6,1-0.4,1.4C640.4,739.1,640.8,739.2,641.4,739.1z"/>
	<path class="st0" d="M663.3,748.7c-2.1-1.2-4-2-5.7-2.4c-1.7-0.4-3.9-0.6-6.8-0.6c-5.8,0-11.2,1.3-16.2,4c-5,2.7-9.6,6-13.7,9.9
		l-2.8,2.5v-3.4c0-3.1-0.6-5.6-1.8-7.7c-1.2-2-3.6-3-7.1-3c-4.5,0.4-7.2,3.2-8.2,8.5c-0.1,0.6-0.2,2-0.4,4.1
		c-0.1,2.1-0.3,4.3-0.5,6.6c-0.1,2.4-0.2,5-0.4,7.7c-0.1,2.8-0.2,5-0.4,6.7c-0.1,1.7-0.2,3.6-0.3,5.7c-0.1,2.1-0.1,3.9-0.1,5.3
		c0,1.3-0.1,2.9-0.2,4.7c-0.1,1.8-0.3,3.4-0.5,4.7c-0.4,2.4-0.5,5.1-0.4,8.2c0.1,3.1,0.3,5.3,0.8,6.8c0.5,1.7,1.4,3.1,2.8,4.3
		c1.4,1.2,2.9,2,4.5,2.5c0.4,0.1,0.9,0.2,1.6,0.2c1.4,0,2.9-0.3,4.4-1c1.5-0.6,2.7-1.5,3.4-2.4c0.8-1.3,1.4-2.4,1.6-3.3
		c0.2-0.9,0.4-2.3,0.5-4.2c0-0.9,0-2.4,0.1-4.4c0.1-2,0.1-3.8,0.3-5.6c0.1-1.5,0.2-2.7,0.3-3.6c0.1-0.8,0.1-1.5,0.3-2.1
		c0.1-0.6,0.3-1.2,0.4-1.7c0.2-0.5,0.4-1.2,0.8-1.9c2.5-5.1,5.8-10.3,10-15.6c4.2-5.3,9-9.1,14.4-11.5c1.3-0.7,2.3-1.2,3.1-1.3
		c0.8-0.2,1.8-0.3,3.1-0.4c1.4,0,2.4,0,2.8,0.1c0.5,0.1,0.9,0.3,1.4,0.8c1.3,1,2.3,2.5,2.8,4.7c0.6,2.2,0.8,5.3,0.7,9.3
		c0,4.7-0.6,9.6-1.7,14.4c-1.1,4.9-2.5,9.5-4.2,13.9c-1.8,4.5-1.2,8.3,1.8,11.4c1.7,1.7,3.7,2.6,6,2.7c2.1,0,4.1-0.5,5.8-1.5
		c1.7-1,3.1-2.5,4-4.5c0.6-1.3,1.2-3,1.9-5c0.7-2,1.3-4.2,1.9-6.5c0.6-2.3,1.2-4.6,1.7-6.8c0.5-2.2,1-4.1,1.3-5.8
		c1.8-10.8,1.5-20-0.8-27.6C673.5,757.1,669.3,751.8,663.3,748.7z"/>
	<path class="st0" d="M714.7,859.4h-1.4c-0.4,0-0.7,0-1.2,0.1c-0.4,0.1-0.9,0.1-1.3,0.1c-3.2,0-6.6-0.6-10.1-1.7s-6.7-2.5-9.4-4.2
		c-1-0.6-1.8-1.2-2.6-1.9c-0.8-0.7-1.3-1.1-1.5-1.3c-0.6-0.6-1.1-0.9-1.4-0.9c-0.5,0-0.8,0.2-1.1,0.7c-0.1,0.4,0.2,0.9,0.9,1.7
		c0.7,0.8,1.6,1.6,2.7,2.5c1.1,0.9,2.3,1.7,3.6,2.5c1.4,0.8,2.6,1.4,3.7,1.9c2.5,0.9,5.1,1.7,7.7,2.4c2.7,0.7,5.4,1,8.1,1
		c1.5,0,2.8-0.1,3.9-0.3c1.1-0.2,1.7-0.5,1.8-1C717.5,859.9,716.7,859.4,714.7,859.4z"/>
	<path class="st0" d="M746.5,776.7c-0.2-3.7-0.5-7-0.9-10.1c-0.4-3-0.7-5.2-1.1-6.5c-0.6-2.1-1.8-3.7-3.6-4.6
		c-1.8-0.9-3.7-1.4-5.7-1.4c-0.4,0.1-0.8,0.2-1.2,0.2c-0.4,0-1-0.4-2-1.1c-4.6-3.6-9.8-5.3-15.7-5.3c-5.7,0-11.1,1.8-16.3,5.3
		c-5.2,3.6-9.1,8.6-11.8,15.1c-2.3,5.3-3.2,10.9-2.8,16.7c0.1,3.7,0.7,7.2,1.9,10.6c1.1,3.4,2.8,6.3,4.9,8.9
		c2.1,2.6,4.7,4.6,7.8,6.1c3.1,1.5,6.6,2.2,10.5,2.2c2.5,0,4.9-0.2,7.1-0.6c2.3-0.4,4.4-1.3,6.6-2.6l2-1.1c0.1,0,0.2,0.2,0.2,0.7
		c0,0.4-0.1,1-0.2,2c-0.1,0.9-0.3,2-0.5,3.2c-0.2,1.2-0.5,2.4-0.8,3.6c-0.3,1.2-0.6,2.2-0.8,3c-2.5,8.8-6.8,13.2-12.8,13.2
		c-3.9,0-6.7-1.8-8.4-5.5c-2-4.6-5.1-6.9-9.3-6.9c-4,0-6.9,1.8-8.7,5.5c-0.7,1.7-1,3.3-0.8,5.1c0.2,1.7,0.9,3.8,2.2,6.3
		c2.4,5,5.6,8.7,9.8,11c4.2,2.4,8.9,3.6,14.2,3.6c7.7,0,13.9-1.8,18.5-5.4c4.6-3.6,8.2-8.2,10.9-13.7c2.6-5.5,4.4-11.6,5.3-18.3
		c0.9-6.7,1.5-13.1,1.8-19.1c0.1-2.4,0.1-5.4,0.1-9C746.9,784,746.8,780.3,746.5,776.7z M726.8,773.8c-0.4,1.5-1,3.5-2,5.8
		c-1,2.3-2.2,4.5-3.6,6.6c-1.4,2.1-2.9,3.9-4.6,5.3c-1.7,1.5-3.6,2.2-5.6,2.2c-1.4,0-2.6-0.4-3.4-1.1c-0.8-0.7-1.4-1.6-1.8-2.7
		c-0.4-1.1-0.6-2.2-0.6-3.4c-0.1-1.2-0.1-2.3-0.1-3.4c0-1.3,0-2.3,0-3c0-0.7,0.1-1.3,0.2-1.9c0.1-0.5,0.3-1,0.4-1.5
		c0.2-0.5,0.4-1.1,0.8-2c1.9-3.9,4.3-6.6,7.3-8c1.3-0.7,2.6-1.1,3.7-1.1c1.9,0,4,1.1,6.2,3.2c0.6,0.6,1.2,1.1,1.7,1.5
		c0.5,0.4,0.9,0.7,1.2,0.8c0.4,0.2,0.5,0.5,0.5,0.7C727.1,772.3,727,772.9,726.8,773.8z"/>
	<path class="st0" d="M213.2,438.5c4.8,6,10.7,10.8,17.7,14.5c7,3.7,15.1,5.7,24.3,5.9c10.1,0.4,18.6-1.5,25.5-5.6
		c6.9-4.2,13.2-10.3,18.8-18.3c0.8-1.1,0.7-2-0.2-2.8c-0.9-0.8-1.9-0.7-2.8,0.4c-2.4,3.4-5.1,6.5-8,9.5c-2.9,3-6,5.5-9.4,7.5
		c-3.4,2.1-7,3.6-10.9,4.5c-3.9,0.9-8.1,1.1-12.5,0.4c-6.6-0.9-12.2-3.4-17-7.2c-4.8-3.9-8.7-8.7-11.7-14.5
		c-3-5.8-5.2-12.2-6.5-19.2c-1.3-7-1.8-14.2-1.5-21.3c0.3-7.2,1.5-14.2,3.4-21c1.9-6.8,4.7-12.9,8.2-18.1c3.5-5.2,7.8-9.5,12.8-12.7
		c5-3.2,10.8-4.8,17.2-4.8c5.6,0,10.8,1.1,15.4,3.4c4.6,2.3,8.2,5.4,10.6,9.3c1.6,2.7,2.4,5.5,2.5,8.4c0.1,2.9-0.5,5.5-1.6,8
		s-2.9,4.3-5.1,5.6c-2.3,1.3-5,1.7-8.3,1c-1.5-0.1-2.9-0.6-4.2-1.5c-1.3-0.9-2.4-1.9-3.2-3c-0.8-1.1-1.3-2.4-1.5-3.8
		c-0.2-1.4,0-2.9,0.7-4.3c0.5-1.2,1.2-2.1,2.1-2.7c0.9-0.6,1.7-0.9,2.6-0.9c0.9,0,1.6,0.3,2.3,1c0.7,0.7,1.1,1.7,1.4,3.2
		c0.3,1.5,0.8,2.4,1.7,2.9c0.9,0.5,1.7,0.5,2.5,0.2c0.8-0.3,1.4-1,1.8-2.1c0.4-1.1,0.3-2.4-0.4-4c-0.7-2-1.8-3.5-3.4-4.3
		c-1.6-0.9-3.3-1.2-5.1-1.1c-1.8,0.1-3.5,0.7-5.1,1.8c-1.6,1.1-2.8,2.6-3.6,4.4c-0.8,2-1,4.1-0.7,6.1c0.3,2.1,1,4,2.1,5.6
		c1.1,1.7,2.5,3.1,4.3,4.2c1.8,1.1,3.8,1.8,5.9,2.1c2.8,0.4,5.4,0.2,7.8-0.6c2.3-0.8,4.4-2.1,6-3.9c1.7-1.8,3-3.9,3.8-6.3
		c0.9-2.4,1.2-5,1.1-7.9v-23.6c0-1.4-0.7-2.1-2-2.1c-1.3,0-2,0.7-2,2c0,2.6-0.8,4.3-2.4,5.1c-1.6,0.8-4,0.3-7-1.4
		c-3.1-1.7-6.3-2.9-9.8-3.7c-3.4-0.8-6.9-1.2-10.4-1.3c-8.6-0.3-16.5,1.1-23.9,4c-7.3,3-13.7,7.2-19,12.8
		c-5.4,5.6-9.6,12.2-12.7,19.9c-3.1,7.7-4.7,16.1-4.8,25.3c-0.1,8.7,1,17,3.4,24.8C204.8,425.6,208.4,432.5,213.2,438.5z"/>
	<path class="st0" d="M311.4,454.8c-0.1,1.1,0.4,1.7,1.3,1.7h30c0.9,0,1.4-0.6,1.4-1.7c0-1.1-0.5-1.7-1.4-1.7h-7.9v-55.8
		c0.5,1.9,1.4,3.5,2.7,4.9c1.3,1.4,2.9,2.4,5,3.1c1.9,0.7,3.7,0.8,5.6,0.5c1.8-0.3,3.4-1,4.9-2c1.4-1,2.5-2.3,3.2-3.9
		c0.7-1.6,1-3.4,0.7-5.2c-0.3-2-1.4-3.8-3.4-5.2c-1.5-0.9-2.8-1.3-3.9-1.2c-1.1,0.1-2,0.6-2.5,1.3c-0.5,0.7-0.7,1.6-0.5,2.6
		c0.2,1,1,1.8,2.5,2.3c1.5,0.7,2.5,1.4,2.9,2.1c0.5,0.7,0.6,1.5,0.5,2.3c-0.4,1.6-1.5,2.8-3.3,3.4c-1.8,0.7-3.7,0.7-5.6,0
		c-1.8-0.7-3.1-1.7-4.2-3.2c-1-1.5-1.4-3.2-1.3-5c0-2.8,0.9-5.4,2.6-7.9c1.9-2.5,4.6-4.4,8.1-5.5c3.5-1.1,7-1.3,10.4-0.4
		c3.4,0.9,6.4,2.9,9,6.1c2.6,3.2,3.8,8,3.8,14.3v45.5c0,3,0.8,5.4,2.4,7.3c1.6,1.9,3.6,3.4,5.8,4.3c2.3,0.9,4.8,1.3,7.4,1.1
		c2.7-0.2,5.2-0.9,7.4-2.1c1.9-1.1,2.4-2,1.7-2.9c-0.7-0.9-1.6-1-2.7-0.3c-2.7,1.5-4.8,1.3-6.2-0.5c-1.5-1.8-2.1-4.6-1.8-8.4v-42.5
		c-0.1-5.9-1.6-10.8-4.3-14.6c-2.8-3.8-6.1-6.7-10-8.6c-3.9-1.9-8.2-2.9-12.7-3c-4.6-0.1-8.8,0.5-12.5,1.8c-3,1.1-5.5,2.7-7.6,4.8
		c-2.1,2.1-3.5,4.6-4.1,7.2v-59.2h-1.4c-0.7,0.5-1.9,0.9-3.7,1.2c-1.8,0.3-3.7,0.4-5.9,0.5c-2.1,0.1-4.2,0.1-6.3,0
		c-2.1-0.1-3.7-0.1-4.9-0.1c-0.9,0-1.4,0.6-1.3,1.7c0.1,1.1,0.4,1.7,1.1,1.7h8.3l0.2,117.2h-8.3
		C311.9,453.1,311.5,453.6,311.4,454.8z"/>
	<path class="st0" d="M398.9,453.1c-0.9,0-1.4,0.6-1.4,1.7c0,1.1,0.5,1.7,1.4,1.7h30c0.9,0,1.4-0.6,1.4-1.7c0-1.1-0.5-1.7-1.4-1.7
		H421v-49.7c0-6.2,1.3-11.1,3.9-14.8c2.6-3.7,5.7-6.2,9.3-7.6c3.6-1.4,7.1-1.7,10.8-1c3.6,0.7,6.4,2.5,8.5,5.1
		c0.8,1.1,1.4,2.4,1.9,4c0.5,1.6,0.6,3.2,0.5,4.8c-0.1,1.6-0.6,3.1-1.5,4.4c-0.9,1.3-2.1,2.3-3.7,2.8c-1.9,0.7-3.7,0.7-5.5,0.1
		c-1.8-0.6-2.9-1.8-3.3-3.5c-0.3-1.9,0.9-3.4,3.4-4.4c1.3-0.5,2.1-1.3,2.4-2.3c0.3-1,0.1-1.8-0.4-2.5c-0.5-0.7-1.4-1.1-2.6-1.3
		s-2.5,0.2-3.8,1.1c-1.9,1.3-3,3.1-3.4,5.2c-0.3,1.9,0,3.6,0.7,5.2c0.7,1.6,1.8,2.9,3.2,3.9s3,1.7,4.8,2.1c1.8,0.4,3.7,0.3,5.5-0.4
		c2.7-0.9,4.7-2.5,6.1-4.6c1.4-2.1,2.1-4.6,2.1-7.2c0-3.5-1.1-6.7-3.3-9.7c-2.2-3-5.2-5-9-6c-4.8-1.3-9.7-1.2-14.6,0.4
		c-4.9,1.6-8.9,4.8-12,9.5V376h-2.6c-3.2,0.7-6.4,1-9.7,1.1c-3.3,0.1-6.6,0.1-9.8,0.1c-0.9,0-1.4,0.6-1.3,1.7
		c0.1,1.1,0.4,1.7,1.1,1.7h8.3v72.5H398.9z"/>
	<path class="st0" d="M288.4,512.7c-4,4.4-6.6,9-7.6,13.7c-0.7,3.9-0.5,7.6,0.4,11c0.9,3.4,2.6,6.6,4.8,9.6c3.5,4.4,7.9,8,13.1,10.7
		c5.2,2.7,10.4,4.6,15.5,5.6c5,0.9,10,1.2,15.2,0.9c5.2-0.3,10.5-1.2,16-2.7c5.8-1.6,11.2-3.7,16.4-6.1c5.2-2.5,10-5.1,14.6-8
		c2.3,0.7,4.6,1.2,6.8,1.7c2.3,0.5,4.6,0.8,7,0.9c3.5-0.1,7.1-0.7,10.8-1.7c3.7-1,7.1-2.5,10.4-4.5c1.5-0.9,2.3-1.9,2.6-3
		c0.3-1.1,0.1-1.9-0.4-2.6c-0.5-0.7-1.3-1-2.4-1.1c-1.1-0.1-2.2,0.4-3.4,1.3c-1.6,1.2-2.7,2.4-3.2,3.7c-0.5,1.3-1.6,2.4-3.2,3.3
		c-3.2,1.9-7,2.7-11.3,2.4c-4.3-0.3-8.1-1-11.5-2.2c5.2-3.5,10.3-7.2,15.3-11.2c5-4,9.8-8,14.5-12.2l2.8-2.6
		c4.8,1.1,9.4,1.6,13.7,1.6c4.3,0,8.3-0.9,12.1-2.6c2.4-1.2,4.6-2.7,6.4-4.3c1.9-1.7,3.4-3.6,4.5-5.6c1.1-2.1,1.8-4.3,1.9-6.7
		c0.1-2.4-0.3-5-1.4-7.7c-0.1-0.4-0.3-0.7-0.4-0.8c-0.1-0.1-0.3-0.3-0.4-0.6c7.5-4.7,15.9-7.9,25.3-9.7c9.3-1.7,18.6-1.6,27.7,0.4
		c1.2,0.3,2.2,0.6,3,0.9c0.8,0.3,1.6,0.7,2.3,1c0.7,0.3,1.5,0.7,2.4,1.2c0.9,0.5,2,1,3.3,1.7c0.8,0.3,1.6,0.2,2.4-0.1
		c0.8-0.3,1.3-0.8,1.6-1.4c0.3-0.6,0.2-1.2-0.3-1.9c-0.5-0.7-1.4-1.2-2.9-1.6c-1.3-0.4-2.9-0.7-4.5-1c-1.7-0.3-3.4-0.5-5-0.7
		c-1.7-0.2-3.2-0.4-4.6-0.6c-1.4-0.2-2.6-0.4-3.5-0.7c-1.6-0.4-3-1.2-4.2-2.5c-1.2-1.3-2.2-2.8-2.9-4.4c-0.7-1.7-1.3-3.5-1.7-5.4
		c-0.4-1.9-0.7-3.8-0.8-5.5c-0.1-1.5-0.2-3.1-0.3-4.7c-0.1-1.7-0.1-3.8-0.1-6.4s0-5.9,0-9.8c0-3.9,0-8.8,0-14.7c0-5.9,0-13,0-21.2
		c0-8.3,0-18.1,0-29.5h-2.6c-3.1,0.7-6.3,1-9.7,1.1c-3.4,0.1-6.6,0.1-9.9,0.1c-1.1,0-1.6,0.6-1.5,1.7c0.1,1.1,0.5,1.7,1.3,1.7h8.3
		v72.9c0,6.4,1.3,11.8,3.9,16.2c2.6,4.4,6.3,7.7,11,10c-7,0.1-13.9,1-20.7,2.7c-6.8,1.7-13.4,3.8-19.7,6.3h-0.2
		c-0.1-0.4-0.5-0.9-1-1.4c-3.5-3.4-7.7-5.8-12.6-7.4c-4.9-1.6-10-2.5-15.4-2.6c-5.4-0.1-10.6,0.3-15.7,1.4
		c-5.1,1.1-9.6,2.5-13.5,4.2c-4.6,2-8.8,4.6-12.8,7.9c-4,3.2-7.3,7-10.2,11.3c-2.8-0.9-5.9-1.8-9.2-2.6c-3.3-0.8-6.5-1.4-9.8-1.8
		c-6.8-1.1-13.5-1.4-19.9-1c-6.4,0.4-12.9,1.9-19.3,4.4C298.2,504.3,292.4,508.2,288.4,512.7z M445.8,493.5c0.5,0.8,0.8,1.4,0.8,1.8
		c1.2,3,1.3,5.7,0.4,8.3c-0.9,2.5-2.5,4.8-4.6,6.8c-2.1,2-4.6,3.7-7.4,4.9c-2.8,1.3-5.5,2.1-8.1,2.5c-4.3,0.7-8.7,0.7-13.1,0
		c5.1-4.4,10.3-8.7,15.5-12.9C434.5,500.9,440,497,445.8,493.5z M382.2,497.3c3-2.5,6.3-4.7,10.1-6.5c3.2-1.6,7.1-3.1,11.6-4.5
		c4.5-1.4,9.1-2.3,13.9-2.8c4.8-0.5,9.4-0.3,13.8,0.5c4.4,0.8,8.1,2.5,10.9,5.2l0.6,0.6c-1.9,0.7-3.8,1.5-5.7,2.5
		c-1.9,1-3.9,2-5.7,2.9c-5.6,3-10.9,6.1-15.8,9.4c-4.9,3.3-9.7,6.7-14.4,10.4c-4.7-1.5-9.3-3-13.7-4.6c-4.4-1.6-8.9-3.4-13.5-5.2
		C376.6,502.3,379.2,499.7,382.2,497.3z M365.6,520.8c0.6-2.6,1.5-5.1,2.7-7.5c1.2-2.3,2.6-4.5,4-6.5c4.7,1.6,9.3,3.2,13.7,4.8
		s8.9,3.2,13.5,4.6c-5,4-9.9,8-14.8,12c-4.9,4-10.1,7.8-15.6,11.4c-0.4-0.7-0.8-1.3-1.3-1.9c-0.5-0.6-0.8-1.2-1.1-1.7
		c-1.2-2.4-1.8-4.9-1.9-7.5C364.7,526,365,523.4,365.6,520.8z M294.4,513.3c4.7-3.8,9.9-6.8,15.7-9.1c5.8-2.3,11.8-3.8,18-4.6
		c6.2-0.8,11.9-0.8,17,0c3.1,0.5,6.1,1.2,9.1,1.9c3,0.7,6,1.5,9.1,2.3c-2.3,4.6-3.7,9.5-4.3,14.7c-0.6,5.2,0.1,10.2,2.1,14.9
		c1.6,3.1,3.6,5.6,6,7.6c-4.6,3-9.2,5.6-14,8c-4.8,2.3-9.9,4.3-15.4,5.7c-3.9,1.1-8.2,1.9-12.9,2.4c-4.7,0.5-9.3,0.5-13.8,0
		c-4.5-0.5-8.8-1.7-12.9-3.4c-4.1-1.7-7.5-4.4-10.2-7.9c-2.8-3.5-4.5-6.8-5-10c-0.5-3.2-0.1-6.3,1.4-9.4
		C286.4,521.5,289.7,517,294.4,513.3z"/>
	<path class="st0" d="M471.9,342.2c-1.7,1.7-2.5,3.7-2.5,6.1c0,2.3,0.8,4.3,2.5,5.9c1.7,1.7,3.7,2.5,6.1,2.5c2.3,0,4.3-0.8,5.9-2.5
		c1.7-1.7,2.5-3.7,2.5-5.9c0-2.4-0.8-4.5-2.5-6.1c-1.7-1.7-3.7-2.5-5.9-2.5C475.6,339.7,473.6,340.6,471.9,342.2z"/>
	<path class="st0" d="M567.6,441.3c0.5,3.3,1.5,6.2,3,8.9c1.5,2.6,3.5,4.7,6.1,6.3c2.6,1.6,6,2.4,10.2,2.4c4.3,0.1,8-0.7,11.2-2.6
		c3.2-1.9,5.3-3.6,6.5-5c0.9-1.2,1-2.1,0.3-2.6c-0.7-0.5-1.6-0.3-2.7,0.8c-1.1,1.1-2.4,2.1-4,3.2c-1.6,1.1-3.5,1.7-5.6,1.8
		c-2.6,0-4.6-0.6-6.1-1.9c-1.5-1.3-2.7-2.9-3.5-4.7c-0.8-1.9-1.3-4-1.6-6.2c-0.3-2.3-0.4-4.4-0.4-6.2v-54.8h5.8c1.6,0,3.3,0,5,0.1
		c1.7,0.1,3.3,0.6,4.6,1.5c2.3,1.3,3.6,3.9,3.8,7.6c0,4-1.7,6.7-5.2,8.1c-1.9,0.7-3.5,0.6-4.7-0.1c-1.3-0.7-2.1-1.9-2.5-3.5
		c-0.1-0.7,0-1.4,0.4-2.1c0.4-0.7,1.3-1.4,2.8-2.1c1.3-0.5,2.1-1.3,2.4-2.2c0.3-0.9,0.1-1.7-0.4-2.4c-0.5-0.7-1.4-1.1-2.5-1.2
		c-1.1-0.1-2.4,0.3-3.7,1.2c-1.9,1.3-3,3-3.2,4.8c-0.3,1.9-0.1,3.6,0.4,5c0.5,1.5,1.4,2.7,2.6,3.7c1.2,1,2.6,1.7,4.2,2
		c1.6,0.3,3.4,0.2,5.2-0.3c2.5-0.7,4.5-2.1,5.7-4.2c1.3-2.1,1.9-4.4,1.9-6.8s-0.5-4.6-1.5-6.4c-1-1.9-2.5-3.4-4.3-4.4
		c-1.7-1.1-3.6-1.6-5.4-1.6c-1.9,0-3.8,0-5.6,0h-5.8v-16.1c0-2.7-0.1-5.4-0.3-8.1c-0.2-2.7-0.7-5.4-1.5-8.1
		c-1.9-6-5.1-10.6-9.7-13.6c-4.6-3-9.5-4.6-14.8-4.7c-5.3-0.1-10.4,1.1-15.4,3.8c-5,2.7-8.7,6.7-11.3,12.1
		c-2.6,5.4-3.5,11.1-2.7,17.1c0.7,6,3.3,11.3,7.6,15.7c-2.8-0.3-5.7-0.2-8.6,0.2c-2.9,0.4-5.5,1.2-8,2.4c-3.5,1.6-6.5,3.9-9.1,6.9
		c-2.6,3-4.2,6.5-4.8,10.4c-0.7,4-0.5,7.5,0.6,10.5c1.1,3,2.7,5.6,4.9,7.9c2.2,2.3,4.8,4.2,7.8,5.8c3,1.6,5.9,3.1,9,4.4
		s5.9,2.6,8.8,3.7c2.8,1.1,5.2,2.4,7,3.7c3.2,2.1,5.2,4.6,5.9,7.3c0.7,2.8,0.5,5.3-0.7,7.8c-1.2,2.4-3.3,4.5-6.3,6.1
		c-3,1.7-6.7,2.5-11,2.5c-3.1,0-6-0.5-8.8-1.4c-2.8-0.9-5.2-2.3-7.3-4c-2.1-1.7-4-3.8-5.4-6.1c-1.5-2.3-2.4-4.9-2.8-7.6v-6.2
		c0-0.7-0.6-1-1.7-1.1c-1.1-0.1-1.7,0.3-1.7,1.1v25.6c0,0.7,0.6,1,1.7,1s1.7-0.3,1.7-1v-7.9c2.5,3.2,6,5.9,10.3,8.1
		c4.3,2.1,9.1,3.2,14.3,3.2c3.6,0,7.1-0.6,10.6-1.7c3.4-1.1,6.5-2.9,9.2-5.1c2.8-2.3,4.9-4.9,6.3-8c1.4-3,2.1-6.1,2-9.2
		c-0.1-3.1-0.8-6.1-2.3-9c-1.5-2.9-3.6-5.4-6.2-7.6c-2.4-1.9-5.2-3.6-8.4-5.1c-3.2-1.5-6.3-3-9.6-4.4c-3.2-1.4-6.2-2.9-9-4.3
		c-2.8-1.5-4.9-3.2-6.3-5c-2.4-3.1-3.4-6.3-2.8-9.7c0.5-3.4,2.3-6,5.4-8.1c2.1-1.5,4.6-2.4,7.3-2.8c2.7-0.4,5.5-0.4,8.2,0
		c4,0.7,7.6,2.2,10.8,4.6c3.2,2.4,4.7,5.9,4.5,10.5c-0.3,1.9-0.9,3.6-2,5c-1.1,1.5-2.5,2.4-4.2,2.8c-1.9,0.5-3.7,0.4-5.5-0.4
		c-1.8-0.8-2.9-2.1-3.1-3.8c-0.3-1.9,0.9-3.3,3.6-4.2c1.5-0.4,2.4-1.1,2.8-2c0.4-0.9,0.3-1.8-0.2-2.5c-0.5-0.7-1.4-1.2-2.5-1.5
		c-1.1-0.3-2.5,0-3.9,0.8c-2.1,1.2-3.4,2.9-3.8,5c-0.4,2-0.3,3.8,0.3,5.4c0.6,1.6,1.5,3,2.8,4.1c1.3,1.1,2.8,1.9,4.6,2.3
		c1.8,0.4,3.7,0.4,5.5,0c2.7-0.7,4.8-2,6.3-4.1c1.5-2.1,2.4-4.4,2.7-6.9c0.3-3.9-0.7-7.2-3-10c-2.3-2.7-5-4.9-8.3-6.3
		c-2.8-1.7-5.1-3.9-6.9-6.5s-3.1-5.4-3.8-8.4c-0.7-3-0.9-6-0.6-9.1c0.3-3.1,1.2-6,2.7-8.7c1.7-3.2,4.1-5.8,6.9-7.9
		c2.9-2,6-3.4,9.4-4.1c3.4-0.7,6.8-0.8,10.3-0.2c3.5,0.6,6.6,1.9,9.5,3.8c2.8,1.9,5.1,4.5,6.8,7.8c1.7,3.2,2.6,7.1,2.6,11.7
		c0,1.7-0.1,3.8-0.3,6.2c-0.2,2.4-0.7,4.7-1.4,6.9s-1.8,4.1-3.3,5.6c-1.5,1.5-3.5,2.3-6,2.3h-6.8c-1.3,0-2,0.5-2,1.6
		c0,1.1,0.7,1.7,2,1.8c2.5,0,4.4,0.3,5.6,1c1.2,0.7,1.8,2.5,1.8,5.4v44.1C566.8,434.6,567.1,438,567.6,441.3z"/>
	<path class="st0" d="M627,317.6c-6.4,0.4-12,1.6-16.8,3.7c-4.8,2.1-8.7,4.7-11.8,8c-4.3,4.3-7,9.4-8.2,15.3
		c-1.1,5.9-0.8,11.5,0.9,16.9c1.7,5.4,4.8,9.9,9.3,13.6c4.4,3.7,10.1,5.5,17.1,5.5h0.4v72.5h-8.3c-0.9,0-1.4,0.6-1.4,1.7
		c0,1.1,0.5,1.7,1.4,1.7h30.2c0.9,0,1.4-0.6,1.4-1.7c0-1.1-0.5-1.7-1.4-1.7H632v-56.2c0.6,1.9,1.5,3.6,2.8,5c1.3,1.5,3,2.6,5,3.2
		c1.9,0.7,3.7,0.8,5.5,0.4s3.4-1.1,4.8-2.1c1.4-1,2.5-2.3,3.2-3.9c0.7-1.6,1-3.4,0.7-5.2c-0.3-2-1.4-3.8-3.4-5.2
		c-1.5-0.9-2.8-1.3-3.9-1.1c-1.1,0.2-2,0.6-2.5,1.3c-0.5,0.7-0.7,1.5-0.5,2.5c0.2,1,1,1.8,2.5,2.3c1.5,0.7,2.4,1.4,2.9,2.2
		c0.5,0.8,0.6,1.5,0.5,2.2c-0.4,1.7-1.5,2.9-3.3,3.5c-1.8,0.6-3.7,0.6-5.5-0.1c-1.7-0.5-3.1-1.6-4-3.1c-0.9-1.5-1.4-3.3-1.4-5.1
		c-0.1-3.9,1.1-7,3.8-9.5c2.7-2.4,5.7-3.8,9.1-4.2c3.4-0.4,6.6,0.3,9.7,2.2c3.1,1.9,4.9,5.2,5.6,10.1c0.3,1.1,0.4,2.2,0.4,3.4
		c0,1.2,0,2.6,0,4v53.4h-8.3c-0.9,0-1.4,0.6-1.4,1.7c0,1.1,0.5,1.7,1.4,1.7H686c0.9,0,1.4-0.6,1.4-1.7c0-1.1-0.5-1.7-1.4-1.7h-7.9
		v-53.2c-0.1-1.7,0.1-3.7,0.8-5.9c0.7-2.2,1.6-4.3,2.8-6.1c2.1-3.2,4.7-5.5,7.8-6.7c3-1.3,6-1.6,9-0.9c3,0.7,5.5,2.3,7.6,4.8
		c2.1,2.6,3.4,6,3.8,10.5V446c0,3.1,0.8,5.6,2.4,7.6c1.6,1.9,3.6,3.4,5.9,4.3c2.3,0.9,4.9,1.3,7.6,1.1c2.7-0.2,5.2-0.9,7.4-2.1
		c1.9-1.1,2.4-2,1.7-2.9c-0.7-0.9-1.6-1-2.7-0.3c-2.7,1.7-4.8,1.6-6.3-0.3c-1.5-1.9-2.2-4.8-1.9-8.6v-40.7c0-5.6-0.9-10.4-2.6-14.3
		c-1.7-3.9-4.2-7-7.2-9.3c-2.8-1.9-6-3.2-9.7-4c-3.6-0.8-7.2-0.9-10.9-0.3c-3.6,0.6-7,1.9-10.1,3.9s-5.5,4.9-7.2,8.7
		c-1.1-2.4-2.5-4.5-4.2-6.2c-1.7-1.7-3.7-3.1-6-4.1c-2.3-1-4.7-1.7-7.3-2.1c-2.6-0.4-5.2-0.5-7.7-0.4c-4.4,0.3-8.4,1.5-11.9,3.6
		c-3.5,2.1-5.9,5.4-6.9,9.7L632,376h-2.8c-4.3,1.7-8.5,2.3-12.6,1.6c-4.1-0.7-7.9-2.1-11.3-4.3c-3.4-2.2-6.3-5-8.7-8.5
		c-2.3-3.4-3.9-7-4.6-10.9c-0.7-3.8-0.6-7.7,0.4-11.6c1-3.9,3.3-7.4,6.7-10.5c3.5-3.1,7.7-5.2,12.7-6.2c5-1.1,9.6-1.5,13.9-1.4
		c3.6,0.1,7.1,0.6,10.5,1.4c3.4,0.8,6.7,1.8,10.2,3.1c3.4,1.3,7,2.8,10.7,4.5c3.7,1.7,7.7,3.6,12,5.6c5.9,2.8,12,5.6,18.2,8.4
		c6.2,2.8,12.5,5.1,18.9,7c6.4,1.9,12.8,3.3,19.3,4c6.5,0.7,13.1,0.5,19.6-0.7c4.6-0.8,8.8-2.3,12.8-4.5c4-2.2,7.2-4.9,9.8-8.2
		c2.5-3.2,4.2-6.9,5-11c0.8-4.1,0.3-8.4-1.4-12.8c2-1.3,4.2-2.6,6.5-3.7c2.3-1.1,4.7-1.8,7.1-2.1c2.4-0.1,4.3,0.1,5.6,0.7
		c1.3,0.6,2.2,1.4,2.7,2.5c0.5,1.1,0.7,2.2,0.6,3.5c-0.1,1.3-0.3,2.5-0.7,3.7c1.7-0.1,3.2-1,4.4-2.6c1.2-1.6,1.8-3.3,1.7-5.1
		c-0.1-1.8-0.9-3.4-2.6-4.6c-1.7-1.3-4.5-1.6-8.6-1.1c-3.4,0.4-6.4,1.2-9.3,2.3c-2.8,1.1-5.8,2.4-8.9,3.9
		c-3.5-5.4-8.4-9.5-14.8-12.4c-6.4-2.9-13-4.4-19.8-4.5c-7.6,0-13.9,1.2-18.8,3.5c-4.9,2.3-8.6,5.3-11,8.8c-2,2.8-3.1,5.9-3.3,9.2
		c-0.2,3.3,0.6,6.3,2.5,9c2,3.1,5.2,5.5,9.6,7.1c4.4,1.7,10,2.2,16.8,1.5c3.1-0.4,6.3-1.2,9.7-2.5c3.4-1.3,6.7-2.8,10-4.6
		c3.3-1.8,6.5-3.7,9.7-5.7c3.2-2,6.1-3.8,8.8-5.4c1.6,3.9,2.1,7.5,1.4,10.8c-0.7,3.3-2.2,6.2-4.5,8.9c-2.3,2.6-5.2,4.8-8.7,6.5
		c-3.4,1.7-7,3-10.8,3.8c-4.3,0.8-8.9,0.8-13.8,0.1c-4.9-0.7-10-2-15.3-3.7c-5.3-1.7-10.7-3.8-16.3-6.2c-5.6-2.4-11.2-5-16.8-7.6
		c-4.4-2-9-4.1-13.7-6.2c-4.7-2.1-9.5-4.1-14.3-5.8c-4.8-1.7-9.7-3.1-14.7-4.1C636.9,317.7,632,317.3,627,317.6z M759.5,323.8
		c-3,1.5-6,2.9-9.2,4.2c-3.2,1.3-6.2,2.5-9.3,3.5s-5.9,1.7-8.8,2.1c-6.8,0.7-12.4,0.5-16.7-0.4c-4.3-0.9-7.3-2.4-9.1-4.4
		c-1.5-1.9-2.1-4.2-2-6.8c0.1-2.7,0.9-5,2.4-7c1.9-2.8,5-5.3,9.3-7.4c4.3-2.1,9.3-3.4,14.9-3.8c3.4-0.1,6.8,0.1,10.4,0.6
		c3.6,0.5,7,1.4,10.4,2.7c3.4,1.3,6.4,3,9.2,5c2.7,2.1,5.1,4.6,6.9,7.5C765.2,320.9,762.4,322.4,759.5,323.8z"/>
	<path class="st0" d="M946,411.3c-1.4-7.4-4.3-14.2-8.6-20.2c-3.1-4.3-6.7-7.7-10.9-10.2c-4.2-2.5-8.6-4-13.2-4.6
		c-4.6-0.6-9.4-0.3-14.3,0.8c-4.9,1.1-9.6,3.1-14.2,5.9c-4.3,2.7-8.2,6.4-11.7,11.1c-0.7,1-1.5,2-2.2,3c0.4-1,0.6-2.1,0.8-3.2
		c0.3-2.7-0.2-5.1-1.3-7.3c-1.1-2.2-2.6-4.1-4.5-5.7c-1.9-1.6-4-2.9-6.3-3.7c-2.3-0.9-4.6-1.4-6.7-1.7c-2.8-0.3-5.7-0.2-8.6,0.2
		c-2.9,0.4-5.5,1.2-8,2.4c-3.5,1.6-6.5,3.9-9.1,6.9c-2.6,3-4.2,6.5-4.8,10.4c-0.7,4-0.5,7.5,0.6,10.5c1.1,3,2.7,5.6,4.9,7.9
		c2.2,2.3,4.8,4.2,7.8,5.8c3,1.6,5.9,3.1,9,4.4s5.9,2.6,8.8,3.7c0.2,0.1,0.5,0.2,0.7,0.3c-2.5,5.3-5.1,10.3-7.7,14.9
		c-2.3,4.1-4.7,7.6-7.2,10.7c-2.5-0.9-4.8-2.2-6.8-3.8c-2.1-1.7-4-3.8-5.4-6.1c-1.5-2.3-2.4-4.9-2.8-7.6v-6.2c0-0.7-0.6-1-1.7-1.1
		c-1.1-0.1-1.7,0.3-1.7,1.1v25.6c0,0.7,0.6,1,1.7,1s1.7-0.3,1.7-1v-7.9c2.5,3.2,6,5.9,10.3,8.1c0.7,0.4,1.4,0.6,2.2,0.9
		c-2.8,2.8-5.9,4.5-9.2,5.1c-2.3,0.4-4.7,0.5-7.2,0.2c-2.6-0.3-4.9-1-7-2.3c-2.1-1.3-3.9-3.1-5.3-5.4c-1.4-2.3-2.1-5.5-2.1-9.4
		v-41.9c0-5.8-1.3-10.6-4-14.5c-2.7-3.9-6.1-6.9-10.2-9.1c-4.1-2.1-8.6-3.4-13.4-3.8c-4.8-0.4-9.4,0-13.7,1.1
		c-4.3,1.1-8,3.1-11.2,5.7c-3.2,2.7-5,6.1-5.5,10.3c-0.3,1.7,0,3,0.7,3.8c0.7,0.8,1.6,1.2,2.5,1.2c0.9,0,1.8-0.4,2.5-1.1
		c0.7-0.7,1-1.8,0.7-3.3c-0.4-2.7,0.2-5.2,1.9-7.4c1.7-2.3,3.9-4.1,6.7-5.3c2.8-1.3,5.9-1.9,9.2-2c3.3-0.1,6.4,0.7,9.4,2.3
		c3,1.6,5.4,4.2,7.3,7.8c1.9,3.6,2.9,8.3,2.9,14.2v13.1c-1.3-3.5-3.5-6.2-6.5-8.3c-3-2-6.4-3.3-10.2-3.8c-3.8-0.5-7.7-0.4-11.8,0.4
		c-4.1,0.8-7.8,2.3-11.2,4.6c-3.4,2.3-6.1,5.3-8.4,9.1c-2.2,3.8-3.3,8.2-3.3,13.3c0,5,0.9,9.2,2.6,12.8c1.7,3.6,4,6.5,6.8,8.9
		c2.8,2.3,6,4.1,9.6,5.1c3.6,1.1,7.1,1.5,10.8,1.4c4.3-0.3,8.4-1.4,12.2-3.4c3.8-2,6.9-5,9.4-9.1c1.1,4.8,3,8.7,5.8,11.6
		c2.8,2.9,6,5,9.6,6.3c3.6,1.3,7.2,1.9,10.9,1.8c3.7-0.1,6.9-0.8,9.8-2c4-1.6,7.5-4.1,10.7-7.3c3.3,1.1,6.7,1.7,10.5,1.7
		c3.6,0,7.1-0.6,10.6-1.7c3.4-1.1,6.5-2.9,9.2-5.1c2.8-2.3,4.9-4.9,6.3-8c1.4-3,2.1-6.1,2-9.2c-0.1-3.1-0.8-6.1-2.3-9
		c-1.5-2.9-3.6-5.4-6.2-7.6c-1.7-1.3-3.7-2.6-5.8-3.7c0.6-1.2,1.2-2.5,1.9-3.7c2.7-5.2,5.8-10.1,9.2-14.7c3.4-4.6,7.3-8.3,11.9-11.3
		c4.3-2.7,8.8-4.6,13.6-5.7c4.8-1.1,9.4-1.4,14-0.9c4.6,0.5,8.9,2,13,4.4c4.1,2.4,7.7,5.8,10.8,10.1c4,5.8,6.6,12.4,7.9,19.7
		c1.2,7.4,1.3,14.5,0.4,21.3c-1.2,10.2-4.4,19.7-9.6,28.4c-5.2,8.7-11.7,16.5-19.5,23.3c-7.9,6.8-16.7,12.5-26.5,17.1
		c-9.8,4.6-19.9,8-30.4,10.2c-10.5,2.1-20.9,3-31.3,2.4c-10.4-0.5-20.2-2.6-29.3-6.2c0-0.8-0.1-1.9-0.4-3.2c-0.8-4-2.3-7.8-4.3-11.3
		c-2.1-3.5-4.9-6.4-8.4-8.9c-2.8-1.9-5.6-2.8-8.3-2.8c-2.7,0-4.7,0.7-5.9,2.1c-1.3,1.4-1.5,3.4-0.7,6c0.8,2.6,3.3,5.6,7.4,9
		c3.2,2.7,6.6,5,10.3,7c3.6,2,6.4,3.4,8.3,4.2c0.3,7.2-1.1,13.5-4,18.6c-3,5.2-6.9,9.4-11.9,12.7c-5,3.3-10.6,5.6-16.9,6.9
		c-6.3,1.3-12.6,1.8-18.9,1.4c-7.7-0.5-15.9-2.3-24.7-5.2c-8.8-3-17.9-6.6-27.4-10.9c-9.5-4.3-19.1-8.9-29-13.9
		c-9.9-5-19.7-9.7-29.5-14.2c-9.8-4.5-19.4-8.5-28.7-12c-9.3-3.5-18.2-5.8-26.7-6.9c-8.5-1.1-16.3-0.9-23.7,0.7
		c-7.3,1.6-13.8,5.2-19.4,10.9c-3.9,3.8-6.7,8.1-8.6,12.9s-2.4,10-1.9,15.5c0.4,4,1.6,8.2,3.7,12.4c2.1,4.2,4.8,7.6,8.2,10
		c1.1,0.8,2.1,1.1,3,1c0.9-0.1,1.6-0.5,2.1-1.1c0.5-0.6,0.6-1.3,0.4-2c-0.2-0.7-0.8-1.4-1.9-1.9c-1.2-0.5-2.5-0.8-3.8-0.9
		c-1.3-0.1-2.7-1.1-4-3.1c-2.8-4.3-4.6-9.1-5.2-14.5c-0.5-4.7,0-9.4,1.6-14.2c1.6-4.8,4.4-8.7,8.3-11.8c3.9-3.1,8.5-5,13.9-5.8
		c5.4-0.8,11.1-0.9,17.3-0.2c6.2,0.7,12.5,1.9,19,3.8c6.5,1.9,12.9,4,19,6.2c6.2,2.3,11.9,4.7,17.3,7.1c5.4,2.5,9.9,4.6,13.7,6.3
		c8.1,3.9,16.5,8.1,25.5,12.5c8.9,4.4,18.1,8.5,27.4,12.3c9.3,3.8,18.7,6.8,28.1,9.3c9.4,2.4,18.6,3.4,27.6,3
		c6.3-0.1,12.6-1.2,18.8-3.2c6.2-2,11.9-4.8,16.9-8.5c5-3.6,9.1-8.1,12.2-13.5c3.1-5.4,4.6-11.5,4.4-18.5
		c10.2,4.6,20.7,7.3,31.6,8.4c10.9,1,21.5,0.5,32-1.6c10.5-2.1,20.5-5.6,30.1-10.5c9.6-4.9,18.2-11,25.8-18.2
		c7.6-7.2,13.9-15.6,18.8-25.2c5-9.5,8.2-19.9,9.7-31C947.6,426.4,947.4,418.7,946,411.3z M791.5,433.7c0,4.6-0.9,8.3-2.6,11.3
		c-1.7,3-3.9,5.2-6.4,6.7c-2.6,1.5-5.4,2.3-8.5,2.1c-3.1-0.1-5.9-1-8.5-2.7c-2.6-1.7-4.7-4.2-6.4-7.6c-1.7-3.4-2.6-7.6-2.6-12.7
		c0-6.2,1.1-11.1,3.4-14.9c2.3-3.8,5-6.3,8.2-7.8c3.2-1.4,6.4-1.6,9.8-0.7c3.4,0.9,6.2,3,8.5,6c0.9,1.3,1.6,2.9,2.1,4.6
		c0.5,1.7,0.6,3.5,0.5,5.1c-0.1,1.7-0.6,3.2-1.5,4.6c-0.9,1.4-2.2,2.4-3.9,2.9c-1.9,0.7-3.7,0.7-5.5,0c-1.8-0.7-2.9-1.8-3.3-3.4
		c-0.1-0.8,0-1.6,0.5-2.4c0.5-0.8,1.4-1.5,2.9-2.2c1.3-0.5,2.1-1.3,2.4-2.2c0.3-0.9,0.1-1.8-0.4-2.5c-0.5-0.7-1.4-1.2-2.6-1.3
		c-1.2-0.1-2.5,0.3-3.8,1.2c-2,1.2-3.2,3-3.4,5.2c-0.3,1.9,0,3.6,0.7,5.1c0.7,1.5,1.8,2.8,3.2,3.8c1.4,1,3,1.7,4.8,2.1
		c1.8,0.4,3.7,0.3,5.5-0.4c1.7-0.5,3.2-1.3,4.3-2.4c1.1-1.1,2-2.3,2.7-3.8V433.7z M866.5,438.7c0.7,2.8,0.5,5.3-0.7,7.8
		c-1.2,2.4-3.3,4.5-6.3,6.1c-3,1.7-6.7,2.5-11,2.5c-2.7,0-5.2-0.4-7.6-1.1c2.9-3.5,5.5-7.3,7.9-11.5c2.5-4.4,4.8-9,7-13.9
		c1.8,0.9,3.5,1.8,4.8,2.7C863.8,433.5,865.7,435.9,866.5,438.7z M863.5,409.5c-0.8,1.4-1.5,2.9-2.3,4.4c-0.5-0.2-0.9-0.5-1.3-0.7
		c-3.2-1.5-6.3-3-9.6-4.4c-3.2-1.4-6.2-2.9-9-4.3c-2.8-1.5-4.9-3.2-6.3-5c-2.4-3.1-3.4-6.3-2.8-9.7c0.5-3.4,2.3-6,5.4-8.1
		c2.1-1.5,4.6-2.4,7.3-2.8c2.7-0.4,5.5-0.4,8.2,0c4,0.7,7.6,2.2,10.8,4.6c3.2,2.4,4.7,5.9,4.5,10.5c-0.3,1.9-0.9,3.6-2,5
		c-1.1,1.5-2.5,2.4-4.2,2.8c-1.9,0.5-3.7,0.4-5.5-0.4c-1.8-0.8-2.9-2.1-3.1-3.8c-0.3-1.9,0.9-3.3,3.6-4.2c1.5-0.4,2.4-1.1,2.8-2
		c0.4-0.9,0.3-1.8-0.2-2.5c-0.5-0.7-1.4-1.2-2.5-1.5c-1.1-0.3-2.5,0-3.9,0.8c-2.1,1.2-3.4,2.9-3.8,5c-0.4,2-0.3,3.8,0.3,5.4
		c0.6,1.6,1.5,3,2.8,4.1c1.3,1.1,2.8,1.9,4.6,2.3c1.8,0.4,3.7,0.4,5.5,0c1.9-0.5,3.5-1.3,4.8-2.5
		C866.1,404.7,864.8,407.1,863.5,409.5z M788.2,503.9c-3.3-1.8-6.3-3.9-9.2-6.1c-3.4-2.7-5.4-5-6.2-6.9c-0.8-1.9-0.7-3.4,0.2-4.4
		c0.9-1,2.4-1.5,4.4-1.4c2,0.1,4.2,0.9,6.4,2.5c3.1,2.3,5.6,5,7.6,8.2c2,3.2,3.4,6.7,4.2,10.6c0,0.3,0,0.5,0.1,0.8
		c0.1,0.3,0.1,0.5,0.1,0.8C794,507,791.4,505.7,788.2,503.9z"/>
	<path class="st0" d="M205.5,629.7v0.2c-0.9,0-1.7,0.4-2.4,1.2c-0.7,0.8-1,1.8-1,2.9c0,2.6,1.1,3.9,3.3,3.9c0.9,0,1.7-0.4,2.3-1.2
		c0.6-0.8,1-1.8,1-2.9c0-1.1-0.3-2.1-0.9-2.9C207.2,630.1,206.5,629.7,205.5,629.7z"/>
	<path class="st0" d="M262.7,666.2c-0.7-5.8-2.4-10.5-5-14.3c-2.7-3.7-6.2-6.7-10.6-9.1c-1.6-1-3.3-1.7-5-2.3
		c-1.7-0.5-3.6-1-5.6-1.4c0.3-0.7,0.7-1.1,1-1.2c0.3-0.1,0.6-0.3,0.9-0.6c6.2-4.7,10.8-10.4,13.8-17.1c2.9-6.7,4.3-14.5,4.1-23.1
		c-0.2-5.6-1.7-10.5-4.5-14.5c-4.2-5.8-9.6-9.3-16.4-10.5c-2.7-0.5-5.3-0.7-8-0.3c-2.7,0.3-5.4,0.7-8,1.1c-3.1,0.6-6.2,1.2-9.3,2.1
		c-3.1,0.8-6.2,1.5-9.4,2.1c-3.6,0.7-6.9,0-9.9-2.1c-0.7-0.5-1.2-0.9-1.6-1c-2-1.1-3.4-0.8-4.3,1c-1,1.9-0.5,3.7,1.6,5.2
		c0.6,0.4,1.2,0.8,1.8,1.1c0.6,0.3,1.2,0.7,1.8,1.1c0.7,0.4,1.5,0.7,2.3,0.7c0.9,0.1,1.5,0.5,1.8,1.3c0.2,0.7,0.3,1.5,0.2,2.5
		c-0.1,1-0.2,1.9-0.2,2.9v48.9c0,0.6,0,1.1,0.1,1.7c0.1,0.6-0.1,1.1-0.6,1.7c-0.5-0.3-0.9-0.5-1.3-0.7c-0.4-0.2-0.8-0.4-1.3-0.5
		c-1.3-0.4-2.2,0.1-2.8,1.4c-0.6,1.1-0.5,2.1,0.2,3.1l1,1.2c1.7,1.8,2.9,3.8,3.6,6.1c0.6,2.3,1,4.7,1.1,7.3c0,2.3-0.1,4.7-0.2,7.1
		c-0.1,2.4-0.2,4.8-0.2,7.1v26c0,1.2-0.1,2.3-0.3,3.3c-0.2,1-0.9,1.7-2.1,2.1c-0.2,0.1-0.4,0.3-0.5,0.4c-0.1,0.1-0.3,0.3-0.5,0.4
		c-1.2,1.1-1.4,2.5-0.9,4.1c0.5,1.7,1.5,2.3,3.1,2.1c0.5-0.1,1.2-0.5,2.1-1c3.5-1.5,6.9-2,10.2-1.4c1.6,0.3,3.1,0.6,4.6,0.9
		c1.4,0.3,2.9,0.8,4.4,1.3c2.9,1,5.7,1.7,8.6,2.1c2.8,0.4,5.7,0.3,8.7-0.2c7.9-1.4,14.6-5.1,20.2-11.3c5.6-6.1,9.4-13.7,11.4-22.8
		c1.2-5.2,1.4-10.2,0.7-14.9L262.7,666.2z M213.7,603c-0.2,2.3-0.3,4.7-0.3,7.1c0,2.4,0,4.8,0,7.1v27.9v2.5c0,1.2-0.5,1.7-1.6,1.2
		l-1-0.6c-2.9-1.7-5.8-1.8-8.7-0.4c-0.9,0.4-1.5,0.5-1.7,0.3c-0.2-0.2-0.3-0.9-0.3-2.2v-5.6v-22.9v-24.8c0-1.2,0-2.5,0.1-3.7
		c0.1-1.2,0.1-2.5,0.1-3.7c0-1.1,0.5-1.8,1.6-2.1l9.4-1.9c1.3-0.4,1.9,0.2,1.9,1.9c0.2,3.3,0.4,6.6,0.6,9.9c0.2,3.3,0.1,6.6-0.1,9.9
		H213.7z M241,580c1.9,0.9,3.6,2.2,5.1,3.8c1.5,1.7,2.6,3.6,3.5,5.8c0.9,2.2,1.3,4.6,1.3,7.2c0.1,8.1-1.8,15.8-5.6,22.9
		c-1.2,2.1-2.5,3.7-4,5c-0.2-0.8-0.2-1.5,0-2c0.2-0.5,0.5-1,0.7-1.5c2.2-6.3,3.3-12.5,3.3-18.6c-0.1-6.9-2-13.1-5.7-18.8
		c-0.7-1.1-1.4-2-2.3-2.8c-0.8-0.8-1.6-1.5-2.4-2.4C237,578.7,239,579.1,241,580z M219.3,623.3l0.2-0.2c0.1-6.6,0.2-13,0.3-19.3
		c0.1-6.3,0.1-12.6,0.3-18.9c0-1.4,0.1-2.2,0.3-2.4c0.2-0.2,0.8-0.2,2,0.1l4.2,0.6c2.3,0.4,4.3,1.4,5.8,2.9c1.6,1.5,2.9,3.4,4.1,5.8
		c1.2,2.3,1.9,4.8,2.2,7.3c0.3,2.6,0.3,5.1,0.1,7.7c-0.7,6.1-2.3,11.9-4.7,17.6c-1,2.5-2.3,4.6-3.9,6.4c-1.6,1.8-3.3,3.4-5.1,5
		c-0.5,0.4-0.9,0.7-1.4,0.8c-0.5,0.1-1,0.3-1.6,0.4c-1,0.3-1.7,0.3-2.1,0c-0.3-0.3-0.5-1.1-0.5-2.5V623.3z M241.5,673.7
		c-0.5,6.2-2.4,12.2-5.7,18l0.5-0.2c-1.7,2.9-3.6,5.5-5.7,7.9c-2,2.4-4.5,4.4-7.4,5.9c-0.6,0.3-1.1,0.7-1.7,1.3
		c-0.5,0.6-1.2,0.7-2.2,0.3c-0.5-0.3-0.8-0.5-1-0.6c-0.2-0.1-0.3-0.5-0.3-1.2c0.2-4.8,0.3-9.5,0.3-14.1c-0.1-4.6,0.1-9,0.4-13.1
		v-28.3c0-1.9,0.1-3,0.3-3.3c0.2-0.3,1.2-0.5,2.8-0.6c0.8-0.1,1.6-0.2,2.3-0.2s1.5-0.1,2.4-0.2c3-0.4,5.7,0.2,8.1,1.9
		c2.4,1.7,4,4.1,5,7.4C241.4,661.1,242,667.5,241.5,673.7z"/>
	<path class="st0" d="M332.6,712.1c1.6-0.7,3.1-1.5,4.4-2.5c1.3-1,2.6-2.2,3.7-3.7c0.3-0.5,0.7-1.1,1-1.7c0.3-0.5,0.5-1.2,0.8-1.9
		c0.3-1.8-0.1-3.1-1.2-3.9c-1.2-0.8-2.3-0.7-3.3,0.4l-1,1.2c-0.8,1.5-1.8,2.7-3,3.4c-1.2,0.8-2.4,1.4-3.6,2
		c-2.2,0.8-4.6,1.4-7.1,1.9c-2.7,0.3-5.3,0.3-7.8,0.2c-2.5-0.1-5.1-0.5-7.8-1.2c-0.7-0.3-1.2-0.6-1.6-0.9c-0.3-0.3-0.5-1.1-0.3-2.2
		c0.2-5,0.3-9.9,0.3-15c-0.1-5,0-10.1,0.1-15.2v-21.7c0-0.7,0.1-1.4,0.2-2.1c0.1-0.7,0.5-1.3,1-1.9c2-1.8,4-3.1,6.2-3.8
		c2.2-0.8,4.6-0.7,7.1,0.1c3.4,1.1,4.7,3.7,4.2,7.6c-0.1,0.8-0.2,1.7-0.3,2.5c-0.1,0.8-0.2,1.7-0.2,2.5c0,1.2,0.2,2.3,0.7,3.3
		c0.8,1.4,1.8,2,3,1.9c1.4-0.3,2.2-1.2,2.4-2.9v-1.2c-0.1-1.2-0.1-2.4,0.2-3.4c0.2-1,0.6-2.1,1-3.2c0.6-1.5,1.1-3,1.6-4.4
		c0.5-1.4,0.9-2.9,1.1-4.4c0.6-3.2,0.3-6.1-0.7-8.9c-0.7-1.7-1.7-2.3-3.1-1.9c-1.3,0.4-1.9,1.6-1.9,3.5c0,0.4,0,0.8,0.1,1.2
		c0.1,0.4,0.1,0.8,0.1,1.2c0.1,0.7,0.1,1.4,0.1,2.1c-0.1,0.7-0.4,1.4-1,2.1c-1.7-2.1-3.9-3.4-6.6-4.1c-2.2-0.5-4.3-0.6-6.4-0.2
		c-2.1,0.4-4.1,1.1-6.1,2.1c-0.9,0.6-1.5,0.7-1.7,0.5c-0.2-0.2-0.4-0.9-0.5-2.2v-2.5c0.1-8.5,0.2-17,0.2-25.4
		c0-8.4,0.1-16.9,0.3-25.4c0.1-1.2,0.3-2,0.4-2.3c0.2-0.3,0.8-0.5,1.8-0.8c1.3-0.3,2.6-0.5,3.9-0.6c1.3-0.1,2.6-0.3,3.9-0.4
		c2.7-0.3,5.3-0.3,8-0.1c2.7,0.2,5.3,0.9,8,2c3.9,1.7,6.5,4.9,7.8,9.7c0.2,0.7,0.4,1.3,0.5,1.9c0.1,0.6,0.3,1.1,0.7,1.7
		c0.7,1.1,1.6,1.4,2.8,1c1.3-0.4,2-1.3,2.1-2.7c0.1-1.1,0-2.3-0.3-3.5v0.8c-1.7-7.2-5.4-12-10.9-14.7c-3.4-1.5-6.7-2.4-10.1-2.8
		c-3.4-0.3-6.8-0.2-10.2,0.3c-2.5,0.4-5.1,0.9-7.6,1.3c-2.5,0.5-5,0.9-7.6,1.3c-3.9,0.7-7.8,1.1-11.7,1.3c-3.9,0.2-7.7-0.7-11.5-2.6
		c-1.4-0.7-2.5-0.2-3.3,1.4c-0.8,1.7-0.5,3,1,4.1c0.7,0.7,1.4,1.2,2.3,1.5c0.8,0.3,1.7,0.7,2.6,0.9c1.4,0.6,2.2,1,2.4,1.3
		c0.2,0.3,0.3,1.3,0.3,2.8c0,2.3,0,4.7-0.1,7.1c-0.1,2.4-0.1,4.8-0.1,7.1c-0.1,4-0.2,7.9-0.2,11.8c0,3.9-0.1,7.8-0.2,11.8
		c0,2.5-0.1,5-0.2,7.4c-0.1,2.5-0.2,5-0.3,7.6c-0.6,0-1-0.1-1.3-0.3c-0.3-0.2-0.5-0.4-0.8-0.7c-2.2-1.2-3.7-1-4.5,0.6
		c-0.8,1.5-0.3,3.1,1.6,4.8c0.5,0.3,0.9,0.6,1.3,0.9c0.4,0.3,0.7,0.8,1,1.3c0.9,1.8,1.7,3.6,2.3,5.5c0.6,1.9,0.8,3.9,0.7,6.1
		c-0.2,4.3-0.4,8.5-0.4,12.7c-0.1,4.2-0.1,8.4-0.3,12.7c0,2.8,0,5.4-0.1,8.1c-0.1,2.6-0.1,5.3-0.1,8.1c0,2.3-0.3,4.2-1,5.7
		c-0.6,1.4-1.9,2.7-3.9,3.6c-1.2,0.6-1.9,1.3-2.2,2.2c-0.3,0.9-0.2,1.8,0.3,2.6c0.8,1.7,2.3,1.8,4.5,0.4c3-1.9,6-3.1,9.1-3.5
		c3.1-0.4,6.2-0.3,9.5,0.2c1.7,0.3,3.4,0.7,5.1,1.1c1.7,0.5,3.4,0.9,5.1,1.3C315.8,715.7,324.3,715.2,332.6,712.1z M300.1,634.4
		c0,1.2,0,2.5,0,3.7s-0.1,2.5-0.2,3.7c-0.1,1.2-0.3,2-0.5,2.2c-0.2,0.2-0.8,0.1-1.7-0.3c-1.5-0.7-2.9-0.9-4.2-0.6
		c-1.3,0.3-2.6,0.8-3.9,1.4c-1.1,0.5-1.8,0.7-2.1,0.5c-0.2-0.2-0.3-1.1-0.3-2.6v-5c0.3-6.6,0.5-13.1,0.4-19.6
		c-0.1-6.5,0-13,0.3-19.6c0-1.9,0-3.9,0.1-5.9c0.1-2,0.1-4,0.1-5.9c0-1.4,0.1-2.2,0.4-2.6c0.3-0.3,1-0.5,2.1-0.5
		c1.3,0,2.5-0.1,3.7-0.3c1.2-0.2,2.4-0.4,3.7-0.5c1,0,1.7,0.2,2,0.5c0.3,0.3,0.4,1.1,0.3,2.2l0.3,0.2c-0.3,8.3-0.5,16.4-0.4,24.5
		C300.3,618,300.2,626.2,300.1,634.4z"/>
	<path class="st0" d="M293.7,628v-0.2c-0.8,0-1.6,0.4-2.3,1.2c-0.7,0.8-1,1.7-1,2.7c0,0.8,0.3,1.6,0.9,2.3c0.6,0.7,1.2,1,1.9,1
		c0.8,0,1.5-0.4,2.1-1.1c0.6-0.8,0.9-1.7,0.9-2.8C296.1,629.1,295.3,628,293.7,628z"/>
	<path class="st0" d="M376.2,629.7H376c-0.7-0.1-1.4,0.1-2,0.6c-0.6,0.6-1.1,1.2-1.3,2.1c-0.3,1.2-0.3,2.5,0.1,3.7
		c0.4,1.2,1.1,2.2,2,2.9c1.3,1,2.5,1,3.6,0.2c1.2-1,1.7-2.2,1.7-3.7c0-1.2-0.4-2.5-1.3-3.7C378,630.5,377.1,629.8,376.2,629.7z"/>
	<path class="st0" d="M419.9,712.5c2.9-1.8,4.8-4.7,5.7-8.7l1-5c0.5-3.7-0.3-7.2-2.3-10.5l0.5-1.9c-1.5-2.8-3.5-4.4-5.9-5
		c-1.9-0.4-3.3,0.3-4.3,2.1c-0.9,1.4-0.9,3,0.2,5c0.2,0.6,0.5,1.1,0.8,1.5c0.3,0.5,0.4,1.1,0.4,1.8c0,1.8-0.1,3.6-0.4,5.5
		c-0.3,1.9-0.9,3.6-1.7,5.2c-0.9,1.6-2.1,2.9-3.6,3.8c-1.5,1-3.4,1.4-5.7,1.4c-2.2,0-4.4-0.1-6.5-0.2c-2.1-0.1-4.3-0.4-6.5-0.8
		c-1.6-0.3-2.5-0.6-2.8-1c-0.2-0.4-0.3-1.6-0.3-3.5c0-2.3,0.1-4.7,0.2-7.1c0.1-2.4,0.2-4.8,0.3-7.1c0.2-7,0.4-14,0.6-21.1
		s0.4-14,0.6-21.1c0.1-4.8,0.2-9.7,0.2-14.6c0-4.9,0.1-9.7,0.3-14.6c0.2-5.2,0.3-10.5,0.3-15.8c-0.1-5.3,0-10.6,0.3-15.8
		c0.1-2.3,0.3-3.7,0.7-4.2c0.3-0.5,1.5-0.9,3.5-1.1h0.5c1.4-0.4,2.1-1.3,2.3-2.7c0.1-1.5-0.5-2.8-1.7-3.7c-0.6-0.4-1.2-0.7-1.9-0.7
		c-0.7-0.1-1.4,0-2.1,0.1c-1.3,0.3-2.5,0.6-3.6,0.9c-1.1,0.3-2.2,0.8-3.4,1.3c-2.2,1.1-4.8,1.7-7.7,1.7c-1.6,0-3.2-0.2-4.8-0.6
		c-1.6-0.4-3.2-0.9-4.8-1.4c-1.2-0.4-2.3-0.8-3.4-1c-1.1-0.3-2.3-0.3-3.6,0c-1.6,0.4-2.5,1.4-2.6,3.1c-0.2,1.8,0.6,2.9,2.4,3.3
		c1.4,0.4,2.2,0.8,2.4,1.1c0.2,0.3,0.3,1.4,0.3,3.2v16.1c0.1,6.2,0,12.3-0.3,18.2c-0.3,5.9-0.4,12-0.3,18.2c0,1.8-0.1,2.8-0.3,3
		c-0.2,0.2-1.1,0.1-2.6-0.3c-1.7-0.4-3,0.1-3.6,1.4c-0.8,1.7-0.4,3,1.2,4.1c2.1,1.4,3.5,3.2,4.2,5.4c0.7,2.2,1,4.5,0.9,6.8
		c-0.2,5.2-0.3,10.4-0.3,15.5c0.1,5.1,0,10.3-0.1,15.5l-0.5,19.2c0,2.1-0.8,3.2-2.3,3.3c-0.2,0-0.6,0.1-1,0.4
		c-1.3,0.7-1.9,1.8-1.9,3.3c0,1.5,0.8,2.4,2.4,2.7c0.9,0.1,1.8,0.1,2.5-0.1c0.8-0.2,1.5-0.4,2.3-0.7c0.9-0.4,1.9-0.8,2.9-1.1
		c1-0.3,1.9-0.7,2.9-0.9c2.3-0.7,4.6-0.9,6.8-0.5c2.2,0.3,4.5,0.7,6.8,1.1c3.7,0.7,7.5,1.2,11.2,1.6c3.8,0.3,7.5,0.4,11.2,0.1
		c2.4-0.1,4.8-0.5,7.1-1C415.4,714.8,417.7,713.9,419.9,712.5z M384.3,602.5c-0.1,5.6-0.3,11.3-0.5,17l-0.2,1c-0.2,4-0.3,8-0.3,12.1
		c0,4.1-0.1,8.1-0.2,12.1v3.1c0,1.4-0.5,1.7-1.4,1c-3.5-2.2-7.1-2.2-10.9,0c-1,0.6-1.6,0-1.6-1.7v-13.4c0.2-7.4,0.4-15.1,0.4-23
		c0.1-7.9,0.1-15.9,0.1-24.1v-1.9c0-1.2,0.5-1.8,1.6-1.7h1c1.6,0.3,3.3,0.5,4.9,0.6c1.7,0.1,3.4,0,5.1-0.4c0.9-0.3,1.5-0.3,1.7,0
		c0.2,0.3,0.3,1,0.3,2.1C384.5,591.3,384.4,596.9,384.3,602.5z"/>
	<path class="st0" d="M454.3,629.7h-0.2c-0.7-0.1-1.4,0.1-2,0.6c-0.6,0.6-1.1,1.2-1.3,2.1c-0.3,1.2-0.3,2.5,0.1,3.7
		c0.4,1.2,1.1,2.2,2,2.9c1.3,1,2.5,1,3.6,0.2c1.2-1,1.7-2.2,1.7-3.7c0-1.2-0.4-2.5-1.3-3.7C456.1,630.5,455.2,629.8,454.3,629.7z"/>
	<path class="st0" d="M503.7,703.8l1-5c0.5-3.7-0.3-7.2-2.3-10.5l0.5-1.9c-1.5-2.8-3.5-4.4-5.9-5c-1.9-0.4-3.3,0.3-4.3,2.1
		c-0.9,1.4-0.9,3,0.2,5c0.2,0.6,0.5,1.1,0.8,1.5c0.3,0.5,0.4,1.1,0.4,1.8c0,1.8-0.1,3.6-0.4,5.5c-0.3,1.9-0.9,3.6-1.7,5.2
		c-0.9,1.6-2.1,2.9-3.6,3.8c-1.5,1-3.4,1.4-5.7,1.4c-2.2,0-4.4-0.1-6.5-0.2c-2.1-0.1-4.3-0.4-6.5-0.8c-1.6-0.3-2.5-0.6-2.8-1
		c-0.2-0.4-0.3-1.6-0.3-3.5c0-2.3,0.1-4.7,0.2-7.1c0.1-2.4,0.2-4.8,0.3-7.1c0.2-7,0.4-14,0.6-21.1s0.4-14,0.6-21.1
		c0.1-4.8,0.2-9.7,0.2-14.6c0-4.9,0.1-9.7,0.3-14.6c0.2-5.2,0.3-10.5,0.3-15.8c-0.1-5.3,0-10.6,0.3-15.8c0.1-2.3,0.3-3.7,0.7-4.2
		c0.3-0.5,1.5-0.9,3.5-1.1h0.5c1.4-0.4,2.1-1.3,2.3-2.7c0.1-1.5-0.5-2.8-1.7-3.7c-0.6-0.4-1.2-0.7-1.9-0.7c-0.7-0.1-1.4,0-2.1,0.1
		c-1.3,0.3-2.5,0.6-3.6,0.9c-1.1,0.3-2.2,0.8-3.4,1.3c-2.2,1.1-4.8,1.7-7.7,1.7c-1.6,0-3.2-0.2-4.8-0.6c-1.6-0.4-3.2-0.9-4.8-1.4
		c-1.2-0.4-2.3-0.8-3.4-1c-1.1-0.3-2.3-0.3-3.6,0c-1.6,0.4-2.5,1.4-2.6,3.1c-0.2,1.8,0.6,2.9,2.4,3.3c1.4,0.4,2.2,0.8,2.4,1.1
		c0.2,0.3,0.3,1.4,0.3,3.2v16.1c0.1,6.2,0,12.3-0.3,18.2c-0.3,5.9-0.4,12-0.3,18.2c0,1.8-0.1,2.8-0.3,3c-0.2,0.2-1.1,0.1-2.6-0.3
		c-1.7-0.4-3,0.1-3.6,1.4c-0.8,1.7-0.4,3,1.2,4.1c2.1,1.4,3.5,3.2,4.2,5.4c0.7,2.2,1,4.5,0.9,6.8c-0.2,5.2-0.3,10.4-0.3,15.5
		c0.1,5.1,0,10.3-0.1,15.5l-0.5,19.2c0,2.1-0.8,3.2-2.3,3.3c-0.2,0-0.6,0.1-1,0.4c-1.3,0.7-1.9,1.8-1.9,3.3c0,1.5,0.8,2.4,2.4,2.7
		c0.9,0.1,1.8,0.1,2.5-0.1s1.5-0.4,2.3-0.7c0.9-0.4,1.9-0.8,2.9-1.1c1-0.3,1.9-0.7,2.9-0.9c2.3-0.7,4.6-0.9,6.8-0.5
		c2.2,0.3,4.5,0.7,6.8,1.1c3.7,0.7,7.5,1.2,11.2,1.6c3.8,0.3,7.5,0.4,11.2,0.1c2.4-0.1,4.8-0.5,7.1-1c2.3-0.5,4.6-1.5,6.8-2.9
		C500.9,710.7,502.8,707.8,503.7,703.8z M462.4,602.5c-0.1,5.6-0.3,11.3-0.5,17l-0.2,1c-0.2,4-0.3,8-0.3,12.1
		c0,4.1-0.1,8.1-0.2,12.1v3.1c0,1.4-0.5,1.7-1.4,1c-3.5-2.2-7.1-2.2-10.9,0c-1,0.6-1.6,0-1.6-1.7v-13.4c0.2-7.4,0.4-15.1,0.4-23
		c0.1-7.9,0.1-15.9,0.1-24.1v-1.9c0-1.2,0.5-1.8,1.6-1.7h1c1.6,0.3,3.3,0.5,4.9,0.6c1.7,0.1,3.4,0,5.1-0.4c0.9-0.3,1.5-0.3,1.7,0
		c0.2,0.3,0.3,1,0.3,2.1C462.6,591.3,462.5,596.9,462.4,602.5z"/>
	<path class="st0" d="M570,587.8c0.9-1.8,1.6-3.5,2.1-5.2c0.3-1.7,0.5-3.1,0.3-4.3c-0.3-1.8-1.2-2.7-2.6-2.7c-1.4,0-2.3,0.8-2.6,2.3
		c-0.1,0.4-0.2,1-0.2,1.9c-0.2,1.7-0.8,3.2-1.7,4.5c-0.6-0.3-1-0.6-1.2-0.9c-0.2-0.3-0.5-0.7-0.7-0.9c-2.5-4-5.5-6.7-8.9-8.2
		c-3.4-1.4-7.1-1.8-11.2-1.1c-7.4,1.1-13.7,4.8-18.9,10.9c-3.4,4-6,8.4-7.9,13.1c-1.9,4.8-3.3,9.9-4.3,15.4
		c-1.6,9.9-0.1,19.1,4.7,27.7c0.2,0.4,0.4,0.8,0.6,1.2s0.4,0.8,0.6,1.2c0.6,1.1,0.8,1.8,0.8,2c-0.1,0.2-0.5,0.6-1.5,1.1
		c-0.2,0.3-0.5,0.5-0.9,0.6c-0.3,0.1-0.6,0.3-0.9,0.6c-1.2,1-1.5,2.1-1,3.5c0.3,1.7,1.3,2.3,3,2.1c0.5-0.1,0.9-0.3,1.3-0.4
		c0.4-0.1,0.8-0.3,1.3-0.4c2.7-0.8,5-0.1,6.9,2.3c0.6,0.7,1.2,1.3,2,2c0.8,0.6,1.5,1.3,2.3,2c2.5,2.2,5.1,4.4,7.6,6.5
		c2.5,2.1,4.9,4.4,7.4,6.7c3.7,3.3,6.7,7,9,11.1c1,1.8,1.7,3.7,2,5.7c0.3,2,0.3,4,0,5.9c-0.3,1.9-0.9,3.8-1.8,5.5
		c-0.9,1.7-2.1,3.2-3.6,4.4c-2.8,2.5-5.7,3.8-8.9,3.9c-2.7,0.1-5.1-0.2-7.5-1c-2.3-0.8-4.6-1.9-6.9-3.3c-2.1-1.1-4-3-5.7-5.8
		c-1.4-2.1-2.3-4.3-2.7-6.6c-0.4-2.3-0.5-4.8-0.4-7.4c0-1.9,0.3-3.6,0.8-5.2c0.5-1.5,1.5-2.8,2.9-3.9c1.6-1.5,2-3,1.2-4.5
		c-0.8-1.8-2.1-2.1-4-1c-2.2,1.2-3.9,3.2-5.2,5.8c-3.5,7.3-3.9,14.6-1.2,21.9c1.8,5.2,4.4,9.6,7.5,13.1c3.2,3.5,7.2,6,12.1,7.3
		c2,0.5,3.9,0.8,5.7,0.8c1.9,0,3.8-0.1,5.7-0.2c2.7-0.1,5.2-0.6,7.6-1.4c2.4-0.8,4.7-2.2,6.8-4.1c5.8-5,10.2-10.7,13.2-17.3
		c3-6.6,4.2-14.2,3.6-22.9l0.2-0.6c-0.6-8.5-3.1-15.7-7.6-21.5c-5.4-7-11.5-13.4-18.1-19c-2.3-1.9-4.7-3.9-7-5.8
		c-2.4-1.9-4.7-4-6.9-6.2c-2.1-2.1-4-4.3-5.6-6.7c-1.7-2.4-3-5.2-3.9-8.4c-0.9-3.6-0.8-7.3,0.5-11.1c1.3-3.9,3.3-6.7,6.1-8.7
		c2.7-1.8,5.6-3.1,8.9-3.9c1.8-0.4,3.7-0.5,5.6-0.4c1.8,0.1,3.6,0.8,5.2,1.9c2.4,1.5,4.5,3.4,6.1,5.8c1.6,2.3,2.3,5.4,2.1,9.1
		c-0.2,3.6,0.7,6.6,2.8,9.1c0.9,1.4,2,1.7,3.3,0.8c1.4-1,1.8-2.4,1.2-4.3c-0.1-0.4-0.4-1-0.9-1.9c-0.9-1.9-1.1-4.3-0.5-7
		C568.4,591.3,569.1,589.5,570,587.8z M527.6,618c3.1,3.9,6.5,7.5,10.2,10.8c2.3,2.2,4.7,4.3,7.1,6.2c2.4,1.9,4.8,4.1,7.1,6.4
		c0.6,0.7,1.2,1.3,1.7,1.9c0.6,0.6,1.1,1.2,1.6,1.9c-0.2,0.7-0.5,1.1-0.9,1.1c-0.3,0.1-0.7,0.2-1,0.3l0.2-0.2
		c-2.3,0.7-4.4,1.8-6.2,3.2c-1.8,1.4-3.3,3.5-4.6,6.1c-0.5,1.1-0.8,1.7-1,1.8c-0.2,0.1-0.8-0.2-1.6-0.9c-3-2.5-5.9-5.1-8.6-7.8
		c-2.7-2.8-5.2-5.8-7.6-9.1c-5.8-8.1-7.6-17.1-5.6-27.1c0.2-1.5,0.5-3.1,0.8-4.6c0.3-1.6,0.9-3.3,1.8-5.1
		C522.4,609,524.5,614.1,527.6,618z"/>
	<path class="st0" d="M538.1,644.8c0.8,0,1.5-0.4,2.1-1.1c0.6-0.8,0.9-1.7,0.9-2.8c0-1.1-0.4-2.1-1.1-3.1c-0.8-1-1.6-1.4-2.5-1.4
		l0.2,0.2c-0.8,0-1.5,0.4-2,1.1c-0.5,0.8-0.8,1.7-0.8,2.8c0,1.1,0.3,2.1,1,3C536.4,644.3,537.2,644.8,538.1,644.8z"/>
	<path class="st0" d="M675.9,626.8l0.2-0.2c-0.9-0.1-1.7,0.2-2.4,1c-0.7,0.8-1.1,1.8-1.2,2.9c-0.1,1.1,0.1,2,0.6,2.8
		c0.5,0.8,1.2,1.2,2.2,1.3c0.9,0.1,1.8-0.2,2.5-1.1c0.8-0.9,1.1-1.9,1.1-3c0-1.1-0.3-2-0.8-2.7C677.5,627.1,676.8,626.8,675.9,626.8
		z"/>
	<path class="st0" d="M709.6,667.1c1.6,0,2.6,0.1,2.9,0.4c0.3,0.3,0.6,1.4,1,3.3c1,5.1,2.1,10.2,3,15.2c1,5,1.9,10.1,2.9,15.2
		c0.2,1.5,0.3,2.5,0.2,2.9c-0.1,0.4-0.8,1-2.1,1.7c-1.2,0.6-2.3,1-3.5,1.4c-1.2,0.4-2.4,0.8-3.6,1c-2,0.3-2.8,1.4-2.6,3.3
		c0.2,1.8,1.3,2.7,3.1,2.7c0.6,0,1.4-0.1,2.6-0.4c0.9-0.3,1.9-0.6,2.8-0.9c0.9-0.3,1.8-0.7,2.8-1.1c2.4-1.2,4.9-1.2,7.3,0
		c1.3,0.7,2.6,1.1,4,1.3c1.4,0.2,2.8,0.4,4.2,0.5c1.4,0.3,2.4-0.3,3.1-1.9c0.4-0.9,0.4-1.8,0.1-2.8c-0.6-0.8-1.5-1.3-2.7-1.5
		c-0.8-0.1-1.6-0.2-2.3-0.3c-0.8-0.1-1.5-0.2-2.3-0.5c-2.2-0.4-3.5-1.9-4-4.5c-0.9-5.4-1.9-10.7-3-16.1c-1.1-5.4-2.2-10.7-3.2-16.1
		L703.3,583c-0.5-2.3-0.6-3.7-0.4-4.2c0.2-0.5,1.5-0.7,3.9-0.7c2.8,0,4.2-1.2,4.2-3.5c0-2.1-1.4-3.2-4.2-3.5
		c-1.6-0.1-3.2-0.1-4.8,0.2c-1.6,0.3-3.2,0.7-4.8,1.2c-2.2,0.7-4.4,1.1-6.5,1.2c-2.1,0.1-4.3-0.3-6.5-1.2c-0.6-0.3-1.2-0.4-1.8-0.5
		c-0.6-0.1-1.2-0.2-1.8-0.3c-1.5-0.3-3-0.4-4.4-0.5c-1.4-0.1-2.9,0-4.4,0.1c-1.6,0.3-2.4,1.2-2.4,2.9c0,1.8,0.8,2.9,2.3,3.3
		c0.5,0.1,0.9,0.2,1.4,0.2c0.5,0,1,0,1.6,0c1.7,0.1,2.7,0.4,3,0.7c0.2,0.3,0.1,1.5-0.5,3.4l-15.1,57.6c-0.2,0.7-0.4,1.3-0.6,2
		c-0.2,0.6-0.5,1.3-1.1,2c-0.2-0.3-0.4-0.5-0.4-0.8c-0.1-0.3-0.2-0.5-0.4-0.8l-1-1.2c-1.3-1.1-2.4-1.1-3.3,0c-1,1.1-1.2,2.5-0.5,4.1
		c0.1,0.3,0.2,0.5,0.3,0.6c0.1,0.1,0.2,0.3,0.3,0.6c0.9,1.9,1.6,3.9,2,6c0.4,2.1,0.3,4.3-0.3,6.6c-2.1,7.8-4.1,15.6-6.1,23.3
		c-2,7.7-4.1,15.5-6.2,23.3l-0.5,1.2c-0.3,1.4-1.2,2.1-2.4,2.1c-0.6,0-1.2,0-1.8,0c-0.6,0-1.2,0.1-1.8,0.2c-1.6,0.3-2.4,1.2-2.4,2.9
		c0,1.8,0.8,2.8,2.3,3.1c0.9,0.3,1.9,0.5,2.9,0.6c1,0.1,1.9,0.1,2.9,0c3.2-0.4,6.3-1.2,9.2-2.5c3.2-1.5,6.4-1.6,9.5-0.2
		c0.9,0.4,1.9,0.8,3,1c1,0.3,2,0.5,3,0.8c1.4,0.4,2.6,0.6,3.6,0.4c1.4-0.3,2.2-1.2,2.4-2.9c0.1-1.7-0.5-2.8-1.9-3.5
		c-0.3-0.3-0.7-0.4-1.1-0.5c-0.4-0.1-0.8-0.2-1.1-0.3c-0.9-0.3-1.4-0.5-1.6-0.7c-0.1-0.2-0.1-0.9,0.2-2c0.2-1.4,0.5-2.4,0.7-3.1
		l8.3-31c0.3-1.4,0.7-2.2,1-2.5c0.3-0.3,1.1-0.5,2.3-0.6c4.9-0.3,9.6-0.4,14.3-0.4S704.7,667.2,709.6,667.1z M678,645.8h-0.2
		c-0.1,0.4-0.2,0.9-0.3,1.3c-0.1,0.5-0.3,0.9-0.8,1.3c-0.8-0.7-1.5-1.5-2.1-2.4c-0.6-0.9-1.3-1.6-2.3-2.2c-0.9-0.5-1.9-0.8-2.9-0.7
		c-1,0.1-2,0.2-3,0.5c-0.2-1-0.3-1.8-0.2-2.4c0.1-0.6,0.3-1.3,0.5-2l10.9-41.5c0.7-2.8,1.3-5.4,1.9-8.1c0.6-2.6,1.2-5.3,1.7-8.1
		c0.3-1.5,0.7-2.4,1.1-2.7c0.4-0.3,1.2-0.2,2.5,0.2c2.8,0.8,5.4,1,7.8,0.4c0.9-0.3,1.5-0.3,1.6,0c0.2,0.3,0.2,1,0.1,2.1
		c-0.1,1.4-0.3,2.7-0.6,3.9c-0.3,1.2-0.6,2.5-1,3.7L678,645.8z M682.2,654.8c-0.2-0.3-0.1-1.1,0.3-2.4c0.7-2.8,1.4-5.4,2.1-7.9
		c0.7-2.5,1.4-5.1,2.1-7.7l10.9-39.6c0.1-0.4,0.2-0.9,0.3-1.3c0.1-0.5,0.4-0.9,1-1.3c0.5,2.3,0.9,4.6,1.3,6.8
		c0.4,2.2,0.8,4.4,1.3,6.6l8.3,43.4l0.5,1.9c0.2,1.1,0.2,1.8,0,2.1c-0.2,0.3-0.8,0.4-1.7,0.4v-0.2h-24.5
		C683,655.3,682.4,655.1,682.2,654.8z"/>
	<path class="st0" d="M737.5,708.6c0,0.1,0.1,0.2,0.1,0.3c0.1,0.1,0.2,0.2,0.3,0.3L737.5,708.6z"/>
	<path class="st0" d="M830.7,711.9c-0.3-1.4-1.2-2.2-2.4-2.5h-1c-1.4,0.1-2.3-0.7-2.6-2.5c-0.3-1.4-0.7-2.7-1-4
		c-0.3-1.3-0.5-2.7-0.6-4.2c-0.6-7-1.8-13.8-3.6-20.4c-1.3-4.1-2.9-8-4.8-11.6c-1.9-3.6-4.3-6.8-7-9.7c-0.8-0.8-1.2-1.4-1.2-1.7
		c0-0.3,0.4-0.8,1.2-1.7c14-15.1,19.1-33.9,15.3-56.2c-0.9-5-2.8-9.3-5.7-13c-2.7-3.6-5.7-6.3-9-8.3c-3.4-1.9-6.9-3.4-10.8-4.5
		c-2.2-0.7-4.4-1-6.5-0.8c-2.1,0.1-4.3,0.2-6.5,0.2c-1.5,0-3,0.1-4.4,0.4c-1.4,0.3-2.8,0.8-4.1,1.4c-3,1.5-6,2.2-8.9,2.2
		c-2.9-0.1-5.8-0.7-8.9-1.8c-1-0.4-2.1-0.8-3.1-1c-1-0.3-2.1-0.4-3.1-0.4c-2.8,0-4.2,1.1-4.2,3.3c0,1.7,1.2,2.7,3.5,3.1
		c1.4,0.1,2.1,1.1,2.1,2.9v6.8c0,3.6-0.1,7.2-0.3,10.7c-0.2,3.6-0.3,7.2-0.3,10.7c0,3.9,0,7.7-0.1,11.5c-0.1,3.8-0.1,7.6-0.1,11.5
		c0,0.7,0,1.4-0.1,2.2c-0.1,0.8-0.1,1.5-0.3,2.2c-0.2,1.1-0.8,1.4-1.6,1l-1-0.6c-1.9-0.5-3.1-0.1-3.8,1.2c-0.8,1.7-0.3,3,1.4,4.1
		c0.9,0.7,1.6,1.4,2.2,2.3c0.5,0.8,1,1.8,1.5,2.9c0.5,1.2,0.8,2.5,0.9,3.7c0.1,1.2,0.2,2.5,0.2,3.7l-0.5,39.6v9.9
		c0,1.8-0.6,2.8-1.9,2.9c-1.2,0.3-2,0.6-2.4,1c-0.8,0.7-1.2,1.5-1,2.5c0.1,1.2,0.8,2.1,1.9,2.5c1.2,0.4,2.4,0.4,3.6,0
		c0.7-0.3,1.4-0.5,2.1-0.8c0.7-0.3,1.4-0.5,2.1-0.8c2.5-1.1,5.1-1.8,7.6-2c2.5-0.2,5.1,0.2,7.7,1.3c1.2,0.6,2.3,0.9,3.5,1.1
		c1.2,0.2,2.4,0.5,3.6,0.7c1.2,0.3,2.2,0.2,3.1-0.2c1.4-0.7,2.1-1.8,2.1-3.3c0-1.8-0.9-2.9-2.6-3.3c-1.9-0.4-2.9-0.8-3.2-1.2
		c-0.3-0.4-0.4-1.7-0.4-3.9v-2.5c0.2-5.4,0.5-10.7,0.7-16.1c0.2-5.4,0.3-10.7,0.3-16.1c0-1.1,0.1-2.1,0.2-3.1c0.1-1,0.2-2,0.3-3.1
		c0.2-1.8,1-2.7,2.4-2.7c2-0.1,3.9,0,5.9,0.3c2,0.3,3.8,1,5.6,2c1.7,1,3.3,2.2,4.8,3.8c1.4,1.6,2.7,3.5,3.7,5.9
		c0.6,1.5,1.1,3,1.6,4.5c0.5,1.5,0.9,3,1.4,4.5c1,3.9,1.8,7.8,2.3,11.8c0.5,4,1,8,1.6,12c0.1,1.5-0.4,2.7-1.6,3.5l-4.7,3.1
		c-1.4,1-1.9,2.1-1.6,3.5c0.3,1.9,1.4,2.8,3.1,2.5c0.6-0.1,1.4-0.5,2.6-1c2-0.8,4-1.3,6-1.4c2-0.1,4,0.3,6,1.2
		c0.9,0.4,1.9,0.7,3,0.9c1,0.2,2,0.4,3,0.7c2.2,0.5,4,0.3,5.6-0.8c1.4-1,1.9-2.2,1.6-3.7V711.9z M773.9,587
		c-0.1,1.2-0.1,2.3-0.1,3.4c0.1,6.7,0.1,13.5-0.2,20.1c-0.2,6.7-0.5,13.4-0.7,20.1c-0.1,2.2-0.2,4.4-0.2,6.5c0,2.1-0.1,4.3-0.2,6.5
		c0,1.8-0.5,2.4-1.5,1.9c-1.9-1.2-3.9-1.8-5.7-1.5c-1.9,0.2-3.8,0.9-5.7,2h-0.7c-0.3-1.7-0.4-3.4-0.2-5.2c0.2-3.6,0.3-7.2,0.3-10.8
		c0-3.6,0.1-7.3,0.2-10.8l0.5-35.3c0-1.7,0.1-2.6,0.3-2.9c0.2-0.3,1-0.3,2.4-0.2c1.6,0.1,3.1,0.3,4.6,0.5c1.5,0.2,3,0.1,4.6-0.3
		c0.9-0.3,1.5-0.2,1.8,0.2c0.3,0.4,0.4,1.2,0.4,2.5C774,584.7,773.9,585.9,773.9,587z M796.3,624.6c-1.4,5-3.7,9.7-6.7,14.1v-0.4
		c-1.2,1.7-2.5,3-4,4s-3.1,1.9-4.9,2.6c-0.9,0.3-1.5,0.3-1.7,0.1c-0.2-0.2-0.3-0.9-0.3-2c0-1.7,0-3.3,0-5c0-1.7,0.1-3.3,0.2-5
		c0.7-16.5,1-33,1-49.6c0-2.3,0.3-3.7,0.8-4.2c0.5-0.5,1.8-0.4,3.7,0.3c2.7,0.8,4.9,2.1,6.9,3.9c1.9,1.8,3.4,4.3,4.4,7.4
		c0.9,2.8,1.6,5.6,2,8.5c0.4,2.9,0.7,5.9,0.8,8.9C798.4,614.2,797.7,619.6,796.3,624.6z M805.9,645.4c-0.7,0.8-1.4,0.9-2.3,0.2v-0.2
		c-0.6-0.7-1.4-1.4-2.6-2.1c-0.9-0.7-1.4-1.2-1.6-1.4c-0.1-0.3,0.1-1,0.5-2.3c1-2.8,1.9-5.5,2.5-8.3c0.6-2.8,1.2-5.6,1.6-8.5
		c0.6-4.5,0.8-9.1,0.6-13.5c-0.2-4.5-0.7-8.9-1.5-13.3c-0.7-4-1.7-7.3-3-9.8c-1.3-2.5-3.3-5.4-6.1-8.6c3.5,1,6.7,2.2,9.7,3.7
		c3,1.5,5.7,3.7,8,6.6c2.3,2.8,3.8,5.8,4.5,9.1c3.6,17.2,0.6,32.7-9,46.5L805.9,645.4z"/>
	<path class="st0" d="M763.2,628l0.2,0.2c-0.9,0.7-1.5,1.7-1.6,3.1c-0.2,1.4,0,2.6,0.6,3.7c0.3,0.7,0.8,1.2,1.4,1.7
		c1.2,1.2,2.3,1.4,3.5,0.6c1.3-0.7,1.9-2,1.9-3.9c0-1.4-0.3-2.6-1-3.7C766.4,627.3,764.8,626.8,763.2,628z"/>
	<path class="st0" d="M860.7,628v-0.2c-0.8,0-1.6,0.4-2.3,1.2c-0.7,0.8-1,1.7-1,2.7c0,0.8,0.3,1.6,0.9,2.3c0.6,0.7,1.2,1,1.9,1
		c0.8,0,1.5-0.4,2.1-1.1c0.6-0.8,0.9-1.7,0.9-2.8C863.2,629.1,862.4,628,860.7,628z"/>
	<path class="st0" d="M913.7,590.7c-1.7-7.2-5.4-12-10.9-14.7c-3.4-1.5-6.7-2.4-10.1-2.8c-3.4-0.3-6.8-0.2-10.2,0.3
		c-2.5,0.4-5.1,0.9-7.6,1.3c-2.5,0.5-5,0.9-7.6,1.3c-3.9,0.7-7.8,1.1-11.7,1.3c-3.9,0.2-7.7-0.7-11.5-2.6c-1.4-0.7-2.5-0.2-3.3,1.4
		c-0.8,1.7-0.5,3,1,4.1c0.7,0.7,1.4,1.2,2.3,1.5c0.8,0.3,1.7,0.7,2.6,0.9c1.4,0.6,2.2,1,2.4,1.3c0.2,0.3,0.3,1.3,0.3,2.8
		c0,2.3,0,4.7-0.1,7.1c-0.1,2.4-0.1,4.8-0.1,7.1c-0.1,4-0.2,7.9-0.2,11.8c0,3.9-0.1,7.8-0.2,11.8c0,2.5-0.1,5-0.2,7.4
		c-0.1,2.5-0.2,5-0.3,7.6c-0.6,0-1-0.1-1.3-0.3c-0.3-0.2-0.5-0.4-0.8-0.7c-2.2-1.2-3.7-1-4.5,0.6c-0.8,1.5-0.3,3.1,1.6,4.8
		c0.5,0.3,0.9,0.6,1.3,0.9c0.4,0.3,0.7,0.8,1,1.3c0.9,1.8,1.7,3.6,2.3,5.5c0.6,1.9,0.8,3.9,0.7,6.1c-0.2,4.3-0.4,8.5-0.4,12.7
		c-0.1,4.2-0.1,8.4-0.3,12.7c0,2.8,0,5.4-0.1,8.1c-0.1,2.6-0.1,5.3-0.1,8.1c0,2.3-0.3,4.2-1,5.7c-0.6,1.4-1.9,2.7-3.9,3.6
		c-1.2,0.6-1.9,1.3-2.2,2.2c-0.3,0.9-0.2,1.8,0.3,2.6c0.8,1.7,2.3,1.8,4.5,0.4c3-1.9,6-3.1,9.1-3.5c3.1-0.4,6.2-0.3,9.5,0.2
		c1.7,0.3,3.4,0.7,5.1,1.1c1.7,0.5,3.4,0.9,5.1,1.3c8.6,2.3,17,1.9,25.3-1.2c1.6-0.7,3.1-1.5,4.4-2.5c1.3-1,2.6-2.2,3.7-3.7
		c0.3-0.5,0.7-1.1,1-1.7c0.3-0.5,0.5-1.2,0.8-1.9c0.3-1.8-0.1-3.1-1.2-3.9c-1.2-0.8-2.3-0.7-3.3,0.4l-1,1.2c-0.8,1.5-1.8,2.7-3,3.4
		c-1.2,0.8-2.4,1.4-3.6,2c-2.2,0.8-4.6,1.4-7.1,1.9c-2.7,0.3-5.3,0.3-7.8,0.2c-2.5-0.1-5.1-0.5-7.8-1.2c-0.7-0.3-1.2-0.6-1.6-0.9
		c-0.3-0.3-0.5-1.1-0.3-2.2c0.2-5,0.3-9.9,0.3-15c-0.1-5,0-10.1,0.1-15.2v-21.7c0-0.7,0.1-1.4,0.2-2.1c0.1-0.7,0.5-1.3,1-1.9
		c2-1.8,4-3.1,6.2-3.8c2.2-0.8,4.6-0.7,7.1,0.1c3.4,1.1,4.7,3.7,4.2,7.6c-0.1,0.8-0.2,1.7-0.3,2.5c-0.1,0.8-0.2,1.7-0.2,2.5
		c0,1.2,0.2,2.3,0.7,3.3c0.8,1.4,1.8,2,3,1.9c1.4-0.3,2.2-1.2,2.4-2.9v-1.2c-0.1-1.2-0.1-2.4,0.2-3.4c0.2-1,0.6-2.1,1-3.2
		c0.6-1.5,1.1-3,1.6-4.4c0.5-1.4,0.9-2.9,1.1-4.4c0.6-3.2,0.3-6.1-0.7-8.9c-0.7-1.7-1.7-2.3-3.1-1.9c-1.3,0.4-1.9,1.6-1.9,3.5
		c0,0.4,0,0.8,0.1,1.2c0.1,0.4,0.1,0.8,0.1,1.2c0.1,0.7,0.1,1.4,0.1,2.1c-0.1,0.7-0.4,1.4-1,2.1c-1.7-2.1-3.9-3.4-6.6-4.1
		c-2.2-0.5-4.3-0.6-6.4-0.2c-2.1,0.4-4.1,1.1-6.1,2.1c-0.9,0.6-1.5,0.7-1.7,0.5s-0.4-0.9-0.5-2.2v-2.5c0.1-8.5,0.2-17,0.2-25.4
		c0-8.4,0.1-16.9,0.3-25.4c0.1-1.2,0.3-2,0.4-2.3c0.2-0.3,0.8-0.5,1.8-0.8c1.3-0.3,2.6-0.5,3.9-0.6c1.3-0.1,2.6-0.3,3.9-0.4
		c2.7-0.3,5.3-0.3,8-0.1s5.3,0.9,8,2c3.9,1.7,6.5,4.9,7.8,9.7c0.2,0.7,0.4,1.3,0.5,1.9c0.1,0.6,0.3,1.1,0.7,1.7
		c0.7,1.1,1.6,1.4,2.8,1c1.3-0.4,2-1.3,2.1-2.7c0.1-1.1,0-2.3-0.3-3.5V590.7z M867.2,634.4c0,1.2,0,2.5,0,3.7s-0.1,2.5-0.2,3.7
		c-0.1,1.2-0.3,2-0.5,2.2c-0.2,0.2-0.8,0.1-1.7-0.3c-1.5-0.7-2.9-0.9-4.2-0.6c-1.3,0.3-2.6,0.8-3.9,1.4c-1.1,0.5-1.8,0.7-2.1,0.5
		c-0.2-0.2-0.3-1.1-0.3-2.6v-5c0.3-6.6,0.5-13.1,0.4-19.6c-0.1-6.5,0-13,0.3-19.6c0-1.9,0-3.9,0.1-5.9c0.1-2,0.1-4,0.1-5.9
		c0-1.4,0.1-2.2,0.4-2.6c0.3-0.3,1-0.5,2.1-0.5c1.3,0,2.5-0.1,3.7-0.3s2.4-0.4,3.7-0.5c1,0,1.7,0.2,2,0.5c0.3,0.3,0.4,1.1,0.3,2.2
		l0.3,0.2c-0.3,8.3-0.5,16.4-0.4,24.5C867.3,618,867.3,626.2,867.2,634.4z"/>
	<path class="st0" d="M528.1,177.9c-4.9,6.7-9.4,12.8-13.8,18.8c0.4,0.4,0.7,0.9,1.1,1.3c7.5-2,13.6-7.3,21.2-9.9
		c0.4,2.1,0.8,3.9,1,5.8c1.4,16,2.8,32,4.2,48c1.1,12.2,2.2,24.5,3.4,36.7c0.1,1.2,0.8,2.4,1.3,3.6c0.5,0,1-0.1,1.5-0.1
		c2.3-10.2,2.1-20.8,3.3-31.1c1.2-10.3,1.9-20.8,2.8-31.1c0.9-10.5,1.9-21,2.9-32.3c8.6,4.6,16.3,8.7,24.1,12.8
		c0.4-0.4,0.8-0.8,1.1-1.2c-4.2-7.3-11.1-12.8-15.8-20.8c21.2-2.6,41.7-5.2,62.3-7.8c0-0.6,0-1.1,0-1.7c-20.1-2.3-40.2-4.7-61.3-7.1
		c3.9-4.7,7.1-8.5,10.1-12.4c2.9-3.8,6.8-7,8.2-12.1c-9.8,4.8-18.6,11.2-28.4,16.9c-0.5-2.3-1-4.1-1.3-5.9c-1-7.6-1.9-15.3-2.9-22.9
		c-1.4-11-2.7-21.9-4.2-32.9c-0.2-1.8,0-4.1-2.9-5.9c-3.8,22.6-5.3,44.9-9,67.5c-4.1-2.5-7.3-4.4-10.5-6.3c-3.2-2-6.3-4.1-9.6-5.9
		c-3.1-1.6-5.6-4.8-10.8-4.7c7,8.4,13.3,16,20.5,24.6c-11.2,1.3-21.2,2.4-31.2,3.7c-9.8,1.3-19.8,1.6-29.4,3.9c0,0.5,0,1,0.1,1.5
		C486.3,173,506.7,175.4,528.1,177.9z"/>
	<path class="st0" d="M208.5,528.1c0.3,0,0.6,0,0.9,0c1.9-3.8,1.9-8.2,3.5-12.2c1,0.6,1.9,1.1,2.7,1.7c7,5.2,14,10.3,21,15.5
		c5.4,3.9,10.8,7.9,16.2,11.8c0.5,0.4,1.3,0.5,1.9,0.8c0.2-0.2,0.3-0.4,0.5-0.6c-3.3-4.6-7.7-8.3-11.5-12.5
		c-3.8-4.2-7.8-8.2-11.7-12.3c-3.9-4.1-7.9-8.3-12.1-12.7c4.9-1.9,9.4-3.5,13.8-5.2c0-0.3-0.1-0.6-0.1-0.9c-4.5-0.9-9.2,0-14.1-1
		c6.5-9.6,12.8-18.9,19.2-28.1c-0.2-0.2-0.4-0.4-0.7-0.6c-8.2,7.3-16.3,14.7-24.9,22.4c-0.5-3.3-0.9-5.9-1.4-8.6
		c-0.5-2.6-0.4-5.3-2-7.7c-1.6,5.7-2.1,11.6-3.3,17.6c-1.1-0.6-2-1-2.8-1.6c-3.5-2.3-6.9-4.7-10.4-7.1c-5-3.4-9.9-6.8-14.9-10.1
		c-0.8-0.6-1.7-1.5-3.5-0.9c7.8,9.7,16.4,18.2,24.2,27.9c-2.5,0.8-4.4,1.4-6.3,2c-1.9,0.6-3.9,1.1-5.8,1.8c-1.8,0.7-3.9,0.6-5.8,2.7
		c5.9,0.2,11.3,0.3,17.4,0.5c-3.5,5-6.6,9.5-9.7,14c-3,4.5-6.4,8.6-9,13.4c0.2,0.2,0.4,0.3,0.6,0.5c8.3-7.4,16.6-14.9,25.2-22.7
		C206.8,520.2,207.7,524.2,208.5,528.1z"/>
	<path class="st0" d="M574.8,918.1c2.2-2.8,5-5.1,6-9c-7.3,3.6-13.8,8.3-21,12.5c-0.4-1.7-0.8-3-0.9-4.3c-0.7-5.6-1.4-11.3-2.1-17
		c-1-8.1-2-16.2-3.1-24.3c-0.2-1.3,0-3-2.2-4.4c-2.8,16.7-3.9,33.2-6.7,49.8c-3-1.8-5.4-3.2-7.7-4.7c-2.4-1.4-4.6-3-7.1-4.3
		c-2.3-1.2-4.1-3.5-8-3.5c5.2,6.2,9.8,11.8,15.1,18.2c-8.2,1-15.7,1.8-23,2.8c-7.2,1-14.6,1.2-21.7,2.9c0,0.4,0,0.7,0,1.1
		c15.1,1.8,30.1,3.5,45.9,5.4c-3.6,5-6.9,9.4-10.2,13.9c0.3,0.3,0.5,0.6,0.8,1c5.5-1.5,10-5.4,15.6-7.3c0.3,1.6,0.6,2.9,0.7,4.3
		c1.1,11.8,2,23.6,3.1,35.4c0.8,9,1.6,18.1,2.5,27.1c0.1,0.9,0.6,1.8,0.9,2.6c0.4,0,0.7-0.1,1.1-0.1c1.7-7.5,1.6-15.3,2.5-23
		c0.9-7.6,1.4-15.3,2.1-23c0.7-7.8,1.4-15.5,2.1-23.9c6.3,3.4,12.1,6.4,17.8,9.5c0.3-0.3,0.6-0.6,0.8-0.9
		c-3.1-5.4-8.2-9.4-11.7-15.4c15.7-2,30.8-3.8,46-5.7c0-0.4,0-0.8,0-1.2c-14.8-1.7-29.7-3.5-45.3-5.3
		C570.2,923.8,572.5,921,574.8,918.1z"/>
	<path class="st0" d="M610.4,534.4c-8.4,0-8.4,13,0,13C618.8,547.4,618.8,534.4,610.4,534.4z"/>
	<path class="st0" d="M481.8,532.1c11.2,0,11.2-17.4,0-17.4C470.6,514.7,470.6,532.1,481.8,532.1z"/>
	<path class="st0" d="M155.1,638.6c-8.4,0-8.4,13,0,13C163.5,651.7,163.5,638.6,155.1,638.6z"/>
	<path class="st0" d="M113,520.7c-17.1,0-17.1,26.5,0,26.5C130.1,547.2,130.1,520.7,113,520.7z"/>
	<path class="st0" d="M165.6,419.7c-8.4,0-8.4,13,0,13C173.9,432.7,174,419.7,165.6,419.7z"/>
	<path class="st0" d="M898.9,538.7c8.4,0,8.4-13,0-13C890.5,525.7,890.5,538.7,898.9,538.7z"/>
	<path class="st0" d="M968.4,472.7c8.4,0,8.4-13,0-13C960,459.6,960,472.7,968.4,472.7z"/>
	<path class="st0" d="M968.4,541.2c-15.2,0-15.2,23.6,0,23.6C983.6,564.8,983.6,541.2,968.4,541.2z"/>
	<path class="st0" d="M944.1,621.2c-8.4,0-8.4,13,0,13C952.5,634.3,952.5,621.2,944.1,621.2z"/>
	<path class="st0" d="M631.3,865c-16.8,0-16.8,26.1,0,26.1C648.1,891,648.1,865,631.3,865z"/>
	<path class="st0" d="M463.5,872.1c-16.3,0-16.3,25.3,0,25.3C479.8,897.5,479.8,872.1,463.5,872.1z"/>
	<path class="st0" d="M511.4,1005.3c-8.4,0-8.4,13,0,13C519.8,1018.3,519.8,1005.3,511.4,1005.3z"/>
	<path class="st0" d="M598.3,1012.2c-8.4,0-8.4,13,0,13C606.7,1025.3,606.7,1012.2,598.3,1012.2z"/>
	<path class="st0" d="M751.2,255.4c8.4,0,8.4-13,0-13C742.8,242.4,742.8,255.4,751.2,255.4z"/>
	<path class="st0" d="M667.8,198.1c8.4,0,8.4-13,0-13C659.4,185.1,659.4,198.1,667.8,198.1z"/>
	<path class="st0" d="M631.3,265.9c8.4,0,8.4-13,0-13C622.9,252.8,622.9,265.9,631.3,265.9z"/>
	<path class="st0" d="M497.5,280.6c-8.4,0-8.4,13,0,13C505.9,293.7,505.9,280.6,497.5,280.6z"/>
	<path class="st0" d="M434.4,237.7c15.7,0,15.8-24.4,0-24.4C418.7,213.2,418.7,237.7,434.4,237.7z"/>
	<path class="st0" d="M353.2,245c8.4,0,8.4-13,0-13C344.9,232,344.8,245,353.2,245z"/>
	<path class="st0" d="M419.3,311c8.4,0,8.4-13,0-13C410.9,298,410.9,311,419.3,311z"/>
	<path class="st0" d="M511.4,67.8c8.4,0,8.4-13,0-13C503,54.7,503,67.8,511.4,67.8z"/>
</g>
</svg>
