<?xml version="1.0" encoding="utf-8"?>
<!-- Generator: Adobe Illustrator 22.0.0, SVG Export Plug-In . SVG Version: 6.00 Build 0)  -->
<svg version="1.1" id="Layer_1" xmlns="http://www.w3.org/2000/svg" xmlns:xlink="http://www.w3.org/1999/xlink" x="0px" y="0px"
	 viewBox="0 0 1080 1080" style="enable-background:new 0 0 1080 1080;" xml:space="preserve">
<style type="text/css">
	.st0{fill:#71020C;}
</style>
<g>
	<path class="st0" d="M489.2,949.3l-0.2,0.1c-1.2-0.2-2,0.4-2.6,1.7c-0.2,0.7-0.2,1.3,0.1,2c0.3,0.7,0.8,1.3,1.4,1.7
		c0.9,0.6,1.8,0.6,2.6,0.1c0.9-0.4,1.4-1.2,1.4-2.2c0-0.7-0.3-1.5-0.8-2.2C490.5,949.9,489.9,949.5,489.2,949.3z"/>
	<path class="st0" d="M502.5,915.7l0.4-0.2c-0.7-0.2-1.4-0.3-2.2-0.1c-0.7,0.2-1.5,0.3-2.2,0.4c-0.7,0.1-1.4,0.4-2.1,0.7
		c-1.9,0.9-3.9,1.3-5.8,1.3c-2,0-4-0.4-6-1c-0.7-0.2-1.3-0.3-2-0.5c-0.7-0.2-1.4-0.3-2-0.4c-1-0.2-1.8-0.1-2.6,0.2
		c-0.7,0.4-1.1,1-1.1,1.8c0,0.8,0.4,1.4,1.2,1.6c0.2,0.1,0.6,0.1,1.1,0.1c0.9,0.1,1.4,0.6,1.4,1.5v1.5l-0.4,22.2v7.8
		c0,0.5,0,1-0.1,1.5c0,0.5-0.2,1-0.4,1.5c-0.2-0.1-0.3-0.1-0.4-0.1c-0.1,0-0.2,0-0.4-0.1l-1.1-0.4c-1.2-0.2-2.1,0.1-2.5,1
		c-0.4,1.1-0.1,1.8,0.9,2.2c1.1,0.5,1.8,1.2,2.2,2c0.4,0.9,0.8,1.8,1.1,2.8c0.2,0.4,0.2,0.8,0.2,1.1c0,0.3,0,0.7,0,1.1l-0.4,19.9
		c-0.1,1.4-0.4,2.7-1,3.9c-0.6,1.2-1.4,2.3-2.4,3.3c-0.6,0.7-1.4,1.2-2.5,1.5c-3.6,0.9-6.4-0.2-8.4-3.3c-0.3-0.4-0.6-0.9-0.8-1.4
		c-0.2-0.5-0.4-1-0.6-1.5c-0.4-1.2-0.7-2.3-0.9-3.4c-0.2-1.2-0.2-2.3-0.2-3.4s-0.5-2.2-1.4-3.1c-0.4-0.4-0.9-0.6-1.4-0.5
		c-0.5,0.1-1,0.4-1.3,1c-0.2,0.4-0.4,0.9-0.4,1.4c-0.2,2.1-0.1,4.1,0.1,6.1c0.2,2,0.8,4,1.6,5.9c1.6,3.9,4.3,6.7,8.1,8.6
		c2,0.9,4,1.4,6,1.6c2.1,0.2,4.1,0.2,6.3,0c1.8-0.2,3.4-0.8,4.7-1.8c0.9-0.7,1.8-1.4,2.7-2.1c0.9-0.7,1.7-1.6,2.4-2.5
		c0.8-1,1.7-1.9,2.6-2.8c0.9-0.9,1.8-1.7,2.7-2.6c0.7-0.7,1.3-1.2,2-1.7c0.7-0.5,1.4-0.9,2.3-1.1c1.1-0.2,1.8-0.9,1.8-2
		c0.2-0.9-0.4-1.6-1.7-2.2c-0.3-0.2-0.6-0.2-0.7-0.2c-0.8-0.1-1.2-0.6-1.2-1.6c0.1-4.4,0.2-8.9,0.4-13.3c0.2-4.4,0.2-8.9,0.2-13.3
		v-1.5c0.2-3.9,0.3-7.7,0.4-11.5c0.1-3.8,0.2-7.6,0.2-11.4c0-1.3,0-2.6,0.1-3.9c0-1.3,0.1-2.6,0.1-3.9c0-0.9,0.1-1.5,0.3-1.7
		c0.2-0.2,0.8-0.4,1.7-0.5c0.5,0,0.9,0,1.1-0.1c1.2-0.2,1.8-0.9,1.8-2C504.2,916.8,503.7,916.1,502.5,915.7z M495,923.4
		c-0.1,2.7-0.1,5.4-0.1,8.1c0,2.7-0.1,5.4-0.3,8.1l-0.1,0.1v1.5l-0.4,17.4v1.1c0,0.9-0.4,1.2-1.1,0.7c-1.5-0.8-2.9-1.1-4.4-1
		c-1.4,0.2-2.9,0.7-4.4,1.5c-0.2-0.7-0.2-1.2-0.2-1.7c0-0.5,0-1,0.1-1.5c0.2-3.7,0.3-7.4,0.2-11.1c-0.1-3.7,0-7.4,0.1-11.1
		c0.1-2.1,0.1-4.2,0.2-6.3c0-2.1,0.1-4.1,0.1-6.3c0-0.8,0.1-1.3,0.2-1.4c0.2-0.1,0.7-0.1,1.5-0.1c1.2,0.2,2.3,0.3,3.5,0.4
		c1.2,0.1,2.4,0.1,3.6-0.2c0.9-0.2,1.4,0.2,1.4,1.2V923.4z"/>
	<path class="st0" d="M522.7,951.3v0.2c-1.6,0-2.5,0.6-2.5,1.8c0,0.7,0.3,1.3,0.9,1.8c0.6,0.5,1.2,0.8,2,0.8c0.7,0,1.2-0.2,1.8-0.7
		c0.5-0.5,0.8-1,0.8-1.5c-0.1-0.7-0.4-1.2-1-1.7C524,951.6,523.4,951.3,522.7,951.3z"/>
	<path class="st0" d="M568.3,933.9l0.4-0.5c-1.4-2.9-3.1-5.5-5-7.9c-2-2.4-4.4-4.5-7.3-6.1c-6.3-3.9-12.9-4.4-19.8-1.7
		c-2.5,1-4.8,2.3-6.9,3.9c-2.1,1.6-3.9,3.5-5.5,5.6c-3.1,3.9-5.5,8.1-7.2,12.5c-1.7,4.4-2.9,9-3.5,14c-0.2,0.8-0.3,1.3-0.4,1.4
		c-0.1,0.1-0.6,0.1-1.3-0.1c-1.3-0.2-2.1,0-2.5,0.9c-0.4,0.8-0.2,1.6,0.6,2.3c1.2,0.9,1.9,1.9,2.3,3.1c0.4,1.2,0.6,2.4,0.7,3.7
		c0.2,2.8,0.5,5.5,1,8.3c0.5,2.7,1.3,5.4,2.3,8c1.2,3.1,2.6,6,4.2,8.7c1.7,2.7,3.7,5.1,6.1,7.3c3.9,3.6,8.4,5.6,13.5,6.1
		c5,0.5,9.8-0.8,14.3-3.6c2.4-1.6,4.5-3.3,6.4-5.4c1.9-2,3.6-4.2,5-6.6c2.8-4.6,4.8-9.3,6-14.2c1.2-4.9,1.8-9.8,1.9-14.7
		c0-4.6-0.4-8.9-1.2-13C571.5,941.8,570.2,937.8,568.3,933.9z M528.4,951.3c-0.3,2.5-0.4,4.9-0.3,7.4l-0.1,0.1v1.1
		c0,0.7-0.3,0.9-1,0.6c-1.5-0.7-3-1-4.4-0.9c-1.5,0-3,0.4-4.4,0.9c-0.6,0.2-0.9,0.1-1-0.1c-0.1-0.2-0.2-0.6-0.2-1
		c0-1.4,0.1-2.8,0.2-4.1c0.2-1.3,0.4-2.7,0.6-4.1c0.7-3.5,1.6-6.9,2.8-10.2c1.2-3.3,2.9-6.4,5-9.4c1.7-2.4,3.7-4.5,5.9-6.3
		c2.2-1.8,4.8-3.2,7.8-4.1c0.2-0.1,0.4-0.1,0.7-0.1l0.4,0.4c-0.4,0.5-0.8,1-1.3,1.5c-0.5,0.5-0.9,1-1.3,1.6c-2.1,2.9-3.8,6-5,9.2
		c-1.2,3.3-2.2,6.6-3,10.1C529.2,946.4,528.7,948.8,528.4,951.3z M565.6,979.8l-0.4-0.1c-2,4.8-4.8,9.2-8.5,13.1
		c-1.6,1.6-3.2,2.6-5,2.8c-1.8,0.2-3.6,0-5.5-0.7c-1.9-0.7-3.6-1.6-5-3c-1.4-1.3-2.7-2.8-3.8-4.6c-1.2-2.1-2.2-4.2-2.9-6.3
		c-0.7-2.2-1.2-4.5-1.5-6.8c-0.2-1.9-0.4-3.9-0.4-5.9s0-4.5,0-7.3c-0.2-3.5,0.1-7.3,0.7-11.4c0.7-4.1,1.7-8.1,3.2-12.3
		c0.7-2.1,1.6-4.2,2.6-6.1c1-1.9,2.2-3.8,3.6-5.5c0.7-0.9,1.4-1.7,2.2-2.3c0.8-0.6,1.8-1.1,3-1.5c1.1-0.3,2.1-0.3,3.2,0
		c2.6,1.1,4.9,2.5,6.8,4.2c1.9,1.8,3.6,3.8,5,6.1c1.7,2.7,3.1,5.6,4.1,8.6c1,3,1.7,6.1,2.1,9.2C570.6,960.4,569.4,970.3,565.6,979.8
		z"/>
	<path class="st0" d="M640.3,916.6L640,916c-0.6-0.2-1.2-0.3-1.8-0.1c-0.7,0.2-1.3,0.4-1.9,0.6c-0.6,0.2-1.3,0.4-1.9,0.7
		c-2.2,0.9-4.3,0.8-6.2-0.2c-0.8-0.5-1.8-0.9-2.8-1.1c-0.9-0.2-1.6-0.1-2.2,0.2c-0.7,0.4-1,0.9-1,1.6c0,0.9,0.4,1.5,1.2,1.7
		c0.2,0.1,0.3,0.1,0.6,0.1c0.2,0,0.4,0,0.6,0.1c0.6,0.2,1.1,0.4,1.7,0.6c0.5,0.2,1,0.4,1.5,0.7c0.6,0.4,0.7,0.9,0.4,1.5l-0.4,0.7
		c-2.3,3.9-4.6,7.8-6.8,11.6c-2.3,3.8-4.6,7.7-7,11.6c-0.2,0.2-0.3,0.5-0.4,0.7c-0.1,0.2-0.3,0.4-0.7,0.5c-0.3-0.2-0.6-0.5-0.7-0.9
		c-0.1-0.3-0.3-0.7-0.4-1c-1.6-3.4-3.1-6.7-4.6-10s-3-6.6-4.4-10c-0.4-0.8-0.8-1.6-1.1-2.4c-0.3-0.8-0.7-1.6-1-2.4
		c-0.3-0.8,0-1.2,0.9-1.2c0.2,0,0.3,0,0.4,0.1c0.1,0,0.2,0.1,0.4,0.1c1.6,0.2,2.5-0.4,2.7-1.6c0.2-1.1-0.4-2-1.7-2.5
		c-0.9-0.3-2-0.4-3.3-0.2c-1.2,0.2-2.3,0.5-3.3,0.9c-1.1,0.5-2.1,1-3.1,1.5c-2.2,1.2-4.4,1.3-6.6,0.1c-0.6-0.2-1.1-0.5-1.6-0.7
		c-0.5-0.2-1-0.5-1.5-0.7c-1.1-0.6-2.1-0.9-3-1c-1.5-0.2-2.3,0.4-2.6,1.6c-0.3,1.3,0.3,2.1,1.8,2.3c0.9,0.2,1.6,0.5,2,1
		c0.5,0.5,0.9,1.2,1.3,2l11.8,25.9c0.4,0.9,0.8,1.8,1.2,2.6c0.4,0.9,0.8,1.8,1.2,2.8c-0.4,0.1-0.7,0.1-0.9,0.1c-0.2,0-0.4,0-0.6,0.1
		c-1.2,0.2-1.8,0.9-1.8,1.8c-0.1,0.5,0,0.9,0.3,1.2c0.3,0.3,0.6,0.6,1,0.8c4.4,2.3,6.6,5.8,6.6,10.6c0,4.4,0,8.7-0.1,12.9
		c-0.1,4.3-0.1,8.6-0.1,12.9c0,1.1-0.1,2-0.4,2.7c-0.3,0.7-1,1.2-2.3,1.4c-0.2,0-0.3,0-0.4,0.1s-0.2,0.2-0.4,0.2
		c-0.6,0.4-0.8,0.9-0.7,1.5c0.1,0.6,0.5,1.1,1.1,1.4c0.6,0.2,1.2,0.3,1.8,0.1c0.7-0.2,1.3-0.4,1.8-0.6c0.5-0.2,1.1-0.5,1.7-0.7
		c1.6-0.7,3.3-1.2,4.9-1.3c1.6-0.1,3.2,0.3,4.9,1.2c0.7,0.3,1.3,0.6,2,0.8c0.7,0.2,1.3,0.4,2,0.7c0.8,0.2,1.6,0.3,2.5,0.2
		c1.1-0.2,1.6-0.9,1.7-1.8c0.1-0.9-0.3-1.6-1.2-2l-1.1-0.4c-0.9-0.2-1.4-0.5-1.6-0.7c-0.2-0.2-0.2-0.8-0.2-1.8v-1.1l0.4-33.6V950
		c0-1.3,0.3-2.4,0.9-3.3c2.2-3.8,4.4-7.6,6.6-11.3c2.2-3.8,4.4-7.6,6.6-11.5c0.5-0.8,1.2-1.4,2.1-1.6c0.9-0.2,1.8-0.5,2.7-0.9
		c0.9-0.3,1.8-0.6,2.8-0.7s1.6-0.8,1.7-1.8C641.9,917.7,641.4,917,640.3,916.6z M611.2,961.2c-1.2,1.5-2.5,2-4.2,1.5
		c-1.3-0.4-2.1-1.2-2.5-2.3c-0.8-2.5-1.8-4.9-2.9-7.2c-1.1-2.3-2.2-4.7-3.3-7.1c-1.5-3.4-3-6.8-4.5-10.1s-3.1-6.6-4.6-10
		c-0.2-0.2-0.3-0.5-0.4-0.8c-0.1-0.3-0.1-0.7,0-1.2c2.5,0.2,4.8-0.2,6.8-1.2c0.4-0.2,0.7-0.1,0.8,0.1c0.1,0.2,0.3,0.5,0.4,0.9
		c0.7,1.2,1.3,2.5,1.8,3.7c0.6,1.2,1.1,2.5,1.7,3.7c1.5,3.4,3,6.7,4.4,10c1.5,3.3,3,6.6,4.6,10c0.3,0.7,0.7,1.3,1,2
		c0.4,0.7,0.7,1.3,1,2c0.5,1.1,0.8,2.1,0.8,3.1C612.4,959.2,612.1,960.2,611.2,961.2z"/>
	<path class="st0" d="M604.7,948.4v0.2c-1.2,0-1.8,0.8-1.8,2.5c0,0.7,0.2,1.4,0.7,1.9c0.4,0.5,1,0.8,1.7,0.7
		c0.6-0.1,1.1-0.4,1.5-0.9c0.4-0.5,0.6-1.1,0.6-1.8c0-0.7-0.3-1.3-0.8-1.8C606,948.6,605.4,948.4,604.7,948.4z"/>
	<path class="st0" d="M292.5,279c0.2,0.3,0.4,0.6,0.7,0.9c1.7,2.2,3,4.4,4,6.7c1,2.3,1.7,4.8,2,7.4c0.8,5.4,1.8,10.8,3,16.1
		c1.2,5.3,2.9,10.4,5.1,15.4c2.6,5.7,5.7,10.9,9.4,15.7c3.6,4.8,8.1,8.9,13.5,12.3c4,2.5,8.2,4.2,12.6,5.1c4.4,0.9,9,0.9,13.8,0
		c3.5-0.8,6.9-1.9,9.9-3.2c3.1-1.4,6.1-3.2,9-5.3c1.7-1.2,3.2-1.8,4.6-1.7c1.4,0.1,2.9,0.8,4.6,2.2l4.2,4.2c0.8,0.8,1.5,1.4,2.2,1.9
		c0.7,0.5,1.5,0.8,2.4,1.2c0.8,0.2,1.6,0.2,2.4,0.1c0.8-0.1,1.6-0.5,2.2-1.3c0.9-1.7,0.7-3.2-0.7-4.6l0.5-0.2
		c-2.3-2.3-3.8-4.9-4.5-7.9c-0.7-2.9-1-5.9-1-9c-0.2-8.3-0.3-16.7-0.3-25c-0.1-8.3,0-16.7,0.1-25c0-3.9,1-7,3-9.5
		c0.6-0.6,1-1.1,1.2-1.4c1.1-1.7,0.9-3.2-0.5-4.6c-1.4-1.4-2.9-1.6-4.6-0.7c-0.6,0.3-1.2,0.7-1.6,1.2c-0.5,0.5-0.9,0.9-1.4,1.4
		c-3.9,3.7-8.5,4.9-13.9,3.7c-1.7-0.3-3.3-0.8-4.7-1.4c-1.5-0.6-3-1.3-4.5-2.1c-2.3-1.1-4.4-1.7-6.2-1.9c-3.1-0.5-6.1,0.2-9,1.9
		c-1.5,1.1-2,2.5-1.4,4.2c0.5,1.5,1.6,2.3,3.5,2.3c0.6,0,1.5-0.2,2.8-0.5c3.1-0.5,6.2,0.2,9.3,2.1c2.9,1.9,4.4,4.6,4.4,8.3
		c0.3,8.2,0.1,16.3-0.7,24.3c-0.8,8-1.4,16.1-1.8,24.3c-0.3,3.7-1.8,6.6-4.4,8.8c-5.4,4.8-10.2,4.8-14.3,0c-2.3-2.8-4.2-5.9-5.6-9.3
		c-2.2-5.2-3.8-10.6-4.9-16.1c-1.1-5.5-1.8-11.1-2.1-16.8c-0.3-6.9-0.4-13.9-0.3-20.8c0.1-6.9,0.7-13.9,1.7-20.8
		c0.9-6.5,2.2-12.9,3.7-19.2c1.5-6.3,3.6-12.5,6.2-18.5c1.2-3.1,2.7-6,4.4-8.8c1.7-2.8,3.7-5.4,6-7.9c2.8-2.8,5.9-3.5,9.5-2.1
		c3.5,1.2,6.7,2.9,9.5,5.1c2.8,2.2,5.3,4.7,7.6,7.6c1.5,1.7,2.1,3.5,1.6,5.6c-0.3,1.4-0.4,2.8-0.2,4.2c0.2,1.4,0.5,2.8,0.9,4.2
		c1.1,2.8,2.7,3.9,4.9,3.5c2.5-0.5,3.3-2.2,2.5-5.1c-0.5-2.2-0.6-4.3-0.3-6.4c0.2-2.1,0.6-4.2,1-6.4l1.4-7.6
		c0.5-2.6,0.3-5.4-0.5-8.3c-0.2-0.6-0.5-1.5-1.2-2.8c-0.9-1.4-2.2-1.9-3.9-1.4c-1.8,0.5-2.6,1.8-2.3,3.9l0.7,2.8
		c0.5,2.2,0.2,4-0.7,5.6c-0.9-0.5-1.7-1-2.2-1.6c-0.5-0.6-1.1-1.2-1.7-1.9c-6.5-5.4-13.1-8.8-20-10.2c-6.9-1.4-14.2-0.4-22.1,3
		c-7.2,3.1-13.6,7.9-19,14.3c-6.5,7.6-11.4,15.7-14.7,24.4c-3.3,8.7-5.7,17.9-7.1,27.6c-0.3,1.5-0.5,3-0.6,4.5
		c-0.1,1.5-0.3,3-0.6,4.7c-0.8-0.3-1.4-0.5-1.8-0.7c-0.5-0.2-1-0.3-1.6-0.5c-1.7-0.5-3,0-3.9,1.4c-0.8,1.2-0.7,2.4,0.2,3.5
		C292.1,278.4,292.4,278.7,292.5,279z M307.3,281.4c0.3-3.5,0.5-7,0.7-10.4c0.2-3.4,0.6-6.9,1.4-10.4c1.4-6.9,3.4-13.6,5.9-20
		c2.5-6.4,6-12.4,10.3-18.2c2.2-2.9,4.5-5.6,7.2-8c2.6-2.4,5.6-4.5,8.8-6.4c0.9-0.5,1.9-0.9,2.8-1.3c0.9-0.4,1.9-0.7,2.8-0.8
		c0.5,0.6,0.5,1.1,0.2,1.4c-4,5.9-7.2,12-9.6,18.3c-2.4,6.3-4.4,12.9-5.9,19.7c-2.9,12.2-4.5,24.2-4.6,36.1l-0.9-0.5v2.1
		c0,1.2-0.5,1.6-1.6,1.2c-0.6-0.3-1-0.5-1.2-0.7c-2-1.1-4-1.7-6-1.7c-2-0.1-4.1,0.2-6.2,0.8l-1.4,0.7c-1.2,0.3-2,0.4-2.3,0.2
		C307.2,283.3,307.2,282.6,307.3,281.4z"/>
	<path class="st0" d="M317.5,275.1c1.2,0,2.2-0.5,2.9-1.4c0.7-0.9,1-2.1,1-3.5c0-2.9-1.5-4.4-4.4-4.4c-2.5,0-3.7,1.4-3.7,4.2
		c0,1.4,0.4,2.6,1.2,3.6C315.3,274.6,316.3,275.1,317.5,275.1z"/>
	<path class="st0" d="M436.8,274.4c1.2,0,2.3-0.4,3.4-1.3c1-0.8,1.5-1.8,1.5-2.9c-0.2-1.2-0.8-2.3-2-3.2c-1.2-0.9-2.4-1.4-3.6-1.4
		v0.5c-3.1,0-4.6,1.2-4.6,3.5c0,1.2,0.5,2.4,1.6,3.4C434.2,273.9,435.5,274.4,436.8,274.4z"/>
	<path class="st0" d="M416.1,284.4c0.7,2.2,1.1,4.5,1.3,6.9c0.3,5.2,1,10.4,2,15.5c1,5.1,2.4,10.1,4.3,15c2.2,5.9,4.8,11.3,8,16.3
		c3.2,5,7,9.6,11.4,13.8c7.4,6.8,15.8,10.6,25.3,11.4c9.5,0.8,18.5-1.4,26.9-6.8c4.5-2.9,8.5-6.3,12-10.1c3.5-3.8,6.7-7.9,9.5-12.4
		c5.2-8.6,9-17.5,11.2-26.7c2.2-9.2,3.4-18.4,3.6-27.6c0-8.6-0.8-16.8-2.3-24.4c-1.5-7.6-4.1-15.1-7.6-22.3l0.7-0.9
		c-2.6-5.4-5.8-10.4-9.5-14.9c-3.7-4.5-8.3-8.4-13.6-11.4c-11.9-7.2-24.3-8.3-37.2-3.2c-4.8,1.9-9.1,4.3-13,7.3
		c-3.9,3-7.3,6.5-10.4,10.5c-5.9,7.4-10.4,15.2-13.5,23.5c-3.2,8.2-5.4,17-6.6,26.2c-0.3,1.5-0.6,2.4-0.8,2.7
		c-0.2,0.2-1,0.2-2.4-0.1c-2.5-0.5-4,0.1-4.6,1.6c-0.8,1.5-0.4,3,1.2,4.4C414,280.3,415.4,282.2,416.1,284.4z M478,213.3
		c1.5-1.2,3.4-2.1,5.6-2.9c2-0.6,4-0.6,6,0c4.9,2,9.2,4.7,12.7,8c3.5,3.3,6.7,7.1,9.5,11.4c3.2,5.1,5.8,10.4,7.6,16.1
		c1.8,5.6,3.2,11.4,3.9,17.2c2.8,19.6,0.5,38.2-6.7,56l-0.7-0.2c-3.7,9.1-9,17.3-16,24.5c-2.9,3.1-6.1,4.8-9.4,5.2
		c-3.3,0.4-6.7,0-10.3-1.3c-3.5-1.2-6.7-3.1-9.4-5.6c-2.7-2.5-5.1-5.3-7.1-8.6c-2.3-3.9-4.1-7.8-5.4-11.9c-1.3-4.1-2.3-8.4-2.9-12.8
		c-0.5-3.5-0.7-7.2-0.7-11.1c0-3.9,0-8.4,0-13.6c-0.3-6.6,0.2-13.8,1.4-21.4c1.2-7.6,3.2-15.3,6-23c1.4-4,3-7.8,4.9-11.4
		c1.9-3.6,4.1-7.1,6.7-10.3C475.1,215.8,476.5,214.4,478,213.3z M425.7,273.3c0.3-2.5,0.7-5,1.2-7.6c1.2-6.6,3-13,5.2-19.2
		c2.2-6.2,5.4-12,9.4-17.6c3.2-4.5,6.9-8.4,11.1-11.8c4.2-3.4,9-5.9,14.6-7.6c0.3-0.2,0.8-0.2,1.4-0.2l0.7,0.7
		c-0.8,0.9-1.6,1.9-2.4,2.8c-0.9,0.9-1.7,1.9-2.4,3c-4,5.4-7.1,11.2-9.4,17.3c-2.2,6.2-4.1,12.5-5.7,19c-1.1,4.5-1.9,9-2.4,13.6
		c-0.5,4.6-0.7,9.3-0.6,13.9l-0.2,0.2v2.1c0,1.2-0.6,1.6-1.9,1.2c-2.8-1.2-5.6-1.8-8.3-1.7c-2.8,0.1-5.5,0.7-8.3,1.7
		c-1.1,0.3-1.7,0.2-2-0.2c-0.2-0.5-0.3-1.1-0.3-1.9C425.3,278.3,425.4,275.7,425.7,273.3z"/>
	<path class="st0" d="M578.4,209.8c-3.9,3-7.3,6.5-10.4,10.5c-5.9,7.4-10.4,15.2-13.5,23.5c-3.2,8.2-5.4,17-6.6,26.2
		c-0.3,1.5-0.6,2.4-0.8,2.7c-0.2,0.2-1,0.2-2.4-0.1c-2.5-0.5-4,0.1-4.6,1.6c-0.8,1.5-0.4,3,1.2,4.4c2.2,1.7,3.6,3.6,4.3,5.8
		c0.7,2.2,1.1,4.5,1.3,6.9c0.3,5.2,1,10.4,2,15.5c1,5.1,2.4,10.1,4.3,15c2.2,5.9,4.8,11.3,8,16.3c3.2,5,7,9.6,11.4,13.8
		c7.4,6.8,15.8,10.6,25.3,11.4c9.5,0.8,18.5-1.4,26.9-6.8c4.5-2.9,8.5-6.3,12-10.1c3.5-3.8,6.7-7.9,9.5-12.4
		c5.2-8.6,9-17.5,11.2-26.7c2.2-9.2,3.4-18.4,3.6-27.6c0-8.6-0.8-16.8-2.3-24.4c-1.5-7.6-4.1-15.1-7.6-22.3l0.7-0.9
		c-2.6-5.4-5.8-10.4-9.5-14.9c-3.7-4.5-8.3-8.4-13.6-11.4c-11.9-7.2-24.3-8.3-37.2-3.2C586.5,204.3,582.2,206.8,578.4,209.8z
		 M607.3,213.3c1.5-1.2,3.4-2.1,5.6-2.9c2-0.6,4-0.6,6,0c4.9,2,9.2,4.7,12.7,8c3.5,3.3,6.7,7.1,9.5,11.4c3.2,5.1,5.8,10.4,7.6,16.1
		c1.8,5.6,3.2,11.4,3.9,17.2c2.8,19.6,0.5,38.2-6.7,56l-0.7-0.2c-3.7,9.1-9,17.3-16,24.5c-2.9,3.1-6.1,4.8-9.4,5.2
		c-3.3,0.4-6.7,0-10.3-1.3c-3.5-1.2-6.7-3.1-9.4-5.6c-2.7-2.5-5.1-5.3-7.1-8.6c-2.3-3.9-4.1-7.8-5.4-11.9c-1.3-4.1-2.3-8.4-2.9-12.8
		c-0.5-3.5-0.7-7.2-0.7-11.1c0-3.9,0-8.4,0-13.6c-0.3-6.6,0.2-13.8,1.4-21.4c1.2-7.6,3.2-15.3,6-23c1.4-4,3-7.8,4.9-11.4
		c1.9-3.6,4.1-7.1,6.7-10.3C604.4,215.8,605.7,214.4,607.3,213.3z M597.8,209.2l0.7,0.7c-0.8,0.9-1.6,1.9-2.4,2.8
		c-0.9,0.9-1.7,1.9-2.4,3c-4,5.4-7.1,11.2-9.4,17.3c-2.2,6.2-4.1,12.5-5.7,19c-1.1,4.5-1.9,9-2.4,13.6c-0.5,4.6-0.7,9.3-0.6,13.9
		l-0.2,0.2v2.1c0,1.2-0.6,1.6-1.9,1.2c-2.8-1.2-5.6-1.8-8.3-1.7c-2.8,0.1-5.5,0.7-8.3,1.7c-1.1,0.3-1.7,0.2-2-0.2
		c-0.2-0.5-0.3-1.1-0.3-1.9c0-2.6,0.2-5.2,0.5-7.6c0.3-2.5,0.7-5,1.2-7.6c1.2-6.6,3-13,5.2-19.2c2.2-6.2,5.4-12,9.4-17.6
		c3.2-4.5,6.9-8.4,11.1-11.8c4.2-3.4,9-5.9,14.6-7.6C596.7,209.3,597.2,209.2,597.8,209.2z"/>
	<path class="st0" d="M569,267c-1.2-0.9-2.4-1.4-3.6-1.4v0.5c-3.1,0-4.6,1.2-4.6,3.5c0,1.2,0.5,2.4,1.6,3.4c1.1,1,2.3,1.5,3.7,1.5
		c1.2,0,2.3-0.4,3.4-1.3c1-0.8,1.5-1.8,1.5-2.9C570.8,269,570.2,267.9,569,267z"/>
	<path class="st0" d="M700.7,274.2c1.2,0,2.3-0.4,3.4-1.3c1-0.8,1.6-1.9,1.7-3.1c0.2-1.2-0.4-2.3-1.7-3.4c-1.3-1-2.7-1.5-4.3-1.5
		c-1.1,0-2,0.4-2.8,1.3c-0.8,0.8-1.2,1.9-1.2,3.1c0,1.4,0.5,2.5,1.4,3.5C698.2,273.7,699.3,274.2,700.7,274.2z"/>
	<path class="st0" d="M678.1,207.8c1.4,1.2,3.2,2.2,5.3,3c1.7,0.8,2.7,1.4,2.9,1.7c0.2,0.4,0.3,1.4,0.3,3.1c0,2.6,0,5.3-0.1,8
		c-0.1,2.7-0.1,5.4-0.1,8c-0.2,6.5-0.2,13-0.1,19.4c0.1,6.5-0.1,13-0.6,19.4c-0.2,2.2-0.3,3.4-0.6,3.6c-0.2,0.2-1.4,0.1-3.4-0.3
		c-2.9-0.8-4.8,0-5.6,2.3c-0.5,1.9,0.6,3.4,3.2,4.6h0.7c2.9,1.4,4.6,3.7,5.1,6.9c0.2,0.8,0.2,1.6,0.2,2.4c0,0.8,0,1.7,0,2.4
		c-0.2,8.5-0.3,16.9-0.5,25.3c-0.2,8.4-0.2,16.8-0.2,25.3c0,1.7,0,3.3-0.1,4.9c-0.1,1.5-1.1,2.7-3.1,3.5v0.2
		c-1.7,1.9-1.9,3.5-0.7,5.1c1.2,1.7,2.9,1.9,5.1,0.5c1.7-1.2,3.5-2,5.3-2.4c1.8-0.4,3.8-0.6,5.8-0.6c3.7,0,7.1,0.5,10.2,1.6
		c1.4,0.5,2.8,0.9,4.2,1.4c1.4,0.5,2.8,0.8,4.2,1.2c3.9,1.1,7.7,1.7,11.4,1.7c3.8,0.1,7.6-0.7,11.4-2.2c6.5-2.5,12.3-6.2,17.3-11.1
		c3.7-3.5,6.9-7.4,9.6-11.6c2.7-4.2,5.1-8.6,7.3-13.2c4.5-10.2,7.7-20.6,9.6-31.2c1.9-10.6,3-21.9,3.4-33.8c-0.2-4-0.5-7.9-1-11.7
		c-0.5-3.8-1.7-7.7-3.4-11.9l-0.7,0.2c-6.5-16.5-18.4-27.2-35.6-32.1c-4.9-1.4-9.9-2.1-15-2.1c-5.1,0-10.1,0.2-15,0.5
		c-3.9,0.3-7.6,1-11.3,2c-3.7,1-7.5,1.7-11.3,2c-3.2,0.3-6.2-0.2-8.8-1.6c-0.3-0.2-0.5-0.3-0.7-0.5c-0.2-0.2-0.4-0.3-0.7-0.5
		c-2.5-1.2-4.2-0.9-5.3,0.9C675.4,204.1,675.9,206,678.1,207.8z M743.6,209.3c2.5,0.7,5,1.7,7.5,2.9c7.9,4,13.8,9.2,17.8,15.5
		c4,6.3,6.5,13.7,7.4,22.2c0.8,5.7,0.9,11.4,0.3,17c-0.5,5.6-1.2,11.3-2,17l0.2,0.2c0,0.3,0,0.6-0.1,0.8c-0.1,0.2-0.2,0.6-0.3,1
		l-1.9-0.9c-3.7-2.2-7.4-2.7-11.1-1.6c-1.2,0.3-2,0.3-2.3,0c-0.3-0.3-0.4-1.1-0.2-2.3c0.3-2.9,0.5-5.8,0.5-8.7
		c0-2.9-0.1-5.7-0.2-8.7c-0.3-6.2-1-12.2-2.1-18c-1.1-5.9-2.9-11.6-5.3-17.3c-1.7-3.9-3.7-7.4-6-10.5c-2.3-3.2-5.2-6-8.8-8.4
		c-0.3-0.2-0.9-0.7-1.9-1.6C738.3,208.1,741.1,208.6,743.6,209.3z M718.3,330.2c0.5-11.1,0.7-22.4,0.6-33.8
		c-0.1-11.4,0-22.9,0.3-34.5c0.3-8,0.5-16,0.5-23.9c0-7.9,0.1-15.9,0.2-23.9c0-1.7,0.2-2.7,0.6-3c0.4-0.3,1.3-0.2,2.9,0.2
		c9.1,3.1,15.7,8.9,19.9,17.6c2,4,3.6,8.2,4.7,12.5c1.2,4.3,2,8.7,2.7,13.2c1.2,9.1,1.4,18,0.5,26.7c-0.9,8.7-2.7,17.4-5.3,26
		l0.7,0.2c-1.7,5.6-3.9,10.8-6.7,15.8c-2.8,5-5.8,9.9-9,14.7c-2.8,3.9-6.2,7.1-10.2,9.7c-1.5,1.1-2.3,0.7-2.3-1.2V330.2z
		 M693.9,274.3c0.1-3.2,0.2-6.3,0.3-9.4c0.2-4,0.2-8.1,0.2-12.1c0-4.1,0-8.1,0-12.1c0-4.2,0.1-8.3,0.3-12.5
		c0.2-4.2,0.3-8.3,0.3-12.5c0-1.7,0.1-2.7,0.3-3c0.2-0.3,1.2-0.6,2.9-0.9l10.4-2.1c1.2-0.3,2-0.3,2.4-0.1c0.4,0.2,0.6,1,0.6,2.2
		c0,3.5,0,7.1,0.1,10.8c0.1,3.6,0,7.2-0.3,10.8l-0.2-0.7c-0.2,0.9-0.2,1.9-0.2,2.8s0,1.9,0,2.8v43v4.4H710c-2.3-1.5-4.6-2.2-6.8-2
		c-2.2,0.2-4.4,1-6.6,2.2c-1.2,0.8-2,1-2.3,0.8c-0.3-0.2-0.5-1.2-0.5-2.9C693.8,280.6,693.8,277.5,693.9,274.3z"/>
	<path class="st0" d="M98.1,456.1v14.7h5.4l-0.3-10.5c0-26.5,45-26.2,45,4.2c0,56.9,0,113.4,0,170.3c0,27.2-12.5,24.9-19.5,24.9v5.4
		c25.6,0,51.4,0,77,0v-5.4c-7,0-19.5,2.2-19.5-24.9c0-56.9,0-113.4,0-170.3c0-30.4,45.1-30.4,45.1-4.2c0,4.2,0,9.9,0,10.5h5.1v-14.7
		v-22H98.1V456.1z"/>
	<path class="st0" d="M321.5,659.7c-7,0-19.5,2.2-19.5-24.9c0-56.9,0-113.4,0-170.3c0-27.2,12.5-24.9,19.5-24.9v-5.4
		c-25.6,0-51.4,0-77,0v5.4c7,0,19.5-2.2,19.5,24.9c0,56.9,0,113.4,0,170.3c0,27.2-12.5,24.9-19.5,24.9v5.4c25.6,0,51.4,0,77,0V659.7
		z"/>
	<path class="st0" d="M329.4,439.5c7,0,19.5-2.2,19.5,24.9c0,56.9,0,113.4,0,170.3c0,27.2-12.5,24.9-19.5,24.9v5.4
		c25.6,0,51.4,0,77,0c27.2,0,42.8-10.9,51.8-26.8c15.3-28.1,20.8-150.5-1-182.1c-8.9-13.1-24.6-21.7-50.8-22h-77V439.5z M387,464.4
		c0-34.5,27.8-28.4,37.1-4.8c11.8,30.7,12.1,149.8-0.3,180.2c-10.2,25.9-36.7,29.1-36.7-5.1C387,577.9,387,521.3,387,464.4z"/>
	<path class="st0" d="M481.5,659.7v5.4c25.9,0,51.4,0,77.3,0v-5.4c-7.3,0-19.8,2.2-19.8-24.9c0-56.9,0-38.7,0-95.5
		c0-26.8,12.5-24.9,19.8-24.9v-5.1c-25.9,0-51.4,0-77.3,0v5.1c7.3,0,19.8-1.9,19.8,24.9c0,56.9,0,38.7,0,95.5
		C501.3,661.9,488.9,659.7,481.5,659.7z"/>
	<path class="st0" d="M784.1,546.6c7,0,19.5-2.2,19.5,24.9c0,16.3,0,32.9,0,49.2c-3.5,33.2-27.2,56.2-39.3,21.7
		c-11.5-32.3-11.2-152.7,0-183.7c2.4-6.9,7.5-11.9,13.5-14.8c2.3-0.6,4.5-1.3,6.5-2.1c4.7-0.8,9.6-0.3,13.9,1.8
		c17.3,8.6,22,36.7,24.9,53.7h4.2l-3.2-67.7h-5.1c0,3.2,1,12.8-1.9,15c-1,1-2.9,0.6-5.1-1.6c-4.1-3.7-9-6.4-14.5-8.2
		c23.1-17,15.2-46.3-11.7-57.6c-41.2-16.9-87.5,11.2-101.3,51.1c-15-4.8-31-11.8-47.6-19.2c-48.6-21.1-96.8-43.8-139-17.6
		C448,422.9,470.3,504.1,524,499.3c35.1-3.2,51.1-41.9,32.9-63.6c-4.8-5.4-17.3-14.4-25.2-13.1c-10.2,1.6-12.1,17.9,0.3,20.4
		c5.1,1.3,10.5-0.3,13.1-5.8c2.2,1.6,3.2,2.6,5.1,4.8c13.4,16.6,0,46-26.8,48.2c-44.1,3.8-62.9-64.5-20.8-91.1
		c38-24,84-1.9,130.4,18.2c16.9,7.3,33.5,14.7,48.9,19.5c0,0,0,0.3,0,0.6c-6.1,23.6-5.4,49.2-5.4,73.5v98.1l-57.2-175.1
		c-17.3,0-34.2,0-51.4,0v5.4c7,0,19.5-2.2,19.5,24.9v170.3c0,27.2-12.5,24.9-19.5,24.9v5.4c16,0,32.3,0,48.2,0v-5.4
		c-7,0-19.5,2.2-19.5-24.9v-154l60.1,184.4h0.3c16,0,32.3,0,48.2,0v-5.4c-7,0-19.5,2.2-19.5-24.9v-124c0-24-1-47.6,4.8-71.2
		c1,0,1.6,0.3,2.6,0.6c18.1,4.3,33.8,6.4,47.4,7.1c-1.2,1.2-2.3,2.5-3.3,3.8c-25.2,33.9-25.2,165.2,0,198.7
		c16,21.7,53.4,25.9,66.5-3.5v19.2h38v-93.9c0-27.2,12.5-24.9,19.5-24.9v-5.4c-25.9,0-51.4,0-77,0V546.6z M695,431.2
		c-0.6,0-1.3-0.3-1.6-0.3c12.1-34.8,52.7-60.1,89.1-45c20.8,8.3,27.8,30.7,7,43.5c-1.7,1.1-3.6,2-5.7,2.9c-10.5-0.6-21.4,1.5-30.6,6
		C737.8,438.7,718.6,436.8,695,431.2z"/>
	<path class="st0" d="M980.6,594.8c-9.6-51.4-83.7-72.2-75.1-126.2c3.8-24.9,25.6-38,47.3-19.5c8.9,7.7,14.4,19.2,15.3,35.5l6.1-0.6
		l1.3-49.5H970c0,3.2-0.3,12.1-3.2,14.1c-1.3,0.6-2.9,0.3-5.1-2.2c-11.2-12.1-31-16.3-48.6-13.1c-38,7-50.5,48.9-40.6,80.8
		c14.1,44.7,81.5,66.8,73.5,118.2c-4.2,24.9-25.6,38-47.3,19.5c-9.3-7.7-14.4-19.5-15.3-35.8h-6.4l-1.3,50.5h5.4
		c0.3-3.2,0.3-12.1,3.2-14.1c1.3-0.6,2.9-0.3,5.1,2.2c11.2,12.1,31,16.3,48.6,13.1C972.9,661.3,986.3,625.5,980.6,594.8z"/>
	<path class="st0" d="M769.8,733.5c-1.5-0.7-3.3-1.3-5.5-1.3c-13.3-1.1-23.8,12-29.9,22.9c-3.5,6.8-7,14.4-9.8,22.2
		c2.4-10.7,5-22.2,8.1-34l1.5-7.2c2.8-11.1-17.7-11.3-20.7,0c-2.9,11.9-5.2,23.7-6.9,34.4c-3.3,4.7-8.7,8.8-14.3,11.2
		c-3.3,1.3-6.3,2-9.2,2.2c3.3-9.2,7.6-25.7,4.1-34.4c-1.7-3.5-4.1-5.2-6.8-5.2c-0.4,0-0.7,0.2-1.1,0.2c-4.1,0.4-7.6,3.1-9.8,7
		c-2.4,3.3-3.7,7.8-4.4,12.4c-0.2,0.7,0,1.5-0.2,2.2c-0.4,8.9,1.5,14.8,5.2,18.5c1.7,1.5,3.9,2.8,6.1,3.5c-5,12.9-12,23.3-18.5,24.6
		c-15,3.1-9.6-44.3,2-65.4c3.5-6.1,8.1-10.2,12.9-10c1.5,0.2,3.7,1.1,5.5,2.8c2.4,2.4,6.8-2.4,3.9-4.8c-8.5-7-25.3-2.2-34.4,5.7
		c-8.4,7.3-14.2,18.1-17.1,29.4c-7,18-27,22.1-36.3,23c3.1-13.5,5.9-25.5,6.8-30.7l1.5-2c3.9-5.2,8.1-10.7,8.7-11.3
		c12-14.8,22.2-32.5,28.8-47.5c11.1-25.7,7-38.4-2.4-38.8c-24.9-1.1-45.1,46.9-56.5,92.9c-1,3.9-2.1,8.8-3.2,14.3l-1.4,3.8
		c-2.8,7.2-15.3,42.3-25.1,41.2c-17.9-1.7,29.9-80.4-2-82.8c-13.3-1.1-23.8,12-29.9,22.9c-3.5,6.8-7,14.4-10,22.2l3.9-16.3
		c2.6-10.9,6.5-27.7-8.7-28.8c-13.3-1.1-23.8,12-29.9,22.9c-3.5,6.8-7,14.4-9.8,22.2c2.2-10,4.8-21.1,7.6-32.3l0.4-1.7l0.9-3.9
		c2.8-10.9-18.1-11.1-20.7-0.4c-2.6,11.1-4.7,22-6.2,31.8c-3.3,4.6-8.6,8.6-14.1,10.9c-3.3,1.3-6.3,2-9.2,2.2
		c3.3-9.2,7.6-25.7,4.1-34.4c-1.7-3.5-4.1-5.2-6.8-5.2c-0.4,0-0.7,0.2-1.1,0.2c-4.1,0.4-7.6,3.1-9.8,7c-2.4,3.3-3.7,7.8-4.4,12.4
		c-0.2,0.7,0,1.5-0.2,2.2c-0.4,8.9,1.5,14.8,5.2,18.5c1.7,1.5,3.9,2.8,6.1,3.5c-5,12.9-12,23.3-18.5,24.6c-15,3.1-9.6-44.3,2-65.4
		c3.5-6.1,8.1-10.2,12.9-10c1.5,0.2,3.7,1.1,5.4,2.8c2.4,2.4,6.8-2.4,3.9-4.8c-8.5-7-25.3-2.2-34.4,5.7
		c-8.2,7.1-13.8,17.5-16.8,28.4c-0.1,0.1-0.1,0.2-0.2,0.3c-5.7,13.5-19.2,46-35.5,44.9c-22.2-1.3-14.2-45.3-2.4-65.4
		c7.6-13.1,17.2-11.3,21.8-0.4c1.5,3.5,5.9,0.7,4.4-2.6c-0.4-1.5-1.1-2.8-1.7-4.1c-3.9-6.8-9.6-8.5-14-8.3
		c-46.4,2-61.7,89.8-16.1,90.3c19.3,0,32.3-20.2,41.4-38.6c-0.6,19.6,7.7,36.6,25.8,34.5c10-1.1,20.5-14.8,27-31.2
		c3.9,0,8.3-0.9,12.2-2.6c4.3-1.8,8.4-4.4,11.9-7.6c-1.8,13.8-2.3,25.1-1.2,31.6c2.6,17.7,8.5,17.7,14.6-2
		c4.6-14.4,11.6-37.3,20.5-53.2c2-3.3,9.2-14,13.1-13.1c4.4,0.7,1.3,14.4,0.7,18.5c-4.1,21.8-5.7,40.6-4.1,49.7
		c2.6,17.7,8.5,17.7,14.6-2c4.6-14.4,11.6-37.3,20.5-53.2c2-3.3,8.9-14,13.1-13.1c10.2,2-20.3,80.9,10,80.9
		c10.8,0,19.9-15.9,26.8-31.9c-1.8,13.7-2.9,28.2-2.1,40.4c2.4,40.6,29.4,35.8,33.8,1.3c0.7-4.4,0.9-8.7,0.4-13.1
		c-0.9-9.2-3.3-17.4-7.8-22c8.7-1.5,21.3-5.4,29.8-15.4c-1.7,21,6.5,40.1,25.6,37.8c10-1.1,20.5-14.8,27-31.2
		c3.9,0,8.3-0.9,12.2-2.6c4.4-1.8,8.6-4.5,12.1-7.8c-1.8,13.9-2.3,25.4-1.2,31.8c2.6,17.7,8.5,17.7,14.6-2
		c4.6-14.4,11.6-37.3,20.5-53.2c2-3.3,9.2-14,13.1-13.1c1.3,0.2,0.9,2,2,3.5C764.1,756.6,779.3,739,769.8,733.5z M603.8,748.1l1.1-5
		c2.6-9.6,17.4-76.3,33.1-73c4.6,1.1,6.1,10.9-2.4,30.3c-6.5,14.6-16.3,31.8-28.1,46.2c-0.4,0.7-2.6,3.5-5.2,7
		C602.8,751.8,603.2,750.1,603.8,748.1z M419,783.2c-1.3-0.4-3.1-1.3-4.1-2.4c-2.8-2.8-4.6-7.6-3.9-15.3c0-0.7,0-1.3,0-2
		c0.7-3.9,1.7-7.6,3.5-10.2c1.3-2.4,3.5-3.9,5.7-4.1l0.4-0.2c1.1,0.2,2,0.9,3.1,2.8C426.4,759,421.6,775.8,419,783.2z M601.7,820.5
		c0.4,3.9,0.2,8.3-0.2,12.2c-2.6,20.5-19.4,31.4-15-0.2c1.5-9.8,3.9-21.8,6.3-33.1C598,802,601,810.7,601.7,820.5z M678.2,783.2
		c-1.3-0.4-3.1-1.3-4.1-2.4c-2.8-2.8-4.6-7.6-3.9-15.3c0-0.7,0-1.3,0-2c0.7-3.9,1.7-7.6,3.5-10.2c1.3-2.4,3.5-3.9,5.7-4.1l0.4-0.2
		c1.1,0.2,2,0.9,3.1,2.8C685.6,759,680.8,775.8,678.2,783.2z"/>
	<path class="st0" d="M845.4,703c-5.7,7-22.5,6.5-41,4.1l3.9-14.8c3.5-12.2-14-14.4-18.7,0.2l-4.1,12.2c-20.7-3.1-39.9-5.5-47.3,0.9
		c-2.6,2.2,0.2,5.7,3.5,2.8c5.4-4.6,23.3-1.7,42.3,0.9c-12.6,41.9-27.9,113.4-2.2,113.4c14.6,0,25.9-28.8,33.1-48
		c0.7-1.1,1.1-2.4,1.5-3.9c1.5-3.5-3.1-4.6-4.4-1.1l-1.5,4.1c-2.8,7.2-15.3,42.3-24.9,41.2c-7.6-0.7,7-63.4,17.4-103.1
		c20.5,2.4,39.7,2.8,46.7-7.2C851.3,702.6,847.6,700.4,845.4,703z"/>
	<path class="st0" d="M412.7,866.3l0.1-0.1c-0.5-0.1-1,0.1-1.4,0.5c-0.4,0.4-0.6,0.9-0.7,1.4c-0.1,0.5,0.1,1,0.4,1.4
		s0.7,0.6,1.3,0.7c0.5,0.1,1-0.1,1.5-0.6c0.4-0.4,0.7-0.9,0.7-1.5s-0.2-1-0.5-1.3C413.6,866.5,413.2,866.3,412.7,866.3z"/>
	<path class="st0" d="M448.7,906.5c0,0.1,0,0.1,0,0.2c0,0.1,0.1,0.1,0.2,0.1L448.7,906.5z"/>
	<path class="st0" d="M444.5,908.7c0.8,0.1,1.6,0.2,2.4,0.3c0.8,0.1,1.4-0.2,1.8-0.9c0.2-0.4,0.2-0.9,0-1.4
		c-0.3-0.4-0.9-0.7-1.6-0.8c-0.5-0.1-0.9-0.1-1.4-0.2c-0.4,0-0.9-0.1-1.4-0.3c-1.3-0.2-2.1-0.9-2.3-2.2c-0.5-2.6-1.1-5.3-1.8-7.9
		c-0.6-2.6-1.3-5.3-1.9-7.9l-9.8-42.7c-0.3-1.2-0.4-1.8-0.3-2.1c0.1-0.2,0.9-0.4,2.3-0.4c1.6,0,2.4-0.6,2.4-1.7c0-1-0.8-1.6-2.4-1.7
		c-0.9-0.1-1.9,0-2.8,0.1c-0.9,0.1-1.8,0.3-2.8,0.6c-1.3,0.3-2.6,0.5-3.8,0.6c-1.3,0.1-2.5-0.1-3.8-0.6c-0.3-0.1-0.7-0.2-1.1-0.3
		c-0.4,0-0.7-0.1-1.1-0.2c-0.9-0.1-1.7-0.2-2.6-0.3c-0.8,0-1.7,0-2.6,0.1c-1,0.1-1.4,0.6-1.4,1.4c0,0.9,0.4,1.4,1.3,1.6
		c0.3,0.1,0.5,0.1,0.8,0.1c0.3,0,0.6,0,0.9,0c1,0.1,1.6,0.2,1.7,0.4c0.1,0.2,0,0.7-0.3,1.7l-8.8,28.3c-0.1,0.3-0.3,0.7-0.4,1
		c-0.1,0.3-0.3,0.6-0.7,1c-0.1-0.1-0.2-0.3-0.3-0.4c0-0.1-0.1-0.3-0.3-0.4l-0.6-0.6c-0.7-0.5-1.4-0.5-1.9,0c-0.6,0.5-0.7,1.2-0.3,2
		c0.1,0.1,0.1,0.2,0.2,0.3c0.1,0.1,0.1,0.2,0.2,0.3c0.5,1,0.9,1.9,1.2,2.9c0.2,1,0.2,2.1-0.2,3.3c-1.2,3.9-2.4,7.7-3.6,11.5
		c-1.2,3.8-2.4,7.6-3.7,11.5l-0.3,0.6c-0.2,0.7-0.7,1-1.4,1c-0.3,0-0.7,0-1.1,0s-0.7,0-1.1,0.1c-1,0.1-1.4,0.6-1.4,1.4
		c0,0.9,0.4,1.4,1.3,1.5c0.5,0.1,1.1,0.2,1.7,0.3c0.6,0.1,1.1,0.1,1.7,0c1.9-0.2,3.7-0.6,5.4-1.2c1.9-0.7,3.8-0.8,5.6-0.1
		c0.5,0.2,1.1,0.4,1.7,0.5c0.6,0.1,1.2,0.3,1.7,0.4c0.8,0.2,1.5,0.3,2.1,0.2c0.8-0.1,1.3-0.6,1.4-1.4c0.1-0.8-0.3-1.4-1.1-1.7
		c-0.2-0.1-0.4-0.2-0.7-0.3c-0.2,0-0.5-0.1-0.7-0.2c-0.5-0.1-0.8-0.3-0.9-0.4c-0.1-0.1,0-0.4,0.1-1c0.1-0.7,0.3-1.2,0.4-1.5
		l4.9-15.2c0.2-0.7,0.4-1.1,0.6-1.2c0.2-0.1,0.6-0.2,1.4-0.3c2.8-0.1,5.6-0.2,8.4-0.2s5.5,0,8.4-0.1c0.9,0,1.5,0.1,1.7,0.2
		c0.2,0.1,0.4,0.7,0.6,1.6c0.6,2.5,1.2,5,1.8,7.5c0.6,2.5,1.1,5,1.7,7.5c0.1,0.7,0.2,1.2,0.1,1.4c-0.1,0.2-0.5,0.5-1.2,0.8
		c-0.7,0.3-1.4,0.5-2,0.7c-0.7,0.2-1.4,0.4-2.1,0.5c-1.2,0.1-1.7,0.7-1.5,1.6c0.1,0.9,0.7,1.3,1.8,1.3c0.3,0,0.8-0.1,1.5-0.2
		c0.5-0.1,1.1-0.3,1.6-0.5c0.5-0.2,1.1-0.4,1.6-0.6c1.4-0.6,2.8-0.6,4.3,0C442.9,908.4,443.6,908.6,444.5,908.7z M413.9,875.6
		L413.9,875.6c-0.2,0.2-0.2,0.4-0.3,0.7c0,0.2-0.2,0.5-0.5,0.7c-0.5-0.3-0.9-0.7-1.2-1.2c-0.3-0.4-0.8-0.8-1.3-1.1
		c-0.5-0.3-1.1-0.4-1.7-0.4c-0.6,0-1.2,0.1-1.8,0.3c-0.1-0.5-0.2-0.9-0.1-1.2c0.1-0.3,0.2-0.6,0.3-1l6.4-20.4c0.4-1.4,0.8-2.7,1.1-4
		c0.3-1.3,0.7-2.6,1-4c0.2-0.7,0.4-1.2,0.7-1.3c0.2-0.1,0.7-0.1,1.5,0.1c1.6,0.4,3.1,0.5,4.6,0.2c0.5-0.1,0.9-0.1,1,0
		c0.1,0.1,0.1,0.5,0,1c-0.1,0.7-0.2,1.3-0.4,1.9c-0.2,0.6-0.4,1.2-0.6,1.8L413.9,875.6z M432.8,880.2c-0.1,0.1-0.5,0.2-1,0.2v-0.1
		h-14.3c-0.6,0-1-0.1-1.1-0.3c-0.1-0.2-0.1-0.6,0.2-1.2c0.4-1.4,0.8-2.7,1.2-3.9c0.4-1.3,0.8-2.5,1.2-3.8l6.4-19.5
		c0.1-0.2,0.1-0.4,0.2-0.7c0-0.2,0.2-0.5,0.6-0.7c0.3,1.2,0.5,2.3,0.8,3.4c0.2,1.1,0.5,2.2,0.8,3.3l4.9,21.3l0.3,0.9
		C432.9,879.7,432.9,880.1,432.8,880.2z"/>
	<path class="st0" d="M501.1,865.9c-0.9-0.1-1.6,0.3-1.9,1.2c-0.5,1.4-0.2,2.4,1,3.3c0.7,0.5,1.4,0.5,2,0.2c0.7-0.4,1.1-1,1.1-1.8
		c0-0.6-0.2-1.2-0.7-1.8C502.2,866.4,501.7,866,501.1,865.9z"/>
	<path class="st0" d="M510.5,909.1c0.7-0.3,1-0.9,0.9-1.6c-0.1-0.7-0.5-1.2-1.2-1.4c-0.2-0.1-0.5-0.1-0.9-0.1
		c-0.6-0.1-1-0.3-1.1-0.4c-0.1-0.1-0.2-0.5-0.2-1.1c0-1.5,0-3,0.1-4.4c0-1.5,0.1-2.9,0.2-4.4c0.2-3.3,0.3-6.6,0.4-9.9
		c0.1-3.3,0.3-6.6,0.4-9.9c0.1-2.6,0.1-5.3,0.1-7.9c0-2.6,0.1-5.3,0.2-7.9c0.1-2.6,0.2-5.1,0.2-7.6c0-2.5,0-5,0.2-7.6
		c0.1-0.9,0.2-1.5,0.4-1.7c0.2-0.2,0.7-0.3,1.7-0.5c0.3,0,0.5,0,0.6-0.1c0.8-0.2,1.3-0.7,1.3-1.4c0.1-0.7-0.3-1.4-1-1.8l-0.7,0.4
		c-0.5-0.3-1.3-0.4-2.1-0.3c-0.6,0.1-1.2,0.3-1.8,0.4c-0.6,0.1-1.2,0.3-1.7,0.6c-1.6,0.7-3.2,1.1-4.8,1.1c-1.6,0-3.3-0.3-4.9-0.9
		c-0.5-0.1-1.1-0.3-1.7-0.4c-0.6-0.1-1.1-0.3-1.7-0.4c-0.8-0.1-1.5-0.1-2.1,0.2c-0.5,0.3-0.8,0.8-0.8,1.3c0,0.7,0.3,1.2,1,1.4
		c0.4,0.1,0.7,0.2,0.9,0.2c0.8,0,1.2,0.5,1.2,1.4v1.5c0.1,4.1,0,8.1-0.1,12.2c-0.1,4.1-0.2,8.1-0.3,12.2c0,0.3,0,0.7,0.1,1.1
		c0.1,0.4,0,0.7-0.3,1c-0.3,0.3-0.5,0.3-0.8,0.1c-0.3-0.2-0.6-0.3-0.9-0.4c-0.9-0.1-1.5,0.2-1.8,0.9c-0.3,0.7-0.1,1.4,0.6,1.9
		c0.1,0.1,0.3,0.2,0.4,0.3c0.7,0.3,1.4,1,1.8,1.9c0.3,0.7,0.6,1.5,0.8,2.3c0.2,0.8,0.2,1.6,0,2.4c-0.1,0.4-0.1,0.8-0.1,1.2
		c0,0.4,0,0.8,0,1.2c-0.1,3-0.1,6.1-0.1,9.1c0,3-0.1,6.1-0.3,9.1c0,0.3,0,0.6,0.1,0.9c0.1,0.3-0.1,0.5-0.4,0.7
		c-0.3,0.1-0.6,0.1-0.8-0.3c-0.2-0.3-0.4-0.6-0.6-0.8l-0.9-1.2c-0.7-1.2-1.4-2.4-1.8-3.7c-0.5-1.3-0.9-2.6-1.2-4
		c-1.2-4.5-2-8.9-2.7-13.4c-0.6-4.5-1.3-8.9-2-13.4c-0.5-3.5-1-7-1.5-10.5c-0.4-3.5-1-7-1.8-10.4c-0.1-0.8-0.3-1.6-0.4-2.5
		c-0.1-0.8-0.3-1.7-0.6-2.5c-0.3-0.8-0.6-1.4-1-1.7c-0.4-0.3-1.1-0.4-1.9-0.4c-1.6,0.1-2.9,0.5-4.2,1c-1.6,0.7-3.1,1-4.6,1
		c-1.5,0-3.1-0.3-4.6-0.8c-0.5-0.1-1.1-0.3-1.7-0.4c-0.6-0.1-1.1-0.3-1.7-0.4c-0.7-0.2-1.5-0.2-2.1,0c-1,0.2-1.4,0.7-1.4,1.5
		c0.1,0.7,0.5,1.2,1.3,1.4h0.6c0.6,0.1,1,0.3,1.1,0.5c0.1,0.2,0.2,0.6,0.3,1.2v1.2c0.1,4.2,0,8.4-0.1,12.5
		c-0.1,4.1-0.2,8.3-0.2,12.5c0,0.3,0,0.5,0,0.8c0,0.2-0.1,0.5-0.2,0.7c-0.1,0.1-0.3,0.1-0.6,0l-0.9-0.3c-1.1-0.3-1.8-0.1-2.1,0.8
		c-0.3,0.9-0.1,1.6,0.8,2c0.7,0.3,1.2,0.8,1.5,1.3c0.3,0.5,0.6,1.1,0.9,1.7c0.3,0.9,0.5,1.7,0.5,2.6c0,0.8-0.1,1.7-0.1,2.6
		c-0.1,3.5-0.1,6.9-0.1,10.3c0,3.4-0.1,6.9-0.2,10.3c-0.1,0.8-0.2,1.5-0.3,2.2c-0.1,0.6-0.7,1-1.9,1.2c-0.7,0.1-1,0.6-1,1.4
		c0.1,0.8,0.5,1.3,1.3,1.5c0.6,0.1,1.3,0,2.1-0.2l2.1-0.6c1.6-0.5,3.1-0.8,4.6-0.9c1.5-0.1,3,0.2,4.6,0.7c0.7,0.2,1.3,0.4,2,0.5
		c0.6,0.1,1.3,0.2,2,0.4c0.9,0.1,1.7,0,2.3-0.4c0.6-0.3,0.9-0.8,0.8-1.5c-0.1-0.7-0.5-1.2-1.1-1.4c-0.2-0.1-0.5-0.1-0.9-0.1
		c-0.8-0.1-1.3-0.3-1.4-0.4c-0.1-0.1-0.2-0.6-0.2-1.4c0-2.6,0.1-5.2,0.2-7.8c0.1-2.6,0.3-5.2,0.4-7.8c0.3-4.3,0.4-8.5,0.4-12.8
		c0.1-4.3,0.2-8.5,0.4-12.8c0.2-4.3,0.2-8.5,0.1-12.8c0-1.3,0.1-2.4,0.4-3.4c0.4,1.6,0.7,3.3,1,4.9c0.3,1.6,0.5,3.3,0.7,4.9
		c0.3,2,0.5,4.1,0.7,6.1c0.2,2.1,0.4,4.1,0.8,6.1c0.5,3.2,1.1,6.3,1.7,9.4c0.6,3.1,1.3,6.2,2,9.3c0.7,2.8,1.4,5.7,2.2,8.4
		c0.8,2.8,1.8,5.5,2.9,8.2c0.5,1.1,1.1,2.1,2,3.1c0.8,1,1.7,1.6,2.7,1.9c1,0.3,2.1,0.3,3.3-0.2c0.3-0.1,0.5-0.2,0.8-0.3
		c0.2,0,0.5-0.1,0.8-0.3c1.4-0.5,2.8-0.7,4.3-0.8c1.4-0.1,2.8,0.1,4.3,0.6c1.3,0.4,2.7,0.7,4.2,0.9
		C509.1,909.4,509.9,909.3,510.5,909.1z M470.1,853c-0.1,2.7-0.2,5.5-0.3,8.4l-0.1,0.5c-0.1,2-0.2,3.9-0.2,5.9s0,4-0.1,5.9v1.5
		c0,0.7-0.3,0.8-0.8,0.5c-2-1.1-4.2-1.1-6.4,0c-0.6,0.3-0.9,0-0.9-0.8v-6.6c0.1-3.7,0.2-7.4,0.3-11.3c0-3.9,0.1-7.8,0.1-11.8v-0.9
		c0-0.6,0.3-0.9,0.9-0.8h0.6c0.9,0.1,1.9,0.2,2.9,0.3c1,0.1,2,0,3-0.2c0.5-0.1,0.9-0.1,1,0c0.1,0.1,0.2,0.5,0.2,1
		C470.2,847.5,470.1,850.3,470.1,853z M505.9,852.5c-0.1,2.7-0.2,5.5-0.3,8.4l-0.1,0.5c-0.1,2-0.2,3.9-0.2,5.9s0,4-0.1,5.9v1.5
		c0,0.7-0.3,0.8-0.8,0.5c-2.1-1.1-4.2-1.1-6.5,0c-0.6,0.3-0.9,0-0.9-0.8v-6.6c0.1-3.7,0.2-7.4,0.3-11.3c0-3.9,0.1-7.8,0.1-11.8v-0.9
		c0-0.6,0.3-0.9,0.9-0.8h0.6c1,0.1,1.9,0.2,2.9,0.3c1,0.1,2,0,3-0.2c0.5-0.1,0.9-0.1,1,0c0.1,0.1,0.2,0.5,0.2,1
		C506,847,506,849.8,505.9,852.5z"/>
	<path class="st0" d="M465.8,866l-0.3-0.1c-0.4-0.1-0.8-0.1-1.2,0.2c-0.4,0.3-0.7,0.6-0.8,1.1c-0.2,0.6-0.2,1.2,0.1,1.8
		c0.2,0.6,0.6,1.1,1.2,1.4c0.7,0.5,1.5,0.5,2.1,0.1c0.7-0.5,1-1.1,1-1.8c0-0.5-0.2-1.1-0.6-1.7C466.8,866.5,466.3,866.1,465.8,866z"
		/>
	<path class="st0" d="M523.8,891.5c-0.1,3.7-0.1,7.4-0.1,11.1c0,0.7,0,1.5,0,2.1c0,0.7-0.5,1.2-1.4,1.5v0.1
		c-0.7,0.8-0.8,1.6-0.3,2.2c0.5,0.7,1.3,0.8,2.2,0.2c0.7-0.5,1.5-0.9,2.3-1.1c0.8-0.2,1.7-0.3,2.5-0.3c1.6,0,3.1,0.2,4.5,0.7
		c0.6,0.2,1.2,0.4,1.8,0.6c0.6,0.2,1.2,0.4,1.8,0.5c1.7,0.5,3.4,0.7,5,0.8c1.7,0,3.3-0.3,5-1c2.8-1.1,5.4-2.7,7.6-4.9
		c1.6-1.6,3-3.3,4.2-5.1c1.2-1.8,2.2-3.8,3.2-5.8c2-4.5,3.4-9,4.2-13.7s1.3-9.6,1.5-14.8c-0.1-1.8-0.2-3.5-0.5-5.1
		c-0.2-1.7-0.7-3.4-1.5-5.2l-0.3,0.1c-2.8-7.2-8.1-12-15.6-14.1c-2.2-0.6-4.4-0.9-6.6-0.9c-2.2,0-4.4,0.1-6.6,0.2
		c-1.7,0.1-3.4,0.4-5,0.9c-1.6,0.4-3.3,0.7-5,0.9c-1.4,0.1-2.7-0.1-3.9-0.7c-0.1-0.1-0.2-0.1-0.3-0.2c-0.1-0.1-0.2-0.1-0.3-0.2
		c-1.1-0.5-1.9-0.4-2.3,0.4c-0.5,0.8-0.3,1.6,0.6,2.4c0.6,0.5,1.4,1,2.3,1.3c0.7,0.3,1.2,0.6,1.3,0.8c0.1,0.2,0.2,0.6,0.2,1.4
		c0,1.2,0,2.3,0,3.5c0,1.2-0.1,2.4-0.1,3.5c-0.1,2.8-0.1,5.7-0.1,8.5c0,2.8-0.1,5.7-0.3,8.5c-0.1,1-0.2,1.5-0.3,1.6
		c-0.1,0.1-0.6,0.1-1.5-0.2c-1.3-0.3-2.1,0-2.4,1c-0.2,0.8,0.3,1.5,1.4,2h0.3c1.3,0.6,2,1.6,2.2,3c0.1,0.3,0.1,0.7,0.1,1.1
		c0,0.4,0,0.7,0,1.1C523.9,884.1,523.9,887.9,523.8,891.5z M549.5,843.9c1.1,0.3,2.2,0.7,3.3,1.3c3.5,1.8,6.1,4,7.8,6.8
		c1.8,2.8,2.8,6,3.3,9.8c0.3,2.5,0.4,5,0.2,7.5c-0.2,2.5-0.5,5-0.9,7.5l0.1,0.1c0,0.1,0,0.3-0.1,0.4c0,0.1-0.1,0.3-0.2,0.5l-0.8-0.4
		c-1.6-0.9-3.3-1.2-4.9-0.7c-0.5,0.1-0.9,0.1-1,0c-0.1-0.1-0.2-0.5-0.1-1c0.1-1.3,0.2-2.6,0.2-3.8s0-2.5-0.1-3.8
		c-0.1-2.7-0.4-5.3-0.9-7.9c-0.5-2.6-1.3-5.1-2.3-7.6c-0.7-1.7-1.6-3.2-2.6-4.6c-1-1.4-2.3-2.6-3.9-3.7c-0.1-0.1-0.4-0.3-0.8-0.7
		C547.2,843.4,548.4,843.6,549.5,843.9z M538.4,897c0.2-4.9,0.3-9.8,0.3-14.8c0-5,0-10.1,0.2-15.1c0.1-3.5,0.2-7,0.2-10.5
		c0-3.5,0-7,0.1-10.5c0-0.7,0.1-1.2,0.3-1.3c0.2-0.1,0.6-0.1,1.3,0.1c4,1.4,6.9,3.9,8.7,7.7c0.9,1.8,1.6,3.6,2.1,5.5
		c0.5,1.9,0.9,3.8,1.2,5.8c0.5,4,0.6,7.9,0.2,11.7c-0.4,3.8-1.2,7.6-2.3,11.4l0.3,0.1c-0.7,2.4-1.7,4.8-2.9,7
		c-1.2,2.2-2.5,4.4-4,6.5c-1.2,1.7-2.7,3.1-4.5,4.3c-0.7,0.5-1,0.3-1-0.5V897z M527.7,872.5c0-1.4,0.1-2.8,0.2-4.1
		c0.1-1.8,0.1-3.5,0.1-5.3c0-1.8,0-3.6,0-5.3c0-1.8,0-3.7,0.2-5.5s0.2-3.7,0.2-5.5c0-0.7,0.1-1.2,0.2-1.3c0.1-0.1,0.5-0.3,1.3-0.4
		l4.6-0.9c0.5-0.1,0.9-0.2,1.1-0.1c0.2,0.1,0.3,0.4,0.3,1c0,1.6,0,3.1,0.1,4.7c0,1.6,0,3.2-0.2,4.7l-0.1-0.3
		c-0.1,0.4-0.1,0.8-0.1,1.2c0,0.4,0,0.8,0,1.2v18.9v1.9h-0.5c-1-0.7-2-1-3-0.9c-1,0.1-1.9,0.4-2.9,1c-0.5,0.3-0.9,0.5-1,0.4
		c-0.1-0.1-0.2-0.5-0.2-1.3C527.7,875.2,527.7,873.8,527.7,872.5z"/>
	<path class="st0" d="M530.7,872.4c0.5,0,1-0.2,1.5-0.6c0.4-0.4,0.7-0.8,0.8-1.4c0.1-0.5-0.2-1-0.8-1.5c-0.6-0.4-1.2-0.7-1.9-0.7
		c-0.5,0-0.9,0.2-1.2,0.6c-0.3,0.4-0.5,0.8-0.5,1.4c0,0.6,0.2,1.1,0.6,1.5C529.6,872.2,530.1,872.4,530.7,872.4z"/>
	<path class="st0" d="M360.4,697.8c-1,0-2.1,0.1-3,0.3c-0.9,0.3-1.4,1.1-1.3,2.1c0.1,0.9,0.6,1.7,1.5,1.9c0.7,0.2,1.5,0.2,2.2,0.2
		c5.1,0.2,10.3,0.5,15.4,0.6c31.6,0.9,63.2,1.1,94.8,1.1c16.2,0,32.3,0.3,48.5,0.4c15,0.1,30,0,45,0.1c2.3,0,3.9-0.7,5-2.7
		c1-1.8,2.3-3.4,3.9-5.7c-1.6-0.1-2.5-0.2-3.4-0.2c-11.6,0-23.2-0.1-34.8-0.1c-31.5,0.1-62.9,0.1-94.4,0.3
		C413.3,696.3,386.8,696.8,360.4,697.8z"/>
	<path class="st0" d="M229.4,696.7c-5.5-1-11.1-1-16.7-0.9c-14.9,0.2-29.9,2.2-44.9,0.3c-4.5-0.6-9.1-0.8-13.6-1.1
		c-0.9-0.1-2-0.5-2.8,0.8c0.5,2.3,1.1,4.7,1.6,7.2c2,0.6,3.4,0.3,4.9,0.2c10.6-0.5,21.1-1.8,31.6-1.6c9.2,0.2,18.5,0.6,27.7,0.8
		c4.1,0.1,8.2,0,12.3-0.8c1.5-0.3,3.2-0.3,3.2-2.3C232.8,697,231,697,229.4,696.7z"/>
	<path class="st0" d="M275.6,700.1c0-1.4-0.9-2.1-2.2-2.3c-3.3-0.4-6.7-1.2-10-0.8c-2.8,0.4-5.7,0.8-7.9,2.8c0.2,0.5,0.3,0.9,0.5,1
		c5.7,3,11.8,2.7,17.9,1.4C275,702,275.6,701.2,275.6,700.1z"/>
	<path class="st0" d="M310,701.4c1.1-0.4,2.4-0.6,2.4-2.1c0.1-1.8-1.4-1.9-2.7-2.3c-4.5-1.6-8.3,0.3-12.4,2.3
		C301.5,701.3,305.4,703,310,701.4z"/>
	<path class="st0" d="M242,363.9c-1.9,0.5-3.9,0.8-5.8,1.4c-1.8,0.5-3.8,0.3-5.8,2.2c5.7,0.6,10.9,1.1,16.8,1.6
		c-3.7,4.6-7,8.7-10.3,13c-3.2,4.1-6.8,7.9-9.6,12.3c0.2,0.2,0.4,0.4,0.6,0.5c8.5-6.7,17-13.3,25.9-20.3c0.7,4.4,1.2,8.3,1.8,12.2
		c0.3,0,0.6,0.1,0.9,0.1c2-3.5,2.4-7.8,4.2-11.6c0.9,0.6,1.8,1.2,2.5,1.8c6.5,5.5,12.9,10.9,19.3,16.4c4.9,4.2,9.9,8.3,14.9,12.5
		c0.5,0.4,1.2,0.6,1.8,0.9c0.2-0.2,0.3-0.4,0.5-0.6c-2.9-4.7-6.9-8.6-10.3-12.9c-3.4-4.3-7-8.5-10.5-12.7
		c-3.5-4.3-7.1-8.5-10.9-13.1c4.9-1.5,9.3-2.8,13.8-4.1c0-0.3,0-0.6,0-0.9c-4.3-1.2-8.9-0.7-13.6-1.9c7-8.8,13.7-17.4,20.4-26
		c-0.2-0.2-0.4-0.4-0.6-0.6c-8.4,6.6-16.8,13.1-25.6,20.1c-0.3-3.2-0.5-5.8-0.8-8.4c-0.3-2.5,0-5.1-1.4-7.6
		c-1.9,5.4-2.8,11.1-4.4,16.9c-1.1-0.7-1.9-1.1-2.6-1.7c-3.2-2.5-6.4-5-9.6-7.5c-4.6-3.6-9.1-7.2-13.7-10.7
		c-0.8-0.6-1.5-1.5-3.3-1.1c7,9.9,14.7,18.8,21.6,28.6C245.9,363,243.9,363.4,242,363.9z"/>
	<path class="st0" d="M521,143.9c-3,5.3-5.7,10-8.4,14.7c0.3,0.3,0.6,0.6,0.9,0.8c5.2-2.1,9.2-6.4,14.4-8.9c0.4,1.5,0.9,2.8,1.2,4.1
		c2.4,11.4,4.7,22.8,7,34.2c1.8,8.7,3.6,17.4,5.5,26.2c0.2,0.9,0.8,1.6,1.2,2.5c0.4-0.1,0.7-0.1,1.1-0.2c0.8-7.5-0.2-15.1-0.2-22.7
		c0-7.5-0.3-15.1-0.5-22.6c-0.2-7.6-0.4-15.3-0.6-23.5c6.5,2.6,12.5,4.9,18.4,7.2c0.2-0.3,0.5-0.7,0.7-1c-3.6-4.9-9.1-8.3-13.1-13.7
		c15-3.7,29.6-7.2,44.2-10.8c0-0.4-0.1-0.8-0.1-1.2c-14.6,0-29.3,0-44.7,0c2.4-3.7,4.4-6.7,6.2-9.8c1.8-3,4.3-5.6,4.9-9.4
		c-6.7,4.3-12.5,9.6-19,14.5c-0.6-1.6-1.1-2.9-1.4-4.1c-1.4-5.4-2.7-10.8-4-16.3c-1.9-7.8-3.8-15.5-5.7-23.3c-0.3-1.3-0.3-3-2.6-4
		c-0.9,16.6-0.1,32.7-0.9,49.3c-3.1-1.4-5.6-2.5-8.1-3.7c-2.5-1.1-4.9-2.4-7.4-3.4c-2.4-0.9-4.4-3-8.1-2.5
		c5.7,5.5,10.9,10.4,16.8,16c-7.9,1.9-15.1,3.5-22.1,5.3c-6.9,1.8-14.1,2.8-20.8,5.2c0.1,0.4,0.1,0.7,0.2,1.1
		C490.5,143.9,505.4,143.9,521,143.9z"/>
	<path class="st0" d="M863.7,396.6c-0.2-6.5-0.4-13.1-0.5-20.1c5.6,2.2,10.7,4.2,15.8,6.2c0.2-0.3,0.4-0.6,0.6-0.8
		c-3.1-4.2-7.8-7.1-11.2-11.7c12.9-3.1,25.4-6.2,37.9-9.2c0-0.3-0.1-0.7-0.1-1c-12.6,0-25.1,0-38.3,0c2.1-3.2,3.8-5.8,5.4-8.4
		c1.5-2.6,3.7-4.8,4.2-8.1c-5.7,3.7-10.7,8.3-16.3,12.5c-0.5-1.4-0.9-2.4-1.2-3.5c-1.2-4.6-2.3-9.3-3.4-14c-1.6-6.7-3.2-13.3-4.9-20
		c-0.3-1.1-0.3-2.5-2.2-3.5c-0.7,14.2-0.1,28.1-0.8,42.3c-2.7-1.2-4.8-2.2-6.9-3.1c-2.1-1-4.2-2.1-6.3-2.9c-2-0.8-3.8-2.5-7-2.1
		c4.9,4.7,9.4,8.9,14.4,13.7c-6.8,1.6-12.9,3-19,4.5c-5.9,1.5-12.1,2.4-17.9,4.5c0,0.3,0.1,0.6,0.1,0.9c12.7,0,25.5,0,38.9,0
		c-2.6,4.5-4.9,8.6-7.2,12.6c0.3,0.2,0.5,0.5,0.8,0.7c4.5-1.8,7.9-5.5,12.3-7.6c0.4,1.3,0.8,2.4,1,3.5c2,9.8,4,19.5,6,29.3
		c1.5,7.5,3.1,15,4.7,22.4c0.2,0.7,0.7,1.4,1,2.1c0.3-0.1,0.6-0.1,0.9-0.2c0.7-6.5-0.2-13-0.2-19.4
		C864.2,409.5,863.9,403.1,863.7,396.6z"/>
	<path class="st0" d="M435.9,393.6c-5.3,0-5.3,8.3,0,8.3C441.2,401.9,441.2,393.6,435.9,393.6z"/>
	<path class="st0" d="M345.6,390.8c-5.3,0-5.3,8.3,0,8.3C350.9,399.1,350.9,390.8,345.6,390.8z"/>
	<path class="st0" d="M170.5,389c5.3,0,5.3-8.3,0-8.3C165.2,380.7,165.2,389,170.5,389z"/>
	<path class="st0" d="M793.4,343.8c5.3,0,5.3-8.3,0-8.3C788.1,335.5,788.1,343.8,793.4,343.8z"/>
	<path class="st0" d="M436.8,182.5c5.3,0,5.3-8.3,0-8.3C431.5,174.3,431.5,182.5,436.8,182.5z"/>
	<path class="st0" d="M638.6,162.3c5.3,0,5.3-8.3,0-8.3C633.3,154,633.3,162.3,638.6,162.3z"/>
	<path class="st0" d="M272.8,735.5c-5.3,0-5.3,8.3,0,8.3C278.1,743.7,278.1,735.5,272.8,735.5z"/>
	<path class="st0" d="M676.4,862.2c-3.4,0-14.5,7.4-7.4,7.4C672.5,869.5,683.5,862.2,676.4,862.2z"/>
	<path class="st0" d="M750.7,844.8c0.6,0,6.4,8.9,10,8.9C760.1,853.7,754.3,844.8,750.7,844.8z"/>
	<path class="st0" d="M891.1,710.6c-5.3,0-5.3,8.3,0,8.3C896.5,718.9,896.5,710.6,891.1,710.6z"/>
	<path class="st0" d="M688.9,696.8c5.3,0,5.3-8.3,0-8.3C683.5,688.5,683.5,696.8,688.9,696.8z"/>
	<path class="st0" d="M924.8,401.9c5.3,0,5.3-8.3,0-8.3C919.4,393.6,919.4,401.9,924.8,401.9z"/>
	<path class="st0" d="M373.2,853.9c-5.3,0-5.3,8.3,0,8.3C378.6,862.2,378.6,853.9,373.2,853.9z"/>
	<path class="st0" d="M445.8,937.5c-5.3,0-5.3,8.3,0,8.3C451.1,945.8,451.2,937.5,445.8,937.5z"/>
</g>
</svg>
