<?xml version="1.0" encoding="utf-8"?>
<!-- Generator: Adobe Illustrator 22.0.0, SVG Export Plug-In . SVG Version: 6.00 Build 0)  -->
<svg version="1.1" id="Layer_1" xmlns="http://www.w3.org/2000/svg" xmlns:xlink="http://www.w3.org/1999/xlink" x="0px" y="0px"
	 viewBox="0 0 1080 1080" style="enable-background:new 0 0 1080 1080;" xml:space="preserve">
<style type="text/css">
	.st0{fill:#71020C;}
</style>
<g>
	<path class="st0" d="M121.8,672.6h3.1l-2.9-35h-3.5c0,2.2,0.7,8.8-1.3,10.4c-0.7,0.4-2,0.4-3.5-1.1c-13.4-12.3-41-8.8-51.5,5.5
		c-17.4,22.9-17.4,113,0,135.9c8.2,11,24.2,15.6,37.7,12.3c15.9-3.7,23.8-17,25.1-32.6h-4.4c-2.2,26.6-31.1,37.9-39.6,15.2
		c-8.1-21.8-7.7-104.4,0-125.8C89.4,635.1,117.2,645.7,121.8,672.6z"/>
	<path class="st0" d="M196.2,796.1v3.7c17.8,0,35.5,0,53.1,0v-3.7c-4.8,0-13.4,1.5-13.4-17.2c0-39.2,0-78.2,0-117.4
		c0-18.7,8.6-17.2,13.4-17.2v-3.7c-17.6,0-35.2,0-53.1,0v3.7c4.8,0,13.7-1.5,13.7,17.2v96c-8.8-7.7-26.4-12.3-39.9-13.2v-82.8
		c0-18.7,8.6-17.2,13.4-17.2v-3.7c-17.6,0-35.5,0-53.1,0v3.7c4.8,0,13.4-1.5,13.4,17.2c0,39.2,0,78.2,0,117.4
		c0,18.7-8.6,17.2-13.4,17.2v3.7c17.6,0,35.5,0,53.1,0v-3.7c-4.8,0-13.4,1.5-13.4-17.2v-28.6c14.3,1.1,31.3,5.5,39.9,15.6v13
		C209.9,797.7,201.1,796.1,196.2,796.1z"/>
	<path class="st0" d="M410.5,644.4v-3.7h-53.3v3.7c5.1,0,13.7-1.5,13.7,17.2v66.7c0,18.7-8.6,17.2-13.7,17.2v3.7h53.3v-3.7
		c-5.1,0-13.7,1.5-13.7-17.2v-66.7C396.9,642.9,405.5,644.4,410.5,644.4z"/>
	<path class="st0" d="M386.8,839.3c48.2-17.8,38.1-78.2,0-82.4c-18.1-2-35.7,12.3-34.1,34.4c1.3,18.3,19.6,25.5,31.9,21.1
		c8.1-3.1,13-13.2,11-21.6c-2-8.4-14.1-5.9-12.8,2.6c0.4,3.1,2.6,5.9,5.9,6.4c-3.7,12.6-28.4,9.5-30-9
		c-1.3-18.3,13.4-29.7,28.2-27.5c28,4.4,37,44.7,9.3,63.9c-11,7.5-20.7,7.5-28.6,3.1c-33.5-18.3-17.6-76.6-49.3-93.4
		c31.5-8.2,40.5-51.5,26-76.9c-7-12.3-20.3-17.8-33.7-19.2c-4.6-0.2-9.3-0.2-13.9-0.2h-44v3.7c4.8,0,13.4-1.5,13.4,17.2V779
		c0,18.7-8.6,17.2-13.4,17.2v3.7h53.1v-3.7c-4.8,0-13.7,1.5-13.7-17.2v-39.6h6.4c27.5,1.5,6.8,102.2,68.5,102.6
		C373.8,842,380.4,841.5,386.8,839.3z M310.8,732.1c-5.5,3.7-12.3,2.6-18.7,2.6v-73.1c0-6.2,1.1-10.1,2.4-12.6
		c2.9-5.3,10.4-5.7,15-3.3C331,656.5,330.8,718.2,310.8,732.1z"/>
	<path class="st0" d="M465.6,801.6c24-4.4,33.3-29.1,29.3-50.2c-6.6-35.5-57.7-49.8-51.8-87c2.6-17.2,17.6-26.2,32.6-13.4
		c6.2,5.3,9.9,13.2,10.6,24.4l4.2-0.4l0.9-34.1h-3.7c0,2.2-0.2,8.4-2.2,9.7c-0.9,0.4-2,0.2-3.5-1.5c-7.7-8.4-21.4-11.2-33.5-9
		c-26.2,4.8-34.8,33.7-28,55.7c9.7,30.8,56.2,46,50.7,81.5c-2.9,17.2-17.6,26.2-32.6,13.4c-6.4-5.3-9.9-13.4-10.6-24.7h-4.4
		l-0.9,34.8h3.7c0.2-2.2,0.2-8.4,2.2-9.7c0.9-0.4,2-0.2,3.5,1.5C439.8,801,453.5,803.9,465.6,801.6z"/>
	<path class="st0" d="M596.9,666v-10.1v-15.2h-95.4v15.2V666h3.7l-0.2-7.3c0-18.3,31.1-18.1,31.1,2.9c0,39.2,0,78.2,0,117.4
		c0,18.7-8.6,17.2-13.4,17.2v3.7c17.6,0,35.5,0,53.1,0v-3.7c-4.8,0-13.4,1.5-13.4-17.2c0-39.2,0-78.2,0-117.4
		c0-20.9,31.1-20.9,31.1-2.9c0,2.9,0,6.8,0,7.3H596.9z"/>
	<path class="st0" d="M830.1,779l-23.6-138.3c-13,0-25.8,0-38.8,0v3.5c7.5,0,14.5,2.4,12.6,11.5L764.5,727
		c-12.1,1.1-23.1,7.3-30.2,17c-1.8,2.9-4.2,6.6-5.3,10.1c-4,12.3,12.1,14.8,13.7,4.4c0.4-3.5-0.9-7.3-4.4-8.8c0-0.4,0.7-1.3,1.3-2.2
		c5.5-7.7,13.9-12.6,23.3-13.9l-10.1,45.6c-4,18.5-12.3,17.2-17.2,17.2v3.5c10.8,0,21.8,0,32.6,0v-3.5c-4.8,0-13,1.3-9-17.2l10.4-46
		c11.5,0.2,22,5.7,29.1,14.5l5.3,31.3c3.1,18.7-5.3,17.4-10.1,17.4v3.5h12.8c-9.7,27.5-39,36.3-65.6,36.6
		c-37.7,0-68.5-10.1-96.5-19.2c-9.7-3.1-18.9-6.2-28.2-8.6c4.8-18.3,3.7-39,3.7-57.7v-80l33.9,117.2l8.6-0.4l27.3-116.9V779
		c0,18.7-8.6,17.4-13.4,17.4v3.5c17.6,0,35.5,0,53.1,0v-3.5c-4.8,0-13.4,1.3-13.4-17.4c0-39,0-78.2,0-117.4
		c0-18.7,8.6-17.2,13.4-17.2v-3.7c-17.6,0-35.5,0-53.1,0v3.7c1.1,0,2.2,0,3.3,0c4.6,0.2,9.5,2.4,6.2,17.2l-19.2,79.1l-23.1-79.1
		c-4.8-18.7,5.5-17.2,10.3-17.2v-3.7c-17.8,0-35.7,0-53.7,0v3.7c4.8,0,13.7-1.5,13.7,17.2v89.9c0,18.3,1.1,37.9-3.5,55.7
		c-20-5.1-52.6-10.1-71.6,1.8c-18.5,11.5-13.2,33,5.9,41c28.6,11.7,60.3-7.7,69.8-35.2c9.3,2.4,18.5,5.5,28,8.6
		c28.4,9.3,59.7,19.4,98.4,19.4c30.4,0,62.3-11.2,72.2-42.7h33.3v-3.5C841.6,796.4,833,797.7,830.1,779z M770.9,727l13.9-61.9
		l12.1,72C789.4,731,780.4,727.4,770.9,727z M547.1,844.2c-14.5-5.9-19.4-21.1-5.1-30.2c17.2-10.6,48.2-5.3,66.5-0.9
		C600.2,836.9,572.2,854.5,547.1,844.2z"/>
	<path class="st0" d="M879.3,664.4c2.6-17.2,17.6-26.2,32.6-13.4c6.2,5.3,9.9,13.2,10.6,24.4l4.2-0.4l0.9-34.1h-3.7
		c0,2.2-0.2,8.4-2.2,9.7c-0.9,0.4-2,0.2-3.5-1.5c-7.7-8.4-21.4-11.2-33.5-9c-26.2,4.8-34.8,33.7-28,55.7c9.7,30.8,56.2,46,50.7,81.5
		c-2.9,17.2-17.6,26.2-32.6,13.4c-6.4-5.3-9.9-13.4-10.6-24.7h-4.4l-0.9,34.8h3.7c0.2-2.2,0.2-8.4,2.2-9.7c0.9-0.4,2-0.2,3.5,1.5
		c7.7,8.4,21.4,11.2,33.5,9c24-4.4,33.3-29.1,29.3-50.2C924.4,716,873.3,701.7,879.3,664.4z"/>
	<path class="st0" d="M493.2,582.3v0.2c-1.6,0-2.3,0.6-2.3,1.7c0,0.6,0.3,1.2,0.8,1.7c0.5,0.5,1.2,0.8,1.9,0.8
		c0.6,0,1.2-0.2,1.7-0.6c0.5-0.4,0.8-0.9,0.8-1.5c-0.1-0.6-0.4-1.2-1-1.6C494.4,582.6,493.8,582.3,493.2,582.3z"/>
	<path class="st0" d="M509.5,631.6c4.8,0.4,9.3-0.7,13.6-3.4c2.3-1.5,4.3-3.2,6.1-5.1c1.8-1.9,3.4-4,4.8-6.2
		c2.6-4.4,4.5-8.8,5.7-13.5c1.1-4.6,1.7-9.3,1.8-13.9c0-4.4-0.4-8.5-1.2-12.3c-0.8-3.8-2.1-7.6-3.8-11.3l0.3-0.5
		c-1.3-2.7-2.9-5.2-4.8-7.5c-1.9-2.3-4.2-4.2-6.9-5.8c-6-3.7-12.2-4.2-18.8-1.6c-2.4,0.9-4.6,2.2-6.5,3.7c-1.9,1.5-3.7,3.3-5.2,5.3
		c-3,3.7-5.2,7.7-6.8,11.8c-1.6,4.2-2.7,8.6-3.3,13.2c-0.2,0.8-0.3,1.2-0.4,1.3c-0.1,0.1-0.5,0.1-1.2-0.1c-1.2-0.2-2,0-2.3,0.8
		c-0.4,0.8-0.2,1.5,0.6,2.2c1.1,0.9,1.8,1.8,2.2,2.9c0.3,1.1,0.6,2.3,0.6,3.5c0.2,2.6,0.5,5.2,1,7.8c0.5,2.6,1.2,5.1,2.2,7.6
		c1.1,3,2.4,5.7,4,8.2c1.6,2.5,3.5,4.8,5.8,6.9C500.4,629.3,504.7,631.2,509.5,631.6z M514.3,555.9c0.8-0.6,1.7-1.1,2.8-1.5
		c1-0.3,2-0.3,3,0c2.5,1,4.6,2.4,6.4,4s3.4,3.6,4.8,5.8c1.6,2.6,2.9,5.3,3.8,8.1c0.9,2.8,1.6,5.7,2,8.7c1.4,9.9,0.3,19.3-3.4,28.2
		l-0.3-0.1c-1.9,4.6-4.5,8.7-8,12.4c-1.5,1.6-3.1,2.4-4.7,2.6c-1.7,0.2-3.4,0-5.2-0.6c-1.8-0.6-3.4-1.6-4.7-2.8
		c-1.4-1.2-2.5-2.7-3.6-4.3c-1.2-1.9-2.1-3.9-2.7-6c-0.7-2.1-1.1-4.2-1.5-6.5c-0.2-1.8-0.3-3.7-0.3-5.6c0-1.9,0-4.2,0-6.9
		c-0.2-3.3,0.1-6.9,0.7-10.8c0.6-3.8,1.6-7.7,3-11.6c0.7-2,1.5-3.9,2.5-5.8c0.9-1.8,2.1-3.6,3.4-5.2
		C512.8,557.2,513.5,556.5,514.3,555.9z M488.9,591.1c-0.5,0.2-0.9,0.1-1-0.1c-0.1-0.2-0.2-0.5-0.2-0.9c0-1.3,0.1-2.6,0.2-3.8
		c0.2-1.2,0.3-2.5,0.6-3.8c0.6-3.3,1.5-6.6,2.6-9.7c1.1-3.1,2.7-6.1,4.7-8.9c1.6-2.3,3.5-4.2,5.6-5.9c2.1-1.7,4.5-3,7.3-3.8
		c0.2-0.1,0.4-0.1,0.7-0.1l0.3,0.3c-0.4,0.5-0.8,0.9-1.2,1.4c-0.4,0.5-0.8,1-1.2,1.5c-2,2.7-3.6,5.6-4.7,8.7
		c-1.1,3.1-2.1,6.3-2.9,9.6c-0.5,2.3-1,4.5-1.2,6.9c-0.3,2.3-0.4,4.7-0.3,7l-0.1,0.1v1c0,0.6-0.3,0.8-0.9,0.6
		c-1.4-0.6-2.8-0.9-4.2-0.9C491.7,590.3,490.3,590.6,488.9,591.1z"/>
	<path class="st0" d="M561.5,580.5l0.1-0.1c-0.6,0-1.2,0.2-1.6,0.7c-0.5,0.5-0.7,1-0.7,1.5c0,0.5,0.2,0.9,0.6,1.3
		c0.4,0.4,0.8,0.6,1.3,0.6c0.5,0,1-0.2,1.4-0.6c0.4-0.4,0.6-1,0.6-1.6C563.2,581.1,562.6,580.5,561.5,580.5z"/>
	<path class="st0" d="M590.1,550.5c-3-1.2-6.2-1.8-9.8-1.6c-2.4,0.1-4.8,0.3-7.1,0.7c-2.3,0.4-4.7,0.7-7,1c-2.6,0.4-5.3,0.6-7.9,0.8
		c-2.6,0.1-5.2-0.4-7.8-1.5c-0.5-0.2-1-0.3-1.4-0.1c-0.4,0.2-0.7,0.5-0.8,0.9c-0.4,0.9-0.1,1.7,0.8,2.2c0.5,0.3,0.9,0.6,1.4,0.8
		c0.5,0.2,1,0.4,1.5,0.5c1,0.4,1.6,0.7,1.8,0.9c0.2,0.2,0.3,0.9,0.2,2.1c-0.1,2.1-0.2,4.2-0.2,6.3c-0.1,2.1-0.1,4.2-0.1,6.3
		c0,5.3-0.1,10.5-0.3,15.7c0,0.2,0,0.3,0,0.6c0,0.2-0.1,0.4-0.2,0.6c-0.4,0.1-0.7,0-0.9-0.2c-0.2-0.2-0.5-0.4-0.8-0.5
		c-1.2-0.5-2.1-0.3-2.6,0.6c-0.5,0.9-0.3,1.7,0.7,2.4c1.4,1,2.4,2.2,2.9,3.6c0.5,1.4,0.8,2.9,0.8,4.5c0,1.6-0.1,3.3-0.2,4.9
		c-0.1,1.6-0.2,3.3-0.2,4.9c0,2.6,0,5.3-0.1,7.9c0,2.6-0.1,5.2-0.3,7.9c-0.1,0.6-0.2,1.1-0.3,1.5c-0.2,0.4-0.5,0.7-1.2,0.9
		c-0.9,0.4-1.7,0.9-2.3,1.4c-0.9,0.7-1.1,1.5-0.6,2.4c0.5,0.8,1.2,1,2.2,0.6l0.7-0.3c2-1.1,4.1-1.7,6.2-1.9s4.3-0.1,6.6,0.2
		c1.1,0.2,2.2,0.4,3.3,0.6c1.1,0.3,2.2,0.5,3.3,0.8c0.7,0.2,1.5,0.3,2.3,0.3c1.3,0.2,2.1-0.5,2.2-1.9c0.1-1-0.5-1.7-1.6-2l-2.8-0.7
		c-0.8-0.1-1.1-0.5-0.9-1.4c0.2-2.1,0.2-4.2,0.2-6.3c0-2.1,0-4.2,0-6.3v-16.4c0-0.4,0-0.8,0.1-1.2c0-0.4,0.2-0.8,0.6-1.2
		c0.5-0.5,1.1-1,1.9-1.4c0.8-0.4,1.7-0.7,2.6-0.9c0.9-0.2,1.9-0.3,2.8-0.2c0.9,0,1.7,0.2,2.4,0.5c1.6,0.7,2.4,1.9,2.2,3.7
		c-0.1,0.4-0.2,0.7-0.2,1c-0.1,0.3-0.2,0.7-0.2,1c-0.1,0.5-0.1,0.9-0.1,1.4c0,0.5,0.2,0.9,0.5,1.3c0.4,0.6,0.9,1,1.6,1
		c0.7,0,1.2-0.3,1.6-0.9c0.4-0.5,0.5-1,0.3-1.6c-0.1-1.2,0.2-2.6,0.8-4c0.4-0.9,0.7-1.7,1-2.5c0.3-0.8,0.5-1.7,0.7-2.5
		c0.4-1.6,0.3-3.1-0.1-4.4c-0.5-1.3-1.2-1.9-2.2-1.6c-1.1,0.2-1.6,1.1-1.4,2.6c0,0.2,0,0.3,0.1,0.5c0,0.2,0.1,0.4,0.1,0.5
		c0,0.4,0,0.8,0,1.1s-0.2,0.8-0.6,1.2c-1.1-1-2.2-1.7-3.4-2c-1.2-0.3-2.5-0.5-3.8-0.5c-1.1,0-2.1,0.1-3,0.4c-0.9,0.3-1.9,0.6-2.8,1
		c-0.6,0.2-1,0.3-1.1,0.2c-0.1-0.1-0.2-0.5-0.3-1.1V585c0.1-5,0.1-9.9,0.1-14.9s0.1-9.9,0.2-14.9c0-0.6,0.1-1,0.3-1.2
		c0.2-0.2,0.6-0.3,1-0.4c0.9-0.2,1.7-0.3,2.6-0.4s1.8-0.2,2.6-0.3c1.6-0.2,3.1-0.2,4.7-0.1c1.6,0.1,3.2,0.3,4.7,0.7
		c1.8,0.5,3.3,1.2,4.4,2.3c1.2,1,2,2.5,2.4,4.3c0.5,1.9,1.3,2.6,2.6,2.2c1.2-0.4,1.6-1.5,1.2-3.3l0.2-0.1
		C596.2,554.8,593.8,552,590.1,550.5z M566.2,556.3v0.1c-0.2,2.6-0.2,5.3-0.1,8c0.1,2.7,0,5.8-0.1,9.2v12.4v1.4
		c-0.1,1-0.2,1.6-0.4,1.8c-0.2,0.2-0.8,0.1-1.8-0.2c-1-0.3-2.1-0.3-3.5,0.1l-1.7,0.7c-0.5,0.2-0.9,0.2-1,0.1c-0.2-0.1-0.2-0.4-0.2-1
		c0-0.9,0-1.9-0.1-2.8c0-0.9,0-1.9,0.1-2.8c0.2-2.8,0.3-5.6,0.3-8.5c0-2.8,0-5.7,0.1-8.5l0.3-9.4c0-0.8,0.1-1.3,0.3-1.5
		c0.2-0.2,0.6-0.3,1.3-0.3c0.8,0,1.7-0.1,2.6-0.2c0.9-0.1,1.7-0.2,2.6-0.2c0.6,0,1,0.1,1.2,0.3C566.2,555.3,566.3,555.7,566.2,556.3
		z"/>
	<path class="st0" d="M700.1,625c-0.5,0-1-0.1-1.6-0.3c-1.5-0.2-2.4-1.1-2.7-2.6c-0.6-3-1.3-6.1-2-9.1c-0.7-3-1.5-6.1-2.2-9.1
		l-11.2-49c-0.3-1.3-0.4-2.1-0.3-2.4c0.1-0.3,1-0.4,2.6-0.4c1.9,0,2.8-0.7,2.8-2c0-1.2-0.9-1.8-2.8-2c-1.1-0.1-2.2,0-3.2,0.1
		c-1.1,0.2-2.1,0.4-3.2,0.7c-1.5,0.4-2.9,0.6-4.4,0.7c-1.4,0.1-2.9-0.2-4.4-0.7c-0.4-0.2-0.8-0.3-1.2-0.3c-0.4,0-0.8-0.1-1.2-0.2
		c-1-0.2-2-0.3-3-0.3c-1,0-2,0-3,0.1c-1.1,0.2-1.6,0.7-1.6,1.6c0,1,0.5,1.6,1.5,1.9c0.3,0.1,0.6,0.1,0.9,0.1c0.3,0,0.7,0,1,0
		c1.2,0.1,1.8,0.2,2,0.4c0.2,0.2,0,0.8-0.3,1.9l-10.1,32.5c-0.2,0.4-0.3,0.8-0.4,1.1c-0.1,0.3-0.4,0.7-0.8,1.1
		c-0.2-0.2-0.3-0.3-0.3-0.5c0-0.2-0.1-0.3-0.3-0.5l-0.7-0.7c-0.9-0.6-1.6-0.6-2.2,0c-0.7,0.6-0.8,1.4-0.3,2.3
		c0.1,0.2,0.2,0.3,0.2,0.3c0.1,0.1,0.2,0.2,0.2,0.3c0.6,1.1,1.1,2.2,1.3,3.4c0.3,1.2,0.2,2.4-0.2,3.7c-1.4,4.4-2.8,8.8-4.1,13.2
		c-1.3,4.4-2.7,8.7-4.2,13.2l-0.3,0.7c-0.2,0.8-0.8,1.2-1.6,1.2c-0.4,0-0.8,0-1.2,0c-0.4,0-0.8,0-1.2,0.1c-1.1,0.2-1.6,0.7-1.6,1.6
		c0,1,0.5,1.6,1.5,1.7c0.6,0.2,1.3,0.3,1.9,0.3c0.7,0.1,1.3,0.1,1.9,0c2.2-0.2,4.2-0.7,6.2-1.4c2.2-0.9,4.3-0.9,6.4-0.1
		c0.6,0.2,1.3,0.4,2,0.6c0.7,0.2,1.4,0.3,2,0.5c0.9,0.2,1.7,0.3,2.4,0.2c0.9-0.2,1.5-0.7,1.6-1.6c0.1-0.9-0.3-1.6-1.3-2
		c-0.2-0.2-0.5-0.2-0.8-0.3c-0.3,0-0.5-0.1-0.8-0.2c-0.6-0.2-1-0.3-1-0.4c-0.1-0.1,0-0.5,0.1-1.1c0.2-0.8,0.3-1.4,0.5-1.7l5.6-17.5
		c0.2-0.8,0.4-1.2,0.6-1.4c0.2-0.2,0.7-0.3,1.6-0.3c3.3-0.2,6.5-0.2,9.6-0.2c3.1,0,6.4,0,9.6-0.1c1.1,0,1.7,0.1,1.9,0.2
		c0.2,0.2,0.4,0.8,0.6,1.9c0.7,2.9,1.4,5.7,2,8.6c0.7,2.8,1.3,5.7,1.9,8.6c0.2,0.9,0.2,1.4,0.1,1.6c-0.1,0.2-0.5,0.5-1.4,0.9
		c-0.8,0.3-1.6,0.6-2.3,0.8c-0.8,0.2-1.6,0.4-2.4,0.6c-1.3,0.2-1.9,0.8-1.7,1.9c0.2,1,0.9,1.5,2.1,1.5c0.4,0,1-0.1,1.7-0.2
		c0.6-0.2,1.2-0.3,1.9-0.5c0.6-0.2,1.2-0.4,1.9-0.6c1.6-0.7,3.3-0.7,4.9,0c0.9,0.4,1.8,0.6,2.7,0.8c0.9,0.1,1.9,0.2,2.8,0.3
		c0.9,0.2,1.6-0.2,2.1-1c0.3-0.5,0.3-1,0-1.6c-0.4-0.4-1-0.8-1.8-0.9C701.2,625.1,700.6,625,700.1,625z M663.5,590.4h-0.1
		c-0.1,0.2-0.1,0.5-0.2,0.8c0,0.3-0.2,0.5-0.5,0.8c-0.5-0.4-1-0.8-1.4-1.3c-0.4-0.5-0.9-0.9-1.5-1.2c-0.6-0.3-1.3-0.4-1.9-0.4
		c-0.7,0-1.3,0.1-2,0.3c-0.2-0.5-0.2-1-0.1-1.3c0.1-0.3,0.2-0.7,0.4-1.1l7.3-23.4c0.5-1.6,0.9-3.1,1.3-4.5c0.4-1.5,0.8-3,1.2-4.5
		c0.2-0.9,0.5-1.4,0.8-1.5c0.3-0.2,0.8-0.1,1.7,0.1c1.9,0.5,3.6,0.5,5.2,0.2c0.6-0.2,1-0.2,1.1,0c0.1,0.2,0.1,0.5,0.1,1.2
		c-0.1,0.8-0.2,1.5-0.4,2.2c-0.2,0.7-0.4,1.4-0.6,2.1L663.5,590.4z M685.1,595.6c-0.2,0.2-0.5,0.2-1.2,0.2v-0.1h-16.4
		c-0.7,0-1.1-0.1-1.2-0.3c-0.1-0.2-0.1-0.6,0.2-1.3c0.5-1.6,0.9-3.1,1.4-4.5c0.5-1.4,0.9-2.9,1.4-4.4l7.3-22.4
		c0.1-0.2,0.1-0.5,0.2-0.8c0-0.3,0.3-0.5,0.6-0.8c0.3,1.3,0.6,2.6,0.9,3.8c0.3,1.2,0.6,2.5,0.9,3.7l5.6,24.5l0.3,1.1
		C685.3,595.1,685.3,595.5,685.1,595.6z"/>
	<path class="st0" d="M703.5,625.8c0,0.1,0,0.1,0,0.2c0.1,0.1,0.1,0.1,0.2,0.2L703.5,625.8z"/>
	<path class="st0" d="M662.1,579.7l0.1-0.1c-0.6-0.1-1.2,0.1-1.6,0.6c-0.5,0.5-0.7,1-0.8,1.6c-0.1,0.6,0.1,1.1,0.4,1.6
		c0.3,0.4,0.8,0.7,1.5,0.8c0.6,0.1,1.2-0.1,1.7-0.6c0.5-0.5,0.8-1.1,0.8-1.7c0-0.6-0.2-1.1-0.5-1.5
		C663.2,579.9,662.7,579.7,662.1,579.7z"/>
	<path class="st0" d="M812.7,604.2c1.7-7.9,3.4-15.7,5-23.4c1.6-7.8,3.3-15.6,5-23.4c0.2-0.9,0.3-1.5,0.5-2c0.2-0.5,0.3-0.8,0.6-1.1
		c0.2-0.3,0.6-0.5,1-0.7c0.5-0.2,1.1-0.4,1.9-0.6c0.2-0.1,0.5-0.1,0.8-0.1s0.5,0,0.8-0.1c0.5,0,0.8,0,1-0.1c1.2-0.2,1.9-0.9,1.9-2
		c0-1.2-0.7-1.9-2.1-2.1l0.9-0.1h-1c-0.9-0.1-1.6,0-2.3,0.2c-0.7,0.2-1.4,0.5-2.1,0.9c-1.9,1-3.7,1-5.6,0.1
		c-0.3-0.2-0.6-0.3-0.9-0.4c-0.3-0.1-0.7-0.3-1-0.4c-0.4-0.2-0.8-0.3-1.2-0.3c-0.4-0.1-0.8-0.1-1.2,0c-1.3,0.2-2,0.7-2,1.7
		c0,0.9,0.6,1.5,1.7,1.7c0.6,0.2,1.2,0.3,1.7,0.5c0.5,0.2,1,0.4,1.6,0.6c0.7,0.3,1.2,0.5,1.5,0.7c0.3,0.2,0.5,0.3,0.5,0.5
		c0,0.2,0,0.5-0.1,0.8c-0.1,0.3-0.2,0.8-0.3,1.5c-1.9,9.3-3.9,18.5-5.8,27.6c-1.9,9.2-3.9,18.4-5.9,27.6c-0.1,0.3-0.1,0.6-0.2,0.9
		c0,0.3-0.3,0.6-0.6,0.9c-0.2-0.4-0.3-0.7-0.3-1c0-0.3-0.1-0.6-0.2-0.9l-7-36l-4.2-21c-0.1-0.4-0.2-0.7-0.3-1
		c-0.2-0.3-0.2-0.7,0-1.1c0.2-0.5,0.5-0.7,0.9-0.6c0.4,0.2,0.8,0.2,1.2,0.1c1.2-0.2,1.8-0.7,2-1.7c0.2-0.9-0.2-1.6-1.2-2
		c-0.7-0.3-1.6-0.5-2.7-0.5c-2.2,0.2-4.2,0.7-5.9,1.5c-2.3,1.2-4.8,1.3-7.5,0.2l-3.1-1c-1.1-0.3-2.3-0.3-3.7-0.1
		c-0.9,0.2-1.4,0.7-1.4,1.6c0,0.9,0.5,1.5,1.4,1.7c0.5,0.2,0.8,0.2,1.1,0.2c1.1-0.1,1.8,0.1,2,0.6c0.3,0.5,0.5,1.1,0.6,2
		c1.5,6.7,2.9,13.3,4.2,19.9c0.3,1.3,0.3,2.8-0.1,4.4l-7,32.5c-0.1,0.3-0.1,0.6-0.2,0.9c0,0.3-0.2,0.6-0.5,0.9
		c-0.2-0.4-0.4-0.7-0.4-1c0-0.3-0.1-0.7-0.2-1c-1.4-7.1-2.8-14.1-4.1-21c-1.4-6.9-2.7-13.9-4.1-21c-0.5-2.5-1-5-1.5-7.5
		c-0.5-2.5-1-5-1.6-7.5c-0.1-0.3-0.2-0.6-0.3-0.9c-0.1-0.3-0.1-0.6,0.1-0.9c0.2-0.5,0.5-0.6,0.9-0.5c0.3,0.2,0.7,0.2,1.1,0.1h0.3
		c1-0.2,1.6-0.7,1.9-1.5c0.2-0.9-0.2-1.7-1.2-2.2c-0.6-0.3-1.3-0.5-1.9-0.5c-0.7,0-1.3,0-1.9,0.2c-0.9,0.2-1.7,0.3-2.5,0.5
		c-0.8,0.2-1.6,0.5-2.3,0.9c-1.2,0.6-2.5,0.9-3.7,0.9c-1.2,0-2.4-0.2-3.7-0.7l-3.2-1c-1-0.3-2.2-0.4-3.5-0.2
		c-1.2,0.2-1.9,0.7-1.9,1.7c0,1,0.6,1.6,1.7,1.9h0.3c1.1-0.1,1.8,0.1,2.1,0.6c0.3,0.5,0.6,1.2,0.8,2.2c1.1,4.4,2.1,8.8,2.9,13.2
		s1.7,8.8,2.6,13.2c0.2,1.1,0.2,1.7,0.1,1.9c-0.1,0.2-0.7,0.3-1.7,0.5c-1.2,0.2-1.8,0.7-2,1.6c-0.2,1,0.3,1.6,1.3,1.9
		c1.4,0.4,2.4,1,3.1,2c0.7,0.9,1.1,2.1,1.3,3.4l1.4,7.7l4.5,23.4c0.2,0.9,0.2,1.6,0,1.9c-0.2,0.3-0.7,0.7-1.6,1
		c-0.4,0.2-0.8,0.3-1.2,0.4c-0.4,0.1-0.8,0.3-1.2,0.4c-1,0.4-1.4,1-1.3,1.9c0.2,0.9,0.7,1.4,1.7,1.4c0.3,0,0.8-0.1,1.4-0.2
		c0.6-0.2,1.2-0.3,1.7-0.5s1-0.4,1.6-0.6c0.6-0.3,1.2-0.6,1.9-0.9c0.6-0.3,1.3-0.5,2-0.6c1.7-0.4,3.4-0.5,5-0.3
		c1.6,0.2,3.3,0.5,4.9,1c0.9,0.3,1.7,0.6,2.4,0.9c0.8,0.3,1.6,0.5,2.5,0.6c0.4,0.1,0.8,0.1,1.2,0.2c0.4,0,0.8,0,1.2-0.1
		c0.9-0.2,1.5-0.7,1.6-1.6c0.2-0.9-0.3-1.6-1.3-2c-0.4-0.2-1-0.3-1.7-0.5c-0.5-0.1-1-0.2-1.5-0.3c-0.5-0.2-0.9-0.3-1.4-0.5
		c-0.9-0.2-1.2-0.7-0.9-1.5c0.1-0.2,0.1-0.3,0.1-0.5c0-0.2,0-0.4,0.1-0.5l5.6-25.9c0.3-1.4,0.6-2.8,0.9-4.3c0.3-1.4,0.6-2.9,1-4.5
		c0.3,0.4,0.5,0.8,0.5,1.1c0,0.3,0.1,0.7,0.2,1l6.6,33.9c0.2,0.7,0.2,1.2,0,1.4c-0.2,0.2-0.5,0.5-1.2,0.9c-0.4,0.2-0.8,0.4-1.3,0.5
		c-0.5,0.1-0.9,0.3-1.4,0.4c-1,0.2-1.5,0.9-1.4,1.9c0.2,1.1,0.8,1.6,2,1.6c0.3,0,0.8-0.1,1.4-0.2c0.6-0.2,1.2-0.4,1.7-0.6
		c0.5-0.3,1-0.6,1.6-0.9c0.6-0.3,1.2-0.6,1.8-0.9c0.6-0.3,1.2-0.5,1.8-0.6c1.7-0.4,3.4-0.5,5-0.3c1.6,0.2,3.2,0.5,4.8,1
		c0.9,0.3,1.7,0.6,2.4,0.9c0.8,0.3,1.6,0.5,2.5,0.6c0.4,0.1,0.8,0.1,1.2,0.2c0.4,0,0.8,0,1.2-0.1c1.2-0.2,1.8-0.7,1.8-1.7
		c0-0.9-0.5-1.6-1.4-2l-1.4-0.3c-0.4-0.2-0.8-0.3-1.2-0.3c-0.4,0-0.8-0.1-1.2-0.3c-0.9-0.3-1.3-0.6-1.5-0.8
		c-0.1-0.2-0.1-0.8,0.1-1.7L812.7,604.2z M760,587.4c-1.3,0.3-2.5,0.7-3.8,1.3c-0.3-0.2-0.5-0.5-0.5-0.8c0-0.3-0.1-0.5-0.2-0.8
		l-5.9-30.1c-0.2-1.1-0.3-1.8-0.3-2.2c0-0.4,0.8-0.5,2.5-0.5c1.2,0.1,2.6-0.1,4-0.6c0.6-0.2,1-0.3,1.2-0.2c0.2,0.1,0.3,0.5,0.5,1.1
		l1.4,6.6l4.9,24.8c0.1,0.2,0.1,0.3,0.2,0.5c0,0.2,0,0.4-0.2,0.7C762.3,587.2,761.1,587.2,760,587.4z M792,587.2
		c-1.3,0.2-2.5,0.7-3.8,1.3c-0.3-0.2-0.5-0.4-0.5-0.6c0-0.3-0.1-0.5-0.2-0.8l-5.9-30.4l-0.3-1c-0.1-0.8,0.3-1.2,1-1.2
		c1,0.1,2,0.1,3-0.1c1-0.1,1.9-0.4,2.9-0.8c0.5-0.2,0.8-0.1,0.9,0.2c0.2,0.3,0.3,0.6,0.3,1l1.4,7l4.9,24.8c0.1,0.2,0.1,0.3,0.2,0.5
		c0,0.1-0.1,0.2-0.1,0.4C794.5,587.1,793.2,587,792,587.2z"/>
	<path class="st0" d="M757.8,580.1l-0.1-0.1c-0.6,0-1.1,0.2-1.5,0.7c-0.4,0.5-0.6,1-0.6,1.6c0,0.8,0.3,1.5,0.8,2
		c0.5,0.6,1.2,0.9,1.9,0.9c0.6,0,1.2-0.3,1.7-0.8c0.5-0.5,0.8-1.1,0.8-1.8c0-0.7-0.3-1.3-0.8-1.8
		C759.3,580.4,758.6,580.1,757.8,580.1z"/>
	<path class="st0" d="M790,580l-0.2-0.1c-0.6,0-1.1,0.2-1.5,0.7c-0.4,0.5-0.6,1-0.6,1.6c0,0.8,0.3,1.5,0.8,2
		c0.5,0.6,1.2,0.9,1.9,0.9c0.6,0,1.2-0.3,1.7-0.8c0.5-0.5,0.8-1.1,0.8-1.8c0-0.7-0.3-1.3-0.8-1.8C791.4,580.3,790.8,580,790,580z"/>
	<path class="st0" d="M858.2,628.5c0.8,0.2,1.5,0.1,2.1-0.1c0.9-0.4,1.4-1,1.4-1.9c0-0.9-0.6-1.5-1.8-1.8c-1.2-0.2-2-0.5-2.2-0.7
		c-0.2-0.2-0.3-1-0.3-2.2v-1.4c0.2-3,0.3-6.1,0.5-9.1c0.2-3,0.2-6.1,0.2-9.1c0-1.3,0-2.6,0.1-3.8c0-1.2,0.1-2.5,0.2-3.8
		c0-0.3,0-0.6,0.1-0.9c0-0.3,0.2-0.5,0.5-0.8c1.2-0.9,2.5-1.7,3.8-2.2c1.3-0.5,2.8-0.7,4.4-0.3c1.2,0.2,2.2,0.5,3.1,1.1
		s1.7,1.3,2.5,2.2c0.6,0.7,1,1.4,1.2,2.2c0.2,0.8,0.3,1.6,0.3,2.4c-0.2,3.6-0.3,7.1-0.3,10.7c0,3.5-0.1,7.1-0.2,10.7v3.1
		c0,0.9-0.1,1.5-0.2,1.7c-0.2,0.2-0.7,0.4-1.5,0.8c-0.5,0.2-0.8,0.3-0.9,0.3c-0.8,0.4-1.1,1-1.1,1.7c0.1,0.8,0.6,1.2,1.5,1.4
		c0.7,0.1,1.5,0,2.4-0.2l2.5-0.7c1.7-0.5,3.4-0.9,5.1-1c1.7-0.1,3.4,0.1,5.1,0.8c0.8,0.3,1.6,0.5,2.3,0.6c0.8,0.1,1.6,0.3,2.4,0.4
		c0.9,0.2,1.7,0.1,2.5-0.2c0.8-0.4,1.1-1,1-1.9c-0.1-0.9-0.6-1.5-1.5-1.8c-0.2-0.1-0.6-0.1-1-0.1c-0.6-0.2-1-0.3-1.2-0.5
		c-0.2-0.2-0.3-0.6-0.3-1.3c-0.1-0.9-0.1-1.7,0-2.4c0.1-0.8,0.2-1.6,0.2-2.4l0.7-21.7c0.2-2.8,0.2-5.6,0.2-8.4
		c0-2.8,0.1-5.6,0.2-8.4c0.2-3.5,0.3-6.9,0.5-10.3c0.2-3.4,0.2-6.8,0.1-10.3c0-0.9,0-1.7,0.1-2.6c0-0.9,0.1-1.8,0.1-2.6
		s0.1-1.4,0.3-1.6c0.2-0.2,0.7-0.3,1.5-0.4c0.5,0,0.8,0,1-0.1c1.1-0.2,1.7-0.9,1.9-1.9c0.2-1-0.4-1.7-1.6-2.1v1.3
		c-0.7-0.2-1.5-0.3-2.5-0.1c-0.7,0.2-1.4,0.3-2.1,0.4c-0.7,0.1-1.4,0.3-2,0.6c-1.3,0.6-2.6,1-3.9,1.1c-1.3,0.1-2.6,0-3.9-0.1
		c-1-0.2-2-0.4-2.9-0.8c-0.9-0.4-1.9-0.6-2.9-0.8c-0.5-0.1-1.1-0.1-1.6-0.1c-0.5,0-1,0.1-1.6,0.2c-0.9,0.2-1.3,0.8-1.3,1.7
		c0,0.9,0.5,1.5,1.4,1.7c0.2,0.1,0.6,0.1,1,0.1c0.8,0.1,1.2,0.5,1.2,1.3v1.4l-0.3,14.7c-0.1,2.2-0.1,4.3-0.1,6.5
		c0,2.1,0,4.3-0.1,6.5c0,0.9,0,1.7-0.1,2.5c0,0.8-0.1,1.6-0.2,2.4c0,0.8-0.3,1-1,0.6c-0.3-0.2-0.6-0.3-0.8-0.3
		c-2.1-1-4.2-1.6-6.3-1.7c-2.1-0.1-4.2,0.4-6.3,1.5c-0.2,0.1-0.3,0.2-0.5,0.2c-0.2,0.1-0.4,0-0.6-0.1c-0.2-0.2-0.3-0.5-0.3-0.8
		c0-0.3,0.1-0.5,0.1-0.8c-0.1-1.1-0.1-2.1,0.1-3.2c0.1-1,0.2-2.1,0.2-3.1c0-3.5,0.1-6.9,0.3-10.3c0.2-3.3,0.2-6.8,0.1-10.3
		c0-0.9,0-1.9,0.1-2.8c0-0.9,0.1-1.9,0.1-2.8c0-0.9,0.1-1.4,0.3-1.6c0.2-0.2,0.7-0.3,1.6-0.4h0.7c1.4-0.2,2.1-0.9,2.1-2
		c0-1.1-0.6-1.7-1.9-2c-0.6-0.1-1.2-0.1-1.7,0c-0.6,0.1-1.2,0.2-1.9,0.2c-0.6,0.1-1.2,0.3-1.9,0.6c-2,0.9-4.1,1.4-6.1,1.3
		c-2.1,0-4.1-0.4-6.1-1.1c-0.7-0.2-1.4-0.4-2.2-0.6c-0.7-0.2-1.5-0.2-2.3-0.1c-1.6,0.2-2.3,0.8-2.3,1.9c0,0.9,0.7,1.5,2.2,1.7h0.7
		c0.6,0.2,0.9,0.5,0.9,1v1.4c0.1,1.9,0.1,3.9-0.1,5.8c-0.1,1.9-0.2,3.8-0.2,5.8c-0.1,2.7-0.1,5.4-0.1,8c0,2.6,0,5.3,0,8
		c0,0.4,0,0.7,0,1.1c0,0.3,0,0.7-0.1,1c-0.1,0.6-0.2,1-0.3,1.1c-0.2,0.1-0.5,0.1-1.2,0.1c-1.4-0.2-2.2,0.2-2.5,1.2
		c-0.3,0.9,0,1.7,1,2.2c0.5,0.3,1,0.7,1.2,1.1c0.3,0.4,0.5,0.9,0.8,1.5c0.3,0.6,0.5,1.3,0.6,1.9c0.1,0.7,0.1,1.3,0.1,2l-0.3,23.1
		v4.2c0,0.9-0.1,1.4-0.2,1.6c-0.1,0.2-0.6,0.4-1.5,0.6c-0.5,0.2-0.8,0.3-1.1,0.5c-0.6,0.4-0.9,0.9-0.8,1.6c0.1,0.8,0.5,1.3,1.4,1.5
		c0.7,0.2,1.5,0.2,2.5-0.1l2.1-0.7c1.8-0.6,3.6-1,5.4-1.1c1.8-0.1,3.7,0.2,5.5,0.8c0.8,0.2,1.5,0.4,2.3,0.5
		C856.7,628.2,857.4,628.4,858.2,628.5z M878.4,586.7c0.2-3.5,0.3-7,0.2-10.5c-0.1-3.5,0-7,0.1-10.5c0.1-2,0.2-4,0.2-5.9
		c0.1-1.9,0.1-3.9,0.1-5.9c0-0.8,0.1-1.2,0.2-1.3c0.2-0.1,0.6-0.1,1.3-0.1c1.1,0.2,2.2,0.3,3.4,0.4c1.1,0.1,2.3,0.1,3.5-0.2
		c0.9-0.2,1.4,0.2,1.4,1.3v1.4c0.1,3.8,0,7.6-0.2,11.4c-0.2,3.8-0.4,7.6-0.5,11.4l0.1,0.5l-0.3,9.4c0,0.8-0.1,1.2-0.2,1.3
		c-0.2,0.1-0.5,0-1.2-0.3c-1.3-0.6-2.7-0.8-4-0.6c-1.3,0.2-2.7,0.6-4,1.3c-0.2-0.6-0.2-1.2-0.2-1.6
		C878.3,587.6,878.3,587.1,878.4,586.7z M855.2,567.1c-0.2,3.8-0.4,7.6-0.5,11.4l0.1,0.5l-0.3,9.4c0,0.8-0.1,1.2-0.2,1.3
		c-0.2,0.1-0.5,0-1.2-0.3c-1.3-0.6-2.7-0.8-4-0.6c-1.3,0.2-2.7,0.6-4,1.3c-0.2-0.6-0.2-1.2-0.2-1.6c0-0.5,0-0.9,0.1-1.4
		c0.2-3.5,0.3-7,0.2-10.5c-0.1-3.5,0-7,0.1-10.5c0.1-2,0.2-4,0.2-5.9c0.1-1.9,0.1-3.9,0.1-5.9c0-0.8,0.1-1.2,0.2-1.3
		c0.2-0.1,0.6-0.1,1.3-0.1c1.1,0.2,2.2,0.3,3.4,0.4c1.1,0.1,2.3,0.1,3.5-0.2c0.9-0.2,1.4,0.2,1.4,1.3v1.4
		C855.5,559.6,855.4,563.4,855.2,567.1z"/>
	<path class="st0" d="M882.7,584.1c1.1,0.4,1.9,0.1,2.6-0.9c0.8-1.2,0.6-2.3-0.6-3.5l-0.1-0.2c-0.4-0.3-0.8-0.6-1.1-0.8
		c-0.3-0.2-0.8-0.2-1.3,0.1c-1.1,0.4-1.6,1.2-1.6,2.4c0,0.6,0.2,1.2,0.6,1.8C881.5,583.6,882.1,583.9,882.7,584.1z"/>
	<path class="st0" d="M848.1,579.2h0.1c-0.6,0.5-1,1.1-1.1,1.8c-0.1,0.7,0.1,1.4,0.6,2c0.2,0.4,0.5,0.7,0.9,0.9
		c0.8,0.5,1.6,0.6,2.3,0.1c0.8-0.5,1.2-1.1,1.2-2c0-0.8-0.2-1.5-0.7-2.1C850.3,578.6,849.1,578.3,848.1,579.2z"/>
	<path class="st0" d="M917.7,580.7h-0.2c-0.5-0.1-0.9,0-1.3,0.3c-0.4,0.3-0.7,0.7-0.9,1.2c-0.2,0.7-0.2,1.4,0.1,2.1
		c0.3,0.7,0.7,1.2,1.3,1.6c0.9,0.5,1.7,0.6,2.4,0.1c0.8-0.5,1.2-1.2,1.2-2.1c0-0.7-0.3-1.4-0.8-2
		C918.9,581.3,918.3,580.9,917.7,580.7z"/>
	<path class="st0" d="M931,549c-0.4-0.2-0.8-0.4-1.3-0.4c-0.5,0-0.9,0-1.4,0.1c-0.9,0.2-1.7,0.3-2.4,0.5c-0.7,0.2-1.5,0.4-2.3,0.8
		c-1.5,0.6-3.2,0.9-5,0.9c-1.1,0-2.2-0.1-3.2-0.4c-1.1-0.2-2.1-0.5-3.2-0.9c-0.7-0.2-1.4-0.4-2.1-0.6c-0.7-0.2-1.4-0.2-2.2,0
		c-1.3,0.2-1.9,0.9-1.9,1.9s0.6,1.6,1.8,1.9c0.9,0.2,1.5,0.4,1.6,0.6c0.2,0.2,0.2,0.8,0.2,1.8v9.1c0.1,3.5,0,6.9-0.2,10.3
		c-0.2,3.4-0.3,6.8-0.2,10.3c0,0.9-0.1,1.5-0.2,1.6c-0.2,0.1-0.7,0.1-1.5-0.2c-1.2-0.3-2.1-0.1-2.6,0.7c-0.5,0.9-0.2,1.7,0.9,2.3
		c0.8,0.4,1.3,0.9,1.7,1.5c0.4,0.6,0.7,1.3,1,2c0.4,1,0.6,2,0.5,3c0,1-0.1,2-0.1,3c-0.1,4-0.1,7.9-0.1,11.8c0,3.9-0.1,7.8-0.2,11.8
		c-0.1,0.9-0.2,1.8-0.3,2.6c-0.1,0.8-0.8,1.2-2.2,1.4c-0.8,0.2-1.2,0.7-1.2,1.6c0,0.9,0.5,1.4,1.4,1.6c0.7,0.2,1.4,0.2,2,0
		c0.5-0.2,0.9-0.3,1.4-0.4c0.5-0.1,0.9-0.2,1.4-0.4c1.8-0.6,3.5-1,5.2-1c1.7-0.1,3.5,0.2,5.2,0.8c0.8,0.2,1.5,0.4,2.3,0.5
		c0.7,0.1,1.5,0.3,2.3,0.4c0.8,0.2,1.6,0,2.4-0.3c0.9-0.4,1.2-1,1-1.9c-0.2-0.9-0.6-1.4-1.4-1.6c-0.2-0.1-0.6-0.1-1-0.1
		c-0.7-0.2-1.1-0.3-1.3-0.5c-0.2-0.2-0.2-0.6-0.2-1.3c0-1.7,0-3.4,0.1-5.1c0-1.7,0.1-3.4,0.2-5.1c0.2-3.9,0.3-7.7,0.5-11.5
		c0.1-3.8,0.3-7.7,0.5-11.5c0.1-3,0.1-5.9,0.1-8.7c0-2.9,0.1-5.8,0.2-8.7c0.2-3,0.2-5.9,0.2-8.9c0-3,0-6,0.2-8.9
		c0.1-1.2,0.2-1.9,0.3-2.1c0.2-0.2,0.9-0.4,2.1-0.6h0.7c0.9-0.2,1.4-0.7,1.5-1.5c0.1-0.9-0.3-1.6-1.2-2.1L931,549z M923.3,565.2v1
		c-0.1,3.7-0.2,7.5-0.3,11.2c-0.2,3.7-0.2,7.5-0.1,11.2v1.4c-0.1,0.6-0.2,1-0.3,1c-0.2,0.1-0.5,0-1-0.2c-2.3-1-4.5-1.1-6.9-0.1
		c-0.6,0.3-1,0.4-1.2,0.3c-0.2-0.1-0.2-0.5-0.2-1.2v-6.9c0.2-4.3,0.3-8.6,0.3-13.1c0-4.5,0.1-9,0.1-13.6v-1c0-0.6,0.3-0.9,1-0.8
		l2.8,0.3c0.8,0.2,1.5,0.2,2.3,0.1c0.7-0.1,1.5-0.2,2.3-0.4c0.9-0.1,1.4,0.3,1.4,1.2c-0.1,1.6-0.1,3.1-0.1,4.7c0,1.6,0,3.2-0.2,4.7
		L923.3,565.2z"/>
	<path class="st0" d="M994.4,553.8c-0.3-0.9-0.6-1.7-0.8-2.5c-0.2-0.8-0.3-1.7-0.3-2.5v-0.7c-0.2-0.9-0.6-1.4-1.3-1.5
		c-0.8-0.2-1.4,0.1-2,1.1c-0.2,0.3-0.2,0.5-0.2,0.7c-0.2,0.8-0.7,1.1-1.6,0.9c-3.2-0.6-6.3-0.8-9.3-0.5c-3,0.3-6.1,1-9.1,2.1
		c-1.3,0.5-2.6,0.8-4,1c-1.3,0.2-2.6,0.1-4-0.3c-1.9-0.5-3.8-0.8-5.7-1.1c-1.9-0.3-3.8-0.5-5.8-0.8c-1-0.2-2-0.2-3-0.2
		c-1,0-2,0.1-3,0.2c-0.5,0.2-1,0.2-1.3,0.1c-0.3-0.1-0.6-0.5-0.9-1.1c-0.5-1.1-1.2-1.5-2.1-1.3c-0.9,0.2-1.2,1-1.2,2.2
		c0.1,1.1,0,2.1-0.2,3.1c-0.2,1-0.4,2-0.8,3c-0.2,0.6-0.3,1.2-0.4,1.7c-0.1,0.5-0.3,1.1-0.4,1.7c-0.2,1.2-0.1,2.4,0.5,3.8
		c0.5,1.3,1.4,1.8,2.4,1.5c0.5-0.2,1-0.4,1.2-0.9c0.3-0.4,0.3-1,0.2-1.6c-0.3-1.1-0.3-2.1-0.1-3.1c0.2-1,0.5-2.1,0.7-3.1
		c0.2-0.9,0.9-1.5,2-1.7c1.8-0.3,3.5-0.4,5.2-0.2c1.7,0.2,3.4,0.4,5.1,0.7c1.1,0.2,1.7,0.4,1.9,0.6c0.2,0.2,0.3,0.9,0.3,2.1
		c0,3-0.1,6.1-0.2,9.1c-0.2,3-0.2,6.1-0.1,9.1c0,1.5,0,2.9-0.1,4.4c0,1.4-0.1,2.9-0.1,4.4c0,0.4,0,0.7,0,1c0,0.3,0,0.7-0.1,1
		c-0.2,0.9-0.6,1.2-1.4,0.9c-0.3-0.2-0.5-0.2-0.7-0.2c-1.2-0.2-1.9,0.1-2.3,1c-0.4,0.9,0,1.7,1,2.2c0.6,0.4,1.1,0.8,1.5,1.3
		c0.3,0.5,0.6,1,0.9,1.6c0.3,0.7,0.5,1.4,0.6,2.1c0.1,0.7,0.1,1.4,0.1,2.1l-0.3,16.4c-0.1,1.8-0.1,3.6-0.1,5.4c0,1.8,0,3.6,0,5.4
		c0,0.9-0.1,1.5-0.2,1.7c-0.1,0.2-0.6,0.4-1.5,0.6c-0.3,0-0.5,0-0.7,0.1c-1,0.4-1.4,1-1.3,1.9c0.2,1,0.7,1.6,1.7,1.6
		c0.5,0.2,1,0.2,1.5,0c0.5-0.2,1.1-0.3,1.6-0.4c0.5-0.1,1-0.3,1.5-0.4c1.8-0.6,3.5-1,5.2-1c1.7-0.1,3.5,0.2,5.2,0.8
		c0.9,0.2,1.7,0.4,2.5,0.6c0.8,0.2,1.7,0.3,2.5,0.3c0.4,0,0.7,0,1,0c0.3,0,0.6-0.1,0.9-0.2c0.8-0.4,1.2-0.9,1.2-1.6
		c0-0.8-0.4-1.4-1.3-1.8c-0.4-0.2-1-0.2-1.8-0.2c-0.9,0-1.4-0.5-1.4-1.4c0-0.5,0-1.1-0.1-1.6c0-0.5,0-1,0.1-1.6
		c0.2-1.7,0.3-3.4,0.3-5.1c0-1.7,0.1-3.4,0.2-5.1c0.2-4.2,0.3-8.3,0.3-12.4c0-4.1,0.1-8.2,0.2-12.4v-1.8c0.2-3.7,0.3-7.3,0.5-10.8
		c0.2-3.6,0.2-7.2,0.2-10.8v-7.3c0-0.9,0.1-1.6,0.3-1.9c0.2-0.3,0.8-0.6,1.7-0.8c0.8-0.2,1.4-0.2,2-0.2h5.6c0.9,0,1.7,0.1,2.5,0.3
		c0.8,0.2,1.7,0.4,2.5,0.6c1.2,0.3,2,1.1,2.2,2.4c0.2,0.9,0.3,1.7,0.3,2.6c0.1,0.9-0.1,1.8-0.5,2.6c-0.2,0.5-0.1,1,0.1,1.5
		c0.2,0.4,0.6,0.7,1,0.9c1,0.4,1.8,0,2.5-1c0.5-0.8,0.7-1.7,0.7-2.7c0.1-2-0.2-4.1-0.9-6.2L994.4,553.8z M969.3,574.1
		c-0.1,3.2-0.2,6.5-0.4,9.9c-0.1,1.2-0.1,2.5-0.1,3.7c0,1.2,0,2.4,0,3.7c0,0.8-0.1,1.2-0.2,1.3c-0.2,0.1-0.5,0-1.2-0.3
		c-2.2-1.1-4.4-1.1-6.8,0c-0.6,0.3-1,0.4-1.2,0.3c-0.2-0.1-0.3-0.5-0.2-1.2c0.2-2,0.2-4.1,0.2-6.1c0-2.1,0-4.1,0.1-6.1l0.3-21
		c0-0.9,0.1-1.4,0.2-1.5c0.1-0.2,0.6-0.2,1.5-0.1c1.2,0.1,2.3,0.1,3.4,0.1c1.1,0,2.2-0.2,3.3-0.5c0.6-0.2,1-0.2,1-0.1
		c0.1,0.1,0.1,0.5,0.1,1.1v8.2l0.1-0.5C969.5,567.8,969.4,570.9,969.3,574.1z"/>
	<path class="st0" d="M963.5,582.3c-0.6,0-1.1,0.3-1.6,0.8c-0.4,0.5-0.6,1.1-0.6,1.8c0,0.8,0.3,1.5,0.9,2.1c0.6,0.6,1.2,0.9,1.9,0.9
		c0.6,0,1.2-0.2,1.6-0.7c0.5-0.5,0.7-1.1,0.7-1.8c0-0.8-0.3-1.5-0.9-2.2C964.9,582.7,964.2,582.3,963.5,582.3z"/>
	<path class="st0" d="M1014.7,580.4v-0.1c-0.5,0-1,0.2-1.5,0.7c-0.5,0.5-0.7,1-0.7,1.5c0,0.5,0.2,0.9,0.6,1.3
		c0.4,0.4,0.8,0.6,1.3,0.6c0.5,0,1-0.2,1.4-0.6c0.4-0.4,0.6-0.9,0.6-1.6C1016.3,580.9,1015.8,580.4,1014.7,580.4z"/>
	<path class="st0" d="M1050.3,558.8v0.5c-1.2-4-3.6-6.8-7.3-8.3c-2.3-0.9-4.5-1.4-6.8-1.6c-2.3-0.2-4.5-0.1-6.9,0.2
		c-1.7,0.2-3.4,0.5-5.1,0.8c-1.7,0.3-3.4,0.5-5.1,0.8c-2.6,0.4-5.3,0.6-7.9,0.8c-2.6,0.1-5.2-0.4-7.8-1.5c-0.9-0.4-1.7-0.1-2.2,0.8
		c-0.5,0.9-0.3,1.7,0.7,2.3c0.5,0.4,1,0.7,1.5,0.9c0.5,0.2,1.1,0.4,1.7,0.5c0.9,0.3,1.5,0.6,1.6,0.8c0.2,0.2,0.2,0.7,0.2,1.6
		c0,1.3,0,2.7-0.1,4c0,1.4-0.1,2.7-0.1,4c-0.1,2.3-0.1,4.5-0.1,6.6c0,2.2,0,4.4-0.1,6.6c0,1.4,0,2.8-0.1,4.2
		c-0.1,1.4-0.2,2.8-0.2,4.3c-0.4,0-0.7-0.1-0.9-0.2c-0.2-0.1-0.4-0.2-0.5-0.4c-1.5-0.7-2.5-0.6-3,0.4c-0.5,0.9-0.2,1.7,1,2.7
		c0.3,0.2,0.6,0.3,0.9,0.5c0.3,0.2,0.5,0.4,0.6,0.8c0.6,1,1.1,2,1.5,3.1c0.4,1.1,0.5,2.2,0.5,3.4c-0.2,2.4-0.3,4.8-0.3,7.2
		c0,2.4-0.1,4.8-0.2,7.2c0,1.6,0,3.1-0.1,4.5c0,1.5-0.1,3-0.1,4.5c0,1.3-0.2,2.4-0.6,3.2c-0.4,0.8-1.3,1.5-2.6,2
		c-0.8,0.3-1.3,0.7-1.5,1.2c-0.2,0.5-0.1,1,0.2,1.5c0.5,0.9,1.6,1,3,0.2c2-1.1,4.1-1.7,6.1-2c2.1-0.2,4.2-0.2,6.4,0.1
		c1.2,0.2,2.3,0.4,3.4,0.6c1.1,0.3,2.3,0.5,3.4,0.8c5.8,1.3,11.4,1.1,17-0.7c1.1-0.4,2.1-0.9,3-1.4c0.9-0.5,1.7-1.2,2.5-2.1
		c0.2-0.3,0.4-0.6,0.6-0.9c0.2-0.3,0.4-0.7,0.5-1c0.2-1,0-1.7-0.8-2.2c-0.8-0.5-1.5-0.4-2.2,0.2l-0.7,0.7c-0.5,0.9-1.2,1.5-2,1.9
		c-0.8,0.4-1.6,0.8-2.5,1.1c-1.5,0.5-3.1,0.8-4.8,1.1c-1.8,0.2-3.5,0.2-5.2,0.1c-1.7-0.1-3.5-0.3-5.2-0.7c-0.5-0.2-0.8-0.3-1-0.5
		s-0.3-0.6-0.2-1.2c0.2-2.8,0.2-5.6,0.2-8.5c0-2.8,0-5.7,0.1-8.6v-12.2c0-0.4,0-0.8,0.1-1.2c0.1-0.4,0.3-0.7,0.7-1
		c1.3-1,2.7-1.7,4.2-2.2c1.5-0.4,3.1-0.4,4.8,0.1c2.3,0.6,3.2,2.1,2.8,4.3c-0.1,0.5-0.2,0.9-0.2,1.4c-0.1,0.5-0.1,0.9-0.1,1.4
		c0,0.7,0.2,1.3,0.5,1.9c0.5,0.8,1.2,1.1,2,1c0.9-0.2,1.5-0.7,1.6-1.6v-0.7c-0.1-0.7,0-1.3,0.1-1.9c0.2-0.6,0.4-1.2,0.7-1.8
		c0.4-0.9,0.8-1.7,1.1-2.5c0.3-0.8,0.6-1.7,0.8-2.5c0.4-1.8,0.2-3.5-0.5-5c-0.5-0.9-1.2-1.3-2.1-1c-0.9,0.2-1.3,0.9-1.3,2
		c0,0.2,0,0.5,0.1,0.7c0,0.2,0.1,0.5,0.1,0.7c0.1,0.4,0.1,0.8,0.1,1.2c0,0.4-0.3,0.8-0.6,1.2c-1.2-1.2-2.6-1.9-4.4-2.3
		c-1.5-0.3-2.9-0.3-4.3-0.1c-1.4,0.2-2.8,0.6-4.1,1.2c-0.6,0.3-1,0.4-1.2,0.3c-0.2-0.1-0.3-0.5-0.3-1.2v-1.4
		c0.1-4.8,0.1-9.6,0.1-14.3c0-4.7,0.1-9.5,0.2-14.3c0.1-0.7,0.2-1.1,0.3-1.3c0.1-0.2,0.5-0.3,1.2-0.5c0.9-0.2,1.7-0.3,2.6-0.3
		c0.9-0.1,1.8-0.2,2.6-0.2c1.8-0.2,3.6-0.2,5.4-0.1c1.8,0.1,3.6,0.5,5.4,1.1c2.6,0.9,4.4,2.8,5.2,5.5c0.2,0.4,0.3,0.7,0.3,1.1
		c0.1,0.3,0.2,0.6,0.5,0.9c0.5,0.6,1.1,0.8,1.9,0.6c0.9-0.2,1.3-0.7,1.4-1.5C1050.6,560.2,1050.5,559.5,1050.3,558.8z M1019.1,570.2
		c0,4.5,0,9.2-0.1,13.8c0,0.7,0,1.4,0,2.1c0,0.7,0,1.4-0.1,2.1c-0.1,0.7-0.2,1.1-0.3,1.2c-0.2,0.1-0.5,0.1-1.2-0.2
		c-1-0.4-1.9-0.5-2.8-0.3c-0.9,0.2-1.7,0.4-2.6,0.8c-0.8,0.3-1.2,0.4-1.4,0.3c-0.2-0.1-0.2-0.6-0.2-1.5v-2.8
		c0.2-3.7,0.3-7.4,0.3-11.1c0-3.7,0-7.3,0.2-11.1c0-1.1,0-2.2,0.1-3.3c0-1.1,0.1-2.2,0.1-3.3c0-0.8,0.1-1.3,0.3-1.5
		c0.2-0.2,0.7-0.3,1.4-0.3c0.8,0,1.7-0.1,2.5-0.2c0.8-0.1,1.6-0.2,2.5-0.3c0.7,0,1.1,0.1,1.3,0.3c0.2,0.2,0.2,0.6,0.2,1.2l0.2,0.1
		C1019.1,561,1019,565.6,1019.1,570.2z"/>
	<path class="st0" d="M77,531.8c-4.3,0.2-12,1.9-12-15.4c-0.1-36.2-0.1-72.3-0.2-108.5c0-17.3,7.6-17.1,11.9-17.7c0-1.2,0-2.3,0-3.5
		c-15.7,2.4-31.6,5-47.2,7.7c0,1.1,0,2.2,0,3.4c4.3-0.7,11.9-3.4,12,13.6c0,35.5,0,70.9,0.1,106.4c0,17-7.7,15.9-12,16.1
		c0,1.1,0,2.2,0,3.4c15.8-0.7,31.7-1.3,47.5-1.9C77,534.2,77,533,77,531.8z"/>
	<path class="st0" d="M93.6,404c0.1,37,0.2,74,0.3,111c0,17.7-7.7,16.5-12,16.7c0,1.2,0,2.3,0,3.5c9.9-0.4,19.9-0.7,29.8-1.1
		c0-1.2,0-2.4,0-3.6c-4.3,0.2-12,1.9-12.1-15.9c-0.1-34.2-0.2-68.4-0.2-102.6c10.2,35.8,20.4,72.5,30.6,109.9c2.5-0.2,5-0.3,7.5-0.5
		c8.1-38.3,16.2-77.2,24.3-116.6c0.1,35.6,0.2,71.3,0.4,106.9c0.1,18.5-7.6,17.2-12,17.4c0,1.2,0,2.4,0,3.7
		c15.8-0.5,31.6-0.9,47.6-1.4c0-1.3,0-2.5,0-3.8c-4.3,0.1-12.2,1.9-12.3-16.9c-0.1-39.3-0.3-78.3-0.4-117.6
		c-0.1-18.7,7.8-18.1,12.2-18.5c0-1.3,0-2.5,0-3.8c-16,1.7-31.7,3.6-47.5,5.6c0,1.2,0,2.5,0,3.7c1-0.1,2-0.2,3-0.4
		c4.1-0.3,8.5,1.4,5.4,16.3c-5.6,26.6-11.3,53-16.9,79.1c-7-25.3-14-50.2-20.9-74.7c-4.2-17.5,5.1-17.2,9.4-17.8c0-1.2,0-2.4,0-3.6
		c-15.9,2.1-32.1,4.4-48,6.9c0,1.2,0,2.3,0,3.5C86,388.8,93.6,386.3,93.6,404z"/>
	<path class="st0" d="M236.7,370.8c4.3-0.4,12-2.7,12.1,16.6c0.1,22.6,0.2,45.2,0.2,67.8c0.1,19.3-7.6,18.1-12,18.3
		c0,1.3,0,2.6,0,3.8c15.9-0.7,31.7-1.4,47.6-2c16.8-0.6,26.5-8.8,32-20.9c9.4-20.6,12.7-55.5-0.8-77.7c-5.6-9.2-15.3-14.8-31.5-13.8
		c-15.9,1.2-31.8,2.6-47.6,4.1C236.6,368.2,236.7,369.5,236.7,370.8z M295.2,380.5c7.6,21.7,7.7,53.8,0,76.1
		c-6.3,18.8-22.7,21.8-22.7-2.7c-0.1-22.8-0.2-45.6-0.2-68.4C272.2,360.8,289.4,364,295.2,380.5z"/>
	<path class="st0" d="M288.4,583.2c42.8-3.6,73.4-25.1,110.5-47.2c9.9,27.2,31.3,42.4,56,39.6c24.6-2.7,34.6-29.7,25.5-48
		c4.3,0,8.7,0,13,0c0-8.1,0-16.2,0-24.4c-1.1,0-2.1,0-3.2,0c0,1.6,0,3.2,0,4.8c0,9.5-6.4,14.4-13.1,14.5c-3.2-4-7.6-7.3-13.3-9.4
		c-0.9-2.3-1.5-5-1.5-8.1c0-11.5,0-23.1,0-34.6c14.2,0.2,13.9,4,14.1,14.5c1.1,0,2.2,0,3.4,0c0-11.2,0-22.4,0-33.7
		c-1.1,0-2.2,0-3.4,0c-0.2,10.5,0.2,14.3-14,14.6c0-29.4,0-58.7-0.1-88.1c0-22.7,27.9-22.9,28-3.3c0,3.1,0,4.8,0,5.3
		c1.1,0,2.1,0,3.2,0c0-8.3,0-16.6,0-24.8c-22.3,0-44.6,0.3-66.8,0.8c0,1.3,0,2.7,0,4c4.4-0.1,12.1-1.9,12.1,18.3
		c0,42.4,0.1,84.6,0.1,127c0,2.6-0.1,4.8-0.3,6.7c-7.5,1.4-14.9,3.9-22.6,7.5c-6.8-23-7.8-49.9-31.2-58.1
		c28.1-9.1,36.3-57.1,23.2-84c-6.6-13.1-18.3-18.6-30.6-19.3c-4.2-0.3-8.1-0.1-12.3,0.1c-13.3,0.6-26.5,1.3-39.8,2.2
		c0,1.3,0,2.6,0,4c4.6-0.3,12.3-2.4,12.3,17.6c0.1,41.6,0.2,83.2,0.3,124.8c0.1,19.9-7.7,18.4-12.2,18.5c0,1.3,0,2.6,0,4
		c15.9-0.2,31.9-0.4,47.8-0.6c0-1.3,0-2.7,0-4c-4.5,0.1-12.3,1.8-12.3-18.2c0-14.1-0.1-28.1-0.1-42.2c2.2-0.1,4.5-0.1,6.7-0.2
		c15.6,1,23.1,51.6,28.6,66.2c-36.3,21.7-66.7,43.1-108.5,46.9c-46.6,3.9-62.6-48.1-34.4-72.6c8.3-7.3,20.1-9.8,35-2.7
		c1.8,0.9,3.4,1.8,5.1,2.9c-2.4,3.3-1.8,7.4,0.2,10.4c5.4,8,15.2-0.8,10.6-8.8c-2.8-4.8-8.5-7.9-12.9-10.1
		c-17.4-8.5-31.6-5.4-41.5,3.2C217.9,527.3,235.9,587.5,288.4,583.2z M436.6,518.8c-2.6,5.6-7,4.9-9.9,4.9c0,1.3,0,2.7,0,4
		c15.5-0.1,31.1-0.1,46.6-0.1c10.8,14.2,2.7,38.4-18.7,41.3c-19.4,2.6-30.2-24.7-36.8-43.2C424.3,522.6,430.5,520.2,436.6,518.8z
		 M377.9,455.3c-4.9,4.1-11.1,3.1-16.8,3.3c-0.1-26.1-0.1-52.1-0.2-78.2c0-6.6,0.8-10.9,2.1-13.5c2.6-5.8,9.1-6.3,13.5-3.9
		C396,373.5,395.9,440.1,377.9,455.3z"/>
	<path class="st0" d="M597.7,523.9c-4.5,0-12.1,1.6-14.6-18.7c-7-49.8-14-99.7-21-149.7c-11.7-0.3-23.2-0.5-34.9-0.6
		c0,1.3,0,2.5,0,3.8c6.7,0.1,13.1,2.6,11.3,12.6c-8.3,44.4-16.6,88.9-24.8,133.5c-3.6,20.3-11.1,18.6-15.4,18.6c0,1.4,0,2.7,0,4.1
		c9.7,0,19.6,0,29.3,0c0-1.4,0-2.7,0-4.1c-4.3,0-11.7,1.6-8.1-18.6c1.1-6.1,2.2-12.2,3.4-18.4c12.7-0.9,23.7,1.6,35.4,8.1
		c0.5,3.5,0.9,7,1.4,10.5c2.7,20.3-4.8,18.5-9.1,18.5c0,1.4,0,2.7,0,4c15.8,0.1,31.2,0.2,47.2,0.3
		C597.7,526.6,597.7,525.3,597.7,523.9z M524,480.3c6.1-32.9,12.2-65.8,18.3-98.6c5,35.4,10,70.7,14.9,106
		C546.8,482.3,535.3,479.6,524,480.3z"/>
	<path class="st0" d="M736.3,335.1c-10.7,6.8-16.1,18.4-17.1,30.6c0-0.6,0-1.1,0-1.7c-16-1.3-31.8-2.5-47.7-3.5c0,1.3,0,2.6,0,4
		c1,0.1,2,0.1,3,0.2c4.2,0.5,8.5,3.1,5.3,18.5c-5.8,27.5-11.6,55.1-17.5,82.8c-6.8-28.2-13.7-56.5-20.5-84.9
		c-4.1-20.2,5.2-18,9.6-17.8c0-1.3,0-2.7,0-4c-16-0.9-32.3-1.7-48.3-2.3c0,1.3,0,2.7,0,4c4.4,0.2,12.1-1.2,12,18.9
		c-0.1,42-0.2,83.9-0.3,125.9c0,20.1-7.7,18.3-12.1,18.3c0,1.3,0,2.7,0,4c9.9,0.1,20,0.2,29.8,0.3c0-1.3,0-2.7,0-4
		c-4.3-0.1-12.1,1.5-12-18.6c0.1-38.6,0.2-77.2,0.3-115.8c10.1,42.2,20.1,84.2,30.2,126c2.5,0,5-0.1,7.5-0.1
		c8.4-41.2,16.7-82.2,25.1-122.8c-0.1,38-0.2,76-0.4,114c-0.1,19.7-7.8,18-12.1,17.9c0,1.3,0,2.6,0,4c15.8,0.2,31.6,0.5,47.6,0.9
		c0-1.3,0-2.6,0-3.9c-4.3-0.1-12.3,1.4-12.2-18.2c0.1-41,0.3-81.8,0.4-122.8c0.1-19.4,7.8-17.4,12.2-17c-1,22.4,12.2,46,33.2,45.2
		c21.7-0.7,31.7-26.7,20.5-43c-2.9-4.1-10.6-11.2-15.6-10.8c-6.3,0.5-7.5,12,0.1,14.5c3.2,1.2,6.5,0.4,8.1-3.3c1.4,1.3,2,2,3.1,3.7
		c8.2,12.5-0.1,32.2-16.7,32.6c-27.3,0.9-38.8-49.3-12.6-65.8c23.6-14.7,51.9,4.5,80.5,21.8c10.4,6.3,20.6,12.6,30.1,17.1
		c0,0,0,0.2,0,0.4c-3.8,15.4-3.5,32.7-3.5,49.1c-0.1,22-0.1,44.1-0.2,66.1c-11.6-40-23.3-80.8-34.9-122.3
		c-10.6-1.2-21.1-2.4-31.8-3.5c0,1.3,0,2.5,0,3.8c4.3,0.4,12-0.3,12,18.6c-0.1,39.5-0.3,78.9-0.4,118.4c-0.1,18.9-7.8,17.1-12.1,17
		c0,1.3,0,2.5,0,3.8c9.9,0.3,19.9,0.5,29.8,0.8c0-1.2,0-2.5,0-3.7c-4.3-0.1-12,1.2-12-17.6c0.1-35.6,0.3-71.2,0.4-106.7
		c12.2,43.8,24.4,86.8,36.6,128.8c0.1,0,0.1,0,0.2,0c9.9,0.3,19.9,0.6,29.8,0.9c0-1.2,0-2.4,0-3.6c-4.3-0.2-12,1.1-12-17.2
		c0.1-27.7,0.2-55.5,0.3-83.2c0-16.1-0.5-32.1,3.1-47.5c0.6,0.1,1,0.3,1.6,0.6c11.1,4.3,20.8,7,29.1,8.6c-0.7,0.7-1.4,1.4-2,2.2
		c-15.6,20.1-15.9,108-0.3,130.6c9.8,14.7,32.9,17.9,41-0.4c0,4.1,0,8.1,0,12.2c7.8,0.3,15.6,0.6,23.5,0.9c0-19.6,0-39.1,0-58.7
		c0-17,7.7-14.8,12-14.3c0-1.1,0-2.2,0-3.4c-15.9-1.8-31.6-3.4-47.4-5c0,1.2,0,2.3,0,3.5c4.3,0.4,12-0.2,12,17.1c0,10.4,0,21,0,31.3
		c-2.2,20.9-16.8,35.3-24.3,12.7c-7.1-21.2-6.7-100.1,0.3-119.3c1.5-4.3,4.7-7.1,8.3-8.4c1.4-0.2,2.7-0.4,3.9-0.7
		c2.9-0.1,5.9,0.7,8.6,2.5c10.6,7.1,13.5,25.3,15.3,36.2c0.8,0.1,1.7,0.2,2.6,0.3c-0.6-14.3-1.3-28.6-1.9-43c-1-0.2-2.1-0.3-3.1-0.5
		c0,2,0.6,8.2-1.2,9.3c-0.6,0.5-1.8,0.1-3.1-1.5c-2.5-2.8-5.6-5-8.9-6.6c14.2-8.6,9.4-27.7-7.1-38.1c-25.3-15.7-53.8-2.1-62.4,23.8
		c-9.2-4.5-19.1-10.5-29.3-16.9C792.3,339.1,762.5,319.1,736.3,335.1z M911.8,355.5c12.7,7.7,17,22.5,4.3,28.6c-1,0.5-2.2,1-3.5,1.3
		c-6.4-1.4-13.2-1-18.8,1c-9.4-1-21.3-4-35.8-9.6c-0.4-0.1-0.8-0.3-1-0.3C864.5,354.1,889.5,341.7,911.8,355.5z"/>
	<path class="st0" d="M725.6,526c0,1.3,0,2.6,0,3.9c16,0.3,31.8,0.7,47.8,1.1c0-1.3,0-2.5,0-3.8c-4.5-0.1-12.2,1.3-12.2-17.9
		c0.1-40.1,0.1-27.3,0.2-67.4c0.1-18.9,7.8-17,12.3-16.7c0-1.2,0-2.4,0-3.6c-16-1.2-31.8-2.3-47.8-3.4c0,1.2,0,2.4,0,3.7
		c4.5,0.3,12.3-0.6,12.2,18.5c-0.1,40.5-0.1,27.5-0.2,68C737.8,527.9,730.1,526.1,725.6,526z"/>
	<path class="st0" d="M734.7,364.6c3.4,0.8,6,1.5,7.8,1.9c0-0.1,0-0.3,0-0.4c-1.8-0.7-4.4-1.8-7.5-3
		C734.9,363.6,734.8,364.1,734.7,364.6z"/>
	<path class="st0" d="M303.8,355.6c4.7-0.8,9.6-1.7,14.8-2.5c1.6-1.5,3.7-2.5,6-2.6c6.6-0.4,13.3-0.8,20-1.2
		c30.1-4,66.5-7.6,107.9-9.1l44.8-0.9l44.8,0.9c49.9,1.9,92.4,6.6,125.5,11.6c1.2-0.6,2.6-0.9,3.9-0.9c0.2,0,0.4,0,0.6,0
		c12.9,0.8,25.8,1.8,38.7,2.8c-8.9-3.3-17.8-6.5-24.1-8.3c-30.3-48.5-33.6-87.4-33.6-87.4c10.6,4.9,24.7,17,24.7,17
		s-20.3-38.4-23-63.3c0,0,9.5,6,21.6,11.3c0,0-21-26.8-21.1-47.8c5.6,4.6,14.4,8.8,14.4,8.8c-8.5-10.5-13.1-28.2-11.9-46.2
		c-6.9,16.7-18.9,30.6-31.1,36.2c0,0,9.8,0.1,16.8-1.5c-9.4,18.8-40.1,33.5-40.1,33.5c13.2,0.6,24.4-0.6,24.4-0.6
		c-13.4,21.2-48.6,46.6-48.6,46.6s18-4.5,29.7-4.3c0,0-17.8,28.1-51.5,51.5c-13.9-19.1-27.9-42.3-34.6-64.8c0,0,24,6.9,38.6,13.8
		c-4.4-3.6-38.5-38.4-47.9-68.7c0,0,17.3,6.1,34.9,16c-7-6.1-33.1-34.9-41-57c0,0,12.2,6.9,26.4,10.9c-11.9-10.6-28-33.8-30.3-51.6
		l16,8.8c-15.1-15.5-20.6-34-22.2-51.6c-1.6,17.6-7.1,36.1-22.2,51.6l16-8.8c-2.4,17.8-18.5,41-30.3,51.6
		c14.1-4,26.4-10.9,26.4-10.9c-7.9,22.1-34,50.8-41,57c17.6-9.9,34.9-16,34.9-16c-9.4,30.3-43.5,65-47.9,68.7
		c14.6-6.9,38.6-13.8,38.6-13.8c-6.7,22.5-20.7,45.7-34.6,64.8c-33.7-23.4-51.5-51.5-51.5-51.5c11.7-0.3,29.7,4.3,29.7,4.3
		s-35.2-25.4-48.6-46.6c0,0,11.2,1.2,24.4,0.6c0,0-30.7-14.7-40.1-33.5c7,1.6,16.8,1.5,16.8,1.5c-12.2-5.6-24.2-19.5-31.1-36.2
		c1.2,18-3.4,35.8-11.9,46.2c0,0,8.8-4.3,14.4-8.8c-0.1,21-21.1,47.8-21.1,47.8c12.1-5.3,21.6-11.3,21.6-11.3
		c-2.7,24.9-23,63.3-23,63.3s14.1-12,24.7-17c0,0-3.2,38.9-33.6,87.4c-6.1,1.7-14.4,4.7-22.9,7.8c1,0,1.9-0.1,2.8-0.1
		C294.1,353.1,299.4,354.1,303.8,355.6z"/>
	<path class="st0" d="M358.6,946.4c-14.1,0-22.5,4.2-25.2,12.6c0,21.2,24.1,41.7,72.3,61.3h1.6c0-12.6,4.2-18.9,12.6-18.9h1.6
		c6.3,0,10.5,3.7,12.6,11c-1.1,6.3-2.6,9.4-4.7,9.4l1.6,3.2c12.6,0,21-3.7,25.2-11v-3.1c0-4.5-1-8.6-3.1-12.6
		C424.6,963.7,393.2,946.4,358.6,946.4z"/>
	<path class="st0" d="M374.3,918.1h-7.9c-6.3,0-13.6,6.3-22,18.9h15.7c18.9,0,39.8,6.8,62.9,20.4c26.2,18.1,39.3,31.2,39.3,39.3h3.1
		l1.6-9.4c-2.1-16-4.2-24.9-6.3-26.7C432.5,932.2,403.7,918.1,374.3,918.1z"/>
	<path class="st0" d="M456.1,941.7h1.6v-1.6c-9.4-34.1-14.1-52.9-14.1-56.6c0-12.1,4.2-23.6,12.6-34.6c0-1.8-1-2.9-3.1-3.1h-9.4
		l-9.4,1.6c-7.1,1.1-26.5,21-58.2,59.7v1.6h1.6C400.8,908.7,427,919.7,456.1,941.7z"/>
	<path class="st0" d="M474.9,952.7c32.7-33.5,62.1-50.3,88-50.3v-3.1h-3.1c-32-36.7-53.4-55-64.5-55c-28.3,3.7-42.4,15.7-42.4,36.2
		l18.9,73.9h1.6C474.4,954.2,474.9,953.7,474.9,952.7z"/>
	<path class="st0" d="M589.7,929.1c1.8,1.1,3.9,1.6,6.3,1.6v-1.6c-8.9-11.5-16.2-17.3-22-17.3h-1.6c-8.9,0-19.9,2.1-33,6.3
		c-36.2,16.5-58.2,35.9-66,58.2c3.1,7.6,5.2,14.4,6.3,20.4h3.1c0-3.7,2.6-8.9,7.9-15.7C522.9,946.4,555.9,929.1,589.7,929.1z"/>
	<path class="st0" d="M591.2,940.1h-7.9c-7.1,0-18.6,2.6-34.6,7.9c-39.8,23.1-59.7,43-59.7,59.7c0,9.4,5.8,14.1,17.3,14.1h9.4
		l-3.1-11c0-8.4,4.2-12.6,12.6-12.6c8.4,0,12.6,4.2,12.6,12.6v4.7h1.6l11-3.1c38.8-22.3,58.2-41.7,58.2-58.2
		C608.5,944.8,602.8,940.1,591.2,940.1z"/>
	<path class="st0" d="M689.8,910.4c-5-3.5-10-7.1-15.4-10.9c4.8-3,9.1-5.7,13.5-8.4c-0.1-0.3-0.2-0.6-0.3-0.9
		c-4.9,0-9.7,1.9-15.1,1.9c4.9-11.4,9.6-22.5,14.3-33.6c-0.3-0.2-0.6-0.3-0.8-0.5c-7,9.4-14.1,18.8-21.5,28.8
		c-1.3-3.3-2.2-6.1-3.3-8.7c-1.1-2.6-1.5-5.5-3.7-7.6c-0.5,6.4,0.2,12.6,0.2,19.2c-1.3-0.4-2.4-0.7-3.3-1.1
		c-4.1-1.7-8.3-3.5-12.4-5.2c-5.9-2.5-11.8-5-17.7-7.5c-1-0.4-2.1-1.2-3.8-0.3c10.3,8.5,21,15.8,31.3,24.2c-2.4,1.3-4.3,2.4-6.2,3.4
		c-1.9,1-3.9,2-5.7,3.1c-1.7,1.1-4,1.4-5.5,4c6.3-1.1,11.9-2,18.3-3.1c-2.6,6-5,11.3-7.2,16.8c-2.2,5.3-4.9,10.4-6.6,15.9
		c0.3,0.1,0.5,0.3,0.8,0.4c7.1-9.6,14.3-19.1,21.8-29.1c1.9,4.4,3.7,8.4,5.4,12.4c0.3-0.1,0.6-0.1,1-0.2c1.2-4.3,0.3-9,1.2-13.5
		c1.2,0.4,2.2,0.7,3.2,1.2c8.4,3.9,16.9,7.9,25.3,11.9c6.5,3,12.9,6,19.4,9c0.6,0.3,1.4,0.3,2.2,0.4c0.1-0.3,0.2-0.5,0.4-0.8
		c-4.5-4.1-9.8-7.1-14.7-10.8C699.7,917.3,694.7,913.9,689.8,910.4z"/>
	<path class="st0" d="M717.5,271.2c0.1,0.2,0.2,0.4,0.3,0.7c3.3,0.1,6.4-1.4,9.7-1.5c-0.1,0.9-0.1,1.7-0.3,2.4
		c-1.3,6.6-2.7,13.2-4,19.9c-1,5.1-2,10.2-3,15.2c-0.1,0.5,0.1,1.1,0.1,1.6c0.2,0,0.4,0.1,0.6,0.1c2.1-3.9,3.3-8.1,5-12.2
		c1.7-4,3.2-8.2,4.8-12.2c1.6-4.1,3.2-8.3,5-12.7c2.9,2.9,5.6,5.4,8.2,8c0.2-0.1,0.4-0.2,0.6-0.4c-0.8-3.5-3-6.5-3.9-10.3
		c8.9,1.4,17.5,2.8,26.1,4.2c0.1-0.2,0.1-0.4,0.2-0.7c-7.8-3.3-15.7-6.6-23.9-10.2c2.1-1.5,3.9-2.6,5.6-3.8c1.6-1.2,3.6-2,4.7-3.9
		c-4.5,0.8-8.9,2.3-13.5,3.5c0.1-1,0.1-1.8,0.2-2.5c0.5-3.2,1-6.4,1.6-9.6c0.7-4.6,1.5-9.2,2.2-13.8c0.1-0.8,0.5-1.7-0.5-2.7
		c-4.2,8.7-7.5,17.5-11.6,26.2c-1.4-1.5-2.4-2.6-3.5-3.8c-1.1-1.2-2.1-2.4-3.2-3.5c-1.1-1-1.7-2.6-3.8-3.2c1.8,4.2,3.5,8.1,5.4,12.4
		c-4.7-0.8-8.8-1.5-13-2.2c-4.1-0.6-8.2-1.7-12.3-1.9c-0.1,0.2-0.1,0.4-0.2,0.6c8,3.4,15.9,6.8,24.3,10.3
		C722.5,267.3,720,269.2,717.5,271.2z"/>
	<path class="st0" d="M215,290.6c8.6-1.4,17.2-2.8,26.1-4.2c-0.9,3.8-3.1,6.8-3.9,10.3c0.2,0.1,0.4,0.2,0.6,0.4
		c2.6-2.6,5.3-5.2,8.2-8c1.7,4.5,3.4,8.6,5,12.7c1.6,4.1,3.1,8.2,4.8,12.2c1.7,4,2.9,8.3,5,12.2c0.2,0,0.4-0.1,0.6-0.1
		c0-0.5,0.2-1.1,0.1-1.6c-1-5.1-2-10.2-3-15.2c-1.3-6.6-2.7-13.2-4-19.9c-0.2-0.8-0.2-1.6-0.3-2.4c3.4,0.1,6.5,1.6,9.7,1.5
		c0.1-0.2,0.2-0.4,0.3-0.7c-2.5-1.9-5-3.8-7.8-6c8.4-3.5,16.3-6.9,24.3-10.3c-0.1-0.2-0.1-0.4-0.2-0.6c-4.2,0.2-8.2,1.3-12.3,1.9
		c-4.2,0.6-8.4,1.4-13,2.2c1.9-4.3,3.5-8.1,5.4-12.4c-2.1,0.6-2.7,2.2-3.8,3.2c-1.1,1.1-2.1,2.3-3.2,3.5c-1.1,1.2-2.1,2.3-3.5,3.8
		c-4.2-8.7-7.4-17.5-11.6-26.2c-1,1.1-0.6,2-0.5,2.7c0.7,4.6,1.5,9.2,2.2,13.8c0.5,3.2,1.1,6.4,1.6,9.6c0.1,0.7,0.1,1.5,0.2,2.5
		c-4.6-1.1-8.9-2.7-13.5-3.5c1.2,1.9,3.1,2.7,4.7,3.9c1.7,1.2,3.4,2.4,5.6,3.8c-8.3,3.5-16.1,6.8-23.9,10.2
		C214.9,290.1,214.9,290.4,215,290.6z"/>
	<path class="st0" d="M320.6,853.6c-5.9,2.4-11.8,5-17.7,7.5c-4.1,1.7-8.2,3.5-12.4,5.2c-1,0.4-2,0.7-3.3,1.1
		c0-6.6,0.7-12.9,0.2-19.2c-2.2,2.2-2.7,5.1-3.7,7.6c-1.1,2.7-2,5.4-3.3,8.7c-7.4-9.9-14.4-19.3-21.5-28.8c-0.3,0.2-0.6,0.3-0.8,0.5
		c4.7,11.1,9.4,22.1,14.3,33.6c-5.4,0-10.2-1.9-15.1-1.9c-0.1,0.3-0.2,0.6-0.3,0.9c4.3,2.7,8.7,5.4,13.5,8.4
		c-5.4,3.8-10.4,7.3-15.4,10.9c-4.9,3.5-10,6.9-14.8,10.5c-4.9,3.6-10.2,6.6-14.7,10.8c0.1,0.3,0.2,0.5,0.4,0.8
		c0.7-0.1,1.5-0.1,2.2-0.4c6.5-3,13-6,19.4-9c8.4-4,16.9-7.9,25.3-11.9c1-0.5,2-0.8,3.2-1.2c0.9,4.6,0,9.2,1.2,13.5
		c0.3,0.1,0.6,0.1,1,0.2c1.7-4,3.5-8,5.4-12.4c7.5,10,14.6,19.6,21.8,29.1c0.3-0.1,0.5-0.3,0.8-0.4c-1.7-5.5-4.4-10.6-6.6-15.9
		c-2.2-5.4-4.6-10.8-7.2-16.8c6.4,1.1,12.1,2,18.3,3.1c-1.5-2.6-3.8-2.9-5.5-4c-1.8-1.2-3.8-2.1-5.7-3.1c-1.9-1-3.8-2.1-6.2-3.4
		c10.3-8.5,21-15.7,31.3-24.2C322.7,852.4,321.6,853.2,320.6,853.6z"/>
	<path class="st0" d="M108.6,603.3c-14.2-1-26.9-6-38.2-14.6c-2.7-2.1-5.2-4.5-7.3-7.3c-3.5-4.5-5.7-9.5-6.2-15.2
		c-0.2-2.5-1.7-4-3.9-4.2c-2.3-0.2-3.6,1.1-3.6,3.4c0,0.6,0.1,1.2,0.1,1.8c0.9,7.9,4.2,14.7,9.3,20.6c6.4,7.5,14.5,12.8,23.5,16.6
		c11,4.7,22.5,7.2,34.6,6.3c0.7-0.1,1.2,0.1,1.8,0.6c5.3,4.5,11.2,7.8,17.5,10.4c4.9,2,10,3.7,15.3,4.5c8.1,1.3,16.1,0.3,23.9-2.5
		c13.7-4.9,24.8-13.2,32.1-26.2c4.1-7.4,5.7-15.4,4.6-23.8c-0.3-1.8-0.7-3.6-1.4-5.3c-0.9-2.2-3.2-3.2-5.3-2.5
		c-1.9,0.7-2.5,2.1-1.7,4.7c0.6,2.2,1.1,4.5,1.2,6.8c0.5,8.5-2.5,15.9-7.9,22.3c-8,9.5-18.4,15-30.2,18c-4.3,1.1-8.7,1.5-13.2,1
		c-7.9-0.8-15.1-3.7-21.9-7.7c-1.4-0.8-2.8-1.6-4-2.7c0.3-0.6,0.9-0.7,1.3-0.9c2.9-1.5,5.5-3.3,7.8-5.6c4-4.1,6.5-8.9,6.8-14.7
		c0.6-14.7-12.8-25.3-26.4-23.2c-4.1,0.7-7.2,3-9.4,6.6c-1.3,2.1-2.1,4.4-2.5,6.8c-1.5,8.8-0.1,17,4.8,24.5c0.3,0.4,0.6,0.9,1,1.5
		C110.1,603.4,109.3,603.3,108.6,603.3z M116.6,572.4c3.5-2.3,7-2.5,10.7-0.6c5.6,3,9.4,10.2,8.5,16.4c-0.6,3.7-2.5,6.7-5.4,9.1
		c-2.9,2.4-6.2,3.8-9.9,4.7c-4.3-5.1-8-10.7-9-17.5C110.8,579.6,112.3,575.4,116.6,572.4z"/>
	<path class="st0" d="M280.8,626.1c-3.2-0.8-6.2-2-9.1-3.6c-4.7-2.6-8.5-6.1-11.1-11c-1.1-2.1-3-2.9-4.9-2.2c-2,0.7-2.7,2.3-1.9,4.3
		c0.2,0.5,0.5,1,0.8,1.5c3.7,6.5,9.2,11.2,15.8,14.5c8.4,4.2,17.4,5.7,26.7,5.7c11.4,0,22.3-2.1,32.5-7.5c0.6-0.3,1.1-0.4,1.8-0.2
		c6.3,1.9,12.7,2.6,19.2,2.5c5.1-0.1,10.1-0.6,15-1.8c7.6-1.9,14.2-5.8,19.9-11.1c10.1-9.4,16.7-20.8,18.2-34.8
		c0.8-8-0.7-15.5-4.9-22.5c-0.9-1.5-2-2.9-3.2-4.1c-1.6-1.6-4-1.6-5.5-0.2c-1.4,1.3-1.4,2.7,0.3,4.8c1.4,1.7,2.6,3.5,3.6,5.5
		c3.6,7.3,3.8,14.8,1.4,22.4c-3.5,11.3-10.4,20-19.6,27c-3.4,2.6-7.1,4.5-11.1,5.8c-7.2,2.3-14.6,2.5-22,1.5c-1.5-0.2-3-0.3-4.5-0.9
		c0.1-0.6,0.5-0.9,0.8-1.3c2-2.4,3.6-4.9,4.7-7.8c2-5.1,2.4-10.2,0.4-15.4c-4.9-13-20.7-17.3-31.7-10.3c-3.3,2.1-5.2,5.3-5.7,9.2
		c-0.3,2.3-0.2,4.6,0.4,6.9c2,8.2,6.3,14.8,13.3,19.5c0.4,0.3,0.8,0.5,1.4,0.9c-0.8,0.7-1.5,0.9-2.2,1.1
		C306.8,629,293.8,629.4,280.8,626.1z M315.2,607.2c-2.5-4.1-2.8-8.3-0.1-12.5c2.2-3.3,5.2-4.8,9.1-4.5c6,0.5,12.1,5.4,13.5,11.1
		c0.9,3.5,0.3,6.8-1.3,10c-1.6,3.2-4,5.6-6.9,7.8C323.9,616.2,318.7,612.8,315.2,607.2z"/>
	<path class="st0" d="M215.9,611.9c-0.5,6.9,4.3,11.4,12.7,12.1c6,0.5,11.8-3.8,12.2-9.3c0.6-7.3-5.1-14.1-12.3-14.7
		C222.4,599.5,216.3,605.2,215.9,611.9z M229.8,616.5c0.1-0.4,0.3-0.8,0.6-1.2c1-1.8,0.5-3.7,0.1-5.6c-0.2-1.1-0.6-2.7,0.1-3.7
		c1.2-1.4,3.1,0.4,3.7,1.5c0.9,1.7,1.3,3.5,1.2,5.3c-0.1,1.1-0.4,2.2-0.9,3.3c-0.4,0.8-0.8,1.5-1.4,2.1
		C231.6,619.9,229.3,618.9,229.8,616.5z"/>
	<path class="st0" d="M439.4,597.1c-5.3-0.5-10.6,4.6-11.1,10.5c-0.4,6.1,3.8,10.1,11.2,10.7c5.3,0.4,10.4-3.4,10.8-8.2
		C450.8,603.7,445.8,597.7,439.4,597.1z M444.8,611.5c-0.3,0.7-0.7,1.4-1.2,1.9c-1.4,1.4-3.5,0.5-3-1.6c0.1-0.4,0.3-0.7,0.5-1
		c0.9-1.6,0.5-3.2,0.1-4.9c-0.2-0.9-0.6-2.4,0.1-3.2c1.1-1.3,2.7,0.3,3.3,1.3c0.8,1.5,1.2,3.1,1,4.7
		C445.6,609.5,445.3,610.5,444.8,611.5z"/>
	<path class="st0" d="M51.3,619.2c0.4-5.1-3.6-9.8-8.6-10.2c-4.2-0.4-8.4,3.6-8.7,8.3c-0.3,4.8,3,7.9,8.8,8.4
		C47,626,51,623,51.3,619.2z M47,620.2c-0.3,0.5-0.5,1.1-1,1.5c-1.1,1.1-2.7,0.4-2.4-1.3c0.1-0.3,0.2-0.6,0.4-0.8
		c0.7-1.3,0.4-2.6,0.1-3.9c-0.1-0.7-0.4-1.9,0.1-2.5c0.8-1,2.2,0.3,2.6,1c0.6,1.2,0.9,2.4,0.8,3.7C47.6,618.7,47.4,619.5,47,620.2z"
		/>
	<path class="st0" d="M969,683.7c-5.6-0.5-11.2,4.8-11.7,11.1c-0.5,6.4,4,10.6,11.8,11.2c5.6,0.5,10.9-3.6,11.3-8.6
		C981,690.6,975.7,684.3,969,683.7z M974.7,698.8c-0.4,0.7-0.7,1.4-1.3,2c-1.5,1.5-3.7,0.5-3.2-1.7c0.1-0.4,0.3-0.7,0.5-1.1
		c0.9-1.7,0.5-3.4,0.1-5.2c-0.2-1-0.6-2.6,0.1-3.4c1.1-1.3,2.9,0.3,3.4,1.4c0.8,1.6,1.2,3.3,1.1,4.9
		C975.5,696.7,975.2,697.8,974.7,698.8z"/>
	<path class="st0" d="M205.5,828.1c-3.3-0.3-6.6,2.9-6.9,6.5c-0.3,3.8,2.3,6.2,7,6.6c3.3,0.3,6.4-2.1,6.7-5.1
		C212.6,832.2,209.4,828.5,205.5,828.1z M208.9,837c-0.2,0.4-0.4,0.8-0.8,1.2c-0.9,0.9-2.2,0.3-1.9-1c0.1-0.2,0.2-0.4,0.3-0.6
		c0.6-1,0.3-2,0.1-3.1c-0.1-0.6-0.3-1.5,0.1-2c0.7-0.8,1.7,0.2,2,0.8c0.5,0.9,0.7,1.9,0.6,2.9C209.3,835.8,209.2,836.4,208.9,837z"
		/>
	<path class="st0" d="M341.9,878.3c-0.4,6.1,3.8,10.1,11.3,10.7c5.4,0.4,10.5-3.4,10.8-8.2c0.5-6.5-4.6-12.5-11-13.1
		C347.7,867.3,342.4,872.4,341.9,878.3z M354.3,882.4c0.1-0.4,0.3-0.7,0.5-1.1c0.9-1.6,0.5-3.3,0.1-5c-0.2-0.9-0.6-2.4,0.1-3.3
		c1.1-1.3,2.8,0.3,3.3,1.3c0.8,1.5,1.2,3.1,1,4.7c-0.1,1-0.3,2-0.8,2.9c-0.3,0.7-0.7,1.4-1.2,1.9
		C355.9,885.4,353.8,884.5,354.3,882.4z"/>
	<path class="st0" d="M201.4,346.3c6.8,0.6,13.2-4.3,13.7-10.4c0.7-8.2-5.8-15.9-13.9-16.6c-6.8-0.6-13.6,5.9-14.1,13.4
		C186.6,340.4,191.9,345.5,201.4,346.3z M202.8,337.9c0.1-0.5,0.4-0.9,0.6-1.3c1.1-2.1,0.6-4.1,0.2-6.3c-0.2-1.2-0.7-3.1,0.2-4.1
		c1.4-1.6,3.5,0.4,4.2,1.7c1,1.9,1.5,4,1.3,6c-0.1,1.3-0.4,2.5-1,3.7c-0.4,0.9-0.9,1.7-1.6,2.4C204.8,341.7,202.2,340.5,202.8,337.9
		z"/>
	<path class="st0" d="M796.6,316.9c6.5,0.5,12.6-4.1,13.1-10c0.6-7.8-5.5-15.1-13.3-15.8c-6.5-0.6-13,5.6-13.5,12.8
		C782.4,311.3,787.5,316.2,796.6,316.9z M797.8,308.9c0.1-0.5,0.4-0.9,0.6-1.3c1.1-2,0.6-4,0.2-6c-0.2-1.1-0.7-2.9,0.2-3.9
		c1.3-1.5,3.3,0.4,4,1.6c1,1.8,1.4,3.8,1.3,5.7c-0.1,1.2-0.4,2.4-1,3.5c-0.4,0.8-0.8,1.6-1.5,2.3
		C799.8,312.5,797.3,311.4,797.8,308.9z"/>
	<path class="st0" d="M757.5,879.4c-3.2-0.3-6.5,2.8-6.8,6.4c-0.3,3.7,2.3,6.1,6.8,6.5c3.3,0.3,6.3-2.1,6.6-5
		C764.4,883.4,761.4,879.7,757.5,879.4z M760.8,888.1c-0.2,0.4-0.4,0.8-0.7,1.1c-0.9,0.8-2.1,0.3-1.9-1c0-0.2,0.2-0.4,0.3-0.6
		c0.5-1,0.3-2,0.1-3c-0.1-0.6-0.3-1.5,0.1-2c0.7-0.8,1.7,0.2,2,0.8c0.5,0.9,0.7,1.9,0.6,2.9C761.3,887,761.1,887.6,760.8,888.1z"/>
</g>
</svg>
