<?xml version="1.0" encoding="utf-8"?>
<!-- Generator: Adobe Illustrator 22.0.0, SVG Export Plug-In . SVG Version: 6.00 Build 0)  -->
<svg version="1.1" id="Layer_1" xmlns="http://www.w3.org/2000/svg" xmlns:xlink="http://www.w3.org/1999/xlink" x="0px" y="0px"
	 viewBox="0 0 1080 1080" style="enable-background:new 0 0 1080 1080;" xml:space="preserve">
<style type="text/css">
	.st0{fill:#71020C;}
</style>
<g>
	<path class="st0" d="M187.7,532.3c-1.7,0-2.5,1.1-2.5,3.4c0,2.3,0.9,3.4,2.9,3.4h37.1c1.9,0,2.9-1.1,2.9-3.4c0-2.3-1-3.4-2.9-3.4
		h-13.9V349.7c4.5,8.1,10,18,16.4,29.8c6.4,11.8,12.8,23.7,19.3,35.7c6.4,12,12.4,23.2,18,33.5c5.6,10.3,9.8,18.1,12.7,23.4
		c1.7,3.1,3.5,6.2,5.5,9.3c2,3.1,4.3,5.8,7,8.2c2.6,2.4,5.6,4.2,9.1,5.4c3.4,1.2,7.3,1.2,11.6,0c4.8-1.4,8.1-4.5,10-9.3
		c1.9-4.8,1.9-9.5,0-14.3c-1.4-3.6-4-6.2-7.8-7.8c-2.9-0.9-5.3-1.1-7.3-0.4c-2,0.7-3.3,1.8-3.9,3.2c-0.6,1.4-0.5,2.9,0.4,4.5
		c0.8,1.6,2.6,2.6,5.2,3c5,1,7.5,3.1,7.5,6.4c0,3.8-1.4,6.5-4.1,8c-2.7,1.5-5.7,2-8.9,1.2c-3.2-0.7-5.9-2.5-8.2-5.4
		c-2.3-2.9-2.8-6.8-1.6-11.8c0.2-0.9,0.5-1.8,0.7-2.7c0.2-0.8,0.6-1.8,1.1-3l70.3-130.6v196.2h-14.3c-1.7,0-2.5,1.1-2.5,3.4
		c0,2.3,0.9,3.4,2.9,3.4h59.2c1.9,0,2.8-1.1,2.7-3.4c-0.1-2.3-1.1-3.4-3-3.4H395V325.4h14.3c0.1,0,0.2,0,0.4-0.1
		c0,6.9,1,13.6,3.2,20c2.9,8.6,7.8,16.2,14.8,23c7,6.8,16.2,11.7,27.6,14.8c10,2.6,20.8,3.3,32.5,2c11.7-1.3,23.7-3.8,36.2-7.5
		c12.5-3.7,25.3-8.3,38.3-13.7c13.1-5.5,26-11.1,38.9-16.8c3.3,7.1,8.6,13.7,15.9,19.8c7.3,6.1,16.7,11.1,28.4,15.2
		c10,3.6,20.5,5.9,31.4,7c10.9,1.1,21.4,0.8,31.4-0.7c10-1.5,19.1-4.5,27.5-8.7c8.3-4.3,14.9-10,19.6-17.1
		c4.5-6.7,6.8-13.2,6.8-19.6c0-6.4-1.5-12.2-4.6-17.5c-3.1-5.2-7.6-9.7-13.4-13.6c-5.8-3.8-12.3-6.5-19.4-8.2
		c-7.6-1.7-15.9-2.2-24.8-1.6c-8.9,0.6-18.3,2-28,4.3c-9.8,2.3-19.9,5.1-30.3,8.6c-10.5,3.5-21,7.1-31.7,10.9
		c1.7-7.6,5.5-14.9,11.4-21.9c5.9-7,13.9-13,23.9-18c11.6-5.9,24.1-9.4,37.5-10.3c13.3-0.9,26.5,0.1,39.4,3c13,3,25.3,7.6,37.1,13.9
		c11.8,6.3,22.2,13.9,31.2,22.7c13.3,13.1,23.4,27.9,30.3,44.6c4.5,10.9,7.8,22.1,9.8,33.4h9.5c-2-14.8-5.8-29.3-11.4-43.3
		c-6.9-17.1-16.6-32.5-29.3-46c-9-9.7-18.9-17.9-29.6-24.4c-10.7-6.5-21.7-11.6-33-15.3c-11.3-3.7-22.7-5.9-34.1-6.8
		c-11.4-0.8-22.2-0.4-32.5,1.2c-11.7,1.9-22.1,5.2-31.4,10c-9.3,4.8-17.1,10.5-23.4,17.1c-6.3,6.7-11.1,13.9-14.3,21.8
		c-3.2,7.8-4.5,15.7-3.7,23.5c-13.8,5.2-27.5,10.5-41.2,15.9c-13.7,5.4-26.9,9.9-39.8,13.7c-12.8,3.8-25,6.5-36.4,8
		c-11.4,1.6-21.9,1.2-31.4-0.9c-8.6-1.9-15.6-5.5-21-10.9c-5.5-5.4-9.2-11.4-11.2-18.2c-2-6.8-2.2-13.8-0.5-21
		c1.7-7.3,5.4-13.7,11.1-19.4c5.9-5.9,13.4-9.8,22.3-11.6c8.9-1.8,17.5-1.7,25.7,0.2c8.2,1.9,15.2,5.6,21,11.1
		c5.8,5.5,8.7,12.5,8.7,21c2.6-0.2,4.6-1.9,5.9-5c1.3-3.1,1.7-6.8,1.2-11.1c-0.5-7.1-2.6-13.3-6.4-18.4c-3.8-5.1-8.5-9.2-14.1-12.3
		c-5.6-3.1-11.8-5-18.5-5.9c-6.8-0.8-13.6-0.4-20.3,1.2c-6.8,1.7-13.2,4.6-19.3,8.7c-6.1,4.2-11.1,9.8-15.2,16.9
		c-4.3,7.8-6.9,16.4-7.8,25.7c0,0.2,0,0.3,0,0.5c-0.3-0.1-0.6-0.2-1-0.2h-45.7c-0.2,0-2,3.2-5.4,9.5c-3.3,6.3-7.5,14.2-12.5,23.5
		c-5,9.4-10.4,19.6-16.2,30.5c-5.8,10.9-11.2,21-16.2,30.3c-5,9.3-9.2,17-12.7,23.2c-3.5,6.2-5.2,9.2-5.2,8.9
		c-3.6-7.4-8.3-16.8-14.1-28.2c-5.8-11.4-11.8-23-18-34.8c-6.2-11.8-12.2-22.8-18-33.2c-5.8-10.3-10.6-18.2-14.4-23.7
		c-1.9-2.6-4.5-4.3-7.8-5.2c-3.3-0.8-7.1-1.2-11.4-1.2c-2.9,0.2-5.2,0.4-7,0.4c-1.8,0-3.4,0-4.8,0c-1.4,0-3,0-4.8,0
		c-1.8,0-4.1,0-7,0c-1.7,0-2.5,1.1-2.5,3.4c0,2.3,0.9,3.4,2.9,3.4c3.8,0,6.7,0.7,8.6,2c1.9,1.3,3.8,3.7,5.7,7.3v197.3H187.7z
		 M642.3,329c10.6-4.5,20.8-8.4,30.7-11.8c9.9-3.3,19.2-5.7,28-7.1c8.8-1.4,16.9-1.7,24.3-0.7c6.2,1,12,3.2,17.3,6.6
		c5.4,3.4,9.5,7.6,12.5,12.5c3,4.9,4.4,10.2,4.3,16.1c-0.1,5.8-2.6,11.6-7.3,17.3c-5.2,6.2-12,11.1-20.2,14.8
		c-8.2,3.7-17.1,6.2-26.8,7.7c-9.6,1.4-19.4,1.7-29.4,0.7c-10-0.9-19.3-3-27.8-6.1c-11.2-4-19.8-9.3-25.9-15.7
		c-6.1-6.4-10.1-13.1-12-20C621,338.3,631.7,333.5,642.3,329z"/>
	<path class="st0" d="M456,457.4c1.7,3.8,4.2,7.3,7.7,10.3c3.4,3.1,7.8,5.5,13,7.3c5.2,1.8,11.4,2.4,18.5,2
		c5.9-0.2,11.7-1.4,17.3-3.4c5.6-2,10.6-4.9,15-8.6c4.4-3.7,7.9-8.1,10.5-13.4c2.6-5.2,3.8-11.1,3.6-17.5
		c-0.2-6.2-1.7-11.8-4.3-16.8c-2.6-5-6.1-9.2-10.5-12.7c-4.4-3.4-9.3-6.1-14.8-7.8c-5.5-1.8-11.2-2.7-17.1-2.7
		c-8.8-0.2-17.4,1.1-25.9,3.9c-8.4,2.9-15.6,6.9-21.6,12.1c-7.4,6.7-13.2,14.5-17.5,23.5c-4.3,9-6.8,18.5-7.7,28.4
		c-0.8,9.9,0,19.6,2.5,29.1c2.5,9.5,6.7,18.1,12.5,25.7c5.8,7.6,13.3,13.8,22.3,18.5c9,4.8,19.7,7.3,32.1,7.5
		c10.2,0.2,19.4-1.7,27.6-5.9c8.2-4.2,15.4-10,21.6-17.7c1.2-1.7,1-3.2-0.5-4.6c-1.6-1.4-2.9-1.3-4.1,0.4c-4,5.5-9.3,10.2-15.9,14.1
		c-6.5,3.9-14.8,5.7-24.8,5.2c-9.8-0.2-17.8-3.3-24.3-9.1c-6.4-5.8-11.3-13-14.6-21.6c-3.3-8.6-5.2-18-5.7-28.4
		c-0.5-10.3,0.4-20.2,2.5-29.4C453.5,449.8,454.3,453.6,456,457.4z M467.7,414.4c4-5.1,9.4-9,16.1-11.6c4-1.7,8.1-2.6,12.1-2.9
		c4-0.2,7.7,0.5,10.9,2.1c3.2,1.7,5.8,4.3,7.8,8c2,3.7,3,8.5,3,14.4c0,8.8-2,17.2-6.1,25.3c-4,8.1-9.9,13.7-17.5,16.8
		c-6.4,2.6-12.8,2.7-19.3,0.2c-6.4-2.5-10.9-7.3-13.6-14.4c-1.9-5-1.6-9.9,0.9-14.8c2.5-4.9,6.7-7.3,12.7-7.3c2.4,0,4.5,0.5,6.4,1.6
		c1.9,1.1,3.1,2.7,3.6,4.8c0.5,1.4,0.4,2.9-0.4,4.3s-2.4,2.7-5,3.9c-2.4,1.2-3.7,2.7-4.1,4.5c-0.4,1.8,0,3.3,1.1,4.5
		c1.1,1.2,2.6,1.9,4.6,2.1c2,0.2,4.2-0.6,6.6-2.5c3.3-2.9,5.2-6.1,5.7-9.6c0.7-6.2-1-11.1-5-14.6c-4-3.6-8.7-5.2-13.9-5
		c-7.4,0.2-13,2.9-16.8,7.8C460.4,425.4,463.7,419.5,467.7,414.4z"/>
	<path class="st0" d="M680.3,533c-1.7,0-2.5,1-2.5,3c0,2,0.8,3,2.5,3h53.1c1.7,0,2.5-1,2.5-3c0-2-0.8-3-2.5-3h-13.9v-88.1
		c0-10.9,2.3-19.7,7-26.2c4.6-6.5,10.1-11.1,16.4-13.6c6.3-2.5,12.7-3.1,19.1-1.8c6.4,1.3,11.4,4.3,15,9.1c1.4,1.9,2.6,4.3,3.4,7.1
		c0.8,2.9,1.1,5.7,0.9,8.6c-0.2,2.9-1.1,5.5-2.7,7.8c-1.6,2.4-3.7,4-6.6,5c-3.3,1.2-6.6,1.2-9.8,0.2c-3.2-1.1-5.2-3.1-5.9-6.2
		c-0.5-3.3,1.5-5.9,6.1-7.8c2.4-0.9,3.8-2.3,4.3-4.1c0.5-1.8,0.2-3.3-0.7-4.5c-1-1.2-2.5-2-4.6-2.3s-4.4,0.3-6.8,2
		c-3.3,2.4-5.3,5.5-6.1,9.3c-0.5,3.3-0.1,6.4,1.3,9.3c1.3,2.9,3.2,5.2,5.7,7c2.5,1.8,5.4,3,8.6,3.7c3.2,0.7,6.5,0.5,9.8-0.7
		c4.8-1.7,8.4-4.4,10.9-8.2c2.5-3.8,3.7-8.1,3.7-12.8c0-6.2-2-11.9-5.9-17.1c-3.9-5.2-9.2-8.8-15.9-10.7c-8.6-2.4-17.2-2.1-25.9,0.7
		c-8.7,2.9-15.8,8.4-21.2,16.8v-18.9H715c-5.6,1.2-11.4,1.8-17.3,2c-5.9,0.1-11.7,0.2-17.4,0.2c-1.7,0-2.4,1-2.3,3c0.1,2,0.8,3,2,3
		h14.6V533H680.3z"/>
	<path class="st0" d="M416,820.2c3,20.3,9.8,20.3,16.8-2.3c5.3-16.6,13.3-42.9,23.6-61.2c2.3-3.8,10.5-16.1,15.1-15.1
		c1.5,0.3,1,2.3,2.3,4c11,13,28.6-7.3,17.6-13.5c-1.8-0.8-3.8-1.5-6.3-1.5c-15.3-1.3-27.3,13.8-34.4,26.3c-4,7.8-8,16.6-11.3,25.6
		c2.8-12.3,5.8-25.6,9.3-39.1l1.8-8.3c3.3-12.8-20.3-13-23.8,0c-2.9,11.8-5.3,23.5-7.1,34.4c-4.2-3.1-9-5.4-14.5-6.8
		c3-28.1-7.3-51.7-33.1-52.2c-9,0-18.3,2.3-26.8,6c13.8-15.8,33.4-42.6,43.1-64.5c14.8-32.6-4-46.9-27.1-21.1
		c-7,7.5-14.8,18.8-22.6,34.1c-6.8,13.3-13,27.8-18.6,42.1c9-47.9,8.5-96.3-35.4-98.3c-18.6-0.8-39.6,11.5-52.4,34.6
		c-6.8,11.5-11.5,24.6-13.8,37.1c-2.5,12.5-2.8,24.8-0.8,34.9c3.8,18.1,15,30.4,34.4,28.3c18.8-1.8,31.4-18.1,37.6-37.1
		c2.3-6.5,3.8-13.5,4.5-20.3c0.5-6.8,0.8-13.3-0.2-19.3c-1.8-12.8-7.5-22.3-17.1-22.8c-4.3-0.3-5.3,5-1,5.5
		c6.8,0.5,11.3,8.3,12.5,19.1c0.8,5.5,1,11.5,0,17.8c-0.5,6.5-2,13-3.8,19.3c-5.8,16.6-16.3,30.9-32.1,32.4
		c-16.6,1.8-26.1-9-29.4-24.6c-2-9.8-1.8-21.1,0.8-33.1c2.3-11.8,6.8-24.1,12.8-35.1c11.8-20.3,30.1-30.9,45.7-29.6
		c55.7,5,8.5,113.9,2.3,151.5c-1.5,8,3,14.8,10.3,16.8c1.5,0.5,3.3,0.5,5.3,0.5l2.5-9.5c4.3-14,10.3-34.4,18.3-55.9
		c6.5-17.8,14.3-36.1,22.3-52.4c7.8-14.8,15-25.6,21.3-32.6c15.6-17.1,24.8-10.8,14.3,12c-12.5,26.8-42.1,69.7-49.4,79.5
		c-3,3.8-0.8,7,4,3.5c9.5-7.3,20.3-12,29.1-11.8c15.6,0.8,20.8,19.6,18.1,42.9l-5.3,0.5c-40.1,4-68.2,22.6-82.5,42.1
		c-5.3,7-8.8,14-10.5,20.6c-6.8,26.8,10.3,36.1,32.4,34.4c48.4-3.8,82.3-44.2,89.6-89.6c5.5,1.8,10,4.3,13.8,7.8
		c0.1,0.1,0.2,0.2,0.4,0.2C415.4,795.8,414.5,811.8,416,820.2z M309.3,849.8c-15.1,0-26.3-8-21.6-25.6c1.5-5.8,4.5-12,9.3-18.3
		c13.5-18.3,40.1-35.6,77.8-39.4l5-0.5C373.8,800.9,352,849.3,309.3,849.8z"/>
	<path class="st0" d="M509.9,733c-1.3,6.8,3.3,12.3,10.3,12.3c6.8,0,13.3-5.5,14.6-12.3c1.3-6.5-3.5-12-10.3-12
		C517.4,721,511.1,726.5,509.9,733z"/>
	<path class="st0" d="M839,697c-6.5,8-25.8,7.5-47.2,4.8l4.5-17.1c4-14-16.1-16.6-21.6,0.3l-4.8,14c-23.8-3.5-45.9-6.3-54.4,1
		c-3,2.5,0.3,6.5,4,3.3c6.3-5.3,26.8-2,48.7,1c-6.1,20.1-12.7,46.2-16.1,69.7l-1.7,4.6c-3.3,8.3-17.6,48.7-28.6,47.4
		c-20.8-2,34.1-92.6-2.5-95.3c-15.3-1.3-27.3,13.8-34.1,26.3c-4.3,7.8-8.3,16.6-11.5,25.6c2.8-12.3,5.8-25.6,9.3-39.1l3.3-4.3
		c4.5-6,9.3-12.5,10-13.3c13.5-17.1,25.6-37.4,33.1-54.7c12.8-29.6,8-43.9-2.8-44.7c-36.3-1.7-63.8,86.5-73.3,146.4
		c-9.2,5.5-20.4,13.2-32.4,22.4c4-17.6,7-32.6,8.8-41.6c1.3-5.8,2.3-11.5,4-17.3c3.5-16.8-25.1-16.8-27.8,2c0,1.3-0.3,2.5-0.5,4
		c-0.3-1-0.8-2-1.3-2.8c-3.8-7.8-10.3-9.5-15.3-9.3c-39.9,1.5-63.3,57.5-52.5,85.6c-5.6,14.4-16.7,41-25.7,39.9
		c-13-1.3,10-67.2,16.3-88.3c4.8-16.6-21.8-18.8-25.8,0c-5.5,25.3-23.3,97.1,5,97.1c14,0,25.2-22.4,33.4-42.6
		c4.1,5.8,10.4,9.4,19.2,9.7c12.5,0.3,22.8-11.5,31.1-27.1c3-6,6-12.8,8.5-19.6c-1.8,10.5-4,22.3-6.5,34.4c-5,4.5-10,9.3-15.1,14.3
		c-20.1,19.8-37.1,41.1-44.2,60.2c-0.5,0.8-0.8,1.5-1,2.3c-4.3,12.5-5,22.6-3.5,29.9c1.8,9.3,7.5,14.8,17.6,14.3
		c14.8-1,27.8-16.1,39.4-37.6c14.5-28.1,26.1-67.2,34.1-99.6c12-9.5,23.5-17.7,33.2-23.8c-2.5,17.9-3.3,32.7-2,40.8
		c3,20.3,9.8,20.3,17.1-2.3c5-16.6,13-42.9,23.3-61.2c2.3-3.8,10.5-16.1,15-15.1c11.8,2.3-23.3,93.1,11.5,93.1
		c13.5,0,24.5-21.3,32.7-41.1c-1.5,23.6,2.1,41.1,15.8,41.1c16.8,0,29.9-33.1,38.1-55.2c0.8-1.3,1.3-2.8,1.8-4.5
		c1.8-4-3.5-5.3-5-1.3l-1.8,4.8c-3.3,8.3-17.6,48.7-28.6,47.4c-8.8-0.8,8-73,20.1-118.7c23.6,2.8,45.7,3.3,53.7-8.3
		C845.7,696.5,841.5,694,839,697z M687.4,724.9l1.5-6c2.8-10.8,20.3-87.8,37.9-83.8c5.5,1.3,7.3,12.5-2.5,34.9
		c-7.5,16.8-19.1,36.4-32.4,52.9c-0.5,0.8-3,4-6,8C686.4,728.9,686.9,726.9,687.4,724.9z M570.3,900c-18.3,47.4-47.4,37.9-33.1-3
		c0-0.5,0.5-1.3,0.5-2c6.8-18.1,23.3-38.6,42.9-57.7c3-3.3,6.3-6.3,9.5-9.3C584.6,853.3,578,879.9,570.3,900z M585.6,802.6
		c-7.5,14.5-16.1,21.1-22.1,20.6c-19.3-1.8,6-88.1,26.1-86.5c7.5,0.5,13,10,13,21.8C598.1,772.3,592.6,789.1,585.6,802.6z"/>
	<path class="st0" d="M482.5,678.3c0.8,0.9,1.8,1.3,3,1.4c1.7,0.2,2.9-0.2,3.9-1.2c0.9-0.9,1.4-1.9,1.5-2.9c0.2-13,0.1-23-0.2-30.1
		c-1-23.1-6.4-35.1-16.3-36.1c-9.6-0.9-17.6,13.1-24.2,41.9c-2.2,9.8-3.9,19.8-5,30c-0.1,1.3,0.2,2.4,1,3.5c0.8,1,1.9,1.6,3.3,1.8
		c1.3,0.1,2.4-0.2,3.5-1c1-0.8,1.6-1.9,1.8-3.3c0.7-6.1,1.7-12.2,2.9-18.4c7.9,0.4,15.8-0.1,23.7-1.4
		C480.7,671.5,481.1,676.8,482.5,678.3z M459.7,654.1c3.9-17.1,8-28.2,12.2-33.4c0.7-0.8,1.3-1.4,1.7-1.6c0.8,0.2,1.5,0.9,2.1,2.1
		c3.1,5.2,4.9,15.6,5.3,31.2C474,653.9,466.9,654.4,459.7,654.1z"/>
	<path class="st0" d="M549.9,651.5c-1.8-0.2-3.9-6-6.4-17.6c-1.8-7.9-4-15-6.5-21.3c-3-7.5-7.3-11.5-12.9-12
		c-9.4-0.9-15.3,10.4-17.5,33.8c-1.3,13.3-1.2,26.6,0.1,39.9c0.3,2.6,1.7,4,4.4,4.3l1,0.1c2.7-0.3,4.2-1.9,4.5-5
		c-1.2-13.1-1.2-26.2,0-39.2c1.4-15.3,3.9-22.8,7.3-22.5c1.3,0.1,2.5,1.6,3.8,4.4c2.4,5.8,4.2,11.7,5.5,17.7c0.1,0,0.2,0.1,0.2,0.2
		c1.3,6.3,3.1,12.9,5.3,19.8c2.6,7.6,6.3,11.6,11,12c5.9,0.4,9.9-4.3,12.1-14.1c1.8-7.8,3-15.7,3.8-23.6c2.4-25.1,2.4-38.6,0-40.5
		c-0.9-0.9-1.9-1.3-2.8-1.4c-3.3-0.3-5.1,1.3-5.5,4.7c0.3,9.5-0.3,21.9-1.8,37.1C554,644,552.1,651.7,549.9,651.5z"/>
	<path class="st0" d="M655.2,578.3c0.3-0.6,0.5-1.2,0.6-1.9c0.2-2-0.6-4-2.3-5.8c-6.8-7.3-16.4-11.6-28.9-12.8
		c-18.5-1.7-45.9,3.6-82.3,16.1c-17.3,5.8-33.4,10.9-48.5,15.1c-9.4,2.6-18.1,3.5-26.3,2.7c-4.3-0.4-8.4-1.4-12.1-3.1
		c-6.9-3.1-9.9-9.7-8.9-19.7c0.4-3.7,1.5-7.2,3.5-10.5c0.1-0.1,0.2-0.5,0.3-1.1c0.2-1.7-0.6-2.6-2.3-2.7c-14.3-1.4-22,3.7-23,15.2
		c-0.8,8.7,2,15.9,8.4,21.6c5.1,4.6,11.7,7.3,19.9,8.1c10.8,1,24.8-0.8,41.8-5.5c15.8-4.3,32.1-9.3,48.9-15.1
		c34.6-11.9,58.8-17.2,72.9-15.9c4,0.4,7.7,1.2,11.1,2.6c6.3,2.4,11.2,7.5,14.6,15.3c0.4,0.9,1.1,1.5,2,1.5
		C649.8,583,653.4,581.6,655.2,578.3z"/>
	<path class="st0" d="M581.6,653.7c1.7,1.2,3.5,1.9,5.3,2c2.8,0.3,5.9-0.4,9.3-2c14.4-6.4,24-16.9,29-31.8c1-2.9,1.7-5.8,2-8.7
		c1-10.7-1.6-19.5-7.7-26.4c-4.1-4.6-7.8-7.3-11.3-7.9c-3.5-0.6-5.7-1-6.7-1.1c-4.8-0.5-9.6,0.1-14.4,1.5c-2.4,0.7-3.7,2-3.9,4.1
		l-5.6,59.3c-0.2,2.2,0,4.2,0.6,6.2C578.6,650.9,579.8,652.5,581.6,653.7z M588.1,636.4l4.6-48.4c2.5-0.5,4.9-0.7,7.2-0.5
		c4.6,0.4,8.6,2.6,12.1,6.4c4.2,4.6,5.9,10.7,5.2,18.1c-0.2,2.4-0.7,4.8-1.4,7c-3.4,10.1-9.6,17.8-18.6,23.1c-3,1.8-5.3,2.6-6.8,2.4
		C588.4,644.3,587.6,641.6,588.1,636.4z"/>
	<path class="st0" d="M619.3,706.1c-0.2,0.2-0.3,0.6-0.3,1.1c-0.2,1.7,0.7,2.6,2.4,2.7c14.3,1.4,22-3.8,23.1-15.4
		c0.8-8.5-2-15.7-8.4-21.4c-5.1-4.6-11.7-7.3-19.9-8.1c-11-1-25,0.8-42,5.5c-12,3.4-28.1,8.5-48.3,15.3
		c-34.7,11.8-59.1,17-73.2,15.6c-3.8-0.4-7.5-1.2-11.1-2.6c-6.3-2.4-11.2-7.5-14.6-15.3c-0.4-0.9-1.1-1.5-2-1.5
		c-7-0.7-10.7,1.4-11.2,6.1c-0.2,1.8,0.6,3.6,2.4,5.4c6.7,7.6,16.3,12,28.7,13.1c18.4,1.7,45.9-3.6,82.5-15.9
		c21.1-7.1,37.2-12.2,48.3-15.3c9.4-2.6,18.1-3.5,26.3-2.7c4.3,0.4,8.4,1.4,12.1,3.1c6.9,3.1,9.9,9.6,9,19.4
		C622.7,699,621.5,702.7,619.3,706.1z"/>
	<path class="st0" d="M421.3,647.8c1,1.4,2.2,2.1,3.7,2.3c1.5,0.1,2.9-0.4,4.1-1.5c1.2-1.2,1.9-2.6,2.1-4.4c0.2-1.8-0.2-3.4-1.2-4.7
		c-1-1.4-2.2-2.1-3.7-2.3c-1.5-0.1-2.9,0.4-4.1,1.5c-1.2,1.2-1.9,2.7-2.1,4.4C419.9,644.8,420.3,646.4,421.3,647.8z"/>
	<path class="st0" d="M971.7,609.4c-6.7-3.3-13.5-6.2-20.4-8.9c-15.7-6.2-31.9-11.2-48-16.2c-3.8-1.2-7.5-2.4-11.3-3.6
		c-0.8-0.2-1.6-0.5-2.4-0.5c-1.6-0.1-3,1-3.5,2.5c-0.5,1.5,0,2.7,1.6,3.6c2.8,1.5,5.7,2.9,8.6,4.4c12,6.3,23.7,13.3,35.5,20
		c9.2,5.2,18.4,10.3,27.8,15c6.1,3.1,10.5,2.1,15.1-3.1c0.4-0.4,0.7-0.8,1.3-0.9c0.4-1.4,0.9-2.8,1.3-4.2c-0.2-0.5-0.5-1-0.5-1.5
		C976.4,612.8,974.5,610.8,971.7,609.4z"/>
	<path class="st0" d="M995.8,475.9c-1.5,0-2.9,0.3-4.3,0.9c-19.8,8.7-40.4,15.1-60.8,22c-12.7,4.3-25.3,8.7-37.7,13.9
		c-0.8,0.4-1.7,0.7-2.5,1.1c-1.1,0.6-1.5,1.6-1.1,2.8c0.4,1.1,1.2,1.9,2.5,1.7c0.5-0.1,0.9-0.2,1.3-0.3c13.1-3.3,26.4-5.2,39.8-7
		c13.8-1.9,27.6-3.7,41.2-6.9c8.7-2,17.2-4.6,25.4-8.1c3.2-1.4,5.5-3.6,6.4-6.3C1008.5,482.2,1003.2,475.7,995.8,475.9z"/>
	<path class="st0" d="M896.6,676.1c-1.3-0.6-2.4-1.3-3.5-2.1c-12.4-8.7-24.8-17.3-36.8-26.4c-2.6-2-4.6-1.8-6.1,0.5
		c-0.8,1.3-0.8,2.6-0.1,3.9c0.2,0.3,0.4,0.6,0.7,0.9c10.3,11.2,19.9,23,30.9,33.6c2.1,2,4.3,4,6.5,6c1.2,1,2.4,1.9,4,2.4
		c3.7,1,6.9,0.2,9.5-2.6c2.5-2.8,2.9-6.1,1.4-9.5C901.7,679.7,899.5,677.4,896.6,676.1z"/>
	<path class="st0" d="M899.2,554.2c1-0.3,1.9-0.6,2.9-0.8c2.2-0.5,4.3-0.3,6.3,0.9c3.7,2.1,7.1,0.6,8.4-3.2
		c1.4-4.4-1.7-9.3-6.4-10.1c-1.3-0.2-2.6-0.1-3.8,0c-4.2,0.6-7.9,2.4-11.4,4.7c-2.4,1.6-3.2,3.9-2.1,6.1
		C894.2,554,896.5,554.9,899.2,554.2z"/>
	<path class="st0" d="M879,628.9c-1.6,1.2-1.9,2.8-0.9,4.6c1.7,3,4.2,5,7.4,6.2c1.2,0.4,2.3,0.6,3.3-0.4c0.9-1,0.5-2.1,0-3.1
		c-1.3-2.6-3.2-4.9-5-7.1C882.7,627.7,880.5,627.8,879,628.9z"/>
	<path class="st0" d="M168.1,551.1c1.7-0.8,2.2-2,1.8-3.5c-0.4-1.6-1.8-2.7-3.4-2.7c-0.8,0-1.6,0.2-2.4,0.4c-3.8,1-7.6,2-11.5,2.9
		c-16.4,4.1-32.8,8.2-48.8,13.5c-7.1,2.3-14,4.8-20.9,7.8c-2.9,1.2-4.9,3.2-5.4,6.4c-0.1,0.5-0.4,1-0.6,1.5c0.4,1.4,0.7,2.9,1.1,4.3
		c0.6,0.1,0.9,0.5,1.3,0.9c4.3,5.5,8.7,6.7,14.9,4c9.7-4.2,19.2-8.7,28.6-13.5c12.1-6.1,24.2-12.3,36.5-18
		C162.3,553.7,165.2,552.5,168.1,551.1z"/>
	<path class="st0" d="M99.6,464.9c11.3,3.8,22.8,6.3,34.3,8.8c11.1,2.4,22.2,5,33.1,8.9c0.4,0.1,0.7,0.3,1.1,0.3
		c1.1,0.2,1.8-0.5,2.2-1.6c0.4-1.2,0.2-2.2-0.8-2.8c-0.7-0.5-1.4-0.8-2-1.2c-10.1-5.8-20.5-10.8-30.9-15.6
		c-16.8-7.8-33.8-15.2-49.9-24.7c-1.1-0.7-2.3-1-3.5-1.1c-6.2-0.6-11,5.7-9.4,13.3c0.6,2.7,2.4,5.1,5.1,6.6
		C85.4,459.5,92.4,462.5,99.6,464.9z"/>
	<path class="st0" d="M196.2,613.9c-12.5,8.4-25.4,16.4-38.2,24.4c-1.2,0.7-2.3,1.4-3.7,1.9c-3,1.1-5.3,3.3-6.7,6.2
		c-1.7,3.3-1.4,6.6,0.9,9.5c2.4,3,5.6,4,9.3,3.2c1.6-0.4,2.9-1.2,4.1-2.1c2.3-1.8,4.6-3.7,6.8-5.6c11.5-9.9,21.8-21.2,32.7-31.8
		c0.3-0.3,0.5-0.5,0.7-0.8c0.8-1.3,0.8-2.6,0.1-3.9C200.9,612.4,198.9,612.1,196.2,613.9z"/>
	<path class="st0" d="M151.7,504.8c-1.3-0.3-2.5-0.4-3.8-0.3c-4.7,0.6-8.1,5.3-7,9.7c1,3.9,4.4,5.5,8.2,3.6c2.2-1.1,4.2-1.1,6.4-0.5
		c1,0.3,1.9,0.7,2.9,1c2.6,0.9,5,0.1,6.2-2c1.2-2.1,0.6-4.5-1.8-6.2C159.5,507.6,155.9,505.7,151.7,504.8z"/>
	<path class="st0" d="M164.3,600.7c-0.5,1-1,2-0.2,3.1c0.9,1.1,2.1,1,3.3,0.6c3.3-1,5.9-2.9,7.7-5.8c1.1-1.7,0.8-3.4-0.7-4.6
		c-1.4-1.2-3.6-1.4-4.8-0.1C167.7,596,165.7,598.2,164.3,600.7z"/>
	<path class="st0" d="M476.2,158.5c-1.6,5.6-2.5,11.3-2.5,17.1c0,7.4,1.3,14.7,4,21.6c0,0,0,0,0,0c8.9,23.2,31.6,38.9,56.5,38.9
		c24.9,0,47.6-15.6,56.5-38.9c2.7-6.9,4-14.2,4-21.6c0-5.8-0.8-11.6-2.5-17.1c0,0,0,0,0,0c-2.5-8.4-6.7-16-12.5-22.7c0,0,0,0,0,0
		c-7.6-8.7-17.5-15-28.4-18.2l-0.1-5.5c0-1.7-1.2-3.2-2.9-3.6c-3.4-0.8-6.9-1.3-10.4-1.6V49.3c0-2.1-1.7-3.8-3.8-3.8
		c-2.1,0-3.8,1.7-3.8,3.8v57.5c-3.5,0.1-7,0.6-10.4,1.3c-1.8,0.4-3.1,2-3,3.8l0.2,5.7c-10.9,3.2-20.9,9.5-28.6,18.2
		C482.9,142.5,478.7,150.1,476.2,158.5C476.2,158.5,476.2,158.5,476.2,158.5z M534.2,228.6c-19.1,0-36.7-10.5-46.1-26.8
		c1.3,0.3,2.5,0.6,3.8,0.9c0.6,0.1,1.1,0.3,1.7,0.4c1.5,0.3,3,0.6,4.5,0.9c5.9,9.6,15.5,16.3,28.8,16.9c7.6,0.3,10.3-8,7.1-13.3
		c0.1,0,0.2,0,0.2,0c3.7,0,7.4-0.1,11.1-0.4c0.3,0,0.5,0,0.8,0c1.6-0.1,3.2-0.2,4.8-0.4c0.5,0,1-0.1,1.5-0.1
		c1.5-0.1,2.9-0.3,4.4-0.5c0.7-0.1,1.4-0.2,2-0.3c1.3-0.2,2.7-0.4,4-0.6c0.9-0.1,1.9-0.3,2.8-0.5c1.1-0.2,2.2-0.4,3.3-0.6
		c2-0.4,4-0.8,6-1.3c0.6-0.1,1.1-0.3,1.7-0.4c1.3-0.3,2.5-0.6,3.8-0.9C571,218.1,553.3,228.6,534.2,228.6z M586,164.3
		c0.8,3.7,1.2,7.5,1.2,11.3c0,5.9-1,11.7-2.9,17.2c-0.8,0.2-1.7,0.5-2.5,0.7c-0.9,0.3-1.8,0.5-2.7,0.8c-1.2,0.3-2.4,0.6-3.7,0.9
		c-0.9,0.2-1.7,0.4-2.6,0.6c-1.3,0.3-2.6,0.6-3.9,0.8c-0.8,0.2-1.6,0.3-2.4,0.5c-1.4,0.3-2.8,0.5-4.2,0.7c-0.7,0.1-1.5,0.2-2.2,0.4
		c-1.5,0.2-3,0.4-4.5,0.6c-0.6,0.1-1.3,0.2-1.9,0.2c-1.7,0.2-3.4,0.3-5.1,0.5c-0.5,0-0.9,0.1-1.4,0.1c-2.1,0.2-4.2,0.3-6.3,0.3
		c-0.1,0-0.1,0-0.2,0c-4.4,0.2-8.8,0.2-13.2,0c-0.1,0-0.1,0-0.2,0c-2.1-0.1-4.2-0.2-6.3-0.3c-0.2,0-0.3,0-0.5,0
		c-9-6.6-13.3-18.1-13.2-29.8c0.1,0,0.2,0,0.3,0c0.3,0,0.6,0.1,0.9,0.1c8.4,1.2,17,1.8,25.5,1.8c8.6,0,17.1-0.6,25.5-1.8
		c0.3,0,0.6-0.1,0.9-0.1c1.7-0.2,3.3-0.5,5-0.8c0.6-0.1,1.3-0.2,1.9-0.3c1.4-0.3,2.8-0.5,4.2-0.8c0.9-0.2,1.9-0.4,2.8-0.6
		c1.2-0.3,2.3-0.5,3.5-0.8c1.1-0.3,2.3-0.6,3.4-0.9c1-0.3,2-0.5,3-0.8C584.9,164.6,585.5,164.5,586,164.3z M574.1,143
		c0.5-0.1,1-0.3,1.5-0.4c3.5,4.4,6.3,9.3,8.3,14.5c-0.5,0.1-1,0.3-1.5,0.4c-1,0.3-2,0.6-3,0.8c-1.1,0.3-2.1,0.5-3.2,0.8
		c-1.1,0.3-2.3,0.6-3.4,0.8c-0.8,0.2-1.7,0.4-2.6,0.5c-1.4,0.3-2.7,0.6-4.1,0.8c-0.6,0.1-1.1,0.2-1.7,0.3c-1.6,0.3-3.3,0.6-4.9,0.8
		c-0.2,0-0.5,0.1-0.7,0.1c-16.3,2.3-32.9,2.3-49.1,0c-0.3,0-0.5-0.1-0.8-0.1c-0.2,0-0.4-0.1-0.7-0.1c1-5.5,2.9-10.8,5.8-15.5
		c6.7,0.9,13.4,1.3,20.2,1.3c6.9,0,13.8-0.5,20.6-1.4c0.1,0,0.2,0,0.4,0c1.4-0.2,2.8-0.4,4.1-0.6c0.5-0.1,0.9-0.1,1.4-0.2
		c1.1-0.2,2.3-0.4,3.4-0.6c0.7-0.1,1.4-0.3,2.1-0.4c0.9-0.2,1.9-0.4,2.8-0.6c0.9-0.2,1.7-0.4,2.6-0.6
		C572.4,143.4,573.2,143.2,574.1,143z M543.8,115.2l0,0.7c-3.1-0.5-6.3-0.8-9.6-0.8c-3.2,0-6.4,0.3-9.5,0.8l0-1
		C531,114,537.5,114.1,543.8,115.2z M534.2,122.7c13.2,0,25.8,4.9,35.5,13.7c-0.3,0.1-0.6,0.1-0.9,0.2c-2.3,0.5-4.5,1-6.8,1.5
		c-0.4,0.1-0.9,0.2-1.3,0.3c-2.4,0.4-4.9,0.8-7.3,1.1c-0.7,0.1-1.4,0.2-2.1,0.3c-2.4,0.3-4.8,0.5-7.2,0.6c-0.7,0-1.4,0.1-2.1,0.1
		c-2.3,0.1-4.6,0.2-6.8,0.2c-0.6,0-1.1,0-1.7,0c-2.3,0-4.6-0.1-6.8-0.2c-0.7,0-1.4-0.1-2.1-0.1c-1.6-0.1-3.1-0.3-4.6-0.4
		c2.4-2.2,5.1-4.1,8.1-5.4c3.9-1.8,0.9-6.9-2.7-6.4c-7.9,1.2-14.5,4.8-19.7,9.7c-2-0.4-4-0.8-5.9-1.3c-0.3-0.1-0.6-0.1-0.9-0.2
		C508.4,127.6,521.1,122.7,534.2,122.7z M492.9,142.6c0.5,0.1,1,0.3,1.5,0.4c0.8,0.2,1.7,0.4,2.5,0.7c0.9,0.2,1.7,0.4,2.6,0.6
		c0.2,0,0.4,0.1,0.5,0.1c-3.1,4.5-5.4,9.6-7,15c-0.3-0.1-0.6-0.1-0.8-0.2c-1.1-0.3-2.1-0.5-3.2-0.8c-1-0.3-2-0.5-3-0.8
		c-0.5-0.1-1-0.3-1.4-0.4C486.6,151.8,489.3,147,492.9,142.6z M482.5,164.3c0.5,0.2,1,0.3,1.5,0.4c1,0.3,2,0.6,3.1,0.8
		c1.1,0.3,2.2,0.6,3.4,0.9c0.3,0.1,0.7,0.2,1,0.2c-1.5,9.7-0.7,19.9,2.5,28.8c-0.3-0.1-0.6-0.1-0.9-0.2c-1.2-0.3-2.5-0.6-3.7-0.9
		c-0.9-0.2-1.8-0.5-2.7-0.8c-0.8-0.2-1.7-0.5-2.5-0.7c-1.9-5.5-2.9-11.3-2.9-17.2C481.2,171.8,481.7,168,482.5,164.3z"/>
	<path class="st0" d="M383.8,245.2c0,1.3,1,2.4,2.3,2.5c0.1,0,0.2,0,0.2,0c1.2,0,2.2-0.8,2.5-2c1-4.9,3-9.3,5.1-13.2
		c1.6-3,3.1-4.4,3.8-4.6c0.8-0.3,1.4-0.9,1.7-1.8c0.2-0.8,0-1.7-0.6-2.3c-5.1-5.5-8.4-12.6-8.6-18.9c0-1.4-1.2-2.4-2.6-2.4
		c-1.4,0-2.5,1.2-2.4,2.6c0.2,6.2-3.7,12.3-9.4,14.9c-0.8,0.3-1.3,1-1.5,1.9c-0.1,0.8,0.1,1.7,0.7,2.2
		C380.4,229.1,383.7,237.1,383.8,245.2z M387.5,215.4c1.4,3.3,3.3,6.6,5.6,9.5c-1.3,1.2-2.6,3-3.7,5.2c-0.8,1.5-1.5,3-2.2,4.5
		c-1.4-4.4-3.6-8.5-6.4-11.9C383.5,220.9,385.8,218.3,387.5,215.4z"/>
	<path class="st0" d="M652.7,221.9c0,1.3,1,2.4,2.3,2.5c0.1,0,0.2,0,0.2,0c1.2,0,2.2-0.8,2.5-2c1-4.9,3-9.3,5.1-13.2
		c1.6-3,3.1-4.4,3.8-4.6c0.8-0.3,1.4-0.9,1.7-1.8c0.2-0.8,0-1.7-0.6-2.3c-5.1-5.5-8.4-12.6-8.6-18.9c0-1.4-1.2-2.4-2.6-2.4
		c-1.4,0-2.5,1.2-2.4,2.6c0.2,6.2-3.7,12.3-9.4,14.9c-0.8,0.3-1.3,1-1.5,1.9c-0.1,0.8,0.1,1.7,0.7,2.2
		C649.4,205.9,652.7,213.8,652.7,221.9z M656.4,192.1c1.4,3.3,3.3,6.6,5.6,9.5c-1.3,1.2-2.6,3-3.7,5.2c-0.8,1.5-1.5,3-2.2,4.5
		c-1.4-4.4-3.6-8.5-6.4-11.9C652.5,197.7,654.8,195.1,656.4,192.1z"/>
	<path class="st0" d="M385.4,292.9c7.1,0,7.1-11.1,0-11.1C378.3,281.8,378.2,292.9,385.4,292.9z"/>
	<path class="st0" d="M308.9,245c7.1,0,7.1-11.1,0-11.1C301.7,233.9,301.7,245,308.9,245z"/>
	<path class="st0" d="M427.8,162c7.1,0,7.1-11.1,0-11.1C420.7,151,420.6,162,427.8,162z"/>
	<path class="st0" d="M564.2,277.2c7.1,0,7.1-11.1,0-11.1C557.1,266.2,557.1,277.2,564.2,277.2z"/>
	<path class="st0" d="M776.2,227.5c7.1,0,7.1-11.1,0-11.1C769.1,216.4,769.1,227.5,776.2,227.5z"/>
	<path class="st0" d="M596.4,113.2c7.1,0,7.1-11.1,0-11.1C589.3,102.1,589.3,113.2,596.4,113.2z"/>
	<path class="st0" d="M474.8,76.3c7.1,0,7.1-11.1,0-11.1C467.7,65.2,467.6,76.3,474.8,76.3z"/>
	<path class="st0" d="M236,587.9c7.1,0,7.1-11.1,0-11.1C228.9,576.8,228.9,587.9,236,587.9z"/>
	<path class="st0" d="M360.5,575.9c7.1,0,7.1-11.1,0-11.1C353.4,564.8,353.4,575.9,360.5,575.9z"/>
	<path class="st0" d="M661.9,623.8c7.1,0,7.1-11.1,0-11.1C654.8,612.7,654.8,623.8,661.9,623.8z"/>
	<path class="st0" d="M776.2,639.5c7.1,0,7.1-11.1,0-11.1C769.1,628.4,769.1,639.5,776.2,639.5z"/>
	<path class="st0" d="M473.9,895.8c1.1-3.8,2-6.9,2.8-10.1c0.7-3,2.2-5.9,1.7-9.4c-4.6,5.5-8.1,11.6-12.5,17.5
		c-0.9-1.3-1.7-2.2-2.3-3.2c-2.6-4.3-5.2-8.6-7.8-12.9c-3.7-6.2-7.4-12.3-11.1-18.5c-0.6-1-1.1-2.4-3.3-2.8
		c3.7,14.5,8.7,28.1,12.4,42.5c-3.1-0.4-5.5-0.7-7.9-1c-2.4-0.3-4.8-0.8-7.3-1c-2.3-0.2-4.6-1.4-7.7,0c6.4,3.2,12.1,6,18.7,9.3
		c-6.3,3.7-12,7-17.6,10.4c-5.5,3.4-11.3,6.2-16.5,10c0.1,0.3,0.3,0.6,0.4,0.9c12.8-3.9,25.5-7.9,38.9-12
		c-1.2,5.3-2.2,10.1-3.3,14.8c0.3,0.2,0.7,0.3,1,0.5c3.9-3.2,6.2-8,10-11.5c0.8,1.2,1.5,2.1,2.1,3.2c5.1,9.1,10.1,18.3,15.1,27.4
		c3.9,7,7.7,14,11.7,21c0.4,0.7,1.1,1.2,1.7,1.8c0.3-0.2,0.6-0.3,0.9-0.5c-1.3-6.7-4.2-12.9-6.2-19.4c-2-6.5-4.3-12.9-6.5-19.3
		c-2.2-6.5-4.4-13-6.8-20c6.3,0.5,12,0.9,17.7,1.3c0.1-0.3,0.2-0.7,0.3-1c-4.4-3.3-10-4.7-14.9-8.2c11.9-7.2,23.5-14.1,35-21
		c-0.1-0.3-0.3-0.7-0.4-1C499.7,887.8,487.1,891.7,473.9,895.8z"/>
	<path class="st0" d="M718.1,861.2c-5.3,0-5.3,8.3,0,8.3C723.5,869.4,723.5,861.2,718.1,861.2z"/>
	<path class="st0" d="M645.3,858.4c-5.3,0-5.3,8.3,0,8.3C650.6,866.7,650.6,858.4,645.3,858.4z"/>
	<path class="st0" d="M601.1,963.5c-5.3,0-5.3,8.3,0,8.3C606.4,971.8,606.4,963.5,601.1,963.5z"/>
	<path class="st0" d="M499.7,1026.1c-5.3,0-5.3,8.3,0,8.3C505,1034.4,505,1026.1,499.7,1026.1z"/>
	<path class="st0" d="M785.9,401.6c0,2,0.8,3,2.5,3H802l52.4,144.1l-1.4,2.9c-1,1.9-1.8,3.8-2.7,5.7c-0.8,1.9-1.7,3.8-2.7,5.7
		c-4.3,9.3-8.3,16.4-12.1,21.4c-3.8,5-7.4,8.4-10.7,10.3c-3.3,2.1-6.5,3-9.6,2.5c-2.9-0.2-5.4-1.1-7.7-2.5c-2.3-1.4-4.7-3.2-7.3-5.3
		c-2.6-1.9-4.9-2.8-7-2.7c-2,0.1-3.6,0.8-4.6,2c-1.1,1.2-1.6,2.8-1.6,4.8c0,2,0.8,4,2.5,5.9c5.2,5.5,11.8,8.3,19.6,8.4
		c7.8,0.1,14.6-2,20.3-6.2c5.5-4,10.2-9.4,14.1-16.1c3.9-6.7,7.3-13.3,10.2-20l31-69.2l21.4-48.9c1.2-3.1,2.4-6.2,3.7-9.3
		c1.3-3.1,2.4-6.3,3.4-9.6c2.1-6.4,3.2-12.5,3.2-18.2c0-7.4-2.4-13.2-7.1-17.5c-5-5-11.2-7.5-18.7-7.5c-7.5,0-14,2.5-19.4,7.5
		c-4.5,4.3-7.3,9.6-8.2,15.9c-1,6.3,0.6,11.8,4.6,16.6c2.4,2.6,5.1,4.5,8.2,5.5c3.1,1.1,6.2,1.4,9.3,1.1c3.1-0.4,5.9-1.5,8.6-3.4
		c2.6-1.9,4.5-4.4,5.7-7.5c1.2-3.8,0.9-7.5-0.7-11.1c-1.4-2.9-3.2-4.6-5.2-5.3c-2-0.7-3.7-0.7-5.2,0c-1.4,0.7-2.4,1.9-2.9,3.6
		c-0.5,1.7,0.2,3.6,2.1,5.7c2.9,3.8,3.2,7.1,1.1,10c-1.9,2.1-4.7,3-8.4,2.7c-3.7-0.4-6.5-2.1-8.4-5.2c-2.6-4.3-3.3-8.8-2.1-13.6
		c1.2-4.8,3.7-8.7,7.5-11.8c4-2.9,8.7-4.2,14.1-4.1c5.4,0.1,9.8,2,13.4,5.5c3.6,3.3,5.3,7.6,5.3,12.8c0,5-1.1,10.5-3.2,16.4
		c-1,2.9-2,5.8-3.2,8.9c-1.2,3.1-2.4,6.1-3.6,8.9l-32.1,72.8l-39.6-112.7h13.6c1.7,0,2.5-1,2.5-3c0-2-0.8-3-2.5-3h-53.5
		C786.7,398.6,785.9,399.6,785.9,401.6z"/>
	<path class="st0" d="M818.5,506.6c3.1-5.5,5.9-11.2,8.4-17l-3.8-10.6c-3.8,11.1-8.5,21.5-14.2,31.2c-8.4,14.3-18.9,26.5-31.2,36.6
		c-12.4,10.1-26.2,16.8-41.4,20.2c-9.3,2.1-18.3,2.7-27.1,1.6c-8.8-1.1-16.6-3.7-23.4-8c-6.8-4.3-12.3-10.2-16.4-17.8
		c-4.2-7.6-6.2-17-6.2-28.2c0-2.6,0.1-5.3,0.2-8c0.1-2.7-0.1-6-0.5-9.8c-0.5-7.1-2.5-13.4-6.1-18.9c-3.6-5.5-10.1-8.7-19.6-9.6
		c10.2-1.4,18.2-5.5,24.1-12.3c5.8-6.8,8.9-14.2,9.3-22.3c0.4-8.1-2.3-15.6-7.8-22.7c-5.6-7-14.4-11.5-26.6-13.4
		c-6.9-0.7-13.7-1.1-20.3-1.1h-55.3c-1.7,0-2.4,1-2.3,3c0.1,2,0.8,3,2,3h14.3v130.2h-13.9c-1.7,0-2.5,1.1-2.5,3.2
		c0,2.1,0.8,3.2,2.5,3.2h51.7c1.7,0,2.5-1.1,2.5-3.2c0-2.1-0.8-3.2-2.5-3.2h-13.6v-72.1c2.1,3.6,5.1,6.2,8.9,7.8
		c3.8,1.7,8.2,2.7,13.2,3.2c5.9,0.7,10.2,2.5,12.8,5.4c2.6,2.9,4.3,6.3,5,10.3c0.7,4,0.9,8.4,0.5,13c-0.4,4.6-0.3,9,0.2,13
		c0.9,11.7,4.6,21.7,11.1,30.1c6.4,8.4,14.3,15.1,23.7,20c9.4,4.9,19.7,7.9,31,9.1c11.3,1.2,22.4,0.4,33.4-2.5
		c17.8-4.8,33.5-12.7,46.9-23.9C798.8,535.1,809.9,521.9,818.5,506.6z M633.2,461c-3.3,2.6-6.8,4.2-10.5,4.6
		c-3.7,0.5-7.1,0-10.3-1.4c-3.2-1.4-5.8-3.7-7.7-6.8c-1.9-3.1-2.7-7-2.5-11.8c0.2-4.5,1.5-7.9,3.7-10.2c2.3-2.3,4.8-3.6,7.5-3.9
		c2.7-0.4,5.4,0.1,7.8,1.2c2.5,1.2,4,3,4.5,5.4c0.2,1.2,0,2.6-0.7,4.1c-0.7,1.5-2.4,2.9-5,4.1c-2.4,1-3.8,2.3-4.3,3.9
		c-0.5,1.7-0.3,3.2,0.5,4.5c0.8,1.3,2.3,2.1,4.3,2.3c2,0.2,4.2-0.5,6.6-2.1c3.3-2.4,5.3-5.5,6.1-9.3c0.5-3.3,0.1-6.4-1.3-9.1
		c-1.3-2.7-3.2-5-5.5-6.8c-2.4-1.8-5.1-3-8.2-3.6c-3.1-0.6-6.2-0.4-9.3,0.5c-2.1,1-4.1,2.1-5.9,3.6c-1.8,1.4-3.3,3.1-4.5,5v-32.8
		h17.1c8.3-0.2,14.9,2,19.8,6.6c4.9,4.6,8,10.2,9.3,16.6c1.3,6.4,1,13-0.9,19.6C642,451.9,638.5,457.2,633.2,461z"/>
</g>
</svg>
