<?xml version="1.0" encoding="utf-8"?>
<!-- Generator: Adobe Illustrator 22.0.0, SVG Export Plug-In . SVG Version: 6.00 Build 0)  -->
<svg version="1.1" id="Layer_1" xmlns="http://www.w3.org/2000/svg" xmlns:xlink="http://www.w3.org/1999/xlink" x="0px" y="0px"
	 viewBox="0 0 1080 1080" style="enable-background:new 0 0 1080 1080;" xml:space="preserve">
<style type="text/css">
	.st0{fill:#71020C;}
</style>
<g>
	<path class="st0" d="M338,693.1v11h4.1l-0.2-7.9c0-19.9,33.8-19.6,33.8,3.1c0,42.6,0,85,0,127.7c0,20.4-9.3,18.7-14.6,18.7v4.1
		c19.2,0,38.6,0,57.7,0v-4.1c-5.3,0-14.6,1.7-14.6-18.7c0-42.6,0-85,0-127.7c0-22.8,33.8-22.8,33.8-3.1c0,3.1,0,7.4,0,7.9h3.8v-11
		v-16.5H338V693.1z"/>
	<path class="st0" d="M559.1,680.7c5.3,0,14.9-1.7,14.9,18.7V772c0,20.1-9.6,18.7-14.9,18.7v3.8h81V770H636v5
		c0,19.6-33.8,19.6-33.8-3.1v-35c17.3,0.2,16.8,4.1,17.3,14.6h3.8v-33.8h-3.8c-0.5,10.5,0,14.6-17.3,14.6v-33.1
		c0-22.8,33.8-22.8,33.8-3.1c0,3.1,0,4.8,0,5.3h4.1v-24.9h-81V680.7z"/>
	<path class="st0" d="M566.1,820.3c-3.4,6-5,12.9-4.6,19.4c1.7,20.6,24,27.6,36.4,20.4c6.9-4.3,10.3-15.1,8.4-22.8
		c-2.6-8.9-15.8-6-13.9,3.6c0.7,3.4,3.1,6.2,6.7,6.7c-2.9,13.9-29.2,11-30.7-8.4c-0.5-5.3,0.7-10.8,3.4-15.6
		c12-21.3,44.8-17.7,55.6,4.1c11.7,23.5-0.2,50.1-22.8,61.1c-63.7,30.7-45-90.6-85.3-105.9c-1-0.2-1.9-0.7-2.6-1
		c2.6-0.7,5-1.4,7.4-2.6c27.6-12.2,35.2-56.5,20.8-81.7c-7.7-13.4-22-19.4-36.7-20.8c-5-0.2-10.1-0.2-15.1-0.2h-47.9v4.1
		c5.3,0,14.6-1.7,14.6,18.7v127.7c0,20.4-9.3,18.7-14.6,18.7v4.1h57.7v-4.1c-5.3,0-14.9,1.7-14.9-18.7v-43.1h8.1
		c35,3.1,3.4,114.8,81.5,117.1c10.5,0.5,20.6-1.9,29.7-6.2c26.1-12.7,39.3-43.1,25.9-70C620.2,798.1,580.7,794.2,566.1,820.3z
		 M508.6,776c-6,4.1-13.4,2.9-20.4,2.9v-79.5c0-6.7,1-11,2.6-13.7c3.1-5.8,11.3-6.2,16.3-3.6C530.6,693.9,530.4,760.9,508.6,776z"/>
	<path class="st0" d="M725.4,830.2c0,19.9-33.8,19.9-33.8-3.1v-34.7c17.2,0.2,16.8,4.1,17,14.6h4.1c0-11.3,0-22.5,0-33.8h-4.1
		c-0.2,10.5,0.2,14.4-17,14.6v-88.4c0-22.8,33.8-22.8,33.8-3.1c0,3.1,0,4.8,0,5.3h3.8v-24.9h-80.7v4.1c5.3,0,14.6-1.7,14.6,18.7
		c0,42.6,0,85,0,127.7c0,20.4-9.3,18.7-14.6,18.7v4.1h80.7v-24.4h-3.8V830.2z"/>
	<path class="st0" d="M181.9,573.7h-4.3c-2.2,26.1-30.4,37.1-38.8,14.9c-8-21.4-7.6-102.3,0-123.2c8.4-21.8,35.6-11.4,40.1,14.9h3
		l-2.8-34.3h-3.5c0,2.2,0.6,8.6-1.3,10.1c-0.6,0.4-1.9,0.4-3.5-1.1c-13.2-12.1-40.1-8.6-50.5,5.4c-17,22.4-17,110.7,0,133.1
		c8,10.8,23.7,15.3,36.9,12.1C172.8,602,180.6,589,181.9,573.7z"/>
	<path class="st0" d="M239.3,601.3c-4.7,0-13.2,1.5-13.2-16.8v-28c14,1.1,30.6,5.4,39,15.3v12.7c0,18.3-8.6,16.8-13.4,16.8v3.7
		c17.5,0,34.7,0,52,0v-3.7c-4.7,0-13.2,1.5-13.2-16.8c0-38.4,0-76.6,0-115c0-18.3,8.4-16.8,13.2-16.8V449c-17.3,0-34.5,0-52,0v3.7
		c4.7,0,13.4-1.5,13.4,16.8v94.1c-8.6-7.6-25.9-12.1-39-12.9v-81.1c0-18.3,8.4-16.8,13.2-16.8V449c-17.3,0-34.7,0-52,0v3.7
		c4.7,0,13.2-1.5,13.2,16.8c0,38.4,0,76.6,0,115c0,18.3-8.4,16.8-13.2,16.8v3.7c17.3,0,34.7,0,52,0V601.3z"/>
	<path class="st0" d="M351.9,545.6c27,1.5,6.7,100.1,67.1,100.5c6.7,0,13.2-0.4,19.4-2.6c47.2-17.5,37.3-76.6,0-80.7
		c-17.7-1.9-34.9,12.1-33.4,33.7c1.3,17.9,19.2,25,31.3,20.7c8-3,12.7-12.9,10.8-21.1c-1.9-8.2-13.8-5.8-12.5,2.6
		c0.4,3,2.6,5.8,5.8,6.3c-3.7,12.3-27.8,9.3-29.3-8.8c-1.3-17.9,13.2-29.1,27.6-27c27.4,4.3,36.2,43.8,9.1,62.6
		c-10.8,7.3-20.3,7.3-28,3c-32.8-17.9-17.3-75.1-48.3-91.5c30.8-8,39.7-50.5,25.5-75.3c-6.9-12.1-19.8-17.5-33-18.8
		c-4.5-0.2-9.1-0.2-13.6-0.2H307v3.7c4.7,0,13.2-1.5,13.2,16.8v115c0,18.3-8.4,16.8-13.2,16.8v3.7h52v-3.7
		c-4.7,0-13.4,1.5-13.4-16.8v-38.8H351.9z M345.6,469.5c0-6,1.1-9.9,2.4-12.3c2.8-5.2,10.1-5.6,14.7-3.2c21.1,10.6,20.9,71,1.3,84.6
		c-5.4,3.7-12.1,2.6-18.3,2.6V469.5z"/>
	<path class="st0" d="M409.5,551.7v3.7h52.2v-3.7c-5,0-13.4,1.5-13.4-16.8v-65.4c0-18.3,8.4-16.8,13.4-16.8V449h-52.2v3.7
		c5,0,13.4-1.5,13.4,16.8v65.4C422.9,553.2,414.5,551.7,409.5,551.7z"/>
	<path class="st0" d="M489.1,595.9c-6.3-5.2-9.7-13.2-10.4-24.2h-4.3l-0.9,34.1h3.7c0.2-2.2,0.2-8.2,2.2-9.5
		c0.9-0.4,1.9-0.2,3.5,1.5c7.6,8.2,20.9,11,32.8,8.8c23.5-4.3,32.6-28.5,28.7-49.2c-6.5-34.7-56.5-48.8-50.7-85.2
		c2.6-16.8,17.3-25.7,31.9-13.2c6,5.2,9.7,12.9,10.4,23.9l4.1-0.4l0.9-33.4h-3.7c0,2.2-0.2,8.2-2.2,9.5c-0.9,0.4-1.9,0.2-3.5-1.5
		c-7.6-8.2-20.9-11-32.8-8.8c-25.7,4.7-34.1,33-27.4,54.6c9.5,30.2,55,45.1,49.6,79.8C518.2,599.6,503.8,608.4,489.1,595.9z"/>
	<path class="st0" d="M644.2,473.8v-9.9V449h-93.4v14.9v9.9h3.7l-0.2-7.1c0-17.9,30.4-17.7,30.4,2.8c0,38.4,0,76.6,0,115
		c0,18.3-8.4,16.8-13.2,16.8v3.7c17.3,0,34.7,0,52,0v-3.7c-4.7,0-13.2,1.5-13.2-16.8c0-38.4,0-76.6,0-115c0-20.5,30.4-20.5,30.4-2.8
		c0,2.8,0,6.7,0,7.1H644.2z"/>
	<path class="st0" d="M688.9,627.8c27.8,9.1,58.5,19,96.4,19c29.8,0,61-11,70.8-41.9h32.6v-3.5c-4.7,0-13.2,1.3-16-17L849.6,449
		c-12.7,0-25.2,0-38,0v3.5c7.3,0,14.2,2.4,12.3,11.2l-15.5,69.9c-11.9,1.1-22.7,7.1-29.6,16.6c-1.7,2.8-4.1,6.5-5.2,9.9
		c-3.9,12.1,11.9,14.5,13.4,4.3c0.4-3.5-0.9-7.1-4.3-8.6c0-0.4,0.6-1.3,1.3-2.2c5.4-7.6,13.6-12.3,22.9-13.6l-9.9,44.7
		c-3.9,18.1-12.1,16.8-16.8,16.8v3.5c10.6,0,21.4,0,31.9,0v-3.5c-4.7,0-12.7,1.3-8.8-16.8l10.1-45.1c11.2,0.2,21.6,5.6,28.5,14.2
		l5.2,30.6c3,18.3-5.2,17-9.9,17v3.5h12.5c-9.5,27-38.2,35.6-64.3,35.8c-36.9,0-67.1-9.9-94.5-18.8c-9.5-3-18.6-6-27.6-8.4
		c4.7-17.9,3.7-38.2,3.7-56.5v-78.3l33.2,114.8l8.4-0.4l26.7-114.5v105.9c0,18.3-8.4,17-13.2,17v3.5c17.3,0,34.7,0,52,0v-3.5
		c-4.7,0-13.2,1.3-13.2-17c0-38.2,0-76.6,0-115c0-18.3,8.4-16.8,13.2-16.8V449c-17.3,0-34.7,0-52,0v3.7c1.1,0,2.2,0,3.2,0
		c4.5,0.2,9.3,2.4,6,16.8l-18.8,77.4L690,469.5c-4.7-18.3,5.4-16.8,10.1-16.8V449c-17.5,0-34.9,0-52.6,0v3.7
		c4.7,0,13.4-1.5,13.4,16.8v88c0,17.9,1.1,37.1-3.5,54.6c-19.6-5-51.6-9.9-70.1,1.7c-18.1,11.2-12.9,32.4,5.8,40.1
		c28,11.4,59.1-7.6,68.4-34.5C670.5,621.8,679.6,624.8,688.9,627.8z M814.6,533.6l13.6-60.6l11.9,70.5
		C832.8,537.4,823.9,534,814.6,533.6z M595.5,648.3c-14.2-5.8-19-20.7-5-29.6c16.8-10.4,47.2-5.2,65.2-0.9
		C647.5,641.2,620.1,658.5,595.5,648.3z"/>
	<path class="st0" d="M971.5,557.5c-6.5-34.7-56.5-48.8-50.7-85.2c2.6-16.8,17.3-25.7,31.9-13.2c6,5.2,9.7,12.9,10.4,23.9l4.1-0.4
		l0.9-33.4h-3.7c0,2.2-0.2,8.2-2.2,9.5c-0.9,0.4-1.9,0.2-3.5-1.5c-7.6-8.2-20.9-11-32.8-8.8c-25.7,4.7-34.1,33-27.4,54.6
		c9.5,30.2,55,45.1,49.6,79.8c-2.8,16.8-17.3,25.7-31.9,13.2c-6.3-5.2-9.7-13.2-10.4-24.2h-4.3l-0.9,34.1h3.7
		c0.2-2.2,0.2-8.2,2.2-9.5c0.9-0.4,1.9-0.2,3.5,1.5c7.6,8.2,20.9,11,32.8,8.8C966.3,602.4,975.4,578.2,971.5,557.5z"/>
	<path class="st0" d="M540.4,369.9c2.2,1.5,4.7,2.2,7.5,2.2c6.5,0,12.4-4.3,17.9-13c8.5-13.6,12.8-28.7,12.8-45.3
		c0-3.4-0.2-6.8-0.6-10.1c-0.4-3.4-1.3-6.8-2.7-10.3c-1.4-3.5-3.5-6.2-6.4-8.1c-2.9,8.1-7,15.5-12.4,22c-4.1,5.1-8.9,9.4-14.4,13
		c-5.5,3.6-11.5,5.7-18.1,6.3C524,348,529.5,362.4,540.4,369.9z"/>
	<path class="st0" d="M553.6,305c5.1-6.3,9-13.3,11.7-21.1c-0.9-0.2-1.8-0.3-2.7-0.3c-0.5,0-2.1,0.2-4.9,0.6c-1.2,0-1.8-0.6-1.8-1.9
		c0-1.6,2.2-2.4,6.6-2.4c1.3,0,2.6,0.1,3.9,0.4c0.9-3.2,1.4-6.8,1.4-10.6c0-4.3-1.2-7.6-3.5-10c-1.8-1.8-3.9-2.8-6.3-2.8
		c-3.1,0-6.1,1-8.8,2.9c-5.5,3.9-9.8,8.9-12.9,14.7c-7.7,14.6-11.8,30.7-12.4,48.3c1.6-0.1,3.2-0.4,4.7-0.7
		C538.1,319.7,546.4,314,553.6,305z"/>
	<path class="st0" d="M428.6,360.3c-22.3,20.6-36.6,38.7-42.9,54.1c0.7,0,1,0.3,1,1c0.7,0,1-0.3,1-1c30.1,0,71-0.7,122.6-2v22.5
		c0,1.4,0.7,2,2,2h54.1c1.4,0,2-0.7,2-2v-23.5c75.8-1.4,117.3-2,124.6-2c1.4,0,2-0.7,2-2c-9.2-13.5-14-20.9-14.3-22.5
		c-19.1-21.1-34.7-39.2-47-54.1h18.4l2-1l-11.2-19.4c-22.1-26.2-36.8-44.6-43.9-55.2h24.5l2-1l-5.1-9.2l-46-60.3
		c12.6-0.7,21.8-1,27.6-1h2l2-1l-6.1-10.2c-15.5-18.9-27.8-34.9-36.8-48c-11.6-18.4-21.8-39.8-30.6-64.4h-1l-7.2,10.2
		c-3.6,26.9-13.1,50.7-28.6,71.5c-22.5,25.5-33.7,40.2-33.7,43.9v1c7.2,0,18-0.3,32.7-1h1c-6,10.7-15.2,23-27.6,36.8
		c-15.7,15.5-24.2,27.4-25.5,35.8h37.8v1c-9.5,12.9-18,23.5-25.5,31.7c-14,13.1-24.9,27.1-32.7,41.9c0,1.4,0.7,2,2,2h27.6
		C442.9,346,435.1,354.5,428.6,360.3z M502.9,275c3-2.6,5.5-3.9,7.6-3.9c1,0,1.5,0.5,1.5,1.6c0,0.9-0.4,1.5-1.2,1.8
		c-1.7,0.6-3.2,1.4-4.6,2.5c-0.1,0.2-0.2,0.4-0.4,0.6c-4.6,4.4-6.9,10.4-6.9,17.9c0,2.8,0.4,5.5,1.1,8c2.1,7.7,6.4,13.2,12.9,16.6
		c1.4-17.5,6.3-33.4,14.5-47.6c7.7-13.2,17.5-19.8,29.4-19.8c4.1,0,7.5,1.5,10.3,4.4c3.1,3.2,4.6,7.6,4.6,13.2
		c0,4.2-0.6,7.9-1.7,11.2l0.4,0.2c6.3,3.8,10.1,10.9,11.4,21.2c0.4,3.5,0.6,6.9,0.6,10.4c0,17.8-4.4,33.7-13.3,47.8
		c-2.2,3.5-4.8,6.6-7.9,9.3c-5.1,4.6-10.8,6.9-16.9,6.9c-5.6,0-10.8-1.6-15.5-4.8c-4.4-3-7.7-6.9-10-11.7c-4.2-8.6-6.3-18.9-6.3-31
		c0-1.8,0-3.2,0.1-4.2c-8.4-1.9-14.3-6.5-17.7-14c-1.8-4-2.8-8.2-2.8-12.6C492.1,289.2,495.7,281.1,502.9,275z"/>
	<path class="st0" d="M902.1,624.7c-1.7-1.8-3.5-3.4-5.6-4.8c-2.6-1.7-5.9-1.1-7.6,1.3c-1.6,2.2-1.1,4.2,1.7,6.5
		c2.4,2,4.5,4.1,6.4,6.5c7,9,9.4,19.3,8.3,30.4c-1.6,16.5-8.6,30.4-19.3,42.7c-3.9,4.5-8.4,8.2-13.6,11.2
		c-9.3,5.2-19.3,7.5-29.8,8.2c-2.1,0.1-4.3,0.4-6.4,0.1c-0.1-0.9,0.5-1.4,0.8-2c2-3.8,3.5-7.8,4.2-12.1c1.3-7.5,0.4-14.7-3.8-21.2
		c-10.5-16.5-33.3-17.9-46.5-5.2c-4,3.8-5.6,8.7-5.2,14.3c0.2,3.3,1.1,6.4,2.4,9.4c5.1,10.8,12.9,18.6,23.9,23.1
		c0.6,0.3,1.3,0.5,2.2,0.9c-0.8,1.1-1.8,1.6-2.7,2.1c-16.3,9.7-34,14-52.9,13.1c-4.6-0.2-9.1-1-13.5-2.4c-7.2-2.2-13.5-6-18.4-11.9
		c-2.1-2.6-4.9-3.1-7.4-1.6c-2.6,1.5-3.1,3.9-1.3,6.4c0.5,0.6,1,1.2,1.5,1.8c7,7.9,15.8,12.8,25.8,15.4c12.8,3.3,25.6,2.9,38.4,0.3
		c15.6-3.2,30.1-9.3,42.6-19.5c0.7-0.6,1.4-0.8,2.4-0.7c9.1,0.9,18.2,0,27.1-2c6.9-1.5,13.7-3.6,20.1-6.8c9.9-4.8,17.8-12,24.2-20.9
		c11.3-15.8,17.1-33.3,15.1-53C914.1,643,909.9,633,902.1,624.7z M831.2,712.9c-1.3,4.8-3.9,8.9-7.3,12.7
		c-8.7-2.3-16.8-5.6-23.2-12.3c-4.6-4.9-6.3-10.6-3.7-17.1c2-5.2,5.8-8.1,11.2-8.8c8.4-1.1,18.1,4,21.7,11.4
		C832.3,703.3,832.4,708.1,831.2,712.9z"/>
	<path class="st0" d="M355.7,733.1c-2.5-1.5-5.3-0.9-7.4,1.6c-4.9,5.9-11.1,9.7-18.4,11.9c-4.4,1.4-8.9,2.2-13.5,2.4
		c-18.9,0.8-36.6-3.4-52.9-13.1c-0.9-0.5-1.8-1-2.7-2.1c0.9-0.4,1.5-0.6,2.2-0.9c11-4.5,18.8-12.3,23.9-23.1
		c1.4-2.9,2.2-6.1,2.4-9.4c0.4-5.6-1.2-10.4-5.2-14.3c-13.2-12.7-36-11.3-46.5,5.2c-4.1,6.5-5.1,13.7-3.8,21.2
		c0.7,4.3,2.2,8.3,4.2,12.1c0.3,0.6,0.8,1.1,0.8,2c-2.1,0.4-4.3,0.1-6.4-0.1c-10.5-0.7-20.5-3-29.8-8.2c-5.2-2.9-9.7-6.7-13.6-11.2
		c-10.7-12.2-17.8-26.2-19.3-42.7c-1.1-11.1,1.3-21.4,8.3-30.4c1.9-2.4,4.1-4.5,6.4-6.5c2.8-2.3,3.3-4.2,1.7-6.5
		c-1.7-2.4-5-3-7.6-1.3c-2,1.4-3.9,3-5.6,4.8c-7.7,8.3-12,18.3-13.1,29.5c-2,19.7,3.8,37.2,15.1,53c6.4,8.9,14.3,16.1,24.2,20.9
		c6.4,3.1,13.2,5.2,20.1,6.8c8.9,2,17.9,2.8,27.1,2c0.9-0.1,1.6,0.2,2.4,0.7c12.5,10.2,26.9,16.2,42.6,19.5
		c12.8,2.6,25.6,3.1,38.4-0.3c10.1-2.6,18.8-7.5,25.8-15.4c0.5-0.6,1-1.2,1.5-1.8C358.8,737,358.3,734.6,355.7,733.1z M244,712.9
		c-1.3-4.8-1.1-9.5,1.1-14.1c3.6-7.4,13.3-12.5,21.7-11.4c5.5,0.7,9.2,3.6,11.2,8.8c2.6,6.5,1,12.2-3.7,17.1
		c-6.3,6.7-14.5,10-23.2,12.3C247.9,721.7,245.3,717.7,244,712.9z"/>
	<path class="st0" d="M673,289.3c0.1,0.3,0.3,0.6,0.4,0.8c12.2-3.7,24.5-7.5,37.3-11.4c-1.1,5.1-2.2,9.6-3.2,14.2
		c0.3,0.2,0.6,0.3,0.9,0.5c3.8-3,5.9-7.6,9.6-10.9c0.7,1.1,1.5,2,2,3c4.8,8.8,9.6,17.6,14.4,26.3c3.7,6.7,7.4,13.4,11.1,20.1
		c0.4,0.7,1.1,1.1,1.6,1.7c0.3-0.1,0.5-0.3,0.8-0.4c-1.2-6.4-4-12.4-5.9-18.6c-1.9-6.2-4.1-12.3-6.2-18.5
		c-2.1-6.2-4.2-12.4-6.4-19.2c6,0.5,11.5,0.9,16.9,1.3c0.1-0.3,0.2-0.7,0.3-1c-4.2-3.1-9.6-4.5-14.2-7.9c11.4-6.8,22.5-13.4,33.6-20
		c-0.1-0.3-0.3-0.6-0.4-1c-12,3.7-24.1,7.4-36.8,11.2c1-3.7,1.9-6.6,2.7-9.6c0.7-2.9,2.1-5.7,1.6-8.9c-4.4,5.2-7.8,11.1-12,16.7
		c-0.9-1.2-1.6-2.1-2.2-3c-2.5-4.1-4.9-8.2-7.4-12.4c-3.5-5.9-7-11.8-10.6-17.7c-0.6-1-1-2.3-3.2-2.7c3.5,13.9,8.2,26.9,11.7,40.8
		c-2.9-0.4-5.3-0.7-7.6-1c-2.3-0.3-4.6-0.8-6.9-0.9c-2.2-0.2-4.4-1.3-7.3,0c6.1,3.1,11.6,5.8,17.8,8.9c-6,3.5-11.5,6.7-16.9,9.9
		C683.6,282.9,678,285.6,673,289.3z"/>
	<path class="st0" d="M566.5,934.8c-12,3.7-24.1,7.4-36.8,11.2c1-3.7,1.9-6.6,2.7-9.6c0.7-2.9,2.1-5.7,1.6-8.9
		c-4.4,5.2-7.8,11.1-12,16.7c-0.9-1.2-1.6-2.1-2.2-3c-2.5-4.1-4.9-8.2-7.4-12.4c-3.5-5.9-7-11.8-10.6-17.7c-0.6-1-1-2.3-3.2-2.7
		c3.5,13.9,8.2,26.9,11.7,40.8c-2.9-0.4-5.3-0.7-7.6-1c-2.3-0.3-4.6-0.8-6.9-0.9c-2.2-0.2-4.4-1.3-7.3,0c6.1,3.1,11.6,5.8,17.8,8.9
		c-6,3.5-11.5,6.7-16.9,9.9c-5.3,3.2-10.9,5.9-15.8,9.6c0.1,0.3,0.3,0.6,0.4,0.8c12.2-3.7,24.5-7.5,37.3-11.4
		c-1.1,5.1-2.2,9.6-3.2,14.2c0.3,0.2,0.6,0.3,0.9,0.5c3.8-3,5.9-7.6,9.6-10.9c0.7,1.1,1.5,2,2,3c4.8,8.8,9.6,17.6,14.4,26.3
		c3.7,6.7,7.4,13.4,11.1,20.1c0.4,0.7,1.1,1.1,1.6,1.7c0.3-0.1,0.5-0.3,0.8-0.4c-1.2-6.4-4-12.4-5.9-18.6
		c-1.9-6.2-4.1-12.3-6.2-18.5c-2.1-6.2-4.2-12.4-6.4-19.2c6,0.5,11.5,0.9,16.9,1.3c0.1-0.3,0.2-0.7,0.3-1c-4.2-3.1-9.6-4.5-14.2-7.9
		c11.4-6.8,22.5-13.4,33.6-20C566.8,935.5,566.6,935.2,566.5,934.8z"/>
	<path class="st0" d="M311.9,314c0.1,0.3,0.2,0.7,0.3,1c5.5-0.4,10.9-0.8,16.9-1.3c-2.3,6.7-4.4,12.9-6.4,19.2
		c-2.1,6.2-4.3,12.3-6.2,18.5c-1.9,6.2-4.6,12.2-5.9,18.6c0.3,0.1,0.5,0.3,0.8,0.4c0.5-0.6,1.2-1,1.6-1.7
		c3.7-6.7,7.4-13.4,11.1-20.1c4.8-8.8,9.6-17.6,14.4-26.3c0.6-1,1.3-1.9,2-3c3.7,3.4,5.8,7.9,9.6,10.9c0.3-0.2,0.6-0.3,0.9-0.5
		c-1-4.6-2-9.1-3.2-14.2c12.8,3.9,25.1,7.7,37.3,11.4c0.1-0.3,0.3-0.6,0.4-0.8c-4.9-3.7-10.5-6.4-15.8-9.6
		c-5.4-3.3-10.8-6.4-16.9-9.9c6.2-3.1,11.7-5.9,17.8-8.9c-2.9-1.3-5.1-0.1-7.3,0c-2.3,0.2-4.6,0.6-6.9,0.9c-2.3,0.3-4.6,0.6-7.6,1
		c3.5-13.8,8.2-26.9,11.7-40.8c-2.1,0.3-2.6,1.7-3.2,2.7c-3.6,5.9-7.1,11.8-10.6,17.7c-2.5,4.1-4.9,8.3-7.4,12.4
		c-0.6,1-1.3,1.8-2.2,3c-4.2-5.7-7.6-11.5-12-16.7c-0.5,3.3,0.9,6,1.6,8.9c0.7,3,1.6,5.9,2.7,9.6c-12.7-3.9-24.7-7.6-36.8-11.2
		c-0.1,0.3-0.3,0.6-0.4,1c11.1,6.6,22.2,13.2,33.6,20C321.5,309.5,316.2,310.8,311.9,314z"/>
	<path class="st0" d="M206.7,401c11.8,0,11.8-18.4,0-18.4C194.9,382.6,194.9,401,206.7,401z"/>
	<path class="st0" d="M343,401.9c-11.8,0-11.8,18.4,0,18.4C354.8,420.2,354.9,401.9,343,401.9z"/>
	<path class="st0" d="M399,234.9c11.8,0,11.8-18.4,0-18.4C387.2,216.6,387.1,234.9,399,234.9z"/>
	<path class="st0" d="M743.3,413.2c11.8,0,11.8-18.4,0-18.4C731.5,394.9,731.5,413.2,743.3,413.2z"/>
	<path class="st0" d="M650.7,194.7c11.8,0,11.8-18.4,0-18.4C638.9,176.4,638.9,194.7,650.7,194.7z"/>
	<path class="st0" d="M850,394c11.8,0,11.8-18.4,0-18.4C838.1,375.7,838.1,394,850,394z"/>
	<path class="st0" d="M465.4,889.6c-11.8,0-11.8,18.4,0,18.4C477.2,907.9,477.2,889.6,465.4,889.6z"/>
	<path class="st0" d="M608.7,940.3c-11.8,0-11.8,18.4,0,18.4C620.5,958.6,620.6,940.3,608.7,940.3z"/>
	<path class="st0" d="M325.6,800.4c-11.8,0-11.8,18.4,0,18.4C337.4,818.8,337.4,800.4,325.6,800.4z"/>
	<path class="st0" d="M302.8,658c11.8,0,11.8-18.4,0-18.4C291,639.6,291,658,302.8,658z"/>
	<path class="st0" d="M227.7,663.2c11.8,0,11.8-18.4,0-18.4C215.9,644.8,215.8,663.2,227.7,663.2z"/>
	<path class="st0" d="M764.3,696.4c11.8,0,11.8-18.4,0-18.4C752.5,678.1,752.5,696.4,764.3,696.4z"/>
	<path class="st0" d="M773,793.4c-11.8,0-11.8,18.4,0,18.4C784.8,811.8,784.9,793.4,773,793.4z"/>
	<path class="st0" d="M946.1,632.6c-11.8,0-11.8,18.4,0,18.4C957.9,651,957.9,632.6,946.1,632.6z"/>
	<path class="st0" d="M135,622.1c-11.8,0-11.8,18.4,0,18.4C146.8,640.5,146.9,622.1,135,622.1z"/>
</g>
</svg>
