<?xml version="1.0" encoding="utf-8"?>
<!-- Generator: Adobe Illustrator 22.0.0, SVG Export Plug-In . SVG Version: 6.00 Build 0)  -->
<svg version="1.1" id="Layer_1" xmlns="http://www.w3.org/2000/svg" xmlns:xlink="http://www.w3.org/1999/xlink" x="0px" y="0px"
	 viewBox="0 0 500 500" style="enable-background:new 0 0 500 500;" xml:space="preserve">
<style type="text/css">
	.st0{fill:#0C0C0C;}
</style>
<g>
	<g>
		<path class="st0" d="M384.1,154.8c-8.4,0.6-16.8,1-25.1,1.9c-13.9,1.5-27.3-2.6-41-3.5c-7.5-0.5-13.1-3.8-18.4-8.5
			c-7.9-7-17.3-10.6-27.9-11.4c-4.5-0.3-9-1-13.5-1.9c-0.8-0.2-1.9-1.8-1.9-2.8c-0.2-3.9-2.4-6.3-5.7-7.3c-2.9-0.9-3.9-2.9-5.1-5.2
			c-2-3.7-4.3-7.2-6.5-10.8c2.6,1.2,5.5,2.6,8.4,3.8c7.1,3,14.1,6.5,21.5,8.9c7.1,2.3,14.6,2.9,21.7,5.1c5.7,1.8,11,4.7,16.5,7.2
			c2.8,1.3,5.6,2.6,8.4,4c0.2-0.2,0.3-0.5,0.5-0.7c-4.6-3.6-9.1-7.1-13.7-10.6c-5.6-4.3-11.4-8.4-16.7-13c-2.7-2.4-4.8-5.6-6.9-8.7
			c-13.6-19.9-27.1-39.8-40.7-59.7c-0.6-0.9-1.3-1.6-2.2-2.8c-6.7,9.2-14.5,17.3-18.2,28.3c-3.7,11.1-9.9,20.9-15.8,30.9
			c-1.9,3.3-0.3,7.1,3.5,6.9c4.3-0.2,7.2,1,9.6,4.7c1,1.5,3.1,2.3,4.9,3c8.9,3.6,16.9,8.1,23.7,15.1c8,8.2,18.6,12.7,29.3,16.5
			c3.9,1.3,7.7,2.9,11.5,4.3c-0.1,0.3-0.2,0.6-0.2,0.9c-2.6-0.4-5.2-0.7-7.8-1.3c-17.3-4-33.7-10.2-49.8-17.8
			c-4.9-2.3-10.8-2.7-16.2-3.9c-3.9-0.9-7.7-1.7-11.6-2.3c-2.7-0.4-4.1-1.8-4.6-4.4c-0.7-4.3-2.5-7.9-6.5-10.2
			c-3.4-1.9-5.1-5.2-6.4-8.7c-0.5-1.4-1.4-2.7-2.3-4.5c-3,3.8-5.9,7.2-8.5,10.9c-5.5,8.1-13.1,14-20.6,19.9c-4,3.1-7.3,7-11.2,10.2
			c-1.6,1.4-3.8,2.1-5.8,3c-3.3,1.4-6.6,2.6-9.9,3.9c-0.2-0.2-0.3-0.5-0.5-0.7c3.5-2.9,7.2-5.5,10.3-8.8c6.5-6.8,12.4-14.1,19-20.7
			c3.9-3.9,8.4-7.1,12.9-10.4c5.8-4.3,11.7-8.3,17.7-12.2c1.2-0.8,3.3-0.8,4.7-0.3c4.4,1.6,6,1.5,9.1-2.1c4.1-4.8,8.5-9.3,12-14.4
			c3-4.5,5.3-9.5,7.2-14.6c3.5-8.8,9.5-15.8,15.2-23c1.4-1.8,2.9-3.6,4.7-5.8c4.5,4.4,8.7,8.8,13.2,12.7c10.6,9.1,17,21.5,25.3,32.4
			c5.1,6.5,10.9,12.6,17.3,18c10.8,9.1,21.9,17.9,33.6,25.9c6.4,4.4,14.4,6.3,21.3,10.1c9.7,5.4,19,11.5,28.5,17.3
			c3.3,2.1,6.5,4.3,9.7,6.5C384.2,154.2,384.2,154.5,384.1,154.8z"/>
	</g>
	<g>
		<path class="st0" d="M167.9,368.7c2.3,0,2.5,2.1,2.5,2.1c-3.6,16.1-10.6,31.9-19.4,31.9c-5.2,0-14.6-7.3-16.9-19.2
			c-4.2,10.6-9.6,19.2-14,19.2c-2.9,0-14.8-4.2-17.7-23.2c-2.9-18.8,10.2-45.7,20.2-45.7c3.3,0,11.3,3.1,15.6,10.8
			c1.3-5.4,2.5-9.6,3.1-10.2c1.9-2.3,12.5,3.6,13.4,9.8c1,6.1-10.6,51.6-2.9,51.6c4.4,0,9.4-12.3,13.2-25.1
			C165,370.6,165.8,368.7,167.9,368.7z M130.3,343.1c-5.6,0-19.2,48-10.9,48C130.8,391.1,142.9,343.1,130.3,343.1z"/>
		<path class="st0" d="M214,344.1c1,6.5-11.7,48-1.3,48c10.6,0,15.2-34.9,12.5-52.2c-1.5-10.4-9.6-18.8-9.6-18.8s20.9-7.5,23.6,20.2
			c1.3,14.4-10.8,61.4-25.9,61.4c-4.4,0-14.4-10.9-16.9-20.5c-3.8,10.8-9.2,20.9-14,20.9c-10.4,0-20-11.9-21.3-20.9
			c-1.5-10,4.6-48.6,9.2-48.6c2.1,0,10.6,5,11.1,8.8c0.8,4.2-9,52-4.8,52c8.8,0,15.7-17.3,18.8-28.2c0.4-14.6,3.1-32.4,6.5-32.4
			C203.4,333.7,212.8,337.4,214,344.1z"/>
		<path class="st0" d="M309.8,368.7c2.3,0,2.5,2.1,2.5,2.1c-3.6,16.1-10.6,31.9-19.4,31.9c-5.2,0-14.6-7.3-16.9-19.2
			c-4.2,10.6-9.6,19.2-14,19.2c-2.9,0-14.8-4.2-17.7-23.2c-2.9-18.8,10.2-45.7,20.2-45.7c3.3,0,11.3,3.1,15.6,10.8
			c1.3-5.4,2.5-9.6,3.1-10.2c1.9-2.3,12.5,3.6,13.4,9.8c1,6.1-10.6,51.6-2.9,51.6c4.4,0,9.4-12.3,13.2-25.1
			C306.9,370.6,307.7,368.7,309.8,368.7z M272.2,343.1c-5.6,0-19.2,48-10.9,48C272.7,391.1,284.8,343.1,272.2,343.1z"/>
		<path class="st0" d="M333,372.5c2,0,2.2,1.9,2.2,1.9c-3.2,14.3-9.6,28.3-17.4,28.3c-4.8,0-13.3-7-15-18.1
			c-1.7-10.9,4.9-40.9,6.5-42.7c1.7-2,11.1,3.2,11.9,8.7s-9.4,45.9-2.6,45.9c3.9,0,8.4-10.9,11.6-22.4
			C330.3,374.2,331,372.5,333,372.5z M327.1,324.3c0.5,3.8-2.4,15.5-4.1,15.5c-4.6,0-10.6-5.3-10.7-6.3c-0.9-5.1,1.4-16.4,2.9-17.9
			C316.8,313.6,326.2,318.9,327.1,324.3z"/>
		<path class="st0" d="M326.4,386.1c-0.8-5.1,4.1-33,7.9-52.8h-16.4c-1.9,0-10.7-7-2.8-7h20.5c3.5-17.1,5.5-24.5,6-25.1
			c1.6-1.9,10.4,3,11.1,8.1c0.3,1.6-0.2,4.4-2.5,17.1h20.7c1.7,0,7,7,3.5,7h-25.6c-4.7,25.3-11.5,63.7-7.3,63.7
			c3.6,0,7.9-10.1,10.7-20.7c0,0,0.8-1.6,2.7-1.6s1.9,1.7,1.9,1.7c-3,13.3-8.8,26.2-16.1,26.2C335.4,402.7,328,396.2,326.4,386.1z"
			/>
		<path class="st0" d="M355,373.1c-2.3,0-2.1-2.5-2.1-2.5c3.5-11.1,5.4-22.3,7.1-26.1c1.3-6.3,6.7-13.4,9.4-13.4
			c3.1,0,9.4,6.9,10,10.8c0.4,3.1-8.6,8.1-7.7,14.8c1.2,7.1,10.8,17.9,12.9,31.1v0.2c2.1-4.6,4.2-10.8,6.1-17.3c0,0,0.8-1.9,3.1-1.9
			s2.3,2.1,2.3,2.1c-3.3,15.2-9.8,30.1-17.9,31.9c-2.5,1.7-5.8,2.9-10.2,2.9c-10.9,0-18.8-10-19.4-12.9c0-0.4,0.6-1.2,1.7,0
			c1.7,1.3,6.3,5,11.3,5c6.1,0,9.6-8.6,8.1-18.8c-1-5.6-5.4-15-7.9-23l-3.5,15C358.4,370.8,358,373.1,355,373.1z"/>
	</g>
	<g>
		<path class="st0" d="M29.9,292.5c0.4-2.7,0.8-5.5,1.2-8.2c0.4-2.8,0.8-5.5,1.4-8.2c0.8-4.3,1.6-8.5,2.5-12.7
			c0.9-4.2,1.7-8.4,2.5-12.5c1.2-6.9,2.4-13.7,3.6-20.4c1.2-6.7,2.4-13.5,3.4-20.4c0.8-5.3,1.4-10.6,1.9-15.8
			c0.5-5.2,1.1-10.5,1.7-15.8c0.3-2.2,0.6-4.1,1.2-5.8c0.6-2.1,1.5-3.7,2.5-4.9c1.8-1.9,3.8-2.7,5.8-2.4c2.1,0.3,3.6,1.7,4.7,4.2
			c1.4,3.5,2.7,7.3,3.7,11.5c1.9,8.3,3.7,17,5.2,26c0.6,3,1.1,6,1.4,8.9c0.3,3,0.6,6,1.2,8.9c0.6,4.5,1.4,9,2.2,13.5
			c0.8,4.5,1.5,9,2,13.5c0.8,6.6,1.8,13,3,19.2c1.2,6.2,2.4,12.6,3.6,19c0.1,0.3,0.2,0.6,0.2,0.9c0,0.3,0.1,0.6,0.2,0.9
			c0.1,1.8-0.3,3.4-1.4,4.7c-1,1.3-2.4,2.1-4.1,2.3c-1.6,0.1-3-0.3-4.4-1.3c-1.4-1-2.2-2.3-2.4-4c-1-6.7-2.2-13.4-3.6-20
			c-1.4-6.6-2.4-13.3-3-20.2c-0.3-2.8-0.7-4.4-1.3-4.6c-0.6-0.2-2,0.6-4.2,2.4c-1.9,1.4-3.9,2.9-5.8,4.5c-1.9,1.6-3.8,3.2-5.6,4.9
			c-1.2,1-1.9,2.1-2.1,3.3c-0.9,4.9-1.7,9.8-2.5,14.6c-0.8,4.8-1.6,9.6-2.3,14.4c-0.6,3.8-2.4,5.8-5.2,6.2c-2.1,0.3-3.8-0.2-5.1-1.5
			C30.5,296.2,29.9,294.5,29.9,292.5z M51.4,240.6c0,0.1,0,0.3,0.1,0.5c0.1,0.2,0.1,0.4,0.1,0.7c0.8,0,1.3-0.1,1.6-0.4
			c1.4-1,2.8-2,4.3-3c1.4-1,2.8-2,4.3-3c0.9-0.6,1.2-1.6,1-2.9c-0.3-1-0.4-2.1-0.5-3.2c-0.1-1.1-0.2-2.2-0.5-3.4
			c-0.6-3.6-1.2-7.2-1.7-10.9c-0.5-3.6-1.1-7.2-1.7-10.9c0-0.3-0.1-0.5-0.3-0.8c-0.2-0.3-0.4-0.5-0.5-0.8c-0.1,0.3-0.3,0.8-0.6,1.6
			c0,0.6-0.1,1.2-0.2,1.6c-0.4,3.6-0.8,7.2-1.3,10.8c-0.5,3.6-0.9,7.1-1.5,10.6c-0.4,2.2-0.8,4.4-1.3,6.7
			C52.2,236,51.8,238.3,51.4,240.6z"/>
		<path class="st0" d="M91.6,247c0-5.8,0.1-11.5,0.2-17.2c0.1-5.6,0-11.4-0.4-17.2c-0.4-6.2-0.4-12.3,0.1-18.3
			c0.5-6,0.7-12.1,0.7-18.3c-0.1-2.6,0.6-4.5,2-5.8c1.5-1.3,3.5-2,6.1-2.1c3.8-0.3,7.3,0.2,10.6,1.3c3.3,1.1,6.4,2.6,9.4,4.6
			c1,0.6,2,1.5,2.9,2.6c0.9,1.1,1.7,2.2,2.5,3.4c1.9,3.1,3.4,6.4,4.4,9.8c1,3.4,1.7,7,2.2,10.6c0.9,6.7,1.3,13.4,1.3,20
			c-0.1,6.6-0.2,13.3-0.5,20c-0.3,4-0.6,8-1,11.9c-0.4,3.9-1,7.9-1.7,11.7c-1.4,6.2-3.7,11.8-6.9,16.9c-3.2,5-6.9,9.8-11.2,14.2
			c-3.2,3.2-7.1,4.5-11.6,3.9c-1.9-0.3-3.6-1-5-2.1c-1.4-1.2-2.3-2.7-2.5-4.7c-0.3-1.9-0.5-3.9-0.7-5.8c-0.2-1.9-0.3-3.9-0.3-5.8
			c-0.1-5.6-0.2-11.1-0.1-16.6c0.1-5.5,0.1-11.1,0.1-16.8H91.6z M103.8,247.4h0.2v25.4c0,1.7,0,3.4,0.1,5c0.1,1.7,0.2,3.4,0.3,5
			c0,0.3,0.1,0.5,0.2,0.8c0.1,0.3,0.3,0.5,0.4,0.8c0.3-0.3,0.5-0.4,0.8-0.4c0.3,0,0.5-0.1,0.6-0.4c2.3-2.7,4.5-5.6,6.5-8.5
			c2-3,3.5-6.2,4.6-9.7c1.3-4.1,2.2-8.3,2.6-12.4c0.5-4.1,0.8-8.3,1.1-12.4c0.3-5.4,0.5-10.8,0.7-16.2c0.2-5.4,0-10.8-0.7-16.2
			c-0.3-3.1-0.6-6.2-1.2-9.2c-0.5-3-1.4-6-2.5-9c-1-2.6-2.4-4.6-4.2-6c-1.7-1.4-3.9-2.5-6.5-3.1c-1-0.3-1.7-0.3-2.1,0
			c-0.4,0.3-0.6,1-0.6,2.1c-0.4,8.4-0.6,16.9-0.6,25.4c0,3.6,0.1,7.2,0.2,10.7c0.1,3.5,0.2,7.1,0.2,10.7c0.1,3,0.2,5.9,0.1,8.8
			C103.8,241.5,103.8,244.4,103.8,247.4z"/>
		<path class="st0" d="M139.5,174.8v-3.3c0.3-3.2,1.9-5,4.9-5.4c1.2-0.3,2.4-0.1,3.6,0.5c1.2,0.6,2.1,1.5,2.6,2.8
			c0.6,1.3,1,2.6,1,3.9c0.6,5.8,1.2,11.5,1.6,17.2c0.5,5.6,1,11.4,1.7,17.2c0.5,4.9,1.1,9.7,1.6,14.5c0.6,4.7,1.2,9.5,1.8,14.5
			c0.1,1.6,0.3,3.1,0.5,4.8c0.2,1.6,0.2,3.2,0.1,4.8c-0.1,4,0.3,7.9,1.2,11.6c0.9,3.8,1.5,7.6,1.7,11.5c0.1,0.3,0.3,0.5,0.4,0.7
			c0.1,0.2,0.3,0.4,0.4,0.7c0.5-0.5,0.8-1,0.8-1.4c0.4-1.8,0.7-3.7,1-5.7c0.3-2,0.6-4,1-5.9c0.9-5.7,1.8-11.3,2.7-16.9
			c0.9-5.6,1.7-11.2,2.5-16.9c0.8-5.8,1.4-11.6,1.9-17.3c0.5-5.7,1.1-11.5,1.7-17.3l1.7-18.6c0.3-1.9,0.9-3.5,1.9-4.6
			c1-1.1,2.5-1.6,4.3-1.5c1.7,0,3.1,0.6,4.3,1.7c1.2,1.2,1.7,2.7,1.7,4.7c-0.1,2.3-0.3,4.7-0.5,7.1c-0.2,2.4-0.4,4.8-0.7,7.1
			c-0.5,5-1,10.1-1.6,15c-0.5,5-1.1,10-1.7,15c-0.4,3.2-0.8,6.5-1.2,9.7c-0.4,3.2-0.8,6.5-1.4,9.7c-0.9,6-1.8,11.9-2.7,17.8
			c-0.9,5.9-1.9,11.7-2.9,17.6c-0.8,4.4-1.8,8.7-3.1,12.9c-1.3,4.2-2.9,8.3-4.9,12.3c-0.8,1.6-1.7,2.8-2.9,3.9
			c-1.2,1-2.7,1.4-4.5,1.2c-2.1-0.3-3.5-1-4.4-2.2c-0.8-1.2-1.5-2.7-1.8-4.6c-1.2-4.8-2.1-9.6-2.9-14.5c-0.8-4.9-1.5-9.7-2.1-14.7
			c-0.1-0.9-0.3-1.7-0.4-2.5c-0.1-0.8-0.3-1.6-0.4-2.3c-0.3-2.2-0.5-4.3-0.7-6.3c-0.2-2-0.4-4.1-0.7-6.3c-0.4-3.4-0.8-6.7-1.2-10.1
			c-0.4-3.4-0.7-6.7-1-10.1c-0.5-4.5-1-9.1-1.5-13.6c-0.5-4.5-0.9-9.1-1.3-13.6c-0.5-4.1-1-8.2-1.4-12.3
			C140.3,183.1,139.9,179,139.5,174.8z"/>
		<path class="st0" d="M194.5,250.7c0-3.6,0.1-7.2,0.3-10.9c0.2-3.6,0.2-7.3-0.1-11.1c0-1.6-0.1-3.1-0.2-4.8c-0.1-1.6-0.1-3.3,0-4.9
			c0.1-0.9,0.2-1.7,0.2-2.5c0-0.8,0-1.7,0-2.7c0-6.2,0.1-12.4,0.2-18.6c0.1-6.2,0.2-12.5,0.2-18.8c0-4.5,2.1-7,6.2-7.4
			c2.6-0.3,5.2-0.4,7.9-0.3c2.7,0.1,5.3,0.1,7.9,0.1c1.2,0,2.3,0.1,3.4,0.3c1.1,0.2,2.2,0.4,3.2,0.5c2.1,0.3,3.7,1,4.8,2.3
			c1.1,1.3,1.5,2.8,1.3,4.7c-0.1,1.8-0.8,3.2-2.1,4.1c-1.3,0.9-3,1.2-5,1c-1.8-0.1-3.7-0.3-5.5-0.5c-1.9-0.2-3.7-0.3-5.5-0.3
			c-2.1-0.1-3.3,0-3.6,0.4c-0.3,0.4-0.6,1.6-0.7,3.7c0,9.1-0.2,18.2-0.6,27.6c0,1.3,0,2.6-0.1,3.8c-0.1,1.2-0.1,2.5-0.1,3.8
			c0,1.8,0.2,2.9,0.6,3.3c0.4,0.4,1.4,0.6,3.1,0.6c1.3,0,2.5,0,3.7-0.1c1.2-0.1,2.4-0.2,3.7-0.3c3.5-0.3,5.7,1.2,6.6,4.5
			c0.4,1.7,0.3,3.2-0.4,4.6c-0.6,1.4-1.7,2.3-3.3,2.8c-0.6,0.3-1.4,0.4-2.2,0.5c-0.8,0.1-1.7,0.1-2.4,0.1c-1.2,0.1-2.3,0.2-3.5,0.1
			c-1.2-0.1-2.3-0.1-3.5-0.1c-1.7,0-2.5,0.9-2.5,2.7v8.7c0.1,5.8,0.2,11.7,0.3,17.6c0.1,5.9,0.2,11.7,0.5,17.6
			c0,2.3,0.3,3.7,0.8,4.2c0.5,0.5,2,0.5,4.5,0.1c1-0.3,2.1-0.5,3.2-0.7c1.1-0.2,2.2-0.3,3.2-0.3c1.8,0,3.3,0.5,4.4,1.5
			c1.1,1,1.7,2.2,1.8,3.8c0.3,1.8-0.1,3.3-1.1,4.4c-1,1.1-2.4,1.8-4.2,2.2c-5.3,1.2-10.7,1.6-16.1,1.2c-2.2-0.3-4-1-5.4-2.1
			c-1.4-1.2-2.3-2.8-2.7-5c-0.6-3.8-1-7.6-1-11.5c0-3.9,0-7.7,0-11.5c0-3,0-6,0.1-9C194.4,256.7,194.5,253.7,194.5,250.7z"/>
		<path class="st0" d="M280.4,294c-0.3,0.8-0.5,1.4-0.8,1.7c-1.3,2.5-3.2,3.6-5.6,3.5c-2.7,0-4.5-1.4-5.2-4.1
			c-0.3-1-0.5-2.5-0.8-4.3c-0.3-8.2-0.5-16.3-0.8-24.5c-0.3-8.2-0.6-16.4-1-24.7c-0.1-3.4-0.3-6.7-0.4-10.1
			c-0.1-3.4-0.3-6.7-0.6-10.1c0-0.8-0.1-1.6-0.4-2.3c-1.8-3.2-3.6-6.4-5.2-9.5c-1.7-3.1-3.4-6.2-5.2-9.3c-0.5-0.8-1.1-1.6-1.6-2.3
			c-0.6-0.8-1.2-1.6-1.8-2.3c-0.1-0.1-0.5-0.4-1.2-0.8c-0.3,0.3-0.4,0.5-0.5,0.7c-0.1,0.2-0.2,0.4-0.3,0.7v4.1
			c-0.1,10.2-0.2,20.4-0.2,30.7c0,10.2-0.1,20.4-0.4,30.7c0,3.8-0.1,7.5-0.2,11.3c-0.1,3.8-0.3,7.5-0.6,11.3c0,1.8,0,3.6,0,5.4
			c0,1.8-0.1,3.6-0.2,5.4c-0.1,1.9-0.8,3.5-2.1,4.6c-1.3,1.1-2.8,1.5-4.7,1.3c-3.1-0.4-4.8-2.3-5-5.8c0-2.6,0-5.1,0-7.5
			c0-2.4,0.1-4.9,0.2-7.5c0.1-4.7,0.3-9.3,0.5-14c0.2-4.7,0.3-9.3,0.3-14c0.1-9.7,0.2-19.4,0.3-29.1c0.1-9.7,0.1-19.5,0.1-29.3
			c0-3.4-0.1-6.8-0.2-10.2c-0.1-3.4-0.3-6.9-0.4-10.4c-0.3-2.5,0.5-4.4,2.2-5.7c1.7-1.4,3.8-1.5,6.1-0.5c1.4,0.6,2.7,1.6,3.7,2.7
			c0.6,0.8,1.2,1.6,1.7,2.4c0.5,0.8,1,1.7,1.6,2.6c1.9,3,3.9,5.9,5.8,8.7c1.9,2.8,3.9,5.8,6,8.7c0.1,0.3,0.3,0.5,0.6,0.6
			c0.3,0.1,0.5,0.3,0.8,0.4c0.1-0.3,0.3-0.5,0.4-0.9c0.1-0.3,0.2-0.6,0.2-0.9c0.1-3,0.2-5.9,0.3-8.8c0.1-2.9,0.1-5.9,0.1-8.8v-2.3
			c0.3-1.4,0.8-2.6,1.6-3.5c0.8-0.9,1.9-1.5,3.3-1.7c1.4-0.3,2.7-0.1,4,0.5c1.2,0.6,2.1,1.6,2.6,3c0.5,1.4,0.8,3.1,0.8,5
			c-0.3,4.9-0.5,9.9-0.7,14.9s-0.3,10-0.3,14.9c0,6.1,0.1,12.1,0.4,18.1c0.3,6,0.5,11.9,0.8,17.9c0.3,7.8,0.5,15.5,0.8,23.3
			c0.3,7.8,0.5,15.5,0.8,23.3c0,0.8,0.1,1.6,0.2,2.3c0.1,0.8,0.3,1.6,0.4,2.3V294z"/>
		<path class="st0" d="M303.1,236.8v-47.3c0-1.2,0-2.3,0.1-3.4c0.1-1.1,0.1-2.2,0.1-3.2c0.1-1.7-0.6-2.5-2.3-2.5c-1.4,0-2.8,0-4,0.1
			c-1.2,0.1-2.6,0-4-0.3c-1.7-0.1-3.3-0.8-4.9-2c-1-0.8-1.7-1.8-1.8-3.1c-0.2-1.2,0-2.5,0.5-3.6c0.9-2.4,2.8-3.6,5.6-3.6
			c4.9,0,9.8,0,14.8,0.1c4.9,0.1,9.8,0.2,14.8,0.3h6.4c2.1-0.1,3.8,0.4,5,1.6c1.3,1.2,2,2.7,2.1,4.5c0.1,1.8-0.5,3.4-1.7,4.5
			c-1.3,1.2-3,1.8-5,1.8c-1.4,0-2.9-0.1-4.4-0.2c-1.5-0.1-2.9-0.2-4.4-0.2c-2.1-0.1-3.4,0-3.9,0.5c-0.5,0.5-0.8,1.7-0.8,3.8
			c0,5.2,0,10.3,0,15.5c0,5.2,0.1,10.4,0.2,15.7c0,9.3,0.1,18.6,0.2,28c0.1,9.4,0.3,18.8,0.4,28.2c0.1,3,0.2,5.9,0.2,8.9
			c0,3,0,5.9,0,8.9c0,0.6,0,1.3,0,1.8c0,0.6-0.1,1.2-0.4,1.8c-0.9,3-2.8,4.5-5.6,4.5c-2.7,0-4.6-1.4-5.6-4.3
			c-0.3-1.3-0.4-2.3-0.4-3.1c-0.1-9-0.2-18-0.3-26.9c-0.1-8.9-0.2-17.9-0.3-26.9H303.1z"/>
		<path class="st0" d="M386,208.2c-0.1,4.3-0.3,9.4-0.4,15.4c-0.1,6-0.5,12.1-1,18.3c-0.6,5.8-1.2,11.6-1.5,17.5
			c-0.4,5.8-1.3,11.6-2.7,17.5c-0.8,3-1.8,5.8-3.1,8.4c-1.3,2.7-3,5.1-5.2,7.3c-2.4,2.6-5.1,4.3-7.9,5.1c-2.8,0.8-5.9,0.7-9.3-0.5
			c-3.2-1.2-5.7-2.9-7.4-5.3c-1.7-2.4-2.8-5.2-3.3-8.4c-0.4-2.7-0.7-5.4-1.1-8.2c-0.3-2.7-0.6-5.5-0.7-8.3c-0.3-8.5-0.5-17-0.8-25.3
			c-0.3-8.3-0.3-16.8,0-25.3c0.3-7,0.5-13.8,0.6-20.6c0.1-6.7,0.2-13.6,0.2-20.6v-4.9c0-3.4,1.6-5.4,4.7-6c1.4-0.3,2.7,0,3.9,0.7
			c1.2,0.7,2.1,1.8,2.7,3.2c0.5,1.2,0.8,2.7,0.8,4.5c0.1,5.2,0.3,10.3,0.4,15.4c0.1,5.1,0,10.2-0.4,15.2c-0.6,8.2-0.9,16.2-0.9,24.1
			c0.1,7.9,0.2,15.9,0.3,24.1c0,4.8,0.2,9.6,0.7,14.4c0.5,4.8,0.9,9.6,1.3,14.6c0.1,1.2,0.4,2.3,0.8,3.3c0.4,1,1.3,1.7,2.7,1.9
			c1.4,0.3,2.6,0,3.4-0.7c0.8-0.7,1.6-1.6,2.2-2.6c1.8-2.6,3.1-5.4,3.8-8.3c0.7-3,1.3-6,1.7-8.9c0.5-4.3,1-8.5,1.4-12.7
			c0.4-4.2,0.7-8.4,1-12.5c0.5-10.7,0.9-21.7,1.2-32.8c0.1-5.8,0.2-11.5,0.2-17.2c0-5.6,0.1-11.4,0.2-17.2c0-0.8,0.2-1.7,0.6-2.7
			c0.9-2.8,2.8-4.1,5.7-3.9c2.9,0.4,4.6,1.9,5.1,4.7c0.1,0.6,0.2,1.4,0.2,2.1c0,0.8,0,1.5,0,2.1c0.1,4.9,0.2,9.9,0.1,15
			C386.1,195.2,386,201.2,386,208.2z"/>
		<path class="st0" d="M392.2,269.7c0.3-5.6,0.5-11.1,0.8-16.5c0.3-5.4,0.5-10.9,0.8-16.5c0.3-3.8,0.4-7.5,0.3-11.2
			c-0.1-3.7-0.1-7.4-0.1-11.2v-10.5c0-3.4,0-6.7,0-10.1c0-3.4,0.3-6.7,1-10.1c0.3-1.6,0.4-3.1,0.4-4.8c0-1.6,0.1-3.2,0.2-4.8
			c0.4-4.7,2.8-7.1,7.4-7.2c0.6,0,1.3,0,1.9,0.1c0.6,0.1,1.3,0.1,1.9,0.1c3.5-0.3,6.5,0.4,8.9,2c2.5,1.6,4.7,3.8,6.6,6.5
			c1.8,2.6,3,5.3,3.6,8.2c0.6,2.8,0.9,5.8,1.1,8.7c0.1,4,0.2,8,0.3,11.9c0.1,3.9,0.1,7.9,0.1,11.9c0,8.5-3.4,15.1-10.3,19.6
			c-1.4,1-2.2,1.7-2.3,2.1c-0.1,0.4,0.1,1.4,0.8,3.1c1.8,4.9,3.4,9.9,4.8,14.8c1.4,5,2.6,10.1,3.8,15.2c0.6,3,1.4,6,2.1,9
			c0.8,3,1.5,6.1,2.1,9c0.3,0.6,0.4,1.3,0.4,1.9c0,0.6,0,1.3,0,1.9c-0.4,2.8-1.9,4.6-4.7,5.2c-2.8,0.4-5-0.6-6.4-2.9
			c-0.4-0.8-0.7-1.6-0.9-2.4c-0.2-0.8-0.4-1.6-0.7-2.4c-1.6-6.3-3.1-12.6-4.7-18.9c-1.6-6.3-3.2-12.6-4.9-18.9
			c-0.1-0.4-0.3-0.7-0.4-1.1c-0.1-0.3-0.3-0.7-0.6-1.1c-0.3,0.4-0.5,0.8-0.7,1.2c-0.2,0.4-0.3,0.8-0.3,1.2v30.9c0,1.4,0,2.9,0.1,4.4
			c0.1,1.5,0,2.9-0.1,4.4c-0.3,3.4-2,5.2-5.2,5.4c-3.6,0.4-5.8-1.2-6.4-4.9c-0.3-1.3-0.4-2.3-0.4-2.9v-20.6
			C392.6,269.8,392.5,269.7,392.2,269.7z M406.2,208.8v16.1c0,1.4,0.2,2.2,0.6,2.4c0.4,0.2,1.2,0,2.5-0.7c4-2.2,6-5.5,6-9.9
			c0-2.2,0-4.3,0.1-6.3c0.1-2,0-4-0.1-6.1c-0.1-2.7-0.3-5.5-0.4-8.2c-0.1-2.8-0.3-5.6-0.6-8.4c-0.4-2.6-1.7-4.9-3.9-7
			c-0.8-0.8-1.5-1-2.1-0.8c-0.3,0-0.5,0.2-0.6,0.7c-0.1,0.5-0.3,0.9-0.4,1.3C406.1,190.7,405.7,199.7,406.2,208.8z"/>
		<path class="st0" d="M434.9,250.7c0-3.6,0.1-7.2,0.3-10.9c0.2-3.6,0.2-7.3-0.1-11.1c0-1.6-0.1-3.1-0.2-4.8c-0.1-1.6-0.1-3.3,0-4.9
			c0.1-0.9,0.2-1.7,0.2-2.5c0-0.8,0-1.7,0-2.7c0-6.2,0.1-12.4,0.2-18.6c0.1-6.2,0.2-12.5,0.2-18.8c0-4.5,2.1-7,6.2-7.4
			c2.6-0.3,5.2-0.4,7.9-0.3c2.7,0.1,5.3,0.1,7.9,0.1c1.2,0,2.3,0.1,3.4,0.3c1.1,0.2,2.2,0.4,3.2,0.5c2.1,0.3,3.7,1,4.8,2.3
			c1.1,1.3,1.5,2.8,1.3,4.7c-0.1,1.8-0.8,3.2-2.1,4.1c-1.3,0.9-3,1.2-5,1c-1.8-0.1-3.7-0.3-5.5-0.5c-1.9-0.2-3.7-0.3-5.5-0.3
			c-2.1-0.1-3.3,0-3.6,0.4c-0.3,0.4-0.6,1.6-0.7,3.7c0,9.1-0.2,18.2-0.6,27.6c0,1.3,0,2.6-0.1,3.8c-0.1,1.2-0.1,2.5-0.1,3.8
			c0,1.8,0.2,2.9,0.6,3.3c0.4,0.4,1.4,0.6,3.1,0.6c1.3,0,2.5,0,3.7-0.1c1.2-0.1,2.4-0.2,3.7-0.3c3.5-0.3,5.7,1.2,6.6,4.5
			c0.4,1.7,0.3,3.2-0.4,4.6c-0.6,1.4-1.7,2.3-3.3,2.8c-0.6,0.3-1.4,0.4-2.2,0.5c-0.8,0.1-1.7,0.1-2.4,0.1c-1.2,0.1-2.3,0.2-3.5,0.1
			c-1.2-0.1-2.3-0.1-3.5-0.1c-1.7,0-2.5,0.9-2.5,2.7v8.7c0.1,5.8,0.2,11.7,0.3,17.6c0.1,5.9,0.2,11.7,0.5,17.6
			c0,2.3,0.3,3.7,0.8,4.2c0.5,0.5,2,0.5,4.5,0.1c1-0.3,2.1-0.5,3.2-0.7c1.1-0.2,2.2-0.3,3.2-0.3c1.8,0,3.3,0.5,4.4,1.5
			c1.1,1,1.7,2.2,1.8,3.8c0.3,1.8-0.1,3.3-1.1,4.4c-1,1.1-2.4,1.8-4.2,2.2c-5.3,1.2-10.7,1.6-16.1,1.2c-2.2-0.3-4-1-5.4-2.1
			c-1.4-1.2-2.3-2.8-2.7-5c-0.6-3.8-1-7.6-1-11.5c0-3.9,0-7.7,0-11.5c0-3,0-6,0.1-9C434.9,256.7,434.9,253.7,434.9,250.7z"/>
	</g>
	<g>
		<path class="st0" d="M395.7,327.8c-0.8,0.5-1.4,0.7-2,0.5c-0.6-0.2-1.1-0.6-1.4-1.1c-0.4-0.5-0.6-1.1-0.6-1.8c0-0.7,0.3-1.3,1-1.8
			c1.7-1.4,3.3-2.9,4.9-4.6c1.5-1.6,3.4-2.9,5.4-4c0.8-0.4,1.5-0.4,2.1-0.1c0.7,0.3,1.1,0.8,1.5,1.4c0.3,0.6,0.4,1.3,0.4,2
			c-0.1,0.8-0.4,1.4-1.1,1.9c-1.7,1.4-3.4,2.7-5,3.9C399.1,325.3,397.4,326.5,395.7,327.8z M405.8,413.8c1,0.4,2.2,0.6,3.4,0.5
			c1.2-0.1,2.5-0.1,3.7-0.1c1.2,0,2.4,0.2,3.5,0.5c1.1,0.3,2,1,2.8,2c0.4,0.5,0.6,1.1,0.6,1.8c0,0.7-0.3,1.4-0.8,2
			c-0.9,1-2,1.7-3.4,1.9c-1.4,0.3-2.8,0.3-4.3,0c-1.5-0.3-2.9-0.7-4.4-1.2c-1.4-0.5-2.7-1.1-3.7-1.7c-0.9-0.5-1.5-1.2-1.7-1.9
			c-0.2-0.8-0.2-1.5,0.1-2.1c0.3-0.6,0.7-1.2,1.4-1.5C403.9,413.6,404.8,413.5,405.8,413.8z M406.4,392c-1-0.4-1.4-1.1-1.2-2.2
			c0.3-1.1,0.9-1.7,1.9-1.8c3.2-0.3,6.4-0.7,9.5-1.2c3.1-0.5,6.2-1,9.3-1.4c2.5-0.4,4.9-0.6,7.4-0.6s4.7,0.8,6.6,2.5
			c0.7,0.7,0.9,1.3,0.7,2c-0.2,0.7-0.6,1.3-1.3,1.7c-2.6,1.3-5.5,2-8.7,2c-3.2,0.1-6.2,0.2-8.9,0.3c-2.6,0.1-5.1,0.2-7.7,0.1
			C411.6,393.4,409,393,406.4,392z M411.1,368c-0.5,0.3-1,0.3-1.5,0.2c-0.5-0.1-0.9-0.4-1.2-0.8c-0.3-0.4-0.4-0.8-0.4-1.3
			c0-0.5,0.3-0.9,0.8-1.3c3.5-2.5,7-5.1,10.6-8.1c3.6-2.9,7.2-5.7,10.9-8.2c3.7-2.6,7.5-4.9,11.4-7c3.9-2.1,8.1-3.6,12.5-4.5
			c1.7-0.4,3-0.1,4,0.9c1,1,1.5,2.1,1.6,3.5c0.1,1.4-0.2,2.7-0.9,4c-0.7,1.3-1.9,2.1-3.6,2.3c-3.9,0.7-7.8,1.7-11.6,3.1
			s-7.7,3-11.4,4.9c-3.7,1.8-7.3,3.8-10.9,5.9C417.9,363.8,414.4,365.9,411.1,368z"/>
	</g>
	<path class="st0" d="M94.6,324.1c-1.7-1.2-3.4-2.5-5-3.9c-0.7-0.5-1-1.2-1.1-1.9c-0.1-0.8,0.1-1.4,0.4-2c0.3-0.6,0.8-1,1.5-1.4
		c0.6-0.3,1.4-0.3,2.1,0.1c2.1,1,3.9,2.4,5.4,4c1.6,1.6,3.2,3.1,4.9,4.6c0.7,0.5,1,1.1,1,1.8c0,0.7-0.2,1.3-0.6,1.8
		c-0.4,0.5-0.9,0.9-1.4,1.1c-0.6,0.2-1.3,0-2-0.5C97.9,326.5,96.2,325.3,94.6,324.1z M92.1,414c0.7,0.4,1.2,0.9,1.4,1.5
		c0.3,0.7,0.3,1.4,0.1,2.1c-0.2,0.8-0.7,1.4-1.7,1.9c-1,0.7-2.3,1.2-3.7,1.7c-1.4,0.5-2.9,0.9-4.4,1.2c-1.5,0.3-2.9,0.3-4.3,0
		c-1.4-0.3-2.5-0.9-3.4-1.9c-0.5-0.6-0.8-1.3-0.8-2c0-0.7,0.2-1.3,0.6-1.8c0.8-1,1.7-1.7,2.8-2c1.1-0.3,2.3-0.5,3.5-0.5
		c1.2,0,2.5,0,3.7,0.1c1.2,0.1,2.4-0.1,3.4-0.5C90.5,413.5,91.4,413.6,92.1,414z M81.3,393.5c-2.5,0.1-5.1,0-7.7-0.1
		c-2.7-0.1-5.7-0.2-8.9-0.3c-3.2-0.1-6.1-0.7-8.7-2c-0.7-0.4-1.1-0.9-1.3-1.7c-0.2-0.7,0-1.4,0.7-2c1.9-1.7,4.1-2.5,6.6-2.5
		c2.5,0,4.9,0.2,7.4,0.6c3.1,0.4,6.2,0.8,9.3,1.4c3.1,0.5,6.3,0.9,9.5,1.2c1,0.1,1.7,0.7,1.9,1.8c0.3,1.1-0.1,1.8-1.2,2.2
		C86.3,393,83.8,393.4,81.3,393.5z M73.9,361.7c-3.6-2.1-7.2-4.1-10.9-5.9c-3.7-1.8-7.5-3.4-11.4-4.9s-7.8-2.5-11.6-3.1
		c-1.7-0.3-2.9-1-3.6-2.3c-0.7-1.3-1-2.6-0.9-4c0.1-1.4,0.7-2.5,1.6-3.5c1-1,2.3-1.3,4-0.9c4.4,0.9,8.6,2.4,12.5,4.5
		c3.9,2.1,7.8,4.4,11.4,7s7.3,5.3,10.9,8.2c3.6,2.9,7.1,5.6,10.6,8.1c0.5,0.4,0.8,0.8,0.8,1.3c0,0.4-0.1,0.9-0.4,1.3
		c-0.3,0.4-0.6,0.7-1.2,0.8c-0.5,0.1-1,0.1-1.5-0.2C80.9,365.9,77.4,363.8,73.9,361.7z"/>
	<g>
		<path class="st0" d="M346.7,427.7c2.4,0.2,4.5,0.4,6.5,0.4c0.5,0,1-0.3,1.4-0.7c4.3-3.9,8.6-7.8,12.9-11.8
			c0.4-0.3,0.8-0.7,1.2-0.9c0.8-0.4,1.5-0.4,2.1,0.3c0.6,0.7,0.6,1.4,0.1,2.1c-0.4,0.5-0.9,0.9-1.3,1.4c-4,3.8-7.9,7.7-11.9,11.5
			c-0.2,0.2-0.4,0.4-0.7,0.9c0.5,0.6,0.9,1.1,1.4,1.7c3.5,3.8,7.1,7.5,10.7,11.3c0.4,0.4,0.8,0.8,1.1,1.3c0.5,0.6,1,1.4,0.3,2.1
			c-0.8,0.8-1.6,0.3-2.3-0.1c-0.4-0.2-0.7-0.5-1-0.8c-4.2-4.2-8.4-8.4-12.5-12.8c-0.8-0.8-1.4-1.2-2.5-1.2c-2.2,0.1-4.4-0.1-6.6-0.1
			c-0.1,1.1,0.7,1.5,1.1,1.9c3,3.3,6.1,6.5,9.1,9.8c0.5,0.5,0.9,1.1,1.2,1.7c0.4,1-0.4,1.9-1.4,1.6c-0.7-0.2-1.3-0.6-1.8-1.1
			c-2.1-1.9-4.2-3.8-6.1-5.9c-2.3-2.3-4.4-4.8-6.7-7.1c-0.4-0.4-1-0.9-1.5-0.9c-2.3-0.1-4.6-0.1-7.5-0.2c0.8,0.9,1.2,1.4,1.7,2
			c3,3.2,6,6.4,9,9.6c0.5,0.5,0.9,1.1,1.2,1.7c0.4,1-0.4,1.9-1.5,1.6c-0.6-0.2-1.3-0.6-1.8-1.1c-2.3-2.1-4.6-4.3-6.7-6.5
			c-2.1-2.2-4.1-4.5-6.2-6.7c-0.3-0.4-0.9-0.7-1.4-0.7c-2.5-0.1-4.9-0.1-7.9-0.2c0.7,0.8,1.1,1.3,1.5,1.8c3,3.2,6,6.4,9,9.6
			c0.5,0.5,1,1.1,1.3,1.7c0.2,0.4,0.1,1.1-0.2,1.5c-0.2,0.3-0.9,0.4-1.3,0.2c-0.6-0.2-1.3-0.7-1.8-1.1c-2.3-2.1-4.5-4.3-6.7-6.5
			c-2.1-2.1-4-4.4-6.1-6.5c-0.4-0.4-1-0.6-1.6-0.8c-0.2-0.1-0.4,0-0.6,0c-17.1-0.4-34.3-0.9-51.4-1.3c-0.5,0-1,0-1.7,0
			c0.4,0.6,0.6,0.9,0.9,1.3c1.9,2.4,4,4.6,5.7,7.1c4.3,6.1,5.7,12.9,4.8,20.2c-0.1,1-0.4,2-0.7,2.9c-2.6,7.6-10.7,9.3-16.1,3.3
			c-2.1-2.3-3.8-4.9-4.9-7.9c-0.7-2.1-1.3-4.3-2.1-6.8c-0.5,0.7-0.8,1.2-1.2,1.8c-1.6,2.5-3.3,5-5.5,7c-1.7,1.5-3.6,2.7-5.9,3.3
			c-3.8,1-6.6-0.3-8.2-3.8c-1.5-3.2-1.4-6.5-0.5-9.7c0.9-3.2,2.2-6.3,4.1-9.1c1.9-2.9,4-5.7,6-8.5c0.3-0.4,0.7-0.9,1.3-1.7
			c-30.7-0.8-61-1.5-91.4-1.9c0.4,0.2,0.8,0.5,1.2,0.7c4.9,2.4,9.8,4.7,14.7,7.1c0.5,0.2,1,0.5,1.4,0.9c0.6,0.6,0.8,1.3,0.5,2.1
			c-0.4,0.8-1.1,1.1-1.9,1c-0.5-0.1-1-0.2-1.4-0.4c-7.3-3.6-14.6-7.1-22-10.7c-0.6-0.3-1.1-0.6-1.6-1.1c-1.3-1.3-1.1-3,0.6-3.8
			c1.1-0.6,2.3-1,3.5-1.5c5.9-2.5,11.9-5,17.8-7.5c1.1-0.5,2.2-0.9,3.4-1.3c1.3-0.4,2.2,0.1,2.5,1c0.4,1.1-0.3,1.8-1.1,2.2
			c-1.9,1-3.9,2-5.9,2.9c-2.9,1.4-5.9,2.6-9.1,4c0.7,0.6,1.4,0.4,2.1,0.4c27.3,0.5,54.7,1,82,1.4c2.3,0,4.5,0.2,6.8,0.1
			c2.2-0.1,3.5,2,2.6,3.7c-1,2-2,4.1-3.2,5.9c-2.9,4.2-5.9,8.3-7.6,13.2c-0.7,2-1.2,3.9-0.9,6c0.5,3.5,2.1,4.4,5.2,2.7
			c2.1-1.1,3.8-2.7,5.2-4.6c1.6-2.3,3.1-4.6,4.5-6.9c0.8-1.2,1.4-2.6,3.1-2.5c1.9,0.2,2.2,1.7,2.7,3.1c0.9,2.7,1.7,5.4,2.7,8.1
			c0.9,2.5,2.3,4.7,4.1,6.6c0.7,0.7,1.4,1.4,2.3,1.8c2,1,4.1,0.4,5-1.6c0.7-1.5,1.1-3.2,1.2-4.9c0.3-5.4-1.1-10.4-4.2-14.9
			c-2.6-3.7-5.3-7.4-8.6-10.5c-1.3-1.2-1.3-3.3-0.1-4.6c0.3-0.3,0.9-0.4,1.3-0.5c1.1-0.1,2.1,0,3.2,0c18.1,0.3,36.3,0.6,54.4,1
			c1.5,0,2.6-0.4,3.7-1.5c3.9-3.7,7.9-7.3,12-10.9c1.3-1.2,2.4-1.3,3.2-0.5c0.8,0.8,0.6,1.8-0.7,3.1c-2.7,2.7-5.5,5.4-8.2,8.1
			c-0.4,0.4-0.9,0.9-1.6,1.7c1.5,0.3,2.8,0.1,4,0.3c2.3,0.3,4.1-0.4,5.8-2.1c3.4-3.5,7.2-6.6,10.8-9.9c0.5-0.4,1-0.8,1.5-1.1
			c0.8-0.4,1.5-0.3,2.1,0.5c0.5,0.6,0.5,1.4,0,2c-0.4,0.5-0.8,1-1.3,1.4c-2.8,2.7-5.5,5.5-8.3,8.2c-0.3,0.3-0.5,0.6-1,1.2
			c2.4,0,4.4,0.2,6.4,0.1c0.5,0,1.1-0.5,1.6-0.9c4.2-3.7,8.3-7.5,12.4-11.3c0.4-0.4,0.9-0.9,1.4-0.9c0.6-0.1,1.4,0.1,1.9,0.5
			c0.6,0.5,0.6,1.3,0.1,1.9c-0.4,0.5-0.8,1-1.3,1.4c-2.8,2.8-5.7,5.6-8.5,8.4C347.4,426.9,347.2,427.2,346.7,427.7z"/>
	</g>
</g>
</svg>
