<?xml version="1.0" encoding="utf-8"?>
<!-- Generator: Adobe Illustrator 22.0.0, SVG Export Plug-In . SVG Version: 6.00 Build 0)  -->
<svg version="1.1" id="Layer_1" xmlns="http://www.w3.org/2000/svg" xmlns:xlink="http://www.w3.org/1999/xlink" x="0px" y="0px"
	 viewBox="0 0 500 500" style="enable-background:new 0 0 500 500;" xml:space="preserve">
<style type="text/css">
	.st0{fill:#0C0C0C;}
</style>
<g>
	<g>
		<path class="st0" d="M194.1,83.4c2.3,0.5,4.7,0.7,7.1,1.1c2.8,0.4,4.5,1.9,4.8,4.8c0.2,2.1,0.5,4.2,1,6.3c0.2,0.9,0.8,1.6,1.2,2.5
			c0.5-0.8,1.2-1.5,1.4-2.4c0.5-2.1,0.7-4.2,0.9-6.3c0.3-3.1,2.1-4.6,5-5c2.3-0.3,4.6-0.6,6.8-1c0.6-0.1,1.2-0.5,2.5-1.1
			c-1.2-0.7-1.8-1.1-2.4-1.2c-2.4-0.4-4.7-0.8-7.1-1.1c-2.9-0.3-4.5-1.9-4.8-4.8c-0.3-2.1-0.5-4.2-1-6.3c-0.2-0.9-0.8-1.6-1.3-2.5
			c-0.5,0.8-1.2,1.5-1.3,2.3c-0.5,2.2-0.7,4.5-1.1,6.8c-0.4,2.5-1.9,3.9-4.4,4.3c-2.5,0.4-4.9,0.7-7.4,1.1c-0.6,0.1-1.1,0.7-1.6,1.1
			C193.1,82.7,193.5,83.3,194.1,83.4z"/>
		<path class="st0" d="M90.4,268.9c0.3,1.8,0.6,3.5,1,5.3c0.3,0,0.6,0,0.9,0c0.1-0.2,0.3-0.4,0.4-0.7c0.3-1.4,0.6-2.9,0.8-4.3
			c0.6-4.2,1.1-4.7,5.3-5.2c1.6-0.2,3.2-0.6,4.8-0.9c0-0.4,0-0.8,0-1.2c-1.5-0.3-3.1-0.5-4.6-0.8c-4.6-0.7-4.9-1-5.6-5.6
			c-0.3-1.6-0.6-3.2-0.9-4.8c-0.4,0-0.8,0-1.1,0.1c-0.3,1.9-0.8,3.9-0.9,5.8c-0.2,2.6-1.5,4-4.1,4.3c-2,0.2-4,0.7-6,1.1
			c0,0.4,0,0.8,0,1.1c1.7,0.3,3.4,0.6,5.1,0.9C89.2,264.5,89.8,265.1,90.4,268.9z"/>
		<path class="st0" d="M345.7,155.9c0.3,1.8,0.6,3.6,0.9,5.4c0.4,0,0.8,0,1.1,0c0.3-1.8,0.7-3.5,1-5.3c0.7-3.9,1.2-4.3,5.1-4.9
			c1.7-0.2,3.4-0.6,5.1-0.9c0-0.4,0-0.8,0-1.1c-2-0.4-3.9-0.9-5.9-1.1c-2.6-0.3-3.9-1.6-4.2-4.2c-0.2-2-0.7-4-1.1-5.9
			c-0.4,0-0.8,0-1.2,0c-0.3,1.9-0.6,3.8-0.8,5.7c-0.3,2.6-1.4,4.2-4.3,4.5c-1.9,0.2-3.9,0.7-5.8,1c0,0.4,0,0.8-0.1,1.2
			c1.8,0.3,3.6,0.6,5.4,0.9C344.4,151.8,345.2,152.5,345.7,155.9z"/>
		<path class="st0" d="M100.5,421c-10,1.4-16.9,8.8-25.7,13.2c0.8-3.4,1.3-6.4,2.3-9.4c0.9-2.9,1.1-5.3-2.2-7.5
			c-1.6,6.8-3.1,13.5-4.6,20.2c-0.2,0.9,0,2.5,0.6,2.9c0.6,0.4,2.1,0,2.9-0.5c9.1-5.7,18.2-11.5,27.3-17.3
			C100.9,422.1,100.7,421.5,100.5,421z"/>
		<path class="st0" d="M378.2,412.1l0.1,0c0,0,0,0,0-0.1l-0.2,0C378.1,412.1,378.1,412.1,378.2,412.1z"/>
		<path class="st0" d="M461,392.8c1.1-0.1,2.2-0.9,3.3-1.3c-0.7-1.1-1.1-2.5-2-3.2c-18.5-13.2-38.1-24.5-58.7-34
			c-0.9-0.4-1.8-0.9-2.8-1.4c0.6-1.3,1-2.4,1.5-3.5c3-6.8,6-13.7,9.1-20.4c1-2.3,0.6-3.6-1.7-4.5c-2.8-1.1-5.8-2.1-8.4-3.6
			c-3.1-1.8-5.8-4.2-8.7-6.4c0.1-0.2,0.3-0.5,0.4-0.7c5.8,0.9,11.6,1.7,17.4,2.6c0.1-0.2,0.2-0.5,0.2-0.7
			c-7.7-8.1-15-16.5-19.9-27.3c1.8,0.7,2.9,1.3,4.1,1.6c1.2,0.4,2.5,0.5,3.5,0.7c-4-6.5-7.9-12.8-11.7-19c0.2-0.1,0.4-0.3,0.7-0.4
			c2.9,0.9,5.8,1.8,8.7,2.8c0.1-0.2,0.3-0.4,0.4-0.7c-6.3-7.9-11.1-16.7-15.2-26.2c2.7,1,4.9,1.8,7.2,2.7c-4.2-8.6-7.8-17-10.3-26
			c2.8,1.1,5.3,2,7.8,2.9c0.1-0.2,0.3-0.4,0.4-0.6c-4.3-6.7-8.1-13.6-10.7-21.4c2.4,1.1,4.3,2,6.8,3.1c-2-4.9-3.8-9.1-5.3-13.4
			c-1.6-4.3-3-8.7-4.5-13.5c2,1,3.4,1.7,4.8,2.4c-3.1-9-6.2-17.7-9-25.9c-4.5,7.4-9.1,15.2-13.9,23.2c1.7-0.1,3.2-0.3,5.6-0.5
			c-5.3,8.2-10.3,15.9-15.4,23.8c2-0.3,3.9-0.7,5.7-1c0.2,0.2,0.4,0.4,0.6,0.6c-4,6.1-8,12.1-12,18.2c-0.4-0.1-0.8-0.2-1.1-0.2
			c-2.7-5.7-5.3-11.5-8.2-17.6c3.3,1.1,5.9,1.9,8.9,2.9c-2.8-4.6-5.5-8.5-7.7-12.7c-2.2-4.2-3.9-8.6-6-13.4c3.1,0.9,5.3,1.6,8.3,2.5
			c-6.2-10.1-11.3-19.8-15.5-30.5c2.5,0.5,4.3,1,6.1,1.3c-4.7-10.2-9.4-20.3-13.6-29.5c-4.4,9.3-9.2,19.4-14,29.8
			c1.8-0.7,3.7-1.4,5.5-2.1c0.2,0.1,0.4,0.2,0.6,0.4c-4.9,9.9-9.8,19.8-14.9,30.1c2.7-0.9,5.3-1.8,8.6-2.9c-3.1,5.3-5.9,10-8.9,15.2
			c-5.8-10.3-10.5-20.2-14.4-31.2c4.6,2.3,8.7,4.3,14,4.2c-8.1-10.6-14.7-21.4-19.7-33.3c3.8,1.5,7.3,2.8,10.8,4.2
			c-6.9-13.6-12.6-27.2-17.7-41.2c2.9,1.3,5.5,2.5,8,3.6c0.1-0.2,0.3-0.5,0.4-0.7c-7.5-13-13.2-26.8-17.6-41.8
			c-4.9,14.8-12.4,27.6-20.5,40.7c3.2-0.6,5.9-1,9-1.5c-6.1,13.8-13.3,26.4-21.1,39c3.1-0.8,6.2-1.6,9.7-2.6
			c-4.5,12.1-10.9,22.8-18.8,32.6c0.2,0.2,0.3,0.5,0.5,0.7c3.5-1,6.9-2,11-3.1c-3,6-5.7,11.6-8.5,17.2c-0.4,0-0.8,0-1.1,0
			c-4.8-9.8-9.7-19.6-14.8-30.1c2.8,1,4.7,1.7,6.4,2.4c-4.9-10.4-9.6-20.4-14-29.6c-4.3,9.4-9,19.4-13.7,29.5
			c1.8-0.4,3.7-0.8,5.7-1.2c0.2,0.2,0.5,0.4,0.7,0.5c-5,9.8-9.9,19.6-15,29.6c2.2-0.6,4.5-1.3,7.1-2.1c-3,9.4-7.6,17.7-13.8,26.1
			c3.4-1.1,6.1-1.9,9.5-3c-3.7,7.6-7.1,14.6-10.7,22.1c-4.8-5.6-8.3-10.9-11.1-17.2c2.2,0.4,4,0.7,5.8,1
			c-4.9-7.5-9.6-14.9-14.8-22.8c2.4,0.1,3.8,0.2,5.3,0.3c-4.6-7.8-9.1-15.3-13.3-22.2c-2.7,7.9-5.7,16.3-8.7,24.9
			c1.5-0.8,2.8-1.5,5-2.6c-3.3,8.9-6.3,17.2-9.5,25.8c2.1-0.9,4-1.8,5.9-2.6c0.2,0.2,0.4,0.3,0.6,0.5c-3.4,6.7-6.8,13.4-10.5,20.6
			c2.7-1,5.1-2,7.5-2.9c0.2,0.1,0.4,0.3,0.6,0.4c-3.4,8-6.7,16-10.2,24.3c2.1-0.7,4.3-1.5,6.4-2.2c0.2,0.2,0.5,0.4,0.7,0.6
			c-4.8,8.2-9.5,16.4-14.5,24.9c2.7-0.8,5.5-1.7,8.3-2.6c0.2,0.2,0.4,0.3,0.6,0.5c-3.7,6-7.4,12-11.4,18.4c2.6-0.8,4.8-1.5,7.1-2.2
			c0.2,0.2,0.4,0.3,0.6,0.5c-2.9,4.4-5.6,9-8.8,13.3c-3.2,4.2-6.8,8.1-10.8,12.8c6.2-0.9,11.7-1.7,17.1-2.6c0.1,0.2,0.3,0.4,0.4,0.6
			c-1.9,1.4-3.7,3.2-5.8,4.2c-3.4,1.7-7.1,3-10.7,4.5c-3.1,1.3-3.3,1.9-1.9,5c3.4,7.7,6.9,15.5,10.4,23.5c-1.1,0.5-1.9,0.9-2.7,1.3
			c-20.7,9.6-40.4,20.9-58.9,34.2c-0.9,0.6-1.3,2-1.9,3c1.1,0.5,2.2,1.3,3.3,1.4c8.3,0.8,16.7,1.4,25,2.3c5.6,0.6,11.2,1.7,16.9,2.6
			c-0.3,3.3-3.5,6.6,1.3,9c0.9-2.7,1.8-5.3,2.6-7.9c1.2-3.5,0.9-4.2-2.9-4.7c-9.7-1.4-19.3-2.7-29-4c-2.9-0.4-5.9-0.6-9.6-1
			c18.6-12.8,37.4-23.5,57.5-32.5c2.8,6.3,5.9,12.2,8.1,18.4c2,5.8,5.4,9,11.5,10.2c5.2,1,10.1,3.2,15.2,4.9
			c4.8-7.7,11.9-5.5,18.9-4.4c-0.9-2.9-1.8-5.4-2.6-7.9c-0.8-2.6-1.6-5.2-2.5-8.1c67.3-20.7,134.3-20.6,201.5,0
			c-2.7,8.5-5.4,16.7-8,24.8c-1,3.1-0.8,3.5,2.4,4.6c3.8,1.2,7.5,2.6,11.2,4c0.2,0,0.4-0.1,0.7-0.1c0.3,0,0.5,0,0.8,0.1
			c0.9,0.2,1.6,0.7,2.2,1.4c0.2,0.1,0.4,0.2,0.6,0.3c0.3-0.1,0.7-0.2,1-0.2c0.5,0,1,0.1,1.5,0.3c0.6,0.2,1.2,0.3,2,0.3
			c0.9,0,1.8-0.1,2.8-0.3c0.7-0.1,1.4-0.2,2-0.3c0.1,0,0.2,0,0.3,0c-6.8-2.9-13.7-5.5-20.7-8c1.5-0.7,2.4-1.2,3.3-1.5
			c10.6-3.8,21.1-7.7,31.7-11.3c2.2-0.8,3.5-1.9,4.4-4c2.9-6.9,6-13.6,9-20.5c0.4-0.8,0.8-1.6,1.3-2.5c20,9.1,38.9,19.7,57.3,32.4
			c-1.5,0.2-2.3,0.4-3.1,0.5c-11.9,1.5-23.7,3-35.6,4.6c-3.5,0.5-3.8,1.2-2.8,4.6c2.4,7.7,4.8,15.5,7,23.3c1.1,3.9,1.9,7.9,3,12.5
			c-2.6-1.6-4.6-2.9-6.6-4.1c-0.8,1.1-1.5,2-2.2,2.9c3.2,2.2,6.3,4.4,9.5,6.5c0.9,0.6,2.1,0.6,3.2,0.9c0.2-1.1,0.8-2.3,0.6-3.2
			c-2.6-10.6-5.4-21.2-8.2-31.8c-0.7-2.5-1.6-5-2.4-7.6c1-0.3,1.7-0.5,2.4-0.6C434.7,395.8,447.9,394.3,461,392.8z M360.9,232.2
			c1.4-1.4,1.4-4.1,2.6-6.4c0.3,1.1,0.8,2.2,0.8,3.3c0,3.1,1.7,4.2,4.5,4.4c1,0.1,2.1,0.4,3.1,0.5c0,0.3,0,0.5,0.1,0.8
			c-1.2,0.3-2.5,0.7-3.7,0.8c-2.6,0.1-3.8,1.4-3.9,4c-0.1,1.2-0.5,2.4-0.7,3.6c-1.3-1.7-7.2-7.7-9.4-8.8
			C356.6,233.7,359.4,233.7,360.9,232.2z M307.1,230.3c2.3,0.1,4.1,2.1,4,4.4c-0.1,2.4-2.1,4.3-4.5,4.1c-2.3-0.1-4.1-2.1-4.1-4.3
			C302.6,232.1,304.8,230.2,307.1,230.3z M243.4,120.8c1.8,0,3.3,1.6,3.3,3.6c-0.2,1.7-1.3,3-3.3,3c-2,0-3.2-1.1-3.4-3.2
			C239.9,122.4,241.5,120.8,243.4,120.8z M197.3,181.5c0.2,4.5,2.2,6.8,6.9,6.8c-4.4,0.4-6.8,2.4-6.9,7c-0.2-4.5-2.3-6.7-6.9-6.8
			C195,188.2,197.2,186.1,197.3,181.5z M189.5,230.5c0.9-0.1,1.9,1.3,2.9,2.1c0,0.4,0,0.8-0.1,1.1c-1,0.6-2.2,1.9-3.1,1.7
			c-1-0.2-1.7-1.7-2.5-2.6C187.7,232,188.6,230.5,189.5,230.5z M159.8,285.4c35.5-23.5,64.1-53.7,87.1-89.4c1.1-1.7,1.1-3-0.1-4.6
			c-1.7-2.3-3.2-4.7-4.5-7.3c-0.4-0.7,0.1-1.9,0.2-2.8c0.8,0.3,2,0.5,2.4,1.1c1.8,2.5,3.4,5.2,5.3,8.2c1.8-2.8,3.3-5.5,5.1-8
			c0.5-0.7,1.8-0.8,2.8-1.2c0,1,0.3,2.1-0.1,2.9c-1.5,2.7-3.3,5.1-4.7,7.8c-0.5,0.8-0.6,2.4-0.1,3.1c28.3,44,64.3,79.6,111,103.9
			c0.8,0.4,1.6,0.7,2.6,1.2c0.6-1.6,1-3,1.8-4.2c0.4-0.6,1.4-0.8,2.1-1.2c0.3,0.8,1,1.6,0.8,2.3c-0.6,2.2-1.4,4.4-2.4,6.4
			c-0.3,0.5-1.9,1.1-2.4,0.8c-11.8-7-23.6-13.9-35.2-21.2c-5.6-3.5-10.6-7.8-16.2-12c-2.3,8.1-4.5,16-6.8,24.1
			c-5.8-0.7-11.5-1.5-17.1-2c-9.1-0.8-18.2-1.5-27.3-1.9c-2.3-0.1-3.3-0.8-3.7-3c-3.2-16-6.6-32.1-9.9-48.1c-0.1-0.5-0.2-1-0.3-1.3
			c-2.3,11.9-4.6,23.9-7.1,35.8c-1,4.9-2.3,9.7-3.7,14.4c-0.2,0.8-1.5,1.8-2.3,1.9c-14.4,1.4-28.8,2.6-43.2,3.9
			c-1.7,0.2-2.4-0.3-2.9-2c-1.9-7.3-4-14.5-6.1-22c-4.3,3.3-8.4,6.5-12.5,9.5c-11.5,8.5-23.6,16-36.5,22.3c-4.4,2.1-4.3,2.2-6.1-2.6
			c-0.3-0.9-0.9-1.7-0.9-2.6c0-0.9,0.4-1.9,0.6-2.9c0.8,0.5,1.9,0.9,2.4,1.6c0.7,1,1,2.3,1.8,4.4
			C142.8,295.6,151.6,290.9,159.8,285.4z M135.4,264.9c0.8,4.1,2.1,7.2,7.3,6.2c-0.2,0.3-0.4,0.6-0.6,0.9c-1.6,0.5-3.6,0.5-4.7,1.6
			c-1.1,1.1-1.1,3.1-1.6,4.7c-0.3,0.1-0.5,0.2-0.8,0.3c0.6-4.8-2.1-6.4-6.3-6.8C133,271.4,135.9,270,135.4,264.9z M385.3,378.5
			c-43.2-18.7-88.2-28.2-135.1-28.2c-47,0-92,9.4-135.4,28.2c-7.5-16.9-14.9-33.6-22.6-50.9c105.4-43.8,210.3-43.8,315.7,0
			C400.2,344.8,392.8,361.5,385.3,378.5z"/>
		<path class="st0" d="M384.5,412.3c-0.1,0.9-0.6,1.6-1.2,2.2c3.7,1.8,7.3,3.7,10.9,5.7c2.9,1.6,5.4,2.2,8.5,0.3
			c-6-3.5-12.1-6.7-18.3-9.7C384.6,411.3,384.6,411.9,384.5,412.3z"/>
	</g>
	<g>
		<path class="st0" d="M121.4,430.2c0.3,4.1-1.5,7.1-4.7,9.4c-1.2,0.9-2.6,1.3-4,1.3c-1.1,0-2.1,0.1-3.2-0.1
			c-2.7-0.6-4.4-2.3-5.5-4.8c-0.7-1.7-0.6-3.5,0.3-5.1c0.3-0.6,0.8-1.1,1.5-1.4c0.5-0.2,0.9-0.1,1.1,0.2c0.2,0.3,0.1,0.7-0.3,1.1
			c-0.8,0.5-1,1.3-1,2.1c0,1.2,0.1,2.3,0.9,3.3c0.4,0.6,1,1.1,1.6,1.4c1.3,0.6,2.6,1.1,4,1c0.9,0,1.7-0.4,2.5-0.9
			c1.6-1.1,2.1-3.4,1-5c-0.7-1-1.5-1.9-2.5-2.6c-1.4-1.1-2.8-2.1-4.2-3.1c-0.4-0.3-0.9-0.6-1.2-0.9c-0.6-0.6-1.2-0.7-1.9-0.5
			c-0.2,0-0.5,0.1-0.7,0.2c-0.4,0-0.7-0.1-0.8-0.5c-0.1-0.3,0-0.6,0.3-0.8c0.1-0.1,0.3-0.2,0.5-0.3c0.5-0.2,0.5-0.2,0.2-0.7
			c-0.1-0.2-0.2-0.4-0.3-0.6c-1.3-2-1.7-4.2-1.3-6.5c0.5-2.6,1.5-4.8,3.4-6.7c1.5-1.4,3.2-2.3,5.3-2.6c2.2-0.3,4.2,0.3,5.6,2.2
			c0.1,0.1,0.2,0.3,0.5,0.4c0.3-0.3,0.4-0.7,0.5-1.1c0-0.1,0-0.3,0-0.4c0.1-0.3,0.3-0.5,0.7-0.5c0.3,0,0.6,0.2,0.7,0.6
			c0,0.3,0,0.7-0.1,1c-0.1,0.4-0.3,0.8-0.6,1.2c-0.2,0.4-0.4,0.8-0.6,1.2c-0.1,0.6-0.1,1.1,0.1,1.6c0.1,0.1,0.2,0.3,0.2,0.4
			c0.1,0.4,0,0.8-0.3,1c-0.3,0.2-0.7,0.1-0.9-0.2c-0.6-0.6-0.8-1.3-0.8-2.1c0.1-1.7-0.9-2.8-2.3-3.5c-0.9-0.5-2-0.5-3-0.3
			c-0.9,0.2-1.7,0.5-2.5,0.9c-1.5,0.9-2.4,2.9-1.8,4.6c0.5,1.5,1.5,2.6,2.7,3.5c1.2,1,2.6,1.9,3.9,2.8c1.8,1.3,3.5,2.8,5,4.4
			c1.3,1.4,2,3.1,2.1,5L121.4,430.2z M114.9,424.3c0.2,0,0.4,0,0.5-0.3c-0.2-0.3-0.6-0.6-0.9-0.9c-1.3-1.1-2.7-1.9-4-2.9
			c-2.1-1.5-4-3.2-4.6-6.1c-0.5,0.8-0.6,1.5-0.7,2.3c-0.6,2.4,0,4.5,1.5,6.3c1.3,1.5,2.8,2.8,4.5,4c0.4,0.3,0.5,0.3,0.7-0.2
			C112.6,425.3,113.7,424.6,114.9,424.3L114.9,424.3z M110.4,421.9c0.5,0,1,0.5,1,1.1c0,0.5-0.4,0.9-0.8,0.9c-0.5,0-0.9-0.5-0.9-1
			C109.7,422.4,110.1,422,110.4,421.9L110.4,421.9z"/>
		<path class="st0" d="M145.6,409.3c-0.1,0.6-0.2,1.1-0.3,1.6c-0.2,0.9-0.4,1.7-0.1,2.6c0,0.1,0,0.2,0,0.3c0,0.4-0.2,0.7-0.6,0.8
			c-0.4,0.1-0.8,0-1-0.4c-0.3-0.6-0.4-1.2-0.3-1.8c0.1-0.7-0.1-1.2-0.5-1.6c-1-1.1-2.1-1.9-3.5-2.4c-0.7-0.2-1.3-0.1-1.8,0.4
			c-1,1-1.7,2.2-2.3,3.5c-1.1,2.5-1.7,5.2-2.1,7.9c-0.4,2.9-0.4,5.8-0.3,8.7c0.1,2.4,0.5,4.7,1.4,6.9c0.3,0.8,0.8,1.5,1.4,2.2
			c0.4,0.4,0.9,0.5,1.4,0.6c1.2,0.2,2.1-0.3,3-0.9c1.5-1,2.7-2.5,3.6-4c0.1-0.2,0.2-0.4,0.4-0.6c0.3-0.3,0.7-0.3,1.1-0.1
			c0.3,0.2,0.4,0.6,0.3,1c0,0.1-0.1,0.2-0.1,0.3c-1.3,2.4-3,4.4-5.5,5.6c-3.1,1.5-6.1,1.2-8.8-1c-1.8-1.4-2.9-3.2-3.9-5.2
			c-0.9-2.1-1.4-4.2-1.7-6.5c-0.1-1.1-0.6-2.1-1.3-3c0-0.1-0.1-0.2-0.2-0.3c-0.2-0.3-0.3-0.6,0-0.9c0.2-0.3,0.5-0.4,0.8-0.3
			c0.2,0,0.4,0.1,0.7,0.3c0.1-1.8,0.4-3.5,0.8-5.1c0.9-3.2,2.3-6.2,4.7-8.6c0.7-0.7,1.6-1.4,2.5-1.8c3.2-1.7,6.8-1.3,9.5,1.2
			c0.2,0.2,0.5,0.5,0.8,0.8c0.3-0.3,0.3-0.7,0.2-1.1c0-0.2-0.1-0.5-0.2-0.7c0-0.4,0.1-0.7,0.5-0.9c0.3-0.1,0.7,0,0.9,0.3
			c0.1,0.1,0.1,0.3,0.2,0.5c0.1,0.6,0.2,1.2,0.1,1.7L145.6,409.3z M133,413.2c0.6-1.6,1.4-3.2,2.4-4.7c-0.4-0.1-0.6,0-0.9,0.1
			c-1.1,0.5-2,1.2-2.8,2.1c-1.5,1.6-2.6,3.6-3.4,5.7c-0.9,2.5-1.3,5.1-1.4,7.8c0,0.5,0.1,0.6,0.6,0.4c1-0.3,2-0.3,2.9,0.1
			c0.4,0.2,0.5,0.1,0.5-0.4c0-1,0.1-1.9,0.2-2.9C131.6,418.6,132.2,415.9,133,413.2L133,413.2z M129.9,421.8c0,0.6-0.3,1-0.8,1
			c-0.5,0-0.9-0.5-0.9-1.1c0-0.5,0.3-0.9,0.8-0.9C129.5,420.9,129.9,421.3,129.9,421.8z"/>
		<path class="st0" d="M169.4,411.1c0.1,0.2,0.1,0.5,0.1,0.8c0,0.3-0.2,0.5-0.6,0.6c-0.3,0.1-0.6,0-0.8-0.2
			c-0.2-0.2-0.2-0.5-0.3-0.8c-0.3-1.1-1.1-1.9-2.2-2.3c-1.5-0.5-2.9-0.6-4.4-0.4c-0.7,0-1.4,0.1-2.2,0.2c-0.6,0.1-0.6,0.1-0.6,0.7
			c-0.1,4-0.1,7.9-0.1,11.9c0,0.2,0,0.4,0,0.6c0,0.6,0.1,0.6,0.6,0.4c1.1-0.4,2.3-0.7,3.5-0.4c0.7,0.1,1.3,0.4,1.8,1
			c0.3-0.3,0.3-0.6,0.2-1c0-0.2,0-0.4,0-0.6c0-0.4,0.2-0.7,0.5-0.8c0.3-0.1,0.7,0,0.9,0.4c0.3,0.7,0.3,1.4,0.2,2.1
			c-0.1,0.7-0.4,1.4-0.8,2.1c-0.2,0.5-0.4,1-0.3,1.5c0,0.1,0,0.2,0,0.3c0,0.4-0.3,0.6-0.7,0.7c-0.4,0-0.6-0.1-0.8-0.4
			c-0.1-0.2-0.2-0.5-0.2-0.8c0-0.4,0.1-0.8,0.1-1.2c0.1-0.9-0.3-1.5-1.2-1.8c-1.4-0.4-2.6,0-3.7,0.9c-0.3,0.2-0.3,0.6-0.3,0.9
			c0,1.7,0,3.4,0,5.1c0,2.4,0,4.7-0.1,7.1c0,0.5,0.1,0.6,0.5,0.7c1.4,0.3,2.9,0.4,4.3,0.2c0.7-0.1,1.4-0.2,2-0.4
			c0.7-0.2,1.4-0.6,1.8-1.3c0.1-0.1,0.2-0.2,0.3-0.3c0.3-0.2,0.6-0.3,0.9-0.1c0.3,0.2,0.4,0.5,0.3,0.9c-0.1,0.3-0.3,0.6-0.5,0.8
			c-0.6,0.7-1.4,1.2-2.3,1.4c-2.3,0.7-4.7,0.8-7.1,0.3c-1-0.2-1.9-0.4-2.8-0.6c-1.8-0.2-3.5-0.1-5.2,0.8c-0.6,0.3-1,0.3-1.3-0.1
			c-0.2-0.4-0.1-0.9,0.5-1.1c1.1-0.4,1.4-1.1,1.4-2.2c0-1.3,0-2.5,0-3.8c0-2,0-4,0.2-5.9c0-1-0.3-1.9-0.8-2.7
			c-0.1-0.2-0.4-0.4-0.6-0.5c-0.5-0.4-0.7-0.7-0.4-1.1c0.2-0.4,0.6-0.4,1.3-0.1c0.1,0.1,0.3,0.2,0.6,0.2c0-1.2,0.1-2.4,0.1-3.5
			c0-1.8,0-3.7,0.1-5.5c0-1.1,0-2.2,0-3.3c0-0.7,0-0.7-0.8-1c-0.5-0.1-1-0.3-1.4-0.6c-0.4-0.2-0.5-0.6-0.3-1
			c0.2-0.3,0.5-0.5,0.9-0.3c2.1,0.9,4.3,0.6,6.5,0.3c1.4-0.2,2.8-0.4,4.2-0.6c1.9-0.2,3.8-0.1,5.7,0.6c1.6,0.6,2.6,1.8,3,3.4V411.1z
			 M156.5,410c0-0.5,0-0.6-0.6-0.6c-0.7,0-1.4,0.2-2.1,0.2c-0.6,0-0.7,0.1-0.7,0.7c0,0.9,0,1.8,0,2.8c-0.1,3,0,6.1-0.2,9.2
			c0,0.4,0,0.8,0,1.2c0,0.7,0,0.7,0.7,0.5c0.7-0.3,1.5-0.5,2.3-0.2c0.5,0.2,0.6,0.1,0.6-0.4c0-0.6,0-1.2,0-1.7
			C156.5,417.7,156.4,413.9,156.5,410L156.5,410z M154.7,420c0.4,0,0.7,0.3,0.7,0.7c0,0.5-0.4,0.9-0.8,0.9c-0.4,0-0.8-0.4-0.8-0.8
			C153.8,420.4,154.2,419.9,154.7,420L154.7,420z"/>
		<path class="st0" d="M200.3,406.8c0.3,0.2,0.5,0.5,0.5,0.9c0,0.4-0.3,0.6-0.6,0.7c-0.1,0-0.2,0-0.3,0c-0.9,0.1-0.9,0.1-1,1
			c-0.1,2.4,0,4.8-0.1,7.2c-0.1,2.5-0.1,5-0.1,7.5c-0.1,3.1-0.2,6.3-0.3,9.4c0,1.4-0.1,2.8-0.1,4.2c0,0.6,0,0.6,0.6,0.7
			c0.1,0,0.3,0,0.4,0c0.3,0.1,0.5,0.3,0.6,0.7s-0.1,0.6-0.4,0.8c-0.3,0.1-0.7,0.1-1.1,0.1c-0.7-0.1-1.4-0.2-2-0.4
			c-1.4-0.4-2.7-0.3-4.1,0.1c-0.2,0.1-0.5,0.1-0.7,0.2c-1.2,0.4-2.1,0-2.8-0.8c-0.4-0.4-0.7-0.9-1-1.5c-1.1-2.6-1.8-5.2-2.5-7.9
			c-0.7-2.9-1.3-5.9-1.8-8.9c-0.3-1.9-0.4-3.9-0.7-5.8c-0.2-1.5-0.4-3.1-0.8-4.6c-0.2,0.5-0.2,1.1-0.2,1.6c0.1,4.1-0.2,8.1-0.2,12.2
			c0,2,0,4.1-0.1,6.1c-0.1,2.5-0.3,4.9-0.3,7.4c0,0.8,0,0.8,0.8,0.9c0.1,0,0.3,0,0.4,0c0.3,0.1,0.5,0.3,0.5,0.7
			c0,0.3-0.1,0.6-0.4,0.7c-0.3,0.2-0.7,0.2-1.1,0.2c-0.6-0.1-1.3-0.2-1.9-0.4c-1.4-0.5-2.9-0.4-4.3,0.1c-0.3,0.1-0.7,0.2-1,0.3
			c-0.3,0.1-0.7,0.1-1,0.1c-0.3-0.1-0.6-0.3-0.6-0.7c0-0.3,0.2-0.6,0.5-0.7c1.1-0.1,1-0.8,1-1.6c0.1-3.2,0.1-6.5,0.1-9.8
			c0-0.8,0.1-1.6-0.2-2.5c-0.2-0.6-0.5-1.1-1.1-1.4c-0.4-0.2-0.5-0.6-0.4-1c0.1-0.4,0.5-0.5,1-0.4c0.1,0,0.3,0.1,0.4,0.1
			c0.1,0,0.2,0.1,0.3,0c0.1-0.2,0.1-0.4,0.1-0.7c0-4,0.2-7.9,0.1-11.9c0-0.2,0-0.4,0-0.6c0-0.6-0.1-0.6-0.7-0.8c-0.1,0-0.2,0-0.3,0
			c-0.3-0.1-0.6-0.3-0.6-0.7c0-0.3,0.2-0.6,0.7-0.7c0.3-0.1,0.7-0.1,1,0c0.5,0.1,1.1,0.2,1.6,0.4c1.5,0.4,2.9,0.5,4.4-0.1
			c0.6-0.3,1.3-0.4,2-0.5c0.8,0,1.2,0.2,1.4,1c0.2,0.8,0.3,1.6,0.5,2.4c0.7,3.3,1.1,6.6,1.5,9.9c0.6,4.3,1.1,8.5,2.2,12.8
			c0.3,1.3,0.7,2.5,1.4,3.6c0.1,0.2,0.3,0.4,0.4,0.6c0.2,0.2,0.3,0.6,0.7,0.5c0.3-0.1,0.1-0.5,0.1-0.7c0.2-2.9,0.1-5.8,0.1-8.7
			c0-0.4,0-0.8,0-1.2c0.1-0.8-0.1-1.5-0.4-2.2c-0.2-0.4-0.4-0.7-0.9-0.9c-0.1,0-0.1-0.1-0.2-0.1c-0.3-0.2-0.4-0.6-0.3-0.9
			c0.1-0.3,0.5-0.5,0.9-0.4c0.3,0,0.6,0.4,0.8,0.1c0.2-0.2,0.1-0.6,0.1-1c0-3.9,0.2-7.7,0.2-11.6c0-0.2,0-0.5,0-0.7
			c0-0.4-0.1-0.7-0.6-0.7c-0.1,0-0.3,0-0.4-0.1c-0.3-0.1-0.5-0.3-0.5-0.7c0-0.3,0.1-0.5,0.4-0.6c0.3-0.1,0.7-0.1,1-0.1
			c0.5,0.1,1.1,0.2,1.6,0.4c1.5,0.5,3.1,0.6,4.6-0.1c0.5-0.2,1.1-0.4,1.7-0.5c0.3,0,0.7,0,1,0.1L200.3,406.8z M180,417.4
			c0.1-2.7,0.2-5.3,0.2-8c0-0.5,0-0.6-0.6-0.5c-1,0.2-1.9,0-2.8,0c-0.1,0-0.2,0-0.3,0c-0.3,0-0.4,0.1-0.4,0.4c0,0.1,0,0.3,0,0.4
			c0,3.8,0,7.5-0.1,11c0,1.2,0,2.2,0,3.1c0,0.4,0.1,0.5,0.4,0.4c1-0.5,2-0.5,3,0c0.2,0.1,0.4,0,0.4-0.2c0-0.2,0-0.5,0-0.7
			c0-1.9,0-3.8,0.1-5.7L180,417.4z M178.1,419.6c0.5,0.1,1,0.8,1,1.3c0,0.4-0.2,0.7-0.5,0.9c-0.3,0.2-0.7,0.1-1,0
			c-0.5-0.3-0.8-1-0.6-1.5c0.1-0.4,0.6-0.7,1-0.6L178.1,419.6z M197,417.1c0.1-2.7,0.2-5.3,0.2-8c0-0.5,0-0.6-0.6-0.5
			c-1,0.2-1.9,0-2.8,0c-0.1,0-0.2,0-0.3,0c-0.3,0-0.4,0.1-0.4,0.4c0,0.1,0,0.3,0,0.4c0,3.8,0,7.5-0.1,11c0,1.2,0,2.2,0,3.1
			c0,0.4,0.1,0.5,0.4,0.4c1-0.5,2-0.5,3,0c0.2,0.1,0.4,0,0.4-0.2c0-0.2,0-0.5,0-0.7c0-1.9,0-3.8,0.1-5.7L197,417.1z M196,420.9
			c0,0.4-0.2,0.7-0.5,0.9c-0.3,0.2-0.7,0.1-1-0.1c-0.5-0.3-0.7-1-0.5-1.5c0.1-0.4,0.5-0.6,0.9-0.6C195.4,419.6,196,420.3,196,420.9z
			"/>
		<path class="st0" d="M214.3,407c0.3,0.2,0.5,0.5,0.5,0.9c0,0.3-0.3,0.5-0.6,0.6c-0.1,0-0.2,0-0.3,0c-1,0.1-1,0.1-1,1.1
			c-0.1,2.5,0,4.9-0.1,7.4c-0.1,2.4-0.1,4.8-0.1,7.2c-0.1,3.2-0.2,6.4-0.3,9.6c0,1.4-0.1,2.8-0.1,4.2c0,0.6,0,0.6,0.6,0.7
			c0.1,0,0.3,0,0.4,0c0.3,0.1,0.5,0.3,0.6,0.7c0,0.3-0.1,0.6-0.4,0.8c-0.3,0.1-0.7,0.2-1,0.1c-0.6-0.1-1.3-0.2-1.9-0.4
			c-1.5-0.5-2.9-0.4-4.3,0.1c-0.4,0.1-0.8,0.2-1.2,0.3c-0.2,0-0.5,0-0.8,0c-0.3-0.1-0.6-0.3-0.6-0.7c0-0.3,0.2-0.6,0.5-0.7
			c1.1-0.1,1-0.9,1-1.6c0.1-3.2,0.1-6.5,0.1-9.8c0-0.8,0.1-1.6-0.2-2.5c-0.2-0.6-0.5-1.1-1.1-1.4c-0.5-0.2-0.6-0.6-0.4-1
			c0.2-0.3,0.5-0.4,1.1-0.3c0.7,0.2,0.7,0.2,0.7-0.6c0-2.9,0.2-5.7,0.1-8.5c0-1.3,0-2.5,0-3.8c0-0.8,0-0.8-0.8-1
			c-0.5-0.1-0.7-0.4-0.7-0.8c0-0.4,0.3-0.7,0.8-0.8c0.6-0.1,1.2,0,1.8,0.2c0.9,0.3,1.7,0.5,2.7,0.5c0.7,0,1.4-0.1,2.1-0.4
			c0.6-0.2,1.3-0.4,1.9-0.5C213.5,406.8,213.9,406.8,214.3,407L214.3,407z M211,413.7c0.1-1.3,0-2.6,0.1-3.9c0-0.4-0.2-0.5-0.6-0.5
			c-0.6,0.1-1.3,0.2-1.9,0.1c-0.4,0-0.8-0.1-1.2-0.1c-0.3,0-0.4,0-0.4,0.3c0,0.1,0,0.3,0,0.4c0,3.8,0,7.5-0.1,11.1c0,1.1,0,2,0,2.8
			c0,0.6,0,0.6,0.6,0.4c1-0.4,1.9-0.4,2.8,0c0.4,0.2,0.5,0.1,0.6-0.3c0-0.2,0-0.4,0-0.6c0-3.1,0.1-6.2,0.2-9.3
			C211.1,414,211.1,413.9,211,413.7L211,413.7z M208.8,420.1c0.5,0.1,1.1,0.8,1.1,1.4c0,0.4-0.2,0.7-0.5,0.9c-0.3,0.2-0.7,0.1-1,0
			c-0.5-0.3-0.8-1-0.6-1.5C207.9,420.4,208.3,420.1,208.8,420.1L208.8,420.1z"/>
		<path class="st0" d="M238.8,409.3c-0.1,0.6-0.2,1.1-0.3,1.6c-0.2,0.9-0.4,1.7-0.1,2.6c0,0.1,0,0.2,0,0.3c0,0.4-0.2,0.7-0.6,0.8
			c-0.4,0.1-0.8,0-1-0.4c-0.3-0.6-0.4-1.2-0.3-1.8c0.1-0.7-0.1-1.2-0.5-1.6c-1-1.1-2.1-1.9-3.5-2.4c-0.7-0.2-1.3-0.1-1.8,0.4
			c-1,1-1.7,2.2-2.3,3.5c-1.1,2.5-1.7,5.2-2.1,7.9c-0.4,2.9-0.4,5.8-0.3,8.7c0.1,2.4,0.5,4.7,1.4,6.9c0.3,0.8,0.8,1.5,1.4,2.2
			c0.4,0.4,0.9,0.5,1.4,0.6c1.2,0.2,2.1-0.3,3-0.9c1.5-1,2.7-2.5,3.6-4c0.1-0.2,0.2-0.4,0.4-0.6c0.3-0.3,0.7-0.3,1.1-0.1
			c0.3,0.2,0.4,0.6,0.3,1c0,0.1-0.1,0.2-0.1,0.3c-1.3,2.4-3,4.4-5.5,5.6c-3.1,1.5-6.1,1.2-8.8-1c-1.8-1.4-2.9-3.2-3.9-5.2
			c-0.9-2.1-1.4-4.2-1.7-6.5c-0.1-1.1-0.6-2.1-1.3-3c0-0.1-0.1-0.2-0.2-0.3c-0.2-0.3-0.3-0.6,0-0.9c0.2-0.3,0.5-0.4,0.8-0.3
			c0.2,0,0.4,0.1,0.7,0.3c0.1-1.8,0.4-3.5,0.8-5.1c0.9-3.2,2.3-6.2,4.7-8.6c0.7-0.7,1.6-1.4,2.5-1.8c3.2-1.7,6.8-1.3,9.5,1.2
			c0.2,0.2,0.5,0.5,0.8,0.8c0.3-0.3,0.3-0.7,0.2-1.1c0-0.2-0.1-0.5-0.2-0.7c0-0.4,0.1-0.7,0.5-0.9c0.3-0.1,0.7,0,0.9,0.3
			c0.1,0.1,0.1,0.3,0.2,0.5c0.1,0.6,0.2,1.2,0.1,1.7L238.8,409.3z M226.2,413.2c0.6-1.6,1.4-3.2,2.4-4.7c-0.4-0.1-0.6,0-0.9,0.1
			c-1.1,0.5-2,1.2-2.8,2.1c-1.5,1.6-2.6,3.6-3.4,5.7c-0.9,2.5-1.3,5.1-1.4,7.8c0,0.5,0.1,0.6,0.6,0.4c1-0.3,2-0.3,2.9,0.1
			c0.4,0.2,0.5,0.1,0.5-0.4c0-1,0.1-1.9,0.2-2.9C224.8,418.6,225.4,415.9,226.2,413.2L226.2,413.2z M223.1,421.8c0,0.6-0.3,1-0.8,1
			c-0.5,0-0.9-0.5-0.9-1.1c0-0.5,0.3-0.9,0.8-0.9C222.7,420.9,223.1,421.3,223.1,421.8z"/>
		<path class="st0" d="M280,439.4c0.1,0.4-0.1,0.7-0.4,0.9c-0.5,0.3-1,0.3-1.5,0.2c-0.5-0.1-1.1-0.2-1.6-0.4c-1.1-0.4-2.2-0.3-3.3,0
			c-0.2,0.1-0.5,0.2-0.7,0.2c-0.4,0-0.8-0.2-0.9-0.6c-0.1-0.4,0.1-0.6,0.4-0.8c0.4-0.2,0.9-0.5,1.3-0.7c0.3-0.2,0.5-0.4,0.4-0.8
			c-0.3-1.9-0.5-3.8-1.1-5.6c-0.2-0.7-0.5-1.4-0.8-2.1c-1.1-2.2-3.3-2.9-5.6-2.8c-0.4,0-0.6,0.2-0.7,0.6c0,0.5-0.1,1-0.1,1.4
			c0,2.5-0.1,5-0.3,7.5c0,0.2,0,0.4,0,0.6c0,1,0,1,1,1.2c0.4,0.1,0.7,0.4,0.7,0.8c0,0.4-0.2,0.6-0.6,0.8c-0.3,0.1-0.6,0.1-0.9,0
			c-0.7-0.1-1.4-0.2-2-0.4c-1.4-0.5-2.8-0.3-4.2,0.1c-0.4,0.1-0.8,0.3-1.2,0.4c-0.3,0.1-0.7,0.1-1,0c-0.3-0.1-0.5-0.3-0.5-0.6
			c0-0.2,0.1-0.4,0.3-0.6c0.2-0.1,0.4-0.2,0.7-0.2c0.4,0,0.5-0.3,0.5-0.7c0-0.8,0-1.5,0-2.3c0-3.1,0.1-6.2,0.1-9.3
			c0-0.6,0-1.2-0.3-1.7c-0.2-0.5-0.5-0.9-1-1.2c-0.5-0.2-0.6-0.6-0.4-1c0.2-0.3,0.5-0.4,1.1-0.3c0.1,0,0.2,0.1,0.3,0.1
			c0.2,0.1,0.4,0,0.4-0.2c0-0.3,0.1-0.7,0.1-1c0-1.8,0-3.6,0-5.4c0-1.7,0.1-3.3,0.1-5c0-0.5,0-1.1,0-1.6c0-0.4-0.1-0.6-0.6-0.7
			c-0.7-0.1-1-0.3-1-0.7c0-0.5,0.4-0.8,1.2-0.8c0.6,0,1.2,0.1,1.7,0.3c1.6,0.5,3.3,0.6,4.9-0.1c0.7-0.3,1.5-0.4,2.4-0.4
			c1.2,0,2.4-0.1,3.6,0.1c2.1,0.5,4,1.4,5.5,3c0.8,0.9,1.4,1.9,1.6,3c1.1,5.2-0.3,9.6-4.2,13.1c-0.4,0.4-0.4,0.4,0,0.8
			c1.5,1.4,2.6,3,3.3,5c0.5,1.5,0.9,3.1,1,4.8c0,0.7,0.2,1.3,0.4,1.9c0.1,0.4,0.3,0.6,0.7,0.6c0.1,0,0.2,0,0.3,0
			c0.3,0,0.6,0.2,0.7,0.6V439.4z M264.2,409.6c0-0.6-0.1-0.7-0.6-0.6c-0.9,0.2-1.7,0-2.6,0c-0.8,0-0.8,0-0.8,0.7
			c0,2.8-0.1,5.5-0.1,8.3c0,1.7,0,3.4-0.1,5.1c0,0.4,0,0.8,0,1.2c0.1,0,0.1,0,0.2,0c1.1-0.5,2.1-0.7,3.2-0.1c0.3,0.1,0.4,0,0.4-0.4
			c0-1,0-2,0.1-3c0.1-3.1,0.3-6.3,0.2-9.4C264.2,410.7,264.2,410.1,264.2,409.6z M261.2,420c0.4-0.3,0.9-0.1,1.4,0.4
			c0.2,0.2,0.3,0.5,0.3,0.9c0,0.4-0.1,0.7-0.5,0.9c-0.3,0.2-0.7,0.1-1-0.1c-0.1-0.1-0.3-0.2-0.4-0.4
			C260.6,421.1,260.8,420.4,261.2,420L261.2,420z M268.6,422.5c1.7-2,2.5-4.4,2.5-7.1c0-1.4-0.2-2.8-0.8-4.1
			c-0.6-1.4-1.7-2.3-3.1-2.7c-1.1-0.3-1.3-0.1-1.3,0.9c0,3.9-0.1,7.7-0.3,11.6c0,0.8,0,1.5,0,2.3c0,0.5,0.1,0.6,0.6,0.4
			C267.1,423.7,267.9,423.2,268.6,422.5L268.6,422.5z M272.5,424.1c0.2,0.2,0.4,0.1,0.6,0c0.1-0.1,0.3-0.3,0.4-0.4
			c2.7-3.2,3.5-6.8,2.5-10.9c-0.2-0.8-0.6-1.5-1.3-2.1c-1.3-1.4-3-2-4.9-2.4c1.5,1.5,2.1,2.4,2.5,4.3c0.4,2.1,0.6,4.2,0.2,6.3
			c-0.2,1.4-0.6,2.7-1.2,3.9c-0.2,0.6-0.2,0.6,0.3,0.9C272,423.7,272.3,423.9,272.5,424.1L272.5,424.1z"/>
		<path class="st0" d="M304.6,414c1.4,3,2.1,6.2,2.1,9.8c0,3.9-0.9,7.8-3.1,11.4c-1.2,1.9-2.6,3.5-4.5,4.7c-3.5,2.2-7.8,1.8-10.9-1
			c-1.9-1.7-3.2-3.9-4.1-6.3c-0.8-2.1-1.2-4.2-1.3-6.4c0-1-0.3-2-1.2-2.7c-0.3-0.2-0.4-0.5-0.2-0.9c0.1-0.3,0.4-0.4,1-0.3
			c0.6,0.1,0.6,0.1,0.7-0.5c0.5-3.8,1.8-7.3,4.2-10.4c1.3-1.6,2.9-2.9,4.9-3.7c2.7-1.1,5.3-0.8,7.8,0.7c2.2,1.3,3.7,3.2,4.8,5.5
			L304.6,414z M288.9,423.7c0-1.9,0.2-3.9,0.6-5.7c0.6-2.7,1.5-5.3,3.1-7.6c0.3-0.4,0.7-0.8,1-1.2c0,0-0.1-0.1-0.1-0.1
			c-0.1,0-0.2,0-0.3,0c-2.3,0.7-4,2.2-5.4,4.1c-1.6,2.3-2.6,4.9-3,7.7c-0.2,1.1-0.3,2.1-0.3,3.2c0,0.3,0,0.6,0.5,0.4
			c1.2-0.4,2.3-0.5,3.5,0c0.2,0.1,0.4,0,0.4-0.2C288.8,424.1,288.8,423.9,288.9,423.7L288.9,423.7z M286.8,420.8
			c0.5,0,1.1,0.5,1.2,1c0,0.4-0.5,0.9-1,0.9c-0.6,0-1.1-0.5-1.1-1C285.8,421.2,286.2,420.9,286.8,420.8L286.8,420.8z M303.6,432
			c1.5-3.8,2-7.7,1.4-11.7c-0.3-2.5-1.1-4.8-2.4-7c-1.2-1.8-2.6-3.2-4.6-4.1c-0.4-0.1-0.8-0.1-1.3,0c-0.9,0.3-1.5,0.8-2,1.5
			c-1.1,1.4-1.8,2.9-2.4,4.5c-1.2,3.2-1.7,6.5-1.5,9.3c0,2.2,0,3.7,0.1,5.2c0.2,1.8,0.8,3.6,1.7,5.2c0.8,1.4,1.9,2.4,3.4,2.9
			c1.5,0.5,2.9,0.4,4.1-0.8c1.5-1.5,2.6-3.2,3.3-5.1L303.6,432z"/>
		<path class="st0" d="M331.6,407.2c0.4,0.1,0.7,0.5,0.7,0.9c0,0.4-0.3,0.7-0.8,0.8c-0.6,0-1.3,0.1-1.9,0.2
			c-0.6,0.1-0.7,0.2-0.8,0.8c0,0.3,0,0.6,0,0.9c0,1.4,0,2.9,0,4.3c0,4.5-0.2,9.1-0.2,13.6c0,2.7-0.5,5.4-1.8,7.8
			c-2.2,4.2-7,5.5-11,3.6c-1.2-0.5-2.3-1.2-3.2-2.1c-1.4-1.3-2-2.9-2.3-4.7c-0.3-1.4-0.1-2.8-0.1-4.2c0-1,0-1.9,0-2.9
			c0-0.9-0.3-1.7-1.2-2.2c-0.5-0.3-0.6-0.7-0.4-1c0.1-0.3,0.5-0.5,1-0.4c0.1,0,0.3,0.1,0.4,0.1c0.2,0.1,0.3,0,0.4-0.3
			c0-0.3,0.1-0.6,0.1-0.9c0-1.4,0-2.7,0-4.1c0-2.5,0.1-4.9,0.1-7.4c0-0.2,0-0.4,0-0.6c0-0.4-0.1-0.7-0.6-0.7c-0.7-0.1-1-0.3-1-0.8
			c0-0.5,0.4-0.8,1.2-0.8c0.6,0,1.2,0.1,1.7,0.3c1.6,0.5,3.3,0.6,4.9-0.1c0.5-0.2,1.1-0.3,1.7-0.4c0.3,0,0.7,0,1,0.1
			c0.3,0.1,0.5,0.4,0.5,0.8s-0.2,0.6-0.6,0.7c-0.2,0-0.4,0-0.6,0.1c-0.6,0-0.7,0.1-0.7,0.7c0,1.1,0,2.1,0,3.2c0,3-0.1,6-0.2,9
			c0,0.5,0,1.1,0,1.6c0,2.6-0.1,5.2-0.1,7.8c0,1.4,0.3,2.6,0.9,3.8c1,1.9,3.4,2.3,5,0.9c1.2-1,2-2.3,2.4-3.8
			c0.3-1.4,0.5-2.9,0.7-4.4c0.3-4.2,0.3-8.3,0.3-12.5c0-1.8,0.1-3.6,0.1-5.4c0-0.9,0-0.9-0.9-1.1c-0.4-0.1-0.9-0.1-1.4-0.1
			c-0.2,0-0.5,0-0.7,0c-0.3,0-0.5-0.2-0.6-0.6c0-0.3,0.1-0.6,0.4-0.7c0.2-0.1,0.5-0.1,0.7-0.1c1.2,0,2.3,0,3.4,0.3
			c0.5,0.1,1,0.1,1.5,0c0.5-0.1,1.1-0.2,1.6-0.2c0.2,0,0.4,0,0.6,0L331.6,407.2z M316.1,420.4c0.1-3.2,0.3-6.4,0.3-9.6
			c0-0.2,0-0.4,0-0.6c0-0.5-0.1-0.6-0.6-0.5c-0.9,0.2-1.8,0-2.8-0.1c-0.6,0-0.7,0-0.7,0.6c0,1.6,0,3.2-0.1,4.8
			c-0.1,2.9,0,5.8-0.1,8.7c0,0.4-0.1,0.8,0,1.3c0.2-0.1,0.4-0.2,0.6-0.2c0.9-0.4,1.7-0.4,2.7,0c0.6,0.2,0.6,0.2,0.6-0.4
			C316,422.9,316.1,421.6,316.1,420.4L316.1,420.4z M314,420.5c0.5,0.1,1,0.8,1,1.4c0,0.3-0.2,0.6-0.5,0.8c-0.3,0.2-0.7,0.1-1,0
			c-0.5-0.3-0.7-0.9-0.4-1.4C313.2,420.8,313.7,420.5,314,420.5L314,420.5z"/>
		<path class="st0" d="M358,409.2c0.3,0.8,0.4,1.7,0.4,2.6c0,0.4-0.1,0.8-0.3,1.1c-0.2,0.4-0.6,0.6-1,0.4c-0.4-0.1-0.6-0.5-0.5-1
			c0.3-0.7,0.1-1.5,0-2.2c-0.1-0.5-0.4-0.9-0.9-1c-0.7-0.2-1.4-0.4-2.1-0.4c-0.8,0-1.5,0-2.3,0c-0.3,0-0.6,0-0.8,0.1
			c-0.8,0.2-0.9,0.3-0.9,1.1c0,1,0,2,0,3c0,3-0.2,6-0.3,9c0,0.2,0,0.5,0,0.7c0,3.4,0,6.9-0.2,10.3c0,1.4,0,2.9-0.2,4.2
			c0,0.4,0,0.9,0,1.3c0,0.4,0.2,0.6,0.6,0.6c0.2,0,0.5,0,0.7,0.1c0.3,0.1,0.5,0.4,0.5,0.7c0,0.3-0.2,0.5-0.5,0.7
			c-0.2,0.1-0.5,0.1-0.8,0.1c-0.7,0-1.4-0.2-2.1-0.4c-1.5-0.5-2.9-0.4-4.3,0.1c-0.4,0.1-0.8,0.2-1.3,0.3c-0.2,0-0.4,0-0.6,0
			c-0.4,0-0.7-0.3-0.7-0.7s0.1-0.6,0.5-0.8c0.1,0,0.2,0,0.3,0c0.7-0.2,0.7-0.2,0.7-1c0-1.5,0-3,0-4.5c0-2.3,0.1-4.5,0.1-6.8
			c0-0.6,0-1.2-0.3-1.7c-0.2-0.5-0.4-0.9-1-1.2c-0.5-0.2-0.6-0.6-0.4-0.9c0.1-0.4,0.5-0.5,1-0.4c0.1,0,0.2,0,0.3,0.1
			c0.4,0.1,0.5,0,0.6-0.4c0-0.3,0-0.6,0-0.9c0-1.2,0-2.4,0-3.6c0-2.5,0.1-5,0.1-7.5c0-1,0-1-0.9-1.1c-1.4-0.2-2.8-0.4-4.2-0.2
			c-0.5,0.1-0.7,0.3-0.8,0.7c-0.2,0.9-0.5,1.7-0.2,2.6c0.1,0.5-0.1,0.9-0.6,1c-0.4,0.1-0.8-0.1-1-0.6c-0.2-0.5-0.3-1.1-0.2-1.6
			c0.1-0.5,0.2-1,0.3-1.4c0.2-0.8,0.4-1.6,0.4-2.5c0-0.5,0.1-0.8,0.5-0.9c0.3-0.1,0.7,0,0.9,0.5c0.2,0.5,0.5,0.5,0.9,0.4
			c0.8-0.1,1.6-0.1,2.5,0c1.6,0.2,3.2,0.4,4.7,0.8c1.1,0.3,2.2,0.1,3.3-0.3c2.5-0.9,5-1.2,7.6-0.7c0.3,0,0.6,0,0.7-0.4
			c0-0.1,0-0.2,0.1-0.3c0.2-0.3,0.4-0.5,0.8-0.4c0.3,0,0.5,0.3,0.5,0.6c0,0.1,0,0.2,0,0.3c0,0.7,0.2,1.4,0.4,2.1L358,409.2z
			 M347.9,413.8c0-1.4,0-2.4,0-3.4c0-0.5,0-0.5-0.5-0.4c-0.9,0.2-1.8,0.2-2.8,0.2c-0.7,0-0.7,0-0.7,0.7c0,2.9-0.1,5.8-0.1,8.7
			c0,1.7,0,3.4-0.1,5.1c0,0.6,0,0.6,0.6,0.4c0.9-0.4,1.8-0.5,2.8,0c0.5,0.2,0.6,0.2,0.6-0.4c0-1,0-2,0-3c0.1-2.8,0.2-5.5,0.3-7.9
			L347.9,413.8z M346.6,422.1c0,0.6-0.4,1-1,1c-0.6,0-1.2-0.6-1.2-1.3c0-0.6,0.4-1.1,0.9-1.1C346,420.8,346.6,421.5,346.6,422.1z"/>
		<path class="st0" d="M381.3,411.1c0.1,0.2,0.1,0.5,0.1,0.8c0,0.3-0.2,0.5-0.6,0.6c-0.3,0.1-0.6,0-0.8-0.2
			c-0.2-0.2-0.2-0.5-0.3-0.8c-0.3-1.1-1.1-1.9-2.2-2.3c-1.5-0.5-2.9-0.6-4.4-0.4c-0.7,0-1.4,0.1-2.2,0.2c-0.6,0.1-0.6,0.1-0.6,0.7
			c-0.1,4-0.1,7.9-0.1,11.9c0,0.2,0,0.4,0,0.6c0,0.6,0.1,0.6,0.6,0.4c1.1-0.4,2.3-0.7,3.5-0.4c0.7,0.1,1.3,0.4,1.8,1
			c0.3-0.3,0.3-0.6,0.2-1c0-0.2,0-0.4,0-0.6c0-0.4,0.2-0.7,0.5-0.8c0.3-0.1,0.7,0,0.9,0.4c0.3,0.7,0.3,1.4,0.2,2.1
			c-0.1,0.7-0.4,1.4-0.8,2.1c-0.2,0.5-0.4,1-0.3,1.5c0,0.1,0,0.2,0,0.3c0,0.4-0.3,0.6-0.7,0.7c-0.4,0-0.6-0.1-0.8-0.4
			c-0.1-0.2-0.2-0.5-0.2-0.8c0-0.4,0.1-0.8,0.1-1.2c0.1-0.9-0.3-1.5-1.2-1.8c-1.4-0.4-2.6,0-3.7,0.9c-0.3,0.2-0.3,0.6-0.3,0.9
			c0,1.7,0,3.4,0,5.1c0,2.4,0,4.7-0.1,7.1c0,0.5,0.1,0.6,0.5,0.7c1.4,0.3,2.9,0.4,4.3,0.2c0.7-0.1,1.4-0.2,2-0.4
			c0.7-0.2,1.4-0.6,1.8-1.3c0.1-0.1,0.2-0.2,0.3-0.3c0.3-0.2,0.6-0.3,0.9-0.1c0.3,0.2,0.4,0.5,0.3,0.9c-0.1,0.3-0.3,0.6-0.5,0.8
			c-0.6,0.7-1.4,1.2-2.3,1.4c-2.3,0.7-4.7,0.8-7.1,0.3c-1-0.2-1.9-0.4-2.8-0.6c-1.8-0.2-3.5-0.1-5.2,0.8c-0.6,0.3-1,0.3-1.3-0.1
			c-0.2-0.4-0.1-0.9,0.5-1.1c1.1-0.4,1.4-1.1,1.4-2.2c0-1.3,0-2.5,0-3.8c0-2,0-4,0.2-5.9c0-1-0.3-1.9-0.8-2.7
			c-0.1-0.2-0.4-0.4-0.6-0.5c-0.5-0.4-0.7-0.7-0.4-1.1c0.2-0.4,0.6-0.4,1.3-0.1c0.1,0.1,0.3,0.2,0.6,0.2c0-1.2,0.1-2.4,0.1-3.5
			c0-1.8,0-3.7,0.1-5.5c0-1.1,0-2.2,0-3.3c0-0.7,0-0.7-0.8-1c-0.5-0.1-1-0.3-1.4-0.6c-0.4-0.2-0.5-0.6-0.3-1
			c0.2-0.3,0.5-0.5,0.9-0.3c2.1,0.9,4.3,0.6,6.5,0.3c1.4-0.2,2.8-0.4,4.2-0.6c1.9-0.2,3.8-0.1,5.7,0.6c1.6,0.6,2.6,1.8,3,3.4V411.1z
			 M368.4,410c0-0.5,0-0.6-0.6-0.6c-0.7,0-1.4,0.2-2.1,0.2c-0.6,0-0.7,0.1-0.7,0.7c0,0.9,0,1.8,0,2.8c-0.1,3,0,6.1-0.2,9.2
			c0,0.4,0,0.8,0,1.2c0,0.7,0,0.7,0.7,0.5c0.7-0.3,1.5-0.5,2.3-0.2c0.5,0.2,0.6,0.1,0.6-0.4c0-0.6,0-1.2,0-1.7
			C368.4,417.7,368.3,413.9,368.4,410L368.4,410z M366.6,420c0.4,0,0.7,0.3,0.7,0.7c0,0.5-0.4,0.9-0.8,0.9c-0.4,0-0.8-0.4-0.8-0.8
			C365.7,420.4,366.1,419.9,366.6,420L366.6,420z"/>
	</g>
	<g>
		<g>
			<path class="st0" d="M127.4,318.7c3.4-0.9,6.8-1.7,10.2-2.5c5.4,12.7,10.7,25.6,15.8,38.4c-2.1,0.5-4.3,1-6.4,1.5
				c-0.6-1.6-1.3-3.2-1.9-4.8c-2.7,0.6-5.3,1.3-8,2c0.2,1.7,0.4,3.5,0.5,5.2c-2.1,0.5-4.2,1.1-6.3,1.7
				C129.8,346.3,128.5,332.5,127.4,318.7z M143.1,346.1c-2.9-7.2-5.8-14.3-8.8-21.4c0.7,7.7,1.4,15.4,2.2,23.1
				C138.7,347.1,140.9,346.6,143.1,346.1z"/>
		</g>
		<g>
			<path class="st0" d="M149.3,313.6c2.3-0.5,4.6-1,6.9-1.4c2.3,11.6,4.5,23.2,6.8,34.8c3.2-0.6,6.3-1.2,9.5-1.8
				c0.3,1.8,0.6,3.6,0.9,5.4c-5.3,0.9-10.5,1.9-15.7,3C154.9,340.3,152.1,327,149.3,313.6z"/>
		</g>
		<g>
			<path class="st0" d="M166.5,310.3c2.3-0.4,4.6-0.8,6.9-1.2c2.6,9.2,5.1,18.5,7.6,27.7c-0.1-9.6-0.1-19.3,0-28.9
				c1.6-0.2,3.3-0.5,4.9-0.7c2.7,9.2,5.2,18.5,7.7,27.8c-0.1-9.6-0.2-19.1-0.2-28.7c2.3-0.3,4.7-0.5,7-0.8
				c-0.2,13.8-0.3,27.5-0.2,41.2c-2.9,0.3-5.8,0.7-8.6,1.1c-1.8-6.9-3.6-13.9-5.5-20.8c0.1,7.2,0.2,14.3,0.3,21.5
				c-2.9,0.4-5.7,0.9-8.6,1.3C174.2,336.7,170.4,323.5,166.5,310.3z"/>
		</g>
		<g>
			<path class="st0" d="M207.6,304.9c3.5-0.3,6.9-0.6,10.4-0.8c3.3,13.5,6.3,27,9.2,40.5c-2.2,0.1-4.3,0.2-6.5,0.4
				c-0.3-1.7-0.7-3.4-1.1-5.1c-2.7,0.2-5.4,0.4-8.2,0.6c-0.1,1.7-0.2,3.5-0.3,5.2c-2.1,0.2-4.3,0.4-6.4,0.6
				C205.5,332.6,206.4,318.8,207.6,304.9z M218.5,334.5c-1.7-7.5-3.4-15.1-5.1-22.6c-0.6,7.7-1.1,15.4-1.6,23.1
				C214,334.8,216.3,334.7,218.5,334.5z"/>
		</g>
		<g>
			<path class="st0" d="M232.9,344.4c-0.2-4.8-0.4-9.6-0.6-14.4c-2.9-8.7-5.9-17.4-9.1-26.1c2.1-0.1,4.2-0.2,6.4-0.3
				c2,5.6,3.9,11.2,5.7,16.8c1.5-5.7,3-11.4,4.6-17.1c2.1,0,4.3-0.1,6.4-0.1c-2.6,8.9-5.1,17.8-7.4,26.7c0.1,4.8,0.2,9.6,0.4,14.4
				C237.1,344.2,235,344.3,232.9,344.4z"/>
		</g>
		<g>
			<path class="st0" d="M251.6,336c0.2,0.3,0.4,0.5,0.7,0.8c0.5,0.5,1.2,1.1,2.1,1.6c0.9,0.5,1.7,0.8,2.6,0.8c0.9,0,1.6-0.1,2.3-0.5
				c0.6-0.3,1.2-0.7,1.6-1.3c0.4-0.5,0.7-1.1,0.9-1.8c0.2-0.7,0.3-1.3,0.3-1.9c0-0.6-0.2-1.2-0.5-1.9c-0.3-0.7-0.8-1.4-1.5-2.2
				c-0.6-0.8-1.4-1.5-2.2-2.3c-0.8-0.8-1.7-1.7-2.5-2.5c-0.9-0.9-1.7-1.7-2.5-2.6c-0.8-0.9-1.6-1.8-2.3-2.8c-0.7-1-1.2-1.9-1.7-2.9
				c-0.4-1-0.6-2-0.6-3c0-1.3,0.2-2.6,0.7-3.9c0.5-1.3,1.2-2.5,2.2-3.5c1-1.1,2.3-1.9,3.8-2.6c1.6-0.6,3.5-1,5.7-0.9
				c3.4,0.1,6.2,1.1,8.3,3c0.1,0.1,0.1,0.1,0.2,0.2c-1,1.9-2.1,3.7-3.1,5.6c-0.2-0.3-0.4-0.5-0.7-0.8c-0.5-0.6-1.3-1.1-2.2-1.6
				c-0.9-0.5-1.8-0.8-2.7-0.8c-0.9,0-1.8,0.1-2.4,0.5c-0.7,0.3-1.2,0.7-1.7,1.3c-0.4,0.5-0.8,1.1-1,1.7c-0.2,0.6-0.3,1.3-0.3,2
				c0,0.6,0.2,1.2,0.5,1.8c0.4,0.6,0.9,1.3,1.5,2.1c0.7,0.7,1.4,1.5,2.2,2.3c0.8,0.8,1.6,1.6,2.5,2.4c0.8,0.8,1.7,1.7,2.5,2.6
				c0.8,0.9,1.6,1.9,2.2,2.8c0.6,1,1.1,2,1.5,3c0.4,1,0.5,2.1,0.5,3.3c0,1.3-0.3,2.6-0.8,3.9c-0.5,1.3-1.2,2.4-2.2,3.5
				c-1,1-2.2,1.8-3.6,2.5c-1.5,0.6-3.2,0.9-5.2,0.9c-3.1,0-5.7-1-7.7-2.8c-0.1-0.1-0.1-0.1-0.2-0.2
				C249.9,339.8,250.7,337.9,251.6,336z"/>
		</g>
		<g>
			<path class="st0" d="M292.6,310.3c-3-0.3-5.9-0.5-8.9-0.7c0.1-1.8,0.2-3.6,0.4-5.4c8.3,0.6,16.7,1.3,25,2.3
				c-0.2,1.8-0.4,3.6-0.6,5.4c-3-0.4-5.9-0.7-8.9-1c-1.2,11.8-2.4,23.6-3.5,35.4c-2.1-0.2-4.3-0.4-6.4-0.6
				C290.5,333.9,291.5,322.1,292.6,310.3z"/>
		</g>
		<g>
			<path class="st0" d="M314.8,307.2c3.5,0.5,6.9,0.9,10.4,1.5c0.3,13.9,0.4,27.7,0.3,41.5c-2.1-0.4-4.3-0.7-6.4-1
				c0-1.7,0-3.5,0.1-5.2c-2.7-0.4-5.4-0.8-8.1-1.1c-0.5,1.7-1,3.3-1.4,5c-2.1-0.3-4.3-0.5-6.4-0.8
				C306.8,333.7,310.7,320.5,314.8,307.2z M319.1,338.4c0-7.7,0-15.4-0.1-23.2c-2.2,7.4-4.4,14.8-6.5,22.2
				C314.7,337.8,316.9,338.1,319.1,338.4z"/>
		</g>
		<g>
			<path class="st0" d="M337,310.6c2.3,0.4,4.6,0.8,6.9,1.3c-1.1,5.5-2.1,10.9-3.2,16.4c3.7-5,7.4-9.9,11.3-14.8
				c2.1,0.4,4.2,0.9,6.3,1.4c-3.7,4.5-7.2,9.1-10.8,13.6c1.1,8.9,2,17.7,2.7,26.5c-2.1-0.5-4.2-0.9-6.3-1.4c-0.5-6-1.1-12-1.7-18.1
				c-0.1,0.2-0.4,0.5-0.8,1.1c-0.4,0.6-0.9,1.2-1.3,1.8c-0.5,0.6-1,1.4-1.8,2.4c-0.1,0.3-0.2,0.6-0.3,0.9c-0.1,0.3-0.1,0.5-0.2,0.8
				c0,0.3,0,0.6-0.1,0.9c0,0.3-0.1,0.6-0.2,1c-0.5,2.5-1,5.1-1.5,7.6c-2.1-0.4-4.2-0.8-6.4-1.2C332.2,337.5,334.6,324.1,337,310.6z"
				/>
		</g>
		<g>
			<path class="st0" d="M364.1,316.2c5.7,1.3,11.3,2.8,17,4.3c-0.5,1.7-1,3.5-1.4,5.2c-3.3-0.9-6.7-1.8-10-2.6
				c-0.6,2.2-1.1,4.5-1.7,6.7c2.8,0.7,5.6,1.4,8.3,2.2c-0.5,1.7-0.9,3.5-1.4,5.2c-2.7-0.7-5.5-1.5-8.2-2.1
				c-1.4,5.7-2.9,11.4-4.3,17.1c3.1,0.8,6.3,1.6,9.4,2.5c-0.5,1.8-1,3.5-1.4,5.3c-5.2-1.4-10.4-2.7-15.6-4
				C357.8,342.8,360.9,329.5,364.1,316.2z"/>
		</g>
	</g>
	<g>
		<path class="st0" d="M221.4,369.4c0-0.3,0-0.6,0-0.8v-0.3v-0.1V368c0,0,0-0.1,0-0.1s0,0,0,0l0-0.1h0l0-0.1V366l-0.2,0
			c-0.1,0-0.2,0-0.4,0c-0.1,0-0.2,0-0.3,0c-1.4,0-2.7,0-4,0c-1.3,0-2.6,0-3.9,0c-0.3,0-0.5,0-0.8,0c-0.3,0-0.6,0-0.8,0
			c-2.1,0-4.1,0-6.2,0.1c-2,0-4.1,0-6.2,0c-0.2,0-0.5,0-0.7,0c-0.2,0-0.5,0-0.7,0c-0.2,0-0.4,0-0.6,0c-0.2,0-0.4,0.1-0.6,0.1
			c-0.1,0-0.2,0-0.4,0c-0.1,0-0.2,0-0.3-0.1l-0.3-0.1v0.3c0,0.4,0,0.9,0,1.3c0,0.4,0,0.9,0,1.4s0,0.9,0,1.4c0,0.4,0,0.9,0,1.3v0.2
			h0.2c0.4,0,0.7,0,1.1,0s0.7,0,1.1,0c0.3,0,0.5,0,0.8,0c0.2,0,0.5-0.1,0.8-0.1c0.9,0,1.7,0,2.6,0c0.9,0,1.7,0,2.6,0h0.2l0-0.1
			c0,0,0-0.1,0-0.1c0,0,0,0,0-0.1c0.1,0.1,0.1,0.1,0.2,0.1c0.1,0,0.1,0,0.2,0.1h0.2c0,0,0,0.1,0.1,0.1h0.2v1.3c0,0.1,0,0.2,0,0.3
			c0,0.1,0,0.2,0,0.2v0.1c0,0.1,0,0.1,0,0.1v0.2c0,0,0,0.1,0,0.1c0,0,0,0.1,0,0.1c0,0.2,0,0.3,0,0.5s0,0.3,0,0.5c0,0.5,0,0.9,0,1.3
			c0,0.4,0,0.9,0,1.3c0,1.4,0,2.7,0,4c0,0.6,0,1.3,0,1.9c-7.7,0.1-15.4,0.3-23.1,0.4c-0.3,0-0.6,0-1,0c0.3-0.3,0.4-0.5,0.6-0.7
			c0.9-1,1.9-2.1,2.8-3.2c0.3-0.4,0.5-0.8,0.2-1.2c-0.2-0.4-0.6-0.6-1.1-0.6c-0.4,0-0.7,0.1-1,0.2c-3.4,1.4-6.8,2.7-10.1,4.2
			c-1.1,0.5-2,1.2-3,1.9c-0.7,0.5-0.7,1.4-0.1,1.9c0.3,0.3,0.7,0.5,1.1,0.7c0.6,0.3,1.3,0.6,2,0.8c2.7,0.9,5.4,1.9,8,3.1
			c1.1,0.5,2.3,0.9,3.4,1.3c0.3,0.1,0.8,0.1,1.1,0.1c0.8-0.2,1.1-0.9,0.6-1.6c-0.2-0.2-0.4-0.4-0.6-0.7c-1.3-1.3-2.5-2.6-3.9-4
			c0.4,0,0.5,0,0.6,0c7.8-0.1,15.6-0.2,23.5-0.2c0.1,0,0.1,0,0.2,0c0,0,0,0.1,0.1,0.1h-0.2v0.2c0,1.3,0,2.5,0.1,3.8
			c0.1,1.3,0.1,2.6,0.1,3.9v0.3v0.2v0.1l-0.1,0.1c0,0,0,0.1,0,0.1c0,0-0.1,0-0.1,0.1c0,0.1,0,0.2,0.1,0.2l-0.1,0.1v0.2
			c0,0,0,0.1,0,0.1c0,0,0,0.1,0,0.1v0.2v0v0.1c0,0,0,0.1,0,0.1v0.2v3.2c0,0.3,0.2,0.5,0.4,0.6h0.1l0.1,0h0.2c0,0,0.1-0.1,0.1-0.1
			c0.2,0.1,0.3,0.2,0.4,0.2c0.1,0,0.3,0,0.5,0c0.6,0,1.2,0,1.8,0c0.6,0,1.2,0,1.8-0.1c0.1,0,0.2,0,0.4,0c0.2,0,0.3,0,0.5-0.1
			c0.2-0.1,0.4-0.1,0.4-0.1l0.2-0.1c0.1,0,0.2-0.1,0.2-0.2c0-0.1,0-0.2-0.1-0.2l-0.1-0.1l0.1,0v-0.1c0-0.3,0-0.5,0-0.8
			c0-0.3,0-0.5,0-0.8v-0.9c0-0.1,0-0.2,0-0.3c0-0.1,0-0.2,0-0.2c0,0-0.1-0.1-0.1-0.1c0,0,0-0.1,0-0.1v-0.1c0.1-0.4,0.2-0.7,0.2-1.1
			c0-0.2,0-0.4,0-0.6c0-0.2,0-0.4,0-0.6c0-0.1,0-0.2,0-0.3c0-0.1,0-0.2,0-0.2V393c0,0,0-0.1,0-0.2c-0.1-0.1-0.1-0.2-0.1-0.2v-1.2
			c0-0.2,0-0.4,0-0.6c0-0.2,0.1-0.4,0.1-0.6c0-0.9,0-1.7,0-2.5c0-0.8,0-1.7,0-2.5V385l-0.1-0.2c0-0.1,0-0.1,0-0.2c0-0.1,0-0.1,0-0.2
			c0,0,0.1-0.1,0.1-0.2c0-0.4,0-0.8-0.1-1.2s-0.1-0.8-0.1-1.2c0-0.2,0-0.3,0-0.5s0-0.4,0-0.6c0-0.3,0-0.6-0.1-0.7
			c0.1-0.3,0.2-0.5,0.2-0.6c0-0.2,0-0.3,0-0.3v-0.1c0-0.5,0-1.1,0-1.6c0-0.5,0-1.1,0-1.7c0-0.3,0-0.6-0.1-0.9
			c-0.1-0.3-0.1-0.6-0.1-0.8c0,0,0-0.1,0.1-0.1v-0.1c0,0,0-0.1,0-0.2c0,0,0-0.1,0-0.2c0-0.2,0-0.4,0-0.6s0-0.4,0-0.6
			c0-0.1,0-0.1,0-0.2c0,0,0-0.1,0-0.2h1.9c0,0,0.1,0,0.1,0c0,0,0,0,0.1,0c0.1,0.1,0.3,0.1,0.4,0.1c0.1,0,0.1,0,0.2-0.1
			c0.1,0,0.1,0,0.2,0h0.1l0-0.1c0.6,0,1.1,0,1.6,0c0.5,0,1.1,0,1.6,0c0.2,0,0.4,0,0.6,0c0.2,0,0.4,0.1,0.6,0.1c0.3,0,0.6,0,0.9-0.1
			c0.3,0,0.6-0.1,0.8-0.1h0.2l0-0.1c0.1-0.1,0.1-0.1,0.1-0.2c0-0.2-0.1-0.3-0.2-0.4c0.1-0.2,0.2-0.4,0.2-0.6
			C221.4,370,221.4,369.7,221.4,369.4z"/>
		<path class="st0" d="M253.9,379C253.9,379,253.9,379,253.9,379c-0.1-0.1-0.1-0.1-0.1-0.2c0,0,0,0-0.1-0.1v-0.1v-2.4v-0.2
			c0,0,0-0.1,0-0.2c0,0,0-0.1,0-0.1v-0.1c0-0.1,0-0.2,0-0.3c0-0.1,0-0.2,0-0.2v-0.2c0-0.1,0-0.2,0-0.3c0-0.1,0-0.1,0-0.2
			c0-0.1,0-0.1,0-0.2c0-0.1-0.1-0.2-0.1-0.3c0-0.1,0-0.2,0-0.3l0.1-0.1c0-0.1,0-0.2,0-0.2c0.1-0.2,0.1-0.4,0.1-0.5
			c0-0.1,0-0.4-0.1-0.7c-0.1-0.3-0.2-0.6-0.2-0.8c0,0,0.1-0.1,0.1-0.1c0,0,0.1,0,0.1-0.1l0,0V370l-0.1-0.1l0,0
			c0.1-0.5,0.2-1,0.2-1.6c0-0.2,0-0.3,0-0.4c0-0.1,0-0.3,0-0.4c0-0.2,0-0.5,0.2-0.7l0.1-0.1l-0.1-0.1c-0.2-0.2-0.4-0.4-0.6-0.4
			c-0.2-0.1-0.5-0.1-0.7-0.1c-0.4,0-0.9,0-1.3,0.1c-0.4,0-0.8,0-1.2,0c-0.6,0-1.2,0-1.8,0c-0.6,0-1.2,0-1.8,0
			c-0.2,0-0.4,0.1-0.6,0.2c-0.2,0.1-0.2,0.3-0.2,0.6v0.2l0,0.1c0,0,0,0.1,0,0.1v0.1v0.1v0.1c0,0,0,0.1,0,0.1v0.2c0,0.2,0,0.3,0,0.4
			c0,0.1,0,0.3,0,0.4v1.9c0,0.2,0,0.5,0,0.7c0,0.3,0,0.5,0,0.8c0,0.3,0,0.5,0,0.8c0,0.2,0.1,0.5,0.1,0.8c-0.1,0.2-0.2,0.4-0.2,0.6
			c0,0.3,0,0.5,0.2,0.7c0,0,0,0.1,0,0.1c0,0,0,0,0,0.1c0,0,0,0.1,0,0.2c0,0.4,0,0.8,0,1.3c0,0.5,0,1.1,0,1.6c0,0.4,0,0.8,0,1.2
			c0,0.4,0,0.6-0.1,0.8c-0.9-0.2-1.8-0.3-2.7-0.5c-0.9-0.1-1.8-0.2-2.8-0.2c-0.5,0-0.9,0-1.4,0.1c-0.5,0.1-1,0.1-1.4,0.2
			c-0.5,0.1-0.9,0.2-1.3,0.3c-0.4,0.1-0.9,0.2-1.3,0.2c-0.1-0.2-0.1-0.3-0.1-0.4c0-0.2,0-0.3,0.2-0.4l0-0.1v-0.1
			c0-0.1,0-0.3-0.1-0.4c0-0.1-0.1-0.2-0.1-0.3c0-0.5,0-1,0-1.5c0-0.5,0-1,0-1.5c0-0.1,0-0.3,0-0.4c0-0.1,0-0.2,0-0.3v-0.4
			c0-0.1,0-0.1,0-0.1c0,0,0-0.1,0-0.1c0-0.1,0-0.2,0-0.3c0-0.1,0-0.2,0-0.3l0-0.1c0,0,0-0.1,0-0.1c0,0,0,0,0-0.1c0,0,0-0.1,0-0.2
			c0-0.3,0-0.6,0-0.9c0-0.3-0.1-0.6-0.1-0.9l0.1-0.1l0.2-0.1l-0.2-0.2c0,0,0-0.1,0-0.1c0-0.1,0-0.1,0-0.2c0-0.1,0-0.2,0-0.3
			s0-0.2-0.1-0.4v-0.1c0,0,0-0.1,0-0.2v-2.1c0-0.2,0-0.3,0-0.4l0.1-0.2v-0.2v-0.2v-0.1l-0.1-0.1c-0.2-0.1-0.4-0.2-0.6-0.3
			c-0.2-0.1-0.4-0.1-0.6-0.1c-0.4,0-0.9,0-1.3,0.1c-0.4,0-0.8,0-1.3,0H229c-0.4,0-0.7,0-1,0c-0.3,0-0.7-0.1-1-0.1
			c-0.3,0-0.5,0.1-0.6,0.4c-0.1,0.3-0.2,0.5-0.2,0.6v0.1c0,0,0,0.1,0,0.2c0,0,0,0.1,0,0.1v0.1c0,0.1,0,0.3,0,0.4s0,0.2,0,0.4
			c0,0.1,0,0.1,0,0.2c0,0.1,0,0.1,0,0.2c0,0.1,0,0.2,0,0.3c0.1,0.3,0.1,0.4,0.1,0.5c0,0.2,0,0.4,0,0.6c0,0.2-0.1,0.4-0.1,0.6
			c0,0.1,0,0.1,0,0.2s0,0.2,0.1,0.4v0.3v0.1c0,0.1-0.1,0.1-0.1,0.2c0,0.1,0,0.1,0,0.2c0,0.1,0,0.1,0,0.2c0,0.1,0,0.2,0,0.2
			c0,0.1,0,0.2,0,0.3c0,0.1,0,0.1,0,0.1c0,0,0,0.1,0,0.2c0,0.1,0.1,0.3,0.1,0.5c0,0.1,0,0.2,0,0.3c0,0.1,0,0.2,0,0.4
			c0,0.1,0,0.3,0,0.4c0,0.1,0,0.2,0,0.4c0,0.2,0,0.3-0.1,0.5c0,0.2,0,0.4,0,0.6v0.2c0,0,0,0.1,0,0.2c0,0,0.1,0.1,0.1,0.2v0.1
			c0,0.3,0,0.5,0,0.8c0,0.3,0,0.5,0,0.8c0,0.2,0,0.4,0,0.6c0,0.2,0,0.4,0,0.6c0,0.2,0,0.3,0,0.5c0,0.2,0,0.4,0,0.5
			c0,0.1,0,0.3,0,0.4c0,0.1,0,0.2,0,0.4v2.4c0,0.5,0,1,0,1.5c0,0.5,0,0.8,0.1,0.9h0v0.2c0,0.1,0,0.3,0,0.4c0,0.1,0,0.3,0,0.4v3.3
			v1.8v1.1c0,0.2,0,0.3,0,0.4v0.1v0.2c0,0.1,0,0.1,0.1,0.1l-0.1,0.1l-0.2,0.2l0.3,0.2c-0.1,0-0.1,0.1-0.1,0.3c0,0.1,0,0.2,0,0.2v0.1
			l-0.2,0.1l0.1,0.1c0,0.1,0,0.2,0,0.3c0,0.1-0.1,0.2-0.1,0.3c0,0.1,0,0.2,0,0.3c0,0.5,0,1,0.1,1.5c0,0.5,0,1,0,1.5
			c0,0.3,0.2,0.5,0.4,0.7h0.1h0.1c0.1,0,0.1,0,0.1,0s0.1,0,0.2-0.1c0.2,0.1,0.4,0.1,0.4,0.1c0.2,0.1,0.4,0.1,0.6,0.1
			c0.8,0,1.5,0,2.2,0c0.7,0,1.5,0,2.2-0.1c0.3,0,0.5,0,0.8-0.1c0.2-0.1,0.5-0.1,0.8-0.1l0.2,0v-0.6v-2.4v-0.2c0,0,0,0,0,0
			c0,0,0,0,0-0.1v-0.1c0-0.1,0-0.1,0.1-0.1v-0.2c0-0.1,0-0.1,0-0.2c0-0.1,0-0.1,0-0.1l0,0c0,0,0-0.1,0-0.1c0,0,0-0.1,0.1-0.1v-0.1
			c0-0.4,0-0.7,0-1.1c0-0.4,0-0.7,0-1.1c0-0.2,0-0.4-0.1-0.6c0-0.1,0-0.1,0-0.1c0,0,0-0.1,0-0.1v-0.1l0,0l0.1-0.1v-0.1V392
			c0-0.2,0-0.4,0-0.5v-1c0-0.4,0-0.9,0-1.3c0-0.4-0.1-0.9-0.1-1.3c0-0.1,0-0.2,0-0.3c0-0.2,0-0.3,0.1-0.5v-0.5v-0.2v-0.2
			c0,0,0-0.1,0-0.1c0,0,0-0.1,0-0.1l0,0c0-0.1,0-0.1,0.1-0.1c0.1,0,0.1-0.1,0.2-0.1c0.1,0,0.1-0.1,0.2-0.2c0.4-0.2,0.9-0.3,1.3-0.4
			c0.5-0.1,1-0.2,1.5-0.3c0.5-0.1,0.8-0.1,1-0.1c1.1,0,2.2,0,3.2,0.1c1,0.1,2.1,0.2,3.1,0.5c0.1,0.1,0.2,0.3,0.3,0.4
			c0.1,0.2,0.3,0.3,0.4,0.5h-0.1l0,0.2c-0.1,0.5-0.2,1.1-0.2,1.6s0,1.1,0,1.7c0,0.7,0,1.4,0,2.1c0,0.7,0.1,1.4,0.1,2.1
			c0,0.2,0,0.3,0.1,0.4l-0.1,0.1l-0.1,0l0.1,0.5c-0.1,0.2,0,0.4,0,0.5l-0.2,0.1l0,0.2c0,0,0,0.1,0,0.1c0,0,0,0.1,0,0.1
			c0,0.1,0,0.1,0,0.1v0.1c0,0,0,0.1,0,0.1v0.1c0,0-0.1,0.1-0.1,0.2c0,0,0,0.1,0,0.2c0,0.2,0,0.3,0,0.4c0,0.1,0,0.3,0,0.4v1.2v0.7
			c0,0.1,0.1,0.2,0.1,0.3c0,0.1,0.1,0.2,0.1,0.3l0,0.1h0.1c0.3,0,0.6,0.1,0.9,0.1c0.3,0.1,0.6,0.1,0.9,0.1c1,0,2,0,2.9-0.1
			c1,0,1.9-0.1,2.9-0.2h0.3V400v-1.5c0-0.4,0-0.8,0-1.2c0-0.4-0.1-0.8-0.2-1.1l0.1-0.2v-0.1c0-0.4,0-0.8,0.1-1.2c0-0.4,0-0.8,0-1.2
			v-0.2c0-0.1,0-0.1,0-0.1c0,0,0-0.1-0.1-0.1c0-0.1,0-0.1,0-0.2s0-0.1,0-0.2c0,0,0-0.1,0.1-0.2l0.1-0.2l-0.1-0.1
			c0,0-0.1-0.1-0.1-0.2c0-0.3,0-0.6,0-0.9c0-0.3,0-0.6,0-0.9v-2.2l-0.2-0.1h-0.1l0.1-0.1l0.1-0.1c0,0,0-0.1,0-0.1c0,0,0-0.1,0-0.1
			v-2.1c0-0.1,0-0.1,0-0.1c0,0,0,0,0-0.1l-0.1-0.1v0c0-0.1,0-0.1,0-0.2c0,0,0-0.1,0-0.2c0,0,0-0.1,0-0.2c0,0,0-0.1,0-0.2
			c0-0.4,0-0.7,0-1.1c0-0.4,0-0.8,0-1.1c0-0.2,0-0.3,0-0.5s0-0.4,0-0.6c0-0.3,0-0.6-0.1-0.7l0.2-0.2c0-0.1,0-0.1,0.1-0.2
			c0-0.1,0-0.1,0-0.2C254,379.2,254,379.1,253.9,379C253.9,379,253.9,379,253.9,379z"/>
		<path class="st0" d="M318.8,380.9c-0.3-0.3-0.7-0.5-1.1-0.7c-0.6-0.3-1.3-0.5-2-0.8c-2.7-0.9-5.4-1.9-8-3.1
			c-1.1-0.5-2.3-0.9-3.4-1.2c-0.3-0.1-0.8-0.1-1.1-0.1c-0.8,0.2-1,0.9-0.6,1.6c0.2,0.2,0.4,0.4,0.6,0.6c1.3,1.3,2.5,2.6,3.9,4
			c-0.4,0-0.5,0-0.6,0.1c-7.8,0.1-15.6,0.2-23.5,0.4c-0.9,0-1.7,0.1-2.6,0.2c-0.1,0-0.2,0.1-0.3,0.1c-0.1-0.4-0.1-0.8-0.3-1.2
			c-0.1-0.3-0.3-0.5-0.5-0.6c-0.2-0.1-0.4-0.1-0.7-0.1h-2.1c-0.4,0-0.7,0-1.1,0.1c-0.4,0-0.7,0-1.1,0c-0.2,0-0.5,0-0.7,0
			s-0.5,0-0.8,0c-0.4,0-0.8,0-1.2,0.1c-0.4,0.1-0.8,0.1-1.3,0.1c-0.4,0-0.8,0-1.2-0.1c0,0,0-0.1,0-0.1v-0.2c0-0.1,0-0.2,0-0.2
			c0,0,0-0.1,0.1-0.1c0,0,0-0.1,0-0.1v-0.1c0-0.1,0-0.1,0-0.2c0-0.1,0-0.1,0-0.2c0-0.1,0-0.1-0.1-0.1c0,0,0-0.1,0-0.2
			c-0.1-0.3-0.1-0.5-0.1-0.6v-1.6c0-0.3,0-0.5,0-0.7c0-0.2,0-0.5,0-0.7c0-0.2,0-0.4,0-0.6c0-0.2-0.1-0.4-0.1-0.6c0-0.1,0-0.1,0-0.2
			c0,0,0-0.1,0-0.2c0-0.1,0-0.1,0-0.1c0,0,0-0.1,0-0.1v-0.2c0-0.2,0-0.3,0-0.4c0-0.1,0-0.3,0-0.4c-0.1-0.3-0.1-0.5-0.1-0.6
			c0,0,0.1-0.1,0.1-0.1c0,0,0-0.1,0-0.2c0-0.1,0-0.1,0-0.1v-0.1h0c0,0,0.1-0.1,0.2-0.1h0h2.8h1.9c0.3,0,0.5,0,0.8,0
			c0.3,0,0.5-0.1,0.8-0.1c0.5,0,0.9,0,1.3,0c0.4,0,0.9,0,1.3,0h2.2c0.3,0,0.6,0,0.8,0c0.2,0,0.5,0.1,0.8,0.2h0.2h0.3h0.2v-0.2
			c0-0.1,0-0.2,0-0.3c0-0.1,0.1-0.2,0.1-0.3v-1c0-0.3,0-0.5,0-0.7c0-0.2,0-0.5,0-0.7c0-0.2,0-0.3,0-0.5c0-0.2,0-0.3-0.1-0.5
			c-0.1-0.5-0.4-0.7-0.8-0.7h-4c-0.2,0-0.4,0-0.6,0c-0.2,0-0.4,0-0.6,0c-0.6,0-1.1,0-1.7,0c-0.6,0-1.1,0-1.7,0c-1.3,0-2.5,0-3.8,0.1
			c-1.3,0-2.6,0.1-3.9,0.1c-0.5,0-1,0-1.5,0c-0.5,0-1,0-1.5-0.1h-0.1l-0.1,0.1c-0.2,0.2-0.3,0.3-0.3,0.4c0,0.1-0.1,0.3-0.1,0.6
			c0,0.1,0,0.2,0.1,0.3c0,0.1-0.1,0.2-0.1,0.3c0,0.1,0,0.2,0,0.3c0,0.2,0,0.5,0.1,0.7c0.1,0.2,0.1,0.5,0.1,0.7c0,0.3,0,0.6,0,0.9
			c0,0.3,0,0.6,0,0.9v0.2c0,0.1,0,0.1,0,0.1c0,0,0,0,0,0.1v0.3v0.1c0,0-0.1,0.1-0.1,0.2c0,0,0,0.1,0,0.1c0,0,0,0,0,0.1
			c0,0.3,0,0.5,0.1,0.8c0.1,0.3,0.1,0.5,0.1,0.8c0,0.1,0,0.2,0,0.3c0,0.1,0,0.2,0,0.2v0.4c0,0.1,0,0.1,0,0.1c0,0,0,0.1,0,0.1
			c-0.1,0.1-0.1,0.3-0.1,0.4c0,0.1,0,0.3,0,0.4c0,1.7,0,3.4,0,5.1c0,1.7,0,3.4,0,5.1c0,0.1,0,0.1,0,0.1c0,0,0,0.1,0,0.2
			c0.1,0,0.1,0,0.1,0.1h-0.1v0.2c0,0.1,0,0.1,0,0.2c0,0,0,0.1,0,0.2c0,0,0,0.1,0,0.1c0,0,0,0.1,0,0.1v0.2c0,0.9,0,1.9,0,2.8
			c0,0.9,0,1.8,0,2.8v0.8c0,0.1,0,0.2,0,0.3c0,0.1,0,0.2,0.1,0.4c0,0.1,0,0.1-0.1,0.1l-0.1,0.1l0.2,0.3c0,0,0,0.1,0,0.1v0.1v0.1
			l-0.1,0.2l0.2,0.1v0.1c0,0.2-0.1,0.5-0.1,0.7c0,0.2,0,0.4,0,0.6v0.3c0,0.1,0,0.1,0,0.2v0.3v0.2c0,0.1,0,0.1,0,0.2v0.1
			c0,0.2,0,0.3,0,0.4c0,0.1,0,0.3,0,0.4c0,0.1,0,0.2,0,0.3c0,0.1,0,0.2,0,0.3c0,0.2,0,0.4,0.1,0.5l0.1,0.1l0.1,0.1
			c0.5,0.1,1,0.1,1.5,0.1c0.5,0,1,0.1,1.5,0.1h0.2h0.2c0.1,0,0.1,0,0.1,0h0.1h0.1c0.4,0,0.7,0,1.1,0c0.4,0,0.8,0,1.1,0
			c1.2,0,2.3,0,3.4,0.1c1.1,0.1,2.3,0.1,3.4,0.1c0.5,0,1.1,0,1.6-0.1c0.5-0.1,1-0.1,1.5-0.1c0.3,0,0.5,0,0.8,0.1c0.3,0,0.6,0,0.8,0
			c0.3,0,0.5,0,0.8,0c0.3,0,0.6,0,0.8-0.1c0.1,0,0.1,0,0.2,0c0.1,0,0.1,0,0.1,0c0.1,0,0.2,0,0.3-0.1c0.2-0.1,0.2-0.3,0.2-0.6v-1.3
			v-1.4c0-0.1-0.1-0.3-0.1-0.4c0-0.1-0.1-0.3-0.1-0.4c0-0.1,0-0.2-0.1-0.3c-0.1-0.1-0.2-0.2-0.4-0.2c-0.2,0-0.5,0-0.7,0
			c-0.2,0-0.4,0-0.7,0c-0.4,0-0.7,0-1.1,0c-0.4,0-0.7-0.1-1.1-0.1c-1.2,0-2.3-0.1-3.5-0.1c-1.2,0-2.3,0-3.5,0c-0.2,0-0.3,0-0.5,0
			c-0.1,0-0.3-0.1-0.4-0.1c-0.1,0-0.2,0-0.3,0.1c-0.1,0-0.2,0-0.2,0c-0.1,0-0.3,0-0.4-0.1c-0.1,0-0.2,0-0.2,0h-0.2v-1.2
			c0-0.2,0-0.4,0-0.6c0-0.2,0.1-0.4,0.1-0.5v-0.3c0-0.1,0-0.1-0.1-0.1c0,0,0-0.1,0-0.1c0-0.1,0-0.2,0-0.4c0-0.3,0-0.5,0-0.7
			c0-0.2,0-0.5,0-0.7c0-0.5,0-0.9,0-1.4c0-0.5,0-1,0-1.5v-0.3H269l0.1-0.1v-2.6h0c0.3,0,0.5,0,0.7,0c0.2,0,0.5,0.1,0.7,0.1
			c0.7,0,1.3,0,2-0.1c0.7,0,1.4,0,2,0c0.7,0,1.5,0,2.2-0.1c0.7,0,1.4,0,2.1,0h0.3c0.1,0,0.2,0,0.3-0.1c0.1,0,0.2-0.2,0.3-0.3
			c0.3,0,0.6,0,0.9,0c8.4-0.2,16.8-0.4,25.2-0.6c0.3,0,0.6,0,1,0c-0.3,0.3-0.4,0.5-0.6,0.7c-0.9,1.1-1.8,2.1-2.7,3.2
			c-0.3,0.4-0.5,0.8-0.2,1.2c0.2,0.4,0.6,0.6,1.1,0.6c0.4,0,0.7-0.1,1-0.2c3.4-1.4,6.8-2.8,10.1-4.2c1.1-0.5,2-1.2,3-1.9
			C319.4,382.3,319.4,381.4,318.8,380.9z M269,370.8L269,370.8l-0.2,0C268.9,370.8,269,370.8,269,370.8z"/>
	</g>
</g>
</svg>
