<?xml version="1.0" encoding="utf-8"?>
<!-- Generator: Adobe Illustrator 22.0.0, SVG Export Plug-In . SVG Version: 6.00 Build 0)  -->
<svg version="1.1" id="Layer_1" xmlns="http://www.w3.org/2000/svg" xmlns:xlink="http://www.w3.org/1999/xlink" x="0px" y="0px"
	 viewBox="0 0 500 500" style="enable-background:new 0 0 500 500;" xml:space="preserve">
<style type="text/css">
	.st0{fill:#0C0C0C;}
</style>
<g>
	<path class="st0" d="M139,269.2c0.4,0,0.8,0,1.1,0c2.2-0.4,4.4-0.7,6.6-0.6c0.8,0,1.6,0,2.3,0.2c1.4,0.2,2.4,1.1,3.1,2.2
		c0.6,0.9,0.4,1.8-0.3,2.6c-1.4,1.5-3.2,2.6-5.2,3.3c-0.3,0.1-0.5,0.2-0.8,0.3c-2.5,1-5.2,1.7-7.9,2.2c-1.7,0.3-3.4,0.5-5.1,0.7
		c-0.3,0-0.6,0.1-1,0.1c-0.6,0-1-0.2-1.5-0.5c-1-0.8-1.5-1.8-1.6-3c-0.4-3.7-0.3-7.5,0.1-11.2c0.2-1.3,0.5-2.6,1-3.8
		c0.4-1,1-1.8,1.6-2.6c0.9-1.1,2.5-1.5,3.8-1c0.3,0.1,0.6,0.3,0.9,0.6c0.4,0.4,0.7,0.8,1.1,1.2c0.7,0.8,1.2,1.7,1.4,2.7
		c0.3,1.2,0.3,2.5,0.3,3.7c0,0.6-0.1,1.2-0.1,1.8C138.9,268.3,139,268.7,139,269.2z"/>
	<path class="st0" d="M118.2,253.5c0.3-0.1,0.5-0.2,0.7-0.3c1.2-0.9,2.5-1.7,3.9-2.3c0.5-0.2,1-0.4,1.5-0.6c0.9-0.3,1.8,0,2.6,0.5
		c0.6,0.4,0.8,1,0.6,1.7c-0.5,1.4-1.2,2.6-2.3,3.6c-0.1,0.1-0.3,0.3-0.4,0.4c-1.3,1.4-2.7,2.6-4.3,3.7c-1,0.7-2,1.3-3,1.9
		c-0.2,0.1-0.4,0.2-0.6,0.3c-0.3,0.2-0.7,0.2-1.1,0.1c-0.8-0.2-1.5-0.7-1.9-1.4c-1.3-2.2-2.3-4.6-3.1-7c-0.3-0.9-0.4-1.8-0.5-2.7
		c-0.1-0.7,0.1-1.4,0.2-2.1c0.2-0.9,1.1-1.7,2.1-1.7c0.2,0,0.5,0,0.7,0.1c0.3,0.1,0.7,0.3,1,0.4c0.7,0.3,1.2,0.7,1.7,1.3
		c0.5,0.7,0.9,1.4,1.3,2.2c0.2,0.4,0.3,0.8,0.5,1.2C117.8,252.9,118,253.1,118.2,253.5z"/>
	<path class="st0" d="M95.3,271.3c0-0.4,0.1-0.7,0.1-1.1c-0.1-2.2-0.1-4.4,0.3-6.6c0.1-0.8,0.2-1.5,0.5-2.3c0.4-1.3,1.4-2.2,2.6-2.8
		c1-0.5,1.9-0.2,2.6,0.7c1.3,1.6,2.2,3.5,2.6,5.6c0.1,0.3,0.1,0.6,0.2,0.8c0.7,2.7,1,5.4,1.1,8.1c0.1,1.7,0,3.4,0,5.1
		c0,0.3,0,0.6-0.1,1c-0.1,0.5-0.3,1-0.7,1.4c-0.9,0.9-2,1.2-3.2,1.2c-3.7-0.1-7.4-0.7-11.1-1.7c-1.3-0.3-2.5-0.9-3.6-1.5
		c-0.9-0.5-1.7-1.2-2.4-1.9c-1-1-1.2-2.7-0.5-3.9c0.2-0.3,0.4-0.6,0.7-0.8c0.4-0.3,0.9-0.6,1.3-0.9c0.9-0.6,1.8-1,2.9-1
		c1.3-0.1,2.5,0,3.7,0.2c0.6,0.1,1.2,0.2,1.8,0.3C94.4,271.2,94.8,271.2,95.3,271.3z"/>
	<path class="st0" d="M422.9,364.9c-1.6,0-3.5,1.1-4.8,3.8c-2.2,4.2-4.6,7.9-8.2,12.2c-3,3.5-5.7,6.1-6.3,6.1
		c0-1.1,4.1-15.8,4.8-18.2c1.6-6,2.4-9.4,3.8-15l1.5-6.4l0.1-1.1c0-2.2-2.2-3.3-4.2-3.3c-0.8,0-1.8,0.1-2.4,0.5
		c-2,1-3.1,2.6-6.4,9.5c-0.7,1.6-2.2,4.5-3.3,6.3c-5.6,9.2-9.8,18.8-16.9,27.3c-3.5,4.2-5.7,6.1-6.8,6.1c-0.8,0-1.1-1-1.1-2.4
		c0-2.2,0.5-5.4,1.4-9.7c0.8-4.6,3.4-13.6,6.7-23.5l2-6.4c0.4-1.4,0.5-2.4,0.5-3.4c0-2.7-1.5-3.9-3.4-3.9c-1.4,0-3,0.7-4.4,2
		c-1.6,1.5-4.8,8-7.5,15.2c-0.7,0.4-1.5,0.9-2.5,1.6c-1.9,1.5-5,3.3-5.6,3.3l0.3-2.2c0.7-2.9,1.1-5.4,1.1-7.8c0-8-4.1-12.6-9.8-12.6
		c-5.7,0-13.2,5-19.4,16c-1.2,2-3,5-4.1,6.7l-3.1,5.2c0-0.5,1.8-5.7,3.8-11.8c3.4-10.1,4.8-14.7,4.8-17.4c0-1.5-0.5-2.4-1.4-3.3
		c-1-1-1.4-1.2-2.4-1.2c-3,0-5,2-8.2,7.9c-2.9,5.5-6.6,14.5-10.1,24.5c-1.8,4.4-8.5,18-11.8,24c-2,3.8-3.9,6.9-5,6.9
		c-0.4,0-0.7-0.8-0.7-2.4c0-1.1,0.1-2.9,0.4-5c0.5-4.8,1.8-10.9,3-15.5c1.5-4.8,3.9-12.1,6.9-19.9c3.4-8.7,4.9-12.6,4.9-14.8
		c0-1.2-0.7-1.9-1.6-2.4c-0.7-0.4-1.4-0.5-2.2-0.5c-1.8,0-3.7,1-5,3c-0.5,0.8-5,5.8-5,6.3c-0.1,0-0.4-0.7-0.8-1.6
		c-2.6-5-7.1-7.1-12-7.1c-3,0-6,0.7-8.7,2c-8.3,4.1-15.7,15.7-18.7,26.2c-0.7,1.7-1.5,3.7-2.5,6.1c-4.4,11.2-7.3,17.3-10.7,22.4
		c-2.9,4.2-4.8,5.8-5.8,5.8s-1.6-1.6-1.6-4.1c0-3.3,0.8-7.6,1.6-10.5c2.7-10.6,5-17.1,11.4-33.3c2-5.3,3.7-10.7,3.7-14.7
		c0-3.3-1.2-5.6-4.1-5.6c-2.2,0-5.4,1.4-9.9,4.4c-1.5,1-9.1,5.3-10.7,5.3c0,0,0.3-1.5,0.8-3.3c0.8-2.7,1.1-5.4,1.1-7.8
		c0-1.6-0.1-2.9-0.4-3.8c-1-3.1-3.4-4.8-6.9-4.8h-0.8c-6.3,0.4-10.9,6.1-10.9,12c0,4.5,2.9,8.8,9.7,10.9c0.8,0.1,1.4,0.4,1.5,0.4
		s0.1,0.1,0.1,0.4c0,2.9-8.7,18.4-10.5,21.5c-6.4,11.2-12.4,16.6-20.5,19.2c-1.2,0.4-2.2,0.5-3.1,0.5c-4.6,0-4.9-4.9-4.9-9.5v-1.9
		l3.1-1.1c8.4-3,23.4-16.5,23.4-27.1c0-3.4-1.5-6.4-5-8.7c-2.4-1.6-5-2.3-7.5-2.3c-13.9,0-26.9,22.3-26.9,38.5c0,2,0.2,3.8,0.6,5.6
		c-2.4,5.3-4.8,9.9-7.1,13.7c-4.8,8.4-7.5,11.4-8.7,11.4c-0.4,0-0.7-0.5-0.7-1.6c0-5.5,6.2-23.9,8.4-30.3c4.1-12.5,5.5-18,5.9-24.2
		l0.1-2c0-2.5-0.4-4.1-1.2-6.1c-1.4-3.4-4.3-5.5-7.6-6.1c-0.8-0.2-1.7-0.2-2.5-0.2c-4.3,0-8.2,2.3-11.3,5.9c-3.9,4.8-6.9,11-12.7,26
		c-3,7.7-4.4,11.4-4.6,11.4v-0.4l1.1-5.5c1.9-10.5,6.9-31,9.8-41c2.2-6.8,2.2-7.7,3-10.9l2.8-0.4c2.9-0.5,6.4-1.8,9.3-3.6
		c4.7-2.7,12.3-10.2,14.6-14.3c2.1-3.6,3.3-8,3.3-12.1c0-5-1.8-9.6-6.6-11.9c-1.5-0.7-3.3-1.1-5.3-1.1c-3.2,0-6.6,1.1-9.8,2.9
		c-7.6,4.6-13.7,15.5-19.5,32.2l-14.8-9.1c0-0.2,1-3.2,2.3-6.9c1.2-3.6,2.2-6.1,2.8-8c0.6-1.8,0.8-3.4,0.8-4.6c0-3.6-1.9-5-4.3-5
		c-2.3,0-4.8,1.2-6.4,3.4c-3.5,5-4.8,9.4-8,15.5l-1.9-0.4l-4.6-0.2c-7.9,0-17.8,2.3-21.4,9.6c-0.6,1.1-0.7,2-0.7,3
		c0,3.7,3.3,7.3,6.5,7.3c1.4,0,2.6-0.5,3.6-2c2.2-3,4.4-5,7.3-6.8c2.2-1.4,6.1-2.7,7.5-2.7c0.3,0,0.4,0.2,0.4,0.2
		c0,0.2-0.8,2.7-2.1,5.7c-9.1,24.6-15.3,50.6-16.4,68.9l-0.3,6.6c0,6.6,1,13,4.3,18.5c2.6,4.5,6.1,7.5,10.4,7.5c1.8,0,3.7-0.5,5.8-2
		c8-5.2,10.5-17.8,15.1-23.5c0,0,0.1,1.6,0.1,3.9v0.4c0,6.2,4,10.2,7,10.2c1.5,0,2.6-0.7,3.3-2.5l13.4-34.9
		c3.7-9.3,6.5-14.6,9.5-18.7c3.2-3.9,5.4-5.9,6.8-5.9c1,0,1.5,1.1,1.5,3c0,1.6-0.4,3.9-1.1,6.9c-1.4,5.7-4.1,15.1-9.4,32.6
		c-0.8,3.2-2.2,7.5-2.9,11.8c-0.1,1.1-0.1,2-0.1,2.9c0,7.8,4.4,13.7,9.7,13.7c1.4,0,2.9-0.5,4.3-1.4c4.6-2.9,9.7-10,15.5-21.5
		c2.4,2,5.6,3.2,10,3.2c2,0,4.2-0.1,6.7-0.7c9.1-2,16.2-8.2,21.6-15.6c6.4-8.7,9.7-18.8,12.9-28.8c3.3-0.4,6-0.7,9-1.8l3.3-1
		c0,0.1-1,2.6-2.3,5.6c-6.3,14.7-9.4,23.8-11.4,33.2c-0.5,2.3-0.7,4.5-0.7,6.5c0,10.1,5.6,15.9,12,15.9c4.5,0,9.2-2.7,13.1-8.6
		c2.2-3.4,4.5-8,7-13.8c1.4,5,4.4,7.3,8.2,7.3c6,0,13.9-6.1,19.6-16.2l3.9-6.8l2.6-4.1c0.3-0.5,0.7-1,0.7-1v0.1c0,0.3-0.4,1.5-1,3
		c-3.7,10.1-5.6,18.9-5.6,25.4c0,1.8,0.1,3.4,0.4,4.9c0.4,1.5,0.8,2.7,1.4,3.7c0.8,1.4,2.4,2.4,4.4,2.9c1.1,0.3,2,0.3,3,0.3
		c3.7,0,6.5-1.5,8.8-3.8c0.9-1,1.8-2.1,2.6-3.3c-1.4,6.9-2.3,13.5-2.3,19.1c0,3.7,0.4,6.9,1.2,9.5c1.6,5,5.2,5.7,10.3,5.7
		c0.1-7.1,0.3-12.4,1.2-19.3c1.4-8.4,3.1-17,5.4-24.8l0.1-0.4c0.3,0,0.5,0.4,1.1,1.5c2.7,4.4,6.7,6,10.9,6c5.4,0,11.4-3,15.4-6.9
		c4.2-4.1,9-11.4,11.2-17.3c0.1-0.4,0.4-0.7,0.7-0.7c0.8,0,4.5-1.3,6.9-2.5c-0.2,0.6-0.4,1.3-0.6,1.9c-1.8,5.7-2.6,10.9-2.6,15.2
		c0,8.4,3.1,13.5,8.3,13.5c5.3,0,12.6-5.4,20.7-18.4c1.8-2.9,3.1-5,3.3-5c0,0-0.4,1.4-0.7,2.9c-0.8,2.7-3.9,15.9-4.6,19.2l-0.4,1.6
		l-6.3,5c-19.7,15.8-26.8,29-26.8,37.3c0,6.3,4.1,9.8,9.7,9.8c4.8,0,10.6-2.6,16.2-8.3c5.4-5.6,9.7-13.5,13.5-24.8
		c1.9-5.3,4.5-14.4,5.7-20.7l3.7-3c4.2-3.4,6.3-5.4,10.7-10.9c5.4-6.8,7.6-9.9,9.5-13.7c0.3-0.7,0.4-1.4,0.4-1.9
		C425.3,365.9,424.3,364.9,422.9,364.9z M149.9,301.1c2.6-5.2,6.4-10,9.1-11.6c1-0.5,1.7-0.7,2.1-0.7c0.8,0,1.2,0.5,1.2,1.6
		c0,5-7.2,18.5-15.1,23.5c-1.8,1.2-2.8,1.8-3.2,1.8l-0.1-0.2C143.9,314.7,148.2,304.1,149.9,301.1z M118,365.4
		c-1.5,10.2-15.9,45.3-22.9,45.3c-1.5,0-2.8-1.8-3.3-6.1c-0.3-1.4-0.3-3.2-0.3-5c0-5.5,0.7-11.6,1.2-16.4c1-6.9,2.2-13,4.4-22.3
		c3.3-13.9,5.8-21.9,12.4-40.4l3.5-9.1l7.9,4.5c5.4,3.2,5.8,3.6,7.7,4.3l-0.8,2.9C123.8,336,120.2,351.9,118,365.4z M199.2,346
		c1.2,0,1.9,1.2,1.9,3.3c0,2-0.7,5-2.3,8.8c-2.2,4.9-6.1,9.8-10.2,12.5c-2.2,1.6-3.8,2.3-6.4,3.7l0.1-1.4c0.4-3,3.8-12.5,5.4-15.1
		C192.8,349.7,196.9,346,199.2,346z M222.6,341c-0.3,1.1-0.7,2.2-0.8,2.2c0,0-0.5-0.5-0.8-1.2c-0.5-1-0.7-2.6-0.7-4.2
		c0-3.5,0.8-7.6,1.6-7.6c0.1,0,0.3,0,0.4,0.3c0.5,1.1,1,2.9,1,4.9C223.2,336.9,223,338.8,222.6,341z M290.3,355c0,1-0.1,1.2-0.8,2.3
		c-1.9,2.7-18.6,30.1-23.5,30.1c-0.8,0-1.2-0.8-1.2-2.7c0-1.6,0.4-4.1,1.2-7.6c3.3-13.7,10.9-27.2,17.4-31c0.8-0.4,1.5-0.7,2-0.7
		c3.3,0,4.6,5.4,4.9,8.4V355z M331.2,389.3c-0.8,0.4-1.5,0.7-2,0.7c-2.6,0-3.9-3.3-3.9-5.4l0.1-1c1.1-3.7,5.8-7.5,12-9.2
		c2.4-0.7,5.3-1.4,5.8-1.4h0.1l0.1,0.3C343.5,375.4,334.4,387.5,331.2,389.3z M348.6,358.3c-1,3.9-3,10.2-3.4,10.5
		c-0.3,0.3-1.1,0.5-2,0.7c-5.4,1.2-11.4,3.1-13.7,4.4l-1.6,0.7c0-0.7,11.4-16.7,15.9-22.2c2.7-3.4,4.5-4.8,5.4-4.8
		c0.7,0,1,0.8,1,2.2C350.1,351.6,349.5,355,348.6,358.3z M384.1,415.8c-2.9,8.2-5.7,14-9.7,19.4c-4.9,6.9-8.6,9.8-10.7,9.8
		c-1.5,0-2.3-1.4-2.3-3.7c0-6.3,5.8-19.2,18.8-29.5c4.2-3.5,6.3-5,6.5-5l0.1,0.1C386.9,407.6,385.6,411.8,384.1,415.8z"/>
	<g>
		<path class="st0" d="M118.3,189.5c-0.3-1.8-0.8-3.8-1.5-5.8c-0.7-2-1.7-3.7-3-5c-1.4-1.3-3.3-1.7-5.7-1.3
			c-2.6,0.7-4.5,3.1-5.6,7.2c-1.1,4.1-1.6,8.5-1.4,13.3c0.2,4.8,0.7,9.1,1.4,12.8c0.3,1.6,0.7,3.2,1.1,4.8c1.4,5.2,3.2,9.3,5.5,12.2
			c2.3,2.9,4.7,4.1,7.5,3.5c0.3-0.1,0.7-0.1,1-0.2c2-0.9,3.4-2.3,4.1-4.4c0.7-2.1,1-4.1,0.9-6.1c-0.1-1.9-0.2-3.5-0.4-4.7
			c-0.1-0.4-0.1-0.8-0.2-1.1c-0.2-1.4,0.3-2.4,1.4-2.9c1.1-0.5,2.1-0.8,2.9-1c0.8-0.1,1.6-0.2,2.5-0.1c1.7,0.1,2.8,0.7,3.1,1.7
			c0.2,0.8,0.4,1.6,0.6,2.5c0.4,2.5,0.5,5.3,0.3,8.2c-0.3,4.1-1.6,7.9-3.8,11.3c-2.3,3.4-6.1,5.8-11.5,7.1c-5.7,1-10.7,0.2-15.1-2.6
			c-4.4-2.8-8-6.6-10.7-11.5c-2.7-4.9-4.6-10-5.8-15.3c-0.2-0.9-0.4-1.9-0.6-2.8c-1.1-6.4-1.2-12.6-0.1-18.7c1-6,3.3-11.1,6.8-15.1
			c3.5-4.1,8.1-6.7,13.6-7.7c0.5-0.1,1-0.2,1.6-0.2c4.9-0.5,8.9,0.3,12.1,2.3c3.2,2,5.5,4.5,6.9,7.5c1.4,3.1,2.3,6,2.8,8.9
			c0.2,1.2,0.3,2.3,0.4,3.6c-0.1,1.2-0.6,2.1-1.8,2.6c-1.2,0.5-2.2,0.8-3,0.9c-0.8,0.1-1.7,0.2-2.5,0.1c-1.7,0-2.8-0.6-3.1-1.5
			C118.7,191.2,118.5,190.5,118.3,189.5z"/>
		<path class="st0" d="M137.5,202.7c0.2-4.7,0.7-9.8,1.5-15.2c0.8-5.4,1.9-10.4,3.4-15c1.5-4.5,3.4-7.9,5.7-10
			c1.5-1.2,3.1-2,4.7-2.3c1.6-0.3,2.6-0.5,3-0.6c2.4-0.3,4.7-0.1,7,0.6c2.7,0.8,4.6,2.5,5.7,5.2c2.8,7.7,5,14.7,6.7,21
			c1.7,6.3,3.4,13.2,5.1,20.7c0.1,0.2,0.1,0.4,0.2,0.6c0.6,2.2,0.9,3.8,1.2,4.9c0.2,1.1,0.4,2.2,0.6,3.2c0.1,0.9,0.4,2,0.7,3.5
			c0.3,1.4,0.7,3.5,1.3,6.2c0,0.2,0,0.3,0,0.5c0.2,1.7-0.3,3.1-1.5,4.2c-1.2,1.2-2.4,1.9-3.7,2.2c-1.2,0.3-2.1,0.5-2.7,0.5
			c-1.2,0.1-2.3,0.1-3.4-0.1c-1.6-0.3-2.5-1-2.8-2.1c-0.1-0.3-0.2-0.9-0.3-1.7c-0.1-0.8-0.3-1.7-0.6-2.8c-0.3-1.5-0.6-3-0.8-4.4
			c-0.3-1.4-0.5-2.4-0.6-2.9c-0.3-1.1-0.7-1.7-1.2-1.8c-0.6-0.1-1.2-0.1-2,0c-0.6,0.1-1.4,0.2-2.3,0.4c-0.7,0.1-1.5,0.3-2.3,0.4
			c-1,0.2-2.2,0.4-3.8,0.8c-1.6,0.4-3.2,0.8-4.6,1.3c-1.5,0.5-2.5,1.2-3.2,1.8c-0.3,0.9-0.3,2.4-0.2,4.6c0.2,2.2,0.4,4.2,0.6,5.8
			c0.1,0.7,0.1,1.2,0.2,1.5c0,1.3-0.6,2.2-1.9,2.7c-1.3,0.6-2.3,0.9-3.2,1c-0.8,0.1-1.7,0.2-2.5,0c-1.8-0.2-2.8-0.9-3.1-2.3
			c-0.7-5.1-1-10.8-1.1-17c0-1.8-0.1-3.6-0.2-5.1C137.1,211,137.2,207.4,137.5,202.7z M156.5,175.9c-1.3-1.9-2.4-2.8-3.2-2.7
			c-0.5,0.1-1,0.5-1.5,1.2c-1.2,1.9-2.1,4.9-2.7,9.1c-0.7,4.3-1.2,8.8-1.4,13.5c-0.3,4.8-0.3,8.9-0.2,12.3c0,0.1,0,0.3,0,0.4
			c0,0.5,0,0.9,0.1,1.4c0.1,0.5,0.2,0.9,0.3,1.2c0.2,0.6,0.8,0.8,1.7,0.7c0.1,0,0.3,0,0.4-0.1c5.3-1.2,9.1-2.4,11.2-3.6
			c2.1-1.3,3.2-2.6,3.1-4.1c-0.1-1.5-0.1-2.4-0.2-2.9c-0.3-2.4-1-5.6-2.2-9.6c-0.1-0.3-0.2-0.7-0.3-1.1
			C159.5,183.1,157.8,177.9,156.5,175.9z"/>
		<path class="st0" d="M220.9,226.3c-0.9,0.3-1.6,0.4-2.2,0.5c-0.7,0-1.3,0-2-0.2c-1.2-0.4-2.1-1.1-2.6-2.2
			c-0.8-2.3-1.8-5.3-2.9-9.2c-1.1-3.8-2.2-7.8-3.3-11.9c-1-3.7-1.9-6.9-2.7-9.8c-0.8-2.8-1.4-4.6-1.8-5.4c-0.4-0.8-0.6-1.1-0.8-1.1
			c-0.2,0-0.3,0.5-0.3,1.5c-0.1,5.7,0,12.5,0.1,20.5c0.1,8,0.2,14.5,0.4,19.3c-0.1,1.3-0.9,2.2-2.4,2.6c-1.5,0.4-2.7,0.6-3.5,0.7
			c-1.3,0.1-2.7,0-4.1-0.2c-2.2-0.4-3.5-1.5-3.7-3.1c-0.9-12.3-1.3-25-1.2-37.9c0-7.9,0-15.7-0.2-23.5c-0.1-1.4,0-2.8,0.1-4.1
			c0.2-1.3,0.5-2.4,1.1-3.1c1.2-1.3,2.6-2.2,4.2-2.6c1.6-0.4,2.9-0.6,3.9-0.7c1.2-0.1,2.4-0.1,3.5,0.1c2.1,0.3,3.3,1.2,3.9,2.4
			c0.7,2.5,1.7,5.9,2.9,10.3c1.2,4.5,2.4,9.2,3.7,14.2c2.2,8.8,4,15.5,5.2,20.3c0.1,0,0.4-1.6,0.9-4.8c0.5-3.3,1.1-7.3,1.8-12.1
			c0.8-5.2,1.6-10.1,2.4-14.8c0.8-4.7,1.4-8,1.8-10.1c0.6-3,1.3-5,2.2-6c0.9-1.1,2.7-1.6,5.3-1.7c0.4,0,0.8,0,1.2,0
			c2.8,0.1,4.6,0.7,5.4,2c0.7,1.3,1.1,3,1.3,5.1c0,0.1,0,0.2,0,0.3c0.7,6.1,1.6,15.6,2.7,28.6c0.7,7.3,1.2,14.3,1.9,20.9
			c0.6,6.6,1,11.7,1.4,15.3c0,0,0,0.1,0,0.1c0,1.6-0.8,2.7-2.3,3.3c-1,0.4-2,0.6-3,0.6c-0.7,0-1.3-0.1-1.9-0.2
			c-1.7-0.4-2.6-1.2-2.9-2.6c-0.4-4.6-0.7-9.6-1-14.9c-0.5-8.5-1.1-16.1-1.9-22.9c-0.1-1-0.2-1.8-0.4-2.3c-0.2-0.5-0.3-0.8-0.5-0.9
			c-0.2-0.1-0.3-0.2-0.4-0.2c0,0-0.2,0-0.2,0.1c-0.1,0.1-0.2,0.1-0.3,0.3c-0.1,0.1-0.2,0.3-0.2,0.3c-0.6,2-1.3,5.3-2.1,9.8
			c-0.9,4.6-1.7,9.4-2.5,14.5c-0.8,5.1-1.4,9.2-1.9,12.6C222.4,225.2,221.8,226,220.9,226.3z"/>
		<path class="st0" d="M253.8,229c-1,0-1.7-0.9-2-2.6c-0.3-1.7-0.6-3.7-0.6-6.1c-0.1-1-0.1-1.9-0.2-2.9c-0.2-2.2-0.5-6.7-0.9-13.6
			c-0.4-6.9-0.5-13.4-0.6-19.5c0-2.5,0-5,0-7.6c0.1-8.7,0.9-15.1,2.5-19.2c0.9-2.3,3.2-3.5,6.8-3.5c0.1,0,0.2,0,0.3,0
			c11.5,0.8,20,3.5,25.4,7.8c5.3,4.4,7.9,8.1,7.8,11.2c-0.1,3.1-0.1,4.8-0.1,5.1c-0.3,5.7-2.6,11.3-6.9,16.9
			c-4.5,5.9-10.7,10.9-18.5,15.2c0,0,0,0,0,0c-0.6,0.3-1.1,0.6-1.4,1c-0.3,0.4-0.4,1-0.4,1.8c0,0.1,0,0.2,0,0.3c0,1,0.1,2.6,0.3,4.8
			c0,0.9,0.1,1.9,0.2,3c0.1,1.1,0.2,2.1,0.1,3c0,0.8-0.1,1.5-0.2,2.2c-0.2,1.4-0.9,2.1-2,2.2C260.2,228.7,257,228.8,253.8,229z
			 M264,177c-0.3,4-0.5,7.7-0.5,11c0,0.8,0,1.6,0,2.4c0,4,0.1,6.5,0.1,7.6c0.1,0.9,0.5,1.4,1.2,1.4c0.3,0,0.6,0,1-0.2
			c4.2-1.5,7.7-4.2,10.7-8.2c2.9-4,4.4-8.2,4.7-12.5c0-3.3-0.9-6.2-2.9-8.5c-1.9-2.4-4.8-3.9-8.7-4.7c-0.4-0.1-0.8-0.1-1.1-0.1
			c-0.5,0-0.9,0-1.2,0.2c-0.6,0.3-1,0.9-1.4,1.8C265,169.6,264.4,172.9,264,177z"/>
		<path class="st0" d="M309.6,226.1c0.1,1.6,0,2.8-0.2,3.7c-0.3,0.9-1.1,1.5-2.3,1.8c-1.3,0.3-3.4,0.4-6.4,0.2
			c-1.9,0-3.2-0.3-3.8-0.8c-0.6-0.5-0.9-1.6-1-3.3c-0.2-3-0.3-6.2-0.3-9.4c0-3.2,0.2-6.4,0.3-9.4c0.4-10.1,1.1-20.3,2-30.4
			c0.1-1.2,0.4-2,0.9-2.7c0.5-0.6,1.4-1,2.6-1c1,0,2.1,0.1,3.3,0.2c0.4,0,0.7,0,1,0.1c0.2,0,0.5,0,0.7,0c0.7,0,1.5,0.1,2.3,0.1
			c0.9,0.1,1.7,0.3,2.4,0.6c0.6,0.3,1.1,0.8,1.2,1.5c0.1,0.5,0.1,1.2,0,2.1c-0.1,0.9-0.2,1.7-0.3,2.5c0,0.4-0.1,0.7-0.1,1.1
			c-1.7,14.2-2.3,28.5-2.1,42.8C309.5,225.7,309.5,225.9,309.6,226.1z M300,156.5c0.4-0.9,1.2-1.6,2.4-1.9c1.2-0.3,3.1-0.4,5.7-0.2
			c3.1,0.3,5.1,0.9,6,2c0.9,1.1,1.1,3.1,0.5,5.7c0,0.3,0,0.6-0.1,0.9c-0.1,1.2-0.3,2.3-0.7,3.4c-0.3,1.1-1.1,1.8-2.1,2.3
			c-1.1,0.3-2.5,0.4-4.4,0.3c-1.9-0.1-3.4-0.3-4.5-0.4c-0.9-0.1-1.6-0.3-2.2-0.6c-0.6-0.3-1.1-0.9-1.4-1.7c0,0,0-0.1,0-0.1
			c-0.1-0.2-0.1-0.4-0.2-0.7c0-0.2-0.1-0.4-0.1-0.7c0-0.2,0-0.4,0-0.7c0.1-1.4,0.2-2.7,0.3-4.1C299.4,158.7,299.6,157.5,300,156.5z"
			/>
		<path class="st0" d="M365.3,162.4c1-0.2,2.1-0.2,3.3,0c1.2,0.2,2.4,0.4,3.5,0.7c0.4,0.1,0.8,0.2,1.1,0.3c1.3,0.3,1.9,0.9,1.9,1.9
			c0,1-0.1,1.9-0.2,2.7c-0.2,1-0.4,2-0.7,3.3c-0.2,1.1-0.5,2.3-0.8,3.5c-1.7,8.9-3.2,17.7-4.6,26.5c-1.2,7.7-2.5,15.3-3.8,23
			c-0.2,1.2-0.4,2.4-0.6,3.4c-0.1,0.8-0.2,1.5-0.3,2.3c-0.4,2.4-0.8,4.1-1.2,5.1c-0.5,1.2-1.5,1.7-2.9,1.5c-0.1,0-0.6,0-1.3-0.1
			c-0.7-0.1-1.6-0.2-2.5-0.3c-0.9-0.1-1.8-0.2-2.5-0.2c-0.7-0.1-1.2-0.1-1.3-0.1c-0.2,0-0.3,0-0.5-0.1c-1.7-0.2-2.9-1.1-3.7-2.5
			c-0.8-1.6-1.3-3.2-1.5-4.8c-0.1-0.4-0.1-0.8-0.2-1.2c-1.1-6.1-2.3-11.8-3.6-17.1c-1.3-5.3-3-11.4-5.1-18.2
			c-0.7-2.2-1.2-3.4-1.5-3.6c-0.3-0.2-0.5-0.3-0.7-0.4c-0.3,0-0.6,0.2-0.8,0.8c-0.3,0.8-0.6,1.8-0.8,3c-0.6,3.9-1.2,7.8-1.6,11.6
			c-0.3,3.1-0.6,6.3-0.8,9.4c-0.2,3.2-0.5,6.5-0.8,9.9c-0.1,0.8-0.2,1.6-0.2,2.5c0,0.8-0.1,1.5-0.1,2.2c-0.1,1-0.3,2-0.5,2.9
			c-0.3,1.4-1.1,2.2-2.2,2.2c-0.3,0-0.6,0-0.9,0c-1.2,0-2.3,0-3.3-0.1c-1.6-0.2-3-0.4-4.2-0.8c-1.9-0.6-2.9-2.1-2.9-4.6
			c0-0.9,0.1-1.8,0.2-2.8c0-0.9,0.1-1.7,0.2-2.4c0-0.2,0-0.4,0.1-0.7c0.3-4.3,0.7-8.6,1-12.9c1.2-13.9,2.8-27.9,4.7-41.8
			c0-0.1,0-0.2,0-0.3c0.1-0.8,0.3-1.8,0.7-3.1c0.3-1.3,1-2.5,1.8-3.5c0.9-1,2.1-1.6,3.8-1.6c1.8,0.1,3.6,0.2,5.4,0.3
			c0.1,0,0.1,0,0.2,0c3,0.3,4.9,1.2,5.9,2.8c1,1.6,1.6,3.3,1.8,5.1c0.1,0.7,0.3,1.4,0.5,2c4.6,16,8.7,32,12.6,48
			c0.2,0.6,0.4,0.9,0.6,0.9c0,0,0.1,0,0.1,0c0.2,0,0.4-0.3,0.6-0.7c0.2-0.5,0.3-0.9,0.4-1.4c0.1-0.5,0.2-0.8,0.2-1
			c1-7.1,1.9-14.3,2.7-21.5c0.8-6.7,1.6-13.4,2.5-20.1c0-0.2,0.1-0.5,0.1-0.7c0.2-1.7,0.4-3.1,0.6-4.2c0.1-1.1,0.3-2.2,0.4-3.5
			C363.7,163,364.3,162.6,365.3,162.4z"/>
		<path class="st0" d="M406.8,180.3c-2.2-0.4-4.2-0.1-5.9,1c-2.1,1.4-3.9,3.2-5.4,5.5c-1.5,2.3-2.6,4.4-3.3,6.3
			c-1,2.6-1.8,5.5-2.4,8.5c-0.2,1.2-0.4,2.6-0.6,3.9c-0.6,4.5-0.4,9,0.3,13.5c0.7,4.5,2.4,8.4,4.8,11.8c1.1,1.3,2,2,2.8,2.2
			c0.3,0.1,0.5,0,0.8,0c1-0.3,1.8-1,2.5-2.2c0.7-1.2,1.2-2.3,1.6-3.4c0.1-0.1,0.1-0.2,0.1-0.3c1-2.3,1.7-4.6,2.2-7
			c0.3-1.3,0.5-2.5,0.6-3.8c0-0.5-0.4-0.9-1.2-1.2c-0.8-0.3-1.9-0.6-3.3-0.9c-1.4-0.3-3-0.7-4.8-1.2c-0.9-0.3-1.4-0.9-1.5-1.7
			c0-0.8-0.1-1.6,0.1-2.2c0.1-0.4,0.2-0.7,0.3-1.1c0.3-1,0.8-1.6,1.2-1.9c0.5-0.2,1.3-0.3,2.5-0.2c1.1,0.1,2.2,0.2,3.4,0.4
			c1.1,0.2,2,0.4,2.7,0.5c3,0.6,5.7,1.5,8.1,2.6c2.4,1.1,3.5,2.7,3.5,4.9c-0.1,1.5-0.4,3.1-0.8,5.1c-0.3,1.4-0.7,2.8-1.1,4.5
			c-1.1,3.9-2.6,7.7-4.4,11.3c-1.8,3.6-3.8,6.2-5.9,7.8c-2.1,1.3-3.8,1.8-5.2,1.5c-1.4-0.3-2.1-0.4-2.2-0.5c-2.6-0.5-5-1.4-7.2-2.7
			c-5.6-3.4-9.6-8.1-12-14.3c-2.4-6.1-3.6-11.5-3.3-16.1c0.3-4.6,0.6-7.8,0.9-9.8c0.8-5,2.3-9.8,4.4-14.3c3-6.3,7.1-11.1,12.2-14.5
			c5.1-3.3,11-4.4,17.6-3.1c0.2,0,0.4,0.1,0.6,0.1c4.3,1.2,7.4,3.2,9.5,5.8c2,2.7,3.3,5.6,3.8,8.8c0.5,3.1,0.7,5.6,0.4,7.5
			c-0.2,1.8-0.5,3.1-0.7,3.9c-0.2,1-0.5,1.8-0.8,2.2c-0.4,0.6-0.9,0.9-1.7,1c-0.7,0.1-1.5,0-2.2-0.1c-0.8-0.1-1.5-0.2-2.1-0.4
			c-0.6-0.1-1.1-0.3-1.5-0.4c-0.7-0.3-1.1-0.7-1.2-1.3c-0.1-0.6-0.1-1.5,0-2.7c0.2-1.5,0.2-3,0.1-4.7c-0.1-1.6-0.5-3.2-1.2-4.7
			c-0.8-1.5-2-2.6-3.9-3.5C407.7,180.5,407.2,180.4,406.8,180.3z"/>
	</g>
	<path class="st0" d="M404.6,328.6c0.2,0.7,0.5,1.3,0.3,2.1c-0.8,0.2-1.5-0.2-2.1-0.5c-4.5-1.9-9-3.8-13.5-5.8
		c-7.8-3.4-15.8-6.2-23.9-8.8c-4.9-1.5-9.8-3.1-14.7-4.6c-2.5-0.7-5-1.3-7.6-1.9c-4.1-0.9-8.2-1.9-12.3-2.5c-2.2-0.3-4.5-0.7-6.7-1
		c-4.1-0.5-8.3-1-12.5-1.5c-6.1-0.7-12.2-1.1-18.3-1.2c-5-0.1-9.9,0.1-14.9,0.2c-4,0.1-8.1,0.2-12.1,0.4c-4.6,0.2-9.2,0.8-13.9,1.2
		c-12.6,1.2-25,3.4-37.3,6c-8.8,1.9-17.5,4.6-26,8c-4.1,1.7-8.1,3.6-11.9,5.9c-0.4,0.2-0.8,0.5-1.2,0.7c-0.2,0.1-0.4,0.1-0.7,0.2
		c-0.4-0.8-0.4-1.8-0.4-2.7c-0.1-4,0.3-7.9,0.9-11.8c0.9-5.8,1.8-11.5,2.8-17.3c0.2-1,0.4-2,0.5-3c0.2-1.1,0.3-2.3,0.4-3.4
		c0.1-1.1-0.3-2-1.2-2.5c-2.6-1.6-4.8-3.8-7-6c-3.9-4-7.8-8.1-11.6-12.1c-0.5-0.5-1.1-1.1-1.4-1.9c0.2-0.6,0.8-0.7,1.2-0.9
		c8.7-4.3,17.7-7.6,26.9-10.4c10.9-3.3,21.9-5.7,33-7.8c12.4-2.4,24.9-4,37.5-4.9c5.1-0.4,10.2-0.8,15.3-1.1
		c3.8-0.2,7.7-0.2,11.5-0.2c5.4,0.1,10.9,0.2,16.3,0.3c3.3,0.1,6.6,0.2,9.9,0.5c1,0.1,2.1,0.3,3.2,0c6.7,0.8,13.5,1.6,20.2,2.4
		c0.8,0.5,1.7,0.5,2.5,0.6c7,1,14,2.6,20.9,4.1c9.1,1.9,17.9,4.8,26.7,7.5c10.9,3.3,21.5,7.6,32.2,11.9c0.6,0.2,1.1,0.5,1.6,0.8
		c0.2,0.1,0.4,0.3,0.7,0.5c-0.1,0.8-0.7,1.2-1.1,1.7c-6.3,7.3-12.6,14.6-19,21.9c-0.6,0.7-1.3,1.5-1.9,2.2c-0.1,0.8,0.2,1.5,0.4,2.2
		C399.1,306.9,401.8,317.7,404.6,328.6z M419.6,297.7c-3.5-0.5-7.8,1.7-8.4,6.9c-0.4,3.9,1.7,8.2,6.7,8.8c4.1,0.7,7.7-2.6,8.1-7
		C426.5,301.5,422.9,298.1,419.6,297.7z M192.1,257.5c3.7,16.4,7.3,32.8,11,49.2c4.2-0.9,8.3-1.8,12.5-2.6
		c-3.1-16.5-6.3-33-9.4-49.6C201.5,255.5,196.8,256.5,192.1,257.5z M213.4,265.7c0.4,2.3,0.8,4.7,1.2,7c1.6,8.1,7.1,11.3,16.6,9.9
		c2.7-0.4,5.4-0.7,8.2-1.1c2.2-0.2,3.4,0.5,3.5,2.2c0,0.3,0.1,0.7,0.1,1c0.2,1.6-1.1,2.6-3.8,3.1c-1.2,0.1-2.4,0.3-3.6,0.5
		c-2.8,0.4-4.4-0.2-4.6-1.7c-0.1-0.8-0.3-1.6-0.4-2.5c-4.6,0.6-9.1,1.3-13.6,2.1c0.3,1.8,0.6,3.5,0.9,5.3c1.6,7.8,6.5,11,14.7,9.9
		c4.2-0.6,8.4-1.1,12.6-1.6c8.3-1.1,12.2-5.7,11.6-14.1c-0.2-2-0.3-3.9-0.5-5.9c-0.8-8.3-5.8-12.2-15.2-11.4
		c-3.1,0.3-6.1,0.7-9.2,1.1c-2.2,0.3-3.5-0.4-3.7-2.1c0-0.3-0.1-0.7-0.1-1c-0.2-1.7,1.2-2.8,4.4-3.2c1-0.1,2-0.3,3-0.4
		c3.3-0.4,5,0.2,5.2,1.7c0.1,0.9,0.3,1.9,0.4,2.8c4.7-0.5,9.4-0.9,14.2-1.2c-0.1-1.7-0.2-3.3-0.4-5c-0.8-8.4-6.1-12.3-15.7-11.4
		c-4.6,0.5-9.3,1.1-13.9,1.8C216,253,212,257.9,213.4,265.7z M283.7,297.5c4.2-0.1,8.4,0,12.7,0c0.2-8.6,0.3-17.3,0.5-25.9
		c2.8,7.3,5.4,14.6,7.8,22c3.9,0.2,7.7,0.4,11.6,0.6c3-7.1,6.1-14.1,9.3-21.1c-0.8,8.6-1.5,17.2-2.3,25.8c4.3,0.4,8.5,0.8,12.8,1.3
		c2-16.7,4.1-33.4,6.1-50.1c-6.3-0.8-12.6-1.4-18.9-1.9c-4.2,8.2-8.2,16.5-12,24.8c-3-8.7-6.1-17.3-9.5-26
		c-6.2-0.2-12.4-0.2-18.6-0.2C283.3,263.8,283.5,280.7,283.7,297.5z M351.1,290.2c-0.6,4-1.2,8-1.9,11.9c4.2,0.7,8.4,1.4,12.6,2.2
		c0.7-3.8,1.5-7.7,2.2-11.5c6.7-11.8,13.9-23.5,21.4-35.1c-4.7-1-9.3-2-14-2.9c-3.8,6.9-7.5,13.8-11.1,20.8
		c-1-7.8-2.2-15.5-3.5-23.3c-4.6-0.7-9.2-1.4-13.8-1.9C346.1,263.6,348.8,276.9,351.1,290.2z"/>
	<g>
		<path class="st0" d="M210.6,133.5c-0.8-0.7-1.6-1.4-2.5-2c-4.9-3.4-9.9-6.6-14.8-10.1c-1.1-0.7-1.9-2-2.5-3.2
			c-2.1-4.2-4.1-8.4-6.2-12.5c-0.4-0.7-2.1-1.5-2.5-1.2c-0.9,0.7-1.5,2-2.1,3.1c-0.1,0.2,0.1,0.8,0.3,1.1c2.2,3.2,1.8,6.2-0.3,9.5
			c-0.6,1,0.2,3.3,1,4.7c2.2,3.9,2,7.8,0.7,11.7c-1.1,3.2,0.6,5.9,1.2,8.7c0.2,1.1,0.7,2.1,0.6,3.5c-1.7-1.3-3.4-2.6-5.2-3.9
			c-1.1-0.8-2.3-1.7-3.6-2.1c-4.6-1.5-9.5-2.6-12.2-7.4c-3.2,4.4-6,8.4-8.9,12.4c-1.5,2-2.9,4.2-4.7,5.9c-1.4,1.3-3.3,2-5,3
			c-0.2-0.3-0.4-0.6-0.6-0.9c2.8-3.7,5.5-7.4,8.4-11.1c4.1-5.1,7.3-10.6,9.7-16.6c2.6-6.4,7-11.4,11.4-16.5c2.1-2.4,4.2-4.7,6.3-7.2
			c1-1.2,1.9-1.5,3.4-0.9c2,0.8,4.1,1.2,6.6,2c-0.7-4.1,2.1-5.9,4.5-8c0.8-0.7,1.6-1.5,1.9-2.4c1.9-6.9,8.2-10.2,12.2-16
			c4.7,4.9,10.8,7.8,12.4,14.8c0.4,1.9,2,3.5,3.3,5.6c5.4-5.9,11.6-10.4,14.9-17.4c5.6-11.9,15-20.6,23.6-30.1
			c1.3-1.5,2-0.5,2.9,0.4c9.4,8.9,17.9,18.5,24.5,29.8c2.6,4.5,7.3,7.8,11.2,11.6c0.4,0.4,1.8,0.2,2.2-0.2c1.3-1.3,2.7-2.7,3.5-4.3
			c1.7-3.3,3.6-6.3,6.8-8.4c2.1-1.4,4.1-3.2,6.4-5c4.7,4.9,9.1,9.8,13.9,14.3c11.5,10.9,19.6,24.5,29,37c6,8,13,15.2,19.6,22.7
			c1.1,1.3,2.3,2.6,3.2,4.1c-3.6-1.4-6.9-2.8-9.5-6c-3.7-4.6-8-8.7-11.6-13.3c-5.5-7-10.9-14.1-15.7-21.4
			c-6.3-9.6-14.6-17.5-22.4-25.8c-1.7-1.9-3.5-3.8-5.7-6.1c-2.1,6.9-4,12.9-5.7,19c-0.2,0.8,0.3,2,0.8,2.8
			c7.5,12.9,16.2,24.9,26.4,35.8c0.2,0.2,0.2,0.5-0.2,1.4c-3.2-2.2-7.1-3.9-9.5-6.8c-4.1-4.9-8.6-8.8-14.5-11
			c-1.6-0.6-2.8-1.6-3.1-3.6c-0.6-4.7-3.4-8.1-6.8-11.2c-1.9-1.7-3.2-4-4.8-6c-1.4-1.8-2.7-3.9-4.4-5.4
			c-8.6-7.2-14.9-16.1-20.8-25.5c-2.9-4.6-7.3-8.1-11.1-12.1c-0.9-1-2-1.9-3.4-3.3c-1.4,2.5-2.6,4.7-3.9,6.9c-5,8.3-7,17.7-9.9,26.8
			c-0.2,0.7,0.2,1.8,0.6,2.5c3.4,5.5,6.9,10.9,10.5,16.5c-0.9,0.5-1.6,1-2.5,1.4c-3.3,1.6-5.9,3.7-7.4,7.2c-0.6,1.4-2.4,2.4-3.8,3.5
			c-1.1,0.8-2.3,1.5-3.6,2.7c15.3,4,28,12.7,40.9,21.2c-1.5-0.3-3-0.5-4.4-0.9c-10.7-3.2-21.3-6.4-31.5-11.1
			c-4.6-2.1-10.2-2.1-15.4-2.9c-4.4-0.7-5.9-4.4-3.3-8.1c0.4-0.6,0.8-1.3,1.3-1.8c3.6-3.1,2.3-7,1.5-10.7c-0.2-0.8-1.7-1.8-2.6-1.7
			c-2.1,0.1-3.6-0.5-4.9-2.1c-1.1-1.3-2.3-2.5-3.6-3.5c-2.5-2.1-4.3-4.6-5.1-7.8c-1-4.3-4.8-6.5-7.6-9.3c-4.8,3.2-7.5,7.6-6.2,12.9
			c1.3,5.5,1.1,11-0.7,16.4c-0.9,2.6-0.3,4.5,1.7,6.2c2.3,2,4.4,4.1,4.2,7.5c-0.1,3.2,1.3,5.7,3.8,7.8
			C211,133.2,210.8,133.4,210.6,133.5z"/>
		<path class="st0" d="M318.5,141.8c-3.1-1.2-6.6-1.7-9.1-3.6c-5.3-3.9-10.9-6.6-17.4-7.9c-1.1-0.2-2.5-1.7-2.6-2.7
			c-0.9-8.6-4.1-16.1-8.6-23.4c-2.5-4-3.2-9.2-4.7-13.8c0.4-0.2,0.8-0.3,1.2-0.5c2.2,3.5,4.8,6.9,6.6,10.7c1.7,3.4,2.2,7.4,3.9,10.8
			c1.3,2.7,3.6,5,5.5,7.4c2.6,3.3,5.5,6.3,8,9.7c2.4,3.3,6.2,4.3,9.4,6.2c3,1.7,5.7,3.9,8.5,5.9C319,141,318.7,141.4,318.5,141.8z"
			/>
		<path class="st0" d="M246.1,143.3c-2.1,0.5-4.3,0.9-6.4,1.5c-7.8,2.3-15.6,1.3-23.5,1c-4-0.1-8,0.5-12.1,0.4
			c3.4-2.4,5.7-6.5,10.5-6.4c4.6,0.2,9.3,0.8,13.9,1.1c2.7,0.2,5.4,0.1,8.1,0.3c3.1,0.2,6.3,0.7,9.4,1
			C246.1,142.7,246.1,143,246.1,143.3z"/>
		<path class="st0" d="M323.9,134.4c5.2,4.4,12.3,6.1,14.4,13.4C331.7,149.1,325,143,323.9,134.4z"/>
	</g>
	<path class="st0" d="M256.2,323.7c10.5-0.1,20.5,0,30,0.4c0.3,0,0.6,0,0.8,0c0.4,0,0.7,0,0.9,0.1c0.2,0,0.3,0.2,0.2,0.3
		c0,0.1,0,0.1-0.1,0.2s-0.1,0.1-0.2,0.1c-0.6,0-1.5,0-2.7,0.1s-2.2,0.1-3.2,0.1c-10.2,0.1-19,0-26.4-0.3l2,5l-12-5.4l13.9-4.9
		L256.2,323.7z M295.7,329.5c1-0.8,2-1.9,3.2-3.1s2.2-2.5,3-3.9c0.6-1.2,0.8-2.3,0.5-3.2c-0.2-1-0.6-1.7-1.2-2.1
		c-0.3-0.2-0.8-0.3-1.6-0.3c-0.9,0.1-1.7,0.4-2.3,0.9c-0.6,0.5-1.2,1.2-1.7,2c0-0.2-0.1-0.6-0.2-1.3c-0.2-0.7-0.4-1.5-0.7-2.4
		s-0.8-1.6-1.3-2.1c-0.6-0.6-1.2-0.8-2-0.6c-0.8,0.3-1.4,0.9-1.7,1.7s-0.4,1.7-0.4,2.7c0,1,0.1,1.9,0.3,2.8c0.3,2,0.6,3.5,0.8,4.7
		c0.3,1.2,0.7,2.7,1.3,4.6c0,0,0,0.1,0,0.1c0,0.1,0.1,0.2,0.1,0.3c0,0.1,0.1,0.2,0.2,0.3c0,0.1,0.1,0.3,0.1,0.5
		c0.1,0.2,0.3,0.3,0.5,0.5c0.3,0.1,0.6,0.2,0.9,0.1c0.3-0.1,0.5-0.3,0.6-0.6C294.3,330.7,294.9,330.2,295.7,329.5z M330.3,326.6
		c-2.6-0.2-6.3-0.4-10.9-0.6c-4-0.2-8.3-0.4-13-0.7c-0.6,0-1,0-1.4-0.1c-0.5,0-0.9-0.1-1.2-0.1c-0.3,0-0.4-0.1-0.5-0.1
		s-0.1-0.1-0.1-0.3c0-0.1,0.1-0.1,0.1-0.2c0.1,0,0.1-0.1,0.2-0.1h1.3c5.1,0,10,0.1,14.6,0.3c4.3,0.2,7.9,0.5,10.7,0.8l6.3-4.8
		l14.2,1.2l-7.9,4.9l7.7,6.4l-14.3-2.1L330.3,326.6z"/>
</g>
</svg>
