<?xml version="1.0" encoding="utf-8"?>
<!-- Generator: Adobe Illustrator 22.0.0, SVG Export Plug-In . SVG Version: 6.00 Build 0)  -->
<svg version="1.1" id="Layer_1" xmlns="http://www.w3.org/2000/svg" xmlns:xlink="http://www.w3.org/1999/xlink" x="0px" y="0px"
	 viewBox="0 0 500 500" style="enable-background:new 0 0 500 500;" xml:space="preserve">
<style type="text/css">
	.st0{fill:#0C0C0C;}
</style>
<g>
	<g>
		<g>
			<path class="st0" d="M89.2,276.8c-1.5-0.4-2.5-1.2-2.9-2.2c-0.5-1-0.5-2-0.2-3c0.3-1,1-1.8,1.9-2.4c1-0.6,2.1-0.6,3.5,0
				c2.3,0.9,4.3,2.2,6.1,3.7s3.6,3.2,5.2,5c1.7,1.8,3.4,3.6,5.1,5.3c1.7,1.8,3.5,3.4,5.5,4.8c0.6,0.4,0.7,0.8,0.3,1.4
				c-0.4,0.5-0.9,0.7-1.5,0.5c-2-1-3.9-2-5.7-3.2c-1.8-1.2-3.7-2.4-5.5-3.7c-1.9-1.3-3.7-2.4-5.6-3.6
				C93.5,278.4,91.4,277.5,89.2,276.8z"/>
		</g>
		<g>
			<path class="st0" d="M106.9,314.5c0.6,0.2,0.8,0.6,0.7,1.2c-0.1,0.6-0.4,0.8-1,0.7c-3.5-1-7.1-1.7-10.8-2.2
				c-3.6-0.5-7.3-0.9-10.8-1.4c-3.6-0.4-7.2-1-10.8-1.6c-3.6-0.6-7.1-1.6-10.6-2.8c-1-0.3-1.6-0.9-1.8-1.7c-0.2-0.8-0.1-1.6,0.3-2.4
				c0.4-0.8,0.9-1.3,1.7-1.7s1.6-0.4,2.6-0.1c6.8,2.4,13.5,4.6,20.1,6.4C93.2,310.8,100,312.6,106.9,314.5z"/>
		</g>
		<g>
			<path class="st0" d="M86.3,338.9c1.2,0,2.2,0.1,3.3,0.1c1,0,2.1,0.1,3.3,0.1c1,0,1.6,0.5,1.6,1.3s-0.4,1.3-1.4,1.5
				c-1.1,0.2-2.2,0.5-3.2,0.7c-1,0.2-2,0.5-3.2,0.7c-0.8,0.4-1.7,0.6-2.6,0.8c-0.9,0.2-1.9,0.2-2.9,0c-1.2-0.2-1.8-0.9-1.9-2.2
				c-0.1-1.3,0.4-2.2,1.5-2.7c1-0.4,1.9-0.5,2.9-0.5S85.5,338.8,86.3,338.9z"/>
		</g>
	</g>
	<g>
		<g>
			<path class="st0" d="M420.6,276.8c1.5-0.4,2.5-1.2,2.9-2.2c0.5-1,0.5-2,0.2-3c-0.3-1-1-1.8-1.9-2.4c-1-0.6-2.1-0.6-3.5,0
				c-2.3,0.9-4.3,2.2-6.1,3.7s-3.6,3.2-5.2,5c-1.7,1.8-3.4,3.6-5.1,5.3c-1.7,1.8-3.5,3.4-5.5,4.8c-0.6,0.4-0.7,0.8-0.3,1.4
				c0.4,0.5,0.9,0.7,1.5,0.5c2-1,3.9-2,5.7-3.2c1.8-1.2,3.7-2.4,5.5-3.7c1.9-1.3,3.7-2.4,5.6-3.6
				C416.3,278.4,418.3,277.5,420.6,276.8z"/>
		</g>
		<g>
			<path class="st0" d="M402.8,314.5c-0.6,0.2-0.8,0.6-0.7,1.2c0.1,0.6,0.4,0.8,1,0.7c3.5-1,7.1-1.7,10.8-2.2
				c3.6-0.5,7.3-0.9,10.8-1.4c3.6-0.4,7.2-1,10.8-1.6c3.6-0.6,7.1-1.6,10.6-2.8c1-0.3,1.6-0.9,1.8-1.7c0.2-0.8,0.1-1.6-0.3-2.4
				c-0.4-0.8-0.9-1.3-1.7-1.7s-1.6-0.4-2.6-0.1c-6.8,2.4-13.5,4.6-20.1,6.4C416.5,310.8,409.7,312.6,402.8,314.5z"/>
		</g>
		<g>
			<path class="st0" d="M423.4,338.9c-1.2,0-2.2,0.1-3.3,0.1c-1,0-2.1,0.1-3.3,0.1c-1,0-1.6,0.5-1.6,1.3s0.4,1.3,1.4,1.5
				c1.1,0.2,2.2,0.5,3.2,0.7c1,0.2,2,0.5,3.2,0.7c0.8,0.4,1.7,0.6,2.6,0.8c0.9,0.2,1.9,0.2,2.9,0c1.2-0.2,1.8-0.9,1.9-2.2
				c0.1-1.3-0.4-2.2-1.5-2.7c-1-0.4-1.9-0.5-2.9-0.5S424.3,338.8,423.4,338.9z"/>
		</g>
	</g>
	<g>
		<g>
			<path class="st0" d="M85.1,96c0.3,1.1,0.6,2,0.9,3c0.4,1.6,0.8,3.3,2.1,4.4c0.1,0.2,0.2,0.3,0.3,0.5c0.4,0.7,0.3,1.4-0.5,2
				c-0.7,0.6-1.6,0.8-2.4,0.5c-1.1-0.6-2-1.4-2.3-2.6c-0.3-1.3-1.3-1.7-2.7-2c-3-0.5-6.2-0.5-9.7,0.6c-1.8,0.6-2.9,1.5-3.5,3.1
				c-1.1,3-1.3,5.7-1.1,8.5c0.4,5.3,2,10.2,4.1,14.9c2.2,5,5.3,9.4,8.6,13.6c2.8,3.4,5.9,6.5,9.8,8.7c1.4,0.9,3,1.5,4.7,1.7
				c1.1,0.2,2.1-0.2,3.1-0.6c2.3-1,3.4-2.8,4.4-4.8c1.8-3.3,2.4-6.8,2.8-10.3c0.1-0.5,0-1,0.1-1.4c0.3-0.8,1-1.3,1.9-1.3
				c0.8,0,1.3,0.5,1.5,1.2c0,0.2,0,0.4,0,0.6c-0.3,5.2-1.4,10.2-4.6,14.7c-4,5.8-9.3,8.5-16.2,8.6c-4.5,0.1-8.5-1.1-12.4-2.9
				c-3.9-1.9-7.2-4.4-10.3-7.2c-1.5-1.4-3.5-2.3-5.8-2.5c-0.2-0.1-0.5-0.1-0.7-0.1c-0.8-0.1-1.2-0.4-1.1-1.2c0-0.7,0.4-1.3,1.1-1.5
				c0.4-0.2,0.9-0.3,1.6-0.6c-1.8-2.8-3.2-5.6-4.3-8.7c-2-6-2.6-12.5-0.2-19.6c0.7-2.1,1.8-4.4,3.2-6.4c4.8-7.2,13.1-11.5,21.2-10.9
				c0.7,0.1,1.5,0.2,2.4,0.3c0.3-0.9,0-1.5-0.5-2.1c-0.3-0.3-0.8-0.6-1.1-0.9c-0.5-0.6-0.4-1.3,0.2-2c0.6-0.7,1.5-0.8,2.2-0.5
				c0.3,0.1,0.6,0.4,0.9,0.6c0.8,0.8,1.5,1.6,1.8,2.7C84.8,96,84.9,96,85.1,96z M62.9,118.4c-0.6-3.3-0.6-6.8,0-10.6
				c-0.9,0.4-1.3,0.9-1.7,1.4c-1.7,2.3-2.8,4.6-3.5,7.1c-1.4,4.7-1.4,9.1-0.6,13.3c1,5.1,3.2,9.4,6,13.5c0.5,0.7,0.8,0.7,1.6-0.2
				c1.5-1.8,3.3-3.2,5.6-3.8c1-0.3,1.1-0.6,0.6-1.3c-1-1.5-1.9-3-2.7-4.6c-2.4-4.6-4.3-9.6-5.3-15C63,118.3,62.9,118.4,62.9,118.4z
				 M65.9,135.8c0.6,0.9,0.5,2-0.4,2.6c-0.9,0.7-2.2,0.5-2.8-0.4c-0.6-0.8-0.4-1.7,0.5-2.4C64.2,135,65.3,135,65.9,135.8z"/>
		</g>
		<g>
			<path class="st0" d="M168.8,120.1c0.4,0.3,0.5,0.8,0.4,1.3c-0.2,0.7-0.7,1.1-1.4,1.3c-1.5,0.3-3,0.6-4.6,0.5
				c-1.5-0.1-2.7,0.3-3.9,1.2c-0.8,0.6-1.7,1.3-2.6,1.8c-0.4,0.2-0.9,0.5-1.3,0.6c-1,0.3-1.7,0.1-2-0.5c-0.3-0.6-0.1-1.4,0.9-1.8
				c1.3-0.7,2.4-1.5,3.4-2.3c1.1-0.9,1.1-1,0.4-2.2c-2.4-3.8-4.8-7.6-7.4-11.4c-0.9-1.4-0.9-1.4-2.7-0.8c-5.4,2-10.7,3.9-15.9,6.4
				c-1.3,0.6-1.4,0.8-1.3,2c0.2,4.8,0.5,9.5,0.9,14.2c0,0.5,0.1,0.9,0.2,1.4c0.1,0.9,0.2,1,1.2,0.7c0.4-0.1,0.9-0.2,1.3-0.2
				c0.7,0,1.4,0.3,1.6,1c0.2,0.7-0.1,1.3-0.7,1.7c-0.6,0.4-1.2,0.6-1.9,0.7c-1.1,0.2-2.2,0.5-3.3,0.6c-1.9,0.2-3.5,1.1-4.8,2.4
				c-1.3,1.2-2.7,2.3-4.1,3.3c-0.9,0.6-1.9,0.9-3,1.3c-0.7,0.3-1.5,0-1.8-0.6c-0.3-0.6-0.1-1.3,0.6-1.8c0.6-0.4,1.2-0.7,1.8-1
				c0.6-0.3,0.9-0.8,0.8-1.4c0-0.2,0-0.4,0-0.6c-0.8-7.1-1.8-14.2-2.4-21.4c-0.2-2.2-1.5-3.4-3.3-4.4c-0.2-0.1-0.4-0.2-0.6-0.3
				c-0.7-0.5-0.9-1.1-0.5-1.8c0.3-0.6,1-1,1.9-0.9c0.3,0.1,0.5,0.1,0.8,0.2c0.3,0.1,0.5,0.3,0.8,0.4c0.4-0.9,0.3-1.4,0.3-2
				c-0.7-8.9-1-17.8-1.2-26.8c0-1.8,0-1.8-2.2-1c-0.7,0.3-1.3,0.6-1.9,0.7c-0.9,0.2-1.7-0.1-2-0.7c-0.3-0.6,0.1-1.3,1-1.8
				c1.8-0.9,3.7-1.7,5.7-2.2c0.8-0.2,1.6-0.5,2.4-0.6c3.1-0.4,5.7-1.6,8.3-3.3c1.8-1.2,3.8-2.2,5.9-2.8c1.7-0.5,2.9-0.4,3.2,0.5
				c0.3,0.9-0.4,1.7-2.2,2.4c-3.1,1.1-2.7,1.2-1.5,2.8c7.8,10.5,15.2,21.2,22.3,32c2.6,4,5.3,8.1,7.7,12.2c0.7,1.1,1.6,1.4,2.7,1.2
				c0.9-0.1,1.8-0.2,2.6-0.4c0.7-0.1,1.3-0.1,1.8,0.3C169,120.2,168.9,120.2,168.8,120.1z M126.7,106.3c-0.3-8.7-0.4-17.5-0.2-26.3
				c0-1.2,0.1-2.3-0.2-3.5c-0.2-0.9-0.4-1-1.4-0.4c-1.5,0.9-3.2,1.5-5,1.8c-1.8,0.3-2,0.5-1.9,1.9c0.1,2.5,0.4,4.9,0.5,7.4
				c0.1,6.5,0.4,12.9,0.8,19.3c0,0.6,0,1.2,0.6,1.8c1.1-0.8,2.1-1.4,3.4-1.4c1.3-0.1,2.2,0.6,3.3,0.7
				C126.8,107.1,126.6,106.7,126.7,106.3C126.6,106.3,126.6,106.3,126.7,106.3z M122.2,99.2c1-0.4,2-0.1,2.4,0.7
				c0.4,0.9-0.3,2.2-1.4,2.6c-1,0.4-2.1-0.1-2.3-0.9c-0.3-0.9,0.3-2.1,1.4-2.5C122.2,99.1,122.2,99.2,122.2,99.2z M145.7,103.4
				c1.1-0.4,1.1-0.6,0.6-1.4c-0.2-0.2-0.4-0.4-0.6-0.7c-3.7-5.3-7.5-10.6-11.3-15.9c-1.2-1.6-2.4-3.1-3.6-4.8
				c-0.5,0.6-0.4,1-0.3,1.4c-0.2,6.2-0.3,12.4-0.3,18.6c0,2.4,0.1,4.8,0.2,7.3c0,1.2,0.2,1.3,1.4,0.8
				C136.3,106.7,141,104.9,145.7,103.4C145.7,103.3,145.7,103.3,145.7,103.4z"/>
		</g>
		<g>
			<path class="st0" d="M229.3,101.3c0,2.5,0.1,5,0.2,7.5c0.1,1.2,0.1,1.2,1.2,1.2c0.1,0,0.2,0,0.3,0c1.4,0,2.1,0.6,2.1,1.5
				c-0.1,0.9-0.8,1.5-2,1.6c-1.4,0.2-2.9,0-4.2-0.4c-3.2-0.8-6.3-0.4-9.2,0.9c-0.9,0.4-1.8,0.7-2.8,0.9c-1,0.2-1.8-0.2-2.1-0.9
				c-0.2-0.7,0.2-1.3,1.2-1.8c1.5-0.6,1.5-0.6,1.4-2.1c-0.4-6.3-1-12.5-1.5-18.7c-0.1-0.7,0-1.4,0-2.2c0-1.7-0.7-3.2-1.9-4.5
				c-0.4-0.5-1-0.6-1.6-0.8c-1-0.4-1.3-1-1-1.7c0.2-0.7,1-1,2-0.9c1.8,0.1,1.8,0.1,1.7-1.4c-0.7-7.2-1-14.5-1.8-21.7
				c-0.1-0.5,0.2-1.5-0.6-1.6c-1.1-0.1-1.1,0.9-1.4,1.5c-1.1,2.7-1.6,5.5-2,8.2c-0.7,4.9-1.8,9.9-2,14.8c-0.2,6.9-0.9,13.7-1.5,20.6
				c0,0.5-0.1,0.9-0.2,1.4c-0.3,1.5-1.4,2.2-3,1.9c-1.9-0.2-3.1-1.3-3.8-2.8c-1.2-2.6-2.2-5.2-3.2-7.9c-1.7-4.4-2.6-9-4.1-13.4
				c-1.7-5.1-3.1-10.3-5.5-15.1c-0.4-0.8-0.9-1.7-1.7-2.3c-0.2,1.2-0.1,2.4,0.1,3.5c1.5,7.4,2.3,14.9,3.7,22.2
				c0.7,3.6,1.3,7.2,1.8,10.9c0.7,4.5,1.2,9.1,2.1,13.5c0.3,1.5,0.3,1.5,1.9,1.3c1.2,0,1.8,0.3,2,1.1c0.1,0.8-0.3,1.5-1.3,1.9
				c-1.2,0.5-2.4,0.6-3.6,0.5c-4-0.4-7.7,0.5-10.9,2.8c-0.6,0.4-1.3,0.7-2.1,0.8c-0.9,0.2-1.6-0.1-1.9-0.8c-0.3-0.8,0-1.3,0.7-1.8
				c0.2-0.1,0.3-0.3,0.5-0.3c0.8-0.3,0.9-0.9,0.7-1.6c-0.4-1.8-0.7-3.7-1.2-5.5c-1-4.3-2.1-8.5-3.2-12.8c-0.2-0.7-0.4-1.4-0.4-2.1
				c-0.2-1.6-1.1-2.9-2.2-4c-0.4-0.4-1-0.8-1.7-0.9c-0.2,0-0.5-0.1-0.7-0.1c-0.8-0.2-1.2-0.8-1.1-1.5c0.1-0.7,0.8-1.1,1.7-1.3
				c0.6-0.1,1.4,0.4,1.8-0.2c0.4-0.6-0.1-1.2-0.2-1.8c-1.7-7-3-14-4.9-20.9c-0.1-0.4-0.2-0.9-0.3-1.3c-0.2-0.7-0.6-1.1-1.7-0.9
				c-0.2,0.1-0.5,0.1-0.7,0.2c-1.1,0.1-1.8-0.3-1.9-0.9c-0.2-0.8,0.4-1.3,1.3-1.7c0.8-0.4,1.6-0.6,2.4-0.6c1.2-0.1,2.4-0.2,3.6-0.2
				c3.9,0,7.4-0.7,10.8-2.6c3.9-2.2,7.6-1.5,10.3,1.6c0.7,0.9,1.2,1.8,1.8,2.7c2.1,3.9,3.4,8,4.7,12.2c1.5,4.8,3,9.7,4.4,14.5
				c0.5,2,1,4,1.8,6c0.2-2.1,0.5-4.2,0.6-6.3c0.6-8.5,1.6-16.9,2.8-25.4c0.2-1.7,0.6-3.5,1.2-5.2c0.3-1,0.8-2,1.4-2.9
				c1.2-1.8,3.3-3.3,6.8-2.7c2.4,0.5,4.9,0.6,7.4,0.3c1.5-0.1,2.9-0.4,4.3-0.9c1.7-0.6,3.6-1.1,5.4-1.3c1.8-0.2,2.8,0.3,3,1.2
				c0.1,0.9-0.8,1.5-2.6,1.7c-2,0.3-1.9,0.3-1.9,1.9c-0.1,4.3,0.4,8.7,0.3,13c-0.1,4.8,0.2,9.5,0.3,14.2c0.1,5.9,0.2,11.8,0.2,17.7
				C229.3,100.8,229.3,101.1,229.3,101.3z M179.9,78c-0.8-4.9-1.5-9.7-2.5-14.6c-0.2-1.1-0.3-1.1-1.7-0.7c-1.4,0.5-2.9,0.9-4.4,1.1
				c-0.9,0.1-1.8,0.3-2.8,0.5c-0.8,0.1-1.1,0.4-0.9,1.1c0,0.2,0.1,0.3,0.1,0.5c1.6,6.8,3.3,13.6,4.5,20.1c0.5,1.9,0.8,3.5,1.2,5
				c0.3,1.2,0.4,1.3,1.7,0.5c1.4-0.9,3-1.3,4.7-1.4c0.8,0,1.7,0.6,2.2,0.1c0.5-0.6,0.1-1.3-0.1-1.9c-0.6-3.4-1.4-6.8-1.9-10.2
				C180,78.1,180,78,179.9,78z M178.1,84c1.1,0.6,1.6,1.6,1.2,2.5c-0.4,0.8-1.1,1.3-2,1.4c-1.2,0-2.3-0.8-2.5-1.8
				c-0.2-0.8,0-1.5,0.8-2c0.8-0.5,1.5-0.3,2.2,0C177.9,84,178,84,178.1,84z M225,63.6c0-2.1-0.2-4.1-0.4-6.2
				c-0.1-1.1-0.2-1.1-1.6-0.9c-2.1,0.2-4.1,0.4-6.2,0.3c-2-0.1-2.2,0-2.1,1.5c0.5,7,1.1,13.9,1.4,20.5c0.2,2,0.3,3.7,0.5,5.3
				c0.1,1.1,0.2,1.1,1.3,0.6c1.7-0.9,3.5-1.2,5.5-0.7c1.7,0.4,1.8,0.3,1.7-1.3c0-0.2,0-0.4,0-0.5c-0.4-6.3-0.5-12.7-0.4-19.1
				C224.8,63.4,224.9,63.5,225,63.6z M220.2,76.9c1.2-0.1,2.6,1.1,2.6,2.2c0.1,1.2-0.6,2-1.8,2.1c-1.4,0.1-2.6-0.8-2.7-2
				C218.2,78,219,77.1,220.2,76.9C220.2,76.9,220.2,76.9,220.2,76.9z"/>
		</g>
		<g>
			<path class="st0" d="M290.1,67.4c0,7.4-3.5,13.4-9.8,18.2c-4.7,3.6-10.3,5.2-16.6,5.2c-0.9,0-2,0-2.9-0.1c-1.2,0-1.3,0.1-1.4,1.2
				c-0.1,1.3-0.2,2.5-0.3,3.7c-0.2,4.1-0.9,8.2-1.1,12.3c-0.1,1.3-0.1,1.2,1.4,1.5c0.3,0,0.6,0,0.9,0.1c0.7,0.2,1,0.7,1.1,1.3
				c0.1,0.6-0.4,1.1-1,1.4c-0.7,0.2-1.4,0.3-2,0.1c-1.1-0.2-2.3-0.4-3.3-0.8c-3.1-1.2-6.3-1.1-9.5-0.1c-1,0.4-1.9,0.6-3,0.6
				c-1,0-1.7-0.4-1.8-1.2c-0.1-0.7,0.4-1.3,1.4-1.6c1.4-0.5,1.4-0.4,1.5-1.8c0.3-6.1,0.3-12.2,0.4-18.2c0-0.7,0-1.4,0.1-2.1
				c0.1-0.9,0-1.8-0.3-2.7c-0.5-1.3-1-2.6-2.8-3.3c-0.7-0.3-1.1-0.9-0.8-1.6c0.3-0.7,1.1-1,2-0.8c0.3,0.1,0.6,0.2,1,0.3
				c0.3,0.1,0.6,0.2,1,0.1c0.4-0.4,0.3-0.8,0.3-1.3c0-7.3,0.5-14.7,0.4-22c0-0.4,0-0.7,0-1.1c-0.1-1.1-0.2-1.2-1.6-1.4
				c-0.2,0-0.5,0-0.7,0c-0.8-0.2-1.4-0.5-1.5-1.2c-0.1-0.6,0.5-1.2,1.5-1.3c0.8-0.2,1.6-0.2,2.5,0c1.3,0.2,2.6,0.5,3.9,0.8
				c3.6,0.9,7.2,1.2,10.8,0.2c2.9-0.8,5.9-0.6,8.9-0.4c3.3,0.2,6.4,0.8,9.4,1.9c2.9,1.1,5.6,2.6,7.8,4.5c3.6,3,4.5,6.5,4.5,10.3
				C290.4,67.8,290.3,67.6,290.1,67.4z M257.9,62.2c0.5-2.4,0.3-4.8,0.6-7.2c0-0.9-0.1-1-1.4-0.9c-2.1,0.3-4.2,0-6.3-0.2
				c-0.3,0-0.7,0-1-0.1c-0.9-0.2-1.3,0.2-1.3,0.9c0,0.2,0,0.4,0,0.5c-0.1,7-0.2,14-0.6,20.6c0,2.1-0.1,3.8-0.1,5.6
				c0,1,0.2,1.1,1.3,0.7c2.1-0.7,4.2-0.7,6.3,0.2c1,0.4,1.2,0.3,1.3-0.7c0-0.3,0-0.5,0-0.8c0.1-5.7,0.8-11.4,1.2-17.1
				c0-0.3,0-0.5,0-0.8C257.9,62.7,257.9,62.4,257.9,62.2z M253.7,75c0.9,0.8,1.1,1.9,0.6,2.7c-0.6,0.7-1.4,1-2.3,0.8
				c-1.2-0.3-2-1.3-2-2.4c0-0.8,0.5-1.4,1.3-1.8c1-0.3,1.6,0,2.3,0.5C253.6,74.9,253.6,75,253.7,75z M273.6,68.4
				c0.1-0.7,0.1-1.4,0.1-2.1c0-2.7-0.3-5.4-1.9-8c-1.5-2.5-4.2-3.9-7.6-4.3c-1.3-0.2-1.5,0.1-1.7,1.2c-0.2,1.3-0.5,2.7-0.6,4
				c-0.1,6.3-1.2,12.5-1.5,18.7c-0.1,2.5-0.4,5-0.7,7.5c-0.2,1.5,0.1,1.6,1.8,1.1c2.7-0.8,4.7-2.4,6.2-4.3c3.3-4.1,5.4-8.7,5.7-13.8
				C273.5,68.3,273.6,68.4,273.6,68.4z M284.2,75.6c2-3.5,2.5-7.3,2-11.3c-0.2-1.7-0.8-3.2-2.2-4.5c-2.9-3.1-6.8-5-11.5-5.9
				c3,2.2,4.2,4.9,4.7,7.8c1.1,6.5-0.1,12.7-3.6,18.4c-0.9,1.4-0.9,1.4,0.6,2.4c0.3,0.2,0.6,0.4,0.9,0.6c1,0.7,1,0.7,2,0
				c3.1-2.1,5.3-4.8,7.1-7.8C284.2,75.5,284.2,75.5,284.2,75.6z"/>
		</g>
		<g>
			<path class="st0" d="M324.9,60.8c0.7,0.6,1,1.2,0.7,1.9c-0.3,0.6-0.9,0.8-1.8,0.7c-0.2-0.1-0.5-0.1-0.7-0.2
				c-2.4-0.3-2.3-0.3-2.9,1.4c-1.4,4.4-2.2,8.9-3.6,13.2c-1.4,4.3-2.3,8.6-3.5,13c-1.6,5.7-3.2,11.4-4.8,17.1c-0.7,2.5-1.4,5-2,7.5
				c-0.2,1-0.2,1.2,0.9,1.6c0.3,0.1,0.6,0.1,0.8,0.3c0.6,0.3,0.9,0.9,0.8,1.5c-0.1,0.6-0.5,1.1-1.2,1.2c-0.7,0.1-1.4,0-2-0.2
				c-1.2-0.5-2.3-0.9-3.5-1.5c-2.6-1.5-5.5-1.9-8.5-1.6c-0.8,0.1-1.6,0.2-2.4,0.2c-0.5,0-1-0.1-1.6-0.3c-0.6-0.3-1-0.7-0.9-1.4
				c0.1-0.6,0.6-1.1,1.2-1.1c2.1,0.2,2.2-1.2,2.5-2.6c1.4-5.8,2.4-11.8,3.6-17.7c0.3-1.5,0.9-2.9,0.4-4.6c-0.3-1.2-0.7-2.2-1.9-3.1
				c-1-0.6-1.1-1.4-0.5-1.9c0.5-0.5,1.3-0.6,2.4-0.1c1.5,0.6,1.5,0.6,1.8-0.8c0.9-5.2,2.4-10.3,3.2-15.5c0.4-2.3,0.9-4.6,1.3-6.9
				c0.3-1.5,0.3-1.5-1.5-2.2c-1.1-0.4-1.6-1-1.5-1.7c0.1-0.7,0.9-1.1,2.1-1.1c1.5,0.1,2.9,0.6,4.2,1.2c2,0.9,3.9,1.8,6.1,2.3
				c1.7,0.4,3.4,0.6,5.1,0.4c1.6-0.1,3.2-0.1,4.8,0.1c0.9,0.1,1.9,0.4,2.6,0.9C324.9,60.8,324.9,60.8,324.9,60.8z M314.4,71
				c0.9-2.3,1.2-4.7,1.8-7c0.2-0.7-0.2-1.1-1.2-1.2c-1.5-0.2-3-0.3-4.5-0.8c-0.9-0.3-1.8-0.6-2.7-0.8c-0.7-0.2-1-0.1-1.1,0.4
				c-0.1,0.3-0.1,0.5-0.2,0.8c-1.4,6.8-2.7,13.7-4.3,20c-0.4,2-0.7,3.6-1,5.2c-0.2,1.1-0.1,1.2,1.1,1c2.2-0.3,4.2,0.1,6.1,1.4
				c0.9,0.6,1.1,0.5,1.4-0.3c0.1-0.3,0.2-0.7,0.2-1c1.2-5.6,2.9-11.1,4.3-16.6c0.1-0.3,0.1-0.5,0.2-0.8
				C314.5,71.1,314.4,71.1,314.4,71z M306.8,81.6c1.1,0.4,2,1.9,1.8,3c-0.2,0.7-0.7,1.1-1.4,1.3c-0.8,0.2-1.5-0.1-2.2-0.6
				c-1-0.9-1.3-2.1-0.7-3.1c0.5-0.6,1.4-1,2.3-0.7C306.7,81.6,306.7,81.6,306.8,81.6z"/>
		</g>
		<g>
			<path class="st0" d="M397.4,88.5c0.6,0.7,0.8,1.4,0.3,2c-0.4,0.6-1.1,0.6-2,0.4c-0.3,0-0.5-0.1-0.7-0.3c-2.1-0.9-2.1-0.8-3,0.6
				c-2.4,3.8-4.1,8-6.4,11.8c-2.4,4-4.4,8.2-6.7,12.3c-2.8,5.1-5.7,10.2-8.6,15.2c-1.3,2.3-2.5,4.5-3.7,6.8c-0.5,1-0.4,1.1,0.5,1.8
				c0.3,0.1,0.5,0.3,0.8,0.5c0.5,0.5,0.7,1.1,0.5,1.7c-0.2,0.6-0.7,0.9-1.4,0.9c-0.7-0.1-1.4-0.4-2.1-0.9c-1.1-0.8-2.2-1.6-3.2-2.5
				c-2.1-1.9-4.7-2.9-7.5-3.3c-0.5,0-1-0.2-1.5-0.2c-2.5-0.2-3.9-1.6-4.7-3.7c-0.4-1-0.7-2.1-0.7-3.3c-0.2-5.2,0.1-10.4,0.7-15.5
				c0.6-5.6,1.3-11.3,2.2-16.9c0.6-3.6,1.6-7.1,2.3-10.7c0.6-2.8,1-5.7,1.1-8.7c-0.8,0.8-1.2,1.7-1.5,2.6c-2.3,7.1-5.5,14-8.2,21
				c-1.3,3.5-2.6,7-4.1,10.5c-1.7,4.2-3.6,8.4-5.2,12.7c-0.5,1.4-0.5,1.3,0.9,2c0.3,0.1,0.5,0.2,0.8,0.4c0.5,0.4,0.7,0.9,0.6,1.5
				c-0.1,0.6-0.6,0.9-1.2,1c-0.8,0.1-1.5-0.1-2.2-0.4c-1.1-0.6-2.2-1.2-3.3-1.9c-2.5-1.8-5.3-2.5-8.3-2.5c-0.7,0-1.4,0-2.1-0.1
				c-0.7,0-1.4-0.1-2-0.4c-0.6-0.4-0.9-0.9-0.8-1.6c0.2-0.6,0.7-1,1.3-0.9c2.1,0.4,2.3-0.9,2.8-2.3c2-5.7,3.6-11.5,5.5-17.3
				c0.4-1.5,1.2-2.8,0.9-4.5c-0.2-1.2-0.4-2.3-1.6-3.2c-0.8-0.7-0.8-1.4-0.3-2c0.5-0.6,1.4-0.6,2.4-0.1c0.3,0.2,0.6,0.4,0.9,0.5
				c0.2,0.1,0.4,0.3,0.6,0.2c0.4-0.2,0.4-0.7,0.6-1.1c2.1-7,4.6-13.9,6.6-21c0.1-0.3,0.2-0.7,0.3-1c0.2-1.1,0.1-1.2-1.2-1.8
				c-0.2-0.1-0.5-0.1-0.7-0.2c-0.7-0.4-1.2-0.9-1.1-1.6c0.2-0.6,0.9-1,2-0.8c0.8,0.1,1.6,0.3,2.4,0.7c1.2,0.5,2.4,1.2,3.5,1.8
				c3.3,1.9,6.5,3.1,10.3,3.2c1.6,0,3.3,0.3,4.9,0.8c1.9,0.6,2.5,1.3,2.6,2.9c0,1.5-0.3,3.1-0.5,4.5c-0.7,6.3-2.1,12.3-3.3,18.5
				c-1.6,7.8-3.5,15.6-4.4,23.7c-0.2,2.4-0.4,4.9,0.2,7.4c0.1,0.4,0.3,0.9,0.4,1.3c0.2,0.5,0.2,1.3,0.9,1.4c0.6,0.1,0.6-0.7,0.8-1.1
				c2.5-4.8,4.5-9.7,6.8-14.6c0.3-0.7,0.6-1.3,1-1.9c0.8-1.2,0.9-2.6,0.9-4.1c-0.1-0.8-0.3-1.6-1.1-2.3c-0.2-0.2-0.2-0.3-0.3-0.4
				c-0.5-0.7-0.5-1.4,0.1-1.8c0.5-0.4,1.4-0.4,2.1,0c0.6,0.3,0.9,1.2,1.6,1c0.7-0.2,0.7-1,0.9-1.5c3-6.5,6.3-12.9,9.1-19.5
				c0.2-0.4,0.4-0.8,0.5-1.2c0.3-0.7,0.2-1.3-0.8-1.7c-0.3-0.1-0.6-0.4-0.9-0.6c-0.6-0.4-0.8-1-0.6-1.6c0.2-0.5,0.7-0.7,1.3-0.7
				c0.9,0.1,1.6,0.4,2.4,0.8c1.1,0.7,2.2,1.5,3.3,2.3c3.1,2.4,6.4,4.2,10.3,4.7c1.4,0.2,2.8,0.6,4.2,1.1c0.8,0.3,1.5,0.7,2.1,1.4
				C396.8,88.4,397.1,88.4,397.4,88.5z M345,87c1.8-4.6,3.7-9.1,5.3-13.8c0.3-0.9,0.2-1.1-1-1.3c-2.3-0.4-4.4-1.4-6.4-2.2
				c-0.2-0.1-0.4-0.1-0.7-0.2c-0.6-0.3-1.1-0.1-1.2,0.4c-0.1,0.3-0.2,0.5-0.2,0.8c-2.1,6.7-4.2,13.3-6.4,19.4
				c-0.7,2.1-1.2,3.8-1.7,5.5c-0.2,0.8-0.1,1,0.7,1c2.4-0.2,4.6,0.4,6.4,2.1c0.4,0.4,0.8,0.4,1-0.1c0.1-0.4,0.3-0.8,0.4-1.3
				c1.2-3.3,2.4-6.6,3.7-9.8C344.8,87.2,344.9,87.1,345,87z M339.6,89.4c1,0.5,1.6,2.1,1.3,3c-0.2,0.7-0.8,1-1.5,1.2
				c-0.8,0.1-1.5-0.2-2.1-0.8c-0.9-1-1.1-2.2-0.4-3.1c0.6-0.7,1.7-0.9,2.4-0.4C339.4,89.3,339.5,89.4,339.6,89.4z M381.7,101.9
				c2.4-4.3,4.8-8.6,7-13c0.4-0.9,0.4-1-0.9-1.4c-2.3-0.7-4.2-1.9-6.2-3.1c-0.2-0.1-0.4-0.2-0.6-0.3c-0.6-0.4-1-0.3-1.3,0.2
				c-0.1,0.2-0.2,0.5-0.3,0.7c-2.9,6.3-5.8,12.7-8.8,18.4c-0.9,2-1.7,3.7-2.4,5.3c-0.3,0.7-0.2,1,0.6,1.1c2.4,0.1,4.5,1.1,6.2,2.9
				c0.4,0.5,0.7,0.5,1,0c0.2-0.4,0.4-0.8,0.6-1.2c1.6-3.1,3.2-6.2,5-9.2C381.5,102.2,381.6,102,381.7,101.9z M376.5,107
				c-0.3,0.6-0.9,0.9-1.8,0.9c-0.8,0-1.5-0.5-1.9-1.1c-0.8-1.1-0.7-2.3,0.2-3.1c0.6-0.5,1.6-0.5,2.4-0.1
				C376.4,104.4,376.9,106.1,376.5,107z"/>
		</g>
		<g>
			<path class="st0" d="M411.8,168.9c0.1,0.8-0.2,1.4-0.9,1.6c-0.8,0.2-1.4-0.4-1.9-0.9c-0.5-0.6-0.7-1.4-0.9-2.2
				c-0.1-0.8-0.3-1.6-0.5-2.4c-0.5-1.7-1.3-2.5-3.1-2.6c-3-0.2-5.9-0.8-8.6-2.1c-3.8-1.7-6.4-4.5-8.4-7.9c-2.6-4.7-3.2-9.5-2.9-14.5
				c0.3-4.3,1.4-8.4,2.9-12.4c0.7-1.9,0.9-3.9,0.2-6.1c-0.1-0.3-0.2-0.6-0.2-0.9c-0.2-0.6,0-1,0.6-1.2c0.6-0.3,1.3-0.1,1.9,0.4
				c0.4,0.3,0.7,0.7,1.2,1.2c0.8-1,1.5-1.9,2.2-2.8c4.8-5.8,10.9-10.3,19.6-11.8c3.6-0.6,7.4-0.5,11.3,0.6
				c8.3,2.3,13.7,7.8,16.5,15.1c0.2,0.7,0.3,1.4,0.8,2.3c0.9-0.2,1.4-0.8,1.6-1.5c0.1-0.4,0.2-0.7,0.4-1.1c0.4-0.7,1.1-0.8,1.9-0.4
				c0.8,0.4,1.3,1,1.3,1.7c0,0.4-0.1,0.9-0.2,1.2c-0.4,1.1-0.9,2-1.8,2.7c-0.8,0.6-1.6,1.2-2.4,1.9c-1.4,1-2.6,2-3.3,3.6
				c-0.4,1.1-1.3,1.3-2.2,0.7c-1-0.5-1.4-1.5-1.1-2.6c0.3-1.1,0.7-2.1,1.7-2.8c0.7-0.6,0.8-1.3,0.6-2.2c-0.6-3.2-1.9-6.4-4.3-9.3
				c-1.3-1.6-2.7-2.3-4.5-2.2c-3.1,0.2-5.7,1.1-8.1,2.3c-4.8,2.4-8.7,5.7-12.2,9.4c-3.8,4-6.6,8.5-9.3,13.2
				c-2.1,3.9-3.7,7.9-4.3,12.4c-0.2,1.5-0.2,2.9,0,4.3c0.5,2.7,2.1,3.7,5.2,3.6c1.4,0,2.7-0.6,3.6-1.6c4-4.9,8.4-9.4,11.9-14.6
				c0.8-1.2,0.9-2.4,0.2-3.8c-0.7-1.3-1.7-2.4-3.2-3.2c-0.4-0.2-0.8-0.4-1.2-0.6c-0.7-0.5-1-1-0.9-1.7c0.1-0.8,0.7-1,1.5-1
				c1.5,0.2,2.8,0.8,4,1.9c0.8,0.7,1.4,1.5,2.1,2.3c0.9,1.3,1.7,2.6,2.8,3.7c1.8,1.9,3.9,2.9,6.2,2.9c0.6,0,1.2,0,1.8,0.1
				c0.8,0.2,1.4,0.8,1.6,1.6c0.2,0.8-0.2,1.3-0.9,1.5c-0.2,0.1-0.5,0.1-0.8,0.1c-1.5,0.1-2.6,0.9-3.4,2c-4.1,5-7.9,10.1-11.8,15.3
				c-1.5,1.9-2.6,4-2.1,6.7C412,169,411.9,169,411.8,168.9z M401.4,128.1c2.6-4,5.7-7.5,9.4-10.6c4.1-3.6,8.6-6.6,14.6-7.9
				c0.1,0,0.2-0.2,0.2-0.5c-0.9-0.5-1.9-0.7-2.9-0.9c-3.6-0.7-6.8-0.5-9.9,0.2c-6,1.4-10.7,4.5-14.5,8.4c-1.9,2-3.4,4.2-4.9,6.4
				c-0.5,0.7-0.4,0.9,0.7,1.2c0.2,0,0.5,0.1,0.7,0.1c1.9,0.6,3.6,1.6,4.8,3.3c0,0.1,0.2,0.3,0.3,0.5c0.4,0.4,0.6,0.4,0.9,0
				c0.1-0.2,0.3-0.5,0.4-0.7C401.2,127.9,401.3,128,401.4,128.1z M401.3,123c-0.6,0.9-1.6,1.2-2.6,0.6c-0.9-0.6-1.2-1.8-0.7-2.7
				c0.5-0.8,1.4-1,2.4-0.5C401.4,121.1,401.8,122.2,401.3,123z"/>
		</g>
	</g>
	<g>
		<g>
			<path class="st0" d="M164.8,262.5c-10.8-0.4-18.3-4.9-24.1-11.8c6.2-1.7,12.4-3,18.3-5.2c6-2.3,10.5-6.8,13.4-12.6
				c-6.4-2-12.7-4-19-6c7.8-4.5,15.5-8.5,21-15.7c-4.1-1.8-8-3.4-13-5.6c7.5-1.6,13.1-4.2,17.3-9.1c-4.1-2.2-7.9-4.2-12.1-6.4
				c4.8-2.2,8.9-4.1,13.1-6c0-0.4-0.1-0.8-0.1-1.1c-3.3-1.5-6.6-2.9-9.6-4.3c3.9-2.6,7.9-5.2,12.7-8.4c-4.4-1-7.5-1.7-11.8-2.7
				c4.6-4,8.3-7.2,12.1-10.5c-0.3-0.4-0.6-0.8-0.9-1.2c-1.9-0.5-3.8-0.9-5.5-1.4c2.4-3,4.9-6.2,8.1-10.2c-2.1,0.3-3,0.4-3.7,0.5
				c3-7.3,5.9-14.5,8.9-21.8c3.1,7.3,6.1,14.6,9.2,22.1c-0.6-0.2-1.5-0.4-3.8-0.9c2.9,4.3,5.2,7.6,7.5,11c-1.6,0.4-3.5,0.8-5.3,1.2
				c-0.4,0.5-0.8,1-1.2,1.4c3.6,3.1,7.2,6.2,11.4,9.7c-3,1-5.7,2-9.4,3.3c3.7,3.3,7.1,6.3,10.6,9.3c-1.5,0.4-3.2,0.8-4.9,1.3
				c-1.6,0.5-3.2,0.9-4.8,1.4c-0.1,0.4-0.2,0.8-0.3,1.1c4.2,2.1,8.3,4.2,13.1,6.6c-3.7,1.9-7.3,3.8-10.8,5.6
				c5.5,7.3,10,8.1,16.4,2.6c-2.5-0.9-4.8-1.8-7.4-2.7c1.6-1.1,3.1-2,4.4-3.1c1.3-1,2.5-2.2,4.1-3.8c-1.8-0.4-2.9-0.6-4.3-0.9
				c1.9-2.1,3.7-4.2,5.8-6.6c-1.3,0-1.9,0-2.7,0c2.6-5.8,5.1-11.5,7.8-17.7c2.7,5.9,5.2,11.7,7.9,17.6c-0.8-0.1-1.5-0.1-3.4-0.3
				c2.7,3.2,4.9,5.6,7.2,8.3c-0.8,0.5-1.9,1.1-3.6,2.1c2,1.6,3.8,3.1,5.9,4.8c-2.4,0.7-4.7,1.4-8.1,2.4c3.9,2.4,7.1,4.4,10.5,6.5
				c-2.7,0.9-5.3,1.7-7.8,2.6c-0.1,0.4-0.2,0.7-0.3,1.1c3.6,1.4,7.2,2.7,11.3,4.3c-3.2,1.3-6.2,2.5-9.1,3.7c3.6,5,14.7,7.7,18.1,4
				c-2.7-1-5.4-1.9-8-2.9c3.6-2.2,7-4.3,10.4-6.3c-0.1-0.3-0.3-0.6-0.4-0.9c-2.5-0.3-4.9-0.6-7.6-1c2.9-2.3,5.6-4.4,9-7
				c-2.9-0.4-4.9-0.8-8-1.2c3.1-2.8,5.7-5.1,8.8-7.9c-2.1-0.3-3.3-0.5-4.7-0.7c1.7-2,3.3-3.9,5.2-6.1c-1-0.2-1.5-0.3-1.9-0.3
				c1.8-4.2,3.5-8.4,5.1-12.2c1.7,3.8,3.5,8.1,5.4,12.4c-0.3,0-0.9,0-2.1,0c1.7,2.2,3.2,4,4.9,6.1c-1.3,0.2-2.4,0.4-4,0.7
				c2.7,2.7,5.1,5.1,7.9,8c-2.7,0.1-4.8,0.3-7.8,0.4c3.1,2.9,5.6,5.2,8.6,7.9c-2.3,0.3-4.2,0.6-6.2,0.9c-0.2,0.3-0.4,0.6-0.6,0.8
				c3.2,2.1,6.4,4.2,9.9,6.4c-2.5,0.8-5.2,1.7-8.1,2.7c4.3,6.4,11.2,5,17.6,5.3c-1.4-0.8-2.9-1.6-4.2-2.3c3.9-2,7.6-4,12.1-6.4
				c-3.7-2-6.6-3.5-9.8-5.1c2.6-1.5,4.6-2.8,7-4.2c-2.2-1.4-3.9-2.5-5.8-3.7c3.4-2.2,6.6-4.2,10.4-6.6c-2.6-1.2-4.4-2.1-6.5-3
				c2.3-2.1,4.5-4,6.9-6.2c-1.8-0.6-3.1-1.1-4.5-1.5c5.6-6.1,6-6.9,3.8-7.7c2-4.6,3.9-9.3,6-14.2c2.3,5.2,4.5,10.2,6.5,14.7
				c-1.9,4,1.8,5.4,3.2,7.9c-1.2,0.3-2.4,0.5-4.5,1c2.5,2.4,4.5,4.4,6.7,6.5c-2,0.7-3.9,1.4-6.8,2.4c3,2.4,5.6,4.5,8.5,6.8
				c-2,0.9-4.2,1.9-7.4,3.3c3.8,1.9,6.8,3.4,10.1,5.1c-2.6,1.3-5,2.6-7.4,3.9c2.7,3.8,9.1,1.9,14.8-4.5c-3.3-1.7-6.7-3.4-10.3-5.2
				c4.4-2,8.2-3.8,12.1-5.5c-0.1-0.4-0.1-0.7-0.2-1.1c-2.9-1-5.8-2.1-8.7-3.1c3.4-2.6,6.6-5.1,10.4-8c-3.1-1.2-5.3-2.1-7.7-3
				c2.8-2.4,5.3-4.7,8.6-7.6c-2.5-0.6-4-0.9-5.7-1.3c2.1-2.5,4.2-5,5.8-6.9c-0.6-1.6-1.4-2.6-1.1-3.3c2.3-5.4,4.7-10.7,7.1-16
				c2.6,6,5.3,12,8,18.3c-1,0-2,0-4,0c2.6,3,4.6,5.4,6.9,8c-1.5,0.1-2.9,0.3-4.4,0.4c-0.4,0.4-0.7,0.8-1.1,1.2
				c2.8,2.5,5.6,4.9,8.5,7.5c-2.3,0.9-4.7,1.8-8.1,3c3.7,2.8,7,5.4,10.4,8c-2.5,1-5.3,2.2-8.1,3.3c-0.1,0.4-0.1,0.7-0.2,1.1
				c3.6,1.7,7.3,3.4,11.4,5.4c-3.1,1.6-6.2,3.1-10.4,5.3c5.6,3.1,10.7,5.8,16.6,9c-4,1.5-7.6,2.8-12.3,4.5
				c6.3,4.2,12.2,8.1,18.1,12.1c-5.3,2.8-11.5,3.9-19.2,3.5c8.6,7.9,18.2,11.3,28.8,13.9c-6.9,3.9-13.7,5.6-22.1,5.4
				c7.7,10.2,18.3,12.8,29.9,14.9c-1.9,1.8-3.5,3.3-5.3,5c5.2,4.1,5.7,9.9,5.6,16.1c-0.2,12.6,0,25.1-0.1,37.7c0,3,1,4.2,3.7,4.9
				c5.6,1.5,11.2,3.4,16.7,5.9c-6.6,0-13.2,0-20,0c-1.2,6.2-3.8,10.8-10.2,11.8c-2,0.3-4.2,0.1-6.3,0c-49.8-4-99.7-5.3-149.7-3.9
				c-25.7,0.7-51.4,2.8-77.1,4.3c-6.9,0.4-11-2.9-13.9-11.8c-6.7,0-13.5,0-20.3,0c-0.1-0.3-0.1-0.6-0.2-0.8c5-1.6,9.9-3.1,14.9-4.7
				c6.2-1.9,6.2-1.9,6.2-8.2c0-12.7,0.1-25.4,0-38.1c-0.1-7.3,2.8-12.4,9.9-15.2C148.4,275.5,156.4,269.9,164.8,262.5z M185,344.6
				c2.8,3.1,6.8,2.6,10.8-0.9c2.4,0.4,4.4,0.9,6.5,0.9c1.4,0,3.7-0.8,3.9-1.5c0.3-1.8-0.2-3.8-0.8-5.6c-0.3-0.8-1.5-1.3-2.3-2
				c0.4-0.1,0.8-0.2,1.2-0.3c-0.4-3.3-1-6.6-1.1-9.8c0-2,0.3-4.8,1.6-5.9c7.5-5.9,12-13.8,16-22.1c0.8-1.6,1.5-3.2,2.3-4.8
				c0.4,0.1,0.8,0.2,1.3,0.3c0,18.3,0,36.6,0,55.2c2.1-0.1,3.5-0.2,5.3-0.2c0-18.5,0-36.7,0-54.7c4.7-1.5,6.6,0,8.1,4.4
				c2.2,6.7,5.4,13,8.5,19.4c0.6,1.3,2.7,2.4,4.2,2.5c5.2,0.3,10.4,0.1,15.6,0.1c5.4,0,10.8,0,15.2,0c3.2-8.4,6.2-16,9-23.3
				c1.8,0.2,2.9,0.3,3.9,0.5c-23.3-17.8-45.3-36.6-63.1-60.8c-0.5,0.8-0.8,1.5-1.2,2c-13.9,18.4-30.6,34.1-48.7,48.2
				c-1,0.8-2.3,1.6-3.5,1.6c-7.5,0.1-14.9,0.1-21.9,0.1c-0.8-3.5-1.5-6.7-2.2-9.9c-0.5,0.1-1,0.1-1.4,0.2c-0.5,1.9-1,3.8-1.5,5.8
				c-0.6-1-1.1-1.9-1.6-2.7c-1.2,1-2.1,1.8-3.1,2.7c0.2,1.2,0.4,2.4,0.7,3.9c-2.6,0-4.8,0-7.6,0c0.6,1.9,1.1,3.4,1.6,4.9
				c7.8-0.5,7.9-0.4,7.8,7.2c-0.1,8.2-0.7,16.3-0.7,24.5c0,6.8,0.6,13.5,0.7,20.3c0.1,4.7,0.2,5,4.8,3.7c0.1-0.2,0.2-0.5,0.2-0.7
				c0-10.9-0.1-21.9,0-32.8c0-2.8,0.5-5.5,0.8-8.3c4.1-2.7,8.3-5.5,12.4-8.2c2-0.8,4.1-1.7,5.6-2.3c0.1,0.6,0.2,1.4,0.3,2.1
				c0.4,3.3,1.5,6.6,1.1,9.8c-0.7,5.8-3,11.4-3.3,17.1c-0.2,3.8,1,8.3,3.2,11.4c2,2.9,6.1,4.4,9.3,6.5
				C183.5,343.3,184.3,344,185,344.6z M334.7,338.4c9.2,5.1,19.9,5.9,28.8,2.4c3.4-1.3,5.5-3.2,5.4-7.3c-0.2-8.1,0.1-16.3,0-24.4
				c0-1.6-0.8-3.3-1.3-4.9c-0.5-1.8-1.5-3.5-1.5-5.3c0-6.3-1.5-12-6-16.4c-3.7-3.6-6.1-7.7-7.1-12.6c-1.3-6.9-5.5-11.1-12.2-12.7
				c-3-0.7-3.9-2.9-3-5c1.7-4,0-7.2-1.4-10.6c-2.3-5.2-6.9-7.2-12.1-5.3c-5.5,2.1-8,6.6-6.2,12c1.2,3.6,2.7,7,4.2,10.7
				c-4.5,1.9-6,5.8-6.4,10.5c-0.3,3.7-0.2,7.5-1.1,11.1c-0.5,2.3-1.9,5.4-3.8,6.3c-4.2,2-5.7,3.3-4.8,8c0.7,3.6,1.6,6.8,0.9,10.8
				c-1,5.8-0.5,12,0.5,17.8c1.2,7.5-3.4,11-8.9,13.7c-1.4,0.7-2.5,2.3-3.7,3.5c1.6,1.4,3.1,3.8,4.8,4c3,0.3,6.2-0.8,9.3-1.3
				c1.6-0.3,3.2-0.6,5.1-1c-0.6,4.1,0.6,6.5,4,7.3C324.4,350.9,333.6,344.7,334.7,338.4z M138.6,319.8c1.2-2.2,1.9-3.7,2.5-4.8
				c-1.5-1.1-3.1-2.2-4.7-3.4c-0.2,0.3-0.5,0.5-0.7,0.8C136.6,314.8,137.5,317.1,138.6,319.8z"/>
		</g>
		<g>
			<path class="st0" d="M154.2,306.3c-0.2-4.3-0.6-8.6-0.6-12.9c0-0.4,1.9-1.2,2.9-1.2c4.9-0.1,9.8-0.1,15.6-0.1
				c-2.3,2.5-3.9,4.2-5.5,5.9C162.5,300.8,158.3,303.5,154.2,306.3z"/>
		</g>
		<g>
			<path class="st0" d="M182.8,342.7c-2.3-2-4.8-3.8-6.9-5.9c-1.1-1.1-1.6-2.8-2.4-4.2c0.4-0.3,0.7-0.6,1.1-0.9c1.8,1,3.5,2,5.3,2.9
				c0.7,1.2,1.4,2.4,2.1,3.7c1.4,0.8,2.7,1.6,4.1,2.3c0.3,1.5,1.8,3.4-1.1,4C184.3,344,183.5,343.3,182.8,342.7z"/>
		</g>
		<g>
			<path class="st0" d="M197.7,299.4c1.6,1.1,2.8,1.9,4.5,3c-0.7,3.6-1.2,7.6-2.4,11.4c-1.6,5.1-7,8.2-12.3,7.5
				c-8.6-1.2-13.9-8.8-12.4-17.8c0.3-2.1,1.7-2.6,3.7-2.6c5.6,0,11.2-0.1,16.7-0.3C196.2,300.4,197,299.7,197.7,299.4z M180.9,304
				c0,0.3,0,0.6,0,0.9c5.2,0,10.3,0,15.5,0c0-0.3,0-0.6,0-0.9C191.2,304,186.1,304,180.9,304z"/>
		</g>
		<g>
			<path class="st0" d="M182.5,289.7c13.9,0,27.9,0,41.8,0c0.2-1.7,0.3-2.5,0.5-3.6c1,0.7,1.9,1.3,2.7,1.9c0.4-1.4,0.9-3,1.4-4.6
				c0.3,0,0.6,0.1,0.9,0.1c0,1.6,0,3.1,0,5.3c3.7,0,7.6,0,11.5,0c0,0.5,0.1,1,0.1,1.4c-3.7,2.9-8.5-0.5-12.9,1.7
				c-1.3,18,1,36.6-1.3,55c-0.6,0-1.2,0-1.8,0c0-4.8,0.1-9.5,0-14.3c-0.1-9.6-0.4-19.1-0.5-28.7c0-2.9,0.2-5.8,0.6-8.7
				c0.3-3-0.9-4.2-3.8-4.1c-8.3,0.1-16.5,0.2-24.8,0.3c-4.7,0-9.5,0-14.2,0C182.6,290.8,182.6,290.3,182.5,289.7z"/>
		</g>
		<g>
			<path class="st0" d="M150.1,290.2c0.9-3.2,1.8-6.3,2.7-9.5c0.4,0,0.7,0.1,1.1,0.1c-0.1,2.5-0.2,5-0.4,8.3c9.1,0,18.3,0,27.6,0
				c0,0.5,0,1,0,1.5c-9.4,0-18.7,0-28.4,0c-0.1,2.4-0.3,4.3-0.3,6.1c-0.1,15.7-0.2,31.5-0.4,47.2c0,1.4-0.5,2.7-0.8,4.1
				c-0.5-0.1-1-0.2-1.5-0.3c0-2.3,0-4.7,0-7c0-15.2-0.1-30.4-0.1-45.5C149.5,293.5,149.9,291.8,150.1,290.2
				C150.2,290.1,150.1,290.2,150.1,290.2z"/>
		</g>
		<g>
			<path class="st0" d="M199.2,341.5c-2.7,1-8.4-1.4-9.8-4.2c-0.2-0.5-0.7-0.8-1-1.3c0,0,0,0,0,0c-0.2-3.1,2.6-3.1,4-2.7
				c3.6,1.1,7,2.8,10.4,4.4c0.2,0.1,0,1-0.1,1.5C201.5,340,200.4,340.7,199.2,341.5z"/>
		</g>
		<g>
			<path class="st0" d="M231,287.4c0.2-1.1,0.4-2.3,0.7-3.6c-1-0.7-2-1.3-3.2-2.1c-0.6,0.9-1.2,1.6-1.7,2.4
				c-0.2-0.1-0.3-0.1-0.5-0.2c1.4-5.3,2.8-10.7,4.4-16.8c1.2,6.8,2.3,12.6,3.1,18.5c0.1,0.8-1,1.8-1.6,2.7
				C231.8,287.9,231.4,287.6,231,287.4z"/>
		</g>
		<g>
			<path class="st0" d="M182,338.3c-0.7-1.2-1.4-2.4-2.1-3.7c-0.3-1.5-0.7-3-1-4.5c2.8-1.7,4.8-1.9,6.2,1.3c0.7,1.6,2.1,3,3.2,4.5
				c0,0,0,0,0,0c-1,0.4-1.9,0.7-2.9,1.1C184.3,337.5,183.2,337.9,182,338.3z"/>
		</g>
		<g>
			<path class="st0" d="M182,338.3c1.1-0.4,2.3-0.8,3.4-1.3c0.8,0,1.8-0.4,2.2,0c2.1,2,4.1,4.2,6.3,6.7c-1.9,0.7-3.8,1.3-6.4,2.3
				c0.3-1.8,0.5-2.9,0.8-4.2c-0.4-0.2-1.3-0.7-2.2-1.2C184.7,339.9,183.4,339.1,182,338.3z"/>
		</g>
		<g>
			<path class="st0" d="M202.6,333.4c-3.4-5.6-4-11.3-0.7-17.1c-0.2,2.2-0.1,4.6-0.8,6.6c-0.7,2.1-1.6,3.7,0.6,5.6
				C202.6,329.4,202.3,331.7,202.6,333.4z"/>
		</g>
		<g>
			<path class="st0" d="M150.2,290.1c-3.5,1.3-6.9,1.2-9.1-0.7C144,289.6,147.2,286.6,150.2,290.1
				C150.1,290.2,150.2,290.1,150.2,290.1z"/>
		</g>
		<g>
			<path class="st0" d="M171.1,327.6c0.7-1.5,1.5-2.9,2-4.4c0.4-1.4,0.4-2.9,0.4-4.3c-0.1-2.2-0.5-4.4-0.2-6.6
				C174.1,317.6,176.1,323.1,171.1,327.6z"/>
		</g>
		<g>
			<path class="st0" d="M199.2,341.5c1.2-0.7,2.3-1.5,3.5-2.2c0.8,0.6,1.6,1.3,2.5,1.9c-0.8,0.6-1.6,1.8-2.3,1.7
				C201.6,342.8,200.4,342,199.2,341.5z"/>
		</g>
		<g>
			<path class="st0" d="M336.4,326.4c-2.6,4.2-4.7,8.4-3.9,13.6c0.2,1.1-1.4,3.1-2.7,3.7c-3.1,1.6-6.3,3-9.7,4
				c-1.2,0.3-2.8-0.9-4.2-1.5c0.7-1.4,1.1-3.5,2.3-4.2c5.6-3.4,7.7-8.5,8.7-14.6c1.2-7.4,2.9-14.8,4.3-22.6
				c-2.4,6.9-7.4,0.7-10.2,2.3c-1.6,8-3.2,15.6-4.6,23.3c-0.2,1.2,0.3,2.7,0.8,4c1.6,4.2,0.3,6-4,6.4c-2.5,0.2-4.8,1.3-7.3,1.8
				c-3.3,0.6-6.8,1.7-9.3-1.8c3.5-2.5,6.6-5,10.1-7c2.4-1.4,2.7-3.4,2.7-5.6c0.1-7.6-0.2-15.2,0-22.8c0.2-6.7,0.3-6.7,7.1-7.1
				c0.6,0,1.3-0.5,1.9-0.8c8.8,1.5,17.4,1.4,25.8-1.8c-8.2,1.9-16.4,2.7-24.7,1.1c-0.3-0.1-0.7,0.5-1.1,0.8
				c-2.3-0.1-4.5-0.5-6.8-0.2c-2.9,0.4-3.7-0.7-3.8-3.4c-0.2-3.1,1.7-4.4,3.9-5c1.8-0.6,3.9-0.1,6.4-0.1c0.1,2.3,0.2,4.3,0.3,6.4
				c0.2,0,0.4,0,0.6,0.1c0.2-1.4,0.4-2.8,0.5-3.5c1.7-1.4,3.4-2.1,4-3.4c1.9-4,4.3-3.1,7-1.3c1.2,0.8,2.3,1.7,3.8,2.8
				c-1.2,0.6-2.2,1.2-3.2,1.7c0.1,0.2,0.1,0.4,0.2,0.6c1.7-0.4,3.3-0.8,5.7-1.4c-2.5-2.1-4.4-4-6.6-5.3c-2.1-1.2-4.6-1.8-6.5-2.6
				c-0.8,2.1-1.8,4.5-2.6,6.6c-2.7-0.8-4.7-1.5-5.9-1.9c0.7-6.3,1.5-12.8,2.3-19.3c0.5-4,2.5-6.9,6.4-8.3c0.4-0.2,1.1,0.4,1.7,0.6
				c-2.5,4.9-1.3,9.8-0.1,14.7c1.2,0.6,2.4,1.3,4,2.1c0-4.9,0-8.9,0-12.9c-1.2-1.8-2.4-3.5-3.5-5.3c-5.3-4-6.6-9.8-6.5-15.8
				c0.1-3.5,3.4-5.2,6.8-5.8c3.8-0.7,6.7,0.8,8.1,4.3c1.2,3,3,5.8,1.7,9.7c-1.4,4,0.3,6.2,4.5,7.4c5.6,1.6,9.4,5,10.5,10.8
				c1.1,5.4,3.6,9.7,7.4,13.8c5.4,5.8,7.1,12.9,4.6,20.7c-6,6.4-13.9,7.6-21.4,8.2C339.9,317.3,338.2,321.9,336.4,326.4z"/>
		</g>
		<g>
			<path class="st0" d="M336.4,326.4c1.7-4.5,3.5-9,5.4-14c7.4-0.7,15.4-1.9,21.4-8.2c2.9-0.2,4.1,1.2,4.1,4.1
				c0,8.5,0.1,17.1,0.1,25.6c0,3.1-1.8,4.4-4.8,5.4c-0.2-2.5-0.3-4.7-0.5-6.9c-0.1,0-0.2,0-0.3-0.1c-0.2,0.9-0.3,1.8-0.5,2.6
				c-0.4,1.7-0.4,4.7-1.2,4.9c-3.3,0.9-6.8,1-10.2,1.2c-0.4,0-1.1-1.4-1.1-2.2c-0.2-2.1-0.1-4.3-0.5-6.4c0,1.4,0,2.8,0,4.2
				c0,1.3-0.2,2.6-0.3,4.8c-3.5-1-6.5-1.7-9.4-2.7c-0.8-0.3-1.7-1.5-1.8-2.3C336.5,333,336.5,329.7,336.4,326.4z"/>
		</g>
		<g>
			<path class="st0" d="M322,315.2c0-1.9,0-3.5,0-5.7c1.8,0.1,3.8,0.2,6.5,0.4c-2.7,9.5-1.9,19.6-8.2,28.3c-4.4-8.4,0-15.1,1-22.2
				c0.4,0,0.7,0,1.1,0c0.2,1.1,0.4,2.2,0.6,3.3c0.3,0.1,0.6,0.1,0.9,0.2c1-2.4,1.9-4.9,2.9-7.3c-0.4-0.3-0.8-0.6-1.2-0.9
				C324.5,312.5,323.4,313.7,322,315.2z"/>
		</g>
		<g>
			<path class="st0" d="M325.6,275.2c-1.2-4.9-2.3-9.8,0.1-14.7c0.1-0.5,0.2-0.9,0.3-1.4c1.2,1.8,2.4,3.5,3.5,5.3
				c-0.3,3.1-0.7,6.1-1,9.2c-0.3,0-0.6-0.1-0.9-0.1c0.3-2.2,0.6-4.4,1-7.2c-0.9,1.4-1.4,2.2-2,3.2c-0.2-0.7-0.4-1.1-0.5-1.4
				c-0.2,0-0.4,0.1-0.5,0.1C325.6,270.5,325.6,272.8,325.6,275.2z"/>
		</g>
	</g>
	<g>
		<path class="st0" d="M229.7,169.1c-0.3-0.5-0.4-1.2-0.4-2.1c0-5,4.1-14.6,5.2-17.4c1.4-3.7,2.5-7.1,2.5-7.8v-0.1l-0.1-0.1
			c-0.5,0-3.4,2.7-4.6,4.5c-0.5,0.7-1.2,1.8-1.6,2.5c-1,1.5-3.6,6.8-4.9,9.6c-0.9,1.7-2.6,7.5-5.1,7.5h-0.2
			c-2.5-0.2-3.3-2.8-3.3-6.2c0-5.7,2.3-13.6,2.9-15.3c1.8-5.7,4.1-10.7,7.3-16.4c3.4-5.8,5.5-8.5,8.2-10.7c2.3-1.8,4.2-2.6,5.7-2.6
			c2.3,0,3.6,1.7,3.6,4.4c0,2.1-0.8,4.8-2.5,7.8c-2.8,4.6-9.2,13.3-16.3,21.5l-2.1,2.5c-0.3,0.6-1.5,5.9-1.5,6.6
			c0.1,0,0.8-1.1,1.5-2.6c2.5-4.9,4.6-8.4,6.8-11c2.2-2.7,4.2-4.3,6.4-5c0.5-0.1,1.2-0.3,1.7-0.3c1.4,0,2.7,0.5,3.4,2.1
			c0.1,0.3,0.1,0.7,0.1,1.2c0,2.1-1.2,6.1-4,13.1c-2.3,5.9-3.3,9.2-3.6,12.5l-0.1,0.8c0,0.8,0.2,1.1,0.5,1.1c1.3,0,4.6-5.3,5-5.9
			c1.3-2.2,1.8-3.1,3.2-6.4c0.5-1.3,1.3-3,1.6-3.7c0.3-0.7,0.5-1.4,0.5-1.5l0.4-0.8c0.5-0.5,1.1-0.9,1.6-0.9c0.3,0,0.6,0.1,0.8,0.4
			c0.1,0.2,0.2,0.3,0.2,0.6c0,0.5-0.5,1.6-1.9,4.8c-4.5,9.8-7,13.5-10.1,14.6c-0.8,0.3-1.6,0.4-2.5,0.4
			C232.5,171.3,230.6,170.7,229.7,169.1z M228.4,141.9c7.8-9.8,11.1-14.7,12.5-18.9c0.5-1.6,0.8-2.9,0.8-3.9c0-0.8-0.2-1.3-0.7-1.3
			c-0.5,0-1.6,0.9-3.1,3c-1.8,2.5-6.4,10.9-8.7,15.9c-0.8,1.7-3.3,7.7-3.3,7.9C226.1,144.7,226.6,144.1,228.4,141.9z"/>
		<path class="st0" d="M265.1,172.5c-1.1-0.2-2-0.9-2.5-1.7c-0.3-0.6-0.6-1.3-0.8-2.1c-0.2-0.9-0.2-1.8-0.2-2.8
			c0-3.8,1.1-8.9,3.2-14.7c0.3-0.9,0.6-1.6,0.6-1.7v-0.1c0,0-0.2,0.2-0.4,0.6l-1.5,2.4l-2.3,3.9c-3.3,5.8-7.9,9.4-11.3,9.4
			c-3.1,0-5.3-2.6-5.3-8.4v-0.3c0.1-6.9,5.4-17.2,11.7-20.2c1.6-0.8,3.3-1.2,5-1.2c2.8,0,5.4,1.2,6.9,4.1c0.2,0.6,0.4,0.9,0.5,0.9
			c0-0.2,2.6-3.2,2.9-3.6c0.8-1.2,1.9-1.7,2.9-1.7c0.5,0,0.9,0.1,1.3,0.3c0.6,0.3,0.9,0.7,0.9,1.4c0,1.3-0.9,3.5-2.8,8.6
			c-1.7,4.5-3.2,8.7-4,11.5c-0.7,2.7-1.4,6.2-1.7,9c-0.2,1.3-0.2,2.3-0.2,2.9c0,0.9,0.2,1.4,0.4,1.4c0.6,0,1.7-1.8,2.9-4
			c2-3.7,6.3-12.4,7-14.3c0.3-1,1.3-3.2,2.4-3.2c0.2,0,0.3,0,0.5,0.1c0.3,0.2,0.4,0.2,0.4,0.6v0.2c-0.6,3.5-4.2,11.7-6.4,16.1
			c-0.9,1.8-1.9,3.5-3.2,4.8c-1.3,1.3-3,2.2-5.1,2.2C266.2,172.6,265.7,172.6,265.1,172.5z M265.2,145.2c0.4-0.6,0.5-0.8,0.5-1.3
			v-0.7c-0.2-1.7-0.9-4.9-2.8-4.9c-0.3,0-0.7,0.2-1.2,0.4c-3.8,2.2-8.2,10-10.1,18c-0.5,2-0.7,3.5-0.7,4.4c0,1.1,0.2,1.6,0.7,1.6
			C254.4,162.6,264.1,146.7,265.2,145.2z"/>
		<path class="st0" d="M279.6,165.9c-1-1-1.4-2.8-1.4-5.2c0-2.5,0.6-5.7,1.6-9.5c1.3-4.7,3.2-10.7,3.8-11.9c0.8-1.6,2.3-2.3,3.7-2.3
			c1.4,0,2.5,0.7,2.5,1.7c0,0.8-0.8,3.5-3,10.7c-2.3,7.5-3.2,10.7-3.4,12.7l-0.1,1c0,1.3,0.3,1.9,0.7,1.9c1.7,0,5.9-8.3,6.5-9.3
			c3.4-6.2,3.4-6.1,3.9-6.4c0.2-0.1,0.5-0.2,0.7-0.2c0.3,0,0.6,0.2,0.6,0.7c0,0.1,0,0.4-0.1,0.6c-0.1,0.4-0.6,1.2-1.2,2.6l-2.9,6
			c-1.5,3.1-5,8.6-8.7,8.6C281.8,167.5,280.7,167,279.6,165.9z M285.8,134.1c-0.1-0.1-0.1-0.3-0.1-0.6c0-1.6,1.1-5.4,1.7-6.2
			c0.5-0.7,0.7-0.9,1.5-1.3c0.5-0.3,1.2-0.4,1.8-0.4c1.4,0,2.8,0.7,2.8,1.9v0.3c-0.1,0.7-1.1,3.8-1.7,5.1c-0.5,1.1-1,1.6-2,1.9
			c-0.4,0.1-1.2,0.2-1.9,0.2C287.1,135,286.1,134.9,285.8,134.1z"/>
		<path class="st0" d="M308.1,161.3c0-1.1,0.1-2.2,0.4-3.4c1.1-4.9,2.7-9.6,5.9-17.2c0.7-1.6,1.2-2.8,1.2-2.8l-1.7,0.5
			c-1.6,0.5-3,0.7-4.6,0.8c-1.1,3.2-2.4,6.2-3.7,9.2l-2,4.7c-0.8,1.7-2.8,5.6-3.2,6.2c-0.3,0.4-0.4,0.5-0.8,0.5H299
			c-0.5-0.1-1.1-0.1-1.2-0.3c-0.1-0.1-0.1-0.1-0.1-0.3c0-0.4,0.4-1,1.3-2.8c0.7-1.3,8-16.2,8-17.6v-0.1l-0.8-0.2c-3.6-1-5-3.3-5-5.6
			c0-3,2.4-6,5.6-6.2h0.2c1.9,0,3.2,0.9,3.8,2.5c0.1,0.5,0.2,1.1,0.2,1.9c0,1.2-0.2,2.7-0.6,4c-0.3,0.9-0.4,1.7-0.4,1.7
			c0.8,0,4.8-2.2,5.6-2.8c2.3-1.6,3.9-2.2,5.1-2.2c1.6,0,2.2,1.2,2.2,3c0,2-0.8,4.9-1.9,7.5c-3.3,8.3-4.5,11.7-5.9,17.2
			c-0.4,1.5-0.8,3.8-0.8,5.5c0,1.2,0.2,2.1,0.8,2.1c0.6,0,1.6-0.8,3-3.1c1.8-2.6,3.3-5.9,5.6-11.6c3-7.5,3-7.7,3.5-8
			c0.2-0.1,0.5-0.2,0.8-0.2c0.5,0,0.9,0.2,1.1,0.6v0.1c0,0.8-1.4,5-2.7,8.5c-2,5.3-3.8,9.1-5.4,11.6c-2,3-4.4,4.4-6.7,4.4
			C311,169.6,308.1,166.6,308.1,161.3z M308.1,135c0.2-1.1,0.4-2.1,0.4-3c0-1.1-0.2-2-0.5-2.5c-0.1-0.1-0.1-0.1-0.2-0.1
			c-0.4,0-0.8,2.1-0.8,4c0,0.8,0.1,1.6,0.4,2.1c0.1,0.4,0.4,0.6,0.4,0.6C307.8,136.2,308,135.7,308.1,135z"/>
	</g>
	<g>
		<path class="st0" d="M72.9,426c-3,14.2-6.4,18.2-14.7,18.2c-9.1,0-13-6.3-13.2-21.7c-0.3-17.7,5.6-34.6,14-40
			c5.3-3.2,12.7-3.4,17-0.2c0.2,0.2,0.6,0.6,0.7,0.6c0,0,0.1-1.6,0.2-3.4c0.4-13,2.8-17.9,7.7-16.8c3.8,0.8,4.1,2.5,3.1,16
			c-2.3,32.7-3,56.4-1.8,63.6c0.3,1.9,0.2,2.3-0.9,3c-1.1,0.6-3.2,0.6-4.4,0.1c-3.1-1.6-4.1-8.1-4.5-30c0-5-0.1-9.2-0.1-9.2
			c-0.1,0-0.2,1.9-0.4,4.1c-0.6,5-0.9,7.6-1.5,10.1C73.9,421.5,73.3,424,72.9,426z M70.7,414.7c0.9-3.1,1.2-4.1,2.9-13.4
			c1-5.6,1-5.8,0.4-8.2c-0.7-2.7-2.7-6.2-3.9-6.8c-0.8-0.4-3.2,3.9-4.9,8.6c-4.1,11.3-5.8,25.6-4.6,38.8c0.4,4.7,0.7,4.9,2.7,2
			c1.7-2.6,4-8.6,5.5-14.1C69.4,419.6,70.2,416.5,70.7,414.7z"/>
		<path class="st0" d="M98.5,393.5c0.7-14.5,8.4-24.7,18.2-23.7c8.5,0.9,11.9,8.6,11.9,27.8c0,18.8-5.5,37.6-13,44.2
			c-3.8,3.4-10.4,5.3-14.7,4.1c-2.7-0.7-5.9-3.9-7.4-7.5c-2.6-6.4-2.5-24.8,0.3-36.9c0.6-2.2,1.7-3.7,3.8-4.8
			C98.4,396.3,98.4,396.3,98.5,393.5z M116,415.7c-2.2,0.8-4.6,0.3-7.2-1.5c-0.6-0.4-0.9-0.6-0.9-0.4c0,0.2-0.1,1.1-0.2,2
			c-0.8,7-0.8,16.6,0,20.2c0.1,0.8,1.3,3.2,1.7,3.2c0.1,0,0.6-0.6,1.1-1.1c13.2-15.2,15.4-53.8,3.6-63.2c-1.9-1.7-6.3,7.9-6.7,15
			c-0.2,3.9,0,4.7,1.6,5.1c2.9,1,3.2,1.7,2.1,5.3l-0.9,2.6l1.8,3.6c2,3.9,3.6,6.2,4.9,6.8C118.4,414.1,117.9,415.1,116,415.7z"/>
		<path class="st0" d="M154.9,424.7c1.5-5,1.7-6.2,4.8-23.6c2.2-12.7,7.3-28,10.2-31c3.1-3.1,10.4-2.5,14,1.3c5.1,5.4,7.4,23,5.4,42
			c-1,9.5-0.6,21.7,0.8,25.3c0.3,0.8,0.7,2,0.8,2.7c0.1,1.3,0.8,3.1,1.6,4.1c1.7,2-4.4,4.7-7.8,3.5c-0.6-0.1-1.6-0.8-2.2-1.1
			c-0.7-0.6-1.7-1.3-2.3-1.7c-2.9-2.1-5.4-7.2-6.3-13.5c-0.8-5-0.9-15.9-0.4-27.2c0.4-9.8,0.6-23.7,0.3-27.4
			c-0.3-4.5-0.3-4.4-1.7-2.3c-3.8,6-6.9,16.2-8.5,28.3c-4.4,32.9-7.3,40.5-16,40.5c-9.3,0-14.8-12.4-14.3-32.8
			c0.3-16.7,3.4-22.4,11.7-22.4c5.4-0.1,5.9,0.8,5.5,8.8c-0.1,2.2-0.3,5.5-0.4,7.2c-0.3,6.7-0.1,15.1,0.8,22.8
			c0.2,1.8,0.4,3.7,0.4,4.4c0.3,2.1,0.3,2.2,0.7,1.7C152.3,433.4,153.9,428.3,154.9,424.7z"/>
		<path class="st0" d="M197.9,376.8c1.5-1.8,1.6-7.2,0.3-10.3c-1.2-3,0.1-3.9,3.9-2.7c4.7,1.6,6.4,5.1,5,10.6c-0.9,3.6-4.8,6-8.1,5
			C197.1,378.8,196.9,378.3,197.9,376.8z"/>
		<path class="st0" d="M217.3,377.7c0.2-1.1,0.4-2.1,0.4-2.1c-0.1,0-2.3,0.2-7.2,0.9c-4.4,0.7-5.5,0.4-5.9-1.5c-0.8-2.8,0-3.8,3-4.4
			c0.9-0.1,9.8-0.7,11.3-0.7c0.4,0,0.6-0.2,0.8-0.8c1.5-4.7,4.6-6.6,9.2-5.7c3.5,0.8,5,2.1,5.4,4.9l0.2,1.6h3
			c3.7,0,9.4,0.2,10.4,0.6c1.7,0.4,1.8,3.5,0.1,3.5c-2.8,0-14.1,0.6-14.2,0.7c0,0.1-0.3,1.6-0.7,3.4c-0.2,1.8-0.8,4.6-1.1,6.3
			c-6,28.4-6.6,49.2-1.5,55.1c3.6,4.1,13.4-9.7,16.2-22.9c0.2-1.2,0.7-3,0.9-3.9c0.3-0.9,0.6-1.8,0.6-2c0-0.9,1.2-0.8,1.6,0.1
			c0.2,0.7-0.1,4.4-0.6,5.8c-0.2,0.7-0.8,2.5-1.1,4.1c-4.5,18.3-10.5,25.2-20.6,22.8c-6.4-1.3-10.4-7-12.5-17.2
			C212.8,414.5,213.8,393.7,217.3,377.7z"/>
		<path class="st0" d="M295.8,444.1c-14.8-2.1-20.9-16.8-16.4-38.8c3.4-16.1,12.5-25.8,22.5-23.8c8.1,1.6,10.7,6.3,9.4,16.7
			c-0.8,6.6-1.7,8.4-4.4,8.3c-2.7,0-3.4-0.9-2.5-3.6c1.1-3.2,0.4-9.4-1.2-13.1c-0.8-1.8-1-1.7-3.2,2.2c-8.7,15.3-10.3,38.6-3,45.7
			c3,3,4.4,2.9,8.5-1.3c4.6-4.5,6.3-7.8,10.5-20.1c2-6,2.5-6.6,3.5-4.9c0.4,0.6-1.3,9.2-3.1,15.7
			C312.6,439.9,305.8,445.5,295.8,444.1z"/>
		<path class="st0" d="M325.2,404.4c6.5-3.1,15.3-1.6,20.6,3.6c0.8,0.9,0.7,1.1,1-2.6c0.2-1.2,0.4-3.6,0.8-5.1
			c1.1-6.6,0.6-10.7-1.6-13.3c-0.6-0.7-0.7-0.7-1.2-0.6c-3.7,0.7-9.1,3.7-12.9,7c-2.8,2.8-5,3-8.7,1.1c-9.6-4.9,8.6-17.7,21-14.7
			c14.3,3.6,18.9,15.7,14.4,38.6c-2.2,11.5-2.2,11.2-2.2,16.3c0,2.6,0.2,5.3,0.3,6.4c0.3,3-0.3,3.8-3.4,3.2c-1.6-0.3-2.2-0.9-4-4
			c-2.6-4.1-3.2-7.2-3.7-14.8l-0.3-3.7l-0.9,2.6c-0.6,1.5-1.3,3.8-2,5.3c-3.6,10-12.6,14.5-20.7,10.6
			C309.9,434.6,312.2,410.6,325.2,404.4z M327,433.5c0.8,3.8,1.1,4.1,3,3.1c3-1.8,6.8-6.9,10-13.4c3.2-6.5,3.8-8.1,3.5-8.8
			c-1.2-3-4.7-6.4-6.6-6.4C330.5,408,324.9,422.7,327,433.5z"/>
		<path class="st0" d="M365.5,423.7c-1.7-12.2,0.4-29.5,4.2-34.3c2.7-3.1,10.2-2.9,11.6,0.3c0.4,1,0.6,13.2,0.1,19.7
			c-0.1,1.6-0.2,7.2-0.2,12.5l-0.1,9.8l2.5-9.8c5.7-22.3,12.3-37.6,16.7-38.9c5.3-1.5,13,2.8,16.4,9.1c1.9,3.7,2.9,6.8,4.2,14.5
			l0.6,2.9l2,0.3c5.9,0.9,4,3.8-2.3,3.6c-9.3-0.4-12.1-3.4-16.6-17.3c-1.7-5.1-1.5-5-4.2-0.9c-4.7,6.9-8.7,17.3-11.5,29.2
			c-2.7,11.9-4.7,18.3-5.6,18.7c-0.1,0.1-0.4,0.2-0.6,0.4c-0.4,0.7-2,1.1-3.5,1C373.7,444,367.1,434,365.5,423.7z"/>
		<path class="st0" d="M436.7,420.3c-0.4,10.1,1,16.4,4.7,19.7c3,2.8,7.9-2.3,11.4-11.7c1.1-3.1,2.8-2.3,1.9,1
			c-3,11.9-9.6,17.2-18.6,15.1c-10-2.2-15.1-15.5-13-33.8c2.1-18.7,11.1-32.1,21.6-32.1c8.8,0,10.7,3.1,9.7,15.8
			c-1.3,16.7-6.9,24.5-16.6,23.2l-1.1-0.1L436.7,420.3z M438.3,410.1c1.2,3.8,2.5,4.9,4,3.9c5.6-3.6,8.9-14.5,7.3-23.8
			c-0.4-2.8-1.7-5.8-2.2-5.8C445,384.4,437.2,406.7,438.3,410.1z"/>
	</g>
	<g>
		<g>
			<g>
				<path class="st0" d="M132.6,148.1c3.1,37.4-12.3,53-47.4,48.2c3.1,12.4,22.4,20.1,33.9,18.5c16.8-2.4,30.5-15.2,32.3-30
					C153.4,167.8,145.7,152.8,132.6,148.1z"/>
			</g>
		</g>
		<g>
			<polygon class="st0" points="83.9,250.3 89.3,247.5 94.7,250.3 93.6,244.3 97.9,240 91.9,239.2 89.2,233.8 86.5,239.2 
				80.5,240.2 84.9,244.4 			"/>
		</g>
		<g>
			<polygon class="st0" points="118.9,260.8 122.2,257.2 127,257.9 124.6,253.6 126.8,249.2 122,250.1 118.5,246.7 117.9,251.6 
				113.6,253.9 118,255.9 			"/>
		</g>
		<g>
			<polygon class="st0" points="375,199.8 378.5,203.8 377.1,209 382,206.9 386.5,209.8 386,204.5 390.2,201.2 385,199.9 383.1,195 
				380.3,199.5 			"/>
		</g>
		<g>
			<polygon class="st0" points="397.7,238.5 403.9,238.7 407.3,243.8 409.3,238 415.3,236.4 410.4,232.7 410.7,226.5 405.6,230 
				399.9,227.8 401.6,233.7 			"/>
		</g>
		<g>
			<polygon class="st0" points="423.6,208.5 427.3,206.7 430.9,208.6 430.2,204.6 433.2,201.8 429.2,201.1 427.4,197.4 425.6,201.1 
				421.5,201.6 424.4,204.5 			"/>
		</g>
	</g>
</g>
</svg>
