<?xml version="1.0" encoding="utf-8"?>
<!-- Generator: Adobe Illustrator 22.0.0, SVG Export Plug-In . SVG Version: 6.00 Build 0)  -->
<svg version="1.1" id="Layer_1" xmlns="http://www.w3.org/2000/svg" xmlns:xlink="http://www.w3.org/1999/xlink" x="0px" y="0px"
	 viewBox="0 0 500 500" style="enable-background:new 0 0 500 500;" xml:space="preserve">
<style type="text/css">
	.st0{fill:#0C0C0C;}
</style>
<g>
	<g>
		<g>
			<path class="st0" d="M299.8,203.8c-20.4,0-39.3-0.8-58.1,0.3c-11.1,0.6-17.3-3.2-22.2-12.7c-11.1-21.5-22.9-42.7-34.2-64.1
				c-1.1-2.1-1.6-4.7-1.8-7.4c11.2,8,22,16.3,36,17.6c13.9,1.3,26.7-2.9,39.4-10.8C272.4,152.3,285.7,177.4,299.8,203.8z"/>
		</g>
		<g>
			<path class="st0" d="M204,128.3c1.6-3.8,2.3-5.5,3.1-7.5c-2.8-1.4-5.5-2.7-8.9-4.4c5.9-7,11.5-13.5,17.6-20.7
				c-4.6-1.8-8.3-3.2-12.3-4.8c5.1-7.8,9.7-14.8,14.7-22.5c-3.6-1.2-6.3-2.2-9.5-3.3c4.3-6.5,8.2-12.5,12.2-18.5
				c2.2-3.3,3.4-6.3-1-9.1c-1-0.6-1.7-3.3-1.1-4.3c3.4-6.6,7.2-13,11.1-19.8c4.1,7,8.2,13.9,12.6,21.4c-10.6,5-5,11.9-1.9,18.5
				c1.9,4,4.4,7.8,6.9,12.3c-2.6,0.9-5,1.7-8.6,2.9c4.6,7.6,9,14.9,13.6,22.6c-3,1.3-5.7,2.5-9.8,4.3c5.1,7.1,9.8,13.7,15,21
				c-4.4,3.8-8.4,9.1-13.6,11.4c-6.1,2.7-13.2,4-20,4.1C217.8,132,211.4,129.8,204,128.3z"/>
		</g>
		<g>
			<path class="st0" d="M370.8,152.2c-1.5,1.2-3,2.3-5,3.8c3.5,3.8,6.7,7.4,10,10.9c-13.5,13.7-45.4,14.1-63.7,0.6
				c3.3-3.8,6.5-7.6,10-11.7c-2-1.3-3.5-2.4-5.5-3.6c4.6-5.4,9-10.5,13.8-16.1c-3.3-1.5-5.7-2.6-8.8-4.1c4.4-5.6,8.5-10.8,13-16.6
				c-2.8-1.4-5-2.5-7.7-3.9c3.9-5.7,7.6-11.3,11.6-17.2c-2.2-1.5-3.9-2.6-5.7-3.8c3.9-6.1,7.7-11.9,11.9-18.4
				c3.5,6.3,6.8,12.2,10.3,18.4c-1.3,1-2.6,1.9-4.8,3.5c3.2,5.6,6.5,11.3,9.9,17.2c-1.7,1.1-3.4,2.3-6.1,4.1
				c3.7,5.3,7.4,10.7,11.5,16.5c-2.1,1.2-4.3,2.4-7.5,4.2C362.3,141.5,366.4,146.8,370.8,152.2z"/>
		</g>
		<g>
			<path class="st0" d="M271.4,57.3c-2.8-1.8-4.5-2.9-6.3-4.1c4-7.9,7.7-15.5,12.1-24.1c3.7,8.4,7.1,16,10.6,24.1
				c-1.5,1.2-3.1,2.4-5.4,4.1c3.4,7.4,6.8,14.7,10.5,22.7c-1.6,1.2-3.6,2.7-6.5,4.8c3.8,6.9,7.6,13.9,11.8,21.6
				c-2.2,1.5-4.6,3.1-7.8,5.3c4.3,6.9,8.5,13.8,13,20.9c-1.4,1.3-3,2.6-5.4,4.7c3.7,4.7,7.4,9.5,11.6,14.9
				c-6.6,5.7-14.4,7.8-22.2,9.5c-1.2,0.3-3.6-1.9-4.5-3.5c-5.7-9.8-11.1-19.9-16.8-29.7c-1.5-2.7-3.7-5-6.4-8.4
				c0.6-2,1.6-5.2,2.7-8.7c-2.7-1.7-5.4-3.3-8.2-5c4.4-7.3,8.6-14.2,13-21.5c-2.9-1.9-5.3-3.5-7.7-5.1
				C263.5,72.3,267.4,64.9,271.4,57.3z"/>
		</g>
		<g>
			<path class="st0" d="M127.2,203.6c14.9-26.9,29.4-53.3,43.5-78.7c0,25.1,0,51.8,0,78.7C155.9,203.6,141.6,203.6,127.2,203.6z"/>
		</g>
		<g>
			<path class="st0" d="M176.4,124.1c14.6,26.4,29.2,52.7,44.1,79.7c-13.8,0-27.4,0.1-41.1-0.1c-1,0-2.9-2.1-2.9-3.2
				C176.4,174.8,176.4,149.1,176.4,124.1z"/>
		</g>
		<g>
			<path class="st0" d="M351.1,203.4c-5.1,0-9.2,0-14.6,0c1.5-6.3,2.9-12.1,4.5-17.9c0.2-0.9,1.8-1.9,2.8-1.9c1,0,2.4,1.1,2.7,2
				C348.2,191.3,349.5,197.1,351.1,203.4z"/>
		</g>
	</g>
	<path class="st0" d="M384.1,376.2c-0.3-1.4-1.2-1.8-2.2-1.5c-1.1,0.2-2.3,1.1-3.1,2.4c-1.2,2.2-1.6,3.2-3.5,9.1
		c-4.3,13.8-9.4,21.4-17.9,26.2c-1.3,0.8-2.3,1.1-3.3,1.4c-4.8,1.1-6.4-3.8-7.5-8.7l-0.6-2.7l3.1-1.8c8.6-5.4,21.8-24.2,19.2-35.8
		c-0.8-3.8-3.2-6.7-7.9-8.3c-3.1-1.2-6.1-1.3-8.8-0.7c-11.8,2.7-19.8,20-20.9,35.9c-0.7,2.1-1.8,5.4-3.5,10.8
		c-0.8,2.2-6.1,21-9.9,21.8c-0.9,0.2-1.7-0.7-2.4-3.4l-0.3-2.1c-0.5-4.2-0.1-10.9,1.6-27.2c1.5-15.5,2-21.3,1.6-22.9
		c-0.5-2.1-3.3-2.9-6.3-2.2c-3,0.7-6,2.8-7.1,6.5c-0.6,2.6-2.1,15.4-2.8,25.4c-3.6,15.1-11.3,40.9-17.3,42.3
		c-2.1,0.5-3.9-1.8-5.3-8.1c-1-4.2-1.7-10.3-2.3-18.6c-1.6-23,4.5-45.5,9.3-67.8l0.3-1.6c7.3,0.6,14.5,1.2,21.5,1.6
		c-0.1,0.3-0.3,0.6-0.4,0.9c-0.9,1.8-1.5,10-0.8,13.3c0.1,0.6,0.2,0.9,0.4,1.2c0.9,1.4,3.1,1.2,5.2,0.7c1.5-0.3,3.1-0.9,3.9-1.4
		c2-1.1,2.9-2.4,3.5-4.9c0.5-2.2,1.1-6.7,1.3-9.3c8.9,0.1,17.3-0.4,24.6-2.1c12-2.7,21.3-8.6,25.7-19.6c1.1-2.9,1.3-6,0.7-8.7
		c-1.2-5.4-5.4-9.3-10.5-8.2c-1.7,0.4-2.5,0.9-4.1,1.9l0.8,3.5c2.8,15.1-5.4,22.4-19.5,25.6c-13.4,3-32,2.4-51.3,1.2
		c0.8-4.9,1.3-9.5,1.1-10.5l0-0.2c-0.4-2-2.7-2.7-4.8-2.2c-0.9,0.2-1.7,0.7-2.4,1.2c-1.7,1.3-3.2,4.2-5.2,11
		c-22.9-1.6-45.9-3.2-61.5,0.4c-3.8,0.9-7.2,2-10.1,3.6c1.8-3.2,3.3-6.6,4.5-10.2c2.4-7.5,2.7-13.7,1.6-18.5
		c-2.2-9.9-10.6-14-20.5-11.8c-8,1.8-17,7.8-24.6,18c-10.3,13.5-18.4,31-25.9,55.7l-1.3,4.6c-0.5,0.1-3.7-1.1-5.7-2
		c-7.8-3.9-12.3-11.6-14.2-20.3c-4.2-18.6,2.3-41.9,7.5-43c1.5-0.3,3,1.2,3.9,5.3c0.8,3.8,3.4,5.2,5.5,4.8c2.1-0.5,3.6-2.9,2.7-6.9
		l0-0.2c-2.5-8.9-9-11.4-15.8-9.8c-6.3,1.4-12.6,6.2-16.2,12.2c-5.9,10-7.3,20.9-5,30.8c3.5,15.5,15.6,28.7,32.2,33.6l3.4,1.1l0,0.2
		c0.1,0.3-0.3,1.6-0.5,3.3c-4.7,17.6-6.3,36.3-3.7,54.7c0.4,3.2,0.8,5.8,1.4,8.2c1,4.5,2.5,8.1,4.6,12.7c7.8,16.2,23.8,23.3,38.3,20
		c6.3-1.4,12.3-4.8,17.2-10.4c4.1-4.9,9.2-13.1,13.4-22.3c2.1-4.6,3.8-8.3,5.5-12.5c0.6,2,1.6,3.6,2.9,4.7c2.3,2,4.8,2.5,7.4,2
		c4.7-1.1,9-5.5,11.2-9.3c1.6-2.9,3.2-6.6,5.1-11.7c1-3.1,1.9-5.3,1.9-5.3l-0.3,5.1c-0.8,10.9-0.7,19.3,0.4,24.7l0.2,0.8
		c1.6,6.9,5.9,9.4,10.1,8.4c3.5-0.8,6.8-3.6,8.8-8.5c3.2-7.3,4.8-15.7,6-23.8c2.6,10.9,8.1,20.7,18.8,18.3l0.9-0.2
		c8.8-2.5,14.1-12.9,17.5-23.8c1.1,3.1,2.6,5.3,4.6,6.5c2.8,1.7,5.4,2.1,7.6,1.6c8-1.8,13.1-14.5,15-21.5l0.9-3.5
		c0.9,3.8,2.2,6.9,4.2,9.5c3.5,4.4,8.9,6.7,16.4,5c2.3-0.5,4.6-1.4,7.3-2.6c9.4-4.5,15.7-13,19.8-22.6c2.1-4.6,3.6-9.3,4.7-14.2
		C384.3,378.3,384.3,377.1,384.1,376.2z M161.3,374.4c1.6-6.1,6-18.7,8.7-25.6c9-22.9,16.7-32.2,21.5-33.3c2.6-0.6,4.3,1.1,5.1,4.2
		c2.3,10.1-5.6,35.1-30.6,53c-3,2.3-4.2,3.2-4.8,3.3l-0.2-0.1C161,375.6,161.2,375.1,161.3,374.4z M273.9,346.5
		c-5.5,19.6-10.5,42.6-10.1,62.5c-2,11.8-4.4,27.3-7.8,37.6c-1.4,4.9-2.6,7.4-3.3,7.5c-0.3,0.1-0.7-0.3-0.9-1.2
		c-0.3-1.3-0.4-3.7-0.5-7c-0.1-5.8,0.6-15,1.8-29c1.6-16.1,2.1-23.4,2.1-28.6c0-1.3-0.2-2.3-0.4-3.4c-0.7-3.2-2.4-4.3-4.4-3.9
		c-2.4,0.5-5.2,3.7-6.6,8l-3.2,11.1c-3.6,13.9-12.2,40.2-16.1,41.1c-0.6,0.1-1-0.4-1.4-1.9c-0.7-3.2-0.5-10.8,1-24.8
		c2-18.4,2.6-24.1,2.1-26.2c-0.2-0.8-0.6-1.1-0.9-1.4c-1.1-0.8-2.8-1.1-4.3-0.8c-2.3,0.5-4.5,2.3-5.4,4.8c-0.8,2.1-1.2,4.7-2.8,17.8
		c-0.3,2.9-1.2,8.2-1.6,14l-0.9,2.1c-13.1,29.5-13.1,29.8-18.3,37.8c-6.7,10.2-12.8,15.4-18.2,16.6c-9.5,2.1-16.6-7.6-20-22.9
		c-1.3-5.9-2.1-12.6-2.3-19.8c-0.3-7.5,3.5-46.1,6.8-50.9c0.3-0.2,1.4-0.9,2.8-1.6c5.8-2.7,12.6-7.6,20.9-14.8
		c5.9-5.3,11.5-10.8,16.3-17c1.3,0.7,3.5,1,5.7,0.5c0.9-0.2,1.8-0.6,2.6-1.1c5-3.2,10.8-5.4,17.1-6.9c14.7-3.3,32.5-2.6,50.8-1.3
		L273.9,346.5z M345.5,396c-0.3-3.4,1.1-14.6,2.1-18c3.5-10.3,7.1-15.2,9.7-15.8c1.4-0.3,2.5,0.7,3,2.9c0.5,2.3,0.4,5.8-0.5,10.4
		c-1.1,6.1-4.1,12.5-8.1,16.5c-2.2,2.1-3.5,3.3-6,5.5L345.5,396z"/>
	<g>
		<path class="st0" d="M100.2,251.5c-1.3,7.6-12.8,4.4-11.5-3.1c0.5-3.4,2.8-20.2-4.5-18.3c-6.8,1.8-7.8,13.6-8.4,19.3
			c-1,8.6-0.8,18.3,2.6,26.4c0.8,1.9,3.4,6.8,5.3,6.6c3.2-0.3,4.5-6,4.5-8.4c0-7.6,11.8-7.6,11.8,0c-0.2,14.2-15.5,27.7-27.3,14.7
			c-9.5-10.5-10.2-28-8.6-41.3c1.5-12.3,5.7-29.8,21.2-29.9c17.1-0.2,16.7,21.7,14.7,33.5L100.2,251.5z"/>
		<path class="st0" d="M153.6,257.3c0.2,0.5,0.3,1,0.5,1.5c1.5,2.8,0.5,6.8-2.3,8.3c-0.2,7.4-0.5,14.9-1,22.3
			c-0.5,6-9.4,8.3-11.5,2.4c-0.3-0.5-0.5-1-0.6-1.5c0-0.2,0-0.3,0-0.5c-0.3-1.5-0.2-2.8,0.3-3.9c0.5-6.3,0.8-12.8,0.8-19.3
			c-5-0.3-10-0.3-15-0.2c-0.6,7.4-1.1,14.9-1.1,22.3c0,7.6-11.8,7.6-11.8,0c0-7.1,0.3-14.2,1-21.4c-0.6,0-1.3,0-1.9,0
			c-3.2,0.3-6-3.1-6-6c0-3.4,2.7-5.5,6-5.8c1.1-0.2,2.3-0.3,3.4-0.5c0.2-1.1,0.3-2.3,0.5-3.4c1.6-11,3.7-26.5,15.2-31.5
			c6.1-2.6,12.9-1.1,17,4.2c3.9,5.2,4,12.1,4.4,18.3c0.2,3.9,0.3,7.8,0.5,11.6c0.6,0.5,1.1,1.1,1.6,2.1L153.6,257.3z M140,255
			c0-1.1,0-2.3,0-3.4c-0.2-5.3,0-11.3-1.3-16.5c-1-3.7-3.2-5-6.1-1.6c-2.8,3.2-3.6,8.4-4.5,12.6c-0.6,2.9-1.1,5.8-1.6,8.9
			C130.9,254.9,135.4,254.9,140,255z"/>
		<path class="st0" d="M222.3,230.9c1.5,6.3,1.8,12.9,1.9,19.4c0.2,12.9-0.5,25.9-1.8,38.8c-0.6,7.6-12.5,7.6-11.8,0
			c1-10.4,1.6-20.7,1.8-31.1c0-5,0-10.2-0.3-15.2c-0.3-4-0.6-9.2-2.6-12.8c0,0,0-0.2,0-0.3c-1,1.8-2.4,3.4-3.4,5.3
			c-1.8,3.6-2.9,7.4-3.9,11.3c-2.3,9.2-3.6,18.8-4.9,28.2c-0.5,3.2-4.5,5-7.3,4.2c-2.3-0.6-3.6-2.4-4-4.5c-0.3-0.6-0.5-1.5-0.5-2.4
			c0-10-0.6-20.1-2.3-29.9c-0.6-3.9-1-9.4-3.1-12.9c-0.8-1.5-0.6-1.1-1.5-0.6c-1.1,0.6-1.9,3.1-2.4,4.2c-3.2,8.3-2.9,18.1-3.4,26.9
			c-0.5,9.7-0.5,19.4-0.2,29.1c0.2,7.6-11.6,7.6-11.8,0c-0.3-12.9,0-25.9,1-38.8c0.8-10.4,1.5-23.8,10-30.9
			c4.2-3.6,9.9-3.7,14.4-0.6c5,3.6,6.3,9.7,7.4,15.4c3.6-8.6,11-21.2,21.2-15.4c4.5,2.6,6.5,7.6,7.6,12.5L222.3,230.9z"/>
		<path class="st0" d="M260,220.4c7.3,2.6,12.5,8.9,13.1,16.7c1.1,14.2-13.1,26.4-25.6,30.9c0,4.9,0,9.7,0,14.6
			c0.8,1.1,1.1,2.6,0.6,4.4c-0.3,1.1-0.6,2.3-1,3.4c-1.6,6.6-11.6,5-11.6-1.6c0-19.1,0-38.2,0-57.3c-7.1,0-6.8-11.3,0.6-11.8
			c7.8-0.5,16.5-2.1,24.1,0.5L260,220.4z M254.5,250c2.9-2.9,6.6-7.4,6.6-11.8c0-6.6-7-7.8-13.8-7.4c0,8.1,0,16.2,0,24.3
			c2.8-1.3,5.2-3.1,7.3-5.2L254.5,250z"/>
		<path class="st0" d="M292.9,291c-0.5,2.9-4,4.5-6.6,4.2c-3.1-0.3-5-2.9-5.2-5.8c0-0.8,0-1.6,0-2.4c-0.3-1.1-0.3-2.1-0.2-3.1
			c-0.2-6.6,0-13.3,0.2-19.9c-6.3-0.8-6.1-10.8,0.5-11.6c0.3-7.4,0.5-14.9,0.2-22.3c-0.3,0-0.6,0-1,0c-7.6,0-7.6-11.8,0-11.8
			c1,0,1.9,0,2.9,0c1.9-1.3,4.7-1.3,6.8,0c6.6,0,13.3,0,19.9,0c2.1-1.5,4.9-1.6,7.1,0.8c0.3,0.3,0.6,0.6,1,1
			c3.2,3.7,1.1,10.2-4.2,10.2c-6.8,0-13.6,0-20.4,0c0.2,7.3,0,14.6-0.3,21.8c1.8,0,3.6,0,5.3,0c1,0,1.9,0,2.9,0
			c3.7-3.4,11.5-0.2,9.9,6c-1.5,5.7-7,5.8-11.8,6c-2.1,0-4.2,0-6.3,0c-0.2,7.1-0.3,14.2,0,21.4c0.3,1.3,0.3,2.6,0.2,3.9
			c0,0.5,0,1,0,1.5L292.9,291z"/>
		<path class="st0" d="M321.8,290c-0.2-11.3,0.2-22.5,1-33.7c0.8-10.5,1.9-21.4,0.2-31.9c-1.3-7.4,10.2-10.7,11.5-3.2
			c1.9,11.2,1.3,22.3,0.5,33.5c-0.8,10.2-1.3,20.4-1.3,30.6c0.5,0.8,0.8,1.6,1,2.6c0.2,2.3-0.8,4.5-2.6,6c-3.9,3.4-10,1.3-10.2-4
			V290z"/>
		<path class="st0" d="M379.6,280.3c2.1,1,3.7,3.1,3.6,5.3c0,0.5,0,1,0,1.5c-0.5,5.7-7.8,8.4-11,3.1c-3.2-5.3-7.9-9.4-13.6-11.8
			c0,1.9,0,3.9,0,5.8c0.5,1,0.6,2.1,0.3,3.4c-0.2,1.1-0.3,2.3-0.5,3.4c-1.3,6.6-11.8,5-11.6-1.6c0.6-19.4,0.8-38.8,0.5-58.2
			c-0.3,0-0.6,0-1,0c-7.4,1.5-10.7-10-3.2-11.5c9.2-1.8,18.8-3.2,27.5,1c7.8,3.7,11.8,11.5,12.6,19.7c1.3,12.5-5.5,23.5-15.7,29.1
			c4.9,2.8,9.1,6.5,12.5,11L379.6,280.3z M370.8,241c-0.6-8.3-6-11-12.3-11.5c0.2,10.2,0.2,20.4,0,30.6c7.6-2.7,12.9-10.2,12.3-18.8
			V241z"/>
		<path class="st0" d="M396.7,228.8c-1.1,0-2.3,0-3.4,0c-7.6,0-7.6-11.8,0-11.8c10.8-0.2,21.7-0.5,32.5-0.8c0.3,0,0.6,0,1,0
			c0.5,0,1,0,1.5,0c7.6,0,7.6,11.6,0,12c-6.6,0.2-13.3,0.3-19.9,0.5c-0.3,5.3-0.8,10.7-1.1,16c2.1-0.2,4.2-0.3,6.3-0.5
			c3.4-2.9,10.2-1.5,10,4.4c0,0.5,0,1,0,1.5c0,3.4-2.6,5.7-5.8,5.8c-3.6,0.3-7.1,0.6-10.7,1c0,3.1,0,6.1,0.2,9.2
			c0.2,3.6,0.5,7.3,1.3,10.8c0.3,1.8,0.8,5.2,2.4,6.1c2.4,1.5,10-3.4,12-6.5c-0.6-6.6,9.7-9.1,11.5-1.9c2.4,9.7-9.5,16.8-17.3,19.6
			c-9.2,3.2-16.7-1.9-19.6-10.7c-2.9-8.4-2.9-18.1-2.6-27c-2.4-2.3-2.3-7,0.5-9.4c0.3-6,0.6-12,1-18L396.7,228.8z"/>
	</g>
	<path class="st0" d="M380.7,419.9c-3.3-1.6-3.1-6.7-4.2-9.9c-0.4-1.3,1.5-1.8,2.4-1c1.2,1.2,1.9,2.7,2.5,4.3c0.6,1.3,1.7,3,1.9,4.4
		C383.3,418.9,382.1,420.5,380.7,419.9z M418.1,426c0.7,0.8-0.3,1.7-1,1.5c-6.2-1.3-12.2-4.7-17.3-8.4c-4.5-3.4-7.4-8.1-11.2-12.4
		c-0.6-0.7,0.3-1.7,1.2-1.2c5.2,2.5,9.5,7,14.2,10.3C408.7,419.2,413.8,422.2,418.1,426z M396.4,389.5c-0.9-0.5-0.2-2,0.7-2
		c3.8,0,7.7-0.5,11.5-0.1c2.7,0.2,5.5,0.2,7.1,2.4c0.6,0.7,0.4,1.7-0.4,2.2c-2.6,1.6-6.5,0.6-9.7,0.3
		C402.4,391.9,399.4,391,396.4,389.5z M387.7,363.2c2.4-1,4-3.6,5.9-5.4c0.7-0.9,4.6-5,5.2-2c0.7,2.1-2.8,4.8-4.2,6
		c-1.8,1.6-4.1,3.4-6.7,3.1C387.2,364.8,386.8,363.8,387.7,363.2z M396.5,330c-2.1,5.2-6.2,10.1-9.4,14.9c-0.2,0.3-0.6,0.8-1,0.8
		c-1.3,1.7-2.6,3.4-4,5c-0.9,1.2-2.6,0.3-2.1-1c0.5-2.7,1.6-5.1,2.4-7.5c0.2-0.8,0.5-1.2,0.9-1.4c2.9-4.6,6.6-9.7,11.5-12.3
		C395.6,328,396.9,328.9,396.5,330z M399.5,372.4c6.2-2.8,11.6-6.2,18.3-8.2c5.6-1.8,11.5-4,17.4-4.2c1.2-0.1,1.8,1.9,1,2.6
		c-5.1,3.6-11.5,5.4-17.2,7.3c-6.3,2-12.6,2.5-18.9,4.2C399.1,374.6,398.5,372.9,399.5,372.4z M405.2,348.9c0.5-0.9,0.9-1.6,1.7-2.4
		c0.7-0.6,1.7-1.5,2.8-1.1c0.5,0.1,0.8,0.6,0.9,1.1c0,1.1-1.2,1.6-1.7,2.1c-0.7,0.6-1.5,1-2.2,1.6
		C406,350.8,404.9,349.7,405.2,348.9z"/>
</g>
</svg>
