<?xml version="1.0" encoding="utf-8"?>
<!-- Generator: Adobe Illustrator 22.0.0, SVG Export Plug-In . SVG Version: 6.00 Build 0)  -->
<svg version="1.1" id="Layer_1" xmlns="http://www.w3.org/2000/svg" xmlns:xlink="http://www.w3.org/1999/xlink" x="0px" y="0px"
	 viewBox="0 0 500 500" style="enable-background:new 0 0 500 500;" xml:space="preserve">
<style type="text/css">
	.st0{fill:#0C0C0C;}
</style>
<g>
	<g>
		<path class="st0" d="M71.8,139.5c7.7-1.7,8.2-8.4,10.5-14.1c-0.9-0.3-1.6-0.4-2.8-0.8c7.2-6.5,3.4-14.6,4.2-22.1
			c2.1,7.9,5.9,15.5,4.5,24c-0.2,1.2,0.3,2.5,0.6,3.7c0.5,2,0.7,4.5,1.9,5.9c1.2,1.4,3.7,1.7,5.6,2.4c0,0.3-0.1,0.6-0.1,0.9
			c-1,0-2,0.1-3.1,0c-1.1-0.1-2.2-0.3-4.3-0.6c1.3,1.9,2.2,3.1,3.2,4.5c-0.6,0.2-1.3,0.5-2.9,1c3.4,2.3,6.3,4.2,9.2,6.2
			c-0.1,0.3-0.3,0.5-0.4,0.8c-2.4-0.9-4.9-1.8-8.2-3c2.6,4,4.3,7.6,6.9,10.2c2.6,2.5,6.2,4,9.8,6.1c-1.4,0.1-2.4,0.1-3.9,0.2
			c0.5,1.4,0.9,2.7,1.5,4.3c-0.5,0.2-1,0.5-1.8,0.9c0.3,0.7,0.6,1.6,0.9,2.5c-0.2,0.2-0.5,0.4-0.7,0.6c-2.6-2.5-5.1-4.9-7.7-7.4
			c-0.1,0.1-0.3,0.1-0.4,0.2c0.7,1.7,1.6,3.4,2.1,5.3c1.5,5.9,5.4,9,11.1,10.1c1.7,0.3,3.5,0.4,5.2,0.6c0,0.3,0,0.6,0,0.9
			c-1.6,0.3-3.3,0.6-4.9,0.9c-0.2,0.3-0.5,0.6-0.7,0.9c2,1.5,3.9,2.9,5.9,4.4c-0.2,0.1-0.4,0.3-0.6,0.4c-3.8-0.8-7.7-1.5-11.1-2.2
			c0,2.3-0.6,4.8,0.2,6.9c0.6,1.8,2.6,3.4,4.3,4.3c4.1,2.1,8.4,3.7,13.6,6c-5.5-0.1-10.2,2.2-15-1.1c3.2,5.9,9.5,7.6,14.8,10.6
			c-0.1,0.4-0.3,0.8-0.4,1.1c-2.7-0.9-5.5-1.7-8.9-2.8c1,1.3,1.6,2.4,2.5,3.1c1.6,1.2,2.5,2.9,1,4.2c-0.9,0.8-3.2,1-4.4,0.5
			c-2.1-0.9-3.3-3.7-6.4-2.2c-0.4,0.2-1.7-1.2-2.7-2c-0.6,0.7-1.3,1.5-2.2,2.5c3.3,4.2,7.9,6.1,12.9,7.3c3.1,0.8,6.2,1.3,9.2,2.2
			c0.6,0.1,1.3,1.1,1.3,1.6c-0.1,0.8-0.7,1.7-1.4,2.3c-0.4,0.4-1.3,0.2-2,0.2c0,0.8,0,1.4,0,2.4c-1.7-0.4-3.2-0.7-4.8-1.1
			c-2.4-0.6-2.3,0.8-2,2.4c-3.2,0.2-5.1-5.9-9.3-1.7c-1.1-1.2-2.1-2.7-3.5-3.6c-0.8-0.6-2.2-0.3-3.3-0.4c0.2,0.9,0.1,2.1,0.7,2.8
			c7.3,9.1,16.7,14.2,28.4,14.8c2.4,0.1,4.7,0.7,7.2,1.8c-1.7,0.5-3.4,1-5.2,1.5c1.3,0.6,2.7,1.2,4,1.8c0,0.3,0,0.6,0.1,1
			c-2.3,0.4-4.6,0.7-7,1.1c0.9,1.2,1.7,2.3,3.1,4.1c-2.8-0.8-4.8-1.3-7.4-2c1.3,1.7,2.3,3,3.7,4.8c-1.6-0.3-2.9-0.6-4.5-0.9
			c0.6,0.9,0.9,1.4,1.2,1.9c-0.1,0.2-0.3,0.4-0.4,0.6c-3.2-2-6.4-4-9.8-6.1c-0.2,0.5-0.3,1-0.6,1.9c-3.2-2.8-6.3-5.5-9.4-8.2
			c-0.2,0.1-0.4,0.3-0.6,0.4c0.8,1.5,1.7,3,2.5,4.5c0.7,1.4,1.4,2.8,2,4.2c-0.4,0.2-0.7,0.5-1.1,0.7c-5-5.9-9.9-11.8-14.9-17.7
			c-0.4,0.1-0.7,0.2-1.1,0.2c1.5,16.7,3.1,33.5,4.6,50.2c-0.3,0.1-0.7,0.2-1,0.3c-0.7-1.5-1.4-3.2-2.3-4.6c-0.3-0.5-1.3-0.7-2-1
			c-0.2,0.3-0.4,0.6-0.6,0.9c-0.6-1.3-1.3-2.5-1.9-3.9c-1,1.8-1.9,3.5-2.8,5.1c-0.4-0.1-0.8-0.2-1.3-0.3c2-15.1,3.7-30.2,3.6-45.6
			c-3.3,6-4.7,13-10.6,16.9c-0.3-0.2-0.6-0.4-1-0.6c1.5-2.8,3-5.7,4.6-8.5c-0.2-0.2-0.5-0.3-0.7-0.5c-0.2,0.1-0.6,0.2-0.7,0.3
			c-3.4,6-9.8,8.1-15.1,11.6c-1.3,0.8-3.9-0.3-6.1-0.6c0.2-0.8,0.3-1.4,0.4-2.1c-2.7,0.3-5.2,0.5-7.7,0.7c0-0.2-0.1-0.3-0.1-0.5
			c1.6-0.9,3.3-1.8,5.1-2.9c-2.9-0.3-5.7-0.6-8.5-0.9c0-0.4,0-0.8,0-1.1c1.4-0.3,2.8-0.7,4.2-1c-1.7-0.9-3.4-1.8-5-2.7
			c-0.1-0.3-0.1-0.7-0.2-1c15.8,1.2,26.1-7,34.3-18.7c-0.2-0.3-0.4-0.6-0.5-1c-2.1,1.5-4.1,3-6.9,5c0.2-1.7,0.3-2.3,0.5-3.4
			c-1.8,1.4-3.2,2.6-4.8,3.7c-0.5,0.3-1.4,0.3-2,0c-0.3-0.1-0.1-1.1-0.2-2.2c-4.5,3.3-8.7,3.6-12.1-2.2c0.6-2.4,3.7-2.1,5.9-2.6
			c6.5-1.5,11.7-5.2,16.5-9.6c-1.6-2.4-2.7-2.5-4.4-0.3c-2.8,3.4-5.4,3-7.2-0.6c1.3-1.8,2.5-3.5,3.8-5.3c-0.2-0.2-0.4-0.4-0.6-0.5
			c-2.5,1.3-5,2.7-7.5,4c-0.2-0.3-0.4-0.5-0.6-0.8c3.7-3.1,7.5-6.1,11.2-9.2c-0.2-0.4-0.3-0.8-0.5-1.2c-3.7,0-7.5,0-11.2,0
			c0-0.3,0-0.6,0-0.9c6.5-0.8,10.7-5.3,15.3-9.1c0.4-0.3,0.4-1.1,0.5-1.7c0.2-2,0.3-4,0.5-6.4c-3.2,0.8-6.8,1.7-10.7,2.8
			c1.6-2.2,2.8-3.9,4.4-6.3c-2,0-3.4,0-4.8,0c-0.1-0.3-0.3-0.6-0.4-0.9c8.2-1.5,15.4-3.9,14.8-14.8c-2.1,2.1-3.8,3.8-5.8,5.9
			c-0.2-3.4-0.4-6-0.6-8.7c-0.8,0-1.7,0-2.6,0c-0.2-0.3-0.5-0.5-0.7-0.8c8.8-1.8,10.7-9.1,14.3-16.3c-2.5,1.3-4.2,2.1-6.5,3.3
			c2.1-4.2,3.8-7.6,5.3-10.7c-1.9-0.4-3.5-0.7-5.2-1C71.9,140.4,71.8,140,71.8,139.5z"/>
	</g>
	<g>
		<g>
			<path class="st0" d="M330.1,49c14.1,23.1,28.5,45.9,44.9,67.6c1.8-6.4,2.2-12.8,2.7-19.6c1.7,9,0.9,18.4,7.9,25.6
				c-1-0.1-2-0.2-3.2-0.2c1.5,2.6,2.9,5.1,4.6,7.9c-1.2-0.5-2.2-1-3.5-1.6c2.8,3.9,5.4,7.5,8.3,11.5c0.9-2.3,1.6-4.2,2.5-6.6
				c-1.7,1-3.2,1.8-5,0.8c2.7-0.7,3.3-3,4.5-5c-1.7,0.6-3.3,1.9-5.4,0.7c3-1,5.2-2.9,6.7-6c-1.6,0.8-3,1.5-4.8,2.4
				c4.9-7.5,4.9-7.5,6.9-22.6c0.7,7.3,0.2,14.9,5.9,20.9c-1-0.3-2-0.6-2.9-0.9c-0.1,0.1-0.3,0.2-0.4,0.4c1.5,1.8,3,3.5,4.6,5.5
				c-1.4-0.2-2.8-0.3-4.8-0.5c1.7,1.8,3.2,3.4,4.7,5c-0.8,0.1-1.9,0.3-3.1,0.4c0.8,2.6,2.3,4.7,5,5.9c0,0.2,0,0.3,0,0.5
				c-1.4,0.1-2.7,0.2-4,0.3c0.4,1.5,0.9,2,5.8,6.2c-1.7,0-3.1,0-4.4,0c0.4,1.9,1.5,2.8,5.5,4.6c-1.4,0.4-2.6,0.6-4.4,1.1
				c1.9,1.3,3.3,2.3,4.8,3.3c-0.5,0.1-1.2,0.3-2.3,0.6c1,0.8,1.8,1.4,2.8,2.3c-0.8,0-1.4,0-2,0c-0.6,0-1.3-0.2-2.3,0.1
				c2,2.1,4,4.2,6,6.3c-1.6,1.2-3.1-0.1-4.6-0.9c-0.1,0.2-0.2,0.3-0.4,0.5c1.8,2,3.5,4,5.4,6.1c-1.3-0.1-2.8-0.2-4.6-0.3
				c4.3,4.3,10,6.2,14.9,9.4c-0.6,0-1.1,0.1-1.7,0.1c-22,0-44.1,0-66.1,0c-1.4,0-2.1-0.3-2.3-1.8c-0.4-2.7-1-5.4-1.6-8.1
				c-0.3-1.5,0.2-3.1-0.5-4.6c-0.2-0.3,0.3-1.1,0.5-1.6c0.6-1.1,1.3-2.2,2.2-3.7c-1.4,0.4-2.2,0.6-3.1,0.9c-0.1-0.2-0.2-0.3-0.3-0.5
				c0.6-0.3,1.1-0.6,1.7-0.7c2.5-0.5,4.9-0.9,7.8-1.4c-1.5-1.6-2.7-2.9-3.9-4.3c-1.4-1.5-1.4-1.5-0.8-3.2c-0.7,0-1.3,0-2,0
				c0.1-0.6,0.2-1.2,0.3-1.9c-0.2,0.1-0.3,0.2-0.5,0.2c-0.4,0.1-0.8,0.1-1.1,0.2c0.1-0.4,0.1-0.8,0.3-1.2c1.3-2.2,2.6-4.3,3.8-6.5
				c0.2-0.4,0.2-0.9,0.4-1.4c-1.4,0.4-2.6,0.7-3.8,1c-0.1-0.1-0.1-0.3-0.2-0.4c1.2-1.1,2.3-2.2,3.6-3.3c-0.4-0.6-0.7-1.1-1.1-1.6
				c-0.6,0.2-1.2,0.4-2.2,0.7c0.5-0.7,0.9-1.2,1.2-1.7c-2.7-4.9-5.4-9.7-8.1-14.5c0.2-0.2,0.4-0.3,0.6-0.5c3.1,3.3,6.2,6.5,9.6,10.1
				c0.9-2.1,1.8-4,2.7-6.1c-1.6,0.6-2.8,1-4.3,1.6c1.5-1.8,2.8-3.1,3.9-4.6c0.9-1.2,0.9-2.4-0.2-3.8c-4.5-6-9-11.9-13.2-18.1
				c-2.2-3.2-3.5-7-5.3-10.5c0.2-0.1,0.3-0.3,0.5-0.4c1.8,1.1,3.6,2.3,5.4,3.4c0.2-0.1,0.3-0.3,0.5-0.4c-4.5-8.2-9.1-16.3-13.6-24.5
				c-0.2,0.1-0.3,0.1-0.5,0.2c-0.1,0.3-0.2,0.6-0.2,0.9c-0.1,5.8-0.2,11.5,1,17.2c0.2,1-0.1,2.2-0.2,3.3c-0.5,3.7-1.2,7.3-1.5,11
				c-0.1,1.1,0.5,2.5,1.2,3.5c1.7,2.3,3.6,4.3,5.3,6.6c0.5,0.6,1,1.6,0.9,2.4c-0.4,6.4-1,12.8-1.6,19.5c-1.4-1.6-2.7-2.7-2.8-4.7
				c-0.2-2.9-0.7-5.7-1-8.6c-0.2-1.9-0.9-3.4-2.3-4.6c-1.3-1.2-2.6-2.5-4.1-4c-0.4,2.5-0.8,4.5-1.1,6.5c-0.2,0-0.3,0.1-0.5,0.1
				c-1.3-2.4-3.5-4.3-3-7.7c0.8-6.2,1.1-12.4,1.6-18.6c0-0.6,0-1.3,0-2.4c-2.8,3.6-5.3,6.8-8,10.2c-1-2.9,1.1-5,1.7-7.9
				c-4.9,4.4-7.8,10.4-14.6,11.8c5-7.1,10.1-14.1,14.2-21.7c-0.2-0.2-0.4-0.4-0.7-0.6c-0.4,0.6-0.6,1.2-1.1,1.7
				c-5.5,6.3-11,12.6-16.5,18.9c-1.1,1.3-2.4,1.9-4.1,1.7c-1.9-0.2-3.8-0.3-6.3-0.5C303,84.9,318.9,69,330.1,49z M360.9,108.5
				c-0.2,3.5-0.2,7,1.4,10c2.5,4.8,5.3,9.4,8,14.1c0.2,0.4,0.5,0.8,1,1.5c1.2-2.2,2.3-4.1,3.4-6c-0.1-0.1-0.2-0.2-0.4-0.3
				c-1.1,0.8-2.3,1.6-3.4,2.5c-0.1-2.4,3.1-3.7,1.9-6.4c-0.8,0.4-1.4,0.7-2,0.9c0-0.1-0.1-0.2-0.1-0.2c0.4-0.5,0.8-1.1,1.3-1.7
				C368.2,118,364.5,113.3,360.9,108.5z M363.2,137.4c-0.1,0.1-0.2,0.1-0.4,0.2c0.8,1.3,1.5,2.7,2.5,3.9c1.4,1.6,2.1,1.7,3.7,0.2
				c1.1-1.1,2-2.4,2.9-3.4c-1-2.4-2.3-0.5-3.5-0.6c0.6-0.6,1.1-1.2,1.7-1.8c-1.1-1.5-2.2-3-3.2-4.5c-0.5,0.2-1,0.3-1.5,0.5
				c0.3,0.4,0.5,0.7,0.9,1.5c-1.2-0.7-1.9-1.1-2.6-1.5c-0.2,0.1-0.3,0.2-0.5,0.4c1.4,2.4,2.8,4.9,4.4,7.5
				C366,138.9,364.6,138.2,363.2,137.4z M353.3,98.8c-0.1,0.1-0.3,0.2-0.4,0.3c1,1.6,1.8,3.3,3,4.8c1.5,1.9,2.2,3.8,2.1,6.2
				c-0.1,1.8,0.4,2.7,2.1,4.1c0-2.5,0.7-5-0.2-6.7C358.1,104.3,355.5,101.6,353.3,98.8z M370.3,143.5c-1.7,0.4-3,0.8-4.3,1.1
				c0.1,0.2,0.4,0.5,0.6,0.8c-0.1,0.1-0.1,0.2-0.2,0.4c-0.8-0.2-1.5-0.4-2.6-0.7c0.8,1.5,1.5,2.8,2.3,4.4
				C367.6,147.4,368.8,145.6,370.3,143.5z M385.7,142.4c1.8,3.9,3.2,5,5,3.8C389.1,144.9,388.4,142.6,385.7,142.4z M387.1,150
				c0.7,1.1,1.3,2,2.1,3.1c1-0.8,1.8-1.5,2.9-2.4C390.2,150.5,388.8,150.3,387.1,150z M392.2,156.6c0.8-1.4,1.4-2.7,2.1-3.9
				c-0.1-0.1-0.2-0.1-0.3-0.2c-1.1,0.7-2.2,1.5-3.5,2.3C391.1,155.4,391.6,156,392.2,156.6z M369.5,152c0.8-1.3,1.4-2.3,2.1-3.3
				c-0.1-0.1-0.2-0.2-0.4-0.3c-1.1,0.7-2.2,1.4-3.6,2.2C368.3,151.1,368.8,151.5,369.5,152z M391.2,162.2c1.6,0.8,2.1,0.4,2.3-1.8
				C392.7,161,392,161.6,391.2,162.2z"/>
		</g>
		<g>
			<path class="st0" d="M190,125.8c-2.1,1.9-3.4,4.1-6.1,4.5c2.1-2.9,4.1-5.8,6.1-8.6c-0.2-0.1-0.3-0.3-0.5-0.4c-0.9,1-1.8,2-2.7,3
				c-0.1-0.1-0.1-0.1-0.2-0.2c1.3-2.7,2.5-5.4,4-8.5c-1.9,0.8-3.2,1.3-4.6,1.9c-0.1-0.1-0.2-0.3-0.3-0.4c6.9-5.3,6.3-13.2,7.3-20.5
				c0.3,7.4,1.7,14.4,6,20.6c-0.1,0.1-0.3,0.2-0.4,0.3c-1.1-0.9-2.2-1.8-3.3-2.6c0,2,2.1,6.1,4.4,8.6c-0.4,0.2-0.9,0.4-1.3,0.6
				c0.3,0.4,0.5,0.7,0.8,1.1c-0.1,0.1-0.1,0.2-0.2,0.3c-0.8-0.5-1.5-0.9-2.5-1.5c0.6,3.5,2.4,6.3,4.6,8.8c-0.1,0.1-0.2,0.3-0.3,0.4
				c-1.6-0.9-3.2-1.8-4.9-2.7c0.6,2.4,1.7,4.5,3.7,5.8c0.4,0.3,1.3,0.3,1.7,0c2.8-1.9,4.4-4.7,5.7-8.1c-1.9,1-3.5,1.9-4.9,2.7
				c2.1-3.7,4.3-7.4,6.5-11.2c-0.2-0.1-0.3-0.3-0.5-0.4c-1.3,1-2.5,1.9-3.8,2.9c-0.1-0.1-0.2-0.1-0.3-0.2c1.6-3.1,3.2-6.2,4.9-9.4
				c-0.1-0.1-0.2-0.1-0.3-0.2c-1.4,1.2-2.8,2.4-4.2,3.6c-0.2-0.1-0.3-0.3-0.5-0.4c4-3.9,5.2-9,6.1-14.1c0.9-5.5,1.2-11.1,1.8-16.7
				c0-0.4,0.1-0.8-0.1-1.1c1.1,6.7,2,13.3,3.4,20c0.7,3.7,2.3,7.1,5.4,9.9c-1.1-0.1-2.1-0.2-3.3-0.3c0.9,1.8,1.7,3.7,2.7,5.7
				c0.5-0.5,0.8-0.9,1.1-1.3c3.2-4.3,6.5-8.7,9.7-13.1c0.6-0.8,1-1.9,1.1-2.9c0.5-3.2,0.8-6.4,1.4-9.7c0.2,2.5,0.3,5,0.5,7.6
				c0.2,0.1,0.3,0.1,0.5,0.2c6.9-11.6,13.7-23.1,20.7-34.8c8.1,11.6,16.3,23.1,24.7,35.1c-3.6-1.4-6.8-2.8-10-3.9
				c-1.9-0.7-3.2-1.9-4.3-3.6c-2.1-3.3-4.3-6.5-6.9-9.8c0,1,0,1.9,0,2.9c0,1.3,0.2,2.6,0.1,3.9c-0.4,4.6,0.6,8.6,3.9,12
				c0.4,0.4,0.6,1.4,0.4,1.8c-2.2,4.6-4.5,9.1-6.8,13.6c-0.1,0.2-0.3,0.4-0.5,0.7c-0.9-1.8-1.8-3.6-2.7-5.4
				c-5.1,2.2-7.4,7.1-11,10.8c2.6-9,6.1-17.7,7.5-27c-0.1-0.1-0.3-0.2-0.4-0.3c-0.6,0.7-1.3,1.3-1.9,2c-3.1,3.7-6.2,7.4-9.3,11.1
				c-1.6,1.9-1.6,2-0.1,4c0.4,0.5,0.7,0.9,1.2,1.4c0.4-0.3,0.9-0.6,1.3-0.9c0.1,0.2,0.2,0.3,0.2,0.4c-0.3,1.1-0.3,2.3-0.9,3.2
				c-1,1.7-0.3,2.6,1,3.4c0.2,0.2,0.5,0.3,0.7,0.9c-1-0.1-2-0.1-3-0.1c-0.4,0-0.9,0-1.1,0.2c-0.2,0.2,0,0.8,0.2,1.1
				c1.2,1.4,2.5,2.7,3.8,4.1c-1,0.1-2.3,0.3-3.6,0.5c1,2.9,2.5,5.5,5.5,6.8c-1.8,1.2-1.8,1.2-5.1,0.4c0.8,1.2,1.4,2.1,2.1,3
				c0.7,0.9,1.5,1.7,2.3,2.6c-0.8,0.7-0.7,2.4-2.2,1.9c-0.2,0.7-0.2,1.6-0.7,2.2c-3.1,4.3-6.1,8.5-9.4,12.6c-0.8,1-2.3,1.6-3.8,2.5
				c0.5,0.3,0.9,0.6,1.3,0.9c-1.3,1.8-2.4,3.4-3.6,5.1c0.7,0.4,1.3,0.8,1.6,1c1-0.4,1.7-0.8,2.5-0.9c4-0.7,8-1.2,12.5-1.9
				c-0.4,5.8-0.7,11.5-1.1,17.2c-25.3,0-50.3,0-75.9,0c4.8-3.4,10-5.3,14.8-7.7c-0.5-0.1-0.9-0.1-1.3-0.2c2-2.4,4-4.8,6.2-7.6
				c-2.1,0.8-3.8,1.4-5.5,2c-0.1-0.2-0.2-0.4-0.3-0.6c3.7-1.7,5.6-4.9,7.4-8.8c-2.2,0.8-4.1,1.5-5.9,2.1c3.2-4.1,5.9-8.3,8-13.3
				c-1.3,0.6-2.2,1.1-3.5,1.7c0.5-1.3,1-2.2,1.5-3.5c-1.4,1-2.6,1.8-3.7,2.5c-0.1-0.1-0.3-0.3-0.4-0.4c3-3.7,6.4-7,6.9-12
				c-1.4,0.4-2.7,0.8-4.1,1.2c-0.1-0.2-0.2-0.3-0.3-0.5C186.1,132.9,188.8,130.2,190,125.8z M229.1,121.3c-2.8,1.1-5.8,2-7.1,5.2
				c0.6,0.7,1.3,1.4,2.2,2.4c-1.1-0.2-1.7-0.3-2.3-0.3c-0.7,0-1.3,0-2,0c0.1,0.8,0.1,1.6,0.3,2.3c0.2,0.5,0.7,0.9,1.1,1.5
				c1.5-1.6,2.8-3,4.3-4.6c-0.4-0.3-0.8-0.5-1.3-0.8C227.4,126.2,228,123.5,229.1,121.3z M196.7,139.2c0.9,1.8,1.6,3.4,2.5,5.3
				c1.6-2.5,3-4.5,4.5-6.9c-1.9,0.5-3.2,0.9-4.7,1.3c0.1,0.1,0.4,0.5,0.6,0.9c-0.1,0.1-0.2,0.3-0.2,0.4
				C198.7,139.9,197.8,139.6,196.7,139.2z M230,148c-0.1-0.1-0.2-0.1-0.3-0.2c-1.3,0.9-2.6,1.9-4,2.9c0.6,0.6,1.2,1.3,1.9,2
				C228.4,151.1,229.2,149.5,230,148z"/>
		</g>
		<g>
			<path class="st0" d="M353.9,157.2c-1.8,0.4-3.5,0.8-5.2,1c-1.4,0.2-1.8,0.7-1.6,2.1c1.1,7,2.2,14.1,3.3,21.1c0,0.3,0.1,0.6,0.3,1
				c-1.9,0.5-3.8,1.1-5.6,1.6c-5,1.5-10.1,2.8-15,4.6c-3.4,1.2-6.6,3.1-9.8,4.8c-1.3,0.7-2.5,1.3-4.1,1.2
				c-12.6-0.8-25.3-1.3-37.9-2.3c-12.2-0.9-24.3-1.5-36.5-0.2c-0.3,0-0.7,0-1.2,0c1.3-10.9,3.2-21.7,2.6-32.8
				c-4.3,0.8-8.4,1.6-12.9,2.4c0.3-0.6,0.3-0.8,0.4-1c14.1-17.9,25.6-37.4,35.3-57.9c0.5-1,1.1-2,1.5-3c0.5-1.1,1-1.1,2.1-0.7
				c4.3,1.5,8.6,3.4,13,4.3c9.9,1.9,20,1.9,30.1,0.6c0.9-0.1,1.6-0.3,2.1,0.7c7.7,15.4,18.9,28.2,29.8,41.3
				c2.8,3.4,5.7,6.7,8.6,10.1C353.3,156.4,353.5,156.7,353.9,157.2z M317.1,191.5c-1.1-9.1-2.2-18-3.4-27.1
				c-2.2,0.8-3.5-0.3-4.7-1.6c-0.9-1-2.1-1.9-3-3c-5.9-6.9-11.7-13.8-17.5-20.8c-6.3-7.5-12.1-15.4-16.7-24
				c-0.3-0.5-0.6-0.9-1.1-1.8c-0.1,0.7-0.1,1-0.1,1.3c0.2,14,0.4,28,0.7,42c0.2,8.2,1.6,16.2,5.9,23.4c1.7,2.8,3.4,5.5,5,8.3
				c0.7,1.2,1.6,1.7,3,1.8c9.9,0.5,19.9,1,29.8,1.5C315.6,191.5,316.2,191.5,317.1,191.5z M243.6,189.2c4.1-0.2,8-0.3,11.9-0.5
				c0.5,0,1.1-0.4,1.4-0.9c6.5-10,11.6-20.4,11.5-32.8c-0.1-13.9,0.1-27.8,0.1-41.7c0-0.2-0.1-0.5-0.2-0.7c-1.7,2.8-3.1,5.7-4.5,8.7
				c-4.6,10.1-10.6,19.5-16.5,28.9c-1.2,2-1.7,3.9-1.8,6.3c-0.2,6.6-0.5,13.3-0.9,19.9C244.5,180.7,244,184.9,243.6,189.2z
				 M344.3,159.2c-0.4,0-0.6,0-0.8,0c-8.6,1.5-17.3,3.1-25.9,4.5c-1.3,0.2-1.2,1-1.1,1.9c0.6,5.2,1.2,10.4,1.8,15.6
				c0.4,3,0.9,6,1.4,9.2c9-4.7,18.5-7,27.6-9.8C346.3,173.4,345.3,166.3,344.3,159.2z M269.2,105.2c5.3,8,10.5,16,15.8,23.7
				c6.9,9.9,15.9,20.7,18.1,21.8c-5.1-9-11.8-16.4-17.4-24.7c-5.6-8.2-11.1-16.5-16.6-24.6c-7.6,14.3-15.2,28.5-22.9,42.9
				C255.7,132.2,261.7,118.3,269.2,105.2z M338.6,144.2c0.1-0.1,0.3-0.2,0.4-0.4c-3.5-4.2-7.2-8.3-10.6-12.7
				c-5.3-7-10.3-14.1-15.4-21.3c-0.8-1.1-1.7-1.5-3.1-1.5c-9.1,0.1-18.1,0.6-27.1-1c-1.1-0.2-2.2-0.3-3.3-0.5
				c-0.1,0.3-0.1,0.5-0.2,0.8c3.5,1,6.9,2.3,10.4,2.8c4.9,0.8,9.8,1,14.7,1.4c2.5,0.2,4.9,0.9,6.8,2.7c3.2,3.1,6.4,6.1,9.3,9.4
				c4.6,5.2,9,10.7,13.6,16C335.5,141.5,337.1,142.8,338.6,144.2z M303.2,139.1c-0.1,0.1-0.2,0.1-0.3,0.2c0.1,0.3,0.1,0.6,0.2,0.8
				c4.1,6.1,8.3,12.1,12.4,18.2c0.7,1.1,1.7,1.3,2.9,1c1.5-0.3,3-0.5,4.5-0.7c3.1-0.5,6.2-1,9.3-1.5c0-0.2,0-0.3,0-0.5
				c-4,0-8,0-12,0c-1.8,0-3.4-0.6-4.5-2c-2.9-3.4-5.7-6.8-8.6-10.3C305.9,142.6,304.6,140.9,303.2,139.1z M314.2,134.3
				c5.3,5.4,11.3,9.7,18.8,11.2C326.8,141.8,320.5,138.1,314.2,134.3z"/>
		</g>
		<g>
			<path class="st0" d="M298.5,183c-10.5-3.4-21.5-15.8-21.9-24.5C281.9,168.4,289.3,176.4,298.5,183z"/>
		</g>
		<g>
			<path class="st0" d="M248.9,184.9c6.9-5,11.4-11.9,14.6-19.6C263.9,172.9,255.8,183.7,248.9,184.9z"/>
		</g>
	</g>
	<g>
		<path class="st0" d="M62.9,431.4c-4.3-0.2-8.4-0.9-12.4-2.3c-4-1.4-7.7-3.6-11-6.7c-1.4-1.2-2.4-2.6-3-4c-0.6-1.5-0.5-3.3,0.2-5.4
			c0.9-2.3,1.7-4.6,2.4-7c0.7-2.4,1.4-4.8,2.2-7.2c1.1-3.2,3.1-3.9,6-2.1c1.7,1.1,3.4,2.2,5.1,3.3c1.7,1.1,3.4,2.3,5.1,3.3
			c2.1,1.2,4.4,2,6.7,2.4c2.3,0.4,4.7,0,7.4-1c2.1-1.1,3.4-2.1,3.7-3.2c0.3-1.1-0.4-2.5-2.1-4.1c-1.8-2-3.8-3.8-5.7-5.3
			c-2-1.5-4.3-2.9-6.9-4.1c-6.9-3.1-12.5-7.2-16.9-12.4c-4.4-5.2-6.9-11.6-7.7-19.1c-1.1-9.3-0.3-18.2,2.3-26.4
			c2.6-8.3,7.6-15.7,14.9-22.3c3.7-3.4,7.5-5.6,11.6-6.8c4.1-1.1,8-1.3,11.7-0.3c3.8,0.9,7.2,2.8,10.3,5.6c3.1,2.8,5.7,6.5,7.7,10.9
			c1.7,3.7,2.8,7.5,3.2,11.4c0.5,3.9,1,7.9,1.6,11.8c0,0.8-0.1,1.3-0.2,1.6c-0.2,0.3-0.8,0.8-2,1.4c-1.1,0.6-2.5,1.3-3.9,2
			c-1.5,0.7-2.8,1.3-4,1.7c-1.2,0.5-2,0.7-2.3,0.7c-1.2-0.2-2.2-1-3-2.5c-0.8-1.8-1.6-3.8-2.5-5.7c-0.9-1.8-2-3.5-3.2-4.9
			c-1.2-1.5-2.8-2.6-4.6-3.6c-2.5-1.2-4.8-1.5-6.9-0.8c-2.1,0.7-3.8,2.3-5.1,4.7c-2.8,5.8-3.4,11.3-1.8,16.3
			c1.5,5.1,5.1,9.4,10.6,12.9c2.6,1.7,5.3,3.3,8,4.8c2.8,1.5,5.4,3.1,8,4.8c2.9,1.8,5.5,4,7.8,6.4c2.3,2.5,4.1,5.3,5.3,8.5
			c1.4,3.2,2.1,6.6,2.2,10c0.1,3.4-0.4,6.8-1.4,10c-1,3.2-2.6,6.2-4.7,8.9c-2.1,2.7-4.8,4.9-7.8,6.8c-3.8,2.1-7.7,3.9-11.7,5.3
			C72,431,67.6,431.6,62.9,431.4z"/>
		<path class="st0" d="M113.4,368.2c0.3-8.7,1-16.8,2.1-24.3c1.1-7.4,3.4-14.6,6.9-21.5c3.5-6.7,8-12.4,13.3-17
			c2.6-2.3,5.6-4,8.9-5.2c3.3-1.1,6.7-1.6,10.3-1.5c3.6,0.2,7.1,0.9,10.6,2.3c3.4,1.4,6.6,3.4,9.3,6c4.9,4.4,8.6,9.5,11.2,15.3
			c2.5,5.7,4,11.8,4.5,18.3c0.9,11.8,0.4,23.3-1.5,34.4c-1.9,11.1-5.6,22-10.9,32.5c-0.9,1.8-1.9,3.6-3,5.3
			c-1.1,1.7-2.3,3.2-3.7,4.6c-1.2,1.4-1,2.6,0.7,3.7c1.8,1.2,3.8,2.3,5.7,3.1c2,0.8,4.1,1.5,6.2,2c1.2,0.3,2,0.7,2.3,1.3
			c0.3,0.5,0.2,1.4-0.5,2.6c-1.5,3.1-3,6.2-4.4,9.4c-1.4,3.2-2.8,6.4-4.4,9.4c-0.5,1.2-1,1.9-1.7,2.1c-0.7,0.2-1.6,0-2.9-0.5
			c-4.4-1.7-8.1-4.1-11-7.4c-2.9-3.2-5.4-6.9-7.6-11c-0.3-0.6-0.6-1.1-0.8-1.6c-0.2-0.5-0.8-0.7-1.7-0.7c-6.9-0.3-12.6-2.2-17.2-5.6
			c-4.6-3.4-8.4-8.1-11.3-13.9c-3.4-7-5.8-14.2-7.4-21.5C114,381.5,113.3,374.6,113.4,368.2z M137.6,373c0,4.4,0.3,9.2,0.9,14.1
			c0.6,5,2.4,9.7,5.3,14.1c3.2,4.9,6.2,7.2,9.1,6.9c2.8-0.3,5.5-2.9,7.9-7.8c2.6-5.4,4.7-10.9,6.2-16.6c1.5-5.7,2.7-11.5,3.5-17.5
			c0.5-5.1,0.6-10,0.3-14.9c-0.2-4.9-1.3-9.8-3.1-14.7c-2-5.2-4.8-8.2-8.5-9.1c-3.7-0.8-7.5,0.7-11.5,4.5c-0.8,0.8-1.4,1.5-2,2.3
			c-0.5,0.8-1,1.6-1.5,2.5c-2.6,5.5-4.3,11.2-5.1,17.1C138.4,360,137.9,366.3,137.6,373z"/>
		<path class="st0" d="M255.5,400.2c-1.7,4-3.7,7.7-6,11.3c-2.3,3.5-4.8,7.1-7.4,10.6c-2,2.8-4.3,5-6.9,6.8
			c-2.6,1.8-5.7,2.7-9.2,2.9c-3.4,0.2-6-0.7-7.9-2.5c-1.9-1.8-3.6-4.1-5.2-6.7c-2.5-4.3-4.3-8.7-5.5-13.2c-1.2-4.5-2.2-9.2-3-13.9
			c-1.1-7.5-1.6-15-1.7-22.4c-0.1-7.4,0-14.9,0.1-22.4c0.2-6,0.5-12,0.9-17.9c0.5-6,1.2-12,2.1-17.9c0.3-2,0.5-4,0.7-6
			c0.2-2,0.4-4,0.7-6c0.2-2,1.2-2.9,3.2-2.8c3.5,0.3,7.1,0.6,10.8,0.8c3.7,0.2,7.3,0.5,10.8,0.8c1.2,0,2,0.3,2.3,0.8
			c0.3,0.5,0.4,1.3,0.2,2.4c-1.5,8.3-2.7,16.6-3.4,24.9c-0.8,8.4-1.3,16.7-1.6,25.2c-0.2,4.8-0.3,9.4-0.3,14
			c-0.1,4.6,0.1,9.2,0.6,13.8c0.3,1.5,0.6,3,0.8,4.5c0.2,1.5,0.7,2.9,1.5,4.3c1.4,2.6,3.1,3.9,5.3,3.9c2.1,0,4-1.2,5.5-3.7
			c1.7-2.6,3-5.3,3.9-8.2c0.9-2.8,1.9-5.7,3-8.6c3.2-10.1,5.7-20.3,7.6-30.6c1.8-10.3,3.3-20.7,4.4-31.3c0-0.9,0-1.8,0.1-2.8
			c0.1-0.9,0.2-1.8,0.3-2.8c0.2-1.5,0.3-2.7,0.3-3.4c0.1-0.8,0.3-1.3,0.8-1.7c0.5-0.4,1.1-0.6,2-0.8c0.8-0.2,2-0.2,3.6-0.2
			c2.5,0,4.9,0,7.2,0.1c2.4,0.1,4.8-0.1,7.2-0.6c1.2-0.3,1.9-0.1,2.1,0.6c0.2,0.7,0.2,1.4,0,2.2c-0.3,3.2-0.6,6.5-0.9,9.8
			c-0.3,3.3-0.6,6.6-0.9,10c-0.6,6.9-1.1,13.8-1.4,20.7c-0.3,6.9-0.6,13.8-0.9,20.7c-0.5,9.7-0.7,19.2-0.8,28.7
			c-0.1,9.5,0,19.1,0.3,28.7c0,2-1,3.2-3,3.7c-2.6,0.6-5.2,1.1-7.7,1.6c-2.5,0.5-5.1,1.1-7.7,1.8c-1.4,0.3-2.3,0.3-2.8-0.1
			c-0.5-0.4-0.8-1.2-0.9-2.4c-0.3-4.1-0.7-8.2-1-12.3c-0.4-4.1-0.7-8.2-1-12.3c0-0.3,0-0.6-0.1-0.9c-0.1-0.3-0.1-0.6-0.1-0.9
			c-0.2,0-0.3,0-0.3-0.1C256,400.2,255.8,400.2,255.5,400.2z"/>
		<path class="st0" d="M372.6,396.2c0,4.9,0,9.9-0.1,14.9c-0.1,5.1,0,10.1,0.1,15.2c0,2.5-1.2,3.7-3.7,3.7c-2.5,0-5.3,0.4-8.4,1.1
			c-2.5,0.6-3.7-0.3-3.7-2.8c-0.3-3.1-0.5-6-0.7-8.9c-0.2-2.8-0.3-5.7-0.5-8.6c-0.2-2.1-0.3-4.2-0.5-6.1c-0.2-1.9-0.3-3.9-0.5-6.1
			c0-1.7-0.8-2.4-2.5-2.1c-4.9,0.8-9.7,1.6-14.5,2.4c-4.8,0.8-9.5,1.6-14.3,2.4c-1.5,0.2-2.3,1.1-2.3,2.8c-0.3,4-0.5,7.9-0.6,11.8
			c-0.1,3.9,0,7.9,0.3,11.8c0.2,1.4,0.1,2.3-0.2,2.9c-0.3,0.5-1.1,0.7-2.5,0.6c-3.1-0.2-6.1-0.3-9.1-0.3c-3-0.1-6-0.1-9.1-0.1
			c-1.4,0-2.2-0.3-2.4-1c-0.2-0.7-0.3-1.5-0.3-2.4c0-3.7,0.2-7.4,0.6-11c0.4-3.7,0.8-7.4,1.3-11c1.2-9.3,2.6-18.6,4-27.8
			c1.5-9.2,3.3-18.4,5.6-27.6c1.7-6.6,3.7-13,6.1-19.2c2.4-6.2,5.5-12.2,9.3-18c1.4-2.1,3-4.2,4.8-6.1c1.8-1.9,3.9-3.6,6.2-4.9
			c4.4-2.8,8.9-3.6,13.2-2.5c4.4,1.1,8,3.8,10.7,8.3c2.6,4.4,4.7,9,6.2,13.8c1.5,4.8,2.5,9.7,3.1,14.7c1.1,10.1,2.1,20.2,2.9,30.1
			C372.1,376.1,372.6,386.1,372.6,396.2z M353.5,376.5c-0.6-6.4-1.3-13-2.2-19.7c-0.8-6.7-1.8-13.4-2.9-20.1
			c-0.3-2.1-0.7-4.2-1.2-6.2c-0.5-2-1.1-4-2.1-6c-0.8-1.2-1.5-1.9-2.1-2.1c-0.6-0.2-1.4,0.4-2.3,1.6c-1.7,2.1-3.1,4.7-4.4,7.6
			c-2.8,7.1-5.1,14.2-7.1,21.4c-2,7.2-3.6,14.5-4.8,21.8c-0.2,1.2-0.5,2.6-0.9,4c-0.5,1.5-0.3,2.6,0.5,3.3c0.9,1.1,2,1.2,3.3,0.5
			c1.3-0.8,2.6-1.3,3.8-1.6c3.4-0.5,6.7-0.8,9.9-0.9c3.2-0.2,6.5-0.4,9.9-0.7c0.8-0.2,1.5-0.3,2.1-0.5
			C353.6,378.9,353.8,378,353.5,376.5z"/>
		<path class="st0" d="M404.5,420.4c-0.5,1.2-0.6,2.5-0.5,3.9c0.2,1.4,0.2,2.7,0,3.9c-0.2,1.1-0.4,1.9-0.8,2.4
			c-0.4,0.5-1.3,0.7-2.6,0.6c-1.7-0.3-3.4-0.5-5.2-0.5c-1.8,0-3.5,0-5.2,0c-2,0-3.1-1.1-3.2-3.2c-1.1-15.6-1.6-31.2-1.7-46.7
			c-0.1-15.5-0.2-31-0.3-46.7c-0.2-4.6-0.3-9.2-0.3-13.8c-0.1-4.6-0.3-9.1-0.6-13.6c-0.2-2.5,1-3.8,3.4-3.9c3.4-0.3,6.7-0.7,9.9-1
			c3.2-0.4,6.4-0.9,9.7-1.5c3.4-0.6,5.4-0.6,6.1,0c0.7,0.6,0.7,2.6,0.1,6c-0.8,4.6-1.5,9.2-2.2,13.8c-0.7,4.6-1.2,9.2-1.5,13.8
			c0,0.6,0.2,1.1,0.5,1.4c1.5-3.1,2.9-6.2,4.3-9.4c1.3-3.2,2.9-6.4,4.7-9.4c1.8-3.1,3.9-5.9,6.3-8.4c2.4-2.5,5.1-4.8,8.2-6.8
			c2.1-1.4,4.4-2.1,6.9-2.3c2.5-0.2,4.8,0.2,7.1,1c2.3,0.8,4.4,2.1,6.3,3.9c1.9,1.8,3.4,3.9,4.5,6.3c2.8,6.4,4.5,13,5.3,19.7
			c0.8,6.7,1.1,13.5,1.1,20.3c-0.2,10.6-1.1,20.9-2.8,30.9c-1.7,10-4.8,19.9-9.4,29.5c-2.8,5.8-6.4,10.5-10.9,13.9
			c-4.5,3.4-10.2,5.3-17.1,5.4c-3.5,0.2-6.7-0.5-9.7-1.8c-2.9-1.4-5.6-3.4-8-6c-0.8-0.8-1.3-1.4-1.6-1.8H404.5z M444.3,353.7
			c0-2.3,0-4.6,0.1-7c0.1-2.4,0-4.8-0.1-7.2c-0.3-2.3-0.6-4.6-0.9-6.8c-0.3-2.2-1.1-4.4-2.3-6.6c-2.1-3.8-4.8-4.2-8-1.1
			c-0.3,0.3-0.7,0.7-1,1.1c-0.4,0.5-0.7,0.8-1,1.1c-2.8,3.5-5.1,7.2-7.1,11c-2,3.8-3.8,7.7-5.3,11.7c-2.8,8.3-5.2,16.5-7.4,24.6
			c-2.1,8.1-3.3,16.6-3.4,25.3c0,5.2,2.3,8.8,6.9,10.8c2.9,1.2,5.7,2,8.3,2.3c2.6,0.3,5.2-0.8,7.8-3.2c4.1-4.1,7.1-9.3,9-15.4
			c2.1-6.6,3.5-13.3,3.9-20.1C444.1,367.5,444.3,360.6,444.3,353.7z"/>
	</g>
	<g>
		<path class="st0" d="M149.6,277.8l-0.5-0.5c-0.2-0.2-0.3-0.4-0.4-0.6c-0.1-0.2-0.3-0.4-0.5-0.6c-0.4-0.5-0.8-0.9-1.2-1.2
			c-0.4-0.4-0.7-0.6-0.9-0.8c-0.3-0.3-0.6-0.6-0.8-0.9c-0.2-0.3-0.4-0.6-0.7-0.9c-0.2-0.4-0.4-0.7-0.6-1c-0.2-0.3-0.4-0.5-0.6-0.8
			c-0.5-0.8-0.9-1.5-1.4-2.2c-0.4-0.7-0.9-1.4-1.2-2.1s-0.8-1.4-1.1-2.2c-0.3-0.8-0.6-1.6-0.9-2.4c-0.2-0.4-0.3-0.8-0.4-1.2
			c-0.1-0.4-0.2-0.9-0.4-1.4c0-0.1,0-0.2-0.1-0.2c0-0.1-0.1-0.2-0.1-0.2c0-0.2,0-0.3,0.1-0.4c0-0.1,0.1-0.2,0.1-0.4
			c-0.4-0.2-0.6-0.4-0.7-0.8c-0.1-0.4-0.2-0.7-0.2-0.9c-0.3-1.6-0.6-3.1-0.7-4.7c-0.2-1.5-0.2-3.1-0.2-4.7c0-0.5,0-0.9,0.1-1.4
			c0.1-0.5,0.1-0.9,0.1-1.4v-1.2c0-0.7,0-1.6,0.1-2.8c0.1-1.1,0.2-2.3,0.4-3.6c0.2-1.2,0.4-2.4,0.6-3.5c0.2-1.1,0.5-2,0.8-2.7V230
			v-0.1v-0.4c0.1-0.1,0.1-0.2,0.1-0.4l1.3-3.9c0.1-0.3,0.3-0.8,0.6-1.5c0.3-0.7,0.7-1.5,1-2.3c0.4-0.8,0.7-1.6,1.1-2.3
			c0.4-0.7,0.6-1.1,0.8-1.4c0.3-0.4,0.6-0.8,0.9-1.1c0.3-0.4,0.6-0.7,0.9-1.1c0.5-0.9,1.1-1.6,1.8-2.1c0.6-0.6,1.2-1.3,1.8-2
			c0.6-0.7,1.2-1.3,2-2c0.6-0.6,1.3-1.2,2-1.8c0.7-0.6,1.5-1.1,2.3-1.5c0.8-0.5,1.6-0.9,2.4-1.2c1.8-1.1,4-2,6.6-2.7
			c2.6-0.7,5-1.1,7.1-1.3c0.4,0,0.9,0,1.4-0.1c0.5-0.1,1-0.2,1.5-0.2c1-0.2,1.9-0.4,3-0.4h4.4c1.2,0,2.4,0.1,3.7,0.2
			c1.3,0.2,2.5,0.4,3.7,0.6c0.4,0.2,0.8,0.3,1.3,0.4c0.5,0.1,1,0.3,1.5,0.4c0.4,0.2,0.8,0.3,1.2,0.4c0.4,0.1,0.8,0.1,1.2,0.1h0.4
			l0.1,0.2c0.1,0.1,0.1,0.1,0.1,0.2c0,0,0,0.1,0.1,0.2h0.5c0.2,0,0.8,0.2,1.7,0.6c0.9,0.4,1.8,0.9,2.8,1.4c1,0.6,1.9,1.1,2.7,1.7
			c0.8,0.6,1.2,1,1.2,1.3h0.5h0.2l0.1,0.2c0.3,0.2,0.6,0.5,0.8,0.8c0.2,0.2,0.3,0.3,0.5,0.5c0.2,0.2,0.3,0.3,0.5,0.5
			c0.2,0.3,0.3,0.7,0.5,1.1c0.2,0.4,0.2,0.9,0.2,1.4v0.6l-0.4,0.1c-0.3,0.2-0.9,0.5-1.8,1.1c-0.9,0.6-1.8,1.1-2.8,1.8
			c-0.6,0.4-1.2,0.7-1.7,1c-0.5,0.3-0.9,0.5-1.3,0.8c-0.5,0.2-0.8,0.4-1.1,0.5l-0.2,0.1l-0.1,0.1c-0.1,0-0.2,0-0.2,0.1
			c-0.1,0-0.2,0.1-0.2,0.1c-0.2,0-0.3,0-0.5-0.1c-0.2-0.1-0.3-0.2-0.5-0.2c-0.2-0.1-0.4-0.3-0.7-0.6c-0.1-0.1-0.2-0.2-0.2-0.2
			c-0.1-0.1-0.2-0.2-0.4-0.4l-0.4-0.4c-1-0.9-2.1-1.5-3.1-2c-1-0.4-2.2-0.8-3.6-1c-0.7-0.2-1.4-0.3-2.1-0.5
			c-0.7-0.2-1.4-0.4-2.1-0.5c-0.6-0.2-1.2-0.3-1.8-0.4c-0.6-0.1-1.1-0.2-1.8-0.2H176c-0.3,0-0.5,0-0.6-0.1h-0.6
			c-0.2-0.1-0.4-0.1-0.8-0.1h-0.2l-0.5,0.2c-0.2,0.1-0.4,0.2-0.6,0.2c-0.2,0.1-0.5,0.1-0.8,0.1c-0.5,0-0.8-0.1-1.1-0.4l-0.5,0.6
			h-0.1c-0.6,0.2-1.1,0.5-1.6,0.7c-0.5,0.2-1,0.4-1.4,0.6c-0.5,0.2-0.9,0.3-1.2,0.5c-0.4,0.2-0.7,0.4-1.1,0.5
			c-0.7,0.4-1.4,0.9-2.1,1.5c-0.7,0.6-1.5,1.3-2.4,2.2c-1,0.9-1.7,2-2.3,3.1c-0.3,0.6-0.6,1.1-0.9,1.7c-0.3,0.6-0.6,1.1-0.9,1.8
			c-0.2,0.2-0.3,0.6-0.5,0.9c-0.2,0.4-0.3,0.8-0.5,1.2c-0.4,1-0.6,1.7-0.6,2c0,0.6,0,0.9-0.1,1.2c0,0.2,0,0.3-0.1,0.5
			c0,0.2-0.1,0.4-0.1,0.5l-0.8,7.7c0,0.3,0,0.6,0.1,0.8c0,0.2,0,0.3,0.1,0.3c0,0,0.1,0.1,0.1,0.3v0.6c0,0.6-0.3,1.2-0.9,1.7
			c0.1,0.2,0.1,0.6,0.1,0.9v1.3c0,0.2,0,0.5,0.1,0.7c0,0.2,0.1,0.5,0.1,0.7c0.1,0.2,0.1,0.3,0.1,0.4c0,0.1,0,0.3,0.1,0.4v0.8
			c0,0.6,0,1.2,0.1,1.8c0,0.6,0.2,1.1,0.4,1.5c0.2,0.6,0.4,1.3,0.5,1.9c0.1,0.6,0.3,1.3,0.4,1.9c0.2,0.6,0.3,1.2,0.5,1.8
			c0.2,0.6,0.4,1.1,0.7,1.8c0.4,0.8,0.9,1.7,1.5,2.7c0.6,1,1.3,2,2.1,3c0.8,1,1.6,1.9,2.5,2.8c0.9,0.9,1.7,1.5,2.5,2
			c0.6,0.4,1.1,0.7,1.8,1c0.6,0.3,1.3,0.6,1.9,0.9h0.1c2.4,0.7,4.8,1.1,7.2,1.1c0.2,0,0.3,0,0.3,0.1c0,0,0.1,0.1,0.2,0.1l0.5,0.2
			c0.3,0.1,0.6,0.1,1,0.1c1,0,2,0,3-0.1c1-0.1,2-0.2,2.9-0.4h0.4c0.1-0.1,0.1-0.1,0.2-0.1c0,0,0.1,0,0.2-0.1
			c0.4-0.2,0.8-0.3,1.4-0.4c0.5-0.1,1-0.3,1.5-0.4c0.6-0.2,1-0.3,1.5-0.4c0.4-0.1,0.8-0.2,1.2-0.4c1.7-0.9,3.4-1.8,5.2-2.9
			c1.8-1.1,3.2-2.4,4.3-3.9c0.4-0.6,0.9-1.2,1.4-1.8c0.2-0.2,0.5-0.5,0.7-0.7c0.2-0.2,0.5-0.5,0.8-0.7l0.1-0.2h0.7
			c1,0,1.8,0.4,2.4,1.1c0.4,0.4,0.7,0.9,1,1.4c0.3,0.5,0.6,1,0.9,1.4c0.2,0.4,0.6,0.8,0.9,1.3c0.4,0.5,0.8,0.9,1.2,1.4
			c0.8,1.2,1.2,2.3,1.2,3.3c0,0.8-0.3,1.6-1,2.4c-0.3,0.5-0.8,1.1-1.5,1.8c-0.2,0.2-0.6,0.4-0.9,0.8c-0.3,0.2-0.6,0.4-0.9,0.5
			c-0.7,0.9-1.6,1.9-2.7,2.7c-1.1,0.9-2.2,1.7-3.4,2.5c-1.2,0.8-2.5,1.5-3.7,2.1c-1.3,0.6-2.5,1.1-3.6,1.5c-0.2,0.1-0.4,0.1-0.7,0.2
			c-0.3,0-0.5,0.1-0.8,0.2c-0.3,0.2-0.6,0.3-0.8,0.3c-0.2,0-0.4,0.1-0.7,0.3c-0.2,0.2-0.4,0.3-0.6,0.3c-0.2,0-0.4,0.1-0.6,0.2
			c-0.2,0.1-0.5,0.1-0.7,0.1c-0.2,0-0.4,0-0.5,0.1c-0.8,0.1-1.7,0.3-2.7,0.6c-0.5,0.2-1,0.3-1.4,0.4c-0.5,0.1-1,0.1-1.5,0.1
			c-1.4,0-2.9,0-4.3,0.1c-1.5,0-2.9,0.1-4.2,0.1c-0.3,0-0.5,0-0.6-0.1c-0.1,0-0.2,0-0.2-0.1c-0.1,0-0.2-0.1-0.2-0.1
			c-0.1,0-0.1,0-0.2-0.1c0,0-0.1-0.1-0.2-0.1h-0.4h-0.1c-0.1,0-0.2,0-0.2,0.1h-0.1c-0.1,0-0.1,0-0.1,0.1c0,0,0,0.1-0.1,0.1h-0.4
			c-0.6,0-1-0.1-1.3-0.2c-0.2,0-0.3,0-0.4-0.1c-0.1,0-0.2-0.1-0.2-0.1c-0.1-0.1-0.2-0.1-0.4-0.1c-1.8-0.2-3.4-0.6-4.7-1.1
			c-0.8-0.3-1.6-0.6-2.3-0.9c-0.8-0.3-1.5-0.5-2.2-0.8c-1.1-0.5-2.1-0.9-2.8-1.4c-0.8-0.4-1.5-0.9-2.1-1.4c-0.6-0.4-1.3-0.8-1.9-1.4
			c-0.6-0.5-1.4-1.1-2.3-1.7h-0.2L149.6,277.8z"/>
		<path class="st0" d="M217.4,283l0.4-0.4c0.2,0,0.5-0.2,0.7-0.6c0.2-0.2,0.3-0.2,0.5-0.2v-0.1v-0.1c0-0.2,0-0.3,0.1-0.3
			c0,0,0.1-0.1,0.1-0.3c0-0.2,0-0.4,0.1-0.6c0-0.2,0.1-0.3,0.1-0.4c0.2-1,0.5-2.1,0.8-3.1c0.3-1,0.5-2,0.8-3
			c0.2-0.4,0.3-0.8,0.4-1.1c0.1-0.3,0.2-0.7,0.3-1.1c0.2-0.4,0.3-0.7,0.4-0.9c0.1-0.2,0.2-0.6,0.3-0.9c0.4-1.7,0.8-3.4,1.3-5.1
			c0.5-1.7,0.9-3.3,1.4-4.9c0.2-0.6,0.3-1.2,0.5-1.8c0.2-0.6,0.3-1.2,0.5-1.8l1.8-5.2c0.6-2.3,1.2-4.5,1.8-6.8
			c0.6-2.2,1.2-4.4,2-6.6c0.3-0.9,0.5-1.7,0.7-2.5c0.1-0.8,0.3-1.6,0.5-2.4c0.6-1.3,1-2.8,1.3-4.4c0.2-0.8,0.5-1.5,0.7-2.3
			c0.2-0.7,0.4-1.3,0.7-1.9c0.2-0.3,0.2-0.6,0.2-0.7c0.2-0.2,0.2-0.3,0.2-0.5c0-0.2,0-0.3,0.1-0.5c0-0.8,0.2-1.5,0.5-2.1
			c0.2-0.2,0.4-0.5,0.4-0.8c0-0.6,0-0.9,0.1-1.2c0.3-1.3,0.7-2.6,1.1-3.9c0.4-1.2,0.8-2.5,1.2-3.9c0.3-1.1,0.6-2.2,0.8-3.2
			c0.2-1,0.5-2,0.7-3c0.3-0.9,0.7-1.4,1.1-1.5c0.2-0.1,0.4-0.1,0.8-0.1c0.1-0.1,0.4-0.1,0.8-0.1c1.1-0.1,2.2-0.2,3.3-0.4
			c1.1-0.2,2.2-0.2,3.3-0.2h8c2,0,3.9,0.1,5.8,0.4c0.6,0.1,1.2,0.1,1.8,0.1c0.6,0,1.1-0.1,1.8-0.1h0.4l0.1,0.5
			c0.2,0.8,0.6,1.7,0.9,2.6c0.2,0.5,0.3,1,0.4,1.5c0.1,0.5,0.1,1,0.1,1.4c0.2,1.4,0.6,2.8,1.1,4.2c0.4,0.9,0.7,1.9,1,2.8
			c0.3,0.9,0.5,2,0.7,3.1c0.4,2.1,0.9,4.1,1.5,6.2c0.6,2.1,1.1,4.1,1.6,6.2l0.1,0.5l-0.4,0.1l0.6,0.4v0.2c0.2,0.6,0.3,1.1,0.3,1.5
			c0,0.5,0.1,1,0.2,1.5c0.2,0.6,0.3,1.2,0.4,1.7c0.1,0.5,0.2,0.9,0.4,1.4l0.2,0.4c0.1,0.2,0.3,0.9,0.5,1.8c0.3,1,0.6,2.1,0.9,3.2
			c0.3,1.1,0.6,2.2,0.9,3.1c0.3,0.9,0.4,1.5,0.4,1.7c0,0.8,0.2,1.4,0.7,1.9l0.2,0.1v0.2c0.2,1.4,0.5,2.8,0.8,4.3
			c0.3,1.4,0.6,2.9,1,4.4c0.2,1.4,0.6,2.8,1.2,4.2c0.4,0.9,0.7,1.9,0.8,2.9c0.1,1,0.2,2,0.2,2.9c0.4,0.5,0.6,0.9,0.7,1.2
			c0.1,0.3,0.2,0.6,0.2,0.9v0.9c0.1,0.2,0.1,0.3,0.1,0.4c0,0.1,0.1,0.3,0.2,0.4c0.2,0.6,0.3,1.2,0.5,1.7c0.2,0.5,0.4,1,0.5,1.7
			c0.2,0.4,0.3,0.8,0.3,1.1c0,0.3,0.1,0.6,0.2,0.9c0.1,0.5,0.4,1,0.8,1.7l0.1,0.2l-0.1,0.2c-0.1,0.1-0.1,0.3-0.1,0.6
			c0,0.2,0,0.5,0.1,0.8c0,0.3,0.1,0.5,0.1,0.8c0,1.2-0.6,1.8-1.7,1.8c-0.4,0-0.8,0-1.1-0.1c-0.3-0.1-0.7-0.1-1.1-0.1
			c-0.6,0-1.2,0-1.8,0.1c-0.6,0-1.2,0.1-1.7,0.1h-3c-0.5,0-1,0-1.5,0c-0.5,0-1,0.1-1.4,0.2h-0.5c-0.1,0.1-0.2,0.1-0.4,0.1
			c-1.4,0-2.3-0.7-2.7-2c-0.3-1.1-0.6-2.2-0.7-3.2c-0.2-1-0.4-2.1-0.7-3.2c-0.6-2.1-1.1-4.1-1.7-6.1c-0.6-2-1.1-4-1.5-6.2
			c-0.4-0.1-0.8-0.1-1.1-0.1c-0.4,0-0.7,0-1.1,0c-0.4,0.1-0.9,0.1-1.4,0.1s-1,0-1.5,0c-2.3,0-4.6,0-6.9-0.1
			c-2.3-0.1-4.6-0.1-6.9-0.1h-6.8c-0.2,0.6-0.7,2-1.4,4.2c-0.7,2.1-1.4,4.4-2.1,6.6c-0.7,2.3-1.3,4.4-1.8,6.3
			c-0.5,1.9-0.8,2.9-0.8,3.1v0.4l-0.4,0.1c-0.6,0.3-1.3,0.5-1.9,0.6c-0.6,0.1-1.3,0.1-1.9,0.1c-0.6,0-1.3,0-1.9-0.1
			c-0.6,0-1.3-0.1-1.9-0.1c-1,0-2.1,0-3.1,0.1c-1,0.1-2.1,0.1-3.2,0.1c-0.8,0-1.4-0.2-1.8-0.7c-0.2-0.2-0.3-0.3-0.4-0.4
			c-0.1-0.1-0.2-0.2-0.2-0.2c-0.3-0.3-0.5-0.6-0.6-0.7L217.4,283z M253.5,218.4v0.5c0,0.7-0.2,1.6-0.6,2.8c-0.4,1.1-0.7,2-0.8,2.7
			c-0.3,0.9-0.6,1.8-0.7,2.7c-0.2,0.9-0.4,1.8-0.7,2.7c-0.2,0.6-0.5,1.2-0.7,1.8c-0.2,0.6-0.4,1.1-0.5,1.8c-0.2,0.6-0.3,1.1-0.4,1.6
			c-0.1,0.5-0.1,1.1-0.1,1.7c0,0.2-0.1,0.5-0.4,0.7c-0.2,0.3-0.3,0.6-0.4,0.8c-0.1,0.2-0.2,0.4-0.3,0.7c0,0.3,0,0.6-0.1,0.7
			c0,0.2-0.1,0.6-0.2,1.1c-0.2,0.2-0.3,0.5-0.4,0.8c-0.1,0.3-0.2,0.6-0.2,0.9c-0.1,0.2-0.1,0.5-0.2,0.8c0,0.3-0.1,0.7-0.3,1.1
			c-0.2,0.7-0.3,1.4-0.4,2.1c-0.1,0.7-0.3,1.3-0.7,1.8c-0.1,0.2-0.2,0.3-0.3,0.5c-0.1,0.2-0.2,0.3-0.3,0.5c-0.1,0.2-0.1,0.5-0.1,0.8
			v0.7v0.4c0,0.1,0,0.2-0.1,0.2c0,0.1-0.1,0.2-0.1,0.2c-0.2,0.3-0.4,0.6-0.4,0.9c-0.2,0.2-0.3,0.5-0.3,0.7c0,0.2-0.1,0.4-0.3,0.7
			c0.6,0.1,1.1,0.1,1.7,0.2c0.6,0,1.1,0.1,1.8,0.1c0.9,0,1.7,0,2.6-0.1c0.9,0,1.7-0.1,2.6-0.1c0.9-0.1,1.7-0.1,2.6-0.1
			c0.8,0,1.6,0,2.2,0c0.6,0.1,1,0.1,1.5,0.2c0.4,0,0.8,0.1,1.2,0.3c0.3-0.2,0.6-0.2,0.9-0.2c0.3,0,0.6,0,0.9-0.1
			c0.3,0,0.6,0,0.8,0.1c0.2,0,0.6,0.1,0.9,0.1h0.6c-1.3-6.4-2.8-12.7-4.6-18.9c-1.8-6.2-3.4-12.4-4.9-18.8c-0.1,0.1-0.1,0.2-0.1,0.2
			c-0.1,0.5-0.2,0.9-0.5,1.3v0.2L253.5,218.4z"/>
		<path class="st0" d="M302.7,284.3c-0.2-0.3-0.4-0.6-0.4-0.9c0-0.3-0.1-0.6-0.2-0.9v-1.8c0-0.3,0-0.7,0.1-1c0-0.4,0.1-0.7,0.1-1.1
			c0-0.3,0-0.6-0.1-0.9c0-0.3-0.1-0.6-0.1-0.9c0-0.4,0-0.7,0.1-1c0-0.3,0.1-0.6,0.1-1v-1.3v-0.2l0.1-0.2c-0.1-0.1-0.1-0.2-0.1-0.5
			v-0.9l-0.5-0.4l0.5-0.4v-0.1c0-0.1,0-0.1,0.1-0.1s0.1,0,0.1-0.1c-0.2-0.5-0.2-0.9-0.2-1.4c0-0.3,0-0.6,0.1-0.8s0.1-0.5,0.1-0.8
			c0-0.6,0-1.2-0.1-1.7c0-0.5-0.1-1.1-0.1-1.7v-10.3c0-0.3,0-0.6,0.1-0.9c0-0.3,0.1-0.6,0.1-0.8v-0.6h0.2c-0.2-0.2-0.2-0.4-0.2-0.6
			c0-0.2,0-0.5-0.1-0.7v-1.7c0-0.6,0-1.2,0.1-1.7c0-0.5,0.1-0.9,0.1-1.2c0-2.6,0-5.3-0.1-8c0-2.7-0.1-5.3-0.1-8c0-0.5,0-0.9-0.1-1.4
			c0-0.5-0.1-0.9-0.1-1.4c0-0.4,0-0.8,0.1-1.1c0-0.3,0.1-0.7,0.1-1.1c0-0.4,0-0.8-0.1-1.1c0-0.4-0.1-0.7-0.1-1.1
			c0-0.2,0-0.5,0.1-0.7c0-0.2,0.1-0.5,0.1-0.7c0-0.4,0-0.7-0.1-1c0-0.3-0.1-0.6-0.1-1c0-0.3,0-0.7,0-1c0-0.4,0.1-0.7,0.2-1
			c-0.2-0.3-0.2-0.6-0.2-0.9c0-0.3,0-0.6,0-0.9c0-0.4,0-0.8,0.1-1.4c0-0.5,0.1-1,0.1-1.6c0-0.4,0-0.8-0.1-1.3c0-0.5-0.1-0.9-0.1-1.4
			c0-0.4,0-0.8-0.1-1.3c-0.1-0.5-0.1-0.9-0.1-1.3c0-0.2,0-0.4,0.1-0.5c0-0.1,0-0.1,0.1-0.1c0,0,0.1,0,0.1-0.1l0.1-0.1
			c-0.2-0.2-0.2-0.4-0.2-0.6v-0.2v-0.4l0.1-0.1v-0.1V204l0.1-0.1c0.2-0.4,0.5-0.7,0.9-0.8c0.4-0.1,0.7-0.2,1.1-0.3
			c0.4-0.1,0.8-0.1,1.1-0.1c0.4,0,0.7,0,1,0c1.1,0,2.2,0,3.2,0.1c1,0.1,2.1,0.1,3.2,0.1c0.3,0,0.6,0,0.8-0.1c0.2,0,0.5-0.1,0.8-0.1
			c0.4,0,0.7,0,1,0c0.3,0,0.6,0,1,0.1c0.9,0,1.5,0,1.9-0.1h0.6l0.1,0.5c0,0.2,0,0.4,0.1,0.7c0.1,0.3,0.2,0.6,0.4,1
			c0.2,0.3,0.3,0.7,0.5,1c0.2,0.4,0.3,0.7,0.5,1.1c0.2,0.4,0.3,0.8,0.5,1.1c0.2,0.4,0.3,0.7,0.4,1c0.2,0.5,0.2,0.8,0.2,0.9l0.1,0.1
			v0.2c0.4,0.3,0.8,0.8,1.1,1.5c0.3,0.7,0.4,1.3,0.4,1.8c0.3,0.3,0.5,0.6,0.6,0.7l0.7,1.1c0.2,0.6,0.7,1.7,1.5,3.4
			c0.8,1.7,1.7,3.5,2.6,5.3c0.5,0.9,0.9,1.9,1.3,2.7c0.4,0.9,0.8,1.6,1.2,2.3c0.2,0.8,0.5,1.3,0.7,1.7l0.2,0.5l0.1,0.2v0.1
			c0,0.2,0.2,0.6,0.5,1.3c0.3,0.7,0.8,1.6,1.3,2.7c0.4,1,0.8,2,1.3,2.8c0.5,0.9,0.8,1.5,0.9,1.9c0,0.1,0.1,0.3,0.2,0.6
			c0.2,0.1,0.3,0.3,0.4,0.7c0.2,0.7,0.6,1.4,0.9,2c0.2,0.4,0.4,0.8,0.6,1.1c0.2,0.4,0.4,0.7,0.6,1.1l1.3,3.3l-0.1,0.2l-0.5,0.5h0.4
			c0.2,0,0.3,0,0.4,0.1c0.2-0.2,0.3-0.4,0.4-0.6c0.1-0.2,0.3-0.4,0.4-0.6c0.6-1.3,1.2-2.5,1.6-3.4c0.4-0.9,0.9-2,1.4-3.1
			c0.5-1.1,1-2.2,1.4-3.2c0.4-1,0.8-1.8,1.1-2.6c0.3-0.7,0.5-1.1,0.5-1.2c0.1-0.2,0.2-0.4,0.2-0.6c0.1-0.2,0.2-0.4,0.2-0.6
			c0.3-0.3,0.5-0.6,0.6-0.9c0.5-0.6,0.7-1.1,0.7-1.5v-0.2c0-0.3,0.1-0.6,0.2-0.8c0.6-1.1,1.2-2.1,1.7-3.1c0.5-0.9,1-2,1.5-3.1
			c0.2-0.4,0.5-0.9,0.8-1.4c0.3-0.6,0.6-1.1,1-1.8c0.3-0.6,0.6-1.2,0.8-1.7c0.2-0.5,0.4-1,0.5-1.4c0.2-0.7,0.5-1.4,0.9-2.1
			s0.7-1.3,1.1-1.8c0.1-0.2,0.2-0.4,0.5-0.6h0.1c-0.1,0-0.1-0.1-0.1-0.2v-0.2c0-0.2,0.2-0.7,0.5-1.4c0.4-0.7,0.7-1.2,0.9-1.5
			c0.1-0.5,0.2-1,0.5-1.7c0.2-0.7,0.5-1.4,0.8-2.1c0.3-0.8,0.6-1.5,1-2.1c0.3-0.7,0.6-1.2,0.7-1.5l0.1-0.4h0.4h0.9
			c0.6,0,1.3,0,2,0.1c0.7,0.1,1.4,0.1,2.1,0.1c1.3,0,2.5,0,3.7-0.1c1.2-0.1,2.5-0.1,3.7-0.1c0.5,0,0.9,0,1.2,0.1
			c0.3,0,0.6,0.1,0.8,0.2c0.3,0.2,0.8,0.4,1.3,0.6l0.2,0.1l0.1,0.4c0,0.2,0,0.3,0.1,0.5c0,0.2,0.1,0.3,0.1,0.5c0,0.2,0,0.3-0.1,0.4
			v0.4c-0.1,0.1-0.1,0.2-0.1,0.2v0.2c0,0.3,0,0.6,0.1,0.9c0,0.3,0.1,0.6,0.1,0.9c0,0.9,0,1.7-0.1,2.6c-0.1,0.8-0.1,1.7-0.1,2.6
			c0,0.5,0,0.9,0.1,1.2c0.1,0.2,0.1,0.3,0.1,0.5c0.1,0.2,0.1,0.4,0.1,0.7c0,0.4-0.1,0.8-0.2,1.3c0.1,0.2,0.1,0.6,0.1,1.1v0.6
			c0,0.1,0,0.2-0.1,0.2c0,0.1-0.1,0.2-0.1,0.2c0,0.2,0,0.3-0.1,0.5c0,0.2-0.1,0.3-0.1,0.5c0,0.3,0,0.6,0.1,0.9
			c0,0.3,0.1,0.6,0.1,0.9c0,0.3,0,0.6-0.1,0.9c0,0.3-0.1,0.6-0.1,0.9c0,0.6,0,1.1,0.1,1.7c0,0.6,0.1,1.1,0.1,1.8c0,1.5,0,3-0.1,4.5
			c0,1.5-0.1,2.9-0.1,4.3v12.6c0,0.4,0,0.8-0.1,1.3c0,0.5-0.1,0.9-0.1,1.3v0.2l-0.4,0.4c0.1,0,0.1,0,0.1,0.1c0,0,0,0.1,0.1,0.1
			l0.2,0.1v17.8c0,0.5-0.1,0.8-0.2,0.9l0.8,0.4l-0.8,1.2c0.1,0.1,0.1,0.2,0.1,0.4c0,0.3-0.1,0.6-0.2,0.7l0.1,0.1l0.4,0.2l-0.1,0.4
			c0,0.1,0,0.2-0.1,0.2c0,0.1-0.1,0.2-0.1,0.2c0,0.1,0,0.1-0.1,0.2c0,0-0.1,0.1-0.1,0.2c0.1,0.1,0.1,0.2,0.1,0.2
			c0,0.1,0,0.1,0.1,0.1s0.1,0,0.1,0.1c0,0.1,0,0.1,0.1,0.2c0,0,0.1,0.1,0.1,0.2c0,0.4,0,0.8-0.1,1.1c-0.1,0.4-0.1,0.7-0.1,1.1
			c0,0.6,0,1.1,0.1,1.7c0.1,0.6,0.1,1.1,0.1,1.7c0,0.2,0,0.4-0.1,0.7c0,0.3-0.1,0.7-0.1,1.1l-0.4,1.1c0,0.2-0.1,0.3-0.2,0.5
			c-0.2,0.2-0.3,0.2-0.5,0.2h-0.6c-0.1,0-0.1,0-0.2-0.1c0,0-0.1-0.1-0.2-0.1c-0.3,0.2-0.6,0.2-0.8,0.2c-0.5,0.2-0.9,0.2-1.2,0.2
			c-0.9,0-1.9,0-2.9-0.1c-1,0-2-0.1-2.9-0.1c-1.1,0-2.1-0.1-3.1-0.2c-1-0.2-1.9-0.2-3-0.2H362v-0.6c0-0.9,0-1.7-0.1-2.6
			c-0.1-0.9-0.1-1.8-0.1-2.7c0-0.4,0-1,0.1-1.8c0.1-0.8,0.2-1.5,0.4-2.1c-0.2-0.2-0.2-0.4-0.2-0.7v-0.4V273c0-0.9,0-1.7-0.1-2.6
			s-0.1-1.7-0.1-2.6c0-0.4,0-0.8,0.1-1.2c0.1-0.4,0.1-0.8,0.1-1.2v-2v-8.8l0.4-0.2h0.5c-0.1-0.1-0.2-0.1-0.2-0.2
			c-0.1,0-0.2-0.1-0.2-0.2l-0.4-0.1v-2.5c0-0.6,0-1.3,0.1-2c0.1-0.7,0.1-1.3,0.1-2c0-0.4,0-0.8-0.1-1.2c0-0.4-0.1-0.8-0.1-1.2v-4
			c-0.2,0.4-0.5,1-0.9,2c-0.5,0.9-1,1.9-1.4,3c-0.2,0.6-0.5,1.2-0.7,1.8c-0.2,0.6-0.4,1.1-0.6,1.5c-0.2,0.2-0.3,0.4-0.3,0.6
			c0,0.2-0.1,0.3-0.2,0.5c0,0.1,0,0.1-0.1,0.2c0,0-0.1,0.1-0.1,0.2c-0.2,0.5-0.5,0.8-0.8,0.9l0.4,0.1l-0.2,0.5
			c-1.1,2.2-2.2,4.4-3.1,6.6c-1,2.2-2,4.4-3.1,6.4c-0.2,0.6-0.5,1.1-0.7,1.6c-0.2,0.5-0.4,1-0.5,1.6c-0.2,0.6-0.3,1.2-0.5,1.7
			c-0.2,0.5-0.4,1-0.5,1.6l-2.1,5.7c-0.2,0.6-0.4,1.1-0.6,1.7c-0.2,0.6-0.4,1.1-0.6,1.5c-0.4,1.3-0.9,2.5-1.5,3.4
			c-0.2,0.2-0.5,0.4-0.8,0.6c-0.2,0.1-0.6,0.1-1.1,0.1c-0.4,0.1-0.7,0.1-1,0.1c-0.3,0-0.5,0-0.8,0c-0.7,0-1.4-0.1-2.1-0.4
			c-0.9-0.4-1.4-1-1.7-1.9c-0.1-0.4-0.2-0.9-0.5-1.5c-0.2-0.6-0.6-1.3-1-1.9c-0.3-0.6-0.6-1.3-0.9-2c-0.3-0.7-0.6-1.2-0.8-1.7
			c-0.2-0.6-0.4-1.2-0.4-1.8c-0.1-0.2-0.1-0.4-0.1-0.7c-0.1-0.2-0.1-0.3-0.1-0.4c0-0.1,0-0.2-0.1-0.2c-0.9-2.3-1.9-4.6-2.8-6.8
			c-0.9-2.3-1.9-4.5-2.9-6.8c-0.3-0.8-0.7-1.6-1.1-2.3c-0.4-0.8-0.9-1.5-1.2-2.3c-0.1-0.2-0.1-0.4-0.2-0.6c0-0.2-0.1-0.4-0.2-0.6
			c0-0.2-0.1-0.5-0.2-0.9l-0.4-0.5h0.1v-0.1c-0.6-0.9-1.2-1.9-1.6-3c-0.4-1-0.9-2.1-1.2-3.1c-0.3-0.6-0.6-1.1-0.8-1.6
			c-0.2-0.5-0.4-1-0.7-1.4c-0.3-0.8-0.6-1.3-0.8-1.7c0.1,0.8,0.2,1.6,0.2,2.3c0.1,0.8,0.1,1.6,0.1,2.4c0,0.2,0,0.4-0.1,0.6
			c0,0.2,0,0.3-0.1,0.5c-0.1,0.1-0.1,0.2-0.1,0.2v0.4v0.2c0,0.2,0,0.3,0.1,0.3c0,0,0.1,0.1,0.1,0.2c0.2,0.6,0.2,1.2,0.2,1.8
			c0,0.6,0,1.2,0,1.8v11c0,0.6,0,1.1-0.1,1.7c0,0.6-0.1,1.1-0.1,1.7c0,0.3,0,0.6,0.1,0.7c0,0.2,0,0.3,0.1,0.3c0,0,0.1,0.1,0.1,0.2
			v0.6v3.3c0,0.4,0,0.8-0.1,1.1c0,0.4-0.1,0.7-0.1,1c-0.1,0.2-0.1,0.5-0.1,0.7c0,0.2,0,0.3-0.1,0.4c0.2,1.3,0.4,2.6,0.4,3.9v3.8v2
			l-0.6,0.1c-2.1,0.2-4.1,0.3-6.1,0.4c-2,0.1-4.1,0.2-6.1,0.2c-0.2,0-0.3,0-0.4-0.1c-0.1,0-0.2-0.1-0.2-0.1c-0.1,0-0.3-0.1-0.6-0.2
			c-0.2,0-0.3,0-0.4-0.1h-0.2h-0.4c-0.2,0.1-0.3,0.1-0.3,0.1c0,0-0.1,0-0.3,0.1l-0.4,0.1L302.7,284.3z"/>
		<path class="st0" d="M399.7,284.7c-0.2-0.2-0.5-0.3-0.7-0.5c-0.2-0.2-0.3-0.5-0.3-0.9v-4.5c0-0.4,0-0.8-0.1-1.2
			c0-0.4-0.1-0.9-0.1-1.4v-0.5c0.1-0.1,0.1-0.2,0.1-0.5v-0.4v-0.2c0-0.6,0-1.1-0.1-1.7c-0.1-0.6-0.1-1.1-0.1-1.8v-0.4
			c0.1,0,0.1-0.1,0.1-0.2l0.1-0.1v-0.1v-24.8c0-2.6,0-5.2-0.1-7.8c0-2.6-0.1-5.2-0.1-7.8c0-0.6,0-1.1-0.1-1.5c0-0.5-0.1-0.9-0.1-1.4
			c0-0.4,0-0.8,0.1-1.1c0-0.3,0.1-0.6,0.1-0.9c0-0.4,0-0.7-0.1-1c0-0.3-0.1-0.6-0.1-1c0-0.2,0-0.4,0.1-0.6v-0.4
			c0.1-0.1,0.1-0.2,0.1-0.4v-0.2v-0.1v-0.1l-0.1-0.2v-0.4c0-1,0-2-0.1-3c0-0.9-0.1-1.9-0.1-3c0-0.6,0-1.3,0.1-1.9
			c0-0.6,0.1-1.3,0.1-1.9c0-0.6-0.1-1.1-0.2-1.6c-0.1-0.5-0.2-1.1-0.2-1.7c0-0.6,0.1-1,0.4-1.3c-0.1-0.2-0.1-0.3-0.1-0.5
			c-0.2-0.3-0.2-0.6-0.2-0.7c0-0.8,0.4-1.5,1.1-2l0.1-0.1h0.2c0.8,0.1,1.5,0.1,2.3,0.2c0.7,0,1.4,0.1,2.1,0.1c1.4,0,2.9,0,4.3-0.1
			c1.5-0.1,2.9-0.1,4.3-0.1c0.5,0,1,0,1.5,0.1c0.5,0.1,1,0.1,1.6,0.1c2.1,0,4.1-0.1,6.2-0.2c2.1-0.2,4.2-0.2,6.3-0.2
			c1.3,0,2.7,0,3.9,0.1c1.3,0,2.6,0.2,3.9,0.4l0.2,0.1c0.3,0,0.6,0,0.9-0.1c0.3,0,0.6-0.1,0.9-0.1c1,0,1.9,0.1,2.7,0.4
			c0.4,0.1,0.8,0.2,1.2,0.3c0.4,0.1,0.8,0.2,1.2,0.3c1,0.2,2.1,0.6,3.3,0.9c1.1,0.4,2.3,0.9,3.4,1.4c1.1,0.5,2.2,1.1,3.1,1.7
			c1,0.6,1.8,1.3,2.6,2.1c0.8,0.9,1.5,1.9,2,3c0.2,0.5,0.5,0.9,0.7,1.4c0.2,0.5,0.4,1,0.7,1.7c0.6,1.6,0.8,3.2,0.8,4.9
			c0,3-0.7,5.7-2.1,8.1c-1.4,2.4-3.2,4.6-5.4,6.5c-2.2,1.9-4.6,3.5-7.2,4.9c-2.6,1.3-5.1,2.5-7.5,3.4c-1.3,0.6-2.6,1.1-3.9,1.5
			c-1.3,0.5-2.7,0.9-4.2,1.2c-0.9,0.2-1.8,0.3-2.7,0.5c-0.9,0.2-1.9,0.3-2.7,0.5c-1.5,0.3-3,0.5-4.6,0.5s-3,0.2-4.5,0.5v5.5
			l-0.5,0.4l0.5,0.1v0.5v7.8c0,0.6,0,1.2-0.1,1.8c0,0.6-0.1,1.1-0.1,1.7c0,0.3,0,0.6,0.1,0.7c0,0.1,0,0.2,0.1,0.2
			c0,0.1,0.1,0.2,0.1,0.2v0.5c0,1,0,2-0.1,3c0,0.9-0.1,1.9-0.1,3c0,0.2-0.1,0.4-0.2,0.7c0,0.1,0,0.2,0.1,0.2c0,0.1,0.1,0.2,0.1,0.2
			c0.1,0.2,0.1,0.4,0.1,0.6c0,0.2,0,0.5,0.1,0.7v2.4c0,1.3-0.1,2.6-0.4,3.9c0.2,0.2,0.4,0.4,0.4,0.6c0,0.2,0,0.3-0.1,0.3
			c0,0-0.1,0.1-0.1,0.2l-0.1,0.1l-0.1,0.2l-0.1,0.1l-0.2,0.2h-0.2c-2,0.2-3.9,0.3-5.9,0.4c-1.9,0.1-3.9,0.2-6,0.2
			c-0.4,0-0.8-0.1-1.3-0.2c-0.1-0.1-0.2-0.1-0.2-0.1s-0.2,0-0.2-0.1h-0.6l-0.2,0.1H399.7z M435.7,215.3c-0.6,0.3-1.2,0.5-1.6,0.6
			c-0.4,0.1-1.1,0.1-1.8,0.1c-0.7,0-1.4,0-2.1-0.1c-0.7-0.1-1.4-0.1-2.1-0.1h-8.5c-0.3,0-0.7,0-1.2,0c-0.5,0-1,0-1.5,0.1
			c-0.7,0-1.4,0.1-2,0.2c0.1,1.1,0.1,2.2,0.1,3.2c0,1,0,2.1,0,3.2c0,0.9,0.1,1.9,0.2,2.8c0.1,0.9,0.2,1.9,0.2,3c0,0.6,0,1.2-0.1,1.7
			c0,0.5-0.1,1.1-0.1,1.7c0,0.5,0.1,0.9,0.2,1.4c0.1,0.4,0.2,0.9,0.2,1.4c0,0.2-0.1,0.6-0.2,1.2c1.4-0.2,2.9-0.3,4.3-0.4
			c1.5-0.1,2.9-0.3,4.3-0.7c1.8-0.3,3.8-0.8,6.1-1.6c2.2-0.8,4.3-1.7,6.2-2.9c1.9-1.2,3.6-2.6,4.9-4.2c1.3-1.6,2-3.4,2-5.3
			c0-0.6-0.1-1.1-0.3-1.4c-0.2-0.3-0.4-0.6-0.7-0.8c-0.2-0.2-0.5-0.4-1-0.7c-0.3-0.3-0.6-0.6-0.7-0.8h-0.1c-0.3,0-0.7-0.1-1.2-0.2
			c-0.2,0-0.3,0-0.5-0.1c-0.2-0.1-0.4-0.2-0.5-0.2c-0.4-0.2-0.7-0.3-1-0.4c-0.3-0.1-0.5-0.1-0.8,0h-0.5L435.7,215.3z"/>
	</g>
</g>
</svg>
