<?xml version="1.0" encoding="utf-8"?>
<!-- Generator: Adobe Illustrator 22.0.0, SVG Export Plug-In . SVG Version: 6.00 Build 0)  -->
<svg version="1.1" id="Layer_1" xmlns="http://www.w3.org/2000/svg" xmlns:xlink="http://www.w3.org/1999/xlink" x="0px" y="0px"
	 viewBox="0 0 500 500" style="enable-background:new 0 0 500 500;" xml:space="preserve">
<style type="text/css">
	.st0{fill:#0C0C0C;}
</style>
<g>
	<g>
		<g>
			<path class="st0" d="M388.3,289c1.9,1.3,4,2.5,5.8,3.9c1.8,1.4,2.2,3.2,1.4,4.8c-0.8,1.7-2.7,2.4-5,1.7c-1.4-0.4-2.7-1.1-3.9-1.9
				c-5.4-3.6-10.7-7.4-16-11.1c-2.1-1.4-4.3-2.8-6.5-4.1c-0.8-0.5-1.7-1.1-2.5-1.7c-0.8-0.6-1.3-1.6-0.5-2.4
				c0.4-0.4,1.5-0.5,2.2-0.3c1.3,0.4,2.5,1.2,3.7,1.8c3.4,1.5,6.7,2.8,10.1,4.3C380.8,285.7,384.5,287.4,388.3,289z"/>
		</g>
	</g>
	<path class="st0" d="M87.8,284.8c0.1-0.2,0.2-0.4,0.2-0.6c0.2-1.3,0.5-2.5,1-3.7c0.2-0.4,0.3-0.8,0.6-1.2c0.4-0.7,1.1-1.1,1.8-1.2
		c0.6-0.1,1.1,0.2,1.4,0.7c0.5,1.1,0.8,2.3,0.7,3.5c0,0.2,0,0.3,0,0.5c0,1.6-0.1,3.2-0.4,4.7c-0.2,1-0.4,1.9-0.6,2.9
		c0,0.2-0.1,0.4-0.2,0.5c-0.1,0.3-0.3,0.5-0.6,0.7c-0.6,0.4-1.3,0.4-2,0.3c-2.1-0.5-4.1-1.4-6-2.4c-0.7-0.4-1.3-0.8-1.9-1.3
		c-0.5-0.4-0.8-0.9-1.1-1.4c-0.4-0.7-0.3-1.7,0.2-2.3c0.1-0.1,0.3-0.3,0.5-0.4c0.3-0.1,0.6-0.2,0.9-0.4c0.6-0.2,1.1-0.3,1.8-0.2
		c0.7,0.1,1.4,0.3,2.1,0.6c0.3,0.1,0.6,0.3,1,0.4C87.3,284.7,87.5,284.7,87.8,284.8z"/>
	<path class="st0" d="M334.8,280.4c0.2-0.1,0.4-0.2,0.6-0.3c1-0.7,2.1-1.4,3.3-1.9c0.4-0.2,0.8-0.4,1.3-0.5c0.8-0.2,1.5,0,2.2,0.4
		c0.5,0.3,0.7,0.9,0.5,1.5c-0.4,1.2-1,2.2-1.9,3c-0.1,0.1-0.2,0.2-0.4,0.3c-1.1,1.2-2.3,2.2-3.6,3.1c-0.8,0.6-1.7,1.1-2.5,1.6
		c-0.2,0.1-0.3,0.2-0.5,0.3c-0.3,0.1-0.6,0.2-0.9,0.1c-0.7-0.2-1.2-0.6-1.6-1.2c-1.1-1.9-2-3.9-2.6-5.9c-0.2-0.7-0.3-1.5-0.4-2.2
		c0-0.6,0.1-1.2,0.2-1.8c0.2-0.8,0.9-1.4,1.7-1.5c0.2,0,0.4,0,0.6,0.1c0.3,0.1,0.6,0.2,0.9,0.3c0.6,0.2,1,0.6,1.4,1.1
		c0.4,0.6,0.8,1.2,1.1,1.9c0.1,0.3,0.3,0.7,0.4,1C334.6,280,334.7,280.2,334.8,280.4z"/>
	<g>
		<g>
			<path class="st0" d="M267.3,27.2c12.6,20.6,25.4,40.9,40.1,60.3c1.6-5.7,1.9-11.4,2.4-17.5c1.5,8.1,0.8,16.4,7,22.9
				c-0.9-0.1-1.8-0.1-2.9-0.2c1.3,2.3,2.6,4.5,4.1,7c-1-0.5-1.9-0.9-3.1-1.4c2.5,3.4,4.8,6.7,7.4,10.3c0.8-2,1.4-3.8,2.3-5.9
				c-1.5,0.8-2.8,1.6-4.5,0.7c2.4-0.6,3-2.7,4-4.5c-1.5,0.6-2.9,1.7-4.8,0.6c2.7-0.9,4.7-2.6,6-5.3c-1.5,0.7-2.7,1.3-4.2,2.1
				c4.4-6.7,4.4-6.7,6.1-20.1c0.6,6.5,0.2,13.3,5.3,18.6c-0.9-0.3-1.7-0.6-2.6-0.8c-0.1,0.1-0.2,0.2-0.3,0.3
				c1.3,1.6,2.7,3.2,4.1,4.9c-1.2-0.1-2.5-0.3-4.2-0.5c1.5,1.6,2.8,3,4.2,4.5c-0.7,0.1-1.7,0.2-2.7,0.4c0.7,2.3,2.1,4.2,4.4,5.3
				c0,0.2,0,0.3,0,0.5c-1.2,0.1-2.4,0.2-3.6,0.3c0.4,1.3,0.8,1.8,5.2,5.5c-1.5,0-2.8,0-4,0c0.4,1.7,1.4,2.5,4.9,4.1
				c-1.2,0.3-2.3,0.6-3.9,1c1.7,1.2,3,2.1,4.2,3c-0.4,0.1-1.1,0.3-2.1,0.5c0.9,0.7,1.6,1.3,2.5,2c-0.7,0-1.3,0-1.8,0
				c-0.6,0-1.1-0.2-2,0.1c1.8,1.9,3.5,3.7,5.3,5.6c-1.4,1-2.7,0-4.1-0.8c-0.1,0.1-0.2,0.3-0.3,0.4c1.6,1.8,3.1,3.6,4.8,5.4
				c-1.2-0.1-2.5-0.2-4.1-0.3c3.9,3.9,8.9,5.5,13.3,8.4c-0.5,0-1,0.1-1.5,0.1c-19.6,0-39.3,0-58.9,0c-1.3,0-1.9-0.2-2.1-1.6
				c-0.3-2.4-0.9-4.9-1.4-7.3c-0.3-1.4,0.2-2.8-0.5-4.1c-0.2-0.3,0.2-0.9,0.5-1.4c0.5-1,1.2-1.9,2-3.3c-1.2,0.3-2,0.6-2.8,0.8
				c-0.1-0.2-0.2-0.3-0.2-0.5c0.5-0.2,1-0.6,1.5-0.7c2.2-0.4,4.4-0.8,7-1.2c-1.3-1.4-2.4-2.6-3.5-3.8c-1.2-1.3-1.2-1.3-0.7-2.8
				c-0.6,0-1.2,0-1.8,0c0.1-0.5,0.2-1.1,0.2-1.7c-0.1,0.1-0.3,0.2-0.4,0.2c-0.3,0.1-0.7,0.1-1,0.2c0.1-0.4,0.1-0.7,0.2-1
				c1.1-1.9,2.3-3.8,3.4-5.8c0.2-0.3,0.2-0.8,0.3-1.2c-1.2,0.3-2.3,0.6-3.4,0.9c-0.1-0.1-0.1-0.2-0.2-0.4c1-1,2.1-1.9,3.2-3
				c-0.3-0.5-0.6-1-0.9-1.4c-0.6,0.2-1.1,0.3-2,0.6c0.5-0.7,0.8-1.1,1-1.5c-2.4-4.3-4.8-8.6-7.2-13c0.2-0.1,0.4-0.3,0.6-0.4
				c2.8,2.9,5.5,5.8,8.6,9c0.8-1.9,1.6-3.5,2.4-5.5c-1.4,0.5-2.5,0.9-3.8,1.4c1.3-1.6,2.5-2.8,3.4-4.1c0.8-1.1,0.8-2.1-0.1-3.4
				c-4-5.3-8.1-10.6-11.8-16.1c-1.9-2.9-3.1-6.2-4.7-9.3c0.1-0.1,0.3-0.2,0.4-0.3c1.6,1,3.2,2,4.8,3c0.2-0.1,0.3-0.2,0.5-0.3
				c-4-7.3-8.1-14.6-12.1-21.8c-0.2,0.1-0.3,0.1-0.5,0.2c-0.1,0.3-0.1,0.6-0.1,0.8C268,49.8,267.9,55,269,60c0.2,0.9-0.1,2-0.2,2.9
				c-0.4,3.3-1.1,6.5-1.3,9.8c-0.1,1,0.5,2.2,1.1,3.1c1.5,2,3.2,3.9,4.8,5.9c0.4,0.6,0.8,1.4,0.8,2.1c-0.4,5.7-0.9,11.4-1.4,17.4
				c-1.3-1.4-2.4-2.4-2.5-4.2c-0.2-2.6-0.6-5.1-0.9-7.7c-0.2-1.7-0.8-3-2.1-4.1c-1.2-1.1-2.3-2.2-3.7-3.5c-0.4,2.2-0.7,4-1,5.8
				c-0.1,0-0.3,0.1-0.4,0.1c-1.2-2.2-3.1-3.8-2.7-6.9c0.7-5.5,1-11.1,1.4-16.6c0-0.6,0-1.1,0-2.2c-2.5,3.2-4.7,6.1-7.1,9.1
				c-0.9-2.6,0.9-4.5,1.5-7.1c-4.3,4-7,9.3-13,10.5c4.5-6.3,9-12.5,12.6-19.3c-0.2-0.2-0.4-0.4-0.6-0.5c-0.3,0.5-0.6,1.1-1,1.6
				c-4.9,5.6-9.8,11.2-14.7,16.9c-1,1.2-2.1,1.7-3.7,1.5c-1.7-0.2-3.4-0.3-5.6-0.4C243.2,59.2,257.3,45,267.3,27.2z M294.8,80.3
				c-0.1,3.1-0.2,6.2,1.2,8.9c2.2,4.3,4.7,8.4,7.1,12.6c0.2,0.4,0.5,0.7,0.9,1.3c1.1-1.9,2.1-3.6,3-5.4c-0.1-0.1-0.2-0.2-0.3-0.2
				c-1,0.7-2,1.5-3,2.2c-0.1-2.2,2.8-3.3,1.7-5.7c-0.7,0.3-1.3,0.6-1.8,0.8c0-0.1-0.1-0.1-0.1-0.2c0.4-0.5,0.8-0.9,1.2-1.5
				C301.3,88.8,298.1,84.5,294.8,80.3z M296.9,106.1c-0.1,0.1-0.2,0.1-0.3,0.2c0.7,1.2,1.4,2.4,2.3,3.5c1.3,1.5,1.9,1.5,3.3,0.2
				c1-1,1.8-2.1,2.6-3.1c-0.9-2.2-2.1-0.5-3.2-0.6c0.5-0.6,1-1.1,1.5-1.6c-1-1.4-1.9-2.7-2.9-4c-0.5,0.2-0.9,0.3-1.4,0.4
				c0.2,0.4,0.4,0.7,0.8,1.3c-1-0.6-1.7-0.9-2.3-1.3c-0.1,0.1-0.3,0.2-0.4,0.3c1.3,2.2,2.5,4.3,3.9,6.7
				C299.4,107.4,298.2,106.7,296.9,106.1z M288,71.6c-0.1,0.1-0.3,0.2-0.4,0.3c0.9,1.4,1.6,2.9,2.6,4.2c1.3,1.7,2,3.4,1.9,5.5
				c-0.1,1.6,0.3,2.4,1.9,3.6c0-2.2,0.7-4.5-0.1-5.9C292.3,76.5,290,74.1,288,71.6z M303.3,111.5c-1.5,0.4-2.7,0.7-3.8,1
				c0.1,0.2,0.3,0.4,0.5,0.7c0,0.1-0.1,0.2-0.1,0.3c-0.7-0.2-1.4-0.4-2.3-0.6c0.7,1.3,1.3,2.5,2,3.9
				C300.8,114.9,301.9,113.4,303.3,111.5z M317,110.5c1.6,3.5,2.8,4.5,4.4,3.4C320,112.7,319.4,110.7,317,110.5z M318.2,117.3
				c0.6,0.9,1.2,1.8,1.8,2.8c0.9-0.7,1.6-1.3,2.6-2.1C321,117.7,319.7,117.5,318.2,117.3z M322.8,123.2c0.7-1.3,1.3-2.4,1.9-3.5
				c-0.1-0.1-0.2-0.1-0.3-0.2c-1,0.7-2,1.3-3.1,2.1C321.7,122.1,322.2,122.6,322.8,123.2z M302.5,119.1c0.7-1.1,1.3-2.1,1.8-3
				c-0.1-0.1-0.2-0.2-0.3-0.3c-1,0.6-2,1.3-3.2,2C301.5,118.3,301.9,118.6,302.5,119.1z M321.8,128.2c1.4,0.7,1.9,0.3,2-1.6
				C323.2,127.1,322.6,127.6,321.8,128.2z"/>
		</g>
		<g>
			<path class="st0" d="M142.4,95.7c-1.8,1.7-3,3.7-5.5,4c1.8-2.6,3.6-5.1,5.4-7.7c-0.2-0.1-0.3-0.2-0.5-0.4
				c-0.8,0.9-1.6,1.8-2.4,2.7c-0.1-0.1-0.1-0.1-0.2-0.2c1.1-2.4,2.2-4.8,3.5-7.6c-1.7,0.7-2.9,1.2-4.1,1.7c-0.1-0.1-0.2-0.2-0.3-0.4
				c6.1-4.7,5.6-11.7,6.5-18.3c0.2,6.6,1.5,12.9,5.4,18.4c-0.1,0.1-0.3,0.2-0.4,0.2c-1-0.8-2-1.6-2.9-2.3c0,1.8,1.8,5.5,3.9,7.7
				c-0.4,0.2-0.8,0.3-1.2,0.5c0.2,0.3,0.5,0.7,0.7,1c-0.1,0.1-0.1,0.2-0.2,0.2c-0.7-0.4-1.4-0.8-2.2-1.3c0.5,3.1,2.1,5.6,4.1,7.9
				c-0.1,0.1-0.2,0.3-0.3,0.4c-1.4-0.8-2.8-1.6-4.3-2.4c0.5,2.2,1.5,4,3.3,5.2c0.4,0.2,1.2,0.3,1.5,0c2.5-1.7,3.9-4.2,5.1-7.2
				c-1.7,0.9-3.1,1.7-4.4,2.4c1.9-3.3,3.9-6.6,5.8-10c-0.1-0.1-0.3-0.2-0.4-0.4c-1.1,0.9-2.2,1.7-3.4,2.6c-0.1-0.1-0.2-0.1-0.3-0.2
				c1.4-2.8,2.9-5.6,4.3-8.3c-0.1-0.1-0.2-0.1-0.3-0.2c-1.3,1.1-2.5,2.1-3.8,3.2c-0.1-0.1-0.3-0.3-0.4-0.4c3.6-3.5,4.7-8,5.4-12.6
				c0.8-4.9,1.1-9.9,1.6-14.9c0-0.4,0.1-0.7-0.1-1c1,5.9,1.8,11.9,3,17.8c0.6,3.3,2.1,6.3,4.8,8.8c-1-0.1-1.9-0.2-3-0.2
				c0.8,1.6,1.6,3.3,2.4,5.1c0.4-0.5,0.7-0.8,1-1.1c2.9-3.9,5.8-7.7,8.6-11.7c0.5-0.7,0.9-1.7,1-2.6c0.4-2.9,0.7-5.7,1.3-8.6
				c0.2,2.3,0.3,4.5,0.5,6.8c0.1,0.1,0.3,0.1,0.4,0.2c6.1-10.3,12.2-20.6,18.4-31c7.3,10.3,14.5,20.6,22.1,31.4
				c-3.2-1.3-6-2.5-8.9-3.5c-1.7-0.6-2.9-1.7-3.8-3.2c-1.9-3-3.9-5.8-6.1-8.7c0,0.9,0,1.7,0,2.6c0,1.2,0.2,2.3,0,3.5
				c-0.4,4.1,0.6,7.7,3.4,10.7c0.3,0.3,0.5,1.2,0.3,1.6c-2,4.1-4,8.1-6,12.1c-0.1,0.2-0.2,0.3-0.4,0.6c-0.8-1.6-1.6-3.2-2.4-4.8
				c-4.6,1.9-6.6,6.4-9.8,9.6c2.3-8,5.5-15.8,6.7-24c-0.1-0.1-0.3-0.2-0.4-0.2c-0.6,0.6-1.1,1.1-1.7,1.8c-2.8,3.3-5.5,6.6-8.3,9.9
				c-1.4,1.7-1.5,1.8-0.1,3.6c0.3,0.4,0.7,0.8,1.1,1.3c0.4-0.3,0.8-0.5,1.2-0.8c0.1,0.1,0.2,0.3,0.2,0.4c-0.2,1-0.3,2-0.8,2.9
				c-0.9,1.5-0.2,2.3,0.9,3.1c0.2,0.1,0.4,0.3,0.6,0.8c-0.9,0-1.8-0.1-2.7-0.1c-0.3,0-0.8,0-0.9,0.2c-0.1,0.2,0,0.7,0.2,0.9
				c1.1,1.2,2.2,2.4,3.4,3.7c-0.9,0.1-2,0.3-3.2,0.4c0.9,2.6,2.2,4.9,4.9,6.1c-1.6,1.1-1.6,1.1-4.5,0.4c0.7,1.1,1.2,1.9,1.8,2.7
				c0.6,0.8,1.3,1.5,2,2.3c-0.7,0.6-0.6,2.1-2,1.7c-0.2,0.7-0.2,1.5-0.6,2c-2.7,3.8-5.5,7.6-8.3,11.3c-0.7,0.9-2.1,1.4-3.4,2.2
				c0.5,0.3,0.8,0.5,1.2,0.8c-1.1,1.6-2.2,3-3.3,4.5c0.6,0.4,1.2,0.7,1.4,0.9c0.9-0.3,1.5-0.7,2.2-0.8c3.6-0.6,7.1-1.1,11.1-1.7
				c-0.3,5.1-0.7,10.2-1,15.4c-22.6,0-44.9,0-67.7,0c4.3-3.1,8.9-4.7,13.2-6.9c-0.4-0.1-0.8-0.1-1.2-0.2c1.8-2.1,3.5-4.3,5.6-6.8
				c-1.9,0.7-3.4,1.2-4.9,1.8c-0.1-0.2-0.2-0.3-0.3-0.5c3.3-1.5,5-4.3,6.6-7.9c-2,0.7-3.6,1.3-5.3,1.9c2.9-3.6,5.2-7.4,7.1-11.8
				c-1.1,0.5-2,0.9-3.2,1.5c0.5-1.1,0.9-2,1.4-3.2c-1.3,0.9-2.3,1.6-3.3,2.3c-0.1-0.1-0.3-0.3-0.4-0.4c2.6-3.3,5.7-6.3,6.1-10.7
				c-1.2,0.4-2.4,0.7-3.6,1.1c-0.1-0.1-0.2-0.3-0.2-0.4C138.9,102,141.3,99.6,142.4,95.7z M177.3,91.7c-2.5,1-5.2,1.8-6.3,4.7
				c0.6,0.6,1.1,1.2,2,2.1c-1-0.1-1.5-0.3-2.1-0.3c-0.6,0-1.2,0-1.8,0c0.1,0.7,0.1,1.4,0.3,2c0.1,0.4,0.6,0.8,1,1.3
				c1.3-1.4,2.5-2.7,3.8-4.1c-0.4-0.2-0.7-0.4-1.1-0.7C175.8,96.1,176.3,93.7,177.3,91.7z M148.4,107.7c0.8,1.6,1.5,3,2.3,4.7
				c1.4-2.2,2.6-4,4.1-6.2c-1.7,0.5-2.9,0.8-4.2,1.2c0.1,0.1,0.3,0.5,0.5,0.8c-0.1,0.1-0.1,0.3-0.2,0.4
				C150.1,108.3,149.4,108,148.4,107.7z M178,115.5c-0.1,0-0.2-0.1-0.2-0.1c-1.1,0.8-2.3,1.7-3.6,2.6c0.5,0.6,1,1.1,1.7,1.8
				C176.7,118.2,177.4,116.9,178,115.5z"/>
		</g>
		<g>
			<path class="st0" d="M288.6,123.7c-1.6,0.3-3.1,0.7-4.6,0.9c-1.2,0.1-1.6,0.7-1.5,1.8c1,6.3,2,12.5,3,18.8c0,0.3,0.1,0.5,0.2,0.9
				c-1.7,0.5-3.4,0.9-5,1.4c-4.5,1.4-9,2.5-13.4,4.1c-3,1.1-5.9,2.7-8.7,4.3c-1.2,0.6-2.3,1.1-3.7,1.1c-11.3-0.7-22.5-1.2-33.8-2
				c-10.9-0.8-21.7-1.3-32.6-0.1c-0.3,0-0.6,0-1.1,0c1.2-9.7,2.8-19.4,2.3-29.3c-3.8,0.7-7.5,1.4-11.5,2.2c0.2-0.6,0.3-0.7,0.4-0.9
				c12.6-15.9,22.8-33.3,31.5-51.7c0.4-0.9,0.9-1.8,1.3-2.7c0.4-1,0.9-1,1.9-0.6c3.9,1.4,7.7,3,11.6,3.8c8.9,1.7,17.9,1.7,26.8,0.5
				c0.8-0.1,1.4-0.2,1.8,0.7c6.9,13.7,16.8,25.2,26.6,36.8c2.5,3,5.1,6,7.6,9C288.1,123,288.3,123.3,288.6,123.7z M255.7,154.3
				c-1-8.1-2-16.1-3-24.2c-2,0.7-3.1-0.2-4.2-1.4c-0.8-0.9-1.9-1.7-2.7-2.6c-5.2-6.2-10.5-12.3-15.6-18.5
				c-5.6-6.7-10.8-13.7-14.9-21.4c-0.2-0.4-0.5-0.8-1-1.6c-0.1,0.6-0.1,0.9-0.1,1.1c0.2,12.5,0.4,25,0.7,37.5
				c0.2,7.3,1.4,14.4,5.3,20.8c1.5,2.5,3,4.9,4.5,7.4c0.6,1.1,1.5,1.5,2.7,1.6c8.9,0.4,17.7,0.9,26.6,1.3
				C254.4,154.3,255,154.3,255.7,154.3z M190.2,152.2c3.7-0.1,7.1-0.3,10.6-0.5c0.4,0,1-0.4,1.3-0.8c5.8-8.9,10.4-18.2,10.3-29.2
				c-0.1-12.4,0.1-24.8,0.1-37.2c0-0.2-0.1-0.4-0.1-0.6c-1.6,2.5-2.8,5.1-4,7.7c-4.1,9.1-9.5,17.4-14.8,25.8
				c-1.1,1.8-1.5,3.5-1.6,5.6c-0.1,5.9-0.4,11.8-0.8,17.8C191,144.6,190.6,148.4,190.2,152.2z M280.1,125.5c-0.3,0-0.6,0-0.7,0
				c-7.7,1.4-15.4,2.7-23.1,4c-1.2,0.2-1.1,0.9-1,1.7c0.5,4.6,1.1,9.3,1.6,13.9c0.3,2.7,0.8,5.4,1.2,8.2c8-4.2,16.5-6.2,24.6-8.8
				C281.8,138.2,280.9,131.8,280.1,125.5z M213,77.3c4.8,7.2,9.3,14.2,14.1,21.2c6.1,8.8,14.2,18.4,16.2,19.5
				c-4.5-8-10.5-14.7-15.5-22c-5-7.4-9.9-14.7-14.8-21.9c-6.8,12.8-13.5,25.4-20.4,38.3C201,101.4,206.4,89,213,77.3z M275,112.1
				c0.1-0.1,0.2-0.2,0.3-0.3c-3.2-3.8-6.5-7.4-9.4-11.4c-4.7-6.2-9.2-12.6-13.8-19c-0.7-1-1.5-1.3-2.7-1.3
				c-8.1,0.1-16.2,0.6-24.2-0.9c-1-0.2-2-0.3-2.9-0.4c-0.1,0.2-0.1,0.5-0.2,0.7c3.1,0.9,6.2,2,9.3,2.5c4.3,0.7,8.8,0.9,13.1,1.3
				c2.3,0.2,4.4,0.8,6,2.4c2.8,2.7,5.7,5.4,8.3,8.4c4.1,4.7,8.1,9.5,12.1,14.3C272.2,109.7,273.6,110.8,275,112.1z M243.4,107.6
				c-0.1,0-0.2,0.1-0.3,0.1c0.1,0.2,0.1,0.5,0.2,0.7c3.7,5.4,7.4,10.8,11.1,16.2c0.7,1,1.5,1.1,2.6,0.9c1.3-0.3,2.7-0.4,4-0.6
				c2.8-0.4,5.6-0.9,8.3-1.3c0-0.2,0-0.3,0-0.5c-3.6,0-7.1,0-10.7,0c-1.6,0-3-0.5-4-1.8c-2.6-3-5.1-6.1-7.6-9.2
				C245.8,110.7,244.6,109.1,243.4,107.6z M253.2,103.3c4.7,4.8,10.1,8.6,16.8,10C264.4,110,258.8,106.7,253.2,103.3z"/>
		</g>
		<g>
			<path class="st0" d="M239.1,146.7c-9.4-3.1-19.2-14.1-19.5-21.8C224.4,133.7,231,140.9,239.1,146.7z"/>
		</g>
		<g>
			<path class="st0" d="M194.9,148.4c6.1-4.5,10.1-10.6,13-17.5C208.3,137.7,201.1,147.4,194.9,148.4z"/>
		</g>
	</g>
	<g>
		<path class="st0" d="M138.1,416.3v14.1H124v42.3h-14.1v-42.3H95.8v-14.1H138.1z"/>
		<path class="st0" d="M155.9,416.3v27.1h12.3v-27.1h14.1v56.4h-14.1v-15h-12.3v15h-14.1v-56.4H155.9z"/>
		<path class="st0" d="M189.6,416.3h37.3v14.1h-23v7.1h11.2l2.7,14.1h-13.9v7h23v14.1h-37.3V416.3z"/>
		<path class="st0" d="M263.9,455.6c6.7,11.1,10.1,16.8,10.1,17h-16.4c-0.3-0.1-3.6-5.6-10.1-16.5H246v16.5h-14.1v-56.4H258
			c10.6,0.2,16,5.5,16.2,16.2v5.6C274,448,270.5,453.8,263.9,455.6z M246,430.6v12.3h10c3.1,0,4.7-2,4.7-5.9c0,0,0-1,0-3
			c0-2-1.6-3.1-4.7-3.3H246z"/>
		<path class="st0" d="M307.9,416.3l10.7,56.4h-14.1l-1.2-5.4l-13.3-0.2l-1.4,5.6h-13.7l11.2-56.4H307.9z M297.3,432.2l-4.6,22.1
			h8.3L297.3,432.2z"/>
		<path class="st0" d="M320.2,416.3h26.1c10.6,0.2,16,5.5,16.2,16.2v5.6c-0.3,12-5.3,18.1-15.1,18.2l-13.1-0.1v16.5h-14.1V416.3z
			 M334.2,430.6v12.3h10c3.1,0,4.7-2,4.7-5.9c0,0,0-1,0-3c0-2-1.6-3.1-4.7-3.3H334.2z"/>
		<path class="st0" d="M361,416.5h13.7l7.3,25.1l7.2-25.1h14L389,459.7v13.1h-14.1v-13.5L361,416.5z"/>
	</g>
	<g>
		<path class="st0" d="M102.7,206.6H88.6v-21.1c0-1.9-0.7-3.6-2.1-5c-1.4-1.4-3-2.1-5-2.1c-2,0-3.6,0.7-5,2.1c-1.4,1.4-2.1,3-2.1,5
			v56.4c0,1.9,0.7,3.6,2.1,5c1.4,1.4,3,2.1,5,2.1c1.9,0,3.6-0.7,5-2.1c1.4-1.4,2.1-3,2.1-5v-21.1h14.1v21.1c0,5.8-2.1,10.8-6.2,14.9
			c-4.1,4.1-9.1,6.2-14.9,6.2c-5.8,0-10.8-2.1-15-6.2c-4.1-4.1-6.2-9.1-6.2-14.9v-56.4c0-5.8,2.1-10.8,6.2-14.9
			c4.1-4.1,9.1-6.2,15-6.2c5.8,0,10.8,2.1,14.9,6.2c4.1,4.1,6.2,9.1,6.2,14.9V206.6z"/>
		<path class="st0" d="M111.4,185.5c0-5.8,2.1-10.8,6.2-14.9c4.1-4.1,9.1-6.2,14.9-6.2c5.8,0,10.8,2.1,14.9,6.2
			c4.1,4.1,6.2,9.1,6.2,14.9V263h-14.1v-42.3h-14.1V263h-14V185.5z M139.6,206.6v-21.1c0-1.9-0.7-3.6-2.1-5c-1.4-1.4-3-2.1-5-2.1
			c-2,0-3.6,0.7-5,2.1c-1.4,1.4-2.1,3-2.1,5v21.1H139.6z"/>
		<path class="st0" d="M211.6,164.3c5.8,0,10.8,2.1,15,6.2c4.1,4.1,6.2,9.1,6.2,14.9V263h-14.1v-77.5c0-1.9-0.7-3.6-2.1-5
			c-1.4-1.4-3-2-5-2c-1.9,0-3.6,0.7-5,2.1c-1.4,1.4-2.1,3-2.1,5V263h-14.1v-77.5c0-1.9-0.7-3.6-2-5c-1.4-1.4-3.1-2-5-2
			c-1.9,0-3.6,0.7-5,2.1c-1.4,1.4-2.1,3-2.1,5V263h-14.1v-77.5c0-5.8,2.1-10.8,6.2-14.9c4.1-4.1,9.1-6.2,14.9-6.2
			c5.4,0,10.1,1.8,14.1,5.4C201.6,166.1,206.3,164.3,211.6,164.3z"/>
		<path class="st0" d="M241.5,164.3h21.1c5.8,0,10.8,2.1,15,6.2c4.1,4.1,6.2,9.1,6.2,15v14c0,5.8-2.1,10.8-6.2,15
			c-4.1,4.1-9.1,6.2-15,6.2h-7V263h-14.1V164.3z M261.2,206.6c2.4,0,4.4-0.8,6-2.5c1.6-1.7,2.5-3.7,2.5-6v-11.2c0-2.4-0.8-4.4-2.5-6
			c-1.6-1.6-3.6-2.5-6-2.5h-5.6v28.2H261.2z"/>
		<path class="st0" d="M306.6,263h-14.1v-98.6h14.1V263z"/>
		<path class="st0" d="M357.6,263h-14.1v-77.5c0-1.9-0.7-3.6-2.1-5c-1.4-1.4-3-2-5-2c-1.9,0-3.6,0.7-5,2.1c-1.4,1.4-2.1,3-2.1,5V263
			h-14.1v-77.5c0-5.8,2.1-10.8,6.2-14.9c4.1-4.1,9.1-6.2,14.9-6.2c5.8,0,10.8,2.1,15,6.2c4.1,4.1,6.2,9.1,6.2,14.9V263z"/>
		<path class="st0" d="M408.6,206.6h-14v-21.1c0-1.9-0.7-3.6-2.1-5c-1.4-1.4-3-2.1-5-2.1c-1.9,0-3.6,0.7-5,2.1c-1.4,1.4-2.1,3-2.1,5
			v56.4c0,1.9,0.7,3.6,2.1,5c1.4,1.4,3,2.1,5,2.1c2,0,3.6-0.7,5-2.1c1.4-1.4,2.1-3,2.1-5v-7h-7.1v-14.1h21.1v21.1
			c0,5.8-2.1,10.8-6.2,14.9c-4.1,4.1-9.1,6.2-14.9,6.2c-5.8,0-10.8-2.1-14.9-6.2c-4.1-4.1-6.2-9.1-6.2-14.9v-56.4
			c0-5.8,2.1-10.8,6.2-14.9c4.1-4.1,9.1-6.2,14.9-6.2c5.8,0,10.8,2.1,14.9,6.2c4.1,4.1,6.2,9.1,6.2,14.9V206.6z"/>
	</g>
	<g>
		<path class="st0" d="M139.5,273.7v46.5h-11.6v-46.5H139.5z"/>
		<path class="st0" d="M155.3,273.9h11.3c7.8,0.1,11.8,4,12,11.8l0,4.6l-12-0.1l-0.1-2.6c0-1.3-1.4-2-4.1-2.1h-2.6
			c-2.7,0-4,0.8-4,2.4v1c0,1.6,1,2.4,2.9,2.4h7.8c8,0.2,12,4.1,12.1,11.8v5.4c-0.1,7.8-4,11.8-11.6,12h-11.6
			c-7.6-0.1-11.5-3.8-11.6-11.1v-5l12.1,0.1l0,2.3c0,1.4,1.3,2.1,3.8,2.1h3.2c2.4-0.1,3.7-0.9,3.7-2.4v-1c0-1.6-1-2.4-2.9-2.4h-7.2
			c-8.4,0-12.6-3.8-12.7-11.5v-6.5C143.7,277.7,147.6,274,155.3,273.9z"/>
		<path class="st0" d="M202.3,273.9h15.1l8.8,23.6l8.7-23.6h15.4v46.5h-11.8v-23.9l-6.7,20.1h-10.5l-7.5-20.1v23.9h-11.6V273.9z"/>
		<path class="st0" d="M251,273.9h11.3l6,20.7l5.9-20.7h11.6l-11.7,35.7v10.8h-11.6v-11.1L251,273.9z"/>
	</g>
	<g>
		<path class="st0" d="M71.1,390.5c-1.5-3.3-2-7.4-2-11.9c0-12.8,4.8-28.9,7.7-37.5c2.9-8.1,5.5-13.9,9.9-21.8
			c5.7-10.3,9.2-15.4,14.4-20.9c6.3-6.7,12-9.8,16-9.8c4,0,6.3,2.9,6.3,8.2c0,6.5-3.7,16.6-12.7,29.4c-5.7,8.1-15.6,19.3-19,21.8
			c-1.5,0.9-2.6,1.1-4.1,1.1h-1.8l-2.1,8.3c0.1,0,0.8-0.3,1.5-0.7c0.8-0.5,4.2-2.4,7.5-4.2c9.1-4.8,15.4-9,23.5-14.8
			c1.1-0.8,2.8-1.2,4.1-1.2c1.5,0,2.5,0.4,2.5,1.5c0,0.8-0.8,2.1-2.9,3.8c-7,5.9-17.2,11.4-25.5,15.4c-4.8,2.2-7.7,4-7.7,4.5
			c0,0.3,0.4,0.9,0.9,1.6c3,3.7,4.2,9,4.2,14.3c0,4.2-0.8,8.4-1.8,12c-1.8,5.4-5.7,8.2-9.5,8.2C76.7,397.9,73.2,395.5,71.1,390.5z
			 M82.3,391c1.3-2.4,1.8-6.1,1.8-9.9c0-6.6-1.6-13.5-2.5-13.5l-0.3,0.1c-1.1,0.4-1.8,8.3-1.8,15c0,5,0.5,9.4,1.6,9.4
			C81.5,392.2,81.9,391.8,82.3,391z M94.6,338.6c5.1-5.5,8.6-9.9,12.4-15.6c5.3-7.9,9.6-20.2,9.6-25.6c0-1.6-0.4-2.5-1.3-2.5
			c-1.5,0-4.4,2.5-8.8,9c-5,7.4-10.8,18.6-15.6,30.2c-1.3,3.3-4.2,11.5-4.2,12.1C87.2,346.3,91.1,342.6,94.6,338.6z"/>
		<path class="st0" d="M147.1,402c-1.8-0.4-3.4-1.5-4.2-2.8c-0.5-0.9-0.9-2.1-1.3-3.6c-0.3-1.5-0.4-3-0.4-4.8
			c0-6.3,1.8-14.9,5.4-24.7c0.5-1.5,0.9-2.6,0.9-2.9v-0.1c0,0-0.4,0.4-0.7,0.9l-2.5,4l-3.8,6.6c-5.5,9.8-13.2,15.7-19,15.7
			c-5.1,0-8.8-4.4-8.8-14.1v-0.5c0.1-11.6,9.1-28.8,19.5-33.9c2.6-1.3,5.5-2,8.4-2c4.8,0,9.1,2,11.6,6.9c0.4,0.9,0.7,1.6,0.8,1.6
			c0-0.4,4.4-5.3,4.9-6.1c1.3-2,3.2-2.9,4.9-2.9c0.8,0,1.5,0.1,2.1,0.5c0.9,0.5,1.6,1.2,1.6,2.4c0,2.1-1.5,5.9-4.8,14.4
			c-2.9,7.5-5.3,14.7-6.7,19.3c-1.2,4.5-2.4,10.4-2.9,15.1c-0.3,2.1-0.4,3.8-0.4,4.9c0,1.6,0.3,2.4,0.7,2.4c1.1,0,2.9-3,4.9-6.7
			c3.4-6.2,10.6-20.7,11.7-24c0.5-1.7,2.1-5.3,4.1-5.3c0.3,0,0.5,0,0.8,0.1c0.5,0.3,0.7,0.4,0.7,0.9v0.4c-1.1,5.8-7,19.7-10.7,26.9
			c-1.5,3-3.2,5.8-5.3,8.1c-2.2,2.2-5,3.7-8.6,3.7C149.1,402.2,148.1,402.2,147.1,402z M147.4,356.2c0.7-1.1,0.8-1.3,0.8-2.2v-1.2
			c-0.3-2.9-1.6-8.2-4.8-8.2c-0.5,0-1.2,0.3-2,0.7c-6.3,3.7-13.7,16.8-16.9,30.1c-0.8,3.4-1.2,5.8-1.2,7.4c0,1.8,0.4,2.6,1.2,2.6
			C129.3,385.3,145.5,358.8,147.4,356.2z"/>
		<path class="st0" d="M167.2,383.7v-1.8c0-5.8,1.1-13.2,3.4-21.4c3-10.7,5.7-17.7,7.5-19.9c0.9-1.2,2.6-1.8,4.1-1.8
			c1.6,0,3,0.7,3.6,2l0.1,0.9c0,2-1.1,6.6-3.7,16.2c-2.1,8.2-5,17.2-6.2,25.2c-0.3,2-0.4,3.7-0.4,4.9c0,2.2,0.4,3,1.2,3
			c3.4,0,12.4-16.8,14-19.8l1.8-3.3c-3.8-4.9-5.3-8.7-5.3-13.6c0-12.7,11.6-23.8,18.6-23.8c2.9,0,5,2,5,6.9c0,5.3-2.5,13.9-9.2,26.8
			l-1.8,3.6l0.8,0.7c1.1,0.9,2.2,1.3,3.4,1.3c4.2,0,8.6-5,10.3-8.3c0.8-1.5,2.5-2.4,4-2.4c1.3,0,2.5,0.7,2.5,2.1
			c0,0.5-0.3,1.3-0.7,2.1c-3.3,6.1-8.6,9.5-14.8,9.5c-1.8,0-3.8-0.3-5.8-0.9l-1.8-0.4c-0.4,0.8-5.1,8.4-6.3,10.3
			c-1.8,2.9-3.7,5.4-5.4,7.4c-3.4,4.1-7.3,6.2-10.6,6.2C171,395.4,167.5,391.7,167.2,383.7z M197.8,355.9c2.4-6.3,2.6-6.9,3.6-9.9
			c1.5-4.8,2-7.4,2-8.7c0-0.5-0.1-0.8-0.4-0.8c-1.5,0-7.3,12-7.3,18.1c0,3,0.3,5,0.5,5C196.3,359.5,197,357.9,197.8,355.9z"/>
		<path class="st0" d="M274.5,389.7c0-2,0.3-4.2,0.7-6.5c1.8-9.1,4.9-18,11.1-32.2l2.1-5.4l-3,0.9c-3,1.1-5.7,1.3-8.7,1.7l-1.3,3.8
			c-3.8,10-13.9,34.2-27.7,34.2c-0.9,0-2-0.1-3-0.4c-0.9-0.4-1.7-0.5-1.8-0.5c-3.6,5.5-9.9,9.1-16,9.1c-4.6,0-9.1-2.1-11.9-7.1
			c-1.5-2.8-2.1-6.3-2.1-10c0-13.9,9-31.9,17.6-37.1c2.9-1.7,5.5-2.6,8.2-2.6c2.4,0,4.8,0.8,6.9,2.4c1.2,0.8,2.4,1.3,2.6,1.5
			c1.3,0,3.6,1.3,4.8,2.6c1.6,1.7,2.2,3.8,2.2,6.7c0,0.9-0.1,2-0.3,3c-0.7,6.2-4.5,17.4-8.6,25.6l-1.3,2.6c1.2,0.9,1.7,1.3,3,1.3
			c8.6,0,21.8-28,23.5-32.5c0.7-1.6,1.1-2.8,1.1-3.2l-0.1-0.3l-1.3-0.4c-6.7-2-9.4-6.2-9.4-10.6c0-5.7,4.5-11.2,10.6-11.6h0.8
			c3.3,0,5.8,1.6,6.6,4.6c0.4,0.9,0.5,2.1,0.5,3.6c0,2.2-0.4,5-1.2,7.7l-0.7,3v0.1c1.5,0,8.8-4.2,10.3-5.1c4.5-2.9,7.5-4.2,9.8-4.2
			c2.8,0,4,2.2,4,5.5c0,3.8-1.5,9.1-3.6,14.1c-6.3,15.7-8.4,22-11.2,32.3c-0.7,2.8-1.5,7-1.5,10.2c0,2.4,0.4,4,1.6,4
			c1.1,0,2.8-1.6,5.5-5.7c3.3-5,6.2-11,10.6-21.8c5.5-14,5.7-14.4,6.6-14.9c0.5-0.3,1.2-0.4,1.7-0.4c0.9,0,1.8,0.3,2,1.1
			c0,1.1-2.5,9.4-5.1,16.1c-3.8,9.8-7.1,16.9-10.2,21.7c-3.7,5.7-8.3,8.3-12.5,8.3C279.9,405,274.5,399.3,274.5,389.7z M236.3,385.2
			c1.3-1.5,2-2.2,2-2.9c0-0.3-0.3-0.5-0.5-0.8c-3-3.3-4.1-8.8-4.1-14.3c0-4,0.5-7.8,1.1-10.7c0.9-4.5,3.6-10.3,5.7-12.1l0.8-0.8
			c-0.7-0.9-1.5-1.2-2.4-1.2c-5.3,0-11,16.4-11.9,19.3c-2.1,6.2-3.2,12.5-3.2,18v0.9c0.1,6.9,1.7,10.4,4.6,10.4
			C230.4,391,233.2,389.2,236.3,385.2z M244.8,369.4c2.1-5,4.4-13.3,4.4-15.3l-0.1-0.4l-1.6-0.3c-1.7-0.3-2.2-0.8-2.5-2.4
			c-0.1-0.7-0.4-1.8-0.7-2.5l-0.5-1.1c-2,4.4-3.6,10-3.6,19.7c0,3.8,0.4,7.3,1.5,9C242,376.1,243.2,373.5,244.8,369.4z M274.3,340.3
			c0.5-2.1,0.7-4.1,0.7-5.7c0-2-0.3-3.6-0.8-4.6c0-0.3-0.1-0.3-0.3-0.3c-0.8,0-1.7,4.1-1.7,7.7c0,1.5,0.1,2.9,0.5,3.8
			c0.4,0.7,0.8,1.2,0.9,1.2C273.8,342.4,274.1,341.4,274.3,340.3z"/>
		<path class="st0" d="M306.4,391.3c-1.8-1.8-2.8-5-2.8-9.2c0-4.5,1.1-10.2,3-16.8c2.5-8.3,6.2-19,7.3-21.1c1.6-2.9,4.5-4.1,7.1-4.1
			s4.9,1.2,4.9,3c0,1.5-1.5,6.2-5.7,18.9c-4.5,13.3-6.1,18.9-6.5,22.4l-0.1,1.8c0,2.4,0.5,3.3,1.3,3.3c3.3,0,11.4-14.7,12.4-16.4
			c6.5-11,6.5-10.8,7.4-11.4c0.4-0.3,0.9-0.4,1.3-0.4c0.7,0,1.2,0.4,1.2,1.2c0,0.3,0,0.7-0.3,1.1c-0.3,0.8-1.1,2.1-2.4,4.6
			l-5.5,10.6c-2.9,5.5-9.6,15.2-16.6,15.2C310.5,394,308.4,393.3,306.4,391.3z M318.3,335c-0.1-0.3-0.1-0.5-0.1-1.1
			c0-2.9,2.1-9.6,3.2-11c0.9-1.2,1.3-1.6,2.9-2.4c0.9-0.5,2.2-0.8,3.4-0.8c2.8,0,5.4,1.2,5.4,3.4v0.5c-0.1,1.3-2.1,6.7-3.2,9
			c-0.9,2-2,2.9-3.8,3.4c-0.8,0.3-2.2,0.4-3.6,0.4C320.7,336.6,318.8,336.4,318.3,335z"/>
		<path class="st0" d="M342.3,401.6c-9.8,0-12.3-9.9-12.3-19.8c0-5.7,0.9-11.4,1.6-14.9c3.4-16.8,12-35.1,20.3-50.6l1.2-2.4
			c-15-4.6-29.8-8.6-42.8-8.6c-5.5,0-10.8,0.8-15.6,2.5c-0.8,0.3-1.6,0.4-2.4,0.4c-2.9,0-5.4-1.5-5.4-2.9c0-0.4,0.1-0.7,0.5-1.1
			c3.6-3.6,9.1-4.9,15.8-4.9c13.7,0,32.6,5.7,51.5,11.4c3-5.3,4.8-7.4,6.5-8.2c0.7-0.3,1.5-0.5,2.2-0.5c1.8,0,3.6,1.1,3.6,2.8v0.1
			c0,0.9-1.3,4.6-2.9,8.6c16,4.6,31.4,8.7,43.2,8.7c12.4,0,20.6-4.5,21.1-17.7v-3c1.6-0.5,2.4-0.8,3.8-0.8c4.5,0,7.3,4.1,7.3,8.8
			c0,2.4-0.8,4.9-2.2,7.1c-5.8,8.3-14.7,11.5-25.2,11.5c-14.3,0-31.7-5.7-49.5-11.2l-0.5,1.3c-8.2,17.7-17.6,35.4-20.6,54.9
			c-1.1,7-1.6,12.3-1.6,16c0,5.5,1.1,7.8,2.9,7.8c5.9,0,19.7-25.7,24.4-36.3c0.8-1.7,2.2-2.9,3.8-2.9c0.8,0,1.7,0.3,2.4,1.1
			c0.3,0.3,0.4,0.4,0.4,0.8c0,0.9-0.8,2.5-2.8,7c-4.6,10.7-14.1,34.2-28,35H342.3z"/>
		<path class="st0" d="M365.3,384.8c-1.2-2.5-1.7-5.4-1.7-8.7c0-15.6,12.7-37.4,26.1-37.4c2.4,0,4.9,0.7,7.3,2.2
			c3.6,2.2,5,5.1,5,8.4c0,10.2-14.7,23.4-22.8,26.3l-2.9,0.9v2.4c0,4.4,0.4,8.7,4.6,8.7c0.9,0,1.8-0.1,3-0.5
			c8.1-2.4,13.7-7.8,19.9-18.5c2.6-4.6,3.2-5.4,4.6-7c0.9-0.9,2.1-1.5,3-1.5c0.9,0,1.6,0.5,1.6,1.7c0,0.8-0.3,1.8-0.9,3.2
			c-1.8,3.8-4,7.5-6.6,11c-5.3,7.3-12.1,13.2-20.9,15.2c-2.5,0.5-4.6,0.8-6.6,0.8C371.5,392.1,367.4,389.2,365.3,384.8z M383,369.1
			c4.1-2.6,7.8-7.4,9.9-12.3c1.6-3.7,2.4-6.6,2.4-8.6c0-2-0.8-3-2-3c-2.2,0-6.2,3.4-11.1,11.4c-1.5,2.6-4.8,11.7-5.1,14.7l-0.1,1.3
			C379.4,371.2,380.7,370.4,383,369.1z"/>
	</g>
</g>
</svg>
