<?xml version="1.0" encoding="utf-8"?>
<!-- Generator: Adobe Illustrator 22.0.0, SVG Export Plug-In . SVG Version: 6.00 Build 0)  -->
<svg version="1.1" id="Layer_1" xmlns="http://www.w3.org/2000/svg" xmlns:xlink="http://www.w3.org/1999/xlink" x="0px" y="0px"
	 viewBox="0 0 500 500" style="enable-background:new 0 0 500 500;" xml:space="preserve">
<style type="text/css">
	.st0{fill:#0C0C0C;}
</style>
<g>
	<g>
		<g>
			<g>
				<path class="st0" d="M382.8,279.1c4.1,1,8.5,1.7,12.7,3c4.1,1.3,6,4.1,5.6,7.4c-0.3,3.5-3,6-7.5,6.2c-2.7,0.1-5.4-0.1-8-0.7
					c-11.7-2.8-23.3-5.9-35-8.7c-4.6-1.1-9.3-2-13.9-3c-1.8-0.4-3.7-0.7-5.4-1.3c-1.7-0.6-3.2-1.9-2.4-3.8c0.4-1,2.3-1.8,3.6-1.9
					c2.5-0.1,5,0.5,7.6,0.6c6.8,0.3,13.5,0.5,20.3,0.9C367.8,278.3,375.2,278.7,382.8,279.1z"/>
			</g>
		</g>
	</g>
	<g>
		<g>
			<g>
				<path class="st0" d="M118.9,279.1c-4.1,1-8.5,1.7-12.7,3c-4.1,1.3-6,4.1-5.6,7.4c0.3,3.5,3,6,7.5,6.2c2.7,0.1,5.4-0.1,8-0.7
					c11.7-2.8,23.3-5.9,35-8.7c4.6-1.1,9.3-2,13.9-3c1.8-0.4,3.7-0.7,5.4-1.3c1.7-0.6,3.2-1.9,2.4-3.8c-0.4-1-2.3-1.8-3.6-1.9
					c-2.5-0.1-5,0.5-7.6,0.6c-6.8,0.3-13.5,0.5-20.3,0.9C133.9,278.3,126.5,278.7,118.9,279.1z"/>
			</g>
		</g>
	</g>
	<g>
		<g>
			<path class="st0" d="M288.4,30.7C301,51.4,314,71.8,328.6,91.3c1.7-5.7,1.9-11.5,2.5-17.5c1.5,8.1,0.8,16.5,7.1,23
				c-0.9-0.1-1.8-0.1-2.9-0.2c1.3,2.3,2.6,4.6,4.1,7.1c-1.1-0.5-1.9-0.9-3.1-1.4c2.5,3.5,4.8,6.7,7.4,10.3c0.8-2,1.5-3.8,2.3-5.9
				c-1.5,0.9-2.9,1.6-4.5,0.7c2.5-0.6,3-2.7,4-4.5c-1.5,0.6-2.9,1.7-4.8,0.6c2.7-0.9,4.7-2.6,6-5.4c-1.5,0.7-2.7,1.3-4.3,2.1
				c4.4-6.7,4.4-6.7,6.2-20.2c0.6,6.5,0.2,13.3,5.3,18.7c-0.9-0.3-1.8-0.6-2.6-0.8c-0.1,0.1-0.2,0.2-0.3,0.3
				c1.3,1.6,2.7,3.2,4.1,4.9c-1.2-0.1-2.5-0.3-4.3-0.5c1.5,1.6,2.9,3,4.3,4.5c-0.7,0.1-1.7,0.2-2.8,0.4c0.7,2.4,2.1,4.2,4.5,5.3
				c0,0.2,0,0.3,0,0.5c-1.2,0.1-2.4,0.2-3.6,0.3c0.4,1.3,0.8,1.8,5.2,5.5c-1.5,0-2.8,0-4,0c0.4,1.7,1.4,2.5,4.9,4.1
				c-1.3,0.3-2.3,0.6-3.9,1c1.7,1.2,3,2.1,4.3,3c-0.4,0.1-1.1,0.3-2.1,0.5c0.9,0.7,1.6,1.3,2.5,2c-0.7,0-1.3,0-1.8,0
				c-0.6,0-1.1-0.2-2,0.1c1.8,1.9,3.5,3.7,5.4,5.7c-1.4,1-2.8,0-4.1-0.8c-0.1,0.1-0.2,0.3-0.3,0.4c1.6,1.8,3.2,3.6,4.8,5.5
				c-1.2-0.1-2.5-0.2-4.1-0.3c3.9,3.9,9,5.6,13.4,8.4c-0.5,0-1,0.1-1.5,0.1c-19.7,0-39.5,0-59.2,0c-1.3,0-1.9-0.2-2.1-1.6
				c-0.3-2.5-0.9-4.9-1.4-7.3c-0.3-1.4,0.2-2.8-0.5-4.1c-0.2-0.3,0.2-1,0.5-1.4c0.5-1,1.2-2,2-3.3c-1.2,0.3-2,0.6-2.8,0.8
				c-0.1-0.2-0.2-0.3-0.2-0.5c0.5-0.2,1-0.6,1.5-0.7c2.2-0.4,4.4-0.8,7-1.2c-1.3-1.4-2.4-2.6-3.5-3.8c-1.2-1.3-1.2-1.3-0.7-2.8
				c-0.6,0-1.2,0-1.8,0c0.1-0.5,0.2-1.1,0.2-1.7c-0.1,0.1-0.3,0.2-0.4,0.2c-0.3,0.1-0.7,0.1-1,0.2c0.1-0.4,0.1-0.8,0.2-1
				c1.1-1.9,2.3-3.9,3.4-5.8c0.2-0.3,0.2-0.8,0.3-1.3c-1.2,0.3-2.3,0.6-3.4,0.9c-0.1-0.1-0.1-0.2-0.2-0.4c1-1,2.1-1.9,3.2-3
				c-0.4-0.5-0.6-1-0.9-1.4c-0.6,0.2-1.1,0.3-2,0.6c0.5-0.7,0.8-1.1,1.1-1.5c-2.4-4.3-4.8-8.7-7.2-13c0.2-0.1,0.4-0.3,0.6-0.4
				c2.8,2.9,5.6,5.8,8.6,9.1c0.8-1.9,1.6-3.6,2.4-5.5c-1.4,0.5-2.5,0.9-3.9,1.4c1.4-1.6,2.5-2.8,3.5-4.1c0.8-1.1,0.8-2.2-0.1-3.4
				c-4-5.3-8.1-10.7-11.8-16.2c-1.9-2.9-3.2-6.2-4.7-9.4c0.1-0.1,0.3-0.2,0.4-0.3c1.6,1,3.2,2,4.8,3c0.2-0.1,0.3-0.2,0.5-0.3
				c-4.1-7.3-8.1-14.6-12.2-21.9c-0.2,0.1-0.3,0.1-0.5,0.2c-0.1,0.3-0.1,0.6-0.1,0.8c-0.1,5.2-0.2,10.3,0.9,15.4
				c0.2,0.9-0.1,2-0.2,3c-0.4,3.3-1.1,6.6-1.3,9.8c-0.1,1,0.5,2.3,1.1,3.1c1.5,2,3.2,3.9,4.8,5.9c0.4,0.6,0.9,1.4,0.8,2.1
				c-0.4,5.7-0.9,11.4-1.4,17.5c-1.3-1.4-2.4-2.4-2.5-4.3c-0.2-2.6-0.6-5.1-0.9-7.7c-0.2-1.7-0.8-3-2.1-4.1
				c-1.2-1.1-2.3-2.2-3.7-3.6c-0.4,2.2-0.7,4-1,5.9c-0.1,0-0.3,0.1-0.4,0.1c-1.2-2.2-3.1-3.8-2.7-6.9c0.7-5.5,1-11.1,1.4-16.7
				c0-0.6,0-1.1,0-2.2c-2.5,3.2-4.8,6.1-7.1,9.1c-0.9-2.6,0.9-4.5,1.5-7.1c-4.4,4-7,9.3-13,10.5c4.5-6.3,9-12.6,12.7-19.4
				c-0.2-0.2-0.4-0.4-0.6-0.5c-0.3,0.5-0.6,1.1-1,1.6c-4.9,5.7-9.9,11.3-14.8,16.9c-1,1.2-2.1,1.7-3.7,1.5c-1.7-0.2-3.4-0.3-5.7-0.4
				C264.2,62.8,278.4,48.6,288.4,30.7z M316,84c-0.1,3.2-0.2,6.3,1.2,9c2.3,4.3,4.8,8.4,7.2,12.6c0.2,0.4,0.5,0.7,0.9,1.3
				c1.1-1.9,2.1-3.7,3.1-5.4c-0.1-0.1-0.2-0.2-0.3-0.2c-1,0.7-2,1.5-3.1,2.2c-0.1-2.2,2.8-3.3,1.7-5.7c-0.7,0.3-1.3,0.6-1.8,0.8
				c0-0.1-0.1-0.1-0.1-0.2c0.4-0.5,0.8-0.9,1.2-1.5C322.5,92.6,319.3,88.3,316,84z M318.1,109.9c-0.1,0.1-0.2,0.1-0.3,0.2
				c0.8,1.2,1.4,2.4,2.3,3.5c1.3,1.5,1.9,1.5,3.3,0.2c1-1,1.8-2.1,2.6-3.1c-0.9-2.2-2.1-0.5-3.2-0.6c0.5-0.6,1-1.1,1.5-1.6
				c-1-1.4-1.9-2.7-2.9-4c-0.5,0.2-0.9,0.3-1.4,0.4c0.2,0.4,0.4,0.7,0.8,1.3c-1-0.6-1.7-0.9-2.3-1.3c-0.1,0.1-0.3,0.2-0.4,0.3
				c1.3,2.2,2.5,4.4,3.9,6.8C320.6,111.3,319.3,110.6,318.1,109.9z M309.2,75.3c-0.1,0.1-0.3,0.2-0.4,0.3c0.9,1.4,1.6,3,2.7,4.3
				c1.3,1.7,2,3.4,1.9,5.5c-0.1,1.7,0.3,2.4,1.9,3.6c0-2.2,0.7-4.5-0.1-6C313.5,80.3,311.2,77.9,309.2,75.3z M324.5,115.4
				c-1.6,0.4-2.7,0.7-3.8,1c0.1,0.2,0.3,0.4,0.5,0.7c-0.1,0.1-0.1,0.2-0.2,0.3c-0.7-0.2-1.4-0.4-2.3-0.6c0.7,1.3,1.3,2.5,2,3.9
				C322,118.8,323.1,117.3,324.5,115.4z M338.2,114.4c1.6,3.5,2.8,4.5,4.5,3.4C341.3,116.6,340.7,114.5,338.2,114.4z M339.5,121.2
				c0.6,1,1.2,1.8,1.9,2.8c0.9-0.7,1.6-1.3,2.6-2.1C342.3,121.6,341,121.4,339.5,121.2z M344.1,127.2c0.7-1.3,1.3-2.4,1.9-3.5
				c-0.1-0.1-0.2-0.1-0.3-0.2c-1,0.7-2,1.3-3.1,2.1C343,126.1,343.5,126.5,344.1,127.2z M323.7,123c0.7-1.1,1.3-2.1,1.8-3
				c-0.1-0.1-0.2-0.2-0.3-0.3c-1,0.6-2,1.3-3.2,2C322.7,122.2,323.1,122.5,323.7,123z M343.1,132.2c1.4,0.7,1.9,0.3,2.1-1.6
				C344.5,131.1,343.9,131.6,343.1,132.2z"/>
		</g>
		<g>
			<path class="st0" d="M162.9,99.5c-1.9,1.7-3,3.7-5.5,4.1c1.9-2.6,3.6-5.2,5.4-7.7c-0.2-0.1-0.3-0.2-0.5-0.4
				c-0.8,0.9-1.6,1.8-2.4,2.7c-0.1-0.1-0.1-0.1-0.2-0.2c1.1-2.4,2.3-4.8,3.6-7.7c-1.7,0.7-2.9,1.2-4.1,1.7c-0.1-0.1-0.2-0.2-0.3-0.4
				c6.2-4.7,5.6-11.8,6.5-18.4c0.2,6.6,1.5,12.9,5.4,18.5c-0.1,0.1-0.3,0.2-0.4,0.2c-1-0.8-2-1.6-2.9-2.3c0,1.8,1.9,5.5,3.9,7.7
				c-0.4,0.2-0.8,0.3-1.2,0.5c0.2,0.3,0.5,0.7,0.7,1c-0.1,0.1-0.1,0.2-0.2,0.2c-0.7-0.4-1.4-0.8-2.2-1.3c0.5,3.1,2.2,5.6,4.2,7.9
				c-0.1,0.1-0.2,0.3-0.3,0.4c-1.4-0.8-2.8-1.6-4.4-2.5c0.5,2.2,1.5,4,3.3,5.2c0.4,0.2,1.2,0.3,1.5,0c2.5-1.7,4-4.2,5.1-7.3
				c-1.7,0.9-3.1,1.7-4.4,2.4c1.9-3.3,3.9-6.6,5.8-10c-0.1-0.1-0.3-0.2-0.4-0.4c-1.1,0.9-2.2,1.7-3.4,2.6c-0.1-0.1-0.2-0.1-0.3-0.2
				c1.5-2.8,2.9-5.6,4.4-8.4c-0.1-0.1-0.2-0.1-0.3-0.2c-1.3,1.1-2.5,2.1-3.8,3.2c-0.1-0.1-0.3-0.3-0.4-0.4c3.6-3.5,4.7-8.1,5.4-12.7
				c0.8-4.9,1.1-10,1.6-14.9c0-0.4,0.1-0.7-0.1-1c1,6,1.8,12,3,17.9c0.6,3.3,2.1,6.3,4.8,8.8c-1-0.1-1.9-0.2-3-0.2
				c0.8,1.6,1.6,3.3,2.4,5.1c0.4-0.5,0.7-0.8,1-1.1c2.9-3.9,5.8-7.8,8.7-11.7c0.5-0.7,0.9-1.7,1-2.6c0.4-2.9,0.7-5.7,1.3-8.7
				c0.2,2.3,0.3,4.5,0.5,6.8c0.1,0.1,0.3,0.1,0.4,0.2c6.1-10.4,12.3-20.7,18.5-31.2c7.3,10.4,14.6,20.7,22.2,31.5
				c-3.2-1.3-6.1-2.5-9-3.5c-1.7-0.6-2.9-1.7-3.9-3.2c-1.9-3-3.9-5.9-6.1-8.8c0,0.9,0,1.7,0,2.6c0,1.2,0.2,2.3,0,3.5
				c-0.4,4.1,0.6,7.7,3.5,10.7c0.3,0.3,0.5,1.2,0.3,1.6c-2,4.1-4,8.1-6.1,12.2c-0.1,0.2-0.2,0.3-0.4,0.6c-0.8-1.6-1.6-3.2-2.5-4.8
				c-4.6,1.9-6.6,6.4-9.8,9.7c2.3-8.1,5.5-15.8,6.7-24.1c-0.1-0.1-0.3-0.2-0.4-0.2c-0.6,0.6-1.1,1.1-1.7,1.8
				c-2.8,3.3-5.5,6.7-8.3,10c-1.4,1.7-1.5,1.8-0.1,3.6c0.3,0.4,0.7,0.8,1.1,1.3c0.4-0.3,0.8-0.5,1.2-0.8c0.1,0.1,0.2,0.3,0.2,0.4
				c-0.2,1-0.3,2.1-0.8,2.9c-0.9,1.5-0.2,2.3,0.9,3.1c0.2,0.1,0.4,0.3,0.6,0.8c-0.9,0-1.8-0.1-2.7-0.1c-0.3,0-0.8,0-0.9,0.2
				c-0.1,0.2,0,0.7,0.2,0.9c1.1,1.2,2.2,2.4,3.4,3.7c-0.9,0.1-2,0.3-3.2,0.4c0.9,2.6,2.2,4.9,5,6.1c-1.6,1.1-1.6,1.1-4.6,0.4
				c0.7,1.1,1.2,1.9,1.9,2.7c0.6,0.8,1.3,1.5,2,2.3c-0.7,0.6-0.6,2.1-2,1.7c-0.2,0.7-0.2,1.5-0.6,2c-2.7,3.8-5.5,7.6-8.4,11.3
				c-0.7,0.9-2.1,1.4-3.4,2.2c0.5,0.3,0.8,0.5,1.2,0.8c-1.1,1.6-2.2,3-3.3,4.5c0.6,0.4,1.2,0.7,1.4,0.9c0.9-0.3,1.5-0.7,2.2-0.8
				c3.6-0.6,7.2-1.1,11.2-1.7c-0.3,5.2-0.7,10.3-1,15.4c-22.7,0-45.1,0-68,0c4.3-3.1,8.9-4.7,13.3-6.9c-0.4-0.1-0.8-0.1-1.2-0.2
				c1.8-2.1,3.5-4.3,5.6-6.8c-1.9,0.7-3.4,1.2-4.9,1.8c-0.1-0.2-0.2-0.3-0.3-0.5c3.3-1.6,5-4.4,6.6-7.9c-2,0.7-3.7,1.3-5.3,1.9
				c2.9-3.6,5.3-7.4,7.1-11.9c-1.1,0.6-2,1-3.2,1.5c0.5-1.1,0.9-2,1.4-3.2c-1.3,0.9-2.3,1.6-3.3,2.3c-0.1-0.1-0.3-0.3-0.4-0.4
				c2.6-3.3,5.7-6.3,6.2-10.8c-1.2,0.4-2.4,0.7-3.7,1.1c-0.1-0.1-0.2-0.3-0.2-0.4C159.4,105.9,161.9,103.5,162.9,99.5z M198,95.5
				c-2.5,1-5.2,1.8-6.4,4.7c0.6,0.6,1.1,1.2,2,2.2c-1-0.1-1.5-0.3-2.1-0.3c-0.6,0-1.2,0-1.8,0c0.1,0.7,0.1,1.4,0.3,2
				c0.2,0.4,0.6,0.8,1,1.3c1.3-1.4,2.5-2.7,3.8-4.1c-0.4-0.2-0.7-0.4-1.1-0.7C196.4,99.9,196.9,97.5,198,95.5z M168.9,111.5
				c0.8,1.6,1.5,3,2.3,4.7c1.4-2.2,2.6-4,4.1-6.2c-1.7,0.5-2.9,0.8-4.2,1.2c0.1,0.1,0.3,0.5,0.5,0.8c-0.1,0.1-0.1,0.3-0.2,0.4
				C170.7,112.2,169.9,111.9,168.9,111.5z M198.7,119.4c-0.1,0-0.2-0.1-0.2-0.1c-1.2,0.8-2.3,1.7-3.6,2.6c0.5,0.6,1,1.1,1.7,1.8
				C197.4,122.1,198,120.8,198.7,119.4z"/>
		</g>
		<g>
			<path class="st0" d="M309.7,127.7c-1.7,0.3-3.1,0.7-4.6,0.9c-1.2,0.1-1.7,0.7-1.5,1.8c1,6.3,2,12.6,3,18.9c0,0.3,0.1,0.5,0.2,0.9
				c-1.7,0.5-3.4,0.9-5,1.4c-4.5,1.4-9,2.6-13.4,4.2c-3,1.1-5.9,2.8-8.8,4.3c-1.2,0.6-2.3,1.1-3.7,1.1c-11.3-0.7-22.6-1.2-34-2
				c-10.9-0.8-21.8-1.3-32.7-0.1c-0.3,0-0.6,0-1.1,0c1.2-9.8,2.8-19.4,2.3-29.4c-3.9,0.7-7.5,1.4-11.5,2.2c0.2-0.6,0.3-0.7,0.4-0.9
				c12.7-16,22.9-33.5,31.6-51.9c0.4-0.9,0.9-1.8,1.3-2.7c0.4-1,0.9-1,1.9-0.6c3.9,1.4,7.7,3.1,11.7,3.8c8.9,1.7,17.9,1.7,26.9,0.5
				c0.8-0.1,1.4-0.2,1.8,0.7c6.9,13.8,16.9,25.3,26.7,37c2.5,3,5.1,6,7.7,9C309.2,126.9,309.4,127.2,309.7,127.7z M276.8,158.4
				c-1-8.2-2-16.1-3-24.3c-2,0.7-3.1-0.2-4.2-1.4c-0.8-0.9-1.9-1.7-2.7-2.7c-5.3-6.2-10.5-12.4-15.7-18.6
				c-5.6-6.7-10.8-13.8-15-21.5c-0.2-0.4-0.5-0.8-1-1.6c-0.1,0.6-0.1,0.9-0.1,1.1c0.2,12.6,0.4,25.1,0.7,37.7
				c0.2,7.4,1.4,14.5,5.3,20.9c1.5,2.5,3,4.9,4.5,7.4c0.6,1.1,1.5,1.5,2.7,1.6c8.9,0.4,17.8,0.9,26.7,1.3
				C275.4,158.4,276,158.4,276.8,158.4z M211,156.3c3.7-0.1,7.2-0.3,10.6-0.5c0.4,0,1-0.4,1.3-0.8c5.8-9,10.4-18.3,10.3-29.4
				c-0.1-12.4,0.1-24.9,0.1-37.3c0-0.2-0.1-0.4-0.1-0.6c-1.6,2.5-2.8,5.2-4,7.8c-4.2,9.1-9.5,17.5-14.8,25.9
				c-1.1,1.8-1.6,3.5-1.6,5.6c-0.1,6-0.4,11.9-0.8,17.8C211.7,148.7,211.3,152.4,211,156.3z M301.2,129.4c-0.3,0-0.6,0-0.8,0
				c-7.7,1.4-15.5,2.8-23.2,4.1c-1.2,0.2-1.1,0.9-1,1.7c0.5,4.7,1.1,9.3,1.6,14c0.3,2.7,0.8,5.4,1.2,8.3c8-4.2,16.5-6.2,24.7-8.8
				C302.9,142.2,302,135.8,301.2,129.4z M233.9,81c4.8,7.2,9.4,14.3,14.2,21.3c6.2,8.9,14.2,18.5,16.3,19.6
				c-4.5-8-10.6-14.7-15.6-22.1c-5-7.4-10-14.8-14.9-22c-6.8,12.8-13.6,25.5-20.5,38.5C221.8,105.3,227.2,92.8,233.9,81z M296,116
				c0.1-0.1,0.2-0.2,0.3-0.3c-3.2-3.8-6.5-7.5-9.5-11.4c-4.7-6.3-9.3-12.7-13.8-19.1c-0.7-1-1.5-1.3-2.8-1.3
				c-8.1,0.1-16.2,0.6-24.3-0.9c-1-0.2-2-0.3-2.9-0.4c-0.1,0.2-0.1,0.5-0.2,0.7c3.1,0.9,6.2,2,9.4,2.6c4.4,0.7,8.8,0.9,13.2,1.3
				c2.3,0.2,4.4,0.8,6,2.4c2.8,2.7,5.7,5.5,8.3,8.4c4.2,4.7,8.1,9.6,12.2,14.3C293.2,113.6,294.7,114.7,296,116z M264.3,111.5
				c-0.1,0-0.2,0.1-0.3,0.1c0.1,0.2,0.1,0.5,0.2,0.7c3.7,5.4,7.4,10.9,11.1,16.3c0.7,1,1.5,1.1,2.6,0.9c1.3-0.3,2.7-0.4,4.1-0.6
				c2.8-0.4,5.6-0.9,8.4-1.3c0-0.2,0-0.3,0-0.5c-3.6,0-7.2,0-10.7,0c-1.7,0-3-0.5-4-1.8c-2.6-3.1-5.1-6.1-7.7-9.2
				C266.7,114.6,265.5,113,264.3,111.5z M274.2,107.2c4.8,4.8,10.1,8.7,16.9,10.1C285.4,113.9,279.8,110.5,274.2,107.2z"/>
		</g>
		<g>
			<path class="st0" d="M260.1,150.7c-9.4-3.1-19.3-14.2-19.6-21.9C245.3,137.7,251.9,144.9,260.1,150.7z"/>
		</g>
		<g>
			<path class="st0" d="M215.7,152.4c6.2-4.5,10.2-10.6,13.1-17.6C229.1,141.8,221.9,151.4,215.7,152.4z"/>
		</g>
	</g>
	<g>
		<path class="st0" d="M113.8,399.7c-0.4,10.3-16.4,10.3-16,0c0.4-12.2,0.9-24.4,1.1-36.7c-0.2,0-0.4,0-0.7,0
			c-10.3-0.2-10.3-16.1,0-15.9c0.2,0,0.4,0,0.7,0c0.2-11.3,0.2-22.7,0.2-34c0-10.3,16-10.3,16,0c0,11.3,0,22.7-0.2,34
			c5-0.2,10.1-0.7,15.1-1.3c0.2-11.6,0.4-23.1,0.7-34.7c0-10.3,16-10.3,16,0c-0.2,12.2-0.4,24.4-0.7,36.7c0.4,1.3,0.4,2.8,0,4.6
			c0,0.2,0,0.4,0,0.7c-0.4,15.9-1.1,31.9-1.7,47.8c0.2,0.7,0.2,1.3,0.2,2c-0.2,1.1-0.4,2.2-0.7,3.3c-0.4,4.4-3.3,8.1-8.1,8.1
			c-4.2,0-8.1-3.7-7.9-8.1c0.7-14.8,1.1-29.7,1.5-44.5c-5,0.4-10.1,0.9-15.1,1.1c-0.2,12.4-0.7,24.9-1.1,37.3L113.8,399.7z"/>
		<path class="st0" d="M217.4,358.7c0.2,0.7,0.4,1.3,0.7,2c2,3.7,0.7,9.2-3.1,11.1c-0.2,10-0.7,20.1-1.3,30.1
			c-0.7,8.1-12.7,11.1-15.5,3.3c-0.4-0.7-0.7-1.3-0.9-2c0-0.2,0-0.4,0-0.7c-0.4-2-0.2-3.7,0.4-5.2c0.7-8.5,1.1-17.2,1.1-26
			c-6.8-0.4-13.6-0.4-20.3-0.2c-0.9,10-1.5,20.1-1.5,30.1c0,10.3-16,10.3-16,0c0-9.6,0.4-19.2,1.3-28.8c-0.9,0-1.7,0-2.6,0
			c-4.4,0.4-8.1-4.1-8.1-8.1c0-4.6,3.7-7.4,8.1-7.9c1.5-0.2,3.1-0.4,4.6-0.7c0.2-1.5,0.4-3.1,0.7-4.6c2.2-14.8,5-35.8,20.5-42.5
			c8.3-3.5,17.5-1.5,23,5.7c5.2,7,5.5,16.4,5.9,24.7c0.2,5.2,0.4,10.5,0.7,15.7c0.9,0.7,1.5,1.5,2.2,2.8L217.4,358.7z M199,355.7
			c0-1.5,0-3.1,0-4.6c-0.2-7.2,0-15.3-1.7-22.3c-1.3-5-4.4-6.8-8.3-2.2c-3.7,4.4-4.8,11.3-6.1,17c-0.9,3.9-1.5,7.9-2.2,12
			C186.8,355.5,192.9,355.5,199,355.7z"/>
		<path class="st0" d="M267.2,309c9.8,3.5,16.8,12,17.7,22.5c1.5,19.2-17.7,35.6-34.5,41.7c0,6.5,0,13.1,0,19.6
			c1.1,1.5,1.5,3.5,0.9,5.9c-0.4,1.5-0.9,3.1-1.3,4.6c-2.2,8.9-15.7,6.8-15.7-2.2c0-25.7,0-51.5,0-77.2c-9.6,0-9.2-15.3,0.9-15.9
			c10.5-0.7,22.3-2.8,32.6,0.7L267.2,309z M259.8,348.9c3.9-3.9,9-10,9-15.9c0-8.9-9.4-10.5-18.6-10c0,10.9,0,21.8,0,32.7
			c3.7-1.7,7-4.1,9.8-7L259.8,348.9z"/>
		<path class="st0" d="M328.2,309c9.8,3.5,16.8,12,17.7,22.5c1.5,19.2-17.7,35.6-34.5,41.7c0,6.5,0,13.1,0,19.6
			c1.1,1.5,1.5,3.5,0.9,5.9c-0.4,1.5-0.9,3.1-1.3,4.6c-2.2,8.9-15.7,6.8-15.7-2.2c0-25.7,0-51.5,0-77.2c-9.6,0-9.2-15.3,0.9-15.9
			c10.5-0.7,22.3-2.8,32.6,0.7L328.2,309z M320.8,348.9c3.9-3.9,9-10,9-15.9c0-8.9-9.4-10.5-18.6-10c0,10.9,0,21.8,0,32.7
			c3.7-1.7,7-4.1,9.8-7L320.8,348.9z"/>
		<path class="st0" d="M397.1,305.7c3.7-1.1,9.2,1.3,9.8,5.7c2,13.3,2.8,26.6,2.4,39.9c-0.4,12.2-1.3,25.3-6.3,36.7
			c-4.2,9.6-12.2,18.8-23,21.2c-9.6,2.2-20.3-0.9-25.4-9.8c-5-8.9,8.7-17,13.8-8.1c2.6,4.8,9.4,2.4,12.7-0.2
			c6.1-4.8,8.5-12.7,9.8-19.9c0.4-2.4,0.9-4.8,1.1-7.2c-4.2,4.1-9.4,7.2-16.4,8.3c-12,2-21.6-7.6-24.3-18.8
			c-3.1-12.2-1.5-26.2-1.5-38.6c0-10.3,16-10.3,16,0c0,9.2-0.2,18.3,0,27.5c0.2,4.8,1.3,15.9,8.7,13.5c15.3-4.8,14.4-28.6,15.1-41
			c0-2,0.7-3.5,1.7-4.8c0.9-2.2,2.6-3.9,5.2-4.6L397.1,305.7z"/>
	</g>
	<g>
		<g>
			<path class="st0" d="M125.2,214.4c-0.6-1.4-1.5-2.8-2.5-4.3c-1-1.5-2.3-2.5-3.8-3.2c-1.5-0.6-3.4-0.4-5.6,0.6
				c-2.3,1.4-3.5,3.9-3.7,7.5c-0.2,3.7,0.5,7.3,1.7,11.1c1.3,3.8,2.7,7,4.3,9.8c0.7,1.2,1.4,2.4,2.1,3.5c2.5,3.7,5,6.5,7.6,8.1
				c2.6,1.7,5,1.9,7.3,0.7c0.3-0.1,0.5-0.3,0.8-0.4c1.6-1.2,2.4-2.8,2.6-4.6c0.1-1.8,0-3.5-0.5-5.1c-0.5-1.5-0.9-2.8-1.4-3.7
				c-0.1-0.3-0.3-0.6-0.4-0.8c-0.5-1.1-0.2-2,0.7-2.7c0.9-0.7,1.7-1.2,2.4-1.5c0.7-0.3,1.4-0.6,2.2-0.7c1.6-0.3,2.6-0.1,3.1,0.6
				c0.4,0.6,0.7,1.2,1,1.9c0.8,1.9,1.4,4.1,1.9,6.6c0.6,3.4,0.2,6.7-1,10c-1.2,3.3-3.9,6.1-8.2,8.6c-4.5,2.3-8.9,3-13.3,2.1
				c-4.4-0.9-8.4-2.8-12-5.8c-3.6-3-6.6-6.4-9-10.2c-0.4-0.7-0.9-1.3-1.2-2c-2.6-4.7-4.3-9.6-4.8-14.8c-0.5-5.2,0.3-10,2.7-14.5
				c2.3-4.4,6-8.1,11.1-10.6c0.5-0.2,0.9-0.5,1.4-0.7c4.5-1.9,8.5-2.4,11.9-1.7c3.4,0.7,6,2.1,7.8,4.2c1.9,2.1,3.3,4.3,4.2,6.5
				c0.4,0.9,0.7,1.8,1,2.8c0.2,1-0.2,1.9-1.2,2.6c-1,0.7-1.9,1.2-2.6,1.5c-0.7,0.3-1.5,0.6-2.2,0.8c-1.6,0.4-2.6,0.3-3.2-0.4
				C125.9,215.7,125.6,215.1,125.2,214.4z"/>
		</g>
		<g>
			<path class="st0" d="M145.1,220.2c-0.6-3.9-1.1-8.1-1.2-12.7c-0.2-4.6,0-8.9,0.7-13c0.6-4,2-7.2,3.9-9.4c1.2-1.3,2.7-2.3,4.1-2.8
				c1.5-0.6,2.5-1,2.8-1.1c2.3-0.7,4.5-1,6.8-0.9c2.7,0.2,4.7,1.2,6.1,3.2c3.6,5.9,6.5,11.2,8.8,16.1c2.3,4.9,4.6,10.3,7,16.3
				c0.1,0.1,0.1,0.3,0.2,0.4c0.7,1.7,1.2,3,1.6,3.9c0.3,0.9,0.6,1.7,0.9,2.5c0.2,0.7,0.6,1.6,1,2.8c0.4,1.1,1,2.8,1.8,4.9
				c0,0.1,0.1,0.3,0.1,0.4c0.3,1.4,0.1,2.6-0.8,3.6c-0.9,1.1-1.9,1.9-2.9,2.3c-1,0.4-1.7,0.7-2.2,0.8c-1,0.3-2,0.4-2.9,0.4
				c-1.4,0-2.3-0.4-2.7-1.2c-0.1-0.2-0.3-0.7-0.5-1.3c-0.2-0.6-0.5-1.3-0.9-2.2c-0.5-1.2-0.9-2.3-1.3-3.5c-0.5-1.1-0.8-1.8-0.9-2.3
				c-0.4-0.8-0.8-1.3-1.3-1.2c-0.5,0-1.1,0.1-1.7,0.3c-0.5,0.2-1.2,0.4-1.9,0.7c-0.6,0.2-1.3,0.5-2,0.8c-0.8,0.3-1.9,0.8-3.2,1.3
				c-1.4,0.6-2.6,1.3-3.8,2c-1.2,0.7-2,1.4-2.5,2.1c-0.1,0.8,0.1,2,0.6,3.8c0.5,1.8,1.1,3.3,1.6,4.6c0.2,0.6,0.3,1,0.4,1.2
				c0.2,1-0.2,1.9-1.1,2.6c-1,0.7-1.8,1.2-2.5,1.5c-0.7,0.3-1.4,0.5-2.1,0.6c-1.5,0.2-2.5-0.1-3.1-1.1c-1.5-3.9-2.9-8.5-4.2-13.5
				c-0.4-1.5-0.8-2.8-1.1-4.1C146.2,227,145.7,224.1,145.1,220.2z M158.2,194.4c-1.5-1.3-2.6-1.8-3.4-1.6c-0.5,0.2-0.9,0.6-1.2,1.3
				c-0.8,1.8-1.2,4.4-1.2,8c0,3.6,0.3,7.4,0.8,11.3c0.5,3.9,1.2,7.3,1.8,10c0,0.1,0.1,0.2,0.1,0.3c0.1,0.4,0.2,0.8,0.3,1.1
				c0.1,0.4,0.3,0.7,0.5,0.9c0.3,0.4,0.8,0.5,1.6,0.2c0.1,0,0.2-0.1,0.3-0.1c4.5-2,7.7-3.7,9.4-5.1c1.7-1.4,2.4-2.7,2.2-3.9
				c-0.3-1.2-0.5-1.9-0.6-2.3c-0.6-1.9-1.7-4.4-3.3-7.5c-0.1-0.2-0.3-0.5-0.4-0.8C162,199.7,159.7,195.7,158.2,194.4z"/>
		</g>
		<g>
			<path class="st0" d="M221.4,227.6c-0.8,0.3-1.4,0.5-1.8,0.5c-0.6,0.1-1.1,0.1-1.7-0.1c-1.1-0.2-1.8-0.8-2.4-1.7
				c-0.9-1.8-1.9-4.3-3.1-7.3c-1.2-3.1-2.5-6.2-3.7-9.5c-1.1-2.9-2.2-5.6-3.2-7.8c-1-2.2-1.7-3.7-2-4.2c-0.4-0.6-0.7-0.9-0.8-0.9
				c-0.2,0-0.2,0.5-0.2,1.3c0.4,4.7,0.9,10.3,1.7,16.9c0.7,6.6,1.4,11.9,1.9,15.9c0,1.1-0.6,1.9-1.9,2.3c-1.2,0.5-2.2,0.8-2.9,0.9
				c-1.1,0.2-2.3,0.3-3.5,0.2c-1.9-0.1-3.1-0.8-3.5-2.1c-2.1-10-3.8-20.3-4.9-30.9c-0.7-6.5-1.6-12.9-2.4-19.3
				c-0.2-1.2-0.3-2.3-0.3-3.4c0-1.1,0.2-2,0.7-2.7c1-1.2,2.3-2.1,3.9-2.7c1.5-0.5,2.8-0.8,3.7-1c1.2-0.2,2.3-0.3,3.4-0.3
				c2,0.1,3.3,0.6,3.9,1.6c0.9,2,2,4.7,3.5,8.2c1.4,3.6,2.9,7.4,4.4,11.4c2.6,7.1,4.6,12.5,6,16.3c0.1,0,0.3-1.4,0.5-4
				c0.3-2.7,0.6-6.1,1.1-10.1c0.5-4.3,1-8.4,1.5-12.4c0.5-3.9,1-6.7,1.3-8.4c0.4-2.5,1-4.2,1.9-5.1c0.8-0.9,2.5-1.5,5.1-1.7
				c0.4,0,0.8,0,1.2,0c2.8-0.1,4.5,0.4,5.3,1.5c0.7,1.1,1.2,2.4,1.3,4.1c0,0.1,0,0.2,0,0.2c0.8,5,1.8,12.9,3.1,23.6
				c0.7,6,1.4,11.8,2,17.2c0.6,5.5,1.1,9.6,1.4,12.6c0,0,0,0.1,0,0.1c0,1.3-0.6,2.2-2,2.8c-0.8,0.3-1.7,0.5-2.5,0.6
				c-0.6,0-1.1,0-1.7-0.1c-1.4-0.3-2.3-0.9-2.6-2c-0.4-3.8-0.9-7.9-1.4-12.3c-0.7-7-1.5-13.3-2.5-18.9c-0.2-0.8-0.3-1.5-0.5-1.9
				c-0.2-0.4-0.3-0.6-0.5-0.7c-0.1-0.1-0.2-0.1-0.3-0.1c0,0-0.1,0-0.2,0.1c-0.1,0.1-0.2,0.1-0.3,0.3c-0.1,0.1-0.2,0.2-0.2,0.3
				c-0.5,1.7-1,4.4-1.6,8.2c-0.6,3.8-1.2,7.9-1.6,12.1c-0.5,4.2-0.8,7.7-1,10.5C222.7,226.6,222.1,227.3,221.4,227.6z"/>
		</g>
		<g>
			<path class="st0" d="M249.8,228.9c-0.9,0-1.5-0.7-1.8-2.1c-0.3-1.4-0.5-3.1-0.6-5c0-0.8-0.1-1.6-0.2-2.4
				c-0.2-1.8-0.5-5.6-0.8-11.3c-0.4-5.7-0.5-11.1-0.6-16.1c0-2.1,0-4.2,0-6.3c0.1-7.2,0.8-12.5,2.3-15.9c0.9-1.9,3.1-2.9,6.6-2.8
				c0.1,0,0.2,0,0.3,0c11.3,0.8,19.4,3.5,24.4,7.5c4.9,4,7.1,7.3,6.9,9.8c-0.2,2.6-0.4,3.9-0.4,4.2c-0.6,4.7-3.1,9.1-7.3,13.4
				c-4.4,4.6-10.2,8.4-17.2,11.7c0,0,0,0,0,0c-0.6,0.2-1,0.5-1.2,0.8c-0.2,0.3-0.4,0.8-0.4,1.5c0,0.1,0,0.2,0,0.2c0,0.8,0,2.1,0.2,4
				c0,0.7,0.1,1.6,0.1,2.5c0.1,0.9,0.1,1.7,0.1,2.5c0,0.7-0.1,1.2-0.2,1.8c-0.2,1.2-0.8,1.8-1.8,1.8
				C255.3,228.7,252.6,228.8,249.8,228.9z M259.6,186c-0.4,3.3-0.6,6.4-0.7,9.1c0,0.7,0,1.3-0.1,2c-0.1,3.3-0.1,5.4,0,6.3
				c0.1,0.7,0.4,1.1,1.1,1.2c0.3,0,0.6,0,0.9-0.1c3.9-1.1,7.2-3.3,10-6.4c2.8-3.2,4.4-6.5,4.8-10.1c0.2-2.8-0.6-5.1-2.4-7.2
				c-1.7-2.1-4.5-3.5-8.1-4.2c-0.4-0.1-0.7-0.1-1.1-0.1c-0.5,0-0.9,0-1.2,0.1c-0.6,0.2-1,0.7-1.4,1.5
				C260.6,180,259.9,182.7,259.6,186z"/>
		</g>
		<g>
			<path class="st0" d="M298,229.6c-0.1,1.3-0.3,2.3-0.6,3c-0.3,0.7-1.1,1.1-2.2,1.3c-1.1,0.1-2.9,0-5.5-0.4c-1.7-0.2-2.7-0.5-3.2-1
				c-0.5-0.5-0.7-1.4-0.6-2.8c0-2.5,0.2-5.1,0.5-7.8c0.3-2.7,0.6-5.3,0.9-7.8c1.1-8.3,2.4-16.7,3.9-24.9c0.2-1,0.5-1.6,1.1-2.2
				c0.6-0.5,1.4-0.7,2.5-0.6c1,0.1,2,0.3,3.1,0.5c0.3,0.1,0.6,0.1,0.9,0.2c0.2,0,0.4,0.1,0.7,0.1c0.7,0.1,1.4,0.2,2.2,0.4
				c0.9,0.2,1.5,0.4,2.2,0.8c0.6,0.3,0.9,0.8,1,1.3c0,0.4-0.1,1-0.2,1.7c-0.2,0.7-0.3,1.4-0.5,2c-0.1,0.3-0.1,0.6-0.2,0.9
				c-2.8,11.5-4.7,23.2-5.9,34.9C298,229.3,298,229.4,298,229.6z M294.9,171.3c0.5-0.7,1.3-1.2,2.5-1.3c1.2-0.2,3.1,0,5.5,0.5
				c3,0.6,4.9,1.4,5.7,2.4c0.8,1,0.8,2.7,0,4.8c0,0.2-0.1,0.5-0.2,0.8c-0.2,1-0.5,1.8-1,2.7c-0.4,0.8-1.2,1.4-2.2,1.6
				c-1,0.1-2.4,0-4.2-0.3c-1.8-0.3-3.2-0.6-4.3-0.8c-0.8-0.2-1.5-0.4-2.1-0.7c-0.6-0.3-1-0.8-1.3-1.6c0,0,0-0.1,0-0.1
				c-0.1-0.2-0.1-0.4-0.1-0.6c0-0.2,0-0.4,0-0.6c0-0.2,0.1-0.3,0.1-0.5c0.2-1.1,0.4-2.2,0.6-3.3C294.1,173,294.4,172.1,294.9,171.3z
				"/>
		</g>
		<g>
			<path class="st0" d="M357.1,187c1,0.1,2,0.4,3.2,0.8c1.2,0.5,2.3,0.9,3.2,1.4c0.4,0.2,0.7,0.3,1,0.5c1.2,0.6,1.6,1.2,1.5,2
				c-0.2,0.8-0.4,1.5-0.7,2.1c-0.3,0.8-0.7,1.6-1.2,2.5c-0.4,0.8-0.9,1.7-1.3,2.7c-3.1,6.8-6.1,13.6-8.9,20.4
				c-2.4,5.9-5,11.8-7.6,17.8c-0.4,1-0.8,1.8-1.1,2.6c-0.2,0.6-0.5,1.2-0.7,1.8c-0.8,1.8-1.4,3.2-2,3.9c-0.7,0.8-1.5,1-2.8,0.6
				c-0.1,0-0.5-0.1-1.1-0.3c-0.6-0.2-1.3-0.5-2-0.7c-0.8-0.3-1.5-0.5-2.1-0.7c-0.6-0.2-1-0.3-1.1-0.3c-0.1,0-0.3-0.1-0.4-0.1
				c-1.4-0.5-2.3-1.4-2.7-2.7c-0.4-1.4-0.6-2.8-0.5-4.2c0-0.4,0-0.7,0-1c0-5.2-0.2-10-0.5-14.6c-0.4-4.6-1-9.8-2.1-15.8
				c-0.4-1.9-0.7-3-0.9-3.2c-0.3-0.2-0.4-0.4-0.6-0.4c-0.3-0.1-0.6,0.1-0.8,0.5c-0.4,0.6-0.8,1.4-1.1,2.4c-1.1,3.1-2,6.2-2.9,9.2
				c-0.7,2.5-1.3,5-1.9,7.5c-0.6,2.6-1.3,5.3-2,8c-0.2,0.6-0.4,1.3-0.5,2c-0.1,0.6-0.3,1.2-0.4,1.8c-0.2,0.8-0.5,1.6-0.8,2.3
				c-0.5,1.1-1.2,1.6-2.2,1.5c-0.3,0-0.5-0.1-0.7-0.2c-1-0.2-1.9-0.4-2.8-0.6c-1.4-0.3-2.5-0.7-3.5-1.2c-1.6-0.7-2.2-2.1-2-4.1
				c0.1-0.7,0.3-1.5,0.5-2.2c0.1-0.8,0.3-1.4,0.4-1.9c0-0.2,0.1-0.4,0.1-0.5c0.8-3.5,1.5-7,2.3-10.5c2.6-11.3,5.4-22.5,8.6-33.7
				c0-0.1,0-0.2,0.1-0.3c0.2-0.6,0.5-1.4,1-2.5c0.4-1,1.2-1.9,2.1-2.6c0.9-0.7,2.2-1,3.9-0.7c1.7,0.4,3.4,0.7,5.2,1.1
				c0.1,0,0.1,0,0.2,0.1c2.8,0.8,4.6,1.9,5.3,3.3c0.7,1.5,1.1,3,1.1,4.5c0,0.6,0.1,1.2,0.2,1.7c2.3,13.9,3.7,27.8,4.4,41.6
				c0.1,0.5,0.2,0.8,0.3,0.9c0,0,0.1,0,0.1,0c0.2,0,0.4-0.1,0.6-0.5c0.2-0.3,0.4-0.7,0.6-1.1c0.2-0.4,0.3-0.6,0.3-0.7
				c2.1-5.6,4.1-11.2,6-16.9c1.8-5.3,3.7-10.5,5.6-15.8c0.1-0.2,0.1-0.4,0.2-0.5c0.5-1.3,0.9-2.4,1.2-3.3c0.3-0.9,0.6-1.8,0.9-2.8
				C355.5,187.2,356.1,186.9,357.1,187z"/>
		</g>
		<g>
			<path class="st0" d="M392.7,213.1c-1.9-1.1-3.8-1.4-5.7-1.1c-2.2,0.4-4.3,1.4-6.1,2.8c-1.8,1.4-3.3,2.7-4.3,4.1
				c-1.5,1.8-2.8,3.9-3.9,6.2c-0.5,0.9-0.9,1.9-1.3,3c-1.5,3.5-2.3,7.1-2.6,10.9c-0.4,3.8,0.2,7.3,1.5,10.7c0.6,1.3,1.2,2.2,1.9,2.5
				c0.2,0.1,0.5,0.2,0.7,0.2c0.9,0.1,1.8-0.3,2.7-1c0.9-0.8,1.6-1.5,2.2-2.2c0.1,0,0.1-0.1,0.2-0.2c1.4-1.5,2.6-3.2,3.6-4.9
				c0.5-0.9,1-1.9,1.4-2.9c0.1-0.4-0.1-0.9-0.7-1.3c-0.6-0.5-1.5-1-2.7-1.7c-1.2-0.6-2.5-1.4-3.9-2.3c-0.8-0.5-1.1-1.1-1-1.8
				c0.1-0.7,0.3-1.3,0.6-1.8c0.1-0.3,0.3-0.5,0.5-0.8c0.5-0.7,1-1.1,1.5-1.2c0.5,0,1.2,0.2,2.2,0.6c1,0.4,1.9,0.9,3,1.4
				c1,0.5,1.7,0.9,2.2,1.2c2.5,1.4,4.7,3,6.6,4.6c1.8,1.7,2.4,3.4,1.9,5c-0.5,1.1-1.1,2.4-2,3.8c-0.6,1-1.3,2-2.1,3.2
				c-2,2.7-4.2,5.2-6.6,7.5c-2.4,2.3-4.8,3.7-7,4.4c-2.1,0.4-3.6,0.3-4.8-0.3c-1.1-0.6-1.7-1-1.8-1c-2-1.1-3.8-2.5-5.4-4.1
				c-3.9-4.2-6.3-8.9-7.1-14.5c-0.8-5.5-0.8-10.1,0.3-13.7c1.1-3.6,2-6.2,2.6-7.7c1.7-3.8,3.9-7.3,6.7-10.4
				c3.9-4.3,8.6-7.1,14.1-8.3c5.4-1.2,11.2-0.2,17.1,3c0.2,0.1,0.3,0.2,0.5,0.3c3.7,2.4,6.3,5.1,7.5,8c1.3,2.9,1.7,5.7,1.4,8.4
				c-0.3,2.7-0.8,4.7-1.5,6.1c-0.7,1.3-1.2,2.3-1.6,2.8c-0.5,0.7-0.9,1.2-1.3,1.5c-0.5,0.4-1.1,0.4-1.7,0.2
				c-0.7-0.2-1.3-0.5-1.9-0.9c-0.7-0.4-1.3-0.7-1.8-1c-0.5-0.3-0.9-0.6-1.2-0.8c-0.6-0.4-0.8-0.9-0.8-1.4c0-0.5,0.2-1.3,0.6-2.2
				c0.5-1.1,0.9-2.4,1.2-3.7c0.3-1.3,0.3-2.7,0-4.2c-0.4-1.4-1.3-2.8-2.8-4.1C393.4,213.6,393.1,213.3,392.7,213.1z"/>
		</g>
	</g>
	<g>
		<path class="st0" d="M190.3,248.9v45.6h-11.4v-45.6H190.3z"/>
		<path class="st0" d="M205.8,249.1h11.1c7.6,0.1,11.6,4,11.7,11.6l0,4.5l-11.8-0.1l-0.1-2.5c0-1.3-1.4-2-4.1-2h-2.5
			c-2.6,0-3.9,0.8-3.9,2.3v0.9c0,1.5,0.9,2.3,2.8,2.3h7.7c7.8,0.2,11.7,4,11.9,11.5v5.3c-0.1,7.6-3.9,11.6-11.4,11.7h-11.4
			c-7.4-0.1-11.2-3.7-11.4-10.9v-4.9l11.8,0.1l0,2.3c0,1.3,1.3,2,3.8,2h3.1c2.4-0.1,3.6-0.9,3.6-2.3V280c0-1.5-0.9-2.3-2.8-2.3h-7
			c-8.2,0-12.4-3.7-12.5-11.2V260C194.5,252.8,198.3,249.1,205.8,249.1z"/>
		<path class="st0" d="M251.8,249.1h14.8l8.7,23.1l8.5-23.1h15.1v45.6h-11.5v-23.4l-6.6,19.6h-10.3l-7.4-19.6v23.4h-11.4V249.1z"/>
		<path class="st0" d="M299.6,249.1h11.1l5.9,20.3l5.8-20.3h11.3l-11.5,35v10.6h-11.4v-10.9L299.6,249.1z"/>
	</g>
	<g>
		<path class="st0" d="M185.2,426.7c0.8,6.3-1,11.9-5.1,16.7c-3.1,3.5-7.1,5.5-11.8,5.9c-0.7,0.1-1.5,0.1-2.2,0.1
			c-0.9,0.1-1,0.2-1,1.1c0,1.1-0.1,2.2-0.1,3.2c0,3.5-0.4,7.1-0.3,10.6c0,1.1,0,1.1,1.2,1.2c0.2,0,0.5,0,0.7,0.1
			c0.5,0.2,0.8,0.5,0.9,1.1c0.1,0.5-0.2,1-0.8,1.2c-0.5,0.2-1.1,0.3-1.6,0.2c-0.9-0.2-1.9-0.2-2.7-0.5c-2.5-0.9-5.1-0.8-7.6,0.2
			c-0.8,0.3-1.5,0.5-2.4,0.5c-0.8,0-1.4-0.4-1.5-1c-0.1-0.6,0.3-1.1,1.2-1.4c1.2-0.4,1.2-0.4,1.2-1.5c0.2-5.2,0.2-10.5,0.3-15.7
			c0-0.6,0-1.2,0.1-1.9c0.1-0.8,0-1.5-0.2-2.3c-0.4-1.2-0.8-2.2-2-2.9c-0.5-0.2-0.8-0.8-0.5-1.4c0.2-0.6,0.8-0.8,1.5-0.7
			c0.2,0.1,0.5,0.2,0.7,0.2c0.2,0.1,0.5,0.2,0.7,0.1c0.3-0.3,0.2-0.7,0.2-1.1c0-6.3,0.3-12.6,0.2-19c0-0.3,0-0.6,0-0.9
			c-0.1-0.9-0.2-1-1.1-1.2c-0.2,0-0.3,0-0.5,0c-0.5-0.2-0.9-0.5-1-1.1c-0.1-0.5,0.3-1,1-1.2c0.5-0.2,1.1-0.2,1.6,0
			c0.8,0.2,1.7,0.4,2.5,0.6c2.4,0.7,4.8,0.8,7.1-0.2c1.9-0.8,3.9-0.8,5.9-0.8c2.2-0.1,4.2,0.2,6.2,0.9c2,0.7,3.9,1.7,5.5,3.1
			c2.6,2.2,3.6,5,4,8.3L185.2,426.7z M163,424.9c0.2-2.1,0.1-4.2,0.2-6.2c0-0.8-0.1-0.8-0.9-0.7c-1.4,0.3-2.8,0.2-4.2,0
			c-0.2,0-0.5,0-0.7-0.1c-0.6-0.2-0.8,0.2-0.8,0.8c0,0.2,0,0.3,0,0.5c0,6,0,12-0.2,17.7c0,1.8,0,3.3,0,4.9c0,0.8,0.2,0.9,0.9,0.6
			c1.5-0.6,3-0.7,4.6,0c0.8,0.3,0.8,0.2,0.9-0.6c0-0.2,0-0.5,0-0.7c-0.1-4.9,0.2-9.9,0.3-14.8c0-0.2,0-0.5,0-0.7V424.9z
			 M160.4,436.1c0.7,0.7,0.8,1.6,0.5,2.3c-0.4,0.6-1,0.9-1.6,0.8c-0.8-0.2-1.5-1.1-1.5-2c0-0.7,0.3-1.2,0.9-1.5
			C159.4,435.3,159.8,435.7,160.4,436.1L160.4,436.1z M174,429.3c0-0.6,0-1.2-0.1-1.9c-0.2-2.3-0.5-4.6-1.8-6.7c-1.2-2-3-3-5.2-3.2
			c-0.8-0.1-1,0.2-1.1,1.1c-0.1,1.2-0.2,2.3-0.2,3.5c0.2,5.4-0.3,10.8-0.3,16.2c0,2.2-0.1,4.3-0.2,6.5c-0.1,1.3,0.2,1.4,1.4,0.8
			c1.9-0.8,3.3-2.3,4.3-4.1C172.9,437.7,174.1,433.6,174,429.3L174,429.3z M182,434.4c1.1-3.2,1-6.6,0.3-9.9
			c-0.3-1.4-0.8-2.6-1.9-3.6c-2.2-2.3-4.9-3.5-8-4c2.1,1.6,3.1,3.9,3.6,6.3c1.2,5.5,0.9,10.9-1.2,16.1c-0.5,1.3-0.5,1.3,0.6,2
			c0.2,0.2,0.5,0.3,0.7,0.5c0.8,0.5,0.8,0.5,1.5-0.2c2.1-2.1,3.4-4.6,4.3-7.4V434.4z"/>
		<path class="st0" d="M219.8,458.6c0.8,1.2,1.2,2.5,1,3.9c-0.2,0.6-0.3,1.2-0.5,1.9c-0.4,1.5-1.2,2.5-2.5,3.2c-1.9,1-4,1.4-6.2,1.5
			c-3.3,0.2-6.6-0.2-9.9-0.6c-2-0.3-4-0.7-6-0.2c-0.8,0.2-1.7,0.5-2.5,0.8c-0.7,0.2-1.4,0.4-2.2,0.3c-0.7-0.1-1.1-0.5-1.1-1
			c0-0.6,0.3-1,0.8-1.2c0.2-0.1,0.3-0.2,0.5-0.2c0.8-0.1,1-0.5,1-1.2c0.1-2.4,0.2-4.8,0.2-7.2c0.1-3.9,0-7.7,0.2-11.6
			c0.1-1.8-0.4-3.5-2.2-4.5c-0.7-0.4-0.8-1-0.5-1.5c0.3-0.5,0.8-0.7,1.6-0.5c1.3,0.3,1.3,0.3,1.3-1c-0.1-4.5,0.3-9,0.2-13.6
			c0-2,0-4,0-6c0-1.3,0-1.3-1.2-1.6c-0.8-0.2-1.2-0.6-1.1-1.2c0.1-0.7,0.5-1,1.2-1.2c1.1-0.2,2.1,0.1,3.1,0.4
			c1.4,0.4,2.8,0.8,4.2,0.8c1.2,0,2.3-0.2,3.4-0.6c1-0.4,2-0.7,3.1-0.8c0.6-0.1,1.2-0.1,1.8,0.2c0.5,0.3,0.8,0.8,0.8,1.4
			c-0.1,0.5-0.5,0.8-1,1c-0.1,0-0.2,0-0.2,0c-1.8,0.2-1.7,0.2-1.9,2c-0.2,3.9,0,7.9-0.2,11.8c-0.2,3.6-0.2,7.2-0.2,10.9
			c-0.2,5.2-0.3,10.5-0.5,15.7c-0.1,1.8-0.2,3.5-0.2,5.3c0,1.5,0,1.5,1.4,1.7c1.9,0.3,3.9,0.4,5.8,0.4c4.1,0.1,5.2-3.3,5.1-5.9
			c0-0.5-0.3-0.8-0.5-1.2c-0.4-0.6-0.5-1.2-0.1-1.9c0.5-0.7,1.2-0.9,1.9-0.8c1.2,0.2,2,0.9,2.6,1.9L219.8,458.6z M201.8,432.9
			c0.2-4.2,0.3-8.5,0.3-12.7c0-0.8-0.1-0.9-0.9-0.8c-1.5,0.3-3,0.1-4.5-0.1c-0.2,0-0.3,0-0.5,0c-0.5-0.1-0.7,0.2-0.7,0.6
			c0,0.2,0,0.5,0,0.7c0,6,0,12-0.2,17.6c0,1.9,0,3.5,0,5c0,0.7,0.2,0.8,0.7,0.6c1.6-0.8,3.2-0.8,4.9,0c0.4,0.2,0.6,0.1,0.6-0.4
			c0-0.4,0-0.8,0-1.2c0.1-3,0.1-6,0.2-9L201.8,432.9z M198.5,436.7c0.8,0.1,1.8,1.2,1.8,2.2c0,0.6-0.3,1.1-0.8,1.4
			c-0.5,0.3-1.1,0.2-1.6-0.1c-0.8-0.5-1.2-1.5-0.9-2.5C197.1,437,197.8,436.6,198.5,436.7L198.5,436.7z"/>
		<path class="st0" d="M268.1,466.1c0.2,0.4,0.2,0.8,0,1.2c-0.3,0.5-0.8,0.8-1.4,0.7c-1.2-0.1-2.5-0.2-3.6-0.7
			c-1.1-0.5-2.2-0.5-3.2,0c-0.8,0.3-1.6,0.6-2.5,0.8c-0.4,0.1-0.8,0.2-1.2,0.2c-0.8,0-1.3-0.4-1.4-1c-0.1-0.6,0.3-1.2,1.2-1.2
			c1.2-0.2,2.2-0.5,3.2-0.9c1.1-0.5,1.1-0.5,0.8-1.7c-0.8-3.8-1.7-7.6-2.6-11.3c-0.3-1.4-0.3-1.4-1.7-1.4c-4.2,0.1-8.5,0-12.7,0.2
			c-1.1,0.1-1.2,0.2-1.5,1.2c-1.2,3.9-2.5,7.7-3.7,11.6c-0.2,0.4-0.2,0.8-0.3,1.2c-0.2,0.8-0.2,0.8,0.6,1c0.3,0.1,0.7,0.2,1,0.3
			c0.5,0.2,0.9,0.7,0.8,1.3c-0.1,0.6-0.5,1-1.1,1.1c-0.5,0.1-1.1,0-1.6-0.2c-0.8-0.2-1.8-0.4-2.6-0.7c-1.5-0.5-2.9-0.5-4.2,0.1
			c-1.3,0.5-2.7,0.8-4.1,0.9c-0.8,0.1-1.7-0.1-2.5-0.2c-0.6-0.1-1-0.6-1-1.2c0-0.5,0.4-1,1.1-1.1c0.5-0.1,1.1-0.1,1.6-0.1
			c0.5,0,0.9-0.2,1.1-0.8c0.1-0.2,0.2-0.3,0.2-0.5c1.9-5.8,3.6-11.6,5.5-17.4c0.5-1.8,0.1-3.2-0.8-4.7c-0.1-0.2-0.2-0.3-0.3-0.5
			c-0.3-0.6-0.2-1.2,0.2-1.5c0.4-0.4,0.9-0.4,1.5,0c0.2,0.2,0.3,0.3,0.5,0.5c0.2,0.2,0.2,0.4,0.4,0.6c0.5-0.5,0.6-1,0.8-1.5
			c2.2-7.2,4.5-14.3,6.7-21.5c0.5-1.5,0.5-1.5-1.1-1.5c-0.5,0-0.9,0-1.3-0.1c-0.6-0.2-1-0.7-1-1.2c0-0.5,0.4-1,1.1-1.1
			c1.3-0.1,2.6-0.1,3.9,0.2c0.5,0.1,1.1,0.2,1.6,0.3c1.9,0.7,3.9,0.5,5.8,0c1.4-0.4,2.8-0.6,4.2-0.5c1.2,0.1,1.9,0.5,1.9,1.3
			c0,0.8-0.6,1.3-1.9,1.3c-2.2,0-1.9,0.2-1.5,1.9c2.5,10.8,4.9,21.6,7.4,32.4c0.9,4,1.9,8,2.8,12c0.2,1.1,0.8,1.5,1.8,1.7
			c0.7,0.2,1.4,0.2,2.1,0.3c0.5,0.1,1,0.2,1.3,0.7L268.1,466.1z M241.6,442.7c2.2-7,4.5-14,6.7-21.1c0.3-0.9,0.6-1.9,0.7-2.9
			c0.1-0.8,0-0.9-0.8-0.8c-1.2,0.2-2.3,0.2-3.5-0.2c-1.2-0.3-1.3-0.2-1.6,0.9c-0.5,2-1,4-1.6,6c-1.6,5.2-3.2,10.3-4.9,15.5
			c-0.2,0.5-0.4,0.9-0.2,1.6c0.9-0.2,1.8-0.3,2.6,0.1c0.8,0.4,1.2,1.2,1.9,1.7C241.5,443.4,241.5,443,241.6,442.7L241.6,442.7z
			 M240.7,435.6c0.8,0,1.3,0.6,1.3,1.4c0,0.8-0.8,1.6-1.6,1.5c-0.8-0.1-1.3-0.8-1.2-1.5C239.3,436.1,239.9,435.4,240.7,435.6
			L240.7,435.6z M255.2,446.3c0.8,0,0.9-0.2,0.8-0.9c-0.1-0.2-0.2-0.5-0.2-0.7c-1.2-5.4-2.5-10.8-3.7-16.2c-0.4-1.6-0.8-3.2-1.2-5
			c-0.5,0.3-0.5,0.7-0.5,1c-1.6,4.9-3.2,9.9-4.9,14.8c-0.6,1.9-1.2,3.9-1.9,5.9c-0.3,0.9-0.2,1.1,0.7,1.1
			C248,446.2,251.6,446.2,255.2,446.3L255.2,446.3z"/>
		<path class="st0" d="M305.2,418.9c-0.2,0.9-0.3,1.8-0.5,2.6c-0.3,1.4-0.6,2.8-0.2,4.2c0,0.2,0,0.3,0,0.5c0,0.7-0.3,1.2-0.9,1.3
			c-0.6,0.2-1.2-0.1-1.5-0.7c-0.5-0.9-0.7-1.9-0.5-2.9c0.2-1.1-0.2-1.9-0.8-2.6c-1.5-1.7-3.3-3.1-5.6-3.9c-1.2-0.4-2.1-0.2-2.9,0.6
			c-1.6,1.6-2.7,3.5-3.6,5.6c-1.7,4-2.7,8.3-3.3,12.6c-0.7,4.6-0.7,9.3-0.5,13.9c0.2,3.8,0.8,7.5,2.3,11c0.5,1.3,1.2,2.5,2.2,3.5
			c0.6,0.6,1.4,0.8,2.2,1c1.9,0.4,3.4-0.5,4.9-1.5c2.5-1.6,4.2-3.9,5.8-6.4c0.2-0.3,0.4-0.7,0.6-1c0.5-0.5,1.2-0.5,1.7-0.2
			c0.5,0.4,0.7,0.9,0.5,1.5c-0.1,0.2-0.2,0.3-0.2,0.5c-2.1,3.8-4.8,7-8.7,8.9c-5,2.5-9.7,1.9-14.1-1.5c-2.9-2.2-4.7-5.1-6.2-8.3
			c-1.5-3.3-2.2-6.8-2.7-10.3c-0.2-1.8-0.9-3.4-2.1-4.8c-0.1-0.2-0.2-0.3-0.3-0.5c-0.4-0.5-0.5-0.9-0.1-1.4c0.3-0.5,0.8-0.6,1.2-0.5
			c0.3,0.1,0.6,0.2,1.1,0.5c0.2-2.9,0.6-5.6,1.3-8.2c1.4-5.2,3.6-9.9,7.5-13.7c1.2-1.2,2.5-2.2,4-2.9c5.1-2.8,10.8-2.1,15.1,1.9
			c0.4,0.4,0.8,0.8,1.2,1.2c0.5-0.5,0.5-1.2,0.4-1.8c-0.1-0.4-0.2-0.8-0.3-1.2c-0.1-0.7,0.2-1.2,0.8-1.4c0.5-0.2,1.1,0,1.4,0.5
			c0.2,0.2,0.2,0.5,0.3,0.8c0.2,0.9,0.3,1.9,0.2,2.8L305.2,418.9z M285.2,425.2c0.9-2.6,2.2-5.1,3.9-7.6c-0.6-0.2-1,0.1-1.4,0.2
			c-1.7,0.8-3.2,1.9-4.4,3.3c-2.5,2.6-4.2,5.7-5.4,9c-1.5,4-2.1,8.2-2.2,12.4c0,0.8,0.2,0.9,0.9,0.7c1.6-0.5,3.2-0.5,4.7,0.2
			c0.7,0.3,0.8,0.2,0.8-0.6c0-1.5,0.2-3.1,0.3-4.6C282.9,433.9,283.8,429.5,285.2,425.2L285.2,425.2z M280.1,439
			c0,0.9-0.5,1.6-1.3,1.6c-0.8,0-1.4-0.8-1.4-1.7c0-0.8,0.5-1.4,1.2-1.4C279.5,437.5,280.1,438.1,280.1,439z"/>
		<path class="st0" d="M343.3,421.8c0.2,0.4,0.2,0.8,0.2,1.3c-0.1,0.5-0.4,0.8-0.9,1c-0.5,0.2-0.9,0-1.2-0.4
			c-0.3-0.4-0.4-0.8-0.5-1.3c-0.5-1.8-1.7-3-3.5-3.6c-2.3-0.8-4.7-0.9-7.1-0.7c-1.2,0.1-2.3,0.2-3.5,0.4c-0.9,0.2-0.9,0.2-1,1.2
			c-0.2,6.3-0.2,12.6-0.2,19c0,0.3,0,0.6,0,0.9c0.1,0.9,0.2,1,1,0.6c1.8-0.7,3.6-1.1,5.6-0.7c1.1,0.2,2.1,0.7,2.9,1.5
			c0.5-0.5,0.5-1,0.4-1.5c0-0.3-0.1-0.6-0.1-0.9c0-0.7,0.3-1.2,0.8-1.3c0.5-0.2,1.1,0.1,1.4,0.7c0.5,1.1,0.5,2.2,0.3,3.3
			c-0.2,1.2-0.7,2.2-1.2,3.3c-0.4,0.8-0.6,1.5-0.5,2.5c0,0.2,0,0.3,0,0.5c-0.1,0.6-0.5,1-1.1,1.1c-0.6,0.1-1-0.2-1.3-0.7
			c-0.2-0.4-0.3-0.8-0.3-1.2c0-0.6,0.2-1.2,0.2-1.9c0.2-1.5-0.5-2.5-1.9-2.9c-2.2-0.6-4.2,0.1-5.9,1.4c-0.5,0.4-0.5,0.9-0.5,1.5
			c0,2.7,0,5.4,0,8.1c-0.1,3.8,0.1,7.6-0.2,11.3c-0.1,0.8,0.2,1,0.8,1.2c2.3,0.5,4.6,0.6,6.9,0.4c1.1-0.2,2.2-0.4,3.2-0.7
			c1.2-0.4,2.2-0.9,2.9-2c0.2-0.2,0.3-0.3,0.5-0.5c0.5-0.4,0.9-0.5,1.5-0.2c0.5,0.3,0.7,0.8,0.5,1.5c-0.2,0.5-0.5,0.9-0.8,1.3
			c-1,1.2-2.2,1.9-3.6,2.3c-3.7,1.2-7.5,1.3-11.3,0.5c-1.5-0.3-3-0.7-4.6-0.9c-2.9-0.4-5.6-0.2-8.3,1.2c-1,0.5-1.6,0.5-2-0.2
			c-0.4-0.6-0.2-1.4,0.8-1.8c1.7-0.7,2.2-1.8,2.2-3.5c0-2,0.1-4,0.1-6c0.1-3.2,0.1-6.3,0.3-9.5c0.1-1.6-0.5-3-1.3-4.3
			c-0.2-0.4-0.6-0.6-1-0.8c-0.8-0.6-1.1-1.2-0.7-1.8c0.4-0.6,1-0.7,2-0.2c0.2,0.2,0.5,0.4,0.9,0.4c0.1-1.9,0.2-3.8,0.2-5.6
			c0.1-2.9,0.1-5.9,0.2-8.8c0-1.8,0.1-3.5,0.1-5.3c0-1.2,0-1.2-1.2-1.5c-0.8-0.2-1.5-0.5-2.2-0.9c-0.6-0.4-0.8-1-0.5-1.5
			c0.3-0.5,0.8-0.8,1.5-0.5c3.4,1.4,6.9,0.9,10.3,0.5c2.2-0.3,4.5-0.7,6.7-1c3.1-0.4,6.1-0.2,9,0.9c2.5,1,4.1,2.9,4.9,5.5V421.8z
			 M322.7,420.1c0.1-0.8-0.1-1-1-1c-1.1,0.1-2.2,0.3-3.3,0.3c-1,0-1.2,0.2-1.2,1.2c0,1.5-0.1,2.9-0.1,4.4c-0.2,4.9,0,9.8-0.3,14.7
			c0,0.6,0,1.2,0,1.9c0,1.1,0.1,1.2,1.1,0.8c1.2-0.5,2.3-0.8,3.6-0.3c0.8,0.3,0.9,0.2,1-0.7c0.1-0.9,0.1-1.9,0.1-2.8
			c0.1-6.1-0.1-12.2,0.2-18.3L322.7,420.1z M319.8,436c0.6,0,1.1,0.5,1.1,1.2c0,0.8-0.6,1.5-1.3,1.5c-0.6,0-1.2-0.6-1.2-1.2
			C318.3,436.7,319.1,436,319.8,436L319.8,436z"/>
	</g>
</g>
</svg>
