<?xml version="1.0" encoding="utf-8"?>
<!-- Generator: Adobe Illustrator 22.0.0, SVG Export Plug-In . SVG Version: 6.00 Build 0)  -->
<svg version="1.1" id="Layer_1" xmlns="http://www.w3.org/2000/svg" xmlns:xlink="http://www.w3.org/1999/xlink" x="0px" y="0px"
	 viewBox="0 0 500 500" style="enable-background:new 0 0 500 500;" xml:space="preserve">
<style type="text/css">
	.st0{fill:#0C0C0C;}
</style>
<g>
	<path class="st0" d="M451.5,243.9c-2.3-5.2-6.4-8.7-12.5-10.6c-6-1.9-12.7-2.3-20-1.1c-7.3,1.1-13.8,3.5-19.7,7.2
		c-6.2,4.2-11.7,9.8-16.3,16.7c-4.7,7-7.2,13.6-7.6,20c0,4,0.4,7.8,1.2,11.6c-9.6,13.1-18.6,25.2-26.9,36.2
		c-8.7,11.5-15.5,20-20.4,25.6c-1.8,2-4.2,4.3-7.2,6.9c-3,2.6-5.8,4.3-8.4,5c-2.5,0.8-4.1-0.6-4.6-4c-0.3-2.8,0.7-6.5,2.8-11.2
		c2.2-4.7,4.6-9.5,7.4-14.4c15.8-28.3,31.7-56.5,47.7-84.6c3-5.6,6.1-11.1,9.3-16.7c6.2,1.3,11.8,1.9,16.6,1.9
		c4.9,0,8.7-1.1,11.5-3.4c2-1.8,3.7-4,5.1-6.7c1.4-2.7,2.5-5.4,3.2-7.9c0.8-2.5,1.1-4.4,1.1-5.5c-9,1.6-17.9,2.3-26.6,2.1
		c1.9-3.4,3.8-6.8,5.7-10.3c3.9-7,7.8-13.9,11.6-20.7c3.7-6,4.8-11.3,3.4-16.1c-1.4-4.8-4.1-8.8-8.1-12.1c-4-3.3-8.3-5.8-12.9-7.4
		c-4.6-1.6-8.4-2.3-11.3-1.9c-6.3,21.7-15.1,43.3-26.4,64.8c-3.8-0.5-7.2-0.8-10.2-1c-3-0.1-5.2-0.1-6.6,0c-3.9,1-7,3.3-9.1,6.9
		c-2.2,3.6-3.4,7.2-3.8,10.7c6.3-1.3,13.4-1.3,21.1-0.2c-0.3,0.4-0.6,0.8-1,1.3c-0.3,0.5-0.5,1-0.8,1.5
		c-8.9,15.6-18.2,31.7-27.9,48.3c-5.7,9.6-11.2,19-16.6,28.3c-5.4,7.2-10.5,14.2-15.5,20.7c-8.7,11.5-15.5,20-20.4,25.6
		c-1.9,2-4.3,4.3-7.3,6.9c-3,2.6-5.7,4.3-8.3,5c-2.5,0.8-4.1-0.6-4.6-4c-0.3-3.4,0.9-7.9,3.3-13.6c2.5-5.6,5.5-11.5,9-17.6
		c3.5-6.1,6.8-11.5,9.7-16.2c1.4-2.2,2.5-4,3.4-5.5c0.5-0.8,0.9-1.5,1.1-2.1c2.5-5.3,2.6-10,0.1-14.2c-2.5-4.1-6.1-7.3-10.7-9.5
		c-4.7-2.2-9.1-3.1-13.1-2.6c-2,3.8-4.1,7.7-6.3,11.6c-4.9,8-10.9,16.2-17.9,24.7c-7,8.5-13.9,16.1-20.7,22.7
		c-6.8,6.7-12.5,11.2-16.8,13.8c-4.4,2.5-6.4,1.8-6.2-2.3c1.3-8.7,4.9-18.2,10.9-28.2c6-10.1,13.4-19.5,22-28.4
		c8.7-8.9,17.6-15.9,26.7-21c9.1-5.1,17.4-7.2,24.9-6.3c7.5,1,13,6.2,16.5,15.9c4.1-4.7,7.8-9.6,11.2-14.8
		c3.4-5.2,5.8-10.2,7.1-15.1c1.3-4.9,1-9.2-1-12.8c-2-3.7-6.4-6.3-13.2-7.8c-12.5-2.7-25.3-2.1-38.1,1.7
		c-12.9,3.8-25.2,9.9-37.1,18.2c-11.8,8.3-22.3,18-31.4,29.2c-6.4,7.9-11.7,16-16,24.3c-3.8,4.4-8.5,9.6-14.2,15.4
		c-9,9.3-18.1,17.4-27.4,24.5c-12.8,9.1-23.7,14.6-32.8,16.3c-9.1,1.8-15.7,0.6-20.1-3.4c-4.3-4.1-5.7-10.4-4.1-19
		c1.6-8.6,6.6-18.8,14.9-30.4c7.6-10.5,16.3-19.6,25.9-27.3c9.7-7.7,19.2-12.5,28.4-14.5c3.8-0.6,5.7,0.5,5.7,3.3
		c0,2.9-1.6,6.4-4.9,10.7c-3.3,4.3-7.8,8.4-13.5,12.4c7.1,4.2,13.9,5.1,20.5,2.8c6.6-2.3,12.5-6.7,17.6-12.9
		c5.1-6.3,9-13.1,11.7-20.5c2.7-7.4,3.6-14,2.8-19.9c-0.8-5.8-4-9.4-9.6-10.8c-12.4-2.7-25-2.2-37.8,1.3c-12.8,3.5-25,9.3-36.6,17.3
		c-11.6,8-21.8,17.4-30.7,28.1C43.5,285.6,36.7,297,32,309c-4.7,12-6.5,23.7-5.5,35.1c1,8.2,4.4,14.6,10.2,19.1
		c5.8,4.5,12.6,7.5,20.5,9.1c7.9,1.6,15.6,2,23.1,1.2c2.9-0.8,5.8-1.5,8.6-2.3c9.9-2.8,19.9-8.2,29.9-16.2
		c9.9-7.9,19.3-16.7,28-26.6c-1.2,6.5-1.6,12.9-1.1,19.2c0.5,3.9,1.9,7.4,4.2,10.5c2.3,3.1,5,5.9,8.3,8.3c3.2,2.4,6.3,4.5,9.2,6.3
		c2.7,1.5,6.1,1.1,10.2-1.3c4.1-2.4,8.8-6.1,14-11.1c5.2-5,10.4-10.7,15.6-17v0.2c-0.3,0.9-0.5,1.8-0.8,2.7
		c-1.3,6-0.9,10.5,1.1,13.7c2,3.2,4.7,5.7,8,7.6c1,0.6,2.1,1.3,3.2,1.9l0.6,0.6c6.3,3.5,13,4.7,19.9,3.5c6.9-1.2,13.4-4.5,19.5-9.8
		c4.1-3.9,9.4-9.8,15.7-17.5c-0.4,4.1,0,7.6,1.3,10.4c1.4,3.1,3.4,5.7,6,7.7c2.6,2,5.2,3.8,7.9,5.3c0.1,0.1,0.3,0.3,0.6,0.4
		c6.2,3.5,12.8,4.7,19.8,3.5c7-1.2,13.4-4.5,19.4-9.8c2.9-2.7,6.2-6.3,10.1-10.8c0.5,4.1,2,7.8,4.4,11.1c4.4,5.9,11.1,9.5,20.2,10.8
		s20-0.8,32.5-6.4c8.1-3.8,14.9-9.2,20.2-16.3c5.4-7.1,8.6-15.4,9.8-24.9c0.4-4.7-0.2-10.2-1.8-16.4c-1.6-6.3-3.4-12.8-5.4-19.5
		c-2-5.8-3.7-11.4-5.1-16.8c-1.4-5.4-2.1-10.2-2.1-14.4c0-4.2,1.1-7.4,3.2-9.6c3-2.5,6.4-3.6,10.2-3.1c3.7,0.4,6.8,2.2,9.3,5.1
		c2.5,3,3.2,7,2.2,12.1c6.6-1.3,11.1-3.9,13.5-8C452.8,252.4,453.2,248.2,451.5,243.9z M382.8,346.2c-2.7,4.4-6.1,7.6-10.3,9.7
		c-4.1,2.1-8.1,2.9-11.9,2.4c-6.3-0.9-9.5-4.7-9.6-11.5c0-4.2,1.3-8.9,4.1-14.1c8-10.5,16.2-21.8,24.7-33.7c0.6,1.8,1.1,3.7,1.8,5.5
		c1.6,4.2,3,8.4,4.1,12.6c1.1,4.2,1.6,8.5,1.6,12.8C387,336.4,385.5,341.8,382.8,346.2z"/>
	<g>
		<g>
			<path class="st0" d="M19,105c3.9-2.5,7.8-4.9,11.8-7.2c11.7,19.8,23.4,39.6,35.1,59.5c-3.3,2-6.6,4-9.9,6.1
				C43.7,143.8,31.3,124.4,19,105z"/>
		</g>
		<g>
			<path class="st0" d="M84.6,137.6c0.3-0.2,0.6-0.3,1-0.5c2.8-1.3,4.8-2.6,6-3.9c1.2-1.3,1.7-3.1,1.5-5.3c-0.1-1.3-0.3-2.5-0.7-3.7
				c-0.4-1.2-0.8-2.5-1.3-3.7c-0.7-2-1.5-3.9-2.4-5.9c-0.8-1.9-1.7-3.8-2.6-5.8c-4.9-10.8-9.8-21.5-14.7-32.3
				c4.1-1.9,8.3-3.7,12.5-5.5C88.5,82,93,92.9,97.6,103.8c1.1,2.5,2.1,5,3.1,7.5c1,2.4,1.9,4.9,2.6,7.6c0.8,2.7,1.3,5.2,1.5,7.6
				c0.2,2.4-0.2,4.6-1.1,6.8c-0.9,2.2-2.5,4.2-4.7,6.3c-2.2,2-5.3,4-9.3,6c-0.3,0.2-0.6,0.3-0.9,0.5C87.3,143.1,86,140.4,84.6,137.6
				z"/>
		</g>
		<g>
			<path class="st0" d="M106,62.6c3.8,10.8,7.7,21.7,11.5,32.5c0.6,1.8,1.3,3.6,1.9,5.3c0.6,1.7,1.3,3.5,2.1,5.2
				c0.3,0.6,0.6,1.3,0.9,2c0.3,0.7,0.7,1.5,1.1,2.2c0.6,1.2,1.3,2.3,2,3.4c0.8,1,1.7,1.9,2.7,2.6c1,0.7,2.2,1.1,3.5,1.3
				c1.3,0.2,2.8,0,4.4-0.5c1.6-0.5,2.9-1.2,3.8-2.2c0.9-0.9,1.6-1.9,2.1-3.1c0.4-1.1,0.7-2.3,0.7-3.7c0-1.3-0.1-2.6-0.3-4
				c-0.1-0.9-0.2-1.7-0.4-2.4c-0.2-0.8-0.3-1.5-0.5-2.1c-0.4-1.9-0.9-3.7-1.4-5.4c-0.5-1.8-1-3.6-1.6-5.4c-3.2-11-6.5-22-9.7-33.1
				c4.3-1.3,8.6-2.5,13-3.6c2.9,11.1,5.8,22.2,8.7,33.4c0.7,2.7,1.4,5.3,2,7.9c0.6,2.6,1.2,5.3,1.6,8c0.3,2.4,0.5,4.7,0.4,7.1
				c0,2.4-0.5,4.6-1.5,6.8c-0.9,2.1-2.5,4.1-4.7,5.9c-2.2,1.8-5.3,3.3-9.4,4.7c-4,1.3-7.4,1.9-10.3,1.7c-2.9-0.2-5.3-0.8-7.3-2
				c-2-1.2-3.7-2.7-5.1-4.6c-1.4-1.9-2.7-3.9-3.8-6c-1.3-2.4-2.5-4.9-3.5-7.4c-1-2.5-2-5-3-7.6c-4.2-10.7-8.4-21.4-12.6-32.1
				C97.5,65.7,101.7,64.1,106,62.6z"/>
		</g>
		<g>
			<path class="st0" d="M167.7,102.4c0.5,0.3,1,0.7,1.4,1c1.1,0.7,2.5,1.3,4.2,1.8c1.7,0.5,3.3,0.6,4.7,0.3c1.5-0.3,2.8-0.8,3.8-1.6
				c1-0.8,1.8-1.6,2.3-2.6c0.5-1,0.9-2.1,1.1-3.2c0.2-1.2,0.1-2.3,0-3.3c-0.2-1-0.7-1.9-1.5-2.9c-0.8-1-2-2-3.3-3.1
				c-1.4-1-2.9-2-4.6-3.1c-1.7-1-3.5-2.1-5.4-3.2c-1.8-1.1-3.7-2.2-5.5-3.3c-1.8-1.1-3.6-2.3-5.2-3.6c-1.6-1.3-3-2.6-4.1-4.1
				c-1.1-1.4-1.9-3-2.3-4.7c-0.5-2.1-0.6-4.3-0.3-6.7c0.3-2.3,1.2-4.6,2.6-6.7c1.4-2.1,3.5-4.1,6.2-5.8c2.7-1.7,6.2-3,10.4-3.8
				c6.4-1.2,12-0.5,16.6,1.9c0.1,0.1,0.3,0.2,0.4,0.2c-1.3,3.4-2.6,6.8-3.9,10.3c-0.5-0.4-1-0.7-1.5-1.1c-1.2-0.7-2.7-1.4-4.6-1.9
				c-1.9-0.5-3.7-0.7-5.3-0.4c-1.7,0.3-3.2,0.9-4.3,1.7c-1.2,0.8-2,1.7-2.6,2.7c-0.6,1-1,2.1-1.2,3.3c-0.2,1.1-0.1,2.3,0.1,3.4
				c0.2,1,0.8,1.9,1.7,2.8c0.9,0.9,2.1,1.9,3.6,2.8c1.5,1,3.1,2,4.8,3c1.8,1,3.5,2,5.3,3.1c1.8,1.1,3.6,2.2,5.4,3.5
				c1.8,1.2,3.4,2.6,4.9,4c1.5,1.4,2.7,2.9,3.6,4.5c1,1.6,1.6,3.4,1.9,5.3c0.3,2.1,0.2,4.4-0.2,6.6c-0.4,2.3-1.3,4.4-2.7,6.4
				c-1.3,2-3.2,3.8-5.5,5.3c-2.3,1.5-5.2,2.6-8.7,3.3c-5.3,1.1-10,0.6-14.3-1.6c-0.1-0.1-0.2-0.1-0.4-0.2
				C166,109.3,166.8,105.9,167.7,102.4z"/>
		</g>
		<g>
			<path class="st0" d="M212.3,48.5c-5.6,0.5-11.1,1.1-16.7,1.9c-0.4-3-0.8-6.1-1.2-9.1c15.8-2.1,31.6-3.3,47.5-3.6
				c0.1,3.1,0.1,6.1,0.2,9.2c-5.6,0.1-11.2,0.3-16.8,0.7c1.2,19.9,2.4,39.9,3.6,59.8c-3.7,0.2-7.5,0.5-11.2,0.9
				C215.9,88.3,214.1,68.4,212.3,48.5z"/>
		</g>
		<g>
			<path class="st0" d="M268.9,37.9c4.4,0.2,8.9,0.4,13.3,0.8c1,16.2,1.7,32.3,2.2,48.5c3.8-15.8,7.9-31.5,12.4-47.2
				c3.1,0.3,6.3,0.7,9.4,1.1c0.6,16.2,1,32.5,1,48.7c4.2-15.6,8.7-31.1,13.3-46.6c4.4,0.7,8.8,1.5,13.2,2.4
				c-7.4,22-14.4,44.1-20.8,66.4c-5-0.9-10-1.6-15-2.3c0-12.1-0.1-24.2-0.3-36.3c-3,11.7-5.9,23.4-8.7,35.2
				c-5-0.5-10.1-0.9-15.1-1.3C272.7,84.2,271,61.1,268.9,37.9z"/>
		</g>
		<g>
			<path class="st0" d="M346.9,48.3c6.5,1.5,12.9,3.1,19.4,4.9c-1.8,23.4-4.2,46.7-7.4,69.8c-3.6-1.1-7.3-2.2-11-3.2
				c0.4-2.9,0.7-5.8,1.1-8.7c-4.7-1.3-9.4-2.5-14.1-3.5c-1.1,2.7-2.2,5.4-3.3,8.1c-3.7-0.8-7.3-1.6-11-2.3
				C328.7,91.5,337.5,69.8,346.9,48.3z M350.1,101.8c1.4-13,2.6-26,3.5-39c-5.3,11.9-10.3,24-15.2,36
				C342.3,99.7,346.2,100.7,350.1,101.8z"/>
		</g>
		<g>
			<path class="st0" d="M388.2,59.9c4.1,1.4,8.1,2.8,12.2,4.3c4.2,6.8,8.2,13.6,11.9,20.5c1.9-4.5,3.8-9.1,5.7-13.6
				c4.1,1.7,8.3,3.5,12.4,5.4c-9.5,20.9-19.1,41.9-28.6,62.8c-3.4-1.6-6.9-3.1-10.4-4.5c5.3-12.6,10.5-25.2,15.8-37.8
				c-3.4-6.6-7.1-13.2-11-19.7c-6.4,17.3-12.8,34.6-19.1,51.8c-3.6-1.3-7.1-2.6-10.7-3.8C373.6,103.5,380.9,81.7,388.2,59.9z"/>
		</g>
		<g>
			<path class="st0" d="M451.4,97.1c-5.1-2.7-10.2-5.3-15.3-7.8c1.3-2.7,2.7-5.5,4-8.2c14.6,7.1,29,15.1,42.9,23.9
				c-1.6,2.6-3.3,5.2-4.9,7.7c-4.9-3.1-9.9-6.1-14.9-9c-10,17.3-20,34.6-30,51.8c-3.3-1.9-6.7-3.8-10.1-5.6
				C432.6,132.3,442,114.7,451.4,97.1z"/>
		</g>
	</g>
	<g>
		<path class="st0" d="M156.7,156.8c-1-0.7-2.1,4.7-1.6,8.3c0.3,2,0.4,2.4,1.2,2.5c1.4,0.2,1.6,0.5,1.4,2.4l-0.2,1.4l1.1,1.6
			c1.3,1.8,2.2,2.8,2.8,2.9c0.7,0.2,0.6,0.7-0.2,1.3c-0.9,0.6-2,0.7-3.4,0c-0.3-0.2-0.5-0.2-0.4-0.1c0,0.1,0.1,0.6,0.1,1
			c0.3,3.7,1.2,8.5,1.9,10.3c0.1,0.4,0.9,1.5,1.1,1.5c0.1,0,0.2-0.3,0.4-0.7C165.5,180.1,162.9,160.3,156.7,156.8z"/>
		<path class="st0" d="M198.4,144.2c-0.1-0.5-0.6,0-1.5,1.9c-1.8,3.5-4.9,14.4-4.3,14.8c0.3,0.1,0.3,0.2,0.2,1.7
			c-0.4,6.9,1,13.2,3,14.3c0.4,0.1,0.7-0.3,1.2-2.2c1.6-6.2,2.8-18.1,2.4-24.3C199.4,148.2,198.9,145.3,198.4,144.2z"/>
		<path class="st0" d="M93.4,181c-2.3,0.2-4,3.1-3.8,6.5c0.2,3.4,2.2,6,4.6,5.8c2.2-0.2,3.9-3.1,3.7-6.5
			C97.6,183.4,95.6,180.8,93.4,181z"/>
		<path class="st0" d="M218.3,171.6c2.5-2.1,3.6-7.8,2.6-12.6c-0.3-1.4-1-3-1.2-2.9c-1.1,0.1-4,11.9-3.3,13.6
			C217,171.6,217.6,172.1,218.3,171.6z"/>
		<path class="st0" d="M103.1,170.8c-0.5-0.2-0.9,0.5-0.4,0.9c1.5,1.7,2.4,4.2,3.8,6.1c1.8,3.1,3.7,4.5,3.3,8.7
			c-0.5,5.3-3.8,9.5-5,14.4c-0.3,0.7,0.4,1.6,1,1.1c4-4,7.6-10.7,8.5-16.9C115.2,177.9,107.3,172.8,103.1,170.8z"/>
		<path class="st0" d="M343.5,165c-2.3,0.2-4,3.1-3.8,6.5c0.2,3.4,2.2,6,4.6,5.8c2.2-0.2,3.9-3.1,3.7-6.5
			C347.7,167.5,345.7,164.9,343.5,165z"/>
		<path class="st0" d="M335.3,194.3c-1.5-1.9-2.9-3.4-4-5.9c-1.1-2.4-2-4.9-2.8-7.3c-1.4-4.2-2.7-8.7-5.1-12.2c2.4-4.8,5-9.8,6.9-15
			c0.8-2.8,1.5-5.6,2.5-8c1.1-2.6,2.5-4.6,3.9-7c0.6-0.7,0-2.1-0.9-1.8c0,0-0.2,0-0.2-0.2c-7-2.4-14.5-3-21.8-3.5
			c-51.6-6.7-105.6-0.8-145.6,6.5c-3.1,0.2-6.4,0.7-9.6,1.4c-2.5,0.4-4.9,0.8-7.6,1.3c-7.7,1.5-15.4,3.1-23.1,4.8
			c-7.2,1.7-14.9,3.2-21.8,6.8l-0.1,0.2c-0.9-0.2-1.3,1.3-0.7,1.9c1.7,1.9,3.3,3.6,4.7,6c1.2,2.4,2.2,5.1,3.4,7.7
			c2.3,5.1,5.6,9.4,8.5,14c-2,3.6-2.8,8.2-3.6,12.7c-0.6,2.6-1.1,5.1-1.9,7.7c-0.9,2.6-2.1,4.3-3.3,6.4c-0.1,0.2-0.1,0.7-0.1,1.2
			c-0.4,0.7-0.1,1.6,0.7,1.5c0,0,16.9-4.5,42.7-9.3c7.6-1.5,15.9-2.9,24.9-4.3c42.5-6.6,97.8-11.4,144.2-3.2
			c3.1,0.2,6.3,0.4,9.2,0.2c0.8-0.1,1-1,0.5-1.6C335.5,195,335.5,194.5,335.3,194.3z M163.6,190.5c-1.4,2.1-4.2,3.8-6.2,3.7
			c-1.3-0.1-3-1.4-4-3c-0.6-1-1.1-2.6-1.6-4.6c-0.8,6.5-2.9,9.4-6.8,9.3c-3,0-5.3-2.5-7.2-7.4c-2.2-5.7-3.6-16.4-3.5-24.9
			c0-0.6,0-1.1,0-1.1c-0.1,0-1,0.4-3.1,1.2c-1.9,0.8-2.4,0.8-2.8-0.1c-0.6-1.3-0.4-1.9,1-2.5c0.4-0.2,4.4-1.4,5-1.5
			c0.2,0,0.2-0.2,0.3-0.5c0.2-2.5,1.4-3.8,3.6-3.9c1.6,0,2.5,0.5,2.9,1.9l0.2,0.8l1.4-0.3c1.7-0.4,4.2-0.9,4.7-0.8
			c0.8,0.1,1.1,1.6,0.4,1.7c-1.3,0.3-6.3,1.8-6.3,1.8c0,0.1,0,0.8,0,1.8c0.1,0.9,0.1,2.4,0.1,3.3c-0.1,15.1,1.6,25.7,4.5,28.2
			c1.8,1.5,4.4-4.6,5-10.8c-0.6-3.4-0.9-7.2-0.9-10.2c0-1.2,0.4-2.1,1.3-2.8c0.3-0.3,0.3-0.3,0-1.7c-1.1-7.5,1.5-13.4,6-14
			c3.9-0.4,6.1,3.1,7.9,12.9C167.1,176.3,166.3,186.4,163.6,190.5z M205.5,165.2c-1.6,7.7-3.7,11.7-7.1,13.4c-2.8,1.4-5,1.1-6.4-1
			l-0.3-0.5l0.1,1.2c0.2,1.7,0.6,5.9,0.9,7.8c0.2,2.2,0.3,4.7,0.2,5.2c-0.3,0.7-1.6,1.3-2.4,1.2c-0.6-0.1-0.8-0.2-1.9-2.1
			c-4.3-6.9-6.5-30.6-4-43.7c0.5-2.7,2.2-3.9,4.9-3.7c2.2,0.1,2.4,1.3,2,9.5c-0.1,1.4,0,1.3,0.6-0.3c2.9-9.3,4-11.1,6.9-11.7
			C205.3,139.4,208.4,151,205.5,165.2z M224.4,179c-1,6.2-3.9,9.3-8,8.5c-4.6-0.8-7.4-7.5-7-17c0.4-9.7,4.1-17,8.9-17.4
			c4-0.3,5,1.2,5,7.8c-0.1,8.7-2.4,12.9-6.9,12.6l-0.5,0l0,1.6c0.1,5.2,1,8.5,2.8,10c1.5,1.3,3.6-1.5,4.9-6.5
			C223.9,176.9,224.7,177.2,224.4,179z M243.2,170.9c-0.1,0.4-0.3,1.3-0.4,2.2c-1.5,9.7-4,13.4-8.7,12.5c-3-0.5-5-3.3-6.3-8.5
			c-1.4-6-1.6-16.8-0.5-25.2c0.1-0.6,0.1-1.1,0.1-1.1c0,0-1.1,0.2-3.3,0.7c-2,0.5-2.5,0.4-2.8-0.5c-0.4-1.4-0.1-2,1.2-2.4
			c0.4-0.1,4.5-0.7,5.2-0.7c0.2,0,0.2-0.1,0.3-0.4c0.5-2.5,1.9-3.6,4-3.3c1.6,0.3,2.4,0.9,2.6,2.4l0.2,0.8l1.4-0.1
			c1.7-0.1,4.3-0.2,4.8-0.1c0.8,0.2,0.9,1.7,0.2,1.8c-1.3,0.1-6.4,0.8-6.5,0.9c0,0.1-0.1,0.8-0.2,1.8c0,0.9-0.2,2.4-0.3,3.3
			c-1.9,14.9-1.5,25.7,1.1,28.6c1.8,2,5.8-5.5,6.7-12.4c0.1-0.6,0.2-1.6,0.3-2.1c0.1-0.5,0.2-0.9,0.2-1.1c0-0.5,0.5-0.4,0.7,0
			C243.4,168.2,243.4,170.1,243.2,170.9z M291.8,181.6c-0.8-0.2-1.5-0.5-2.6-1.7c-2.3-2.2-3.6-10-3.6-22.2c-0.1-4.4-0.1-5.7-0.3-5.4
			c-2.6,4.2-5.3,17.3-5.7,27c0,1.9-0.1,2.3-0.4,2.3c-0.1,0-0.1,0.1-0.2,0.3c-0.3,0.5-0.8,0.8-1.9,0.8c-1,0.1-1.2-0.2-2.9-2.8
			c-0.7-1-1.2-3.2-1.7-5.8c-1.5,7.2-4,10-8.1,9.3c-3-0.5-5-3.3-6.3-8.5c-1.4-6-1.6-16.8-0.5-25.2c0.1-0.6,0.1-1.1,0.1-1.1
			c-0.1,0-1.1,0.2-3.3,0.7c-2,0.5-2.5,0.4-2.8-0.5c-0.4-1.4-0.1-2,1.2-2.4c0.4-0.1,4.5-0.7,5.2-0.7c0.2,0,0.2-0.1,0.3-0.4
			c0.5-2.5,1.9-3.6,4-3.3c1.6,0.3,2.4,0.9,2.6,2.4l0.2,0.8l1.4-0.1c1.7-0.1,4.3-0.2,4.8-0.1c0.8,0.2,0.9,1.7,0.2,1.8
			c-1.3,0.1-6.4,0.8-6.5,0.9c0,0.1-0.1,0.8-0.2,1.8c0,0.9-0.2,2.4-0.3,3.3c-1.9,14.9-1.5,25.7,1.1,28.6c1.6,1.8,5.1-4.2,6.4-10.5
			c-0.8-6.6-0.9-15.2-0.1-20.9c1-7.5,1.8-9.1,3.9-9.1c2.8,0,3.2,0.9,2.8,5.7c-0.3,3.6-0.8,14.1-0.9,16.5c0,0.8,0,2.7,0.1,4.3
			l0.1,2.7l0.3-2c0.7-4.8,1.1-6.5,2.1-9.9c3-9.6,4.5-11.8,7.8-10.8c3.3,1,4.2,4.1,4.6,15.5c0.4,9.5,0.6,12,1.3,14
			c0.2,0.5,0.4,1.2,0.5,1.6c0.1,0.4,0.3,1,0.3,1.4C295.3,181,293.7,182,291.8,181.6z M310.9,172.3c-1,6.2-3.9,9.3-8,8.5
			c-4.6-0.8-7.4-7.5-7-17c0.4-9.7,4.1-17,8.9-17.4c4-0.3,5,1.2,5,7.8c-0.1,8.7-2.4,12.9-6.9,12.6l-0.5,0l0,1.6c0.1,5.2,1,8.5,2.8,10
			c1.5,1.3,3.6-1.5,4.9-6.5C310.4,170.2,311.2,170.5,310.9,172.3z"/>
		<path class="st0" d="M340.6,153.6c0.3-0.9-0.6-1.6-1-1.1c-2.5,3.2-4.9,6.3-7,9.9c-1.4,2.4-4.2,5.8-3.8,9c1,6.1,5.5,13.3,9.8,16.6
			c0.5,0.4,1.2-0.3,1-1c-1.7-5.1-4.3-9.5-5.7-14.7C332.2,167.1,338.7,157.9,340.6,153.6z"/>
		<path class="st0" d="M304.7,164.8c2.5-2.1,3.6-7.8,2.6-12.6c-0.3-1.4-1-3-1.2-2.9c-1.1,0.1-4,11.9-3.3,13.6
			C303.4,164.9,304,165.4,304.7,164.8z"/>
	</g>
	<g>
		<path class="st0" d="M37.1,235.2c0.2-2.4,0.2-4.8,0.7-7.1c1.4-6.9,4.2-13.2,8.4-18.7c1.2-1.6,2.7-3.1,4.2-4.4c2.3-2,5.1-2.4,8-1.5
			c1.5,0.5,2.9,1,4.2,1.8c7.5,4.5,13.6,10.5,17.4,18.5c0.8,1.8,1.2,3.9,1.2,5.9c0.1,2.8-1.8,4.9-4.6,5.2c-2,0.2-4.1,0.1-6.1-0.2
			c-2.9-0.5-5.8-1.2-8.7-2c-2.8-0.8-5.2-0.2-7.4,1.6c-1.7,1.4-3.5,2.7-5.2,4c-0.8,0.6-1.6,1.2-2.5,1.6
			C42.2,242.3,38.4,240.5,37.1,235.2z"/>
		<path class="st0" d="M70.8,186.1c0.2,3.4,0,6.5-1.6,9.4c-1.2,2.2-2.8,3.9-5.2,4.7c-4.1,1.5-8.4-0.9-9.8-5.4
			c-1.7-5.5,0.8-12.8,5.6-16c3-2,6.2-1.6,8.2,1.4C69.2,182,69.9,184.1,70.8,186.1z"/>
		<path class="st0" d="M32.2,193.1c-0.4-2.5-0.5-4.9,0.4-7.2c1-2.6,3.2-3.8,5.9-3.5c6.3,0.7,12.4,8.1,11.9,14.4
			c-0.5,5.9-5.9,9-11.2,6.4C35,201,33.1,197.3,32.2,193.1z"/>
		<path class="st0" d="M38.8,210.2c0.9,5.2-3.2,8.8-8.2,7.1c-4.5-1.5-8.1-7.6-7.3-12.3c0.4-2.5,2.1-3.8,4.7-3.8
			C32.6,201.2,38,205.6,38.8,210.2z"/>
		<path class="st0" d="M84.4,196.4c0.4,3,0.3,5.5-0.7,7.9c-0.9,2-2.2,3.6-4.2,4.6c-3.4,1.6-7,0.1-8.3-3.3c-1.8-4.9,1.7-12,6.7-13.7
			c2.5-0.8,4.6,0,5.7,2.3C84,195,84.2,195.9,84.4,196.4z"/>
	</g>
	<g>
		<path class="st0" d="M419.4,197c1.2-1.2,2.3-2.5,3.6-3.6c3.9-3.1,8.4-5.3,13.3-6.4c1.4-0.3,2.9-0.4,4.3-0.5c2.2,0,3.9,1,5.1,2.9
			c0.6,0.9,1.1,1.9,1.5,3c2.1,6,2.7,12,1.1,18.2c-0.4,1.4-1.1,2.7-2,3.8c-1.3,1.6-3.2,1.8-4.9,0.7c-1.2-0.8-2.3-1.8-3.2-2.9
			c-1.4-1.6-2.6-3.4-3.9-5.1c-1.2-1.7-2.8-2.5-4.8-2.5c-1.6,0-3.1-0.1-4.7-0.2c-0.7,0-1.4-0.1-2.1-0.3
			C418.9,203.3,417.7,200.5,419.4,197z"/>
		<path class="st0" d="M460.5,185.5c-1.4,1.9-3,3.6-5.2,4.5c-1.6,0.7-3.3,0.9-5,0.2c-2.9-1.1-4.2-4.3-2.9-7.5
			c1.6-3.8,6.4-6.6,10.4-6.2c2.6,0.3,4.1,2,3.8,4.5C461.5,182.6,460.9,184,460.5,185.5z"/>
		<path class="st0" d="M436.1,171.7c0.9-1.6,2-3,3.5-3.8c1.7-0.9,3.5-0.6,4.9,0.8c3.1,3.3,3.1,10.1-0.1,13.4c-3,3.1-7.4,2.3-9.1-1.7
			C434,177.3,434.7,174.4,436.1,171.7z"/>
		<path class="st0" d="M431.8,184.1c-1.9,3.3-5.8,3.3-7.8,0.1c-1.8-2.9-1-7.9,1.7-10.1c1.4-1.2,2.9-1.1,4.4,0.1
			C432.6,176.3,433.5,181.2,431.8,184.1z"/>
		<path class="st0" d="M463.2,197.5c-1.1,1.8-2.4,3.2-4,4c-1.4,0.7-2.9,1-4.4,0.6c-2.6-0.7-3.9-3.1-3-5.6c1.3-3.5,6.5-5.8,10-4.5
			c1.8,0.7,2.5,2.1,2.1,3.9C463.6,196.5,463.4,197.1,463.2,197.5z"/>
	</g>
	<g>
		<path class="st0" d="M77.8,438.3c0.3-4.1,3.3-6,6.4-4.7c1.1,0.5,2.1,1.5,3.1,2.2c2.5,1.8,4.9,4,7.6,5.1
			c13.1,5.6,26.4,10.7,40.7,11.4c9.7,0.5,19.6-0.2,29.3-0.8c32.6-2,64.5-8.8,96.3-15.8c20.2-4.5,40.8-6.1,61.5-4.3
			c12.1,1,21.7,7,30.2,15.2c1,0.9,2.1,2.1,2.3,3.3c0.2,1.4,0,3.3-0.8,4.5c-1,1.6-3,1.6-4.7,0.7c-1-0.5-1.9-1.3-2.6-2
			c-8.2-8.5-18.2-12.9-30-13.6c-21.1-1.2-41.8,0.9-62.3,6c-24.7,6.1-49.6,11.5-74.9,14.3c-13.1,1.4-26.4,2.2-39.6,2.4
			c-18.5,0.4-36.1-4.4-52.7-12.5c-3.6-1.7-6.5-4.2-8.4-7.7C78.4,440.7,78.1,439.1,77.8,438.3z"/>
		<path class="st0" d="M86.1,397.3c0.8,0.5,2.2,1.4,3.5,2.4c2.7,1.8,5.1,4.2,8.1,5.4c15.2,6.4,30.7,11.9,47.5,11.7
			c10-0.1,20-0.5,29.8-1.7c17.2-2.1,34.4-4.8,51.5-7.6c11.4-1.9,22.7-4.5,34.1-6.9c21.5-4.7,43.3-6.8,65.3-4.9
			c12,1,21.5,7.1,29.8,15.4c2.9,2.9,3.3,5.8,1.3,7.7c-2,1.9-4.6,1.4-7.6-1.7c-8.2-8.4-18.1-12.7-29.8-13.4
			c-22.2-1.2-43.8,1.4-65.3,6.7c-23.7,5.9-47.6,11.1-71.9,13.6c-13.1,1.4-26.4,2.2-39.6,2.4c-18.5,0.4-36.1-4.4-52.7-12.5
			c-3.6-1.8-6.7-4.3-8.5-8c-0.7-1.5-1.2-3.3-1.1-4.9C80.6,398.5,82.8,397,86.1,397.3z"/>
	</g>
</g>
</svg>
