<?xml version="1.0" encoding="utf-8"?>
<!-- Generator: Adobe Illustrator 22.0.0, SVG Export Plug-In . SVG Version: 6.00 Build 0)  -->
<svg version="1.1" id="Layer_1" xmlns="http://www.w3.org/2000/svg" xmlns:xlink="http://www.w3.org/1999/xlink" x="0px" y="0px"
	 viewBox="0 0 500 500" style="enable-background:new 0 0 500 500;" xml:space="preserve">
<style type="text/css">
	.st0{fill:#0C0C0C;}
</style>
<g>
	<g>
		<path class="st0" d="M92.9,314.7c0.1,0.8,0.1,1.6,0.1,2.4c0,0.8-0.2,1.6-0.6,2.2c-0.4,0.9-1,1.6-2,2.1c-0.9,0.5-1.9,0.8-2.9,1.2
			c-2.5,0.6-4.9,0.8-7.4,0.7c-1.2,0-2.1-0.2-2.9-0.6c-1.1-0.5-1.9-1.3-2.5-2.3c-0.7-1.2-1.1-2.3-1.2-3.5c-0.1-1.2-0.2-2.4-0.2-3.7
			c0-0.5-0.1-1.1-0.2-1.6c-0.2-0.5-0.5-0.9-0.9-1.2c-0.3-0.2-0.6-0.2-1-0.3c-0.3,0-0.7-0.1-1.1-0.1h-5.5c-0.3,0-0.6,0-0.9,0
			s-0.6,0.1-0.9,0.2c-0.5,0.3-0.9,0.7-1.2,1.3c-0.2,0.5-0.4,1.1-0.6,1.7c-0.2,0.8-0.5,1.6-0.7,2.5c-0.3,0.9-0.6,1.8-1,2.6
			c-0.4,0.8-0.9,1.6-1.5,2.3c-0.6,0.7-1.3,1.2-2,1.5c-0.6,0.3-1.3,0.5-2,0.6c-0.7,0.1-1.3,0.1-2,0.1c-0.9,0-1.8,0-2.7,0
			s-1.8-0.1-2.7-0.2c-0.6-0.1-1.2-0.2-1.8-0.3c-0.6-0.1-1.1-0.4-1.6-0.7c-0.6-0.5-1-1.1-1.3-1.8c-0.2-0.7-0.3-1.4-0.3-2.1
			c0.1-2.1,0.4-4.1,0.9-6.2c0.5-2,1.1-4.1,1.6-6.1c0.8-2.9,1.7-5.8,2.5-8.8c0.8-2.9,1.7-5.9,2.4-8.9c0.7-2.5,1.2-5,1.7-7.5
			s0.9-5,1.4-7.5c0.9-4.4,1.9-8.7,2.9-13c1-4.3,2.2-8.6,3.6-12.8c0.2-0.5,0.3-0.9,0.5-1.4c0.2-0.5,0.4-0.9,0.7-1.3
			c0.6-0.8,1.4-1.3,2.4-1.6c1-0.3,1.9-0.5,2.9-0.7c1.1-0.2,2.2-0.3,3.3-0.3c1.2-0.1,2.3-0.1,3.3-0.1c1.3,0,2.6,0.1,3.9,0.4
			c1.3,0.3,2.4,0.8,3.3,1.7c1,0.9,1.7,2.1,2,3.5c0.3,1.4,0.6,2.7,0.7,4c0.2,1.5,0.5,3,0.8,4.4c0.3,1.4,0.6,2.8,0.8,4.3
			c0.2,1.7,0.4,3.4,0.6,5c0.2,1.7,0.5,3.3,0.9,4.9c0.4,1.1,0.7,2.2,0.9,3.3c0.2,1.1,0.4,2.2,0.6,3.3c0.2,0.9,0.3,1.8,0.6,2.8
			c0.2,0.9,0.5,1.8,0.7,2.8c0.6,2.5,1,5,1.2,7.5s0.6,5.1,1.1,7.6c0.6,2.9,1.2,5.9,1.6,8.9C92.1,308.6,92.6,311.7,92.9,314.7z
			 M70.5,295.8c0.5-0.2,0.7-0.7,0.6-1.4c-0.1-1.5-0.2-3.1-0.3-4.6c-0.2-1.5-0.3-3.1-0.6-4.6c-0.2-1.1-0.4-2.2-0.6-3.2
			c-0.3-1.1-0.5-2.2-0.7-3.2h-0.2c-0.2,0-0.3,0.3-0.6,1c-0.2,0.7-0.5,1.5-0.7,2.3c-0.2,0.8-0.4,1.6-0.6,2.4
			c-0.2,0.7-0.3,1.2-0.4,1.3c-0.5,1.4-0.9,2.8-1.3,4.2c-0.4,1.4-0.6,2.8-0.7,4.3c-0.2,0.5-0.1,1,0.2,1.3c0.2,0.2,0.7,0.3,1.4,0.3
			c0.6,0,1.3,0,2,0.1c0.7,0,1.3,0.1,2,0.1C70.1,295.9,70.3,295.9,70.5,295.8z"/>
		<path class="st0" d="M113,241.3c1.5,0,2.9,0,4.3-0.1c1.4-0.1,2.9-0.1,4.3,0c2.2,0.1,4.1,0.6,5.8,1.5c1.7,0.9,3.2,2.2,4.5,3.7
			c0.4,0.5,0.7,1,1,1.6c0.3,0.6,0.5,1.2,0.6,1.8c0.8,2.2,1.5,4.5,2,6.8c0.5,2.3,0.6,4.7,0.5,7.2c-0.2,2.8-0.2,5.7-0.1,8.5
			c0.1,2.8,0.2,5.6,0.4,8.5c0.2,2.2,0.1,4.4-0.2,6.5c-0.3,2.1-0.6,4.2-1,6.4c-0.2,0.8-0.3,1.7-0.3,2.5c-0.1,0.8-0.2,1.6-0.5,2.5
			c-0.5,1.8-1,3.5-1.5,5.2c-0.5,1.7-1.1,3.5-1.6,5.2c0,0.2,0,0.3-0.1,0.5c-0.1,0.2-0.2,0.3-0.2,0.5c-1.2,1.8-2.4,3.5-3.9,5.1
			c-1.4,1.5-3.1,2.7-5.1,3.6c-0.8,0.3-1.5,0.6-2.2,1c-0.7,0.3-1.4,0.7-2.1,1.1c-1.1,0.5-2.2,0.9-3.3,1.2c-1.1,0.2-2.2,0.4-3.3,0.6
			c-1.5,0.2-3.1,0.3-4.7,0.3c-1.6,0.1-3.1,0.2-4.7,0.2c-0.4,0.1-0.7,0.1-1.1,0c-0.3-0.1-0.7-0.2-1.1-0.2c-2.1-0.5-3.2-1.8-3.3-3.9
			c-0.1-0.2-0.1-0.6-0.1-1.2c0.2-1.2,0.2-2.5,0.1-3.7c-0.1-1.2-0.2-2.5-0.2-3.7c-0.1-1.8-0.1-3.5-0.1-5.2c0-1.7,0-3.4-0.1-5.2v-7.5
			c-0.1-1.5-0.1-3.1-0.1-4.6c0-1.5,0.2-3.1,0.5-4.6v-1.4c-0.3-2.5-0.5-4.9-0.5-7.3c0-2.4,0-4.9,0.1-7.3c0.1-2.7,0.2-5.4,0.2-8
			c0.1-2.7,0.2-5.3,0.3-8c0.1-0.8,0.1-1.5,0.1-2.2c0-0.7,0-1.4,0.1-2.1c0.2-1.2,0.6-2.3,1.4-3.1c0.8-0.8,1.8-1.3,2.9-1.5
			c1.1-0.2,2.1-0.3,3.1-0.4c1-0.1,2-0.2,3.1-0.2c1.1,0,2.1,0,3.1-0.1c1,0,2-0.1,3-0.1V241.3z M112.7,305.4c1.5-0.4,3-1.1,4.5-2.1
			c1-0.8,1.7-1.8,2.1-3.1c0.2-0.8,0.4-1.7,0.5-2.5c0.1-0.8,0.1-1.7,0.1-2.7c0-0.4,0-0.8,0-1.3c0-0.5,0-0.9,0.1-1.4
			c0.2-1.4,0.3-2.7,0.5-4.1c0.2-1.3,0.2-2.7,0.1-4.2c-0.1-0.3-0.1-0.6-0.1-0.9c0-0.3,0.1-0.7,0.2-1c0.3-1.5,0.5-3.1,0.5-4.6
			c0-1.5,0-3-0.1-4.6c-0.1-2.2-0.1-4.5-0.2-6.7c0-2.3-0.1-4.5-0.3-6.7v-0.3c-0.4-1.8-0.9-3.1-1.4-3.6c-0.6-0.6-1.7-0.9-3.5-1
			c-0.4-0.1-0.7-0.1-1-0.1c-0.3,0-0.7,0.1-1,0.1c-0.1,0.4-0.1,0.7-0.1,0.9c0,0.2,0,0.5-0.1,0.8c0,2,0,3.9,0,5.8c0,1.9,0,3.8-0.1,5.8
			c0,1.8,0,3.6-0.1,5.4c-0.1,1.8-0.2,3.6-0.2,5.4c-0.2,2.5-0.3,5.1-0.3,7.6c-0.1,2.5-0.2,5-0.2,7.6c-0.1,1.8-0.1,3.7,0,5.5
			c0.1,1.8,0.2,3.6,0.2,5.4C112.6,304.9,112.6,305.2,112.7,305.4z"/>
		<path class="st0" d="M162.7,276.9l1.7-7.6c0.4-1.8,0.7-3.6,1-5.4c0.3-1.8,0.6-3.7,1-5.4c0.1-0.5,0.2-0.9,0.2-1.4
			c0.1-0.5,0.2-1,0.3-1.4c0.2-1,0.5-2,0.7-2.9c0.2-0.9,0.5-1.9,0.8-2.9c0.2-0.8,0.5-1.7,0.7-2.7c0.2-0.9,0.5-1.8,0.7-2.8
			c0.2-0.5,0.3-1,0.5-1.4c0.2-0.4,0.6-0.7,1.2-1c2,0.1,4.1,0.1,6.2-0.1c2.2-0.1,4.3,0.1,6.3,0.7c0.4,0.2,0.7,0.3,1.1,0.5
			c0.3,0.2,0.7,0.3,1.1,0.5v2c0,0.2,0,0.3-0.1,0.4c0,0.1-0.1,0.3-0.1,0.4c-0.5,1.6-0.8,3.2-1,4.9c-0.2,1.7-0.5,3.3-0.8,4.9
			c-0.4,2.5-0.8,4.9-1.2,7.4c-0.4,2.5-0.8,4.9-1.2,7.4l-2.4,12.1c-0.6,2.5-1.2,5.1-1.7,7.7c-0.5,2.6-1,5.2-1.5,7.8
			c-0.4,1.8-0.8,3.7-1.2,5.4c-0.4,1.8-0.9,3.5-1.4,5.3c-0.1,0.2-0.1,0.3-0.1,0.4c0,0.1,0,0.3-0.1,0.4c-0.8,1.5-1.6,3-2.1,4.7
			c-0.6,1.7-1.2,3.3-1.8,4.9c-0.8,1.8-2.2,2.7-4.2,2.5c-0.7-0.1-1.4-0.1-2.1-0.1c-0.7,0-1.4,0.1-2.1,0.2c-1.5,0.1-2.7-0.4-3.6-1.4
			c-0.1,0-0.1,0-0.1-0.1c-1.3-1-2.4-2.2-3.2-3.5c-0.8-1.3-1.4-2.9-1.8-4.6c-0.2-1.1-0.5-2.1-0.9-3.2c-0.4-1-0.8-2.1-1.2-3.2
			c-0.6-2-1.2-4-1.8-5.9c-0.6-2-1.2-3.9-1.8-5.9c-0.5-1.9-1-3.8-1.4-5.7c-0.4-1.9-0.9-3.7-1.6-5.6c-1-3.2-1.8-6.6-2.4-10.2
			c-0.2-1.3-0.5-2.6-0.8-3.8c-0.3-1.2-0.7-2.5-1-3.7c-0.3-1.2-0.6-2.3-0.7-3.5c-0.2-1.2-0.4-2.4-0.5-3.5l-1.7-10
			c-0.4-2.2,0-4.1,1.1-5.5c1.1-1.4,2.7-2.2,4.7-2.2c1.1,0,2.1,0,3.2-0.1c1,0,2.1-0.1,3.2-0.1c2.3,0,3.7,1.2,4.2,3.6
			c0.2,1.4,0.6,2.7,1,4c0.5,1.3,0.9,2.7,1.3,4c0.4,1.1,0.7,2.2,1,3.3c0.3,1.2,0.6,2.3,0.9,3.3c0.2,0.4,0.2,0.7,0.3,1.1
			c0,0.3,0.1,0.7,0.3,1c0.8,2,1.4,4,2,6.1c0.6,2,1.1,4.1,1.6,6.1c0.2,0.7,0.3,1.4,0.5,2c0.2,0.7,0.4,1.3,0.5,1.9
			C162.5,277,162.7,277,162.7,276.9z"/>
		<path class="st0" d="M227.1,267c-1,1.2-2.2,2-3.5,2.2c-0.5,0.1-0.9,0.2-1.3,0.3c-0.4,0.2-0.8,0.3-1.2,0.3
			c-1.1,0.1-2.2,0.1-3.3,0.1c-1.1,0-2.2,0-3.4,0.1c-1.6-0.8-2.5-2.1-2.5-3.9c-0.2-0.8-0.3-1.7-0.4-2.4c-0.1-0.8-0.3-1.6-0.4-2.4
			c-1.3-0.2-2.6-0.2-3.7-0.1c-1.2,0.1-2.4,0.4-3.7,1c-0.2,0.4-0.3,0.8-0.4,1.2c-0.1,0.4-0.2,0.8-0.3,1.2v8.1h1.6
			c1.1-0.1,2.1-0.1,3.1-0.1c1,0,2,0,3.1-0.1c1.6-0.2,2.9,0.3,3.9,1.3c1,1,1.4,2.2,1.4,3.5c0.1,1.1,0.2,2.2,0.3,3.3
			c0.1,1.1,0.2,2.2,0.3,3.3c0,0.6,0,1.3-0.1,1.9c0,0.7-0.1,1.3-0.2,1.9c-0.2,1.5-1.1,2.5-2.5,2.9c-0.5,0.2-1.1,0.3-1.6,0.3
			c-0.5,0.1-1,0.2-1.4,0.2c-0.8,0.1-1.5,0.1-2.2,0.1c-0.7,0-1.4,0-2.1,0c-0.5,0.1-0.9,0.1-1.4,0.2c-0.5,0-0.9,0.1-1.4,0.3
			c-0.2,0.3-0.2,0.5-0.2,0.7v9.3c0.2,2.2,1.3,3.3,3.5,3.6h0.5c0.6,0,1.2,0,1.8,0s1.2,0,1.8,0.1c0.6-0.8,0.9-1.8,0.8-2.8
			c-0.1-1,0.1-2.1,0.5-3.3c0.2-0.5,0.9-0.8,2-1c1.5-0.4,3.1-0.6,4.7-0.7c1.6-0.1,3.2-0.1,4.8-0.1c0.7-0.1,1.3,0.1,1.7,0.5
			c0.5,0.4,0.9,0.9,1.3,1.4c0.5,0.7,0.7,1.4,0.7,2.2c0.2,1.1,0.3,2.1,0.3,3.2c0.1,1,0.1,2.1,0.1,3.2c0,1.2,0,2.3,0,3.5
			c0,1.2-0.1,2.3-0.2,3.5c-0.2,1.8-1.1,3.3-2.5,4.5c-1.8,1.3-3.9,2.1-6.3,2.4c-2.4,0.3-4.7,0.5-6.7,0.7c-4.8,0.5-9.6,0.3-14.3-0.3
			c-1.3-0.2-2.6-0.4-3.9-0.8c-1.3-0.4-2.4-1-3.4-1.8c-1.2-1.1-2-2.3-2.5-3.7c-0.5-1.4-0.9-2.9-1.2-4.4c-0.6-2.5-0.9-5-0.8-7.6
			c0.1-2.6,0.1-5.1,0-7.7c-0.1-5.2-0.1-10.4,0-15.7c0.1-2,0.2-4,0.3-5.9c0.1-1.9,0.2-3.9,0.4-5.9c0.1-1.8,0.1-3.7,0.1-5.7
			c0-2,0.1-3.9,0.3-5.8c0.2-1.9,0.7-3.7,1.3-5.5c0.7-1.8,1.7-3.4,3.2-4.8c1.1-1.2,2.3-2.1,3.7-2.7c1.4-0.7,2.9-1.2,4.4-1.6
			c2.8-0.6,5.7-0.9,8.7-0.9c3,0,5.9,0.1,8.8,0.1c0.8,0,1.7,0,2.4,0.1c0.8,0.1,1.5,0.2,2.3,0.3c1.9,0.2,3.2,1.2,3.9,2.9
			c0.2,0.5,0.5,1.1,0.7,1.6c0.2,0.5,0.5,1.1,0.7,1.6c0.2,0.6,0.3,1.3,0.3,2c0,0.7-0.1,1.3-0.3,2c-0.1,0.4-0.1,0.8-0.1,1.2
			c0,0.4,0,0.8,0,1.2c-0.1,1.9-0.1,3.8-0.1,5.8c0,1.9,0,3.8,0,5.8c0,0.2,0,0.3-0.1,0.5C227.1,266.7,227.1,266.8,227.1,267z"/>
		<path class="st0" d="M249.4,269.3v3c0,3.2,0,6.4,0.1,9.6c0,3.2,0,6.3-0.2,9.6c0,1.9-0.1,3.8-0.2,5.7c-0.1,1.9-0.3,3.8-0.5,5.7
			c-0.2,2.5-0.3,4.9-0.4,7.4c-0.1,2.5-0.3,5-0.4,7.4c0,0.2,0,0.3-0.1,0.5c0,0.2-0.1,0.3-0.1,0.5c-0.1,1.9-1.1,3.1-3,3.6
			c-0.8,0.2-1.7,0.4-2.5,0.6c-0.8,0.3-1.6,0.3-2.5,0.2c-0.9-0.2-1.8-0.3-2.6-0.6c-0.8-0.2-1.7-0.5-2.5-0.9c-2.3-0.9-3.6-2.7-3.8-5.4
			c-0.3-5.3-0.4-10.6-0.4-15.8c0-5.2,0.1-10.5,0.2-15.8c0.1-2.7,0.2-5.4,0.5-8.1c0.2-2.7,0.5-5.4,0.7-8.1c0.2-2.2,0.4-4.5,0.5-6.7
			c0.1-2.2,0.2-4.5,0.4-6.7c0.2-1.4,0.3-2.8,0.5-4.2c0.2-1.4,0.3-2.8,0.5-4.2c0.2-0.5,0.3-1.1,0.5-1.6c0.2-0.5,0.4-1,0.5-1.4
			c0.6-1.3,1.6-2,2.9-2.1c1.5-0.2,3-0.2,4.5-0.2c1.5,0,3,0.3,4.5,0.6c0.3,0.1,0.6,0.2,0.8,0.2c0.2,0.1,0.5,0.2,0.7,0.2
			c1.1,1.8,2.1,3.7,3.1,5.5c1,1.8,2.1,3.6,3.2,5.4c1.2,1.8,2.4,3.4,3.7,5c1.3,1.6,2.7,3.2,4,5c0-0.4,0-0.7,0.1-0.9
			c0-0.2,0.1-0.5,0.1-0.7c0.2-1.8,0.2-3.6,0.3-5.4c0-1.8,0.1-3.7,0.3-5.4c0.2-1.2,0.3-2.3,0.5-3.5c0.2-1.2,0.5-2.3,1-3.3
			c0.7-1.7,1.9-2.6,3.7-2.7c1.4-0.1,2.8-0.1,4.2,0c1.4,0.1,2.8,0.3,4.2,0.6c0.3,0.1,0.6,0.2,0.9,0.2c0.3,0.1,0.5,0.2,0.6,0.2
			c1.2,1.3,1.8,2.7,1.8,4c0,1.4-0.1,2.8-0.2,4.3c-0.1,0.4-0.1,0.8-0.2,1.2c0,0.4-0.1,0.8-0.1,1.2c0,2.9,0,5.8,0.1,8.7
			c0,2.9,0.1,5.8,0.1,8.7c0,3.2,0,6.5,0.1,9.7c0,3.3,0,6.6-0.1,9.9c-0.2,2.7-0.3,5.4-0.5,8.1c-0.2,2.7-0.4,5.4-0.7,8.1
			c-0.2,1.8-0.2,3.5-0.2,5.1c0,1.7,0,3.4-0.2,5.1c-0.1,0.5-0.1,1.1-0.2,1.6c0,0.5-0.1,1.1-0.2,1.7c-0.2,0.9-0.7,1.6-1.5,2
			c-1,0.4-2,0.7-3,1c-1,0.3-2,0.4-3.1,0.2c-0.9-0.2-1.8-0.3-2.7-0.6c-0.9-0.2-1.7-0.5-2.6-0.9c-2.4-1-3.7-2.9-3.8-5.8
			c-0.3-4.8-0.4-9.5-0.3-14.2c0.1-4.7,0.1-9.5,0-14.4c0-0.5-0.1-1-0.3-1.4c-0.9-1.5-1.8-3.1-2.7-4.6c-0.9-1.5-1.9-3-2.9-4.4
			c-0.8-1.1-1.6-2.2-2.2-3.3c-0.6-1.2-1.3-2.3-2-3.5c-0.1-0.2-0.3-0.4-0.6-0.7H249.4z"/>
		<path class="st0" d="M294.1,260.2c-1.3,0.1-2.6,0.1-3.8,0.2c-1.2,0-2.5,0.1-3.7,0.1c-1.8,0.1-3-0.2-3.6-0.7c-0.6-0.6-1-1.7-1-3.5
			c-0.1-1.4-0.1-2.7-0.1-4.1c0-1.3,0-2.7,0-4.1c0-0.4,0-0.7,0-1c0-0.3,0.1-0.7,0.2-1c0.1-0.2,0.2-0.5,0.3-0.8
			c0.1-0.3,0.3-0.5,0.5-0.7c0.5-0.5,1.1-0.9,1.7-1.3c0.6-0.4,1.2-0.7,2-0.8c1.5-0.2,3.1-0.3,4.6-0.5c1.5-0.2,3.1-0.4,4.6-0.5
			c0.9-0.2,1.8-0.2,2.8-0.2c0.9,0,1.8,0,2.8-0.1c0.4-0.1,0.8-0.1,1.2-0.1c0.4,0,0.8,0.1,1.2,0.1c2.7,0,5.4,0,8.1-0.1
			c2.7,0,5.4-0.2,8.1-0.4c0.5-0.1,1.1-0.1,1.6-0.1c0.5,0,1.1,0,1.7,0c2.1,0.2,3.2,1.2,3.5,3.2c0.2,0.6,0.2,1.3,0.2,2
			c0,0.7-0.1,1.3-0.1,2c-0.1,1.2-0.1,2.3-0.2,3.5c0,1.2-0.1,2.3-0.3,3.5c-0.1,2-0.5,3.3-1.4,3.9c-0.8,0.6-2.1,0.9-3.7,0.8
			c-1.2,0-2.3,0-3.5,0c-1.2,0-2.4,0-3.5-0.1h-1.6v1.7c-0.1,4.6-0.1,9.2-0.1,13.6c0,4.5,0,9-0.1,13.6c-0.1,0.8-0.2,1.5-0.2,2.2
			c-0.1,0.7-0.2,1.5-0.2,2.2c-0.1,0.5-0.1,0.9-0.1,1.3c0,0.4,0,0.9-0.1,1.3c-0.2,1.7-0.2,3.4-0.1,5.1c0.1,1.7,0,3.4-0.3,5.1
			c-0.2,0.9-0.3,1.9-0.3,2.8c0,1,0,1.9-0.1,2.8v5.4c0,2.2-0.9,3.9-2.7,5.2c-0.3,0.3-0.6,0.5-0.9,0.6c-3.9,1.5-7.6,1.3-11.1-0.3
			c-2.5-1.2-3.7-3.1-3.8-5.9c-0.3-5.3-0.4-10.6-0.4-15.9c0-5.3,0.1-10.6,0.2-15.9c0.1-2.3,0.2-4.6,0.5-6.9c0.2-2.3,0.4-4.6,0.6-6.8
			c0.2-1.3,0.3-2.6,0.3-3.9c0.1-1.3,0.2-2.6,0.3-3.9V260.2z"/>
		<path class="st0" d="M343.8,242.8c0.6,0.5,0.9,1.3,0.9,2.3c-0.1,1.8-0.2,3.7-0.2,5.5c-0.1,1.8-0.2,3.7-0.2,5.5c0,1.5,0,3,0.1,4.4
			c0,1.4,0.1,2.9,0.1,4.4c0,0.6,0,1.2,0.1,1.8c0,0.6,0,1.2-0.1,1.8c-0.2,1.7-0.2,3.4-0.2,5c0,1.7,0.1,3.3,0.3,5
			c0.2,1.8,0.2,3.7,0.2,5.5c0,1.8-0.1,3.6-0.3,5.5c-0.2,1.5-0.2,3.1-0.2,4.6c0,1.5,0,3.1-0.1,4.6c-0.1,1.1,0.1,1.9,0.5,2.5
			c0.4,0.6,1.3,1.1,2.7,1.4c0.5-0.2,0.9-0.3,1.4-0.4c0.5-0.1,1-0.2,1.4-0.4c0.6-0.2,1.1-0.6,1.5-1c0.4-0.4,0.6-1.1,0.6-1.9
			c0-1.2,0-2.3,0.1-3.5c0-1.2,0.1-2.3,0.1-3.6c0.1-1,0.1-2,0.2-2.9c0-0.9,0.1-1.9,0.2-2.9c0-0.8,0-1.5-0.1-2.2
			c0-0.7-0.1-1.4-0.1-2.1c0-2,0-4,0-5.9s0-3.9-0.1-5.9c-0.1-3.9-0.2-7.8-0.2-11.6c-0.1-3.8,0.2-7.6,0.8-11.5
			c0.2-0.8,0.3-1.6,0.5-2.4c0.2-0.7,0.6-1.4,1.2-1.9c0.6-0.6,1.4-1,2.2-1.2c0.9-0.2,1.7-0.2,2.6-0.2c1.3,0,2.7,0.2,4,0.5
			c1.4,0.3,2.5,1,3.5,2.1c0.9,1.1,1.5,2.3,1.7,3.7c0.2,1.4,0.3,2.8,0.3,4.2c-0.1,3.9-0.2,7.8-0.4,11.6c-0.2,3.8-0.3,7.7-0.3,11.6
			c-0.1,1.5-0.1,2.9-0.2,4.3c0,1.4-0.1,2.8-0.2,4.3c0,0.5,0,1-0.1,1.5c0,0.5-0.1,1-0.1,1.5c0,0.6,0,1.2,0.1,1.7c0,0.5,0.1,1,0.2,1.6
			c0.1,0.5,0.1,0.9,0.2,1.4c0,0.5,0.1,1,0.1,1.4c-0.2,3.5-0.4,7.2-0.7,10.8c-0.3,3.7-1.1,7.2-2.1,10.6c-0.2,0.6-0.3,1.2-0.6,1.7
			c-0.2,0.5-0.5,1-0.9,1.5c-1.1,1.5-2.5,2.6-4.3,3.2c-1.8,0.6-3.6,0.9-5.4,1.1c-1.8,0.2-3.5,0.4-5.2,0.5c-1.7,0.1-3.5,0.1-5.2,0
			c-1.3,0-2.6-0.1-3.9-0.2c-1.3-0.2-2.5-0.5-3.7-1c-2-0.8-3.7-2.2-5-4c-1.3-1.8-2.3-3.7-3-5.8c-0.6-2-1-4.1-1.1-6.2
			c-0.1-2.2-0.2-4.3-0.3-6.6c-0.1-2.8-0.1-5.5-0.2-8.3c0-2.8,0-5.5,0.2-8.2c0.2-2.8,0.4-5.6,0.6-8.4c0.2-2.7,0.6-5.5,1-8.2
			c0.1-0.7,0.1-1.4,0.1-2.1c0-0.7,0-1.4,0.1-2.1c0.1-1.5,0.1-2.9,0.2-4.3c0-1.4,0.1-2.9,0.3-4.3c0-0.9,0.2-1.9,0.6-2.9
			c0.7-1.7,1.5-3.3,2.4-4.8c1.2-1.9,2.9-2.9,5.3-2.9c1.1,0,2.2,0.1,3.2,0.2C341.8,242.1,342.8,242.4,343.8,242.8z"/>
		<path class="st0" d="M400.8,289.7c1.5,4.4,3,8.7,4.6,13c1.6,4.3,3.4,8.6,5.4,12.8c0.5,1,0.9,2.1,1.2,3.2c0.3,1.2,0.2,2.2-0.4,3.1
			c-0.4,0.7-1,1.2-1.7,1.5c-0.8,0.3-1.6,0.5-2.4,0.6c-0.8,0.1-1.7,0.2-2.6,0.1c-0.9,0-1.7-0.1-2.4-0.1c-0.7,0-1.4-0.1-2.1-0.2
			c-0.7-0.1-1.4-0.4-2-0.9c-0.5-0.4-0.8-0.8-1.1-1.3c-0.3-0.5-0.5-1-0.7-1.5c-0.8-1.8-1.7-3.6-2.4-5.4c-0.8-1.8-1.5-3.6-2.3-5.5
			c-0.8-1.6-1.5-3.3-2.1-5c-0.6-1.7-1.3-3.4-2.2-4.9c-0.1,1.1-0.2,2.1-0.3,3.1c-0.1,1-0.2,2-0.2,3.1c0.2,2.3,0.2,4.6,0.2,7
			c0,2.3-0.3,4.7-0.6,7c-0.4,1.8-1.4,3-3,3.5c-1.6,0.4-3.2,0.6-4.8,0.7c-1.6,0.1-3.2-0.2-4.8-0.8c-0.9-0.4-1.5-0.8-1.8-1.2
			c-0.3-0.4-0.5-1.2-0.5-2.2c0.1-2.1,0.2-4.2,0.2-6.2c0.1-2.1,0.1-4.2,0.1-6.3c0-1.8,0-3.5-0.1-5.2c-0.1-1.7-0.1-3.4-0.1-5.2
			c-0.1-0.9-0.1-1.8-0.2-2.8c0-0.9,0-1.8,0.1-2.8l0.7-7.6c0.1-0.5,0.1-0.9,0.1-1.4c0-0.5,0-1,0-1.6c-0.2-2.5-0.3-4.9-0.3-7.4
			c0-2.5,0.1-4.9,0.3-7.4v-1.2c0.2-2.2,0.2-4.5,0.3-6.7c0-2.3,0.1-4.5,0.2-6.7c0.1-1.1,0.2-2.1,0.3-3.2c0.2-1,0.5-2.1,0.9-3.1
			c0.5-1.1,1.2-1.8,2.1-2.3c1.8-0.8,3.4-1.2,5-1.2c3.4,0,6.7,0,10-0.1c3.3-0.1,6.6,0,10,0.1c1.8,0.1,3.5,0.4,5.2,0.9
			c1.7,0.5,3.1,1.5,4.2,3c0.8,1.1,1.3,2.3,1.6,3.6c0.3,1.3,0.4,2.7,0.4,4c0,1.4-0.1,2.8-0.2,4.2c-0.2,1.4-0.3,2.7-0.3,3.9
			c-0.2,2-0.2,3.9-0.2,5.8c0,1.9-0.1,3.8-0.2,5.8c-0.1,1.4-0.2,2.8-0.3,4.2c-0.1,1.4-0.4,2.7-0.9,4c-0.4,1.3-1,2.5-1.9,3.6
			c-0.9,1.1-2,1.9-3.3,2.4c-1.2,0.4-2.3,0.6-3.5,0.7c-0.2,0.1-0.3,0.1-0.4,0.1s-0.3,0.1-0.4,0.2c-0.2,0.2-0.2,0.3-0.2,0.6
			c0,0.2,0.1,0.5,0.2,0.7c0,0.2,0,0.3,0.1,0.3C400.8,289.5,400.8,289.6,400.8,289.7z M394.1,270.9c0.8-0.5,1.4-1,1.6-1.7
			c0.2-0.7,0.3-1.4,0.4-2.2c0-0.8,0-1.7,0.1-2.5c0-0.8,0.1-1.6,0.1-2.5c0-0.4,0-0.8,0-1.3c0-0.5,0-0.9-0.1-1.3
			c0-0.8-0.5-1.3-1.4-1.5c-0.6-0.2-1.2-0.3-1.8-0.4c-0.6-0.1-1.2-0.2-1.8-0.4c-0.6-0.1-1.2-0.2-1.7-0.2c-0.5-0.1-1.1,0.1-1.6,0.5
			c-0.3,0.8-0.5,2-0.7,3.3c-0.2,1.4-0.3,2.8-0.3,4.2c0,1.4,0,2.8,0.1,4.1c0.1,1.3,0.2,2.3,0.5,2.9c1.2,0.2,2.3,0.1,3.4-0.3
			C391.8,271.3,392.9,271.1,394.1,270.9z"/>
		<path class="st0" d="M455.7,267c-1,1.2-2.2,2-3.5,2.2c-0.5,0.1-0.9,0.2-1.3,0.3c-0.4,0.2-0.8,0.3-1.2,0.3
			c-1.1,0.1-2.2,0.1-3.3,0.1c-1.1,0-2.2,0-3.4,0.1c-1.6-0.8-2.5-2.1-2.5-3.9c-0.2-0.8-0.3-1.7-0.4-2.4c-0.1-0.8-0.3-1.6-0.4-2.4
			c-1.3-0.2-2.6-0.2-3.7-0.1c-1.2,0.1-2.4,0.4-3.7,1c-0.2,0.4-0.3,0.8-0.4,1.2c-0.1,0.4-0.2,0.8-0.3,1.2v8.1h1.6
			c1.1-0.1,2.1-0.1,3.1-0.1c1,0,2,0,3.1-0.1c1.6-0.2,2.9,0.3,3.9,1.3c1,1,1.4,2.2,1.4,3.5c0.1,1.1,0.2,2.2,0.3,3.3
			c0.1,1.1,0.2,2.2,0.3,3.3c0,0.6,0,1.3-0.1,1.9c0,0.7-0.1,1.3-0.2,1.9c-0.2,1.5-1.1,2.5-2.5,2.9c-0.5,0.2-1.1,0.3-1.6,0.3
			c-0.5,0.1-1,0.2-1.4,0.2c-0.8,0.1-1.5,0.1-2.2,0.1c-0.7,0-1.4,0-2.1,0c-0.5,0.1-0.9,0.1-1.4,0.2c-0.5,0-0.9,0.1-1.4,0.3
			c-0.2,0.3-0.2,0.5-0.2,0.7v9.3c0.2,2.2,1.3,3.3,3.5,3.6h0.5c0.6,0,1.2,0,1.8,0c0.6,0,1.2,0,1.8,0.1c0.6-0.8,0.9-1.8,0.8-2.8
			c-0.1-1,0.1-2.1,0.5-3.3c0.2-0.5,0.9-0.8,2-1c1.5-0.4,3.1-0.6,4.7-0.7c1.6-0.1,3.2-0.1,4.8-0.1c0.7-0.1,1.3,0.1,1.7,0.5
			c0.5,0.4,0.9,0.9,1.3,1.4c0.5,0.7,0.7,1.4,0.7,2.2c0.2,1.1,0.3,2.1,0.3,3.2c0.1,1,0.1,2.1,0.1,3.2c0,1.2,0,2.3,0,3.5
			c0,1.2-0.1,2.3-0.2,3.5c-0.2,1.8-1.1,3.3-2.5,4.5c-1.8,1.3-3.9,2.1-6.3,2.4c-2.4,0.3-4.7,0.5-6.7,0.7c-4.8,0.5-9.6,0.3-14.3-0.3
			c-1.3-0.2-2.6-0.4-3.9-0.8c-1.3-0.4-2.4-1-3.4-1.8c-1.2-1.1-2-2.3-2.5-3.7c-0.5-1.4-0.9-2.9-1.2-4.4c-0.6-2.5-0.9-5-0.8-7.6
			c0.1-2.6,0.1-5.1,0-7.7c-0.1-5.2-0.1-10.4,0-15.7c0.1-2,0.2-4,0.3-5.9c0.1-1.9,0.2-3.9,0.4-5.9c0.1-1.8,0.1-3.7,0.1-5.7
			c0-2,0.1-3.9,0.3-5.8c0.2-1.9,0.7-3.7,1.3-5.5c0.7-1.8,1.7-3.4,3.2-4.8c1.1-1.2,2.3-2.1,3.7-2.7c1.4-0.7,2.9-1.2,4.4-1.6
			c2.8-0.6,5.7-0.9,8.7-0.9c3,0,5.9,0.1,8.8,0.1c0.8,0,1.7,0,2.4,0.1c0.8,0.1,1.5,0.2,2.3,0.3c1.9,0.2,3.2,1.2,3.9,2.9
			c0.2,0.5,0.5,1.1,0.7,1.6c0.2,0.5,0.5,1.1,0.7,1.6c0.2,0.6,0.3,1.3,0.3,2c0,0.7-0.1,1.3-0.3,2c-0.1,0.4-0.1,0.8-0.1,1.2
			c0,0.4,0,0.8,0,1.2c-0.1,1.9-0.1,3.8-0.1,5.8c0,1.9,0,3.8,0,5.8c0,0.2,0,0.3-0.1,0.5C455.7,266.7,455.7,266.8,455.7,267z"/>
	</g>
	<path class="st0" d="M453.3,168.8c-4.7-2-9.9-2.3-14.9-1.6c-6.2,0.8-12.3,2.7-18.3,4.3c-5.5,1.5-11.6,2.4-16.5,5.4
		c-0.4,0.2-0.6,0.5-0.7,0.8c-5.8,0.1-11.6,0.1-17.3,0.2c0.9-0.3,1.9-0.6,2.8-1c2.4-1.1,4.6-2.5,6.8-4.1c4.4-3.1,8.8-6.3,12.3-10.4
		c3.6-4.2,7.4-9.1,10-14c1.7-3.3,1.6-7.1-1.9-9.3c-3.4-2.2-8.8-2.1-12.5-1c-4.8,1.4-8.2,5.4-11.1,9.3c-3.5,4.5-6.3,9.5-9,14.6
		c-2.7,5.1-5.2,10.4-6.4,16c-3.2,0-6.3,0-9.5,0c0.3-1,0.4-1.7,0.4-2.4c0-2.2-1.2-3-2.7-3c-1.9,0-4.2,1.6-4.8,3.9
		c-0.1,0.4-0.3,1-0.4,1.6c-0.2,0-0.4,0-0.7,0c-1.9,0-2.1,2.7-0.5,3.2c-2.8,6.8-8.4,16.6-13.2,16.6c-1.3,0-1.7-0.4-2.9-1.3l1.4-2.7
		c4.5-8.9,8.7-21.3,9.5-28.1c0.1-1,0.1-2,0.1-3c0-3.3-0.7-5.8-2.5-7.6c-1.3-1.4-3.7-2.9-5-2.9c-0.4,0-1.7-0.7-2.9-1.6
		c-2.3-1.7-4.9-2.5-7.6-2.5c-2.9,0-5.8,0.9-8.9,2.7c-7.3,4.5-14.8,17.5-17.7,30.2c-3,6.3-8.7,16.7-12.3,22.3
		c-6.3,10-11.1,16.2-15.4,20.2c-2.9,2.7-4.6,4-5.6,4s-1.3-1.2-1.3-3.2l0.3-5.3c1.2-15,4.3-27.5,11.2-46l2-1.2
		c11.1-6.6,18.3-13,28.7-25.4c5.9-7.1,12.8-18,15.1-24.1l1.6-5.5c0.6-2.2,0.7-4,0.7-5.8c0-6.1-3.2-8.5-7.6-8.5
		c-5.5,0-12.7,3.7-18,8.9c-7.2,7.1-15.9,19-21.3,29.6c-7.5,14.7-14.1,31.9-18.3,47.7c-1.4,5.3-2.3,7.2-5.5,12.3
		c-6.2,10-11,14.4-14,14.4c-2.6,0-3.9-3.3-3.9-9.2c0-3.3,0.3-7.2,1.2-12c0.7-3.9,2.6-11.8,4.2-17.3c1.3-5,0.3-2.9,4.3-6.8
		c7.2-7.2,16.4-18.6,23.9-29.4c3.6-5.2,5.8-8.7,9.8-16c5.5-9.7,7.4-14.9,7.4-19.5c0-5.3-4.2-8.5-8.9-8.5c-1.6,0-3.2,0.3-4.8,1
		c-8.2,3.7-15.3,12.3-25.8,30.7c-7.6,13.4-14.3,31.9-18.1,48.3c-0.7,1.1-1.6,2.6-3.1,5.2c-6.8,11.7-13,17.6-21.8,20.2
		c-1.3,0.4-2.3,0.6-3.3,0.6c-4.6,0-5-4.8-5-9.5v-2.6l3.2-1c8.9-3.2,25-17.6,25-28.7c0-3.6-1.6-6.8-5.5-9.2c-2.6-1.7-5.3-2.5-7.9-2.5
		c-11.6,0-22.6,14.8-26.8,29.3c-0.2,0.5-0.4,1-0.6,1.5c-0.7,1.4-2.3,5-3.5,7.8c-3,6.8-4,8.8-6.8,13.4c-0.7,1.3-7.8,12.4-10.5,12.4
		c-0.7,0-1.2-0.7-1.2-2.3l0.1-1.7c0.7-7.1,2.7-14,7.6-26.4c5.9-14.9,8.4-23.4,8.4-27.7c0-1,0-1.9-0.3-2.5c-1.3-3.3-4-4.5-7.1-4.5
		c-1.2,0-2.5,0.3-3.6,0.6c-4.5,1.4-8.8,4.8-13.4,10.5c-4.5,5.5-9.1,13-14.3,23.2c-1.6,3.2-3,5.5-3.2,5.5c0-1.6,2.6-12.7,3.2-14
		l4.3-5.3c14.9-17.5,28.4-35.6,34.3-45.4c3.7-6.3,5.3-12,5.3-16.4c0-5.6-2.7-9.2-7.5-9.2c-3.2,0-7.2,1.7-12,5.5
		c-5.8,4.6-10.2,10.4-17.3,22.6c-6.6,11.9-11.3,22.1-15.2,33.9c-5.5,0-10.9,0-16.4,0c-1.3-5.7-3.7-10.9-6.4-16
		c-2.7-5.1-5.5-10-9-14.6c-2.9-3.8-6.3-7.8-11.1-9.3c-3.8-1.1-9.1-1.1-12.5,1c-3.4,2.1-3.6,5.9-1.9,9.3c2.6,4.9,6.4,9.8,10,14
		c3.5,4.1,7.9,7.3,12.3,10.4c2.2,1.5,4.4,3,6.8,4.1c0.9,0.4,1.8,0.7,2.8,1c-5.8,0-11.6-0.1-17.3-0.2c-0.1-0.3-0.3-0.6-0.7-0.8
		c-4.9-3-11-3.9-16.5-5.4c-6-1.6-12.1-3.5-18.3-4.3c-5-0.6-10.2-0.4-14.9,1.6c-3.8,1.7-8.2,4.9-8.2,9.5c-0.1,4.8,4.5,7.3,8.6,8.4
		c5.2,1.3,10.7,1.8,16.1,1.9c11.6,0.1,23-2.6,33.5-7.6c7.6,0.1,15.3,0.2,22.9,0.2c-2.5,1.1-4.9,2.3-7.3,3.5c-5.1,2.7-10,5.5-14.6,9
		c-3.8,2.9-7.8,6.3-9.3,11.1c-1.1,3.8-1.1,9.1,1,12.5c2.1,3.4,5.9,3.6,9.3,1.9c4.9-2.6,9.8-6.4,14-10c4.1-3.5,7.3-7.9,10.4-12.3
		c1.5-2.2,3-4.4,4.1-6.8c1.1-2.6,1.6-5.4,2.6-8.1c0.1-0.1,0.2-0.2,0.3-0.3c0.1-0.2,0.2-0.3,0.3-0.5c2.8,0,5.7,0,8.5,0
		c-1.8,6.1-5.3,19.5-5.3,29.8c0,7.1,1.7,12.5,6.9,13h0.4c5.2,0,8.8-12.3,10.7-15.9c2.7-6.1,8.2-17.2,10.2-20.3
		c0.9-1.6,2.3-3.9,3.3-5.3c2.7-3.9,8.7-9.5,9.8-9.5l0.1,0.1v0.1c0,1.4-2.3,8.7-5.3,16.4c-2.3,5.8-11,26.1-11,36.6
		c0,1.9,0.3,3.3,0.9,4.5c1.9,3.3,5.8,4.6,9.5,4.6c1.9,0,3.7-0.3,5.3-0.9c5.4-2.1,10.1-7.8,17-21.7c0.3,1.7,0.8,3.3,1.5,4.7
		c2.3,4.8,6.8,7.9,14,7.9c2.2,0,4.5-0.3,7.2-0.9c8.8-2,15.8-7.7,21.4-14.8c-0.2,1.5-0.3,2.9-0.4,4.3v2.6c0,13.1,5.5,21.2,13,21.2
		c4.5,0,9.7-2.9,14.9-9.4l1.3-1.4v4.8c0,2.7,0.1,4.9,0.4,6.9c0.9,7.4,5.3,11.2,10.5,11.2c3.2,0,6.6-1.4,9.7-4.3
		c3.5-3.2,7.4-8.4,11.8-15.4c2.6-4.1,6.8-11.6,10.6-18.7c0.2,3.2,0.9,6.1,2.2,8.6c2.9,5.5,7.8,7.9,12.8,7.9c6.6,0,13.6-3.9,17.6-10
		l2,0.4c1.2,0.3,2.3,0.4,3.3,0.4c9.8,0,16.9-10.9,20.5-19.9c1.3,0,2.5,0,3.8,0c0.1,0.2,0.2,0.4,0.3,0.5c0.1,0.1,0.2,0.2,0.3,0.3
		c1,2.7,1.5,5.5,2.6,8.1c1.1,2.4,2.5,4.6,4.1,6.8c3.1,4.4,6.3,8.8,10.4,12.3c4.2,3.6,9.1,7.4,14,10c3.3,1.7,7.1,1.6,9.3-1.9
		c2.2-3.4,2.1-8.8,1-12.5c-1.4-4.8-5.4-8.2-9.3-11.1c-4.5-3.5-9.5-6.3-14.6-9c-2.4-1.3-4.8-2.5-7.3-3.5c7.6,0,15.3-0.1,22.9-0.2
		c10.4,5,21.9,7.7,33.5,7.6c5.3,0,10.9-0.6,16.1-1.9c4.1-1,8.6-3.6,8.6-8.4C461.5,173.8,457.1,170.5,453.3,168.8z M290.6,160.9
		c4.2-9.7,6.5-14.4,11.7-23.4c1.6-2.6,19-29.3,23.8-29.3c0.9,0,1.3,0.7,1.3,2.5s-0.6,4.5-1.7,8.5c-0.7,2.3-3,7.5-4.9,11.1
		c-3.2,5.6-9.4,14.7-13.6,19.6c-4.3,5.2-11.1,11.5-16.2,15.1c-1.3,0.9-2.5,1.6-2.6,1.6l-0.1-0.1
		C288.3,166.2,288.9,164.9,290.6,160.9z M258,155.3c3.3-8.7,6.5-15.3,13-27.4c5.5-10.4,6.9-12.8,10.1-17c2.7-3.3,5-6.1,6.1-6.1
		c0.4,0,0.6,0.4,0.6,1.3c0,1-0.3,3.2-1.3,6.2c-3,10.2-12.8,26.7-23.8,39.8c-4.2,5-4.8,5.3-6.1,7.1L258,155.3z M205.8,184.8
		c0.4-3.2,4-13.1,5.6-16c5.3-8.7,9.7-12.4,12.1-12.4c1.3,0,2.2,1.2,2.2,3.3s-0.9,5.3-2.6,9.4c-2.3,5.3-6.3,10.5-10.8,13.4
		c-2.5,1.4-3.9,2.3-6.6,3.7L205.8,184.8z M158.8,144.6c4.8-10.5,14.4-28.3,18.3-33.6c3.2-4.5,5.3-6.3,6.5-6.3c1,0,1.4,1,1.4,2.7
		c0,2-0.6,4.9-1.7,8.2c-3,8.8-10,19.2-26.4,39.8c-3.9,4.8-4.9,5.9-5,5.9C151.9,160.9,157.1,148.2,158.8,144.6z M62.9,162.5
		c8.6,0.2,17.1,0.4,25.7,0.5c-6.5,2.4-13.4,3.9-20.4,4.3c-4.3,0.3-8.7,0.2-13-0.3c-3.8-0.5-13.5-1-13.5-6.5c0-4.8,7-7.2,10.8-7.9
		c4.9-0.9,9.9,0,14.7,1.1c4.7,1.1,9.4,2.5,14.1,3.7c2.9,0.8,5.9,1.4,8.8,2.3c-9.1-0.1-18.2-0.3-27.2-0.5
		C60.8,159.2,60.8,162.4,62.9,162.5z M114.3,152.6c-2.7-3.1-5.2-6.5-7.7-9.8c-4-5.3-7-11.6-11.7-16.3c-1.5-1.5-3.8,0.8-2.3,2.3
		c4.9,4.8,8,11.4,12.2,16.8c2.3,2.9,4.5,5.9,6.8,8.8c0.5,0.6,1,1.1,1.6,1.7c-1.1-0.4-2.1-0.9-3.1-1.5c-3.8-2.3-7.5-5-10.9-7.9
		c-3.5-3-6.3-6.7-8.9-10.5c-2.1-3.1-8.9-10.2-3.2-12.6c9.6-4.1,16.9,5.4,21.4,12.3c4.3,6.6,8.5,13.8,10.8,21.4
		C117.5,155.8,115.8,154.3,114.3,152.6z M97.4,194c2.5-6.7,10.6-10.4,16-14.5c2.9-2.2,5.8-4.4,8.6-6.7c0.8-0.6,1.5-1.3,2.2-2
		c-0.4,1.1-0.9,2.1-1.5,3.1c-2.3,3.8-5,7.5-7.9,10.9c-3,3.5-6.7,6.3-10.5,8.9c-3.1,2.1-10.2,8.9-12.6,3.2
		c-4.1-9.6,5.4-16.9,12.3-21.4c6.5-4.3,13.8-8.4,21.3-10.8c-1.8,2.2-3.7,4.4-6,6.2c-3.6,2.9-7.3,5.8-11.1,8.6
		c-5.4,3.9-11.4,7.1-13.9,13.7C93.5,195.1,96.7,195.9,97.4,194z M334.6,196.1c0.3,0.3,0.4,0.6,0.4,0.9c0,0.6-0.6,1.4-1.9,3.2
		c-3.5,4.3-6.5,6.3-8.8,6.3c-3,0-4.9-3.9-5-11.5c0-6.1,1.2-13.4,3.5-20.5c1-3.3,7.2-21.2,13.1-21.2c0.9,0,1.7,0.4,2.6,1.3l-1,0.9
		c-2.3,2.2-5.2,8.4-6.1,13.3c-0.7,3.3-1.3,7.5-1.3,11.8C330.1,186.4,331.3,192.5,334.6,196.1z M338.9,190c-1.2-1.9-1.7-5.6-1.7-10
		c0-10.7,1.7-16.4,4-21.3l0.4,1.3c0.3,0.6,0.7,1.9,0.9,2.6c0.3,1.7,0.9,2.5,2.6,2.6l1.7,0.3c0.1,0,0.1,0.3,0.1,0.6
		c0,2.3-2.5,11.1-4.6,16.7C340.7,187.2,339.2,190,338.9,190z M396.1,193.3c6.9,4.5,16.4,11.8,12.3,21.4c-2.5,5.7-9.5-1-12.6-3.2
		c-3.8-2.6-7.5-5.4-10.5-8.9c-2.9-3.3-5.6-7.1-7.9-10.9c-0.6-1-1.1-2-1.5-3.1c0.7,0.7,1.4,1.4,2.2,2c2.8,2.3,5.7,4.5,8.6,6.7
		c5.4,4.1,13.5,7.8,16,14.5c0.7,2,3.9,1.1,3.1-0.9c-2.4-6.6-8.5-9.8-13.9-13.7c-3.8-2.7-7.5-5.6-11.1-8.6c-2.3-1.8-4.2-4-6-6.2
		C382.3,184.9,389.6,189.1,396.1,193.3z M380.7,175.1c2.4-7.6,6.5-14.9,10.8-21.4c4.5-6.9,11.8-16.4,21.4-12.3
		c5.7,2.5-1,9.5-3.2,12.6c-2.6,3.8-5.4,7.5-8.9,10.5c-3.3,2.9-7.1,5.6-10.9,7.9c-1,0.6-2,1.1-3.1,1.5c0.5-0.5,1.1-1.1,1.6-1.7
		c2.4-2.8,4.6-5.8,6.8-8.8c4.2-5.4,7.3-12.1,12.2-16.8c1.5-1.5-0.8-3.8-2.3-2.3c-4.7,4.7-7.7,11-11.7,16.3c-2.5,3.3-5,6.7-7.7,9.8
		C384.2,172.2,382.5,173.7,380.7,175.1z M444.8,184.9c-4.3,0.5-8.6,0.6-13,0.3c-7-0.4-13.9-1.9-20.4-4.3c8.6-0.1,17.1-0.3,25.7-0.5
		c2.1-0.1,2.1-3.3,0-3.3c-9.1,0.2-18.2,0.4-27.2,0.5c2.9-1,5.9-1.6,8.8-2.3c4.7-1.2,9.4-2.6,14.1-3.7c4.8-1.1,9.8-2,14.7-1.1
		c3.8,0.7,10.8,3.1,10.8,7.9C458.3,183.8,448.6,184.4,444.8,184.9z"/>
	<path class="st0" d="M227.7,117.6c2.4-0.6,4.7-1.2,7.1-1.6c2.4-0.4,4.8-0.4,7.1,0.8c3.9,2.1,5.2,7.1,2.9,11.2
		c-1.5,2.6-3.5,4.6-6.1,6c-6,3.3-12.6,5-19.2,6.5c-1.7,0.4-3.4,0.6-5.1,0.9c-0.8,0.2-1.5,0.5-2.2,0.8c-0.8,0.4-1.6,0.2-2.1-0.9
		c-1.1-2.8-2.5-5.6-3.2-8.6c-1.9-8-1.4-15.8,1.9-23.4c1.1-2.6,2.7-4.9,5.1-6.6c3.5-2.4,7.7-2.4,10.7,0c1.8,1.5,2.9,3.5,3.1,5.8
		c0.2,2.6,0,5.3,0,7.9C227.8,116.9,227.7,117.3,227.7,117.6z M244.2,123.5c-0.6,1-1.3,1.8-1.5,2.6c-0.3,1.2-0.9,2.2-1.9,3
		c-3.1,2.4-6.4,4.4-10,5.9c-0.3,0.1-0.6,0.3-0.9,0.5c4.3-1.2,8.5-2.6,11.7-5.8C243.1,128,244.3,126.2,244.2,123.5z M244,122.2
		c-0.7-4.2-6.4-6.2-11.1-4.1c0.2,0,0.3,0.1,0.4,0.1c2.4-0.5,4.8-0.1,7,0.9c0.5,0.2,1.1,0.5,1.2,0.9C241.8,121.2,243,121.4,244,122.2
		z M218.1,110.9c-1.8,3.6-2.9,7.3-3.1,11.3C216.9,118.6,217.7,114.8,218.1,110.9z M219,124c1.2-4,2.6-7.7,3.5-11.7
		c-0.3,0.4-0.5,0.9-0.6,1.3c-1,2.7-2,5.5-3.1,8.2C218.4,122.6,218.2,123.2,219,124z M210.9,137.9c0.2,0,0.4-0.1,0.6-0.1
		c0-0.4,0-0.8-0.1-1.2c-0.3-1-0.9-1.9-1.1-2.9c-0.3-1.3-0.4-2.7-0.6-4.1c-0.1-0.8-0.1-0.8-1.3-0.5
		C209.2,132,210.1,134.9,210.9,137.9z M233,125.9c1.3,0.4,4.7-1.7,5.6-3.6C236.8,123.5,235,124.7,233,125.9z M214.1,129.2
		c0.7-2.2,2.3-3.6,2.9-5.9c-0.9,1.1-1.6,2-2.4,2.9C213.9,127,213.7,127.9,214.1,129.2z M228.1,122.9c-2.4,0.8-5,2.7-4.9,3.9
		C224.8,125.6,226.4,124.2,228.1,122.9z M208.2,125.9c0.1,0,0.3,0,0.4,0c0.2-1.4,0.5-2.8,0.7-4.3c0-0.5-0.3-1-0.4-1.6
		c-0.2,0-0.3,0.1-0.5,0.1C208.3,122.1,208.3,124,208.2,125.9z M237.9,120.6c-2.1,0-3.8,0.8-4.6,2.1
		C236.6,121.9,237.2,121.6,237.9,120.6z M225.8,109.4c-0.2,0-0.3,0-0.5,0c0,0.5,0.2,1.1,0,1.5c-0.2,0.5-0.6,0.9-0.9,1.4
		c0.3,0.4,0.7,0.6,0.8,1c0.1,0.3,0,0.7,0.1,1.1c0,0.4,0,0.7,0,1.1c0.1,0,0.3,0,0.4,0C225.8,113.5,225.8,111.4,225.8,109.4z
		 M225,108.1c-0.1-1.8-1.3-3.4-2.8-3.9C223.1,105.5,223.9,106.7,225,108.1z M223.3,128.3c-1.5-0.1-2.3,0.7-2.6,2.5
		C221.6,130,222.4,129.2,223.3,128.3z M242.2,122.4c-0.4,0.9-0.8,1.6-1.2,2.6C242.5,124.4,242.9,123.5,242.2,122.4z M232.7,118.2
		c-2,0-4.9,1.1-5.4,2C229,119.5,230.7,118.9,232.7,118.2z M212.8,107.5c-0.1,0-0.3-0.1-0.4-0.1c-0.8,1.8-1.7,3.7-2.5,5.5
		c0.1,0.1,0.2,0.1,0.3,0.2c0.4-0.9,0.7-1.9,1.2-2.8C211.8,109.3,212.3,108.4,212.8,107.5z M214.2,132.6c0.1,0,0.3,0.1,0.4,0.1
		c0.6-1.4,1.1-2.8,1.7-4.1c-0.1-0.1-0.3-0.1-0.4-0.2C215.3,129.8,214.8,131.2,214.2,132.6z M221.8,137.4c0.1,0.1,0.1,0.3,0.2,0.4
		c1-0.3,2-0.5,3.1-0.8c0-0.2-0.1-0.3-0.1-0.5C223.8,136.8,222.8,137.1,221.8,137.4z"/>
	<path class="st0" d="M355.4,129.9c0.1-1.3,0.1-2.6,0.3-3.9c0.2-1.3,0.6-2.5,1.5-3.5c1.7-1.7,4.5-1.5,6.2,0.3
		c1.1,1.2,1.8,2.5,2.1,4.1c0.7,3.6,0.6,7.2,0.3,10.9c-0.1,0.9-0.3,1.8-0.3,2.7c0,0.4,0,0.8,0.1,1.3c0.1,0.5-0.1,0.9-0.8,0.9
		c-1.6,0.1-3.3,0.4-4.9,0.3c-4.4-0.3-8.3-1.8-11.7-4.7c-1.2-1-2.1-2.2-2.6-3.7c-0.7-2.2,0-4.3,1.7-5.5c1-0.7,2.3-0.9,3.5-0.7
		c1.4,0.3,2.7,0.8,4.1,1.2C355,129.7,355.2,129.8,355.4,129.9z M361,122.3c0.4,0.5,0.7,0.9,1.1,1.2c0.6,0.4,1,0.8,1.2,1.5
		c0.7,2,1.2,4,1.4,6.1c0,0.2,0.1,0.4,0.1,0.5c0.1-2.4,0-4.7-1.1-6.9C363.1,123.6,362.4,122.7,361,122.3z M360.3,122.2
		c-2.3-0.3-4.2,2.3-3.8,5c0-0.1,0.1-0.1,0.1-0.2c0.1-1.3,0.7-2.5,1.5-3.5c0.2-0.2,0.4-0.5,0.7-0.5
		C359.5,123.2,359.7,122.6,360.3,122.2z M350.4,133.7c1.5,1.5,3.3,2.6,5.3,3.4C354.2,135.5,352.4,134.5,350.4,133.7z M357.3,135.3
		c-1.8-1.2-3.5-2.6-5.4-3.6c0.2,0.2,0.4,0.4,0.6,0.5c1.2,1,2.5,1.9,3.7,2.9C356.5,135.4,356.8,135.6,357.3,135.3z M363.1,141.6
		c0-0.1,0-0.2,0-0.3c-0.2,0-0.4-0.1-0.6-0.1c-0.6,0-1.1,0.2-1.7,0.1c-0.7-0.1-1.5-0.2-2.2-0.3c-0.4-0.1-0.4-0.1-0.5,0.6
		C359.8,141.6,361.5,141.6,363.1,141.6z M360.5,128.4c0.4-0.6-0.1-2.7-1-3.4C359.8,126.1,360.1,127.2,360.5,128.4z M359.2,138.6
		c-1-0.7-1.5-1.7-2.5-2.4c0.4,0.7,0.8,1.2,1.1,1.7C358,138.4,358.4,138.6,359.2,138.6z M358.2,130.5c0,1.4,0.6,3,1.2,3.1
		C359,132.6,358.6,131.5,358.2,130.5z M356.5,141.1c0-0.1,0.1-0.1,0.1-0.2c-0.7-0.3-1.4-0.7-2.1-1c-0.2-0.1-0.6,0-0.9,0
		c0,0.1,0,0.2,0,0.3C354.6,140.5,355.6,140.8,356.5,141.1z M358.5,125.1c-0.3,1-0.2,2.1,0.4,2.7C359,125.9,358.9,125.6,358.5,125.1z
		 M350.9,129.5c0,0.1,0,0.2-0.1,0.2c0.3,0.1,0.6,0.1,0.8,0.2c0.2,0.2,0.4,0.4,0.6,0.7c0.2-0.1,0.4-0.3,0.6-0.3
		c0.2,0,0.4,0.1,0.6,0.1c0.2,0.1,0.4,0.1,0.6,0.2c0-0.1,0-0.1,0.1-0.2C353,130.2,351.9,129.8,350.9,129.5z M350.1,129.7
		c-1-0.2-1.9,0.1-2.4,0.8C348.5,130.3,349.2,130,350.1,129.7z M360.2,133.8c-0.3,0.8,0,1.3,0.9,1.7
		C360.7,134.9,360.5,134.4,360.2,133.8z M360.1,123.2c0.4,0.4,0.7,0.7,1.1,1C361.2,123.3,360.8,123,360.1,123.2z M356.5,127.4
		c-0.3,1-0.2,2.7,0.2,3.1C356.6,129.5,356.5,128.5,356.5,127.4z M347.9,135.9c0,0.1-0.1,0.1-0.1,0.2c0.8,0.7,1.6,1.4,2.4,2.2
		c0,0,0.1-0.1,0.1-0.1c-0.4-0.3-0.8-0.7-1.2-1C348.6,136.6,348.2,136.2,347.9,135.9z M360.9,139.1c0-0.1,0.1-0.1,0.1-0.2
		c-0.6-0.5-1.2-1-1.9-1.5c-0.1,0.1-0.1,0.1-0.2,0.2C359.7,138.1,360.3,138.6,360.9,139.1z M364.6,136c0.1,0,0.2,0,0.3,0
		c0-0.6,0.1-1.1,0.1-1.7c-0.1,0-0.2,0-0.3,0C364.6,134.9,364.6,135.4,364.6,136z"/>
	<g>
		<path class="st0" d="M128.9,358.4c0-3.5,2.4-5.2,5.1-4.3c1,0.3,1.8,1.1,2.8,1.6c2.2,1.3,4.3,3,6.7,3.9c11.2,3.9,22.7,7.4,34.7,7.2
			c8.2-0.1,16.4-1.3,24.5-2.4c27.1-3.6,53.4-11.1,79.6-18.9c16.6-4.9,33.7-7.5,51.2-7.3c10.2,0.1,18.6,4.6,26.1,11
			c0.9,0.7,1.9,1.7,2.1,2.7c0.3,1.2,0.2,2.7-0.4,3.8c-0.8,1.4-2.4,1.5-3.9,0.8c-0.8-0.4-1.6-0.9-2.3-1.6c-7.4-6.6-16-9.7-25.9-9.6
			c-17.7,0.3-34.9,3.3-51.8,8.7c-20.3,6.6-40.8,12.6-61.8,16.4c-10.9,2-21.9,3.4-33,4.4c-15.5,1.4-30.4-1.5-44.8-7.4
			c-3.1-1.3-5.7-3.2-7.5-6C129.6,360.4,129.2,359.1,128.9,358.4z"/>
		<path class="st0" d="M128.3,381.9c0.7,0.4,1.9,1,3.1,1.8c2.3,1.4,4.5,3.2,7.1,4.1c13.1,4.5,26.4,8.1,40.4,7
			c8.3-0.7,16.7-1.6,24.8-3.2c14.3-2.8,28.5-6,42.6-9.4c9.4-2.3,18.8-5.1,28.1-7.8c17.7-5.2,35.8-8.3,54.3-8
			c10.1,0.2,18.4,4.7,25.9,11.1c2.6,2.3,3.1,4.7,1.5,6.3c-1.6,1.7-3.7,1.5-6.4-0.9c-7.3-6.5-15.9-9.6-25.7-9.4
			c-18.6,0.3-36.5,3.8-54.2,9.5c-19.5,6.3-39.1,12.1-59.3,15.6c-10.9,1.9-21.9,3.4-33,4.3c-15.5,1.4-30.4-1.5-44.8-7.4
			c-3.1-1.3-5.8-3.2-7.6-6.2c-0.7-1.2-1.2-2.7-1.2-4C123.7,383.2,125.5,381.8,128.3,381.9z"/>
	</g>
</g>
</svg>
