<?xml version="1.0" encoding="utf-8"?>
<!-- Generator: Adobe Illustrator 22.0.0, SVG Export Plug-In . SVG Version: 6.00 Build 0)  -->
<svg version="1.1" id="Layer_1" xmlns="http://www.w3.org/2000/svg" xmlns:xlink="http://www.w3.org/1999/xlink" x="0px" y="0px"
	 viewBox="0 0 500 500" style="enable-background:new 0 0 500 500;" xml:space="preserve">
<style type="text/css">
	.st0{fill:#0C0C0C;}
	.st1{fill:#FFFFFF;}
</style>
<g>
	<g>
		<g>
			<path class="st0" d="M224.7,363h49.7c4.7-6.1,6.5-13.4,5.3-21.5c-2.1-13.8-13.3-24.6-26.9-25.9c-13.9-1.4-27,6.8-31.6,19.9
				c-3,8.5-2.4,16.8,1.8,24.7C223.6,361.2,224.2,362.1,224.7,363z M249.8,332.6c7,0,12.9,6,13,13c0.1,7.1-5.7,13.1-12.7,13.3
				c-7.1,0.2-13.5-5.9-13.6-13C236.4,338.9,242.7,332.6,249.8,332.6z"/>
		</g>
		<g>
			<path class="st0" d="M431.4,325c7.2,0,12.9,0.1,18.6,0c3.2-0.1,4.8,0.6,4.7,4.3c-0.2,7.3-0.2,14.6,0,21.9c0,2.8-0.8,4.2-3.8,4.1
				c-3.6-0.2-7.2,0-10.9,0c-1.7-4.9-0.4-9.5-1.1-14c-2-1.5-4.3-0.8-6.5-0.8c-46.5,0.1-93,0.3-139.4,0.6c-5.2,0-8-0.8-9.8-6.8
				c-4.5-15.2-18.8-24.5-34.7-24.1c-15.3,0.4-28.7,10.8-33.1,25.8c-0.5,1.7-0.9,3.3-1.8,6.3c-11.5,0-23.1-0.2-34.7,0
				c-22.3,0.4-44.6,0.5-66.8-1.4c-25.9-2.3-38.2-14.9-36.2-41c2.7-36.5,10.8-71.8,28.1-104.6c10.7-20.3,25.3-36.1,48-42.9
				c-2.3-6.8-1.6-8.8,5.5-12.2c12.2-5.9,25.2-8.8,38.5-11.1c20.7-3.6,41.4-6.1,62.2-1.9c8.7,1.8,17.9,2.8,24.3,10.5
				c1.6,1.9,4.6,1,7,1.2c20.9,1.6,41.5,4.7,60.8,13.2c32.3,14.2,53.1,39.1,65.7,71.4c9.5,24.4,14.6,50,19.8,75.6
				C437.7,307.6,436.3,315.9,431.4,325z M291.6,161.2c-24.9-3.5-49.3-3.5-73.8-0.3c0,16.3,0,32.1,0,48.5c24.8,0,49.3,0,73.8,0
				C291.6,193.3,291.6,177.5,291.6,161.2z M202.2,164.3c-1-0.1-1.5-0.3-2-0.2c-17.8,4-34.6,10.3-49.1,21.7c-6.3,5-11.8,10.8-16,17.7
				c-2.4,4-1.1,6.6,3.5,7.3c1.2,0.2,2.4,0.1,3.6,0.1c17.5-0.4,35.1-0.7,52.6-1.2c2.4-0.1,4.9,0.3,7.4-0.9
				C202.2,194,202.2,179.3,202.2,164.3z M307.3,209.4c21.3,0.5,42.1,1.1,63,1.3c5.6,0,6.9-3.2,3.8-7.9
				c-9.7-14.8-23.7-24.2-39.7-30.9c-8.6-3.6-17.4-6.6-27-7.9C307.3,179.2,307.3,193.9,307.3,209.4z"/>
		</g>
	</g>
	<g>
		<path class="st0" d="M430.4,199.2c0,1.8-1.4,3.3-3.2,3.3c-1.8,0-3.3-1.4-3.3-3.2c0-1.8,1.4-3.3,3.2-3.3
			C428.9,196,430.4,197.4,430.4,199.2z"/>
		<g>
			<path class="st0" d="M413.7,163.9c-0.2,1.8-0.8,3.6-0.5,5.3c0.4,1.7,1.6,3.3,2.8,4.7c1.2,1.3,2.8,2.3,4.1,3.6
				c-5.5-1.8-10.7-4.1-11.8-10.7c-0.9-5.1,0.8-9.6,3.8-13.6c0.2-0.3,0.5-0.6,0.7-0.9c4.1-5.6,3.9-8.9-0.8-14.4
				c-0.2-0.2-0.3-0.5-0.5-0.9c9.3,3.5,14.7,11.6,9.6,21.9c-0.6,1.2-1.6,2.2-0.1,3.5c1.3,1.1,2.5,1.1,3.9,0.3
				c1.4-0.9,1.7-2.1,1.3-3.7c-0.2-0.8-0.5-1.6-0.8-2.5c3.1,0,5.3,2,5.6,5.3c0.3,3.2-1,8.2-5.6,9.5
				C420.9,172.7,417.4,170.3,413.7,163.9z"/>
			<path class="st0" d="M446.5,184.9c-3.2,0.9-3.8,2.9-3.1,5.7c-2.5-1.3-4.5-2.5-6.6-3.6c-0.1,0.1-0.2,0.2-0.3,0.2
				c0.9,1.5,1.7,2.9,2.3,3.9c-1.8,1.4-3.5,2.6-5.2,3.9c-0.5-0.7-1.3-1.8-2.4-3.2c-0.2,1.7-0.3,3-0.4,4c-2.1-0.1-4.1-0.3-6.2-0.4
				c0-1.3,0-3.1,0-4.9c-0.2-0.1-0.3-0.2-0.5-0.3c-1.2,1.7-2.4,3.3-3.4,4.7c-1.8-1.3-3.4-2.4-5.3-3.8c0.6-1,1.5-2.4,2.3-3.8
				c-0.1-0.1-0.2-0.3-0.2-0.4c-2.1,1.1-4.1,2.2-5.9,3.1c-1-1.8-1.9-3.6-3-5.8c1.7-1,3.9-2.3,6.2-3.6c0.6-0.4,1.3-0.6,1.8-1
				c1-0.6,1.5-0.5,2.6,0.3c2.3,1.8,4.9,3.4,7.6,4.7c1,0.4,2.8,0,3.7-0.7c6.2-4.7,6.2-4.7,13.2-0.9
				C444.4,183.6,445.2,184.1,446.5,184.9z"/>
			<path class="st0" d="M427.4,175.9c1.8-0.9,3.7-1.7,5.4-2.9c5.8-3.8,7.7-10.2,4.9-16.9c-2.1-5.1-3.3-10.3-2.7-15.8
				c0.2-2.2,0.8-4.3,1.2-6.5c0.3,0,0.5,0,0.8,0c1.3,3.8,2.4,7.7,3.8,11.4c1.6,4.5,3.8,8.9,5.1,13.5c2.6,9.7-3.6,16.4-12.9,17.4
				c-1.8,0.2-3.6,0-5.4,0C427.5,176.2,427.5,176.1,427.4,175.9z"/>
			<path class="st0" d="M424.1,143.1c-4.9-9.4-3.2-19.4,7.3-22.6c-1.8,3.1-2.2,6.1-1.4,9.3c0.5,2,1.4,3.8,1.9,5.7
				c1.2,4.3,1.8,8.6-0.5,12.7c-0.3,0.6-0.8,1.1-1.4,1.6c0.7-5.9-1.2-10.8-4.7-15.5C423.4,137,425,140.1,424.1,143.1z"/>
			<path class="st0" d="M450.5,189.2c-0.1,1.7-1.7,3.2-3.4,3.1c-1.9-0.1-3.1-1.5-3-3.4c0.1-1.9,1.4-3.1,3.4-3.1
				C449.2,185.9,450.6,187.4,450.5,189.2z"/>
			<path class="st0" d="M406.7,185.8c1.8,0,3.2,1.5,3.2,3.3c-0.1,1.8-1.6,3.2-3.4,3.1c-1.8-0.1-3.3-1.7-3.2-3.3
				C403.3,187.2,404.9,185.7,406.7,185.8z"/>
			<path class="st0" d="M418.9,196.3c0,2.1-1.2,2.9-3.1,3.1c-1.8,0.2-3.4-1.5-3.4-3.3c0.1-1.9,1.4-3.1,3.4-3.1
				C417.8,193.1,418.9,194.3,418.9,196.3z"/>
			<path class="st0" d="M441.4,196.3c0,1.9-1.4,3.2-3.3,3.2c-1.8-0.1-3.2-1.6-3.2-3.3c0-1.9,1.4-3.1,3.3-3.1
				C440.2,193.1,441.4,194.3,441.4,196.3z"/>
		</g>
	</g>
	<g>
		<path class="st0" d="M80.6,199.2c0,1.8-1.4,3.3-3.2,3.3c-1.8,0-3.3-1.4-3.3-3.2c0-1.8,1.4-3.3,3.2-3.3
			C79.1,196,80.6,197.4,80.6,199.2z"/>
		<g>
			<path class="st0" d="M63.9,163.9c-0.2,1.8-0.8,3.6-0.5,5.3c0.4,1.7,1.6,3.3,2.8,4.7c1.2,1.3,2.8,2.3,4.1,3.6
				c-5.5-1.8-10.7-4.1-11.8-10.7c-0.9-5.1,0.8-9.6,3.8-13.6c0.2-0.3,0.5-0.6,0.7-0.9c4.1-5.6,3.9-8.9-0.8-14.4
				c-0.2-0.2-0.3-0.5-0.5-0.9c9.3,3.5,14.7,11.6,9.6,21.9c-0.6,1.2-1.6,2.2-0.1,3.5c1.3,1.1,2.5,1.1,3.9,0.3
				c1.4-0.9,1.7-2.1,1.3-3.7c-0.2-0.8-0.5-1.6-0.8-2.5c3.1,0,5.3,2,5.6,5.3c0.3,3.2-1,8.2-5.6,9.5C71.1,172.7,67.6,170.3,63.9,163.9
				z"/>
			<path class="st0" d="M96.7,184.9c-3.2,0.9-3.8,2.9-3.1,5.7c-2.5-1.3-4.5-2.5-6.6-3.6c-0.1,0.1-0.2,0.2-0.3,0.2
				c0.9,1.5,1.7,2.9,2.3,3.9c-1.8,1.4-3.5,2.6-5.2,3.9c-0.5-0.7-1.3-1.8-2.4-3.2c-0.2,1.7-0.3,3-0.4,4c-2.1-0.1-4.1-0.3-6.2-0.4
				c0-1.3,0-3.1,0-4.9c-0.2-0.1-0.3-0.2-0.5-0.3c-1.2,1.7-2.4,3.3-3.4,4.7c-1.8-1.3-3.4-2.4-5.3-3.8c0.6-1,1.5-2.4,2.3-3.8
				c-0.1-0.1-0.2-0.3-0.2-0.4c-2.1,1.1-4.1,2.2-5.9,3.1c-1-1.8-1.9-3.6-3-5.8c1.7-1,3.9-2.3,6.2-3.6c0.6-0.4,1.3-0.6,1.8-1
				c1-0.6,1.5-0.5,2.6,0.3c2.3,1.8,4.9,3.4,7.6,4.7c1,0.4,2.8,0,3.7-0.7c6.2-4.7,6.2-4.7,13.2-0.9C94.6,183.6,95.4,184.1,96.7,184.9
				z"/>
			<path class="st0" d="M77.6,175.9c1.8-0.9,3.7-1.7,5.4-2.9c5.8-3.8,7.7-10.2,4.9-16.9c-2.1-5.1-3.3-10.3-2.7-15.8
				c0.2-2.2,0.8-4.3,1.2-6.5c0.3,0,0.5,0,0.8,0c1.3,3.8,2.4,7.7,3.8,11.4c1.6,4.5,3.8,8.9,5.1,13.5c2.6,9.7-3.6,16.4-12.9,17.4
				c-1.8,0.2-3.6,0-5.4,0C77.7,176.2,77.7,176.1,77.6,175.9z"/>
			<path class="st0" d="M74.3,143.1c-4.9-9.4-3.2-19.4,7.3-22.6c-1.8,3.1-2.2,6.1-1.4,9.3c0.5,2,1.4,3.8,1.9,5.7
				c1.2,4.3,1.8,8.6-0.5,12.7c-0.3,0.6-0.8,1.1-1.4,1.6c0.7-5.9-1.2-10.8-4.7-15.5C73.6,137,75.2,140.1,74.3,143.1z"/>
			<path class="st0" d="M100.7,189.2c-0.1,1.7-1.7,3.2-3.4,3.1c-1.9-0.1-3.1-1.5-3-3.4c0.1-1.9,1.4-3.1,3.4-3.1
				C99.4,185.9,100.8,187.4,100.7,189.2z"/>
			<path class="st0" d="M56.9,185.8c1.8,0,3.2,1.5,3.2,3.3c-0.1,1.8-1.6,3.2-3.4,3.1c-1.8-0.1-3.3-1.7-3.2-3.3
				C53.5,187.2,55.1,185.7,56.9,185.8z"/>
			<path class="st0" d="M69.1,196.3c0,2.1-1.2,2.9-3.1,3.1c-1.8,0.2-3.4-1.5-3.4-3.3c0.1-1.9,1.4-3.1,3.4-3.1
				C68,193.1,69.1,194.3,69.1,196.3z"/>
			<path class="st0" d="M91.6,196.3c0,1.9-1.4,3.2-3.3,3.2c-1.8-0.1-3.2-1.6-3.2-3.3c0-1.9,1.4-3.1,3.3-3.1
				C90.4,193.1,91.6,194.3,91.6,196.3z"/>
		</g>
	</g>
	<g>
		<path class="st0" d="M81.6,415.6c-1.7,9.8-16.6,5.7-14.9-4c0.6-4.4,3.6-26.2-5.9-23.7c-8.8,2.3-10.1,17.6-10.9,24.9
			c-1.3,11.1-1,23.7,3.4,34.2c1,2.5,4.4,8.8,6.9,8.6c4.2-0.4,5.9-7.8,5.9-10.9c0-9.8,15.3-9.8,15.3,0c-0.2,18.4-20.1,35.8-35.4,19.1
			c-12.4-13.6-13.2-36.2-11.1-53.4c1.9-15.9,7.3-38.6,27.4-38.8c22.2-0.2,21.6,28.1,19.1,43.4L81.6,415.6z"/>
		<path class="st0" d="M150.7,423.2c0.2,0.6,0.4,1.3,0.6,1.9c1.9,3.6,0.6,8.8-2.9,10.7c-0.2,9.6-0.6,19.3-1.3,28.9
			c-0.6,7.8-12.2,10.7-14.9,3.1c-0.4-0.6-0.6-1.3-0.8-1.9c0-0.2,0-0.4,0-0.6c-0.4-1.9-0.2-3.6,0.4-5c0.6-8.2,1-16.6,1-24.9
			c-6.5-0.4-13-0.4-19.5-0.2c-0.8,9.6-1.5,19.3-1.5,28.9c0,9.8-15.3,9.8-15.3,0c0-9.2,0.4-18.4,1.3-27.7c-0.8,0-1.7,0-2.5,0
			c-4.2,0.4-7.8-4-7.8-7.8c0-4.4,3.6-7.1,7.8-7.5c1.5-0.2,2.9-0.4,4.4-0.6c0.2-1.5,0.4-2.9,0.6-4.4c2.1-14.2,4.8-34.4,19.7-40.9
			c8-3.4,16.8-1.5,22,5.4c5,6.7,5.2,15.7,5.7,23.7c0.2,5,0.4,10.1,0.6,15.1c0.8,0.6,1.5,1.5,2.1,2.7L150.7,423.2z M133.1,420.3
			c0-1.5,0-2.9,0-4.4c-0.2-6.9,0-14.7-1.7-21.4c-1.3-4.8-4.2-6.5-8-2.1c-3.6,4.2-4.6,10.9-5.9,16.3c-0.8,3.8-1.5,7.5-2.1,11.5
			C121.4,420,127.3,420,133.1,420.3z"/>
		<path class="st0" d="M239.8,389c1.9,8.2,2.3,16.8,2.5,25.1c0.2,16.8-0.6,33.5-2.3,50.3c-0.8,9.8-16.1,9.8-15.3,0
			c1.3-13.4,2.1-26.8,2.3-40.2c0-6.5,0-13.2-0.4-19.7c-0.4-5.2-0.8-11.9-3.4-16.6c0,0,0-0.2,0-0.4c-1.3,2.3-3.1,4.4-4.4,6.9
			c-2.3,4.6-3.8,9.6-5,14.7c-2.9,11.9-4.6,24.3-6.3,36.5c-0.6,4.2-5.9,6.5-9.4,5.4c-2.9-0.8-4.6-3.1-5.2-5.9
			c-0.4-0.8-0.6-1.9-0.6-3.1c0-13-0.8-26-2.9-38.8c-0.8-5-1.3-12.2-4-16.8c-1-1.9-0.8-1.5-1.9-0.8c-1.5,0.8-2.5,4-3.1,5.4
			c-4.2,10.7-3.8,23.5-4.4,34.8c-0.6,12.6-0.6,25.1-0.2,37.7c0.2,9.8-15.1,9.8-15.3,0c-0.4-16.8,0-33.5,1.3-50.3
			c1-13.4,1.9-30.8,13-40c5.4-4.6,12.8-4.8,18.6-0.8c6.5,4.6,8.2,12.6,9.6,19.9c4.6-11.1,14.2-27.4,27.4-19.9
			c5.9,3.4,8.4,9.8,9.8,16.1L239.8,389z"/>
		<path class="st0" d="M288.6,375.4c9.4,3.4,16.1,11.5,17,21.6c1.5,18.4-17,34.2-33.1,40c0,6.3,0,12.6,0,18.9c1,1.5,1.5,3.4,0.8,5.7
			c-0.4,1.5-0.8,2.9-1.3,4.4c-2.1,8.6-15.1,6.5-15.1-2.1c0-24.7,0-49.4,0-74.2c-9.2,0-8.8-14.7,0.8-15.3c10.1-0.6,21.4-2.7,31.2,0.6
			L288.6,375.4z M281.5,413.8c3.8-3.8,8.6-9.6,8.6-15.3c0-8.6-9-10.1-17.8-9.6c0,10.5,0,21,0,31.4c3.6-1.7,6.7-4,9.4-6.7
			L281.5,413.8z"/>
		<path class="st0" d="M308.9,465.5c-0.2-14.7,0.2-29.1,1.3-43.6c1-13.6,2.5-27.7,0.2-41.3c-1.7-9.6,13.2-13.8,14.9-4.2
			c2.5,14.5,1.7,28.9,0.6,43.4c-1,13.2-1.7,26.4-1.7,39.6c0.6,1,1,2.1,1.3,3.4c0.2,2.9-1,5.9-3.4,7.8c-5,4.4-13,1.7-13.2-5.2V465.5z
			"/>
		<path class="st0" d="M377.4,379.4c-0.8-9.8,14.5-9.8,15.3,0c1.7,17.6,2.1,35.2,1.3,52.8c-0.4,11.9-0.6,37.5-18,37.3
			c-17-0.2-21-22.6-24.3-35c-0.4-1.9-0.8-3.8-1.3-5.7c0.2,10.3,0.4,20.5,0.6,30.8c0.4,1.3,0.6,2.7,0.2,4.4c-0.2,0.8-0.4,1.7-0.6,2.5
			c-1.7,8.8-14.9,6.3-15.1-2.1c-0.4-27.7-0.8-55.3-1.3-83c0-6.3,6.1-8.6,10.7-6.9c3.6-0.8,7.5,0.6,8.8,5.2
			c3.6,13.6,7.1,27.2,10.7,40.9c1.7,6.7,3.4,13.4,5.2,20.1c0.8,2.7,1.7,5.4,2.9,8c0.8,1.9,2.5,3.4,3.6,5c0.2-1.3,1-2.9,1.3-4.2
			c0.6-2.7,0.8-5.4,1-8.2c0.4-6.5,0.6-13,0.6-19.5c0.2-14-0.4-27.9-1.7-41.7V379.4z"/>
		<path class="st0" d="M436.3,469.5c-14.9,5.4-27.9-4.6-31.8-18.9c-4.4-16.3-2.7-35.2,1.5-51.3c3.6-14.2,11.7-30.2,28.7-30.4
			c17.4-0.2,22,16.8,21.4,30.8c-0.4,9.8-15.7,9.8-15.3,0c0.2-4,1-11.1-2.3-14c-4-3.6-9.8,0.6-12.2,4c-3.8,5.4-5.2,12.6-6.5,18.9
			c-1.5,7.3-2.1,14.7-2.1,22c0,7.1-0.2,26.6,11.3,25.4c11.5-1.3,13.4-14.5,13.2-24.3c-4.2-0.4-8.2-0.8-12.2-1.3
			c-4.2-0.4-7.8-2.9-7.8-7.5c0-3.8,3.6-8.2,7.8-7.8c8.2,1,16.3,1.7,24.5,1.9c5.4,0.2,8.2,4.8,7.5,9.8c-1.7,11.5-2.3,23.3-2.1,35
			c0.2,0.8,0.4,1.9,0.4,2.9c0,1.3,0,2.5,0,3.8c-0.4,9.8-14.9,9.8-15.3,0c0-1,0-2.1,0-3.1c-2.3,1.9-5,3.4-8.2,4.6L436.3,469.5z"/>
	</g>
	<g>
		<path class="st0" d="M63.4,109.7c0.2,1.9,0.3,3.3,0.1,4.4c-0.2,1.1-1.1,1.9-2.6,2.4c-1.5,0.5-4,0.7-7.6,0.8
			c-2.3,0.1-3.8-0.1-4.6-0.6c-0.7-0.6-1.2-1.9-1.4-3.9c-0.5-3.6-0.8-7.4-1-11.3c-0.2-3.9-0.2-7.7-0.3-11.3
			c-0.2-12.2-0.1-24.4,0.3-36.6c0.1-1.4,0.3-2.5,0.8-3.3c0.6-0.8,1.5-1.3,2.8-1.4c1.1-0.1,2.4-0.1,3.7-0.1c0.4,0,0.7,0,1.1,0
			c0.2,0,0.5,0,0.8,0c0.8-0.1,1.6-0.1,2.6-0.1c1,0.1,1.9,0.2,2.6,0.5c0.7,0.3,1.2,0.8,1.4,1.6c0.1,0.6,0.2,1.5,0.2,2.5
			c-0.1,1.1-0.1,2-0.2,3c0,0.5,0,0.9-0.1,1.3c-0.7,17.1-0.2,34.2,1.4,51.3C63.3,109.3,63.3,109.5,63.4,109.7z M47.2,27.3
			c0.4-1.1,1.2-2,2.5-2.5c1.3-0.5,3.3-0.7,6.1-0.7c3.3,0.1,5.5,0.7,6.6,1.9c1.1,1.2,1.5,3.5,1.1,6.8c0,0.3,0,0.7-0.1,1.1
			c0,1.4-0.2,2.8-0.4,4.1c-0.3,1.3-1,2.3-2.1,2.9c-1.1,0.5-2.7,0.7-4.8,0.7c-2.1,0-3.8-0.1-5-0.1c-1-0.1-1.8-0.2-2.5-0.5
			c-0.7-0.3-1.2-1-1.7-2L47,39.1c-0.1-0.3-0.2-0.5-0.2-0.8c-0.1-0.2-0.1-0.5-0.1-0.8c0-0.3,0-0.5,0-0.8c0.1-1.6,0.1-3.3,0.1-4.9
			C46.7,30,46.9,28.5,47.2,27.3z"/>
		<path class="st0" d="M72.2,32.4c0.1-0.5,0.1-1,0.2-1.5c0.3-1.2,1-2.3,2-3c1.1-0.7,2.2-1.1,3.5-1.1h0.2c1.4,0.1,2.5,0.4,3.3,1.1
			c0.8,0.7,1.2,1.5,1.2,2.5c0,0.2,0,0.5-0.1,0.7c-0.2,1.4-0.2,2.7-0.2,4.1c0,1.5,0.1,3,0.3,4.5c0,0.2,0,0.4,0.1,0.6
			c0.1,1.2,0.2,2.5,0.2,3.7c0,0.6-0.1,1.2-0.1,1.9c-0.3,2.4-1.8,3.9-4.7,4.5c-0.3,0.1-0.6,0.1-0.8,0.1c-1,0-1.9-0.2-2.6-0.7
			c-1-0.6-1.6-1.4-1.9-2.5c-0.1-0.1-0.1-0.1-0.1-0.1l-0.1-0.6c-0.1-0.6-0.1-1.3-0.1-2c-0.2-3-0.3-6-0.4-9c0-0.5,0.1-1.1,0.2-1.6
			c0.1-0.2,0.1-0.5,0.1-0.7h-0.1C72.2,32.9,72.2,32.7,72.2,32.4z"/>
		<path class="st0" d="M88.1,26.6c0.6-0.5,1.1-0.7,1.7-0.7h0.1c10.3,0.5,18.9,2.9,26,7.2c7,4.2,11.8,10.9,14.3,19.9
			c1.1,3.8,1.6,7.7,1.6,11.8c0,3-0.3,6.2-0.9,9.3c-1.5,7.4-5,14.4-10.5,21c-1.4,1.6-3.7,3.9-6.8,6.7c-3.1,2.9-6.4,5.5-9.9,7.9
			c-3.5,2.4-6.6,3.8-9.2,4.2c-0.4,0.1-0.8,0.1-1.2,0.1c-1.5,0-3-0.4-4.3-1.2c-1.6-1.1-2.6-3.1-2.9-6.2c-0.6-7.5-0.9-14.4-1-20.7
			c-0.1-6.4-0.1-10.6-0.1-12.7c0-8.3,0.1-16.2,0.3-23.8c0.3-9.5,0.8-16.3,1.5-20.4C87.1,27.8,87.5,27,88.1,26.6z M105.4,41
			c-0.3,0-0.6,0.1-0.8,0.2c-0.8,0.5-1.4,1.3-1.5,2.6c-0.8,6.6-1.3,13.4-1.4,20.2c-0.1,6.8-0.2,12.3-0.2,16.4s0,8.1,0.1,11.8
			c0,1,0.1,1.7,0.3,2.4c0.2,0.6,0.6,0.9,1.4,0.9h0.3c0.9-0.2,2.3-1,4.3-2.4c3.8-3,6.9-6.8,9.1-11.5c2.3-4.7,3.5-8.4,3.7-11.4
			c0.2-3,0.3-4.9,0.3-5.6c0-4.3-0.8-8.3-2.4-12.1c-1.9-4.4-5-7.8-9.3-10.2C107.6,41.5,106.3,41,105.4,41z"/>
		<path class="st0" d="M198.1,113.8c-0.5-2-1.2-4.6-2.1-7.9c-1-3.3-1.9-6.3-2.9-9c-1-2.7-1.9-4.2-2.8-4.3h-0.5
			c-1.4,0-2.5,0.3-3.5,0.8c-1.1,0.6-1.9,1.2-2.1,1.9c-0.6,1.2-0.9,2.6-0.9,4.3c-0.1,1.6,0.1,3.3,0.2,4.9c0.1,0.2,0.1,0.3,0.1,0.5
			c0,0.1,0,0.2,0.1,0.3c0.3,2.9,0.4,5.1,0.4,6.6c0,0.6,0,1-0.1,1.4c-0.2,1.4-1,2.1-2.3,2.1c-1.7,0.2-3.9,0.3-6.3,0.4
			c-2.5,0.1-4.6,0.1-6.5,0.1c-0.9-0.1-1.6-0.8-2-2.2c-0.4-1.4-0.7-2.9-0.7-4.6c-0.1-1.7-0.1-3.4-0.1-4.8v-7.5
			c0-8.8,0.2-17.8,0.5-26.8c0.4-10.6,1.2-21.1,2.5-31.4c0.6-4.5,1.5-7.8,2.8-9.7c1.3-2,2.7-3.2,4.2-3.5c1.5-0.3,2.9-0.5,4.3-0.5
			c0.8,0,1.7,0.1,2.7,0.2c10.8,1,19.3,4.2,25.3,9.7c4.7,4.6,7.1,8.5,7.4,11.9c0.3,3.4,0.4,5.6,0.4,6.5c0,4.8-1,9.5-2.8,14
			c-2.2,5.5-5,9.9-8.3,13.5c-0.7,0.7-1.3,1.5-1.9,2.4c-0.6,0.9-0.8,1.7-0.8,2.5c0,0.2,0,0.4,0.1,0.6c0.3,1.3,0.8,3.1,1.6,5.4
			c0.8,2.3,1.6,4.7,2.6,7.3c1.9,5.1,3.4,9.3,4.3,12.6c0,0.2,0.1,0.3,0.1,0.5c0,1.4-0.9,2.4-2.6,3.2c-1.9,0.8-3.8,1.2-5.9,1.2h-0.3
			c-2.2-0.1-3.5-0.7-4-1.9C198.1,114.1,198.1,114,198.1,113.8z M189.7,38.9c-0.7,0-1.2,0.1-1.7,0.4c-1.4,0.8-2.1,2.3-2.4,4.3
			c-1,5.2-1.7,10.5-2.3,15.7c-0.5,5.2-0.8,9.6-0.8,13c0,2.4,0.1,4.6,0.3,6.7c0.2,1.3,0.8,2,2,2c0.6,0,1.4-0.2,2.2-0.6
			c2.5-1.1,5.3-3.1,8.3-6.2c3-3.1,5.4-6.7,7.2-10.8c1.1-2.7,1.7-5.4,1.7-8.1c0-1.4-0.2-2.8-0.5-4.2c-0.8-4.2-3.5-7.6-8-10.3
			C193.2,39.6,191.2,38.9,189.7,38.9z"/>
		<path class="st0" d="M219.9,74c1.1-5.5,2.5-11.4,4.2-17.7c1.7-6.3,3.7-12,6-17.2c2.3-5.1,4.8-8.8,7.5-10.9c1.7-1.2,3.5-1.9,5.3-2
			c1.8-0.2,2.9-0.2,3.3-0.2c2.6,0,5.1,0.6,7.4,1.6c2.8,1.3,4.6,3.6,5.5,6.9c2.1,9.6,3.8,18.2,5,25.9c1.2,7.7,2.3,16.2,3.4,25.3
			l0.1,0.7c0.4,2.6,0.6,4.7,0.8,6c0.1,1.4,0.2,2.6,0.3,3.9c0.1,1.1,0.2,2.5,0.4,4.2c0.2,1.7,0.4,4.3,0.8,7.5v0.6
			c0,2.1-0.7,3.7-2.2,4.8c-1.6,1.2-3.1,2-4.6,2.1c-1.5,0.2-2.5,0.3-3.3,0.3c-1.4,0-2.8-0.2-4-0.6c-1.8-0.6-2.8-1.5-3-2.8
			c-0.1-0.4-0.1-1.1-0.2-2c-0.1-1-0.2-2.1-0.3-3.4c-0.2-1.9-0.3-3.6-0.4-5.4c-0.2-1.7-0.3-2.9-0.3-3.5c-0.2-1.3-0.6-2.1-1.2-2.3
			c-0.6-0.2-1.4-0.3-2.3-0.3c-0.7,0-1.6,0-2.6,0.1c-0.8,0.1-1.7,0.1-2.8,0.2c-1.1,0.1-2.6,0.2-4.5,0.3c-1.9,0.2-3.8,0.5-5.5,0.8
			c-1.8,0.4-3.1,1-3.9,1.6c-0.5,1-0.8,2.8-1,5.5c-0.2,2.6-0.2,5-0.2,7c-0.1,0.8-0.1,1.5-0.1,1.9c-0.2,1.5-1.1,2.5-2.6,2.9
			c-1.6,0.5-2.9,0.7-3.9,0.7c-1,0-2-0.1-2.9-0.4c-2-0.5-3.1-1.6-3.3-3.3c0.2-6.1,0.8-13,1.8-20.3c0.3-2.2,0.5-4.2,0.7-6.1
			C218,83.7,218.8,79.5,219.9,74z M244.9,45.3c-1.2-2.5-2.2-3.7-3.1-3.7c-0.6,0-1.2,0.4-1.8,1.2c-1.5,2-2.9,5.5-4.3,10.4
			c-1.4,5-2.6,10.3-3.6,15.8c-1,5.6-1.7,10.5-2.2,14.5c0,0.2,0,0.3-0.1,0.5c-0.1,0.6-0.1,1.1-0.1,1.6c0,0.6,0.1,1.1,0.2,1.5
			c0.2,0.7,0.8,1.1,1.9,1.1h0.5c6.3-0.5,10.7-1.4,13.3-2.6c2.6-1.2,3.9-2.6,4.1-4.4c0.1-1.7,0.2-2.9,0.2-3.5c0-2.9-0.4-6.8-1.2-11.8
			c-0.1-0.4-0.1-0.8-0.2-1.3C247.2,54.3,246.1,47.8,244.9,45.3z"/>
		<path class="st0" d="M296.8,52.6v3.5c0.1,10,0.5,20.1,1,30.3c0.6,10.2,1,16.8,1.2,19.8c0.1,1.3,0.2,2.4,0.4,3.2
			c0.2,0.8,0.3,1.5,0.3,2.1c0,0.2-0.1,0.5-0.1,0.6c-0.1,0.8-0.6,1.7-1.5,2.6c-0.4,0.3-1.4,0.6-2.9,0.7c-1.6,0.2-3.4,0.3-5.4,0.3
			c-2,0-3.8-0.2-5.4-0.6c-1.6-0.4-2.5-1.1-2.8-2.1c-0.4-1.7-0.7-3.8-0.8-6.2c-0.6-11.9-1-23.4-1-34.6c0-2.2,0.1-4.4,0.1-6.6l0.1-6.5
			c0-6.5-0.1-13.3-0.3-20.2c0-1.1-0.4-1.7-1.2-1.8c-0.8-0.1-1.6-0.2-2.3-0.2c-1,0-2.1,0.1-3.5,0.2c-1,0.1-2.1,0.2-3.4,0.3
			c-0.4,0-0.8,0.1-1.1,0.1c-0.7,0-1.2-0.1-1.7-0.2c-0.6-0.2-1-0.7-1.3-1.6s-0.5-2.4-0.7-4.5c0-0.2-0.1-0.5-0.1-0.7
			c0-1.1,0.3-2,1-2.5c0.8-0.6,2.3-1.1,4.6-1.2c5.1-0.5,9.9-0.8,14.2-0.8c4.4-0.1,7.2-0.1,8.4-0.1c5.8,0,10.5,0.3,14.1,0.7
			c2.3,0.5,3.6,1.2,3.8,2.3c0.3,1.1,0.4,1.9,0.4,2.6c0,0.8-0.1,1.6-0.3,2.5l-0.1,0.9c-0.1,0.9-0.5,1.5-1.1,1.7S308,37,306.9,37
			c-0.5,0-1.2-0.1-2-0.2c-1.4-0.1-2.7-0.2-4.1-0.2c-1.3,0-2.2,0.2-2.6,0.7C297.3,39.6,296.8,44.6,296.8,52.6z"/>
		<path class="st0" d="M356.4,116.8H356c-1.5-0.1-2.4-0.5-2.8-1.2c-0.4-0.7-0.7-1.9-0.8-3.5c-0.1-0.5-0.1-1-0.2-1.6l-1.7-14.7
			c-0.3-1.3-1.3-2.2-2.9-2.6c-1.6-0.4-3.4-0.6-5.3-0.6h-1c-2.3,0.1-4.3,0.2-6.1,0.3c-1.5,0.2-2.4,0.6-2.6,1.1
			c-0.2,0.5-0.3,1.1-0.3,1.7c0,0.3,0,0.7,0.1,1.1v0.5c0.2,2.4,0.3,4.4,0.5,5.9c0.2,1.6,0.3,3,0.4,4.3c0.2,1.1,0.3,2.1,0.3,3
			c0,0.6-0.1,1.2-0.2,1.7c-0.2,1.1-1.1,1.9-2.6,2.4c-1.6,0.5-4.2,0.8-8,0.8c-0.1,0-0.4,0-0.8-0.1c-0.5,0-1,0-1.5-0.1
			c-0.5,0-1,0-1.4-0.1c-0.4-0.1-0.7-0.1-0.7-0.1c-0.6-0.5-1.1-1.1-1.3-1.9c-0.3-0.8-0.4-1.5-0.5-2.1c-0.7-6.1-1.1-12.3-1.1-18.5
			c-0.1-5.1-0.1-10.3-0.1-15.4c0-12,0.2-24,0.6-36c0.1-2.7,0.1-5.4,0.2-8.1c0-0.3,0.1-0.6,0.1-0.9c0-0.3-0.1-0.6-0.1-0.8
			c0-0.3-0.1-0.6-0.1-0.8c0-1,0.2-1.7,0.5-2.3c0.4-0.7,1.6-1.4,3.4-1.9c1.2-0.3,2.5-0.5,3.9-0.5c1.1,0,2.1,0.1,3.3,0.2
			c2.8,0.4,4.7,1.2,5.9,2.5c0.5,0.6,0.7,1.2,0.7,1.7c0,0.5,0,0.8,0,1.1c0,0.6,0,1.2-0.1,1.8l-0.1,0.8c-0.1,1-0.2,2-0.3,3.1
			c-0.2,1.9-0.4,3.8-0.6,5.7c-0.5,6.1-0.8,10.9-0.8,14.5c-0.1,3.7-0.1,6.8-0.1,9.4c0,2.6,0,5.4,0.1,8.2c0,1,0,1.9,0.1,2.9v0.3
			c0,1.5,0.2,2.5,0.7,3c0.4,0.5,1.1,0.7,2.1,0.7c0.2,0,0.5-0.1,0.7-0.1c4.5-0.2,7.8-0.6,9.9-1.2c2.1-0.5,3.3-1.2,3.8-2
			c0.5-0.8,0.7-1.8,0.7-2.9c0-0.2-0.1-0.5-0.1-0.7c-0.2-6.4-0.3-12.7-0.3-19c0-7.7,0.2-15.3,0.4-22.9V33c0-1.1,0.1-2.2,0.3-3.4
			c0.2-1.2,0.5-2,1.1-2.5c0.7-0.4,1.7-0.7,2.8-0.8c1.1-0.1,2.1-0.2,2.9-0.2c0.7,0,1.3,0.1,2,0.1c1.5,0.2,2.6,0.5,3.4,1.1
			c0.6,0.6,0.9,1.5,1,2.6c0,1.1,0,2,0,2.5c0,1.1,0,2.1-0.1,3.1c-0.1,0.5-0.1,1-0.1,1.3c-0.2,5.4-0.3,10.3-0.5,14.8
			c-0.3,7.7-0.5,14.9-0.5,21.7v4c0.1,7.9,0.7,17.4,1.9,28.6c0.1,0.4,0.1,1,0.2,1.6c0.2,1.1,0.4,2.1,0.5,3c0.1,1,0.2,1.6,0.2,2.1
			c0,0.7-0.1,1.4-0.2,2c-0.3,1-0.8,1.6-1.7,1.7C360.1,116.6,357.8,116.8,356.4,116.8z"/>
		<path class="st0" d="M374.2,28.1c0.3-0.5,0.7-1,1.2-1.5c0.5-0.5,1.2-0.7,2-0.7c4.2,0,9.2,0.3,15,0.9c5.9,0.6,10.6,1.7,14.4,3.3
			c1.1,0.6,1.7,1.5,1.7,2.6V33c-0.1,1.3-0.4,2.5-1,3.6c-0.7,1.2-1.3,1.9-1.9,2.1c-0.8,0.2-1.6,0.2-2.5,0.2c-0.5,0-1,0-1.5-0.1
			c-1.4-0.2-2.7-0.3-4.1-0.6c-1.4-0.3-2.4-0.5-3.2-0.6c-0.7-0.1-1.3-0.2-1.6-0.2c-0.9,0-1.7,0.1-2.4,0.4c-1.1,0.5-1.8,2.4-2.3,5.6
			c-0.5,3.2-0.8,6.5-1,10c-0.1,3.4-0.2,6.3-0.2,8.6c0,1.5,0,3,0.1,4.4c0.1,3.5,0.2,5.9,0.3,7c0.2,1,0.6,1.5,1.5,1.5
			c0.8,0,1.4,0,1.5,0c1.5,0,3-0.2,4.8-0.5c2-0.3,3.9-0.5,5.6-0.5h0.5c1,0.2,1.7,0.9,2,2.1c0.3,1.2,0.5,2.3,0.5,3.2
			c0,0.6-0.1,1.2-0.2,1.9c-0.3,1.6-1,2.5-2,2.8c-1.1,0.2-2.3,0.2-3.7,0.3c-2.1,0.1-4,0.2-5.8,0.6c-1.8,0.4-2.9,1.2-3.3,2.5
			c-0.1,0.3-0.1,0.8-0.1,1.5c0,0.7,0.1,1.6,0.1,2.8c0.1,2.2,0.3,4.4,0.7,6.5c0.3,2.1,0.8,3.4,1.3,3.8c0.6,0.2,1.4,0.4,2.3,0.4
			c0.5,0,1-0.1,1.5-0.1c1.6-0.2,3.4-0.5,5.2-0.8c2.5-0.5,4.7-0.8,6.6-0.8c1.5,0.1,2.5,0.6,3,1.8c0.5,1.2,0.8,2.3,0.8,3.2
			c0,0.5-0.1,1.1-0.2,1.6c-0.3,1.6-1.1,2.6-2.5,3.1c-2.5,0.7-5.9,1.4-10.2,2.3c-4.3,0.8-8.6,1.5-12.9,2c-0.7,0.1-1.5,0.2-2.2,0.3
			c-1,0.2-1.9,0.3-2.8,0.3c-1.2,0-2.2-0.2-3.1-0.7c-1.5-0.7-2.5-3.3-3-7.7c-1-7.7-1.6-15.4-2-23.2c-0.4-7.8-0.6-14.6-0.6-20.4
			c0-3.5,0.1-7.1,0.2-10.6c0.3-9.2,1.2-17,2.8-23.2C373.8,29,373.9,28.6,374.2,28.1z"/>
		<path class="st0" d="M447.9,113.8c-0.5-2-1.2-4.6-2.1-7.9c-1-3.3-1.9-6.3-2.9-9c-1-2.7-1.9-4.2-2.8-4.3h-0.5
			c-1.4,0-2.5,0.3-3.5,0.8c-1.1,0.6-1.9,1.2-2.1,1.9c-0.6,1.2-0.9,2.6-0.9,4.3c-0.1,1.6,0.1,3.3,0.2,4.9c0.1,0.2,0.1,0.3,0.1,0.5
			c0,0.1,0,0.2,0.1,0.3c0.3,2.9,0.4,5.1,0.4,6.6c0,0.6,0,1-0.1,1.4c-0.2,1.4-1,2.1-2.3,2.1c-1.7,0.2-3.9,0.3-6.3,0.4
			c-2.5,0.1-4.6,0.1-6.5,0.1c-0.9-0.1-1.6-0.8-2-2.2c-0.4-1.4-0.7-2.9-0.7-4.6c-0.1-1.7-0.1-3.4-0.1-4.8v-7.5
			c0-8.8,0.2-17.8,0.5-26.8c0.4-10.6,1.2-21.1,2.5-31.4c0.6-4.5,1.5-7.8,2.8-9.7c1.3-2,2.7-3.2,4.2-3.5c1.5-0.3,2.9-0.5,4.3-0.5
			c0.8,0,1.7,0.1,2.7,0.2c10.8,1,19.3,4.2,25.3,9.7c4.7,4.6,7.1,8.5,7.4,11.9c0.3,3.4,0.4,5.6,0.4,6.5c0,4.8-1,9.5-2.8,14
			c-2.2,5.5-5,9.9-8.3,13.5c-0.7,0.7-1.3,1.5-1.9,2.4c-0.6,0.9-0.8,1.7-0.8,2.5c0,0.2,0,0.4,0.1,0.6c0.3,1.3,0.8,3.1,1.6,5.4
			c0.8,2.3,1.6,4.7,2.6,7.3c1.9,5.1,3.4,9.3,4.3,12.6c0,0.2,0.1,0.3,0.1,0.5c0,1.4-0.9,2.4-2.6,3.2c-1.9,0.8-3.8,1.2-5.9,1.2H452
			c-2.2-0.1-3.5-0.7-4-1.9C447.9,114.1,447.9,114,447.9,113.8z M439.6,38.9c-0.7,0-1.2,0.1-1.7,0.4c-1.4,0.8-2.1,2.3-2.4,4.3
			c-1,5.2-1.7,10.5-2.3,15.7c-0.5,5.2-0.8,9.6-0.8,13c0,2.4,0.1,4.6,0.3,6.7c0.2,1.3,0.8,2,2,2c0.6,0,1.4-0.2,2.2-0.6
			c2.5-1.1,5.3-3.1,8.3-6.2c3-3.1,5.4-6.7,7.2-10.8c1.1-2.7,1.7-5.4,1.7-8.1c0-1.4-0.2-2.8-0.5-4.2c-0.8-4.2-3.5-7.6-8-10.3
			C443.1,39.6,441.1,38.9,439.6,38.9z"/>
	</g>
	<g>
		<path class="st1" d="M358,306.5c0,1.8-1.4,3.3-3.2,3.3c-1.8,0-3.3-1.4-3.3-3.2c0-1.8,1.4-3.3,3.2-3.3
			C356.5,303.3,357.9,304.7,358,306.5z"/>
		<g>
			<path class="st1" d="M341.2,271.2c-0.2,1.8-0.8,3.6-0.5,5.3c0.4,1.7,1.6,3.3,2.8,4.7c1.2,1.3,2.8,2.3,4.1,3.6
				c-5.5-1.8-10.7-4.1-11.8-10.7c-0.9-5.1,0.8-9.6,3.8-13.6c0.2-0.3,0.5-0.6,0.7-0.9c4.1-5.6,3.9-8.9-0.8-14.4
				c-0.2-0.2-0.3-0.5-0.5-0.9c9.3,3.5,14.7,11.6,9.6,21.9c-0.6,1.2-1.6,2.2-0.1,3.5c1.3,1.1,2.5,1.1,3.9,0.3
				c1.4-0.9,1.7-2.1,1.3-3.7c-0.2-0.8-0.5-1.6-0.8-2.5c3.1,0,5.3,2,5.6,5.3c0.3,3.2-1,8.2-5.6,9.5
				C348.4,279.9,344.9,277.6,341.2,271.2z"/>
			<path class="st1" d="M374,292.2c-3.2,0.9-3.8,2.9-3.1,5.7c-2.5-1.3-4.5-2.5-6.6-3.6c-0.1,0.1-0.2,0.2-0.3,0.2
				c0.9,1.5,1.7,2.9,2.3,3.9c-1.8,1.4-3.5,2.6-5.2,3.9c-0.5-0.7-1.3-1.8-2.4-3.2c-0.2,1.7-0.3,3-0.4,4c-2.1-0.1-4.1-0.3-6.2-0.4
				c0-1.3,0-3.1,0-4.9c-0.2-0.1-0.3-0.2-0.5-0.3c-1.2,1.7-2.4,3.3-3.4,4.7c-1.8-1.3-3.4-2.4-5.3-3.8c0.6-1,1.5-2.4,2.3-3.8
				c-0.1-0.1-0.2-0.3-0.2-0.4c-2.1,1.1-4.1,2.2-5.9,3.1c-1-1.8-1.9-3.6-3-5.8c1.7-1,3.9-2.3,6.2-3.6c0.6-0.4,1.3-0.6,1.8-1
				c1-0.6,1.5-0.5,2.6,0.3c2.3,1.8,4.9,3.4,7.6,4.7c1,0.4,2.8,0,3.7-0.7c6.2-4.7,6.2-4.7,13.2-0.9
				C371.9,290.9,372.7,291.4,374,292.2z"/>
			<path class="st1" d="M355,283.2c1.8-0.9,3.7-1.7,5.4-2.9c5.8-3.8,7.7-10.2,4.9-16.9c-2.1-5.1-3.3-10.3-2.7-15.8
				c0.2-2.2,0.8-4.3,1.2-6.5c0.3,0,0.5,0,0.8,0c1.3,3.8,2.4,7.7,3.8,11.4c1.6,4.5,3.8,8.9,5.1,13.5c2.6,9.7-3.6,16.4-12.9,17.4
				c-1.8,0.2-3.6,0-5.4,0C355,283.4,355,283.3,355,283.2z"/>
			<path class="st1" d="M351.6,250.3c-4.9-9.4-3.2-19.4,7.3-22.6c-1.8,3.1-2.2,6.1-1.4,9.3c0.5,2,1.4,3.8,1.9,5.7
				c1.2,4.3,1.8,8.6-0.5,12.7c-0.3,0.6-0.8,1.1-1.4,1.6c0.7-5.9-1.2-10.8-4.7-15.5C350.9,244.3,352.5,247.4,351.6,250.3z"/>
			<path class="st1" d="M378.1,296.4c-0.1,1.7-1.7,3.2-3.4,3.1c-1.9-0.1-3.1-1.5-3-3.4c0.1-1.9,1.4-3.1,3.4-3.1
				C376.8,293.1,378.2,294.7,378.1,296.4z"/>
			<path class="st1" d="M334.2,293c1.8,0,3.2,1.5,3.2,3.3c-0.1,1.8-1.6,3.2-3.4,3.1c-1.8-0.1-3.3-1.7-3.2-3.3
				C330.8,294.5,332.5,293,334.2,293z"/>
			<path class="st1" d="M346.4,303.6c0,2.1-1.2,2.9-3.1,3.1c-1.8,0.2-3.4-1.5-3.4-3.3c0.1-1.9,1.4-3.1,3.4-3.1
				C345.3,300.4,346.4,301.5,346.4,303.6z"/>
			<path class="st1" d="M368.9,303.6c0,1.9-1.4,3.2-3.3,3.2c-1.8-0.1-3.2-1.6-3.2-3.3c0-1.9,1.4-3.1,3.3-3.1
				C367.7,300.3,368.9,301.6,368.9,303.6z"/>
		</g>
	</g>
	<g>
		<path class="st1" d="M146.3,305.5c0,1.8-1.4,3.3-3.2,3.3c-1.8,0-3.3-1.4-3.3-3.2c0-1.8,1.4-3.3,3.2-3.3
			C144.8,302.3,146.3,303.7,146.3,305.5z"/>
		<g>
			<path class="st1" d="M129.6,270.2c-0.2,1.8-0.8,3.6-0.5,5.3c0.4,1.7,1.6,3.3,2.8,4.7c1.2,1.3,2.8,2.3,4.1,3.6
				c-5.5-1.8-10.7-4.1-11.8-10.7c-0.9-5.1,0.8-9.6,3.8-13.6c0.2-0.3,0.5-0.6,0.7-0.9c4.1-5.6,3.9-8.9-0.8-14.4
				c-0.2-0.2-0.3-0.5-0.5-0.9c9.3,3.5,14.7,11.6,9.6,21.9c-0.6,1.2-1.6,2.2-0.1,3.5c1.3,1.1,2.5,1.1,3.9,0.3
				c1.4-0.9,1.7-2.1,1.3-3.7c-0.2-0.8-0.5-1.6-0.8-2.5c3.1,0,5.3,2,5.6,5.3c0.3,3.2-1,8.2-5.6,9.5
				C136.8,279,133.3,276.6,129.6,270.2z"/>
			<path class="st1" d="M162.4,291.2c-3.2,0.9-3.8,2.9-3.1,5.7c-2.5-1.3-4.5-2.5-6.6-3.6c-0.1,0.1-0.2,0.2-0.3,0.2
				c0.9,1.5,1.7,2.9,2.3,3.9c-1.8,1.4-3.5,2.6-5.2,3.9c-0.5-0.7-1.3-1.8-2.4-3.2c-0.2,1.7-0.3,3-0.4,4c-2.1-0.1-4.1-0.3-6.2-0.4
				c0-1.3,0-3.1,0-4.9c-0.2-0.1-0.3-0.2-0.5-0.3c-1.2,1.7-2.4,3.3-3.4,4.7c-1.8-1.3-3.4-2.4-5.3-3.8c0.6-1,1.5-2.4,2.3-3.8
				c-0.1-0.1-0.2-0.3-0.2-0.4c-2.1,1.1-4.1,2.2-5.9,3.1c-1-1.8-1.9-3.6-3-5.8c1.7-1,3.9-2.3,6.2-3.6c0.6-0.4,1.3-0.6,1.8-1
				c1-0.6,1.5-0.5,2.6,0.3c2.3,1.8,4.9,3.4,7.6,4.7c1,0.4,2.8,0,3.7-0.7c6.2-4.7,6.2-4.7,13.2-0.9
				C160.3,289.9,161.1,290.4,162.4,291.2z"/>
			<path class="st1" d="M143.3,282.2c1.8-0.9,3.7-1.7,5.4-2.9c5.8-3.8,7.7-10.2,4.9-16.9c-2.1-5.1-3.3-10.3-2.7-15.8
				c0.2-2.2,0.8-4.3,1.2-6.5c0.3,0,0.5,0,0.8,0c1.3,3.8,2.4,7.7,3.8,11.4c1.6,4.5,3.8,8.9,5.1,13.5c2.6,9.7-3.6,16.4-12.9,17.4
				c-1.8,0.2-3.6,0-5.4,0C143.4,282.5,143.4,282.3,143.3,282.2z"/>
			<path class="st1" d="M140,249.4c-4.9-9.4-3.2-19.4,7.3-22.6c-1.8,3.1-2.2,6.1-1.4,9.3c0.5,2,1.4,3.8,1.9,5.7
				c1.2,4.3,1.8,8.6-0.5,12.7c-0.3,0.6-0.8,1.1-1.4,1.6c0.7-5.9-1.2-10.8-4.7-15.5C139.3,243.3,140.9,246.4,140,249.4z"/>
			<path class="st1" d="M166.5,295.5c-0.1,1.7-1.7,3.2-3.4,3.1c-1.9-0.1-3.1-1.5-3-3.4c0.1-1.9,1.4-3.1,3.4-3.1
				C165.1,292.2,166.5,293.7,166.5,295.5z"/>
			<path class="st1" d="M122.6,292.1c1.8,0,3.2,1.5,3.2,3.3c-0.1,1.8-1.6,3.2-3.4,3.1c-1.8-0.1-3.3-1.7-3.2-3.3
				C119.2,293.5,120.8,292,122.6,292.1z"/>
			<path class="st1" d="M134.8,302.6c0,2.1-1.2,2.9-3.1,3.1c-1.8,0.2-3.4-1.5-3.4-3.3c0.1-1.9,1.4-3.1,3.4-3.1
				C133.7,299.4,134.8,300.6,134.8,302.6z"/>
			<path class="st1" d="M157.3,302.6c0,1.9-1.4,3.2-3.3,3.2c-1.8-0.1-3.2-1.6-3.2-3.3c0-1.9,1.4-3.1,3.3-3.1
				C156.1,299.4,157.3,300.6,157.3,302.6z"/>
		</g>
	</g>
	<g>
		<path class="st1" d="M248,267.5c0.1,0,0.5,0.1,0.9,0.2c1.1,0.1,1.9,0.6,2.6,1.6c0.5,0.6,0.8,1.3,1.1,2.2c0.3,0.9,0.5,1.7,0.6,2.6
			c0.1,0.9,0.2,1.8,0.2,2.7c0,0.9,0.1,1.7,0.1,2.5c0.1,1.9,0,3.8-0.1,5.6c-0.2,1.9-0.4,3.8-0.8,5.6c-0.1,0.5-0.2,0.9-0.3,1.4
			c-0.1,0.5-0.3,1-0.6,1.4c-0.7,1.4-1.7,2.4-3,3.1c-1.3,0.7-2.8,1.2-4.3,1.6c-1.6,0.3-3.2,0.5-4.7,0.6c-1.6,0.1-3,0.2-4.3,0.3
			c-1.1,0.2-2.1,0.2-3.2,0.2c-1.1,0-2.2,0-3.2,0.1c-1.3,0.1-2.5,0.2-3.7,0.2c-1.2,0.1-2.4,0.1-3.7,0.1c-1.1-0.1-2.3-0.1-3.4-0.2
			c-1.1,0-2.3-0.2-3.4-0.4c-0.7-0.1-1.4-0.4-2-0.8c-0.7-0.4-1.3-0.7-1.9-1.1c-0.8-0.5-1.3-1.2-1.7-2.1c-1.4-3.2-1.9-6.6-1.6-10
			c0.1-1.1,0.1-2.3,0.2-3.4c0-1.2,0.1-2.3,0.1-3.5c0-2.1,0-4.2-0.1-6.2c-0.1-2.1-0.1-4.1,0-6.2c0-2.8,0-5.5,0.1-8.2
			c0.1-2.7,0.1-5.4,0.2-8.1c0.1-1.3,0.1-2.5,0.1-3.7c0-1.2-0.1-2.4-0.1-3.7c-0.1-2.5-0.1-5-0.2-7.4c0-2.5-0.1-5-0.1-7.4
			c0-0.8,0.2-1.6,0.6-2.5c0.8-2,2.3-3,4.4-3.2c1.4-0.1,2.7-0.1,4.1-0.2c1.4,0,2.8-0.1,4.1-0.1c1.7-0.1,3.5-0.1,5.3-0.1
			c1.8,0,3.6,0,5.3,0c1.3-0.1,2.7-0.1,4-0.1s2.6,0,4-0.1c1.5-0.1,2.9,0.1,4.3,0.4c1.4,0.3,2.7,0.8,4.1,1.4c1.6,0.8,2.7,2.2,3.4,4.1
			c0.5,1.5,0.9,3,1.1,4.5c0.2,1.5,0.4,3,0.5,4.5c0.1,1.9,0.3,3.7,0.4,5.6c0.1,1.8,0.2,3.7,0.3,5.7c0.1,2.3,0,4.5-0.2,6.7
			c-0.2,2.2-0.6,4.4-1.2,6.6c-0.2,0.3-0.2,0.6-0.2,0.8c0,0.3,0,0.5-0.1,0.8c-0.2,0.6-0.4,1.2-0.6,1.7c-0.3,0.6-0.7,1.1-1.2,1.6
			c-0.4,0.4-0.7,0.8-1,1.1C248.7,266.7,248.4,267.1,248,267.5z M224.5,260.3c0.3,0.1,0.7,0.1,1.4,0.1c2.5-0.1,4.9-0.5,7.1-1.1
			c0.3-0.2,0.6-0.3,0.9-0.4c0.3-0.1,0.6-0.2,0.8-0.4c0.5-0.4,0.9-0.9,1-1.5c0.1-0.6,0.3-1.3,0.3-1.9c0.2-1.5,0.4-3,0.4-4.6
			c0.1-1.6,0.1-3.1,0.1-4.6c-0.1-1.3-0.1-2.5,0.1-3.7c0.1-1.2,0.1-2.4,0.1-3.7c-0.1-0.7-0.2-1.2-0.5-1.5c-0.3-0.3-0.7-0.5-1.4-0.7
			c-0.3-0.1-0.6-0.1-0.9-0.1c-0.3,0-0.6,0-1,0c-0.9,0.1-1.8,0.1-2.6,0.2c-0.9,0-1.7,0.1-2.6,0.3c-0.6,0.1-1.2,0.2-1.7,0.3
			c-0.5,0.1-1.1,0.2-1.7,0.3c-0.1,0-0.1,0.5-0.1,1.4c0,0.9,0,2,0.1,3.2c0,1.2,0.1,2.3,0.1,3.3c0,1.1,0,1.7,0,1.9
			c-0.3,3.6-0.5,7.2-0.7,10.9c0,0.4,0,0.7,0.1,1c0,0.3,0.2,0.6,0.4,0.8C224,260,224.2,260.2,224.5,260.3z M223.7,283l5.1,0.3
			c1,0,1.9,0,2.9,0.1c0.9,0,1.9,0,2.9-0.1c1.8,0,2.9-0.9,3.2-2.8c0.1-0.2,0.1-0.5,0.2-0.8c0-0.3,0-0.6-0.1-0.9c0-0.1,0-0.3-0.1-0.6
			c-0.1-0.2-0.2-0.5-0.2-0.7c-4.4-0.5-8.9-0.2-13.3,0.9c-0.2,0.7-0.2,1.3-0.3,2c0,0.6-0.1,1.3-0.3,1.9c0,0.1,0,0.2,0.1,0.3
			C223.7,282.7,223.7,282.8,223.7,283z"/>
		<path class="st1" d="M295.9,245.6c-1,1.2-2.1,1.9-3.4,2.1c-0.5,0.1-0.9,0.2-1.3,0.3c-0.4,0.2-0.8,0.3-1.2,0.3
			c-1.1,0.1-2.1,0.1-3.2,0.1c-1.1,0-2.2,0-3.3,0.1c-1.6-0.7-2.4-2-2.5-3.8c-0.2-0.8-0.3-1.6-0.4-2.4c-0.1-0.7-0.2-1.5-0.4-2.4
			c-1.3-0.1-2.5-0.2-3.7-0.1c-1.2,0.1-2.4,0.4-3.7,1c-0.2,0.4-0.3,0.8-0.4,1.1c-0.1,0.4-0.2,0.8-0.3,1.1v7.9h1.6
			c1.1-0.1,2.1-0.1,3-0.1c1,0,2,0,3-0.1c1.6-0.1,2.8,0.3,3.8,1.2c0.9,1,1.4,2.1,1.4,3.4c0.1,1.1,0.2,2.1,0.3,3.2
			c0.1,1.1,0.2,2.2,0.3,3.2c0,0.6,0,1.2-0.1,1.9c0,0.6-0.1,1.3-0.2,1.9c-0.2,1.5-1.1,2.4-2.5,2.8c-0.5,0.2-1,0.3-1.5,0.3
			c-0.5,0.1-1,0.2-1.4,0.2c-0.8,0.1-1.5,0.1-2.1,0.1s-1.4,0-2,0c-0.5,0.1-0.9,0.1-1.4,0.2c-0.5,0-0.9,0.1-1.4,0.3
			c-0.2,0.3-0.2,0.5-0.2,0.7v9.1c0.1,2.1,1.3,3.3,3.4,3.5h0.4c0.6,0,1.2,0,1.7,0s1.1,0,1.7,0.1c0.6-0.8,0.9-1.7,0.8-2.8
			c-0.1-1,0.1-2.1,0.5-3.2c0.2-0.5,0.9-0.8,1.9-1c1.5-0.4,3-0.6,4.6-0.7c1.6-0.1,3.2-0.1,4.7-0.1c0.7-0.1,1.2,0.1,1.7,0.5
			c0.5,0.4,0.9,0.9,1.2,1.4c0.5,0.7,0.7,1.4,0.7,2.1c0.2,1.1,0.3,2.1,0.3,3.1c0.1,1,0.1,2,0.1,3.1c0,1.1,0,2.3,0,3.4
			s-0.1,2.3-0.2,3.4c-0.2,1.8-1.1,3.3-2.5,4.4c-1.7,1.3-3.8,2.1-6.1,2.4c-2.4,0.3-4.6,0.5-6.6,0.7c-4.7,0.5-9.4,0.3-14-0.3
			c-1.3-0.1-2.5-0.4-3.8-0.8c-1.2-0.4-2.3-1-3.3-1.8c-1.1-1.1-1.9-2.3-2.4-3.7c-0.5-1.4-0.9-2.8-1.2-4.3c-0.6-2.4-0.9-4.9-0.8-7.4
			c0.1-2.5,0.1-5,0-7.5c-0.1-5-0.1-10.1,0-15.3c0.1-2,0.2-3.9,0.3-5.7c0.1-1.9,0.2-3.8,0.4-5.7c0.1-1.8,0.1-3.7,0.1-5.6
			c0-1.9,0.1-3.8,0.3-5.6c0.2-1.8,0.7-3.6,1.3-5.3c0.6-1.7,1.7-3.3,3.1-4.7c1.1-1.1,2.3-2,3.7-2.6c1.4-0.6,2.8-1.1,4.3-1.5
			c2.8-0.6,5.6-0.9,8.5-0.8c2.9,0,5.8,0.1,8.6,0.1c0.8,0,1.6,0,2.4,0.1c0.7,0.1,1.5,0.2,2.3,0.3c1.9,0.2,3.2,1.2,3.8,2.8
			c0.2,0.5,0.4,1.1,0.7,1.6c0.2,0.5,0.4,1.1,0.7,1.6c0.2,0.6,0.3,1.2,0.3,1.9c0,0.7-0.1,1.3-0.3,1.9c-0.1,0.4-0.1,0.8-0.1,1.1
			c0,0.4,0,0.8,0,1.1c-0.1,1.9-0.1,3.8-0.1,5.6c0,1.9,0,3.8,0,5.6c0,0.2,0,0.3-0.1,0.5C295.9,245.3,295.9,245.4,295.9,245.6z"/>
	</g>
</g>
</svg>
