<?xml version="1.0" encoding="utf-8"?>
<!-- Generator: Adobe Illustrator 22.0.0, SVG Export Plug-In . SVG Version: 6.00 Build 0)  -->
<svg version="1.1" id="Layer_1" xmlns="http://www.w3.org/2000/svg" xmlns:xlink="http://www.w3.org/1999/xlink" x="0px" y="0px"
	 viewBox="0 0 1080 1080" style="enable-background:new 0 0 1080 1080;" xml:space="preserve">
<style type="text/css">
	.st0{fill:#FF53A7;}
	.st1{fill:#04C0CC;}
	.st2{fill:#E43B40;}
</style>
<g>
	<path class="st0" d="M577.9,612.8c0.7-0.3,1.3-0.5,1.7-0.9c3.2-2.3,6.6-4.3,10.3-6c1.3-0.6,2.6-1.1,3.9-1.5c2.4-0.7,4.7,0,6.8,1.3
		c1.6,1,2.1,2.7,1.4,4.5c-1.2,3.6-3.2,6.7-5.9,9.3c-0.4,0.4-0.8,0.7-1.1,1.1c-3.4,3.6-7.2,6.8-11.2,9.6c-2.5,1.7-5.1,3.4-7.7,5
		c-0.5,0.3-1,0.6-1.5,0.8c-0.9,0.4-1.8,0.5-2.8,0.2c-2.2-0.6-3.8-1.8-4.9-3.7c-3.5-5.8-6.1-11.9-8.2-18.3c-0.7-2.3-1.1-4.6-1.2-7
		c-0.1-1.9,0.2-3.7,0.6-5.5c0.6-2.4,2.9-4.4,5.4-4.5c0.6,0,1.3,0.1,1.9,0.3c0.9,0.3,1.8,0.7,2.7,1.1c1.7,0.7,3.2,1.8,4.4,3.3
		c1.4,1.8,2.4,3.8,3.3,5.8c0.4,1,0.8,2,1.2,3C577.1,611.3,577.5,611.9,577.9,612.8z"/>
	<g>
		<g>
			<path class="st1" d="M399.9,525.3l-3.2-1.1l-55.5-82.6v81.7l-7.5,2.1c-2.6,0.7-5.3,1.1-7.9,1.1c-2.7,0-5.3-0.4-7.9-1.1l-7.3-2.2
				V378.6l6.7-2.5c1.1-0.4,2.3-0.7,3.5-0.9l0.4-0.1c3.8-0.6,7.5-0.3,11.2,1l3.2,1.1l55.6,82.7V378l7.3-2.1c5.2-1.5,10.6-1.5,16,0
				l7.4,2.1v144.8l-6.7,2.4C410.1,527,405,527,399.9,525.3z"/>
			<path class="st1" d="M532.2,518.3l-2,7.4h-92.8V375.4h90.9l2.1,7.5c1.4,5,1.4,9.9,0,14.8l-2.1,7.5h-59.3v28.7h51.9l2.1,7.5
				c1.4,4.9,1.4,9.8,0,14.8l-2.1,7.4h-51.9V496h61.2l2,7.5C533.6,508.5,533.6,513.4,532.2,518.3z"/>
			<path class="st1" d="M644.5,518.3l-2.1,7.4h-92.8V375.4h90.9l2.1,7.5c1.4,5,1.4,9.9,0,14.8l-2.1,7.5h-59.3v28.7h51.9l2.1,7.5
				c1.4,4.9,1.4,9.8,0,14.8l-2.1,7.4h-51.9V496h61.2l2.1,7.5C645.9,508.5,645.9,513.4,644.5,518.3z"/>
			<path class="st1" d="M753.3,389.3c9.7,9.5,14.6,21.7,14.6,36.6v49.4c0,15-4.9,27.2-14.6,36.5c-9.6,9.3-23,13.9-40.2,13.9H662
				V375.4h51.1C730.2,375.4,743.6,380,753.3,389.3z M693.6,405.2V496h19.5c8.3,0,14.1-1.9,17.7-5.6c3.6-3.9,5.5-9.9,5.5-17.9v-43.8
				c0-8-1.8-14-5.5-17.8c-3.5-3.8-9.4-5.6-17.7-5.6H693.6z"/>
		</g>
	</g>
	<g>
		<g>
			<path class="st2" d="M251.5,326.2c-4.9,0-9.6-4.1-9.2-11c0.4-4.3,5.3-25.6,6.3-30.1c0.8-3.5,1.6-7,0.6-10.6c-1-3.5,0.2-6.3,2.3-9
				c7.4-9.4-3.3-9,28.6-68.1c2.9-5.1,5.5-10.2,9.8-14.3c3.3-3.3,6.8-4.9,10-4.9c4.5,0,8.6,3.1,11.3,8.8c6.3,14.1,9.8,29,10.8,44.6
				c1.8,25.2,0.2,10.2,0.2,74.5c0.2,4.7,0.4,9.2,3.5,13.1c3.9,5.1,3.3,10-1.2,13.5c-2,1.6-3.9,2.3-5.9,2.3
				c-6.8,0-12.9-8.8-12.9-19.2c0-43,1.8-41.3-7.6-40.9c-8.2,0.4-16.2,1.2-24.1,3.3c-3.5,1-5.7,2.9-6.3,6.8c-1.4,8.8-4.7,17-4.3,26
				c0.2,3.7-1.2,7.2-3.3,10.4C257.9,324.6,254.8,326.2,251.5,326.2z M278.3,257.7c29.3-2.3,27-2.3,27.4-9.2
				c0.4-14.5-2-28.6-6.3-42.3c-0.2-0.6-0.8-1.2-1-1.6c-1.4,0-1.8,0.8-2.5,1.6c-9.2,16.8-15.8,29-20.9,47.3
				C274,257.1,274.9,258.1,278.3,257.7z"/>
			<path class="st2" d="M353.2,256.5c8.6-51.5,4.1-60.5,5.1-67.3c0.8-5.9,5.3-8.8,9.8-8.8s9.2,3.1,9.8,9
				c2.3,20.5-4.7,56.9-13.9,118.6c-0.8,6.3,0.4,7.6,6.8,6.5c26.8-3.9,30.7-4.7,36-4.5c11.5,0.2,12.3,13.7,2.3,16.4
				c-12.1,3.1-20,1.2-38.7,5.5c-2.3,0.4-4.3,0.6-6.5,0.6c-9,0-17.8-2.3-19-12.7C344.4,315.4,352.4,260.4,353.2,256.5z"/>
			<path class="st2" d="M435.2,256.5c8.6-51.5,4.1-60.5,5.1-67.3c0.8-5.9,5.3-8.8,9.8-8.8s9.2,3.1,9.8,9
				c2.3,20.5-4.7,56.9-13.9,118.6c-0.8,6.3,0.4,7.6,6.8,6.5c26.8-3.9,30.7-4.7,36-4.5c11.5,0.2,12.3,13.7,2.3,16.4
				c-12.1,3.1-20,1.2-38.7,5.5c-2.3,0.4-4.3,0.6-6.5,0.6c-9,0-17.8-2.3-19-12.7C426.4,315.4,434.4,260.4,435.2,256.5z"/>
			<path class="st2" d="M557.2,191.8c0.6-4.3,4.5-6.8,8.6-6.8c3.3,0,6.8,1.6,8.6,5.5c3.3,7-0.6,10.6,5.1,30.5
				c5.9,20.3,8,39.9,8.8,41.7c1,2.7,2.3,3.9,3.7,3.9c4.7,0,11.9-13.7,16.6-22.5c19.4-36,22.7-56.7,25-60.8c1.6-3.3,4.7-4.9,7.8-4.9
				c3.3,0,6.8,2,8.2,6.3c1,3.3,0.2,6.3-0.6,9.4c-7.4,25-18.4,48.3-31.5,70.6c-11.9,20.7-16.8,16.8-16.8,24.8
				c0.2,11.5-2.3,22.9-1.4,34.6c0.6,6.8-4.1,10.2-9,10.2c-3.9,0-8.2-2.5-9.8-7.8c-2.3-7.6,1.4-27.8,1-35.4
				c-0.8-15.1-8.4-5.7-12.9-34.6C562.1,215.6,553.1,216.8,557.2,191.8z"/>
			<path class="st2" d="M675.8,193.9c7-8.4,14.5-13.3,23.1-13.3c6.3,0,13.3,2.7,20.9,8.4c16.8,12.7,21.7,30.7,20.7,50.5
				c-1.2,26-9.2,53-35.2,81.2c-7.4,8-16.2,11.7-24.5,11.7c-11.5,0-22.3-7.2-27.8-19.6C649,303.9,650.6,224.4,675.8,193.9z
				 M680.9,312.9c2.7,0,5.7-1.4,9-4.3c4.5-3.9,7.4-9,11-13.5c15.8-19,21.1-44,19.6-68.5c-0.6-8.4-4.1-15.5-10.4-21.3
				c-3.1-2.7-5.9-3.9-8.6-3.9c-19.2,0-32.7,58.1-33.8,85.9C667.4,301.3,672.7,312.9,680.9,312.9z"/>
			<path class="st2" d="M762.3,188.6c2.3-3.3,4.9-4.7,7.8-4.7c6.5,0,12.5,8.4,8.8,18.6c-7.4,19.8-13.7,79.6-7.6,102.7
				c1.4,5.5,4.7,8,8.2,8c5.7,0,12.7-6.1,16.2-14.1c24.3-56.7,23.1-71.6,25-96.1c0.2-3.5-0.2-6.8-1.4-10c-2-5.5,2.3-10.6,7.6-10.6
				c5.9,0,10.6,5.9,10.8,11.5c1.4,49.5-16.4,87.3-25,109.6c-4.7,12.9-18,27.4-32.7,27.4c-10.2,0-20-5.9-24.3-16.6
				C742.5,282.3,759.1,193.1,762.3,188.6z"/>
		</g>
	</g>
	<g>
		<g>
			<path class="st1" d="M453.2,622.8c0,0.4,0,0.8-0.2,1.2c-1.2,10.2-4.5,19.7-9.5,28.6c-2.8,4.7-5.5,9.1-9.3,13
				c-3.7,3.7-7.7,5.3-12.8,3.9c-5.9-1.6-10.6-4.9-14-10.2c-3.9-6.1-5.9-12.8-6.5-19.9c-1-9.9-1.2-19.7,0-29.6c0.2-1.2,0-2-1.2-2.2
				s-1.4-1.2-1.8-2c-2.4-5.9,0-7.1,4.3-7.1c3.5-0.2,6.9-0.4,10.2-0.6v0.2c3,0,5.9,0,8.7,0c3,0,5.3,1.6,6.5,4.5
				c0.8,1.6,1.6,3.5,1.6,5.3c0.2,1.8-0.4,2.4-2.4,2.4c-1,0-1.4,0.4-1.6,1.2c-0.2,0.8-0.4,1.6-0.6,2.6c-2,11.2-3.9,22.5-4.9,33.9
				c-0.4,4.5-1,8.9,0.6,13.4c2.4,6.7,4.9,5.9,9.1,3c1.4-1,2.6-2.4,3.7-3.7c6.5-7.9,10.4-17.3,13.6-26.8c1-3.5,2.2-6.9,3.7-10.4
				c0-0.6,0.4-1,0.6-1.4c0.4-0.4,0.8-0.6,1.4-0.4C452.6,622,453.2,622.2,453.2,622.8z M405.7,567.8c0-0.6,0-1.8,0-3
				c0-2,0.8-3,2.8-3.5c5.7-0.8,10.8,0.8,15,4.7c0.8,0.8,1.4,1.8,1.2,3.2c0,3.9,0,7.7-0.8,11.4c-0.8,3.9-3.9,6.1-7.7,5.7
				c-4.7-0.6-10.2-5.5-10.2-10.8C406.1,573.1,405.3,570.6,405.7,567.8z"/>
			<path class="st1" d="M447.6,660.4c3.5-4.5,7.1-8.7,11.4-12.4c1.4-1.2,1.6-2.2,1-3.9c-2-6.3-4.9-12.4-8.1-18.1
				c-2-3.5-4.3-7.1-5.9-10.8c-1.6-3.7-2.8-7.5-3.2-11.4c-0.4-6.7,0.8-12.8,5.9-17.5c2.8-2.8,6.3-3.7,10.4-2.6c2.4,0.6,4.9,1.4,7.1,3
				c3.9,2.8,5.3,6.7,4.5,11.6c-1,5.7-2.8,11.2-6.7,15.8c-1.2,1.4-1.4,2.6-0.4,4.3c3.2,5.3,6.1,11,9.1,16.4c0.6,1,1,1,2,0.4
				c3.2-1.8,6.3-3.7,9.5-5.7c4.1-2.4,8.5-4.5,13.2-6.1c0.6-0.2,1-0.4,1.6-0.4c0.6,0,1.4,0.2,1.6,1c0.2,0.6-0.4,1-1,1.2
				c-1.4,0.8-2.8,1.6-4.3,2.4c-6.5,3.2-12.2,7.1-17.7,11.8c-2,1.8-1.8,1.2-0.8,3.9c3.5,8.9,5.9,18.1,6.1,27.6
				c0.2,7.1-1,13.8-4.1,20.1c-3.9,8.1-14,13.8-23.6,12.4c-1.8-0.4-3.9-0.6-5.9-1.2c-8.7-3-10.2-7.1-11-14.4c0-0.6,0-1.2,0-1.8
				C438.8,676.6,441.9,668.1,447.6,660.4z M461.8,655.5c-7.1,7.9-12.2,17.1-13.4,27.8c-0.4,3.7,0.6,7.3,2,10.6
				c0.6,1.4,1,1.4,2.2,0.6c0.6-0.4,1.2-1,1.8-1.6c2.6-2.8,4.7-6.1,5.9-9.5c2.6-7.1,3.7-14.4,2.8-21.9c-0.2-2,0-4.1-0.8-6.1
				C462,655.5,461.8,655.5,461.8,655.5z M459.5,606.2c1.4-5.5,1.6-8.7,0.6-12C458.9,598.2,458.1,601.9,459.5,606.2z"/>
		</g>
	</g>
	<g>
		<path class="st0" d="M284.8,845.7c1.4,11.7,3.8,23.5,7,34.7c0.9,3.8,2.8,6.6,4.7,9.9c1.9,2.3,3.8,2.3,6.1,0.9
			c7.5-4.2,11.7-11.3,15.9-18.3c2.3-4.2,4.7-9.4,6.6-14.1c4.7-13.6,9.9-27.2,13.1-41.3c2.3-10.8,4.7-22,9.8-31.9
			c0.9-1.9,0.9-4.7,4.2-3.8c3.3,0.5,2.8,3.3,2.8,5.6c-0.5,8-1.9,15.9-3.8,23.9c-5.6,24.9-12.7,49.3-25.3,71.8
			c-3.3,6.1-7.5,11.3-13.6,15c-8.9,5.6-18.3,3.8-27.2,0.5c-10.3-4.2-17.8-12.2-23-22.5c-5.2-10.8-8-21.6-9.8-33.3
			c-5.6-30.5-4.7-61-3.3-91.5c0.5-16.9,1.9-33.8,2.8-50.7c2.8-32.4,5.2-65.2,11.7-97.1c0.9-4.2,0.5-4.7-4.2-5.2
			c-9.4-0.5-13.1-5.2-13.1-14.5c0-4.7,1.9-7,6.6-8.4c5.6-0.9,10.8-2.3,16.4-2.3c14.5-0.5,28.6,0,43.2,0.9c3.8,0.5,6.6,1.4,8.9,4.7
			c4.2,5.6,5.2,12.2,3.3,19.2c-0.9,3.8-4.2,4.2-7.5,4.2c-6.1,0-6.1,0-8.4,6.1c-3.8,10.3-5.6,21.6-8,32.8
			c-6.1,30.5-10.3,61-13.6,91.9c-1.9,18.8-2.8,37.5-3.8,54.4C282.9,808.2,282,827,284.8,845.7z"/>
		<path class="st0" d="M454.6,823.2c16.9-7.5,31.9-18.3,42.7-34.2c1.4-2.8,3.8-4.7,5.6-7c1.9-2.3,4.2-2.3,6.6-0.5
			c2.3,1.4,1.4,3.3,0.5,5.2c-3.3,8.9-8.9,16.4-15,23c-12.7,13.6-26.7,23.9-45.5,27.2c-4.2,0.5-8.9,1.4-13.1,1.4
			c-3.8-0.5-5.2,1.4-6.6,4.7c-0.9,4.2-2.8,8-4.2,11.7c-1.9,4.2-3.8,8-6.6,11.7c-8,11.3-15,14.1-29.1,11.3
			c-19.7-4.2-32.8-16.4-41.3-33.8c-8.9-17.4-9.9-36.1-7.5-54.9c0.5-4.2,0.5-8-0.9-12.2c-6.1-25.3,0.9-46.4,19.2-63.8
			c9.4-8.4,20.2-11.7,32.8-9.4c20.6,4.2,42.7,18.8,48.3,46c2.3,12.2,1.9,24.4,0.9,36.6c-0.5,14.1-3.3,27.2-6.1,41.3
			C442.4,827.4,448.5,825.6,454.6,823.2z M370.1,745.4c8.4,0.9,15.9,3.8,22.5,9.4c3.8,3.3,6.1,7.5,3.8,12.7
			c-1.4,3.8-2.3,7.5-3.3,11.3c-2.8,10.8-4.7,21.6-5.6,32.8c0,3.3,0.9,5.2,3.8,6.6c5.6,2.8,10.8,5.6,16.9,7c4.7,1.4,4.7,1.4,5.6-3.3
			c2.3-9.4,2.8-18.8,3.8-28.1c1.9-20.2-1.4-39.9-9.4-58.2c-2.3-5.2-5.6-9.4-9.8-13.1c-2.3-2.8-5.2-3.3-8.4-1.9
			c-11.7,4.2-19.7,12.2-24.9,24.4C367.3,744.9,368.7,744.9,370.1,745.4z M395.5,861.2c7-6.6,11.3-14.5,14.5-23.5
			c0.9-2.3-0.5-2.8-2.3-2.8c-5.2-1.4-10.3-3.3-15.5-5.2c-1.4-0.5-2.3-1.4-4.2-0.5c0.9,10.8,2.3,21.6,6.1,32.4
			C395,861.2,395.5,861.2,395.5,861.2z"/>
		<path class="st0" d="M564.8,838.7c5.2-17.4,10.3-34.2,14.5-52.1c0.5-2.8,0-4.7-2.3-6.6c-21.6-19.7-29.1-45-25.8-73.6
			c0.9-7,2.8-13.6,6.1-19.7c3.8-6.6,8.4-12.2,16.4-11.7c8.9,0.5,16.4,3.8,21.1,12.2c2.3,4.7,4.2,9.9,5.2,15
			c3.3,16.9,3.8,34.2,0.9,51.6c-0.9,8.4-1.4,17.4-3.8,25.8c-0.5,1.9,0.5,3.3,1.9,4.2c16.9,10.8,27.7,13.1,45.5,3.3
			c2.8-1.4,5.6-2.8,8.4-4.2c1.4-0.5,2.8-0.9,3.8-0.9c2.3,0,4.7,0,5.6,1.9c0.9,2.8-0.9,3.8-2.8,5.2c-15.5,10.3-32.4,14.5-51.1,8.4
			c-4.2-1.4-8.9-3.3-13.6-4.7c-4.2,23-10.8,45-18.8,66.6c-1.4,3.8-2.8,7.5-4.7,10.8c-1.9,3.8-4.7,5.6-8.9,6.1
			c-10.3,0.5-18.8-3.8-25.8-10.3c-10.3-8.9-16.4-20.2-21.1-32.8c-9.4-26.3-14.5-53.9-18.8-81.6c0-1.4,0-2.3-0.5-3.8
			c0-1.4-0.5-1.9-2.3-1.9c-8.4-0.5-14.1-10.3-11.3-17.8c0.9-1.9,2.8-2.3,4.2-2.3c6.6-0.9,13.1-1.9,19.7-1.9
			c8.9-0.9,17.8-1.4,26.7-1.4c8.4-0.5,15.5,8.4,13.6,15.9c0,0.5,0,0.9-0.5,1.4c-5.2,2.3-1.9,6.6-1.9,10.3
			c0.5,11.7,0.9,23.5,2.3,35.2c2.3,20.6,6.1,40.8,13.6,60.5c0,0.5,0.5,0.5,0.9,0.9C563.4,844.3,563.9,841.5,564.8,838.7z
			 M582.6,763.2c3.3-10.8,5.2-38.9,3.8-51.1c-0.9-8.4-2.8-15.9-7-23.5C569,704.5,571.4,750,582.6,763.2z"/>
		<path class="st0" d="M714.9,705.5c8,4.2,12.2,10.3,11.7,19.7c0,3.8-0.5,7.5-1.4,11.3c-3.8,14.1-10.8,26.3-21.1,36.6
			c-4.7,4.7-9.9,8-15.5,10.3c-2.3,0.9-3.3,2.3-3.8,5.2c-0.5,15.9,0,32.4,4.2,47.8c2.3,8.9,5.6,17.8,11.3,25.3
			c2.8,4.7,3.8,4.7,8.9,2.3c6.6-2.8,12.7-7.5,17.4-12.7c5.2-5.6,9.8-11.7,13.6-18.8c8-14.1,15.5-29.1,20.2-45
			c0.9-2.3,1.9-5.2,2.8-7.5c1.4-2.3,3.8-2.8,6.1-1.9c2.8,0.9,2.3,2.8,1.4,5.2c-2.3,7.5-5.2,15.5-8,23c-7,17.4-14.1,34.2-25.3,48.8
			c-3.3,4.2-6.6,7.5-10.3,11.3c-10.3,10.3-22.5,11.7-35.6,7c-10.3-3.8-18.8-9.8-26.3-17.8c-11.7-13.6-17.8-29.6-19.7-47.4
			c-2.3-21.6-0.9-43.2,4.7-64.3c2.3-8.9,6.1-17.8,11.7-25.3c8.4-11.3,19.2-17.4,32.4-17.4C701.8,701.3,708.8,702.2,714.9,705.5z
			 M701.3,725.7c-9.4,14.1-13.6,29.1-14.5,45.5C696.6,763.6,704.6,738.3,701.3,725.7z"/>
	</g>
	<path class="st1" d="M271.8,361.9c-3.8,0-7.1,2.4-9.2,6.6c-2.1,4.2-2.5,9.3-1.1,13.9l7.4,24.8l-2.1,1.9
		c-10.5,9.2-16.7,24.7-16.7,41.5c0,16.8,6.3,32.3,16.7,41.5l2.1,1.9l-7.4,24.8c-1.4,4.7-1,9.8,1.1,13.9c2.1,4.2,5.5,6.6,9.2,6.6
		h535.1c3.8,0,7.3-2.6,9.4-6.9c2.1-4.3,2.4-9.6,0.8-14.3l-8.1-23.8l2.3-2c10.7-9.2,17.1-24.8,17.1-41.8c0-17-6.4-32.6-17.1-41.8
		l-2.3-2l8.1-23.8c1.6-4.7,1.3-10-0.8-14.3c-2.1-4.3-5.6-6.9-9.4-6.9H271.8L271.8,361.9z M806.9,547.8H271.8
		c-5.8,0-11.2-3.8-14.5-10.3c-3.3-6.4-3.9-14.6-1.8-21.8l5.5-18.5c-11-11-17.5-28.1-17.5-46.6c0-18.5,6.5-35.6,17.5-46.6l-5.5-18.5
		c-2.1-7.2-1.5-15.4,1.8-21.8c3.3-6.4,8.7-10.3,14.5-10.3h535.1c6,0,11.5,4,14.7,10.7c3.2,6.7,3.7,15.1,1.2,22.4l-5.8,17.2
		c11.1,10.9,17.7,28.2,17.7,46.8c0,18.6-6.6,35.9-17.7,46.8l5.8,17.2c2.5,7.3,2,15.6-1.2,22.4C818.4,543.8,812.9,547.8,806.9,547.8
		L806.9,547.8z"/>
	<g>
		<path class="st0" d="M746.8,640.6c0,0,5.7-16.7,18.3-29.8c1.3-1.3,2.2-3,2.5-4.8c0.4-1.9,0.1-3.9-2.3-4.6
			c-4.8-1.3-16.4,7.6-20.3,14.3C741.2,622.4,744.1,635.3,746.8,640.6L746.8,640.6z M707.8,673c0,0-14.8-33,2.3-56.3
			c0,0,4.5-6.2-2.6-12.3s-21,2-24.6,15.5C679.5,633.5,687.3,653.6,707.8,673L707.8,673z M737.1,621.2c7.5-15.7,20-24.5,35.4-24
			s37,30.8,16.1,58.7c-21,27.9-52.3,47.5-52.3,47.5c-19.3-13.3-37.1-27.2-53.2-46.2c-16.1-19-7.4-60.1,18.9-60
			C728.2,597.4,737.1,621.2,737.1,621.2L737.1,621.2z"/>
		<g>
			<g>
				<path class="st0" d="M766.2,699.2c1.5,1.5,2.3,2.9,1.8,5.1c-0.6,2.7-0.7,5.5-1.3,8.2c-0.5,2.6,0.2,4.7,1.9,6.6
					c1.9,2,3.7,4.1,5.6,6.1c5.4,5.5,10.6,11.3,16.5,16.3c3.7,3.1,7.4,6.4,10.8,9.9c2.1,2.2,5.2,1.6,5.7-1.6c0.4-2.8,0.6-5.7,0.5-8.5
					c-0.1-2.8-0.6-5.6-1-8.7c1.2,0.1,2.4,0.2,3.6,0.2c4.5,0,9.1,0,13.6,0c0.6,0,1.2,0,1.9-0.1c3-0.5,3.8-2.6,1.9-5
					c-0.3-0.3-0.6-0.7-0.9-1c-10.8-10.3-21.7-20.5-32.4-30.9c-2.4-2.3-5-3.1-8.2-2.7c-3.4,0.4-6.9,0.7-10.3,1.3
					c-1.6,0.3-2.6-0.2-3.7-1.3c-4-4.1-8.1-8.1-12.2-12.1c-0.4,0.4-0.8,0.8-1.2,1.2c-1.7,1.6-3.5,3-5.3,4.3
					C757.6,690.7,761.9,695,766.2,699.2z M796.5,704.6c-4.1,0.1-7.9,0.3-11.6,0.4c-0.3,0-0.8-0.1-1-0.3c-2-1.9-4.1-3.7-6-6.2
					c3.9-0.6,7.5-0.6,11.2-0.5c0.4,0,0.9,0.1,1.2,0.4C792.2,700.3,794.2,702.3,796.5,704.6z M808.9,716.8c-4.1,0.2-7.9,0.4-11.6,0.5
					c-0.7,0-1.4-0.6-2-1.2c-2-2-4-4-6-6c-0.3-0.3-0.5-0.8-0.9-1.3c3.9-0.1,7.6-0.3,11.2-0.4c0.5,0,1.2,0.3,1.6,0.7
					C803.7,711.7,806.3,714.3,808.9,716.8z M800.7,721.7c0.9-0.2,1.3-0.3,1.6-0.3c3.4,0,6.7,0,10.1,0.1c0.5,0,1.2,0.1,1.5,0.4
					c1.7,1.5,3.2,3.2,5.2,5.1c-4.1,0-7.7,0.1-11.2,0.1c-0.3,0-0.8,0-1-0.2C804.9,725.3,803,723.7,800.7,721.7z M790.7,734
					c0.7-2.4,1.4-4.8,2.9-7.5c2.5,2.5,4.7,4.7,6.9,6.9c0.4,0.4,0.7,0.9,0.8,1.3c0.3,3.3,0.5,6.5,0.7,9.8c-0.3,0.1-0.5,0.2-0.8,0.3
					c-3.4-3.2-6.7-6.5-10-9.8C790.9,734.9,790.6,734.3,790.7,734z M779.8,723.3c1-2.6,2-4.9,3-7.4c2.5,2.5,4.8,4.8,7.2,7.2
					c-1,2.5-1.9,4.9-3,7.5L779.8,723.3z M773.5,706.5c1.6,1.6,3.3,3.2,4.9,4.9c0.4,0.4,0.8,1.3,0.7,1.8c-0.6,2.3-1.3,4.5-2.1,7.3
					c-1.6-1.6-2.9-2.9-4.1-4.1c-0.4-0.4-0.8-0.7-1.1-1.2c-0.2-0.3-0.4-0.8-0.5-1.2C771.1,713.2,772.8,707.6,773.5,706.5z"/>
				<path class="st0" d="M636.7,566c1.9,4.3,3.8,8.6,6.1,12.7c3.2,5.8,6.7,11.3,10.1,17c0.5,0.9,1.2,1.8,1.9,2.6
					c1.9,1.9,4.1,1.4,4.9-1.2c0.5-1.9,0.7-3.8,1-5.8c0.1-0.9,0.3-1.9,0.5-3.4c7.7,7.7,15.3,15.4,22.9,23.2c1.5-2.2,3.1-4.2,5.1-6
					c-6.9-6.8-13.8-13.6-20.8-20.4c-0.7-0.7-1.5-1.5-2.6-2.6c1.6-0.1,2.5-0.1,3.5-0.1c2.5-0.2,5-0.3,7.4-0.5
					c1.1-0.1,2.4-0.4,2.7-1.8c0.4-1.5-0.6-2.4-1.7-3c-2.5-1.4-4.9-2.9-7.5-4c-5.6-2.4-11.3-4.7-17-6.9c-3.9-1.6-7.8-3.1-11.7-4.5
					c-1.5-0.6-3.1-1.2-4.5,0.2C635.6,562.7,636,564.4,636.7,566z M642,565c9.6,4.1,19.1,8.1,28.6,12.1c-3.3,0.4-6.6,0.4-9.9,0.4
					c-3.1,0-4.4,1.4-4.2,4.6c0.1,2.7-0.1,5.4-0.2,8.2C652.7,586.9,642.3,567.7,642,565z"/>
			</g>
		</g>
	</g>
</g>
</svg>
