<?xml version="1.0" encoding="utf-8"?>
<!-- Generator: Adobe Illustrator 22.0.0, SVG Export Plug-In . SVG Version: 6.00 Build 0)  -->
<svg version="1.1" id="Layer_1" xmlns="http://www.w3.org/2000/svg" xmlns:xlink="http://www.w3.org/1999/xlink" x="0px" y="0px"
	 viewBox="0 0 1080 1080" style="enable-background:new 0 0 1080 1080;" xml:space="preserve">
<style type="text/css">
	.st0{fill:#F4D561;}
	.st1{fill:#E43B40;}
</style>
<g>
	<g>
		<g>
			<path d="M410.9,454.1c-2.4,0-4.5,0.3-6.1,0.9c-1.6,0.6-3.1,1.2-4.5,2c-1.4,0.7-2.9,1.4-4.5,2c-1.6,0.6-3.5,0.9-5.9,0.9
				c-4.3,0-7.8-1-10.5-3.1c-2.7-2.1-4.9-4.7-6.4-8c-1.6-3.3-2.6-6.9-3.2-11c-0.6-4.1-0.9-8.1-0.9-12.1c0-3.1,0.3-6.1,1-9
				c0.7-2.9,1-5.9,1-9c0-3.1-0.3-6.2-1-9.3c-0.7-3.1-1-6.2-1-9.4c0-2.8,0.3-5,0.9-6.6c0.6-1.6,1.3-3,2-4.3c0.7-1.3,1.4-2.7,2-4.1
				c0.6-1.4,0.9-3.5,0.9-6.1c-2.1,0-3.8-0.6-5.1-1.9c-1.3-1.3-2.3-2.9-3-4.9c-0.7-2-1.2-4.3-1.4-6.8c-0.2-2.5-0.3-5-0.3-7.5
				c0-2.5,0.1-4.9,0.2-7.1c0.1-2.2,0.2-4,0.2-5.4c0-0.9,0.2-2.1,0.7-3.7c0.4-1.6,1-3.3,1.6-5.1c0.6-1.8,1.2-3.5,1.8-5.1
				c0.6-1.6,1-2.9,1.4-3.7v-35.8c0-2.5,0.8-4.7,2.3-6.5c1.5-1.8,3.4-3.3,5.7-4.5c2.3-1.2,4.8-2.1,7.5-2.6c2.7-0.6,5.3-0.9,7.7-0.9
				c3.2,0,7,0.3,11.2,1c4.2,0.7,9.3,1,15.1,1c5.9,0,12.4-0.3,19.5-1c7.2-0.7,14.7-1,22.7-1c4.9,0,10.4,0.2,16.4,0.7
				c6,0.5,12,1.4,17.8,2.9c5.9,1.4,11.3,3.4,16.3,6c5,2.5,9,5.9,12,10.1c1.2,1.6,2.5,3.7,3.9,6.5c1.4,2.8,2.7,5.7,4,9
				c1.3,3.2,2.3,6.5,3.1,9.8c0.8,3.3,1.2,6.3,1.2,9c0,0.4,0,1.3-0.1,2.6c0,1.3-0.2,2.8-0.5,4.6c-0.3,1.7-0.7,3.6-1.2,5.4
				c-0.5,1.9-1.2,3.6-2.2,5.2c-0.9,1.6-2.1,2.9-3.4,3.9c-1.4,1-3,1.6-5,1.6c-0.8,0-1.4-0.1-1.9-0.2c-0.5-0.1-0.9-0.3-1.4-0.5
				c-0.4-0.2-0.9-0.3-1.5-0.5c-0.6-0.1-1.3-0.2-2.3-0.2c0,0.6,0.1,1.1,0.3,1.4c0.2,0.4,0.3,0.7,0.5,1.1c0.2,0.4,0.3,0.8,0.5,1.3
				c0.2,0.5,0.3,1.1,0.3,1.9c0,1.5-0.2,2.7-0.5,3.7c-0.4,1-1.4,1.8-3.3,2.5c3.8,4.6,7.1,8.5,10,11.5c2.9,3.1,5.3,6.2,7.3,9.3
				c2,3.1,3.5,6.8,4.6,10.9c1,4.2,1.6,9.6,1.6,16.5c0,0.6,0,1.7,0,3.2c0,1.5,0,3.1-0.1,4.9c0,1.7-0.1,3.3-0.1,4.9c0,1.5,0,2.6,0,3.2
				c-2.6,6.1-5.9,11.4-9.8,15.8c-3.9,4.4-8.1,8.2-12.7,11.2c-4.6,3.1-9.4,5.5-14.5,7.4c-5.1,1.9-10.1,3.3-15.1,4.3
				c-5,1-9.8,1.7-14.6,2c-4.7,0.3-9,0.5-13,0.5c-6.5,0-12.2-0.3-17.2-0.9c-5-0.6-9.4-1.2-13.2-2c-3.8-0.7-7.2-1.4-10.2-2
				C416,454.4,413.3,454.1,410.9,454.1z M382.5,321.8c0,1,0.5,1.9,1.6,2.5c1,0.6,2,1,2.8,1v-3.5H382.5z M388.7,429.2h1.8v-1.8h-1.8
				V429.2z M413.7,343.3l-1.8,1.7h1.8V343.3z M419.1,316.4v-3.5l-1.8,1.7L419.1,316.4z M424.5,418.4c-0.4,0-0.8,0.2-1,0.6
				c-0.2,0.4-0.3,0.8-0.3,1.2c0,0.4,0.1,0.9,0.3,1.2c0.2,0.4,0.5,0.6,1,0.6c0.4,0,0.8-0.2,1-0.6c0.3-0.4,0.4-0.8,0.4-1.2
				c0-0.4-0.1-0.9-0.4-1.2C425.3,418.6,424.9,418.4,424.5,418.4z M435.2,404.1c0.1,0,0.4,0,1,0.1c0.6,0,1.3,0.1,2.2,0.1
				c0.8,0,1.7,0.1,2.6,0.1c0.9,0,1.6,0,2.1,0h5.9c5,0,10-0.3,15.1-0.9c5.1-0.6,9.8-2.2,14.1-4.8c0-0.3,0-0.8,0-1.6
				c0-0.8,0-1.6,0.1-2.4c0-0.8,0.1-1.6,0.1-2.4c0-0.8,0-1.3,0-1.6c0-3.7-0.5-6.6-1.4-8.9c-1-2.2-2.4-4-4.5-5.2
				c-2-1.2-4.6-2.1-7.9-2.5c-3.2-0.4-7.1-0.7-11.7-0.7c-3.1,0-6.4,0.1-9.8,0.3c-3.4,0.2-7.8,0.8-13.2,1.6c0,0.2,0,0.5-0.1,0.9
				c0,0.4-0.1,0.7-0.1,0.9c0,1.8,0.2,3.9,0.5,6.1c0.3,2.2,0.7,4.5,1.2,6.7c0.4,2.2,0.9,4.4,1.2,6.5c0.4,2.1,0.6,4,0.7,5.8
				L435.2,404.1z M431.6,317.2c0,0.2,0,0.4,0,0.6c0,0.2,0,0.4,0.1,0.5c0,0.5,0.1,1.5,0.3,2.8c0.2,1.4,0.3,2.8,0.5,4.3
				c0.2,1.5,0.3,3,0.5,4.3c0.2,1.4,0.3,2.3,0.4,2.8c0.8,1.2,1.7,2.2,2.9,3c1.1,0.7,2.4,1.3,3.7,1.7c1.4,0.4,2.8,0.6,4.2,0.7
				c1.4,0.1,2.8,0.1,4.1,0.1c2.7,0,5.8-0.2,9.2-0.5c3.5-0.3,6.7-1.1,9.8-2.2c3.1-1.1,5.7-2.6,7.8-4.7c2.1-2,3.1-4.7,3.1-8
				c0-2.9-0.8-5.2-2.4-6.9c-1.6-1.7-3.6-3.1-6-4.1c-2.4-1-5.1-1.7-8-2c-2.9-0.3-5.6-0.5-8.1-0.5c-1.4,0-2.7,0-4,0.1
				c-1.3,0.1-2.7,0.3-4.2,0.6c-1.5,0.3-3.3,0.7-5.2,1.2c-2,0.5-4.3,1.1-7,1.9c-0.2,0.2-0.5,0.7-0.9,1.7c-0.4,1-0.7,1.6-0.8,1.8
				c-0.1,0-0.1,0.1-0.1,0.3C431.6,316.8,431.6,317,431.6,317.2z M440,278.8c0,0.9,0.1,1.9,0.4,3.1c0.3,1.2,0.9,1.9,2,2.3v-5.4H440z
				 M442.3,291.4h1.8v-1.8L442.3,291.4z M476.4,296.7c-0.4,0-0.8,0.2-1,0.5c-0.2,0.4-0.3,0.8-0.3,1.2c0,0.5,0.1,0.9,0.3,1.2
				c0.2,0.4,0.5,0.5,1,0.5c0.4,0,0.8-0.2,1-0.5c0.3-0.3,0.4-0.8,0.4-1.2c0-0.5-0.1-0.9-0.4-1.2C477.2,296.9,476.9,296.7,476.4,296.7
				z M483.6,361.1h1.7v-1.7L483.6,361.1z M494.2,332.5c-0.3-0.1-0.5,0-0.6,0.2c-0.1,0.2-0.2,0.5-0.2,0.7c0,0.3,0.1,0.5,0.2,0.7
				c0.1,0.2,0.3,0.3,0.6,0.2c0.6-0.2,0.9-0.5,0.9-0.9C495.2,333,494.9,332.7,494.2,332.5z M497.9,427.3c0.1-0.3,0-0.5-0.2-0.6
				c-0.2-0.1-0.5-0.2-0.7-0.2c-0.7,0-1,0.3-0.9,0.8c0.1,0.6,0.4,0.9,0.9,0.9C497.5,428.2,497.8,427.9,497.9,427.3z M502.4,335.9
				c-0.8,0-1.4,0.2-1.8,0.7c-0.4,0.4-0.8,1-1,1.6c-0.2,0.7-0.4,1.3-0.4,2c0,0.7-0.1,1.2-0.1,1.8c1.4,0,2.6-0.4,3.5-1.2
				c0.9-0.8,1.7-1.7,2.4-2.9c-0.3-0.5-0.6-1-1.1-1.4C503.4,336.1,502.9,335.9,502.4,335.9z M505,278.5c-0.8,0-1.7,0.2-2.8,0.7
				c-1,0.5-1.9,0.9-2.6,1.4c0.4,1,1.2,1.7,2.4,2c1.2,0.3,2.2,0.4,3,0.4V278.5z M505,422.1c-0.1-0.1-0.4,0.1-0.8,0.5
				c-0.4,0.4-0.7,0.8-0.9,1.2c-0.1,0.1-0.1,0.2-0.1,0.4c0,0.2,0,0.4,0,0.5c0,0.1,0,0.2,0,0.5c0,0.2,0,0.4,0.1,0.5
				c0.3,0.2,0.9,0.4,1.8,0.8c0.8,0.4,1.7,0.7,2.6,1.1c0.9,0.4,1.8,0.7,2.7,1c0.9,0.3,1.5,0.5,1.8,0.6h0.4c0.1,0.1,0.3,0.1,0.5,0.1
				c0.2,0,0.3,0,0.5-0.1c0.2,0,0.3-0.1,0.4-0.1c0.2-0.1,0.5-0.4,0.9-0.9c0.4-0.5,0.7-0.8,0.8-1L505,422.1z M517.6,436.4h1.8
				l-1.8-1.8V436.4z"/>
			<path d="M559.3,280.6c1-1.5,2.6-3.1,4.6-4.7c2-1.7,4.2-3.2,6.6-4.7c2.4-1.4,4.8-2.6,7.3-3.6c2.4-1,4.6-1.4,6.6-1.4
				c0.2,0,0.5,0,1,0.1c0.5,0,0.8,0.1,0.9,0.1c0.5,0,1.4,0.1,2.6,0.3c1.2,0.2,2.4,0.4,3.7,0.5c1.3,0.2,2.6,0.4,3.7,0.5
				c1.2,0.2,2,0.3,2.6,0.4h107.4c0.3,0,0.9,0.2,1.7,0.7c0.8,0.4,1.6,0.9,2.4,1.5c0.8,0.6,1.5,1.2,2.2,1.8c0.6,0.6,0.9,1.1,0.9,1.4
				v26.9c0,2.4-0.9,4.4-2.6,6c-1.7,1.7-3.8,3-6.4,4.1c-2.6,1-5.4,1.9-8.5,2.4c-3.1,0.6-5.9,1-8.6,1.2c-2.7,0.3-4.9,0.4-6.8,0.5
				c-1.9,0-2.9,0.1-3.2,0.1c-2.6,0-5-0.2-7.1-0.6c-2.1-0.4-4-0.8-5.8-1.2c-1.8-0.4-3.5-0.9-5.2-1.2c-1.7-0.4-3.3-0.6-5-0.6
				c-1.7,0-3.2,0.3-4.5,1c-1.4,0.7-2.9,1-4.5,1c-1.1,0-2.1-0.3-3-0.9c-0.8-0.6-1.6-1.2-2.4-1.9c-0.7-0.7-1.5-1.3-2.2-1.9
				c-0.7-0.6-1.4-0.9-2.2-0.9c-2.3,0-4.2,0.5-5.6,1.6c-1.5,1.1-2.7,2.4-3.6,3.9c-0.9,1.5-1.6,3.1-2,4.8c-0.4,1.7-0.6,3.1-0.6,4.3
				c0,2.4,0.6,4.7,1.9,6.9c1.3,2.1,2.8,4,4.7,5.6c1.9,1.6,3.9,2.9,6.1,3.8c2.2,0.9,4.2,1.4,6.2,1.4c0.2,0,0.4,0,0.6,0s0.3,0,0.3-0.1
				c0.3-0.1,0.9-0.3,1.8-0.8c1-0.4,1.5-0.7,1.7-0.9c1-0.1,2.5-0.2,4.5-0.4c2.1-0.2,4.4-0.4,7-0.7c2.6-0.3,5.4-0.5,8.2-0.8
				c2.8-0.3,5.6-0.5,8.2-0.7c2.6-0.2,5-0.4,7-0.6c2.1-0.2,3.6-0.3,4.5-0.4c0-0.1,0.1-0.1,0.3-0.1c0.2,0,0.4,0,0.6,0
				c1.2,0,2.6,0,4.1,0.1c1.5,0,3,0.2,4.5,0.6c1.5,0.4,2.8,0.9,4,1.6c1.2,0.7,2,1.8,2.6,3.1c0,0.3,0,0.7,0,1.4c0,0.7,0,1.4,0.1,2.2
				c0,0.8,0.1,1.5,0.1,2.2c0,0.7,0,1.1,0,1.4c0,1.7,0,4-0.1,6.9c-0.1,2.9-0.4,5.9-0.9,8.9c-0.5,3-1.2,5.7-2.2,8.2
				c-1,2.4-2.4,4-4.1,4.7c-5.6,0.6-11,1.4-16.3,2.3c-5.3,0.9-10.3,1.4-14.9,1.4c-4.1,0-7.7-0.3-10.7-1c-3-0.7-6.1-1-9.1-1
				c-1.6,0-3.1,0.3-4.5,1c-1.4,0.7-2.9,1-4.5,1c-2.2,0-4.3-0.3-6.3-0.9c-2-0.6-4.1-0.9-6.3-0.9v21.2c-0.2,0.2-0.5,0.5-0.9,1
				c-0.4,0.5-0.9,1-1.4,1.6c-0.5,0.6-0.9,1.1-1.3,1.6c-0.4,0.5-0.7,0.9-0.9,1.2v0.4c-0.1,0.1-0.1,0.3-0.1,0.5c0,0.1,0,0.2,0.1,0.5
				c0,0.2,0.1,0.4,0.1,0.5c0.1,0.2,0.4,0.5,0.9,0.9c0.5,0.4,0.8,0.7,1,0.8c2.8,0.4,5.2,0.8,7.2,1c2,0.3,3.8,0.5,5.4,0.6
				c1.6,0.1,3,0.2,4.3,0.3c1.3,0,2.6,0.1,3.9,0.1c4.7,0,9.2-0.2,13.3-0.6c4.2-0.4,8.2-0.9,12.1-1.4c3.9-0.5,7.8-1,11.6-1.4
				s7.8-0.6,11.8-0.6c2.5,0,5.4,0.2,8.5,0.5c3.1,0.3,6.1,1,8.9,2.2c2.8,1.2,5.1,2.9,6.9,5.1c1.9,2.2,2.8,5.3,2.8,9.1v3
				c-0.1,2-0.2,4.5-0.5,7.5c-0.2,3-0.4,6-0.6,8.9c-0.2,2.9-0.4,6.4-0.8,10.5l-1.7,1.7c-0.2,0.2-1.1,0.4-2.9,0.6
				c-1.8,0.2-4,0.5-6.8,0.8c-2.8,0.3-6,0.6-9.6,0.9c-3.6,0.3-7.3,0.6-11.1,0.9c-3.8,0.3-7.7,0.6-11.5,0.9c-3.8,0.3-7.3,0.6-10.6,0.8
				c-3.3,0.2-6.1,0.4-8.5,0.5c-2.4,0.1-4.1,0.2-5.2,0.2c-2,0-3.9-0.2-5.7-0.6c-1.8-0.4-3.6-0.9-5.4-1.4c-1.8-0.5-3.7-1-5.7-1.4
				c-2-0.4-4.2-0.6-6.6-0.6c-2.4,0-4.9,0.2-7.5,0.6c-2.7,0.4-5.4,0.8-8.2,1.3c-2.8,0.5-5.6,0.9-8.4,1.3c-2.8,0.4-5.6,0.6-8.4,0.6
				c-5,0-9.6-0.8-14-2.3c-4.3-1.5-8.1-3.7-11.3-6.5c-3.2-2.8-5.8-6.2-7.6-10.2c-1.8-4-2.8-8.5-2.8-13.4c0-1.1,0.2-2.1,0.6-2.8
				c0.4-0.7,0.9-1.3,1.4-1.9c0.5-0.6,1-1.1,1.4-1.7c0.4-0.6,0.6-1.3,0.6-2.3c0-1.7-0.3-3.2-1-4.6c-0.7-1.4-1-2.9-1-4.5
				c0-4.2,0.3-8.2,1-12.1c0.7-3.9,1-7.9,1-12.1c0-2.9-0.2-5.7-0.6-8.5c-0.4-2.8-0.8-5.4-1.3-8.1c-0.5-2.6-0.9-5.2-1.3-7.7
				c-0.4-2.5-0.6-4.9-0.6-7.3c0-2.4,0.2-4.6,0.6-6.8c0.4-2.2,0.8-4.3,1.3-6.4c0.5-2.1,0.9-4.1,1.3-6.1c0.4-2,0.6-4,0.6-6
				c0-1.5-0.1-3-0.3-4.5c-0.2-1.5-0.4-3.2-0.7-5.1c-0.2-1.9-0.4-4.1-0.7-6.6c-0.2-2.5-0.3-5.5-0.3-8.9c0-1,0-2.2,0.1-3.6
				c0-1.4,0.1-2.9,0.3-4.7c0.1-1.8,0.3-3.9,0.5-6.2C558.5,286.5,558.8,283.8,559.3,280.6z M566.5,325.3c0.3,0.5,0.6,1,1.1,1.4
				c0.5,0.4,1,0.6,1.6,0.6c0.2,0,0.3,0,0.4-0.1h0.4c1.3-1,2.4-1.9,3.3-2.5c0.9-0.6,1.7-1.2,2.2-1.8c0.6-0.6,1-1.2,1.3-1.8
				c0.3-0.7,0.5-1.6,0.5-2.7c0-1.4-0.2-2.6-0.5-3.7c-0.3-1-0.8-2.3-1.5-3.7c-1,2.6-2.2,5.1-3.7,7.5
				C570.1,321,568.4,323.2,566.5,325.3z M566.5,429.2h1.8v-1.8h-1.8V429.2z M598.7,275.2c0.1-0.3,0-0.5-0.2-0.6
				c-0.2-0.1-0.5-0.2-0.7-0.2c-0.7,0-1,0.3-0.9,0.8c0.2,0.5,0.5,0.8,0.9,0.8C598.4,276,598.7,275.8,598.7,275.2z M613,359.4v1.7h1.8
				L613,359.4z M633.1,445.3c0-1.7-0.7-2.8-2.2-3.5v3.5H633.1z M668.5,293.1v1.8h1.8v-1.8H668.5z M675.7,450.7v-4.2
				c-1.4,0-2.7,0.3-3.9,0.9c-1.2,0.6-1.8,1.7-1.8,3.3H675.7z"/>
		</g>
	</g>
	<g>
		<path class="st0" d="M927,645.7c-2.6-1-5.2-0.5-6.8,2.1c-1,2.6-2.1,5.8-3.1,8.4c-5.2,17.8-13.6,34.5-22.5,50.2
			c-4.2,7.8-9.4,14.7-15.2,20.9c-5.2,5.8-12,11-19.4,14.1c-5.8,2.6-6.8,2.6-9.9-2.6c-6.3-8.4-9.9-18.3-12.6-28.3
			c-4.7-17.3-5.2-35.6-4.7-53.4c0.5-3.1,1.6-4.7,4.2-5.8c6.3-2.6,12-6.3,17.3-11.5c11.5-11.5,19.4-25.1,23.6-40.8
			c1-4.2,1.6-8.4,1.6-12.6c0.5-10.5-4.2-17.3-13.1-22c-6.8-3.7-14.7-4.7-23-4.7c-14.7,0-26.7,6.8-36.1,19.4
			c-6.3,8.4-10.5,18.3-13.1,28.3c-6.3,23.6-7.8,47.6-5.2,71.7c0.6,6.1,1.7,12,3.3,17.6c-4.2,15.1-9.8,29.8-15.8,44.1
			c-5.2,13.6-12.6,26.2-20.4,38.2c-4.2,6.3-9.9,11.5-16.2,16.2c-2.1,1.6-4.7,2.6-7.3,3.1c-4.7,1-6.3,1-8.9-3.1
			c-3.7-5.2-5.2-11-6.3-16.7c-4.2-22.5-2.6-45,2.1-67.5c5.2-24.1,12.6-47.6,17.3-72.2c2.6-12,4.2-23.6,2.1-36.1
			c-4.2-25.6-20.4-44-45-48.7c-10.5-2.1-20.4,0-28.3,7.9c-4.2,4.2-7.8,8.9-11,13.6c-8.4,13.1-15.2,27.2-19.9,42.4
			c-6.8,22.5-9.9,46.1-11,69.6c0,9.4-0.5,18.8-1,29.3c-2.1-2.1-2.1-4.2-2.6-6.3c-5.2-25.6-7.8-51.3-4.7-77.5
			c1-6.8,2.6-13.6,4.2-19.9c0.5-3.1,0.5-4.2,3.7-4.7c7.8-1.6,8.9-4.7,5.2-11.5c-4.7-8.9-11-12-22-10.5c-9.4,1-18.8,2.1-28.3,3.7
			c-6.3,1-12,2.6-18.3,4.7c-6.8,2.1-7.8,5.8-4.7,12.6c2.1,3.7,5.2,6.8,9.9,7.3c2.1,0.5,3.1,1,3.1,4.2c-0.7,9.8-0.6,19.5-0.1,29.3
			c-0.5,0.2-1,0.6-1.5,1c-0.5,1-1.6,2.1-1.6,3.7c-3.7,8.9-6.8,17.8-9.4,26.7c-8.4,24.6-18.3,48.7-35.1,69.1
			c-2.6,3.1-5.8,6.8-9.4,9.4c-11,7.3-17.3,9.4-23.6-7.8c-4.2-11.5-2.6-23-1.6-34.5c2.6-29.3,7.3-58.6,12.6-87.4
			c0.5-2.6,1-4.7,1.6-6.8c0.5-2.1,1.6-3.1,4.2-3.1c5.2,0,6.8-1.6,6.3-6.3c0-4.7-2.1-9.4-4.2-13.6c-3.1-7.3-8.9-11.5-16.7-11.5h-22.5
			v-0.5c-8.4,0.5-17.3,1-26.2,1.6c-11,0-17.3,3.1-11,18.3c1,2.1,1.6,4.7,4.7,5.2c3.1,0.5,3.7,2.6,3.1,5.8
			c-2.4,19.9-2.6,39.5-1.4,59.3c-3.5,14.5-8.2,28.8-13.8,42.7c-8.9,22-18.8,43.4-36.6,60.2c-5.2,5.2-11,8.9-17.8,11.5
			c-6.3,2.6-8.4,1.6-12-3.7c-1.6-2.1-2.6-4.7-3.7-7.3c-1.6-5.8-2.6-11.5-2.6-17.3c-1-20.4,2.6-39.8,8.4-59.1
			c3.1-9.9,6.3-19.4,9.4-29.3c4.2-12.6,6.8-25.1,6.3-37.7c-0.5-14.7-9.4-33.5-28.8-40.3c-10.5-3.7-19.4-2.1-27.7,4.7
			c-7.3,5.8-13.1,13.1-18.3,20.4c-1.6,2.1-2.1,4.2-4.7,5.2c0-2.6,0-5.2,0.5-7.3c1-12,1-24.1-0.5-36.1c-2.1-17.8-11.5-28.8-28.3-33
			c-9.9-2.6-14.7-1-20.4,7.3c-8.4,11.5-13.6,24.6-17.8,37.7c-6.8,23.6-14.1,47.1-17.8,71.2c-1,6.8-2.1,14.1-4.7,22
			c-1-12.6,0.5-23.5,1.6-34.5c1.6-12.6,5.2-25.1,7.3-37.7c0.5-2.6,0.5-4.7,3.7-5.8c2.6-0.5,2.6-2.6,2.1-4.7
			c0-11.5-9.9-21.5-21.5-21.5c-14.1,0-27.2,3.1-40.8,6.8c-5.8,1.6-8.4,6.3-6.3,12.6c1,3.7,3.1,7.8,6.8,10.5c3.1,2.1,4.2,4.7,3.7,8.4
			c-2.1,28.3-1.6,56.5,2.6,84.8c2.6,17.3,5.2,34.5,14.7,50.2c5.2,8.9,12.6,12,22.5,12.6c5.2,0,6.8-1.6,7.8-7.3
			c1.6-11,3.1-22,5.2-33.5c3.1-21.5,5.2-42.9,10.5-64.4c4.7-18.8,8.9-38.2,16.2-56c1-2.6,1.6-4.7,3.7-6.3c0,1,0.5,1.6,0,2.6
			c-2.6,16.7-3.1,33.5-2.1,50.8c0.5,4.7,0.5,9.4,2.1,13.6c2.6,6.3,5.2,12.6,6.8,19.4c3.1,9.9,11,14.1,20.4,15.7
			c5.8,0.5,7.3-0.5,9.9-5.8c4.2-9.4,7.3-19.4,10.5-29.3c4.2-12.6,9.4-24.6,17.3-35.6c5.8-8.4,13.1-14.7,22.5-19.9
			c0,5.8-2.1,10.5-3.7,15.2c-5.8,16.2-13.1,31.9-17.8,48.1c-6.3,22-9.4,44-6.3,67c4.2,29.8,25.1,52.9,54.4,59.7
			c9.9,2.1,18.8,1,26.7-4.2c7.8-4.7,14.1-11,19.4-18.3c9.9-14.1,16.7-29.8,23-46.1c4.4-9.9,7.9-20,11-30.3
			c2.5,14,7.4,27.4,15.2,39.7c8.9,13.6,20.9,22,36.1,26.2c13.1,3.7,23.5-0.5,33-9.9c9.9-9.9,16.7-21.5,24.1-33.5
			c10.6-18.7,18.1-38.4,22.3-59.2c0.8,5.9,1.7,11.9,2.8,17.8c2.6,13.6,4.7,26.7,9.4,39.8c4.7,13.1,12.6,24.1,23,33.5
			c5.2,4.2,11.5,6.3,17.8,6.3c7.3,0.5,9.4-2.6,8.9-7.9c0-7.8,0-15.2,0-23c0.5-24.6,2.6-48.7,8.4-72.7c4.7-21.5,12-41.3,22.5-59.7
			c6.3-11.5,15.2-20.4,27.2-28.3c0,7.3,0.5,12.6-0.5,17.8c-3.7,16.2-7.9,32.4-13.1,48.1c-8.9,27.2-13.1,55-12,83.7
			c0.5,17.3,4.7,33.5,12.6,48.7c9.9,17.8,23.6,30.9,43.4,36.6c16.7,4.7,30.4,0,40.8-13.6c8.9-11,15.2-22.5,20.4-35.1
			c6.4-15.5,12.3-31.2,17-47.2c3.2,6.5,7.3,12.7,12.3,18.4c8.4,8.9,17.8,15.7,29.3,19.9c14.7,5.2,28.3,3.7,39.8-7.8
			c4.2-4.2,7.8-7.9,11.5-12.6c12.6-16.2,20.4-35.1,28.3-54.4c3.1-8.4,6.3-17.3,8.9-25.6C929.6,648.8,930.1,646.7,927,645.7z
			 M851.1,587.1c3.7,14.1-5.2,42.4-16.2,50.8C835.9,619.5,840.6,602.8,851.1,587.1z"/>
		<path class="st1" d="M732.3,813.4c-4,0-8.3-0.6-12.7-1.9c-19-5.5-33.6-17.8-44.7-37.7c-8-15.5-12.3-32.1-12.8-49.7
			c-1-28.7,2.9-56.3,12.1-84.5c4.7-14,8.8-29.2,13-48c0.7-3.6,0.6-7.2,0.5-11.9c0-0.5,0-1,0-1.5c-10.4,7.4-17.9,15.5-23.2,25.3
			c-10.2,17.8-17.5,37.2-22.3,59.1c-5.1,21.3-7.7,44.2-8.3,72.3v23c0.3,3.2-0.3,5.8-2.1,7.5c-1.9,2-4.9,2.8-9.1,2.5c0,0,0,0,0,0
			c-6.7,0-13.5-2.4-19-6.7c-11.3-10.2-19-21.4-23.7-34.4c-4.1-11.4-6.2-22.6-8.4-34.4c-0.4-1.9-0.7-3.8-1.1-5.7
			c-0.4-2.2-0.8-4.5-1.2-6.7c-4.4,16.8-11.1,33.1-20,48.7l-1.1,1.8c-7,11.6-13.7,22.5-23.3,32.2c-10.7,10.7-22.1,14.1-35.1,10.5
			c-16.1-4.4-28.3-13.3-37.3-27.1c-6.2-9.9-10.9-20.7-13.8-32.4c-2.6,8.1-5.5,15.6-8.6,22.7c-6,15.4-12.9,31.8-23.2,46.4
			c-5.8,8.1-12.4,14.3-20,18.9c-7.9,5.3-17.2,6.8-28.2,4.4c-30.3-7-51.8-30.6-56.1-61.5c-2.9-21.1-0.9-42.7,6.3-67.9
			c2.9-10.1,6.9-20.1,10.7-29.7c2.4-6.1,4.9-12.3,7.1-18.5c0.3-0.8,0.6-1.6,0.9-2.5c0.9-2.6,1.8-5.2,2.3-8
			c-7.7,4.8-13.5,10.3-18.2,17.1c-6.8,9.5-12.2,20.7-17,35.1c-3.1,9.8-6.3,20-10.5,29.5c-3.1,6.2-5.6,7.6-12.1,7
			c-12-2-19.2-7.6-22.3-17.2c-1.6-6.8-4.2-13.1-6.7-19.2c-1.3-3.5-1.6-7.2-1.9-10.8c-0.1-1.1-0.2-2.3-0.3-3.4
			c-0.9-15-0.6-28.9,0.9-42.4c-5.2,13.7-8.8,28.4-12.3,42.7c-0.7,3-1.4,5.9-2.2,8.9c-3.9,16-6.1,32.3-8.2,48
			c-0.7,5.4-1.4,10.7-2.2,16.1c-2.1,11.5-3.7,22.7-5.2,33.5c-1.2,6.9-3.8,9.2-10,9.2c-11.7-0.6-19.2-4.8-24.4-13.6
			c-9.6-16-12.3-33.8-14.9-51c-4-27.1-4.9-55-2.6-85.3c0.4-3.1-0.3-4.8-2.7-6.4c-4.8-3.4-6.8-8.8-7.7-11.7c-1.2-3.6-1.1-7,0.4-9.8
			c1.4-2.6,4-4.5,7.4-5.5c13.5-3.6,26.8-6.9,41.4-6.9c12.7,0,23.5,10.7,23.6,23.3c0.1,0.3,0.1,0.7,0.2,1.1c0.3-1.1,0.7-2.2,1-3.3
			c0.8-2.8,1.7-5.7,2.5-8.5c3.6-11.2,8.9-25.6,18.1-38.3c6.2-9,11.7-11,22.7-8.1c17.6,4.4,27.6,16.1,29.8,34.8
			c1.5,11.5,1.7,23.4,0.5,36.5l-0.1,0.3c-0.1,0.4-0.2,0.8-0.2,1.2c0.2-0.3,0.4-0.6,0.6-0.9c5.2-7.2,11-14.8,18.7-20.8
			c8.9-7.3,18.7-8.9,29.8-5c20.1,7.1,29.6,26.3,30.2,42.2c0.5,11.5-1.6,24.1-6.4,38.4c-1.6,4.9-3.1,9.8-4.7,14.6
			c-1.6,4.8-3.1,9.7-4.7,14.6c-6.6,22.1-9.2,40.6-8.3,58.4c0,5,0.8,10.5,2.5,16.7c1,2.5,2,4.9,3.3,6.7c3.1,4.5,4.2,5.2,9.5,3
			c6.7-2.6,12.1-6.1,17.1-11.1c18-17,27.7-38.7,36.2-59.5c5.6-14.1,10.2-28.3,13.6-42.1c-1.3-21.3-0.9-40.7,1.4-59.4
			c0.5-3.1-0.2-3.2-1.4-3.4c-3.7-0.6-5-3.5-5.8-5.4c-0.2-0.4-0.3-0.7-0.5-1c-3.2-7.8-3.6-13-1.2-16.6c2.9-4.3,9-4.9,14.1-4.9
			c8.8-0.5,17.7-1,26-1.6l2.3-0.1v0.7h20.4c8.5,0,15.2,4.6,18.7,12.8c2.2,4.4,4.3,9.3,4.4,14.3c0.2,1.9,0.2,4.5-1.4,6.3
			c-1.8,2-4.7,2.2-7,2.2c-1.6,0-1.8,0.4-2.1,1.5c-0.5,2-1,4.1-1.5,6.7c-4.3,23.9-9.7,55.4-12.5,87.2l-0.3,2.9
			c-1,10.6-2,20.6,1.7,30.7c2.5,6.9,5.1,10.7,7.8,11.6c2.9,1,7-1.1,12.5-4.8c3.3-2.4,6.3-5.8,9-9c17.1-20.9,26.8-45.2,34.7-68.4
			c2.6-8.7,5.7-17.7,9.3-26.5c0.1-1.5,0.8-2.6,1.4-3.5c0.1-0.2,0.3-0.5,0.4-0.7l0.2-0.3l0.2-0.2c0.3-0.3,0.5-0.5,0.8-0.7
			c-0.5-10-0.5-19.2,0.1-28.3c0-1.5,0-1.6-1.4-1.9c-4.7-0.6-8.6-3.4-11.4-8.4c-2.1-4.5-2.5-7.8-1.3-10.4c1.1-2.4,3.5-4.1,7.3-5.3
			c6.9-2.3,12.7-3.8,18.6-4.8c9.5-1.6,19.1-2.6,28.4-3.7c11.7-1.7,18.9,1.8,24.1,11.6c1.6,2.9,3.2,6.6,1.7,9.8
			c-1.5,3.1-5.3,4.2-8.4,4.9c-1.5,0.3-1.5,0.3-1.9,2.5l-0.1,0.5c-1.4,5.6-3.1,12.7-4.2,19.9c-2.6,21.7-1.4,44.5,3.7,71.4
			c0.3-5.9,0.5-11.6,0.5-17.3c1.2-26.5,4.8-49.5,11.1-70.2c4.6-14.8,11.4-29.2,20.1-42.9c3.6-5.4,7.4-10.1,11.3-14
			c7.9-7.9,18.3-10.8,30.2-8.4c24.9,4.8,42.3,23.6,46.7,50.4c2.3,13.5,0.3,25.7-2.1,36.9c-2.7,13.9-6.2,27.7-9.7,41
			c-2.6,10.2-5.4,20.8-7.6,31.2c-5.2,24.6-5.8,46.5-2.1,66.7c0.9,5,2.3,10.7,5.9,15.9c2,3.2,2.5,3.2,6.7,2.3
			c2.5-0.5,4.8-1.5,6.5-2.8c7.2-5.4,12.2-10.4,15.7-15.7c6.4-9.8,14.5-23,20.2-37.8c6.9-16.3,11.9-30.1,15.6-43.4
			c-1.5-5.5-2.6-11.4-3.2-17.4c-2.7-24.8-0.9-49.2,5.3-72.5c3-11.3,7.5-21.1,13.4-29c10.1-13.4,22.8-20.2,37.8-20.2
			c10.1,0,17.8,1.6,24,5c10.1,5.3,14.7,13.2,14.2,24c0,4.2-0.5,8.6-1.6,13c-4.3,16-12.4,30.1-24.1,41.8c-5.2,5.2-11.1,9.1-18,12
			c-1.6,0.7-2.4,1.4-2.9,4c-0.4,15-0.3,34.5,4.6,52.6c3.1,11.8,7,20.6,12.2,27.5l0.1,0.2c2.4,4,2.4,4,7.2,1.8
			c6.7-2.9,13.3-7.7,18.7-13.6c6.3-6.9,11.2-13.6,14.9-20.5c7.5-13.1,16.7-30.6,22.3-49.8c0.6-1.5,1.1-2.9,1.6-4.3
			c0.5-1.5,1.1-2.9,1.6-4.2l0.2-0.3c2-3.3,5.6-4.5,9.4-3c1.7,0.6,2.8,1.5,3.4,2.7c0.9,1.9,0.2,3.9-0.5,5.8
			c-2.3,7.5-5.3,16.2-8.9,25.6c-7.2,17.8-15.4,38-28.6,55c-3.7,4.8-7.4,8.5-11.7,12.7c-11.4,11.4-25.6,14.3-42,8.4
			c-11.2-4.1-21-10.7-30.1-20.4c-3.9-4.5-7.3-9.3-10.2-14.4c-4.1,13.2-9.2,27.2-15.6,42.5c-5.9,14.1-12.4,25.4-20.7,35.6
			C754.4,808,744.3,813.4,732.3,813.4z M692,570.6v4c0,1.9,0,3.7,0.1,5.4c0.1,4.7,0.2,8.8-0.6,12.8c-4.3,18.9-8.5,34.3-13.2,48.4
			c-9,27.7-13,54.8-11.9,83c0.5,16.9,4.7,32.9,12.3,47.8c10.5,18.7,24.3,30.4,42.1,35.6c15.8,4.5,28.4,0.2,38.5-12.9
			c8.1-9.9,14.4-20.9,20.1-34.6c7.1-17.1,12.6-32.5,16.9-47l1.5-5.2l2.4,4.9c3.2,6.4,7.2,12.5,12,18c8.6,9.1,17.9,15.4,28.4,19.3
			c15,5.3,27.2,2.9,37.5-7.4c4.2-4.2,7.8-7.8,11.3-12.4c12.8-16.6,20.9-36.4,28-53.9c3.5-9.3,6.5-17.9,8.8-25.5
			c0.8-2,0.7-2.5,0.7-2.6c0,0-0.2-0.3-0.9-0.5l-0.1,0c-1.8-0.7-3.2-0.4-4.1,1.1c-0.5,1.2-1,2.6-1.5,3.9c-0.5,1.5-1.1,2.9-1.6,4.3
			c-5.7,19.4-15.1,37.2-22.6,50.5c-3.8,7.2-8.9,14.1-15.5,21.3c-5.8,6.4-12.9,11.6-20.1,14.7c-6.5,2.9-8.8,2.9-12.6-3.4
			c-5.5-7.4-9.6-16.6-12.9-28.9c-5.1-18.7-5.2-38.7-4.8-54l0-0.3c0.7-4,2.3-6.1,5.5-7.4c6.3-2.6,11.8-6.3,16.5-11
			c11.2-11.2,18.9-24.6,23-39.9c1-4,1.5-8,1.5-12c0.5-9.2-3.3-15.5-11.9-20.1c-5.7-3-12.7-4.5-22-4.5c-13.6,0-25.2,6.2-34.4,18.5
			c-5.6,7.5-9.9,16.7-12.7,27.5c-6.1,22.8-7.8,46.6-5.2,70.9c0.6,6,1.7,11.8,3.2,17.3l0.2,0.6l-0.2,0.6
			c-3.8,13.6-8.9,27.7-15.9,44.4c-5.8,15-14,28.5-20.6,38.5c-3.8,5.8-9.2,11.1-16.7,16.8c-2.2,1.7-5.1,2.9-8.2,3.5
			c-5.2,1.2-7.9,1.1-11.1-4.1c-4-5.7-5.6-12.1-6.6-17.5c-3.9-20.8-3.2-43.1,2.1-68.3c2.3-10.5,5-21.1,7.7-31.4
			c3.4-13.3,7-27,9.6-40.8c2.3-10.8,4.2-22.5,2.1-35.4c-4.1-25.3-19.9-42.4-43.3-46.9c-10.5-2.1-19.4,0.3-26.3,7.3
			c-3.7,3.7-7.3,8.2-10.7,13.3c-8.5,13.4-15.2,27.4-19.6,41.8c-6.2,20.4-9.7,43-10.9,69.1c0,8.5-0.4,17.2-0.9,26.5l-0.4,7.7
			l-3.4-3.4c-2.1-2.1-2.6-4.3-2.9-6.1c-0.1-0.4-0.2-0.8-0.2-1.2c-6.1-29.8-7.6-54.6-4.8-78.2c1.1-7.4,2.9-14.6,4.2-20.2l0-0.3
			c0.5-2.8,0.9-5.2,5.3-6c3-0.6,4.8-1.5,5.3-2.5c0.5-1,0-3-1.6-5.9c-4.3-8.2-9.9-10.8-19.8-9.4c-9.3,1-18.8,2.1-28.2,3.7
			c-5.7,0.9-11.2,2.4-18,4.6c-2.6,0.8-4.1,1.8-4.7,3c-0.6,1.4-0.2,3.5,1.2,6.6c2.1,3.6,4.9,5.7,8.2,6.1l0.3,0.1
			c2.9,0.7,4.8,2,4.8,6.3c-0.7,9.4-0.7,18.9-0.1,29.2l0.1,1.5l-1.4,0.6c-0.2,0.1-0.4,0.2-0.6,0.4c-0.1,0.2-0.3,0.5-0.4,0.7
			c-0.4,0.7-0.7,1.1-0.7,1.6v0.4l-0.2,0.4c-3.6,8.8-6.8,17.7-9.3,26.5c-7.7,22.5-17.9,48.4-35.5,69.8c-2.9,3.5-6,7.1-9.8,9.8
			c-5.7,3.8-11.2,7-16.3,5.4c-4.2-1.4-7.4-5.8-10.5-14.2c-4-11-3-22-2-32.6l0.3-2.9c2.9-32,8.2-63.6,12.6-87.6
			c0.5-2.7,1.1-4.9,1.6-6.9c0.8-3.2,2.9-4.8,6.3-4.8c2.6,0,3.5-0.4,3.8-0.8c0.4-0.4,0.5-1.5,0.3-3.1l0-0.2c0-4.2-1.9-8.5-4-12.6
			c-2.9-6.8-8-10.3-14.8-10.3h-24.6v-0.4c-7.7,0.5-15.8,1-23.9,1.4c-6,0-9.3,0.9-10.6,3c-1.5,2.2-1,6.4,1.5,12.4
			c0.1,0.3,0.3,0.7,0.5,1.1c0.8,1.9,1.3,2.6,2.6,2.8c2.8,0.5,5.9,2.3,4.9,8.2c-2.3,18.4-2.7,37.7-1.4,58.8l0,0.3l-0.1,0.3
			c-3.4,14.1-8.1,28.6-13.9,43c-8.6,21.2-18.5,43.4-37.2,60.9c-5.3,5.3-11.3,9.2-18.5,12c-7.6,3.2-10.6,1.2-14.6-4.4
			c-1.7-2.3-2.8-5.1-3.9-7.7l-0.1-0.2c-1.8-6.6-2.7-12.5-2.7-17.8c-0.9-18.2,1.8-37.2,8.5-59.7c1.6-5,3.2-9.9,4.7-14.7
			c1.6-4.8,3.1-9.7,4.7-14.6c4.6-13.9,6.6-25.9,6.2-36.9c-0.5-14.5-9.2-32-27.4-38.4c-9.7-3.4-17.8-2-25.7,4.4
			c-7.3,5.7-12.9,13-17.9,20c-0.4,0.6-0.7,1.1-1,1.6c-1,1.6-2.1,3.4-4.6,4.4l-2.9,1.2v-3.2c0-2.6,0-5.4,0.5-7.7
			c1.1-12.7,0.9-24.3-0.5-35.5c-2-17-10.7-27.2-26.7-31.2c-9.2-2.4-12.9-1.1-18.1,6.5c-8.9,12.3-14.1,26.3-17.5,37.1
			c-0.8,2.8-1.6,5.6-2.5,8.5c-5.9,20.3-12.1,41.4-15.3,62.4l-0.2,1c-1,6.4-2.1,13.7-4.6,21.3l-3.3,9.9l-0.9-10.4
			c-0.9-10.8,0.1-20.4,1-29.7c0.2-1.7,0.4-3.5,0.5-5.2c0.9-7.3,2.5-14.7,4.1-21.8c1.2-5.3,2.4-10.7,3.2-16l0.2-0.9
			c0.4-2.3,0.9-5.2,4.9-6.5l0.3-0.1c0.4-0.1,0.5-0.2,0.6-0.2c0,0,0.2-0.4-0.1-1.9l-0.1-0.5c0-10.3-9-19.3-19.3-19.3
			c-14.1,0-27.1,3.2-40.3,6.7c-2.2,0.6-3.8,1.8-4.7,3.3c-0.9,1.7-1,3.9-0.1,6.5c0.7,2.5,2.4,6.8,6,9.4c3.7,2.5,5.2,5.9,4.5,10.4
			c-2.2,29.8-1.4,57.4,2.6,84.2c2.5,16.8,5.2,34.1,14.4,49.5c4.4,7.5,10.7,11,20.8,11.5c3.8,0,4.7-0.5,5.6-5.6
			c1.5-10.7,3.1-21.9,5.2-33.5c0.8-5.3,1.5-10.6,2.2-16c2.1-15.9,4.3-32.3,8.3-48.5c0.7-2.9,1.5-5.9,2.2-8.8
			c3.9-15.9,7.9-32.3,14.1-47.5l0.4-1.1c0.9-2.2,1.7-4.4,3.9-6.1l3.4-2.6v4.3c0,0.1,0,0.3,0.1,0.5c0.1,0.6,0.3,1.5-0.1,2.7
			c-2.4,15.8-3.1,32.2-2,50c0.1,1.1,0.2,2.2,0.3,3.4c0.3,3.4,0.6,6.7,1.6,9.6c2.6,6.2,5.3,12.7,6.9,19.6c2.5,7.8,8.4,12.4,18.7,14.1
			c4.6,0.4,5.4-0.1,7.7-4.6c4.1-9.2,7.3-19.3,10.3-29c4.9-14.8,10.5-26.3,17.6-36.2c5.8-8.4,13.2-14.9,23.2-20.5l3.2-1.8v3.6
			c0,5.1-1.5,9.3-2.9,13.4c-0.3,0.8-0.6,1.6-0.8,2.4c-2.3,6.3-4.8,12.6-7.2,18.7c-3.8,9.6-7.7,19.5-10.6,29.3
			c-7,24.6-9,45.6-6.2,66.1c4.1,29.1,24.3,51.3,52.8,57.9c9.8,2.1,18,0.8,25-3.9c7.2-4.3,13.3-10.1,18.8-17.8
			c10-14.2,16.9-30.3,22.8-45.6c4.1-9.3,7.7-19.1,10.9-30.1l2.6-8.7l1.6,9c2.5,14.3,7.6,27.4,14.9,39c8.4,12.8,19.8,21.1,34.9,25.2
			c11.5,3.2,21.3,0.2,30.9-9.4c9.3-9.3,15.8-20,22.7-31.4l1-1.7c10.6-18.6,18-38.3,22-58.5l2.5-12.7l1.7,12.9
			c0.8,5.9,1.7,11.8,2.8,17.7c0.4,1.9,0.7,3.8,1.1,5.7c2.2,11.7,4.3,22.7,8.3,33.8c4.5,12.4,11.8,23,22.4,32.6
			c4.6,3.7,10.4,5.7,16.4,5.7c2.1,0.1,4.7,0.1,5.9-1.2c0.8-0.8,1.1-2.2,0.9-4.3l0-23.2c0.6-28.5,3.3-51.7,8.4-73.2
			c4.9-22.3,12.3-42,22.7-60.2c6.2-11.4,15.1-20.6,27.9-29L692,570.6z M218.4,612.7c-1.4,0.5-1.6,1.1-2,3.2l-0.2,0.9
			c-0.9,5.4-2.1,10.9-3.3,16.2c-1.5,7-3.1,14.3-4,21.3c-0.2,1.7-0.3,3.4-0.5,5.2c-0.3,2.6-0.5,5.3-0.8,8c0-0.1,0-0.1,0-0.2l0.2-1
			c2.8-18.5,7.8-36.9,13-54.9C220.4,612,219.6,612.4,218.4,612.7z M832.4,642.4l0.3-4.7c1.1-19.8,6.6-36.8,16.6-51.8l2.7-4l1.2,4.6
			c3.9,15-5.5,44.2-17,53L832.4,642.4z M849.8,593.2c-6.7,11.6-10.8,24.4-12.3,38.9C844.7,623,850.2,605.5,849.8,593.2z"/>
	</g>
	<g>
		<g>
			<path class="st1" d="M375.4,493.4c2.2,5,4.1,9.5,6.4,14.6c-2.2,0.1-3.9,0.2-5.7,0.2c-31,0-62,0-92.9-0.2c-3.8,0-6.4,0.8-8.5,4
				c-2.6,4-5.9,7.6-8.5,11.6c-2.6,3.9-6.1,5.5-10.5,5.7c-4.8,0.2-9.6,0.6-14.4,0.6c-13.5,0.1-26.9,0.9-40.4-0.3
				c-8.5-0.8-17-1.2-25.5-1c-5.4,0.1-8.4-4.5-5.1-9c2.9-4,6.3-7.7,9.9-11c3.6-3.4,7.7-6.2,12-9.5c-1.6-1.4-3.2-2.7-4.6-4.2
				c-5.6-5.6-11.2-11.1-16.8-16.7c-0.8-0.8-1.5-1.6-2.1-2.5c-3.1-4.2-1.5-7.8,3.8-8.4c0.8-0.1,1.5-0.1,2.3-0.1c26,0.7,52,1.4,78,1.9
				c5.9,0.1,10,2.4,13.5,6.8c3.7,4.8,7.6,9.4,11.2,14.3c1.7,2.3,3.4,3,6.2,3c27.4,0,54.8,0.1,82.3,0.2
				C368.9,493.4,372,493.4,375.4,493.4z M208.9,477.2c4.8,5.3,9.1,10.2,13.7,14.9c0.8,0.8,2.5,0.9,3.9,1c4.9,0.1,9.9,0.1,14.8,0
				c0.8,0,1.6-0.3,2.8-0.5c-4.7-5-8.9-9.7-13.3-14.2c-0.6-0.7-1.9-1.1-2.9-1.1C221.6,477.1,215.3,477.2,208.9,477.2z M183.2,519.8
				c0.2,0.5,0.4,0.9,0.5,1.4c8.1,0.1,16.3,0.3,24.4,0.4c0.7,0,1.7-0.3,2-0.8c2-3.9,4.2-7.7,5.7-12.7c-6.3,0-11.7,0-17,0
				c-0.9,0-2,0.2-2.6,0.7C191.8,512.3,187.5,516.1,183.2,519.8z M239.3,477.3c4.9,5.2,9.4,10.1,13.9,14.8c0.4,0.4,1,0.8,1.6,0.8
				c4.8,0.1,9.7,0.5,15.1-0.3c-4.1-5.6-8.6-10-13.2-14.3c-0.5-0.5-1.3-1-2-1C249.7,477.3,244.8,477.3,239.3,477.3z M224.3,508.1
				c-1.8,4.2-3.7,8.4-5.6,12.9c6.4,0,12.3,0,18,0c1.9-4.4,3.5-8.5,5.4-12.9C235.9,508.1,230.2,508.1,224.3,508.1z M183.7,477.3
				c5,5.1,9.4,9.5,13.7,13.9c0.4,0.4,1,0.9,1.5,1c4.4,0.4,8.7,0.8,14,1.2c-1-1.4-1.2-1.9-1.6-2.3c-4.2-4.1-8.3-8.3-12.6-12.3
				c-0.6-0.6-1.5-1.3-2.3-1.4C192.5,477.2,188.6,477.3,183.7,477.3z M243.7,521.1c4,0,7.1,0,10.1,0c0.9,0,1.9,0,2.8-0.1
				c0.7-0.1,1.5-0.4,2.1-0.8c1.2-0.9,6-10,6.5-12.1c-4.1,0-8.1-0.1-12.1,0.1c-1.1,0-2.6,0.6-3.1,1.4
				C248,513,246.1,516.7,243.7,521.1z"/>
			<path class="st1" d="M791.9,511.7c-63.7,0.1-126.3,1.2-189.8,0.4c2.1-3.1,4.2-5.4,5.4-8.1c2.6-5.5,6.6-6.9,12.5-6.8
				c55.6,0.7,111.3,1.1,166.9,1.5c1.8,0,3.6,0,6.5,0c-1.9-2-3.1-3.2-4.1-4.4c-2.9-3.2-5.8-6.5-8.5-9.8c-1.3-1.6-2.4-3.4-1.2-5.5
				c1.4-2.3,3.7-2.2,5.8-1.6c4.8,1.3,9.6,2.5,14.2,4.4c9.9,4,19.7,8.2,29.6,12.4c6.7,2.9,13.4,5.8,20,8.8c2.5,1.1,5.3,2.3,5.3,5.8
				c0,3.6-2.7,5.2-5.5,6.2c-7.7,2.9-15.3,5.9-23.2,8.1c-11,3.2-22.2,5.7-33.3,8.5c-1.8,0.4-3.7,0.8-5.5,0.8c-4.7,0-6.8-3.4-4.5-7.5
				c1.7-2.9,3.9-5.6,5.9-8.3C789.4,515.2,790.4,513.9,791.9,511.7z M794.9,521c8.6,0.1,45-10.7,48.8-13.7
				c-16.9-6.8-33.6-13.6-50.2-20.3c3.6,4.6,7.6,8.7,11.6,12.7c3.9,3.9,3.6,7.1-0.5,11C801.2,513.9,798.1,517.5,794.9,521z"/>
			<path class="st1" d="M465,500.2c3.1-3.6,5.7-6.9,8.6-9.9c5.1-5.3,11.4-7.2,18.6-6.3c4.2,0.5,7.2,2.7,9.2,6.3
				c2.7,4.9,3.7,10.2,2.1,15.7c-0.7,2.4-1.5,4.7-2.6,7c-6,12.8-14.9,23.5-24.5,33.6c-6.2,6.6-7.1,6.4-14.2,0.5
				c-6-4.9-11.7-10.1-17.3-15.5c-6-5.9-9.9-13.1-11.8-21.3c-1.5-6.2-1.1-12.3,2.1-18c4.3-7.5,12.2-9.1,18.9-3.7
				c3,2.4,5.4,5.5,8.1,8.3C463.2,497.9,464,499,465,500.2z"/>
		</g>
	</g>
	<g>
		<g>
			<path class="st0" d="M249.5,316.2c10,7,20.1,11.6,31.5,13.1c9.3,1.3,12.3,0.9,7.2-10.2c-5.2-11.4-14.1-22.6-24.2-28.2
				C240.7,277.8,225.9,299.7,249.5,316.2z"/>
			<path class="st0" d="M293,365.9c10.9-6,13.7-8.8-0.5-16.5c-14.5-7.9-32.7-12.7-47.8-10.7c-35,4.7-33.2,39.5,4.7,38.2
				C265.5,376.4,279.8,373.3,293,365.9z"/>
			<path class="st0" d="M264,424.4c10.1-5.6,18.9-16.8,24.2-28.2c5.1-11.1,2.1-11.5-7.2-10.2c-11.4,1.6-21.5,6.2-31.5,13.1
				C225.9,415.6,240.7,437.5,264,424.4z"/>
		</g>
		<g>
			<path class="st0" d="M830.2,316.2c-10,7-20.1,11.6-31.5,13.1c-9.3,1.3-12.3,0.9-7.2-10.2c5.2-11.4,14.1-22.6,24.2-28.2
				C839,277.8,853.7,299.7,830.2,316.2z"/>
			<path class="st0" d="M786.6,365.9c-10.9-6-13.7-8.8,0.5-16.5c14.5-7.9,32.7-12.7,47.8-10.7c35,4.7,33.2,39.5-4.7,38.2
				C814.2,376.4,799.8,373.3,786.6,365.9z"/>
			<path class="st0" d="M815.6,424.4c-10.1-5.6-18.9-16.8-24.2-28.2c-5.1-11.1-2.1-11.5,7.2-10.2c11.4,1.6,21.5,6.2,31.5,13.1
				C853.7,415.6,839,437.5,815.6,424.4z"/>
		</g>
	</g>
</g>
</svg>
