<?xml version="1.0" encoding="utf-8"?>
<!-- Generator: Adobe Illustrator 22.0.0, SVG Export Plug-In . SVG Version: 6.00 Build 0)  -->
<svg version="1.1" id="Layer_1" xmlns="http://www.w3.org/2000/svg" xmlns:xlink="http://www.w3.org/1999/xlink" x="0px" y="0px"
	 viewBox="0 0 1080 1080" style="enable-background:new 0 0 1080 1080;" xml:space="preserve">
<style type="text/css">
	.st0{fill:#E43B40;}
</style>
<g>
	<g>
		<g>
			<path class="st0" d="M290.8,383.3c0.7,2,1,3.5,0.9,4.6c-0.1,1.1-0.6,3.4-1.5,7.1c-6.3,23.9-16.5,40.4-30.4,49.6
				c-7.4,4.9-14.8,7.3-22.2,7.3c-1.6,0-2.8-0.1-3.5-0.3c-9.2-1.4-17.1-4.7-23.6-9.9c-6.5-5.2-11.8-11.3-15.7-18.6
				c-4-7.2-6.9-15.1-8.7-23.7c-1.8-8.6-2.7-17-2.7-25.4c0.4-29.3,8.1-52.8,23.3-70.5c10.5-12.1,22.2-18.2,35-18.2
				c4.2,0,8.4,0.6,12.6,1.9c4.2,1.3,8.2,3.1,11.8,5.6c3.6,2.4,6.7,5.4,9.2,9c2.5,3.5,4.2,7.5,4.9,11.8c1.3,7.4,0.2,12.8-3.3,16.3
				c-2.5,2.5-5.5,3.8-9,3.8c-3.3,0-6.2-1.2-8.7-3.5c-2.5-2.3-4-5.2-4.3-8.4c-0.4-2.7-1.7-4.7-3.9-5.8c-2.3-1.2-4.7-1.8-7.2-1.8
				c-2.4,0-4.7,0.7-7.1,2.2c-2.4,1.5-4.5,3.2-6.4,5.3c-1.9,2.1-3.6,4.3-5.2,6.6c-1.5,2.4-2.8,4.5-3.9,6.5
				c-2.5,5.2-4.5,10.5-5.8,15.7c-1.4,5.2-2.2,11.4-2.6,18.4c-0.7,12.5,0.7,23.5,4.3,33c3.6,9.5,8.6,15.8,14.9,18.9
				c2.2,0.9,4,1.4,5.4,1.4c3.1,0,5.9-1.2,8.4-3.7c2.5-2.4,4.8-5.3,6.8-8.7c2-3.3,3.7-6.8,5-10.3c1.4-3.5,2.4-6.4,3.1-8.5
				c1.3-4.7,2.9-8.9,4.9-12.5c2-3.6,5.9-5.4,11.7-5.4c3.1,0,5.8,0.9,8.3,2.8C288.2,377.7,289.9,380.2,290.8,383.3z M192.8,311.1
				c-0.9,2-1.9,3-3,3c-0.7,0-1.2-0.4-1.4-1.1c0-2.5,1.1-5.5,3.3-8.8c2.2-3.3,4.7-6.6,7.7-9.6c3-3.1,6.1-5.9,9.2-8.4
				c3.2-2.5,5.8-4.3,8-5.4c1.6-0.9,3.1-1.4,4.3-1.4c1.3,0,1.9,0.5,1.9,1.4c0.2,0.7,0,1.3-0.4,1.6c-0.5,0.4-1.6,0.9-3.4,1.6
				c-1.3,0.5-2.7,1.2-4.2,2c-1.5,0.8-2.8,1.7-3.7,2.6c-3.6,2.5-7.2,6-10.9,10.4C196.8,303.5,194.3,307.5,192.8,311.1z"/>
			<path class="st0" d="M316,451.4c1.6,1.1,2.5,2.1,2.7,3c0.2,0.9-0.5,1.5-1.9,1.6h-0.5c-1.1,0-2.4-0.6-3.8-1.9
				c-4.2-3.6-7.8-8.6-11-14.9c-3.2-6.3-5.3-12.8-6.4-19.5c-0.4-2.2-0.5-3.6-0.4-4.2c0.1-0.6,0.3-1.2,0.7-1.8c0.5-0.5,1-0.8,1.4-0.8
				c0.7,0,1.3,1.4,1.6,4.1c0.4,3.1,1.1,6.4,2.3,9.9c1.2,3.5,2.6,6.9,4.2,10c1.6,3.2,3.4,6.1,5.4,8.7
				C312.3,448.2,314.2,450.1,316,451.4z M421.8,320.6c-1.4,5.2-2.6,9.9-3.4,13.8c-0.8,4-1.7,8.9-2.6,14.6
				c-0.9,6.3-1.5,12.4-1.9,18.3c-0.4,5.9-0.5,12-0.4,18.3c0.1,6.3,0.4,13.1,0.9,20.3c0.5,7.2,1.4,15.4,2.4,24.4
				c0.4,2.9,0.7,5.8,1.1,8.8c0.4,3,0.7,5.2,1.1,6.6c0.4,2,0.6,3.6,0.7,4.7c0.1,1.2,0,2.4-0.4,3.7c-0.9,3.4-2.6,6.2-5.2,8.3
				c-2.5,2.1-5.4,3.1-8.7,3.1c-1.5,0-2.9-0.3-4.3-0.8c-6-1.8-9.8-7-11.4-15.5c-0.2-1.1-0.5-3-0.8-5.7c-0.4-2.7-0.8-5.7-1.2-9
				c-0.5-3.3-0.9-6.4-1.2-9.5c-0.4-3.1-0.6-5.4-0.8-7.1c0-0.7-0.1-1.1-0.3-1.1c-0.2,0-1.2,1.4-3,4.3c-2,3.4-4.4,6.8-7.2,10.2
				c-2.8,3.3-5.9,6.4-9.2,9.1c-3.3,2.7-7,4.9-10.9,6.6c-3.9,1.7-8,2.6-12.3,2.6c-0.7,0-1.5,0-2.2-0.1c-0.7-0.1-1.5-0.2-2.4-0.4
				c-13.9-2-23.2-11.1-27.9-27.3c-4.7-16.2-4.6-38.9,0.3-68.2c0.5-3.8,1.6-9,3.1-15.5c1.5-6.5,3.4-13.2,5.7-19.9
				c2.3-6.8,4.8-13,7.6-18.6c2.8-5.6,5.7-9.2,8.8-10.9c2-1.3,4.3-1.9,7.1-1.9c2.3,0,4.6,0.6,6.6,1.9c2.1,1.3,3.7,3.1,4.7,5.4
				c1.8,3.8,1.4,8-1.1,12.5c-2.4,4.5-4.6,10.8-6.8,18.9c-2.2,8-4.1,16.6-5.7,25.8c-1.6,9.1-2.8,18.1-3.7,27
				c-0.8,8.9-0.9,16.5-0.4,22.8c0.4,5.8,1.1,10.4,2.3,13.7c1.2,3.3,2.5,5,3.9,5c3.1,0,7.1-3.5,11.9-10.4c4.9-7,9.7-15.9,14.4-26.7
				c1.4-3.4,3.3-8.1,5.4-14.1c2.2-6,4.4-12.2,6.6-18.7c2.3-6.5,4.4-12.9,6.4-19.1c2-6.2,3.5-11.3,4.6-15.3
				c1.8-6.3,3.4-10.8,4.9-13.4c1.4-2.6,3.5-4.6,6.2-5.8c1.6-0.9,3.6-1.4,6-1.4c3.1,0,5.9,0.9,8.5,2.7c2.6,1.8,4.4,4.3,5.3,7.3
				c0.7,2.4,1,4.3,0.9,5.8C424,312.5,423.2,315.7,421.8,320.6z"/>
			<path class="st0" d="M528.7,295.7c5.6,9.2,8.5,19.2,8.8,30c0.3,10.8-2,21.6-6.9,32.4c-5.6,12.1-13.6,21.9-23.9,29.3
				c-10.3,7.4-22.5,12.1-36.6,14.1c-3.8,0.5-5.7,0.9-5.7,1.1c-0.2,0-0.3,0.6-0.3,1.8c0,1.2-0.1,2.5-0.3,3.9
				c-0.2,3.8-0.4,7.6-0.5,11.3c-0.2,3.7-0.3,7.1-0.4,10c-0.1,3-0.2,5.5-0.4,7.5c-0.2,2-0.4,3.3-0.5,3.8c-0.9,3.4-2.8,6-5.7,7.7
				c-2.9,1.7-6,2.6-9.2,2.6c-3.1,0-5.8-1-8.3-3c-2.4-2-4.1-4.4-5-7.3c-0.2-0.7-0.3-1.9-0.4-3.5c-0.1-1.6,0-3.3,0.1-5.2
				c0-2.9,0.1-7.5,0.3-14c0.2-6.4,0.5-13.8,0.8-22.1c0.4-8.3,0.9-17,1.5-26c0.6-9,1.4-17.6,2.2-25.6c0.8-8,1.7-15.1,2.7-21
				c1-6,2.1-9.9,3.4-11.9c2.9-4.5,6.6-6.8,11.1-6.8c3.6,0,6.8,1.5,9.5,4.3c1.8,1.8,2.8,3.9,3.1,6.2c0.3,2.4,0,7.2-0.7,14.6
				c-0.4,3.6-0.7,8.1-0.9,13.4c-0.3,5.3-0.5,10.1-0.7,14.2l-0.3,14.9l1.6-0.3c0.4,0,1.2-0.1,2.6-0.4c1.4-0.3,2.8-0.6,4.2-0.9
				c9.4-2.5,17-7.1,22.9-13.8c5.9-6.7,9.4-14.8,10.7-24.4c1.3-9.2-0.6-17.2-5.7-23.9c-2.4-3.3-5.2-6-8.7-8.3
				c-3.4-2.3-7.1-4.1-11.1-5.4c-4-1.4-8.1-2.3-12.3-3c-4.3-0.6-8.3-0.9-12.1-0.9c-4.9,0-9.7,0.7-14.4,2.2c-3.1,0.9-5.3,1.4-6.8,1.4
				c-2,0-3.8-0.5-5.4-1.6c-4.2-2.3-6.4-5.7-6.6-10s1.4-8,5-11.1c3.3-2.7,8.4-4.8,15.3-6.4c7-1.5,14.1-2.3,21.6-2.3
				c12.3,0,24.1,2.7,35.5,8.1C513.2,276.7,522.2,284.8,528.7,295.7z M491.2,259.3c-2.4-0.7-3.8-1.3-4.3-1.6c-0.5-0.4-0.6-1-0.3-1.9
				c0.2-0.4,0.8-0.5,1.9-0.5c2.7,0,5.9,0.6,9.6,1.9c3.7,1.3,7.4,2.8,11.1,4.7c3.7,1.9,7.2,4,10.6,6.2c3.3,2.3,5.9,4.4,7.7,6.4
				c1.6,1.4,2.7,2.5,3.1,3.3c0.4,0.7,0.5,1.5,0.1,2.2c-0.2,0.9-0.6,1.4-1.4,1.4c-0.9,0-2.4-1.2-4.6-3.5c-3.1-3.8-7.7-7.4-14-10.7
				C504.7,263.7,498.1,261.1,491.2,259.3z"/>
			<path class="st0" d="M618.7,263.6c2.5,1.3,4.5,3,5.8,5.3c1.4,2.3,2,4.6,2,7.1s-0.6,4.8-1.9,7.2c-1.3,2.4-3.2,4.3-5.7,5.7
				c-1.3,0.7-2.8,1.3-4.5,1.6c-1.7,0.4-4.7,0.9-8.8,1.6c-4,0.5-6.7,1-8.1,1.4c-1.4,0.4-2.2,0.7-2.2,1.1c-0.2,0.5-0.4,1.9-0.7,4.2
				c-0.3,2.3-0.5,5-0.8,8.1c-0.3,3.2-0.5,6.6-0.8,10.3c-0.3,3.7-0.6,7.4-0.9,11c-1.3,21.3-2.1,42.8-2.4,64.3l-0.3,31.2l3.5-0.5
				c4.7,0,9.1,1.1,13.3,3.4c4.2,2.3,6.2,6.2,6.2,11.8c0,3.4-0.7,6.1-2.2,8c-1.4,1.9-3.3,3.3-5.4,4.2c-2.2,0.9-4.6,1.5-7.3,1.8
				c-2.7,0.3-5.3,0.5-7.9,0.7c-6.5,0.4-12.9,1-19.1,1.9c-6.2,0.9-10.9,1.9-14,3c-3.3,1.3-6,1.9-8.1,1.9c-1.1,0-1.9-0.1-2.4-0.3
				c-2.4-0.5-4.3-1.6-6-3.1c-1.6-1.5-2.8-3.3-3.4-5.3c-0.6-2-0.8-4.1-0.4-6.2c0.4-2.2,1.3-4.2,2.7-6c1.1-1.4,3-2.9,5.8-4.3
				c2.8-1.4,5.9-2.7,9.4-3.8l5.4-1.6l0.3-31.7c0.2-11.2,0.4-21.2,0.7-29.8c0.3-8.7,0.6-16.6,1.1-23.9c0.4-7.2,1-13.9,1.8-20.1
				c0.7-6.1,1.6-12.2,2.7-18.2c0.9-5.1,1.4-8,1.4-8.7c0-0.4-1.5-0.7-4.6-1.1c-3.3-0.4-6.9-0.9-11-1.6c-4.1-0.7-7-1.5-8.8-2.4
				c-2.4-1.1-4.2-2.6-5.6-4.5c-1.4-1.9-2.2-4-2.4-6.2c-0.3-2.3,0.1-4.5,1.1-6.6c1-2.2,2.6-4,4.7-5.4c1.6-1.1,4-1.6,7.1-1.6
				c2.3,0,5.5,0.3,9.5,0.8c0.9,0.2,1.8,0.3,2.7,0.3s1.8,0,2.7,0c2.9,0,6.4-0.2,10.4-0.7c4.1-0.4,10.2-1.4,18.3-2.8
				c10.3-1.8,17-2.7,20.1-2.7c1.6,0,2.9,0.1,3.9,0.4C616.6,262.7,617.7,263.1,618.7,263.6z M559.1,258.2c-1.1-0.4-1.6-0.9-1.6-1.6
				c0-0.7,0.5-1.1,1.5-1.2c1-0.1,4.6-0.2,10.7-0.4c4.9-0.2,8.5-0.4,11-0.5c2.4-0.2,4.7-0.5,6.9-1.1c2.7-0.5,4.7-0.9,6-1.2
				c1.3-0.3,2.2-0.4,2.7-0.4c0.7,0,1.2,0.3,1.4,0.8c1.3,2.7-4.1,4.6-16,5.7c-1.6,0.2-3.6,0.3-5.8,0.4c-2.3,0.1-4.6,0.1-6.9,0.1
				C564.1,258.8,560.9,258.6,559.1,258.2z"/>
			<path class="st0" d="M731.1,337.4c0.4,2.2,0.6,4.7,0.8,7.5c0.2,2.8,0.3,5.7,0.3,8.8c0,3.1-0.1,6.1-0.4,9.1
				c-0.3,3-0.6,5.6-0.9,7.7c-2.5,11.9-6.8,23-12.9,33.2c-6.1,10.2-13.5,19-22.4,26.4c-2.7,2.2-6,4.5-9.9,7.1
				c-3.9,2.5-8,4.9-12.2,7.1c-4.3,2.2-8.5,4-12.9,5.4c-4.3,1.5-8.4,2.2-12.2,2.2c-3.1,0-5.7-1.2-8-3.7c-2.3-2.4-3.8-4.9-4.7-7.5
				c-0.4-1.4-0.7-5-1.1-10.6c-0.4-5.6-0.7-12.4-0.9-20.5c-0.3-8-0.5-16.8-0.7-26.3c-0.2-9.5-0.3-18.8-0.3-27.8c0-9,0-17.4,0.1-25
				c0.1-7.6,0.2-13.6,0.4-17.9c0.4-6,0.5-9.5,0.5-10.7c0-1.2-0.4-2.1-1.1-2.8c-2.4-2.5-3.3-5.6-3-9.1c0.4-3.5,1.9-6.5,4.6-8.8
				c2.3-2,5.7-3.5,9.9-4.5c4.2-1,9-1.5,14.2-1.5c5.2,0,10.6,0.5,16.1,1.5c5.5,1,10.5,2.5,15.1,4.5c10.1,4.3,18.9,11.6,26.4,21.8
				C723.5,313.3,728.5,324.8,731.1,337.4z M701.5,365.1c0.7-3.3,1.1-7.2,1.1-11.9c0-4.7-0.4-8.6-1.1-11.7
				c-1.4-7.1-4.3-13.7-8.7-19.8c-4.3-6.1-9.3-10.7-14.9-13.6c-2.5-1.3-5.4-2.4-8.7-3.5c-3.3-1.1-5.7-1.6-7.3-1.6h-1.4l0.3,5.4
				c0,0.7,0,2.6,0.1,5.7c0.1,3.1,0.2,6.9,0.4,11.5c0.2,4.6,0.3,9.9,0.4,15.7c0.1,5.9,0.2,12,0.4,18.3c0.2,6.3,0.3,12.4,0.4,18.3
				c0.1,5.9,0.2,11.1,0.4,15.7c0.2,4.6,0.3,8.5,0.4,11.5c0.1,3.1,0.1,5,0.1,5.7l0.3,5.4l2.7-1.6c9.2-6.1,16.9-13.1,22.9-20.9
				C695.5,386.1,699.5,376.5,701.5,365.1z M690.6,274.2c-4-1.4-5.1-2.8-3.3-4.1c2.5,0,5.4,0.6,8.7,1.9c3.3,1.3,6.4,2.9,9.5,4.9
				c3.1,2,5.9,4.2,8.5,6.5c2.6,2.4,4.6,4.6,5.8,6.8c0.5,1.3,0.5,2.2,0,2.7c-0.7,0.7-1.3,1.1-1.6,1.1c-0.2,0-0.6-0.4-1.2-1.2
				c-0.6-0.8-1.4-1.7-2.3-2.6c-3.1-4-6.6-7.2-10.4-9.6C700.4,278.2,695.9,276,690.6,274.2z"/>
			<path class="st0" d="M767.4,269.1c0,1.4-0.3,3.5-0.9,6.2c-0.6,2.7-1.6,5.4-2.8,8.1c-1.3,2.7-2.7,5.1-4.3,7.1c-1.6,2-3.4,3-5.4,3
				c-1.3,0-2.4-0.5-3.3-1.6c-1.6-1.8-1.5-4,0.3-6.5l1.4-1.9l-2.7-0.5c-4.5-0.5-8.1-2.5-10.7-6c-2.6-3.4-3.8-7.5-3.4-12.2
				c0.5-4.2,2-7.8,4.3-11c2.3-3.2,5.9-4.7,10.6-4.7c5.6,0,9.9,2,12.8,6.1C766,259.2,767.4,263.8,767.4,269.1z"/>
			<path class="st0" d="M810.8,275c-4.5,4.3-8.2,8.7-11,13.2c-2.8,4.4-5.7,10.4-8.5,18c-1.3,4.2-2.4,6.2-3.5,6.2
				c-0.2,0-0.5-0.2-0.8-0.5c-0.5-0.5-0.5-2.1,0.3-4.6c0.7-2.5,1.8-5.4,3.1-8.7c1.4-3.3,2.9-6.6,4.7-9.9c1.8-3.3,3.6-6.2,5.4-8.5
				c2.5-3.3,5.2-6.2,8.1-8.8c2.9-2.6,4.9-3.9,6-3.9c1.6,0,2.2,0.5,1.6,1.5C815.7,269.9,813.9,272,810.8,275z M879.4,274.2
				c5.8,5.2,10.1,12.2,13,20.9c2.9,8.7,3.9,17.5,3,26.6c-0.2,2.7-0.6,6.1-1.4,10.2c-0.7,4.1-1.8,8-3.1,11.8
				c-1.4,3.8-3.2,7.1-5.6,9.8c-2.4,2.7-5.4,4.1-9.2,4.1c-1.6,0-3.5-0.6-5.6-1.9c-2.1-1.3-3.6-2.6-4.5-4.1c-1.3-2-1.9-3.9-2-5.8
				c-0.1-1.9,0.3-4.7,1.2-8.5c1.1-4.2,1.8-9,2-14.5c0.3-5.5,0-9.7-0.9-12.6c-0.4-1.6-0.9-3.4-1.5-5.3c-0.6-1.9-1.5-3.7-2.6-5.3
				c-1.1-1.6-2.4-3-3.8-4.2c-1.4-1.2-3.2-1.8-5.2-1.8c-2.4,0-4.7,0.5-7.1,1.6c-2.4,1.1-4.6,2.5-6.6,4.2c-2.1,1.7-4,3.6-5.7,5.6
				c-1.7,2-3.1,3.9-4.2,5.7c-2.4,4.2-4,8.7-4.9,13.7c-0.9,5-1,9.5-0.3,13.7c0.5,2.4,1.3,4.5,2.2,6.5c0.9,2,2.3,4.1,4.1,6.4
				c1.8,2.3,4.2,4.8,7.1,7.6c2.9,2.8,6.5,6.2,10.9,10.2c3.6,3.3,7.4,6.7,11.4,10.4c4,3.7,7.6,7.6,10.8,11.8c3.3,4.2,6,8.6,8.3,13.3
				c2.3,4.7,3.5,9.7,3.7,14.9c0.7,11.8-4,22-14.1,30.7c-5.1,4.3-10.9,7.6-17.5,9.6c-6.6,2.1-13.2,3.1-19.7,3.1
				c-3.6,0-6.5-0.3-8.7-0.8c-8.5-2-15.2-6.3-20.2-12.9c-5-6.6-7.1-14.1-6.4-22.4c0.4-2.9,0.8-6,1.4-9.4c0.5-3.3,1.5-6.4,2.8-9.2
				c1.4-2.8,3.2-5.1,5.4-6.9c2.3-1.8,5.2-2.7,8.8-2.7c3.1,0,5.9,1,8.4,2.8c2.5,1.9,4.2,4.7,5.2,8.3c0.4,1.4,0.5,2.7,0.5,3.7
				c0,1-0.4,2.6-1.1,4.7c-0.4,1.5-0.7,3-1.1,4.7c-0.4,1.7-0.5,3.1-0.5,4.2c-0.2,1.8-0.2,3-0.1,3.5c0.1,0.5,0.4,1,0.9,1.4
				c1.1,1.1,2.9,1.6,5.4,1.6c3.1,0,6.5-0.7,10.3-2.2c3.8-1.4,6.7-3.2,8.7-5.2c1.8-2,2.4-4.3,1.8-6.9c-0.6-2.6-2.5-6-5.6-10.2
				c-1.6-2.2-4-4.8-7.2-8c-3.2-3.2-8.2-7.6-15.1-13.4c-5.8-5.1-10-9.1-12.8-12.1c-2.7-3-5.3-6.3-7.9-9.9c-4-5.8-6.8-12.2-8.5-19.1
				c-1.7-7-2.1-13.9-1.2-20.8c0.7-7.4,2.7-14.8,5.8-22.1c3.2-7.3,7.3-13.9,12.3-19.7c5.1-5.8,11-10.5,17.8-14.1
				c6.8-3.6,14.1-5.4,22.1-5.4c4.7,0,9.3,0.8,13.8,2.4C871.5,268.3,875.6,270.8,879.4,274.2z"/>
		</g>
	</g>
	<g>
		<path d="M150.9,625.8c1.9-19.6-0.6-33.5,1.7-39.5c1.7-4.7,5.3-7,9-7s7.3,2.3,9,7c2.6,7,0.2,12.2-3,82.2
			c-0.6,10.9-0.2,21.6-0.2,32.5c2.1,0,2.3-1.7,2.8-2.8c29.9-70.5,26.1-63,31.8-71.5c2.1-3,4.9-4.5,7.9-4.5c4.1,0,7.9,3,8.8,9
			c1.3,9.8-0.9,0.9,2.3,57.9c0.4,7.5,1.7,14.9,4.3,22.2l1.9,0.2c13.9-45.1,4.5-10.5,20.1-114.2c0.9-6.4,4.9-9.4,9-9.4
			c4.9,0,9.8,4.5,9,12.6c-2.8,23.1-1.7,5.3-10.2,73.9c-2.1,17.1-6.8,33.5-13.9,49.3c-2.8,6.4-7,12.2-14.3,12
			c-21.1-0.4-24.3-41-24.3-63.4c-3,2.8-2.6,1.1-24.6,54.9c-3.4,8.3-9.4,12.8-14.9,12.8c-9.8,0-14.1-13.7-14.1-21.8
			C148.5,687.3,147.9,656.5,150.9,625.8z"/>
		<path d="M284.1,717.4c4.3-1.5,5.3-4.1,5.8-8.3c3.8-47,12-79.6,10.5-102.1c-0.2-2.8-1.5-4.3-4.3-5.3c-13.2-4.7-9.4-19.4,3-20.7
			c2.1-0.4,17.7,1.7,26.7-0.4c7.9-1.7,14.1,9.6,6.6,16.7c-6.2,5.8-12.8,0.9-12.6,9.2c0.6,22-4.3,43.4-7.5,64.9
			c-1.7,12.2-2.6,24.3-4.1,36.3c-0.9,7.9,0.9,9.8,9,11.5c10,2.1,10.9,11.7,3.2,16.9c-3,1.9-5.8,2.6-8.8,2.6c-6,0-12.8-2.3-23.9-2.6
			C276.8,735.8,274.1,721,284.1,717.4z"/>
		<path d="M374.4,579.2c2.8,0,5.3,1.5,8.1,4.9c13.5,17.1,8.3,89.5,23.7,128.1c1.9,5.1,4.3,7.7,6.6,7.7c2.8,0,5.6-3.6,7.7-11.5
			c12.4-44.4,7.5-61.7,13.9-104c1.7-11.5-0.2-15.8,0.6-20.9c0.9-4.7,4.7-7.5,8.8-7.5c3,0,5.8,1.3,7.7,4.1c5.3,7,0.9,19.6-1.3,46.1
			c-1.9,23.1-2.1,61.5-15.2,95.2c-4.9,12.8-13.2,18.6-21.6,18.6c-6.8,0-13.7-3.8-18.8-10.7c-14.7-20.1-17.5-59.2-21.6-98.7
			c-0.2-2.8,0-5.6-2.1-9.4c-3.2,12.2-6.4,22.6-7.7,33.3c-2.1,16-7.5,54.7,0.6,68.5c5.1,8.8-2.8,17.1-10.5,17.1
			c-4.1,0-7.9-2.4-10-7.9C331.5,699,351.1,579.2,374.4,579.2z"/>
		<path d="M508.9,590.1c6-5.8,13-8.1,19.4-8.1c13.9,0,24.8,11.5,17.1,25.4c-2.1,3.8-5.3,5.8-8.5,5.8c-3,0-6.2-1.7-8.3-5.1
			c-1.9-2.8-3.2-4.3-4.5-4.3c-1.3,0-2.6,1.1-4.5,3.4c-40.6,47.6-42.7,111.3-22.8,111.3c2.1,0,4.3-0.6,6.8-2.1
			c13-7.7,26.1-17.7,31.2-32.9c1.1-2.8,2.6-5.8-1.1-8.1c-1.7-1.1-3.6-1.7-5.3-1.7c-1.9,0-4.1,0.9-5.6,2.1c-1.1,1.1-3.8,5.3-8.5,5.3
			c-1.1,0-2.3-0.4-3.8-1.1c-9.6-4.9-5.6-21.4,5.6-24.3c3.2-0.9,6.4-1.3,9.8-1.3c14.7,0,29.5,7.9,29,21.8
			c-0.2,16.4-12.4,35.4-25.6,44.8c-13,9.4-19.6,16-31.2,16c-13.9,0-24.3-6.6-28.8-20.5C456.6,676.4,483.8,614,508.9,590.1z"/>
		<path d="M569.2,714.6c3-24.6,6.4-49.1,11.3-73.5c3.8-18.2,10.5-34.8,19.4-50.6c5.3-9.2,11.7-13,17.7-13c4.9,0,9.6,2.8,12.4,7.7
			c8.3,14.3,8.3,34.6,10.5,62.6c1.5-4.1,3.2-7.9,4.3-12c4.9-16.7,19.2-37.6,23.9-42.3c3.8-3.8,8.3-6,13-6c12.6,0,25,16.7,18.2,63.4
			c-6,39.5-7.3,36.5-7.3,63.2c0,9.8-1.3,20.7-10.9,20.1c-4.5-0.4-8.1-4.1-8.3-9.4c-0.2-6.4-0.2-12.8,0.2-19.2
			c3-39.5,13.5-73.5,8.1-92.9c-0.6-1.9-1.9-2.3-3.4-1.1C655.6,635,645,718,635.6,733c-2.1,3.4-5.1,4.7-9,4.3
			c-17.5-2.3-0.2-35.7-7.3-119.4c-0.4-4.9-1.1-9.8-4.1-15.8c-16.4,31.8-16.2,46.8-21.8,78.4c-5.6,31-4.7,32.2-3.4,34.8
			c4.5,9.2-1.5,27.5-12.2,26.3C567.5,740.2,567.9,725.3,569.2,714.6z"/>
		<path d="M722.9,732.3c-5.1,0-10-4.3-9.6-11.5c0.4-4.5,5.6-26.7,6.6-31.4c0.9-3.6,1.7-7.3,0.6-11.1c-1.1-3.6,0.2-6.6,2.3-9.4
			c7.7-9.8-3.4-9.4,29.9-71.1c3-5.3,5.8-10.7,10.2-14.9c3.4-3.4,7-5.1,10.5-5.1c4.7,0,9,3.2,11.7,9.2c6.6,14.7,10.2,30.3,11.3,46.6
			c1.9,26.3,0.2,10.7,0.2,77.7c0.2,4.9,0.4,9.6,3.6,13.7c4.1,5.3,3.4,10.5-1.3,14.1c-2.1,1.7-4.1,2.3-6.2,2.3
			c-7,0-13.5-9.2-13.5-20.1c0-44.8,1.9-43.1-7.9-42.7c-8.5,0.4-16.9,1.3-25.2,3.4c-3.6,1.1-6,3-6.6,7c-1.5,9.2-4.9,17.7-4.5,27.1
			c0.2,3.8-1.3,7.5-3.4,10.9C729.5,730.6,726.3,732.3,722.9,732.3z M750.9,660.8c30.5-2.3,28.2-2.3,28.6-9.6
			c0.4-15.2-2.1-29.9-6.6-44.2c-0.2-0.6-0.9-1.3-1.1-1.7c-1.5,0-1.9,0.9-2.6,1.7c-9.6,17.5-16.4,30.3-21.8,49.3
			C746.4,660.2,747.2,661.2,750.9,660.8z"/>
		<path d="M851.9,579.2c2.8,0,5.3,1.5,8.1,4.9c13.5,17.1,8.3,89.5,23.7,128.1c1.9,5.1,4.3,7.7,6.6,7.7c2.8,0,5.6-3.6,7.7-11.5
			c12.4-44.4,7.5-61.7,13.9-104c1.7-11.5-0.2-15.8,0.6-20.9c0.9-4.7,4.7-7.5,8.8-7.5c3,0,5.8,1.3,7.7,4.1c5.3,7,0.9,19.6-1.3,46.1
			c-1.9,23.1-2.1,61.5-15.2,95.2c-4.9,12.8-13.2,18.6-21.6,18.6c-6.8,0-13.7-3.8-18.8-10.7c-14.7-20.1-17.5-59.2-21.6-98.7
			c-0.2-2.8,0-5.6-2.1-9.4c-3.2,12.2-6.4,22.6-7.7,33.3c-2.1,16-7.5,54.7,0.6,68.5c5.1,8.8-2.8,17.1-10.5,17.1
			c-4.1,0-7.9-2.4-10-7.9C809,699,828.6,579.2,851.9,579.2z"/>
	</g>
	<g>
		<path d="M538.2,532.2c-3.3,3.4-6.3,7-9.9,10.1c-14.1,12-31.9,18.5-51.9,19.4c-48.4,2.4-93.5-6.5-133.5-29.2
			c-18.1-10.3-31.4-24-36.6-42c-0.9-3.1-1.2-6.5-0.6-9.7c1-5.3,4.8-6.3,9.9-3.1c2.1,1.3,4.1,2.7,5.9,4.2
			c18.6,15.6,41.2,19,65.9,12.9c17.4-4.3,34.3-10.1,51.3-15.3c14.9-4.6,29.7-9.5,45.9-10.4c20.5-1.2,39.4,1.1,52.8,15.3
			c0.7-0.2,1.1-0.2,1.3-0.4c17.2-16.4,39.6-17.2,63.2-13.6c20.7,3.1,39.7,10.2,58.9,16.8c16.6,5.7,33.3,10.5,51.7,10.2
			c12.7-0.2,23.8-3.3,33.5-9.7c4.8-3.1,9.2-6.7,14.1-9.6c1.9-1.1,5.2-2.2,6.9-1.6c1.8,0.6,3.3,3.3,3.5,5.2c1.1,8.9-2.9,16.9-8,24.3
			c-11.4,16.4-28.3,28.2-48.8,36.5c-34.4,14-70.7,21.3-109.3,19.6c-26.9-1.2-49.8-9.3-64.9-28.5
			C539.3,533.1,538.8,532.7,538.2,532.2z"/>
	</g>
	<g>
		<g>
			<g>
				<path d="M272.1,501.7c-0.6-0.2-1.1-0.5-1.7-0.7c-3.7-0.9-7.4-1.9-11.1-2.5c-2.5-0.4-5.2-0.3-7.8-0.1c-1.1,0.1-2.3,0.6-3.3,1.2
					c-2.6,1.6-2.7,4.6-0.3,6.5c1.3,1.1,2.9,1.5,4.5,1.6c2.8,0.2,5.6-0.1,8.3-1.1c3.2-1.1,6.4-2.4,9.5-3.6c0.6-0.2,1.2-0.6,1.8-1
					C272.1,502,272.1,501.8,272.1,501.7z"/>
			</g>
			<g>
				<path d="M272.4,511.3c-0.4,0-0.8-0.1-1.1-0.1c-4.5,0.8-8.8,1.8-12.9,4.1c-2.5,1.4-4.5,3.2-5.9,5.6c-1.1,1.9-1.6,3.9-0.3,5.9
					c1.8,2.9,5.7,2.9,7.5,0c0.4-0.6,0.7-1.3,0.9-2c1.9-5.4,5.3-9.6,10.4-12.3C271.5,512.4,272.3,512.3,272.4,511.3z"/>
			</g>
			<g>
				<path d="M269.5,493.8c0.7,0,1.3,0.1,2,0c0.4-0.1,0.7-0.4,1.1-0.7c-0.3-0.3-0.6-0.6-0.9-0.8c-1.6-0.7-3.3-1.3-4.8-2.1
					c-2.3-1.2-4-3.1-5.5-5.3c-0.8-1.3-1.6-2.5-2.5-3.7c-0.6-0.8-1.4-1.6-2.2-2.2c-1.9-1.2-4.4,0-4.9,2.2c-0.4,2,0.1,3.9,1.4,5.5
					c3.1,3.6,7,5.6,11.6,6.5C266.3,493.5,267.9,493.6,269.5,493.8C269.5,493.8,269.5,493.8,269.5,493.8z"/>
			</g>
			<g>
				<path d="M211.2,497.3c-3.3,0.4-6.4,1.3-9.4,2.4c-0.3,0.1-0.6,0.3-0.9,0.5c-0.9,0.6-0.9,1.2,0,1.8c0.3,0.2,0.7,0.4,1.1,0.5
					c2.8,0.8,5.5,1.8,8.3,2.4c1.2,0.3,2.5,0.2,3.7-0.1c1.5-0.3,2.7-1.1,2.9-2.8c0.3-1.7-0.6-3-2-3.7
					C213.8,497.7,212.5,497.6,211.2,497.3z"/>
			</g>
			<g>
				<path d="M234.7,502.5c0,2,1.9,4,4,4.1c2.2,0.1,4.2-1.9,4.3-4.2c0-2.1-1.6-3.7-3.9-3.8C236.8,498.5,234.8,500.3,234.7,502.5z"/>
			</g>
			<g>
				<path d="M224.9,506.1c2.4,0,4.3-1.8,4.3-4.1c0.1-2.1-1.4-3.5-3.6-3.6c-2.2,0-4.4,1.8-4.5,3.8C221.2,504.6,222.6,506,224.9,506.1
					z"/>
			</g>
		</g>
		<g>
			<g>
				<path d="M804.3,501.7c0.6-0.2,1.1-0.5,1.7-0.7c3.7-0.9,7.4-1.9,11.1-2.5c2.5-0.4,5.2-0.3,7.8-0.1c1.1,0.1,2.3,0.6,3.3,1.2
					c2.6,1.6,2.7,4.6,0.3,6.5c-1.3,1.1-2.9,1.5-4.5,1.6c-2.8,0.2-5.6-0.1-8.3-1.1c-3.2-1.1-6.4-2.4-9.5-3.6c-0.6-0.2-1.2-0.6-1.8-1
					C804.3,502,804.3,501.8,804.3,501.7z"/>
			</g>
			<g>
				<path d="M804,511.3c0.4,0,0.8-0.1,1.1-0.1c4.5,0.8,8.8,1.8,12.9,4.1c2.5,1.4,4.5,3.2,5.9,5.6c1.1,1.9,1.6,3.9,0.3,5.9
					c-1.8,2.9-5.7,2.9-7.5,0c-0.4-0.6-0.7-1.3-0.9-2c-1.9-5.4-5.3-9.6-10.4-12.3C804.9,512.4,804.1,512.3,804,511.3z"/>
			</g>
			<g>
				<path d="M806.9,493.8c-0.7,0-1.3,0.1-2,0c-0.4-0.1-0.7-0.4-1.1-0.7c0.3-0.3,0.6-0.6,0.9-0.8c1.6-0.7,3.3-1.3,4.8-2.1
					c2.3-1.2,4-3.1,5.5-5.3c0.8-1.3,1.6-2.5,2.5-3.7c0.6-0.8,1.4-1.6,2.2-2.2c1.9-1.2,4.4,0,4.9,2.2c0.4,2-0.1,3.9-1.4,5.5
					c-3.1,3.6-7,5.6-11.6,6.5C810.1,493.5,808.5,493.6,806.9,493.8C806.9,493.8,806.9,493.8,806.9,493.8z"/>
			</g>
			<g>
				<path d="M865.2,497.3c3.3,0.4,6.4,1.3,9.4,2.4c0.3,0.1,0.6,0.3,0.9,0.5c0.9,0.6,0.9,1.2,0,1.8c-0.3,0.2-0.7,0.4-1.1,0.5
					c-2.8,0.8-5.5,1.8-8.3,2.4c-1.2,0.3-2.5,0.2-3.7-0.1c-1.5-0.3-2.7-1.1-2.9-2.8c-0.3-1.7,0.6-3,2-3.7
					C862.6,497.7,863.9,497.6,865.2,497.3z"/>
			</g>
			<g>
				<path d="M841.7,502.5c0,2-1.9,4-4,4.1c-2.2,0.1-4.2-1.9-4.3-4.2c0-2.1,1.6-3.7,3.9-3.8C839.6,498.5,841.6,500.3,841.7,502.5z"/>
			</g>
			<g>
				<path d="M851.5,506.1c-2.4,0-4.3-1.8-4.3-4.1c-0.1-2.1,1.4-3.5,3.6-3.6c2.2,0,4.4,1.8,4.5,3.8
					C855.2,504.6,853.8,506,851.5,506.1z"/>
			</g>
		</g>
	</g>
	<g>
		<path class="st0" d="M473.2,788.8c2.5,5.7,4.7,10.8,7.3,16.7c-2.5,0.1-4.5,0.2-6.5,0.2c-35.4,0-70.8,0-106.2-0.2
			c-4.3,0-7.3,0.9-9.7,4.6c-3,4.6-6.7,8.7-9.7,13.3c-2.9,4.5-6.9,6.3-12,6.6c-5.5,0.3-11,0.7-16.4,0.7c-15.4,0.1-30.7,1-46.1-0.4
			c-9.7-0.9-19.4-1.4-29.1-1.2c-6.1,0.1-9.6-5.1-5.8-10.3c3.3-4.5,7.2-8.8,11.3-12.6c4.1-3.8,8.8-7,13.7-10.8
			c-1.8-1.6-3.6-3.1-5.3-4.8c-6.4-6.3-12.8-12.7-19.2-19.1c-0.9-0.9-1.7-1.8-2.4-2.8c-3.5-4.9-1.7-8.9,4.4-9.6
			c0.9-0.1,1.8-0.1,2.7-0.1c29.7,0.7,59.4,1.6,89.1,2.1c6.7,0.1,11.5,2.8,15.4,7.8c4.2,5.4,8.7,10.7,12.8,16.3
			c1.9,2.6,3.9,3.4,7.1,3.4c31.3,0,62.6,0.1,93.9,0.2C465.8,788.8,469.3,788.8,473.2,788.8z M283,770.3c5.5,6,10.4,11.7,15.7,17.1
			c0.9,0.9,2.9,1.1,4.4,1.1c5.6,0.1,11.3,0.1,16.9,0c0.9,0,1.8-0.3,3.1-0.6c-5.3-5.7-10.2-11.1-15.2-16.3c-0.7-0.8-2.2-1.2-3.3-1.3
			C297.5,770.2,290.3,770.3,283,770.3z M253.7,819c0.2,0.5,0.4,1,0.6,1.6c9.3,0.2,18.6,0.3,27.9,0.4c0.8,0,2-0.4,2.3-1
			c2.3-4.4,4.8-8.8,6.5-14.5c-7.1,0-13.3,0-19.5,0c-1,0-2.2,0.2-3,0.8C263.5,810.4,258.6,814.7,253.7,819z M317.7,770.5
			c5.6,6,10.7,11.5,15.8,16.9c0.5,0.5,1.2,1,1.8,1c5.5,0.1,11.1,0.6,17.2-0.3c-4.6-6.4-9.8-11.5-15.1-16.3c-0.6-0.6-1.5-1.2-2.3-1.2
			C329.6,770.4,324.1,770.5,317.7,770.5z M300.7,805.7c-2.1,4.9-4.2,9.6-6.4,14.7c7.3,0,14.1,0,20.6,0c2.1-5.1,4.1-9.7,6.1-14.7
			C313.9,805.7,307.4,805.7,300.7,805.7z M254.3,770.4c5.8,5.8,10.7,10.9,15.7,15.8c0.5,0.5,1.1,1.1,1.7,1.1c5,0.5,10,0.9,16,1.4
			c-1.1-1.6-1.4-2.2-1.8-2.6c-4.8-4.7-9.5-9.4-14.3-14.1c-0.7-0.7-1.7-1.5-2.6-1.6C264.3,770.3,259.8,770.4,254.3,770.4z
			 M322.8,820.5c4.6,0,8.1,0,11.6,0c1.1,0,2.1,0.1,3.2-0.1c0.8-0.1,1.7-0.5,2.4-0.9c1.4-1,6.9-11.4,7.4-13.8
			c-4.6,0-9.2-0.1-13.8,0.1c-1.2,0-2.9,0.7-3.5,1.6C327.6,811.2,325.5,815.5,322.8,820.5z"/>
		<path class="st0" d="M769.9,805.4c-72.7,0.1-144.2,1.4-216.8,0.5c2.4-3.6,4.8-6.2,6.2-9.2c2.9-6.3,7.5-7.9,14.3-7.8
			c63.5,0.8,127.1,1.2,190.6,1.7c2,0,4.1,0,7.4,0c-2.2-2.3-3.5-3.7-4.7-5.1c-3.3-3.7-6.6-7.4-9.7-11.2c-1.5-1.8-2.8-3.9-1.3-6.3
			c1.6-2.6,4.3-2.5,6.6-1.9c5.5,1.4,11,2.9,16.2,5c11.3,4.5,22.5,9.4,33.8,14.2c7.6,3.3,15.3,6.6,22.8,10c2.9,1.3,6,2.7,6,6.6
			c0,4.1-3.1,5.9-6.2,7.1c-8.8,3.3-17.5,6.7-26.5,9.3c-12.6,3.6-25.3,6.5-38.1,9.7c-2,0.5-4.2,0.9-6.3,0.9c-5.3,0-7.8-3.9-5.1-8.6
			c1.9-3.4,4.5-6.3,6.8-9.5C767,809.4,768.1,807.9,769.9,805.4z M773.3,816.1c9.8,0.1,51.4-12.3,55.8-15.7
			c-19.3-7.8-38.3-15.5-57.4-23.2c4.2,5.2,8.7,9.9,13.3,14.5c4.4,4.4,4.1,8.2-0.6,12.5C780.5,807.9,777,812.1,773.3,816.1z"/>
		<path class="st0" d="M515.9,772c3.6-4.2,6.5-7.9,9.8-11.4c5.8-6.1,13-8.2,21.3-7.2c4.8,0.6,8.2,3.1,10.5,7.2
			c3.1,5.6,4.2,11.6,2.4,17.9c-0.8,2.7-1.7,5.4-2.9,7.9c-6.9,14.6-17,26.9-28,38.4c-7.1,7.5-8.1,7.3-16.3,0.6
			c-6.8-5.6-13.4-11.5-19.7-17.7c-6.9-6.7-11.3-14.9-13.5-24.3c-1.7-7.1-1.3-14.1,2.5-20.6c5-8.6,13.9-10.4,21.6-4.2
			c3.4,2.7,6.2,6.3,9.2,9.5C513.8,769.5,514.7,770.7,515.9,772z"/>
	</g>
</g>
</svg>
