<?xml version="1.0" encoding="utf-8"?>
<!-- Generator: Adobe Illustrator 22.0.0, SVG Export Plug-In . SVG Version: 6.00 Build 0)  -->
<svg version="1.1" id="Layer_1" xmlns="http://www.w3.org/2000/svg" xmlns:xlink="http://www.w3.org/1999/xlink" x="0px" y="0px"
	 viewBox="0 0 1080 1080" style="enable-background:new 0 0 1080 1080;" xml:space="preserve">
<style type="text/css">
	.st0{fill:#E43B40;}
</style>
<g>
	<g>
		<g>
			<path class="st0" d="M644.6,445.9c5.3,0.5,10.5,0.9,15.7,1.4c11.1,1,22.1,2,33.2,3c7.7,0.7,14.9,2.8,21.7,6.6
				c2.3,1.3,4.7,2.3,6.9,3.7c5.3,3.3,7.6,8.1,6.6,14.3c-2.3,14.8-4.8,29.6-7.2,44.4c-0.1,0.5-0.2,1-0.3,1.5
				c-0.4,2.8,0.1,3.6,2.7,4.6c2.5,1,2.6,1.3,0.9,3.5c-0.9,1.3-1.8,2.6-2.6,4c-1.8,3-4.3,4.8-7.8,5.2c-1.9,0.2-3.9,0.3-5.9,0.3
				c-2.9,0-4.7-1.5-5.6-4.3c-2.6-8-6.1-15.5-11.1-22.2c-10.7-14.6-24.6-24.8-41.9-29.9c-27.7-8.2-53.1-3.6-75.7,14.7
				c-1.7,1.4-3.2,3.1-4.7,4.7c-1.6,1.7-3,3.5-4.5,5.2c-2.5,2.8-5.2,5.1-9,6.3c-6.4,1.9-12.6,4.6-18.9,7c-0.5,0.2-0.9,0.3-1.7,0.5
				c-0.2-1.5-0.4-2.9-0.4-4.3c0-0.5,0.7-1.1,1.2-1.3c2.8-1.2,5.7-2.2,8.5-3.7c-3.4-0.2-6.8-0.4-10.4-0.6c-0.1-0.8-0.2-1.6-0.3-2.3
				c-2.4-21.3-4.8-42.7-7.2-64c-0.1-0.9,0.4-1.9,0.7-2.9c0.2-0.7,0.6-1.4,0.7-2.1c0.5-9.7,1-19.4,1.5-29.1c0-0.5,0-1-0.1-1.5
				c-0.3-2.9-1-3.6-3.8-4.2c-3.7-0.8-3.7-0.8-4.1-4.6c-0.4-3.3-0.7-6.5-1.1-10c15.9-1,31.5,1.4,47.2,2.1c-2.4-1.4-3.6-3.5-4.2-6.1
				c-1.4-5.6,0.9-10,6.4-11.9c3.2-1.2,5.7,0.6,5.4,4c-0.3,3.7-0.7,7.3-1.1,11c-0.2,1.2-0.8,2.4-1.3,3.6c3.4,0.8,5.2,3.4,5.2,7.4
				c-0.1,10.8-0.1,21.6-0.1,32.4c0,1.9,0.4,3.7,0.6,5.6c0.3,0,0.6,0,0.9,0c0.1-2.5,0.2-4.9,0.3-7.4c0.6-16.5,1.2-33,1.9-49.5
				c0-0.9,0.5-2.5,0.9-2.5c1.5-0.2,3.2-0.5,4.5,1.2c4.5,6.2,9.1,12.2,13.6,18.3c3.3,4.5,6.7,9,10,13.4c0.2,0.3,0.5,0.5,1,1.1
				c0.5-3.3,1-6.2,1.5-9.2c1.2-7.6,2.4-15.2,3.6-22.8c1.6-9.5,6.7-16.4,15.2-20.9c0.6-0.3,1.2-0.5,2.1-0.9c0.2,1,0.3,1.7,0.4,2.5
				c2,17.3,3.9,34.6,5.9,51.9c0.2,1.7-0.1,2.6-1.9,2.5c-4.8-0.1-7.7,2-8.8,6.9c-0.7,3.1-2,6.1-6.5,5.2c0,0.2,0,0.4,0,0.6
				c0.6,0.5,1.4,1.6,1.9,1.5c1.7-0.3,3.9,0.3,4.7-2c0.8-2.2,1.9-4.3,2.6-6.6c0.7-2.1,1.9-3,4.1-3.2c4.4-0.4,4.4-0.5,4.9,3.9
				c0.7,6.6,1.5,13.1,2.2,19.7c0.1,0.7,0.1,1.5,0.1,2.4c-3-0.2-5.9-0.5-8.8-0.7c0.3,1.6,1.5,1.9,2.6,2.1c1.6,0.2,3.3,0.4,4.9,0.4
				c1.3,0,1.9,0.4,2,1.9c0.5,5.7,1.1,11.4,1.7,17c0.6,5.2,1.2,10.3,2.1,15.5C647.2,468.8,645.9,457.4,644.6,445.9z M616.1,429.1
				c-1.6,2.1-3,4.2-4.6,6.2c-0.4,0.5-1.4,0.9-1.9,0.7c-0.5-0.2-0.9-1.1-1-1.8c-0.1-0.7,0.1-1.4,0.2-2.1c0.5-2.8,0.8-5.5,1.4-8.2
				c0.5-1.9,0-3.3-1.1-4.7c-6.8-9.1-13.6-18.2-20.4-27.3c-0.3-0.4-0.6-0.7-1.2-1.3c-0.7,17-1.3,33.5-1.9,50.2
				c14.1,1.2,28.1,2.4,42.1,3.5c-1.2-2.3-1.3-2.3-3.4-2.5c-3.4-0.3-6.7-0.5-10-0.9c-2.2-0.3-2.7-1.2-1.4-3.1
				c1.2-1.9,2.4-3.8,3.9-5.4C617.9,431.1,617.8,430.2,616.1,429.1z"/>
			<path class="st0" d="M526.5,442.6c2.6,22.7,5.1,45.2,7.7,68c-8.1-0.4-16-0.8-23.9-1.2c-0.1,0.2-0.3,0.4-0.4,0.6
				c0.4,0.1,0.9,0.1,1.2,0.3c4.6,2.5,9.2,5.1,13.9,7.6c0.7,0.4,1.7,0.4,2.4,0.1c2.4-0.8,4.7-1.8,7.5-2.8c0.2,1.6,0.4,2.9,0.5,4.2
				c0.2,2.1-2.3,1.2-2.9,2.4c1.2,0.9,2.8,1.6,3.3,2.8c0.7,1.5,0.5,3.4,0.8,5.7c-2.9-1.6-5.6-2.9-8.1-4.5c-2.1-1.3-3.9-1.4-6.2-0.5
				c-7.2,2.9-14.5,5.5-21.7,8.2c-0.1,0-0.2,0.1-0.4,0.1c-1.7,0.6-3.8,0-4.2-1.2c-0.4-1.3,0.6-3,2.4-3.6c6.2-2.3,12.4-4.6,18.6-6.9
				c0.7-0.3,1.4-0.6,2.4-1c-0.9-0.6-1.5-1-2.1-1.3c-6.7-3.7-13.3-7.8-20.2-11.1c-3.4-1.6-4.8-4.1-6.4-7.1
				c-2.9-5.2-6.2-10.2-10.1-14.7c-16.3-19.2-37.3-27.9-62.3-27.3c-1.1,0-2.3,0-3.5,0.1c-1.1-10.1-2.3-20.1-3.4-30.3
				c2.7,0,5.2,0,7.7,0.1c6.6,0.1,12.3-2.1,17.5-6.3c12.2-9.8,24.6-19.2,37-28.8c3.8-2.9,8.1-4.3,12.9-4.3c10.7,0,21.5-0.2,32.2-0.4
				c1.5,0,2.1,0.4,2.2,2c0.3,4,0.9,7.9,1.3,12.2c-2.9-0.1-5.6-0.4-8.3-0.4c-7,0.1-14.1,0.1-21.1,0.5c-4,0.2-7.9,1.3-11.2,3.9
				c-7.2,5.6-14.4,11.3-21.4,17.1c-3,2.4-4.7,5.8-5.8,9.4c-0.9,2.8-0.2,4.2,2.8,4.5c4.6,0.5,9.2,0.7,13.9,1
				c17.1,1,34.2,1.9,51.4,2.9C523.8,442.7,525.1,442.6,526.5,442.6z"/>
			<path class="st0" d="M428.6,582.9c0.4,3.6,0.8,7,1.2,10.4c0.3,2.8,0.6,5.6,1,8.3c0.2,1.2-0.1,1.7-1.4,1.9
				c-17.4,1.9-34.7,3.9-52.1,5.9c-1.1,0.1-1.7-0.3-2-1.3c-0.9-3.1-3-4.1-6.1-4.4c-6-0.4-9.9-4.8-10.1-10.9c-0.1-2.4-0.5-2.9-2.8-2.6
				c-1.7,0.2-3.1-0.4-4-1.7c-1.6-2.2-3.1-4.3-4.4-6.6c-1.5-2.6-1.1-4.7,0.9-7c1.8-2,1.7-2.5-0.9-3.6c-5.7-2.4-7.5-8.1-4.3-13.3
				c2.2-3.6,2.1-4.4-0.8-7.4c-3.3-3.3-3.2-10.6,0.5-13.9c2.4-2.2,2.7-4.3,1.5-7.1c-2.1-5.4-0.1-11.3,4.8-14.3c2.2-1.3,3-2.9,2.8-5.5
				c-0.5-5.9,2.2-10.1,7.8-12.8c0.6-0.3,1.2-0.8,1.8-0.9c2.6-0.5,4-2.1,5.1-4.4c1.7-3.8,4.5-6.7,8.7-7.6c1.7-0.4,3.5-0.5,5.3-0.3
				c2,0.2,3.3-0.5,4.3-2.1c1.9-3,4.6-5.1,8.1-5.9c2.6-0.6,5-0.2,7.4,0.8c3.2,1.4,3.7,1.3,6-1.1c2-2.1,4.4-3.1,7.3-3.3
				c1.3-0.1,2,0.3,2.1,1.7c0.5,5.5,1,11,1.7,16.5c0.6,5.6,1.4,11.2,2.1,16.8c0.1,0.7,0.2,1.4,0.2,2.2c-13.8-0.4-25.7,3.3-34.1,14.7
				c-6.5,8.8-8.8,18.5-7.1,29.3C382.9,577.8,407.9,590.1,428.6,582.9z"/>
			<path class="st0" d="M416.2,472.4c2.6,0.3,4.5,1.4,6.1,3.1c2.3,2.4,3.3,2.6,6.1,0.8c6-3.7,10.9-2.4,14.3,3.8
				c1.5,2.8,2.8,3.3,5.9,2.3c2.2-0.7,4.4-1.1,6.7-0.1c3,1.3,4.8,3.6,5.3,6.9c0.6,4.1,1.6,4.8,5.7,4.2c5.1-0.8,10.3,4.2,9.7,9.4
				c-0.4,4,0.7,5.3,4.6,5.8c1.2,0.2,2.7,0.7,3.5,1.6c2.9,3.1,4.2,6.6,2.4,10.8c-1.5,3.5-1,4.6,2.5,6.3c4.5,2.1,6.2,9.4,3,13.3
				c-0.2,0.2-0.3,0.4-0.5,0.6c-2.7,3.2-2.7,4,0.1,7.1c3.5,3.9,3,10.2-1.1,13.5c-3.8,3-4,4.1-1.9,8.4c1.8,3.8-1.1,10.4-5.4,11.8
				c-2.3,0.7-3.3,2-3.6,4.4c-0.2,1.8-1.3,3.7-2.2,5.3c-0.7,1.2-1.9,2.3-3,3.1c-0.7,0.5-1.8,0.9-2.7,0.8c-3.9-0.7-4.4-0.4-4.8,3.7
				c-11.8,1.3-23.7,2.7-35.8,4c-0.1-0.6-0.2-1.2-0.3-1.8c-0.6-5.6-1.2-11.2-1.9-16.9c-0.2-1.2,0-1.9,1.4-2.4
				c15.7-6,25.5-22.3,23.7-39.3c-1.9-17-14.7-30.4-31.6-33c-1.5-0.2-2-0.8-2.1-2.2c-1.2-11-2.5-22.1-3.7-33.1
				C416.4,473.9,416.3,473.3,416.2,472.4z"/>
			<path class="st0" d="M654.7,538.4c-6.7-7-15-10.9-24.6-11.4c-25.9-1.5-44.7,20.3-39.6,45.7c0.7,3.4,2.4,6.7,3.6,10
				c0.2,0.6,0.6,1.2,1,2.1c-0.9,0.1-1.6,0.2-2.3,0.3c-10.2,1.2-20.5,2.2-30.7,3.5c-3.3,0.4-5.7-0.4-7.5-3.1c-1.9-2.9-2-6-0.4-9
				c0.4-0.7,0.8-1.3,1.2-2c1.3-2.3,1.1-3.8-0.8-5.6c-4.2-4.1-4.1-11,0.3-15.1c1.7-1.6,2.1-3.3,1.4-5.5c-2.5-7.3-1-11.6,5.4-16.1
				c1.4-1,2-2.2,1.9-3.9c-0.3-8.4,2.7-12.6,10.8-15c1.9-0.6,2.9-2,3.6-3.6c1.6-3.6,4-6.6,7.9-7.8c1.9-0.6,4-0.7,6-0.6
				c2.1,0.1,3.5-0.5,4.7-2.2c4.1-5.9,9.4-7.4,15.9-4.7c2.5,1,3.4,1,5.2-1.1c3.8-4.5,12.1-4.9,15.9-0.1c1.8,2.3,3.2,2.2,5.8,0.5
				c2.6-1.7,5.4-2.5,8.5-1.6c1.3,0.4,2,1.1,2.1,2.5c1.5,13.9,3.1,27.8,4.7,41.7C654.8,537,654.7,537.7,654.7,538.4
				C654.7,538.4,654.7,538.4,654.7,538.4z"/>
			<path class="st0" d="M660,583.9c0.2,1,0.3,1.6,0.4,2.1c1.4,12.2,2.7,24.4,4.2,36.5c0.1,1.2,0,2.1-1.1,2.9
				c-0.8,0.6-1.3,1.8-1.7,2.9c-2,6-7.9,8.4-13.4,5.3c-3.4-1.9-4.3-1.7-6.2,1.6c-1.1,1.8-2.7,2.5-4.6,3c-4,0.9-7.6,0.7-10.7-2.6
				c-2.5-2.6-2.8-2.5-5.5,0.1c-4.1,3.9-11.8,2.8-14.7-2.1c-1.8-3-2.4-3.2-5.7-2.3c-6.4,1.9-12.2-0.8-14.9-7.1
				c-0.8-1.9-2.3-2.8-4.4-3.1c-2.2-0.4-4.6-0.8-6.5-1.9c-3.3-1.8-4.6-5.1-4.8-8.8c-0.1-2.9-0.3-2.8-3.1-3c-1.4-0.1-3-0.9-3.9-1.9
				c-1.6-1.8-2.9-4-4.1-6.1c-1.6-2.9-1.4-4.8,0.9-7.3c1-1.1,2-2-0.3-3.3c1.1-0.2,1.7-0.3,2.3-0.4c10.5-1.2,21-2.4,31.4-3.6
				c1.2-0.1,2,0,2.8,1.2c15.3,21.7,48,21.3,62.7-0.9C659.2,584.9,659.4,584.6,660,583.9z"/>
			<path class="st0" d="M414.7,459.5c-3.2,0.4-6.2,0.6-9.1,1c-23.3,3.5-41.2,15.3-53.8,35.2c-1.4,2.2-2.7,4.6-4,6.9
				c-2.6,4.8-8.6,5.3-11.8,0.8c-0.8-1.1-1.7-2.5-1.9-3.9c-0.7-5.6-1.3-11.3,2.9-16c1.8-2,2.7-4.4,2.8-7.1c0.5-8.2,1-16.3,1.7-24.5
				c0.3-4,2.2-7,5.4-9.4c6.6-4.9,13.3-9.8,21.4-11.6c4.5-1,9.2-1.2,13.8-1.4c8.9-0.3,17.9-0.3,26.8-0.4c1.7,0,2.4,0.5,2.6,2.3
				c0.9,8.7,1.9,17.3,2.9,25.9C414.5,458,414.6,458.6,414.7,459.5z"/>
			<path class="st0" d="M654.7,538.4c0-1.1,0.1-2.2,0-3.2c-1.5-13.2-3-26.4-4.5-39.6c-0.1-0.7-0.2-1.3-0.2-2
				c0.2-0.1,0.4-0.2,0.6-0.3c1,1.4,2.2,2.8,3.1,4.3c1.6,2.8,2.9,3.4,5.9,2.3c6.2-2.2,11.2,0.8,12,7.3c0.4,3.2,1.7,4.1,4.9,3.7
				c6.2-0.8,10.8,3.5,10.4,9.8c-0.2,3.4,0.9,4.7,4.1,5.1c4.8,0.6,8.5,6.4,6.9,11.1c-0.2,0.6-0.5,1.2-0.7,1.8
				c-1.2,3.2-0.8,4.2,2.3,5.7c5.1,2.5,6.6,9.5,3,13.9c-0.2,0.2-0.3,0.4-0.5,0.6c-2.3,2.9-2.4,3.4,0.1,6.2c1.8,2,2.8,4.2,2.6,7.1
				c-13.9,1.6-27.8,3.1-41.5,4.7c0.5-3.6,1.4-7.2,1.6-10.8C665.4,555.4,662.1,546.1,654.7,538.4
				C654.7,538.4,654.7,538.4,654.7,538.4z"/>
			<path class="st0" d="M641.7,417.5c0.5-0.1,1-0.3,1.5-0.3c1.6-0.1,2.5-0.9,3-2.4c0.8-2.3,1.8-4.5,2.7-6.7c0.6-1.6,1.6-2.3,3.2-2.5
				c2.3-0.3,4.7-0.7,7-0.9c1.8-0.2,3.1-1,4-2.6c0.2-0.3,0.5-0.6,0.6-1c2.2-5.1,6.4-6.6,11.6-7c9.7-0.7,18.2,3.3,21.6,11.1
				c3.9,8.7,4,17.5-0.9,25.8c-6.1,10.4-15.4,15.4-27.4,15c-7.6-0.3-15.2-1.2-22.8-1.9c-0.5,0-1.4-0.8-1.4-1.2
				c-1-8.3-1.9-16.5-2.8-24.8C641.5,417.9,641.6,417.8,641.7,417.5z"/>
			<path class="st0" d="M629.2,580.8c-6.6,0.7-13.1,1.4-19.7,2.3c-1.6,0.2-2.6-0.2-3.5-1.5c-6.7-9-7.8-18.8-3.2-28.9
				c4.7-10.3,13.5-15.3,24.6-15.3c22.9,0.2,32.4,23.3,24.5,39.1c-0.7,1.3-1.4,2-3,2.1C642.3,579.3,635.8,580.1,629.2,580.8z"/>
			<path class="st0" d="M424.5,546.1c0.9,7.9,1.7,15.9,2.7,23.8c0.2,1.7-0.3,2.3-1.8,2.8c-12.3,4.1-25.7-0.6-32.3-11.4
				c-6.6-10.8-4.7-25.5,4.5-34.1c6.3-5.9,14.1-7.7,22.5-7.2c1.4,0.1,1.6,0.9,1.7,2C422.6,530.1,423.5,538.1,424.5,546.1z"/>
			<path class="st0" d="M704.8,572.6c-0.1,2.4-0.9,4.4-2.7,5.9c-0.6,0.5-1.2,0.9-1.8,1.4c-2.2,2-2.7,3.6-1.3,6.2
				c2.2,4,1,7.4-1.6,10.5c-1,1.2-2.6,2.1-4,2.7c-1.7,0.7-2.8,1.7-2.7,3.7c0.1,4.6-3.3,6.9-6.1,9.6c-0.5,0.5-1.8,0.2-2.7,0
				c-2.8-0.6-4,0.3-3.8,3.2c0.3,6-4.2,10-10.1,9c-1-0.2-2-0.3-3.2-0.5c-0.1-0.6-0.2-1.3-0.3-2c-1.4-12.4-2.8-24.7-4.2-37.1
				c-0.4-3.1,1.8-5.2,2.6-7.8c0.1-0.2,0.8-0.4,1.2-0.4c13.3-1.5,26.6-3,39.9-4.5C704.2,572.5,704.4,572.6,704.8,572.6z"/>
			<path class="st0" d="M641.2,414.9c-0.1-0.7-0.2-1.4-0.3-2c-2-17.4-3.9-34.8-5.9-52.3c-0.2-1.8,0.1-2.6,1.9-3.1
				c10.1-2.9,19.5-1.4,27.5,5.6c7.3,6.4,7.9,14.8,4.6,23.2c-2.1,5.3-5.6,10-8.6,14.9c-0.4,0.7-1.6,1.1-2.4,1.2
				c-2.5,0.5-5,0.8-7.5,1.1c-1.4,0.2-2.3,0.8-2.8,2.2c-0.9,2.4-1.9,4.7-2.8,7.1C644.2,414.5,643.1,415.2,641.2,414.9z"/>
			<path class="st0" d="M383.5,629.2c1.3,0.3,3.5,0.5,5.5,1.3c1.6,0.6,2.3,0.6,3.1-1.1c2.4-4.8,6.3-7.2,11.7-7
				c5.4,0.2,9.1,2.8,11.3,7.6c1.3,2.7,1,5.5,0.4,8.2c-1.3,6.3-4,12-7,17.6c-1.4,2.7-3.1,5.3-4.5,7.9c-0.5,0.9-1,1.2-2.1,0.8
				c-7.5-2.6-14.9-5.5-21.7-9.7c-1.6-1-3.1-2.2-4.6-3.4c-4.2-3.5-5.5-8-4-13.2C373.3,633.1,377.2,630.3,383.5,629.2z"/>
			<path class="st0" d="M344.6,614.2c0.9-0.4,1.7-1.1,2.7-1.2c6.4-0.8,12.9-1.4,19.3-2.3c1.6-0.2,2.1,0.3,2.4,1.8
				c1.1,7.3,0,14.6-1.2,21.8c-0.3,1.9-0.7,3.8-1.2,5.6c-0.2,0.6-0.9,1.4-1.4,1.4c-9.2,0.1-18.3-0.1-27-3.4c-6.6-2.5-9.3-7.6-7.8-14
				c1.5-6,6.7-9.6,13.4-9c0.3,0,0.6,0,0.9,0.1C344.6,614.6,344.6,614.4,344.6,614.2z"/>
			<path class="st0" d="M357.4,676.6c-1.6,0.2-3.2,0.5-4.7,0.5c-0.6,0-1.7-0.5-1.8-1c-2.3-7.5-4.5-15-3.8-22.9
				c0.4-5.1,4.1-8.5,9.3-8.9c4.7-0.3,9.2,3.1,10.1,7.8c0.3,1.5,0.9,1.8,2.3,1.6c7.3-0.9,13,5.4,11.2,12.4c-0.7,2.8-2.3,4.7-4.8,6
				C369.6,674.9,363.5,675.8,357.4,676.6z"/>
			<path class="st0" d="M427.6,571.6c-1.9-17-3.8-34-5.8-51c9-0.1,20.1,11.3,21.5,22.2C444.9,555.6,437.5,569.2,427.6,571.6z"/>
			<path class="st0" d="M376.4,609.6c0.9-0.1,1.5-0.2,2.1-0.2c16.7-1.9,33.3-3.8,50-5.6c2.4-0.3,2.4-0.3,2.7,2.2
				c0.3,2.3,0.5,4.7,0.8,7c0.5,4.3-1.3,6.9-5.5,7.9c-4.1,1-7.9,0.8-11-2.7c-2.1-2.3-2.9-2.1-5.1,0.1c-4.1,4.1-11.8,3.2-14.9-1.8
				c-2-3.2-2.6-3.4-6.2-2.2C384.7,615.6,379,613.7,376.4,609.6z"/>
			<path class="st0" d="M446.3,642.4c-0.1-1-0.2-1.9-0.3-2.9c-0.4-3.8,1.7-7.3,5.2-8.6c3.7-1.4,7.5-0.4,9.8,2.9
				c2.9,4.1,4.2,8.9,5.4,13.7c0.4,1.5,0.6,3,1,4.5c0.2,1-0.1,1.6-1.1,2.1c-5.7,2.4-11.4,4.7-17.6,5.1c-4.4,0.3-7.7-1.9-8.8-5.9
				c-1.1-4,0.8-8,4.5-9.9C445,643,445.6,642.7,446.3,642.4z"/>
			<path class="st0" d="M432.5,615.5c-0.5-4.1-0.9-8-1.4-12c12-1.4,23.9-2.7,35.8-4c0.4,4.6-4.1,8.6-9,8.2c-5.6-0.5-5.6-0.5-7.7,4.5
				c-2.1,4.8-8,6.8-12.6,4.3C436.1,615.6,434.5,614.5,432.5,615.5z"/>
			<path class="st0" d="M607.8,583.5c14.4-1.6,28.5-3.2,42.9-4.8c-4.6,7.4-10.9,11.6-19.2,12.6C622.5,592.3,614.5,590.3,607.8,583.5
				z"/>
			<path class="st0" d="M433.5,627.6c0.1,1,0.2,2.1,0.4,3.1c0.4,3.2,0.5,6.5,1.2,9.6c0.5,2.6-0.4,4.3-2.8,5.4
				c-3.9-2.8-7.8-5.6-10.4-9.7c-1.6-2.5-1.4-5.2,0.5-7.2c1.8-1.9,5-2.6,7.3-1.3c1.3,0.7,2.4,1.7,3.6-0.5
				C433.3,627.2,433.4,627.4,433.5,627.6z"/>
			<path class="st0" d="M430.8,652.1c-0.5,3.2-1,6.4-1.6,9.5c-0.1,0.4-1,1.1-1.5,1c-3.3-0.4-6.5-0.8-9.7-1.6
				c-2.5-0.6-3.5-2.5-3.3-4.7c0.2-2.4,1.8-3.9,4.3-4.5c0.8-0.2,1.8-0.7,2.1-1.4c1.2-2.5,3.1-3.8,5.3-3.4
				C428.7,647.6,430.2,649.4,430.8,652.1z"/>
			<path class="st0" d="M345.6,612.6c0.1-5.1,4.6-9.5,10.4-10.2c5.3-0.6,10.8,2.8,12.1,7.6C360.6,610.9,353.2,611.8,345.6,612.6z"/>
			<path class="st0" d="M435.6,643.1c-0.6-5.4-1.2-10.2-1.6-15.1c0-0.5,0.7-1.3,1.2-1.4c2.3-0.6,4.4,0,6,1.8c1.5,1.8,1.9,3.8,1,6
				C440.7,637.6,438.4,640.2,435.6,643.1z"/>
			<path class="st0" d="M536,524.2c5.6,3.2,10.9,6.1,16.1,9.1c1.2,0.7,2,2,1.2,3.4c-0.8,1.5-2.2,1.7-3.6,0.9
				c-4.1-2.2-8.2-4.5-12.3-6.8c-0.4-0.2-0.6-0.8-0.7-1.2C536.4,528,536.3,526.3,536,524.2z"/>
		</g>
	</g>
	<g>
		<g>
			<path d="M418.4,321.1c1.2,1.4-2.3,5.5-10.5,12.4c-8.2,6.9-12.8,9.7-14,8.3l-23.6-27.9l-17,14.4l23.6,27.9
				c1.2,1.4-2.3,5.5-10.5,12.4c-8.2,6.9-12.8,9.7-14,8.3l-68-80.4c-1.4-1.7,1.9-6,10.1-12.9c8.2-6.9,13-9.5,14.4-7.8l24.1,28.5
				l17-14.4l-23.9-28.3c-1-1.1,0.4-3.6,4-7.6c2-1.9,4-3.8,6-5.5l6.4-5c4.5-2.9,7.2-3.8,8.1-2.7L418.4,321.1z"/>
			<path d="M452.8,240.8c1.9-0.7,4.1,2.5,6.6,9.4c0.8,2.1,1.4,4.6,2,7.6c0.6,3,0.3,4.7-0.9,5.1l-19,6.9l5.4,14.9l27.5-10
				c1.7-0.6,3.6,1.2,5.8,5.3c1,1.8,1.9,3.7,2.7,5.9c0.8,2.1,1.5,5,2.1,8.6c0.6,3.6,0.3,5.7-1.1,6.2l-51,18.6
				c-3.8,1.4-6.2,0.5-7.4-2.6l-35-95.9c-0.9-2.6-0.3-4.3,2-5.1l53.4-19.5c2.1-0.8,4.7,3.3,7.9,12.1c3.2,8.8,3.8,13.6,1.7,14.3
				l-27.6,10.1l5.5,15.1L452.8,240.8z"/>
			<path d="M567.1,297.7c-9.2-0.1-14.2-1.7-14.9-4.7l-4.9-20.6l-25.3-0.4l-4.9,19.6c-0.7,3.3-5.8,4.8-15.3,4.7
				c-5.1-0.1-8.8-0.4-11.3-1.1c-2.4-0.6-3.6-1.1-3.6-1.4l29.9-107.1c0-0.8,7.3-1.2,21.8-0.9c14.5,0.2,21.8,0.8,21.7,1.6L586,295.7
				c0,0.7-2.5,1.3-7.3,1.6C573.8,297.6,570,297.8,567.1,297.7z M526.4,252l16.7,0.3l-6.6-33l-1,0L526.4,252z"/>
			<path d="M615.6,308.9c-0.6,1.6-5.6,0.4-14.9-3.4c-9.4-3.9-13.8-6.5-13.2-8l39.5-95.7c1.4-3.4,3.9-4.4,7.6-2.9l28,11.6
				c25.7,10.6,34.5,26,26.2,46c-2.5,6.1-6,11.1-10.3,15.1c-4.4,4-9.3,6.5-14.9,7.7l5.8,38.5c-1.8,2-5.4,3.7-11,4.9
				c-7.6,1.8-13.3,1.9-17.1,0.3c-3.8-1.6-6.1-4.1-6.8-7.6l-0.5-37.8l-4.6-1.9L615.6,308.9z M646.4,234.1l-9.1,22l0.7,0.3
				c9.3,3.8,15.5,1.9,18.7-5.8c1.5-3.5,1.6-6.5,0.5-9c-1.1-2.5-3.7-4.5-7.8-6.2L646.4,234.1z"/>
			<path d="M701.6,363.9c-1.4,1.6-6-1.1-13.8-8.1s-11-11.3-9.6-12.8l53.1-59.5L717,270.8c-1.3-1.2-0.7-3.9,2-8
				c1.3-1.9,2.8-3.8,4.4-5.6c1.6-1.8,3.3-3.5,5.1-5c3.8-3.1,6.4-4.1,7.7-2.9l51.5,46c1.3,1.2,0.7,3.9-2,8c-1.3,1.9-2.8,3.8-4.4,5.6
				c-1.6,1.8-3.3,3.5-5.1,5c-3.8,3.1-6.4,4.1-7.7,2.9l-13.9-12.4L701.6,363.9z"/>
		</g>
	</g>
	<g>
		<g>
			<path d="M348.9,701.6c1.6,6.1,0.9,10.2-2.1,12.3c-3,2.1-7.6,3.6-13.7,4.5c-6.1,0.8-9.7,0.5-10.8-1.1c-0.3-0.4-0.4-1.1-0.3-2
				c0.1-0.9-0.3-2.6-1.2-5c-0.9-2.4-1.8-4.4-2.9-5.9c-3.5-5-8.2-7.8-13.9-8.4c-5.7-0.6-12.2,1.7-19.6,6.8
				c-7.3,5.1-11.6,10.5-13,16.2c-1.3,5.7-0.3,10.9,3.1,15.8c1.4,2,3.2,4,5.5,6.1c2.3,2.1,4.3,3.3,6.1,3.6c0.3,0.1,0.6,0.3,1,0.9
				c0.4,0.5,0.1,2.2-0.9,5c-0.9,2.8-2.6,5.9-4.9,9.4c-2.3,3.4-4.3,5.8-6.1,7c-3.4,2.4-7.9,1.7-13.5-2.1c-5.6-3.8-11-9.3-16-16.4
				c-8-11.4-10.6-23.7-7.7-36.7c2.9-13,11.7-24.7,26.4-35c14.7-10.3,28.9-14.6,42.6-13c13.7,1.7,24.6,8.2,32.6,19.5
				C344.3,689.3,347.3,695.5,348.9,701.6z"/>
			<path d="M315.8,814.7c-1,1.4-5.6-1-13.6-7c-8.1-6.1-11.7-9.8-10.8-11l62-82.9c2.2-3,4.9-3.3,8-0.9l24.3,18.2
				c22.3,16.7,26.9,33.7,13.9,51.1c-3.9,5.3-8.5,9.3-13.8,12c-5.2,2.8-10.7,4-16.3,3.8l-4,38.7c-2.2,1.5-6.2,2.2-11.8,2
				c-7.8-0.2-13.4-1.5-16.7-4c-3.3-2.5-4.9-5.5-4.7-9.1l8.9-36.8l-3.9-2.9L315.8,814.7z M364.3,750L350,769.1l0.6,0.5
				c8.1,6,14.6,5.7,19.6-1c2.3-3.1,3.2-5.9,2.7-8.6c-0.5-2.7-2.5-5.3-6-8L364.3,750z"/>
			<path d="M469.9,776.3c0.6-2,6.4-1.3,17.4,2.1c11,3.4,16.1,6.2,15.5,8.2l-21.9,69.5c-3.2,10.3-9.6,17.6-19,21.8
				c-9.4,4.2-20.6,4.3-33.6,0.2c-13-4.1-22.5-10.8-28.5-20c-6-9.3-7.2-19.6-3.7-31l21.1-67.1c0.6-2,6.4-1.3,17.4,2.1
				c11,3.4,16.1,6.2,15.5,8.2l-21.5,68.3c-0.6,2-0.1,4,1.7,5.8c1.8,1.9,4,3.2,6.4,4c2.4,0.8,4.8,0.9,7.1,0.4
				c2.3-0.5,3.8-1.8,4.5-4.1L469.9,776.3z"/>
			<path d="M510.5,854.4c2,1.6,5.5,3.7,10.5,6.3c5,2.7,9.7,4,14.2,3.9c4.5-0.1,6.7-1.9,6.7-5.4c0-1.6-0.7-3-2-4.2
				c-1.3-1.2-3.6-2.6-7.1-4.1c-3.4-1.5-6-2.7-7.7-3.6c-1.7-0.9-4-2.3-6.8-4.3c-2.8-2-5-4.1-6.5-6.3c-4.3-6-6.6-13.6-6.7-22.9
				c-0.2-9.3,3.2-17.2,10-23.8c6.8-6.5,15.9-9.9,27.1-10.1c7.6-0.1,14.7,0.6,21.2,2.1c6.5,1.5,9.9,3.6,10.1,6.3c0,0.3,0,0.6,0,1
				c0.1,3.7-1,8.4-3.3,14.1c-2.2,5.7-3.8,8.9-4.8,9.5c-6.8-3.4-12.9-5-18.3-4.9c-5.3,0.1-8,2-7.9,5.8c0,2.3,2,4.4,6,6.1
				c0.9,0.4,2.1,1,3.7,1.7c1.6,0.7,3.4,1.6,5.5,2.5c2.1,1,4.3,2.2,6.7,3.7c2.4,1.5,5,3.5,7.8,6c5.7,5.2,8.6,12.1,8.8,20.8
				c0.2,11.3-2.8,20.6-8.9,27.9c-6.1,7.3-15.7,11.2-28.7,11.6c-6.4,0.1-12.1-0.3-17.3-1.3c-5.2-1-9.7-3-13.5-6
				c-3.9-3-5.8-6.7-5.9-11c-0.1-4.3,0.7-8.7,2.2-13C507.1,858.7,508.7,855.8,510.5,854.4z"/>
			<path d="M694.3,855.3c0.6,1.7-4.1,4.3-14.2,7.9c-10.1,3.6-15.4,4.5-16,2.8l-12.2-34.4l-21,7.4l12.2,34.4
				c0.6,1.7-4.1,4.3-14.2,7.9c-10.1,3.6-15.4,4.5-16,2.8l-35.1-99.3c-0.7-2.1,3.9-4.9,14-8.5s15.5-4.3,16.2-2.2l12.5,35.2l21-7.4
				L629,767.1c-0.5-1.4,1.6-3.3,6.4-5.6c2.5-1.1,5-2.1,7.5-3l7.7-2.4c5.2-1.2,8.1-1.1,8.5,0.3L694.3,855.3z"/>
			<path d="M728.1,753.3c1.6-1.2,4.7,1.1,9.2,7c1.4,1.8,2.8,4,4.2,6.7c1.5,2.7,1.7,4.4,0.7,5.2l-16,12.3l9.7,12.6l23.2-17.8
				c1.4-1.1,3.8,0,7.2,3.3c1.5,1.4,2.9,3,4.3,4.8c1.4,1.8,2.9,4.3,4.6,7.6c1.7,3.2,1.9,5.3,0.8,6.2l-43.1,33.1
				c-3.2,2.5-5.8,2.4-7.8-0.2l-62.2-81c-1.7-2.2-1.6-4,0.4-5.5l45.1-34.6c1.8-1.4,5.5,1.7,11.2,9.1c5.7,7.4,7.7,11.8,5.9,13.2
				L702.1,753l9.8,12.7L728.1,753.3z"/>
			<path d="M819.9,747.9c1.4,1-0.8,5.6-6.7,13.8c-5.9,8.3-9.5,12-10.8,11l-84.4-60c-3-2.1-3.4-4.8-1.1-8l17.6-24.7
				c16.1-22.7,33.1-27.7,50.7-15.2c5.4,3.8,9.5,8.3,12.4,13.5c2.9,5.2,4.3,10.6,4.2,16.2l38.8,3c1.6,2.2,2.4,6.1,2.3,11.8
				c0,7.8-1.2,13.4-3.5,16.8c-2.4,3.4-5.4,5-9,4.9l-37-8l-2.9,4L819.9,747.9z M754,701.1l19.4,13.8l0.5-0.6
				c5.8-8.2,5.3-14.7-1.5-19.6c-3.1-2.2-6-3.1-8.6-2.5c-2.6,0.5-5.3,2.6-7.8,6.2L754,701.1z"/>
		</g>
	</g>
</g>
</svg>
