<?xml version="1.0" encoding="utf-8"?>
<!-- Generator: Adobe Illustrator 22.0.0, SVG Export Plug-In . SVG Version: 6.00 Build 0)  -->
<svg version="1.1" id="Layer_1" xmlns="http://www.w3.org/2000/svg" xmlns:xlink="http://www.w3.org/1999/xlink" x="0px" y="0px"
	 viewBox="0 0 1080 1080" style="enable-background:new 0 0 1080 1080;" xml:space="preserve">
<style type="text/css">
	.st0{fill:#FF53A7;}
</style>
<g>
	<g>
		<path d="M149.9,476.9c0.6-3.4,1.1-6.9,1.4-10.3c0.3-3.4,1.6-6.7,3.7-9.8c1.2-1.9,2.2-3.8,2.8-5.8c0.6-2,1.2-4.3,1.9-6.8
			c1.2-3.7,3.1-5.8,5.6-6.3c2.5-0.5,4-1.6,4.7-3.5c0.6-1.9,2-3.7,4.2-5.4c2.2-1.7,4.8-3.5,7.9-5.4c3.1-1.9,6.3-3.7,9.6-5.4
			c3.3-1.7,6.1-3.5,8.6-5.4c3.4-2.5,7.2-4,11.2-4.4c4-0.5,7.5-1.6,10.3-3.5c2.2-1.6,3.8-2.4,4.9-2.6c1.1-0.2,2.9-0.2,5.4-0.2
			c1.2,0,2.5-0.5,3.7-1.4c0.6-0.6,1.8-1.2,3.5-1.6c1.7-0.5,3.6-0.9,5.6-1.4c2-0.5,3.9-0.9,5.6-1.2c1.7-0.3,2.9-0.5,3.5-0.5
			c0.9,0,2.4-0.2,4.4-0.7c2-0.5,4-1.1,6.1-1.9c2-0.8,3.7-1.6,5.1-2.6c1.4-0.9,2.1-1.9,2.1-2.8c-0.3-3.1,0.4-6.9,2.1-11.2
			c1.7-4.4,2.3-8.1,1.6-11.2c-0.3-1.6,0.2-4,1.6-7.2c1.4-3.3,1.6-6.6,0.7-10c0-0.3-0.1-0.6-0.2-0.9c-0.2-0.3-0.1-0.8,0.2-1.4
			c1.9-3.1,2.6-6.5,2.1-10c-0.5-3.6,0.2-7.1,2.1-10.5c0.6-1.2,0.8-2.2,0.5-2.8c-0.6-2.5-0.6-4.7,0-6.8c0.6-2,0.6-4.3,0-6.8
			c0-1.2,0.2-2,0.5-2.3c1.2-1.6,1.9-3.3,1.9-5.4c0-2,0.3-4,0.9-5.8c0.6-4,1.1-8,1.4-11.9c0.3-3.9,1.2-7.7,2.8-11.5
			c0-0.3,0.1-0.6,0.2-0.9c0.2-0.3,0.2-0.6,0.2-0.9c-0.3-4.4,0.4-8.4,2.1-12.2c1.7-3.7,2.3-7.8,1.6-12.2c0-1.9,0.5-3,1.4-3.3
			c1.9-1.6,2.6-3.2,2.3-4.9c-0.3-1.7-0.3-3.3,0-4.9c0.6-1.2,0-1.9-1.9-1.9h-0.9c-1.6,0.3-3,0.5-4.2,0.7c-1.2,0.2-2.5,0.7-3.7,1.6
			c-2.5,2.5-5.6,3.7-9.3,3.7c-4.4,0-6.9,0.5-7.7,1.6c-0.8,1.1-1.8,1.5-3,1.2h-1.9c-4.1,0-8.6,0.3-13.8,0.9
			c-5.1,0.6-9.6,1.4-13.3,2.3c-3.1,0.6-6.1,1.4-8.9,2.3c-2.8,0.9-5.8,1.6-8.9,1.9c-0.6,0-1.2,0.2-1.6,0.5c-0.5,0.3-1,0.6-1.6,0.9
			c-5.6,3.4-8.9,5.1-9.8,5.1s-1.7,0.9-2.3,2.8c-0.6,0.9-1,2-1.2,3c-0.2,1.1-0.5,1.9-1.2,2.6c-1.6,1.6-2.5,2.9-2.8,4
			c-0.3,1.1,0,2.6,0.9,4.4c0.6,1.2,0.5,2.5-0.2,3.7c-0.8,1.2-1.6,2.5-2.6,3.7c-1.6,1.6-4.4,2.3-8.4,2.3c-3.4,0-5.6-0.6-6.5-1.9
			c-2.5-2.5-4.4-5.1-5.8-7.7c-1.4-2.6-2.1-5.7-2.1-9.1c0-1.6,0.1-3.1,0.2-4.7c0.2-1.6,0.9-3.1,2.1-4.7c1.2-1.6,2.2-4.1,2.8-7.7
			c0.6-3.6,2.6-6.1,6.1-7.7c0.6-0.6,1.1-1.3,1.4-2.1c0.3-0.8,0.8-1.5,1.4-2.1c2.5-2.5,4.5-4,6.1-4.7c1.9-1.6,5.4-3.6,10.5-6.1
			c5.1-2.5,8.8-3.7,11-3.7c0.6,0,3-0.4,7-1.2c4-0.8,8.4-1.7,13.1-2.8c4.7-1.1,9-2.1,12.9-3c3.9-0.9,6.3-1.6,7.2-1.9
			c2.5-0.9,4-1.4,4.7-1.4c0.6,0,1.1,0.1,1.4,0.2c0.3,0.2,0.8,0.2,1.4,0.2c0.9,0,3-0.5,6.1-1.4c1.6-0.6,3.3-1,5.4-1.2
			c2-0.2,4.3-0.4,6.8-0.7c2.5-0.3,5.4-1,8.9-2.1c3.4-1.1,7.3-2.9,11.7-5.4c2.2-0.9,4.7-1.7,7.7-2.3c3-0.6,6.6-3.7,11-9.3
			c0.9-1.6,3.7-3.3,8.2-5.1c4.5-1.9,7.7-2.8,9.6-2.8c2.5,0,3.9,1.1,4.2,3.3c0.3,2.2,1.4,3.6,3.3,4.2c3.4,1.6,5.6,3.8,6.5,6.8
			c0.9,3,1.7,6.2,2.3,9.6c0,2.2-0.8,3.7-2.3,4.7c-1.2,0.9-2.6,2.7-4,5.1c-1.4,2.5-2.7,5.1-3.7,7.9c-1.1,2.8-2.1,5.5-3,8.2
			c-0.9,2.7-1.6,4.8-1.9,6.3c0,2.2-0.8,4.1-2.3,5.8c-1.6,1.7-2,3.8-1.4,6.3c0.6,2.2,0.4,4.2-0.7,6.1c-1.1,1.9-2.1,3.7-3,5.6
			c-0.3,0.6-0.5,1.2-0.5,1.9c0,0.6,0,1.2,0,1.9c0,3.4-0.5,6.6-1.4,9.6c-0.9,3-1.1,6.2-0.5,9.6c0,1.6-0.2,2.7-0.7,3.3
			c-0.5,0.6-1,1.2-1.6,1.9c-0.6,0.6-1.1,1.4-1.4,2.3c-0.3,0.9,0,2.7,0.9,5.1c1.2,3.4,1.4,6.4,0.5,8.9c-0.9,2.5-1.4,4.1-1.4,4.7
			c0.3,2.8,0.4,6.1,0.2,9.8c-0.2,3.7-0.5,7.3-0.9,10.8c-0.5,3.4-0.9,6.5-1.2,9.1c-0.3,2.7-0.6,4.1-0.9,4.4c-1.2,1.6-1.6,3.1-0.9,4.7
			c0.6,1.9,0.9,3.7,0.7,5.4c-0.2,1.7-0.5,3.4-1.2,4.9c-0.3,1.6-0.7,3-1.2,4.4c-0.5,1.4-0.2,2.9,0.7,4.4c0.6,0.9,0.7,2.1,0.2,3.5
			c-0.5,1.4-0.9,2.9-1.2,4.4c-0.3,0.6-0.3,1.3,0,2.1c0.3,0.8,0.8,1,1.4,0.7c1.9-0.9,3.8-1.4,5.8-1.4c2,0,3.8-0.6,5.4-1.9
			c1.2-0.9,2-1.7,2.3-2.3c0.3-0.6,0.5-1.4,0.7-2.3c0.2-0.9,0.5-2.3,0.9-4c0.5-1.7,1.3-4,2.6-6.8c1.6-2.8,2.3-5.8,2.1-9.1
			c-0.2-3.3-0.2-5.1-0.2-5.4c1.2-2.5,2.1-5.1,2.6-7.9c0.5-2.8,0.9-5.5,1.4-8.2c0.5-2.6,1.1-5.3,1.9-7.9c0.8-2.6,2.1-5.2,4-7.7
			c1.6-2.2,2.6-4.6,3.3-7.2c0.6-2.6,1.2-5.2,1.9-7.7c1.2-5.9,3.1-11.1,5.6-15.7c2.5-4.5,5.4-10.4,8.9-17.5c0.3-0.6,0.5-1.2,0.5-1.9
			c0-0.6,0.2-1.2,0.5-1.9c2.5-4,4.7-8.1,6.8-12.2c2-4,4-8.3,5.8-12.6c1.2-2.5,2.5-5.1,3.7-7.7c1.2-2.6,2.5-5.2,3.7-7.7
			c0.6-1.9,1.7-3.3,3.3-4.2c3.7-1.6,6.4-3.5,7.9-5.8c1.6-2.3,3.6-5.2,6.1-8.6c3.1-4.4,8-7.4,14.7-9.1c6.7-1.7,12.7-2.7,18-3h1.9
			c6.2,0,10.5,1.9,12.9,5.6c2.3,3.7,5.1,7.5,8.2,11.2c2.2,2.5,3.4,5.1,3.7,7.7c0.3,2.7,0.8,5.4,1.4,8.2c0.6,1.9,1,3.8,1.2,5.8
			c0.2,2-0.2,4-1.2,5.8c-0.3,0.6-0.3,1.3,0,2.1c0.3,0.8,0.5,2.3,0.5,4.4c0,2.2-0.2,5.5-0.7,9.8c-0.5,4.4-1.6,10.6-3.5,18.7
			c-0.6,2.8-1.6,5.5-2.8,8.2c-1.2,2.7-2.2,5.4-2.8,8.2c-0.3,1.9-1.1,4.2-2.3,7c-1.2,2.8-2.7,5.7-4.2,8.6c-1.6,3-3.1,5.8-4.7,8.6
			c-1.6,2.8-2.8,5-3.7,6.5c-0.9,1.6-2,3-3,4.4c-1.1,1.4-1.8,3-2.1,4.9c0,0.3-0.7,1.6-2.1,3.7c-1.4,2.2-2.9,4.6-4.4,7.2
			c-1.6,2.7-3.1,5-4.7,7c-1.6,2-2.5,3.4-2.8,4c-2.2,2.2-4.1,4.5-5.6,7c-1.6,2.5-3.6,4.7-6.1,6.5c-1.6,1.2-3,2.7-4.2,4.4
			c-1.2,1.7-2.7,3.4-4.2,4.9c-0.6,0.6-1,1.1-1.2,1.4c-0.2,0.3-0.5,0.8-1.2,1.4c-3.4,1.6-4.2,3.9-2.3,7c0.6,1.2,0.7,2.4,0.2,3.5
			c-0.5,1.1-0.4,2.3,0.2,3.5c0.6,0.9,0.5,1.6-0.5,1.9c-0.9,0.3-2,0.9-3,1.9c-1.1,0.9-2.1,2.3-3,4.2c-0.9,1.9-0.9,4.8,0,8.9
			c0.9,4.4,0.7,7.6-0.7,9.6c-1.4,2-0.9,4,1.6,5.8c1.6,1.2,2.4,2.3,2.6,3c0.2,0.8,0,1.5-0.5,2.1c-0.5,0.6-0.9,1.3-1.2,2.1
			c-0.3,0.8-0.3,1.6,0,2.6c1.6,3.7,2.2,7.6,1.9,11.5c-0.3,3.9-0.3,7.9,0,11.9c0,1.6-0.2,2.5-0.5,2.8c-2.2,2.2-2.3,4.5-0.5,7
			c-0.6,2.5-0.4,5.1,0.7,7.7c1.1,2.7,0.9,5.4-0.7,8.2c-0.6,1.6-0.8,3.2-0.5,4.9c0.3,1.7,0.8,3.4,1.4,4.9c0.9,3.4,1.3,6.6,1.2,9.6
			c-0.2,3-0.1,4.7,0.2,5.4c1.2,2.5,2.2,5.1,2.8,7.9c0.6,2.8,1.9,5.4,3.7,7.9c1.6,2.5,3,4.9,4.4,7.2c1.4,2.3,3.2,4.6,5.4,6.8
			c4.7,5.3,7.5,9.3,8.4,11.9c0.9,2.6,1.6,6.1,1.9,10.5c0,0.9-0.2,1.4-0.5,1.4c-2.5,1.6-4.7,3.6-6.5,6.1c-1.9,2.5-4.5,3.7-7.9,3.7
			h-1.9h-0.9c-0.9-0.3-2.3-0.5-4.2-0.5c-1.2,0-2.2,0.2-2.8,0.5h-0.9c-1.9-0.9-4-1.5-6.3-1.6c-2.3-0.2-4.6-0.7-6.8-1.6
			c-1.6-0.6-2.3-1.7-2.3-3.3c0-1.6-1.7-3.3-5.1-5.1c-2.5-1.2-4.9-2.7-7.2-4.4c-2.3-1.7-4.8-3.4-7.2-4.9c-0.9-0.6-2.2-1.7-3.7-3.3
			c-1.2-2.8-3.3-5-6.1-6.5c-2.5-1.9-4.7-4-6.5-6.3c-1.9-2.3-3.7-4.8-5.6-7.2c-0.6-0.9-0.9-1.7-0.9-2.3c0-0.6,0.1-1.3,0.2-2.1
			c0.2-0.8,0.2-1.7,0-2.8c-0.2-1.1-0.9-2.4-2.1-4c-1.2-1.6-2.4-3-3.5-4.4c-1.1-1.4-1.8-3.2-2.1-5.4c0-0.9-0.3-1.7-0.9-2.3
			c-3.1-3.4-4.5-7.2-4.2-11.5c0.3-4.2-0.3-7.6-1.9-10c-0.9-0.9-1.1-1.7-0.5-2.3c0.6-0.6,1.2-1.3,1.9-2.1c0.6-0.8,1.1-1.6,1.4-2.6
			c0.3-0.9-0.3-2.2-1.9-3.7c-1.9-2.5-3-4.6-3.3-6.3c-0.3-1.7-0.3-3.2,0-4.4c0.3-1.2,0.7-2.3,1.2-3c0.5-0.8,0.5-1.5,0.2-2.1
			c-0.6-2.2-0.8-4.4-0.5-6.5c0.3-2.2,0.2-4.4-0.5-6.5c-0.3-1.6-0.2-3.6,0.5-6.1c0.9-3.1,1.2-6.1,0.9-8.9c-0.3-2.8-1.2-4.2-2.8-4.2
			c-0.9,0-1.9,0.5-2.8,1.4c-2.2,1.9-4.1,2.8-5.6,2.8c-0.6,0-1.1-0.1-1.4-0.2c-0.3-0.2-0.8-0.2-1.4-0.2c-0.6,0-1.4,0.8-2.3,2.3
			c-1.6,3.1-2.3,5.1-2.1,5.8c0.2,0.8-0.1,1.5-0.7,2.1c-3.4,4.1-5,8.3-4.7,12.6c0,0.6-0.2,1.1-0.7,1.4c-0.5,0.3-0.9,0.8-1.2,1.4
			c-1.2,1.2-2.3,2.5-3,3.7c-0.8,1.2-0.9,3-0.2,5.1c0.3,1.6,0.2,3.1-0.5,4.7c-0.6,1.6-1.9,2.8-3.7,3.7c-2.2,0.9-3.4,2.1-3.5,3.5
			c-0.2,1.4-0.2,3,0,4.7c0.2,1.7,0.1,3.5-0.2,5.4c-0.3,1.9-1.7,3.7-4.2,5.6c-2.8,2.2-4.5,4-5.1,5.4c-0.6,1.4-1,2.7-1.2,4
			c-0.2,1.2-0.5,2.7-1.2,4.2c-0.6,1.6-2.2,3.6-4.7,6.1c-3.1,3.1-5.5,6.1-7.2,9.1c-1.7,3-4,5.1-6.8,6.3c-1.2,0.6-2.5,1.5-3.7,2.6
			c-1.2,1.1-2.4,2.3-3.5,3.5c-1.1,1.2-2.3,2.3-3.5,3.3c-1.2,0.9-2.3,1.2-3.3,0.9c-0.6-0.3-1.1-0.2-1.4,0.2c-0.3,0.5-0.6,0.9-0.9,1.2
			c-1.2,0.9-2.8,2.3-4.7,4.2c-1.6,1.9-3.1,2.8-4.7,2.8c-0.6,0-1.3-0.1-2.1-0.2c-0.8-0.2-1.6-0.2-2.6-0.2c-0.9,0-2.2,0.2-3.7,0.7
			c-1.6,0.5-3.4,1.5-5.6,3c-1.2,0.9-2.8,1.4-4.7,1.4c-1.6,0-3-0.2-4.4-0.7c-1.4-0.5-2.9-0.7-4.4-0.7c-1.9,0-3.7,0.9-5.6,2.8
			c-0.3,0.6-0.7,1-1.2,1.2c-0.5,0.2-0.9-0.1-1.2-0.7c-0.3-0.9-0.9-1.4-1.9-1.4c-0.6,0-1.2,0.2-1.9,0.5c-0.6,0.3-1.2,0.6-1.9,0.9
			c-0.6,0-1.2,0.1-1.6,0.2c-0.5,0.2-1,0.2-1.6,0.2c-2.5,0-5.5-1.1-8.9-3.3c-3.4-2.2-6.1-4.1-7.9-5.6c-3.1-2.8-6.6-5.2-10.5-7.2
			c-3.9-2-6.2-5.7-6.8-11c-0.3-2.8-1-4.9-2.1-6.3c-1.1-1.4-2.3-2.8-3.5-4.2c-1.2-1.4-2.2-3-2.8-4.9c-0.6-1.9-0.6-4.7,0-8.4
			c0-0.3,0.1-0.6,0.2-0.9c0.2-0.3,0.2-0.6,0.2-0.9c-1.6-2.5-2.2-4.8-1.9-7C149.3,481.8,149.6,479.4,149.9,476.9z M191.5,480.2
			c0.9,1.9,1.4,3.8,1.4,5.8c0,2,0.3,4.1,0.9,6.3c0.6,2.2,1.5,3.6,2.6,4.2c1.1,0.6,3.2,0.9,6.3,0.9c1.6-0.6,3.3-1.3,5.1-2.1
			c1.9-0.8,3.9-1.5,6.1-2.1c0.6,0,1-0.3,1.2-0.9c0.2-0.6,0.4-1.2,0.7-1.9c1.6-2.2,2.9-3.5,4-4c1.1-0.5,2.1-0.8,3-0.9
			c0.9-0.2,2-0.5,3.3-1.2c1.2-0.6,2.6-2.2,4.2-4.7c2.2-3.4,4.4-6.8,6.5-10c2.2-3.3,4.5-6.6,7-10c1.6-2.5,2.8-4.8,3.7-7
			c0.9-2.2,2.2-4.4,3.7-6.5c0.6-0.6,0.7-1.4,0.2-2.3c-0.5-0.9-1.2-1.1-2.1-0.5c-3.7,1.2-6.5,2.3-8.4,3c-1.9,0.8-3.3,1.4-4.2,1.9
			c-0.9,0.5-1.6,0.7-2.1,0.7c-0.5,0-1,0-1.6,0c-1.2,0-2.2,0.2-2.8,0.5c-0.6,0.3-1.4,0.9-2.3,1.6c-0.9,0.8-2.3,1.6-4.2,2.3
			c-1.9,0.8-4.5,1.6-7.9,2.6c-1.2,0.3-3,1.1-5.1,2.3c-2.2,1.2-4.4,2.7-6.5,4.4c-2.2,1.7-4.1,3.6-5.6,5.6c-1.6,2-2.7,4.1-3.3,6.3
			c-0.3,0.9-1.2,1.8-2.6,2.6C191.3,478,190.9,479,191.5,480.2z M411.2,323.6c1.6-1.2,3-2.3,4.4-3c1.4-0.8,2.4-1.9,3-3.5
			c1.2-3.4,3-6.4,5.1-8.9c2.2-2.5,4-5.3,5.6-8.4c0.6-1.6,1.2-3.2,1.6-4.9c0.5-1.7,1-3.3,1.6-4.9c5-10.6,7.8-22.1,8.4-34.6v-2.3
			c1.2-1.9,1.6-3.6,0.9-5.1c-0.6-1.6-1.1-3.4-1.4-5.6c-1.9,1.6-2.8,3.6-2.8,6.1c-0.6,4.4-1.7,8.6-3.3,12.6
			c-1.6,4.1-3.1,8.3-4.7,12.6c-0.6,1.6-1.4,3-2.3,4.2c-0.9,1.2-1.1,3-0.5,5.1c0.3,0.6,0,1.5-0.9,2.6c-0.9,1.1-2.1,2.3-3.5,3.7
			c-1.4,1.4-2.7,3-3.7,4.9c-1.1,1.9-1.6,4.1-1.6,6.5c0,0.6-0.5,1.4-1.6,2.3c-1.1,0.9-0.7,2.5,1.2,4.7c1.6,1.2,1.6,2.2,0,2.8
			c-2.5,1.6-3.9,3.4-4.2,5.6C412.3,318.3,411.8,320.8,411.2,323.6z"/>
		<path d="M506.1,474.1c-2.5-0.6-4.5-0.5-6.1,0.2c-1.6,0.8-4.2,1.6-7.9,2.6c-1.6,0.3-2.6,0.4-3,0.2c-0.5-0.2-0.9-0.4-1.2-0.7
			c-0.3-0.3-0.9-0.6-1.6-0.9c-0.8-0.3-2.4-0.3-4.9,0c-2.2,0.3-4.2,0-6.1-0.9c-1.9-0.9-3.7-1.4-5.6-1.4c-1.6-1.6-3.4-2.7-5.6-3.5
			c-2.2-0.8-4.1-2.1-5.6-4c-0.3-0.6-0.6-1.1-0.9-1.4c-0.3-0.3-0.5-0.8-0.5-1.4c0.3-2.5-0.9-4-3.5-4.7c-2.6-0.6-4.1-1.9-4.4-3.7
			c-0.6-2.2-1.5-4.1-2.6-5.8c-1.1-1.7-1.8-3.5-2.1-5.4c-0.3-2.2-0.7-4.2-1.2-6.1c-0.5-1.9-0.5-3.9-0.2-6.1c0.3-2.5,0.2-6.4-0.5-11.7
			c-0.6-5.3,0.3-10,2.8-14v-0.9c-0.9-1.6-1.2-2.9-0.7-4c0.5-1.1,1-2.3,1.6-3.5c0.6-1.6,1.2-3.3,1.6-5.1c0.5-1.9,1.1-4,1.9-6.5
			c0.8-2.5,2-5.5,3.7-9.1c1.7-3.6,4-7.9,6.8-12.9c0.6-0.6,0.9-1.2,0.9-1.9c0.3-2.2,0.9-4,1.9-5.4c0.9-1.4,1.7-2.9,2.3-4.4
			c0.6-2.2,2.2-3.9,4.7-5.1c0.9-0.6,2-1.1,3.3-1.4c0.9-2.5,2.6-4.2,4.9-5.1c2.3-0.9,4-2.5,4.9-4.7c0.6-1.2,2.6-2.3,6.1-3.3
			c3.4-0.9,6.4-2.6,8.9-5.1c1.9-1.9,3.6-2.4,5.1-1.6c1.6,0.8,3.7,0.4,6.5-1.2c2.5-1.2,6.6-1.2,12.4,0c5.8,1.2,10.4,2.7,13.8,4.2
			c1.9,1.2,3.1,2.3,3.7,3.3c2.2,2.5,4.7,4.9,7.7,7.2c3,2.3,4,5.2,3,8.6c-0.3,1.2-0.3,2.3,0,3.3c0.3,0.9,0.6,1.9,0.9,2.8
			c1.2,5.9,0.9,10.7-1.2,14.3c-2,3.6-4.9,8.8-8.6,15.7c-0.6,1.6-1.1,2.3-1.4,2.3c-2.5,2.2-4.5,4.5-6.1,7c-1.6,2.5-3.6,4.5-6.1,6.1
			c-5.3,4.1-9.3,6.9-12.2,8.6c-2.8,1.7-4.9,2.7-6.3,3c-1.4,0.3-2.3,0.3-2.6,0c-0.3-0.3-0.8-0.2-1.4,0.5c-2.2,1.9-4.4,2.7-6.5,2.6
			c-2.2-0.2-4.5-0.2-7-0.2c-1.9,0-3,0.2-3.5,0.7c-0.5,0.5-1,1.6-1.6,3.5c-0.6,2.2-0.9,3.8-0.9,4.9c0,1.1,0.1,2,0.2,2.6
			c0.2,0.6,0.3,1.4,0.5,2.3c0.2,0.9-0.1,2.7-0.7,5.1c-0.6,3.1-0.2,5.6,1.4,7.5c1.6,1.9,3.6,3.1,6.1,3.7c2.5,0.3,4.1,0.6,4.9,0.9
			c0.8,0.3,1.5,0.3,2.1,0c1.6-0.9,3.1-1.3,4.7-1.2c1.6,0.2,3.2,0.3,4.9,0.5c1.7,0.2,3.3,0.2,4.9,0.2c1.6,0,3.1-0.5,4.7-1.4
			c0.6-0.3,1.1-0.6,1.4-0.9c0.3-0.3,0.8-0.6,1.4-0.9c2.8-0.6,5.4-1.8,7.9-3.5c2.5-1.7,5-3.5,7.5-5.4c1.2-0.9,2.5-1.6,3.7-1.9
			c1.2-0.3,2.5-0.6,3.7-0.9c1.2-0.3,2.5-0.7,3.7-1.2c1.2-0.5,2.3-1.6,3.3-3.5c0.6-0.9,1.7-2.1,3.3-3.5c1.6-1.4,3.4-3,5.6-4.7
			c2.2-1.7,4.3-3.4,6.3-5.1c2-1.7,3.5-3.2,4.4-4.4c1.9-2.5,5.3-5.9,10.3-10.3c5-4.4,8.4-8.1,10.3-11.2c0.9-1.6,1.9-2.9,3-4
			c1.1-1.1,2.3-2.3,3.5-3.5c1.2-0.9,2.7-1.3,4.4-1.2c1.7,0.2,3.2,0.7,4.4,1.6c0.6,0.6,1.2,2.4,1.6,5.4c0.5,3,0.4,4.8-0.2,5.4
			c-1.3,1.6-1.8,2.3-1.6,2.3c0.2,0-1.2,1.7-4,5.1c-0.3,0.3-1.2,1.2-2.6,2.8c-1.4,1.6-2.9,3.2-4.4,4.9c-1.6,1.7-3,3.4-4.2,4.9
			c-1.2,1.6-2,2.7-2.3,3.3c-0.6,1.2-1.6,2.2-2.8,2.8c-1.2,0.6-2.2,1.6-2.8,2.8c-1.2,1.2-2,2.2-2.3,2.8c-0.6,1.6-1.3,3-2.1,4.2
			c-0.8,1.2-2.1,2-4,2.3c-0.9,0.3-1.7,1.2-2.3,2.8c-0.3,1.6-1.3,3.2-3,4.9c-1.7,1.7-3.5,2.9-5.4,3.5c-1.9,0.3-3.4,1-4.4,2.1
			c-1.1,1.1-2.3,2.4-3.5,4c-1.2,1.6-2.7,3.2-4.4,4.9c-1.7,1.7-4.3,3.5-7.7,5.4c-2.5,1.6-4.9,3.2-7.2,4.9c-2.3,1.7-4.8,3.2-7.2,4.4
			c-1.6,0.6-3.2,1.5-4.9,2.6c-1.7,1.1-3.5,1.9-5.4,2.6c-1.2,0.6-2.5,1.2-3.7,1.6c-1.2,0.5-2.5,1-3.7,1.6c-1.2,0.9-2.5,1.2-3.7,0.9
			C508.1,473.4,507,473.5,506.1,474.1z M520.6,365.7c0-1.2-0.8-1.9-2.3-1.9c-2.5,0-4.6,0.9-6.3,2.6c-1.7,1.7-3.7,2.9-5.8,3.5
			c-0.6,0-1.2,1.2-1.9,3.7c-0.6,2.5-1.7,4.5-3.3,6.1c-0.9,0.6-1.5,1.5-1.6,2.6c-0.2,1.1-0.4,2.3-0.7,3.5c-0.6,1.9-0.5,3,0.5,3.3
			c0.6,0.6,1.6,0.3,2.8-0.9c1.6-1.2,3.3-2.3,5.1-3.3c1.9-0.9,3.6-2,5.1-3.3c2.5-2.2,4.2-4.6,5.1-7.2c0.9-2.6,2-5.2,3.3-7.7V365.7z"
			/>
		<path d="M590.2,486.8c-0.6-1.6-1.1-2.9-1.4-4c-0.3-1.1-0.6-2.3-0.9-3.5c0-0.9-0.1-1.8-0.2-2.6c-0.2-0.8,0.1-1.5,0.7-2.1
			c0-0.6-0.2-1.2-0.5-1.9c-1.2-2.2-1.4-3.5-0.5-4c0.9-0.5,0.9-1.5,0-3c-1.2-2.2-1.4-4.8-0.5-7.9c1.2-3.4,1.4-8,0.5-13.8
			c-0.9-5.8-0.8-10.2,0.5-13.3c0.6-0.9,0.9-2.3,0.9-4.2c0.3-3.7,0.6-5.8,0.9-6.3c0.3-0.5,0.5-1,0.5-1.6c-0.6-2.5-0.5-4.8,0.5-7
			c0.9-2.2,1.4-5,1.4-8.4c0-2.2,0.2-3.8,0.7-4.9c0.5-1.1,0.9-2.1,1.4-3c0.5-0.9,0.9-1.9,1.2-2.8c0.3-0.9,0.5-2.3,0.5-4.2
			c-0.3-4.4-0.2-6.8,0.5-7.2c0.6-0.5,0.9-1.6,0.9-3.5c-0.3-4.7,0.2-7.9,1.6-9.6c1.4-1.7,1.9-3.3,1.6-4.9c0-1.6,0.2-2.9,0.5-4
			c0.3-1.1,0.6-2.3,0.9-3.5c0.3-0.9,0.7-1.6,1.2-2.1c0.5-0.5,0.9-1,1.2-1.6c1.2-2.5,2-4.7,2.3-6.8c0.3-2,0.5-4,0.5-5.8
			c0-1.9,0.2-3.5,0.7-4.9c0.5-1.4,1.5-2.6,3-3.5c0.6-0.3,1.1-1.2,1.4-2.6c0.3-1.4,0.8-2.6,1.4-3.5c0.6-0.6,0.9-1.6,0.9-2.8
			c-0.6-1.6-0.4-2.5,0.7-2.8c1.1-0.3,1.5-2.2,1.2-5.6c0-1.6,0.3-3.5,0.9-5.8c0.6-2.3,1.6-3.8,2.8-4.4c1.2-0.6,1.9-1.8,1.9-3.5
			c0-1.7,1.4-5.7,4.2-11.9c0.6-0.9,0.8-1.5,0.5-1.6c-0.3-0.2-0.2-0.9,0.2-2.3c0.5-1.4,1.5-3.7,3-7c1.6-3.3,4.2-8.6,7.9-16.1
			c2.5-4.7,4.3-7.9,5.4-9.8c1.1-1.9,1.9-3.2,2.3-4c0.5-0.8,0.9-1.3,1.2-1.6c0.3-0.3,0.9-1.2,1.9-2.8c1.9-2.8,3.8-4.7,5.8-5.8
			c2-1.1,2.9-2.7,2.6-4.9c0-1.6,0.6-2.2,1.9-1.9c0.9,0.3,1.6,0.2,1.9-0.5c0.3-0.6,0.5-1.2,0.7-1.9c0.2-0.6,0.4-1.3,0.7-2.1
			c0.3-0.8,1.1-1.3,2.3-1.6c0.9,0,2-0.9,3.3-2.6c1.2-1.7,2.7-3.5,4.4-5.4c1.7-1.9,3.4-3.4,5.1-4.7c1.7-1.2,3.5-1.6,5.4-0.9
			c0.9,0.3,1.9,0.2,2.8-0.2c0.9-0.5,1.9-0.9,3-1.4c1.1-0.5,2.3-0.7,3.7-0.7c1.4,0,3.2,0.6,5.4,1.9c1.2,0.6,1.9,1.6,2.1,2.8
			c0.2,1.2,0.9,2.3,2.1,3.3c3.1,1.9,5,5.1,5.6,9.8c0.3,1.6,0.6,3.1,0.9,4.7c0.3,1.6,0,3.1-0.9,4.7c-0.3,0.3-0.3,1.2,0,2.6
			c0.3,1.4-0.2,2.6-1.4,3.5c-1.2,0.9-1.6,2.2-1.2,3.7c0.5,1.6,0.4,2.8-0.2,3.7c-1.6,1.9-2,4.1-1.4,6.5c0,1.9-0.5,3.8-1.6,5.8
			c-1.1,2-1.8,4-2.1,5.8c0,0.6-0.2,1.1-0.5,1.4c-1.3,1.6-2,3.1-2.1,4.7c-0.2,1.6-0.4,3.1-0.7,4.7c0,2.8-0.6,4.5-1.9,5.1
			c-1.2,0.6-1.9,1.7-1.9,3.3c0,1.6-0.2,2.9-0.7,4c-0.5,1.1-0.9,2.4-1.2,4c-0.3,1.6-0.9,3-1.9,4.4c-0.9,1.4-1.7,2.9-2.3,4.4
			c-0.6,1.2-1,2.3-1.2,3c-0.2,0.8-0.4,1.6-0.7,2.3c-0.3,0.8-0.7,1.7-1.2,2.8c-0.5,1.1-1.3,2.6-2.6,4.4c-1.9,3.1-2.6,4.9-2.3,5.4
			c0.3,0.5,0.2,1-0.5,1.6c-1.6,0.6-2.6,1.6-3.3,2.8c-0.6,1.2-1.2,2.5-1.9,3.7l-0.9,0.5c-0.3,2.2-0.9,3.9-1.9,5.1
			c-0.9,1.2-2.2,2.5-3.7,3.7c-0.6,0.6-0.9,1.4-0.9,2.3c-0.9,1.6-1.6,2.6-2.1,3c-0.5,0.5-0.9,0.8-1.4,0.9c-0.5,0.2-0.9,0.3-1.2,0.5
			c-0.3,0.2-0.8,0.9-1.4,2.1c-1.2,4.1-2.8,6.5-4.7,7.5c-1.9,0.9-2.7,2.5-2.3,4.7c-1.2,1.6-1.7,3.1-1.4,4.7c0.3,1.6-0.2,3.1-1.4,4.7
			v0.9c-1.6,1.9-2.3,4-2.3,6.3c0,2.3-0.3,4.6-0.9,6.8c-0.6,1.9-1.4,3.1-2.3,3.7c-0.9,0.9-1.2,1.9-0.9,2.8c0.6,0.6,0.5,1.9-0.2,3.7
			c-0.8,1.9-0.9,3.6-0.2,5.1c0.3,0.3,0.2,0.6-0.5,0.9c-0.6,0.3-1.4,0.7-2.3,1.2c-0.9,0.5-1.7,1.1-2.3,1.9c-0.6,0.8-0.9,2-0.9,3.5
			c0.3,1.2,0.5,2.4,0.5,3.5c0,1.1,0.5,2.1,1.4,3c0.6,0.6,0.9,1.4,0.7,2.3c-0.2,0.9-0.1,1.9,0.2,2.8c0,1.9-0.6,3.3-1.9,4.2
			c-0.9,0.9-1.4,1.7-1.4,2.3c0,0.6,0.2,1.2,0.7,1.9c0.5,0.6,0.8,1.4,0.9,2.3c0.2,0.9-0.1,2-0.7,3.3c-1.2,1.9-1.4,3.8-0.5,5.8
			c0.9,2,0.2,4-2.3,5.8c-2.5,2.5-3.3,4.8-2.3,7c0.9,2.2,1.2,3.4,0.9,3.7c-0.6,1.2-0.5,2.4,0.2,3.5c0.8,1.1,0.9,2.3,0.2,3.5
			c-0.6,0.9-0.5,1.6,0.2,1.9c0.8,0.3,0.5,1.1-0.7,2.3c-1.3,0.9-2,1.6-2.1,1.9c-0.2,0.3,0.1,1.2,0.7,2.8c0.6,1.6,0.8,2.9,0.5,4
			c-0.3,1.1-0.5,2.3-0.5,3.5c-0.3,1.9-1,3.7-2.1,5.4c-1.1,1.7-1.2,5.2-0.2,10.5c0.3,1.2,0.3,2.3,0,3.3c-0.3,0.9-0.5,1.9-0.5,2.8
			c-0.9,1.2-1.3,2.5-1.2,3.7c0.2,1.2,0.2,2.5,0.2,3.7c0,2.5,0.5,4.4,1.4,5.8c0.9,1.4,2.2,1.3,3.7-0.2c1.9-1.6,3.7-3,5.4-4.4
			c1.7-1.4,3.3-3.2,4.9-5.4c0.6-0.9,1.6-2,3-3.3c1.4-1.2,2.7-3.1,4-5.6c0.6-0.6,1.2-1.3,1.9-2.1c0.6-0.8,1.2-1.6,1.9-2.6
			c0.9-0.9,1.9-2.4,3-4.4c1.1-2,2.3-4.1,3.5-6.3c1.2-2.2,2.6-4.4,4-6.5c1.4-2.2,2.7-3.9,4-5.1c0.6-0.6,1.1-1.4,1.4-2.3
			c0.3-0.9,0.8-1.9,1.4-2.8c0.6-0.9,2.3-3.7,4.9-8.4c2.6-4.7,5.7-10,9.1-16.1c3.4-6.1,6.7-11.9,9.8-17.5c3.1-5.6,5.1-9.8,6.1-12.6
			c0.6-1.2,1.3-2.3,2.1-3.3c0.8-0.9,1.5-2,2.1-3.3c0.9-1.6,1.9-3.4,2.8-5.6c0.9-2.2,2-4.4,3.3-6.8c1.2-2.3,2.6-4.4,4-6.3
			c1.4-1.9,2.7-3,4-3.3c1.6-0.6,3-0.2,4.2,1.4c0.6,1.9,0.8,3.4,0.5,4.7c-0.3,0.9-0.3,1.9,0,2.8c0.3,0.9,0.3,1.9,0,2.8
			c-0.6,1.6-1.2,2.9-1.6,4c-0.5,1.1-1,2.4-1.6,4c-0.6,1.6-1.1,3-1.4,4.2c-0.3,1.2-0.8,2.5-1.4,3.7c-0.6,0.6-0.9,1.1-0.9,1.4
			c0,0.3-0.3,0.8-0.9,1.4c-0.6,0.3-1.2,1.2-1.9,2.8c-0.3,1.9-0.9,3.6-1.9,5.1c-0.9,1.6-1.6,3.3-1.9,5.1c-2.2,1.2-3.4,2.8-3.5,4.7
			c-0.2,1.9-1,3.6-2.6,5.1c-0.6,0.6-1.8,2.6-3.5,5.8c-1.7,3.3-3.5,6.8-5.4,10.5c-1.9,3.7-3.6,7.2-5.1,10.5c-1.6,3.3-2.7,5.4-3.3,6.3
			c-0.6,1.2-1.3,2.3-2.1,3c-0.8,0.8-1.5,2-2.1,3.5c-0.6,1.2-0.9,2.2-0.9,2.8c-0.6,2.2-1.6,3.6-3,4.2c-1.4,0.6-2,2-1.6,4.2
			c-1.2,1.9-2.3,3.6-3.3,5.1c-0.9,1.6-1.9,3-2.8,4.4c-0.9,1.4-1.7,2.6-2.3,3.5c-0.6,1.2-1.4,2.3-2.3,3.3c-0.9,0.9-1.6,2.2-1.9,3.7
			c0,0.3-0.5,0.9-1.4,1.9c-1.9,1.9-3,3.7-3.5,5.6c-0.5,1.9-2.4,4.4-5.8,7.5c-0.6,0.6-1.1,1.2-1.4,1.9c-0.6,1.6-1.4,2.4-2.3,2.6
			c-0.9,0.2-1.7,1.5-2.3,4l-0.9,0.9c-2.5,1.2-4.7,2.9-6.5,4.9c-1.9,2-4.2,3.5-7,4.4c-4.4,1.9-8.9,2.4-13.6,1.6
			c-4.7-0.8-9.2-3.8-13.6-9.1c-1.9-1.9-2.8-3.6-2.8-5.1c0-0.6-0.7-1.4-2.1-2.3c-1.4-0.9-2.1-3.1-2.1-6.5c0-1.2-0.2-2-0.5-2.3
			c-1.9-1.9-3-4.1-3.5-6.5c-0.5-2.5-1.5-4.7-3-6.5c-0.6-1.2-0.7-2.5-0.2-3.7C592.3,493.9,591.8,491.1,590.2,486.8z"/>
		<path d="M708.5,486.8c-0.6-1.6-1.1-2.9-1.4-4c-0.3-1.1-0.6-2.3-0.9-3.5c0-0.9-0.1-1.8-0.2-2.6c-0.2-0.8,0.1-1.5,0.7-2.1
			c0-0.6-0.2-1.2-0.5-1.9c-1.2-2.2-1.4-3.5-0.5-4c0.9-0.5,0.9-1.5,0-3c-1.2-2.2-1.4-4.8-0.5-7.9c1.2-3.4,1.4-8,0.5-13.8
			c-0.9-5.8-0.8-10.2,0.5-13.3c0.6-0.9,0.9-2.3,0.9-4.2c0.3-3.7,0.6-5.8,0.9-6.3c0.3-0.5,0.5-1,0.5-1.6c-0.6-2.5-0.5-4.8,0.5-7
			c0.9-2.2,1.4-5,1.4-8.4c0-2.2,0.2-3.8,0.7-4.9c0.5-1.1,0.9-2.1,1.4-3c0.5-0.9,0.9-1.9,1.2-2.8c0.3-0.9,0.5-2.3,0.5-4.2
			c-0.3-4.4-0.2-6.8,0.5-7.2c0.6-0.5,0.9-1.6,0.9-3.5c-0.3-4.7,0.2-7.9,1.6-9.6c1.4-1.7,1.9-3.3,1.6-4.9c0-1.6,0.2-2.9,0.5-4
			c0.3-1.1,0.6-2.3,0.9-3.5c0.3-0.9,0.7-1.6,1.2-2.1c0.5-0.5,0.9-1,1.2-1.6c1.2-2.5,2-4.7,2.3-6.8c0.3-2,0.5-4,0.5-5.8
			c0-1.9,0.2-3.5,0.7-4.9c0.5-1.4,1.5-2.6,3-3.5c0.6-0.3,1.1-1.2,1.4-2.6c0.3-1.4,0.8-2.6,1.4-3.5c0.6-0.6,0.9-1.6,0.9-2.8
			c-0.6-1.6-0.4-2.5,0.7-2.8c1.1-0.3,1.5-2.2,1.2-5.6c0-1.6,0.3-3.5,0.9-5.8c0.6-2.3,1.6-3.8,2.8-4.4c1.2-0.6,1.9-1.8,1.9-3.5
			c0-1.7,1.4-5.7,4.2-11.9c0.6-0.9,0.8-1.5,0.5-1.6c-0.3-0.2-0.2-0.9,0.2-2.3c0.5-1.4,1.5-3.7,3-7c1.6-3.3,4.2-8.6,7.9-16.1
			c2.5-4.7,4.3-7.9,5.4-9.8c1.1-1.9,1.9-3.2,2.3-4c0.5-0.8,0.9-1.3,1.2-1.6c0.3-0.3,0.9-1.2,1.9-2.8c1.9-2.8,3.8-4.7,5.8-5.8
			c2-1.1,2.9-2.7,2.6-4.9c0-1.6,0.6-2.2,1.9-1.9c0.9,0.3,1.6,0.2,1.9-0.5c0.3-0.6,0.5-1.2,0.7-1.9c0.2-0.6,0.4-1.3,0.7-2.1
			c0.3-0.8,1.1-1.3,2.3-1.6c0.9,0,2-0.9,3.3-2.6c1.2-1.7,2.7-3.5,4.4-5.4c1.7-1.9,3.4-3.4,5.1-4.7c1.7-1.2,3.5-1.6,5.4-0.9
			c0.9,0.3,1.9,0.2,2.8-0.2c0.9-0.5,1.9-0.9,3-1.4c1.1-0.5,2.3-0.7,3.7-0.7c1.4,0,3.2,0.6,5.4,1.9c1.2,0.6,1.9,1.6,2.1,2.8
			c0.2,1.2,0.9,2.3,2.1,3.3c3.1,1.9,5,5.1,5.6,9.8c0.3,1.6,0.6,3.1,0.9,4.7c0.3,1.6,0,3.1-0.9,4.7c-0.3,0.3-0.3,1.2,0,2.6
			c0.3,1.4-0.2,2.6-1.4,3.5c-1.2,0.9-1.6,2.2-1.2,3.7c0.5,1.6,0.4,2.8-0.2,3.7c-1.6,1.9-2,4.1-1.4,6.5c0,1.9-0.5,3.8-1.6,5.8
			c-1.1,2-1.8,4-2.1,5.8c0,0.6-0.2,1.1-0.5,1.4c-1.3,1.6-2,3.1-2.1,4.7c-0.2,1.6-0.4,3.1-0.7,4.7c0,2.8-0.6,4.5-1.9,5.1
			c-1.2,0.6-1.9,1.7-1.9,3.3c0,1.6-0.2,2.9-0.7,4c-0.5,1.1-0.9,2.4-1.2,4c-0.3,1.6-0.9,3-1.9,4.4c-0.9,1.4-1.7,2.9-2.3,4.4
			c-0.6,1.2-1,2.3-1.2,3c-0.2,0.8-0.4,1.6-0.7,2.3c-0.3,0.8-0.7,1.7-1.2,2.8c-0.5,1.1-1.3,2.6-2.6,4.4c-1.9,3.1-2.6,4.9-2.3,5.4
			c0.3,0.5,0.2,1-0.5,1.6c-1.6,0.6-2.6,1.6-3.3,2.8c-0.6,1.2-1.2,2.5-1.9,3.7l-0.9,0.5c-0.3,2.2-0.9,3.9-1.9,5.1
			c-0.9,1.2-2.2,2.5-3.7,3.7c-0.6,0.6-0.9,1.4-0.9,2.3c-0.9,1.6-1.6,2.6-2.1,3c-0.5,0.5-0.9,0.8-1.4,0.9c-0.5,0.2-0.9,0.3-1.2,0.5
			c-0.3,0.2-0.8,0.9-1.4,2.1c-1.2,4.1-2.8,6.5-4.7,7.5c-1.9,0.9-2.7,2.5-2.3,4.7c-1.2,1.6-1.7,3.1-1.4,4.7c0.3,1.6-0.2,3.1-1.4,4.7
			v0.9c-1.6,1.9-2.3,4-2.3,6.3c0,2.3-0.3,4.6-0.9,6.8c-0.6,1.9-1.4,3.1-2.3,3.7c-0.9,0.9-1.2,1.9-0.9,2.8c0.6,0.6,0.5,1.9-0.2,3.7
			c-0.8,1.9-0.9,3.6-0.2,5.1c0.3,0.3,0.2,0.6-0.5,0.9c-0.6,0.3-1.4,0.7-2.3,1.2c-0.9,0.5-1.7,1.1-2.3,1.9c-0.6,0.8-0.9,2-0.9,3.5
			c0.3,1.2,0.5,2.4,0.5,3.5c0,1.1,0.5,2.1,1.4,3c0.6,0.6,0.9,1.4,0.7,2.3c-0.2,0.9-0.1,1.9,0.2,2.8c0,1.9-0.6,3.3-1.9,4.2
			c-0.9,0.9-1.4,1.7-1.4,2.3c0,0.6,0.2,1.2,0.7,1.9c0.5,0.6,0.8,1.4,0.9,2.3c0.2,0.9-0.1,2-0.7,3.3c-1.2,1.9-1.4,3.8-0.5,5.8
			c0.9,2,0.2,4-2.3,5.8c-2.5,2.5-3.3,4.8-2.3,7c0.9,2.2,1.2,3.4,0.9,3.7c-0.6,1.2-0.5,2.4,0.2,3.5c0.8,1.1,0.9,2.3,0.2,3.5
			c-0.6,0.9-0.5,1.6,0.2,1.9c0.8,0.3,0.5,1.1-0.7,2.3c-1.3,0.9-2,1.6-2.1,1.9c-0.2,0.3,0.1,1.2,0.7,2.8c0.6,1.6,0.8,2.9,0.5,4
			c-0.3,1.1-0.5,2.3-0.5,3.5c-0.3,1.9-1,3.7-2.1,5.4c-1.1,1.7-1.2,5.2-0.2,10.5c0.3,1.2,0.3,2.3,0,3.3c-0.3,0.9-0.5,1.9-0.5,2.8
			c-0.9,1.2-1.3,2.5-1.2,3.7c0.2,1.2,0.2,2.5,0.2,3.7c0,2.5,0.5,4.4,1.4,5.8c0.9,1.4,2.2,1.3,3.7-0.2c1.9-1.6,3.7-3,5.4-4.4
			c1.7-1.4,3.3-3.2,4.9-5.4c0.6-0.9,1.6-2,3-3.3c1.4-1.2,2.7-3.1,4-5.6c0.6-0.6,1.2-1.3,1.9-2.1c0.6-0.8,1.2-1.6,1.9-2.6
			c0.9-0.9,1.9-2.4,3-4.4c1.1-2,2.3-4.1,3.5-6.3c1.2-2.2,2.6-4.4,4-6.5c1.4-2.2,2.7-3.9,4-5.1c0.6-0.6,1.1-1.4,1.4-2.3
			c0.3-0.9,0.8-1.9,1.4-2.8c0.6-0.9,2.3-3.7,4.9-8.4c2.6-4.7,5.7-10,9.1-16.1c3.4-6.1,6.7-11.9,9.8-17.5c3.1-5.6,5.1-9.8,6.1-12.6
			c0.6-1.2,1.3-2.3,2.1-3.3c0.8-0.9,1.5-2,2.1-3.3c0.9-1.6,1.9-3.4,2.8-5.6c0.9-2.2,2-4.4,3.3-6.8c1.2-2.3,2.6-4.4,4-6.3
			c1.4-1.9,2.7-3,4-3.3c1.6-0.6,3-0.2,4.2,1.4c0.6,1.9,0.8,3.4,0.5,4.7c-0.3,0.9-0.3,1.9,0,2.8c0.3,0.9,0.3,1.9,0,2.8
			c-0.6,1.6-1.2,2.9-1.6,4c-0.5,1.1-1,2.4-1.6,4c-0.6,1.6-1.1,3-1.4,4.2c-0.3,1.2-0.8,2.5-1.4,3.7c-0.6,0.6-0.9,1.1-0.9,1.4
			c0,0.3-0.3,0.8-0.9,1.4c-0.6,0.3-1.2,1.2-1.9,2.8c-0.3,1.9-0.9,3.6-1.9,5.1c-0.9,1.6-1.6,3.3-1.9,5.1c-2.2,1.2-3.4,2.8-3.5,4.7
			c-0.2,1.9-1,3.6-2.6,5.1c-0.6,0.6-1.8,2.6-3.5,5.8c-1.7,3.3-3.5,6.8-5.4,10.5c-1.9,3.7-3.6,7.2-5.1,10.5c-1.6,3.3-2.7,5.4-3.3,6.3
			c-0.6,1.2-1.3,2.3-2.1,3c-0.8,0.8-1.5,2-2.1,3.5c-0.6,1.2-0.9,2.2-0.9,2.8c-0.6,2.2-1.6,3.6-3,4.2c-1.4,0.6-2,2-1.6,4.2
			c-1.2,1.9-2.3,3.6-3.3,5.1c-0.9,1.6-1.9,3-2.8,4.4c-0.9,1.4-1.7,2.6-2.3,3.5c-0.6,1.2-1.4,2.3-2.3,3.3c-0.9,0.9-1.6,2.2-1.9,3.7
			c0,0.3-0.5,0.9-1.4,1.9c-1.9,1.9-3,3.7-3.5,5.6c-0.5,1.9-2.4,4.4-5.8,7.5c-0.6,0.6-1.1,1.2-1.4,1.9c-0.6,1.6-1.4,2.4-2.3,2.6
			c-0.9,0.2-1.7,1.5-2.3,4l-0.9,0.9c-2.5,1.2-4.7,2.9-6.5,4.9c-1.9,2-4.2,3.5-7,4.4c-4.4,1.9-8.9,2.4-13.6,1.6
			c-4.7-0.8-9.2-3.8-13.6-9.1c-1.9-1.9-2.8-3.6-2.8-5.1c0-0.6-0.7-1.4-2.1-2.3c-1.4-0.9-2.1-3.1-2.1-6.5c0-1.2-0.2-2-0.5-2.3
			c-1.9-1.9-3-4.1-3.5-6.5c-0.5-2.5-1.5-4.7-3-6.5c-0.6-1.2-0.7-2.5-0.2-3.7C710.6,493.9,710,491.1,708.5,486.8z"/>
		<path d="M929.1,340.9c0,0.9,0.2,1.6,0.5,1.9c0,1.6,0.2,2.9,0.5,4c0.3,1.1,0.2,2.4-0.5,4c-0.3,0.3-0.2,0.9,0.5,1.9
			c0.9,0.9,1.2,1.7,0.9,2.3c-0.3,0.6-0.8,1.2-1.4,1.9c-0.6,0.6-1.2,1.4-1.6,2.3c-0.5,0.9-1,1.7-1.6,2.3c-0.9,1.6-1.2,3-0.9,4.2
			c0,0.9,0,2,0,3c0,1.1,0.2,2.1,0.5,3c1.2,3.4,1.6,5.4,0.9,5.8c-0.6,0.5-0.6,1.2,0,2.1c0.9,1.6,1.2,3.1,0.9,4.7
			c-0.3,0.9-0.2,1.6,0.2,1.9c0.5,0.3,0.9,3.7,1.2,10.3c0,1.2-0.1,2.5-0.2,3.7c-0.2,1.2,0.2,2.3,1.2,3.3c0.3,0.3,0.5,1.1,0.5,2.3
			c-0.6,1.6-0.9,3.1-0.9,4.7c0,1.6-0.5,3.1-1.4,4.7c-0.3,0.3-0.3,0.8,0,1.4c0.3,0.6,0.4,1,0.2,1.2c-0.2,0.2-0.2,0.5-0.2,1.2
			c0,1.6,0,3,0,4.2c0,1.2-0.8,2.5-2.3,3.7c-0.3,2.5-0.9,4.9-1.9,7.2c-0.9,2.3-1.6,5.2-1.9,8.6c0,1.2-0.8,3-2.3,5.1
			c-0.6,0.9-1.5,2.5-2.6,4.7c-1.1,2.2-1.9,3.6-2.6,4.2c-2.5,2.2-3.7,3.9-3.5,5.1c0.2,1.2-0.1,2-0.7,2.3c-1.2,0.6-2.1,1.6-2.6,2.8
			c-0.5,1.2-1.3,2.3-2.6,3.3c-1.2,0.9-2.7,2.7-4.2,5.4c-1.6,2.7-4.1,4.9-7.5,6.8c-0.6,0.6-1.2,1.2-1.9,1.9c-0.6,0.6-1.6,0.8-2.8,0.5
			l-0.9,0.5c-0.3,1.9-1.6,2.8-3.7,2.8c-1.6,0.6-3,1.5-4.4,2.6c-1.4,1.1-3,1.5-4.9,1.2c-2.8,1.6-5.5,1.8-8.2,0.7
			c-2.7-1.1-5.4-1.3-8.2-0.7c-5.6,0.9-10-0.5-13.1-4.2c-0.6-1.2-2-1.9-4.2-1.9c-2.2,0-3.1-1.2-2.8-3.7c0.3-1.6-0.4-2.5-2.1-2.8
			c-1.7-0.3-3-1.7-4-4.2c-0.3-0.6-0.7-1.2-1.2-1.6c-0.5-0.5-1-1-1.6-1.6c-1.6-1.2-2.6-2.6-3-4.2c-0.5-1.6-1.6-5-3.5-10.3
			c-0.3-0.9-0.2-2.1,0.5-3.5c0.6-1.4,0.3-2.9-0.9-4.4V448c0.6-1.2,0.8-2.3,0.5-3c-0.3-0.8-0.8-1.6-1.4-2.6c-1.2-1.9-1.7-3.5-1.4-4.9
			c0.3-1.4,0.8-3.1,1.4-5.1c0.6-2,1.2-4.4,1.6-7.2c0.5-2.8,0.4-6.4-0.2-10.7c-0.6-3.1-0.5-5.9,0.5-8.4c0.9-2.2,2-5.2,3.3-9.1
			c1.2-3.9,3.1-7.7,5.6-11.5c0.9-1.2,1.7-3.3,2.3-6.1c3.4-9.7,7.3-16.7,11.7-21c4.4-4.4,7-7.6,7.9-9.8c1.2-2.5,3.2-4,5.8-4.7
			c2.6-0.6,5.4-2.5,8.2-5.6c1.2-1.6,2.6-3,4-4.2c1.4-1.2,2.7-2.6,4-4.2c0.6-0.6,1.1-0.9,1.4-0.9c2.8-0.6,5.4-1.6,7.9-3
			c2.5-1.4,5.8-1.9,9.8-1.6c0.6,0,1.2,0.2,1.9,0.7c0.6,0.5,1.4,0.9,2.3,1.2c2.5,0.6,4.2,0.7,5.1,0.2c0.9-0.5,3.3-0.9,7-1.2
			c2.8,0,4.8,1.1,6.1,3.3c0.6,1.6,2,2.7,4.2,3.3c2.2,0.6,3.9,2.2,5.1,4.7c0,0.3,0.3,0.8,0.9,1.4
			C929.1,338.6,929.4,339.7,929.1,340.9z M877.7,448.4c2.5-0.9,4.8-2.5,7-4.7c2.2-2.2,4.5-4,7-5.6c0.6-0.6,0.9-1.2,0.9-1.9
			c0.9-1.9,1.9-3.7,3-5.4c1.1-1.7,1.9-3.7,2.6-5.8c0.6-1.9,1.4-3.7,2.3-5.4c0.9-1.7,1.6-3.5,1.9-5.4c0.6-2.5,1.3-4.5,2.1-6.1
			c0.8-1.6,1.3-3.1,1.6-4.7c1.6-4.4,2.3-9.5,2.3-15.4c0-5.9,0.2-10.1,0.5-12.6c0.3-1.6,0.3-3,0-4.2c-0.3-1.2-0.5-2.6-0.5-4.2
			c0-0.6-0.5-0.9-1.4-0.9c-0.9,0.6-2,1.5-3.3,2.6c-1.2,1.1-2.8,2-4.7,2.6c-0.3,0-0.8,0.3-1.4,0.9c-1.6,0.9-3,2.3-4.2,4
			c-1.2,1.7-2.8,3-4.7,4c-1.2,0.6-1.8,1.6-1.6,2.8c0.2,1.2-1.5,4.7-4.9,10.3c-1.9,3.1-3.4,6.3-4.4,9.6c-1.1,3.3-2.1,6.6-3,10
			c-0.3,0.9-0.8,1.7-1.4,2.3c-0.6,0.6-0.9,1.2-0.9,1.9c0,2.5-0.2,4-0.5,4.4c-0.3,0.5-0.8,2-1.4,4.4c0,1.6,0.2,3,0.5,4.2
			c0.3,1.2,0.3,2.7,0,4.2c-0.3,2.5,0.5,5.1,2.6,7.7C875.7,444.8,877,446.9,877.7,448.4z"/>
	</g>
	<g>
		<path d="M187.9,785.7c-11.1,0-17.4-2.8-19.1-8.5C160.9,751.3,157,714,157,665.4c0-30.2,0.9-56,2.7-77.2c0.2-2.6,0.9-4.9,2.1-6.9
			c2.9-5,12.8-7.5,29.5-7.5c17.2,0,25.8,4.5,25.8,13.6c0,4.5-0.7,21.1-2,49.6c-1.3,30.8-2,71.6-2,122.4c0,7.6,0,11.8-0.1,12.8
			c27.3-4,46-11.5,56.1-22.5c1.4-1.7,3.3-2.5,5.5-2.5c1.4,0,2.7,0.3,4,1c2.1,1.1,3.1,2.7,3.1,4.8c0,1-0.4,2.1-1.1,3.1
			c-6.9,8.4-18.8,15.3-35.6,20.7C225.8,782.6,206.8,785.7,187.9,785.7z"/>
		<path d="M585.8,771c-7,0-12-1.9-15-5.7c-21-24.8-41.2-58.9-60.7-102.2c-2.8-6.1-5.7-11.7-8.7-16.9c-3-5.2-5.7-10.3-7.9-15.3
			c-2.6-5.8-4-11.9-4-18.2c0-15.4,8.7-26.6,26.1-33.4c8.6-3.3,17.9-4.9,27.9-4.9c10.9,0,18,4.7,21.2,14
			c15.2,44.8,32.9,89.2,53.2,133.1c8-18.5,16.1-39.6,24.1-63.5c13.7-40.1,20.6-67.1,20.6-81.1c0-2.1,1-4,2.9-5.5
			c1.9-1.6,4.2-2.4,6.8-2.4c2.6,0,4.9,0.8,6.8,2.4c1.9,1.6,2.9,3.4,2.9,5.5c0,15.4-7.1,43.9-21.2,85.4
			c-10.5,30.6-20.7,56.3-30.5,77.1c-4.5,9.5-10.1,17.1-16.9,22.9C606.6,768.1,597.4,771,585.8,771z"/>
		<path d="M809.1,774.7c-36.5,0-65-10.4-85.4-31.2c-18.6-19.1-27.9-42.4-27.9-69.8c0-26,8-48.8,23.9-68.4
			c21.6-26.6,52.5-39.9,92.5-39.9c13.8,0,25.4,1.9,34.6,5.6c9.2,3.8,16,8.7,20.5,14.9c4.4,6.2,6.6,13,6.6,20.4c0,7.9-2.7,16-8,24.3
			c-5.3,8.3-13.1,16-23.4,23c-10.3,7.1-23,12.8-38.2,17.1c-9.6,2.9-20.2,4.9-31.8,5.9c0.3,12.9,2.3,25.2,6.1,36.8
			c4,12.4,9.7,22.5,17.3,30.3c7.6,7.8,16.8,11.7,27.6,11.7c5.1,0,10.4-0.8,15.9-2.5c5.5-1.6,11.1-4.8,16.8-9.5
			c5.7-4.7,11.8-11.4,18.1-20.1c2.5-3.4,5.4-5.1,8.7-5.1c2.6,0,5,0.7,7.1,2.2c2.1,1.5,3.2,3.4,3.2,5.9c0,1.7-0.7,3.6-2.2,5.5
			c-11.1,15.8-23,26.9-35.9,33.3C842.4,771.5,827,774.7,809.1,774.7z M772.9,662.6c8.8-0.9,16.8-2.5,23.9-4.7
			c12.8-4,23.3-9,31.4-15.1c8.2-6.1,14.1-12.7,17.9-19.7c3.8-7,5.6-13.5,5.6-19.6c0-5.7-1.7-10.4-5.2-14.1
			c-3.5-3.8-8.5-5.6-14.9-5.6c-12.4,0-22.9,3.7-31.4,11.1C784.2,608.9,775.1,631.5,772.9,662.6z"/>
	</g>
	<path class="st0" d="M565.2,507.9c-2.9-2.9-6.2-1.6-9.2-0.4c-8,3-16,6.2-24,9.4c-11.7,4.7-23.5,9.3-35.1,14.3
		c-5.3,2.3-10.4,5.3-15.5,8.2c-2.2,1.3-4.3,3.2-3.5,6.2c0.7,2.8,3.2,3.4,5.6,3.6c5.1,0.5,10.2,0.8,15.3,1.1c1.9,0.1,3.9,0.1,7.2,0.2
		c-2.4,2.4-3.9,3.9-5.4,5.4c-12.6,12.4-25.3,24.9-37.9,37.3c-8.3-7-18.7-11.3-30.8-11.2c-54.1,0.3-72.6,49.3-72.6,49.3
		c-15.4-32.4-41.2-50.5-72.8-49.3c-31.6,1.2-76.2,63.4-33,120.7c16.4,21.8,35.9,41.1,53.8,56.8c-6.6,6.6-13.2,13.1-19.7,19.7
		c-2.3,2.3-4.4,3.2-7.7,2.7c-7-1.1-14.2-1.7-21.2-2.6c-6.5-0.8-12,0.7-16.9,5.5c-22.1,21.4-44.5,42.4-66.7,63.6
		c-0.7,0.6-1.3,1.3-1.9,2c-3.9,4.9-2.3,9.3,3.8,10.2c1.3,0.2,2.5,0.3,3.8,0.3c9.3,0,18.7,0,28,0c2.4,0,4.9-0.3,7.4-0.4
		c-0.8,6.4-1.9,12.1-2.1,18c-0.2,5.8,0.1,11.7,1,17.4c1,6.5,7.4,7.9,11.8,3.3c6.9-7.3,14.5-14,22.2-20.5
		c12.2-10.2,22.8-22.1,34-33.4c4-4,7.7-8.4,11.5-12.5c3.5-3.9,5.1-8.2,4-13.6c-1.2-5.5-1.4-11.3-2.6-16.8c-1-4.5,0.6-7.4,3.7-10.5
		c7.1-7,14.2-14,21.2-21.1c22.9,18.7,40.5,29.7,40.5,29.7c39.6-27.3,76.3-56,109.6-95.1c22.1-26.1,21.5-72.3,2.6-100.1
		c14-14.2,28-28.4,42.2-42.6c0.5,3.1,0.8,5.1,1.1,7c0.6,4,0.9,8,2,11.9c1.5,5.4,6.1,6.5,10,2.5c1.5-1.5,2.8-3.4,3.9-5.3
		c7-11.6,14.2-23.1,20.7-34.9c4.7-8.5,8.6-17.4,12.6-26.2C567.3,514.4,568.1,510.9,565.2,507.9z M250,790c0.6-0.6,1.7-0.8,2.5-0.8
		c7.4-0.3,14.9-0.4,23,0.9c-3.8,5.1-8.2,8.9-12.3,12.8c-0.5,0.4-1.3,0.6-2,0.6c-7.8-0.2-15.5-0.5-24-0.8
		C241.9,798.1,245.9,794,250,790z M227.6,812.2c0.8-0.8,2.2-1.5,3.3-1.5c7.5,0.1,14.9,0.5,23,0.8c-0.8,1.2-1.2,2.1-1.9,2.7
		c-4.1,4.2-8.2,8.3-12.4,12.4c-1.1,1.1-2.7,2.4-4,2.4c-7.8-0.1-15.5-0.6-23.9-1C217,822.7,222.3,817.4,227.6,812.2z M215.9,848.8
		c-0.5,0.4-1.4,0.4-2.1,0.4c-7.3,0-14.6-0.1-23-0.1c4.1-4.1,7.3-7.4,10.7-10.6c0.7-0.6,2-0.8,3-0.8c6.9-0.1,13.9-0.2,20.8-0.2
		c0.7,0,1.3,0.2,3.3,0.6C223.8,842.1,219.9,845.5,215.9,848.8z M248.1,865.7c-6.9,6.7-13.8,13.4-20.7,20.1c-0.5-0.2-1-0.5-1.6-0.7
		c0.5-6.7,0.9-13.4,1.5-20.1c0.1-1,0.9-2,1.6-2.7c4.5-4.6,9-9,14.2-14.3c3,5.4,4.4,10.4,5.9,15.4
		C249.3,863.9,248.7,865.1,248.1,865.7z M256.6,856.4c-2.1-5.3-4.1-10.3-6.1-15.4c4.9-4.9,9.7-9.7,14.9-14.9
		c2.1,5.2,4.1,10,6.3,15.2L256.6,856.4z M289.2,822.3c-0.1,0.8-0.5,1.7-1,2.4c-0.6,0.9-1.5,1.6-2.2,2.4c-2.6,2.6-5.1,5.1-8.5,8.5
		c-1.7-5.6-3.2-10.3-4.4-15c-0.3-1.1,0.5-2.8,1.4-3.7c3.2-3.5,6.6-6.7,10-10.1C285.9,808.9,289.4,820.5,289.2,822.3z M339.4,671.2
		c0,0-11.8-34.4-37.6-61.4c-2.6-2.7-4.5-6.1-5.2-9.8c-0.8-3.8-0.3-8,4.7-9.4c10-2.8,33.7,15.6,41.7,29.4
		C351,633.7,345,660.3,339.4,671.2z M419.5,737.9c0,0,30.5-68-4.8-115.9c0,0-9.2-12.7,5.4-25.3c14.6-12.6,43.3,4.1,50.5,32
		C477.8,656.5,461.9,697.9,419.5,737.9z M525.8,567.8c-0.2-5.6-0.7-11.2-0.5-16.8c0.2-6.6-2.3-9.6-8.7-9.6c-6.7,0-13.4-0.1-20.3-0.9
		c19.5-8.3,39.1-16.6,58.9-25C554.4,521.2,533,560.7,525.8,567.8z"/>
</g>
</svg>
