<?xml version="1.0" encoding="utf-8"?>
<!-- Generator: Adobe Illustrator 22.0.0, SVG Export Plug-In . SVG Version: 6.00 Build 0)  -->
<svg version="1.1" id="Layer_1" xmlns="http://www.w3.org/2000/svg" xmlns:xlink="http://www.w3.org/1999/xlink" x="0px" y="0px"
	 viewBox="0 0 1080 1080" style="enable-background:new 0 0 1080 1080;" xml:space="preserve">
<style type="text/css">
	.st0{fill:#E43B40;}
</style>
<g>
	<g>
		<path d="M228.1,403.5h35.1v29.9h-69.3V279.7h34.2V403.5z"/>
		<path d="M375.6,356.8c0,57.9-3.4,79.2-49.7,79.2s-49.7-21.3-49.7-79.2c0-56,3.4-79.7,49.7-79.7S375.6,300.8,375.6,356.8z
			 M313.8,356.8c0,42.6,1.3,49.3,12.1,49.3c10.8,0,12.1-6.7,12.1-49.3c0-41.8-1.3-49.7-12.1-49.7C315.1,307,313.8,315,313.8,356.8z"
			/>
		<path d="M495.9,279.7l-36.6,153.7h-34.2l-36.6-153.7h36.4l17.2,103.1l17.4-103.1H495.9z"/>
		<path d="M543,340h26.5v29.9H543v33.6h37.2v29.9h-71.5V279.7h71.5v29.9H543V340z"/>
	</g>
	<g>
		<g>
			<path class="st0" d="M193.5,817.1c-14.6,0-21.4-10-20.9-30c0.5-23.2,20.5-261.9,18.2-284.2c-2.3-16.4,5.9-29.1,20.5-32.7
				c10.9-2.7,21.8-4.1,32.3-4.1c33.2,0,62.8,13.6,88.7,40c18.6,19.1,16.8,47.7,2.7,64.6c-9.6,10.5-19.1,20.5-28.7,30.9
				c-10.9,12.7,5,7.7,29.6,25.9c26.8,19.1,33.2,47.3,17.3,76.4c-11.8,21.8-28.2,38.7-45.5,55c-29.1,27.3-62.8,44.6-100,55.9
				C202.1,816.6,197.6,817.1,193.5,817.1z M217.1,766.6c2.3,0,5-0.5,8.6-2.3c37.3-15.5,66.4-42.3,89.6-76.4
				c8.6-13.2,5.9-21.8-7.7-29.1c-13.6-6.4-28.2-10-43.2-11.4c-5.5,0.9-11.4,1.8-17.3,3.2c-29.6,6.4-26.8,20.5-34.6,103.2
				C211.6,763,213,766.6,217.1,766.6z M225.3,604.7c2.3,0.5,3.6,1.4,4.5,0.9c29.6-12.7,51.4-35.9,72.3-60c2.7-3.6,3.2-7.7,0-10.5
				c-17.7-15.9-36.8-28.2-61.8-24.1C229.8,512.9,232.1,513.8,225.3,604.7z"/>
			<path class="st0" d="M408.1,643.4c2.3-11.8,11.8-17.7,21.4-17.7s18.6,5.9,19.1,17.3c1.8,33.7-5.9,12.7-16.4,101.4
				c-0.9,10.5-0.5,20.5,5.5,30.5c9.5,15.5-1.8,30.5-15.9,30.5c-16.4,0-28.7-19.6-29.1-34.6C388.1,702.5,404.5,667,408.1,643.4z
				 M416.7,563.8c1.4-5,2.3-12.7,4.5-19.6c3.2-9.6,11.4-14.1,19.1-14.1c9.1,0,17.7,5.5,19.6,16.8c1.8,10.5,3.2,21.8,3.6,32.7
				c0.5,14.1-11.8,22.7-25.5,19.1C424.9,595.6,415.8,582,416.7,563.8z"/>
			<path class="st0" d="M481.3,570.6c22.7-3.6,32.7,5,37.3-15.9c2.7-10.5,9.5-36.8,9.5-48.2c0-18.2,10.5-26.4,20.5-26.4
				c11.4,0,22.7,10,20.9,28.6c-2.3,26.4-15.9,56.8-4.5,57.8c4.1,0.5,10.5,0.9,14.6,1.8c20.5,3.6,17.7,35.9-5.9,38.2
				c-35,3.2-26.8,2.7-33.7,27.3c-10,38.7-15.9,86.4-11.8,113.7c1.4,8.2,4.5,10.9,8.6,10.9c9.6,0,23.6-13.2,35.9-13.2
				c5,0,10,2.3,14.1,9.1c12.3,19.6-19.6,43.2-50,43.2c-18.2,0-35.9-8.6-44.1-30.9c-5-15-10.5-48.7,0.9-102.8
				c14.1-67.3,12.3-46.4-13.6-53.2C457.2,604.7,458.6,574.7,481.3,570.6z"/>
			<path class="st0" d="M648.2,786.2c-26.4,0-52.3-17.7-50-65.5c5-32.3,13.2-74.6,45.9-106.9c10.9-10.9,23.6-15.9,36.8-15.9
				c6.4,0,13.2,0.9,20,3.2c19.1,5.9,27.3,20,23.2,39.1c-6.4,29.6-19.1,45.5-38.2,68.7c-15,17.7-28.7,16.8-37.7,16.4
				c-5.9-0.5-10,9.1-10.5,13.6c-0.9,5.9,4.5,8.2,10.9,8.2c18.6,0,50-26.4,62.3-38.2c4.5-4.1,9.1-8.6,15.5-10.9
				c2.7-0.9,5-1.4,7.7-1.4c17.3,0,26.4,22.7,7.7,38.7C719.1,754.3,679.6,786.2,648.2,786.2z M653.2,687.9c2.3,0,4.5-0.9,6.4-3.6
				c9.1-14.1,18.6-27.7,21.4-44.1c-5-3.2-8.2,0-10.5,2.3c-10,10.5-16.8,22.7-21.8,35.9C646.4,684.8,649.6,687.9,653.2,687.9z"/>
			<path class="st0" d="M835.1,599.3c7.7-4.5,15.9-8.2,25-9.5c12.7-1.8,23.2,3.6,27.7,13.6c8.6,17.3-5,44.1-25.9,36.8
				c-4.1-1.4-8.2-3.2-12.3-0.5c-17.7,12.3-35.5,24.1-47.3,45.5c50.9,4.5,56.8,2.7,79.1,15c71.4,38.7-21.8,129.2-69.6,119.1
				c-17.3-3.6-25.9-23.6-14.1-36.8c12.3-14.1,28.2-25,45.5-33.7c8.2-4.1,18.2,4.1,21.8-4.1c5-10.9-17.7-16.4-30.5-16.8
				c-25-1.4-41.8,1.8-61.4-5C714.6,702.9,787.3,627.9,835.1,599.3z"/>
		</g>
	</g>
	<g>
		<path d="M867.4,378.6c-8.3,3.9-13.8,10.1-16.3,18.8c-19.4,0.3-34.4,18.9-25.8,39.8c-3.4,4.2-7.3,7.7-9.7,12
			c-6.3,11.2-3.6,24.8,6.1,33.4c1.4,1.3,1.9,2.2,1.4,4.2c-4.4,16.4,5.1,31.4,21.9,34.6c0.5,0.1,0.9,0.2,1.7,0.3
			c-2.9,13.2,0.8,24,12.1,32c-6.5,8.7-13.8,16.1-22.4,22.2c-10,7.1-20.9,12.2-33.1,14.3c-7.6,1.3-15,0.7-21.9-2.7
			c-6.8-3.3-13.7-6.7-20.1-10.8c-9.3-6-18-6.2-27.2,0.1c-4.5,3.1-9.5,5.5-14.2,8.2c-13.2,7.6-26.8,7.2-40.6,1.9
			c-22.9-8.9-39.2-25.2-51.2-46.1c-11.5-19.9-17.4-41.6-20.6-64.2c-2.7-18.7-3.3-37.5,0.7-56.1c7.3-33.9,27-57.9,59.2-70.7
			c15.2-6.1,31-5.7,46.3,0.8c2.4,1,4.6,2.5,6.7,4c15.8,10.8,37.3,11.6,52.9,1c16.7-11.3,34.5-12.2,52.9-6.5
			c16.4,5,29.4,15.4,40.6,28.1C866.8,377.5,867,377.9,867.4,378.6z"/>
		<path d="M685.1,281c5,5.6,9.9,11.3,14.9,16.9c-0.2,0.4-0.5,0.9-0.7,1.3c-5.9-2-11.9-3.7-17.5-6.2c-8.3-3.7-16.2-8-24.3-12
			c-1-0.5-2.1-0.8-3.3-0.8c7.7,4.4,15.4,8.8,23.1,13.1c-0.1,0.2-0.2,0.5-0.3,0.7c-15.6-2.2-31.3-4.5-46.9-6.7c0,0.3-0.1,0.6-0.1,0.8
			c7.5,1.3,15,2.7,22.6,4c0,0.2,0,0.3,0,0.5c-3.6,0.4-7.3,0.8-10.9,1.2c12.3-1.1,24.4,0.2,37,3.8c-5,0.6-9.3,1.2-13.6,1.7
			c12.9,0.2,25.9-1.2,38.1,4.3c-8.2,1.1-16.4,2.2-24.6,3.2c0,0.3,0,0.6,0,1c19.6-2.6,38.9-4,54.8,10c-9.3-0.4-19-0.8-28.8-1.2
			c0,0.2,0,0.4,0,0.6c7.7,1.1,15.4,1.7,23,3.3c7.6,1.6,15.5,3,20.4,10.8c-19.2-4.4-38.4-4.2-57.4-6.1c-29.5-3-56.4-13.1-80.8-29.9
			c-6.2-4.2-12-9-17.6-13.9c-2.1-1.8-3.4-4.7-5.5-7.6c15.9,1.4,29.8-3.4,43.7-7.7c19.5-5.9,39.2-8.5,59.1-3.8
			c8.5,2,16.8,5.2,24.7,8.9c17.5,8.4,26.5,23.9,32.9,41.3c1.5,4.1,2.8,8.3,4.1,12.3c-15.4-9.7-25.7-24.1-36.9-37.7
			c2.1,3.4,4.1,6.8,6.2,10.2c2.2,3.5,4.5,6.9,6.9,10.7c-7.2-2.6-13.9-5-20.6-7.6c-1-0.4-1.7-1.6-2.6-2.4c-6.1-6-12.2-12-18.2-18
			C685.7,280.4,685.4,280.7,685.1,281z"/>
		<path d="M742.4,358.8c1.8-8,5-14.7,9.1-21c3.8-5.9,8-11.5,11.9-17.3c3.7-5.5,7.4-11.1,7.6-18.1c0-1,1.5-2.4,2.6-2.9
			c5.2-2.4,14.3,1.5,16.2,6.9c0.9,2.5,0.7,4.2-2.7,5.3c-3.5,1.1-7.2,3-9.6,5.7c-10.3,11.4-20,23.3-22.6,39.2
			c-0.1,0.9-1.4,2.1-2.2,2.2C749.6,358.9,746.3,358.8,742.4,358.8z M789,309.1c0-4-3.9-8-9.2-9.3c-2.5-0.6-5.5-0.9-6.5,1.7
			c-0.3,0.9,2.6,3.9,4.6,4.7C781.3,307.6,785.1,308.1,789,309.1z"/>
		<path d="M744,586.7c-0.2-1.7-0.3-2.9-0.5-4.1c-2.8,1.9-5.4,3.7-7.7,5.3c1.3-2.9,2.6-5.8,3.9-8.6c0.3-0.7,1-1.6,1.6-1.7
			c3.6-0.3,7.4-1,10.8-0.2c1.8,0.4,3,3.7,4.4,5.6c-0.3,0.3-0.5,0.5-0.8,0.8c-1.7-1.3-3.5-2.5-6.2-4.5c0.9,4,1.6,7.1,2.4,11
			c-2-2.5-3.7-4.6-5.6-6.9C745.7,584.2,745,585.3,744,586.7z"/>
	</g>
</g>
</svg>
