  0
SECTION
  2
HEADER
  9
$ACADVER
  1
AC1024
  9
$ACADMAINTVER
 70
     6
  9
$DWGCODEPAGE
  3
ANSI_1252
  9
$INSBASE
 10
0.0
 20
0.0
 30
0.0
  9
$EXTMIN
 10
1.000000000000000E+20
 20
1.000000000000000E+20
 30
1.000000000000000E+20
  9
$EXTMAX
 10
-1.000000000000000E+20
 20
-1.000000000000000E+20
 30
-1.000000000000000E+20
  9
$LIMMIN
 10
0.0
 20
0.0
  9
$LIMMAX
 10
12.0
 20
9.0
  9
$ORTHOMODE
 70
     0
  9
$REGENMODE
 70
     1
  9
$FILLMODE
 70
     1
  9
$QTEXTMODE
 70
     0
  9
$MIRRTEXT
 70
     1
  9
$LTSCALE
 40
1.0
  9
$ATTMODE
 70
     1
  9
$TEXTSIZE
 40
0.2
  9
$TRACEWID
 40
0.05
  9
$TEXTSTYLE
  7
Standard
  9
$CLAYER
  8
0
  9
$CELTYPE
  6
ByLayer
  9
$CECOLOR
 62
   256
  9
$CELTSCALE
 40
1.0
  9
$DISPSILH
 70
     0
  9
$DIMSCALE
 40
1.0
  9
$DIMASZ
 40
0.18
  9
$DIMEXO
 40
0.0625
  9
$DIMDLI
 40
0.38
  9
$DIMRND
 40
0.0
  9
$DIMDLE
 40
0.0
  9
$DIMEXE
 40
0.18
  9
$DIMTP
 40
0.0
  9
$DIMTM
 40
0.0
  9
$DIMTXT
 40
0.18
  9
$DIMCEN
 40
0.09
  9
$DIMTSZ
 40
0.0
  9
$DIMTOL
 70
     0
  9
$DIMLIM
 70
     0
  9
$DIMTIH
 70
     1
  9
$DIMTOH
 70
     1
  9
$DIMSE1
 70
     0
  9
$DIMSE2
 70
     0
  9
$DIMTAD
 70
     0
  9
$DIMZIN
 70
     0
  9
$DIMBLK
  1

  9
$DIMASO
 70
     1
  9
$DIMSHO
 70
     1
  9
$DIMPOST
  1

  9
$DIMAPOST
  1

  9
$DIMALT
 70
     0
  9
$DIMALTD
 70
     2
  9
$DIMALTF
 40
25.4
  9
$DIMLFAC
 40
1.0
  9
$DIMTOFL
 70
     0
  9
$DIMTVP
 40
0.0
  9
$DIMTIX
 70
     0
  9
$DIMSOXD
 70
     0
  9
$DIMSAH
 70
     0
  9
$DIMBLK1
  1

  9
$DIMBLK2
  1

  9
$DIMSTYLE
  2
Standard
  9
$DIMCLRD
 70
     0
  9
$DIMCLRE
 70
     0
  9
$DIMCLRT
 70
     0
  9
$DIMTFAC
 40
1.0
  9
$DIMGAP
 40
0.09
  9
$DIMJUST
 70
     0
  9
$DIMSD1
 70
     0
  9
$DIMSD2
 70
     0
  9
$DIMTOLJ
 70
     1
  9
$DIMTZIN
 70
     0
  9
$DIMALTZ
 70
     0
  9
$DIMALTTZ
 70
     0
  9
$DIMUPT
 70
     0
  9
$DIMDEC
 70
     4
  9
$DIMTDEC
 70
     4
  9
$DIMALTU
 70
     2
  9
$DIMALTTD
 70
     2
  9
$DIMTXSTY
  7
Standard
  9
$DIMAUNIT
 70
     0
  9
$DIMADEC
 70
     0
  9
$DIMALTRND
 40
0.0
  9
$DIMAZIN
 70
     0
  9
$DIMDSEP
 70
    46
  9
$DIMATFIT
 70
     3
  9
$DIMFRAC
 70
     0
  9
$DIMLDRBLK
  1

  9
$DIMLUNIT
 70
     2
  9
$DIMLWD
 70
    -2
  9
$DIMLWE
 70
    -2
  9
$DIMTMOVE
 70
     0
  9
$DIMFXL
 40
1.0
  9
$DIMFXLON
 70
     0
  9
$DIMJOGANG
 40
0.7853981633974483
  9
$DIMTFILL
 70
     0
  9
$DIMTFILLCLR
 70
     0
  9
$DIMARCSYM
 70
     0
  9
$DIMLTYPE
  6

  9
$DIMLTEX1
  6

  9
$DIMLTEX2
  6

  9
$DIMTXTDIRECTION
 70
     0
  9
$LUNITS
 70
     2
  9
$LUPREC
 70
     4
  9
$SKETCHINC
 40
0.1
  9
$FILLETRAD
 40
0.5
  9
$AUNITS
 70
     0
  9
$AUPREC
 70
     0
  9
$MENU
  1
.
  9
$ELEVATION
 40
0.0
  9
$PELEVATION
 40
0.0
  9
$THICKNESS
 40
0.0
  9
$LIMCHECK
 70
     0
  9
$CHAMFERA
 40
0.5
  9
$CHAMFERB
 40
0.5
  9
$CHAMFERC
 40
1.0
  9
$CHAMFERD
 40
0.0
  9
$SKPOLY
 70
     0
  9
$TDCREATE
 40
2459564.024470799
  9
$TDUCREATE
 40
2459563.774470799
  9
$TDUPDATE
 40
2459564.024470845
  9
$TDUUPDATE
 40
2459563.774470845
  9
$TDINDWG
 40
0.0000000116
  9
$TDUSRTIMER
 40
0.0000000116
  9
$USRTIMER
 70
     1
  9
$ANGBASE
 50
0.0
  9
$ANGDIR
 70
     0
  9
$PDMODE
 70
     0
  9
$PDSIZE
 40
0.0
  9
$PLINEWID
 40
0.0
  9
$SPLFRAME
 70
     0
  9
$SPLINETYPE
 70
     6
  9
$SPLINESEGS
 70
     8
  9
$HANDSEED
  5
6A
  9
$SURFTAB1
 70
     6
  9
$SURFTAB2
 70
     6
  9
$SURFTYPE
 70
     6
  9
$SURFU
 70
     6
  9
$SURFV
 70
     6
  9
$UCSBASE
  2

  9
$UCSNAME
  2

  9
$UCSORG
 10
0.0
 20
0.0
 30
0.0
  9
$UCSXDIR
 10
1.0
 20
0.0
 30
0.0
  9
$UCSYDIR
 10
0.0
 20
1.0
 30
0.0
  9
$UCSORTHOREF
  2

  9
$UCSORTHOVIEW
 70
     0
  9
$UCSORGTOP
 10
0.0
 20
0.0
 30
0.0
  9
$UCSORGBOTTOM
 10
0.0
 20
0.0
 30
0.0
  9
$UCSORGLEFT
 10
0.0
 20
0.0
 30
0.0
  9
$UCSORGRIGHT
 10
0.0
 20
0.0
 30
0.0
  9
$UCSORGFRONT
 10
0.0
 20
0.0
 30
0.0
  9
$UCSORGBACK
 10
0.0
 20
0.0
 30
0.0
  9
$PUCSBASE
  2

  9
$PUCSNAME
  2

  9
$PUCSORG
 10
0.0
 20
0.0
 30
0.0
  9
$PUCSXDIR
 10
1.0
 20
0.0
 30
0.0
  9
$PUCSYDIR
 10
0.0
 20
1.0
 30
0.0
  9
$PUCSORTHOREF
  2

  9
$PUCSORTHOVIEW
 70
     0
  9
$PUCSORGTOP
 10
0.0
 20
0.0
 30
0.0
  9
$PUCSORGBOTTOM
 10
0.0
 20
0.0
 30
0.0
  9
$PUCSORGLEFT
 10
0.0
 20
0.0
 30
0.0
  9
$PUCSORGRIGHT
 10
0.0
 20
0.0
 30
0.0
  9
$PUCSORGFRONT
 10
0.0
 20
0.0
 30
0.0
  9
$PUCSORGBACK
 10
0.0
 20
0.0
 30
0.0
  9
$USERI1
 70
     0
  9
$USERI2
 70
     0
  9
$USERI3
 70
     0
  9
$USERI4
 70
     0
  9
$USERI5
 70
     0
  9
$USERR1
 40
0.0
  9
$USERR2
 40
0.0
  9
$USERR3
 40
0.0
  9
$USERR4
 40
0.0
  9
$USERR5
 40
0.0
  9
$WORLDVIEW
 70
     1
  9
$SHADEDGE
 70
     3
  9
$SHADEDIF
 70
    70
  9
$TILEMODE
 70
     1
  9
$MAXACTVP
 70
    64
  9
$PINSBASE
 10
0.0
 20
0.0
 30
0.0
  9
$PLIMCHECK
 70
     0
  9
$PEXTMIN
 10
1.000000000000000E+20
 20
1.000000000000000E+20
 30
1.000000000000000E+20
  9
$PEXTMAX
 10
-1.000000000000000E+20
 20
-1.000000000000000E+20
 30
-1.000000000000000E+20
  9
$PLIMMIN
 10
0.0
 20
0.0
  9
$PLIMMAX
 10
12.0
 20
9.0
  9
$UNITMODE
 70
     0
  9
$VISRETAIN
 70
     1
  9
$PLINEGEN
 70
     0
  9
$PSLTSCALE
 70
     1
  9
$TREEDEPTH
 70
  3020
  9
$CMLSTYLE
  2
Standard
  9
$CMLJUST
 70
     0
  9
$CMLSCALE
 40
1.0
  9
$PROXYGRAPHICS
 70
     1
  9
$MEASUREMENT
 70
     0
  9
$CELWEIGHT
370
    -1
  9
$ENDCAPS
280
     0
  9
$JOINSTYLE
280
     0
  9
$LWDISPLAY
290
     1
  9
$INSUNITS
 70
     1
  9
$HYPERLINKBASE
  1

  9
$STYLESHEET
  1

  9
$XEDIT
290
     1
  9
$CEPSNTYPE
380
     0
  9
$PSTYLEMODE
290
     1
  9
$FINGERPRINTGUID
  2
{93BD0A4B-169A-48E0-B869-97ACCAB29351}
  9
$VERSIONGUID
  2
{FAEB1C32-E019-11D5-929B-00C0DF256EC4}
  9
$EXTNAMES
290
     1
  9
$PSVPSCALE
 40
0.0
  9
$OLESTARTUP
290
     0
  9
$SORTENTS
280
   127
  9
$INDEXCTL
280
     0
  9
$HIDETEXT
280
     1
  9
$XCLIPFRAME
280
     2
  9
$HALOGAP
280
     0
  9
$OBSCOLOR
 70
   257
  9
$OBSLTYPE
280
     0
  9
$INTERSECTIONDISPLAY
280
     0
  9
$INTERSECTIONCOLOR
 70
   257
  9
$DIMASSOC
280
     2
  9
$PROJECTNAME
  1

  9
$CAMERADISPLAY
290
     0
  9
$LENSLENGTH
 40
50.0
  9
$CAMERAHEIGHT
 40
0.0
  9
$STEPSPERSEC
 40
2.0
  9
$STEPSIZE
 40
6.0
  9
$3DDWFPREC
 40
2.0
  9
$PSOLWIDTH
 40
0.25
  9
$PSOLHEIGHT
 40
4.0
  9
$LOFTANG1
 40
1.570796326794897
  9
$LOFTANG2
 40
1.570796326794897
  9
$LOFTMAG1
 40
0.0
  9
$LOFTMAG2
 40
0.0
  9
$LOFTPARAM
 70
     7
  9
$LOFTNORMALS
280
     1
  9
$LATITUDE
 40
37.795
  9
$LONGITUDE
 40
-122.394
  9
$NORTHDIRECTION
 40
0.0
  9
$TIMEZONE
 70
 -8000
  9
$LIGHTGLYPHDISPLAY
280
     1
  9
$TILEMODELIGHTSYNCH
280
     1
  9
$CMATERIAL
347
3C
  9
$SOLIDHIST
280
     1
  9
$SHOWHIST
280
     1
  9
$DWFFRAME
280
     2
  9
$DGNFRAME
280
     2
  9
$REALWORLDSCALE
290
     1
  9
$INTERFERECOLOR
 62
   256
  9
$CSHADOW
280
     0
  9
$SHADOWPLANELOCATION
 40
0.0
  0
ENDSEC
  0
SECTION
  2
CLASSES
  0
CLASS
  1
ACDBDICTIONARYWDFLT
  2
AcDbDictionaryWithDefault
  3
ObjectDBX Classes
 90
        0
 91
        4
280
     0
281
     0
  0
CLASS
  1
VISUALSTYLE
  2
AcDbVisualStyle
  3
ObjectDBX Classes
 90
     4095
 91
        4
280
     0
281
     0
  0
CLASS
  1
MATERIAL
  2
AcDbMaterial
  3
ObjectDBX Classes
 90
     1153
 91
        4
280
     0
281
     0
  0
CLASS
  1
SUN
  2
AcDbSun
  3
SCENEOE
 90
     1024
 91
        4
280
     0
281
     0
  0
ENDSEC
  0
SECTION
  2
TABLES
  0
TABLE
  2
VPORT
  5
8
330
0
100
AcDbSymbolTable
 70
     1
  0
VPORT
  5
29
330
8
100
AcDbSymbolTableRecord
100
AcDbViewportTableRecord
  2
*Active
 70
     0
 10
0.0
 20
0.0
 11
1.0
 21
1.0
 12
0.0
 22
0.0
 13
0.0
 23
0.0
 14
0.5
 24
0.5
 15
0.5
 25
0.5
 16
0.0
 26
0.0
 36
1.0
 17
540.0
 27
-540.0
 37
0.0
 40
1080.0
 41
1.0
 42
50.0
 43
0.0
 44
0.0
 50
0.0
 51
0.0
 71
     0
 72
   100
 73
     1
 74
     3
 75
     0
 76
     0
 77
     0
 78
     0
281
     0
 65
     1
110
0.0
120
0.0
130
0.0
111
1.0
121
0.0
131
0.0
112
0.0
122
1.0
132
0.0
 79
     0
146
0.0
 60
     3
 61
     5
292
     1
282
     1
141
0.0
142
0.0
 63
   250
361
3F
  0
ENDTAB
  0
TABLE
  2
LTYPE
  5
5
330
0
100
AcDbSymbolTable
 70
     1
  0
LTYPE
  5
14
330
5
100
AcDbSymbolTableRecord
100
AcDbLinetypeTableRecord
  2
ByBlock
 70
     0
  3

 72
    65
 73
     0
 40
0.0
  0
LTYPE
  5
15
330
5
100
AcDbSymbolTableRecord
100
AcDbLinetypeTableRecord
  2
ByLayer
 70
     0
  3

 72
    65
 73
     0
 40
0.0
  0
LTYPE
  5
16
330
5
100
AcDbSymbolTableRecord
100
AcDbLinetypeTableRecord
  2
Continuous
 70
     0
  3
Solid line
 72
    65
 73
     0
 40
0.0
  0
ENDTAB
  0
TABLE
  2
LAYER
  5
2
330
0
100
AcDbSymbolTable
 70
     2
  0
LAYER
  5
10
330
2
100
AcDbSymbolTableRecord
100
AcDbLayerTableRecord
  2
0
 70
     0
 62
     7
  6
Continuous
370
    -3
390
F
347
3E
  0
LAYER
  5
40
330
2
100
AcDbSymbolTableRecord
100
AcDbLayerTableRecord
  2
Layer 1
 70
     0
 62
     7
  6
Continuous
370
    -3
390
F
347
3E
  0
ENDTAB
  0
TABLE
  2
STYLE
  5
3
330
0
100
AcDbSymbolTable
 70
     1
  0
STYLE
  5
11
330
3
100
AcDbSymbolTableRecord
100
AcDbTextStyleTableRecord
  2
Standard
 70
     0
 40
0.0
 41
1.0
 50
0.0
 71
     0
 42
0.2
  3
txt
  4

  0
ENDTAB
  0
TABLE
  2
VIEW
  5
6
330
0
100
AcDbSymbolTable
 70
     0
  0
ENDTAB
  0
TABLE
  2
UCS
  5
7
330
0
100
AcDbSymbolTable
 70
     0
  0
ENDTAB
  0
TABLE
  2
APPID
  5
9
330
0
100
AcDbSymbolTable
 70
     1
  0
APPID
  5
12
330
9
100
AcDbSymbolTableRecord
100
AcDbRegAppTableRecord
  2
ACAD
 70
     0
  0
ENDTAB
  0
TABLE
  2
DIMSTYLE
  5
A
330
0
100
AcDbSymbolTable
 70
     1
100
AcDbDimStyleTable
  0
DIMSTYLE
105
27
330
A
100
AcDbSymbolTableRecord
100
AcDbDimStyleTableRecord
  2
Standard
 70
     0
178
     0
340
11
  0
ENDTAB
  0
TABLE
  2
BLOCK_RECORD
  5
1
330
0
100
AcDbSymbolTable
 70
     4
  0
BLOCK_RECORD
  5
1F
330
1
100
AcDbSymbolTableRecord
100
AcDbBlockTableRecord
  2
*Model_Space
340
22
 70
     0
280
     1
281
     0
  0
BLOCK_RECORD
  5
1B
330
1
100
AcDbSymbolTableRecord
100
AcDbBlockTableRecord
  2
*Paper_Space
340
1E
 70
     0
280
     1
281
     0
  0
BLOCK_RECORD
  5
23
330
1
100
AcDbSymbolTableRecord
100
AcDbBlockTableRecord
  2
*Paper_Space0
340
26
 70
     0
280
     1
281
     0
  0
BLOCK_RECORD
  5
41
330
1
100
AcDbSymbolTableRecord
100
AcDbBlockTableRecord
  2
block 2
340
0
102
{BLKREFS
331
42
102
}
 70
     0
280
     1
281
     0
  0
BLOCK_RECORD
  5
49
330
1
100
AcDbSymbolTableRecord
100
AcDbBlockTableRecord
  2
block 3
340
0
102
{BLKREFS
331
4A
102
}
 70
     0
280
     1
281
     0
  0
BLOCK_RECORD
  5
58
330
1
100
AcDbSymbolTableRecord
100
AcDbBlockTableRecord
  2
block 4
340
0
102
{BLKREFS
331
59
102
}
 70
     0
280
     1
281
     0
  0
ENDTAB
  0
ENDSEC
  0
SECTION
  2
BLOCKS
  0
BLOCK
  5
20
330
1F
100
AcDbEntity
  8
0
100
AcDbBlockBegin
  2
*Model_Space
 70
     0
 10
0.0
 20
0.0
 30
0.0
  3
*Model_Space
  1

  0
ENDBLK
  5
21
330
1F
100
AcDbEntity
  8
0
100
AcDbBlockEnd
  0
BLOCK
  5
1C
330
1B
100
AcDbEntity
 67
     1
  8
0
100
AcDbBlockBegin
  2
*Paper_Space
 70
     0
 10
0.0
 20
0.0
 30
0.0
  3
*Paper_Space
  1

  0
ENDBLK
  5
1D
330
1B
100
AcDbEntity
 67
     1
  8
0
100
AcDbBlockEnd
  0
BLOCK
  5
24
330
23
100
AcDbEntity
  8
0
100
AcDbBlockBegin
  2
*Paper_Space0
 70
     0
 10
0.0
 20
0.0
 30
0.0
  3
*Paper_Space0
  1

  0
ENDBLK
  5
25
330
23
100
AcDbEntity
  8
0
100
AcDbBlockEnd
  0
BLOCK
  5
43
330
41
100
AcDbEntity
  8
0
100
AcDbBlockBegin
  2
block 2
 70
     0
 10
0.0
 20
0.0
 30
0.0
  3
block 2
  1

  0
SPLINE
  5
45
330
41
100
AcDbEntity
  8
Layer 1
370
     0
100
AcDbSpline
210
0.0
220
0.0
230
1.0
 70
    11
 71
     3
 72
    23
 73
    19
 74
     0
 42
0.0000000001
 43
0.0000000001
 12
1.0
 22
0.0
 32
0.0
 13
1.0
 23
0.0
 33
0.0
 40
0.0
 40
0.0
 40
0.0
 40
0.0
 40
1.0
 40
1.0
 40
1.0
 40
2.0
 40
2.0
 40
2.0
 40
3.0
 40
3.0
 40
3.0
 40
4.0
 40
4.0
 40
4.0
 40
5.0
 40
5.0
 40
5.0
 40
6.0
 40
6.0
 40
6.0
 40
6.0
 10
481.3487816755478
 20
-475.4351586426083
 30
0.0
 10
492.4649327352072
 20
-453.7352920015974
 30
0.0
 10
504.2884878356381
 20
-401.3428086965605
 30
0.0
 10
488.5429024329933
 20
-374.2147554189169
 30
0.0
 10
472.7971188779647
 20
-347.0932411702115
 30
0.0
 10
425.8266794853971
 20
-310.7063192066043
 30
0.0
 10
406.1134887302942
 20
-316.1862236176485
 30
0.0
 10
396.2571905813356
 20
-318.9264730517525
 30
0.0
 10
395.2963496307257
 20
-327.2181599105525
 30
0.0
 10
396.8027041175301
 20
-334.8214653582427
 30
0.0
 10
398.2440646196428
 20
-342.1132752451294
 30
0.0
 10
401.8932390775662
 20
-348.8205355745149
 30
0.0
 10
407.0422289933404
 20
-354.1835300740559
 30
0.0
 10
458.0969854974737
 20
-407.4203407229897
 30
0.0
 10
481.3487816755478
 20
-475.4351586426083
 30
0.0
 10
481.3487816755478
 20
-475.4351586426083
 30
0.0
 10
481.3487816755478
 20
-475.4351586426083
 30
0.0
 10
481.3487816755478
 20
-475.4351586426083
 30
0.0
 10
481.3487816755478
 20
-475.4351586426083
 30
0.0
  0
SPLINE
  5
46
330
41
100
AcDbEntity
  8
Layer 1
370
     0
100
AcDbSpline
210
0.0
220
0.0
230
1.0
 70
    11
 71
     3
 72
    20
 73
    16
 74
     0
 42
0.0000000001
 43
0.0000000001
 12
1.0
 22
0.0
 32
0.0
 13
1.0
 23
0.0
 33
0.0
 40
0.0
 40
0.0
 40
0.0
 40
0.0
 40
1.0
 40
1.0
 40
1.0
 40
2.0
 40
2.0
 40
2.0
 40
3.0
 40
3.0
 40
3.0
 40
4.0
 40
4.0
 40
4.0
 40
5.0
 40
5.0
 40
5.0
 40
5.0
 10
639.7726101386852
 20
-607.1080178307748
 30
0.0
 10
723.3966846149815
 20
-528.1393356608487
 30
0.0
 10
754.9726646441995
 20
-446.3267703556003
 30
0.0
 10
740.6878586781277
 20
-391.2851877169442
 30
0.0
 10
726.396711835494
 20
-336.2370660493498
 30
0.0
 10
669.5889969236268
 20
-303.2522225103776
 30
0.0
 10
640.8313383711175
 20
-328.1465038688066
 30
0.0
 10
612.0734816662098
 20
-353.0409833796466
 30
0.0
 10
630.2474246373695
 20
-378.0521746495824
 30
0.0
 10
630.2474246373695
 20
-378.0521746495824
 30
0.0
 10
700.1125895969617
 20
-472.792400185549
 30
0.0
 10
639.7726101386852
 20
-607.1080178307748
 30
0.0
 10
639.7726101386852
 20
-607.1080178307748
 30
0.0
 10
639.7726101386852
 20
-607.1080178307748
 30
0.0
 10
639.7726101386852
 20
-607.1080178307748
 30
0.0
 10
639.7726101386852
 20
-607.1080178307748
 30
0.0
  0
SPLINE
  5
47
330
41
100
AcDbEntity
  8
Layer 1
370
     0
100
AcDbSpline
210
0.0
220
0.0
230
1.0
 70
    11
 71
     3
 72
    26
 73
    22
 74
     0
 42
0.0000000001
 43
0.0000000001
 12
1.0
 22
0.0
 32
0.0
 13
1.0
 23
0.0
 33
0.0
 40
0.0
 40
0.0
 40
0.0
 40
0.0
 40
1.0
 40
1.0
 40
1.0
 40
2.0
 40
2.0
 40
2.0
 40
3.0
 40
3.0
 40
3.0
 40
4.0
 40
4.0
 40
4.0
 40
5.0
 40
5.0
 40
5.0
 40
6.0
 40
6.0
 40
6.0
 40
7.0
 40
7.0
 40
7.0
 40
7.0
 10
520.6964966859769
 20
-396.3107286922777
 30
0.0
 10
520.6964966859769
 20
-396.3107286922777
 30
0.0
 10
557.2136047713684
 20
-299.4601801775561
 30
0.0
 10
664.1215761133062
 20
-298.9277446992519
 30
0.0
 10
771.0297456076423
 20
-298.4018482498968
 30
0.0
 10
806.4887199177756
 20
-465.37733951061
 30
0.0
 10
740.8568826688152
 20
-542.6510261161893
 30
0.0
 10
675.2379253253657
 20
-619.9185699976078
 30
0.0
 10
602.7300019087179
 20
-676.6093749979736
 30
0.0
 10
524.3977852230782
 20
-730.5666677455702
 30
0.0
 10
524.3977852230782
 20
-730.5666677455702
 30
0.0
 10
396.8480810153897
 20
-650.6179238429722
 30
0.0
 10
311.6397781620644
 20
-537.3593664779028
 30
0.0
 10
226.4312771563509
 20
-424.1010072652307
 30
0.0
 10
314.4642423629284
 20
-301.3107253699118
 30
0.0
 10
376.914346647578
 20
-298.9277446992519
 30
0.0
 10
439.3644509322257
 20
-296.544764028592
 30
0.0
 10
490.1729040126411
 20
-332.3604126449854
 30
0.0
 10
520.6964966859769
 20
-396.3107286922777
 30
0.0
 10
520.6964966859769
 20
-396.3107286922777
 30
0.0
 10
520.6964966859769
 20
-396.3107286922777
 30
0.0
 10
520.6964966859769
 20
-396.3107286922777
 30
0.0
  0
HATCH
  5
48
330
41
100
AcDbEntity
  8
Layer 1
 62
   241
420
 16733095
100
AcDbHatch
 10
0.0
 20
0.0
 30
0.0
210
0.0
220
0.0
230
1.0
  2
SOLID
 70
     1
 71
     0
 91
        3
 92
        1
 93
        1
 72
     4
 94
        3
 73
     0
 74
     1
 95
       23
 96
       19
 40
0.0
 40
0.0
 40
0.0
 40
0.0
 40
1.0
 40
1.0
 40
1.0
 40
2.0
 40
2.0
 40
2.0
 40
3.0
 40
3.0
 40
3.0
 40
4.0
 40
4.0
 40
4.0
 40
5.0
 40
5.0
 40
5.0
 40
6.0
 40
6.0
 40
6.0
 40
6.0
 10
481.3487816755478
 20
-475.4351586426083
 10
492.4649327352072
 20
-453.7352920015974
 10
504.2884878356381
 20
-401.3428086965605
 10
488.5429024329933
 20
-374.2147554189169
 10
472.7971188779647
 20
-347.0932411702115
 10
425.8266794853971
 20
-310.7063192066043
 10
406.1134887302942
 20
-316.1862236176485
 10
396.2571905813356
 20
-318.9264730517525
 10
395.2963496307257
 20
-327.2181599105525
 10
396.8027041175301
 20
-334.8214653582427
 10
398.2440646196428
 20
-342.1132752451294
 10
401.8932390775662
 20
-348.8205355745149
 10
407.0422289933404
 20
-354.1835300740559
 10
458.0969854974737
 20
-407.4203407229897
 10
481.3487816755478
 20
-475.4351586426083
 10
481.3487816755478
 20
-475.4351586426083
 10
481.3487816755478
 20
-475.4351586426083
 10
481.3487816755478
 20
-475.4351586426083
 10
481.3487816755478
 20
-475.4351586426083
 97
        0
 97
        0
 92
        1
 93
        1
 72
     4
 94
        3
 73
     0
 74
     1
 95
       20
 96
       16
 40
0.0
 40
0.0
 40
0.0
 40
0.0
 40
1.0
 40
1.0
 40
1.0
 40
2.0
 40
2.0
 40
2.0
 40
3.0
 40
3.0
 40
3.0
 40
4.0
 40
4.0
 40
4.0
 40
5.0
 40
5.0
 40
5.0
 40
5.0
 10
639.7726101386852
 20
-607.1080178307748
 10
723.3966846149815
 20
-528.1393356608487
 10
754.9726646441995
 20
-446.3267703556003
 10
740.6878586781277
 20
-391.2851877169442
 10
726.396711835494
 20
-336.2370660493498
 10
669.5889969236268
 20
-303.2522225103776
 10
640.8313383711175
 20
-328.1465038688066
 10
612.0734816662098
 20
-353.0409833796466
 10
630.2474246373695
 20
-378.0521746495824
 10
630.2474246373695
 20
-378.0521746495824
 10
700.1125895969617
 20
-472.792400185549
 10
639.7726101386852
 20
-607.1080178307748
 10
639.7726101386852
 20
-607.1080178307748
 10
639.7726101386852
 20
-607.1080178307748
 10
639.7726101386852
 20
-607.1080178307748
 10
639.7726101386852
 20
-607.1080178307748
 97
        0
 97
        0
 92
        1
 93
        1
 72
     4
 94
        3
 73
     0
 74
     1
 95
       26
 96
       22
 40
0.0
 40
0.0
 40
0.0
 40
0.0
 40
1.0
 40
1.0
 40
1.0
 40
2.0
 40
2.0
 40
2.0
 40
3.0
 40
3.0
 40
3.0
 40
4.0
 40
4.0
 40
4.0
 40
5.0
 40
5.0
 40
5.0
 40
6.0
 40
6.0
 40
6.0
 40
7.0
 40
7.0
 40
7.0
 40
7.0
 10
520.6964966859769
 20
-396.3107286922777
 10
520.6964966859769
 20
-396.3107286922777
 10
557.2136047713684
 20
-299.4601801775561
 10
664.1215761133062
 20
-298.9277446992519
 10
771.0297456076423
 20
-298.4018482498968
 10
806.4887199177756
 20
-465.37733951061
 10
740.8568826688152
 20
-542.6510261161893
 10
675.2379253253657
 20
-619.9185699976078
 10
602.7300019087179
 20
-676.6093749979736
 10
524.3977852230782
 20
-730.5666677455702
 10
524.3977852230782
 20
-730.5666677455702
 10
396.8480810153897
 20
-650.6179238429722
 10
311.6397781620644
 20
-537.3593664779028
 10
226.4312771563509
 20
-424.1010072652307
 10
314.4642423629284
 20
-301.3107253699118
 10
376.914346647578
 20
-298.9277446992519
 10
439.3644509322257
 20
-296.544764028592
 10
490.1729040126411
 20
-332.3604126449854
 10
520.6964966859769
 20
-396.3107286922777
 10
520.6964966859769
 20
-396.3107286922777
 10
520.6964966859769
 20
-396.3107286922777
 10
520.6964966859769
 20
-396.3107286922777
 97
        0
 97
        0
 75
     2
 76
     1
 98
        0
  0
INSERT
  5
4A
330
41
100
AcDbEntity
  8
Layer 1
100
AcDbBlockReference
  2
block 3
 10
0.0
 20
0.0
 30
0.0
  0
INSERT
  5
59
330
41
100
AcDbEntity
  8
Layer 1
100
AcDbBlockReference
  2
block 4
 10
0.0
 20
0.0
 30
0.0
  0
ENDBLK
  5
44
330
41
100
AcDbEntity
  8
0
100
AcDbBlockEnd
  0
BLOCK
  5
4B
330
49
100
AcDbEntity
  8
0
100
AcDbBlockBegin
  2
block 3
 70
     0
 10
0.0
 20
0.0
 30
0.0
  3
block 3
  1

  0
SPLINE
  5
4D
330
49
100
AcDbEntity
  8
Layer 1
370
     0
100
AcDbSpline
210
0.0
220
0.0
230
1.0
 70
    11
 71
     3
 72
    71
 73
    67
 74
     0
 42
0.0000000001
 43
0.0000000001
 12
1.0
 22
0.0
 32
0.0
 13
1.0
 23
0.0
 33
0.0
 40
0.0
 40
0.0
 40
0.0
 40
0.0
 40
1.0
 40
1.0
 40
1.0
 40
2.0
 40
2.0
 40
2.0
 40
3.0
 40
3.0
 40
3.0
 40
4.0
 40
4.0
 40
4.0
 40
5.0
 40
5.0
 40
5.0
 40
6.0
 40
6.0
 40
6.0
 40
7.0
 40
7.0
 40
7.0
 40
8.0
 40
8.0
 40
8.0
 40
9.0
 40
9.0
 40
9.0
 40
10.0
 40
10.0
 40
10.0
 40
11.0
 40
11.0
 40
11.0
 40
12.0
 40
12.0
 40
12.0
 40
13.0
 40
13.0
 40
13.0
 40
14.0
 40
14.0
 40
14.0
 40
15.0
 40
15.0
 40
15.0
 40
16.0
 40
16.0
 40
16.0
 40
17.0
 40
17.0
 40
17.0
 40
18.0
 40
18.0
 40
18.0
 40
19.0
 40
19.0
 40
19.0
 40
20.0
 40
20.0
 40
20.0
 40
21.0
 40
21.0
 40
21.0
 40
22.0
 40
22.0
 40
22.0
 40
22.0
 10
454.9188046837644
 20
-661.4310173016602
 30
0.0
 10
447.3699637587097
 20
-656.1083187340373
 30
0.0
 10
440.1075973048828
 20
-650.2666111420658
 30
0.0
 10
433.1869467397537
 20
-643.9135589108955
 30
0.0
 10
431.4895023463841
 20
-642.3552303384822
 30
0.0
 10
429.8757877454636
 20
-640.731682186808
 30
0.0
 10
428.2737866388225
 20
-639.0994573727039
 30
0.0
 10
411.7723654185975
 20
-655.541298844244
 30
0.0
 10
395.2846822472193
 20
-671.9968783646327
 30
0.0
 10
378.826644339144
 20
-688.4822477593625
 30
0.0
 10
374.3257703146728
 20
-692.9906415579389
 30
0.0
 10
370.2247458171805
 20
-694.790904401103
 30
0.0
 10
363.688471397696
 20
-693.7248318105485
 30
0.0
 10
349.7980025136676
 20
-691.4590660280192
 30
0.0
 10
335.7160686120205
 20
-690.3903904387371
 30
0.0
 10
321.737386993289
 20
-688.6348124070864
 30
0.0
 10
308.799615644064
 20
-687.0099627560485
 30
0.0
 10
298.1134381953989
 20
-690.0725353717207
 30
0.0
 10
288.2709215570003
 20
-699.5869295592311
 30
0.0
 10
244.6304909774917
 20
-741.7722838492446
 30
0.0
 10
200.4412614992916
 20
-783.3900398053047
 30
0.0
 10
156.4612841966918
 20
-825.2244231000259
 30
0.0
 10
155.1542896126684
 20
-826.4677888262304
 30
0.0
 10
153.8632022430993
 20
-827.7536701983445
 30
0.0
 10
152.7395744584264
 20
-829.1594341230266
 30
0.0
 10
144.9746846388689
 20
-838.8736807685054
 30
0.0
 10
148.1737700767735
 20
-847.4463678602842
 30
0.0
 10
160.292898325737
 20
-849.3416401570576
 30
0.0
 10
162.7836788872792
 20
-849.7310776891209
 30
0.0
 10
165.3310023656586
 20
-849.920373541132
 30
0.0
 10
167.8527296898683
 20
-849.9244226502669
 30
0.0
 10
186.2815268578561
 20
-849.9555140239718
 30
0.0
 10
204.7106132479239
 20
-849.9701197390641
 30
0.0
 10
223.1389765827898
 20
-849.8612276255662
 30
0.0
 10
227.9491736228865
 20
-849.8327392505889
 30
0.0
 10
232.7566230532138
 20
-849.3506060415712
 30
0.0
 10
237.678893649696
 20
-849.0704944561221
 30
0.0
 10
236.1204204662445
 20
-861.6267818805136
 30
0.0
 10
233.8908074438423
 20
-873.060743019596
 30
0.0
 10
233.5026714111436
 20
-884.5565976840116
 30
0.0
 10
233.1155476557296
 20
-896.0222286409626
 30
0.0
 10
233.7104774763411
 20
-907.682795280507
 30
0.0
 10
235.4513051818594
 20
-919.0156733022814
 30
0.0
 10
237.4304518821191
 20
-931.9022523431704
 30
0.0
 10
250.0244827880797
 20
-934.5914392522754
 30
0.0
 10
258.6723676209203
 20
-925.5327144533767
 30
0.0
 10
272.3634178801021
 20
-911.1914929561208
 30
0.0
 10
287.224371456914
 20
-897.8538720799152
 30
0.0
 10
302.4445388583244
 20
-885.1119040795238
 30
0.0
 10
326.6352183239269
 20
-864.860429357097
 30
0.0
 10
347.5479993345543
 20
-841.3802239334618
 30
0.0
 10
369.5993030670252
 20
-819.0194525743245
 30
0.0
 10
377.459202340191
 20
-811.0492150772589
 30
0.0
 10
384.7522263346036
 20
-802.5199112976261
 30
0.0
 10
392.3033810363049
 20
-794.245122949269
 30
0.0
 10
399.2901188469423
 20
-786.5891252432048
 30
0.0
 10
402.4031607157503
 20
-778.0807900644468
 30
0.0
 10
400.1774521914413
 20
-767.4281623771749
 30
0.0
 10
397.8911516411617
 20
-756.4867464420313
 30
0.0
 10
397.3435096307949
 20
-745.178886130263
 30
0.0
 10
395.0010999968017
 20
-734.2529435764518
 30
0.0
 10
393.0919450401434
 20
-725.3488079798481
 30
0.0
 10
396.1613143747209
 20
-719.6778860267041
 30
0.0
 10
402.4025822715885
 20
-713.5142742585849
 30
0.0
 10
419.9446245392401
 20
-696.1903054400027
 30
0.0
 10
437.4424158284983
 20
-678.8215071988707
 30
0.0
 10
454.9188046837644
 20
-661.4310173016602
 30
0.0
  0
SPLINE
  5
4E
330
49
100
AcDbEntity
  8
Layer 1
370
     0
100
AcDbSpline
210
0.0
220
0.0
230
1.0
 70
    11
 71
     3
 72
    23
 73
    19
 74
     0
 42
0.0000000001
 43
0.0000000001
 12
1.0
 22
0.0
 32
0.0
 13
1.0
 23
0.0
 33
0.0
 40
0.0
 40
0.0
 40
0.0
 40
0.0
 40
1.0
 40
1.0
 40
1.0
 40
2.0
 40
2.0
 40
2.0
 40
3.0
 40
3.0
 40
3.0
 40
4.0
 40
4.0
 40
4.0
 40
5.0
 40
5.0
 40
5.0
 40
6.0
 40
6.0
 40
6.0
 40
6.0
 10
304.8497096838928
 20
-710.1214100264115
 30
0.0
 10
305.9961860129642
 20
-709.0151355665985
 30
0.0
 10
308.1420692429183
 20
-708.5538263474082
 30
0.0
 10
309.8529624630537
 20
-708.4849914921324
 30
0.0
 10
324.5529639517918
 20
-707.8948338358568
 30
0.0
 10
339.2453010553827
 20
-707.7243374191094
 30
0.0
 10
355.2346545812034
 20
-710.3266130928787
 30
0.0
 10
347.6858136561495
 20
-720.4963845159255
 30
0.0
 10
339.02115394261
 20
-727.8536158123206
 30
0.0
 10
330.867115813071
 20
-735.6591413342576
 30
0.0
 10
329.958235423539
 20
-736.5291213538949
 30
0.0
 10
328.2069957231033
 20
-736.9143651657832
 30
0.0
 10
326.8647160451983
 20
-736.8761878510923
 30
0.0
 10
311.5440439706417
 20
-736.4401855639917
 30
0.0
 10
296.2269871720982
 20
-735.8783716716534
 30
0.0
 10
279.5154461100283
 20
-735.3020966752665
 30
0.0
 10
288.7174804500592
 20
-726.1000623352375
 30
0.0
 10
296.6799089509386
 20
-718.003290177734
 30
0.0
 10
304.8497096838928
 20
-710.1214100264115
 30
0.0
  0
SPLINE
  5
4F
330
49
100
AcDbEntity
  8
Layer 1
370
     0
100
AcDbSpline
210
0.0
220
0.0
230
1.0
 70
    11
 71
     3
 72
    26
 73
    22
 74
     0
 42
0.0000000001
 43
0.0000000001
 12
1.0
 22
0.0
 32
0.0
 13
1.0
 23
0.0
 33
0.0
 40
0.0
 40
0.0
 40
0.0
 40
0.0
 40
1.0
 40
1.0
 40
1.0
 40
2.0
 40
2.0
 40
2.0
 40
3.0
 40
3.0
 40
3.0
 40
4.0
 40
4.0
 40
4.0
 40
5.0
 40
5.0
 40
5.0
 40
6.0
 40
6.0
 40
6.0
 40
7.0
 40
7.0
 40
7.0
 40
7.0
 10
260.5614216429512
 20
-753.9019687041618
 30
0.0
 10
262.1904650141651
 20
-752.3218038646373
 30
0.0
 10
264.9048142443189
 20
-750.9559525871337
 30
0.0
 10
267.0884409558439
 20
-750.9977451778359
 30
0.0
 10
281.8189553741267
 20
-751.2811828172125
 30
0.0
 10
296.5418054072616
 20
-751.9706882583087
 30
0.0
 10
312.5208915492076
 20
-752.5761746848766
 30
0.0
 10
310.9802055237378
 20
-754.8960249965494
 30
0.0
 10
310.1546210935339
 20
-756.6839959012723
 30
0.0
 10
308.8551462836149
 20
-758.00689769975
 30
0.0
 10
300.7752936178513
 20
-766.232229072255
 30
0.0
 10
292.6947178968849
 20
-774.4632002753387
 30
0.0
 10
284.3685926291528
 20
-782.4354623269719
 30
0.0
 10
282.1489577685443
 20
-784.5608107891749
 30
0.0
 10
279.0469063388136
 20
-787.23163209614
 30
0.0
 10
276.3888108034134
 20
-787.1898395054377
 30
0.0
 10
261.0403734090814
 20
-786.948772900927
 30
0.0
 10
245.7033602869487
 20
-785.9696115457118
 30
0.0
 10
229.1190769405175
 20
-785.1813367639552
 30
0.0
 10
239.6524005193769
 20
-774.6480131850949
 30
0.0
 10
249.9906438046028
 20
-764.1551806975767
 30
0.0
 10
260.5614216429512
 20
-753.9019687041618
 30
0.0
  0
SPLINE
  5
50
330
49
100
AcDbEntity
  8
Layer 1
370
     0
100
AcDbSpline
210
0.0
220
0.0
230
1.0
 70
    11
 71
     3
 72
    26
 73
    22
 74
     0
 42
0.0000000001
 43
0.0000000001
 12
1.0
 22
0.0
 32
0.0
 13
1.0
 23
0.0
 33
0.0
 40
0.0
 40
0.0
 40
0.0
 40
0.0
 40
1.0
 40
1.0
 40
1.0
 40
2.0
 40
2.0
 40
2.0
 40
3.0
 40
3.0
 40
3.0
 40
4.0
 40
4.0
 40
4.0
 40
5.0
 40
5.0
 40
5.0
 40
6.0
 40
6.0
 40
6.0
 40
7.0
 40
7.0
 40
7.0
 40
7.0
 10
237.443322264724
 20
-826.2367003835134
 30
0.0
 10
236.4755851817081
 20
-827.0313380510561
 30
0.0
 10
234.7074259895353
 20
-827.0906285776582
 30
0.0
 10
233.311351004565
 20
-827.0870133016433
 30
0.0
 10
218.9231309191418
 20
-827.0501374863197
 30
0.0
 10
204.5352000557996
 20
-826.9299657116644
 30
0.0
 10
187.8042811143023
 20
-826.8171691000753
 30
0.0
 10
195.8074899286021
 20
-818.8139602857773
 30
0.0
 10
202.2042146940075
 20
-812.1702398632042
 30
0.0
 10
208.9401969604205
 20
-805.890360818521
 30
0.0
 10
210.280162861678
 20
-804.6412106506978
 30
0.0
 10
212.9116499656257
 20
-804.3852491090147
 30
0.0
 10
214.9589084659601
 20
-804.350831681375
 30
0.0
 10
228.6524171128294
 20
-804.120032460738
 30
0.0
 10
242.3488179805081
 20
-804.0543790483534
 30
0.0
 10
256.0447850150667
 20
-803.9987037977626
 30
0.0
 10
257.3376077171215
 20
-803.9934978003039
 30
0.0
 10
258.6323103627037
 20
-804.4284878101244
 30
0.0
 10
262.4838808153363
 20
-805.1149564193693
 30
0.0
 10
253.1013718967633
 20
-813.0744926994375
 30
0.0
 10
245.3468940721195
 20
-819.7465568859516
 30
0.0
 10
237.443322264724
 20
-826.2367003835134
 30
0.0
  0
SPLINE
  5
51
330
49
100
AcDbEntity
  8
Layer 1
370
     0
100
AcDbSpline
210
0.0
220
0.0
230
1.0
 70
    11
 71
     3
 72
    26
 73
    22
 74
     0
 42
0.0000000001
 43
0.0000000001
 12
1.0
 22
0.0
 32
0.0
 13
1.0
 23
0.0
 33
0.0
 40
0.0
 40
0.0
 40
0.0
 40
0.0
 40
1.0
 40
1.0
 40
1.0
 40
2.0
 40
2.0
 40
2.0
 40
3.0
 40
3.0
 40
3.0
 40
4.0
 40
4.0
 40
4.0
 40
5.0
 40
5.0
 40
5.0
 40
6.0
 40
6.0
 40
6.0
 40
7.0
 40
7.0
 40
7.0
 40
7.0
 10
301.0501992058389
 20
-859.6315833547596
 30
0.0
 10
287.5133043158294
 20
-872.921771809677
 30
0.0
 10
273.8430780464805
 20
-886.0766043306903
 30
0.0
 10
260.2079922599733
 20
-899.2668665566234
 30
0.0
 10
259.1705526554379
 20
-898.8084495582443
 30
0.0
 10
258.1331130509025
 20
-898.3501771709052
 30
0.0
 10
257.0956734463671
 20
-897.8917601725261
 30
0.0
 10
258.0544446448721
 20
-884.6469795843223
 30
0.0
 10
258.9015761201099
 20
-871.3920762232847
 30
0.0
 10
260.0975094250316
 20
-858.1685534580356
 30
0.0
 10
260.2688735080228
 20
-856.2731365502259
 30
0.0
 10
261.8178023628006
 20
-854.2300717700637
 30
0.0
 10
263.2504639410172
 20
-852.7651619298158
 30
0.0
 10
272.0545286975976
 20
-843.7634138808753
 30
0.0
 10
281.0084104921334
 20
-834.9080122049163
 30
0.0
 10
291.3251067323254
 20
-824.591460575768
 30
0.0
 10
297.2119329689322
 20
-835.2728658600972
 30
0.0
 10
299.9566505175899
 20
-845.1811805219186
 30
0.0
 10
302.9460499467723
 20
-854.931724538561
 30
0.0
 10
303.338524310685
 20
-856.2121106911327
 30
0.0
 10
302.1869865951967
 20
-858.515619955233
 30
0.0
 10
301.0501992058389
 20
-859.6315833547596
 30
0.0
  0
SPLINE
  5
52
330
49
100
AcDbEntity
  8
Layer 1
370
     0
100
AcDbSpline
210
0.0
220
0.0
230
1.0
 70
    11
 71
     3
 72
    17
 73
    13
 74
     0
 42
0.0000000001
 43
0.0000000001
 12
1.0
 22
0.0
 32
0.0
 13
1.0
 23
0.0
 33
0.0
 40
0.0
 40
0.0
 40
0.0
 40
0.0
 40
1.0
 40
1.0
 40
1.0
 40
2.0
 40
2.0
 40
2.0
 40
3.0
 40
3.0
 40
3.0
 40
4.0
 40
4.0
 40
4.0
 40
4.0
 10
317.72717822923
 20
-841.248627886609
 30
0.0
 10
313.5875425839231
 20
-830.7271624130699
 30
0.0
 10
309.6863705443993
 20
-820.8120510323424
 30
0.0
 10
305.7288001990819
 20
-810.7530516663173
 30
0.0
 10
315.4755843286712
 20
-801.0064121477699
 30
0.0
 10
324.8565025257976
 20
-791.6253493396034
 30
0.0
 10
335.1055207990366
 20
-781.3764756774035
 30
0.0
 10
339.315582021065
 20
-791.628096949371
 30
0.0
 10
343.2135726176975
 20
-801.119353370399
 30
0.0
 10
347.4764168695074
 20
-811.4993892463281
 30
0.0
 10
347.4764168695074
 20
-811.4993892463281
 30
0.0
 10
317.72717822923
 20
-841.248627886609
 30
0.0
 10
317.72717822923
 20
-841.248627886609
 30
0.0
  0
SPLINE
  5
53
330
49
100
AcDbEntity
  8
Layer 1
370
     0
100
AcDbSpline
210
0.0
220
0.0
230
1.0
 70
    11
 71
     3
 72
    26
 73
    22
 74
     0
 42
0.0000000001
 43
0.0000000001
 12
1.0
 22
0.0
 32
0.0
 13
1.0
 23
0.0
 33
0.0
 40
0.0
 40
0.0
 40
0.0
 40
0.0
 40
1.0
 40
1.0
 40
1.0
 40
2.0
 40
2.0
 40
2.0
 40
3.0
 40
3.0
 40
3.0
 40
4.0
 40
4.0
 40
4.0
 40
5.0
 40
5.0
 40
5.0
 40
6.0
 40
6.0
 40
6.0
 40
7.0
 40
7.0
 40
7.0
 40
7.0
 10
382.2553721093591
 20
-773.8707288424157
 30
0.0
 10
382.0300681082626
 20
-775.5360695847958
 30
0.0
 10
381.2014468462075
 20
-777.2547718011192
 30
0.0
 10
380.2196824922639
 20
-778.6488222315238
 30
0.0
 10
378.9881748713806
 20
-780.3971697111483
 30
0.0
 10
377.3542147247899
 20
-781.8717684911098
 30
0.0
 10
375.8324727456256
 20
-783.4036332431097
 30
0.0
 10
370.7874273757589
 20
-788.4826622074906
 30
0.0
 10
365.7149059081994
 20
-793.534070463138
 30
0.0
 10
359.1092181892745
 20
-800.1399027931038
 30
0.0
 10
355.7899609767173
 20
-789.0170000021317
 30
0.0
 10
352.7500922944009
 20
-779.8651456931548
 30
0.0
 10
350.5022582808951
 20
-770.5226940327993
 30
0.0
 10
349.9818031461418
 20
-768.3597467000654
 30
0.0
 10
351.5353595542147
 20
-764.9634118029207
 30
0.0
 10
353.2200781760212
 20
-763.135094417903
 30
0.0
 10
359.5455096984588
 20
-756.269974492323
 30
0.0
 10
366.3199585016446
 20
-749.8188759756958
 30
0.0
 10
373.0131359000698
 20
-743.125698577267
 30
0.0
 10
375.7037689195822
 20
-747.4061853760177
 30
0.0
 10
382.7249241578575
 20
-770.3981839269327
 30
0.0
 10
382.2553721093591
 20
-773.8707288424157
 30
0.0
  0
HATCH
  5
54
330
49
100
AcDbEntity
  8
Layer 1
 62
   241
420
 16733095
100
AcDbHatch
 10
0.0
 20
0.0
 30
0.0
210
0.0
220
0.0
230
1.0
  2
SOLID
 70
     1
 71
     0
 91
        7
 92
        1
 93
        1
 72
     4
 94
        3
 73
     0
 74
     1
 95
       71
 96
       67
 40
0.0
 40
0.0
 40
0.0
 40
0.0
 40
1.0
 40
1.0
 40
1.0
 40
2.0
 40
2.0
 40
2.0
 40
3.0
 40
3.0
 40
3.0
 40
4.0
 40
4.0
 40
4.0
 40
5.0
 40
5.0
 40
5.0
 40
6.0
 40
6.0
 40
6.0
 40
7.0
 40
7.0
 40
7.0
 40
8.0
 40
8.0
 40
8.0
 40
9.0
 40
9.0
 40
9.0
 40
10.0
 40
10.0
 40
10.0
 40
11.0
 40
11.0
 40
11.0
 40
12.0
 40
12.0
 40
12.0
 40
13.0
 40
13.0
 40
13.0
 40
14.0
 40
14.0
 40
14.0
 40
15.0
 40
15.0
 40
15.0
 40
16.0
 40
16.0
 40
16.0
 40
17.0
 40
17.0
 40
17.0
 40
18.0
 40
18.0
 40
18.0
 40
19.0
 40
19.0
 40
19.0
 40
20.0
 40
20.0
 40
20.0
 40
21.0
 40
21.0
 40
21.0
 40
22.0
 40
22.0
 40
22.0
 40
22.0
 10
454.9188046837644
 20
-661.4310173016602
 10
447.3699637587097
 20
-656.1083187340373
 10
440.1075973048828
 20
-650.2666111420658
 10
433.1869467397537
 20
-643.9135589108955
 10
431.4895023463841
 20
-642.3552303384822
 10
429.8757877454636
 20
-640.731682186808
 10
428.2737866388225
 20
-639.0994573727039
 10
411.7723654185975
 20
-655.541298844244
 10
395.2846822472193
 20
-671.9968783646327
 10
378.826644339144
 20
-688.4822477593625
 10
374.3257703146728
 20
-692.9906415579389
 10
370.2247458171805
 20
-694.790904401103
 10
363.688471397696
 20
-693.7248318105485
 10
349.7980025136676
 20
-691.4590660280192
 10
335.7160686120205
 20
-690.3903904387371
 10
321.737386993289
 20
-688.6348124070864
 10
308.799615644064
 20
-687.0099627560485
 10
298.1134381953989
 20
-690.0725353717207
 10
288.2709215570003
 20
-699.5869295592311
 10
244.6304909774917
 20
-741.7722838492446
 10
200.4412614992916
 20
-783.3900398053047
 10
156.4612841966918
 20
-825.2244231000259
 10
155.1542896126684
 20
-826.4677888262304
 10
153.8632022430993
 20
-827.7536701983445
 10
152.7395744584264
 20
-829.1594341230266
 10
144.9746846388689
 20
-838.8736807685054
 10
148.1737700767735
 20
-847.4463678602842
 10
160.292898325737
 20
-849.3416401570576
 10
162.7836788872792
 20
-849.7310776891209
 10
165.3310023656586
 20
-849.920373541132
 10
167.8527296898683
 20
-849.9244226502669
 10
186.2815268578561
 20
-849.9555140239718
 10
204.7106132479239
 20
-849.9701197390641
 10
223.1389765827898
 20
-849.8612276255662
 10
227.9491736228865
 20
-849.8327392505889
 10
232.7566230532138
 20
-849.3506060415712
 10
237.678893649696
 20
-849.0704944561221
 10
236.1204204662445
 20
-861.6267818805136
 10
233.8908074438423
 20
-873.060743019596
 10
233.5026714111436
 20
-884.5565976840116
 10
233.1155476557296
 20
-896.0222286409626
 10
233.7104774763411
 20
-907.682795280507
 10
235.4513051818594
 20
-919.0156733022814
 10
237.4304518821191
 20
-931.9022523431704
 10
250.0244827880797
 20
-934.5914392522754
 10
258.6723676209203
 20
-925.5327144533767
 10
272.3634178801021
 20
-911.1914929561208
 10
287.224371456914
 20
-897.8538720799152
 10
302.4445388583244
 20
-885.1119040795238
 10
326.6352183239269
 20
-864.860429357097
 10
347.5479993345543
 20
-841.3802239334618
 10
369.5993030670252
 20
-819.0194525743245
 10
377.459202340191
 20
-811.0492150772589
 10
384.7522263346036
 20
-802.5199112976261
 10
392.3033810363049
 20
-794.245122949269
 10
399.2901188469423
 20
-786.5891252432048
 10
402.4031607157503
 20
-778.0807900644468
 10
400.1774521914413
 20
-767.4281623771749
 10
397.8911516411617
 20
-756.4867464420313
 10
397.3435096307949
 20
-745.178886130263
 10
395.0010999968017
 20
-734.2529435764518
 10
393.0919450401434
 20
-725.3488079798481
 10
396.1613143747209
 20
-719.6778860267041
 10
402.4025822715885
 20
-713.5142742585849
 10
419.9446245392401
 20
-696.1903054400027
 10
437.4424158284983
 20
-678.8215071988707
 10
454.9188046837644
 20
-661.4310173016602
 97
        0
 97
        0
 92
        1
 93
        1
 72
     4
 94
        3
 73
     0
 74
     1
 95
       23
 96
       19
 40
0.0
 40
0.0
 40
0.0
 40
0.0
 40
1.0
 40
1.0
 40
1.0
 40
2.0
 40
2.0
 40
2.0
 40
3.0
 40
3.0
 40
3.0
 40
4.0
 40
4.0
 40
4.0
 40
5.0
 40
5.0
 40
5.0
 40
6.0
 40
6.0
 40
6.0
 40
6.0
 10
304.8497096838928
 20
-710.1214100264115
 10
305.9961860129642
 20
-709.0151355665985
 10
308.1420692429183
 20
-708.5538263474082
 10
309.8529624630537
 20
-708.4849914921324
 10
324.5529639517918
 20
-707.8948338358568
 10
339.2453010553827
 20
-707.7243374191094
 10
355.2346545812034
 20
-710.3266130928787
 10
347.6858136561495
 20
-720.4963845159255
 10
339.02115394261
 20
-727.8536158123206
 10
330.867115813071
 20
-735.6591413342576
 10
329.958235423539
 20
-736.5291213538949
 10
328.2069957231033
 20
-736.9143651657832
 10
326.8647160451983
 20
-736.8761878510923
 10
311.5440439706417
 20
-736.4401855639917
 10
296.2269871720982
 20
-735.8783716716534
 10
279.5154461100283
 20
-735.3020966752665
 10
288.7174804500592
 20
-726.1000623352375
 10
296.6799089509386
 20
-718.003290177734
 10
304.8497096838928
 20
-710.1214100264115
 97
        0
 97
        0
 92
        1
 93
        1
 72
     4
 94
        3
 73
     0
 74
     1
 95
       26
 96
       22
 40
0.0
 40
0.0
 40
0.0
 40
0.0
 40
1.0
 40
1.0
 40
1.0
 40
2.0
 40
2.0
 40
2.0
 40
3.0
 40
3.0
 40
3.0
 40
4.0
 40
4.0
 40
4.0
 40
5.0
 40
5.0
 40
5.0
 40
6.0
 40
6.0
 40
6.0
 40
7.0
 40
7.0
 40
7.0
 40
7.0
 10
260.5614216429512
 20
-753.9019687041618
 10
262.1904650141651
 20
-752.3218038646373
 10
264.9048142443189
 20
-750.9559525871337
 10
267.0884409558439
 20
-750.9977451778359
 10
281.8189553741267
 20
-751.2811828172125
 10
296.5418054072616
 20
-751.9706882583087
 10
312.5208915492076
 20
-752.5761746848766
 10
310.9802055237378
 20
-754.8960249965494
 10
310.1546210935339
 20
-756.6839959012723
 10
308.8551462836149
 20
-758.00689769975
 10
300.7752936178513
 20
-766.232229072255
 10
292.6947178968849
 20
-774.4632002753387
 10
284.3685926291528
 20
-782.4354623269719
 10
282.1489577685443
 20
-784.5608107891749
 10
279.0469063388136
 20
-787.23163209614
 10
276.3888108034134
 20
-787.1898395054377
 10
261.0403734090814
 20
-786.948772900927
 10
245.7033602869487
 20
-785.9696115457118
 10
229.1190769405175
 20
-785.1813367639552
 10
239.6524005193769
 20
-774.6480131850949
 10
249.9906438046028
 20
-764.1551806975767
 10
260.5614216429512
 20
-753.9019687041618
 97
        0
 97
        0
 92
        1
 93
        1
 72
     4
 94
        3
 73
     0
 74
     1
 95
       26
 96
       22
 40
0.0
 40
0.0
 40
0.0
 40
0.0
 40
1.0
 40
1.0
 40
1.0
 40
2.0
 40
2.0
 40
2.0
 40
3.0
 40
3.0
 40
3.0
 40
4.0
 40
4.0
 40
4.0
 40
5.0
 40
5.0
 40
5.0
 40
6.0
 40
6.0
 40
6.0
 40
7.0
 40
7.0
 40
7.0
 40
7.0
 10
237.443322264724
 20
-826.2367003835134
 10
236.4755851817081
 20
-827.0313380510561
 10
234.7074259895353
 20
-827.0906285776582
 10
233.311351004565
 20
-827.0870133016433
 10
218.9231309191418
 20
-827.0501374863197
 10
204.5352000557996
 20
-826.9299657116644
 10
187.8042811143023
 20
-826.8171691000753
 10
195.8074899286021
 20
-818.8139602857773
 10
202.2042146940075
 20
-812.1702398632042
 10
208.9401969604205
 20
-805.890360818521
 10
210.280162861678
 20
-804.6412106506978
 10
212.9116499656257
 20
-804.3852491090147
 10
214.9589084659601
 20
-804.350831681375
 10
228.6524171128294
 20
-804.120032460738
 10
242.3488179805081
 20
-804.0543790483534
 10
256.0447850150667
 20
-803.9987037977626
 10
257.3376077171215
 20
-803.9934978003039
 10
258.6323103627037
 20
-804.4284878101244
 10
262.4838808153363
 20
-805.1149564193693
 10
253.1013718967633
 20
-813.0744926994375
 10
245.3468940721195
 20
-819.7465568859516
 10
237.443322264724
 20
-826.2367003835134
 97
        0
 97
        0
 92
        1
 93
        1
 72
     4
 94
        3
 73
     0
 74
     1
 95
       26
 96
       22
 40
0.0
 40
0.0
 40
0.0
 40
0.0
 40
1.0
 40
1.0
 40
1.0
 40
2.0
 40
2.0
 40
2.0
 40
3.0
 40
3.0
 40
3.0
 40
4.0
 40
4.0
 40
4.0
 40
5.0
 40
5.0
 40
5.0
 40
6.0
 40
6.0
 40
6.0
 40
7.0
 40
7.0
 40
7.0
 40
7.0
 10
301.0501992058389
 20
-859.6315833547596
 10
287.5133043158294
 20
-872.921771809677
 10
273.8430780464805
 20
-886.0766043306903
 10
260.2079922599733
 20
-899.2668665566234
 10
259.1705526554379
 20
-898.8084495582443
 10
258.1331130509025
 20
-898.3501771709052
 10
257.0956734463671
 20
-897.8917601725261
 10
258.0544446448721
 20
-884.6469795843223
 10
258.9015761201099
 20
-871.3920762232847
 10
260.0975094250316
 20
-858.1685534580356
 10
260.2688735080228
 20
-856.2731365502259
 10
261.8178023628006
 20
-854.2300717700637
 10
263.2504639410172
 20
-852.7651619298158
 10
272.0545286975976
 20
-843.7634138808753
 10
281.0084104921334
 20
-834.9080122049163
 10
291.3251067323254
 20
-824.591460575768
 10
297.2119329689322
 20
-835.2728658600972
 10
299.9566505175899
 20
-845.1811805219186
 10
302.9460499467723
 20
-854.931724538561
 10
303.338524310685
 20
-856.2121106911327
 10
302.1869865951967
 20
-858.515619955233
 10
301.0501992058389
 20
-859.6315833547596
 97
        0
 97
        0
 92
        1
 93
        1
 72
     4
 94
        3
 73
     0
 74
     1
 95
       17
 96
       13
 40
0.0
 40
0.0
 40
0.0
 40
0.0
 40
1.0
 40
1.0
 40
1.0
 40
2.0
 40
2.0
 40
2.0
 40
3.0
 40
3.0
 40
3.0
 40
4.0
 40
4.0
 40
4.0
 40
4.0
 10
317.72717822923
 20
-841.248627886609
 10
313.5875425839231
 20
-830.7271624130699
 10
309.6863705443993
 20
-820.8120510323424
 10
305.7288001990819
 20
-810.7530516663173
 10
315.4755843286712
 20
-801.0064121477699
 10
324.8565025257976
 20
-791.6253493396034
 10
335.1055207990366
 20
-781.3764756774035
 10
339.315582021065
 20
-791.628096949371
 10
343.2135726176975
 20
-801.119353370399
 10
347.4764168695074
 20
-811.4993892463281
 10
347.4764168695074
 20
-811.4993892463281
 10
317.72717822923
 20
-841.248627886609
 10
317.72717822923
 20
-841.248627886609
 97
        0
 97
        0
 92
        1
 93
        1
 72
     4
 94
        3
 73
     0
 74
     1
 95
       26
 96
       22
 40
0.0
 40
0.0
 40
0.0
 40
0.0
 40
1.0
 40
1.0
 40
1.0
 40
2.0
 40
2.0
 40
2.0
 40
3.0
 40
3.0
 40
3.0
 40
4.0
 40
4.0
 40
4.0
 40
5.0
 40
5.0
 40
5.0
 40
6.0
 40
6.0
 40
6.0
 40
7.0
 40
7.0
 40
7.0
 40
7.0
 10
382.2553721093591
 20
-773.8707288424157
 10
382.0300681082626
 20
-775.5360695847958
 10
381.2014468462075
 20
-777.2547718011192
 10
380.2196824922639
 20
-778.6488222315238
 10
378.9881748713806
 20
-780.3971697111483
 10
377.3542147247899
 20
-781.8717684911098
 10
375.8324727456256
 20
-783.4036332431097
 10
370.7874273757589
 20
-788.4826622074906
 10
365.7149059081994
 20
-793.534070463138
 10
359.1092181892745
 20
-800.1399027931038
 10
355.7899609767173
 20
-789.0170000021317
 10
352.7500922944009
 20
-779.8651456931548
 10
350.5022582808951
 20
-770.5226940327993
 10
349.9818031461418
 20
-768.3597467000654
 10
351.5353595542147
 20
-764.9634118029207
 10
353.2200781760212
 20
-763.135094417903
 10
359.5455096984588
 20
-756.269974492323
 10
366.3199585016446
 20
-749.8188759756958
 10
373.0131359000698
 20
-743.125698577267
 10
375.7037689195822
 20
-747.4061853760177
 10
382.7249241578575
 20
-770.3981839269327
 10
382.2553721093591
 20
-773.8707288424157
 97
        0
 97
        0
 75
     2
 76
     1
 98
        0
  0
SPLINE
  5
55
330
49
100
AcDbEntity
  8
Layer 1
370
     0
100
AcDbSpline
210
0.0
220
0.0
230
1.0
 70
    11
 71
     3
 72
    62
 73
    58
 74
     0
 42
0.0000000001
 43
0.0000000001
 12
1.0
 22
0.0
 32
0.0
 13
1.0
 23
0.0
 33
0.0
 40
0.0
 40
0.0
 40
0.0
 40
0.0
 40
1.0
 40
1.0
 40
1.0
 40
2.0
 40
2.0
 40
2.0
 40
3.0
 40
3.0
 40
3.0
 40
4.0
 40
4.0
 40
4.0
 40
5.0
 40
5.0
 40
5.0
 40
6.0
 40
6.0
 40
6.0
 40
7.0
 40
7.0
 40
7.0
 40
8.0
 40
8.0
 40
8.0
 40
9.0
 40
9.0
 40
9.0
 40
10.0
 40
10.0
 40
10.0
 40
11.0
 40
11.0
 40
11.0
 40
12.0
 40
12.0
 40
12.0
 40
13.0
 40
13.0
 40
13.0
 40
14.0
 40
14.0
 40
14.0
 40
15.0
 40
15.0
 40
15.0
 40
16.0
 40
16.0
 40
16.0
 40
17.0
 40
17.0
 40
17.0
 40
18.0
 40
18.0
 40
18.0
 40
19.0
 40
19.0
 40
19.0
 40
19.0
 10
927.5841842727714
 20
-152.6313878012506
 30
0.0
 10
921.9168775956405
 20
-146.8566351210311
 30
0.0
 10
915.3991133893414
 20
-149.4694674007542
 30
0.0
 10
909.3452614009584
 20
-151.746657455481
 30
0.0
 10
893.4629200451072
 20
-157.720828760549
 30
0.0
 10
877.6602593725693
 20
-163.9153872913366
 30
0.0
 10
861.9069110648416
 20
-170.2238993220335
 30
0.0
 10
838.7614801999607
 20
-179.4927439627781
 30
0.0
 10
815.5431653706673
 20
-188.6054086797803
 30
0.0
 10
792.6444409408778
 20
-198.4550112591633
 30
0.0
 10
782.0806044324727
 20
-202.9988347626631
 30
0.0
 10
772.0500934414267
 20
-208.8725013945832
 30
0.0
 10
762.0781499217828
 20
-214.6608475126077
 30
0.0
 10
757.723043826134
 20
-217.1887931115625
 30
0.0
 10
753.6789960785991
 20
-220.9271331194823
 30
0.0
 10
755.2008826688034
 20
-226.9763575545685
 30
0.0
 10
756.6034651505961
 20
-232.5519808320232
 30
0.0
 10
761.5757711670904
 20
-233.7030847143897
 30
0.0
 10
766.2354281140288
 20
-234.16439393358
 30
0.0
 10
776.2857508176221
 20
-235.1596071142912
 30
0.0
 10
786.3878442737168
 20
-235.6463678766077
 30
0.0
 10
796.4730182380717
 20
-236.267616906588
 30
0.0
 10
800.2738302154885
 20
-236.5018867921963
 30
0.0
 10
804.0872233534301
 20
-236.5312428334173
 30
0.0
 10
810.6012276726779
 20
-236.7412180642195
 30
0.0
 10
805.8523457137526
 20
-241.490100023143
 30
0.0
 10
802.921802978055
 20
-244.4630137937083
 30
0.0
 10
799.9462862087603
 20
-247.3899412533965
 30
0.0
 10
771.8068576713085
 20
-275.0692174599817
 30
0.0
 10
743.6548479733337
 20
-302.735623283962
 30
0.0
 10
715.5142625475582
 20
-330.4138872132635
 30
0.0
 10
723.479149436127
 20
-337.7430639678014
 30
0.0
 10
730.3488969150003
 20
-345.9310856918592
 30
0.0
 10
736.2723097448525
 20
-354.7192432339825
 30
0.0
 10
767.1743875999837
 20
-323.3817415359108
 30
0.0
 10
798.1575922488355
 20
-291.9970966386345
 30
0.0
 10
829.4641471842406
 20
-260.586421754072
 30
0.0
 10
830.4224845496228
 20
-266.7695560126622
 30
0.0
 10
831.0026640441029
 20
-270.5828045395601
 30
0.0
 10
831.6064151381834
 20
-274.3922931794104
 30
0.0
 10
832.8506485306298
 20
-282.241057402457
 30
0.0
 10
833.4408061869053
 20
-290.2697177598848
 30
0.0
 10
835.5203129492711
 20
-297.8914426493493
 30
0.0
 10
838.4162936462908
 20
-308.5043023004828
 30
0.0
 10
847.6258477604279
 20
-310.6876397899277
 30
0.0
 10
855.2831469658558
 20
-302.927955967828
 30
0.0
 10
858.2929365517466
 20
-299.877964512677
 30
0.0
 10
860.8210267617396
 20
-296.2357908466829
 30
0.0
 10
863.0460122308468
 20
-292.5479200918953
 30
0.0
 10
876.8569450426003
 20
-269.6575831024556
 30
0.0
 10
891.0924558692586
 20
-246.9950085017945
 30
0.0
 10
904.0377469925897
 20
-223.6203691377259
 30
0.0
 10
913.2879368091053
 20
-206.9179385712077
 30
0.0
 10
920.9740136115925
 20
-189.3258608835413
 30
0.0
 10
928.8720901994493
 20
-171.9097748321647
 30
0.0
 10
931.7236753070374
 20
-165.6217975692189
 30
0.0
 10
933.4010187657768
 20
-158.5584159071141
 30
0.0
 10
927.5841842727714
 20
-152.6313878012506
 30
0.0
  0
SPLINE
  5
56
330
49
100
AcDbEntity
  8
Layer 1
370
     0
100
AcDbSpline
210
0.0
220
0.0
230
1.0
 70
    11
 71
     3
 72
    20
 73
    16
 74
     0
 42
0.0000000001
 43
0.0000000001
 12
1.0
 22
0.0
 32
0.0
 13
1.0
 23
0.0
 33
0.0
 40
0.0
 40
0.0
 40
0.0
 40
0.0
 40
1.0
 40
1.0
 40
1.0
 40
2.0
 40
2.0
 40
2.0
 40
3.0
 40
3.0
 40
3.0
 40
4.0
 40
4.0
 40
4.0
 40
5.0
 40
5.0
 40
5.0
 40
5.0
 10
849.6705032620339
 20
-271.0389077612917
 30
0.0
 10
849.2949483898592
 20
-259.9638712247279
 30
0.0
 10
848.332128082222
 20
-248.8694568087367
 30
0.0
 10
848.6968371263574
 20
-237.8188595380152
 30
0.0
 10
849.1254642503955
 20
-224.8207853849008
 30
0.0
 10
844.2141840929908
 20
-218.941912755522
 30
0.0
 10
831.4331711116665
 20
-218.9296208170808
 30
0.0
 10
818.1492009314879
 20
-218.9164612123923
 30
0.0
 10
804.8649415292293
 20
-218.7504477379034
 30
0.0
 10
791.2803249958561
 20
-217.1873470011551
 30
0.0
 10
829.9076692454491
 20
-200.8092789984757
 30
0.0
 10
868.535013495044
 20
-184.4313556068364
 30
0.0
 10
907.6421771770092
 20
-167.8501090922537
 30
0.0
 10
906.1995374369981
 20
-179.0532710107027
 30
0.0
 10
863.9408653494502
 20
-256.9482971972166
 30
0.0
 10
849.6705032620339
 20
-271.0389077612917
 30
0.0
  0
HATCH
  5
57
330
49
100
AcDbEntity
  8
Layer 1
 62
   241
420
 16733095
100
AcDbHatch
 10
0.0
 20
0.0
 30
0.0
210
0.0
220
0.0
230
1.0
  2
SOLID
 70
     1
 71
     0
 91
        2
 92
        1
 93
        1
 72
     4
 94
        3
 73
     0
 74
     1
 95
       62
 96
       58
 40
0.0
 40
0.0
 40
0.0
 40
0.0
 40
1.0
 40
1.0
 40
1.0
 40
2.0
 40
2.0
 40
2.0
 40
3.0
 40
3.0
 40
3.0
 40
4.0
 40
4.0
 40
4.0
 40
5.0
 40
5.0
 40
5.0
 40
6.0
 40
6.0
 40
6.0
 40
7.0
 40
7.0
 40
7.0
 40
8.0
 40
8.0
 40
8.0
 40
9.0
 40
9.0
 40
9.0
 40
10.0
 40
10.0
 40
10.0
 40
11.0
 40
11.0
 40
11.0
 40
12.0
 40
12.0
 40
12.0
 40
13.0
 40
13.0
 40
13.0
 40
14.0
 40
14.0
 40
14.0
 40
15.0
 40
15.0
 40
15.0
 40
16.0
 40
16.0
 40
16.0
 40
17.0
 40
17.0
 40
17.0
 40
18.0
 40
18.0
 40
18.0
 40
19.0
 40
19.0
 40
19.0
 40
19.0
 10
927.5841842727714
 20
-152.6313878012506
 10
921.9168775956405
 20
-146.8566351210311
 10
915.3991133893414
 20
-149.4694674007542
 10
909.3452614009584
 20
-151.746657455481
 10
893.4629200451072
 20
-157.720828760549
 10
877.6602593725693
 20
-163.9153872913366
 10
861.9069110648416
 20
-170.2238993220335
 10
838.7614801999607
 20
-179.4927439627781
 10
815.5431653706673
 20
-188.6054086797803
 10
792.6444409408778
 20
-198.4550112591633
 10
782.0806044324727
 20
-202.9988347626631
 10
772.0500934414267
 20
-208.8725013945832
 10
762.0781499217828
 20
-214.6608475126077
 10
757.723043826134
 20
-217.1887931115625
 10
753.6789960785991
 20
-220.9271331194823
 10
755.2008826688034
 20
-226.9763575545685
 10
756.6034651505961
 20
-232.5519808320232
 10
761.5757711670904
 20
-233.7030847143897
 10
766.2354281140288
 20
-234.16439393358
 10
776.2857508176221
 20
-235.1596071142912
 10
786.3878442737168
 20
-235.6463678766077
 10
796.4730182380717
 20
-236.267616906588
 10
800.2738302154885
 20
-236.5018867921963
 10
804.0872233534301
 20
-236.5312428334173
 10
810.6012276726779
 20
-236.7412180642195
 10
805.8523457137526
 20
-241.490100023143
 10
802.921802978055
 20
-244.4630137937083
 10
799.9462862087603
 20
-247.3899412533965
 10
771.8068576713085
 20
-275.0692174599817
 10
743.6548479733337
 20
-302.735623283962
 10
715.5142625475582
 20
-330.4138872132635
 10
723.479149436127
 20
-337.7430639678014
 10
730.3488969150003
 20
-345.9310856918592
 10
736.2723097448525
 20
-354.7192432339825
 10
767.1743875999837
 20
-323.3817415359108
 10
798.1575922488355
 20
-291.9970966386345
 10
829.4641471842406
 20
-260.586421754072
 10
830.4224845496228
 20
-266.7695560126622
 10
831.0026640441029
 20
-270.5828045395601
 10
831.6064151381834
 20
-274.3922931794104
 10
832.8506485306298
 20
-282.241057402457
 10
833.4408061869053
 20
-290.2697177598848
 10
835.5203129492711
 20
-297.8914426493493
 10
838.4162936462908
 20
-308.5043023004828
 10
847.6258477604279
 20
-310.6876397899277
 10
855.2831469658558
 20
-302.927955967828
 10
858.2929365517466
 20
-299.877964512677
 10
860.8210267617396
 20
-296.2357908466829
 10
863.0460122308468
 20
-292.5479200918953
 10
876.8569450426003
 20
-269.6575831024556
 10
891.0924558692586
 20
-246.9950085017945
 10
904.0377469925897
 20
-223.6203691377259
 10
913.2879368091053
 20
-206.9179385712077
 10
920.9740136115925
 20
-189.3258608835413
 10
928.8720901994493
 20
-171.9097748321647
 10
931.7236753070374
 20
-165.6217975692189
 10
933.4010187657768
 20
-158.5584159071141
 10
927.5841842727714
 20
-152.6313878012506
 97
        0
 97
        0
 92
        1
 93
        1
 72
     4
 94
        3
 73
     0
 74
     1
 95
       20
 96
       16
 40
0.0
 40
0.0
 40
0.0
 40
0.0
 40
1.0
 40
1.0
 40
1.0
 40
2.0
 40
2.0
 40
2.0
 40
3.0
 40
3.0
 40
3.0
 40
4.0
 40
4.0
 40
4.0
 40
5.0
 40
5.0
 40
5.0
 40
5.0
 10
849.6705032620339
 20
-271.0389077612917
 10
849.2949483898592
 20
-259.9638712247279
 10
848.332128082222
 20
-248.8694568087367
 10
848.6968371263574
 20
-237.8188595380152
 10
849.1254642503955
 20
-224.8207853849008
 10
844.2141840929908
 20
-218.941912755522
 10
831.4331711116665
 20
-218.9296208170808
 10
818.1492009314879
 20
-218.9164612123923
 10
804.8649415292293
 20
-218.7504477379034
 10
791.2803249958561
 20
-217.1873470011551
 10
829.9076692454491
 20
-200.8092789984757
 10
868.535013495044
 20
-184.4313556068364
 10
907.6421771770092
 20
-167.8501090922537
 10
906.1995374369981
 20
-179.0532710107027
 10
863.9408653494502
 20
-256.9482971972166
 10
849.6705032620339
 20
-271.0389077612917
 97
        0
 97
        0
 75
     2
 76
     1
 98
        0
  0
ENDBLK
  5
4C
330
49
100
AcDbEntity
  8
0
100
AcDbBlockEnd
  0
BLOCK
  5
5A
330
58
100
AcDbEntity
  8
0
100
AcDbBlockBegin
  2
block 4
 70
     0
 10
0.0
 20
0.0
 30
0.0
  3
block 4
  1

  0
SPLINE
  5
5C
330
58
100
AcDbEntity
  8
Layer 1
370
     0
100
AcDbSpline
210
0.0
220
0.0
230
1.0
 70
    11
 71
     3
 72
    41
 73
    37
 74
     0
 42
0.0000000001
 43
0.0000000001
 12
1.0
 22
0.0
 32
0.0
 13
1.0
 23
0.0
 33
0.0
 40
0.0
 40
0.0
 40
0.0
 40
0.0
 40
1.0
 40
1.0
 40
1.0
 40
2.0
 40
2.0
 40
2.0
 40
3.0
 40
3.0
 40
3.0
 40
4.0
 40
4.0
 40
4.0
 40
5.0
 40
5.0
 40
5.0
 40
6.0
 40
6.0
 40
6.0
 40
7.0
 40
7.0
 40
7.0
 40
8.0
 40
8.0
 40
8.0
 40
9.0
 40
9.0
 40
9.0
 40
10.0
 40
10.0
 40
10.0
 40
11.0
 40
11.0
 40
11.0
 40
12.0
 40
12.0
 40
12.0
 40
12.0
 10
166.7438522313269
 20
-578.2394671458569
 30
0.0
 10
166.7438522313269
 20
-578.2394671458569
 30
0.0
 10
166.7438522313269
 20
-420.1957963177038
 30
0.0
 10
166.7438522313269
 20
-420.1957963177038
 30
0.0
 10
166.7438522313269
 20
-416.6395216097653
 30
0.0
 10
175.3395324785488
 20
-414.860227367476
 30
0.0
 10
192.5343636379639
 20
-414.860227367476
 30
0.0
 10
209.7245672440822
 20
-414.860227367476
 30
0.0
 10
218.3237181562763
 20
-416.6395216097653
 30
0.0
 10
218.3237181562763
 20
-420.1957963177038
 30
0.0
 10
218.3237181562763
 20
-420.1957963177038
 30
0.0
 10
218.3237181562763
 20
-544.6978039685091
 30
0.0
 10
218.3237181562763
 20
-544.6978039685091
 30
0.0
 10
218.3237181562763
 20
-544.6978039685091
 30
0.0
 10
257.4531519384791
 20
-544.6978039685091
 30
0.0
 10
257.4531519384791
 20
-544.6978039685091
 30
0.0
 10
260.5015526721836
 20
-544.6978039685091
 30
0.0
 10
262.6175014167566
 20
-548.6798135796707
 30
0.0
 10
263.8056257254902
 20
-556.6426759136702
 30
0.0
 10
264.3134996997205
 20
-560.5413895655074
 30
0.0
 10
264.5668582426733
 20
-564.5187716233704
 30
0.0
 10
264.5668582426733
 20
-568.5840771938601
 30
0.0
 10
264.5668582426733
 20
-572.6493827643499
 30
0.0
 10
264.3134996997205
 20
-576.8026118474627
 30
0.0
 10
263.8056257254902
 20
-581.0345093366086
 30
0.0
 10
262.4474388331309
 20
-589.1651204775844
 30
0.0
 10
260.2481941292317
 20
-593.2304260480742
 30
0.0
 10
257.1986365072025
 20
-593.2304260480742
 30
0.0
 10
257.1986365072025
 20
-593.2304260480742
 30
0.0
 10
178.9397689427951
 20
-593.2304260480742
 30
0.0
 10
178.9397689427951
 20
-593.2304260480742
 30
0.0
 10
175.212274762911
 20
-593.2304260480742
 30
0.0
 10
172.2471699885318
 20
-591.7056472370605
 30
0.0
 10
170.0467683963088
 20
-588.6560896150295
 30
0.0
 10
167.8440530274383
 20
-585.6088457696496
 30
0.0
 10
166.7438522313269
 20
-582.1381807976904
 30
0.0
 10
166.7438522313269
 20
-578.2394671458569
 30
0.0
  0
HATCH
  5
5D
330
58
100
AcDbEntity
  8
Layer 1
 62
     7
420
 16777215
100
AcDbHatch
 10
0.0
 20
0.0
 30
0.0
210
0.0
220
0.0
230
1.0
  2
SOLID
 70
     1
 71
     0
 91
        1
 92
        1
 93
        1
 72
     4
 94
        3
 73
     0
 74
     1
 95
       41
 96
       37
 40
0.0
 40
0.0
 40
0.0
 40
0.0
 40
1.0
 40
1.0
 40
1.0
 40
2.0
 40
2.0
 40
2.0
 40
3.0
 40
3.0
 40
3.0
 40
4.0
 40
4.0
 40
4.0
 40
5.0
 40
5.0
 40
5.0
 40
6.0
 40
6.0
 40
6.0
 40
7.0
 40
7.0
 40
7.0
 40
8.0
 40
8.0
 40
8.0
 40
9.0
 40
9.0
 40
9.0
 40
10.0
 40
10.0
 40
10.0
 40
11.0
 40
11.0
 40
11.0
 40
12.0
 40
12.0
 40
12.0
 40
12.0
 10
166.7438522313269
 20
-578.2394671458569
 10
166.7438522313269
 20
-578.2394671458569
 10
166.7438522313269
 20
-420.1957963177038
 10
166.7438522313269
 20
-420.1957963177038
 10
166.7438522313269
 20
-416.6395216097653
 10
175.3395324785488
 20
-414.860227367476
 10
192.5343636379639
 20
-414.860227367476
 10
209.7245672440822
 20
-414.860227367476
 10
218.3237181562763
 20
-416.6395216097653
 10
218.3237181562763
 20
-420.1957963177038
 10
218.3237181562763
 20
-420.1957963177038
 10
218.3237181562763
 20
-544.6978039685091
 10
218.3237181562763
 20
-544.6978039685091
 10
218.3237181562763
 20
-544.6978039685091
 10
257.4531519384791
 20
-544.6978039685091
 10
257.4531519384791
 20
-544.6978039685091
 10
260.5015526721836
 20
-544.6978039685091
 10
262.6175014167566
 20
-548.6798135796707
 10
263.8056257254902
 20
-556.6426759136702
 10
264.3134996997205
 20
-560.5413895655074
 10
264.5668582426733
 20
-564.5187716233704
 10
264.5668582426733
 20
-568.5840771938601
 10
264.5668582426733
 20
-572.6493827643499
 10
264.3134996997205
 20
-576.8026118474627
 10
263.8056257254902
 20
-581.0345093366086
 10
262.4474388331309
 20
-589.1651204775844
 10
260.2481941292317
 20
-593.2304260480742
 10
257.1986365072025
 20
-593.2304260480742
 10
257.1986365072025
 20
-593.2304260480742
 10
178.9397689427951
 20
-593.2304260480742
 10
178.9397689427951
 20
-593.2304260480742
 10
175.212274762911
 20
-593.2304260480742
 10
172.2471699885318
 20
-591.7056472370605
 10
170.0467683963088
 20
-588.6560896150295
 10
167.8440530274383
 20
-585.6088457696496
 10
166.7438522313269
 20
-582.1381807976904
 10
166.7438522313269
 20
-578.2394671458569
 97
        0
 97
        0
 75
     2
 76
     1
 98
        0
  0
SPLINE
  5
5E
330
58
100
AcDbEntity
  8
Layer 1
370
     0
100
AcDbSpline
210
0.0
220
0.0
230
1.0
 70
    11
 71
     3
 72
    29
 73
    25
 74
     0
 42
0.0000000001
 43
0.0000000001
 12
1.0
 22
0.0
 32
0.0
 13
1.0
 23
0.0
 33
0.0
 40
0.0
 40
0.0
 40
0.0
 40
0.0
 40
1.0
 40
1.0
 40
1.0
 40
2.0
 40
2.0
 40
2.0
 40
3.0
 40
3.0
 40
3.0
 40
4.0
 40
4.0
 40
4.0
 40
5.0
 40
5.0
 40
5.0
 40
6.0
 40
6.0
 40
6.0
 40
7.0
 40
7.0
 40
7.0
 40
8.0
 40
8.0
 40
8.0
 40
8.0
 10
355.4022587771415
 20
-595.7709528075502
 30
0.0
 10
331.6015952877615
 20
-595.7709528075502
 30
0.0
 10
312.207519424448
 20
-587.9827806104731
 30
0.0
 10
297.2165605222272
 20
-572.3948673330742
 30
0.0
 10
282.2256016200072
 20
-556.8115816089703
 30
0.0
 10
274.7301221688977
 20
-534.0706278243624
 30
0.0
 10
274.7301221688977
 20
-504.1720059792488
 30
0.0
 10
274.7301221688977
 20
-474.2780116874337
 30
0.0
 10
282.3088975793344
 20
-451.6191969738275
 30
0.0
 10
297.4710759535046
 20
-436.2048169450309
 30
0.0
 10
312.6286267743799
 20
-420.7927506928781
 30
0.0
 10
332.192765221318
 20
-413.080933125183
 30
0.0
 10
356.1646481826483
 20
-413.080933125183
 30
0.0
 10
380.1319035906818
 20
-413.080933125183
 30
0.0
 10
399.4866452509796
 20
-420.6654929772403
 30
0.0
 10
414.223088721923
 20
-435.8230437981138
 30
0.0
 10
428.9606890811901
 20
-450.9852221722858
 30
0.0
 10
436.3289108166609
 20
-473.9355727435313
 30
0.0
 10
436.3289108166609
 20
-504.6810368418073
 30
0.0
 10
436.3289108166609
 20
-535.4241871634285
 30
0.0
 10
428.7894696092399
 20
-558.2923986636779
 30
0.0
 10
413.7152147476936
 20
-573.2856713425463
 30
0.0
 10
398.6363323328496
 20
-588.2766302447635
 30
0.0
 10
379.1994516015475
 20
-595.7709528075502
 30
0.0
 10
355.4022587771415
 20
-595.7709528075502
 30
0.0
  0
SPLINE
  5
5F
330
58
100
AcDbEntity
  8
Layer 1
370
     0
100
AcDbSpline
210
0.0
220
0.0
230
1.0
 70
    11
 71
     3
 72
    29
 73
    25
 74
     0
 42
0.0000000001
 43
0.0000000001
 12
1.0
 22
0.0
 32
0.0
 13
1.0
 23
0.0
 33
0.0
 40
0.0
 40
0.0
 40
0.0
 40
0.0
 40
1.0
 40
1.0
 40
1.0
 40
2.0
 40
2.0
 40
2.0
 40
3.0
 40
3.0
 40
3.0
 40
4.0
 40
4.0
 40
4.0
 40
5.0
 40
5.0
 40
5.0
 40
6.0
 40
6.0
 40
6.0
 40
7.0
 40
7.0
 40
7.0
 40
8.0
 40
8.0
 40
8.0
 40
8.0
 10
355.5295164927793
 20
-461.8669137477036
 30
0.0
 10
347.3989053518007
 20
-461.8669137477036
 30
0.0
 10
340.577891793575
 20
-465.5944079275896
 30
0.0
 10
335.0757309246928
 20
-473.0470825107104
 30
0.0
 10
329.5689425025166
 20
-480.5020708704824
 30
0.0
 10
326.8178620680765
 20
-490.9603413193208
 30
0.0
 10
326.8178620680765
 20
-504.426521410528
 30
0.0
 10
326.8178620680765
 20
-517.8927015017316
 30
0.0
 10
329.4416847868779
 20
-528.2260280115834
 30
0.0
 10
334.6939577777785
 20
-535.4241871634285
 30
0.0
 10
339.942760103706
 20
-542.6269738685696
 30
0.0
 10
346.8470696212589
 20
-546.2225827795228
 30
0.0
 10
355.4022587771415
 20
-546.2225827795228
 30
0.0
 10
363.9539772680509
 20
-546.2225827795228
 30
0.0
 10
370.9022485419155
 20
-542.5830121122599
 30
0.0
 10
376.2378174921423
 20
-535.2969294477907
 30
0.0
 10
381.5733864423692
 20
-528.0154743366174
 30
0.0
 10
384.241170917483
 20
-517.5988518674412
 30
0.0
 10
384.241170917483
 20
-504.0447482636146
 30
0.0
 10
384.241170917483
 20
-490.4952722130793
 30
0.0
 10
381.4866198180698
 20
-480.0763359672555
 30
0.0
 10
375.9833020608658
 20
-472.7925670794348
 30
0.0
 10
370.4765136386886
 20
-465.5111119682615
 30
0.0
 10
363.6601276337578
 20
-461.8669137477036
 30
0.0
 10
355.5295164927793
 20
-461.8669137477036
 30
0.0
  0
HATCH
  5
60
330
58
100
AcDbEntity
  8
Layer 1
 62
     7
420
 16777215
100
AcDbHatch
 10
0.0
 20
0.0
 30
0.0
210
0.0
220
0.0
230
1.0
  2
SOLID
 70
     1
 71
     0
 91
        2
 92
        1
 93
        1
 72
     4
 94
        3
 73
     0
 74
     1
 95
       29
 96
       25
 40
0.0
 40
0.0
 40
0.0
 40
0.0
 40
1.0
 40
1.0
 40
1.0
 40
2.0
 40
2.0
 40
2.0
 40
3.0
 40
3.0
 40
3.0
 40
4.0
 40
4.0
 40
4.0
 40
5.0
 40
5.0
 40
5.0
 40
6.0
 40
6.0
 40
6.0
 40
7.0
 40
7.0
 40
7.0
 40
8.0
 40
8.0
 40
8.0
 40
8.0
 10
355.4022587771415
 20
-595.7709528075502
 10
331.6015952877615
 20
-595.7709528075502
 10
312.207519424448
 20
-587.9827806104731
 10
297.2165605222272
 20
-572.3948673330742
 10
282.2256016200072
 20
-556.8115816089703
 10
274.7301221688977
 20
-534.0706278243624
 10
274.7301221688977
 20
-504.1720059792488
 10
274.7301221688977
 20
-474.2780116874337
 10
282.3088975793344
 20
-451.6191969738275
 10
297.4710759535046
 20
-436.2048169450309
 10
312.6286267743799
 20
-420.7927506928781
 10
332.192765221318
 20
-413.080933125183
 10
356.1646481826483
 20
-413.080933125183
 10
380.1319035906818
 20
-413.080933125183
 10
399.4866452509796
 20
-420.6654929772403
 10
414.223088721923
 20
-435.8230437981138
 10
428.9606890811901
 20
-450.9852221722858
 10
436.3289108166609
 20
-473.9355727435313
 10
436.3289108166609
 20
-504.6810368418073
 10
436.3289108166609
 20
-535.4241871634285
 10
428.7894696092399
 20
-558.2923986636779
 10
413.7152147476936
 20
-573.2856713425463
 10
398.6363323328496
 20
-588.2766302447635
 10
379.1994516015475
 20
-595.7709528075502
 10
355.4022587771415
 20
-595.7709528075502
 97
        0
 97
        0
 92
        1
 93
        1
 72
     4
 94
        3
 73
     0
 74
     1
 95
       29
 96
       25
 40
0.0
 40
0.0
 40
0.0
 40
0.0
 40
1.0
 40
1.0
 40
1.0
 40
2.0
 40
2.0
 40
2.0
 40
3.0
 40
3.0
 40
3.0
 40
4.0
 40
4.0
 40
4.0
 40
5.0
 40
5.0
 40
5.0
 40
6.0
 40
6.0
 40
6.0
 40
7.0
 40
7.0
 40
7.0
 40
8.0
 40
8.0
 40
8.0
 40
8.0
 10
355.5295164927793
 20
-461.8669137477036
 10
347.3989053518007
 20
-461.8669137477036
 10
340.577891793575
 20
-465.5944079275896
 10
335.0757309246928
 20
-473.0470825107104
 10
329.5689425025166
 20
-480.5020708704824
 10
326.8178620680765
 20
-490.9603413193208
 10
326.8178620680765
 20
-504.426521410528
 10
326.8178620680765
 20
-517.8927015017316
 10
329.4416847868779
 20
-528.2260280115834
 10
334.6939577777785
 20
-535.4241871634285
 10
339.942760103706
 20
-542.6269738685696
 10
346.8470696212589
 20
-546.2225827795228
 10
355.4022587771415
 20
-546.2225827795228
 10
363.9539772680509
 20
-546.2225827795228
 10
370.9022485419155
 20
-542.5830121122599
 10
376.2378174921423
 20
-535.2969294477907
 10
381.5733864423692
 20
-528.0154743366174
 10
384.241170917483
 20
-517.5988518674412
 10
384.241170917483
 20
-504.0447482636146
 10
384.241170917483
 20
-490.4952722130793
 10
381.4866198180698
 20
-480.0763359672555
 10
375.9833020608658
 20
-472.7925670794348
 10
370.4765136386886
 20
-465.5111119682615
 10
363.6601276337578
 20
-461.8669137477036
 10
355.5295164927793
 20
-461.8669137477036
 97
        0
 97
        0
 75
     2
 76
     1
 98
        0
  0
SPLINE
  5
61
330
58
100
AcDbEntity
  8
Layer 1
370
     0
100
AcDbSpline
210
0.0
220
0.0
230
1.0
 70
    11
 71
     3
 72
    44
 73
    40
 74
     0
 42
0.0000000001
 43
0.0000000001
 12
1.0
 22
0.0
 32
0.0
 13
1.0
 23
0.0
 33
0.0
 40
0.0
 40
0.0
 40
0.0
 40
0.0
 40
1.0
 40
1.0
 40
1.0
 40
2.0
 40
2.0
 40
2.0
 40
3.0
 40
3.0
 40
3.0
 40
4.0
 40
4.0
 40
4.0
 40
5.0
 40
5.0
 40
5.0
 40
6.0
 40
6.0
 40
6.0
 40
7.0
 40
7.0
 40
7.0
 40
8.0
 40
8.0
 40
8.0
 40
9.0
 40
9.0
 40
9.0
 40
10.0
 40
10.0
 40
10.0
 40
11.0
 40
11.0
 40
11.0
 40
12.0
 40
12.0
 40
12.0
 40
13.0
 40
13.0
 40
13.0
 40
13.0
 10
446.7466901741627
 20
-418.6710175066864
 30
0.0
 10
446.7466901741627
 20
-417.8264890301753
 30
0.0
 10
450.4313794860591
 20
-417.0212947566788
 30
0.0
 10
457.7996012215317
 20
-416.2577484628482
 30
0.0
 10
465.1678229570025
 20
-415.4965159456688
 30
0.0
 10
471.2218195564255
 20
-415.1147427987516
 30
0.0
 10
475.9662185730949
 20
-415.1147427987516
 30
0.0
 10
494.7691245028518
 20
-415.1147427987516
 30
0.0
 10
504.5911063734984
 20
-417.5719735988996
 30
0.0
 10
505.4402624033055
 20
-422.484121422548
 30
0.0
 10
505.4402624033055
 20
-422.484121422548
 30
0.0
 10
527.2915690667669
 20
-534.2811814993283
 30
0.0
 10
527.2915690667669
 20
-534.2811814993283
 30
0.0
 10
527.2915690667669
 20
-534.2811814993283
 30
0.0
 10
547.8737692388149
 20
-422.484121422548
 30
0.0
 10
547.8737692388149
 20
-422.484121422548
 30
0.0
 10
548.8895171872755
 20
-417.5719735988996
 30
0.0
 10
559.3917493924273
 20
-415.1147427987516
 30
0.0
 10
579.3804658542704
 20
-415.1147427987516
 30
0.0
 10
584.2902999012695
 20
-415.1147427987516
 30
0.0
 10
590.4727111046541
 20
-415.4571817426504
 30
0.0
 10
597.927699464426
 20
-416.130490747214
 30
0.0
 10
605.3803740475487
 20
-416.8107410817165
 30
0.0
 10
609.1078682274328
 20
-417.5719735988996
 30
0.0
 10
609.1078682274328
 20
-418.4188158520583
 30
0.0
 10
609.1078682274328
 20
-418.4188158520583
 30
0.0
 10
564.1349915207738
 20
-586.624593718112
 30
0.0
 10
564.1349915207738
 20
-586.624593718112
 30
0.0
 10
563.4570549629152
 20
-589.3363399495356
 30
0.0
 10
558.4569836266473
 20
-591.1133204151811
 30
0.0
 10
549.144032618553
 20
-591.9601626683398
 30
0.0
 10
534.7454005382133
 20
-593.4849414793498
 30
0.0
 10
521.6586798172757
 20
-593.7787911136475
 30
0.0
 10
509.8873411207105
 20
-592.8486529011607
 30
0.0
 10
498.1113748708494
 20
-591.9208284653214
 30
0.0
 10
491.886158799477
 20
-590.2687919386699
 30
0.0
 10
491.2116929065924
 20
-587.89485709785
 30
0.0
 10
491.2116929065924
 20
-587.89485709785
 30
0.0
 10
446.7466901741627
 20
-418.6710175066864
 30
0.0
 10
446.7466901741627
 20
-418.6710175066864
 30
0.0
  0
HATCH
  5
62
330
58
100
AcDbEntity
  8
Layer 1
 62
     7
420
 16777215
100
AcDbHatch
 10
0.0
 20
0.0
 30
0.0
210
0.0
220
0.0
230
1.0
  2
SOLID
 70
     1
 71
     0
 91
        1
 92
        1
 93
        1
 72
     4
 94
        3
 73
     0
 74
     1
 95
       44
 96
       40
 40
0.0
 40
0.0
 40
0.0
 40
0.0
 40
1.0
 40
1.0
 40
1.0
 40
2.0
 40
2.0
 40
2.0
 40
3.0
 40
3.0
 40
3.0
 40
4.0
 40
4.0
 40
4.0
 40
5.0
 40
5.0
 40
5.0
 40
6.0
 40
6.0
 40
6.0
 40
7.0
 40
7.0
 40
7.0
 40
8.0
 40
8.0
 40
8.0
 40
9.0
 40
9.0
 40
9.0
 40
10.0
 40
10.0
 40
10.0
 40
11.0
 40
11.0
 40
11.0
 40
12.0
 40
12.0
 40
12.0
 40
13.0
 40
13.0
 40
13.0
 40
13.0
 10
446.7466901741627
 20
-418.6710175066864
 10
446.7466901741627
 20
-417.8264890301753
 10
450.4313794860591
 20
-417.0212947566788
 10
457.7996012215317
 20
-416.2577484628482
 10
465.1678229570025
 20
-415.4965159456688
 10
471.2218195564255
 20
-415.1147427987516
 10
475.9662185730949
 20
-415.1147427987516
 10
494.7691245028518
 20
-415.1147427987516
 10
504.5911063734984
 20
-417.5719735988996
 10
505.4402624033055
 20
-422.484121422548
 10
505.4402624033055
 20
-422.484121422548
 10
527.2915690667669
 20
-534.2811814993283
 10
527.2915690667669
 20
-534.2811814993283
 10
527.2915690667669
 20
-534.2811814993283
 10
547.8737692388149
 20
-422.484121422548
 10
547.8737692388149
 20
-422.484121422548
 10
548.8895171872755
 20
-417.5719735988996
 10
559.3917493924273
 20
-415.1147427987516
 10
579.3804658542704
 20
-415.1147427987516
 10
584.2902999012695
 20
-415.1147427987516
 10
590.4727111046541
 20
-415.4571817426504
 10
597.927699464426
 20
-416.130490747214
 10
605.3803740475487
 20
-416.8107410817165
 10
609.1078682274328
 20
-417.5719735988996
 10
609.1078682274328
 20
-418.4188158520583
 10
609.1078682274328
 20
-418.4188158520583
 10
564.1349915207738
 20
-586.624593718112
 10
564.1349915207738
 20
-586.624593718112
 10
563.4570549629152
 20
-589.3363399495356
 10
558.4569836266473
 20
-591.1133204151811
 10
549.144032618553
 20
-591.9601626683398
 10
534.7454005382133
 20
-593.4849414793498
 10
521.6586798172757
 20
-593.7787911136475
 10
509.8873411207105
 20
-592.8486529011607
 10
498.1113748708494
 20
-591.9208284653214
 10
491.886158799477
 20
-590.2687919386699
 10
491.2116929065924
 20
-587.89485709785
 10
491.2116929065924
 20
-587.89485709785
 10
446.7466901741627
 20
-418.6710175066864
 10
446.7466901741627
 20
-418.6710175066864
 97
        0
 97
        0
 75
     2
 76
     1
 98
        0
  0
SPLINE
  5
63
330
58
100
AcDbEntity
  8
Layer 1
370
     0
100
AcDbSpline
210
0.0
220
0.0
230
1.0
 70
    11
 71
     3
 72
    65
 73
    61
 74
     0
 42
0.0000000001
 43
0.0000000001
 12
1.0
 22
0.0
 32
0.0
 13
1.0
 23
0.0
 33
0.0
 40
0.0
 40
0.0
 40
0.0
 40
0.0
 40
1.0
 40
1.0
 40
1.0
 40
2.0
 40
2.0
 40
2.0
 40
3.0
 40
3.0
 40
3.0
 40
4.0
 40
4.0
 40
4.0
 40
5.0
 40
5.0
 40
5.0
 40
6.0
 40
6.0
 40
6.0
 40
7.0
 40
7.0
 40
7.0
 40
8.0
 40
8.0
 40
8.0
 40
9.0
 40
9.0
 40
9.0
 40
10.0
 40
10.0
 40
10.0
 40
11.0
 40
11.0
 40
11.0
 40
12.0
 40
12.0
 40
12.0
 40
13.0
 40
13.0
 40
13.0
 40
14.0
 40
14.0
 40
14.0
 40
15.0
 40
15.0
 40
15.0
 40
16.0
 40
16.0
 40
16.0
 40
17.0
 40
17.0
 40
17.0
 40
18.0
 40
18.0
 40
18.0
 40
19.0
 40
19.0
 40
19.0
 40
20.0
 40
20.0
 40
20.0
 40
20.0
 10
707.184232781734
 20
-486.0042317393627
 30
0.0
 10
710.4003823224175
 20
-486.0042317393627
 30
0.0
 10
712.0130846460543
 20
-491.9367550647685
 30
0.0
 10
712.0130846460543
 20
-503.7902328323353
 30
0.0
 10
712.0130846460543
 20
-507.3488213169176
 30
0.0
 10
711.6313114991372
 20
-511.5413846030451
 30
0.0
 10
710.8700789819541
 20
-516.3679226907179
 30
0.0
 10
710.1065326881235
 20
-521.1967745550382
 30
0.0
 10
708.7090115927476
 20
-523.6100435988765
 30
0.0
 10
706.6775156958265
 20
-523.6100435988765
 30
0.0
 10
706.6775156958265
 20
-523.6100435988765
 30
0.0
 10
674.4072727865405
 20
-523.6100435988765
 30
0.0
 10
674.4072727865405
 20
-523.6100435988765
 30
0.0
 10
674.4072727865405
 20
-523.6100435988765
 30
0.0
 10
674.4072727865405
 20
-549.0187818585982
 30
0.0
 10
674.4072727865405
 20
-549.0187818585982
 30
0.0
 10
674.4072727865405
 20
-549.0187818585982
 30
0.0
 10
721.1594437354925
 20
-549.0187818585982
 30
0.0
 10
721.1594437354925
 20
-549.0187818585982
 30
0.0
 10
724.0377818855723
 20
-549.0187818585982
 30
0.0
 10
725.9882955998146
 20
-552.7462760384842
 30
0.0
 10
727.0040435482751
 20
-560.198950621605
 30
0.0
 10
727.5107606341808
 20
-563.4197277155836
 30
0.0
 10
727.7652760654582
 20
-566.8487447078805
 30
0.0
 10
727.7652760654582
 20
-570.4906291517909
 30
0.0
 10
727.7652760654582
 20
-574.1348273723488
 30
0.0
 10
727.2585589795508
 20
-578.8341077443838
 30
0.0
 10
726.2404972544427
 20
-584.5907840445398
 30
0.0
 10
725.2247493059822
 20
-590.352087897998
 30
0.0
 10
723.5287510230173
 20
-593.2304260480742
 30
0.0
 10
721.1594437354925
 20
-593.2304260480742
 30
0.0
 10
721.1594437354925
 20
-593.2304260480742
 30
0.0
 10
634.2609341675543
 20
-593.2304260480742
 30
0.0
 10
634.2609341675543
 20
-593.2304260480742
 30
0.0
 10
627.8216937562429
 20
-593.2304260480742
 30
0.0
 10
624.6055442155593
 20
-590.6066033292736
 30
0.0
 10
624.6055442155593
 20
-585.3543303383703
 30
0.0
 10
624.6055442155593
 20
-585.3543303383703
 30
0.0
 10
624.6055442155593
 20
-421.9750905599931
 30
0.0
 10
624.6055442155593
 20
-421.9750905599931
 30
0.0
 10
624.6055442155593
 20
-417.5719735988996
 30
0.0
 10
626.5514303765049
 20
-415.3692582300273
 30
0.0
 10
630.4501440283402
 20
-415.3692582300273
 30
0.0
 10
630.4501440283402
 20
-415.3692582300273
 30
0.0
 10
721.4139591667699
 20
-415.3692582300273
 30
0.0
 10
721.4139591667699
 20
-415.3692582300273
 30
0.0
 10
724.9702338747065
 20
-415.3692582300273
 30
0.0
 10
726.7495281169977
 20
-422.863580792814
 30
0.0
 10
726.7495281169977
 20
-437.8545396950349
 30
0.0
 10
726.7495281169977
 20
-452.8454985972558
 30
0.0
 10
724.9702338747065
 20
-460.3421349366899
 30
0.0
 10
721.4139591667699
 20
-460.3421349366899
 30
0.0
 10
721.4139591667699
 20
-460.3421349366899
 30
0.0
 10
674.4072727865405
 20
-460.3421349366899
 30
0.0
 10
674.4072727865405
 20
-460.3421349366899
 30
0.0
 10
674.4072727865405
 20
-460.3421349366899
 30
0.0
 10
674.4072727865405
 20
-486.0042317393627
 30
0.0
 10
674.4072727865405
 20
-486.0042317393627
 30
0.0
 10
674.4072727865405
 20
-486.0042317393627
 30
0.0
 10
707.184232781734
 20
-486.0042317393627
 30
0.0
 10
707.184232781734
 20
-486.0042317393627
 30
0.0
  0
HATCH
  5
64
330
58
100
AcDbEntity
  8
Layer 1
 62
     7
420
 16777215
100
AcDbHatch
 10
0.0
 20
0.0
 30
0.0
210
0.0
220
0.0
230
1.0
  2
SOLID
 70
     1
 71
     0
 91
        1
 92
        1
 93
        1
 72
     4
 94
        3
 73
     0
 74
     1
 95
       65
 96
       61
 40
0.0
 40
0.0
 40
0.0
 40
0.0
 40
1.0
 40
1.0
 40
1.0
 40
2.0
 40
2.0
 40
2.0
 40
3.0
 40
3.0
 40
3.0
 40
4.0
 40
4.0
 40
4.0
 40
5.0
 40
5.0
 40
5.0
 40
6.0
 40
6.0
 40
6.0
 40
7.0
 40
7.0
 40
7.0
 40
8.0
 40
8.0
 40
8.0
 40
9.0
 40
9.0
 40
9.0
 40
10.0
 40
10.0
 40
10.0
 40
11.0
 40
11.0
 40
11.0
 40
12.0
 40
12.0
 40
12.0
 40
13.0
 40
13.0
 40
13.0
 40
14.0
 40
14.0
 40
14.0
 40
15.0
 40
15.0
 40
15.0
 40
16.0
 40
16.0
 40
16.0
 40
17.0
 40
17.0
 40
17.0
 40
18.0
 40
18.0
 40
18.0
 40
19.0
 40
19.0
 40
19.0
 40
20.0
 40
20.0
 40
20.0
 40
20.0
 10
707.184232781734
 20
-486.0042317393627
 10
710.4003823224175
 20
-486.0042317393627
 10
712.0130846460543
 20
-491.9367550647685
 10
712.0130846460543
 20
-503.7902328323353
 10
712.0130846460543
 20
-507.3488213169176
 10
711.6313114991372
 20
-511.5413846030451
 10
710.8700789819541
 20
-516.3679226907179
 10
710.1065326881235
 20
-521.1967745550382
 10
708.7090115927476
 20
-523.6100435988765
 10
706.6775156958265
 20
-523.6100435988765
 10
706.6775156958265
 20
-523.6100435988765
 10
674.4072727865405
 20
-523.6100435988765
 10
674.4072727865405
 20
-523.6100435988765
 10
674.4072727865405
 20
-523.6100435988765
 10
674.4072727865405
 20
-549.0187818585982
 10
674.4072727865405
 20
-549.0187818585982
 10
674.4072727865405
 20
-549.0187818585982
 10
721.1594437354925
 20
-549.0187818585982
 10
721.1594437354925
 20
-549.0187818585982
 10
724.0377818855723
 20
-549.0187818585982
 10
725.9882955998146
 20
-552.7462760384842
 10
727.0040435482751
 20
-560.198950621605
 10
727.5107606341808
 20
-563.4197277155836
 10
727.7652760654582
 20
-566.8487447078805
 10
727.7652760654582
 20
-570.4906291517909
 10
727.7652760654582
 20
-574.1348273723488
 10
727.2585589795508
 20
-578.8341077443838
 10
726.2404972544427
 20
-584.5907840445398
 10
725.2247493059822
 20
-590.352087897998
 10
723.5287510230173
 20
-593.2304260480742
 10
721.1594437354925
 20
-593.2304260480742
 10
721.1594437354925
 20
-593.2304260480742
 10
634.2609341675543
 20
-593.2304260480742
 10
634.2609341675543
 20
-593.2304260480742
 10
627.8216937562429
 20
-593.2304260480742
 10
624.6055442155593
 20
-590.6066033292736
 10
624.6055442155593
 20
-585.3543303383703
 10
624.6055442155593
 20
-585.3543303383703
 10
624.6055442155593
 20
-421.9750905599931
 10
624.6055442155593
 20
-421.9750905599931
 10
624.6055442155593
 20
-417.5719735988996
 10
626.5514303765049
 20
-415.3692582300273
 10
630.4501440283402
 20
-415.3692582300273
 10
630.4501440283402
 20
-415.3692582300273
 10
721.4139591667699
 20
-415.3692582300273
 10
721.4139591667699
 20
-415.3692582300273
 10
724.9702338747065
 20
-415.3692582300273
 10
726.7495281169977
 20
-422.863580792814
 10
726.7495281169977
 20
-437.8545396950349
 10
726.7495281169977
 20
-452.8454985972558
 10
724.9702338747065
 20
-460.3421349366899
 10
721.4139591667699
 20
-460.3421349366899
 10
721.4139591667699
 20
-460.3421349366899
 10
674.4072727865405
 20
-460.3421349366899
 10
674.4072727865405
 20
-460.3421349366899
 10
674.4072727865405
 20
-460.3421349366899
 10
674.4072727865405
 20
-486.0042317393627
 10
674.4072727865405
 20
-486.0042317393627
 10
674.4072727865405
 20
-486.0042317393627
 10
707.184232781734
 20
-486.0042317393627
 10
707.184232781734
 20
-486.0042317393627
 97
        0
 97
        0
 75
     2
 76
     1
 98
        0
  0
SPLINE
  5
65
330
58
100
AcDbEntity
  8
Layer 1
370
     0
100
AcDbSpline
210
0.0
220
0.0
230
1.0
 70
    11
 71
     3
 72
    32
 73
    28
 74
     0
 42
0.0000000001
 43
0.0000000001
 12
1.0
 22
0.0
 32
0.0
 13
1.0
 23
0.0
 33
0.0
 40
0.0
 40
0.0
 40
0.0
 40
0.0
 40
1.0
 40
1.0
 40
1.0
 40
2.0
 40
2.0
 40
2.0
 40
3.0
 40
3.0
 40
3.0
 40
4.0
 40
4.0
 40
4.0
 40
5.0
 40
5.0
 40
5.0
 40
6.0
 40
6.0
 40
6.0
 40
7.0
 40
7.0
 40
7.0
 40
8.0
 40
8.0
 40
8.0
 40
9.0
 40
9.0
 40
9.0
 40
9.0
 10
749.8687843835487
 20
-581.5435401991599
 30
0.0
 10
749.8687843835487
 20
-581.5435401991599
 30
0.0
 10
749.8687843835487
 20
-429.0899537525102
 30
0.0
 10
749.8687843835487
 20
-429.0899537525102
 30
0.0
 10
749.8687843835487
 20
-424.8580562633679
 30
0.0
 10
750.9261803116733
 20
-421.5100214537515
 30
0.0
 10
753.0455997212157
 20
-419.0527906535999
 30
0.0
 10
755.1627053541124
 20
-416.6001874067506
 30
0.0
 10
757.9137857885526
 20
-415.3692582300273
 30
0.0
 10
761.303468577833
 20
-415.3692582300273
 30
0.0
 10
761.303468577833
 20
-415.3692582300273
 30
0.0
 10
803.7335047483703
 20
-415.3692582300273
 30
0.0
 10
803.7335047483703
 20
-415.3692582300273
 30
0.0
 10
830.6704924840778
 20
-415.3692582300273
 30
0.0
 10
851.1242780521643
 20
-422.1463100319443
 30
0.0
 10
865.0994890059246
 20
-435.6957860824759
 30
0.0
 10
879.0700724063881
 20
-449.2498896863062
 30
0.0
 10
886.0576778832674
 20
-470.5921654872136
 30
0.0
 10
886.0576778832674
 20
-499.7249272618456
 30
0.0
 10
886.0576778832674
 20
-562.0661683765175
 30
0.0
 10
859.4631290914604
 20
-593.2304260480742
 30
0.0
 10
806.2786590611413
 20
-593.2304260480742
 30
0.0
 10
806.2786590611413
 20
-593.2304260480742
 30
0.0
 10
762.8282473888485
 20
-593.2304260480742
 30
0.0
 10
762.8282473888485
 20
-593.2304260480742
 30
0.0
 10
754.1886053853141
 20
-593.2304260480742
 30
0.0
 10
749.8687843835487
 20
-589.3363399495356
 30
0.0
 10
749.8687843835487
 20
-581.5435401991599
 30
0.0
  0
SPLINE
  5
66
330
58
100
AcDbEntity
  8
Layer 1
370
     0
100
AcDbSpline
210
0.0
220
0.0
230
1.0
 70
    11
 71
     3
 72
    29
 73
    25
 74
     0
 42
0.0000000001
 43
0.0000000001
 12
1.0
 22
0.0
 32
0.0
 13
1.0
 23
0.0
 33
0.0
 40
0.0
 40
0.0
 40
0.0
 40
0.0
 40
1.0
 40
1.0
 40
1.0
 40
2.0
 40
2.0
 40
2.0
 40
3.0
 40
3.0
 40
3.0
 40
4.0
 40
4.0
 40
4.0
 40
5.0
 40
5.0
 40
5.0
 40
6.0
 40
6.0
 40
6.0
 40
7.0
 40
7.0
 40
7.0
 40
8.0
 40
8.0
 40
8.0
 40
8.0
 10
798.6524512294218
 20
-463.6462079899966
 30
0.0
 10
798.6524512294218
 20
-463.6462079899966
 30
0.0
 10
798.6524512294218
 20
-539.6167504495597
 30
0.0
 10
798.6524512294218
 20
-539.6167504495597
 30
0.0
 10
798.6524512294218
 20
-543.1753389341393
 30
0.0
 10
798.9069666606974
 20
-545.4220160593213
 30
0.0
 10
799.4159975232524
 20
-546.3498404951606
 30
0.0
 10
799.9250283858055
 20
-547.2822924842949
 30
0.0
 10
801.4474934201735
 20
-547.7473615905365
 30
0.0
 10
803.9880201796477
 20
-547.7473615905365
 30
0.0
 10
813.3032849643896
 20
-547.7473615905365
 30
0.0
 10
820.378813953892
 20
-544.2790103952248
 30
0.0
 10
825.2053520415648
 20
-537.3307391213593
 30
0.0
 10
830.0318901292376
 20
-530.3870954007898
 30
0.0
 10
832.4474729497215
 20
-518.8251534908695
 30
0.0
 10
832.4474729497215
 20
-502.6472271682387
 30
0.0
 10
832.4474729497215
 20
-486.4739283989029
 30
0.0
 10
829.9485941699113
 20
-475.9277344374377
 30
0.0
 10
824.9508366102873
 20
-471.0132728371418
 30
0.0
 10
819.9530790506651
 20
-466.1034387901409
 30
0.0
 10
812.0353353613009
 20
-463.6462079899966
 30
0.0
 10
801.192977988896
 20
-463.6462079899966
 30
0.0
 10
801.192977988896
 20
-463.6462079899966
 30
0.0
 10
798.6524512294218
 20
-463.6462079899966
 30
0.0
 10
798.6524512294218
 20
-463.6462079899966
 30
0.0
  0
HATCH
  5
67
330
58
100
AcDbEntity
  8
Layer 1
 62
     7
420
 16777215
100
AcDbHatch
 10
0.0
 20
0.0
 30
0.0
210
0.0
220
0.0
230
1.0
  2
SOLID
 70
     1
 71
     0
 91
        2
 92
        1
 93
        1
 72
     4
 94
        3
 73
     0
 74
     1
 95
       32
 96
       28
 40
0.0
 40
0.0
 40
0.0
 40
0.0
 40
1.0
 40
1.0
 40
1.0
 40
2.0
 40
2.0
 40
2.0
 40
3.0
 40
3.0
 40
3.0
 40
4.0
 40
4.0
 40
4.0
 40
5.0
 40
5.0
 40
5.0
 40
6.0
 40
6.0
 40
6.0
 40
7.0
 40
7.0
 40
7.0
 40
8.0
 40
8.0
 40
8.0
 40
9.0
 40
9.0
 40
9.0
 40
9.0
 10
749.8687843835487
 20
-581.5435401991599
 10
749.8687843835487
 20
-581.5435401991599
 10
749.8687843835487
 20
-429.0899537525102
 10
749.8687843835487
 20
-429.0899537525102
 10
749.8687843835487
 20
-424.8580562633679
 10
750.9261803116733
 20
-421.5100214537515
 10
753.0455997212157
 20
-419.0527906535999
 10
755.1627053541124
 20
-416.6001874067506
 10
757.9137857885526
 20
-415.3692582300273
 10
761.303468577833
 20
-415.3692582300273
 10
761.303468577833
 20
-415.3692582300273
 10
803.7335047483703
 20
-415.3692582300273
 10
803.7335047483703
 20
-415.3692582300273
 10
830.6704924840778
 20
-415.3692582300273
 10
851.1242780521643
 20
-422.1463100319443
 10
865.0994890059246
 20
-435.6957860824759
 10
879.0700724063881
 20
-449.2498896863062
 10
886.0576778832674
 20
-470.5921654872136
 10
886.0576778832674
 20
-499.7249272618456
 10
886.0576778832674
 20
-562.0661683765175
 10
859.4631290914604
 20
-593.2304260480742
 10
806.2786590611413
 20
-593.2304260480742
 10
806.2786590611413
 20
-593.2304260480742
 10
762.8282473888485
 20
-593.2304260480742
 10
762.8282473888485
 20
-593.2304260480742
 10
754.1886053853141
 20
-593.2304260480742
 10
749.8687843835487
 20
-589.3363399495356
 10
749.8687843835487
 20
-581.5435401991599
 97
        0
 97
        0
 92
        1
 93
        1
 72
     4
 94
        3
 73
     0
 74
     1
 95
       29
 96
       25
 40
0.0
 40
0.0
 40
0.0
 40
0.0
 40
1.0
 40
1.0
 40
1.0
 40
2.0
 40
2.0
 40
2.0
 40
3.0
 40
3.0
 40
3.0
 40
4.0
 40
4.0
 40
4.0
 40
5.0
 40
5.0
 40
5.0
 40
6.0
 40
6.0
 40
6.0
 40
7.0
 40
7.0
 40
7.0
 40
8.0
 40
8.0
 40
8.0
 40
8.0
 10
798.6524512294218
 20
-463.6462079899966
 10
798.6524512294218
 20
-463.6462079899966
 10
798.6524512294218
 20
-539.6167504495597
 10
798.6524512294218
 20
-539.6167504495597
 10
798.6524512294218
 20
-543.1753389341393
 10
798.9069666606974
 20
-545.4220160593213
 10
799.4159975232524
 20
-546.3498404951606
 10
799.9250283858055
 20
-547.2822924842949
 10
801.4474934201735
 20
-547.7473615905365
 10
803.9880201796477
 20
-547.7473615905365
 10
813.3032849643896
 20
-547.7473615905365
 10
820.378813953892
 20
-544.2790103952248
 10
825.2053520415648
 20
-537.3307391213593
 10
830.0318901292376
 20
-530.3870954007898
 10
832.4474729497215
 20
-518.8251534908695
 10
832.4474729497215
 20
-502.6472271682387
 10
832.4474729497215
 20
-486.4739283989029
 10
829.9485941699113
 20
-475.9277344374377
 10
824.9508366102873
 20
-471.0132728371418
 10
819.9530790506651
 20
-466.1034387901409
 10
812.0353353613009
 20
-463.6462079899966
 10
801.192977988896
 20
-463.6462079899966
 10
801.192977988896
 20
-463.6462079899966
 10
798.6524512294218
 20
-463.6462079899966
 10
798.6524512294218
 20
-463.6462079899966
 97
        0
 97
        0
 75
     2
 76
     1
 98
        0
  0
ENDBLK
  5
5B
330
58
100
AcDbEntity
  8
0
100
AcDbBlockEnd
  0
ENDSEC
  0
SECTION
  2
ENTITIES
  0
INSERT
  5
42
330
1F
100
AcDbEntity
  8
Layer 1
100
AcDbBlockReference
  2
block 2
 10
0.0
 20
0.0
 30
0.0
  0
ENDSEC
  0
SECTION
  2
OBJECTS
  0
DICTIONARY
  5
C
330
0
100
AcDbDictionary
281
     1
  3
ACAD_GROUP
350
D
  3
ACAD_LAYOUT
350
1A
  3
ACAD_MATERIAL
350
3B
  3
ACAD_MLEADERSTYLE
350
69
  3
ACAD_MLINESTYLE
350
17
  3
ACAD_PLOTSETTINGS
350
19
  3
ACAD_PLOTSTYLENAME
350
E
  3
ACAD_TABLESTYLE
350
68
  3
ACAD_VISUALSTYLE
350
2A
  0
SUN
  5
3F
330
29
100
AcDbSun
 90
        1
290
     0
 63
     7
421
 16777215
 40
1.0
291
     1
 91
  2455826
 92
 54000000
292
     0
 70
     2
 71
   256
280
     1
  0
DICTIONARY
  5
D
102
{ACAD_REACTORS
330
C
102
}
330
C
100
AcDbDictionary
281
     1
  0
DICTIONARY
  5
1A
102
{ACAD_REACTORS
330
C
102
}
330
C
100
AcDbDictionary
281
     1
  3
Layout1
350
1E
  3
Layout2
350
26
  3
Model
350
22
  0
DICTIONARY
  5
3B
102
{ACAD_REACTORS
330
C
102
}
330
C
100
AcDbDictionary
281
     1
  3
ByBlock
350
3D
  3
ByLayer
350
3C
  3
Global
350
3E
  0
DICTIONARY
  5
69
102
{ACAD_REACTORS
330
C
102
}
330
C
100
AcDbDictionary
281
     1
  0
DICTIONARY
  5
17
102
{ACAD_REACTORS
330
C
102
}
330
C
100
AcDbDictionary
281
     1
  3
Standard
350
18
  0
DICTIONARY
  5
19
102
{ACAD_REACTORS
330
C
102
}
330
C
100
AcDbDictionary
281
     1
  0
ACDBDICTIONARYWDFLT
  5
E
102
{ACAD_REACTORS
330
C
102
}
330
C
100
AcDbDictionary
281
     1
  3
Normal
350
F
100
AcDbDictionaryWithDefault
340
F
  0
DICTIONARY
  5
68
102
{ACAD_REACTORS
330
C
102
}
330
C
100
AcDbDictionary
281
     1
  0
DICTIONARY
  5
2A
102
{ACAD_REACTORS
330
C
102
}
330
C
100
AcDbDictionary
281
     1
  3
2dWireframe
350
2F
  3
3D Hidden
350
31
  3
3dWireframe
350
30
  3
Basic
350
32
  3
Brighten
350
36
  3
ColorChange
350
3A
  3
Conceptual
350
34
  3
Dim
350
35
  3
Facepattern
350
39
  3
Flat
350
2B
  3
FlatWithEdges
350
2C
  3
Gouraud
350
2D
  3
GouraudWithEdges
350
2E
  3
Linepattern
350
38
  3
Realistic
350
33
  3
Thicken
350
37
  0
LAYOUT
  5
1E
102
{ACAD_REACTORS
330
1A
102
}
330
1A
100
AcDbPlotSettings
  1

  2
none_device
  4

  6

 40
0.0
 41
0.0
 42
0.0
 43
0.0
 44
0.0
 45
0.0
 46
0.0
 47
0.0
 48
0.0
 49
0.0
140
0.0
141
0.0
142
1.0
143
1.0
 70
   688
 72
     0
 73
     0
 74
     5
  7

 75
    16
 76
     0
 77
     2
 78
   300
147
1.0
148
0.0
149
0.0
100
AcDbLayout
  1
Layout1
 70
     1
 71
     1
 10
0.0
 20
0.0
 11
12.0
 21
9.0
 12
0.0
 22
0.0
 32
0.0
 14
1.000000000000000E+20
 24
1.000000000000000E+20
 34
1.000000000000000E+20
 15
-1.000000000000000E+20
 25
-1.000000000000000E+20
 35
-1.000000000000000E+20
146
0.0
 13
0.0
 23
0.0
 33
0.0
 16
1.0
 26
0.0
 36
0.0
 17
0.0
 27
1.0
 37
0.0
 76
     0
330
1B
  0
LAYOUT
  5
26
102
{ACAD_REACTORS
330
1A
102
}
330
1A
100
AcDbPlotSettings
  1

  2
none_device
  4

  6

 40
0.0
 41
0.0
 42
0.0
 43
0.0
 44
0.0
 45
0.0
 46
0.0
 47
0.0
 48
0.0
 49
0.0
140
0.0
141
0.0
142
1.0
143
1.0
 70
   688
 72
     0
 73
     0
 74
     5
  7

 75
    16
 76
     0
 77
     2
 78
   300
147
1.0
148
0.0
149
0.0
100
AcDbLayout
  1
Layout2
 70
     1
 71
     2
 10
0.0
 20
0.0
 11
0.0
 21
0.0
 12
0.0
 22
0.0
 32
0.0
 14
0.0
 24
0.0
 34
0.0
 15
0.0
 25
0.0
 35
0.0
146
0.0
 13
0.0
 23
0.0
 33
0.0
 16
1.0
 26
0.0
 36
0.0
 17
0.0
 27
1.0
 37
0.0
 76
     0
330
23
  0
LAYOUT
  5
22
102
{ACAD_REACTORS
330
1A
102
}
330
1A
100
AcDbPlotSettings
  1

  2
none_device
  4

  6

 40
0.0
 41
0.0
 42
0.0
 43
0.0
 44
0.0
 45
0.0
 46
0.0
 47
0.0
 48
0.0
 49
0.0
140
0.0
141
0.0
142
1.0
143
1.0
 70
  1712
 72
     0
 73
     0
 74
     0
  7

 75
     0
 76
     0
 77
     2
 78
   300
147
1.0
148
0.0
149
0.0
100
AcDbLayout
  1
Model
 70
     1
 71
     0
 10
0.0
 20
0.0
 11
12.0
 21
9.0
 12
0.0
 22
0.0
 32
0.0
 14
1.000000000000000E+20
 24
1.000000000000000E+20
 34
1.000000000000000E+20
 15
-1.000000000000000E+20
 25
-1.000000000000000E+20
 35
-1.000000000000000E+20
146
0.0
 13
0.0
 23
0.0
 33
0.0
 16
1.0
 26
0.0
 36
0.0
 17
0.0
 27
1.0
 37
0.0
 76
     0
330
1F
331
29
  0
MATERIAL
  5
3D
102
{ACAD_REACTORS
330
3B
102
}
330
3B
100
AcDbMaterial
  1
ByBlock
 72
     1
 94
      127
  0
MATERIAL
  5
3C
102
{ACAD_REACTORS
330
3B
102
}
330
3B
100
AcDbMaterial
  1
ByLayer
 72
     1
 94
      127
  0
MATERIAL
  5
3E
102
{ACAD_REACTORS
330
3B
102
}
330
3B
100
AcDbMaterial
  1
Global
 72
     1
 94
      127
  0
MLINESTYLE
  5
18
102
{ACAD_REACTORS
330
17
102
}
330
17
100
AcDbMlineStyle
  2
Standard
 70
     0
  3

 62
   256
 51
90.0
 52
90.0
 71
     2
 49
0.5
 62
   256
  6
BYLAYER
 49
-0.5
 62
   256
  6
BYLAYER
  0
ACDBPLACEHOLDER
  5
F
102
{ACAD_REACTORS
330
E
102
}
330
E
  0
VISUALSTYLE
  5
2F
102
{ACAD_REACTORS
330
2A
102
}
330
2A
100
AcDbVisualStyle
  2
2dWireframe
 70
     4
177
     2
291
     0
 71
     0
176
     1
 72
     2
176
     1
 73
     0
176
     1
 90
        0
176
     1
 40
-0.6
176
     1
 41
-30.0
176
     1
 62
     5
 63
     7
421
 16777215
176
     1
 74
     1
176
     1
 91
        4
176
     1
 64
     7
176
     1
 65
   257
176
     1
 75
     1
176
     1
175
     1
176
     1
 42
1.0
176
     1
 92
        0
176
     1
 66
   257
176
     1
 43
1.0
176
     1
 76
     1
176
     1
 77
     6
176
     1
 78
     2
176
     1
 67
     7
176
     1
 79
     5
176
     1
170
     0
176
     1
171
     0
176
     1
290
     0
176
     1
 93
        1
176
     1
 44
0.0
176
     1
173
     0
176
     1
  0
VISUALSTYLE
  5
31
102
{ACAD_REACTORS
330
2A
102
}
330
2A
100
AcDbVisualStyle
  2
3D Hidden
 70
     6
177
     2
291
     0
 71
     1
176
     1
 72
     2
176
     1
 73
     2
176
     1
 90
        0
176
     1
 40
-0.6
176
     1
 41
-30.0
176
     1
 62
     5
 63
     7
421
 16777215
176
     1
 74
     2
176
     1
 91
        2
176
     1
 64
     7
176
     1
 65
   257
176
     1
 75
     2
176
     1
175
     1
176
     1
 42
40.0
176
     1
 92
        0
176
     1
 66
   257
176
     1
 43
1.0
176
     1
 76
     1
176
     1
 77
     6
176
     1
 78
     2
176
     1
 67
     7
176
     1
 79
     3
176
     1
170
     0
176
     1
171
     0
176
     1
290
     0
176
     1
 93
        1
176
     1
 44
0.0
176
     1
173
     0
176
     1
  0
VISUALSTYLE
  5
30
102
{ACAD_REACTORS
330
2A
102
}
330
2A
100
AcDbVisualStyle
  2
3dWireframe
 70
     5
177
     2
291
     0
 71
     0
176
     1
 72
     2
176
     1
 73
     0
176
     1
 90
        0
176
     1
 40
-0.6
176
     1
 41
-30.0
176
     1
 62
     5
 63
     7
421
 16777215
176
     1
 74
     1
176
     1
 91
        4
176
     1
 64
     7
176
     1
 65
   257
176
     1
 75
     1
176
     1
175
     1
176
     1
 42
1.0
176
     1
 92
        0
176
     1
 66
   257
176
     1
 43
1.0
176
     1
 76
     1
176
     1
 77
     6
176
     1
 78
     2
176
     1
 67
     7
176
     1
 79
     5
176
     1
170
     0
176
     1
171
     0
176
     1
290
     0
176
     1
 93
        1
176
     1
 44
0.0
176
     1
173
     0
176
     1
  0
VISUALSTYLE
  5
32
102
{ACAD_REACTORS
330
2A
102
}
330
2A
100
AcDbVisualStyle
  2
Basic
 70
     7
177
     2
291
     1
 71
     1
176
     1
 72
     0
176
     1
 73
     1
176
     1
 90
        0
176
     1
 40
-0.6
176
     1
 41
-30.0
176
     1
 62
     5
 63
     7
421
 16777215
176
     1
 74
     0
176
     1
 91
        4
176
     1
 64
     7
176
     1
 65
   257
176
     1
 75
     1
176
     1
175
     1
176
     1
 42
1.0
176
     1
 92
        8
176
     1
 66
     7
176
     1
 43
1.0
176
     1
 76
     1
176
     1
 77
     6
176
     1
 78
     2
176
     1
 67
     7
176
     1
 79
     5
176
     1
170
     0
176
     1
171
     0
176
     1
290
     0
176
     1
 93
        1
176
     1
 44
0.0
176
     1
173
     0
176
     1
  0
VISUALSTYLE
  5
36
102
{ACAD_REACTORS
330
2A
102
}
330
2A
100
AcDbVisualStyle
  2
Brighten
 70
    12
177
     2
291
     1
 71
     2
176
     1
 72
     2
176
     1
 73
     0
176
     1
 90
        0
176
     1
 40
-0.6
176
     1
 41
-30.0
176
     1
 62
     5
 63
     7
421
 16777215
176
     1
 74
     1
176
     1
 91
        4
176
     1
 64
     7
176
     1
 65
   257
176
     1
 75
     1
176
     1
175
     1
176
     1
 42
1.0
176
     1
 92
        8
176
     1
 66
     7
176
     1
 43
1.0
176
     1
 76
     1
176
     1
 77
     6
176
     1
 78
     2
176
     1
 67
     7
176
     1
 79
     5
176
     1
170
     0
176
     1
171
     0
176
     1
290
     0
176
     1
 93
        1
176
     1
 44
50.0
176
     1
173
     0
176
     1
  0
VISUALSTYLE
  5
3A
102
{ACAD_REACTORS
330
2A
102
}
330
2A
100
AcDbVisualStyle
  2
ColorChange
 70
    16
177
     2
291
     1
 71
     2
176
     1
 72
     2
176
     1
 73
     3
176
     1
 90
        0
176
     1
 40
-0.6
176
     1
 41
-30.0
176
     1
 62
     5
 63
     8
421
  8421504
176
     1
 74
     1
176
     1
 91
        4
176
     1
 64
     7
176
     1
 65
   257
176
     1
 75
     1
176
     1
175
     1
176
     1
 42
1.0
176
     1
 92
        8
176
     1
 66
     8
424
  8421504
176
     1
 43
1.0
176
     1
 76
     1
176
     1
 77
     6
176
     1
 78
     2
176
     1
 67
     7
176
     1
 79
     5
176
     1
170
     0
176
     1
171
     0
176
     1
290
     0
176
     1
 93
        1
176
     1
 44
0.0
176
     1
173
     0
176
     1
  0
VISUALSTYLE
  5
34
102
{ACAD_REACTORS
330
2A
102
}
330
2A
100
AcDbVisualStyle
  2
Conceptual
 70
     9
177
     2
291
     0
 71
     3
176
     1
 72
     2
176
     1
 73
     0
176
     1
 90
        0
176
     1
 40
-0.6
176
     1
 41
-30.0
176
     1
 62
     5
 63
     7
421
 16777215
176
     1
 74
     2
176
     1
 91
        2
176
     1
 64
     7
176
     1
 65
   257
176
     1
 75
     1
176
     1
175
     1
176
     1
 42
40.0
176
     1
 92
        8
176
     1
 66
     7
176
     1
 43
1.0
176
     1
 76
     1
176
     1
 77
     6
176
     1
 78
     2
176
     1
 67
     7
176
     1
 79
     3
176
     1
170
     0
176
     1
171
     0
176
     1
290
     0
176
     1
 93
        1
176
     1
 44
0.0
176
     1
173
     0
176
     1
  0
VISUALSTYLE
  5
35
102
{ACAD_REACTORS
330
2A
102
}
330
2A
100
AcDbVisualStyle
  2
Dim
 70
    11
177
     2
291
     1
 71
     2
176
     1
 72
     2
176
     1
 73
     0
176
     1
 90
        0
176
     1
 40
-0.6
176
     1
 41
-30.0
176
     1
 62
     5
 63
     7
421
 16777215
176
     1
 74
     1
176
     1
 91
        4
176
     1
 64
     7
176
     1
 65
   257
176
     1
 75
     1
176
     1
175
     1
176
     1
 42
1.0
176
     1
 92
        8
176
     1
 66
     7
176
     1
 43
1.0
176
     1
 76
     1
176
     1
 77
     6
176
     1
 78
     2
176
     1
 67
     7
176
     1
 79
     5
176
     1
170
     0
176
     1
171
     0
176
     1
290
     0
176
     1
 93
        1
176
     1
 44
-50.0
176
     1
173
     0
176
     1
  0
VISUALSTYLE
  5
39
102
{ACAD_REACTORS
330
2A
102
}
330
2A
100
AcDbVisualStyle
  2
Facepattern
 70
    15
177
     2
291
     1
 71
     2
176
     1
 72
     2
176
     1
 73
     0
176
     1
 90
        0
176
     1
 40
-0.6
176
     1
 41
-30.0
176
     1
 62
     5
 63
     7
421
 16777215
176
     1
 74
     1
176
     1
 91
        4
176
     1
 64
     7
176
     1
 65
   257
176
     1
 75
     1
176
     1
175
     1
176
     1
 42
1.0
176
     1
 92
        8
176
     1
 66
     7
176
     1
 43
1.0
176
     1
 76
     1
176
     1
 77
     6
176
     1
 78
     2
176
     1
 67
     7
176
     1
 79
     5
176
     1
170
     0
176
     1
171
     0
176
     1
290
     0
176
     1
 93
        1
176
     1
 44
0.0
176
     1
173
     0
176
     1
  0
VISUALSTYLE
  5
2B
102
{ACAD_REACTORS
330
2A
102
}
330
2A
100
AcDbVisualStyle
  2
Flat
 70
     0
177
     2
291
     1
 71
     2
176
     1
 72
     1
176
     1
 73
     1
176
     1
 90
        2
176
     1
 40
-0.6
176
     1
 41
30.0
176
     1
 62
     5
 63
     7
421
 16777215
176
     1
 74
     0
176
     1
 91
        4
176
     1
 64
     7
176
     1
 65
   257
176
     1
 75
     1
176
     1
175
     1
176
     1
 42
1.0
176
     1
 92
        8
176
     1
 66
     7
176
     1
 43
1.0
176
     1
 76
     1
176
     1
 77
     6
176
     1
 78
     2
176
     1
 67
     7
176
     1
 79
     5
176
     1
170
     0
176
     1
171
     0
176
     1
290
     0
176
     1
 93
       13
176
     1
 44
0.0
176
     1
173
     0
176
     1
  0
VISUALSTYLE
  5
2C
102
{ACAD_REACTORS
330
2A
102
}
330
2A
100
AcDbVisualStyle
  2
FlatWithEdges
 70
     1
177
     2
291
     1
 71
     2
176
     1
 72
     1
176
     1
 73
     1
176
     1
 90
        2
176
     1
 40
-0.6
176
     1
 41
30.0
176
     1
 62
     5
 63
     7
421
 16777215
176
     1
 74
     1
176
     1
 91
        4
176
     1
 64
     7
176
     1
 65
   257
176
     1
 75
     1
176
     1
175
     1
176
     1
 42
1.0
176
     1
 92
        0
176
     1
 66
   257
176
     1
 43
1.0
176
     1
 76
     1
176
     1
 77
     6
176
     1
 78
     2
176
     1
 67
     7
176
     1
 79
     5
176
     1
170
     0
176
     1
171
     0
176
     1
290
     0
176
     1
 93
       13
176
     1
 44
0.0
176
     1
173
     0
176
     1
  0
VISUALSTYLE
  5
2D
102
{ACAD_REACTORS
330
2A
102
}
330
2A
100
AcDbVisualStyle
  2
Gouraud
 70
     2
177
     2
291
     1
 71
     2
176
     1
 72
     2
176
     1
 73
     1
176
     1
 90
        2
176
     1
 40
-0.6
176
     1
 41
30.0
176
     1
 62
     5
 63
     7
421
 16777215
176
     1
 74
     0
176
     1
 91
        4
176
     1
 64
     7
176
     1
 65
   257
176
     1
 75
     1
176
     1
175
     1
176
     1
 42
1.0
176
     1
 92
        0
176
     1
 66
     7
176
     1
 43
1.0
176
     1
 76
     1
176
     1
 77
     6
176
     1
 78
     2
176
     1
 67
     7
176
     1
 79
     5
176
     1
170
     0
176
     1
171
     0
176
     1
290
     0
176
     1
 93
       13
176
     1
 44
0.0
176
     1
173
     0
176
     1
  0
VISUALSTYLE
  5
2E
102
{ACAD_REACTORS
330
2A
102
}
330
2A
100
AcDbVisualStyle
  2
GouraudWithEdges
 70
     3
177
     2
291
     1
 71
     2
176
     1
 72
     2
176
     1
 73
     1
176
     1
 90
        2
176
     1
 40
-0.6
176
     1
 41
30.0
176
     1
 62
     5
 63
     7
421
 16777215
176
     1
 74
     1
176
     1
 91
        4
176
     1
 64
     7
176
     1
 65
   257
176
     1
 75
     1
176
     1
175
     1
176
     1
 42
1.0
176
     1
 92
        0
176
     1
 66
   257
176
     1
 43
1.0
176
     1
 76
     1
176
     1
 77
     6
176
     1
 78
     2
176
     1
 67
     7
176
     1
 79
     5
176
     1
170
     0
176
     1
171
     0
176
     1
290
     0
176
     1
 93
       13
176
     1
 44
0.0
176
     1
173
     0
176
     1
  0
VISUALSTYLE
  5
38
102
{ACAD_REACTORS
330
2A
102
}
330
2A
100
AcDbVisualStyle
  2
Linepattern
 70
    14
177
     2
291
     1
 71
     2
176
     1
 72
     2
176
     1
 73
     0
176
     1
 90
        0
176
     1
 40
-0.6
176
     1
 41
-30.0
176
     1
 62
     5
 63
     7
421
 16777215
176
     1
 74
     1
176
     1
 91
        4
176
     1
 64
     7
176
     1
 65
   257
176
     1
 75
     7
176
     1
175
     7
176
     1
 42
1.0
176
     1
 92
        8
176
     1
 66
     7
176
     1
 43
1.0
176
     1
 76
     1
176
     1
 77
     6
176
     1
 78
     2
176
     1
 67
     7
176
     1
 79
     5
176
     1
170
     0
176
     1
171
     0
176
     1
290
     0
176
     1
 93
        1
176
     1
 44
0.0
176
     1
173
     0
176
     1
  0
VISUALSTYLE
  5
33
102
{ACAD_REACTORS
330
2A
102
}
330
2A
100
AcDbVisualStyle
  2
Realistic
 70
     8
177
     2
291
     0
 71
     2
176
     1
 72
     2
176
     1
 73
     0
176
     1
 90
        0
176
     1
 40
-0.6
176
     1
 41
-30.0
176
     1
 62
     5
 63
     7
421
 16777215
176
     1
 74
     1
176
     1
 91
        0
176
     1
 64
     7
176
     1
 65
   257
176
     1
 75
     1
176
     1
175
     1
176
     1
 42
1.0
176
     1
 92
        8
176
     1
 66
     8
424
  7895160
176
     1
 43
1.0
176
     1
 76
     1
176
     1
 77
     6
176
     1
 78
     2
176
     1
 67
     7
176
     1
 79
     5
176
     1
170
     0
176
     1
171
     0
176
     1
290
     0
176
     1
 93
       13
176
     1
 44
0.0
176
     1
173
     0
176
     1
  0
VISUALSTYLE
  5
37
102
{ACAD_REACTORS
330
2A
102
}
330
2A
100
AcDbVisualStyle
  2
Thicken
 70
    13
177
     2
291
     1
 71
     2
176
     1
 72
     2
176
     1
 73
     0
176
     1
 90
        0
176
     1
 40
-0.6
176
     1
 41
-30.0
176
     1
 62
     5
 63
     7
421
 16777215
176
     1
 74
     1
176
     1
 91
        4
176
     1
 64
     7
176
     1
 65
   257
176
     1
 75
     1
176
     1
175
     1
176
     1
 42
1.0
176
     1
 92
       12
176
     1
 66
     7
176
     1
 43
1.0
176
     1
 76
     1
176
     1
 77
     6
176
     1
 78
     2
176
     1
 67
     7
176
     1
 79
     5
176
     1
170
     0
176
     1
171
     0
176
     1
290
     0
176
     1
 93
        1
176
     1
 44
0.0
176
     1
173
     0
176
     1
  0
ENDSEC
  0
EOF
