  0
SECTION
  2
HEADER
  9
$ACADVER
  1
AC1024
  9
$ACADMAINTVER
 70
     6
  9
$DWGCODEPAGE
  3
ANSI_1252
  9
$INSBASE
 10
0.0
 20
0.0
 30
0.0
  9
$EXTMIN
 10
1.000000000000000E+20
 20
1.000000000000000E+20
 30
1.000000000000000E+20
  9
$EXTMAX
 10
-1.000000000000000E+20
 20
-1.000000000000000E+20
 30
-1.000000000000000E+20
  9
$LIMMIN
 10
0.0
 20
0.0
  9
$LIMMAX
 10
12.0
 20
9.0
  9
$ORTHOMODE
 70
     0
  9
$REGENMODE
 70
     1
  9
$FILLMODE
 70
     1
  9
$QTEXTMODE
 70
     0
  9
$MIRRTEXT
 70
     1
  9
$LTSCALE
 40
1.0
  9
$ATTMODE
 70
     1
  9
$TEXTSIZE
 40
0.2
  9
$TRACEWID
 40
0.05
  9
$TEXTSTYLE
  7
Standard
  9
$CLAYER
  8
0
  9
$CELTYPE
  6
ByLayer
  9
$CECOLOR
 62
   256
  9
$CELTSCALE
 40
1.0
  9
$DISPSILH
 70
     0
  9
$DIMSCALE
 40
1.0
  9
$DIMASZ
 40
0.18
  9
$DIMEXO
 40
0.0625
  9
$DIMDLI
 40
0.38
  9
$DIMRND
 40
0.0
  9
$DIMDLE
 40
0.0
  9
$DIMEXE
 40
0.18
  9
$DIMTP
 40
0.0
  9
$DIMTM
 40
0.0
  9
$DIMTXT
 40
0.18
  9
$DIMCEN
 40
0.09
  9
$DIMTSZ
 40
0.0
  9
$DIMTOL
 70
     0
  9
$DIMLIM
 70
     0
  9
$DIMTIH
 70
     1
  9
$DIMTOH
 70
     1
  9
$DIMSE1
 70
     0
  9
$DIMSE2
 70
     0
  9
$DIMTAD
 70
     0
  9
$DIMZIN
 70
     0
  9
$DIMBLK
  1

  9
$DIMASO
 70
     1
  9
$DIMSHO
 70
     1
  9
$DIMPOST
  1

  9
$DIMAPOST
  1

  9
$DIMALT
 70
     0
  9
$DIMALTD
 70
     2
  9
$DIMALTF
 40
25.4
  9
$DIMLFAC
 40
1.0
  9
$DIMTOFL
 70
     0
  9
$DIMTVP
 40
0.0
  9
$DIMTIX
 70
     0
  9
$DIMSOXD
 70
     0
  9
$DIMSAH
 70
     0
  9
$DIMBLK1
  1

  9
$DIMBLK2
  1

  9
$DIMSTYLE
  2
Standard
  9
$DIMCLRD
 70
     0
  9
$DIMCLRE
 70
     0
  9
$DIMCLRT
 70
     0
  9
$DIMTFAC
 40
1.0
  9
$DIMGAP
 40
0.09
  9
$DIMJUST
 70
     0
  9
$DIMSD1
 70
     0
  9
$DIMSD2
 70
     0
  9
$DIMTOLJ
 70
     1
  9
$DIMTZIN
 70
     0
  9
$DIMALTZ
 70
     0
  9
$DIMALTTZ
 70
     0
  9
$DIMUPT
 70
     0
  9
$DIMDEC
 70
     4
  9
$DIMTDEC
 70
     4
  9
$DIMALTU
 70
     2
  9
$DIMALTTD
 70
     2
  9
$DIMTXSTY
  7
Standard
  9
$DIMAUNIT
 70
     0
  9
$DIMADEC
 70
     0
  9
$DIMALTRND
 40
0.0
  9
$DIMAZIN
 70
     0
  9
$DIMDSEP
 70
    46
  9
$DIMATFIT
 70
     3
  9
$DIMFRAC
 70
     0
  9
$DIMLDRBLK
  1

  9
$DIMLUNIT
 70
     2
  9
$DIMLWD
 70
    -2
  9
$DIMLWE
 70
    -2
  9
$DIMTMOVE
 70
     0
  9
$DIMFXL
 40
1.0
  9
$DIMFXLON
 70
     0
  9
$DIMJOGANG
 40
0.7853981633974483
  9
$DIMTFILL
 70
     0
  9
$DIMTFILLCLR
 70
     0
  9
$DIMARCSYM
 70
     0
  9
$DIMLTYPE
  6

  9
$DIMLTEX1
  6

  9
$DIMLTEX2
  6

  9
$DIMTXTDIRECTION
 70
     0
  9
$LUNITS
 70
     2
  9
$LUPREC
 70
     4
  9
$SKETCHINC
 40
0.1
  9
$FILLETRAD
 40
0.5
  9
$AUNITS
 70
     0
  9
$AUPREC
 70
     0
  9
$MENU
  1
.
  9
$ELEVATION
 40
0.0
  9
$PELEVATION
 40
0.0
  9
$THICKNESS
 40
0.0
  9
$LIMCHECK
 70
     0
  9
$CHAMFERA
 40
0.5
  9
$CHAMFERB
 40
0.5
  9
$CHAMFERC
 40
1.0
  9
$CHAMFERD
 40
0.0
  9
$SKPOLY
 70
     0
  9
$TDCREATE
 40
2459564.03280441
  9
$TDUCREATE
 40
2459563.78280441
  9
$TDUPDATE
 40
2459564.032804444
  9
$TDUUPDATE
 40
2459563.782804444
  9
$TDINDWG
 40
0.0000000116
  9
$TDUSRTIMER
 40
0.0000000116
  9
$USRTIMER
 70
     1
  9
$ANGBASE
 50
0.0
  9
$ANGDIR
 70
     0
  9
$PDMODE
 70
     0
  9
$PDSIZE
 40
0.0
  9
$PLINEWID
 40
0.0
  9
$SPLFRAME
 70
     0
  9
$SPLINETYPE
 70
     6
  9
$SPLINESEGS
 70
     8
  9
$HANDSEED
  5
69
  9
$SURFTAB1
 70
     6
  9
$SURFTAB2
 70
     6
  9
$SURFTYPE
 70
     6
  9
$SURFU
 70
     6
  9
$SURFV
 70
     6
  9
$UCSBASE
  2

  9
$UCSNAME
  2

  9
$UCSORG
 10
0.0
 20
0.0
 30
0.0
  9
$UCSXDIR
 10
1.0
 20
0.0
 30
0.0
  9
$UCSYDIR
 10
0.0
 20
1.0
 30
0.0
  9
$UCSORTHOREF
  2

  9
$UCSORTHOVIEW
 70
     0
  9
$UCSORGTOP
 10
0.0
 20
0.0
 30
0.0
  9
$UCSORGBOTTOM
 10
0.0
 20
0.0
 30
0.0
  9
$UCSORGLEFT
 10
0.0
 20
0.0
 30
0.0
  9
$UCSORGRIGHT
 10
0.0
 20
0.0
 30
0.0
  9
$UCSORGFRONT
 10
0.0
 20
0.0
 30
0.0
  9
$UCSORGBACK
 10
0.0
 20
0.0
 30
0.0
  9
$PUCSBASE
  2

  9
$PUCSNAME
  2

  9
$PUCSORG
 10
0.0
 20
0.0
 30
0.0
  9
$PUCSXDIR
 10
1.0
 20
0.0
 30
0.0
  9
$PUCSYDIR
 10
0.0
 20
1.0
 30
0.0
  9
$PUCSORTHOREF
  2

  9
$PUCSORTHOVIEW
 70
     0
  9
$PUCSORGTOP
 10
0.0
 20
0.0
 30
0.0
  9
$PUCSORGBOTTOM
 10
0.0
 20
0.0
 30
0.0
  9
$PUCSORGLEFT
 10
0.0
 20
0.0
 30
0.0
  9
$PUCSORGRIGHT
 10
0.0
 20
0.0
 30
0.0
  9
$PUCSORGFRONT
 10
0.0
 20
0.0
 30
0.0
  9
$PUCSORGBACK
 10
0.0
 20
0.0
 30
0.0
  9
$USERI1
 70
     0
  9
$USERI2
 70
     0
  9
$USERI3
 70
     0
  9
$USERI4
 70
     0
  9
$USERI5
 70
     0
  9
$USERR1
 40
0.0
  9
$USERR2
 40
0.0
  9
$USERR3
 40
0.0
  9
$USERR4
 40
0.0
  9
$USERR5
 40
0.0
  9
$WORLDVIEW
 70
     1
  9
$SHADEDGE
 70
     3
  9
$SHADEDIF
 70
    70
  9
$TILEMODE
 70
     1
  9
$MAXACTVP
 70
    64
  9
$PINSBASE
 10
0.0
 20
0.0
 30
0.0
  9
$PLIMCHECK
 70
     0
  9
$PEXTMIN
 10
1.000000000000000E+20
 20
1.000000000000000E+20
 30
1.000000000000000E+20
  9
$PEXTMAX
 10
-1.000000000000000E+20
 20
-1.000000000000000E+20
 30
-1.000000000000000E+20
  9
$PLIMMIN
 10
0.0
 20
0.0
  9
$PLIMMAX
 10
12.0
 20
9.0
  9
$UNITMODE
 70
     0
  9
$VISRETAIN
 70
     1
  9
$PLINEGEN
 70
     0
  9
$PSLTSCALE
 70
     1
  9
$TREEDEPTH
 70
  3020
  9
$CMLSTYLE
  2
Standard
  9
$CMLJUST
 70
     0
  9
$CMLSCALE
 40
1.0
  9
$PROXYGRAPHICS
 70
     1
  9
$MEASUREMENT
 70
     0
  9
$CELWEIGHT
370
    -1
  9
$ENDCAPS
280
     0
  9
$JOINSTYLE
280
     0
  9
$LWDISPLAY
290
     1
  9
$INSUNITS
 70
     1
  9
$HYPERLINKBASE
  1

  9
$STYLESHEET
  1

  9
$XEDIT
290
     1
  9
$CEPSNTYPE
380
     0
  9
$PSTYLEMODE
290
     1
  9
$FINGERPRINTGUID
  2
{085BD1BB-0601-4C65-BFCD-B833E2ED23D6}
  9
$VERSIONGUID
  2
{FAEB1C32-E019-11D5-929B-00C0DF256EC4}
  9
$EXTNAMES
290
     1
  9
$PSVPSCALE
 40
0.0
  9
$OLESTARTUP
290
     0
  9
$SORTENTS
280
   127
  9
$INDEXCTL
280
     0
  9
$HIDETEXT
280
     1
  9
$XCLIPFRAME
280
     2
  9
$HALOGAP
280
     0
  9
$OBSCOLOR
 70
   257
  9
$OBSLTYPE
280
     0
  9
$INTERSECTIONDISPLAY
280
     0
  9
$INTERSECTIONCOLOR
 70
   257
  9
$DIMASSOC
280
     2
  9
$PROJECTNAME
  1

  9
$CAMERADISPLAY
290
     0
  9
$LENSLENGTH
 40
50.0
  9
$CAMERAHEIGHT
 40
0.0
  9
$STEPSPERSEC
 40
2.0
  9
$STEPSIZE
 40
6.0
  9
$3DDWFPREC
 40
2.0
  9
$PSOLWIDTH
 40
0.25
  9
$PSOLHEIGHT
 40
4.0
  9
$LOFTANG1
 40
1.570796326794897
  9
$LOFTANG2
 40
1.570796326794897
  9
$LOFTMAG1
 40
0.0
  9
$LOFTMAG2
 40
0.0
  9
$LOFTPARAM
 70
     7
  9
$LOFTNORMALS
280
     1
  9
$LATITUDE
 40
37.795
  9
$LONGITUDE
 40
-122.394
  9
$NORTHDIRECTION
 40
0.0
  9
$TIMEZONE
 70
 -8000
  9
$LIGHTGLYPHDISPLAY
280
     1
  9
$TILEMODELIGHTSYNCH
280
     1
  9
$CMATERIAL
347
3C
  9
$SOLIDHIST
280
     1
  9
$SHOWHIST
280
     1
  9
$DWFFRAME
280
     2
  9
$DGNFRAME
280
     2
  9
$REALWORLDSCALE
290
     1
  9
$INTERFERECOLOR
 62
   256
  9
$CSHADOW
280
     0
  9
$SHADOWPLANELOCATION
 40
0.0
  0
ENDSEC
  0
SECTION
  2
CLASSES
  0
CLASS
  1
ACDBDICTIONARYWDFLT
  2
AcDbDictionaryWithDefault
  3
ObjectDBX Classes
 90
        0
 91
        4
280
     0
281
     0
  0
CLASS
  1
VISUALSTYLE
  2
AcDbVisualStyle
  3
ObjectDBX Classes
 90
     4095
 91
        4
280
     0
281
     0
  0
CLASS
  1
MATERIAL
  2
AcDbMaterial
  3
ObjectDBX Classes
 90
     1153
 91
        4
280
     0
281
     0
  0
CLASS
  1
SUN
  2
AcDbSun
  3
SCENEOE
 90
     1024
 91
        4
280
     0
281
     0
  0
ENDSEC
  0
SECTION
  2
TABLES
  0
TABLE
  2
VPORT
  5
8
330
0
100
AcDbSymbolTable
 70
     1
  0
VPORT
  5
29
330
8
100
AcDbSymbolTableRecord
100
AcDbViewportTableRecord
  2
*Active
 70
     0
 10
0.0
 20
0.0
 11
1.0
 21
1.0
 12
0.0
 22
0.0
 13
0.0
 23
0.0
 14
0.5
 24
0.5
 15
0.5
 25
0.5
 16
0.0
 26
0.0
 36
1.0
 17
540.0
 27
-540.0
 37
0.0
 40
1080.0
 41
1.0
 42
50.0
 43
0.0
 44
0.0
 50
0.0
 51
0.0
 71
     0
 72
   100
 73
     1
 74
     3
 75
     0
 76
     0
 77
     0
 78
     0
281
     0
 65
     1
110
0.0
120
0.0
130
0.0
111
1.0
121
0.0
131
0.0
112
0.0
122
1.0
132
0.0
 79
     0
146
0.0
 60
     3
 61
     5
292
     1
282
     1
141
0.0
142
0.0
 63
   250
361
3F
  0
ENDTAB
  0
TABLE
  2
LTYPE
  5
5
330
0
100
AcDbSymbolTable
 70
     1
  0
LTYPE
  5
14
330
5
100
AcDbSymbolTableRecord
100
AcDbLinetypeTableRecord
  2
ByBlock
 70
     0
  3

 72
    65
 73
     0
 40
0.0
  0
LTYPE
  5
15
330
5
100
AcDbSymbolTableRecord
100
AcDbLinetypeTableRecord
  2
ByLayer
 70
     0
  3

 72
    65
 73
     0
 40
0.0
  0
LTYPE
  5
16
330
5
100
AcDbSymbolTableRecord
100
AcDbLinetypeTableRecord
  2
Continuous
 70
     0
  3
Solid line
 72
    65
 73
     0
 40
0.0
  0
ENDTAB
  0
TABLE
  2
LAYER
  5
2
330
0
100
AcDbSymbolTable
 70
     2
  0
LAYER
  5
10
330
2
100
AcDbSymbolTableRecord
100
AcDbLayerTableRecord
  2
0
 70
     0
 62
     7
  6
Continuous
370
    -3
390
F
347
3E
  0
LAYER
  5
40
330
2
100
AcDbSymbolTableRecord
100
AcDbLayerTableRecord
  2
Layer 1
 70
     0
 62
     7
  6
Continuous
370
    -3
390
F
347
3E
  0
ENDTAB
  0
TABLE
  2
STYLE
  5
3
330
0
100
AcDbSymbolTable
 70
     1
  0
STYLE
  5
11
330
3
100
AcDbSymbolTableRecord
100
AcDbTextStyleTableRecord
  2
Standard
 70
     0
 40
0.0
 41
1.0
 50
0.0
 71
     0
 42
0.2
  3
txt
  4

  0
ENDTAB
  0
TABLE
  2
VIEW
  5
6
330
0
100
AcDbSymbolTable
 70
     0
  0
ENDTAB
  0
TABLE
  2
UCS
  5
7
330
0
100
AcDbSymbolTable
 70
     0
  0
ENDTAB
  0
TABLE
  2
APPID
  5
9
330
0
100
AcDbSymbolTable
 70
     1
  0
APPID
  5
12
330
9
100
AcDbSymbolTableRecord
100
AcDbRegAppTableRecord
  2
ACAD
 70
     0
  0
ENDTAB
  0
TABLE
  2
DIMSTYLE
  5
A
330
0
100
AcDbSymbolTable
 70
     1
100
AcDbDimStyleTable
  0
DIMSTYLE
105
27
330
A
100
AcDbSymbolTableRecord
100
AcDbDimStyleTableRecord
  2
Standard
 70
     0
178
     0
340
11
  0
ENDTAB
  0
TABLE
  2
BLOCK_RECORD
  5
1
330
0
100
AcDbSymbolTable
 70
     5
  0
BLOCK_RECORD
  5
1F
330
1
100
AcDbSymbolTableRecord
100
AcDbBlockTableRecord
  2
*Model_Space
340
22
 70
     0
280
     1
281
     0
  0
BLOCK_RECORD
  5
1B
330
1
100
AcDbSymbolTableRecord
100
AcDbBlockTableRecord
  2
*Paper_Space
340
1E
 70
     0
280
     1
281
     0
  0
BLOCK_RECORD
  5
23
330
1
100
AcDbSymbolTableRecord
100
AcDbBlockTableRecord
  2
*Paper_Space0
340
26
 70
     0
280
     1
281
     0
  0
BLOCK_RECORD
  5
41
330
1
100
AcDbSymbolTableRecord
100
AcDbBlockTableRecord
  2
block 2
340
0
102
{BLKREFS
331
42
102
}
 70
     0
280
     1
281
     0
  0
BLOCK_RECORD
  5
45
330
1
100
AcDbSymbolTableRecord
100
AcDbBlockTableRecord
  2
block 3
340
0
102
{BLKREFS
331
46
102
}
 70
     0
280
     1
281
     0
  0
BLOCK_RECORD
  5
50
330
1
100
AcDbSymbolTableRecord
100
AcDbBlockTableRecord
  2
block 4
340
0
102
{BLKREFS
331
51
102
}
 70
     0
280
     1
281
     0
  0
BLOCK_RECORD
  5
58
330
1
100
AcDbSymbolTableRecord
100
AcDbBlockTableRecord
  2
block 5
340
0
102
{BLKREFS
331
59
102
}
 70
     0
280
     1
281
     0
  0
ENDTAB
  0
ENDSEC
  0
SECTION
  2
BLOCKS
  0
BLOCK
  5
20
330
1F
100
AcDbEntity
  8
0
100
AcDbBlockBegin
  2
*Model_Space
 70
     0
 10
0.0
 20
0.0
 30
0.0
  3
*Model_Space
  1

  0
ENDBLK
  5
21
330
1F
100
AcDbEntity
  8
0
100
AcDbBlockEnd
  0
BLOCK
  5
1C
330
1B
100
AcDbEntity
 67
     1
  8
0
100
AcDbBlockBegin
  2
*Paper_Space
 70
     0
 10
0.0
 20
0.0
 30
0.0
  3
*Paper_Space
  1

  0
ENDBLK
  5
1D
330
1B
100
AcDbEntity
 67
     1
  8
0
100
AcDbBlockEnd
  0
BLOCK
  5
24
330
23
100
AcDbEntity
  8
0
100
AcDbBlockBegin
  2
*Paper_Space0
 70
     0
 10
0.0
 20
0.0
 30
0.0
  3
*Paper_Space0
  1

  0
ENDBLK
  5
25
330
23
100
AcDbEntity
  8
0
100
AcDbBlockEnd
  0
BLOCK
  5
43
330
41
100
AcDbEntity
  8
0
100
AcDbBlockBegin
  2
block 2
 70
     0
 10
0.0
 20
0.0
 30
0.0
  3
block 2
  1

  0
INSERT
  5
46
330
41
100
AcDbEntity
  8
Layer 1
100
AcDbBlockReference
  2
block 3
 10
0.0
 20
0.0
 30
0.0
  0
INSERT
  5
51
330
41
100
AcDbEntity
  8
Layer 1
100
AcDbBlockReference
  2
block 4
 10
0.0
 20
0.0
 30
0.0
  0
ENDBLK
  5
44
330
41
100
AcDbEntity
  8
0
100
AcDbBlockEnd
  0
BLOCK
  5
47
330
45
100
AcDbEntity
  8
0
100
AcDbBlockBegin
  2
block 3
 70
     0
 10
0.0
 20
0.0
 30
0.0
  3
block 3
  1

  0
SPLINE
  5
49
330
45
100
AcDbEntity
  8
Layer 1
370
     0
100
AcDbSpline
210
0.0
220
0.0
230
1.0
 70
    11
 71
     3
 72
    53
 73
    49
 74
     0
 42
0.0000000001
 43
0.0000000001
 12
1.0
 22
0.0
 32
0.0
 13
1.0
 23
0.0
 33
0.0
 40
0.0
 40
0.0
 40
0.0
 40
0.0
 40
1.0
 40
1.0
 40
1.0
 40
2.0
 40
2.0
 40
2.0
 40
3.0
 40
3.0
 40
3.0
 40
4.0
 40
4.0
 40
4.0
 40
5.0
 40
5.0
 40
5.0
 40
6.0
 40
6.0
 40
6.0
 40
7.0
 40
7.0
 40
7.0
 40
8.0
 40
8.0
 40
8.0
 40
9.0
 40
9.0
 40
9.0
 40
10.0
 40
10.0
 40
10.0
 40
11.0
 40
11.0
 40
11.0
 40
12.0
 40
12.0
 40
12.0
 40
13.0
 40
13.0
 40
13.0
 40
14.0
 40
14.0
 40
14.0
 40
15.0
 40
15.0
 40
15.0
 40
16.0
 40
16.0
 40
16.0
 40
16.0
 10
182.3474852090912
 20
-626.6909284510803
 30
0.0
 10
170.6266512882012
 20
-626.6909284510803
 30
0.0
 10
163.8652622097925
 20
-623.6872677303109
 30
0.0
 10
162.0620569911953
 20
-617.6749023580887
 30
0.0
 10
153.7458762802489
 20
-590.2308755206286
 30
0.0
 10
149.5909383814505
 20
-550.7116786319093
 30
0.0
 10
149.5909383814505
 20
-499.1223556226141
 30
0.0
 10
149.5909383814505
 20
-467.0681761423584
 30
0.0
 10
150.5417193148915
 20
-439.7704232946598
 30
0.0
 10
152.4458031471186
 20
-417.231619044851
 30
0.0
 10
152.6450384090331
 20
-414.5255502342843
 30
0.0
 10
153.3965840805613
 20
-412.0716779577851
 30
0.0
 10
154.6991791790315
 20
-409.8674802500173
 30
0.0
 10
157.803718513429
 20
-404.5587432078501
 30
0.0
 10
168.2232183185188
 20
-401.9056356694382
 30
0.0
 10
185.9526346636158
 20
-401.9056356694382
 30
0.0
 10
204.1839221115133
 20
-401.9056356694382
 30
0.0
 10
213.3008268181329
 20
-406.712501608803
 30
0.0
 10
213.3008268181329
 20
-416.3287554528797
 30
0.0
 10
213.3008268181329
 20
-421.1381433575916
 30
0.0
 10
212.5984594707479
 20
-438.6683244407723
 30
0.0
 10
211.1962467413196
 20
-468.9192987024326
 30
0.0
 10
209.7927730292231
 20
-501.5787498644568
 30
0.0
 10
209.0929276471797
 20
-544.8531531454719
 30
0.0
 10
209.0929276471797
 20
-598.7425085454779
 30
0.0
 10
209.0929276471797
 20
-606.7598363635516
 30
0.0
 10
209.0412273576931
 20
-611.2665884273774
 30
0.0
 10
208.9428707094066
 20
-612.2678086676351
 30
0.0
 10
237.8912498725949
 20
-608.058648514012
 30
0.0
 10
257.7252462945034
 20
-600.096803933433
 30
0.0
 10
268.4448599751377
 20
-588.3747090298748
 30
0.0
 10
269.9479513181905
 20
-586.5715038112758
 30
0.0
 10
271.9012134745626
 20
-585.671162184648
 30
0.0
 10
274.3059074269167
 20
-585.671162184648
 30
0.0
 10
275.8077377873014
 20
-585.671162184648
 30
0.0
 10
277.209950516728
 20
-586.0242373323454
 30
0.0
 10
278.5125456151982
 20
-586.722821731717
 30
0.0
 10
280.7142213576262
 20
-587.9257991992308
 30
0.0
 10
281.8188421768518
 20
-589.6281258042
 30
0.0
 10
281.8188421768518
 20
-591.8323235119715
 30
0.0
 10
281.8188421768518
 20
-592.9344223658518
 30
0.0
 10
281.4165887050094
 20
-594.0365212197394
 30
0.0
 10
280.6158647093398
 20
-595.1360981082835
 30
0.0
 10
273.3034262039891
 20
-604.0537675529849
 30
0.0
 10
260.7301679979464
 20
-611.3649450756639
 30
0.0
 10
242.9011340218894
 20
-617.0746746070035
 30
0.0
 10
222.5652664971803
 20
-623.4855105030547
 30
0.0
 10
202.3807168929143
 20
-626.6909284510803
 30
0.0
 10
182.3474852090912
 20
-626.6909284510803
 30
0.0
  0
HATCH
  5
4A
330
45
100
AcDbEntity
  8
Layer 1
 62
     7
420
 16777215
100
AcDbHatch
 10
0.0
 20
0.0
 30
0.0
210
0.0
220
0.0
230
1.0
  2
SOLID
 70
     1
 71
     0
 91
        1
 92
        1
 93
        1
 72
     4
 94
        3
 73
     0
 74
     1
 95
       53
 96
       49
 40
0.0
 40
0.0
 40
0.0
 40
0.0
 40
1.0
 40
1.0
 40
1.0
 40
2.0
 40
2.0
 40
2.0
 40
3.0
 40
3.0
 40
3.0
 40
4.0
 40
4.0
 40
4.0
 40
5.0
 40
5.0
 40
5.0
 40
6.0
 40
6.0
 40
6.0
 40
7.0
 40
7.0
 40
7.0
 40
8.0
 40
8.0
 40
8.0
 40
9.0
 40
9.0
 40
9.0
 40
10.0
 40
10.0
 40
10.0
 40
11.0
 40
11.0
 40
11.0
 40
12.0
 40
12.0
 40
12.0
 40
13.0
 40
13.0
 40
13.0
 40
14.0
 40
14.0
 40
14.0
 40
15.0
 40
15.0
 40
15.0
 40
16.0
 40
16.0
 40
16.0
 40
16.0
 10
182.3474852090912
 20
-626.6909284510803
 10
170.6266512882012
 20
-626.6909284510803
 10
163.8652622097925
 20
-623.6872677303109
 10
162.0620569911953
 20
-617.6749023580887
 10
153.7458762802489
 20
-590.2308755206286
 10
149.5909383814505
 20
-550.7116786319093
 10
149.5909383814505
 20
-499.1223556226141
 10
149.5909383814505
 20
-467.0681761423584
 10
150.5417193148915
 20
-439.7704232946598
 10
152.4458031471186
 20
-417.231619044851
 10
152.6450384090331
 20
-414.5255502342843
 10
153.3965840805613
 20
-412.0716779577851
 10
154.6991791790315
 20
-409.8674802500173
 10
157.803718513429
 20
-404.5587432078501
 10
168.2232183185188
 20
-401.9056356694382
 10
185.9526346636158
 20
-401.9056356694382
 10
204.1839221115133
 20
-401.9056356694382
 10
213.3008268181329
 20
-406.712501608803
 10
213.3008268181329
 20
-416.3287554528797
 10
213.3008268181329
 20
-421.1381433575916
 10
212.5984594707479
 20
-438.6683244407723
 10
211.1962467413196
 20
-468.9192987024326
 10
209.7927730292231
 20
-501.5787498644568
 10
209.0929276471797
 20
-544.8531531454719
 10
209.0929276471797
 20
-598.7425085454779
 10
209.0929276471797
 20
-606.7598363635516
 10
209.0412273576931
 20
-611.2665884273774
 10
208.9428707094066
 20
-612.2678086676351
 10
237.8912498725949
 20
-608.058648514012
 10
257.7252462945034
 20
-600.096803933433
 10
268.4448599751377
 20
-588.3747090298748
 10
269.9479513181905
 20
-586.5715038112758
 10
271.9012134745626
 20
-585.671162184648
 10
274.3059074269167
 20
-585.671162184648
 10
275.8077377873014
 20
-585.671162184648
 10
277.209950516728
 20
-586.0242373323454
 10
278.5125456151982
 20
-586.722821731717
 10
280.7142213576262
 20
-587.9257991992308
 10
281.8188421768518
 20
-589.6281258042
 10
281.8188421768518
 20
-591.8323235119715
 10
281.8188421768518
 20
-592.9344223658518
 10
281.4165887050094
 20
-594.0365212197394
 10
280.6158647093398
 20
-595.1360981082835
 10
273.3034262039891
 20
-604.0537675529849
 10
260.7301679979464
 20
-611.3649450756639
 10
242.9011340218894
 20
-617.0746746070035
 10
222.5652664971803
 20
-623.4855105030547
 10
202.3807168929143
 20
-626.6909284510803
 10
182.3474852090912
 20
-626.6909284510803
 97
        0
 97
        0
 75
     2
 76
     1
 98
        0
  0
SPLINE
  5
4B
330
45
100
AcDbEntity
  8
Layer 1
370
     0
100
AcDbSpline
210
0.0
220
0.0
230
1.0
 70
    11
 71
     3
 72
    62
 73
    58
 74
     0
 42
0.0000000001
 43
0.0000000001
 12
1.0
 22
0.0
 32
0.0
 13
1.0
 23
0.0
 33
0.0
 40
0.0
 40
0.0
 40
0.0
 40
0.0
 40
1.0
 40
1.0
 40
1.0
 40
2.0
 40
2.0
 40
2.0
 40
3.0
 40
3.0
 40
3.0
 40
4.0
 40
4.0
 40
4.0
 40
5.0
 40
5.0
 40
5.0
 40
6.0
 40
6.0
 40
6.0
 40
7.0
 40
7.0
 40
7.0
 40
8.0
 40
8.0
 40
8.0
 40
9.0
 40
9.0
 40
9.0
 40
10.0
 40
10.0
 40
10.0
 40
11.0
 40
11.0
 40
11.0
 40
12.0
 40
12.0
 40
12.0
 40
13.0
 40
13.0
 40
13.0
 40
14.0
 40
14.0
 40
14.0
 40
15.0
 40
15.0
 40
15.0
 40
16.0
 40
16.0
 40
16.0
 40
17.0
 40
17.0
 40
17.0
 40
18.0
 40
18.0
 40
18.0
 40
19.0
 40
19.0
 40
19.0
 40
19.0
 10
604.3397159306369
 20
-611.1079287238208
 30
0.0
 10
596.927689183749
 20
-611.1079287238208
 30
0.0
 10
591.6167925260816
 20
-609.0807077332211
 30
0.0
 10
588.4035064767413
 20
-605.0262657520143
 30
0.0
 10
566.1762249382991
 20
-578.746301972813
 30
0.0
 10
544.7144304926624
 20
-542.6082722306382
 30
0.0
 10
524.0286815824948
 20
-496.6156960063672
 30
0.0
 10
521.0916747827432
 20
-490.1856044268097
 30
0.0
 10
518.0156484879772
 20
-484.2095258816043
 30
0.0
 10
514.8023624386369
 20
-478.6874603707402
 30
0.0
 10
511.5837971679684
 20
-473.1653948598869
 30
0.0
 10
508.7893293441193
 20
-467.7489137756238
 30
0.0
 10
506.4136797457595
 20
-462.4344976370703
 30
0.0
 10
503.6156924410207
 20
-456.2859645284225
 30
0.0
 10
502.2202182695401
 20
-449.8558729488577
 30
0.0
 10
502.2202182695401
 20
-443.144222898376
 30
0.0
 10
502.2202182695401
 20
-426.7891952190002
 30
0.0
 10
511.4465374133979
 20
-414.9778173640334
 30
0.0
 10
529.8991757011117
 20
-407.7065698526094
 30
0.0
 10
538.9847156095093
 20
-404.2152448132365
 30
0.0
 10
548.8410218320405
 20
-402.466062812673
 30
0.0
 10
559.466334628265
 20
-402.466062812673
 30
0.0
 10
571.0683033704809
 20
-402.466062812673
 30
0.0
 10
578.5472002542083
 20
-407.4285308625804
 30
0.0
 10
581.903025279451
 20
-417.3534669623987
 30
0.0
 10
597.9764944879134
 20
-464.8840563340455
 30
0.0
 10
616.779321123835
 20
-511.9219183815912
 30
0.0
 10
638.3097454467534
 20
-558.4740920668046
 30
0.0
 10
646.8339281537628
 20
-538.9057783380849
 30
0.0
 10
655.3633900820987
 20
-516.469087686899
 30
0.0
 10
663.8910922699924
 20
-491.1640201132468
 30
0.0
 10
678.4283080715177
 20
-448.6698078901209
 30
0.0
 10
685.6995555829453
 20
-420.01067503167
 30
0.0
 10
685.6995555829453
 20
-405.1901410187857
 30
0.0
 10
685.6995555829453
 20
-402.9552706558861
 30
0.0
 10
686.711406337803
 20
-400.9949198021313
 30
0.0
 10
688.7403870688468
 20
-399.3196469001705
 30
0.0
 10
690.7640885785659
 20
-397.6408545173254
 30
0.0
 10
693.1766927262324
 20
-396.8032180663504
 30
0.0
 10
695.9746800309695
 20
-396.8032180663504
 30
0.0
 10
698.7691478548186
 20
-396.8032180663504
 30
0.0
 10
701.1799922620448
 20
-397.6408545173254
 30
0.0
 10
703.2089729930849
 20
-399.3196469001705
 30
0.0
 10
705.2326745028004
 20
-400.9949198021313
 30
0.0
 10
706.24980447899
 20
-402.9552706558861
 30
0.0
 10
706.24980447899
 20
-405.1901410187857
 30
0.0
 10
706.24980447899
 20
-421.5451686981723
 30
0.0
 10
698.7691478548186
 20
-451.742314703999
 30
0.0
 10
683.813113827804
 20
-495.7780595553922
 30
0.0
 10
672.6264438301841
 20
-528.2100759241293
 30
0.0
 10
661.8638712793872
 20
-555.4684553897605
 30
0.0
 10
651.5201169540833
 20
-577.5567174331954
 30
0.0
 10
646.7652982764739
 20
-587.6224327684722
 30
0.0
 10
640.7892197312649
 20
-595.7313167308785
 30
0.0
 10
633.5918813184544
 20
-601.8798498395226
 30
0.0
 10
626.3892636843084
 20
-608.0319024290548
 30
0.0
 10
616.6385418883729
 20
-611.1079287238208
 30
0.0
 10
604.3397159306369
 20
-611.1079287238208
 30
0.0
  0
HATCH
  5
4C
330
45
100
AcDbEntity
  8
Layer 1
 62
     7
420
 16777215
100
AcDbHatch
 10
0.0
 20
0.0
 30
0.0
210
0.0
220
0.0
230
1.0
  2
SOLID
 70
     1
 71
     0
 91
        1
 92
        1
 93
        1
 72
     4
 94
        3
 73
     0
 74
     1
 95
       62
 96
       58
 40
0.0
 40
0.0
 40
0.0
 40
0.0
 40
1.0
 40
1.0
 40
1.0
 40
2.0
 40
2.0
 40
2.0
 40
3.0
 40
3.0
 40
3.0
 40
4.0
 40
4.0
 40
4.0
 40
5.0
 40
5.0
 40
5.0
 40
6.0
 40
6.0
 40
6.0
 40
7.0
 40
7.0
 40
7.0
 40
8.0
 40
8.0
 40
8.0
 40
9.0
 40
9.0
 40
9.0
 40
10.0
 40
10.0
 40
10.0
 40
11.0
 40
11.0
 40
11.0
 40
12.0
 40
12.0
 40
12.0
 40
13.0
 40
13.0
 40
13.0
 40
14.0
 40
14.0
 40
14.0
 40
15.0
 40
15.0
 40
15.0
 40
16.0
 40
16.0
 40
16.0
 40
17.0
 40
17.0
 40
17.0
 40
18.0
 40
18.0
 40
18.0
 40
19.0
 40
19.0
 40
19.0
 40
19.0
 10
604.3397159306369
 20
-611.1079287238208
 10
596.927689183749
 20
-611.1079287238208
 10
591.6167925260816
 20
-609.0807077332211
 10
588.4035064767413
 20
-605.0262657520143
 10
566.1762249382991
 20
-578.746301972813
 10
544.7144304926624
 20
-542.6082722306382
 10
524.0286815824948
 20
-496.6156960063672
 10
521.0916747827432
 20
-490.1856044268097
 10
518.0156484879772
 20
-484.2095258816043
 10
514.8023624386369
 20
-478.6874603707402
 10
511.5837971679684
 20
-473.1653948598869
 10
508.7893293441193
 20
-467.7489137756238
 10
506.4136797457595
 20
-462.4344976370703
 10
503.6156924410207
 20
-456.2859645284225
 10
502.2202182695401
 20
-449.8558729488577
 10
502.2202182695401
 20
-443.144222898376
 10
502.2202182695401
 20
-426.7891952190002
 10
511.4465374133979
 20
-414.9778173640334
 10
529.8991757011117
 20
-407.7065698526094
 10
538.9847156095093
 20
-404.2152448132365
 10
548.8410218320405
 20
-402.466062812673
 10
559.466334628265
 20
-402.466062812673
 10
571.0683033704809
 20
-402.466062812673
 10
578.5472002542083
 20
-407.4285308625804
 10
581.903025279451
 20
-417.3534669623987
 10
597.9764944879134
 20
-464.8840563340455
 10
616.779321123835
 20
-511.9219183815912
 10
638.3097454467534
 20
-558.4740920668046
 10
646.8339281537628
 20
-538.9057783380849
 10
655.3633900820987
 20
-516.469087686899
 10
663.8910922699924
 20
-491.1640201132468
 10
678.4283080715177
 20
-448.6698078901209
 10
685.6995555829453
 20
-420.01067503167
 10
685.6995555829453
 20
-405.1901410187857
 10
685.6995555829453
 20
-402.9552706558861
 10
686.711406337803
 20
-400.9949198021313
 10
688.7403870688468
 20
-399.3196469001705
 10
690.7640885785659
 20
-397.6408545173254
 10
693.1766927262324
 20
-396.8032180663504
 10
695.9746800309695
 20
-396.8032180663504
 10
698.7691478548186
 20
-396.8032180663504
 10
701.1799922620448
 20
-397.6408545173254
 10
703.2089729930849
 20
-399.3196469001705
 10
705.2326745028004
 20
-400.9949198021313
 10
706.24980447899
 20
-402.9552706558861
 10
706.24980447899
 20
-405.1901410187857
 10
706.24980447899
 20
-421.5451686981723
 10
698.7691478548186
 20
-451.742314703999
 10
683.813113827804
 20
-495.7780595553922
 10
672.6264438301841
 20
-528.2100759241293
 10
661.8638712793872
 20
-555.4684553897605
 10
651.5201169540833
 20
-577.5567174331954
 10
646.7652982764739
 20
-587.6224327684722
 10
640.7892197312649
 20
-595.7313167308785
 10
633.5918813184544
 20
-601.8798498395226
 10
626.3892636843084
 20
-608.0319024290548
 10
616.6385418883729
 20
-611.1079287238208
 10
604.3397159306369
 20
-611.1079287238208
 97
        0
 97
        0
 75
     2
 76
     1
 98
        0
  0
SPLINE
  5
4D
330
45
100
AcDbEntity
  8
Layer 1
370
     0
100
AcDbSpline
210
0.0
220
0.0
230
1.0
 70
    11
 71
     3
 72
    74
 73
    70
 74
     0
 42
0.0000000001
 43
0.0000000001
 12
1.0
 22
0.0
 32
0.0
 13
1.0
 23
0.0
 33
0.0
 40
0.0
 40
0.0
 40
0.0
 40
0.0
 40
1.0
 40
1.0
 40
1.0
 40
2.0
 40
2.0
 40
2.0
 40
3.0
 40
3.0
 40
3.0
 40
4.0
 40
4.0
 40
4.0
 40
5.0
 40
5.0
 40
5.0
 40
6.0
 40
6.0
 40
6.0
 40
7.0
 40
7.0
 40
7.0
 40
8.0
 40
8.0
 40
8.0
 40
9.0
 40
9.0
 40
9.0
 40
10.0
 40
10.0
 40
10.0
 40
11.0
 40
11.0
 40
11.0
 40
12.0
 40
12.0
 40
12.0
 40
13.0
 40
13.0
 40
13.0
 40
14.0
 40
14.0
 40
14.0
 40
15.0
 40
15.0
 40
15.0
 40
16.0
 40
16.0
 40
16.0
 40
17.0
 40
17.0
 40
17.0
 40
18.0
 40
18.0
 40
18.0
 40
19.0
 40
19.0
 40
19.0
 40
20.0
 40
20.0
 40
20.0
 40
21.0
 40
21.0
 40
21.0
 40
22.0
 40
22.0
 40
22.0
 40
23.0
 40
23.0
 40
23.0
 40
23.0
 10
841.0811172392969
 20
-615.0919810872983
 30
0.0
 10
802.3562690455619
 20
-615.0919810872983
 30
0.0
 10
772.1608827801792
 20
-604.0478500655809
 30
0.0
 10
750.494958443127
 20
-581.9595880221532
 30
0.0
 10
730.7841057385049
 20
-561.6908975970291
 30
0.0
 10
720.9277995159719
 20
-537.0158171020557
 30
0.0
 10
720.9277995159719
 20
-507.9378660181137
 30
0.0
 10
720.9277995159719
 20
-480.4014475624463
 30
0.0
 10
729.3851120861364
 20
-456.2190943915775
 30
0.0
 10
746.2997372264654
 20
-435.3872870246232
 30
0.0
 10
769.2256357208717
 20
-407.1504918725441
 30
0.0
 10
801.9374508200744
 20
-393.0268150751763
 30
0.0
 10
844.4351825240865
 20
-393.0268150751763
 30
0.0
 10
859.1131775610775
 20
-393.0268150751763
 30
0.0
 10
871.3451333819648
 20
-395.0188412569187
 30
0.0
 10
881.1310499867759
 20
-399.0028936203889
 30
0.0
 10
890.9152068511285
 20
-402.9869459838665
 30
0.0
 10
898.1494998132512
 20
-408.2661673135553
 30
0.0
 10
902.8339288731258
 20
-414.8370381285749
 30
0.0
 10
907.5165981925638
 20
-421.4079089436018
 30
0.0
 10
909.858812722503
 20
-428.6052473564123
 30
0.0
 10
909.858812722503
 20
-436.432572847898
 30
0.0
 10
909.858812722503
 20
-444.8230152812248
 30
0.0
 10
907.0291500897911
 20
-453.4175876059526
 30
0.0
 10
901.3663053434757
 20
-462.2268482647669
 30
0.0
 10
895.7052203376061
 20
-471.0325894426933
 30
0.0
 10
887.4221220713189
 20
-479.1801876948484
 30
0.0
 10
876.5187702850653
 20
-486.6555650976916
 30
0.0
 10
865.6136587583642
 20
-494.134461981419
 30
0.0
 10
852.1217287801192
 20
-500.1809301443609
 30
0.0
 10
836.0482595716494
 20
-504.7949695865063
 30
0.0
 10
825.841765000916
 20
-507.8709958812724
 30
0.0
 10
814.5882248664639
 20
-509.968606489605
 30
0.0
 10
802.2876391682839
 20
-511.0842819306126
 30
0.0
 10
802.5656781583057
 20
-524.7856210216014
 30
0.0
 10
804.7319186439272
 20
-537.786583416193
 30
0.0
 10
808.7881203655743
 20
-550.087169114373
 30
0.0
 10
812.9815818417919
 20
-563.2289107444158
 30
0.0
 10
819.0966798820191
 20
-573.9210936774798
 30
0.0
 10
827.1369339671364
 20
-582.1707568753445
 30
0.0
 10
835.1736685713622
 20
-590.4204200732056
 30
0.0
 10
844.9243903673014
 20
-594.54173219125
 30
0.0
 10
856.3873396145045
 20
-594.54173219125
 30
0.0
 10
861.840775248078
 20
-594.54173219125
 30
0.0
 10
867.4649057046408
 20
-593.6689009314141
 30
0.0
 10
873.2685296864183
 20
-591.9197189308434
 30
0.0
 10
879.066874446864
 20
-590.1740564111569
 30
0.0
 10
885.011277664089
 20
-586.8199911263619
 30
0.0
 10
891.0911808954479
 20
-581.8540035955557
 30
0.0
 10
897.1728438672526
 20
-576.8950550265399
 30
0.0
 10
903.56774063796
 20
-569.7962620785474
 30
0.0
 10
910.2793906884417
 20
-560.5717026751336
 30
0.0
 10
912.9330792768305
 20
-556.9360789194216
 30
0.0
 10
916.009105571593
 20
-555.1200267820059
 30
0.0
 10
919.5057098322886
 20
-555.1200267820059
 30
0.0
 10
922.3001776561359
 20
-555.1200267820059
 30
0.0
 10
924.8166064899524
 20
-555.8907930961432
 30
0.0
 10
927.0532365933104
 20
-557.4252867626383
 30
0.0
 10
929.2881069562172
 20
-558.9668193909056
 30
0.0
 10
930.4090616185495
 20
-561.0644299992418
 30
0.0
 10
930.4090616185495
 20
-563.7181185876325
 30
0.0
 10
930.4090616185495
 20
-565.5341707250445
 30
0.0
 10
929.6382953044085
 20
-567.491002097915
 30
0.0
 10
928.1020418974804
 20
-569.5886127062477
 30
0.0
 10
916.3592939198024
 20
-586.3624586111182
 30
0.0
 10
903.673325064552
 20
-598.1421611381047
 30
0.0
 10
890.0441353317256
 20
-604.9206813254204
 30
0.0
 10
876.4131858584733
 20
-611.6992015127471
 30
0.0
 10
860.0898335070742
 20
-615.0919810872983
 30
0.0
 10
841.0811172392969
 20
-615.0919810872983
 30
0.0
  0
SPLINE
  5
4E
330
45
100
AcDbEntity
  8
Layer 1
370
     0
100
AcDbSpline
210
0.0
220
0.0
230
1.0
 70
    11
 71
     3
 72
    29
 73
    25
 74
     0
 42
0.0000000001
 43
0.0000000001
 12
1.0
 22
0.0
 32
0.0
 13
1.0
 23
0.0
 33
0.0
 40
0.0
 40
0.0
 40
0.0
 40
0.0
 40
1.0
 40
1.0
 40
1.0
 40
2.0
 40
2.0
 40
2.0
 40
3.0
 40
3.0
 40
3.0
 40
4.0
 40
4.0
 40
4.0
 40
5.0
 40
5.0
 40
5.0
 40
6.0
 40
6.0
 40
6.0
 40
7.0
 40
7.0
 40
7.0
 40
8.0
 40
8.0
 40
8.0
 40
8.0
 10
802.7064573937714
 20
-496.1968777808834
 30
0.0
 10
812.0717960326365
 20
-495.2184620944463
 30
0.0
 10
820.5308683432522
 20
-493.5431891924927
 30
0.0
 10
828.0801548447089
 20
-491.1640201132468
 30
0.0
 10
841.6371952193513
 20
-486.9687988965889
 30
0.0
 10
852.7517158587871
 20
-481.6227074300477
 30
0.0
 10
861.4201972821465
 20
-475.1222262327647
 30
0.0
 10
870.0869189650584
 20
-468.6217450354707
 30
0.0
 10
876.4131858584733
 20
-461.6707702847016
 30
0.0
 10
880.3972382219472
 20
-454.2587435378155
 30
0.0
 10
884.3812905854138
 20
-446.8502362718209
 30
0.0
 10
886.3733167671526
 20
-439.9309368490394
 30
0.0
 10
886.3733167671526
 20
-433.4973257885904
 30
0.0
 10
886.3733167671526
 20
-427.4895719154047
 30
0.0
 10
884.518550339988
 20
-422.4883895757375
 30
0.0
 10
880.8178161878714
 20
-418.5043372122709
 30
0.0
 10
877.1118028144301
 20
-414.520284848797
 30
0.0
 10
871.8325814847449
 20
-412.5282586670619
 30
0.0
 10
864.985431420133
 20
-412.5282586670619
 30
0.0
 10
851.8436897900865
 20
-412.5282586670619
 30
0.0
 10
840.7291691506416
 20
-416.4454408936908
 30
0.0
 10
831.6453889826953
 20
-424.2727663851729
 30
0.0
 10
814.7290041019223
 20
-439.2340796335193
 30
0.0
 10
805.082106992133
 20
-463.2052639512003
 30
0.0
 10
802.7064573937714
 20
-496.1968777808834
 30
0.0
  0
HATCH
  5
4F
330
45
100
AcDbEntity
  8
Layer 1
 62
     7
420
 16777215
100
AcDbHatch
 10
0.0
 20
0.0
 30
0.0
210
0.0
220
0.0
230
1.0
  2
SOLID
 70
     1
 71
     0
 91
        2
 92
        1
 93
        1
 72
     4
 94
        3
 73
     0
 74
     1
 95
       74
 96
       70
 40
0.0
 40
0.0
 40
0.0
 40
0.0
 40
1.0
 40
1.0
 40
1.0
 40
2.0
 40
2.0
 40
2.0
 40
3.0
 40
3.0
 40
3.0
 40
4.0
 40
4.0
 40
4.0
 40
5.0
 40
5.0
 40
5.0
 40
6.0
 40
6.0
 40
6.0
 40
7.0
 40
7.0
 40
7.0
 40
8.0
 40
8.0
 40
8.0
 40
9.0
 40
9.0
 40
9.0
 40
10.0
 40
10.0
 40
10.0
 40
11.0
 40
11.0
 40
11.0
 40
12.0
 40
12.0
 40
12.0
 40
13.0
 40
13.0
 40
13.0
 40
14.0
 40
14.0
 40
14.0
 40
15.0
 40
15.0
 40
15.0
 40
16.0
 40
16.0
 40
16.0
 40
17.0
 40
17.0
 40
17.0
 40
18.0
 40
18.0
 40
18.0
 40
19.0
 40
19.0
 40
19.0
 40
20.0
 40
20.0
 40
20.0
 40
21.0
 40
21.0
 40
21.0
 40
22.0
 40
22.0
 40
22.0
 40
23.0
 40
23.0
 40
23.0
 40
23.0
 10
841.0811172392969
 20
-615.0919810872983
 10
802.3562690455619
 20
-615.0919810872983
 10
772.1608827801792
 20
-604.0478500655809
 10
750.494958443127
 20
-581.9595880221532
 10
730.7841057385049
 20
-561.6908975970291
 10
720.9277995159719
 20
-537.0158171020557
 10
720.9277995159719
 20
-507.9378660181137
 10
720.9277995159719
 20
-480.4014475624463
 10
729.3851120861364
 20
-456.2190943915775
 10
746.2997372264654
 20
-435.3872870246232
 10
769.2256357208717
 20
-407.1504918725441
 10
801.9374508200744
 20
-393.0268150751763
 10
844.4351825240865
 20
-393.0268150751763
 10
859.1131775610775
 20
-393.0268150751763
 10
871.3451333819648
 20
-395.0188412569187
 10
881.1310499867759
 20
-399.0028936203889
 10
890.9152068511285
 20
-402.9869459838665
 10
898.1494998132512
 20
-408.2661673135553
 10
902.8339288731258
 20
-414.8370381285749
 10
907.5165981925638
 20
-421.4079089436018
 10
909.858812722503
 20
-428.6052473564123
 10
909.858812722503
 20
-436.432572847898
 10
909.858812722503
 20
-444.8230152812248
 10
907.0291500897911
 20
-453.4175876059526
 10
901.3663053434757
 20
-462.2268482647669
 10
895.7052203376061
 20
-471.0325894426933
 10
887.4221220713189
 20
-479.1801876948484
 10
876.5187702850653
 20
-486.6555650976916
 10
865.6136587583642
 20
-494.134461981419
 10
852.1217287801192
 20
-500.1809301443609
 10
836.0482595716494
 20
-504.7949695865063
 10
825.841765000916
 20
-507.8709958812724
 10
814.5882248664639
 20
-509.968606489605
 10
802.2876391682839
 20
-511.0842819306126
 10
802.5656781583057
 20
-524.7856210216014
 10
804.7319186439272
 20
-537.786583416193
 10
808.7881203655743
 20
-550.087169114373
 10
812.9815818417919
 20
-563.2289107444158
 10
819.0966798820191
 20
-573.9210936774798
 10
827.1369339671364
 20
-582.1707568753445
 10
835.1736685713622
 20
-590.4204200732056
 10
844.9243903673014
 20
-594.54173219125
 10
856.3873396145045
 20
-594.54173219125
 10
861.840775248078
 20
-594.54173219125
 10
867.4649057046408
 20
-593.6689009314141
 10
873.2685296864183
 20
-591.9197189308434
 10
879.066874446864
 20
-590.1740564111569
 10
885.011277664089
 20
-586.8199911263619
 10
891.0911808954479
 20
-581.8540035955557
 10
897.1728438672526
 20
-576.8950550265399
 10
903.56774063796
 20
-569.7962620785474
 10
910.2793906884417
 20
-560.5717026751336
 10
912.9330792768305
 20
-556.9360789194216
 10
916.009105571593
 20
-555.1200267820059
 10
919.5057098322886
 20
-555.1200267820059
 10
922.3001776561359
 20
-555.1200267820059
 10
924.8166064899524
 20
-555.8907930961432
 10
927.0532365933104
 20
-557.4252867626383
 10
929.2881069562172
 20
-558.9668193909056
 10
930.4090616185495
 20
-561.0644299992418
 10
930.4090616185495
 20
-563.7181185876325
 10
930.4090616185495
 20
-565.5341707250445
 10
929.6382953044085
 20
-567.491002097915
 10
928.1020418974804
 20
-569.5886127062477
 10
916.3592939198024
 20
-586.3624586111182
 10
903.673325064552
 20
-598.1421611381047
 10
890.0441353317256
 20
-604.9206813254204
 10
876.4131858584733
 20
-611.6992015127471
 10
860.0898335070742
 20
-615.0919810872983
 10
841.0811172392969
 20
-615.0919810872983
 97
        0
 97
        0
 92
        1
 93
        1
 72
     4
 94
        3
 73
     0
 74
     1
 95
       29
 96
       25
 40
0.0
 40
0.0
 40
0.0
 40
0.0
 40
1.0
 40
1.0
 40
1.0
 40
2.0
 40
2.0
 40
2.0
 40
3.0
 40
3.0
 40
3.0
 40
4.0
 40
4.0
 40
4.0
 40
5.0
 40
5.0
 40
5.0
 40
6.0
 40
6.0
 40
6.0
 40
7.0
 40
7.0
 40
7.0
 40
8.0
 40
8.0
 40
8.0
 40
8.0
 10
802.7064573937714
 20
-496.1968777808834
 10
812.0717960326365
 20
-495.2184620944463
 10
820.5308683432522
 20
-493.5431891924927
 10
828.0801548447089
 20
-491.1640201132468
 10
841.6371952193513
 20
-486.9687988965889
 10
852.7517158587871
 20
-481.6227074300477
 10
861.4201972821465
 20
-475.1222262327647
 10
870.0869189650584
 20
-468.6217450354707
 10
876.4131858584733
 20
-461.6707702847016
 10
880.3972382219472
 20
-454.2587435378155
 10
884.3812905854138
 20
-446.8502362718209
 10
886.3733167671526
 20
-439.9309368490394
 10
886.3733167671526
 20
-433.4973257885904
 10
886.3733167671526
 20
-427.4895719154047
 10
884.518550339988
 20
-422.4883895757375
 10
880.8178161878714
 20
-418.5043372122709
 10
877.1118028144301
 20
-414.520284848797
 10
871.8325814847449
 20
-412.5282586670619
 10
864.985431420133
 20
-412.5282586670619
 10
851.8436897900865
 20
-412.5282586670619
 10
840.7291691506416
 20
-416.4454408936908
 10
831.6453889826953
 20
-424.2727663851729
 10
814.7290041019223
 20
-439.2340796335193
 10
805.082106992133
 20
-463.2052639512003
 10
802.7064573937714
 20
-496.1968777808834
 97
        0
 97
        0
 75
     2
 76
     1
 98
        0
  0
ENDBLK
  5
48
330
45
100
AcDbEntity
  8
0
100
AcDbBlockEnd
  0
BLOCK
  5
52
330
50
100
AcDbEntity
  8
0
100
AcDbBlockBegin
  2
block 4
 70
     0
 10
0.0
 20
0.0
 30
0.0
  3
block 4
  1

  0
SPLINE
  5
54
330
50
100
AcDbEntity
  8
Layer 1
370
     0
100
AcDbSpline
210
0.0
220
0.0
230
1.0
 70
    11
 71
     3
 72
    23
 73
    19
 74
     0
 42
0.0000000001
 43
0.0000000001
 12
1.0
 22
0.0
 32
0.0
 13
1.0
 23
0.0
 33
0.0
 40
0.0
 40
0.0
 40
0.0
 40
0.0
 40
1.0
 40
1.0
 40
1.0
 40
2.0
 40
2.0
 40
2.0
 40
3.0
 40
3.0
 40
3.0
 40
4.0
 40
4.0
 40
4.0
 40
5.0
 40
5.0
 40
5.0
 40
6.0
 40
6.0
 40
6.0
 40
6.0
 10
342.9756097196405
 20
-505.3467573012167
 30
0.0
 10
348.9418704963773
 20
-493.7000045263012
 30
0.0
 10
355.2878091813254
 20
-465.5799100384829
 30
0.0
 10
346.836838329069
 20
-451.0197408440326
 30
0.0
 10
338.3857611244603
 20
-436.4630812773175
 30
0.0
 10
313.1757861331298
 20
-416.933491931828
 30
0.0
 10
302.5953220718602
 20
-419.87466631606
 30
0.0
 10
297.3052495697539
 20
-421.3454130367063
 30
0.0
 10
296.7895469991836
 20
-425.7957273418288
 30
0.0
 10
297.5980376037278
 20
-429.876573564823
 30
0.0
 10
298.3716446357666
 20
-433.7902338853783
 30
0.0
 10
300.3302296099046
 20
-437.3901547579699
 30
0.0
 10
303.0937955608752
 20
-440.2685812525997
 30
0.0
 10
330.4959052984523
 20
-468.8418431261198
 30
0.0
 10
342.9756097196405
 20
-505.3467573012167
 30
0.0
 10
342.9756097196405
 20
-505.3467573012167
 30
0.0
 10
342.9756097196405
 20
-505.3467573012167
 30
0.0
 10
342.9756097196405
 20
-505.3467573012167
 30
0.0
 10
342.9756097196405
 20
-505.3467573012167
 30
0.0
  0
SPLINE
  5
55
330
50
100
AcDbEntity
  8
Layer 1
370
     0
100
AcDbSpline
210
0.0
220
0.0
230
1.0
 70
    11
 71
     3
 72
    20
 73
    16
 74
     0
 42
0.0000000001
 43
0.0000000001
 12
1.0
 22
0.0
 32
0.0
 13
1.0
 23
0.0
 33
0.0
 40
0.0
 40
0.0
 40
0.0
 40
0.0
 40
1.0
 40
1.0
 40
1.0
 40
2.0
 40
2.0
 40
2.0
 40
3.0
 40
3.0
 40
3.0
 40
4.0
 40
4.0
 40
4.0
 40
5.0
 40
5.0
 40
5.0
 40
5.0
 10
428.0048494975854
 20
-576.018216416749
 30
0.0
 10
472.8875641045397
 20
-533.6341440438482
 30
0.0
 10
489.8350246171012
 20
-489.7237026684998
 30
0.0
 10
482.1680833277005
 20
-460.1817835434449
 30
0.0
 10
474.4977387629151
 20
-430.6363547906731
 30
0.0
 10
444.0079010955851
 20
-412.9327290323345
 30
0.0
 10
428.5730901316347
 20
-426.2939881261227
 30
0.0
 10
413.1381728153301
 20
-439.6553535722778
 30
0.0
 10
422.8924917810855
 20
-453.0793605556646
 30
0.0
 10
422.8924917810855
 20
-453.0793605556646
 30
0.0
 10
460.3905242494602
 20
-503.9283359393594
 30
0.0
 10
428.0048494975854
 20
-576.018216416749
 30
0.0
 10
428.0048494975854
 20
-576.018216416749
 30
0.0
 10
428.0048494975854
 20
-576.018216416749
 30
0.0
 10
428.0048494975854
 20
-576.018216416749
 30
0.0
 10
428.0048494975854
 20
-576.018216416749
 30
0.0
  0
SPLINE
  5
56
330
50
100
AcDbEntity
  8
Layer 1
370
     0
100
AcDbSpline
210
0.0
220
0.0
230
1.0
 70
    11
 71
     3
 72
    26
 73
    22
 74
     0
 42
0.0000000001
 43
0.0000000001
 12
1.0
 22
0.0
 32
0.0
 13
1.0
 23
0.0
 33
0.0
 40
0.0
 40
0.0
 40
0.0
 40
0.0
 40
1.0
 40
1.0
 40
1.0
 40
2.0
 40
2.0
 40
2.0
 40
3.0
 40
3.0
 40
3.0
 40
4.0
 40
4.0
 40
4.0
 40
5.0
 40
5.0
 40
5.0
 40
6.0
 40
6.0
 40
6.0
 40
7.0
 40
7.0
 40
7.0
 40
7.0
 10
364.0943159571561
 20
-462.8790919770945
 30
0.0
 10
364.0943159571561
 20
-462.8790919770945
 30
0.0
 10
383.6937788000414
 20
-410.8974640100714
 30
0.0
 10
441.0734269097447
 20
-410.6116952315388
 30
0.0
 10
498.4531813718004
 20
-410.3294360807195
 30
0.0
 10
517.4847226376824
 20
-499.9485244538519
 30
0.0
 10
482.2588018867191
 20
-541.4228587800026
 30
0.0
 10
447.039794038832
 20
-582.8938961831591
 30
0.0
 10
408.1233402086054
 20
-613.3209859608942
 30
0.0
 10
366.0808716007268
 20
-642.2809449980668
 30
0.0
 10
366.0808716007268
 20
-642.2809449980668
 30
0.0
 10
297.6223922930876
 20
-599.3708538761275
 30
0.0
 10
251.8893906059548
 20
-538.582719133261
 30
0.0
 10
206.1562825664678
 20
-477.7946907427613
 30
0.0
 10
253.4053370775782
 20
-411.8906886556833
 30
0.0
 10
286.9235580604309
 20
-410.6116952315388
 30
0.0
 10
320.4417790432744
 20
-409.3327018073869
 30
0.0
 10
347.7116928032938
 20
-428.5556773127064
 30
0.0
 10
364.0943159571561
 20
-462.8790919770945
 30
0.0
 10
364.0943159571561
 20
-462.8790919770945
 30
0.0
 10
364.0943159571561
 20
-462.8790919770945
 30
0.0
 10
364.0943159571561
 20
-462.8790919770945
 30
0.0
  0
HATCH
  5
57
330
50
100
AcDbEntity
  8
Layer 1
 62
    41
420
 16045409
100
AcDbHatch
 10
0.0
 20
0.0
 30
0.0
210
0.0
220
0.0
230
1.0
  2
SOLID
 70
     1
 71
     0
 91
        3
 92
        1
 93
        1
 72
     4
 94
        3
 73
     0
 74
     1
 95
       23
 96
       19
 40
0.0
 40
0.0
 40
0.0
 40
0.0
 40
1.0
 40
1.0
 40
1.0
 40
2.0
 40
2.0
 40
2.0
 40
3.0
 40
3.0
 40
3.0
 40
4.0
 40
4.0
 40
4.0
 40
5.0
 40
5.0
 40
5.0
 40
6.0
 40
6.0
 40
6.0
 40
6.0
 10
342.9756097196405
 20
-505.3467573012167
 10
348.9418704963773
 20
-493.7000045263012
 10
355.2878091813254
 20
-465.5799100384829
 10
346.836838329069
 20
-451.0197408440326
 10
338.3857611244603
 20
-436.4630812773175
 10
313.1757861331298
 20
-416.933491931828
 10
302.5953220718602
 20
-419.87466631606
 10
297.3052495697539
 20
-421.3454130367063
 10
296.7895469991836
 20
-425.7957273418288
 10
297.5980376037278
 20
-429.876573564823
 10
298.3716446357666
 20
-433.7902338853783
 10
300.3302296099046
 20
-437.3901547579699
 10
303.0937955608752
 20
-440.2685812525997
 10
330.4959052984523
 20
-468.8418431261198
 10
342.9756097196405
 20
-505.3467573012167
 10
342.9756097196405
 20
-505.3467573012167
 10
342.9756097196405
 20
-505.3467573012167
 10
342.9756097196405
 20
-505.3467573012167
 10
342.9756097196405
 20
-505.3467573012167
 97
        0
 97
        0
 92
        1
 93
        1
 72
     4
 94
        3
 73
     0
 74
     1
 95
       20
 96
       16
 40
0.0
 40
0.0
 40
0.0
 40
0.0
 40
1.0
 40
1.0
 40
1.0
 40
2.0
 40
2.0
 40
2.0
 40
3.0
 40
3.0
 40
3.0
 40
4.0
 40
4.0
 40
4.0
 40
5.0
 40
5.0
 40
5.0
 40
5.0
 10
428.0048494975854
 20
-576.018216416749
 10
472.8875641045397
 20
-533.6341440438482
 10
489.8350246171012
 20
-489.7237026684998
 10
482.1680833277005
 20
-460.1817835434449
 10
474.4977387629151
 20
-430.6363547906731
 10
444.0079010955851
 20
-412.9327290323345
 10
428.5730901316347
 20
-426.2939881261227
 10
413.1381728153301
 20
-439.6553535722778
 10
422.8924917810855
 20
-453.0793605556646
 10
422.8924917810855
 20
-453.0793605556646
 10
460.3905242494602
 20
-503.9283359393594
 10
428.0048494975854
 20
-576.018216416749
 10
428.0048494975854
 20
-576.018216416749
 10
428.0048494975854
 20
-576.018216416749
 10
428.0048494975854
 20
-576.018216416749
 10
428.0048494975854
 20
-576.018216416749
 97
        0
 97
        0
 92
        1
 93
        1
 72
     4
 94
        3
 73
     0
 74
     1
 95
       26
 96
       22
 40
0.0
 40
0.0
 40
0.0
 40
0.0
 40
1.0
 40
1.0
 40
1.0
 40
2.0
 40
2.0
 40
2.0
 40
3.0
 40
3.0
 40
3.0
 40
4.0
 40
4.0
 40
4.0
 40
5.0
 40
5.0
 40
5.0
 40
6.0
 40
6.0
 40
6.0
 40
7.0
 40
7.0
 40
7.0
 40
7.0
 10
364.0943159571561
 20
-462.8790919770945
 10
364.0943159571561
 20
-462.8790919770945
 10
383.6937788000414
 20
-410.8974640100714
 10
441.0734269097447
 20
-410.6116952315388
 10
498.4531813718004
 20
-410.3294360807195
 10
517.4847226376824
 20
-499.9485244538519
 10
482.2588018867191
 20
-541.4228587800026
 10
447.039794038832
 20
-582.8938961831591
 10
408.1233402086054
 20
-613.3209859608942
 10
366.0808716007268
 20
-642.2809449980668
 10
366.0808716007268
 20
-642.2809449980668
 10
297.6223922930876
 20
-599.3708538761275
 10
251.8893906059548
 20
-538.582719133261
 10
206.1562825664678
 20
-477.7946907427613
 10
253.4053370775782
 20
-411.8906886556833
 10
286.9235580604309
 20
-410.6116952315388
 10
320.4417790432744
 20
-409.3327018073869
 10
347.7116928032938
 20
-428.5556773127064
 10
364.0943159571561
 20
-462.8790919770945
 10
364.0943159571561
 20
-462.8790919770945
 10
364.0943159571561
 20
-462.8790919770945
 10
364.0943159571561
 20
-462.8790919770945
 97
        0
 97
        0
 75
     2
 76
     1
 98
        0
  0
INSERT
  5
59
330
50
100
AcDbEntity
  8
Layer 1
100
AcDbBlockReference
  2
block 5
 10
0.0
 20
0.0
 30
0.0
  0
ENDBLK
  5
53
330
50
100
AcDbEntity
  8
0
100
AcDbBlockEnd
  0
BLOCK
  5
5A
330
58
100
AcDbEntity
  8
0
100
AcDbBlockBegin
  2
block 5
 70
     0
 10
0.0
 20
0.0
 30
0.0
  3
block 5
  1

  0
SPLINE
  5
5C
330
58
100
AcDbEntity
  8
Layer 1
370
     0
100
AcDbSpline
210
0.0
220
0.0
230
1.0
 70
    11
 71
     3
 72
    71
 73
    67
 74
     0
 42
0.0000000001
 43
0.0000000001
 12
1.0
 22
0.0
 32
0.0
 13
1.0
 23
0.0
 33
0.0
 40
0.0
 40
0.0
 40
0.0
 40
0.0
 40
1.0
 40
1.0
 40
1.0
 40
2.0
 40
2.0
 40
2.0
 40
3.0
 40
3.0
 40
3.0
 40
4.0
 40
4.0
 40
4.0
 40
5.0
 40
5.0
 40
5.0
 40
6.0
 40
6.0
 40
6.0
 40
7.0
 40
7.0
 40
7.0
 40
8.0
 40
8.0
 40
8.0
 40
9.0
 40
9.0
 40
9.0
 40
10.0
 40
10.0
 40
10.0
 40
11.0
 40
11.0
 40
11.0
 40
12.0
 40
12.0
 40
12.0
 40
13.0
 40
13.0
 40
13.0
 40
14.0
 40
14.0
 40
14.0
 40
15.0
 40
15.0
 40
15.0
 40
16.0
 40
16.0
 40
16.0
 40
17.0
 40
17.0
 40
17.0
 40
18.0
 40
18.0
 40
18.0
 40
19.0
 40
19.0
 40
19.0
 40
20.0
 40
20.0
 40
20.0
 40
21.0
 40
21.0
 40
21.0
 40
22.0
 40
22.0
 40
22.0
 40
22.0
 10
328.7901120406623
 20
-605.1744575723569
 30
0.0
 10
324.7384980171319
 20
-602.3176587109592
 30
0.0
 10
320.8406405764454
 20
-599.1822973176131
 30
0.0
 10
317.126188893064
 20
-595.772487021226
 30
0.0
 10
316.2151365107729
 20
-594.9361008846136
 30
0.0
 10
315.3490235840363
 20
-594.0647100943497
 30
0.0
 10
314.4891975241371
 20
-593.1886623656974
 30
0.0
 10
305.6325544596348
 20
-602.0133277865425
 30
0.0
 10
296.7832848809194
 20
-610.8453666931637
 30
0.0
 10
287.9499265084069
 20
-619.6933944216362
 30
0.0
 10
285.534217329121
 20
-622.1131396142046
 30
0.0
 10
283.3331153944164
 20
-623.0793767165378
 30
0.0
 10
279.8249660821584
 20
-622.5071942184768
 30
0.0
 10
272.3696733978049
 20
-621.2911123709928
 30
0.0
 10
264.8116176060939
 20
-620.7175327914047
 30
0.0
 10
257.3089793813506
 20
-619.7752789218248
 30
0.0
 10
250.3650185333063
 20
-618.9031895908083
 30
0.0
 10
244.6295332000282
 20
-620.5469336146889
 30
0.0
 10
239.3468575104944
 20
-625.6534994170579
 30
0.0
 10
215.9241649032374
 20
-648.2952234546683
 30
0.0
 10
192.2069209421843
 20
-670.632306105279
 30
0.0
 10
168.6019868122039
 20
-693.0856569846001
 30
0.0
 10
167.900496657905
 20
-693.7529962573099
 30
0.0
 10
167.2075442240075
 20
-694.4431545281732
 30
0.0
 10
166.6044707012188
 20
-695.1976561645788
 30
0.0
 10
162.436898911541
 20
-700.4114867814424
 30
0.0
 10
164.1539120995731
 20
-705.0126195361518
 30
0.0
 10
170.6584908095865
 20
-706.0298501139587
 30
0.0
 10
171.9953425929107
 20
-706.2388690324697
 30
0.0
 10
173.3625420914723
 20
-706.3404679052401
 30
0.0
 10
174.7160036217538
 20
-706.3426411431537
 30
0.0
 10
184.6071079361536
 20
-706.3593285057577
 30
0.0
 10
194.4983674818395
 20
-706.3671676853883
 30
0.0
 10
204.3892389493158
 20
-706.3087231084792
 30
0.0
 10
206.9709679825646
 20
-706.2934328273914
 30
0.0
 10
209.5512223186488
 20
-706.0346622836441
 30
0.0
 10
212.1931034728987
 20
-705.8843207889731
 30
0.0
 10
211.3566397206432
 20
-712.6235315786944
 30
0.0
 10
210.1599617831598
 20
-718.7603673864032
 30
0.0
 10
209.9516414054015
 20
-724.9304226880413
 30
0.0
 10
209.7438643371261
 20
-731.0842563209007
 30
0.0
 10
210.0631750800821
 20
-737.3427158364866
 30
0.0
 10
210.9975121543757
 20
-743.4252983118386
 30
0.0
 10
212.0597598033819
 20
-750.3417832233172
 30
0.0
 10
218.8192282751497
 20
-751.7851236647184
 30
0.0
 10
223.4607211626608
 20
-746.9231247439748
 30
0.0
 10
230.8089818794506
 20
-739.2259041097459
 30
0.0
 10
238.7851531238302
 20
-732.0673360171095
 30
0.0
 10
246.9541216179587
 20
-725.2284667456224
 30
0.0
 10
259.9377434924372
 20
-714.3590949046848
 30
0.0
 10
271.1620516550811
 20
-701.7567986695212
 30
0.0
 10
282.9974277514302
 20
-689.7553251035861
 30
0.0
 10
287.2159930165872
 20
-685.4775391051044
 30
0.0
 10
291.1303049729559
 20
-680.8996910423848
 30
0.0
 10
295.1831608467255
 20
-676.4584465060761
 30
0.0
 10
298.9330828775765
 20
-672.3493192933165
 30
0.0
 10
300.6039147598167
 20
-667.782725498404
 30
0.0
 10
299.4093324446112
 20
-662.0652469936067
 30
0.0
 10
298.1822291762401
 20
-656.1927700557208
 30
0.0
 10
297.8882987475681
 20
-650.1236150861005
 30
0.0
 10
296.6310806108777
 20
-644.2594430217105
 30
0.0
 10
295.6063989316317
 20
-639.4804152201104
 30
0.0
 10
297.253790890587
 20
-636.4367178976099
 30
0.0
 10
300.6036042972537
 20
-633.1285840896162
 30
0.0
 10
310.0187695071891
 20
-623.8304632647923
 30
0.0
 10
319.4101843312819
 20
-614.5082815915848
 30
0.0
 10
328.7901120406623
 20
-605.1744575723569
 30
0.0
  0
SPLINE
  5
5D
330
58
100
AcDbEntity
  8
Layer 1
370
     0
100
AcDbSpline
210
0.0
220
0.0
230
1.0
 70
    11
 71
     3
 72
    23
 73
    19
 74
     0
 42
0.0000000001
 43
0.0000000001
 12
1.0
 22
0.0
 32
0.0
 13
1.0
 23
0.0
 33
0.0
 40
0.0
 40
0.0
 40
0.0
 40
0.0
 40
1.0
 40
1.0
 40
1.0
 40
2.0
 40
2.0
 40
2.0
 40
3.0
 40
3.0
 40
3.0
 40
4.0
 40
4.0
 40
4.0
 40
5.0
 40
5.0
 40
5.0
 40
6.0
 40
6.0
 40
6.0
 40
6.0
 10
248.2450249424019
 20
-631.3075659439819
 30
0.0
 10
248.8603617363096
 20
-630.7138062980011
 30
0.0
 10
250.0121002182386
 20
-630.4662124064052
 30
0.0
 10
250.9303708550469
 20
-630.4292673617601
 30
0.0
 10
258.8201558921064
 20
-630.1125179349328
 30
0.0
 10
266.7058273002458
 20
-630.0210090953879
 30
0.0
 10
275.2876333835229
 20
-631.4177025371464
 30
0.0
 10
271.2360193599961
 20
-636.8760224199832
 30
0.0
 10
266.5855230582474
 20
-640.8247957205203
 30
0.0
 10
262.2090875813319
 20
-645.0141775050361
 30
0.0
 10
261.7212732839453
 20
-645.4811131952702
 30
0.0
 10
260.7813478835742
 20
-645.6878812602154
 30
0.0
 10
260.0609195131146
 20
-645.6673907312579
 30
0.0
 10
251.8380081491814
 20
-645.4333795766652
 30
0.0
 10
243.6170371762546
 20
-645.1318428152736
 30
0.0
 10
234.6476185868269
 20
-644.822544489889
 30
0.0
 10
239.5865346068094
 20
-639.8836284699064
 30
0.0
 10
243.8601293607298
 20
-635.5379287864307
 30
0.0
 10
248.2450249424019
 20
-631.3075659439819
 30
0.0
  0
SPLINE
  5
5E
330
58
100
AcDbEntity
  8
Layer 1
370
     0
100
AcDbSpline
210
0.0
220
0.0
230
1.0
 70
    11
 71
     3
 72
    26
 73
    22
 74
     0
 42
0.0000000001
 43
0.0000000001
 12
1.0
 22
0.0
 32
0.0
 13
1.0
 23
0.0
 33
0.0
 40
0.0
 40
0.0
 40
0.0
 40
0.0
 40
1.0
 40
1.0
 40
1.0
 40
2.0
 40
2.0
 40
2.0
 40
3.0
 40
3.0
 40
3.0
 40
4.0
 40
4.0
 40
4.0
 40
5.0
 40
5.0
 40
5.0
 40
6.0
 40
6.0
 40
6.0
 40
7.0
 40
7.0
 40
7.0
 40
7.0
 10
224.4746142679505
 20
-654.8054681064023
 30
0.0
 10
225.3489544525273
 20
-653.9573620081537
 30
0.0
 10
226.8058000152887
 20
-653.2242822883782
 30
0.0
 10
227.9777961792552
 20
-653.2467132083293
 30
0.0
 10
235.8839581163538
 20
-653.3988398627225
 30
0.0
 10
243.7860064245306
 20
-653.7689112342341
 30
0.0
 10
252.3623017973696
 20
-654.0938879189089
 30
0.0
 10
251.5353847688311
 20
-655.3389980157408
 30
0.0
 10
251.0922770800826
 20
-656.2986377886773
 30
0.0
 10
250.3948229390626
 20
-657.0086656633757
 30
0.0
 10
246.0582042854639
 20
-661.4233656508259
 30
0.0
 10
241.7211975536666
 20
-665.8410926482211
 30
0.0
 10
237.2523994651547
 20
-670.1199652656578
 30
0.0
 10
236.0610770068288
 20
-671.2606823267015
 30
0.0
 10
234.3961439132345
 20
-672.6941655818264
 30
0.0
 10
232.9694908344354
 20
-672.6717346618534
 30
0.0
 10
224.7316772676295
 20
-672.5423493899834
 30
0.0
 10
216.4999953363749
 20
-672.0168138915687
 30
0.0
 10
207.5988785101472
 20
-671.593731037934
 30
0.0
 10
213.2523241119488
 20
-665.9402854361288
 30
0.0
 10
218.801066215392
 20
-660.3085722135329
 30
0.0
 10
224.4746142679505
 20
-654.8054681064023
 30
0.0
  0
SPLINE
  5
5F
330
58
100
AcDbEntity
  8
Layer 1
370
     0
100
AcDbSpline
210
0.0
220
0.0
230
1.0
 70
    11
 71
     3
 72
    26
 73
    22
 74
     0
 42
0.0000000001
 43
0.0000000001
 12
1.0
 22
0.0
 32
0.0
 13
1.0
 23
0.0
 33
0.0
 40
0.0
 40
0.0
 40
0.0
 40
0.0
 40
1.0
 40
1.0
 40
1.0
 40
2.0
 40
2.0
 40
2.0
 40
3.0
 40
3.0
 40
3.0
 40
4.0
 40
4.0
 40
4.0
 40
5.0
 40
5.0
 40
5.0
 40
6.0
 40
6.0
 40
6.0
 40
7.0
 40
7.0
 40
7.0
 40
7.0
 10
212.0666675953435
 20
-693.6289664645919
 30
0.0
 10
211.5472637324765
 20
-694.0554644063814
 30
0.0
 10
210.5982573022229
 20
-694.0872868187798
 30
0.0
 10
209.8489559136815
 20
-694.0853464277825
 30
0.0
 10
202.12651019646
 20
-694.0655544395813
 30
0.0
 10
194.4042197105136
 20
-694.001055842753
 30
0.0
 10
185.4244006253357
 20
-693.9405156435423
 30
0.0
 10
189.7198829897316
 20
-689.6450332791574
 30
0.0
 10
193.1531332093964
 20
-686.0792155463678
 30
0.0
 10
196.7684697204895
 20
-682.7086787638109
 30
0.0
 10
197.4876562407135
 20
-682.0382348655148
 30
0.0
 10
198.9000280417531
 20
-681.9008551827101
 30
0.0
 10
199.9988326571984
 20
-681.8823826604057
 30
0.0
 10
207.3484128398723
 20
-681.7585080989666
 30
0.0
 10
214.6995453353466
 20
-681.7232705983988
 30
0.0
 10
222.0504449839009
 20
-681.6933885770086
 30
0.0
 10
222.7443288054837
 20
-681.6905944139799
 30
0.0
 10
223.4392216303822
 20
-681.9240622590733
 30
0.0
 10
225.5064365860835
 20
-682.2925037021596
 30
0.0
 10
220.4706562473821
 20
-686.5645461432687
 30
0.0
 10
216.3086727837817
 20
-690.1455765414939
 30
0.0
 10
212.0666675953435
 20
-693.6289664645919
 30
0.0
  0
SPLINE
  5
60
330
58
100
AcDbEntity
  8
Layer 1
370
     0
100
AcDbSpline
210
0.0
220
0.0
230
1.0
 70
    11
 71
     3
 72
    26
 73
    22
 74
     0
 42
0.0000000001
 43
0.0000000001
 12
1.0
 22
0.0
 32
0.0
 13
1.0
 23
0.0
 33
0.0
 40
0.0
 40
0.0
 40
0.0
 40
0.0
 40
1.0
 40
1.0
 40
1.0
 40
2.0
 40
2.0
 40
2.0
 40
3.0
 40
3.0
 40
3.0
 40
4.0
 40
4.0
 40
4.0
 40
5.0
 40
5.0
 40
5.0
 40
6.0
 40
6.0
 40
6.0
 40
7.0
 40
7.0
 40
7.0
 40
7.0
 10
246.2057516171044
 20
-711.5526685936456
 30
0.0
 10
238.9402291725473
 20
-718.6857787563677
 30
0.0
 10
231.6031451079125
 20
-725.746240680055
 30
0.0
 10
224.284921643799
 20
-732.8257184355316
 30
0.0
 10
223.7281070424542
 20
-732.5796768567416
 30
0.0
 10
223.1712924411077
 20
-732.3337128935746
 30
0.0
 10
222.6144778397647
 20
-732.0876713147809
 30
0.0
 10
223.1290695329517
 20
-724.9789324630328
 30
0.0
 10
223.5837419520576
 20
-717.8647605164624
 30
0.0
 10
224.2256232948403
 20
-710.7674311637929
 30
0.0
 10
224.3175978282361
 20
-709.7501229703485
 30
0.0
 10
225.1489389482522
 20
-708.6535692084544
 30
0.0
 10
225.9178770937142
 20
-707.8673227752734
 30
0.0
 10
230.6431948724166
 20
-703.0359044166871
 30
0.0
 10
235.4489224541649
 20
-698.2830330857796
 30
0.0
 10
240.9860998272507
 20
-692.7459333283259
 30
0.0
 10
244.145677300281
 20
-698.4788573454935
 30
0.0
 10
245.6188221474386
 20
-703.7968481512326
 30
0.0
 10
247.2232926574743
 20
-709.0301602937179
 30
0.0
 10
247.4339415044269
 20
-709.7173691702628
 30
0.0
 10
246.8158881631243
 20
-710.9537086997843
 30
0.0
 10
246.2057516171044
 20
-711.5526685936456
 30
0.0
  0
SPLINE
  5
61
330
58
100
AcDbEntity
  8
Layer 1
370
     0
100
AcDbSpline
210
0.0
220
0.0
230
1.0
 70
    11
 71
     3
 72
    17
 73
    13
 74
     0
 42
0.0000000001
 43
0.0000000001
 12
1.0
 22
0.0
 32
0.0
 13
1.0
 23
0.0
 33
0.0
 40
0.0
 40
0.0
 40
0.0
 40
0.0
 40
1.0
 40
1.0
 40
1.0
 40
2.0
 40
2.0
 40
2.0
 40
3.0
 40
3.0
 40
3.0
 40
4.0
 40
4.0
 40
4.0
 40
4.0
 10
255.1566200685684
 20
-701.6861684371252
 30
0.0
 10
252.9347947579918
 20
-696.0390873178112
 30
0.0
 10
250.8409576377708
 20
-690.717448577001
 30
0.0
 10
248.7168504179517
 20
-685.3185822743835
 30
0.0
 10
253.9481445538077
 20
-680.0873657541742
 30
0.0
 10
258.9830711204595
 20
-675.0523615718739
 30
0.0
 10
264.4839243740262
 20
-669.5515859339466
 30
0.0
 10
266.7435485012811
 20
-675.053836269035
 30
0.0
 10
268.8356780774284
 20
-680.1479835690079
 30
0.0
 10
271.1236319132786
 20
-685.7191565924077
 30
0.0
 10
271.1236319132786
 20
-685.7191565924077
 30
0.0
 10
255.1566200685684
 20
-701.6861684371252
 30
0.0
 10
255.1566200685684
 20
-701.6861684371252
 30
0.0
  0
SPLINE
  5
62
330
58
100
AcDbEntity
  8
Layer 1
370
     0
100
AcDbSpline
210
0.0
220
0.0
230
1.0
 70
    11
 71
     3
 72
    26
 73
    22
 74
     0
 42
0.0000000001
 43
0.0000000001
 12
1.0
 22
0.0
 32
0.0
 13
1.0
 23
0.0
 33
0.0
 40
0.0
 40
0.0
 40
0.0
 40
0.0
 40
1.0
 40
1.0
 40
1.0
 40
2.0
 40
2.0
 40
2.0
 40
3.0
 40
3.0
 40
3.0
 40
4.0
 40
4.0
 40
4.0
 40
5.0
 40
5.0
 40
5.0
 40
6.0
 40
6.0
 40
6.0
 40
7.0
 40
7.0
 40
7.0
 40
7.0
 10
289.7901933327521
 20
-665.5231013711382
 30
0.0
 10
289.6692681656386
 20
-666.4169230813568
 30
0.0
 10
289.2245305484557
 20
-667.3393849627355
 30
0.0
 10
288.6975979685103
 20
-668.0875997323092
 30
0.0
 10
288.0366231782864
 20
-669.0259728198798
 30
0.0
 10
287.1596440619523
 20
-669.8174195009378
 30
0.0
 10
286.3428946822514
 20
-670.6396019754429
 30
0.0
 10
283.6351178496479
 20
-673.3656184834363
 30
0.0
 10
280.9125940454451
 20
-676.0768104042036
 30
0.0
 10
277.3671892259881
 20
-679.6222928393217
 30
0.0
 10
275.585677441115
 20
-673.6524082732321
 30
0.0
 10
273.9541190727214
 20
-668.7404248803323
 30
0.0
 10
272.7476615645955
 20
-663.7261440739203
 30
0.0
 10
272.4683228762442
 20
-662.5652469464549
 30
0.0
 10
273.3021476967424
 20
-660.7423660254826
 30
0.0
 10
274.2063699027167
 20
-659.7610714889888
 30
0.0
 10
277.601355611856
 20
-656.0764242113582
 30
0.0
 10
281.2373378831944
 20
-652.6139905110649
 30
0.0
 10
284.8297001648534
 20
-649.0216282294095
 30
0.0
 10
286.2738167626594
 20
-651.319051173341
 30
0.0
 10
290.0422113158311
 20
-663.6593170078668
 30
0.0
 10
289.7901933327521
 20
-665.5231013711382
 30
0.0
  0
HATCH
  5
63
330
58
100
AcDbEntity
  8
Layer 1
 62
    41
420
 16045409
100
AcDbHatch
 10
0.0
 20
0.0
 30
0.0
210
0.0
220
0.0
230
1.0
  2
SOLID
 70
     1
 71
     0
 91
        7
 92
        1
 93
        1
 72
     4
 94
        3
 73
     0
 74
     1
 95
       71
 96
       67
 40
0.0
 40
0.0
 40
0.0
 40
0.0
 40
1.0
 40
1.0
 40
1.0
 40
2.0
 40
2.0
 40
2.0
 40
3.0
 40
3.0
 40
3.0
 40
4.0
 40
4.0
 40
4.0
 40
5.0
 40
5.0
 40
5.0
 40
6.0
 40
6.0
 40
6.0
 40
7.0
 40
7.0
 40
7.0
 40
8.0
 40
8.0
 40
8.0
 40
9.0
 40
9.0
 40
9.0
 40
10.0
 40
10.0
 40
10.0
 40
11.0
 40
11.0
 40
11.0
 40
12.0
 40
12.0
 40
12.0
 40
13.0
 40
13.0
 40
13.0
 40
14.0
 40
14.0
 40
14.0
 40
15.0
 40
15.0
 40
15.0
 40
16.0
 40
16.0
 40
16.0
 40
17.0
 40
17.0
 40
17.0
 40
18.0
 40
18.0
 40
18.0
 40
19.0
 40
19.0
 40
19.0
 40
20.0
 40
20.0
 40
20.0
 40
21.0
 40
21.0
 40
21.0
 40
22.0
 40
22.0
 40
22.0
 40
22.0
 10
328.7901120406623
 20
-605.1744575723569
 10
324.7384980171319
 20
-602.3176587109592
 10
320.8406405764454
 20
-599.1822973176131
 10
317.126188893064
 20
-595.772487021226
 10
316.2151365107729
 20
-594.9361008846136
 10
315.3490235840363
 20
-594.0647100943497
 10
314.4891975241371
 20
-593.1886623656974
 10
305.6325544596348
 20
-602.0133277865425
 10
296.7832848809194
 20
-610.8453666931637
 10
287.9499265084069
 20
-619.6933944216362
 10
285.534217329121
 20
-622.1131396142046
 10
283.3331153944164
 20
-623.0793767165378
 10
279.8249660821584
 20
-622.5071942184768
 10
272.3696733978049
 20
-621.2911123709928
 10
264.8116176060939
 20
-620.7175327914047
 10
257.3089793813506
 20
-619.7752789218248
 10
250.3650185333063
 20
-618.9031895908083
 10
244.6295332000282
 20
-620.5469336146889
 10
239.3468575104944
 20
-625.6534994170579
 10
215.9241649032374
 20
-648.2952234546683
 10
192.2069209421843
 20
-670.632306105279
 10
168.6019868122039
 20
-693.0856569846001
 10
167.900496657905
 20
-693.7529962573099
 10
167.2075442240075
 20
-694.4431545281732
 10
166.6044707012188
 20
-695.1976561645788
 10
162.436898911541
 20
-700.4114867814424
 10
164.1539120995731
 20
-705.0126195361518
 10
170.6584908095865
 20
-706.0298501139587
 10
171.9953425929107
 20
-706.2388690324697
 10
173.3625420914723
 20
-706.3404679052401
 10
174.7160036217538
 20
-706.3426411431537
 10
184.6071079361536
 20
-706.3593285057577
 10
194.4983674818395
 20
-706.3671676853883
 10
204.3892389493158
 20
-706.3087231084792
 10
206.9709679825646
 20
-706.2934328273914
 10
209.5512223186488
 20
-706.0346622836441
 10
212.1931034728987
 20
-705.8843207889731
 10
211.3566397206432
 20
-712.6235315786944
 10
210.1599617831598
 20
-718.7603673864032
 10
209.9516414054015
 20
-724.9304226880413
 10
209.7438643371261
 20
-731.0842563209007
 10
210.0631750800821
 20
-737.3427158364866
 10
210.9975121543757
 20
-743.4252983118386
 10
212.0597598033819
 20
-750.3417832233172
 10
218.8192282751497
 20
-751.7851236647184
 10
223.4607211626608
 20
-746.9231247439748
 10
230.8089818794506
 20
-739.2259041097459
 10
238.7851531238302
 20
-732.0673360171095
 10
246.9541216179587
 20
-725.2284667456224
 10
259.9377434924372
 20
-714.3590949046848
 10
271.1620516550811
 20
-701.7567986695212
 10
282.9974277514302
 20
-689.7553251035861
 10
287.2159930165872
 20
-685.4775391051044
 10
291.1303049729559
 20
-680.8996910423848
 10
295.1831608467255
 20
-676.4584465060761
 10
298.9330828775765
 20
-672.3493192933165
 10
300.6039147598167
 20
-667.782725498404
 10
299.4093324446112
 20
-662.0652469936067
 10
298.1822291762401
 20
-656.1927700557208
 10
297.8882987475681
 20
-650.1236150861005
 10
296.6310806108777
 20
-644.2594430217105
 10
295.6063989316317
 20
-639.4804152201104
 10
297.253790890587
 20
-636.4367178976099
 10
300.6036042972537
 20
-633.1285840896162
 10
310.0187695071891
 20
-623.8304632647923
 10
319.4101843312819
 20
-614.5082815915848
 10
328.7901120406623
 20
-605.1744575723569
 97
        0
 97
        0
 92
        1
 93
        1
 72
     4
 94
        3
 73
     0
 74
     1
 95
       23
 96
       19
 40
0.0
 40
0.0
 40
0.0
 40
0.0
 40
1.0
 40
1.0
 40
1.0
 40
2.0
 40
2.0
 40
2.0
 40
3.0
 40
3.0
 40
3.0
 40
4.0
 40
4.0
 40
4.0
 40
5.0
 40
5.0
 40
5.0
 40
6.0
 40
6.0
 40
6.0
 40
6.0
 10
248.2450249424019
 20
-631.3075659439819
 10
248.8603617363096
 20
-630.7138062980011
 10
250.0121002182386
 20
-630.4662124064052
 10
250.9303708550469
 20
-630.4292673617601
 10
258.8201558921064
 20
-630.1125179349328
 10
266.7058273002458
 20
-630.0210090953879
 10
275.2876333835229
 20
-631.4177025371464
 10
271.2360193599961
 20
-636.8760224199832
 10
266.5855230582474
 20
-640.8247957205203
 10
262.2090875813319
 20
-645.0141775050361
 10
261.7212732839453
 20
-645.4811131952702
 10
260.7813478835742
 20
-645.6878812602154
 10
260.0609195131146
 20
-645.6673907312579
 10
251.8380081491814
 20
-645.4333795766652
 10
243.6170371762546
 20
-645.1318428152736
 10
234.6476185868269
 20
-644.822544489889
 10
239.5865346068094
 20
-639.8836284699064
 10
243.8601293607298
 20
-635.5379287864307
 10
248.2450249424019
 20
-631.3075659439819
 97
        0
 97
        0
 92
        1
 93
        1
 72
     4
 94
        3
 73
     0
 74
     1
 95
       26
 96
       22
 40
0.0
 40
0.0
 40
0.0
 40
0.0
 40
1.0
 40
1.0
 40
1.0
 40
2.0
 40
2.0
 40
2.0
 40
3.0
 40
3.0
 40
3.0
 40
4.0
 40
4.0
 40
4.0
 40
5.0
 40
5.0
 40
5.0
 40
6.0
 40
6.0
 40
6.0
 40
7.0
 40
7.0
 40
7.0
 40
7.0
 10
224.4746142679505
 20
-654.8054681064023
 10
225.3489544525273
 20
-653.9573620081537
 10
226.8058000152887
 20
-653.2242822883782
 10
227.9777961792552
 20
-653.2467132083293
 10
235.8839581163538
 20
-653.3988398627225
 10
243.7860064245306
 20
-653.7689112342341
 10
252.3623017973696
 20
-654.0938879189089
 10
251.5353847688311
 20
-655.3389980157408
 10
251.0922770800826
 20
-656.2986377886773
 10
250.3948229390626
 20
-657.0086656633757
 10
246.0582042854639
 20
-661.4233656508259
 10
241.7211975536666
 20
-665.8410926482211
 10
237.2523994651547
 20
-670.1199652656578
 10
236.0610770068288
 20
-671.2606823267015
 10
234.3961439132345
 20
-672.6941655818264
 10
232.9694908344354
 20
-672.6717346618534
 10
224.7316772676295
 20
-672.5423493899834
 10
216.4999953363749
 20
-672.0168138915687
 10
207.5988785101472
 20
-671.593731037934
 10
213.2523241119488
 20
-665.9402854361288
 10
218.801066215392
 20
-660.3085722135329
 10
224.4746142679505
 20
-654.8054681064023
 97
        0
 97
        0
 92
        1
 93
        1
 72
     4
 94
        3
 73
     0
 74
     1
 95
       26
 96
       22
 40
0.0
 40
0.0
 40
0.0
 40
0.0
 40
1.0
 40
1.0
 40
1.0
 40
2.0
 40
2.0
 40
2.0
 40
3.0
 40
3.0
 40
3.0
 40
4.0
 40
4.0
 40
4.0
 40
5.0
 40
5.0
 40
5.0
 40
6.0
 40
6.0
 40
6.0
 40
7.0
 40
7.0
 40
7.0
 40
7.0
 10
212.0666675953435
 20
-693.6289664645919
 10
211.5472637324765
 20
-694.0554644063814
 10
210.5982573022229
 20
-694.0872868187798
 10
209.8489559136815
 20
-694.0853464277825
 10
202.12651019646
 20
-694.0655544395813
 10
194.4042197105136
 20
-694.001055842753
 10
185.4244006253357
 20
-693.9405156435423
 10
189.7198829897316
 20
-689.6450332791574
 10
193.1531332093964
 20
-686.0792155463678
 10
196.7684697204895
 20
-682.7086787638109
 10
197.4876562407135
 20
-682.0382348655148
 10
198.9000280417531
 20
-681.9008551827101
 10
199.9988326571984
 20
-681.8823826604057
 10
207.3484128398723
 20
-681.7585080989666
 10
214.6995453353466
 20
-681.7232705983988
 10
222.0504449839009
 20
-681.6933885770086
 10
222.7443288054837
 20
-681.6905944139799
 10
223.4392216303822
 20
-681.9240622590733
 10
225.5064365860835
 20
-682.2925037021596
 10
220.4706562473821
 20
-686.5645461432687
 10
216.3086727837817
 20
-690.1455765414939
 10
212.0666675953435
 20
-693.6289664645919
 97
        0
 97
        0
 92
        1
 93
        1
 72
     4
 94
        3
 73
     0
 74
     1
 95
       26
 96
       22
 40
0.0
 40
0.0
 40
0.0
 40
0.0
 40
1.0
 40
1.0
 40
1.0
 40
2.0
 40
2.0
 40
2.0
 40
3.0
 40
3.0
 40
3.0
 40
4.0
 40
4.0
 40
4.0
 40
5.0
 40
5.0
 40
5.0
 40
6.0
 40
6.0
 40
6.0
 40
7.0
 40
7.0
 40
7.0
 40
7.0
 10
246.2057516171044
 20
-711.5526685936456
 10
238.9402291725473
 20
-718.6857787563677
 10
231.6031451079125
 20
-725.746240680055
 10
224.284921643799
 20
-732.8257184355316
 10
223.7281070424542
 20
-732.5796768567416
 10
223.1712924411077
 20
-732.3337128935746
 10
222.6144778397647
 20
-732.0876713147809
 10
223.1290695329517
 20
-724.9789324630328
 10
223.5837419520576
 20
-717.8647605164624
 10
224.2256232948403
 20
-710.7674311637929
 10
224.3175978282361
 20
-709.7501229703485
 10
225.1489389482522
 20
-708.6535692084544
 10
225.9178770937142
 20
-707.8673227752734
 10
230.6431948724166
 20
-703.0359044166871
 10
235.4489224541649
 20
-698.2830330857796
 10
240.9860998272507
 20
-692.7459333283259
 10
244.145677300281
 20
-698.4788573454935
 10
245.6188221474386
 20
-703.7968481512326
 10
247.2232926574743
 20
-709.0301602937179
 10
247.4339415044269
 20
-709.7173691702628
 10
246.8158881631243
 20
-710.9537086997843
 10
246.2057516171044
 20
-711.5526685936456
 97
        0
 97
        0
 92
        1
 93
        1
 72
     4
 94
        3
 73
     0
 74
     1
 95
       17
 96
       13
 40
0.0
 40
0.0
 40
0.0
 40
0.0
 40
1.0
 40
1.0
 40
1.0
 40
2.0
 40
2.0
 40
2.0
 40
3.0
 40
3.0
 40
3.0
 40
4.0
 40
4.0
 40
4.0
 40
4.0
 10
255.1566200685684
 20
-701.6861684371252
 10
252.9347947579918
 20
-696.0390873178112
 10
250.8409576377708
 20
-690.717448577001
 10
248.7168504179517
 20
-685.3185822743835
 10
253.9481445538077
 20
-680.0873657541742
 10
258.9830711204595
 20
-675.0523615718739
 10
264.4839243740262
 20
-669.5515859339466
 10
266.7435485012811
 20
-675.053836269035
 10
268.8356780774284
 20
-680.1479835690079
 10
271.1236319132786
 20
-685.7191565924077
 10
271.1236319132786
 20
-685.7191565924077
 10
255.1566200685684
 20
-701.6861684371252
 10
255.1566200685684
 20
-701.6861684371252
 97
        0
 97
        0
 92
        1
 93
        1
 72
     4
 94
        3
 73
     0
 74
     1
 95
       26
 96
       22
 40
0.0
 40
0.0
 40
0.0
 40
0.0
 40
1.0
 40
1.0
 40
1.0
 40
2.0
 40
2.0
 40
2.0
 40
3.0
 40
3.0
 40
3.0
 40
4.0
 40
4.0
 40
4.0
 40
5.0
 40
5.0
 40
5.0
 40
6.0
 40
6.0
 40
6.0
 40
7.0
 40
7.0
 40
7.0
 40
7.0
 10
289.7901933327521
 20
-665.5231013711382
 10
289.6692681656386
 20
-666.4169230813568
 10
289.2245305484557
 20
-667.3393849627355
 10
288.6975979685103
 20
-668.0875997323092
 10
288.0366231782864
 20
-669.0259728198798
 10
287.1596440619523
 20
-669.8174195009378
 10
286.3428946822514
 20
-670.6396019754429
 10
283.6351178496479
 20
-673.3656184834363
 10
280.9125940454451
 20
-676.0768104042036
 10
277.3671892259881
 20
-679.6222928393217
 10
275.585677441115
 20
-673.6524082732321
 10
273.9541190727214
 20
-668.7404248803323
 10
272.7476615645955
 20
-663.7261440739203
 10
272.4683228762442
 20
-662.5652469464549
 10
273.3021476967424
 20
-660.7423660254826
 10
274.2063699027167
 20
-659.7610714889888
 10
277.601355611856
 20
-656.0764242113582
 10
281.2373378831944
 20
-652.6139905110649
 10
284.8297001648534
 20
-649.0216282294095
 10
286.2738167626594
 20
-651.319051173341
 10
290.0422113158311
 20
-663.6593170078668
 10
289.7901933327521
 20
-665.5231013711382
 97
        0
 97
        0
 75
     2
 76
     1
 98
        0
  0
SPLINE
  5
64
330
58
100
AcDbEntity
  8
Layer 1
370
     0
100
AcDbSpline
210
0.0
220
0.0
230
1.0
 70
    11
 71
     3
 72
    62
 73
    58
 74
     0
 42
0.0000000001
 43
0.0000000001
 12
1.0
 22
0.0
 32
0.0
 13
1.0
 23
0.0
 33
0.0
 40
0.0
 40
0.0
 40
0.0
 40
0.0
 40
1.0
 40
1.0
 40
1.0
 40
2.0
 40
2.0
 40
2.0
 40
3.0
 40
3.0
 40
3.0
 40
4.0
 40
4.0
 40
4.0
 40
5.0
 40
5.0
 40
5.0
 40
6.0
 40
6.0
 40
6.0
 40
7.0
 40
7.0
 40
7.0
 40
8.0
 40
8.0
 40
8.0
 40
9.0
 40
9.0
 40
9.0
 40
10.0
 40
10.0
 40
10.0
 40
11.0
 40
11.0
 40
11.0
 40
12.0
 40
12.0
 40
12.0
 40
13.0
 40
13.0
 40
13.0
 40
14.0
 40
14.0
 40
14.0
 40
15.0
 40
15.0
 40
15.0
 40
16.0
 40
16.0
 40
16.0
 40
17.0
 40
17.0
 40
17.0
 40
18.0
 40
18.0
 40
18.0
 40
19.0
 40
19.0
 40
19.0
 40
19.0
 10
582.4790822270825
 20
-332.0915121883954
 30
0.0
 10
579.4373252955666
 20
-328.9920868363733
 30
0.0
 10
575.9391107852243
 20
-330.3944462198451
 30
0.0
 10
572.6898872479978
 20
-331.6166597028932
 30
0.0
 10
564.1655167383178
 20
-334.8231170224826
 30
0.0
 10
555.6839124462749
 20
-338.1478605774282
 30
0.0
 10
547.2287750874748
 20
-341.5337652567068
 30
0.0
 10
534.8061590588986
 20
-346.5085397023468
 30
0.0
 10
522.3444247477819
 20
-351.3994892568189
 30
0.0
 10
510.0542210010444
 20
-356.6859681127098
 30
0.0
 10
504.3843984992072
 20
-359.1247291370855
 30
0.0
 10
499.0008224776648
 20
-362.2772435868719
 30
0.0
 10
493.6486807903439
 20
-365.3839648090652
 30
0.0
 10
491.3112081761683
 20
-366.7407638118639
 30
0.0
 10
489.140686803632
 20
-368.7472057214545
 30
0.0
 10
489.9575137989596
 20
-371.9939455582062
 30
0.0
 10
490.7103078913024
 20
-374.986494173947
 30
0.0
 10
493.3790440569937
 20
-375.6043146683405
 30
0.0
 10
495.8799752089999
 20
-375.8519085599328
 30
0.0
 10
501.2741845732089
 20
-376.3860593943937
 30
0.0
 10
506.6961803365339
 20
-376.6473136386303
 30
0.0
 10
512.1090950699872
 20
-376.9807504280652
 30
0.0
 10
514.1490669360483
 20
-377.1064877648569
 30
0.0
 10
516.1957913627884
 20
-377.1222437397664
 30
0.0
 10
519.6919878664958
 20
-377.2349416490542
 30
0.0
 10
517.1431678646004
 20
-379.7837616509423
 30
0.0
 10
515.5702869200504
 20
-381.3793839780155
 30
0.0
 10
513.9732675114428
 20
-382.9503245315718
 30
0.0
 10
498.8702729711986
 20
-397.8063461053425
 30
0.0
 10
483.760525870257
 20
-412.6554598871735
 30
0.0
 10
468.6569104048885
 20
-427.5109381514812
 30
0.0
 10
472.9318246246876
 20
-431.4446540178469
 30
0.0
 10
476.6189556027821
 20
-435.839329170165
 30
0.0
 10
479.7981698327294
 20
-440.5561092284734
 30
0.0
 10
496.3839335595057
 20
-423.7366448096691
 30
0.0
 10
513.013239660313
 20
-406.8918776922146
 30
0.0
 10
529.8160943321654
 20
-390.0331397595728
 30
0.0
 10
530.3304531784288
 20
-393.3517516789616
 30
0.0
 10
530.6418471261059
 20
-395.3983984900551
 30
0.0
 10
530.9658924230844
 20
-397.4430272945247
 30
0.0
 10
531.6336973896305
 20
-401.6556161554035
 30
0.0
 10
531.9504468164687
 20
-405.9647588724365
 30
0.0
 10
533.066559719633
 20
-410.0554911785257
 30
0.0
 10
534.6208905262301
 20
-415.7516253823269
 30
0.0
 10
539.563842559488
 20
-416.9234663150128
 30
0.0
 10
543.6736683130148
 20
-412.7586886883728
 30
0.0
 10
545.2890826282965
 20
-411.1216972251859
 30
0.0
 10
546.645959246729
 20
-409.1668697161949
 30
0.0
 10
547.8401534837358
 20
-407.1875156649694
 30
0.0
 10
555.2527575660861
 20
-394.901813625358
 30
0.0
 10
562.8932411674723
 20
-382.7383562187315
 30
0.0
 10
569.8412380287955
 20
-370.1927194007731
 30
0.0
 10
574.8060000569021
 20
-361.2281905966629
 30
0.0
 10
578.931271322781
 20
-351.7861703752824
 30
0.0
 10
583.1703271169063
 20
-342.4386083877907
 30
0.0
 10
584.7008299220215
 20
-339.0637251294029
 30
0.0
 10
585.6010937303508
 20
-335.2726668093601
 30
0.0
 10
582.4790822270825
 20
-332.0915121883954
 30
0.0
  0
SPLINE
  5
65
330
58
100
AcDbEntity
  8
Layer 1
370
     0
100
AcDbSpline
210
0.0
220
0.0
230
1.0
 70
    11
 71
     3
 72
    20
 73
    16
 74
     0
 42
0.0000000001
 43
0.0000000001
 12
1.0
 22
0.0
 32
0.0
 13
1.0
 23
0.0
 33
0.0
 40
0.0
 40
0.0
 40
0.0
 40
0.0
 40
1.0
 40
1.0
 40
1.0
 40
2.0
 40
2.0
 40
2.0
 40
3.0
 40
3.0
 40
3.0
 40
4.0
 40
4.0
 40
4.0
 40
5.0
 40
5.0
 40
5.0
 40
5.0
 10
540.661250093428
 20
-395.6431982186186
 30
0.0
 10
540.4596822763488
 20
-389.6990044293743
 30
0.0
 10
539.942917345239
 20
-383.7444101443834
 30
0.0
 10
540.1386639893099
 20
-377.8133333983169
 30
0.0
 10
540.3687167462667
 20
-370.8370068283984
 30
0.0
 10
537.7327343806646
 20
-367.6816982155615
 30
0.0
 10
530.8729088863765
 20
-367.6751008861575
 30
0.0
 10
523.7431361961753
 20
-367.6680378629171
 30
0.0
 10
516.6132082747008
 20
-367.5789351082058
 30
0.0
 10
509.3220726689433
 20
-366.7399876554628
 30
0.0
 10
530.0541415000371
 20
-357.9495507318825
 30
0.0
 10
550.7862103311381
 20
-349.1591914239252
 30
0.0
 10
571.7758078557454
 20
-340.2597045261318
 30
0.0
 10
571.0015142311204
 20
-346.2726657724124
 30
0.0
 10
548.3204390640458
 20
-388.0804854885064
 30
0.0
 10
540.661250093428
 20
-395.6431982186186
 30
0.0
  0
HATCH
  5
66
330
58
100
AcDbEntity
  8
Layer 1
 62
    41
420
 16045409
100
AcDbHatch
 10
0.0
 20
0.0
 30
0.0
210
0.0
220
0.0
230
1.0
  2
SOLID
 70
     1
 71
     0
 91
        2
 92
        1
 93
        1
 72
     4
 94
        3
 73
     0
 74
     1
 95
       62
 96
       58
 40
0.0
 40
0.0
 40
0.0
 40
0.0
 40
1.0
 40
1.0
 40
1.0
 40
2.0
 40
2.0
 40
2.0
 40
3.0
 40
3.0
 40
3.0
 40
4.0
 40
4.0
 40
4.0
 40
5.0
 40
5.0
 40
5.0
 40
6.0
 40
6.0
 40
6.0
 40
7.0
 40
7.0
 40
7.0
 40
8.0
 40
8.0
 40
8.0
 40
9.0
 40
9.0
 40
9.0
 40
10.0
 40
10.0
 40
10.0
 40
11.0
 40
11.0
 40
11.0
 40
12.0
 40
12.0
 40
12.0
 40
13.0
 40
13.0
 40
13.0
 40
14.0
 40
14.0
 40
14.0
 40
15.0
 40
15.0
 40
15.0
 40
16.0
 40
16.0
 40
16.0
 40
17.0
 40
17.0
 40
17.0
 40
18.0
 40
18.0
 40
18.0
 40
19.0
 40
19.0
 40
19.0
 40
19.0
 10
582.4790822270825
 20
-332.0915121883954
 10
579.4373252955666
 20
-328.9920868363733
 10
575.9391107852243
 20
-330.3944462198451
 10
572.6898872479978
 20
-331.6166597028932
 10
564.1655167383178
 20
-334.8231170224826
 10
555.6839124462749
 20
-338.1478605774282
 10
547.2287750874748
 20
-341.5337652567068
 10
534.8061590588986
 20
-346.5085397023468
 10
522.3444247477819
 20
-351.3994892568189
 10
510.0542210010444
 20
-356.6859681127098
 10
504.3843984992072
 20
-359.1247291370855
 10
499.0008224776648
 20
-362.2772435868719
 10
493.6486807903439
 20
-365.3839648090652
 10
491.3112081761683
 20
-366.7407638118639
 10
489.140686803632
 20
-368.7472057214545
 10
489.9575137989596
 20
-371.9939455582062
 10
490.7103078913024
 20
-374.986494173947
 10
493.3790440569937
 20
-375.6043146683405
 10
495.8799752089999
 20
-375.8519085599328
 10
501.2741845732089
 20
-376.3860593943937
 10
506.6961803365339
 20
-376.6473136386303
 10
512.1090950699872
 20
-376.9807504280652
 10
514.1490669360483
 20
-377.1064877648569
 10
516.1957913627884
 20
-377.1222437397664
 10
519.6919878664958
 20
-377.2349416490542
 10
517.1431678646004
 20
-379.7837616509423
 10
515.5702869200504
 20
-381.3793839780155
 10
513.9732675114428
 20
-382.9503245315718
 10
498.8702729711986
 20
-397.8063461053425
 10
483.760525870257
 20
-412.6554598871735
 10
468.6569104048885
 20
-427.5109381514812
 10
472.9318246246876
 20
-431.4446540178469
 10
476.6189556027821
 20
-435.839329170165
 10
479.7981698327294
 20
-440.5561092284734
 10
496.3839335595057
 20
-423.7366448096691
 10
513.013239660313
 20
-406.8918776922146
 10
529.8160943321654
 20
-390.0331397595728
 10
530.3304531784288
 20
-393.3517516789616
 10
530.6418471261059
 20
-395.3983984900551
 10
530.9658924230844
 20
-397.4430272945247
 10
531.6336973896305
 20
-401.6556161554035
 10
531.9504468164687
 20
-405.9647588724365
 10
533.066559719633
 20
-410.0554911785257
 10
534.6208905262301
 20
-415.7516253823269
 10
539.563842559488
 20
-416.9234663150128
 10
543.6736683130148
 20
-412.7586886883728
 10
545.2890826282965
 20
-411.1216972251859
 10
546.645959246729
 20
-409.1668697161949
 10
547.8401534837358
 20
-407.1875156649694
 10
555.2527575660861
 20
-394.901813625358
 10
562.8932411674723
 20
-382.7383562187315
 10
569.8412380287955
 20
-370.1927194007731
 10
574.8060000569021
 20
-361.2281905966629
 10
578.931271322781
 20
-351.7861703752824
 10
583.1703271169063
 20
-342.4386083877907
 10
584.7008299220215
 20
-339.0637251294029
 10
585.6010937303508
 20
-335.2726668093601
 10
582.4790822270825
 20
-332.0915121883954
 97
        0
 97
        0
 92
        1
 93
        1
 72
     4
 94
        3
 73
     0
 74
     1
 95
       20
 96
       16
 40
0.0
 40
0.0
 40
0.0
 40
0.0
 40
1.0
 40
1.0
 40
1.0
 40
2.0
 40
2.0
 40
2.0
 40
3.0
 40
3.0
 40
3.0
 40
4.0
 40
4.0
 40
4.0
 40
5.0
 40
5.0
 40
5.0
 40
5.0
 10
540.661250093428
 20
-395.6431982186186
 10
540.4596822763488
 20
-389.6990044293743
 10
539.942917345239
 20
-383.7444101443834
 10
540.1386639893099
 20
-377.8133333983169
 10
540.3687167462667
 20
-370.8370068283984
 10
537.7327343806646
 20
-367.6816982155615
 10
530.8729088863765
 20
-367.6751008861575
 10
523.7431361961753
 20
-367.6680378629171
 10
516.6132082747008
 20
-367.5789351082058
 10
509.3220726689433
 20
-366.7399876554628
 10
530.0541415000371
 20
-357.9495507318825
 10
550.7862103311381
 20
-349.1591914239252
 10
571.7758078557454
 20
-340.2597045261318
 10
571.0015142311204
 20
-346.2726657724124
 10
548.3204390640458
 20
-388.0804854885064
 10
540.661250093428
 20
-395.6431982186186
 97
        0
 97
        0
 75
     2
 76
     1
 98
        0
  0
ENDBLK
  5
5B
330
58
100
AcDbEntity
  8
0
100
AcDbBlockEnd
  0
ENDSEC
  0
SECTION
  2
ENTITIES
  0
INSERT
  5
42
330
1F
100
AcDbEntity
  8
Layer 1
100
AcDbBlockReference
  2
block 2
 10
0.0
 20
0.0
 30
0.0
  0
ENDSEC
  0
SECTION
  2
OBJECTS
  0
DICTIONARY
  5
C
330
0
100
AcDbDictionary
281
     1
  3
ACAD_GROUP
350
D
  3
ACAD_LAYOUT
350
1A
  3
ACAD_MATERIAL
350
3B
  3
ACAD_MLEADERSTYLE
350
68
  3
ACAD_MLINESTYLE
350
17
  3
ACAD_PLOTSETTINGS
350
19
  3
ACAD_PLOTSTYLENAME
350
E
  3
ACAD_TABLESTYLE
350
67
  3
ACAD_VISUALSTYLE
350
2A
  0
SUN
  5
3F
330
29
100
AcDbSun
 90
        1
290
     0
 63
     7
421
 16777215
 40
1.0
291
     1
 91
  2455826
 92
 54000000
292
     0
 70
     2
 71
   256
280
     1
  0
DICTIONARY
  5
D
102
{ACAD_REACTORS
330
C
102
}
330
C
100
AcDbDictionary
281
     1
  0
DICTIONARY
  5
1A
102
{ACAD_REACTORS
330
C
102
}
330
C
100
AcDbDictionary
281
     1
  3
Layout1
350
1E
  3
Layout2
350
26
  3
Model
350
22
  0
DICTIONARY
  5
3B
102
{ACAD_REACTORS
330
C
102
}
330
C
100
AcDbDictionary
281
     1
  3
ByBlock
350
3D
  3
ByLayer
350
3C
  3
Global
350
3E
  0
DICTIONARY
  5
68
102
{ACAD_REACTORS
330
C
102
}
330
C
100
AcDbDictionary
281
     1
  0
DICTIONARY
  5
17
102
{ACAD_REACTORS
330
C
102
}
330
C
100
AcDbDictionary
281
     1
  3
Standard
350
18
  0
DICTIONARY
  5
19
102
{ACAD_REACTORS
330
C
102
}
330
C
100
AcDbDictionary
281
     1
  0
ACDBDICTIONARYWDFLT
  5
E
102
{ACAD_REACTORS
330
C
102
}
330
C
100
AcDbDictionary
281
     1
  3
Normal
350
F
100
AcDbDictionaryWithDefault
340
F
  0
DICTIONARY
  5
67
102
{ACAD_REACTORS
330
C
102
}
330
C
100
AcDbDictionary
281
     1
  0
DICTIONARY
  5
2A
102
{ACAD_REACTORS
330
C
102
}
330
C
100
AcDbDictionary
281
     1
  3
2dWireframe
350
2F
  3
3D Hidden
350
31
  3
3dWireframe
350
30
  3
Basic
350
32
  3
Brighten
350
36
  3
ColorChange
350
3A
  3
Conceptual
350
34
  3
Dim
350
35
  3
Facepattern
350
39
  3
Flat
350
2B
  3
FlatWithEdges
350
2C
  3
Gouraud
350
2D
  3
GouraudWithEdges
350
2E
  3
Linepattern
350
38
  3
Realistic
350
33
  3
Thicken
350
37
  0
LAYOUT
  5
1E
102
{ACAD_REACTORS
330
1A
102
}
330
1A
100
AcDbPlotSettings
  1

  2
none_device
  4

  6

 40
0.0
 41
0.0
 42
0.0
 43
0.0
 44
0.0
 45
0.0
 46
0.0
 47
0.0
 48
0.0
 49
0.0
140
0.0
141
0.0
142
1.0
143
1.0
 70
   688
 72
     0
 73
     0
 74
     5
  7

 75
    16
 76
     0
 77
     2
 78
   300
147
1.0
148
0.0
149
0.0
100
AcDbLayout
  1
Layout1
 70
     1
 71
     1
 10
0.0
 20
0.0
 11
12.0
 21
9.0
 12
0.0
 22
0.0
 32
0.0
 14
1.000000000000000E+20
 24
1.000000000000000E+20
 34
1.000000000000000E+20
 15
-1.000000000000000E+20
 25
-1.000000000000000E+20
 35
-1.000000000000000E+20
146
0.0
 13
0.0
 23
0.0
 33
0.0
 16
1.0
 26
0.0
 36
0.0
 17
0.0
 27
1.0
 37
0.0
 76
     0
330
1B
  0
LAYOUT
  5
26
102
{ACAD_REACTORS
330
1A
102
}
330
1A
100
AcDbPlotSettings
  1

  2
none_device
  4

  6

 40
0.0
 41
0.0
 42
0.0
 43
0.0
 44
0.0
 45
0.0
 46
0.0
 47
0.0
 48
0.0
 49
0.0
140
0.0
141
0.0
142
1.0
143
1.0
 70
   688
 72
     0
 73
     0
 74
     5
  7

 75
    16
 76
     0
 77
     2
 78
   300
147
1.0
148
0.0
149
0.0
100
AcDbLayout
  1
Layout2
 70
     1
 71
     2
 10
0.0
 20
0.0
 11
0.0
 21
0.0
 12
0.0
 22
0.0
 32
0.0
 14
0.0
 24
0.0
 34
0.0
 15
0.0
 25
0.0
 35
0.0
146
0.0
 13
0.0
 23
0.0
 33
0.0
 16
1.0
 26
0.0
 36
0.0
 17
0.0
 27
1.0
 37
0.0
 76
     0
330
23
  0
LAYOUT
  5
22
102
{ACAD_REACTORS
330
1A
102
}
330
1A
100
AcDbPlotSettings
  1

  2
none_device
  4

  6

 40
0.0
 41
0.0
 42
0.0
 43
0.0
 44
0.0
 45
0.0
 46
0.0
 47
0.0
 48
0.0
 49
0.0
140
0.0
141
0.0
142
1.0
143
1.0
 70
  1712
 72
     0
 73
     0
 74
     0
  7

 75
     0
 76
     0
 77
     2
 78
   300
147
1.0
148
0.0
149
0.0
100
AcDbLayout
  1
Model
 70
     1
 71
     0
 10
0.0
 20
0.0
 11
12.0
 21
9.0
 12
0.0
 22
0.0
 32
0.0
 14
1.000000000000000E+20
 24
1.000000000000000E+20
 34
1.000000000000000E+20
 15
-1.000000000000000E+20
 25
-1.000000000000000E+20
 35
-1.000000000000000E+20
146
0.0
 13
0.0
 23
0.0
 33
0.0
 16
1.0
 26
0.0
 36
0.0
 17
0.0
 27
1.0
 37
0.0
 76
     0
330
1F
331
29
  0
MATERIAL
  5
3D
102
{ACAD_REACTORS
330
3B
102
}
330
3B
100
AcDbMaterial
  1
ByBlock
 72
     1
 94
      127
  0
MATERIAL
  5
3C
102
{ACAD_REACTORS
330
3B
102
}
330
3B
100
AcDbMaterial
  1
ByLayer
 72
     1
 94
      127
  0
MATERIAL
  5
3E
102
{ACAD_REACTORS
330
3B
102
}
330
3B
100
AcDbMaterial
  1
Global
 72
     1
 94
      127
  0
MLINESTYLE
  5
18
102
{ACAD_REACTORS
330
17
102
}
330
17
100
AcDbMlineStyle
  2
Standard
 70
     0
  3

 62
   256
 51
90.0
 52
90.0
 71
     2
 49
0.5
 62
   256
  6
BYLAYER
 49
-0.5
 62
   256
  6
BYLAYER
  0
ACDBPLACEHOLDER
  5
F
102
{ACAD_REACTORS
330
E
102
}
330
E
  0
VISUALSTYLE
  5
2F
102
{ACAD_REACTORS
330
2A
102
}
330
2A
100
AcDbVisualStyle
  2
2dWireframe
 70
     4
177
     2
291
     0
 71
     0
176
     1
 72
     2
176
     1
 73
     0
176
     1
 90
        0
176
     1
 40
-0.6
176
     1
 41
-30.0
176
     1
 62
     5
 63
     7
421
 16777215
176
     1
 74
     1
176
     1
 91
        4
176
     1
 64
     7
176
     1
 65
   257
176
     1
 75
     1
176
     1
175
     1
176
     1
 42
1.0
176
     1
 92
        0
176
     1
 66
   257
176
     1
 43
1.0
176
     1
 76
     1
176
     1
 77
     6
176
     1
 78
     2
176
     1
 67
     7
176
     1
 79
     5
176
     1
170
     0
176
     1
171
     0
176
     1
290
     0
176
     1
 93
        1
176
     1
 44
0.0
176
     1
173
     0
176
     1
  0
VISUALSTYLE
  5
31
102
{ACAD_REACTORS
330
2A
102
}
330
2A
100
AcDbVisualStyle
  2
3D Hidden
 70
     6
177
     2
291
     0
 71
     1
176
     1
 72
     2
176
     1
 73
     2
176
     1
 90
        0
176
     1
 40
-0.6
176
     1
 41
-30.0
176
     1
 62
     5
 63
     7
421
 16777215
176
     1
 74
     2
176
     1
 91
        2
176
     1
 64
     7
176
     1
 65
   257
176
     1
 75
     2
176
     1
175
     1
176
     1
 42
40.0
176
     1
 92
        0
176
     1
 66
   257
176
     1
 43
1.0
176
     1
 76
     1
176
     1
 77
     6
176
     1
 78
     2
176
     1
 67
     7
176
     1
 79
     3
176
     1
170
     0
176
     1
171
     0
176
     1
290
     0
176
     1
 93
        1
176
     1
 44
0.0
176
     1
173
     0
176
     1
  0
VISUALSTYLE
  5
30
102
{ACAD_REACTORS
330
2A
102
}
330
2A
100
AcDbVisualStyle
  2
3dWireframe
 70
     5
177
     2
291
     0
 71
     0
176
     1
 72
     2
176
     1
 73
     0
176
     1
 90
        0
176
     1
 40
-0.6
176
     1
 41
-30.0
176
     1
 62
     5
 63
     7
421
 16777215
176
     1
 74
     1
176
     1
 91
        4
176
     1
 64
     7
176
     1
 65
   257
176
     1
 75
     1
176
     1
175
     1
176
     1
 42
1.0
176
     1
 92
        0
176
     1
 66
   257
176
     1
 43
1.0
176
     1
 76
     1
176
     1
 77
     6
176
     1
 78
     2
176
     1
 67
     7
176
     1
 79
     5
176
     1
170
     0
176
     1
171
     0
176
     1
290
     0
176
     1
 93
        1
176
     1
 44
0.0
176
     1
173
     0
176
     1
  0
VISUALSTYLE
  5
32
102
{ACAD_REACTORS
330
2A
102
}
330
2A
100
AcDbVisualStyle
  2
Basic
 70
     7
177
     2
291
     1
 71
     1
176
     1
 72
     0
176
     1
 73
     1
176
     1
 90
        0
176
     1
 40
-0.6
176
     1
 41
-30.0
176
     1
 62
     5
 63
     7
421
 16777215
176
     1
 74
     0
176
     1
 91
        4
176
     1
 64
     7
176
     1
 65
   257
176
     1
 75
     1
176
     1
175
     1
176
     1
 42
1.0
176
     1
 92
        8
176
     1
 66
     7
176
     1
 43
1.0
176
     1
 76
     1
176
     1
 77
     6
176
     1
 78
     2
176
     1
 67
     7
176
     1
 79
     5
176
     1
170
     0
176
     1
171
     0
176
     1
290
     0
176
     1
 93
        1
176
     1
 44
0.0
176
     1
173
     0
176
     1
  0
VISUALSTYLE
  5
36
102
{ACAD_REACTORS
330
2A
102
}
330
2A
100
AcDbVisualStyle
  2
Brighten
 70
    12
177
     2
291
     1
 71
     2
176
     1
 72
     2
176
     1
 73
     0
176
     1
 90
        0
176
     1
 40
-0.6
176
     1
 41
-30.0
176
     1
 62
     5
 63
     7
421
 16777215
176
     1
 74
     1
176
     1
 91
        4
176
     1
 64
     7
176
     1
 65
   257
176
     1
 75
     1
176
     1
175
     1
176
     1
 42
1.0
176
     1
 92
        8
176
     1
 66
     7
176
     1
 43
1.0
176
     1
 76
     1
176
     1
 77
     6
176
     1
 78
     2
176
     1
 67
     7
176
     1
 79
     5
176
     1
170
     0
176
     1
171
     0
176
     1
290
     0
176
     1
 93
        1
176
     1
 44
50.0
176
     1
173
     0
176
     1
  0
VISUALSTYLE
  5
3A
102
{ACAD_REACTORS
330
2A
102
}
330
2A
100
AcDbVisualStyle
  2
ColorChange
 70
    16
177
     2
291
     1
 71
     2
176
     1
 72
     2
176
     1
 73
     3
176
     1
 90
        0
176
     1
 40
-0.6
176
     1
 41
-30.0
176
     1
 62
     5
 63
     8
421
  8421504
176
     1
 74
     1
176
     1
 91
        4
176
     1
 64
     7
176
     1
 65
   257
176
     1
 75
     1
176
     1
175
     1
176
     1
 42
1.0
176
     1
 92
        8
176
     1
 66
     8
424
  8421504
176
     1
 43
1.0
176
     1
 76
     1
176
     1
 77
     6
176
     1
 78
     2
176
     1
 67
     7
176
     1
 79
     5
176
     1
170
     0
176
     1
171
     0
176
     1
290
     0
176
     1
 93
        1
176
     1
 44
0.0
176
     1
173
     0
176
     1
  0
VISUALSTYLE
  5
34
102
{ACAD_REACTORS
330
2A
102
}
330
2A
100
AcDbVisualStyle
  2
Conceptual
 70
     9
177
     2
291
     0
 71
     3
176
     1
 72
     2
176
     1
 73
     0
176
     1
 90
        0
176
     1
 40
-0.6
176
     1
 41
-30.0
176
     1
 62
     5
 63
     7
421
 16777215
176
     1
 74
     2
176
     1
 91
        2
176
     1
 64
     7
176
     1
 65
   257
176
     1
 75
     1
176
     1
175
     1
176
     1
 42
40.0
176
     1
 92
        8
176
     1
 66
     7
176
     1
 43
1.0
176
     1
 76
     1
176
     1
 77
     6
176
     1
 78
     2
176
     1
 67
     7
176
     1
 79
     3
176
     1
170
     0
176
     1
171
     0
176
     1
290
     0
176
     1
 93
        1
176
     1
 44
0.0
176
     1
173
     0
176
     1
  0
VISUALSTYLE
  5
35
102
{ACAD_REACTORS
330
2A
102
}
330
2A
100
AcDbVisualStyle
  2
Dim
 70
    11
177
     2
291
     1
 71
     2
176
     1
 72
     2
176
     1
 73
     0
176
     1
 90
        0
176
     1
 40
-0.6
176
     1
 41
-30.0
176
     1
 62
     5
 63
     7
421
 16777215
176
     1
 74
     1
176
     1
 91
        4
176
     1
 64
     7
176
     1
 65
   257
176
     1
 75
     1
176
     1
175
     1
176
     1
 42
1.0
176
     1
 92
        8
176
     1
 66
     7
176
     1
 43
1.0
176
     1
 76
     1
176
     1
 77
     6
176
     1
 78
     2
176
     1
 67
     7
176
     1
 79
     5
176
     1
170
     0
176
     1
171
     0
176
     1
290
     0
176
     1
 93
        1
176
     1
 44
-50.0
176
     1
173
     0
176
     1
  0
VISUALSTYLE
  5
39
102
{ACAD_REACTORS
330
2A
102
}
330
2A
100
AcDbVisualStyle
  2
Facepattern
 70
    15
177
     2
291
     1
 71
     2
176
     1
 72
     2
176
     1
 73
     0
176
     1
 90
        0
176
     1
 40
-0.6
176
     1
 41
-30.0
176
     1
 62
     5
 63
     7
421
 16777215
176
     1
 74
     1
176
     1
 91
        4
176
     1
 64
     7
176
     1
 65
   257
176
     1
 75
     1
176
     1
175
     1
176
     1
 42
1.0
176
     1
 92
        8
176
     1
 66
     7
176
     1
 43
1.0
176
     1
 76
     1
176
     1
 77
     6
176
     1
 78
     2
176
     1
 67
     7
176
     1
 79
     5
176
     1
170
     0
176
     1
171
     0
176
     1
290
     0
176
     1
 93
        1
176
     1
 44
0.0
176
     1
173
     0
176
     1
  0
VISUALSTYLE
  5
2B
102
{ACAD_REACTORS
330
2A
102
}
330
2A
100
AcDbVisualStyle
  2
Flat
 70
     0
177
     2
291
     1
 71
     2
176
     1
 72
     1
176
     1
 73
     1
176
     1
 90
        2
176
     1
 40
-0.6
176
     1
 41
30.0
176
     1
 62
     5
 63
     7
421
 16777215
176
     1
 74
     0
176
     1
 91
        4
176
     1
 64
     7
176
     1
 65
   257
176
     1
 75
     1
176
     1
175
     1
176
     1
 42
1.0
176
     1
 92
        8
176
     1
 66
     7
176
     1
 43
1.0
176
     1
 76
     1
176
     1
 77
     6
176
     1
 78
     2
176
     1
 67
     7
176
     1
 79
     5
176
     1
170
     0
176
     1
171
     0
176
     1
290
     0
176
     1
 93
       13
176
     1
 44
0.0
176
     1
173
     0
176
     1
  0
VISUALSTYLE
  5
2C
102
{ACAD_REACTORS
330
2A
102
}
330
2A
100
AcDbVisualStyle
  2
FlatWithEdges
 70
     1
177
     2
291
     1
 71
     2
176
     1
 72
     1
176
     1
 73
     1
176
     1
 90
        2
176
     1
 40
-0.6
176
     1
 41
30.0
176
     1
 62
     5
 63
     7
421
 16777215
176
     1
 74
     1
176
     1
 91
        4
176
     1
 64
     7
176
     1
 65
   257
176
     1
 75
     1
176
     1
175
     1
176
     1
 42
1.0
176
     1
 92
        0
176
     1
 66
   257
176
     1
 43
1.0
176
     1
 76
     1
176
     1
 77
     6
176
     1
 78
     2
176
     1
 67
     7
176
     1
 79
     5
176
     1
170
     0
176
     1
171
     0
176
     1
290
     0
176
     1
 93
       13
176
     1
 44
0.0
176
     1
173
     0
176
     1
  0
VISUALSTYLE
  5
2D
102
{ACAD_REACTORS
330
2A
102
}
330
2A
100
AcDbVisualStyle
  2
Gouraud
 70
     2
177
     2
291
     1
 71
     2
176
     1
 72
     2
176
     1
 73
     1
176
     1
 90
        2
176
     1
 40
-0.6
176
     1
 41
30.0
176
     1
 62
     5
 63
     7
421
 16777215
176
     1
 74
     0
176
     1
 91
        4
176
     1
 64
     7
176
     1
 65
   257
176
     1
 75
     1
176
     1
175
     1
176
     1
 42
1.0
176
     1
 92
        0
176
     1
 66
     7
176
     1
 43
1.0
176
     1
 76
     1
176
     1
 77
     6
176
     1
 78
     2
176
     1
 67
     7
176
     1
 79
     5
176
     1
170
     0
176
     1
171
     0
176
     1
290
     0
176
     1
 93
       13
176
     1
 44
0.0
176
     1
173
     0
176
     1
  0
VISUALSTYLE
  5
2E
102
{ACAD_REACTORS
330
2A
102
}
330
2A
100
AcDbVisualStyle
  2
GouraudWithEdges
 70
     3
177
     2
291
     1
 71
     2
176
     1
 72
     2
176
     1
 73
     1
176
     1
 90
        2
176
     1
 40
-0.6
176
     1
 41
30.0
176
     1
 62
     5
 63
     7
421
 16777215
176
     1
 74
     1
176
     1
 91
        4
176
     1
 64
     7
176
     1
 65
   257
176
     1
 75
     1
176
     1
175
     1
176
     1
 42
1.0
176
     1
 92
        0
176
     1
 66
   257
176
     1
 43
1.0
176
     1
 76
     1
176
     1
 77
     6
176
     1
 78
     2
176
     1
 67
     7
176
     1
 79
     5
176
     1
170
     0
176
     1
171
     0
176
     1
290
     0
176
     1
 93
       13
176
     1
 44
0.0
176
     1
173
     0
176
     1
  0
VISUALSTYLE
  5
38
102
{ACAD_REACTORS
330
2A
102
}
330
2A
100
AcDbVisualStyle
  2
Linepattern
 70
    14
177
     2
291
     1
 71
     2
176
     1
 72
     2
176
     1
 73
     0
176
     1
 90
        0
176
     1
 40
-0.6
176
     1
 41
-30.0
176
     1
 62
     5
 63
     7
421
 16777215
176
     1
 74
     1
176
     1
 91
        4
176
     1
 64
     7
176
     1
 65
   257
176
     1
 75
     7
176
     1
175
     7
176
     1
 42
1.0
176
     1
 92
        8
176
     1
 66
     7
176
     1
 43
1.0
176
     1
 76
     1
176
     1
 77
     6
176
     1
 78
     2
176
     1
 67
     7
176
     1
 79
     5
176
     1
170
     0
176
     1
171
     0
176
     1
290
     0
176
     1
 93
        1
176
     1
 44
0.0
176
     1
173
     0
176
     1
  0
VISUALSTYLE
  5
33
102
{ACAD_REACTORS
330
2A
102
}
330
2A
100
AcDbVisualStyle
  2
Realistic
 70
     8
177
     2
291
     0
 71
     2
176
     1
 72
     2
176
     1
 73
     0
176
     1
 90
        0
176
     1
 40
-0.6
176
     1
 41
-30.0
176
     1
 62
     5
 63
     7
421
 16777215
176
     1
 74
     1
176
     1
 91
        0
176
     1
 64
     7
176
     1
 65
   257
176
     1
 75
     1
176
     1
175
     1
176
     1
 42
1.0
176
     1
 92
        8
176
     1
 66
     8
424
  7895160
176
     1
 43
1.0
176
     1
 76
     1
176
     1
 77
     6
176
     1
 78
     2
176
     1
 67
     7
176
     1
 79
     5
176
     1
170
     0
176
     1
171
     0
176
     1
290
     0
176
     1
 93
       13
176
     1
 44
0.0
176
     1
173
     0
176
     1
  0
VISUALSTYLE
  5
37
102
{ACAD_REACTORS
330
2A
102
}
330
2A
100
AcDbVisualStyle
  2
Thicken
 70
    13
177
     2
291
     1
 71
     2
176
     1
 72
     2
176
     1
 73
     0
176
     1
 90
        0
176
     1
 40
-0.6
176
     1
 41
-30.0
176
     1
 62
     5
 63
     7
421
 16777215
176
     1
 74
     1
176
     1
 91
        4
176
     1
 64
     7
176
     1
 65
   257
176
     1
 75
     1
176
     1
175
     1
176
     1
 42
1.0
176
     1
 92
       12
176
     1
 66
     7
176
     1
 43
1.0
176
     1
 76
     1
176
     1
 77
     6
176
     1
 78
     2
176
     1
 67
     7
176
     1
 79
     5
176
     1
170
     0
176
     1
171
     0
176
     1
290
     0
176
     1
 93
        1
176
     1
 44
0.0
176
     1
173
     0
176
     1
  0
ENDSEC
  0
EOF
