  0
SECTION
  2
HEADER
  9
$ACADVER
  1
AC1024
  9
$ACADMAINTVER
 70
     6
  9
$DWGCODEPAGE
  3
ANSI_1252
  9
$INSBASE
 10
0.0
 20
0.0
 30
0.0
  9
$EXTMIN
 10
1.000000000000000E+20
 20
1.000000000000000E+20
 30
1.000000000000000E+20
  9
$EXTMAX
 10
-1.000000000000000E+20
 20
-1.000000000000000E+20
 30
-1.000000000000000E+20
  9
$LIMMIN
 10
0.0
 20
0.0
  9
$LIMMAX
 10
12.0
 20
9.0
  9
$ORTHOMODE
 70
     0
  9
$REGENMODE
 70
     1
  9
$FILLMODE
 70
     1
  9
$QTEXTMODE
 70
     0
  9
$MIRRTEXT
 70
     1
  9
$LTSCALE
 40
1.0
  9
$ATTMODE
 70
     1
  9
$TEXTSIZE
 40
0.2
  9
$TRACEWID
 40
0.05
  9
$TEXTSTYLE
  7
Standard
  9
$CLAYER
  8
0
  9
$CELTYPE
  6
ByLayer
  9
$CECOLOR
 62
   256
  9
$CELTSCALE
 40
1.0
  9
$DISPSILH
 70
     0
  9
$DIMSCALE
 40
1.0
  9
$DIMASZ
 40
0.18
  9
$DIMEXO
 40
0.0625
  9
$DIMDLI
 40
0.38
  9
$DIMRND
 40
0.0
  9
$DIMDLE
 40
0.0
  9
$DIMEXE
 40
0.18
  9
$DIMTP
 40
0.0
  9
$DIMTM
 40
0.0
  9
$DIMTXT
 40
0.18
  9
$DIMCEN
 40
0.09
  9
$DIMTSZ
 40
0.0
  9
$DIMTOL
 70
     0
  9
$DIMLIM
 70
     0
  9
$DIMTIH
 70
     1
  9
$DIMTOH
 70
     1
  9
$DIMSE1
 70
     0
  9
$DIMSE2
 70
     0
  9
$DIMTAD
 70
     0
  9
$DIMZIN
 70
     0
  9
$DIMBLK
  1

  9
$DIMASO
 70
     1
  9
$DIMSHO
 70
     1
  9
$DIMPOST
  1

  9
$DIMAPOST
  1

  9
$DIMALT
 70
     0
  9
$DIMALTD
 70
     2
  9
$DIMALTF
 40
25.4
  9
$DIMLFAC
 40
1.0
  9
$DIMTOFL
 70
     0
  9
$DIMTVP
 40
0.0
  9
$DIMTIX
 70
     0
  9
$DIMSOXD
 70
     0
  9
$DIMSAH
 70
     0
  9
$DIMBLK1
  1

  9
$DIMBLK2
  1

  9
$DIMSTYLE
  2
Standard
  9
$DIMCLRD
 70
     0
  9
$DIMCLRE
 70
     0
  9
$DIMCLRT
 70
     0
  9
$DIMTFAC
 40
1.0
  9
$DIMGAP
 40
0.09
  9
$DIMJUST
 70
     0
  9
$DIMSD1
 70
     0
  9
$DIMSD2
 70
     0
  9
$DIMTOLJ
 70
     1
  9
$DIMTZIN
 70
     0
  9
$DIMALTZ
 70
     0
  9
$DIMALTTZ
 70
     0
  9
$DIMUPT
 70
     0
  9
$DIMDEC
 70
     4
  9
$DIMTDEC
 70
     4
  9
$DIMALTU
 70
     2
  9
$DIMALTTD
 70
     2
  9
$DIMTXSTY
  7
Standard
  9
$DIMAUNIT
 70
     0
  9
$DIMADEC
 70
     0
  9
$DIMALTRND
 40
0.0
  9
$DIMAZIN
 70
     0
  9
$DIMDSEP
 70
    46
  9
$DIMATFIT
 70
     3
  9
$DIMFRAC
 70
     0
  9
$DIMLDRBLK
  1

  9
$DIMLUNIT
 70
     2
  9
$DIMLWD
 70
    -2
  9
$DIMLWE
 70
    -2
  9
$DIMTMOVE
 70
     0
  9
$DIMFXL
 40
1.0
  9
$DIMFXLON
 70
     0
  9
$DIMJOGANG
 40
0.7853981633974483
  9
$DIMTFILL
 70
     0
  9
$DIMTFILLCLR
 70
     0
  9
$DIMARCSYM
 70
     0
  9
$DIMLTYPE
  6

  9
$DIMLTEX1
  6

  9
$DIMLTEX2
  6

  9
$DIMTXTDIRECTION
 70
     0
  9
$LUNITS
 70
     2
  9
$LUPREC
 70
     4
  9
$SKETCHINC
 40
0.1
  9
$FILLETRAD
 40
0.5
  9
$AUNITS
 70
     0
  9
$AUPREC
 70
     0
  9
$MENU
  1
.
  9
$ELEVATION
 40
0.0
  9
$PELEVATION
 40
0.0
  9
$THICKNESS
 40
0.0
  9
$LIMCHECK
 70
     0
  9
$CHAMFERA
 40
0.5
  9
$CHAMFERB
 40
0.5
  9
$CHAMFERC
 40
1.0
  9
$CHAMFERD
 40
0.0
  9
$SKPOLY
 70
     0
  9
$TDCREATE
 40
2459564.025928067
  9
$TDUCREATE
 40
2459563.775928067
  9
$TDUPDATE
 40
2459564.025928102
  9
$TDUUPDATE
 40
2459563.775928102
  9
$TDINDWG
 40
0.0000000116
  9
$TDUSRTIMER
 40
0.0000000116
  9
$USRTIMER
 70
     1
  9
$ANGBASE
 50
0.0
  9
$ANGDIR
 70
     0
  9
$PDMODE
 70
     0
  9
$PDSIZE
 40
0.0
  9
$PLINEWID
 40
0.0
  9
$SPLFRAME
 70
     0
  9
$SPLINETYPE
 70
     6
  9
$SPLINESEGS
 70
     8
  9
$HANDSEED
  5
69
  9
$SURFTAB1
 70
     6
  9
$SURFTAB2
 70
     6
  9
$SURFTYPE
 70
     6
  9
$SURFU
 70
     6
  9
$SURFV
 70
     6
  9
$UCSBASE
  2

  9
$UCSNAME
  2

  9
$UCSORG
 10
0.0
 20
0.0
 30
0.0
  9
$UCSXDIR
 10
1.0
 20
0.0
 30
0.0
  9
$UCSYDIR
 10
0.0
 20
1.0
 30
0.0
  9
$UCSORTHOREF
  2

  9
$UCSORTHOVIEW
 70
     0
  9
$UCSORGTOP
 10
0.0
 20
0.0
 30
0.0
  9
$UCSORGBOTTOM
 10
0.0
 20
0.0
 30
0.0
  9
$UCSORGLEFT
 10
0.0
 20
0.0
 30
0.0
  9
$UCSORGRIGHT
 10
0.0
 20
0.0
 30
0.0
  9
$UCSORGFRONT
 10
0.0
 20
0.0
 30
0.0
  9
$UCSORGBACK
 10
0.0
 20
0.0
 30
0.0
  9
$PUCSBASE
  2

  9
$PUCSNAME
  2

  9
$PUCSORG
 10
0.0
 20
0.0
 30
0.0
  9
$PUCSXDIR
 10
1.0
 20
0.0
 30
0.0
  9
$PUCSYDIR
 10
0.0
 20
1.0
 30
0.0
  9
$PUCSORTHOREF
  2

  9
$PUCSORTHOVIEW
 70
     0
  9
$PUCSORGTOP
 10
0.0
 20
0.0
 30
0.0
  9
$PUCSORGBOTTOM
 10
0.0
 20
0.0
 30
0.0
  9
$PUCSORGLEFT
 10
0.0
 20
0.0
 30
0.0
  9
$PUCSORGRIGHT
 10
0.0
 20
0.0
 30
0.0
  9
$PUCSORGFRONT
 10
0.0
 20
0.0
 30
0.0
  9
$PUCSORGBACK
 10
0.0
 20
0.0
 30
0.0
  9
$USERI1
 70
     0
  9
$USERI2
 70
     0
  9
$USERI3
 70
     0
  9
$USERI4
 70
     0
  9
$USERI5
 70
     0
  9
$USERR1
 40
0.0
  9
$USERR2
 40
0.0
  9
$USERR3
 40
0.0
  9
$USERR4
 40
0.0
  9
$USERR5
 40
0.0
  9
$WORLDVIEW
 70
     1
  9
$SHADEDGE
 70
     3
  9
$SHADEDIF
 70
    70
  9
$TILEMODE
 70
     1
  9
$MAXACTVP
 70
    64
  9
$PINSBASE
 10
0.0
 20
0.0
 30
0.0
  9
$PLIMCHECK
 70
     0
  9
$PEXTMIN
 10
1.000000000000000E+20
 20
1.000000000000000E+20
 30
1.000000000000000E+20
  9
$PEXTMAX
 10
-1.000000000000000E+20
 20
-1.000000000000000E+20
 30
-1.000000000000000E+20
  9
$PLIMMIN
 10
0.0
 20
0.0
  9
$PLIMMAX
 10
12.0
 20
9.0
  9
$UNITMODE
 70
     0
  9
$VISRETAIN
 70
     1
  9
$PLINEGEN
 70
     0
  9
$PSLTSCALE
 70
     1
  9
$TREEDEPTH
 70
  3020
  9
$CMLSTYLE
  2
Standard
  9
$CMLJUST
 70
     0
  9
$CMLSCALE
 40
1.0
  9
$PROXYGRAPHICS
 70
     1
  9
$MEASUREMENT
 70
     0
  9
$CELWEIGHT
370
    -1
  9
$ENDCAPS
280
     0
  9
$JOINSTYLE
280
     0
  9
$LWDISPLAY
290
     1
  9
$INSUNITS
 70
     1
  9
$HYPERLINKBASE
  1

  9
$STYLESHEET
  1

  9
$XEDIT
290
     1
  9
$CEPSNTYPE
380
     0
  9
$PSTYLEMODE
290
     1
  9
$FINGERPRINTGUID
  2
{F0B21DBE-9BBC-4C5C-8B56-57A5A7C45278}
  9
$VERSIONGUID
  2
{FAEB1C32-E019-11D5-929B-00C0DF256EC4}
  9
$EXTNAMES
290
     1
  9
$PSVPSCALE
 40
0.0
  9
$OLESTARTUP
290
     0
  9
$SORTENTS
280
   127
  9
$INDEXCTL
280
     0
  9
$HIDETEXT
280
     1
  9
$XCLIPFRAME
280
     2
  9
$HALOGAP
280
     0
  9
$OBSCOLOR
 70
   257
  9
$OBSLTYPE
280
     0
  9
$INTERSECTIONDISPLAY
280
     0
  9
$INTERSECTIONCOLOR
 70
   257
  9
$DIMASSOC
280
     2
  9
$PROJECTNAME
  1

  9
$CAMERADISPLAY
290
     0
  9
$LENSLENGTH
 40
50.0
  9
$CAMERAHEIGHT
 40
0.0
  9
$STEPSPERSEC
 40
2.0
  9
$STEPSIZE
 40
6.0
  9
$3DDWFPREC
 40
2.0
  9
$PSOLWIDTH
 40
0.25
  9
$PSOLHEIGHT
 40
4.0
  9
$LOFTANG1
 40
1.570796326794897
  9
$LOFTANG2
 40
1.570796326794897
  9
$LOFTMAG1
 40
0.0
  9
$LOFTMAG2
 40
0.0
  9
$LOFTPARAM
 70
     7
  9
$LOFTNORMALS
280
     1
  9
$LATITUDE
 40
37.795
  9
$LONGITUDE
 40
-122.394
  9
$NORTHDIRECTION
 40
0.0
  9
$TIMEZONE
 70
 -8000
  9
$LIGHTGLYPHDISPLAY
280
     1
  9
$TILEMODELIGHTSYNCH
280
     1
  9
$CMATERIAL
347
3C
  9
$SOLIDHIST
280
     1
  9
$SHOWHIST
280
     1
  9
$DWFFRAME
280
     2
  9
$DGNFRAME
280
     2
  9
$REALWORLDSCALE
290
     1
  9
$INTERFERECOLOR
 62
   256
  9
$CSHADOW
280
     0
  9
$SHADOWPLANELOCATION
 40
0.0
  0
ENDSEC
  0
SECTION
  2
CLASSES
  0
CLASS
  1
ACDBDICTIONARYWDFLT
  2
AcDbDictionaryWithDefault
  3
ObjectDBX Classes
 90
        0
 91
        4
280
     0
281
     0
  0
CLASS
  1
VISUALSTYLE
  2
AcDbVisualStyle
  3
ObjectDBX Classes
 90
     4095
 91
        4
280
     0
281
     0
  0
CLASS
  1
MATERIAL
  2
AcDbMaterial
  3
ObjectDBX Classes
 90
     1153
 91
        4
280
     0
281
     0
  0
CLASS
  1
SUN
  2
AcDbSun
  3
SCENEOE
 90
     1024
 91
        4
280
     0
281
     0
  0
ENDSEC
  0
SECTION
  2
TABLES
  0
TABLE
  2
VPORT
  5
8
330
0
100
AcDbSymbolTable
 70
     1
  0
VPORT
  5
29
330
8
100
AcDbSymbolTableRecord
100
AcDbViewportTableRecord
  2
*Active
 70
     0
 10
0.0
 20
0.0
 11
1.0
 21
1.0
 12
0.0
 22
0.0
 13
0.0
 23
0.0
 14
0.5
 24
0.5
 15
0.5
 25
0.5
 16
0.0
 26
0.0
 36
1.0
 17
540.0
 27
-540.0
 37
0.0
 40
1080.0
 41
1.0
 42
50.0
 43
0.0
 44
0.0
 50
0.0
 51
0.0
 71
     0
 72
   100
 73
     1
 74
     3
 75
     0
 76
     0
 77
     0
 78
     0
281
     0
 65
     1
110
0.0
120
0.0
130
0.0
111
1.0
121
0.0
131
0.0
112
0.0
122
1.0
132
0.0
 79
     0
146
0.0
 60
     3
 61
     5
292
     1
282
     1
141
0.0
142
0.0
 63
   250
361
3F
  0
ENDTAB
  0
TABLE
  2
LTYPE
  5
5
330
0
100
AcDbSymbolTable
 70
     1
  0
LTYPE
  5
14
330
5
100
AcDbSymbolTableRecord
100
AcDbLinetypeTableRecord
  2
ByBlock
 70
     0
  3

 72
    65
 73
     0
 40
0.0
  0
LTYPE
  5
15
330
5
100
AcDbSymbolTableRecord
100
AcDbLinetypeTableRecord
  2
ByLayer
 70
     0
  3

 72
    65
 73
     0
 40
0.0
  0
LTYPE
  5
16
330
5
100
AcDbSymbolTableRecord
100
AcDbLinetypeTableRecord
  2
Continuous
 70
     0
  3
Solid line
 72
    65
 73
     0
 40
0.0
  0
ENDTAB
  0
TABLE
  2
LAYER
  5
2
330
0
100
AcDbSymbolTable
 70
     2
  0
LAYER
  5
10
330
2
100
AcDbSymbolTableRecord
100
AcDbLayerTableRecord
  2
0
 70
     0
 62
     7
  6
Continuous
370
    -3
390
F
347
3E
  0
LAYER
  5
40
330
2
100
AcDbSymbolTableRecord
100
AcDbLayerTableRecord
  2
Layer 1
 70
     0
 62
     7
  6
Continuous
370
    -3
390
F
347
3E
  0
ENDTAB
  0
TABLE
  2
STYLE
  5
3
330
0
100
AcDbSymbolTable
 70
     1
  0
STYLE
  5
11
330
3
100
AcDbSymbolTableRecord
100
AcDbTextStyleTableRecord
  2
Standard
 70
     0
 40
0.0
 41
1.0
 50
0.0
 71
     0
 42
0.2
  3
txt
  4

  0
ENDTAB
  0
TABLE
  2
VIEW
  5
6
330
0
100
AcDbSymbolTable
 70
     0
  0
ENDTAB
  0
TABLE
  2
UCS
  5
7
330
0
100
AcDbSymbolTable
 70
     0
  0
ENDTAB
  0
TABLE
  2
APPID
  5
9
330
0
100
AcDbSymbolTable
 70
     1
  0
APPID
  5
12
330
9
100
AcDbSymbolTableRecord
100
AcDbRegAppTableRecord
  2
ACAD
 70
     0
  0
ENDTAB
  0
TABLE
  2
DIMSTYLE
  5
A
330
0
100
AcDbSymbolTable
 70
     1
100
AcDbDimStyleTable
  0
DIMSTYLE
105
27
330
A
100
AcDbSymbolTableRecord
100
AcDbDimStyleTableRecord
  2
Standard
 70
     0
178
     0
340
11
  0
ENDTAB
  0
TABLE
  2
BLOCK_RECORD
  5
1
330
0
100
AcDbSymbolTable
 70
     5
  0
BLOCK_RECORD
  5
1F
330
1
100
AcDbSymbolTableRecord
100
AcDbBlockTableRecord
  2
*Model_Space
340
22
 70
     0
280
     1
281
     0
  0
BLOCK_RECORD
  5
1B
330
1
100
AcDbSymbolTableRecord
100
AcDbBlockTableRecord
  2
*Paper_Space
340
1E
 70
     0
280
     1
281
     0
  0
BLOCK_RECORD
  5
23
330
1
100
AcDbSymbolTableRecord
100
AcDbBlockTableRecord
  2
*Paper_Space0
340
26
 70
     0
280
     1
281
     0
  0
BLOCK_RECORD
  5
41
330
1
100
AcDbSymbolTableRecord
100
AcDbBlockTableRecord
  2
block 2
340
0
102
{BLKREFS
331
42
102
}
 70
     0
280
     1
281
     0
  0
BLOCK_RECORD
  5
45
330
1
100
AcDbSymbolTableRecord
100
AcDbBlockTableRecord
  2
block 3
340
0
102
{BLKREFS
331
46
102
}
 70
     0
280
     1
281
     0
  0
BLOCK_RECORD
  5
50
330
1
100
AcDbSymbolTableRecord
100
AcDbBlockTableRecord
  2
block 4
340
0
102
{BLKREFS
331
51
102
}
 70
     0
280
     1
281
     0
  0
BLOCK_RECORD
  5
58
330
1
100
AcDbSymbolTableRecord
100
AcDbBlockTableRecord
  2
block 5
340
0
102
{BLKREFS
331
59
102
}
 70
     0
280
     1
281
     0
  0
ENDTAB
  0
ENDSEC
  0
SECTION
  2
BLOCKS
  0
BLOCK
  5
20
330
1F
100
AcDbEntity
  8
0
100
AcDbBlockBegin
  2
*Model_Space
 70
     0
 10
0.0
 20
0.0
 30
0.0
  3
*Model_Space
  1

  0
ENDBLK
  5
21
330
1F
100
AcDbEntity
  8
0
100
AcDbBlockEnd
  0
BLOCK
  5
1C
330
1B
100
AcDbEntity
 67
     1
  8
0
100
AcDbBlockBegin
  2
*Paper_Space
 70
     0
 10
0.0
 20
0.0
 30
0.0
  3
*Paper_Space
  1

  0
ENDBLK
  5
1D
330
1B
100
AcDbEntity
 67
     1
  8
0
100
AcDbBlockEnd
  0
BLOCK
  5
24
330
23
100
AcDbEntity
  8
0
100
AcDbBlockBegin
  2
*Paper_Space0
 70
     0
 10
0.0
 20
0.0
 30
0.0
  3
*Paper_Space0
  1

  0
ENDBLK
  5
25
330
23
100
AcDbEntity
  8
0
100
AcDbBlockEnd
  0
BLOCK
  5
43
330
41
100
AcDbEntity
  8
0
100
AcDbBlockBegin
  2
block 2
 70
     0
 10
0.0
 20
0.0
 30
0.0
  3
block 2
  1

  0
INSERT
  5
46
330
41
100
AcDbEntity
  8
Layer 1
100
AcDbBlockReference
  2
block 3
 10
0.0
 20
0.0
 30
0.0
  0
INSERT
  5
51
330
41
100
AcDbEntity
  8
Layer 1
100
AcDbBlockReference
  2
block 4
 10
0.0
 20
0.0
 30
0.0
  0
ENDBLK
  5
44
330
41
100
AcDbEntity
  8
0
100
AcDbBlockEnd
  0
BLOCK
  5
47
330
45
100
AcDbEntity
  8
0
100
AcDbBlockBegin
  2
block 3
 70
     0
 10
0.0
 20
0.0
 30
0.0
  3
block 3
  1

  0
SPLINE
  5
49
330
45
100
AcDbEntity
  8
Layer 1
370
     0
100
AcDbSpline
210
0.0
220
0.0
230
1.0
 70
    11
 71
     3
 72
    53
 73
    49
 74
     0
 42
0.0000000001
 43
0.0000000001
 12
1.0
 22
0.0
 32
0.0
 13
1.0
 23
0.0
 33
0.0
 40
0.0
 40
0.0
 40
0.0
 40
0.0
 40
1.0
 40
1.0
 40
1.0
 40
2.0
 40
2.0
 40
2.0
 40
3.0
 40
3.0
 40
3.0
 40
4.0
 40
4.0
 40
4.0
 40
5.0
 40
5.0
 40
5.0
 40
6.0
 40
6.0
 40
6.0
 40
7.0
 40
7.0
 40
7.0
 40
8.0
 40
8.0
 40
8.0
 40
9.0
 40
9.0
 40
9.0
 40
10.0
 40
10.0
 40
10.0
 40
11.0
 40
11.0
 40
11.0
 40
12.0
 40
12.0
 40
12.0
 40
13.0
 40
13.0
 40
13.0
 40
14.0
 40
14.0
 40
14.0
 40
15.0
 40
15.0
 40
15.0
 40
16.0
 40
16.0
 40
16.0
 40
16.0
 10
182.3474852090903
 20
-626.6909284510821
 30
0.0
 10
170.6266512882003
 20
-626.6909284510821
 30
0.0
 10
163.8652622097934
 20
-623.687267730309
 30
0.0
 10
162.0620569911962
 20
-617.6749023580905
 30
0.0
 10
153.745876280248
 20
-590.2308755206268
 30
0.0
 10
149.5909383814496
 20
-550.7116786319075
 30
0.0
 10
149.5909383814496
 20
-499.1223556226159
 30
0.0
 10
149.5909383814496
 20
-467.0681761423602
 30
0.0
 10
150.5417193148924
 20
-439.770423294658
 30
0.0
 10
152.4458031471195
 20
-417.2316190448528
 30
0.0
 10
152.645038409034
 20
-414.5255502342861
 30
0.0
 10
153.3965840805604
 20
-412.071677957787
 30
0.0
 10
154.6991791790306
 20
-409.8674802500154
 30
0.0
 10
157.8037185134281
 20
-404.5587432078519
 30
0.0
 10
168.2232183185179
 20
-401.9056356694364
 30
0.0
 10
185.9526346636158
 20
-401.9056356694364
 30
0.0
 10
204.1839221115124
 20
-401.9056356694364
 30
0.0
 10
213.300826818132
 20
-406.7125016088048
 30
0.0
 10
213.300826818132
 20
-416.3287554528815
 30
0.0
 10
213.300826818132
 20
-421.1381433575898
 30
0.0
 10
212.598459470747
 20
-438.6683244407741
 30
0.0
 10
211.1962467413196
 20
-468.9192987024344
 30
0.0
 10
209.7927730292222
 20
-501.5787498644549
 30
0.0
 10
209.0929276471788
 20
-544.8531531454701
 30
0.0
 10
209.0929276471788
 20
-598.7425085454797
 30
0.0
 10
209.0929276471788
 20
-606.7598363635534
 30
0.0
 10
209.041227357694
 20
-611.2665884273792
 30
0.0
 10
208.9428707094075
 20
-612.2678086676369
 30
0.0
 10
237.8912498725958
 20
-608.0586485140138
 30
0.0
 10
257.7252462945044
 20
-600.0968039334348
 30
0.0
 10
268.4448599751368
 20
-588.374709029873
 30
0.0
 10
269.9479513181905
 20
-586.5715038112776
 30
0.0
 10
271.9012134745617
 20
-585.6711621846498
 30
0.0
 10
274.3059074269158
 20
-585.6711621846498
 30
0.0
 10
275.8077377873005
 20
-585.6711621846498
 30
0.0
 10
277.2099505167271
 20
-586.0242373323472
 30
0.0
 10
278.5125456151973
 20
-586.7228217317188
 30
0.0
 10
280.7142213576262
 20
-587.925799199229
 30
0.0
 10
281.8188421768509
 20
-589.6281258042018
 30
0.0
 10
281.8188421768509
 20
-591.8323235119697
 30
0.0
 10
281.8188421768509
 20
-592.9344223658536
 30
0.0
 10
281.4165887050085
 20
-594.0365212197376
 30
0.0
 10
280.6158647093398
 20
-595.1360981082817
 30
0.0
 10
273.3034262039882
 20
-604.0537675529868
 30
0.0
 10
260.7301679979455
 20
-611.3649450756657
 30
0.0
 10
242.9011340218904
 20
-617.0746746070054
 30
0.0
 10
222.5652664971803
 20
-623.4855105030565
 30
0.0
 10
202.3807168929134
 20
-626.6909284510821
 30
0.0
 10
182.3474852090903
 20
-626.6909284510821
 30
0.0
  0
HATCH
  5
4A
330
45
100
AcDbEntity
  8
Layer 1
 62
     7
420
 16777215
100
AcDbHatch
 10
0.0
 20
0.0
 30
0.0
210
0.0
220
0.0
230
1.0
  2
SOLID
 70
     1
 71
     0
 91
        1
 92
        1
 93
        1
 72
     4
 94
        3
 73
     0
 74
     1
 95
       53
 96
       49
 40
0.0
 40
0.0
 40
0.0
 40
0.0
 40
1.0
 40
1.0
 40
1.0
 40
2.0
 40
2.0
 40
2.0
 40
3.0
 40
3.0
 40
3.0
 40
4.0
 40
4.0
 40
4.0
 40
5.0
 40
5.0
 40
5.0
 40
6.0
 40
6.0
 40
6.0
 40
7.0
 40
7.0
 40
7.0
 40
8.0
 40
8.0
 40
8.0
 40
9.0
 40
9.0
 40
9.0
 40
10.0
 40
10.0
 40
10.0
 40
11.0
 40
11.0
 40
11.0
 40
12.0
 40
12.0
 40
12.0
 40
13.0
 40
13.0
 40
13.0
 40
14.0
 40
14.0
 40
14.0
 40
15.0
 40
15.0
 40
15.0
 40
16.0
 40
16.0
 40
16.0
 40
16.0
 10
182.3474852090903
 20
-626.6909284510821
 10
170.6266512882003
 20
-626.6909284510821
 10
163.8652622097934
 20
-623.687267730309
 10
162.0620569911962
 20
-617.6749023580905
 10
153.745876280248
 20
-590.2308755206268
 10
149.5909383814496
 20
-550.7116786319075
 10
149.5909383814496
 20
-499.1223556226159
 10
149.5909383814496
 20
-467.0681761423602
 10
150.5417193148924
 20
-439.770423294658
 10
152.4458031471195
 20
-417.2316190448528
 10
152.645038409034
 20
-414.5255502342861
 10
153.3965840805604
 20
-412.071677957787
 10
154.6991791790306
 20
-409.8674802500154
 10
157.8037185134281
 20
-404.5587432078519
 10
168.2232183185179
 20
-401.9056356694364
 10
185.9526346636158
 20
-401.9056356694364
 10
204.1839221115124
 20
-401.9056356694364
 10
213.300826818132
 20
-406.7125016088048
 10
213.300826818132
 20
-416.3287554528815
 10
213.300826818132
 20
-421.1381433575898
 10
212.598459470747
 20
-438.6683244407741
 10
211.1962467413196
 20
-468.9192987024344
 10
209.7927730292222
 20
-501.5787498644549
 10
209.0929276471788
 20
-544.8531531454701
 10
209.0929276471788
 20
-598.7425085454797
 10
209.0929276471788
 20
-606.7598363635534
 10
209.041227357694
 20
-611.2665884273792
 10
208.9428707094075
 20
-612.2678086676369
 10
237.8912498725958
 20
-608.0586485140138
 10
257.7252462945044
 20
-600.0968039334348
 10
268.4448599751368
 20
-588.374709029873
 10
269.9479513181905
 20
-586.5715038112776
 10
271.9012134745617
 20
-585.6711621846498
 10
274.3059074269158
 20
-585.6711621846498
 10
275.8077377873005
 20
-585.6711621846498
 10
277.2099505167271
 20
-586.0242373323472
 10
278.5125456151973
 20
-586.7228217317188
 10
280.7142213576262
 20
-587.925799199229
 10
281.8188421768509
 20
-589.6281258042018
 10
281.8188421768509
 20
-591.8323235119697
 10
281.8188421768509
 20
-592.9344223658536
 10
281.4165887050085
 20
-594.0365212197376
 10
280.6158647093398
 20
-595.1360981082817
 10
273.3034262039882
 20
-604.0537675529868
 10
260.7301679979455
 20
-611.3649450756657
 10
242.9011340218904
 20
-617.0746746070054
 10
222.5652664971803
 20
-623.4855105030565
 10
202.3807168929134
 20
-626.6909284510821
 10
182.3474852090903
 20
-626.6909284510821
 97
        0
 97
        0
 75
     2
 76
     1
 98
        0
  0
SPLINE
  5
4B
330
45
100
AcDbEntity
  8
Layer 1
370
     0
100
AcDbSpline
210
0.0
220
0.0
230
1.0
 70
    11
 71
     3
 72
    62
 73
    58
 74
     0
 42
0.0000000001
 43
0.0000000001
 12
1.0
 22
0.0
 32
0.0
 13
1.0
 23
0.0
 33
0.0
 40
0.0
 40
0.0
 40
0.0
 40
0.0
 40
1.0
 40
1.0
 40
1.0
 40
2.0
 40
2.0
 40
2.0
 40
3.0
 40
3.0
 40
3.0
 40
4.0
 40
4.0
 40
4.0
 40
5.0
 40
5.0
 40
5.0
 40
6.0
 40
6.0
 40
6.0
 40
7.0
 40
7.0
 40
7.0
 40
8.0
 40
8.0
 40
8.0
 40
9.0
 40
9.0
 40
9.0
 40
10.0
 40
10.0
 40
10.0
 40
11.0
 40
11.0
 40
11.0
 40
12.0
 40
12.0
 40
12.0
 40
13.0
 40
13.0
 40
13.0
 40
14.0
 40
14.0
 40
14.0
 40
15.0
 40
15.0
 40
15.0
 40
16.0
 40
16.0
 40
16.0
 40
17.0
 40
17.0
 40
17.0
 40
18.0
 40
18.0
 40
18.0
 40
19.0
 40
19.0
 40
19.0
 40
19.0
 10
604.3397159306369
 20
-611.1079287238226
 30
0.0
 10
596.9276891837508
 20
-611.1079287238226
 30
0.0
 10
591.6167925260816
 20
-609.0807077332192
 30
0.0
 10
588.4035064767413
 20
-605.0262657520125
 30
0.0
 10
566.1762249382991
 20
-578.7463019728148
 30
0.0
 10
544.7144304926624
 20
-542.6082722306401
 30
0.0
 10
524.0286815824938
 20
-496.615696006369
 30
0.0
 10
521.0916747827423
 20
-490.1856044268079
 30
0.0
 10
518.0156484879763
 20
-484.2095258816062
 30
0.0
 10
514.802362438636
 20
-478.687460370742
 30
0.0
 10
511.5837971679675
 20
-473.1653948598887
 30
0.0
 10
508.7893293441184
 20
-467.7489137756256
 30
0.0
 10
506.4136797457586
 20
-462.4344976370685
 30
0.0
 10
503.6156924410197
 20
-456.2859645284243
 30
0.0
 10
502.2202182695401
 20
-449.8558729488595
 30
0.0
 10
502.2202182695401
 20
-443.1442228983778
 30
0.0
 10
502.2202182695401
 20
-426.7891952190021
 30
0.0
 10
511.446537413397
 20
-414.9778173640352
 30
0.0
 10
529.8991757011108
 20
-407.7065698526076
 30
0.0
 10
538.9847156095084
 20
-404.2152448132383
 30
0.0
 10
548.8410218320423
 20
-402.4660628126712
 30
0.0
 10
559.466334628265
 20
-402.4660628126712
 30
0.0
 10
571.0683033704809
 20
-402.4660628126712
 30
0.0
 10
578.5472002542083
 20
-407.4285308625822
 30
0.0
 10
581.903025279451
 20
-417.3534669623969
 30
0.0
 10
597.9764944879134
 20
-464.8840563340473
 30
0.0
 10
616.779321123835
 20
-511.9219183815894
 30
0.0
 10
638.3097454467534
 20
-558.4740920668028
 30
0.0
 10
646.8339281537628
 20
-538.9057783380831
 30
0.0
 10
655.3633900821005
 20
-516.4690876869008
 30
0.0
 10
663.8910922699943
 20
-491.1640201132486
 30
0.0
 10
678.4283080715177
 20
-448.6698078901227
 30
0.0
 10
685.6995555829453
 20
-420.0106750316681
 30
0.0
 10
685.6995555829453
 20
-405.1901410187875
 30
0.0
 10
685.6995555829453
 20
-402.9552706558879
 30
0.0
 10
686.711406337803
 20
-400.9949198021332
 30
0.0
 10
688.7403870688468
 20
-399.3196469001723
 30
0.0
 10
690.7640885785659
 20
-397.6408545173272
 30
0.0
 10
693.1766927262324
 20
-396.8032180663522
 30
0.0
 10
695.9746800309695
 20
-396.8032180663522
 30
0.0
 10
698.7691478548186
 20
-396.8032180663522
 30
0.0
 10
701.1799922620448
 20
-397.6408545173272
 30
0.0
 10
703.2089729930849
 20
-399.3196469001723
 30
0.0
 10
705.2326745028004
 20
-400.9949198021332
 30
0.0
 10
706.24980447899
 20
-402.9552706558879
 30
0.0
 10
706.24980447899
 20
-405.1901410187875
 30
0.0
 10
706.24980447899
 20
-421.5451686981742
 30
0.0
 10
698.7691478548186
 20
-451.7423147040008
 30
0.0
 10
683.813113827804
 20
-495.7780595553941
 30
0.0
 10
672.6264438301841
 20
-528.2100759241312
 30
0.0
 10
661.8638712793872
 20
-555.4684553897623
 30
0.0
 10
651.5201169540851
 20
-577.5567174331973
 30
0.0
 10
646.7652982764739
 20
-587.6224327684704
 30
0.0
 10
640.7892197312649
 20
-595.7313167308803
 30
0.0
 10
633.5918813184544
 20
-601.8798498395245
 30
0.0
 10
626.3892636843084
 20
-608.0319024290566
 30
0.0
 10
616.6385418883729
 20
-611.1079287238226
 30
0.0
 10
604.3397159306369
 20
-611.1079287238226
 30
0.0
  0
HATCH
  5
4C
330
45
100
AcDbEntity
  8
Layer 1
 62
     7
420
 16777215
100
AcDbHatch
 10
0.0
 20
0.0
 30
0.0
210
0.0
220
0.0
230
1.0
  2
SOLID
 70
     1
 71
     0
 91
        1
 92
        1
 93
        1
 72
     4
 94
        3
 73
     0
 74
     1
 95
       62
 96
       58
 40
0.0
 40
0.0
 40
0.0
 40
0.0
 40
1.0
 40
1.0
 40
1.0
 40
2.0
 40
2.0
 40
2.0
 40
3.0
 40
3.0
 40
3.0
 40
4.0
 40
4.0
 40
4.0
 40
5.0
 40
5.0
 40
5.0
 40
6.0
 40
6.0
 40
6.0
 40
7.0
 40
7.0
 40
7.0
 40
8.0
 40
8.0
 40
8.0
 40
9.0
 40
9.0
 40
9.0
 40
10.0
 40
10.0
 40
10.0
 40
11.0
 40
11.0
 40
11.0
 40
12.0
 40
12.0
 40
12.0
 40
13.0
 40
13.0
 40
13.0
 40
14.0
 40
14.0
 40
14.0
 40
15.0
 40
15.0
 40
15.0
 40
16.0
 40
16.0
 40
16.0
 40
17.0
 40
17.0
 40
17.0
 40
18.0
 40
18.0
 40
18.0
 40
19.0
 40
19.0
 40
19.0
 40
19.0
 10
604.3397159306369
 20
-611.1079287238226
 10
596.9276891837508
 20
-611.1079287238226
 10
591.6167925260816
 20
-609.0807077332192
 10
588.4035064767413
 20
-605.0262657520125
 10
566.1762249382991
 20
-578.7463019728148
 10
544.7144304926624
 20
-542.6082722306401
 10
524.0286815824938
 20
-496.615696006369
 10
521.0916747827423
 20
-490.1856044268079
 10
518.0156484879763
 20
-484.2095258816062
 10
514.802362438636
 20
-478.687460370742
 10
511.5837971679675
 20
-473.1653948598887
 10
508.7893293441184
 20
-467.7489137756256
 10
506.4136797457586
 20
-462.4344976370685
 10
503.6156924410197
 20
-456.2859645284243
 10
502.2202182695401
 20
-449.8558729488595
 10
502.2202182695401
 20
-443.1442228983778
 10
502.2202182695401
 20
-426.7891952190021
 10
511.446537413397
 20
-414.9778173640352
 10
529.8991757011108
 20
-407.7065698526076
 10
538.9847156095084
 20
-404.2152448132383
 10
548.8410218320423
 20
-402.4660628126712
 10
559.466334628265
 20
-402.4660628126712
 10
571.0683033704809
 20
-402.4660628126712
 10
578.5472002542083
 20
-407.4285308625822
 10
581.903025279451
 20
-417.3534669623969
 10
597.9764944879134
 20
-464.8840563340473
 10
616.779321123835
 20
-511.9219183815894
 10
638.3097454467534
 20
-558.4740920668028
 10
646.8339281537628
 20
-538.9057783380831
 10
655.3633900821005
 20
-516.4690876869008
 10
663.8910922699943
 20
-491.1640201132486
 10
678.4283080715177
 20
-448.6698078901227
 10
685.6995555829453
 20
-420.0106750316681
 10
685.6995555829453
 20
-405.1901410187875
 10
685.6995555829453
 20
-402.9552706558879
 10
686.711406337803
 20
-400.9949198021332
 10
688.7403870688468
 20
-399.3196469001723
 10
690.7640885785659
 20
-397.6408545173272
 10
693.1766927262324
 20
-396.8032180663522
 10
695.9746800309695
 20
-396.8032180663522
 10
698.7691478548186
 20
-396.8032180663522
 10
701.1799922620448
 20
-397.6408545173272
 10
703.2089729930849
 20
-399.3196469001723
 10
705.2326745028004
 20
-400.9949198021332
 10
706.24980447899
 20
-402.9552706558879
 10
706.24980447899
 20
-405.1901410187875
 10
706.24980447899
 20
-421.5451686981742
 10
698.7691478548186
 20
-451.7423147040008
 10
683.813113827804
 20
-495.7780595553941
 10
672.6264438301841
 20
-528.2100759241312
 10
661.8638712793872
 20
-555.4684553897623
 10
651.5201169540851
 20
-577.5567174331973
 10
646.7652982764739
 20
-587.6224327684704
 10
640.7892197312649
 20
-595.7313167308803
 10
633.5918813184544
 20
-601.8798498395245
 10
626.3892636843084
 20
-608.0319024290566
 10
616.6385418883729
 20
-611.1079287238226
 10
604.3397159306369
 20
-611.1079287238226
 97
        0
 97
        0
 75
     2
 76
     1
 98
        0
  0
SPLINE
  5
4D
330
45
100
AcDbEntity
  8
Layer 1
370
     0
100
AcDbSpline
210
0.0
220
0.0
230
1.0
 70
    11
 71
     3
 72
    74
 73
    70
 74
     0
 42
0.0000000001
 43
0.0000000001
 12
1.0
 22
0.0
 32
0.0
 13
1.0
 23
0.0
 33
0.0
 40
0.0
 40
0.0
 40
0.0
 40
0.0
 40
1.0
 40
1.0
 40
1.0
 40
2.0
 40
2.0
 40
2.0
 40
3.0
 40
3.0
 40
3.0
 40
4.0
 40
4.0
 40
4.0
 40
5.0
 40
5.0
 40
5.0
 40
6.0
 40
6.0
 40
6.0
 40
7.0
 40
7.0
 40
7.0
 40
8.0
 40
8.0
 40
8.0
 40
9.0
 40
9.0
 40
9.0
 40
10.0
 40
10.0
 40
10.0
 40
11.0
 40
11.0
 40
11.0
 40
12.0
 40
12.0
 40
12.0
 40
13.0
 40
13.0
 40
13.0
 40
14.0
 40
14.0
 40
14.0
 40
15.0
 40
15.0
 40
15.0
 40
16.0
 40
16.0
 40
16.0
 40
17.0
 40
17.0
 40
17.0
 40
18.0
 40
18.0
 40
18.0
 40
19.0
 40
19.0
 40
19.0
 40
20.0
 40
20.0
 40
20.0
 40
21.0
 40
21.0
 40
21.0
 40
22.0
 40
22.0
 40
22.0
 40
23.0
 40
23.0
 40
23.0
 40
23.0
 10
841.0811172392969
 20
-615.0919810873002
 30
0.0
 10
802.3562690455619
 20
-615.0919810873002
 30
0.0
 10
772.1608827801792
 20
-604.0478500655827
 30
0.0
 10
750.494958443127
 20
-581.959588022155
 30
0.0
 10
730.7841057385049
 20
-561.6908975970309
 30
0.0
 10
720.9277995159719
 20
-537.0158171020539
 30
0.0
 10
720.9277995159719
 20
-507.9378660181119
 30
0.0
 10
720.9277995159719
 20
-480.4014475624481
 30
0.0
 10
729.3851120861364
 20
-456.2190943915793
 30
0.0
 10
746.2997372264654
 20
-435.387287024625
 30
0.0
 10
769.2256357208717
 20
-407.1504918725459
 30
0.0
 10
801.9374508200744
 20
-393.0268150751745
 30
0.0
 10
844.4351825240883
 20
-393.0268150751745
 30
0.0
 10
859.1131775610775
 20
-393.0268150751745
 30
0.0
 10
871.3451333819648
 20
-395.0188412569205
 30
0.0
 10
881.1310499867759
 20
-399.0028936203871
 30
0.0
 10
890.9152068511285
 20
-402.9869459838646
 30
0.0
 10
898.1494998132512
 20
-408.2661673135572
 30
0.0
 10
902.8339288731258
 20
-414.8370381285768
 30
0.0
 10
907.5165981925638
 20
-421.4079089436
 30
0.0
 10
909.8588127225048
 20
-428.6052473564141
 30
0.0
 10
909.8588127225048
 20
-436.4325728478998
 30
0.0
 10
909.8588127225048
 20
-444.8230152812266
 30
0.0
 10
907.0291500897911
 20
-453.4175876059544
 30
0.0
 10
901.3663053434757
 20
-462.2268482647687
 30
0.0
 10
895.7052203376079
 20
-471.0325894426951
 30
0.0
 10
887.4221220713189
 20
-479.1801876948466
 30
0.0
 10
876.5187702850671
 20
-486.6555650976898
 30
0.0
 10
865.6136587583642
 20
-494.1344619814208
 30
0.0
 10
852.1217287801192
 20
-500.1809301443627
 30
0.0
 10
836.0482595716494
 20
-504.7949695865082
 30
0.0
 10
825.8417650009178
 20
-507.8709958812742
 30
0.0
 10
814.5882248664639
 20
-509.9686064896032
 30
0.0
 10
802.2876391682839
 20
-511.0842819306145
 30
0.0
 10
802.5656781583057
 20
-524.7856210216032
 30
0.0
 10
804.7319186439272
 20
-537.7865834161948
 30
0.0
 10
808.7881203655743
 20
-550.0871691143748
 30
0.0
 10
812.9815818417919
 20
-563.2289107444176
 30
0.0
 10
819.0966798820191
 20
-573.921093677478
 30
0.0
 10
827.1369339671364
 20
-582.1707568753463
 30
0.0
 10
835.1736685713622
 20
-590.4204200732074
 30
0.0
 10
844.9243903673014
 20
-594.5417321912519
 30
0.0
 10
856.3873396145063
 20
-594.5417321912519
 30
0.0
 10
861.840775248078
 20
-594.5417321912519
 30
0.0
 10
867.4649057046408
 20
-593.6689009314123
 30
0.0
 10
873.2685296864183
 20
-591.9197189308416
 30
0.0
 10
879.066874446864
 20
-590.1740564111551
 30
0.0
 10
885.011277664089
 20
-586.81999112636
 30
0.0
 10
891.0911808954479
 20
-581.8540035955575
 30
0.0
 10
897.1728438672544
 20
-576.8950550265381
 30
0.0
 10
903.5677406379618
 20
-569.7962620785493
 30
0.0
 10
910.2793906884435
 20
-560.5717026751354
 30
0.0
 10
912.9330792768305
 20
-556.9360789194234
 30
0.0
 10
916.009105571593
 20
-555.1200267820077
 30
0.0
 10
919.5057098322904
 20
-555.1200267820077
 30
0.0
 10
922.3001776561359
 20
-555.1200267820077
 30
0.0
 10
924.8166064899524
 20
-555.890793096145
 30
0.0
 10
927.0532365933104
 20
-557.4252867626401
 30
0.0
 10
929.2881069562172
 20
-558.9668193909074
 30
0.0
 10
930.4090616185495
 20
-561.0644299992437
 30
0.0
 10
930.4090616185495
 20
-563.7181185876307
 30
0.0
 10
930.4090616185495
 20
-565.5341707250427
 30
0.0
 10
929.6382953044085
 20
-567.4910020979169
 30
0.0
 10
928.1020418974804
 20
-569.5886127062458
 30
0.0
 10
916.3592939198024
 20
-586.36245861112
 30
0.0
 10
903.673325064552
 20
-598.1421611381065
 30
0.0
 10
890.0441353317256
 20
-604.9206813254223
 30
0.0
 10
876.4131858584733
 20
-611.6992015127489
 30
0.0
 10
860.0898335070742
 20
-615.0919810873002
 30
0.0
 10
841.0811172392969
 20
-615.0919810873002
 30
0.0
  0
SPLINE
  5
4E
330
45
100
AcDbEntity
  8
Layer 1
370
     0
100
AcDbSpline
210
0.0
220
0.0
230
1.0
 70
    11
 71
     3
 72
    29
 73
    25
 74
     0
 42
0.0000000001
 43
0.0000000001
 12
1.0
 22
0.0
 32
0.0
 13
1.0
 23
0.0
 33
0.0
 40
0.0
 40
0.0
 40
0.0
 40
0.0
 40
1.0
 40
1.0
 40
1.0
 40
2.0
 40
2.0
 40
2.0
 40
3.0
 40
3.0
 40
3.0
 40
4.0
 40
4.0
 40
4.0
 40
5.0
 40
5.0
 40
5.0
 40
6.0
 40
6.0
 40
6.0
 40
7.0
 40
7.0
 40
7.0
 40
8.0
 40
8.0
 40
8.0
 40
8.0
 10
802.7064573937714
 20
-496.1968777808852
 30
0.0
 10
812.0717960326365
 20
-495.2184620944481
 30
0.0
 10
820.5308683432522
 20
-493.5431891924945
 30
0.0
 10
828.0801548447089
 20
-491.1640201132486
 30
0.0
 10
841.6371952193513
 20
-486.9687988965907
 30
0.0
 10
852.7517158587871
 20
-481.6227074300459
 30
0.0
 10
861.4201972821465
 20
-475.1222262327628
 30
0.0
 10
870.0869189650584
 20
-468.6217450354725
 30
0.0
 10
876.4131858584733
 20
-461.6707702847034
 30
0.0
 10
880.3972382219472
 20
-454.2587435378173
 30
0.0
 10
884.3812905854138
 20
-446.8502362718227
 30
0.0
 10
886.3733167671526
 20
-439.9309368490412
 30
0.0
 10
886.3733167671526
 20
-433.4973257885922
 30
0.0
 10
886.3733167671526
 20
-427.4895719154028
 30
0.0
 10
884.518550339988
 20
-422.4883895757393
 30
0.0
 10
880.8178161878714
 20
-418.5043372122691
 30
0.0
 10
877.1118028144301
 20
-414.5202848487952
 30
0.0
 10
871.8325814847449
 20
-412.5282586670637
 30
0.0
 10
864.985431420133
 20
-412.5282586670637
 30
0.0
 10
851.8436897900865
 20
-412.5282586670637
 30
0.0
 10
840.7291691506434
 20
-416.4454408936926
 30
0.0
 10
831.6453889826953
 20
-424.2727663851747
 30
0.0
 10
814.7290041019223
 20
-439.2340796335175
 30
0.0
 10
805.082106992133
 20
-463.2052639512021
 30
0.0
 10
802.7064573937714
 20
-496.1968777808852
 30
0.0
  0
HATCH
  5
4F
330
45
100
AcDbEntity
  8
Layer 1
 62
     7
420
 16777215
100
AcDbHatch
 10
0.0
 20
0.0
 30
0.0
210
0.0
220
0.0
230
1.0
  2
SOLID
 70
     1
 71
     0
 91
        2
 92
        1
 93
        1
 72
     4
 94
        3
 73
     0
 74
     1
 95
       74
 96
       70
 40
0.0
 40
0.0
 40
0.0
 40
0.0
 40
1.0
 40
1.0
 40
1.0
 40
2.0
 40
2.0
 40
2.0
 40
3.0
 40
3.0
 40
3.0
 40
4.0
 40
4.0
 40
4.0
 40
5.0
 40
5.0
 40
5.0
 40
6.0
 40
6.0
 40
6.0
 40
7.0
 40
7.0
 40
7.0
 40
8.0
 40
8.0
 40
8.0
 40
9.0
 40
9.0
 40
9.0
 40
10.0
 40
10.0
 40
10.0
 40
11.0
 40
11.0
 40
11.0
 40
12.0
 40
12.0
 40
12.0
 40
13.0
 40
13.0
 40
13.0
 40
14.0
 40
14.0
 40
14.0
 40
15.0
 40
15.0
 40
15.0
 40
16.0
 40
16.0
 40
16.0
 40
17.0
 40
17.0
 40
17.0
 40
18.0
 40
18.0
 40
18.0
 40
19.0
 40
19.0
 40
19.0
 40
20.0
 40
20.0
 40
20.0
 40
21.0
 40
21.0
 40
21.0
 40
22.0
 40
22.0
 40
22.0
 40
23.0
 40
23.0
 40
23.0
 40
23.0
 10
841.0811172392969
 20
-615.0919810873002
 10
802.3562690455619
 20
-615.0919810873002
 10
772.1608827801792
 20
-604.0478500655827
 10
750.494958443127
 20
-581.959588022155
 10
730.7841057385049
 20
-561.6908975970309
 10
720.9277995159719
 20
-537.0158171020539
 10
720.9277995159719
 20
-507.9378660181119
 10
720.9277995159719
 20
-480.4014475624481
 10
729.3851120861364
 20
-456.2190943915793
 10
746.2997372264654
 20
-435.387287024625
 10
769.2256357208717
 20
-407.1504918725459
 10
801.9374508200744
 20
-393.0268150751745
 10
844.4351825240883
 20
-393.0268150751745
 10
859.1131775610775
 20
-393.0268150751745
 10
871.3451333819648
 20
-395.0188412569205
 10
881.1310499867759
 20
-399.0028936203871
 10
890.9152068511285
 20
-402.9869459838646
 10
898.1494998132512
 20
-408.2661673135572
 10
902.8339288731258
 20
-414.8370381285768
 10
907.5165981925638
 20
-421.4079089436
 10
909.8588127225048
 20
-428.6052473564141
 10
909.8588127225048
 20
-436.4325728478998
 10
909.8588127225048
 20
-444.8230152812266
 10
907.0291500897911
 20
-453.4175876059544
 10
901.3663053434757
 20
-462.2268482647687
 10
895.7052203376079
 20
-471.0325894426951
 10
887.4221220713189
 20
-479.1801876948466
 10
876.5187702850671
 20
-486.6555650976898
 10
865.6136587583642
 20
-494.1344619814208
 10
852.1217287801192
 20
-500.1809301443627
 10
836.0482595716494
 20
-504.7949695865082
 10
825.8417650009178
 20
-507.8709958812742
 10
814.5882248664639
 20
-509.9686064896032
 10
802.2876391682839
 20
-511.0842819306145
 10
802.5656781583057
 20
-524.7856210216032
 10
804.7319186439272
 20
-537.7865834161948
 10
808.7881203655743
 20
-550.0871691143748
 10
812.9815818417919
 20
-563.2289107444176
 10
819.0966798820191
 20
-573.921093677478
 10
827.1369339671364
 20
-582.1707568753463
 10
835.1736685713622
 20
-590.4204200732074
 10
844.9243903673014
 20
-594.5417321912519
 10
856.3873396145063
 20
-594.5417321912519
 10
861.840775248078
 20
-594.5417321912519
 10
867.4649057046408
 20
-593.6689009314123
 10
873.2685296864183
 20
-591.9197189308416
 10
879.066874446864
 20
-590.1740564111551
 10
885.011277664089
 20
-586.81999112636
 10
891.0911808954479
 20
-581.8540035955575
 10
897.1728438672544
 20
-576.8950550265381
 10
903.5677406379618
 20
-569.7962620785493
 10
910.2793906884435
 20
-560.5717026751354
 10
912.9330792768305
 20
-556.9360789194234
 10
916.009105571593
 20
-555.1200267820077
 10
919.5057098322904
 20
-555.1200267820077
 10
922.3001776561359
 20
-555.1200267820077
 10
924.8166064899524
 20
-555.890793096145
 10
927.0532365933104
 20
-557.4252867626401
 10
929.2881069562172
 20
-558.9668193909074
 10
930.4090616185495
 20
-561.0644299992437
 10
930.4090616185495
 20
-563.7181185876307
 10
930.4090616185495
 20
-565.5341707250427
 10
929.6382953044085
 20
-567.4910020979169
 10
928.1020418974804
 20
-569.5886127062458
 10
916.3592939198024
 20
-586.36245861112
 10
903.673325064552
 20
-598.1421611381065
 10
890.0441353317256
 20
-604.9206813254223
 10
876.4131858584733
 20
-611.6992015127489
 10
860.0898335070742
 20
-615.0919810873002
 10
841.0811172392969
 20
-615.0919810873002
 97
        0
 97
        0
 92
        1
 93
        1
 72
     4
 94
        3
 73
     0
 74
     1
 95
       29
 96
       25
 40
0.0
 40
0.0
 40
0.0
 40
0.0
 40
1.0
 40
1.0
 40
1.0
 40
2.0
 40
2.0
 40
2.0
 40
3.0
 40
3.0
 40
3.0
 40
4.0
 40
4.0
 40
4.0
 40
5.0
 40
5.0
 40
5.0
 40
6.0
 40
6.0
 40
6.0
 40
7.0
 40
7.0
 40
7.0
 40
8.0
 40
8.0
 40
8.0
 40
8.0
 10
802.7064573937714
 20
-496.1968777808852
 10
812.0717960326365
 20
-495.2184620944481
 10
820.5308683432522
 20
-493.5431891924945
 10
828.0801548447089
 20
-491.1640201132486
 10
841.6371952193513
 20
-486.9687988965907
 10
852.7517158587871
 20
-481.6227074300459
 10
861.4201972821465
 20
-475.1222262327628
 10
870.0869189650584
 20
-468.6217450354725
 10
876.4131858584733
 20
-461.6707702847034
 10
880.3972382219472
 20
-454.2587435378173
 10
884.3812905854138
 20
-446.8502362718227
 10
886.3733167671526
 20
-439.9309368490412
 10
886.3733167671526
 20
-433.4973257885922
 10
886.3733167671526
 20
-427.4895719154028
 10
884.518550339988
 20
-422.4883895757393
 10
880.8178161878714
 20
-418.5043372122691
 10
877.1118028144301
 20
-414.5202848487952
 10
871.8325814847449
 20
-412.5282586670637
 10
864.985431420133
 20
-412.5282586670637
 10
851.8436897900865
 20
-412.5282586670637
 10
840.7291691506434
 20
-416.4454408936926
 10
831.6453889826953
 20
-424.2727663851747
 10
814.7290041019223
 20
-439.2340796335175
 10
805.082106992133
 20
-463.2052639512021
 10
802.7064573937714
 20
-496.1968777808852
 97
        0
 97
        0
 75
     2
 76
     1
 98
        0
  0
ENDBLK
  5
48
330
45
100
AcDbEntity
  8
0
100
AcDbBlockEnd
  0
BLOCK
  5
52
330
50
100
AcDbEntity
  8
0
100
AcDbBlockBegin
  2
block 4
 70
     0
 10
0.0
 20
0.0
 30
0.0
  3
block 4
  1

  0
SPLINE
  5
54
330
50
100
AcDbEntity
  8
Layer 1
370
     0
100
AcDbSpline
210
0.0
220
0.0
230
1.0
 70
    11
 71
     3
 72
    23
 73
    19
 74
     0
 42
0.0000000001
 43
0.0000000001
 12
1.0
 22
0.0
 32
0.0
 13
1.0
 23
0.0
 33
0.0
 40
0.0
 40
0.0
 40
0.0
 40
0.0
 40
1.0
 40
1.0
 40
1.0
 40
2.0
 40
2.0
 40
2.0
 40
3.0
 40
3.0
 40
3.0
 40
4.0
 40
4.0
 40
4.0
 40
5.0
 40
5.0
 40
5.0
 40
6.0
 40
6.0
 40
6.0
 40
6.0
 10
342.9756097196396
 20
-505.3467573012185
 30
0.0
 10
348.9418704963773
 20
-493.7000045262994
 30
0.0
 10
355.2878091813245
 20
-465.5799100384847
 30
0.0
 10
346.8368383290681
 20
-451.0197408440345
 30
0.0
 10
338.3857611244593
 20
-436.4630812773194
 30
0.0
 10
313.1757861331289
 20
-416.9334919318262
 30
0.0
 10
302.5953220718602
 20
-419.8746663160618
 30
0.0
 10
297.305249569753
 20
-421.3454130367081
 30
0.0
 10
296.7895469991827
 20
-425.7957273418306
 30
0.0
 10
297.5980376037269
 20
-429.8765735648249
 30
0.0
 10
298.3716446357666
 20
-433.7902338853801
 30
0.0
 10
300.3302296099037
 20
-437.390154757968
 30
0.0
 10
303.0937955608742
 20
-440.2685812526015
 30
0.0
 10
330.4959052984514
 20
-468.841843126118
 30
0.0
 10
342.9756097196396
 20
-505.3467573012185
 30
0.0
 10
342.9756097196396
 20
-505.3467573012185
 30
0.0
 10
342.9756097196396
 20
-505.3467573012185
 30
0.0
 10
342.9756097196396
 20
-505.3467573012185
 30
0.0
 10
342.9756097196396
 20
-505.3467573012185
 30
0.0
  0
SPLINE
  5
55
330
50
100
AcDbEntity
  8
Layer 1
370
     0
100
AcDbSpline
210
0.0
220
0.0
230
1.0
 70
    11
 71
     3
 72
    20
 73
    16
 74
     0
 42
0.0000000001
 43
0.0000000001
 12
1.0
 22
0.0
 32
0.0
 13
1.0
 23
0.0
 33
0.0
 40
0.0
 40
0.0
 40
0.0
 40
0.0
 40
1.0
 40
1.0
 40
1.0
 40
2.0
 40
2.0
 40
2.0
 40
3.0
 40
3.0
 40
3.0
 40
4.0
 40
4.0
 40
4.0
 40
5.0
 40
5.0
 40
5.0
 40
5.0
 10
428.0048494975845
 20
-576.0182164167509
 30
0.0
 10
472.8875641045388
 20
-533.63414404385
 30
0.0
 10
489.8350246171012
 20
-489.7237026685016
 30
0.0
 10
482.1680833276996
 20
-460.1817835434431
 30
0.0
 10
474.4977387629142
 20
-430.6363547906749
 30
0.0
 10
444.0079010955842
 20
-412.9327290323363
 30
0.0
 10
428.5730901316347
 20
-426.2939881261245
 30
0.0
 10
413.1381728153301
 20
-439.655353572276
 30
0.0
 10
422.8924917810846
 20
-453.0793605556664
 30
0.0
 10
422.8924917810846
 20
-453.0793605556664
 30
0.0
 10
460.3905242494593
 20
-503.9283359393612
 30
0.0
 10
428.0048494975845
 20
-576.0182164167509
 30
0.0
 10
428.0048494975845
 20
-576.0182164167509
 30
0.0
 10
428.0048494975845
 20
-576.0182164167509
 30
0.0
 10
428.0048494975845
 20
-576.0182164167509
 30
0.0
 10
428.0048494975845
 20
-576.0182164167509
 30
0.0
  0
SPLINE
  5
56
330
50
100
AcDbEntity
  8
Layer 1
370
     0
100
AcDbSpline
210
0.0
220
0.0
230
1.0
 70
    11
 71
     3
 72
    26
 73
    22
 74
     0
 42
0.0000000001
 43
0.0000000001
 12
1.0
 22
0.0
 32
0.0
 13
1.0
 23
0.0
 33
0.0
 40
0.0
 40
0.0
 40
0.0
 40
0.0
 40
1.0
 40
1.0
 40
1.0
 40
2.0
 40
2.0
 40
2.0
 40
3.0
 40
3.0
 40
3.0
 40
4.0
 40
4.0
 40
4.0
 40
5.0
 40
5.0
 40
5.0
 40
6.0
 40
6.0
 40
6.0
 40
7.0
 40
7.0
 40
7.0
 40
7.0
 10
364.0943159571561
 20
-462.8790919770927
 30
0.0
 10
364.0943159571561
 20
-462.8790919770927
 30
0.0
 10
383.6937788000405
 20
-410.8974640100696
 30
0.0
 10
441.0734269097438
 20
-410.6116952315406
 30
0.0
 10
498.4531813717995
 20
-410.3294360807213
 30
0.0
 10
517.4847226376814
 20
-499.9485244538537
 30
0.0
 10
482.2588018867182
 20
-541.4228587800044
 30
0.0
 10
447.0397940388311
 20
-582.8938961831609
 30
0.0
 10
408.1233402086045
 20
-613.320985960896
 30
0.0
 10
366.0808716007259
 20
-642.280944998065
 30
0.0
 10
366.0808716007259
 20
-642.280944998065
 30
0.0
 10
297.6223922930867
 20
-599.3708538761293
 30
0.0
 10
251.8893906059557
 20
-538.5827191332592
 30
0.0
 10
206.1562825664687
 20
-477.7946907427595
 30
0.0
 10
253.4053370775773
 20
-411.8906886556815
 30
0.0
 10
286.92355806043
 20
-410.6116952315406
 30
0.0
 10
320.4417790432735
 20
-409.3327018073887
 30
0.0
 10
347.7116928032929
 20
-428.5556773127082
 30
0.0
 10
364.0943159571561
 20
-462.8790919770927
 30
0.0
 10
364.0943159571561
 20
-462.8790919770927
 30
0.0
 10
364.0943159571561
 20
-462.8790919770927
 30
0.0
 10
364.0943159571561
 20
-462.8790919770927
 30
0.0
  0
HATCH
  5
57
330
50
100
AcDbEntity
  8
Layer 1
 62
   241
420
 16733095
100
AcDbHatch
 10
0.0
 20
0.0
 30
0.0
210
0.0
220
0.0
230
1.0
  2
SOLID
 70
     1
 71
     0
 91
        3
 92
        1
 93
        1
 72
     4
 94
        3
 73
     0
 74
     1
 95
       23
 96
       19
 40
0.0
 40
0.0
 40
0.0
 40
0.0
 40
1.0
 40
1.0
 40
1.0
 40
2.0
 40
2.0
 40
2.0
 40
3.0
 40
3.0
 40
3.0
 40
4.0
 40
4.0
 40
4.0
 40
5.0
 40
5.0
 40
5.0
 40
6.0
 40
6.0
 40
6.0
 40
6.0
 10
342.9756097196396
 20
-505.3467573012185
 10
348.9418704963773
 20
-493.7000045262994
 10
355.2878091813245
 20
-465.5799100384847
 10
346.8368383290681
 20
-451.0197408440345
 10
338.3857611244593
 20
-436.4630812773194
 10
313.1757861331289
 20
-416.9334919318262
 10
302.5953220718602
 20
-419.8746663160618
 10
297.305249569753
 20
-421.3454130367081
 10
296.7895469991827
 20
-425.7957273418306
 10
297.5980376037269
 20
-429.8765735648249
 10
298.3716446357666
 20
-433.7902338853801
 10
300.3302296099037
 20
-437.390154757968
 10
303.0937955608742
 20
-440.2685812526015
 10
330.4959052984514
 20
-468.841843126118
 10
342.9756097196396
 20
-505.3467573012185
 10
342.9756097196396
 20
-505.3467573012185
 10
342.9756097196396
 20
-505.3467573012185
 10
342.9756097196396
 20
-505.3467573012185
 10
342.9756097196396
 20
-505.3467573012185
 97
        0
 97
        0
 92
        1
 93
        1
 72
     4
 94
        3
 73
     0
 74
     1
 95
       20
 96
       16
 40
0.0
 40
0.0
 40
0.0
 40
0.0
 40
1.0
 40
1.0
 40
1.0
 40
2.0
 40
2.0
 40
2.0
 40
3.0
 40
3.0
 40
3.0
 40
4.0
 40
4.0
 40
4.0
 40
5.0
 40
5.0
 40
5.0
 40
5.0
 10
428.0048494975845
 20
-576.0182164167509
 10
472.8875641045388
 20
-533.63414404385
 10
489.8350246171012
 20
-489.7237026685016
 10
482.1680833276996
 20
-460.1817835434431
 10
474.4977387629142
 20
-430.6363547906749
 10
444.0079010955842
 20
-412.9327290323363
 10
428.5730901316347
 20
-426.2939881261245
 10
413.1381728153301
 20
-439.655353572276
 10
422.8924917810846
 20
-453.0793605556664
 10
422.8924917810846
 20
-453.0793605556664
 10
460.3905242494593
 20
-503.9283359393612
 10
428.0048494975845
 20
-576.0182164167509
 10
428.0048494975845
 20
-576.0182164167509
 10
428.0048494975845
 20
-576.0182164167509
 10
428.0048494975845
 20
-576.0182164167509
 10
428.0048494975845
 20
-576.0182164167509
 97
        0
 97
        0
 92
        1
 93
        1
 72
     4
 94
        3
 73
     0
 74
     1
 95
       26
 96
       22
 40
0.0
 40
0.0
 40
0.0
 40
0.0
 40
1.0
 40
1.0
 40
1.0
 40
2.0
 40
2.0
 40
2.0
 40
3.0
 40
3.0
 40
3.0
 40
4.0
 40
4.0
 40
4.0
 40
5.0
 40
5.0
 40
5.0
 40
6.0
 40
6.0
 40
6.0
 40
7.0
 40
7.0
 40
7.0
 40
7.0
 10
364.0943159571561
 20
-462.8790919770927
 10
364.0943159571561
 20
-462.8790919770927
 10
383.6937788000405
 20
-410.8974640100696
 10
441.0734269097438
 20
-410.6116952315406
 10
498.4531813717995
 20
-410.3294360807213
 10
517.4847226376814
 20
-499.9485244538537
 10
482.2588018867182
 20
-541.4228587800044
 10
447.0397940388311
 20
-582.8938961831609
 10
408.1233402086045
 20
-613.320985960896
 10
366.0808716007259
 20
-642.280944998065
 10
366.0808716007259
 20
-642.280944998065
 10
297.6223922930867
 20
-599.3708538761293
 10
251.8893906059557
 20
-538.5827191332592
 10
206.1562825664687
 20
-477.7946907427595
 10
253.4053370775773
 20
-411.8906886556815
 10
286.92355806043
 20
-410.6116952315406
 10
320.4417790432735
 20
-409.3327018073887
 10
347.7116928032929
 20
-428.5556773127082
 10
364.0943159571561
 20
-462.8790919770927
 10
364.0943159571561
 20
-462.8790919770927
 10
364.0943159571561
 20
-462.8790919770927
 10
364.0943159571561
 20
-462.8790919770927
 97
        0
 97
        0
 75
     2
 76
     1
 98
        0
  0
INSERT
  5
59
330
50
100
AcDbEntity
  8
Layer 1
100
AcDbBlockReference
  2
block 5
 10
0.0
 20
0.0
 30
0.0
  0
ENDBLK
  5
53
330
50
100
AcDbEntity
  8
0
100
AcDbBlockEnd
  0
BLOCK
  5
5A
330
58
100
AcDbEntity
  8
0
100
AcDbBlockBegin
  2
block 5
 70
     0
 10
0.0
 20
0.0
 30
0.0
  3
block 5
  1

  0
SPLINE
  5
5C
330
58
100
AcDbEntity
  8
Layer 1
370
     0
100
AcDbSpline
210
0.0
220
0.0
230
1.0
 70
    11
 71
     3
 72
    71
 73
    67
 74
     0
 42
0.0000000001
 43
0.0000000001
 12
1.0
 22
0.0
 32
0.0
 13
1.0
 23
0.0
 33
0.0
 40
0.0
 40
0.0
 40
0.0
 40
0.0
 40
1.0
 40
1.0
 40
1.0
 40
2.0
 40
2.0
 40
2.0
 40
3.0
 40
3.0
 40
3.0
 40
4.0
 40
4.0
 40
4.0
 40
5.0
 40
5.0
 40
5.0
 40
6.0
 40
6.0
 40
6.0
 40
7.0
 40
7.0
 40
7.0
 40
8.0
 40
8.0
 40
8.0
 40
9.0
 40
9.0
 40
9.0
 40
10.0
 40
10.0
 40
10.0
 40
11.0
 40
11.0
 40
11.0
 40
12.0
 40
12.0
 40
12.0
 40
13.0
 40
13.0
 40
13.0
 40
14.0
 40
14.0
 40
14.0
 40
15.0
 40
15.0
 40
15.0
 40
16.0
 40
16.0
 40
16.0
 40
17.0
 40
17.0
 40
17.0
 40
18.0
 40
18.0
 40
18.0
 40
19.0
 40
19.0
 40
19.0
 40
20.0
 40
20.0
 40
20.0
 40
21.0
 40
21.0
 40
21.0
 40
22.0
 40
22.0
 40
22.0
 40
22.0
 10
328.7901120406614
 20
-605.1744575723587
 30
0.0
 10
324.7384980171319
 20
-602.3176587109574
 30
0.0
 10
320.8406405764454
 20
-599.1822973176149
 30
0.0
 10
317.126188893064
 20
-595.7724870212278
 30
0.0
 10
316.215136510772
 20
-594.9361008846154
 30
0.0
 10
315.3490235840363
 20
-594.0647100943515
 30
0.0
 10
314.4891975241371
 20
-593.1886623656956
 30
0.0
 10
305.6325544596339
 20
-602.0133277865407
 30
0.0
 10
296.7832848809185
 20
-610.8453666931655
 30
0.0
 10
287.949926508406
 20
-619.693394421638
 30
0.0
 10
285.5342173291201
 20
-622.1131396142027
 30
0.0
 10
283.3331153944155
 20
-623.0793767165396
 30
0.0
 10
279.8249660821584
 20
-622.5071942184786
 30
0.0
 10
272.369673397804
 20
-621.2911123709946
 30
0.0
 10
264.8116176060948
 20
-620.7175327914065
 30
0.0
 10
257.3089793813497
 20
-619.7752789218266
 30
0.0
 10
250.3650185333054
 20
-618.9031895908101
 30
0.0
 10
244.6295332000291
 20
-620.5469336146907
 30
0.0
 10
239.3468575104935
 20
-625.6534994170597
 30
0.0
 10
215.9241649032383
 20
-648.2952234546665
 30
0.0
 10
192.2069209421852
 20
-670.6323061052772
 30
0.0
 10
168.601986812203
 20
-693.0856569846019
 30
0.0
 10
167.9004966579041
 20
-693.7529962573117
 30
0.0
 10
167.2075442240066
 20
-694.443154528175
 30
0.0
 10
166.6044707012179
 20
-695.197656164577
 30
0.0
 10
162.4368989115401
 20
-700.4114867814405
 30
0.0
 10
164.153912099574
 20
-705.0126195361536
 30
0.0
 10
170.6584908095874
 20
-706.0298501139569
 30
0.0
 10
171.9953425929098
 20
-706.2388690324715
 30
0.0
 10
173.3625420914714
 20
-706.3404679052383
 30
0.0
 10
174.7160036217529
 20
-706.3426411431556
 30
0.0
 10
184.6071079361536
 20
-706.3593285057559
 30
0.0
 10
194.4983674818386
 20
-706.3671676853901
 30
0.0
 10
204.3892389493149
 20
-706.308723108481
 30
0.0
 10
206.9709679825637
 20
-706.2934328273932
 30
0.0
 10
209.5512223186497
 20
-706.0346622836423
 30
0.0
 10
212.1931034728977
 20
-705.884320788975
 30
0.0
 10
211.3566397206423
 20
-712.6235315786962
 30
0.0
 10
210.1599617831589
 20
-718.760367386405
 30
0.0
 10
209.9516414054024
 20
-724.9304226880395
 30
0.0
 10
209.7438643371252
 20
-731.0842563208989
 30
0.0
 10
210.0631750800831
 20
-737.3427158364848
 30
0.0
 10
210.9975121543766
 20
-743.4252983118367
 30
0.0
 10
212.059759803381
 20
-750.3417832233154
 30
0.0
 10
218.8192282751497
 20
-751.7851236647202
 30
0.0
 10
223.4607211626608
 20
-746.9231247439766
 30
0.0
 10
230.8089818794497
 20
-739.2259041097441
 30
0.0
 10
238.7851531238312
 20
-732.0673360171077
 30
0.0
 10
246.9541216179578
 20
-725.2284667456242
 30
0.0
 10
259.9377434924363
 20
-714.3590949046866
 30
0.0
 10
271.1620516550802
 20
-701.756798669523
 30
0.0
 10
282.9974277514293
 20
-689.7553251035879
 30
0.0
 10
287.2159930165863
 20
-685.4775391051062
 30
0.0
 10
291.1303049729549
 20
-680.8996910423866
 30
0.0
 10
295.1831608467246
 20
-676.4584465060743
 30
0.0
 10
298.9330828775755
 20
-672.3493192933147
 30
0.0
 10
300.6039147598167
 20
-667.7827254984059
 30
0.0
 10
299.4093324446103
 20
-662.0652469936085
 30
0.0
 10
298.1822291762392
 20
-656.1927700557189
 30
0.0
 10
297.8882987475672
 20
-650.1236150861023
 30
0.0
 10
296.6310806108777
 20
-644.2594430217123
 30
0.0
 10
295.6063989316308
 20
-639.4804152201123
 30
0.0
 10
297.253790890587
 20
-636.4367178976117
 30
0.0
 10
300.6036042972528
 20
-633.1285840896144
 30
0.0
 10
310.0187695071882
 20
-623.8304632647942
 30
0.0
 10
319.410184331281
 20
-614.508281591583
 30
0.0
 10
328.7901120406614
 20
-605.1744575723587
 30
0.0
  0
SPLINE
  5
5D
330
58
100
AcDbEntity
  8
Layer 1
370
     0
100
AcDbSpline
210
0.0
220
0.0
230
1.0
 70
    11
 71
     3
 72
    23
 73
    19
 74
     0
 42
0.0000000001
 43
0.0000000001
 12
1.0
 22
0.0
 32
0.0
 13
1.0
 23
0.0
 33
0.0
 40
0.0
 40
0.0
 40
0.0
 40
0.0
 40
1.0
 40
1.0
 40
1.0
 40
2.0
 40
2.0
 40
2.0
 40
3.0
 40
3.0
 40
3.0
 40
4.0
 40
4.0
 40
4.0
 40
5.0
 40
5.0
 40
5.0
 40
6.0
 40
6.0
 40
6.0
 40
6.0
 10
248.2450249424028
 20
-631.3075659439837
 30
0.0
 10
248.8603617363087
 20
-630.713806298003
 30
0.0
 10
250.0121002182377
 20
-630.4662124064071
 30
0.0
 10
250.930370855046
 20
-630.429267361762
 30
0.0
 10
258.8201558921073
 20
-630.1125179349347
 30
0.0
 10
266.7058273002458
 20
-630.0210090953897
 30
0.0
 10
275.287633383522
 20
-631.4177025371482
 30
0.0
 10
271.2360193599961
 20
-636.8760224199814
 30
0.0
 10
266.5855230582474
 20
-640.8247957205222
 30
0.0
 10
262.209087581331
 20
-645.0141775050379
 30
0.0
 10
261.7212732839444
 20
-645.481113195272
 30
0.0
 10
260.7813478835733
 20
-645.6878812602172
 30
0.0
 10
260.0609195131146
 20
-645.6673907312597
 30
0.0
 10
251.8380081491814
 20
-645.4333795766634
 30
0.0
 10
243.6170371762537
 20
-645.1318428152717
 30
0.0
 10
234.6476185868278
 20
-644.8225444898908
 30
0.0
 10
239.5865346068085
 20
-639.8836284699046
 30
0.0
 10
243.8601293607289
 20
-635.5379287864325
 30
0.0
 10
248.2450249424028
 20
-631.3075659439837
 30
0.0
  0
SPLINE
  5
5E
330
58
100
AcDbEntity
  8
Layer 1
370
     0
100
AcDbSpline
210
0.0
220
0.0
230
1.0
 70
    11
 71
     3
 72
    26
 73
    22
 74
     0
 42
0.0000000001
 43
0.0000000001
 12
1.0
 22
0.0
 32
0.0
 13
1.0
 23
0.0
 33
0.0
 40
0.0
 40
0.0
 40
0.0
 40
0.0
 40
1.0
 40
1.0
 40
1.0
 40
2.0
 40
2.0
 40
2.0
 40
3.0
 40
3.0
 40
3.0
 40
4.0
 40
4.0
 40
4.0
 40
5.0
 40
5.0
 40
5.0
 40
6.0
 40
6.0
 40
6.0
 40
7.0
 40
7.0
 40
7.0
 40
7.0
 10
224.4746142679514
 20
-654.8054681064041
 30
0.0
 10
225.3489544525264
 20
-653.9573620081555
 30
0.0
 10
226.8058000152887
 20
-653.2242822883763
 30
0.0
 10
227.9777961792561
 20
-653.2467132083311
 30
0.0
 10
235.8839581163547
 20
-653.3988398627243
 30
0.0
 10
243.7860064245297
 20
-653.7689112342323
 30
0.0
 10
252.3623017973687
 20
-654.0938879189071
 30
0.0
 10
251.5353847688302
 20
-655.3389980157426
 30
0.0
 10
251.0922770800817
 20
-656.2986377886791
 30
0.0
 10
250.3948229390617
 20
-657.0086656633775
 30
0.0
 10
246.0582042854639
 20
-661.4233656508277
 30
0.0
 10
241.7211975536675
 20
-665.8410926482229
 30
0.0
 10
237.2523994651556
 20
-670.1199652656596
 30
0.0
 10
236.0610770068279
 20
-671.2606823267033
 30
0.0
 10
234.3961439132336
 20
-672.6941655818246
 30
0.0
 10
232.9694908344345
 20
-672.6717346618552
 30
0.0
 10
224.7316772676295
 20
-672.5423493899852
 30
0.0
 10
216.4999953363758
 20
-672.0168138915706
 30
0.0
 10
207.5988785101472
 20
-671.5937310379359
 30
0.0
 10
213.2523241119479
 20
-665.9402854361306
 30
0.0
 10
218.801066215392
 20
-660.3085722135347
 30
0.0
 10
224.4746142679514
 20
-654.8054681064041
 30
0.0
  0
SPLINE
  5
5F
330
58
100
AcDbEntity
  8
Layer 1
370
     0
100
AcDbSpline
210
0.0
220
0.0
230
1.0
 70
    11
 71
     3
 72
    26
 73
    22
 74
     0
 42
0.0000000001
 43
0.0000000001
 12
1.0
 22
0.0
 32
0.0
 13
1.0
 23
0.0
 33
0.0
 40
0.0
 40
0.0
 40
0.0
 40
0.0
 40
1.0
 40
1.0
 40
1.0
 40
2.0
 40
2.0
 40
2.0
 40
3.0
 40
3.0
 40
3.0
 40
4.0
 40
4.0
 40
4.0
 40
5.0
 40
5.0
 40
5.0
 40
6.0
 40
6.0
 40
6.0
 40
7.0
 40
7.0
 40
7.0
 40
7.0
 10
212.0666675953426
 20
-693.6289664645938
 30
0.0
 10
211.5472637324765
 20
-694.0554644063832
 30
0.0
 10
210.598257302222
 20
-694.0872868187816
 30
0.0
 10
209.8489559136824
 20
-694.0853464277843
 30
0.0
 10
202.12651019646
 20
-694.0655544395831
 30
0.0
 10
194.4042197105146
 20
-694.0010558427512
 30
0.0
 10
185.4244006253348
 20
-693.9405156435405
 30
0.0
 10
189.7198829897306
 20
-689.6450332791555
 30
0.0
 10
193.1531332093955
 20
-686.0792155463696
 30
0.0
 10
196.7684697204886
 20
-682.7086787638127
 30
0.0
 10
197.4876562407144
 20
-682.0382348655166
 30
0.0
 10
198.9000280417522
 20
-681.9008551827119
 30
0.0
 10
199.9988326571975
 20
-681.8823826604075
 30
0.0
 10
207.3484128398713
 20
-681.7585080989684
 30
0.0
 10
214.6995453353456
 20
-681.7232705984006
 30
0.0
 10
222.0504449839
 20
-681.6933885770104
 30
0.0
 10
222.7443288054828
 20
-681.6905944139817
 30
0.0
 10
223.4392216303831
 20
-681.9240622590751
 30
0.0
 10
225.5064365860844
 20
-682.2925037021578
 30
0.0
 10
220.470656247383
 20
-686.5645461432705
 30
0.0
 10
216.3086727837808
 20
-690.1455765414958
 30
0.0
 10
212.0666675953426
 20
-693.6289664645938
 30
0.0
  0
SPLINE
  5
60
330
58
100
AcDbEntity
  8
Layer 1
370
     0
100
AcDbSpline
210
0.0
220
0.0
230
1.0
 70
    11
 71
     3
 72
    26
 73
    22
 74
     0
 42
0.0000000001
 43
0.0000000001
 12
1.0
 22
0.0
 32
0.0
 13
1.0
 23
0.0
 33
0.0
 40
0.0
 40
0.0
 40
0.0
 40
0.0
 40
1.0
 40
1.0
 40
1.0
 40
2.0
 40
2.0
 40
2.0
 40
3.0
 40
3.0
 40
3.0
 40
4.0
 40
4.0
 40
4.0
 40
5.0
 40
5.0
 40
5.0
 40
6.0
 40
6.0
 40
6.0
 40
7.0
 40
7.0
 40
7.0
 40
7.0
 10
246.2057516171035
 20
-711.5526685936475
 30
0.0
 10
238.9402291725473
 20
-718.6857787563695
 30
0.0
 10
231.6031451079116
 20
-725.7462406800532
 30
0.0
 10
224.284921643798
 20
-732.8257184355334
 30
0.0
 10
223.7281070424542
 20
-732.5796768567434
 30
0.0
 10
223.1712924411086
 20
-732.3337128935764
 30
0.0
 10
222.6144778397638
 20
-732.0876713147827
 30
0.0
 10
223.1290695329508
 20
-724.9789324630347
 30
0.0
 10
223.5837419520567
 20
-717.8647605164642
 30
0.0
 10
224.2256232948394
 20
-710.7674311637948
 30
0.0
 10
224.317597828237
 20
-709.7501229703503
 30
0.0
 10
225.1489389482513
 20
-708.6535692084562
 30
0.0
 10
225.9178770937142
 20
-707.8673227752752
 30
0.0
 10
230.6431948724157
 20
-703.0359044166889
 30
0.0
 10
235.4489224541639
 20
-698.2830330857814
 30
0.0
 10
240.9860998272507
 20
-692.7459333283277
 30
0.0
 10
244.1456773002801
 20
-698.4788573454953
 30
0.0
 10
245.6188221474386
 20
-703.7968481512344
 30
0.0
 10
247.2232926574752
 20
-709.0301602937197
 30
0.0
 10
247.433941504426
 20
-709.7173691702646
 30
0.0
 10
246.8158881631243
 20
-710.9537086997861
 30
0.0
 10
246.2057516171035
 20
-711.5526685936475
 30
0.0
  0
SPLINE
  5
61
330
58
100
AcDbEntity
  8
Layer 1
370
     0
100
AcDbSpline
210
0.0
220
0.0
230
1.0
 70
    11
 71
     3
 72
    17
 73
    13
 74
     0
 42
0.0000000001
 43
0.0000000001
 12
1.0
 22
0.0
 32
0.0
 13
1.0
 23
0.0
 33
0.0
 40
0.0
 40
0.0
 40
0.0
 40
0.0
 40
1.0
 40
1.0
 40
1.0
 40
2.0
 40
2.0
 40
2.0
 40
3.0
 40
3.0
 40
3.0
 40
4.0
 40
4.0
 40
4.0
 40
4.0
 10
255.1566200685675
 20
-701.686168437127
 30
0.0
 10
252.9347947579927
 20
-696.0390873178094
 30
0.0
 10
250.8409576377699
 20
-690.7174485770029
 30
0.0
 10
248.7168504179508
 20
-685.3185822743853
 30
0.0
 10
253.9481445538067
 20
-680.0873657541761
 30
0.0
 10
258.9830711204586
 20
-675.0523615718757
 30
0.0
 10
264.4839243740271
 20
-669.5515859339484
 30
0.0
 10
266.7435485012802
 20
-675.0538362690368
 30
0.0
 10
268.8356780774275
 20
-680.1479835690097
 30
0.0
 10
271.1236319132777
 20
-685.7191565924095
 30
0.0
 10
271.1236319132777
 20
-685.7191565924095
 30
0.0
 10
255.1566200685675
 20
-701.686168437127
 30
0.0
 10
255.1566200685675
 20
-701.686168437127
 30
0.0
  0
SPLINE
  5
62
330
58
100
AcDbEntity
  8
Layer 1
370
     0
100
AcDbSpline
210
0.0
220
0.0
230
1.0
 70
    11
 71
     3
 72
    26
 73
    22
 74
     0
 42
0.0000000001
 43
0.0000000001
 12
1.0
 22
0.0
 32
0.0
 13
1.0
 23
0.0
 33
0.0
 40
0.0
 40
0.0
 40
0.0
 40
0.0
 40
1.0
 40
1.0
 40
1.0
 40
2.0
 40
2.0
 40
2.0
 40
3.0
 40
3.0
 40
3.0
 40
4.0
 40
4.0
 40
4.0
 40
5.0
 40
5.0
 40
5.0
 40
6.0
 40
6.0
 40
6.0
 40
7.0
 40
7.0
 40
7.0
 40
7.0
 10
289.7901933327512
 20
-665.52310137114
 30
0.0
 10
289.6692681656377
 20
-666.4169230813586
 30
0.0
 10
289.2245305484557
 20
-667.3393849627373
 30
0.0
 10
288.6975979685103
 20
-668.087599732311
 30
0.0
 10
288.0366231782855
 20
-669.0259728198816
 30
0.0
 10
287.1596440619514
 20
-669.8174195009396
 30
0.0
 10
286.3428946822505
 20
-670.6396019754447
 30
0.0
 10
283.635117849647
 20
-673.3656184834381
 30
0.0
 10
280.9125940454442
 20
-676.0768104042054
 30
0.0
 10
277.3671892259872
 20
-679.6222928393199
 30
0.0
 10
275.5856774411141
 20
-673.652408273234
 30
0.0
 10
273.9541190727205
 20
-668.7404248803341
 30
0.0
 10
272.7476615645946
 20
-663.7261440739221
 30
0.0
 10
272.4683228762433
 20
-662.5652469464567
 30
0.0
 10
273.3021476967415
 20
-660.7423660254808
 30
0.0
 10
274.2063699027158
 20
-659.7610714889906
 30
0.0
 10
277.601355611856
 20
-656.0764242113564
 30
0.0
 10
281.2373378831935
 20
-652.6139905110667
 30
0.0
 10
284.8297001648534
 20
-649.0216282294077
 30
0.0
 10
286.2738167626585
 20
-651.3190511733428
 30
0.0
 10
290.0422113158302
 20
-663.6593170078686
 30
0.0
 10
289.7901933327512
 20
-665.52310137114
 30
0.0
  0
HATCH
  5
63
330
58
100
AcDbEntity
  8
Layer 1
 62
   241
420
 16733095
100
AcDbHatch
 10
0.0
 20
0.0
 30
0.0
210
0.0
220
0.0
230
1.0
  2
SOLID
 70
     1
 71
     0
 91
        7
 92
        1
 93
        1
 72
     4
 94
        3
 73
     0
 74
     1
 95
       71
 96
       67
 40
0.0
 40
0.0
 40
0.0
 40
0.0
 40
1.0
 40
1.0
 40
1.0
 40
2.0
 40
2.0
 40
2.0
 40
3.0
 40
3.0
 40
3.0
 40
4.0
 40
4.0
 40
4.0
 40
5.0
 40
5.0
 40
5.0
 40
6.0
 40
6.0
 40
6.0
 40
7.0
 40
7.0
 40
7.0
 40
8.0
 40
8.0
 40
8.0
 40
9.0
 40
9.0
 40
9.0
 40
10.0
 40
10.0
 40
10.0
 40
11.0
 40
11.0
 40
11.0
 40
12.0
 40
12.0
 40
12.0
 40
13.0
 40
13.0
 40
13.0
 40
14.0
 40
14.0
 40
14.0
 40
15.0
 40
15.0
 40
15.0
 40
16.0
 40
16.0
 40
16.0
 40
17.0
 40
17.0
 40
17.0
 40
18.0
 40
18.0
 40
18.0
 40
19.0
 40
19.0
 40
19.0
 40
20.0
 40
20.0
 40
20.0
 40
21.0
 40
21.0
 40
21.0
 40
22.0
 40
22.0
 40
22.0
 40
22.0
 10
328.7901120406614
 20
-605.1744575723587
 10
324.7384980171319
 20
-602.3176587109574
 10
320.8406405764454
 20
-599.1822973176149
 10
317.126188893064
 20
-595.7724870212278
 10
316.215136510772
 20
-594.9361008846154
 10
315.3490235840363
 20
-594.0647100943515
 10
314.4891975241371
 20
-593.1886623656956
 10
305.6325544596339
 20
-602.0133277865407
 10
296.7832848809185
 20
-610.8453666931655
 10
287.949926508406
 20
-619.693394421638
 10
285.5342173291201
 20
-622.1131396142027
 10
283.3331153944155
 20
-623.0793767165396
 10
279.8249660821584
 20
-622.5071942184786
 10
272.369673397804
 20
-621.2911123709946
 10
264.8116176060948
 20
-620.7175327914065
 10
257.3089793813497
 20
-619.7752789218266
 10
250.3650185333054
 20
-618.9031895908101
 10
244.6295332000291
 20
-620.5469336146907
 10
239.3468575104935
 20
-625.6534994170597
 10
215.9241649032383
 20
-648.2952234546665
 10
192.2069209421852
 20
-670.6323061052772
 10
168.601986812203
 20
-693.0856569846019
 10
167.9004966579041
 20
-693.7529962573117
 10
167.2075442240066
 20
-694.443154528175
 10
166.6044707012179
 20
-695.197656164577
 10
162.4368989115401
 20
-700.4114867814405
 10
164.153912099574
 20
-705.0126195361536
 10
170.6584908095874
 20
-706.0298501139569
 10
171.9953425929098
 20
-706.2388690324715
 10
173.3625420914714
 20
-706.3404679052383
 10
174.7160036217529
 20
-706.3426411431556
 10
184.6071079361536
 20
-706.3593285057559
 10
194.4983674818386
 20
-706.3671676853901
 10
204.3892389493149
 20
-706.308723108481
 10
206.9709679825637
 20
-706.2934328273932
 10
209.5512223186497
 20
-706.0346622836423
 10
212.1931034728977
 20
-705.884320788975
 10
211.3566397206423
 20
-712.6235315786962
 10
210.1599617831589
 20
-718.760367386405
 10
209.9516414054024
 20
-724.9304226880395
 10
209.7438643371252
 20
-731.0842563208989
 10
210.0631750800831
 20
-737.3427158364848
 10
210.9975121543766
 20
-743.4252983118367
 10
212.059759803381
 20
-750.3417832233154
 10
218.8192282751497
 20
-751.7851236647202
 10
223.4607211626608
 20
-746.9231247439766
 10
230.8089818794497
 20
-739.2259041097441
 10
238.7851531238312
 20
-732.0673360171077
 10
246.9541216179578
 20
-725.2284667456242
 10
259.9377434924363
 20
-714.3590949046866
 10
271.1620516550802
 20
-701.756798669523
 10
282.9974277514293
 20
-689.7553251035879
 10
287.2159930165863
 20
-685.4775391051062
 10
291.1303049729549
 20
-680.8996910423866
 10
295.1831608467246
 20
-676.4584465060743
 10
298.9330828775755
 20
-672.3493192933147
 10
300.6039147598167
 20
-667.7827254984059
 10
299.4093324446103
 20
-662.0652469936085
 10
298.1822291762392
 20
-656.1927700557189
 10
297.8882987475672
 20
-650.1236150861023
 10
296.6310806108777
 20
-644.2594430217123
 10
295.6063989316308
 20
-639.4804152201123
 10
297.253790890587
 20
-636.4367178976117
 10
300.6036042972528
 20
-633.1285840896144
 10
310.0187695071882
 20
-623.8304632647942
 10
319.410184331281
 20
-614.508281591583
 10
328.7901120406614
 20
-605.1744575723587
 97
        0
 97
        0
 92
        1
 93
        1
 72
     4
 94
        3
 73
     0
 74
     1
 95
       23
 96
       19
 40
0.0
 40
0.0
 40
0.0
 40
0.0
 40
1.0
 40
1.0
 40
1.0
 40
2.0
 40
2.0
 40
2.0
 40
3.0
 40
3.0
 40
3.0
 40
4.0
 40
4.0
 40
4.0
 40
5.0
 40
5.0
 40
5.0
 40
6.0
 40
6.0
 40
6.0
 40
6.0
 10
248.2450249424028
 20
-631.3075659439837
 10
248.8603617363087
 20
-630.713806298003
 10
250.0121002182377
 20
-630.4662124064071
 10
250.930370855046
 20
-630.429267361762
 10
258.8201558921073
 20
-630.1125179349347
 10
266.7058273002458
 20
-630.0210090953897
 10
275.287633383522
 20
-631.4177025371482
 10
271.2360193599961
 20
-636.8760224199814
 10
266.5855230582474
 20
-640.8247957205222
 10
262.209087581331
 20
-645.0141775050379
 10
261.7212732839444
 20
-645.481113195272
 10
260.7813478835733
 20
-645.6878812602172
 10
260.0609195131146
 20
-645.6673907312597
 10
251.8380081491814
 20
-645.4333795766634
 10
243.6170371762537
 20
-645.1318428152717
 10
234.6476185868278
 20
-644.8225444898908
 10
239.5865346068085
 20
-639.8836284699046
 10
243.8601293607289
 20
-635.5379287864325
 10
248.2450249424028
 20
-631.3075659439837
 97
        0
 97
        0
 92
        1
 93
        1
 72
     4
 94
        3
 73
     0
 74
     1
 95
       26
 96
       22
 40
0.0
 40
0.0
 40
0.0
 40
0.0
 40
1.0
 40
1.0
 40
1.0
 40
2.0
 40
2.0
 40
2.0
 40
3.0
 40
3.0
 40
3.0
 40
4.0
 40
4.0
 40
4.0
 40
5.0
 40
5.0
 40
5.0
 40
6.0
 40
6.0
 40
6.0
 40
7.0
 40
7.0
 40
7.0
 40
7.0
 10
224.4746142679514
 20
-654.8054681064041
 10
225.3489544525264
 20
-653.9573620081555
 10
226.8058000152887
 20
-653.2242822883763
 10
227.9777961792561
 20
-653.2467132083311
 10
235.8839581163547
 20
-653.3988398627243
 10
243.7860064245297
 20
-653.7689112342323
 10
252.3623017973687
 20
-654.0938879189071
 10
251.5353847688302
 20
-655.3389980157426
 10
251.0922770800817
 20
-656.2986377886791
 10
250.3948229390617
 20
-657.0086656633775
 10
246.0582042854639
 20
-661.4233656508277
 10
241.7211975536675
 20
-665.8410926482229
 10
237.2523994651556
 20
-670.1199652656596
 10
236.0610770068279
 20
-671.2606823267033
 10
234.3961439132336
 20
-672.6941655818246
 10
232.9694908344345
 20
-672.6717346618552
 10
224.7316772676295
 20
-672.5423493899852
 10
216.4999953363758
 20
-672.0168138915706
 10
207.5988785101472
 20
-671.5937310379359
 10
213.2523241119479
 20
-665.9402854361306
 10
218.801066215392
 20
-660.3085722135347
 10
224.4746142679514
 20
-654.8054681064041
 97
        0
 97
        0
 92
        1
 93
        1
 72
     4
 94
        3
 73
     0
 74
     1
 95
       26
 96
       22
 40
0.0
 40
0.0
 40
0.0
 40
0.0
 40
1.0
 40
1.0
 40
1.0
 40
2.0
 40
2.0
 40
2.0
 40
3.0
 40
3.0
 40
3.0
 40
4.0
 40
4.0
 40
4.0
 40
5.0
 40
5.0
 40
5.0
 40
6.0
 40
6.0
 40
6.0
 40
7.0
 40
7.0
 40
7.0
 40
7.0
 10
212.0666675953426
 20
-693.6289664645938
 10
211.5472637324765
 20
-694.0554644063832
 10
210.598257302222
 20
-694.0872868187816
 10
209.8489559136824
 20
-694.0853464277843
 10
202.12651019646
 20
-694.0655544395831
 10
194.4042197105146
 20
-694.0010558427512
 10
185.4244006253348
 20
-693.9405156435405
 10
189.7198829897306
 20
-689.6450332791555
 10
193.1531332093955
 20
-686.0792155463696
 10
196.7684697204886
 20
-682.7086787638127
 10
197.4876562407144
 20
-682.0382348655166
 10
198.9000280417522
 20
-681.9008551827119
 10
199.9988326571975
 20
-681.8823826604075
 10
207.3484128398713
 20
-681.7585080989684
 10
214.6995453353456
 20
-681.7232705984006
 10
222.0504449839
 20
-681.6933885770104
 10
222.7443288054828
 20
-681.6905944139817
 10
223.4392216303831
 20
-681.9240622590751
 10
225.5064365860844
 20
-682.2925037021578
 10
220.470656247383
 20
-686.5645461432705
 10
216.3086727837808
 20
-690.1455765414958
 10
212.0666675953426
 20
-693.6289664645938
 97
        0
 97
        0
 92
        1
 93
        1
 72
     4
 94
        3
 73
     0
 74
     1
 95
       26
 96
       22
 40
0.0
 40
0.0
 40
0.0
 40
0.0
 40
1.0
 40
1.0
 40
1.0
 40
2.0
 40
2.0
 40
2.0
 40
3.0
 40
3.0
 40
3.0
 40
4.0
 40
4.0
 40
4.0
 40
5.0
 40
5.0
 40
5.0
 40
6.0
 40
6.0
 40
6.0
 40
7.0
 40
7.0
 40
7.0
 40
7.0
 10
246.2057516171035
 20
-711.5526685936475
 10
238.9402291725473
 20
-718.6857787563695
 10
231.6031451079116
 20
-725.7462406800532
 10
224.284921643798
 20
-732.8257184355334
 10
223.7281070424542
 20
-732.5796768567434
 10
223.1712924411086
 20
-732.3337128935764
 10
222.6144778397638
 20
-732.0876713147827
 10
223.1290695329508
 20
-724.9789324630347
 10
223.5837419520567
 20
-717.8647605164642
 10
224.2256232948394
 20
-710.7674311637948
 10
224.317597828237
 20
-709.7501229703503
 10
225.1489389482513
 20
-708.6535692084562
 10
225.9178770937142
 20
-707.8673227752752
 10
230.6431948724157
 20
-703.0359044166889
 10
235.4489224541639
 20
-698.2830330857814
 10
240.9860998272507
 20
-692.7459333283277
 10
244.1456773002801
 20
-698.4788573454953
 10
245.6188221474386
 20
-703.7968481512344
 10
247.2232926574752
 20
-709.0301602937197
 10
247.433941504426
 20
-709.7173691702646
 10
246.8158881631243
 20
-710.9537086997861
 10
246.2057516171035
 20
-711.5526685936475
 97
        0
 97
        0
 92
        1
 93
        1
 72
     4
 94
        3
 73
     0
 74
     1
 95
       17
 96
       13
 40
0.0
 40
0.0
 40
0.0
 40
0.0
 40
1.0
 40
1.0
 40
1.0
 40
2.0
 40
2.0
 40
2.0
 40
3.0
 40
3.0
 40
3.0
 40
4.0
 40
4.0
 40
4.0
 40
4.0
 10
255.1566200685675
 20
-701.686168437127
 10
252.9347947579927
 20
-696.0390873178094
 10
250.8409576377699
 20
-690.7174485770029
 10
248.7168504179508
 20
-685.3185822743853
 10
253.9481445538067
 20
-680.0873657541761
 10
258.9830711204586
 20
-675.0523615718757
 10
264.4839243740271
 20
-669.5515859339484
 10
266.7435485012802
 20
-675.0538362690368
 10
268.8356780774275
 20
-680.1479835690097
 10
271.1236319132777
 20
-685.7191565924095
 10
271.1236319132777
 20
-685.7191565924095
 10
255.1566200685675
 20
-701.686168437127
 10
255.1566200685675
 20
-701.686168437127
 97
        0
 97
        0
 92
        1
 93
        1
 72
     4
 94
        3
 73
     0
 74
     1
 95
       26
 96
       22
 40
0.0
 40
0.0
 40
0.0
 40
0.0
 40
1.0
 40
1.0
 40
1.0
 40
2.0
 40
2.0
 40
2.0
 40
3.0
 40
3.0
 40
3.0
 40
4.0
 40
4.0
 40
4.0
 40
5.0
 40
5.0
 40
5.0
 40
6.0
 40
6.0
 40
6.0
 40
7.0
 40
7.0
 40
7.0
 40
7.0
 10
289.7901933327512
 20
-665.52310137114
 10
289.6692681656377
 20
-666.4169230813586
 10
289.2245305484557
 20
-667.3393849627373
 10
288.6975979685103
 20
-668.087599732311
 10
288.0366231782855
 20
-669.0259728198816
 10
287.1596440619514
 20
-669.8174195009396
 10
286.3428946822505
 20
-670.6396019754447
 10
283.635117849647
 20
-673.3656184834381
 10
280.9125940454442
 20
-676.0768104042054
 10
277.3671892259872
 20
-679.6222928393199
 10
275.5856774411141
 20
-673.652408273234
 10
273.9541190727205
 20
-668.7404248803341
 10
272.7476615645946
 20
-663.7261440739221
 10
272.4683228762433
 20
-662.5652469464567
 10
273.3021476967415
 20
-660.7423660254808
 10
274.2063699027158
 20
-659.7610714889906
 10
277.601355611856
 20
-656.0764242113564
 10
281.2373378831935
 20
-652.6139905110667
 10
284.8297001648534
 20
-649.0216282294077
 10
286.2738167626585
 20
-651.3190511733428
 10
290.0422113158302
 20
-663.6593170078686
 10
289.7901933327512
 20
-665.52310137114
 97
        0
 97
        0
 75
     2
 76
     1
 98
        0
  0
SPLINE
  5
64
330
58
100
AcDbEntity
  8
Layer 1
370
     0
100
AcDbSpline
210
0.0
220
0.0
230
1.0
 70
    11
 71
     3
 72
    62
 73
    58
 74
     0
 42
0.0000000001
 43
0.0000000001
 12
1.0
 22
0.0
 32
0.0
 13
1.0
 23
0.0
 33
0.0
 40
0.0
 40
0.0
 40
0.0
 40
0.0
 40
1.0
 40
1.0
 40
1.0
 40
2.0
 40
2.0
 40
2.0
 40
3.0
 40
3.0
 40
3.0
 40
4.0
 40
4.0
 40
4.0
 40
5.0
 40
5.0
 40
5.0
 40
6.0
 40
6.0
 40
6.0
 40
7.0
 40
7.0
 40
7.0
 40
8.0
 40
8.0
 40
8.0
 40
9.0
 40
9.0
 40
9.0
 40
10.0
 40
10.0
 40
10.0
 40
11.0
 40
11.0
 40
11.0
 40
12.0
 40
12.0
 40
12.0
 40
13.0
 40
13.0
 40
13.0
 40
14.0
 40
14.0
 40
14.0
 40
15.0
 40
15.0
 40
15.0
 40
16.0
 40
16.0
 40
16.0
 40
17.0
 40
17.0
 40
17.0
 40
18.0
 40
18.0
 40
18.0
 40
19.0
 40
19.0
 40
19.0
 40
19.0
 10
582.4790822270843
 20
-332.0915121883972
 30
0.0
 10
579.4373252955666
 20
-328.9920868363752
 30
0.0
 10
575.9391107852243
 20
-330.3944462198469
 30
0.0
 10
572.6898872479978
 20
-331.6166597028914
 30
0.0
 10
564.1655167383178
 20
-334.8231170224844
 30
0.0
 10
555.6839124462749
 20
-338.14786057743
 30
0.0
 10
547.2287750874748
 20
-341.533765256705
 30
0.0
 10
534.8061590588977
 20
-346.5085397023449
 30
0.0
 10
522.344424747781
 20
-351.3994892568207
 30
0.0
 10
510.0542210010435
 20
-356.6859681127116
 30
0.0
 10
504.3843984992063
 20
-359.1247291370837
 30
0.0
 10
499.0008224776639
 20
-362.2772435868737
 30
0.0
 10
493.648680790343
 20
-365.383964809067
 30
0.0
 10
491.3112081761683
 20
-366.7407638118657
 30
0.0
 10
489.1406868036311
 20
-368.7472057214527
 30
0.0
 10
489.9575137989586
 20
-371.993945558208
 30
0.0
 10
490.7103078913015
 20
-374.9864941739452
 30
0.0
 10
493.3790440569928
 20
-375.6043146683387
 30
0.0
 10
495.879975208999
 20
-375.8519085599346
 30
0.0
 10
501.274184573208
 20
-376.3860593943955
 30
0.0
 10
506.6961803365339
 20
-376.6473136386321
 30
0.0
 10
512.1090950699872
 20
-376.9807504280634
 30
0.0
 10
514.1490669360473
 20
-377.1064877648587
 30
0.0
 10
516.1957913627875
 20
-377.1222437397682
 30
0.0
 10
519.6919878664949
 20
-377.2349416490524
 30
0.0
 10
517.1431678645995
 20
-379.7837616509405
 30
0.0
 10
515.5702869200495
 20
-381.3793839780174
 30
0.0
 10
513.9732675114419
 20
-382.9503245315736
 30
0.0
 10
498.8702729711977
 20
-397.8063461053443
 30
0.0
 10
483.7605258702561
 20
-412.6554598871753
 30
0.0
 10
468.6569104048876
 20
-427.5109381514794
 30
0.0
 10
472.9318246246876
 20
-431.4446540178487
 30
0.0
 10
476.6189556027812
 20
-435.8393291701668
 30
0.0
 10
479.7981698327285
 20
-440.5561092284752
 30
0.0
 10
496.3839335595048
 20
-423.7366448096709
 30
0.0
 10
513.013239660313
 20
-406.8918776922164
 30
0.0
 10
529.8160943321645
 20
-390.0331397595746
 30
0.0
 10
530.3304531784288
 20
-393.3517516789634
 30
0.0
 10
530.641847126105
 20
-395.3983984900569
 30
0.0
 10
530.9658924230844
 20
-397.4430272945265
 30
0.0
 10
531.6336973896305
 20
-401.6556161554054
 30
0.0
 10
531.9504468164678
 20
-405.9647588724383
 30
0.0
 10
533.0665597196321
 20
-410.0554911785275
 30
0.0
 10
534.6208905262301
 20
-415.7516253823287
 30
0.0
 10
539.5638425594871
 20
-416.9234663150146
 30
0.0
 10
543.6736683130148
 20
-412.7586886883746
 30
0.0
 10
545.2890826282965
 20
-411.1216972251877
 30
0.0
 10
546.645959246729
 20
-409.1668697161931
 30
0.0
 10
547.8401534837358
 20
-407.1875156649676
 30
0.0
 10
555.2527575660861
 20
-394.9018136253599
 30
0.0
 10
562.8932411674723
 20
-382.7383562187297
 30
0.0
 10
569.8412380287955
 20
-370.1927194007712
 30
0.0
 10
574.8060000569021
 20
-361.2281905966647
 30
0.0
 10
578.931271322781
 20
-351.7861703752842
 30
0.0
 10
583.1703271169063
 20
-342.4386083877926
 30
0.0
 10
584.7008299220215
 20
-339.0637251294047
 30
0.0
 10
585.6010937303508
 20
-335.2726668093619
 30
0.0
 10
582.4790822270843
 20
-332.0915121883972
 30
0.0
  0
SPLINE
  5
65
330
58
100
AcDbEntity
  8
Layer 1
370
     0
100
AcDbSpline
210
0.0
220
0.0
230
1.0
 70
    11
 71
     3
 72
    20
 73
    16
 74
     0
 42
0.0000000001
 43
0.0000000001
 12
1.0
 22
0.0
 32
0.0
 13
1.0
 23
0.0
 33
0.0
 40
0.0
 40
0.0
 40
0.0
 40
0.0
 40
1.0
 40
1.0
 40
1.0
 40
2.0
 40
2.0
 40
2.0
 40
3.0
 40
3.0
 40
3.0
 40
4.0
 40
4.0
 40
4.0
 40
5.0
 40
5.0
 40
5.0
 40
5.0
 10
540.661250093427
 20
-395.6431982186168
 30
0.0
 10
540.4596822763478
 20
-389.6990044293761
 30
0.0
 10
539.9429173452381
 20
-383.7444101443816
 30
0.0
 10
540.138663989309
 20
-377.8133333983151
 30
0.0
 10
540.3687167462658
 20
-370.8370068283966
 30
0.0
 10
537.7327343806637
 20
-367.6816982155633
 30
0.0
 10
530.8729088863756
 20
-367.6751008861593
 30
0.0
 10
523.7431361961744
 20
-367.6680378629153
 30
0.0
 10
516.6132082746999
 20
-367.578935108204
 30
0.0
 10
509.3220726689424
 20
-366.7399876554646
 30
0.0
 10
530.0541415000362
 20
-357.9495507318807
 30
0.0
 10
550.7862103311381
 20
-349.159191423927
 30
0.0
 10
571.7758078557454
 20
-340.25970452613
 30
0.0
 10
571.0015142311204
 20
-346.2726657724143
 30
0.0
 10
548.3204390640458
 20
-388.0804854885046
 30
0.0
 10
540.661250093427
 20
-395.6431982186168
 30
0.0
  0
HATCH
  5
66
330
58
100
AcDbEntity
  8
Layer 1
 62
   241
420
 16733095
100
AcDbHatch
 10
0.0
 20
0.0
 30
0.0
210
0.0
220
0.0
230
1.0
  2
SOLID
 70
     1
 71
     0
 91
        2
 92
        1
 93
        1
 72
     4
 94
        3
 73
     0
 74
     1
 95
       62
 96
       58
 40
0.0
 40
0.0
 40
0.0
 40
0.0
 40
1.0
 40
1.0
 40
1.0
 40
2.0
 40
2.0
 40
2.0
 40
3.0
 40
3.0
 40
3.0
 40
4.0
 40
4.0
 40
4.0
 40
5.0
 40
5.0
 40
5.0
 40
6.0
 40
6.0
 40
6.0
 40
7.0
 40
7.0
 40
7.0
 40
8.0
 40
8.0
 40
8.0
 40
9.0
 40
9.0
 40
9.0
 40
10.0
 40
10.0
 40
10.0
 40
11.0
 40
11.0
 40
11.0
 40
12.0
 40
12.0
 40
12.0
 40
13.0
 40
13.0
 40
13.0
 40
14.0
 40
14.0
 40
14.0
 40
15.0
 40
15.0
 40
15.0
 40
16.0
 40
16.0
 40
16.0
 40
17.0
 40
17.0
 40
17.0
 40
18.0
 40
18.0
 40
18.0
 40
19.0
 40
19.0
 40
19.0
 40
19.0
 10
582.4790822270843
 20
-332.0915121883972
 10
579.4373252955666
 20
-328.9920868363752
 10
575.9391107852243
 20
-330.3944462198469
 10
572.6898872479978
 20
-331.6166597028914
 10
564.1655167383178
 20
-334.8231170224844
 10
555.6839124462749
 20
-338.14786057743
 10
547.2287750874748
 20
-341.533765256705
 10
534.8061590588977
 20
-346.5085397023449
 10
522.344424747781
 20
-351.3994892568207
 10
510.0542210010435
 20
-356.6859681127116
 10
504.3843984992063
 20
-359.1247291370837
 10
499.0008224776639
 20
-362.2772435868737
 10
493.648680790343
 20
-365.383964809067
 10
491.3112081761683
 20
-366.7407638118657
 10
489.1406868036311
 20
-368.7472057214527
 10
489.9575137989586
 20
-371.993945558208
 10
490.7103078913015
 20
-374.9864941739452
 10
493.3790440569928
 20
-375.6043146683387
 10
495.879975208999
 20
-375.8519085599346
 10
501.274184573208
 20
-376.3860593943955
 10
506.6961803365339
 20
-376.6473136386321
 10
512.1090950699872
 20
-376.9807504280634
 10
514.1490669360473
 20
-377.1064877648587
 10
516.1957913627875
 20
-377.1222437397682
 10
519.6919878664949
 20
-377.2349416490524
 10
517.1431678645995
 20
-379.7837616509405
 10
515.5702869200495
 20
-381.3793839780174
 10
513.9732675114419
 20
-382.9503245315736
 10
498.8702729711977
 20
-397.8063461053443
 10
483.7605258702561
 20
-412.6554598871753
 10
468.6569104048876
 20
-427.5109381514794
 10
472.9318246246876
 20
-431.4446540178487
 10
476.6189556027812
 20
-435.8393291701668
 10
479.7981698327285
 20
-440.5561092284752
 10
496.3839335595048
 20
-423.7366448096709
 10
513.013239660313
 20
-406.8918776922164
 10
529.8160943321645
 20
-390.0331397595746
 10
530.3304531784288
 20
-393.3517516789634
 10
530.641847126105
 20
-395.3983984900569
 10
530.9658924230844
 20
-397.4430272945265
 10
531.6336973896305
 20
-401.6556161554054
 10
531.9504468164678
 20
-405.9647588724383
 10
533.0665597196321
 20
-410.0554911785275
 10
534.6208905262301
 20
-415.7516253823287
 10
539.5638425594871
 20
-416.9234663150146
 10
543.6736683130148
 20
-412.7586886883746
 10
545.2890826282965
 20
-411.1216972251877
 10
546.645959246729
 20
-409.1668697161931
 10
547.8401534837358
 20
-407.1875156649676
 10
555.2527575660861
 20
-394.9018136253599
 10
562.8932411674723
 20
-382.7383562187297
 10
569.8412380287955
 20
-370.1927194007712
 10
574.8060000569021
 20
-361.2281905966647
 10
578.931271322781
 20
-351.7861703752842
 10
583.1703271169063
 20
-342.4386083877926
 10
584.7008299220215
 20
-339.0637251294047
 10
585.6010937303508
 20
-335.2726668093619
 10
582.4790822270843
 20
-332.0915121883972
 97
        0
 97
        0
 92
        1
 93
        1
 72
     4
 94
        3
 73
     0
 74
     1
 95
       20
 96
       16
 40
0.0
 40
0.0
 40
0.0
 40
0.0
 40
1.0
 40
1.0
 40
1.0
 40
2.0
 40
2.0
 40
2.0
 40
3.0
 40
3.0
 40
3.0
 40
4.0
 40
4.0
 40
4.0
 40
5.0
 40
5.0
 40
5.0
 40
5.0
 10
540.661250093427
 20
-395.6431982186168
 10
540.4596822763478
 20
-389.6990044293761
 10
539.9429173452381
 20
-383.7444101443816
 10
540.138663989309
 20
-377.8133333983151
 10
540.3687167462658
 20
-370.8370068283966
 10
537.7327343806637
 20
-367.6816982155633
 10
530.8729088863756
 20
-367.6751008861593
 10
523.7431361961744
 20
-367.6680378629153
 10
516.6132082746999
 20
-367.578935108204
 10
509.3220726689424
 20
-366.7399876554646
 10
530.0541415000362
 20
-357.9495507318807
 10
550.7862103311381
 20
-349.159191423927
 10
571.7758078557454
 20
-340.25970452613
 10
571.0015142311204
 20
-346.2726657724143
 10
548.3204390640458
 20
-388.0804854885046
 10
540.661250093427
 20
-395.6431982186168
 97
        0
 97
        0
 75
     2
 76
     1
 98
        0
  0
ENDBLK
  5
5B
330
58
100
AcDbEntity
  8
0
100
AcDbBlockEnd
  0
ENDSEC
  0
SECTION
  2
ENTITIES
  0
INSERT
  5
42
330
1F
100
AcDbEntity
  8
Layer 1
100
AcDbBlockReference
  2
block 2
 10
0.0
 20
0.0
 30
0.0
  0
ENDSEC
  0
SECTION
  2
OBJECTS
  0
DICTIONARY
  5
C
330
0
100
AcDbDictionary
281
     1
  3
ACAD_GROUP
350
D
  3
ACAD_LAYOUT
350
1A
  3
ACAD_MATERIAL
350
3B
  3
ACAD_MLEADERSTYLE
350
68
  3
ACAD_MLINESTYLE
350
17
  3
ACAD_PLOTSETTINGS
350
19
  3
ACAD_PLOTSTYLENAME
350
E
  3
ACAD_TABLESTYLE
350
67
  3
ACAD_VISUALSTYLE
350
2A
  0
SUN
  5
3F
330
29
100
AcDbSun
 90
        1
290
     0
 63
     7
421
 16777215
 40
1.0
291
     1
 91
  2455826
 92
 54000000
292
     0
 70
     2
 71
   256
280
     1
  0
DICTIONARY
  5
D
102
{ACAD_REACTORS
330
C
102
}
330
C
100
AcDbDictionary
281
     1
  0
DICTIONARY
  5
1A
102
{ACAD_REACTORS
330
C
102
}
330
C
100
AcDbDictionary
281
     1
  3
Layout1
350
1E
  3
Layout2
350
26
  3
Model
350
22
  0
DICTIONARY
  5
3B
102
{ACAD_REACTORS
330
C
102
}
330
C
100
AcDbDictionary
281
     1
  3
ByBlock
350
3D
  3
ByLayer
350
3C
  3
Global
350
3E
  0
DICTIONARY
  5
68
102
{ACAD_REACTORS
330
C
102
}
330
C
100
AcDbDictionary
281
     1
  0
DICTIONARY
  5
17
102
{ACAD_REACTORS
330
C
102
}
330
C
100
AcDbDictionary
281
     1
  3
Standard
350
18
  0
DICTIONARY
  5
19
102
{ACAD_REACTORS
330
C
102
}
330
C
100
AcDbDictionary
281
     1
  0
ACDBDICTIONARYWDFLT
  5
E
102
{ACAD_REACTORS
330
C
102
}
330
C
100
AcDbDictionary
281
     1
  3
Normal
350
F
100
AcDbDictionaryWithDefault
340
F
  0
DICTIONARY
  5
67
102
{ACAD_REACTORS
330
C
102
}
330
C
100
AcDbDictionary
281
     1
  0
DICTIONARY
  5
2A
102
{ACAD_REACTORS
330
C
102
}
330
C
100
AcDbDictionary
281
     1
  3
2dWireframe
350
2F
  3
3D Hidden
350
31
  3
3dWireframe
350
30
  3
Basic
350
32
  3
Brighten
350
36
  3
ColorChange
350
3A
  3
Conceptual
350
34
  3
Dim
350
35
  3
Facepattern
350
39
  3
Flat
350
2B
  3
FlatWithEdges
350
2C
  3
Gouraud
350
2D
  3
GouraudWithEdges
350
2E
  3
Linepattern
350
38
  3
Realistic
350
33
  3
Thicken
350
37
  0
LAYOUT
  5
1E
102
{ACAD_REACTORS
330
1A
102
}
330
1A
100
AcDbPlotSettings
  1

  2
none_device
  4

  6

 40
0.0
 41
0.0
 42
0.0
 43
0.0
 44
0.0
 45
0.0
 46
0.0
 47
0.0
 48
0.0
 49
0.0
140
0.0
141
0.0
142
1.0
143
1.0
 70
   688
 72
     0
 73
     0
 74
     5
  7

 75
    16
 76
     0
 77
     2
 78
   300
147
1.0
148
0.0
149
0.0
100
AcDbLayout
  1
Layout1
 70
     1
 71
     1
 10
0.0
 20
0.0
 11
12.0
 21
9.0
 12
0.0
 22
0.0
 32
0.0
 14
1.000000000000000E+20
 24
1.000000000000000E+20
 34
1.000000000000000E+20
 15
-1.000000000000000E+20
 25
-1.000000000000000E+20
 35
-1.000000000000000E+20
146
0.0
 13
0.0
 23
0.0
 33
0.0
 16
1.0
 26
0.0
 36
0.0
 17
0.0
 27
1.0
 37
0.0
 76
     0
330
1B
  0
LAYOUT
  5
26
102
{ACAD_REACTORS
330
1A
102
}
330
1A
100
AcDbPlotSettings
  1

  2
none_device
  4

  6

 40
0.0
 41
0.0
 42
0.0
 43
0.0
 44
0.0
 45
0.0
 46
0.0
 47
0.0
 48
0.0
 49
0.0
140
0.0
141
0.0
142
1.0
143
1.0
 70
   688
 72
     0
 73
     0
 74
     5
  7

 75
    16
 76
     0
 77
     2
 78
   300
147
1.0
148
0.0
149
0.0
100
AcDbLayout
  1
Layout2
 70
     1
 71
     2
 10
0.0
 20
0.0
 11
0.0
 21
0.0
 12
0.0
 22
0.0
 32
0.0
 14
0.0
 24
0.0
 34
0.0
 15
0.0
 25
0.0
 35
0.0
146
0.0
 13
0.0
 23
0.0
 33
0.0
 16
1.0
 26
0.0
 36
0.0
 17
0.0
 27
1.0
 37
0.0
 76
     0
330
23
  0
LAYOUT
  5
22
102
{ACAD_REACTORS
330
1A
102
}
330
1A
100
AcDbPlotSettings
  1

  2
none_device
  4

  6

 40
0.0
 41
0.0
 42
0.0
 43
0.0
 44
0.0
 45
0.0
 46
0.0
 47
0.0
 48
0.0
 49
0.0
140
0.0
141
0.0
142
1.0
143
1.0
 70
  1712
 72
     0
 73
     0
 74
     0
  7

 75
     0
 76
     0
 77
     2
 78
   300
147
1.0
148
0.0
149
0.0
100
AcDbLayout
  1
Model
 70
     1
 71
     0
 10
0.0
 20
0.0
 11
12.0
 21
9.0
 12
0.0
 22
0.0
 32
0.0
 14
1.000000000000000E+20
 24
1.000000000000000E+20
 34
1.000000000000000E+20
 15
-1.000000000000000E+20
 25
-1.000000000000000E+20
 35
-1.000000000000000E+20
146
0.0
 13
0.0
 23
0.0
 33
0.0
 16
1.0
 26
0.0
 36
0.0
 17
0.0
 27
1.0
 37
0.0
 76
     0
330
1F
331
29
  0
MATERIAL
  5
3D
102
{ACAD_REACTORS
330
3B
102
}
330
3B
100
AcDbMaterial
  1
ByBlock
 72
     1
 94
      127
  0
MATERIAL
  5
3C
102
{ACAD_REACTORS
330
3B
102
}
330
3B
100
AcDbMaterial
  1
ByLayer
 72
     1
 94
      127
  0
MATERIAL
  5
3E
102
{ACAD_REACTORS
330
3B
102
}
330
3B
100
AcDbMaterial
  1
Global
 72
     1
 94
      127
  0
MLINESTYLE
  5
18
102
{ACAD_REACTORS
330
17
102
}
330
17
100
AcDbMlineStyle
  2
Standard
 70
     0
  3

 62
   256
 51
90.0
 52
90.0
 71
     2
 49
0.5
 62
   256
  6
BYLAYER
 49
-0.5
 62
   256
  6
BYLAYER
  0
ACDBPLACEHOLDER
  5
F
102
{ACAD_REACTORS
330
E
102
}
330
E
  0
VISUALSTYLE
  5
2F
102
{ACAD_REACTORS
330
2A
102
}
330
2A
100
AcDbVisualStyle
  2
2dWireframe
 70
     4
177
     2
291
     0
 71
     0
176
     1
 72
     2
176
     1
 73
     0
176
     1
 90
        0
176
     1
 40
-0.6
176
     1
 41
-30.0
176
     1
 62
     5
 63
     7
421
 16777215
176
     1
 74
     1
176
     1
 91
        4
176
     1
 64
     7
176
     1
 65
   257
176
     1
 75
     1
176
     1
175
     1
176
     1
 42
1.0
176
     1
 92
        0
176
     1
 66
   257
176
     1
 43
1.0
176
     1
 76
     1
176
     1
 77
     6
176
     1
 78
     2
176
     1
 67
     7
176
     1
 79
     5
176
     1
170
     0
176
     1
171
     0
176
     1
290
     0
176
     1
 93
        1
176
     1
 44
0.0
176
     1
173
     0
176
     1
  0
VISUALSTYLE
  5
31
102
{ACAD_REACTORS
330
2A
102
}
330
2A
100
AcDbVisualStyle
  2
3D Hidden
 70
     6
177
     2
291
     0
 71
     1
176
     1
 72
     2
176
     1
 73
     2
176
     1
 90
        0
176
     1
 40
-0.6
176
     1
 41
-30.0
176
     1
 62
     5
 63
     7
421
 16777215
176
     1
 74
     2
176
     1
 91
        2
176
     1
 64
     7
176
     1
 65
   257
176
     1
 75
     2
176
     1
175
     1
176
     1
 42
40.0
176
     1
 92
        0
176
     1
 66
   257
176
     1
 43
1.0
176
     1
 76
     1
176
     1
 77
     6
176
     1
 78
     2
176
     1
 67
     7
176
     1
 79
     3
176
     1
170
     0
176
     1
171
     0
176
     1
290
     0
176
     1
 93
        1
176
     1
 44
0.0
176
     1
173
     0
176
     1
  0
VISUALSTYLE
  5
30
102
{ACAD_REACTORS
330
2A
102
}
330
2A
100
AcDbVisualStyle
  2
3dWireframe
 70
     5
177
     2
291
     0
 71
     0
176
     1
 72
     2
176
     1
 73
     0
176
     1
 90
        0
176
     1
 40
-0.6
176
     1
 41
-30.0
176
     1
 62
     5
 63
     7
421
 16777215
176
     1
 74
     1
176
     1
 91
        4
176
     1
 64
     7
176
     1
 65
   257
176
     1
 75
     1
176
     1
175
     1
176
     1
 42
1.0
176
     1
 92
        0
176
     1
 66
   257
176
     1
 43
1.0
176
     1
 76
     1
176
     1
 77
     6
176
     1
 78
     2
176
     1
 67
     7
176
     1
 79
     5
176
     1
170
     0
176
     1
171
     0
176
     1
290
     0
176
     1
 93
        1
176
     1
 44
0.0
176
     1
173
     0
176
     1
  0
VISUALSTYLE
  5
32
102
{ACAD_REACTORS
330
2A
102
}
330
2A
100
AcDbVisualStyle
  2
Basic
 70
     7
177
     2
291
     1
 71
     1
176
     1
 72
     0
176
     1
 73
     1
176
     1
 90
        0
176
     1
 40
-0.6
176
     1
 41
-30.0
176
     1
 62
     5
 63
     7
421
 16777215
176
     1
 74
     0
176
     1
 91
        4
176
     1
 64
     7
176
     1
 65
   257
176
     1
 75
     1
176
     1
175
     1
176
     1
 42
1.0
176
     1
 92
        8
176
     1
 66
     7
176
     1
 43
1.0
176
     1
 76
     1
176
     1
 77
     6
176
     1
 78
     2
176
     1
 67
     7
176
     1
 79
     5
176
     1
170
     0
176
     1
171
     0
176
     1
290
     0
176
     1
 93
        1
176
     1
 44
0.0
176
     1
173
     0
176
     1
  0
VISUALSTYLE
  5
36
102
{ACAD_REACTORS
330
2A
102
}
330
2A
100
AcDbVisualStyle
  2
Brighten
 70
    12
177
     2
291
     1
 71
     2
176
     1
 72
     2
176
     1
 73
     0
176
     1
 90
        0
176
     1
 40
-0.6
176
     1
 41
-30.0
176
     1
 62
     5
 63
     7
421
 16777215
176
     1
 74
     1
176
     1
 91
        4
176
     1
 64
     7
176
     1
 65
   257
176
     1
 75
     1
176
     1
175
     1
176
     1
 42
1.0
176
     1
 92
        8
176
     1
 66
     7
176
     1
 43
1.0
176
     1
 76
     1
176
     1
 77
     6
176
     1
 78
     2
176
     1
 67
     7
176
     1
 79
     5
176
     1
170
     0
176
     1
171
     0
176
     1
290
     0
176
     1
 93
        1
176
     1
 44
50.0
176
     1
173
     0
176
     1
  0
VISUALSTYLE
  5
3A
102
{ACAD_REACTORS
330
2A
102
}
330
2A
100
AcDbVisualStyle
  2
ColorChange
 70
    16
177
     2
291
     1
 71
     2
176
     1
 72
     2
176
     1
 73
     3
176
     1
 90
        0
176
     1
 40
-0.6
176
     1
 41
-30.0
176
     1
 62
     5
 63
     8
421
  8421504
176
     1
 74
     1
176
     1
 91
        4
176
     1
 64
     7
176
     1
 65
   257
176
     1
 75
     1
176
     1
175
     1
176
     1
 42
1.0
176
     1
 92
        8
176
     1
 66
     8
424
  8421504
176
     1
 43
1.0
176
     1
 76
     1
176
     1
 77
     6
176
     1
 78
     2
176
     1
 67
     7
176
     1
 79
     5
176
     1
170
     0
176
     1
171
     0
176
     1
290
     0
176
     1
 93
        1
176
     1
 44
0.0
176
     1
173
     0
176
     1
  0
VISUALSTYLE
  5
34
102
{ACAD_REACTORS
330
2A
102
}
330
2A
100
AcDbVisualStyle
  2
Conceptual
 70
     9
177
     2
291
     0
 71
     3
176
     1
 72
     2
176
     1
 73
     0
176
     1
 90
        0
176
     1
 40
-0.6
176
     1
 41
-30.0
176
     1
 62
     5
 63
     7
421
 16777215
176
     1
 74
     2
176
     1
 91
        2
176
     1
 64
     7
176
     1
 65
   257
176
     1
 75
     1
176
     1
175
     1
176
     1
 42
40.0
176
     1
 92
        8
176
     1
 66
     7
176
     1
 43
1.0
176
     1
 76
     1
176
     1
 77
     6
176
     1
 78
     2
176
     1
 67
     7
176
     1
 79
     3
176
     1
170
     0
176
     1
171
     0
176
     1
290
     0
176
     1
 93
        1
176
     1
 44
0.0
176
     1
173
     0
176
     1
  0
VISUALSTYLE
  5
35
102
{ACAD_REACTORS
330
2A
102
}
330
2A
100
AcDbVisualStyle
  2
Dim
 70
    11
177
     2
291
     1
 71
     2
176
     1
 72
     2
176
     1
 73
     0
176
     1
 90
        0
176
     1
 40
-0.6
176
     1
 41
-30.0
176
     1
 62
     5
 63
     7
421
 16777215
176
     1
 74
     1
176
     1
 91
        4
176
     1
 64
     7
176
     1
 65
   257
176
     1
 75
     1
176
     1
175
     1
176
     1
 42
1.0
176
     1
 92
        8
176
     1
 66
     7
176
     1
 43
1.0
176
     1
 76
     1
176
     1
 77
     6
176
     1
 78
     2
176
     1
 67
     7
176
     1
 79
     5
176
     1
170
     0
176
     1
171
     0
176
     1
290
     0
176
     1
 93
        1
176
     1
 44
-50.0
176
     1
173
     0
176
     1
  0
VISUALSTYLE
  5
39
102
{ACAD_REACTORS
330
2A
102
}
330
2A
100
AcDbVisualStyle
  2
Facepattern
 70
    15
177
     2
291
     1
 71
     2
176
     1
 72
     2
176
     1
 73
     0
176
     1
 90
        0
176
     1
 40
-0.6
176
     1
 41
-30.0
176
     1
 62
     5
 63
     7
421
 16777215
176
     1
 74
     1
176
     1
 91
        4
176
     1
 64
     7
176
     1
 65
   257
176
     1
 75
     1
176
     1
175
     1
176
     1
 42
1.0
176
     1
 92
        8
176
     1
 66
     7
176
     1
 43
1.0
176
     1
 76
     1
176
     1
 77
     6
176
     1
 78
     2
176
     1
 67
     7
176
     1
 79
     5
176
     1
170
     0
176
     1
171
     0
176
     1
290
     0
176
     1
 93
        1
176
     1
 44
0.0
176
     1
173
     0
176
     1
  0
VISUALSTYLE
  5
2B
102
{ACAD_REACTORS
330
2A
102
}
330
2A
100
AcDbVisualStyle
  2
Flat
 70
     0
177
     2
291
     1
 71
     2
176
     1
 72
     1
176
     1
 73
     1
176
     1
 90
        2
176
     1
 40
-0.6
176
     1
 41
30.0
176
     1
 62
     5
 63
     7
421
 16777215
176
     1
 74
     0
176
     1
 91
        4
176
     1
 64
     7
176
     1
 65
   257
176
     1
 75
     1
176
     1
175
     1
176
     1
 42
1.0
176
     1
 92
        8
176
     1
 66
     7
176
     1
 43
1.0
176
     1
 76
     1
176
     1
 77
     6
176
     1
 78
     2
176
     1
 67
     7
176
     1
 79
     5
176
     1
170
     0
176
     1
171
     0
176
     1
290
     0
176
     1
 93
       13
176
     1
 44
0.0
176
     1
173
     0
176
     1
  0
VISUALSTYLE
  5
2C
102
{ACAD_REACTORS
330
2A
102
}
330
2A
100
AcDbVisualStyle
  2
FlatWithEdges
 70
     1
177
     2
291
     1
 71
     2
176
     1
 72
     1
176
     1
 73
     1
176
     1
 90
        2
176
     1
 40
-0.6
176
     1
 41
30.0
176
     1
 62
     5
 63
     7
421
 16777215
176
     1
 74
     1
176
     1
 91
        4
176
     1
 64
     7
176
     1
 65
   257
176
     1
 75
     1
176
     1
175
     1
176
     1
 42
1.0
176
     1
 92
        0
176
     1
 66
   257
176
     1
 43
1.0
176
     1
 76
     1
176
     1
 77
     6
176
     1
 78
     2
176
     1
 67
     7
176
     1
 79
     5
176
     1
170
     0
176
     1
171
     0
176
     1
290
     0
176
     1
 93
       13
176
     1
 44
0.0
176
     1
173
     0
176
     1
  0
VISUALSTYLE
  5
2D
102
{ACAD_REACTORS
330
2A
102
}
330
2A
100
AcDbVisualStyle
  2
Gouraud
 70
     2
177
     2
291
     1
 71
     2
176
     1
 72
     2
176
     1
 73
     1
176
     1
 90
        2
176
     1
 40
-0.6
176
     1
 41
30.0
176
     1
 62
     5
 63
     7
421
 16777215
176
     1
 74
     0
176
     1
 91
        4
176
     1
 64
     7
176
     1
 65
   257
176
     1
 75
     1
176
     1
175
     1
176
     1
 42
1.0
176
     1
 92
        0
176
     1
 66
     7
176
     1
 43
1.0
176
     1
 76
     1
176
     1
 77
     6
176
     1
 78
     2
176
     1
 67
     7
176
     1
 79
     5
176
     1
170
     0
176
     1
171
     0
176
     1
290
     0
176
     1
 93
       13
176
     1
 44
0.0
176
     1
173
     0
176
     1
  0
VISUALSTYLE
  5
2E
102
{ACAD_REACTORS
330
2A
102
}
330
2A
100
AcDbVisualStyle
  2
GouraudWithEdges
 70
     3
177
     2
291
     1
 71
     2
176
     1
 72
     2
176
     1
 73
     1
176
     1
 90
        2
176
     1
 40
-0.6
176
     1
 41
30.0
176
     1
 62
     5
 63
     7
421
 16777215
176
     1
 74
     1
176
     1
 91
        4
176
     1
 64
     7
176
     1
 65
   257
176
     1
 75
     1
176
     1
175
     1
176
     1
 42
1.0
176
     1
 92
        0
176
     1
 66
   257
176
     1
 43
1.0
176
     1
 76
     1
176
     1
 77
     6
176
     1
 78
     2
176
     1
 67
     7
176
     1
 79
     5
176
     1
170
     0
176
     1
171
     0
176
     1
290
     0
176
     1
 93
       13
176
     1
 44
0.0
176
     1
173
     0
176
     1
  0
VISUALSTYLE
  5
38
102
{ACAD_REACTORS
330
2A
102
}
330
2A
100
AcDbVisualStyle
  2
Linepattern
 70
    14
177
     2
291
     1
 71
     2
176
     1
 72
     2
176
     1
 73
     0
176
     1
 90
        0
176
     1
 40
-0.6
176
     1
 41
-30.0
176
     1
 62
     5
 63
     7
421
 16777215
176
     1
 74
     1
176
     1
 91
        4
176
     1
 64
     7
176
     1
 65
   257
176
     1
 75
     7
176
     1
175
     7
176
     1
 42
1.0
176
     1
 92
        8
176
     1
 66
     7
176
     1
 43
1.0
176
     1
 76
     1
176
     1
 77
     6
176
     1
 78
     2
176
     1
 67
     7
176
     1
 79
     5
176
     1
170
     0
176
     1
171
     0
176
     1
290
     0
176
     1
 93
        1
176
     1
 44
0.0
176
     1
173
     0
176
     1
  0
VISUALSTYLE
  5
33
102
{ACAD_REACTORS
330
2A
102
}
330
2A
100
AcDbVisualStyle
  2
Realistic
 70
     8
177
     2
291
     0
 71
     2
176
     1
 72
     2
176
     1
 73
     0
176
     1
 90
        0
176
     1
 40
-0.6
176
     1
 41
-30.0
176
     1
 62
     5
 63
     7
421
 16777215
176
     1
 74
     1
176
     1
 91
        0
176
     1
 64
     7
176
     1
 65
   257
176
     1
 75
     1
176
     1
175
     1
176
     1
 42
1.0
176
     1
 92
        8
176
     1
 66
     8
424
  7895160
176
     1
 43
1.0
176
     1
 76
     1
176
     1
 77
     6
176
     1
 78
     2
176
     1
 67
     7
176
     1
 79
     5
176
     1
170
     0
176
     1
171
     0
176
     1
290
     0
176
     1
 93
       13
176
     1
 44
0.0
176
     1
173
     0
176
     1
  0
VISUALSTYLE
  5
37
102
{ACAD_REACTORS
330
2A
102
}
330
2A
100
AcDbVisualStyle
  2
Thicken
 70
    13
177
     2
291
     1
 71
     2
176
     1
 72
     2
176
     1
 73
     0
176
     1
 90
        0
176
     1
 40
-0.6
176
     1
 41
-30.0
176
     1
 62
     5
 63
     7
421
 16777215
176
     1
 74
     1
176
     1
 91
        4
176
     1
 64
     7
176
     1
 65
   257
176
     1
 75
     1
176
     1
175
     1
176
     1
 42
1.0
176
     1
 92
       12
176
     1
 66
     7
176
     1
 43
1.0
176
     1
 76
     1
176
     1
 77
     6
176
     1
 78
     2
176
     1
 67
     7
176
     1
 79
     5
176
     1
170
     0
176
     1
171
     0
176
     1
290
     0
176
     1
 93
        1
176
     1
 44
0.0
176
     1
173
     0
176
     1
  0
ENDSEC
  0
EOF
