<?xml version="1.0" encoding="utf-8"?>
<!-- Generator: Adobe Illustrator 22.0.0, SVG Export Plug-In . SVG Version: 6.00 Build 0)  -->
<svg version="1.1" id="Layer_1" xmlns="http://www.w3.org/2000/svg" xmlns:xlink="http://www.w3.org/1999/xlink" x="0px" y="0px"
	 viewBox="0 0 1080 1080" style="enable-background:new 0 0 1080 1080;" xml:space="preserve">
<style type="text/css">
	.st0{fill:#E43B40;}
</style>
<g>
	<g>
		<path d="M451.6,398.9c-5.1,1.1-8.5,2.3-10.3,3.6c-1.8,1.3-3.1,3-3.8,5.2c-0.7,2.2-1.1,6-1.1,11.6v95.9c0,4.5,0.3,8.1,0.9,10.7
			c0.6,2.6,1.7,4.6,3.5,6c1.8,1.4,5.4,2.6,10.8,3.7v7.3h-73.4v-7.3c4.2-0.9,7.1-1.7,8.7-2.3c1.6-0.7,2.9-1.5,3.8-2.6
			c0.9-1.1,1.6-2.7,2-4.9c0.4-2.2,0.6-5.8,0.6-10.8v-54.3c0-6,0.1-13,0.4-21.2c0.3-8.1,0.6-13.9,0.9-17.3h-3c-1.1,3-2.4,5.9-3.6,8.7
			c-1.3,2.8-3.7,7.9-7.2,15.2l-38.3,80h-25.2l-40.4-89.9c-2.4-5.1-4.5-10.2-6.3-15.2H268c1,12.2,1.4,26.6,1.4,43.2v51
			c0,5.5,0.3,9.3,1,11.4c0.7,2.1,2,3.9,4,5.3c2,1.4,5.5,2.6,10.4,3.5v7.3h-54.1v-7.3c3.5-0.7,6.3-1.6,8.4-2.4c2-0.9,3.6-2.1,4.6-3.5
			c1-1.5,1.7-3.4,1.9-5.7c0.2-2.3,0.4-5.2,0.4-8.8v-95.9c0-5.6-0.3-9.5-0.9-11.5c-0.6-2.1-1.8-3.8-3.6-5.1
			c-1.8-1.3-5.4-2.6-10.7-3.8v-7.3h71.1l39.6,91l42.9-91h67.1V398.9z"/>
		<path d="M538.9,515.1c0,2.6,0.1,5,0.3,7.2c0.2,2.2,0.6,4,1.1,5.4c0.6,1.4,1.4,2.6,2.5,3.5c1.1,1,2.6,1.8,4.5,2.5
			c1.9,0.7,4.2,1.3,7,1.8v7.3h-75.1v-7.3c3.5-0.7,6.3-1.5,8.4-2.4c2.1-0.8,3.6-2,4.6-3.5c1-1.5,1.6-3.4,1.9-5.8
			c0.3-2.3,0.4-5.3,0.4-8.8v-95.7c0-3.5-0.1-6.5-0.4-8.8c-0.2-2.3-0.9-4.2-1.9-5.7c-1-1.5-2.5-2.7-4.6-3.6c-2.1-0.9-4.9-1.7-8.5-2.4
			v-7.3h75.1v7.3c-3.9,0.8-6.8,1.7-8.7,2.6c-1.9,0.9-3.3,2.1-4.2,3.4c-1,1.3-1.6,3.1-2,5.2c-0.4,2.1-0.6,5.3-0.6,9.4V515.1z"/>
		<path d="M599.5,505.5c2.4,8.8,6.4,15.4,11.9,19.7c5.6,4.3,13.8,6.5,24.5,6.5c5.6,0,10.7-0.7,15.2-2.2c4.5-1.5,8.1-3.9,10.8-7.2
			c2.7-3.3,4.1-7.4,4.1-12.4c0-4.6-1.1-8.6-3.3-11.9c-2.2-3.4-5.7-6.6-10.6-9.6c-4.9-3-11.6-6.2-20.3-9.6c-7.4-2.9-14.2-5.9-20.2-9
			c-6-3.1-11.1-6.5-15.4-10.3c-4.2-3.7-7.5-7.8-9.9-12.3c-2.3-4.4-3.5-9.4-3.5-15c0-9.1,2.9-16.8,8.7-23.2
			c5.8-6.4,14.2-11.2,25.3-14.5c11-3.3,23.8-4.9,38.3-4.9c8.5,0,16.6,0.4,24.3,1.1c7.7,0.7,16.5,1.9,26.5,3.7v32.2h-19.6
			c-1.8-5.8-4.1-10.5-6.9-13.9c-2.8-3.4-6.3-6-10.5-7.6c-4.2-1.6-9.5-2.4-15.9-2.4c-5.4,0-10.3,0.7-14.6,2.2
			c-4.3,1.5-7.7,3.7-10.2,6.6c-2.5,2.9-3.7,6.4-3.7,10.6c0,4.3,1.1,8,3.2,11.1c2.1,3.1,5.7,6.2,10.8,9.2s12.4,6.4,22,10.3
			c11.7,4.7,21,9.4,27.7,13.9c6.7,4.5,11.7,9.5,14.9,14.9c3.2,5.4,4.8,11.6,4.8,18.7c0,9.1-2.7,17-8.2,23.7
			c-5.4,6.7-13.4,11.8-23.8,15.4c-10.4,3.6-22.4,5.4-36.1,5.4c-9.7,0-19.9-0.4-30.4-1.3c-10.5-0.8-20.4-2.1-29.7-3.7v-34.1H599.5z"
			/>
		<path d="M749.9,505.5c2.4,8.8,6.4,15.4,11.9,19.7c5.6,4.3,13.8,6.5,24.5,6.5c5.6,0,10.7-0.7,15.2-2.2c4.5-1.5,8.1-3.9,10.8-7.2
			c2.7-3.3,4.1-7.4,4.1-12.4c0-4.6-1.1-8.6-3.3-11.9c-2.2-3.4-5.7-6.6-10.6-9.6c-4.9-3-11.6-6.2-20.3-9.6c-7.4-2.9-14.2-5.9-20.2-9
			c-6-3.1-11.1-6.5-15.4-10.3c-4.2-3.7-7.5-7.8-9.9-12.3c-2.3-4.4-3.5-9.4-3.5-15c0-9.1,2.9-16.8,8.7-23.2
			c5.8-6.4,14.2-11.2,25.3-14.5c11-3.3,23.8-4.9,38.3-4.9c8.5,0,16.6,0.4,24.3,1.1c7.7,0.7,16.5,1.9,26.5,3.7v32.2h-19.6
			c-1.8-5.8-4.1-10.5-6.9-13.9c-2.8-3.4-6.3-6-10.5-7.6c-4.2-1.6-9.5-2.4-15.9-2.4c-5.4,0-10.3,0.7-14.6,2.2
			c-4.3,1.5-7.7,3.7-10.2,6.6c-2.5,2.9-3.7,6.4-3.7,10.6c0,4.3,1.1,8,3.2,11.1c2.1,3.1,5.7,6.2,10.8,9.2s12.4,6.4,22,10.3
			c11.7,4.7,21,9.4,27.7,13.9c6.7,4.5,11.7,9.5,14.9,14.9c3.2,5.4,4.8,11.6,4.8,18.7c0,9.1-2.7,17-8.2,23.7
			c-5.4,6.7-13.4,11.8-23.8,15.4c-10.4,3.6-22.4,5.4-36.1,5.4c-9.7,0-19.9-0.4-30.4-1.3c-10.5-0.8-20.4-2.1-29.7-3.7v-34.1H749.9z"
			/>
	</g>
	<g>
		<g>
			<path class="st0" d="M194.6,593.1c-0.7,1.2-1.2,1.9-1.6,1.9c-0.1,0-0.2,0-0.3-0.1c-0.1-0.1-0.2-0.1-0.3-0.1
				c-0.5-0.1-0.7-0.7-0.5-1.6c0.2-1,0.7-2,1.3-3.1c0.7-0.8,1.7-2,3-3.5c1.3-1.5,2.7-3,4.2-4.3c1.5-1.4,3-2.6,4.5-3.6
				c1.5-1,2.7-1.5,3.7-1.5c0.7,0,1,0.4,1,1.2c0,0.8-0.5,1.4-1.4,1.9c-1,0.5-2.2,1.4-3.6,2.6c-1.4,1.2-2.8,2.4-4.1,3.6
				c-1.3,1.2-2.5,2.5-3.6,3.7C195.8,591.2,195,592.3,194.6,593.1z M250,598.9c0.4,1.5,0.7,2.8,0.8,3.9c0.1,1.1,0.2,2.8,0.2,5.1
				c0,3.7-0.7,7.1-2.1,10.1c-1.4,3-4.2,4.5-8.4,4.5c-3.3,0-5.9-1.4-7.8-4.1c-0.7-1.1-1.1-2-1.2-2.7c-0.1-0.7-0.3-2.3-0.4-4.9
				c-0.3-2.7-0.4-4.4-0.5-4.9c-0.1-0.5-0.4-1.1-1.1-1.6c-0.7-0.7-1.4-1-2.3-1c-3.2,0-5.5,1.4-7,4.2c-1.5,2.8-2.3,5.5-2.3,8.1
				c0,1.4,0.1,2.6,0.3,3.6c0.2,1,0.7,2.1,1.3,3.3c0.7,1.2,1.8,2.6,3.4,4.2c1.6,1.6,3.7,3.8,6.3,6.6c2.6,2.7,4.9,5.3,7,7.6
				c2.1,2.3,3.4,4,4.1,4.9c4,6,5.9,12.1,5.9,18.2c-0.1,6.1-2.1,11.8-6.1,17c-1.8,2.2-4.2,4.3-7.2,6.2c-3,1.9-6,3.2-9.1,3.9
				c-1.1,0.3-2.3,0.5-3.7,0.6c-1.4,0.1-2.7,0.2-4.1,0.2c-1.6,0-2.7-0.1-3.3-0.2c-4-0.7-7.7-2.2-11-4.6c-3.4-2.4-5.8-5.2-7.3-8.3
				c-1.4-3-1.3-6,0.1-9.1c1.4-3,3.7-5,6.9-6c0.7-0.3,1.7-0.4,3.1-0.4c2.7,0,5.6,1.3,8.6,3.9c1.5,1.5,3,2.3,4.3,2.3
				c0.8,0,1.7-0.2,2.7-0.6c1.9-0.8,3.1-2.1,3.4-3.9c0.3-1.8-0.1-3.8-1.3-6c-1.1-1.8-4.3-5.4-9.7-10.7c-4.7-4.7-8.1-8.4-10.2-11.3
				c-2.1-2.9-3.8-5.9-5-9.1c-2.7-8-2.8-15.9-0.2-23.7c2.2-6.6,5.8-12,10.9-16.3c5.1-4.3,11.1-6.4,18.1-6.4
				C237.9,581.6,245.9,587.3,250,598.9z"/>
			<path class="st0" d="M332.4,650.1c0.5,1.4,0.8,3.1,0.6,5.3c-0.1,2.1-0.5,4.4-1.2,6.9c-0.7,2.5-1.6,5-2.8,7.7
				c-1.2,2.7-2.5,5.2-4,7.5c-2.7,4-6.1,7.3-10.1,10.1c-4,2.7-8.4,4.1-13.4,4.1c-5.6,0-10.6-1.6-14.9-4.9c-4.3-3.3-7.7-7.3-10-12.2
				c-3-6-5.2-13.9-6.6-23.7c-1.4-9.7-1.7-20.5-1-32.3c0.1-3,0.3-6.1,0.6-9.4c0.3-3.2,0.5-5.7,0.8-7.5c0.1-0.8,0.2-1.6,0.3-2.4
				c0.1-0.8,0.1-1.4,0.1-2c0.1-0.7,0.2-1.3,0.2-1.9h-0.6c-0.4,0-1,0-1.9,0.1c-0.8,0.1-1.8,0.2-2.9,0.3c-0.8,0.1-1.6,0.2-2.3,0.2
				c-0.7,0-1.3,0-1.9,0c-2.9,0-5.1-0.8-6.8-2.3c-2.3-2.1-3.4-4.7-3.3-7.8c0.1-3.2,1.4-5.6,3.9-7.4c1.1-0.8,2.9-1.5,5.5-2.2
				c2.5-0.6,5.6-1.1,9.2-1.5l5.8-0.4l0.6-3.3c1.6-5.8,5-8.7,10.1-8.7c5.9,0,9.1,3.2,9.5,9.5l0.4,2.9l5.6,0.6c3.4,0.5,5.8,1,7.1,1.3
				c1.3,0.3,2.5,0.9,3.6,1.8c1.8,1.2,3.1,2.7,3.9,4.4c0.8,1.7,1.2,3.5,1.1,5.4c-0.1,1.9-0.6,3.6-1.5,5.1c-1,1.6-2.4,2.9-4.3,3.8
				c-1.6,0.8-3.3,1.2-4.9,1.2c-1,0-2.1-0.1-3.3-0.2c-1.2-0.1-2.8-0.3-4.7-0.6c-1.4-0.4-2.7-0.6-4.1-0.6c-0.5-0.1-1.1-0.2-1.6-0.2
				c-0.1,0.1-0.3,1.5-0.6,4c-0.3,2.5-0.5,5.5-0.7,9c-0.2,3.4-0.4,6.9-0.5,10.3c-0.1,3.4-0.2,6.2-0.2,8.2c0,8.4,0.6,16,1.9,22.8
				c1.2,6.8,2.8,11.8,4.7,14.9c1.2,2.1,2.5,3.1,3.7,3.1c1.1,0,2.2-0.6,3.2-1.9c1-1.2,2-2.7,2.9-4.4c0.9-1.7,1.6-3.4,2.3-5
				c0.6-1.6,1-2.9,1.1-3.7c0.4-2.2,0.9-3.9,1.4-5c0.5-1.2,1.4-2.3,2.5-3.4c2.2-1.9,4.6-2.9,7.2-2.9c2.3,0,4.5,0.7,6.5,2
				C330.4,646.2,331.7,647.9,332.4,650.1z M283.6,693.4c2.2,1,2.8,1.9,1.9,2.9c-0.1,0.4-0.5,0.6-1,0.6c-0.4,0-1.4-0.4-2.9-1.2
				c-2.7-1.5-5.2-3.5-7.4-5.9c-2.2-2.4-4.3-5.6-6.2-9.6c-1.2-2.3-2-4-2.2-5c-0.2-1,0-1.7,0.7-2c0.5-0.1,1,0,1.3,0.4
				c0.3,0.4,0.8,1.3,1.3,2.7c1.4,3.6,3.3,6.8,5.8,9.8C277.4,689,280.3,691.5,283.6,693.4z"/>
			<path class="st0" d="M367,646.6c-0.7-0.3-1.3-0.4-1.9-0.4c-0.1,0-0.2,0.1-0.2,0.4c1.1,3,3.1,5.8,6.1,8.2c3,2.5,6,3.9,9.2,4.3
				c1.1,0,1.9,0,2.5-0.1c0.5-0.1,1.2-0.4,2.1-0.9c1.4-0.7,2.5-1.7,3.3-3.1c2.6-3.4,5.8-5.1,9.5-5.1c2.9,0,5.4,1,7.4,3.1
				c2.7,2.6,3.9,5.5,3.6,8.8c-0.3,3.2-2.1,6.6-5.3,10c-6.5,6.6-14.4,9.9-23.9,9.9c-5.1,0-9.9-1.2-14.4-3.6
				c-4.5-2.4-8.5-5.6-11.9-9.5c-3.4-3.9-6.2-8.3-8.2-13.1c-2.1-4.8-3.2-9.7-3.3-14.6c-0.3-4.4,0-8.5,0.8-12.5
				c0.8-3.9,2.3-8.1,4.3-12.5c2.1-4.4,4.7-8.5,7.8-12.3c3.2-3.8,6.7-7,10.5-9.7c3.8-2.7,7.9-4.8,12-6.3c4.2-1.5,8.3-2.3,12.3-2.3
				c1,0,1.9,0,2.7,0.1c0.8,0.1,1.6,0.2,2.5,0.3c7.5,1.4,13.2,5,16.9,11c3.7,6,4.6,12.7,2.7,20.3c-1.6,6.6-5.3,12.6-10.8,17.9
				c-5.6,5.4-11.8,8.9-18.6,10.7c-1.5,0.4-3.4,0.7-5.6,0.9c-2.2,0.2-4.3,0.3-6.2,0.3c-1.2,0-2.3,0-3.3,0
				C368.5,647,367.7,646.9,367,646.6z M397.9,683.3c1.1,0.8,0.6,2-1.4,3.5c-3,2.3-7.1,3.6-12.4,3.7c-1.2,0-2.4,0-3.6,0
				c-1.2,0-1.9-0.1-2.2-0.2c-0.3-0.1-0.8-0.3-1.6-0.5c-0.8-0.2-1.8-0.4-2.9-0.7c-0.4-0.1-1.2-0.3-2.4-0.6c-1.2-0.3-2.3-0.7-3.5-1.1
				c-1.2-0.5-2.2-1-3.1-1.4c-0.9-0.5-1.3-1-1.3-1.5c0-0.7,0.3-1,0.8-1c0.7,0,2.4,0.5,5.1,1.4c4.9,1.9,9.5,2.9,13.8,2.9
				c4.1,0,7.9-1.1,11.3-3.3c1.4-1,2.3-1.4,2.7-1.4C397.4,682.9,397.6,683,397.9,683.3z M365.8,627.5l4.9-0.2c4.8-0.3,8.8-1.3,12-3.1
				c3.2-1.8,6-4.9,8.3-9.5c1.6-3.3,1.9-5.4,0.8-6.2c-0.4-0.4-1.2-0.6-2.5-0.6c-0.8,0-1.7,0.1-2.6,0.2c-0.9,0.1-1.8,0.3-2.6,0.6
				c-3.6,1.2-7,3.4-10.3,6.6c-3.3,3.2-5.7,6.6-7.2,10.3L365.8,627.5z"/>
			<path class="st0" d="M497.8,616.4c0.3,1.2,0.4,2.8,0.5,4.7c0.1,1.9,0.1,3.9,0.2,6c0.1,2.1,0.1,4.1,0,6.1c-0.1,2-0.2,3.7-0.5,5.3
				c-0.4,3.4-1,7.4-1.8,12c-0.8,4.6-1.5,9-2.2,13.3c-0.7,4.3-1.3,7.9-1.9,11c-0.5,3.1-0.9,4.8-1,5.3c-0.7,2.2-2,4-3.9,5.4
				c-1.9,1.4-4.1,2.1-6.4,2.1c-2.2,0-4.2-0.5-6-1.6c-1.8-1.1-3.1-2.7-3.9-4.9l-0.8-1.6l-3.3,1.2c-3.7,1.2-7.6,1.9-11.5,1.9
				c-4.4,0-8.7-0.8-12.8-2.4c-4.1-1.6-7.8-3.7-10.9-6.5c-3.2-2.7-5.7-6-7.6-9.9c-1.9-3.8-2.9-8.1-2.9-12.8c0-5.4,1.2-10.4,3.6-15.1
				c2.4-4.7,5.6-8.9,9.5-12.6c3.9-3.6,8.3-6.5,13.3-8.5c4.9-2.1,10-3.1,15.2-3.1c2.5,0,5.2,0.3,8.2,1c0.5,0.1,1.1,0.2,1.6,0.2
				c0.8,0,0.6-0.9-0.6-2.7c-1.8-2.3-4.1-4.2-7-5.5c-2.9-1.3-6-2-9.3-2c-3.4,0-7,0.8-10.7,2.3c-2.5,1.1-4.6,1.6-6.4,1.6
				c-3,0-5.5-1.2-7.4-3.7c-1.9-2.7-2.4-5.6-1.5-8.6c0.9-3,3.1-5.5,6.7-7.4c3.2-1.6,6.7-2.9,10.7-3.8c4-0.9,7.8-1.3,11.5-1.3
				c11.1,0,19.9,3.2,26.5,9.5C491.6,597.3,495.8,605.8,497.8,616.4z M451.6,687.2h6.8v1.2c0,0.7-0.5,1.2-1.4,1.4
				c-0.5,0.1-1.2,0.2-2,0.2c-0.8,0-1.6,0-2.6,0c-4.3,0-8.1-0.4-11.4-1.3c-3.4-0.9-6.8-2.7-10.4-5.5c-1.5-1.1-3.1-2.6-4.7-4.4
				c-1.6-1.9-2.4-3-2.3-3.4c0.1-0.5,0.4-0.8,0.8-0.8c0.8,0,2.2,1,4.1,2.9c3.4,3.6,6.9,6.1,10.5,7.5
				C442.6,686.5,446.8,687.2,451.6,687.2z M475.3,638l-2.5-2.3c-2.5-2.2-5.2-3.3-8.2-3.3c-2.2,0-4.5,0.5-6.8,1.4
				c-2.3,1-4.5,2.3-6.6,3.9c-2.1,1.6-3.8,3.5-5.1,5.6c-1.4,2.1-2.2,4.2-2.5,6.4c-0.1,1.2,0.1,2.6,0.6,4.1c2.1,3.8,5.8,5.8,11.3,5.8
				c2.7,0,5.1-0.6,7.2-1.8c2.1-1.2,4-2.7,6-4.6c2.3-2.2,3.8-3.9,4.5-5.1c0.7-1.2,1.2-3.2,1.6-5.8L475.3,638z"/>
			<path class="st0" d="M531.3,686.2c0.3-0.1,0.6-0.2,1-0.2c0.8,0,1.2,0.4,1.2,1.2c0,1.2-1.2,2.3-3.7,3.3c-2.5,1-5.1,1.4-7.8,1.4
				c-1.4,0-2.3-0.1-2.9-0.2c-1.4-0.3-2.9-0.8-4.5-1.6c-1.6-0.8-2.7-1.6-3.1-2.3c-0.5-0.8-0.5-1.4,0-1.9c0.3-0.3,0.5-0.4,0.8-0.4
				c0.1,0,0.7,0.3,1.6,0.8c2.3,1.8,5.2,2.7,8.7,2.7C525.7,689.1,528.6,688.1,531.3,686.2z M532.6,569.4c0.7,0.7,1.2,1.4,1.4,2.1
				c0.3,0.7,0.5,1.9,0.6,3.7c0.1,1.8,0.2,4.4,0.1,7.9c-0.1,3.5-0.2,8.3-0.3,14.5c-0.1,3.2-0.2,6.8-0.3,11c-0.1,4.2-0.1,8.5-0.2,13
				c-0.1,4.5-0.1,8.9-0.1,13.3c0,4.4,0,8.4,0,12.1c0,6,0,10.8-0.1,14.4c-0.1,3.6-0.1,6.3-0.2,8.2c-0.1,1.9-0.1,3.3-0.2,4
				c-0.1,0.8-0.2,1.3-0.3,1.8c-1,2.1-2.3,3.7-4.1,4.8c-1.8,1.2-3.8,1.8-6,1.8c-2.9,0-5.3-0.9-7.2-2.7c-1.9-1.8-3.2-4-3.9-6.8
				c-0.1-0.7-0.2-2.4-0.3-5c-0.1-2.7-0.1-6-0.2-9.9c-0.1-3.9-0.1-8.2-0.1-12.8c0-4.6,0-9.1,0.1-13.4c0.1-4.3,0.1-8.3,0.2-11.8
				c0.1-3.6,0.2-6.3,0.3-8.2c0.1-2.1,0.3-3.9,0.4-5.5c0.1-1.6,0.3-3.4,0.5-5.5c0.2-2.1,0.4-4.5,0.7-7.4c0.3-2.9,0.7-6.7,1.2-11.3
				c0.4-4.7,0.9-7.8,1.3-9.3c0.5-1.5,1.3-2.9,2.6-4.1c1.9-1.6,4.1-2.5,6.6-2.5C528.2,565.9,530.6,567.1,532.6,569.4z"/>
			<path class="st0" d="M659.4,615.8c0.4,4.3,0.7,8.1,0.9,11.6c0.2,3.5,0.3,6.9,0.2,10.2c-0.1,3.3-0.2,6.6-0.5,9.8
				c-0.3,3.2-0.6,6.6-1,10.2c-1.8,14.3-5.1,25.8-10.1,34.5c-4.9,8.7-11.9,15.3-20.8,19.7c-6,3-11.9,4.5-17.7,4.5
				c-3.2,0-6.2-0.6-9.1-1.6c-2.9-1.1-5.5-2.8-7.8-5.1c-4.5-4.3-6.2-8.8-4.9-13.6c0.7-2.2,2.1-4,4.2-5.5c2.1-1.4,4.4-2.2,6.7-2.2
				c2.9,0,5.6,1.2,8,3.7c0.7,0.7,1.2,1.1,1.6,1.3c0.4,0.2,1,0.3,1.6,0.3h1.4c4.9-0.6,9.2-2.8,12.7-6.7c3.5-3.9,6-8.1,7.5-12.5
				c0.4-1,0.9-2.3,1.3-4.1c0.5-1.8,1-3.6,1.4-5.5c0.5-1.9,0.9-3.6,1.1-5.3c0.3-1.6,0.4-2.8,0.4-3.5c0-0.7-0.1-1-0.2-1l-1.2,0.4
				c-1.2,0.7-3.1,1.3-5.6,1.8c-2.5,0.5-4.6,0.7-6.4,0.7c-5.5,0-10.6-1.5-15.3-4.6c-4.7-3.1-8.4-7.3-11-12.7
				c-2.3-4.8-3.9-10.7-4.8-17.6c-0.9-6.9-0.9-14.2-0.1-21.7c1-7.7,2.2-12.9,3.7-15.5c1.5-2.7,4-4.1,7.6-4.2c1.9,0,3.6,0.2,4.9,0.7
				c1.4,0.5,2.6,1.6,3.7,3.4c0.4,0.6,0.7,1,0.8,1.4c0.1,0.4,0.2,1.1,0.3,2.2c0.1,1,0.1,2.5,0,4.5c-0.1,2-0.2,4.8-0.3,8.3
				c-0.3,4.7-0.3,8.5,0,11.5c0.3,3,0.9,6.5,1.9,10.3c2.1,7.8,4.9,11.7,8.4,11.7c2.5,0,4.6-1,6.5-2.9c1.9-1.9,3.4-4.2,4.6-6.9
				c1.2-2.7,2.2-5.5,2.8-8.5c0.6-3,0.9-5.6,0.9-7.6c0-5.2,0.3-9.8,1-13.8c0.7-4,1.6-6.7,2.7-8.2c1.9-2.9,4.6-4.3,8-4.3
				c2.5,0,4.6,0.8,6.4,2.5c0.8,0.7,1.4,1.3,1.9,1.9c0.4,0.6,0.7,1.3,0.9,2.2c0.2,0.9,0.3,2,0.3,3.4c0,1.4-0.1,3.3-0.2,5.8
				c-0.1,3.2-0.2,6-0.1,8.4C659,610.1,659.2,612.8,659.4,615.8z M599.7,661.3c-1.5-1.2-3-2.7-4.3-4.3c-1.4-1.6-2.5-3.2-3.3-4.5
				c-0.8-1.4-1.3-2.5-1.4-3.5c-0.1-1,0.2-1.4,1-1.4c0.5,0,1.4,1.1,2.7,3.3c2.6,4,5.5,7.1,8.8,9.4c3.2,2.3,6.3,3.4,9.2,3.4
				c2.2,0,3.3,0.5,3.3,1.4c0,1.2-0.8,1.9-2.5,1.9c-0.4,0-0.9,0-1.5-0.1c-0.6-0.1-1.3-0.2-2-0.3C606.4,665.8,603.1,664.1,599.7,661.3
				z"/>
			<path class="st0" d="M685.8,594.1c-1.4,0.8-2.9,2-4.5,3.5c-1.6,1.5-3.2,3.1-4.7,4.7c-1.5,1.6-2.8,3.2-4,4.7
				c-1.2,1.5-1.9,2.7-2.2,3.7c-0.3,0.7-0.7,1-1.2,1c-0.5,0-0.9-0.2-1-0.6c-0.4-1.1,0.1-2.8,1.6-5.1c1.5-2.3,3.6-4.9,6.4-7.8
				c2.5-2.5,4.7-4.4,6.8-5.9c2.1-1.4,3.6-2.2,4.7-2.2c0.7,0,1,0.3,1,1C688.7,591.9,687.7,592.9,685.8,594.1z M735.4,612.4
				c3.6,6.3,5.1,13.6,4.7,21.8c-0.1,5.1-1.2,10.1-3.3,15.1c-2.1,5-4.8,9.5-8.2,13.5c-3.4,4-7.4,7.2-11.9,9.8s-9.5,3.9-14.8,4.2
				c-2.5,0-4.2,0-5.1-0.1c-1-0.1-2.1-0.4-3.5-0.9c-4.4-1.5-8.2-4.1-11.5-7.7c-3.3-3.6-5.7-7.6-7.2-11.8c-1.1-3.2-1.9-6.2-2.4-9.2
				c-0.5-3-0.7-6.6-0.5-10.8c0.3-6.6,1.7-13.1,4.2-19.7c2.5-6.5,6.6-11.8,12.3-15.8c1.2-1,2.8-1.9,4.6-2.7c1.9-0.8,4.5-1.9,7.9-3.3
				c0.5-0.1,1.4-0.3,2.5-0.4c1.1-0.1,2.3-0.2,3.7-0.2c6.2,0,11.7,1.5,16.6,4.5C728.3,601.9,732.3,606.4,735.4,612.4z M717.9,631.8
				c0-2.3-0.2-4.2-0.7-5.7c-0.5-1.4-1.3-3.1-2.6-4.8c-1.2-1.9-2.4-3.2-3.6-3.7c-1.2-0.5-3.1-0.9-5.9-1l-4.3-0.2l-1.4,1.6
				c-1.6,1.9-2.9,4.2-3.8,6.9c-0.9,2.7-1.5,6-1.8,10c-0.3,4.1,0,7.8,0.8,11.1c0.8,3.3,2,5.7,3.5,7.2c0.7,0.7,1.2,1.1,1.5,1.2
				c0.3,0.1,1,0.2,2,0.2c0.5-0.1,1.2-0.3,1.9-0.5c0.7-0.2,1.3-0.4,1.9-0.7c3.7-1.9,6.7-5,9.1-9.2
				C716.8,640.1,717.9,635.9,717.9,631.8z"/>
			<path class="st0" d="M813.5,660.4c0.8,5.5,1.2,9.4,1.2,11.6s-0.3,4.1-1,5.5c-2.2,4.1-5.4,6.2-9.7,6.2c-3.2,0-5.7-1-7.5-3
				c-1.9-2-3.1-4.4-3.8-7.3l-0.2-1.2l-2.3,1c-3.4,1.8-7.3,2.7-11.7,2.7c-5.5,0-10.4-1.5-14.8-4.6c-4.4-3.1-7.8-7-10.1-11.8
				c-1.9-4-3.3-7.9-4-11.8c-0.8-3.9-1-9-0.7-15.1c0.4-15.7,2.7-26.2,7-31.5c1.8-2.2,4.3-3.3,7.6-3.3c3,0,5.4,1,7.2,2.9
				c1.2,1.4,2,3.1,2.3,5.1s0.1,4-0.6,5.8c-1.4,2.7-2.1,8.2-2.1,16.3c0,8.4,0.8,14.8,2.3,19.3c1.5,4.5,3.6,6.7,6.4,6.7
				c1.5,0,3-1.3,4.5-3.8c1.5-2.5,2.9-6,4.3-10.4c0.7-1.9,1.1-3.6,1.2-4.9c0.1-1.4,0.3-3.6,0.4-6.6c0.1-3.4,0.4-7,0.8-10.8
				c0.4-3.8,0.9-7.4,1.3-10.8c0.5-3.4,1-6.5,1.5-9.2c0.5-2.7,1.1-4.5,1.6-5.5c1.8-3.4,4.7-5.1,8.9-5.1c1.2,0,2.2,0.1,2.8,0.2
				c0.6,0.1,1.3,0.5,2.2,1c3.7,2.3,5.1,6.3,4.3,11.9c-0.4,3.7-0.7,8.2-0.9,13.6c-0.2,5.4-0.3,10.8-0.3,16.5c0,5.6,0.2,11.2,0.5,16.6
				C812.5,651.8,812.9,656.5,813.5,660.4z M772.1,682.3c2.6,0.3,4.2,0.5,4.6,0.6c0.5,0.1,0.6,0.5,0.5,1.2c-0.1,0.5-0.3,0.9-0.6,0.9
				c-0.3,0.1-1.2,0.2-2.7,0.3c-0.8,0-1.8-0.1-3-0.2c-1.2-0.1-2.2-0.3-3.2-0.6c-1.4-0.3-2.9-0.8-4.6-1.6c-1.7-0.8-3.3-1.8-4.8-2.9
				c-1.5-1.1-2.9-2.3-4.2-3.5c-1.3-1.2-2.2-2.5-2.8-3.7c-0.4-0.8-0.3-1.5,0.2-2.1c0.3-0.3,0.5-0.4,0.6-0.4c0.3,0,1.3,1,3.1,2.9
				C759.9,678.4,765.5,681.4,772.1,682.3z"/>
			<path class="st0" d="M888.2,606.3c-0.3,5.8-3.2,9.3-8.9,10.7c-0.4,0.1-1,0.2-1.9,0.2c-2.9,0-5.6-1-8-3.1
				c-1.4-1.2-2.7-1.9-4.1-1.9c-1.2,0-2.6,0.4-4,1.3c-1.4,0.9-2.8,2-4.1,3.2c-1.3,1.2-2.5,2.5-3.6,3.8c-1.1,1.3-2,2.4-2.7,3.2
				l-2.1,3.3l0.2,9.1c0.1,2.5,0.2,5.9,0.3,10.2c0.1,4.3,0.2,8.3,0.5,11.8c0.3,5.6,0.4,9.3,0.3,11c-0.1,1.7-0.3,3.1-0.7,4.2
				c-0.5,2.3-1.8,4.3-3.8,5.8c-2,1.5-4.2,2.3-6.5,2.3c-2.9,0-5.3-1-7.3-3c-2-2-3.3-4.4-3.8-7.1c-0.1-0.5-0.3-3.3-0.4-8.2
				c-0.1-4.9-0.3-10.6-0.6-17.1c-0.1-3.3-0.3-6.7-0.4-10.2c-0.1-3.5-0.2-6.9-0.3-10.1c-0.1-3.2-0.2-6.2-0.3-9
				c-0.1-2.7-0.3-4.9-0.4-6.6c-0.1-3.8-0.2-6.9-0.3-9.2c-0.1-2.3-0.1-4,0-5.3c0.1-1.2,0.2-2.2,0.3-2.8c0.1-0.6,0.4-1.3,0.8-2
				c1-1.6,2.2-2.9,3.8-3.8c1.6-0.9,3.2-1.3,4.8-1.3c2.5,0,4.5,0.8,6,2.3c2.2,1.8,3.5,4.4,3.9,7.8l0.4,2.3l2.9-2.3
				c3.2-2.3,6.2-3.9,9.2-4.8c2.9-0.9,6.3-1.3,10.2-1.3c2.1,0.1,4.3,0.6,6.7,1.4c2.4,0.8,4.6,2,6.7,3.4c2.1,1.4,3.8,3.1,5.1,5
				C887.6,601.6,888.2,603.8,888.2,606.3z M856.3,584c-1.4,0.7-2.3,1-2.7,1c-0.3,0-0.5-0.1-0.8-0.4c-1-1-0.2-2,2.3-3.1
				c2.2-1.1,4.3-1.8,6.4-2.2c2.1-0.3,4.6-0.6,7.6-0.7c2.5,0,4.1,0.1,4.8,0.2c0.8,0.1,1.7,0.5,2.8,1c1.4,0.7,2.1,1.4,2.1,2.1
				c0,0.7-0.5,1-1.4,1c-0.5,0-1.4-0.2-2.5-0.6c-1.1-0.5-3-0.8-5.8-0.8c-2.2,0-4.5,0.2-6.9,0.6C859.8,582.6,857.8,583.2,856.3,584z"
				/>
		</g>
	</g>
	<g>
		<path d="M321.4,857.6c0.7-33.8,10-44,2.8-52c-2.8-3-2-8,1.8-10.4c4.3-2.8,4.4-6.7,4.4-10.9c0-25.5,0.4-28.7-1.1-34.6
			c-2.6-10.9,3.1-17.6,8.7-17.6c4.6,0,9.2,4.4,9.2,14.4c0.2,6.3,0.2,12.6,0.2,18.7c0,24.6-1.3,25.3,5.9,25
			c8.1-0.4,16.3-0.9,24.4-1.7c4.6-0.6,4.8-1.3,5.7-6.5c2.2-11.8,0.6-32,1.3-41.4c0.4-6.1,4.4-9.2,8.3-9.2c4.1,0,8.1,3.3,8.5,9.2
			c0.9,21.8-1.7,57.9-3.7,69.9c-3,16.8-0.4,39.6-2.2,46.4c-1.5,5-5,7.2-8.3,7.2c-4.1,0-7.8-3.1-8-8.7c0-10-0.6-26.1,0.6-35.9
			c1.3-10.2,2.4-13.1-7-13.1c-4.4,0-11.1,0.7-21.3,1.5c-5.7,0.6-6.7,1.3-7.8,6.8c-2,10.4-3.7,20.5-5,30.9c-0.2,2.4,0.2,4.4,1.7,6.3
			c4.4,5.5-0.7,16.8-7.2,19.4C327.9,873.5,321,869.9,321.4,857.6z"/>
		<path d="M425.1,762.9c0.7-5.5,0.9-10.7-3-15.9c-4.6-6.3-0.4-13.7,7.2-14.1c5-0.4,9.8-0.2,14.8-0.2c2.4,0.4,4.6,0.6,6.8,0.6
			c7.2,0,14.2-1.7,21.4-1.3c12.4,0.4,15.7,12.4,11.1,17.6c-1.5,1.8-3.3,2.8-5.4,2.8c-0.9,0-2.2-0.2-3.3-0.9
			c-3.3-1.7-6.7-1.5-10.2-1.3c-18.1,0.2-21.4-1.1-21.8,3.7c-0.4,10.4-2.4,20.3-3.7,30.3c-0.7,5.4-0.4,5.7,5.2,5.4
			c8.5-0.4,13.5-0.9,17-0.9c3.3,0,5.7,0.4,8.5,1.8c9.8,5,5.9,18.1-3.7,16.6c-2.6-0.4-5.4-0.6-8-0.6c-5.4,0-10.5,0.6-15.7,1.1
			c-6.7,0.6-8.3,1.7-9.2,8.7c-5,37.7-2.6,38.6,5,39c12.8,0.9,21.6-7,23.7-8.1c1.5-0.7,3-1.1,4.4-1.1c7.2,0,11.5,10,4.8,15.5
			c-8.3,6.3-18.5,10.5-29,10.5c-3.7,0-7.8-0.4-11.6-1.3C406.5,865.5,412.2,846.5,425.1,762.9z"/>
		<path d="M501.5,865.1c-4.4,0-8.7-3.7-8.3-10c0.4-3.9,4.8-23.1,5.7-27.2c0.7-3.1,1.5-6.3,0.6-9.6c-0.9-3.1,0.2-5.7,2-8.1
			c6.7-8.5-3-8.1,25.9-61.6c2.6-4.6,5-9.2,8.9-12.9c3-3,6.1-4.4,9.1-4.4c4.1,0,7.8,2.8,10.2,8c5.7,12.8,8.9,26.3,9.8,40.3
			c1.7,22.7,0.2,9.2,0.2,67.3c0.2,4.3,0.4,8.3,3.1,11.8c3.5,4.6,3,9.1-1.1,12.2c-1.8,1.5-3.5,2-5.4,2c-6.1,0-11.6-8-11.6-17.4
			c0-38.8,1.7-37.3-6.8-37c-7.4,0.4-14.6,1.1-21.8,3c-3.1,0.9-5.2,2.6-5.7,6.1c-1.3,7.9-4.3,15.3-3.9,23.5c0.2,3.3-1.1,6.5-3,9.4
			C507.2,863.7,504.5,865.1,501.5,865.1z M525.7,803.2c26.4-2,24.4-2,24.8-8.3c0.4-13.1-1.8-25.9-5.7-38.3c-0.2-0.6-0.7-1.1-0.9-1.5
			c-1.3,0-1.7,0.7-2.2,1.5c-8.3,15.2-14.2,26.3-18.9,42.7C521.8,802.6,522.6,803.6,525.7,803.2z"/>
		<path d="M590.8,815.2c5.2-2,7.8-4.1,8.5-63c0.2-12.8,6.7-10.2,16.6-13.7c4.8-1.7,9.6-2.4,14.1-2.4c31.6,0,55.5,36.8,30.7,59.5
			c-10.9,10-22.7,18.5-35.7,25.3c-1.7,0.7-3.7,1.3-5.4,4.1c11.3,3.9,21.3,10,32.5,12.9c1.5,0.4,3,0.6,4.3,1.3
			c8.9,3.9,5.5,15.5-3.5,14.8c-12.6-0.7-34.8-14.2-40.9-14.2c-1.8,0-2.4,1.1-1.1,3.7c3.7,8-1.1,26.1-10,24.6
			c-3.7-0.7-6.5-3.5-6.7-7.8c-1.1-17.7,2-26.4-4.6-30.7C583.1,825.6,583.8,818.4,590.8,815.2z M612.6,807.3c1.8-0.2,2.2,0,2.6-0.2
			c12.8-5.5,23.7-13.9,33.8-23.1c13.1-12.2-2-32.9-22.2-30.5c-2.8,0.4-5,1.1-5.4,4.3c-0.7,6.7-4.4,4.3-5.2,11.5
			C615,781.8,615.4,794.3,612.6,807.3z"/>
		<path d="M676.6,735.5c1.5-0.6,2.6-0.7,3.7-0.7c3.7,0,6.1,2.4,17.4,2c14.4-0.6,28.7,0.6,43.1-0.9c7.4-0.6,14.6,0.9,21.6,3
			c5.7,1.7,10.7,5.4,9.1,11.3c-0.9,3.7-4.4,6.1-8.7,5.4c-5.5-0.9-10.9-1.8-16.5-2.2c-5.9-0.4-12,0.6-17.9,0.6c-3,0-4.4,1.5-4.3,4.6
			c1.3,13.5-0.6,67.3-5,90.8c-1.1,5.7,0,9.2-0.9,12.9c-1.1,4.8-4.6,7.2-8.1,7.2c-3.9,0-7.9-3.1-7.8-8.9c0-5,0.6-10,1.3-14.8
			c3.3-19.8,3.7-39.8,3.9-59.7c0-33.8,1.7-32-7.8-32.2c-14.6-0.2-19.2,0.7-23.1-0.7C667.4,749.9,668.1,738.5,676.6,735.5z"/>
	</g>
	<g>
		<g>
			<path class="st0" d="M692.4,307.6c-11.5-4.3-64-22.5-130.2-26.8c-82.7-4.4-158,20.3-170.7,24.7c-1.1,0.4-1.7,1.5-1.4,2.6
				l8.5,32.3c0.3,1,1.3,1.6,2.3,1.3c138.5-43.7,262.8-3.7,280.9,2.6c1.2,0.4,2.5-0.3,2.9-1.5l9.3-31.9
				C694.5,309.5,693.7,308.1,692.4,307.6z M681,352.5c-144.6-48.1-261.8-10-280.5-3.2c-1.4,0.5-2.2,2.1-1.6,3.5
				c7.7,20.5,4.8,18.7,18.9,13.3c99.2-31,203.7-7,227.3-2.7c23.6,4.3,29.8,8.3,33.3,6.6c2.6-1.3,4-10.2,4.5-14.5
				C683.1,354.2,682.3,352.9,681,352.5z M694.9,218.7c-2.4,1.8-7.6,7.7-2.8,15.3c0.4,0.6,0.4,1.3,0.2,1.9
				c-1.3,3.8-5.9,16.3-8.7,20.8c-3.3,5.2-3.7,5.2-5.9-2.7s-2.4-21.9-2.7-27.4c-0.3-5.5-2.1-19.8-2.2-22.1s-0.8-3.5,2.7-6.6
				c3.6-3.1,7.4-5.6,6.6-18.7c-0.4-3.5-4.5-10.2-13.8-8.7c-9.3,1.4-12.3,17-11.4,23.3s0.1,6.8-2.5,11.7
				c-2.7,4.8-23.8,41.7-39.1,49.8c-15.3,8.1-28.6-11.9-30.6-15.9c-2-3.9-21.2-25.8-29.7-73.5c-0.1-0.7,0.2-1.5,0.8-1.9
				c1.3-0.7,3.4-3,4.2-9.6c1.2-10,3.9-22.2-10.9-25.7c-14.9-3.5-18.9,13.1-16.5,21.4c2.2,7.4,3.8,13.2,6.3,15.3
				c0.5,0.4,0.6,1,0.3,1.6c-0.7,1.2-1.7,3.6-2.2,7.4c-0.8,6-21.6,79.4-49.7,83.6c-28.1,4.2-38.1-21.7-47.6-59
				c-1.5-4.3-1.2-8.7-0.9-10.3c0.4-1.6,0.1-19.5-16.3-19.7c-9.8,0.1-10,16-6.8,21.7c3.2,5.7,5.9,4.4,5,12.7s-4.8,36.3-6.6,62.7
				c0,0-11.2-19.9-14.6-29c-1-2.4-2-4.9-3.2-6c-0.2-0.2-0.3-0.4-0.3-0.7c0.3-2,0.9-11.4-6.9-16.2c-8.8-5.4-14,3.6-12.5,10.9
				c2.6,9.6,7.4,8.1,7.4,12.9c0,4.8-0.4,14.6,2,30.8c1.7,11.6,2.7,21.7,3.2,26.6c0.1,1.5,1.7,2.5,3.2,2
				c20.3-7.7,145.6-50.5,297.6,1.1c1.9,0.7,4-0.4,4.7-2.3c2-5.7,5.5-18.9,5.9-40.8c0.2-11.7,0.6-16.5,0.9-18.4
				c0.1-0.8,0.7-1.4,1.4-1.5c2.1-0.5,6.5-2.6,6.5-10.3C709.6,215,698.2,215.2,694.9,218.7z"/>
		</g>
	</g>
	<g>
		<path d="M704.5,358.3c-7.2,2.7-0.2-18.5,0.3-19.3c22.9-36.8,45.8-73.6,68.8-110.3c3.7-6,7.6-11.9,12.2-17.3
			c5.2-6.2,11.5-7.3,15.8-3.5c5,4.5,4.4,9.7,1.4,15.1c-0.7,1.3-1.5,2.6-2.4,3.9c-25.2,37.1-50.5,74.2-75.8,111.2
			c-5.5,8.1-10.8,16.2-20,20.2C704.7,358.2,704.6,358.2,704.5,358.3z"/>
		<path d="M839.2,324.1c-1.3,2.2-2.8,6.8-5.8,9.7c3.4-2.9-17.3,16.2-46.6,43.2c-4,3.6-8.8,5.9-13.3,1c-3.9-4.4-1.2-8.8,1.8-12.2
			c14.7-16,29.5-31.9,44.5-47.5c2.3-2.4,5.9-4.1,9.2-4.8C834.4,312.2,838.8,316.3,839.2,324.1z"/>
		<path d="M381.6,358.3c7.2,2.7,0.2-18.5-0.3-19.3c-22.9-36.8-45.8-73.6-68.8-110.3c-3.7-6-7.6-11.9-12.2-17.3
			c-5.2-6.2-11.5-7.3-15.8-3.5c-5,4.5-4.4,9.7-1.4,15.1c0.7,1.3,1.5,2.6,2.4,3.9C310.8,263.9,336,301,361.3,338
			c5.5,8.1,10.8,16.2,20,20.2C381.5,358.2,381.6,358.2,381.6,358.3z"/>
		<path d="M247,324.1c1.3,2.2,2.8,6.8,5.8,9.7c-3.4-2.9,17.3,16.2,46.6,43.2c4,3.6,8.8,5.9,13.3,1c3.9-4.4,1.2-8.8-1.8-12.2
			c-14.7-16-29.5-31.9-44.5-47.5c-2.3-2.4-5.9-4.1-9.2-4.8C251.8,312.2,247.4,316.3,247,324.1z"/>
	</g>
	<g>
		<g>
			<path d="M817.3,741.7c-7.1,3.6-14.7,5.7-22,8.5c-1.7,0.8-4.3-1.5-2.8-3.2c4.7-5.2,9.6-9.2,15.5-12.3c5.9-3.1,12.4-8,18.7-6.8
				c1.8,0.3,3,2.1,2.3,3.8C827.6,737.1,822.3,739.2,817.3,741.7z"/>
			<path d="M796.5,773.3c13.1-1.4,25.6-5.2,39-6.2c12.3-0.8,25.8-2.2,38.1,0.8c2.1,0.8,2.5,5,0.1,5.7c-11.3,4-24.3,4.3-36.2,5.2
				c-14.2,1.2-27.1-1.1-41-1.7C794.3,777,794.2,773.2,796.5,773.3z"/>
			<path d="M822.2,809c1.1,6.3-9.3,1.3-11.4,0.2c-4.9-2-10-5.6-15.2-5.8c-2.2-0.4-2.2-2.7-0.9-3.6c4.6-2.6,10.4-0.8,15,0.8
				C813.2,802.1,821.9,804.4,822.2,809z"/>
			<path d="M841.4,813.6c1.8,0.7,3.7,0.7,5.4,1.4c1.4,0.6,4,0.7,4.8,2.8c0.2,1.2,0,2.3-0.9,2.9c-1.8,1.6-4.3,0.7-6.1,0
				c-2.1-0.8-3.5-1.8-5.1-3.2C838.3,816.1,839.6,813.3,841.4,813.6z"/>
			<path d="M794.3,831.2c3.8,2.2,7.5,4.4,11.3,6.6c0.8-0.2,1.8,0.3,2.5,0.8c9.8,6.7,21.1,12.9,29.1,21.2c1.6,1.8-0.1,4.5-2.3,4.1
				c-11.1-1.3-22-8.1-31-14.7c-0.7-0.1-1.8-0.7-2.7-2c-3.4-4-7.3-7.8-10.2-12.5C789.1,832.6,791.6,829.6,794.3,831.2z"/>
		</g>
		<g>
			<path d="M268.9,741.7c7.1,3.6,14.7,5.7,22,8.5c1.7,0.8,4.3-1.5,2.8-3.2c-4.7-5.2-9.6-9.2-15.5-12.3c-5.9-3.1-12.4-8-18.7-6.8
				c-1.8,0.3-3,2.1-2.3,3.8C258.6,737.1,263.9,739.2,268.9,741.7z"/>
			<path d="M289.7,773.3c-13.1-1.4-25.6-5.2-39-6.2c-12.3-0.8-25.8-2.2-38.1,0.8c-2.1,0.8-2.5,5-0.1,5.7c11.3,4,24.3,4.3,36.2,5.2
				c14.2,1.2,27.1-1.1,41-1.7C291.9,777,292,773.2,289.7,773.3z"/>
			<path d="M264,809c-1.1,6.3,9.3,1.3,11.4,0.2c4.9-2,10-5.6,15.2-5.8c2.2-0.4,2.2-2.7,0.9-3.6c-4.6-2.6-10.4-0.8-15,0.8
				C273,802.1,264.3,804.4,264,809z"/>
			<path d="M244.8,813.6c-1.8,0.7-3.7,0.7-5.4,1.4c-1.4,0.6-4,0.7-4.8,2.8c-0.2,1.2,0,2.3,0.9,2.9c1.8,1.6,4.3,0.7,6.1,0
				c2.1-0.8,3.5-1.8,5.1-3.2C247.8,816.1,246.6,813.3,244.8,813.6z"/>
			<path d="M291.9,831.2c-3.8,2.2-7.5,4.4-11.3,6.6c-0.8-0.2-1.8,0.3-2.5,0.8c-9.8,6.7-21.1,12.9-29.1,21.2
				c-1.6,1.8,0.1,4.5,2.3,4.1c11.1-1.3,22-8.1,31-14.7c0.7-0.1,1.8-0.7,2.7-2c3.4-4,7.3-7.8,10.2-12.5
				C297,832.6,294.6,829.6,291.9,831.2z"/>
		</g>
	</g>
	<g>
		<g>
			<path class="st0" d="M481.7,911.9c2.3,5.4,4.4,10.2,6.9,15.8c-2.3,0.1-4.2,0.2-6.1,0.2c-33.4,0-66.8,0-100.2-0.2
				c-4.1,0-6.9,0.8-9.2,4.4c-2.8,4.3-6.3,8.2-9.2,12.5c-2.8,4.2-6.6,6-11.3,6.2c-5.2,0.2-10.3,0.6-15.5,0.7
				c-14.5,0.1-29,0.9-43.6-0.3c-9.1-0.8-18.4-1.3-27.5-1.1c-5.8,0.1-9-4.9-5.5-9.7c3.1-4.3,6.8-8.3,10.6-11.9
				c3.9-3.6,8.4-6.6,13-10.2c-1.7-1.5-3.4-2.9-5-4.5c-6.1-6-12.1-12-18.1-18.1c-0.8-0.8-1.6-1.7-2.3-2.7c-3.3-4.6-1.6-8.4,4.1-9.1
				c0.8-0.1,1.7-0.1,2.5-0.1c28.1,0.7,56.1,1.5,84.2,2c6.3,0.1,10.8,2.6,14.5,7.4c4,5.1,8.3,10.1,12.1,15.4c1.8,2.5,3.7,3.2,6.7,3.2
				c29.6,0,59.1,0.1,88.7,0.2C474.7,911.9,478,911.9,481.7,911.9z M302.1,894.4c5.2,5.7,9.9,11,14.8,16.1c0.9,0.9,2.7,1,4.2,1.1
				c5.3,0.1,10.7,0.1,16,0c0.9,0,1.7-0.3,3-0.6c-5-5.4-9.6-10.5-14.3-15.4c-0.7-0.7-2-1.2-3.1-1.2
				C315.8,894.3,309,894.4,302.1,894.4z M274.4,940.4c0.2,0.5,0.4,1,0.6,1.5c8.8,0.1,17.5,0.3,26.3,0.4c0.7,0,1.9-0.4,2.2-0.9
				c2.2-4.2,4.6-8.3,6.1-13.7c-6.7,0-12.6,0-18.4,0c-0.9,0-2.1,0.2-2.8,0.7C283.6,932.3,279,936.3,274.4,940.4z M334.9,894.5
				c5.3,5.7,10.1,10.8,15,16c0.4,0.5,1.1,0.9,1.7,0.9c5.2,0.1,10.5,0.5,16.2-0.3c-4.4-6.1-9.2-10.8-14.2-15.4
				c-0.6-0.5-1.4-1.1-2.2-1.1C346.1,894.5,340.9,894.5,334.9,894.5z M318.8,927.8c-2,4.6-4,9.1-6,13.9c6.9,0,13.3,0,19.5,0
				c2-4.8,3.8-9.2,5.8-13.9C331.3,927.8,325.2,927.8,318.8,927.8z M275,894.5c5.4,5.5,10.1,10.2,14.8,15c0.5,0.5,1.1,1,1.6,1.1
				c4.7,0.5,9.4,0.8,15.1,1.3c-1-1.5-1.3-2-1.7-2.5c-4.5-4.5-9-8.9-13.5-13.3c-0.7-0.7-1.6-1.4-2.5-1.5
				C284.5,894.4,280.2,894.5,275,894.5z M339.7,941.7c4.3,0,7.6,0,10.9,0c1,0,2,0,3-0.1c0.8-0.1,1.6-0.4,2.2-0.9
				c1.3-1,6.5-10.8,7-13.1c-4.4,0-8.7-0.1-13,0.1c-1.1,0-2.8,0.6-3.3,1.5C344.2,933,342.3,937,339.7,941.7z"/>
			<path class="st0" d="M761.9,927.6c-68.7,0.1-136.2,1.3-204.7,0.4c2.3-3.4,4.5-5.8,5.9-8.7c2.8-6,7.1-7.4,13.5-7.3
				c60,0.8,120,1.2,180,1.6c1.9,0,3.9,0,7,0c-2.1-2.2-3.3-3.5-4.5-4.8c-3.1-3.5-6.2-7-9.2-10.6c-1.4-1.7-2.6-3.7-1.3-6
				c1.5-2.5,4-2.4,6.3-1.8c5.2,1.4,10.4,2.7,15.3,4.7c10.7,4.3,21.3,8.9,31.9,13.4c7.2,3.1,14.4,6.2,21.5,9.5
				c2.7,1.2,5.7,2.5,5.7,6.3c0,3.8-2.9,5.6-5.9,6.7c-8.3,3.1-16.5,6.4-25,8.8c-11.9,3.4-23.9,6.2-35.9,9.1c-1.9,0.5-4,0.8-5.9,0.9
				c-5,0-7.3-3.7-4.8-8.1c1.8-3.2,4.2-6,6.4-9C759.1,931.3,760.2,929.9,761.9,927.6z M765.1,937.6c9.3,0.1,48.6-11.6,52.7-14.8
				c-18.2-7.4-36.2-14.6-54.2-21.9c3.9,5,8.2,9.3,12.6,13.7c4.2,4.2,3.9,7.7-0.5,11.8C771.9,929.9,768.6,933.8,765.1,937.6z"/>
			<path class="st0" d="M522,896c3.4-3.9,6.2-7.5,9.3-10.7c5.5-5.7,12.3-7.7,20.1-6.8c4.5,0.5,7.8,2.9,9.9,6.8
				c2.9,5.3,4,11,2.3,16.9c-0.8,2.6-1.6,5.1-2.8,7.5c-6.5,13.8-16.1,25.4-26.4,36.3c-6.7,7.1-7.7,6.9-15.3,0.6
				c-6.4-5.3-12.7-10.9-18.6-16.7c-6.5-6.3-10.6-14.1-12.7-22.9c-1.6-6.7-1.2-13.3,2.3-19.4c4.7-8.1,13.1-9.9,20.4-4
				c3.2,2.6,5.9,5.9,8.7,8.9C520.1,893.6,520.9,894.8,522,896z"/>
		</g>
	</g>
</g>
</svg>
