<?xml version="1.0" encoding="utf-8"?>
<!-- Generator: Adobe Illustrator 22.0.0, SVG Export Plug-In . SVG Version: 6.00 Build 0)  -->
<svg version="1.1" id="Layer_1" xmlns="http://www.w3.org/2000/svg" xmlns:xlink="http://www.w3.org/1999/xlink" x="0px" y="0px"
	 viewBox="0 0 1080 1080" style="enable-background:new 0 0 1080 1080;" xml:space="preserve">
<style type="text/css">
	.st0{fill:#E43B40;}
</style>
<g>
	<g>
		<g>
			<path class="st0" d="M246,340.3l-13.5,56.8h-24.1l-13.5-56.8v67.4c0.4,5,2.5,21.3,6.7,21.3v3.2H163V429c4.6,0,6.7-19.2,6.7-22
				V280c0-2.8-2.1-22-6.7-22v-3.2h33.7l23.8,98.3l23.8-98.3h33.7v3.2c-4.6,0-6.7,19.2-6.7,22v127c0,2.8,2.1,22,6.7,22v3.2h-38.7V429
				c4.3,0,6.4-15.6,6.7-20.6V340.3z"/>
			<path class="st0" d="M394.3,254.8v2.8c-4.3,0-6.7,19.2-6.7,22.4v100.4c0.4,19.2,5,22.4,5,22.4s-3.9,1.8-6.7,7.5
				c-4.6,12.8-16.7,22-30.9,22h-19.9c-14.2,0-26.3-9.2-30.9-22c-2.8-5.7-6.7-7.5-6.7-7.5s5-5.7,5-25.2V280c0-3.2-2.1-22.4-6.7-22.4
				v-2.8h38.7v2.8c-4.6,0-6.7,19.2-6.7,22.4v119.2c0,4.3,3.5,7.5,7.5,7.5h19.9c3.9,0,7.5-3.2,7.5-7.5V280c0-3.2-2.1-22.4-6.7-22.4
				v-2.8H394.3z"/>
			<path class="st0" d="M491.6,336.8l-13.5,60.3h-24.1l-13.5-60.3v71c0.4,5,2.5,21.3,6.7,21.3v3.2h-38.7V429c4.6,0,6.7-19.2,6.7-22
				V280c0-2.8-2.1-22-6.7-22v-3.2h33.7l23.8,98.3l23.8-98.3h33.7v3.2c-4.6,0-6.7,19.2-6.7,22v127c0,2.8,2.1,22,6.7,22v3.2h-38.7V429
				c4.3,0,6.4-15.6,6.7-20.6V336.8z"/>
			<path class="st0" d="M622.5,336.8L609,397.1h-24.1l-13.5-60.3v71c0.4,5,2.5,21.3,6.7,21.3v3.2h-38.7V429c4.6,0,6.7-19.2,6.7-22
				V280c0-2.8-2.1-22-6.7-22v-3.2h33.7l23.8,98.3l23.8-98.3h33.7v3.2c-4.6,0-6.7,19.2-6.7,22v127c0,2.8,2.1,22,6.7,22v3.2h-38.7V429
				c4.3,0,6.4-15.6,6.7-20.6V336.8z"/>
			<path class="st0" d="M677.9,274.3c-3.2-6.7-9.6-16.7-12.8-16.7v-2.8h40.1v2.8c-4.6,0,1.8,21.3,1.8,21.3l6.4,27.7l6.7-28
				c0,0,6-20.9,1.8-20.9v-2.8h39.7v2.8c-3.2,0-8.9,9.2-12.4,16l-23.1,78.8v55c0,3.9,2.5,21.6,6.7,21.6v3.2h-38.7V429
				c4.3,0,6.4-16.3,6.7-21.3v-55.4L677.9,274.3z"/>
			<path class="st0" d="M803.5,264.5l-4.6,16.7c-2.8,9.6-10.3,9.6-13.1,0l-4.3-16.7c0-6.7,5-12.4,11-12.4S803.5,257.8,803.5,264.5z"
				/>
			<path class="st0" d="M896.8,271.8c4.3,6.4,7.1,14.2,7.1,22.7v20.6H878h-7.1v-3.2c4.3,0,6.7-8.5,7.1-17.7c-0.4-8.9-8.2-16-17.7-16
				c-9.9,0-17.7,7.5-17.7,16.3v12.1c0,4.3,2.1,8.5,6,11.4l39.4,29.1c11,8.5,16,23.8,16,34.8v11c0,8.2-2.8,16-7.1,22.7
				c-7.5,11-20.6,17.7-34.1,17.7c-15.3,0.4-27-3.9-34.8-12.4c-7.1-7.5-11.4-17.4-11.4-28v-20.9h32.6v3.2c-3.9,0-6.7,8.5-6.7,18.1
				c0.4,8.5,8.2,15.6,17.7,15.6s17.7-7.1,17.7-16v-11c0-5-2.8-11.7-5.7-13.8l-39.4-29.5c-10.3-7.8-16.3-19.5-16.3-31.9v-12.1
				c0-11,4.3-20.9,11.4-28.4c7.8-8.5,19.5-12.8,34.8-12.4C876.2,253.7,889.4,260.5,896.8,271.8z"/>
		</g>
	</g>
	<g>
		<path d="M329.5,550.9c6.4,2.4,12.5,5.4,12.2,12.2c1.7,7.4-9.5,57.5-33.2,130.3c-20,59.6-30.5,82.9-47,88.3c0,0.3,0.3,0.7,0.7,0.7
			c-1,0-3.4,0.3-7.1,0.3c-8.8,0-23.3-1-26.7-8.8c-8.8-17.9-5.4-74.8-3.7-107.9c1-14.5,1.4-64.6,3-96.1c0-0.3,0.3-0.7,0-1.7v-0.3
			c0.3-1.7,0-3.7-0.3-6.1c-8.1-5.4-39.9,11.5-52.8,67c-6.4,28.1-3.7,44.3,0.3,54.1c2.4,5.8,5.8,10.2,9.5,12.9
			c-2.4,0.7-5.1,1-7.4,1.4c-4.4,0.3-10.2,0.3-15.6-1.4c-10.8-3.7-23.3-32.8,2-88.7c0.3-0.7,28.1-54.8,60.6-54.8h0.7
			c3.7-0.3,7.1,0,10.2,0.3c5.4,1,11.8,2.7,14.9,6.4c4.4,5.8,4.1,18.3,3.7,26.4c0,1.7,0.3,2.4,0.3,3.4v1.4
			c-1.7,57.2-2.4,131.6,2,168.5c0,2.7,1.4,11.2,3.7,11.5c1.7,0.3,5.1-4.7,10.8-15.2c0-0.3,33.5-107.9,41.3-153.6
			c3.7-23,4.4-35.5,4.7-43.3c0.3-4.4,0.3-7.4,0-9.1C321.4,549.2,325.8,549.9,329.5,550.9z"/>
		<path d="M347.8,718.4l16.9-32.1c9.1-16.2,17.6-32.1,20-32.1c4.4,0,16.2,0.3,16.2,6.8s-7.8,78.2,0.7,82.6c-3,1.7-5.8,2.7-8.1,3.7
			c-4.4,1.7-9.5,2.7-11.2,0.3c-5.4-7.4-4.7-29.4-1-50.4l3.7-24c0.3-1.4,0.3-1.7,0-1.4c-2.4,3.7-5.1,7.4-7.4,11.5
			c-4.4,6.8-9.8,15.9-14.9,25c-9.5,17.6-11.2,21-13.2,21c-1.7,0.3-4.7,0-7.4-1l-5.4-1.4c-2-13.2-2.7-26.1-1.7-38.6
			c1.7-20.6,7.8-45.3,28.4-57.9c23-14.5,51.4-2,51.4,6.1c0,4.1-1.7,7.8-3.4,11.5c-1,2-2,3.7-3.4,5.4c-3.4-2.7-7.1-4.7-11.2-6.4
			c-6.8-2.7-16.2-4.1-25.7,1C347.1,660.5,343.1,717.4,347.8,718.4z"/>
		<path d="M432.1,722.1c0,104.9,37.6-12.5,45-34.9c3,0,6.4,0.3,7.4,4.1c-13.2,52.8-29.1,84.3-39.6,91c-2.7,1.7-18.6-4.4-20.3-7.1
			c-32.8-49.1,9.1-213.5,30.5-232.1h3.4c6.4,0,11.8,1.4,16.9,5.4C453.7,597.2,432.1,666.9,432.1,722.1z"/>
		<path d="M557.6,692c0,0.7,0,1.4-0.3,1.7c-4.7,10.8-9.8,21-15.2,30.5c-9.1,16.2-21.3,34.2-33.2,42c-25,16.2-43.6-30.8-31.1-87.6
			c12.5-56.5,32.5-64,38.2-65.6c6.4-1.7,18.3,0.7,26.1,7.8c6.8,6.8-7.8,50.8-31.8,51.8c-3,0.3-5.1-1-6.4-2.4c-1-1-1.7-1.7-2-2.4
			c-1,2.4-2,8.1-3,10.8c-11.8,43.3-1.4,80.2,4.1,77.5c9.5-4.7,20.6-22,30.5-38.2c5.8-9.5,11.2-20,16.9-31.5l2.4,0.7
			c1.4,0.3,2.4,1.4,3.4,1.7C556.9,689.6,557.6,690.6,557.6,692z M502.4,665.2c21.7-3.7,35.5-40.6,32.8-42.3
			C528.8,617.9,514.3,631.4,502.4,665.2z"/>
		<path d="M669.2,689.3c-6.1,15.9-11.8,29.8-17.6,42.3c-9.8,20.6-20.3,42-27.1,40.9c-19.3-2.7-23-17.6-23-27.1
			s17.6-113.4,31.1-148.5c2.7-6.4-10.8-1.4-32.5,45.7c-24.4,53.5-21.3,52.1-32.1,83.9v0.3c-0.3,0-15.6,7.8-18.9,3.4
			c-5.4-7.1-3-29.8,0.7-50.4c4.1-23,4.7-35.9,4.4-42.3c0.3-0.3,0.7-0.3,0.7-0.3c4.4,0,21.7,2.4,21.7,8.8c0,3-5.1,23.3-7.8,43
			c8.1-22.7,19.6-52.8,31.5-71.7c14.5-25.4,21.7-33.5,31.1-31.8c10.5,1.7,25.4,8.1,24.4,11.5c-1.4,3.7-32.8,143.5-32.8,160.4
			c0,8.1,8.8-9.1,18.6-28.8c5.4-11.5,11.5-25.4,18.6-41.3C664.5,685.9,668.2,685.2,669.2,689.3z"/>
		<path d="M843.2,576.6c0.7,3,0.7,6.1-0.3,9.8c-9.1-1.4-21-1.7-34.9-1c-24,1-59.6,5.1-109.6,16.9c-2.4,0.3-4.1,1-5.8,1.4l-0.7,3
			l-1.4,6.8c0,2-10.5,50.1-9.5,79.2c-0.3,25.4,2.7,39.6,6.4,48.7c2,5.1,4.1,9.1,6.4,11.5c-0.3,0-0.3,0-0.7,0.3l-2.4,1
			c-3,1.4-7.4,3-12.5,4.1c-4.4,1-8.1-3.7-11.8-11.5c-3-6.1-5.1-14.5-6.1-25.4v-0.3c-1.4-17.3-0.3-39.3,2.7-63.3l2.7-20.3l0.3-0.3
			c0-1.4,0.3-2.7,0.7-4.4c0-0.7,0-1,0.3-1.4c0-1,0.3-2.4,0.7-4.1v-1l3.7-17.6c-26.1,6.4-39.6,9.8-46.7,12.2c-4.1,1.4-6.4,2.4-7.4,3
			c-1-0.3-1.7-1-2.4-2c-1-1.7-1-3.7,0-6.1c1-1.7,2.7-3.4,5.1-4.7c1-0.7,2.4-1,3.7-1.4l14.2-4.4c9.1-2.7,21.7-6.4,36.9-10.5
			c4.1-17.3,8.8-34.2,14.2-50.8l3-10.2c6.8-2,13.5-1.4,20.6,1.7c-6.4,17.3-11.5,33.8-15.6,49.7c-0.3,1-1,2.4-1.4,4.1
			c40.3-9.8,91.4-20.6,135.3-22.3C839.1,566.8,842.1,571.5,843.2,576.6z"/>
		<path d="M732.2,650c-1.4,6.1-19.6,76.8-11.2,80.9l-8.8,2.7c-4.4,1-9.5,1.7-10.8-0.7c-5.4-7.1-1.4-29.4,3-50.1
			c5.1-23,6.1-35.5,6.1-42c0.3-0.3,0.3-0.3,0.7-0.3C715.3,640.5,733.2,643.9,732.2,650z M729.1,628.7L719,626l1-4.4
			c0.7-3,1.4-7.8,2-14.2c1.4-12.5-0.3-22.7,0.7-23.7h1.4h0.7c2.7,0.7,5.4,1.4,7.8,2.4c4.1,1.4,7.8,3.7,8.1,6.4
			C740.6,603.7,736.6,623.3,729.1,628.7z"/>
		<path d="M860.1,689.3c-6.1,15.9-11.8,29.8-17.6,42.3c-9.8,20.6-20.3,42-27.1,40.9c-19.3-2.7-23-17.6-23-27.1
			s17.6-113.4,31.1-148.5c2.7-6.4-10.8-1.4-32.5,45.7c-24.4,53.5-21.3,52.1-32.1,83.9v0.3c-0.3,0-15.6,7.8-18.9,3.4
			c-5.4-7.1-3-29.8,0.7-50.4c4.1-23,4.7-35.9,4.4-42.3c0.3-0.3,0.7-0.3,0.7-0.3c4.4,0,21.7,2.4,21.7,8.8c0,3-5.1,23.3-7.8,43
			c8.1-22.7,19.6-52.8,31.5-71.7c14.5-25.4,21.7-33.5,31.1-31.8c10.5,1.7,25.4,8.1,24.4,11.5c-1.4,3.7-32.8,143.5-32.8,160.4
			c0,8.1,8.8-9.1,18.6-28.8c5.4-11.5,11.5-25.4,18.6-41.3C855.3,685.9,859.1,685.2,860.1,689.3z"/>
		<path d="M931.5,692c0,0.7,0,1.4-0.3,1.7c-4.7,10.8-9.8,21-15.2,30.5c-9.1,16.2-21.3,34.2-33.2,42c-25,16.2-43.6-30.8-31.1-87.6
			c12.5-56.5,32.5-64,38.2-65.6c6.4-1.7,18.3,0.7,26.1,7.8c6.8,6.8-7.8,50.8-31.8,51.8c-3,0.3-5.1-1-6.4-2.4c-1-1-1.7-1.7-2-2.4
			c-1,2.4-2,8.1-3,10.8c-11.8,43.3-1.4,80.2,4.1,77.5c9.5-4.7,20.6-22,30.5-38.2c5.8-9.5,11.2-20,16.9-31.5l2.4,0.7
			c1.4,0.3,2.4,1.4,3.4,1.7C930.8,689.6,931.5,690.6,931.5,692z M876.3,665.2c21.7-3.7,35.5-40.6,32.8-42.3
			C902.7,617.9,888.2,631.4,876.3,665.2z"/>
	</g>
	<g>
		<path d="M474.8,485.1c2.5,5.7,4.7,10.8,7.2,16.7c-2.5,0.1-4.5,0.2-6.5,0.2c-35.3,0-70.6,0-105.8-0.2c-4.3,0-7.3,0.9-9.7,4.6
			c-3,4.6-6.7,8.7-9.7,13.2c-2.9,4.4-6.9,6.3-12,6.5c-5.5,0.2-10.9,0.7-16.4,0.7c-15.3,0.1-30.7,1-46-0.4
			c-9.7-0.9-19.4-1.4-29.1-1.2c-6.1,0.1-9.5-5.1-5.8-10.3c3.3-4.5,7.1-8.7,11.2-12.6c4.1-3.8,8.8-7,13.7-10.8
			c-1.8-1.6-3.6-3.1-5.3-4.7c-6.4-6.3-12.8-12.7-19.1-19.1c-0.9-0.9-1.7-1.8-2.4-2.8c-3.5-4.8-1.7-8.9,4.4-9.6
			c0.9-0.1,1.8-0.1,2.6-0.1c29.6,0.7,59.2,1.6,88.9,2.1c6.7,0.1,11.4,2.7,15.3,7.8c4.2,5.4,8.7,10.7,12.7,16.2
			c1.9,2.6,3.9,3.4,7,3.4c31.2,0,62.4,0.1,93.7,0.2C467.4,485.1,471,485.1,474.8,485.1z M285.2,466.7c5.5,6,10.4,11.6,15.6,17
			c0.9,0.9,2.9,1.1,4.4,1.1c5.6,0.1,11.3,0.1,16.9,0c0.9,0,1.8-0.3,3.1-0.6c-5.3-5.7-10.2-11-15.1-16.2c-0.7-0.8-2.1-1.2-3.3-1.3
			C299.7,466.6,292.5,466.7,285.2,466.7z M255.9,515.2c0.2,0.5,0.4,1,0.6,1.5c9.3,0.2,18.5,0.3,27.8,0.4c0.8,0,2-0.4,2.3-1
			c2.3-4.4,4.8-8.8,6.5-14.5c-7.1,0-13.3,0-19.4,0c-1,0-2.2,0.2-3,0.8C265.7,506.7,260.9,511,255.9,515.2z M319.8,466.9
			c5.6,6,10.7,11.4,15.8,16.9c0.5,0.5,1.2,0.9,1.8,1c5.5,0.1,11,0.6,17.2-0.3c-4.6-6.4-9.8-11.4-15-16.3c-0.6-0.6-1.5-1.1-2.3-1.2
			C331.7,466.8,326.2,466.9,319.8,466.9z M302.8,501.9c-2.1,4.8-4.2,9.6-6.4,14.7c7.3,0,14,0,20.5,0c2.1-5.1,4-9.7,6.1-14.7
			C316,501.9,309.5,501.9,302.8,501.9z M256.6,466.8c5.7,5.8,10.7,10.8,15.6,15.8c0.5,0.5,1.1,1.1,1.7,1.1c5,0.5,9.9,0.9,15.9,1.4
			c-1.1-1.6-1.4-2.2-1.8-2.6c-4.7-4.7-9.5-9.4-14.3-14.1c-0.7-0.7-1.7-1.5-2.6-1.5C266.6,466.7,262.1,466.8,256.6,466.8z
			 M324.9,516.7c4.6,0,8.1,0,11.5,0c1.1,0,2.1,0.1,3.2-0.1c0.8-0.1,1.7-0.4,2.4-0.9c1.4-1,6.9-11.4,7.4-13.8
			c-4.6,0-9.2-0.1-13.7,0.1c-1.2,0-2.9,0.7-3.5,1.6C329.7,507.5,327.6,511.7,324.9,516.7z"/>
		<path d="M770.6,501.7c-72.5,0.1-143.8,1.4-216.2,0.5c2.4-3.5,4.8-6.1,6.2-9.2c2.9-6.3,7.5-7.8,14.3-7.7
			c63.3,0.8,126.7,1.2,190.1,1.7c2,0,4.1,0,7.4,0c-2.2-2.3-3.5-3.6-4.7-5c-3.3-3.7-6.6-7.4-9.7-11.2c-1.4-1.8-2.8-3.9-1.3-6.3
			c1.6-2.6,4.2-2.5,6.6-1.9c5.4,1.4,10.9,2.9,16.1,5c11.3,4.5,22.5,9.4,33.7,14.2c7.6,3.3,15.2,6.6,22.8,10c2.9,1.3,6,2.7,6,6.6
			c0,4.1-3.1,5.9-6.2,7.1c-8.7,3.3-17.5,6.7-26.4,9.3c-12.5,3.6-25.3,6.5-37.9,9.6c-2,0.5-4.2,0.9-6.3,0.9c-5.3,0-7.7-3.9-5.1-8.6
			c1.9-3.3,4.5-6.3,6.8-9.5C767.7,505.7,768.8,504.2,770.6,501.7z M774,512.3c9.8,0.1,51.3-12.2,55.6-15.6
			c-19.2-7.8-38.2-15.5-57.2-23.1c4.1,5.2,8.7,9.9,13.3,14.5c4.4,4.4,4.1,8.1-0.6,12.5C781.2,504.2,777.7,508.4,774,512.3z"/>
		<path class="st0" d="M517.4,468.4c3.6-4.1,6.5-7.9,9.8-11.3c5.8-6.1,13-8.2,21.2-7.2c4.8,0.6,8.2,3.1,10.5,7.2
			c3.1,5.6,4.2,11.6,2.4,17.9c-0.8,2.7-1.7,5.4-2.9,7.9c-6.8,14.5-17,26.8-27.9,38.3c-7.1,7.5-8.1,7.3-16.2,0.6
			c-6.8-5.6-13.4-11.5-19.7-17.7c-6.8-6.7-11.2-14.9-13.4-24.2c-1.7-7.1-1.3-14,2.4-20.5c4.9-8.5,13.9-10.4,21.5-4.2
			c3.4,2.7,6.2,6.2,9.2,9.4C515.3,465.9,516.3,467.1,517.4,468.4z"/>
	</g>
</g>
</svg>
