<?xml version="1.0" encoding="utf-8"?>
<!-- Generator: Adobe Illustrator 22.0.0, SVG Export Plug-In . SVG Version: 6.00 Build 0)  -->
<svg version="1.1" id="Layer_1" xmlns="http://www.w3.org/2000/svg" xmlns:xlink="http://www.w3.org/1999/xlink" x="0px" y="0px"
	 viewBox="0 0 1080 1080" style="enable-background:new 0 0 1080 1080;" xml:space="preserve">
<style type="text/css">
	.st0{fill:#E43B40;}
</style>
<g>
	<g>
		<g>
			<path class="st0" d="M246,429.3l-13.5,56.8h-24.1l-13.5-56.8v67.4c0.4,5,2.5,21.3,6.7,21.3v3.2H163V518c4.6,0,6.7-19.2,6.7-22
				v-127c0-2.8-2.1-22-6.7-22v-3.2h33.7l23.8,98.3l23.8-98.3h33.7v3.2c-4.6,0-6.7,19.2-6.7,22v127c0,2.8,2.1,22,6.7,22v3.2h-38.7
				V518c4.3,0,6.4-15.6,6.7-20.6V429.3z"/>
			<path class="st0" d="M394.3,343.8v2.8c-4.3,0-6.7,19.2-6.7,22.4v100.4c0.4,19.2,5,22.4,5,22.4s-3.9,1.8-6.7,7.5
				c-4.6,12.8-16.7,22-30.9,22h-19.9c-14.2,0-26.3-9.2-30.9-22c-2.8-5.7-6.7-7.5-6.7-7.5s5-5.7,5-25.2v-97.6
				c0-3.2-2.1-22.4-6.7-22.4v-2.8h38.7v2.8c-4.6,0-6.7,19.2-6.7,22.4v119.2c0,4.3,3.5,7.5,7.5,7.5h19.9c3.9,0,7.5-3.2,7.5-7.5V368.9
				c0-3.2-2.1-22.4-6.7-22.4v-2.8H394.3z"/>
			<path class="st0" d="M491.6,425.7l-13.5,60.3h-24.1l-13.5-60.3v71c0.4,5,2.5,21.3,6.7,21.3v3.2h-38.7V518c4.6,0,6.7-19.2,6.7-22
				v-127c0-2.8-2.1-22-6.7-22v-3.2h33.7L466,442l23.8-98.3h33.7v3.2c-4.6,0-6.7,19.2-6.7,22v127c0,2.8,2.1,22,6.7,22v3.2h-38.7V518
				c4.3,0,6.4-15.6,6.7-20.6V425.7z"/>
			<path class="st0" d="M622.5,425.7L609,486.1h-24.1l-13.5-60.3v71c0.4,5,2.5,21.3,6.7,21.3v3.2h-38.7V518c4.6,0,6.7-19.2,6.7-22
				v-127c0-2.8-2.1-22-6.7-22v-3.2h33.7L597,442l23.8-98.3h33.7v3.2c-4.6,0-6.7,19.2-6.7,22v127c0,2.8,2.1,22,6.7,22v3.2h-38.7V518
				c4.3,0,6.4-15.6,6.7-20.6V425.7z"/>
			<path class="st0" d="M677.9,363.3c-3.2-6.7-9.6-16.7-12.8-16.7v-2.8h40.1v2.8c-4.6,0,1.8,21.3,1.8,21.3l6.4,27.7l6.7-28
				c0,0,6-20.9,1.8-20.9v-2.8h39.7v2.8c-3.2,0-8.9,9.2-12.4,16l-23.1,78.8v55c0,3.9,2.5,21.6,6.7,21.6v3.2h-38.7V518
				c4.3,0,6.4-16.3,6.7-21.3v-55.4L677.9,363.3z"/>
			<path class="st0" d="M803.5,353.5l-4.6,16.7c-2.8,9.6-10.3,9.6-13.1,0l-4.3-16.7c0-6.7,5-12.4,11-12.4S803.5,346.8,803.5,353.5z"
				/>
			<path class="st0" d="M896.8,360.8c4.3,6.4,7.1,14.2,7.1,22.7v20.6H878h-7.1v-3.2c4.3,0,6.7-8.5,7.1-17.7c-0.4-8.9-8.2-16-17.7-16
				c-9.9,0-17.7,7.5-17.7,16.3v12.1c0,4.3,2.1,8.5,6,11.4l39.4,29.1c11,8.5,16,23.8,16,34.8v11c0,8.2-2.8,16-7.1,22.7
				c-7.5,11-20.6,17.7-34.1,17.7c-15.3,0.4-27-3.9-34.8-12.4c-7.1-7.5-11.4-17.4-11.4-28v-20.9h32.6v3.2c-3.9,0-6.7,8.5-6.7,18.1
				c0.4,8.5,8.2,15.6,17.7,15.6s17.7-7.1,17.7-16v-11c0-5-2.8-11.7-5.7-13.8l-39.4-29.5c-10.3-7.8-16.3-19.5-16.3-31.9v-12.1
				c0-11,4.3-20.9,11.4-28.4c7.8-8.5,19.5-12.8,34.8-12.4C876.2,342.7,889.4,349.4,896.8,360.8z"/>
		</g>
	</g>
	<g>
		<path d="M329.5,639.8c6.4,2.4,12.5,5.4,12.2,12.2c1.7,7.4-9.5,57.5-33.2,130.3c-20,59.6-30.5,82.9-47,88.3c0,0.3,0.3,0.7,0.7,0.7
			c-1,0-3.4,0.3-7.1,0.3c-8.8,0-23.3-1-26.7-8.8c-8.8-17.9-5.4-74.8-3.7-107.9c1-14.5,1.4-64.6,3-96.1c0-0.3,0.3-0.7,0-1.7v-0.3
			c0.3-1.7,0-3.7-0.3-6.1c-8.1-5.4-39.9,11.5-52.8,67c-6.4,28.1-3.7,44.3,0.3,54.1c2.4,5.8,5.8,10.2,9.5,12.9
			c-2.4,0.7-5.1,1-7.4,1.4c-4.4,0.3-10.2,0.3-15.6-1.4c-10.8-3.7-23.3-32.8,2-88.7c0.3-0.7,28.1-54.8,60.6-54.8h0.7
			c3.7-0.3,7.1,0,10.2,0.3c5.4,1,11.8,2.7,14.9,6.4c4.4,5.8,4.1,18.3,3.7,26.4c0,1.7,0.3,2.4,0.3,3.4v1.4
			c-1.7,57.2-2.4,131.6,2,168.5c0,2.7,1.4,11.2,3.7,11.5c1.7,0.3,5.1-4.7,10.8-15.2c0-0.3,33.5-107.9,41.3-153.6
			c3.7-23,4.4-35.5,4.7-43.3c0.3-4.4,0.3-7.4,0-9.1C321.4,638.1,325.8,638.8,329.5,639.8z"/>
		<path d="M347.8,807.3l16.9-32.1c9.1-16.2,17.6-32.1,20-32.1c4.4,0,16.2,0.3,16.2,6.8s-7.8,78.2,0.7,82.6c-3,1.7-5.8,2.7-8.1,3.7
			c-4.4,1.7-9.5,2.7-11.2,0.3c-5.4-7.4-4.7-29.4-1-50.4l3.7-24c0.3-1.4,0.3-1.7,0-1.4c-2.4,3.7-5.1,7.4-7.4,11.5
			c-4.4,6.8-9.8,15.9-14.9,25c-9.5,17.6-11.2,21-13.2,21c-1.7,0.3-4.7,0-7.4-1l-5.4-1.4c-2-13.2-2.7-26.1-1.7-38.6
			c1.7-20.6,7.8-45.3,28.4-57.9c23-14.5,51.4-2,51.4,6.1c0,4.1-1.7,7.8-3.4,11.5c-1,2-2,3.7-3.4,5.4c-3.4-2.7-7.1-4.7-11.2-6.4
			c-6.8-2.7-16.2-4.1-25.7,1C347.1,749.5,343.1,806.3,347.8,807.3z"/>
		<path d="M432.1,811.1c0,104.9,37.6-12.5,45-34.9c3,0,6.4,0.3,7.4,4.1c-13.2,52.8-29.1,84.3-39.6,91c-2.7,1.7-18.6-4.4-20.3-7.1
			c-32.8-49.1,9.1-213.5,30.5-232.1h3.4c6.4,0,11.8,1.4,16.9,5.4C453.7,686.2,432.1,755.9,432.1,811.1z"/>
		<path d="M557.6,780.9c0,0.7,0,1.4-0.3,1.7c-4.7,10.8-9.8,21-15.2,30.5c-9.1,16.2-21.3,34.2-33.2,42c-25,16.2-43.6-30.8-31.1-87.6
			c12.5-56.5,32.5-64,38.2-65.6c6.4-1.7,18.3,0.7,26.1,7.8c6.8,6.8-7.8,50.8-31.8,51.8c-3,0.3-5.1-1-6.4-2.4c-1-1-1.7-1.7-2-2.4
			c-1,2.4-2,8.1-3,10.8c-11.8,43.3-1.4,80.2,4.1,77.5c9.5-4.7,20.6-22,30.5-38.2c5.8-9.5,11.2-20,16.9-31.5l2.4,0.7
			c1.4,0.3,2.4,1.4,3.4,1.7C556.9,778.6,557.6,779.6,557.6,780.9z M502.4,754.2c21.7-3.7,35.5-40.6,32.8-42.3
			C528.8,706.8,514.3,720.4,502.4,754.2z"/>
		<path d="M669.2,778.2c-6.1,15.9-11.8,29.8-17.6,42.3c-9.8,20.6-20.3,42-27.1,40.9c-19.3-2.7-23-17.6-23-27.1
			c0-9.5,17.6-113.4,31.1-148.5c2.7-6.4-10.8-1.4-32.5,45.7c-24.4,53.5-21.3,52.1-32.1,83.9v0.3c-0.3,0-15.6,7.8-18.9,3.4
			c-5.4-7.1-3-29.8,0.7-50.4c4.1-23,4.7-35.9,4.4-42.3c0.3-0.3,0.7-0.3,0.7-0.3c4.4,0,21.7,2.4,21.7,8.8c0,3-5.1,23.3-7.8,43
			c8.1-22.7,19.6-52.8,31.5-71.7c14.5-25.4,21.7-33.5,31.1-31.8c10.5,1.7,25.4,8.1,24.4,11.5c-1.4,3.7-32.8,143.5-32.8,160.4
			c0,8.1,8.8-9.1,18.6-28.8c5.4-11.5,11.5-25.4,18.6-41.3C664.5,774.8,668.2,774.2,669.2,778.2z"/>
		<path d="M843.2,665.6c0.7,3,0.7,6.1-0.3,9.8c-9.1-1.4-21-1.7-34.9-1c-24,1-59.6,5.1-109.6,16.9c-2.4,0.3-4.1,1-5.8,1.4l-0.7,3
			l-1.4,6.8c0,2-10.5,50.1-9.5,79.2c-0.3,25.4,2.7,39.6,6.4,48.7c2,5.1,4.1,9.1,6.4,11.5c-0.3,0-0.3,0-0.7,0.3l-2.4,1
			c-3,1.4-7.4,3-12.5,4.1c-4.4,1-8.1-3.7-11.8-11.5c-3-6.1-5.1-14.5-6.1-25.4V810c-1.4-17.3-0.3-39.3,2.7-63.3l2.7-20.3l0.3-0.3
			c0-1.4,0.3-2.7,0.7-4.4c0-0.7,0-1,0.3-1.4c0-1,0.3-2.4,0.7-4.1v-1l3.7-17.6c-26.1,6.4-39.6,9.8-46.7,12.2c-4.1,1.4-6.4,2.4-7.4,3
			c-1-0.3-1.7-1-2.4-2c-1-1.7-1-3.7,0-6.1c1-1.7,2.7-3.4,5.1-4.7c1-0.7,2.4-1,3.7-1.4l14.2-4.4c9.1-2.7,21.7-6.4,36.9-10.5
			c4.1-17.3,8.8-34.2,14.2-50.8l3-10.2c6.8-2,13.5-1.4,20.6,1.7c-6.4,17.3-11.5,33.8-15.6,49.7c-0.3,1-1,2.4-1.4,4.1
			c40.3-9.8,91.4-20.6,135.3-22.3C839.1,655.7,842.1,660.5,843.2,665.6z"/>
		<path d="M732.2,739c-1.4,6.1-19.6,76.8-11.2,80.9l-8.8,2.7c-4.4,1-9.5,1.7-10.8-0.7c-5.4-7.1-1.4-29.4,3-50.1
			c5.1-23,6.1-35.5,6.1-42c0.3-0.3,0.3-0.3,0.7-0.3C715.3,729.5,733.2,732.9,732.2,739z M729.1,717.7L719,715l1-4.4
			c0.7-3,1.4-7.8,2-14.2c1.4-12.5-0.3-22.7,0.7-23.7h1.4h0.7c2.7,0.7,5.4,1.4,7.8,2.4c4.1,1.4,7.8,3.7,8.1,6.4
			C740.6,692.6,736.6,712.3,729.1,717.7z"/>
		<path d="M860.1,778.2c-6.1,15.9-11.8,29.8-17.6,42.3c-9.8,20.6-20.3,42-27.1,40.9c-19.3-2.7-23-17.6-23-27.1
			c0-9.5,17.6-113.4,31.1-148.5c2.7-6.4-10.8-1.4-32.5,45.7c-24.4,53.5-21.3,52.1-32.1,83.9v0.3c-0.3,0-15.6,7.8-18.9,3.4
			c-5.4-7.1-3-29.8,0.7-50.4c4.1-23,4.7-35.9,4.4-42.3c0.3-0.3,0.7-0.3,0.7-0.3c4.4,0,21.7,2.4,21.7,8.8c0,3-5.1,23.3-7.8,43
			c8.1-22.7,19.6-52.8,31.5-71.7c14.5-25.4,21.7-33.5,31.1-31.8c10.5,1.7,25.4,8.1,24.4,11.5c-1.4,3.7-32.8,143.5-32.8,160.4
			c0,8.1,8.8-9.1,18.6-28.8c5.4-11.5,11.5-25.4,18.6-41.3C855.3,774.8,859.1,774.2,860.1,778.2z"/>
		<path d="M931.5,780.9c0,0.7,0,1.4-0.3,1.7c-4.7,10.8-9.8,21-15.2,30.5c-9.1,16.2-21.3,34.2-33.2,42c-25,16.2-43.6-30.8-31.1-87.6
			c12.5-56.5,32.5-64,38.2-65.6c6.4-1.7,18.3,0.7,26.1,7.8c6.8,6.8-7.8,50.8-31.8,51.8c-3,0.3-5.1-1-6.4-2.4c-1-1-1.7-1.7-2-2.4
			c-1,2.4-2,8.1-3,10.8c-11.8,43.3-1.4,80.2,4.1,77.5c9.5-4.7,20.6-22,30.5-38.2c5.8-9.5,11.2-20,16.9-31.5l2.4,0.7
			c1.4,0.3,2.4,1.4,3.4,1.7C930.8,778.6,931.5,779.6,931.5,780.9z M876.3,754.2c21.7-3.7,35.5-40.6,32.8-42.3
			C902.7,706.8,888.2,720.4,876.3,754.2z"/>
	</g>
	<g>
		<path d="M239.6,305.5c-1.6-1.7,0.1-4.5,2.3-3.9c5.4,1.5,9.7,5.1,15,7c5.9,2.1,12.1,3.6,18.3,4.5c14.2,2.1,28.1,0.3,42.1-2.3
			c19.3-3.5,38.2-9,57.6-11.5c31.5-4.1,62.8,0.3,92.7,10.4c3.7,1.2,7.2,2.9,10.6,4.8c1.7,0.9,3.5,2,4.8,3.4c1.5,1.7,0,4.3-2.2,3.9
			c-1.5-0.3-2.8-1-4.2-1.5c-7.5-2.8-14.9-6.1-22.7-8.1c-27.3-7.1-55.2-2.8-82.3,3.2c-20.9,4.6-41.8,10.1-63.2,11
			c-12.3,0.5-24.8-0.6-36.7-4c-5.9-1.7-11.7-4-17.1-7C249.4,312.5,243.8,310,239.6,305.5z"/>
		<path d="M838.5,290.8c0.3,0,0.6,0,0.8,0.1c2,0.9,0.4,3.6-0.2,4.9c-1.9,3.8-4.4,7.4-7.4,10.5c-21.6,23-59.5,16.1-87.3,13.4
			c-12.7-1.2-25.5-2.7-38.1-4.6c-12.4-1.8-24.8-4.2-37.3-5.3c-21.8-1.9-44.9-3.5-65.6,4.4c-5.4,2.1-10.9,3.9-16.8,3.4
			c24.4-17.9,56.7-21.3,86.8-18.7c30.2,2.6,59.7,10.4,89.9,12.7c12.7,0.9,25.9,0.6,38.4-2.3c7.9-1.9,15.3-5.6,22.3-9.6
			c3.5-2,7-4.2,10.5-6.3C835.4,292.7,837.1,290.9,838.5,290.8z"/>
		<path d="M518,246.4c0-1.1,0-2.2,0-3.3c0.3-10.4,2.5-23,10.1-30.6c4.5-4.4,10.3-5.5,15.6-2c5.3,3.5,7.9,10.2,9.2,16.2
			c1.1,5.5,1.2,11.1,1,16.7c-0.4,11.6-2,23.3-5.1,34.5c-1.6,5.7-3.5,11.2-5.9,16.6c-1.9,4.3-4,11.4-9.8,11c-2.9-0.2-3.5-2.3-4.4-4.5
			C521.7,284.2,518.3,264.6,518,246.4z M538,219.2c-0.3-0.8-0.8-1.5-1.5-2c-2.1-1.5-5.1-0.5-6.5,1.5c-0.9,1.3-1.3,2.8-1.7,4.2
			c-5.1,18.6-3.8,36.7,0.3,55.3c0.4,1.9,1.1,3.7,2.1,6.8c0.9-2.6,1.5-3.9,1.7-5.2c1.5-9.9,3.2-20.1,4.5-30.2
			c0.7-5.2,1.2-10.4,1.6-15.7C538.8,229.4,539.9,223.5,538,219.2z"/>
		<path d="M514.1,303.9c0.7,2-0.1,4.2-2.1,5.1c-3.7,1.7-7.4,1.2-10.7-0.6c-9.9-5.3-20.6-9.2-29.2-17c-5.7-5.1-10.8-10.6-14.3-17.4
			c-2.7-5.2-4-10.8-0.3-15.7c3.8-4.9,9.6-4.9,15.3-3.6c15,3.3,24.4,13.6,32,25.9c2.7,4.4,4.1,9.7,6,14.6
			C511.9,298,512.9,300.8,514.1,303.9z M495.1,295.7c-6.3-12.5-14.1-25.4-26.1-33.7c-2-1.3-4.6,0-4.7,2.4c-0.2,2.8,0.8,5.6,2,7.5
			C473,283,483.2,290.3,495.1,295.7z"/>
		<path d="M571.1,309.5c-2.9-1.4-2.7-3.2-1.7-5.3c3-6.7,5.3-13.7,8.8-20.2c3.7-6.9,8-13.4,13-19.5c3.5-4.3,7.4-8.4,12.2-11.4
			c5.1-3.2,11.9-5.4,17.9-3.6c3.7,1.1,6.4,4.1,6.5,8c0.1,2.8-0.9,5.5-2.2,8c-9.3,19.2-28,31.8-46.7,40.6
			C576.4,307.2,573.9,308.3,571.1,309.5z M615.7,253c-0.6-0.4-1.4-0.6-2.5-0.5c-2.9,0.4-5.6,3-7.8,4.7
			c-11.2,8.6-18.7,20.2-25.1,32.6c-1.4,2.8-2,5.9-3.4,10.4c7.5-5.8,15.1-11.5,22-18.1c6.4-6,14.1-13.7,17.4-22
			C617.2,257.8,617.5,254.3,615.7,253z"/>
	</g>
	<g>
		<path d="M474.8,574.1c2.5,5.7,4.7,10.8,7.2,16.7c-2.5,0.1-4.5,0.2-6.5,0.2c-35.3,0-70.6,0-105.8-0.2c-4.3,0-7.3,0.9-9.7,4.6
			c-3,4.6-6.7,8.7-9.7,13.2c-2.9,4.4-6.9,6.3-12,6.5c-5.5,0.2-10.9,0.7-16.4,0.7c-15.3,0.1-30.7,1-46-0.4
			c-9.7-0.9-19.4-1.4-29.1-1.2c-6.1,0.1-9.5-5.1-5.8-10.3c3.3-4.5,7.1-8.7,11.2-12.6c4.1-3.8,8.8-7,13.7-10.8
			c-1.8-1.6-3.6-3.1-5.3-4.7c-6.4-6.3-12.8-12.7-19.1-19.1c-0.9-0.9-1.7-1.8-2.4-2.8c-3.5-4.8-1.7-8.9,4.4-9.6
			c0.9-0.1,1.8-0.1,2.6-0.1c29.6,0.7,59.2,1.6,88.9,2.1c6.7,0.1,11.4,2.7,15.3,7.8c4.2,5.4,8.7,10.7,12.7,16.2
			c1.9,2.6,3.9,3.4,7,3.4c31.2,0,62.4,0.1,93.7,0.2C467.4,574.1,471,574.1,474.8,574.1z M285.2,555.6c5.5,6,10.4,11.6,15.6,17
			c0.9,0.9,2.9,1.1,4.4,1.1c5.6,0.1,11.3,0.1,16.9,0c0.9,0,1.8-0.3,3.1-0.6c-5.3-5.7-10.2-11-15.1-16.2c-0.7-0.8-2.1-1.2-3.3-1.3
			C299.7,555.6,292.5,555.6,285.2,555.6z M255.9,604.2c0.2,0.5,0.4,1,0.6,1.5c9.3,0.2,18.5,0.3,27.8,0.4c0.8,0,2-0.4,2.3-1
			c2.3-4.4,4.8-8.8,6.5-14.5c-7.1,0-13.3,0-19.4,0c-1,0-2.2,0.2-3,0.8C265.7,595.7,260.9,600,255.9,604.2z M319.8,555.8
			c5.6,6,10.7,11.4,15.8,16.9c0.5,0.5,1.2,0.9,1.8,1c5.5,0.1,11,0.6,17.2-0.3c-4.6-6.4-9.8-11.4-15-16.3c-0.6-0.6-1.5-1.1-2.3-1.2
			C331.7,555.8,326.2,555.8,319.8,555.8z M302.8,590.9c-2.1,4.8-4.2,9.6-6.4,14.7c7.3,0,14,0,20.5,0c2.1-5.1,4-9.7,6.1-14.7
			C316,590.9,309.5,590.9,302.8,590.9z M256.6,555.7c5.7,5.8,10.7,10.8,15.6,15.8c0.5,0.5,1.1,1.1,1.7,1.1c5,0.5,9.9,0.9,15.9,1.4
			c-1.1-1.6-1.4-2.2-1.8-2.6c-4.7-4.7-9.5-9.4-14.3-14.1c-0.7-0.7-1.7-1.5-2.6-1.5C266.6,555.7,262.1,555.7,256.6,555.7z
			 M324.9,605.7c4.6,0,8.1,0,11.5,0c1.1,0,2.1,0.1,3.2-0.1c0.8-0.1,1.7-0.4,2.4-0.9c1.4-1,6.9-11.4,7.4-13.8
			c-4.6,0-9.2-0.1-13.7,0.1c-1.2,0-2.9,0.7-3.5,1.6C329.7,596.5,327.6,600.7,324.9,605.7z"/>
		<path d="M770.6,590.7c-72.5,0.1-143.8,1.4-216.2,0.5c2.4-3.5,4.8-6.1,6.2-9.2c2.9-6.3,7.5-7.8,14.3-7.7
			c63.3,0.8,126.7,1.2,190.1,1.7c2,0,4.1,0,7.4,0c-2.2-2.3-3.5-3.6-4.7-5c-3.3-3.7-6.6-7.4-9.7-11.2c-1.4-1.8-2.8-3.9-1.3-6.3
			c1.6-2.6,4.2-2.5,6.6-1.9c5.4,1.4,10.9,2.9,16.1,5c11.3,4.5,22.5,9.4,33.7,14.2c7.6,3.3,15.2,6.6,22.8,10c2.9,1.3,6,2.7,6,6.6
			c0,4.1-3.1,5.9-6.2,7.1c-8.7,3.3-17.5,6.7-26.4,9.3c-12.5,3.6-25.3,6.5-37.9,9.6c-2,0.5-4.2,0.9-6.3,0.9c-5.3,0-7.7-3.9-5.1-8.6
			c1.9-3.3,4.5-6.3,6.8-9.5C767.7,594.7,768.8,593.2,770.6,590.7z M774,601.3c9.8,0.1,51.3-12.2,55.6-15.6
			c-19.2-7.8-38.2-15.5-57.2-23.1c4.1,5.2,8.7,9.9,13.3,14.5c4.4,4.4,4.1,8.1-0.6,12.5C781.2,593.2,777.7,597.3,774,601.3z"/>
		<path class="st0" d="M517.4,557.4c3.6-4.1,6.5-7.9,9.8-11.3c5.8-6.1,13-8.2,21.2-7.2c4.8,0.6,8.2,3.1,10.5,7.2
			c3.1,5.6,4.2,11.6,2.4,17.9c-0.8,2.7-1.7,5.4-2.9,7.9c-6.8,14.5-17,26.8-27.9,38.3c-7.1,7.5-8.1,7.3-16.2,0.6
			c-6.8-5.6-13.4-11.5-19.7-17.7c-6.8-6.7-11.2-14.9-13.4-24.2c-1.7-7.1-1.3-14,2.4-20.5c4.9-8.5,13.9-10.4,21.5-4.2
			c3.4,2.7,6.2,6.2,9.2,9.4C515.3,554.8,516.3,556.1,517.4,557.4z"/>
	</g>
</g>
</svg>
