<?xml version="1.0" encoding="utf-8"?>
<!-- Generator: Adobe Illustrator 22.0.0, SVG Export Plug-In . SVG Version: 6.00 Build 0)  -->
<svg version="1.1" id="Layer_1" xmlns="http://www.w3.org/2000/svg" xmlns:xlink="http://www.w3.org/1999/xlink" x="0px" y="0px"
	 viewBox="0 0 1080 1080" style="enable-background:new 0 0 1080 1080;" xml:space="preserve">
<style type="text/css">
	.st0{fill:#FF53A7;}
</style>
<g>
	<g>
		<path class="st0" d="M275.9,699.4v3.9h-47.3v-3.9c4.8,0,7.4-12.1,6.5-23.4c-0.4-1.7-1.7-10.8-1.7-10.8h-42.1l-0.9,7.4
			c-0.9,3.9-2.2,26.9,3,26.9v3.9h-44.7v-3.9c3.9,0,7.8-11.7,9.1-19.9l25.1-162.2c0-3.5,1.7-26.9-3.5-26.9v-3.9h65.9v3.9
			c-5.2,0-3.9,20.4-3.5,26l24.7,163C268.6,687.7,272,699.4,275.9,699.4z M228.7,634.3l-16-106.7l-16.5,106.7H228.7z"/>
		<path class="st0" d="M293.3,703.3v-3.9c4.8,0,7.8-19.5,8.2-25.6V515.1c-0.9-6.5-3.5-24.7-8.2-24.7v-3.9h47.3v3.9
			c-5.6,0-8.2,23.4-8.2,26.9v155.2h26.9c3.9,0,27.3-3,27.3-8.2h3.5l-6.1,39H293.3z"/>
		<path class="st0" d="M571.7,516.8l-26,186.4h-47.7l-14.7-109.7l-14.7,109.7h-48.1l-25.6-186c-1.3-5.6-6.9-27.3-12.6-27.3v-3.5h49
			v3.5c-4.8,0-6.5,16.9-6.1,24.7l19.5,141.8l19.1-141.8c0.4-6.9-0.9-24.7-6.1-24.7v-3.5h41.2l23,170l19.1-141.3
			c0.4-6.9-0.9-25.1-6.1-25.1v-3.5h49v3.5C578.6,489.9,573,510.8,571.7,516.8z"/>
		<path class="st0" d="M709.5,699.4v3.9h-47.3v-3.9c4.8,0,7.4-12.1,6.5-23.4c-0.4-1.7-1.7-10.8-1.7-10.8H625l-0.9,7.4
			c-0.9,3.9-2.2,26.9,3,26.9v3.9h-44.7v-3.9c3.9,0,7.8-11.7,9.1-19.9l25.1-162.2c0-3.5,1.7-26.9-3.5-26.9v-3.9h65.9v3.9
			c-5.2,0-3.9,20.4-3.5,26l24.7,163C702.2,687.7,705.6,699.4,709.5,699.4z M662.3,634.3l-16-106.7l-16.5,106.7H662.3z"/>
		<path class="st0" d="M715.6,510.3c-3.9-8.2-11.7-20.4-15.6-20.4v-3.5h49v3.5c-5.6,0,2.2,26,2.2,26l7.8,33.8l8.2-34.3
			c0,0,7.4-25.6,2.2-25.6v-3.5h48.6v3.5c-3.9,0-10.8,11.3-15.2,19.5l-28.2,96.3v67.2c0,4.8,3,26.4,8.2,26.4v3.9h-47.3v-3.9
			c5.2,0,7.8-19.9,8.2-26v-67.6L715.6,510.3z"/>
		<path class="st0" d="M922.4,507.3c5.2,7.8,8.7,17.3,8.7,27.7v25.1h-31.7h-8.7v-3.9c5.2,0,8.2-10.4,8.7-21.7
			c-0.4-10.8-10-19.5-21.7-19.5c-12.1,0-21.7,9.1-21.7,19.9v14.7c0,5.2,2.6,10.4,7.4,13.9l48.1,35.6c13.4,10.4,19.5,29.1,19.5,42.5
			v13.4c0,10-3.5,19.5-8.7,27.7c-9.1,13.4-25.1,21.7-41.6,21.7c-18.6,0.4-33-4.8-42.5-15.2c-8.7-9.1-13.9-21.2-13.9-34.3v-25.6h39.9
			v3.9c-4.8,0-8.2,10.4-8.2,22.1c0.4,10.4,10,19.1,21.7,19.1s21.7-8.7,21.7-19.5v-13.4c0-6.1-3.5-14.3-6.9-16.9l-48.1-36
			c-12.6-9.5-19.9-23.8-19.9-39V535c0-13.4,5.2-25.6,13.9-34.7c9.5-10.4,23.8-15.6,42.5-15.2C897.3,485.2,913.3,493.4,922.4,507.3z"
			/>
	</g>
	<g>
		<path class="st0" d="M220.1,747.5c0-1-0.2-2-0.5-2.9c-0.3-0.9-0.5-2.1-0.5-3.4c0-0.7,0.1-1.4,0.2-2.1c0.2-0.7,0.4-1.3,0.8-1.9
			c0.3-0.6,0.8-1.1,1.4-1.6s1.3-0.8,2.2-1.1c0.4,0,1.1,0,2.1,0c1,0,2,0,3.1-0.1c1.1,0,2.1,0,3.1,0c1,0,1.7,0,2.1,0
			c2.9,0,5.3,0,7-0.1c1.7-0.1,3.1-0.1,4.1-0.1s1.7,0.1,2.2,0.3c0.5,0.2,0.9,0.5,1.3,1.1c0.4,0.5,0.9,1.3,1.4,2.3
			c0.5,1,1.4,2.3,2.5,3.9v26c-0.4,1.3-0.6,2.3-0.7,3c-0.1,0.7-0.2,1.4-0.2,2.1c0,1.4,0.2,2.6,0.5,3.4c0.3,0.9,0.5,1.8,0.5,2.8
			c0,0.2,0,0.4,0,0.7c0,0.3,0,0.5,0,0.5c0,0.1-0.2,0.3-0.3,0.5c-0.2,0.3-0.4,0.5-0.6,0.8c-0.2,0.3-0.4,0.6-0.6,0.8
			c-0.2,0.3-0.3,0.4-0.3,0.5c-0.2,1.3-0.3,2.9-0.4,4.7c-0.1,1.8,0,3.6,0.3,5.4c0.3,1.8,0.8,3.5,1.5,5.1c0.7,1.6,1.7,2.8,3.1,3.7
			c0.3,0,0.8,0.1,1.6,0.2c0.8,0.1,1.6,0.2,2.4,0.3c0.9,0.1,1.7,0.2,2.4,0.3c0.8,0.1,1.3,0.1,1.6,0.1c0.4,0,1.1,0,1.9,0
			c0.8,0,1.8,0,2.9,0.1c1.1,0,2.3,0,3.5,0s2.5,0,3.8,0c1.3,0,2.5,0,3.8,0c1.2,0,2.4,0,3.5,0c1.1,0,2.1,0,2.9-0.1c0.8,0,1.5,0,1.9,0
			c1.6,0.6,2.8,1.5,3.8,2.9c0.9,1.4,1.7,2.8,2.2,4.5c0.5,1.6,0.9,3.2,1.1,4.8c0.2,1.6,0.3,2.8,0.3,3.8c0,1.7-0.2,3.3-0.6,4.8
			c-0.4,1.6-0.9,2.9-1.6,4.1c-0.7,1.2-1.6,2.2-2.7,2.9c-1.1,0.7-2.2,1.1-3.5,1.1c-0.7,0-1.4-0.1-2-0.3c-0.6-0.2-1.3-0.4-2-0.7
			c-0.7-0.2-1.6-0.5-2.5-0.7s-2.1-0.3-3.5-0.3c-1.4,0-3.1,0.1-5,0.3c-1.9,0.2-4,0.4-6.4,0.6s-4.9,0.4-7.7,0.6
			c-2.8,0.2-5.8,0.3-9.1,0.3c-1.3,0-2.4-0.1-3.3-0.2c-0.9-0.2-1.8-0.4-2.5-0.8c-0.7-0.4-1.4-1-2.1-1.7c-0.7-0.7-1.4-1.6-2.1-2.7
			l-0.2-0.1c0,0-0.1-0.1-0.2-0.1c-0.1,0-0.2,0-0.3,0.1c-0.1,0-0.2,0-0.2,0.1l-2.7,3.6c-1.4,0.3-2.6,0.6-3.5,0.8
			c-0.9,0.2-1.9,0.4-3,0.6c-1,0.2-1.9,0.3-2.5,0.5l-0.2,0.1H225c-0.5,0-1-0.1-1.4-0.4c-0.5-0.2-0.9-0.5-1.3-0.9
			c-0.4-0.4-0.7-0.8-1-1.2c-0.2-0.5-0.4-0.9-0.4-1.4c0-0.9,0.2-1.8,0.5-2.6c0.3-0.8,0.5-1.6,0.5-2.6c0-1.6-0.1-3.2-0.4-4.8
			c-0.3-1.6-0.6-3.3-1-5c-0.4-1.7-0.7-3.4-1-5.1c-0.3-1.7-0.4-3.4-0.4-5.1c0-0.3,0-0.7,0-1.3s0-1.3,0-2c0-0.7,0-1.4,0-2
			c0-0.6,0-1.1,0-1.3c0.4-0.5,0.7-1,0.8-1.3c0.1-0.3,0.1-0.8,0.1-1.3c0-0.1,0-0.2,0-0.5c0-0.2,0-0.4-0.1-0.4c0-0.4-0.1-1.2-0.3-2.3
			c-0.2-1.1-0.3-2.3-0.5-3.5c-0.2-1.2-0.4-2.4-0.6-3.5c-0.2-1.1-0.3-1.9-0.4-2.3c0.2-1.3,0.6-2.2,1.1-2.9c0.5-0.7,1.3-1.2,2.5-1.6
			l0.9-5.4c-0.5,0.4-0.9,0.6-1.3,0.8c-0.4,0.1-0.8,0.2-1.4,0.2c-1,0-1.6-0.3-1.7-0.9c-0.1-0.6-0.2-1.4-0.2-2.2c0-0.7,0-1.5,0-2.1
			c0-0.7,0.3-1.3,1-1.9v-14.3c0.2-0.3,0.4-0.7,0.6-1.1C220,748.3,220.1,747.9,220.1,747.5z M224.6,749.8c0.2,0.5,0.6,0.9,1.1,1
			c0.6,0.1,1.1,0.2,1.5,0.2v-1.2H224.6z M228.1,802.6l0.9-0.9l-0.9-0.9V802.6z M238,817.9v-1.8h-0.9L238,817.9z M238.9,818.8
			c-0.1,0-0.2,0-0.3,0.1c-0.1,0.1-0.1,0.2-0.1,0.4s0,0.3,0.1,0.4c0.1,0.1,0.2,0.1,0.3,0.1c0.3-0.1,0.4-0.2,0.4-0.5
			C239.3,819,239.2,818.9,238.9,818.8z M240.7,760.5c0-0.1,0-0.2-0.1-0.3c-0.1-0.1-0.2-0.1-0.3-0.1c-0.4,0-0.5,0.1-0.5,0.4
			c0.1,0.3,0.2,0.4,0.5,0.4C240.5,760.9,240.6,760.8,240.7,760.5z M243.4,746.2v-0.9h-0.9v0.9H243.4z M273.9,817.9
			c0.2,0.3,0.6,0.8,1.1,1.3c0.5,0.5,1,0.8,1.6,0.8v-2.1H273.9z M281.1,827.8c0.2,0,0.4-0.1,0.5-0.3c0.1-0.2,0.2-0.4,0.2-0.6
			c0-0.2-0.1-0.4-0.2-0.6c-0.1-0.2-0.3-0.3-0.5-0.3c-0.2,0-0.4,0.1-0.5,0.3c-0.1,0.2-0.2,0.4-0.2,0.6c0,0.2,0.1,0.4,0.2,0.6
			C280.7,827.7,280.8,827.8,281.1,827.8z"/>
		<path class="st0" d="M296.2,786.5c0-0.1,0-0.4-0.1-0.9c-0.1-0.5-0.2-1.1-0.3-1.8c-0.1-0.7-0.2-1.3-0.3-2c-0.1-0.7-0.2-1.2-0.2-1.6
			v-0.4c0-2.5,0-4.6,0.1-6.2c0.1-1.7,0.2-3.2,0.5-4.5c0.3-1.3,0.7-2.7,1.3-4c0.6-1.3,1.4-2.8,2.5-4.6c0,0,0-0.1,0-0.2
			c0-0.1,0-0.2,0-0.3c0-0.6-0.2-1.1-0.5-1.6c-0.3-0.4-0.5-1-0.5-1.6c0-0.7,0.1-1.3,0.4-1.8c0.3-0.5,0.7-1,1.1-1.5
			c0.5-0.5,1-1.2,1.6-1.9c0.6-0.7,1.3-1.7,2-3c1.3-2.2,2.7-4,4.3-5.5c1.6-1.5,3.3-2.8,5.1-3.8c1.8-1,3.7-1.8,5.6-2.3
			c1.9-0.5,3.8-1,5.6-1.2c1.8-0.3,3.5-0.4,5.2-0.5c1.6-0.1,3.1-0.1,4.3-0.1c3,0,6.3,0.1,10,0.2c3.6,0.2,7.3,0.5,11,1.1
			c3.7,0.5,7.3,1.4,10.8,2.5c3.5,1.1,6.6,2.6,9.3,4.6c2.7,1.9,4.9,4.4,6.5,7.3c1.6,2.9,2.5,6.4,2.5,10.6c0,1.1-0.1,2-0.2,2.8
			c-0.1,0.8-0.2,1.4-0.3,2c-0.1,0.5-0.2,1.1-0.3,1.5c-0.1,0.5-0.2,1-0.2,1.6c0,1,0.1,2,0.4,3.1c0.3,1.1,0.6,2.3,1,3.4
			c0.4,1.2,0.7,2.4,1,3.6c0.3,1.2,0.4,2.5,0.4,3.7c0,0.3,0,0.7,0,1.3s0,1.3,0,2c0,0.7,0,1.4,0,2c0,0.6,0,1.1,0,1.3
			c0,0.1-0.1,0.3-0.2,0.5c-0.1,0.3-0.2,0.5-0.3,0.8c-0.1,0.3-0.2,0.5-0.3,0.8c-0.1,0.2-0.1,0.4-0.1,0.6c-0.2,3.6-0.5,7-0.9,10.3
			c-0.4,3.3-1,6.3-1.9,9.1c-0.9,2.8-2,5.3-3.5,7.6c-1.4,2.3-3.3,4.2-5.6,5.8c-2.3,1.6-5,2.8-8.2,3.7s-7.1,1.3-11.5,1.3
			c-0.4,0-0.8,0-1.4,0c-0.6,0-0.9,0-1,0c-0.1,0-0.3-0.1-0.5-0.3c-0.3-0.2-0.5-0.4-0.8-0.7c-0.3-0.2-0.6-0.4-0.8-0.6
			c-0.3-0.2-0.4-0.3-0.5-0.3c-0.1,0-0.3,0.1-0.5,0.4c-0.2,0.3-0.5,0.6-0.8,0.9c-0.3,0.3-0.6,0.6-0.9,0.9c-0.3,0.3-0.4,0.4-0.5,0.5
			c0,0-0.2,0.1-0.7,0.1c-0.5,0-0.9,0-1.1,0s-0.7,0-1.4,0c-0.7,0-1.1,0-1.2-0.1c-0.6,0-1.7,0-3.2-0.1c-1.5-0.1-3.2-0.2-4.9-0.3
			c-1.7-0.1-3.3-0.2-4.9-0.3s-2.6-0.2-3.2-0.2c-0.7-1.1-1.5-1.8-2.4-2.1c-0.9-0.4-1.8-0.6-2.8-0.8c-1-0.1-2.1-0.3-3.3-0.4
			c-1.2-0.1-2.6-0.5-4-1.1c-2.5-1-4.7-2.5-6.7-4.5c-2-2-3.7-4.3-5.1-6.9c-1.4-2.6-2.5-5.3-3.3-8.2c-0.8-2.9-1.1-5.7-1.1-8.3
			c0-1.1,0.1-2,0.2-2.9c0.1-0.9,0.2-1.6,0.3-2.4c0.1-0.7,0.2-1.4,0.3-2.1c0.1-0.7,0.2-1.4,0.2-2.1v-0.5c0-0.1-0.2-0.4-0.5-0.9
			C296.4,786.9,296.3,786.6,296.2,786.5z M305.2,754.2v0.2c0,0-0.1,0.1-0.1,0.3c0,0.1,0,0.2,0,0.3c0,0.1,0,0.2,0,0.2
			c0,0.1,0.2,0.2,0.4,0.5c0.2,0.2,0.4,0.4,0.5,0.4c0,0,0.1,0.1,0.2,0.1c0.1,0,0.2,0,0.2,0c0.1,0,0.2,0,0.3,0c0.1,0,0.2,0,0.2-0.1
			c0.1,0,0.3-0.1,0.6-0.3c0.3-0.2,0.5-0.3,0.8-0.5c0.3-0.2,0.5-0.4,0.8-0.6c0.2-0.2,0.4-0.3,0.5-0.4c-0.1,0-0.3-0.1-0.5-0.2
			c-0.3-0.1-0.5-0.2-0.8-0.3c-0.3-0.1-0.5-0.2-0.8-0.3c-0.2-0.1-0.4-0.2-0.6-0.2h-0.5h-0.4c-0.1,0.1-0.3,0.2-0.5,0.5
			C305.4,754,305.3,754.1,305.2,754.2z M307,808.9c-0.2,0-0.4,0.1-0.5,0.3c-0.1,0.2-0.2,0.4-0.2,0.6c0,0.2,0.1,0.4,0.2,0.6
			c0.1,0.2,0.3,0.3,0.5,0.3c0.2,0,0.4-0.1,0.5-0.3c0.1-0.2,0.2-0.4,0.2-0.6c0-0.2-0.1-0.4-0.2-0.6C307.4,809,307.2,808.9,307,808.9z
			 M307.9,810.7c-0.1-0.1-0.2,0-0.3,0.2c-0.1,0.2-0.1,0.5-0.1,0.7c0,0.3,0,0.5,0.1,0.7c0.1,0.2,0.2,0.3,0.3,0.2
			c0.3-0.2,0.4-0.5,0.4-1C308.3,811.1,308.2,810.8,307.9,810.7z M313.3,821.5c0.5,0.4,0.9,0.7,1.3,0.8c0.4,0.1,0.8,0.1,1.4,0.1h0.9
			c-0.1-0.2-0.4-0.5-0.8-1c-0.5-0.5-0.8-0.8-1-0.9h-0.4h-0.5c-0.1,0.1-0.2,0.2-0.5,0.5C313.5,821.2,313.3,821.4,313.3,821.5z
			 M320.4,756.4h0.9c0.4,0,0.9,0,1.3-0.1c0.4,0,0.8-0.1,1.2-0.3c0.4-0.2,0.7-0.4,0.9-0.7c0.2-0.3,0.4-0.7,0.4-1.2
			c-0.1,0-0.3,0-0.6,0c-0.3,0-0.5,0-0.6,0c-0.3,0-0.6,0.1-1,0.2c-0.4,0.1-0.8,0.2-1.2,0.3c-0.4,0.1-0.9,0.3-1.4,0.4V756.4z
			 M324.9,784.3v0.4c0.1,0.2,0.2,0.5,0.5,1c0.2,0.5,0.4,0.8,0.5,0.9v14.3c0,0.7,0.3,1.4,1,2c0.6,0.6,1.4,1.2,2.4,1.7
			c1,0.5,2.1,1,3.3,1.4c1.2,0.4,2.5,0.8,3.7,1.1c1.2,0.3,2.4,0.5,3.5,0.7c1.1,0.2,2,0.2,2.8,0.2c1.7,0,3.4-0.4,5-1.2
			c1.6-0.8,3.1-1.9,4.4-3.3c1.3-1.4,2.3-3,3.1-4.8c0.8-1.8,1.2-3.7,1.2-5.6c0-1.3-0.2-2.6-0.5-4c-0.3-1.4-0.6-2.8-1-4.2
			c-0.4-1.4-0.7-2.8-1-4.2c-0.3-1.4-0.5-2.7-0.5-4c0-0.4,0-0.8,0-1.4c0-0.6,0-1.2,0-1.8c0-0.6,0-1.1,0-1.5c0-0.4,0-0.7,0-0.7
			l1.8-2.6c0.1-0.2-0.1-0.6-0.7-1.2c-0.6-0.6-1.3-1.3-2.3-2.1c-0.9-0.8-2-1.7-3.2-2.5c-1.2-0.9-2.3-1.7-3.3-2.4
			c-1.1-0.7-2-1.4-2.8-1.8c-0.8-0.5-1.3-0.7-1.6-0.7c-1.3,0-2.7,0.3-4.1,0.8c-1.4,0.5-2.8,1.1-4.2,1.9c-1.4,0.8-2.6,1.7-3.7,2.6
			c-1.1,1-2,1.9-2.8,2.8c0,0.5,0,1.5-0.1,2.8c-0.1,1.4-0.2,2.8-0.3,4.3c-0.1,1.5-0.2,3-0.3,4.3c-0.1,1.4-0.2,2.3-0.2,2.9
			c0,0.1-0.1,0.3-0.2,0.7c-0.1,0.3-0.2,0.7-0.3,1.1c-0.1,0.4-0.2,0.8-0.3,1.1c-0.1,0.3-0.2,0.6-0.2,0.7V784.3z M336.6,743.5h0.9
			l-0.9-0.9V743.5z M351.8,821.5c-0.2,0-0.4,0.1-0.5,0.3c-0.1,0.2-0.2,0.4-0.2,0.6c0,0.2,0.1,0.4,0.2,0.6c0.1,0.2,0.3,0.3,0.5,0.3
			c0.2,0,0.4-0.1,0.5-0.3c0.1-0.2,0.2-0.4,0.2-0.6c0-0.2-0.1-0.4-0.2-0.6C352.2,821.6,352.1,821.5,351.8,821.5z M365.5,810
			c0-1.5-0.7-2.2-2.2-2.2c0,0.7,0.2,1.2,0.6,1.6C364.3,809.8,364.8,810,365.5,810z M366.1,809.8c-0.2,0-0.4,0.1-0.5,0.3
			c-0.1,0.2-0.2,0.4-0.2,0.6c0,0.2,0.1,0.4,0.2,0.6c0.1,0.2,0.3,0.3,0.5,0.3c0.2,0,0.4-0.1,0.5-0.3c0.1-0.2,0.2-0.4,0.2-0.6
			c0-0.2-0.1-0.4-0.2-0.6C366.5,809.9,366.4,809.8,366.1,809.8z M370,819.7c0-0.8-0.4-1.4-1.1-1.8v1.8H370z M376.9,748.8
			c0-0.1,0-0.2-0.1-0.3c-0.1-0.1-0.2-0.1-0.4-0.1c-0.1,0-0.3,0-0.4,0.1c-0.1,0.1-0.1,0.2,0,0.3c0.1,0.3,0.2,0.4,0.4,0.4
			C376.7,749.2,376.9,749.1,376.9,748.8z M376.9,765.9v1.8l0.9-0.9L376.9,765.9z"/>
		<path class="st0" d="M439.1,830.5c-1.9,0-3.5-0.2-4.9-0.5c-1.4-0.3-2.7-0.5-4-0.5c-0.7,0-1.3,0.1-1.8,0.2s-1.1,0.2-1.7,0.3
			c-0.6,0.1-1.2,0.2-1.9,0.3c-0.7,0.1-1.6,0.2-2.6,0.2c-0.3,0-0.8,0-1.3-0.1c-0.6-0.1-1.3-0.3-2-0.7c-0.8-0.4-1.6-0.9-2.4-1.7
			c-0.8-0.8-1.7-1.9-2.6-3.3c-1.3-2.1-2.4-4.7-3.3-7.8c-1-3-1.8-6.3-2.6-9.7c-0.8-3.4-1.5-6.9-2.3-10.5c-0.7-3.5-1.5-6.9-2.4-10
			c-1-3.7-2.2-7.4-3.5-10.9c-1.3-3.6-2.7-7.1-4.1-10.7c-1.4-3.5-2.8-7.1-4.1-10.7c-1.3-3.6-2.5-7.3-3.6-11c0-0.1,0-0.3,0-0.7
			c0-0.3,0-0.6,0-0.7c0-1.5,0.4-2.7,1.3-3.6c0.9-0.9,2-1.6,3.4-2.2c1.4-0.5,3-0.9,4.7-1.1c1.7-0.2,3.4-0.3,5.1-0.3
			c1.7,0,3.3,0,4.7,0.1c1.4,0.1,2.5,0.2,3.3,0.2c0.5-0.5,0.9-0.8,1.3-0.8c0.4-0.1,0.9-0.1,1.5-0.1h0.2c2.8,0,4.8,0.5,6.1,1.5
			c1.3,1,2.2,2.4,2.7,4.2c0.5,1.8,0.9,3.8,1.1,6.2c0.2,2.4,0.5,4.9,1.1,7.6c0.5,2.5,1.1,5,2,7.6c0.9,2.6,1.7,5.3,2.6,8
			c0.9,2.8,1.7,5.6,2.4,8.6c0.7,3,1.2,6.1,1.5,9.3c0,0.1,0.2,0.3,0.4,0.5c0.2,0.2,0.4,0.4,0.5,0.4h0.2c0,0,0.1,0.1,0.3,0.1
			c0,0,0.1,0,0.2,0c0.1,0,0.2,0,0.2,0c1.1-1.4,2-3.2,2.8-5.5c0.8-2.3,1.6-4.8,2.3-7.6c0.7-2.8,1.4-5.7,2.1-8.7c0.7-3,1.4-6,2.2-9
			c0.8-3,1.6-5.8,2.6-8.5c1-2.7,2.1-5.1,3.3-7.1c1.2-2,2.6-3.7,4.2-4.9c1.6-1.2,3.4-1.8,5.5-1.8c1.3,0,2.5,0.2,3.5,0.5
			c1.1,0.3,2.2,0.5,3.3,0.5c1.2,0,2.4-0.2,3.6-0.5c1.2-0.3,2.4-0.5,3.6-0.5c1.1,0,2.1,0.2,3.3,0.6c1.1,0.4,2.1,0.9,3.1,1.6
			s1.7,1.5,2.3,2.4c0.6,0.9,0.9,2,0.9,3.2c0,1.1-0.2,2-0.7,2.8c-0.5,0.8-1.2,1.5-2,2.1c0.3,3.3,0.1,6.6-0.5,9.9
			c-0.6,3.3-1.4,6.6-2.5,9.8c-1.1,3.2-2.4,6.4-3.8,9.5c-1.4,3.1-2.9,6.1-4.4,9c-1.5,2.9-2.9,5.6-4.3,8.2c-1.4,2.6-2.6,5-3.5,7.3
			c-1,2.2-1.8,4.4-2.4,6.5c-0.6,2.1-1.2,4.1-1.8,6c-0.5,1.9-1.1,3.7-1.7,5.4c-0.6,1.7-1.3,3.2-2.2,4.6c-0.9,1.4-1.9,2.6-3.2,3.7
			c-1.3,1.1-2.8,2-4.7,2.7c-0.2,0-0.6,0-1.2,0s-1.2,0-1.9,0c-0.7,0-1.3,0-1.9,0C439.7,830.5,439.3,830.5,439.1,830.5z M411.3,759.6
			c0,0-0.3,0.2-0.7,0.5c-0.4,0.3-0.9,0.6-1.4,1c-0.5,0.4-1.1,0.8-1.8,1.3c-0.6,0.5-1.2,0.9-1.8,1.4c-0.5,0.5-1,0.9-1.3,1.3
			c-0.4,0.4-0.5,0.7-0.5,1c1.1,0,2-0.2,2.9-0.5c0.9-0.3,1.8-0.5,2.8-0.5c0.4,0,0.8,0,1,0.1L411.3,759.6z M416.6,790.1v0.9h0.9v-0.9
			H416.6z M426.5,817v-2.7c-0.5,0.2-0.9,0.6-1,1.1c-0.1,0.6-0.2,1.1-0.2,1.5H426.5z M426.5,806.2v-0.9h-0.9L426.5,806.2z
			 M427.4,808.9c0.3-0.1,0.4-0.4,0.4-0.9c0-0.5-0.1-0.8-0.4-0.9c-0.1-0.1-0.2,0-0.3,0.2c-0.1,0.2-0.1,0.4-0.1,0.7
			c0,0.2,0,0.5,0.1,0.7C427.2,808.9,427.3,809,427.4,808.9z M436.4,796.4c0-0.1,0-0.2-0.1-0.3c-0.1-0.1-0.2-0.1-0.4-0.1
			c-0.4,0-0.5,0.1-0.5,0.4c0.1,0.3,0.2,0.4,0.5,0.4C436.2,796.8,436.4,796.6,436.4,796.4z M457,772.2c-0.7,0.4-1.1,0.9-1.1,1.8h1.1
			V772.2z M464.2,757.8l0.9-0.9h-0.9V757.8z M468.6,743.5c-0.2,0-0.4,0.1-0.5,0.3c-0.1,0.2-0.2,0.4-0.2,0.6s0.1,0.4,0.2,0.6
			c0.1,0.2,0.3,0.3,0.5,0.3c0.2,0,0.4-0.1,0.5-0.3c0.1-0.2,0.2-0.4,0.2-0.6s-0.1-0.4-0.2-0.6C469,743.6,468.9,743.5,468.6,743.5z
			 M473.1,745.3c-0.6,0.2-0.9,0.6-1,1.2c-0.1,0.7-0.2,1.2-0.2,1.6c0.5,0,1-0.1,1.4-0.4c0.5-0.2,0.7-0.6,0.7-1.2
			c0-0.3-0.1-0.6-0.3-0.8C473.6,745.6,473.4,745.4,473.1,745.3z"/>
		<path class="st0" d="M487.3,741.7c0.5-0.7,1.3-1.5,2.3-2.4c1-0.8,2.1-1.6,3.3-2.3c1.2-0.7,2.4-1.3,3.6-1.8
			c1.2-0.5,2.3-0.7,3.3-0.7c0.1,0,0.3,0,0.5,0c0.2,0,0.4,0,0.4,0c0.3,0,0.7,0,1.3,0.1s1.2,0.2,1.9,0.3c0.7,0.1,1.3,0.2,1.9,0.3
			c0.6,0.1,1,0.2,1.3,0.2h53.8c0.2,0,0.5,0.1,0.9,0.3c0.4,0.2,0.8,0.5,1.2,0.8c0.4,0.3,0.8,0.6,1.1,0.9c0.3,0.3,0.5,0.5,0.5,0.7
			v13.5c0,1.2-0.4,2.2-1.3,3c-0.9,0.8-1.9,1.5-3.2,2c-1.3,0.5-2.7,0.9-4.2,1.2c-1.5,0.3-3,0.5-4.3,0.6c-1.3,0.1-2.5,0.2-3.4,0.2
			c-0.9,0-1.5,0-1.6,0c-1.3,0-2.5-0.1-3.5-0.3c-1.1-0.2-2-0.4-2.9-0.6c-0.9-0.2-1.8-0.4-2.6-0.6c-0.8-0.2-1.7-0.3-2.5-0.3
			c-0.8,0-1.6,0.2-2.3,0.5c-0.7,0.3-1.4,0.5-2.3,0.5c-0.6,0-1.1-0.1-1.5-0.4c-0.4-0.3-0.8-0.6-1.2-1c-0.4-0.3-0.7-0.7-1.1-1
			c-0.4-0.3-0.7-0.4-1.1-0.4c-1.1,0-2.1,0.3-2.8,0.8c-0.7,0.5-1.3,1.2-1.8,2c-0.5,0.8-0.8,1.6-1,2.4c-0.2,0.8-0.3,1.6-0.3,2.2
			c0,1.2,0.3,2.4,1,3.4c0.6,1.1,1.4,2,2.4,2.8c0.9,0.8,2,1.4,3.1,1.9c1.1,0.5,2.1,0.7,3.1,0.7c0.1,0,0.2,0,0.3,0
			c0.1,0,0.2,0,0.2-0.1c0.1,0,0.4-0.2,0.9-0.4c0.5-0.2,0.8-0.4,0.9-0.5c0.5,0,1.2-0.1,2.3-0.2c1-0.1,2.2-0.2,3.5-0.3
			c1.3-0.1,2.7-0.3,4.1-0.4c1.4-0.1,2.8-0.3,4.1-0.4c1.3-0.1,2.5-0.2,3.5-0.3s1.8-0.2,2.3-0.2c0,0,0.1-0.1,0.2-0.1
			c0.1,0,0.2,0,0.3,0c0.6,0,1.3,0,2.1,0c0.8,0,1.5,0.1,2.3,0.3s1.4,0.4,2,0.8c0.6,0.4,1,0.9,1.3,1.5c0,0.1,0,0.4,0,0.7
			c0,0.4,0,0.7,0,1.1c0,0.4,0,0.8,0,1.1c0,0.3,0,0.6,0,0.7c0,0.8,0,2-0.1,3.4c0,1.5-0.2,3-0.4,4.5c-0.2,1.5-0.6,2.9-1.1,4.1
			c-0.5,1.2-1.2,2-2.1,2.4c-2.8,0.3-5.5,0.7-8.2,1.1c-2.6,0.5-5.1,0.7-7.5,0.7c-2.1,0-3.8-0.2-5.4-0.5c-1.5-0.3-3-0.5-4.6-0.5
			c-0.8,0-1.5,0.2-2.2,0.5c-0.7,0.3-1.4,0.5-2.2,0.5c-1.1,0-2.1-0.1-3.2-0.4c-1-0.3-2.1-0.4-3.2-0.4v10.6c-0.1,0.1-0.2,0.3-0.5,0.5
			c-0.2,0.2-0.4,0.5-0.7,0.8c-0.2,0.3-0.5,0.6-0.7,0.8c-0.2,0.3-0.3,0.5-0.4,0.6v0.2c0,0-0.1,0.1-0.1,0.3c0,0,0,0.1,0,0.2
			c0,0.1,0,0.2,0,0.2c0,0.1,0.2,0.2,0.4,0.5c0.2,0.2,0.4,0.4,0.5,0.4c1.4,0.2,2.6,0.4,3.6,0.5c1,0.1,1.9,0.2,2.7,0.3
			c0.8,0.1,1.5,0.1,2.1,0.1c0.6,0,1.3,0,1.9,0c2.4,0,4.6-0.1,6.7-0.3c2.1-0.2,4.1-0.4,6-0.7c1.9-0.3,3.9-0.5,5.8-0.7
			c1.9-0.2,3.9-0.3,5.9-0.3c1.3,0,2.7,0.1,4.3,0.2c1.6,0.2,3.1,0.5,4.4,1.1c1.4,0.6,2.5,1.4,3.5,2.6c0.9,1.1,1.4,2.6,1.4,4.6v1.5
			c0,1-0.1,2.3-0.2,3.8c-0.1,1.5-0.2,3-0.3,4.4c-0.1,1.4-0.2,3.2-0.4,5.3l-0.9,0.9c-0.1,0.1-0.6,0.2-1.4,0.3c-0.9,0.1-2,0.2-3.4,0.4
			c-1.4,0.2-3,0.3-4.8,0.5c-1.8,0.2-3.7,0.3-5.6,0.5c-1.9,0.2-3.8,0.3-5.7,0.5c-1.9,0.2-3.7,0.3-5.3,0.4c-1.6,0.1-3.1,0.2-4.3,0.3
			c-1.2,0.1-2.1,0.1-2.6,0.1c-1,0-2-0.1-2.9-0.3c-0.9-0.2-1.8-0.4-2.7-0.7c-0.9-0.3-1.9-0.5-2.9-0.7c-1-0.2-2.1-0.3-3.3-0.3
			c-1.2,0-2.4,0.1-3.8,0.3c-1.3,0.2-2.7,0.4-4.1,0.7c-1.4,0.2-2.8,0.5-4.2,0.7c-1.4,0.2-2.8,0.3-4.2,0.3c-2.5,0-4.8-0.4-7-1.1
			c-2.2-0.8-4.1-1.8-5.7-3.3c-1.6-1.4-2.9-3.1-3.8-5.1c-0.9-2-1.4-4.2-1.4-6.7c0-0.6,0.1-1,0.3-1.4c0.2-0.3,0.4-0.7,0.7-1
			c0.3-0.3,0.5-0.6,0.7-0.9c0.2-0.3,0.3-0.7,0.3-1.1c0-0.8-0.2-1.6-0.5-2.3c-0.3-0.7-0.5-1.4-0.5-2.2c0-2.1,0.2-4.1,0.5-6.1
			c0.3-1.9,0.5-4,0.5-6.1c0-1.4-0.1-2.9-0.3-4.2c-0.2-1.4-0.4-2.7-0.7-4c-0.2-1.3-0.5-2.6-0.7-3.8c-0.2-1.2-0.3-2.5-0.3-3.6
			s0.1-2.3,0.3-3.4c0.2-1.1,0.4-2.2,0.7-3.2c0.2-1.1,0.5-2.1,0.7-3.1c0.2-1,0.3-2,0.3-3c0-0.7-0.1-1.5-0.2-2.3
			c-0.1-0.8-0.2-1.6-0.3-2.6c-0.1-0.9-0.2-2-0.3-3.3c-0.1-1.3-0.2-2.8-0.2-4.5c0-0.5,0-1.1,0-1.8c0-0.7,0.1-1.5,0.1-2.4
			c0.1-0.9,0.2-1.9,0.3-3.1C486.9,744.6,487.1,743.3,487.3,741.7z M490.9,764.1c0.1,0.3,0.3,0.5,0.6,0.7c0.2,0.2,0.5,0.3,0.8,0.3
			c0.1,0,0.2,0,0.2-0.1h0.2c0.7-0.5,1.2-0.9,1.7-1.2c0.5-0.3,0.8-0.6,1.1-0.9c0.3-0.3,0.5-0.6,0.7-0.9c0.2-0.3,0.2-0.8,0.2-1.3
			c0-0.7-0.1-1.3-0.2-1.8c-0.2-0.5-0.4-1.1-0.8-1.8c-0.5,1.3-1.1,2.6-1.9,3.8C492.7,761.9,491.9,763,490.9,764.1z M490.9,816.1h0.9
			v-0.9h-0.9V816.1z M507.1,739c0-0.1,0-0.2-0.1-0.3c-0.1-0.1-0.2-0.1-0.4-0.1c-0.4,0-0.5,0.1-0.5,0.4c0.1,0.3,0.2,0.4,0.5,0.4
			C506.9,739.4,507,739.3,507.1,739z M514.2,781.2v0.9h0.9L514.2,781.2z M524.3,824.2c0-0.8-0.4-1.4-1.1-1.8v1.8H524.3z M542,747.9
			v0.9h0.9v-0.9H542z M545.6,826.9v-2.1c-0.7,0-1.4,0.1-2,0.4s-0.9,0.8-0.9,1.7H545.6z"/>
		<path class="st0" d="M634,814.3c-0.1-0.8-0.3-1.9-0.6-3.2c-0.3-1.3-0.6-2.6-0.9-4c-0.3-1.4-0.6-2.7-0.9-4
			c-0.3-1.3-0.4-2.4-0.4-3.3c0-1.1,0.2-2.2,0.5-3.2c0.3-1,0.5-2,0.5-3.1c0-1.2-0.3-2.6-0.8-4c-0.5-1.5-1.1-3-1.8-4.7
			s-1.3-3.4-1.8-5.3c-0.5-1.8-0.8-3.7-0.8-5.6c-0.1,0-0.3,0-0.6,0.1s-0.6,0.2-1,0.3c-0.4,0.1-0.7,0.2-1.1,0.3
			c-0.4,0.1-0.6,0.1-0.9,0.1c-0.1,0-0.2,0-0.2-0.1c-1-0.5-2.2-1.5-3.7-3.1c-1.5-1.6-3.1-3.5-4.7-5.7c-1.7-2.2-3.3-4.6-5-7.2
			c-1.7-2.6-3.2-5.1-4.5-7.6c-1.3-2.5-2.4-4.8-3.3-7c-0.8-2.2-1.2-3.9-1.2-5.3c0-0.2,0.1-0.5,0.3-0.9c0.2-0.4,0.5-0.8,0.8-1.2
			c0.3-0.4,0.6-0.7,0.9-1.1c0.3-0.3,0.5-0.5,0.7-0.5h25.1c1.1,0,2.3,0.6,3.6,1.8c1.3,1.2,2.5,2.7,3.7,4.5c1.2,1.8,2.4,3.9,3.5,6.2
			c1.1,2.3,2.1,4.5,2.9,6.7c0.8,2.2,1.5,4.2,1.9,6.1s0.6,3.3,0.5,4.4c1.7-1.5,3.2-3.3,4.5-5.4c1.3-2.1,2.6-4.3,3.8-6.7
			c1.2-2.3,2.4-4.6,3.7-7c1.2-2.3,2.7-4.4,4.2-6.2c1.6-1.8,3.4-3.3,5.4-4.5c2-1.1,4.4-1.7,7.2-1.7h0.5c0.1,0,0.2,0.1,0.3,0.1
			c0.1,0,0.4,0.1,0.7,0.3c0.3,0.2,0.7,0.3,1.1,0.5c0.4,0.2,0.8,0.4,1.1,0.6c0.3,0.2,0.6,0.3,0.7,0.4h12.5c0.7,0,1.4,0.3,2,0.8
			c0.6,0.5,1.1,1.1,1.4,1.8c0.4,0.7,0.7,1.5,0.9,2.3c0.2,0.8,0.3,1.5,0.3,2c0,1.2-0.5,2.7-1.4,4.4c-0.9,1.7-2.1,3.6-3.7,5.6
			c-1.5,2-3.3,4.2-5.2,6.5s-3.9,4.6-5.9,7c-2,2.4-4,4.7-5.9,7.1c-1.9,2.4-3.7,4.7-5.2,6.9c-1.5,2.2-2.8,4.3-3.7,6.3
			c-0.9,2-1.4,3.7-1.4,5.3v0.5c0,0,0.1,0.2,0.2,0.3c0.1,0.2,0.2,0.4,0.3,0.6s0.2,0.4,0.3,0.6c0.1,0.2,0.2,0.3,0.2,0.3
			c0.1,0.3,0.2,0.8,0.3,1.4c0.1,0.6,0.2,1.3,0.3,1.9c0.1,0.7,0.2,1.3,0.3,1.8c0.1,0.5,0.1,0.9,0.1,1.1c0,2.5-0.1,4.9-0.3,7.2
			c-0.2,2.3-0.5,4.6-0.7,7c-0.3,2.3-0.5,4.7-0.7,7.1c-0.2,2.4-0.2,4.9-0.1,7.5c-0.2,0.3-0.6,0.7-1.2,1.2c-0.6,0.4-1.1,0.7-1.4,0.7
			h-15.3c0-0.3-0.2-0.6-0.7-1.1c-0.5-0.5-0.8-0.7-1.1-0.7c-0.1,0-0.3,0.1-0.5,0.3c-0.3,0.2-0.5,0.4-0.8,0.6
			c-0.3,0.2-0.6,0.5-0.8,0.7c-0.3,0.2-0.4,0.3-0.5,0.3c0,0-0.3,0-0.9,0s-0.9,0-1.2,0c-1.2,0-2.2-0.2-3-0.5c-0.8-0.3-1.4-0.8-1.8-1.4
			c-0.4-0.6-0.7-1.4-0.9-2.3c-0.2-0.9-0.3-1.9-0.3-3.1c0-0.8,0.1-1.5,0.3-2.3c0.2-0.7,0.4-1.4,0.7-2.1c0.2-0.7,0.5-1.4,0.7-2.1
			c0.2-0.7,0.3-1.3,0.3-2V814.3z M614.7,744.4h0.5c0.1-0.7-0.1-1.2-0.5-1.5c-0.4-0.4-0.9-0.6-1.5-0.8c-0.6-0.2-1.2-0.3-1.8-0.3
			c-0.6,0-1.2-0.1-1.6-0.1c-0.1,0-0.2,0-0.5,0c-0.2,0-0.4,0-0.5,0c0.2,0.4,0.6,0.7,1.2,1.1c0.6,0.4,1.2,0.6,1.8,0.9
			c0.7,0.3,1.5,0.6,2.4,0.8H614.7z M616,745.3c0,0.1,0.2,0.2,0.4,0.5c0.2,0.2,0.4,0.4,0.5,0.4h0.2c0,0,0.1,0.1,0.3,0.1
			c0,0,0.1,0,0.2,0c0.1,0,0.2,0,0.2,0c-0.1-0.1-0.2-0.2-0.5-0.5c-0.2-0.2-0.4-0.3-0.5-0.4c0,0-0.1-0.1-0.2-0.1s-0.2,0-0.3,0
			c0,0-0.1,0-0.2,0C616.2,745.2,616.1,745.3,616,745.3z M618.7,746.2c-0.2,0-0.4,0.1-0.5,0.3c-0.1,0.2-0.2,0.4-0.2,0.6
			c0,0.2,0.1,0.4,0.2,0.6c0.1,0.2,0.3,0.3,0.5,0.3c0.2,0,0.4-0.1,0.5-0.3c0.1-0.2,0.2-0.4,0.2-0.6c0-0.2-0.1-0.4-0.2-0.6
			C619.1,746.2,618.9,746.2,618.7,746.2z M629.4,753.3c0.2,0.6,0.6,0.9,1.2,1.1c0.6,0.1,1.1,0.2,1.5,0.2v-1.2H629.4z M641.8,819.7
			c0,0.8,0.4,1.4,1.1,1.8v-1.8H641.8z M650.1,800.9c-0.2,0-0.4,0.1-0.5,0.3c-0.1,0.2-0.2,0.4-0.2,0.6c0,0.2,0.1,0.4,0.2,0.6
			c0.1,0.2,0.3,0.3,0.5,0.3c0.2,0,0.4-0.1,0.5-0.3c0.1-0.2,0.2-0.4,0.2-0.6c0-0.2-0.1-0.4-0.2-0.6
			C650.5,800.9,650.3,800.9,650.1,800.9z M676.1,740.8c-0.2,0-0.4,0.1-0.5,0.3c-0.1,0.2-0.2,0.4-0.2,0.6c0,0.2,0.1,0.4,0.2,0.6
			c0.1,0.2,0.3,0.3,0.5,0.3s0.4-0.1,0.5-0.3c0.1-0.2,0.2-0.4,0.2-0.6c0-0.2-0.1-0.4-0.2-0.6C676.5,740.9,676.3,740.8,676.1,740.8z"
			/>
		<path class="st0" d="M691.4,786.5c0-0.1,0-0.4-0.1-0.9c-0.1-0.5-0.2-1.1-0.3-1.8c-0.1-0.7-0.2-1.3-0.3-2c-0.1-0.7-0.2-1.2-0.2-1.6
			v-0.4c0-2.5,0-4.6,0.1-6.2s0.2-3.2,0.5-4.5c0.3-1.3,0.7-2.7,1.3-4c0.6-1.3,1.4-2.8,2.5-4.6c0,0,0-0.1,0-0.2c0-0.1,0-0.2,0-0.3
			c0-0.6-0.2-1.1-0.5-1.6c-0.3-0.4-0.5-1-0.5-1.6c0-0.7,0.1-1.3,0.4-1.8c0.3-0.5,0.7-1,1.1-1.5s1-1.2,1.6-1.9c0.6-0.7,1.3-1.7,2-3
			c1.3-2.2,2.7-4,4.3-5.5c1.6-1.5,3.3-2.8,5.1-3.8c1.8-1,3.7-1.8,5.6-2.3c1.9-0.5,3.8-1,5.6-1.2c1.8-0.3,3.5-0.4,5.2-0.5
			c1.6-0.1,3.1-0.1,4.3-0.1c3,0,6.3,0.1,10,0.2c3.6,0.2,7.3,0.5,11,1.1c3.7,0.5,7.3,1.4,10.8,2.5s6.6,2.6,9.3,4.6
			c2.7,1.9,4.9,4.4,6.5,7.3c1.6,2.9,2.5,6.4,2.5,10.6c0,1.1-0.1,2-0.2,2.8c-0.1,0.8-0.2,1.4-0.3,2c-0.1,0.5-0.2,1.1-0.3,1.5
			c-0.1,0.5-0.2,1-0.2,1.6c0,1,0.1,2,0.4,3.1c0.3,1.1,0.6,2.3,1,3.4c0.4,1.2,0.7,2.4,1,3.6c0.3,1.2,0.4,2.5,0.4,3.7
			c0,0.3,0,0.7,0,1.3s0,1.3,0,2c0,0.7,0,1.4,0,2c0,0.6,0,1.1,0,1.3c0,0.1-0.1,0.3-0.2,0.5c-0.1,0.3-0.2,0.5-0.3,0.8
			c-0.1,0.3-0.2,0.5-0.3,0.8c-0.1,0.2-0.1,0.4-0.1,0.6c-0.2,3.6-0.5,7-0.9,10.3c-0.4,3.3-1,6.3-1.9,9.1c-0.9,2.8-2,5.3-3.5,7.6
			c-1.4,2.3-3.3,4.2-5.6,5.8c-2.3,1.6-5,2.8-8.2,3.7s-7.1,1.3-11.5,1.3c-0.4,0-0.8,0-1.4,0c-0.6,0-0.9,0-1,0c-0.1,0-0.3-0.1-0.5-0.3
			c-0.3-0.2-0.5-0.4-0.8-0.7c-0.3-0.2-0.6-0.4-0.8-0.6c-0.3-0.2-0.4-0.3-0.5-0.3s-0.3,0.1-0.5,0.4c-0.2,0.3-0.5,0.6-0.8,0.9
			c-0.3,0.3-0.6,0.6-0.9,0.9c-0.3,0.3-0.4,0.4-0.5,0.5c0,0-0.2,0.1-0.7,0.1c-0.5,0-0.9,0-1.1,0c-0.3,0-0.7,0-1.4,0s-1.1,0-1.2-0.1
			c-0.6,0-1.7,0-3.2-0.1c-1.5-0.1-3.2-0.2-4.9-0.3c-1.7-0.1-3.3-0.2-4.9-0.3c-1.5-0.1-2.6-0.2-3.2-0.2c-0.7-1.1-1.5-1.8-2.4-2.1
			c-0.9-0.4-1.8-0.6-2.8-0.8c-1-0.1-2.1-0.3-3.3-0.4c-1.2-0.1-2.6-0.5-4-1.1c-2.5-1-4.7-2.5-6.7-4.5c-2-2-3.7-4.3-5.1-6.9
			c-1.4-2.6-2.5-5.3-3.3-8.2c-0.8-2.9-1.1-5.7-1.1-8.3c0-1.1,0.1-2,0.2-2.9c0.1-0.9,0.2-1.6,0.3-2.4c0.1-0.7,0.2-1.4,0.3-2.1
			c0.1-0.7,0.2-1.4,0.2-2.1v-0.5c0-0.1-0.2-0.4-0.5-0.9C691.6,786.9,691.4,786.6,691.4,786.5z M700.4,754.2v0.2c0,0-0.1,0.1-0.1,0.3
			c0,0.1,0,0.2,0,0.3s0,0.2,0,0.2c0,0.1,0.2,0.2,0.4,0.5c0.2,0.2,0.4,0.4,0.5,0.4c0,0,0.1,0.1,0.2,0.1c0.1,0,0.2,0,0.2,0
			c0.1,0,0.2,0,0.3,0s0.2,0,0.2-0.1c0.1,0,0.3-0.1,0.6-0.3c0.3-0.2,0.5-0.3,0.8-0.5c0.3-0.2,0.5-0.4,0.8-0.6
			c0.2-0.2,0.4-0.3,0.5-0.4c-0.1,0-0.3-0.1-0.5-0.2c-0.3-0.1-0.5-0.2-0.8-0.3c-0.3-0.1-0.5-0.2-0.8-0.3c-0.2-0.1-0.4-0.2-0.6-0.2
			h-0.5h-0.4c-0.1,0.1-0.3,0.2-0.5,0.5C700.5,754,700.4,754.1,700.4,754.2z M702.1,808.9c-0.2,0-0.4,0.1-0.5,0.3
			c-0.1,0.2-0.2,0.4-0.2,0.6c0,0.2,0.1,0.4,0.2,0.6c0.1,0.2,0.3,0.3,0.5,0.3c0.2,0,0.4-0.1,0.5-0.3c0.1-0.2,0.2-0.4,0.2-0.6
			c0-0.2-0.1-0.4-0.2-0.6C702.5,809,702.3,808.9,702.1,808.9z M703,810.7c-0.1-0.1-0.2,0-0.3,0.2c-0.1,0.2-0.1,0.5-0.1,0.7
			c0,0.3,0,0.5,0.1,0.7c0.1,0.2,0.2,0.3,0.3,0.2c0.3-0.2,0.4-0.5,0.4-1C703.4,811.1,703.3,810.8,703,810.7z M708.4,821.5
			c0.5,0.4,0.9,0.7,1.3,0.8c0.4,0.1,0.8,0.1,1.4,0.1h0.9c-0.1-0.2-0.4-0.5-0.8-1s-0.8-0.8-1-0.9h-0.4h-0.5c-0.1,0.1-0.2,0.2-0.5,0.5
			C708.6,821.2,708.5,821.4,708.4,821.5z M715.6,756.4h0.9c0.4,0,0.9,0,1.3-0.1c0.4,0,0.8-0.1,1.2-0.3c0.4-0.2,0.7-0.4,0.9-0.7
			c0.2-0.3,0.4-0.7,0.4-1.2c-0.1,0-0.3,0-0.6,0c-0.3,0-0.5,0-0.6,0c-0.3,0-0.6,0.1-1,0.2c-0.4,0.1-0.8,0.2-1.2,0.3
			c-0.4,0.1-0.9,0.3-1.4,0.4V756.4z M720,784.3v0.4c0.1,0.2,0.2,0.5,0.5,1c0.2,0.5,0.4,0.8,0.5,0.9v14.3c0,0.7,0.3,1.4,1,2
			c0.6,0.6,1.4,1.2,2.4,1.7c1,0.5,2.1,1,3.3,1.4c1.2,0.4,2.5,0.8,3.7,1.1c1.2,0.3,2.4,0.5,3.5,0.7c1.1,0.2,2,0.2,2.8,0.2
			c1.7,0,3.4-0.4,5-1.2c1.6-0.8,3.1-1.9,4.4-3.3c1.3-1.4,2.3-3,3.1-4.8c0.8-1.8,1.2-3.7,1.2-5.6c0-1.3-0.2-2.6-0.5-4
			c-0.3-1.4-0.6-2.8-1-4.2c-0.4-1.4-0.7-2.8-1-4.2c-0.3-1.4-0.5-2.7-0.5-4c0-0.4,0-0.8,0-1.4c0-0.6,0-1.2,0-1.8c0-0.6,0-1.1,0-1.5
			c0-0.4,0-0.7,0-0.7l1.8-2.6c0.1-0.2-0.1-0.6-0.7-1.2c-0.6-0.6-1.3-1.3-2.3-2.1c-0.9-0.8-2-1.7-3.2-2.5c-1.2-0.9-2.3-1.7-3.3-2.4
			c-1.1-0.7-2-1.4-2.8-1.8c-0.8-0.5-1.3-0.7-1.6-0.7c-1.3,0-2.7,0.3-4.1,0.8c-1.4,0.5-2.8,1.1-4.2,1.9c-1.4,0.8-2.6,1.7-3.7,2.6
			c-1.1,1-2,1.9-2.8,2.8c0,0.5,0,1.5-0.1,2.8c-0.1,1.4-0.2,2.8-0.3,4.3c-0.1,1.5-0.2,3-0.3,4.3c-0.1,1.4-0.2,2.3-0.2,2.9
			c0,0.1-0.1,0.3-0.2,0.7c-0.1,0.3-0.2,0.7-0.3,1.1c-0.1,0.4-0.2,0.8-0.3,1.1c-0.1,0.3-0.2,0.6-0.2,0.7V784.3z M731.7,743.5h0.9
			l-0.9-0.9V743.5z M747,821.5c-0.2,0-0.4,0.1-0.5,0.3c-0.1,0.2-0.2,0.4-0.2,0.6c0,0.2,0.1,0.4,0.2,0.6c0.1,0.2,0.3,0.3,0.5,0.3
			s0.4-0.1,0.5-0.3c0.1-0.2,0.2-0.4,0.2-0.6c0-0.2-0.1-0.4-0.2-0.6C747.4,821.6,747.2,821.5,747,821.5z M760.6,810
			c0-1.5-0.7-2.2-2.2-2.2c0,0.7,0.2,1.2,0.6,1.6C759.4,809.8,760,810,760.6,810z M761.3,809.8c-0.2,0-0.4,0.1-0.5,0.3
			c-0.1,0.2-0.2,0.4-0.2,0.6c0,0.2,0.1,0.4,0.2,0.6c0.1,0.2,0.3,0.3,0.5,0.3s0.4-0.1,0.5-0.3c0.1-0.2,0.2-0.4,0.2-0.6
			c0-0.2-0.1-0.4-0.2-0.6C761.7,809.9,761.5,809.8,761.3,809.8z M765.1,819.7c0-0.8-0.4-1.4-1.1-1.8v1.8H765.1z M772.1,748.8
			c0-0.1,0-0.2-0.1-0.3c-0.1-0.1-0.2-0.1-0.4-0.1s-0.3,0-0.4,0.1c-0.1,0.1-0.1,0.2,0,0.3c0.1,0.3,0.2,0.4,0.4,0.4
			C771.9,749.2,772,749.1,772.1,748.8z M772.1,765.9v1.8l0.9-0.9L772.1,765.9z"/>
		<path class="st0" d="M789,754.8c0-0.7,0-1.7,0-2.9s0.1-2.5,0.2-4c0.1-1.4,0.4-2.9,0.7-4.4c0.3-1.5,0.8-2.8,1.4-4
			c0.6-1.2,1.4-2.2,2.3-3c0.9-0.8,2.1-1.1,3.5-1.1H815c1.5,0,2.7,0.3,3.4,1c0.8,0.7,1.3,1.6,1.6,2.7s0.5,2.3,0.6,3.6
			c0,1.3,0.1,2.6,0.1,3.9s0.1,2.4,0.3,3.5c0.2,1.1,0.6,1.9,1.2,2.4c0,0.3,0,0.8,0,1.5s0,1.5,0,2.3c0,0.8,0,1.6,0,2.3
			c0,0.7,0,1.2,0,1.5c0,1.7-0.1,3.5-0.4,5.3c-0.3,1.8-0.6,3.6-1,5.4c-0.4,1.8-0.7,3.5-1,5.3c-0.3,1.7-0.4,3.3-0.4,4.8
			c0,1.6,0.2,3.2,0.5,4.8c0.3,1.6,0.6,3.3,1,5c0.4,1.7,0.7,3.4,1,5.1c0.3,1.7,0.4,3.4,0.3,5.1c0.6,0.1,1.2,0.4,1.8,1
			c0.7,0.5,1.3,1.1,1.9,1.6c0.6,0.6,1.1,1.1,1.6,1.7c0.5,0.5,0.8,0.9,1,1.1c0.8-0.7,1.7-1.3,2.7-1.8c1-0.4,2.1-0.8,3.3-1
			c1.1-0.2,2.3-0.4,3.4-0.5c1.1-0.1,2.2-0.2,3.2-0.3c0.5-1.4,1-3,1.4-4.8c0.4-1.7,0.8-3.4,1.1-5.2c0.3-1.7,0.6-3.3,0.8-4.9
			c0.2-1.5,0.3-2.8,0.3-3.9c0-0.9-0.1-1.6-0.2-2.2c-0.1-0.6-0.2-1.1-0.3-1.6c-0.1-0.5-0.2-1-0.3-1.5c-0.1-0.5-0.2-1-0.2-1.6
			c0-1.2,0.2-2.4,0.5-3.5c0.3-1.1,0.5-2.3,0.5-3.6v-0.4c0-0.1-0.2-0.4-0.3-0.7c-0.2-0.3-0.4-0.7-0.6-1.1c-0.2-0.4-0.4-0.7-0.5-1.1
			c-0.2-0.3-0.3-0.6-0.4-0.7v-23.3c0.7-0.7,1.2-1.6,1.5-2.6c0.3-1,0.5-1.9,0.9-2.7c0.3-0.8,0.7-1.5,1.3-2.1s1.5-0.9,2.8-0.9h1
			c0.6,0,1.2,0.1,1.7,0.2c0.5,0.1,1,0.4,1.5,0.8h14.4c1,0,1.9,0.2,2.7,0.6c0.8,0.4,1.4,1,2,1.7c0.6,0.7,1,1.5,1.3,2.4
			c0.3,0.9,0.4,1.8,0.4,2.6c0,0.2,0,0.5,0,0.9s0,0.7,0,1.1c0,0.4,0,0.7-0.1,1c0,0.3,0,0.4,0,0.5c0,0,0,0.2-0.1,0.3
			c-0.1,0.2-0.2,0.4-0.3,0.6c-0.1,0.2-0.2,0.4-0.3,0.6c-0.1,0.2-0.1,0.3-0.1,0.3c0,0.1,0,0.3,0.1,0.6c0.1,0.3,0.1,0.5,0.2,0.8
			c0.1,0.3,0.2,0.5,0.3,0.8c0.1,0.2,0.2,0.4,0.2,0.5v13.5c0,0.5-0.2,1-0.5,1.4c-0.4,0.5-0.8,0.9-1.2,1.3c-0.5,0.4-1,0.7-1.5,1.1
			c-0.5,0.3-0.9,0.5-1.2,0.7c0.2,0,0.7,0.2,1.3,0.4c0.7,0.2,1.1,0.4,1.3,0.5c0.3,0.1,0.6,0.3,1.1,0.5c0.5,0.2,0.7,0.4,0.7,0.4v10.8
			c-0.1,0.1-0.2,0.4-0.5,0.9c-0.2,0.5-0.4,0.8-0.4,0.9v0.2c0,0-0.1,0.1-0.1,0.2c0,0.1,0,0.2,0,0.3c0,0.1,0,0.2,0,0.2
			c0,0.1,0.1,0.3,0.2,0.7c0.1,0.4,0.2,0.7,0.3,1.1c0.1,0.4,0.2,0.8,0.3,1.1c0.1,0.3,0.1,0.6,0.1,0.7s-0.1,0.3-0.3,0.7
			c-0.2,0.3-0.4,0.7-0.6,1.1c-0.2,0.4-0.4,0.8-0.6,1.1c-0.2,0.3-0.3,0.6-0.3,0.7v0.2c0,0-0.1,0.1-0.1,0.3c0,0.4,0.1,0.9,0.3,1.3
			c0.2,0.4,0.4,1,0.7,1.7c0.2,0.7,0.5,1.7,0.7,2.9c0.2,1.2,0.3,2.8,0.3,4.7c0,1.5-0.1,3.1-0.3,4.9c-0.2,1.8-0.6,3.6-1.3,5.5
			c-0.7,1.9-1.7,3.9-3,5.8c-1.3,2-3.1,4-5.3,5.9c-0.7-0.4-1.3-0.6-1.9-0.6c-0.8,0-1.6,0.3-2.3,0.9c-0.7,0.6-1.3,1.3-2,2
			c-0.7,0.7-1.3,1.4-2.1,2c-0.7,0.6-1.6,1-2.5,1h-1.8h-8.9c-0.7,0-1.5,0-2.3,0.1c-0.8,0.1-1.5,0.3-2.2,0.8h-16.1
			c-0.1-0.1-0.4-0.3-0.7-0.5c-0.3-0.2-0.7-0.4-1.1-0.6c-0.4-0.2-0.7-0.4-1.1-0.5c-0.4-0.2-0.6-0.3-0.8-0.3c0,0-0.2,0-0.5,0.1
			c-0.3,0.1-0.6,0.2-0.9,0.3c-0.3,0.1-0.6,0.2-0.8,0.3c-0.3,0.1-0.4,0.1-0.5,0.1c0,0-0.2,0-0.6,0c-0.3,0-0.7,0-1.1,0.1
			c-0.4,0-0.8,0-1.2,0c-0.4,0-0.8,0-1,0c-1.7,0-3.6-0.4-5.7-1.1c-2.1-0.8-4.2-1.8-6.1-3.1c-1.9-1.3-3.5-2.8-4.8-4.5
			c-1.3-1.7-1.9-3.5-1.9-5.4c0-0.6,0.1-1,0.2-1.3c0.1-0.3,0.2-0.6,0.3-0.8c0.1-0.2,0.2-0.4,0.3-0.6c0.1-0.2,0.2-0.5,0.2-0.8
			c0-1.9-0.3-3.9-0.9-6.2c-0.6-2.3-1.2-4.6-1.9-7c-0.7-2.4-1.3-4.8-1.9-7.2c-0.6-2.4-0.9-4.8-0.9-7v-0.8c0-0.1,0.2-0.4,0.3-0.9
			c0.2-0.4,0.4-0.9,0.6-1.4s0.4-1,0.6-1.4c0.2-0.4,0.3-0.7,0.3-0.9c0-0.2-0.1-0.5-0.3-1c-0.2-0.5-0.4-0.7-0.6-0.8
			c0.1-2.4,0.1-4.5,0-6.4c-0.1-1.9-0.2-3.7-0.3-5.5c-0.1-1.7-0.3-3.5-0.4-5.2C789.1,758.7,789,756.8,789,754.8z M803.6,774.9
			c0-0.4-0.1-0.9-0.2-1.5c-0.1-0.6-0.4-1-1-1.2l-2.7,2.7H803.6z M807.8,812.5c0.3,0.7,0.9,1.1,1.8,1.1v-2.2
			C808.8,811.4,808.2,811.8,807.8,812.5z M825.8,815.2c-0.1,0-0.2,0-0.3,0.1c-0.1,0.1-0.1,0.2-0.1,0.4c0,0.1,0,0.3,0.1,0.4
			c0.1,0.1,0.2,0.1,0.3,0.1c0.3-0.1,0.4-0.2,0.4-0.5C826.2,815.4,826,815.3,825.8,815.2z M851.8,766.6c-0.5,0-1,0.2-1.4,0.6
			c-0.4,0.4-0.6,0.9-0.6,1.4h2V766.6z M850.8,741.7c0.1,0.1,0.4,0.2,0.9,0.5c0.5,0.2,0.8,0.4,1,0.5h0.5h0.4c0-0.2-0.1-0.5-0.4-1
			c-0.2-0.5-0.4-0.8-0.5-0.9l-0.2-0.1h-0.3c0,0-0.1,0-0.2,0c-0.1,0-0.2,0-0.2,0c-0.1,0.1-0.2,0.2-0.5,0.5S850.9,741.6,850.8,741.7z
			 M860.8,806.2c-0.1,0-0.2,0-0.3,0.1c-0.1,0.1-0.1,0.2-0.1,0.4s0,0.3,0.1,0.4c0.1,0.1,0.2,0.1,0.3,0.1c0.3-0.1,0.4-0.2,0.4-0.5
			C861.2,806.5,861,806.3,860.8,806.2z M862.5,794.2L862.5,794.2c0,0.1,0,0.1,0,0.1s0,0,0,0.1v0.2c0,0.1,0.2,0.3,0.4,0.5
			c0.2,0.2,0.4,0.4,0.5,0.4c0.6-0.2,0.9-0.6,1-1.3c0.1-0.6,0.2-1.2,0.2-1.6c-0.5,0-1,0.1-1.4,0.3
			C862.7,793.1,862.5,793.5,862.5,794.2z"/>
	</g>
	<g>
		<path class="st0" d="M549.7,327.7c0.8,0.1,1.5,0.2,2.1,0.2v-1.6h-3.7C548.4,327.1,548.9,327.5,549.7,327.7z"/>
		<polygon class="st0" points="453.3,352.1 454.6,350.8 453.3,349.6 		"/>
		<path class="st0" d="M434.6,406.9c0,0.9,0.3,1.6,0.9,2.2c0.6,0.6,1.3,0.9,2.2,0.9C437.7,407.9,436.7,406.9,434.6,406.9z"/>
		<path class="st0" d="M438.6,409.7c-0.3,0-0.5,0.1-0.7,0.4c-0.1,0.2-0.2,0.5-0.2,0.9c0,0.3,0.1,0.6,0.2,0.9
			c0.1,0.2,0.4,0.4,0.7,0.4c0.3,0,0.5-0.1,0.7-0.4c0.2-0.2,0.3-0.5,0.3-0.9c0-0.3-0.1-0.6-0.3-0.9
			C439.1,409.8,438.9,409.7,438.6,409.7z"/>
		<path class="st0" d="M442.3,420.6v2.5h1.5C443.8,422,443.3,421.2,442.3,420.6z"/>
		<path class="st0" d="M495.4,383.9l-1.3,2.4c0.1-0.1,0.3-0.2,0.6-0.5c0.3-0.3,0.5-0.5,0.6-0.6V383.9z"/>
		<path class="st0" d="M502.8,421.9l-1.3,3.7h3.7c-0.2-0.7-0.6-1.3-0.9-2C503.9,422.9,503.4,422.3,502.8,421.9z"/>
		<path class="st0" d="M539.4,359.1c-0.9,0.6-1.8,1.2-2.6,1.9c-0.8,0.7-1.5,1.3-2.1,2.1c0,0.2,0.1,0.4,0.4,0.7
			c0.3,0.3,0.5,0.4,0.7,0.4c0.1,0,0.2-0.1,0.4-0.2c0.2-0.1,0.5-0.3,0.8-0.4c0.3-0.1,0.6-0.3,0.8-0.4s0.4-0.2,0.4-0.2
			c0.2-0.1,0.5-0.1,0.9-0.1c0.4,0,0.9,0,1.5,0c0.5,0,1,0,1.5,0s0.8,0,0.9,0.1c0.1-0.2,0.1-0.6,0.3-1.2c0.1-0.6,0.3-1.2,0.4-1.8
			c0.1-0.7,0.3-1.3,0.4-1.9c0.1-0.6,0.2-1,0.2-1.3v-1.2c-0.7,0.5-1.4,1.1-2.3,1.7C541.2,358,540.3,358.5,539.4,359.1z"/>
		<path class="st0" d="M498.5,402c-0.3-0.5-0.7-0.9-1.3-1.2c-0.6-0.3-1.3-0.4-2.3-0.4c0,1.4,0.4,2.5,1.2,3.2
			c0.8,0.8,1.8,1.6,2.9,2.4c0-0.8,0-1.5-0.1-2.2C499,403.1,498.8,402.5,498.5,402z"/>
		<path class="st0" d="M453.2,325.9c-0.1-0.1-0.3-0.1-0.5-0.1c-0.2,0-0.3,0-0.5,0.1c-0.1,0.1-0.2,0.2,0,0.4c0.1,0.4,0.3,0.5,0.5,0.5
			c0.4,0,0.6-0.2,0.6-0.5C453.4,326.1,453.3,326,453.2,325.9z"/>
		<path class="st0" d="M423.2,375.6c-0.5-1.9-0.9-3.9-1.3-5.8c-0.4-1.9-0.6-3.7-0.6-5.5c0-0.5,0-1.1,0-1.9c0-0.8,0-1.6,0-2.4
			c0-0.8,0-1.5,0-2.1c0-0.6,0-0.9,0-1l2.5-3.6c0.2-0.3-0.1-0.9-0.9-1.7c-0.8-0.8-1.8-1.8-3.1-2.9c-1.3-1.1-2.7-2.3-4.3-3.5
			c-1.6-1.2-3.1-2.3-4.6-3.3c-1.5-1-2.8-1.9-3.9-2.5c-1.1-0.7-1.8-1-2.2-1c-1.8,0-3.7,0.3-5.7,1c-2,0.7-3.9,1.6-5.7,2.6
			c-1.9,1.1-3.5,2.3-5.1,3.6c-1.5,1.3-2.8,2.6-3.8,3.9c0,0.7-0.1,2-0.2,3.9c-0.1,1.9-0.2,3.8-0.4,5.9c-0.1,2.1-0.3,4-0.4,5.9
			c-0.2,1.9-0.3,3.2-0.3,3.9c0,0.1-0.1,0.4-0.2,0.9c-0.1,0.5-0.3,1-0.4,1.6c-0.1,0.6-0.3,1.1-0.4,1.6c-0.1,0.5-0.2,0.8-0.2,0.9v0.6
			v0.5c0.1,0.2,0.3,0.7,0.6,1.3s0.5,1,0.6,1.2v19.6c0,1,0.4,1.9,1.3,2.7c0.9,0.9,2,1.7,3.3,2.4c1.3,0.7,2.9,1.4,4.6,2
			c1.7,0.6,3.4,1.1,5.1,1.5c1.7,0.4,3.3,0.7,4.8,0.9c1.5,0.2,2.8,0.3,3.8,0.3c2.3,0,4.6-0.6,6.9-1.7c2.2-1.1,4.3-2.6,6-4.5
			c1.8-1.9,3.2-4.1,4.3-6.6c1.1-2.5,1.6-5,1.6-7.7c0-1.7-0.2-3.5-0.6-5.4C424.2,379.5,423.7,377.6,423.2,375.6z"/>
		<path class="st0" d="M359.5,333c-0.4-0.1-0.7-0.2-1.1-0.4c-0.3-0.1-0.6-0.2-0.8-0.3h-0.6h-0.5c-0.1,0.1-0.3,0.3-0.7,0.6
			c-0.3,0.3-0.5,0.5-0.6,0.6v0.3c-0.1,0.1-0.1,0.2-0.1,0.4c0,0.1,0,0.2,0,0.4c0,0.1,0,0.2,0,0.3c0.1,0.1,0.3,0.3,0.6,0.6
			c0.3,0.3,0.6,0.5,0.7,0.5c0,0.1,0.1,0.1,0.2,0.1s0.3,0,0.3,0c0.1,0,0.3,0,0.4,0c0.1,0,0.2,0,0.2-0.1c0.2-0.1,0.4-0.2,0.8-0.4
			c0.4-0.2,0.7-0.4,1.1-0.7c0.4-0.3,0.7-0.5,1.1-0.8c0.3-0.2,0.6-0.4,0.7-0.5c-0.1-0.1-0.4-0.1-0.7-0.3
			C360.3,333.3,359.9,333.1,359.5,333z"/>
		<path class="st0" d="M368.7,424.3h-0.5h-0.7c-0.1,0.1-0.3,0.3-0.6,0.6c-0.3,0.3-0.5,0.5-0.5,0.6c0.7,0.6,1.2,1,1.8,1.1
			c0.5,0.1,1.2,0.2,1.9,0.2h1.2c-0.1-0.2-0.5-0.7-1.1-1.3C369.4,424.9,369,424.5,368.7,424.3z"/>
		<path class="st0" d="M358.7,409.7c0-0.3-0.1-0.6-0.3-0.9c-0.2-0.2-0.4-0.4-0.7-0.4c-0.3,0-0.5,0.1-0.7,0.4
			c-0.1,0.2-0.2,0.5-0.2,0.9c0,0.3,0.1,0.6,0.2,0.9c0.1,0.2,0.4,0.4,0.7,0.4c0.3,0,0.5-0.1,0.7-0.4
			C358.6,410.3,358.7,410,358.7,409.7z"/>
		<path class="st0" d="M358.6,411.1c-0.1,0.3-0.1,0.6-0.1,1s0,0.7,0.1,0.9c0.1,0.3,0.2,0.4,0.4,0.3c0.4-0.2,0.5-0.7,0.5-1.3
			s-0.2-1-0.5-1.2C358.8,410.7,358.6,410.8,358.6,411.1z"/>
		<polygon class="st0" points="398.2,317.8 398.2,318.9 399.4,318.9 		"/>
		<path class="st0" d="M419,425.6c-0.3,0-0.5,0.1-0.7,0.4c-0.1,0.2-0.2,0.5-0.2,0.9c0,0.3,0.1,0.6,0.2,0.9c0.1,0.2,0.4,0.4,0.7,0.4
			c0.3,0,0.5-0.1,0.7-0.4c0.2-0.2,0.3-0.5,0.3-0.9c0-0.3-0.1-0.6-0.3-0.9C419.6,425.7,419.3,425.6,419,425.6z"/>
		<path class="st0" d="M381.8,333.6c-0.4,0-0.6,0-0.8,0c-0.4,0.1-0.8,0.2-1.4,0.3c-0.6,0.1-1.1,0.3-1.7,0.4
			c-0.5,0.1-1.2,0.3-1.9,0.6v1.7h1.3c0.6,0,1.2,0,1.8-0.1c0.6-0.1,1.2-0.2,1.7-0.4c0.5-0.2,0.9-0.5,1.3-0.9c0.3-0.4,0.5-0.9,0.5-1.7
			C382.4,333.6,382.2,333.6,381.8,333.6z"/>
		<path class="st0" d="M675.6,341.7c-0.5,0-0.7,0.2-0.6,0.5c0.1,0.4,0.3,0.5,0.6,0.5s0.5-0.2,0.5-0.5c0.1-0.2,0-0.3-0.1-0.4
			C675.9,341.8,675.7,341.7,675.6,341.7z"/>
		<rect x="678.7" y="321.4" class="st0" width="1.2" height="1.2"/>
		<path class="st0" d="M655.7,328.9c0.8,0.2,1.5,0.3,2.1,0.3v-1.6h-3.7C654.4,328.3,654.9,328.7,655.7,328.9z"/>
		<polygon class="st0" points="672.5,420.6 672.5,418.2 671.3,418.2 		"/>
		<polygon class="st0" points="659,399.8 660.3,398.7 659,397.4 		"/>
		<path class="st0" d="M673.7,421.9c-0.2-0.1-0.3,0-0.4,0.1c-0.1,0.2-0.1,0.3-0.1,0.5c0,0.2,0,0.3,0.1,0.5c0.1,0.1,0.2,0.2,0.4,0.1
			c0.4-0.1,0.5-0.3,0.5-0.6C674.3,422.2,674.1,422,673.7,421.9z"/>
		<path class="st0" d="M795.4,244.6c17-29.3,37.6-55.8,60.7-80.5c1-1,1.8-2.2,3.3-3.9c-5.6-0.9-10.4-1.9-15.3-2.5
			c-25.4-3.4-50.9-3.4-76.3,0.6c-26.3,4.1-51.4,12.1-75.5,23.2c-24.2,11.1-47,24.7-68.9,39.7c-7.2,5-14.3,10.3-21.7,14.9
			c-17.4,10.9-36.3,12.1-56,8.6c-18.9-3.4-36.5-10.8-52.8-20.6c-17.6-10.6-34.8-22-52.1-33.3c-19.7-12.8-40.1-24.4-62.1-32.9
			c-31.5-12.2-64-18.7-97.9-16.1c-4.5,0.3-8.9,1.2-13.4,1.9c0,0.4-0.1,0.7-0.1,1.1c0.3,0.3,0.5,0.6,0.8,0.9
			c7.7,5.4,13.3,12.8,18.4,20.5c10.6,16.1,18.1,33.7,24,51.9c7.2,22.2,11.7,44.8,8.6,68.3c-1.3,9.7-4.1,19-11.2,26.2
			c-9.4,9.6-16.8,20.5-22.1,32.8c-12.5,29.2-11.8,58.5-0.7,87.8c0.8,2.1,0.6,3.4-0.6,5.2c-5.3,7.7-10.1,15.7-14.5,23.8h35.3h100
			h41.2h190.9H716h90.7c-2.1-4.1-2.7-7.8-0.4-12.4c0.5-1,0.7-2.2,1-3.3c7.8-27.8,12.2-55.9,7.9-84.7c-2.7-17.9-9.6-34-23.7-46
			c-9.7-8.3-12.9-18.7-11-31.1C782.6,270.2,788.2,257.1,795.4,244.6z M323.2,170.6c-0.1-0.2-0.1-0.4-0.3-1.3
			c7.4,2.3,14.5,4.2,21.5,6.7c24.9,9.1,48.7,20.7,71.2,34.6c12.5,7.7,23.8,17.1,34.6,27.1c19.5,18.2,38.9,36.5,58.4,54.7
			c0.3,0.3,0.5,0.6,1.1,1.4c-5.4-2.2-10.4-4.3-15.4-6.1c-18.8-6.8-38.2-10.6-58.1-12.5c-16-1.5-32.1-1.7-48,0.7
			c-10.7,1.6-21,4.4-30.5,9.5c-0.8,0.4-1.7,0.8-3.1,1.5c-1.2-7.3-2.4-14.3-3.4-21.3c-2.6-17.2-4.5-34.5-7.8-51.5
			c-2.9-15-9.5-28.8-18.6-41.2C324.2,172,323.7,171.3,323.2,170.6z M465.7,375.4c0,0.9,0,1.8,0,2.7c0,1,0,1.9,0,2.7
			c0,0.9,0,1.5,0,1.8c-0.1,0.1-0.2,0.4-0.3,0.7c-0.1,0.4-0.3,0.7-0.4,1.1c-0.2,0.4-0.3,0.7-0.4,1.1c-0.1,0.3-0.1,0.6-0.1,0.8
			c-0.3,4.9-0.7,9.6-1.3,14.1c-0.5,4.5-1.4,8.7-2.6,12.5c-1.2,3.8-2.8,7.3-4.8,10.4c-2,3.1-4.5,5.7-7.6,7.9c-3.1,2.2-6.9,3.9-11.3,5
			c-4.4,1.2-9.7,1.8-15.8,1.8c-0.5,0-1.1,0-2,0c-0.8,0-1.3,0-1.3,0c-0.1,0-0.4-0.1-0.7-0.4c-0.4-0.3-0.7-0.6-1.1-0.9
			c-0.4-0.3-0.8-0.6-1.1-0.9c-0.4-0.2-0.6-0.4-0.7-0.4s-0.3,0.2-0.7,0.6c-0.3,0.4-0.7,0.8-1.1,1.3c-0.4,0.4-0.8,0.9-1.2,1.2
			c-0.4,0.4-0.6,0.6-0.7,0.6c0,0.1-0.3,0.1-1,0.1c-0.7,0-1.2,0-1.5,0s-1,0-1.9,0c-0.9,0-1.5,0-1.7-0.1c-0.8,0-2.3-0.1-4.4-0.2
			c-2.1-0.1-4.3-0.2-6.6-0.4c-2.3-0.1-4.5-0.2-6.6-0.4c-2.1-0.1-3.6-0.2-4.4-0.3c-1-1.4-2-2.4-3.2-2.9c-1.2-0.5-2.5-0.9-3.9-1
			c-1.4-0.2-2.9-0.4-4.6-0.5c-1.7-0.2-3.5-0.7-5.5-1.4c-3.4-1.4-6.4-3.4-9.1-6.2c-2.7-2.8-5.1-5.9-7-9.4c-1.9-3.5-3.4-7.3-4.5-11.2
			c-1-4-1.6-7.8-1.6-11.4c0-1.4,0.1-2.7,0.2-3.9c0.1-1.2,0.3-2.2,0.4-3.2c0.1-1,0.3-1.9,0.4-2.9c0.1-0.9,0.2-1.9,0.2-2.8v-0.6
			c-0.1-0.1-0.3-0.5-0.6-1.2c-0.4-0.7-0.6-1.1-0.6-1.2c0-0.1-0.1-0.5-0.2-1.3c-0.1-0.7-0.2-1.5-0.4-2.5c-0.1-0.9-0.2-1.8-0.4-2.7
			c-0.1-0.9-0.2-1.6-0.3-2.2v-0.5c0-3.4,0-6.3,0.1-8.5c0.1-2.3,0.3-4.3,0.7-6.1c0.4-1.8,1-3.6,1.8-5.4c0.8-1.8,2-3.9,3.4-6.3
			c0-0.1,0-0.1,0-0.3c0-0.1,0-0.2,0-0.4c0-0.8-0.2-1.6-0.7-2.2c-0.4-0.6-0.7-1.3-0.7-2.2c0-1,0.2-1.8,0.6-2.4s0.9-1.3,1.5-2.1
			c0.6-0.7,1.4-1.6,2.2-2.6c0.9-1,1.8-2.4,2.7-4c1.7-3,3.7-5.5,5.9-7.6c2.2-2.1,4.5-3.8,7-5.2c2.5-1.4,5-2.4,7.6-3.2
			c2.6-0.7,5.2-1.3,7.6-1.7c2.5-0.4,4.8-0.6,7-0.7s4.2-0.1,5.9-0.1c4.1,0,8.7,0.1,13.6,0.3c5,0.2,10,0.7,15,1.4
			c5.1,0.7,10,1.9,14.7,3.4c4.8,1.5,9,3.6,12.7,6.3c3.7,2.7,6.6,6,8.9,10c2.2,4,3.4,8.8,3.4,14.5c0,1.5-0.1,2.8-0.2,3.8
			c-0.1,1-0.3,1.9-0.4,2.7c-0.1,0.7-0.3,1.5-0.4,2.1c-0.1,0.7-0.2,1.4-0.2,2.2c0,1.3,0.2,2.7,0.6,4.3c0.4,1.5,0.8,3.1,1.3,4.7
			c0.5,1.6,1,3.3,1.3,4.9c0.4,1.7,0.6,3.4,0.6,5.1C465.7,373.9,465.7,374.5,465.7,375.4z M640.4,325.7c-0.7,2.2-1.4,4.4-2.1,6.6
			s-1.3,4.2-1.8,6.1c-0.5,1.9-0.5,3.6-0.1,5c-0.2,0.8-0.5,2.2-0.9,4s-1,3.9-1.5,6.1c-0.6,2.2-1.2,4.6-1.8,7.1
			c-0.6,2.5-1.2,4.9-1.8,7.2c-0.6,2.3-1.1,4.4-1.6,6.2c-0.5,1.8-0.8,3.2-1.1,4.2c-0.9,3.4-1.8,6.8-2.6,10.5
			c-0.8,3.6-1.8,7.2-2.8,10.8c-1.1,3.6-2.4,7.1-3.8,10.5c-1.5,3.4-3.3,6.6-5.4,9.4v0.5c0,1.2,0.2,2.3,0.7,3.4
			c0.5,1.1,0.7,2.3,0.7,3.7c0,1.1-0.2,2.4-0.7,3.8c-0.5,1.4-1.2,2.7-2,3.9c-0.9,1.2-1.9,2.2-3.1,3c-1.2,0.8-2.5,1.2-4,1.2h-29.5
			c-2.7,0-4.7-0.8-6.1-2.4c-1.4-1.6-2.4-3.6-3-5.9c-0.6-2.3-0.9-4.8-0.9-7.3c0-2.5,0.1-4.7,0.3-6.5c-1.3-0.5-2.3-1.4-3.1-2.6
			c-0.8-1.2-1.4-2.5-1.9-3.9s-0.9-2.9-1.2-4.5c-0.3-1.6-0.6-3-1-4.3c-0.4-1.3-0.9-2.3-1.5-3.2c-0.6-0.8-1.4-1.3-2.4-1.3
			c-0.5,0-0.9,0.1-1.4,0.2c-0.5,0.1-0.8,0.5-1,1.2c0.1,0.2,0.2,0.7,0.4,1.4c0.1,0.7,0.2,1.5,0.4,2.2c0.1,0.8,0.2,1.5,0.3,2.2
			c0.1,0.7,0.1,1.2,0.1,1.5c0,0.7-0.3,1.9-1,3.7c-0.7,1.8-1.5,3.8-2.6,6.1c-1,2.3-2.1,4.6-3.4,7.1c-1.2,2.5-2.4,4.7-3.5,6.8
			s-2,3.8-2.8,5.1c-0.8,1.3-1.3,1.9-1.4,1.9c-0.1,0-0.4-0.1-0.9-0.4c-0.5-0.3-1-0.6-1.6-0.9c-0.6-0.3-1.1-0.6-1.6-0.8
			c-0.5-0.2-0.8-0.4-0.9-0.4c-0.1,0-0.2,0.1-0.4,0.4c-0.2,0.2-0.5,0.5-0.8,0.8c-0.3,0.3-0.5,0.6-0.8,0.8c-0.2,0.2-0.4,0.4-0.4,0.4
			c-1,0.5-2.1,1-3.5,1.3c-1.4,0.3-2.9,0.6-4.4,0.8c-1.6,0.2-3.1,0.3-4.8,0.4c-1.6,0.1-3.1,0.1-4.4,0.1h-4.2c-2.8,0-5.2-0.6-7.5-1.8
			c-2.2-1.2-4.2-2.8-5.9-4.8c-1.7-2-3.2-4.3-4.4-6.8c-1.2-2.5-2.2-5.1-3-7.6c-0.8-2.6-1.3-5-1.7-7.4c-0.4-2.3-0.5-4.3-0.5-6
			c0-1.2,0.2-2.2,0.7-3.1c0.5-0.8,0.7-1.8,0.7-3c0-0.9-0.3-2.1-0.9-3.5c-0.6-1.4-1.3-3-2.2-4.9c-0.8-1.9-1.7-3.9-2.6-6.1
			c-0.9-2.2-1.8-4.5-2.5-6.9c-0.5-1.8-1.3-4.3-2.3-7.4c-1-3.1-2-6.5-3.1-10.3c-1-3.7-1.9-7.6-2.6-11.6c-0.8-4-1.1-7.8-1.1-11.4
			c0-0.1,0-0.2,0-0.4c0-0.1,0-0.2,0-0.3c0.1-0.1,0.2-0.3,0.4-0.7c0.2-0.3,0.5-0.7,0.8-1.1c0.3-0.4,0.5-0.8,0.8-1.2
			c0.2-0.4,0.4-0.6,0.4-0.7l0.1-0.3v-0.4c0-0.5-0.2-1.2-0.7-1.9c-0.5-0.7-1-1.5-1.6-2.3c-0.6-0.8-1.1-1.6-1.7-2.5
			c-0.5-0.8-0.9-1.6-1.1-2.4c0-1.1,0.1-2.5,0.3-4.1c0.2-1.7,0.6-3.3,1.1-4.9c0.5-1.6,1.3-2.9,2.2-4c1-1.1,2.2-1.7,3.7-1.7h25.8
			c0.5,1.1,1,1.8,1.7,2.1c0.7,0.3,1.4,0.4,2.2,0.4c0.8,0,1.6,0.1,2.4,0.1c0.8,0,1.6,0.4,2.3,1c1.4,2.7,2.8,5.9,4,9.7
			c1.2,3.8,2.3,7.7,3.1,11.8c0.9,4.1,1.5,8.1,2,11.9c0.5,3.9,0.7,7.3,0.7,10.1c0,1.1-0.2,2-0.6,2.8c-0.4,0.8-0.6,1.7-0.6,2.7h3.5
			c0.8-2.2,1.4-4,1.9-5.4s1-2.9,1.4-4.3c0.5-1.4,0.8-2.4,1-3c0.7-2,1.3-4.4,2-7c0.7-2.7,1.6-5.4,2.6-8.2c1-2.8,2.4-5.5,4-8.2
			c1.6-2.7,3.7-5.1,6.2-7.2c2.5-2.1,5.5-3.8,9.1-5.1c3.6-1.3,7.8-1.9,12.7-1.9c2.4,0,4.2,0.2,5.3,0.6c1.1,0.4,2,1.2,2.6,2.3
			c0.6,1.1,1.1,2.6,1.4,4.6c0.4,1.9,0.9,4.4,1.7,7.5c0.9,3.6,1.9,6.8,2.9,9.7c1,2.9,2.1,5.5,3.1,7.8c1,2.3,1.9,4.4,2.7,6.3
			c0.8,1.9,1.4,3.7,1.9,5.4c0.1,0.1,0.3,0.3,0.6,0.7c0.3,0.3,0.6,0.5,0.7,0.6c0.5-1.2,1-3.1,1.7-5.8c0.6-2.7,1.3-5.7,2.2-9
			c0.8-3.3,1.7-6.8,2.7-10.3c1-3.6,2.2-6.8,3.5-9.8c1.3-3,2.8-5.4,4.4-7.5c1.6-2,3.5-3.1,5.5-3.4c0.8-0.1,1.7-0.4,2.6-0.7
			c0.9-0.4,2-0.7,3.3-1.1s2.7-0.7,4.4-1.1c1.6-0.3,3.6-0.5,5.8-0.5c1.6,0,3.4,0.1,5.6,0.4c2.2,0.3,4.3,0.9,6.3,1.8
			c2,0.9,3.8,2.2,5.2,3.8c1.4,1.6,2.1,3.9,2.1,6.7C641.4,321.3,641.1,323.5,640.4,325.7z M749.1,428.1c-0.5,2.1-1.3,4-2.2,5.7
			c-1,1.6-2.2,3-3.6,3.9c-1.4,1-3.1,1.5-4.8,1.5c-1,0-1.9-0.1-2.7-0.4c-0.8-0.3-1.8-0.6-2.7-0.9c-1-0.3-2.1-0.6-3.4-0.9
			c-1.3-0.3-2.9-0.4-4.8-0.4c-1.9,0-4.2,0.1-6.8,0.4c-2.6,0.3-5.5,0.6-8.8,0.9s-6.8,0.6-10.6,0.9c-3.8,0.3-8,0.4-12.5,0.4
			c-1.7,0-3.2-0.1-4.5-0.3c-1.3-0.2-2.4-0.6-3.4-1.1c-1-0.5-2-1.3-2.9-2.3c-0.9-1-1.9-2.2-2.9-3.7l-0.3-0.1
			c-0.1-0.1-0.1-0.1-0.3-0.1c-0.2,0-0.3,0-0.4,0.1c-0.1,0-0.2,0-0.3,0.1l-3.7,4.9c-1.9,0.4-3.5,0.8-4.8,1c-1.3,0.3-2.6,0.5-4,0.8
			c-1.4,0.2-2.6,0.4-3.5,0.6l-0.3,0.1h-0.4c-0.7,0-1.3-0.2-2-0.5c-0.7-0.3-1.3-0.7-1.8-1.3c-0.5-0.5-1-1.1-1.3-1.7
			c-0.3-0.6-0.5-1.3-0.5-1.9c0-1.3,0.2-2.4,0.7-3.5c0.4-1.1,0.7-2.2,0.7-3.5c0-2.2-0.2-4.4-0.6-6.6c-0.4-2.2-0.8-4.5-1.3-6.9
			c-0.5-2.3-0.9-4.7-1.3-7c-0.4-2.3-0.6-4.7-0.6-7c0-0.4,0-1,0-1.8c0-0.9,0-1.8,0-2.8c0-1,0-1.9,0-2.8c0-0.9,0-1.5,0-1.8
			c0.6-0.7,1-1.3,1.1-1.8c0.1-0.4,0.2-1.1,0.2-1.8c0-0.1,0-0.3,0-0.7c0-0.3,0-0.5-0.1-0.6c-0.1-0.6-0.2-1.7-0.4-3.2
			c-0.2-1.5-0.4-3.1-0.7-4.8c-0.3-1.7-0.5-3.3-0.8-4.8c-0.2-1.5-0.4-2.6-0.5-3.2c0.3-1.7,0.8-3.1,1.5-4c0.7-0.9,1.8-1.6,3.5-2.2
			l1.2-7.4c-0.7,0.5-1.2,0.9-1.8,1c-0.5,0.2-1.2,0.2-1.9,0.2c-1.4,0-2.1-0.4-2.3-1.3c-0.1-0.8-0.2-1.9-0.2-3.1c0-1,0-2,0-2.9
			c0-0.9,0.5-1.8,1.3-2.6v-19.6c0.3-0.4,0.6-0.9,0.9-1.5c0.3-0.6,0.4-1.1,0.4-1.6c0-1.4-0.2-2.7-0.7-4c-0.4-1.3-0.7-2.8-0.7-4.6
			c0-1,0.1-1.9,0.3-2.8c0.2-0.9,0.6-1.8,1-2.6c0.5-0.8,1.1-1.6,1.9-2.2c0.8-0.6,1.8-1.1,3-1.5c0.5,0,1.5,0,2.8,0
			c1.3,0,2.8-0.1,4.2-0.1c1.5,0,2.9,0,4.2,0c1.3,0,2.3,0,2.8,0c4,0,7.2-0.1,9.5-0.2c2.3-0.1,4.2-0.2,5.6-0.2c1.4,0,2.4,0.1,3,0.4
			c0.6,0.2,1.2,0.7,1.8,1.5c0.5,0.7,1.2,1.8,1.9,3.1c0.7,1.3,1.9,3.1,3.4,5.3v35.6c-0.5,1.7-0.8,3.1-1,4c-0.2,1-0.3,1.9-0.3,2.9
			c0,1.9,0.2,3.5,0.7,4.7c0.4,1.2,0.7,2.5,0.7,3.8c0,0.2,0,0.6,0,1c0,0.4,0,0.7,0,0.7c-0.1,0.1-0.2,0.4-0.4,0.7
			c-0.2,0.4-0.5,0.7-0.8,1.1c-0.3,0.4-0.6,0.8-0.8,1.1c-0.2,0.4-0.4,0.6-0.4,0.7c-0.2,1.8-0.4,3.9-0.5,6.4c-0.1,2.5,0,4.9,0.4,7.4
			c0.4,2.5,1,4.8,2,7c1,2.2,2.4,3.9,4.2,5.1c0.4,0.1,1.2,0.1,2.2,0.3c1,0.1,2.2,0.3,3.3,0.4c1.2,0.2,2.3,0.3,3.3,0.4
			c1,0.1,1.8,0.1,2.2,0.1c0.6,0,1.5,0,2.6,0c1.1,0,2.5,0.1,4,0.1c1.5,0,3.1,0,4.8,0c1.7,0,3.4,0,5.2,0c1.7,0,3.5,0,5.2,0
			c1.7,0,3.3,0,4.8,0c1.5,0,2.8-0.1,4-0.1c1.1,0,2,0,2.6,0c2.2,0.8,3.9,2.1,5.2,4c1.3,1.9,2.3,3.9,3,6.1c0.7,2.2,1.2,4.4,1.4,6.5
			c0.2,2.1,0.4,3.8,0.4,5.2C749.9,423.8,749.6,426,749.1,428.1z M770,225.3c-17.1,16.3-30.2,35.3-34.8,59.1
			c-47.7-8.2-94.3-8.4-139.6,12.2c6.4-5.7,12.4-11.1,18.4-16.5c25.3-22.6,50.6-45.2,75.9-67.7c1.7-1.5,4.2-2.2,6.4-3.2
			c31.1-15,63.5-26.4,97.6-32.5c9.5-1.7,19.2-2.1,28.8-3c0.6-0.1,1.2,0.1,2.9,0.3c-5.7,5.7-10.6,10.9-15.9,15.7
			C796.5,201.7,782.8,213,770,225.3z"/>
		<path class="st0" d="M723.1,422.4c0.7,0.7,1.4,1.1,2.2,1.1v-2.9h-3.7C721.9,421.1,722.4,421.7,723.1,422.4z"/>
		<path class="st0" d="M731.4,431.7c-0.3,0-0.5,0.1-0.7,0.4c-0.1,0.3-0.2,0.6-0.2,0.9c0,0.3,0.1,0.6,0.2,0.9
			c0.1,0.3,0.4,0.4,0.7,0.4c0.3,0,0.5-0.1,0.7-0.4c0.1-0.3,0.2-0.6,0.2-0.9c0-0.3-0.1-0.6-0.2-0.9
			C731.9,431.8,731.7,431.7,731.4,431.7z"/>
		<path class="st0" d="M627.7,338.6c0,0.1,0,0.3,0,0.6c0,0.3,0,0.5,0,0.6h0.2c1.1,0,1.9-0.4,2.4-1.3c0.5-0.9,0.7-1.8,0.7-2.6
			c-1,0-1.8,0.2-2.4,0.6C628,336.9,627.7,337.6,627.7,338.6z"/>
		<path class="st0" d="M581.1,367.6c0.2,0.8,0.6,1.3,1.3,1.6v-3.7h-1.6C580.8,366.1,580.9,366.8,581.1,367.6z"/>
		<path class="st0" d="M606.9,373.3c-0.2,0.8-0.3,1.5-0.3,2h1.6v-3.7C607.5,371.9,607,372.5,606.9,373.3z"/>
		<path class="st0" d="M616.7,385.2c-0.3,0-0.5,0.1-0.7,0.4c-0.2,0.2-0.2,0.5-0.2,0.9c0,0.3,0.1,0.6,0.2,0.9
			c0.1,0.2,0.4,0.4,0.7,0.4s0.5-0.1,0.7-0.4c0.2-0.2,0.3-0.5,0.3-0.9c0-0.3-0.1-0.6-0.3-0.9C617.3,385.3,617,385.2,616.7,385.2z"/>
		<path class="st0" d="M576.3,391.3c-0.3,0-0.5,0.1-0.7,0.4c-0.1,0.2-0.2,0.5-0.2,0.9c0,0.3,0.1,0.6,0.2,0.9
			c0.2,0.2,0.4,0.4,0.7,0.4s0.5-0.1,0.7-0.4c0.2-0.2,0.3-0.5,0.3-0.9c0-0.3-0.1-0.6-0.3-0.9C576.9,391.4,576.6,391.3,576.3,391.3z"
			/>
		<path class="st0" d="M569,341c-0.2-0.1-0.3,0-0.4,0.1c-0.1,0.1-0.1,0.3-0.1,0.5c0,0.2,0,0.3,0.1,0.5c0.1,0.1,0.2,0.2,0.4,0.1
			c0.4-0.1,0.5-0.3,0.5-0.6C569.5,341.3,569.3,341.1,569,341z"/>
		<polygon class="st0" points="618,352.1 618,350.8 616.7,352.1 		"/>
		<path class="st0" d="M624.1,332.4c-0.3,0-0.5,0.1-0.7,0.4c-0.2,0.3-0.2,0.6-0.2,0.9c0,0.3,0.1,0.6,0.2,0.9
			c0.1,0.3,0.4,0.4,0.7,0.4c0.3,0,0.5-0.1,0.7-0.4c0.2-0.3,0.3-0.6,0.3-0.9c0-0.3-0.1-0.6-0.3-0.9
			C624.6,332.5,624.4,332.4,624.1,332.4z"/>
	</g>
	<g>
		<path class="st0" d="M469.8,888.3c3,6.8,5.6,13,8.7,20c-3,0.1-5.4,0.2-7.8,0.2c-42.4,0-84.7,0-127.1-0.3c-5.1,0-8.8,1-11.7,5.5
			c-3.6,5.5-8,10.4-11.6,15.9c-3.5,5.3-8.3,7.6-14.4,7.9c-6.6,0.3-13.1,0.8-19.7,0.9c-18.4,0.1-36.8,1.2-55.2-0.4
			c-11.6-1-23.3-1.7-34.9-1.4c-7.3,0.2-11.4-6.2-6.9-12.3c4-5.4,8.6-10.5,13.5-15.1c4.9-4.6,10.6-8.4,16.4-13
			c-2.2-1.9-4.3-3.7-6.4-5.7c-7.7-7.6-15.3-15.2-22.9-22.9c-1-1-2-2.2-2.9-3.4c-4.2-5.8-2-10.7,5.2-11.5c1-0.1,2.1-0.1,3.2-0.1
			c35.6,0.9,71.1,2,106.7,2.6c8,0.1,13.7,3.3,18.4,9.3c5.1,6.5,10.5,12.8,15.3,19.5c2.3,3.2,4.7,4.1,8.4,4.1
			c37.5,0,75,0.1,112.5,0.2C460.9,888.3,465.1,888.3,469.8,888.3z M242,866.1c6.5,7.2,12.5,14,18.8,20.4c1.1,1.1,3.5,1.3,5.3,1.3
			c6.8,0.1,13.5,0.1,20.3,0c1.1,0,2.2-0.4,3.8-0.7c-6.4-6.9-12.2-13.3-18.2-19.5c-0.9-0.9-2.6-1.5-3.9-1.5
			C259.4,866,250.7,866.1,242,866.1z M206.9,924.4c0.2,0.6,0.5,1.2,0.7,1.9c11.1,0.2,22.2,0.4,33.4,0.5c0.9,0,2.4-0.5,2.7-1.2
			c2.8-5.3,5.8-10.5,7.8-17.4c-8.6,0-15.9,0-23.3,0c-1.2,0-2.7,0.2-3.5,0.9C218.6,914.2,212.8,919.3,206.9,924.4z M283.6,866.3
			c6.7,7.2,12.8,13.7,19,20.3c0.5,0.6,1.4,1.1,2.2,1.2c6.6,0.1,13.3,0.7,20.6-0.4c-5.5-7.7-11.7-13.7-18-19.6
			c-0.7-0.7-1.8-1.4-2.8-1.4C297.9,866.3,291.2,866.3,283.6,866.3z M263.2,908.5c-2.5,5.8-5,11.5-7.7,17.6c8.7,0,16.8,0,24.7,0
			c2.5-6.1,4.9-11.6,7.4-17.6C279,908.5,271.2,908.5,263.2,908.5z M207.6,866.2c6.9,7,12.8,13,18.8,19c0.6,0.6,1.3,1.3,2.1,1.4
			c6,0.6,11.9,1,19.1,1.6c-1.3-1.9-1.7-2.6-2.2-3.1c-5.7-5.7-11.4-11.3-17.2-16.9c-0.9-0.8-2.1-1.8-3.1-1.9
			C219.7,866.1,214.3,866.2,207.6,866.2z M289.7,926.2c5.5,0,9.7,0,13.9,0c1.3,0,2.6,0.1,3.8-0.2c1-0.2,2-0.5,2.8-1.1
			c1.6-1.2,8.3-13.7,8.9-16.6c-5.5,0-11-0.1-16.5,0.1c-1.5,0.1-3.5,0.8-4.2,1.9C295.5,915.1,292.9,920.2,289.7,926.2z"/>
		<path class="st0" d="M825,908.2c-87.1,0.1-172.7,1.7-259.6,0.6c2.9-4.3,5.7-7.4,7.4-11c3.5-7.6,9-9.4,17.2-9.3
			c76.1,1,152.2,1.5,228.3,2.1c2.4,0,4.9,0,8.8,0c-2.6-2.8-4.2-4.4-5.7-6.1c-3.9-4.4-7.9-8.8-11.7-13.4c-1.7-2.1-3.3-4.7-1.6-7.6
			c1.9-3.1,5.1-3,8-2.3c6.5,1.7,13.1,3.5,19.4,6c13.6,5.4,27,11.3,40.4,17c9.1,3.9,18.3,7.9,27.3,12c3.5,1.6,7.2,3.2,7.2,7.9
			c0,4.9-3.7,7.1-7.5,8.5c-10.5,3.9-21,8.1-31.7,11.1c-15.1,4.3-30.4,7.8-45.6,11.6c-2.5,0.6-5,1.1-7.5,1.1c-6.4,0-9.3-4.7-6.1-10.3
			c2.3-4,5.4-7.6,8.1-11.4C821.5,913,822.9,911.2,825,908.2z M829.1,920.9c11.8,0.1,61.6-14.7,66.8-18.7
			c-23.1-9.3-45.9-18.6-68.7-27.8c5,6.3,10.4,11.9,15.9,17.4c5.3,5.3,4.9,9.8-0.7,15C837.7,911.2,833.5,916.2,829.1,920.9z"/>
		<path class="st0" d="M520.9,868.2c4.3-5,7.8-9.5,11.7-13.6c6.9-7.3,15.6-9.8,25.5-8.6c5.7,0.7,9.9,3.7,12.6,8.6
			c3.7,6.7,5.1,13.9,2.9,21.5c-1,3.2-2.1,6.5-3.5,9.5c-8.2,17.5-20.4,32.2-33.5,46c-8.5,9-9.7,8.7-19.5,0.7
			c-8.2-6.7-16-13.8-23.6-21.2c-8.2-8-13.5-17.9-16.1-29.1c-2-8.5-1.6-16.9,2.9-24.6c5.9-10.2,16.6-12.5,25.9-5.1
			c4.1,3.3,7.4,7.5,11.1,11.3C518.4,865.1,519.5,866.6,520.9,868.2z"/>
	</g>
</g>
</svg>
