<?xml version="1.0" encoding="utf-8"?>
<!-- Generator: Adobe Illustrator 22.0.0, SVG Export Plug-In . SVG Version: 6.00 Build 0)  -->
<svg version="1.1" id="Layer_1" xmlns="http://www.w3.org/2000/svg" xmlns:xlink="http://www.w3.org/1999/xlink" x="0px" y="0px"
	 viewBox="0 0 1080 1080" style="enable-background:new 0 0 1080 1080;" xml:space="preserve">
<style type="text/css">
	.st0{fill:#050505;}
</style>
<g>
	<g>
		<g>
			<path class="st0" d="M243.1,488.3c18.1-2.9,26.1,4,29.8-12.7c2.2-8.3,7.6-29.4,7.6-38.5c0-14.5,8.3-21,16.3-21
				c9.1,0,18.1,8,16.7,22.9c-1.8,21-12.7,45.4-3.6,46.1c3.3,0.4,8.3,0.7,11.6,1.5c16.3,2.9,14.2,28.7-4.7,30.5
				c-27.9,2.5-21.4,2.2-26.9,21.8c-8,30.8-12.7,69-9.4,90.7c1.1,6.5,3.6,8.7,6.9,8.7c7.6,0,18.9-10.5,28.7-10.5c4,0,8,1.8,11.2,7.3
				c9.8,15.6-15.6,34.5-39.9,34.5c-14.5,0-28.7-6.9-35.2-24.7c-4-12-8.3-38.8,0.7-82c11.3-53.7,9.8-37-10.9-42.5
				C223.9,515.5,225,491.6,243.1,488.3z"/>
			<path class="st0" d="M382.1,532.2c9.1-8.7,17.4-13.4,26.1-13.4c8,0,16.3,4.4,25.8,12.7c3.3-1.8,4-4.4,5.4-6.5
				c5.4-6.9,12-9.8,18.5-7.6c17.4,5.4,10.5,28.7,5.1,46.1c-5.4,16.7-15.6,53.7-9.8,70.4c4.7,13.4-4,22.1-13.8,22.1
				c-4.7,0-9.8-2.2-13.8-6.2c-9.8-10.2-4.4-19.6-8-26.5c-5.1,1.8-7.3,6.2-10.2,9.4c-17.1,18.5-33,26.1-45.4,26.1
				c-14.2,0-23.6-10.2-24.3-24.3C336.4,600.5,350.2,562.7,382.1,532.2z M369.4,624c14.2-9.8,21.8-21.4,30.8-31.9
				c8.7-10.2,16.3-20.3,2.9-34.8C383.6,574.3,374.1,596.1,369.4,624z"/>
			<path class="st0" d="M484.4,605.2c-1.5-5.4-0.7-11.3,2.5-15.6c5.8-8.3,6.9-17.8,8.7-27.6c4.7-25.4,6.9-51.5,9.8-77.3
				c0.7-6.9,0.4-13.1-3.6-19.2c-6.5-10.2-1.8-33.4,7.3-41c3.3-2.9,7.3-4,10.9-4c7.3,0,14.2,5.1,16,14.2c6.2,33,4.4,30.8-5.1,107.8
				c-0.4,1.5-0.7,3.3-0.7,5.1c0,2.9,1.1,3.6,2.5,3.6c5.1,0,18.1-13.8,37-10.5c20,2.9,19.6,30.1,0.4,34.1
				c-17.8,3.3-32.3,10.9-46.5,24c20,8,28.3,1.8,41.7,8.3c16,8.3,11.3,29-5.8,30.1c-10.5,0.4-21-2.5-31.2-3.6
				c-12.3-1.8-13.4-1.1-13.8,10.9c-0.4,5.4,0.7,10.9,2.9,16c3.6,9.1,1.5,16-5.1,20c-2.9,1.8-5.8,2.5-8.7,2.5
				c-9.8,0-19.6-8.3-20.3-22.5C481.9,628.8,489.2,620.8,484.4,605.2z"/>
			<path class="st0" d="M637.6,660.3c-21,0-41.7-14.2-39.9-52.3c4-25.8,10.5-59.5,36.7-85.3c8.7-8.7,18.9-12.7,29.4-12.7
				c5.1,0,10.5,0.7,16,2.5c15.2,4.7,21.8,16,18.5,31.2c-5.1,23.6-15.2,36.3-30.5,54.8c-12,14.2-22.9,13.4-30.1,13.1
				c-4.7-0.4-8,7.3-8.3,10.9c-0.7,4.7,3.6,6.5,8.7,6.5c14.9,0,39.9-21,49.7-30.5c3.6-3.3,7.3-6.9,12.3-8.7c2.2-0.7,4-1.1,6.2-1.1
				c13.8,0,21.1,18.1,6.2,30.8C694.2,634.9,662.6,660.3,637.6,660.3z M641.6,582c1.8,0,3.6-0.7,5.1-2.9
				c7.3-11.3,14.9-22.1,17.1-35.2c-4-2.5-6.5,0-8.3,1.8c-8,8.3-13.4,18.1-17.4,28.7C636.1,579.4,638.7,582,641.6,582z"/>
			<path class="st0" d="M743.5,562.4c1.8-8.7,8.7-13.4,15.6-13.4c6.2,0,12.3,3.6,14.9,10.9c1.8,5.1,2.5,10.5,4.4,18.1
				c20.3-30.1,26.5-42.8,42.8-51.5c5.4-2.9,10.5-4.4,15.2-4.4c16,0,26.9,16.7,26.9,38.5c0,54.1-7.3,66.4,4,86
				c6.5,12-2.9,22.1-13.1,22.1c-4.7,0-9.8-2.2-13.4-6.9c-20.3-26.9-5.8-46.5-9.1-102.3c-14.5,10.9-17.4,20-51.9,85.6
				c-5.4,10.5-13.1,14.9-19.6,14.9c-7.6,0-14.5-5.8-16.3-14.5C742.8,640,742.8,566.3,743.5,562.4z"/>
		</g>
	</g>
	<g>
		<g>
			<path class="st0" d="M207.2,347.5c6.9,0.4,12.3,5.4,14.5,13.1c3.6,14.2,4.4,14.9,18.5,12.7c13.4-1.8,25.8-7.3,37.4-14.5
				c6.5-4,8.3-9.4,5.8-16.7c-7.3-21.4-25.8-35.2-46.1-46.5c-39.2-22.1-58.8-69.7-30.1-102.7c15.6-17.8,43.5-42.8,68.6-42.8
				c5.8,0,11.6,1.1,17.4,2.9c33.7,10.9,24,53,2.2,53.7c-17.8,0.7-14.9-18.5-24.3-18.5c-9.1,0-30.5,20.7-36.3,27.2
				c-14.9,16-1.1,36.7,16.7,48.3c34.1,22.1,63.9,43.5,67.1,84.9c1.1,13.4-4.7,24.7-15.2,33c-23.2,18.5-51.9,26.5-73.3,26.5
				c-5.8,0-10.9-0.4-15.2-1.5C175.6,397.2,183.2,344.9,207.2,347.5z"/>
			<path class="st0" d="M355.9,280.7c1.8-9.4,9.4-14.2,17.1-14.2c7.6,0,14.9,4.7,15.2,13.8c1.5,26.9-4.7,10.2-13.1,80.9
				c-0.7,8.3-0.4,16.3,4.4,24.3c7.6,12.3-1.5,24.3-12.7,24.3c-13.1,0-22.9-15.6-23.2-27.6C340,327.9,353,299.6,355.9,280.7z
				 M362.8,217.2c1.1-4,1.8-10.2,3.6-15.6c2.5-7.6,9.1-11.3,15.2-11.3c7.3,0,14.2,4.4,15.6,13.4c1.5,8.3,2.5,17.4,2.9,26.1
				c0.4,11.3-9.4,18.1-20.3,15.2C369.4,242.6,362.1,231.7,362.8,217.2z"/>
			<path class="st0" d="M417.3,296.6c1.8-8.7,8.7-13.4,15.6-13.4c6.2,0,12.3,3.6,14.9,10.9c1.8,5.1,2.5,10.5,4.4,18.1
				c20.3-30.1,26.5-42.8,42.8-51.5c5.4-2.9,10.5-4.4,15.2-4.4c16,0,26.9,16.7,26.9,38.5c0,54.1-7.3,66.4,4,86
				c6.5,12-2.9,22.1-13.1,22.1c-4.7,0-9.8-2.2-13.4-6.9c-20.3-26.9-5.8-46.5-9.1-102.3c-14.5,10.9-17.4,20-51.9,85.6
				c-5.4,10.5-13.1,14.9-19.6,14.9c-7.6,0-14.5-5.8-16.3-14.5C416.6,374.3,416.6,300.6,417.3,296.6z"/>
			<path class="st0" d="M579.9,478.1c-19.2,0-30.5-18.5-21.8-35.9c2.5-5.4,8-8.3,13.1-8.3c3.3,0,6.5,1.1,9.1,4
				c3.6,4,7.3,5.4,10.5,5.4c4,0,8-2.2,11.6-4.4c18.1-10.9,33-24.7,39.2-45.7c4.4-13.8,8.7-27.2,9.4-41.7
				c-17.4,16-40.3,47.9-66.4,41.7c-25.8-5.8-27.6-30.8-18.9-55.9c12.7-37.7,39.2-74.8,64.2-74.8c9.4,0,18.9,5.1,26.9,17.8
				c5.1-0.4,5.4-4.4,6.9-6.9c1.8-3.6,2.9-8,5.4-11.3c3.3-4.7,8-6.9,12.3-6.9c6.2,0,12.3,4,14.5,10.9c1.8,4.7,1.8,9.1,1.1,13.8
				C680,376.1,678.6,453.1,588.2,477C585.3,477.7,582.4,478.1,579.9,478.1z M596.6,357.3c8.7-5.1,15.2-12,22.1-18.5
				c11.6-10.9,8.3-23.6,6.2-38.5C608.2,317,598.4,335.1,596.6,357.3z"/>
			<path class="st0" d="M723.9,299.6c17.4-120.1,9.8-68.6,26.9-137.2c2.9-12.3,10.5-17.4,17.8-17.4c11.3,0,22.1,12.3,14.5,29
				c-18.9,42.5-41.7,193.1-24.3,232.6c3.3,6.9,0,13.8-5.8,17.8c-2.9,1.8-5.8,2.5-8.3,2.5c-12,0-21.8-16.3-23.6-31.6
				C720.7,392.8,719.6,330.8,723.9,299.6z"/>
			<path class="st0" d="M818.3,394.6c-21.1,0-41.7-14.2-39.9-52.3c4-25.8,10.5-59.5,36.7-85.3c8.7-8.7,18.9-12.7,29.4-12.7
				c5.1,0,10.5,0.7,16,2.5c15.2,4.7,21.8,16,18.5,31.2c-5.1,23.6-15.2,36.3-30.5,54.8c-12,14.2-22.9,13.4-30.1,13.1
				c-4.7-0.4-8,7.3-8.3,10.9c-0.7,4.7,3.6,6.5,8.7,6.5c14.9,0,39.9-21,49.7-30.5c3.6-3.3,7.3-6.9,12.3-8.7c2.2-0.7,4-1.1,6.2-1.1
				c13.8,0,21,18.1,6.2,30.8C874.9,369.2,843.3,394.6,818.3,394.6z M822.3,316.2c1.8,0,3.6-0.7,5.1-2.9
				c7.3-11.3,14.9-22.1,17.1-35.2c-4-2.5-6.5,0-8.3,1.8c-8,8.3-13.4,18.1-17.4,28.7C816.8,313.7,819.4,316.2,822.3,316.2z"/>
		</g>
	</g>
	<g>
		<g>
			<path class="st0" d="M163.2,851c-8.4,0-16.5-8.1-14.4-21.7c13-97.4,30.5-135.6,24.2-163.2c-1.1-5.6-0.4-12.3,0.7-18.2
				c1.8-11.6,9.1-18.6,17.9-18.2c8.8,0.4,15.1,8.1,15.8,20c1.1,17.9,0,35.7-3.9,53.2c-3.2,13.7-10.2,45.2-10.2,45.2
				s13-12.6,18.6-16.5c6-4.2,11.9-6.3,17.2-6.3c10.2,0,18.2,7.7,21,21.4c8.1,39.2-14,66.9-3.9,77.1c5.3,5.6,6.7,12.3,2.1,18.9
				c-3.9,6-9.5,8.8-14.7,8.8c-7.7,0-15.1-4.9-18.2-13c-3.9-10.5,2.5-35.4,6.3-50.1c2.5-9.1,5.6-29.1-2.1-29.1
				c-11.9,0-30.1,59.2-43.1,83C173.4,848.2,168.1,851,163.2,851z"/>
			<path class="st0" d="M280.2,755.4c8.1-23.5,9.1-38.5,23.8-38.5c7-0.4,13,3.9,15.4,11.6c3.5,10.5,3.5,20.3-4.6,29.8
				c-9.8,11.6-9.8,27-12.3,41.3c13-4.2,36.4-62,52.9-79.9c3.9-4.2,8.8-6.7,13-6.7c11.2,0,21.4,14,14,43.4
				c-8.8,35.7-16.8,56-3.2,66.9c10.5,8.8,3.2,26.6-13.3,24.5c-23.1-3.2-21.7-25.2-23.8-46.6c-8.4,10.5-15.4,19.6-22.4,28
				c-6.3,7.7-15.1,11.6-23.1,11.6c-9.8,0-18.9-5.3-23.5-16.5C266.2,807.2,273.9,772.9,280.2,755.4z"/>
			<path class="st0" d="M410.8,751.2c1.8-8.4,8.4-13,15.1-13c6,0,11.9,3.5,14.4,10.5c1.8,4.9,2.5,10.2,4.2,17.5
				c19.6-29.1,25.6-41.3,41.3-49.7c5.3-2.8,10.2-4.2,14.7-4.2c15.4,0,25.9,16.1,25.9,37.1c0,52.2-7,64.1,3.9,83
				c6.3,11.6-2.8,21.4-12.6,21.4c-4.6,0-9.5-2.1-13-6.7c-19.6-25.9-5.6-44.8-8.8-98.8c-14,10.5-16.8,19.3-50.1,82.7
				c-5.3,10.2-12.6,14.4-18.9,14.4c-7.4,0-14-5.6-15.8-14C410.1,826.1,410.1,755,410.8,751.2z"/>
			<path class="st0" d="M567.8,926.3c-18.6,0-29.4-17.9-21-34.7c2.5-5.3,7.7-8.1,12.6-8.1c3.2,0,6.3,1,8.8,3.9
				c3.5,3.9,7,5.3,10.2,5.3c3.9,0,7.7-2.1,11.2-4.2c17.5-10.5,31.9-23.8,37.8-44.1c4.2-13.3,8.4-26.3,9.1-40.3
				c-16.8,15.4-38.9,46.2-64.1,40.3c-24.9-5.6-26.6-29.8-18.2-53.9c12.3-36.4,37.8-72.2,62-72.2c9.1,0,18.2,4.9,25.9,17.2
				c4.9-0.4,5.3-4.2,6.7-6.7c1.8-3.5,2.8-7.7,5.3-10.9c3.2-4.6,7.7-6.7,11.9-6.7c6,0,11.9,3.9,14,10.5c1.8,4.6,1.8,8.8,1,13.3
				c-16.5,92.8-17.9,167.1-105.1,190.2C573,925.9,570.2,926.3,567.8,926.3z M583.9,809.7c8.4-4.9,14.7-11.6,21.4-17.9
				c11.2-10.5,8.1-22.8,6-37.1C595.1,770.8,585.6,788.3,583.9,809.7z"/>
			<path class="st0" d="M702.3,752.6c-1-8.4-1.8-27,0.4-35.4c2.5-9.8,8.8-14.7,15.1-14.7c7.4,0,14.4,6,15.8,16.5
				c0.7,6.7-2.1,31.9,2.8,33.6c19.6-24.9,35.7-32.9,46.6-32.9c18.9,0,23.1,23.5,4.9,28c-51.5,13.7-45.5,111.4-75,107.9
				C685.8,852,706.8,781.3,702.3,752.6z"/>
			<path class="st0" d="M817.1,869.2c7.4,2.1,11.2,8.8,9.8,18.2c-1.1,8.4-3.9,13.7-0.4,16.5c3.2,2.8,6.3,0.4,9.1-1
				c2.5-1.4,4.9-2.8,7-4.6c28.4-22.8,45.5-51.5,51.1-87.6c1.1-5.6,3.5-11.6,1.1-20.3c-13.3,17.5-20,28-36.8,38.5
				c-4.9,3.2-10.9,4.6-16.1,4.6c-15.4,0-30.1-11.2-29.1-30.5c1.4-25.6,9.8-58.5,25.6-79.2c1.4-2.1,3.2-4.6,5.6-6.3
				c3.5-3.2,7.4-4.2,10.9-4.2c11.2,0,20.7,12.3,13.3,24.5c-3.2,5.3-23.1,27.7-23.1,60.6c8.8-0.3,43.1-50.4,52.9-63.7
				c2.5-3.2,4.6-6.7,7.7-9.5c3.2-2.8,6.7-4.2,10.5-4.2c8.4,0,16.5,7.7,15.1,24.5c-4.2,48-3.2,110-51.8,159.4
				c-19.6,19.6-39.9,30.1-56,30.1c-15.1,0-26.3-9.1-28.7-28C792.6,889.2,800,863.9,817.1,869.2z"/>
		</g>
	</g>
	<path class="st0" d="M817.3,454.5c1-0.5,1.9-0.8,2.5-1.3c4.7-3.4,9.7-6.4,15.1-8.8c1.9-0.8,3.8-1.7,5.8-2.2c3.6-1,6.9,0,9.9,1.9
		c2.4,1.5,3,4,2.1,6.7c-1.7,5.3-4.7,9.8-8.7,13.6c-0.5,0.5-1.1,1-1.6,1.5c-5,5.3-10.5,9.9-16.5,14.1c-3.7,2.6-7.6,4.9-11.4,7.4
		c-0.7,0.5-1.5,0.9-2.2,1.2c-1.3,0.6-2.6,0.7-4.1,0.4c-3.2-0.8-5.6-2.6-7.2-5.4c-5.1-8.5-9-17.6-12.1-27c-1.1-3.3-1.5-6.8-1.8-10.3
		c-0.2-2.8,0.3-5.4,0.9-8.1c0.9-3.6,4.3-6.4,7.9-6.6c0.9-0.1,1.9,0.1,2.8,0.4c1.3,0.4,2.6,1,3.9,1.6c2.6,1.1,4.7,2.7,6.4,4.9
		c2,2.6,3.6,5.5,4.9,8.5c0.6,1.5,1.2,3,1.8,4.4C816.1,452.4,816.7,453.2,817.3,454.5z"/>
	<path class="st0" d="M418.6,454.9c0.8-0.4,1.4-0.6,1.9-1c3.6-2.6,7.4-4.9,11.5-6.7c1.4-0.6,2.9-1.3,4.4-1.7c2.7-0.8,5.3,0,7.6,1.4
		c1.8,1.2,2.3,3,1.6,5.1c-1.3,4-3.6,7.5-6.7,10.4c-0.4,0.4-0.9,0.8-1.3,1.2c-3.8,4.1-8,7.6-12.6,10.7c-2.8,1.9-5.8,3.8-8.7,5.6
		c-0.5,0.3-1.1,0.7-1.7,0.9c-1,0.5-2,0.6-3.1,0.3c-2.4-0.6-4.2-2-5.5-4.1c-3.9-6.5-6.9-13.4-9.2-20.6c-0.8-2.5-1.2-5.2-1.4-7.8
		c-0.2-2.1,0.2-4.2,0.7-6.2c0.7-2.7,3.3-4.9,6-5.1c0.7,0,1.4,0.1,2.1,0.3c1,0.3,2,0.8,3,1.2c2,0.8,3.6,2.1,4.9,3.7
		c1.5,2,2.7,4.2,3.7,6.5c0.5,1.1,0.9,2.3,1.4,3.4C417.7,453.3,418.1,454,418.6,454.9z"/>
	<path class="st0" d="M652.1,177c1.1-0.5,1.9-0.8,2.6-1.3c4.9-3.6,10.1-6.7,15.7-9.1c2-0.9,4-1.7,6-2.3c3.7-1,7.2,0,10.3,2
		c2.5,1.6,3.1,4.1,2.2,7c-1.8,5.5-4.9,10.2-9.1,14.2c-0.6,0.5-1.2,1-1.7,1.6c-5.2,5.5-11,10.3-17.2,14.6c-3.9,2.7-7.9,5.1-11.8,7.7
		c-0.7,0.5-1.5,0.9-2.3,1.3c-1.4,0.6-2.8,0.8-4.3,0.4c-3.3-0.8-5.8-2.7-7.5-5.7c-5.3-8.9-9.3-18.3-12.5-28.1
		c-1.1-3.4-1.6-7.1-1.9-10.7c-0.2-2.9,0.3-5.7,0.9-8.4c0.9-3.7,4.5-6.7,8.2-6.9c0.9-0.1,2,0.1,2.9,0.4c1.4,0.4,2.7,1.1,4.1,1.7
		c2.7,1.1,4.9,2.8,6.7,5.1c2.1,2.7,3.7,5.8,5.1,8.9c0.7,1.5,1.2,3.1,1.9,4.6C650.9,174.8,651.4,175.7,652.1,177z"/>
	<path class="st0" d="M460,224.5c0.5-0.3,0.9-0.4,1.2-0.6c2.4-1.7,4.8-3.2,7.5-4.3c0.9-0.4,1.9-0.8,2.9-1.1c1.8-0.5,3.4,0,4.9,0.9
		c1.2,0.8,1.5,2,1,3.3c-0.9,2.6-2.3,4.9-4.3,6.8c-0.3,0.3-0.6,0.5-0.8,0.8c-2.5,2.6-5.2,4.9-8.2,7c-1.8,1.3-3.7,2.4-5.6,3.7
		c-0.4,0.2-0.7,0.4-1.1,0.6c-0.7,0.3-1.3,0.4-2,0.2c-1.6-0.4-2.8-1.3-3.6-2.7c-2.5-4.2-4.4-8.7-6-13.4c-0.5-1.6-0.8-3.4-0.9-5.1
		c-0.1-1.4,0.1-2.7,0.5-4c0.4-1.8,2.1-3.2,3.9-3.3c0.5,0,0.9,0,1.4,0.2c0.7,0.2,1.3,0.5,1.9,0.8c1.3,0.5,2.3,1.3,3.2,2.4
		c1,1.3,1.8,2.7,2.4,4.2c0.3,0.7,0.6,1.5,0.9,2.2C459.5,223.5,459.7,223.9,460,224.5z"/>
	<path class="st0" d="M209.5,450.3c0.5-0.3,0.9-0.4,1.2-0.6c2.4-1.7,4.8-3.2,7.5-4.3c0.9-0.4,1.9-0.8,2.9-1.1c1.8-0.5,3.4,0,4.9,0.9
		c1.2,0.8,1.5,2,1,3.3c-0.9,2.6-2.3,4.9-4.3,6.8c-0.3,0.3-0.6,0.5-0.8,0.8c-2.5,2.6-5.2,4.9-8.2,7c-1.8,1.3-3.7,2.4-5.6,3.7
		c-0.4,0.2-0.7,0.4-1.1,0.6c-0.7,0.3-1.3,0.4-2,0.2c-1.6-0.4-2.8-1.3-3.6-2.7c-2.5-4.2-4.4-8.7-6-13.4c-0.5-1.6-0.8-3.4-0.9-5.1
		c-0.1-1.4,0.1-2.7,0.5-4c0.4-1.8,2.1-3.2,3.9-3.3c0.5,0,0.9,0,1.4,0.2c0.7,0.2,1.3,0.5,1.9,0.8c1.3,0.5,2.3,1.3,3.2,2.4
		c1,1.3,1.8,2.7,2.4,4.2c0.3,0.7,0.6,1.5,0.9,2.2C209,449.3,209.2,449.7,209.5,450.3z"/>
	<path class="st0" d="M562.9,215.1c0.4-0.2,0.7-0.3,0.9-0.4c1.7-1.2,3.5-2.3,5.4-3.1c0.7-0.3,1.4-0.6,2.1-0.8c1.3-0.4,2.5,0,3.5,0.7
		c0.9,0.5,1.1,1.4,0.8,2.4c-0.6,1.9-1.7,3.5-3.1,4.8c-0.2,0.2-0.4,0.4-0.6,0.6c-1.8,1.9-3.7,3.5-5.9,5c-1.3,0.9-2.7,1.8-4,2.6
		c-0.3,0.2-0.5,0.3-0.8,0.4c-0.5,0.2-0.9,0.3-1.5,0.1c-1.1-0.3-2-0.9-2.6-1.9c-1.8-3-3.2-6.2-4.3-9.6c-0.4-1.2-0.6-2.4-0.6-3.6
		c-0.1-1,0.1-1.9,0.3-2.9c0.3-1.3,1.5-2.3,2.8-2.4c0.3,0,0.7,0,1,0.1c0.5,0.2,0.9,0.4,1.4,0.6c0.9,0.4,1.7,1,2.3,1.7
		c0.7,0.9,1.3,2,1.7,3c0.2,0.5,0.4,1.1,0.7,1.6C562.5,214.3,562.7,214.7,562.9,215.1z"/>
	<path class="st0" d="M726.5,479.3c0.4-0.2,0.7-0.3,0.9-0.4c1.7-1.2,3.5-2.3,5.4-3.1c0.7-0.3,1.4-0.6,2.1-0.8c1.3-0.4,2.5,0,3.5,0.7
		c0.9,0.5,1.1,1.4,0.8,2.4c-0.6,1.9-1.7,3.5-3.1,4.8c-0.2,0.2-0.4,0.4-0.6,0.6c-1.8,1.9-3.7,3.5-5.9,5c-1.3,0.9-2.7,1.8-4,2.6
		c-0.3,0.2-0.5,0.3-0.8,0.4c-0.5,0.2-0.9,0.3-1.5,0.1c-1.1-0.3-2-0.9-2.6-1.9c-1.8-3-3.2-6.2-4.3-9.6c-0.4-1.2-0.6-2.4-0.6-3.6
		c-0.1-1,0.1-1.9,0.3-2.9c0.3-1.3,1.5-2.3,2.8-2.4c0.3,0,0.7,0,1,0.1c0.5,0.2,0.9,0.4,1.4,0.6c0.9,0.4,1.7,1,2.3,1.7
		c0.7,0.9,1.3,2,1.7,3c0.2,0.5,0.4,1.1,0.7,1.6C726.1,478.5,726.3,478.8,726.5,479.3z"/>
	<path class="st0" d="M191.3,567.8c0.4-0.2,0.7-0.3,0.9-0.4c1.7-1.2,3.5-2.3,5.4-3.1c0.7-0.3,1.4-0.6,2.1-0.8c1.3-0.4,2.5,0,3.5,0.7
		c0.9,0.5,1.1,1.4,0.8,2.4c-0.6,1.9-1.7,3.5-3.1,4.8c-0.2,0.2-0.4,0.4-0.6,0.6c-1.8,1.9-3.7,3.5-5.9,5c-1.3,0.9-2.7,1.8-4,2.6
		c-0.3,0.2-0.5,0.3-0.8,0.4c-0.5,0.2-0.9,0.3-1.5,0.1c-1.1-0.3-2-0.9-2.6-1.9c-1.8-3-3.2-6.2-4.3-9.6c-0.4-1.2-0.6-2.4-0.6-3.6
		c-0.1-1,0.1-1.9,0.3-2.9c0.3-1.3,1.5-2.3,2.8-2.4c0.3,0,0.7,0,1,0.1c0.5,0.2,0.9,0.4,1.4,0.6c0.9,0.4,1.7,1,2.3,1.7
		c0.7,0.9,1.3,2,1.7,3c0.2,0.5,0.4,1.1,0.7,1.6C190.8,567.1,191,567.4,191.3,567.8z"/>
</g>
</svg>
