<?xml version="1.0" encoding="utf-8"?>
<!-- Generator: Adobe Illustrator 22.0.0, SVG Export Plug-In . SVG Version: 6.00 Build 0)  -->
<svg version="1.1" id="Layer_1" xmlns="http://www.w3.org/2000/svg" xmlns:xlink="http://www.w3.org/1999/xlink" x="0px" y="0px"
	 viewBox="0 0 1080 1080" style="enable-background:new 0 0 1080 1080;" xml:space="preserve">
<style type="text/css">
	.st0{fill:#E43B40;}
</style>
<g>
	<g>
		<path d="M196.1,352.4c-6.2,4.8-12.7,9.3-18.6,14.4c-9.3,8.2-16.4,17.8-20.6,29.4c-6.5,17.2,1.4,34.7,11.6,42.6
			c2.3,1.7,4.5,3.4,6.8,5.1c0.6,0.6,1.7,1.1,1.4,2.3c-0.6,1.1-1.7,0.6-2.8,0.6c-2-0.3-3.7-1.1-5.6-2c-14.7-9-21.7-22-20.9-39.2
			c0.3-5.1,1.7-9.9,3.7-14.4c5.1-11.6,12.4-21.5,22.3-29.1c7.6-5.9,15.2-11.6,23.1-16.7c2.5-1.7,3.7-3.4,4-5.9
			c0.6-6.8,2.8-13,5.6-18.9c1.1-2.3,2.5-4.5,4.5-6.2c5.4-5.1,14.7-4.5,19.5,1.1c1.7,2,1.4,4.2,0.6,6.5c-1.1,2.5-2.5,4.8-4.5,6.5
			c-1.7,2-2.5,4.5-3.1,7.1c-2.3,11.3-2.8,22.9-3.4,34.4c-0.6,13.5-0.3,27.4,1.1,40.9c1.1,8.5,2.5,16.9,4.5,25.4
			c2.8,11.9,6.2,23.4,10.4,34.7c4,10.2,8.8,19.5,15.5,27.7c3.1,3.7,3.7,4,7.1,0.3c3.4-3.4,6.2-7.3,8.8-11.9
			c5.6-9.9,9.9-20.3,13.3-31c0.3-1.4,0.8-2.5-1.1-3.4c-8.8-4.2-15-10.7-19.8-18.9c-8.2-13.3-12.7-27.7-14.4-43.2
			c-2.3-17.2-0.8-34.4,4.2-51.1c2.8-9,6.8-17.5,14.1-24c3.4-3.1,7.1-5.4,11.6-6.2c5.4-0.8,10.2,0.6,14.7,2.8
			c5.9,2.8,9.9,7.1,12.7,13c2.8,6.2,3.7,13,4,19.8c0.8,13.5-0.3,27.4-2.3,41.2c-3.1,21.2-8.2,42.1-14.1,62.7
			c-0.3,0.8-0.6,1.7-0.8,2.8c4.8,1.4,9.6,0.8,14.4-0.6c7.9-2.8,15-7.3,20.3-13.8c2-2.3,4.2-4.5,6.2-6.5c0.6-0.3,0.8-0.6,1.1-0.8
			c1.1-0.8,2.3-0.6,3.4,0.3c0.8,0.8,0.3,1.7-0.3,2.5c-1.4,2-2.5,4-4,5.6c-5.6,6.2-11.6,11.9-19.5,15.5c-6.2,2.8-12.7,3.4-19.2,2.5
			c-0.8,0-1.4-0.3-2.3-0.3c-1.1-0.3-2,0-2.3,1.4c-0.8,2.5-1.7,5.1-2.5,7.6c-4.8,13-10.2,25.4-18.1,36.7c-2.5,3.7-5.4,6.2-9.9,6.2
			c-2.5,0.3-5.4-0.6-7.9-1.4c-5.1-1.7-9.6-4.8-13.8-8.5c-6.2-5.9-11.3-13-15.5-20.6c-8.2-15.2-13.8-31.6-17.5-48.6
			c-4.8-20.3-5.9-40.6-4.8-61.3c0-3.7,0.6-7.1,0.8-10.7c0.3-1.7,0.6-3.7,0.3-5.4C197.3,351.2,196.7,352.1,196.1,352.4z M283.1,445.5
			c2.5-7.9,4.5-16.1,6.2-24.3c5.4-26.5,8.7-53.4,6.8-80.7c-0.6-6.2-2.5-11.9-5.4-17.5c-0.8-2-2.5-3.7-4.2-5.1c-2-1.7-4-1.7-6.2-0.3
			c-2.5,1.4-4.8,3.4-7.1,5.6c-5.6,6.8-8.5,14.7-10.4,22.9c-5.4,21.7-6.2,43.8-1.4,65.5c2,9,4.8,17.5,9.6,25.4
			c2.8,4.5,6.5,8.5,11.3,11.9C282.5,447.5,282.8,446.7,283.1,445.5z"/>
		<path d="M365.8,463c-2.3,6.2-4.8,12.1-8.5,17.8c-4.2,7.3-9.9,10.2-20.3,6.8c-6.5-2.3-10.7-7.1-13.5-13.3
			c-4.8-9.6-5.9-19.8-4.8-30.2c1.4-12.7,5.9-24,13.5-34.2c5.9-7.9,13.8-11.6,23.7-10.4c7.6,1.1,12.4,5.9,15.5,12.7
			c0.8,1.7,1.4,3.1,2,4.8c0.3,1.4,0.8,1.7,2.3,1.1c4.2-1.4,8.5-1.1,13-0.3c1.4,0.6,2.5,1.1,3.7,2c1.7,0.8,2.3,2.3,1.7,4.2
			c-1.7,9-2.3,18.3-2.8,27.7c-0.6,7.9-0.8,16.1-0.6,24c0.3,5.6,1.4,11,4,16.1c2.5,4.8,4.5,5.1,8.5,1.1c3.4-3.1,5.6-7.1,7.6-11
			c4.8-9.9,8.2-20.3,11-31.1c1.1-4.5,2.5-9,3.1-13.5c0.3-2,0.8-4,1.7-5.9c0.6-0.8,1.1-1.7,2.5-1.4c0.8,0.6,0.6,1.4,0.6,2.3
			c0.3,2-0.3,4.2-0.8,6.2c-3.4,14.7-7.6,29.1-13.3,42.9c-1.7,4-3.7,7.6-5.9,11.3c-3.7,5.9-7.9,7.9-16.7,6.2
			c-6.5-1.4-11-5.6-14.1-11.3c-5.6-9.3-9-19.5-9.3-30.2c0-0.8-0.3-1.4-0.3-2.3c-0.3,0-0.6,0-0.8,0
			C367.5,457.7,366.6,460.5,365.8,463z M342.9,473.8c0.3,2.5,0.3,5.6,1.4,8.2c0.8,2.8,2,3.1,4.2,1.4c2.8-1.7,4.8-4.5,6.5-7.1
			c3.4-5.4,5.6-11,7.9-16.7c4-10.2,6.8-20.9,8.2-31.6c0-1.1,0-2.3-0.3-3.4c-1.1-3.4-2.3-7.1-3.7-10.7c-1.7-4.5-4.8-7.9-9.3-9.9
			c-2.5-1.4-3.1-1.1-5.1,0.8c-0.6,0.6-0.8,1.1-1.1,1.4c-3.4,5.9-5.9,12.1-7.1,18.9c-2,10.7-2,22-2.8,33
			C342.1,463.3,342.3,468.4,342.9,473.8z"/>
		<path d="M423.4,369.6c2.8-15,7.6-29.1,15.2-42.1c3.4-5.6,7.6-10.4,12.7-14.7c4.2-3.4,9-5.4,14.4-5.9c8.5-0.8,16.9,3.4,20.6,12.1
			c4,10.2,3.7,20.3,1.7,30.5c-1.7,8.2-4,16.1-6.8,24c-7.1,17.8-16.4,34.2-32.2,46c-4,3.1-5.1,6.5-5.4,11.3
			c-0.3,14.4,0.8,28.8,2.8,42.9c1.1,7.6,2.8,15.5,5.9,22.9c0.8,1.7,1.7,3.4,3.1,5.1c2.3,2.8,2.8,3.1,6.2,1.1c3.1-1.7,5.9-4,8.5-6.8
			c4-4.8,7.3-9.9,9.9-15.5c5.9-13.5,11.3-27.1,15-41.5c0.6-2.5,1.1-5.4,1.7-7.9c0-0.6,0-0.8,0.3-1.4c0.6-2,1.4-2.8,2.8-2.3
			c1.7,0.3,1.7,1.7,1.4,3.1c-0.8,3.4-1.4,6.8-2,9.9c-3.1,14.1-8.5,27.4-14.4,40.4c-2.5,5.6-5.4,11-8.8,16.1c-1.7,2.8-4,5.4-5.9,7.9
			c-3.4,3.7-7.6,4.8-12.4,4.8c-4.5-0.3-8.5-1.7-12.4-4c-9.9-6.2-15.5-15.5-19.2-26.3c-3.7-10.2-5.6-20.6-6.5-31.3
			c-0.8-8.8-0.8-17.8-0.8-26.5C418.6,404,419.7,386.5,423.4,369.6z M461.5,401.5c11.3-16.9,17.8-35.8,20.9-56.2
			c0.8-5.1,1.4-10.4,0.3-15.8c-0.8-4-1.4-8.2-4.2-11.9c-3.7-4.8-4.2-4.8-9-1.1c-4,3.1-6.2,7.3-8.5,11.9c-4,8.2-6.5,16.9-8.8,25.7
			c-3.7,15-5.6,30.2-7.1,45.4c-0.6,6.5-0.8,13-0.8,20.3C451,414.2,456.9,408.6,461.5,401.5z"/>
		<path d="M495,411.4c4.2-7.3,10.2-13.3,17.8-16.9c5.6-2.5,11.9-3.1,17.8-1.7c7.9,1.7,13,8.2,11.9,16.1c-2.3,15.2-9,27.9-20.9,37.5
			c-0.6,0.6-1.1,1.1-2,1.4c-4,1.4-5.1,4.8-5.1,8.8c-0.3,9.3,0,18.3,2.8,27.4c0.8,2.5,2.3,5.4,3.7,7.6c2,2.8,3.4,3.4,6.8,2.3
			c5.6-2,9.9-5.9,13.3-10.7c3.1-4.2,5.9-8.8,8.2-13.5c5.9-11,10.4-22.6,13.5-34.4c0.6-1.7,1.1-3.4,1.7-5.1c0.6-1.4,1.4-1.7,2.8-1.4
			c1.7,0.3,1.4,1.7,1.1,2.8c-1.1,4.5-2.3,9.3-3.7,13.8c-3.4,9.9-7.3,19.2-12.1,28.2c-2.8,5.4-6.2,10.4-9.9,15.2
			c-7.1,9.3-15.8,12.4-27.1,9.3c-9.3-2.5-16.1-8.2-21.5-16.1c-6.2-9.6-9.3-20-9.6-31.3C485.2,436.5,488.3,423.5,495,411.4z
			 M521.6,411.7c-3.4,10.2-5.4,20.6-5.9,31.3c0,0.6-0.6,1.4,0.6,2c10.4-8.5,17.2-32.5,11.9-43.2C524.7,404.6,522.7,408,521.6,411.7z
			"/>
		<path d="M609.6,408c-5.9,6.2-10.2,13.5-13.5,21.5c-5.9,13.5-9,27.9-9.9,42.9c-0.6,6.5-1.4,13-1.1,19.8c0,3.1-2.5,5.9-5.9,6.5
			c-5.1,0.8-13-2.5-15.5-7.1c-0.6-0.8-0.6-2-0.8-2.8c-4.2-14.1-5.6-28.8-4.5-43.8c0.3-3.4,0-7.1,0.3-10.4c0-8.5,1.1-16.9,3.7-25.1
			c1.1-3.1,3.1-4.8,6.2-5.4c5.6-0.8,11.3-0.3,16.4,2.5c4,2,4.5,3.4,3.7,7.6c-1.7,10.7-3.7,21.5-5.4,32.5c-0.6,2.5-0.6,5.1,0,7.6
			c0.3-1.1,0.6-2.5,0.8-4c2.5-11.3,6.2-22.3,11.6-32.7c3.1-6.2,7.1-11.9,12.4-16.1c9.3-7.3,16.9-7.9,27.4-2.5
			c4.8,2.5,7.1,7.1,7.3,12.4c0.6,7.3-0.3,14.1-2.5,20.9c-3.4,11-6.8,22.3-8.8,33.6c-2.3,11.3-3.4,22.9-2.8,34.4
			c0.6,6.8,2,13.3,5.4,19.2c3.7,6.2,5.1,5.9,10.2,1.7c4.2-3.4,7.1-7.6,9.9-12.4c3.7-6.5,6.5-13.8,8.8-21.2c3.4-11.6,5.6-23.1,7.3-35
			c0.8-5.9,1.7-11.9,2.5-17.8c0-0.6,0-1.4,0.3-2c0.3-0.8,0.8-1.4,1.7-1.1c1.1,0,1.7,0.6,1.4,1.7c0,2.8,0.3,5.6-0.3,8.5
			c-0.6,5.6-1.4,11.3-2.5,16.9c-3.1,15-6.2,29.9-11.3,44.3c-2.3,6.8-5.4,13.3-9.9,18.9c-3.1,4.2-7.1,6.8-12.4,7.3
			c-2.3,0.3-4.5,0-6.8-0.6c-14.1-3.4-23.1-12.1-27.9-25.1c-3.4-9.3-4-18.6-3.4-28.2c1.1-19.2,6.5-37,14.1-54.2c2-4.8,3.4-9.9,4.5-15
			c0.3-1.4,0.3-3.1,0-5.4C615.6,402.3,612.5,405.2,609.6,408z"/>
		<path d="M690.1,376.4c-0.8,13.8-1.7,27.9-2.5,41.8c-0.6,16.1-0.8,32.2-0.3,48.3c0.3,6.2,1.1,12.1,2.3,18.1c0,0.6,0.3,1.1,0.3,1.7
			c1.1,4,2.5,4.5,5.9,1.7c3.4-3.1,6.2-7.1,8.8-11c3.7-6.5,5.9-13.5,8.2-20.6c2-7.1,4.2-14.4,6.2-21.5c0.3-0.8,0.6-1.7,0.8-2.5
			c0.6-0.8,1.1-1.4,2-1.1c1.1,0.3,1.4,0.8,1.4,1.7c-0.3,0.8-0.3,2-0.3,2.8c-2,11-5.6,21.7-9.3,32.2c-2.3,6.2-4.8,12.1-7.9,17.8
			c-0.8,1.7-2,3.4-2.8,4.8c-3.4,5.1-7.9,6.5-13.5,5.1c-7.1-1.4-12.4-5.4-16.1-11.6c-3.7-6.2-5.4-13-6.5-20c-1.4-8.8-2.3-17.2-2.3-26
			c0-8.8,0-17.5,0-26.3c0-16.9,1.1-33.9,2.5-50.8c0.6-4.2,0.8-8.5,1.1-12.7c0.3-1.7-0.3-2-1.7-2.3c-14.4-3.1-28.2-1.4-40.9,6.5
			c-2.3,1.1-4,3.1-5.6,4.8c-2.3,2.5-6.8,1.1-7.9-1.7c-0.3-1.4,0.3-2.3,0.8-3.1c2-2.3,4.2-4.2,6.8-5.6c5.9-3.7,12.7-5.4,19.5-6.5
			c9.3-1.4,18.3-0.3,27.1,1.7c2.8,0.6,2.8,0.6,3.1-2c1.1-7.1,2-14.1,3.1-21.2c0.8-6.5,3.4-8.5,9.9-7.3c4.5,0.6,8.8,2.3,12.4,5.1
			c3.4,2.5,3.7,4,2.5,8.2c-2,7.6-2.8,15.5-4.2,23.1c-0.3,1.1,0,2,1.1,2.3c12.1,4,24.3,7.3,37.3,7.9c4,0,7.6-0.6,11.6-1.7
			c4.8-1.4,9.3-3.7,12.7-7.3c1.1-1.4,2.5-2.5,3.7-4c1.1-1.1,2.3-1.1,3.7-0.3c1.1,0.8,2,2,1.1,3.7c-1.4,2.5-2.8,4.8-5.6,6.8
			c-10.4,6.8-21.5,7.6-33.3,6.5c-9.6-1.1-18.9-3.1-27.7-6.5c-1.7-0.6-3.1-1.1-5.4-1.7C691.2,361.4,690.7,369,690.1,376.4z"/>
		<path d="M763.8,429.7c0,1.1-0.3,2.3-0.6,3.1c-4,17.2-9.6,34.2-17.5,50c-2,4.2-4.2,8.2-7.1,11.9c-2.5,3.4-5.9,4.5-9.9,3.7
			c-5.9-1.1-10.4-4.2-13.8-9.3c-4.2-6.2-6.5-13.3-7.9-20.9c-2.3-11.3-1.7-22.9-1.1-34.2c0.3-8.8,1.4-17.5,2.5-26
			c0.8-6.2,2.8-7.9,8.8-7.6c4,0.3,7.6,1.1,10.7,3.1c2.5,1.7,3.4,3.7,2.8,6.8c-1.4,9-2.3,18.1-2.5,27.4c-0.6,7.6-0.6,15.2-1.1,22.9
			c-0.3,9.6,0.3,19.2,2.8,28.5c0.3,0.6,0.6,1.4,0.8,2c0,0.3,0.3,0.6,0.6,1.1c5.6-4.2,9.6-9.9,12.4-16.1c4.2-8.5,7.3-17.5,9.9-26.8
			c1.7-5.9,3.7-11.9,5.6-17.8c0.3-0.8,0.8-2,1.4-2.8c0.3-0.8,1.4-0.8,2.3-0.6C763.5,428.3,764,428.9,763.8,429.7z M711.3,382
			c-1.1-2.5-2.3-5.4-2.3-8.5c-0.3-4.2,0-8.8,0.3-13c0.3-4.8,2-6.5,7.6-6.2c2.5,0,5.9,1.1,8.8,2.8c2.3,1.4,3.1,3.1,2.8,5.6
			c-0.8,5.1-1.4,10.2-2.3,15.5c-0.3,2.3-2,4.2-3.1,6.2c-0.6,0.6-1.1,1.1-2,1.4C718,386.8,712.7,385.1,711.3,382z"/>
		<path d="M799,408c-5.9,6.2-10.2,13.5-13.6,21.5c-5.9,13.5-9,27.9-9.9,42.9c-0.6,6.5-1.4,13-1.1,19.8c0,3.1-2.5,5.9-5.9,6.5
			c-5.1,0.8-13-2.5-15.5-7.1c-0.6-0.8-0.6-2-0.8-2.8c-4.2-14.1-5.6-28.8-4.5-43.8c0.3-3.4,0-7.1,0.3-10.4c0-8.5,1.1-16.9,3.7-25.1
			c1.1-3.1,3.1-4.8,6.2-5.4c5.6-0.8,11.3-0.3,16.4,2.5c4,2,4.5,3.4,3.7,7.6c-1.7,10.7-3.7,21.5-5.4,32.5c-0.6,2.5-0.6,5.1,0,7.6
			c0.3-1.1,0.6-2.5,0.8-4c2.5-11.3,6.2-22.3,11.6-32.7c3.1-6.2,7.1-11.9,12.4-16.1c9.3-7.3,16.9-7.9,27.4-2.5
			c4.8,2.5,7.1,7.1,7.3,12.4c0.6,7.3-0.3,14.1-2.5,20.9c-3.4,11-6.8,22.3-8.8,33.6c-2.3,11.3-3.4,22.9-2.8,34.4
			c0.6,6.8,2,13.3,5.4,19.2c3.7,6.2,5.1,5.9,10.2,1.7c4.2-3.4,7.1-7.6,9.9-12.4c3.7-6.5,6.5-13.8,8.8-21.2c3.4-11.6,5.6-23.1,7.3-35
			c0.8-5.9,1.7-11.9,2.5-17.8c0-0.6,0-1.4,0.3-2c0.3-0.8,0.8-1.4,1.7-1.1c1.1,0,1.7,0.6,1.4,1.7c0,2.8,0.3,5.6-0.3,8.5
			c-0.6,5.6-1.4,11.3-2.5,16.9c-3.1,15-6.2,29.9-11.3,44.3c-2.3,6.8-5.4,13.3-9.9,18.9c-3.1,4.2-7.1,6.8-12.4,7.3
			c-2.3,0.3-4.5,0-6.8-0.6c-14.1-3.4-23.1-12.1-27.9-25.1c-3.4-9.3-4-18.6-3.4-28.2c1.1-19.2,6.5-37,14.1-54.2c2-4.8,3.4-9.9,4.5-15
			c0.3-1.4,0.3-3.1,0-5.4C805,402.3,801.9,405.2,799,408z"/>
		<path d="M859.2,411.4c4.2-7.3,10.2-13.3,17.8-16.9c5.6-2.5,11.9-3.1,17.8-1.7c7.9,1.7,13,8.2,11.9,16.1
			c-2.3,15.2-9,27.9-20.9,37.5c-0.6,0.6-1.1,1.1-2,1.4c-4,1.4-5.1,4.8-5.1,8.8c-0.3,9.3,0,18.3,2.8,27.4c0.8,2.5,2.3,5.4,3.7,7.6
			c2,2.8,3.4,3.4,6.8,2.3c5.6-2,9.9-5.9,13.3-10.7c3.1-4.2,5.9-8.8,8.2-13.5c5.9-11,10.4-22.6,13.5-34.4c0.6-1.7,1.1-3.4,1.7-5.1
			c0.6-1.4,1.4-1.7,2.8-1.4c1.7,0.3,1.4,1.7,1.1,2.8c-1.1,4.5-2.3,9.3-3.7,13.8c-3.4,9.9-7.3,19.2-12.1,28.2
			c-2.8,5.4-6.2,10.4-9.9,15.2c-7.1,9.3-15.8,12.4-27.1,9.3c-9.3-2.5-16.1-8.2-21.5-16.1c-6.2-9.6-9.3-20-9.6-31.3
			C849.3,436.5,852.4,423.5,859.2,411.4z M885.7,411.7c-3.4,10.2-5.4,20.6-5.9,31.3c0,0.6-0.6,1.4,0.6,2
			c10.4-8.5,17.2-32.5,11.9-43.2C888.8,404.6,886.8,408,885.7,411.7z"/>
	</g>
	<g>
		<path d="M381.4,655.6c-0.2-0.6-0.4-1.5-0.8-2.5c-0.2-0.2-0.4-0.6-0.6-1c-0.2-0.4-0.2-0.6-0.4-0.8c-0.4-0.4-0.8-0.8-1.4-1
			c-0.8-0.6-1.7-0.6-2.9-0.4c-2.1,0.4-3.5,1-6.2,3.5c-2.3,2.3-5.4,6.4-7.5,11.6c-0.6,1.2-1,2.7-1.4,3.7c-0.4,1.4-1,2.9-1.2,4.1
			c-0.8,2.9-1.2,5.8-1.4,8.7c-0.2,2.9-0.2,5.8-0.2,8.9c0.4,2.9,0.6,5.8,1.2,8.5c0.6,2.9,1.4,5.6,2.5,8.1c1.2,2.7,2.3,5.2,3.5,7.2
			c2.7,3.9,5.2,6,6.2,6.2c0.2,0,0.4,0.2,0.6,0.2c0,0,0,0,0.2,0c0.2-0.2,0.6-0.6,0.8-1c0.8-1.7,1.9-3.9,2.7-6.2
			c1.9-5,2.7-8.7,3.7-9.5c3.9-3.1,11.8-6.2,19.7-6.8c4.1-0.2,8.1,0.2,11.6,2.3c3.5,1.9,6.2,5.2,7.7,10.3c0.4,1.4,0.6,3.3,0.4,6.2
			c0,1.2-0.2,2.9-0.4,4.8c-0.2,0.8-0.2,1.7-0.4,2.7c-0.2,1-0.4,2.1-0.8,3.1c-0.8,4.6-2.3,9.7-5.8,16.1c-0.4,0.8-0.8,1.7-1.4,2.5
			c-0.4,0.8-1,1.4-1.9,2.5c-1.2,2.1-2.7,3.5-4.3,5.4c-3.3,3.5-7.5,6.6-12,8.9c-5.8,2.9-12.4,4.3-19.2,4.3c-3.5,0-7-0.4-10.6-1
			c-1.9-0.6-3.5-1-4.8-1.7c-1.7-0.4-3.3-1-4.8-1.9c-12.6-5.8-20.9-15.7-26.5-25.2c-10.6-18.8-13.9-41-10.6-61.9
			c1.7-10.3,5-20.3,9.7-29.2c4.8-8.9,11.2-17.4,19.9-24.2c2.3-1.7,4.3-3.1,7-4.3c1.2-0.8,2.3-1.4,3.7-2.1c1.2-0.6,2.7-1,3.9-1.4
			c5.4-1.9,10.8-2.7,15.9-2.7c11.4,0,21.3,4.1,27.5,9.7c3.9,3.3,6.4,6.8,8.7,10.1c1.9,3.3,3.3,6.6,3.9,8.7c1.4,4.6,1.9,7,1.9,7.4
			c0.4,2.3,0.8,7.5-0.8,11.6c-1.9,4.6-5.4,8.1-11.6,8.9c-6.4,0.8-11.8-1-15.9-3.5c-3.7-2.3-6.4-5.2-6.8-7
			C381.6,656.4,381.6,656.2,381.4,655.6z"/>
		<path d="M467.3,664.7c-0.4,1.4-0.6,3.1-0.8,5.4c-0.4,4.6-1.2,11.2-1,18.2c0,36.8,19.2,27.1,19.2-2.5c0.2-7-0.6-12.8-1.2-17
			c-0.8-4.3-1-7-0.8-8.1c3.7-17.4,38.1-19.5,43.5-0.6c2.5,7.2,4.1,17.2,3.9,28.6c-0.6,22.6-7.7,44.9-23.2,59.2
			c-1.9,1.7-3.9,3.1-6.2,4.6c-2.3,1.7-4.8,3.1-7.5,3.9c-5.2,2.3-10.8,3.5-16.3,3.7c-5.8,0-11.2-1-16.3-3.1
			c-5.2-1.9-10.1-5.2-13.9-8.3c-7.7-6.8-12.2-14.7-14.9-21.9c-1.4-3.5-2.5-6.8-3.3-10.3c-0.8-3.1-1.2-6.2-1.7-9.5
			c-0.8-6-0.8-11.6-0.6-16.8c0.4-10.3,1.7-18.2,2.9-23.8c1.2-5.6,2.3-8.5,2.3-8.9c0.8-3.1,5.2-12.6,17.6-10.3
			c12.4,2.1,19.5,11.4,18.6,15.7C467.5,662.8,467.5,663.4,467.3,664.7z"/>
		<path d="M623.2,622.2c-2.7,2.1-16.3,2.1-32.7,2.1c0.2,0.2,0.2,0.6,0.2,0.8c0,0,0,13.2,0,25.9c0,12.2,0.2,29,0.4,45.7
			c0.4,33.3,1.9,67.3-1.2,70c-6.6,5.6-30.6,10.8-39.3,1c-4.6-4.8-5.4-39.1-3.3-72.4c1.4-21.7,3.9-48.6,6.6-71
			c-6.6,0-14.5,1.2-21.1,0.2c-1.2,0-6-0.8-7.5-9.1c-1.2-8.3,1.9-14.7,4.1-15.1c0,0,5.6-0.8,14.3-1.9c14.9-3.1,76.4-7,80.5-2.5
			C627.7,600.5,630,616.9,623.2,622.2z"/>
		<path d="M673,687.8c1.2,35.4,0.8,71.6-2.5,74.5c-7,5.6-31.3,9.1-39.5-1.4c-3.9-5.2-3.1-39.5-1.9-73.5c0.6-16.8,1.4-33.3,2.1-45.7
			c0.6-12.6,1.2-21.1,1.2-21.5c0.4-2.1,1.9-9.3,14.7-10.3c12.6-0.8,21.5,4.3,21.7,8.3C668.9,618.1,671.8,652.7,673,687.8z"/>
		<path d="M759.8,756.1c-1.7,3.3-16.6,5-31.3,5.6c-8.9,0.4-36,2.9-42.8-3.3c-1.4-1.2-3.3-4.1-3.5-8.3c-2.5-36,1-73.1,4.3-94.4
			c2.1-15.1,2.1-19.5,17-19.9c5.4-0.2,12.4-0.2,19.5-0.2c15.3,0.2,30.8,0.8,31.9,3.1c2.1,4.6,2.7,20.7-2.3,26.1
			c-2.3,2.7-14.3,2.1-27.3,0.6c0.2,4.3,0.4,9.5,0.6,14.9c11.4-1.7,25-2.9,26.1-0.6c1.9,4.3,3.5,20.5,0.8,26.3
			c-1.7,3.3-15.1,3.3-26.3,2.7c0,3.9,0,7.7,0,23.8c14.3-2.3,28.6-4.3,30.2-2.3C759.3,734.2,763.5,750.1,759.8,756.1z"/>
	</g>
	<g>
		<g>
			<path class="st0" d="M477.4,558.5c2.3,5.2,4.3,10,6.7,15.4c-2.3,0.1-4.1,0.2-6,0.2c-32.6,0-65.2,0-97.8-0.2c-4,0-6.7,0.8-9,4.3
				c-2.7,4.2-6.2,8-8.9,12.2c-2.7,4.1-6.4,5.8-11.1,6c-5,0.2-10.1,0.6-15.1,0.7c-14.2,0.1-28.3,0.9-42.5-0.3
				c-8.9-0.8-17.9-1.3-26.9-1.1c-5.6,0.1-8.8-4.7-5.3-9.5c3.1-4.2,6.6-8.1,10.4-11.6c3.8-3.5,8.1-6.5,12.7-10
				c-1.7-1.5-3.3-2.9-4.9-4.4c-5.9-5.8-11.8-11.7-17.7-17.6c-0.8-0.8-1.6-1.7-2.2-2.6c-3.3-4.5-1.5-8.2,4-8.8
				c0.8-0.1,1.6-0.1,2.4-0.1c27.4,0.7,54.7,1.5,82.1,2c6.2,0.1,10.6,2.5,14.2,7.2c3.9,5,8,9.9,11.8,15c1.7,2.4,3.6,3.2,6.5,3.2
				c28.9,0,57.7,0.1,86.6,0.2C470.5,558.5,473.8,558.5,477.4,558.5z M302.1,541.5c5,5.5,9.6,10.7,14.4,15.7c0.8,0.9,2.7,1,4.1,1
				c5.2,0.1,10.4,0.1,15.6,0c0.8,0,1.7-0.3,2.9-0.6c-4.9-5.3-9.4-10.2-14-15c-0.7-0.7-2-1.1-3-1.2
				C315.5,541.4,308.8,541.5,302.1,541.5z M275.1,586.3c0.2,0.5,0.4,1,0.6,1.4c8.6,0.1,17.1,0.3,25.7,0.4c0.7,0,1.8-0.4,2.1-0.9
				c2.2-4.1,4.4-8.1,6-13.4c-6.6,0-12.3,0-17.9,0c-0.9,0-2.1,0.2-2.7,0.7C284.1,578.5,279.6,582.4,275.1,586.3z M334.1,541.6
				c5.1,5.5,9.9,10.6,14.6,15.6c0.4,0.4,1.1,0.9,1.7,0.9c5.1,0.1,10.2,0.5,15.9-0.3c-4.3-5.9-9-10.6-13.9-15.1
				c-0.6-0.5-1.4-1.1-2.1-1.1C345.1,541.6,340,541.6,334.1,541.6z M318.4,574.1c-1.9,4.5-3.9,8.9-5.9,13.6c6.7,0,13,0,19,0
				c2-4.7,3.7-8.9,5.7-13.6C330.6,574.1,324.6,574.1,318.4,574.1z M275.7,541.6c5.3,5.4,9.9,10,14.4,14.6c0.4,0.4,1,1,1.6,1
				c4.6,0.5,9.2,0.8,14.7,1.3c-1-1.4-1.3-2-1.7-2.4c-4.4-4.4-8.8-8.7-13.2-13c-0.7-0.6-1.6-1.4-2.4-1.4
				C284.9,541.5,280.8,541.6,275.7,541.6z M338.8,587.7c4.2,0,7.4,0,10.7,0c1,0,2,0,2.9-0.1c0.8-0.1,1.6-0.4,2.2-0.9
				c1.3-1,6.4-10.5,6.9-12.8c-4.3,0-8.5-0.1-12.7,0.1c-1.1,0-2.7,0.6-3.2,1.5C343.2,579.2,341.3,583.1,338.8,587.7z"/>
			<path class="st0" d="M750.7,573.9c-67,0.1-132.9,1.3-199.8,0.4c2.2-3.3,4.4-5.7,5.7-8.5c2.7-5.8,6.9-7.2,13.2-7.2
				c58.5,0.7,117.1,1.1,175.6,1.6c1.9,0,3.8,0,6.8,0c-2-2.1-3.2-3.4-4.4-4.7c-3-3.4-6.1-6.8-9-10.3c-1.3-1.6-2.6-3.6-1.2-5.8
				c1.4-2.4,3.9-2.3,6.1-1.7c5,1.3,10.1,2.7,14.9,4.6c10.4,4.2,20.8,8.7,31.1,13.1c7,3,14.1,6.1,21,9.2c2.7,1.2,5.6,2.5,5.5,6.1
				c0,3.7-2.8,5.5-5.7,6.6c-8.1,3-16.1,6.2-24.4,8.6c-11.6,3.3-23.4,6-35.1,8.9c-1.9,0.5-3.9,0.8-5.8,0.8c-4.9,0-7.2-3.6-4.7-7.9
				c1.8-3.1,4.1-5.8,6.2-8.7C748,577.5,749,576.1,750.7,573.9z M753.8,583.6c9,0.1,47.4-11.3,51.4-14.4
				c-17.8-7.2-35.3-14.3-52.9-21.4c3.8,4.8,8,9.1,12.3,13.4c4.1,4.1,3.8,7.5-0.5,11.5C760.5,576.1,757.2,580,753.8,583.6z"/>
			<path class="st0" d="M516.7,543.1c3.3-3.8,6-7.3,9-10.5c5.3-5.6,12-7.5,19.6-6.6c4.4,0.5,7.6,2.9,9.7,6.7
				c2.9,5.2,3.9,10.7,2.2,16.5c-0.7,2.5-1.6,5-2.7,7.3c-6.3,13.4-15.7,24.7-25.8,35.4c-6.5,6.9-7.5,6.7-15,0.6
				c-6.3-5.2-12.3-10.6-18.2-16.3c-6.3-6.2-10.4-13.8-12.4-22.4c-1.6-6.5-1.2-13,2.3-18.9c4.6-7.9,12.8-9.6,19.9-3.9
				c3.1,2.5,5.7,5.8,8.5,8.7C514.8,540.7,515.6,541.8,516.7,543.1z"/>
		</g>
	</g>
</g>
</svg>
