<?xml version="1.0" encoding="utf-8"?>
<!-- Generator: Adobe Illustrator 22.0.0, SVG Export Plug-In . SVG Version: 6.00 Build 0)  -->
<svg version="1.1" id="Layer_1" xmlns="http://www.w3.org/2000/svg" xmlns:xlink="http://www.w3.org/1999/xlink" x="0px" y="0px"
	 viewBox="0 0 1080 1080" style="enable-background:new 0 0 1080 1080;" xml:space="preserve">
<g>
	<g>
		<g>
			<path d="M375.1,618c0,0.6,0,1.2-0.3,1.8c-1.8,15.2-6.7,29.5-14.3,42.9c-4.3,7-8.2,13.7-14,19.5c-5.5,5.5-11.6,7.9-19.2,5.8
				c-8.8-2.4-15.8-7.3-21-15.2c-5.8-9.1-8.8-19.2-9.7-29.8c-1.5-14.9-1.8-29.5,0-44.5c0.3-1.8,0-3-1.8-3.3c-1.8-0.3-2.1-1.8-2.7-3
				c-3.7-8.8,0-10.7,6.4-10.7c5.2-0.3,10.4-0.6,15.2-0.9v0.3c4.6,0,8.8,0,13.1,0c4.6,0,7.9,2.4,9.7,6.7c1.2,2.4,2.4,5.2,2.4,7.9
				c0.3,2.7-0.6,3.7-3.7,3.7c-1.5,0-2.1,0.6-2.4,1.8c-0.3,1.2-0.6,2.4-0.9,4c-3,16.7-5.8,33.8-7.3,50.9c-0.6,6.7-1.5,13.4,0.9,20.1
				c3.7,10,7.3,8.8,13.7,4.6c2.1-1.5,4-3.7,5.5-5.5c9.7-11.9,15.5-25.9,20.4-40.2c1.5-5.2,3.3-10.4,5.5-15.5c0-0.9,0.6-1.5,0.9-2.1
				c0.6-0.6,1.2-0.9,2.1-0.6C374.2,616.8,375.1,617.1,375.1,618z M303.8,535.5c0-0.9,0-2.7,0-4.6c0-3,1.2-4.6,4.3-5.2
				c8.5-1.2,16.1,1.2,22.5,7c1.2,1.2,2.1,2.7,1.8,4.9c0,5.8,0,11.6-1.2,17.1c-1.2,5.8-5.8,9.1-11.6,8.5c-7-0.9-15.2-8.2-15.2-16.1
				C304.5,543.4,303.2,539.8,303.8,535.5z"/>
			<path d="M366.6,674.4c5.2-6.7,10.7-13.1,17.1-18.6c2.1-1.8,2.4-3.3,1.5-5.8c-3-9.4-7.3-18.6-12.2-27.1c-3-5.2-6.4-10.7-8.8-16.1
				c-2.4-5.5-4.3-11.3-4.9-17.1c-0.6-10,1.2-19.2,8.8-26.2c4.3-4.3,9.4-5.5,15.5-4c3.7,0.9,7.3,2.1,10.7,4.6
				c5.8,4.3,7.9,10,6.7,17.4c-1.5,8.5-4.3,16.7-10,23.8c-1.8,2.1-2.1,4-0.6,6.4c4.9,7.9,9.1,16.4,13.7,24.7c0.9,1.5,1.5,1.5,3,0.6
				c4.9-2.7,9.4-5.5,14.3-8.5c6.1-3.7,12.8-6.7,19.8-9.1c0.9-0.3,1.5-0.6,2.4-0.6c0.9,0,2.1,0.3,2.4,1.5c0.3,0.9-0.6,1.5-1.5,1.8
				c-2.1,1.2-4.3,2.4-6.4,3.7c-9.7,4.9-18.3,10.7-26.5,17.7c-3,2.7-2.7,1.8-1.2,5.8c5.2,13.4,8.8,27.1,9.1,41.4
				c0.3,10.7-1.5,20.7-6.1,30.1c-5.8,12.2-21,20.7-35.3,18.6c-2.7-0.6-5.8-0.9-8.8-1.8c-13.1-4.6-15.2-10.7-16.4-21.6
				c0-0.9,0-1.8,0-2.7C353.5,698.7,358,685.9,366.6,674.4z M387.9,667.1c-10.7,11.9-18.3,25.6-20.1,41.7c-0.6,5.5,0.9,11,3,15.8
				c0.9,2.1,1.5,2.1,3.3,0.9c0.9-0.6,1.8-1.5,2.7-2.4c4-4.3,7-9.1,8.8-14.3c4-10.7,5.5-21.6,4.3-32.9c-0.3-3,0-6.1-1.2-9.1
				C388.2,667.1,387.9,667.1,387.9,667.1z M384.5,593.1c2.1-8.2,2.4-13.1,0.9-18C383.6,581.2,382.4,586.7,384.5,593.1z"/>
			<path d="M574.3,608.3c-4.6,6.4-7.6,13.4-10.1,20.7c-1.8,5.8-3.7,11.6-6.1,17.1c-1.5,3-2.4,3.7-5.8,3.3c-5.5-0.9-10-3.3-11.9-9.1
				c-0.9-4-2.4-7.6-4-11.3c-0.9-2.4-0.9-5.2-1.2-7.9c-0.6-10-0.3-19.8,1.2-29.5c0.3-0.6,0-0.9,0-1.5c-1.2,0.9-1.5,2.1-2.1,3.7
				c-4.3,10.4-6.7,21.6-9.4,32.6c-3,12.5-4.3,25-6.1,37.5c-1.2,6.7-2.1,13.1-3,19.5c-0.6,3.3-1.5,4.3-4.6,4.3
				c-5.8-0.3-10-2.1-13.1-7.3c-5.5-9.1-7-19.2-8.5-29.2c-2.4-16.4-2.7-32.9-1.5-49.3c0.3-2.1-0.3-3.7-2.1-4.9c-2.1-1.5-3.3-4-4-6.1
				c-1.2-3.7,0.3-6.4,3.7-7.3c7.9-2.1,15.5-4,23.8-4c6.7,0,12.5,5.8,12.5,12.5c0.3,1.2,0.3,2.4-1.2,2.7c-1.8,0.6-1.8,1.8-2.1,3.3
				c-1.2,7.3-3.3,14.6-4.3,21.9c-0.6,6.4-1.5,12.8-0.9,20.1c1.5-4.6,2.1-8.8,2.7-12.8c2.1-14,6.4-27.7,10.4-41.4
				c2.4-7.6,5.5-15.2,10.4-21.9c3.4-4.9,6.1-5.8,11.9-4.3c9.7,2.4,15.2,8.8,16.4,19.2c0.9,7,0.9,14,0.3,21c-0.3,1.2-0.3,2.7-0.3,4.3
				c1.5-0.6,1.8-1.8,2.7-3c3-4.3,6.4-8.5,10.7-11.9c4.9-4,10-4.9,16.1-2.7c11.3,4,16.4,14.9,16.7,23.4c0.3,7.3-1.2,14.6-3.7,21.9
				c-1.8,5.8-3.7,11.3-5.5,17.1c-3.3,11.3-5.5,22.5-4.9,34.4c0,3.3,0.6,6.7,1.5,10c0.6,1.5,1.2,3,2.1,4.3c2.1,3,3.3,3.7,7,2.1
				c4-1.5,7.3-3.7,10.4-6.7c10.4-9.7,16.1-22.2,21.3-35c4.3-10.7,7.6-21.6,9.7-32.9c0.3-1.8,0.9-3.7,1.5-5.5
				c0.6-1.2,1.2-1.8,2.7-1.5c1.5,0.3,1.8,1.2,1.5,2.4c-0.3,5.2-0.9,10-2.1,14.9c-2.4,11-5.5,21.6-10,32c-3.7,9.4-7.6,18.6-13.4,26.8
				c-3,4.3-6.7,7.9-11.3,10.7c-4.6,3-9.7,3.7-15.5,2.4c-17.1-4-29.2-17.4-31.7-34.7c-1.8-13.4,0-26.2,3.7-39c2.7-9.4,7-18.6,10.4-28
				c0.9-2.7,2.1-5.5,2.1-8.8C581.9,599.8,577.6,603.4,574.3,608.3z"/>
			<path d="M699.7,627.1c-1.5,4.6-3.7,9.1-6.1,13.4c-1.2,2.4-2.7,4.9-4.6,7c-3.3,4.3-7.6,5.2-12.5,4c-4.6-1.2-8.5-3.3-12.2-6.4
				c-7-6.4-11-14.6-13.4-24.1c-2.1-10-2.1-20.1-1.2-30.5c0.6-4.6,1.2-8.8,2.1-13.4c0-1.8,0-2.7-2.1-3.7c-3.3-1.5-5.5-4.3-6.7-7.6
				c-0.6-1.5-0.9-3,0.9-4c0.6-0.3,1.5-0.6,1.5-1.5c0-2.4,1.8-2.4,3.7-2.7c9.1-1.2,18.6-2.4,28-3.7c2.7-0.3,5.8-0.3,7.9,1.8
				c3,2.7,5.2,6.1,6.1,10c0.6,1.8,0,3-2.1,3.3c-0.6,0-1.2,0.3-2.1,0.3c1.5,3.3,0,6.1-1.5,8.8c-2.1,4-3,8.8-4.3,13.4
				c-4,15.2-5.5,30.8-3.3,46.6c0.3,1.5,0.6,2.7,1.2,4c0.9,0.3,1.5-0.6,2.1-1.2c3.4-3.3,5.8-7.3,7.6-11.9c4.6-9.4,7.6-19.8,10.1-29.8
				c1.5-6.1,3.3-11.9,4.6-18c0.6-2.1,1.5-4.3,2.4-6.4c0.3-1.2,0.6-2.1-1.5-2.7c-3.7-0.6-5.5-3.7-6.7-7c-0.9-2.1,0.3-4.6,2.4-5.5
				c7.3-3,14.9-4.9,22.8-5.8c4.9-0.3,9.7,3.7,10.4,8.5c0.3,1.2,0,2.1-0.9,2.7c-2.1,2.1-4.3,4.3-7.9,4.3c7,15.2,10,31.7,14.9,47.8
				c3.7-2.1,7-4.3,10.4-6.4c5.8-4,12.2-7,18.3-10.4c2.4-1.5,5.2-2.1,7.6-3c0.9,0,1.8-0.3,2.7,0c1.8,0,3.7,0.3,4,2.1
				c0.6,1.5-1.2,2.1-2.4,3c-4,3-8.8,4.9-13.4,7.3c-7.6,4-14.9,8.8-22.5,13.4c-2.1,1.2-2.4,2.4-1.8,4.9c2.7,11.9,4,24.1,4,36.2
				c-0.3,20.1-4.6,39.3-14.3,56.9c-4.9,8.8-11.6,16.7-20.1,22.2c-13.4,8.8-27.4,11.3-42.3,4c-8.2-4-12.2-11-13.7-19.8
				c-1.8-11.9,1.5-22.8,7-33.2c8.8-16.7,20.7-32,34.1-45.4c5.8-5.5,11.9-10,18-15.2c1.2-0.9,2.1-1.5,2.1-3.3
				c-0.6-14.6-1.5-28.9-5.2-42.9c-0.3-0.3-0.3-0.9-1.5-1.2C708.8,600.6,704.3,614,699.7,627.1z M712.8,647.5
				c-14,13.4-26.5,28.3-35.9,45.4c-3.4,6.1-5.8,12.5-7.3,18.9c-1.5,7.9-1.5,15.5,2.7,22.5c3.3,5.5,3.3,5.5,8.2,1.8
				c10.7-8.2,18.6-18.6,24.1-30.8c5.2-11.9,8.2-24.4,10-37.2c1.2-7.6,2.1-15.2,1.8-23.1C714.6,645.7,713.7,646.6,712.8,647.5z"/>
		</g>
	</g>
	<g>
		<g>
			<path d="M226.2,503.7h-8.8v-4.2c5.1,0,5.5-16.2,4.6-24.5l-25.8-169.4c-1.4-6-7.8-29.1-13.8-29.1v-3.7h52.2v3.7
				c-6,0-6,26.8-6,26.8L253,459.8l24-156.9c0.9-7.8-0.5-26.3-5.5-26.3v-3.7h52.2v3.7c-6,0-12.5,23.1-13.8,29.1l-25.8,169.9
				c-0.9,8.3-0.5,24,4.2,24v4.2H226.2z"/>
			<path d="M404.8,503.7h-25.4c-23.5,0-42.9-19.4-42.9-42.9V315.4c-0.9-23.1,15.2-41.5,42.9-42.5h25.4c23.5,0,42.5,18.9,42.5,42.5
				v145.4C447.3,484.3,428.4,503.7,404.8,503.7z M379.5,470.9h25.4c5.1,0,9.7-4.6,9.7-10.2V315.4c0-5.1-4.6-9.7-9.7-9.7h-25.4
				c-5.5,0-10.2,4.6-10.2,9.7v145.4C369.3,466.3,373.9,470.9,379.5,470.9z"/>
			<path d="M467.1,503.7v-4.2c5.1,0,7.8-18.5,8.8-25.8V303.4c-0.9-7.4-3.7-26.3-8.8-26.3v-4.2h76.6c23.5,0,42.9,19.4,42.9,42.9
				v145.4c0,23.5-19.4,42.5-42.9,42.5H467.1z M508.7,470.9h35.1c5.5,0,10.2-4.6,10.2-9.7V315.8c0-5.5-4.6-9.7-10.2-9.7h-35.1V470.9z
				"/>
			<path d="M607.9,503.7v-4.2c5.5,0,8.3-22.6,8.8-28.2v-168c-0.9-6.9-3.7-26.3-8.8-26.3v-4.2h50.3v4.2c-6,0-8.8,24.9-8.8,28.6v47.5
				l25.4-47.5c0.9-2.3,17.1-28.6,8.8-28.6v-4.2h50.3v4.2c-6,0-19.8,24.5-21.7,28.6l-30,55.4l42.5,120c3.2,8.3,7.8,18.5,11.5,18.5
				v4.2h-50.3v-4.2c6,0,4.2-19.4,0.9-28.6L661,401.2l-11.5,21.7v48c0,4.6,2.8,28.6,8.8,28.6v4.2H607.9z"/>
			<path d="M878.9,499.5v4.2h-50.3v-4.2c5.1,0,7.8-12.9,6.9-24.9c-0.5-1.8-1.8-11.5-1.8-11.5h-44.8l-0.9,7.8
				c-0.9,4.2-2.3,28.6,3.2,28.6v4.2h-47.5v-4.2c4.2,0,8.3-12.5,9.7-21.2l26.8-172.6c0-3.7,1.8-28.6-3.7-28.6v-4.2h70.2v4.2
				c-5.5,0-4.2,21.7-3.7,27.7l26.3,173.6C871,487.1,874.7,499.5,878.9,499.5z M828.5,430.3l-17.1-113.5l-17.5,113.5H828.5z"/>
		</g>
	</g>
	<g>
		<g>
			<path d="M238.3,922.2c-2.4,0-4.5-1.1-6.2-3.2c-5.8-8.6-10.3-17.6-13.4-27.1c-5.6-17.1-10.4-34.5-14.4-52.2
				c-4.4-18.3-8.3-36.7-11.8-55.2v-0.9c0-1.8,0.8-3.3,2.4-4.5c1.6-1.2,3.4-1.9,5.3-2c0.9,0,2.7,0.1,5.3,0.4c2.6,0.2,5.2,0.6,7.7,1.1
				c6.4,1.2,10.4,5.2,12.1,11.9c0.9,3.4,1.6,6.9,2,10.5c0.1,1.4,1,6.9,2.7,16.4c3.2,19.9,8.4,43.1,15.5,69.3
				c9.5-27.1,17.3-60.9,23.3-101.4c0.1-1.2,0.4-2.3,0.9-3.4c0.2-2.1,1.1-3.9,2.7-5.4c1.5-1.5,3.4-2.2,5.7-2.2c1.2,0,2.4,0.3,3.7,0.9
				c3,1.9,4.5,4.3,4.5,7.1c0,1.1-2.1,11-6.2,29.9c-6.2,34.1-13.6,62.6-22.3,85.5c-2.7,8.4-7.2,15.9-13.4,22.3
				C242.5,921.4,240.5,922.2,238.3,922.2z"/>
			<path d="M352,923.2c-3.1,0-5.9-0.2-8.3-0.7c-2.4-0.5-3.7-1.2-3.7-2.3v-2.7c0-7.6-0.4-16.3-1.2-26c-2-0.2-4.1-0.4-6.2-0.4
				c-4,0-6.8,0.1-8.3,0.4c-1.5,0.2-2.8,0.5-3.8,0.8c-1.1,0.3-2.1,0.4-3,0.4c-3.3,0-5.8-1.9-7.5-5.7c-0.2-0.7-0.4-1.4-0.4-2.1
				c0-1.8,0.5-3.4,1.6-4.8c1.1-1.4,2.4-2.4,4.1-2.8c5.7-1.4,11.6-2.1,17.6-2.1l4.3,0.2c-0.7-6.8-1.2-13.5-1.6-20.1
				c-0.5-10.2-1.2-20.4-2.1-30.5c-0.7-8-2.4-16-5.2-24.2c0-0.1,0-0.3-0.1-0.4c-0.1-0.2-0.1-0.3-0.2-0.4c-0.1-0.1-0.1-0.3-0.3-0.5
				c-0.1-0.2-0.2-0.5-0.4-0.8c-0.1-0.3-0.3-0.6-0.5-1c-0.2-0.4-0.5-0.7-0.7-1.1c-0.2-0.4-0.5-0.7-0.7-1.1V795l-1.4-1.6h-0.2
				c0-0.1,0-0.2-0.1-0.3c-0.1-0.1-0.1-0.1-0.3-0.2c-0.1-0.1-0.9-0.1-2.3-0.1c-0.4,0.2-0.7,0.4-1.1,0.4l0.9-0.2
				c-0.5,0.1-0.9,0.3-1.2,0.5c-0.4,0.2-0.6,0.4-0.7,0.4c-0.1,0.1-0.2,0.1-0.2,0.3l0.2-0.4c-2,2.4-3.2,4.2-3.6,5.5
				c-0.2,0.4-0.4,0.7-0.6,1c-0.2,0.3-0.3,0.6-0.3,1c-5,14.8-7.5,35.1-7.5,60.7c0,9.9,0.2,20,0.7,30.3l0.5,24.4
				c0,2.3-0.7,3.7-2.2,4.2c-1.5,0.5-3.5,0.8-6,0.8c-4.8,0-7.2-1.8-7.5-5.3c0-8.7-0.2-17.6-0.5-26.8c-0.4-9.2-0.5-18.4-0.5-27.5
				c0-20.4,1.7-38.6,5.2-54.5c1.3-7.5,3.9-14.6,7.7-21.4c4.9-7.1,11.6-10.7,20.1-10.7l4.5,0.2l2.8-0.2c5.6,0,10.9,1.6,15.9,4.8
				c10.3,8.3,15.9,23.3,16.6,45.1c2,24.1,3,43.7,3,58.8c0.7,1.2,1.1,2.6,1.1,4.1c0,1.4-0.3,2.6-0.9,3.6l0.2,4.3
				c0,2.1-0.1,4.8-0.3,7.8c-0.2,3.1-0.4,6.1-0.6,8.9c-0.2,2.9-0.4,5-0.6,6.3c-0.2,1.4-1.7,2.4-4.6,3
				C358.6,922.9,355.4,923.2,352,923.2z M319.2,793.9l0.4-0.4c0,0.1-0.2,0.2-0.5,0.4H319.2z"/>
			<path d="M422,921.6l-20.3-0.2l-6.9,0.2c-9.7,0-15.3-3.5-16.6-10.5c-0.5-2.6-0.8-5.6-0.9-9.1c-2.4-26.6-3.6-54.3-3.6-83
				c0-11.8,0.2-23.5,0.7-35.3l-0.2-2c0-0.9,0.2-2,0.7-3.1c0.5-1.1,1.1-1.8,2-1.9c3.2-0.4,6.9-0.5,11-0.5c8.3,0,12.5,0.9,12.5,2.7
				c0.2,0.7,0.4,1.5,0.4,2.3l-0.2,1.8c-0.6,3.8-0.9,7.5-0.9,11.2l0.2,10.9l-0.2,5c-0.5,8.4-0.7,16.9-0.7,25.3
				c0,10.2,0.2,20.5,0.7,30.8L402,904c0.1,0.8,0.4,1.5,1,2c0.5,0.5,1.2,0.8,2,0.8c5.6,0.1,11.2,0.2,16.9,0.2c2.1,0,3.9,0.7,5.4,2.1
				c1.5,1.4,2.3,3.2,2.4,5.3c0,1.9-0.8,3.6-2.4,5C425.8,920.9,424,921.6,422,921.6z"/>
			<path d="M462.6,922.5c-8.1,0-14.6-0.4-19.7-1.3c-5-0.9-7.6-3.4-7.6-7.4l-0.2-127.4c0-1.2,0.2-2.6,0.5-4.3c0.9-4,4.5-6.1,10.6-6.1
				c6.1-0.1,12.1-0.1,18.1-0.1c5,0,10,0.2,15,0.5c6.1,0.2,11.3,2.3,15.7,6.1c3.1,3.2,4.6,6.8,4.6,10.7c0,1.4-0.3,2.8-0.9,4.3
				c-1.5,3.6-4,5.3-7.5,5.3c-2.6,0-4.6-1-6.1-2.9c-1.2-1.3-1.8-2.7-1.8-4.3c0-1.2,0.2-2,0.5-2.3v-0.5c-0.1-0.1-0.3-0.3-0.6-0.5
				c-0.3-0.2-0.6-0.4-1-0.5l0.2,0.2l-2-0.7c-2.3-0.2-4.7-0.4-7.3-0.4l-13.7,0.4c0,29.9-0.3,57.1-0.9,81.6l2.1,0.2
				c2.6,0,5.5,0.2,8.7,0.5c1.5,0,2.5-0.1,2.8-0.2h1.4c5.2,0,7.8,2.3,7.8,6.9c0,1.8-0.4,3.4-1.2,4.8c-0.8,1.4-1.8,2.2-3,2.3
				c-2.1,0.1-4.8,0.2-7.8,0.2c-2.6-0.1-6.4-0.2-11.4-0.2l-0.5,20.3c1.4,0.4,4.2,0.5,8.4,0.5l7.1,0.2c4,0,6.5,0.1,7.5,0.4
				c0.9,0.3,1.7,1.2,2.1,2.6c0.2,0.6,0.4,1.2,0.4,2c0,1.5-0.6,3-1.7,4.3c-1.1,1.3-2.5,2.3-4.2,2.9
				C472.3,921.9,467.5,922.5,462.6,922.5z"/>
			<path d="M505.2,922.2h-3c-1.7,0-3-0.2-4.1-0.7c-1.1-0.5-1.7-1.5-1.8-3l-1.4-35.3c-1.3-29.2-2-58.5-2-88v-10
				c0-1.3,0.4-2.4,1.1-3.4c0.5-2,1.6-3.4,3.4-4.3c3.7-1.5,7.2-2.3,10.7-2.3c7,0,12.9,2.9,17.8,8.6c0.5,0.4,1,1.2,1.6,2.7l0.9,1.6
				c5.6,7,10.4,14.4,14.6,22.1c6.4,12.5,12.2,24.1,17.5,34.9c6.2,12.6,9.6,21.2,10.3,25.8l-0.2-19.2c0-23,0.8-46,2.3-68.9
				c0.5-4.2,3-6.5,7.5-6.9h0.4c1.8,0,3.4,0.7,5,2c1.5,1.4,2.3,2.9,2.3,4.7c-0.5,8.1-0.9,16.7-1.2,25.8c-0.7,20.8-1.1,37.3-1.1,49.5
				c0,18.4,0.5,36.8,1.4,55.2c0,1.7-0.5,3.1-1.6,4.2c-1.1,1.1-2.4,1.9-3.9,2.4c-1.9,0.8-3.8,1.2-5.7,1.2c-0.8,0-1.7-0.1-2.5-0.4
				c-0.5,0.1-1,0.2-1.6,0.2c-1.4,0-2.8-0.4-4.1-1.2c-2.8-1.7-11.2-17.5-24.9-47.6c-14.5-31.9-26.1-53.5-34.7-64.7l0.2,5.9
				c0.2,35.2,1.3,70.2,3.2,105.3v0.5c0,1.4-0.6,2.3-1.9,2.7C508.3,922,506.8,922.2,505.2,922.2z"/>
			<path d="M635.4,921.6c-0.6,0-1.2,0-1.8-0.1c-0.6-0.1-1.2-0.2-1.7-0.4c-0.5-0.2-0.9-0.3-1-0.3l0.4,0.2h-3.9c-2,0-3.7-0.7-5-2.2
				c-1.3-1.5-2-3.1-2.1-4.7v-6.4c0-55.2,0.6-94.1,1.8-116.5l-20.8-0.4c-2.3-0.1-4.1-0.8-5.5-2.1c-1.4-1.3-2.2-3-2.3-5.2
				c0-1.9,0.8-3.5,2.4-4.9c1.6-1.4,3.4-2,5.4-2l42.2,0.9c3.8,0,6.7,0.1,8.6,0.2c2,0.1,4.4,0.2,7.2,0.2c2.4,0,4.6,0.1,6.8,0.2h2
				c2.1,0,4.3,0.4,6.4,1.1c1.7,1.1,2.5,2.6,2.5,4.5c0,1.9-0.8,3.8-2.5,5.7c-1.7,1.9-4,2.8-6.9,2.8l-19.9-0.4
				c-3.2,32.4-4.8,63-4.8,91.7c0,10.5,0.2,20.9,0.5,31.4c0,2-0.8,3.7-2.4,4.9C639.2,921,637.4,921.6,635.4,921.6z"/>
			<path d="M701.7,921.8c-9.6,0-15-0.5-16.2-1.4c-1.4-1.7-2.1-4-2.1-7.1c0-3,0.9-4.6,2.8-4.8c1.8-0.2,3.7-0.4,5.6-0.5
				c0.7-10.4,1.1-24.4,1.1-41.9c0-19.2-0.2-37.8-0.5-55.6l-0.2-21.2h-2.9c-4.5-0.4-6.8-2.8-6.9-7.3c0-1.7,0.6-3.2,1.8-4.5
				c1.2-1.4,2.8-2,4.8-2l33,1.8c2.1,0.1,3.6,0.8,4.3,2c0.7,1.2,1.1,2.9,1.2,5.2c0,1.8-0.4,3.4-1.2,4.7c-0.8,1.4-2.1,2-4,2l-6.8-0.5
				l-1.1,117.8c0.9,0.1,1.7,0.2,2.3,0.2c0.6,0,1.2,0,1.7,0.1c0.5,0.1,1.2,0.2,2,0.4c1.4,0.5,2.5,1.5,3.2,3c0.7,1.5,1.1,3.1,1.1,4.6
				c0,1.3-0.2,2.4-0.7,3.2c-0.6,0.6-3.2,1.1-7.8,1.4C711.5,921.6,706.7,921.8,701.7,921.8z"/>
			<path d="M745,922.2h-3c-1.7,0-3-0.2-4.1-0.7c-1.1-0.5-1.7-1.5-1.8-3l-1.4-35.3c-1.3-29.2-2-58.5-2-88v-10c0-1.3,0.4-2.4,1.1-3.4
				c0.5-2,1.6-3.4,3.4-4.3c3.7-1.5,7.2-2.3,10.7-2.3c7,0,12.9,2.9,17.8,8.6c0.5,0.4,1,1.2,1.6,2.7l0.9,1.6
				c5.6,7,10.4,14.4,14.6,22.1c6.4,12.5,12.2,24.1,17.5,34.9c6.2,12.6,9.6,21.2,10.3,25.8l-0.2-19.2c0-23,0.8-46,2.3-68.9
				c0.5-4.2,3-6.5,7.5-6.9h0.4c1.8,0,3.4,0.7,5,2c1.5,1.4,2.3,2.9,2.3,4.7c-0.5,8.1-0.9,16.7-1.2,25.8c-0.7,20.8-1.1,37.3-1.1,49.5
				c0,18.4,0.5,36.8,1.4,55.2c0,1.7-0.5,3.1-1.6,4.2c-1.1,1.1-2.4,1.9-3.9,2.4c-1.9,0.8-3.8,1.2-5.7,1.2c-0.8,0-1.7-0.1-2.5-0.4
				c-0.5,0.1-1,0.2-1.6,0.2c-1.4,0-2.8-0.4-4.1-1.2c-2.9-1.7-11.2-17.5-24.9-47.6c-14.5-31.9-26.1-53.5-34.7-64.7l0.2,5.9
				c0.2,35.2,1.3,70.2,3.2,105.3v0.5c0,1.4-0.6,2.3-1.9,2.7C748.1,922,746.6,922.2,745,922.2z"/>
			<path d="M860.6,922.5c-8.1,0-14.6-0.4-19.7-1.3c-5.1-0.9-7.6-3.4-7.6-7.4l-0.2-127.4c0-1.2,0.2-2.6,0.5-4.3
				c0.9-4,4.5-6.1,10.6-6.1c6.1-0.1,12.1-0.1,18.1-0.1c5,0,10,0.2,15,0.5c6.1,0.2,11.3,2.3,15.7,6.1c3.1,3.2,4.6,6.8,4.6,10.7
				c0,1.4-0.3,2.8-0.9,4.3c-1.5,3.6-4,5.3-7.5,5.3c-2.6,0-4.6-1-6.1-2.9c-1.2-1.3-1.8-2.7-1.8-4.3c0-1.2,0.2-2,0.5-2.3v-0.5
				c-0.1-0.1-0.3-0.3-0.6-0.5c-0.3-0.2-0.6-0.4-1-0.5l0.2,0.2l-2-0.7c-2.3-0.2-4.7-0.4-7.3-0.4l-13.7,0.4c0,29.9-0.3,57.1-0.9,81.6
				l2.1,0.2c2.6,0,5.5,0.2,8.7,0.5c1.5,0,2.5-0.1,2.8-0.2h1.4c5.2,0,7.8,2.3,7.8,6.9c0,1.8-0.4,3.4-1.2,4.8c-0.8,1.4-1.8,2.2-3,2.3
				c-2.1,0.1-4.8,0.2-7.8,0.2c-2.6-0.1-6.4-0.2-11.4-0.2l-0.5,20.3c1.4,0.4,4.2,0.5,8.4,0.5l7.1,0.2c4,0,6.5,0.1,7.5,0.4
				c0.9,0.3,1.7,1.2,2.1,2.6c0.2,0.6,0.4,1.2,0.4,2c0,1.5-0.6,3-1.7,4.3c-1.1,1.3-2.5,2.3-4.2,2.9
				C870.3,921.9,865.4,922.5,860.6,922.5z"/>
		</g>
	</g>
	<path d="M856,592.2c-8.2-9.1-10.3-19.1-9.4-30.7c0.8-10.3,0.8-20.7,1-31.1c0.1-6-1.2-7.3-7-7.3c-3.3,0-6.6,0.1-9.9,0
		c-4.4-0.2-6,2.1-5.9,6c0.1,4.2,0.8,8.4,0.8,12.6c0.1,9.6-0.3,19.2,0.1,28.8c0.3,6.5-1.6,11.5-5.7,16.3
		c-9.5,10.9-13.9,23.7-13.5,38.3c0.4,16.4,0.1,32.8,0.1,49.2v55.8c0,9.5,3.1,12.6,12.4,12.6c11.5,0.1,23,0.1,34.5,0
		c8.9,0,12.2-3.4,12.2-12.3c0-35.9,0-71.9,0-107.9C865.8,611.3,863.4,600.5,856,592.2z M818.2,612.9c-1.1,4.4-1.1,9.1-1.1,13.6
		c-0.1,35.3-0.1,70.6-0.1,106c0,1.6-0.1,3.3-0.2,5.3c-4.6-0.8-5.1-3.7-5.1-7c0-12.9,0-25.9,0-38.8c0-22.5-0.1-45.1,0-67.7
		c0.1-13.4,4.7-25.2,13.5-35.5C822.8,597.1,820.1,604.9,818.2,612.9z M847.8,713.2c-0.2,0.6-0.5,1.2-1,1.6c-0.1,0.1-0.1,0.1-0.2,0.2
		c-0.6,0.6-1.2,1.2-1.9,1.6c-0.4,0.3-0.9,0.6-1.3,0.9c-0.1,0.1-0.2,0.1-0.3,0.1c-0.2,0.1-0.3,0.1-0.5,0.1c-0.4-0.1-0.6-0.3-0.8-0.6
		c-0.6-1-1.1-2.1-1.4-3.2c-0.1-0.4-0.2-0.8-0.2-1.2c0-0.3,0-0.6,0.1-1c0.1-0.4,0.5-0.8,0.9-0.8c0.1,0,0.2,0,0.3,0
		c0.2,0.1,0.3,0.1,0.5,0.2c0.3,0.1,0.5,0.3,0.8,0.6c0.3,0.3,0.4,0.6,0.6,1c0.1,0.2,0.1,0.3,0.2,0.5c0,0.1,0.1,0.2,0.2,0.4
		c0.1-0.1,0.2-0.1,0.3-0.1c0.5-0.4,1.2-0.8,1.8-1c0.2-0.1,0.5-0.2,0.7-0.3c0.4-0.1,0.8,0,1.2,0.2
		C847.8,712.6,847.9,712.9,847.8,713.2z M851.1,687.8c-0.4,1.2-1,2.1-1.9,3c-0.1,0.1-0.2,0.2-0.3,0.3c-1.1,1.2-2.3,2.2-3.6,3.1
		c-0.8,0.5-1.6,1.1-2.5,1.6c-0.1,0.1-0.3,0.2-0.5,0.3c-0.3,0.1-0.6,0.2-0.9,0.1c-0.7-0.2-1.2-0.6-1.6-1.2c-1.1-1.9-1.9-3.8-2.6-5.9
		c-0.2-0.7-0.3-1.5-0.4-2.2c0-0.6,0.1-1.2,0.2-1.8c0.2-0.8,0.9-1.4,1.7-1.4c0.2,0,0.4,0,0.6,0.1c0.3,0.1,0.6,0.2,0.8,0.3
		c0.6,0.2,1,0.6,1.4,1.1c0.4,0.6,0.8,1.2,1.1,1.9c0.1,0.3,0.3,0.7,0.4,1c0.1,0.2,0.2,0.4,0.3,0.6c0.2-0.1,0.4-0.1,0.5-0.3
		c1-0.8,2.1-1.4,3.3-1.9c0.4-0.2,0.8-0.4,1.2-0.5c0.8-0.2,1.5,0,2.2,0.4C851.1,686.7,851.3,687.2,851.1,687.8z M855.4,660
		c-0.6,1.9-1.6,3.4-3.1,4.8c-0.2,0.2-0.4,0.3-0.5,0.5c-1.7,1.9-3.7,3.5-5.8,4.9c-1.3,0.9-2.6,1.7-4,2.6c-0.3,0.2-0.5,0.3-0.8,0.4
		c-0.5,0.2-0.9,0.3-1.4,0.1c-1.1-0.3-2-0.9-2.5-1.9c-1.8-3-3.1-6.1-4.2-9.4c-0.4-1.2-0.5-2.4-0.6-3.6c-0.1-1,0.1-1.9,0.3-2.8
		c0.3-1.3,1.5-2.3,2.7-2.3c0.3,0,0.7,0,1,0.1c0.5,0.1,0.9,0.4,1.4,0.5c0.9,0.4,1.6,1,2.2,1.7c0.7,0.9,1.2,1.9,1.7,3
		c0.2,0.5,0.4,1,0.6,1.5c0.2,0.3,0.3,0.6,0.6,1.1c0.3-0.2,0.6-0.3,0.9-0.5c1.6-1.2,3.4-2.2,5.3-3.1c0.7-0.3,1.3-0.6,2-0.8
		c1.2-0.3,2.4,0,3.5,0.7C855.5,658.2,855.7,659,855.4,660z M858.2,626.2c-0.9,2.5-2.3,4.8-4.3,6.6c-0.3,0.2-0.5,0.5-0.8,0.8
		c-2.4,2.6-5.1,4.8-8,6.8c-1.8,1.2-3.7,2.4-5.5,3.6c-0.3,0.2-0.7,0.4-1.1,0.6c-0.6,0.3-1.3,0.3-2,0.2c-1.6-0.4-2.7-1.3-3.5-2.6
		c-2.5-4.1-4.4-8.5-5.9-13.1c-0.5-1.6-0.8-3.3-0.9-5c-0.1-1.3,0.1-2.6,0.4-3.9c0.4-1.7,2.1-3.1,3.8-3.2c0.4,0,0.9,0.1,1.3,0.2
		c0.6,0.2,1.3,0.5,1.9,0.8c1.2,0.5,2.3,1.3,3.1,2.4c1,1.3,1.7,2.7,2.4,4.1c0.3,0.7,0.6,1.4,0.9,2.1c0.2,0.5,0.4,0.9,0.8,1.5
		c0.5-0.2,0.9-0.4,1.2-0.6c2.3-1.6,4.7-3.1,7.3-4.3c0.9-0.4,1.9-0.8,2.8-1.1c1.7-0.5,3.4,0,4.8,0.9
		C858.3,623.7,858.7,624.9,858.2,626.2z"/>
	<path d="M203.2,622.6c0.1,36,0,71.9,0,107.9c0,8.9,3.3,12.3,12.2,12.3c11.5,0.1,23,0.1,34.5,0c9.2,0,12.4-3.2,12.4-12.6v-55.8
		c0-16.4-0.3-32.8,0.1-49.2c0.3-14.6-4.1-27.3-13.5-38.3c-4.1-4.8-6.1-9.8-5.7-16.3c0.5-9.6,0-19.2,0.1-28.8
		c0.1-4.2,0.7-8.4,0.8-12.6c0.1-3.9-1.5-6.3-5.9-6c-3.3,0.2-6.6,0-9.9,0c-5.8,0-7.1,1.3-7,7.3c0.2,10.4,0.2,20.7,1,31.1
		c0.9,11.6-1.2,21.6-9.4,30.7C205.5,600.5,203.1,611.3,203.2,622.6z M243.6,588.8c8.8,10.3,13.5,22.1,13.5,35.5
		c0.1,22.6,0,45.1,0,67.7c0,12.9,0,25.9,0,38.8c0,3.3-0.4,6.3-5.1,7c-0.1-1.9-0.2-3.6-0.2-5.3c0-35.3,0-70.6-0.1-106
		c0-4.5,0-9.2-1.1-13.6C248.8,604.9,246.1,597.1,243.6,588.8z M221.4,712.4c0.3-0.2,0.8-0.3,1.2-0.2c0.2,0.1,0.5,0.2,0.7,0.3
		c0.6,0.3,1.2,0.6,1.8,1c0.1,0.1,0.2,0.1,0.3,0.1c0.1-0.1,0.1-0.3,0.2-0.4c0.1-0.2,0.1-0.3,0.2-0.5c0.1-0.3,0.3-0.7,0.6-1
		c0.2-0.3,0.4-0.5,0.8-0.6c0.1-0.1,0.3-0.1,0.5-0.2c0.1,0,0.2,0,0.3,0c0.4,0,0.8,0.3,0.9,0.8c0.1,0.3,0.1,0.6,0.1,1
		c0,0.4-0.1,0.8-0.2,1.2c-0.3,1.1-0.8,2.2-1.4,3.2c-0.2,0.3-0.5,0.5-0.8,0.6c-0.2,0-0.3,0-0.5-0.1c-0.1,0-0.2-0.1-0.3-0.1
		c-0.4-0.3-0.9-0.5-1.3-0.9c-0.7-0.5-1.4-1-1.9-1.6c-0.1-0.1-0.1-0.1-0.2-0.2c-0.5-0.4-0.8-1-1-1.6
		C221.1,712.9,221.1,712.6,221.4,712.4z M218.3,686.3c0.7-0.4,1.4-0.6,2.2-0.4c0.4,0.1,0.8,0.3,1.2,0.5c1.2,0.5,2.3,1.2,3.3,1.9
		c0.1,0.1,0.3,0.2,0.5,0.3c0.1-0.3,0.2-0.4,0.3-0.6c0.1-0.3,0.3-0.7,0.4-1c0.3-0.6,0.6-1.3,1.1-1.9c0.4-0.5,0.8-0.8,1.4-1.1
		c0.3-0.1,0.5-0.3,0.8-0.3c0.2-0.1,0.4-0.1,0.6-0.1c0.8,0.1,1.5,0.7,1.7,1.4c0.1,0.6,0.2,1.2,0.2,1.8c-0.1,0.8-0.2,1.5-0.4,2.2
		c-0.7,2.1-1.5,4-2.6,5.9c-0.4,0.6-0.9,1-1.6,1.2c-0.3,0.1-0.6,0.1-0.9-0.1c-0.1-0.1-0.3-0.1-0.5-0.3c-0.8-0.5-1.7-1-2.5-1.6
		c-1.3-0.9-2.5-1.9-3.6-3.1c-0.1-0.1-0.2-0.2-0.3-0.3c-0.9-0.8-1.5-1.8-1.9-3C217.7,687.2,217.8,686.7,218.3,686.3z M214.3,657.6
		c1-0.7,2.2-1,3.5-0.7c0.7,0.2,1.4,0.5,2,0.8c1.9,0.8,3.6,1.9,5.3,3.1c0.2,0.2,0.5,0.3,0.9,0.5c0.2-0.4,0.4-0.8,0.6-1.1
		c0.2-0.5,0.4-1,0.6-1.5c0.5-1.1,1-2.1,1.7-3c0.6-0.8,1.3-1.3,2.2-1.7c0.5-0.2,0.9-0.4,1.4-0.5c0.3-0.1,0.6-0.1,1-0.1
		c1.2,0.1,2.4,1.1,2.7,2.3c0.2,0.9,0.4,1.9,0.3,2.8c-0.1,1.2-0.3,2.4-0.6,3.6c-1.1,3.3-2.4,6.5-4.2,9.4c-0.6,1-1.4,1.6-2.5,1.9
		c-0.5,0.1-1,0.1-1.4-0.1c-0.3-0.1-0.5-0.3-0.8-0.4c-1.3-0.8-2.7-1.7-4-2.6c-2.1-1.4-4.1-3-5.8-4.9c-0.2-0.2-0.4-0.4-0.5-0.5
		c-1.4-1.3-2.5-2.9-3.1-4.8C213.2,659,213.5,658.2,214.3,657.6z M211.8,623c1.5-0.9,3.1-1.4,4.8-0.9c1,0.3,1.9,0.7,2.8,1.1
		c2.6,1.2,5,2.6,7.3,4.3c0.3,0.2,0.7,0.4,1.2,0.6c0.3-0.6,0.5-1,0.8-1.5c0.3-0.7,0.6-1.4,0.9-2.1c0.7-1.5,1.4-2.9,2.4-4.1
		c0.8-1.1,1.9-1.9,3.1-2.4c0.6-0.3,1.3-0.6,1.9-0.8c0.4-0.1,0.9-0.2,1.3-0.2c1.8,0.1,3.4,1.5,3.8,3.2c0.3,1.3,0.5,2.6,0.4,3.9
		c-0.1,1.7-0.3,3.4-0.9,5c-1.5,4.6-3.4,9-5.9,13.1c-0.8,1.4-1.9,2.3-3.5,2.6c-0.7,0.2-1.4,0.1-2-0.2c-0.4-0.2-0.7-0.4-1.1-0.6
		c-1.9-1.2-3.7-2.3-5.5-3.6c-2.9-2-5.6-4.3-8-6.8c-0.3-0.3-0.5-0.5-0.8-0.8c-2-1.9-3.4-4.1-4.3-6.6
		C210.3,624.9,210.6,623.7,211.8,623z"/>
	<g>
		<path d="M268.1,239c-1.3-1.4,0.1-3.8,2-3.3c4.6,1.2,8.2,4.3,12.7,5.9c5,1.8,10.2,3.1,15.5,3.8c12.1,1.8,23.8,0.2,35.7-1.9
			c16.3-2.9,32.3-7.6,48.8-9.7c26.7-3.5,53.1,0.3,78.4,8.8c3.1,1,6.1,2.4,8.9,4c1.4,0.8,2.9,1.7,4.1,2.9c1.3,1.4,0,3.7-1.9,3.3
			c-1.2-0.2-2.4-0.8-3.6-1.3c-6.4-2.4-12.6-5.2-19.2-6.9c-23.1-6-46.7-2.4-69.6,2.7c-17.7,3.9-35.4,8.5-53.5,9.3
			c-10.4,0.4-21-0.5-31-3.4c-5-1.5-9.9-3.4-14.5-6C276.4,244.9,271.6,242.7,268.1,239z"/>
		<path d="M774.8,226.5c0.2,0,0.5,0,0.7,0.1c1.7,0.8,0.3,3.1-0.2,4.1c-1.6,3.2-3.8,6.2-6.2,8.9c-18.3,19.5-50.3,13.6-73.8,11.3
			c-10.8-1-21.5-2.3-32.3-3.9c-10.5-1.5-21-3.6-31.5-4.5c-18.4-1.6-38-2.9-55.5,3.7c-4.6,1.7-9.3,3.3-14.2,2.9
			c20.7-15.1,48-18,73.5-15.8c25.5,2.2,50.5,8.8,76,10.7c10.7,0.8,21.9,0.5,32.5-2c6.7-1.6,12.9-4.7,18.9-8.1c3-1.7,5.9-3.6,8.9-5.4
			C772.2,228.1,773.6,226.6,774.8,226.5z"/>
		<path d="M503.7,188.9c0-0.9,0-1.9,0-2.8c0.3-8.8,2.1-19.5,8.6-25.9c3.8-3.8,8.7-4.7,13.2-1.7c4.5,3,6.7,8.7,7.8,13.7
			c1,4.6,1,9.4,0.8,14.1c-0.4,9.8-1.7,19.7-4.3,29.2c-1.3,4.8-3,9.5-5,14c-1.6,3.6-3.4,9.6-8.3,9.3c-2.4-0.2-2.9-1.9-3.7-3.8
			C506.7,220.9,503.9,204.3,503.7,188.9z M520.6,165.9c-0.3-0.7-0.7-1.3-1.3-1.7c-1.7-1.3-4.3-0.4-5.5,1.3c-0.7,1.1-1.1,2.3-1.5,3.6
			c-4.3,15.7-3.2,31.1,0.3,46.8c0.4,1.6,1,3.1,1.8,5.7c0.7-2.2,1.3-3.3,1.5-4.4c1.2-8.4,2.7-17,3.8-25.5c0.6-4.4,1-8.8,1.3-13.3
			C521.2,174.6,522.2,169.6,520.6,165.9z"/>
		<path d="M500.3,237.6c0.6,1.7-0.1,3.6-1.7,4.3c-3.1,1.4-6.2,1-9.1-0.5c-8.4-4.5-17.5-7.8-24.7-14.4c-4.8-4.3-9.1-9-12.1-14.8
			c-2.3-4.4-3.4-9.2-0.3-13.3c3.2-4.1,8.1-4.1,12.9-3.1c12.7,2.8,20.7,11.5,27.1,21.9c2.3,3.7,3.5,8.2,5.1,12.4
			C498.5,232.6,499.3,235,500.3,237.6z M484.2,230.6c-5.3-10.6-11.9-21.5-22.1-28.5c-1.7-1.1-3.9,0-4,2c-0.1,2.3,0.7,4.7,1.7,6.3
			C465.5,219.9,474.2,226,484.2,230.6z"/>
		<path d="M548.5,242.3c-2.4-1.2-2.3-2.7-1.5-4.5c2.5-5.7,4.5-11.6,7.4-17.1c3.1-5.8,6.8-11.4,11-16.5c3-3.7,6.3-7.1,10.3-9.6
			c4.3-2.7,10.1-4.6,15.1-3.1c3.1,0.9,5.4,3.4,5.5,6.8c0.1,2.4-0.8,4.6-1.8,6.8c-7.8,16.3-23.7,26.9-39.5,34.3
			C553,240.4,550.9,241.3,548.5,242.3z M586.3,194.5c-0.5-0.4-1.2-0.5-2.2-0.4c-2.4,0.4-4.7,2.5-6.6,3.9
			c-9.5,7.3-15.8,17.1-21.2,27.5c-1.2,2.3-1.7,5-2.9,8.8c6.4-4.9,12.8-9.8,18.6-15.3c5.4-5.1,11.9-11.6,14.7-18.6
			C587.5,198.5,587.8,195.6,586.3,194.5z"/>
	</g>
</g>
</svg>
