<?xml version="1.0" encoding="utf-8"?>
<!-- Generator: Adobe Illustrator 22.0.0, SVG Export Plug-In . SVG Version: 6.00 Build 0)  -->
<svg version="1.1" id="Layer_1" xmlns="http://www.w3.org/2000/svg" xmlns:xlink="http://www.w3.org/1999/xlink" x="0px" y="0px"
	 viewBox="0 0 1080 1080" style="enable-background:new 0 0 1080 1080;" xml:space="preserve">
<g>
	<g>
		<path d="M157.5,713.8c2.5-4.7,6-8.5,10-11.9c11.2-9.7,24.1-14.9,39.3-12.7c10.7,1.7,18.9,9.2,20.9,19.7c0.2,1.5,0.7,2.7,1.2,4
			c2,5.2,2,10.7,0.2,16.2c-2.2,7.7-6.2,14.4-10.5,21.2c-2.5,3.7-6.5,5-10.7,5.2c-2,0-4.2-0.2-6.2-0.5c-0.7,0-1.7,0-2-1
			c0-0.7,0.7-1.5,1.2-1.7c8.2-3.5,10-11.2,11.7-18.7c1.2-4.7,1.2-9.7,1-14.4c-0.5-6.2-2.5-11.7-6.2-16.4c-2.7-3.5-3.7-3.2-6.5-0.2
			c-10.2,11.9-14.9,26.1-16.4,41.8c-1,9.2-0.2,18.2,3,26.9c2.2,6.5,6.5,11.7,11.7,16.2c4.7,4,9.7,3.2,14.9,1c1.2-0.7,2.5-1.7,4-2.2
			c0.7-0.5,1.7-0.7,2.5-1c1-0.2,2,0.2,2.2,1c0.2,0.7-0.2,1.2-0.7,1.7c-3.5,4.5-8,7.2-13.2,8.7c-9.5,2.5-18.7,1.2-27.4-2
			c-16.4-6.7-27.1-18.7-30.9-36.3c-0.7-4-1.2-8-1-13.7C150.1,734.9,152.1,724,157.5,713.8z"/>
		<path d="M271.2,751.1c2-11.9,5.7-23.4,9-34.8c2.2-7.5,5.7-14.2,10.2-20.2c2.7-3.7,6-5.2,10.5-4.2c6.7,1.7,11.9,5.2,15.2,11.2
			c5,9.5,8.2,19.2,9.2,29.6c1.5,15.2,2.2,30.6,2.5,45.8c0,4.2-0.5,8.2,0.5,12.4c1,4-0.2,5.5-4.5,5.2c-7.7-0.2-14.4-3-19.9-9
			c-4.5-5.2-6.7-11.7-7.5-18.4c-1.5-10.7-0.7-21.2,0.5-31.9c1-10,3-19.7,3-29.6c0-2.7,0-5.5-1.5-8.2c-2.2,0.7-3.5,2.5-4.5,4.2
			c-3.7,6-7,12.2-9.2,18.9c-4.7,13.4-7.5,27.1-9,41.3c-0.5,3-0.7,6-1.2,9c-0.5,4.5-0.5,8.7,0.5,13.2c1,4.2-1.7,7-3.5,10.2
			c-0.5,0.7-2,1-3,1.2c-3.5,0.5-7.2,0.5-10-1.5c-4.5-2.7-8.7-6.2-10.5-11.2c-4.5-12.2-7.2-24.6-9-37.6c-2.7-20.4-1.5-41.1-1.5-61.7
			c0-6.2,0.2-12.4,1.2-18.4c1.5-8,5.2-10.9,13.2-10.9c6,0,11.4,1.5,16.4,4.7c4.2,2.7,5.2,5.2,4,10.2c-1.7,9-2.7,18.2-3.2,27.1
			c-0.7,17.7-0.2,35.1,0.7,52.8c0,0.5,0,1,0.5,1.2C271.2,751.8,271.2,751.6,271.2,751.1z"/>
		<path d="M341.9,719.7c3.2-10.7,9.7-19.4,18.7-26.1c5-3.5,10.7-4.5,16.7-4.2c5,0.2,9.7,1,14.7,2.2c9.5,2.7,14.7,9.5,16.7,18.7
			c2.7,12.9-0.5,24.9-8.7,35.1c-6.2,7.2-14.2,11.2-24.1,10.5c-0.5,0-0.7,0-1.2,0c-3.7-0.2-4,0-3.2,4c1.2,8,3,15.9,7.5,22.9
			c4.2,7.2,8.2,8.2,15.2,3.7c6-3.7,10-8.7,12.2-15.2c0.5-1.5,0.7-2.7,1.2-4c0.5-1,1-2.2,2.5-1.5c1.2,0.5,2.5,0.7,2.2,2.5
			c-0.2,7.2-2,13.7-7.7,18.9c-2.2,2-4.7,4-7,6.2c-3,2.7-7,4-11.2,4.2c-9,0.5-17.4-1.5-25.4-6c-8.5-4.5-13.2-12.4-16.4-20.9
			c-3.7-9.5-5.5-19.4-5.5-31.9C338.7,733.9,339.9,726.7,341.9,719.7z M369.5,744.1c0.2,4.7,3.2,7,7.7,5.2c5.7-2.2,9.7-6.2,12.7-11.4
			c3-5.2,4.2-11.2,4.5-17.4c0.5-6.7-1.2-13.2-5.5-18.7c-3.7-5-7.2-4.7-10.7,0.2c-2,2.5-3.2,5.5-4,8.2c-2.5,9-5.2,17.9-4.7,27.4
			C369.5,739.9,369.5,741.9,369.5,744.1z"/>
		<path d="M458.1,735.2c2.5-16.9,5.2-33.6,10-50c2.2-8,5-15.9,10.2-22.9c4-5.2,6.7-6.2,12.9-4.2c5,1.7,8.7,5.2,11.2,9.7
			c5.2,9.7,8.2,19.9,8.7,30.6c0.5,8,0.7,15.9-0.5,23.9c-0.2,1.7-0.2,3.2-0.2,5.2c1.5-1,1.5-2,1.7-3c2.7-7,5.7-13.4,10.9-18.9
			c2.2-2.5,4.5-3.5,7.7-3.2c9.7,0.2,16.9,6,20.2,15.4c1.2,4.5,2.2,9,2.5,13.4c1.5,14.7,2,29.4,2.2,43.8c0.2,2.7,0,5.5,0,8.7
			c2.5-0.5,3.2-1.7,4-3c3-3.7,5-8.2,7-12.7c5.2-10.7,8.7-21.9,10.5-33.8c0.2-1,0.5-2.2,0.7-3.2c0.7-3,0.7-3.2,4-3.2
			c3.5-0.2,3.5-0.2,4.2,3.5c0.5,2,0.2,4,0,6c-3,16.4-9.5,31.6-17.2,46c-2,3.7-5.2,6.7-8.5,9.7c-2,2-4.7,2.2-7.7,2.2
			c-11.9-0.5-21.2-7.7-24.9-18.9c-3-9.2-2.7-18.4-2.2-27.6c0.7-10.5,1-20.9,1.5-31.4c0-1,0-1.7-0.2-3.5c-2.2,2.2-3.5,4.5-4.5,6.5
			c-5,8.5-8.5,17.4-10.9,26.9c-0.5,1.5-1,3-1.2,4.5c-0.2,4.5-3.5,7-6.5,9.5c-0.2,0.5-0.7,0.5-1,0.7c-5.5,2.5-15.2-1-17.9-6.2
			c-3.5-6.2-5.5-12.9-5.2-20.4c0.5-20.7,1.5-41.3,4.7-61.7c0.2-1.5,0.2-3.2,0-4.7c-1.5-0.2-1.2,1-1.7,1.7
			c-4.5,9.7-7.5,19.9-10.5,30.1c-5,15.4-8.2,31.1-11,47c-2.5,14.9-4.5,30.1-3.5,45.3c0,2,0.2,3.2-2.2,4.2c-7.5,3-15.9,1-20.7-5.7
			c-6-8.2-9.5-17.4-11.4-27.4c-3.2-18.4-5-36.8-4.7-55.5c0-4.2,0.5-8.7,1.2-12.9c0.5-3.2,2.2-5.5,5.5-6.2c10-2.5,18.9-0.5,27.4,5
			c2.5,1.7,3.5,4.5,3.2,7.7c-1,8.5-1.5,16.7-2.2,25.1c-1.2,14.4-2,28.9-1.2,43.6c0.2,2,0.7,4.2,1,6.5
			C453.9,763,455.9,749.1,458.1,735.2z"/>
		<path d="M645,736.7c-0.5,4.5-1.2,8.7-2.2,13.2c-3,13.2-7.2,26.1-14.4,38.1c-3.5,5.7-7.7,9.5-15.2,9.2
			c-14.9-0.5-24.4-10.2-27.9-19.4c-3.2-8-4.7-16.4-6-24.9c-1.7-13.7-2.5-27.6-2.7-41.6c0-5,0.7-9.7,1.2-14.4c0.5-4.2,3-6.2,8.2-6.7
			c7.5-0.7,14.4,0.7,20.9,4.7c1.2,0.7,2.2,1.5,3.5,2.5c2,1.7,3,4,2.2,7c-1.2,5.5-0.7,11.2-1.7,16.9c-0.7,7.2-1.2,14.2-2,21.4
			c-1.5,11.7-0.5,23.4,1,35.1c0.5,3.7,1.5,7.5,3.5,11.4c3.7-3,7.2-6.2,9.2-10.2c5.7-11.7,11.2-23.6,13.2-36.8
			c0.5-3.5,1-7.2,1.5-10.7c0.2-1.2,0.2-3,2-3.2c1.5,0,3.2,0.2,4.5,1.7C645,732.2,645.5,734.4,645,736.7z M583.5,665.2
			c0-4,0.7-6.7,2.2-9.2c1-1.5,2-2.7,3.7-3.2c4.7-0.7,9.7-2,14.7-0.2c9,3,12.2,11,7.5,19.4c-4.2,7.5-11.4,10-19.2,6.5
			C586.5,675.7,584,670.5,583.5,665.2z"/>
		<path d="M677.6,737.7c6.7-5.5,13.9-10.7,20.9-15.7c3-2,6-3,9.5-1.5c1.2,0.5,2.5,1,2.7,2.7c0,1.5-1.2,2-2.2,2.5
			c-10.7,7-20.9,14.4-30.1,23.4c-2,2.2-1.7,2.2-0.2,4.5c8.5,10.2,12.7,21.9,11.9,35.1c-0.7,9.7-5,16.7-13.2,21.2
			c-6.5,3.7-13.2,4.7-20.4,3.7c-2-0.5-4-1-5.5-2.2c-10-8.7-15.2-16.2-9-31.1c2.7-6.5,7-11.9,10.9-17.4c3-4,3-3,0-7
			c-3.7-5-7.7-10-11.2-14.9c-4.7-7.5-8-15.4-8.7-24.4c-0.2-7.2,1.5-13.9,5.2-20.2c7.2-11.4,18.4-14.7,31.9-9.2
			c6.5,2.7,11.2,7,13.4,13.9c1,3.5,0.7,7,0.2,10.2c-0.5,3.7-2,7.2-3.5,10.7c-0.5,1-1.2,2.2-2.7,2c-1.7-0.5-1.2-2-1.2-3.2
			c0.5-4.2,0.5-8.7-0.5-13.2c-0.7-2.7-2-5.5-3.7-7.7c-1.2-1.7-2-1.7-3.2,0c-1.7,2.5-2.7,5.2-2.7,8c-0.5,11.4,0,23.1,3.5,34.3
			c0,0.5,0.5,1,0.7,2C673.1,741.6,675.4,739.7,677.6,737.7z M658.4,771c-2.7,4-5,8.2-7.2,12.4c-1,2.2-1.7,4.5-2.2,6.7
			c-1.2,5,0,9.5,2.5,13.4c2.2,4,5.2,4.2,8.2,1c2-2.2,3-4.7,3.7-7.2c3-10,1-19.2-2.7-28.4C659.4,769.3,658.9,770.3,658.4,771z"/>
		<path d="M732.1,765.3c0.5,4.7,1.2,9.5,2,13.9c0.2,2.2,1.2,4.2,2.7,6c1.7,1.7,2.5,1.7,4.2,0c2.5-2.7,4.7-5.7,6.2-9.2
			c6.2-13.7,11.4-27.9,12.7-43.1c0-1.2,0.2-2.5,0.5-3.7c0.2-1.7,1.2-2.5,3-2.7c1.7-0.2,3-0.2,3.7,1.7c1,2,1.2,3.7,1,5.7
			c-0.2,4.7-1.5,9.2-2.7,13.7c-3.2,12.9-8.2,25.1-14.2,37.1c-2.5,4.7-6,8.2-10.2,11.2c-1.7,1.2-3.7,1.7-5.7,1.7
			c-11.4-1-21.2-5-26.9-15.9c-4.5-8.7-6.2-17.9-7.5-27.4c-2.2-16.7-1.7-33.3-0.5-50c0.5-5.7,1-11.2,1.2-16.9c0.2-3.7,0-3.7-3.5-3.7
			c-2.2,0-4.7,0-7-0.2c-2.2,0-4-1.2-5-3.2c-0.7-1.7-0.5-2.7,1.5-2.7c3.2,0,6.5,0,9.7,0c5.7,0,5.5,0.2,6.2-5
			c0.5-3.7,1.5-7.5,2.2-10.9c0.5-1.7,1.2-2.5,2.7-3.2c8-4.2,15.4-2.7,22.6,1c3,1.7,4.7,4.2,4.5,8c-0.2,2.2-0.5,4.7-0.7,7
			c-0.2,2.7-0.2,2.7,2.2,2.7c6.7-0.2,13.4-0.5,20.4-1c3.7-0.2,5.7,0.5,7,3c1,1.7,0.5,3-1.7,3c-1.5,0.2-3.2,0-5,0
			c-6.7,0.2-13.7,0.2-20.7,0.5c-3,0-3,0.2-3.2,3c-1.7,16.2-4,32.1-3,43.8C731.6,744.4,731.1,754.8,732.1,765.3z"/>
		<path d="M788.8,739.9c2-13.9,4.2-27.9,8.5-41.3c1-3.5,2.2-6.5,4.2-9.5c5.7-8,16.4-9.5,24.1-3.2c2,1.5,3.7,3.5,5,6
			c3,6,5.2,12.4,3.7,19.4c-0.7,4-2.7,5.5-7,5.5c-6.7-0.2-10.7-4-11.2-10.9c-0.2-3.2-0.5-6.2-1.2-9.5c0-0.7,0-1.5-1-2.2
			c-1.2,0.2-1.5,1.5-2,2.5c-5.2,9.2-9,19.2-11.9,29.4c-2.7,9.7-5.2,19.4-7.2,29.4c-2,11.7-2.7,23.6-2.2,35.6c0.2,4.5-1.2,6.5-6,6
			c-4.2-0.2-8.2-1.5-11.4-4.7c-3.2-3-5.7-6.5-8-10.5c-5-9.7-7-19.9-8.7-30.4c-2.2-15.7-3.5-31.6-2.5-47.5c0.5-7,1.5-7.7,8-10.5
			c6.2-2.5,12.4-2.2,18.7-0.5c1.2,0.5,2.7,1,4.2,1.7c3,1.5,4.5,4,4.2,7.7c-1,8-1.7,15.7-2.2,23.4c-0.7,10.7-1.5,21.4-0.5,32.1
			C787.3,751.8,788.1,745.9,788.8,739.9z"/>
		<path d="M905.3,720.2c-3,12.2-7.7,23.6-10.5,35.8c-2,9.5-5.7,18.2-10.5,26.4c-2.7,4.5-6.2,6.2-11.4,5.5
			c-5.7-0.7-10.5-3.2-14.7-7.2c-10.7-9.7-16.2-22.1-18.2-36.1c-1.7-11.7-0.7-23.1,0.2-34.8c0.7-6.7,1.5-13.4,2.7-20.2
			c0.7-3.5,2-5,5.7-5.5c9.5-1.2,17.9,1.5,25.4,7.7c2.5,2,3.2,4.5,2.7,8c-1.5,11-2.5,21.7-3.2,32.6c-0.7,11.9,0.7,23.9,1.5,35.6
			c0,0.7,0.2,1.7,0.2,2.5c0.2,0.2,0.5,0.5,0.7,1c1.5-1,2-2.2,2.7-3.7c8.2-15.9,15.2-32.8,19.2-50.5c1.5-6.7,2.2-13.7,4.2-20.2
			c0.5-1.5,0.2-3,0-4.5c-0.2-3.5,1-4.7,4.2-4.7c6.2,0,11.4,3.7,13.9,9.7c1.7,4.5,3,9.2,3.7,13.9c3,16.2,4.7,32.4,5.2,48.5
			c0.5,13.9-0.2,27.6-3.2,41.3c-2.7,12.7-8,24.1-17.4,33.6c-10.2,10.2-22.4,12.9-35.8,10.2c-10.7-2.5-15.2-12.7-10.7-22.6
			c2.7-6.5,7-11.9,12.4-16.4c6.7-5.2,13.7-10.2,20.7-15.4c0.2-0.2,0.7-0.7,1.2-0.7c4.5-1.2,5.5-4.5,6.2-8.7c4.2-20.4,4-41.1,3-62
			C905.5,719.7,905.3,720,905.3,720.2z M897.6,799.4c-0.5,0.2-1,0.5-1.5,0.7c-10.2,7-18.4,15.7-24.1,26.6c-1.7,3.7-1.5,6,1,8.7
			c2,2,3,2,5.2,0.2c5.2-3.7,8.7-9,11.9-14.4c4-7,7-14.2,8.7-22.4C898.1,799.1,897.6,799.1,897.6,799.4z"/>
	</g>
	<g>
		<path d="M232.9,514c3.2,4.7,5.3,10.5,5.3,16.9v15.3h-19.2h-5.3v-2.4c3.2,0,5-6.3,5.3-13.2c-0.3-6.6-6.1-11.9-13.2-11.9
			c-7.4,0-13.2,5.5-13.2,12.1v9c0,3.2,1.6,6.3,4.5,8.4l29.2,21.6c8.2,6.3,11.9,17.7,11.9,25.8v8.2c0,6.1-2.1,11.9-5.3,16.9
			c-5.5,8.2-15.3,13.2-25.3,13.2c-11.3,0.3-20-2.9-25.8-9.2c-5.3-5.5-8.4-12.9-8.4-20.8v-15.5h24.2v2.4c-2.9,0-5,6.3-5,13.4
			c0.3,6.3,6.1,11.6,13.2,11.6c7.1,0,13.2-5.3,13.2-11.9v-8.2c0-3.7-2.1-8.7-4.2-10.3l-29.2-21.9c-7.6-5.8-12.1-14.5-12.1-23.7v-9
			c0-8.2,3.2-15.5,8.4-21.1c5.8-6.3,14.5-9.5,25.8-9.2C217.6,500.6,227.4,505.6,232.9,514z"/>
		<path d="M286.6,633.1h-14.5c-13.4,0-24.5-11.1-24.5-24.5v-83c-0.5-13.2,8.7-23.7,24.5-24.2h14.5c13.4,0,24.2,10.8,24.2,24.2v83
			C310.9,622.1,300.1,633.1,286.6,633.1z M272.1,614.4h14.5c2.9,0,5.5-2.6,5.5-5.8v-83c0-2.9-2.6-5.5-5.5-5.5h-14.5
			c-3.2,0-5.8,2.6-5.8,5.5v83C266.4,611.8,269,614.4,272.1,614.4z"/>
		<path d="M427.6,562.3l-10,44.8h-17.9l-10-44.8v52.7c0.3,3.7,1.8,15.8,5,15.8v2.4h-28.7v-2.4c3.4,0,5-14.2,5-16.3v-94.3
			c0-2.1-1.6-16.3-5-16.3v-2.4h25l17.7,73l17.7-73h25v2.4c-3.4,0-5,14.2-5,16.3v94.3c0,2.1,1.6,16.3,5,16.3v2.4h-28.7v-2.4
			c3.2,0,4.7-11.6,5-15.3V562.3z"/>
		<path d="M536.4,501.4v2.1c-3.2,0-5,14.2-5,16.6v74.6c0.3,14.2,3.7,16.6,3.7,16.6s-2.9,1.3-5,5.5c-3.4,9.5-12.4,16.3-22.9,16.3
			h-14.8c-10.5,0-19.5-6.8-22.9-16.3c-2.1-4.2-5-5.5-5-5.5s3.7-4.2,3.7-18.7v-72.5c0-2.4-1.6-16.6-5-16.6v-2.1h28.7v2.1
			c-3.4,0-5,14.2-5,16.6v88.5c0,3.2,2.6,5.5,5.5,5.5h14.8c2.9,0,5.5-2.4,5.5-5.5v-88.5c0-2.4-1.6-16.6-5-16.6v-2.1H536.4z"/>
		<path d="M585.9,633.1h-14.5c-13.4,0-24.5-10.8-24.5-24.2v-83c0-13.4,11.1-24.5,24.5-24.5h14.5c13.4,0,24.5,11.1,24.5,24.5v13.7
			h-19h-4.7v-2.4c3.2,0,4.7-3.7,4.7-9.7v-1.6c0-3.2-2.4-5.8-5.5-5.8h-14.5c-3.2,0-5.8,2.6-5.8,5.8v83c0,2.9,2.6,5.5,5.8,5.5h14.5
			c3.2,0,5.5-2.6,5.5-5.5v-4.2c0,0-1.6-9.2-4.7-9.2v-2.4h4.7h19v15.8C610.4,622.3,599.4,633.1,585.9,633.1z"/>
		<path d="M619.4,633.1v-2.4c3.2,0,4.7-12.6,5-15.8v-95.1c-0.3-3.4-1.8-16.1-5-16.1v-2.4h28.7v2.4c-3.4,0-5,14.2-5,16.6v24.5h25.8
			v-25c0-3.4-1.8-16.1-5-16.1v-2.4h28.7v2.4c-2.9,0-4.5,11.6-5,15.5v96.2c0.5,4,2.1,15.3,5,15.3v2.4h-23.7h-5v-2.4
			c3.4,0,5-14.2,5-16.3v0.5v-51.1h-25.8v51.6c0.3,4,2.1,15.3,5,15.3v2.4H619.4z"/>
	</g>
	<g>
		<path d="M274.3,356.6l-15.7,112.5h-28.8l-8.9-66.2l-8.9,66.2h-29l-15.4-112.2c-0.8-3.4-4.2-16.5-7.6-16.5v-2.1h29.6v2.1
			c-2.9,0-3.9,10.2-3.7,14.9l11.8,85.5l11.5-85.5c0.3-4.2-0.5-14.9-3.7-14.9v-2.1h24.9l13.9,102.5l11.5-85.3
			c0.3-4.2-0.5-15.2-3.7-15.2v-2.1h29.6v2.1C278.5,340.4,275.1,353,274.3,356.6z"/>
		<path d="M289.5,469.1v-2.4c2.9,0,4.7-11.8,4.7-15.4v-95c0-3.7-1.8-15.7-4.7-15.7v-2.4h56l2.4,23.5h-2.4c0-3.1-14.1-4.7-16.2-4.7
			h-16.2v24.3h7.8c2.4,0,16.5-1.6,16.5-5h2.4V405h-2.4c0-3.1-14.1-5-16.5-5h-7.8v50.5h16.2c2.1,0,16.2-1.6,16.2-5h2.4l-2.4,23.5
			H289.5z"/>
		<path d="M401.5,469.1v-2.4c3.1,0,4.7-12.6,5-15.7v-94.4c-0.3-3.4-1.8-16-5-16v-2.4H430v2.4c-3.4,0-5,14.1-5,16.5v24.3h25.6v-24.9
			c0-3.4-1.8-16-5-16v-2.4h28.5v2.4c-2.9,0-4.4,11.5-5,15.4v95.5c0.5,3.9,2.1,15.2,5,15.2v2.4h-23.5h-5v-2.4c3.4,0,5-14.1,5-16.2
			v0.5v-50.7H425v51.3c0.3,3.9,2.1,15.2,5,15.2v2.4H401.5z"/>
		<path d="M558.4,466.8v2.4h-28.5v-2.4c2.9,0,4.4-7.3,3.9-14.1c-0.3-1-1-6.5-1-6.5h-25.4l-0.5,4.4c-0.5,2.4-1.3,16.2,1.8,16.2v2.4
			h-26.9v-2.4c2.4,0,4.7-7.1,5.5-12l15.2-97.8c0-2.1,1-16.2-2.1-16.2v-2.4h39.8v2.4c-3.1,0-2.4,12.3-2.1,15.7l14.9,98.4
			C554,459.7,556.1,466.8,558.4,466.8z M529.9,427.5l-9.7-64.4l-9.9,64.4H529.9z"/>
		<path d="M578.3,469.1h-5v-2.4c2.9,0,3.1-9.2,2.6-13.9l-14.6-96c-0.8-3.4-4.4-16.5-7.8-16.5v-2.1H583v2.1c-3.4,0-3.4,15.2-3.4,15.2
			l13.9,88.7l13.6-88.9c0.5-4.4-0.3-14.9-3.1-14.9v-2.1h29.6v2.1c-3.4,0-7.1,13.1-7.8,16.5L611,453.2c-0.5,4.7-0.3,13.6,2.4,13.6
			v2.4H578.3z"/>
		<path d="M640.5,469.1v-2.4c2.9,0,4.7-11.8,4.7-15.4v-95c0-3.7-1.8-15.7-4.7-15.7v-2.4h56l2.4,23.5h-2.4c0-3.1-14.1-4.7-16.2-4.7
			h-16.2v24.3h7.8c2.4,0,16.5-1.6,16.5-5h2.4V405h-2.4c0-3.1-14.1-5-16.5-5h-7.8v50.5h16.2c2.1,0,16.2-1.6,16.2-5h2.4l-2.4,23.5
			H640.5z"/>
	</g>
	<g>
		<path d="M867.8,333.3c3.5-18.2,6.8-36,10.2-53.7c2.4-12.4,4.7-24.8,7.1-37.2c1.2-6.1,6.7-9.9,12.5-8.9c6,1,9.7,6.7,8.5,13.1
			c-5.1,27-10.3,54-15.4,81c-0.3,1.7-0.6,3.5-1,5.9c5.4,0,10.4,0,15.4,0c6.6,0,13.2-0.3,19.8,0.1c1.8,0.1,4.2,1.6,5.1,3.1
			c0.7,1.4,0.1,4.1-0.9,5.5c-5.7,7.9-11.7,15.6-17.7,23.2c-3.9,4.9-6.1,11-6.1,17.3c0,23.7,0.1,47.3,0.1,71
			c0.1,48.5,0.3,96.9,0.3,145.4c0,16.4-6.8,29.4-21.4,37.1c-5.4,2.8-11.9,4.9-17.9,5c-36.2,0.5-72.5,0.4-108.8,0.2
			c-21.9-0.1-40.1-18.1-40-40c0.1-27.1,0.6-54.3,0.7-81.4c0.2-29.3,0.1-58.7,0.2-88c0-12.7-0.2-25.5,0.5-38.2
			c0.8-13.6,0.2-27.3-3.5-40.4c-3.6-12.7,0.5-19.9,11.9-20c45.1,0,90.2,0,135.3,0C864.4,333.3,865.9,333.3,867.8,333.3z
			 M731.3,436.6c2,0,3.4,0,4.8,0c36.1,0,72.1,0,108.2,0c2.7,0,4.4-0.3,4.5-3.6c0.1-3,1.5-5.9,1.7-8.9c1-12.8,1.5-25.7,5.4-37.9
			c5.8-18.3,7.4-29.3,10.1-44.3c-2.2,0-3.7,0-5.3,0c-42,0-84,0-126,0c-2.7,0-5.4-0.1-8.1,0c-2.3,0-3.6,1-3.3,3.6
			c1,6.7,1.6,13.5,2.6,20.2c0.9,6.7,1.8,13.4,1.8,20.2c0,44.2-0.5,88.4-0.8,132.6c-0.2,27.1-0.2,54.3-0.3,81.4
			c0,17.9,14.4,32.5,32.2,32.6c35.3,0.2,70.6,0.2,105.9,0c17.7-0.1,32-14.4,32.1-31.7c0.1-50,0.1-100.1,0-150.1
			c0-22.9-0.2-45.8-0.3-68.6c0-7.3,2.1-14.5,6.4-20.3c3.7-5,7.5-9.8,11.3-14.7c1.1-1.5,2.2-3,3.7-5c-10.4,0-19.9,0-29.9,0
			c-6,31.5-11.9,62.8-18,94.6c7.6,0,14.6,0,21.9,0c0,4.2,0,7.9,0,11.6c0,50,0.1,100.1,0.2,150.1c0,9.6-3.5,17.3-11,23.2
			c-6.4,5.1-13.7,7.4-21.9,7.4c-22-0.1-43.9,0-65.9,0c-10.9,0-21.7,0.4-32.6-0.2c-15.5-0.9-29.7-13.3-29.5-30.9
			c0.3-28.8,0.1-57.6,0.1-86.5c0-23.3,0-46.5,0-69.8C731.3,440.2,731.3,438.7,731.3,436.6z M884.5,342c-3.7,0-6.8,0.3-9.9-0.1
			c-4.3-0.6-5.4,1.4-6,5.2c-4.1,22.7-8.4,45.3-12.8,68c-5,26.1-10.1,52.2-15,78.3c-6.2,32.4-12.2,64.9-18.4,97.3
			c-1.3,7.1-2.8,14.2-4.1,21.3c-0.8,4.6,1.5,8.3,5.7,9.1c3.9,0.8,7.3-1.6,8.5-6.1c0.2-0.6,0.3-1.3,0.4-1.9c3.1-16,6.2-31.9,9.2-47.9
			c7.1-37.4,14.1-74.8,21.2-112.1c5.1-26.8,10.2-53.7,15.3-80.5C880.6,362.7,882.4,352.7,884.5,342z M871.5,333.3
			c4.1,0,7.7-0.1,11.3,0c2.5,0.1,3.5-0.6,4-3.3c3.2-17.4,6.6-34.7,9.9-52.1c2-10.6,4.1-21.3,6-32c0.8-4.6-1.5-8.1-5.4-8.9
			c-4.4-0.9-7.6,1.3-8.7,6c-1.1,4.4-1.9,8.8-2.5,13.3c-2.3,17.9-5.8,35.6-10.2,53.1C874,317.4,872.9,324.8,871.5,333.3z M742.1,527
			c18,0,35.7,0,53.4,0c1.3-5.3,1-5.7-3.8-5.7c-15.1,0-30.2,0-45.3,0c-1.4,0-2.8,0-4.3,0C742.1,523.5,742.1,525.1,742.1,527z
			 M742.1,607c18.1,0,35.9,0,54,0c0-1.3,0-2.1,0-3c-0.1-0.9-0.2-1.7-0.4-2.6c-18,0-35.7,0-53.6,0C742.1,603.4,742.1,605.1,742.1,607
			z M796,441.8c-18,0-35.9,0-53.8,0c0,1.9,0,3.5,0,5.6c16.5,0,32.9-0.1,49.2,0.1C795.7,447.6,796.8,446,796,441.8z M777.5,473.8
			c-11.9,0-23.6,0-35.6,0c0.1,1.9,0.2,3.5,0.3,5.2c12,0,23.5,0,35.3,0C777.5,477.3,777.5,475.8,777.5,473.8z M777.5,553.7
			c-11.9,0-23.6,0-35.3,0c0,1.9,0,3.5,0,5.4c10.5,0,20.7,0,30.8,0C777.9,559.1,777.9,559.1,777.5,553.7z M765.3,489.4
			c-6.6,0-12.8,0-19,0c-4.9,0-5.2,0.5-3.8,5.5c7.5,0,15.1,0,22.7,0C765.3,493.1,765.3,491.6,765.3,489.4z M742.1,542.8
			c7.9,0,15.4,0,23.1,0c0-1.8,0-3.4,0-5.2c-7.8,0-15.4,0-23.1,0C742.1,539.4,742.1,540.9,742.1,542.8z M742.2,505.7c0,2,0,3.6,0,5.2
			c7.9,0,15.4,0,23,0c0-1.9,0-3.5,0-5.2C757.4,505.7,750,505.7,742.2,505.7z M765.2,585.7c-7.8,0-15.4,0-23.1,0c0,1.8,0,3.4,0,5.2
			c7.8,0,15.3,0,23.1,0C765.2,589.1,765.2,587.6,765.2,585.7z M742.2,462.8c7.8,0,15.5,0,23.1,0c0-1.9,0-3.4,0-5.1
			c-7.7,0-15.3,0-23.1,0C742.2,459.4,742.2,460.9,742.2,462.8z M765.2,574.8c0-2,0-3.4,0-5.4c-6.4,0-12.5,0-18.6,0
			c-5.1,0-5.2,0.2-4.2,5.4C749.9,574.8,757.5,574.8,765.2,574.8z"/>
		<path d="M742.3,414.7c0-1.6,0-2.9,0-4.6c11.6,0,23.1,0,34.8,0c0,1.6,0,3,0,4.6C765.6,414.7,754.1,414.7,742.3,414.7z"/>
		<path d="M765,383c-7.6,0-14.9,0-22.5,0c0-1.7,0-3.2,0-5c7.5,0,14.9,0,22.5,0C765,379.6,765,381.1,765,383z"/>
		<path d="M765.1,426.1c0,1.6,0,3.1,0,4.8c-7.6,0-15,0-22.6,0c0-1.6,0-3,0-4.8C749.8,426.1,757.2,426.1,765.1,426.1z"/>
		<path d="M764.9,394.2c1,3.7-0.1,5.2-3.9,5c-5.8-0.3-11.6-0.1-17.4-0.2c-0.4,0-0.7-0.2-1.3-0.4c0-1.4,0-2.8,0-4.4
			C749.8,394.2,757.3,394.2,764.9,394.2z"/>
	</g>
</g>
</svg>
