<?xml version="1.0" encoding="utf-8"?>
<!-- Generator: Adobe Illustrator 22.0.0, SVG Export Plug-In . SVG Version: 6.00 Build 0)  -->
<svg version="1.1" id="Layer_1" xmlns="http://www.w3.org/2000/svg" xmlns:xlink="http://www.w3.org/1999/xlink" x="0px" y="0px"
	 viewBox="0 0 1080 1080" style="enable-background:new 0 0 1080 1080;" xml:space="preserve">
<style type="text/css">
	.st0{fill:#E43B40;}
</style>
<g>
	<g>
		<g>
			<path d="M554.1,554.1v109.8c0,8-2.1,14.6-4.9,14.6h-14.8c-2.5,0-4.9-6.6-4.9-14.6v-89.5l-15.4,18.2l-6.6,7.6
				c-1.3,1.5-2.5,3.2-4,4.4c-1.5,1.5-3,2.1-4.4,2.7c-1.5,0.6-2.5,0.8-4.2,1.1c-1.7,0.2-3.6,0-5.1-0.2c-1.3-0.4-2.5-0.8-4-1.9
				c-1.5-0.8-2.8-1.9-4.2-3.6l-20.9-27.3l0.8,88.4c0,8-2.1,14.6-4.7,14.6l-14.8,0.2c-2.8,0-4.9-6.6-4.9-14.6l-1.3-120
				c0-3.2,1.1-5.1,1.7-6.8c0.6-0.6,1.1-1.5,1.5-2.1l1.3-1.5c0.8-0.6,1.9-1.3,2.5-1.7c0.2-0.2,0.4-0.2,0.6-0.4
				c0.4-0.2,0.8-0.4,1.5-0.6c1.1-0.4,2.1-0.6,2.5-0.6c1.7-0.2,4-0.4,7.2,0.6c1.5,0.6,3.4,1.7,5.5,3.8l0.6,0.8l0.8,0.8l1.5,2.1l3,4
				l27.7,36l18.6-21.6l16.1-19c1.5-1.7,2.8-2.7,4-3.6s2.3-1.5,3.4-1.7l0.8-0.2c0.2,0,0.4,0,0.6-0.2l1.5-0.2c0.6,0,1.7,0,2.3,0
				l0.8,0.2c0.4,0,0.6,0,1.1,0.2c1.1,0.2,3,0.8,3.6,1.3c1.3,0.6,2.3,1.3,3.4,2.7l1.1,0.8l0.8,1.5c0.2,0.2,0.6,0.8,0.8,1.5l0.4,0.8
				c0,0.4,0.2,0.8,0.2,1.3l0.4,1.1c0,0.4,0,0.8,0,1.3c0.2,1.1,0.2,2.1,0.2,3.2V554.1z"/>
			<path d="M659.3,547.1c-12.7,23.5-25.8,46.6-39.6,69.4v56.7c0,3-2.1,5.3-4.9,5.3H600c-2.5,0-4.9-2.3-4.9-5.3v-56.7l-0.6-1.1
				l-1.3-1.9l-2.3-4c-12.7-21.4-22.4-44.6-28.8-68.8c-0.8-3.2,0.6-6.1,3.4-6.8l14.4-3.4c2.5-0.6,5.3,1.1,5.9,3.8
				c4.9,19,12.3,37.5,21.6,54.8c10.4-17.8,20.5-35.8,30.5-53.7c0.6-1.5,3.2-1.7,5.7-0.4l12.9,7C658.9,543.3,660.1,545.7,659.3,547.1
				z"/>
		</g>
	</g>
	<g>
		<g>
			<path class="st0" d="M305.2,336.4V368c0,20.1-5.8,35.3-16.5,45.5c-11.6,11.2-25.9,11.6-29.5,11.6h-22.3v53.6
				c0.4,5.4,3.1,27.2,8.5,27.2v4h-48.7v-4c5.4,0,8-21,8.5-26.8V318.5c0-3.6-2.7-27.7-8.5-27.7v-4h65.2
				C261.9,286.8,305.2,286.8,305.2,336.4z M273,336.4c0-13.4-8.9-17-13.4-17.9h-22.8v75h23.2c3.6-0.4,12.9-3.1,12.9-25.4V336.4z"/>
			<path class="st0" d="M323.9,510v-4c5.4,0,8-22.3,8-27.2v-162c-0.4-6.7-3.1-25.9-8-25.9v-4h48.2v4c-5.4,0-8,22.3-8,27.2v160.7
				c0,4.9,2.7,27.2,8,27.2v4H323.9z"/>
			<path class="st0" d="M399.8,327h-4l6.2-40.2h87l3.6,14.3l-62.5,176.8H452c4,0,28.1-2.7,28.1-8h3.6l-6.3,40.2h-86.6l-4-14.3
				l62.5-177.2h-21.9C423.9,318.5,399.8,321.6,399.8,327z"/>
			<path class="st0" d="M508.3,327h-4l6.2-40.2h87l3.6,14.3l-62.5,176.8h21.9c4,0,28.1-2.7,28.1-8h3.6L586,510h-86.6l-4-14.3
				l62.5-177.2H536C532.4,318.5,508.3,321.6,508.3,327z"/>
			<path class="st0" d="M737.7,506v4h-48.7v-4c4.9,0,7.6-12.5,6.7-24.1c-0.4-1.8-1.8-11.2-1.8-11.2h-43.3l-0.9,7.6
				c-0.9,4-2.2,27.7,3.1,27.7v4h-46v-4c4,0,8-12.1,9.4-20.5l25.9-166.9c0-3.6,1.8-27.7-3.6-27.7v-4h67.8v4c-5.4,0-4,21-3.6,26.8
				l25.4,167.8C730.1,493.9,733.7,506,737.7,506z M689.1,439l-16.5-109.8l-17,109.8H689.1z"/>
		</g>
	</g>
	<g>
		<path d="M265.8,152.2c-10,18.5-20.4,36.7-31.2,54.7v44.7c0,2.3-1.7,4.2-3.8,4.2h-11.7c-2,0-3.8-1.8-3.8-4.2v-44.7l-0.5-0.8l-1-1.5
			l-1.8-3.2c-10-16.8-17.7-35.2-22.7-54.2c-0.7-2.5,0.5-4.8,2.7-5.3l11.3-2.7c2-0.5,4.2,0.8,4.7,3c3.8,15,9.7,29.5,17,43.2
			c8.2-14,16.2-28.2,24-42.4c0.5-1.2,2.5-1.3,4.5-0.3l10.2,5.5C265.5,149.2,266.5,151,265.8,152.2z"/>
		<path d="M339.9,186.1c0.8,5.3,1.3,10.7,1.3,16.4c-0.2,5.5-0.8,11-2.2,16.5s-3.2,11-6.2,16.2c-1.3,2.7-3.2,5.2-5.2,7.7
			c-0.8,1.2-2,2.3-3.2,3.3l-1.8,1.7l-1.8,1.5c-5.3,4-11.5,6.7-18.5,7.2c-3.3,0.3-7,0.2-10.5-0.7c-3.5-0.8-6.8-2.5-9.8-4.5
			c-5.8-4.2-9.7-9.7-12.2-15.2c-2.7-5.5-4-11.5-4.8-17c-0.7-5.5-0.7-11-0.7-16.2c0.2-5.2,0.5-10.2,1-15.5c0.7-5.2,1.5-10.7,3-16
			c0.8-2.7,1.8-5.5,3-8.2c1.2-2.7,2.7-5.3,4.3-7.8c3.5-5.2,7.8-9.8,13.8-13.2c1.8-1,3.7-1.7,5.5-2c0.3-0.2,0.7-0.2,1-0.3
			c1.8-0.5,3.3-0.7,4.7-0.8c0.8,0,1.3,0,2,0h1.8c0.7,0,1.5,0,2.3,0.2c0.3,0,0.7,0.2,1,0.2c2,0.2,4.5,0.8,6.8,2.2
			c6.2,3.3,10.5,8.2,13.8,13.2c3.3,5,5.7,10.2,7.5,15.3C337.9,175.4,339.1,180.7,339.9,186.1z M321.9,202.1c0.2-8.5-1.3-17.7-4-25.7
			c-1.5-4-3.2-7.8-5.3-11c-2.2-3.2-4.7-5.7-7.2-7c-0.3-0.2-0.5-0.3-0.8-0.5c-1.7-0.3-3.2-0.2-4.3,0.3c-0.5,0.3-0.8,0.5-1.3,0.8
			c-2.5,1.3-5.2,4-7.2,7c-1,1.5-2,3.2-2.7,5c-0.8,1.7-1.5,3.7-2.2,5.7c-2.3,8-2.8,17.2-3.2,26.7c-0.3,9.2,0.3,17.9,3.5,24.5
			c1.7,3.3,3.7,6,5.8,7.5c2.2,1.5,4.7,2.2,7.7,1.8c3-0.2,6-1.5,8.7-3.3l0.8-0.8l1-0.8c0.5-0.5,1.2-1.2,1.8-1.8c1-1.5,2.2-3,3-4.7
			C319.9,219.1,321.7,210.4,321.9,202.1z"/>
		<path d="M420.8,146.7c1.8,18.9,2,37.9-0.2,57.1c-0.7,4.8-1.3,9.7-2.2,14.3c-1,4.8-2,9.7-3.8,14.7c-0.8,2.7-2,5.2-3.5,7.8
			c-1.5,2.7-3.3,5.3-5.8,7.8c-2.5,2.3-5.7,4.5-9,5.7c-3.3,1.3-6.7,1.8-10.2,1.8c-3.3,0.2-6.7-0.3-10-1.5c-0.8-0.3-1.5-0.7-2.3-1
			c-0.8-0.3-1.7-0.8-2.3-1.3c-1.7-0.7-3-1.8-4.3-3c-0.7-0.5-1.2-1.2-1.8-1.7c-0.5-0.7-1.2-1.2-1.7-1.8c-1-1.3-2-2.5-2.8-3.8
			c-1.7-2.7-2.8-5.2-3.8-7.8c-4-10.3-5-20-6.2-29.5c-1.7-18.9-2.3-37.5-2.2-56.2c0.2-4.8,2-8.7,4.2-8.5l11.5,0.3
			c2.2,0,3.7,3.8,3.7,8.5c-0.3,18,0.3,36.2,2,53.9c1,8.8,2.2,17.7,5,24.5c1.3,3.3,3,6.2,4.7,7.7c0.5,0.2,0.8,0.7,1.3,0.8
			c0.3,0.2,0.5,0.3,0.8,0.5c0.2,0,0.5,0.2,0.7,0.3c1,0.3,2.3,0.5,3.5,0.5c1.3,0,2.5-0.3,3.5-0.7c0.8-0.3,1.7-0.8,2.5-1.7
			c1.7-1.5,3.3-4.3,4.5-8c1.2-3.5,2.2-7.7,3-12c0.8-4.2,1.5-8.5,2-12.8c2-17.5,1.8-35.4,0.2-53.2c-0.3-4.5,0.8-8.3,3-8.7l11.5-1.3
			C418.2,138.2,420.3,141.8,420.8,146.7z"/>
		<path d="M544.4,144.2l1,107.6c0,2.2-1.7,4-3.8,4.2h-11.5c-2.2,0-3.8-1.8-4-4l-0.3-41.4l-29.2,1l0.3,40.2c0.2,2.2-1.7,4-3.7,4.2
			h-11.7c-2.2,0-3.8-1.8-3.8-4l-1-107.6c0-2.3,1.7-4.2,3.8-4.2l11.5-0.2c2.2,0,3.8,1.8,4,4.2l0.3,48l29.2-0.8l-0.3-47
			c-0.2-2.3,1.7-4.2,3.7-4.2l11.7-0.2C542.8,140,544.4,141.8,544.4,144.2z"/>
		<path d="M627.4,246.3c0.5,4.5-0.8,8.2-3,8.5l-11.5,1.2c-2,0.3-4.2-3-4.7-7.5c-0.8-6.7-1.7-13.5-2.5-20.2
			c-9.8,1.3-19.9,1.5-29.7,0.3c-1.2,6.8-2.3,13.7-3.3,20.7c-0.5,4.3-2.7,7.7-4.8,7.3l-11.5-1.5c-2.2-0.3-3.3-4.2-2.7-8.7
			c2.5-17.4,5.3-34.9,9-52.4c2-8.7,4-17.3,6.7-26.2c0.7-2.2,1.5-4.5,2.2-6.7c0.5-1.2,0.8-2.3,1.3-3.3c0.3-0.7,0.5-1.2,0.7-1.8
			l0.5-0.8l0.5-1.2c1.8-3.8,4-7.7,6.8-10.3c2.8-2.8,6-4.3,9.7-4.7c0.8,0,1.8,0,2.7,0.2c1,0,1.8,0.3,2.7,0.7c1.7,0.5,3.2,1.3,4.7,2.5
			c2.8,2.3,5.2,6,7.2,10c0.2,0.3,0.5,0.8,0.7,1.3c0.2,0.5,0.5,1.2,0.7,1.5l0.7,1.8c0.5,1.2,0.8,2.3,1.3,3.3c0.7,2.3,1.3,4.5,2,6.8
			c2.7,8.8,4.5,17.7,6.2,26.5C622.9,211.2,625.2,228.8,627.4,246.3z M602.7,209.1c-0.5-4-1.3-7.8-2-11.8c-1.5-8.5-3.3-16.8-5.7-24.7
			c-0.5-2-1.2-4-1.8-5.8c-0.3-0.8-0.7-1.8-1-2.7l-0.5-1.3l-0.2,0.3l-0.2,0.7c-0.2,0.3-0.5,0.8-0.7,1.3c-0.3,0.8-0.7,1.8-1,2.7
			c-0.7,2-1.3,3.8-2,5.8c-2.3,7.8-4.3,16.2-6.2,24.7c-0.7,3.7-1.5,7.5-2.2,11.3C587,210.4,595,210.2,602.7,209.1z"/>
		<path d="M701.9,152c-3.7,17.5-7.8,35-12.3,52.4c-2.2,8.7-4.5,17.4-7,25.9l-1.7,6.5l-0.7,2.2c-0.3,1.2-0.7,2.2-1.2,3.2
			c-0.7,2.2-1.7,4-2.7,5.8c-2.3,3.3-5.2,5.8-8.5,7.3c-3.3,1.5-7.2,1.8-10.7,0.8c-3.5-1-6.2-3-8.5-6c-2.2-2.8-3.8-6.8-4.8-10.8
			l-3.5-13.5c-2-8.3-4-16.7-5.8-25.2c-3.8-16.7-7.2-33.7-10.2-50.6c-0.7-4.5,0.3-8.3,2.5-8.7l11.5-1.8c2-0.3,4.3,2.8,5,7.2
			c3,16.7,6.2,33.2,9.8,49.7c2,8.3,3.8,16.5,5.8,24.7l3,11.3l2-7.3c2.5-8.5,4.7-17,6.8-25.5c4.5-17.2,8.5-34.4,12.2-51.6
			c1-4.3,3.3-7.5,5.5-7l11.3,2.3C701.9,143.8,702.9,147.7,701.9,152z"/>
		<path d="M775,144.2v11.7c0,2-1,3.7-2.3,3.7H729l0.3,32.5l30.4-1c0.7,0,1.3,1.7,1.3,3.8l0.5,11.7c0,2-0.5,3.8-1.3,3.8l-30.7,0.8
			l0.3,25.2l38.5-1c1,0,1.8,1.7,1.8,3.7l0.3,11.7c0.2,2.2-0.7,3.8-1.7,3.8l-47.2,1.3c-0.2,0-0.5,0-0.7-0.3l-6.5,0.2
			c-2.2,0-3.8-1.8-3.8-4.2l-1-107.6c0-2.3,1.7-4.2,3.8-4.2H725c0.7-0.2,1.2,0,1.8,0.3l46,0.2C774,140.3,775,142,775,144.2z"/>
		<path d="M896,246.3c0.5,4.5-0.8,8.2-3,8.5l-11.5,1.2c-2,0.3-4.2-3-4.7-7.5c-0.8-6.7-1.7-13.5-2.5-20.2c-9.8,1.3-19.9,1.5-29.7,0.3
			c-1.2,6.8-2.3,13.7-3.3,20.7c-0.5,4.3-2.7,7.7-4.8,7.3l-11.5-1.5c-2.2-0.3-3.3-4.2-2.7-8.7c2.5-17.4,5.3-34.9,9-52.4
			c2-8.7,4-17.3,6.7-26.2c0.7-2.2,1.5-4.5,2.2-6.7c0.5-1.2,0.8-2.3,1.3-3.3c0.3-0.7,0.5-1.2,0.7-1.8l0.5-0.8l0.5-1.2
			c1.8-3.8,4-7.7,6.8-10.3c2.8-2.8,6-4.3,9.7-4.7c0.8,0,1.8,0,2.7,0.2c1,0,1.8,0.3,2.7,0.7c1.7,0.5,3.2,1.3,4.7,2.5
			c2.8,2.3,5.2,6,7.2,10c0.2,0.3,0.5,0.8,0.7,1.3c0.2,0.5,0.5,1.2,0.7,1.5l0.7,1.8c0.5,1.2,0.8,2.3,1.3,3.3c0.7,2.3,1.3,4.5,2,6.8
			c2.7,8.8,4.5,17.7,6.2,26.5C891.4,211.2,893.8,228.8,896,246.3z M871.3,209.1c-0.5-4-1.3-7.8-2-11.8c-1.5-8.5-3.3-16.8-5.7-24.7
			c-0.5-2-1.2-4-1.8-5.8c-0.3-0.8-0.7-1.8-1-2.7l-0.5-1.3l-0.2,0.3l-0.2,0.7c-0.2,0.3-0.5,0.8-0.7,1.3c-0.3,0.8-0.7,1.8-1,2.7
			c-0.7,2-1.3,3.8-2,5.8c-2.3,7.8-4.3,16.2-6.2,24.7c-0.7,3.7-1.5,7.5-2.2,11.3C855.6,210.4,863.6,210.2,871.3,209.1z"/>
	</g>
	<g>
		<path d="M772.8,462.3c-0.7-2.5-1.4-4.8-1.8-7c-6.5-30-12.9-59.9-19.4-89.8c14-5.3,20.3-14.7,17.8-26.4
			c-2.5-11.5-12.4-17.9-26.8-16.6c-2.2-8.9-4.5-18-6.8-27c0.6-0.5,1.2-1,1.8-1.5c8.1,5.5,16.3,11,24.3,16.7c1,0.7,1.1,2.9,1.3,4.5
			c0.9,8.2,5.6,13.6,12.7,17.1c5.7,2.8,11.2,4.3,15-3.7c30.1,18.8,59.8,37.3,89.4,55.8C867.9,426.1,830.1,462.4,772.8,462.3z
			 M788.8,427.5c0.8,1.7,1.7,3.4,2.9,5.9c2.5-15.3-15.3-30.4-26.4-27.6c4.8,2.8,9.8,5.7,14.8,8.6c-4.8-1.8-9.6-3.6-14.4-5.4
			c-0.4,0.7-0.9,1.3-1.3,2c11.6,3.5,20.6,9.6,22.2,23c0.6-0.4,1.1-0.7,1.7-1.1C788.4,431.1,788.6,429.3,788.8,427.5z M849.7,372.8
			c-9.3-7.2-20.9-6.4-28.7,1.9c-7.6,8.1-7.8,19.4-0.5,28.3c5.3,7.1,12.4,9.3,20.8,7.4c9.1-2,14.7-8,16.5-16.9
			C859.4,385.3,857,377.9,849.7,372.8z M817.2,434.5c-0.2,0.9-0.4,1.7-0.7,2.6c3.7,0.9,7.8,3.4,10.8,2.4c3.7-1.2,7.9-4.8,9.1-8.3
			c1.1-3.2-1.4-7.6-2.3-11.5c-0.7,0.1-1.5,0.2-2.2,0.3c-1.2,1.6-2.5,3.2-3.9,5c-4.5-6.5-7.6-1.6-11.8,0.9c2.4,2,4.3,3.5,6.8,5.5
			C820.7,432.6,819,433.5,817.2,434.5z M765.7,376.6c0.4,0.6,0.8,1.2,1.2,1.8c2.2,0.4,4.4,0.8,6.6,1.3c-0.6,2.4-1.2,4.6-1.9,7.4
			c2.3,0.8,4.3,1.6,6.6,2.4c1.1-2.9,2-5.3,3-8c2.1,1.5,3.9,2.7,5.7,3.9c0.7-0.2,1.4-0.3,2-0.5c-0.4-3.3,0.4-8-1.4-9.7
			c-3.3-3-8.2-5.6-12.5-5.6C772,369.7,768.9,374.2,765.7,376.6z M781,345c-0.9,0.8-4.1,2.1-4.7,4.2c-1.3,3.9,5.6,10.3,11.2,10.3
			c2.3,0,6-1.9,6.7-3.9C795.6,351.8,788.8,345.9,781,345z M802.1,362.6c-1.4,15.8-6.7,31.5,6.9,44.1c0.2-3.6-0.1-7.3-1.8-10.2
			c-3.6-6.2-4.8-12.1-2.3-19.2C806.4,372.7,807.2,367.3,802.1,362.6z M803.6,439c-5.1,4.1-8.8,7-12.5,9.9c1.5,1.6,2.8,4.1,4.6,4.5
			c4.8,1.1,12-3.2,12-7C807.8,444.6,805.8,442.7,803.6,439z M763.9,414.8c9.7,3.9,12.7,11.7,12.2,22.9
			C782.7,427.6,775.4,415.6,763.9,414.8z"/>
		<path d="M776.6,480.5c-1-4.6-1.9-8.9-2.9-13.6c54.3-2.2,90.5-29.5,110.2-79.3c0.5-0.1,1-0.3,1.4-0.2c11.2,5.6,11.2,5.6,6.8,17.1
			C873,453.9,831.7,481.3,776.6,480.5z"/>
		<path d="M751.9,361.7c11.4-5,15.9-13.1,12.2-22.9c-1,0.3-2.1,0.4-3.2,0.8c-2.1,0.8-4.2,1.7-6.9,2.7c5.1,3.6,4.3,6.7,0.4,9.9
			c-9.9-3.9-8.1-11.6-6.9-21.5c3.6,3.2,6.1,5.3,9.2,8.1c1.1-0.5,3.8-1.8,6.9-3.3c-4.3-8.7-12.3-9.1-20.9-9.8
			c11-4.6,22.9,4,24.7,14.3C769.3,350.8,762.8,360.4,751.9,361.7z"/>
		<path d="M771.6,316.6c6.2,3.9,11.1,6.9,16,10C780.5,332.1,776.1,329.6,771.6,316.6z"/>
		<path d="M821.3,402.3c-6.6-12.7-4.9-23.3,5-29.3c7.6-4.7,15.2-3.1,22.6,0.6c9.4,10.5,9.9,22.2,1.4,30.2
			C842.5,411,832.2,410.5,821.3,402.3z M841.4,386.9c2.4-2.7,4.7-5.3,7.1-8c-9.5-8.3-21.2-6-25.4,4.8c2.3,0.9,4.5,1.8,7.6,3.1
			c-1.7-7.4,3.4-7.5,7.3-6.8C839.5,380.2,840.4,384.5,841.4,386.9c4.7,1.2,7.7,3.7,5,8.5c-1,1.8-4.5,2.2-8,3.8
			c0.1,0.7,0.4,3.3,0.7,6c12.3-3.1,16.8-12.2,11.3-21.1C847.4,385,844.4,385.9,841.4,386.9z M836.8,400c-3.7-1.1-7.1-1.1-8.2-2.8
			c-1.4-2-0.8-5.3-1.2-8.8c-1.1-0.1-3.5-0.4-8.6-0.9c3.5,6.3,5.7,11.2,8.8,15.4c1.2,1.6,4.8,2.8,6.7,2.3
			C835.7,404.8,836.2,401.3,836.8,400z"/>
	</g>
	<g>
		<path d="M838.2,664c-2.5-0.9-4.7-1.6-6.8-2.5c-28.2-11.9-56.5-23.9-84.6-35.8c3.8-14.5-0.4-25.1-11.3-29.8
			c-10.8-4.6-21.7-0.1-29,12.4c-8.6-3.3-17.3-6.6-26-10c-0.1-0.8-0.1-1.5-0.2-2.3c9.2-3.5,18.3-7,27.6-10.2c1.2-0.4,3,0.8,4.4,1.6
			c7.2,3.9,14.3,3.2,21.3-0.6c5.6-3.1,9.9-6.7,5.6-14.4c32.7-13.8,64.9-27.5,97.1-41C863.3,565.4,871.3,617.3,838.2,664z M819,631
			c1.9,0.3,3.8,0.6,6.4,1c-11.1-10.9-33.7-5-37.8,5.7c5-2.3,10.3-4.7,15.5-7.2c-4.2,2.9-8.5,5.7-12.7,8.6c0.3,0.7,0.6,1.5,0.9,2.2
			c9.6-7.5,19.7-11.3,31.6-4.9c0-0.7,0-1.3,0-2C821.7,633.3,820.3,632.1,819,631z M809.3,549.7c-11.2,3.5-17.3,13.4-15,24.5
			c2.2,10.9,11.4,17.5,22.8,16.7c8.8-0.3,14.8-4.8,18.1-12.8c3.5-8.6,1.9-16.7-4.4-23.2C825,548.9,817.7,546.6,809.3,549.7z
			 M841,611.7c0.6,0.7,1.1,1.3,1.7,2c2.9-2.5,7.3-4.4,8.2-7.5c1.1-3.7,0.6-9.2-1.6-12.2c-1.9-2.7-7.1-3.2-10.8-4.7
			c-0.3,0.7-0.7,1.3-1,2c0.6,1.9,1.2,3.8,1.8,6.1c-7.9-0.1-5.7,5.3-6,10.2c3-0.9,5.4-1.5,8.4-2.4C841.5,607.8,841.3,609.7,841,611.7
			z M764.1,620.6c0.7,0,1.5,0,2.2,0.1c1.6-1.6,3.2-3.1,4.8-4.7c1.6,1.9,3.1,3.7,4.9,5.8c2-1.4,3.8-2.6,5.8-4
			c-1.8-2.6-3.2-4.7-4.8-7.1c2.4-0.9,4.5-1.7,6.5-2.4c0.3-0.7,0.5-1.3,0.8-2c-2.9-1.6-6.3-5-8.8-4.4c-4.3,1-9.3,3.5-11.8,7
			C762,611.4,763.9,616.6,764.1,620.6z M747,589.9c0.1,1.2-0.6,4.5,0.7,6.3c2.4,3.2,11.7,1.3,14.9-3.2c1.3-1.9,1.9-6,0.7-7.7
			C761,581.8,752.2,584,747,589.9z M773.5,582.7c12.1,10.3,21.9,23.6,40,19.8c-2.8-2.3-6-4.1-9.4-4.4c-7.2-0.6-12.7-3-17-9.2
			C784.3,585,780.3,581.3,773.5,582.7z M836.9,625.4c0.4,6.5,0.7,11.2,0.9,15.9c2.2-0.3,5,0.1,6.3-1.2c3.7-3.3,4.3-11.6,1.2-13.9
			C843.9,625.2,841.2,625.8,836.9,625.4z M794.3,644c8.7-5.7,16.8-3.6,25.7,3.2C815.5,636,801.5,635,794.3,644z"/>
		<path d="M855.3,671.4c-4.3-1.9-8.3-3.6-12.8-5.5c29.5-45.7,27.9-90.9-1.5-135.7c0.2-0.4,0.3-1,0.7-1.2c11-6,11-6,17.9,4.3
			C889.1,577.3,887.7,626.8,855.3,671.4z"/>
		<path d="M744,623.3c2.5-12.2-1.5-20.5-11.7-23.2c-0.4,1-0.9,2-1.2,3.1c-0.6,2.2-1.1,4.4-1.7,7.2c5.9-2.1,7.9,0.3,8.3,5.3
			c-8.9,5.8-14.2-0.1-21.6-6.7c4.7-1.1,7.8-1.9,11.9-2.9c0.2-1.2,0.7-4.1,1.2-7.5c-9.6-1.5-14.5,4.9-20.1,11.4
			c2.5-11.6,16.5-16.4,25.9-11.9C745,602.8,749.1,613.6,744,623.3z"/>
		<path d="M718.4,581.2c6.7-2.9,12-5.1,17.4-7.4C736.1,582.8,731.6,585,718.4,581.2z"/>
		<path d="M817.1,589.8c-14.2-1.9-21.8-9.4-21.1-21c0.6-8.9,6.1-14.2,13.5-18.1c14-1.6,23.8,4.7,25.5,16.2
			C836.4,577.6,830.1,585.7,817.1,589.8z M816,564.5c-0.8-3.5-1.7-6.9-2.5-10.4c-12.3,3-17.1,13.8-10.7,23.6
			c2.1-1.3,4.1-2.7,6.9-4.5c-7-2.9-4.2-7-1.4-9.9C809.4,562.2,813.4,564,816,564.5c3.6-3.1,7.5-4.2,9.8,0.8c0.9,1.9-0.8,5-1.5,8.7
			c0.6,0.4,2.9,1.6,5.3,2.9c4.5-11.9-0.3-20.7-10.8-21.4C817.9,558.5,817,561.5,816,564.5z M824.1,575.9c-3,2.4-5,5.1-7,5.1
			c-2.4,0-4.8-2.4-7.9-4.1c-0.8,0.9-2.3,2.7-5.7,6.5c7.2,0.8,12.5,1.8,17.7,1.7c2,0,5.1-2.3,5.7-4.1
			C827.4,579.5,824.8,577.1,824.1,575.9z"/>
	</g>
	<g>
		<path d="M247.2,531.3c32.1,13.6,64.4,27.2,97.1,41c-4.3,7.7,0.1,11.3,5.6,14.4c7,3.8,14.1,4.5,21.3,0.6c1.4-0.7,3.2-2,4.4-1.6
			c9.3,3.2,18.4,6.8,27.6,10.2c-0.1,0.8-0.1,1.5-0.2,2.3c-8.7,3.3-17.4,6.7-26,10c-7.3-12.5-18.2-17-29-12.4
			c-11,4.7-15.1,15.3-11.3,29.8c-28.2,11.9-56.4,23.9-84.6,35.8c-2.1,0.9-4.3,1.6-6.8,2.5C212.2,617.3,220.2,565.4,247.2,531.3z
			 M260.5,634.5c0,0.7,0,1.3,0,2c11.9-6.4,22.1-2.5,31.6,4.9c0.3-0.7,0.6-1.5,0.9-2.2c-4.2-2.9-8.5-5.7-12.7-8.6
			c5.3,2.4,10.5,4.8,15.5,7.2c-4.1-10.8-26.7-16.6-37.8-5.7c2.7-0.4,4.6-0.7,6.4-1C263.2,632.1,261.8,633.3,260.5,634.5z M252.6,555
			c-6.3,6.5-7.9,14.6-4.4,23.2c3.3,8,9.2,12.5,18.1,12.8c11.4,0.9,20.6-5.8,22.8-16.7c2.3-11.2-3.7-21.1-15-24.5
			C265.8,546.6,258.5,548.9,252.6,555z M241.7,605.1c3,0.9,5.4,1.5,8.4,2.4c-0.3-4.8,1.9-10.3-6-10.2c0.7-2.2,1.3-4.2,1.8-6.1
			c-0.3-0.7-0.7-1.3-1-2c-3.7,1.5-8.8,2-10.8,4.7c-2.2,3.1-2.7,8.5-1.6,12.2c0.9,3,5.3,5,8.2,7.5c0.6-0.7,1.1-1.3,1.7-2
			C242.2,609.7,242,607.8,241.7,605.1z M319.7,608.9c-2.4-3.5-7.4-6-11.8-7c-2.5-0.6-5.8,2.8-8.8,4.4c0.3,0.7,0.5,1.3,0.8,2
			c2,0.8,4.1,1.5,6.5,2.4c-1.7,2.5-3.1,4.5-4.8,7.1c2,1.4,3.8,2.6,5.8,4c1.8-2.1,3.3-3.9,4.9-5.8c1.6,1.6,3.2,3.1,4.8,4.7
			c0.7,0,1.5,0,2.2-0.1C319.6,616.6,321.5,611.4,319.7,608.9z M320.2,585.2c-1.2,1.7-0.6,5.8,0.7,7.7c3.2,4.6,12.5,6.5,14.9,3.2
			c1.3-1.8,0.6-5.1,0.7-6.3C331.3,584,322.5,581.8,320.2,585.2z M296.4,589c-4.3,6.1-9.9,8.5-17,9.2c-3.4,0.3-6.6,2.1-9.4,4.4
			c18.1,3.8,27.9-9.5,40-19.8C303.2,581.3,299.2,585,296.4,589z M238.2,626.3c-3.1,2.3-2.5,10.6,1.2,13.9c1.4,1.2,4.2,0.8,6.3,1.2
			c0.3-4.7,0.5-9.4,0.9-15.9C242.3,625.8,239.6,625.2,238.2,626.3z M263.5,647.2c8.9-6.8,17-8.9,25.7-3.2
			C282,635,268,636,263.5,647.2z"/>
		<path d="M228.2,671.4c4.3-1.9,8.3-3.6,12.8-5.5c-29.5-45.7-27.9-90.9,1.5-135.7c-0.2-0.4-0.3-1-0.7-1.2c-11-6-11-6-17.9,4.3
			C194.4,577.3,195.8,626.8,228.2,671.4z"/>
		<path d="M339.5,623.3c-2.5-12.2,1.5-20.5,11.7-23.2c0.4,1,0.9,2,1.2,3.1c0.6,2.2,1.1,4.4,1.7,7.2c-5.9-2.1-7.9,0.3-8.3,5.3
			c8.9,5.8,14.2-0.1,21.6-6.7c-4.7-1.1-7.8-1.9-11.9-2.9c-0.2-1.2-0.7-4.1-1.2-7.5c9.6-1.5,14.5,4.9,20.1,11.4
			c-2.5-11.6-16.5-16.4-25.9-11.9C338.5,602.8,334.4,613.6,339.5,623.3z"/>
		<path d="M365.1,581.2c-6.7-2.9-12-5.1-17.4-7.4C347.4,582.8,351.9,585,365.1,581.2z"/>
		<path d="M248.6,567c1.6-11.6,11.5-17.8,25.5-16.2c7.3,3.9,12.9,9.2,13.5,18.1c0.7,11.5-6.9,19-21.1,21
			C253.4,585.7,247.1,577.6,248.6,567z M264.6,555.5c-10.5,0.7-15.3,9.5-10.8,21.4c2.4-1.3,4.7-2.5,5.3-2.9
			c-0.7-3.7-2.3-6.8-1.5-8.7c2.3-5,6.1-3.9,9.7-0.8c2.7-0.5,6.7-2.3,7.7-1.2c2.8,2.8,5.7,7-1.4,9.9c2.8,1.8,4.9,3.2,6.9,4.5
			c6.4-9.7,1.5-20.5-10.7-23.6c-0.8,3.5-1.7,6.9-2.5,10.4C266.5,561.5,265.6,558.5,264.6,555.5z M256.6,581c0.7,1.9,3.7,4.1,5.7,4.1
			c5.2,0.1,10.5-0.9,17.7-1.7c-3.4-3.9-4.9-5.7-5.7-6.5c-3.1,1.7-5.5,4-7.9,4.1c-2,0-3.9-2.8-7-5.1
			C258.7,577.1,256.1,579.5,256.6,581z"/>
	</g>
	<g>
		<g>
			<path class="st0" d="M293.1,836c0.8-37.7,11.1-49,3.1-57.9c-3.1-3.3-2.3-8.9,2.1-11.5c4.7-3.1,4.9-7.4,4.9-12.2
				c0-28.4,0.4-31.9-1.2-38.5c-2.9-12.1,3.5-19.6,9.7-19.6c5.1,0,10.3,4.9,10.3,16.1c0.2,7,0.2,14,0.2,20.8
				c0,27.4-1.4,28.2,6.6,27.8c9.1-0.4,18.1-1,27.2-1.9c5.1-0.6,5.4-1.4,6.4-7.2c2.5-13.2,0.6-35.6,1.4-46.1
				c0.4-6.8,4.9-10.3,9.3-10.3c4.5,0,9.1,3.7,9.5,10.3c1,24.3-1.9,64.5-4.1,77.8c-3.3,18.7-0.4,44.1-2.5,51.7c-1.6,5.6-5.6,8-9.3,8
				c-4.5,0-8.6-3.5-8.9-9.7c0-11.1-0.6-29,0.6-39.9c1.4-11.3,2.7-14.6-7.8-14.6c-4.9,0-12.4,0.8-23.7,1.6c-6.4,0.6-7.4,1.4-8.6,7.6
				c-2.3,11.5-4.1,22.9-5.6,34.4c-0.2,2.7,0.2,4.9,1.9,7c4.9,6.2-0.8,18.7-8,21.6C300.3,853.7,292.7,849.8,293.1,836z"/>
			<path class="st0" d="M408.6,730.5c0.8-6.2,1-11.9-3.3-17.7c-5.1-7-0.4-15.2,8-15.6c5.6-0.4,10.9-0.2,16.5-0.2
				c2.7,0.4,5.1,0.6,7.6,0.6c8,0,15.9-1.9,23.9-1.4c13.8,0.4,17.5,13.8,12.4,19.6c-1.6,2.1-3.7,3.1-6,3.1c-1,0-2.5-0.2-3.7-1
				c-3.7-1.9-7.4-1.6-11.3-1.4c-20.2,0.2-23.9-1.2-24.3,4.1c-0.4,11.5-2.7,22.7-4.1,33.8c-0.8,6-0.4,6.4,5.8,6c9.5-0.4,15-1,18.9-1
				c3.7,0,6.4,0.4,9.5,2.1c10.9,5.6,6.6,20.2-4.1,18.5c-2.9-0.4-6-0.6-8.9-0.6c-6,0-11.7,0.6-17.5,1.2c-7.4,0.6-9.3,1.9-10.3,9.7
				c-5.6,42-2.9,43,5.6,43.5c14.2,1,24.1-7.8,26.4-9.1c1.6-0.8,3.3-1.2,4.9-1.2c8,0,12.8,11.1,5.4,17.3c-9.3,7-20.6,11.7-32.3,11.7
				c-4.1,0-8.6-0.4-13-1.4C387.8,844.8,394.2,823.6,408.6,730.5z"/>
			<path class="st0" d="M493.7,844.4c-4.9,0-9.7-4.1-9.3-11.1c0.4-4.3,5.4-25.7,6.4-30.3c0.8-3.5,1.6-7,0.6-10.7
				c-1-3.5,0.2-6.4,2.3-9.1c7.4-9.5-3.3-9.1,28.8-68.6c2.9-5.1,5.6-10.3,9.9-14.4c3.3-3.3,6.8-4.9,10.1-4.9c4.5,0,8.6,3.1,11.3,8.9
				c6.4,14.2,9.9,29.2,10.9,44.9c1.9,25.3,0.2,10.3,0.2,75c0.2,4.7,0.4,9.3,3.5,13.2c3.9,5.1,3.3,10.1-1.2,13.6
				c-2.1,1.6-3.9,2.3-6,2.3c-6.8,0-13-8.9-13-19.4c0-43.2,1.9-41.6-7.6-41.2c-8.2,0.4-16.3,1.2-24.3,3.3c-3.5,1-5.8,2.9-6.4,6.8
				c-1.4,8.9-4.7,17.1-4.3,26.2c0.2,3.7-1.2,7.2-3.3,10.5C500.1,842.8,497,844.4,493.7,844.4z M520.7,775.4
				c29.4-2.3,27.2-2.3,27.6-9.3c0.4-14.6-2.1-28.8-6.4-42.6c-0.2-0.6-0.8-1.2-1-1.6c-1.4,0-1.9,0.8-2.5,1.6
				c-9.3,16.9-15.9,29.2-21,47.6C516.3,774.8,517.2,775.8,520.7,775.4z"/>
			<path class="st0" d="M593.2,788.8c5.8-2.3,8.6-4.5,9.5-70.2c0.2-14.2,7.4-11.3,18.5-15.2c5.4-1.9,10.7-2.7,15.7-2.7
				c35.2,0,61.8,41,34.2,66.3c-12.2,11.1-25.3,20.6-39.7,28.2c-1.9,0.8-4.1,1.4-6,4.5c12.6,4.3,23.7,11.1,36.2,14.4
				c1.6,0.4,3.3,0.6,4.7,1.4c9.9,4.3,6.2,17.3-3.9,16.5c-14-0.8-38.7-15.9-45.5-15.9c-2.1,0-2.7,1.2-1.2,4.1
				c4.1,8.9-1.2,29-11.1,27.4c-4.1-0.8-7.2-3.9-7.4-8.6c-1.2-19.8,2.3-29.4-5.1-34.2C584.5,800.3,585.3,792.3,593.2,788.8z
				 M617.5,779.9c2.1-0.2,2.5,0,2.9-0.2c14.2-6.2,26.4-15.4,37.7-25.7c14.6-13.6-2.3-36.7-24.7-34c-3.1,0.4-5.6,1.2-6,4.7
				c-0.8,7.4-4.9,4.7-5.8,12.8C620.1,751.5,620.5,765.5,617.5,779.9z"/>
			<path class="st0" d="M688.7,700c1.6-0.6,2.9-0.8,4.1-0.8c4.1,0,6.8,2.7,19.4,2.3c16.1-0.6,31.9,0.6,48-1c8.2-0.6,16.3,1,24.1,3.3
				c6.4,1.9,11.9,6,10.1,12.6c-1,4.1-4.9,6.8-9.7,6c-6.2-1-12.2-2.1-18.3-2.5c-6.6-0.4-13.4,0.6-20,0.6c-3.3,0-4.9,1.6-4.7,5.1
				c1.4,15-0.6,75-5.6,101.1c-1.2,6.4,0,10.3-1,14.4c-1.2,5.4-5.1,8-9.1,8c-4.3,0-8.9-3.5-8.6-9.9c0-5.6,0.6-11.1,1.4-16.5
				c3.7-22,4.1-44.3,4.3-66.5c0-37.7,1.9-35.6-8.6-35.8c-16.3-0.2-21.4,0.8-25.7-0.8C678.4,716.1,679.2,703.3,688.7,700z"/>
		</g>
	</g>
	<g>
		<g>
			<path d="M845.4,706.9c-7.9,4.1-16.3,6.3-24.5,9.5c-1.9,0.9-4.8-1.7-3.2-3.5c5.3-5.8,10.7-10.3,17.2-13.7
				c6.5-3.5,13.8-8.9,20.8-7.6c2,0.4,3.4,2.3,2.6,4.3C856.9,701.9,851,704.2,845.4,706.9z"/>
			<path d="M822.2,742.1c14.6-1.6,28.5-5.8,43.4-6.9c13.7-0.9,28.7-2.4,42.4,0.9c2.4,0.9,2.8,5.6,0.1,6.4c-12.6,4.5-27,4.8-40.3,5.8
				c-15.8,1.3-30.1-1.2-45.6-1.9C819.7,746.3,819.7,742,822.2,742.1z"/>
			<path d="M850.8,781.9c1.3,7-10.4,1.5-12.7,0.2c-5.5-2.3-11.1-6.2-17-6.5c-2.5-0.4-2.4-3-1-4c5.2-2.9,11.6-0.9,16.7,0.9
				C840.9,774.2,850.5,776.8,850.8,781.9z"/>
			<path d="M872.3,787c2,0.8,4.1,0.7,6.1,1.5c1.6,0.7,4.5,0.8,5.4,3.1c0.2,1.3,0,2.5-1,3.2c-2,1.7-4.8,0.8-6.8,0
				c-2.4-0.9-3.9-2-5.7-3.6C868.8,789.8,870.2,786.7,872.3,787z"/>
			<path d="M819.8,806.6c4.2,2.4,8.4,4.9,12.6,7.3c0.9-0.3,2,0.4,2.8,0.9c10.9,7.5,23.5,14.4,32.4,23.6c1.7,2-0.1,5-2.5,4.6
				c-12.4-1.4-24.5-9.1-34.6-16.4c-0.8-0.1-2-0.8-3-2.2c-3.8-4.5-8.1-8.6-11.4-13.9C814,808.1,816.7,804.8,819.8,806.6z"/>
		</g>
		<g>
			<path d="M234.6,706.9c7.9,4.1,16.3,6.3,24.5,9.5c1.9,0.9,4.8-1.7,3.2-3.5c-5.3-5.8-10.7-10.3-17.2-13.7
				c-6.5-3.5-13.8-8.9-20.8-7.6c-2,0.4-3.4,2.3-2.6,4.3C223.1,701.9,229,704.2,234.6,706.9z"/>
			<path d="M257.8,742.1c-14.6-1.6-28.5-5.8-43.4-6.9c-13.7-0.9-28.7-2.4-42.4,0.9c-2.4,0.9-2.8,5.6-0.1,6.4
				c12.6,4.5,27,4.8,40.3,5.8c15.8,1.3,30.1-1.2,45.6-1.9C260.3,746.3,260.3,742,257.8,742.1z"/>
			<path d="M229.2,781.9c-1.3,7,10.4,1.5,12.7,0.2c5.5-2.3,11.1-6.2,17-6.5c2.5-0.4,2.4-3,1-4c-5.2-2.9-11.6-0.9-16.7,0.9
				C239.1,774.2,229.5,776.8,229.2,781.9z"/>
			<path d="M207.7,787c-2,0.8-4.1,0.7-6.1,1.5c-1.6,0.7-4.5,0.8-5.4,3.1c-0.2,1.3,0,2.5,1,3.2c2,1.7,4.8,0.8,6.8,0
				c2.4-0.9,3.9-2,5.7-3.6C211.2,789.8,209.8,786.7,207.7,787z"/>
			<path d="M260.2,806.6c-4.2,2.4-8.4,4.9-12.6,7.3c-0.9-0.3-2,0.4-2.8,0.9c-10.9,7.5-23.5,14.4-32.4,23.6c-1.7,2,0.1,5,2.5,4.6
				c12.4-1.4,24.5-9.1,34.6-16.4c0.8-0.1,2-0.8,3-2.2c3.8-4.5,8.1-8.6,11.4-13.9C266,808.1,263.3,804.8,260.2,806.6z"/>
		</g>
	</g>
	<g>
		<path d="M471.6,896.4c2.6,6,4.9,11.4,7.6,17.6c-2.6,0.1-4.7,0.2-6.8,0.2c-37.2,0-74.4,0-111.6-0.3c-4.5,0-7.7,0.9-10.2,4.9
			c-3.1,4.8-7,9.1-10.2,14c-3.1,4.7-7.3,6.7-12.6,6.9c-5.8,0.3-11.5,0.7-17.3,0.8c-16.2,0.1-32.3,1-48.5-0.4
			c-10.2-0.9-20.4-1.5-30.7-1.2c-6.4,0.1-10.1-5.4-6.1-10.8c3.5-4.8,7.5-9.2,11.8-13.3c4.3-4,9.3-7.4,14.4-11.4
			c-1.9-1.7-3.8-3.3-5.6-5c-6.7-6.7-13.5-13.4-20.2-20.1c-0.9-0.9-1.8-1.9-2.5-3c-3.7-5.1-1.8-9.4,4.6-10.1c0.9-0.1,1.9-0.1,2.8-0.1
			c31.2,0.8,62.5,1.7,93.7,2.2c7,0.1,12.1,2.9,16.2,8.2c4.5,5.7,9.2,11.2,13.4,17.1c2,2.8,4.1,3.6,7.4,3.6c32.9,0,65.9,0.1,98.8,0.2
			C463.8,896.4,467.6,896.4,471.6,896.4z M271.6,876.9c5.8,6.3,11,12.3,16.5,17.9c1,1,3.1,1.1,4.6,1.2c5.9,0.1,11.9,0.1,17.8,0
			c1,0,1.9-0.4,3.3-0.6c-5.6-6-10.7-11.6-16-17.1c-0.8-0.8-2.3-1.3-3.4-1.3C286.9,876.9,279.3,876.9,271.6,876.9z M240.7,928.2
			c0.2,0.5,0.4,1.1,0.6,1.6c9.8,0.2,19.5,0.3,29.3,0.4c0.8,0,2.1-0.4,2.4-1c2.5-4.6,5.1-9.2,6.8-15.3c-7.5,0-14,0-20.5,0
			c-1.1,0-2.4,0.2-3.1,0.8C251.1,919.2,245.9,923.7,240.7,928.2z M308.1,877.1c5.9,6.3,11.2,12.1,16.7,17.8c0.5,0.5,1.3,1,1.9,1
			c5.8,0.1,11.6,0.6,18.1-0.4c-4.9-6.8-10.3-12.1-15.9-17.2c-0.6-0.6-1.6-1.2-2.4-1.2C320.7,877.1,314.8,877.1,308.1,877.1z
			 M290.2,914.1c-2.2,5.1-4.4,10.1-6.7,15.5c7.7,0,14.8,0,21.7,0c2.2-5.3,4.3-10.2,6.5-15.5C304.1,914.1,297.3,914.1,290.2,914.1z
			 M241.4,877.1c6.1,6.1,11.2,11.4,16.5,16.7c0.5,0.5,1.2,1.1,1.8,1.2c5.2,0.5,10.5,0.9,16.8,1.4c-1.2-1.7-1.5-2.3-1.9-2.8
			c-5-5-10-9.9-15.1-14.8c-0.8-0.7-1.8-1.6-2.8-1.6C252,877,247.2,877.1,241.4,877.1z M313.5,929.7c4.8,0,8.5,0,12.2,0
			c1.1,0,2.2,0.1,3.3-0.1c0.9-0.2,1.8-0.5,2.5-1c1.4-1.1,7.3-12,7.8-14.6c-4.9,0-9.7-0.1-14.5,0.1c-1.3,0.1-3.1,0.7-3.7,1.7
			C318.5,920,316.3,924.5,313.5,929.7z"/>
		<path d="M783.7,913.9c-76.5,0.1-151.7,1.5-228,0.5c2.6-3.7,5-6.5,6.5-9.7c3.1-6.7,7.9-8.3,15.1-8.2c66.8,0.8,133.7,1.3,200.5,1.8
			c2.1,0,4.3,0,7.8,0c-2.3-2.4-3.7-3.8-5-5.3c-3.4-3.9-6.9-7.8-10.2-11.8c-1.5-1.9-2.9-4.1-1.4-6.6c1.6-2.8,4.5-2.6,7-2
			c5.7,1.5,11.5,3,17,5.2c11.9,4.8,23.7,9.9,35.5,14.9c8,3.4,16,6.9,24,10.5c3,1.4,6.4,2.8,6.3,7c0,4.3-3.2,6.2-6.6,7.5
			c-9.2,3.5-18.4,7.1-27.9,9.8c-13.2,3.8-26.7,6.9-40,10.2c-2.2,0.5-4.4,0.9-6.6,1c-5.6,0-8.2-4.1-5.4-9c2-3.5,4.7-6.7,7.1-10
			C780.6,918.1,781.8,916.5,783.7,913.9z M787.2,925.1c10.3,0.1,54.1-12.9,58.7-16.5c-20.3-8.2-40.3-16.3-60.3-24.4
			c4.4,5.5,9.2,10.4,14,15.3c4.6,4.7,4.3,8.6-0.6,13.2C794.8,916.5,791.1,920.9,787.2,925.1z"/>
		<path d="M516.5,878.8c3.8-4.4,6.9-8.3,10.3-11.9c6.1-6.4,13.7-8.6,22.4-7.6c5,0.6,8.7,3.3,11,7.6c3.3,5.9,4.5,12.2,2.5,18.8
			c-0.8,2.8-1.8,5.7-3.1,8.4c-7.2,15.3-17.9,28.2-29.4,40.4c-7.5,7.9-8.6,7.7-17.1,0.6c-7.2-5.9-14.1-12.1-20.7-18.6
			c-7.2-7-11.9-15.7-14.2-25.5c-1.8-7.5-1.4-14.8,2.6-21.6c5.2-9,14.6-11,22.7-4.4c3.6,2.9,6.5,6.6,9.7,10
			C514.4,876.1,515.3,877.4,516.5,878.8z"/>
	</g>
</g>
</svg>
