<?xml version="1.0" encoding="utf-8"?>
<!-- Generator: Adobe Illustrator 22.0.0, SVG Export Plug-In . SVG Version: 6.00 Build 0)  -->
<svg version="1.1" id="Layer_1" xmlns="http://www.w3.org/2000/svg" xmlns:xlink="http://www.w3.org/1999/xlink" x="0px" y="0px"
	 viewBox="0 0 500 500" style="enable-background:new 0 0 500 500;" xml:space="preserve">
<style type="text/css">
	.st0{fill:#024D84;}
	.st1{fill:#CA0C32;}
</style>
<g>
	<g>
		<path class="st0" d="M87.4,316c-0.9-1.3-1.9-2.4-2.6-3.7c-0.3-0.6-0.1-1.6,0.2-2.2c8.3-14.1,18-27.3,28.7-39.6
			c2.2-2.5,5.2-2.6,8-0.2c2.7,2.3,3.1,5.2,1.1,7.7C112.4,291.8,100.8,304.5,87.4,316z"/>
		<path d="M58.7,341.7c3.1,0.1,5.4,2.1,5.1,4.3c-0.1,0.8-1.2,2.1-1.9,2.1c-1.8,0.2-5.4-3.1-4.9-4.5
			C57.1,342.7,58.3,342.1,58.7,341.7z"/>
		<path d="M70.6,328.9c0.9-1.9,2.2-1.2,3.4-0.2c1.2,1,1.8,2.2,0.2,3.3C73,331,71.8,330,70.6,328.9z"/>
		<path d="M76.4,321.9c0.7-1.9,2-1.4,3.3-0.4c1.4,1.1,1.8,2.2,0.3,3.3C78.7,323.8,77.6,322.9,76.4,321.9z"/>
		<path d="M78.2,327.2c-1.4-1.1-2.6-1.9-3.8-2.8c0.6-1.8,1.9-1.6,3.3-0.5C79,324.9,79.8,326.1,78.2,327.2z"/>
		<path d="M76.3,329.8c-1.4-1.2-2.6-2.1-4-3.3c0.6-0.3,1.4-1.2,1.9-1c1,0.4,2,1.2,2.6,2.1C77.1,328,76.5,329.1,76.3,329.8z"/>
		<path d="M68.6,331.3c0.9-1.8,2.2-1.3,3.4-0.2c1.3,1.1,1.6,2.3,0.1,3.2C71,333.4,69.9,332.4,68.6,331.3z"/>
		<path d="M66.6,333.7c0.6-1.7,1.9-1.4,3.1-0.4c1.2,1,2.2,2.1,0.5,3.4C69.1,335.8,68,334.8,66.6,333.7z"/>
		<path d="M62.8,338.5c0.7-1.7,1.9-1.4,3.2-0.4c1.3,1,2,2.2,0.4,3.5C65.2,340.6,64.1,339.6,62.8,338.5z"/>
		<path d="M64.4,343.8c-1.3-1-2.4-1.9-3.6-2.9c0.7-1.7,1.9-1.4,3.1-0.5C65,341.3,66.2,342.3,64.4,343.8z"/>
		<g>
			<path class="st0" d="M85.1,314.7c-1.3,1-2.5,2-3.8,3c-11.1-10.4-22.4-21-32-33.3c-1.7-2.2-3.4-4.3-5.1-6.4
				c-1.8-2.2-1.8-3.9-0.2-6.3c2.7-3.9,6.8-4,9.9-0.6c12,13.3,21.6,28.3,31.2,43.4C85.1,314.7,85.1,314.8,85.1,314.7z"/>
			<path d="M103.3,346.7c0.1-3,2.2-5.1,4.4-4.8c0.9,0.1,2.3,1.1,2.5,2c0.4,1.4-3.3,4.6-5,4.4C104.4,348,103.7,347,103.3,346.7z"/>
			<path d="M104.4,338.5c-1.2,1-2.4,2-3.5,3c-1.6-1-1.2-2.2,0.1-3.3C102.2,337.1,103.5,336.7,104.4,338.5z"/>
			<path d="M90.8,321.9c-1.2,1-2.4,1.9-3.6,2.9c-1.7-1.1-1-2.3,0.3-3.3C88.7,320.4,90.1,320,90.8,321.9z"/>
			<path d="M93,324.1c-1.5,1.1-2.6,2.1-4.1,3.2c-0.2-0.6-0.8-1.7-0.5-2.1c0.6-0.9,1.6-1.7,2.6-2.1C91.4,322.9,92.3,323.8,93,324.1z"
				/>
			<path d="M94.7,326.6c-1.3,1.1-2.4,2-3.6,3c-1.6-1.1-1.1-2.3,0.3-3.4C92.6,325.2,93.9,324.9,94.7,326.6z"/>
			<path d="M96.6,329c-1.3,1.1-2.4,2-3.6,3c-1.4-0.8-1.3-2,0-3.1C94.2,327.8,95.5,326.9,96.6,329z"/>
			<path d="M98.6,331.3c-1.3,1.1-2.4,2-3.6,3c-1.5-1-1.1-2.2,0.2-3.2C96.4,330.1,97.6,329.5,98.6,331.3z"/>
			<path d="M96.9,336.7c-1.6-1-1-2.2,0.2-3.2c1.2-1,2.5-1.7,3.5,0.3C99.4,334.7,98.3,335.6,96.9,336.7z"/>
			<path d="M86.9,317.1c-1.3,1-2.4,2-3.7,2.9c-1.5-1-1.1-2.2,0.2-3.2C84.6,315.9,85.9,315.1,86.9,317.1z"/>
			<path d="M85.2,322.5c-1.5-1.1-1-2.3,0.3-3.3c1.2-1,2.5-1.5,3.4,0.3C87.7,320.4,86.5,321.4,85.2,322.5z"/>
			<path d="M102.8,335.9c-1.5,1.2-2.6,2-4,3.1c-0.2-0.5-0.9-1.5-0.6-1.9c0.6-0.9,1.5-1.7,2.5-2.2C101.1,334.8,102,335.6,102.8,335.9
				z"/>
			<path d="M102.7,343.8c-1.7-1.2-0.8-2.3,0.2-3.2c1.2-1,2.4-1.5,3.4,0.3C105.2,341.8,104,342.7,102.7,343.8z"/>
		</g>
		<path d="M68.5,339.4c-1.4-1.2-2.5-2.2-3.8-3.3c0.3-0.3,1.1-1.2,1.4-1.1c1.1,0.5,2.1,1.2,2.9,2.1C69.3,337.4,68.7,338.5,68.5,339.4
			z"/>
		<path d="M82.1,322.6c-1.3-1.1-2.4-2.1-3.7-3.2c0.4-0.3,1.3-1.2,1.4-1.1c1,0.7,1.9,1.5,2.6,2.5C82.7,321.2,82.2,322,82.1,322.6z"/>
	</g>
	<g>
		<path class="st0" d="M421.7,320.6c-0.9-1.3-1.9-2.4-2.6-3.7c-0.3-0.6-0.1-1.6,0.2-2.2c8.3-14.1,18-27.3,28.7-39.6
			c2.2-2.5,5.2-2.6,8-0.2c2.7,2.3,3.1,5.2,1.1,7.7C446.7,296.3,435,309,421.7,320.6z"/>
		<path d="M392.9,346.3c3.1,0.1,5.4,2.1,5.1,4.3c-0.1,0.8-1.2,2.1-1.9,2.1c-1.8,0.2-5.4-3.1-4.9-4.5
			C391.4,347.3,392.6,346.7,392.9,346.3z"/>
		<path d="M404.8,333.5c0.9-1.9,2.2-1.2,3.4-0.2c1.2,1,1.8,2.2,0.2,3.3C407.3,335.6,406.1,334.6,404.8,333.5z"/>
		<path d="M410.7,326.5c0.7-1.9,2-1.4,3.3-0.4c1.4,1.1,1.8,2.2,0.3,3.3C413,328.4,411.9,327.5,410.7,326.5z"/>
		<path d="M412.4,331.7c-1.4-1.1-2.6-1.9-3.8-2.8c0.6-1.8,1.9-1.6,3.3-0.5C413.3,329.5,414.1,330.7,412.4,331.7z"/>
		<path d="M410.6,334.4c-1.4-1.2-2.6-2.1-4-3.3c0.6-0.3,1.4-1.2,1.9-1c1,0.4,2,1.2,2.6,2.1C411.4,332.6,410.8,333.6,410.6,334.4z"/>
		<path d="M402.9,335.9c0.9-1.8,2.2-1.3,3.4-0.2c1.3,1.1,1.6,2.3,0.1,3.2C405.3,338,404.2,337,402.9,335.9z"/>
		<path d="M400.9,338.3c0.6-1.7,1.9-1.4,3.1-0.4c1.2,1,2.2,2.1,0.5,3.4C403.4,340.3,402.3,339.4,400.9,338.3z"/>
		<path d="M397.1,343.1c0.7-1.7,1.9-1.4,3.2-0.4c1.3,1,2,2.2,0.4,3.5C399.5,345.1,398.4,344.2,397.1,343.1z"/>
		<path d="M398.7,348.4c-1.3-1-2.4-1.9-3.6-2.9c0.7-1.7,1.9-1.4,3.1-0.5C399.3,345.8,400.5,346.9,398.7,348.4z"/>
		<g>
			<path class="st0" d="M419.4,319.3c-1.3,1-2.5,2-3.8,3c-11.1-10.4-22.4-21-32-33.3c-1.7-2.2-3.4-4.3-5.1-6.4
				c-1.8-2.2-1.8-3.9-0.2-6.3c2.7-3.9,6.8-4,9.9-0.6c12,13.3,21.6,28.3,31.2,43.4C419.4,319.2,419.4,319.4,419.4,319.3z"/>
			<path d="M437.6,351.2c0.1-3,2.2-5.1,4.4-4.8c0.9,0.1,2.3,1.1,2.5,2c0.4,1.4-3.3,4.6-5,4.4C438.7,352.6,438,351.6,437.6,351.2z"/>
			<path d="M438.7,343.1c-1.2,1-2.4,2-3.5,3c-1.6-1-1.2-2.2,0.1-3.3C436.5,341.7,437.8,341.3,438.7,343.1z"/>
			<path d="M425.3,326.6c-1.3,1-2.4,2-3.7,3c-1.8-1.1-1-2.4,0.3-3.4C423.2,325.1,424.6,324.7,425.3,326.6z"/>
			<path d="M427.5,328.9c-1.5,1.2-2.7,2.1-4.2,3.3c-0.2-0.7-0.8-1.7-0.5-2.1c0.6-0.9,1.6-1.8,2.6-2.2
				C426,327.7,426.9,328.5,427.5,328.9z"/>
			<path d="M429.3,331.5c-1.3,1.1-2.5,2.1-3.7,3.1c-1.7-1.1-1.1-2.3,0.3-3.4C427.2,330,428.5,329.7,429.3,331.5z"/>
			<path d="M431.2,333.9c-1.3,1.1-2.4,2-3.7,3.1c-1.5-0.8-1.3-2.1,0-3.2C428.8,332.7,430.1,331.8,431.2,333.9z"/>
			<path class="st0" d="M432.9,335.9c-1.3,1.1-2.4,2-3.6,3c-1.5-1-1.1-2.2,0.2-3.2C430.7,334.6,431.9,334.1,432.9,335.9z"/>
			<path d="M431.2,341.2c-1.6-1-1-2.2,0.2-3.2c1.2-1,2.5-1.7,3.5,0.3C433.7,339.3,432.6,340.2,431.2,341.2z"/>
			<path d="M421.3,321.7c-1.3,1.1-2.5,2-3.7,3c-1.6-1-1.1-2.2,0.2-3.3C418.9,320.4,420.3,319.7,421.3,321.7z"/>
			<path d="M419.5,327.2c-1.6-1.1-1-2.3,0.3-3.4c1.2-1.1,2.5-1.5,3.5,0.3C422.1,325.1,420.9,326.1,419.5,327.2z"/>
			<path d="M437,340.5c-1.5,1.2-2.6,2-4,3.1c-0.2-0.5-0.9-1.5-0.6-1.9c0.6-0.9,1.5-1.7,2.5-2.2C435.4,339.4,436.3,340.2,437,340.5z"
				/>
			<path d="M437,348.3c-1.7-1.2-0.8-2.3,0.2-3.2c1.2-1,2.4-1.5,3.4,0.3C439.5,346.4,438.3,347.3,437,348.3z"/>
		</g>
		<path d="M402.8,343.9c-1.4-1.2-2.5-2.2-3.8-3.3c0.3-0.3,1.1-1.2,1.4-1.1c1.1,0.5,2.1,1.2,2.9,2.1C403.6,342,403,343.1,402.8,343.9
			z"/>
		<path d="M416.4,327.2c-1.3-1.1-2.4-2.1-3.7-3.2c0.4-0.3,1.3-1.2,1.4-1.1c1,0.7,1.9,1.5,2.6,2.5
			C416.9,325.8,416.5,326.6,416.4,327.2z"/>
	</g>
	<g>
		<path d="M357.5,88.1c0-0.4-0.2-2.2,0.6-3.6c3.2-6,6.4-12,10-17.8c2.7-4.3,6.7-5.4,11.8-4.5c12,2,20.9,8.5,27.7,18.2
			c1,1.4,1.4,4.1,0.7,5.5c-2.9,6.1-6.4,12-9.5,18c-2.5,5.1-6.3,6.1-11.6,5C374.8,106.4,364.9,100.5,357.5,88.1z M375.1,66.7
			c-0.2,0.5-0.3,1.1-0.5,1.6c9.4,4.9,20.2,7.6,27.3,19c0.4-3,1.4-5.4,0.8-6c-6.8-5.8-14-11-22.6-13.8
			C378.6,66.9,376.8,66.9,375.1,66.7z"/>
		<path d="M363.9,62.2c-3.6,6.3-7,12.1-10.4,18.1C348.6,69.2,351.9,63.4,363.9,62.2z"/>
		<path d="M402.6,108.3c3.6-6.2,6.8-11.8,10.1-17.5C417.3,99,412.5,107.6,402.6,108.3z"/>
	</g>
	<g>
		<path d="M114.5,113.4c-5.3,1-9,0-11.6-5c-3.1-6.1-6.6-11.9-9.5-18c-0.7-1.4-0.2-4.1,0.7-5.5c6.8-9.7,15.7-16.2,27.7-18.2
			c5.1-0.8,9.2,0.2,11.8,4.5c3.6,5.8,6.8,11.8,10,17.8c0.7,1.4,0.5,3.2,0.6,3.6C136.8,105.1,126.9,111,114.5,113.4z M121.5,72
			c-8.6,2.8-15.8,8-22.6,13.8c-0.6,0.6,0.3,3,0.8,6c7.1-11.3,17.9-14.1,27.3-19c-0.2-0.5-0.3-1.1-0.5-1.6
			C124.9,71.5,123.1,71.5,121.5,72z"/>
		<path d="M137.8,66.8c3.6,6.3,7,12.1,10.4,18.1C153.1,73.8,149.8,68,137.8,66.8z"/>
		<path d="M99.1,112.9c-3.6-6.2-6.8-11.8-10.1-17.5C84.4,103.6,89.2,112.2,99.1,112.9z"/>
	</g>
	<g>
		<path class="st0" d="M48.2,457.2c-2.1-6.7-2.7-20-3.2-35.5c-0.2-8.6-0.3-17.7-0.3-26c0-6.7,0.2-12.8,0.3-17.4
			c0.3-10.3,1.1-13,2.5-15.8c1.4-2.9,3.2-5.7,7.8-6.7c0.8-0.2,1.7-0.3,2.7-0.3h1c4.1,0,8.9,1.1,11.9,3.8c4,3.5,4.8,9.3,5.7,27.3
			c0.6,9.2,1.1,21.2,1.1,33c0,11.3-0.5,22-2.1,29.5c4.8-0.2,9.5-0.2,13-0.2c7.1,0.2,11.1,0.5,12.8,2.9c0.8,1,1.1,2.4,1.1,3.6
			c0,1.9-0.6,3.8-1.6,5.1c-1.9,2.4-5.1,2.5-11.7,2.9c-5.2,0.3-13,0.5-19.8,0.5h-5.2c-1.7,0.3-3.5,0.3-5.1,0.3
			C53.6,463.8,50.3,463.8,48.2,457.2z"/>
		<path class="st0" d="M102.8,425.2c-0.3-4-0.5-8.2-0.5-12.8v-4.6c0.5-16.8,7.4-32.5,16.3-42.8c5.9-6.7,11.4-8.9,16.2-8.9
			c6.5,0,11.4,4,13.3,5.1c8.6,4.3,12.7,13.6,13.6,23.5c0.2,1.6,0.2,3.2,0.2,4.9c0,8.2-1.9,16.2-4.9,21.2
			c-5.1,8.2-14.3,11.3-20.9,13.5c-2.1,0.8-4.1,1.1-6,1.3c-0.3,1.7-0.5,3.5-0.5,5.1v1.6c0.8,7.4,6,13,9.8,13c6.2,0,9.7-13,18.1-13.5
			c1.6,0,2.4,1.6,2.7,4.1l0.2,1.7c0,9.5-7,26.9-21.9,26.9C118.3,464.5,105.4,451.6,102.8,425.2z M148.1,384.1v-1.3
			c-0.2-1.9-1-3.8-2.1-5.7c-1.4-1.9-2.7-2.7-3.8-2.7c-7.8,0-12.5,35-12.5,35S148.1,396.6,148.1,384.1z"/>
		<path class="st0" d="M215.4,452.9c-0.3-0.6-0.5-1.4-0.5-2.1c-4.6,7.4-10.1,10.5-17.1,10.5c-6.3,0-15.2-2.5-20.9-10.9
			c-3.8-5.5-6.5-13.8-6.5-22.2c0-12.8,6.5-25.7,14.9-31.9c4.1-3.2,8.6-4.3,12.7-4.3c7.8,0,13.5,3.2,16.6,7.1c-0.2-4,0.2-7.9-1-11.1
			c-2.5-6-8.7-7.9-14.3-7.9c-7.6,0-12.7,3.6-15.8,3.6c-3.2,0-5.7-3.8-5.7-9c0-9.3,10.5-17.4,27.9-17.4c15.7,0,31.4,10.6,33.8,30.1
			c0.3,2.5,0.5,11.9,0.5,22.8c0,15.7-0.5,34.4-1.6,40.4c-1.7,10.1-5.1,10.9-9.7,11.3l-2.7,0.2C221.9,462.1,217.7,460.7,215.4,452.9z
			 M204.5,441c3-3.5,5.5-10.8,6.2-17c0.2-1.6,0.3-3.2,0.3-4.6c0-4.1-1-7.4-2.5-9c-0.5-0.5-1.9-1.6-3.2-1.7h-0.8
			c-1.7,0-3,0.8-4.8,2.7c-2.9,3-5.2,8.1-6,13.9c-0.3,1.6-0.5,3.3-0.5,5.1c0,4.3,0.8,8.4,2.4,10.8c1.1,1.6,2.5,2.5,4.1,2.5
			C201.3,443.7,202.9,442.8,204.5,441z"/>
		<path class="st0" d="M256.2,458c-6.7-6-9.8-15.4-9.8-21.6c0.2-6.8,3-9.2,9.2-10.8c2.4-0.6,5.1-1.3,7.6-1.3c2.9,0,5.5,0.8,7.1,2.7
			c3,3.3,2.4,10.6,3.8,15.8c1.3,4.9,4.3,7.9,7.1,7.9c3.3-0.2,6.2-2.9,7.8-11.4c0.8-4.3,1.1-12.5,1.1-19c0-4-0.2-7.3-0.3-8.7
			c-4.1,7-9.7,10.1-16.2,10.1c-6.2,0-14.6-2.5-20.3-10.6c-3.5-5.4-6-13.5-6-21.6c0-12.5,6-24.7,14.1-30.7c4.1-3,8.2-4.1,12.2-4.1
			c7.9,0,13.5,3.3,16.8,7.9c1.4-5.9,5.5-7.6,11.1-7.6c6.2,0,10.3,1.4,11.6,13.2c1,4.4,1.4,15.5,1.4,27.6c0,29.2-1.7,49.6-9,59.6
			c-5.2,7-13.5,10.3-22.7,10.6C272.3,466.1,263.5,464.3,256.2,458z M286.1,388.7l0.2-3.5c0-7.3-2.5-13.3-6.8-13.3
			c-4.9,0-9.3,7.9-10.5,16.8l-0.2,3.5c0,7.4,2.5,13.5,7,13.5C280.7,405.7,285.2,397.8,286.1,388.7z"/>
		<path class="st0" d="M372.8,460.7c-2.4-2.1-3.2-5.4-3.6-8.6c-0.5-3.3-0.5-6.3-0.8-7c0-0.2,0-0.2-0.2-0.2s-1,1.6-3.8,4.4
			c-3.5,3.3-10.3,8.4-17.1,9h-1.1c-6.5,0-12.8-3.6-17.3-10.9c-4.8-7.6-7.3-19.3-7.9-35.3l-0.3-10.5c0-13.8,1.3-28.4,3.8-36.8
			c2.5-8.7,6.5-10.8,10.5-10.8c1,0,1.9,0,2.7,0.3c4.8,1,8.7,3.6,10,9.2c0.5,1.6,0.6,3.6,0.6,5.9c0,5.1-1,11.6-1.7,19.3
			c-0.8,7.3-1.3,15.8-1.3,23.6c0,4,0.2,7.9,0.5,11.3c1,10,3.5,16.3,7.8,18.1c0.8,0.3,1.7,0.5,2.9,0.5c3.6,0,7.8-2.2,10-4.6
			c1.7-2.1,2.2-4.1,2.2-7l-0.2-4.6c-0.5-5.4-0.8-12.8-1.4-23.8c-0.6-9.8-1.3-22.7-1.3-31.4v-2.4c0.3-8.6,1.9-11.6,6.8-13.2
			c1.6-0.5,3.6-0.8,5.7-0.8c4.1,0,8.7,1.4,11.3,5.7c3.5,5.4,3.6,15.8,3.6,29.8v21.6c0,13.9-0.2,28-1.4,36.9
			c-1.7,12-5.5,13.9-9.2,14.4c-0.8,0.2-1.7,0.2-2.5,0.2C377.1,463.2,374.5,462.4,372.8,460.7z"/>
		<path class="st0" d="M401,425.2c-0.3-4-0.5-8.2-0.5-12.8v-4.6c0.5-16.8,7.4-32.5,16.3-42.8c5.9-6.7,11.4-8.9,16.2-8.9
			c6.5,0,11.4,4,13.3,5.1c8.6,4.3,12.7,13.6,13.6,23.5c0.2,1.6,0.2,3.2,0.2,4.9c0,8.2-1.9,16.2-4.9,21.2
			c-5.1,8.2-14.3,11.3-20.9,13.5c-2.1,0.8-4.1,1.1-6,1.3c-0.3,1.7-0.5,3.5-0.5,5.1v1.6c0.8,7.4,6,13,9.8,13c6.2,0,9.7-13,18.1-13.5
			c1.6,0,2.4,1.6,2.7,4.1l0.2,1.7c0,9.5-7,26.9-21.9,26.9C416.6,464.5,403.7,451.6,401,425.2z M446.3,384.1v-1.3
			c-0.2-1.9-1-3.8-2.1-5.7c-1.4-1.9-2.7-2.7-3.8-2.7c-7.8,0-12.5,35-12.5,35S446.3,396.6,446.3,384.1z"/>
	</g>
	<g>
		<g>
			<path class="st1" d="M170.2,36.9c0,0.1,0,0.1,0.1,0.2c0,0.1,0,0.1,0.1,0.2c0,0.4-0.2,0.8-0.5,1.2l-5.4,5.3h-0.4V43L170.2,36.9z
				 M170.2,40.9v2.5l-6.1,6.1V47L170.2,40.9z M170.2,46.3v2.4l-6.1,6.1v-2.4L170.2,46.3z M170.2,51.8h0.6v2.1l-6.7,6.6v-2.4
				L170.2,51.8z M170.8,56.9v1.2c0,0.6,0,1,0,1.2c0,0.3-0.3,0.6-0.8,1.1c-0.2,0.2-0.6,0.5-1.1,1s-1.1,1-1.7,1.6
				c-0.6,0.6-1.1,1.1-1.6,1.6c-0.5,0.5-0.9,0.8-1,1V63L170.8,56.9z M170.8,62.5v2.4l-6.3,6.3v-2.5L170.8,62.5z M170.8,67.8v2.5
				l-6.3,6.1v-2.5L170.8,67.8z M170.8,73.5h0.3v2l-6.1,6.2h-0.5v-2.1L170.8,73.5z M170.8,103.6l-5.4,5.4l-0.9,0.4v-1
				c0-0.3,0-0.6,0-1c0-0.3,0.2-0.6,0.5-0.9l5.8-5.7V103.6z M170.8,106.5v2.5l-6.3,6.1v-2.5L170.8,106.5z M164.5,117.9l6.3-6.1h0.1
				h0.2c0,0.1,0.1,0.3,0.2,0.6c0.1,0.3,0.2,0.5,0.2,0.7v0.3v0.1l-6.5,6.6c-0.3-0.6-0.5-1.2-0.5-1.7V117.9z M171,78.4v1.2
				c0,0.4,0,0.7,0,1.1c0,0.3-0.1,0.7-0.3,1l-5.4,5.2h-0.4v-2.5L171,78.4z M171,84.2v2.4l-6.1,6.1v-2.4L171,84.2z M171,89.4v2.4
				l-6.1,6.1v-2.4L171,89.4z M171,95.1v1c0,0.4,0,0.7,0,1c0,0.3-0.1,0.6-0.3,0.8l-5.8,5.7v-2.4L171,95.1z M176,114.6l-6.1,6.2
				c-0.1,0-0.5,0-1,0.1c-0.6,0.1-1,0.2-1.4,0.3h-0.3h-0.2l6.2-6.1L176,114.6z M172.7,110.5c0.1-11.5,0.1-22.9-0.1-34.3
				c-0.2-11.4-0.3-22.9-0.3-34.5v-6.9l0.4-0.4h11c0.1,0,0.3,0,0.8,0c0.4,0,0.9-0.1,1.5-0.1c0.5,0,1-0.1,1.4-0.1
				c0.4-0.1,0.7-0.1,0.8-0.2h1c1.1,0,1.9,0.5,2.4,1.5c0.5,1,0.8,1.9,0.8,2.8v0.3c0,0.1,0,0.2-0.1,0.5c-0.1,0.3-0.1,0.5-0.2,0.9
				c-0.1,0.3-0.1,0.6-0.1,0.9c0,0.3,0,0.5,0,0.5v4.2v4c0,0.4,0,1.3,0.1,2.7c0.1,1.4,0.1,3,0.2,4.9c0.1,1.9,0.2,3.8,0.3,5.9
				c0.1,2.1,0.2,4,0.3,5.9c0.1,1.9,0.2,3.5,0.2,4.9c0.1,1.4,0.1,2.3,0.1,2.7c0,0.2,0,0.9,0,2.2c0,1.3,0,2.8,0,4.5c0,1.7,0,3.4,0,5.1
				c0,1.7,0,3.1,0,4.1c0,0.6,0,1.6,0,3.1c0,1.5,0,3.1,0,4.8c0,1.7,0,3.3,0,4.8c0,1.5,0,2.6,0,3.1c-0.3,1-0.8,1.8-1.5,2.4
				c-0.7,0.6-1.4,1-2.3,1.3c-0.9,0.3-1.8,0.5-2.8,0.6c-1,0.1-1.9,0.2-2.8,0.2c-0.2,0-0.7,0-1.4,0c-0.8,0-1.6,0.1-2.5,0.1
				c-0.9,0-1.8,0.1-2.7,0.1c-0.9,0.1-1.5,0.1-2,0.1h-0.9c-0.3,0-0.5,0-0.7,0c-0.2,0-0.4-0.1-0.4-0.4c-0.1-0.2-0.1-0.5-0.2-1
				C172.8,111.1,172.7,110.7,172.7,110.5z M178.7,114.6h2.5v0.5l-5.2,5.2c-0.4,0.3-0.9,0.6-1.6,0.7c-0.7,0.2-1.3,0.2-1.8,0.2v-0.5
				L178.7,114.6z M187.4,114.3l-5.7,5.7c-0.3,0.3-0.6,0.4-1,0.4c-0.4,0-0.8,0-1.1,0c-0.1,0-0.2,0-0.4,0c-0.2,0-0.4,0-0.4,0l6.2-6.1
				H187.4z"/>
			<path class="st1" d="M206.5,43.5v1.2l-6.1,6.1v-1.2L206.5,43.5z M206.5,47.5v2.5l-6.1,6.1v-2.5L206.5,47.5z M206.5,53.2v2.5
				l-6.1,6.1v-2.5L206.5,53.2z M208.1,56.9h2.5v0.4c-0.8,0.8-1.5,1.5-2.1,2.1c-0.6,0.6-1.2,1.2-1.8,1.8c-0.6,0.6-1.1,1.1-1.5,1.5
				c-0.5,0.5-1,0.8-1.5,1c-0.5,0.1-1.1,0.2-1.9,0.2V63L208.1,56.9z M202.8,79l6.6-6.7l0.8,1.6l-6.5,6.6h-0.2c-0.3,0-0.5-0.1-0.6-0.3
				c-0.1-0.2-0.1-0.5-0.1-0.7V79z M211.4,64.8c0,0.1,0,0.1,0,0.1c0,0,0,0.1,0,0.1c0,0.5-0.1,1.1-0.4,1.8c-0.3,0.7-0.6,1.2-1,1.5
				l-4.9,4.9V73v-0.3c0.1-0.1,0.2-0.5,0.4-1.1c0.2-0.6,0.3-1,0.5-1.3c0-0.1,0.1-0.2,0.2-0.5c0.1-0.1,0.1-0.2,0.2-0.3L211.4,64.8
				L211.4,64.8z M213.1,58.5c0,0.3,0,0.7,0,1c0,0.4-0.2,0.7-0.4,1l-5.6,5.7v-0.3v-0.6c0-0.3,0.1-0.6,0.2-1.1l0.2-0.8l5.7-5.7V58.5z
				 M214.6,73.5c-0.1,0.2-0.4,0.5-0.7,0.8c-0.3,0.3-0.7,0.7-1.1,1.1c-0.4,0.4-0.7,0.7-1.1,1.1c-0.3,0.3-0.6,0.6-0.7,0.7
				c-0.1,0.1-0.5,0.4-1.1,0.8c-0.6,0.4-1.1,0.7-1.3,0.9h-0.2h-0.2c0.2-0.2,0.5-0.5,0.9-1c0.4-0.4,0.9-0.9,1.3-1.4
				c0.5-0.5,0.9-0.9,1.3-1.3c0.4-0.4,0.7-0.7,0.9-0.9c0.1-0.1,0.3-0.2,0.8-0.4c0.4-0.2,0.7-0.3,0.9-0.5h0.2H214.6z M211,70.8
				c0-0.1,0.1-0.4,0.4-0.9c0.3-0.4,0.4-0.7,0.5-0.9c0.9-2,1.6-4.2,2.3-6.6c0.6-2.3,1-4.6,1-6.9c0-0.1,0-0.3,0-0.6c0-0.3,0-0.5,0-0.6
				c-0.7,0.3-1.4,0.5-2.2,0.7c-0.8,0.1-1.5,0.2-2.3,0.2c-0.2,0-0.6,0-1.1-0.1c-0.6-0.1-0.9-0.3-0.9-0.7v-13l0.9-0.9
				c1.9,0,3.7,0,5.4-0.1c1.5-0.1,3-0.1,4.5-0.1c1.6,0,2.8,0,3.9-0.1h2.3h2.2c0.5,0.1,0.9,0.4,1.2,0.9c0.3,0.5,0.4,1,0.4,1.5
				c0,0.1,0,0.4,0,1.1c0,0.7,0,1.2,0,1.5c0,1.5,0,3,0,4.5c0,1.5-0.3,2.9-0.8,4.3c-0.6,1.6-1.3,3.2-2.1,4.8c-0.8,1.6-1.6,3.2-2.6,4.7
				c-1,1.5-2.1,2.9-3.3,4.1c-1.2,1.3-2.6,2.3-4.2,3.1c-0.1,0.1-0.4,0.2-0.7,0.3c-0.3,0.2-0.7,0.3-1.1,0.5c-0.4,0.2-0.7,0.3-1.1,0.5
				c-0.3,0.2-0.6,0.2-0.7,0.2H212c-0.6,0-1-0.3-1-1V70.8z"/>
			<path class="st1" d="M241.1,112.6l-6.1,6.1v-1c0-0.4,0-0.7,0-1s0.1-0.6,0.4-1l5.7-5.5V112.6z M241.6,115.1L241.6,115.1
				c0.2-0.1,0.2-0.1,0.2-0.1c0,0,0,0,0.1,0c0.3,0,0.6,0.1,0.9,0.3c0.3,0.2,0.4,0.5,0.4,0.8v0.3l-5.3,5.2c-0.2,0.3-0.4,0.4-0.6,0.4
				c-0.2,0-0.5,0-0.7,0c-0.3,0-0.6,0-0.8,0c-0.2,0-0.4-0.2-0.8-0.4L241.6,115.1z M242.3,103.4v0.2c0,0.3-0.1,0.7-0.2,1.2
				c-0.1,0.5-0.2,0.8-0.2,0.9c0,0.1,0,0.2-0.1,0.4c-0.1,0.2-0.1,0.4-0.1,0.4l-5.8,5.6c0-0.1,0-0.4,0.1-1c0.1-0.5,0.2-0.8,0.2-1
				c0.1-0.1,0.2-0.4,0.3-0.8c0.1-0.2,0.1-0.3,0.1-0.5L242.3,103.4L242.3,103.4z M243.5,96.7c0,0.2,0,0.6-0.1,1.1
				c-0.1,0.5-0.2,0.9-0.2,1c-0.1,0.1-0.1,0.3-0.1,0.4c0,0.1,0,0.3-0.1,0.4c-0.1,0.2-0.1,0.3-0.2,0.5l-5.3,5.3v-0.6
				c0-0.4,0-0.8,0-1.3c0-0.5,0.1-0.8,0.3-1L243.5,96.7z M244.4,90.9c0,1.4-0.4,2.5-1.2,3.3c-0.1,0.2-0.4,0.5-0.8,0.9
				c-0.4,0.4-0.8,0.8-1.2,1.2c-0.4,0.4-0.8,0.8-1.2,1.2c-0.4,0.4-0.7,0.6-0.8,0.8c-0.1,0-0.3,0.1-0.4,0.2c-0.2,0.1-0.3,0.2-0.3,0.2
				c0-0.1,0-0.2,0-0.5c0-0.3,0-0.4,0-0.5c0-0.4,0-0.7,0-1c0-0.3,0.2-0.6,0.4-0.8l5.7-5.7V90.9z M245.3,84.8c0,0.3,0,0.7-0.1,1.2
				c-0.1,0.5-0.2,0.8-0.4,1l-5.7,5.7v-0.9c0-0.3,0-0.7,0-1c0-0.4,0.2-0.7,0.4-1l5.7-5.5V84.8z M246,77.5V80l-6.1,6.1v-2.5L246,77.5z
				 M248.9,115.8l-6.1,6.3c-0.3,0.3-0.6,0.4-0.9,0.4s-0.6,0-1,0h-1l6.6-6.7H248.9z M246.9,71.4v0.3v0.1c-0.1,0.4-0.3,1-0.5,1.8
				c-0.2,0.7-0.3,1.1-0.4,1.2l-5.2,5.2v-2.5L246.9,71.4z M241.1,71.8c0.1-0.1,0.3-0.4,0.7-0.8s0.5-0.6,0.6-0.8l5.4-5.4V66
				c0,1.2-0.4,2.2-1.2,3c-0.2,0.1-0.5,0.4-0.9,0.8c-0.4,0.4-0.8,0.8-1.2,1.2c-0.4,0.4-0.9,0.8-1.2,1.2c-0.4,0.4-0.7,0.6-0.9,0.8
				c-0.1,0.1-0.2,0.1-0.3,0.2c-0.2,0.1-0.3,0.2-0.3,0.2c-0.1-0.1-0.2-0.3-0.3-0.6c-0.1-0.3-0.2-0.5-0.3-0.6v-0.2V71.8z M248.9,59.3
				c0,0.3,0,0.7,0,1.1c0,0.4-0.2,0.7-0.4,0.9l-5.6,5.7c0-0.1,0-0.2,0-0.4c0-0.2,0-0.4,0-0.4c0-0.3,0-0.6,0-1c0-0.4,0.2-0.7,0.4-0.9
				l5.7-5.7V59.3z M316.9,111.8c-0.1-0.3-0.1-0.7-0.2-1.3c-0.1-0.6-0.1-1.2-0.2-1.9c-0.1-0.7-0.2-1.3-0.2-2
				c-0.1-0.6-0.1-1.1-0.1-1.3c0-0.3,0-0.9-0.1-2c-0.1-1-0.1-2.2-0.1-3.4c0-1.2-0.1-2.3-0.1-3.3c-0.1-1-0.1-1.6-0.1-1.9
				c0-0.7-0.1-1.5-0.2-2.5c-0.2-1-0.3-1.8-0.5-2.6c-0.1-0.6-0.3-1.8-0.5-3.5c-0.2-1.7-0.4-3.5-0.6-5.4c-0.2-1.9-0.4-3.7-0.6-5.4
				c-0.2-1.7-0.3-2.9-0.4-3.6c-0.1-0.1-0.1-0.5-0.2-1.1c-0.1-0.6-0.2-1-0.3-1.3c0-0.1-0.1-0.4-0.2-1c-0.1-0.3-0.1-0.5-0.2-0.7h-0.3
				c-0.4,1.7-1,3.3-1.7,4.9c-0.7,1.6-1.2,3.2-1.6,4.9c0,0.2-0.1,0.7-0.2,1.4c-0.2,0.7-0.3,1.5-0.5,2.3c-0.2,0.8-0.4,1.6-0.5,2.3
				c-0.2,0.7-0.3,1.1-0.3,1.3c-0.1,0.3-0.3,1.1-0.6,2.2s-0.7,2.4-1.2,3.8c-0.4,1.3-0.8,2.6-1.2,3.7c-0.3,1.1-0.6,1.8-0.6,2.1
				c-0.8,2.7-1.5,5.3-2.1,7.8c-0.6,2.5-1.6,4.9-3,7.3l-0.2,0.2c-0.1,0.1-0.1,0.1-0.1,0.2h-13.9c-0.1,0-0.3-0.1-0.6-0.3
				c-0.3-0.2-0.5-0.3-0.6-0.5c-1.9-4.2-3.7-8.5-5.5-12.8c-1.7-4.2-3.4-8.6-5.1-12.9c-0.1-0.1-0.2-0.5-0.4-1
				c-0.2-0.6-0.4-1.2-0.7-1.8c-0.3-0.6-0.5-1.2-0.7-1.8c-0.2-0.6-0.3-0.9-0.3-1c-0.1-0.1-0.2-0.3-0.3-0.7c-0.2-0.4-0.3-0.8-0.5-1.1
				c-0.2-0.4-0.4-0.7-0.5-1.1c-0.2-0.3-0.3-0.6-0.3-0.7c-0.4-1.1-0.7-2.2-1-3.3c-0.3-1.1-0.8-2.2-1.3-3.1l-0.4,0.8l-1.1,9.8v1.2
				l-3.4,25.6c-0.1,0.4-0.2,0.9-0.2,1.4c0,0.5,0,1,0,1.5c0,0.5-0.1,1-0.2,1.4c-0.1,0.4-0.3,0.8-0.7,1c-0.1,0-0.5,0.1-1.1,0.3
				c-0.6,0.2-1.1,0.4-1.3,0.4c-0.3,0.1-0.6,0.2-1.1,0.3c-0.5,0.1-0.8,0.2-1,0.2H244l-0.9-0.5c-0.1-0.3-0.1-0.6-0.1-0.9v-1.1
				c0-2.7,0.3-5.3,1-7.9c0.7-2.6,1.2-5.3,1.6-7.9c0.1-0.4,0.2-1.3,0.4-2.8c0.2-1.5,0.4-3.1,0.6-4.9c0.2-1.8,0.4-3.5,0.6-5.2
				c0.2-1.7,0.3-3,0.5-3.9c0-0.1,0-0.4,0-0.9c0-0.5,0.1-1,0.1-1.5c0-0.5,0.1-1,0.1-1.5c0-0.5,0-0.8,0-0.9c0.1-1.1,0.3-2.2,0.7-3.3
				c0.3-1.1,0.5-2.2,0.6-3.3v-3.6c0-0.1,0.1-0.4,0.4-0.9c0.3-0.4,0.4-0.7,0.5-0.8c0.3-1.3,0.6-2.7,0.8-4.3c0.2-1.6,0.3-3,0.5-4.3
				c0-0.1,0-0.5,0-1.2c0-0.7,0-1.1,0-1.2c0-0.1,0.1-0.3,0.2-0.5c0.1-0.2,0.2-0.3,0.2-0.4c0.3-1.2,0.5-2.3,0.5-3.3
				c0-1,0.1-2.2,0.3-3.6c0-0.3,0-0.7,0.1-1.2c0.1-0.6,0.1-1.2,0.2-1.9c0.1-0.7,0.2-1.3,0.3-1.9c0.1-0.6,0.2-1,0.2-1.1
				c0.1-0.5,0.5-0.9,1-1.3c0.5-0.3,1.1-0.7,1.8-0.9c0.7-0.3,1.3-0.4,2-0.5c0.7-0.1,1.2-0.1,1.7-0.1h10.6l0.2,0.2l0.2,0.2
				c0.2,0.3,0.4,0.7,0.8,1.3c0.3,0.6,0.5,1,0.5,1.1c0,0.1,0,0.4,0.1,0.7c0.1,0.3,0.2,0.7,0.3,1.1c0.1,0.4,0.2,0.8,0.2,1.1
				c0.1,0.4,0.1,0.6,0.2,0.7c0.1,0.4,0.4,0.9,0.8,1.2c0,1.1,0.2,2.3,0.5,3.5s0.7,2.4,1.1,3.7c0.4,1.2,0.9,2.5,1.3,3.7
				c0.4,1.2,0.8,2.3,1.1,3.4c0.1,0.1,0.3,0.2,0.4,0.4c0.2,0.2,0.3,0.3,0.4,0.5c0.1,0.1,0.1,0.5,0.2,1c0.1,0.5,0.1,0.9,0.1,1
				c0.1,0.3,0.3,0.9,0.6,1.7c0.3,0.8,0.5,1.3,0.5,1.5c0.1,0.1,0.3,0.3,0.5,0.6c0.2,0.3,0.3,0.5,0.4,0.7c0.1,0.1,0.2,0.3,0.3,0.6
				c0.1,0.3,0.1,0.5,0.1,0.5c0.3,0.5,0.7,1.4,1.4,2.8c0.7,1.3,1.4,2.7,2.1,4.2c0.7,1.5,1.4,2.9,2,4.2c0.6,1.3,1.1,2.2,1.3,2.7
				c0.1,0.1,0.2,0.5,0.4,1c0.2,0.6,0.4,0.9,0.4,1c0,0.1,0,0.2,0.1,0.4c0.1,0.2,0.2,0.4,0.2,0.4c0.6-0.9,1-1.8,1.1-2.9
				c0.1-1,0.3-2,0.6-2.9c0-0.1,0.1-0.2,0.2-0.4c0.1-0.2,0.2-0.4,0.2-0.4c0.1-0.1,0.1-0.3,0.2-0.6c0.1-0.3,0.1-0.5,0.1-0.7
				c0.8-2.4,1.5-4.9,2.1-7.5c0.7-2.6,1.3-5.1,2-7.7c0-0.1,0-0.5,0.1-1.2c0.1-0.7,0.2-1.1,0.2-1.2c0-0.1,0.1-0.3,0.2-0.7
				c0.1-0.4,0.3-0.8,0.4-1.2c0.1-0.4,0.3-0.8,0.4-1.1c0.1-0.3,0.2-0.6,0.3-0.7c0-0.1,0-0.5,0.1-1c0.1-0.5,0.1-0.9,0.1-1
				c0.1-0.1,0.4-0.5,0.7-1.2c0.3-0.7,0.5-1.1,0.5-1.2c0.1-0.1,0.2-0.4,0.3-0.9c0.2-0.5,0.3-1,0.5-1.5c0.2-0.5,0.4-1,0.5-1.5
				c0.2-0.5,0.3-0.8,0.3-0.9c0-0.1,0.1-0.4,0.3-0.9c0.2-0.5,0.4-1,0.7-1.5c0.3-0.5,0.5-1,0.7-1.5c0.2-0.5,0.4-0.8,0.4-0.9
				c0-0.1,0.1-0.3,0.2-0.6c0.1-0.3,0.3-0.7,0.4-1c0.1-0.3,0.3-0.7,0.4-1c0.1-0.3,0.2-0.5,0.3-0.7c0-0.1,0.1-0.2,0.3-0.4
				c0.2-0.2,0.3-0.3,0.4-0.3c1.5-0.3,2.9-0.5,4.4-0.5c1.5,0,3,0,4.4,0h5c0.9,0.1,1.6,0.5,2.1,1.2c0.5,0.7,0.9,1.4,1.2,2.1l1.6,4.9
				c0,0.1,0,0.3,0.1,0.7c0.1,0.3,0.2,0.7,0.3,1c0.1,0.3,0.2,0.7,0.2,1c0.1,0.3,0.1,0.6,0.2,0.6c0,0.1,0.1,0.3,0.3,0.8
				c0.2,0.4,0.3,0.7,0.3,0.8c0.1,0.2,0.1,0.7,0,1.5c0,0.8,0,1.3,0,1.5c0.3,3.2,1,6.4,1.9,9.6c1,3.1,1.7,6.3,2.3,9.6
				c0,0.1,0,0.4,0,0.7c0,0.3,0.1,0.7,0.1,1.1c0.1,0.4,0.1,0.8,0.1,1.1c0,0.4,0,0.6,0,0.7c0,0.3,0,0.7,0.1,1.2
				c0.1,0.5,0.2,1.1,0.3,1.6c0.1,0.5,0.2,1,0.2,1.5c0.1,0.5,0.1,0.8,0.2,0.9c0.9,5,1.6,10,2.3,14.9c0.6,4.9,1,10,1,15v6
				c-0.4,0-1.1,0-2,0.1c-1,0.1-2,0.1-3.1,0.2c-1.1,0.1-2.1,0.2-3,0.2c-1,0.1-1.6,0.1-2,0.2h-0.7c-0.6,0-1.2,0-1.9,0
				c-0.7,0-1.3-0.1-1.9-0.3c-0.6-0.2-1.1-0.5-1.6-0.9C317.4,113,317.1,112.5,316.9,111.8z M249.3,54.8l-6.1,6.1V60v-0.8
				c0.1-0.1,0.3-0.5,0.6-1c0.3-0.5,0.5-0.9,0.7-1c0.2-0.2,0.5-0.5,1-1c0.5-0.5,1-1,1.5-1.5c0.5-0.5,1-1,1.4-1.5
				c0.4-0.5,0.8-0.8,1-0.9V54.8z M250.5,45.7v2.5l-6.1,6.1v-2.5L250.5,45.7z M251.3,40c0,0.4-0.1,1-0.2,1.5c-0.1,0.6-0.3,1-0.7,1.4
				l-5.2,5.2c0-0.1,0-0.3,0-0.6c0-0.3,0-0.5,0-0.7c0-0.3,0-0.6,0-1c0-0.3,0.2-0.7,0.5-0.9l5.7-5.7V40z M254.1,115.8l-5.7,5.8
				c-0.3,0.3-0.5,0.5-0.8,0.5s-0.6,0-1,0h-1l6.1-6.3H254.1z M270.2,86.5C270.2,86.5,270.3,86.5,270.2,86.5c0.1,0.1,0.1,0.1,0.2,0.1
				h0.1c0.1,0.1,0.1,0.3,0.2,0.5c0.1,0.4,0.2,0.6,0.2,0.8v0.1v0.3c0,0.1,0,0.2-0.1,0.4c-0.1,0.2-0.2,0.4-0.2,0.4l-5.3,5.2l-0.8,0.5
				v-0.6c0-0.4,0-0.8,0-1.3c0-0.5,0.1-0.9,0.3-1L270.2,86.5L270.2,86.5z M268.9,82.5c0.3,0.1,0.4,0.3,0.4,0.6c0,0.3,0,0.6,0,0.7
				c0,0.1,0,0.1,0,0.2c0,0.1,0,0.1,0,0.2v0.3l-4.1,4.1v-0.7c0-0.3,0-0.7,0.1-1.2c0.1-0.5,0.2-0.8,0.4-1L268.9,82.5z M265.6,96.7
				l6.1-6.1h0.2h0.2c0.1,0.1,0.1,0.3,0.2,0.6c0.1,0.3,0.2,0.5,0.3,0.6v0.3v0.2l-6.6,6.5c-0.3-0.5-0.4-1.1-0.4-1.7V96.7z M267.1,78.4
				c0.6,0.3,0.9,0.8,0.9,1.5V80l-2,2.1c0.1-0.5,0.1-1.2,0.2-2C266.3,79.3,266.6,78.7,267.1,78.4z M266.9,100.8l6.4-6.6
				c0.6,0.4,0.9,0.9,0.9,1.4V96l-6.5,6.5c-0.3-0.1-0.4-0.3-0.6-0.7S266.9,101.2,266.9,100.8L266.9,100.8z M268.4,104.8l6.1-6.1h0.3
				c0.3,0,0.5,0.1,0.5,0.4c0,0.3,0,0.5,0,0.8v0.5l-6.1,6.2H269c-0.3,0-0.5-0.2-0.6-0.5c-0.1-0.3-0.1-0.6-0.1-0.9V104.8z M270,108.6
				C270,108.6,270,108.5,270,108.6l6.6-6.6c0.1,0.1,0.3,0.3,0.5,0.7c0.2,0.4,0.3,0.7,0.4,0.8c0,0.1-0.1,0.3-0.2,0.5
				c-0.1,0.2-0.2,0.3-0.3,0.4l-5.2,5.2c-0.1,0.1-0.3,0.2-0.4,0.3c-0.2,0.1-0.3,0.2-0.4,0.3h-0.3c-0.3,0-0.4-0.2-0.5-0.5
				c-0.1-0.3-0.1-0.6-0.1-1V108.6z M271.7,112.6l6.6-6.6c0,0.1,0.1,0.1,0.2,0.2c0.1,0.1,0.2,0.2,0.2,0.2c0.1,0.1,0.2,0.3,0.3,0.7
				c0.1,0.3,0.2,0.5,0.1,0.6l-6.5,6.5C272,113.9,271.7,113.4,271.7,112.6L271.7,112.6z M273.2,116.3l6.6-6.7
				c0.3,0.3,0.4,0.4,0.4,0.6c0.1,0.1,0.2,0.3,0.3,0.6c0.1,0.3,0.1,0.5,0.1,0.5l-6.6,6.5C273.5,117.6,273.2,117.1,273.2,116.3
				L273.2,116.3z M281.9,113.4l2,0.5l-6.5,6.5c-0.1,0.1-0.2,0.1-0.3,0.1h-0.5c-0.1,0-0.4,0-0.7,0c-0.3,0-0.6-0.2-0.6-0.5
				L281.9,113.4z M289.2,114.3c-0.2,0.2-0.5,0.5-1,1c-0.4,0.5-0.9,1-1.5,1.5c-0.5,0.5-1,1-1.5,1.5c-0.4,0.5-0.8,0.8-1,0.9
				c-0.2,0.2-0.5,0.4-0.9,0.8c-0.4,0.3-0.7,0.5-0.8,0.5c0,0.1-0.2,0.1-0.5,0.1s-0.6,0-0.8,0c-0.1,0-0.3,0-0.6,0s-0.5,0-0.7-0.1
				l6.1-6.1H289.2z M294.5,114.3l-6.1,6.1h-2.5l6.1-6.1H294.5z M286.7,71.1c0-0.1,0-0.3,0.1-0.6c0.1-0.3,0.2-0.5,0.2-0.6
				c0.1-0.1,0.1-0.1,0.1-0.2c0-0.1,0.1-0.2,0.1-0.3c0.1-0.1,0.1-0.2,0.1-0.3l5.3-5.3v0.5c0,1.6-0.5,2.9-1.4,3.9
				c-0.9,1-1.9,2-3.1,3.1c-0.1,0.1-0.3,0.2-0.6,0.4c-0.3,0.2-0.5,0.3-0.7,0.3c-0.1,0-0.1-0.1-0.2-0.3
				C286.8,71.3,286.7,71.2,286.7,71.1z M294.5,56.9c0,0.1,0,0.2,0,0.3c0,0.2,0,0.3,0,0.4c0,0.5,0,0.9-0.1,1.3
				c-0.1,0.3-0.3,0.7-0.7,1.1l-5.3,5.3v-0.5c0-0.4,0.1-1,0.3-1.7c0.2-0.7,0.5-1.2,0.9-1.5L294.5,56.9z M288.4,73.9l2.5-2.5v0.4
				c0,0.2-0.1,0.5-0.2,0.9c-0.1,0.4-0.3,0.8-0.5,1.3c-0.2,0.4-0.4,0.8-0.6,1.1c-0.2,0.3-0.4,0.5-0.6,0.5c-0.3,0-0.5-0.2-0.5-0.5
				c0-0.3,0-0.6,0-0.8V73.9z M297.4,48.5c0,0.1,0,0.3-0.1,0.7c-0.1,0.3-0.2,0.7-0.3,1c-0.1,0.4-0.3,0.7-0.4,1
				c-0.2,0.3-0.3,0.5-0.3,0.6l-4.9,5c0.1-0.5,0.2-1.2,0.4-2c0.2-0.8,0.5-1.4,0.9-1.8l4.9-4.9V48.5z M300.5,39.7
				c0,0.2-0.1,0.5-0.2,0.9c-0.1,0.4-0.3,0.8-0.5,1.2c-0.2,0.4-0.4,0.9-0.6,1.3c-0.2,0.4-0.3,0.7-0.4,0.8c-0.1,0.2-0.4,0.5-0.8,1
				c-0.4,0.4-0.9,0.9-1.3,1.4c-0.5,0.5-0.9,0.9-1.4,1.3c-0.4,0.4-0.8,0.6-1,0.8v-0.1v-0.3c0.2-0.5,0.4-1.2,0.8-2
				c0.3-0.8,0.5-1.2,0.5-1.3L300.5,39.7z M312.3,85.3l-5.6,5.6v-0.1v-0.3c0-0.1,0.1-0.5,0.3-1.1c0.2-0.6,0.4-1,0.4-1.2
				c0.1-0.4,0.3-0.7,0.5-0.9l4.4-4.4V85.3z M312.8,87.8c0.3,0.5,0.4,1,0.4,1.6c0,0.3,0,0.6-0.1,0.8c-0.1,0.2-0.3,0.4-0.7,0.8
				c-0.4,0.4-0.9,1-1.4,1.6c-0.6,0.6-1.1,1.2-1.7,1.8c-0.6,0.6-1.3,1.3-2.1,2.1h-0.4v-2.5L312.8,87.8z M313.6,92.7v2.5l-6.1,6.1
				l-0.4-2.1L313.6,92.7z M314.1,97.5v2.5l-6.1,6.1v-2.5L314.1,97.5z M314.1,103.3c0.3,0.1,0.5,0.3,0.5,0.6c0,0.3,0,0.6,0,0.7
				c0,0.1,0,0.1,0,0.2c0,0.1,0,0.1,0,0.2v0.3l-6.5,6.5v-2.4L314.1,103.3z M314.4,108.2c0.3,0.3,0.4,0.5,0.4,0.7c0,0.2,0,0.4,0,0.8
				c0,0.3,0,0.5,0,0.7c0,0.2-0.2,0.4-0.4,0.6l-6.1,6.2v-2.9L314.4,108.2z M308.7,119.6l6.6-6.6c0.1,0.1,0.2,0.3,0.4,0.6
				c0.2,0.3,0.4,0.5,0.4,0.7v0.2v0.2l-6.6,6.6c-0.3-0.1-0.5-0.3-0.6-0.7C308.8,120.2,308.7,119.9,308.7,119.6L308.7,119.6z
				 M311.7,77.9c0.1,0.3,0.2,0.5,0.2,0.8c0,0.3,0,0.5,0,0.9V80l-2.8,2.9v-0.5v-0.4c0-0.3,0.1-0.6,0.2-1.2c0.1-0.5,0.2-0.8,0.2-0.9
				c0.1-0.2,0.5-0.6,1-1.1C311.1,78.4,311.5,78,311.7,77.9z M317.8,115.8h0.5c0.3,0,0.6,0,0.8,0c0.2,0,0.5,0.2,0.7,0.5l-6.2,6.1
				h-1.9v-0.4L317.8,115.8z M325.4,116.3l-6.1,6.1h-2.4l6.1-6.1H325.4z M328.7,115.8h2.4v0.6l-5.2,5.2c-0.3,0.3-0.8,0.6-1.5,0.7
				c-0.7,0.2-1.3,0.2-1.8,0.2v-0.5L328.7,115.8z"/>
		</g>
	</g>
	<path d="M456.4,176.6c-0.4-6.9-1.9-13.9-4-20.6c-4.8-15.8-15.6-24.6-34.7-26.1c-16.6-1.3-28.6,7.6-37.7,20.6
		c-3.6,5.1-6.1,10.7-7.8,16.8c-0.8,3.4-0.2,5.7,1.7,6.5c1.9,1.1,3.4,0,5.3-3.6c2.7-4.8,5.5-9.5,8.2-14.1c2.9-4.4,6.7-8.4,11.4-11.2
		c7.6-4.4,12.8-3.2,17.3,4.4c2.3,4.2,3.8,8.6,4.8,13.3c4,15.6,3.8,31.4,3.8,47.4c0,0.2-0.4,0.4-0.6,0.6c-1.5-1.1-1.9-2.5-2.7-4
		c-4.8-7.8-10.3-15.4-18.1-20.4c-12-7.8-28.6-8.8-39.4,7.6c-1.7,2.7-3.4,5.9-4.6,9.1c-2,5.3-3.3,10.7-4.1,16.1
		c-0.6,1.2-1,2.5-1.4,3.7c-1.7,6.3-4.4,12.2-7.6,18.1c-0.8,2.1-2.1,4-4,5.5c-3.2,2.5-6.1,1.9-8.4-1.3c-1.3-1.9-2.1-4-2.7-6.3
		c-1.3-5.3-2.1-10.5-2.1-16c-0.2-7.8,0.2-15.6,0.8-23.4c0.8-13.1,2.3-26.1,4-39.2c0.4-2.5,1.3-4,4.2-4c4-0.2,8.2-1.1,12.2-1.9
		c1.9-0.4,3.2-1.5,3.2-3.6c0-1.9-1.3-2.9-2.9-3.4c-1.1-0.4-2.1-0.6-3.4-0.8c-3.2-0.4-6.5-0.8-10.1-1.3c0.2-1.1,0.4-1.9,0.4-2.7
		c0.4-6.1-0.6-7.4-6.7-8.6c-4.6-1.1-9.5-2.1-14.3-2.9c-10.5-1.9-13.3,0.2-14.5,10.7c-0.6,3.6-0.6,3.6-4.2,3.8
		c-2.5,0.2-4.8,0-7.4,0.6c-0.2,0.1-0.3,0.1-0.4,0.2c-2.7-0.3-5.4-0.7-8.4-1c0.2-1.1,0.4-1.9,0.4-2.7c0.4-6.1-0.6-7.4-6.7-8.6
		c-4.6-1.1-9.5-2.1-14.3-2.9c-10.5-1.9-13.3,0.2-14.5,10.7c-0.6,3.6-0.6,3.6-4.2,3.8c-2.5,0.2-4.8,0-7.4,0.6c-0.5,0.2-1,0.4-1.4,0.7
		c0.3-1.1,0.5-2.1,0.8-3.2c1.1-3.4-0.2-5.1-3.4-6.5c-2.5-1.3-5.1-2.3-7.6-3.6c-3.6-1.9-7.6-2.9-11.6-3.6c-6.3-0.6-8.8,1.1-9.7,7.4
		c-1.3,7.6-2.5,14.9-2.9,22.3c-0.8,19.8-4.4,38.9-9.7,57.9c-1.3,4.4-3.2,8.2-5.3,12c-1.5,2.3-3.2,4.6-6.1,4.4c-2.9,0-4-2.7-4.8-4.8
		c-2.1-4.4-2.9-9.1-3.2-13.9c-0.8-15.4-0.2-30.9,2.3-46.3c1.3-8,2.7-16.2,4.8-24c1.5-5.3-0.8-9.1-6.1-10.1
		c-4.6-0.8-9.3-1.9-14.1-2.5c-7.8-1.1-12.2,1.9-13.7,9.5c-1.9,8.6-2.7,17.5-3.8,26.1c-0.4,4.2-0.8,8.5-1,12.7
		c-1.6,0.4-3,0.8-4.4,1.2c-2.1,0.4-4.2,1.3-6.5,1.1c-0.4-2.9-0.6-5.7-1.3-8.2c-2.9-12.8-8-24.6-18.5-33.3
		c-8.2-6.9-17.3-11.8-28.6-9.9c-0.6,0.2-1.7,0-2.3-0.2c-4.4-1.3-8.2,0-11.6,2.3c-3.4,2.3-6.1,5.1-8.6,8c-4.4,5.7-7.6,11.8-9.9,18.5
		c-7.2,20.8-8,41.9-4.2,63.4c1.9,10.7,6.1,20.6,13.3,29.1c11.8,14.1,29.3,15.6,42.9,4.2c10.7-8.8,17.9-19.8,22.5-32.6
		c2.9-8.6,4.6-17.5,5.5-26.3c0.4-4.4,0.6-4.4,4.6-5.3c2.3-0.4,4.5-0.8,6.6-1.1c-0.5,13.1-0.1,26.2,1.2,39.2c0.8,8,2.5,15.8,6.9,22.7
		c7.4,11.6,21.7,13.9,32.2,5.1c6.5-5.7,12-12,15.2-20.2c0.4-1.1,0.6-2.5,2.3-3.2c1.5,5.1,2.9,10.1,5.3,14.7
		c3.6,7.4,9.5,11.4,17.5,12.8c5.7,1.3,10.3-0.6,13.7-5.3c3.2-4.2,6.1-8.6,8.2-13.3c2.4-5.1,4.4-10.3,6.1-15.6
		c0.4,3.2,0.9,6.5,1.5,9.7c1.3,5.7,3.2,11.2,6.3,16.4c4,6.5,9.7,10.3,17.3,11.6c7.2,1.5,12.8-1.7,17.5-6.5
		c6.6-7,11.1-15.1,14.1-23.7c0.1,0.7,0.2,1.5,0.4,2.2c1.3,5.7,3.2,11.2,6.3,16.4c4,6.5,9.7,10.3,17.3,11.6
		c7.2,1.5,12.8-1.7,17.5-6.5c4.8-5.1,8.4-10.7,11.2-16.7c0.9,3.7,2.2,7.2,4.1,10.6c5.5,9.1,13.1,14.7,24.2,14.9
		c9.1,0.4,17.1-2.1,24.6-6.9c5.1-3.4,9.7-7.6,14.3-12.6c0,4.4,0,8,0.2,11.6c0,3.4,1.5,5.5,4,5.9c4.2,0.8,8.2,2.1,12.6,0.2
		c1.3-0.4,2.7-0.4,4.2-0.4c6.7,0,8.4-1.5,9.7-7.8c2.3-11.6,3.2-23.4,3.8-35.2C458.1,207.5,457.5,192.2,456.4,176.6z M90.7,148.4
		c2.3-2.3,3.2-2.3,5.9-0.2c10.7,8.6,15.6,20.4,18.1,33.7c0.2,1.9-0.6,2.5-2.3,2.3c-7.6-0.6-15.2-1.7-21.9-5.9
		c-4.8-2.9-6.9-7.6-6.9-14.9C83.8,158.5,85.9,152.8,90.7,148.4z M59.1,236c-2.7-5.3-4.2-10.9-4.6-16.8c-1.3-15.4-0.4-30.5,3.6-45.3
		c2.5-9.1,5.7-17.7,12.2-24.8c1.3-1.5,2.3-3.2,4.4-3.8c0.4,0.4,0.4,1.1,0.2,1.5c-4.6,9.1-6.9,18.9-8.4,29.1
		c-2.3,13.7-3.6,27.4-2.5,41.5c0.6,8.2,2.5,16,6.5,23.4c2.3,4.6,5.5,8.4,9.7,11.6C70.3,250.9,63.8,244.4,59.1,236z M114.7,196.8
		c-0.8,10.7-2.7,21.3-6.5,31.4c-2.5,6.7-6.5,12.4-11.4,17.5c-2.7,2.9-3.2,2.7-5.9,0.2c-8-6.9-11.2-16.4-13.1-26.3
		c-2.1-12-0.8-24,0-36c0-0.6,0.2-1.3,1.3-1.9c5.5,4.8,12,7.8,19.2,9.7c4.4,1.3,9.1,1.7,13.5,2.1
		C114.1,193.7,114.9,194.3,114.7,196.8z M158.3,249.9c-2.7-2.9-4.2-6.5-5.3-10.3c-1.5-5.5-1.9-10.9-2.1-16.4
		c-1.1-24.4,0-48.6,3.4-72.8c0.2-1.1,0.4-2.3,0.6-3.4c1.3-5.1,1.3-5.1,6.7-3.8c-2.5,10.3-3.6,21.1-4.6,31.8
		c-1.5,15.8-1.9,31.6-0.4,47.4c0.4,4.8,1.5,9.3,3.4,13.7c2.9,7.2,5.5,9.9,12,13.7C167.6,254.5,162.5,254.5,158.3,249.9z
		 M215.4,246.1c-3.4-7.2-4-14.7-4.8-22.3c-1.9-18.9-1.9-37.9-0.2-56.8c0.6-7.8,2.1-15.6,3.2-23.2c0.2-1.3,0-2.9,2.1-2.5
		c2.9,0.2,4.6,1.7,4.4,3.8c-0.8,6.3-1.7,12.6-2.5,18.9c-2.1,14.9-3.4,29.9-3.2,44.8c0,7.6,0.6,14.9,1.9,22.5
		c1.7,7.6,4.8,13.9,13.7,15.8C224.2,253.9,218.7,253,215.4,246.1z M244.6,207.1c-1.3,2.9-1.9,5.9-2.7,8.8
		c-1.7,6.5-4.4,12.4-7.4,18.1c-0.6,1.3-1.1,2.7-2.7,2.7c-1.7-0.2-2.3-1.7-2.9-2.9c-0.6-2.3-1.5-4.4-1.7-6.7
		c-1.3-13.1-1.9-26.1-0.2-39.2c1.3-11.2,2.3-22.7,4.5-33.9c0.2,0.3,0.5,0.6,0.7,0.9c1.3,1.1,2.7,1.5,4.4,1.5c2.1,0,4,0.2,5.9,0
		c2.5,0,3.2,1.1,2.9,3.4c0,1.1,0,2.3,0,3.4c-0.8,11.4-1.1,22.5-0.8,33.9c0.1,3.3,0.1,6.5,0.2,9.8C244.7,206.9,244.7,207,244.6,207.1
		z M259.6,235.8c-1.7-9.5-1.9-19.2-1.7-28.8c0-16.4,0.6-32.6,0.8-49.1c0.2-4,0.2-8.2,0-12.2c0-2.3,1.1-3.4,3.4-2.9
		c0.8,0.2,1.9,0.2,2.9,0.2c1.9,0,2.5,0.8,2.1,2.7c-1.1,5.9-1.7,12-2.3,17.9c-1.9,18.3-2.7,36.4-1.5,54.7c0.6,7.8,1.7,15.4,3.8,22.7
		c1.1,4,2.7,8,4.6,11.8C263.6,249.9,260.8,243.1,259.6,235.8z M298.1,222.7c-1.7,6.3-4.4,12.2-7.6,18.1c-0.8,2.1-2.1,4-4,5.5
		c-3.2,2.5-6.1,1.9-8.4-1.3c-1.3-1.9-2.1-4-2.7-6.3c-1.3-5.3-2.1-10.5-2.1-16c-0.2-7.8,0.2-15.6,0.8-23.4c0.8-13.1,2.3-26.1,4-39.2
		c0.4-2.5,1.3-4,4.2-4c2-0.1,4.1-0.4,6.2-0.7c1.1,0.7,2.3,0.9,3.6,0.9c2.1,0,4,0.2,5.9,0c2.5,0,3.2,1.1,2.9,3.4c0,1.1,0,2.3,0,3.4
		c-0.8,11.4-1.1,22.5-0.8,33.9c0.1,6.7,0.2,13.4,0.5,20C299.5,218.7,298.7,220.8,298.1,222.7z M315.1,235.8
		c-1.7-9.5-1.9-19.2-1.7-28.8c0-16.4,0.6-32.6,0.8-49.1c0.2-4,0.2-8.2,0-12.2c0-2.3,1.1-3.4,3.4-2.9c0.8,0.2,1.9,0.2,2.9,0.2
		c1.9,0,2.5,0.8,2.1,2.7c-1.1,5.9-1.7,12-2.3,17.9c-1.9,18.3-2.7,36.4-1.5,54.7c0.6,7.8,1.7,15.4,3.8,22.7c1.1,4,2.7,8,4.6,11.8
		C319.1,249.9,316.4,243.1,315.1,235.8z M376,224.8c-0.4,11.2,1.5,21.7,10.5,30.9c-6.5,0-10.5-2.5-13.9-6.3
		c-3.8-4.6-5.9-10.3-6.3-16.2c-0.6-10.9,1.3-21.5,6.7-31.2c2.9-5.5,7.4-8.6,13.9-7.8c0.4,0.2,0.8,0.4,1.9,0.8
		C379.8,203.1,376.6,213.4,376,224.8z M420.2,234.5c-3.4,4.4-6.1,9.5-10.9,13.1c-2.5,1.7-4.6,3.8-8.4,2.5c-4.2-1.5-7.8-3.4-9.3-8
		c-1.1-3.4-1.5-6.9-1.7-10.7c0.8-7.4,1.7-15.2,5.9-21.9c1.1-1.5,2.1-2.9,3.6-3.8c3.4-2.3,5.9-1.9,8.6,1.1
		c5.1,6.3,9.5,12.8,12.8,20.2C422.1,229.7,422.3,231.8,420.2,234.5z M444.6,238.7c-0.4,4.4-1.1,8.8-1.7,13.1
		c-0.6,3.8-0.6,3.8-5.7,4.6c2.7-35.6,1.7-70.9-4.6-106.5c3.4,1.7,4.6,4.2,5.9,6.5c2.9,5.9,4.2,12.4,5.1,18.9
		C445.7,196.4,446.3,217.7,444.6,238.7z"/>
	<g>
		<path class="st1" d="M187.6,295.2c0.1,4.6,0.1,9.5,0.1,14.7c0,5.2-0.4,10.4-1.1,15.5c-0.7,5.1-1.9,9.9-3.6,14.4
			c-1.7,4.5-4.1,8.3-7.2,11.4c-5.3,5.3-12.5,8-21.5,8H153c-1.1-0.1-1.9-0.5-2.6-1.1c-0.6-0.7-1-1.5-1.1-2.5
			c-0.1-1.2,0.4-2.3,1.4-3.5c1-1.2,2.6-1.9,4.9-2.1c2.2-0.3,4.3-2.7,6.2-7.2c1.2-3.2,2.3-7,3.2-11.4c0.9-4.4,1.5-9,1.9-13.7
			c0.4-4.7,0.6-9.4,0.6-14c0-4.6-0.4-8.6-0.9-12c-0.7,3.4-1.9,7.2-3.3,11.2c-1.5,4.1-3.2,7.9-5.2,11.4c-2,3.5-4.2,6.5-6.7,8.9
			c-2.5,2.4-5.1,3.7-7.8,3.9h-0.5c-4.6,0-8-1.2-10.4-3.7c-1.2-1.3-2.2-2.9-2.9-4.7c-0.7-1.8-1.1-3.7-1.3-5.8
			c-0.2-2.1-0.3-4.3-0.2-6.6c0-2.3,0.1-4.6,0.3-6.8c0.2-3,0.3-5.8,0.3-8.6c0-2.7-0.3-5.1-0.9-7.1c-0.6-0.7-0.8-1.2-0.7-1.7
			c0.1-0.5,0.2-0.9,0.4-1.2c0.6-0.8,1.7-1.5,3.4-1.9c1.7-0.5,3.6-0.8,5.7-1c2.1-0.2,4.2-0.2,6.2-0.1c2.1,0.2,3.8,0.5,5.2,0.9
			c2.3,0.7,3.5,1.8,3.5,3.2c-0.5,2.2-1.1,5-1.8,8.5c-0.7,3.5-1.3,7-1.8,10.6c-0.5,3.6-0.8,6.9-0.9,9.9c-0.1,3,0.2,5.1,1,6.2
			c0.2,0.3,0.4,0.5,0.7,0.5c0.4,0.2,0.9,0,1.4-0.4c1.3-1,2.7-3,4.1-6.1c1.4-3,2.6-6.4,3.8-10.1c1.2-3.7,2.2-7.4,3-11.1
			c0.8-3.7,1.4-6.7,1.7-9.1c-0.1-0.6,0-1.2,0.2-1.7c0.2-0.7,0.6-1,1-1c0.9-0.7,2-1.1,3.3-1.2c1.3-0.2,2.5-0.2,3.7-0.2
			c1.7,0.1,3.5,0.3,5.4,0.6c1.9,0.3,3.7,0.8,5.3,1.3c1.6,0.5,3,1.2,4.1,2c1.1,0.8,1.6,1.7,1.6,2.7
			C187.5,286.9,187.5,290.9,187.6,295.2z M134.1,316.9c0.7-0.2,1-0.6,0.9-1.4c-0.8-3-1.2-6.4-1.4-10.1c-0.2-3.7-0.2-7.3,0-10.6
			c0.2-3.3,0.4-6.1,0.6-8.4c0.3-2.3,0.4-3.5,0.4-3.6c0.2-0.8-0.2-1.2-1-1.2c-0.7-0.2-1.1,0.2-1.2,1c0,0.2-0.1,1.4-0.4,3.7
			c-0.3,2.3-0.5,5.2-0.6,8.6c-0.1,3.4-0.1,7,0.1,10.7c0.2,3.8,0.6,7.2,1.4,10.3c0.2,0.6,0.5,0.9,1.1,0.9H134.1z M137.5,324.3
			c0.3,0,0.6-0.1,0.9-0.4c0.5-0.5,0.5-1-0.1-1.5c-0.9-0.8-1.7-2-2.2-3.4c-0.2-0.7-0.7-0.9-1.5-0.6c-0.7,0.3-0.8,0.8-0.5,1.5
			c0.7,1.8,1.7,3.2,2.7,4.1C137,324.2,137.2,324.3,137.5,324.3z M155.4,355.6c0.4,0.4,0.8,0.4,1.2,0c2.4-0.5,4.5-1.5,6.2-3.1
			c1.7-1.5,3.2-3.4,4.4-5.5c1.2-2.1,2.2-4.4,2.9-6.8c0.7-2.4,1.3-4.7,1.7-6.9c0.4-2.2,0.7-4.2,0.8-5.9c0.1-1.7,0.2-3,0.3-3.7
			c-0.1-0.2-0.3-0.5-0.5-0.7c-0.3-0.2-0.5-0.3-0.9-0.2c-0.8,0.2-1,0.6-0.9,1.2c-0.3,0.7-0.5,1.8-0.7,3.4c-0.2,1.6-0.5,3.4-0.8,5.5
			c-0.3,2.1-0.8,4.3-1.4,6.6c-0.6,2.3-1.5,4.4-2.6,6.4c-1.1,2-2.4,3.7-4,5.2c-1.6,1.5-3.5,2.4-5.9,2.8c-0.7,0.5-0.7,1-0.2,1.5
			C155.2,355.5,155.2,355.6,155.4,355.6z"/>
		<path class="st1" d="M218.2,342.4c-7.5,0-13.5-2.2-18-6.5c-2-2-3.5-4.3-4.6-6.8c-1.1-2.5-1.9-5-2.3-7.5c-0.5-2.5-0.7-4.7-0.7-6.9
			c0-2.1-0.1-3.8-0.1-5.1c0-0.3,0.1-1.2,0.3-3c0.2-1.7,0.5-3.9,1.1-6.4c0.6-2.5,1.5-5.2,2.6-8.1c1.2-2.9,2.8-5.5,4.9-7.9
			c2.1-2.4,4.7-4.5,7.7-6.1c3.1-1.7,6.8-2.6,11.2-2.7c7.8-0.3,14.1,2,18.7,6.7c3,3,5.2,6.8,6.6,11.5c1.4,4.7,2,10,1.9,16
			c-0.2,3.8-0.9,7.7-2.3,11.5c-1.4,3.8-3.3,7.3-5.7,10.4c-2.4,3.1-5.3,5.6-8.8,7.6c-3.5,2-7.3,3.1-11.6,3.2H218.2z M201.2,328.8
			c0.2,0,0.4,0,0.5-0.1c0.7-0.3,0.9-0.7,0.6-1.5c-1.2-2.8-2-5.7-2.4-8.7c-0.3-3-0.3-6,0-8.9c0.3-2.9,0.9-5.7,1.8-8.4
			c0.9-2.7,1.9-5.2,3.1-7.4c1.6-3.1,3.1-5.4,4.7-7.1c1.5-1.6,2.8-2.5,3.7-2.7c0.7-0.2,1-0.6,0.9-1.2c-0.2-0.7-0.6-1-1.4-0.9
			c-1.5,0.3-3.1,1.5-4.9,3.4c-1.7,1.9-3.4,4.4-5,7.5c-0.6,1.2-1.4,3-2.4,5.4c-1,2.4-1.8,5.2-2.4,8.4c-0.6,3.2-0.8,6.7-0.6,10.4
			c0.2,3.7,1.1,7.5,2.7,11.2C200.5,328.6,200.8,328.8,201.2,328.8z M207.4,337.5c0.3,0,0.6-0.1,0.9-0.4c0.5-0.5,0.5-1,0-1.5
			c-1.1-1.1-2.1-2.3-3.1-3.7c-0.5-0.7-1-0.7-1.6-0.2c-0.7,0.5-0.8,1-0.3,1.6c0.9,1.2,2,2.5,3.4,3.9
			C206.9,337.4,207.1,337.5,207.4,337.5z M226.2,282.9c-1.1,0-2.1,0.5-3.1,1.5c-1.2,1.2-2.4,3-3.4,5.3c-1,2.3-1.9,4.9-2.7,7.7
			c-0.7,2.9-1.3,5.9-1.7,9.2c-0.4,3.2-0.7,6.4-0.8,9.6c-0.1,3.1,0,6.1,0.3,8.9c0.3,2.8,0.8,5.1,1.4,7.1c0.4,1.1,0.9,2.2,1.6,3.2
			c0.6,1.1,1.5,1.7,2.7,1.9c2.2,0,4.4-0.7,6.4-2c2-1.3,3.9-3.1,5.5-5.3c1.6-2.2,3-4.7,4.1-7.6c1.1-2.8,2-5.7,2.6-8.6
			c0.6-2.8,0.9-5.8,0.9-8.9c0-3.1-0.4-6.1-1.2-8.9c-0.8-2.8-2.1-5.4-3.9-7.6s-4.1-4-7.1-5.1C227.3,283,226.9,282.9,226.2,282.9z"/>
		<path class="st1" d="M292.3,341c-3.5-1.3-5.2-2.8-5.2-4.5l0.3-6c-2.8,3.3-6,6.2-9.6,8.5c-3.5,2.3-7,3.5-10.3,3.6h-0.5
			c-1.2,0-2.7-0.2-4.4-0.5c-1.7-0.3-3.2-0.9-4.7-1.6c-1.5-0.7-2.8-1.6-3.9-2.7c-1.1-1.1-1.8-2.5-1.9-4.1c-0.2-1.2-0.1-3.2,0.1-5.8
			c0.2-2.6,0.4-5.7,0.7-9.3c0.3-3.2,0.5-6.5,0.7-10.1c0.3-3.5,0.4-6.9,0.6-10.2c0.1-3.2,0.1-6.2-0.1-8.7c-0.2-2.6-0.6-4.5-1.2-5.7
			c-0.5-0.7-0.7-1.2-0.7-1.7c0-0.5,0.1-0.9,0.3-1.1c0.5-0.8,1.6-1.5,3.2-2c1.7-0.5,3.5-0.8,5.6-1c2.1-0.2,4.2-0.2,6.2-0.1
			c2.1,0.1,3.8,0.4,5.2,0.8c2.5,0.7,3.7,1.7,3.7,3.2c-0.7,5.7-1.2,11.5-1.6,17.2c-0.4,5.7-0.6,10.8-0.7,15.4c0,4.6,0.1,8.3,0.4,11.2
			c0.3,2.9,1,4.5,1.9,4.6c0.9,0.2,1.9,0,2.8-0.6c1-0.6,1.9-1.4,2.9-2.6c1-1.1,2-2.4,2.9-3.9s1.7-3.1,2.5-4.9l0.9-40.2l0.7-0.1
			c0.5,0,1.7-0.1,3.6-0.2c1.9-0.2,4.1-0.2,6.4-0.2c2.4,0,4.6,0.3,6.8,0.6c2.2,0.4,3.7,1.1,4.7,2.1c0.7,0.8,1,1.8,0.9,3
			c-0.3,1.1-0.5,3-0.8,5.7c-0.3,2.7-0.6,5.8-0.8,9.3c-0.3,3.5-0.5,7.2-0.6,11.2c-0.2,4-0.2,7.7-0.2,11.3c0,3.6,0.1,6.8,0.4,9.6
			c0.3,2.8,0.7,4.8,1.2,6.1c0.7,1.2,1.1,2.1,1,2.8c-0.1,0.7-0.3,1.3-0.8,1.7c-0.6,0.8-1.5,1.3-2.7,1.6c-1.2,0.3-2.7,0.4-4.2,0.4
			c-1.9,0-3.9-0.2-6.1-0.6C295.8,342.1,293.9,341.6,292.3,341z M257.3,336.8c0.7,0,1.1-0.3,1.1-1c0.2-0.8,0.3-1.7,0.4-2.6
			c0.1-0.9,0.2-1.8,0.2-2.7c0.2-0.8-0.2-1.2-1-1.2c-0.7-0.2-1.1,0.2-1.2,1c-0.1,0.9-0.2,1.8-0.3,2.7c-0.1,0.9-0.2,1.7-0.4,2.6
			c0,0.7,0.3,1.1,1,1.2H257.3z M258.4,327c0.6,0,1-0.3,1.1-1c0.7-6.4,1.2-12.3,1.2-17.7c0.1-5.4,0-10-0.1-13.9
			c-0.2-3.9-0.5-8-1.1-12.4c0-0.7-0.4-1-1.2-1c-0.7,0.2-1,0.6-0.9,1.4c0.5,4.3,0.8,8.4,1,12.2c0.2,3.8,0.2,8.4,0.1,13.7
			c-0.1,5.3-0.5,11.1-1.2,17.4c-0.2,0.7,0.2,1.1,1,1.2H258.4z M291.4,338.1c0.7-0.2,1-0.5,1-1.1c0-0.8,0-1.7,0-2.6
			c0-0.9,0-1.8-0.1-2.7c0-0.8-0.4-1.2-1.1-1c-0.7,0-1.1,0.4-1.1,1.1c0.1,0.9,0.1,1.8,0.1,2.7c0,0.9,0,1.7,0,2.6
			c0,0.7,0.4,1.1,1.1,1.1H291.4z M292.7,314.8c0.7,0,1.1-0.3,1.1-1c-0.1-11.9-0.1-20.4-0.1-25.6c0-5.2,0-7.8-0.1-8
			c-0.2-0.7-0.6-0.9-1.4-0.7c-0.8,0.3-1.1,0.8-0.7,1.4c0,2.5,0,5.1,0,7.7c0,2.6,0,6,0,10.1c0,4.1,0,9.1,0,14.9c0,0.7,0.3,1.1,1,1.2
			H292.7z"/>
		<path class="st1" d="M373.6,306.8c-0.7,1.1-2.2,1.9-4.7,2.4c-2.5,0.5-5,0.7-7.7,0.7c-3.2,0-6-0.3-8.1-1c-2.5-0.7-3.7-1.8-3.7-3.2
			c0.1-3.3,0.1-6,0-7.9c-0.1-2-0.2-3.5-0.4-4.5c-0.2-1-0.4-1.7-0.7-2.1c-0.3-0.3-0.4-0.5-0.5-0.5s-0.2,0-0.4,0.1
			c-0.2,0-0.5,0.2-0.9,0.6c-0.4,0.3-0.9,0.9-1.6,1.7c-0.6,0.8-1.4,1.9-2.3,3.2c-0.2,0.4-0.5,0.8-0.7,1.1c-0.2,0.3-0.5,0.7-0.7,1
			l-0.5,43.7h-0.7c-0.4,0.1-1.5,0.2-3.4,0.4c-1.8,0.2-3.8,0.3-6,0.3c-2.4,0-4.8-0.2-7.2-0.5c-2.4-0.3-4.1-1.1-5.1-2.2
			c-0.8-0.7-1-1.7-0.8-2.9c0.2-1.2,0.4-3.3,0.7-6.1c0.3-2.8,0.5-6,0.7-9.5c0.2-3.5,0.4-7.3,0.4-11.2c0.1-4,0.1-7.7,0.1-11.3
			c0-3.6-0.2-6.7-0.6-9.5c-0.3-2.7-0.8-4.7-1.4-6c-0.7-1.2-0.9-2.1-0.8-2.8c0.1-0.7,0.4-1.3,0.7-1.7c0.7-0.8,1.7-1.4,3.2-1.7
			s3.1-0.4,4.9-0.3c1.8,0.1,3.6,0.3,5.6,0.7c1.9,0.4,3.6,0.9,5.1,1.4c3.5,1.2,5.2,2.7,5,4.4v3.1c1.7-2,3.6-3.9,5.9-5.6
			c2.3-1.7,4.6-2.8,7.1-3.3c0.8-0.2,1.8-0.2,2.8-0.2c1,0,2.1,0.3,3.1,0.7c1,0.4,2,1.1,3,2.1c1,1,1.9,2.3,2.7,3.9
			c0.7,1.4,1.2,2.8,1.7,4.2c0.5,1.4,1,2.8,1.5,4.2c0.5,1.7,1.1,3.5,1.7,5.4c0.7,1.8,1.5,3.8,2.6,5.9c0.5,0.6,0.7,1.1,0.6,1.6
			S373.8,306.5,373.6,306.8z M323.6,336.8c0.6,0,1-0.3,1.1-1c0.1-0.8,0.2-1.7,0.3-2.6c0.1-0.9,0.2-1.8,0.4-2.7c0-0.8-0.3-1.2-1-1.2
			c-0.8-0.2-1.2,0.2-1.2,1c-0.2,0.9-0.3,1.8-0.3,2.7c0,0.9-0.1,1.7-0.3,2.6c-0.2,0.7,0.2,1.1,1,1.2H323.6z M324.6,327
			c0.7,0,1.1-0.3,1.1-1c0.7-6.4,1.2-12.3,1.2-17.7c0.1-5.4,0-10-0.1-13.9c-0.2-3.9-0.5-8-1-12.4c-0.2-0.7-0.6-1-1.2-1
			c-0.8,0.2-1.2,0.6-1,1.4c0.5,4.3,0.8,8.4,1,12.2c0.2,3.8,0.2,8.4,0.1,13.7c-0.1,5.3-0.5,11.1-1.2,17.4c0,0.7,0.3,1.1,1,1.2H324.6z
			 M353.7,297.8c0.7-0.3,0.9-0.7,0.8-1.2c-0.2-0.8-0.4-1.7-0.6-2.6c-0.2-0.9-0.4-1.8-0.7-2.7c-0.2-0.7-0.6-1-1.4-0.9
			c-0.8,0.3-1.1,0.8-0.8,1.4c0.3,1.9,0.7,3.7,1.1,5.2c0.2,0.7,0.6,0.9,1.4,0.7H353.7z"/>
	</g>
</g>
</svg>
