<?xml version="1.0" encoding="utf-8"?>
<!-- Generator: Adobe Illustrator 22.0.0, SVG Export Plug-In . SVG Version: 6.00 Build 0)  -->
<svg version="1.1" id="Layer_1" xmlns="http://www.w3.org/2000/svg" xmlns:xlink="http://www.w3.org/1999/xlink" x="0px" y="0px"
	 viewBox="0 0 500 500" style="enable-background:new 0 0 500 500;" xml:space="preserve">
<style type="text/css">
	.st0{fill:#CA0C32;}
	.st1{fill:#024D84;}
</style>
<g>
	<g>
		<path d="M75.4,235.9c-2.8-0.3-5.4-0.6-8-1c-0.8-25.3-1.6-51,1.7-76.6c0.6-4.5,1-9,1.5-13.5c0.6-4.7,2.5-6.7,7.2-7.5
			c7.7-1.4,12.7,3.2,12.2,10.9c-1.7,29.7-7.9,58.6-14.4,87.5C75.6,235.9,75.3,236.1,75.4,235.9z"/>
		<path d="M59.3,294.8c3.6-3.4,8.6-3.4,10.9-0.4c1,1.3,1.3,4,0.6,5.3c-1.2,2.1-9.3,1.5-11-0.8C59,297.7,59.4,295.6,59.3,294.8z"/>
		<path d="M70.2,286.5c-2.7-0.2-5.1-0.4-7.7-0.6c-0.6-3,1.2-3.9,4-3.7C69.2,282.3,71.2,283.3,70.2,286.5z"/>
		<path d="M73.7,251c-2.6-0.3-5.1-0.5-7.7-0.8c-0.8-3.3,1.6-3.8,4.2-3.6C73,246.9,75,248,73.7,251z"/>
		<path d="M73.7,256.2c-3-0.4-5.5-0.7-8.5-1c0.5-1,1-2.9,1.8-3c1.8-0.4,3.9-0.2,5.5,0.5C73.3,253,73.3,255.1,73.7,256.2z"/>
		<path d="M72.7,261.1c-2.7-0.3-5.2-0.5-7.7-0.7c-0.7-3.1,1.4-3.9,4.3-3.6C72,257,73.8,258.2,72.7,261.1z"/>
		<path d="M72.2,266.1c-2.7-0.2-5.1-0.4-7.8-0.6c-0.7-2.6,0.9-3.8,3.7-3.6C70.7,262,73.3,262.5,72.2,266.1z"/>
		<path d="M71.7,271.2c-2.8-0.2-5.2-0.5-7.8-0.7c-0.6-2.9,1.2-3.8,4-3.6C70.7,267.1,72.8,268,71.7,271.2z"/>
		<path d="M63.5,275.5c-0.7-3,1.4-3.7,4-3.5c2.6,0.2,4.9,1,3.7,4.4C68.8,276.1,66.4,275.8,63.5,275.5z"/>
		<path d="M74.7,240.9c-2.7-0.3-5.2-0.6-7.7-0.8c-0.7-3,1.3-3.8,3.9-3.6C73.5,236.7,76,237.3,74.7,240.9z"/>
		<path d="M66.4,245.1c-0.5-3.1,1.5-3.8,4.2-3.5c2.6,0.2,4.6,1.2,3.6,4.4C71.8,245.7,69.3,245.4,66.4,245.1z"/>
		<path d="M71.2,281.5c-3.1-0.4-5.4-0.7-8.4-1c0.4-0.8,0.7-2.8,1.4-2.9c1.8-0.4,3.8-0.2,5.5,0.4C70.5,278.3,70.7,280.2,71.2,281.5z"
			/>
		<path d="M62,290.7c-0.7-3.4,1.7-3.6,4-3.4c2.6,0.2,4.7,1.1,3.7,4.3C67.2,291.3,64.8,291,62,290.7z"/>
	</g>
	<g>
		<path class="st0" d="M231.1,229.1h-12.8v2.8h12.8c0.9,0,1.6-0.6,1.6-1.4C232.7,229.5,231.8,229.1,231.1,229.1z"/>
		<path class="st0" d="M231.1,266.8h-12.8v2.7l13,0.1c0.8,0,1.5-0.6,1.5-1.4C232.7,267.2,231.8,266.8,231.1,266.8z"/>
		<path class="st0" d="M265.5,245.3c-0.6,1.4-1.3,2.7-2.2,4c0.8,1.3,1.5,2.6,2.2,3.9V245.3z"/>
		<path class="st0" d="M180.6,274c0.5,0.2,1,0.3,1.6,0.5v-8.9C181.7,268.5,181.2,271.1,180.6,274z"/>
		<path class="st0" d="M140.6,163.4c5.5-3.3,11.6-5.6,18.1-8.5c-1.7-0.5-3.5-0.8-5.2-0.8c-0.9,0-1.8,0.1-2.8,0.2
			c-4.2,0.7-8.1,3-10.9,6.4c-2.3,2.8-3.5,6.1-3.3,9C137.7,167.2,138.7,164.5,140.6,163.4z"/>
		<path class="st0" d="M139.5,174.3c0.3,0,0.6,0,0.9-0.1c0.4-0.1,0.9-0.2,1.3-0.3c-1.4-0.2-2.9-0.7-4.3-1.1c0,0.1,0.1,0.2,0.1,0.3
			C138.1,174.1,138.6,174.3,139.5,174.3z"/>
		<path class="st0" d="M223,164.2c0.8-1.9,1.8-4.3,2.9-7.2c0.2-0.6,0.4-1.1,0.5-1.3c1.4-3.5,2.4-6.1,3.2-8.1
			c0.9-14.4,4.7-31.7,11.9-52.8c-8.4-1.1-17.5-2-25.9-2c-0.8,0-1.6,0-2.4,0c-2.8,20.6-11.6,40.5-13.8,45.4c-0.5,1.1-1.1,2.2-1.6,3.4
			c1.5,0.5,3,1,4.5,1.3c-2,2.9-3.3,6.8-6,8.4c-1.6,1-3.2,1.8-4.9,2.6c0,0,0,0.1,0,0.1c2.5,1.6,4.3,2.3,5.7,2.3c0.3,0,0.5,0,0.8-0.1
			c0.7-0.1,2.9-0.5,5.5-6.2l0.2-0.4c1.2-8.3,3-19,3.8-21.8l0-0.1l0-0.1c0.8-2.3,2.2-4.2,4-5.7c-0.2-0.2-0.4-0.5-0.5-0.7
			c-0.7-1-0.9-2-1-2.8c-0.6-3.5,0.4-12,1.9-14.7c1-1.8,1.8-2.9,3.8-4.4c1.4-1.1,3.3-1.9,5.4-2.2c0.8-0.1,1.5-0.2,2.3-0.2
			c4.8,0,8.3,2.5,9,6.5l0.1,0.5l0,0.2l0,0.2c0.2,2.5-1.4,9.4-1.9,11.3c-0.8,2.7-2,4.6-4,6c0.9,1,1.5,2.2,1.7,3.5c0.3,2,0,5.3-2.7,22
			C224.3,155.2,223.5,160.5,223,164.2z"/>
		<path class="st0" d="M173.3,133.7c-2,1.2-4,2.4-6.1,3.7c0.6,1.5,1.2,2.9,1.8,4.2c0.2,0.1,0.4,0.1,0.6,0.2
			C170.8,139.4,172.1,136.6,173.3,133.7z"/>
		<path class="st0" d="M392.5,154.6c-0.3,0.1-0.5,0.2-0.8,0.3c-0.7,0.8-1.4,1.5-2.2,2.3c2.1,1.9,4.2,3.7,6.1,5.3
			c0.8-4,2.6-8.2,4.9-12.2c-0.1-0.1-0.1-0.2-0.2-0.2C397.9,151.9,395.3,153.5,392.5,154.6z"/>
		<path class="st0" d="M290.8,419.7c-0.7-0.9-1.4-1.8-1.8-2.8c-3.2-6.4,2.5-26.5,6.9-37.6c4.4-10.9,16.7-32.5,26-45.8
			c-0.2,0-0.5,0.1-0.7,0.1c-2.9,0.4-6.2-1.8-9.3-2.8c0.1-0.1,0.1-0.2,0.2-0.3c-1.8,0.6-2.8,0.7-4.3,0.7c-5.7,0-8.5-3.1-9.2-6
			c-0.9-4,1.6-8.2,6.5-10.6c7.1-3.6,15.9-5.4,25.4-5.4c2.7,0,5.4,0.2,8.1,0.5c-0.3-1.7-0.5-3.5-0.8-5.3c-0.7,0.1-1.4,0.1-2.2,0.1
			l-6.5,0c-4.3,0.6-8.5,1.1-12.6,1c-1.2,0-2.4-0.4-3.6-1.1l-29.3-0.1c-9.9,0-18-7.8-18-17.5v-4c-5.9,12.7-19.1,21.6-34.4,21.6
			l-31-0.1c-9.8,0-17.7-7.7-17.9-17.2c-1.7-0.5-3.4-1-5.1-1.6c-1.4,4.7-2.6,8.6-3.9,12.7c7,3.4,13.2,5.7,18.6,9.3
			c2.7,1.8,4,5.7,6,8.6c-1.5,0.2-3,0.6-4.6,0.9c4.1,3.1,7.7,7,10.1,11.5l0,0.1l0,0.1c3.6,7,5.4,13.1,7.6,25.9l0.4,2l0.4,0.1
			c1.3,0.2,2.4,0.5,3.4,0.8c3.1-3.9,7-7.3,11.7-9.5c4.3-2.1,9.3-3.2,14.4-3.2c7.2,0,14.3,2.1,20.2,5.9c0-0.3,0.1-0.6,0.1-0.9
			c0.2-1.9,0.5-4,0.9-5.7c1.5-8.7,1.1-14.6-1.1-18.1c-5.2,1.4-12.8,5.7-18.2,10.5c-2.3,2.3-5.8,5.2-10.9,5.2c-2.7,0-5.5-0.8-9-2.6
			c-5.5-2.8-7.9-7.4-6.7-12.6c2.6-10.8,21.2-21.3,37.6-21.3c2.8,0,5.4,0.3,7.9,0.9c35.5,8.9,32.8,44.6,27.8,70.7l-0.7,3.4
			c-3.1,15.7-3.1,15.7-3.1,23.5c0,4.7,0.5,9.5,0.5,10.3c0.2,2.1,0.3,4.5-0.6,6.5C287.8,420.2,289.3,419.9,290.8,419.7z"/>
		<path class="st0" d="M301.5,269.5l7.2,0c1.1-1,2.2-2,3.4-2.7h-10.6V269.5z"/>
		<path class="st0" d="M243.7,365.6c-5.6,6.8-10,22-7.5,34.8c0.1,0.4,0.2,0.9,0.3,1.2c3.4-2.9,8.5-9.3,13.6-19.8
			c1.4-2.8,4.9-9.8,5.5-12c-1.7-3.6-5.5-7.1-7-7.5C247.1,362.4,245.4,363.5,243.7,365.6z"/>
		<path class="st0" d="M360.3,375.2C360.3,375.2,360.2,375.1,360.3,375.2c-6.6,3.9-12.3,7.9-18.5,10.8c-2.7,1.2-6.5-0.1-9.8-0.2
			c1.2-3.3,1.5-7.8,3.9-9.6c5.9-4.6,12.7-8.1,19.5-12.3c-2.1-4.3-3.8-7.7-5.6-11.4c-0.7,0.3-1.3,0.5-1.9,0.8
			c-1.7,2.7-3.5,5.7-5.5,8.8c-0.6,1.1-1.3,2.3-2.1,3.5c-1.1,1.8-2.1,3.7-2.8,4.8l-0.1,0.2l-0.1,0.2c-0.6,0.9-1.4,2.4-2.2,3.8
			c-0.7,1.2-1.3,2.4-2,3.4c-9.3,16.1-15.1,29.2-16.9,35c0.2,0,0.3,0,0.5-0.1c16.5-5.7,31.8-14,45-24.9
			C361,384.1,360.6,379.8,360.3,375.2z"/>
		<path class="st0" d="M192.7,169.6c-3.8-0.3-7.5-1-10.6-2.1c-0.9,1-1.8,2-2.8,3c0.2,0.9,0.5,1.7,0.8,2.7
			C184.5,171.9,188.6,170.6,192.7,169.6z"/>
		<path class="st0" d="M301.5,231.9h25.8c5,0,9.4,1.9,12.6,4.9c0.6-2.9,1.2-5.7,1.8-8.8c-1.9,0.7-4,1.1-6.2,1.1h-34V231.9z"/>
		<path class="st0" d="M336.4,264.4c-1.1,0.6-2.2,1.1-3.4,1.5c1.1,0,2.2,0.1,3.3,0.1C336.4,265.4,336.4,264.9,336.4,264.4z"/>
		<path class="st0" d="M365.3,323.2c0.1-0.4,0.2-0.8,0.3-1.3c-1.6,0.4-3.2,0.9-4.8,1.3c-0.1,3.3-1.2,7.4-3.4,12.5
			c2-0.8,3.8-1.6,5.6-2.4C363.6,329.8,364.4,326.4,365.3,323.2z"/>
		<path class="st0" d="M359.5,180.2c-4.1-2.7-8.2-5.2-12.1-7.8c0,0-0.1,0-0.1,0c-4.5,0-8.4-1.7-10.8-4.8l-0.1-0.1l-0.1-0.1
			c-1.1-1.6-1.9-3.5-2.3-6c-1.2-7.5,0.8-19.7,2.7-28.7c-1.4,4.3-2.9,9.4-3.8,13l0,0.1l0,0.1c-0.2,0.6-0.5,1.8-0.8,3
			c-1.5,6.6-3.6,15.6-10.4,16.7l-0.4,0.1l-0.2,0l-0.2,0c-0.3,0-0.6,0-0.9,0c-3.2,0-7-1.3-9.7-6.4c-1.8,2.7-3.8,5.3-6.2,7.6
			c-4.5,4.2-8.8,7.8-15.3,8.9c-1.2,0.2-2.4,0.3-3.8,0.3c-1,0-2-0.1-3.2-0.2c-4.6-0.5-8.5-2.1-11.6-4.7c-4,8.3-9.7,15.4-17.7,17.2
			l-0.1,0l-0.1,0l-0.8,0.1c-1,0.2-1.9,0.2-2.9,0.2c-5.5,0-12.3-2.7-16.2-13.9c-3,5-7.4,10-13.3,10.9c-0.6,0.1-1.3,0.2-2,0.2
			c-2.8,0-5.5-0.9-8.1-2.8c-1.9-1.3-3.3-3.3-4.4-5.8c-0.8,0.7-1.7,1.4-2.7,1.8c-5.9,2.6-12.4,3.7-19.6,5.6c1,4.9,1.8,8.9,2.7,13.2
			c1.5-0.2,2.9-0.4,4.3-0.6c3-2.1,6.7-3.4,10.7-3.4h30.9c15.3,0,28.5,8.9,34.4,21.6v-4.1c0-9.6,8.1-17.5,18-17.5h47
			c-0.4-0.3-0.8-0.5-1.1-0.8c-2.4-2-3.5-5.4-5.2-8.1c3.4-0.7,7.2-2.8,10.2-1.9c6.7,2,13.1,5.5,19.9,8.5
			C356.3,187.4,357.8,184.1,359.5,180.2z"/>
		<path class="st0" d="M140.1,320.9c1.5,1.1,2.7,2.5,3.4,4.1c0.2,0.5,0.4,1.5,0.6,2.8c0.6-1.1,1.1-2.1,1.7-3.2
			C143.9,323.3,142,322.1,140.1,320.9z"/>
		<path class="st0" d="M144.4,354.1c-0.1,2.6-0.2,4.9-0.3,6.4c0,0.5-0.1,1.2-0.1,2.2c0.7-2.3,1.4-4.7,2.2-7.1
			C145.6,355.1,145,354.6,144.4,354.1z"/>
		<path class="st0" d="M166.3,313.7c1.3-1.2,2.7-2.1,4.1-2.5l0.1,0l0.1,0c0.3-0.1,0.7-0.1,1.1-0.2c-1.1-0.5-2.1-1-3.2-1.5
			C167.6,310.9,167,312.3,166.3,313.7z"/>
		<path class="st0" d="M153.2,336.2c-1.6,1.9-2.2,3.7-2.1,5.4C151.7,339.8,152.4,338,153.2,336.2z"/>
		<path class="st0" d="M264.6,78.6l0,0.2c0.1,0.6,0.3,1.6-0.6,6.3c10.9,1.3,20,2.1,28.2,2.1c4.7,0,8.7-0.3,12.2-0.8
			c2.7-0.4,5-1,7-1.8c-15.4-4.8-31.4-7.4-47.4-7.7C264.3,77.4,264.5,78,264.6,78.6z"/>
		<path class="st0" d="M416.9,177.3c-1.2,0.4-2.3,0.6-3.6,0.8l-0.2,0l-0.2,0l-1.9,0.2l-0.1,0l-0.1,0c-0.5,0-1,0-1.5,0
			c-0.4,0-0.8,0-1.2,0c0.6,1.5,0.8,2.7,0.3,3.3c-5.3,7-9.2-0.5-13.2-3.2c-3.9-2.6-7.3-6-11-9c-0.7-0.6-1.9-0.7-3.4-1.2
			c-1.5,2.9-2.9,5.7-4.4,8.7c6.5,4.3,12.6,7.7,17.8,12.2c2.3,2.1,2.6,6.4,3.8,9.8c-3.3,0-7,1-9.7-0.3c-5.5-2.6-10.5-6.5-15.7-9.8
			c-0.9-0.6-2-0.8-3.1-1.2c-1.7,3.6-2.9,6.2-4.6,9.8c7.3,3.5,13.8,6,19.5,9.7c2.6,1.7,3.6,5.8,5.3,8.8c-3.5,0.5-7.3,2.1-10.4,1.2
			c-5.5-1.6-10.6-4.7-15.9-7.1c-0.8-0.4-2.1,0.1-3.8,0.2c-0.8,2.9-1.7,5.9-2.6,9.3c5.9,1.9,11.4,2.9,16.2,5.4
			c3.9,2,10.3,6.7,9.7,8.6c-2.3,8.1-8.7,3.3-13.6,2.2c-5.2-1.1-10.3-3-16-4.7c-0.9,4.4-1.5,7.5-2.2,11.3c7.7,1.3,15,2.1,21.8,4.1
			c2.7,0.8,4.5,4.4,6.7,6.7c-2.9,1.5-5.8,4.5-8.6,4.4c-7.2-0.3-14.3-1.9-22.3-3.2c-0.2,4.4-0.3,7.8-0.5,11.8
			c7.5,0.1,14.1-0.3,20.5,0.6c3.3,0.5,6.1,3.6,9.2,5.5c-3.2,2-6.3,5.2-9.7,5.7c-5.7,0.9-11.6,0.1-17.4,0.1c0,0,0,0,0,0
			c1.6,2.6,2.5,5.7,2.5,8.9c0,0.7-0.1,1.4-0.1,2.1c5.4-0.8,10.5-1.6,15.6-1.6c3.2,0,6.3,2.8,9.5,4.4c-2.6,2.3-4.8,5.9-7.8,6.7
			c-6.5,1.7-13.5,2-21,3c0.6,3.6,1.1,6.4,1.7,9.7c1.1,0.2,2,0.5,2.9,0.9c6.7-1.8,12.8-3.7,19.1-4.7c1.3-0.2,2.7,0.3,4.1,1
			c1.2-0.3,2.4-0.4,3.8-0.4c1.9,0,3.9,0.2,6.2,0.7c13.1,2.7,12.2,11.7,9.7,35.9c-0.3,3.2-0.6,7-0.8,10.9c5.8-7.2,11-14.9,15.5-23.1
			c0-0.7,0-1.4,0-2.1c0-12.1,0.8-19.9,10.5-21.1C437.5,267.5,436.5,218.7,416.9,177.3z"/>
		<path class="st0" d="M266.1,415.3c-3.1-4.9-4.7-9.1-5.6-14.7c-5.7,11.8-16.1,19.2-27.5,19.2c-4.1,0-8.1-0.9-12-2.8
			c-9.9-4.9-15.7-16.2-15.6-30.4c0-4.9,0.9-10.1,2.5-15.1c-0.3,0-0.6,0-0.9,0c-17.6-0.8-23.5-7.5-30.4-27.4
			c-0.2-0.1-0.4-0.1-0.6-0.2c-1-0.5-1.9-1-2.8-1.5c-2.6,4.3-5,9.3-7.3,14.9c0.2,0.3,0.5,0.6,0.7,0.9c1.6,2.4,1.5,6.1,2.1,9.2
			c-2.1-0.1-4.5,0.3-6.6,0.2c-2,6-3.9,12.5-5.5,19.3c-0.1,0.4-0.2,0.7-0.2,1.1c33,25.6,74.9,36.6,114.8,34.2
			C269.3,420.5,267.9,418.3,266.1,415.3z"/>
		<path class="st0" d="M113.2,319.4c2.7,0.2,5.9-0.3,8.4,0.3c2.4-1.1,5.3-1.7,8.3-1.7c4,0,7.5,1,10,2.8c-4.3-2.7-8.3-5.2-11.9-8.3
			c-2.3-2-2.5-6.3-3.6-9.6c3.2,0,7-1.1,9.6,0.2c6.1,3,11.7,7.1,18.4,11.3c1.7-3.7,3.2-6.8,4.7-10.2c-7.1-3.4-13.6-5.9-19.3-9.6
			c-2.6-1.7-3.6-5.8-5.4-8.8c3.5-0.5,7.4-2.2,10.5-1.2c6.4,2,12.4,5.4,19.3,8.5c1.2-4.3,2-7.3,3-11.1c-7.5-2.4-14.6-4-21.2-6.9
			c-2.4-1.1-3.5-5.2-5.2-7.9c2.7-1.1,5.6-3.2,8.2-2.9c5,0.7,9.8,2.8,14.7,4.2c2.3,0.6,4.7,0.8,7.6,1.3c0.5-3.8,1-6.9,1.5-10.6
			c-7.8-1.4-15.1-2.1-21.9-4.1c-2.5-0.8-4.1-4.7-6.1-7.1c2.6-1.4,5.2-4,7.7-3.8c7.5,0.4,14.9,1.8,22.8,2.9c0.2-4.4,0.4-7.5,0.7-11.5
			c-7.5-0.2-14.5,0.2-21.2-0.8c-3.1-0.5-5.6-3.9-8.5-6c2.7-1.8,5.3-4.9,8.2-5.2c7-0.8,14.2-0.3,22.1-0.3c-0.4-4.4-0.8-7.4-1.2-11.3
			c-7.6,0.9-14.4,2.2-21.2,2.1c-2.8,0-5.6-3-8.4-4.6c2.3-2.2,4.4-5.7,7.1-6.4c6.9-1.8,14.1-2.4,21.8-3.5c-0.8-4.2-1.4-7.2-2.1-11
			c-7.1,1.8-13.3,3.9-19.7,4.7c-3.2,0.4-6.7-1.6-10.1-2.6c0.1-0.1,0.2-0.3,0.4-0.4c-0.9,0.1-1.9,0.1-2.8,0.1c-1.5,0-3-0.1-4.5-0.2
			c-0.1,1.7-0.3,4-0.6,7.4c-1.4,16.1-6.9,26.5-14.7,27.8c-0.5,0.1-1,0.1-1.5,0.1c-4.6,0-10-3.6-11.7-13.8c-0.4-2.6-0.6-5.3-0.5-8.6
			l0-4.1c0.1-4.8,0.3-12.6,0.5-15.5l0.3-4.7c0.1-2.2,0.3-4.5,0.4-6.7c-22.5,44.8-23.6,97.6-7.2,139.8c9.2,5,11.3,13.8,11.1,22.7
			c0.3,0.6,0.7,1.1,1,1.7c1.1-4,2.4-7.5,3.9-10.2C114.1,323.8,113.8,321.4,113.2,319.4z"/>
		<path class="st0" d="M163,125.7c4.2-2.6,8.3-5.9,13-7.6c1-0.4,2.2-0.7,3.4-1.1c1.8-5.6,3.5-11.5,4.8-17.2c-0.1,0-0.3,0.1-0.4,0.1
			c-0.7,0.1-1.5,0.2-2.2,0.2c-2,0-3.8-0.4-5.2-1.2c-3.8,2.1-7.5,4.3-11.2,6.6C151.6,114.4,151.5,115.1,163,125.7z"/>
		<path class="st0" d="M355.4,148.9L355.4,148.9c0.7-1.7,1.2-3,1.6-4.3c-0.5-0.5-1-1-1.4-1.5c-0.6,3.1-1,5.8-1.2,8.2
			C354.8,150.3,355.1,149.5,355.4,148.9L355.4,148.9z"/>
		<path class="st0" d="M139.9,139.7c3.6-2.3,7.4-4.5,11.2-6.9c-2.3-3.8-4.1-6.9-6.3-10.7c-0.2,0.2-0.4,0.3-0.6,0.5
			c-1.3,4.7-2.5,9.2-3.5,13.3L139.9,139.7z"/>
		<path class="st0" d="M389.5,135.5c-1.8,1.5-3.4,2.7-4.9,3.5l-0.1,0l-0.1,0l0,0c0.5,2.6,0.9,3.6,1.1,4c0,0,0,0,0,0c0,0,0.1,0,0.1,0
			c1.7-1.9,3.5-3.8,5.3-5.8C390.5,136.7,390,136.1,389.5,135.5z"/>
		<path class="st0" d="M357.4,134c0.9-0.1,1.8-0.1,2.6-0.1c0.6-2.4,1.3-5.1,1.7-6.5c0.1-0.6,0.3-1.5,0.4-2L362,125l0.3-0.9
			c0.6-3.8,1.7-7.7,3.1-11.5c-1.4-1.1-2.8-2.1-4.2-3.1C361.1,114.8,359.9,122.6,357.4,134z"/>
		<path class="st0" d="M372.6,159c-1.6-1.5-3.2-2.8-4.7-4.2c-2.2,5.5-4.4,9.2-6.9,11.8c1.7,1.1,3.4,2.3,5.1,3.4
			C368.7,165.6,370.7,162.3,372.6,159z"/>
		<path class="st0" d="M286.7,162.6c4.6-1.1,15-15.4,17.8-23.4c0.9-2.6,1.7-4.8,2.5-6.5c0.2-3.5,0.4-6.6,0.7-9.2
			c-0.9,2.4-2.9,4.1-5.4,4.5c-0.4,0.1-0.8,0.1-1.2,0.1c-3.2,0-6.4-2-8.3-5.2c-5.4,9.1-8.5,23-7.5,33.9l0.3,2.4
			C286,161.3,286.5,162.3,286.7,162.6z"/>
		<path class="st0" d="M260.9,97.7c-0.6,2.1-1.2,4.1-1.8,6.2c-4.8,16.6-9.7,33.7-9.6,51c0.1,7.2,0.4,12.7,1,16.2
			c0.2,1,0.3,1.7,0.5,2.4c3.2-4.6,8.1-16.5,11.8-27.8c0.2-1.9,0.5-3.8,0.9-5.8c2.4-11.7,7.4-21.8,14.1-28.6
			c3.7-3.6,7.4-5.7,11.4-6.3c0.8-0.1,1.6-0.2,2.5-0.2c1.7,0,3.4,0.3,5.3,0.8c5.7,1.7,10.1,6.7,11,12.5l0,0.2l0,0.2l0.1,0.9
			c0.1-0.8,0.2-1.4,0.2-1.5c0.9-5.9,2-11.5,3.6-17.4c-0.1,0-0.1,0-0.2,0c-3.9,0.6-8.2,1-13.1,1C287.1,101.4,274.4,99.6,260.9,97.7z"
			/>
		<path class="st0" d="M245.7,82.9c1-2.5,1.9-4.2,2.9-5.6c-7.6,0.6-15.3,1.6-22.9,3.2C232.2,81.2,239,82,245.7,82.9z"/>
	</g>
	<g>
		<g>
			<path class="st1" d="M78.7,419.3c-25.1-3.6-35.5-28.5-27.9-65.9c5.7-27.4,21.3-43.9,38.2-40.5c13.7,2.7,18.2,10.6,16,28.3
				c-1.3,11.2-2.9,14.3-7.4,14.1c-4.6,0-5.7-1.5-4.2-6.1c1.9-5.5,0.8-16-2.1-22.2c-1.3-3-1.7-2.9-5.5,3.8
				c-14.8,26-17.5,65.6-5.1,77.7c5.1,5.1,7.4,4.9,14.4-2.3c7.8-7.6,10.6-13.3,17.9-34.2c3.4-10.3,4.2-11.2,5.9-8.4
				c0.8,1-2.3,15.6-5.3,26.6C107.2,412.1,95.6,421.6,78.7,419.3z"/>
			<path class="st1" d="M112.5,384.5c-2.9-20.7,0.8-50.2,7.2-58.3c4.6-5.3,17.3-4.9,19.8,0.6c0.8,1.7,1,22.4,0.2,33.5
				c-0.2,2.7-0.4,12.2-0.4,21.3l-0.2,16.7l4.2-16.7c9.7-37.8,20.9-63.9,28.3-66.1c8.9-2.5,22,4.8,27.9,15.4
				c3.2,6.3,4.9,11.6,7.2,24.7l1,4.9l3.4,0.6c10.1,1.5,6.8,6.5-4,6.1c-15.8-0.8-20.5-5.7-28.1-29.5c-2.9-8.7-2.5-8.6-7.2-1.5
				c-8,11.8-14.8,29.5-19.6,49.6c-4.6,20.1-8,31.2-9.5,31.7c-0.2,0.2-0.8,0.4-1,0.8c-0.8,1.1-3.4,1.9-5.9,1.7
				C126.4,419.1,115.2,402,112.5,384.5z"/>
			<path class="st1" d="M228.9,351.8c11-5.3,26-2.7,35,6.1c1.3,1.5,1.1,1.9,1.7-4.4c0.4-2.1,0.8-6.1,1.3-8.7
				c1.9-11.2,1-18.2-2.7-22.6c-1-1.1-1.1-1.1-2.1-1c-6.3,1.1-15.4,6.3-21.9,12c-4.8,4.8-8.6,5.1-14.8,1.9
				c-16.3-8.4,14.6-30,35.7-24.9c24.3,6.1,32.1,26.6,24.5,65.6c-3.8,19.6-3.8,19-3.8,27.7c0,4.4,0.4,8.9,0.6,10.8
				c0.6,5.1-0.6,6.5-5.7,5.5c-2.7-0.6-3.8-1.5-6.8-6.8c-4.4-7-5.5-12.2-6.3-25.1l-0.6-6.3l-1.5,4.4c-1,2.5-2.3,6.5-3.4,8.9
				c-6.1,16.9-21.5,24.7-35.2,18.1C202.8,403.1,206.6,362.3,228.9,351.8z M231.9,401.2c1.3,6.5,1.9,7,5.1,5.3
				c5.1-3,11.6-11.8,16.9-22.8c5.5-11,6.5-13.7,5.9-15c-2.1-5.1-8-10.8-11.2-10.8C237.8,357.9,228.3,382.8,231.9,401.2z"/>
			<path class="st1" d="M292.9,414.9c-1.9-3.8,1.5-20,7-34c4.9-12.4,21.1-39.9,30-51.1c2.1-2.7,5.9-7.8,7.2-9.9
				c1-1.5-12.2,0.8-18.2,3.2c-8.7,3.6-9.1,3.8-11.2,3.8c-6.3,0-6.8-5.3-0.8-8.4c9.1-4.6,21.3-6.1,34-4.2c2.5,0.2,5.9,0.6,7.6,1
				c12.7,1.3,10.3,12.9-9.9,44.5c-1.5,2.7-3.8,6.5-4.9,8.6c-1.3,1.9-3,5.3-4.4,7.4c-10.1,17.5-18.1,35-18.1,39.9
				c0,1.9,1.9,2.3,8.6,1.3c1.9-0.2,5.1-0.8,7-0.8c1.9-0.2,5.1-0.8,7.2-1c4.6-0.8,6.3-0.2,5.1,1.9c-1.7,3.2-29.6,8-35.9,5.9
				C299,421.8,294.6,418.3,292.9,414.9z"/>
			<path class="st1" d="M384.9,441.7c0.2-4.8,3.2-7.6,8.2-7.6c4,0,4.4,0.6,4.2,6.1c-0.2,4.2,1.1,7,3,7c2.1,0,8.2-10.6,10.1-16.9
				c4.6-16.7,6.5-31.4,6.3-52.1v-6.8l-0.8,5.1c-4,26.6-10.8,36.3-26.2,36.5c-11,0-19.6-7.8-22.6-20.7c-4.4-18.2-3.2-46.9,2.5-68
				c2.7-10.3,7.4-13.1,17.1-11c8.4,1.7,8.9,4.9,6.3,31.2c-1.7,16.2-1.5,47.5,0.2,53c0.2,0.2,0.6,1.7,1.1,3.2c1,3.4,1.1,3.6,3.2,1.1
				c5.5-5.9,10.5-18.6,14.3-36.5c4.4-22.4,4.8-24.5,4.6-34.8c0-14.8,1.3-17.1,9.9-16.9c6.7,0,8.7,1.9,11.6,10.5
				c11.2,34.2,4.2,92.4-14.3,116.3c-6.1,8.2-19.8,14.3-27.6,12.4C391.2,451.6,384.9,445.3,384.9,441.7z"/>
		</g>
	</g>
	<g>
		<g>
			<path class="st1" d="M109.6,210.7c-0.4-2.3-0.5-4.9-0.4-7.8l0-4.1c0.1-4.8,0.3-12.6,0.5-15.3c1.3-20.8,2.8-42.8,2.2-63.6
				l-0.1-3.2c0.2-6-1.3-20.2-2.8-29c-0.4-2.6-0.9-4.8-1.3-6c-5.2-17.3-14.3-23.1-23.3-21.6c-12.1,2-24,17.2-25.3,33.3
				c-0.3,4-0.2,7.5,0.3,10.5c1.5,9.2,6.3,14.2,11.2,13.4c4.9-0.8,9.9-7.4,12.2-21c0.4-2.6,1-5.2,1.3-5.9c1-2.7,3.4-4.5,6.5-5
				l0.5-0.1c2.2-0.4,4.1,0.2,5.5,1.5c0.7,0.6,0.9,1.4,1.1,2.6c0.2,1.2,0.3,2.8,0.3,5.2c-0.2,5.7-1.8,11.6-5,17.7
				c-4.1,7.9-11.4,12.6-19.2,13.8c-12.2,2-25.4-4.6-28-20.4c-0.4-2.5-0.6-5.1-0.5-8c1.1-21.6,18-40.9,37.7-44.1
				c8.5-1.4,17.7,0.4,26.3,6.2c4,2.7,6.7,5.4,9.9,9.9c4.8,6.7,7.8,14.1,10.3,25.4l0.6,2.9c0.9,5.6,2.1,16.2,2.1,18l0,0.7l0.2,0.3
				c0.1,0,0.6-0.9,1.1-2.7c4.1-14.8,9.1-30.5,18.2-43.2c7.9-11,19.4-22.2,30.8-24.1c7.1-1.2,14.3,1.3,20.5,9.8
				c3.1,4.2,4.9,9.2,5.8,14.9c3.4,21.2-6.6,49.6-13.6,64.7c-2.7,5.8-6.3,12.6-8.6,16.8l-1.4,2.4c5.7,3.9,9.1,5.8,13.1,5.2
				c3.6-0.6,6.4-3.4,8.8-8.6l0.5-1.1c0.6-0.9,1.8-2.6,4-2.9l1.7,0c2,0.2,2.7,1.2,3,2.6c0.2,1.5-0.4,3.6-1,4.8
				c-0.1,0.2-0.2,0.5-0.5,0.6c-1.3,2.3-2.8,4.3-4.3,5.4c-1.9,1.6-4.9,2.6-8.4,3.2c-6.2,1-13.8,0.4-19.3-1.8l-2.1-0.8
				c-10.6,12-20.2,20.5-35.3,23c-4.1,0.7-8.3,0.8-12.8,0.3l-2.7-0.1l-0.1,0c-0.1,0-0.4,3.3-1.1,11.6c-1.3,15.3-6.4,23-11.1,23.8
				C114.1,221.4,110.8,218,109.6,210.7z M161.3,164.4c2.2-2.9,6.4-9.1,6.3-9.6c0-0.1-1.1-0.9-2.4-1.7c-5.3-3.1-10.5-3.8-15.2-3
				c-11.1,1.8-19.1,12.4-17.7,21.2c0.2,1.4,0.7,2.7,1.3,3.9c1.6,3.1,4.3,4,7.5,3.4C148.6,177.3,158.2,168.2,161.3,164.4z
				 M172.5,145.7c9.6-18.2,21.2-54.5,18.7-73.9l-0.4-2.7c-1.9-11.8-5.9-15.5-10.9-14.7c-7.8,1.3-17.6,14.1-23.8,24.7
				c-9.1,15.4-15.4,38.6-19.7,55.8l-3.3,14.2l0.1,0c0.3,0,1.6-0.7,2.9-1.3c3.8-1.9,7.8-3.1,11.8-3.8c3.8-0.6,7.5-0.8,11.1-0.3
				c3.2,0.5,7.9,1.5,10.3,2.6l2.2,0.8L172.5,145.7z"/>
			<path class="st1" d="M211.7,179.7c-2.2-1.6-3.7-4.8-4.5-9.2c-0.8-4.7-0.6-10.8,0.3-18c1.2-9.1,3.2-20.8,4-23.2
				c1.2-3.3,4-5,6.7-5.5c2.7-0.4,5.3,0.4,5.6,2.3c0.2,1.5-0.5,6.7-2.7,20.6c-2.4,14.6-3.1,20.7-2.9,24.5l0.2,1.9
				c0.4,2.5,1.1,3.3,1.9,3.2c3.4-0.6,9.3-17.2,10.1-19.1c4.9-12.5,4.9-12.4,5.8-13.1c0.4-0.3,0.9-0.6,1.3-0.6c0.7-0.1,1.3,0.2,1.4,1
				c0,0.3,0.1,0.7-0.1,1.1c-0.1,0.9-0.7,2.4-1.7,5.2l-4,11.9c-2.1,6.3-7.5,17.4-14.7,18.6C216.5,181.9,214.1,181.4,211.7,179.7z
				 M214.6,119.1c-0.2-0.3-0.2-0.5-0.3-1.1c-0.5-3,0.6-10.4,1.4-11.9c0.8-1.4,1.1-1.9,2.6-3c0.9-0.7,2.2-1.2,3.4-1.4
				c2.9-0.5,5.8,0.3,6.2,2.7l0.1,0.5c0.1,1.4-1.1,7.4-1.8,9.9c-0.6,2.2-1.6,3.4-3.4,4.2c-0.8,0.4-2.3,0.8-3.6,1
				C217.3,120.4,215.3,120.4,214.6,119.1z"/>
			<path class="st1" d="M250.9,184.3c-10.2,1.7-14.5-8.2-16.1-18.5c-1-5.9-1-12-0.9-15.8c0.7-18,6.6-38.6,12.6-56.1l0.8-2.7
				c-16.4-2.3-32.5-3.9-46-1.7c-5.8,0.9-11.1,2.7-15.8,5.3c-0.8,0.4-1.6,0.7-2.4,0.8c-3,0.5-5.9-0.6-6.1-2.1c-0.1-0.4,0-0.7,0.4-1.2
				c3.1-4.3,8.7-6.6,15.7-7.8c14.3-2.3,34.9,0.4,55.5,3.1c2.3-6,3.7-8.5,5.3-9.6c0.6-0.4,1.4-0.8,2.2-0.9c1.9-0.3,3.9,0.5,4.2,2.3
				l0,0.1c0.2,1-0.6,5-1.6,9.4c17.4,2.1,34.2,3.7,46.4,1.8c12.9-2.1,20.7-8.2,19-22l-0.5-3.2c1.6-0.8,2.3-1.2,3.9-1.5
				c4.7-0.8,8.3,3,9.1,8c0.4,2.5,0,5.2-1.1,7.8c-4.6,9.6-13.3,14.4-24.3,16.2c-14.8,2.4-33.9-0.5-53.4-3.3l-0.3,1.5
				c-5.5,19.8-12.3,39.8-12.1,60.7c0.1,7.5,0.4,13.1,1.1,16.9c0.9,5.8,2.4,7.9,4.3,7.6c6.2-1,16.1-30.1,19.3-41.9
				c0.5-1.9,1.8-3.4,3.5-3.7c0.8-0.1,1.8,0,2.7,0.7c0.3,0.2,0.5,0.3,0.5,0.8c0.2,1-0.4,2.7-1.7,7.8c-3,11.9-8.9,38-23.2,41.2
				L250.9,184.3z"/>
			<path class="st1" d="M282.3,171.6c-9.6-1-13.8-7.4-15-15c-0.8-5.1-0.3-10.7,0.7-15.8c2.2-10.8,6.7-20.1,12.9-26.4
				c2.9-2.9,5.9-4.6,9-5.1c1.9-0.3,3.9-0.1,5.9,0.5c4,1.2,7.3,4.9,8,9l0.1,1.7c0,2-1,3.1-2.3,3.3c-1.8,0.3-4.1-1-5.4-3.6
				c-1-2.1-1.7-4.4-3.1-4.2c-0.7,0.1-1.7,1-2.9,2.9c-6.6,9.8-10.5,25.8-9.3,38.5l0.3,2.5c0.9,5.8,3.2,7.7,6,7.2
				c7.4-1.2,18.8-18.9,21.4-26.3c0.9-2.8,1.8-5.1,2.7-6.8c0.7-1.1,2.1-3.6,3.7-3.9c0.4-0.1,0.8,0,1.3,0.2c0.5,0.2,0.7,0.7,0.8,1.4
				c0.2,1.1,0,2.5-0.4,3.6c-0.4,1.6-1.1,3.6-1.4,4.3c-3.6,8.5-7.4,17.7-14.3,24.2c-4.4,4.1-7.9,6.9-13,7.8
				C286.3,171.8,284.5,171.8,282.3,171.6z"/>
			<path class="st1" d="M339.9,164.9c-0.7-1-1.2-2.3-1.5-4.1c-1.6-10,3.5-30.7,4.8-36.6c1.7-7.9,2.8-15.1,2.5-16.5l0-0.1l-0.2-0.1
				c-1.1,0.2-5.9,6.5-7.9,10.6c-0.7,1.5-1.8,4-2.3,5.6c-1.4,3.3-4.9,14.8-6.6,21c-1.2,3.7-2.8,16-7.7,16.8l-0.4,0.1
				c-5,0.4-7.5-4.6-8.6-11.3c-1.9-11.5,0.2-28.1,0.8-31.7c1.8-12.1,4.8-22.8,9.3-35.4c4.8-12.8,8.2-19,13-24.3
				c4-4.3,7.5-6.6,10.6-7.1c4.5-0.7,7.7,2.3,8.6,7.6c0.7,4.3,0.1,9.9-2.5,16.5c-4.1,10.3-14.2,29.7-25.7,48.6l-3.3,5.8
				c-0.3,1.3-1.1,12.3-0.9,13.8c0.1,0,1.2-2.4,2.2-5.7c3.4-10.6,6.6-18.4,10-24.3c3.5-6.2,7.1-10,11.1-12.1c1.1-0.5,2.2-0.9,3.3-1.1
				c2.9-0.5,5.7,0.2,7.4,3.2c0.4,0.5,0.5,1.3,0.7,2.3c0.7,4.1-0.3,12.6-3.7,27.7c-2.7,12.6-3.6,19.5-3.2,26.3l0.1,1.7
				c0.2,1.5,0.8,2.1,1.5,2c2.6-0.4,7.6-12.1,8.1-13.5c1.9-4.8,2.5-6.9,4.4-13.8c0.7-2.8,1.6-6.5,2.1-8c0.3-1.5,0.7-2.9,0.6-3.2
				l0.6-1.6c0.8-1.3,1.9-2.1,3-2.3c0.7-0.1,1.3,0.1,1.8,0.6c0.3,0.4,0.5,0.6,0.6,1.2c0.2,1.1-0.4,3.5-2.3,10.2
				c-5.8,21.3-9.7,29.4-15.5,32.7c-1.4,0.8-3.2,1.4-5,1.7C346.2,168.4,342.2,167.8,339.9,164.9z M328.4,110.5
				c12.5-22.2,17.4-33.2,19-42c0.6-3.3,0.7-6.2,0.4-8.1c-0.3-1.7-0.8-2.5-1.8-2.4c-1.1,0.2-2.9,2.3-5.2,7.1
				c-2.9,5.7-9.3,24.1-12.2,34.9c-1.1,3.7-4.1,16.6-4,17C324.6,116.9,325.4,115.6,328.4,110.5z"/>
			<path class="st1" d="M369.6,147.1c-1.7-2.4-2.7-5.3-3.3-8.8c-2.6-16.2,6.9-41,20.9-43.3c2.5-0.4,5.2-0.1,7.9,1.1
				c4.1,1.7,6.1,4.5,6.7,7.9c1.7,10.6-11.3,26.8-19.3,31.2l-2.9,1.5l0.4,2.5c0.7,4.5,1.9,9,6.3,8.3c1-0.2,1.9-0.5,3.1-1.1
				c8-3.8,13-10.4,17.6-22.6c2-5.3,2.4-6.2,3.6-8.1c0.8-1.1,2-1.9,2.9-2c1-0.2,1.7,0.3,1.9,1.5c0.1,0.8,0,2-0.4,3.5
				c-1.3,4.3-2.8,8.5-5,12.5c-4.3,8.5-10.4,15.8-19.1,19.3c-2.5,1-4.7,1.6-6.7,1.9C377.3,153.6,372.6,151.2,369.6,147.1z
				 M385.4,127.7c3.8-3.4,6.9-9,8.2-14.5c1-4.1,1.4-7.3,1-9.3c-0.3-2.1-1.3-3-2.6-2.8c-2.3,0.4-5.9,4.6-9.6,13.7
				c-1.1,3-3,13-2.9,16.1l0.1,1.4C382,130.5,383.3,129.5,385.4,127.7z"/>
			<path class="st1" d="M410.7,174c-7.3,0.3-10.4-2.1-11-6c-1.5-9.2,11.2-26.4,16-31.4l2.4-2.5c-1.5-6.7-2.1-8.5-5.3-15.2
				c-2-4.3-3.6-8.4-4.3-12.4c-1-6.2,0.4-12.1,6.8-17.8c2.8-2.6,6.1-4.1,9.1-4.6c6.2-1,11.9,1.9,12.7,7.1c0.8,4.8-2.5,11.7-13.2,19.4
				l-1.6,1.3c0.1,0.7,4.3,9.9,5.1,11.6l0.6,1.3c6.1-5.2,13.9-12.6,18.4-18.9c1.6-2.2,3.5-3.5,5.2-3.8c1.4-0.2,2.6,0.3,2.8,1.5
				c0.2,1.4-0.6,3.3-3.1,6.1c-6,6.6-18.2,16.2-21,18.9c-0.4,0.3-0.5,0.5-0.3,1.3l0.5,2.3c0.4,1.5,0.6,2.9,0.9,4.4
				c1.3,8.1,0.7,16.5-1.7,23.4c-2.9,8.1-10.3,12.7-17.1,13.8L410.7,174z M416.7,159.2c2-5,3-13.5,2.3-17.9l-0.2-1.2l-2.9,4
				c-6.7,9.7-8.8,18.1-8.1,22.2c0.3,1.8,1,2.7,2.2,2.5C411.7,168.4,414.3,165.6,416.7,159.2z M424.9,102c0.9-1.3,4.8-8.4,4.4-11.3
				c-0.1-0.5-0.3-0.9-0.8-1.1l-0.6,0c-2.9,0.5-7.9,11.2-7.2,15.6l0.2,1.4C421.8,105.6,422.4,105.5,424.9,102z"/>
		</g>
	</g>
	<g>
		<path d="M186.6,211.6c0-7.3,6-13.1,13.7-13.1h30.9c18.4,0,33.3,14.3,33.3,31.9c0,6.9-2.3,13.5-6.4,18.9c4.1,5.2,6.4,11.8,6.4,18.9
			c0,17.5-14.9,31.9-33.3,31.9l-31-0.1c-7.5,0-13.5-5.9-13.5-13.1V211.6z M196.8,202.2c5.2-1,10.9,0,16.2-0.1l18,0.1
			c16-0.4,30.2,13,30.6,28.3c1-11.9-7.1-23.6-18.4-28c-8.9-3.8-20.8-2-30.2-2.2c-3.8,0-8.2,0.1-12,0.1c-1.8,0-3.7,0.4-5.3,1
			c-4.1,1.8-6.7,5.9-6.4,10.2C189.4,207.3,192.6,203.4,196.8,202.2z M227.9,239.9c6.3,0.7,12.8-2.7,11.9-9.4
			c-1.1,5.9-6,7.9-11.9,7.3c-5.6,0-11.2,0.1-16.8,1C216.8,239.6,222.3,239.8,227.9,239.9z M227.9,277.6c6.3,0.7,12.8-2.7,11.9-9.4
			c-1.1,5.9-6,7.9-11.9,7.3c-5.6,0-11.2,0.1-16.8,0.9C216.8,277.3,222.3,277.5,227.9,277.6z M237.1,230.5c0-3.3-2.6-5.8-6-5.8h-17.2
			v11.5h17.2C234.5,236.2,237.1,233.6,237.1,230.5z M231.2,273.9c3.3,0,5.9-2.6,5.9-5.8c0-3.3-2.6-5.8-6-5.8h-17.2v11.4L231.2,273.9
			z M261.7,268.2c1.6-6.9-1.2-14.7-7.1-18.9C257.8,255.4,260.2,261.5,261.7,268.2z"/>
		<path d="M297.2,236.2h30.2c7.6,0,13.7,5.8,13.7,13.1c0,7.2-6,13.1-13.7,13.1h-30.2v11.4l38.4,0.1c7.6,0,13.7,5.9,13.7,13.1
			c0,7.2-6,13.1-13.7,13.1l-52-0.1c-7.5,0-13.7-5.9-13.7-13.1v-75.3c0-7.3,6.1-13.1,13.7-13.1h52c7.6,0,13.7,5.8,13.7,13.1
			c0,7.2-6,13.1-13.7,13.1h-38.4V236.2z M287.9,201.9c7.2,0.1,14.5,0.3,21.7,0.3c7.1,0,14.3-0.1,21.6-0.3c7.4-1,14.6,1.7,15.3,9.7
			c0.5-6.7-6-11.9-12.6-11.3c-8.2-0.3-16.2-0.3-24.3-0.3c-7.2,0-14.5,0-21.7,0.1c-7.9-0.5-15.4,2.7-15.3,11.4
			C273.3,203.5,280.5,201,287.9,201.9z M325.7,239.8c6.3-0.8,12,3.5,12.6,9.6c0.8-5.8-4.2-11.1-10.1-11.4
			c-11.2-0.4-22.5-0.1-33.7,0.9C304.8,239.8,315.3,239.9,325.7,239.8z M336.2,277.5c5.5,0,9.8,4.5,10.2,9.6c0.7-5.4-4-10.7-9.6-11.3
			c-1.5-0.3-4.5-0.3-6-0.3c-12.2-0.1-24.3,0-36.5,0.9C308.4,277.6,322.3,277.6,336.2,277.5z"/>
	</g>
</g>
</svg>
