<?xml version="1.0" encoding="utf-8"?>
<!-- Generator: Adobe Illustrator 22.0.0, SVG Export Plug-In . SVG Version: 6.00 Build 0)  -->
<svg version="1.1" id="Layer_1" xmlns="http://www.w3.org/2000/svg" xmlns:xlink="http://www.w3.org/1999/xlink" x="0px" y="0px"
	 viewBox="0 0 500 500" style="enable-background:new 0 0 500 500;" xml:space="preserve">
<style type="text/css">
	.st0{fill:#024D84;}
	.st1{fill:#CA0C32;}
</style>
<g>
	<g>
		<g>
			<path class="st0" d="M301.6,297.9l10.3-1.1c-0.7-0.3-1.6-0.5-2.6-0.5c-0.8,0-2.2,0-4.2,0c-1.9,0-3.8,0-5.8,0c0-3,0-7.6,0-13.7
				c0-1.6,0-3.1,0-4.7l-0.4-0.2c-1.1-0.5-2.1-1-2.8-1.1c-0.6,0.4-1.2,0.6-1.7,0.7c-1.3,0.3-2.7,0.5-4,0.8l-0.9,0.2l-1.3,0.2
				l-0.8,0.8c0,1.3,0,2.5,0,3.8c0,6.2,0,10.8,0,13.9c0,2.1,0.6,3.7,1.9,4.7c1.2,1,2.6,1.6,4.2,1.6c0.1,0,0.9,0,2.3,0
				c1.4,0,3,0,4.9,0c1.9,0,3.7,0,5.4,0c0.8,0,1.5,0,2,0c0,0,0,0,0,0L301.6,297.9z"/>
			<path class="st0" d="M315.4,376.8c-0.2-2.5-0.2-5.3-0.1-8.5c0.1-3.1,0.2-6.4,0.5-9.8c0.2-3.4,0.5-6.7,0.7-9.8
				c0.3-3.4,0.5-6.3,0.7-8.9c-2.2-0.5-4.5-1-6.7-1.6c-7.2-2-13.8-5.2-19.7-9.4c-2.9,2-5.5,4.4-7.9,7.2c-0.1-0.6-0.1-1.1-0.1-1.5
				c0-0.4,0-0.8-0.1-1.2c-0.1-0.9-0.4-1.8-0.8-2.6c1,4.9,1.7,9.7,2.2,14.5c0.4-0.7,0.8-1.5,1.2-2.2c0.9-1.4,1.7-2.6,2.7-3.7
				c0.9-1,1.9-1.8,2.8-2.3c0.9-0.5,1.8-0.7,2.7-0.5c0.8,0.2,1.4,1.7,1.8,4.5c0.4,2.8,0.5,6.5,0.5,11c0,4.5-0.3,9.6-0.7,15.1
				c-0.4,5.6-0.9,11.2-1.6,16.8c-0.2,1.4,0.9,2.4,3.3,3.2c2.2,0.7,4.8,1,7.9,1c2.6,0,5.1-0.2,7.6-0.7c2.4-0.5,4-1.3,4.6-2.3
				c0.2-0.3,0.3-0.7,0.4-1.2c0.1-0.5-0.1-1-0.6-1.6C316,381.2,315.6,379.3,315.4,376.8z M299.2,377.5c-0.1,0.9-0.2,1.8-0.2,2.7
				c-0.1,0.9-0.2,1.8-0.4,2.6c-0.2,0.7-0.5,1-1.1,1h-0.1c-0.8-0.2-1.1-0.6-1-1.2c0.2-0.9,0.3-1.7,0.4-2.6c0.1-0.8,0.2-1.7,0.2-2.6
				c0.2-0.7,0.6-1.1,1.2-1.1C299,376.5,299.3,376.9,299.2,377.5z M301.2,354.7c-0.1,4.4-0.5,9.7-1.2,16c0,0.7-0.4,1-1.1,1h-0.1
				c-0.7-0.2-1-0.6-1-1.2c0.7-6.2,1.1-11.4,1.2-15.7c0.1-4.3,0-7.7-0.1-10.4c-0.2-2.7-0.5-5.3-1-7.8c-0.3-0.6-0.1-1,0.7-1.3
				c0.7-0.2,1.2,0.1,1.3,0.7c0,0.1,0.1,0.8,0.4,2c0.3,1.3,0.5,3.3,0.7,6C301.3,346.7,301.3,350.3,301.2,354.7z"/>
			<path class="st0" d="M219.1,235.3c-0.3-1.6-0.7-3.2-0.9-4.9c-2.2-12.9-2-25,0.4-36c-0.9-17.7,1.1-41.1,6-66.9
				c2.2-11.4,2.2-12.4,2.8-17.3c1.6-12-0.6-15.1-9.8-15.1c-13.8,0-20.1,12.2-25.1,48.4C185.2,195.6,195.3,230,219.1,235.3z"/>
			<path class="st0" d="M292.5,250c0.2,0.1,0.4,0.2,0.6,0.4c0.3,0.3,0.5,0.8,0.5,1.2v9.2c0.8,0.2,1.6,0.6,2.3,1.2
				c0.8-1.1,1.8-1.6,2.3-1.8l1.1-0.6c0-3.2,0-5.5,0-6.8c0-2.7-1-4.4-3-5.3c-0.3-0.2-0.6-0.3-1-0.4C294.3,248,293.4,249,292.5,250z"
				/>
			<path class="st0" d="M260.5,275.4v-2.5c0-0.5,0.2-0.8,0.5-1.2c0.3-0.4,0.8-0.5,1.2-0.5c0.5,0,0.9,0.1,1.2,0.5
				c0.3,0.3,0.5,0.7,0.5,1.2v2.5c0,0.5-0.2,0.9-0.5,1.2s-0.8,0.5-1.2,0.5c-0.4,0-0.8-0.2-1.1-0.4c0.4,0.9,0.9,1.7,1.3,2.6
				c1.1,2.3,2.3,4.6,3.4,6.8c0.1,0.3,0.3,0.5,0.4,0.8c-1.1-9.5,0.1-19.1,3.5-28c0-2.9,0-4.9,0-6.1c0-2.7-1-4.4-3-5.3
				c-1.9-1-4-1-5.9-0.1c-2,0.9-3,2.7-3,5.5c0,2.5,0,6.6,0,12.3c0,1.5,0,3.1,0,4.7C258.7,271.7,259.6,273.6,260.5,275.4
				C260.6,275.4,260.5,275.4,260.5,275.4z M260.5,251.6c0-0.5,0.2-0.9,0.5-1.2s0.8-0.5,1.2-0.5c0.5,0,0.9,0.2,1.2,0.5
				s0.5,0.8,0.5,1.2v16c0,0.5-0.2,0.9-0.5,1.2s-0.8,0.5-1.2,0.5c-0.5,0-0.9-0.2-1.2-0.5s-0.5-0.8-0.5-1.2V251.6z"/>
			<path class="st0" d="M247.8,205.4c-2.1,6.1-3.1,12.4-3.2,18.9c1.7-2.9,3.2-6.2,4.3-10.1c0.5-1.7,1-3.7,1.4-5.9
				c4.7,15,13.1,24.5,24.7,27c3.7,0.8,7.1,0.9,10.4,0.3c4.2-3.9,8.9-7.1,13.9-9.6c2.2-3.2,4.1-7.1,5.4-11.8
				c3-10.4,5.8-32.1,4.6-36.3c-0.8-3.2-3.8-3-3.8,0.2c0,2-1.2,8.8-2.6,14.2c-0.4,1.8-1.2,5.6-1.8,8.4c-2.4,12-6.2,19.7-12.2,25.1
				c-2.8,2.6-4,2.4-7.4-2c-5.8-7.4-8.2-24.9-7.2-48.1C262.2,181.3,252.5,191.7,247.8,205.4z"/>
			<path class="st0" d="M287.4,261.9c0.6-0.6,1.5-1,2.7-1.3V253c-1,1.4-1.9,2.8-2.7,4.2C287.4,258.6,287.4,260.1,287.4,261.9
				L287.4,261.9z"/>
			<path class="st0" d="M248,302.3c-0.4-0.8-0.8-1.6-1.1-2.4C247,301,247.3,301.8,248,302.3z"/>
			<path class="st0" d="M272.6,136.1c2.2-0.9,4.4-1.6,6.7-2.2c0.4-2.1,0.8-4.2,1.2-6.4c2.2-11.4,2.2-12.4,2.8-17.3
				c1.6-12-0.6-15.1-9.8-15.1c-13.8,0-20.1,12.2-25.1,48.4c-0.3,2.2-0.6,4.3-0.8,6.4C254.7,144.4,263.1,139.8,272.6,136.1z"/>
			<path class="st0" d="M282.7,378.2c-0.3,1.6-0.5,3.2-0.8,4.8c0.8-1.1,1.2-2.4,0.9-3.9C282.8,378.8,282.7,378.5,282.7,378.2z"/>
			<path class="st0" d="M259.1,336.6c-0.6-2.8-1.2-5.6-1.9-8.4c-3.2,2.2-6.2,4.8-8.8,7.8l0.1-5.4c0-1.7-1.8-3.2-5.2-4.4
				c-1.5-0.5-3.1-0.9-4.9-1.3c-1.8-0.4-3.6-0.6-5.4-0.7c-1.7-0.1-3.4,0-4.8,0.3c-1.5,0.3-2.5,0.8-3.1,1.6c-0.4,0.4-0.6,1-0.7,1.6
				c0,0.7,0.3,1.6,0.9,2.6c0.6,1.2,1,3.2,1.3,5.9c0.3,2.7,0.4,5.8,0.4,9.2c0,3.4-0.1,7-0.3,10.9c-0.2,3.8-0.4,7.4-0.7,10.8
				c-0.2,3.4-0.5,6.4-0.8,9c-0.3,2.6-0.5,4.4-0.7,5.5c-0.2,1.2,0,2.2,0.7,3.1c1.1,1.1,2.7,1.8,5.1,2.1c2.3,0.4,4.7,0.5,7,0.5
				c2.1,0,4-0.1,5.8-0.2c1.7-0.2,2.8-0.3,3.2-0.4h0.7l0.9-39c0.8-1.6,1.7-3.2,2.6-4.6c0.9-1.5,1.8-2.7,2.7-3.7
				c0.9-1,1.9-1.8,2.9-2.4C257.2,336.6,258.1,336.4,259.1,336.6C259,336.5,259.1,336.6,259.1,336.6z M230.3,375.1
				c-0.1,0.9-0.2,1.8-0.2,2.7c-0.1,0.9-0.2,1.8-0.4,2.6c-0.2,0.7-0.5,1-1.1,1h-0.1c-0.8-0.2-1.1-0.6-1-1.2c0.2-0.9,0.3-1.7,0.4-2.6
				c0.1-0.8,0.2-1.7,0.2-2.6c0.2-0.7,0.6-1.1,1.2-1.1C230.2,374,230.5,374.4,230.3,375.1z M232.8,351.6c-0.2,4.8-0.7,10.4-1.5,16.7
				c-0.2,0.7-0.5,1-1.1,1h-0.1c-0.8-0.2-1.1-0.6-1-1.2c0.7-6.2,1.1-11.7,1.3-16.4c0.2-4.8,0.4-8.8,0.4-12c0-3.3,0-5.7-0.1-7.4
				c-0.1-1.7-0.1-2.5-0.1-2.6c-0.1-0.2,0-0.5,0.2-0.7c0.2-0.2,0.5-0.4,0.8-0.4c0.7-0.2,1.1,0.2,1.2,1c0.2,3.4,0.4,6.8,0.4,10
				C233.1,342.7,233,346.8,232.8,351.6z"/>
			<path class="st0" d="M215.2,325.8c-1.5-0.6-3.1-1-4.9-1.4c-1.8-0.4-3.6-0.6-5.4-0.7c-1.8-0.1-3.4,0-4.9,0.3
				c-1.5,0.3-2.5,0.8-3,1.6c-0.4,0.4-0.7,1-0.7,1.6c-0.1,0.7,0.2,1.6,1,2.7v0.2c-1.5-1.2-3-2.3-4.5-3.3c-1.5-1-3-1.7-4.4-2.3
				c-5.2-1.9-9.9-1.2-14,2c-1.9,1.4-3.6,3.2-5.1,5.6c-1.5,2.3-2.9,4.9-4,7.7c-1.1,2.8-1.9,5.9-2.4,9.1c-0.5,3.2-0.7,6.4-0.5,9.6
				c0.1,1.1,0.2,2.8,0.5,4.9c0.2,2.2,0.7,4.5,1.5,7c0.7,2.5,1.7,4.9,3,7.4c1.3,2.4,2.9,4.5,5.1,6.1c2.6,2,5.7,3.1,9.4,3.1
				c1.2,0,2.6-0.1,4.3-0.4c2.2-0.5,4.3-1.7,6.3-3.6c2-1.9,3.9-4.3,5.5-7.1c-0.2,3-0.5,5.2-0.7,6.5c-0.2,1.1,0,2.1,0.7,2.8
				c1,1.1,2.6,1.9,4.9,2.2c2.3,0.3,4.7,0.5,7,0.5c2.1,0,4.1-0.1,5.9-0.2c1.8-0.2,2.9-0.3,3.3-0.4h0.7l0.7-57.2
				C220.3,328.4,218.6,327,215.2,325.8z M173.8,380.3c-0.1,0.1-0.2,0.1-0.5,0.1c-0.4,0-0.7-0.2-1-0.5c-0.4-0.8-0.8-1.6-1.2-2.4
				c-0.4-0.8-0.8-1.6-1.2-2.4c-0.2-0.7,0-1.2,0.6-1.5c0.7-0.3,1.1-0.1,1.5,0.6c0.7,1.7,1.4,3.3,2.2,4.6
				C174.6,379.6,174.5,380.1,173.8,380.3z M177.3,330.9c-0.1,0-0.4,0.5-1.1,1.4c-0.7,0.9-1.4,2.3-2.3,4c-0.9,1.7-1.8,3.7-2.6,6.1
				c-0.9,2.4-1.5,5-2,7.9c-0.5,2.9-0.7,6.1-0.5,9.5c0.1,3.4,0.8,7,2,10.6c0.2,0.7,0,1.1-0.6,1.5h-0.4c-0.5,0-0.9-0.2-1.1-0.7
				c-1.9-5.9-2.6-11.3-2.1-16.4c0.5-5,1.4-9.4,2.7-13.2c1.3-3.7,2.7-6.7,4.1-8.8c1.4-2.2,2.2-3.2,2.3-3.2c0.4-0.6,0.9-0.7,1.5-0.2
				C177.6,329.9,177.7,330.4,177.3,330.9z M198.9,355.5c-0.1,3.9-0.3,7.6-0.5,11.2c-1,3.3-2.4,6.3-4.3,9c-1.9,2.6-4.4,4.3-7.4,5.1
				c-1.3-0.2-2.4-1.9-3.4-5c-0.6-1.9-1-4.1-1.3-6.8c-0.3-2.7-0.4-5.5-0.5-8.4c0-2.9,0.1-5.9,0.3-8.9c0.2-3,0.6-5.8,1-8.4
				c0.4-2.6,1-4.9,1.8-6.8c0.7-2,1.5-3.3,2.4-4.1c0.6-0.4,1.1-0.6,1.5-0.6c0.4,0,0.7,0,1,0.1c2.4,1.1,4.4,2.8,6,5.1
				c1.5,2.3,2.7,4.8,3.4,7.7C199,348,199,351.6,198.9,355.5z M203.5,375.1c-0.1,0.9-0.2,1.8-0.2,2.7c-0.1,0.9-0.2,1.8-0.4,2.6
				c-0.2,0.7-0.5,1-1.1,1h-0.1c-0.8-0.2-1.1-0.6-1-1.2c0.2-0.9,0.3-1.7,0.4-2.6c0.1-0.8,0.2-1.7,0.2-2.6c0.2-0.7,0.6-1.1,1.2-1.1
				C203.3,374,203.7,374.4,203.5,375.1z M205.6,352.2c-0.1,4.4-0.5,9.7-1.2,16c0,0.7-0.4,1-1.1,1h-0.1c-0.7-0.2-1-0.6-1-1.2
				c0.7-6.2,1.1-11.4,1.2-15.7c0.1-4.3,0-7.7-0.1-10.4c-0.2-2.7-0.5-5.3-1-7.8c-0.3-0.6-0.1-1,0.7-1.3c0.7-0.2,1.2,0.1,1.3,0.7
				c0,0.1,0.1,0.8,0.4,2c0.3,1.3,0.5,3.3,0.7,6C205.6,344.3,205.6,347.9,205.6,352.2z"/>
			<path class="st0" d="M55.1,303.2c2.1,0,5.3-0.3,9.4-1c4.2-0.7,8.1-2.3,11.6-4.8c3.5-2.5,5.3-6.4,5.3-11.9
				c0-7.5-3.2-12.3-9.5-14.2c3.3-2.1,4.9-6,4.9-11.7c0-4.4-1.2-7.5-3.6-9.3c-2.4-1.8-5.1-2.9-8.2-3.2c-3.1-0.4-5.6-0.5-7.8-0.4
				c-0.5,0-0.9,0-1.2,0c-1.5,0-2.9,0.5-4.2,1.6c-1.3,1-1.9,2.6-1.9,4.7c0,3.6,0,8.5,0,14.7c0,6.2,0,12.1,0,17.9c0,5.8,0,9.6,0,11.6
				c0,1.9,0.6,3.4,1.6,4.5C52.5,302.6,53.7,303.2,55.1,303.2z M61.7,253.8c2.2,0.1,4.2,0.7,5.9,1.6c1.8,0.9,2.6,2.5,2.6,4.8
				c0,2.4-0.8,4.2-2.7,5.3c-1.8,1.2-3.7,2-5.8,2.4C61.7,261.2,61.7,256.4,61.7,253.8z M61.7,275.9c2.8,0.5,5.3,1.4,7.7,3
				c2.3,1.5,3.6,3.9,3.6,7.2c0,2.9-1.2,5.1-3.6,6.6c-2.4,1.4-5,2.3-7.7,2.8C61.7,290.3,61.7,283.8,61.7,275.9z M51.9,252.7
				c0-0.5,0.2-0.8,0.5-1.2c0.3-0.3,0.8-0.5,1.2-0.5c0.5,0,0.9,0.1,1.2,0.5c0.3,0.4,0.5,0.8,0.5,1.2v12.3c0,0.5-0.2,0.8-0.5,1.2
				c-0.3,0.3-0.8,0.5-1.2,0.5c-0.5,0-0.9-0.1-1.2-0.5c-0.3-0.4-0.5-0.8-0.5-1.2V252.7z M51.9,269.9c0-0.5,0.2-0.9,0.5-1.2
				c0.3-0.3,0.8-0.5,1.2-0.5c0.5,0,0.9,0.2,1.2,0.5c0.3,0.3,0.5,0.7,0.5,1.2v2.3c0,0.5-0.2,0.9-0.5,1.2c-0.3,0.3-0.8,0.5-1.2,0.5
				c-0.5,0-0.9-0.2-1.2-0.5c-0.3-0.3-0.5-0.7-0.5-1.2V269.9z"/>
			<path class="st0" d="M117,105.6c10,0,10.4,0,10.4-1.8c0-3.4-11.4-8.8-21.5-10.2c-17.3-2.2-47.4,7-64.6,19.7
				c-9.8,7.2-9.6,15.9,0.6,19.1c4.4,1.6,9,0,18.5-6.2C82.9,111.8,99.5,105.6,117,105.6z"/>
			<path class="st0" d="M96.3,358.4c-1-0.8-2.1-1.2-3.2-1.2c-1.3-0.1-2.4,0.2-3.2,1c-0.8,0.7-1.3,1.8-1.5,3.1c-0.3,3.4-1,6.3-2,8.7
				c-1,2.4-2.2,4.3-3.5,5.7c-1.3,1.5-2.7,2.5-4.1,3.1c-1.4,0.6-2.7,0.9-3.8,0.8c-0.8-0.1-1.6-0.3-2.3-0.7c-0.7-0.4-1-1.1-1-2.1
				c0-0.1,0.1-1.1,0.2-3s0.3-4.4,0.4-7.5c0.2-3.1,0.4-6.6,0.6-10.6c0.2-3.9,0.4-8,0.6-12c2.3-0.2,4.8-0.2,7.6,0c1.3,0,2.6,0,3.9,0.1
				c1.3,0,2.6,0,3.8-0.2c0.9,0,1.6-0.4,2.1-1.1c0.5-0.7,0.7-1.7,0.7-2.9c0-0.9-0.1-1.9-0.4-2.9c-0.3-1.1-0.9-1.6-1.8-1.7h-1.1
				c-2.6,0-5.1,0-7.5-0.1c-2.4,0-4.7,0-6.9,0.2c0.2-3.4,0.3-6.6,0.4-9.5c0.1-2.9,0.1-5.5,0.1-7.8c0-0.6-0.3-1.2-0.9-1.9
				c-0.6-0.7-1.9-1.3-3.7-1.8c-1.5-0.4-3.2-0.7-5.1-0.9c-2-0.2-3.9-0.2-5.7,0c-1.9,0.2-3.5,0.5-5,1c-1.5,0.5-2.4,1.2-2.9,2.1
				c-0.2,0.4-0.4,0.9-0.4,1.6c0,0.7,0.4,1.4,1.1,2.3c0,3.3,0,6.3-0.1,9.3c0,2.9-0.1,5.8-0.2,8.7c-0.2,5.3-0.3,10.2-0.3,14.6
				c0,4.5,0.1,8.6,0.5,12.3c0.4,3.7,1,7,2,9.8c1,2.8,2.4,5.2,4.4,7.1c3.7,3.6,9.2,5.4,16.4,5.4c0.8,0,1.4,0,1.8-0.1
				c5.4-0.2,10.1-2.4,14-6.6c1.5-1.6,2.7-3.4,3.7-5.2c1-1.9,1.8-3.7,2.4-5.5c0.6-1.8,1-3.4,1.3-4.9c0.2-1.5,0.3-2.6,0.2-3.5
				C97.9,360.2,97.3,359.2,96.3,358.4z M56.1,371.3c-0.6-2.8-0.9-6-1.1-9.6c-0.2-3.6-0.2-7.4-0.2-11.2c0-3.9,0.1-7.6,0.3-11.3
				c0.2-3.7,0.4-7.1,0.6-10.1c0.2-3,0.5-5.5,0.7-7.4c0.2-1.9,0.3-3,0.3-3.2c0.2-0.7,0.6-1,1.2-1c0.7,0.2,1,0.6,1,1.2
				c0,0.1-0.1,1-0.2,2.9c-0.2,1.8-0.4,4.2-0.6,7.2c-0.2,3-0.5,6.3-0.7,10c-0.2,3.7-0.3,7.5-0.4,11.3c0,3.9,0,7.6,0.2,11.2
				c0.2,3.6,0.5,6.8,1.1,9.5c0.1,0.3,0,0.6-0.2,0.9c-0.2,0.2-0.4,0.4-0.7,0.5h-0.2C56.6,372.2,56.2,371.9,56.1,371.3z M61.7,379.6
				c-0.3,0.3-0.7,0.5-1,0.5c-0.1,0-0.3-0.1-0.6-0.2c-1.3-1-2.3-2.6-3.1-4.9c-0.2-0.3-0.2-0.6,0-0.9c0.2-0.2,0.4-0.4,0.6-0.5
				c0.7-0.2,1.1,0,1.5,0.6c0.6,2,1.3,3.2,2.2,3.8C62.1,378.4,62.2,379,61.7,379.6z"/>
			<path class="st0" d="M176.5,301.3c1.2-1.2,2.1-2.5,2.6-4c0.5-1.4,0.7-2.6,0.7-3.4c0-0.7-0.4-1.2-1.1-1.5
				c-0.7-0.3-1.5-0.3-2.2,0.1c-0.7,0.3-1.1,1-1.1,1.9c0,1.5-0.4,2.7-1.2,3.7c-0.8,1-1.7,1.5-2.9,1.5c-1.8,0-3.1-1.4-3.8-4.2
				c-0.8-2.8-1-5.7-0.8-8.7c0.3-3.1,1.2-5.1,2.6-6.2c0.1,0,0.2,0,0.3,0c0.2,0,0.4,0,0.6,0c1.8,0,3-0.5,3.6-1.4
				c0.6-0.9,0.6-1.9,0.1-2.8c-0.5-0.9-1.4-1.4-2.8-1.4s-2.5-1.1-3.2-3.4c-0.7-2.3-1-4.9-0.9-7.8c0.1-2.9,0.7-5.5,1.8-7.7
				c1-2.3,2.7-3.4,4.9-3.4c1.1,0,1.9,0.4,2.5,1c0.5,0.7,0.6,1.8,0.2,3.4c-0.2,1,0,1.7,0.6,2.1c0.6,0.4,1.3,0.5,2.1,0.3
				c0.8-0.1,1.3-0.6,1.6-1.4c0.3-1.2,0.3-2.6,0.2-4.3c-0.1-1.8-0.7-3.3-1.7-4.7c-1-1.5-2.7-2.2-5.1-2.2c-7.5,0-12.7,2.1-15.6,6.4
				c-3,4.3-4,9-3.1,13.9c0.8,5,3.3,8.8,7.4,11.5c-3.5,2.3-5.6,5.4-6.3,9.3c-0.6,3.8,0.2,7.3,2.6,10.6c2.4,3.2,6.4,4.9,12.1,4.9
				C173.5,303.2,175.3,302.6,176.5,301.3z M164.5,254.5c-0.3,0.2-0.5,0.5-0.7,0.6c-0.4,0.3-0.8,0.5-1.2,0.5c-0.5,0-0.8-0.1-1.2-0.5
				c-0.3-0.3-0.5-0.8-0.5-1.2c0-0.5,0.2-0.8,0.5-1.2c0.3-0.3,0.6-0.5,0.9-0.8c0.4-0.3,0.8-0.5,1.3-0.4c0.5,0.1,0.8,0.3,1.2,0.6
				c0.3,0.4,0.4,0.8,0.4,1.2C165.1,253.8,164.9,254.1,164.5,254.5z M165.6,251.6c-0.2-0.5-0.2-0.9,0-1.4c0.1-0.4,0.5-0.7,0.9-0.9
				c3.2-1.4,6.4-1.8,9.6-1.2c0.5,0.1,0.8,0.4,1.1,0.8c0.3,0.4,0.3,0.8,0.3,1.3c-0.1,0.5-0.4,0.8-0.8,1.1c-0.4,0.2-0.8,0.3-1.3,0.2
				c-2.5-0.5-4.9-0.1-7.5,1c-0.3,0.1-0.5,0.1-0.7,0.1C166.5,252.6,166,252.2,165.6,251.6z"/>
			<path class="st0" d="M92.1,125.3c-1.8-6.4-18.7-9-22.9-3.2c-0.8,1.2-1.6,4-2,8.4c-0.2,2-0.6,6-0.8,8.6
				c-5.6,53,1.6,95.1,16.9,101.1c3,1.2,9.6,0,10.6-1.6c0.2-0.6-0.2-3.8-2-10.2c-3.6-13.4-4.4-52.4-1.6-77.7
				C92.3,133.3,92.7,127.3,92.1,125.3z"/>
			<path class="st0" d="M113.3,299.1c0,1.9,0.7,3.1,2,3.6c1.4,0.5,2.7,0.4,4-0.3c1.4-0.6,2-1.8,2-3.3c0-0.3,0.1-0.8,0.1-1.6
				c0.2-3.6,0.2-9.5-0.1-17.4c-0.3-8-1.4-15.6-3.4-22.7s-5.7-10.7-11-10.7c-7.5,0-13.2,4-17.1,11.8c-3.9,7.9-5.9,20.5-5.9,37.8
				c0,3.2,1,5.3,2.9,6.1c1.9,0.8,3.8,0.7,5.7-0.3c1.9-1,2.9-2.6,2.9-4.7c0-5.1,0.5-12.1,1.6-20.8c2.4,0,5.1,0,7.9,0
				c2.9,0,5.5,0,7.9,0c0.3,4.4,0.4,8.6,0.5,12.4c0,3.9,0,6.8,0,8.8C113.3,298.4,113.3,298.8,113.3,299.1z M90.5,276.2
				c-0.1,0.5-0.3,0.8-0.6,1.2c-0.3,0.3-0.7,0.5-1.2,0.5c-0.1,0-0.1,0-0.1,0c-0.5-0.1-0.9-0.3-1.2-0.6c-0.3-0.3-0.5-0.7-0.4-1.2
				c0.1-0.8,0.1-1.8,0.3-2.6c0.1-0.5,0.3-0.8,0.6-1.2c0.4-0.3,0.8-0.4,1.3-0.3c0.5,0.1,0.8,0.3,1.2,0.7c0.3,0.3,0.4,0.8,0.3,1.2
				C90.6,274.6,90.5,275.4,90.5,276.2z M96.8,257.7c-2.4,3.4-4.2,7.3-5.1,11.4c-0.1,0.4-0.3,0.7-0.6,1c-0.3,0.2-0.6,0.3-1,0.3
				c-0.1,0-0.3,0-0.4-0.1c-0.5-0.1-0.8-0.4-1.1-0.8c-0.2-0.4-0.3-0.8-0.2-1.3c1.2-4.9,3.3-9.4,6.2-13.4c2.9-4,6.7-6,11.3-6
				c0.1,0,0.1,0,0.2,0c0.5,0,0.9,0.2,1.2,0.5c0.3,0.3,0.5,0.7,0.5,1.2c0,0.5-0.2,0.8-0.5,1.2c-0.3,0.3-0.7,0.5-1.2,0.5
				C102.2,252.4,99.2,254.2,96.8,257.7z M98.3,269.8c0.9-4.3,2.1-7.9,3.4-10.7c1.4-2.9,3.2-4.3,5.2-4.3c1.5,0,2.6,1.4,3.4,4.3
				c0.8,2.9,1.5,6.4,1.9,10.7C108.7,269.8,104,269.8,98.3,269.8z"/>
			<path class="st0" d="M116,148.6c6.6,3.4,10.6,3,15.5-2c6.8-6,16.3-11.4,22.9-12.6c1-0.2,1.2-0.2,2.2,1c3.8,4.6,4.8,12,2.8,23.7
				c-0.6,2.8-1,7-1.4,9.2c-0.6,6.6-0.4,6.2-1.8,4.6c-9.4-9.2-25.1-12-36.7-6.4c-23.3,11-27.3,53.8-6.2,64.2
				c14.4,7,30.5-1.2,36.9-18.9c1.2-2.6,2.6-6.8,3.6-9.4l1.6-4.6l0.6,6.6c0.8,13.6,2,18.9,6.6,26.3c3.2,5.6,4.4,6.6,7.2,7.2
				c5.4,1,6.6-0.4,6-5.8c-0.2-2-0.6-6.8-0.6-11.4c0-9.2,0-8.6,4-29.1c8-40.9-0.2-62.4-25.7-68.8C131.3,117.1,98.9,139.9,116,148.6z
				 M145.9,199.7c-5.6,11.6-12.4,20.7-17.7,23.9c-3.4,1.8-4,1.2-5.4-5.6c-3.8-19.3,6.2-45.4,17.5-45.4c3.4,0,9.6,6,11.8,11.4
				C152.7,185.3,151.7,188.1,145.9,199.7z"/>
			<path class="st0" d="M264,379.7c-0.1-2.8-0.2-5.5-0.4-8.2c-0.4-0.2-0.7-0.5-0.7-1c0.1-1.1,0.2-2.2,0.4-3.3
				c-0.5-6.5-1.2-12.7-2.1-18.6c0,1,0,2.1,0,3.3c-0.1,4.4-0.3,9.4-0.7,14.9c-0.4,5.5-0.9,11-1.6,16.4c0,0.4,0.1,0.9,0.4,1.4
				c0.2,0.5,0.8,1,1.7,1.4c0.9,0.5,2,0.8,3.3,1.1C264.2,384.6,264.1,382.1,264,379.7z"/>
			<path class="st0" d="M153.7,359.3c-1.1-0.2-2.1-0.1-3.2,0.1c-1.1,0.2-1.7,0.8-2,1.7c-0.3,1.2-0.9,2.9-1.6,5.2
				c-0.8,2.2-1.9,4.4-3.4,6.6c-1.5,2.2-3.3,4-5.4,5.4c-2.2,1.5-4.7,2-7.7,1.6c-1.5-0.2-2.6-0.9-3.5-2.3c-0.9-1.4-1.6-2.8-2.1-4.1
				c-1.3-3.8-1.9-8.4-1.7-13.7c1.5,0.2,3.3,0.3,5.6,0.4c2.3,0.1,4.7,0,7.1-0.4c2.5-0.4,4.9-1.2,7.3-2.3c2.4-1.1,4.4-2.7,6-4.9
				c1.5-2.1,2.5-4.4,3-6.9c0.4-2.5,0.5-4.9,0.1-7.3c-0.4-2.4-1.1-4.6-2.2-6.6c-1.1-2-2.5-3.7-4.1-5c-1.1-0.8-2.4-1.6-3.9-2.3
				c-1.5-0.7-3.3-1.3-5.1-1.7c-1.9-0.4-3.8-0.6-5.9-0.7c-2,0-4.1,0.2-6.1,0.7c-3.7,0.8-7.1,2.4-10.1,4.8c-3,2.4-5.4,5.6-7.3,9.5
				c-1.2,2.4-2.2,5.3-2.8,8.5c-0.7,3.3-1,6.6-1,10c0,3.4,0.4,6.8,1.1,10.2c0.7,3.4,2,6.5,3.7,9.4c2.2,3.8,5.1,6.8,8.7,8.8
				c3.6,2.1,7.7,3.2,12.3,3.5h1.3c4.2,0,7.9-0.8,11.1-2.4c3.2-1.6,5.8-3.7,8-6.2c2.2-2.5,3.8-5.2,5.1-8.1c1.2-2.9,2-5.6,2.3-8.2
				C157.5,360.9,156.3,359.8,153.7,359.3z M126.2,343.2c1-2.6,2.3-4.6,3.7-6.1c2.1-2,4.5-2.6,7.2-1.6c1.1,0.4,2.1,1.3,2.7,2.6
				c0.7,1.3,1.1,2.8,1.2,4.4c0.2,1.4,0,2.8-0.6,4.2c-0.5,1.4-1.5,2.5-2.9,3.2c-1.2,0.7-2.5,1.1-4,1.4c-1.4,0.3-2.8,0.5-4.1,0.5
				c-1.3,0.1-2.5,0.1-3.5,0c-1-0.1-1.8-0.1-2.3-0.1C124.4,348.7,125.2,345.8,126.2,343.2z M117.8,381.6c-0.3,0.2-0.6,0.2-0.7,0.2
				c-0.3,0-0.6-0.1-0.9-0.4c-1.5-2-2.8-3.9-3.9-5.9c-0.2-0.7-0.1-1.3,0.5-1.6c0.7-0.3,1.1-0.2,1.5,0.5c0.6,1,1.2,1.9,1.8,2.9
				c0.6,0.9,1.2,1.8,1.9,2.6C118.4,380.6,118.4,381.2,117.8,381.6z M122,329.3c-2.7,1.1-5,3.1-6.9,5.9c-1.9,2.8-3.3,6-4.3,9.6
				c-0.9,3.6-1.3,7.5-1.2,11.7c0.1,4.2,0.9,8.3,2.3,12.3c0.2,0.7-0.1,1.1-0.7,1.3c-0.1,0-0.1,0-0.2,0.1c0,0-0.1,0.1-0.2,0.1
				c-0.5,0-0.8-0.3-1-0.9c-1.5-4.3-2.3-8.7-2.4-13.1c-0.1-4.4,0.3-8.6,1.3-12.4c1-3.9,2.6-7.3,4.7-10.2c2.1-2.9,4.6-5,7.6-6.3
				c0.7-0.2,1.1,0,1.5,0.6C122.7,328.5,122.5,329,122,329.3z"/>
			<path class="st0" d="M188.5,303.2c2.1,0,5.3-0.3,9.4-1c4.2-0.7,8.1-2.3,11.6-4.8c3.5-2.5,5.3-6.4,5.3-11.9
				c0-7.5-3.2-12.3-9.5-14.2c3.3-2.1,4.9-6,4.9-11.7c0-4.4-1.2-7.5-3.6-9.3c-2.4-1.8-5.1-2.9-8.2-3.2c-3.1-0.4-5.6-0.5-7.8-0.4
				c-0.5,0-0.9,0-1.2,0c-1.5,0-2.9,0.5-4.2,1.6c-1.3,1-1.9,2.6-1.9,4.7c0,3.6,0,8.5,0,14.7c0,6.2,0,12.1,0,17.9c0,5.8,0,9.6,0,11.6
				c0,1.9,0.6,3.4,1.6,4.5C185.9,302.6,187.2,303.2,188.5,303.2z M195.2,253.8c2.2,0.1,4.2,0.7,5.9,1.6c1.8,0.9,2.6,2.5,2.6,4.8
				c0,2.4-0.8,4.2-2.7,5.3c-1.8,1.2-3.7,2-5.8,2.4C195.2,261.2,195.2,256.4,195.2,253.8z M195.2,275.9c2.8,0.5,5.3,1.4,7.7,3
				c2.3,1.5,3.6,3.9,3.6,7.2c0,2.9-1.2,5.1-3.6,6.6c-2.4,1.4-5,2.3-7.7,2.8C195.2,290.3,195.2,283.8,195.2,275.9z M185.4,252.7
				c0-0.5,0.2-0.8,0.5-1.2c0.3-0.3,0.8-0.5,1.2-0.5c0.5,0,0.9,0.1,1.2,0.5c0.3,0.4,0.5,0.8,0.5,1.2v12.3c0,0.5-0.2,0.8-0.5,1.2
				c-0.3,0.3-0.8,0.5-1.2,0.5c-0.5,0-0.9-0.1-1.2-0.5c-0.3-0.4-0.5-0.8-0.5-1.2V252.7z M185.4,269.9c0-0.5,0.2-0.9,0.5-1.2
				c0.3-0.3,0.8-0.5,1.2-0.5c0.5,0,0.9,0.2,1.2,0.5c0.3,0.3,0.5,0.7,0.5,1.2v2.3c0,0.5-0.2,0.9-0.5,1.2c-0.3,0.3-0.8,0.5-1.2,0.5
				c-0.5,0-0.9-0.2-1.2-0.5c-0.3-0.3-0.5-0.7-0.5-1.2V269.9z"/>
			<path class="st0" d="M228.9,297.4c0-5.1,0.5-12.1,1.6-20.8c1.1,0,2.2,0,3.4,0c-2.4-4.6-4.6-9.3-6.5-14c-1,2.1-1.8,4.2-2.3,6.5
				c-0.1,0.4-0.3,0.7-0.6,1c-0.3,0.2-0.6,0.3-1,0.3c-0.1,0-0.3,0-0.4-0.1c-0.5-0.1-0.8-0.4-1.1-0.8c-0.2-0.4-0.3-0.8-0.2-1.3
				c0.9-3.5,2.2-6.8,4-9.9c-0.3-0.8-0.6-1.7-0.9-2.6c-0.5,0.8-1,1.7-1.5,2.7c-3.9,7.9-5.9,20.5-5.9,37.8c0,3.2,1,5.3,2.9,6.1
				c1.9,0.8,3.8,0.7,5.7-0.3C227.9,301.1,228.9,299.5,228.9,297.4z M223.9,276.2c-0.1,0.5-0.3,0.8-0.6,1.2c-0.3,0.3-0.7,0.5-1.2,0.5
				c-0.1,0-0.1,0-0.1,0c-0.5-0.1-0.9-0.3-1.2-0.6c-0.3-0.3-0.5-0.7-0.4-1.2c0.1-0.8,0.1-1.8,0.3-2.6c0.1-0.5,0.3-0.8,0.6-1.2
				c0.4-0.3,0.8-0.4,1.3-0.3c0.5,0.1,0.8,0.3,1.2,0.7c0.3,0.3,0.4,0.8,0.3,1.2C224.1,274.6,224,275.4,223.9,276.2z"/>
			<path class="st0" d="M135.5,286.9c1.3-0.6,1.7-1.4,1.2-2.1c-0.5-0.8-1.4-1.4-2.8-1.7c-1.4-0.3-2.7,0-4,0.9
				c-2.1,1.7-3.5,4-4.3,6.9c-0.8,2.9-0.7,5.6,0.6,8.1c1.2,2.5,3.7,3.9,7.6,4.3c9.2-0.3,14.9-4.4,17.1-12.3c2.3-8-0.3-15.1-7.7-21.5
				c-2.1-1.8-3.4-4-4-6.7c-0.5-2.7-0.5-5.2,0.2-7.3c0.7-2.1,1.8-3.2,3.2-3.1c1.4,0.3,2.2,1.2,2.5,2.6c0.3,1.4,0.3,3-0.1,4.7
				c-0.4,1.7-1,3-1.6,4c-0.6,1.1-0.6,1.9,0,2.7c0.7,0.7,1.6,1,2.8,0.9c1.2-0.1,2.4-0.8,3.4-2.2c0.9-1.4,1.5-3.4,1.9-6.3
				c0.3-2.9-0.1-5.6-1.2-8.1c-1.1-2.6-3.5-3.9-7.1-3.9c-7,0-11.8,2.2-14.3,6.5c-2.5,4.3-3.3,9-2.3,13.9c1,4.9,3.4,8.8,7.2,11.4
				c3.2,2.1,5.1,4.7,5.8,7.5c0.8,2.9,0.6,5.5-0.3,7.6c-1,2.1-2.4,3.1-4.4,3c-1.7-0.4-2.6-1.2-2.8-2.6c-0.1-1.4,0.1-2.7,0.9-4.2
				C133.7,288.4,134.6,287.5,135.5,286.9z M134.4,273c-0.3,0.3-0.8,0.5-1.2,0.5c-0.5,0-0.9-0.1-1.2-0.5c-0.5-0.5-0.8-0.9-1.2-1.5
				c-0.3-0.4-0.3-0.8-0.3-1.3c0.1-0.5,0.3-0.8,0.7-1.1c0.5-0.3,0.8-0.3,1.3-0.3c0.5,0.1,0.8,0.3,1.1,0.8c0.3,0.3,0.5,0.6,0.8,1
				c0.3,0.4,0.5,0.8,0.5,1.2C135,272.3,134.8,272.7,134.4,273z M134.4,255.1c-1,0.9-1.7,2.3-2.1,4.1c-0.5,1.8-0.5,3.7-0.3,5.7
				c0.1,0.5-0.1,0.9-0.3,1.3c-0.3,0.3-0.6,0.6-1.2,0.6c-0.1,0-0.1,0-0.3,0c-0.4,0-0.8-0.1-1.1-0.4c-0.3-0.3-0.5-0.6-0.6-1
				c-0.3-2.6-0.2-5.1,0.5-7.4c0.6-2.3,1.6-4.2,3.1-5.5c0.4-0.3,0.8-0.5,1.2-0.5c0.5,0.1,0.8,0.2,1.2,0.6c0.3,0.4,0.5,0.8,0.5,1.2
				C135,254.3,134.8,254.7,134.4,255.1z"/>
		</g>
	</g>
	<path class="st1" d="M350.8,206.2c0,0,0.1,0,0.1,0c0,0.1,0.1,0.1,0.1,0.2c0,0,0,0,0,0C351,206.3,350.9,206.3,350.8,206.2z
		 M443.4,301.8c-14.3,13.4-31.2,21.9-49.7,27.4c-16.8,4.9-33.8,8.4-50.9,8.4c-10.3,0-20.6-1.2-31-4.1c-39.6-10.8-54.2-59-27.2-89.9
		c11-12.5,26.1-18.9,41.4-18.9c12.7,0,25.5,4.4,36.2,13.4c22.6,18.9,25.7,53.8,6.6,76.8c-3.3,4-7.2,7.4-10.9,11.2
		c0.4,0,0.8,0.1,1.1,0.1c0.1,0,0.2,0,0.3,0c19.6-4.9,38.2-12.1,54.4-24.4c12.3-9.4,21.7-20.9,25.4-36.3
		c8.7-36.4-23.5-66.7-55.1-66.7c-2.7,0-5.4,0.2-8.1,0.7c-8.4,1.4-16.5,4.5-25.1,6.9c-0.9-1.7-1.8-3.5-2.6-5.2
		c-6.7-13.5-16-24.2-30.4-30.1c-7.6-3.1-15.3-4.6-22.8-4.6c-23,0-43.9,13.9-52.1,37.5c-5.9,17.1-3.8,34.2,2.5,50.7
		c4.4,11.6,10.3,22.7,15.8,33.9c11.8,24,19.8,48.8,17.9,76c-1,14.6-4.1,28.7-9.3,42.4c-0.6-9.1-0.7-18.1-1.1-27.2
		c-1.2-33.6-6.9-66-25.1-95.4c-10.3-16.7-17.5-35-20.8-54.5c-7.2-42.6,13.1-74.1,51.3-88.9c8.2-3.1,16.3-4.6,24.1-4.6
		c32.2,0,58.6,24.9,58.8,59.1c0,0.7-0.3,1.4-0.4,2.1c1.9-0.7,2.5-1.2,3-1.8c11.1-13.1,24.3-18.7,39.1-18.7c6,0,12.2,0.9,18.7,2.6
		c3.5,0.9,7,2.2,10.4,3.3c3.7,2.3,7.3,4.5,11,6.8c0.8,0.9,1.5,1.9,2.4,2.7C473.3,220,474.2,272.8,443.4,301.8z M277.3,271.1
		c-5.2,16.9,4.5,39.9,21.7,50.8c1.2-2.9,2.2-5.3,3.5-8.6c0.3,0,1.7-0.2,3.1-0.4c-0.2-0.4-0.4-0.8-0.6-1.2c1.7-1.1,3.6-1.9,4.9-3.2
		c1.8-1.8,3.2-4.1,4.7-6.2c-0.3-0.3-0.6-0.5-0.9-0.8c2-0.2,4.5,0.2,5.9-0.8c1.5-1.1,1.5-4.3,3.1-5.3c0.3-0.2,0.6-0.3,1.1-0.3
		c1.1,0,2.5,0.5,3.5,0.5c0.4,0,0.7-0.1,1-0.3c2.3-2.1,4.1-4.7,7.2-4.7c0.8,0,1.6,0.2,2.6,0.5c0,0,0.1,0,0.1,0c0.6,0,1.7-1.5,2.5-2.1
		c0.7-0.5,1.8-1.5,2.1-1.5c0,0,0,0,0.1,0c1.1,0.9,2.1,1.3,3,1.3c1.8,0,3.2-1.6,4.7-2.2c2.5-0.4,5-0.7,7.6-1.1c0-0.4,0-0.8,0-1.2
		c1,0.8,2,1.7,3.2,2.6c1.3-0.9,2.5-1.7,4-2.7c1,0.9,2,1.7,3.2,2.7c1.2-0.8,2.4-1.7,4-2.8c0.8,1.2,1.5,2.3,2.5,3.7
		c0.4-0.8,0.8-1.3,0.9-1.9c3-17.6-8.4-41.7-23.4-47.3c1,1,2,2,3,3.1c-0.5,0.4-1.1,0.8-1.6,1.1c-1.5,0.1-3,0.1-4.8,0.2
		c0.1,1.7,0.3,3,0.4,4.6c-1.7,0.4-3.3,0.7-5.1,1.1c0,1.5-0.1,2.8-0.1,4.4c-1.6,0.2-3.1,0.3-4.9,0.5c-0.3,1.3-0.6,2.8-1,4.5
		c-0.8-0.2-1.6-0.3-2.3-0.3c-2.7,0-4.6,1.3-4.8,5.4c-1.5-0.6-2.7-0.9-3.8-0.9c-2.8,0-4.4,1.8-4.7,5.7c-2.4-0.8-4.1-1.3-5.4-1.3
		c-2.3,0-3.5,1.5-4.7,5.1c-1.5-0.7-2.8-1.7-4.3-2.1c-0.3-0.1-0.5-0.1-0.8-0.1c-2.9,0-4.7,3.9-5.8,3.9c-0.1,0-0.1,0-0.2,0
		c-2-0.9-3.7-1.9-5.6-1.9c-0.7,0-1.5,0.1-2.3,0.5c-0.1,0-0.2,0.3-0.3,0.3c-1.6,0.3-3.3,0.7-4.9,1c-0.2-0.5-0.3-1-0.5-1.5
		c-1.1,1-2.1,2-2.7,2.5C282.4,273.2,279.9,272.2,277.3,271.1z M375,291.3c-2.1,1.2-3.1,1.9-4.3,2.6c-1-1.1-1.9-2.1-2.9-3.1
		c-1.1,1-2,1.8-3.1,2.8c-1.4-1.2-2.6-2.3-3.9-3.5c-1.2,1.5-2.2,2.7-3.5,4.3c-1.1-1.5-1.9-2.5-2.9-3.9c-1,1.6-1.7,2.8-2.7,4.3
		c-1.7-1-3.1-2-5-3.1c-0.5,1.8-0.8,3.1-1.1,4.5c-2.4-0.9-3.8-1.4-4.8-1.4c-1.5,0-2.1,1.2-3.7,4c-2.9-0.2-5.6-0.3-8.2-0.5
		c0,2.4,0.1,3.8,0.1,5.1c-1.1-0.2-2.2-0.3-3.3-0.5c-0.7-0.2-1.2-0.2-1.7-0.2c-3.2,0-3.1,3.2-3.4,5.8c-6.8,0.2-7,0.3-7.2,6.3
		c-5,0.5-5,0.5-5.4,4.8c-2.2,1-4.2,1.9-6.1,2.9c0.1,0.5,0.2,1,0.3,1.5c7.8,4.3,15.7,6.4,23.8,6.4c6.4,0,12.8-1.3,19.3-4
		C360.5,320.1,370.3,308.5,375,291.3z M349.7,235.2c-4.9-1.6-9.7-3.7-14.8-4.6c-3.1-0.5-6.2-0.8-9.2-0.8c-26,0-44.6,19.8-48.2,39.4
		c2.8-1.4,4.7-2.3,6.8-3.3c1.1,1.1,2.3,2.4,3.5,2.4c0.9,0,1.9-0.7,2.8-2.7c0-0.1,0.3-0.1,0.6-0.1c0.5,0,1.3,0.1,1.5,0.4
		c1.2,1.9,2.2,2.6,3.2,2.6c1.5,0,2.7-1.8,4-3.5c0.2-0.2,0.5-0.3,0.8-0.5c2.3,1.4,3.9,2.1,5,2.1c1.9,0,2.9-1.9,4.2-5.6
		c1.3,1.2,2.3,2.1,4.2,3.9c1.6-1.9,3.3-4,5.5-6.5c0.4,0.3,1.6,1.2,3.4,2.5c0.8-1.1,2.6-2.3,2.7-3.7c0.2-2.3,0.7-3,1.5-3
		c1,0,2.3,1.4,3.8,2.3c0.5-1.8,0.9-3.4,1.5-5.5c1.2,0.1,2.6,0.3,4.1,0.4c0.9-1-0.7-4.8,1.2-4.8c0.5,0,1.4,0.3,2.6,1
		c0.7-1.6,1.3-3.2,2.4-5.8c0.2,0,1.6-0.1,3.2-0.2c-0.1-1.3-0.3-2.6-0.5-5c1.2,0,2.5,0,3.9,0C349.5,236.1,349.6,235.7,349.7,235.2z"
		/>
	<g>
		<g>
			<g>
				<path class="st1" d="M438.9,189.6c0.8,0.9,1.5,1.9,2.4,2.7c31.9,27.8,32.9,80.6,2.1,109.6c-14.3,13.4-31.2,21.9-49.7,27.4
					c-26.9,7.9-54.1,11.9-81.9,4.3c-39.6-10.8-54.2-59-27.2-89.9c20.1-22.9,53.9-25.4,77.6-5.6c22.6,18.9,25.7,53.8,6.6,76.8
					c-3.3,4-7.2,7.4-10.9,11.2c0.6,0,1,0.2,1.5,0.1c19.6-4.9,38.2-12.1,54.4-24.4c12.3-9.4,21.7-20.9,25.4-36.3
					c9.5-39.6-29.3-71.8-63.2-66c-8.4,1.4-16.5,4.5-25.2,6.9c0.4,0.3,0.3,0.3,0.2,0.1c-0.9-1.8-1.8-3.6-2.7-5.4
					c-6.7-13.5-16-24.2-30.4-30.1c-30.8-12.6-64,1.7-74.8,32.9c-5.9,17.1-3.8,34.2,2.5,50.7c4.4,11.6,10.3,22.7,15.8,33.9
					c11.8,24,19.8,48.8,17.9,76c-1,14.6-4.1,28.7-9.3,42.4c-0.6-9.1-0.7-18.1-1.1-27.2c-1.2-33.6-6.9-66-25.1-95.4
					c-10.3-16.7-17.5-35-20.8-54.5c-7.2-42.6,13.1-74.1,51.3-88.9c41.9-16.1,82.6,12.1,82.9,54.5c0,0.7-0.3,1.4-0.4,2.1
					c1.9-0.7,2.5-1.2,3-1.8c15.6-18.4,35.3-22,57.7-16.1c3.5,0.9,7,2.2,10.4,3.3C431.6,185,435.3,187.3,438.9,189.6z M302.5,313.3
					c0.3,0,1.7-0.2,3.1-0.4c-0.2-0.4-0.4-0.8-0.6-1.2c1.7-1.1,3.6-1.9,4.9-3.2c1.8-1.8,3.2-4.1,4.7-6.2c-0.3-0.3-0.6-0.5-0.9-0.8
					c2-0.2,4.5,0.2,5.9-0.8c1.5-1.1,1.5-4.3,3.1-5.3c1.3-0.9,4.6,0.9,5.6-0.1c2.9-2.6,5-6,9.8-4.2c0.5,0.2,1.7-1.4,2.6-2.1
					c0.7-0.6,2-1.6,2.2-1.5c3.6,3,5.5,0,7.7-0.9c2.5-0.4,5-0.7,7.6-1.1c0-0.4,0-0.8,0-1.2c1,0.8,2,1.7,3.2,2.6
					c1.3-0.9,2.5-1.7,4-2.7c1,0.9,2,1.7,3.2,2.7c1.2-0.8,2.4-1.7,4-2.8c0.8,1.2,1.5,2.3,2.5,3.7c0.4-0.8,0.8-1.3,0.9-1.9
					c3-17.6-8.4-41.7-23.4-47.3c1,1,2,2,3,3.1c-0.5,0.4-1.1,0.8-1.6,1.1c-1.5,0.1-3,0.1-4.8,0.2c0.1,1.7,0.3,3,0.4,4.6
					c-1.7,0.4-3.3,0.7-5.1,1.1c0,1.5-0.1,2.8-0.1,4.4c-1.6,0.2-3.1,0.3-4.9,0.5c-0.3,1.3-0.6,2.8-1,4.5c-3.9-0.8-6.9,0-7.1,5.1
					c-5.1-2-8.1-0.5-8.5,4.8c-6.5-2.3-8.2-1.9-10.2,3.7c-1.5-0.7-2.8-1.7-4.3-2.1c-3.5-0.9-5.7,4.2-6.8,3.7c-2.7-1.3-5-2.6-7.9-1.4
					c-0.1,0-0.2,0.3-0.3,0.3c-1.6,0.3-3.3,0.7-4.9,1c-0.2-0.5-0.3-1-0.5-1.5c-1.1,1-2.1,2-2.7,2.5c-2.8-1.2-5.3-2.2-7.9-3.3
					c-5.2,16.9,4.5,39.9,21.7,50.8C300.2,319.1,301.2,316.6,302.5,313.3z M364.7,293.6c-1.4-1.2-2.6-2.3-3.9-3.5
					c-1.2,1.5-2.2,2.7-3.5,4.3c-1.1-1.5-1.9-2.5-2.9-3.9c-1,1.6-1.7,2.8-2.7,4.3c-1.7-1-3.1-2-5-3.1c-0.5,1.8-0.8,3.1-1.1,4.5
					c-5.9-2.2-5.9-2.2-8.5,2.6c-2.9-0.2-5.6-0.3-8.2-0.5c0,2.4,0.1,3.8,0.1,5.1c-1.1-0.2-2.2-0.3-3.3-0.5c-5-1.2-4.8,2.6-5.2,5.6
					c-6.8,0.2-7,0.3-7.2,6.3c-5,0.5-5,0.5-5.4,4.8c-2.2,1-4.2,1.9-6.1,2.9c0.1,0.5,0.2,1,0.3,1.5c13.9,7.6,28.4,8.5,43.1,2.5
					c15.4-6.3,25.2-17.8,29.9-35c-2.1,1.2-3.1,1.9-4.3,2.6c-1-1.1-1.9-2.1-2.9-3.1C366.7,291.8,365.7,292.7,364.7,293.6z
					 M284.4,265.9c1.9,2,4.2,4.3,6.3-0.3c0.1-0.2,1.8-0.1,2,0.3c3.1,4.9,5.1,1.9,7.1-0.9c0.2-0.2,0.5-0.3,0.8-0.5
					c6,3.8,7.1,2.6,9.3-3.5c1.3,1.2,2.3,2.1,4.2,3.9c1.6-1.9,3.3-4,5.5-6.5c0.4,0.3,1.6,1.2,3.4,2.5c0.8-1.1,2.6-2.3,2.7-3.7
					c0.5-5.3,2.7-2.4,5.2-0.8c0.5-1.8,0.9-3.4,1.5-5.5c1.2,0.1,2.6,0.3,4.1,0.4c1.2-1.3-1.8-7.1,3.9-3.8c0.7-1.6,1.3-3.2,2.4-5.8
					c0.2,0,1.6-0.1,3.2-0.2c-0.1-1.3-0.3-2.6-0.5-5c1.2,0,2.5,0,3.9,0c0.1-0.5,0.2-1,0.4-1.4c-4.9-1.6-9.7-3.7-14.8-4.6
					c-30.7-5.3-53.3,16.8-57.4,38.6C280.4,267.9,282.3,267,284.4,265.9z"/>
			</g>
		</g>
	</g>
</g>
</svg>
