<?xml version="1.0" encoding="utf-8"?>
<!-- Generator: Adobe Illustrator 22.0.0, SVG Export Plug-In . SVG Version: 6.00 Build 0)  -->
<svg version="1.1" id="Layer_1" xmlns="http://www.w3.org/2000/svg" xmlns:xlink="http://www.w3.org/1999/xlink" x="0px" y="0px"
	 viewBox="0 0 1080 1080" style="enable-background:new 0 0 1080 1080;" xml:space="preserve">
<g>
	<path d="M77.3,308.7c1.5,4.2,3.3,8.5,5.4,13c2.1,4.5,4.3,8.4,6.6,11.8c2.3,3.4,4.2,4.9,5.9,4.6c3.7,2.1,6.3,1.1,7.8-3
		c1-2.7,0.5-5.2-1.6-7.3c-2-2.1-4.3-2.6-6.7-1.5c-1.1,0.5-1.9,0.6-2.3,0.2c-0.4-0.4-1.4-1.8-3-4.2c-3.1-5.1-5.5-11.4-7.3-18.8
		c-1.8-7.4-2.5-14.8-2.1-22.2c0.6-8.5,2.4-16.3,5.5-23.4c3.1-7.2,6.9-11.8,11.4-13.9c1.5-0.7,2.6-1.1,3.3-1.2
		c0.7-0.1,1.6,0.2,2.6,0.8c1.3,0.8,2.8,2.7,4.6,5.8c1.8,3.1,4.1,8.1,6.9,14.9c2.7,6.8,6.2,15.8,10.3,26.9
		c4.1,11.2,9.2,25.2,15.1,42.2c2.4,7.1,4.5,12.9,6.2,17.4c1.7,4.6,3.2,8.4,4.4,11.6c1.3,3.2,2.5,6,3.7,8.5c1.2,2.5,2.5,5.3,3.9,8.2
		c2,3.8,3.8,7.1,5.4,9.9c1.5,2.8,3.1,5.3,4.7,7.4c1.6,2.1,3.3,4,5.1,5.8c1.9,1.7,3.9,3.5,6,5.2c3,2.5,6.3,4.4,10,5.7
		c3.7,1.3,6.8,1.7,9.3,1.2c4.2-0.8,7.4-2.8,9.8-6c2-2.5,3.2-6.7,3.7-12.4c0.5-5.7,0.2-12.2-0.9-19.4c-0.7-4.4-1.9-10.6-3.4-18.5
		c-1.6-7.9-3.2-15.9-4.9-23.8c-1.7-8-3.3-15.1-4.8-21.5c-1.5-6.3-2.5-10.1-3.1-11.2c-1.5-3.2-3-4.3-4.6-3.3c-1.6,1-1.8,3.1-0.7,6.5
		c0.3,1,0.9,3.6,1.8,7.9c1,4.2,2.1,9.1,3.3,14.5c1.2,5.5,2.4,11.1,3.7,16.9c1.3,5.8,2.2,10.7,3,14.7c2.1,10.6,3.4,19.1,4,25.5
		c0.6,6.3,0.5,11.3-0.3,14.9l-0.6,3.7l-3.8-2.3c-4.5-2.9-9.3-8.3-14.2-16.4c-4.9-8-9.8-18.2-14.4-30.6c-3-7.7-5.8-15.3-8.7-22.7
		c-2.8-7.4-5.5-14.5-8-21.2c-2.5-6.7-4.7-12.9-6.7-18.5c-2-5.7-3.6-10.6-4.9-14.8c-2.8-8.4-5.5-15.6-8.1-21.5
		c-2.5-5.9-5.1-10.6-7.6-14.2c-2.5-3.6-5-6.2-7.6-7.8c-2.6-1.6-5.4-2.6-8.6-3c-2.2-0.3-5.1,0.3-8.8,1.9c-3.7,1.6-7.2,3.8-10.4,6.5
		c-7.8,6.2-13.2,14.9-16.4,26.2c-3.1,11.3-3.6,23.2-1.5,35.9C74.9,301.7,75.8,304.5,77.3,308.7z"/>
	<path d="M168.1,222.5c2,2.2,4.6,3.7,7.7,4.4c1.2,0.2,2.3,0.4,3.2,0.5c1,0.2,1.6,0.3,1.8,0.4c0.7,0.2,1.1,1.4,1.2,3.8
		c0,1.8,0.1,3,0.3,3.7c0.2,0.7,0.6,1.4,1.3,2c1,0.7,2,0.9,3.2,0.5c1.2-0.4,2.1-1.2,2.6-2.6c0.5-1.5,0.9-3.7,1.1-6.4
		c0.2-2.8,0.3-5.7,0.3-8.8c0-3.1-0.2-6-0.5-8.6c-0.3-2.7-0.7-4.7-1.2-6c-1.8-4.4-4.7-7.2-8.9-8.4c-4.1-1.2-7.9-0.4-11.2,2.5
		c-2.5,2.1-4.1,4.5-4.9,7.3c-0.8,2.8-0.9,5.5-0.2,8.2C164.8,217.8,166.1,220.3,168.1,222.5z"/>
	<path d="M214.9,230.7c0.4,3.3,1.2,7.5,2.6,12.5c1.3,5,2.8,10.3,4.5,16.1c1.7,5.7,3.5,11.6,5.6,17.5c2.1,5.9,4.1,11.6,6.2,17
		c2.1,5.4,4.2,10.2,6.3,14.6c2.1,4.3,4,7.6,5.8,9.9c7.1,12.5,15,22.5,23.8,30c8.8,7.5,17,11.3,24.5,11.3c9.3-0.1,15.9-5.2,19.8-15.5
		c1.5-3.5,2.5-7.5,3-12.1c0.5-4.6,0.7-9.8,0.7-15.6c0.1-5.2-0.2-11.4-0.9-18.6c-0.7-7.2-1.5-13.7-2.2-19.6c0.8,1.3,1.6,2.5,2.4,3.6
		c0.8,1.2,1.6,2.5,2.5,3.9c6.6,10.7,14,19.2,22.4,25.4c8.4,6.2,16.4,9.3,23.9,9.1c9.1-0.5,15.9-5.2,20.2-14.3
		c1.6-3.3,2.7-6.9,3.5-10.8c0.7-3.9,1.3-8.5,1.6-13.8c0.2-3.5,0.2-7.6,0.1-12.3c-0.2-4.7-0.4-9.2-0.8-13.7
		c-0.4-4.4-0.8-8.4-1.3-11.9c-0.4-3.5-1-5.9-1.5-7c-0.4-1.2-0.7-1.9-1.1-2.1c-0.4-0.2-1.2-0.1-2.4,0.2c-1,0.3-1.6,0.7-1.8,1
		c-0.2,0.4-0.3,1.3-0.3,2.8c0.9,9.2,1.6,17.3,2,24.1c0.4,6.9,0.5,12.9,0.4,18c-0.1,5.1-0.6,9.5-1.3,13c-0.7,3.6-1.8,6.6-3.1,9.2
		c-0.7,1.3-1.5,2.6-2.3,4c-0.9,1.4-1.7,2.4-2.6,3.1l-2.6,2.1l-5.5-3.1c-6.4-3.9-12.9-10.3-19.6-19.3c-6.7-9-13-19.8-19-32.1
		l-3.1-6.8l5.2-5.2c5-4.8,9-10,12-15.7c3-5.7,5.4-12.4,7.4-20.1c1.9-8.4,2.8-16.6,2.6-24.6c-0.2-8-1.4-15.3-3.5-21.7
		c-2.1-6.5-5.1-11.9-8.9-16.2c-3.8-4.3-8.3-7-13.3-8c-3.8-0.5-8,0.2-12.4,2.2c-4.4,2-8.2,5-11.3,9c-6.7,9-10.2,20.3-10.5,34
		c-0.3,13.7,1.7,30.5,6,50.6c4,17.8,7,32.7,8.9,45c2,12.2,3.1,22.4,3.5,30.5c0.3,8.1,0.2,14.4-0.4,19.1c-0.6,4.6-1.5,8.3-2.6,11
		c-0.7,1.3-1.4,2.8-2.2,4.4c-0.8,1.6-1.6,2.8-2.5,3.5l-2.6,2.1l-5.8-4c-6.6-4.4-13.4-11.9-20.5-22.4c-7.1-10.5-14-23-20.7-37.6
		l-3.4-8l5.1-5.5c4.9-5.2,8.7-10.9,11.5-17.3c2.8-6.4,5-13.9,6.6-22.6c1.6-9.3,2.2-18.6,1.6-27.8c-0.6-9.2-2.1-17.5-4.5-25
		c-2.4-7.4-5.7-13.7-9.7-18.8c-4.1-5.1-8.7-8.3-13.8-9.5c-4-0.9-8.1-0.3-12.6,1.8c-4.4,2.1-8.1,5.4-11.1,9.7
		c-2.2,3.3-4.1,7.4-5.6,12.2c-1.5,4.9-2.6,10.3-3.4,16.3c-0.7,5.9-1.1,12.3-0.9,18.9C213.4,217.5,213.9,224.1,214.9,230.7z
		 M310,189.8c-0.3-3.7-0.4-8.1-0.3-13.4c0.1-6.7,0.9-12.5,2.6-17.3c1.6-4.8,3.7-8.3,6.3-10.5c2.6-2.2,5.4-3,8.5-2.3
		c3.1,0.7,6.3,3,9.4,6.9c2.4,2.9,4.5,7.3,6.4,13.2c1.8,5.9,2.8,11.5,3,16.9c0.3,5.1,0,10.2-0.8,15.3c-0.8,5.1-1.9,10-3.3,14.8
		c-1.4,4.8-3.2,9.2-5.4,13.3c-2.2,4.1-4.6,7.6-7.2,10.3c-3.1,3.3-4.9,5.1-5.6,5.5c-0.7,0.3-1.4-0.3-2.3-1.7
		c-0.6-1.1-1.3-3.2-2.1-6.2c-0.8-3-1.7-6.3-2.8-10c-1-3.7-2-7.4-2.8-11.3c-0.9-3.8-1.5-7.2-2-10.1C310.8,198,310.2,193.5,310,189.8z
		 M233,173.8c1.5-5.3,3.5-9.2,6-11.6c2.5-2.4,5.3-3.2,8.5-2.3c3.2,0.9,6.4,3.6,9.8,8.1c1.2,1.8,2.4,4,3.7,6.6
		c1.2,2.6,2.4,5.6,3.4,8.8c1,3.2,1.8,6.6,2.4,9.9c0.6,3.4,1.1,6.6,1.4,9.8c0.5,5.7,0.4,11.4-0.2,17.2c-0.6,5.8-1.5,11.3-2.8,16.6
		c-1.3,5.3-2.9,10.2-5,14.8c-2,4.6-4.3,8.5-6.8,11.6c-3,3.7-4.8,5.7-5.4,6c-0.7,0.3-1.5-0.5-2.5-2.3c-0.6-1.1-1.3-3.4-2.3-6.9
		c-1-3.5-2.1-7.3-3.3-11.6c-1.2-4.3-2.3-8.6-3.4-13c-1-4.4-1.9-8.3-2.4-11.5c-1-6-1.7-11.1-2.2-15.3c-0.5-4.3-0.8-9.4-0.9-15.4
		C230.9,185.6,231.5,179.1,233,173.8z"/>
	<path d="M468.2,241.2c1,5,1.9,9.9,2.8,14.8c0.9,4.9,1.9,9.4,2.9,13.7c1,4.2,1.9,8,2.9,11.2c0.9,3,1.6,4.8,2,5.4
		c0.4,0.6,1.3,1,2.8,1.3c3,0.5,6,0.4,9-0.2c3-0.6,5.3-1.6,6.9-2.8c1.5-1.2,2.4-2.4,2.7-3.7c0.2-0.4,0.1-2.1-0.1-5.1
		c-0.2-3-0.5-6.2-0.9-9.7c-0.4-7.2-0.3-13.7,0.1-19.4c0.4-5.7,1.4-12,3-18.8c1-4.5,2.4-9.4,4.1-14.9c1.8-5.5,3.6-9.9,5.3-13.2
		c1.7-3.3,4-6.8,6.8-10.5c2.8-3.7,5-6.2,6.5-7.4c3.9-2.5,7.6-1.9,11.2,1.9c3.6,3.8,6.6,9.9,9,18.3c1.7,6.4,2.6,13.8,2.7,22.1
		c0.1,8.3-0.8,16.9-2.5,25.8c-0.7,3.4-1.2,5.5-1.7,6.2c-0.4,0.8-1.5,1.5-3,2c-2.6,1.1-5.2,2.6-7.9,4.4c-2.7,1.8-5.2,3.9-7.4,6.1
		c-2.3,2.2-4.3,4.5-6.1,6.7c-1.8,2.3-3.1,4.4-3.7,6.3c-1,2.6-1.3,5.7-1,9.3c0.3,3.6,1,6.4,2.3,8.3c1.2,1.9,2.5,3.4,3.7,4.3
		c1.2,0.9,2.8,1.8,4.8,2.6c2.1,0.6,4.7,0.6,7.8-0.1c3-0.6,5.8-1.8,8.3-3.5c6.4-4.2,11.9-10.1,16.6-17.6c4.7-7.5,8-16.1,9.8-25.6
		c0.3-1.3,0.8-2.3,1.5-3.1c0.7-0.8,2.5-2.1,5.2-3.8c3.7-2.3,7.1-5.2,10.2-8.9c3.1-3.7,5.6-7.4,7.5-11.4c0.8-1.7,1.7-3.9,2.4-6.3
		c0.1-0.4,0.2-0.8,0.3-1.2c0.1,2.1,0.2,4.2,0.3,6.2c0.7,10.8,1.9,21.1,3.6,30.7c1.1,6,1.9,10.1,2.6,12.3c0.6,2.3,1.5,3.7,2.5,4.3
		c1.9,1.4,5.3,0.9,10.2-1.6c1.6-0.8,2.9-1.6,3.8-2.3c0.9-0.7,1.6-1.9,2.1-3.6c0.5-1.7,0.8-4,0.9-7.1c0.1-3.1,0.1-7.4,0.1-13
		c0.1-15.9,1.1-29.1,3.1-39.6c2-10.5,5-20,9.1-28.5c2.2-4.8,5.1-9.3,8.6-13.7c3.5-4.4,6.6-7.4,9.5-9c1-0.4,1.6-0.5,1.7-0.3
		c0.1,0.2,0,1-0.4,2.5c-0.6,3.5,0.2,6.9,2.5,10c2.3,3.2,5,4.8,8.1,4.7c1.6,0,3.1-0.5,4.5-1.6c1.3-1,2.4-2.4,3.2-4
		c0.8-1.7,1.3-3.5,1.4-5.4c0.1-2-0.3-3.9-1.1-5.7c-1.9-4.5-4.8-7.4-8.7-8.6c-3.9-1.2-8.2-0.6-13,1.9c-2.1,1-4.2,2.6-6.5,4.7
		c-2.3,2.1-4.5,4.5-6.6,7.2c-2.1,2.7-4.2,5.6-6.1,8.7c-1.9,3.1-3.5,6.2-4.7,9.3c-1.4,3.3-2.8,7.4-4.2,12.2
		c-1.4,4.9-2.6,9.4-3.6,13.8c-0.6,2.7-1,3.6-1.1,2.8c-0.1-0.8-0.1-4.8,0.1-12.1c0.2-4.1,0.4-9,0.7-14.5c0.3-5.6,0.6-10.2,1-13.9
		c0.6-7.4,0.7-12.4,0.5-14.8c-0.2-2.5-1.1-4.2-2.5-5.2c-1-0.6-2.4-1-4.2-1.1c-1.8-0.1-3.6,0-5.4,0.3c-1.9,0.3-3.5,0.8-5.1,1.6
		c-1.5,0.7-2.6,1.6-3.2,2.6c-1.2,1.9-2.1,5.7-2.7,11.6c-0.6,5.9-1,15.2-1.4,28c0,3.3,0,6.6,0,9.8c-1.6,0.3-2.5,1.4-2.7,3.3
		c-2.1,13.5-5.5,23.5-10.1,30c-0.5,0.7-1.4,1.6-2.7,2.8c-1.2,1.2-2.4,2.3-3.5,3.3c-1.1,1.1-2.2,1.9-3.1,2.7c-1,0.7-1.6,1-1.8,0.8
		c-0.2-0.2-0.3-1.2-0.2-2.9c0.1-1.8,0.3-3.9,0.4-6.4c0.3-3.3,0.4-7.1,0.3-11.4c0-4.2-0.2-8.5-0.6-12.8c-0.4-4.3-0.9-8.5-1.5-12.4
		c-0.6-4-1.3-7.2-2-9.6c-2-7-4.9-12.8-8.6-17.4c-3.7-4.6-7.7-7.2-11.9-7.7c-4.8-0.7-10,0.3-15.5,3.1c-5.5,2.8-10.7,6.9-15.5,12.4
		l-5.5,6.5l3.4-6c2.2-4.2,4.3-9,6.2-14.5c1.9-5.5,3.1-10.3,3.7-14.5c0.5-2.7,0.8-5.3,0.9-7.6c0.1-2.3-0.1-5.5-0.6-9.6
		c-0.3-2.5-0.5-4.4-0.8-5.8c-0.3-1.4-0.5-2.6-0.7-3.7c-0.2-1-0.6-1.9-1.1-2.7c-0.5-0.8-1.1-1.8-1.9-3.2c-2-3.3-4.2-5.7-6.5-7.2
		c-2.3-1.5-5.1-2.6-8.3-3.3c-5.3-1.1-10.4-0.4-15.3,2c-4.9,2.4-9.2,6.2-12.8,11.3c-14.7,19.6-18.2,54-10.7,103.1
		C466.4,231.4,467.2,236.2,468.2,241.2z M538.9,268.7c-0.7,1.4-1.6,3.1-2.7,5.1c-1.1,2-2.4,4-3.7,6.1c-1.3,2.1-2.6,4-3.9,5.5
		c-1.5,1.8-2.8,3.4-4.1,4.8c-1.3,1.4-2.2,2.1-2.6,2.1c-1,0.1-1.6-0.1-1.6-0.6c-0.1-0.5,0.3-2.3,1-5.2c0.5-3,2-5.9,4.3-8.9
		c0.9-0.9,2.2-2.1,3.7-3.5c1.5-1.4,3-2.8,4.4-4c1.4-1.3,2.7-2.3,3.9-3.1c1.2-0.7,1.9-1,2.1-0.8C539.8,266.5,539.6,267.3,538.9,268.7
		z M505.5,197.2c-1.8,3.9-3.8,8.9-5.8,14.9c-2,6-3.6,12.1-4.8,18.2c-0.4,1.9-0.7,4-1,6.3c-0.3,2.3-0.5,4.3-0.7,6
		c-0.3,2.5-0.5,3.9-0.6,4.3c-0.1,0.3-0.4,0-0.9-1c-0.3-0.8-0.7-2.9-1.3-6.4c-0.6-3.5-1.2-7.2-1.8-11.3l-2-15.3l5.4-4.3
		c1.5-1.2,3.4-3,5.6-5.3c2.2-2.3,4.1-4.4,5.8-6.2l6-7.2L505.5,197.2z M484.4,165c0.1-6,0.3-10.7,0.5-14c0.9-6.9,2.3-13.2,4.2-18.6
		c1.9-5.5,4.1-9.6,6.8-12.4c2.6-2.6,5.6-3.5,8.9-2.8c3.3,0.7,6.2,2.9,8.6,6.5c1.2,1.9,2,3.6,2.4,5c0.4,1.4,0.8,4.3,1.2,8.6
		c0.4,4.1,0.6,7.2,0.5,9.4c-0.1,2.2-0.5,4.8-1.2,7.7c-1.9,8.9-5.1,17.4-9.4,25.4c-4.3,8-9.5,14.8-15.6,20.2
		c-1.5,1.2-2.8,2.3-3.7,3.2c-0.9,0.9-1.5,1.4-1.7,1.4c-0.4,0-0.7-2.1-1-6.4c-0.3-4.3-0.4-9.4-0.6-15.3
		C484.3,177,484.3,171,484.4,165z"/>
	<path d="M692.6,139c2,1.4,4.4,2,7.3,1.9c2.9-0.1,5.2-0.9,7-2.5c3.9-3.2,6.2-7.2,6.7-11.9c0.5-4.7-0.8-8.8-4.1-12.4
		c-1.2-1.1-2.2-1.9-3.1-2.2c-0.9-0.4-2.5-0.7-4.7-1.1c-2.2-0.4-3.9-0.5-4.9-0.3c-1,0.1-2.2,0.6-3.5,1.3c-1.9,1.3-3.7,2.8-5.3,4.6
		c-0.9,1.2-1.5,2.3-1.8,3.3c-0.3,1-0.4,2.8-0.4,5.2C685.6,130.7,687.9,135.4,692.6,139z"/>
	<path d="M1007.7,272.8c-1.6-0.6-3.2,0.3-4.7,2.8c-4.8,7.3-9.6,13.6-14.2,18.9s-9.8,9.8-15.4,13.6l-6,4.2l3.2-9.7
		c0.8-2.3,1.6-5.3,2.6-8.9c1-3.6,2-7.3,3-11.1c1-3.8,2-7.4,2.8-11c0.8-3.5,1.5-6.4,2-8.6c1.4-6.3-0.3-10.2-5.2-11.8
		c-2.2-0.7-4.9-1-8.1-0.7c-3.2,0.2-5.5,0.8-6.9,1.6c-0.5,0.3-1.8,1.7-3.9,4.3c-2.1,2.6-4.4,5.6-7.1,9.1
		c-14.8,19.6-27.2,31.8-37.2,36.5l-4.3,2.2l-0.7-4.8c-1.1-6-1.1-12.6-0.1-19.7c1-7.2,2.6-14.3,4.8-21.4c2.2-7.1,5-13.7,8.4-20
		c3.4-6.3,7.1-11.3,11.2-15.2c2.5-2.4,5.7-4.6,9.4-6.7c3.7-2,6.1-2.9,7.1-2.6c2,0.6,3.5,2.7,4.5,6.1c1.1,3.4,1.6,7.8,1.5,13.2
		c0,3.3,0.2,5.5,0.7,6.7c0.5,1.2,1.3,1.9,2.7,1.9c1.8-0.3,2.9-2.7,3.3-7.4c0.3-4.7-0.1-9.6-1.5-14.8c-1.4-5.7-4.4-10.5-9-14.4
		c-4.6-3.9-9.7-5.9-15.3-6c-5-0.1-10.3,1.8-15.9,5.8c-5.7,4-11.4,9.7-17.1,17.1c-3.4,4.6-6.4,9.6-9,14.8c-0.1-0.6-0.3-1.1-0.5-1.6
		c-0.6-1.1-1.7-1.3-3-0.7c-0.4,0.1-1,0.8-1.6,1.9c-0.6,1.1-1.3,2.5-2,4c-1.7,4.7-3.8,10.1-6.4,16.3c-2.6,6.1-5.2,12.2-7.7,18.2
		c-2.6,6-5,11.5-7.2,16.3c-2.2,4.8-4,8.3-5.2,10.4c-2.5,4.4-4.8,8-6.8,10.8c-2.1,2.9-3.3,3.9-3.5,3c-0.7-1.8-1.1-5.6-1-11.5
		c0-5.9,0.4-12,1.1-18.3c0.4-4.3,1.1-9.6,2.3-15.9c1.1-6.3,2.5-12.9,4.1-19.8c1.6-6.9,3.3-14,5.1-21.2c1.8-7.2,3.6-13.8,5.3-19.8
		c1.8-6.2,3.2-11.5,4.3-15.9c1.1-4.4,2.1-9.8,3.1-16.1c0.8-4.5,1.4-8.1,1.7-10.9c0.3-2.8,0.4-5,0.3-6.7c-0.1-1.7-0.4-3.2-0.9-4.4
		c-0.5-1.2-1.3-2.6-2.3-4c-3.1-3.9-7.9-6-14.5-6.4c-3.4,0-6.2,0.3-8.7,0.9c-2.4,0.6-5.6,1.9-9.5,3.9c-9.7,4.9-20.3,15.3-31.7,31
		c-11.5,15.7-22.4,35.2-33,58.4c-3.4,7.3-5.5,11.5-6.1,12.6c-0.6,1-0.9,0.5-1-1.6c0.1-0.6,0.3-1.9,0.7-3.8c0.4-1.9,0.8-4.4,1.4-7.4
		c0.6-3,1.2-6.5,2-10.3c0.8-3.8,1.6-7.8,2.3-11.8c2.3-11.7,4.2-21,5.5-27.7c1.3-6.8,2.2-12,2.7-15.7c0.5-3.7,0.5-6.3,0.2-8
		c-0.3-1.6-0.9-3-1.7-4.2c-0.9-1-2.2-1.9-3.9-2.6c-1.8-0.7-3.5-1.2-5.4-1.5c-1.8-0.2-3.7-0.2-5.5,0.1c-1.8,0.3-3.1,0.9-3.9,1.8
		c-0.5,0.5-1.2,2.1-2,4.8c-0.8,2.7-1.7,6.1-2.8,10.3c-1.1,4.2-2.2,9-3.2,14.3c-1.1,5.4-2.2,11-3.2,16.8c-0.4,2.4-0.8,4.6-1.2,6.9
		c-0.2,0-0.4,0.1-0.6,0.2c-0.6,0.4-1.2,1.2-1.7,2.5c-0.5,1.3-1.2,3.9-2.1,7.8c-1.2,5.9-2.9,12.3-4.9,19.2c-2,6.9-4.2,13.6-6.5,20.2
		c-2.3,6.6-4.6,12.6-7,18.1c-2.3,5.5-4.5,9.9-6.3,13c-2.3,4-4.3,6.8-5.9,8.4c-1.6,1.6-3.5,2.9-5.8,3.8l-4.2,1.9l-1.7-2.6
		c-1.9-2.4-3.4-6.6-4.5-12.6c-1.1-6-1.8-13.3-2-22c0-2.7,0.2-7.8,0.8-15.4c0.5-7.6,1.2-16,2.1-25.1c0.8-9.1,1.7-18.3,2.7-27.5
		c1-9.2,1.8-16.8,2.7-22.7c0.5-4.1,0.9-7.5,1.2-10.1c0.3-2.7,0.3-4.8,0-6.5c-0.3-1.7-0.9-3-1.7-3.8c-0.9-0.9-2-1.6-3.4-2.1
		c-2.2-1-4.9-1.2-8-0.6c-1.9,0.3-3.4,0.6-4.6,0.9c-1.2,0.3-2.1,0.9-2.8,1.8c-0.7,0.9-1.2,2.1-1.7,3.8c-0.4,1.6-0.9,3.8-1.5,6.4
		c-1.2,6.1-2.4,13.6-3.6,22.4c-1.1,8.8-2.1,17.7-2.8,26.6c-0.7,8.9-1.3,17.4-1.6,25.5c-0.4,8-0.4,14.3-0.1,18.9
		c1.4,24.5,8,40.3,19.9,47.6c2.6,1.4,5.5,2.3,8.6,2.8c3.2,0.4,6,0.2,8.6-0.6c2.1-0.9,4.5-2.6,7.2-5.1c2.7-2.5,5-5.4,7.1-8.8
		c2.1-3.6,4.7-9,7.8-16.3c3.1-7.3,6-15.1,8.8-23.4c1.1-3.4,2.2-6.7,3.2-10c-0.6,8.7-0.6,16.2,0,22.5c0.5,5.1,1.1,8.2,1.8,9.3
		c0.6,1.1,2.7,1.5,6.1,1.3c5.7-0.2,9.5-1.5,11.4-3.9c0.5-0.3,1.4-2,2.8-5c1.4-3,2.9-6.3,4.6-10c9-21.8,18.1-40.5,27.2-56
		c9.1-15.5,18.4-28.3,27.7-38.3c4.4-4.6,8.9-8.3,13.3-11.1c4.5-2.7,7.6-3.6,9.3-2.7c1.3,0.7,2.1,2.8,2.3,6.5
		c0.2,3.7-0.2,8.6-1.1,14.7c-0.9,6.1-2.3,13.2-4.2,21.4c-1.9,8.1-4.1,16.8-6.6,26c-6,20.3-10,37.7-11.9,52.2
		c-1.9,14.5-1.8,25.9,0.2,34c1.9,7.7,4.8,12.9,8.5,15.7c2,1.4,3.5,2.3,4.4,2.5c0.9,0.3,2.5,0.1,5-0.5c4.4-1.3,9-5.4,13.7-12.4
		c4.7-7,10.3-17.9,16.8-32.6c2.7-6.4,5.2-12.2,7.5-17.7c-0.2,0.8-0.4,1.6-0.5,2.4c-1.4,7.6-1.8,14.6-1.3,21.1
		c0.6,6.5,2.3,11.7,5.1,15.7c0.8,0.9,1.8,1.9,2.9,2.9c1.2,1,2.3,2,3.3,2.7c13.5,7.7,31.6-2,54.1-29.3l5.5-6.7l-0.9,4.6
		c-0.5,2-1.5,6.4-3.3,13.1c-1.7,6.7-3.7,15.2-6.1,25.5c-0.4,1.2-0.8,2.1-1.1,2.9c-0.4,0.8-1.1,1.4-2.2,1.9c-1.1,0.5-2.9,0.9-5.3,1.3
		c-2.4,0.4-5.8,1-10.2,1.7c-13.2,1.9-23.7,4.2-31.4,6.7c-7.7,2.6-14.3,6-19.8,10.2c-4.1,3.2-7.1,6.1-8.9,8.8
		c-1.9,2.6-3.6,6.3-5.1,11c-3.8,12.8-2.1,22.8,5.1,30c1.6,1.6,3.1,2.7,4.5,3.3c1.3,0.6,4.1,1.4,8.3,2.6c2.2,0.7,3.9,1.2,5.2,1.6
		c1.3,0.3,2.6,0.5,3.7,0.6c1.2,0.1,2.4,0.1,3.6,0c1.2,0,2.9-0.2,5-0.6c5.2-0.7,9.9-1.8,14-3.3c4.1-1.6,8.1-3.6,11.9-6
		c3.4-2.4,7-5.5,11-9.4c3.9-3.9,7.3-7.8,10.1-11.6c1.6-2.3,3.5-5.2,5.7-8.9c2.2-3.6,4.3-7.4,6.4-11.4c2.1-4,4-7.9,5.7-11.8
		c1.7-3.9,3.1-7.3,4-10.2c0.6-1.8,1.2-3,1.9-3.8c0.7-0.8,2.5-1.9,5.4-3.6c4-2.2,8.4-5.1,13.2-9c4.8-3.8,8.7-7.4,11.6-10.8
		c1.4-1.5,2.8-3.2,4.3-5.2c1.5-2,2.9-4,4.2-5.9c1.3-2,2.4-3.8,3.4-5.4c1-1.6,1.6-2.8,1.8-3.6
		C1009.7,275.1,1009.3,273.4,1007.7,272.8z M938.5,330.2c-0.4,1.4-1.1,3.1-2.2,5.1c-3.2,7.8-7,15-11.4,21.6
		c-4.4,6.6-9,12.3-13.8,17.1c-4.8,4.8-9.8,8.6-14.8,11.4c-5,2.8-10,4.2-14.8,4.4c-2.4,0.1-4.9-0.3-7.4-1.2c-2.5-0.8-4.5-1.9-5.8-3.2
		c-5.4-5.5-6.3-13.3-3-23.5c1.1-3.3,2-5.6,2.8-6.9c0.7-1.3,2.3-3.1,4.5-5.3c2.6-2.6,5.4-4.9,8.3-6.9c2.9-2,6.4-3.6,10.3-5.1
		c3.9-1.4,8.5-2.7,13.7-3.9c5.2-1.2,11.3-2.4,18.4-3.5c3.8-0.5,7.2-0.9,10.2-1.3c3-0.4,4.7-0.7,5.1-0.7
		C938.9,328.1,938.9,328.8,938.5,330.2z"/>
	<path d="M323.1,812.9c-4.1,0.1-8.2,0.3-12.2,0.8c-9.4,1.2-18.3,4.4-27.2,7.4c-9.1,3.1-18.3,6-27.5,8.8c-1.2,0.4-2.8,0.6-4,0.2
		c-4.1-1.2-7.9-0.7-11.5,1.5c-5.9,3.7-11.6,7.4-17.4,11.2c-5.2,3.4-10.3,6.8-15.4,10.2c-1,0.7-2.2,1.1-3.4,1.8
		c-1.8-4.8-3.5-9.2-5.1-13.8c-4.3-12-8.9-23.9-12.7-36.1c-4.3-13.6-6.3-27.7-8.9-41.7c-3-16.3-7.6-32.1-14.8-47.2
		c-3.6-7.5-7.1-15.1-10.5-22.8c-3.4-7.7-6.5-15.7-12.3-22.7c1.4-0.6,2.4-1,3.4-1.3c21.6-6.9,43.2-13.9,64.9-20.7
		c14.8-4.7,29.6-9,44.3-13.8c15-4.9,29.1-11.8,43.3-18.4c5.5-2.6,11.1-5,16.7-7.1c-4.5-3.6-8.3-7.3-11.4-10.9
		c-6.6,1.8-13.1,3.8-19.6,6c-12.9,4.3-25.7,9-38.7,12.8c-38.6,11.3-77.1,22.6-115,35.8c-3.9,1.4-7.9,2.7-11.8,4.2
		c-4.5,1.8-7,5.3-7.4,10.1c-0.4,4.6,2.2,7.3,6.2,9.2c3.7,1.8,7,4.3,9.5,7.6c2.7,3.7,5.2,7.6,7.5,11.6c2.8,4.9,5.1,10.1,7.7,15.1
		c5.5,10.7,10.7,21.6,14.5,33c0.4,1.3,0.8,2.5,1.2,3.9c-1,0.3-1.6,0.5-2.3,0.8c-4.5,1.6-9.1,3-13.6,4.9c-8.6,3.7-16.5,8.7-24.2,13.9
		c-13.3,8.9-26,18.7-40.3,26.1c-3.9,2-5.2,6.2-3.8,10.6c1.1,3.3,3.1,5.7,6.4,6.9c9,3.1,16.1,8.9,22.1,16.1
		c3.7,4.5,7.3,9.2,10.8,13.9c7.5,10,15.4,19.6,24.9,27.8c1.8,1.6,2.3,3.2,2,5.4c-1.2,9-2.4,18.1-3.3,27.1c-1,9.6-0.5,19,3.1,28.1
		c0.9,2.1,1.5,4.3,2.3,6.5c2.6,7.4,4.5,14.8,3.5,22.7c-0.4,3.4,1.2,6.1,4.4,7.7c0.8,0.4,1.6,1,2.2,1.7c1.2,1.3,2.6,1.9,4.4,2.1
		c7.5,0.7,14.9-0.1,22.1-1.8c20.9-4.8,39.6-14.4,56.6-27.4c1.5-1.1,3-2.2,4.7-3.2c10.5-6.2,21.3-12.2,31.6-18.7
		c11-6.9,22.4-13.4,31.1-23.5c2.3-2.7,3.6-5.4,2.6-8.8c-0.8-2.7-1.7-5.4-3.1-7.8c-2-3.5-4.4-6.9-6.8-10.2c-5-7-10.1-13.9-15.2-20.8
		c-0.5-0.6-0.8-1.4-1.2-2.1c0.8-0.3,1.4-0.5,2-0.7c9.6-3.6,19.2-7,28.8-10.8c6.5-2.6,12.9-5.6,19.2-8.5c4.1-1.9,5-5.6,2.6-9.3
		C327.8,814,325.7,812.8,323.1,812.9z M249.1,852.1c3,8.7,8.3,16.2,13.8,23.9c-3.3,0.8-5.5,0.1-7.3-2.3c-4-5.4-8.1-10.7-12.1-16
		c-0.6-0.8-1.1-1.8-1.7-2.7C243.9,853.1,246,851.8,249.1,852.1z M235.8,858.7c2.8,5.8,5.5,11.4,8.2,17.2c-1.9,0.4-3.4,0.3-5.2-1.1
		c-3.9-3.1-7.1-6.7-10.1-11.1C231.2,862,233.5,860.3,235.8,858.7z M223.2,867.6c1,2.9,1.8,5.6,2.8,8.5c-5.3,0.3-10.1-0.2-15-1.6
		C214.9,872.3,218.9,870.1,223.2,867.6z M261.8,899.8c-10.8,6.3-21.7,12.6-32.5,19c-2.8,1.6-5.7,3.2-8.4,5c-1.7,1.1-3.2,2.7-4.8,4
		c-1,0.9-2.1,1.8-3.2,2.5c-7.7,5-16,8.6-24.4,12.1c-7.7,3.2-15.4,6.6-23.1,9.8c-0.4,0.2-0.8,0.2-1.4,0.4c-0.2-10-3.3-19.2-6.1-28.6
		c-1.6-5.5-3-11.1-3.5-16.9c-0.5-6.7,0.7-13.1,1.7-19.6c0.9-5.6,1.6-11.2,1-16.9c-0.7-5.7-3.1-10.5-8-13.6
		c-6.6-4.2-11.7-9.8-15.9-16.3c-2.8-4.3-5.5-8.6-8.2-13c-6.1-10-13.5-18.9-22.9-25.9c-0.3-0.2-0.8-0.3-1.7-0.6
		c20.6-13.6,38.6-28.8,57.7-43.4c0.6,2.7,1.1,4.8,1.4,6.9c0.4,2.2,0.6,4.3,1,6.8c-3.6,0.3-5.5,2.8-7.8,4.9
		c-5.5,5.1-11.1,10.2-16.5,15.4c-2.3,2.2-4.3,4.6-6.3,7c-0.5,0.6-1,1.4-1.2,2.1c-0.4,1.4,0.2,2.5,1.3,3.2c1,0.7,2.1,0.5,2.9-0.3
		c6.5-6.7,14.9-10.3,22.7-15c2.1-1.3,4.2-2.7,6.7-4.4c0.3,2.2,0.6,3.9,0.8,5.3c-4.1,2.8-8.1,5.4-11.8,8.1c-4.9,3.6-9,8.1-12.6,13.1
		c-0.6,0.8-1.2,1.8-1.3,2.8c-0.1,2.2,2.9,3.7,4.9,2.5c0.7-0.4,1.3-1.1,1.9-1.7c6.1-5.6,13-10.2,21.1-13.2c0.4,1.6,0.7,3.1,1,4.3
		c-4.5,3.7-8.8,7.1-12.7,10.7c-2.5,2.3-4.6,5.1-6.8,7.8c-1.3,1.7-1.3,3.1-0.3,4.3c1.1,1.3,2.8,1.8,4.5,0.8c3.2-1.8,6.3-3.7,9.4-5.6
		c2.9-1.8,5.7-3.8,8.9-5.9c0.9,2.7,1.6,5,2.3,7.2c-3.4,3.1-6.6,6.1-9.8,9c-0.3,0.3-0.6,0.6-0.9,0.9c-2.2,2.3-2.5,4.2-1.1,6.1
		c1.1,1.5,3.5,2.2,6.2,0.4c2.9-2,6.1-3.7,9.4-5.7c1.1,2.8,2.1,5.5,3.3,8.5c-4.2,0.3-6.2,3.2-8.4,5.9c-1.3,1.5-1,3.6,0.4,4.8
		c1.4,1.3,3.3,1.4,4.8,0.1c1.7-1.5,3.2-3.2,5.2-5.2c0.8,2.2,1.6,4.1,2.4,6.3c-2,1.7-4,3.3-5.9,5c-2.1,1.9-2.1,4.4-0.1,6.3
		c1.4,1.4,3,1.6,4.9,0.7c0.7-0.4,1.4-0.9,2.2-1.3c0.6-0.3,1.3-0.6,2.1-1.1c0.5,1.7,1.1,3.2,1.4,4.7c0.6,2.5,1.8,4.6,3.8,6.3
		c0.8,0.7,1.1,1.8,1.7,2.7c-3,2.6-5.8,4.8-8.3,7.3c-4.4,4.4-8.7,9-13,13.6c-0.6,0.7-1.2,1.5-1.5,2.4c-0.4,1.3-0.2,2.5,1,3.4
		c1.1,0.9,2.3,0.9,3.5,0.1c0.7-0.5,1.3-1.1,1.9-1.6c7.3-6.2,15.3-11.3,23.6-16.1c0.6-0.3,1.4-0.6,2-0.4c3,1,6,2.2,9.4,3.5
		c-0.9,0.9-1.5,1.6-2.3,2.3c-5.7,4.7-11.5,9.4-17.3,14.1c-0.6,0.5-1.4,1-1.9,1.6c-0.3,0.5-0.4,1.4-0.2,1.9c0.1,0.3,1,0.4,1.6,0.5
		c0.3,0,0.6-0.2,0.9-0.3c7.7-3.7,15.5-7.4,23.1-11.3c3.1-1.5,6-3.4,8.9-5.3c1.6-1,3-1.2,5-0.2c-1.1,0.8-1.9,1.3-2.7,1.9
		c-16.3,10.8-31.4,23-46.2,35.7c-0.4,0.3-0.9,0.7-1.1,1.1c-0.2,0.6-0.4,1.5-0.1,1.9c0.3,0.4,1.3,0.7,1.9,0.6
		c0.9-0.2,1.7-0.8,2.5-1.3c12.3-7.3,24.6-14.8,37-21.9c5.1-2.9,10.5-5.1,15.9-7.4c5.1-2.2,10.2-4.3,14.5-8c0.4-0.4,1.1-0.7,1.7-0.7
		c3.8,0.3,7.7,0.6,11.5,1c0.1,0.2,0.1,0.4,0.2,0.6C263.6,898.6,262.7,899.2,261.8,899.8z M279.2,877.7c-1.7,0.4-2.7,0-3.7-1.2
		c-2.4-2.9-4.9-5.7-7.5-8.4c-4.6-4.9-7.8-10.5-10.4-16.6c-0.1-0.3-0.1-0.6-0.2-1.1c2-0.5,4-0.9,6.3-1.4
		C266,860.2,273.3,868.4,279.2,877.7z"/>
	<path d="M998.4,792.7c-9.3-4.7-17.7-10.7-26.3-16.5c-7.8-5.3-15.6-10.6-23.5-15.6c-8.6-5.4-17.8-9.7-27.8-12.1
		c-0.5-0.1-0.9-0.5-1.4-0.7c0.5-1.6,1-3.1,1.5-4.6c6.3-18.5,15.8-35.5,24.9-52.7c3.4-6.3,8.5-11,15-14.3c4.4-2.2,6-5.8,4.9-10.4
		c-0.9-3.7-3-6.4-6.5-8c-1.1-0.5-2.3-0.9-3.5-1.3c-26.1-9.3-52.5-17.8-79.1-25.8c-17.7-5.3-35.6-10.2-53.3-15.7
		c-14.2-4.4-28.3-9.3-42.4-14.1c-1.1,2.8-2.4,5.6-3.8,8.3c-0.9,1.8-2.2,3.3-3.7,4.6l-1.1,0.9c1.7,0.4,3.4,0.7,5,1.4
		c11.5,5,22.9,10.4,34.5,15.2c15.1,6.3,31,10.3,46.5,15.1c24.4,7.6,48.7,15.4,73,23.2c1,0.3,2,0.8,3.3,1.2
		c-4.5,5.5-7.5,11.4-10.1,17.5c-2.4,5.7-5.1,11.3-7.5,16.9c-4.1,9.3-8.4,18.5-12.1,27.9c-4.9,12.6-7.1,26-9.5,39.3
		c-2.4,13-4.6,26-8.9,38.5c-5,14.5-10.5,28.9-15.8,43.3c-0.1,0.2-0.3,0.3-0.6,0.7c-7.4-3.6-13.8-8.4-20.3-13.2
		c-0.5-0.4-0.9-1.2-1-1.8c-0.5-2.3-1.9-3.5-3.9-4.5c-10.5-5-21.5-8.8-32.7-11.8c-14.2-3.9-28.6-7.4-42.7-11.4
		c-29-8.3-58.3-14.1-88.6-14.6c-13.5-0.2-26.8-2-39.8-6.4c-9.7-3.2-19.7-4.2-29.3,0.7c-1.3,0.7-2.7,0.5-4.3,0.3
		c-3.8-0.6-7.7-1.1-11.5-1.2c-11-0.2-21.2,3.5-31.2,7.4c-2.1,0.8-2.9,2.6-2.3,4.6c0.5,1.9,2.2,3,4.3,2.8c1.8-0.2,3.5-0.6,5.3-0.8
		c5.5-0.6,11-1.3,16.5-1.5c6.1-0.2,11.8,1.1,16.7,5.2c2.6,2.2,5.7,2.3,8.9,1c0.6-0.2,1.1-0.5,1.7-0.8c5.7-2.8,11.6-3.2,17.7-1.4
		c3,0.9,5.9,2.1,8.9,3c4,1.2,8,2.6,12,3.5c7.4,1.6,15,1.5,22.5,1.8c17.7,0.6,35.3,1.6,52.7,5.1c9.3,1.9,18.5,4.4,27.2,8.4
		c12.9,6,26.1,11.3,39.7,15.6c0.6,0.2,1.1,0.5,1.8,0.8c-0.5,0.8-0.8,1.4-1.2,2c-4.9,6.7-9.8,13.3-14.6,20c-2.3,3.2-4.8,6.4-6.7,9.8
		c-1.6,2.8-2.7,5.9-3.7,8.9c-0.8,2.4-0.5,4.9,1.1,6.9c2.2,2.7,4.4,5.6,7.2,7.7c8,5.9,16,11.8,24.4,17.1
		c10.7,6.8,21.8,12.9,32.7,19.4c1.3,0.8,2.7,1.6,3.9,2.6c12.3,9.7,25.9,17.3,40.6,22.9c11.3,4.3,23,7.2,35.2,7.1
		c3.3,0,6.8,0.1,9-3.3c0.2-0.2,0.5-0.3,0.8-0.5c4.2-1.8,5.4-5.2,4.9-9.5c-0.6-5.3,0.1-10.4,1.7-15.5c1.5-4.8,3.1-9.5,4.8-14.3
		c2.3-6.5,3.4-13.2,2.8-20.1c-0.4-5.3-0.9-10.6-1.5-15.9c-0.7-6.1-1.5-12.3-2.3-18.4c-0.2-1.5,0.2-2.5,1.3-3.5
		c10.1-8.8,18.6-19,26.5-29.7c3.8-5.1,7.8-10.1,12-14.9c5.4-6.2,11.9-10.9,19.7-13.6c0.3-0.1,0.6-0.2,0.9-0.3c3.9-1.9,6-5.1,6.3-9.4
		C1004.2,797.1,1002,794.5,998.4,792.7z M851.7,867.7c4.2,2.4,8.1,4.6,12.6,7.2c-5.3,1.5-10.1,1.4-15.5,1.5
		C849.8,873.2,850.7,870.6,851.7,867.7z M845.9,863.6c-2.9,5.1-6.8,8.8-11.2,12c-0.9,0.7-2.5,0.4-4.1,0.6c2.9-6,5.5-11.6,8.4-17.6
		C841.4,860.4,843.6,862,845.9,863.6z M833.2,855.3c-3.3,4.6-6.7,9.2-10.1,13.8c-1.2,1.7-2.7,3.2-4,4.8c-2.4,2.8-2.6,2.8-7.1,2.2
		c5.3-7.6,10.8-15,13.8-23.9C829.5,852.2,830.1,852.4,833.2,855.3z M799.4,876.5c-1,1.2-2,1.7-3.7,1.3c5.7-9.3,13.2-17.5,15.4-28.8
		c2.4,0.6,4.3,1,6.5,1.5c-0.3,0.9-0.5,1.7-0.8,2.4c-3,6.3-6.5,12.1-11.6,17C803,871.9,801.2,874.2,799.4,876.5z M972.3,802
		c-8.2,6.2-14.9,13.8-20.4,22.4c-3.4,5.4-6.7,10.9-10.2,16.2c-4.2,6.4-9.3,12.1-15.9,16.3c-5.9,3.8-8.3,9.7-8.3,16.4
		c0,5.3,0.9,10.6,1.4,15.9c0.4,3.9,1.2,7.9,1.5,11.8c0.5,6.9-0.9,13.5-2.7,20.1c-1.9,6.9-3.9,13.7-5.6,20.6c-0.8,3.4-1,7-1.5,10.9
		c-2.3-1.1-4.4-2.1-6.5-3c-8.1-3.4-16.3-6.5-24.3-10.2c-6.3-2.9-12.3-6.3-18.3-9.6c-0.8-0.4-1.8-0.9-2.2-1.7c-2-2.9-5-4.5-7.8-6.1
		c-12.6-7.4-25.3-14.7-38-22.1c-1.1-0.6-2.1-1.4-3.8-2.5c2.1-0.3,3.5-0.5,4.9-0.6c2.5-0.2,5.1-1,7.5-0.4c2.2,0.5,3.9,2.6,6,3.7
		c2.7,1.5,5.5,3,8.5,4.1c9.8,3.7,19.1,8.6,28.1,14c8.9,5.3,17.7,10.8,26.5,16.2c0.8,0.5,1.6,1.1,2.5,1.3c0.6,0.1,1.5-0.2,1.8-0.6
		c0.3-0.4,0.2-1.4-0.1-1.9c-0.5-0.8-1.3-1.3-2-1.9c-15-12.8-30.2-25.2-46.8-35.9c-0.3-0.2-0.5-0.4-0.9-0.8c1.5-1,2.8-1.2,4.3-0.2
		c10.1,6.9,21.6,11.1,32.3,16.7c0.4,0.2,0.8,0.5,1.1,0.5c0.6-0.1,1.4-0.3,1.8-0.7c0.2-0.2,0-1.2-0.3-1.6c-0.5-0.6-1.3-1.1-1.9-1.6
		c-5.7-4.6-11.4-9.2-17-13.9c-0.9-0.7-1.7-1.5-2.7-2.5c3.5-1.3,6.5-2.5,9.6-3.6c0.5-0.2,1.4,0.2,2,0.6c8.5,4.9,16.8,10.2,24.3,16.7
		c0.4,0.3,0.8,0.7,1.2,1c1.2,0.7,2.4,0.7,3.5-0.2c1.1-1,1.5-2.3,0.7-3.7c-0.4-0.8-1.1-1.6-1.6-2.3c-5.1-6.5-11.2-12.1-17.5-17.5
		c-0.7-0.6-1.5-1.2-2.1-1.8c-1.2-1.1-1.6-2.6-0.4-3.5c3.5-2.5,4.4-6.2,5.4-10c0.1-0.5,0.4-0.9,0.7-1.6c1.4,0.8,2.6,1.6,3.9,2.2
		c2.3,1.2,4.4,0.7,5.8-1.3c1.3-1.9,1.1-3.9-0.8-5.6c-1.8-1.6-3.7-3.1-5.8-4.8c0.7-2,1.4-4,2.2-6.3c1.8,1.7,3.3,3.3,4.9,4.7
		c1.9,1.7,3.8,1.7,5.3,0.2c1.5-1.5,1.6-3.4-0.1-5.3c-2.1-2.4-4.1-5.1-7.9-5.3c1.1-3,2.2-5.7,3.3-8.6c3.6,2.1,7,4.2,10.4,6.2
		c2.4,1.4,4.6,0.6,5.7-1.7c0.8-1.8,0.3-3.3-1-4.5c-3.5-3.2-7-6.3-10.5-9.4c-0.2-0.2-0.5-0.4-0.9-0.8c0.7-2.3,1.5-4.6,2.3-7.3
		c1.1,0.7,2.1,1.2,3,1.7c4.3,2.8,8.6,5.6,12.9,8.4c1,0.7,2.2,1.3,3.4,1.6c1.5,0.4,2.9-0.1,3.9-1.4c0.9-1.2,0.7-2.5-0.1-3.5
		c-2.1-2.7-4.2-5.6-6.7-7.9c-4.1-3.8-8.6-7.3-13.2-11.2c0.2-1,0.6-2.5,1-4.5c3.4,1.7,6.7,3,9.5,4.9c4.2,2.8,8.2,6.1,12.2,9.3
		c1,0.8,1.9,1.6,3.3,1.4c2.2-0.3,3.4-2.4,2.5-4.4c-0.3-0.7-0.8-1.2-1.2-1.8c-6.2-8.3-13.8-14.8-23-19.6c-0.4-0.2-0.7-0.4-1.2-0.7
		c0.3-1.7,0.6-3.5,0.9-5.5c0.8,0.4,1.4,0.7,2,1.1c4.2,2.5,8.4,5.1,12.6,7.6c5.1,2.9,10.1,5.9,14.3,10.1c1.1,1.1,2.2,1.6,3.6,0.6
		c1.3-0.9,1.6-2.7,0.6-4.2c-0.4-0.7-1-1.4-1.5-2c-3.9-4-7.7-8-11.6-11.9c-4-3.9-8.2-7.5-12.2-11.3c-1.6-1.5-3.2-3-5.8-3
		c0.1-4.7,1.2-9,2.2-13.9c1.2,0.9,2.1,1.5,3,2.2c11.7,9,23.3,18.2,35,27.1c5.5,4.2,11.2,8.1,16.8,12.1c0.7,0.5,1.3,1,2.2,1.6
		C973.2,801.3,972.7,801.7,972.3,802z"/>
	<path d="M760.8,603.6l2.4-2c24.8-46.6-9.6-114.3-53.9-149.1c40.5,9.6,80.4,21.3,119.7,35.2c1.2,0.4,2.4,1.2,4.6,2.3
		c-6.2,3.4-11.4,6.4-16.7,9.3c-4.2,2.3-8.6,4.4-12.6,7c-1.5,1-3.1,3.3-2.9,4.9c0.1,1.6,2.1,3.5,3.7,4.4c2,1.1,4.4,1.5,6.6,1.8
		c8.7,1.1,17.4,2.3,26.2,3.1c27.5,2.5,55.1,3.6,82.4,8.3c6.1,1,12.5,0.7,18.7,0.5c1.9-0.1,4.3-1.8,5.4-3.5c1.5-2.1-0.1-4.4-1.8-6.1
		c-2-2.1-4-4.3-6.2-6.2c-10.9-9.4-21.6-19.2-32.9-28.1c-16.3-12.8-33-25.1-49.6-37.4c-5.9-4.3-12.1-8.3-18.3-12.2
		c-2.6-1.7-5.5-3.2-8.4-4c-1.9-0.5-4.6,0.1-6.3,1.2c-2.2,1.3-2,4-1.1,6.3c0.5,1.3,1.2,2.7,1.8,4c3,5.5,6,11,8.9,16.6
		c3.1,5.9,6,11.8,9.6,19c-3.6-1.1-5.7-1.7-7.8-2.4c-27.5-8.8-54.8-18.3-82.5-26.3c-15.9-4.7-32-8.8-48.2-12.5
		c8.4-33.1,51.8-45,86.6-48.1c-15.4-51.4-74.4-63.5-133.6-62.2c-49.6,2.1-87.6,9.6-150.6,30.8c-51.5,16.9-125,37.3-160.5-14.9
		c-36.2,29.7-3.3,105.8,35,146.9c-4.8,0.3-9.6,0.7-14.4,1c-21.5,1.7-43,4.1-64.4,6.5c-10.7,1.2-21.4,3.1-32.1,4.5
		c-2.4,0.3-4.6,1.2-7.1-0.8c-8.2-6.8-16.5-13.3-24.9-19.8c-3.3-2.6-7.1-4.7-10.8-6.7c-3.7-2-7.7-2-11.8-1.2
		c-18.5,3.9-37,7.5-55.5,11.5c-19.2,4.1-38.4,8.4-57.6,12.8c-3.5,0.8-7.1,2-10.2,3.8c-4.5,2.5-4.9,6.9-1.4,10.7
		c0.8,0.8,1.7,1.5,2.6,2.3c9.8,8.4,20.3,15.9,31.7,22.1c1.3,0.7,2.5,1.6,3.9,2.5c-4.9,8.3-9.8,16.1-14.2,24.2
		c-2,3.7-3.7,7.7-4.3,11.8c-1.2,7.4,3.3,10.5,10.6,8.7c21-5,42-9.9,63.1-14.5c14.7-3.2,29.4-6.1,44.1-9.1
		c7.1-1.5,12.5-5.3,16.9-11.2c5.2-7,10.4-13.8,14-21.8c0.8-1.7,2-3.3,3-4.9c3-5.1,7.3-7.8,13.5-8.4c15.5-1.7,30.9-4.3,46.4-6.1
		c23.6-2.8,47.2-4.8,70.9-6.2c4.4,3.8,8.8,7,13.1,9.5c-20.4,30.6-58,42.6-99.1,60.3c15.1,55.1,142.2,66.6,224.6,46.9
		C604.4,602.5,683.6,584.8,760.8,603.6z M228.2,487.5c6.9,5.5,13.9,10.9,21.9,17.2c-7,1.2-12.8,2.3-18.7,3.2
		c-1.1,0.2-2.7-0.4-3.6-1.2c-7.4-6.3-14.8-12.8-22.2-19.3c-0.4-0.3-0.5-1-0.9-1.6C213,481.4,220.7,481.6,228.2,487.5z M101.1,510.2
		c-0.4-0.3-0.6-0.9-1.3-2c8.7-2.1,17-4.3,25.4-6.2c1.1-0.3,2.7,0.3,3.7,1.1c9.6,7.1,19,14.3,29,21.8c-6.9,2.2-13.5,4.3-20.2,6.2
		c-1.2,0.3-2.7,0.2-3.8-0.4C122.3,524.9,111.2,518.3,101.1,510.2z M156.4,543.2c-3.7,7.1-7.4,14.3-11.3,21.4c-0.8,1.4-2,3.1-3.3,3.5
		c-6.1,1.8-12.3,3.2-18.4,4.8c-0.5,0.1-1.1-0.2-2-0.4c0.8-1.5,1.4-2.9,2.1-4.2c4.2-7.8,8.4-15.5,12.8-23.2c0.8-1.3,2-3,3.4-3.4
		c6.2-1.8,12.5-3.2,20.1-5C158.3,539.6,157.4,541.4,156.4,543.2z M168.7,521.9c-1.1,0.3-2.8-0.1-3.8-0.8
		c-9.4-6.6-18.7-13.4-28.1-20.1c-0.3-0.2-0.3-0.7-0.7-1.5c1.6-0.5,3.1-1.1,4.7-1.4c7.5-1.6,15.1-3.1,22.6-4.5
		c1.5-0.3,3.9-0.2,4.8,0.7c6.9,7.1,13.7,14.4,21,22.2C182,518.4,175.4,520.3,168.7,521.9z M202.5,556.7c-5.3,0.7-10.6,1.7-16,2.5
		c-1.1,0.2-2.1,0-3.5,0c0.3-1,0.3-1.6,0.6-2.1c4.1-8.1,8.3-16.1,12.3-24.2c1.9-3.9,4.3-6.5,8.9-7.1c5.9-0.7,11.6-2.1,18.3-3.4
		c-0.8,2.1-1.1,3.3-1.6,4.4c-4.3,8.4-8.8,16.7-12.9,25.2C207.2,554.8,205.5,556.3,202.5,556.7z M233.1,546.7
		c-1.2,1.6-3.2,2.9-5.1,3.6c-3.7,1.3-7.6,2.1-12.5,3.4c5.8-11,10.9-20.8,16.2-30.6c0.7-1.2,2.1-2.4,3.4-2.7c5-1.1,10-1.8,15.7-2.7
		C246,528.7,239.9,538,233.1,546.7z M668.1,566.1c-5.4,2.7-11.3,2.4-17.9-0.9c-2.9-1.4-6.1-3.8-9.7-7.1c-3.6-3.3-6.2-6.4-7.9-9.3
		c-1.7-2.9-3.4-7-5.1-12.2c-0.9-2.7-1.6-5.3-2.3-7.9c-0.5,1.9-1,3.8-1.6,5.9c-3.3,12.4-6,22.3-8.2,29.8c-2.2,7.5-4.2,13.4-6,17.6
		c-1.9,4.2-3.8,7.3-5.7,9.1c-2,1.9-4.3,3.4-7,4.6c-1.7,0.8-4.3,1.3-7.9,1.4c-3.6,0.1-6.5-0.3-8.8-1.1c-1.2-0.4-2.7-1.3-4.5-2.6
		c-1.8-1.3-3.5-2.9-5.1-4.8c-1.7-1.9-3.3-3.9-4.9-6c-1.7-2.2-2.9-4.2-3.7-6c-1.4-3.1-2.6-5.8-3.4-8c-0.8-2.3-1.4-5.3-1.7-9
		s-0.5-8.8-0.5-15.3c0-6.5,0-15.5,0-27c0-10.7,0-19.3,0-25.7c0-6.4-0.1-11.4-0.2-15c-0.1-3.6-0.3-6.2-0.6-7.7
		c-0.3-1.5-0.7-2.6-1.1-3.2c-0.6-0.8-1.1-1.1-1.4-0.9c-0.3,0.2-1.3,1-2.9,2.5c-2.3,2.3-4.8,5.6-7.6,9.9c-2.8,4.3-5.6,9.3-8.3,14.8
		c-2.8,5.6-5.4,11.4-7.9,17.5c-2.5,6.1-4.5,12-6.2,17.8c-0.8,2.5-1.8,5.9-2.8,10.4c-1,4.4-1.9,8.5-2.5,12.2L512,563l-3.1,1.2
		c-1.7,1-4.1,1.6-7.4,1.7c-3.3,0.1-6.1-0.2-8.3-0.8c-1.7-0.4-2.6-0.9-2.9-1.5s-0.8-2.5-1.4-5.6c-0.4-3.3-0.9-7.1-1.4-11.4
		c-0.3-2.2-0.5-4.4-0.8-6.7c-1.1,5.7-2.1,10.4-3.1,14.2c-3.5,14.2-7.8,24.4-13,30.4c-5.2,6.1-10.6,7.6-16.4,4.5
		c-3.7-1.9-7.1-5.2-10.2-10c-3.1-4.8-5.5-10.5-7.1-16.8c-1.4-5.4-2.5-11-3.2-17c-0.7-6-1.2-13.3-1.5-21.9c-0.3-8.7-0.3-19.2,0-31.5
		c0.3-12.4,0.9-27.5,1.7-45.4l0.6-11.7l-12.4-3.4c-3.5-1-6.8-1.9-9.9-2.6c-3.1-0.7-5-1.1-5.9-1.1c-1.6,0-2.6,0.2-2.9,0.5
		c-0.3,0.3-0.3,1,0.2,2c0.2,1,0.2,1.9-0.2,2.6c-0.3,0.7-1,1.6-2,2.6c-1.4,1.4-2.9,2.2-4.5,2.3c-1.5,0.1-2.8-0.3-3.7-1.2
		c-0.9-0.9-1.5-2.3-1.9-4c-0.3-1.7,0.1-3.6,1.1-5.4c3.5-6.6,13.7-7.4,30.6-2.5c3.1,1,5.7,1.8,7.9,2.3c2.2,0.5,3.3,0.8,3.6,0.8
		c0.2,0,0.4-1,0.5-2.9c0.1-2,0.2-4.3,0.2-7c0-4.7,0.1-7.7,0.3-9c0.2-1.2,0.8-2.5,1.9-3.7c1-1.4,2.8-2.7,5.4-3.7c2.6-1,5-1.5,7.3-1.5
		c3.1,0,5.1,1.4,6,4.3c0.9,2.9,1.1,8.2,0.5,16.1c-0.4,2.7-0.7,5.1-0.8,7.1c-0.1,2.1-0.2,3.2-0.2,3.4c0,0.4,0.6,0.7,1.7,0.9
		c1.1,0.2,2.5,0.3,4,0.3c1.5,0,3.2,0,5.1-0.2c1.9-0.1,3.5-0.4,4.9-0.8l4.3-0.9l-0.6-3.7c-0.2-2.7,0.2-4.5,1.2-5.6
		c1-1.2,2.5-1.8,4.3-1.7c1.9,0.1,3.3,0.9,4.3,2.3c2.5,3.1,2.4,6.3-0.3,9.6c-4.5,5.2-12.6,7.7-24.1,7.7h-5.6l-0.9,11.4
		c0,1.7-0.1,4.4-0.2,8.2c-0.1,3.8-0.2,8.3-0.3,13.6c-0.1,5.3-0.2,11-0.2,17.3c0,6.3,0,12.6,0,19c0,11.3,0,20.2,0,26.6
		c0,6.4,0,11.3,0.2,14.8c0.1,3.5,0.3,6.1,0.6,7.9c0.3,1.8,0.7,3.7,1.1,5.7c1,5.2,2.2,9.4,3.4,12.8c1.2,3.4,2.4,5.5,3.4,6.3
		c0.8,0.8,2,0.2,3.4-1.9c4.1-4.7,7.8-12.9,11-24.6c3.2-11.6,5.8-25.7,7.9-42.2c0,0,0,0,0,0c-0.3-3.6-0.5-7.1-0.6-10.5
		c-2.3-49.7,4.9-83.5,21.6-101.4c4.1-4.7,8.8-8,14.1-9.9c5.3-1.9,10.4-2,15.3-0.3c3.1,1,5.7,2.4,7.9,4.2c2.2,1.8,4.1,4.4,5.7,7.9
		c0.6,1.4,1.1,2.6,1.5,3.4c0.4,0.8,0.7,1.8,0.8,2.8c0.1,1,0.2,2.3,0.3,3.7c0.1,1.4,0.2,3.4,0.2,5.9c0,4.1-0.2,7.3-0.5,9.6
		c-0.3,2.3-0.9,4.7-1.7,7.4c-2.9,10.5-7.6,20.4-14.2,29.5c-6.6,9.2-14.2,16.4-22.9,21.8l-5.9,4v10.2c0,5.6,0.2,11.2,0.6,17
		c0.4,5.8,1,11.3,1.9,16.7l1.2,6.2l1.9-8c1.4-6,3.1-11.7,5.1-17.3c2-5.6,4.4-11.5,7.3-17.9c5.6-12.8,11-22.8,16.4-30
		c5.4-7.2,11.2-12.3,17.6-15.1c8.9-3.9,15.3-2.3,19.5,4.9c0.8,1.7,1.5,3.4,2.2,5.1c0.6,1.8,1,4.1,1.2,7c0.2,2.9,0.3,6.6,0.2,11.3
		c-0.1,4.6-0.3,10.7-0.5,18.1c0,3.7-0.1,7.7-0.2,12.1c-0.1,4.3-0.2,8.6-0.3,12.7c-0.1,4.1-0.2,8-0.2,11.7c0,3.7,0,6.9,0,9.6
		c0,4.1,0,7.5,0,10c0,2.6,0.1,4.8,0.3,6.6c0.2,1.9,0.4,3.5,0.6,4.8c0.2,1.3,0.5,2.7,0.9,4.2c3.5,12.2,8,17.8,13.6,17
		c1.6-0.2,3.2-1.1,4.6-2.6c1.4-1.5,2.9-4.3,4.5-8.3c1.5-4,3.3-9.7,5.4-17c2.1-7.3,4.6-16.8,7.7-28.6c1.6-6,3.1-11.6,4.5-17
		c0.3-1.3,0.6-2.5,0.9-3.6c-0.1-2.3-0.2-4.7-0.3-7.2c-0.1-6.8,0.2-12.4,0.8-16.7c4.3-29.9,15-44.8,32.1-44.8c3.7,0,6.6,0.4,8.7,1.1
		c2.1,0.7,4.2,1.9,6.5,3.6c4.9,4.3,7.2,10.2,6.8,17.6c-0.4,7.4-3.3,14.9-8.7,22.6c-2.1,2.7-4.5,5.1-7.4,7.3
		c-2.9,2.2-6.1,3.9-9.6,5.1l-4.9,1.9l-0.3,4.9c-0.2,3.1-0.2,6.4,0.2,9.9c0.3,3.5,0.8,7.1,1.5,10.7c0.7,3.6,1.6,7.2,2.8,10.7
		c1.1,3.5,2.3,6.6,3.6,9.3c1.6,3.5,3.5,6.7,5.4,9.6c2,2.9,3.2,4.3,3.9,4.3c0.8,0,2.5-1.2,4.9-3.7s4.4-4.8,5.9-7.1
		c2.9-4.5,6.1-11.1,9.6-19.6c3.5-8.5,7-18.1,10.5-28.6c0.8-2.9,1.4-4.7,1.9-5.4c0.4-0.7,1.1-1.2,2.2-1.4c2.1-0.2,3.1,0.7,3.1,2.8
		c0,2.1-1,6.3-3.1,12.7C688.4,542.2,678.2,560.7,668.1,566.1z"/>
	<path d="M506.2,483.3c0.2,0,0.9-0.4,2-1.2c1.1-0.8,2.4-1.7,3.9-2.8c6.6-4.7,12.5-10.9,17.6-18.4c5.1-7.5,9.2-15.6,12.1-24.3
		c1-2.9,1.7-5.4,2-7.6c0.3-2.2,0.5-5.3,0.5-9.4c0-4.3-0.1-7.2-0.3-8.7c-0.2-1.4-0.8-3.2-1.9-5.3c-2.1-3.9-4.7-6.4-7.9-7.4
		c-3.2-1-6.2-0.4-9.1,1.9c-2.9,2.5-5.6,6.3-8,11.6c-2.5,5.3-4.5,11.3-6.2,18.1c-0.6,3.3-1.3,7.9-2,13.9c-0.7,6-1.3,11.9-1.9,17.8
		c-0.5,5.9-0.9,11-1.1,15.3C505.6,481.1,505.7,483.3,506.2,483.3z"/>
	<path d="M649,493.8c0.6-0.2,1.4-0.6,2.3-1.1c0.9-0.5,1.9-1,2.9-1.4c2.5-1.2,4.8-3.1,7.1-5.7c2.3-2.6,4.2-5.4,5.9-8.3
		c1.6-3,2.8-6,3.4-9.1c0.6-3.1,0.6-5.8,0-8c-0.8-3.3-2.2-5.9-4-7.7c-1.9-1.9-3.6-2.3-5.3-1.2c-2.9,1.7-5.5,5.8-7.9,12.5
		c-2.4,6.7-4.4,15.5-6,26.4c-0.2,2.1-0.3,3.2-0.2,3.6C647.4,493.9,647.9,494,649,493.8z"/>
	<path d="M512.2,933c-1.1,0.1-2.3,0.7-2.3,1.9c-0.1,4-1.5,8.2,1.1,12c1.2,0,2.4,0,3.6,0c0.8-1,2.2-1.7,2.1-3.1
		c-0.1-3.2-0.9-6.3-1.9-9.3C514.5,933.3,513.4,932.9,512.2,933z"/>
	<path d="M628.2,882.9c-3.2-9.7-7.1-19.1-9.8-28.9c-0.8-2.8-1.3-5.5-4.2-7c-0.7-0.3-1-1.3-1.5-1.9c-1.5-2.1-3-4.3-4.4-6.4
		c-0.8-1.2-1.7-2.1-3.2-1.3c-1.5,0.8-1.4,2-0.8,3.4c1.5,3.3,1.8,6.8,2,10.4c0.2,3.7,0.8,7.3,2.1,10.8c5.9,15.5,11.2,31.2,16.1,47
		c2.9,9.3,6.5,18.3,11.5,26.7c0.7,1.1,1.4,2.2,2.1,3.3c0.7,1,1.7,1.3,2.8,0.9c1.3-0.4,1.5-1.4,1.4-2.5c-0.2-1.1-0.2-2.2-0.5-3.2
		C638.4,916.6,633.7,899.6,628.2,882.9z"/>
	<path d="M431.3,836.4c-1-0.4-1.6,0.2-1.9,1c-0.2,0.5-0.4,1.1-0.6,1.7c-2,5.2-4.6,10.1-7.3,15c-1.2,2.2-2.6,4.2-5.1,5.3
		c-1.6,0.7-2.5,2.1-2.6,4c-0.2,2.1-0.8,4.2-1.9,6.1c-5.2,9.2-9.5,18.8-14.2,28.3c-3.7,7.4-7.4,14.9-9.9,22.8
		c-1.1,3.4-1.9,6.9-2.4,10.6c0,1.5,0.7,2.7,2.4,3.4c1.8,0.7,3-0.2,3.9-1.5c2.5-3.3,4.6-6.9,6.4-10.6c8-16.3,16-32.5,24.4-48.6
		c1.3-2.5,2-5.1,1.9-7.9c-0.1-2.3,0.4-4.4,1.2-6.6c2.3-6.1,4.4-12.3,6.1-18.6c0.2-0.8,0.4-1.6,0.6-2.4
		C432.5,837.5,432.2,836.7,431.3,836.4z"/>
	<path d="M517.7,853.1c-0.4-4.4-0.9-8.7-1.5-13.1c-0.3-2.3-1.4-3.1-3.3-2.8c-1.7,0.2-2.4,1.2-2.4,3.3c0,0.5,0.1,0.9,0.1,1.4
		c0.1,6.9-0.4,13.7-0.9,20.6c-0.9,11.2-2.3,22.4-1.8,33.7c0.2,5.8,1,11.6,2.5,17.2c0.4,1.7,1.3,2.8,3.1,2.9c1.7,0.1,2.6-0.9,3.1-2.4
		c0.9-2.6,1.5-5.2,1.9-7.9c1.1-7.1,1-14.2,0.9-23C519.5,874.1,518.7,863.6,517.7,853.1z"/>
	<path d="M737.5,867c-0.1-1.2-0.8-2.2-1.4-3.2c-5-8.6-12.1-15.4-19.8-21.7c-6.1-5-12.4-10-18.5-14.9c-1.3-1-2.4-2.3-3.8-3.3
		c-1.8-1.3-4.3-0.2-4.5,2c-0.1,0.9,0.4,1.6,0.9,2.3c7.1,9.5,14,19.1,22.4,27.5c5.1,5,10.6,9.4,17,12.8c1,0.5,2.1,1.1,3.2,1.5
		C735.2,870.5,737.5,868.9,737.5,867z"/>
	<path d="M365.2,832.4c-0.4,0.3-0.7,0.6-1.1,0.9c-5.5,5.1-11.2,10.2-17.1,14.9c-2.7,2.1-5.1,4.6-6.8,7.7c-0.6,1.1-1.2,2.3-1.4,3.6
		c-0.1,1.3,0.4,2,1.7,2.2c0.9,0,1.6-0.4,2.4-0.8c1.8-1,3.4-2.2,4.8-3.6c5.4-5.3,10.7-10.7,16-16c1.7-1.7,3.3-3.4,4.9-5.2
		c1.3-1.4,1.2-2.6,0-3.7C367.5,831.3,366.4,831.4,365.2,832.4z"/>
	<path d="M316.3,880.3c-2.8-0.3-5.5,2.4-5.8,5.4c-0.2,3.2,1.9,5.2,5.8,5.6c2.8,0.2,5.4-1.7,5.6-4.2
		C322.2,883.8,319.6,880.6,316.3,880.3z M319.1,887.8c-0.2,0.3-0.4,0.7-0.6,1c-0.7,0.7-1.8,0.2-1.6-0.8c0-0.2,0.2-0.4,0.3-0.5
		c0.5-0.8,0.3-1.7,0.1-2.6c-0.1-0.5-0.3-1.3,0.1-1.7c0.6-0.7,1.4,0.2,1.7,0.7c0.4,0.8,0.6,1.6,0.5,2.4
		C319.5,886.8,319.3,887.3,319.1,887.8z"/>
	<path d="M686.8,888.9c-3.3-0.3-6.5,2.8-6.8,6.4c-0.3,3.7,2.3,6.2,6.8,6.6c3.3,0.3,6.4-2.1,6.6-5C693.8,893,690.7,889.3,686.8,888.9
		z M690.1,897.7c-0.2,0.4-0.4,0.8-0.8,1.1c-0.9,0.8-2.1,0.3-1.9-1c0.1-0.2,0.2-0.4,0.3-0.6c0.6-1,0.3-2,0.1-3
		c-0.1-0.6-0.3-1.5,0.1-2c0.7-0.8,1.7,0.2,2,0.8c0.5,0.9,0.7,1.9,0.6,2.9C690.6,896.5,690.4,897.1,690.1,897.7z"/>
	<path d="M737.6,897.7c-2.1-0.2-4.2,1.8-4.4,4.1c-0.2,2.4,1.5,4,4.4,4.2c2.1,0.2,4.1-1.3,4.3-3.2
		C742.1,900.3,740.1,897.9,737.6,897.7z M739.7,903.4c-0.1,0.3-0.3,0.5-0.5,0.7c-0.6,0.5-1.4,0.2-1.2-0.6c0-0.1,0.1-0.3,0.2-0.4
		c0.4-0.6,0.2-1.3,0.1-1.9c-0.1-0.4-0.2-1,0.1-1.3c0.4-0.5,1.1,0.1,1.3,0.5c0.3,0.6,0.5,1.2,0.4,1.9
		C740,902.6,739.9,903,739.7,903.4z"/>
	<path d="M283.7,749.2l3,11.7l0.7,2.7c0.1,0.5,0.2,1.1,0.3,1.7c0,0.6,0.1,1.2,0.3,1.7c0.3,1.2,0.6,2.3,1,3.4c0.4,1.1,0.7,2.2,1,3.4
		l0.1,0.5l0.1,0.5c0.1,0.4,0.3,0.7,0.6,0.9c0,0.9,0.1,1.9,0.2,3c0.2,1.1,0.3,1.9,0.4,2.4c0.3,1.3,0.7,2.5,1.1,3.6
		c0.4,1.1,0.7,2.3,1,3.5l0.2,0.8l0.8-0.2c1.4-0.3,2.7-0.6,4-0.7c1.3-0.1,2.7-0.4,4.2-0.7c1.3-0.3,2.6-0.6,3.9-0.9
		c1.3-0.3,2.6-0.6,3.9-0.9c0.4-0.1,0.9-0.3,1.5-0.7c0.3-0.1,0.7-0.3,1-0.6c0.1,0,0.2,0,0.3,0c0.1,0,0.2,0,0.3,0l0.8-0.2
		c0.2-0.1,0.4-0.2,0.6-0.5c0.2-0.3,0.2-0.5,0.2-0.7l0.1-1.5c-0.1-0.5-0.2-1-0.3-1.4c-0.1-0.4-0.1-0.8-0.2-1
		c-0.2-0.7-0.4-1.5-0.7-2.2c-0.3-0.7-0.5-1.4-0.7-2.2c-0.1-0.5-0.2-1-0.2-1.6c0-0.5-0.1-1-0.2-1.5c0-0.1-0.1-0.2-0.1-0.2
		s-0.1-0.1-0.1-0.2c0-0.1-0.1-0.2-0.1-0.1c-0.1,0-0.1,0-0.1-0.1c0-0.1-0.1-0.2-0.2-0.3c0-0.1,0-0.2,0-0.3c0-0.1,0-0.1,0-0.3
		c0-0.1,0-0.2,0-0.3c0-0.1,0-0.2,0-0.3l0-0.5l-0.6-0.2l-0.2-0.1c0.2-0.3,0.2-0.6,0.1-1c-0.1-0.2-0.1-0.4-0.3-0.4l0.7-1.9l-1.2-0.2
		c0.2-0.3,0.2-0.7,0-1.4l-6-23.8l-0.4-0.1c-0.1,0-0.2,0-0.2,0c0-0.1-0.1-0.1-0.2,0l0.4-0.6l-0.1-0.3c-0.1-0.5-0.3-1.1-0.4-1.8
		c-0.1-0.6-0.2-1.2-0.4-1.8l-4.2-16.8c-0.5-1.9-0.9-3.8-1.4-5.8c-0.4-2-0.9-4-1.4-6c-0.2-0.8-0.4-1.6-0.7-2.4
		c-0.2-0.7-0.5-1.5-0.6-2.2c-0.1-0.4-0.2-0.8-0.2-1.2c0-0.4-0.1-0.8-0.2-1.2c-0.1-0.4-0.2-0.8-0.4-1.2c-0.1-0.4-0.3-0.7-0.4-1.2
		c-0.1-0.2-0.1-0.4-0.1-0.7c0-0.2,0-0.4-0.1-0.7c0-0.1,0-0.2,0-0.3c0-0.1,0-0.2,0-0.3l-0.2-0.8c-0.2-0.6-0.3-1.1-0.5-1.4
		c0.1-0.7,0-1.3-0.1-1.8c-0.1-0.4-0.2-0.7-0.4-0.9c-0.1-0.2-0.2-0.4-0.3-0.6c-0.2-0.4-0.4-0.9-0.6-1.5c-0.3-1.2-0.5-2.3-0.7-3.5
		c-0.2-1.1-0.4-2.3-0.7-3.5c-0.1-0.4-0.2-0.8-0.4-1.2c-0.1-0.4-0.3-0.7-0.4-1.2l-0.1-0.3c0-0.1,0-0.2,0.1-0.4l-0.1-0.5
		c0.1-0.1,0.1-0.3,0-0.5c-0.1-0.2-0.1-0.4-0.2-0.6c-0.1-0.2-0.2-0.4-0.2-0.6l-0.3-0.4l-0.4-0.1c-0.8,0-1.4-0.1-1.9-0.4
		c-0.3,0-0.7,0-1.2,0c-0.4,0.1-1,0.2-1.6,0.3c-1.7,0.4-3.3,0.9-5,1.4c-1.6,0.5-3.3,1-5,1.4c-1,0.2-1.9,0.4-2.8,0.5
		c-0.9,0.1-1.8,0.3-2.7,0.5l-1.3,0.3l-0.5,0.1l0,0.5c-0.1,0.5-0.3,1.2-0.5,2.2c-0.2,1-0.4,2.1-0.5,3.2c-0.2,1.1-0.3,2.2-0.4,3.1
		c-0.1,1-0.1,1.8-0.1,2.5c-0.2,0.5-0.4,1.3-0.7,2.3c-0.2,1-0.3,1.7-0.3,2l0.1,0.3c0.1,0.2,0.1,0.3,0.2,0.3l-0.2,0
		c-0.2,0.4-0.4,0.7-0.4,1c-0.4,0.8-0.7,1.7-0.9,2.8c-0.2,1.1-0.4,2.1-0.5,3.2c-0.1,0.6-0.2,1.3-0.3,2c-0.1,0.8-0.2,1.6-0.5,2.6
		c-0.3,1-0.6,1.9-0.7,2.7c-0.2,0.8-0.4,1.6-0.6,2.2c-0.4,1.7-0.7,3.2-1,4.7c-0.3,1.4-0.7,3-1.2,4.7c-0.1,0.4-0.1,0.8,0,1.2l0.1,0.3
		c0.1,0.5,0,1.3-0.4,2.3c0,0.5-0.2,0.9-0.5,1.5c-0.1,0.2-0.1,0.5-0.1,0.9c0,0.3-0.1,0.6-0.1,0.9c0,0.1-0.1,0.7-0.2,1.7
		c-0.2,1.1-0.4,2.3-0.6,3.8c-0.3,1.5-0.5,3.1-0.8,4.8c-0.3,1.7-0.6,3.3-0.8,4.7c-0.3,1.4-0.6,3.1-1,5.1c-0.2,0.3-0.3,0.6-0.4,0.9
		c-0.1,0.4-0.2,0.7-0.4,0.9c-0.1-0.1-0.3-0.1-0.5,0l-0.5,0.1l0.5-0.8l0.1-0.4l-2.9-4c-0.3-0.5-0.7-0.9-1.2-1.3
		c-0.4-0.4-0.8-0.8-1.2-1.3c-0.7-0.7-1.4-1.5-1.9-2.4c-0.2-0.5-0.5-0.8-0.7-0.8c-0.3-0.4-0.5-0.6-0.5-0.7c-0.3-0.5-1-1.2-1.9-2.2
		c-0.9-1-1.8-2.1-2.7-3.4c-1.1-1.3-2-2.4-2.7-3.2c-0.7-0.8-1-1.4-1.1-1.6l0-0.2l-0.2-0.3l-0.5-0.6c-0.4-0.3-0.9-1-1.5-2
		c-0.7-0.7-1.5-1.6-2.3-2.6c-0.8-1-1.7-2.1-2.7-3.2c-1.8-2.1-3.5-4.2-5.2-6.2c-1.7-2-2.7-3.3-3.1-4l-1.3-1.2c-0.2-0.2-0.5-0.4-1-0.8
		c-0.1-0.8-0.4-1.5-1.1-2.3c-0.6-0.8-1.3-1.3-1.9-1.6l-0.1-0.3l-0.2-0.1c-0.1-0.2-0.3-0.6-0.6-1.2c-0.2-0.4-0.5-0.8-0.8-1.2
		c-0.3-0.4-0.7-0.9-1-1.3s-0.7-0.9-1-1.3c-0.3-0.4-0.7-0.8-1-1.2c-0.3-0.5-0.6-0.9-0.8-1.2c-0.2-0.3-0.3-0.6-0.4-0.8l-0.3-0.6
		l-0.8,0.2c-0.5,0.2-1.3,0.5-2.5,0.8c-0.6,0-1,0.1-1.4,0.2c-0.4,0.1-0.8,0.2-1.4,0.3c-0.4,0.1-0.8,0.2-1.1,0.4
		c-0.3,0.1-0.7,0.3-1.1,0.4c-1.5,0.4-2.9,0.7-4.3,0.9c-1.4,0.2-2.8,0.6-4.3,0.9c-0.4,0.1-0.9,0.2-1.4,0.3c-0.5,0.1-1,0.3-1.5,0.5
		c-0.5,0.2-1,0.5-1.4,0.8s-0.7,0.7-0.9,1.3l-0.1,0.2l0.1,0.3l0,0.2l-0.1,0.2l0.1,0.5l0.1,0.3c0.1,0.3,0.3,0.6,0.5,0.7l-0.1,0.2
		c0,0.1,0,0.2,0,0.2c-0.1,0-0.1,0.1,0,0.2c-0.1,0.1-0.1,0.4,0,0.7c0.1,0.5,0.3,1.1,0.6,1.7c0.3,0.6,0.5,1.2,0.6,1.7
		c0.2,0.6,0.3,1.3,0.6,1.9c0.2,0.6,0.4,1.2,0.5,1.7c0.2,0.7,0.3,1.5,0.5,2.2c0.1,0.7,0.2,1.3,0.4,1.8c0.1,0.4,0.2,0.8,0.3,1.3
		c0.1,0.4,0.3,0.8,0.6,1.2c-0.1,0.5-0.1,1,0,1.4c0.1,0.5,0.2,0.9,0.3,1.3c0.1,0.5,0.3,1,0.4,1.3c0.1,0.4,0.3,0.8,0.4,1.3
		c0.1,0.3,0.1,0.6,0.2,1c0,0.3,0.1,0.7,0.2,1c0.1,0.5,0.3,1,0.5,1.5c0.2,0.5,0.3,1,0.5,1.5c0.1,0.5,0.2,1,0.3,1.4
		c0.1,0.4,0.1,0.9,0.3,1.4c0.2,0.6,0.3,1.3,0.6,1.9c0.2,0.6,0.4,1.3,0.6,1.9c0.9,3.5,1.8,7,2.8,10.6c1,3.6,1.9,7.1,2.8,10.6
		c0.1,0.4,0.2,1,0.3,1.7c0.1,0.7,0.3,1.5,0.5,2.3l0.6,2.2c0.2,0.3,0.3,0.6,0.4,0.9s0.3,0.6,0.5,0.7l-0.3,0.1l0.2,0.8
		c0.1,0.3,0.1,0.7,0.2,1.1c0.1,0.4,0.1,0.9,0.2,1.3l3.5,13.8c0.2,0.8,0.4,1.6,0.7,2.3c0.2,0.7,0.4,1.4,0.7,2.3
		c0.1,0.4,0.2,0.8,0.2,1.1c0,0.3,0.1,0.7,0.2,1.1c0.2,0.6,0.4,1.2,0.8,1.8c0,0.1,0,0.2,0,0.2c-0.1,0-0.1,0.1,0,0.2l0,0.2l-0.5,0.6
		l0.8,0.3l0.3,1.3c0.1,0.3,0.2,0.5,0.3,0.6l-0.1,0.4l0.1,0.3l0.4,1.7c0.1,0.5,0.2,1,0.3,1.4c0,0.4,0.1,0.8,0.3,1.4
		c0.1,0.4,0.2,0.8,0.4,1.2c0.1,0.4,0.3,0.7,0.4,1.2c0.1,0.5,0.2,1,0.3,1.5c0.1,0.5,0.2,0.9,0.3,1.4l0.6,2.4c0.2,0.4,0.4,0.8,0.6,1.2
		c0.2,0.4,0.5,0.8,0.9,1.1l0.4,0.4l0.4-0.3c0.2-0.2,0.3-0.2,0.4-0.3c0.1,0,0.2-0.1,0.4-0.3l0.5-0.1l0.3-0.1c0.1,0.1,0.3,0.1,0.5,0
		c0.5,0.1,0.8,0.1,0.9,0.1c0.1,0,0.2,0,0.3,0c0.1,0,0.3,0,0.5,0c2.8-0.7,5.5-1.5,8.1-2.3c2.7-0.8,5.3-1.7,8-2.6l0.8-0.4l-0.7-2.7
		l-1.3-5.1c-0.5-1.8-1.1-3.5-1.8-5.1c0.1-0.1,0.1-0.3,0-0.5c-0.1-0.3-0.1-0.6-0.1-1c-0.1-0.4-0.2-0.9-0.3-1.4
		c-0.1-0.5-0.2-1-0.3-1.5l-1.1-4.4l-0.2-0.8c0-0.1-0.1-0.2-0.1-0.2c-0.1,0-0.1-0.2-0.2-0.4c-0.2-0.2-0.3-0.5-0.4-0.9
		c-0.2-0.7-0.3-1.5-0.5-2.2c-0.1-0.8-0.3-1.5-0.5-2.2l-3.7-14.8c-0.2-0.8-0.4-1.7-0.6-2.5c-0.2-0.8-0.5-1.6-0.9-2.4
		c0-0.1-0.1-0.2-0.1-0.2c-0.1,0-0.1-0.2-0.2-0.4l-0.1-0.3l-0.1-0.5c0-0.1,0-0.2,0.1-0.4c0-0.2,0.1-0.5,0-0.7c0.1-0.2,0-0.5,0-0.8
		c-0.3-1.2-0.6-2.2-1-3.2c-0.4-1-0.7-2-1.1-3c0.4,0.3,1,1,1.7,1.9c0.5,0.5,0.9,1,1.3,1.6c0.4,0.6,1,1.3,1.6,1.9
		c0.9,1.2,1.8,2.5,2.7,3.7c0.9,1.2,2,2.4,3.1,3.4l0,0.2l-0.2,0l0.6,0.5c0.4,0.6,0.6,1,0.6,1.2c0.2,0.2,0.3,0.4,0.4,0.7
		c0.1,0.3,0.3,0.5,0.4,0.7c0.8,0.9,1.6,1.8,2.4,2.7c0.8,0.9,1.6,1.8,2.3,2.7c2.2,2.7,4.2,5.4,6.2,8.1c2,2.7,4,5.4,6,8.2
		c0.1,0.1,0.2,0.2,0.2,0.3c0,0.1,0.1,0.3,0.3,0.4c0.1,0.4,0.2,0.7,0.4,0.9c0.2,0.7,0.5,1.5,1.1,2.3c0.5,0.6,1,1.2,1.7,2
		c0.6,0.8,1.3,1.6,1.9,2.3c0.7,0.7,1.4,1.5,1.9,2.2c0.5,0.8,0.9,1.4,1.2,1.9c0.6,1.1,1.6,1.7,2.9,2c1,0.1,2,0,3-0.2
		c0.3-0.1,0.7-0.2,1-0.3c0.4-0.1,0.8-0.3,1.3-0.5c0.6-0.2,1.1-0.3,1.4-0.5c0.4-0.3,0.7-0.7,0.9-1.1c0.5-1.5,0.8-3.2,0.9-5.1
		c0.2-0.7,0.2-1.5,0.3-2.3c0-0.8,0.1-1.6,0.2-2.4l0.9-8.3c0-0.8,0.1-1.6,0.2-2.3c0.1-0.8,0.1-1.6,0.1-2.5c0-0.8,0.1-1.6,0.2-2.3
		c0.1-0.8,0.2-1.5,0.3-2.4c0.8-3.1,1.5-6.3,2-9.6c0.6-3.3,1.2-6.6,2-10l0.2-0.7l-0.5,0c0.4-0.3,0.6-0.8,0.8-1.5c0-0.1,0-0.2,0-0.3
		c0-0.1,0-0.2,0-0.3c0.1-0.2,0.1-0.5,0.1-0.7c0-0.2,0.1-0.5,0.2-0.9c0-0.7,0.1-1.4,0.3-2.3c0.1-0.8,0.2-1.7,0.4-2.6
		c0.3-1.6,0.6-3.2,0.9-4.5c0.3-1.4,0.5-2.4,0.6-2.9l1.4,5.4c0.1,0.5,0.3,1.1,0.5,1.6c0.2,0.5,0.3,1,0.5,1.6c0.2,0.8,0.4,1.7,0.5,2.7
		c0.1,0.9,0.3,1.8,0.5,2.7l0.8,3.3l0.5,0c0.1,0.1,0.3,0.1,0.4,0.2c0.1,0,0.2,0.1,0.4,0.2l-0.6,0.2L283.7,749.2z"/>
	<path d="M389.3,742.8c0.7-0.1,1.3-0.3,1.8-0.5c0.5-0.1,1.1-0.2,1.5-0.3c0.5-0.1,1-0.1,1.6-0.1c1,2.8,2.2,5.5,3.4,8.1
		c1.3,2.6,2.5,5.2,3.7,7.9c0.7,1.4,1.2,2.8,1.7,4.2c0.4,1.4,1,2.8,1.7,4.2c0.8,1.7,2.2,2.5,4.2,2.1c0.2,0,0.4-0.1,0.5-0.2l0.6-0.1
		c0.5-0.3,1.1-0.5,1.8-0.6c0.7-0.1,1.4-0.2,2-0.3l4-0.7c0.8-0.1,1.5-0.3,2.3-0.5c0.8-0.2,1.6-0.4,2.5-0.5c0.5-0.1,1-0.1,1.5-0.1
		c0.4,0,0.9,0,1.5-0.1c1.5-0.2,2.1-1.2,1.9-2.8c-0.1-0.3-0.1-0.7-0.3-1c-0.1-0.4-0.2-0.7-0.3-1c-0.1-0.4-0.1-0.7,0-0.8l0.1-0.4
		l-0.2-0.3c-0.8-0.8-1.3-1.4-1.5-2.1c-0.2-0.4-0.3-0.8-0.5-1.3c-0.1-0.4-0.3-0.9-0.6-1.4c-0.4-0.8-0.7-1.5-1.1-2.1
		c-0.4-0.6-0.7-1.3-1.1-2.1c-0.3-0.2-0.4-0.4-0.4-0.5s-0.1-0.3-0.3-0.5l-0.2-1.3c-0.2-0.4-0.4-0.8-0.5-1.2c-0.2-0.4-0.6-0.9-1.2-1.5
		c-0.2-1.3-0.5-2.6-0.9-3.9c-0.4-1.3-1-2.6-1.7-3.8c-1.1-1.7-1.9-3.5-2.5-5.4c-0.8-2-1.5-3.9-2.3-5.8c-0.8-1.9-1.4-3.7-2.1-5.6
		l-0.1-0.3l-0.3-0.1c-0.8-0.5-1.2-1.3-1.4-2.4c0-0.2-0.3-0.9-0.9-2.2c-0.6-1.2-1.2-2.6-1.9-4.1c-0.7-1.5-1.3-2.9-1.9-4.2
		c-0.6-1.3-1-2.1-1.1-2.4l-0.4-0.4c-0.3-0.6-0.6-1.2-0.8-1.9c-0.2-0.6-0.5-1.4-0.9-2.2c-0.2-0.7-0.4-1.4-0.6-2.1
		c-0.2-0.6-0.4-1.3-0.7-2l-0.1-0.3l-0.9-0.4l0.5-0.2l-0.3-0.6c-1.1-2.7-2.3-5.4-3.6-8c-1.3-2.7-2.4-5.4-3.4-8.1
		c-0.5-1.5-1-2.8-1.6-4.1c-0.6-1.2-1.3-2.4-2-3.7c-0.9-1.7-1.7-3.5-2.4-5.4c-0.1-0.5-0.2-1.1-0.5-1.8c-0.2-0.7-0.5-1.3-0.8-1.9
		c-0.8-1.2-1.4-2.3-1.9-3.3l-0.3-0.6l-0.5,0.1c-0.9,0.1-1.7,0.3-2.4,0.5c-0.7,0.2-1.6,0.3-2.4,0.3c-2.6,0.1-5.3,0.4-8,0.8l-10.8,1.8
		c-1.5,0.3-3,0.6-4.5,1.1c-1.5,0.5-3,0.9-4.4,1.2c-0.6,0.1-1,0.2-1.1,0.3c-0.5,0.1-0.9,0.2-1.1,0.3c-0.5,0.3-0.9,1.1-1.1,2.3
		c-0.1,1.3-0.2,2.7-0.3,4.2s-0.2,3-0.4,4.5c-0.2,1.9-0.5,3.8-0.8,5.5c-0.3,1.8-0.5,3.6-0.7,5.5c-0.1,0.3,0,0.9,0.1,1.6
		c0.1,0.4,0,0.8-0.3,1.2c-0.3,0.9-0.3,1.9-0.2,3c-0.1,0.2-0.1,0.5-0.1,0.7c0,0.2,0,0.5-0.2,0.7c0,0.2,0,0.6-0.2,1
		c-0.2,0.8-0.4,1.7-0.5,2.7c-0.1,1-0.2,2.1-0.4,3.2c-0.1,2.2-0.3,4.3-0.8,6.3c-0.1,1.1-0.2,2.2-0.2,3.3c0,1.1-0.1,2.3-0.3,3.5
		c-0.5,3.2-0.9,6.3-1.2,9.5c-0.3,3.1-0.6,6.4-1,9.6l-1.3,7.5c-0.1,0.9-0.2,1.8-0.2,2.6c-0.1,0.8-0.2,1.7-0.2,2.6
		c-0.3,2.3-0.6,4.6-0.8,6.9c-0.3,2.4-0.5,4.8-0.6,7.2c0,0.6-0.1,1-0.2,1.4c-0.1,0.3-0.2,0.8-0.4,1.4c0,0.6-0.1,1.1-0.2,1.5
		c-0.1,0.5-0.2,1-0.3,1.5c-0.1,1.3-0.2,2.8-0.4,4.2c-0.2,1.5-0.3,2.9-0.4,4.4c0,0.1,0,0.3,0,0.5c0,0.2,0,0.5,0.1,0.8
		c0,0.2,0,0.4,0,0.4c0,0.1,0,0.2,0,0.4l0,0.2l0,0.2c-0.2,0-0.4,0.2-0.6,0.4c-0.2,0.6-0.5,0.9-0.8,1l-0.4,0.6l0.6,0.6
		c0.1,0.2,0.5,0.5,1,0.8c0.1,0.1,0.3,0.2,0.4,0.3c0.1,0.1,0.3,0.2,0.6,0.4c0.6,0.6,1.5,0.7,2.6,0.6c1.5-0.2,3-0.5,4.3-0.9
		c1.4-0.3,2.8-0.6,4.2-0.9c0.9-0.1,1.7-0.3,2.6-0.3c0.9-0.1,1.7-0.2,2.6-0.3c0.9-0.1,1.7-0.3,2.6-0.6c0.8-0.3,1.7-0.7,2.5-1.2
		l0.5-0.2l-0.1-0.5c0-0.2,0.1-1.7,0.4-4.4c0.3-2.7,0.6-5.7,1.1-9c0.5-3.3,0.9-6.5,1.3-9.5c0.4-3.1,0.7-5,0.9-6l9.2-1.5
		c3.1-0.5,6.3-1,9.5-1.4c3.2-0.4,6.4-0.9,9.5-1.4C387.9,743.1,388.6,742.9,389.3,742.8z M385.9,728.7c-0.3,0-0.7,0-1.1,0.1
		c-0.4,0.2-0.8,0.3-1.2,0.4s-0.8,0.2-1.2,0.5c-0.6-0.1-1.2-0.2-1.8-0.1c-0.6,0-1.3,0.1-2.1,0.1c-0.9,0.1-1.9,0.3-3,0.5
		c-1.1,0.2-2.3,0.4-3.5,0.7c-1.2,0.2-2.4,0.4-3.5,0.7c-1.2,0.2-2.4,0.5-3.5,0.7c-0.9,0.1-1.7,0.2-2.4,0.3c-0.8,0.1-1.5,0.1-2.3,0.1
		c0.2-0.4,0.2-0.7,0.3-1c0-0.3,0.1-0.6,0.3-1c-0.1-0.4,0-0.9,0.3-1.4c0-0.1,0-0.2,0-0.3c0-0.1,0-0.2,0-0.3l-0.1-0.5l-0.2-1
		c-0.1-0.4-0.1-0.8,0-1.2c0.1-0.2,0.2-0.5,0.3-0.7c0.1-0.2,0.2-0.5,0.3-0.7c0.3-0.8,0.5-1.7,0.5-2.7c0-0.9,0-1.9,0.1-2.9
		c0.1-0.6,0.2-1.1,0.2-1.5c0-0.4,0-0.8,0.1-1.2c0-0.4,0.1-0.9,0.1-1.3c0-0.4,0.1-0.9,0.3-1.2c0.1-0.7,0.1-1.2,0.1-1.5
		c0.1-0.2,0.1-0.6,0-1c0.1-0.3,0.1-0.7,0.3-1c0.1-0.3,0.2-0.7,0.4-1.1c0.3-0.4,0.4-0.7,0.3-1c-0.1-0.9-0.2-1.6-0.2-2.4
		c0-0.7,0-1.5,0.1-2.3c0.1-0.9,0.2-1.7,0.3-2.5c0.1-0.8,0.3-1.7,0.5-2.6c0.2-1.3,0.4-2.5,0.4-3.8c0-1.3,0.1-2.5,0.4-3.8
		c0.1-0.9,0.3-2.2,0.5-3.8c0.3-1.6,0.3-3,0.2-3.9l-0.1-0.6l0.4-0.6l-0.1-0.3c0.2-0.6,0.4-1.2,0.4-1.9c0-0.1,0-0.2,0.1-0.3
		c3.5,8.3,7.1,16.4,10.9,24.4c3.8,8,7.3,16.2,10.4,24.7l-0.8,0.1C386.7,728.7,386.2,728.7,385.9,728.7z"/>
	<path d="M518.2,643.8l-0.5,0c-0.4,0.3-0.7,0.4-0.9,0.4c-0.2,0-0.4,0.1-0.5,0.1c-0.1,0.1-0.2,0.1-0.3,0.1c-0.3,0-0.6,0-0.8,0
		c-0.2,0-0.5,0-0.8,0c-1.2,0-2.4,0-3.6,0c-1.2,0-2.4,0-3.6,0c-1.6-0.1-3.4-0.1-5.1-0.1c-1.8,0-3.4,0.1-5.1,0.2
		c-0.5,0.1-1,0.1-1.3,0.3c-0.4,0-0.7,0.1-0.8,0.2c-0.3,0-0.6,0.2-0.8,0.6c-0.2,0.2-0.3,0.5-0.3,0.7c-0.1,0.1-0.2,0.4-0.4,0.9
		c0,0.2,0,0.4,0,0.4c0,0.1-0.1,0.2,0,0.4c-0.3,0.4-0.4,0.5-0.3,0.5c-1.6,3-3.2,5.9-4.9,8.8c-1.7,2.9-3.3,5.7-5.1,8.5
		c-0.3,0.4-0.4,0.7-0.4,1c-0.1,0.2-0.2,0.4-0.3,0.4c-0.1,0.1-0.1,0.2-0.1,0.4c-0.3,0.6-0.5,1-0.7,1.2l-0.1,0.2l-0.1,0.2
		c0,0.1,0,0.2-0.1,0.2c-0.1,0-0.1,0.1-0.1,0.2c-0.1,0.2-0.2,0.4-0.2,0.4c-0.1,0.1-0.1,0.2-0.2,0.4c-0.3,0.7-0.5,1.1-0.7,1.4
		c-0.1,0.3-0.2,0.7-0.4,0.9c-0.2,0.3-0.4,0.6-0.6,1c-0.3,0.4-0.6,0.7-0.8,1c-0.3,0.3-0.5,0.6-0.7,1c-1.4,2-2.6,4.1-3.7,6.3
		c-1.1,2.2-2.2,4.4-3.2,6.5c-0.1,0-0.2,0-0.2,0.1c0,0.1,0,0.1-0.2,0.1c-0.2-0.2-0.5-0.5-0.8-0.9c-0.3-0.4-0.6-0.8-1-1.2
		c-0.2-0.2-0.5-0.5-0.6-0.8c-0.2-0.3-0.4-0.6-0.6-0.8c-0.1-0.1-0.2-0.2-0.2-0.2c0-0.1-0.1-0.1-0.2-0.2c-0.1-0.7-0.4-1.2-1.1-1.5
		c-0.5-0.3-0.9-0.6-1.2-0.8c-0.3-0.2-0.7-0.6-0.9-1c-0.4-0.3-0.7-0.6-0.9-1c-0.3-0.4-0.6-0.8-1.1-1.3c-0.2-0.2-0.8-0.8-1.7-1.8
		c-0.9-1-2-2.1-3.2-3.3c-0.6-0.6-1.1-1.2-1.6-1.7c-0.5-0.5-0.9-1-1.3-1.5c-0.2-0.2-0.4-0.4-0.6-0.5c-0.2-0.1-0.3-0.3-0.5-0.5
		c0-0.1,0-0.2-0.1-0.2c-0.1,0-0.1,0-0.1-0.2c-0.3-0.4-0.5-0.8-0.7-1.1c-0.2-0.3-0.4-0.6-0.6-0.8c-0.1-0.2-0.3-0.3-0.4-0.4
		c-0.1,0-0.3-0.2-0.5-0.4c0-0.1-0.1-0.4-0.4-0.8c-0.3-0.2-0.7-0.4-1-0.7c-0.3-0.2-0.6-0.5-1-0.7c-0.2-0.2-0.5-0.3-0.7-0.4l-0.5-0.4
		c0-0.1,0-0.2,0.1-0.2l0.9-1.1l-1.3-0.4c-0.2-0.1-0.4-0.2-0.6-0.4c-0.2-0.1-0.4-0.3-0.8-0.5l-0.6-0.9l-1.1-0.9
		c-0.4-0.7-0.9-1.5-1.5-2.2c-0.4-0.4-0.7-0.8-1.1-1.1c-0.4-0.3-0.7-0.7-0.9-1.1c-0.6-0.6-1.2-1.2-1.7-1.8c-0.5-0.6-1-1.3-1.4-2.2
		c0-0.1-0.1-0.3-0.4-0.5l-0.2-0.1l-0.4-0.3l-0.3,0c-0.3,0-0.6,0-0.9,0c-0.3,0-0.6,0-0.9,0c-0.4,0-0.9,0.2-1.3,0.4
		c-0.3,0-0.7,0.2-1.1,0.4c-0.6,0.4-1.3,0.6-1.9,0.7l-8.6,0.8c-1.2,0.1-2.5,0.3-3.8,0.6c-1.3,0.3-2.6,0.5-3.8,0.6l-1,0.1
		c-0.7,0.3-1.2,0.7-1.4,1.3l0,0.5c0.1,1.2,0.7,2.3,1.8,3.5c0.2,0.2,0.4,0.4,0.6,0.6c0.2,0.2,0.4,0.4,0.6,0.6
		c0.2,0.2,0.5,0.4,0.7,0.5c0.2,0.1,0.5,0.3,0.7,0.5c1.9,1.3,3.4,2.5,4.5,3.9c1,1,1.9,1.9,2.7,2.7c0.5,0.4,0.8,0.7,1.1,1.1
		c0.2,0.2,0.4,0.4,0.6,0.6c0.2,0.2,0.4,0.4,0.6,0.6c1.2,1.4,2.4,2.9,3.6,4.4c1.2,1.5,2.4,2.9,3.8,4.3c0.1,0.2,0.4,0.5,0.9,0.9
		c0.1,0.2,0.3,0.3,0.4,0.4c0.2,0,0.3,0.1,0.4,0.2c0.7,0.6,1.1,1.1,1.3,1.5c0.3,0.4,0.5,0.8,0.8,1.1c0.3,0.3,0.6,0.6,0.8,0.9
		c0.2,0.1,0.5,0.3,0.7,0.8c0.1,0.2,0.4,0.5,0.7,0.8c0.8,1,1.6,2,2.6,3.1c0.5,0.5,0.9,1,1.3,1.4c0.4,0.4,0.8,0.9,1.3,1.4
		c2.8,2.9,5.5,5.9,8.1,8.8c2.6,2.9,5.3,5.9,8.1,8.8c0.5,0.8,0.8,1.5,0.8,2.1c0.1,1.2,0.2,2.3,0.2,3.4c0,1.1,0.1,2.2,0.2,3.3
		c0.3,3.8,0.7,7.6,1.2,11.2c0.4,3.7,0.8,7.4,1.2,11.2c0,0.2,0,0.5,0,0.8c0,0.3,0,0.6,0,0.8c0.1,0.7,0.3,1,0.8,1.1
		c0,0.1,0,0.2-0.1,0.2c0,0.1,0,0.2-0.1,0.2c-0.1,0-0.2,0.1-0.1,0.2l-0.4,0.7l1.1,0.7c-0.1,0.2-0.2,0.4-0.3,0.5
		c-0.1,0.1-0.1,0.3-0.1,0.5c0,0.2,0.1,0.4,0.2,0.5c0.1,0.1,0.2,0.3,0.4,0.5c-0.1,0-0.2,0.1-0.1,0.2l-0.5,0.4l0.2,0.5
		c0.2,0.1,0.4,0.3,0.4,0.6c0,0.2,0,0.4-0.1,0.6c-0.1,0.2-0.1,0.4-0.1,0.6c0,0.1,0,0.2-0.1,0.3c-0.1,0.1-0.1,0.2,0,0.4l0.1,0.8
		c0,0.5,0.1,1,0.2,1.4c0.1,0.4,0.2,0.8,0.2,1.4c0,0.5,0.1,1,0,1.4c0,0.4,0,0.9,0,1.4l0.3,2.9c0.2,0.5,0.4,1.1,0.7,1.6
		c0.3,0.5,0.8,0.9,1.3,1l0.3,0.1l0.3,0c0.2-0.1,0.4-0.2,0.5-0.2c0.1,0,0.3-0.1,0.5-0.2c0.5,0.4,1.2,0.6,2.2,0.5
		c2.8-0.3,5.6-0.6,8.3-0.9c2.7-0.4,5.5-0.9,8.2-1.6l0.2,0l0.7-1.2l0-0.3c-0.1-0.3-0.2-0.7-0.3-1c0-0.4-0.1-0.7-0.1-1.1
		c0-0.5-0.1-1.1-0.1-1.6c0-0.5,0-1,0-1.4c-0.1-0.9-0.2-1.7-0.4-2.5c-0.2-0.8-0.3-1.5-0.4-2.2c0-0.2,0-0.4,0-0.6c0-0.2,0-0.4,0-0.6
		c0-0.2-0.1-0.4-0.1-0.5c-0.1-0.1-0.1-0.3-0.1-0.5c0.1-0.2,0.1-0.6,0.1-1.2l-0.6-6.7l0-0.2c0-0.1,0-0.2,0.1-0.3l0-0.5l0-0.5
		l-0.1-0.8c0-0.2-0.1-0.3-0.1-0.4c-0.1,0-0.1-0.2-0.1-0.4c-0.1-0.3-0.2-0.7-0.3-1.3c-0.2-2.5-0.4-4.9-0.5-7.2
		c-0.1-2.3-0.2-4.7-0.3-7.2c-0.1-0.5,0-1,0-1.5c0.1-0.4,0.1-0.9,0-1.5c0.1-1.2,0.2-2.1,0.4-2.7c0-0.2,0.1-0.3,0.3-0.4l-0.1-0.7
		l-0.2-2.8c-0.1-1.2-0.1-2.1-0.1-2.6c0.1-0.4,0.3-1.2,0.7-2.1c0.4-1,0.9-2,1.5-3.1c0.6-1.1,1.1-2.1,1.7-3.1c0.6-1,1-1.7,1.3-2
		c0.2-0.2,0.3-0.4,0.4-0.6c0.1-0.2,0.2-0.4,0.4-0.6c0.1-0.2,0.1-0.5,0.2-0.7c0-0.2,0.1-0.4,0.2-0.7c0.6-0.8,1.1-1.3,1.5-1.4l0.3-0.2
		l0.1-0.3c0.2-0.6,0.5-1.4,1-2.5c0.5-1.1,1.1-2.2,1.7-3.4c0.6-1.2,1.2-2.3,1.8-3.4c0.6-1,1-1.7,1.3-2.1c0.6-0.7,1-1.4,1.3-2.1
		c0.2-0.3,0.4-0.7,0.6-1c0.2-0.3,0.4-0.7,0.5-1.2c0.1-0.2,0.2-0.4,0.2-0.4c0-0.1,0.1-0.2,0.2-0.4c0.1-0.1,0.2-0.2,0.3-0.3
		c0.1-0.1,0.2-0.2,0.3-0.4c0.2-0.2,0.3-0.4,0.3-0.5c1-1.3,1.9-3,2.8-5.2c0-0.1,0-0.2,0.1-0.3c0.1-0.1,0.1-0.2,0.1-0.4l0-0.5
		c0.2,0,0.4-0.1,0.5-0.1c0.1-0.1,0.3-0.2,0.5-0.3l0.2,0l0.1-0.3l0.8-2c0.1-0.8,0.4-1.4,0.8-1.9c0.4-0.6,0.9-1.4,1.7-2.5
		c0.7-1.1,1.5-2.3,2.3-3.6c0.8-1.3,1.5-2.5,2.1-3.6c0.6-1.2,1.1-2,1.3-2.6c0-0.2,0-0.4,0.2-0.6c0.1-0.2,0.3-0.4,0.5-0.6
		c0.5-0.6,0.8-1.1,1-1.4c0.4-0.5,0.7-1.1,1-1.7c0.4-0.5,0.6-1,0.5-1.5c-0.1-0.7-0.4-1.2-1-1.7L518.2,643.8z"/>
	<path d="M566,755.6c0.8-0.2,1.7-0.3,2.5-0.4l0.7-0.2l0-2.1l0.1-7.9l0-0.5c0-0.1,0-0.2-0.1-0.2c-0.1,0-0.1-0.1-0.1-0.2v-0.3
		c0-0.2,0.1-0.4,0.2-0.5l0-0.7c0-0.2,0-0.4-0.1-0.6c-0.1-0.2-0.1-0.3-0.1-0.4l-0.2-0.2c0.1-0.1,0.2-0.2,0.2-0.3
		c0-0.1,0.1-0.2,0.2-0.3l0-0.5c0-1.2,0-2.4,0.1-3.5c0.1-1.1,0.1-2.3,0.1-3.5c0-0.5-0.1-1.3-0.3-2.1c0-0.2,0-0.4-0.1-0.4
		c-0.1-0.1-0.1-0.2-0.1-0.4l0-0.5l0.2-0.2l0.2-0.2l0-0.5l0-0.7c0-0.8,0.1-1.4,0.2-1.8l0-3.3c0-1.4,0-2.8-0.1-4.3
		c-0.1-1.4-0.1-2.8-0.1-4.3c0-0.2,0-0.6,0-1.1c0-0.5,0.1-1.1,0.2-1.8l0-1.6l0-0.7l0-0.5c0-0.1,0-0.2-0.1-0.3
		c-0.1-0.1-0.1-0.2-0.1-0.3l-0.2-0.2c0-0.2,0.1-0.4,0.3-0.5c0.2-0.1,0.4-0.2,0.6-0.3c0.2-0.1,0.4-0.3,0.7-0.5c1.4-0.5,2.9-1,4.4-1.3
		c1.7-0.4,3.4-0.7,5.1-0.9c1.6-0.1,2.7-0.2,3.3-0.2c3.6,0,7.1,0.2,10.5,0.4c3.4,0.2,6.8,0.9,10.3,1.9c0.2,0.4,0.5,0.9,1,1.5
		c0.4,0.6,0.9,1.1,1.5,1.6l-0.3,0l-0.2,0.7c-0.3,1.7-0.5,3.5-0.5,5.3c0,1.8,0,3.6,0,5.5c0,2.2,0,4.4,0.1,6.8c0.1,2.3,0.1,4.7,0.1,7
		c0,0.5,0.1,1,0.3,1.3L606,737l-0.2,0.2l0.3,1.5c-0.2,0.7-0.2,1.2,0.2,1.6l-0.7,0.2l0.2,0.7c0,0.1,0,0.2,0.1,0.3
		c0,0.1,0.1,0.2,0.1,0.3c0,0.2,0.1,0.3,0.2,0.3l0,0.2c0,0.1-0.1,0.2-0.2,0.3l0,0.5c-0.1,0.1-0.2,0.3-0.2,0.7
		c-0.1,0.1-0.2,0.3-0.2,0.7c0,0.6,0,1,0.1,1.5c0,0.4,0.1,0.9,0.1,1.3l0,4.1l0,2.3c0.1,0.3,0.2,0.7,0.2,1.1c0.1,0.4,0.2,0.7,0.4,0.9
		l0.2,0.3l0.3,0c1,0.1,2,0.3,2.9,0.4c1,0.2,2,0.3,2.9,0.3c3.3,0,6.5,0,9.7-0.2c3.2-0.1,6.3-0.3,9.5-0.5l0.8,0l0-0.8l0-5.1
		c0-1.3,0-2.6,0-3.8c0-1.3-0.2-2.5-0.5-3.7l0.5-0.5l0-0.3c0-1.3,0.1-2.6,0.2-3.9c0.1-1.3,0.2-2.6,0.2-3.9l0-0.8
		c-0.1-0.2-0.2-0.4-0.2-0.5c0-0.1-0.1-0.2-0.2-0.3c0-0.2,0-0.4-0.1-0.7c-0.1-0.2-0.1-0.4-0.1-0.7c0-0.1,0.1-0.4,0.3-0.8l0.3-0.5
		l-0.3-0.5c-0.1-0.1-0.2-0.4-0.2-0.8c0-1,0-2,0.1-2.9c0.1-1,0.1-2,0.1-3.1l0.1-7.4l-0.7-0.2l-0.3,0l0.3-0.3l0.3-0.3
		c0-0.1,0-0.2,0.1-0.2c0.1-0.1,0.1-0.2,0.1-0.4l0.1-6.9c0-0.2,0-0.4-0.1-0.4c-0.1-0.1-0.1-0.1-0.1-0.2l-0.3-0.3l0-0.2
		c0-0.2,0-0.4,0.1-0.6c0.1-0.2,0.1-0.4,0.1-0.6c0.1-0.1,0.2-0.4,0.2-0.8c0.1-0.1,0.2-0.4,0.2-0.8c0-1.2,0-2.4-0.1-3.7
		c-0.1-1.3-0.1-2.5-0.1-3.7c0-0.5,0.1-1.1,0.2-1.7c0.1-0.6,0.2-1.2,0.2-1.9c0-1.1-0.1-1.9-0.3-2.5l0.5-0.5c0-0.2,0.1-0.4,0.3-0.7
		c0.1-0.2,0.2-0.4,0.2-0.7c0-0.3-0.1-0.6-0.2-0.8c0-0.1,0-0.2-0.1-0.2c-0.1-0.1-0.1-0.1-0.1-0.2c-0.1-0.1-0.2-0.2-0.2-0.2
		s-0.1-0.1-0.2-0.2l0-0.2l0.1-8l0-0.7c-0.1-0.1-0.2-0.3-0.2-0.5c-0.1-0.1-0.2-0.3-0.2-0.5v-0.3c0-0.4,0.1-0.8,0.2-1
		c0-0.3,0.1-0.6,0.2-0.8l0-0.7c0-0.4-0.1-0.8-0.2-1c0-0.2,0-0.4-0.1-0.6c-0.1-0.2-0.1-0.4-0.1-0.6c-0.1-0.3-0.2-0.6-0.2-0.9
		c-0.1-0.3-0.1-0.6-0.1-0.9l0.2-0.3c0-0.3,0.1-0.5,0.2-0.7c0.2-0.7,0.3-1.3,0.3-1.8c0-0.4-0.1-1.2-0.3-2.2c-0.2-1-0.5-1.9-0.8-2.5
		c0.1-0.1,0.2-0.2,0.2-0.2c0.1,0,0.2-0.1,0.4-0.3l0.2-0.2l0-4.1l-0.3-0.3l-0.2-0.2c0.4-1.6,0.7-3.4,0.7-5.2c0-0.5,0-1-0.1-1.5
		c-0.1-0.4-0.1-0.9-0.1-1.5c0-0.8,0.2-1.5,0.5-2.3l0.3-0.5l-0.3-0.3c-0.6-0.8-1.4-1.2-2.1-1.4c-0.8-0.2-1.5-0.3-2.3-0.3
		c-1.4,0-2.8,0-4.2,0.1c-1.4,0.1-2.7,0.1-4,0.1c-2.1,0-4.1-0.1-6.1-0.1c-2-0.1-4-0.1-6.1-0.1c-0.8,0-1.4,0.2-2,0.6
		c-0.6,0.4-0.8,1-0.8,1.9l0,0.7l0.2,0.2c0.1,0.1,0.2,0.2,0.2,0.3l0,0.3l0,0.3l0,0.3c-0.1,0.1-0.2,0.3-0.2,0.5l0,0.7
		c0,0.5,0,1,0.1,1.5c0,0.4,0.1,0.9,0.1,1.5l-0.1,6.4c0,0.8,0,1.6-0.1,2.5c-0.1,0.9-0.1,1.7-0.1,2.6c0,0.9,0,1.7,0.1,2.5
		c0,0.8,0.2,1.7,0.4,2.5c-0.3,0.7-0.5,1.3-0.5,2c0,1,0.1,1.7,0.5,2.3c0,0.1,0,0.2-0.1,0.2c-0.1,0.1-0.1,0.1-0.1,0.2
		c-0.1,0-0.2,0.2-0.2,0.5c0,1.2,0,2.6,0,4.3c0,1.7,0.1,3.5,0,5.3c0,1.4,0,2.7,0,3.9c0,1.2-0.1,2.1-0.3,2.6c-3.1-0.6-6.1-1.1-9-1.5
		c-2.9-0.5-6-0.7-9.2-0.7c-1.5,0-3.1,0.1-4.7,0.3c-1.6,0.2-3.1,0.4-4.7,0.6c-1.5,0.2-3,0.5-4.4,0.8c-1.4,0.3-2.8,0.6-4.3,0.8
		c-0.2-0.7-0.3-1.1-0.3-1.3c0-0.5,0.2-1,0.5-1.3l0.2-0.3v-0.3c0-0.3-0.1-0.8-0.3-1.5c-0.1-0.2-0.2-0.5-0.2-1c0-1.7,0-3.4,0-5.1
		c0-1.6-0.1-3.3,0-5.1c0-0.4,0-0.8,0.1-1.2c0.1-0.4,0.1-0.7,0.1-1.1l0-1.1c-0.1-0.2-0.2-0.4-0.2-0.5c0-0.1-0.1-0.3-0.2-0.5
		c0-0.3,0-0.6-0.1-0.9c-0.1-0.3-0.1-0.6-0.1-0.9l0.2-0.2c0-0.1,0-0.2,0.1-0.2c0.1-0.1,0.1-0.1,0.1-0.2c0.1-0.1,0.2-0.3,0.2-0.7
		c0-1,0-2-0.1-2.9c-0.1-1-0.3-2-0.5-3l0.3-0.3l0.7-0.5l-0.5-0.7c-0.1-0.1-0.2-0.3-0.2-0.5c0-0.2,0-0.5,0.1-0.7
		c0.1-0.3,0.1-0.6,0.1-0.9c0-0.3-0.1-0.8-0.3-1.5l0-0.3c0.1,0,0.2-0.2,0.2-0.5l0.1-6.9c0-0.5,0.1-1,0.2-1.3l0.3-0.7l0-0.8l0-0.7
		l0-0.5l-0.3-0.2c-0.5-0.4-1.2-0.7-1.9-0.9c-0.7-0.2-1.4-0.3-2-0.3c-1.4,0-2.8,0-4.2,0.1c-1.4,0.1-2.8,0.1-4.2,0.1l-5.4,0
		c-1.2,0-2.3-0.1-3.4-0.2c-1.1-0.1-2.2-0.2-3.4-0.2c-0.9,0-1.5,0.5-1.9,1.4c-0.4,0.9-0.6,1.6-0.6,2l0,0.5c0.1,0.1,0.2,0.3,0.2,0.5
		c0.1,0.1,0.2,0.2,0.2,0.3l0,0.3c0,0.4-0.1,0.8-0.2,1.2c-0.1,0.4-0.2,0.8-0.2,1.2c0,0.2,0,0.4,0.1,0.6c0.1,0.2,0.1,0.4,0.1,0.6
		c0.1,0.2,0.2,0.5,0.2,1c0.2,0.9,0.3,1.4,0.3,1.6c0,0.7-0.1,1.3-0.2,2c-0.1,0.7-0.2,1.4-0.2,2c0,0.2,0,0.5,0,0.8
		c0,0.3,0,0.8,0.2,1.3l0,1.1l0,0.5c-0.1,0.2-0.2,0.4-0.2,0.7c0,0.2-0.1,0.4-0.2,0.7c0,0.2,0,0.5-0.1,0.7c-0.1,0.3-0.1,0.5-0.1,0.7
		c0,0.4,0,0.8,0.2,1c0,0.2,0,0.4,0.1,0.5c0,0.1,0.1,0.3,0.1,0.5c0.1,0.4,0.2,1,0.2,1.6c0,0.3,0,0.7-0.1,1.1
		c-0.1,0.4-0.1,0.8-0.1,1.2c0,0.4,0,0.8,0.1,1.2c0.1,0.4,0.1,0.8,0.1,1.2c0,0.5-0.1,1.1-0.2,1.8c-0.1,0.7-0.2,1.3-0.2,2l0,0.7
		c0.1,0.1,0.2,0.3,0.2,0.7c0.1,0.1,0.2,0.3,0.2,0.5l0,0.3c0,0.9,0,1.7-0.1,2.6c-0.1,0.9-0.1,1.7-0.1,2.6c0,0.5,0,1.2,0.1,1.9
		c0,0.7,0.1,1.4,0.1,2c0,0.5,0,1.1,0.1,1.7c0,0.6,0.1,1.2,0.1,1.7c0,0.4,0,0.8-0.1,1.2c-0.1,0.4-0.1,0.8-0.1,1.2l-0.1,8
		c0,1.7,0,3.4,0,4.9c0,1.5,0.1,2.5,0.2,2.9l0.2,0l-0.3,0l0,0.8c0,0.4,0,0.8-0.1,1.2c-0.1,0.4-0.1,0.8-0.1,1.4l-0.1,11l0,5.9l0,3.6
		c0,0.7,0,1.1,0.2,1.3l0,0.3l0,0.5c0,0.3,0.1,0.5,0.3,0.5l-0.3,0.3l-0.8,0.8l1.1,0.5c-0.2,0.1-0.3,0.5-0.3,1.1c0,0.4,0,0.7,0.2,0.8
		l0,0.2l-0.5,0.3l0.2,0.5c0.1,0.2,0.2,0.5,0.2,1c-0.1,0.3-0.2,0.6-0.3,0.9c-0.1,0.3-0.1,0.6-0.1,0.9c0,1.6,0,3.3,0.1,4.9
		c0.1,1.6,0.1,3.3,0.1,4.9c0,1,0.5,1.7,1.5,2.3h0.3l0.2,0c0.2-0.1,0.4-0.2,0.5-0.2c0.1,0,0.3-0.1,0.5-0.2c0.6,0.2,1.1,0.3,1.5,0.3
		c0.7,0.2,1.3,0.3,1.8,0.3c2.5,0,5,0,7.4,0c2.4,0,4.9-0.1,7.4-0.2C564.3,755.8,565.2,755.8,566,755.6z"/>
	<path d="M690.8,664.5c0.1-0.1,0.3-0.1,0.5-0.1l0.2,0l9.1,1l6.2,0.7c0.9,0.1,1.7,0.1,2.6,0.1c0.9,0,1.8,0,2.6,0.1
		c1.5,0.2,3,0.4,4.3,0.6c1.3,0.2,2.8,0.4,4.3,0.6l7.3,0.8c1,0.1,1.8,0.2,2.5,0.4c0.7,0.1,1.5,0.4,2.5,0.9l0.7,0.1l1,0.1l0.6,0.1
		l0.1-0.8c0-0.4,0.1-0.8,0.3-1.1c0.1-0.3,0.2-0.7,0.3-1.1l0.4-3.4c0.1-0.9,0.2-1.7,0.4-2.4c0.2-0.7,0.3-1.6,0.4-2.4
		c0.1-0.5,0.1-1.1,0.1-1.6c0-0.5,0-1.1-0.1-1.7c-0.2-1.6-0.9-2.4-2.3-2.6l-13.2-1.5c-0.6-0.1-1.3-0.1-2-0.1c-0.7,0-1.3-0.1-2-0.1
		c-1.8-0.2-3.7-0.4-5.4-0.7c-1.8-0.3-3.6-0.5-5.4-0.7c-4.1-0.5-8.3-0.8-12.6-1.2c-4.2-0.3-8.5-0.7-12.7-1.2
		c-1.6-0.2-3.3-0.4-4.9-0.5c-1.6-0.2-3.3-0.5-5-0.9l-0.3,0l-0.2,0.3c-0.7,0.6-1.2,1-1.3,1.3c-0.1,0.3-0.3,1-0.4,1.9
		c0,0.3,0,0.6,0.1,0.8c-0.1,0.3-0.3,0.6-0.4,0.9c-0.1,0.3-0.2,0.6-0.3,1c-0.1,0.8-0.1,1.5,0,2.2c0.1,0.7,0.1,1.5,0,2.4
		c-0.1,1.1-0.3,2.1-0.4,3.1c-0.2,1-0.3,1.9-0.4,2.9l-0.1,0.7c0,0.2,0,0.4,0,0.4c0,0.1,0.1,0.1,0.1,0.3l-0.1,1l-0.1,0.5
		c-0.1,0.1-0.2,0.3-0.2,0.5c0,0.1-0.1,0.2-0.2,0.2c-0.1,0-0.2,0.1-0.2,0.2c-0.1,0.9-0.1,1.7,0,2.6c0.1,0.8,0.1,1.7,0,2.6
		c0,0.2-0.1,0.5-0.2,0.8c-0.1,0.3-0.1,0.6-0.2,0.8l-0.1,1.3c0.1,0.2,0.1,0.4,0.1,0.5c0,0.1,0,0.2,0.1,0.3c-0.3,0.4-0.4,0.8-0.5,1.3
		c0,0.4-0.1,0.9-0.1,1.3c-0.6,5.5-1.2,11.1-1.8,16.6c-0.6,5.5-1.2,11.1-1.8,16.6c0,0.2,0,0.4,0,0.5c0,0.1,0.1,0.3,0,0.5
		c0.2,0,0.3,0.1,0.3,0.4l-0.3,0l-0.1,0.8c0,0.2-0.1,0.4-0.1,0.6c-0.1,0.2-0.1,0.3-0.1,0.6c0,0.1,0,0.2-0.1,0.2
		c-0.1,0.1-0.1,0.2-0.1,0.4l-0.1,0.8c-0.3,3-0.7,6.1-0.9,9c-0.3,3-0.6,6-0.9,9l-0.3,2.6c0,0.3-0.1,0.7-0.1,1.1c0,0.4,0,0.8,0.2,1.3
		c0,0.2-0.1,0.3-0.4,0.3l-0.4,0.5l0.4,1c0,0.1-0.1,0.2-0.2,0.3l0,0.3l0,0.3l-0.4,0.6l0.5,0.4l0,0.2c-0.2,0.7-0.4,1.5-0.5,2.3
		c-0.1,0.8-0.2,1.5-0.3,2.1l-0.1,0.8c0,0.2,0,0.4,0.1,0.7l-0.1,1l-0.1,0.7c0,0.2-0.1,0.4-0.2,0.5l-0.1,0.5c-0.1,0.5-0.1,1,0,1.4
		c0.1,0.4,0.1,0.9,0,1.4c0,0.4-0.1,0.8-0.2,1.1c-0.1,0.3-0.2,0.7-0.2,1.1c-0.1,0.5,0,1.2,0.1,1.8l0.1,0.3l0.5,0.2
		c1.6,0.4,3.2,0.7,4.8,1s3.3,0.6,5,1l0.5,0.1l0.5,0.1c0.2,0,0.3,0,0.3-0.1l0.3,0l0.3,0c1.2,0.1,2.4,0.2,3.8,0.3
		c1.3,0.1,2.6,0.2,3.7,0.3c3.8,0.4,7.5,1,11.2,1.7s7.4,1.2,11.2,1.7c1.7,0.2,3.5,0.3,5.2,0.3c1.7,0,3.4,0.1,5,0.3
		c0.9,0.1,1.8,0.3,2.7,0.5c0.9,0.2,1.8,0.4,2.7,0.5c0.9,0.1,1.8,0.2,2.7,0.2c0.9,0.1,1.8,0.1,2.7,0.1c0.2,0,0.4,0,0.6,0
		c0.2,0,0.3,0,0.4,0c0.2,0,0.6,0,1-0.2c0.6-0.4,0.9-1,1-1.9l0.5-4.4l0.5-4.6c-0.1-0.4-0.1-0.9-0.1-1.3c0-0.4-0.1-0.9-0.3-1.3
		c0-0.2,0-0.6-0.2-1c-0.2-0.5-0.5-0.7-1.1-0.8c-0.8-0.1-1.5-0.1-2.2-0.2c-0.7,0-1.4-0.1-2.2-0.2c-1.2-0.1-2.4-0.3-3.6-0.6
		c-1.2-0.2-2.4-0.4-3.6-0.6c-3.8-0.5-7.6-1-11.4-1.5c-3.8-0.5-7.6-0.9-11.4-1.4c-0.5-0.1-1-0.2-1.4-0.3c-0.4-0.2-0.9-0.3-1.4-0.3
		c-0.3,0-0.6,0-0.9,0.1c-0.3,0.1-0.5,0.1-0.7,0.1c-0.4-0.1-0.9-0.2-1.3-0.5c-0.4-0.1-0.7-0.1-0.8-0.3l-0.7-0.1l0.5-4.1
		c0.1-0.7,0.2-1.3,0.4-1.9c0.2-0.6,0.3-1.2,0.4-1.8l0.1-0.8c0-0.2,0-0.4-0.1-0.4c-0.1-0.1-0.1-0.2-0.1-0.4c-0.1-0.3-0.1-0.8,0-1.5
		c0.1-0.9,0.2-1.7,0.4-2.4c0.1-0.8,0.3-1.6,0.4-2.4c0.2-1.5,0.3-3.1,0.4-4.7c0.1-1.6,0.3-3.3,0.5-4.9l0.1-0.8l-0.3,0l0.4-0.3l1-8.6
		l0.2,0c0.9,0.1,1.6,0.2,2.3,0.4c0.7,0.2,1.5,0.3,2.3,0.4c2.2,0.2,4.4,0.4,6.7,0.6c2.3,0.1,4.5,0.3,6.7,0.6c2.4,0.3,4.8,0.5,7.1,0.6
		c2.3,0.2,4.7,0.4,6.9,0.6l1,0.1c0.2,0,0.6,0,1-0.2c0.4-0.1,0.9-0.5,1.5-1.3c0.7-1.3,1.1-2.7,1.3-4c0.2-2.2,0.1-4.4-0.4-6.8
		c-0.3-1.1-0.8-1.9-1.3-2.2c-0.6-0.3-1.3-0.6-2.3-0.7l-7-0.8c-1.2-0.1-2.4-0.2-3.6-0.2c-1.2,0-2.4-0.1-3.6-0.2
		c-0.8-0.1-1.5-0.2-2.3-0.3c-0.8-0.1-1.6-0.3-2.5-0.4c-1.3-0.1-2.6-0.2-4-0.2c-1.4,0-2.8-0.1-4.2-0.2c-1.3-0.1-2.6-0.5-3.9-0.9
		c-0.1-0.1-0.1-0.2-0.1-0.3l0.1-0.6c0-0.3,0.1-0.6,0.3-0.8c0-0.1,0.1-0.2,0.4-0.3c0-0.1,0.1-0.2,0.2-0.3l0-0.2c0-0.2,0-0.4,0-0.6
		c0-0.2,0-0.4,0-0.6c0-0.2,0-0.4-0.1-0.5c-0.1-0.1-0.1-0.3-0.1-0.5c-0.1-0.9-0.1-1.6-0.1-2.1l0.6-5.2c0.1-0.9,0.2-1.7,0.4-2.4
		c0.1-0.8,0.3-1.6,0.4-2.4c0.1-0.7,0.1-1.3,0.1-2c0-0.7,0-1.4,0.1-2.1c0-0.2,0.1-0.4,0.1-0.6c0.1-0.2,0.1-0.3,0.1-0.6
		c0-0.2,0.1-0.3,0.1-0.4c0.1,0,0.1-0.2,0.1-0.4l0.1-0.8c0.1-0.5,0.1-1,0.2-1.4c0-0.4,0-0.8,0-1.4c-0.1-0.9-0.2-1.6-0.1-2.2
		c0.1-0.1,0.2-0.2,0.4-0.3c0.1-0.1,0.2-0.3,0.2-0.6c0-0.2,0-0.3-0.1-0.3l0-0.3L690.8,664.5z M690.5,664.7l-0.7-0.1
		c0.3,0,0.5,0,0.7-0.1L690.5,664.7z"/>
	<path d="M781,661.3c-0.2-0.2-0.4-0.3-0.5-0.3c-0.2,0-0.3-0.1-0.5-0.3l-1.1-0.3c-1.3-0.3-2.6-0.6-3.9-0.8c-1.3-0.2-2.6-0.5-3.8-0.8
		l-7.5-1.9c-0.8-0.2-1.5-0.3-1.9-0.1c-0.4,0.1-1,0.5-1.6,1.3l-0.1,0.3l0,0.2l0.2,1.1c0,0.1,0,0.2,0,0.2c0.1,0,0.1,0.1,0,0.2
		c0.1,0.1,0.1,0.3,0,0.5c0.1,0.9,0.2,1.8,0.2,2.6c0,0.8,0,1.6,0,2.5c0.1,1.4,0.2,2.7,0.4,4c0.2,1.3,0.3,2.6,0.3,3.8
		c0,2.4-0.1,4.7-0.1,7.2c0,2.4,0.1,4.8,0.3,7.1l0.2,0.7c0,0.1,0,0.4,0.1,0.9c0,0.1,0,0.2,0,0.3c0,0.1,0,0.2,0,0.3
		c0.1,0.1,0.1,0.3,0.1,0.4c-0.4,2-0.5,4.3-0.4,6.7c0.1,2.2,0.2,4.3,0.3,6.5c0.1,2.2,0.1,4.4,0.1,6.6c0.1,1.6,0.2,3.3,0.3,5
		c0,1.7,0.1,3.4,0.3,5c0,1.1,0,2.3,0,3.5c-0.1,1.2,0,2.3,0.2,3.3l0.2,0.4l0.2,0.4c0.1,0,0.1,0.1,0.1,0.1c0,0.1,0,0.1,0.1,0.1
		l-0.2,0.1l-0.2,0.6c-0.3,2.3-0.3,4.6-0.1,6.8c0.2,2.2,0.2,4.5,0.2,6.7c0,2.3,0,4.5,0.1,6.7c0.1,2.2,0.2,4.4,0.3,6.6l0,0.7l0.2,0
		l-0.1,0.5c-0.1,0.2-0.1,0.4,0,0.5c0,0.1,0,0.2,0,0.3l0.2,0.7l0.2,0.7c-0.2,0.8-0.3,1.8-0.3,2.8c0,1,0.1,2,0.1,3.1c0,1,0,2,0.1,2.9
		c0.1,0.9,0.1,1.8,0.1,2.7c-0.1,2.2,1,3.8,3.4,4.6c1,0.4,2.1,0.7,3.2,1.1c1.1,0.3,2.2,0.7,3.4,1c1.2,0.3,2.3,0.5,3.6,0.7
		c1.2,0.1,2.4,0.4,3.6,0.7c0.5,0.1,1,0.3,1.4,0.5c0.4,0.2,0.9,0.4,1.4,0.5c0.3,0.1,0.7,0.2,1,0.3c0.4,0.1,0.7,0.1,1.1-0.1
		c0.9-0.1,1.5-0.7,1.8-1.7c0.3-1.1,0.9-2.4,1.8-3.9c0.9-1.6,2-3.3,3.1-5.3c1.1-1.8,2.3-3.6,3.4-5.3c1.1-1.7,1.9-3.1,2.5-4.4l3.7-6.7
		c0.6-1.1,1.2-2.1,1.8-2.9c0.6-0.9,1.2-1.8,1.7-2.9c0.1-0.2,0.3-0.6,0.6-1.2c0.2-0.2,0.3-0.4,0.5-0.6c0.2-0.2,0.3-0.4,0.5-0.6
		c0.8-0.9,1.3-1.9,1.6-3c0.1-0.4,0.3-0.8,0.5-1.1c0.2-0.3,0.4-0.7,0.6-1l0.5-0.6c-0.1,0.2,0,0.5,0.3,0.9l0,0.5l0.2,0l-0.4,0.1l0,0.7
		c-0.1,2.3-0.1,4.6,0.1,6.9c0.2,2.2,0.3,4.5,0.3,6.8c0,1.4-0.1,2.7-0.2,3.9c-0.2,1.3-0.3,2.5-0.4,3.7c-0.1,1.3-0.1,2.6,0,3.9
		c0.1,1.3,0.5,2.6,1,4l0.1,0.4c0.1,0,0.1,0.1,0.1,0.2c0.1,0.1,0.1,0.3,0,0.5c-0.2,0.8-0.3,1.8-0.3,2.9c0,1.1,0,2.2,0.1,3.3
		c0.1,0.9,0.2,1.9,0.3,2.9c0.1,1,0.1,2,0.1,2.9c0,0.7,0.1,1.2,0.1,1.6c0.1,0.5,0.2,0.8,0.4,1.1c0.2,0.3,0.3,0.4,0.5,0.5
		c0.2,0,0.3,0.1,0.5,0.3c0.5,0.1,1,0.3,1.4,0.5c1,0.4,2,0.7,2.9,1.1c0.9,0.3,2,0.7,3.1,1c1.2,0.3,2.4,0.5,3.6,0.7
		c1.3,0.2,2.5,0.4,3.6,0.7c0.8,0.2,1.6,0.5,2.3,0.7c0.7,0.3,1.4,0.5,2.3,0.7c1.4,0.4,2.3-0.1,2.9-1.5c0.2-0.4,0.4-0.8,0.5-1.2
		c0.1-0.4,0.3-0.8,0.4-1.1c0.7-1.4,1.5-2.8,2.4-4.1c0.9-1.3,1.8-2.8,2.6-4.2l1.1-2.3c0.2-0.3,0.4-0.6,0.5-1c0.1-0.4,0.4-0.7,0.7-0.9
		c2-2.9,3.8-5.9,5.6-9c1.8-3.2,3.5-6.3,5.2-9.3c0-0.1,0.2-0.3,0.5-0.7l0.7-0.8c0.6-0.7,1-1.4,1.2-2.1l0.1-0.5l-0.1-0.4l0-0.2
		c0.1-0.2,0.3-0.7,0.8-1.3c0.5-0.7,1-1.5,1.8-2.6c0.6-1.1,1.2-2.1,1.8-2.9c0.6-0.9,1-1.5,1.4-2c0.9-1.5,1.8-2.9,2.5-4.4
		c0.7-1.5,1.6-3,2.5-4.6c0.3-0.5,0.7-1,0.9-1.6c0.3-0.6,0.6-1.1,0.9-1.6c1.7-2.5,3.2-5.1,4.6-7.7c1.4-2.6,2.9-5.2,4.4-7.7
		c0.6-1.2,1.3-2.3,2.1-3.4c0.7-1.1,1.5-2.2,2.2-3.4c0.5-0.9,1-1.8,1.5-2.7c0.6-0.9,1.1-1.8,1.7-2.7c0.2-0.3,0.6-1,1.3-2.1
		c0.7-1.1,1.5-2.3,2.3-3.5c0.7-1.2,1.5-2.3,2.1-3.3c0.7-1.1,1-1.7,1-1.8c0.2-1,0-1.7-0.7-2.4c-0.7-0.5-1.4-0.9-2.1-1
		c-2.8-0.7-5.5-1.4-8.4-2.2c-2.8-0.8-5.6-1.6-8.3-2.4l-0.5-0.1l-0.2,0.3c-0.6,0.5-1.3,1.5-2.1,2.9c-0.8,1.4-1.7,3-2.7,4.6l-4.6,8.1
		c-0.2,0.4-0.8,1.5-1.8,3.2c-1,1.8-2.3,3.9-3.8,6.5c-1.5,2.5-3.2,5.4-5,8.4c-1.9,3.1-3.7,6.2-5.5,9.3c-1.4,2.6-2.9,5.1-4.4,7.5
		c-1.5,2.4-2.8,4.7-4,6.8c-1.2,2.1-2.3,4-3.4,5.6c-1,1.7-1.9,3-2.4,3.9c-0.1-0.9-0.2-1.9-0.3-2.9c-0.1-1-0.1-2-0.1-3
		c0-1.3,0-2.7,0.1-4c0.1-1.3,0.2-2.7,0.3-4.1c0.1-0.8,0.1-1.7,0.2-2.7c0-1-0.1-2-0.4-3l0.1-0.5l0.2-1c-0.1-0.2,0-0.9,0-2.1
		c0.1-1.2,0.1-2.4,0.1-3.8c0-0.7-0.1-1.3,0-1.9c0-0.6,0.1-1.1,0.1-1.6c0-0.7-0.1-1.1,0-1.2c-0.1-0.1-0.1-0.3,0-0.5
		c0-0.1,0-0.2-0.1-0.4l-0.2-0.4l0.1-0.3l0.1-0.5c0-0.1,0-0.2,0-0.3c0-0.1,0-0.2,0-0.3l0.1-0.5c0.1-0.4,0.1-0.8,0.1-1
		c0.1-0.2,0.1-0.3,0-0.4c0-0.1,0-0.2,0-0.4c-0.1-0.7-0.1-1.1,0-1.2c0.3-1.2,0.5-2.4,0.6-3.8c0.1-1.4,0.3-2.8,0.4-4.2
		c0-1.3,0-2.7,0.1-4.1c0.1-1.4,0.2-2.7,0.2-3.9c0.3-3.2,0.6-6.4,0.9-9.6c0.4-3.2,0.7-6.4,1-9.7c0.2-1.1,0.1-2.3-0.1-3.7l-0.1-0.4
		l-0.3-0.2c-0.4-0.2-0.9-0.5-1.5-0.9c-0.8-0.4-1.4-0.7-1.8-0.8c-0.5-0.1-0.9-0.2-1.2-0.1c-0.2-0.1-0.4-0.1-0.5,0c-0.1,0-0.3,0-0.5,0
		c-0.5,0-0.8,0-1.1,0c-0.3,0-0.6-0.1-0.9-0.1l-1.7-0.4l-1.7-0.4c-1.3-0.1-2.5,0.4-3.6,1.4c-0.7,0.8-1.5,2.4-2.4,4.6
		c-0.5,1-1,2-1.4,2.9c-0.5,0.9-0.9,1.6-1.2,2.1c-1.3,2.4-2.6,4.8-4,7.2s-2.6,4.9-3.8,7.4c-0.9,1.7-1.8,3.4-2.7,5.1
		c-1,1.7-2,3.4-3.1,5c-0.4,0.8-0.7,1.4-0.8,1.8c-0.2,0.2-0.3,0.4-0.3,0.7c-0.1,0.3-0.2,0.5-0.3,0.7c-1.6,3.3-3.4,6.5-5.2,9.7
		c-1.8,3.2-3.7,6.4-5.7,9.6c-1.2,2-2.3,3.9-3.4,5.9c-1.1,2-2.1,4-3.2,5.9l-0.1,0.3c-0.1-1.7-0.2-3.5-0.2-5.3c0-1.8-0.1-3.5-0.2-5.1
		c-0.1-1.9-0.2-3.8-0.3-5.6c-0.1-1.8-0.1-3.6,0.1-5.5c0-0.1,0-0.2,0-0.3c0-0.1,0-0.2,0-0.3c-0.1,0-0.1-0.1-0.1-0.2
		c-0.2-1.6-0.2-3.2-0.2-4.9c0-1.6,0-3.3,0-5c0-0.3-0.1-0.7-0.1-1c0-0.3-0.1-0.7-0.1-1c-0.2-0.6-0.2-1.1-0.1-1.6
		c0-0.1,0.1-0.2,0.1-0.2c0.1,0,0.1-0.1,0.1-0.2c0-0.1,0.1-0.2,0.2-0.3l0.2-0.6c0.1-0.2,0-0.4-0.1-0.6c-0.1-0.2-0.2-0.4-0.3-0.7
		c-0.2-0.1-0.3-0.2-0.2-0.4c-0.2-1.1-0.3-2.2-0.2-3.4c0-1.2,0-2.3-0.1-3.3c0-1.6-0.1-3.1-0.1-4.4c0-1.4-0.1-2.8-0.2-4.3
		c0-0.8,0-1.6,0-2.4c0-0.8,0-1.5,0-2.2c0.1-1.8-0.1-3.3-0.6-4.7c0.2-0.6,0.1-1.4-0.1-2.4c-0.1-0.2-0.1-0.5-0.1-0.7
		c0-0.2,0-0.5-0.1-0.7c0.1-0.2,0.1-0.4,0-0.5c0-0.1,0-0.3,0-0.5c0-0.6,0.1-1,0.1-1.4c0-0.4,0.1-0.8,0.1-1.3c0-0.4,0-0.9,0-1.3
		c0-0.4,0-0.9,0-1.4c-0.2-1.7-0.2-3.3,0.1-4.5C782,662.6,781.7,661.8,781,661.3z"/>
</g>
</svg>
