<?xml version="1.0" encoding="utf-8"?>
<!-- Generator: Adobe Illustrator 22.0.0, SVG Export Plug-In . SVG Version: 6.00 Build 0)  -->
<svg version="1.1" id="Layer_1" xmlns="http://www.w3.org/2000/svg" xmlns:xlink="http://www.w3.org/1999/xlink" x="0px" y="0px"
	 viewBox="0 0 1080 1080" style="enable-background:new 0 0 1080 1080;" xml:space="preserve">
<g>
	<path d="M539.6,175.5c1,3.7,3.9,5.2,7.7,4.8c4.5-0.6,7.4-4.4,6.8-9.3c-1.3-10.4-0.9-20.9-0.1-31.3c1.1-14.1,2.4-28.2,2.4-42.4
		c0.1-16.3-0.9-32.5-5.1-48.3c-0.4-1.7-0.9-3.3-1.6-4.9c-0.8-1.8-2.4-2.8-4.5-2.7c-2,0.1-3.5,1.1-4.4,2.9c-0.5,0.9-0.5,1.9-0.7,2.9
		c-1.8,11.7-2.8,23.5-3.6,35.2c-0.7,9.6-1.3,19.2-1.9,28.7c-0.8,12.8-2,25.5-2.4,38.3c-0.1,3.9,0.6,7.6,1.9,11.2
		C536,165.5,538.2,170.3,539.6,175.5z"/>
	<path d="M721.7,198.6c2.8,0.2,4.6-1.2,5.3-4.5c2.5-11.9,6.9-23.1,11.7-34.2c6.5-15.2,12.4-30.5,17-46.4c3.3-11.4,5.6-23,5.7-34.9
		c0-3.3-1.5-5.4-4.2-6.2c-2.6-0.7-4.4,0.2-6.1,3.4c-10.5,19-19.2,38.8-26.6,59.2c-5.9,16.4-7.5,33.6-8.3,50.8c0,2.3-0.1,4.7,0,7
		C716.2,196.1,718.5,198.4,721.7,198.6z"/>
	<path d="M289.6,150.5c5.5,8.4,11.7,16.4,17.5,24.6c10.8,15.1,24.7,26.9,39.5,37.9c2.6,2,5.5,1.5,7.6-0.9c2.2-2.4,1.9-5.8-0.2-7.6
		c-2.2-1.9-4.1-4.2-6-6.5c-4.8-6.1-8.7-12.8-12.3-19.7c-8-15.5-18.5-29.3-30.1-42.3c-5.3-6-11.2-11.4-17.7-16.1
		c-1.4-1-2.8-2-4.6-1.9c-3.7-0.2-8.1,3.5-6.2,8.6C280.4,135.1,284.6,143,289.6,150.5z"/>
	<path d="M878,269.9c2,0.9,3.6,0.2,5-1.3c5.9-6.7,13.1-11.9,20-17.4c5.5-4.4,10.7-9.1,14.7-15c2.8-4.2,6.1-8,9.6-11.7
		c4.5-4.7,9.3-9.1,13.5-14.2c3.5-4.2,6.4-8.7,8.2-13.9c1.1-3.2,0.5-5.9-1.7-7.7c-2.2-1.8-4.8-1.9-7.9-0.2c-4,2.2-7.7,4.8-11.3,7.7
		c-9.8,7.7-18.3,16.8-26.4,26.3c-9.8,11.6-18.6,23.9-25.8,37.3c-0.7,1.4-1.6,2.8-1.6,4.5C874.6,266.7,875.6,268.8,878,269.9z"/>
	<path d="M159.4,242.2c8.9,8.3,19,14.8,30.7,18.4c8.3,2.6,16.9,4.5,25.3,6.6c0.7,0.2,1.5,0.3,2.2,0.2c2.6,0,4.4-1.6,5-4.1
		c0.6-2.8-0.4-5.4-3.2-6.8c-10.2-5.1-19.3-11.8-28.9-17.7c-5.4-3.4-11-6.5-17-8.8c-4.5-1.7-9.1-3-14.3-3.5c-4.2-0.8-7.1,4.1-5.1,8.2
		C155.4,237.6,157.2,240.1,159.4,242.2z"/>
	<path d="M433.5,189.9c2.3,0.5,4.4,0.2,6.2-1.5c1.7-1.6,1.8-3.6,1.1-5.8c-1.7-5.3-2.6-10.8-1.7-16.3c0.4-2,1-4,1.5-6.1
		c0.9-4.2-1.3-7.3-5.5-8c-2.3-0.3-4.4,0.4-6.2,1.8c-4,3.1-5.6,7.3-5.5,11.2c0.1,6.8,3.5,17.4,6.9,22.2
		C431.1,188.7,432.1,189.6,433.5,189.9z"/>
	<path d="M630.9,172.3c3.1-0.1,5.4-1.7,6.2-4.8c1-4.2,1.9-8.4,3.4-12.4c0.4-1.1,0.3-2.4,0.4-2.8c0.1-4.7-1.2-7-4-7.9
		c-2.8-0.9-5.3-0.1-7.6,1.7c-6.7,5.5-8.1,16.8-3.1,23.9C627.4,171.5,628.9,172.3,630.9,172.3z"/>
	<path d="M829.6,226.9c0.2,0,0.7,0,1.1-0.2c2.7-0.8,7-7.5,6.6-10.3c-0.2-1.9-1.2-2.8-3.1-3c-1.5-0.2-3,0.2-4,1.3
		c-1.6,1.7-3.2,3.4-4.6,5.2c-1.2,1.5-1.2,3.2-0.2,4.8C826.3,226.2,827.6,226.9,829.6,226.9z"/>
	<path d="M121.5,394c1.4,3.8,3,7.7,4.9,11.7c1.9,4,3.9,7.6,5.9,10.6s3.8,4.4,5.3,4.1c3.4,1.9,5.7,1,7.1-2.7c0.9-2.5,0.4-4.7-1.4-6.6
		c-1.8-1.9-3.8-2.4-6-1.3c-1,0.5-1.7,0.5-2.1,0.2c-0.4-0.3-1.3-1.6-2.7-3.8c-2.8-4.6-5-10.3-6.6-17c-1.6-6.7-2.2-13.4-1.9-20.1
		c0.5-7.7,2.2-14.7,5-21.2c2.8-6.5,6.2-10.7,10.3-12.6c1.3-0.6,2.4-1,3-1.1c0.7-0.1,1.5,0.1,2.4,0.7c1.1,0.7,2.5,2.5,4.2,5.3
		c1.6,2.8,3.7,7.3,6.2,13.5c2.5,6.1,5.6,14.3,9.3,24.4c3.7,10.1,8.3,22.8,13.7,38.2c2.2,6.4,4,11.6,5.6,15.8c1.5,4.1,2.9,7.6,4,10.5
		c1.1,2.9,2.3,5.4,3.3,7.7c1.1,2.3,2.2,4.8,3.5,7.5c1.8,3.5,3.5,6.5,4.9,9c1.4,2.5,2.8,4.8,4.2,6.7c1.4,1.9,3,3.7,4.6,5.2
		c1.7,1.6,3.5,3.1,5.5,4.7c2.7,2.2,5.7,3.9,9.1,5.1c3.3,1.2,6.2,1.6,8.4,1.1c3.8-0.7,6.7-2.6,8.9-5.4c1.8-2.3,2.9-6,3.4-11.2
		c0.5-5.2,0.2-11-0.9-17.5c-0.7-4-1.7-9.6-3.1-16.8c-1.4-7.2-2.9-14.3-4.5-21.6c-1.5-7.2-3-13.7-4.4-19.4c-1.4-5.7-2.3-9.1-2.8-10.1
		c-1.4-2.9-2.7-3.9-4.2-3c-1.4,0.9-1.6,2.8-0.6,5.9c0.2,0.9,0.8,3.3,1.7,7.1c0.9,3.8,1.9,8.2,3,13.1c1.1,4.9,2.2,10,3.3,15.3
		c1.1,5.2,2,9.7,2.7,13.3c1.9,9.6,3.1,17.3,3.6,23c0.5,5.7,0.4,10.2-0.3,13.4l-0.6,3.4l-3.5-2.1c-4.1-2.6-8.4-7.5-12.9-14.8
		c-4.5-7.3-8.8-16.5-13.1-27.7c-2.7-7-5.3-13.8-7.8-20.6c-2.6-6.7-5-13.1-7.2-19.2c-2.2-6.1-4.3-11.6-6.1-16.8
		c-1.8-5.1-3.3-9.6-4.4-13.4c-2.6-7.6-5-14.1-7.3-19.4c-2.3-5.3-4.6-9.6-6.8-12.9c-2.3-3.3-4.6-5.6-6.9-7.1
		c-2.3-1.5-4.9-2.4-7.8-2.7c-2-0.3-4.7,0.3-8,1.8c-3.3,1.5-6.5,3.4-9.5,5.9c-7,5.6-12,13.5-14.8,23.7c-2.8,10.2-3.3,21-1.4,32.5
		C119.3,387.6,120.1,390.2,121.5,394z"/>
	<path d="M214.7,293c-3.8-1.1-7.1-0.4-10.1,2.2c-2.3,1.9-3.7,4.1-4.4,6.6c-0.7,2.5-0.8,5-0.2,7.5c0.6,2.5,1.8,4.7,3.6,6.7
		c1.8,2,4.1,3.3,7,4c1.1,0.2,2,0.3,2.9,0.5c0.9,0.2,1.4,0.3,1.7,0.4c0.7,0.1,1,1.3,1.1,3.5c0,1.6,0.1,2.7,0.3,3.3
		c0.2,0.6,0.5,1.2,1.2,1.8c0.9,0.7,1.8,0.8,2.9,0.5c1.1-0.3,1.9-1.1,2.4-2.3c0.5-1.4,0.8-3.3,1-5.8c0.2-2.5,0.3-5.1,0.3-7.9
		c0-2.8-0.2-5.4-0.4-7.8c-0.3-2.4-0.6-4.2-1.1-5.4C221.1,296.7,218.5,294.1,214.7,293z"/>
	<path d="M245.9,323.4c0.3,3,1.1,6.8,2.3,11.3c1.2,4.5,2.6,9.4,4.1,14.5c1.5,5.2,3.2,10.5,5.1,15.9c1.9,5.4,3.7,10.5,5.6,15.4
		c1.9,4.9,3.8,9.3,5.7,13.2c1.9,3.9,3.6,6.9,5.2,8.9c6.4,11.3,13.6,20.3,21.6,27.1c8,6.8,15.4,10.2,22.2,10.2
		c8.4-0.1,14.3-4.7,17.9-14c1.4-3.2,2.3-6.8,2.8-11c0.5-4.1,0.7-8.8,0.6-14.1c0.1-4.7-0.2-10.3-0.8-16.9c-0.7-6.5-1.3-12.4-2-17.7
		c0.7,1.1,1.5,2.2,2.2,3.3c0.7,1.1,1.5,2.2,2.3,3.5c5.9,9.7,12.7,17.3,20.3,23c7.6,5.6,14.8,8.4,21.6,8.2c8.3-0.4,14.3-4.7,18.2-13
		c1.4-3,2.5-6.2,3.1-9.8c0.7-3.5,1.1-7.7,1.4-12.4c0.2-3.2,0.2-6.9,0.1-11.1c-0.1-4.2-0.4-8.4-0.8-12.4s-0.7-7.6-1.1-10.8
		c-0.4-3.2-0.9-5.3-1.4-6.3c-0.3-1.1-0.7-1.7-1-1.9c-0.3-0.2-1.1-0.1-2.1,0.2c-0.9,0.3-1.4,0.6-1.6,0.9c-0.2,0.3-0.3,1.2-0.2,2.6
		c0.8,8.3,1.4,15.6,1.8,21.8c0.4,6.2,0.5,11.7,0.4,16.3c-0.1,4.6-0.5,8.6-1.2,11.8c-0.7,3.2-1.6,6-2.8,8.3c-0.6,1.2-1.3,2.4-2.1,3.6
		c-0.8,1.2-1.6,2.1-2.4,2.8l-2.3,1.9l-5-2.8c-5.8-3.5-11.7-9.3-17.7-17.5c-6-8.2-11.8-17.9-17.2-29.1l-2.8-6.2l4.7-4.7
		c4.5-4.3,8.1-9.1,10.8-14.2c2.7-5.1,4.9-11.2,6.7-18.2c1.8-7.6,2.5-15,2.3-22.2c-0.2-7.3-1.3-13.8-3.2-19.7
		c-1.9-5.8-4.6-10.7-8-14.6c-3.5-3.9-7.5-6.3-12.1-7.2c-3.5-0.5-7.2,0.2-11.2,2c-4,1.8-7.4,4.5-10.2,8.1c-6.1,8.1-9.2,18.4-9.5,30.8
		c-0.3,12.4,1.5,27.6,5.4,45.7c3.6,16.1,6.3,29.6,8.1,40.7c1.8,11.1,2.8,20.3,3.1,27.6c0.3,7.3,0.2,13.1-0.4,17.2
		c-0.6,4.2-1.3,7.5-2.3,9.9c-0.6,1.2-1.3,2.5-2,4c-0.7,1.5-1.5,2.6-2.2,3.2l-2.3,1.9l-5.2-3.6c-5.9-4-12.1-10.8-18.6-20.3
		c-6.5-9.5-12.7-20.8-18.7-34l-3.1-7.2l4.6-4.9c4.4-4.7,7.9-9.9,10.4-15.7c2.5-5.8,4.5-12.6,6-20.4c1.5-8.5,2-16.9,1.4-25.2
		c-0.5-8.3-1.9-15.9-4.1-22.6c-2.2-6.7-5.1-12.4-8.8-17c-3.7-4.6-7.8-7.5-12.5-8.6c-3.6-0.8-7.4-0.3-11.4,1.6c-4,1.9-7.3,4.9-10,8.8
		c-2,3-3.7,6.7-5.1,11.1c-1.4,4.4-2.4,9.3-3.1,14.7c-0.7,5.4-1,11.1-0.9,17.1C244.5,311.5,245,317.5,245.9,323.4z M331.9,286.4
		c-0.3-3.3-0.3-7.4-0.2-12.1c0.1-6.1,0.8-11.3,2.3-15.6c1.5-4.4,3.4-7.5,5.7-9.5c2.3-2,4.9-2.7,7.7-2.1c2.8,0.6,5.7,2.7,8.5,6.3
		c2.2,2.6,4.1,6.6,5.8,12c1.7,5.3,2.5,10.4,2.7,15.3c0.3,4.6,0,9.2-0.7,13.8c-0.7,4.6-1.7,9.1-3,13.4c-1.3,4.3-2.9,8.3-4.9,12.1
		c-2,3.7-4.1,6.8-6.5,9.3c-2.8,3-4.5,4.7-5.1,4.9c-0.6,0.3-1.3-0.2-2.1-1.5c-0.5-1-1.1-2.9-1.9-5.6c-0.7-2.7-1.6-5.7-2.5-9
		c-0.9-3.3-1.8-6.7-2.6-10.2c-0.8-3.5-1.4-6.5-1.8-9.1C332.6,293.8,332.2,289.7,331.9,286.4z M262.3,272c1.3-4.8,3.1-8.3,5.4-10.5
		s4.8-2.9,7.7-2.1c2.9,0.8,5.8,3.2,8.9,7.4c1.1,1.6,2.2,3.6,3.3,6c1.1,2.4,2.1,5,3.1,8c0.9,2.9,1.6,5.9,2.2,9c0.6,3,1,6,1.3,8.8
		c0.4,5.1,0.4,10.3-0.2,15.6c-0.5,5.2-1.4,10.2-2.5,15c-1.2,4.8-2.7,9.2-4.5,13.4c-1.8,4.2-3.9,7.7-6.1,10.5
		c-2.7,3.4-4.3,5.2-4.9,5.5c-0.6,0.3-1.3-0.4-2.3-2.1c-0.5-1-1.2-3.1-2.1-6.2c-0.9-3.1-1.9-6.6-3-10.5c-1.1-3.9-2.1-7.8-3.1-11.8
		c-0.9-4-1.7-7.5-2.2-10.4c-0.9-5.4-1.5-10-2-13.9c-0.4-3.9-0.7-8.5-0.8-13.9C260.4,282.6,261,276.8,262.3,272z"/>
	<path d="M475,332.9c0.9,4.5,1.7,9,2.6,13.4c0.8,4.4,1.7,8.5,2.6,12.4c0.9,3.8,1.8,7.2,2.6,10.1c0.9,2.7,1.5,4.3,1.8,4.9
		c0.3,0.5,1.2,0.9,2.5,1.1c2.7,0.5,5.4,0.4,8.1-0.2c2.8-0.6,4.8-1.4,6.2-2.5c1.4-1.1,2.2-2.2,2.5-3.4c0.1-0.4,0.1-1.9-0.1-4.6
		c-0.2-2.7-0.5-5.6-0.8-8.8c-0.3-6.5-0.3-12.4,0.1-17.6c0.4-5.2,1.3-10.9,2.7-17c0.9-4,2.1-8.5,3.8-13.5c1.6-5,3.2-8.9,4.8-11.9
		c1.6-3,3.6-6.2,6.1-9.5c2.5-3.4,4.5-5.6,5.9-6.7c3.5-2.2,6.9-1.7,10.2,1.7c3.3,3.4,6,8.9,8.1,16.6c1.6,5.8,2.4,12.5,2.4,20
		c0.1,7.5-0.7,15.3-2.3,23.3c-0.6,3.1-1.1,4.9-1.5,5.6c-0.4,0.7-1.3,1.3-2.8,1.8c-2.3,1-4.7,2.3-7.2,4c-2.4,1.7-4.7,3.5-6.7,5.5
		c-2,2-3.9,4-5.5,6.1c-1.7,2.1-2.8,4-3.3,5.7c-0.9,2.3-1.2,5.1-0.9,8.4c0.3,3.3,0.9,5.8,2.1,7.5c1.1,1.8,2.2,3,3.4,3.9
		c1.1,0.8,2.6,1.6,4.3,2.3c1.9,0.5,4.3,0.5,7-0.1c2.8-0.6,5.3-1.6,7.5-3.2c5.8-3.8,10.8-9.1,15-16c4.2-6.8,7.2-14.6,8.9-23.2
		c0.2-1.2,0.7-2.1,1.4-2.8c0.7-0.7,2.2-1.9,4.7-3.5c3.3-2,6.4-4.7,9.3-8c2.8-3.3,5.1-6.7,6.8-10.3c0.8-1.6,1.5-3.5,2.2-5.7
		c0.1-0.3,0.2-0.7,0.3-1c0.1,1.9,0.2,3.8,0.3,5.6c0.6,9.8,1.7,19,3.3,27.8c1,5.4,1.7,9.1,2.3,11.2c0.6,2,1.3,3.3,2.3,3.9
		c1.7,1.3,4.8,0.8,9.2-1.5c1.5-0.8,2.6-1.5,3.5-2.1c0.8-0.7,1.5-1.7,1.9-3.2c0.5-1.5,0.7-3.6,0.8-6.4c0.1-2.8,0.1-6.7,0.1-11.7
		c0.1-14.4,1-26.3,2.8-35.8c1.8-9.5,4.5-18.1,8.2-25.8c2-4.3,4.6-8.4,7.7-12.4c3.1-3.9,6-6.7,8.6-8.2c0.9-0.4,1.4-0.5,1.5-0.3
		c0.1,0.2,0,0.9-0.4,2.2c-0.5,3.2,0.2,6.2,2.3,9.1c2.1,2.9,4.5,4.3,7.3,4.3c1.5,0,2.8-0.5,4-1.4c1.2-0.9,2.2-2.2,2.9-3.7
		c0.7-1.5,1.1-3.1,1.2-4.9c0.1-1.8-0.3-3.5-1-5.2c-1.7-4.1-4.3-6.7-7.9-7.8c-3.6-1.1-7.5-0.5-11.7,1.8c-1.9,0.9-3.8,2.4-5.8,4.2
		c-2,1.9-4,4-6,6.5c-1.9,2.4-3.8,5.1-5.5,7.9c-1.8,2.8-3.2,5.6-4.3,8.4c-1.3,3-2.6,6.7-3.8,11.1c-1.3,4.4-2.4,8.5-3.3,12.5
		c-0.5,2.4-0.9,3.3-1,2.5c-0.1-0.7-0.1-4.4,0.1-10.9c0.2-3.7,0.4-8.1,0.6-13.1c0.2-5,0.5-9.2,0.9-12.6c0.5-6.7,0.7-11.2,0.5-13.4
		c-0.2-2.2-1-3.8-2.3-4.7c-0.9-0.6-2.2-0.9-3.8-1c-1.6-0.1-3.2,0-4.9,0.3c-1.7,0.3-3.2,0.8-4.6,1.4c-1.4,0.7-2.4,1.5-2.9,2.4
		c-1.1,1.7-1.9,5.2-2.4,10.5s-0.9,13.8-1.2,25.3c0,3,0,6,0,8.8c-1.4,0.3-2.3,1.3-2.4,3c-1.9,12.2-4.9,21.2-9.2,27.1
		c-0.5,0.6-1.3,1.5-2.4,2.5c-1.1,1.1-2.2,2.1-3.2,3c-1,1-2,1.8-2.8,2.4c-0.9,0.7-1.4,0.9-1.6,0.7c-0.2-0.2-0.3-1-0.1-2.7
		c0.1-1.6,0.2-3.5,0.4-5.8c0.2-3,0.3-6.5,0.3-10.3c0-3.8-0.2-7.7-0.5-11.6c-0.3-3.9-0.8-7.7-1.4-11.2c-0.6-3.6-1.2-6.5-1.8-8.7
		c-1.8-6.4-4.4-11.6-7.7-15.8c-3.4-4.1-6.9-6.5-10.7-7c-4.4-0.7-9.1,0.3-14,2.8c-5,2.5-9.6,6.2-14,11.2l-5,5.9l3.1-5.4
		c2-3.8,3.9-8.2,5.6-13.1c1.7-5,2.8-9.3,3.4-13.2c0.5-2.5,0.8-4.8,0.8-6.8c0.1-2.1-0.1-5-0.5-8.7c-0.2-2.2-0.5-4-0.7-5.3
		c-0.2-1.3-0.4-2.4-0.6-3.3c-0.2-0.9-0.5-1.7-1-2.4c-0.5-0.7-1-1.7-1.7-2.9c-1.8-3-3.8-5.2-5.9-6.5c-2.1-1.4-4.6-2.4-7.5-3
		c-4.8-1-9.4-0.4-13.9,1.8c-4.5,2.2-8.3,5.6-11.6,10.2c-13.3,17.7-16.5,48.8-9.7,93.3C473.4,324,474.2,328.4,475,332.9z M539,357.8
		c-0.6,1.3-1.4,2.8-2.5,4.6c-1,1.8-2.1,3.7-3.3,5.6c-1.2,1.9-2.4,3.6-3.5,5c-1.3,1.6-2.6,3.1-3.8,4.3c-1.2,1.3-2,1.9-2.3,1.9
		c-0.9,0.1-1.4-0.1-1.5-0.5c-0.1-0.5,0.2-2,0.9-4.7c0.5-2.7,1.8-5.3,3.9-8c0.8-0.8,2-1.9,3.3-3.2c1.4-1.3,2.7-2.5,4-3.7
		c1.3-1.2,2.4-2.1,3.5-2.8c1.1-0.7,1.7-0.9,1.9-0.8C539.8,355.8,539.6,356.5,539,357.8z M508.8,293.1c-1.7,3.6-3.4,8.1-5.2,13.5
		c-1.8,5.4-3.3,10.9-4.3,16.5c-0.4,1.7-0.7,3.6-0.9,5.7c-0.2,2.1-0.5,3.9-0.7,5.4c-0.3,2.3-0.5,3.6-0.6,3.9c-0.1,0.3-0.3,0-0.8-0.9
		c-0.3-0.7-0.7-2.6-1.2-5.8c-0.5-3.1-1.1-6.5-1.7-10.2l-1.8-13.9l4.9-3.9c1.4-1.1,3-2.7,5-4.8c2-2.1,3.7-4,5.2-5.6l5.4-6.5
		L508.8,293.1z M489.7,264c0.1-5.4,0.2-9.7,0.5-12.7c0.8-6.3,2.1-11.9,3.8-16.9c1.7-5,3.7-8.7,6.1-11.2c2.4-2.3,5-3.2,8-2.5
		c3,0.6,5.6,2.6,7.8,5.9c1.1,1.8,1.8,3.3,2.2,4.5c0.3,1.3,0.7,3.9,1.1,7.8c0.4,3.7,0.6,6.5,0.5,8.5c-0.1,2-0.4,4.3-1.1,7
		c-1.8,8.1-4.6,15.7-8.5,23c-3.9,7.3-8.6,13.3-14.1,18.2c-1.4,1.1-2.5,2.1-3.3,2.9c-0.8,0.8-1.4,1.3-1.5,1.3c-0.4,0-0.7-1.9-0.9-5.8
		c-0.2-3.9-0.4-8.5-0.5-13.9C489.7,274.8,489.6,269.4,489.7,264z"/>
	<path d="M678,240.5c1.8,1.2,4,1.8,6.6,1.7c2.6-0.1,4.7-0.8,6.3-2.2c3.6-2.9,5.6-6.5,6.1-10.8c0.5-4.3-0.8-8-3.7-11.2
		c-1-1-2-1.7-2.8-2c-0.8-0.3-2.2-0.7-4.3-1c-2-0.3-3.5-0.4-4.5-0.3c-0.9,0.1-2,0.5-3.2,1.2c-1.8,1.2-3.4,2.6-4.8,4.2
		c-0.8,1.1-1.4,2.1-1.6,3c-0.3,0.9-0.4,2.5-0.3,4.7C671.7,232.9,673.8,237.2,678,240.5z"/>
	<path d="M963,361.5c-1.5-0.6-2.9,0.3-4.2,2.6c-4.4,6.6-8.6,12.3-12.9,17.1c-4.2,4.8-8.9,8.9-13.9,12.3l-5.4,3.8l2.9-8.8
		c0.7-2.1,1.5-4.8,2.4-8.1c0.9-3.2,1.8-6.6,2.7-10c0.9-3.4,1.8-6.7,2.5-9.9c0.8-3.2,1.4-5.8,1.8-7.8c1.3-5.7-0.3-9.2-4.7-10.7
		c-2-0.6-4.4-0.9-7.3-0.7c-2.9,0.2-5,0.7-6.2,1.5c-0.5,0.2-1.6,1.5-3.5,3.9c-1.9,2.3-4,5.1-6.4,8.2c-13.4,17.8-24.6,28.8-33.7,33
		l-3.9,2l-0.6-4.3c-1-5.4-1-11.4-0.1-17.9c0.9-6.5,2.3-12.9,4.3-19.3c2-6.4,4.6-12.4,7.6-18.1c3.1-5.7,6.4-10.2,10.1-13.7
		c2.3-2.2,5.1-4.2,8.5-6c3.4-1.8,5.5-2.6,6.4-2.3c1.8,0.6,3.1,2.4,4.1,5.5c1,3.1,1.4,7,1.4,11.9c0,2.9,0.2,5,0.6,6.1
		c0.4,1.1,1.2,1.7,2.4,1.7c1.7-0.2,2.6-2.5,2.9-6.7c0.3-4.2-0.1-8.7-1.3-13.4c-1.3-5.1-4-9.5-8.1-13c-4.1-3.5-8.8-5.4-13.8-5.5
		c-4.5-0.1-9.3,1.6-14.4,5.2c-5.1,3.6-10.3,8.8-15.4,15.5c-3.1,4.2-5.8,8.7-8.1,13.4c-0.1-0.5-0.2-1-0.5-1.4c-0.6-1-1.5-1.2-2.7-0.6
		c-0.4,0.1-0.9,0.7-1.5,1.7c-0.6,1-1.2,2.3-1.8,3.7c-1.5,4.3-3.5,9.2-5.8,14.7c-2.3,5.5-4.7,11-7,16.5c-2.3,5.5-4.5,10.4-6.5,14.7
		c-2,4.4-3.6,7.5-4.7,9.4c-2.2,4-4.3,7.2-6.2,9.8c-1.9,2.6-3,3.5-3.2,2.7c-0.7-1.6-1-5.1-0.9-10.4c0-5.3,0.4-10.8,1-16.6
		c0.3-3.9,1-8.7,2.1-14.4c1-5.7,2.3-11.7,3.7-17.9c1.4-6.3,3-12.7,4.6-19.2c1.7-6.5,3.3-12.5,4.8-17.9c1.6-5.6,2.9-10.4,3.9-14.4
		c1-4,1.9-8.8,2.8-14.6c0.7-4,1.2-7.3,1.5-9.8c0.3-2.5,0.4-4.5,0.3-6.1c-0.1-1.5-0.4-2.9-0.8-4c-0.5-1.1-1.1-2.3-2-3.6
		c-2.8-3.5-7.2-5.5-13.2-5.8c-3,0-5.6,0.3-7.8,0.8c-2.2,0.6-5.1,1.7-8.6,3.5c-8.8,4.5-18.3,13.8-28.7,28
		c-10.4,14.2-20.3,31.8-29.8,52.8c-3.1,6.6-4.9,10.4-5.5,11.4c-0.6,0.9-0.8,0.5-0.9-1.4c0.1-0.6,0.3-1.7,0.6-3.4
		c0.3-1.7,0.7-4,1.2-6.7c0.5-2.8,1.1-5.9,1.8-9.3c0.7-3.5,1.4-7,2.1-10.7c2.1-10.6,3.8-19,5-25.1c1.2-6.1,2-10.9,2.4-14.2
		c0.4-3.3,0.5-5.7,0.2-7.2c-0.3-1.5-0.8-2.8-1.6-3.8c-0.8-0.9-2-1.7-3.6-2.4c-1.6-0.7-3.2-1.1-4.9-1.3c-1.7-0.2-3.3-0.2-5,0.1
		c-1.7,0.3-2.8,0.8-3.6,1.6c-0.5,0.5-1.1,1.9-1.8,4.4c-0.7,2.4-1.6,5.5-2.6,9.3c-1,3.8-2,8.1-2.9,13c-1,4.8-2,9.9-2.9,15.2
		c-0.4,2.1-0.7,4.2-1.1,6.3c-0.2,0-0.3,0.1-0.5,0.1c-0.6,0.3-1.1,1.1-1.6,2.3c-0.5,1.2-1.1,3.5-1.9,7c-1.1,5.3-2.6,11.1-4.4,17.3
		c-1.8,6.2-3.8,12.3-5.9,18.2c-2.1,5.9-4.2,11.4-6.3,16.4c-2.1,5-4,8.9-5.7,11.8c-2.1,3.6-3.9,6.1-5.3,7.6c-1.4,1.5-3.2,2.6-5.3,3.4
		l-3.8,1.7l-1.5-2.3c-1.7-2.2-3.1-6-4.1-11.4c-1-5.4-1.6-12-1.8-19.9c0-2.4,0.2-7.1,0.7-14c0.5-6.9,1.1-14.5,1.9-22.7
		c0.8-8.3,1.6-16.6,2.4-24.9c0.9-8.3,1.7-15.2,2.4-20.6c0.4-3.7,0.8-6.8,1.1-9.2c0.3-2.4,0.3-4.4,0-5.9c-0.3-1.5-0.8-2.7-1.6-3.5
		c-0.8-0.8-1.8-1.4-3.1-1.9c-2-0.9-4.4-1.1-7.3-0.5c-1.7,0.3-3.1,0.5-4.1,0.8c-1,0.3-1.9,0.9-2.5,1.6c-0.6,0.8-1.1,1.9-1.5,3.4
		c-0.4,1.5-0.8,3.4-1.4,5.8c-1.1,5.5-2.2,12.3-3.2,20.2c-1,8-1.9,16-2.5,24.1c-0.7,8.1-1.1,15.8-1.5,23c-0.3,7.3-0.3,13-0.1,17.1
		c1.3,22.1,7.3,36.5,18,43c2.3,1.3,4.9,2.1,7.8,2.5c2.9,0.4,5.5,0.2,7.7-0.6c1.9-0.8,4.1-2.3,6.5-4.6c2.4-2.3,4.5-4.9,6.4-8
		c1.9-3.2,4.3-8.2,7.1-14.8c2.8-6.6,5.4-13.7,7.9-21.2c1-3.1,2-6.1,2.9-9c-0.5,7.8-0.5,14.6,0,20.4c0.5,4.6,1,7.4,1.6,8.4
		c0.6,1,2.4,1.3,5.5,1.1c5.2-0.2,8.6-1.4,10.3-3.5c0.4-0.3,1.3-1.8,2.5-4.5c1.2-2.7,2.6-5.7,4.2-9c8.1-19.7,16.3-36.6,24.6-50.7
		c8.2-14,16.6-25.6,25.1-34.6c4-4.2,8-7.5,12.1-10c4-2.5,6.9-3.3,8.4-2.4c1.2,0.6,1.9,2.6,2,5.9c0.1,3.3-0.2,7.8-1,13.3
		c-0.8,5.5-2.1,12-3.8,19.3c-1.7,7.4-3.7,15.2-6,23.5c-5.4,18.3-9,34.1-10.7,47.2c-1.7,13.1-1.7,23.4,0.2,30.7
		c1.8,7,4.3,11.7,7.6,14.2c1.8,1.3,3.2,2.1,4,2.3c0.8,0.2,2.3,0.1,4.5-0.5c4-1.2,8.1-4.9,12.4-11.2s9.3-16.2,15.2-29.5
		c2.5-5.8,4.7-11.1,6.7-16c-0.2,0.7-0.3,1.5-0.5,2.2c-1.3,6.8-1.7,13.2-1.2,19.1c0.5,5.9,2,10.6,4.6,14.2c0.7,0.8,1.6,1.7,2.7,2.6
		c1.1,0.9,2.1,1.8,3,2.5c12.2,7,28.5-1.8,48.9-26.5l4.9-6l-0.8,4.1c-0.4,1.8-1.4,5.8-2.9,11.8c-1.5,6.1-3.4,13.8-5.5,23.1
		c-0.3,1.1-0.7,1.9-1,2.6c-0.3,0.7-1,1.2-2,1.7c-1,0.4-2.6,0.8-4.8,1.2c-2.2,0.4-5.2,0.9-9.2,1.5c-12,1.7-21.4,3.8-28.4,6.1
		c-7,2.3-12.9,5.4-17.9,9.2c-3.7,2.9-6.4,5.5-8.1,7.9s-3.2,5.7-4.6,10c-3.5,11.6-1.9,20.7,4.6,27.1c1.5,1.5,2.8,2.5,4,3
		c1.2,0.5,3.7,1.3,7.5,2.3c1.9,0.6,3.5,1.1,4.7,1.4c1.2,0.3,2.3,0.5,3.4,0.5c1.1,0.1,2.1,0.1,3.2,0c1.1,0,2.6-0.2,4.5-0.6
		c4.7-0.6,9-1.6,12.7-3c3.7-1.4,7.3-3.2,10.8-5.4c3.1-2.1,6.4-5,9.9-8.5c3.5-3.5,6.6-7.1,9.1-10.5c1.5-2.1,3.2-4.7,5.2-8
		c2-3.3,3.9-6.7,5.8-10.3c1.9-3.6,3.6-7.2,5.2-10.7c1.6-3.5,2.8-6.6,3.7-9.2c0.5-1.6,1.1-2.7,1.7-3.4c0.6-0.7,2.2-1.8,4.9-3.2
		c3.6-2,7.6-4.7,12-8.1c4.4-3.5,7.9-6.7,10.5-9.8c1.2-1.4,2.5-2.9,3.9-4.7c1.4-1.8,2.7-3.6,3.8-5.4c1.2-1.8,2.2-3.4,3.1-4.9
		c0.9-1.5,1.4-2.6,1.7-3.3C964.8,363.6,964.5,362.1,963,361.5z M900.5,413.4c-0.3,1.3-1,2.8-2,4.6c-2.9,7.1-6.4,13.6-10.3,19.6
		c-3.9,6-8.1,11.1-12.5,15.5c-4.4,4.3-8.9,7.8-13.4,10.3c-4.6,2.5-9,3.8-13.4,4c-2.2,0.1-4.4-0.3-6.7-1c-2.3-0.8-4-1.7-5.2-2.9
		c-4.8-4.9-5.7-12-2.7-21.2c1-3,1.8-5.1,2.5-6.2c0.7-1.2,2-2.8,4.1-4.8c2.4-2.4,4.9-4.4,7.5-6.2c2.6-1.8,5.8-3.3,9.3-4.6
		c3.6-1.3,7.7-2.5,12.4-3.6c4.7-1.1,10.2-2.2,16.7-3.2c3.5-0.4,6.6-0.8,9.2-1.2c2.7-0.4,4.2-0.6,4.6-0.7
		C900.9,411.5,900.8,412.1,900.5,413.4z"/>
	<path d="M329.6,869.2c5.9-2.3,11.6-5,17.4-7.7c3.7-1.7,4.5-5.1,2.3-8.5c-1.3-2-3.2-3.1-5.5-3c-3.7,0.1-7.4,0.2-11,0.7
		c-8.5,1.1-16.5,4-24.6,6.7c-8.2,2.8-16.5,5.4-24.8,8c-1.1,0.3-2.5,0.5-3.6,0.2c-3.7-1.1-7.2-0.7-10.4,1.3
		c-5.3,3.3-10.5,6.7-15.7,10.2c-4.7,3.1-9.3,6.2-14,9.3c-0.9,0.6-2,1-3.1,1.6c-1.6-4.3-3.1-8.4-4.6-12.5c-3.9-10.9-8-21.6-11.5-32.6
		c-3.9-12.3-5.7-25.1-8-37.7c-2.7-14.8-6.9-29.1-13.4-42.7c-3.3-6.8-6.4-13.7-9.5-20.6c-3.1-7-5.9-14.2-11.1-20.5
		c1.3-0.5,2.2-0.9,3-1.1c19.6-6.3,39.1-12.6,58.7-18.7c13.3-4.2,26.8-8.1,40.1-12.5c13.5-4.4,26.3-10.6,39.2-16.7
		c5-2.3,10-4.5,15.2-6.5c-4.1-3.2-7.5-6.6-10.3-9.9c-6,1.6-11.9,3.5-17.8,5.4c-11.7,3.9-23.2,8.2-35,11.6
		c-34.9,10.2-69.7,20.4-104,32.4c-3.6,1.2-7.2,2.5-10.7,3.8c-4.1,1.6-6.3,4.8-6.7,9.1c-0.4,4.1,2,6.6,5.6,8.3
		c3.4,1.6,6.4,3.9,8.6,6.9c2.5,3.3,4.7,6.8,6.8,10.5c2.5,4.5,4.6,9.1,7,13.6c5,9.7,9.6,19.5,13.1,29.9c0.4,1.1,0.7,2.3,1.1,3.6
		c-0.9,0.3-1.5,0.5-2.1,0.7c-4.1,1.5-8.3,2.7-12.3,4.4c-7.8,3.3-14.9,7.9-21.9,12.5c-12,8.1-23.5,16.9-36.4,23.6
		c-3.5,1.8-4.7,5.6-3.4,9.6c1,2.9,2.8,5.2,5.8,6.2c8.1,2.8,14.5,8,20,14.5c3.4,4.1,6.6,8.3,9.8,12.6c6.8,9,13.9,17.7,22.5,25.1
		c1.7,1.4,2,2.9,1.8,4.9c-1.1,8.2-2.1,16.3-3,24.5c-0.9,8.7-0.5,17.2,2.8,25.4c0.8,1.9,1.4,3.9,2.1,5.9c2.4,6.7,4,13.4,3.2,20.6
		c-0.4,3.1,1.1,5.5,3.9,6.9c0.7,0.4,1.4,0.9,2,1.5c1.1,1.2,2.4,1.7,4,1.9c6.8,0.7,13.4-0.1,20-1.6c18.9-4.4,35.9-13,51.2-24.8
		c1.3-1,2.7-2,4.2-2.9c9.5-5.6,19.2-11,28.6-16.9c10-6.3,20.3-12.2,28.2-21.3c2.1-2.4,3.3-4.9,2.4-8c-0.7-2.4-1.5-4.9-2.8-7.1
		c-1.8-3.2-4-6.2-6.1-9.2c-4.5-6.3-9.1-12.5-13.7-18.8c-0.4-0.6-0.7-1.2-1.1-1.9c0.7-0.3,1.3-0.5,1.8-0.7
		C312.3,875.7,321,872.6,329.6,869.2z M276.9,885.5c2.7,7.9,7.5,14.6,12.5,21.7c-3,0.7-5,0.1-6.6-2.1c-3.6-4.9-7.3-9.6-11-14.5
		c-0.6-0.7-1-1.6-1.5-2.5C272.1,886.4,274,885.3,276.9,885.5z M264.9,891.5c2.5,5.2,4.9,10.3,7.5,15.6c-1.7,0.4-3.1,0.3-4.7-1
		c-3.5-2.8-6.4-6-9.1-10C260.7,894.5,262.8,893,264.9,891.5z M253.4,899.6c0.9,2.6,1.7,5.1,2.6,7.7c-4.8,0.3-9.1-0.1-13.6-1.4
		C246,903.8,249.5,901.8,253.4,899.6z M288.3,928.7c-9.8,5.7-19.6,11.4-29.4,17.2c-2.5,1.5-5.1,2.9-7.6,4.5c-1.5,1-2.9,2.4-4.3,3.6
		c-0.9,0.8-1.9,1.6-2.9,2.3c-6.9,4.5-14.5,7.8-22.1,10.9c-7,2.9-13.9,5.9-20.9,8.9c-0.3,0.1-0.7,0.2-1.2,0.3c-0.2-9-3-17.4-5.5-25.8
		c-1.5-5-2.7-10-3.1-15.3c-0.5-6,0.6-11.9,1.5-17.8c0.8-5.1,1.5-10.1,0.9-15.3c-0.6-5.2-2.8-9.5-7.2-12.3c-6-3.8-10.6-8.9-14.4-14.7
		c-2.6-3.9-5-7.8-7.4-11.8c-5.5-9.1-12.2-17.1-20.8-23.5c-0.3-0.2-0.7-0.3-1.6-0.6c18.6-12.3,34.9-26.1,52.2-39.3
		c0.5,2.4,1,4.3,1.3,6.3c0.3,1.9,0.6,3.9,0.9,6.2c-3.2,0.3-5,2.6-7,4.5c-5,4.6-10,9.2-15,13.9c-2,2-3.9,4.2-5.7,6.3
		c-0.5,0.6-0.9,1.2-1.1,1.9c-0.4,1.2,0.1,2.2,1.2,2.9c0.9,0.6,1.9,0.5,2.6-0.3c5.8-6,13.5-9.4,20.5-13.6c1.9-1.2,3.8-2.5,6.1-4
		c0.3,1.9,0.6,3.5,0.8,4.8c-3.7,2.6-7.3,4.9-10.7,7.4c-4.5,3.3-8.2,7.3-11.4,11.8c-0.5,0.7-1.1,1.7-1.2,2.5c-0.1,2,2.6,3.4,4.4,2.2
		c0.6-0.4,1.1-1,1.7-1.5c5.6-5.1,11.7-9.2,19.1-12c0.4,1.5,0.7,2.8,0.9,3.8c-4,3.4-7.9,6.4-11.5,9.7c-2.3,2.1-4.2,4.6-6.1,7.1
		c-1.2,1.5-1.1,2.8-0.2,3.9c1,1.2,2.5,1.6,4.1,0.7c2.9-1.6,5.7-3.3,8.5-5.1c2.6-1.7,5.2-3.4,8.1-5.3c0.8,2.5,1.5,4.6,2.1,6.5
		c-3.1,2.8-6,5.5-8.9,8.2c-0.3,0.3-0.5,0.5-0.8,0.8c-2,2.1-2.3,3.8-1,5.5c1,1.4,3.1,2,5.6,0.3c2.7-1.8,5.5-3.3,8.5-5.2
		c1,2.5,1.9,5,3,7.7c-3.8,0.3-5.6,2.9-7.6,5.3c-1.1,1.4-0.9,3.2,0.4,4.4c1.2,1.2,3,1.3,4.4,0c1.6-1.4,2.9-2.9,4.7-4.7
		c0.8,2,1.4,3.7,2.1,5.7c-1.8,1.5-3.6,3-5.3,4.6c-1.9,1.8-1.9,3.9-0.1,5.7c1.3,1.2,2.7,1.5,4.4,0.6c0.7-0.3,1.3-0.8,2-1.1
		c0.6-0.3,1.1-0.6,1.9-1c0.5,1.6,1,2.9,1.3,4.2c0.6,2.3,1.6,4.2,3.4,5.7c0.7,0.6,1,1.6,1.6,2.5c-2.7,2.4-5.2,4.4-7.5,6.6
		c-4,4-7.9,8.2-11.8,12.3c-0.6,0.6-1.1,1.4-1.4,2.1c-0.4,1.1-0.2,2.3,0.9,3.1c1,0.8,2.1,0.8,3.2,0c0.6-0.4,1.2-1,1.7-1.5
		c6.6-5.6,13.8-10.3,21.3-14.6c0.5-0.3,1.3-0.6,1.8-0.4c2.7,0.9,5.5,2,8.5,3.1c-0.8,0.8-1.4,1.5-2.1,2c-5.2,4.3-10.4,8.5-15.6,12.8
		c-0.6,0.5-1.3,0.9-1.7,1.5c-0.3,0.4-0.4,1.2-0.2,1.7c0.1,0.3,0.9,0.4,1.4,0.4c0.2,0,0.5-0.2,0.8-0.3c7-3.4,14-6.7,20.9-10.2
		c2.8-1.4,5.5-3,8.1-4.8c1.4-0.9,2.7-1,4.5-0.2c-1,0.7-1.7,1.2-2.5,1.7c-14.7,9.8-28.4,20.8-41.8,32.3c-0.4,0.3-0.8,0.6-1,1
		c-0.2,0.6-0.3,1.4-0.1,1.8c0.3,0.4,1.2,0.6,1.7,0.5c0.8-0.2,1.5-0.8,2.2-1.2c11.1-6.6,22.2-13.4,33.5-19.8
		c4.6-2.6,9.5-4.6,14.4-6.7c4.6-2,9.3-3.9,13.1-7.3c0.4-0.3,1-0.6,1.5-0.6c3.5,0.2,6.9,0.6,10.4,0.9c0,0.2,0.1,0.4,0.1,0.6
		C290,927.6,289.2,928.2,288.3,928.7z M304.1,908.7c-1.6,0.4-2.5,0-3.4-1.1c-2.2-2.6-4.4-5.1-6.8-7.6c-4.1-4.4-7.1-9.5-9.4-15
		c-0.1-0.2-0.1-0.5-0.1-1c1.8-0.4,3.7-0.8,5.7-1.3C292.2,892.8,298.7,900.3,304.1,908.7z"/>
	<path d="M954.7,831.8c-8.4-4.3-16-9.7-23.8-15c-7-4.8-14.1-9.6-21.3-14.1c-7.8-4.9-16.1-8.8-25.1-11c-0.4-0.1-0.8-0.4-1.3-0.7
		c0.5-1.5,0.9-2.8,1.3-4.2c5.7-16.8,14.3-32.1,22.5-47.7c3-5.7,7.7-10,13.6-13c3.9-2,5.4-5.2,4.4-9.4c-0.8-3.3-2.7-5.8-5.9-7.2
		c-1-0.5-2.1-0.8-3.2-1.2c-23.6-8.4-47.5-16.1-71.5-23.3c-16-4.8-32.2-9.3-48.2-14.2c-12.9-4-25.6-8.4-38.4-12.7
		c-1,2.6-2.1,5.1-3.4,7.5c-0.8,1.6-2,3-3.3,4.2l-1,0.9c1.5,0.3,3.1,0.7,4.5,1.3c10.4,4.5,20.7,9.4,31.2,13.7
		c13.6,5.7,28,9.3,42.1,13.7c22,6.9,44,13.9,66,20.9c0.9,0.3,1.8,0.7,3,1.1c-4.1,5-6.8,10.3-9.1,15.8c-2.2,5.1-4.6,10.2-6.8,15.3
		c-3.7,8.4-7.6,16.7-10.9,25.3c-4.5,11.4-6.4,23.5-8.6,35.5c-2.2,11.7-4.2,23.5-8.1,34.8c-4.5,13.1-9.5,26.1-14.3,39.2
		c-0.1,0.2-0.2,0.3-0.6,0.6c-6.7-3.3-12.5-7.6-18.4-11.9c-0.5-0.3-0.8-1.1-0.9-1.7c-0.4-2.1-1.7-3.2-3.6-4.1
		c-9.5-4.5-19.5-7.9-29.6-10.7c-12.9-3.5-25.8-6.7-38.7-10.3c-26.2-7.5-52.8-12.8-80.2-13.2c-12.2-0.2-24.3-1.8-36-5.8
		c-8.7-2.9-17.8-3.8-26.5,0.7c-1.2,0.6-2.5,0.5-3.9,0.3c-3.5-0.5-6.9-1-10.4-1.1c-10-0.2-19.2,3.1-28.2,6.7
		c-1.9,0.8-2.6,2.4-2.1,4.1c0.5,1.7,2,2.7,3.9,2.6c1.6-0.1,3.2-0.6,4.8-0.7c5-0.5,10-1.2,15-1.3c5.5-0.2,10.7,1,15.1,4.7
		c2.4,2,5.2,2.1,8.1,0.9c0.5-0.2,1-0.5,1.5-0.7c5.2-2.5,10.5-2.9,16-1.2c2.7,0.8,5.3,1.9,8.1,2.8c3.6,1.1,7.2,2.3,10.9,3.2
		c6.7,1.5,13.5,1.4,20.4,1.6c16,0.5,32,1.5,47.7,4.6c8.4,1.7,16.7,3.9,24.6,7.6c11.7,5.5,23.6,10.2,35.9,14.1c0.5,0.2,1,0.4,1.6,0.7
		c-0.4,0.7-0.8,1.3-1.1,1.8c-4.4,6-8.8,12.1-13.2,18.1c-2.1,2.9-4.3,5.8-6.1,8.9c-1.4,2.5-2.4,5.3-3.4,8.1c-0.8,2.2-0.5,4.4,1,6.2
		c2,2.5,4,5.1,6.5,7c7.2,5.4,14.5,10.6,22.1,15.4c9.7,6.1,19.7,11.7,29.6,17.5c1.2,0.7,2.4,1.5,3.5,2.4
		c11.2,8.8,23.4,15.7,36.7,20.7c10.2,3.9,20.8,6.5,31.8,6.4c3,0,6.2,0.1,8.1-2.9c0.1-0.2,0.5-0.3,0.7-0.4c3.8-1.7,4.9-4.7,4.4-8.6
		c-0.5-4.8,0.1-9.5,1.6-14c1.4-4.3,2.8-8.6,4.3-12.9c2-5.9,3-11.9,2.6-18.1c-0.4-4.8-0.8-9.6-1.3-14.4c-0.6-5.5-1.3-11.1-2.1-16.6
		c-0.2-1.3,0.2-2.3,1.2-3.2c9.1-7.9,16.8-17.2,24-26.8c3.5-4.6,7-9.2,10.8-13.5c4.9-5.6,10.7-9.8,17.8-12.3c0.3-0.1,0.5-0.2,0.8-0.3
		c3.5-1.8,5.5-4.6,5.7-8.5C959.9,835.8,957.9,833.4,954.7,831.8z M821.9,899.6c3.8,2.2,7.3,4.2,11.4,6.5c-4.8,1.4-9.2,1.3-14,1.3
		C820.2,904.6,821.1,902.2,821.9,899.6z M816.7,895.9c-2.6,4.6-6.1,8-10.1,10.9c-0.8,0.6-2.3,0.4-3.8,0.6c2.6-5.4,5-10.5,7.6-15.9
		C812.6,893,814.7,894.4,816.7,895.9z M805.2,888.4c-3,4.1-6,8.3-9.1,12.4c-1.1,1.5-2.4,2.9-3.6,4.3c-2.2,2.5-2.3,2.6-6.4,2
		c4.8-6.9,9.7-13.6,12.5-21.6C801.9,885.6,802.4,885.8,805.2,888.4z M774.6,907.6c-0.9,1.1-1.8,1.5-3.4,1.2c5.2-8.4,12-15.8,13.9-26
		c2.2,0.5,3.9,0.9,5.9,1.4c-0.3,0.8-0.4,1.6-0.8,2.2c-2.7,5.7-5.9,11-10.5,15.4C777.9,903.4,776.3,905.5,774.6,907.6z M931,840.3
		c-7.4,5.6-13.5,12.5-18.5,20.3c-3.1,4.9-6.1,9.8-9.2,14.6c-3.8,5.8-8.4,10.9-14.4,14.7c-5.3,3.4-7.5,8.7-7.5,14.8
		c0,4.8,0.8,9.6,1.3,14.4c0.4,3.6,1.1,7.1,1.3,10.7c0.5,6.2-0.8,12.2-2.5,18.2c-1.7,6.2-3.5,12.4-5,18.6c-0.7,3.1-0.9,6.3-1.4,9.9
		c-2.1-1-4-1.9-5.9-2.7c-7.3-3.1-14.8-5.9-22-9.2c-5.7-2.6-11.1-5.7-16.6-8.6c-0.7-0.4-1.6-0.8-2-1.5c-1.8-2.6-4.5-4-7.1-5.6
		c-11.4-6.7-22.9-13.3-34.3-20c-1-0.6-1.9-1.2-3.4-2.3c1.9-0.2,3.1-0.4,4.4-0.5c2.3-0.2,4.7-0.9,6.8-0.4c2,0.5,3.6,2.3,5.4,3.3
		c2.5,1.4,5,2.7,7.6,3.7c8.9,3.3,17.2,7.8,25.4,12.6c8.1,4.8,16,9.7,24,14.6c0.7,0.4,1.4,1,2.2,1.2c0.5,0.1,1.4-0.2,1.7-0.6
		c0.3-0.4,0.2-1.3-0.1-1.7c-0.5-0.7-1.2-1.2-1.8-1.8c-13.6-11.5-27.3-22.8-42.3-32.5c-0.2-0.2-0.4-0.4-0.8-0.7
		c1.3-0.9,2.5-1.1,3.9-0.2c9.1,6.2,19.5,10,29.2,15.1c0.3,0.2,0.7,0.5,1,0.4c0.6-0.1,1.3-0.2,1.7-0.6c0.2-0.2,0-1.1-0.3-1.5
		c-0.5-0.6-1.1-1-1.7-1.5c-5.1-4.2-10.3-8.4-15.4-12.5c-0.8-0.6-1.5-1.4-2.5-2.3c3.1-1.2,5.9-2.3,8.7-3.2c0.5-0.2,1.3,0.2,1.8,0.5
		c7.7,4.4,15.2,9.3,21.9,15.1c0.4,0.3,0.7,0.7,1.1,0.9c1.1,0.6,2.2,0.7,3.2-0.2c1-0.9,1.3-2.1,0.7-3.3c-0.4-0.7-1-1.4-1.5-2.1
		c-4.7-5.9-10.1-11-15.9-15.8c-0.7-0.5-1.3-1.1-1.9-1.7c-1.1-1-1.4-2.4-0.3-3.1c3.2-2.2,3.9-5.6,4.9-9c0.1-0.4,0.4-0.8,0.7-1.4
		c1.2,0.7,2.4,1.4,3.5,2c2.1,1.1,4,0.6,5.2-1.2c1.2-1.7,1-3.5-0.7-5c-1.6-1.4-3.3-2.8-5.2-4.4c0.6-1.8,1.3-3.6,2-5.7
		c1.6,1.6,3,3,4.5,4.3c1.7,1.5,3.4,1.5,4.8,0.2c1.4-1.4,1.4-3-0.1-4.8c-1.9-2.2-3.7-4.7-7.2-4.8c1-2.7,2-5.2,3-7.7
		c3.3,1.9,6.3,3.8,9.4,5.6c2.2,1.3,4.2,0.6,5.2-1.6c0.8-1.6,0.3-3-0.9-4.1c-3.1-2.9-6.3-5.7-9.5-8.5c-0.2-0.2-0.4-0.4-0.8-0.7
		c0.6-2.1,1.3-4.2,2.1-6.6c1,0.6,1.9,1,2.7,1.6c3.9,2.5,7.8,5.1,11.7,7.6c0.9,0.6,2,1.1,3.1,1.5c1.4,0.4,2.6-0.1,3.5-1.3
		c0.8-1.1,0.6-2.2-0.1-3.2c-1.9-2.4-3.8-5-6-7.1c-3.7-3.5-7.8-6.6-12-10.2c0.2-0.9,0.5-2.3,0.9-4c3.1,1.6,6,2.7,8.6,4.4
		c3.8,2.6,7.4,5.5,11.1,8.4c0.9,0.7,1.7,1.5,3,1.3c2-0.3,3.1-2.2,2.2-4c-0.3-0.6-0.7-1.1-1.1-1.6c-5.6-7.5-12.5-13.4-20.8-17.7
		c-0.3-0.2-0.6-0.4-1.1-0.7c0.3-1.6,0.5-3.1,0.8-5c0.7,0.4,1.3,0.7,1.8,1c3.8,2.3,7.6,4.7,11.4,6.9c4.6,2.6,9.2,5.3,12.9,9.2
		c1,1,2,1.5,3.3,0.6c1.2-0.8,1.4-2.4,0.6-3.8c-0.4-0.6-0.9-1.2-1.4-1.8c-3.5-3.6-6.9-7.3-10.5-10.7c-3.6-3.5-7.4-6.8-11.1-10.2
		c-1.5-1.4-2.9-2.7-5.3-2.7c0.1-4.2,1.1-8.2,2-12.5c1.1,0.8,1.9,1.4,2.7,2c10.5,8.2,21,16.4,31.6,24.5c5,3.8,10.1,7.3,15.2,10.9
		c0.6,0.4,1.2,0.9,2,1.5C931.8,839.5,931.5,839.9,931,840.3z"/>
	<path d="M141.8,565c-3.2,0.7-6.4,1.8-9.3,3.4c-4,2.2-4.4,6.2-1.3,9.7c0.7,0.8,1.6,1.4,2.3,2.1c8.9,7.6,18.4,14.4,28.7,20
		c1.2,0.6,2.2,1.5,3.5,2.3c-4.4,7.5-8.9,14.6-12.9,21.9c-1.8,3.3-3.3,7-3.9,10.7c-1.1,6.7,3,9.5,9.6,7.9c19-4.5,38-8.9,57.1-13.2
		c13.3-2.9,26.6-5.5,39.9-8.3c6.4-1.3,11.3-4.8,15.3-10.1c4.7-6.3,9.4-12.5,12.7-19.7c0.7-1.6,1.8-3,2.7-4.5c2.7-4.7,6.6-7,12.2-7.6
		c14-1.5,28-3.8,42-5.5c21.3-2.5,42.7-4.4,64.2-5.6c4,3.4,8,6.3,11.8,8.6c-18.4,27.7-52.5,38.5-89.6,54.6
		c13.7,49.8,128.7,60.2,203.2,42.4c68.1-14.3,139.9-30.3,209.6-13.3l2.2-1.8c22.4-42.1-8.6-103.4-48.8-134.9
		c36.6,8.7,72.8,19.3,108.3,31.8c1.1,0.4,2.2,1.1,4.2,2.1c-5.6,3.1-10.3,5.8-15.1,8.4c-3.8,2.1-7.8,4-11.4,6.4
		c-1.3,0.9-2.8,3-2.7,4.4c0.1,1.5,1.9,3.1,3.4,4c1.8,1,3.9,1.4,6,1.7c7.9,1,15.8,2.1,23.7,2.8c24.9,2.3,49.9,3.3,74.5,7.5
		c5.5,0.9,11.3,0.7,16.9,0.4c1.7-0.1,3.9-1.6,4.9-3.1c1.3-1.9-0.1-4-1.6-5.5c-1.8-1.9-3.6-3.9-5.6-5.6c-9.9-8.5-19.5-17.3-29.8-25.4
		c-14.7-11.6-29.8-22.7-44.9-33.8c-5.3-3.9-10.9-7.5-16.5-11c-2.4-1.5-5-2.9-7.6-3.6c-1.7-0.4-4.2,0.1-5.7,1.1c-2,1.2-1.8,3.6-1,5.7
		c0.5,1.2,1.1,2.4,1.7,3.6c2.7,5,5.4,10,8.1,15c2.8,5.3,5.4,10.7,8.7,17.2c-3.2-1-5.2-1.6-7-2.2c-24.9-8-49.6-16.5-74.6-23.8
		c-14.4-4.2-29-7.9-43.6-11.3c7.6-30,46.9-40.7,78.3-43.5c-13.9-46.5-67.3-57.4-120.8-56.3c-44.8,1.9-79.2,8.6-136.3,27.9
		c-46.6,15.3-113,33.8-145.2-13.5c-32.7,26.9-3,95.7,31.6,132.9c-4.4,0.3-8.7,0.6-13.1,0.9c-19.5,1.5-38.9,3.7-58.3,5.9
		c-9.7,1.1-19.3,2.8-29,4.1c-2.1,0.3-4.2,1.1-6.4-0.8c-7.4-6.1-14.9-12.1-22.5-17.9c-3-2.3-6.4-4.2-9.8-6c-3.3-1.8-7-1.8-10.7-1.1
		c-16.7,3.5-33.5,6.8-50.2,10.4C176.4,557.2,159.1,561,141.8,565z M406.5,500.7c3.2-6,12.4-6.7,27.7-2.2c2.8,0.9,5.2,1.6,7.1,2.1
		c2,0.5,3,0.7,3.2,0.7c0.2,0,0.3-0.9,0.4-2.7c0.1-1.8,0.1-3.9,0.1-6.3c0-4.3,0.1-7,0.3-8.1c0.2-1.1,0.7-2.2,1.7-3.4
		c0.9-1.3,2.6-2.4,4.9-3.4c2.3-0.9,4.5-1.4,6.6-1.4c2.8,0,4.6,1.3,5.5,3.9c0.8,2.6,1,7.5,0.4,14.5c-0.4,2.4-0.6,4.6-0.7,6.4
		c-0.1,1.9-0.1,2.9-0.1,3.1c0,0.4,0.5,0.7,1.5,0.8c1,0.2,2.2,0.3,3.6,0.3c1.4,0,2.9,0,4.6-0.1c1.7-0.1,3.2-0.3,4.5-0.7l3.9-0.8
		l-0.6-3.4c-0.2-2.4,0.2-4.1,1.1-5c0.9-1.1,2.2-1.6,3.9-1.5c1.7,0.1,3,0.8,3.9,2.1c2.2,2.8,2.1,5.7-0.3,8.7c-4.1,4.7-11.4,7-21.8,7
		h-5l-0.8,10.3c0,1.5,0,4-0.1,7.4c-0.1,3.5-0.2,7.5-0.3,12.3c-0.1,4.8-0.1,10-0.1,15.7c0,5.7,0,11.4,0,17.2c0,10.3,0,18.3,0,24
		c0,5.8,0,10.3,0.1,13.4c0.1,3.2,0.3,5.5,0.6,7.1c0.3,1.6,0.6,3.3,1,5.2c0.9,4.7,2,8.5,3.1,11.6c1.1,3.1,2.1,5,3.1,5.7
		c0.7,0.7,1.8,0.2,3.1-1.7c3.7-4.3,7-11.7,9.9-22.2c2.9-10.5,5.3-23.3,7.1-38.2c0,0,0,0,0,0c-0.2-3.2-0.4-6.4-0.6-9.5
		c-2-44.9,4.5-75.5,19.6-91.7c3.7-4.3,8-7.3,12.7-8.9c4.8-1.7,9.4-1.8,13.8-0.3c2.8,0.9,5.2,2.2,7.1,3.8c2,1.6,3.7,4,5.2,7.1
		c0.6,1.3,1,2.3,1.4,3.1c0.4,0.7,0.6,1.6,0.7,2.5c0.1,0.9,0.2,2.1,0.3,3.4c0.1,1.3,0.1,3.1,0.1,5.3c0,3.7-0.1,6.6-0.4,8.7
		c-0.3,2.1-0.8,4.3-1.5,6.7c-2.6,9.5-6.9,18.4-12.9,26.7c-6,8.3-12.9,14.9-20.7,19.7l-5.3,3.6v9.2c0,5,0.2,10.2,0.6,15.4
		c0.4,5.2,0.9,10.3,1.7,15.1l1.1,5.6l1.7-7.3c1.3-5.4,2.8-10.6,4.6-15.7c1.8-5,4-10.4,6.6-16.2c5-11.6,10-20.6,14.8-27.1
		c4.8-6.5,10.2-11.1,15.9-13.7c8-3.5,13.9-2,17.6,4.5c0.7,1.5,1.4,3,2,4.6c0.6,1.6,0.9,3.7,1.1,6.3c0.2,2.6,0.2,6,0.1,10.2
		c-0.1,4.2-0.2,9.6-0.4,16.4c0,3.4,0,7-0.1,10.9c-0.1,3.9-0.2,7.7-0.3,11.5c-0.1,3.7-0.1,7.3-0.1,10.6c0,3.4,0,6.2,0,8.7
		c0,3.7,0,6.8,0,9.1c0,2.3,0.1,4.3,0.3,6c0.2,1.7,0.4,3.1,0.6,4.3c0.2,1.2,0.5,2.5,0.8,3.8c3.2,11,7.3,16.1,12.3,15.4
		c1.5-0.2,2.9-1,4.2-2.4c1.3-1.4,2.7-3.9,4.1-7.6c1.4-3.6,3-8.8,4.9-15.4c1.9-6.6,4.2-15.2,7-25.9c1.5-5.4,2.8-10.5,4.1-15.4
		c0.3-1.2,0.6-2.3,0.8-3.3c-0.1-2.1-0.2-4.2-0.3-6.5c-0.1-6.2,0.1-11.2,0.7-15.1c3.9-27,13.6-40.5,29.1-40.5c3.4,0,6,0.3,7.8,1
		c1.9,0.7,3.8,1.7,5.9,3.2c4.5,3.9,6.5,9.2,6.2,15.9c-0.4,6.7-3,13.5-7.8,20.4c-1.9,2.4-4.1,4.6-6.7,6.6c-2.6,2-5.5,3.5-8.7,4.6
		l-4.5,1.7l-0.3,4.5c-0.2,2.8-0.1,5.8,0.1,8.9c0.3,3.2,0.7,6.4,1.4,9.6c0.7,3.3,1.5,6.5,2.5,9.6c1,3.2,2.1,6,3.2,8.4
		c1.5,3.2,3.1,6.1,4.9,8.7c1.8,2.6,2.9,3.9,3.5,3.9c0.7,0,2.2-1.1,4.5-3.4c2.2-2.2,4-4.4,5.3-6.4c2.6-4.1,5.5-10,8.7-17.8
		c3.2-7.7,6.3-16.4,9.5-25.9c0.7-2.6,1.3-4.2,1.7-4.9c0.4-0.7,1-1.1,2-1.3c1.9-0.2,2.8,0.7,2.8,2.5c0,1.9-0.9,5.7-2.8,11.5
		c-9.3,28.7-18.5,45.5-27.7,50.3c-4.8,2.4-10.3,2.1-16.2-0.8c-2.6-1.3-5.5-3.4-8.8-6.4c-3.3-3-5.6-5.8-7.1-8.4
		c-1.5-2.6-3-6.3-4.6-11c-0.8-2.4-1.5-4.8-2-7.2c-0.5,1.7-0.9,3.5-1.5,5.3c-3,11.2-5.5,20.2-7.4,27c-2,6.8-3.8,12.1-5.5,15.9
		c-1.7,3.8-3.4,6.6-5.2,8.2c-1.8,1.7-3.9,3.1-6.3,4.2c-1.5,0.7-3.9,1.2-7.1,1.3c-3.3,0.1-5.9-0.2-8-1c-1.1-0.4-2.5-1.2-4.1-2.4
		c-1.6-1.2-3.1-2.7-4.6-4.3c-1.5-1.7-3-3.5-4.5-5.5c-1.5-2-2.6-3.8-3.4-5.5c-1.3-2.8-2.3-5.2-3.1-7.3c-0.7-2-1.3-4.8-1.5-8.1
		s-0.4-8-0.4-13.8c0-5.9,0-14,0-24.5c0-9.7,0-17.4,0-23.2c0-5.8,0-10.3-0.1-13.6c-0.1-3.3-0.3-5.6-0.6-7c-0.3-1.4-0.6-2.4-1-2.9
		c-0.6-0.7-1-1-1.3-0.8c-0.3,0.2-1.2,0.9-2.7,2.2c-2.1,2.1-4.3,5-6.9,8.9c-2.5,3.9-5,8.4-7.5,13.4c-2.5,5-4.9,10.3-7.1,15.8
		c-2.2,5.5-4.1,10.9-5.6,16.1c-0.7,2.2-1.6,5.4-2.5,9.4c-0.9,4-1.7,7.7-2.2,11l-2.5,12l-2.8,1.1c-1.5,0.9-3.7,1.4-6.7,1.5
		c-3,0.1-5.5-0.1-7.5-0.7c-1.5-0.4-2.4-0.8-2.7-1.4c-0.3-0.6-0.7-2.2-1.3-5c-0.4-3-0.8-6.4-1.3-10.3c-0.2-2-0.5-4-0.7-6.1
		c-1,5.2-1.9,9.4-2.8,12.8c-3.2,12.9-7.1,22-11.7,27.5c-4.7,5.5-9.6,6.9-14.8,4.1c-3.4-1.7-6.4-4.7-9.2-9.1
		c-2.8-4.4-4.9-9.5-6.4-15.2c-1.3-4.8-2.3-10-2.9-15.4c-0.7-5.4-1.1-12-1.4-19.9c-0.3-7.8-0.3-17.3,0-28.5
		c0.3-11.2,0.8-24.9,1.5-41.1l0.6-10.6l-11.2-3.1c-3.2-0.9-6.2-1.7-8.9-2.4c-2.8-0.7-4.6-1-5.3-1c-1.5,0-2.4,0.1-2.7,0.4
		c-0.3,0.3-0.2,0.9,0.1,1.8c0.2,0.9,0.1,1.7-0.1,2.4c-0.3,0.7-0.9,1.4-1.8,2.4c-1.3,1.3-2.7,2-4.1,2.1c-1.4,0.1-2.5-0.3-3.4-1.1
		c-0.8-0.8-1.4-2-1.7-3.6C405.2,504,405.6,502.4,406.5,500.7z M143,576.3c-0.4-0.3-0.5-0.8-1.2-1.8c7.8-1.9,15.4-3.9,22.9-5.6
		c1-0.2,2.5,0.3,3.3,1c8.6,6.4,17.2,12.9,26.3,19.7c-6.3,2-12.2,3.9-18.2,5.6c-1.1,0.3-2.5,0.2-3.5-0.3
		C162.1,589.5,152.1,583.6,143,576.3z M193,606.1c-3.4,6.4-6.7,12.9-10.2,19.3c-0.7,1.3-1.8,2.8-3,3.2c-5.5,1.6-11.1,2.9-16.6,4.3
		c-0.4,0.1-1-0.2-1.8-0.3c0.7-1.4,1.3-2.6,1.9-3.8c3.8-7,7.6-14,11.5-21c0.7-1.2,1.8-2.7,3.1-3.1c5.6-1.6,11.3-2.9,18.2-4.6
		C194.7,602.8,193.9,604.4,193,606.1z M262.4,609.3c-1.1,1.4-2.9,2.6-4.6,3.2c-3.3,1.2-6.9,1.9-11.3,3.1c5.2-9.9,9.8-18.8,14.6-27.7
		c0.6-1.1,1.9-2.2,3.1-2.4c4.5-1,9.1-1.6,14.2-2.5C274,593,268.6,601.4,262.4,609.3z M257.9,555.7c6.2,5,12.5,9.8,19.8,15.6
		c-6.4,1.1-11.6,2.1-16.9,2.9c-1,0.1-2.5-0.4-3.3-1.1c-6.7-5.7-13.4-11.6-20.1-17.4c-0.4-0.3-0.5-0.9-0.8-1.4
		C244.2,550.2,251.2,550.3,257.9,555.7z M236.8,590.4c5.3-0.7,10.5-1.9,16.6-3.1c-0.7,1.9-1,3-1.5,4c-3.9,7.6-7.9,15.1-11.7,22.8
		c-1.2,2.4-2.8,3.8-5.5,4.2c-4.8,0.6-9.6,1.5-14.5,2.2c-1,0.1-1.9,0-3.2,0c0.2-0.9,0.3-1.4,0.5-1.9c3.7-7.3,7.5-14.5,11.1-21.9
		C230.4,593.3,232.6,591,236.8,590.4z M203.7,561.8c6.3,6.4,12.3,13,19,20.1c-6.5,1.8-12.5,3.5-18.5,4.9c-1,0.3-2.5-0.1-3.4-0.7
		c-8.5-6-17-12.1-25.4-18.2c-0.2-0.2-0.3-0.6-0.6-1.3c1.4-0.4,2.8-1,4.2-1.3c6.8-1.4,13.6-2.8,20.5-4.1
		C200.8,561,202.9,561,203.7,561.8z"/>
	<path d="M509.4,551.9c0.2,0,0.8-0.4,1.8-1.1c1-0.7,2.2-1.6,3.5-2.5c6-4.3,11.3-9.8,15.9-16.6c4.7-6.8,8.3-14.1,10.9-21.9
		c0.9-2.6,1.5-4.9,1.8-6.8c0.3-2,0.4-4.8,0.4-8.5c0-3.9-0.1-6.5-0.3-7.8c-0.2-1.3-0.7-2.9-1.7-4.8c-1.9-3.5-4.2-5.8-7.1-6.7
		c-2.9-0.9-5.6-0.4-8.2,1.7c-2.6,2.2-5,5.7-7.3,10.5c-2.2,4.8-4.1,10.2-5.6,16.4c-0.6,3-1.2,7.2-1.8,12.6
		c-0.7,5.4-1.2,10.8-1.7,16.1c-0.5,5.3-0.8,9.9-1,13.8C508.9,549.9,509,551.9,509.4,551.9z"/>
	<path d="M638.6,561.4c0.6-0.2,1.3-0.5,2.1-1c0.8-0.5,1.7-0.9,2.7-1.3c2.2-1.1,4.4-2.8,6.4-5.2c2.1-2.3,3.8-4.8,5.3-7.5
		c1.5-2.7,2.5-5.5,3.1-8.2c0.6-2.8,0.6-5.2,0-7.3c-0.7-3-2-5.3-3.6-7c-1.7-1.7-3.3-2-4.8-1.1c-2.6,1.5-5,5.3-7.1,11.3
		c-2.1,6.1-4,14-5.5,23.9c-0.2,1.9-0.2,2.9-0.1,3.2C637.1,561.5,637.6,561.6,638.6,561.4z"/>
	<path d="M511.7,888.1c1.8,1.1,4,1.5,6.5,1.2c2.5-0.3,4.5-1.1,5.9-2.6c3.2-3.1,5-6.7,5.1-10.8c0.2-4.1-1.3-7.7-4.3-10.5
		c-1.1-0.9-2-1.5-2.8-1.8c-0.8-0.3-2.2-0.5-4.2-0.7c-2-0.2-3.4-0.2-4.3,0c-0.9,0.2-1.9,0.6-3,1.4c-1.6,1.3-3.1,2.7-4.3,4.3
		c-0.7,1.1-1.2,2.1-1.4,3c-0.2,0.9-0.2,2.4,0,4.6C505.2,881.3,507.4,885.2,511.7,888.1z"/>
	<path d="M734.2,948.4c-0.5,0.4-1,1.1-1.4,2.3c-0.4,1.2-0.8,3.5-1.4,6.9c-0.7,5.2-1.8,10.9-3.1,17c-1.4,6.1-2.8,12.1-4.5,18
		c-1.6,5.9-3.3,11.3-5,16.2c-1.7,5-3.3,8.9-4.7,11.8c-1.8,3.6-3.3,6.2-4.6,7.7c-1.3,1.5-2.9,2.8-4.9,3.6l-3.5,1.9l-1.6-2.2
		c-1.8-2-3.4-5.5-4.7-10.7c-1.4-5.1-2.4-11.5-3.1-19.1c-0.2-2.3-0.3-6.8-0.3-13.5c0-6.7,0.1-14,0.3-22c0.2-8,0.4-16.1,0.7-24.2
		c0.3-8.1,0.6-14.8,0.9-20c0.2-3.6,0.3-6.6,0.4-8.9c0.1-2.3,0-4.2-0.4-5.7c-0.4-1.4-0.9-2.5-1.8-3.2c-0.8-0.7-1.8-1.3-3.1-1.6
		c-2-0.7-4.3-0.7-7,0c-1.6,0.4-2.9,0.7-3.9,1.1c-1,0.4-1.8,0.9-2.3,1.8c-0.5,0.8-0.9,1.9-1.2,3.4c-0.3,1.4-0.6,3.3-0.9,5.7
		c-0.7,5.4-1.3,12-1.8,19.7c-0.4,7.4-0.7,14.9-0.8,22.4c-2.6,7.7-5.8,13.6-9.3,17.6c-0.5,0.5-1.4,1.3-2.6,2.2
		c-1.2,0.9-2.3,1.8-3.4,2.6c-1.1,0.8-2.1,1.5-3,2c-0.9,0.5-1.4,0.7-1.6,0.5c-0.2-0.2-0.1-1,0.1-2.6c0.3-1.5,0.6-3.4,0.9-5.5
		c0.5-2.9,1-6.2,1.4-9.9c0.4-3.7,0.6-7.4,0.7-11.2c0.1-3.8,0-7.4-0.1-10.9c-0.2-3.5-0.5-6.4-0.8-8.5c-1.1-6.3-3-11.6-5.8-15.9
		c-2.8-4.3-6-6.9-9.6-7.8c-4.1-1.1-8.7-0.7-13.8,1.2c-5,1.9-9.9,5-14.6,9.3l-5.4,5.1l3.5-4.9c2.3-3.4,4.6-7.4,6.8-12
		c2.2-4.6,3.7-8.7,4.6-12.3c0.7-2.3,1.2-4.5,1.5-6.5c0.3-2,0.4-4.8,0.4-8.4c0-2.2,0-3.9-0.1-5.1c-0.1-1.3-0.2-2.3-0.3-3.2
		c-0.1-0.9-0.3-1.7-0.7-2.4c-0.4-0.7-0.8-1.7-1.4-3c-1.4-3.1-3.1-5.4-5-6.9c-1.9-1.5-4.2-2.7-6.9-3.6c-4.5-1.4-9-1.4-13.5,0.3
		c-4.5,1.6-8.6,4.5-12.2,8.7c-14.6,15.7-20.9,45.2-18.9,88.7c0.1,2.9,0.3,5.8,0.5,8.9c-0.6,3.7-1.4,7.6-2.3,11.7
		c-1.4,6.1-2.8,12.1-4.5,18c-1.6,5.9-3.3,11.3-5,16.2c-1.7,5-3.3,8.9-4.7,11.8c-1.8,3.6-3.3,6.2-4.6,7.7c-1.3,1.5-2.9,2.8-4.9,3.6
		l-3.5,1.9l-1.6-2.2c-1.8-2-3.4-5.5-4.7-10.7c-1.4-5.1-2.4-11.5-3.1-19.1c-0.2-2.3-0.3-6.8-0.3-13.5c0-6.7,0.1-14,0.3-22
		c0.2-8,0.4-16.1,0.7-24.2c0.3-8.1,0.6-14.8,0.9-20c0.2-3.6,0.3-6.6,0.4-8.9c0.1-2.3,0-4.2-0.4-5.7c-0.4-1.4-0.9-2.5-1.8-3.2
		c-0.8-0.7-1.8-1.3-3.1-1.6c-2-0.7-4.3-0.7-7,0c-1.6,0.4-2.9,0.7-3.9,1.1c-1,0.4-1.8,0.9-2.3,1.8c-0.5,0.8-0.9,1.9-1.2,3.4
		c-0.3,1.4-0.6,3.3-0.9,5.7c-0.7,5.4-1.3,12-1.8,19.7c-0.4,7.8-0.7,15.5-0.8,23.4c0,1.5,0,3,0,4.4c-0.7,3-1.3,5.9-2,8.5
		c-1.4,5.9-2.9,10.9-4.3,15.1c-1.4,4.2-2.9,7.7-4.5,10.5c-1.5,2.8-3.2,5.1-5,6.9c-0.9,0.9-1.9,1.8-3,2.7c-1.1,0.9-2.1,1.5-3,1.9
		l-2.7,1.1l-3.8-4.1c-4.3-4.9-8.1-11.9-11.4-21.2c-3.2-9.3-5.8-19.9-7.6-31.8l-0.8-6.5l5.7-3c5.4-2.7,10.1-6,14.1-10
		c4-4,7.7-8.9,11.4-14.9c3.8-6.5,6.6-13.1,8.5-19.9c1.9-6.8,2.8-13.1,2.7-19.1c-0.1-5.9-1.2-11.2-3.2-15.8c-2.1-4.6-5.1-8-9.1-10.1
		c-3.1-1.4-6.7-1.9-10.9-1.4c-4.2,0.5-8.2,2.1-11.8,4.6c-2.7,1.8-5.3,4.3-7.8,7.6c-2.5,3.2-4.9,6.9-7,11.1
		c-2.2,4.1-4.1,8.7-5.7,13.5c-1.6,4.9-2.9,9.8-3.8,14.9c-0.4,1.4-0.6,2.9-0.7,4.5c-0.1,1.5-0.2,3.3-0.4,5.4
		c-0.2,2.1-0.3,4.5-0.3,7.2c0,2.7,0,6,0,10c0,5.2,0,9.8,0.1,13.7c0.1,3.9,0.3,7.4,0.7,10.7c0.1,1.1,0.3,2.1,0.4,3.1
		c-0.3,1.2-0.6,2.5-1,3.9c-2.9,13.2-5.8,24.5-8.6,34.1c-2.9,9.6-5.6,16.9-8.1,22.2l-1.9,3.5l-0.8-3c-0.5-2.2-1-4.1-1.4-5.8
		c-0.4-1.7-0.6-3.7-0.8-6.1c-0.2-2.3-0.3-5.2-0.4-8.5c-0.1-3.3-0.1-7.6-0.1-12.8c0-5.8,0-11.5,0-17.3c0-5.8,0.1-9.7,0.3-11.9
		c0.2-3.6,0.2-5.9,0.1-6.9c-0.1-1-0.5-1.8-1.2-2.6c-2.2-2.5-5.9-3.2-11.1-2.2c-3.6,0.7-6,1.7-7.3,3c-1.3,1.3-2.5,3.9-3.8,7.8
		c-1.4,4.5-3.3,9.6-5.5,15.1c-2.3,5.6-4.5,10.5-6.6,14.6c-1.1,1.8-2.2,3.6-3.4,5.4c-1.2,1.8-2.3,3.4-3.4,4.9c-1.1,1.4-2,2.6-2.8,3.4
		c-0.8,0.8-1.3,1-1.5,0.7c-0.2-0.2-0.5-0.7-0.8-1.6c-0.4-0.9-0.7-1.9-1.1-3c-1.3-3.8-2.2-8.4-2.7-13.9c-0.5-5.5-0.8-11.3-0.7-17.3
		c0.1-6,0.5-12,1.2-18c0.7-5.9,1.7-11.2,3-15.7c1.6-5.2,3.5-9.6,5.7-13.2c2.2-3.6,4.2-5.4,6.2-5.4c2.2,0,4.5,1.2,7,3.6
		c2.5,2.4,4.8,5.5,6.8,9.3c1.3,2.5,2.3,4.1,3.2,4.9c0.9,0.7,1.9,0.6,3-0.3c0.7-0.5,1-1.4,0.8-2.4c-0.2-1.1-0.9-2.9-2.2-5.4
		c-1.4-3.1-3.5-6-6.1-8.8c-2.6-2.8-5.4-4.9-8.2-6.4c-2-0.9-3.6-1.4-4.7-1.6c-1.2-0.2-3-0.3-5.5-0.3c-4.1,0-7.5,0.6-10,1.9
		c-2.5,1.3-5.6,3.8-9.2,7.6c-8.7,9.2-14.1,21.6-16.5,37.3c-0.9,6.1-1.2,12.1-0.9,18c0.3,5.9,1.1,11.3,2.4,16.4
		c1.4,5,3.1,9.5,5.3,13.2c2.2,3.8,4.8,6.6,7.8,8.4c2,1.4,4.5,2.2,7.6,2.3c3.1,0.1,5.9-0.5,8.4-1.8c6.8-3.4,13.7-12.6,20.5-27.6
		l2.7-5.9v9.7c0,12.4,1.3,23,3.8,31.6c2.5,8.6,6,14.3,10.5,17c4,2.5,7.9,2.3,11.9-0.8c4.1-3.1,8.5-11,13-23.8
		c3.5-9.9,6.8-21.9,10-36c0.2,0.8,0.4,1.5,0.6,2.3c2.7,10.6,6.8,19.6,12.2,27c5.4,7.4,11.3,12,17.6,13.8c7.7,2,14.6-0.3,20.5-6.8
		c2.2-2.3,4.1-5,5.7-8.1c1.6-3.1,3.2-6.8,4.9-11.1c0.4-1.1,0.8-2.3,1.2-3.5c0.2,4.9,0.5,8.9,0.9,11.9c2.7,21.3,9.5,34.7,20.3,40.3
		c2.3,1.1,4.9,1.7,7.7,1.9c2.8,0.2,5.3-0.2,7.4-1.1c1.8-0.9,3.8-2.5,5.9-4.9c2.2-2.3,4.1-5,5.7-8.1c1.6-3.2,3.6-8.2,5.8-14.7
		c2.3-6.6,4.3-13.6,6.2-20.9c0.5-2.1,1-4,1.5-6.1c0.3,3.2,0.6,6.4,1,9.3c0.4,3.8,0.9,7.1,1.5,10c0.5,2.7,0.9,4.3,1.2,4.9
		c0.3,0.5,1,1,2.3,1.4c2.5,0.7,5.1,0.9,7.8,0.7c2.7-0.3,4.8-0.9,6.2-1.8c1.4-0.9,2.3-1.9,2.7-3c0.2-0.4,0.3-1.8,0.4-4.5
		c0.1-2.6,0.1-5.4,0.1-8.5c0.4-6.3,1-11.9,1.9-16.9c0.9-5,2.3-10.3,4.3-16.1c1.3-3.8,2.9-8,5-12.6c2.1-4.6,4-8.2,5.8-10.9
		c1.8-2.7,4.1-5.5,6.9-8.5c2.8-3,4.9-4.9,6.4-5.8c3.6-1.8,6.8-0.9,9.6,2.7c2.8,3.6,4.8,9.2,6.1,16.8c0.9,5.8,1,12.3,0.3,19.5
		c-0.7,7.2-2.3,14.6-4.6,22.2c-0.9,2.9-1.6,4.6-2,5.3c-0.5,0.6-1.4,1.1-2.8,1.5c-2.3,0.7-4.8,1.8-7.3,3.1c-2.5,1.4-4.9,2.9-7,4.6
		c-2.2,1.7-4.1,3.5-5.9,5.3c-1.8,1.8-3.1,3.5-3.8,5.1c-1.1,2.2-1.7,4.8-1.8,8c-0.1,3.2,0.3,5.6,1.2,7.4c0.9,1.8,1.8,3.2,2.8,4.1
		c1,0.9,2.3,1.8,3.9,2.7c1.8,0.7,4.1,0.9,6.8,0.7c2.7-0.3,5.2-1,7.6-2.3c5.9-3.1,11.3-7.7,16.1-13.8c4.8-6.1,8.4-13.2,10.9-21.4
		c0.4-1.1,0.9-1.9,1.6-2.6c0.7-0.6,2.3-1.6,4.9-2.8c3.4-1.6,6.7-3.9,9.7-6.8c2.9-2.7,5.2-5.6,7.2-8.6c0,3,0.1,6,0.1,8.8
		c0.2,7,0.5,12.5,1.1,16.5c2.7,21.3,9.5,34.7,20.3,40.3c2.3,1.1,4.9,1.7,7.7,1.9c2.8,0.2,5.3-0.2,7.4-1.1c1.8-0.9,3.8-2.5,5.9-4.9
		c2.2-2.3,4.1-5,5.7-8.1c1.6-3.2,3.6-8.2,5.8-14.7c2.3-6.6,4.3-13.6,6.2-20.9c1.9-7.4,3.5-14.4,4.9-21.1c1.4-6.7,2-11.6,2-14.9
		C737.7,948.8,736.5,947.3,734.2,948.4z M453.1,936.2c-0.2-1.1-0.2-3-0.1-5.7c0.1-2.7,0.2-5.7,0.3-9.1c0.1-3.3,0.3-6.7,0.5-10.1
		c0.3-3.4,0.6-6.4,0.9-8.9c0.7-4.7,1.4-8.6,2.2-11.8c0.7-3.2,1.8-6.9,3.2-11.2c1.8-5.6,4-10.2,6.6-13.8c2.6-3.6,5.3-6,8-7.2
		c2.7-1.2,5.3-1.1,7.7,0.3c2.4,1.4,4.5,4.1,6.1,8.2c1.3,3.1,1.9,7.3,1.9,12.7c0,5.4-0.6,10.4-1.9,14.9c-1.1,4.3-2.6,8.5-4.6,12.6
		c-2,4.1-4.2,7.9-6.6,11.5c-2.4,3.6-5.1,6.9-8,9.7c-2.9,2.9-5.8,5.1-8.6,6.8c-3.4,2-5.5,3-6.1,3.1
		C453.9,938.3,453.4,937.7,453.1,936.2z M580.9,931.1c0.2-3.8,0.5-8.2,0.9-13.4c0.4-5.1,1-10.3,1.6-15.5c0.6-5.2,1.2-9.3,1.8-12.2
		c1.4-5.9,3.2-11.2,5.4-15.8c2.2-4.6,4.5-8,7-10.1c2.5-2,5.2-2.5,8-1.6c2.8,0.9,5.1,3.1,6.9,6.5c0.9,1.8,1.4,3.3,1.6,4.6
		c0.2,1.3,0.3,3.8,0.3,7.6c0,3.6-0.1,6.4-0.4,8.2c-0.3,1.9-0.9,4.1-1.8,6.6c-2.5,7.6-6,14.6-10.5,21.2c-4.5,6.6-9.6,11.9-15.4,16.1
		c-1.4,0.9-2.6,1.7-3.5,2.4c-0.9,0.7-1.4,1.1-1.6,1.1C580.9,936.8,580.8,934.9,580.9,931.1z M598.8,932.2c-2,3.2-4.1,7.4-6.4,12.4
		c-2.3,5-4.3,10.2-5.9,15.4c-0.5,1.6-1,3.4-1.5,5.4c-0.4,2-0.8,3.7-1.2,5.1c-0.5,2.2-0.8,3.4-0.9,3.6c-0.1,0.3-0.3,0-0.7-0.9
		c-0.2-0.7-0.4-2.6-0.5-5.7c-0.2-3.1-0.4-6.4-0.5-10l-0.3-13.5l5.1-3.2c1.4-0.9,3.2-2.3,5.3-4.1c2.1-1.8,4-3.4,5.6-4.9l5.9-5.7
		L598.8,932.2z M621.2,997.5c-0.7,1.2-1.7,2.6-2.8,4.2c-1.2,1.6-2.4,3.3-3.8,5c-1.4,1.7-2.7,3.2-3.9,4.5c-1.4,1.4-2.8,2.7-4.1,3.8
		c-1.3,1.1-2.1,1.6-2.4,1.6c-0.9,0-1.4-0.2-1.4-0.7c0-0.4,0.4-1.9,1.4-4.5c0.7-2.5,2.3-5,4.6-7.3c0.9-0.7,2.1-1.6,3.5-2.7
		c1.4-1.1,2.8-2.1,4.2-3.1c1.4-1,2.6-1.8,3.7-2.3c1.1-0.5,1.7-0.7,1.9-0.5C622.2,995.6,621.9,996.3,621.2,997.5z"/>
	<path d="M680.4,888.1c1.8,1.1,4,1.5,6.5,1.2c2.5-0.3,4.5-1.1,5.9-2.6c3.2-3.1,5-6.7,5.1-10.8c0.2-4.1-1.3-7.7-4.3-10.5
		c-1.1-0.9-2-1.5-2.8-1.8s-2.2-0.5-4.2-0.7c-2-0.2-3.4-0.2-4.3,0c-0.9,0.2-1.9,0.6-3,1.4c-1.6,1.3-3.1,2.7-4.3,4.3
		c-0.7,1.1-1.2,2.1-1.4,3c-0.2,0.9-0.2,2.4,0,4.6C673.8,881.3,676.1,885.2,680.4,888.1z"/>
	<path d="M262.7,831.3c0.1-2.8,0.3-5.5,0.4-8c0.1-2.6,0.3-4.3,0.3-5l7.6-1.9c2.6-0.7,5.2-1.3,7.8-1.8c2.6-0.6,5.2-1.2,7.8-1.8
		c0.5-0.1,1.1-0.3,1.7-0.4c0.6-0.1,1.1-0.3,1.5-0.5c0.4-0.1,0.9-0.2,1.3-0.3c0.4-0.1,0.8-0.2,1.3-0.2c1,2.3,2.2,4.4,3.4,6.5
		c1.2,2,2.4,4.1,3.6,6.3c0.7,1.2,1.2,2.3,1.7,3.4c0.5,1.1,1,2.2,1.7,3.4c0.8,1.4,2,1.9,3.6,1.5c0.2,0,0.3-0.1,0.4-0.2l0.5-0.1
		c0.4-0.3,0.9-0.5,1.5-0.7c0.6-0.1,1.1-0.3,1.7-0.4l3.3-0.8c0.6-0.2,1.3-0.3,1.9-0.6c0.7-0.2,1.3-0.4,2-0.6c0.4-0.1,0.9-0.2,1.2-0.2
		c0.4,0,0.8-0.1,1.2-0.2c1.2-0.3,1.7-1.1,1.4-2.5c-0.1-0.3-0.2-0.5-0.3-0.8c-0.1-0.3-0.2-0.6-0.3-0.8c-0.1-0.4-0.1-0.6,0-0.7
		l0.1-0.3l-0.2-0.2c-0.7-0.6-1.2-1.1-1.4-1.6c-0.2-0.3-0.3-0.7-0.5-1c-0.1-0.3-0.3-0.7-0.6-1.1c-0.4-0.7-0.7-1.2-1.1-1.7
		c-0.4-0.5-0.7-1-1.1-1.7c-0.2-0.1-0.3-0.3-0.4-0.4c0-0.1-0.1-0.3-0.3-0.4l-0.3-1.1c-0.2-0.3-0.4-0.7-0.5-1
		c-0.2-0.3-0.6-0.7-1.1-1.1c-0.3-1.1-0.6-2.1-1-3.2c-0.4-1.1-1-2.1-1.7-3c-1-1.3-1.8-2.8-2.5-4.3c-0.8-1.6-1.6-3.1-2.3-4.7
		s-1.5-3-2.1-4.5l-0.1-0.3l-0.3-0.1c-0.7-0.4-1.1-1-1.3-1.9c0-0.2-0.4-0.8-0.9-1.7c-0.6-1-1.2-2.1-1.9-3.3c-0.7-1.2-1.3-2.3-1.9-3.3
		c-0.6-1-1-1.7-1.1-1.9l-0.4-0.3c-0.3-0.5-0.6-1-0.8-1.5c-0.2-0.5-0.5-1.1-0.9-1.8c-0.2-0.6-0.5-1.2-0.6-1.7
		c-0.2-0.5-0.4-1.1-0.8-1.6l-0.1-0.3l-0.8-0.2l0.4-0.2l-0.3-0.5c-1.1-2.2-2.3-4.3-3.5-6.5c-1.2-2.1-2.4-4.3-3.4-6.5
		c-0.5-1.2-1-2.3-1.6-3.3c-0.6-1-1.2-2-1.9-2.9c-0.9-1.4-1.7-2.8-2.4-4.4c-0.1-0.4-0.3-0.9-0.5-1.5c-0.2-0.6-0.5-1.1-0.8-1.6
		c-0.7-1-1.3-1.8-1.8-2.7l-0.3-0.5l-0.4,0.1c-0.7,0.2-1.4,0.4-2,0.6c-0.6,0.2-1.3,0.3-2,0.4c-2.2,0.3-4.4,0.7-6.6,1.3l-8.9,2.3
		c-1.2,0.3-2.5,0.7-3.7,1.2c-1.2,0.5-2.4,0.9-3.6,1.3c-0.5,0.1-0.8,0.3-0.9,0.4c-0.4,0.1-0.7,0.2-0.9,0.4c-0.4,0.3-0.7,1-0.8,2
		c0,1.1,0,2.3,0,3.5c0,1.2,0,2.5,0,3.8c-0.1,1.6-0.2,3.2-0.3,4.7c-0.1,1.5-0.2,3-0.2,4.6c0,0.3,0,0.7,0.2,1.4c0.1,0.4,0,0.7-0.2,1
		c-0.2,0.8-0.2,1.6,0.1,2.5c0,0.2,0,0.4,0,0.6c0,0.2,0,0.4-0.1,0.6c0,0.2,0,0.5-0.1,0.9c-0.1,0.7-0.2,1.5-0.2,2.3s0,1.8-0.1,2.7
		c0.1,1.9,0,3.6-0.2,5.3c0,1,0,1.9,0.1,2.8c0.1,0.9,0.1,1.9,0,3c-0.2,2.7-0.3,5.4-0.3,8c0,2.7-0.1,5.4-0.1,8.1l-0.5,6.4
		c0,0.8,0,1.5,0,2.2c0,0.7,0,1.4,0,2.2c-0.1,1.9-0.2,3.9-0.2,5.9c-0.1,2-0.1,4,0,6.1c0,0.5,0,0.8-0.1,1.1c-0.1,0.3-0.1,0.7-0.2,1.2
		c0,0.5,0,0.9,0,1.3c0,0.4-0.1,0.8-0.2,1.3c0,1.1,0,2.3,0,3.5c0,1.2,0,2.5,0,3.7c0,0.1,0,0.2,0,0.4c0,0.2,0,0.4,0.1,0.7
		c0,0.2,0.1,0.3,0,0.3c0,0.1,0,0.2,0,0.3l0,0.1l0,0.1c-0.2,0-0.3,0.2-0.5,0.4c-0.2,0.5-0.4,0.8-0.6,0.9l-0.3,0.5l0.5,0.4
		c0.1,0.2,0.4,0.4,0.9,0.6c0.1,0.1,0.2,0.1,0.3,0.2c0.1,0.1,0.3,0.2,0.5,0.3c0.6,0.4,1.3,0.5,2.2,0.3c1.2-0.3,2.4-0.7,3.6-1
		c1.1-0.4,2.3-0.7,3.4-1c0.7-0.2,1.4-0.3,2.1-0.5c0.7-0.1,1.4-0.3,2.1-0.5c0.7-0.2,1.4-0.4,2.1-0.7c0.7-0.3,1.3-0.7,2-1.2l0.4-0.2
		l-0.1-0.4c0-0.2-0.1-1.4,0-3.7C262.5,836.6,262.6,834.1,262.7,831.3z M263.9,803c0-0.1,0-0.2,0-0.3c0-0.1,0-0.2,0-0.3l-0.1-0.4
		l-0.2-0.8c-0.1-0.4-0.1-0.7-0.1-1c0-0.2,0.1-0.4,0.2-0.6c0.1-0.2,0.2-0.4,0.2-0.6c0.2-0.7,0.3-1.5,0.2-2.2
		c-0.1-0.8-0.1-1.6-0.1-2.4c0.1-0.5,0.1-0.9,0-1.3c0-0.4-0.1-0.7,0-1c0-0.4,0-0.8,0-1.1c0-0.4,0.1-0.7,0.2-1c0-0.6,0-1,0-1.3
		c0-0.2,0-0.5-0.1-0.8c0-0.3,0.1-0.6,0.1-0.8c0.1-0.3,0.2-0.6,0.2-1c0.2-0.3,0.3-0.6,0.2-0.9c-0.2-0.7-0.3-1.4-0.4-2
		c-0.1-0.6-0.1-1.2-0.1-1.9c0-0.8,0-1.5,0.1-2.1c0.1-0.7,0.1-1.4,0.2-2.2c0.1-1.1,0.1-2.1,0-3.2c-0.1-1.1-0.1-2.1,0-3.2
		c0-0.8,0.1-1.8,0.2-3.2c0.1-1.4,0.1-2.5-0.1-3.3l-0.1-0.5l0.3-0.5l-0.1-0.3c0.2-0.5,0.2-1,0.2-1.6c0-0.1,0-0.2,0.1-0.3
		c3.5,6.7,7.1,13.2,10.8,19.6c3.7,6.4,7.2,13,10.5,19.8l-0.7,0.2c-0.4,0.1-0.8,0.2-1.1,0.2c-0.3,0-0.6,0.1-0.9,0.2
		c-0.3,0.2-0.7,0.3-1,0.4c-0.3,0.1-0.6,0.3-0.9,0.5c-0.5-0.1-1-0.1-1.5,0c-0.5,0.1-1.1,0.2-1.7,0.2c-0.7,0.2-1.5,0.4-2.5,0.6
		c-0.9,0.2-1.9,0.5-2.8,0.9c-1,0.2-1.9,0.5-2.9,0.8c-1,0.3-1.9,0.6-2.9,0.8c-0.7,0.2-1.4,0.3-2,0.4c-0.6,0.1-1.3,0.2-1.9,0.3
		c0.1-0.3,0.2-0.6,0.1-0.8c0-0.2,0-0.5,0.1-0.8C263.7,803.8,263.7,803.4,263.9,803z"/>
	<path d="M334.9,814.7c0,0.3,0,0.7,0.1,1.2l0.9,4.8c0,0.2,0.1,0.5,0.1,1c0,0.5,0.1,1,0.2,1.4c0.1,0.3,0.2,0.7,0.6,1.4
		c0.5,0.5,1,0.6,1.6,0.5c0.3-0.1,0.5-0.1,0.8-0.3l0.1,0c0.5,0.2,1,0.3,1.4,0.2c0.4,0,0.8-0.1,1.2-0.2c2.2-0.4,4.4-0.9,6.6-1.4
		c2.1-0.5,4.3-1.2,6.6-2l0.4-0.2l-0.1-0.5c-0.2-0.9-0.3-1.8-0.4-2.6c-0.1-0.9-0.3-1.7-0.4-2.5c-0.2-1-0.4-1.9-0.7-2.8
		c-0.3-0.9-0.5-1.7-0.7-2.5l0.1-0.2c0-0.2,0-0.3,0.1-0.3l-0.1-0.5c-0.2-1.1-0.4-2.1-0.5-3.2c-0.2-1-0.3-2.1-0.5-3.2
		c-0.1-0.6-0.3-1.2-0.4-1.7c-0.1-0.5-0.3-1.1-0.4-1.6l-1.4-7.3l-0.7-3.6l0-0.1l-0.6-0.9l0.3-0.6l-0.1-0.3c-0.2-1-0.4-2-0.7-3
		c-0.2-1-0.5-2.1-0.7-3.2l-0.1-0.4l-0.1-0.3c-0.1-0.1-0.2-0.2-0.2-0.2l0-0.1c0-0.2,0-0.3,0-0.4c0-0.1,0-0.2,0-0.4c0-0.1,0-0.2,0-0.2
		c0-0.1,0-0.2,0-0.3l-0.1-0.5c-0.2-1-0.4-2-0.7-3c-0.3-1-0.5-2-0.7-3c-0.1-0.4-0.1-0.9-0.1-1.4c0-0.5-0.1-1-0.2-1.6
		c-0.1-0.4-0.3-1.1-0.7-2c0.1-0.4,0.2-0.6,0.1-0.7c0.1-0.2,0.1-0.4,0.2-0.6c0.1-0.2,0.1-0.4,0-0.6c0-0.2-0.1-0.3-0.2-0.4
		c-0.1-0.1-0.2-0.3-0.4-0.4l0-0.1c-0.4-2-0.8-3.9-1.3-5.9c-0.5-2-0.9-3.9-1.3-5.9c-0.1-0.7-0.3-1.4-0.3-2.2
		c-0.1-0.7-0.2-1.4-0.3-2.2c-0.1-0.4-0.2-0.8-0.2-1.1c-0.1-0.3-0.2-0.7-0.4-1.1c-0.1-0.3-0.3-0.5-0.4-0.8c-0.1-0.3-0.2-0.5-0.3-0.8
		l0.4-0.6l-0.1-0.3l-0.1-0.4l0-0.1c-0.1-0.1-0.2-0.2-0.2-0.2l0-0.1c-0.3-1.4-0.5-2.9-0.8-4.3c-0.2-1.4-0.5-2.8-0.8-4.3
		c0-0.2-0.1-0.4-0.2-0.7c-0.1-0.3-0.2-0.5-0.2-0.7l0.1-0.3l0-0.1c0.1-0.1,0.1-0.2,0.1-0.4c0-0.2,0-0.3,0-0.3c0-0.1,0-0.2,0-0.3
		c0-0.2-0.1-0.3-0.3-0.5c-0.2-0.2-0.3-0.3-0.4-0.3c-0.4-0.2-0.8-0.3-1.3-0.2c-0.6-0.2-1.2-0.2-1.8-0.1c-1.4,0.3-2.9,0.6-4.3,1
		c-1.4,0.4-2.8,0.7-4.1,0.9c-0.5,0.1-1.1,0.2-1.6,0.2c-0.5,0.1-1.1,0.1-1.6,0.2l-2.7,0.5l-0.1,0.2c-0.7,0.8-1,1.5-0.8,2.3l0.1,0.7
		l0.2,0.9c0.2,1.1,0.5,2.1,0.8,3.2c0.3,1.1,0.6,2.1,0.8,3.2c0.1,0.7,0.2,1.4,0.2,2.1c0,0.7,0,1.3,0.1,1.8c0.1,0.3,0.2,0.5,0.4,0.6
		l0.1,0.4c0,0.2,0.1,0.3,0.2,0.4l0.1,0.4l0.1,0.3c-0.1,0.2-0.1,0.4-0.2,0.7c0,0.2-0.1,0.5,0,0.6c0.1,0.6,0.3,1.2,0.6,1.8
		c0.3,0.6,0.5,1.2,0.6,1.8c0.1,0.3,0.1,0.5,0,0.8c0,0.3,0,0.5,0,0.7c0.1,0.4,0.2,0.7,0.3,1c0.1,0.3,0.2,0.5,0.3,0.7
		c0.1,0.6,0.2,1.2,0.2,1.8c0,0.6,0.1,1.2,0.2,1.8c0.8,4.4,1.7,8.8,2.6,13.1c0.9,4.3,1.7,8.7,2.6,13.2c0,0.3,0.1,0.5,0.3,0.6l0.3,0.2
		l-0.3,0.1l0.1,0.7c0.1,0.4,0.1,0.7,0.2,1.2c0,0.4,0.1,0.8,0.2,1.3c0.6,3,1.1,5.9,1.6,8.8c0.5,2.9,1.1,5.9,1.6,8.8
		c0.1,0.5,0.3,0.8,0.6,1l0.1,0l-0.2,0.3l-0.2,0.3l0.4,0.9c0,0.1,0,0.2,0,0.3c0,0.1,0,0.2,0,0.4c0,0.2,0.2,0.4,0.4,0.8l-0.1,0
		l-0.2,0.5l0.2,0.4l0.4,0.5l0,0.1l0.1,0.3c0,0.1,0,0.2,0,0.2C334.9,814.6,334.9,814.7,334.9,814.7z"/>
	<path d="M395,769.1l0.6,0.2c0.2,0.1,0.4,0.1,0.6,0.1c0.2,0,0.4,0.1,0.5,0.1c1.5,0.3,2.9,0.7,4.3,1.2c1.4,0.6,2.5,1.4,3.5,2.6
		c3,3.5,5.7,7.1,8.2,10.9c2.5,3.8,4.8,7.7,7,11.6c0.7,1.2,1.4,2.4,2,3.5c0.6,1.2,1.2,2.3,1.9,3.6c0.3,0.5,0.6,1,0.9,1.6
		c0.3,0.6,0.5,1.1,0.8,1.6c0.3,0.6,0.6,1.2,0.9,1.7c0.3,0.6,0.7,1.1,0.9,1.6c0.7,0.8,1.5,1.2,2.5,1c2.4-0.3,4.9-0.8,7.4-1.3
		c2.5-0.5,4.9-0.9,7.2-1.3c0.2,0,0.5,0,1-0.1c0.5,0,0.9-0.1,1.4-0.1c0.4,0,0.8-0.2,1.3-0.5c0.5-0.4,0.7-0.9,0.7-1.3l-0.1-0.4
		l-0.2-0.3c-0.1-0.2-0.2-0.3-0.2-0.4c0-0.1-0.1-0.2-0.2-0.4c-0.2-0.2-0.4-0.5-0.7-0.9c-0.2-0.3-0.5-0.6-0.7-0.9
		c-0.5-0.7-0.9-1.4-1.3-2c-0.4-0.7-0.7-1.2-0.8-1.4c-0.3-0.5-0.6-1-0.9-1.5c-0.2-0.5-0.5-1-0.8-1.5c-0.4-1-1-1.9-1.9-2.8l0-0.3
		c-0.2-0.4-0.5-0.9-0.7-1.4c-0.3-0.5-0.5-1-0.8-1.6c-0.4-1.1-1.1-2.1-1.9-2.8c-0.3-0.2-0.6-0.5-0.8-0.9c-0.2-0.4-0.5-0.8-0.7-1.2
		c-0.2-0.4-0.5-0.8-0.8-1.2c-0.3-0.4-0.5-0.8-0.8-1.2c-1.8-2.7-3.6-5.4-5.2-8.2c-1.6-2.7-3.4-5.4-5.4-8c-0.6-0.9-1.2-1.7-1.9-2.2
		c-0.7-0.6-1.4-1.1-2.1-1.7c-0.4-0.1-0.8-0.3-1.1-0.5c-0.4-0.2-0.7-0.5-1.1-0.7c-0.3-0.1-0.6-0.3-0.8-0.4c-0.2-0.1-0.5-0.2-0.8-0.4
		c1.8-1.3,3.5-2.5,5.3-3.7c1.8-1.2,3.4-2.5,5-3.9c1.8-1.5,3.5-3.2,4.9-4.9c1.5-1.7,2.7-3.7,3.6-5.8c0.1-0.4,0.2-0.7,0.3-1
		s0.2-0.6,0.4-0.9c0.1-0.3,0.2-0.6,0.3-0.9c0.1-0.3,0.2-0.5,0.3-0.7c0.4-0.5,0.7-1.2,0.9-1.9c0.2-0.8,0.3-1.5,0.2-2.2
		c-0.2-1.3-0.4-2.4-0.7-3.4c-0.3-1-0.9-2.1-1.8-3.1c-0.1-0.2-0.2-0.3-0.2-0.4c-0.7-1.7-1.8-3.2-3.2-4.3c-1.5-1.1-3.1-2.1-4.8-2.8
		c-1.8-0.7-3.6-1.3-5.5-1.7c-1.9-0.4-3.6-0.7-5.1-1c-0.8-0.1-1.8-0.1-3.1-0.1c-1.3,0-2.6,0-4,0.1c-1.4,0-2.7,0.1-4,0.3
		c-1.3,0.1-2.3,0.2-3.1,0.3c-2.2,0.3-4.4,0.6-6.7,0.8c-2.3,0.3-4.5,0.6-6.6,1.1c-0.7,0.2-1.4,0.3-1.9,0.5c-0.6,0.1-1.2,0.2-1.8,0.3
		c-0.9,0.1-1.8,0.2-2.7,0.2c-0.9,0-1.8,0.1-2.7,0.2c-1.5,0.2-3,0.5-4.4,0.7c-1.4,0.3-2.9,0.5-4.4,0.7c-0.8,0.1-1.6,0.2-2.4,0.3
		c-0.8,0.1-1.6,0.1-2.4,0.1l-0.1,0l-0.3,0.2c-0.7,0.7-1,1.6-0.9,2.7c0.1,0.5,0.1,0.9,0.1,1.3c0,0.4,0,0.8,0.1,1.3
		c0.1,0.7,0.3,1.4,0.5,2.1c0.2,0.7,0.4,1.4,0.5,2.1c0.1,0.7,0.1,1.5,0.2,2.2c0,0.7,0.1,1.5,0.2,2.2l0.1,0.7c0,0.1,0,0.2,0.1,0.3
		c0.1,0.1,0.1,0.2,0.1,0.3c0.1,0.3,0.2,0.6,0.3,0.9c-0.2,0.4-0.3,0.8-0.2,1.3c0.1,0.5,0.2,1.1,0.4,1.7c0.2,0.6,0.4,1.1,0.4,1.7
		c0,0.3,0,0.5,0,0.7l0.1,0.5c0,0.1,0,0.2,0,0.3c0,0.1,0,0.2,0,0.3c0.1,0.5,0.2,0.9,0.3,1.3c0.2,0.4,0.3,0.9,0.3,1.3
		c0.1,0.6,0.1,1.3,0.2,1.9c0,0.6,0.1,1.3,0.2,2c0.6,4.3,1.2,8.5,1.8,12.6c0.6,4.2,1.2,8.4,1.8,12.8l0,0.1l0,0.3
		c0.1,0.1,0.2,0.2,0.2,0.2c0.1,0.1,0.1,0.2,0.2,0.2l-0.4,0.1l0.1,0.7l2.7,20.3c0.1,0.6,0.2,1,0.4,1.1l0,0.1l-0.6,0.8l0.9,0.4
		c0,0.1,0,0.1-0.1,0.1c0,0-0.1,0.1,0,0.1c-0.2,0.2-0.2,0.4-0.2,0.7c0,0.4,0.1,0.6,0.2,0.7l-0.1,0.3l0,0.3l0.1,0.4l0,0.3l0,0.3l0,0.1
		l0,0.3l0,0.3l0,0.3l0.1,0.5l0.3,1.9l0.1,0.4l0.1,0.4c0.1,0,0.1,0,0.2,0.1l0,0.1l0,0.3l-0.1,0.3l0.1,0.4l0.1,0.4l0.6,4.5
		c0,0.4,0.2,0.5,0.3,0.5c0,0.1,0.1,0.2,0.3,0.4l0.3,0.1l0.3,0.5l1.3-0.6c0.4,0.1,0.7,0.2,0.9,0.2c0.6,0.1,1,0.1,1.3,0.1
		c2.4-0.3,4.6-0.7,6.8-1.2c2.2-0.5,4.5-0.9,6.8-1.3l0.4-0.1l0.4-1.2l0-0.1c-0.2-0.4-0.3-0.9-0.3-1.3c-0.1-0.5-0.1-0.9-0.2-1.4
		c0-0.4-0.1-0.7-0.1-1c0-0.3,0-0.6-0.1-1c-0.1-0.7-0.3-1.4-0.5-1.9c-0.2-0.6-0.4-1.2-0.5-1.9c0-0.2,0-0.3,0-0.5c0-0.1,0-0.3,0-0.5
		c0-0.3-0.1-0.5-0.2-0.7c0.1-0.4,0.2-0.8,0.1-1.1l-0.7-5.3l0-0.3l0.1-0.3l0-0.3l-0.1-0.4l-0.1-0.5c0-0.1,0-0.2-0.1-0.2
		c-0.1,0-0.1-0.1-0.1-0.2c-0.1-0.1-0.2-0.3-0.2-0.5c-0.1-0.5-0.1-0.9,0-1.1c-0.1-0.6-0.2-1.1-0.3-1.3c0-0.5,0-0.9,0-1.2
		c0-0.3,0-0.7-0.1-1c-0.2-1.6-0.5-3.3-0.7-4.9c-0.3-1.6-0.5-3.3-0.7-5c-0.1-0.6-0.2-1.2-0.4-1.7c-0.2-0.5-0.3-1-0.4-1.7
		c-0.1-0.5-0.1-1.1-0.1-1.6c0-0.5,0-1-0.1-1.4c-0.1-0.9-0.3-1.6-0.4-2c0-0.3,0-0.5,0-0.8c0-0.2,0-0.4,0-0.6c0.9-0.2,1.7-0.4,2.5-0.6
		C393.3,769.4,394.1,769.2,395,769.1z M389.4,755c-0.4,0.1-0.9,0.2-1.5,0.4c0-1.1-0.1-2.3-0.5-3.5c-0.2-0.6-0.4-1.2-0.5-1.9
		c-0.2-0.6-0.3-1.2-0.4-1.6c0.1-0.4,0.2-0.6,0.2-0.7l-0.4-2.7l-0.1-0.5c-0.1-0.2-0.2-0.3-0.2-0.5c-0.1-0.3-0.2-0.6-0.3-0.9
		c0-0.3,0-0.5,0.1-0.6l0.1-0.2l0-0.3c0-0.5-0.1-1.3-0.4-2.4c-0.3-1.1-0.6-2-0.9-2.7c0.9-0.3,1.7-0.5,2.4-0.6c0.4-0.1,1-0.3,1.5-0.3
		c0.6-0.1,1.1-0.1,1.6-0.2l9.6-1.3c0.8-0.1,1.6-0.2,2.4-0.2c0.8,0,1.6-0.1,2.4-0.2c1-0.1,1.7-0.3,2.2-0.4c0.5-0.2,1.1-0.5,1.7-0.9
		l0,0.1l0.2,0.5l0.5-0.1c0.3,0,0.6,0,1,0c0.4,0,0.8,0.1,1.3,0.2l1.3,0.2c0.2,0,0.4,0,0.7,0c0.3,0,0.5,0,0.7,0
		c0.1,0.2,0.2,0.3,0.3,0.3c0.1,0,0.2,0.1,0.3,0.2c0.2,0.2,0.4,0.3,0.5,0.3c0.1,0.1,0.3,0.2,0.5,0.3c0.4,0.3,0.7,0.6,0.8,0.7
		c0.2,0.2,0.3,0.3,0.3,0.4c0,0.3-0.1,0.9-0.4,1.9c-0.3,1-0.6,1.7-0.8,2.1c-0.7,1.1-1.5,2.2-2.3,3.3c-0.9,1.1-1.8,2.1-2.9,3
		c-1.2,1-2.7,2-4.3,2.9c-1.6,0.9-3.3,1.8-5.1,2.6c-1.8,0.8-3.6,1.5-5.4,2c-1.8,0.6-3.5,1-5,1.2C390.3,754.8,389.8,754.9,389.4,755z"
		/>
	<path d="M497.1,726.2l5.3-0.3c0.1,0,0.2,0,0.2,0.1c0,0,0.1,0.1,0.2,0.1c0.4,0.2,0.7,0.2,1.1,0.2c0.2,0,0.4-0.1,0.5-0.2
		c0.2,0,0.3-0.1,0.4-0.2l0.3,0l0.1-0.1c1.6-0.1,3.1-0.2,4.5-0.3c1.5-0.1,3-0.2,4.5-0.3c0.5,0,1.1,0,1.6,0c0.5,0.1,1,0.1,1.6,0
		c0.8-0.1,1.6-0.1,2.4-0.3c0.8-0.1,1.5-0.3,2.2-0.4l0.4,0l0.1-0.4c0.2-0.2,0.2-0.4,0.2-0.7c0-0.5-0.2-0.9-0.5-0.9
		c0.2-0.6,0.3-1.2,0.3-1.8c0-0.7-0.1-1.5-0.3-2.3c-0.1-0.8-0.2-1.5-0.3-2.3l-0.1-1l0-0.3l0-0.4c0-0.1,0-0.1-0.1-0.1
		c0,0-0.1,0-0.1-0.1l-0.2-0.3l-0.1,0l0.1-0.1l-0.3-4.8l-0.6-0.1c-0.4,0-0.7,0-1,0c-0.3,0-0.6,0-0.8,0c-3.7,0.2-7.4,0.5-11,0.7
		c-3.6,0.3-7.2,0.5-10.7,0.7c-0.7,0-1.5,0.1-2.3,0.1c-0.8,0-1.5,0-2.3,0.1c-5.8,0.3-11.4,0.7-16.9,1.2c-5.5,0.4-11.2,0.8-16.9,1.2
		c-0.6,0-1.3,0.1-1.9,0c-0.6,0-1.3,0-2.1,0.1c-0.5,0-1.1,0.1-1.6,0.2c-0.5,0.1-1.1,0.2-1.6,0.2c-0.4,0-0.7,0-1,0
		c-0.3,0-0.6-0.1-1-0.1l-0.8-0.1l0,0.8c0.1,1.2,0.1,2.4,0.2,3.6c0,1.2,0.1,2.5,0.2,3.8c0.1,1.3,0.2,2.5,0.3,3.8
		c0.1,1.2,0.2,2.4,0.3,3.6l0,0.7l0.7,0c1-0.2,2-0.2,3-0.3c1,0,2-0.1,3-0.1c0.7,0,1.4-0.1,2.1-0.3c0.7-0.1,1.4-0.2,2.1-0.3
		c2.4-0.1,4.7-0.3,7.1-0.4c2.4-0.1,4.7-0.2,7.1-0.4l0.4,0l0.1-0.3c0.1-0.1,0.1-0.2,0.1-0.2c0,0,0-0.1,0.1-0.2
		c0.2,0.2,0.4,0.3,0.6,0.3c0.2,0,0.4,0.1,0.6,0.2l0.4,0c0,0.1,0.1,0.1,0.3,0.1l0.4,0l0.2,3.7c0,0.2,0,0.4,0.1,0.7
		c0.1,0.3,0.1,0.5,0.1,0.7l0,0.3c0,0.2,0,0.3-0.1,0.4l0,0.4c0,0.1,0,0.2-0.1,0.2c0,0.1-0.1,0.2,0,0.3c0,0.5,0.1,0.9,0.2,1.3
		c0.1,0.4,0.2,0.8,0.2,1.3c0.1,1.3,0.1,2.5,0.2,3.7c0,1.2,0.1,2.4,0.2,3.7c0.2,3.7,0.5,7.4,0.7,11c0.3,3.6,0.5,7.3,0.7,11.2
		c0,0.2,0.1,0.4,0.2,0.5c0.1,0.2,0.2,0.4,0.3,0.5l-0.4,0l0,0.7c0.2,3.5,0.5,7,1,10.5c0.4,3.5,0.8,7.1,1,10.7l0.1,0.8l0,0.7l0,0.1
		l-0.3,0.3c-0.1,0.1-0.1,0.2-0.1,0.3c-0.1,0-0.1,0.1-0.1,0.4c0,0.4,0.1,0.6,0.2,0.7l-0.3,0.3l0,0.4c0,0.1,0,0.2,0.1,0.2
		c0,0,0.1,0.2,0.1,0.3l0,0.4l0,0.1l0,0.3c-0.1,0.1-0.1,0.2-0.1,0.3l0,0.4l0.5,8.8c0,0.7,0.5,1.3,1.3,1.7l0.3,0l0.3-0.2l0.5,0
		c0.1-0.1,0.2-0.1,0.3-0.2c0.5,0.2,0.8,0.4,1.1,0.3c0.3,0.1,0.7,0.1,1.2,0.1c1.6-0.1,3.3-0.2,4.9-0.4c1.6-0.1,3.3-0.3,4.9-0.5
		c0.2,0,0.5-0.1,1-0.1c0.5-0.1,0.9-0.2,1.4-0.3c0.5-0.2,0.9-0.3,1.2-0.3l0.5-0.3c0.4-0.1,0.5-0.4,0.5-0.7c0-0.3-0.1-0.5-0.3-0.7
		l-0.1-0.1l0.1-0.1l0-0.3c0-0.7-0.1-1.4-0.1-2.1c0-0.7,0-1.4-0.1-2.1l-0.2-2.6c0-0.3-0.1-0.5-0.1-0.8c-0.1-0.3-0.1-0.5-0.1-0.7
		c-0.1-0.1-0.1-0.2-0.2-0.3c0-0.1-0.1-0.2-0.2-0.3l0-0.1c0.2-1,0.3-2.1,0.2-3.2c0-0.5-0.1-1.1-0.2-1.7c-0.1-0.6-0.1-1.1-0.2-1.6
		c0-0.2,0-0.4,0-0.7c0-0.3,0-0.5,0-0.7l0-0.5c-0.1-0.1-0.2-0.3-0.2-0.5c-0.2-0.4-0.3-0.6-0.3-0.7l-0.2-3.4c0-0.6,0-1.2,0-1.8
		c0.1-0.6,0.1-1.1,0-1.8c-0.1-2.4-0.3-4.7-0.5-7c-0.2-2.3-0.3-4.6-0.5-6.8l0-0.1l-0.3-0.5c0-0.2,0-0.4,0.1-0.6
		c0.1-0.2,0.1-0.4,0.1-0.7c0.1-0.1,0.1-0.3,0.1-0.7c-0.1-1.1-0.2-2.2-0.4-3.2c-0.2-1-0.3-2.1-0.4-3.2c0-0.5,0-0.9,0-1.4
		c0.1-0.5,0.1-1,0-1.6c-0.1-0.9-0.2-1.6-0.4-2c0.3-0.8,0.5-1.4,0.4-1.8c0-0.5-0.1-0.7-0.2-0.8l0-0.3c-0.1-1.5-0.2-2.9-0.3-4.4
		c-0.1-1.5-0.3-3-0.3-4.6c0-0.8-0.2-1.6-0.4-2.4c-0.2-0.8-0.4-1.5-0.4-2.2c0-0.1,0-0.2,0.1-0.3l0-0.3c0.1-0.1,0.1-0.3,0.1-0.6
		c0.1-0.1,0.1-0.3,0.1-0.6c0-0.5-0.1-1.1-0.2-1.6c-0.1-0.5-0.2-1-0.2-1.6c0-0.2,0-0.3,0-0.5C497.1,726.6,497.1,726.4,497.1,726.2z"
		/>
	<path d="M559.1,745.9c0.1-0.2,0.1-0.4,0.1-0.5c0-0.2,0-0.3-0.1-0.5c-0.1-0.1-0.2-0.3-0.3-0.5v-0.1c0-2-0.1-4-0.2-6
		c-0.1-2-0.1-4-0.2-6c0-0.7,0-1.5,0.1-2.2c0-0.7,0.1-1.5,0.1-2.2c0-0.5,0-0.8,0-1.2c0-0.3,0-0.7-0.1-1.2c-0.1-0.3-0.2-0.5-0.3-0.8
		c-0.1-0.3-0.1-0.5-0.1-0.8l0.5-0.6l0-0.3l0-0.4v-0.1c-0.1-0.1-0.1-0.2-0.1-0.3v-0.1c0-1.5,0-2.9,0.1-4.3c0-1.4,0.1-2.9,0.1-4.3
		c0-0.2,0-0.4-0.1-0.7c0-0.3-0.1-0.5-0.1-0.7l0.1-0.3v-0.1c0.1-0.1,0.1-0.2,0.1-0.4c0-0.2,0-0.3,0.1-0.3c0,0,0.1-0.2,0.1-0.3
		c0-0.2-0.1-0.4-0.2-0.5c-0.1-0.2-0.3-0.3-0.3-0.4c-0.4-0.3-0.8-0.4-1.2-0.4c-0.5-0.3-1.1-0.4-1.8-0.4c-1.5,0-2.9,0.1-4.4,0.2
		c-1.5,0.1-2.9,0.1-4.3,0.2c-0.5,0-1.1,0-1.6-0.1c-0.5,0-1.1-0.1-1.6-0.1l-2.7,0l-0.1,0.1c-0.8,0.6-1.2,1.3-1.2,2.1l0,0.7l0,1
		c0,1.1,0.1,2.2,0.2,3.3c0.1,1.1,0.2,2.2,0.2,3.3c0,0.7-0.1,1.4-0.2,2.1c-0.1,0.6-0.2,1.2-0.2,1.8c0,0.3,0.1,0.5,0.3,0.7v0.4
		c0,0.2,0,0.3,0.1,0.4l0,0.4l0,0.3c-0.1,0.2-0.2,0.4-0.3,0.6c-0.1,0.2-0.1,0.4-0.1,0.6c0,0.6,0.1,1.3,0.3,1.9
		c0.2,0.6,0.3,1.3,0.3,1.9c0,0.3,0,0.5-0.1,0.8c-0.1,0.3-0.1,0.5-0.1,0.7c0,0.4,0,0.7,0.1,1c0.1,0.3,0.1,0.6,0.1,0.8
		c0,0.6,0,1.2-0.1,1.8c-0.1,0.6-0.1,1.1-0.1,1.8c0,4.5,0.1,8.9,0.1,13.3c0.1,4.4,0.1,8.9,0.1,13.4c0,0.3,0,0.5,0.1,0.7l0.3,0.3
		l-0.3,0l0,0.7c0,0.4,0,0.8-0.1,1.2c0,0.4-0.1,0.8-0.1,1.3c0,3,0,6,0,9c0,3,0,6,0,9c0,0.5,0.1,0.8,0.4,1.1h0.1l-0.3,0.3l-0.3,0.3
		l0.3,1c0,0.1,0,0.2-0.1,0.3c0,0.1-0.1,0.2-0.1,0.4c0,0.2,0.1,0.5,0.3,0.8l-0.1,0l-0.3,0.4l0.1,0.4l0.3,0.5l0,0.1l0,0.3
		c0,0.1,0,0.2-0.1,0.2c0,0-0.1,0.1-0.1,0.2c-0.1,0.3-0.1,0.7-0.1,1.2l0,4.9c0,0.2,0,0.5-0.1,1c0,0.5-0.1,1-0.1,1.4
		c0,0.3,0.1,0.8,0.3,1.5c0.4,0.5,0.9,0.8,1.5,0.8c0.3,0,0.5,0,0.8-0.1l0.1,0c0.5,0.3,0.9,0.4,1.3,0.5c0.4,0,0.8,0.1,1.2,0.1
		c2.3,0,4.5-0.1,6.7-0.2c2.2-0.1,4.5-0.3,6.9-0.7l0.4-0.1v-0.5c0-0.9,0-1.8,0.1-2.7c0-0.9,0.1-1.7,0.1-2.5c0-1-0.1-2-0.2-2.9
		c-0.1-0.9-0.2-1.8-0.2-2.6l0.1-0.1c0-0.2,0-0.3,0.1-0.3l0-0.5c0-1.1,0-2.2,0.1-3.2c0-1,0.1-2.1,0.1-3.2c0-0.6,0-1.2-0.1-1.8
		c-0.1-0.5-0.1-1.1-0.1-1.6l0-7.4l0-3.7v-0.1l-0.4-1l0.4-0.6v-0.3c0-1,0-2-0.1-3.1c-0.1-1-0.1-2.1-0.1-3.2l0-0.4v-0.3
		c-0.1-0.1-0.1-0.2-0.1-0.3l0-0.1c0-0.2,0-0.3,0.1-0.4c0-0.1,0.1-0.2,0.1-0.4c0-0.1,0-0.2,0.1-0.2c0,0,0.1-0.2,0.1-0.3v-0.5
		c0-1-0.1-2-0.1-3.1c-0.1-1-0.1-2.1-0.1-3.1c0-0.5,0-0.9,0.1-1.4c0.1-0.5,0.1-1,0.1-1.6c0-0.5-0.1-1.1-0.3-2.1
		c0.2-0.4,0.3-0.6,0.3-0.7C558.9,746.3,559,746.1,559.1,745.9z"/>
	<path d="M601,745.8c0-0.4,0.1-0.7,0.2-0.9c0.1-0.2,0.2-0.5,0.3-0.9c0.1-0.4,0.2-0.8,0.3-1.1c0.1-0.3,0.1-0.7,0.2-1.2
		c0-0.4,0.1-0.7,0.1-1s0.2-0.6,0.3-0.9c0.2-0.9,0.4-1.6,0.4-2c0-0.2,0.1-0.4,0.2-0.6c0.1-0.2,0.2-0.5,0.3-0.7
		c0.2-0.2,0.4-0.4,0.5-0.7c0.2-0.3,0.3-0.5,0.5-0.8c1.5-2.6,3-4.8,4.7-6.3c1.7-1.6,3.9-3,6.8-4.3c0.2-0.1,0.5-0.2,1.1-0.4
		c0.5-0.2,1.1-0.4,1.8-0.5c0.6-0.2,1.1-0.4,1.7-0.6c0.1-0.1,0.2-0.1,0.3-0.1c0.1,0,0.2,0,0.3-0.1c0.1-0.1,0.2-0.1,0.3-0.1l0.1-0.1
		l0.4-0.4c0.4,0.3,0.9,0.5,1.3,0.5c0.2,0,0.4,0,0.6,0c0.2,0,0.4,0,0.6,0c0.2,0,0.4,0,0.6,0c0.2,0,0.4,0,0.6,0
		c0.7-0.1,1.3-0.2,1.8-0.1c0.5,0,0.8,0.1,1.2,0.2c0.3,0.1,0.7,0.1,1.2,0.2l1.9,0.1c1.5,0.1,3.1,0.5,4.7,1c0.8,0.2,1.6,0.5,2.4,0.7
		c0.8,0.2,1.6,0.5,2.4,0.7c1.3,0.3,2.6,0.7,4,1.4c1.4,0.6,2.6,1.5,3.5,2.4c0.1,0.1,0.1,0.2,0.1,0.3c0,0.1,0.1,0.2,0.3,0.3
		c0.2,0.4,0.3,0.6,0.4,0.7c0.4,0.7,1,1,1.7,1.1l0.5,0c0.1-0.1,0.2-0.1,0.2-0.1c0,0,0.1,0,0.2-0.1c0.2-0.1,0.4-0.2,0.6-0.2
		c0.2-0.1,0.5-0.1,0.8-0.2c0.5-0.2,1-0.5,1.6-0.8c0.6-0.3,1.2-0.6,1.8-1c1.3-0.6,2.5-1.2,3.6-1.7c1.1-0.5,1.9-0.9,2.3-1.1l0.3-0.1
		l0-0.7c0.1-1-0.2-2-0.9-2.9c-0.3-0.6-0.6-1-0.9-1.2c-0.2-0.2-0.3-0.4-0.5-0.6c-0.2-0.2-0.3-0.4-0.5-0.6l-0.1-0.1l-0.3,0l-0.1,0
		l0.2-0.3l-0.3-0.3c-0.2-0.2-0.7-0.6-1.6-1.3c-0.9-0.7-1.8-1.3-2.9-2c-1.1-0.7-2-1.3-3-1.8c-0.9-0.5-1.5-0.8-1.8-0.8l-0.4,0l0-0.3
		l-0.4-0.2c-3.1-1.2-6.1-2.2-9-2.8c-2.9-0.6-6-1-9.4-1.3c-1.4-0.1-2.7-0.1-4.1,0c-1.4,0.1-2.8,0.2-4.3,0.2c-2.6,0.2-5.3,0.5-8,1
		c-2.8,0.5-5.4,1.3-7.7,2.4c-0.1,0.1-0.3,0.2-0.7,0.4c-0.2,0-0.3,0-0.3,0c-0.1,0-0.2,0.1-0.3,0c-0.8,0.3-1.7,0.7-2.5,1.1
		c-0.9,0.4-1.7,0.9-2.5,1.6c-0.2,0.2-0.3,0.3-0.4,0.4c-0.1,0.1-0.2,0.2-0.4,0.4c-0.4,0.3-0.7,0.5-0.9,0.6c-0.7,0.5-1.3,1-1.9,1.5
		c-0.6,0.5-1.2,1-1.8,1.5c-0.5,0.5-1,1-1.6,1.5c-0.5,0.5-1.1,1-1.7,1.5c-0.5,0.5-1,1.1-1.5,1.7c-0.5,0.6-1,1.2-1.5,1.8
		c-0.1,0.2-0.4,0.6-0.8,1.3c-0.4,0.7-0.9,1.4-1.3,2.2s-0.9,1.5-1.3,2.2c-0.4,0.7-0.6,1-0.6,1.1c-0.1,0.4-0.2,0.8-0.2,1.4
		c-0.1,0.3-0.3,0.7-0.6,1.2c-0.7,1-1.4,2.6-2,4.7c-0.6,2.1-1.2,4.3-1.6,6.6c-0.5,2.4-0.9,4.6-1.2,6.7c-0.3,2.1-0.5,3.8-0.6,5
		c-0.1,1.9-0.2,3.8-0.1,5.6c0.1,1.8,0.2,3.7,0.4,5.7c0.1,0.7,0.4,1.1,0.7,1.4c0.1,0.1,0.1,0.1,0.2,0.2c0,0,0.1,0.1,0.2,0.2
		c-0.2,0.4-0.3,0.7-0.3,0.9c0,0.5,0.1,1.1,0.3,1.9c0.2,0.8,0.5,1.6,0.8,2.3c0.3,0.8,0.6,1.5,0.7,2.3c0.2,0.7,0.3,1.4,0.5,1.8
		c0.4,1.4,1.1,3,2.3,4.9c1.2,1.9,2.1,3.4,2.8,4.5c0.5,0.7,1.1,1.3,1.7,1.9c0.3,0.3,0.5,0.6,0.8,0.9c0.3,0.3,0.5,0.6,0.7,1
		c0.3,0.2,0.6,0.5,0.6,0.9c0.2,0.2,0.3,0.4,0.3,0.5c0,0.1,0.1,0.3,0.3,0.5l0.1,0.1l0.3,0.3c1.5,1.4,3.1,2.7,4.8,4.1
		c1.7,1.3,3.5,2.4,5.3,3.4c0.6,0.3,1.4,0.7,2.3,1.1c0.9,0.4,1.9,0.8,2.9,1.2c1,0.4,2,0.8,2.9,1.1c0.9,0.3,1.8,0.5,2.5,0.7l0.5,0
		c0.2,0,0.3,0.1,0.3,0.2c0.2,0,0.5,0.1,0.8,0.3c0.2,0,0.3,0,0.5,0.1c0.1,0.1,0.3,0.1,0.5,0.1c0.3,0,0.6,0,1-0.2
		c0.6,0.1,1.3,0.2,1.9,0.3c0.6,0.1,1.3,0.2,1.9,0.2l6.4,0.5c1.2,0,2.4,0,3.5-0.1c1.1-0.1,2.1-0.3,2.9-0.7l0.1,0l0.3,0
		c0.5-0.1,0.9-0.1,1.3-0.1c0.4,0,0.8-0.1,1.3-0.1c0.5-0.2,0.9-0.3,1.3-0.3c0.4-0.1,0.8-0.1,1.3-0.2c0.2-0.1,0.5-0.1,0.8-0.1
		c0.2,0,0.3,0,0.5,0c0.1,0,0.3,0,0.5,0c0.2,0,0.4,0,0.6,0c0.2,0,0.4,0,0.6,0c0.4-0.2,0.7-0.4,1-0.6c0.5-0.6,1.1-1,1.7-1.3
		c0.4-0.2,1-0.5,1.7-0.8c0.8-0.3,1.5-0.7,2.1-1.2c0.7-0.5,1.4-1.2,2.2-2.2c0.2-0.2,0.4-0.3,0.7-0.4c0.3-0.1,0.5-0.2,0.7-0.4
		c0.6-0.3,1.1-0.7,1.5-1.3c0.3-0.3,0.7-0.8,1.1-1.5c0.5-0.7,0.9-1.3,1.3-2c0.4-0.7,0.8-1.4,1.1-2.1c0.3-0.7,0.5-1.3,0.5-1.8
		c0-0.5,0.2-1.1,0.5-1.6c0.5-1.1,1-2.6,1.4-4.5c0.4-1.9,0.7-3.5,0.7-4.6c0.1-1,0.2-1.9,0.5-2.8c0.2-0.9,0.4-1.8,0.5-2.8
		c0-0.3,0-0.5,0-0.8c0-0.3,0-0.5,0-0.7c0-0.5,0.1-0.8,0.2-1.1c0-0.1,0-0.2,0.1-0.2c0,0,0.1-0.2,0.1-0.3l0-0.7c0.1-1,0.1-2,0.1-3.1
		c0-1.1,0-2.1,0.1-3.1c0-0.5,0-1.1,0-1.7c-0.1-0.6-0.1-1.2,0-1.7c0-0.4,0.1-0.7,0.2-0.9c0-0.1,0-0.2,0.1-0.3c0-0.1,0.1-0.2,0.1-0.3
		c0-0.1,0-0.2,0.1-0.3c0-0.1,0.1-0.2,0.1-0.3c0-0.5-0.2-0.9-0.7-1.3c-0.2-0.1-0.4-0.2-0.6-0.3c-0.2-0.1-0.5-0.2-0.7-0.2
		c-0.4-0.2-0.9-0.3-1.4-0.4c-0.5,0-0.8-0.1-1-0.1c-0.7-0.1-1.4-0.1-2.1,0c-0.7,0-1.4,0-2.1,0c-3.8-0.3-7.7-0.5-11.5-0.7
		c-3.8-0.2-7.7-0.4-11.5-0.6c-0.5,0-1.1,0-1.7,0c-0.6,0.1-1.2,0.2-1.8,0.6l-0.1,0l0,0.4c-0.2,1-0.3,2-0.3,2.9
		c-0.1,0.9-0.1,1.9-0.2,2.9c0,0.3-0.1,0.6-0.1,0.9c-0.1,0.3-0.1,0.7,0,1c0,0.3,0,0.6,0.1,1c0.1,0.4,0.2,0.7,0.5,0.9
		c0.1,0.1,0.2,0.2,0.4,0.2c0.1,0.1,0.2,0.2,0.4,0.2c0.1,0,0.2,0.1,0.3,0.2c0.4,0.2,0.8,0.4,1.2,0.4c0.4,0.1,0.7,0.1,1.1,0.1
		c2.3,0.2,4.5,0.3,6.8,0.5c2.2,0.2,4.5,0.4,6.8,0.6c-0.1,0.9-0.2,1.8-0.4,2.7c-0.2,0.9-0.3,1.8-0.4,2.7c-0.1,1.2-0.2,2.4-0.3,3.7
		c-0.1,1.3-0.3,2.5-0.5,3.8c-0.3,1.3-0.6,2.5-1.1,3.6c-0.4,1.1-1.1,2.1-1.9,3c-0.2,0.2-0.4,0.3-0.6,0.4c-0.2,0.1-0.4,0.3-0.6,0.4
		c-0.1,0.1-0.3,0.2-0.7,0.4c-0.1,0.2-0.3,0.3-0.7,0.5c-0.6,0.5-1.3,0.9-2.1,1c-0.8,0.2-1.7,0.3-2.7,0.4c-1,0.1-2,0.2-2.9,0.1
		c-0.9,0-1.8,0-2.8,0c-0.3,0.1-0.8,0.1-1.5,0c-0.3,0-0.5-0.1-0.7-0.2c-0.1-0.1-0.2-0.2-0.4-0.2c-0.1-0.1-0.3-0.2-0.5-0.2
		c-0.3,0-0.6,0-0.8,0c-0.3,0-0.6,0-0.8,0c-0.5,0-1.1-0.1-1.7-0.3c-0.6-0.1-1.2-0.3-1.8-0.5c-0.6-0.2-1.2-0.4-1.8-0.6
		c-0.6-0.2-1.2-0.4-1.8-0.6l-0.1,0c-0.2-0.2-0.3-0.3-0.4-0.3c-0.5-0.4-1-0.6-1.3-0.6c-0.2-0.2-0.4-0.3-0.7-0.5
		c-0.3-0.1-0.5-0.3-0.7-0.5c-0.4-0.2-0.6-0.4-0.8-0.5c-1.5-1.1-2.8-2.4-4-4c-1.2-1.5-2.3-3.1-3.2-4.8c-1.2-1.6-2-3.4-2.4-5.3
		c-0.5-1.9-0.8-3.9-1.2-6c-0.1-0.4-0.1-0.7-0.2-1c-0.1-0.3-0.1-0.7-0.2-1c-0.1-0.9-0.2-1.6-0.1-2.1c0.1-1.6,0-3.2-0.2-4.7
		c0-0.1,0-0.2-0.1-0.3l0-0.1l0-0.1c0.1-0.1,0.1-0.2,0.2-0.3l0-0.4c0-0.1,0-0.2,0.1-0.2c0,0,0.1-0.1,0.1-0.2c0-0.3,0-0.7-0.2-1.3
		c0.1,0,0.3-0.1,0.6-0.4c0.5-0.2,0.7-0.7,0.8-1.3c0-0.5,0-1,0-1.5c-0.1-0.6-0.1-1.1,0-1.5c0.1-1,0.2-2,0.4-2.9
		C600.6,747.7,600.8,746.8,601,745.8z"/>
	<path d="M766.4,737.1c0-0.4,0.1-0.8,0.2-1.2c0.1-0.6,0.4-1.2,0.8-1.8l0.3-0.4l-0.2-0.3c-0.4-0.7-0.9-1.2-1.5-1.5
		c-0.6-0.3-1.2-0.4-1.8-0.6c-1.2-0.2-2.3-0.4-3.5-0.5c-1.1-0.1-2.2-0.3-3.3-0.5c-1.7-0.3-3.4-0.7-5-1c-1.6-0.4-3.3-0.7-5-1
		c-0.6-0.1-1.2-0.1-1.7,0.2c-0.5,0.2-0.8,0.7-1,1.4l-0.1,0.5l0.1,0.2c0.1,0.1,0.1,0.2,0.1,0.3l-0.1,0.3l-0.1,0.3l0,0.3
		c-0.1,0.1-0.2,0.2-0.2,0.4l-0.1,0.5c-0.1,0.4-0.1,0.9-0.2,1.2c0,0.4-0.1,0.8-0.2,1.2l-1,5.3c-0.1,0.6-0.3,1.3-0.5,2
		c-0.2,0.7-0.3,1.4-0.5,2.1c-0.1,0.7-0.2,1.4-0.3,2.1c-0.1,0.7-0.1,1.4-0.1,2.2c-0.4,0.5-0.6,1-0.7,1.5c-0.2,0.8-0.1,1.5,0,2
		c0,0.1-0.1,0.2-0.1,0.2c-0.1,0-0.1,0.1-0.1,0.2c-0.1,0-0.2,0.1-0.2,0.4c-0.2,1-0.4,2.2-0.6,3.6c-0.2,1.4-0.5,2.9-0.8,4.4
		c-0.2,1.2-0.4,2.2-0.6,3.2c-0.2,1-0.4,1.7-0.7,2.1c-2.4-0.9-4.8-1.8-7.2-2.6c-2.4-0.8-4.8-1.5-7.4-2c-1.3-0.2-2.6-0.4-3.9-0.5
		c-1.3-0.1-2.6-0.1-3.9-0.2c-1.3-0.1-2.5-0.1-3.8,0c-1.2,0-2.4,0.1-3.6,0c-0.1-0.6-0.1-0.9-0.1-1.1c0.1-0.4,0.3-0.8,0.6-1l0.2-0.2
		l0.1-0.3c0.1-0.3,0-0.7,0-1.3c-0.1-0.2,0-0.5,0-0.8c0.3-1.4,0.5-2.8,0.7-4.2c0.2-1.4,0.5-2.8,0.7-4.2c0.1-0.4,0.2-0.7,0.3-1
		c0.1-0.3,0.2-0.6,0.2-0.9l0.2-0.9c-0.1-0.2-0.1-0.3-0.1-0.4c0-0.1,0-0.2-0.1-0.4c0.1-0.3,0.1-0.5,0.1-0.8c0-0.2,0-0.5,0.1-0.8
		l0.2-0.1c0-0.1,0.1-0.2,0.1-0.2c0.1,0,0.1-0.1,0.1-0.2c0.1-0.1,0.2-0.2,0.2-0.5c0.2-0.8,0.3-1.6,0.3-2.5c0.1-0.8,0.1-1.7,0.1-2.5
		l0.3-0.2l0.6-0.3l-0.3-0.6c-0.1-0.1-0.1-0.2-0.1-0.4c0-0.2,0.1-0.4,0.2-0.6c0.1-0.2,0.2-0.5,0.2-0.7s0-0.7,0-1.3l0.1-0.3
		c0.1,0,0.2-0.1,0.2-0.4l1.1-5.7c0.1-0.4,0.2-0.8,0.3-1.1l0.4-0.5l0.1-0.7l0.1-0.5l0.1-0.4L715,723c-0.4-0.4-0.8-0.8-1.4-1
		c-0.6-0.2-1.1-0.4-1.6-0.5c-1.2-0.2-2.3-0.4-3.5-0.5c-1.1-0.1-2.3-0.3-3.5-0.5l-4.4-0.8c-1-0.2-1.9-0.4-2.8-0.7
		c-0.9-0.3-1.8-0.5-2.8-0.7c-0.7-0.1-1.3,0.1-1.8,0.8c-0.5,0.7-0.7,1.2-0.8,1.6l-0.1,0.4c0.1,0.1,0.1,0.3,0.1,0.4
		c0.1,0.1,0.1,0.2,0.1,0.3l-0.1,0.3c-0.1,0.4-0.2,0.7-0.3,1c-0.1,0.3-0.3,0.6-0.3,1c0,0.2,0,0.3,0,0.5c0,0.1,0,0.3,0,0.5
		c0.1,0.2,0,0.5,0,0.8c0,0.8,0,1.2,0,1.4c-0.1,0.5-0.3,1.1-0.5,1.7c-0.2,0.6-0.4,1.1-0.5,1.7c0,0.2-0.1,0.4-0.1,0.7
		c-0.1,0.3-0.1,0.6-0.1,1.1l-0.2,0.9l-0.1,0.4c-0.1,0.2-0.2,0.3-0.2,0.5c0,0.2-0.1,0.4-0.2,0.5c0,0.2-0.1,0.4-0.2,0.6
		c-0.1,0.2-0.1,0.4-0.2,0.6c-0.1,0.4-0.1,0.6,0,0.8c0,0.2,0,0.3,0,0.4c0,0.1,0,0.2,0,0.4c0,0.4,0,0.8-0.1,1.4
		c-0.1,0.3-0.1,0.6-0.2,0.9c-0.1,0.3-0.2,0.6-0.3,1c-0.1,0.4-0.1,0.7-0.1,1c0,0.3-0.1,0.7-0.1,1c-0.1,0.4-0.2,0.9-0.4,1.5
		c-0.2,0.5-0.3,1.1-0.4,1.6l-0.1,0.5c0.1,0.1,0.1,0.3,0,0.6c0.1,0.1,0.1,0.3,0.1,0.4l-0.1,0.3c-0.1,0.7-0.3,1.4-0.5,2.1
		c-0.2,0.7-0.3,1.4-0.5,2.1c-0.1,0.4-0.2,1-0.2,1.6c-0.1,0.6-0.2,1.2-0.3,1.7c-0.1,0.5-0.2,0.9-0.2,1.4c0,0.5-0.1,1-0.2,1.4
		c-0.1,0.4-0.2,0.7-0.3,1c-0.1,0.3-0.2,0.6-0.3,1l-1.3,6.6c-0.3,1.4-0.5,2.8-0.7,4.1c-0.2,1.3-0.3,2.1-0.3,2.5l0.1,0l-0.3-0.1
		l-0.1,0.7c-0.1,0.4-0.2,0.7-0.3,1c-0.1,0.3-0.2,0.7-0.3,1.1l-1.7,9l-0.9,4.8l-0.6,3c-0.1,0.5-0.1,0.9-0.1,1.1l-0.1,0.3l-0.1,0.4
		c-0.1,0.3,0,0.4,0.2,0.5l-0.3,0.2l-0.8,0.5l0.9,0.6c-0.2,0.1-0.3,0.4-0.5,0.9c-0.1,0.4-0.1,0.6,0,0.7l0,0.1l-0.5,0.2l0.1,0.4
		c0.1,0.2,0,0.5,0,0.8c-0.1,0.3-0.3,0.5-0.3,0.7c-0.1,0.2-0.2,0.5-0.2,0.7c-0.3,1.3-0.5,2.7-0.6,4.1s-0.4,2.7-0.6,4.1
		c-0.2,0.8,0.1,1.5,0.9,2.1l0.3,0.1l0.1,0c0.2-0.1,0.3-0.1,0.4-0.1c0.1,0,0.2,0,0.4-0.1c0.5,0.3,0.9,0.5,1.2,0.5
		c0.5,0.3,1,0.5,1.4,0.6c2.1,0.4,4.1,0.8,6.1,1.1c2,0.3,4,0.7,6.1,1c0.7,0.1,1.4,0.2,2.1,0.2c0.7,0,1.4,0,2.2,0.1l0.6,0l0.3-1.8
		l1.2-6.5l0.1-0.4c0-0.1,0-0.1,0-0.1c0,0-0.1-0.1,0-0.1l0.1-0.3c0-0.2,0.1-0.3,0.2-0.4l0.1-0.5c0-0.2,0-0.3,0-0.5c0-0.1,0-0.3,0-0.3
		l-0.1-0.2c0.1-0.1,0.2-0.2,0.2-0.2c0-0.1,0.1-0.2,0.2-0.2l0.1-0.4c0.2-1,0.4-1.9,0.6-2.9c0.2-0.9,0.4-1.9,0.6-2.9
		c0.1-0.4,0.1-1,0.1-1.8c0-0.2,0-0.3,0-0.3c0-0.1,0-0.2,0-0.3l0.1-0.4l0.2-0.1l0.2-0.1l0.1-0.4l0.1-0.5c0.1-0.6,0.3-1.1,0.4-1.5
		l0.5-2.7c0.2-1.2,0.4-2.3,0.5-3.5c0.1-1.2,0.3-2.4,0.5-3.5c0-0.2,0.1-0.5,0.2-0.9c0.1-0.4,0.2-0.9,0.4-1.5l0.3-1.3l0.1-0.5l0.1-0.4
		c0-0.1,0-0.2,0-0.3c0-0.1,0-0.2,0-0.3l-0.1-0.2c0-0.2,0.1-0.3,0.3-0.4c0.2-0.1,0.4-0.1,0.5-0.2c0.2-0.1,0.4-0.2,0.7-0.3
		c1.3-0.2,2.5-0.4,3.8-0.4c1.5-0.1,2.9-0.1,4.3,0.1c1.4,0.1,2.3,0.2,2.7,0.3c3,0.6,5.8,1.2,8.6,1.9c2.7,0.7,5.5,1.7,8.2,3.1
		c0.1,0.4,0.3,0.9,0.6,1.4c0.3,0.5,0.6,1,1,1.6l-0.3-0.1l-0.2,0.5c-0.5,1.4-1,2.8-1.2,4.3c-0.3,1.5-0.6,3-0.9,4.5
		c-0.3,1.8-0.7,3.7-0.9,5.6c-0.3,2-0.6,3.9-1,5.8c-0.1,0.5-0.1,0.8,0.1,1.1l-0.3,0.2l-0.2,0.1l0,1.3c-0.3,0.5-0.3,1-0.1,1.4l-0.6,0
		l0,0.6c0,0.1,0,0.2,0,0.3c0,0.1,0,0.2,0,0.3c0,0.2,0,0.3,0.1,0.3l0,0.1c0,0.1-0.1,0.2-0.2,0.2l-0.1,0.4c-0.1,0.1-0.2,0.2-0.2,0.5
		c-0.1,0.1-0.2,0.2-0.2,0.5c-0.1,0.5-0.1,0.9-0.2,1.2c0,0.4-0.1,0.7-0.1,1.1l-0.6,3.4l-0.4,1.9c0,0.3,0.1,0.6,0,0.9
		c0,0.3,0,0.6,0.2,0.8l0.1,0.3l0.3,0.1c0.8,0.2,1.6,0.5,2.4,0.8c0.8,0.3,1.6,0.5,2.4,0.7c2.7,0.5,5.4,1,8,1.3c2.6,0.4,5.3,0.7,7.9,1
		l0.7,0.1l0.1-0.7l0.8-4.2c0.2-1.1,0.4-2.1,0.5-3.2c0.2-1,0.2-2.1,0.1-3.1l0.5-0.3l0.1-0.3c0.2-1.1,0.5-2.1,0.8-3.2
		c0.3-1.1,0.5-2.1,0.8-3.2l0.1-0.7c-0.1-0.2-0.1-0.3-0.1-0.4c0-0.1,0-0.2-0.1-0.3c0-0.2,0-0.4,0-0.6c0-0.2,0-0.4,0-0.6
		c0-0.1,0.1-0.3,0.4-0.6l0.3-0.4l-0.2-0.5c-0.1-0.1-0.1-0.3,0-0.7c0.2-0.8,0.3-1.6,0.5-2.4c0.2-0.8,0.4-1.6,0.6-2.5l1.2-6.1
		l-0.5-0.2l-0.3-0.1l0.3-0.2l0.3-0.2c0-0.1,0.1-0.2,0.1-0.2c0.1,0,0.1-0.1,0.1-0.3l1.1-5.7c0-0.2,0-0.3,0-0.3c0-0.1,0-0.1,0-0.2
		l-0.2-0.3l0-0.1c0-0.2,0.1-0.3,0.2-0.5c0.1-0.1,0.1-0.3,0.2-0.5c0.1-0.1,0.2-0.3,0.3-0.6c0.1-0.1,0.2-0.3,0.3-0.6
		c0.2-1,0.3-2,0.4-3.1c0.1-1,0.3-2.1,0.4-3.1c0.1-0.4,0.2-0.9,0.4-1.4c0.2-0.5,0.3-1,0.4-1.5c0.2-0.9,0.2-1.6,0.1-2.1l0.5-0.3
		c0-0.2,0.2-0.3,0.4-0.5c0.1-0.2,0.2-0.3,0.2-0.5c0.1-0.3,0-0.5,0-0.7c0-0.1,0-0.2,0-0.2c0-0.1,0-0.1,0-0.2
		c-0.1-0.1-0.1-0.2-0.1-0.2c0,0,0-0.1-0.1-0.2l0-0.1l1.3-6.6l0.1-0.5c-0.1-0.1-0.1-0.2-0.1-0.4c-0.1-0.1-0.1-0.2-0.1-0.4l0.1-0.3
		c0.1-0.4,0.2-0.6,0.3-0.8c0.1-0.3,0.1-0.5,0.3-0.6l0.1-0.5c0.1-0.4,0.1-0.6,0-0.8c0-0.2,0-0.3,0-0.5c0-0.1,0-0.3,0-0.5
		c0-0.3-0.1-0.5-0.1-0.8c0-0.2,0-0.5,0.1-0.8l0.2-0.2c0.1-0.3,0.1-0.4,0.2-0.5c0.3-0.5,0.5-1,0.5-1.4c0.1-0.4,0.1-1,0.1-1.9
		c0-0.9-0.1-1.6-0.3-2.2c0.1-0.1,0.2-0.1,0.2-0.1c0,0,0.2-0.1,0.4-0.2l0.2-0.1l0.6-3.4l-0.2-0.3l-0.1-0.2c0.6-1.3,1.1-2.7,1.4-4.2
		C766.3,737.9,766.4,737.5,766.4,737.1z"/>
	<path d="M858.2,759.8l-0.5-0.3c-0.3-0.1-0.6-0.2-0.9-0.4c-0.2-0.1-0.5-0.2-0.8-0.3c-3.6-1.1-7.1-2.2-10.5-3.3
		c-3.5-1.1-6.9-2.1-10.3-3.2c-0.7-0.2-1.4-0.5-2.1-0.8c-0.7-0.3-1.4-0.5-2.1-0.8c-5.5-1.8-10.9-3.4-16.2-5c-5.3-1.6-10.7-3.3-16.2-5
		c-0.6-0.2-1.2-0.4-1.8-0.7c-0.6-0.2-1.2-0.5-1.9-0.7c-0.5-0.2-1.1-0.3-1.6-0.4c-0.6-0.1-1.1-0.2-1.6-0.4c-0.3-0.1-0.6-0.2-0.9-0.4
		c-0.2-0.1-0.5-0.3-0.9-0.5l-0.7-0.4l-0.3,0.8c-0.4,1.1-0.8,2.3-1.2,3.4c-0.4,1.2-0.8,2.4-1.2,3.6c-0.4,1.2-0.8,2.4-1.1,3.6
		c-0.3,1.2-0.7,2.4-1,3.5l-0.2,0.7l0.7,0.2c1,0.2,1.9,0.5,2.9,0.9c0.9,0.4,1.9,0.7,2.9,1c0.7,0.2,1.4,0.4,2.1,0.5
		c0.7,0.1,1.4,0.3,2.1,0.5c2.3,0.7,4.5,1.5,6.8,2.2c2.2,0.8,4.5,1.5,6.8,2.2l0.4,0.1l0.2-0.2c0.1-0.1,0.2-0.1,0.2-0.2
		c0,0,0.1-0.1,0.2-0.2c0.1,0.2,0.3,0.4,0.4,0.5c0.2,0.1,0.3,0.2,0.5,0.4l0.4,0.1c0,0.1,0,0.2,0.2,0.2l0.4,0.1L810,765
		c-0.1,0.2-0.1,0.4-0.1,0.7c0,0.3-0.1,0.5-0.1,0.7l-0.1,0.3c-0.1,0.2-0.1,0.3-0.3,0.3l-0.1,0.4c0,0.1-0.1,0.1-0.1,0.2
		c-0.1,0-0.1,0.1-0.2,0.3c-0.1,0.4-0.2,0.9-0.3,1.3c0,0.4-0.1,0.8-0.3,1.3c-0.4,1.2-0.8,2.4-1.2,3.5c-0.4,1.1-0.8,2.3-1.2,3.5
		c-1.1,3.6-2.2,7.1-3.3,10.5c-1.1,3.5-2.2,7-3.3,10.7c-0.1,0.2-0.1,0.4,0,0.6c0,0.2,0.1,0.4,0.1,0.6l-0.4-0.1l-0.2,0.7
		c-1.1,3.3-2,6.7-2.9,10.2c-0.9,3.5-1.8,6.9-2.9,10.3l-0.3,0.8l-0.2,0.7l0,0.1l-0.3,0.2c-0.1,0.1-0.2,0.1-0.2,0.2
		c-0.1,0-0.2,0.1-0.3,0.3c-0.1,0.3-0.1,0.6-0.1,0.7l-0.3,0.2l-0.1,0.4c0,0.1,0,0.2,0,0.2c0,0.1,0,0.2,0,0.3l-0.1,0.4l0,0.1l-0.1,0.3
		c-0.1,0.1-0.2,0.1-0.2,0.2l-0.1,0.4l-2.7,8.4c-0.2,0.7,0,1.4,0.6,2.1l0.3,0.1l0.3,0l0.5,0.2c0.1-0.1,0.2-0.1,0.3,0
		c0.3,0.4,0.7,0.6,0.9,0.7c0.2,0.2,0.6,0.3,1.1,0.5c1.6,0.5,3.1,1,4.7,1.4c1.6,0.5,3.2,0.9,4.8,1.3c0.2,0.1,0.5,0.1,0.9,0.2
		c0.4,0.1,0.9,0.2,1.4,0.2c0.6,0,1,0,1.3,0.1l0.6-0.1c0.4,0,0.6-0.1,0.7-0.5c0.1-0.3,0.1-0.5-0.1-0.7l-0.1-0.2l0.2-0.1l0.1-0.3
		c0.2-0.7,0.5-1.4,0.7-2c0.3-0.6,0.5-1.3,0.7-2l0.8-2.5c0.1-0.3,0.1-0.5,0.2-0.8s0.1-0.5,0.1-0.7c-0.1-0.1-0.1-0.2,0-0.3
		c0-0.1,0-0.2,0-0.3l0-0.1c0.6-0.9,1-1.8,1.4-2.9c0.2-0.5,0.3-1.1,0.5-1.7c0.1-0.6,0.3-1.1,0.4-1.5c0.1-0.2,0.1-0.4,0.3-0.6
		c0.1-0.2,0.2-0.5,0.3-0.6l0.2-0.5c-0.1-0.1,0-0.3,0-0.6c-0.1-0.4-0.1-0.6-0.1-0.7l1-3.3c0.2-0.6,0.4-1.2,0.7-1.7s0.5-1,0.7-1.7
		c0.7-2.3,1.4-4.5,2.1-6.7c0.7-2.2,1.3-4.4,2-6.6l0-0.1l-0.1-0.6c0.1-0.2,0.2-0.3,0.3-0.5c0.1-0.1,0.3-0.3,0.3-0.6
		c0.1-0.1,0.2-0.3,0.3-0.6c0.3-1,0.6-2.1,0.8-3.1c0.2-1,0.5-2.1,0.8-3.1c0.1-0.4,0.3-0.9,0.6-1.3c0.2-0.5,0.4-0.9,0.6-1.5
		c0.3-0.9,0.4-1.6,0.4-2c0.6-0.6,0.9-1.1,1.1-1.5c0.1-0.4,0.2-0.7,0.1-0.8l0.1-0.3c0.4-1.4,0.9-2.8,1.3-4.3c0.4-1.5,0.9-2.9,1.3-4.4
		c0.2-0.8,0.4-1.6,0.5-2.4c0.1-0.8,0.2-1.5,0.4-2.2c0-0.1,0.1-0.2,0.2-0.2l0.1-0.3c0.1-0.1,0.2-0.2,0.3-0.5c0.1-0.1,0.2-0.2,0.3-0.5
		c0.2-0.5,0.3-1,0.3-1.5c0.1-0.5,0.2-1,0.3-1.5c0.1-0.2,0.1-0.3,0.2-0.4s0.2-0.3,0.2-0.4l5.1,1.6c0.1,0,0.1,0.1,0.2,0.1
		c0,0.1,0.1,0.1,0.2,0.1c0.3,0.3,0.6,0.5,1,0.6c0.2,0.1,0.4,0.1,0.6,0c0.2,0.1,0.3,0.1,0.4,0l0.3,0.1l0.2-0.1
		c1.5,0.5,2.9,0.9,4.3,1.3c1.4,0.4,2.9,0.8,4.3,1.3c0.5,0.2,1,0.4,1.5,0.6c0.5,0.2,0.9,0.4,1.5,0.6c0.8,0.3,1.6,0.5,2.3,0.6
		c0.8,0.2,1.5,0.3,2.2,0.4l0.4,0.1l0.3-0.3c0.2-0.1,0.4-0.3,0.5-0.6c0.2-0.5,0.1-0.9-0.1-1c0.4-0.4,0.7-1,0.9-1.6
		c0.2-0.7,0.4-1.4,0.6-2.2c0.1-0.8,0.3-1.5,0.6-2.2l0.3-0.9l0.1-0.3l0.1-0.4c0-0.1,0-0.1,0-0.2c0,0-0.1-0.1,0-0.2l0-0.3l-0.1,0
		l0.2-0.1L858.2,759.8z"/>
</g>
</svg>
