<?xml version="1.0" encoding="utf-8"?>
<!-- Generator: Adobe Illustrator 22.0.0, SVG Export Plug-In . SVG Version: 6.00 Build 0)  -->
<svg version="1.1" id="Layer_1" xmlns="http://www.w3.org/2000/svg" xmlns:xlink="http://www.w3.org/1999/xlink" x="0px" y="0px"
	 viewBox="0 0 1080 1080" style="enable-background:new 0 0 1080 1080;" xml:space="preserve">
<g>
	<path d="M539.7,181c1,3.5,3.7,5,7.3,4.5c4.3-0.5,7-4.2,6.5-8.8c-1.2-9.9-0.9-19.8-0.1-29.7c1-13.4,2.3-26.7,2.3-40.2
		c0.1-15.4-0.8-30.8-4.9-45.8c-0.4-1.6-0.8-3.2-1.5-4.6c-0.8-1.7-2.3-2.6-4.2-2.6c-1.9,0.1-3.3,1.1-4.1,2.7
		c-0.4,0.9-0.5,1.8-0.7,2.7c-1.7,11.1-2.7,22.2-3.4,33.4c-0.6,9.1-1.3,18.1-1.8,27.2c-0.7,12.1-1.9,24.2-2.3,36.3
		c-0.1,3.7,0.6,7.2,1.8,10.6C536.2,171.6,538.3,176.2,539.7,181z"/>
	<path d="M712.1,203c2.7,0.2,4.4-1.1,5-4.2c2.3-11.2,6.5-21.9,11-32.4c6.2-14.4,11.8-28.9,16.1-44c3.1-10.8,5.3-21.7,5.4-33
		c0-3.1-1.4-5.1-4-5.8c-2.4-0.7-4.1,0.2-5.8,3.2c-10,18-18.2,36.7-25.2,56.1c-5.6,15.5-7.1,31.8-7.9,48.1c0,2.2-0.1,4.4,0,6.6
		C706.9,200.6,709.1,202.8,712.1,203z"/>
	<path d="M302.8,157.4c5.2,8,11.1,15.6,16.6,23.3c10.2,14.3,23.4,25.5,37.4,35.9c2.5,1.9,5.2,1.4,7.2-0.8c2-2.3,1.8-5.5-0.2-7.2
		c-2.1-1.8-3.9-4-5.7-6.2c-4.6-5.8-8.2-12.1-11.6-18.7c-7.6-14.7-17.6-27.7-28.5-40c-5-5.7-10.6-10.8-16.8-15.2
		c-1.3-1-2.7-1.9-4.4-1.8c-3.5-0.2-7.7,3.4-5.9,8.1C294.1,142.8,298.1,150.3,302.8,157.4z"/>
	<path d="M860.1,270.5c1.9,0.9,3.4,0.2,4.7-1.2c5.6-6.3,12.4-11.3,19-16.5c5.2-4.2,10.2-8.6,13.9-14.2c2.7-4,5.8-7.6,9.1-11
		c4.3-4.5,8.8-8.7,12.8-13.5c3.3-4,6.1-8.3,7.7-13.2c1-3,0.4-5.5-1.6-7.3c-2.1-1.7-4.5-1.8-7.5-0.2c-3.8,2.1-7.3,4.6-10.7,7.3
		c-9.3,7.3-17.4,15.9-25,24.9c-9.3,11-17.6,22.6-24.4,35.3c-0.7,1.3-1.5,2.6-1.5,4.3C857,267.5,857.9,269.4,860.1,270.5z"/>
	<path d="M179.5,244.3c8.5,7.9,18,14.1,29.1,17.5c7.9,2.4,16,4.2,24,6.3c0.7,0.2,1.4,0.2,2.1,0.2c2.4,0,4.2-1.5,4.7-3.9
		c0.6-2.7-0.4-5.1-3-6.4c-9.6-4.8-18.3-11.1-27.4-16.8c-5.2-3.2-10.4-6.2-16.1-8.4c-4.2-1.7-8.6-2.9-13.5-3.3
		c-4-0.7-6.7,3.8-4.9,7.7C175.7,239.9,177.4,242.3,179.5,244.3z"/>
	<path d="M439.1,194.7c2.2,0.5,4.2,0.2,5.9-1.4c1.7-1.5,1.7-3.4,1.1-5.4c-1.6-5-2.5-10.2-1.6-15.5c0.3-1.9,1-3.8,1.4-5.8
		c0.8-4-1.2-6.9-5.2-7.5c-2.2-0.3-4.1,0.4-5.9,1.7c-3.8,3-5.3,6.9-5.2,10.6c0.1,6.5,3.3,16.5,6.5,21.1
		C436.8,193.6,437.8,194.4,439.1,194.7z"/>
	<path d="M626.1,178c2.9-0.1,5.1-1.6,5.8-4.6c1-4,1.8-7.9,3.2-11.8c0.4-1.1,0.3-2.3,0.4-2.7c0.1-4.5-1.1-6.6-3.8-7.5
		c-2.7-0.8-5-0.1-7.2,1.7c-6.3,5.2-7.7,15.9-2.9,22.6C622.7,177.3,624.2,178.1,626.1,178z"/>
	<path d="M814.4,229.8c0.2,0,0.7,0,1.1-0.2c2.6-0.8,6.6-7.1,6.3-9.8c-0.2-1.8-1.1-2.7-2.9-2.9c-1.5-0.1-2.8,0.2-3.8,1.2
		c-1.5,1.6-3,3.2-4.4,4.9c-1.1,1.4-1.1,3-0.2,4.6C811.2,229.1,812.5,229.7,814.4,229.8z"/>
	<path d="M143.6,388c1.3,3.6,2.9,7.3,4.7,11.1c1.8,3.8,3.7,7.2,5.6,10.1c1.9,2.9,3.6,4.2,5.1,3.9c3.2,1.8,5.4,1,6.7-2.6
		c0.8-2.3,0.4-4.4-1.3-6.3c-1.7-1.8-3.6-2.2-5.7-1.3c-1,0.5-1.6,0.5-2,0.2c-0.3-0.3-1.2-1.5-2.6-3.6c-2.7-4.4-4.8-9.8-6.3-16.1
		c-1.5-6.3-2.1-12.7-1.8-19.1c0.5-7.3,2.1-14,4.7-20.1c2.7-6.1,5.9-10.1,9.7-11.9c1.3-0.6,2.2-1,2.9-1.1c0.6-0.1,1.4,0.1,2.2,0.7
		c1.1,0.7,2.4,2.3,4,5c1.6,2.7,3.5,6.9,5.9,12.8c2.4,5.8,5.3,13.5,8.8,23.1c3.5,9.6,7.9,21.6,13,36.2c2.1,6,3.8,11,5.3,14.9
		c1.4,3.9,2.7,7.2,3.8,9.9c1.1,2.7,2.1,5.1,3.2,7.3c1,2.2,2.1,4.5,3.3,7.1c1.7,3.3,3.3,6.1,4.6,8.5c1.3,2.4,2.7,4.5,4,6.3
		c1.3,1.8,2.8,3.5,4.4,5c1.6,1.5,3.3,3,5.2,4.4c2.6,2.1,5.4,3.7,8.6,4.9c3.2,1.1,5.8,1.5,8,1.1c3.6-0.7,6.4-2.4,8.4-5.1
		c1.7-2.2,2.8-5.7,3.2-10.6c0.4-4.9,0.2-10.4-0.8-16.6c-0.6-3.8-1.6-9.1-3-15.9c-1.3-6.8-2.8-13.6-4.2-20.4
		c-1.5-6.8-2.8-13-4.1-18.4c-1.3-5.4-2.2-8.6-2.6-9.6c-1.3-2.7-2.6-3.7-4-2.8c-1.4,0.8-1.6,2.7-0.6,5.6c0.2,0.9,0.7,3.1,1.6,6.7
		c0.8,3.6,1.8,7.8,2.8,12.4c1,4.7,2.1,9.5,3.2,14.5c1.1,5,1.9,9.2,2.6,12.6c1.8,9.1,2.9,16.4,3.4,21.8c0.5,5.4,0.4,9.7-0.3,12.7
		l-0.5,3.2l-3.3-2c-3.9-2.5-8-7.1-12.2-14c-4.2-6.9-8.4-15.6-12.4-26.2c-2.5-6.6-5-13.1-7.4-19.5c-2.4-6.4-4.7-12.4-6.8-18.2
		c-2.1-5.7-4-11-5.7-15.9c-1.7-4.9-3.1-9.1-4.2-12.7c-2.4-7.2-4.8-13.4-6.9-18.4c-2.2-5-4.3-9.1-6.5-12.2c-2.1-3.1-4.3-5.3-6.5-6.7
		c-2.2-1.4-4.7-2.2-7.3-2.5c-1.9-0.3-4.4,0.3-7.6,1.7c-3.2,1.4-6.1,3.2-9,5.5c-6.7,5.3-11.4,12.8-14,22.4
		c-2.7,9.7-3.1,19.9-1.3,30.8C141.5,382,142.3,384.4,143.6,388z"/>
	<path d="M231.9,292.4c-3.6-1-6.7-0.3-9.6,2.1c-2.1,1.8-3.5,3.9-4.2,6.2c-0.7,2.4-0.7,4.7-0.2,7.1c0.6,2.3,1.7,4.5,3.4,6.3
		c1.7,1.9,3.9,3.1,6.6,3.8c1,0.2,1.9,0.3,2.8,0.5c0.8,0.2,1.3,0.3,1.6,0.4c0.6,0.1,1,1.2,1,3.3c0,1.5,0.1,2.6,0.3,3.2
		c0.1,0.6,0.5,1.2,1.1,1.7c0.8,0.6,1.7,0.8,2.8,0.5c1-0.3,1.8-1,2.3-2.2c0.4-1.3,0.7-3.1,0.9-5.5c0.2-2.4,0.3-4.9,0.3-7.5
		c0-2.7-0.1-5.1-0.4-7.4c-0.2-2.3-0.6-4-1.1-5.1C238,295.9,235.4,293.4,231.9,292.4z"/>
	<path d="M261.4,321.2c0.3,2.9,1.1,6.4,2.2,10.7c1.1,4.3,2.4,8.9,3.9,13.8c1.4,4.9,3,9.9,4.8,15c1.8,5.1,3.5,9.9,5.3,14.6
		c1.8,4.6,3.6,8.8,5.4,12.5c1.8,3.7,3.4,6.5,5,8.4c6.1,10.7,12.9,19.3,20.4,25.7c7.5,6.4,14.6,9.7,21,9.7c7.9-0.1,13.6-4.5,17-13.3
		c1.3-3,2.2-6.4,2.6-10.4c0.4-3.9,0.6-8.4,0.6-13.4c0.1-4.5-0.2-9.8-0.8-16c-0.6-6.2-1.2-11.8-1.9-16.8c0.7,1.1,1.4,2.1,2.1,3.1
		c0.7,1,1.4,2.1,2.1,3.4c5.6,9.2,12,16.4,19.2,21.8c7.2,5.4,14,8,20.4,7.8c7.8-0.4,13.6-4.5,17.3-12.3c1.3-2.8,2.3-5.9,3-9.2
		c0.6-3.3,1.1-7.3,1.3-11.8c0.2-3,0.2-6.5,0.1-10.6c-0.1-4-0.4-7.9-0.7-11.7s-0.7-7.2-1.1-10.2c-0.4-3-0.8-5-1.3-6
		c-0.3-1-0.6-1.6-1-1.8c-0.3-0.2-1-0.1-2,0.2c-0.8,0.3-1.4,0.6-1.5,0.9c-0.2,0.3-0.2,1.1-0.2,2.4c0.8,7.9,1.3,14.8,1.7,20.7
		c0.3,5.9,0.5,11,0.3,15.4c-0.1,4.4-0.5,8.1-1.1,11.2c-0.6,3.1-1.5,5.7-2.7,7.9c-0.6,1.1-1.2,2.2-2,3.4c-0.8,1.2-1.5,2-2.2,2.6
		l-2.2,1.8l-4.7-2.7c-5.5-3.3-11.1-8.8-16.8-16.6c-5.7-7.7-11.2-16.9-16.3-27.5l-2.6-5.8l4.5-4.4c4.3-4.1,7.7-8.6,10.3-13.4
		c2.6-4.9,4.7-10.6,6.3-17.2c1.7-7.2,2.4-14.2,2.2-21.1c-0.2-6.9-1.2-13.1-3-18.6c-1.8-5.5-4.4-10.2-7.6-13.9
		c-3.3-3.7-7.1-6-11.4-6.9c-3.3-0.5-6.8,0.2-10.6,1.9c-3.8,1.7-7,4.3-9.7,7.7c-5.8,7.7-8.8,17.4-9,29.1c-0.3,11.7,1.4,26.2,5.1,43.3
		c3.4,15.2,6,28.1,7.6,38.5c1.7,10.5,2.7,19.2,3,26.1c0.3,6.9,0.2,12.4-0.3,16.3c-0.5,4-1.3,7.1-2.2,9.4c-0.6,1.1-1.2,2.4-1.9,3.8
		c-0.7,1.4-1.4,2.4-2.1,3l-2.2,1.8l-5-3.5c-5.6-3.8-11.5-10.2-17.6-19.2c-6.1-9-12-19.7-17.7-32.2l-3-6.8l4.4-4.7
		c4.2-4.4,7.4-9.4,9.8-14.8c2.4-5.4,4.3-11.9,5.7-19.4c1.4-8,1.8-16,1.3-23.8c-0.5-7.9-1.8-15-3.9-21.4c-2.1-6.4-4.8-11.8-8.3-16.1
		c-3.5-4.4-7.4-7.1-11.8-8.1c-3.4-0.8-7-0.3-10.8,1.5c-3.8,1.8-6.9,4.6-9.5,8.3c-1.9,2.8-3.5,6.3-4.8,10.5
		c-1.3,4.2-2.3,8.8-2.9,13.9c-0.6,5.1-0.9,10.5-0.8,16.2C260.1,309.9,260.6,315.6,261.4,321.2z M342.9,286.1
		c-0.2-3.2-0.3-7-0.2-11.4c0.1-5.7,0.8-10.7,2.2-14.8c1.4-4.1,3.2-7.1,5.4-9c2.2-1.9,4.6-2.5,7.3-2c2.7,0.6,5.4,2.5,8.1,6
		c2.1,2.5,3.9,6.3,5.5,11.3c1.6,5.1,2.4,9.9,2.5,14.5c0.2,4.4,0,8.7-0.7,13.1c-0.7,4.4-1.6,8.6-2.9,12.7c-1.2,4.1-2.8,7.9-4.6,11.4
		c-1.9,3.5-3.9,6.5-6.1,8.8c-2.6,2.9-4.2,4.4-4.8,4.7c-0.6,0.3-1.2-0.2-2-1.5c-0.5-1-1.1-2.7-1.8-5.3c-0.7-2.6-1.5-5.4-2.4-8.6
		c-0.9-3.1-1.7-6.4-2.4-9.6c-0.7-3.3-1.3-6.2-1.7-8.6C343.6,293.2,343.1,289.3,342.9,286.1z M277,272.5c1.3-4.6,3-7.9,5.1-9.9
		c2.1-2,4.6-2.7,7.3-2c2.7,0.7,5.5,3.1,8.4,7c1,1.5,2.1,3.4,3.1,5.7c1.1,2.3,2,4.8,2.9,7.6c0.9,2.8,1.6,5.6,2.1,8.5
		c0.5,2.9,0.9,5.7,1.2,8.4c0.4,4.9,0.3,9.8-0.1,14.7c-0.5,5-1.3,9.7-2.4,14.2c-1.1,4.5-2.5,8.7-4.2,12.7c-1.7,4-3.7,7.3-5.8,10
		c-2.5,3.2-4.1,4.9-4.6,5.2c-0.6,0.3-1.3-0.4-2.1-2c-0.5-1-1.1-2.9-2-5.9c-0.8-3-1.8-6.3-2.8-9.9c-1-3.7-2-7.4-2.9-11.2
		c-0.9-3.8-1.6-7.1-2.1-9.9c-0.8-5.1-1.5-9.5-1.9-13.2c-0.4-3.7-0.7-8.1-0.8-13.2C275.1,282.6,275.7,277,277,272.5z"/>
	<path d="M478.5,330.2c0.8,4.3,1.6,8.5,2.4,12.7c0.8,4.2,1.6,8.1,2.5,11.7c0.8,3.6,1.7,6.8,2.5,9.6c0.8,2.6,1.4,4.1,1.7,4.6
		s1.1,0.9,2.4,1.1c2.5,0.4,5.1,0.4,7.7-0.2c2.6-0.5,4.6-1.3,5.9-2.4c1.3-1,2.1-2.1,2.3-3.2c0.1-0.4,0.1-1.8-0.1-4.4
		c-0.2-2.6-0.4-5.3-0.8-8.3c-0.3-6.2-0.3-11.7,0.1-16.7c0.4-4.9,1.2-10.3,2.5-16.1c0.8-3.8,2-8.1,3.6-12.8c1.5-4.7,3-8.5,4.5-11.3
		c1.5-2.8,3.4-5.8,5.8-9c2.4-3.2,4.3-5.3,5.6-6.3c3.3-2.1,6.5-1.6,9.6,1.6c3.1,3.2,5.7,8.4,7.7,15.7c1.5,5.5,2.2,11.8,2.3,18.9
		c0.1,7.1-0.7,14.5-2.2,22.1c-0.6,2.9-1.1,4.7-1.4,5.3c-0.4,0.7-1.2,1.2-2.6,1.7c-2.2,0.9-4.5,2.2-6.8,3.8c-2.3,1.6-4.4,3.3-6.4,5.2
		c-1.9,1.9-3.7,3.8-5.2,5.8c-1.6,1.9-2.6,3.7-3.1,5.4c-0.8,2.2-1.1,4.9-0.9,8c0.2,3.1,0.9,5.5,2,7.1c1.1,1.7,2.1,2.9,3.2,3.7
		c1.1,0.8,2.4,1.5,4.1,2.2c1.8,0.5,4.1,0.5,6.7,0s5-1.6,7.1-3c5.5-3.6,10.2-8.6,14.2-15.1c4-6.5,6.8-13.8,8.4-22
		c0.2-1.1,0.7-2,1.3-2.7c0.6-0.7,2.1-1.8,4.4-3.3c3.2-1.9,6.1-4.5,8.8-7.6c2.7-3.1,4.8-6.4,6.4-9.7c0.7-1.5,1.4-3.3,2.1-5.4
		c0.1-0.3,0.2-0.7,0.3-1c0.1,1.8,0.2,3.6,0.3,5.3c0.6,9.3,1.6,18,3.1,26.3c0.9,5.1,1.6,8.6,2.2,10.6c0.5,1.9,1.3,3.2,2.1,3.7
		c1.6,1.2,4.5,0.8,8.7-1.4c1.4-0.7,2.5-1.4,3.3-2c0.8-0.6,1.4-1.6,1.8-3.1c0.4-1.4,0.7-3.4,0.8-6.1c0.1-2.6,0.1-6.4,0.1-11.1
		c0.1-13.6,1-24.9,2.7-33.9c1.7-9,4.3-17.2,7.8-24.4c1.9-4.1,4.4-8,7.3-11.7c3-3.7,5.7-6.3,8.2-7.7c0.9-0.4,1.4-0.4,1.5-0.3
		c0.1,0.2,0,0.9-0.4,2.1c-0.5,3,0.2,5.9,2.2,8.6c2,2.7,4.3,4.1,6.9,4.1c1.4,0,2.7-0.5,3.8-1.4c1.1-0.9,2.1-2,2.8-3.5
		c0.7-1.4,1.1-3,1.2-4.6c0.1-1.7-0.2-3.3-1-4.9c-1.6-3.9-4.1-6.3-7.5-7.4c-3.4-1-7.1-0.5-11.1,1.7c-1.8,0.9-3.6,2.2-5.5,4
		c-1.9,1.8-3.8,3.8-5.7,6.1c-1.8,2.3-3.6,4.8-5.2,7.5c-1.7,2.7-3,5.3-4.1,8c-1.2,2.8-2.4,6.3-3.6,10.5c-1.2,4.2-2.2,8.1-3.1,11.8
		c-0.5,2.3-0.8,3.1-0.9,2.4c-0.1-0.7-0.1-4.1,0.1-10.3c0.2-3.5,0.3-7.7,0.6-12.5c0.2-4.8,0.5-8.7,0.8-11.9
		c0.5-6.4,0.6-10.6,0.4-12.7c-0.2-2.1-0.9-3.6-2.1-4.5c-0.9-0.5-2.1-0.8-3.6-0.9c-1.5-0.1-3,0-4.6,0.3c-1.6,0.3-3,0.7-4.4,1.4
		c-1.3,0.6-2.2,1.4-2.8,2.3c-1,1.6-1.8,4.9-2.3,9.9c-0.5,5-0.9,13-1.2,24c0,2.9,0,5.6,0,8.4c-1.4,0.3-2.2,1.2-2.3,2.9
		c-1.8,11.6-4.7,20.1-8.7,25.7c-0.5,0.6-1.2,1.4-2.3,2.4c-1,1-2.1,2-3,2.9c-1,0.9-1.9,1.7-2.7,2.3c-0.8,0.6-1.3,0.9-1.5,0.7
		c-0.2-0.2-0.2-1-0.1-2.5c0.1-1.5,0.2-3.4,0.3-5.5c0.2-2.9,0.3-6.1,0.3-9.8c0-3.6-0.2-7.3-0.5-11c-0.3-3.7-0.7-7.2-1.3-10.7
		c-0.5-3.4-1.1-6.1-1.7-8.2c-1.7-6-4.2-11-7.3-14.9c-3.2-3.9-6.6-6.1-10.2-6.6c-4.2-0.6-8.6,0.3-13.3,2.6
		c-4.7,2.4-9.1,5.9-13.2,10.6l-4.7,5.6l2.9-5.1c1.9-3.6,3.7-7.7,5.3-12.4c1.6-4.7,2.7-8.9,3.2-12.5c0.5-2.4,0.7-4.5,0.8-6.5
		c0.1-2-0.1-4.7-0.5-8.2c-0.2-2.1-0.5-3.8-0.7-5c-0.2-1.2-0.4-2.3-0.6-3.1c-0.2-0.9-0.5-1.6-0.9-2.3c-0.4-0.7-1-1.6-1.6-2.8
		c-1.7-2.8-3.6-4.9-5.6-6.2c-2-1.3-4.4-2.2-7.1-2.8c-4.5-0.9-8.9-0.4-13.1,1.7c-4.2,2.1-7.9,5.3-10.9,9.7
		c-12.6,16.8-15.6,46.3-9.1,88.4C477,321.8,477.7,325.9,478.5,330.2z M539.1,353.8c-0.6,1.2-1.4,2.7-2.3,4.4c-1,1.7-2,3.5-3.2,5.3
		c-1.1,1.8-2.3,3.4-3.3,4.8c-1.3,1.6-2.4,2.9-3.6,4.1c-1.1,1.2-1.8,1.8-2.2,1.8c-0.9,0.1-1.3-0.1-1.4-0.5c0-0.4,0.2-1.9,0.8-4.5
		c0.4-2.5,1.7-5.1,3.7-7.6c0.8-0.8,1.8-1.8,3.1-3c1.3-1.2,2.5-2.4,3.8-3.5c1.2-1.1,2.3-2,3.3-2.6c1-0.6,1.6-0.9,1.8-0.7
		C539.9,351.9,539.7,352.6,539.1,353.8z M510.4,292.5c-1.6,3.4-3.2,7.6-4.9,12.8c-1.7,5.2-3.1,10.4-4.1,15.6
		c-0.4,1.6-0.6,3.4-0.9,5.4c-0.2,2-0.4,3.7-0.6,5.1c-0.3,2.2-0.5,3.4-0.5,3.7c-0.1,0.3-0.3,0-0.8-0.9c-0.2-0.7-0.6-2.5-1.1-5.5
		c-0.5-3-1-6.2-1.6-9.7l-1.7-13.1l4.6-3.7c1.3-1,2.9-2.5,4.8-4.5c1.9-2,3.5-3.8,5-5.3l5.1-6.1L510.4,292.5z M492.4,264.9
		c0.1-5.2,0.2-9.2,0.4-12c0.8-5.9,2-11.3,3.6-16c1.6-4.7,3.6-8.2,5.8-10.6c2.2-2.2,4.8-3,7.6-2.4c2.8,0.6,5.3,2.5,7.4,5.6
		c1.1,1.7,1.8,3.1,2.1,4.3c0.3,1.2,0.7,3.7,1.1,7.3c0.4,3.5,0.5,6.2,0.5,8.1c-0.1,1.9-0.4,4.1-1,6.6c-1.7,7.6-4.4,14.9-8,21.8
		c-3.7,6.9-8.1,12.6-13.3,17.3c-1.3,1-2.4,1.9-3.2,2.7c-0.8,0.8-1.3,1.2-1.5,1.2c-0.4,0-0.6-1.8-0.9-5.5c-0.2-3.7-0.4-8.1-0.5-13.1
		C492.3,275.2,492.3,270.1,492.4,264.9z"/>
	<path d="M670.8,242.6c1.7,1.2,3.8,1.7,6.3,1.6c2.5-0.1,4.5-0.8,6-2.1c3.4-2.8,5.3-6.2,5.8-10.2c0.5-4-0.7-7.6-3.5-10.6
		c-1-1-1.9-1.6-2.7-1.9c-0.8-0.3-2.1-0.6-4.1-0.9c-1.9-0.3-3.3-0.4-4.2-0.3c-0.9,0.1-1.9,0.5-3,1.1c-1.7,1.1-3.2,2.4-4.5,3.9
		c-0.8,1-1.3,1.9-1.5,2.8c-0.2,0.9-0.3,2.4-0.3,4.5C664.8,235.5,666.7,239.5,670.8,242.6z"/>
	<path d="M940.7,357.3c-1.4-0.6-2.7,0.3-4,2.4c-4.1,6.3-8.2,11.7-12.2,16.2c-4,4.5-8.4,8.4-13.2,11.7l-5.1,3.6l2.7-8.3
		c0.7-2,1.4-4.6,2.2-7.6c0.8-3.1,1.7-6.2,2.6-9.5c0.9-3.2,1.7-6.4,2.4-9.4c0.7-3,1.3-5.5,1.7-7.4c1.2-5.4-0.3-8.7-4.5-10.1
		c-1.9-0.6-4.2-0.8-6.9-0.6c-2.8,0.2-4.7,0.7-5.9,1.4c-0.5,0.2-1.6,1.4-3.3,3.6c-1.8,2.2-3.8,4.8-6.1,7.8
		c-12.7,16.8-23.3,27.3-31.9,31.3l-3.7,1.8l-0.6-4.1c-0.9-5.1-0.9-10.8-0.1-16.9c0.8-6.1,2.2-12.2,4.1-18.3
		c1.9-6.1,4.3-11.8,7.2-17.1c2.9-5.4,6.1-9.7,9.6-13c2.2-2.1,4.9-4,8-5.7c3.2-1.7,5.2-2.5,6-2.2c1.7,0.6,3,2.3,3.9,5.2
		c0.9,2.9,1.3,6.7,1.3,11.3c0,2.8,0.2,4.7,0.6,5.8c0.4,1.1,1.2,1.6,2.3,1.6c1.6-0.2,2.5-2.3,2.8-6.3c0.3-4-0.1-8.2-1.3-12.7
		c-1.2-4.9-3.8-9-7.7-12.3c-3.9-3.3-8.3-5.1-13.1-5.2c-4.2-0.1-8.8,1.6-13.6,5c-4.9,3.4-9.7,8.3-14.6,14.7c-2.9,4-5.5,8.2-7.7,12.7
		c-0.1-0.5-0.2-1-0.5-1.3c-0.6-0.9-1.4-1.1-2.6-0.6c-0.4,0.1-0.8,0.7-1.4,1.6c-0.5,1-1.1,2.1-1.7,3.5c-1.5,4-3.3,8.7-5.5,13.9
		c-2.2,5.2-4.4,10.5-6.6,15.6c-2.2,5.2-4.3,9.8-6.2,13.9c-1.9,4.1-3.4,7.1-4.4,8.9c-2.1,3.7-4.1,6.8-5.9,9.3c-1.8,2.5-2.8,3.3-3,2.5
		c-0.6-1.5-0.9-4.8-0.9-9.9c0-5,0.3-10.3,1-15.7c0.3-3.7,1-8.3,1.9-13.6c1-5.4,2.2-11.1,3.5-17c1.4-5.9,2.8-12,4.4-18.2
		c1.6-6.2,3.1-11.8,4.6-16.9c1.5-5.3,2.7-9.8,3.7-13.6c1-3.8,1.8-8.4,2.6-13.8c0.7-3.8,1.2-6.9,1.4-9.3c0.3-2.4,0.3-4.3,0.2-5.7
		c-0.1-1.5-0.4-2.7-0.8-3.8c-0.4-1.1-1.1-2.2-1.9-3.4c-2.6-3.3-6.8-5.2-12.5-5.5c-2.9,0-5.3,0.3-7.4,0.8c-2.1,0.5-4.8,1.6-8.2,3.4
		c-8.3,4.2-17.4,13.1-27.2,26.5c-9.8,13.5-19.2,30.1-28.2,50c-2.9,6.3-4.7,9.9-5.2,10.8c-0.5,0.9-0.8,0.4-0.8-1.4
		c0.1-0.5,0.3-1.6,0.6-3.3c0.3-1.6,0.7-3.8,1.2-6.4c0.5-2.6,1.1-5.5,1.7-8.8c0.7-3.3,1.4-6.7,2-10.1c2-10,3.6-18,4.7-23.8
		c1.1-5.8,1.9-10.3,2.3-13.4c0.4-3.2,0.5-5.4,0.2-6.8c-0.3-1.4-0.8-2.6-1.5-3.6c-0.7-0.9-1.9-1.6-3.4-2.2c-1.5-0.6-3-1-4.6-1.2
		c-1.6-0.2-3.2-0.2-4.7,0.1c-1.6,0.3-2.7,0.8-3.4,1.5c-0.4,0.5-1,1.8-1.7,4.1c-0.7,2.3-1.5,5.2-2.4,8.8c-0.9,3.6-1.8,7.7-2.8,12.3
		c-0.9,4.6-1.8,9.4-2.8,14.4c-0.4,2-0.7,4-1,5.9c-0.2,0-0.3,0.1-0.5,0.1c-0.6,0.3-1,1-1.5,2.2c-0.4,1.1-1,3.3-1.8,6.6
		c-1.1,5.1-2.5,10.5-4.2,16.4c-1.7,5.9-3.6,11.7-5.6,17.3c-2,5.6-4,10.8-6,15.5c-2,4.7-3.8,8.5-5.4,11.2c-2,3.4-3.7,5.8-5,7.2
		c-1.3,1.4-3,2.5-5,3.2l-3.6,1.6l-1.4-2.2c-1.6-2.1-2.9-5.6-3.9-10.8c-1-5.1-1.6-11.4-1.7-18.8c0-2.3,0.2-6.7,0.7-13.2
		c0.5-6.5,1-13.7,1.8-21.5c0.7-7.8,1.5-15.7,2.3-23.6c0.8-7.9,1.6-14.4,2.3-19.5c0.4-3.5,0.8-6.4,1-8.7c0.2-2.3,0.2-4.1,0-5.6
		c-0.3-1.4-0.8-2.5-1.5-3.3c-0.7-0.8-1.7-1.4-2.9-1.8c-1.9-0.8-4.2-1-6.9-0.5c-1.6,0.2-2.9,0.5-3.9,0.8c-1,0.3-1.8,0.8-2.4,1.6
		c-0.6,0.8-1.1,1.8-1.4,3.2c-0.4,1.4-0.8,3.2-1.3,5.5c-1.1,5.2-2.1,11.6-3.1,19.2c-1,7.5-1.8,15.1-2.4,22.8
		c-0.6,7.7-1.1,14.9-1.4,21.8c-0.3,6.9-0.3,12.3-0.1,16.2c1.2,21,6.9,34.6,17.1,40.7c2.2,1.2,4.7,2,7.4,2.4c2.7,0.4,5.2,0.2,7.3-0.6
		c1.8-0.8,3.9-2.2,6.1-4.4c2.3-2.1,4.3-4.7,6.1-7.5c1.8-3.1,4-7.7,6.7-14c2.6-6.3,5.2-13,7.5-20.1c1-2.9,1.9-5.8,2.7-8.6
		c-0.5,7.4-0.5,13.9,0,19.3c0.5,4.4,1,7,1.5,7.9c0.6,0.9,2.3,1.3,5.2,1.1c4.9-0.2,8.1-1.3,9.8-3.3c0.4-0.3,1.2-1.7,2.4-4.3
		c1.2-2.6,2.5-5.4,4-8.6c7.7-18.7,15.5-34.7,23.3-48c7.8-13.3,15.7-24.2,23.8-32.8c3.8-4,7.6-7.1,11.4-9.5c3.8-2.4,6.5-3.1,8-2.3
		c1.1,0.6,1.8,2.4,1.9,5.6c0.1,3.2-0.2,7.4-1,12.6c-0.8,5.2-2,11.3-3.6,18.3c-1.6,7-3.5,14.4-5.7,22.3c-5.1,17.4-8.5,32.3-10.2,44.7
		c-1.6,12.4-1.6,22.2,0.2,29.1c1.7,6.6,4.1,11.1,7.2,13.4c1.8,1.2,3,1.9,3.8,2.2c0.8,0.2,2.2,0.1,4.3-0.4c3.8-1.1,7.7-4.7,11.8-10.6
		c4.1-6,8.8-15.3,14.4-27.9c2.3-5.5,4.4-10.5,6.4-15.2c-0.1,0.7-0.3,1.4-0.5,2.1c-1.2,6.5-1.6,12.5-1.1,18.1
		c0.5,5.6,1.9,10,4.3,13.4c0.7,0.8,1.5,1.6,2.5,2.5c1,0.9,2,1.7,2.9,2.3c11.6,6.6,27-1.7,46.3-25.1l4.7-5.7l-0.8,3.9
		c-0.4,1.7-1.3,5.5-2.8,11.2c-1.5,5.7-3.2,13-5.3,21.8c-0.3,1-0.7,1.8-1,2.5c-0.3,0.6-0.9,1.2-1.9,1.6c-1,0.4-2.5,0.8-4.6,1.1
		c-2.1,0.3-5,0.8-8.7,1.4c-11.3,1.6-20.3,3.6-26.9,5.8c-6.6,2.2-12.2,5.1-17,8.7c-3.5,2.7-6.1,5.2-7.6,7.5c-1.6,2.3-3,5.4-4.4,9.4
		c-3.3,11-1.8,19.6,4.4,25.7c1.4,1.4,2.7,2.3,3.8,2.8c1.2,0.5,3.5,1.2,7.1,2.2c1.8,0.6,3.3,1.1,4.5,1.3c1.1,0.3,2.2,0.4,3.2,0.5
		c1,0.1,2,0.1,3.1,0c1,0,2.5-0.2,4.2-0.5c4.5-0.6,8.5-1.5,12-2.9c3.5-1.3,6.9-3.1,10.2-5.1c2.9-2,6-4.7,9.4-8.1
		c3.3-3.4,6.2-6.7,8.6-10c1.4-2,3-4.5,4.9-7.6c1.9-3.1,3.7-6.4,5.5-9.8c1.8-3.4,3.4-6.8,4.9-10.1c1.5-3.3,2.6-6.2,3.5-8.8
		c0.5-1.5,1-2.6,1.6-3.2c0.6-0.6,2.1-1.7,4.6-3.1c3.4-1.8,7.2-4.4,11.3-7.7c4.2-3.3,7.5-6.4,9.9-9.3c1.2-1.3,2.4-2.8,3.7-4.5
		c1.3-1.7,2.5-3.4,3.6-5.1c1.1-1.7,2.1-3.2,2.9-4.6c0.8-1.4,1.4-2.4,1.6-3.1C942.4,359.3,942.1,357.8,940.7,357.3z M881.5,406.4
		c-0.3,1.2-0.9,2.7-1.9,4.4c-2.8,6.7-6,12.9-9.8,18.5c-3.7,5.6-7.7,10.5-11.8,14.6c-4.2,4.1-8.4,7.4-12.7,9.7
		c-4.3,2.4-8.6,3.6-12.7,3.8c-2.1,0.1-4.2-0.3-6.4-1c-2.2-0.7-3.8-1.6-4.9-2.8c-4.6-4.7-5.4-11.4-2.6-20.1c0.9-2.9,1.7-4.8,2.4-5.9
		c0.6-1.1,1.9-2.6,3.9-4.6c2.2-2.2,4.6-4.2,7.1-5.9c2.5-1.7,5.4-3.1,8.8-4.3c3.4-1.2,7.3-2.3,11.7-3.4c4.4-1,9.7-2,15.8-3
		c3.3-0.4,6.2-0.8,8.8-1.1c2.5-0.4,4-0.6,4.4-0.6C881.8,404.7,881.8,405.2,881.5,406.4z"/>
	<path d="M340.7,838.2c5.6-2.2,11-4.8,16.5-7.3c3.5-1.6,4.3-4.8,2.2-8c-1.2-1.9-3-2.9-5.2-2.8c-3.5,0.1-7,0.2-10.5,0.7
		c-8,1.1-15.7,3.8-23.3,6.4c-7.8,2.6-15.7,5.1-23.5,7.6c-1.1,0.3-2.4,0.5-3.4,0.2c-3.5-1.1-6.8-0.6-9.8,1.3c-5,3.1-10,6.4-14.9,9.6
		c-4.4,2.9-8.8,5.9-13.2,8.8c-0.9,0.6-1.9,1-2.9,1.5c-1.5-4.1-3-7.9-4.4-11.8c-3.7-10.3-7.6-20.5-10.9-30.9
		c-3.7-11.6-5.4-23.8-7.6-35.7c-2.5-14-6.5-27.5-12.7-40.4c-3.1-6.5-6.1-13-9-19.5c-2.9-6.6-5.6-13.4-10.5-19.4
		c1.2-0.5,2-0.8,2.9-1.1c18.5-5.9,37-11.9,55.6-17.7c12.6-4,25.4-7.7,38-11.8c12.8-4.2,24.9-10.1,37.1-15.8
		c4.7-2.2,9.5-4.3,14.4-6.1c-3.9-3.1-7.1-6.2-9.8-9.4c-5.7,1.5-11.3,3.3-16.8,5.1c-11,3.7-22,7.7-33.2,11c-33,9.6-66,19.4-98.5,30.7
		c-3.4,1.2-6.8,2.3-10.1,3.6c-3.9,1.5-6,4.6-6.3,8.6c-0.3,3.9,1.9,6.3,5.3,7.9c3.2,1.5,6,3.7,8.1,6.5c2.3,3.2,4.5,6.5,6.4,9.9
		c2.4,4.2,4.4,8.6,6.6,12.9c4.8,9.2,9.1,18.5,12.4,28.3c0.4,1.1,0.7,2.2,1,3.4c-0.8,0.3-1.4,0.4-2,0.6c-3.9,1.4-7.8,2.6-11.6,4.2
		c-7.4,3.1-14.1,7.4-20.7,11.9c-11.4,7.6-22.3,16-34.5,22.4c-3.3,1.7-4.4,5.4-3.2,9.1c0.9,2.8,2.7,4.9,5.5,5.9
		c7.7,2.7,13.8,7.6,18.9,13.8c3.2,3.9,6.2,7.9,9.3,11.9c6.4,8.6,13.2,16.8,21.3,23.8c1.6,1.4,1.9,2.7,1.7,4.7
		c-1,7.7-2,15.5-2.9,23.2c-0.9,8.2-0.5,16.3,2.7,24.1c0.7,1.8,1.3,3.7,2,5.6c2.3,6.3,3.8,12.7,3,19.5c-0.3,2.9,1,5.2,3.7,6.6
		c0.7,0.3,1.3,0.9,1.9,1.4c1,1.1,2.3,1.6,3.8,1.8c6.4,0.6,12.7-0.1,19-1.5c17.9-4.1,34-12.3,48.5-23.5c1.3-1,2.6-1.9,4-2.7
		c9-5.3,18.2-10.4,27.1-16c9.4-5.9,19.2-11.5,26.7-20.1c2-2.3,3.1-4.6,2.3-7.6c-0.7-2.3-1.5-4.6-2.6-6.7c-1.7-3-3.8-5.9-5.8-8.7
		c-4.3-6-8.7-11.9-13-17.8c-0.4-0.5-0.7-1.2-1.1-1.8c0.7-0.3,1.2-0.4,1.7-0.6C324.3,844.4,332.5,841.4,340.7,838.2z M290.7,853.7
		c2.5,7.4,7.1,13.9,11.8,20.5c-2.8,0.7-4.7,0.1-6.3-2c-3.4-4.6-6.9-9.1-10.4-13.7c-0.5-0.7-0.9-1.5-1.5-2.3
		C286.2,854.5,288.1,853.4,290.7,853.7z M279.4,859.3c2.4,4.9,4.7,9.7,7.1,14.7c-1.6,0.4-2.9,0.2-4.5-1c-3.3-2.6-6.1-5.7-8.6-9.5
		C275.4,862.1,277.4,860.7,279.4,859.3z M268.5,867c0.8,2.5,1.6,4.8,2.4,7.3c-4.5,0.3-8.7-0.1-12.9-1.4
		C261.5,871,264.8,869.1,268.5,867z M301.6,894.5c-9.3,5.4-18.6,10.8-27.9,16.3c-2.4,1.4-4.9,2.7-7.2,4.3c-1.5,1-2.7,2.3-4.1,3.4
		c-0.9,0.7-1.8,1.5-2.7,2.1c-6.6,4.3-13.7,7.4-20.9,10.3c-6.6,2.7-13.2,5.6-19.8,8.4c-0.3,0.1-0.7,0.2-1.2,0.3
		c-0.2-8.6-2.8-16.5-5.2-24.5c-1.4-4.7-2.6-9.5-3-14.5c-0.5-5.7,0.6-11.3,1.5-16.8c0.8-4.8,1.4-9.6,0.8-14.5
		c-0.6-4.9-2.7-9-6.9-11.7c-5.6-3.6-10-8.4-13.6-13.9c-2.4-3.7-4.7-7.4-7-11.2c-5.2-8.6-11.6-16.2-19.7-22.2
		c-0.3-0.2-0.7-0.3-1.5-0.5c17.6-11.7,33.1-24.7,49.5-37.2c0.5,2.3,0.9,4.1,1.2,5.9c0.3,1.8,0.5,3.7,0.8,5.8c-3,0.3-4.7,2.4-6.7,4.2
		c-4.7,4.4-9.5,8.7-14.2,13.2c-1.9,1.9-3.7,3.9-5.4,6c-0.5,0.5-0.9,1.2-1.1,1.8c-0.3,1.2,0.1,2.1,1.1,2.8c0.9,0.6,1.8,0.4,2.5-0.3
		c5.5-5.7,12.8-8.9,19.4-12.9c1.8-1.1,3.6-2.3,5.7-3.8c0.3,1.8,0.5,3.3,0.7,4.5c-3.5,2.4-6.9,4.6-10.1,7c-4.2,3.1-7.8,6.9-10.8,11.2
		c-0.5,0.7-1,1.6-1.1,2.4c-0.1,1.9,2.5,3.2,4.2,2.1c0.6-0.4,1.1-0.9,1.6-1.4c5.3-4.8,11.1-8.7,18.1-11.3c0.3,1.4,0.6,2.7,0.9,3.6
		c-3.8,3.2-7.5,6-10.9,9.2c-2.2,2-4,4.4-5.8,6.7c-1.1,1.5-1.1,2.7-0.2,3.7c0.9,1.1,2.4,1.5,3.9,0.7c2.7-1.5,5.4-3.2,8.1-4.8
		c2.5-1.6,4.9-3.2,7.7-5c0.7,2.3,1.4,4.3,2,6.2c-2.9,2.7-5.7,5.2-8.4,7.7c-0.3,0.2-0.5,0.5-0.8,0.8c-1.9,1.9-2.2,3.6-1,5.2
		c1,1.3,3,1.9,5.3,0.3c2.5-1.7,5.2-3.2,8.1-4.9c0.9,2.4,1.8,4.7,2.8,7.3c-3.6,0.3-5.3,2.8-7.2,5c-1.1,1.3-0.8,3.1,0.3,4.1
		c1.2,1.1,2.8,1.2,4.1,0c1.5-1.3,2.8-2.8,4.5-4.5c0.7,1.9,1.3,3.5,2,5.4c-1.7,1.4-3.4,2.8-5,4.3c-1.8,1.7-1.8,3.7-0.1,5.4
		c1.2,1.2,2.6,1.4,4.2,0.6c0.6-0.3,1.2-0.7,1.9-1.1c0.5-0.3,1.1-0.6,1.8-0.9c0.5,1.5,0.9,2.7,1.2,4c0.5,2.2,1.6,4,3.3,5.4
		c0.7,0.6,1,1.5,1.5,2.3c-2.6,2.2-5,4.1-7.1,6.3c-3.8,3.8-7.5,7.7-11.2,11.6c-0.5,0.6-1,1.3-1.3,2c-0.4,1.1-0.2,2.2,0.8,2.9
		c1,0.7,2,0.7,3,0c0.6-0.4,1.1-0.9,1.7-1.4c6.2-5.3,13.1-9.7,20.2-13.8c0.5-0.3,1.2-0.5,1.7-0.4c2.6,0.9,5.2,1.9,8,3
		c-0.8,0.7-1.3,1.4-2,1.9c-4.9,4-9.9,8.1-14.8,12.1c-0.6,0.5-1.2,0.8-1.6,1.4c-0.3,0.4-0.4,1.2-0.2,1.6c0.1,0.3,0.9,0.4,1.4,0.4
		c0.2,0,0.5-0.2,0.7-0.3c6.6-3.2,13.2-6.4,19.8-9.7c2.6-1.3,5.2-2.9,7.6-4.5c1.4-0.9,2.6-1,4.3-0.2c-0.9,0.6-1.6,1.1-2.3,1.6
		c-13.9,9.2-26.9,19.7-39.5,30.6c-0.3,0.3-0.8,0.6-0.9,0.9c-0.2,0.5-0.3,1.3-0.1,1.7c0.3,0.4,1.1,0.6,1.6,0.5
		c0.8-0.2,1.4-0.7,2.1-1.1c10.6-6.3,21-12.7,31.7-18.8c4.3-2.5,9-4.4,13.6-6.4c4.4-1.9,8.8-3.7,12.4-6.9c0.4-0.3,1-0.6,1.4-0.6
		c3.3,0.2,6.6,0.5,9.8,0.8c0,0.2,0.1,0.4,0.1,0.5C303.2,893.5,302.4,894,301.6,894.5z M316.5,875.6c-1.5,0.4-2.3,0-3.2-1
		c-2.1-2.5-4.2-4.9-6.4-7.2c-3.9-4.2-6.7-9-8.9-14.2c-0.1-0.2-0.1-0.5-0.1-0.9c1.7-0.4,3.5-0.8,5.4-1.2
		C305.2,860.6,311.5,867.7,316.5,875.6z"/>
	<path d="M932.8,802.7c-7.9-4-15.2-9.2-22.5-14.2c-6.7-4.5-13.3-9.1-20.2-13.4c-7.4-4.6-15.3-8.3-23.8-10.4
		c-0.4-0.1-0.8-0.4-1.2-0.6c0.4-1.4,0.8-2.7,1.3-3.9c5.4-15.9,13.6-30.4,21.4-45.2c2.9-5.4,7.3-9.5,12.8-12.3
		c3.7-1.9,5.1-4.9,4.2-8.9c-0.7-3.1-2.6-5.5-5.6-6.9c-1-0.5-2-0.8-3-1.1c-22.4-8-45-15.3-67.7-22.1c-15.2-4.5-30.5-8.8-45.6-13.5
		c-12.2-3.8-24.2-8-36.3-12c-1,2.4-2,4.8-3.2,7.1c-0.8,1.5-1.9,2.8-3.2,4l-0.9,0.8c1.5,0.3,2.9,0.6,4.3,1.2
		c9.9,4.3,19.6,8.9,29.5,13c12.9,5.4,26.5,8.8,39.9,13c20.9,6.5,41.7,13.2,62.5,19.8c0.9,0.3,1.7,0.7,2.8,1.1
		c-3.9,4.7-6.4,9.8-8.7,15c-2.1,4.9-4.3,9.6-6.5,14.5c-3.5,8-7.2,15.8-10.4,23.9c-4.2,10.8-6.1,22.3-8.2,33.7
		c-2.1,11.1-3.9,22.3-7.6,33c-4.3,12.4-9,24.8-13.5,37.1c-0.1,0.2-0.2,0.3-0.6,0.6c-6.3-3.1-11.8-7.2-17.4-11.3
		c-0.4-0.3-0.7-1-0.9-1.6c-0.4-2-1.6-3-3.4-3.9c-9-4.3-18.4-7.5-28-10.1c-12.2-3.3-24.5-6.3-36.6-9.8c-24.8-7.1-50-12.1-75.9-12.5
		c-11.6-0.2-23-1.8-34.1-5.5c-8.3-2.8-16.8-3.6-25.1,0.6c-1.1,0.6-2.4,0.4-3.6,0.2c-3.3-0.5-6.6-0.9-9.9-1c-9.5-0.2-18.1,3-26.8,6.4
		c-1.8,0.7-2.5,2.2-2,3.9c0.5,1.6,1.9,2.6,3.7,2.4c1.5-0.1,3-0.6,4.5-0.7c4.7-0.5,9.4-1.1,14.2-1.3c5.2-0.2,10.1,1,14.3,4.4
		c2.3,1.9,4.9,2,7.6,0.9c0.5-0.2,1-0.4,1.5-0.7c4.9-2.4,10-2.8,15.2-1.2c2.6,0.8,5.1,1.8,7.6,2.6c3.4,1.1,6.8,2.2,10.3,3
		c6.3,1.4,12.8,1.3,19.3,1.5c15.2,0.5,30.3,1.4,45.2,4.4c8,1.6,15.8,3.7,23.3,7.2c11,5.2,22.4,9.7,34,13.4c0.5,0.2,0.9,0.4,1.5,0.7
		c-0.4,0.7-0.7,1.2-1.1,1.7c-4.2,5.7-8.4,11.4-12.5,17.2c-2,2.8-4.1,5.5-5.8,8.4c-1.4,2.4-2.3,5-3.2,7.7c-0.7,2.1-0.4,4.2,0.9,5.9
		c1.9,2.3,3.8,4.8,6.2,6.6c6.8,5.1,13.7,10.1,20.9,14.6c9.2,5.8,18.7,11.1,28,16.6c1.2,0.7,2.3,1.4,3.4,2.2
		c10.6,8.4,22.2,14.8,34.8,19.6c9.7,3.7,19.7,6.2,30.1,6.1c2.9,0,5.8,0.1,7.7-2.8c0.1-0.2,0.4-0.3,0.7-0.4c3.6-1.6,4.6-4.5,4.2-8.1
		c-0.5-4.5,0.1-9,1.5-13.3c1.3-4.1,2.7-8.2,4.1-12.2c1.9-5.6,2.9-11.3,2.4-17.2c-0.3-4.6-0.8-9.1-1.3-13.7c-0.6-5.3-1.3-10.5-2-15.7
		c-0.2-1.3,0.1-2.2,1.2-3c8.7-7.5,15.9-16.3,22.7-25.4c3.3-4.4,6.7-8.7,10.3-12.8c4.6-5.3,10.2-9.3,16.9-11.7
		c0.3-0.1,0.5-0.2,0.8-0.3c3.3-1.7,5.2-4.4,5.4-8.1C937.8,806.5,935.9,804.3,932.8,802.7z M807.1,867c3.6,2,6.9,4,10.8,6.1
		c-4.5,1.3-8.7,1.2-13.3,1.2C805.5,871.7,806.2,869.5,807.1,867z M802.1,863.5c-2.5,4.4-5.8,7.6-9.6,10.3c-0.8,0.6-2.2,0.4-3.6,0.5
		c2.5-5.2,4.7-10,7.2-15.1C798.2,860.7,800.2,862.1,802.1,863.5z M791.2,856.4c-2.9,3.9-5.7,7.9-8.7,11.8c-1.1,1.4-2.3,2.8-3.4,4.1
		c-2.1,2.4-2.2,2.4-6.1,1.9c4.6-6.5,9.2-12.9,11.8-20.5C788.1,853.8,788.6,854,791.2,856.4z M762.3,874.5c-0.8,1.1-1.7,1.5-3.2,1.1
		c4.9-7.9,11.3-15,13.2-24.7c2.1,0.5,3.7,0.9,5.5,1.3c-0.3,0.8-0.4,1.5-0.7,2.1c-2.5,5.4-5.6,10.4-9.9,14.5
		C765.4,870.6,763.8,872.6,762.3,874.5z M910.4,810.8c-7,5.3-12.8,11.8-17.5,19.2c-2.9,4.6-5.8,9.3-8.8,13.9
		c-3.6,5.5-8,10.3-13.6,13.9c-5,3.2-7.1,8.3-7.1,14c0,4.5,0.8,9.1,1.2,13.6c0.4,3.4,1,6.7,1.3,10.1c0.4,5.9-0.8,11.6-2.3,17.2
		c-1.6,5.9-3.3,11.7-4.8,17.6c-0.7,2.9-0.9,6-1.3,9.3c-2-0.9-3.7-1.8-5.6-2.5c-6.9-2.9-14-5.6-20.8-8.7c-5.4-2.5-10.5-5.4-15.7-8.2
		c-0.7-0.4-1.5-0.8-1.9-1.4c-1.7-2.5-4.2-3.8-6.7-5.3c-10.8-6.3-21.7-12.6-32.5-19c-0.9-0.5-1.8-1.2-3.2-2.1c1.8-0.2,3-0.4,4.2-0.5
		c2.1-0.2,4.4-0.8,6.4-0.4c1.9,0.4,3.4,2.2,5.2,3.2c2.4,1.3,4.7,2.6,7.2,3.5c8.4,3.2,16.3,7.4,24,12c7.6,4.5,15.2,9.2,22.7,13.8
		c0.7,0.4,1.4,0.9,2.1,1.1c0.5,0.1,1.3-0.2,1.6-0.5c0.3-0.4,0.2-1.2-0.1-1.6c-0.4-0.7-1.1-1.1-1.7-1.7
		c-12.8-10.9-25.9-21.6-40.1-30.8c-0.2-0.1-0.4-0.3-0.8-0.7c1.3-0.8,2.4-1,3.6-0.2c8.7,5.9,18.5,9.5,27.7,14.3
		c0.3,0.2,0.7,0.5,1,0.4c0.6-0.1,1.2-0.2,1.6-0.6c0.2-0.2,0-1-0.2-1.4c-0.4-0.6-1.1-0.9-1.6-1.4c-4.9-4-9.7-7.9-14.6-11.9
		c-0.7-0.6-1.4-1.3-2.4-2.1c3-1.1,5.6-2.2,8.3-3.1c0.5-0.2,1.2,0.2,1.7,0.5c7.3,4.2,14.4,8.8,20.8,14.3c0.3,0.3,0.7,0.6,1,0.8
		c1,0.6,2.1,0.6,3-0.2c1-0.9,1.2-2,0.6-3.2c-0.4-0.7-0.9-1.3-1.4-2c-4.4-5.6-9.6-10.4-15-15c-0.6-0.5-1.2-1-1.8-1.6
		c-1.1-1-1.3-2.2-0.3-3c3-2.1,3.7-5.3,4.6-8.5c0.1-0.4,0.4-0.8,0.6-1.4c1.2,0.7,2.2,1.3,3.3,1.9c1.9,1,3.8,0.6,4.9-1.1
		c1.1-1.6,0.9-3.3-0.7-4.8c-1.5-1.4-3.1-2.6-4.9-4.1c0.6-1.7,1.2-3.4,1.9-5.4c1.6,1.5,2.8,2.8,4.2,4c1.6,1.4,3.2,1.5,4.5,0.2
		c1.3-1.3,1.3-2.9-0.1-4.5c-1.8-2.1-3.5-4.4-6.8-4.5c1-2.6,1.9-4.9,2.8-7.3c3.1,1.8,6,3.6,8.9,5.3c2.1,1.2,4,0.5,4.9-1.5
		c0.7-1.5,0.3-2.8-0.9-3.9c-3-2.7-6-5.4-9-8.1c-0.2-0.2-0.4-0.4-0.8-0.7c0.6-2,1.2-4,2-6.3c1,0.6,1.8,1,2.6,1.5
		c3.7,2.4,7.3,4.8,11.1,7.2c0.9,0.6,1.9,1.1,2.9,1.4c1.3,0.4,2.5-0.1,3.3-1.2c0.8-1,0.6-2.1-0.1-3c-1.8-2.3-3.6-4.8-5.7-6.8
		c-3.5-3.3-7.3-6.3-11.3-9.6c0.2-0.9,0.5-2.1,0.9-3.8c2.9,1.5,5.7,2.5,8.1,4.2c3.6,2.4,7,5.2,10.5,7.9c0.9,0.7,1.6,1.4,2.8,1.2
		c1.9-0.3,2.9-2,2.1-3.8c-0.3-0.6-0.7-1-1.1-1.6c-5.3-7.1-11.9-12.7-19.7-16.8c-0.3-0.2-0.6-0.4-1-0.6c0.2-1.5,0.5-3,0.8-4.7
		c0.7,0.4,1.2,0.6,1.7,0.9c3.6,2.2,7.2,4.4,10.8,6.5c4.4,2.5,8.7,5,12.3,8.7c0.9,0.9,1.9,1.4,3.1,0.5c1.1-0.8,1.4-2.3,0.6-3.6
		c-0.4-0.6-0.8-1.2-1.3-1.7c-3.3-3.4-6.6-6.9-10-10.2c-3.4-3.3-7-6.4-10.5-9.7c-1.4-1.3-2.8-2.6-5-2.5c0.1-4,1-7.7,1.9-11.9
		c1,0.8,1.8,1.3,2.5,1.9c10,7.8,19.9,15.6,30,23.2c4.7,3.6,9.6,6.9,14.4,10.3c0.6,0.4,1.1,0.8,1.9,1.4
		C911.2,810.1,910.8,810.5,910.4,810.8z"/>
	<path d="M162.8,550.1c-3,0.7-6.1,1.7-8.8,3.2c-3.8,2.1-4.2,5.9-1.2,9.1c0.7,0.7,1.5,1.3,2.2,2c8.4,7.2,17.4,13.7,27.2,18.9
		c1.1,0.6,2.1,1.4,3.3,2.2c-4.2,7.1-8.4,13.8-12.2,20.8c-1.7,3.1-3.2,6.6-3.7,10.1c-1,6.3,2.8,9,9.1,7.5c18-4.3,36-8.5,54.1-12.5
		c12.6-2.8,25.2-5.2,37.8-7.8c6.1-1.2,10.7-4.5,14.5-9.6c4.4-6,8.9-11.9,12-18.7c0.7-1.5,1.7-2.8,2.6-4.2c2.6-4.4,6.2-6.7,11.6-7.2
		c13.3-1.4,26.5-3.6,39.8-5.2c20.2-2.4,40.5-4.1,60.8-5.3c3.8,3.2,7.6,6,11.2,8.1c-17.4,26.2-49.7,36.5-84.9,51.7
		c12.9,47.2,121.9,57.1,192.5,40.2c64.6-13.5,132.5-28.7,198.5-12.6l2.1-1.7c21.2-39.9-8.2-98-46.2-127.8
		c34.7,8.2,68.9,18.2,102.6,30.2c1.1,0.4,2.1,1,3.9,2c-5.3,2.9-9.8,5.5-14.3,7.9c-3.6,2-7.4,3.8-10.8,6c-1.3,0.8-2.6,2.8-2.5,4.2
		c0.1,1.4,1.8,3,3.2,3.8c1.7,0.9,3.7,1.3,5.7,1.6c7.5,1,14.9,2,22.4,2.6c23.6,2.1,47.2,3.1,70.6,7.1c5.2,0.9,10.7,0.6,16,0.4
		c1.6-0.1,3.7-1.5,4.6-3c1.2-1.8-0.1-3.8-1.5-5.2c-1.7-1.8-3.4-3.7-5.3-5.3c-9.3-8.1-18.5-16.4-28.2-24.1c-14-11-28.3-21.5-42.5-32
		c-5-3.7-10.4-7.1-15.7-10.4c-2.3-1.4-4.7-2.8-7.2-3.4c-1.7-0.4-3.9,0.1-5.4,1c-1.9,1.2-1.7,3.4-0.9,5.4c0.5,1.2,1,2.3,1.6,3.4
		c2.5,4.7,5.2,9.4,7.6,14.2c2.6,5,5.1,10.1,8.3,16.3c-3.1-1-4.9-1.5-6.7-2.1c-23.6-7.6-47-15.7-70.7-22.6
		c-13.7-4-27.4-7.5-41.3-10.7c7.2-28.4,44.4-38.5,74.2-41.2c-13.2-44-63.7-54.4-114.5-53.3c-42.5,1.8-75.1,8.2-129.1,26.4
		c-44.1,14.5-107.1,32-137.5-12.8c-31,25.5-2.8,90.6,30,125.8c-4.1,0.3-8.3,0.6-12.4,0.9c-18.4,1.4-36.8,3.5-55.2,5.5
		c-9.2,1-18.3,2.6-27.5,3.9c-2,0.3-4,1-6-0.7c-7-5.8-14.1-11.4-21.4-16.9c-2.9-2.2-6.1-4-9.3-5.7c-3.2-1.7-6.6-1.7-10.1-1
		c-15.8,3.3-31.7,6.4-47.5,9.8C195.6,542.7,179.2,546.3,162.8,550.1z M413.5,489.1c3-5.6,11.7-6.4,26.2-2.1c2.6,0.9,4.9,1.5,6.8,2
		c1.9,0.4,2.9,0.7,3,0.7c0.2,0,0.3-0.8,0.4-2.5c0.1-1.7,0.1-3.7,0.1-6c0-4.1,0.1-6.6,0.3-7.7c0.2-1.1,0.7-2.1,1.6-3.2
		c0.9-1.2,2.4-2.3,4.6-3.2c2.2-0.9,4.3-1.3,6.2-1.3c2.6,0,4.4,1.2,5.2,3.7c0.8,2.5,0.9,7.1,0.4,13.8c-0.4,2.3-0.6,4.3-0.7,6.1
		c-0.1,1.8-0.1,2.7-0.1,2.9c0,0.4,0.5,0.6,1.5,0.8c1,0.2,2.1,0.3,3.4,0.3s2.8,0,4.4-0.1c1.6-0.1,3-0.3,4.2-0.7l3.7-0.8l-0.5-3.2
		c-0.2-2.3,0.2-3.9,1.1-4.8c0.9-1.1,2.1-1.5,3.7-1.5c1.6,0.1,2.8,0.8,3.7,2c2.1,2.6,2,5.4-0.3,8.2c-3.9,4.4-10.8,6.6-20.7,6.6H467
		l-0.8,9.8c0,1.4,0,3.8-0.1,7c-0.1,3.3-0.2,7.2-0.3,11.7c-0.1,4.5-0.1,9.4-0.1,14.8c0,5.4,0,10.8,0,16.3c0,9.7,0,17.3,0,22.8
		c0,5.5,0,9.7,0.1,12.7c0.1,3,0.3,5.3,0.5,6.8c0.3,1.5,0.6,3.1,0.9,4.9c0.9,4.4,1.9,8.1,2.9,11c1.1,2.9,2,4.7,2.9,5.4
		c0.7,0.7,1.7,0.2,2.9-1.6c3.5-4.1,6.7-11.1,9.4-21.1c2.7-10,5-22,6.8-36.2c0,0,0,0,0,0c-0.2-3-0.4-6.1-0.5-9
		c-1.9-42.6,4.2-71.5,18.5-86.9c3.5-4.1,7.5-6.9,12.1-8.5c4.5-1.6,8.9-1.7,13.1-0.3c2.6,0.9,4.9,2.1,6.8,3.6
		c1.9,1.5,3.5,3.8,4.9,6.8c0.5,1.2,1,2.2,1.3,2.9c0.4,0.7,0.6,1.5,0.7,2.4c0.1,0.9,0.2,1.9,0.3,3.2c0.1,1.2,0.1,2.9,0.1,5
		c0,3.5-0.1,6.3-0.4,8.2c-0.3,1.9-0.8,4.1-1.5,6.4c-2.5,9-6.5,17.4-12.2,25.3c-5.7,7.9-12.2,14.1-19.6,18.7l-5,3.4v8.7
		c0,4.8,0.2,9.6,0.5,14.6c0.4,4.9,0.9,9.7,1.6,14.3l1.1,5.3l1.6-6.9c1.2-5.1,2.7-10.1,4.4-14.8c1.7-4.8,3.7-9.9,6.2-15.4
		c4.8-10.9,9.4-19.5,14-25.7c4.6-6.2,9.6-10.5,15.1-13c7.6-3.4,13.2-1.9,16.7,4.2c0.7,1.4,1.3,2.9,1.9,4.4c0.5,1.5,0.9,3.5,1.1,6
		c0.2,2.5,0.2,5.7,0.1,9.7c-0.1,4-0.2,9.1-0.4,15.5c0,3.2,0,6.6-0.1,10.3c-0.1,3.7-0.2,7.3-0.3,10.9c-0.1,3.5-0.1,6.9-0.1,10.1
		c0,3.2,0,5.9,0,8.2c0,3.5,0,6.4,0,8.6c0,2.2,0.1,4.1,0.3,5.7c0.2,1.6,0.4,3,0.5,4.1c0.2,1.1,0.4,2.3,0.8,3.6
		c3,10.4,6.9,15.3,11.7,14.6c1.4-0.2,2.7-0.9,4-2.2c1.2-1.3,2.5-3.7,3.8-7.2c1.3-3.4,2.9-8.3,4.6-14.6c1.8-6.3,4-14.4,6.6-24.5
		c1.4-5.1,2.7-10,3.8-14.6c0.3-1.1,0.5-2.2,0.8-3.1c-0.1-2-0.2-4-0.2-6.2c-0.1-5.8,0.1-10.6,0.7-14.3c3.7-25.6,12.9-38.4,27.5-38.4
		c3.2,0,5.6,0.3,7.4,0.9c1.8,0.6,3.6,1.6,5.6,3c4.2,3.7,6.2,8.7,5.8,15.1c-0.4,6.4-2.8,12.8-7.4,19.3c-1.8,2.3-3.9,4.4-6.4,6.2
		c-2.5,1.9-5.2,3.3-8.2,4.4l-4.2,1.6l-0.3,4.2c-0.2,2.6-0.1,5.5,0.1,8.5c0.3,3,0.7,6,1.3,9.1c0.6,3.1,1.4,6.1,2.4,9.1
		c1,3,2,5.7,3,7.9c1.4,3,3,5.7,4.6,8.2c1.7,2.5,2.8,3.7,3.3,3.7c0.7,0,2.1-1.1,4.2-3.2c2.1-2.1,3.8-4.1,5-6.1
		c2.5-3.9,5.2-9.5,8.2-16.8c3-7.3,6-15.5,9-24.5c0.7-2.5,1.2-4,1.6-4.6c0.4-0.6,1-1,1.9-1.2c1.8-0.2,2.6,0.6,2.6,2.4
		c0,1.8-0.9,5.4-2.6,10.9c-8.8,27.2-17.6,43.1-26.2,47.7c-4.6,2.3-9.7,2-15.4-0.8c-2.5-1.2-5.3-3.3-8.3-6.1
		c-3.1-2.8-5.3-5.5-6.8-7.9c-1.4-2.5-2.9-6-4.4-10.5c-0.8-2.3-1.4-4.6-1.9-6.8c-0.4,1.6-0.9,3.3-1.4,5.1c-2.8,10.6-5.2,19.1-7,25.6
		c-1.9,6.4-3.6,11.5-5.2,15.1c-1.6,3.6-3.2,6.2-4.9,7.8c-1.7,1.6-3.7,2.9-6,4c-1.4,0.7-3.7,1.1-6.8,1.2c-3.1,0.1-5.6-0.2-7.5-0.9
		c-1.1-0.4-2.3-1.1-3.8-2.3c-1.5-1.1-3-2.5-4.4-4.1c-1.4-1.6-2.8-3.3-4.2-5.2c-1.4-1.9-2.5-3.6-3.2-5.2c-1.2-2.6-2.2-4.9-2.9-6.9
		c-0.7-1.9-1.2-4.5-1.5-7.7c-0.3-3.2-0.4-7.5-0.4-13.1c0-5.6,0-13.3,0-23.2c0-9.2,0-16.5,0-22c0-5.5,0-9.8-0.1-12.8
		c-0.1-3.1-0.3-5.3-0.5-6.6c-0.3-1.3-0.6-2.3-0.9-2.8c-0.5-0.7-0.9-1-1.2-0.8c-0.3,0.2-1.1,0.9-2.5,2.1c-1.9,1.9-4.1,4.8-6.5,8.5
		c-2.4,3.7-4.8,7.9-7.2,12.7c-2.4,4.8-4.6,9.8-6.8,15c-2.1,5.2-3.9,10.3-5.3,15.2c-0.7,2.1-1.5,5.1-2.4,8.9
		c-0.9,3.8-1.6,7.3-2.1,10.5l-2.4,11.4l-2.6,1.1c-1.4,0.9-3.5,1.4-6.4,1.5c-2.8,0.1-5.2-0.1-7.2-0.7c-1.4-0.4-2.3-0.8-2.5-1.3
		c-0.3-0.5-0.7-2.1-1.2-4.8c-0.4-2.8-0.8-6.1-1.2-9.8c-0.2-1.9-0.4-3.8-0.7-5.8c-0.9,4.9-1.8,8.9-2.6,12.1
		c-3,12.2-6.7,20.9-11.1,26.1c-4.4,5.2-9.1,6.5-14,3.8c-3.2-1.6-6.1-4.5-8.7-8.6c-2.6-4.1-4.7-9-6.1-14.4c-1.2-4.6-2.2-9.4-2.8-14.6
		c-0.6-5.1-1.1-11.4-1.3-18.8c-0.3-7.4-0.3-16.4,0-27c0.3-10.6,0.8-23.6,1.5-38.9l0.5-10.1l-10.6-2.9c-3-0.9-5.8-1.6-8.5-2.3
		c-2.6-0.6-4.3-0.9-5-0.9c-1.4,0-2.3,0.1-2.5,0.4c-0.3,0.3-0.2,0.8,0.1,1.7c0.2,0.9,0.1,1.6-0.1,2.3c-0.3,0.6-0.8,1.4-1.7,2.3
		c-1.2,1.2-2.5,1.9-3.8,2c-1.3,0.1-2.4-0.3-3.2-1.1c-0.8-0.8-1.3-1.9-1.6-3.4C412.3,492.3,412.6,490.7,413.5,489.1z M163.9,560.7
		c-0.4-0.3-0.5-0.8-1.1-1.7c7.4-1.8,14.5-3.7,21.7-5.3c1-0.2,2.3,0.3,3.2,0.9c8.2,6.1,16.3,12.2,24.9,18.7
		c-5.9,1.9-11.6,3.7-17.3,5.3c-1,0.3-2.4,0.2-3.3-0.3C182.1,573.3,172.5,567.7,163.9,560.7z M211.3,588.9
		c-3.2,6.1-6.4,12.3-9.7,18.3c-0.7,1.2-1.7,2.7-2.8,3c-5.2,1.6-10.5,2.8-15.8,4.1c-0.4,0.1-0.9-0.2-1.7-0.3c0.7-1.3,1.2-2.5,1.8-3.6
		c3.6-6.7,7.2-13.3,10.9-19.9c0.7-1.2,1.7-2.6,2.9-2.9c5.3-1.5,10.7-2.7,17.3-4.3C212.9,585.9,212.1,587.4,211.3,588.9z M277,592
		c-1.1,1.4-2.7,2.5-4.4,3.1c-3.2,1.1-6.5,1.8-10.7,2.9c4.9-9.4,9.3-17.9,13.8-26.2c0.6-1,1.8-2.1,2.9-2.3c4.3-0.9,8.6-1.5,13.5-2.4
		C288,576.5,282.9,584.5,277,592z M272.8,541.3c5.9,4.7,11.9,9.3,18.8,14.8c-6,1-11,2-16,2.7c-1,0.1-2.3-0.4-3.1-1.1
		c-6.4-5.4-12.7-11-19-16.5c-0.3-0.3-0.5-0.8-0.7-1.4C259.8,536,266.4,536.2,272.8,541.3z M252.8,574.1c5-0.6,10-1.8,15.7-2.9
		c-0.7,1.8-0.9,2.8-1.4,3.8c-3.7,7.2-7.5,14.3-11.1,21.6c-1.2,2.3-2.6,3.6-5.2,4c-4.6,0.6-9.1,1.4-13.7,2.1c-0.9,0.1-1.8,0-3,0
		c0.2-0.9,0.2-1.4,0.5-1.8c3.5-6.9,7.2-13.8,10.5-20.7C246.8,576.8,248.8,574.6,252.8,574.1z M221.5,547c6,6.1,11.7,12.3,18,19
		c-6.2,1.7-11.8,3.3-17.5,4.7c-1,0.2-2.4-0.1-3.2-0.7c-8.1-5.7-16.1-11.5-24.1-17.3c-0.2-0.2-0.3-0.6-0.6-1.3c1.4-0.4,2.7-0.9,4-1.2
		c6.4-1.3,12.9-2.7,19.4-3.8C218.7,546.3,220.7,546.3,221.5,547z"/>
	<path d="M511,537.6c0.2,0,0.7-0.4,1.7-1.1c1-0.7,2.1-1.5,3.3-2.4c5.6-4.1,10.7-9.3,15.1-15.8c4.4-6.4,7.9-13.4,10.3-20.8
		c0.9-2.5,1.5-4.6,1.7-6.5c0.3-1.9,0.4-4.5,0.4-8.1c0-3.7-0.1-6.2-0.3-7.4c-0.2-1.2-0.7-2.7-1.6-4.5c-1.8-3.4-4-5.5-6.8-6.4
		c-2.7-0.9-5.3-0.4-7.8,1.6c-2.5,2.1-4.8,5.4-6.9,9.9c-2.1,4.5-3.9,9.7-5.3,15.5c-0.5,2.8-1.1,6.8-1.7,11.9
		c-0.6,5.1-1.2,10.2-1.6,15.2c-0.4,5-0.8,9.4-0.9,13.1C510.6,535.8,510.6,537.6,511,537.6z"/>
	<path d="M633.4,546.6c0.5-0.2,1.2-0.5,2-0.9c0.8-0.4,1.6-0.8,2.5-1.2c2.1-1.1,4.1-2.7,6.1-4.9c1.9-2.2,3.6-4.6,5-7.2
		c1.4-2.6,2.4-5.2,2.9-7.8c0.5-2.6,0.5-4.9,0-6.9c-0.7-2.8-1.9-5-3.4-6.6c-1.6-1.6-3.1-1.9-4.5-1.1c-2.5,1.4-4.7,5-6.8,10.7
		c-2,5.7-3.8,13.3-5.2,22.6c-0.2,1.8-0.2,2.8-0.1,3C632,546.7,632.5,546.8,633.4,546.6z"/>
	<path d="M256.8,792.2c0.4,0.7,0.9,1.3,1.4,1.9c0.5,0.6,1,1.2,1.4,1.8c0.4,0.6,0.7,1.1,1,1.5c0.8,1.2,2,2.4,3.6,3.8
		c1.6,1.3,3,2.4,4,3.2c0.7,0.5,1.4,0.9,2.1,1.2c0.3,0.2,0.7,0.4,1,0.5c0.4,0.2,0.7,0.4,0.9,0.7c0.4,0.1,0.7,0.3,0.8,0.6
		c0.2,0.1,0.4,0.2,0.4,0.4c0.1,0.1,0.2,0.2,0.4,0.4l0.2,0.1l0.3,0.2c1.8,0.8,3.6,1.5,5.6,2.2c2,0.7,3.9,1.1,5.8,1.5
		c0.7,0.1,1.5,0.2,2.5,0.2c1,0.1,2,0.1,3.1,0.2c1.1,0.1,2.1,0.1,3,0.1c0.9,0,1.8-0.1,2.5-0.2l0.5-0.1c0.2,0,0.3,0,0.3,0.1
		c0.2,0,0.4,0,0.8,0.1c0.2,0,0.3-0.1,0.5-0.1c0.1,0,0.3,0,0.5-0.1c0.3-0.1,0.5-0.2,0.8-0.5c0.6-0.1,1.2-0.2,1.8-0.3
		c0.6-0.1,1.2-0.2,1.8-0.4l6-1.6c1.1-0.4,2.1-0.8,3.2-1.2c1-0.4,1.8-0.9,2.4-1.5l0.1,0l0.3-0.1c0.4-0.2,0.8-0.4,1.2-0.5
		c0.4-0.1,0.8-0.3,1.2-0.5c0.4-0.3,0.7-0.5,1-0.7c0.3-0.2,0.7-0.4,1.1-0.6c0.1-0.1,0.4-0.2,0.7-0.3c0.2,0,0.3-0.1,0.4-0.2
		c0.1-0.1,0.3-0.1,0.4-0.2c0.2,0,0.3-0.1,0.5-0.2c0.2-0.1,0.3-0.2,0.5-0.2c0.3-0.3,0.5-0.6,0.7-0.9c0.3-0.7,0.7-1.3,1.2-1.7
		c0.3-0.3,0.7-0.8,1.3-1.3c0.6-0.5,1.1-1.1,1.6-1.8c0.5-0.7,0.9-1.6,1.3-2.7c0.1-0.2,0.3-0.4,0.5-0.5c0.2-0.2,0.4-0.3,0.5-0.5
		c0.4-0.5,0.7-1,0.9-1.6c0.2-0.4,0.4-1,0.6-1.7c0.2-0.7,0.4-1.5,0.6-2.3c0.2-0.8,0.3-1.5,0.4-2.3c0.1-0.7,0.1-1.3-0.1-1.8
		c-0.1-0.5-0.1-1.1,0-1.6c0.2-1.1,0.1-2.6-0.1-4.5c-0.2-1.9-0.5-3.4-0.7-4.4c-0.2-0.9-0.4-1.8-0.4-2.7c0-0.9-0.2-1.7-0.4-2.7
		c-0.1-0.3-0.2-0.5-0.3-0.7c-0.1-0.2-0.2-0.4-0.2-0.6c-0.1-0.4-0.2-0.8-0.1-1.1c0-0.1,0-0.2,0-0.2c0-0.1,0-0.2,0-0.3l-0.2-0.6
		c-0.2-0.9-0.5-1.9-0.9-2.8c-0.3-1-0.6-1.9-0.9-2.8c-0.1-0.5-0.3-1-0.5-1.6c-0.2-0.5-0.4-1.1-0.5-1.6c-0.1-0.3-0.1-0.6-0.1-0.9
		c0-0.1,0-0.2,0-0.3c0-0.1,0-0.2,0-0.3c0-0.1,0-0.2,0-0.3c0-0.1,0-0.2,0-0.3c-0.1-0.4-0.5-0.7-1.1-0.9c-0.2,0-0.4-0.1-0.6-0.1
		c-0.2,0-0.5,0-0.7,0.1c-0.5-0.1-0.9,0-1.3,0.1c-0.4,0.1-0.7,0.2-0.9,0.2c-0.7,0.2-1.3,0.4-1.9,0.6c-0.6,0.3-1.3,0.5-1.9,0.6
		c-3.6,0.9-7.1,1.9-10.7,2.9c-3.6,1-7.1,2-10.7,3c-0.5,0.1-1,0.3-1.6,0.5c-0.5,0.2-1,0.6-1.4,1.1l-0.1,0l0.1,0.4
		c0.2,1,0.4,1.9,0.6,2.7c0.2,0.8,0.5,1.7,0.7,2.7c0.1,0.3,0.1,0.5,0.2,0.8c0,0.3,0.1,0.6,0.3,0.9c0.1,0.3,0.2,0.6,0.4,0.9
		c0.2,0.4,0.4,0.6,0.7,0.7c0.1,0.1,0.2,0.1,0.4,0c0.1,0.1,0.2,0.1,0.4,0c0.1,0,0.2,0,0.3,0.1c0.5,0.1,0.9,0.1,1.2,0
		c0.3,0,0.7-0.1,1-0.2c2.1-0.6,4.2-1.1,6.3-1.7c2.1-0.5,4.2-1.1,6.3-1.5c0.2,0.8,0.4,1.7,0.5,2.6c0.1,0.9,0.3,1.8,0.5,2.6
		c0.3,1.1,0.6,2.2,0.9,3.4c0.3,1.2,0.5,2.4,0.7,3.6c0.1,1.2,0.2,2.4,0.1,3.6c-0.1,1.2-0.3,2.2-0.8,3.3c-0.1,0.2-0.3,0.4-0.4,0.6
		c-0.1,0.2-0.3,0.4-0.4,0.6c-0.1,0.1-0.2,0.3-0.5,0.6c0,0.2-0.2,0.4-0.5,0.7c-0.4,0.6-0.9,1.2-1.6,1.6c-0.7,0.4-1.4,0.8-2.3,1.2
		c-0.9,0.4-1.8,0.8-2.6,1c-0.8,0.3-1.7,0.6-2.5,0.9c-0.2,0.2-0.7,0.3-1.4,0.5c-0.3,0.1-0.5,0.1-0.7,0c-0.1-0.1-0.2-0.1-0.4,0
		c-0.1-0.1-0.3-0.1-0.5,0c-0.3,0.1-0.5,0.2-0.7,0.3c-0.2,0.1-0.5,0.2-0.7,0.3c-0.5,0.1-1.1,0.2-1.6,0.3c-0.6,0.1-1.2,0.1-1.8,0.1
		c-0.6,0-1.3,0-1.8,0c-0.6,0-1.2,0-1.8,0l-0.1,0c-0.2-0.1-0.4-0.2-0.5-0.2c-0.6-0.2-1.1-0.3-1.4-0.2c-0.2-0.1-0.5-0.2-0.7-0.2
		c-0.3,0-0.5-0.1-0.7-0.2c-0.4-0.1-0.7-0.1-0.9-0.2c-1.7-0.6-3.3-1.4-4.9-2.4c-1.5-1-3-2.2-4.4-3.3c-1.6-1.1-2.9-2.5-3.8-4
		c-1-1.6-2-3.3-2.9-5.1c-0.2-0.3-0.3-0.6-0.5-0.9c-0.2-0.3-0.3-0.6-0.5-0.9c-0.4-0.8-0.6-1.4-0.8-1.8c-0.4-1.5-1-2.9-1.6-4.2
		c0-0.1-0.1-0.2-0.2-0.2l0-0.1l0-0.1c0.1-0.1,0.1-0.2,0.1-0.3l-0.1-0.4c0-0.1,0-0.2,0-0.2c0-0.1,0-0.1,0-0.2
		c-0.1-0.3-0.3-0.6-0.6-1.1c0.1,0,0.2-0.2,0.4-0.5c0.4-0.4,0.5-0.8,0.3-1.4c-0.1-0.4-0.3-0.9-0.5-1.4s-0.4-0.9-0.5-1.4
		c-0.2-0.9-0.4-1.8-0.5-2.7c-0.1-0.9-0.2-1.8-0.4-2.8c-0.1-0.3-0.1-0.6-0.1-0.9c0-0.2,0-0.5,0-0.9c0-0.4-0.1-0.8-0.1-1.1
		c0-0.3-0.1-0.7-0.2-1.1c-0.1-0.3-0.1-0.6-0.2-0.9c0-0.3,0-0.6,0-0.9c-0.1-0.9-0.1-1.6-0.2-2c0-0.2-0.1-0.4,0-0.6
		c0-0.2,0.1-0.5,0.1-0.8c0.1-0.2,0.2-0.5,0.3-0.8c0.1-0.3,0.1-0.6,0.2-0.9c0.5-2.9,1.3-5.3,2.3-7.2c1-2,2.6-3.9,4.8-6
		c0.1-0.1,0.4-0.4,0.8-0.7c0.4-0.3,0.9-0.7,1.4-1c0.4-0.4,0.9-0.7,1.4-1c0.1-0.1,0.1-0.2,0.2-0.2c0.1,0,0.2-0.1,0.2-0.2
		c0.1-0.1,0.1-0.2,0.2-0.2l0.1-0.2l0.3-0.5c0.5,0.1,1,0.2,1.4,0c0.2,0,0.3-0.1,0.5-0.2c0.2-0.1,0.3-0.2,0.5-0.2
		c0.2,0,0.3-0.1,0.5-0.2c0.2-0.1,0.3-0.2,0.5-0.2c0.6-0.3,1.2-0.6,1.6-0.7c0.4-0.1,0.8-0.2,1.1-0.2c0.3,0,0.7-0.1,1.1-0.2l1.8-0.5
		c1.4-0.4,3-0.6,4.6-0.5c0.8,0,1.6-0.1,2.4-0.1c0.8,0,1.6-0.1,2.4-0.1c1.2-0.1,2.6-0.1,4.1,0c1.5,0.2,2.8,0.5,4,1.1
		c0.1,0.1,0.2,0.1,0.2,0.2c0,0.1,0.1,0.2,0.3,0.2c0.3,0.3,0.4,0.5,0.6,0.5c0.6,0.5,1.2,0.6,1.9,0.5l0.5-0.1c0.1-0.1,0.1-0.2,0.2-0.2
		c0,0,0.1-0.1,0.2-0.2c0.1-0.1,0.3-0.3,0.5-0.4c0.2-0.1,0.4-0.3,0.6-0.4c0.4-0.4,0.8-0.8,1.2-1.2c0.5-0.4,0.9-0.9,1.3-1.5
		c1-1,1.9-1.9,2.8-2.7c0.8-0.8,1.4-1.4,1.8-1.8l0.2-0.2l-0.2-0.6c-0.2-0.9-0.8-1.7-1.7-2.4c-0.5-0.4-0.9-0.7-1.2-0.8
		c-0.2-0.1-0.4-0.2-0.6-0.4c-0.2-0.1-0.4-0.2-0.6-0.4l-0.2-0.1l-0.3,0.1l-0.1,0l0.1-0.3l-0.3-0.2c-0.2-0.1-0.8-0.3-1.8-0.7
		c-1-0.3-2.1-0.6-3.2-0.9c-1.2-0.3-2.2-0.5-3.3-0.7c-1-0.2-1.6-0.3-1.9-0.2l-0.4,0.1l-0.1-0.3l-0.4,0c-3.2-0.2-6.2-0.1-9.1,0.3
		c-2.8,0.3-5.8,0.9-8.9,1.7c-1.3,0.3-2.5,0.8-3.8,1.3c-1.2,0.5-2.5,1-3.8,1.5c-2.3,1-4.6,2.1-7,3.4c-2.4,1.3-4.5,2.8-6.3,4.6
		c-0.1,0.1-0.2,0.3-0.5,0.6c-0.2,0-0.3,0.1-0.3,0.1c0,0.1-0.1,0.1-0.3,0.1c-0.7,0.5-1.3,1.1-2,1.8c-0.7,0.6-1.2,1.4-1.7,2.2
		c-0.1,0.2-0.2,0.4-0.2,0.5c0,0.1-0.1,0.3-0.2,0.5c-0.3,0.4-0.5,0.7-0.6,0.8c-0.5,0.7-0.9,1.3-1.3,2c-0.4,0.6-0.8,1.3-1.1,1.9
		c-0.3,0.6-0.6,1.2-0.9,1.9c-0.3,0.6-0.7,1.3-1.1,1.9c-0.3,0.6-0.6,1.3-0.8,2c-0.3,0.7-0.5,1.4-0.8,2.1c0,0.2-0.1,0.7-0.3,1.4
		c-0.2,0.7-0.3,1.5-0.5,2.4c-0.2,0.9-0.3,1.7-0.5,2.4c-0.1,0.7-0.2,1.1-0.2,1.2c0,0.4,0.1,0.8,0.2,1.3c0,0.3-0.1,0.7-0.2,1.3
		c-0.3,1.2-0.4,2.8-0.4,4.9c0.1,2.1,0.3,4.2,0.6,6.5c0.3,2.3,0.6,4.4,1,6.5c0.4,2,0.7,3.6,1,4.7c0.5,1.8,1,3.5,1.7,5.1
		c0.7,1.6,1.4,3.3,2.1,5c0.3,0.6,0.7,0.9,1.1,1.1c0.1,0.1,0.2,0.1,0.2,0.1c0,0,0.1,0,0.2,0.1c-0.1,0.4-0.1,0.7,0,1
		C256.1,791,256.3,791.5,256.8,792.2z"/>
	<path d="M354.4,789.6c0.1,0.4,0.2,0.8,0.3,1.1c0.1,0.3,0.3,0.6,0.3,1.1c0.1,0.3,0.1,0.7,0.1,0.9c0,0.3,0,0.6,0.1,0.9
		c0.1,0.4,0.3,0.9,0.5,1.4l0.2,0.2l0.4,0.1c1.3-0.1,2.6-0.2,3.9-0.4c1.3-0.2,2.7-0.3,4.1-0.4l0.4-0.1l0.4-0.1c0.2,0,0.2-0.1,0.2-0.2
		l0.3,0l0.3,0c1-0.2,1.9-0.4,3-0.6c1-0.2,2-0.5,3-0.6c3-0.6,6-1,9-1.4c3-0.3,6-0.8,9-1.4c1.4-0.3,2.7-0.6,4-1
		c1.3-0.4,2.6-0.7,3.9-0.9c0.7-0.1,1.4-0.2,2.2-0.3c0.7-0.1,1.5-0.1,2.2-0.3c0.7-0.1,1.4-0.3,2.1-0.5c0.7-0.2,1.4-0.4,2.1-0.6
		c0.2,0,0.3-0.1,0.4-0.2c0.1-0.1,0.2-0.1,0.3-0.1c0.2,0,0.4-0.2,0.7-0.4c0.4-0.4,0.5-1,0.4-1.7l-0.7-3.5l-0.7-3.6
		c-0.2-0.3-0.3-0.7-0.4-1c-0.1-0.3-0.3-0.7-0.5-1c0-0.2-0.2-0.4-0.4-0.7c-0.2-0.3-0.6-0.4-1-0.3c-0.6,0.1-1.2,0.2-1.7,0.4
		c-0.6,0.2-1.1,0.3-1.7,0.4c-1,0.2-1.9,0.3-2.9,0.4c-1,0.1-1.9,0.2-2.9,0.4c-3,0.5-6.1,1-9.1,1.5c-3,0.5-6.1,1.1-9.1,1.7
		c-0.4,0.1-0.8,0.1-1.2,0.1c-0.4,0-0.8,0-1.2,0.1c-0.3,0-0.5,0.1-0.7,0.3c-0.2,0.1-0.4,0.2-0.6,0.2c-0.3,0.1-0.7,0-1.1-0.1
		c-0.3,0.1-0.6,0.1-0.7,0l-0.5,0.1l-0.6-3.2c-0.1-0.5-0.2-1-0.2-1.6c0-0.5-0.1-1-0.1-1.4l-0.1-0.6c0-0.2-0.1-0.3-0.2-0.3
		c-0.1,0-0.2-0.1-0.2-0.3c-0.1-0.2-0.3-0.6-0.4-1.1c-0.1-0.7-0.2-1.3-0.3-2c-0.1-0.6-0.2-1.3-0.3-2c-0.2-1.2-0.5-2.5-0.8-3.7
		c-0.3-1.3-0.6-2.6-0.8-3.9l-0.1-0.6l-0.3,0l0.2-0.3l-1.3-6.9l0.1,0c0.7-0.1,1.3-0.2,1.9-0.2c0.6,0,1.2-0.1,1.9-0.2
		c1.7-0.3,3.5-0.7,5.3-1.1c1.8-0.4,3.6-0.8,5.3-1.1c1.9-0.4,3.8-0.8,5.6-1.2c1.8-0.4,3.7-0.8,5.5-1.2l0.8-0.1c0.2,0,0.4-0.2,0.7-0.4
		c0.3-0.2,0.6-0.6,0.8-1.4c0.2-1.2,0.2-2.3,0-3.4c-0.3-1.7-1-3.4-1.9-5.1c-0.5-0.8-1-1.3-1.5-1.4c-0.5-0.1-1.2-0.1-1.9,0l-5.6,1.1
		c-1,0.2-1.9,0.4-2.8,0.7c-0.9,0.3-1.9,0.5-2.8,0.7c-0.6,0.1-1.2,0.2-1.9,0.3c-0.7,0.1-1.3,0.2-2,0.3c-1,0.2-2.1,0.5-3.1,0.8
		c-1.1,0.3-2.1,0.6-3.3,0.8c-1,0.2-2.1,0.3-3.2,0.2c-0.1-0.1-0.2-0.2-0.2-0.2l-0.1-0.5c0-0.3,0-0.5,0-0.7c0-0.1,0.1-0.2,0.2-0.3
		c0-0.1,0-0.2,0.1-0.3l0-0.1c0-0.2-0.1-0.3-0.2-0.4c-0.1-0.1-0.1-0.3-0.2-0.4c0-0.2-0.1-0.3-0.2-0.4c-0.1-0.1-0.2-0.2-0.2-0.4
		c-0.3-0.7-0.5-1.2-0.6-1.6l-0.8-4.1c-0.1-0.7-0.2-1.3-0.3-2c-0.1-0.6-0.2-1.3-0.3-2c-0.1-0.5-0.2-1-0.4-1.5
		c-0.2-0.5-0.3-1.1-0.5-1.7c0-0.2,0-0.3,0-0.5c0-0.1,0-0.3,0-0.5c0-0.2,0-0.3,0-0.3c0-0.1,0-0.2,0-0.3l-0.1-0.6
		c-0.1-0.4-0.2-0.8-0.2-1.1c-0.1-0.3-0.2-0.7-0.3-1.1c-0.3-0.7-0.5-1.2-0.6-1.6c0.1-0.1,0.1-0.2,0.2-0.3c0.1-0.1,0.1-0.3,0-0.5
		c0-0.2-0.1-0.2-0.2-0.2l0-0.3l0.1,0c0.1-0.1,0.2-0.2,0.4-0.2l0.1,0l7.2-1.4l4.9-0.9c0.7-0.1,1.4-0.3,2-0.5c0.7-0.2,1.4-0.4,2-0.5
		c1.2-0.2,2.4-0.4,3.4-0.6c1.1-0.2,2.2-0.4,3.4-0.6l5.8-1.1c0.8-0.2,1.4-0.3,2-0.3c0.6-0.1,1.3,0,2.1,0.1l0.5-0.1l0.8-0.1l0.5-0.1
		l-0.1-0.6c-0.1-0.3-0.1-0.7,0-0.9c0-0.3,0-0.6,0-0.9l-0.5-2.7c-0.1-0.7-0.2-1.3-0.2-2c0-0.6-0.1-1.3-0.2-2
		c-0.1-0.4-0.2-0.9-0.3-1.3c-0.1-0.4-0.3-0.8-0.4-1.3c-0.5-1.2-1.3-1.6-2.4-1.4l-10.5,2c-0.5,0.1-1,0.2-1.5,0.4
		c-0.5,0.1-1,0.3-1.5,0.4c-1.5,0.3-2.9,0.5-4.3,0.8c-1.4,0.2-2.9,0.5-4.3,0.8c-3.3,0.6-6.6,1.3-9.9,2.1c-3.3,0.8-6.7,1.5-10.1,2.1
		c-1.3,0.2-2.6,0.5-3.9,0.7c-1.3,0.2-2.7,0.4-4.1,0.5l-0.3,0.1l-0.1,0.3c-0.4,0.6-0.6,1.1-0.7,1.3c0,0.3,0,0.8,0.2,1.6
		c0,0.3,0.1,0.5,0.3,0.6c0,0.3-0.1,0.6-0.1,0.8c0,0.3,0,0.5,0,0.8c0.1,0.6,0.3,1.2,0.5,1.7c0.2,0.5,0.4,1.1,0.6,1.8
		c0.2,0.9,0.3,1.7,0.4,2.5c0.1,0.8,0.2,1.6,0.4,2.3l0.1,0.5c0,0.2,0.1,0.3,0.1,0.3c0,0,0.1,0.1,0.1,0.2l0.1,0.8l0.1,0.4
		c-0.1,0.1-0.1,0.2-0.1,0.4c0,0.1,0,0.2-0.1,0.2c-0.1,0.1-0.1,0.1-0.1,0.2c0.1,0.7,0.3,1.3,0.6,2c0.3,0.6,0.5,1.3,0.6,2
		c0,0.2,0.1,0.4,0.1,0.7c0,0.3,0,0.5,0.1,0.7l0.2,1c0.1,0.2,0.2,0.3,0.2,0.4c0,0.1,0.1,0.2,0.2,0.2c-0.1,0.4-0.1,0.7-0.1,1.1
		c0.1,0.3,0.1,0.7,0.2,1c0.8,4.4,1.7,8.8,2.6,13.2s1.7,8.8,2.6,13.2c0,0.2,0.1,0.3,0.1,0.4c0.1,0.1,0.1,0.2,0.1,0.4
		c0.2,0,0.3,0,0.3,0.2l-0.3,0l0.1,0.6c0,0.2,0,0.3,0,0.5c0,0.1,0,0.3,0,0.5c0,0.1,0,0.2,0,0.2c0,0.1,0,0.2,0,0.3l0.1,0.6
		c0.5,2.4,0.9,4.8,1.4,7.2c0.5,2.4,1,4.8,1.4,7.2l0.4,2.1c0.1,0.3,0.1,0.5,0.2,0.8c0.1,0.3,0.2,0.6,0.4,0.9c0,0.2,0,0.3-0.2,0.3
		l-0.2,0.4l0.5,0.7c0,0.1,0,0.2-0.1,0.3l0,0.3l0.1,0.3l-0.2,0.6l0.4,0.2l0,0.1c0,0.6,0.1,1.2,0.2,1.8c0.1,0.6,0.2,1.2,0.3,1.7
		l0.1,0.6c0,0.2,0.1,0.3,0.2,0.5l0.1,0.8l0.1,0.5c0,0.2,0,0.3-0.1,0.4L354.4,789.6z M358.7,715.4l0,0.1l-0.5,0.1
		C358.5,715.6,358.7,715.5,358.7,715.4z"/>
	<path d="M451.1,703.4l5.1-0.6c0.1,0,0.2,0,0.2,0c0.1,0,0.1,0.1,0.2,0c0.4,0.1,0.7,0.2,1.1,0.1c0.2,0,0.3-0.1,0.5-0.2
		c0.2,0,0.3-0.1,0.4-0.2l0.3,0l0.1-0.1c1.5-0.2,2.9-0.4,4.3-0.6c1.4-0.2,2.8-0.4,4.3-0.6c0.5-0.1,1-0.1,1.5-0.1c0.5,0,1,0,1.5-0.1
		c0.8-0.1,1.5-0.2,2.3-0.4c0.7-0.2,1.4-0.4,2.1-0.5l0.4,0l0.1-0.4c0.2-0.2,0.2-0.4,0.2-0.7c-0.1-0.5-0.2-0.8-0.5-0.9
		c0.2-0.6,0.3-1.1,0.2-1.7c-0.1-0.7-0.2-1.4-0.4-2.1c-0.2-0.7-0.3-1.4-0.4-2.1l-0.1-0.9l0-0.3l0-0.4c0-0.1,0-0.1-0.1-0.1
		c0,0-0.1,0-0.1-0.1l-0.2-0.2l-0.1,0l0.1-0.1l-0.6-4.6l-0.5-0.1c-0.3,0-0.7,0.1-0.9,0.1c-0.3,0-0.5,0-0.8,0
		c-3.6,0.5-7.1,0.9-10.5,1.4c-3.4,0.5-6.9,0.9-10.3,1.4c-0.7,0.1-1.4,0.2-2.2,0.2c-0.7,0.1-1.5,0.1-2.2,0.2
		c-5.5,0.7-10.9,1.4-16.1,2.2c-5.3,0.8-10.6,1.5-16.1,2.2c-0.6,0.1-1.2,0.1-1.8,0.2c-0.6,0-1.3,0.1-2,0.2c-0.5,0.1-1,0.2-1.6,0.3
		c-0.5,0.2-1,0.3-1.6,0.3c-0.3,0-0.7,0.1-0.9,0c-0.3,0-0.6,0-0.9-0.1l-0.8,0l0.1,0.8c0.1,1.1,0.3,2.3,0.4,3.5
		c0.1,1.2,0.2,2.4,0.4,3.6c0.2,1.2,0.3,2.4,0.5,3.6c0.2,1.2,0.4,2.3,0.5,3.5l0.1,0.7l0.7-0.1c0.9-0.2,1.9-0.4,2.9-0.4
		c1-0.1,1.9-0.2,2.9-0.3c0.7-0.1,1.4-0.2,2-0.4c0.6-0.2,1.3-0.3,2-0.4c2.3-0.3,4.5-0.5,6.8-0.8c2.3-0.2,4.5-0.5,6.8-0.8l0.4-0.1
		l0.1-0.3c0.1-0.1,0.1-0.2,0.1-0.2c0,0,0-0.1,0.1-0.2c0.2,0.2,0.4,0.2,0.6,0.3c0.2,0,0.4,0.1,0.6,0.1l0.4-0.1c0,0.1,0.1,0.1,0.3,0.1
		l0.4,0l0.4,3.5c0,0.2,0.1,0.4,0.1,0.6c0.1,0.3,0.1,0.5,0.1,0.6l0,0.3c0,0.2,0,0.3-0.1,0.4l0.1,0.4c0,0.1,0,0.2,0,0.2
		c0,0,0,0.2,0,0.3c0.1,0.4,0.2,0.8,0.3,1.2c0.1,0.4,0.2,0.8,0.3,1.2c0.2,1.2,0.3,2.4,0.4,3.5c0.1,1.1,0.2,2.3,0.4,3.5
		c0.5,3.6,0.9,7.1,1.4,10.5c0.5,3.4,0.9,7,1.4,10.6c0,0.2,0.1,0.3,0.2,0.5c0.1,0.2,0.2,0.3,0.3,0.5l-0.4,0l0.1,0.7
		c0.4,3.3,0.9,6.7,1.6,10c0.6,3.4,1.2,6.8,1.6,10.2l0.1,0.8l0.1,0.7l0,0.1l-0.2,0.3c-0.1,0.1-0.1,0.2-0.1,0.3
		c-0.1,0-0.1,0.1-0.1,0.4c0,0.4,0.1,0.6,0.2,0.6l-0.2,0.3l0,0.4c0,0.1,0,0.2,0.1,0.2c0,0,0.1,0.1,0.1,0.3l0,0.4l0,0.1l0,0.3
		c-0.1,0.1-0.1,0.2-0.1,0.3l0,0.4l1.1,8.4c0.1,0.7,0.6,1.2,1.4,1.6l0.3,0l0.2-0.2l0.5-0.1c0.1-0.1,0.2-0.2,0.2-0.2
		c0.5,0.2,0.8,0.3,1.1,0.3c0.3,0.1,0.7,0,1.2,0c1.6-0.2,3.1-0.4,4.7-0.7c1.6-0.2,3.1-0.5,4.7-0.8c0.2,0,0.5-0.1,0.9-0.2
		c0.4-0.1,0.9-0.2,1.3-0.4c0.5-0.2,0.9-0.4,1.1-0.4l0.5-0.3c0.3-0.1,0.5-0.4,0.4-0.7c0-0.3-0.1-0.5-0.3-0.6l-0.1-0.1l0.1-0.1l0-0.3
		c-0.1-0.7-0.2-1.4-0.2-2c0-0.7-0.1-1.3-0.2-2l-0.3-2.5c0-0.3-0.1-0.5-0.2-0.8c-0.1-0.3-0.1-0.5-0.1-0.6c-0.1-0.1-0.2-0.2-0.2-0.2
		c0-0.1-0.1-0.2-0.2-0.2l0-0.1c0.1-1,0.1-2,0-3.1c-0.1-0.5-0.2-1.1-0.3-1.6c-0.1-0.6-0.2-1.1-0.3-1.5c0-0.2,0-0.4,0-0.7
		c0-0.3,0-0.5,0-0.7l-0.1-0.5c-0.1-0.1-0.2-0.2-0.2-0.5c-0.2-0.3-0.3-0.5-0.3-0.6l-0.4-3.3c-0.1-0.6-0.1-1.2-0.1-1.7
		c0-0.5,0-1.1-0.1-1.7c-0.3-2.3-0.6-4.5-0.9-6.7c-0.3-2.2-0.6-4.4-0.9-6.5l0-0.1l-0.3-0.5c0-0.2,0-0.4,0.1-0.5
		c0.1-0.2,0.1-0.4,0-0.7c0.1-0.1,0.1-0.3,0-0.7c-0.1-1-0.3-2.1-0.6-3c-0.3-1-0.5-2-0.6-3c-0.1-0.4-0.1-0.9,0-1.4c0-0.5,0-1-0.1-1.5
		c-0.1-0.9-0.3-1.5-0.5-1.9c0.3-0.7,0.4-1.3,0.3-1.8c-0.1-0.4-0.1-0.7-0.2-0.8l0-0.3c-0.2-1.4-0.4-2.8-0.6-4.2
		c-0.2-1.4-0.4-2.9-0.6-4.4c-0.1-0.8-0.3-1.5-0.6-2.3c-0.3-0.7-0.4-1.4-0.5-2.1c0-0.1,0-0.2,0.1-0.3l0-0.3c0.1-0.1,0.1-0.3,0.1-0.5
		c0.1-0.1,0.1-0.3,0.1-0.5c-0.1-0.5-0.2-1-0.3-1.5s-0.3-1-0.3-1.5c0-0.2,0-0.3,0-0.5C451.1,703.8,451.1,703.6,451.1,703.4z"/>
	<path d="M502.6,763.4c0.6-2.6,1.3-5.1,1.9-7.5c0.6-2.4,1-4,1.2-4.7l7.5-0.4c2.5-0.1,5.1-0.3,7.7-0.3c2.6-0.1,5.2-0.2,7.7-0.3
		c0.5,0,1.1-0.1,1.6-0.1c0.6,0,1.1-0.1,1.5-0.2c0.4,0,0.9,0,1.3-0.1c0.4,0,0.8,0,1.3,0.1c0.6,2.3,1.3,4.6,2,6.7
		c0.8,2.2,1.5,4.4,2.3,6.6c0.4,1.2,0.8,2.4,1,3.5c0.2,1.1,0.6,2.3,1,3.5c0.5,1.5,1.6,2.2,3.2,2.1c0.2,0,0.3-0.1,0.4-0.2l0.5,0
		c0.4-0.2,0.9-0.3,1.5-0.3c0.6,0,1.1-0.1,1.6-0.1l3.3-0.2c0.6,0,1.2-0.1,1.9-0.2c0.7-0.1,1.3-0.1,2-0.2c0.4,0,0.8,0,1.2,0.1
		c0.4,0.1,0.8,0.1,1.2,0.1c1.2-0.1,1.8-0.8,1.7-2.1c0-0.3-0.1-0.5-0.1-0.9c-0.1-0.3-0.1-0.6-0.1-0.9c0-0.3,0-0.6,0.1-0.7l0.1-0.3
		l-0.1-0.3c-0.6-0.7-0.9-1.3-1-1.8c-0.1-0.3-0.2-0.7-0.3-1c-0.1-0.3-0.2-0.7-0.4-1.2c-0.2-0.7-0.5-1.3-0.7-1.8
		c-0.2-0.5-0.5-1.1-0.7-1.8c-0.2-0.2-0.3-0.3-0.3-0.4c0-0.1-0.1-0.3-0.2-0.5l-0.1-1.1c-0.1-0.3-0.2-0.7-0.3-1
		c-0.1-0.3-0.4-0.8-0.9-1.3c-0.1-1.1-0.2-2.1-0.4-3.2c-0.2-1.1-0.5-2.1-1-3.2c-0.7-1.4-1.2-3-1.6-4.5c-0.4-1.6-0.9-3.2-1.3-4.8
		c-0.4-1.6-0.8-3.1-1.2-4.7l0-0.3l-0.3-0.1c-0.6-0.5-0.9-1.2-0.9-2.1c0-0.2-0.2-0.8-0.6-1.8c-0.4-1-0.8-2.2-1.2-3.4
		c-0.4-1.3-0.8-2.4-1.2-3.5c-0.4-1.1-0.6-1.7-0.7-2l-0.3-0.4c-0.2-0.5-0.4-1-0.5-1.6c-0.1-0.5-0.3-1.1-0.5-1.8
		c-0.1-0.6-0.2-1.2-0.3-1.7c-0.1-0.5-0.2-1.1-0.4-1.7l0-0.3l-0.7-0.4l0.4-0.2l-0.2-0.5c-0.7-2.2-1.4-4.5-2.2-6.7
		c-0.8-2.2-1.5-4.5-2-6.8c-0.2-1.2-0.6-2.3-0.9-3.4c-0.4-1-0.8-2.1-1.3-3.1c-0.6-1.5-1.1-3-1.5-4.5c0-0.4-0.1-0.9-0.2-1.5
		c-0.1-0.6-0.3-1.1-0.5-1.6c-0.5-1-0.9-2-1.2-2.8l-0.2-0.5l-0.4,0c-0.7,0-1.4,0.1-2,0.2c-0.6,0.1-1.3,0.1-2,0
		c-2.1-0.1-4.3-0.1-6.5,0l-8.8,0.5c-1.2,0.1-2.5,0.2-3.7,0.5c-1.2,0.2-2.4,0.4-3.7,0.6c-0.5,0-0.8,0.1-0.9,0.2
		c-0.4,0-0.7,0.1-0.9,0.2c-0.4,0.2-0.8,0.8-1.1,1.8c-0.2,1.1-0.4,2.2-0.6,3.3c-0.2,1.2-0.4,2.4-0.7,3.6c-0.4,1.5-0.7,3-1.1,4.4
		c-0.4,1.4-0.7,2.8-1,4.3c-0.1,0.3-0.1,0.7-0.1,1.3c0,0.4-0.1,0.7-0.3,0.9c-0.3,0.7-0.4,1.5-0.4,2.4c-0.1,0.2-0.1,0.4-0.1,0.5
		c0,0.2-0.1,0.4-0.2,0.5c0,0.2-0.1,0.4-0.2,0.8c-0.2,0.6-0.4,1.3-0.6,2.1c-0.2,0.8-0.4,1.7-0.6,2.5c-0.2,1.8-0.6,3.4-1.2,5
		c-0.2,0.9-0.4,1.8-0.4,2.7c-0.1,0.9-0.3,1.8-0.6,2.8c-0.6,2.5-1.2,5-1.7,7.5c-0.5,2.5-1.1,5-1.6,7.6l-1.6,5.9
		c-0.1,0.7-0.3,1.4-0.4,2.1c-0.1,0.7-0.3,1.4-0.4,2.1c-0.4,1.8-0.8,3.6-1.3,5.5c-0.4,1.9-0.8,3.8-1.1,5.7c-0.1,0.4-0.2,0.8-0.3,1.1
		c-0.1,0.3-0.3,0.6-0.4,1.1c-0.1,0.4-0.2,0.8-0.3,1.2s-0.2,0.8-0.4,1.2c-0.2,1.1-0.4,2.2-0.7,3.3c-0.2,1.2-0.5,2.3-0.7,3.5
		c0,0.1,0,0.2,0,0.4c0,0.2,0,0.4,0,0.7c0,0.2,0,0.3,0,0.3c0,0.1-0.1,0.2,0,0.3l0,0.1l0,0.1c-0.2,0-0.3,0.1-0.5,0.3
		c-0.2,0.5-0.5,0.7-0.8,0.7l-0.4,0.4l0.4,0.5c0.1,0.2,0.3,0.4,0.7,0.8c0.1,0.1,0.2,0.2,0.3,0.2c0.1,0.1,0.2,0.2,0.4,0.4
		c0.5,0.5,1.1,0.7,2,0.7c1.2-0.1,2.4-0.2,3.5-0.3c1.1-0.2,2.3-0.3,3.4-0.3c0.7,0,1.4-0.1,2.1-0.1c0.7,0,1.4,0,2.1-0.1
		c0.7,0,1.4-0.1,2.1-0.3c0.7-0.1,1.4-0.4,2.1-0.8l0.4-0.2l0-0.4c0-0.2,0.2-1.3,0.7-3.5C501.5,768.3,502,766,502.6,763.4z
		 M508.3,738.7c0-0.2,0.1-0.5,0.3-0.7c0-0.4,0.1-0.7,0.3-1.1c0-0.1,0-0.2,0-0.3c0-0.1,0.1-0.2,0.1-0.3l0-0.4l0-0.8
		c0-0.3,0-0.7,0.1-0.9c0.1-0.2,0.2-0.4,0.3-0.5c0.1-0.2,0.2-0.4,0.3-0.5c0.3-0.6,0.5-1.3,0.6-2.1c0.1-0.8,0.2-1.5,0.3-2.3
		c0.2-0.4,0.2-0.8,0.3-1.2c0-0.4,0.1-0.7,0.1-0.9c0.1-0.4,0.1-0.7,0.2-1.1c0.1-0.4,0.2-0.7,0.3-0.9c0.1-0.5,0.2-0.9,0.2-1.2
		c0.1-0.2,0.1-0.4,0.1-0.8c0.1-0.3,0.2-0.5,0.3-0.7c0.1-0.2,0.3-0.5,0.4-0.9c0.2-0.3,0.4-0.6,0.3-0.8c0-0.7,0-1.3,0-1.9
		c0.1-0.6,0.2-1.2,0.3-1.8c0.1-0.7,0.3-1.4,0.5-2c0.2-0.6,0.4-1.3,0.6-2c0.3-1,0.5-2,0.6-3c0.1-1,0.3-2,0.6-3c0.1-0.7,0.4-1.7,0.8-3
		c0.4-1.3,0.5-2.3,0.5-3.1l0-0.5l0.4-0.4l0-0.3c0.2-0.5,0.4-0.9,0.4-1.5c0-0.1,0-0.2,0.1-0.3c2.1,6.9,4.3,13.7,6.7,20.5
		c2.4,6.7,4.5,13.6,6.3,20.6l-0.7,0c-0.4,0-0.8,0-1.1,0c-0.3,0-0.6,0-0.9,0c-0.3,0.1-0.7,0.2-1,0.2c-0.3,0-0.6,0.1-1,0.3
		c-0.4-0.2-0.9-0.2-1.4-0.2c-0.5,0-1,0-1.7-0.1c-0.7,0-1.5,0.1-2.4,0.1c-0.9,0.1-1.9,0.2-2.8,0.3c-1,0.1-1.9,0.1-2.9,0.2
		c-1,0.1-1.9,0.2-2.9,0.2c-0.7,0-1.4,0.1-2,0c-0.6,0-1.2,0-1.9-0.1C508.1,739.2,508.2,738.9,508.3,738.7z"/>
	<path d="M653.8,738.4c0.2-0.6,0.6-1.4,1-2.3c0.3-1,0.6-1.8,0.9-2.6c0.3-0.8,0.5-1.4,0.7-1.8c0.5-1.3,0.9-2.6,1.2-3.9
		c0.3-1.3,0.7-2.6,1.2-4c0.2-0.4,0.3-0.9,0.5-1.4c0.1-0.5,0.3-1,0.5-1.4c0.9-2.2,1.7-4.5,2.3-6.8c0.7-2.3,1.4-4.6,2.2-6.8
		c0.3-1,0.7-2.1,1.1-3.1c0.4-1,0.8-2,1.2-3c0.2-0.8,0.5-1.6,0.8-2.4c0.3-0.8,0.6-1.6,0.9-2.4c0.1-0.3,0.3-0.9,0.7-1.9
		c0.3-1,0.8-2.1,1.3-3.2c0.4-1,0.8-2,1.1-3c0.3-1,0.5-1.5,0.5-1.6c0-0.8-0.3-1.4-1-1.8c-0.6-0.3-1.2-0.4-1.8-0.5
		c-2.3-0.1-4.6-0.2-7-0.4c-2.4-0.1-4.7-0.3-7-0.5l-0.4,0l-0.1,0.3c-0.4,0.5-0.8,1.4-1.2,2.7c-0.4,1.3-0.9,2.6-1.4,4.1l-2.3,7.2
		c-0.1,0.3-0.4,1.3-0.9,2.9c-0.5,1.6-1.1,3.5-1.9,5.7c-0.8,2.3-1.6,4.7-2.6,7.5c-1,2.7-1.9,5.5-2.8,8.3c-0.7,2.3-1.4,4.5-2.2,6.6
		c-0.8,2.2-1.4,4.2-2,6c-0.6,1.9-1.2,3.5-1.7,5c-0.5,1.5-1,2.6-1.3,3.5c-0.2-0.7-0.5-1.4-0.7-2.2c-0.2-0.8-0.4-1.5-0.6-2.3
		c-0.2-1.1-0.4-2.1-0.6-3.2c-0.2-1.1-0.3-2.2-0.4-3.3c-0.1-0.6-0.2-1.3-0.3-2.1c-0.1-0.8-0.4-1.6-0.8-2.3l0-0.4l0-0.8
		c-0.1-0.2-0.2-0.7-0.3-1.7c-0.1-0.9-0.3-1.9-0.5-3c-0.2-0.5-0.3-1-0.3-1.5c-0.1-0.5-0.1-0.9-0.2-1.3c-0.2-0.5-0.2-0.8-0.2-0.9
		c-0.1-0.1-0.1-0.2-0.1-0.4c0-0.1,0-0.2-0.1-0.3l-0.3-0.3l0-0.3l0-0.4c0-0.1,0-0.2-0.1-0.2c0,0-0.1-0.1-0.1-0.2l0-0.4
		c0-0.4,0-0.6-0.1-0.8c0-0.2,0-0.3-0.1-0.3c0,0-0.1-0.2-0.1-0.3c-0.2-0.5-0.2-0.8-0.2-0.9c0-1,0-2-0.1-3.1c-0.1-1.1-0.3-2.2-0.4-3.4
		c-0.2-1.1-0.4-2.2-0.6-3.3c-0.2-1.1-0.3-2.1-0.5-3.1c-0.3-2.6-0.6-5.1-0.9-7.7c-0.2-2.6-0.5-5.2-0.8-7.8c-0.1-0.9-0.3-1.9-0.7-2.9
		l-0.1-0.3l-0.3-0.1c-0.3-0.1-0.8-0.3-1.3-0.5c-0.7-0.2-1.2-0.3-1.6-0.3c-0.4,0-0.7,0-0.9,0.1c-0.2,0-0.3,0-0.4,0.1
		c-0.1,0-0.2,0.1-0.4,0c-0.4,0.1-0.6,0.1-0.9,0.2c-0.2,0-0.5,0-0.7,0l-1.4-0.1l-1.4-0.1c-1.1,0.1-1.9,0.7-2.6,1.7
		c-0.4,0.8-0.8,2.1-1.1,4c-0.2,0.9-0.4,1.7-0.6,2.5c-0.2,0.8-0.4,1.4-0.6,1.8c-0.6,2.1-1.3,4.2-1.9,6.3c-0.7,2.1-1.3,4.3-1.8,6.5
		c-0.4,1.5-0.9,3-1.3,4.5c-0.5,1.5-1,3-1.6,4.5c-0.2,0.7-0.3,1.2-0.3,1.6c-0.1,0.2-0.1,0.4-0.2,0.6c0,0.2-0.1,0.4-0.2,0.6
		c-0.7,2.9-1.6,5.7-2.5,8.5c-0.9,2.8-1.9,5.7-2.9,8.5c-0.6,1.7-1.2,3.5-1.7,5.2c-0.5,1.7-1,3.5-1.5,5.2l0,0.3
		c-0.4-1.3-0.7-2.7-1-4.1c-0.3-1.4-0.6-2.8-1-4c-0.4-1.5-0.8-3-1.1-4.3c-0.4-1.4-0.7-2.8-0.9-4.3c0-0.1,0-0.2-0.1-0.3
		c0-0.1-0.1-0.2-0.1-0.3c-0.1,0-0.1,0-0.1-0.1c-0.4-1.2-0.7-2.5-1-3.8s-0.5-2.6-0.8-3.9c-0.1-0.3-0.2-0.5-0.2-0.8
		c-0.1-0.3-0.2-0.5-0.2-0.8c-0.2-0.5-0.4-0.9-0.3-1.2c0-0.1,0-0.2,0.1-0.2c0,0,0.1-0.1,0.1-0.2c0-0.1,0.1-0.2,0.1-0.3l0-0.5
		c0-0.2-0.1-0.3-0.2-0.5c-0.1-0.1-0.2-0.3-0.3-0.5c-0.2,0-0.3-0.1-0.3-0.3c-0.3-0.8-0.6-1.7-0.7-2.6c-0.2-0.9-0.4-1.8-0.6-2.6
		c-0.3-1.2-0.6-2.4-0.8-3.5c-0.3-1.1-0.5-2.2-0.8-3.3c-0.2-0.6-0.3-1.2-0.4-1.9c-0.1-0.6-0.2-1.2-0.4-1.7c-0.2-1.4-0.6-2.6-1.3-3.6
		c0-0.5-0.1-1.1-0.4-1.9c-0.1-0.2-0.1-0.4-0.2-0.5c0-0.2-0.1-0.4-0.2-0.5c0-0.2,0-0.3-0.1-0.4c0-0.1-0.1-0.2,0-0.4
		c-0.1-0.4-0.1-0.8-0.2-1.1c0-0.3-0.1-0.6-0.2-1c-0.1-0.4-0.1-0.7-0.2-1c-0.1-0.3-0.2-0.7-0.2-1.1c-0.5-1.3-0.7-2.5-0.6-3.6
		c0-1-0.3-1.6-1-1.9c-0.2-0.1-0.3-0.1-0.5-0.2c-0.1,0-0.3-0.1-0.5-0.2l-0.9,0c-1.1,0-2.1,0-3.2,0c-1.1,0-2.1,0-3.2,0l-6.2-0.3
		c-0.7,0-1.2,0-1.5,0.2c-0.3,0.2-0.7,0.6-1,1.3l0,0.3l0,0.1l0.4,0.8c0,0.1,0,0.1,0.1,0.1c0,0,0.1,0,0.1,0.1c0.1,0.1,0.1,0.2,0.1,0.4
		c0.2,0.7,0.4,1.4,0.6,2c0.1,0.6,0.3,1.3,0.4,2c0.3,1.1,0.6,2.1,1,3.1c0.4,1,0.6,2,0.9,2.9c0.4,1.9,0.7,3.7,1.1,5.7
		c0.4,1.9,0.9,3.8,1.4,5.5l0.2,0.5c0,0.1,0.1,0.3,0.2,0.7c0,0.1,0,0.2,0.1,0.2c0,0,0.1,0.1,0.1,0.2c0.1,0.1,0.1,0.2,0.1,0.3
		c0,1.7,0.3,3.4,0.8,5.3c0.5,1.7,0.9,3.4,1.3,5.1c0.4,1.7,0.8,3.4,1.2,5.2c0.4,1.2,0.7,2.5,1,3.9c0.3,1.3,0.6,2.6,1,3.9
		c0.2,0.9,0.4,1.8,0.5,2.7c0.1,0.9,0.4,1.8,0.7,2.6l0.3,0.3l0.3,0.3c0.1,0,0.1,0,0.1,0.1c0,0,0,0.1,0.1,0.1l-0.1,0.1l0,0.5
		c0.2,1.9,0.5,3.6,1,5.4c0.5,1.7,0.9,3.5,1.3,5.3c0.4,1.8,0.8,3.5,1.2,5.3c0.5,1.7,0.9,3.4,1.4,5.1l0.1,0.5l0.1,0l0,0.4
		c0,0.2,0,0.3,0,0.4c0,0.1,0.1,0.2,0.1,0.3l0.2,0.5l0.2,0.5c0,0.7,0,1.5,0.2,2.3c0.2,0.8,0.4,1.6,0.6,2.4c0.1,0.8,0.3,1.6,0.6,2.3
		c0.2,0.7,0.4,1.4,0.6,2.1c0.3,1.8,1.4,2.8,3.4,3.1c0.9,0.1,1.8,0.2,2.7,0.3c0.9,0.1,1.9,0.1,2.8,0.2c1,0,1.9,0,2.9-0.1
		c1-0.1,1.9-0.1,2.9-0.1c0.4,0,0.8,0.1,1.2,0.2c0.3,0.1,0.7,0.2,1.2,0.2c0.3,0,0.5,0,0.9,0c0.3,0,0.6-0.1,0.9-0.2
		c0.7-0.2,1.1-0.8,1.1-1.7c0-0.9,0.3-2,0.7-3.4c0.5-1.4,1-2.9,1.6-4.7c0.6-1.6,1.2-3.2,1.8-4.7c0.6-1.5,1-2.8,1.2-3.8l1.8-5.9
		c0.3-1,0.6-1.8,1-2.6c0.3-0.8,0.6-1.6,0.8-2.6c0-0.2,0.1-0.5,0.3-1c0.1-0.2,0.2-0.3,0.3-0.5c0.1-0.2,0.2-0.3,0.3-0.5
		c0.5-0.9,0.7-1.7,0.8-2.6c0-0.3,0.1-0.7,0.2-1c0.1-0.3,0.2-0.6,0.3-0.8l0.3-0.5c0,0.2,0.1,0.4,0.4,0.7l0.1,0.4l0.1,0l-0.3,0.1
		l0.1,0.5c0.3,1.9,0.7,3.7,1.2,5.4c0.5,1.7,1,3.5,1.4,5.3c0.2,1.1,0.4,2.1,0.5,3.1c0.1,1,0.2,2,0.3,3c0.1,1.1,0.3,2.1,0.7,3.1
		c0.3,1,0.8,2,1.5,3l0.1,0.3c0.1,0,0.1,0.1,0.1,0.1c0.1,0.1,0.1,0.2,0.1,0.4c0,0.7,0,1.5,0.2,2.3c0.2,0.8,0.4,1.7,0.6,2.6
		c0.2,0.7,0.5,1.5,0.7,2.3c0.2,0.8,0.4,1.6,0.6,2.3c0.2,0.5,0.3,0.9,0.3,1.2c0.2,0.4,0.3,0.6,0.5,0.8c0.2,0.2,0.3,0.3,0.4,0.3
		c0.1,0,0.3,0.1,0.5,0.2c0.4,0,0.8,0.1,1.2,0.2c0.9,0.1,1.7,0.2,2.5,0.4c0.8,0.1,1.7,0.2,2.6,0.2c1,0,2,0,3-0.1c1-0.1,2-0.1,3-0.1
		c0.7,0,1.3,0.1,1.9,0.2c0.6,0.1,1.2,0.2,1.9,0.2c1.1,0.1,1.8-0.5,2-1.6c0.1-0.3,0.2-0.7,0.2-1c0-0.3,0.1-0.7,0.2-0.9
		c0.3-1.2,0.7-2.4,1.2-3.6c0.5-1.2,0.9-2.5,1.4-3.8l0.5-2c0.1-0.3,0.2-0.5,0.2-0.8c0.1-0.3,0.2-0.6,0.4-0.8c1.1-2.6,2.1-5.3,2.9-8
		c0.9-2.8,1.7-5.5,2.5-8.2c0-0.1,0.1-0.3,0.3-0.6l0.4-0.8c0.4-0.7,0.6-1.3,0.6-1.8l0-0.4l-0.1-0.3l0-0.1
		C653.4,739.4,653.5,739,653.8,738.4z"/>
	<path d="M739.4,744.9c-0.1-1.1-0.3-2.3-0.4-3.6c-0.1-1.3-0.3-2.5-0.4-3.7c-0.1-1.1-0.2-1.8-0.3-2.1l-0.2-0.4
		c-0.1-0.6-0.1-1.1-0.1-1.6c0-0.5,0-1.2-0.1-1.9c0-0.6,0-1.2,0.1-1.7c0-0.5,0-1.1,0-1.7l0-0.3l-0.6-0.5l0.4-0.1l0-0.5
		c-0.1-2.3-0.4-4.7-0.6-7c-0.3-2.4-0.5-4.7-0.5-7c0-1.2,0-2.4-0.2-3.5c-0.1-1.1-0.3-2.2-0.6-3.3c-0.3-1.6-0.4-3.1-0.4-4.7
		c0.1-0.4,0.1-0.9,0.1-1.5c0-0.6,0-1.1-0.1-1.7c-0.3-1.1-0.5-2.1-0.6-3l0-0.5l-0.4-0.1c-0.7-0.1-1.4-0.2-2-0.3
		c-0.6-0.1-1.3-0.2-1.9-0.4c-2-0.6-4.1-1.1-6.3-1.4l-8.7-1.4c-1.2-0.2-2.4-0.3-3.7-0.3c-1.2,0-2.5-0.1-3.7-0.2
		c-0.5-0.1-0.8-0.1-0.9,0c-0.4-0.1-0.7-0.1-0.9,0c-0.5,0.1-0.9,0.6-1.4,1.5c-0.4,1-0.9,2-1.3,3.1c-0.4,1.1-0.9,2.2-1.5,3.4
		c-0.7,1.4-1.4,2.7-2.1,4c-0.7,1.3-1.3,2.6-1.9,4c-0.1,0.2-0.2,0.7-0.3,1.3c-0.1,0.3-0.2,0.6-0.5,0.8c-0.5,0.6-0.8,1.4-0.9,2.3
		c-0.1,0.2-0.2,0.3-0.2,0.5c0,0.2-0.1,0.3-0.3,0.5c0,0.2-0.2,0.4-0.4,0.7c-0.4,0.6-0.7,1.2-1.1,2c-0.3,0.7-0.7,1.5-1.1,2.4
		c-0.6,1.7-1.4,3.2-2.2,4.6c-0.4,0.8-0.7,1.7-1,2.5c-0.3,0.8-0.7,1.7-1.2,2.6c-1.2,2.3-2.3,4.6-3.3,6.9s-2.1,4.7-3.2,7.1l-2.9,5.4
		c-0.3,0.7-0.6,1.3-0.9,1.9c-0.3,0.6-0.6,1.3-0.9,1.9c-0.8,1.7-1.6,3.3-2.4,5.1s-1.6,3.5-2.3,5.4c-0.2,0.4-0.3,0.7-0.5,1
		c-0.2,0.2-0.4,0.6-0.6,1c-0.2,0.4-0.3,0.8-0.5,1.1c-0.2,0.3-0.4,0.7-0.6,1.1c-0.4,1-0.9,2-1.4,3.1c-0.5,1.1-1,2.2-1.4,3.2
		c0,0.1-0.1,0.2-0.1,0.4c-0.1,0.2-0.1,0.4-0.2,0.6c0,0.2-0.1,0.3-0.1,0.3c-0.1,0-0.1,0.1-0.1,0.3l0,0.1l0,0.1c-0.2,0-0.4,0-0.6,0.2
		c-0.3,0.4-0.6,0.6-0.9,0.5l-0.5,0.3l0.3,0.6c0.1,0.2,0.2,0.5,0.5,0.9c0.1,0.1,0.1,0.2,0.2,0.3c0.1,0.1,0.2,0.3,0.3,0.5
		c0.3,0.6,1,1,1.8,1.1c1.2,0.2,2.4,0.3,3.5,0.4c1.1,0.1,2.3,0.2,3.4,0.4c0.7,0.1,1.4,0.2,2.1,0.4c0.7,0.2,1.4,0.3,2.1,0.4
		c0.7,0.1,1.4,0.2,2.1,0.2c0.7,0,1.4-0.1,2.2-0.3l0.4-0.1l0.1-0.4c0-0.2,0.5-1.3,1.4-3.2s2-4.2,3.1-6.6c1.2-2.4,2.3-4.7,3.5-6.9
		c1.1-2.2,1.9-3.7,2.2-4.3l7.4,1.2c2.5,0.4,5,0.9,7.6,1.4c2.5,0.5,5.1,1,7.6,1.4c0.5,0.1,1.1,0.2,1.6,0.3c0.6,0.1,1.1,0.1,1.5,0.1
		c0.4,0.1,0.8,0.1,1.2,0.2c0.4,0.1,0.8,0.2,1.2,0.3c0,2.4,0.2,4.8,0.5,7c0.3,2.3,0.6,4.6,0.8,6.9c0.1,1.3,0.2,2.5,0.2,3.6
		c0,1.2,0.1,2.4,0.2,3.6c0.2,1.5,1.1,2.4,2.6,2.7c0.2,0,0.3,0,0.4-0.1l0.5,0.1c0.5-0.1,1-0.1,1.5,0c0.6,0.1,1.1,0.2,1.6,0.3l3.3,0.5
		c0.6,0.1,1.2,0.2,1.9,0.2c0.7,0.1,1.3,0.2,2,0.3c0.4,0.1,0.8,0.2,1.2,0.3c0.3,0.1,0.7,0.3,1.1,0.3c1.2,0.2,1.9-0.4,2.1-1.7
		c0-0.3,0.1-0.5,0.1-0.9c0-0.3,0-0.6,0.1-0.9c0.1-0.3,0.1-0.6,0.2-0.6l0.2-0.2l-0.1-0.3c-0.4-0.8-0.6-1.4-0.6-2c0-0.4,0-0.7,0-1.1
		c0-0.4,0-0.8-0.1-1.2c-0.1-0.7-0.2-1.4-0.3-1.9c-0.1-0.6-0.2-1.2-0.3-1.9c-0.1-0.2-0.2-0.4-0.2-0.5c0-0.1,0-0.3-0.1-0.5l0.2-1
		c0-0.4-0.1-0.7-0.1-1.1c0-0.4-0.2-0.8-0.6-1.4c0.2-1,0.3-2.1,0.3-3.2c0-1.1-0.1-2.2-0.3-3.3c-0.4-1.6-0.6-3.2-0.6-4.8
		c-0.1-1.7-0.2-3.4-0.3-5c-0.1-1.6-0.1-3.2-0.1-4.8l0-0.3L740,749c-0.4-0.6-0.6-1.3-0.4-2.2C739.6,746.6,739.6,746,739.4,744.9z
		 M720.8,749.7c-0.4-0.1-0.8-0.1-1-0.2c-0.3-0.1-0.6-0.2-0.9-0.2c-0.4,0-0.7,0-1,0c-0.3,0-0.6,0-1,0.1c-0.4-0.2-0.8-0.4-1.3-0.6
		c-0.5-0.1-1-0.3-1.6-0.5c-0.7-0.1-1.5-0.2-2.4-0.4c-0.9-0.2-1.9-0.3-2.8-0.3c-1-0.2-1.9-0.3-2.9-0.4c-1-0.1-1.9-0.2-2.9-0.4
		c-0.7-0.1-1.3-0.2-1.9-0.4c-0.6-0.1-1.2-0.3-1.8-0.5c0.2-0.2,0.4-0.5,0.4-0.7c0.1-0.2,0.2-0.4,0.4-0.7c0.1-0.3,0.2-0.7,0.6-1
		c0-0.1,0-0.2,0.1-0.3c0.1-0.1,0.1-0.2,0.1-0.2l0.1-0.4l0.1-0.8c0.1-0.3,0.2-0.6,0.3-0.9c0.1-0.2,0.3-0.3,0.4-0.5
		c0.2-0.2,0.3-0.3,0.4-0.5c0.4-0.5,0.8-1.2,1-1.9c0.2-0.7,0.5-1.4,0.8-2.2c0.2-0.4,0.4-0.8,0.5-1.1c0.1-0.3,0.2-0.6,0.3-0.9
		c0.1-0.3,0.3-0.7,0.4-1c0.1-0.3,0.3-0.6,0.5-0.8c0.3-0.5,0.4-0.9,0.5-1.1c0.1-0.2,0.2-0.4,0.3-0.8c0.1-0.2,0.3-0.5,0.4-0.7
		c0.2-0.2,0.4-0.5,0.6-0.8c0.3-0.2,0.5-0.5,0.5-0.7c0.1-0.7,0.3-1.3,0.4-1.9c0.2-0.6,0.4-1.1,0.7-1.7c0.3-0.7,0.6-1.3,0.9-1.9
		c0.3-0.6,0.7-1.2,1-1.8c0.5-0.9,0.9-1.8,1.3-2.8c0.3-1,0.8-1.9,1.3-2.8c0.3-0.7,0.7-1.6,1.4-2.8c0.6-1.2,1-2.2,1.2-2.9l0.1-0.5
		l0.5-0.3l0-0.3c0.3-0.4,0.6-0.8,0.8-1.3c0-0.1,0.1-0.2,0.2-0.2c0.5,7.2,1.2,14.4,2,21.4c0.8,7.1,1.4,14.2,1.6,21.5L720.8,749.7z"/>
	<path d="M786.3,716.5l-0.9-0.7c-0.1-0.1-0.3-0.3-0.4-0.4c-0.1-0.2-0.2-0.4-0.4-0.6l-0.2-0.9l-0.5-1c-0.1-0.7-0.3-1.4-0.5-2.1
		c-0.2-0.4-0.3-0.8-0.5-1.1c-0.2-0.3-0.3-0.7-0.4-1.1c-0.3-0.6-0.5-1.3-0.8-1.9c-0.2-0.6-0.4-1.3-0.4-2c0-0.1,0-0.2-0.1-0.5
		l-0.1-0.2l-0.2-0.3l-0.3-0.1c-0.3-0.1-0.5-0.2-0.7-0.3c-0.2-0.1-0.4-0.2-0.7-0.3c-0.3-0.1-0.7-0.1-1.1,0c-0.3-0.1-0.6-0.1-1,0
		c-0.6,0.1-1.1,0.1-1.6-0.1l-6.7-1.9c-0.9-0.3-1.9-0.5-3-0.7c-1.1-0.2-2.1-0.4-3-0.7l-0.8-0.2c-0.6,0-1.1,0.2-1.4,0.6l-0.1,0.4
		c-0.3,0.9-0.2,2,0.3,3.1c0.1,0.2,0.2,0.4,0.3,0.6c0.1,0.2,0.2,0.4,0.3,0.6c0.1,0.2,0.2,0.4,0.4,0.6c0.1,0.2,0.3,0.4,0.4,0.6
		c1,1.5,1.8,2.9,2.2,4.2c0.4,1,0.8,2,1.2,2.8c0.2,0.4,0.4,0.8,0.5,1.1c0.1,0.2,0.2,0.4,0.3,0.6c0.1,0.2,0.2,0.4,0.3,0.6
		c0.5,1.4,1,2.9,1.4,4.3c0.5,1.5,1,2.9,1.6,4.4c0,0.2,0.2,0.5,0.4,0.9c0,0.2,0.1,0.3,0.2,0.4c0.1,0.1,0.2,0.2,0.3,0.3
		c0.4,0.6,0.5,1.2,0.5,1.5c0.1,0.4,0.2,0.7,0.3,1c0.1,0.3,0.3,0.6,0.4,0.9c0.1,0.1,0.2,0.4,0.3,0.8c0,0.2,0.1,0.5,0.3,0.8
		c0.3,1,0.6,2,1,3c0.2,0.5,0.4,1,0.6,1.4c0.2,0.4,0.3,0.9,0.6,1.4c1.2,3,2.4,6,3.5,9c1.1,3,2.3,6,3.5,9c0.1,0.8,0.2,1.4,0,1.8
		c-0.3,0.9-0.5,1.8-0.8,2.6c-0.3,0.8-0.5,1.7-0.8,2.5c-0.8,3-1.6,5.9-2.4,8.8c-0.7,2.9-1.5,5.8-2.4,8.8c0,0.2-0.1,0.4-0.2,0.6
		c-0.1,0.2-0.2,0.4-0.2,0.6c-0.1,0.5-0.1,0.9,0.3,1c0,0.1-0.1,0.1-0.2,0.1c0,0.1-0.1,0.1-0.2,0.1c-0.1,0-0.1,0-0.2,0.1l-0.5,0.4
		l0.6,0.9c-0.1,0.1-0.3,0.2-0.4,0.3c-0.1,0.1-0.2,0.2-0.2,0.3c0,0.2,0,0.3,0,0.4c0.1,0.1,0.1,0.3,0.1,0.5c-0.1,0-0.1,0-0.2,0.1
		l-0.5,0.1l0,0.4c0.1,0.1,0.2,0.3,0.1,0.6c0,0.2-0.1,0.3-0.3,0.4c-0.1,0.1-0.2,0.2-0.3,0.4c0,0.1-0.1,0.1-0.1,0.2
		c-0.1,0-0.1,0.1-0.2,0.3l-0.2,0.6c-0.1,0.4-0.2,0.8-0.2,1.1c0,0.3-0.1,0.7-0.2,1.1c-0.1,0.4-0.2,0.8-0.4,1.1
		c-0.1,0.3-0.3,0.6-0.4,1.1l-0.7,2.3c0,0.4,0,0.9,0.1,1.4c0.1,0.5,0.3,0.9,0.7,1.2l0.2,0.2l0.3,0.1c0.2,0,0.3,0,0.4,0
		c0.1,0,0.2,0,0.4,0c0.2,0.4,0.7,0.8,1.5,1c2.2,0.6,4.4,1.2,6.5,1.7c2.1,0.5,4.3,0.9,6.6,1.2l0.1,0l0.9-0.7l0.1-0.3
		c0-0.3,0-0.6,0.1-0.9c0.1-0.3,0.2-0.6,0.2-0.8c0.1-0.4,0.3-0.8,0.4-1.2c0.2-0.4,0.3-0.7,0.4-1.1c0.2-0.7,0.3-1.3,0.4-2
		c0.1-0.7,0.2-1.2,0.4-1.7c0-0.2,0.1-0.3,0.2-0.4c0.1-0.1,0.1-0.3,0.2-0.4c0-0.2,0.1-0.3,0-0.4c0-0.1,0-0.2,0-0.4
		c0.1-0.1,0.3-0.4,0.4-0.9l1.5-5.2l0-0.1c0-0.1,0.1-0.2,0.2-0.2l0.1-0.4l0.1-0.4l0.2-0.6c0-0.2,0.1-0.3,0-0.3c0-0.1,0-0.2,0-0.3
		c0-0.3,0-0.6,0.2-1c0.6-1.9,1.1-3.8,1.7-5.5c0.6-1.7,1.2-3.6,1.8-5.5c0.1-0.4,0.3-0.8,0.5-1.1c0.2-0.3,0.3-0.7,0.5-1.1
		c0.4-0.9,0.8-1.5,1.1-1.9c0-0.2,0.2-0.2,0.3-0.2l0.1-0.5l0.6-2.2c0.3-0.9,0.5-1.6,0.7-2c0.2-0.3,0.6-0.8,1.1-1.4
		c0.6-0.6,1.2-1.2,2-1.9c0.7-0.7,1.5-1.3,2.2-1.8c0.7-0.6,1.2-1,1.6-1.1c0.2-0.1,0.4-0.2,0.5-0.3c0.1-0.1,0.3-0.2,0.5-0.3
		c0.1-0.1,0.2-0.3,0.3-0.5c0.1-0.2,0.2-0.3,0.3-0.5c0.7-0.4,1.2-0.7,1.6-0.6l0.3-0.1l0.2-0.2c0.3-0.4,0.8-0.9,1.5-1.6
		c0.7-0.7,1.4-1.4,2.2-2.1c0.8-0.7,1.6-1.4,2.3-2c0.7-0.6,1.3-1,1.6-1.2c0.6-0.4,1.2-0.8,1.6-1.2c0.2-0.2,0.5-0.4,0.7-0.6
		c0.2-0.2,0.5-0.5,0.8-0.7c0.1-0.1,0.2-0.2,0.3-0.3c0.1,0,0.1-0.1,0.3-0.3c0.1-0.1,0.2-0.1,0.3-0.1c0.1,0,0.2-0.1,0.3-0.2
		c0.2-0.1,0.3-0.2,0.4-0.3c1.1-0.7,2.3-1.7,3.6-3.1c0-0.1,0.1-0.1,0.2-0.2c0.1,0,0.2-0.1,0.2-0.3l0.1-0.4c0.2,0,0.3,0.1,0.4,0
		c0.1,0,0.2,0,0.4-0.1l0.1,0l0.2-0.2l1.2-1.3c0.3-0.5,0.7-0.9,1.2-1.2c0.5-0.3,1.1-0.8,2-1.4c0.9-0.6,1.8-1.3,2.8-2
		c1-0.7,1.9-1.4,2.7-2.1c0.8-0.7,1.4-1.2,1.8-1.6c0-0.2,0.2-0.3,0.3-0.4c0.2-0.1,0.4-0.2,0.6-0.3c0.5-0.3,0.9-0.6,1.2-0.8
		c0.4-0.2,0.9-0.6,1.3-1c0.4-0.2,0.7-0.6,0.8-1c0.1-0.5,0.1-1-0.2-1.6l-0.2-0.2l-0.4-0.1c-0.4,0.1-0.7,0.1-0.8,0
		c-0.2,0-0.3-0.1-0.4,0c-0.1,0-0.2,0-0.3,0c-0.3-0.1-0.5-0.2-0.6-0.2c-0.2-0.1-0.4-0.2-0.6-0.2c-0.9-0.4-1.8-0.7-2.7-1.1
		c-0.9-0.3-1.8-0.7-2.7-1c-1.2-0.5-2.5-1.1-3.8-1.6c-1.3-0.5-2.6-1-3.9-1.3c-0.4-0.1-0.8-0.2-1-0.2c-0.3-0.1-0.6-0.1-0.7-0.1
		c-0.3-0.1-0.5,0-0.7,0.2c-0.2,0.1-0.4,0.3-0.4,0.4c-0.1,0.1-0.3,0.2-0.6,0.5c0,0.2-0.1,0.3-0.2,0.3c-0.1,0-0.1,0.1-0.2,0.3
		c-0.3,0.2-0.4,0.3-0.4,0.3c-2.1,1.8-4.1,3.5-6.2,5.2c-2.1,1.7-4.2,3.3-6.3,4.9c-0.3,0.2-0.5,0.4-0.6,0.7c-0.1,0.1-0.2,0.2-0.3,0.2
		c-0.1,0-0.2,0.1-0.2,0.3c-0.4,0.4-0.7,0.6-0.9,0.7l-0.2,0.1l-0.2,0.1c0,0.1-0.1,0.1-0.1,0.1c0,0-0.1,0-0.1,0.1
		c-0.1,0.1-0.2,0.2-0.3,0.3c-0.1,0-0.2,0.1-0.3,0.3c-0.4,0.4-0.7,0.7-0.9,0.8c-0.2,0.2-0.4,0.4-0.6,0.6c-0.2,0.2-0.5,0.3-0.7,0.6
		c-0.3,0.2-0.6,0.3-0.9,0.5c-0.3,0.2-0.5,0.3-0.8,0.5c-1.6,1.1-3.1,2.3-4.6,3.6c-1.5,1.3-2.9,2.6-4.3,4c-0.1,0-0.1,0-0.1,0
		c0,0-0.1,0.1-0.1,0c-0.1-0.2-0.2-0.5-0.4-0.9c-0.1-0.4-0.3-0.8-0.4-1.2c-0.1-0.2-0.2-0.5-0.3-0.8c-0.1-0.3-0.1-0.5-0.3-0.8
		c-0.1-0.1-0.1-0.2-0.1-0.2c0,0,0-0.1-0.1-0.2c0.1-0.5,0-1-0.4-1.5c-0.3-0.4-0.5-0.7-0.7-1c-0.2-0.3-0.3-0.6-0.4-1
		c-0.2-0.3-0.3-0.7-0.4-1c-0.1-0.3-0.2-0.8-0.5-1.3c-0.1-0.2-0.4-0.8-0.8-1.9c-0.4-1-0.9-2.2-1.4-3.4c-0.3-0.6-0.5-1.2-0.7-1.7
		c-0.2-0.5-0.4-1-0.5-1.5c-0.1-0.2-0.2-0.4-0.3-0.6c-0.1-0.2-0.2-0.3-0.2-0.5c0-0.1,0-0.1,0-0.1c0,0-0.1-0.1,0-0.1
		c-0.1-0.4-0.1-0.7-0.2-1c-0.1-0.3-0.1-0.5-0.3-0.8c0-0.2-0.1-0.3-0.2-0.4c-0.1-0.1-0.2-0.2-0.3-0.4c0-0.1,0-0.3-0.1-0.7
		c-0.2-0.2-0.4-0.5-0.5-0.8c-0.2-0.3-0.3-0.5-0.5-0.8c-0.1-0.2-0.3-0.4-0.4-0.5l-0.3-0.5c0-0.1,0.1-0.1,0.2-0.1L786.3,716.5z"/>
	<path d="M717,844.1c-4.8-2.2-10.5-2-16.9,0.5c-2.8,1-5.8,2.7-9,5c-3.2,2.3-6.4,5-9.6,8.1c-3.2,3.1-6.2,6.5-9.2,10.2
		c-3,3.7-5.5,7.4-7.5,11.2c-2.3,4-4.8,9-7.4,15c-2.6,6-4.8,11.7-6.8,17.1c-1.2,3.4-1.8,4.5-1.8,3.4c0-1.1,0.6-6.2,2-15.5
		c0.9-5.3,1.9-11.4,3.1-18.5c1.2-7.1,2.4-13,3.4-17.7c1.9-9.4,2.9-15.8,3-19c0.1-3.2-0.7-5.6-2.4-7.1c-1.2-0.9-3-1.6-5.2-2
		c-2.2-0.4-4.6-0.5-7-0.4c-2.4,0.1-4.7,0.5-6.8,1.2c-2.1,0.7-3.6,1.7-4.6,2.9c-1.9,2.2-3.6,7-5.3,14.5c-1.7,7.5-3.7,19.4-6.1,35.7
		c-1.6,12.4-2.9,24-3.7,34.7c-0.1,0.3-0.2,0.7-0.4,1c-6.5,18.8-12.6,35-18.5,48.6c-5.9,13.5-11.1,23.9-15.7,31.2l-3.4,4.8l-0.7-4.5
		c-0.4-3.3-0.8-6.2-1-8.8c-0.2-2.6-0.3-5.6-0.2-9.1c0.1-3.5,0.4-7.7,0.8-12.6c0.4-4.9,1.1-11.2,2-18.9c1-8.5,1.9-16.9,2.9-25.4
		c1-8.5,1.8-14.3,2.4-17.4c0.9-5.3,1.3-8.6,1.4-10.1c0-1.5-0.4-2.8-1.4-4c-2.8-4.1-8.1-5.7-15.9-5c-5.4,0.5-9.2,1.5-11.2,3.1
		c-2.1,1.6-4.4,5.3-6.9,10.9c-2.9,6.4-6.4,13.5-10.7,21.3c-4.3,7.8-8.3,14.6-12.2,20.3c-1.9,2.5-3.9,4.9-5.9,7.4
		c-2,2.5-4,4.6-5.8,6.6c-1.8,1.9-3.4,3.4-4.7,4.5c-1.3,1.1-2.1,1.3-2.3,0.7c-0.2-0.3-0.5-1.1-0.9-2.5c-0.4-1.4-0.7-2.9-1.1-4.5
		c-1.2-5.8-1.8-12.7-1.6-20.9c0.1-8.2,0.8-16.7,1.9-25.5c1.1-8.9,2.8-17.6,4.8-26.2c2.1-8.6,4.4-16.1,7-22.5
		c3.3-7.4,6.8-13.6,10.6-18.5c3.8-4.9,7.1-7.2,10-6.9c3.2,0.4,6.4,2.5,9.7,6.5c3.3,4,6.1,8.9,8.4,14.8c1.4,3.9,2.7,6.5,3.9,7.7
		c1.2,1.2,2.7,1.2,4.4,0.1c1.1-0.7,1.7-1.8,1.6-3.4c-0.1-1.6-0.8-4.4-2.3-8.3c-1.6-4.7-4.1-9.4-7.4-13.9c-3.4-4.5-7.1-8.1-11-10.7
		c-2.8-1.7-5-2.7-6.7-3.2c-1.7-0.5-4.4-0.9-8.1-1.3c-6.1-0.7-11.1-0.3-15,1.1c-3.9,1.4-8.8,4.6-14.8,9.6c-14.3,12-24.4,29.4-30.5,52
		c-1.3,4.8-2.3,9.6-3,14.4c-2.3,5.6-4.7,11.4-7.2,17.2c-2.8,6.5-5.4,12.7-7.9,18.4c-2.5,5.7-4.3,9.5-5.3,11.3
		c-12.1,21.7-24.2,34.8-36.3,39.3l-5.8,1.7l-4.5-6.5c-5.1-7-9.3-15.1-12.5-24.2c-3.2-9.1-5.5-18.8-6.7-29.1
		c-0.3-2.2-0.5-4.2-0.5-6.1c-0.1-1.9-0.1-4-0.1-6.4c0-2.4,0.2-5.4,0.6-9c0.4-3.6,0.9-8,1.5-13.3c0.7-5.8,1.2-10.5,1.6-14.1
		c0.4-3.6,0.9-6.5,1.4-8.9c0.5-2.4,1.1-4.4,1.7-6c0.6-1.7,1.3-3.8,2.1-6.4c5.6-13.6,12.2-23.8,20-30.7c3.6-3.1,6.6-5.2,9.2-6.4
		c2.5-1.2,5.3-1.6,8.2-1.3c3.4,0.4,6.7,2.5,9.7,6.3c3,3.8,4.9,8.4,5.7,13.5c0.3,1.6,0.4,3.9,0.2,6.9c-0.2,2.9-0.5,6-0.9,9.2
		s-0.8,6.1-1.4,8.7c-0.6,2.6-1,4.3-1.4,5.1c-1.6,2-2,3.6-1.4,4.9c0.7,1.3,2.1,1.9,4.2,1.9c2.1,0.2,3.9-1,5.3-3.8
		c0.7-1.5,1.4-3.7,2-6.6c0.6-2.9,1.1-6,1.5-9.5c0.4-3.4,0.6-6.7,0.7-9.8c0.1-3.1,0-5.7-0.3-7.9c-1.3-7.6-4-13.9-8.3-18.7
		c-4.3-4.8-9.4-8.1-15.4-9.8c-6-1.8-12.5-1.8-19.5-0.2c-7,1.6-14,5-21.1,10c-22,16.2-35,42.4-39.2,78.4c-1.7,15.1-1.8,27.9-0.2,38.6
		c1.6,10.6,5.2,21,10.7,31c5.5,10.3,14,18.4,25.4,24.2c3.8,1.8,8.4,3,13.7,3.6c6.1,0.7,11.4,0.3,16-1.2c4.6-1.5,9.6-4.5,14.9-8.9
		c3.8-3,7.5-6.5,10.9-10.4c3.4-3.9,6.7-8.5,10-13.9c3.3-5.4,6.6-11.8,10-19.2c2.2-4.7,4.5-10,6.9-15.7c0.2,3.5,0.5,6.9,1,10.2
		c1.1,7.6,3,14.4,5.5,20.3c2.5,5.9,5.9,10.5,10.1,13.6c2.7,2.5,6.2,4,10.7,4.7c4.5,0.7,8.7,0.3,12.6-1.2c10.6-3.9,22.2-16.2,34.8-37
		l5-8.3l-1.6,14.3c-2.1,18.3-2,34,0.2,47.1c2.2,13.1,6.4,22.1,12.6,26.8c5.4,4.4,11.3,4.6,17.6,0.8c6.6-3.8,14.3-14.7,23.1-32.7
		c5.2-10.7,10.5-23.2,15.8-37.5c-0.1,7.7,0,15.2,0.4,22.5c0.4,7.8,0.9,13.2,1.4,16.2c0.5,3,1.3,5,2.5,5.9c2.2,2.1,6.6,2,13.3-0.5
		c2.2-0.8,4-1.6,5.3-2.4c1.3-0.8,2.4-2.2,3.3-4.2c0.9-2,1.6-5,2.2-9c0.6-4,1.3-9.5,2.1-16.7c2.6-20.3,6-37.1,10.2-50.3
		c4.2-13.2,9.6-24.9,16.1-35.2c3.6-5.7,8-11.1,13.1-16.2c5.1-5,9.7-8.4,13.6-10.1c1.4-0.4,2.1-0.4,2.2-0.1c0.1,0.3-0.2,1.3-1,3.1
		c-1.3,4.4-0.7,8.8,1.7,13.3c2.4,4.4,5.6,6.9,9.6,7.3c2.1,0.2,4.1-0.2,6-1.3c1.9-1.1,3.5-2.7,4.8-4.7c1.3-2,2.2-4.2,2.6-6.7
		c0.4-2.5,0.2-5-0.5-7.5C725.1,850.4,721.8,846.3,717,844.1z"/>
</g>
</svg>
