<?xml version="1.0" encoding="utf-8"?>
<!-- Generator: Adobe Illustrator 22.0.0, SVG Export Plug-In . SVG Version: 6.00 Build 0)  -->
<svg version="1.1" id="Layer_1" xmlns="http://www.w3.org/2000/svg" xmlns:xlink="http://www.w3.org/1999/xlink" x="0px" y="0px"
	 viewBox="0 0 1080 1080" style="enable-background:new 0 0 1080 1080;" xml:space="preserve">
<style type="text/css">
	.st0{fill:#1F9D48;}
	.st1{fill:#EA2625;}
	.st2{fill:#FCCF0C;}
</style>
<g>
	<g>
		<path class="st0" d="M976.7,900.7c-24.4,0-48.8,0-73.2,0C927.9,900.7,952.3,900.7,976.7,900.7c0.3,0,0.6,0,0.8,0
			C977.3,900.7,977,900.7,976.7,900.7z"/>
		<path class="st1" d="M982.8,910.5c-0.9,4.3-3.8,6.6-8.1,6.4c-1.6-0.1-3.2-0.3-4.8-0.3c-2.1,0-3.8,0.8-4.1,3c-0.3,2-0.5,4,1.9,5.2
			c2.5,1.2,3.7,5.1,2.9,8.1c-0.8,3.1-3.3,5.1-6.4,5.1c-1.9,0-1.9,0-3.8,1.2c0.1,0.1,0.1,0.4,0.2,0.4c3.3,1.7,4.6,3.4,4.3,5.9
			c-0.3,2.5-3.9,5.8-6.6,6.1c-1.2,0.2-2.1-0.5-3-1.1c-2.9-2-4.7-1.2-5.3,2.3c-0.5,3.5-1.1,7.1-2.5,10.4c-1.6,3.7-4.3,5.5-8.5,5.7
			c-4.2,0.2-8.4,1.3-12.5,2.1c-5.7,1.2-9.1-1.5-9.1-7.3c0-1.6-0.5-3-1.5-4.2c-4.4-5.6-7.2-11.9-7.9-19c-0.2-2.5-1.1-4.8-2.5-6.9
			c-1.2-1.7-2.3-3.4-3.6-5c-4-4.9-4.4-10.1-1.8-15.7c1.8-3.9,3.6-7.7,3.4-12.1c24.4,0,48.8,0,73.2,0c0.3,0,0.5,0,0.8,0
			c0.3,0,0.6,0,0.8,0c0.1,0,0.3,0,0.4,0h0c0.4,0,0.8,0,1.2,0C982.4,903.5,983.6,906.7,982.8,910.5z"/>
		<path class="st0" d="M976.3,834.2c-38.8,0-77.5,0-116.3,0c-3.4,0-6.7,0-10.1,0c-3,0-5.9,0-8.9,0c-3.4,0-6.9,0-10.3,0
			c-2.5,0-5,0-7.5,0c1.1-2.7,2.7-5.1,3.3-8c0.7-3.3-0.2-6-2.5-8.4c-3.4-3.4-3.4-4-1.1-8.2c2.7-4.8,6.4-8.6,11.2-11.2
			c4.3-2.3,6.9-5.4,6.4-10.5c-0.2-2.6,1.2-4.3,3.2-5.7c2.5-1.7,5.1-3.4,4.7-7.2c-0.2-1.6,2.8-2.9,4.7-1.8c4.5,2.4,8.6,1.2,12.7-0.7
			c8-3.7,16.6-4.3,25.2-4.7c4-0.2,5.9,2.8,4.5,6.7c-1.4,3.9-1.4,4,2.5,5.6c3.2,1.3,6.4,2.3,9.6,3.5c3,1,5.8,2.3,8.4,4.3
			c1,0.8,2.1,1.4,3.4,1.6c2.6,0.5,3.8-0.3,4.7-2.7c1.6-4.8,2.3-5.2,7.3-3.8c2.2,0.6,4.4,1.4,6.5,2.3c4.9,2.2,9.9,3.6,15.3,3
			c2.4-0.3,3.8,0.9,4.8,2.9c2.3,4.4,3.3,9.1,4.3,13.8c0.4,1.7,1.1,3.1,2.2,4.5C970.4,816.7,974.6,824.8,976.3,834.2z"/>
		<path class="st2" d="M976.7,900.7c-24.4,0-48.8,0-73.2,0C927.9,900.7,952.3,900.7,976.7,900.7c0.3,0,0.6,0,0.8,0
			C977.3,900.7,977,900.7,976.7,900.7z"/>
		<path class="st2" d="M980,900.6c-0.4,0-0.8,0-1.2,0h0c-0.1,0-0.3,0-0.4,0c-0.3,0-0.6,0-0.8,0c-0.3,0-0.6,0-0.8,0
			c-24.4,0-48.8,0-73.2,0c-0.6-5.3-3-9.8-6.2-14.1c-3.6-4.8-4.6-10.3-3.7-16.2c0.5-3.5-1.2-6-3.3-8.5c-0.7-0.8-1.4-0.3-2.1-0.1
			c-3.2,0.9-4.9,0.3-6.8-2.3c-3.6-4.8-7.4-5.9-12.9-3.3c-3.2,1.5-6.3,2.1-9.6,0.9c-2.3-0.9-4.4-0.1-6.3,1c-3.4,1.8-6.5,1.4-9.7-0.4
			c-3.4-1.8-6.6-3.8-9.1-6.8c-2.8-3.3-6.2-6.1-9.6-8.8c-3.8-3.1-3.9-3.6-1.1-7.9c2.5,0,5,0,7.5,0c3.4,0,6.9,0,10.3,0
			c3,0,5.9,0,8.9,0c3.4,0,6.7,0,10.1,0c38.8,0,77.5,0,116.3,0c2.3,9.9,1.8,19.7-2.2,29c-3.5,8.1-3,16-0.3,24.1
			C975.4,891.9,977.7,896.3,980,900.6z"/>
	</g>
	<g>
		<path class="st0" d="M104.5,900.7c0.3,0,0.5,0,0.8,0c24.4,0,48.8,0,73.2,0c-24.4,0-48.8,0-73.2,0
			C105,900.7,104.7,900.7,104.5,900.7z"/>
		<path class="st1" d="M99.2,910.5c0.9,4.3,3.8,6.6,8.1,6.4c1.6-0.1,3.2-0.3,4.8-0.3c2.1,0,3.8,0.8,4.1,3c0.3,2,0.5,4-1.9,5.2
			c-2.5,1.2-3.7,5.1-2.9,8.1c0.8,3.1,3.3,5.1,6.4,5.1c1.9,0,1.9,0,3.8,1.2c-0.1,0.1-0.1,0.4-0.2,0.4c-3.3,1.7-4.6,3.4-4.3,5.9
			c0.3,2.5,3.9,5.8,6.6,6.1c1.2,0.2,2.1-0.5,3-1.1c2.9-2,4.7-1.2,5.3,2.3c0.5,3.5,1.1,7.1,2.5,10.4c1.6,3.7,4.3,5.5,8.5,5.7
			c4.2,0.2,8.4,1.3,12.5,2.1c5.7,1.2,9.1-1.5,9.1-7.3c0-1.6,0.5-3,1.5-4.2c4.4-5.6,7.2-11.9,7.9-19c0.2-2.5,1.1-4.8,2.5-6.9
			c1.2-1.7,2.3-3.4,3.6-5c4-4.9,4.4-10.1,1.8-15.7c-1.8-3.9-3.6-7.7-3.4-12.1c-24.4,0-48.8,0-73.2,0c-0.3,0-0.5,0-0.8,0
			c-0.3,0-0.6,0-0.8,0c-0.1,0-0.3,0-0.4,0h0c-0.4,0-0.8,0-1.2,0C99.6,903.5,98.4,906.7,99.2,910.5z"/>
		<path class="st0" d="M105.7,834.2c38.8,0,77.5,0,116.3,0c3.4,0,6.7,0,10.1,0c3,0,5.9,0,8.9,0c3.4,0,6.9,0,10.3,0c2.5,0,5,0,7.5,0
			c-1.1-2.7-2.7-5.1-3.3-8c-0.7-3.3,0.2-6,2.5-8.4c3.4-3.4,3.4-4,1.1-8.2c-2.7-4.8-6.4-8.6-11.2-11.2c-4.3-2.3-6.9-5.4-6.4-10.5
			c0.2-2.6-1.2-4.3-3.2-5.7c-2.5-1.7-5.1-3.4-4.7-7.2c0.2-1.6-2.8-2.9-4.7-1.8c-4.5,2.4-8.6,1.2-12.7-0.7c-8-3.7-16.6-4.3-25.2-4.7
			c-4-0.2-5.9,2.8-4.5,6.7c1.4,3.9,1.4,4-2.5,5.6c-3.2,1.3-6.4,2.3-9.6,3.5c-3,1-5.8,2.3-8.4,4.3c-1,0.8-2.1,1.4-3.4,1.6
			c-2.6,0.5-3.8-0.3-4.7-2.7c-1.6-4.8-2.3-5.2-7.3-3.8c-2.2,0.6-4.4,1.4-6.5,2.3c-4.9,2.2-9.9,3.6-15.3,3c-2.4-0.3-3.8,0.9-4.8,2.9
			c-2.3,4.4-3.3,9.1-4.3,13.8c-0.4,1.7-1.1,3.1-2.2,4.5C111.7,816.7,107.4,824.8,105.7,834.2z"/>
		<path class="st2" d="M104.5,900.7c0.3,0,0.5,0,0.8,0c24.4,0,48.8,0,73.2,0c-24.4,0-48.8,0-73.2,0
			C105,900.7,104.7,900.7,104.5,900.7z"/>
		<path class="st2" d="M102,900.6c0.4,0,0.8,0,1.2,0h0c0.1,0,0.3,0,0.4,0c0.3,0,0.6,0,0.8,0c0.3,0,0.6,0,0.8,0c24.4,0,48.8,0,73.2,0
			c0.6-5.3,3-9.8,6.2-14.1c3.6-4.8,4.6-10.3,3.7-16.2c-0.5-3.5,1.2-6,3.3-8.5c0.7-0.8,1.4-0.3,2.1-0.1c3.2,0.9,4.9,0.3,6.8-2.3
			c3.6-4.8,7.4-5.9,12.9-3.3c3.2,1.5,6.3,2.1,9.6,0.9c2.3-0.9,4.4-0.1,6.3,1c3.4,1.8,6.5,1.4,9.7-0.4c3.4-1.8,6.6-3.8,9.1-6.8
			c2.8-3.3,6.2-6.1,9.6-8.8c3.8-3.1,3.9-3.6,1.1-7.9c-2.5,0-5,0-7.5,0c-3.4,0-6.9,0-10.3,0c-3,0-5.9,0-8.9,0c-3.4,0-6.7,0-10.1,0
			c-38.8,0-77.5,0-116.3,0c-2.3,9.9-1.8,19.7,2.2,29c3.5,8.1,3,16,0.3,24.1C106.6,891.9,104.3,896.3,102,900.6z"/>
	</g>
	<g>
		<path class="st1" d="M192.7,371l-74.4-23.1c0,0-0.9,11.2-3.6,14.7c-1.6,2-4.3,8.8-5.1,11.8c-0.8,2.9-5.1,23.3,4.8,30.3
			c9.9,7,16.9,3,20.4,3.4c3.5,0.3,13.5,11.4,24.1,10.9c10.6-0.5,17.5-9.3,19.9-12.6c2.3-3.3,15.7-11.5,17-13.9
			S199.1,382.7,192.7,371z M182.6,376.5c-14,6.9-11.6,9-16,7.1c-0.7-0.3,4.7-4.3,1.9-5.2c-6.2-2.1-17.8,8.5-22.2,10
			c-2.4,0.8-4.1,0.7-7.1-3.7c-4.5-6.6-11.5-8.7-14.5-14.4c-1.8-3.3,5.9-3.4,6.9-4.2C144.7,355.6,200.1,367.9,182.6,376.5z"/>
		<path class="st0" d="M172.7,352.2c0,0-0.7,14.9,4.3,15.7c8.4,1.4,5.3,0.6,7.9-1.8c4.2-3.9,7.2-10,7.8-13.4
			c0.6-3.5-1.9-11.7-7.3-13.1C180,338.1,172.2,336.4,172.7,352.2z"/>
		<path class="st0" d="M159,365.6c-0.1-0.7-0.3-1.2-0.5-1.7c-1.2-3.5-1.5-5.5-4.7-14.5c-1.2-3.4-2.7-7.5-4.6-12.1
			c-1.2-0.5-2.6-0.6-4.6-0.5c-6.7,0.7-15.8,0.5-8.8,17.7c0,0,5.2,11.6,8.3,16.3c2.1,3.2,3.4,1.9,8.4,2.6c4.3,0.6,6.1-1.6,6.7-4.4
			C159.5,368.3,159.3,367,159,365.6z M153.3,371.4c-0.7,0.2-1.5,0.3-2.2,0.2c-0.4-0.1-0.7-0.1-1.1-0.2c-0.3-0.1-0.7-0.1-1-0.2
			c-0.7-0.1-1.4-0.3-2.1-0.4c0.7-0.2,1.4-0.3,2.2-0.3c0.4,0,0.7,0,1.1,0.1c0.4,0,0.7,0.1,1,0.2c0.6,0.1,1.3,0.1,2,0
			c0.7,0,1.4-0.1,2.1-0.1C154.7,370.9,154,371.2,153.3,371.4z"/>
		<g>
			<g>
				<path class="st0" d="M120.3,348.8c-0.1,0.3-0.2,0.6-0.3,0.9C120.1,349.4,120.2,349.1,120.3,348.8z M120.4,348.5
					c0,0.1-0.1,0.2-0.1,0.3C120.3,348.7,120.4,348.6,120.4,348.5z M120.7,348c-0.1,0.2-0.2,0.3-0.2,0.5
					C120.5,348.3,120.6,348.2,120.7,348z M137,353.9c0.4-0.1,0.8-0.1,1.1,0c0,0,0,0.1,0,0.1c-0.7-1.5-1.2-2.9-1.4-3.7
					c-0.7-3.4-1.8-6.8-7.3-6.3c-3.1,0.3-7.1,0.8-8.8,3.9c0.4,3.1,0.7,7.9,2.5,11c3,5.1,5.7,14,14.1,12.6
					C148.6,369.6,134.9,354.3,137,353.9z M137.6,366.5c0.6-0.3,1.3-0.5,2-0.8c-0.5,0.6-1,1-1.6,1.4c-0.6,0.4-1.3,0.7-2.1,0.9
					c-0.4,0.1-0.7,0.1-1.1,0.1c-0.3,0-0.7,0.1-1,0.1c-0.7,0.1-1.4,0.2-2.1,0.2c0.6-0.4,1.3-0.7,2-1c0.3-0.1,0.7-0.2,1.1-0.3
					c0.4-0.1,0.7-0.1,1-0.2C136.3,366.9,136.9,366.7,137.6,366.5z M120.7,348c0,0,0-0.1,0.1-0.1c0,0,0,0,0,0
					C120.7,347.9,120.7,347.9,120.7,348z"/>
			</g>
		</g>
		<path class="st2" d="M164.4,439c0,0-0.8-15,4-22.1l-35.6-20.7l-23.2,2.5c0,0,2.5,18.2,3.1,22.8c0.4,3-4.1,29.7-6.2,46.4l58.4,8.2
			C164.1,464.6,164.3,448.3,164.4,439z M151.9,423.9c-9.4-1-10.5,1.8-15.1,1.3c-4.6-0.4-4-4.2-12.6-6.2
			c-11.4-2.6-12.7-12.3-12.7-12.3c9.6,8.8,15.5,9.2,21.6,8.5c2.3-0.3,4.3,0.7,6.2,2c10.6,7.3,26.7,0.5,26.7,0.5
			C164.3,422.1,162.4,425.1,151.9,423.9z"/>
		<path class="st0" d="M176.2,345.7c-0.7-4-5.8-9.3-12.5-8.6c-6.7,0.6-11.1,2.5-8.1,16.5c0,0,3.9,24.2,9.8,23.2
			c7.9-1.4,7.5-7.6,8.1-11.6C174.1,360.4,176.9,349.8,176.2,345.7z M171.8,354.2c0,0,3.1-8.9,0.9-10.4c-2-1.4-2.2-2.5-1.1-1.7
			c1.2,0.8,0.9,0.5,1.4-0.1c0.4-0.6,0.9-0.1,1.2,0.6c0.3,0.7-0.5,5.6-0.4,10.7L171.8,354.2z"/>
	</g>
	<g>
		<path class="st1" d="M893.2,392.5c1.2,2.4,14.6,10.6,17,13.9c2.3,3.3,9.2,12.2,19.9,12.6c10.6,0.5,20.6-10.6,24.1-10.9
			c3.5-0.3,10.5,3.6,20.4-3.4c9.9-7,5.6-27.4,4.8-30.3c-0.8-2.9-3.5-9.8-5.1-11.8c-2.7-3.4-3.6-14.7-3.6-14.7L896.2,371
			C889.8,382.7,892,390.1,893.2,392.5z M957.2,366.1c1,0.8,8.6,0.9,6.9,4.2c-3,5.7-10,7.7-14.5,14.4c-3,4.4-4.7,4.5-7.1,3.7
			c-4.4-1.5-16-12.1-22.2-10c-2.8,0.9,2.6,4.9,1.9,5.2c-4.4,2-1.9-0.2-16-7.1C888.7,367.9,944.1,355.6,957.2,366.1z"/>
		<path class="st0" d="M916.2,352.2c0,0,0.7,14.9-4.3,15.7c-8.4,1.4-5.3,0.6-7.9-1.8c-4.2-3.9-7.2-10-7.8-13.4
			c-0.6-3.5,1.9-11.7,7.3-13.1C908.8,338.1,916.6,336.4,916.2,352.2z"/>
		<path class="st0" d="M929.5,369c0.6,2.7,2.4,4.9,6.7,4.4c5.1-0.7,6.3,0.6,8.4-2.6c3.1-4.7,8.3-16.3,8.3-16.3c7-17.1-2-17-8.8-17.7
			c-1.9-0.2-3.4,0-4.6,0.5c-1.9,4.6-3.4,8.7-4.6,12.1c-3.2,9-3.4,11-4.7,14.5c-0.2,0.4-0.3,0.9-0.5,1.7
			C929.6,367,929.4,368.3,929.5,369z M933.6,370.5c0.7,0,1.4,0.1,2.1,0.1c0.7,0,1.4,0.1,2,0c0.3,0,0.7-0.1,1-0.2
			c0.4,0,0.7-0.1,1.1-0.1c0.7,0,1.5,0.1,2.2,0.3c-0.7,0.2-1.4,0.3-2.1,0.4c-0.3,0.1-0.7,0.1-1,0.2c-0.3,0.1-0.6,0.2-1.1,0.2
			c-0.8,0.1-1.5,0-2.2-0.2C934.9,371.2,934.2,370.9,933.6,370.5z"/>
		<g>
			<g>
				<path class="st0" d="M959.3,344c-5.5-0.5-6.7,2.8-7.3,6.3c-0.2,0.8-0.7,2.1-1.4,3.7c0,0,0-0.1,0-0.1c0.4,0,0.8,0,1.1,0
					c2.1,0.4-11.6,15.7-0.3,17.6c8.4,1.4,11.1-7.5,14.1-12.6c1.8-3.1,2.1-7.9,2.5-11C966.4,344.8,962.5,344.3,959.3,344z
					 M955.1,368.3c-0.3,0-0.7-0.1-1-0.1c-0.3,0-0.7-0.1-1.1-0.1c-0.8-0.2-1.4-0.5-2.1-0.9c-0.6-0.4-1.2-0.9-1.6-1.4
					c0.7,0.3,1.3,0.5,2,0.8c0.6,0.3,1.3,0.5,1.9,0.6c0.3,0.1,0.7,0.1,1,0.2c0.4,0.1,0.7,0.2,1.1,0.3c0.7,0.2,1.4,0.5,2,1
					C956.5,368.4,955.8,368.3,955.1,368.3z M968.8,349.8c-0.1-0.7-0.4-1.4-0.7-1.9C968.4,348.4,968.7,349,968.8,349.8z"/>
			</g>
		</g>
		<path class="st2" d="M924,476l58.4-8.2c-2.1-16.7-6.6-43.4-6.2-46.4c0.6-4.6,3.1-22.8,3.1-22.8l-23.2-2.5l-35.6,20.7
			c4.9,7.2,4,22.1,4,22.1C924.6,448.3,924.7,464.6,924,476z M922.9,417.7c0,0,16.1,6.7,26.7-0.5c1.9-1.3,3.9-2.3,6.2-2
			c6,0.8,11.9,0.3,21.6-8.5c0,0-1.3,9.7-12.7,12.3c-8.7,2-8,5.8-12.6,6.2c-4.6,0.4-5.7-2.4-15.1-1.3
			C926.5,425.1,924.6,422.1,922.9,417.7z"/>
		<path class="st0" d="M915.4,365.1c0.6,4.1,0.2,10.2,8.1,11.6c5.9,1.1,9.8-23.2,9.8-23.2c3-13.9-1.4-15.8-8.1-16.5
			c-6.7-0.6-11.8,4.6-12.5,8.6C912,349.8,914.8,360.4,915.4,365.1z M915.1,353.3c0.1-5.1-0.7-10-0.4-10.7c0.3-0.7,0.8-1.3,1.2-0.6
			c0.4,0.6,0.2,0.9,1.4,0.1c1.2-0.8,1,0.3-1.1,1.7c-2.2,1.5,0.9,10.4,0.9,10.4L915.1,353.3z"/>
	</g>
	<g>
		<path class="st1" d="M242.3,186.2l4.5,5.7c3.3,4.5,6.1,8.7,8.5,12.6c2.4,3.9,4.3,7.7,5.8,11.5c1.5,3.8,2.6,7.8,3.4,12.1
			c0.8,4.3,1.1,9.3,1.1,15.1c0,1.3-0.1,2.9-0.4,4.9c-0.3,2-0.5,4-0.8,6c-0.3,1.3-0.4,2.4-0.6,3.4c-0.1,1-0.2,2.1-0.2,3.4
			c-0.5,0-0.8-0.2-0.8-0.8v2.3l-2.3,4.2l0.8-0.8c0,0.8,0.1,1.5,0.2,2.3c0.1,0.8,0.2,1.4,0.2,1.9c0,1.5-0.5,3.3-1.5,5.3
			c-0.5,0.5-0.9,1.1-1.3,1.9c-0.4,0.8-0.8,1.5-1.3,2.3c-0.8,0.5-1.6,1.5-2.6,3l-1.5,2.3c-1.8,5-4.3,9.8-7.7,14.2
			c-3.4,4.4-7.4,8.2-11.9,11.5c-4.5,3.3-9.4,5.9-14.7,7.7c-5.3,1.9-10.6,2.8-15.9,2.8c-0.5,0-1.1,0.1-1.7,0.2
			c-0.6,0.1-1.6,0.3-2.8,0.6c-1.3,0.3-2.5,0.4-3.6,0.6c-1.1,0.1-2.3,0.2-3.6,0.2c-4.8,0.3-9.4,0.4-14,0.4s-9.1,0-13.6,0
			c-3.3,0-6.2,0.3-8.9,0.8c-2.6,0.5-5.6,0.8-8.9,0.8c-3.5,0-7-0.3-10.6-0.9c-3.5-0.6-7-0.9-10.6-0.9c-0.3,0-0.5,0.1-0.8,0.4H123
			c-0.5,0-0.9,0.1-1.1,0.2c-0.3,0.1-0.6,0.2-1.1,0.2c-2.3,0-4.5-0.2-6.6-0.6c-2.1-0.4-3.7-1.9-4.7-4.7c-0.5-2-0.8-3.3-0.8-3.8
			c0-1.3,0.1-2.3,0.2-3.2c0.1-0.9,0.2-1.6,0.2-2.1c0-2.8,0.3-5.5,0.9-8.3c0.6-2.8,0.9-5.5,0.9-8.3c0-2-0.1-3.8-0.4-5.5
			c-0.3-1.6-0.4-3.5-0.4-5.5c0-2.8,0.1-5.6,0.2-8.5c0.1-2.9,0.2-5.9,0.2-8.9c0-1.5-0.1-2.9-0.4-4.2c-0.3-1.3-0.4-2.6-0.4-4.2
			c-0.5-10.3-1-20.6-1.5-30.8c-0.5-10.2-0.8-20.6-0.8-31.1c0-6.5,0.2-13.1,0.8-19.6c0.5-6.5,0.9-13.1,1.1-19.6
			c0.2-7.5,0.3-15.2,0.2-22.8c-0.1-7.7-0.2-15.3-0.2-22.8c0-4,0.1-8.1,0.2-12.1c0.1-4,0.2-8.1,0.2-12.1c0-2.3-0.3-4.3-0.9-6.2
			c-0.6-1.9-0.9-3.8-0.9-5.9c0-0.8,0-1.6,0-2.6c0-1,0.1-1.9,0.4-2.6c0-2.5,0.4-4.8,1.3-6.8c0.9-2,2.7-3.4,5.5-4.2
			c2-1,3.6-1.5,4.9-1.5c1.5-0.5,3-0.8,4.5-0.8c1.5,0,2.8,0,3.8,0c5,0,10.2,0.4,15.5,1.1c0.2,0,0.5,0.1,0.8,0.2
			c0.3,0.1,0.5,0.2,0.8,0.2c3.3-0.8,6.5-1.3,9.6-1.5c3.1-0.2,6.3-0.4,9.6-0.4c3.5,0,7.6,0.1,12.3,0.2c4.7,0.1,9.4,0.4,14.3,0.8
			c4.9,0.4,9.6,0.9,14.2,1.7s8.3,1.8,11.3,3c0.8,0.5,1.5,1,2.3,1.5c0.8,0.5,1.6,1,2.6,1.5c0.5,0.5,1.1,1,1.9,1.5
			c0.8,0.5,1.4,1,1.9,1.5c4.5,3,8.4,6,11.5,9.1c3.1,3,6,7,8.5,12.1c0,0.8,0.3,1.6,0.8,2.6c1.3,3,2.7,6,4.3,8.9c1.6,2.9,3,5.7,4,8.5
			c4,11.1,6,22.4,6,34c0,8.1-1.7,16-5.1,23.8C251.9,172.1,247.6,179.4,242.3,186.2z M186.4,202.8c-0.5,0.3-1.1,0.4-1.7,0.4
			c-0.6,0-1.2,0-1.7,0c-1.5,0-3-0.1-4.3-0.2c-1.4-0.1-2.8-0.2-4.3-0.2c-1.5,0-3.6,0.2-6.2,0.6c-2.6,0.4-5,0.8-7,1.3
			c-0.5,0-0.8,0.1-0.8,0.4c-0.3,0.3-0.4,1.1-0.4,2.6v4.2c0,6.5-0.6,13.2-1.7,20c-1.1,6.8-1.7,13.5-1.7,20c0,1,0.1,2.6,0.2,4.9
			c0.1,2.3,0.2,4.6,0.4,7c0.1,2.4,0.4,4.7,0.8,6.8c0.4,2.1,0.9,3.6,1.7,4.3c0.2,0.5,0.6,0.9,0.9,1.1c0.4,0.3,1.2,0.5,2.5,0.8
			c5.3,0.8,10.3,1.1,15.1,1.1c12.1,0,20.4-2.7,25.1-8.1c4.7-5.4,7-12.9,7-22.5c0-3.5,0-6.8,0-9.8c0-3-0.3-6-0.8-9.1
			c-0.5-2.8-1.3-5.4-2.3-7.9c-1-2.5-2.6-5.2-4.9-7.9c-1.5-2.3-3.9-4.2-7.2-5.7c-1.3-0.5-2.6-1.1-4.2-1.9
			C189.4,204.4,187.9,203.6,186.4,202.8z M164.2,97.9c-1.5,6.8-2.5,14.3-2.8,22.6c-0.4,8.3-0.6,15.7-0.6,22.3c0,2.8,0.2,5.6,0.6,8.5
			c0.4,2.9,0.7,5.7,0.9,8.5c0.5,0,1.5,0.3,3,0.8c0.3,0.3,0.5,0.4,0.8,0.4c0.2,0,0.5,0.1,0.8,0.4c4-0.2,8.4-0.6,13-1.1
			c4.7-0.5,8.7-1.1,12.3-1.9c6.3-2,10.5-5.6,12.6-10.8c2.1-5.2,3.2-11,3.2-17.6c0-7.8-2.1-14.6-6.4-20.4c-3.3-4.5-6.9-7.7-10.8-9.6
			c-3.9-1.9-9.4-2.8-16.4-2.8c-0.5,0-1.4,0.1-2.6,0.2c-1.3,0.1-2.5,0.2-3.8,0.2c-0.8,0.3-1.5,0.4-2.1,0.4
			C165.2,97.9,164.7,97.9,164.2,97.9z"/>
		<path class="st1" d="M332.1,279.9c6,0,12,0.1,17.9,0.2c5.9,0.1,11.8,0.3,17.6,0.6c2.8,0.3,5.6,0.5,8.5,0.8
			c2.9,0.3,5.7,0.4,8.5,0.4c1.5,0,3.1-0.1,4.9-0.4c1.8-0.2,3.5-0.4,5.3-0.4h9.4c2.3,0.5,4.7,1.5,7.2,2.8c2.5,1.4,3.8,3.6,3.8,6.6
			c0,3.5,0.1,7.2,0.2,10.9c0.1,3.8-0.1,7.4-0.6,10.9c-0.5,2.8-2.5,5.3-6,7.6c-3.5,2.3-7,3.4-10.6,3.4h-27.6c-2,0-4.1,0.1-6.2,0.4
			c-2.1,0.3-4.2,0.4-6.2,0.4h-48.3c-1.8,0-3.5-0.1-5.3-0.4c-1.8-0.2-3.7-0.4-5.7-0.4c-1,0-1.9,0.1-2.6,0.4c-2.5,0-5.3-0.3-8.3-0.9
			c-3-0.6-4.5-2.7-4.5-6.2c0-3.5,0.2-7.1,0.8-10.8c0.5-3.6,0.8-7.2,0.8-10.8c0-17.6-0.4-35.2-1.3-52.7c-0.9-17.5-1.3-35-1.3-52.7
			c0-5.8,0.2-11.6,0.8-17.6c0.5-5.9,0.8-11.9,0.8-17.9c0-4-0.1-8-0.2-11.9c-0.1-3.9-0.2-7.9-0.2-11.9c0-8.1,0.2-16,0.6-23.8
			c0.4-7.8,0.6-15.6,0.6-23.4v-1.5c-0.3-0.2-0.4-0.5-0.4-0.8c0-0.2-0.1-0.6-0.4-1.1c0-0.8-0.3-1.6-0.8-2.6v-3c0-2,0.1-3.8,0.2-5.5
			c0.1-1.6,0.2-3.5,0.2-5.5c0-3,2.6-5.3,7.9-6.8c1.3-0.5,2.6-0.8,4-0.9c1.4-0.1,2.7-0.3,4-0.6c2.8-0.2,5.3-0.4,7.7-0.4
			c2.4,0,4,0,4.7,0c2.3,0,4.5,0.1,6.6,0.2c2.1,0.1,4.3,0.2,6.6,0.2c5,0,8.2,1,9.4,3c1.3,2,1.9,4,1.9,6c0,3-0.1,6.1-0.4,9.2
			c-0.3,3.1-0.4,6.4-0.4,9.6c0,1.8,0.1,3.5,0.2,5.3c0.1,1.8,0.2,3.7,0.2,5.7v61.5c0,2.5-0.1,5-0.4,7.6c-0.3,2.5-0.4,5-0.4,7.5
			c-0.3,3.5-0.3,6.8-0.2,9.8c0.1,3,0.1,6-0.2,9.1c-0.3,7.3-0.6,14.4-1.1,21.3c-0.5,6.9-0.9,13.9-1.1,21c-0.3,6.3-0.4,12.6-0.6,19.1
			c-0.1,6.4-0.2,12.9-0.2,19.4c0,1.5,0.1,3.1,0.2,4.7C332.1,276.4,332.1,278.1,332.1,279.9z"/>
		<path class="st1" d="M552.2,274.9c-8.3,0.3-16.6,0.4-24.9,0.4c-8.3,0-16.6,0.3-24.9,0.8c-0.8,0.3-1.4,0.4-1.9,0.4
			c-0.3,0.3-0.4,0.5-0.4,0.8c-0.5,1-0.8,1.8-0.8,2.3c-1.5,5-3,10-4.3,14.9c-1.4,4.9-2.7,9.9-4,14.9l-0.4,1.5
			c-0.5,1.5-0.8,2.8-0.8,3.8c-1.5,4.5-3.8,7.3-7,8.3c-3.1,1-6.9,1.5-11.1,1.5c-4,0-8.1-0.1-12.3-0.4c-4.2-0.2-8.4-0.4-12.6-0.4
			c-2.5,0-4.8-0.7-6.8-2.1c-2-1.4-3-3.5-3-6.2c0-1.3,0.2-3,0.6-5.1c0.4-2.1,0.8-4.1,1.3-5.9c0.5-2,1-4,1.5-5.9
			c0.5-1.9,0.9-3.5,1.1-4.7c2.8-10.6,5.7-21,8.7-31.1c3-10.2,5.8-20.6,8.3-31.1c1.3-5,2.5-10.1,3.8-15.1c1.3-5,2.4-10.1,3.4-15.1
			c4-16.4,8.3-32.6,12.8-48.7c4.5-16.1,8.9-32.2,13.2-48.3c1-3.5,2.4-7.3,4.2-11.3c1.5-5,3-9.9,4.3-14.7c1.4-4.8,2.8-9.7,4.3-14.7
			c0.8-2.5,2.1-4.4,4.2-5.7c2-1.3,4.2-2.1,6.4-2.6c2-0.5,4-0.8,6-0.8c2,0,3.6,0,4.9,0c4.3,0,8.9,0.6,14,1.9c5.3,0.5,8.6,1.3,9.8,2.5
			c1.3,1.1,2.4,3.5,3.4,7c0.2,1.3,0.5,2.3,0.8,3c0.2,0.8,0.6,1.8,1.1,3c1,2.8,1.6,5.2,1.9,7.2c0,3.5,0.2,6.7,0.8,9.4
			c0.5,2.8,1.1,5.9,1.9,9.4c1,3.5,2,7,3,10.4c1,3.4,1.8,6.1,2.3,8.1c1.3,5.8,2.5,11.6,3.6,17.4c1.1,5.8,2.5,11.5,4,17
			c1.3,5.8,2.7,11.4,4.3,16.8c1.6,5.4,3.2,11,4.7,16.8c2,8.1,4.2,16.1,6.4,24.2c2.3,8.1,4.5,16.2,6.8,24.5c1,4.8,2.1,9.5,3.2,14.2
			c1.1,4.7,2.5,9.4,4,14.2c0.8,3.3,1.6,6.4,2.6,9.4c1,3,2,6.2,3,9.4c1.3,4.3,2.4,8.6,3.4,13c1,4.4,2.1,8.9,3.4,13.4
			c0,0.8,0.2,1.9,0.8,3.4c0.2,1,0.4,1.9,0.6,2.6c0.1,0.8,0.2,1.6,0.2,2.6c0,3.5-1.5,5.7-4.5,6.6c-3,0.9-5.4,1.3-7.2,1.3
			c-4.8,0-9.5,0.1-14.2,0.2c-4.7,0.1-9.4,0.2-14.2,0.2c-3.3,0-6.3-1.4-9.1-4.2c-1.5-2-2.7-4-3.6-5.9c-0.9-1.9-1.7-4-2.5-6.2
			c-0.5-0.5-0.8-1.3-0.8-2.3c0-1-0.1-1.8-0.4-2.3c0-1-0.1-1.9-0.4-2.6l-5.3-18.5c0-0.5-0.1-1.3-0.4-2.5c-0.3-1.1-0.6-2.3-1.1-3.6
			C552.3,275.7,552.2,275.5,552.2,274.9z M511.8,231.9c4.5-0.2,9.1-0.5,13.6-0.8c4.5-0.2,9.1-0.4,13.6-0.4h2.3
			c-1.3-5-2.6-10.1-4.2-15.3c-1.5-5.2-2.9-10.3-4.2-15.3c-0.5-2-1.3-5.6-2.5-10.8c-1.1-5.2-2.5-10.8-4-16.8c-2.3,10.1-4.6,20-7,29.8
			C517.1,212.3,514.6,222.1,511.8,231.9z"/>
		<path class="st1" d="M722.8,56.4c0.5,0.3,1.4,0.4,2.6,0.4c1.3,0.3,2.4,0.5,3.4,0.8c1,0.3,2.1,0.5,3.4,0.8c2.5,0.3,4.8,0.6,7,0.9
			c2.1,0.4,3.7,0.7,4.7,0.9l2.3,0.4l1.1,1.5c2,1.3,4.2,2.6,6.6,4c2.4,1.4,4.6,2.7,6.6,4c2.3,1.5,4.5,3,6.6,4.5
			c2.1,1.5,4.2,2.9,6.2,4.2c1.3,1.3,2.5,2.5,3.6,3.8c1.1,1.3,2.1,2.5,2.8,3.8c4.3,8.1,7.8,17.1,10.6,27.2l0.8,0.8l1.1,2.3
			c1.5,2,2.3,4.3,2.3,6.8c0,0.5-0.3,1.8-0.8,3.8c-0.3,0.5-0.4,1-0.4,1.5c0,0.5-0.3,1-0.8,1.5c-0.8,1.3-1.9,2.3-3.4,3
			c-0.5,0.5-1.4,0.9-2.6,1.1c-0.5,0.3-1,0.5-1.5,0.8c-0.5,0.3-1,0.5-1.5,0.8c-1.3,0.5-2.7,1.1-4.3,1.9c-1.6,0.8-3.3,1.4-5.1,1.9
			c-1.8,0.8-3.4,1.4-4.9,1.9c-1.5,0.5-2.9,1-4.2,1.5c-0.5,0.5-1,0.8-1.5,0.9c-0.5,0.1-1,0.3-1.5,0.6c-0.5,0.3-1.1,0.4-1.7,0.4
			c-0.6,0-1.2,0.1-1.7,0.4c-0.3,0-0.6,0-1.1,0c-2.8,0-4.9-0.6-6.4-1.9c-1.5-1.3-2.5-2.5-3-3.8c-1.3-4.3-2.8-8.6-4.5-12.8
			c-1.8-4.3-4-8.2-6.8-11.7c-3-4.5-5.9-7.2-8.7-8.1c-2.8-0.9-6.7-1.3-11.7-1.3c-7.3,0-13.5,3.1-18.5,9.4c-5,6.3-9.1,13.7-12.1,22.3
			c-3,8.6-5.2,17.3-6.6,26.2c-1.4,8.9-2.1,16.2-2.1,21.7c0,5.3,0.1,11.1,0.4,17.4c0.2,6.3,0.8,12.6,1.5,19.1
			c0.8,6.4,1.8,12.6,3.2,18.5c1.4,5.9,3.3,11.1,5.9,15.7c1.3,2.8,2.6,5.5,4.2,8.3c1.5,2.8,3.3,5.5,5.3,8.3c4,6,9.4,9.1,16.2,9.1
			c8.3,0,15.3-2.6,21.1-7.9c5.8-5.3,11.1-11.1,15.9-17.4c1-1.3,1.9-2.6,2.6-4.2c0.8-1.5,1.6-2.9,2.6-4.2c1.3-1.5,2.6-2.7,4-3.6
			c1.4-0.9,3.2-1.3,5.5-1.3c0.2,0,0.8,0,1.5,0c0.8,0,1.8,0.3,3,0.8c0.5,0.3,1.1,0.5,1.9,0.8c0.8,0.3,1.5,0.5,2.3,0.8
			c1.5,0.5,2.9,1,4.2,1.5c1.3,0.5,2,0.9,2.3,1.1c1.3,0.5,2.3,1,3,1.5c0.8,0.5,1.5,1,2.3,1.5c1.5,1,2.8,1.6,3.8,1.9
			c0.8,0.5,1.5,1,2.3,1.5c0.8,0.5,1.4,1,1.9,1.5c2,2,3,4,3,6c0,0.8-0.3,1.9-0.8,3.4c0,0.8-0.3,1.4-0.8,1.9c-0.5,1.8-1,3.5-1.5,5.1
			c-0.5,1.6-1.1,3.3-1.9,5.1c-1.3,2.5-2.6,4.9-4.2,7.2c-1.5,2.3-2.9,4.5-4.2,6.8c-2,3.8-4.6,8.1-7.7,12.8
			c-3.2,4.8-6.6,8.2-10.4,10.2c-3.5,1.8-7.1,3.6-10.8,5.5c-3.7,1.9-7.2,3.7-10.8,5.5c-4.3,1.5-8.6,2.8-13,3.8
			c-4.4,1-9.4,1.5-14.9,1.5c-1.8,0-4,0-6.6,0s-5.3-0.2-8.1-0.6c-2.8-0.4-5.4-0.9-7.9-1.7c-2.5-0.8-4.4-1.8-5.7-3
			c-0.5-0.3-0.9-0.5-1.1-0.8c-0.3-0.2-0.6-0.5-1.1-0.8c-0.5,0-1.5-0.2-3-0.8c-3.8-0.8-6.8-2-9.1-3.8c-0.5-0.5-0.9-0.9-1.1-1.3
			c-0.3-0.4-0.6-0.8-1.1-1.3c-0.5-0.2-1.1-0.8-1.9-1.5c-4-4.3-7.7-8.1-10.9-11.5c-3.3-3.4-6.2-6.9-8.7-10.6
			c-2.5-3.6-4.8-7.5-6.8-11.5c-2-4-3.8-8.7-5.3-14c-3-9.8-5.9-19.9-8.5-30.2c-2.6-10.3-4-20.8-4-31.3c0-5,0.1-10.1,0.4-15.3
			c0.2-5.2,0.6-10.3,1.1-15.3c0.2-1.3,0.4-2.6,0.4-4c0-1.4,0.1-2.7,0.4-4c1-3.8,1.6-7.7,1.9-11.7c0.2-4,1-7.9,2.3-11.7
			c0.8-2,1.3-4,1.5-5.9c0.2-1.9,0.6-3.8,1.1-5.9c0.5-2,1.1-4.1,1.9-6.2c0.8-2.1,1.9-4.2,3.4-6.2c1-1.5,1.6-2.9,1.9-4.2
			c0.5-1,0.9-1.8,1.1-2.5c0.2-0.6,0.6-1.4,1.1-2.5c2-4.3,4.3-8.6,6.8-12.8c2.5-4.3,5-8.6,7.5-12.8c1.5-2.3,4.7-5,9.6-8.3
			c4.9-3.3,10.3-6.4,16.2-9.4c5.9-3,11.8-5.6,17.7-7.7c5.9-2.1,10.8-3.2,14.5-3.2h3.8H722.8z"/>
		<path class="st1" d="M909.7,179.1c0.2,1,0.6,2.6,1.1,4.7c0.5,2.1,1,3.5,1.5,4c1,2,2,4,3,5.9c1,1.9,2,3.7,3,5.5
			c2,3.5,3.8,7.2,5.5,11.1c1.6,3.9,3.3,7.6,5.1,11.1c2.8,5.8,5.2,11.4,7.4,16.8c2.1,5.4,4.6,11,7.4,16.8c1,2,2.1,4,3.4,6
			c1.3,2,2.4,4,3.4,6c2,3.8,3.7,7.6,5.1,11.3c1.4,3.8,3.1,7.5,5.1,11.3c0.5,1,1.3,2.5,2.3,4.5c1,2,2.1,4,3.4,6
			c1.3,2.5,2.4,4.8,3.4,6.8l1.1,2.3c0.2,1,0.4,2,0.4,3c0,3-0.8,5.8-2.5,8.3c-1.6,2.5-5.7,3.8-12.3,3.8c-3.8,0-7.7-0.2-11.7-0.8
			c-4-0.5-7.9-0.8-11.7-0.8c-0.8,0.3-1.9,0.4-3.4,0.4c-2.3,0-4.2-0.4-5.7-1.1c-1.5-0.8-2.8-1.6-3.8-2.6c-0.5-0.5-0.9-1.1-1.1-1.7
			c-0.3-0.6-0.5-1.2-0.8-1.7c-0.3-0.5-0.4-1-0.6-1.5c-0.1-0.5-0.4-1.1-0.9-1.9c-1.5-2-2.5-3.5-3-4.5c-0.5-0.8-0.9-1.6-1.3-2.5
			c-0.4-0.9-0.8-1.7-1.3-2.5c-0.5-0.5-0.9-1.1-1.1-1.7c-0.3-0.6-0.6-1.2-1.1-1.7c-0.8-0.8-1.4-1.6-1.9-2.6c-0.3-0.5-0.4-1-0.6-1.5
			c-0.1-0.5-0.4-1.1-0.9-1.9c-1-2.8-2.1-5.7-3.4-8.7c-1.3-3-2.3-6-3-8.9c-0.8-2.9-1.4-5-1.9-6.2c-0.8-1.8-1.6-3.5-2.6-5.1
			c-1-1.6-1.9-3.3-2.6-5.1l-11.3-26c-0.3,0.5-0.4,1.1-0.6,1.9c-0.1,0.8-0.4,1.4-0.9,1.9c-2.5,4.5-4.8,8.7-6.8,12.6
			c-2,3.9-3.3,6.4-3.8,7.4c-0.8,1.5-1.2,3.1-1.3,4.7c-0.1,1.6-0.2,3.6-0.2,5.9c0,6.8,0.3,13.7,0.9,20.6c0.6,6.9,0.9,13.8,0.9,20.6
			c0,3.3-1,5.7-3,7.4c-2,1.6-4.4,3-7.2,4c-2.3,0.5-4.7,0.8-7.2,0.9c-2.5,0.1-4.5,0.2-6,0.2c-1.3,0-2.5-0.1-3.8-0.4
			c-1.3-0.2-2.5-0.4-3.8-0.4c-2,0-4,0.1-6,0.4c-2,0.3-4,0.4-6,0.4c-1.5,0-3.2-0.2-5.1-0.8c-1.9-0.5-3.5-1.6-4.7-3.4
			c-0.5-0.8-0.8-1.3-0.8-1.7s-0.1-0.8-0.4-1.3v-2.3c0-14.3,0.4-28.7,1.3-43c0.9-14.3,1.3-28.7,1.3-43c0-11.3-0.1-22.6-0.4-34
			c-0.3-11.3-0.4-22.6-0.4-34v-32.8c0-5,0.3-10.1,0.9-15.3c0.6-5.2,0.9-10.3,0.9-15.3V67v-3c0-2.3,0.8-4,2.3-5.1
			c1.5-1.1,3.3-1.9,5.3-2.5c2-0.5,5-0.8,9.1-0.9c4-0.1,7-0.2,9.1-0.2c5.5,0,10.4,0.5,14.7,1.5c1.5,0.5,3.1,1.1,4.7,1.9
			c1.6,0.8,3,2,4,3.8c0.8,1,1.1,2.1,1.1,3.4v2.6v72.9c0,2.5-0.1,5-0.2,7.4c-0.1,2.4-0.3,4.8-0.6,7.4l5.7-9.4
			c4.5-8.1,9.2-16.2,14-24.3c4.8-8.2,9.3-16.4,13.6-24.7c3.3-5.8,6.4-11.8,9.2-17.9c2.9-6.2,5.9-12.3,8.9-18.3c1.3-2,3-3.6,5.3-4.9
			c2.3-1.3,5.2-1.9,8.7-1.9c3.8,0,7.7-0.1,11.7-0.4c4-0.2,7.9-0.4,11.7-0.4c2.5,0,4.9,0.6,7.2,1.7c2.3,1.1,3.4,3.1,3.4,5.9
			c0,2.3-0.7,5.5-2.1,9.6c-1.4,4.2-3.3,8.9-5.7,14.2c-2.4,5.3-5.2,11-8.3,17.2c-3.2,6.2-6.4,12.3-9.6,18.3c-3.3,6-6.5,12-9.8,17.7
			c-3.3,5.8-6.3,11.3-9.1,16.6c-2.8,5.3-5.4,10-7.7,14.2C912.7,173.2,910.9,176.6,909.7,179.1z"/>
	</g>
	<g>
		<path class="st2" d="M510.2,963.5c-1.5-1.2-4.1-2.2-7.7-3c-1.6-5.7-2.7-13-3.3-21.8c-0.5-8.9-0.8-18.5-0.8-28.8
			c0-9.9,0.1-20,0.4-30.3c0.3-9.5,0.4-18.4,0.4-26.6c0-8.1-0.3-15.2-0.8-21.3c-1.1-10.6-4.8-17.8-11.3-21.7
			c-6.4-3.9-14.1-6.7-22.9-8.3c-1.4-12.3-4.4-20.6-9.1-24.8c-4.7-4.2-9.6-6.2-14.4-6.1h-0.8c-6.4,0-12.1,2.8-17.3,8.4
			c-5.1,5.6-7.7,11.2-7.7,16.8c0,4.3,2.2,7.7,6.7,10.2c6.8,2.7,14,4.6,21.7,5.7c0.3,2.4,0.4,5,0.4,7.7c0,15.6-1.4,33-4.1,52.3
			c-2.7,19.3-7,35.7-12.9,49.3c-5.9,13.5-13.5,20.3-22.9,20.3c-0.1,0-0.3,0-0.6,0c-0.8,0-1.6-0.1-2.2-0.2c-3.7-1.1-6.6-4.1-8.8-9
			c-2.2-4.9-3.9-10.2-5-15.8c-1.1-5.6-1.6-9.8-1.6-12.8c10-4.7,18.6-12.2,25.7-22.4c7.1-10.2,10.7-21.7,10.7-34.8
			c0-1.5-0.1-2.9-0.2-4.3c-0.7-5.4-3.4-9.8-8.1-13c-4.7-3.3-10-4.9-15.6-4.9c-3.4,0-6.6,0.7-9.8,2.1c-3.1,1.4-5.8,3.6-7.9,6.6
			c-4.7,6.9-8.4,15.2-11.2,24.9c-9.1,5.6-16.5,11.2-22.1,16.7c-2,1.8-3.9,3.4-5.7,4.9c1.6-3.3,3.6-8.5,6-15.9
			c2.4-7.3,3.8-15.1,4.2-23.4c-0.1-7.9-2.3-13.6-6.4-17.3c-4.1-3.7-8.4-5.5-12.7-5.5c-5.2,0-10,2-14.4,6.1
			c-4.1,4.3-7.6,9.2-10.6,14.7c-3,5.5-5.4,10.4-7.3,14.7c-0.4,1.1-0.8,2-1.2,2.8c-0.1-0.5-0.2-1.4-0.2-2.4c0-3,0.3-7.1,0.9-12.4
			c0.6-5.3,1.2-9.6,1.7-12.8c0-0.4,0.1-0.8,0.2-1.2c0.5-4.5,1.2-8.3,1.8-11.4c0.8-3.7,1.2-6.6,1.2-8.7c0-3.4-1.8-5.4-5.5-5.9
			c-1.9-0.4-3.6-0.6-5.1-0.6c-5.7,0-9.3,3.1-10.8,9.3c-3.3,10.4-5.6,24.5-7,42.3c-1.4,17.8-2.1,36.6-2.1,56.5
			c0,41.9,2.2,78.2,6.7,109.1c0.5,2.8,1.8,5,3.8,6.4c2,1.4,4,2.1,6,2.1c2,0,3.9-0.6,5.5-1.7c1.6-1.2,2.4-2.8,2.4-5v-1
			c-2-17.3-3-36.5-3-57.5c0-9.8,0.3-18.7,0.8-26.8c0.7,0.3,1.4,0.5,2,0.8c1.1,0.4,2.1,0.7,3.2,1c1,0.3,1.9,0.4,2.7,0.4
			c3.4,0,6.6-1.4,9.5-4.1c3.1-3.4,6.4-8.3,9.8-14.8c3.3-6.1,6.5-11,9.8-14.8c7.6-8.6,18.7-19.1,32.9-31.6
			c-1.5,8.3-2.3,16.6-2.3,24.9c0,14.1,2.4,26.5,7.1,37.2c3.1,6.1,7.3,10.6,12.6,13.5c5.3,2.9,11,4.4,17.1,4.4c5.1,0,10.2-0.6,15-1.8
			c4.9-1.2,9.6-3.5,14-6.7c7.4-6.1,13.4-15.2,17.8-27.3c4.4-12.1,7.7-24.8,10-38.1c2.2-13.3,3.8-24.7,4.6-34.1
			c0.3-2.8,0.5-6,0.6-9.6c0.3-5.7,0.7-11,1.4-16.1c3.7,1.1,6.5,3.6,8.5,7.6c2,4,3.2,7.7,3.5,11.1c0.3,8.7,0.4,18.8,0.4,30.5v6.5
			c0,16.1,0.5,32.6,1.4,49.5c0.9,16.9,3.5,30.4,7.5,40.5c1.9,4.2,4.3,7.1,7.2,8.8c2.9,1.7,5.8,2.5,8.6,2.5c3,0,5.6-0.7,7.8-2.2
			c2.2-1.5,3.4-3.1,3.4-4.9C512.4,966,511.7,964.7,510.2,963.5z M442.1,798.4c-4.5-0.7-7.6-1.9-9.5-3.6c-1.8-1.7-2.7-3.4-2.7-5.2
			c0-1.6,0.6-3.1,1.7-4.4c1.1-1.3,2.5-1.9,4-1.9c1.5,0,2.9,1.1,4.4,3.3c1.4,2.2,2.1,6,2.1,11.4V798.4z M327.6,855.9
			c-2,8.6-4.1,16.7-6.4,24.2c-2.3,7.5-4.1,12.5-5.5,14.9c-0.9,1.8-2.6,4.4-5.1,7.8c-2.4,3.5-5,6.9-7.6,10.4c-2.6,3.5-4.7,6.1-6.2,8
			v-2.8c0-12.7,1.8-25.8,5.5-39.3c3.7-13.5,7.9-24.8,12.7-33.9c4.8-9.1,9.2-14.1,13.1-14.9h0.2c1.5,0.3,2.2,2.1,2.2,5.5
			C330.5,840.5,329.5,847.2,327.6,855.9z M388.3,866.1c1.7-8.4,4.4-16.1,8-23.2c1.8-3,3.3-4.5,4.5-4.5c2.4,0.5,3.7,3.7,3.7,9.6
			c0,5.4-1.5,12.1-4.4,20.1c-2.9,8-8,15.5-15.1,22.6C385.5,882.7,386.6,874.5,388.3,866.1z"/>
		<path class="st2" d="M528.1,821.8c1.6,0.8,3.3,1.2,4.9,1.2c1.8,0,3.3-0.4,4.6-1.2c1.3-0.8,1.9-1.8,1.9-2.8v-0.4
			c-0.4-2.4-0.6-4.9-0.6-7.3c0-4.3,0.5-8.4,1.5-12.3c1-3.9,2.1-7.3,3.1-10.5c1.4-3.7,2.2-6.6,2.4-8.9v-0.2c0-1.4-1-2.6-2.9-3.9
			c-2-1.2-4.3-1.8-7-1.8c-1.9,0-3.8,0.4-5.7,1.3c-1.9,0.9-3.7,2.4-5.3,4.6c-3.3,5.7-4.9,12.5-4.9,20.5c0,6.6,1.3,12.6,3.9,17.9
			C525.1,819.7,526.4,821,528.1,821.8z"/>
		<path class="st2" d="M808.3,870.8c-1.1-0.7-2.2-1-3.5-1c-2.2,0-3.8,1.2-4.9,3.5c-0.7,2.2-1.4,4.3-2,6.5
			c-5.3,16.9-10.3,32.3-15.1,46c-4.8,13.8-8.6,21.2-11.3,22.5h-0.6c-3.7,0-6.3-5.6-7.8-16.8c-1.6-11.2-2.3-25-2.3-41.4
			c0-21.1,1.1-43.7,3.3-67.7c3.5-0.1,7-0.2,10.6-0.2c7,0,14,0.3,20.7,0.8c2.2,0,3.8-1,4.9-3c1.1-2,1.6-4.3,1.6-6.7
			c0-2-0.4-3.8-1.2-5.4c-0.8-1.6-2-2.4-3.7-2.5h-2.4c-5.6,0-15.2,0.6-29.1,1.8c0.8-7.2,1.7-13.9,2.6-20.1c0.3-1.5,0.5-2.9,0.6-4.3
			c0.7-4.2,1.4-7.9,2.2-11.2c1.1-4.1,1.6-7.3,1.6-9.8c0-3.3-1.8-5.1-5.3-5.7c-1.2-0.3-2.4-0.4-3.5-0.4c-4.9,0-8.4,1.9-10.5,5.6
			c-2.1,3.7-3.7,8.1-4.8,13.1c-2.3,7.7-4.5,19.6-6.5,35.8c-9.1,1.7-16.8,3.8-23.1,6.5c2.2-17.6,4.9-32.7,7.9-45.1
			c0.5-1.6,0.8-3.2,0.8-4.8c0-1.8-0.4-3.3-1.3-4.6c-0.9-1.3-2.4-2-4.4-2.3c-1.8-0.3-3.4-0.4-4.8-0.4c-2.8,0-5,0.7-6.6,2
			c-1.6,1.3-3,3.6-4.3,6.8c-4.4,18.8-9.6,41.5-15.6,68.3c-1,4.6-2,9.1-3,13.7c-5.6-3.8-10.7-5.7-15.2-5.7c-6.1,0-11.3,2.7-15.7,7.9
			c-0.3-0.1-0.6-0.2-0.8-0.2h-0.6c-2.2,0.7-5.2,1-9.1,1c-4.5,0-10.1-0.7-16.9-2c-0.8-6-2.4-12.4-4.7-19.2
			c-2.3-6.8-5.5-12.8-9.6-17.9c-4.1-5.1-9.2-7.6-15.4-7.6H598c-6,0.7-10.1,2.6-12.4,5.9c-2.3,3.3-3.5,6.8-3.5,10.8
			c0,3.3,0.5,6.3,1.5,9.2c1,2.9,2.2,5.2,3.6,6.8c-3.3-1.2-6.1-1.8-8.5-1.8c-5.8,0-9.5,4.9-11,14.6c-1.2,7.7-2,14.7-2.4,21.2
			c-1.4,5.1-3.1,10.9-5,17.3c-3.4,11.6-6.9,22.1-10.6,31.6c-3.7,9.5-6.8,14.2-9.6,14.2h-0.4c-1.9-0.5-3.2-3.3-4-8.3
			c-0.7-5-1.1-11.1-1.1-18.3c0-12.6,0.6-25.8,1.8-39.7c1.2-13.9,2.2-23.2,2.8-27.9c0-0.3,0-0.5,0-0.8v-1.4c0-1.8-0.4-3.3-1.2-4.7
			c-0.8-1.4-2.2-2.2-4.3-2.6c-1.9-0.4-3.5-0.6-4.9-0.6c-4.1,0-6.9,1.3-8.4,4c-1.6,2.6-2.7,5.9-3.6,9.9c-0.8,3.8-1.7,9.9-2.6,18.3
			c-0.9,8.4-1.4,17.5-1.4,27.4c0,9.1,0.6,18,1.9,26.6c1.3,8.7,3.6,16,6.9,21.8c3.3,5.9,8,9.4,14.1,10.5c0.8,0.1,1.6,0.2,2.4,0.2
			c4.3,0,8.2-1.8,11.5-5.3c3.3-3.5,6.3-8.2,8.9-14.1c2.6-5.9,5-12.4,7.2-19.6c0.6-1.9,1.1-3.7,1.6-5.6c0.7,2.6,1.5,5.1,2.4,7.3
			c3.4,7.9,7.6,13.6,12.7,17.1c5.1,3.5,10.3,5.2,15.5,5.2c2.3,0,4.5-0.3,6.7-0.8c6.9-2.2,12.2-7,15.8-14.5c3.6-7.5,6-16.1,7.3-25.7
			c1.3-9.6,1.9-18.3,1.9-26c0-2.8-0.1-5.4-0.2-7.7c3.7,0.5,8.1,0.8,13.4,0.8c2.8,0,5.5-0.2,8-0.6c-3.4,6.6-6.1,14.4-8,23.5
			c-2.4,11.6-3.6,23.4-3.6,35.5c0,9.3,0.7,18.1,2.1,26.4c1.8,9.3,4.4,15.7,7.9,19.2c3.5,3.6,6.9,5.3,10.4,5.3c3.3,0,6.2-1,8.8-3
			c3.3-3,6.6-10.1,9.8-21.2c3.2-11.1,6.1-22.8,8.7-35.1c2.5-12.3,4.4-21.8,5.7-28.5c0.4-1.8,0.6-3.1,0.8-4v7.8
			c0,12.8,0.7,26.9,2.2,42.3c1.5,15.4,3.8,29.4,7,42.1c3.2,12.6,7.5,21.7,12.7,27.3c3.6,3.3,7.1,4.9,10.7,4.9c2.5,0,4.8-0.8,6.8-2.3
			c2-1.5,3.3-3.7,3.9-6.7c0.1-0.5,0.2-1,0.2-1.3c0-1.5-0.7-2.5-2-2.9c-1.3-0.4-2.8-0.5-4.3-0.4c-1.3,0-2.4-0.1-3.5-0.4
			c-1.1-0.3-1.8-0.8-2.2-1.5c-4.2-9.3-7.2-21.5-8.9-36.7c-1.8-15.2-2.7-31.7-2.7-49.5c0-23.8,1.3-47.6,3.8-71.4
			c0.2-1.7,0.4-3.4,0.6-5.1c0.3,0,0.6,0,1,0c1,0,2.1-0.1,3.5-0.2c5.6-0.7,11.7-1.2,18.3-1.6c-1.9,17.6-2.8,35.6-2.8,53.9
			c0,15.6,0.9,30.3,2.8,44.1s5.1,25,9.8,33.6c4.6,8.6,10.9,13.1,18.9,13.5h0.2c4.6,0,8.7-3.1,12.4-9.4c3.7-6.3,7-14.3,10.2-24
			c3.1-9.7,6.1-19.8,8.9-30.4c2.8-11,5.8-21,8.7-30.1c0.1-0.4,0.2-0.7,0.2-1C809.9,872.5,809.4,871.5,808.3,870.8z M596.5,818.8
			c0.7,0,1.9,1.3,3.8,3.9c1.8,2.6,3.6,5.7,5.4,9.4c1.8,3.7,2.9,7.5,3.5,11.3c-4.9-1.9-8.4-5-10.7-9.3c-2.2-4.3-3.4-8.1-3.4-11.2
			C595.1,820.8,595.6,819.4,596.5,818.8z M611.9,893.2c-0.9,7.2-2.1,13.4-3.8,18.6c-1.6,5.2-3.7,7.9-6.1,8.3h-0.8
			c-3.1,0-5.6-1.8-7.5-5.3c-1.9-3.5-3.3-8.1-4.1-13.7c-0.8-5.6-1.2-11.5-1.2-17.8c0-6.6,0.4-13.1,1.1-19.4
			c0.7-6.3,1.6-11.5,2.5-15.8c0.4-1.8,0.7-2.6,0.8-2.4c6,4.1,11.8,7.5,17.5,10.4c0.9,0.5,1.7,2.4,2.1,5.5c0.5,3.1,0.7,6.9,0.7,11.4
			C613.2,879.3,612.8,886,611.9,893.2z M681.4,880.3c-1.4,8.8-3.1,18.5-5.1,29c-2,10.5-4.1,19.8-6.2,27.7c-2.1,7.9-3.8,12.6-5.2,14
			c-0.6,0.4-1.2,0.6-1.7,0.6c-1.7,0-2.9-1.9-3.7-5.8c-0.8-3.9-1.2-8.8-1.2-14.9c0-12.7,1.5-26.9,4.6-42.5c3-15.7,7-25.7,12-30.2
			c0.8-0.5,1.5-0.8,2.3-0.8c2.2,0,4.4,1.7,6.7,5.1C683.5,865.6,682.8,871.5,681.4,880.3z"/>
	</g>
	<path class="st1" d="M226.8,734.3c-0.2-1.7-0.3-3.4-0.2-5.3c0.1-1.8,0.2-3.4,0.2-4.9c0-3.6,0-7.2,0-10.7c0-3.5-0.1-7-0.4-10.3
		c-0.2-3.9-0.5-7.7-0.9-11.6c-0.4-3.9-0.5-7.9-0.5-12c-0.2-7.5-0.3-14.9-0.2-22.1c0.1-7.3,0.2-14.5,0.2-21.8
		c0-5.3-0.2-10.6-0.7-15.8c-0.5-5.2-0.8-10.6-1.1-16.1l6.9-16.3c-1.2,2.7-2.4,5.3-3.6,8c-1.2,2.7-2.4,5.3-3.6,8v-2.9
		c-0.2-4.6-0.4-9.1-0.5-13.4c-0.1-4.4-0.2-8.7-0.2-13.1v31.2c-2.7,5.8-5.2,11.6-7.6,17.2c-2.4,5.7-4.8,11.3-7.3,16.9
		c-0.2,0.5-0.5,1-0.9,1.6c-0.4,0.6-0.9,1.3-1.6,2c-1.7,2.2-4.5,3.3-8.3,3.3h-22.1c-2.2,0-4-0.4-5.4-1.3c-1.5-0.8-2.4-1.6-2.9-2.4
		c-1-1.2-1.7-2.3-2.2-3.3l-9.1-20c-1.2-2.7-2.4-5.4-3.6-8.2c-1.2-2.8-2.4-5.6-3.6-8.5c0,1.2-0.1,2.5-0.2,4c-0.1,1.5-0.2,2.8-0.2,4
		c-1,16.5-1.4,32.8-1.3,49c0.1,16.2-0.3,32.7-1.3,49.4c-0.2,3.9-0.4,7.8-0.5,11.8c-0.1,4-0.2,8-0.2,12.2c0,1.2-0.5,3.1-1.6,5.6
		c-1.1,2.5-4.3,3.8-9.6,3.8c-3.6,0-7.3,0-10.9,0c-3.6,0-7.3-0.1-10.9-0.4c-2.4,0-4.2-0.2-5.4-0.7c-2.7-0.5-4.5-1.7-5.4-3.6
		c-0.5-0.7-0.9-1.4-1.1-2.2c-0.2-0.7-0.4-1.2-0.4-1.5v-3.3c-0.2-7.3-0.5-14.6-0.9-22c-0.4-7.4-0.5-14.7-0.5-22v-35.6
		c0-2.9,0.1-5.9,0.4-9.1c0.2-3.1,0.4-6.2,0.4-9.1c0.5-13.1,1-26.1,1.5-39c0.5-12.9,0.7-25.9,0.7-39c0-6.8-0.1-13.4-0.4-20
		c-0.2-6.5-0.4-13.2-0.4-20c0-3.1-0.1-6.4-0.2-9.6c-0.1-3.3,0.1-6.5,0.5-9.6c0.2-1.7,0.9-3.5,2-5.4c1.1-1.9,3.7-3.1,7.8-3.6h4.7h9.8
		h9.8c1.2,0.2,2.3,0.4,3.3,0.5c1,0.1,1.9,0.3,2.9,0.5c0.7,0.2,1.7,0.5,2.9,0.9c1.2,0.4,2.3,1.2,3.3,2.4l1.5,1.5v1.5
		c0,1,0.6,1.9,1.8,2.9c0.2,0.5,0.5,1,0.7,1.5c0.2,0.5,0.6,1,1.1,1.5c0.5,0.5,0.8,1.1,1.1,1.8c0.2,0.7,0.6,1.3,1.1,1.8
		c2.9,6.3,5.6,12.6,8.2,19c2.5,6.4,5.1,12.8,7.8,19.1c1,1.9,2.4,5.8,4.4,11.6c1.9,5.8,4.1,11.9,6.5,18.1c1,2.4,1.9,4.8,2.7,7.1
		c0.8,2.3,1.8,4.4,2.7,6.4c0-0.2,0.2-0.6,0.7-1.1c1.7-4.1,3.4-8.6,5.1-13.4c1.7-4.8,3.5-9.9,5.4-15.2c1.9-5.3,3.9-10.6,5.8-15.8
		c1.9-5.2,3.9-10.1,5.8-14.7c1.7-4.4,3.2-8.3,4.5-11.8c1.3-3.5,2.6-6.2,3.8-8.2c1.2-1.2,2.1-2.2,2.5-2.9c0.5-0.5,0.8-0.9,0.9-1.3
		c0.1-0.4,0.4-0.8,0.9-1.3c0.2-0.5,0.4-1.1,0.5-1.8c0.1-0.7,0.4-1.5,0.9-2.2c0.5-0.5,0.8-1,0.9-1.6c0.1-0.6,0.4-1.1,0.9-1.6
		c0.5-0.2,1.1-0.8,1.8-1.6c0.7-0.8,1.9-1.5,3.6-2c2.4-0.7,5.4-1.1,9.1-1.3c3.6-0.1,6.4-0.2,8.3-0.2H261c2.4,0.2,4.7,1.1,6.9,2.5
		c2.2,1.5,3.3,3.5,3.3,6.2v1.8v63.5c0,5.8,0.2,11.6,0.5,17.2c0.4,5.7,0.5,11.3,0.5,16.9c0,1.9,0.1,3.9,0.4,6
		c0.2,2.1,0.4,4.2,0.4,6.4c0,1.7-0.2,3.2-0.5,4.5c-0.4,1.3-0.5,2.7-0.5,4.2c0,1.2,0.1,2.5,0.4,3.8c0.2,1.3,0.5,2.6,0.7,3.8
		c0.7,9.4,1.1,18.9,1.1,28.3c0,9.4,0,18.8,0,27.9c0,7,0,14,0,20.9c0,6.9-0.2,13.9-0.7,20.9c-0.2,1.9-0.4,3.8-0.5,5.6
		c-0.1,1.8-0.2,3.7-0.2,5.6c0,2.4-0.9,4.4-2.7,5.8s-3.7,2.4-5.6,2.9c-1,0.5-1.9,0.7-2.9,0.7c-1,0-1.8,0-2.5,0h-20.7
		c-4.4,0-7.2-1-8.5-2.9C228.2,737.4,227.3,735.7,226.8,734.3z"/>
	<path class="st2" d="M302,597.5c0.2-3.4,0.7-7.4,1.3-12.2c0.6-4.7,1.4-9.6,2.4-14.5c1-5,2.1-9.7,3.4-14.3c1.3-4.6,2.7-8.5,4.2-11.6
		c2.2-4.1,4.2-8.3,6-12.5c1.8-4.2,3.6-8.4,5.3-12.5c1.9-6,4.4-10.5,7.4-13.4c3-2.9,7.2-5.8,12.5-8.7c1.2-0.7,2.4-1.3,3.6-1.8
		c1.2-0.5,2.4-1.2,3.6-2.2c4.8-4.1,10.7-6.9,17.6-8.3c6.9-1.5,13.1-2.2,18.7-2.2c13.5,0,25.5,3.3,35.9,9.8c1.7,1.5,3.7,2.5,6.2,3.3
		c1.2,0.5,2.3,1.1,3.3,1.8c1,0.7,2.1,1.3,3.3,1.8c2.4,1.5,4.7,3.1,6.9,4.9c2.2,1.8,4.1,4.1,5.8,6.7c1.5,2.7,2.7,5.5,3.8,8.5
		c1.1,3,2.2,6,3.4,8.9c1.9,3.6,3.6,7.1,4.9,10.3c1.3,3.3,2.5,6.5,3.6,9.6c1.1,3.1,2.1,6.4,3.1,9.8c1,3.4,1.9,7.1,2.9,11.2
		c0.5,2.7,0.8,5.2,1.1,7.6c0.2,2.4,0.4,4.8,0.4,7.3c0.2,0.5,0.6,1.5,1.1,2.9c0.2,0.7,0.4,1.6,0.4,2.5c0,1,0.1,1.8,0.4,2.5
		c0.5,4.1,1,8.5,1.5,13.1c0.5,4.6,0.7,9,0.7,13.1c0,12.3-1.6,25.6-4.9,39.7c-3.3,14.2-7.1,27.2-11.4,39c-1.5,4.1-4.2,9-8.2,14.5
		c-4,5.6-7.4,10-10.3,13.4c-1.2,1.2-2.4,2.3-3.4,3.3c-1.1,1-2.1,1.9-3.1,2.9c-1.2,1-2.3,1.8-3.3,2.5c-1,0.7-2.1,1.6-3.3,2.5
		l-2.2,1.8h-3.3c-1.2,0-3.1,0.7-5.8,2.2c-0.5,0.5-1,0.9-1.6,1.3c-0.6,0.4-1.2,0.7-1.6,0.9c-0.5,0.2-1.3,0.6-2.4,1.1
		c-1.1,0.5-2.2,0.8-3.4,1.1c-3.6,0.5-7.3,0.8-11.1,1.1c-3.8,0.2-7.3,0.4-10.7,0.4c-4.4,0-9.1-0.4-14.2-1.1
		c-5.1-0.7-9.7-2.4-13.8-5.1c-0.2-0.2-0.4-0.4-0.5-0.4c-0.1,0-0.3-0.1-0.5-0.4c-0.5-0.2-1-0.4-1.5-0.4c-0.5,0-1-0.2-1.5-0.7
		c-9.9-3.4-17.7-9.1-23.2-17.1c-2.4-3.9-4.9-7.6-7.4-11.2c-2.5-3.6-4.9-7.4-7.1-11.2c-3.1-6.5-5.6-13.2-7.3-20
		c-1.5-7-2.8-13.9-4-20.7c-1.2-6.8-2.4-13.7-3.6-20.7c-0.5-2.2-1-4.5-1.5-6.9c-0.5-2.4-0.7-4.7-0.7-6.9c0-4.4,0.3-8.7,0.9-13.1
		C301.3,606.6,301.7,602.1,302,597.5z M356.7,674.4c1.5,3.1,3.1,6.1,4.9,8.9c1.8,2.8,3.6,5.5,5.3,8.2c1.2,1.9,3.1,3.7,5.8,5.3
		c2.7,1.6,5.7,3.1,9.1,4.5c0.5,0.2,1,0.4,1.5,0.5c0.5,0.1,1,0.3,1.5,0.5c5.1,0,9.6-1,13.4-2.9c3.9-1.9,7.3-4.5,10.3-7.6
		c3-3.1,5.5-6.8,7.4-10.9c1.9-4.1,3.4-8.5,4.4-13.1c2.2-8.5,4.2-17.1,6-25.8c1.8-8.7,2.7-17.5,2.7-26.5c0-4.8-0.4-10.6-1.3-17.2
		c-0.9-6.7-2.1-13.4-3.6-20.3c-1.6-6.9-3.5-13.5-5.8-19.8c-2.3-6.3-4.8-11.4-7.4-15.2c-0.2-0.2-0.4-0.4-0.4-0.5
		c0-0.1-0.1-0.3-0.4-0.5l-1.8-1.8c-1.5-1-2.7-2.4-3.6-4.4c-3.4-5.3-8.2-8-14.5-8c-4.8,0-8.5,0.8-11.1,2.4c-2.5,1.6-5.4,4.3-8.5,8.2
		c-5.1,6.5-9.1,13.6-12.2,21.2c-3,7.6-5.3,15.4-6.9,23.4c-1.6,8-2.5,16-2.9,24.1c-0.4,8.1-0.5,16.1-0.5,24.1v10.2
		c0,1.7,0.2,3.9,0.7,6.7c0.5,2.8,1.1,5.6,1.8,8.5c0.7,2.9,1.5,5.6,2.4,8c0.8,2.4,1.6,4.1,2.4,5.1l1.5,1.5V674.4z"/>
	<path class="st0" d="M594.8,620v-4.7V503.9v-6.2v-2.5c0-3.1,1.3-5.3,4-6.4c2.7-1.1,5.3-1.6,8-1.6h20c5.6,0,9.6,1.2,12,3.4
		c2.4,2.3,3.6,5.3,3.6,8.9c0,16.9,0.2,33.7,0.7,50.4c0.5,16.7,0.7,33.6,0.7,50.8v26.5c0,3.4-0.2,6.8-0.5,10.3
		c-0.4,3.5-0.7,7-0.9,10.3c-0.5,9.7-0.7,19.3-0.7,28.8c0,9.6,0,19.2,0,28.8c0,8.5,0.7,16.7,2.2,24.7c0,0.5,0.1,1,0.2,1.5
		c0.1,0.5,0.2,1,0.2,1.5c0,3.1-1.2,5.4-3.6,6.9c-2.4,1.5-5.4,2.2-9.1,2.2H606c-4.4,0-7.4-0.8-9.3-2.5c-1.8-1.7-3.2-3.5-4.2-5.4
		c-2.2-4.4-4.1-8.8-5.6-13.2c-1.6-4.5-3.3-9-5.3-13.6c-3.9-10.2-7.9-20.3-12-30.3c-4.1-10-8.2-20.1-12.3-30.3
		c-1.7-4.1-3.1-8.1-4.4-12c-1.2-3.9-2.4-7.9-3.6-12c-0.2,2.7-0.4,5.4-0.4,8.3c0,2.9,0,5.7,0,8.3c0,12.3-0.2,24.7-0.5,37.2
		c-0.4,12.5-0.5,24.9-0.5,37.2c0,1.2,0,2.5,0,3.8c0,1.3,0.1,2.7,0.4,4.2c0.2,1.9,0.6,3.8,1.1,5.4c0.5,1.7,0.7,3.5,0.7,5.4
		c0,1.9-0.5,3.4-1.5,4.5c-1,1.1-2.1,1.9-3.4,2.5c-1.3,0.6-2.7,1-4.2,1.1c-1.4,0.1-2.7,0.2-3.6,0.2c-4.6,0-9,0.1-13.2,0.2
		c-4.2,0.1-8.7,0.2-13.2,0.2c-5.1,0-8.2-1.3-9.4-3.8c-1.2-2.5-1.8-4.4-1.8-5.6c0-6.8-0.1-13.4-0.4-19.8c-0.2-6.4-0.4-13-0.4-19.8
		c0-1,0.1-1.8,0.4-2.5c0.2-0.7,0.4-1.7,0.4-2.9c0-0.5-0.1-1-0.4-1.5c0-0.5-0.1-1-0.2-1.6c-0.1-0.6-0.2-1.1-0.2-1.6
		c0-1.2,0.1-2.4,0.4-3.6c0.2-1.2,0.4-2.4,0.4-3.6c0-1.2-0.1-2.4-0.2-3.6c-0.1-1.2-0.2-2.4-0.2-3.6c0-6.3,0.2-12.3,0.5-18.1
		c0.4-5.8,0.5-11.9,0.5-18.1v-26.1c0-8.7,0.1-17.4,0.4-26.1c0.2-8.7,0.4-17.4,0.4-26.1c0-3.1-0.1-6.2-0.2-9.3
		c-0.1-3-0.2-6.1-0.2-9.3v-38.5c0-2.4,0.9-4.7,2.7-6.7c1.8-2.1,5.1-3.1,10-3.1c3.1,0,6.1,0.1,8.9,0.2c2.8,0.1,5.7,0.2,8.9,0.2
		c3.1,0,6.8,0.9,11.1,2.5c4.2,1.7,7,4.2,8.2,7.6c0.2,0.5,0.5,1,0.7,1.5c0.2,0.5,0.5,1.1,0.7,1.8c0.5,1.2,1,2.5,1.5,3.8
		c0.5,1.3,1,2.7,1.5,4.2c1,2.7,1.8,5.3,2.5,8c0.7,2.7,1.3,4.6,1.8,5.8l5.1,15.6c1,1,1.7,2.2,2.2,3.6c1.5,4.1,2.8,8.1,4.2,12
		c1.3,3.9,2.7,7.9,4.2,12c2.7,7.5,5.5,14.9,8.5,22.3c3,7.4,5.7,14.9,8.2,22.7c0.5,1.2,1,2.7,1.6,4.4
		C593.8,616.2,594.3,618.1,594.8,620z"/>
	<path class="st1" d="M759.5,527.1c0,6.3,0.1,12.7,0.4,19.2c0.2,6.5,0.4,13.1,0.4,19.6c0,1.2-0.2,2.5-0.5,4c-0.4,1.5-0.5,2.8-0.5,4
		c0,1.5,0.2,3,0.5,4.5c0.4,1.6,0.5,3.2,0.5,4.9c0,4.6-0.1,9.1-0.4,13.6c-0.2,4.5-0.5,9-0.7,13.6c0,0.5-0.1,0.9-0.2,1.3
		c-0.1,0.4-0.2,0.8-0.2,1.3c-0.2,0.5-0.4,0.9-0.4,1.1c0,0.2-0.1,0.6-0.4,1.1c-0.2,0.7-0.4,1.5-0.4,2.2c0,3.6,0.2,7.3,0.5,10.9
		c0.4,3.6,0.5,7.3,0.5,10.9v80.6c0,1.9-0.2,3.8-0.5,5.6s-0.7,3.7-0.9,5.6v2.2c0,3.4-1.2,5.6-3.6,6.7c-2.4,1.1-5.1,1.6-8,1.6
		c-3.4,0-6.6,0.1-9.6,0.4c-3,0.2-6.1,0.4-9.3,0.4c-4.1,0-7.3-0.4-9.4-1.1c-2.2-0.7-3.8-1.7-4.9-2.9c-1.1-1.2-1.8-2.7-2-4.4
		c-0.2-1.7-0.4-3.6-0.4-5.8c-0.2-8.2-0.3-16.3-0.2-24.3c0.1-8,0.2-16.1,0.2-24.3c0-1.7-0.1-3.3-0.4-4.9c-0.2-1.6-0.4-3.2-0.4-4.9
		c-0.2-4.1-0.4-8.3-0.5-12.7c-0.1-4.4-0.2-8.6-0.2-12.7c0-5.6,0.1-11.1,0.4-16.5c0.2-5.4,0.5-10.9,0.7-16.5
		c0.2-8.7,0.4-17.4,0.5-26.1c0.1-8.7,0.2-17.4,0.2-26.1c0-5.1-0.3-10.2-0.9-15.4c-0.6-5.2-0.9-10.5-0.9-15.8c-2.9,0-5.9-0.1-8.9-0.4
		c-3-0.2-5.9-0.4-8.5-0.4c-2.4,0-4.8,0.1-7.1,0.2c-2.3,0.1-4.5,0.2-6.7,0.2c-2.7,0-4.8-0.6-6.5-1.8c-1.7-1.2-2.5-2.8-2.5-4.7v-23.2
		c0-3.1,0.8-6,2.5-8.5c1.7-2.5,5.9-3.8,12.7-3.8c1.9,0,3.8,0.1,5.6,0.2c1.8,0.1,3.7,0.2,5.6,0.2c3.1,0,6.3-0.2,9.4-0.7
		c3.1-0.5,6.4-0.7,9.8-0.7c3.9,0,7.6,0.1,11.2,0.4c3.6,0.2,7.3,0.4,10.9,0.4h30.8c2.4,0,4.8,0.1,7.1,0.4c2.3,0.2,4.8,0.4,7.4,0.4
		c1.5,0,2.8-0.1,4-0.4c1.2-0.2,2.5-0.4,4-0.4c4.4,0,7.3,0.9,8.9,2.7c1.6,1.8,2.6,3.7,3.1,5.6c0,1.2-0.1,2.4-0.2,3.4
		c-0.1,1.1-0.2,2.2-0.2,3.4c0,2.9,0.1,5.9,0.4,8.9c0.2,3,0.4,6,0.4,8.9c0,3.1-1.7,5.7-5.1,7.6c-1.7,0.7-3.3,1.1-4.7,1.1h-3.3H774
		c-2.7,0-5.2,0-7.6,0C764,526.7,761.7,526.9,759.5,527.1z"/>
	<path class="st0" d="M931.9,634.5h-3.3c-1,0-1.9,0-2.7,0c-0.9,0-1.9-0.1-3.1-0.4c-1,0.2-2.4,0.4-4.4,0.4c-4.8,0-9.6-0.1-14.2-0.4
		c-4.6-0.2-9.3-0.4-14.2-0.4c-3.4,0-6.8,0.1-10.2,0.4c-3.4,0.2-6.8,0.5-10.2,0.7c0,15.7,0.4,31.3,1.1,46.6
		c0.7,15.4,1.1,30.9,1.1,46.6c0,3.1-1,5.7-3.1,7.6c-2.1,1.9-4.6,3.4-7.6,4.5c-3,1.1-6.2,1.8-9.6,2c-3.4,0.2-6.3,0.4-8.7,0.4
		c-1.9,0-3.6-0.1-5.1-0.2c-1.5-0.1-2.8-0.2-4-0.2c-2.7,0-5.1-0.9-7.4-2.7c-2.3-1.8-3.4-4.2-3.4-7.1c-0.5-8.5-0.7-17-0.7-25.6
		c0-8.6-0.1-17.1-0.4-25.6c0-6.8,0.1-13.5,0.2-20.1c0.1-6.6,0.2-13.4,0.2-20.1c0-5.8-0.1-11.6-0.4-17.4c-0.2-5.8-0.4-11.6-0.4-17.4
		c0-6.3,0.2-12.6,0.5-18.9c0.4-6.3,0.5-12.6,0.5-18.9c0-3.4-0.1-6.9-0.2-10.5c-0.1-3.6-0.2-7.1-0.2-10.5c0-1.2,0-2.5,0-3.8
		c0-1.3,0.1-2.6,0.4-3.8c0.7-12.3,1.1-24.7,1.1-37c0-1.2-0.1-2.5-0.4-3.8c-0.2-1.3-0.4-2.6-0.4-3.8c0-2.7,1-4.8,2.9-6.4
		c1.9-1.6,4.3-2.7,7.1-3.4c2.8-0.7,5.6-1.1,8.5-1.3c2.9-0.1,5.3-0.2,7.3-0.2c2.2,0,4.5,0.1,6.9,0.4c2.4,0.2,4.7,0.7,6.9,1.5
		c2.2,0.7,4.1,1.8,5.8,3.3c1.7,1.5,2.7,3.5,2.9,6.2c0.5,4.4,0.8,8.8,1.1,13.4c0.2,4.6,0.4,9.1,0.4,13.4c0,11.6-0.4,23-1.1,34.3
		c-0.7,11.2-1.1,22.7-1.1,34.3c3.4,0,6.7-0.1,10-0.4c3.3-0.2,6.5-0.4,9.6-0.4c5.6-0.2,10.9-0.4,16.1-0.5c5.2-0.1,10.5-0.3,15.8-0.5
		h6.9h2.5c0.5-3.6,0.7-7.3,0.5-11.1c-0.1-3.7-0.1-7.6,0.2-11.4c0.2-8.7,0.4-17.5,0.5-26.3c0.1-8.8,0.2-17.7,0.2-26.7
		c0-2.2,0.1-4.4,0.4-6.5c0.2-2.2,0.4-4.5,0.4-6.9c0-1.2-0.1-2.2-0.4-3.1c-0.2-0.8-0.4-1.6-0.4-2.4c0-1.9,0.6-3.5,1.8-4.7
		c1.2-1.2,2.3-2.1,3.3-2.5c1-0.5,2-0.8,3.1-1.1c1.1-0.2,2.2-0.6,3.4-1.1c2.2-0.5,4.4-0.8,6.7-1.1c2.3-0.2,4.2-0.4,5.6-0.4
		c2.4,0,5.2,0.2,8.3,0.5c3.1,0.4,6,1,8.7,2c3.4,0.7,5.7,2.5,6.9,5.4c0.2,0.5,0.4,1,0.4,1.6c0,0.6,0.1,1.2,0.4,1.6v1.8
		c0.2,4.1,0.5,8,0.7,11.8c0.2,3.8,0.4,7.7,0.4,11.8c0,5.6-0.1,11.2-0.2,16.9c-0.1,5.7-0.3,11.3-0.5,16.9c-0.2,5.8-0.5,11.5-0.9,17.1
		c-0.4,5.6-0.5,11.2-0.5,17.1c0,20.3,0.2,40.4,0.5,60.2c0.4,19.8,0.5,39.8,0.5,59.9c0,3.6,0.1,7.2,0.4,10.7c0.2,3.5,0.4,7,0.4,10.3
		c0,2.7-1.4,5.4-4.2,8.3c-2.8,2.9-6.6,4.4-11.4,4.4h-23.2c-4.4,0-7.4-1.5-9.1-4.4c-1.2-1.4-1.8-3-1.8-4.7
		c-0.5-5.3-0.7-10.6-0.5-15.8c0.1-5.2,0.2-10.5,0.2-15.8c-0.2-10.9-0.4-21.8-0.4-32.7c0-10.9,0-21.8,0-32.7V634.5z"/>
	<g>
		<path class="st0" d="M201,462c0-1.5,1-2.3,2.9-2.5l10.5-0.9c0.3-0.1,0.8-0.3,1.2-0.7c0.5-0.3,0.7-0.8,0.7-1.3v-93.3
			c0-1.5-0.2-2.5-0.5-3.1c-0.3-0.6-0.8-0.9-1.5-1.1c-1-0.3-2-0.5-3.1-0.7c-1.1-0.2-2.2-0.3-3.2-0.5c-1-0.1-2-0.3-2.9-0.5
			c-0.9-0.2-1.5-0.3-1.8-0.5c-0.3-0.1-0.4-0.3-0.5-0.7c-0.1-0.3-0.1-0.6-0.1-0.8c0.1-0.8,0.6-1.2,1.7-1.4c1-0.1,1.9-0.2,2.7-0.2h3.9
			c2.4,0,4.4,0.1,5.8,0.3c1.5,0.2,3.1,0.3,4.8,0.3c4.1,0,7.9-0.2,11.5-0.5c3.6-0.3,7.8-0.5,12.6-0.5c0.4,0,1.1,0.1,1.9,0.4
			c0.9,0.3,1.3,0.7,1.3,1.4c0,0.5-0.2,0.9-0.6,1.2c-0.4,0.3-0.8,0.5-1.2,0.7c-0.4,0-1.1,0-2.1,0.1c-1,0-2,0.1-3.1,0.3
			c-1.1,0.1-2.2,0.3-3.1,0.4c-1,0.1-1.6,0.2-1.9,0.3c-0.8,0-1.8,0.3-3.1,0.8c-1.3,0.5-1.9,1.5-1.9,2.9v41.2c0,1.2,0.6,1.8,1.8,1.8
			h43.6c0.4,0,0.8-0.2,1.2-0.5c0.4-0.3,0.6-0.7,0.6-1.2v-39.7c0-1.2-0.3-2.2-0.8-3c-0.6-0.8-1.3-1.4-2.1-1.8
			c-0.9-0.4-1.8-0.7-2.9-0.8c-1-0.1-2-0.2-3-0.2h-6.7c-0.7,0-1.3-0.2-1.9-0.7c-0.6-0.5-0.8-1-0.8-1.6c0-0.7,0.3-1.2,0.8-1.4
			c0.6-0.3,1.2-0.4,2-0.4h4.4c2.3,0,4.4,0,6.1,0.1c1.7,0,3.3,0.1,4.7,0.2c1.4,0.1,2.8,0.2,4.2,0.2c1.4,0,2.9,0.1,4.7,0.1
			c1.4,0,2.6,0,3.8-0.1c1.1,0,2.3-0.1,3.6-0.2c1.3-0.1,2.7-0.2,4.2-0.2c1.6,0,3.5-0.1,5.7-0.1h5.4c0.8,0,1.3,0.2,1.6,0.5
			c0.3,0.4,0.5,0.7,0.5,0.9c0,1-1.1,1.7-3.4,2.1c-1.5,0.3-3,0.5-4.7,0.6c-1.6,0.1-3.2,0.4-4.5,0.7c-1.4,0.3-2.6,0.9-3.5,1.6
			c-1,0.8-1.4,2-1.4,3.5v87c0,2,0.3,3.5,1,4.5c0.6,1,1.5,1.7,2.7,2.1c1.1,0.4,2.4,0.7,4,0.9c1.5,0.1,3.1,0.3,4.9,0.6
			c1.2,0.3,2.2,0.6,2.9,0.9c0.7,0.4,1.1,1.1,1.1,2.1c0,0.9-0.3,1.5-0.8,1.8c-0.6,0.3-1.3,0.5-2.3,0.5h-4.2c-0.9,0-2,0-3.4-0.1
			c-1.4,0-2.9-0.1-4.4-0.2c-1.5-0.1-2.9-0.2-4.1-0.2c-1.3,0-2.1-0.1-2.7-0.1c-2.6,0-4.7,0-6.4,0.1c-1.6,0-3.3,0.1-4.9,0.2
			c-1.6,0.1-3.4,0.2-5.3,0.2c-1.9,0-4.4,0.1-7.5,0.1c-0.9,0-1.6-0.2-2.1-0.5c-0.6-0.3-0.8-0.9-0.8-1.9c0-0.3,0.1-0.8,0.4-1.3
			c0.3-0.5,0.7-0.8,1.3-0.9l10.4-1.3c2.1-0.3,3.3-1.2,3.8-2.9c0.4-1.7,0.6-3.6,0.6-5.9V413c0-0.7-0.2-1.4-0.7-2
			c-0.5-0.6-1.1-0.9-1.9-0.9h-42.8c-1.2,0-1.8,0.5-1.8,1.4v40.8c0,1.8,0.6,3.2,1.7,4.1c1.1,0.9,2.5,1.6,4.1,2
			c1.6,0.4,3.3,0.6,5.1,0.7c1.8,0.1,3.3,0.2,4.5,0.4c0.6,0.2,1,0.5,1.1,1c0.1,0.5,0.2,0.9,0.2,1.4c0,1.1-0.3,1.7-1,1.8
			c-0.7,0.2-1.4,0.3-2.1,0.3c-2.1,0-3.8,0-5.2-0.1c-1.4,0-2.8-0.1-4.3-0.1c-1.5,0-3.2-0.1-5.2-0.1c-1.9,0-4.5-0.1-7.6-0.1
			c-2.5,0-4.8,0.1-6.9,0.2c-2.1,0.1-4.5,0.2-7.3,0.2h-5.4c-0.8-0.2-1.4-0.4-1.8-0.5C201.2,463.3,201,462.8,201,462z"/>
		<path class="st0" d="M339.8,452.4v-85.6c0-2.1-0.4-3.7-1.1-4.9c-0.7-1.1-1.7-1.9-2.8-2.4c-1.1-0.4-2.4-0.7-3.7-0.8
			c-1.3-0.1-2.6-0.2-3.7-0.2c-1.1,0-2.1-0.2-2.8-0.5c-0.7-0.3-1.1-0.9-1.1-1.9c0-0.7,0.3-1.1,0.9-1.3c0.6-0.2,1.2-0.3,1.8-0.3h4.2
			c2.5,0,4.6,0.1,6.4,0.4c1.7,0.3,3.8,0.4,6.1,0.4c2.4,0,4.6-0.1,6.4-0.2c1.9-0.1,3.6-0.3,5.3-0.4c1.7-0.1,3.4-0.3,5.1-0.4
			c1.7-0.1,3.6-0.2,5.7-0.2h5.1c0.7,0,1.3,0.1,1.7,0.4c0.4,0.3,0.8,0.4,1,0.5c0.2,0.5,0.3,0.8,0.4,0.9c0.1,0,0.1,0.3,0.1,0.7
			c0,0.5-0.4,1-1.3,1.3c-0.9,0.4-1.9,0.6-3,0.9c-1.2,0.2-2.3,0.4-3.4,0.6c-1.1,0.2-1.9,0.3-2.5,0.4c-0.8,0.2-1.6,0.3-2.5,0.5
			s-1.7,0.3-2.5,0.6c-0.8,0.3-1.4,0.7-1.9,1.2c-0.5,0.5-0.7,1.3-0.7,2.2v90.3c0,1.6,0.8,2.7,2.5,3.2c1.6,0.6,3.4,0.9,5.4,1.1
			c1.9,0.2,3.7,0.4,5.4,0.7c1.6,0.3,2.5,0.9,2.5,2c0,0.5-0.2,0.9-0.5,1.1c-0.3,0.2-0.6,0.3-0.8,0.4c-0.7,0.2-1.5,0.4-2.5,0.5
			c-1,0.2-1.9,0.3-2.7,0.3c-3.5,0-6.6-0.2-9.3-0.5c-2.6-0.3-5.6-0.5-8.8-0.5c-0.8,0-1.9,0-3.4,0.1c-1.5,0-3,0.1-4.6,0.2
			c-1.6,0.1-3.2,0.2-4.8,0.2c-1.6,0-3,0.1-4.1,0.1h-6c-0.3,0-0.6-0.1-1-0.4c-0.4-0.3-0.6-0.7-0.6-1.2c0-1,0.4-1.6,1.3-1.8
			c1.1-0.3,2.1-0.5,3-0.7c0.9-0.2,1.8-0.3,2.7-0.5c1-0.2,2-0.4,3.1-0.6c1.1-0.2,2.5-0.5,4.3-0.9c0.9-0.3,1.4-0.8,1.6-1.7
			C339.7,454.8,339.8,453.7,339.8,452.4z"/>
		<path class="st0" d="M386.2,382.1c0-2.5,0.4-5.1,1.2-7.7c0.8-2.6,1.9-5,3.3-7.4c1.4-2.3,3-4.4,4.9-6.3c1.9-1.9,3.9-3.4,6-4.5
			c2-1.2,4-1.9,6.2-2.2c2.1-0.2,4.3-0.3,6.7-0.3c5.6,0,10.8,1.3,15.6,3.8c0.4,0.3,1.4,0.9,2.9,2c1.5,1.1,2.8,2.1,4,3.1
			c0.2,0.2,0.3,0.3,0.5,0.3c0.1,0,0.2-0.1,0.4-0.3c0.3-0.4,0.7-1.2,1.3-2.4c0.6-1.1,1-1.9,1.2-2.2c0.2-0.6,0.4-0.9,0.8-0.9
			c0-0.1,0.1-0.1,0.3-0.1c0.6,0,1,0.4,1,1.1c0.1,0.7,0.1,1.3,0.1,1.8v0.5c0,0.2,0,0.7-0.1,1.6c-0.1,0.9-0.2,1.5-0.3,1.6v18.8
			c0,0.4-0.2,0.7-0.5,0.9c-0.3,0.1-0.6,0.2-0.9,0.2c-0.5,0-0.8-0.1-1-0.3c-0.1-0.2-0.3-0.6-0.5-1.2c-0.5-1.3-0.9-2.7-1.1-4.1
			c-0.2-1.4-0.6-2.8-1.1-4.3c-0.5-1.7-1.4-3.5-2.7-5.4c-1.3-1.9-2.8-3.7-4.5-5.4c-1.7-1.7-3.5-3.1-5.4-4.2c-1.9-1.1-3.7-1.7-5.3-1.7
			c-1.6,0-3,0.1-4.2,0.2s-2.2,0.3-3,0.5c-2.5,0.8-4.6,2-6.4,3.7c-1.7,1.7-3.3,3.6-4.8,5.7c-0.4,0.6-0.8,1.4-1.2,2.3
			c-0.3,0.9-0.6,1.9-0.8,3c-0.2,1.1-0.4,2.1-0.5,3c-0.1,1-0.2,1.8-0.2,2.4c0,2.5,0.5,4.7,1.6,6.6c1,2,2.4,3.7,4,5.3
			c1.6,1.5,3.5,2.9,5.6,4.1c2.1,1.2,4.1,2.2,6.2,3.1c3.6,1.5,7.4,3,11.3,4.4c3.9,1.4,7.2,3.3,10,5.6c1.7,1.4,3.4,3.1,5.1,5.1
			c1.6,2,3.1,4.2,4.4,6.5c1.3,2.3,2.4,4.8,3.2,7.3c0.8,2.5,1.2,5,1.2,7.5c0,4.7-0.8,9-2.5,12.8c-1.6,3.8-3.9,7-6.7,9.7
			c-2.9,2.6-6.2,4.7-10.1,6.1c-3.9,1.4-8.1,2.2-12.6,2.2c-5.4,0-10.3-0.6-14.7-1.9c-4.5-1.3-8.5-3.9-12.1-7.8
			c-0.2-0.3-0.4-0.4-0.8-0.5c-0.3,0-0.6-0.1-0.8-0.1c-0.9,0-1.5,0.2-1.8,0.7c-0.3,0.5-0.6,1-0.9,1.5c-0.3,0.5-0.5,1-0.8,1.5
			c-0.3,0.5-0.8,0.7-1.6,0.7l1.9-20.9c0.2-0.7,0.3-1.5,0.3-2.4c0-0.9,0.2-1.5,0.3-1.8c0.1-0.7,0.3-1.1,0.8-1.1c0.6,0,1,0.4,1.3,1.2
			c0.7,1.7,1.1,3.3,1.3,5c0.2,1.7,0.6,3.1,1.2,4.2c1.1,2,2.2,3.9,3.3,5.5c1.1,1.7,2.3,3.2,3.6,4.5c1.3,1.3,2.9,2.5,4.6,3.7
			c1.7,1.1,3.8,2.2,6.4,3.2c1.6,0.5,3,0.8,4.4,0.9c1.4,0.1,2.7,0.1,3.9,0.1c1.4,0,2.8-0.3,4.1-0.8c1.4-0.5,3.1-1.4,5.1-2.5
			c2.9-1.8,5.1-3.8,6.8-6.2c1.7-2.4,2.5-5.4,2.5-9.1c0-2.5-0.5-4.9-1.4-7.2c-0.9-2.2-2.2-4.3-3.8-6.2c-2.2-2.5-4.4-4.5-6.6-6
			c-2.1-1.4-4.2-2.6-6.2-3.5c-2-0.9-4-1.6-6-2.2c-2-0.6-4-1.4-6.1-2.3c-2.1-0.9-4.2-2.1-6.4-3.7c-2.2-1.5-4.4-3.7-6.7-6.4
			C388.7,398,386.2,390.7,386.2,382.1z"/>
		<path class="st0" d="M514.8,366.8v88.1c0,1.1,0.6,2,1.9,2.6c1.3,0.6,2.7,1.1,4.4,1.4c1.7,0.3,3.3,0.5,5,0.7
			c1.6,0.1,2.9,0.3,3.6,0.5c0.4,0.5,0.7,0.9,0.8,1.2c0.1,0.3,0.1,0.6,0.1,1.1c0,0.9-0.5,1.5-1.4,1.8c-1,0.3-1.8,0.5-2.6,0.5
			c-1,0-2.6-0.1-4.6-0.3c-2-0.2-4.2-0.4-6.5-0.7c-2.3-0.3-4.5-0.5-6.6-0.7c-2.1-0.2-3.7-0.3-4.9-0.3c-2,0-3.9,0-5.6,0.1
			c-1.8,0-3.7,0.2-5.6,0.6c-0.4,0-1.1,0.1-1.9,0.3c-0.9,0.2-1.8,0.4-2.9,0.6c-1,0.2-2.1,0.4-3.1,0.6c-1,0.2-1.9,0.3-2.5,0.3
			c-0.5,0-0.9-0.2-1.2-0.7c-0.3-0.4-0.4-0.8-0.4-1.1c0-0.7,0.4-1.2,1.1-1.6c0.7-0.3,1.4-0.6,1.9-0.8c0.3-0.1,0.8-0.2,1.7-0.5
			c0.9-0.2,1.8-0.4,2.7-0.7c1-0.2,1.9-0.5,2.9-0.7c1-0.3,1.7-0.5,2.2-0.7c1.6-0.4,2.9-1,3.6-1.6c0.8-0.6,1.2-1.9,1.2-3.9v-83.2
			c0-0.9-0.1-1.8-0.3-2.7c-0.2-0.9-0.9-1.4-2-1.4H479c-2.2,0-4.2,0.2-5.8,0.6c-1.6,0.4-3.1,1-4.5,1.8c-1.6,0.9-3.3,2-4.9,3.5
			c-1.6,1.4-2.9,3-3.9,4.7c-0.2,0.3-0.3,0.6-0.5,1.1c-0.1,0.4-0.3,0.9-0.5,1.4c-0.2,0.5-0.4,0.9-0.6,1.2c-0.3,0.4-0.6,0.5-0.9,0.5
			c-0.4,0-0.9-0.5-1.5-1.6c-0.6-1.1-0.8-2.2-0.8-3.4c0-1.1,0.2-2.3,0.7-3.5c0.5-1.2,1.1-2.5,1.8-3.9c0.7-1.4,1.4-2.9,2.2-4.5
			c0.8-1.6,1.5-3.3,2.2-5.3v-1.3c0-0.3,0.1-0.7,0.3-1.2c0.3-0.4,0.6-0.7,1.1-0.8c0.5-0.1,1-0.1,1.5-0.1c0.4,0,0.8,0.1,1.1,0.4
			c0.3,0.3,0.6,0.6,0.9,1c0.3,0.4,0.6,0.8,1,1.1c0.4,0.4,0.8,0.6,1.4,0.8c1.2,0.4,4.7,0.8,10.4,1.2c5.7,0.5,14.5,0.7,26.1,0.7
			c1.4,0,3,0,4.8-0.1c1.8-0.1,3.7-0.2,5.6-0.3c1.9-0.1,3.9-0.2,5.8-0.3c1.9-0.1,3.6-0.1,5.2-0.1c1.2,0,2.3,0.1,3.3,0.2
			c1,0.1,2.1,0.3,3.3,0.5c1.2,0.2,2.6,0.4,4.1,0.5c1.5,0.2,2.6,0.3,3.3,0.3c1,0,1.4-0.5,1.4-1.6c0-0.6,0.2-1.1,0.5-1.6
			c0.4-0.5,1-1.2,1.8-2c0.8-0.8,1.4-1.2,1.9-1.2c0.3,0,0.8,0.3,1.3,0.9c0.5,0.6,1,1.2,1.5,2s0.9,1.6,1.4,2.4c0.4,0.8,0.8,1.4,1,1.8
			c0.3,0.8,0.6,1.8,0.8,2.9c0.2,1.1,0.3,2,0.5,2.6c0.2,0.4,0.6,1.2,1.2,2.2c0.6,1,1.3,2.1,2.1,3.2c0.7,1.1,1.4,2.3,1.9,3.4
			c0.6,1.1,0.8,2,0.8,2.6c0,1.3-0.6,2-1.7,2c-0.7,0-1.5-0.4-2.5-1.2c-1-0.8-2-1.7-3-2.8c-1-1.1-2.1-2.2-3.2-3.3
			c-1.1-1.1-2.2-1.9-3.1-2.6c-0.7-0.3-1.6-0.8-2.7-1.3c-1.1-0.5-2.2-1-3.5-1.5c-1.3-0.5-2.5-0.9-3.7-1.3c-1.2-0.4-2.2-0.6-3.1-0.7
			c-1.4-0.2-2.8-0.3-4.2-0.3c-1.4,0-2.8-0.1-4.2-0.1h-4.3c-0.2,0-0.5,0-1.1,0.1c-0.6,0-1.2,0.1-1.8,0.3c-0.6,0.1-1.2,0.3-1.7,0.5
			C515.1,366.3,514.8,366.6,514.8,366.8z"/>
		<path class="st0" d="M617.7,465.4c-14.7,0-27.5-5.7-38.3-17.2c-4.7-4.8-8.4-11-11.2-18.4c-2.8-7.4-4.2-16.4-4.2-27
			c0-3.8,0.7-7.6,2.1-11.6c1.4-3.9,3.3-7.7,5.7-11.3c2.4-3.6,5.3-7,8.5-10.1s6.7-5.8,10.4-8c5.1-3.1,10.2-5.2,15.2-6.4
			c5.1-1.2,9.7-1.8,14.1-1.8c2.2,0,4.4,0.2,6.7,0.5c2.3,0.3,4.6,0.7,6.7,1.2c2.1,0.5,4.1,1,5.8,1.6c1.8,0.6,3.2,1.2,4.2,1.8
			c2.4,1.5,4.9,3.4,7.3,5.6c2.5,2.2,4.8,4.6,7,7.2c2.2,2.6,4.2,5.2,6,8c1.8,2.7,3.2,5.3,4.2,7.6c1.7,3.9,2.9,7.9,3.4,11.9
			c0.6,4,0.8,8.1,0.8,12.3c0,9.1-1.8,17.1-5.4,24c-3.6,6.9-8.6,13.1-15,18.6c-4.7,3.9-9.7,6.9-15,8.7
			C631.5,464.5,625.1,465.4,617.7,465.4z M583.6,410.6c0,4.9,0.5,9.9,1.6,14.9c1,5,2.8,9.5,5.3,13.5c1.6,2.6,3.5,5.2,5.4,7.8
			c2,2.6,4.2,4.9,6.6,7c2.4,2.1,5.1,3.7,8,4.9c2.9,1.2,6.1,1.8,9.5,1.8c3.2,0,6.3-0.8,9.4-2.4c3.1-1.6,5.9-3.7,8.5-6.3
			c2.6-2.6,4.9-5.5,7-8.8c2.1-3.3,3.8-6.6,5.1-10.1c0.2-0.5,0.5-1.4,1-2.8c0.5-1.3,1-2.9,1.4-4.9c0.5-1.9,0.9-4.1,1.3-6.5
			c0.4-2.4,0.6-5,0.6-7.8c0-2.4-0.2-5-0.6-7.8c-0.4-2.8-1-5.8-1.8-8.8c-0.8-3-1.7-6-2.9-9.1c-1.1-3-2.5-5.9-4-8.7
			c-1.3-2.4-2.9-4.7-4.7-7c-1.8-2.3-3.9-4.4-6.2-6.2c-2.3-1.8-4.8-3.2-7.6-4.3c-2.8-1.1-5.8-1.6-8.9-1.6c-3.1,0-6.1,0.7-8.8,2
			c-2.8,1.3-5.3,3-7.7,4.9c-2.3,2-4.4,4.1-6.1,6.2c-1.7,2.2-3.1,4.2-4.2,6c-1.6,2.8-3.3,7-4.9,12.7
			C584.4,394.9,583.6,402,583.6,410.6z"/>
		<path class="st0" d="M694.1,456.6v-92.3c0-0.7-0.2-1.3-0.7-1.7c-0.5-0.4-1-0.8-1.7-1.1c-0.6-0.3-1.3-0.5-2.1-0.6
			c-0.7-0.1-1.4-0.2-2-0.2h-3.1c-0.7,0-1.3,0-1.7,0s-0.9,0-1.3-0.1c-0.6,0-0.9-0.2-0.9-0.5c0-0.6,0.3-1,0.9-1.1
			c3.3-0.6,6.2-0.9,8.6-1c2.5,0,5.3-0.2,8.6-0.5c0.3,0,1.4-0.1,3.1-0.2c1.7-0.1,3.6-0.3,5.6-0.5c2-0.2,3.9-0.4,5.6-0.6
			c1.8-0.2,2.9-0.3,3.3-0.4c1.5-0.2,3-0.3,4.7-0.5c1.7-0.1,3.4-0.2,5.1-0.2c5.2,0,9.9,0.7,14.1,2c4.2,1.3,7.8,3.2,10.8,5.6
			c3,2.4,5.3,5.3,6.9,8.7c1.6,3.4,2.5,7.2,2.5,11.3c0,3.3-0.3,6.4-1,9.3c-0.7,2.9-2.1,5.7-4.1,8.5c-2,2.6-4.2,4.6-6.6,5.9
			c-2.4,1.3-4.9,2.8-7.4,4.3c-0.3,0.3-0.5,0.6-0.5,1.1c0,0.3,0.1,0.6,0.4,0.9c3.4,4.2,6.7,8.5,9.9,12.8c3.2,4.3,6.3,8.8,9.3,13.5
			c1.4,2,2.9,4,4.7,6c1.7,2,3.5,3.9,5.2,5.7c1,1,1.9,1.9,2.9,2.8c1,0.9,2.2,1.7,3.5,2.5c1.3,0.8,2.9,1.5,4.7,2.2s3.9,1.2,6.4,1.8
			c0.7,0.2,1.3,0.4,1.8,0.7s0.7,0.6,0.7,1.1c0,0.9-0.3,1.4-0.9,1.4c-0.2,0.1-0.8,0.1-1.8,0.1h-1.9c-2,0-4.6,0-7.9-0.1
			c-3.3-0.1-6.3-0.2-9.1-0.3c-2-0.1-3.9-0.3-5.6-0.5c-1.8-0.3-3.5-1-5.3-2.1c-1.2-0.6-2.4-1.6-3.6-3c-1.2-1.4-2.4-2.9-3.5-4.5
			c-2-2.7-4.2-5.8-6.6-9.3c-2.4-3.5-4.7-6.9-6.9-10.1c-2.2-3.2-4.1-6.1-5.7-8.5c-1.6-2.4-2.6-3.9-3-4.5c-0.2-0.3-0.5-0.9-1-1.6
			c-0.5-0.7-1.1-1.5-1.7-2.3c-0.6-0.8-1.3-1.5-1.8-2.1c-0.6-0.6-1-1-1.4-1.1c-1.2-0.2-2.6-0.3-4.1-0.3c-1.6,0-3-0.1-4.3-0.1h-1.9
			c-0.5,0-1.1,0.1-1.6,0.4c-0.6,0.3-0.9,0.7-1.1,1.4v35.9c0,0.6,0,1.3,0.1,2.1c0.1,0.8,0.2,1.6,0.3,2.4c0.1,0.8,0.3,1.5,0.6,2.1
			c0.3,0.6,0.6,1.1,0.9,1.3c0.6,0.4,1.7,0.8,3.2,1.2c1.6,0.4,3.2,0.6,5,0.8c1.8,0.2,3.4,0.3,4.9,0.4c1.5,0.1,2.6,0.1,3.3,0.1
			c0.4,0,0.7,0.2,0.9,0.6c0.2,0.4,0.3,0.8,0.3,1.2c0,0.5-0.1,0.9-0.3,1c-0.2,0.1-0.7,0.2-1.4,0.2c-0.8,0-2.1,0-3.8-0.1
			c-1.8-0.1-3.6-0.2-5.5-0.2c-1.9,0-3.7-0.1-5.3-0.2c-1.6-0.1-2.7-0.1-3.2-0.1h-23.2c-0.4,0-1.3,0-2.5-0.1c-1.3,0-2.3-0.1-3-0.2
			c-0.5-0.1-1-0.2-1.3-0.2c-0.3,0-0.5-0.3-0.5-0.9c0-0.3,0.1-0.6,0.3-0.8c0.2-0.2,0.7-0.4,1.5-0.7c1-0.2,2.2-0.3,3.6-0.3
			c1.5,0,2.9-0.2,4.3-0.3c1.4-0.2,2.7-0.5,3.7-1C693.3,458.6,693.9,457.8,694.1,456.6z M709.4,360.4v48.8c0,0.5,0.2,1,0.5,1.3
			c0.3,0.4,0.6,0.5,1,0.5h3c1.7,0,3.5-0.1,5.4-0.2c1.9-0.1,3.4-0.3,4.6-0.6c2.8-0.7,5.4-2.1,7.9-4.3c2.5-2.2,4.5-4.4,6.1-6.6
			c0.9-1.1,1.6-2.2,2.3-3.3c0.6-1.1,1.2-2.1,1.7-3.2c0.5-1.1,0.8-2.3,1.1-3.7c0.3-1.4,0.5-3.1,0.6-5c0-2.7-0.2-5.1-0.6-7.2
			c-0.4-2.1-1.1-4-1.9-5.7c-0.8-1.7-1.9-3.3-3.2-4.7c-1.3-1.4-2.9-2.9-4.7-4.3c-1.2-0.9-2.7-1.7-4.5-2.4c-1.8-0.7-3.5-1.2-5.2-1.4
			c-0.4-0.1-1.2-0.2-2.2-0.2c-1,0-1.9-0.1-2.6-0.1c-0.7,0-1.6,0-2.6,0.1c-1,0-2.1,0.1-3,0.3c-1,0.1-1.8,0.4-2.5,0.7
			C709.7,359.4,709.4,359.9,709.4,360.4z"/>
		<path class="st0" d="M834.7,458.2c0.6,0.4,1.3,0.7,2.1,1c0.8,0.3,1.8,0.6,3.1,0.8c1.3,0.2,2.9,0.4,4.9,0.5
			c1.9,0.1,4.4,0.2,7.3,0.2c0.7,0,1,0.5,1,1.4c0,0.9-0.4,1.4-1.2,1.6c-0.8,0.2-1.6,0.3-2.4,0.3c-4,0-8-0.1-11.9-0.3
			c-4-0.2-7.3-0.3-10.1-0.3c-2,0-3.7,0-5.1,0.1c-1.4,0-2.8,0.1-4.3,0.1c-1.5,0-3.2,0-5.3,0.1c-2,0-4.7,0.1-8,0.1
			c-1.4,0-2.1-0.4-2.1-1.3c0-0.6,0.2-1.1,0.6-1.3c0.2-0.1,0.5-0.2,1.1-0.3c0.6-0.1,1.2-0.2,1.8-0.3c0.6,0,1.3-0.1,1.8-0.1
			c0.6,0,1-0.1,1.2-0.1c2-0.2,3.8-0.4,5.4-0.6c1.6-0.2,3.1-1.2,4.4-2.8l1.2-33c0-1.2-0.3-2.9-1-5c-0.7-2.1-1.7-4.3-3.1-6.6
			L793,373.1c-1.3-2.3-2.7-4.5-4.3-6.7c-1.6-2.2-3.6-4-5.9-5.5c-0.6-0.3-1.5-0.7-2.8-1.1c-1.3-0.3-2.5-0.7-3.8-1.2
			c-1.3-0.4-2.4-0.9-3.4-1.4c-1-0.5-1.5-1-1.5-1.6c0-0.3,0.4-0.6,1.2-0.8c0.8-0.2,1.4-0.3,1.8-0.3h1c1,0,2,0.1,2.9,0.2
			c0.9,0.1,2.1,0.3,3.4,0.5c2.5,0.4,5.1,0.5,7.7,0.6c2.6,0,5.2,0.1,7.8,0.1c3.5,0,7.1-0.2,10.9-0.7c3.8-0.4,7.5-0.7,11.2-0.7
			c0.5,0,1.2,0,2,0.1c0.8,0.1,1.2,0.5,1.2,1.2c0,1.1-0.5,1.8-1.4,1.8c-1.6,0.3-3.2,0.4-5.1,0.4c-1.3,0-2.5,0.1-3.7,0.3
			c-1.2,0.2-2.2,0.5-3.1,1.1c-0.9,0.6-1.6,1.4-2.1,2.4c-0.5,1.1-0.8,2.4-0.8,4.1c0,0.5,0.1,1.2,0.5,2c0.3,0.8,0.7,1.6,1.1,2.4
			c0.4,0.8,0.9,1.6,1.3,2.3c0.4,0.7,0.8,1.3,1,1.6l21.1,33.5c0.3,0.4,0.8,0.9,1.2,1.3c0.5,0.4,0.9,0.7,1.2,0.7
			c0.4,0,0.9-0.2,1.4-0.6c0.5-0.4,0.9-0.9,1.4-1.5l15.8-29.3c1-2,1.7-4.1,2.1-6.4c0.4-2.2,0.6-4.1,0.6-5.6c0-1.2-0.2-2.2-0.6-3
			c-0.4-0.7-1.1-1.6-2.1-2.7c-1-0.9-1.9-1.5-2.9-1.9c-1-0.4-2-0.7-3-0.8c-1-0.1-2.1-0.2-3.1-0.3c-1-0.1-2.1-0.3-3.1-0.5
			c-1-0.3-1.4-0.8-1.4-1.7c0-0.4,0.2-0.8,0.6-1.2c0.4-0.3,0.9-0.5,1.3-0.5c4,0,7.4,0.1,10.3,0.4c2.9,0.3,6,0.4,9.3,0.4
			c2,0,3.6,0,4.9-0.1c1.3-0.1,2.5-0.2,3.9-0.3c1.3-0.1,2.9-0.2,4.7-0.3c1.8-0.1,4.3-0.1,7.5-0.1c0.7,0,1.3,0,1.8,0.1
			c0.5,0.1,0.7,0.3,0.7,0.7c0,0.7-0.5,1.3-1.6,1.8c-1,0.5-2.2,0.9-3.6,1.2c-1.3,0.4-2.7,0.6-4,0.9c-1.3,0.2-2.3,0.5-2.8,0.7
			c-2.5,1.4-4.6,3-6.4,4.7c-1.7,1.8-3.3,3.7-4.8,6c-1.5,2.2-2.9,4.8-4.3,7.6c-1.4,2.8-3.1,6.1-5.1,9.8c-2.2,4.4-4.6,8.7-7.1,12.8
			c-2.5,4.2-4.6,8.6-6.3,13.2c-0.2,0.6-0.3,1.6-0.5,3c-0.2,1.4-0.3,2.8-0.5,4.3c-0.1,1.5-0.2,2.9-0.3,4.3c0,1.4-0.1,2.3-0.1,2.8
			L834.7,458.2z"/>
	</g>
</g>
</svg>
