<?xml version="1.0" encoding="utf-8"?>
<!-- Generator: Adobe Illustrator 22.0.0, SVG Export Plug-In . SVG Version: 6.00 Build 0)  -->
<svg version="1.1" id="Layer_1" xmlns="http://www.w3.org/2000/svg" xmlns:xlink="http://www.w3.org/1999/xlink" x="0px" y="0px"
	 viewBox="0 0 1080 1080" style="enable-background:new 0 0 1080 1080;" xml:space="preserve">
<style type="text/css">
	.st0{fill:#1F9D48;}
	.st1{fill:#EA2625;}
	.st2{fill:#FCCF0C;}
</style>
<g>
	<g>
		<path class="st0" d="M538.1,465.7c1.1-1.2,2.3-1.3,3.5-0.3s1.3,2.1,0.2,3.3c-2.4,3-5.2,6.2-8.4,9.7c-3.2,3.5-6.5,6.8-10,10
			c-3.5,3.2-7.1,6.2-10.8,9c-3.7,2.7-7.1,4.8-10.3,6.1c-7.4,3-13,2.8-16.9-0.5c-3.8-3.3-5.2-9.5-4.2-18.5c0.6-5.5,1.7-10.6,3.3-15.2
			c1.6-4.7,3.1-8.5,4.6-11.4c1-2,2.6-3.2,4.7-3.8c2.2-0.5,4.2-0.5,6.2,0c1.9,0.5,3.6,1.5,4.8,3c1.3,1.5,1.5,3.1,0.7,5
			c-0.8,1.8-1.6,3.9-2.6,6.3c-0.9,2.4-1.9,4.8-2.8,7.3c-1,2.5-1.9,4.9-2.8,7.3c-0.9,2.4-1.6,4.5-2,6.4c-0.3,1.1-0.6,2.4-0.9,3.9
			c-0.3,1.5-0.3,2.8-0.2,4c0.2,1.2,0.6,2,1.4,2.6c0.8,0.6,2.1,0.5,3.9-0.3c3-1.2,6.3-3.1,9.8-5.8c3.5-2.7,7.1-5.6,10.6-9
			c3.5-3.3,6.9-6.7,10-10C533.2,471.3,535.9,468.3,538.1,465.7z M508.5,441.1c1.2,1.5,1.6,3.2,1.4,5c-0.2,1.9-1.1,3.4-2.5,4.6
			c-1.5,1.2-3.1,1.7-4.9,1.5c-1.8-0.2-3.3-1-4.4-2.5c-1.2-1.5-1.6-3.1-1.4-5c0.2-1.9,1.1-3.4,2.5-4.6c1.5-1.2,3.1-1.7,4.9-1.5
			C505.8,438.8,507.3,439.7,508.5,441.1z"/>
		<path class="st0" d="M554.8,451.8c-0.5-2.2-1.8-2.6-3.7-1.3c-2,1.3-3,3.7-3,7.1c0.1,5.7,1,11.1,2.8,16.1c1.7,5,3.3,10.7,4.6,17.2
			c6.6-1.3,13.1-3.6,19.2-6.7c6.2-3.1,11.6-7.3,16.2-12.5c1.1-1.2,2.3-1.3,3.5-0.3c1.2,1,1.3,2.1,0.2,3.3
			c-4.6,5.4-10.4,9.9-17.4,13.5c-7,3.6-13.9,6.1-20.8,7.4c0.6,4.8,0.3,9.3-1,13.5c-1.2,4.2-3.1,7.8-5.5,10.8
			c-2.5,3.1-5.5,5.4-9.1,6.9c-3.6,1.5-7.5,2-11.6,1.6c-4.9-0.6-8.5-2.3-10.7-5.4c-2.2-3-2.9-6.7-2.1-11c0.5-3,1.6-5.5,3.3-7.5
			c1.7-2,3.6-3.7,5.7-4.9c2.1-1.3,4.6-2.3,7.2-3.2c2.7-0.8,5.5-1.6,8.4-2.2c-0.5-4.4-1.1-8.6-1.9-12.5c-0.8-3.9-1.6-7.8-2.3-11.7
			c-0.4-1.9-0.5-4.3-0.4-6.9c0.1-2.7,0.5-5.2,1.3-7.7c0.8-2.5,1.9-4.7,3.3-6.6c1.5-1.9,3.5-3.2,6-3.9c2.6-0.7,5.2-0.5,7.8,0.5
			c2.7,1,4,2.9,4.1,5.8c0,1.5-0.6,2.3-2,2.4C555.9,453.3,555.1,452.8,554.8,451.8z M541.5,498.5c-3.1,0.6-6.3,1.4-9.5,2.5
			c-3.2,1.1-5.8,2.9-7.8,5.6c-1.4,1.9-2.3,3.9-2.8,5.8c-0.5,1.9-0.6,3.7-0.2,5.3c0.4,1.6,1.2,2.9,2.4,3.9c1.2,1,2.9,1.4,5,1.3
			c2.5-0.1,4.6-1,6.3-2.6c1.7-1.6,3-3.6,4-6c0.9-2.4,1.6-4.9,2-7.7C541.4,503.9,541.6,501.2,541.5,498.5z"/>
	</g>
	<g>
		<path class="st1" d="M253.6,367.6c-3.1-0.6-3-0.8-6.1-1.4c-3.1-0.6-3.1-0.5-6.1-1.1c-1.4-0.3-2.4-1.6-2.1-3c0.5-2.8,1-2.7,1.6-5.6
			c0.5-2.8,0.5-2.8,1.1-5.7c0.5-2.8,0.2-2.9,0.8-5.8c0.5-2.8,0.5-2.8,1.1-5.7c0.6-2.9,0.9-2.9,1.4-5.7c0.6-2.9,0.4-3,1-5.8
			c0.6-2.9,0.6-2.9,1.1-5.7c0.6-2.9,0.3-3,0.8-5.8c0.6-2.9,0.7-2.9,1.3-5.7c0.6-2.9,0.7-2.9,1.3-5.7c0.6-2.9,0.4-3,1-5.8
			c0.6-2.9,0.6-2.9,1.1-5.7c0.6-2.9,0.7-2.9,1.3-5.7c0.6-2.9,0.7-2.9,1.3-5.9c0.5-2.8,0.5-2.8,1.1-5.6c0.6-2.9,0.3-3,0.8-5.8
			c0.6-2.9,0.6-2.9,1.2-5.9c0.5-2.8,0.5-2.8,1.1-5.7c0.2-1.2,1.5-2.1,2.9-1.8c2.4,0.5,2.5,0.3,5.1,0.9c2.4,0.5,2.4,0.8,4.8,1.3
			c2.4,0.5,2.5,0.2,5.1,0.7c2.4,0.5,2.4,0.8,4.8,1.3c1.4,0.3,2.3,1.4,2.3,2.7c-0.1,3,0.1,2.9,0.1,6c-0.3,3-0.2,2.9-0.2,5.9
			c-0.3,3-0.3,3-0.4,6c-0.1,2.9-0.1,2.9-0.2,5.9c0.1,2.9-0.3,3-0.4,5.9c-0.3,3-0.3,3-0.4,6c-0.1,2.9,0.2,2.9,0,5.9
			c-0.1,2.9-0.1,2.9-0.2,5.9c-0.1,3-0.4,3-0.5,5.9c-0.1,3,0,3.1-0.2,6.1c-0.1,3,0.2,2.9-0.1,5.9c-0.1,3-0.1,3-0.2,5.9
			c-0.1,1.4,0.3,1.5,0.8,0.2c1-2.7,1.2-2.7,2.2-5.5c0.8-2.7,0.7-2.8,1.7-5.6c1-2.9,0.9-2.9,1.9-5.7c1-2.7,1-2.7,1.9-5.6
			c1-2.7,1-2.7,2-5.5c0.9-2.9,0.9-2.9,1.8-5.8c1-2.7,1.3-2.6,2.2-5.5c1-2.7,1.2-2.7,2.2-5.5c0.8-2.7,0.7-2.9,1.6-5.6
			c1-2.9,1.2-2.8,2.2-5.5c1-2.9,1-2.9,2.1-5.7c1-2.7,0.9-2.9,1.9-5.6c0.4-1.2,1.8-2,3.2-1.8c2.4,0.5,2.5,0.2,5.1,0.7
			c2.4,0.5,2.4,0.6,4.9,1.1s2.4,0.5,5,1c2.4,0.5,2.4,0.6,4.9,1.1c1.4,0.3,2.2,1.6,2,2.8c-0.6,2.9-0.7,2.9-1.3,5.7
			c-0.6,2.9-0.6,2.9-1.1,5.7c-0.6,2.9-0.7,2.9-1.3,5.7c-0.6,2.9-0.1,3-0.7,5.8c-0.6,2.9-0.6,2.9-1.1,5.7c-0.6,2.9-0.9,2.9-1.4,5.7
			c-0.6,2.9-0.7,2.9-1.3,5.7c-0.6,2.9-0.1,3-0.7,5.8c-0.6,2.9-0.6,2.9-1.1,5.9c-0.5,2.8-0.5,2.8-1.1,5.7c-0.5,2.8-0.5,2.8-1.1,5.7
			c-0.5,2.8-0.8,2.7-1.4,5.7c-0.5,2.8-0.2,2.9-0.8,5.8c-0.5,2.8-0.5,2.8-1.1,5.7c-0.5,2.8-0.5,2.8-1.1,5.7c-0.5,2.8-0.8,2.7-1.4,5.7
			c-0.6,2.9-0.6,2.9-1.1,5.7c-0.5,2.8-0.5,2.8-1.1,5.7c-0.3,1.4-1.4,2.3-2.8,2c-3.2-0.6-3.2-0.5-6.6-1.2c-3.4-0.7-3.3-0.8-6.7-1.5
			c-1.2-0.2-2.2-1.6-2-3c0.6-2.9,0.6-2.9,1.2-5.9c0.6-2.9,0.6-2.9,1.1-5.9c0.6-2.9,0.6-2.9,1.2-5.9c0.6-2.9,0.9-2.9,1.5-5.8
			c0.6-2.9,0.4-3,1-6.1c0.6-2.9,0.4-3,1-5.9c0.6-2.9,0.6-2.9,1.2-5.9c0.6-2.9,0.9-2.9,1.5-5.8c0.2-1.2,0.1-1.3-0.3-0.1
			c-0.9,2.9-1.2,2.8-2.1,5.7c-1,2.9-1.3,2.8-2.4,5.6c-1,2.9-0.6,2.9-1.6,5.8c-1.1,3-1.3,2.8-2.4,5.6c-1,2.9-1,2.9-2.1,5.9
			c-1,2.7-0.6,2.9-1.6,5.8c-1,2.9-1.2,2.8-2.2,5.7c-1,2.9-1,2.9-2.1,5.7c-0.4,1.4-1.7,2.4-3.1,2.1c-2.6-0.5-2.5-1-5.3-1.5
			c-2.8-0.6-2.8-0.1-5.4-0.6c-2.8-0.6-2.7-0.7-5.3-1.2c-1.4-0.3-2.7-1.7-2.6-2.9c0.1-2.7,0.4-2.8,0.4-5.5c0.1-2.7,0.1-2.9,0.3-5.6
			c0.1-2.7-0.2-2.8-0.2-5.5c0.1-2.7,0.4-2.8,0.4-5.5c0.2-2.7-0.1-2.8,0-5.5c0.1-2.7,0.4-2.8,0.6-5.5c0.1-2.9,0.1-2.9,0.3-5.6
			c0.1-2.7-0.1-2.8,0-5.6c0.1-2.7,0.4-2.7,0.4-5.4c0.1-1.4-0.2-1.3-0.5-0.1c-0.6,3.1-0.6,3.1-1.2,6c-0.6,2.9-1,2.9-1.6,6
			c-0.6,2.9-0.3,3-0.9,6.1c-0.6,2.9-0.6,2.9-1.2,6c-0.6,2.9-0.7,2.9-1.3,5.9c-0.6,3.1-0.6,3.1-1.2,6.2c-0.6,2.9-0.6,2.9-1.2,5.9
			c-0.6,3.1-0.5,3.1-1,6.1C256.1,367,254.8,367.8,253.6,367.6z"/>
		<path class="st1" d="M400,287c-1.3,2.5-1.1,2.5-2.4,5c-1.5,2.6-1.6,2.4-2.9,4.9c-1.3,2.5-1.2,2.7-2.4,5.1
			c-1.3,2.5-1.4,2.5-2.7,4.9c-1.3,2.5-1.3,2.5-2.6,5c-1.3,2.5-1.3,2.5-2.6,5c-1.3,2.5-1.7,2.4-3,4.9c-1.3,2.5-1,2.7-2.3,5.2
			c-1.4,2.5-1.3,2.5-2.6,5c-1.3,2.5-1.3,2.5-2.6,5.1c-1.3,2.5-1.7,2.2-3,4.7c-1.3,2.5-1,2.7-2.3,5.2c-1.3,2.5-1.4,2.5-2.7,4.9
			c-0.7,1.1-1.7,3-1.9,4.3c-0.6,3.1-0.1,3.2-0.7,6.1c-0.6,2.9-1,2.9-1.6,6c-0.6,2.9-0.6,2.9-1.2,5.9s-0.1,3-0.7,6
			c-0.6,3.1-0.8,3.1-1.3,6c-0.2,1.2-1.5,2.1-2.7,1.9c-2.4-0.5-2.5-0.2-4.8-0.6c-2.4-0.5-2.4-1-4.6-1.4c-2.3-0.5-2.4-0.2-4.8-0.6
			c-1.2-0.2-2.2-1.7-2-3c0.6-2.9,0.4-3,1-5.9c0.6-3.1,0.8-3.1,1.3-6c0.6-2.9,0.7-2.9,1.3-5.9c0.6-3.1,0.3-3.2,0.9-6.1
			c0.6-2.9,0.9-2.9,1.5-6c0.2-1.2,0.3-3.3,0.1-4.6c-0.1-2.8,0.1-2.9-0.2-5.7c-0.3-2.8-0.4-2.8-0.7-5.6c-0.2-2.8-0.4-2.8-0.7-5.6
			c-0.2-2.8-0.2-2.8-0.5-5.6c-0.3-2.8-0.3-2.8-0.7-5.6c-0.3-2.8-0.3-2.8-0.5-5.6c-0.2-2.8-0.1-2.9-0.3-5.7c-0.3-2.8-0.1-2.8-0.3-5.5
			c-0.3-2.8-0.6-2.8-0.8-5.6c-0.2-2.8-0.1-2.8-0.3-5.5s-0.2-2.9-0.5-5.7c-0.2-2.8-0.4-2.8-0.6-5.6c-0.3-2.8-0.1-2.8-0.3-5.5
			c-0.1-1.3,0.9-2.4,2.2-2.1c2.4,0.5,2.4,0.5,5,1c2.4,0.5,2.4,0.5,4.9,1c2.6,0.5,2.6,0.7,5,1.2c1.4,0.3,2.4,1.6,2.5,2.9
			c0.2,3.1,0,3.1,0.2,6.2c0.2,2.9,0.4,3,0.6,6.1c0.2,3.1-0.1,3.2,0.1,6.1c0.2,3.1,0.7,3,0.9,6.1c0.2,3.1,0,3.1,0.2,6.2
			c0.2,3.1-0.1,3.2,0.1,6.1c0.2,3.1,0.2,3.1,0.4,6.2c0.1,1.3,0.7,1.4,1.3,0.1c1.3-2.8,1.3-2.8,2.6-5.4c1.3-2.8,1.3-2.8,2.7-5.6
			c1.5-2.8,1.3-2.8,2.8-5.6c1.3-2.8,1.6-2.6,3-5.4c1.3-2.8,1-2.9,2.4-5.6c1.3-2.8,1.5-2.8,2.8-5.6c1.3-2.8,1.3-2.8,2.5-5.5
			c0.7-1.3,2.4-1.8,3.6-1.5c3.4,0.7,3.4,0.5,6.9,1.2c3.4,0.7,3.4,0.7,6.7,1.4C400,284.6,400.7,285.9,400,287z"/>
		<path class="st1" d="M479.4,412.8c-2.4-0.5-2.5-0.3-4.9-0.8c-2.3-0.5-2.3-0.5-4.7-1c-1.2-0.2-2.1-1.5-1.8-2.9
			c0.5-2.6,0.5-2.6,1-5.3c0.5-2.8,0.2-2.9,0.8-5.5c0.5-2.6,1-2.5,1.5-5.3c0.5-2.6,0.5-2.6,1-5.3c0.5-2.6,0.2-2.7,0.8-5.5
			c0.5-2.6,0.5-2.6,1-5.3c0.5-2.8,0.8-2.7,1.4-5.4c0.3-1.4-0.8-2.3-2-1.7c-2.5,0.8-2.4,1-4.9,1.7c-2.6,0.9-2.4,1.1-5,2.1
			c-2.5,0.8-2.7,0.6-5.2,1.4c-1.2,0.4-2.4,1.9-2.7,3.2c-0.5,2.8-0.7,2.8-1.2,5.5c-0.5,2.6-0.4,2.7-0.9,5.5c-0.5,2.6-0.4,2.7-0.9,5.5
			c-0.5,2.6-0.5,2.6-1.1,5.4c-0.5,2.8-0.5,2.8-1.1,5.4c-0.3,1.4-1.7,2.4-3,2.1c-2.3-0.5-2.3-0.6-4.7-1.1c-2.3-0.5-2.3-0.6-4.7-1.1
			c-2.3-0.5-2.3-0.1-4.6-0.6c-1.4-0.3-2.2-1.7-1.9-3.1c0.5-2.8,0.5-2.8,1.1-5.7c0.5-2.8,0.4-2.8,1-5.8c0.5-2.8,0.7-2.8,1.3-5.7
			c0.5-2.8,0.4-2.8,1-5.8c0.6-2.9,0.6-2.9,1.1-5.7c0.6-2.9,0.6-2.9,1.1-5.7c0.6-2.9,0.7-2.9,1.3-5.7c0.6-2.9,0.6-2.9,1.1-5.7
			c0.6-2.9,0.7-2.9,1.3-5.7c0.6-2.9,0.6-2.9,1.1-5.7c0.6-2.9,0.7-2.9,1.3-5.7c0.6-2.9,0.1-3,0.7-5.8c0.6-2.9,0.6-2.9,1.1-5.7
			c0.6-2.9,0.9-2.9,1.4-5.7c0.6-2.9,0.7-2.9,1.3-5.9c0.5-2.8,0.1-2.9,0.7-5.8c0.5-2.8,0.5-2.8,1.1-5.7c0.5-2.8,0.5-2.8,1.1-5.7
			c0.2-1.2,1.7-2.4,3.1-2.1c2.3,0.5,2.2,0.8,4.5,1.2c2.4,0.5,2.5,0.2,4.8,0.6c2.4,0.5,2.4,0.6,4.7,1.1c1.2,0.2,2.4,1.8,2.1,3
			c-0.5,2.8-1,2.7-1.5,5.5c-0.5,2.8-0.4,2.8-0.9,5.6c-0.5,2.6-0.5,2.6-1.1,5.4c-0.5,2.8-0.4,2.8-0.9,5.6c-0.5,2.8-0.4,2.8-0.9,5.6
			c-0.5,2.8-0.9,2.7-1.4,5.5c-0.5,2.6-0.2,2.7-0.8,5.5c-0.5,2.8-0.7,2.8-1.2,5.5c-0.5,2.8-0.5,2.8-1.1,5.6c-0.2,1.2,0.3,1.7,1.7,1.3
			c2.5-0.8,2.6-0.4,5.2-1.4c2.5-0.8,2.4-1.1,5-1.9c2.4-1,2.4-1.1,5-1.9c1.2-0.4,2.2-1.6,2.5-3c0.5-2.8,1-2.7,1.5-5.5
			c0.5-2.8,0.1-2.9,0.7-5.8c0.5-2.8,0.7-2.8,1.2-5.5c0.5-2.8,0.9-2.7,1.4-5.5c0.6-2.9,0.3-3,0.8-5.8c0.5-2.8,0.8-2.7,1.4-5.5
			c0.6-2.9,0.7-2.9,1.3-5.7c0.2-1.2,1.2-2.3,2.5-2.1c2.4,0.5,2.4,0.6,4.7,1.1c2.4,0.5,2.4,0.5,4.9,1c2.4,0.5,2.5,0.2,4.8,0.6
			c1.4,0.3,1.9,1.8,1.6,3.1c-0.6,2.9-0.1,3-0.7,5.8c-0.6,2.9-0.7,2.9-1.3,5.7c-0.6,2.9-0.4,3-1,5.8c-0.6,2.9-0.7,2.9-1.3,5.7
			c-0.6,2.9-0.7,2.9-1.3,5.7c-0.6,2.9-0.3,3-0.8,6c-0.5,2.8-0.7,2.8-1.3,5.7c-0.5,2.8-0.4,2.8-1,5.8c-0.5,2.8-0.8,2.7-1.4,5.7
			c-0.5,2.8-0.7,2.8-1.3,5.7c-0.5,2.8-0.4,2.8-1,5.8c-0.5,2.8-0.7,2.8-1.3,5.7c-0.5,2.8-0.2,2.9-0.8,5.8c-0.5,2.8-0.5,2.8-1.1,5.7
			c-0.5,2.8-0.9,2.7-1.4,5.7c-0.5,2.8-0.2,2.9-0.8,5.8c-0.6,2.9-0.6,2.9-1.1,5.7c-0.6,2.9-0.7,2.9-1.3,5.7c-0.3,1.4-1.4,2.1-2.7,1.9
			C481.8,413.3,481.8,413.3,479.4,412.8z"/>
		<path class="st1" d="M517.5,400.3c-0.5,2.8-0.8,2.7-1.4,5.7c-0.6,2.9-0.3,3-0.8,5.8c-0.5,2.8-0.7,2.8-1.3,5.7
			c-0.3,1.4-1.7,2.2-2.9,2c-2.4-0.5-2.5-0.3-4.8-0.8c-2.3-0.5-2.2-0.8-4.7-1.3c-2.3-0.6-2.3-0.5-4.7-1c-1.2-0.2-2.1-1.4-1.8-2.8
			c0.5-2.8,0.7-2.8,1.3-5.7c0.5-2.8,0.4-2.8,1-5.8c0.5-2.8,0.5-2.8,1.1-5.7c0.5-2.8,0.4-2.8,1-5.8c0.6-2.9,0.6-2.9,1.1-5.7
			c0.6-2.9,0.6-2.9,1.1-5.7c0.6-2.9,0.7-2.9,1.3-5.7c0.6-2.9,0.7-2.9,1.3-5.7c0.6-2.9,0.3-3,0.8-5.8c0.6-2.9,0.7-2.9,1.3-5.7
			c0.6-2.9,0.6-2.9,1.1-5.7c0.6-2.9,0.4-3,1-5.8c0.6-2.9,0.7-2.9,1.3-5.7c0.6-2.9,0.4-3,1-5.9c0.5-2.8,0.5-2.8,1.1-5.6
			c0.6-2.9,0.6-2.9,1.1-5.7c0.6-2.9,0.7-2.9,1.3-5.9c0.5-2.8,0.5-2.8,1.1-5.7c0.2-1.2,1.5-2,2.7-1.7c2.4,0.5,2.5,0.3,4.8,0.8
			c2.3,0.5,2.3,0.6,4.7,1.1c2.3,0.5,2.4,0.2,4.8,0.6c1.2,0.2,2.2,1.7,2,3c-0.6,2.9-0.9,2.9-1.4,5.7c-0.6,2.9-0.7,2.9-1.3,5.7
			c-0.6,2.9,0,3.1-0.5,5.9c-0.6,2.9-0.6,2.9-1.1,5.7c-0.6,2.9-0.6,2.9-1.1,5.7c-0.6,2.9-0.6,2.9-1.1,5.7c-0.6,2.9-0.9,2.9-1.4,5.7
			c-0.6,2.9-0.3,3-0.8,5.8c-0.6,2.9-0.7,2.9-1.3,5.9c-0.5,2.8-0.4,2.8-1,5.8c-0.5,2.8-1,2.7-1.6,5.6c-0.5,2.8-0.4,2.8-1,5.8
			c-0.5,2.8-0.5,2.8-1.1,5.7c-0.5,2.8-0.4,2.8-1,5.8C518,397.3,518.1,397.4,517.5,400.3z"/>
		<path class="st1" d="M537.9,422.9c-1.7-1-3.2-2.1-4.4-3.3c-1.3-1.2-2.3-2.9-3.3-4.4c-1-1.5-2.1-3-2.7-4.7c-0.6-1.7-0.9-3.6-1-5.4
			c-0.3-1.7-0.1-3.6,0-5.5c0.2-1.7-0.1-3.6,0.3-5.4c0.5-2.8,1-2.7,1.5-5.3c0.3-1.4,1.2-2,2.6-1.7c3.2,0.6,3.3,0.2,6.7,0.9
			c3.4,0.7,3.3,1,6.7,1.7c1.2,0.2,2,1.4,1.7,2.8c-0.6,3.3-0.3,3.3-0.9,6.4c-0.5,2.6-0.7,5,0.5,6.5c1.3,1.7,3.3,2.4,5.8,2.9
			c2.6,0.5,4.7,0.3,6.2-0.8c1.6-1,2.6-2.9,3.1-5.5c0.4-1.9,0.6-3.8,0.3-5.6c-0.3-1.8-0.9-3.7-1.6-5.5c-0.6-1.7-1.8-3.1-2.9-4.8
			c-0.9-1.6-1.9-3.3-2.8-4.9c-1.1-1.5-2.5-2.9-3.6-4.4c-1.1-1.5-2.1-3.2-3.2-4.8c-1-1.5-1.9-3.1-2.9-4.8c-1-1.6-2.1-3.2-2.9-4.9
			c-0.8-1.6-1.4-3.5-1.8-5.4c-0.6-1.7-1.4-3.5-1.6-5.5c-0.3-1.8-0.4-3.8-0.3-5.7c0-1.8,0.4-3.6,0.8-5.6c0.4-1.9,0.8-3.5,1.5-5.2
			c0.5-1.8,1.5-3.4,2.2-5c0.9-1.6,1.9-3.2,3.1-4.4c1.1-1.4,2.4-2.7,3.9-3.7c1.5-1,3.1-1.8,4.8-2.4c1.6-0.7,3.4-1.1,5.2-1.4
			c1.6-0.3,3.6-0.4,5.5-0.4c1.7,0,3.4,0.5,5.2,0.9c2.1,0.4,4.1,1,5.8,1.8c2.1,0.7,4,1.4,5.5,2.6c1.8,1.2,3.3,2.6,4.6,4.1
			c1.4,1.6,2.4,3.4,3.2,5.3c0.9,1.8,1.7,3.7,1.9,5.9c0.4,1.9,0.5,4.1,0.4,6.2c-0.1,1.9,0,4-0.4,6.2c-0.2,1.2-0.4,1.2-0.6,2.4
			s-1.7,2.2-2.9,2c-3.4-0.7-3.3-0.8-6.5-1.5c-3.4-0.7-3.4-0.7-6.7-1.4c-1.2-0.2-1.9-1.5-1.7-2.8c0.3-1.7,0.2-1.7,0.5-3.6
			c0.5-2.5,0.4-4.7-0.5-6.4c-1.1-1.7-3-2.5-5.6-3.1c-2.6-0.5-4.6-0.3-6.1,0.9c-1.7,1.3-3,3-3.4,5.4c-0.4,2-0.5,3.9-0.2,5.8
			c0.2,2,1.2,3.6,2,5.4c0.8,1.6,1.6,3.2,2.7,5c1,1.5,2.1,3,3.2,4.7c1,1.5,2.1,2.8,3.4,4.5c1,1.5,1.9,3.1,3,4.8
			c1,1.5,2.3,2.9,3.4,4.5c1,1.6,1.7,3.2,2.7,5c0.8,1.6,1.4,3.5,2,5.2c0.6,1.9,0.7,3.8,1,5.7c0.1,1.8,0.4,3.8,0.3,5.7
			c0,1.8-0.2,3.7-0.6,5.7c-0.4,1.9-0.7,3.6-1.2,5.2c-0.7,1.8-1.3,3.6-2.3,5c-0.8,1.8-2.2,3.1-3.2,4.3c-1.2,1.4-2.5,2.9-3.9,3.9
			c-1.5,1-3.2,1.6-4.9,2.2c-1.7,0.6-3.4,1.1-5.2,1.4c-1.8,0.3-3.6,0.4-5.5,0.4c-1.7-0.2-3.5-0.7-5.3-1.1c-1.8-0.4-3.5-0.6-5.2-1.2
			C541.1,424.4,539.3,423.7,537.9,422.9z"/>
		<path class="st1" d="M612.7,345.7c-3.2-0.6-3.2-0.5-6.6-1.2c-3.4-0.7-3.4-0.5-6.6-1.2c-1.4-0.3-2.2-1.9-1.9-3.1
			c0.6-3.3,0.5-3.3,1.1-6.5c0.6-3.3,0.8-3.2,1.4-6.5c0.2-1.2,1.6-2.3,2.9-2c2.7,0.6,2.8,0.4,5.5,1s2.7,1,5.4,1.6
			c2.8,0.6,2.8,0.2,5.7,0.8c2.8,0.6,2.8,0.6,5.5,1.1c2.7,0.6,2.8,0.4,5.5,1c2.7,0.6,2.7,1,5.4,1.6c2.8,0.6,2.8,0.2,5.6,0.8
			c2.9,0.6,2.9,0.7,5.6,1.3c2.7,0.6,2.7,0.9,5.4,1.4c1.2,0.2,2.4,1.3,2.2,2.5c-0.6,3.3-1.1,3.2-1.7,6.4c-0.6,3.3-0.8,3.2-1.4,6.5
			c-0.2,1.2-1.2,2.3-2.5,2.1c-3.2-0.6-3.2-0.8-6.5-1.5c-3.3-0.8-3.3-0.8-6.5-1.5c-1.4-0.3-2.7,0.7-2.9,2c-0.6,2.9-0.7,2.9-1.3,5.7
			c-0.5,2.8-0.4,2.8-1,5.8c-0.5,2.8-0.4,2.8-1,5.8c-0.5,2.8-0.5,2.8-1.1,5.7c-0.5,2.8-0.5,2.8-1.1,5.6c-0.6,2.9-0.4,3-1,5.8
			c-0.6,2.9-0.7,2.9-1.3,5.7c-0.5,2.8-0.7,2.8-1.3,5.7c-0.5,2.8-0.2,2.8-0.8,5.8c-0.5,2.8-0.7,2.8-1.3,5.7c-0.5,2.8-0.7,2.8-1.3,5.7
			c-0.5,2.8-0.4,2.8-0.9,5.6c-0.6,2.9-0.7,2.9-1.3,5.7c-0.6,2.9-0.3,3-0.8,5.8c-0.6,2.9-0.7,2.9-1.3,5.7c-0.2,1.2-1.7,2.2-2.9,2
			c-2.3-0.5-2.3-0.5-4.7-1c-2.3-0.5-2.3-0.6-4.7-1.1c-2.3-0.5-2.3-0.6-4.6-1.1c-1.4-0.3-2.1-1.4-1.9-2.6c0.5-2.8,0.7-2.8,1.3-5.7
			c0.5-2.8,0.1-2.9,0.7-5.8c0.5-2.8,0.7-2.8,1.2-5.5c0.6-2.9,0.9-2.9,1.4-5.7c0.6-2.9,0.6-2.9,1.1-5.7c0.6-2.9,0.1-3,0.7-5.8
			c0.5-2.8,0.5-2.8,1.1-5.7c0.5-2.8,0.5-2.8,1.1-5.7c0.5-2.8,0.5-2.8,1.1-5.7c0.5-2.8,0.9-2.7,1.4-5.5c0.6-2.9,0.3-3,0.8-5.8
			c0.6-2.9,0.6-2.9,1.1-5.7c0.6-2.9,0.6-2.9,1.1-5.7c0.5-2.8,0.8-2.7,1.4-5.7c0.5-2.8,0.5-2.8,1.1-5.7
			C614.9,347.2,614.1,345.9,612.7,345.7z"/>
		<path class="st1" d="M666.1,450.6c-1.8-0.4-3.4-1.2-5-1.8c-1.8-0.7-3.6-1.2-5-2c-1.7-1-3.2-2.1-4.6-3.2c-1.3-1.2-2.5-2.6-3.6-4.1
			c-1-1.5-1.4-3.3-2.2-5.1c-0.5-1.7-1.3-3.3-1.5-5.3c-0.3-1.7-0.3-3.6-0.2-5.5c0-1.8,0.4-3.5,0.7-5.3c0.5-2.8,0.5-2.8,1.1-5.6
			c0.5-2.6,0.7-2.6,1.2-5.4c0.5-2.6,0.4-2.7,0.9-5.5c0.5-2.6,0.4-2.7,0.9-5.5c0.5-2.8,0.5-2.8,1.1-5.4c0.5-2.8,0.5-2.8,1.1-5.4
			c0.5-2.8,0.4-2.8,0.9-5.6c0.5-2.6,0.8-2.6,1.4-5.4c0.5-2.6,0.5-2.6,1.1-5.4c0.5-2.8,0.4-2.8,0.9-5.5c0.4-1.9,0.9-3.7,1.5-5.3
			c0.7-1.8,1.5-3.4,2.4-5c0.9-1.6,1.9-3.2,3.1-4.5c1.2-1.2,2.8-2.3,4.3-3.3c1.5-1,3-2.1,4.7-2.8c1.7-0.5,3.5-0.8,5.4-1
			c1.6-0.3,3.6-0.4,5.3-0.4c1.9,0.2,3.5,0.6,5.4,0.9c2,0.4,3.6,0.9,5.3,1.4c1.8,0.7,3.3,1.6,4.9,2.4c1.6,1,3.1,1.9,4.5,3.2
			c1.3,1.2,2.3,2.7,3.3,4.2c1.1,1.5,2.3,2.9,2.9,4.6c0.6,1.7,1,3.6,1.3,5.4c0.3,1.7,0.1,3.6-0.1,5.5c0,1.8-0.4,3.6-0.7,5.5
			c-0.5,2.6,0.1,2.8-0.4,5.5s-0.5,2.8-1.1,5.4c-0.5,2.8-0.5,2.8-1.1,5.4c-0.5,2.8-0.5,2.8-1.1,5.4c-0.5,2.8-0.9,2.7-1.4,5.5
			c-0.5,2.6-0.2,2.7-0.8,5.5c-0.5,2.6-0.7,2.6-1.2,5.4c-0.5,2.8-0.4,2.8-0.9,5.5c-0.5,2.8-1,2.7-1.5,5.3c-0.5,2.8-0.4,2.8-0.9,5.6
			c-0.4,1.9-0.9,3.5-1.5,5.2c-0.5,1.8-1.2,3.6-2.1,5.1c-1,1.7-1.9,3.3-3.1,4.5c-1.4,1.3-2.9,2.5-4.5,3.4c-1.5,1-2.9,2-4.6,2.6
			c-1.7,0.6-3.5,0.9-5.5,1.2c-1.6,0.2-3.5,0.3-5.4,0.2C669.8,451.2,668.1,451,666.1,450.6z M669.6,432.8c2.6,0.5,4.8,0,6.4-1.1
			c1.6-1.1,2.8-2.8,3.3-5.5c0.5-2.8,0.4-2.8,0.9-5.6c0.5-2.8,0.5-2.8,1.1-5.7c0.5-2.8,0.5-2.8,1.1-5.6c0.5-2.8,0.7-2.8,1.3-5.7
			c0.5-2.8,0.5-2.8,1.1-5.6c0.5-2.8,0.7-2.8,1.3-5.7c0.5-2.8,0.5-2.8,1.1-5.6c0.5-2.8,0.7-2.8,1.2-5.5c0.6-2.9,0.1-3,0.7-5.8
			c0.5-2.8,0.5-2.8,1.1-5.6c0.5-2.6,0.5-4.9-0.6-6.6c-1.1-1.7-3.1-3-5.7-3.6c-2.4-0.5-4.5,0.2-6.1,1.3c-1.7,1.3-3.1,2.9-3.6,5.6
			c-0.5,2.8-0.4,2.8-0.9,5.6c-0.5,2.8-0.7,2.8-1.2,5.5c-0.6,2.9-0.4,3-1,5.8c-0.5,2.8-0.5,2.8-1.1,5.6c-0.6,2.9-0.4,3-1,5.8
			c-0.5,2.8-0.5,2.8-1.1,5.6c-0.5,2.8-0.5,2.8-1.1,5.6c-0.6,2.9-0.7,2.9-1.3,5.7c-0.5,2.8-0.7,2.8-1.3,5.7c-0.5,2.8-0.2,2.9-0.8,5.6
			c-0.5,2.6-0.3,4.8,0.8,6.4C665.3,431.1,667.1,432.3,669.6,432.8z"/>
		<path class="st1" d="M753.6,442.4c-0.5,2.8,0.6,10.1,0.1,12.7c0.1,2.9,1.6,8.1,1.1,10.7c-0.3,1.4-1,2.5-2.2,2.3
			c-2.4-0.5-3-1.1-5.4-1.6c-2.3-0.5-2.4,0-4.8-0.5c-2.3-0.5-2.3-0.6-4.7-1.1c-1.2-0.2-2.4-1.6-2.1-3c0.5-2.3,0-2.4,0.4-4.7
			c0.4-2.2,0.3-4.6,0.7-6.9c0.5-7.3-0.6-17.2-0.2-21.1c0.6-6.3-0.3-7.3-1.8-7c-3.1,1.2-2.2,0.8-5.3,2c-1.3,0.4-2.4,1.8-2.7,3.2
			c-0.5,2.6-0.7,2.6-1.2,5.2c-0.5,2.6-0.4,2.7-0.9,5.3c-0.5,2.6-0.5,2.6-1,5.3c-0.5,2.6-0.5,2.6-1,5.3c-0.5,2.6-0.4,2.7-0.9,5.3
			c-0.5,2.6-0.5,2.6-1,5.3c-0.3,1.4-1.7,2.2-3.1,2c-2.3-0.5-2.3-0.6-4.7-1.1c-2.3-0.5-2.4-0.1-4.6-0.6c-2.4-0.5-2.4-0.6-4.7-1.1
			c-1.4-0.3-2.1-1.5-1.8-2.9c0.5-2.8,0.4-2.8,1-5.8c0.5-2.8,0.7-2.8,1.3-5.7c0.5-2.8,0.2-2.9,0.8-5.8c0.5-2.8,0.7-2.8,1.3-5.7
			c0.6-2.9,0.4-3,1-5.8c0.6-2.9,0.7-2.9,1.3-5.7c0.6-2.9,0.6-2.9,1.1-5.7c0.6-2.9,0.9-2.9,1.4-5.7c0.6-2.9,0.4-3,1-5.8
			c0.6-2.9,0.7-2.9,1.3-5.7c0.6-2.9,0.1-3,0.7-5.8c0.6-2.9,0.7-2.9,1.3-5.7c0.6-2.9,0.9-2.9,1.4-5.7c0.6-2.9,0.6-2.9,1.2-5.9
			c0.5-2.8,0.1-2.9,0.6-5.7c0.6-2.9,0.6-2.9,1.1-5.7c0.6-2.9,0.6-2.9,1.2-5.9c0.5-2.8,0.5-2.8,1.1-5.7c0.2-1.2,1.7-2.1,3.1-1.8
			c2.6,0.5,2.7,0.2,5.3,0.7c2.4,0.5,2.4,0.6,5,1.2c2.7,0.6,2.8,0.4,5.2,0.9c2.6,0.5,2.5,1,5.1,1.5c2.6,0.5,2.6,0.4,5.2,0.9
			c2,0.4,3.9,1,5.6,1.4c2.1,0.7,3.9,1.4,5.4,2.4c1.7,1,3.4,2,4.7,3.4c1.3,1.4,2.2,3.3,3,5.1c0.8,1.6,1.7,3.6,1.9,5.5
			c0.3,1.8,0.2,3.9,0.1,6c-0.2,1.7-0.4,3.8-0.8,5.8c-0.6,2.9-0.4,3-1,6.1c-0.6,2.9-1,2.9-1.6,5.8c-0.4,2-0.6,4.1-1.3,5.9
			c-0.5,2-1.4,3.9-2.3,5.5c-1,1.7-2.1,3.4-3.6,4.7c-1.4,1.5-5.3,2.8-7.1,3.6c-1.2,0.6,0.5,3.8,0.2,8.9
			C753.6,430.8,753.9,433.5,753.6,442.4z M749.8,389.5c0.7-3.4,0.5-3.4,1.2-7c0.5-2.3,1.2-5.9-0.5-7.8c-0.9-1.1-2.4-1.5-3.8-1.7
			c-3.4-0.7-3.3-1-6.7-1.7c-1.4-0.3-2.5,0.6-2.8,2c-0.5,2.6-0.7,2.6-1.2,5.2c-0.5,2.5-0.3,2.5-0.8,5.1c-0.5,2.6-0.5,2.6-1,5.3
			c-0.5,2.6-0.5,2.6-1,5.3c-0.5,2.5-0.3,2.5-0.8,5.1c-0.5,2.6-0.5,2.6-1,5.3c-0.2,1.2,0.3,2,1.6,1.6c2.5-0.8,2.7-0.7,5.2-1.5
			c2.4-0.7,4.5-1.7,6.4-2.7c1.8-1.2,3.4-2.7,3.9-5.5C749.1,393,749.1,393,749.8,389.5z"/>
		<path class="st1" d="M840.5,375.5c-1.3,2.5-1.1,2.5-2.4,5c-1.5,2.6-1.6,2.4-2.9,4.9c-1.3,2.5-1.2,2.7-2.4,5.1
			c-1.3,2.5-1.4,2.5-2.7,4.9c-1.3,2.5-1.3,2.5-2.6,5c-1.3,2.5-1.3,2.5-2.6,5c-1.3,2.5-1.7,2.4-3,4.9c-1.3,2.5-1,2.7-2.3,5.2
			c-1.4,2.5-1.3,2.5-2.6,5c-1.3,2.5-1.3,2.5-2.6,5.1c-1.3,2.5-1.7,2.2-3,4.7c-1.3,2.5-1,2.7-2.3,5.2c-1.3,2.5-1.4,2.5-2.7,4.9
			c-0.7,1.1-1.7,3-1.9,4.3c-0.6,3.1-0.1,3.2-0.7,6.1c-0.6,2.9-1,2.9-1.6,6c-0.6,2.9-0.6,2.9-1.2,5.9c-0.6,2.9-0.1,3-0.7,6
			c-0.6,3.1-0.8,3.1-1.3,6c-0.2,1.2-1.5,2.1-2.7,1.9c-2.4-0.5-2.5-0.2-4.8-0.6c-2.4-0.5-2.4-1-4.6-1.4c-2.3-0.5-2.4-0.2-4.8-0.6
			c-1.2-0.2-2.2-1.7-2-3c0.6-2.9,0.4-3,1-5.9c0.6-3.1,0.8-3.1,1.3-6c0.6-2.9,0.7-2.9,1.3-5.9c0.6-3.1,0.3-3.2,0.9-6.1
			c0.6-2.9,0.9-2.9,1.5-6c0.2-1.2,0.3-3.3,0.1-4.6c-0.1-2.8,0.1-2.9-0.2-5.7c-0.3-2.8-0.4-2.8-0.7-5.6c-0.2-2.8-0.4-2.8-0.7-5.6
			c-0.3-2.8-0.3-2.8-0.5-5.6c-0.3-2.8-0.3-2.8-0.7-5.6c-0.2-2.8-0.2-2.8-0.5-5.6c-0.2-2.8-0.1-2.9-0.3-5.7c-0.2-2.8-0.1-2.8-0.3-5.5
			c-0.3-2.8-0.6-2.8-0.8-5.6c-0.3-2.8-0.1-2.8-0.3-5.5c-0.2-2.8-0.2-2.9-0.5-5.7c-0.2-2.8-0.4-2.8-0.6-5.6c-0.3-2.8-0.1-2.8-0.3-5.5
			c-0.1-1.3,0.9-2.4,2.2-2.1c2.4,0.5,2.4,0.5,5,1c2.4,0.5,2.4,0.5,4.9,1c2.6,0.5,2.6,0.7,5,1.2c1.4,0.3,2.4,1.6,2.5,2.9
			c0.2,3.1,0,3.1,0.2,6.2c0.2,2.9,0.4,3,0.6,6.1c0.2,3.1-0.1,3.2,0.1,6.1c0.2,3.1,0.7,3,0.9,6.1s0,3.1,0.2,6.2
			c0.2,3.1-0.1,3.2,0.1,6.1c0.2,3.1,0.2,3.1,0.4,6.2c0.1,1.3,0.7,1.4,1.3,0.1c1.3-2.8,1.3-2.8,2.6-5.4c1.3-2.8,1.3-2.8,2.7-5.6
			c1.5-2.8,1.3-2.8,2.8-5.6c1.3-2.8,1.6-2.6,3-5.4c1.3-2.8,1-2.9,2.4-5.6c1.3-2.8,1.5-2.8,2.8-5.6c1.3-2.8,1.3-2.8,2.5-5.5
			c0.7-1.3,2.4-1.8,3.6-1.5c3.4,0.7,3.4,0.5,6.9,1.2c3.4,0.7,3.4,0.7,6.7,1.4C840.5,373,841.2,374.3,840.5,375.5z"/>
	</g>
	<g>
		<path class="st1" d="M830.4,153.1L697.8,112c0,0-1.5,20-6.4,26.1c-2.8,3.5-7.7,15.7-9.1,21c-1.4,5.2-9.1,41.6,8.5,54
			c17.6,12.5,30.1,5.4,36.3,6c6.2,0.6,24,20.3,42.9,19.4c18.9-0.8,31.2-16.6,35.4-22.5c4.2-5.9,28-20.5,30.2-24.8
			C837.8,187,841.7,174,830.4,153.1z M812.4,162.9c-25,12.3-20.6,16.1-28.4,12.6c-1.2-0.5,8.3-7.6,3.4-9.3
			c-11-3.8-31.7,15.1-39.5,17.8c-4.2,1.4-7.3,1.2-12.6-6.7c-8-11.8-20.4-15.5-25.8-25.6c-3.1-5.9,10.5-6.1,12.2-7.5
			C744.9,125.6,843.6,147.5,812.4,162.9z"/>
		<path class="st0" d="M794.7,119.5c0,0-1.2,26.5,7.7,27.9c15,2.4,9.5,1.1,14.1-3.1c7.4-6.9,12.8-17.8,13.8-23.9
			c1-6.2-3.4-20.9-12.9-23.3C807.8,94.5,793.9,91.3,794.7,119.5z"/>
		<path class="st0" d="M770.4,143.3c-0.2-1.3-0.5-2.2-0.8-3c-2.2-6.1-2.6-9.8-8.3-25.8c-2.1-6.1-4.9-13.4-8.2-21.6
			c-2.1-0.8-4.7-1.2-8.1-0.8c-12,1.2-28.1,1-15.6,31.5c0,0,9.2,20.6,14.7,29c3.8,5.8,6,3.4,15,4.6c7.7,1,10.8-2.9,11.9-7.8
			C771.2,148.2,770.9,145.9,770.4,143.3z M760.2,153.7c-1.3,0.3-2.6,0.5-4,0.3c-0.7-0.1-1.3-0.3-1.9-0.4c-0.6-0.1-1.2-0.2-1.8-0.4
			c-1.2-0.2-2.5-0.5-3.7-0.8c1.3-0.4,2.5-0.5,3.8-0.5c0.6,0,1.3,0,1.9,0.1c0.6,0.1,1.3,0.2,1.8,0.3c1.1,0.1,2.3,0.1,3.6,0
			c1.2-0.1,2.5-0.2,3.8-0.2C762.7,152.9,761.5,153.3,760.2,153.7z"/>
		<g>
			<g>
				<path class="st0" d="M731.3,122.5c0.7-0.1,1.4-0.1,2-0.1c0,0,0,0,0,0c-1.2-2.7-2.1-4.9-2.4-6.4c-1.2-6.1-3.2-12.1-13-11.1
					c-5.6,0.5-12.6,1.4-15.7,6.8c0.7,5.6,1.2,14.2,4.5,19.6c5.4,9.1,10.2,25,25.1,22.5C751.9,150.5,727.5,123.3,731.3,122.5z
					 M732.2,145c1.1-0.5,2.3-1,3.5-1.4c-0.8,1-1.8,1.9-2.9,2.6c-1.1,0.7-2.3,1.3-3.7,1.6c-0.7,0.1-1.3,0.2-1.9,0.2
					c-0.6,0.1-1.2,0.2-1.8,0.2c-1.2,0.2-2.5,0.3-3.8,0.4c1.1-0.8,2.3-1.3,3.5-1.7c0.6-0.2,1.2-0.4,1.9-0.5c0.6-0.1,1.3-0.2,1.8-0.3
					C729.9,145.8,731,145.4,732.2,145z M702.2,111.8c-0.5,1-1,2.1-1.2,3.4C701.3,113.9,701.7,112.8,702.2,111.8z"/>
			</g>
		</g>
		<path class="st2" d="M779.9,274.1c0,0-1.5-26.6,7.2-39.4l-63.3-36.9l-41.4,4.5c0,0,4.4,32.4,5.4,40.5c0.7,5.4-7.3,52.8-11,82.6
			L780.7,340C779.5,319.6,779.8,290.6,779.9,274.1z M757.7,247.3c-16.7-1.8-18.7,3.1-26.9,2.4c-8.2-0.8-7.1-7.5-22.5-11.1
			c-20.3-4.6-22.7-21.9-22.7-21.9c17.2,15.6,27.7,16.4,38.4,15.1c4-0.5,7.7,1.2,11.1,3.5c18.9,13,47.6,1,47.6,1
			C779.8,244,776.4,249.3,757.7,247.3z"/>
		<path class="st0" d="M800.9,108.1c-1.3-7.2-10.3-16.5-22.3-15.4c-12,1.1-19.8,4.5-14.4,29.3c0,0,6.9,43.1,17.5,41.2
			c14-2.6,13.3-13.5,14.4-20.7C797.2,134.1,802.2,115.2,800.9,108.1z M793.1,123.1c0,0,5.6-15.9,1.7-18.6c-3.6-2.5-4-4.5-1.9-3
			c2.1,1.5,1.7,1,2.4-0.1c0.8-1.1,1.6-0.1,2.1,1.1c0.5,1.3-0.9,10-0.7,19.1L793.1,123.1z"/>
	</g>
	<g>
		<path class="st1" d="M649,145.1l-110.1-34.2c0,0-1.3,16.6-5.3,21.7c-2.3,2.9-6.4,13.1-7.5,17.4c-1.2,4.4-7.5,34.5,7.1,44.9
			c14.6,10.4,25,4.5,30.2,5c5.2,0.5,19.9,16.8,35.6,16.1c15.7-0.7,25.9-13.8,29.4-18.7c3.5-4.9,23.3-17.1,25.1-20.6
			C655.1,173.3,658.4,162.4,649,145.1z M634.1,153.2c-20.7,10.2-17.1,13.4-23.6,10.5c-1-0.4,6.9-6.3,2.8-7.7
			c-9.1-3.1-26.3,12.6-32.8,14.8c-3.5,1.2-6.1,1-10.5-5.5c-6.6-9.8-17-12.9-21.4-21.3c-2.6-4.9,8.7-5.1,10.2-6.2
			C578,122.3,660,140.5,634.1,153.2z"/>
		<path class="st0" d="M619.4,117.2c0,0-1,22,6.4,23.2c12.4,2,7.9,0.9,11.7-2.6c6.2-5.7,10.7-14.8,11.5-19.9
			c0.8-5.1-2.8-17.3-10.7-19.4C630.2,96.4,618.7,93.8,619.4,117.2z"/>
		<path class="st0" d="M599.2,137c-0.2-1.1-0.4-1.8-0.7-2.5c-1.8-5.1-2.2-8.1-6.9-21.4c-1.8-5-4-11.1-6.8-17.9
			c-1.7-0.7-3.9-1-6.8-0.7c-10,1-23.3,0.8-13,26.2c0,0,7.6,17.1,12.2,24.1c3.2,4.8,5,2.9,12.5,3.8c6.4,0.8,9-2.4,9.9-6.5
			C599.8,141,599.5,139.2,599.2,137z M590.7,145.6c-1,0.3-2.2,0.4-3.3,0.3c-0.6-0.1-1.1-0.2-1.6-0.3c-0.5-0.1-1-0.2-1.5-0.3
			c-1-0.2-2-0.4-3.1-0.6c1-0.3,2.1-0.4,3.2-0.4c0.5,0,1.1,0,1.6,0.1c0.5,0.1,1.1,0.2,1.5,0.2c0.9,0.1,1.9,0.1,3,0
			c1-0.1,2.1-0.2,3.1-0.2C592.7,144.9,591.7,145.3,590.7,145.6z"/>
		<g>
			<g>
				<path class="st0" d="M541.9,112.2c-0.2,0.4-0.3,0.9-0.4,1.4C541.6,113.1,541.7,112.7,541.9,112.2z M542.1,111.8
					c-0.1,0.2-0.1,0.3-0.2,0.5C541.9,112.1,542,111.9,542.1,111.8z M542.4,111c-0.1,0.2-0.2,0.5-0.3,0.8
					C542.2,111.5,542.3,111.3,542.4,111z M542.4,111c0-0.1,0.1-0.1,0.1-0.2c0,0,0,0,0,0C542.5,110.9,542.4,111,542.4,111z
					 M566.6,119.7c0.6-0.1,1.1-0.1,1.7,0c0,0,0,0,0,0c-1-2.2-1.8-4.1-2-5.3c-1-5.1-2.7-10-10.8-9.2c-4.7,0.5-10.5,1.2-13,5.7
					c0.6,4.6,1,11.8,3.7,16.3c4.5,7.5,8.4,20.8,20.8,18.7C583.8,142.9,563.5,120.4,566.6,119.7z M567.4,138.4
					c0.9-0.4,1.9-0.8,2.9-1.2c-0.7,0.9-1.5,1.6-2.4,2.1c-0.9,0.6-1.9,1.1-3,1.3c-0.6,0.1-1.1,0.1-1.6,0.2c-0.5,0-1,0.1-1.5,0.2
					c-1,0.1-2.1,0.3-3.1,0.4c0.9-0.6,1.9-1.1,2.9-1.4c0.5-0.2,1-0.3,1.6-0.4c0.5-0.1,1.1-0.2,1.5-0.3
					C565.5,139.1,566.5,138.7,567.4,138.4z"/>
			</g>
		</g>
		<path class="st2" d="M607,245.6c0,0-1.2-22.1,6-32.7l-52.6-30.6L526,186c0,0,3.7,26.9,4.5,33.7c0.5,4.5-6.1,43.9-9.2,68.6
			l86.3,12.1C606.7,283.5,606.9,259.4,607,245.6z M588.6,223.4c-13.9-1.5-15.5,2.6-22.3,2c-6.8-0.7-5.9-6.3-18.7-9.2
			c-16.9-3.9-18.8-18.2-18.8-18.2c14.3,13,23,13.7,31.9,12.5c3.3-0.4,6.4,1,9.2,2.9c15.7,10.8,39.5,0.8,39.5,0.8
			C607,220.7,604.1,225.1,588.6,223.4z"/>
		<path class="st0" d="M624.5,107.7c-1.1-6-8.6-13.7-18.5-12.8c-10,0.9-16.4,3.7-12,24.3c0,0,5.8,35.8,14.5,34.2
			c11.7-2.1,11.1-11.2,11.9-17.2C621.4,129.3,625.6,113.7,624.5,107.7z M618,120.2c0,0,4.6-13.2,1.4-15.4c-3-2.1-3.3-3.7-1.6-2.5
			c1.7,1.2,1.4,0.8,2-0.1c0.6-0.9,1.3-0.1,1.8,0.9c0.5,1.1-0.8,8.3-0.6,15.8L618,120.2z"/>
	</g>
	<g>
		<path class="st1" d="M480.6,149.4l-90.8-28.2c0,0-1,13.7-4.4,17.9c-1.9,2.4-5.2,10.8-6.2,14.4c-1,3.6-6.2,28.5,5.8,37
			c12,8.5,20.6,3.7,24.9,4.1c4.3,0.4,16.4,13.9,29.4,13.3c12.9-0.6,21.4-11.4,24.2-15.4c2.8-4,19.2-14.1,20.7-17
			C485.7,172.6,488.4,163.6,480.6,149.4z M468.3,156.1c-17.1,8.4-14.1,11-19.5,8.6c-0.8-0.4,5.7-5.2,2.3-6.3
			c-7.5-2.6-21.7,10.4-27.1,12.2c-2.9,1-5,0.8-8.6-4.6c-5.5-8.1-14-10.6-17.7-17.5c-2.1-4,7.2-4.2,8.4-5.2
			C422.1,130.5,489.7,145.5,468.3,156.1z"/>
		<path class="st0" d="M456.2,126.3c0,0-0.8,18.1,5.3,19.1c10.2,1.7,6.5,0.8,9.6-2.1c5.1-4.7,8.8-12.2,9.5-16.4
			c0.7-4.2-2.3-14.3-8.9-16C465.2,109.2,455.6,107,456.2,126.3z"/>
		<path class="st0" d="M439.6,142.7c-0.1-0.9-0.4-1.5-0.6-2c-1.5-4.2-1.8-6.7-5.7-17.7c-1.5-4.2-3.3-9.2-5.6-14.8
			c-1.4-0.6-3.2-0.8-5.6-0.5c-8.2,0.8-19.2,0.7-10.7,21.6c0,0,6.3,14.1,10.1,19.8c2.6,4,4.1,2.4,10.3,3.2c5.3,0.7,7.4-2,8.2-5.3
			C440.1,146,439.9,144.4,439.6,142.7z M432.6,149.7c-0.9,0.2-1.8,0.3-2.7,0.2c-0.5-0.1-0.9-0.2-1.3-0.3c-0.4-0.1-0.8-0.2-1.2-0.2
			c-0.8-0.2-1.7-0.3-2.6-0.5c0.9-0.3,1.7-0.4,2.6-0.4c0.4,0,0.9,0,1.3,0.1c0.4,0,0.9,0.2,1.3,0.2c0.8,0.1,1.6,0.1,2.4,0
			c0.8-0.1,1.7-0.1,2.6-0.2C434.3,149.2,433.4,149.5,432.6,149.7z"/>
		<g>
			<g>
				<path class="st0" d="M392.5,121.9c-0.1,0.1-0.1,0.2-0.2,0.4C392.4,122.1,392.4,122,392.5,121.9z M392.8,121.2
					c-0.1,0.2-0.2,0.4-0.3,0.6C392.6,121.6,392.7,121.4,392.8,121.2z M392.3,122.2c-0.1,0.4-0.2,0.7-0.3,1.1
					C392.1,123,392.2,122.6,392.3,122.2z M392.8,121.2c0-0.1,0.1-0.1,0.1-0.2c0,0,0,0,0,0C392.8,121.1,392.8,121.2,392.8,121.2z
					 M412.7,128.4c0.5-0.1,0.9-0.1,1.4,0c0,0,0,0,0,0c-0.8-1.8-1.4-3.4-1.6-4.4c-0.8-4.2-2.2-8.3-8.9-7.6c-3.8,0.4-8.6,1-10.7,4.7
					c0.5,3.8,0.8,9.7,3.1,13.4c3.7,6.2,7,17.1,17.2,15.4C426.9,147.5,410.1,128.9,412.7,128.4z M413.4,143.8c0.8-0.3,1.6-0.7,2.4-1
					c-0.6,0.7-1.2,1.3-2,1.8c-0.8,0.5-1.6,0.9-2.5,1.1c-0.5,0.1-0.9,0.1-1.3,0.2c-0.4,0-0.8,0.1-1.3,0.2c-0.8,0.1-1.7,0.2-2.6,0.3
					c0.7-0.5,1.5-0.9,2.4-1.2c0.4-0.2,0.9-0.3,1.3-0.4c0.4-0.1,0.9-0.1,1.3-0.2C411.8,144.4,412.6,144.1,413.4,143.8z"/>
			</g>
		</g>
		<path class="st2" d="M446.1,232.2c0,0-1-18.3,4.9-27L407.6,180l-28.3,3.1c0,0,3,22.2,3.7,27.8c0.4,3.7-5,36.2-7.6,56.6l71.2,10
			C445.8,263.4,446,243.6,446.1,232.2z M430.8,213.9c-11.4-1.3-12.8,2.2-18.4,1.6c-5.6-0.5-4.9-5.2-15.4-7.6
			c-13.9-3.2-15.5-15-15.5-15c11.8,10.7,18.9,11.3,26.3,10.3c2.8-0.3,5.3,0.9,7.6,2.4c13,8.9,32.6,0.7,32.6,0.7
			C446,211.6,443.6,215.3,430.8,213.9z"/>
		<path class="st0" d="M460.5,118.5c-0.9-4.9-7.1-11.3-15.3-10.5c-8.2,0.8-13.5,3.1-9.9,20.1c0,0,4.8,29.6,12,28.2
			c9.6-1.7,9.1-9.3,9.8-14.2C457.9,136.3,461.4,123.4,460.5,118.5z M455.1,128.8c0,0,3.8-10.9,1.2-12.7c-2.5-1.7-2.7-3.1-1.3-2
			c1.4,1,1.1,0.7,1.7-0.1c0.5-0.8,1.1-0.1,1.5,0.8c0.4,0.9-0.6,6.8-0.5,13.1L455.1,128.8z"/>
	</g>
	<g>
		<path class="st1" d="M334.9,140.8l-72.7-22.6c0,0-0.8,11-3.5,14.3c-1.5,1.9-4.2,8.6-5,11.5c-0.8,2.9-5,22.8,4.7,29.6
			c9.6,6.8,16.5,3,19.9,3.3s13.2,11.1,23.5,10.7c10.4-0.5,17.1-9.1,19.4-12.3c2.3-3.2,15.4-11.3,16.6-13.6
			C339,159.4,341.2,152.2,334.9,140.8z M325.1,146.2c-13.7,6.7-11.3,8.8-15.6,6.9c-0.7-0.3,4.6-4.2,1.9-5.1
			c-6-2.1-17.4,8.3-21.7,9.8c-2.3,0.8-4,0.7-6.9-3.7c-4.4-6.5-11.2-8.5-14.2-14c-1.7-3.2,5.8-3.4,6.7-4.1
			C288.1,125.7,342.2,137.7,325.1,146.2z"/>
		<path class="st0" d="M315.4,122.3c0,0-0.6,14.5,4.2,15.3c8.2,1.3,5.2,0.6,7.7-1.7c4.1-3.8,7-9.8,7.6-13.1
			c0.5-3.4-1.9-11.4-7.1-12.8C322.6,108.6,314.9,106.9,315.4,122.3z"/>
		<path class="st0" d="M302.1,135.4c-0.1-0.7-0.3-1.2-0.5-1.6c-1.2-3.4-1.4-5.4-4.6-14.2c-1.2-3.3-2.7-7.3-4.5-11.8
			c-1.1-0.4-2.6-0.6-4.5-0.4c-6.6,0.7-15.4,0.5-8.6,17.3c0,0,5,11.3,8.1,15.9c2.1,3.2,3.3,1.9,8.2,2.5c4.2,0.5,6-1.6,6.5-4.3
			C302.5,138.1,302.3,136.9,302.1,135.4z M296.4,141.1c-0.7,0.2-1.4,0.3-2.2,0.2c-0.4-0.1-0.7-0.1-1-0.2c-0.3-0.1-0.7-0.1-1-0.2
			c-0.7-0.1-1.3-0.3-2-0.4c0.7-0.2,1.4-0.3,2.1-0.3c0.4,0,0.7,0,1.1,0.1c0.4,0,0.7,0.1,1,0.2c0.6,0.1,1.3,0.1,2,0
			c0.7,0,1.4-0.1,2.1-0.1C297.8,140.7,297.1,140.9,296.4,141.1z"/>
		<g>
			<g>
				<path class="st0" d="M264.3,118.8c0,0.1-0.1,0.2-0.1,0.3C264.3,119,264.3,118.9,264.3,118.8z M264.6,118.3
					c-0.1,0.2-0.2,0.3-0.2,0.5C264.4,118.6,264.5,118.4,264.6,118.3z M280.6,124c0.4-0.1,0.7-0.1,1.1,0c0,0,0,0.1,0,0.1
					c-0.7-1.5-1.2-2.8-1.4-3.6c-0.6-3.4-1.8-6.6-7.1-6.1c-3.1,0.3-6.9,0.8-8.6,3.8c0.4,3.1,0.7,7.8,2.4,10.7
					c2.9,5,5.6,13.7,13.7,12.3C291.9,139.3,278.5,124.4,280.6,124z M281.1,136.3c0.6-0.3,1.3-0.5,1.9-0.8c-0.4,0.6-1,1-1.6,1.4
					c-0.6,0.4-1.3,0.7-2,0.9c-0.4,0.1-0.7,0.1-1,0.1c-0.3,0-0.7,0.1-1,0.1c-0.7,0.1-1.4,0.2-2.1,0.2c0.6-0.4,1.2-0.7,1.9-0.9
					c0.3-0.1,0.7-0.2,1-0.3c0.3-0.1,0.7-0.1,1-0.2C279.8,136.8,280.4,136.6,281.1,136.3z M264.6,118.3c0,0,0-0.1,0.1-0.1
					c0,0,0,0,0,0C264.6,118.2,264.6,118.2,264.6,118.3z M264.2,119.1c-0.1,0.3-0.2,0.6-0.3,0.9C264,119.7,264.1,119.4,264.2,119.1z"
					/>
			</g>
		</g>
		<path class="st2" d="M307.2,207.1c0,0-0.8-14.6,4-21.6l-34.7-20.2l-22.7,2.5c0,0,2.4,17.8,3,22.2c0.4,3-4,29-6.1,45.3l57,8
			C307,232.1,307.2,216.2,307.2,207.1z M295.1,192.4c-9.2-1-10.2,1.7-14.7,1.3c-4.5-0.4-3.9-4.1-12.3-6.1c-11.1-2.5-12.4-12-12.4-12
			c9.4,8.6,15.2,9,21,8.3c2.2-0.3,4.2,0.7,6.1,1.9c10.4,7.1,26.1,0.5,26.1,0.5C307.2,190.7,305.3,193.6,295.1,192.4z"/>
		<path class="st0" d="M318.8,116.1c-0.7-3.9-5.6-9-12.2-8.4c-6.6,0.6-10.8,2.5-7.9,16.1c0,0,3.8,23.7,9.6,22.6
			c7.7-1.4,7.3-7.4,7.9-11.4C316.8,130.4,319.5,120,318.8,116.1z M314.5,124.3c0,0,3.1-8.7,0.9-10.2c-2-1.4-2.2-2.5-1-1.6
			c1.1,0.8,0.9,0.5,1.3-0.1c0.4-0.6,0.9-0.1,1.2,0.6c0.3,0.7-0.5,5.5-0.4,10.5L314.5,124.3z"/>
	</g>
	<path class="st1" d="M778.6,951.9c7.7-56.1,15.5-112.1,24.2-168.1l-0.3-0.1l32.5-185.6l-545.3-95.4l-32.8,187.5l0,0
		c-7.6,42.6-13.5,84.5-14.1,126.9c-0.1,4.9,0.7,10,1.9,14.8c1.5,5.9,6,8.1,10.9,4.6c3.9-2.8,8.1-7.2,9.3-11.6
		c2.1-8,2.4-16.5,2.7-24.8c0.4-12.1-0.3-24.3,0.2-36.4c0.3-7.8,2.4-15.4,8.1-21.4c3.1-3.3,7.5-5.3,11.3-2.6c2.8,2,5.4,6.1,5.6,9.4
		c0.3,4.6-1.6,9.3-2.8,13.9c-2.8,10.6-6.4,21-8.4,31.7c-1.7,8.7,1.2,17,6.6,24.1c4.5,5.8,10.3,6.6,16.2,2.3
		c6.3-4.6,9.4-11.3,8.9-18.7c-0.7-9.7-3.3-19.2-4.3-28.8c-0.8-7.2-1.5-14.7-0.3-21.8c1.5-9.2,9.9-14.4,17.9-12.9
		c8.1,1.5,12.7,9,11.5,18.7c-0.3,2.2-0.7,4.3-1.2,6.5c-2.7,11.9-5.7,23.7-8.2,35.6c-5.1,24.2-10.4,48.3-14.8,72.6
		c-1.1,6-0.3,12.8,1.2,18.9c2.9,11.3,12.3,17.8,24,17.9c11.5,0.1,20.5-5.9,22.7-18.1c2.5-13.6,4.2-27.7,3.7-41.5
		c-0.8-22.9-4-45.6-5.4-68.5c-0.4-6.8,0.7-14,2.8-20.4c2.8-8.6,11-11,19-7c7.7,3.9,11.4,10.4,9.2,18.7c-2.7,10.2-6.5,20.1-9.4,30.2
		c-1.7,5.7-3.1,11.6-3.6,17.5c-0.7,7.9,5.9,14.9,13.9,16.1c6.1,0.9,10.7-2.9,12.7-11.5c1.1-4.8,1.9-9.8,1.9-14.8
		c-0.1-8.4-1.5-16.7-1.2-25c0.2-7,0.8-14.5,3.2-20.9c3.2-8.2,12-9.3,18.8-3.4c4.9,4.3,7.1,9.7,5.6,16.1c-2.5,10.9-5.4,21.7-7.9,32.5
		c-4.5,19.6-9.4,39.1-13.1,58.9c-2.1,11.1,4.2,19.6,14.3,22.4c8.2,2.3,15.9-1.9,19.6-13.3c3.3-10.1,5.3-20.9,5.7-31.5
		c0.5-15.1-1.5-30.2-1.4-45.4c0.1-8,1.5-16.3,4-23.9c2.1-6.5,9.1-9.3,14.5-7.8c4.9,1.4,8.2,6.4,7.9,13.3c-0.3,5.7-1.2,11.5-2.4,17.1
		c-5.9,28.9-12.2,57.7-17.8,86.7c-1.5,7.5-1.5,15.5-1.1,23.2c0.4,7.6,4.3,10.8,11.8,11.9c14,2.1,22.2-3.8,24.7-17.6
		c0.5-2.7,0.9-5.5,1.1-8.3c1.2-20.5,2.3-41,3.6-61.5c0.9-13.9,1.5-27.8,3.2-41.7c1-8.4,9.1-13.6,17.5-13c7.7,0.5,13.7,6.5,14,15.2
		c0.2,5.1-0.8,10.3-1.7,15.4c-2.5,14.3-5.6,28.5-7.6,42.9c-0.7,4.9,0.5,10.4,2.1,15.1c0.8,2.3,4.5,4.7,7.1,4.9
		c2.3,0.2,5.6-2.2,6.9-4.4c1.9-3.1,2.8-7,3.4-10.7c3.1-17.1,5.7-34.2,9.2-51.2c1.1-5.4,4.1-10.8,7.3-15.4c1.4-2,6-3.4,8.3-2.6
		c2.1,0.7,4.1,4.9,4.1,7.5c-0.1,6.7-1,13.5-2,20.2c-3.5,22.6-7.5,45.2-10.8,67.9c-0.8,5.6,0,11.6,1.1,17.1c0.5,2.3,3.7,4.1,5.6,6.1
		c1.8-1.9,4.7-3.5,5.3-5.7c1.6-5.9,2.5-12.1,3.3-18.2c3.1-25.3,6-50.7,9.2-76c0.4-3.5,1.7-7,3-10.3c1.7-4.2,5.3-5.9,9.7-5.2
		c4.3,0.7,7.6,3.1,7.9,7.7c0.2,4.3-0.1,8.8-0.9,13c-2.6,13.5-6,26.9-8.1,40.5c-1.1,7.8-0.7,15.9,0.2,23.7c0.3,2.8,3.9,6.6,6.5,7.2
		c2.8,0.6,6.7-1.7,9.2-3.8c1.9-1.6,3.1-4.7,3.6-7.3c1.1-5.7,2.2-11.5,2-17.2c-0.4-13.5-1.6-27-2.3-40.5c-0.4-8.2,4.6-15.2,12.2-18
		c10-3.6,18.3,1.6,19,12.2c0.2,3.5-0.5,7.1-1.1,10.7c-5.4,28.8-11.4,57.5-16.1,86.4c-1.4,8.8-0.2,18.2,1.1,27.2
		c1,6.9,6.1,11.5,13.3,13.1c11.8,2.6,21.1-3.5,23.3-17c1.6-9.9,1.8-20.2,1.3-30.3c-1.1-21.1-1.9-42.2,1.3-63.2
		c1.2-8,2.8-16.1,9.5-21.3c3.1-2.4,8.4-4.6,11.6-3.6c3.2,1,6.2,6,7.1,9.7c1.1,4.4,0.4,9.5-0.4,14.2c-1.4,8.3-3.5,16.4-5.1,24.6
		c-3,15.5-6,30.9-8.4,46.5c-0.4,2.9,2.1,6.3,3.3,9.4c3.2-2,6.9-3.4,9.3-6c2.1-2.4,3-6.1,3.7-9.3c1.3-6.2,2.1-12.6,2.8-18.9
		c1.8-14.4,2.8-29,5.3-43.3c1.4-7.8,4.3-15.8,8.3-22.7c4-6.8,11.8-5.4,13.7,2.2c1.4,5.6,1.4,11.9,0.3,17.6c-3.2,16.4-7.8,32.6-11,49
		c-2.7,13.5-4.5,27.1-6.2,40.8c-0.6,5,0.5,10.6,6.6,12c6,1.4,8.9-3.5,10.3-7.9c2.7-8.1,4.9-16.4,6.2-24.8c3-20.1,5.1-40.3,8-60.4
		c0.8-5.4,2.9-10.8,5.4-15.7c3.6-7.3,10.6-11,15.7-9.5c5,1.5,8.3,6.8,7.3,15.5c-1.3,12.5-3.7,24.8-5.9,37.2
		c-5.2,30.3-10.6,60.5-15.9,90.7c-1.3,7.5-0.5,14.8,3.8,21.2c4.2,6.3,11.3,7.1,16,1.1c2.9-3.6,5-8.2,6.4-12.7
		C776.6,965,777.7,958.4,778.6,951.9z M372.9,585.8c-0.3,1.7-2.3,3.1-3.9,2.8c-4.6-0.8-4.6-1-9-1.8c-4.6-0.8-4.6-0.8-9.2-1.6
		c-1.7-0.3-2.7-2-2.4-3.7c0.4-2.3,0.2-2.3,0.6-4.9c0.6-3.4,0.5-6.4-0.9-8.6c-1.6-2.2-4.2-3.3-7.7-3.9c-3.6-0.6-6.2-0.2-8.2,1.4
		c-2.3,1.8-4,4.1-4.5,7.4c-0.5,2.7-0.5,5.3-0.1,7.8c0.4,2.7,1.7,4.8,2.8,7.2c1.1,2.1,2.3,4.3,3.8,6.7c1.4,2,3,4,4.5,6.2
		c1.4,2,3,3.8,4.8,6c1.4,2,2.7,4.1,4.3,6.4c1.4,2,3.2,3.8,4.8,6c1.3,2.2,2.5,4.3,3.8,6.7c1.1,2.1,2,4.7,2.9,7c0.9,2.5,1,5.1,1.5,7.6
		c0.2,2.4,0.6,5.1,0.6,7.7c0,2.4-0.2,4.9-0.7,7.7c-0.4,2.5-0.8,4.8-1.5,7.1c-0.9,2.4-1.7,4.9-2.9,6.8c-1.1,2.4-2.9,4.2-4.3,5.9
		c-1.6,1.9-3.3,4-5.3,5.3c-2,1.4-4.3,2.3-6.6,3.2c-2.3,0.9-4.6,1.6-7,2c-2.5,0.4-4.9,0.7-7.5,0.6c-2.3-0.2-4.8-0.8-7.3-1.3
		c-2.5-0.4-4.9-0.6-7.1-1.5c-2.4-0.9-4.9-1.7-6.9-2.7c-2.4-1.3-4.5-2.7-6.2-4.3c-1.9-1.6-3.2-3.8-4.6-5.8c-1.4-2-3-4-3.9-6.3
		c-0.9-2.3-1.3-4.8-1.5-7.2c-0.5-2.2-0.2-4.8-0.2-7.4c0.2-2.3-0.2-4.8,0.2-7.3c0.7-3.8,1.3-3.7,1.9-7.2c0.3-1.9,1.6-2.8,3.4-2.4
		c4.4,0.8,4.5,0.1,9.1,0.9c4.6,0.8,4.5,1.2,9.1,2c1.7,0.3,2.7,1.8,2.4,3.7c-0.8,4.4-0.3,4.5-1.1,8.7c-0.6,3.6-0.8,6.8,0.8,8.8
		c1.8,2.3,4.6,3.2,8,3.8c3.6,0.6,6.4,0.3,8.4-1.3c2.2-1.3,3.5-3.9,4.1-7.5c0.4-2.5,0.7-5.1,0.2-7.5c-0.4-2.5-1.3-5-2.4-7.3
		c-0.9-2.3-2.5-4.1-4.1-6.3c-1.3-2.2-2.7-4.4-4-6.5c-1.6-2-3.4-3.8-5-5.8c-1.6-2-2.9-4.2-4.5-6.4c-1.4-2-2.7-4.2-4.1-6.3
		c-1.4-2.2-2.9-4.2-4-6.5c-1.1-2.1-2-4.7-2.6-7.2c-0.9-2.3-2-4.7-2.4-7.3c-0.4-2.5-0.6-5.1-0.6-7.7c0-2.4,0.4-4.9,0.9-7.6
		c0.4-2.5,1.1-4.8,1.9-7c0.6-2.5,1.9-4.6,2.9-6.8c1.2-2.2,2.5-4.3,4.1-6c1.4-1.9,3.2-3.8,5.2-5.1c2-1.4,4.1-2.5,6.4-3.4
		c2.1-0.9,4.6-1.6,7-2c2.2-0.5,4.9-0.7,7.5-0.6c2.4,0,4.6,0.6,7.2,1c2.9,0.5,5.6,1.2,8,2.3c2.9,0.9,5.5,1.8,7.6,3.3
		c2.5,1.5,4.6,3.4,6.4,5.4c2,2.1,3.3,4.5,4.6,7.1c1.3,2.4,2.4,5,2.7,7.8c0.6,2.5,0.8,5.5,0.7,8.3c0,2.6,0.1,5.4-0.4,8.4
		C373.4,584.1,373.2,584.1,372.9,585.8z M459.5,572.4c-0.8,4.4-1,4.4-1.7,8.8c-0.3,1.7-1.6,3.2-3.3,2.9c-4.4-0.8-4.4-1-9-1.8
		c-4.6-1-4.6-1-9-1.8c-1.9-0.3-3.6,1.1-3.9,2.8c-0.7,4-0.9,3.9-1.6,7.7c-0.7,3.8-0.4,3.8-1.1,7.8c-0.7,3.8-0.4,3.8-1.1,7.8
		c-0.7,3.8-0.7,3.8-1.4,7.8c-0.7,3.8-0.7,3.8-1.3,7.5c-0.7,4-0.5,4-1.1,7.8c-0.7,4-0.9,3.9-1.6,7.7c-0.7,3.8-0.9,3.7-1.6,7.7
		c-0.7,3.8-0.2,3.8-0.9,7.8c-0.7,3.8-0.9,3.7-1.6,7.7c-0.7,3.8-0.9,3.7-1.6,7.7c-0.7,3.8-0.4,3.8-1.1,7.6c-0.7,4-0.9,3.9-1.6,7.7
		c-0.7,4-0.3,4.1-0.9,7.8c-0.7,4-0.9,3.9-1.6,7.7c-0.3,1.7-2.3,3.1-3.9,2.8c-3.1-0.6-3.1-0.6-6.5-1.1c-3.1-0.6-3.1-0.8-6.5-1.3
		c-3.1-0.6-3.1-0.8-6.3-1.3c-1.9-0.3-2.9-1.8-2.6-3.5c0.7-3.8,0.9-3.7,1.6-7.7c0.7-3.8,0-3.9,0.7-7.9c0.7-3.8,0.9-3.7,1.5-7.5
		c0.7-4,1.1-3.9,1.8-7.7c0.7-4,0.7-4,1.4-7.8c0.7-4,0.1-4.1,0.7-7.9c0.7-3.8,0.7-3.8,1.4-7.8c0.7-3.8,0.7-3.8,1.4-7.8
		c0.7-3.8,0.7-3.8,1.4-7.8c0.7-3.8,1.1-3.7,1.7-7.5c0.7-4,0.3-4.1,0.9-7.8c0.7-4,0.7-4,1.4-7.8c0.7-4,0.7-4,1.4-7.8
		c0.7-3.8,1.1-3.7,1.8-7.7c0.7-3.8,0.7-3.8,1.4-7.8c0.3-1.7-0.9-3.4-2.8-3.7c-4.4-0.8-4.4-0.6-9.1-1.4c-4.6-0.8-4.6-0.6-9-1.4
		c-1.9-0.3-3-2.5-2.7-4.1c0.8-4.4,0.6-4.4,1.3-8.8c0.8-4.4,1-4.4,1.8-8.8c0.3-1.7,2.1-3.1,3.9-2.8c3.8,0.7,3.8,0.4,7.6,1.1
		c3.8,0.7,3.7,1.3,7.4,1.9c3.8,0.7,3.8,0.2,7.8,0.9c3.8,0.7,3.8,0.7,7.5,1.3c3.8,0.7,3.8,0.4,7.6,1.1c3.8,0.7,3.7,1.3,7.4,1.9
		c3.8,0.7,3.8,0.2,7.6,0.9c4,0.7,3.9,0.9,7.7,1.6c3.8,0.7,3.7,1.1,7.5,1.7c1.7,0.3,3.4,1.7,3.1,3.3
		C460.9,568.1,460.2,568,459.5,572.4z M534.9,632.7c-0.7,2.7-1.8,5.3-3,7.5c-1.3,2.4-2.8,4.7-4.8,6.5c-1.9,2.1-7.2,3.9-9.5,5
		c-1.7,0.8,0.8,5.1,0.5,12c0.2,7.6,0.6,11.1,0.5,23.2c-0.7,3.8,1.1,13.6,0.5,17.1c0.2,3.9,2.4,10.8,1.8,14.4
		c-0.3,1.9-1.3,3.5-2.9,3.2c-3.4-0.6-4.1-1.4-7.4-1.9c-3.1-0.6-3.3,0.1-6.6-0.5c-3.1-0.6-3.1-0.8-6.5-1.3c-1.7-0.3-3.3-2.1-3-4
		c0.5-3.1-0.1-3.3,0.5-6.4c0.5-2.9,0.2-6.2,0.8-9.4c0.4-9.9-1.4-23.1-0.9-28.4c0.6-8.5-0.7-9.8-2.7-9.3c-4.2,1.6-3,1.2-7.2,2.8
		c-1.8,0.5-3.2,2.5-3.6,4.3c-0.6,3.6-0.8,3.5-1.5,7.1c-0.6,3.6-0.4,3.6-1,7.2c-0.6,3.6-0.6,3.6-1.2,7.1c-0.6,3.6-0.6,3.6-1.2,7.1
		c-0.6,3.6-0.4,3.6-1,7.2c-0.6,3.6-0.6,3.6-1.2,7.1c-0.3,1.9-2.3,3.1-4.1,2.7c-3.1-0.6-3.1-0.8-6.5-1.3c-3.1-0.6-3.2-0.1-6.4-0.7
		c-3.4-0.6-3.3-0.8-6.5-1.3c-1.9-0.3-2.9-2-2.6-3.9c0.7-3.8,0.5-3.8,1.1-7.8c0.7-3.8,0.9-3.7,1.6-7.7c0.7-3.8,0.2-3.8,0.9-7.8
		c0.7-3.8,0.9-3.7,1.6-7.7c0.7-4,0.5-4,1.1-7.8c0.7-4,0.9-3.9,1.6-7.7c0.7-4,0.7-4,1.4-7.8c0.7-4,1.1-3.9,1.8-7.7
		c0.7-4,0.5-4,1.1-7.8c0.7-4,0.9-3.9,1.6-7.7c0.7-4,0.1-4.1,0.7-7.9c0.7-4,0.9-3.9,1.6-7.7c0.7-4,1.1-3.9,1.8-7.7c0.7-4,0.7-4,1.4-8
		c0.7-3.8,0-3.9,0.7-7.7c0.7-4,0.7-4,1.4-7.8c0.7-4,0.7-4,1.4-8c0.7-3.8,0.7-3.8,1.4-7.8c0.3-1.7,2.2-2.9,4.1-2.5
		c3.6,0.6,3.6,0.2,7.2,0.8c3.4,0.6,3.3,0.8,6.9,1.4c3.8,0.7,3.8,0.5,7.2,1c3.6,0.6,3.5,1.3,7,1.9c3.6,0.6,3.6,0.4,7.2,1
		c2.7,0.5,5.4,1.2,7.7,1.8c2.9,0.9,5.3,1.8,7.5,3c2.4,1.3,4.7,2.6,6.6,4.4c1.8,1.8,3.1,4.4,4.2,6.8c1.1,2.1,2.4,4.7,2.8,7.4
		c0.4,2.5,0.4,5.2,0.3,8c-0.2,2.3-0.5,5.1-0.9,7.8c-0.7,4-0.5,4-1.2,8.2c-0.7,4-1.3,3.9-2,7.9C536,627.5,535.8,630.3,534.9,632.7z
		 M621.8,641c-0.7,3.8-0.7,3.8-1.3,7.3c-0.7,3.8-0.7,3.8-1.3,7.3c-0.7,3.8-1.1,3.7-1.7,7.5c-0.6,3.6-0.2,3.6-0.9,7.4
		c-0.6,3.6-0.8,3.5-1.5,7.3c-0.7,3.8-0.4,3.8-1.1,7.4c-0.7,3.8-1.3,3.7-1.9,7.2c-0.7,3.8-0.4,3.8-1.1,7.6c-0.4,2.5-1.1,4.8-1.9,7
		c-0.7,2.5-1.5,4.9-2.7,6.9c-1.3,2.4-2.5,4.5-4.1,6.2c-1.8,1.8-3.8,3.4-6,4.8c-2,1.4-3.9,2.8-6.3,3.7c-2.3,0.9-4.8,1.3-7.4,1.7
		c-2.2,0.3-4.8,0.5-7.4,0.4c-2.4,0-4.7-0.2-7.4-0.7c-2.5-0.4-4.7-1.5-6.9-2.3c-2.4-0.9-4.9-1.5-6.9-2.5c-2.4-1.3-4.5-2.7-6.4-4.1
		c-1.9-1.6-3.5-3.4-5.1-5.4c-1.4-2-2-4.5-3.1-6.8c-0.7-2.3-1.8-4.4-2.2-7.1c-0.5-2.2-0.5-4.8-0.4-7.4c0-2.4,0.4-4.7,0.8-7.2
		c0.7-3.8,0.7-3.8,1.3-7.5c0.6-3.6,0.8-3.5,1.5-7.3c0.6-3.6,0.4-3.6,1.1-7.4c0.6-3.6,0.4-3.6,1.1-7.4c0.7-3.8,0.7-3.8,1.3-7.3
		c0.7-3.8,0.7-3.8,1.3-7.3c0.7-3.8,0.4-3.8,1.1-7.6c0.6-3.6,1-3.5,1.7-7.3c0.6-3.6,0.6-3.6,1.3-7.3c0.7-3.8,0.5-3.8,1.1-7.4
		c0.4-2.5,1.1-5,1.9-7.2c0.9-2.4,1.9-4.6,3.1-6.8c1.2-2.2,2.5-4.3,4.1-6.2c1.6-1.7,3.8-3.2,5.8-4.6c2-1.4,4-3,6.3-3.9
		c2.3-0.7,4.7-1.1,7.4-1.5c2.2-0.5,4.9-0.7,7.2-0.7c2.6,0.2,4.9,0.6,7.4,1.1c2.7,0.5,5,1.1,7.3,1.7c2.4,0.9,4.6,2.1,6.8,3.1
		c2.2,1.2,4.3,2.5,6.2,4.1c1.9,1.6,3.3,3.6,4.6,5.6c1.6,2,3.2,3.8,4.1,6.1c0.9,2.3,1.5,4.8,2,7.3c0.5,2.2,0.2,4.8,0,7.3
		c0,2.4-0.4,4.9-0.9,7.4c-0.6,3.6,0.2,3.7-0.4,7.5C622.4,637.4,622.4,637.4,621.8,641z M715,624.3c-0.7,4-0.9,3.9-1.6,7.7
		c-0.7,4-0.9,3.9-1.6,7.7c-0.7,4-0.3,4.1-0.9,7.8c-0.7,4-1.1,3.9-1.8,7.7c-0.7,4-0.3,4.1-0.9,7.8c-0.7,4-1.1,3.9-1.8,7.7
		c-0.7,4-0.9,3.9-1.6,7.9c-0.7,3.8-0.5,3.8-1.1,7.8c-0.7,3.8-0.9,3.7-1.6,7.7c-0.7,3.8,0,3.9-0.7,7.9c-0.7,3.8-0.9,3.7-1.6,7.7
		c-0.7,3.8-1.1,3.7-1.8,7.7c-0.7,3.8-0.2,3.8-0.9,7.8c-0.7,3.8-0.7,3.8-1.4,7.8c-0.7,4-0.9,3.9-1.6,7.7c-0.7,3.8-0.7,3.8-1.4,7.8
		c-0.3,1.9-1.8,2.9-3.7,2.6c-3.1-0.6-3.2-0.3-6.3-0.9c-3.4-0.6-3.4-0.6-6.5-1.1c-3.4-0.6-3.3-0.8-6.5-1.3c-1.9-0.3-3.6-1.9-3.7-3.7
		c-0.4-4-0.8-3.8-1.4-7.8c-0.4-3.7,0.2-3.8-0.1-7.8c-0.6-3.8-0.6-3.8-1.2-7.8c-0.4-3.7-0.8-3.8-1.5-7.6c-0.4-4-0.4-4-0.8-7.9
		c-0.6-3.8,0-3.9-0.6-7.7c-0.4-4-0.6-4-1.2-7.8c-0.4-4-0.6-4-1-7.7c-0.6-4-0.8-3.8-1.4-7.8c-0.4-4-0.2-3.9-0.8-7.7
		c-0.4-4-0.2-3.9-0.8-7.9c-0.1-1.7-0.8-1.6-1.1,0c-0.7,4-0.9,3.9-1.6,7.9c-0.7,4.2-0.3,4.3-1,8.2c-0.7,4-0.7,4-1.4,8.2
		c-0.7,4-0.7,4-1.4,8c-0.7,4-0.7,4-1.4,8c-0.7,4.2-0.5,4.2-1.2,8.2c-0.7,4-0.9,3.9-1.6,7.9c-0.7,4.2-0.9,4.2-1.6,8.1s-0.3,4.1-1,8.2
		c-0.7,4-0.9,3.9-1.6,7.9c-0.3,1.9-2.2,2.9-3.9,2.6c-4.2-0.7-4.2-0.5-8.6-1.3c-4.4-0.8-4.4-1-8.6-1.7c-1.9-0.3-3.3-1.9-3-3.8
		c0.7-3.8,0.9-3.7,1.6-7.7c0.7-3.8,0.4-3.8,1.1-7.8c0.7-3.8,0.9-3.7,1.6-7.7c0.7-3.8,0.9-3.7,1.6-7.7c0.7-4,0.9-3.9,1.6-7.7
		c0.7-4,0.5-4,1.1-7.8c0.7-4,0.9-3.9,1.6-7.7c0.7-4,0.1-4.1,0.7-7.9c0.7-4,0.7-4,1.4-7.8c0.7-4,1.3-3.9,2-7.6c0.7-4,0.7-4,1.4-7.8
		c0.7-4,0.1-4.1,0.7-7.9c0.7-4,0.7-4,1.4-7.8c0.7-4,0.7-4,1.4-8c0.7-3.8,0.7-3.8,1.3-7.5c0.7-4,1.1-3.9,1.8-7.7c0.7-4,0.3-4.1,1-8
		c0.7-3.8,0.7-3.8,1.4-7.8c0.3-1.7,2.3-3.3,4.2-2.9c4,0.7,3.9,1.3,7.9,2c4,0.7,4,0.5,8.2,1.2c4,0.7,4,0.7,8,1.4
		c1.9,0.3,3.5,1.9,3.9,3.7c0.4,4,0.6,4,1.2,8c0.4,4,0.1,4.1,0.5,8.1s0.8,3.8,1.2,7.8c0.6,4,0.4,4.2,0.9,8.2c0.4,4,0.4,4,0.8,7.9
		c0.6,4,0.6,4,1.2,8c0.4,4-0.1,4.1,0.3,8c0.6,4,0.8,3.8,1.4,7.8c0.4,4.2,0.6,4,1.2,8c0.1,2-0.1,1.9,0.2,0c0.7-3.8,1.1-3.7,1.7-7.5
		c0.7-3.8,0.2-3.8,0.9-7.6c0.7-3.8,0.9-3.7,1.5-7.5c0.7-3.8,1.1-3.7,1.7-7.5c0.7-3.8,0-3.9,0.7-7.7c0.7-3.8,1.3-3.7,1.9-7.4
		c0.7-3.8,0.7-3.8,1.3-7.5s0-3.9,0.7-7.7c0.7-3.8,1.1-3.7,1.7-7.5c0.3-1.7,1.8-2.9,3.7-2.6c4.2,0.7,4.3,0.3,8.7,1.1
		c4.2,0.7,4,1.6,8.2,2.3c1.9,0.3,3.4,1.7,3.1,3.4c-0.7,4-0.9,3.9-1.6,7.7C715.5,620.5,715.7,620.5,715,624.3z M793.2,669.9
		c-0.3,1.9-2.3,3.1-3.9,2.8c-4.6-0.8-4.6-0.6-9.3-1.4c-4.4-0.8-4.4-1-9-1.8c-1.9-0.3-2.9-2-2.6-3.9c0.8-4.4-0.1-1.7,0.6-6.2
		c0.8-4.4,1-4.4,1.7-8.6c0.6-3.6,0-6.3-1.5-8.5c-1.6-2.2-3.8-4.1-7.4-4.7c-3.6-0.6-6.7-0.1-8.9,1.5c-2.2,1.6-3.6,4.3-4.2,7.9
		c-0.7,3.8-1.1,3.7-1.7,7.5c-0.7,3.8,0,3.9-0.7,7.7c-0.7,4-0.7,4-1.4,7.8c-0.7,3.8-1.1,3.7-1.7,7.5c-0.7,4-0.3,4.1-0.9,7.8
		c-0.7,3.8-0.9,3.7-1.5,7.5c-0.7,3.8-0.7,3.8-1.4,7.8c-0.7,3.8-0.9,3.7-1.5,7.5c-0.7,3.8-0.4,3.8-1.1,7.8c-0.7,3.8-0.4,3.8-1.1,7.6
		c-0.6,3.6,0,6.3,1.5,8.5s3.9,3.7,7.4,4.3c3.4,0.6,6.5,0,8.6-1.3c2.2-1.6,3.3-4.2,3.9-7.7c0.6-3.4,1.2-3.2,1.8-6.6
		c0.6-3.6,0.4-3.4,1-6.9c0.8-3.3-0.1,0.4,0.5-2.9c0.3-1.9-1.1-3.6-2.8-3.9c-2.7-0.5-2.7-0.7-5.4-1.2c-1.9-0.3-3.2-1.6-2.8-3.5
		c0.7-4.2,0.7-4.2,1.5-8.6c0.8-4.4,0.6-4.4,1.3-8.8c0.3-1.7,2.3-3.1,4.1-2.7c3.6,0.6,3.6,0.4,7.4,1.1c3.8,0.7,3.7,0.9,7.5,1.5
		c3.8,0.7,3.7,0.9,7.5,1.5c3.8,0.7,3.8,0.2,7.6,0.9c1.9,0.3,3,2.5,2.7,4.1c-0.6,3.6-0.6,3.6-1.2,7.1c-0.6,3.6-0.6,3.6-1.2,7.1
		c-0.6,3.6-0.6,3.6-1.2,7.1c-0.6,3.6,0.2-0.2-0.4,3.4c-0.7,3.8-0.7,3.8-1.3,7.3c-0.6,3.6-0.6,3.6-1.2,7.1c-0.4,2.5-1.3,4.8-1.9,7
		c-0.9,2.4-1.9,4.6-2.9,6.8c-1.2,2.2-2.9,4-4.5,5.9c-1.6,1.9-3.2,3.5-5.4,4.9c-2,1.4-4.1,2.3-6.4,3.2c-2.3,0.9-4.5,2-6.9,2.5
		c-2.5,0.4-4.8,0.5-7.4,0.4c-2.4,0-4.8-0.8-7.3-1.3c-2.5-0.4-4.8-1.1-7-1.9c-2.5-0.7-5-1.1-7.2-2.3c-2.2-1-4.3-2.5-6-4.1
		c-1.9-1.6-3.7-3.7-5.1-5.6c-1.4-2-2.5-4.1-3.4-6.4c-0.9-2.3-1.1-4.7-1.5-7.2c-0.2-2.4-0.9-4.9-0.9-7.5c0.2-2.3,0.4-4.7,0.8-7.2
		c0.7-3.8,0.7-3.8,1.3-7.3c0.7-3.8,1.1-3.7,1.7-7.5c0.6-3.6,0.4-3.6,1.1-7.4c0.6-3.6,0.6-3.6,1.3-7.3c0.7-3.8,0.5-3.8,1.1-7.4
		c0.7-3.8,0.4-3.8,1.1-7.4c0.7-3.8,1.1-3.7,1.7-7.5c0.6-3.6,0.2-3.6,0.9-7.4c0.6-3.6,0.8-3.5,1.5-7.3c0.7-3.8,0.7-3.8,1.3-7.3
		c0.4-2.5,0.9-5,1.7-7.3c0.9-2.4,2.3-4.4,3.5-6.5c1-2.2,2.3-4.6,3.9-6.2c1.6-1.9,3.2-3.8,5.2-5.1c2-1.4,4.4-2.7,6.7-3.6
		c2.1-0.7,4.7-0.9,7.1-1.3c2.5-0.4,4.7-0.9,7.3-0.9c2.4,0,4.9,0.4,7.4,0.9c2.5,0.4,4.7,1.5,6.9,2.3c2.4,0.9,5,1.3,7.2,2.3
		c2.2,1.2,3.8,3,5.7,4.7c1.9,1.6,3.3,3.4,4.7,5.4c1.6,2.2,3.2,4,4.1,6.3c0.9,2.1,1.4,4.6,1.5,7.2c0.5,2.2,0.5,4.6,0.5,7.2
		c0,2.4,0,5-0.4,7.5c-0.7,4-1.3,3.9-2.1,8.1C792.8,668.5,793.9,665.9,793.2,669.9z M512.2,595.7c-1.2-1.5-3.3-1.9-5.2-2.2
		c-4.6-0.8-4.5-1.2-9.1-2c-1.9-0.3-3.4,0.9-3.7,2.8c-0.6,3.6-0.8,3.5-1.5,7.1c-0.6,3.4-0.4,3.4-1,7c-0.6,3.6-0.6,3.6-1.2,7.1
		c-0.6,3.6-0.6,3.6-1.2,7.1c-0.6,3.4-0.4,3.4-1,7c-0.6,3.6-0.6,3.6-1.2,7.1c-0.3,1.7,0.4,2.7,2.2,2.1c3.4-1.1,3.6-1.1,7.1-2.2
		c3.2-1,6-2.4,8.7-3.9c2.5-1.7,4.5-3.7,5.2-7.5c0.8-4.6,0.8-4.6,1.7-9.4c0.8-4.6,0.6-4.6,1.4-9.5
		C513.7,603.1,514.6,598.3,512.2,595.7z M598.2,620.5c0.6-3.6,0.5-6.6-1-8.8c-1.6-2.2-4.3-4-7.8-4.6c-3.4-0.6-6.1,0.4-8.3,2
		c-2.3,1.8-4.2,4-4.8,7.6c-0.7,3.8-0.4,3.8-1.1,7.6c-0.7,3.8-0.9,3.7-1.5,7.5c-0.7,4-0.5,4-1.1,7.8c-0.7,3.8-0.7,3.8-1.3,7.5
		c-0.7,4-0.5,4-1.1,7.8c-0.7,3.8-0.7,3.8-1.3,7.5c-0.7,3.8-0.7,3.8-1.3,7.5c-0.7,4-0.9,3.9-1.6,7.7c-0.7,3.8-0.9,3.7-1.6,7.7
		c-0.7,3.8-0.2,3.8-0.9,7.6c-0.6,3.6-0.3,6.4,1.3,8.6c1.6,2.2,4.1,3.7,7.4,4.3c3.6,0.6,6.5-0.2,8.7-1.7c2.2-1.6,3.7-3.9,4.3-7.5
		c0.7-3.8,0.4-3.8,1.1-7.6c0.7-3.8,0.7-3.8,1.4-7.8c0.7-3.8,0.7-3.8,1.3-7.5c0.7-3.8,0.9-3.7,1.6-7.7c0.7-3.8,0.7-3.8,1.3-7.5
		c0.7-3.8,0.9-3.7,1.6-7.7c0.7-3.8,0.7-3.8,1.3-7.5c0.7-3.8,0.9-3.7,1.5-7.5c0.7-4,0.1-4.1,0.7-7.9
		C597.5,624.2,597.5,624.2,598.2,620.5z"/>
	
		<rect x="243.9" y="413.9" transform="matrix(0.9777 0.2101 -0.2101 0.9777 96.4572 -65.9743)" class="st2" width="229.7" height="14"/>
	
		<rect x="243.1" y="444.3" transform="matrix(0.9777 0.2101 -0.2101 0.9777 102.8194 -65.1259)" class="st1" width="229.7" height="14"/>
	
		<rect x="243.1" y="475" transform="matrix(0.9777 0.2101 -0.2101 0.9777 109.2662 -64.441)" class="st0" width="229.7" height="14"/>
	
		<rect x="605.7" y="483" transform="matrix(0.9777 0.2101 -0.2101 0.9777 119.0356 -140.4544)" class="st2" width="229.7" height="14"/>
	
		<rect x="604.9" y="513.3" transform="matrix(0.9777 0.2101 -0.2101 0.9777 125.3979 -139.606)" class="st1" width="229.7" height="14"/>
	
		<rect x="604.9" y="544" transform="matrix(0.9777 0.2101 -0.2101 0.9777 131.8446 -138.9211)" class="st0" width="229.7" height="14"/>
</g>
</svg>
