<?xml version="1.0" encoding="utf-8"?>
<!-- Generator: Adobe Illustrator 22.0.0, SVG Export Plug-In . SVG Version: 6.00 Build 0)  -->
<svg version="1.1" id="Layer_1" xmlns="http://www.w3.org/2000/svg" xmlns:xlink="http://www.w3.org/1999/xlink" x="0px" y="0px"
	 viewBox="0 0 1080 1080" style="enable-background:new 0 0 1080 1080;" xml:space="preserve">
<style type="text/css">
	.st0{fill:#FF3C95;}
	.st1{fill:#0153A5;}
	.st2{fill:#FCB8D6;}
</style>
<g>
	<g>
		<path class="st0" d="M1002.1,871.3c-0.9-5.6-4.2-9.6-9.9-11.7c-4-1.4-7.2-1.3-9.8,0.2c-0.6,0.4-1.3,0.6-1.9,0.8
			c-2.2,0.8-5.5,1.4-9.9,2c-0.3,0-7,0.8-20.1,2.5c-22.8,2.3-37,4-42.5,5.1c-2.4,0.5-3.7,1.7-4,3.6c-0.2,2,0.4,3.8,2,5.6
			c1.6,1.8,3.2,2.7,5,2.8c7.7,0.6,22,0.9,43,1c13.7,0.3,20.7,0.4,21,0.4c0.5,0,1.9,0.1,4.2,0.3c2.3,0.2,3.9,0.3,4.9,0.2
			c1,0,2.3-0.1,4.1-0.2c1.8-0.1,3.4-0.3,4.7-0.7c1.4-0.4,2.7-0.9,3.9-1.7C1001.1,879.4,1002.8,876,1002.1,871.3z"/>
		<path class="st0" d="M908.9,818.3c1.6-0.9,3.2-2,4.7-3.3c1.6-1.3,2.9-2.5,4-3.6c1.1-1.1,2.4-2.6,4-4.5c1.6-1.9,2.8-3.2,3.6-4.1
			c8.2-8.5,13.5-14,16-16.4c1.1-1,3.6-3.4,7.5-7c3.9-3.6,6.8-6.4,8.9-8.5c0.2-0.2,0.3-0.4,0.5-0.6c0.1-0.3,0.3-0.5,0.6-0.6
			c0.2-0.2,0.4-0.3,0.6-0.5c0.2-0.2,0.6-0.5,1.4-1l-0.5,0.3c0.8-0.5,1.9-1.3,3.3-2.5c1.4-1.1,2.3-1.9,2.8-2.2
			c0.5-0.3,0.8-0.6,0.9-0.8l0.3,0.2l0.7-0.3l2.8-2.3c0.5-0.3,0.8-0.6,0.9-0.8l1.7-1.1c0.6-0.4,1.3-1.1,2.1-2.3
			c4.6-5.9,4.7-12.1,0.3-18.6l0-0.2c-1.6-2.4-3.6-4.2-6.1-5.6l0-0.2l-0.3-0.2c-6.2-3.9-12.5-3.4-18.7,1.7c-0.2,0.2-0.5,0.5-0.9,1
			c-0.5,0.5-0.9,1.1-1.4,1.7c-0.5,0.6-0.8,1-0.9,1.1c-0.2,0.2-0.2,0.3-0.2,0.5c-1.7,2.4-2.6,3.7-2.7,4c0.2,0,0.1,0.3-0.2,1
			c-2.6,3.7-4.1,6.1-4.5,7.1l-0.2,0.3c-0.3,0.2-0.7,0.6-1.2,1.2c-0.5,0.6-0.8,1.1-0.9,1.4c-4.1,5.1-8.7,11.3-13.7,18.5
			c-1.5,2.2-3.7,5.4-6.6,9.6c-2.9,4.2-4.9,7.2-6.1,8.9c-0.8,1.2-1.9,2.9-3.5,5.3c-1.6,2.4-2.8,4.1-3.5,5.3c-0.3,0.5-0.8,1.3-1.6,2.4
			c-0.8,1.1-1.3,1.9-1.6,2.4c-0.9,1.8-1.5,3.9-1.9,6.2c-0.5,2.5,0.4,4.6,2.9,6.3C904.3,819.1,906.6,819.4,908.9,818.3z"/>
		<path class="st0" d="M985.8,989.6l-4.1-3.9l0.3,1c0.1,0.3,0.2,0.4,0.3,0.5c-0.2-0.2-0.6-0.5-1.1-1c-1.4-1.1-4-2.6-7.8-4.5l0.5,0
			l-1-0.7c-0.7-0.5-1.4-0.9-2.1-1.5c-0.8-0.5-1.2-0.8-1.4-0.8l-0.2,0l-0.3-0.2c-0.2-0.2-0.4-0.3-0.6-0.5c-0.2-0.1-0.5-0.3-0.6-0.6
			c-0.2-0.2-0.4-0.4-0.5-0.6c-3.9-3.2-9.9-8-18.1-14.5c-1.9-1.5-7.6-6.4-17.1-14.5c-0.9-0.8-2.6-2.4-5.3-5c-2.7-2.6-5-4.6-6.9-6
			c-1.9-1.4-4-2.7-6.2-3.7c-2.3-1.2-4.5-1.1-6.5,0.2c-2,1.3-2.5,3.3-1.5,6.1c0.7,1.8,1.7,3.6,3,5.5c1.2,1.9,2.3,3.4,3.3,4.6
			c1,1.2,2.4,2.9,4.3,5c1.9,2.2,3.2,3.7,3.9,4.4c1.7,2,4.3,5,7.8,8.9c3.5,3.9,6,6.9,7.8,8.9c4.8,5.8,10.1,11.5,15.7,17l1.8,1.6
			l0.3,0.2l0,0.2c0.2,0.5,0.5,1,1.1,1.7c0.5,0.6,1,1.2,1.4,1.6c0.4,0.5,0.9,1,1.5,1.5c0.6,0.5,1.1,1,1.4,1.5l0,0.2l-0.3-0.2
			c0.4,1.1,1.8,2.8,4.2,4.9l0.6,0.6c0.3,0.3,0.6,0.7,0.9,1.1c0.7,0.8,1.3,1.4,1.8,1.9c0.9,0.9,2.1,1.8,3.8,2.7
			c3,1.8,6.3,2.6,9.9,2.4c3.6-0.2,6.4-1.5,8.6-4.1c2.7-3.7,3.8-7.5,3.2-11.4C991,996.4,989,992.8,985.8,989.6z M962.2,1006.4
			l0.3,0.2l0.3,0.2c0.1,0.2,0.3,0.4,0.5,0.7L962.2,1006.4z M982.5,987.3C982.5,987.3,982.5,987.3,982.5,987.3
			C982.5,987.3,982.5,987.3,982.5,987.3z"/>
		<polygon class="st0" points="944.6,741.8 944.6,741.6 944.4,742.3 		"/>
		<polygon class="st0" points="122.2,723.5 122,722.8 122,723 		"/>
		<path class="st0" d="M166.3,892.4c-1.8-1.1-3.8-1-5.8,0.2c-1.9,1-3.7,2.3-5.3,3.7c-1.7,1.4-3.6,3.3-5.8,5.8
			c-2.2,2.4-3.7,4-4.4,4.8c-8.1,7.8-12.9,12.5-14.5,14c-6.9,6.2-12,10.9-15.4,14c-0.1,0.2-0.3,0.3-0.4,0.6c-0.1,0.2-0.3,0.4-0.5,0.6
			c-0.2,0.2-0.4,0.3-0.5,0.4l-0.2,0.2l-0.2,0c-0.1,0-0.5,0.3-1.2,0.8c-0.6,0.5-1.3,1-1.8,1.4l-0.9,0.7l0.4,0
			c-3.3,1.9-5.6,3.4-6.7,4.5c-0.4,0.4-0.7,0.8-0.9,0.9c0.1-0.1,0.1-0.3,0.3-0.5l0.2-0.9l-3.5,3.8c-2.7,3.1-4.3,6.4-4.6,9.9
			c-0.3,3.5,0.9,6.8,3.5,10c2.1,2.2,4.7,3.2,7.9,3.2c3.2,0,6.1-1,8.7-2.7c1.5-0.9,2.5-1.8,3.2-2.7c0.4-0.4,0.9-1,1.5-1.8
			c0.3-0.4,0.5-0.7,0.8-1l0.5-0.5c2-2.1,3.2-3.6,3.4-4.6l-0.2,0.2l0-0.2c0.3-0.4,0.7-0.9,1.2-1.4c0.5-0.5,0.9-1,1.3-1.4
			c0.4-0.4,0.8-1,1.2-1.5c0.4-0.6,0.7-1.1,0.9-1.5l0-0.2l0.2-0.2l1.5-1.6c4.7-5.3,9.1-10.7,13.1-16.1c1.4-1.9,3.6-4.7,6.5-8.4
			c2.9-3.7,5-6.5,6.5-8.4c0.6-0.7,1.7-2.1,3.2-4.2c1.6-2.1,2.8-3.6,3.6-4.8c0.8-1.1,1.7-2.5,2.7-4.3c1-1.8,1.8-3.5,2.3-5.1
			C168.7,895.3,168.2,893.5,166.3,892.4z M101.9,945C101.9,945,101.9,945,101.9,945C101.9,945.1,101.8,945.1,101.9,945z M120.3,962
			c0.2-0.2,0.3-0.4,0.4-0.6l0.2-0.2l0.2-0.2L120.3,962z"/>
		<path class="st0" d="M95.1,737.8c0.7,1,1.4,1.7,2,1.9l1.5,0.9c0.2,0.1,0.4,0.4,0.9,0.6l2.6,1.9l0.7,0.2l0.2-0.2
			c0.2,0.1,0.4,0.4,0.9,0.6c0.4,0.3,1.3,0.9,2.6,1.8c1.3,0.9,2.4,1.6,3.1,2l-0.4-0.2c0.7,0.4,1.2,0.7,1.3,0.9
			c0.1,0.1,0.3,0.3,0.6,0.4c0.2,0.1,0.4,0.3,0.6,0.5c0.1,0.2,0.3,0.4,0.4,0.5c1.9,1.7,4.7,4.1,8.4,7.1c3.7,3,6.1,5,7.1,5.8
			c2.4,2,7.5,6.6,15.3,13.8c0.7,0.7,1.9,1.9,3.4,3.5c1.6,1.6,2.8,2.8,3.9,3.8c1,0.9,2.3,1.9,3.8,3c1.5,1.1,2.9,2,4.4,2.7
			c2.1,0.8,4.1,0.4,6.2-1.3c2.1-1.7,2.8-3.7,2.2-5.8c-0.5-2-1.1-3.8-2-5.4c-0.3-0.4-0.8-1.1-1.6-2.1c-0.7-0.9-1.3-1.6-1.6-2.1
			c-0.7-1-1.9-2.5-3.5-4.6c-1.6-2-2.7-3.5-3.4-4.6c-1.2-1.4-3.2-4-6-7.6c-2.8-3.6-5-6.4-6.5-8.2c-4.9-6.2-9.3-11.5-13.3-15.8
			c-0.1-0.3-0.4-0.7-0.9-1.2c-0.4-0.5-0.8-0.8-1.1-1l-0.2-0.2c-0.4-0.9-1.9-2.9-4.5-6.1c-0.3-0.6-0.4-0.9-0.2-0.9
			c-0.1-0.3-1-1.4-2.7-3.5c0-0.1-0.1-0.3-0.2-0.4c-0.1-0.1-0.4-0.5-0.9-1c-0.4-0.5-0.9-1-1.3-1.4c-0.4-0.4-0.7-0.7-0.9-0.9
			c-5.9-4.2-11.5-4.3-16.9-0.4l-0.2,0.2l0,0.2c-2.2,1.3-3.9,3.1-5.2,5.3l0,0.2C90.2,727.2,90.6,732.8,95.1,737.8z"/>
		<path class="st0" d="M98.9,852.3c2-0.3,3.3-0.5,3.7-0.5c0.3,0,6.6-0.5,18.8-1.6c18.8-1.3,31.6-2.4,38.5-3.3
			c1.6-0.2,3.1-1.1,4.3-2.8c1.3-1.7,1.8-3.4,1.5-5.2c-0.3-1.7-1.6-2.8-3.8-3c-5-0.7-17.7-1.4-38.3-2.1c-11.8-0.7-17.9-1.1-18.2-1.1
			c-3.9-0.2-6.9-0.6-9-1.2c-0.6-0.1-1.2-0.3-1.8-0.6c-2.3-1.3-5.3-1.2-8.8,0.3c-4.9,2.3-7.7,5.9-8.2,11c-0.4,4.2,1.3,7.2,5.1,8.9
			c1.2,0.6,2.4,1,3.6,1.3s2.7,0.4,4.3,0.4c1.6,0,2.8,0,3.7,0C95.4,852.7,96.9,852.6,98.9,852.3z"/>
		<path class="st0" d="M274.7,639.1L130,644.8c-12.4,0.5-22.1,10.9-21.6,23.3c0.5,12.1,10.4,21.6,22.4,21.6c0.3,0,0.6,0,0.9,0
			l51.4-2c0.3,50.2,1.5,179.4,6.9,269c0.7,11.9,10.6,21.1,22.4,21.1c0.5,0,0.9,0,1.4,0c12.4-0.7,21.8-11.4,21.1-23.8
			c-5.4-89.5-6.6-219.4-6.8-268l48.4-1.9c12.4-0.5,22.1-10.9,21.6-23.3C297.6,648.2,287.3,638.5,274.7,639.1z"/>
		<path class="st0" d="M374.6,631.4c-32.3,1.2-58,31.1-68.8,79.8c-17.8,80.4,2.1,240.4,3,247.2c1.4,11.4,11.1,19.7,22.3,19.7
			c0.9,0,1.9-0.1,2.8-0.2c12.3-1.6,21-12.8,19.5-25.1c-0.1-0.6-3.4-27.1-6.2-63.1l66.1-0.3c-1.3,34.8-3.4,60-3.5,60.7
			c-1.1,12.4,8.1,23.3,20.4,24.3c12.4,1.1,23.3-8.1,24.3-20.4c0.6-7,14.7-173.6-9.4-253.1C431.8,656.2,405.5,630.4,374.6,631.4z
			 M414.4,844.5l-69.9,0.4c-2-44.1-1.8-92.1,5.2-123.9c7.1-32,20.1-44.4,26.6-44.6c5.8-0.3,17.5,9.8,25.9,37.5
			C412.1,746.3,414.6,797.8,414.4,844.5z"/>
		<path class="st0" d="M530.8,657.4c0-12.4-10-22.5-22.4-22.6c0,0-0.1,0-0.1,0c-12.4,0-22.4,10-22.5,22.4c0,1.9-0.6,186.6,6.2,299.3
			c0.7,11.9,10.6,21.1,22.4,21.1c0.5,0,0.9,0,1.4,0c12.4-0.7,21.8-11.4,21.1-23.8C530.1,842.6,530.8,659.3,530.8,657.4z"/>
		<path class="st0" d="M704.7,927.5l-80.9,4.1c-5.5-110.9-5.6-263.5-5.6-265.1c0-12.4-10.1-22.5-22.5-22.5c0,0,0,0,0,0
			c-12.4,0-22.5,10.1-22.5,22.5c0,1.8,0.1,177.3,6.9,290c0.7,11.9,10.6,21.1,22.4,21.1c0.4,0,0.8,0,1.2,0l103.3-5.3
			c12.4-0.6,21.9-11.2,21.3-23.6C727.7,936.4,717.1,926.8,704.7,927.5z"/>
		<path class="st0" d="M811,697.6c2.7-6,9.1-15.9,20.2-15.1c25.4,1.6,23.7,42.7,23.6,44.8c-0.7,12.3,8.7,22.9,21.1,23.7
			c12.5,0.7,23-8.7,23.8-21.1c1.8-30.3-9.6-88.6-65.6-92.2c-27.3-1.8-51.2,13.7-63.9,41.2c-15.9,34.5-12.9,88.8,29.4,132.3
			c54.2,55.7,55.2,80,50.9,106c-1.1,6.4-12.6,14.2-25.3,14.4c-13.8,0.3-22.7-8.2-25.9-24.9c-2.3-12.2-14.1-20.2-26.3-17.9
			c-12.2,2.3-20.2,14.1-17.9,26.3c8.6,45.3,41.5,61.4,69.7,61.4c0.3,0,0.6,0,0.9,0c34.5-0.4,64.2-22.7,69.1-51.9
			c8.3-49.8-8.8-89-63-144.7C804.5,751.6,801.9,717.4,811,697.6z"/>
	</g>
	<g>
		<path class="st1" d="M246.1,333.1c-16.3,33.1-42.1,52.5-69.5,52.5c-1,0-2.1,0-3.1-0.1c-18.3-1-52.4-11.7-74.7-72.8
			c-23.8-65-22.2-156.8,3.4-204.6c13.5-25.2,30.9-34,43.1-36.9c46.1-11.1,74.4,22.7,83,42.1c4.7,10.6-0.2,23.1-10.8,27.7
			c-10.6,4.7-22.9-0.1-27.7-10.6c-1.9-4.1-12.4-23.7-34.7-18.3c-7,1.7-12.5,9.6-15.9,15.9c-20,37.3-20.5,116.9-1,170.2
			c9.9,27.2,24.2,44.5,37.4,45.2c11,0.6,23.4-10.5,32.6-29c5.1-10.4,17.7-14.7,28.2-9.6C247,310.1,251.3,322.7,246.1,333.1z"/>
		<path class="st1" d="M419.4,366.3c-1,11.6-11.2,20.2-22.8,19.2c-11.6-1-20.2-11.2-19.2-22.8c0.1-0.6,2-24.3,3.3-56.8l-61.9,0.3
			c2.6,33.7,5.7,58.5,5.8,59.1c1.5,11.5-6.7,22.1-18.2,23.5c-0.9,0.1-1.8,0.2-2.7,0.2c-10.4,0-19.5-7.8-20.9-18.4
			c-0.8-6.3-19.5-156.2-2.8-231.5c10.1-45.6,34.2-73.6,64.4-74.8c28.9-1,53.5,23.2,66.2,65C433.1,203.7,420,359.7,419.4,366.3z
			 M381.6,263.8c0.2-43.7-2.1-91.9-11.3-122.3c-7.9-26-18.9-35.4-24.3-35.1c-6.1,0.2-18.3,11.8-24.9,41.8
			c-6.6,29.8-6.8,74.7-4.9,116L381.6,263.8z"/>
		<path class="st1" d="M615.2,366.7c-0.2,11.5-9.6,20.6-21,20.6c-0.1,0-0.3,0-0.4,0c-11.6-0.2-20.9-9.8-20.6-21.4
			c0-1.5,2.9-152.7-5.8-207c-3.2-19.8-11.1-33.7-21.7-38.2c-8.6-3.6-19.4-1.2-30.3,6.7c-19,13.7-22,46-21.5,56.3
			c0,0.8-0.1,1.6-0.1,2.3c0.8,55.2,2.4,125.7,5.7,180.3c0.7,11.6-8.1,21.6-19.7,22.3c-0.4,0-0.9,0-1.3,0c-11,0-20.3-8.6-21-19.8
			c-6.4-105.6-6.5-270-6.5-271.6c0-11.6,9.4-21.1,21-21.1c0,0,0,0,0,0c9.9,0,18.2,6.9,20.4,16.1c22.5-15.6,47.8-19.4,69.6-10.4
			c24.8,10.3,41.5,35.3,47.1,70.4C618.1,210.2,615.3,360.3,615.2,366.7z"/>
		<path class="st1" d="M766.4,349.5c-36,37-84.5,39.1-95,39.1c-1.1,0-1.8,0-2,0c-10.8-0.4-19.5-9-20.2-19.8
			c-6.4-105.6-6.5-270-6.5-271.6c0-9.2,6-17.4,14.9-20.1c2-0.6,48.3-14.4,89.5,14c33.8,23.2,53.1,66.5,57.4,128.6
			C808.3,275.8,795.5,319.5,766.4,349.5z M762.5,222.5c-3.2-47.7-16.7-81.1-38.8-96.5c-13.3-9.3-28.1-11-38.8-10.7
			c0.2,41.7,1.1,147.3,5.2,229.1c13.6-2.8,31.9-9.4,46.5-24.6C756.7,298.8,765.4,266.1,762.5,222.5z"/>
		<path class="st1" d="M997.4,182.2c-0.4,42.7-3.5,92.2-13.6,129.4c-11.8,43.1-39.7,70.6-74.7,73.5c-2,0.2-4,0.2-6,0.2
			c-27.6,0-52.9-15.6-64.2-40.3c-4.8-10.6-0.2-23.1,10.4-27.9c10.6-4.8,23.1-0.2,27.9,10.4c4.6,10,16.6,16.6,28.4,15.6
			c16.8-1.4,30.5-16.9,37.5-42.6c1.3-4.8,2.5-10,3.6-15.3c-10.4,4.8-21.8,7.6-33.4,7.6c-2.8,0-5.7-0.2-8.5-0.5
			c-30.5-3.5-54-24.4-64.5-57.5c-15.9-52-4.4-143.1-3.9-147c1.5-11.5,12.1-19.7,23.6-18.2c11.5,1.5,19.7,12,18.2,23.6
			c-3.1,23.8-8.6,93.3,2.3,129.1c5.3,16.8,15.4,26.6,29,28.2c13.7,1.6,28.3-5.7,35-17.2c6.3-10.7,9.5-30.2,10.7-50.9
			c0.4-47.6-2.6-87.2-2.7-87.9c-0.9-11.6,7.7-21.7,19.3-22.6c11.6-0.9,21.7,7.7,22.6,19.3c0.1,1.5,1,12.7,1.7,29.7
			C997,128.5,998.9,153.9,997.4,182.2z"/>
	</g>
	<g>
		<path class="st2" d="M209.8,459.5c-1-13.7-5.2-19.6-12.6-17.5c-2,0.5-3.4,1.8-4.2,4c-0.8,2.2-0.6,4.1,0.4,5.9
			c1.3,2.3,3.4,3.9,6.5,5c1,0.3,1.6,1,1.7,2.1c0.1,1.1,0.1,4-0.2,8.6c-0.3,4.6-0.6,7.9-1,9.9c-0.4,2-1.3,4.4-2.9,7.2
			c-2.5,5.1-5.8,9.3-9.9,12.8c-4.1,3.4-10.3,7.2-18.7,11.2c-10.7,5.1-18.1,10-22.3,14.7c-4.2,4.7-6.4,10.4-6.7,17
			c0,2.5,0.2,4.3,0.6,5.3c0.4,1,1.5,2.3,3.2,3.8c2.8,2.8,5.7,3.9,8.6,3.4c2.9-0.5,4.9-2.5,5.9-6.1c0.5-2,0-3.9-1.5-5.7
			c-1.5-1.8-3.3-2.7-5.3-2.7c-2,0-3.1-0.4-3.1-1.1c0-1.3,1.1-3.4,3.4-6.5c2.3-3,4.2-5.2,5.7-6.5c1-0.8,3.2-2,6.7-3.8
			c3.4-1.8,6.9-3.6,10.5-5.3c3.6-1.8,6.8-3.3,9.7-4.6c2.9-1.3,4.5-1.8,4.8-1.5c0.3,0.3,0.7,1.1,1.3,2.7c0.6,1.5,1.3,3.4,1.9,5.7
			c0.6,2.3,1.2,4.7,1.7,7.2c0.5,2.5,0.8,4.7,0.8,6.5c0.3,4.1,0.1,8.3-0.6,12.8c-0.6,4.4-1.7,8.8-3.2,13.2c-1.5,4.3-3.4,8.4-5.7,12.2
			c-2.3,3.8-4.7,7-7.2,9.5c-3.6,3.6-7.6,6.5-12,8.8c-4.4,2.3-8.5,3.4-12,3.4c-2.8,0-5.9-0.7-9.3-2.1c-3.4-1.4-6.8-3.3-10.1-5.7
			c-3.3-2.4-6.4-5.1-9.3-8.2c-2.9-3-5.3-6.2-7.1-9.5c-4.3-7.9-6.4-17.1-6.3-27.6c0.1-10.5,2.3-20.3,6.7-29.2c2.5-5.1,5.1-9,7.8-11.8
			c2.7-2.8,5.9-5.2,9.7-7.2c2.8-1.5,5.1-2.4,6.9-2.7c1.8-0.3,4.8-0.4,9.1-0.4c4.3,0,7.1-0.1,8.4-0.4c1.3-0.3,2.2-0.9,2.7-1.9
			c1.8-3.6-0.4-6.1-6.5-7.6c-4.1-1.3-7.1-2.6-9.1-4c-2-1.4-4.8-3.9-8.4-7.4c-2.8-3-4.6-5.5-5.5-7.2c-0.9-1.8-2-4.4-3.2-8
			c-4.3-13.5-3.6-25.8,2.3-37c1.3-2.5,3.3-5.1,6.1-7.8c2.8-2.7,5.1-4.3,6.9-4.8c2.3-0.5,5.4,0,9.3,1.5c3.9,1.5,6.9,3.3,9,5.3
			c3.3,3.6,5.5,8.3,6.7,14.1c1.1,5.8,1,11.7-0.6,17.5c-0.5,2.3-0.8,3.8-0.8,4.4c0,0.6,0.5,1.3,1.5,2.1c2,1.5,3.8,1.2,5.3-1
			c1.5-2.2,2.5-5.3,3.1-9.3c0.5-4.1,0.4-8.4-0.2-13.2c-0.6-4.7-1.8-9-3.6-12.8c-2.8-5.3-6.5-9.4-11.2-12.2
			c-4.7-2.8-9.9-4.4-15.6-4.8c-5.7-0.4-11.6,0.5-17.5,2.7c-6,2.2-11.5,5.7-16.6,10.5c-6.1,5.8-10.5,13.6-13.3,23.3
			c-1.3,4.1-1.8,9-1.5,14.9c0.3,5.8,1.1,10.5,2.7,14.1c1.3,2.8,3.7,6.2,7.2,10.1c3.6,3.9,6.7,6.8,9.5,8.6l3.4,2.3l-9.5,4.6
			c-6.4,3-11.4,6.4-15.1,10.1c-3.7,3.7-6.9,8.5-9.7,14.3c-4.8,9.7-7.2,19.7-7.2,30.1c0,10.4,2.3,20.5,6.9,30.1
			c3.6,7.4,9.1,14,16.6,19.8c7.5,5.8,15.6,9.8,24.2,11.8c4.1,1,9.3,1.5,15.8,1.3c6.5-0.1,11.9-0.8,16.2-2.1c7.9-2,14.9-6,21.2-11.8
			c6.2-5.8,11.2-13.1,15.1-21.7c2-4.8,3.5-9.5,4.4-13.9c0.9-4.4,1.3-9.8,1.3-16.2c0-5.8-0.5-11.5-1.5-17c-1-5.5-2.4-9.8-4.2-13.2
			c-1-1.3-1.5-2.2-1.3-2.7c0.1-0.5,1.1-1.8,2.9-3.8C206.8,488.8,210.6,475.8,209.8,459.5z"/>
		<path class="st2" d="M997.5,510.4c-1-1.1-2.3-1.2-3.8-0.2c-0.5,0.3-1,1.1-1.5,2.7c-0.5,1.5-1,3.3-1.5,5.3
			c-1,6.1-2.4,13.2-4.2,21.2c-1.8,8-3.6,15.9-5.3,23.8c-1.8,7.9-3.5,15-5.1,21.3c-1.7,6.4-3,10.9-4,13.7c-2,5.8-4,10.7-5.9,14.7
			c-1.9,3.9-3.1,5.4-3.6,4.4c-1.3-2-2.5-6.6-3.8-13.7c-1.3-7.1-2.2-14.6-2.7-22.5c-0.5-5.3-0.8-11.9-0.8-19.8c0-7.9,0.2-16.2,0.6-25
			c0.4-8.8,0.9-17.7,1.5-26.9c0.6-9.1,1.3-17.5,2.1-25.2c0.8-7.9,1.3-14.6,1.7-20.2c0.4-5.6,0.4-12.3,0.2-20.2
			c0-5.6-0.1-10.1-0.4-13.5c-0.3-3.4-0.6-6.2-1.1-8.2c-0.5-2-1.2-3.7-2.1-5.1c-0.9-1.4-2.1-2.9-3.6-4.4c-4.6-4.1-10.9-5.6-19.1-4.6
			c-4.1,0.8-7.5,1.8-10.3,3c-2.8,1.3-6.4,3.6-10.7,6.9c-10.7,8.1-21.2,23-31.6,44.6c-10.4,21.6-19.4,47.6-27.1,78.1
			c-2.5,9.7-4.1,15.2-4.6,16.6c-0.5,1.4-1,0.8-1.5-1.7c0-0.8,0-2.3,0-4.8c0-2.4,0-5.5,0-9.3c0-3.8,0.1-8.1,0.2-13
			c0.1-4.8,0.2-9.8,0.2-14.9c0.2-14.7,0.4-26.4,0.6-34.9c0.1-8.5,0.1-15.1-0.2-19.6c-0.3-4.6-0.8-7.8-1.5-9.7
			c-0.8-1.9-1.8-3.5-3-4.8c-1.3-1-3.1-1.8-5.3-2.3c-2.3-0.5-4.6-0.7-6.9-0.6c-2.3,0.1-4.5,0.6-6.7,1.3c-2.2,0.8-3.6,1.8-4.4,3.1
			c-0.5,0.8-1,2.9-1.3,6.3c-0.4,3.4-0.8,7.8-1.1,13.2c-0.4,5.3-0.6,11.4-0.8,18.1c-0.1,6.7-0.2,13.8-0.2,21.2
			c0,7.9,0.1,15.4,0.4,22.6c0,0,0,0.1,0,0.1c-0.8,3.2-1.5,5.9-2.3,8.2c-2.8,8.9-6,15.9-9.7,21c-3.7,5.1-8.1,9-13.2,11.8
			c-2.5,1.3-4.4,2-5.7,2.3c-1.3,0.3-3.2,0.1-5.7-0.4c-1.8-0.3-3.3-0.4-4.6-0.6c-1.3-0.1-2-0.4-2.3-1c-0.8-0.8,0-4.4,2.3-11.1
			c2-6.9,3.6-13.8,4.6-20.8c1-7,1.8-15.6,2.3-25.7c0.8-18.3-0.5-33.9-3.6-46.7c-3.2-12.8-8.1-22.3-14.8-28.4
			c-9-8.6-17.3-9.4-24.9-2.3c-3.6,3.8-6.3,9.1-8.1,15.8c-1.8,6.7-2.7,15.7-2.7,26.9c0,19.8,2.2,37.2,6.5,52
			c4.3,14.9,10.7,26.7,19.1,35.6l6.9,7.6l-2.7,5c-2.3,4.1-5.3,7.7-9,10.9c-3.7,3.2-6.9,5.1-9.7,5.9c-2.8,0.8-4.8,0.9-5.9,0.4
			c-1.1-0.5-2.7-2.5-4.8-6.1c-5-8.9-8-19.5-8.9-31.8c-0.9-12.3,0.4-26,4-41c1.3-5.8,1.9-9.5,2.1-10.9c0.1-1.4-0.2-3-0.9-4.8
			c-2.3-4.8-7.4-7.4-15.5-7.6c-3.5-0.3-5.7-0.3-6.4,0c-0.8,0.3-2.1,1.4-4.2,3.4c-2,2-3.8,4.9-5.5,8.6c-1.6,3.7-3,7.8-4.2,12.4
			c-1.1,4.6-1.9,9.4-2.5,14.5c-0.5,5.1-0.6,10-0.4,14.9c0,0,0,0,0,0c-2.2,15.6-4.9,29.3-8.1,40.8c-3.8,13.8-8.1,23.5-13,29.1
			c-1.7,2.4-3.1,3.2-4,2.2c-1.2-1-2.6-3.5-4-7.5s-2.8-9.1-4-15.2c-0.5-2.4-0.9-4.7-1.3-6.8c-0.4-2.1-0.6-5.2-0.7-9.3
			c-0.1-4.1-0.2-10-0.2-17.6c0-7.6,0-18.1,0-31.5c0-7.6,0-15.1,0-22.5c0-7.4,0.1-14.3,0.2-20.5c0.1-6.2,0.2-11.6,0.4-16.1
			c0.1-4.5,0.2-7.7,0.2-9.7l1.1-13.5h6.6c13.7,0,23.2-3,28.6-9.2c3.2-3.9,3.3-7.7,0.4-11.4c-1.2-1.7-2.9-2.6-5.1-2.7
			c-2.2-0.1-3.9,0.5-5.1,2c-1.2,1.2-1.7,3.4-1.5,6.6l0.7,4.4l-5.1,1.1c-1.7,0.5-3.7,0.8-5.9,0.9c-2.2,0.1-4.2,0.2-6,0.2
			c-1.8,0-3.4-0.1-4.8-0.4c-1.3-0.2-2-0.6-2-1.1c0-0.2,0.1-1.6,0.2-4c0.1-2.4,0.4-5.2,0.9-8.4c0.7-9.3,0.5-15.6-0.5-19
			c-1.1-3.4-3.5-5.1-7.1-5.1c-2.7,0-5.6,0.6-8.6,1.8c-3.1,1.2-5.2,2.7-6.4,4.4c-0.5,0.7-0.9,1.3-1.3,1.8c-0.4,0.5-0.7,1.1-0.9,1.8
			v0.7c-0.2,0.2-0.6,3-1.1,8.2c-0.5,5.3-1.2,11.9-2.2,20c-5.1,0.2-10.3,0.3-15.4,0.2c-5.1-0.1-9.8-0.3-14.1-0.5
			c-4.3-0.2-7.8-0.5-10.4-0.9c-2.7-0.4-4-0.7-4-0.9c0-4.1,0.1-7.6,0.2-10.3c0.1-2.7,0.2-5.4,0.4-8.2c0.1-2.8,0.3-4.9,0.5-6.4
			c0.7-9.3,0.5-15.6-0.5-19c-1.1-3.4-3.5-5.1-7.1-5.1c-2.7,0-5.6,0.6-8.6,1.8c-3.1,1.2-5.2,2.7-6.4,4.4c-1.2,1.5-2,2.9-2.2,4.4
			c-0.2,1.5-0.4,5-0.4,10.6c0,1.5,0,3.6,0,6.4c0,2.8-0.1,5.5-0.2,8.1c-0.1,2.6-0.3,5.8-0.5,9.7c-0.2,0-1.6-0.3-4.2-0.9
			c-2.6-0.6-5.7-1.5-9.3-2.7c-20-5.9-32.1-4.9-36.2,2.9c-1.2,2.2-1.6,4.3-1.3,6.4c0.4,2.1,1.1,3.7,2.2,4.8c1.1,1.1,2.6,1.6,4.4,1.5
			c1.8-0.1,3.6-1,5.3-2.7c1.2-1.2,2-2.3,2.4-3.1c0.4-0.9,0.4-1.9,0.2-3.1c-0.5-1.2-0.5-2-0.2-2.4c0.4-0.4,1.5-0.5,3.5-0.5
			c1,0,3.3,0.4,7,1.3c3.7,0.9,7.6,1.9,11.7,3.1l14.6,4l-0.7,13.9c-1,21.2-1.6,39.7-2,55.3c0,1.5-0.1,2.9-0.1,4.3
			c-0.3,1-0.6,2.1-0.9,3.4c-0.5,2-1.1,4.6-1.9,7.8c-0.8,3.2-1.5,5.9-2.3,8.2c-2.8,8.9-6,15.9-9.7,21c-3.7,5.1-8.1,9-13.2,11.8
			c-2.5,1.3-4.4,2-5.7,2.3c-1.3,0.3-3.2,0.1-5.7-0.4c-1.8-0.3-3.3-0.4-4.6-0.6c-1.3-0.1-2-0.4-2.3-1c-0.8-0.8,0-4.4,2.3-11.1
			c2-6.9,3.6-13.8,4.6-20.8c1-7,1.8-15.6,2.3-25.7c0.8-18.3-0.5-33.9-3.6-46.7c-3.2-12.8-8.1-22.3-14.8-28.4
			c-9-8.6-17.3-9.4-24.9-2.3c-3.6,3.8-6.3,9.1-8.1,15.8c-1.8,6.7-2.7,15.7-2.7,26.9c0,19.8,2.2,37.2,6.5,52
			c4.3,14.9,10.7,26.7,19.1,35.6l6.9,7.6l-2.7,5c-2.3,4.1-5.3,7.7-9,10.9c-3.7,3.2-6.9,5.1-9.7,5.9c-2.8,0.8-4.8,0.9-5.9,0.4
			c-1.1-0.5-2.7-2.5-4.8-6.1c-5-8.9-8-19.5-8.9-31.8c-0.9-12.3,0.4-26,4-41c1.3-5.8,1.9-9.5,2.1-10.9c0.1-1.4-0.2-3-0.9-4.8
			c-2.3-4.8-7.4-7.4-15.5-7.6c-3.5-0.3-5.7-0.3-6.4,0c-0.8,0.3-2.1,1.4-4.2,3.4c-2,2-3.8,4.9-5.5,8.6c-1.6,3.7-3,7.8-4.2,12.4
			c-1.1,4.6-1.9,9.4-2.5,14.5c-0.1,0.7-0.1,1.5-0.1,2.2c-0.5,1.2-1.1,2.4-1.6,3.5c-2.9,6.1-5.6,11.9-8.2,17.3
			c-2.6,5.4-4.4,8.9-5.4,10.6c-12.3,20.2-24.3,32.3-35.9,36.2l-5.6,1.5l-4-6.4c-4.6-6.9-8.3-14.7-11.1-23.5
			c-2.8-8.8-4.6-18.1-5.4-28c-0.2-2.1-0.3-4-0.3-5.8c0-1.8,0.1-3.8,0.2-6.1c0.1-2.3,0.4-5.1,0.9-8.5c0.5-3.4,1.1-7.6,1.9-12.6
			c0.8-5.5,1.5-10,2-13.4c0.5-3.4,1.1-6.2,1.7-8.4c0.6-2.2,1.2-4.1,1.8-5.7c0.6-1.6,1.4-3.6,2.3-6c5.8-12.7,12.5-22.3,20.1-28.6
			c3.5-2.8,6.5-4.7,9-5.8c2.5-1,5.1-1.4,7.9-0.9c3.3,0.5,6.3,2.6,9.1,6.4c2.8,3.8,4.4,8.1,5,13.1c0.3,1.6,0.3,3.8,0,6.5
			c-0.3,2.8-0.7,5.7-1.1,8.7c-0.5,3-1,5.8-1.6,8.2c-0.6,2.5-1.1,4.1-1.5,4.8c-1.6,1.8-2,3.4-1.5,4.6c0.6,1.2,1.9,1.9,3.9,1.9
			c2,0.3,3.7-0.8,5.1-3.5c0.7-1.4,1.4-3.5,2.1-6.2c0.7-2.7,1.2-5.7,1.7-9c0.5-3.3,0.8-6.4,1-9.3c0.2-2.9,0.2-5.4,0-7.5
			c-1-7.3-3.4-13.4-7.3-18.1c-3.9-4.7-8.7-8-14.3-9.9c-5.6-1.9-11.8-2.2-18.6-0.9c-6.7,1.3-13.6,4.3-20.4,8.9
			c-21.5,14.7-34.8,39.2-40,73.4c-2.2,14.3-2.7,26.6-1.5,36.8c1.2,10.2,4.2,20.2,9.2,29.9c4.9,10,12.7,18,23.4,24
			c3.6,1.8,7.9,3.1,12.9,3.9c5.8,0.9,10.9,0.7,15.3-0.6c4.4-1.3,9.3-3.9,14.5-8c3.8-2.8,7.3-6,10.7-9.6c3.4-3.6,6.7-7.9,10-12.9
			c3.3-5,6.7-11,10.2-17.9c1.2-2.4,2.5-5.1,3.8-7.8c1.2,11.6,4.3,21.5,9.5,29.6c6.1,9.5,14.5,16.1,25.2,19.6
			c3.6,1.3,7.6,1.8,12.2,1.5c4.6-0.3,8.6-1.1,12.2-2.7c6.6-2.8,12.7-8.6,18.3-17.5c1.8-2.5,3.1-4.3,4-5.1c0.9-0.9,1.6-1.2,2.1-1
			c2,0.8,4.6,1.4,7.8,1.9c3.2,0.5,5.8,0.6,7.8,0.4c5.8-0.8,11.5-3.4,17-8c5.5-4.6,10-10.3,13.5-17.2c0.9-2.1,2-4.6,3.1-7.5
			c0,2.2,0.1,4.4,0.2,6.5c0.4,11.5,1,21.3,1.8,29.5c0.9,8.2,2.1,15.4,3.8,21.8c2,7.6,4.8,14.2,8.4,20c3.7,5.7,7.7,9.7,12.1,11.9
			c6.8,3.7,13.3,1.9,19.4-5.3c6.1-7.2,11.2-19.2,15.4-36.1c0.5-1.7,1.1-4.9,1.8-9.5c0.7-4.6,1.5-10.3,2.4-16.8
			c0.9-6.6,1.8-13.9,2.7-21.8c1-7.9,2-16.3,2.9-25.1c-0.2,9.3-0.3,17.5-0.2,24.7c0.1,7.2,0.4,13.6,0.9,19.2c0.5,5.6,1.2,10.7,2,15.4
			c0.9,4.6,1.9,9.2,3.1,13.5c2,7.6,4.8,14.2,8.4,20c3.7,5.7,7.7,9.7,12.1,11.9c6.8,3.7,13.3,1.9,19.4-5.3
			c6.1-7.2,11.2-19.2,15.4-36.1c1.1-4.1,2.2-9.4,3.4-15.6c1.5,4.6,3.5,8.9,6,12.7c6.1,9.5,14.5,16.1,25.2,19.6
			c3.6,1.3,7.6,1.8,12.2,1.5c4.6-0.3,8.6-1.1,12.2-2.7c6.6-2.8,12.7-8.6,18.3-17.5c1.8-2.5,3.1-4.3,4-5.1c0.9-0.9,1.6-1.2,2.1-1
			c2,0.8,4.6,1.4,7.8,1.9c3.2,0.5,5.8,0.6,7.8,0.4c5.8-0.8,11.5-3.4,17-8c5.5-4.6,10-10.3,13.5-17.2c0.5-1.2,1.1-2.6,1.7-4.1
			c0.1,0.6,0.1,1.2,0.2,1.8c1.3,13.7,3.2,25.2,5.7,34.3c1.8,6.1,3.2,9.7,4.2,10.9c1,1.1,3.6,1.2,7.6,0.2c6.9-1.5,11.2-3.9,13-7.2
			c0.5-0.5,1.3-2.7,2.3-6.7c1-3.9,2.2-8.3,3.4-13.2c6.1-28.5,13-53.1,20.6-73.9c7.6-20.8,16-38.4,25.2-52.6
			c4.3-6.6,8.9-12.1,13.7-16.4c4.8-4.3,8.4-6.1,10.7-5.3c1.8,0.5,3.2,3,4.2,7.4c1,4.4,1.6,10.5,1.9,18.1c0.3,7.6,0.1,16.6-0.4,26.9
			c-0.5,10.3-1.3,21.3-2.3,33c-2.8,25.9-3.8,47.9-2.9,65.9c0.9,18,3.5,31.8,7.8,41.2c4.1,8.9,8.6,14.6,13.7,17.2
			c2.8,1.3,4.8,2,5.9,2.1c1.1,0.1,3.1-0.4,5.9-1.7c5.1-2.5,9.7-8.6,13.9-18.1c4.2-9.5,8.6-23.9,13.2-43.3c3-13.5,5.7-25.3,7.8-35.6
			c2.2-10.3,3.2-16.6,3.2-18.9C999,513.3,998.5,511.6,997.5,510.4z M506,554.1c-1,2.5-1.8,4.8-2.5,6.7c-0.6,1.9-1.1,2.9-1.3,2.9
			c-0.5-0.3-1-0.8-1.5-1.5c-0.5-0.5-1.1-1.1-1.7-1.7c-0.6-0.6-1.2-1.3-1.7-2.1c-7.4-8.1-13-18.9-16.8-32.4
			c-3.8-13.5-5.8-29-6.1-46.5c0-9.7,0.4-17.1,1.3-22.3c0.9-5.2,2.5-9.8,4.8-13.9c3.6-6.3,8.5-7,14.9-1.9c5.6,4.6,9.8,12.3,12.8,23.1
			c2.9,10.8,4.4,24,4.4,39.5c0,10.4-0.5,19.6-1.5,27.4C509.9,539.1,508.3,546.7,506,554.1z M624.6,478.2
			c-1.1,11.1-2.2,21.5-3.3,31.1c-1.1,9.6-2,18-2.7,25.1c-0.7,7.1-1.2,11.4-1.5,12.8c-2.4,19.5-5.3,36.1-8.4,49.6
			c-3.2,13.5-7.2,23.1-12.1,28.7c-1.7,2.4-3.1,3.2-4,2.2c-1.2-1-2.6-3.5-4-7.5c-1.5-4-2.8-9.1-4-15.2c-0.5-2.4-0.9-4.7-1.3-6.8
			c-0.4-2.1-0.6-5.2-0.7-9.3c-0.1-4.1-0.2-10-0.2-17.6c0-7.6,0-18.1,0-31.5c0-7.6,0-15.6,0-24c0-8.4,0.1-16.4,0.2-23.8
			c0.1-7.4,0.2-14,0.4-19.6c0.1-5.6,0.2-9.4,0.2-11.4l1.1-13.5c5.1,0.5,10.4,0.7,15.7,0.7c4.4,0.2,9.2,0.2,14.3,0
			c5.1-0.2,9.8-0.6,13.9-1.1C626.9,456.7,625.7,467.1,624.6,478.2z M770.7,554.1c-1,2.5-1.8,4.8-2.5,6.7c-0.6,1.9-1.1,2.9-1.3,2.9
			c-0.5-0.3-1-0.8-1.5-1.5c-0.5-0.5-1.1-1.1-1.7-1.7c-0.6-0.6-1.2-1.3-1.7-2.1c-7.4-8.1-13-18.9-16.8-32.4
			c-3.8-13.5-5.8-29-6.1-46.5c0-9.7,0.4-17.1,1.3-22.3c0.9-5.2,2.5-9.8,4.8-13.9c3.6-6.3,8.5-7,14.9-1.9c5.6,4.6,9.8,12.3,12.8,23.1
			c2.9,10.8,4.4,24,4.4,39.5c0,10.4-0.5,19.6-1.5,27.4C774.7,539.1,773,546.7,770.7,554.1z"/>
	</g>
</g>
</svg>
