<?xml version="1.0" encoding="utf-8"?>
<!-- Generator: Adobe Illustrator 22.0.0, SVG Export Plug-In . SVG Version: 6.00 Build 0)  -->
<svg version="1.1" id="Layer_1" xmlns="http://www.w3.org/2000/svg" xmlns:xlink="http://www.w3.org/1999/xlink" x="0px" y="0px"
	 viewBox="0 0 1080 1080" style="enable-background:new 0 0 1080 1080;" xml:space="preserve">
<style type="text/css">
	.st0{fill:#11A652;}
	.st1{fill:#F24408;}
</style>
<g>
	<g>
		<path class="st0" d="M283.2,944c-0.5-0.6-0.9-1.3-1.1-2c0.4-1.4,1.5-2.4,2.9-2.6c1.2,0,9.7-3,13.8-4.9c2.5-1.1,4.4-2.6,7.8-5.9
			c3.1-2.7,5.6-6.1,7.4-9.8c4.8-8.9,11.2-27.8,15-44.1c2.3-9.8,5.1-19.4,8.4-28.9c1.3-4,3.6-10.9,4.9-15.3
			c3.2-10.3,5.7-17.7,8.4-25.3c2.7-7.6,5.2-15.8,5.2-17.4c0.2-1.5,0.5-3,0.9-4.4c3.8-13.1,5.2-18.4,7.3-27.4c1.4-5.9,1.4-6.5,1-11.9
			c-0.4-5.4-0.6-6.1-3.1-12.2c-3.1-7.4-4.5-9.6-9.4-14.8c-2.5-2.6-3.5-4.1-3.5-5c0-1.4,1.1-2.7,2.5-2.8c2,0.4,3.8,1.3,5.3,2.7
			c2,1.5,4.5,2.2,7,1.9c1.3-0.1,2.6,0,3.8,0.5c2.2,0.7,4.5,1.3,6.8,1.7c2.5,0.5,6.1,1.3,7.9,1.7c2.1,0.6,4.3,0.7,6.4,0.3
			c2-0.3,4.1-0.5,6.1-0.5c1.7,0.1,3.3-0.2,4.9-0.9c1.6-0.7,3.3-1,5-0.9c1.6,0.2,3.2-0.1,4.7-0.8c1.3-0.8,2-0.8,4.8-0.4
			c2.5,0.3,3.4,0.6,3.5,1.3c0.2,1-0.3,1.4-4.2,3.7c-3.9,2.3-9.4,7.3-10.5,9.5c-1.4,2.9-1,6.2,2.6,21.5c0.6,2.4,1.5,6.7,2,9.5
			c0.5,2.7,1.3,5.4,2.2,8c1.9,4.5,4.9,16,7.7,29.2c1.7,8.3,3.5,15.7,4.9,20.2c2.6,8.6,4.7,16.3,6.3,23.8c2.1,9.8,4.6,19.4,7.7,28.9
			c1.5,4.5,3.5,11.8,4.6,16c2.9,11.7,4.7,16.9,8.1,23.1c1.7,3.1,4.4,8.5,6,12.2c1.5,3.2,3.1,6.4,4.9,9.5c2,3.1,9.8,10.4,14.7,13.9
			c1.6,1.2,3.9,2.8,5,3.7c1.1,0.8,2.3,1.6,3.5,2.3c1.5,0.8,3,2.5,3,3.5c0,1.9-3.1,3.1-5,2c-1.8-1-15-5.4-23.5-7.7
			c-8.8-2.6-18-3.8-27.2-3.6c-7.9,0-10.8,0.2-15.8,1c-9.4,1.6-24.9,6.9-26.7,9c-1.5,1.8-4.9,0.2-4.9-2.3c0-1.8,6.5-7.6,10.6-9.6
			c5.4-2.5,12.4-6.6,14.5-8.5c2.3-2,3.7-5.2,4.3-9.5c0.4-2.9-0.2-8.9-1.7-18c-0.5-3.1-0.9-5.6-0.9-5.7c-0.8-0.5-1.7-1-2.6-1.4
			c-1.8-0.9-3.5-2-5.2-3.2c-4.2-3-14.6-6.7-24-8.7c-9.4-1.5-19-2.5-28.5-2.9h-2.9l-0.3,1.8c-0.7,4.5-1.8,22.6-1.6,25.9
			c0.3,4.4,1.8,7.9,6.1,14.7c3.4,5.2,4.6,6.2,10.2,9.1c1.6,0.8,3.2,1.6,4.7,2.6c0.4,0.5,0.7,1.2,0.6,1.8c-0.1,0.7-0.4,1.3-0.9,1.7
			c-0.9,0.8-1.7,0.8-16.9,0.1c-24.6-1.2-39.4-0.9-56.3,1.2l-8.2,1L283.2,944z M349.6,872.5c1.9,0.8,3.8,1.5,5.8,1.9
			c0.7,0.1,4.8,0.2,9.3,0.3c4.4,0.2,8.8-0.1,13.1-0.9c9.1-1.7,20.9-4.6,20.9-5c0,0-0.7-1.7-1.5-3.7c-1-2.5-1.8-5.1-2.4-7.8
			c-0.6-2.6-1.4-5.2-2.3-7.8c-0.8-2-1.7-4.4-2-5.3c-0.4-1-0.8-2.1-1.3-3.1c-0.6-1.9-1-3.9-1.1-6c-0.6-5.8-1.7-13.3-2.4-15.1
			c-0.3-0.7-0.9-3.3-1.5-5.8c-0.5-2.3-1.1-4.6-1.9-6.9c-0.6-1.6-1.1-3.2-1.5-4.9c-0.4-1.6-0.9-3.1-1.5-4.6c-0.7-1.8-1.2-3.7-1.4-5.6
			c-0.2-2-0.8-3.9-1.6-5.7l-1.2-2.3l-1.8,6.1c-3.5,11.7-6,21.4-7.3,27.8c-0.7,3.6-2.7,10.8-4.4,16c-1.7,5.2-3.4,11-3.9,12.9
			c-1,4.5-3.8,13.4-6.1,19.9C350.5,870,349.6,872.4,349.6,872.5z"/>
		<path class="st0" d="M584.5,947.2c-3.7-1.1-8.9-0.9-19.5,0.7c-1.9,0.3-8.4,0.6-14.6,0.8c-6.1,0.2-13.3,0.4-15.8,0.4
			c-2.9,0-5.7,0.5-8.4,1.4c-1.6,0.6-3.3,1-4.9,1.3c-1.4,0.2-2.8,0.5-4.2,1c-1.7,0.6-5.4,1.5-8.3,2.2c-5.2,1.2-10.2,3-15,5.3
			c-1.6,0.7-1.9,0.7-2.8,0c-1.3-1.1-1.4-3.1-0.3-4.4c1.1-1.6,5.5-4.2,7.8-4.6c3.7-0.7,14.2-7.8,19.8-13.4c7.2-7.1,10.2-12,12.8-20.8
			c2.3-7.6,3.1-18.2,1.9-23.6c-0.6-2.5-0.8-8.5-0.9-29.7c-0.1-14.6-0.1-29.1,0-32.3c0.3-9.1,0.3-14.2-0.1-41.2
			c-0.3-21.6-0.5-25.5-1.2-27.5c-0.6-1.7-0.8-3.7-0.7-7.4c0.1-6.9-0.6-11.2-2.7-15.2c-2.1-4-3.6-5.6-7.8-8.1
			c-2.9-1.7-10.3-4.1-15.6-5.1c-4.6-0.8-6-2.4-4.6-5.4c1.2-2.5,2.1-2.8,6.4-1.9c5.5,1.1,11.7,1.7,23.7,2.3c5.9,0.3,12.3,0.9,14.3,1
			c7.8,0.4,9-1.5,28.5-1.5c7.8,0,13.6-3.5,19.2-3.5c0.9,0-0.4,7-0.4,7c-2,1.1-4.1,2-6.3,2.6c-4.2,1.1-4.2,0.5-6.4,1.8
			c-2.3,1.4-2.9,2-5,3.3c-5.7,3.6-3.8,9.2-5.1,14.2c-2.1,7.9-2.8,18.3-1.7,24.1c0.3,1.3,0.7,5.7,1,9.7c0.3,4,0.6,9,0.8,11.2
			c0.3,4.2,0.3,9.2,0.1,18.7c-0.1,5.5-1,8.9-0.7,12.1c0.3,3.4,0.7,7,0.7,8c0,2-0.4,6.2-0.6,9.9c-0.1,1.1,0.5,4.1,0.1,5.2
			c-0.5,1.4,0.6,24.7,1.3,29.3c0.8,5.1,0.7,9.7-0.8,21.6c-0.8,5.6-0.7,11.2,0.2,16.8c1,6.8,1.8,9.2,3.9,12.8c1.5,2.5,2.2,3.1,4.3,4
			c1.4,0.6,3.5,1.5,4.6,2c1.8,0.7,3.7,1.2,5.6,1.4c1.9,0.2,3.9,0.6,5.8,1.1c1.7,0.5,5.4,0.7,16,0.6c12.9-0.1,14.1-0.2,17.5-1.2
			c5-1.5,12.9-5.8,15.4-8.4c2.8-2.9,9.9-12.4,10.7-14.5c0.9-2.2,5-19.1,5-20.8c0-2.6,2.9-13.3,4.7-17c1.9-4.2,3.2-5.2,5.3-4.4
			c2.6,1,2.6,1.2,2.6,34.1c0,25.5,0.1,31.1,0.7,35c0.7,4.3,1.5,9.7,2.1,14.3c0.5,4.2-3.3,4.9-11.6,2.3c-3.1-0.9-6.3-1.7-9.5-2.3
			c-2.8-0.5-5.5-1.2-8.1-2c-3.2-1.2-3.8-1.2-10.7-1c-4.7,0.2-9.4,0-14.1-0.5c-4.1-0.6-8.3-0.6-12.5-0.1
			C600.1,949.1,588.7,948.4,584.5,947.2z"/>
		<path class="st0" d="M770.4,947.2c-3.7-1.1-8.9-0.9-19.5,0.7c-1.9,0.3-8.4,0.6-14.6,0.8c-6.1,0.2-13.3,0.4-15.8,0.4
			c-2.9,0-5.7,0.5-8.4,1.4c-1.6,0.6-3.3,1-4.9,1.3c-1.4,0.2-2.8,0.5-4.2,1c-1.7,0.6-5.4,1.5-8.3,2.2c-5.2,1.2-10.2,3-15,5.3
			c-1.6,0.7-1.9,0.7-2.8,0c-1.3-1.1-1.4-3.1-0.3-4.4c1.1-1.6,5.5-4.2,7.8-4.6c3.7-0.7,14.2-7.8,19.8-13.4c7.2-7.1,10.2-12,12.8-20.8
			c2.3-7.6,3.1-18.2,1.9-23.6c-0.6-2.5-0.8-8.5-0.9-29.7c-0.1-14.6-0.1-29.1,0-32.3c0.3-9.1,0.3-14.2-0.1-41.2
			c-0.3-21.6-0.5-25.5-1.2-27.5c-0.6-1.7-0.8-3.7-0.7-7.4c0.1-6.9-0.6-11.2-2.7-15.2c-2.1-4-3.6-5.6-7.8-8.1
			c-2.9-1.7-10.3-4.1-15.6-5.1c-4.6-0.8-6-2.4-4.6-5.4c1.2-2.5,2.1-2.8,6.4-1.9c5.5,1.1,11.7,1.7,23.7,2.3c5.9,0.3,12.3,0.9,14.3,1
			c7.8,0.4,9-1.5,28.5-1.5c7.8,0,13.6-3.5,19.2-3.5c0.9,0-0.4,7-0.4,7c-2,1.1-4.1,2-6.3,2.6c-4.2,1.1-4.2,0.5-6.4,1.8
			c-2.3,1.4-2.9,2-5,3.3c-5.7,3.6-3.8,9.2-5.1,14.2c-2.1,7.9-2.8,18.3-1.7,24.1c0.3,1.3,0.7,5.7,1,9.7c0.3,4,0.6,9,0.8,11.2
			c0.3,4.2,0.3,9.2,0.1,18.7c-0.1,5.5-1,8.9-0.7,12.1c0.3,3.4,0.7,7,0.7,8c0,2-0.4,6.2-0.6,9.9c-0.1,1.1,0.5,4.1,0.1,5.2
			c-0.5,1.4,0.6,24.7,1.3,29.3c0.8,5.1,0.7,9.7-0.8,21.6c-0.8,5.6-0.7,11.2,0.2,16.8c1,6.8,1.8,9.2,3.9,12.8c1.5,2.5,2.2,3.1,4.3,4
			c1.4,0.6,3.5,1.5,4.6,2c1.8,0.7,3.7,1.2,5.6,1.4c1.9,0.2,3.9,0.6,5.8,1.1c1.7,0.5,5.4,0.7,16,0.6c12.9-0.1,14.1-0.2,17.5-1.2
			c5-1.5,12.9-5.8,15.4-8.4c2.8-2.9,9.9-12.4,10.7-14.5c0.9-2.2,5-19.1,5-20.8c0-2.6,2.9-13.3,4.7-17c1.9-4.2,3.2-5.2,5.3-4.4
			c2.6,1,2.6,1.2,2.6,34.1c0,25.5,0.1,31.1,0.7,35c0.7,4.3,1.5,9.7,2.1,14.3c0.5,4.2-3.3,4.9-11.6,2.3c-3.1-0.9-6.3-1.7-9.5-2.3
			c-2.8-0.5-5.5-1.2-8.1-2c-3.2-1.2-3.8-1.2-10.7-1c-4.7,0.2-9.4,0-14.1-0.5c-4.1-0.6-8.3-0.6-12.5-0.1
			C785.9,949.1,774.6,948.4,770.4,947.2z"/>
	</g>
	<g>
		<g>
			<path class="st0" d="M494.1,129.2c9.5,1,17.3,4.5,23.4,10.6s10.9,13.4,14.2,21.9c3.4,8.5,5.7,17,6.9,25.4
				c3.2,21.5,3.6,43.1,1.2,64.7c-2.3,24.6-7.5,48.4-15.8,71.6c-3.6,10.3-8,20.2-13.2,29.8c-5.1,9.6-11.3,18.5-18.6,26.7
				c-5.9,6.7-12.8,12.3-20.7,16.7c-7.9,4.4-16.4,6.6-25.5,6.6c-0.1,0-0.1,0-0.2,0h-0.1c-1.1,0.3-2.2,0.4-3.4,0.4
				c-3.9,0-7.3-1.4-10.1-4.2c-2.8-2.8-4.3-6.2-4.4-10.2v-0.1c0-1,0-2,0-3c0-1.2,0-2.4,0-3.6c0-17.8,0-35.7,0.1-53.6
				c0-26.6,0-53.2,0.1-79.8c0-12,0-24.1,0-36.2c0.1-12.1,0.1-24.2,0.1-36.2c0-10.5,0-21.1,0.1-31.7c0.1-4,1.5-7.4,4.3-10.2
				c2.8-2.8,6.2-4.2,10.2-4.2c3.9,0,7.3,1.4,10.1,4.2c2.8,2.8,4.2,6.2,4.4,10.2c0,1.1,0,2.2-0.1,3.3c0,1.1,0,2.2,0,3.3
				c0,0.6,0,1.2,0,1.9c2.3-4.2,5.1-8.1,8.4-11.6c3.6-4,7.9-7.2,12.9-9.7C483.4,129.9,488.6,128.8,494.1,129.2z M510.1,259.5
				c3-21,3.3-42,1-63.2c-1.2-8.3-3.2-16.4-6.2-24.3c-1.4-3.2-3.2-6.3-5.2-9.2c-1-1.2-2.1-2.3-3.3-3.3c-0.7-0.5-1.4-0.9-2.1-1.2
				c-0.4-0.1-0.8-0.3-1.2-0.4c-0.3,0-0.6,0-0.9,0c-0.5,0.1-1,0.3-1.4,0.4c-0.8,0.4-1.5,0.9-2.2,1.3c-1.3,1.1-2.5,2.3-3.6,3.6
				c-1.9,2.8-3.5,5.6-4.8,8.7c-2.5,6.9-4.3,13.9-5.5,21.2c-1.6,8.3-2.9,16.7-4,25.1c-1.1,8.1-2.1,16.2-3,24.4
				c-3.4,32.7-6.2,65.4-8.2,98.2c-0.6,10.2-1.2,20.4-1.9,30.7c2-1.1,3.9-2.3,5.7-3.6c4.4-3.6,8.4-7.7,12-12.2
				c7-9.8,12.9-20.2,17.6-31.3C501.3,303.5,507,281.9,510.1,259.5z"/>
			<path class="st0" d="M616.7,177.5c7.6,5.6,13.1,12.7,16.6,21.4c3.5,8.7,5.9,17.6,7.3,26.6c3.6,23,5.2,46.1,5,69.4
				c0,12-0.6,23.9-1.8,35.7c-1,11.2-2.8,22.3-5.6,33.1c-2.2,8.6-5.7,16.8-10.5,24.7c-4.8,7.8-11.7,13.2-20.5,16.2
				c-9,2.4-17.5,1.3-25.6-3.3c-7.2-4.7-12.7-10.9-16.4-18.7c-4.5-9.6-7.7-19.7-9.6-30.2c-1.9-10.5-3.1-21-3.6-31.5
				c-1.4-23.7-1.1-47.4,0.9-71.1c0.8-11.6,2.4-23,4.9-34.4c0.9-4.2,2.1-8.4,3.5-12.6c1.4-4.2,3.4-8.2,5.8-11.8
				c3.6-5.1,8.4-7.5,14.2-7.1c2-3.7,4.8-6.5,8.5-8.4c4.2-2,8.6-2.8,13.2-2.5C607.9,173.3,612.5,174.8,616.7,177.5z M614.2,336.5
				c1.7-14.4,2.5-29,2.4-43.6c-4,4.8-9.1,6.5-15.3,5.2c-5.2-1.7-9.5-4.4-13-8.4c-3.4-3.9-6.1-8.4-8.1-13.3
				c-0.1,3.6-0.2,7.1-0.2,10.6c-0.4,17.1,0.4,34.1,2.4,51.1c1.2,9.6,3.4,19,6.8,28.1c1.2,2.6,2.5,5.1,4.1,7.4
				c0.7,0.8,1.4,1.6,2.2,2.3c0.4,0.3,0.8,0.5,1.2,0.7c0.3,0.1,0.7,0.1,0.9,0.2c0.3,0,0.7,0,0.9,0c0.3-0.1,0.5-0.1,0.7-0.2
				c0.3-0.2,0.7-0.4,1.1-0.6c0.8-0.7,1.5-1.4,2.2-2.3c1.7-2.4,3.1-5,4.3-7.7C610.5,356.5,612.9,346.6,614.2,336.5z M609.9,270.6
				c2.5,1,4.7,2.5,6.4,4.5c-0.3-12-1.2-24-2.7-35.9c-1.2-10-3.5-19.7-6.9-29.1c-0.9-1.9-1.9-3.7-3-5.5c-0.6,2.4-1.1,4.9-1.4,7.3
				c-1.4,11.8-1.3,23.6,0.2,35.4c0.8,6.3,2.3,12.4,4.4,18.3c0.7,1.5,1.5,3,2.5,4.4C609.5,270.2,609.7,270.4,609.9,270.6z"/>
			<path class="st0" d="M797.1,191.1c2.3,5,4,10.1,5,15.5c1,5.4,1.7,10.8,2.2,16.2c0,0.2,0,0.4,0.1,0.5c1.6,15,2.5,30.1,2.9,45.2
				c0.3,15.1,0.4,30.2,0.3,45.3c-0.1,26.8-0.7,53.7-1.9,80.5c-0.3,4-1.7,7.4-4.4,10.2c-2.6,2.8-6,4.2-10.1,4.2
				c-3.9,0-7.2-1.4-10.2-4.2c-2.9-2.8-4.4-6.2-4.3-10.2c0-1.4,0-2.7,0.1-4c1.2-27.9,1.8-55.9,1.8-83.9c0-16.1-0.3-32.2-0.8-48.3
				c-0.3-10.5-1-20.9-2.1-31.4c-3.5,10.1-6.6,20.4-9.3,30.8c-2.7,10.4-5.2,20.8-7.5,31.3c-5.5,24.4-10.5,48.8-14.9,73.4
				c-2.1,11.4-4.1,22.8-6,34.3c-0.3,1.8-1.2,3.5-2.4,5c-1.3,1.5-2.7,2.8-4.2,3.7c-3.6,1.9-7.3,2.4-11.1,1.4c-3.2-1-5.7-2.7-7.6-5.2
				c-1.9-2.5-2.9-5.4-3-8.7c0-3.1,0-6.2,0-9.3c0-3.3,0-6.6,0-9.8c0-12.4,0-24.7,0-37.1c0-11.1,0-22.2,0-33.3c0-12.9,0-25.8,0-38.7
				c0-12.9,0-25.9,0-38.8c0-6.1,0-12.1,0-18.3c0-6.1,0-12.2,0-18.3c0.1-4.1,1.6-7.5,4.4-10.3c2.8-2.8,6.1-4.2,10.1-4.2
				s7.3,1.4,10.1,4.2c2.8,2.8,4.3,6.2,4.3,10.3c0,3.2,0,6.5,0,9.8c0,3.1,0,6.2,0,9.3c0,14,0,28,0,42c1.4-5.2,2.8-10.3,4.3-15.4
				c3.1-10.7,6.9-21.3,11.4-31.6c1.7-3.9,3.6-7.6,6-11.1c2.3-3.5,5.3-6.5,8.8-9c5-3.2,10.3-4,15.7-2.3
				C790.2,182.5,794.3,185.9,797.1,191.1z"/>
			<path class="st0" d="M881.7,177.5c7.6,5.6,13.1,12.7,16.6,21.4c3.5,8.7,5.9,17.6,7.3,26.6c3.6,23,5.2,46.1,5,69.4
				c0,12-0.6,23.9-1.8,35.7c-1,11.2-2.8,22.3-5.6,33.1c-2.2,8.6-5.7,16.8-10.5,24.7c-4.8,7.8-11.7,13.2-20.5,16.2
				c-9,2.4-17.5,1.3-25.6-3.3c-7.2-4.7-12.7-10.9-16.4-18.7c-4.5-9.6-7.7-19.7-9.6-30.2c-1.9-10.5-3.1-21-3.6-31.5
				c-1.4-23.7-1.1-47.4,0.9-71.1c0.8-11.6,2.4-23,4.9-34.4c0.9-4.2,2.1-8.4,3.5-12.6c1.4-4.2,3.4-8.2,5.8-11.8
				c3.6-5.1,8.4-7.5,14.2-7.1c2-3.7,4.8-6.5,8.5-8.4c4.2-2,8.6-2.8,13.2-2.5C872.9,173.3,877.5,174.8,881.7,177.5z M879.3,336.5
				c1.7-14.4,2.5-29,2.4-43.6c-4,4.8-9.1,6.5-15.3,5.2c-5.2-1.7-9.5-4.4-13-8.4c-3.4-3.9-6.1-8.4-8.1-13.3
				c-0.1,3.6-0.2,7.1-0.2,10.6c-0.4,17.1,0.4,34.1,2.4,51.1c1.2,9.6,3.4,19,6.8,28.1c1.2,2.6,2.5,5.1,4.1,7.4
				c0.7,0.8,1.4,1.6,2.2,2.3c0.4,0.3,0.8,0.5,1.2,0.7c0.3,0.1,0.7,0.1,0.9,0.2c0.3,0,0.7,0,0.9,0c0.3-0.1,0.5-0.1,0.7-0.2
				c0.3-0.2,0.7-0.4,1.1-0.6c0.8-0.7,1.5-1.4,2.2-2.3c1.7-2.4,3.1-5,4.3-7.7C875.5,356.5,877.9,346.6,879.3,336.5z M874.9,270.6
				c2.5,1,4.7,2.5,6.4,4.5c-0.3-12-1.2-24-2.7-35.9c-1.2-10-3.5-19.7-6.9-29.1c-0.9-1.9-1.9-3.7-3-5.5c-0.6,2.4-1.1,4.9-1.4,7.3
				c-1.4,11.8-1.3,23.6,0.2,35.4c0.8,6.3,2.3,12.4,4.4,18.3c0.7,1.5,1.5,3,2.5,4.4C874.5,270.2,874.7,270.4,874.9,270.6z"/>
			<path class="st0" d="M1019.6,310.8c3.9,0,7.3,1.4,10.2,4.3c2.9,2.9,4.3,6.2,4.3,10.2c0,0.4,0,0.9,0,1.3
				c0.1,8.5-0.1,16.9-0.6,25.3c-0.3,4.5-0.8,9-1.4,13.5c-0.7,4.5-1.8,8.9-3.3,13.1c-1.7,4.7-4,9-6.7,13c-2.8,4-6.3,7.2-10.6,9.8
				c-9.1,4.9-18.7,6.3-28.8,4.1c-8.7-2.1-15.8-6.6-21.1-13.5c-5.3-6.8-9-14.4-11.1-22.8c-1.7-6.7-2.9-13.6-3.5-20.5
				c-0.6-6.9-0.8-13.9-0.8-20.7c0-33,0-66.1,0-99.1c-3.7,0-7.4,0-11.1,0c-4.1-0.1-7.5-1.6-10.3-4.4c-2.8-2.8-4.2-6.1-4.2-10.1
				c0-3.9,1.4-7.3,4.2-10.1c2.8-2.8,6.2-4.3,10.3-4.3c3.7,0,7.4,0,11.1,0c0-0.3,0-0.5,0-0.7c0-5,0-10,0-15c0-3.9,1.4-7.3,4.3-10.2
				c2.9-2.9,6.2-4.3,10.2-4.3c3.9,0,7.3,1.4,10.2,4.3c2.9,2.9,4.3,6.2,4.3,10.2c0,5.3,0,10.6,0,15.9c12.5,0.1,25,0.2,37.6,0.2
				c4.1,0.1,7.5,1.5,10.3,4.3c2.8,2.8,4.2,6.2,4.2,10.1c0,3.9-1.4,7.3-4.2,10.1c-2.8,2.8-6.2,4.2-10.3,4.4c-12.5,0-25-0.1-37.6-0.2
				c0,2.6,0,5.2,0,7.8c0,25.7,0,51.4,0,77.1c0,1.8,0,3.6,0,5.4c-0.3,10.7,0.1,21.3,1.1,31.9c0.8,5.6,2.2,11.2,4.1,16.6
				c1,1.9,2,3.8,3.2,5.7c0.7,0.8,1.4,1.5,2.2,2.2c0.6,0.4,1.3,0.8,2,1.1c0.8,0.2,1.5,0.4,2.4,0.6c1.2,0.1,2.4,0.1,3.6,0
				c0.8-0.2,1.6-0.4,2.4-0.6c0.4-0.3,0.9-0.5,1.3-0.8c0.5-0.4,1-0.9,1.4-1.4c0.8-1.2,1.4-2.4,2.1-3.7c1.4-4.1,2.5-8.4,3.1-12.8
				c1-10.3,1.4-20.7,1.2-31.1c0-0.5,0-1,0-1.5c0-3.9,1.4-7.3,4.3-10.2C1012.3,312.3,1015.7,310.8,1019.6,310.8z"/>
		</g>
	</g>
	<g>
		<g>
			<path class="st1" d="M404.9,650.7c0.4,5,1.3,10.1,2.5,15.1c2.5,10.1,13.8,15.1,23.1,10.1c8-4.6,14.7-11.3,16.4-21
				c1.3-5,4.2-8.8,9.2-10.5c8-2.1,15.5,2.9,16.4,11.3c0.8,7.5-1.7,14.3-5.4,20.5c-6.7,9.6-14.3,18.4-25.2,23.5
				c-16.8,8-32.7,4.2-47.4-5c-5.4-2.9-8-8.8-10.1-14.7c-5-13-5.9-26.4-5.9-39.8c-0.4-43.6-0.8-86.8-0.4-130.4
				c0.4-13,2.1-26,3.8-38.6c2.9-19.7,15.5-32.3,31.9-40.7c14.7-8,30.2-6.3,44.4,2.9c5.4,3.4,7.1,9.6,5,15.5c-2.5,5.9-8.8,9.2-15.1,8
				c-2.5-0.8-5-2.1-7.5-3.4c-6.3-2.5-11.7-2.1-17.6,1.7c-9.2,5.9-15.1,14.3-16.3,25.6c-0.8,11.3-2.5,22.6-2.9,34
				c-0.4,21.4,0,42.8,0,64.1h-0.4C403.6,603,404,626.8,404.9,650.7z"/>
			<path class="st1" d="M490.8,652.4c3.4-18.4,7.5-36.5,10.9-54.5c5-29.3,10.5-58.7,15.1-88c3.4-22.6,5-45.7,8-68.3
				c0.4-4.2,1.3-8.8,2.5-12.6c1.3-3.8,2.9-7.5,5.4-10.5c7.5-8.4,18.4-6.7,22.6,3.8c3.4,8,5.9,15.9,8,24.7c4.2,18.4,8,37.3,11.3,56.2
				c2.5,12.6,3.4,25.6,5.4,38.6c2.9,19.7,7.1,39,9.2,58.3c3.4,28.1,9.2,54.9,14.3,82.6c0.4,1.3,0.4,2.5,0.8,3.8
				c0.4,8-4.6,14.3-11.7,15.1c-6.7,0.4-13.4-4.2-14.7-11.3c-4.6-28.9-11.7-57.4-14.3-86.8c-1.3-12.2-2.1-12.6-11.7-4.6
				c-8.4,6.3-16.8,13-24.7,20.1c-2.1,1.7-4.2,4.6-4.6,7.1c-3.8,21-7.1,41.9-10.5,62.5c-1.3,8-5,12.6-11.3,13.4
				c-8.8,1.3-15.5-5-15.5-13.8C487,676.3,488.7,664.2,490.8,652.4z M532.3,578.6c1.3,0,2.5,0,3.4-0.8c6.3-4.2,12.2-8.8,18.4-13
				c2.1-1.7,2.5-3.8,2.1-6.3c-0.8-4.6-1.3-9.2-2.1-14.3c-2.5-15.5-5-31.4-7.5-46.9c0-1.3-1.3-2.1-1.7-3.4c-0.4,0.8-0.8,2.1-1.3,3.4
				c0,0.8,0,2.1-0.4,3.4c-1.7,15.5-3.8,31-5.9,46.1c-1.7,9.6-3.8,19.3-5.4,29.3C531.9,576.5,532.3,577.8,532.3,578.6z"/>
			<path class="st1" d="M620.7,567.7c0.8-16.3,0.4-32.3,0.4-48.2c0-7.5,0-15.1,0-22.6c0-14.7-0.4-28.9,2.1-43.6
				c1.3-6.7,0.8-13.8,1.3-20.5c0.8-10.5,5.4-15.1,15.9-15.5c2.5,0,5.4,0.4,8.4,0.4c15.1-0.8,25.2,6.7,33.5,18.4
				c7.5,10.9,9.6,23.5,10.1,36.5c0.4,17.2,0.8,34.4,0.8,51.6c0,18-7.1,32.3-22.2,42.3c-5.9,4.2-5.9,4.2-3.4,11.3
				c8,21,13.4,42.8,18.4,65c2.9,13,6.3,26,9.2,39c0.8,2.9,0.8,5.9,0.8,8.4c-0.8,5.4-4.6,10.1-10.1,11.3c-5.4,0.8-10.9-1.3-13.8-6.3
				c-1.7-3.4-2.1-7.1-3.4-10.5c-6.7-27.2-13.4-54.5-20.5-81.7c-0.4-1.7-1.3-2.9-2.1-4.6c-0.8,1.7-2.1,3.4-2.1,5
				c0,22.2,0,44.4,0,66.6c0,6.3,0.4,12.6,0,18.9c-0.4,6.7-5,11.3-11.3,11.7c-7.1,0.8-12.6-3.4-13.8-10.5c-0.4-2.1-0.8-4.2-0.8-6.3
				c0-15.1,0-29.8,0-44.4c0-0.4-0.4-0.4-0.8-0.4C618.6,615.1,619.9,591.6,620.7,567.7z M647.6,542.2c0,5.9,1.3,6.7,6.7,3.8
				c8.4-4.6,13-11.7,13-21.4c0-9.2,0.4-18,0-26.8c-0.4-11.7-1.3-23.9-2.1-36c-0.8-5.9-3.8-10.9-8.4-15.1c-1.3-1.3-3.4-2.1-4.6-1.7
				c-1.3,0-1.7,2.5-2.1,4.2c-2.9,19.3-3.8,38.6-2.5,58.3C647.6,519.1,647.6,530.9,647.6,542.2z"/>
			<path class="st1" d="M712.1,567.7c0.8-16.3,0.4-32.3,0.4-48.2c0-7.5,0-15.1,0-22.6c0-14.7-0.4-28.9,2.1-43.6
				c1.3-6.7,0.8-13.8,1.3-20.5c0.8-10.5,5.4-15.1,15.9-15.5c2.5,0,5.4,0.4,8.4,0.4c15.1-0.8,25.2,6.7,33.5,18.4
				c7.5,10.9,9.6,23.5,10.1,36.5c0.4,17.2,0.8,34.4,0.8,51.6c0,18-7.1,32.3-22.2,42.3c-5.9,4.2-5.9,4.2-3.4,11.3
				c8,21,13.4,42.8,18.4,65c2.9,13,6.3,26,9.2,39c0.8,2.9,0.8,5.9,0.8,8.4c-0.8,5.4-4.6,10.1-10.1,11.3c-5.4,0.8-10.9-1.3-13.8-6.3
				c-1.7-3.4-2.1-7.1-3.4-10.5c-6.7-27.2-13.4-54.5-20.5-81.7c-0.4-1.7-1.3-2.9-2.1-4.6c-0.8,1.7-2.1,3.4-2.1,5
				c0,22.2,0,44.4,0,66.6c0,6.3,0.4,12.6,0,18.9c-0.4,6.7-5,11.3-11.3,11.7c-7.1,0.8-12.6-3.4-13.8-10.5c-0.4-2.1-0.8-4.2-0.8-6.3
				c0-15.1,0-29.8,0-44.4c0-0.4-0.4-0.4-0.8-0.4C710,615.1,711.3,591.6,712.1,567.7z M738.9,542.2c0,5.9,1.3,6.7,6.7,3.8
				c8.4-4.6,13-11.7,13-21.4c0-9.2,0.4-18,0-26.8c-0.4-11.7-1.3-23.9-2.1-36c-0.8-5.9-3.8-10.9-8.4-15.1c-1.3-1.3-3.4-2.1-4.6-1.7
				c-1.3,0-1.7,2.5-2.1,4.2c-2.9,19.3-3.8,38.6-2.5,58.3C738.9,519.1,738.9,530.9,738.9,542.2z"/>
			<path class="st1" d="M809.4,456.2c1.7-6.3,3.8-12.6,6.3-18.4c3.8-9.2,10.9-16.3,20.5-20.1c14.7-5.4,29.3-5.4,44-0.4
				c10.9,3.8,18,11.7,22.2,22.2c5.4,13,7.5,26.4,9.2,39.8c1.7,14.7,3.4,29.3,3.8,44.4c0.8,24.7,0.8,49.5-0.4,74.6
				c-0.8,20.5,0.8,41.9-4.2,62.5c-1.7,7.5-4.6,15.1-7.5,22.2c-4.2,9.2-12.2,14.7-21.4,17.6c-17.6,5.4-35.6,5.4-52.4-2.5
				c-6.7-3.4-12.2-7.5-14.7-14.3c-3.8-8.4-7.5-16.8-8.8-25.6c-2.1-16.8-2.5-33.5-3.4-50.3c-0.8-19.7-1.3-39.8-2.1-59.5
				C800.1,517.4,803.1,486.8,809.4,456.2z M888.6,506.5c-1.3-15.9-3.8-31.9-7.1-47.4c-3.4-15.9-7.5-18.4-23.1-18.4
				c-14.7,0-18,2.5-22.2,16.3c-0.4,0.8-0.8,2.1-0.8,3.4c-2.1,13.4-5,26.8-6.3,40.2c-1.3,18.9-2.1,37.3-1.7,56.2
				c0,25.6,0.4,51.1,1.7,76.3c0.8,10.9,3.4,21.8,5.9,32.7c2.1,8,8.4,11.3,15.9,11.7c5.4,0.4,10.5,0.4,15.5,0
				c7.5-0.8,13.8-3.8,15.5-11.3c2.5-9.6,5-19.7,5.9-29.8c1.3-29.3,2.1-58.7,2.9-85.1C889.8,534.2,890.3,520.4,888.6,506.5z"/>
			<path class="st1" d="M965.3,465.5c0-5,0.4-9.6,0.4-14.3c0.4-3.8-1.3-5.4-5-5.4c-5.9,0-11.3,0.4-17.2-0.4
				c-3.8-0.4-7.5-2.1-10.5-4.2c-4.2-3.4-5-9.2-2.9-14.3c2.1-5,6.3-7.5,12.2-7.5c21.4,0,42.8,0.4,63.7,0.8c4.6,0,9.2,0,13.8,0
				c8.8-0.4,15.1,5,15.5,13c0.4,7.5-5.9,13.4-14.7,13.4c-6.3,0-12.6-0.8-18.9-0.8c-8.8-0.4-10.1,0.4-10.1,9.2
				c0,22.2,0,44.9,0.4,67.5c0,40.2,0.8,80.9,1.3,121.6c0.4,12.6,0.4,25.6,0.4,38.6c0,2.5,0,5.4-0.8,8c-1.7,5.9-6.7,9.6-12.2,9.6
				s-10.1-3.8-12.2-9.2c-0.4-2.1-0.8-4.6-0.8-6.7c-0.4-39-0.8-77.5-1.3-116.5c-0.4,0-0.8,0-1.3,0
				C965.3,533.8,965.3,499.4,965.3,465.5z"/>
		</g>
	</g>
	<path class="st1" d="M411.6,259.3c-1.1-7.9-5.7-13.8-12.7-17.1c-3.1-1.4-4.1-3-4.7-6c-2.8-13.4-13.8-22.6-26.8-21.9
		c-4.5,0.2-7.7-0.6-11.1-3.6c-6.6-5.7-21.7-7.2-28.9,2.6c-1.1,1.6-2.4,1.5-4,0.9c-14.1-4.6-34.5,3.1-38.4,21.4
		c-0.1,0.3-0.3,0.5-0.6,1.1c-2.5-5.4-6.4-9.4-11-13.1c5.5-4,9.8-8.6,11.9-14.9c2.1-6.4,2.3-12.8-0.6-19c-2.8-6-7-10.6-14-11.9
		c4.9-9.3,3.9-18.1-2.1-26.2c-7.2-9.8-17.2-12.3-28.7-10.4c-2.6-14-15.2-23.1-30.6-21.9c-7.4,0.6-14.3,2.7-19.8,8.1
		c-5.8,5.9-8.3,13-7.7,21.2c-10.6,2.8-18.5,8.8-21.6,19.5c-3.2,10.8-0.3,20,9.6,26.6c-7.4,5.3-11.3,12.2-10.9,21
		c0.4,8.9,5,15.5,13.1,19.7c-5.7,4.6-6.6,11-7.9,17.7c-0.5-0.7-0.7-0.9-0.8-1.2c-9.5-17.3-26.2-22.3-43.7-12.9
		c-1.6,0.9-2.7,0.4-3.8-0.5c-3-2.3-6.3-3.7-10-3.7c-9,0-15.9,3.8-20.8,11.3c-0.6,0.9-0.7,2.3-2.1,2.2c-7.1-0.1-12.9,3.3-18.3,7.3
		c-1.5,1.9-3,3.8-4.5,5.7c-2.2,5.3-4,10.7-3.4,16.6c0.2,2.4,0.1,4-2.5,5.2c-2.7,1.2-4.4,3.9-5.9,6.6c-5.1,9.2-4,18.4,1.2,27
		c5.3,8.9,13,13.9,23.8,13.1c0.7-0.1,1.5,0,2.4,0c0.2,1.3,0.4,2.5,0.6,3.7c1,5.9,4,10.4,9,13.7c10.1,6.6,23.3,5.1,32.5-3.8
		c1.7-1.6,2.7-1.7,4.7-0.7c7.6,3.9,15.9,1.5,20.5-5.6c0.6-0.9,0.8-2.1,1.9-2.7c5.8,3.2,11.6,2.8,17.2-0.4c5.8-3.4,8.2-9,9.1-15.2
		c26.7-0.2,45,18.1,48.8,48c-0.8,0.2-1.7,0.5-2.5,0.7c-16,3.7-31.3,9.3-45.8,17c-15.3,8.1-29.3,17.9-39.9,32
		c-6.7,8.9-9.6,18.4-7,29.8c4,17.8,8.3,35.4,13.7,52.8c24.7,80.4,56.4,157.9,93.2,233.5c10.3,21.1,21.1,42,34.5,61.3
		c3.8,5.5,7.9,10.9,13.3,15c7.3,5.6,16.1,4.6,22.1-2.4c2.7-3.1,4.9-6.5,6.7-10.2c6.6-13.1,10.8-27,14.6-41
		c12.4-44.9,20.4-90.7,26.9-136.8c9.5-67.1,15-134.5,17.4-202.2c0.2-6.5-1.7-12.2-5.3-17.4c-6.2-8.8-14.8-14.8-24.2-19.5
		c-24.6-12.5-51-17-78.4-16.8c-5.2,0-10.3,0.4-15.7,0.6c0-7.1,1.1-14,3-20.7c5.9-21.3,19.8-34,41.3-38.6c3.3-0.7,4.9-0.1,6.6,3.1
		c5.7,11.4,18.1,14,28.1,6.1c3.2,3.9,7.2,6.8,12.5,6.8c5.2,0.1,9.6-2.1,13.1-5.7c9.2,5.5,18.6,7.5,28.3,2.6
		c9.9-5,13.6-13.5,12.1-24.4c5.4-0.8,10.2-2,14-5.5C410.2,279.2,413.1,269.9,411.6,259.3z M187.7,298.8c-8.8-2.1-17.6-2.6-26.6-1.4
		c-6.7,0.9-9.5,3.8-10.6,10.6c-0.1,0.4-0.2,0.8-0.4,1.4c-1.2-0.7-2.2-1.4-3.2-1.9c-5.9-2.8-11.9-0.6-14.9,5.6
		c-1.2,2.5-2.2,5-3.8,7.2c-1.6-0.3-2.1-1.7-3-2.6c-6.3-6.3-15-4.7-18.5,3.5c-1.1,2.6-2.5,4.9-4.3,7c-1.3,1.5-2.8,1.7-4.5,1.3
		c-1.7-0.4-1.6-2-1.7-3.2c-0.2-2.9,0.1-5.7,0.8-8.5c1.1-4.6-0.1-8.6-3.9-11.5c-3.8-2.8-7.9-2.9-12.1-0.6c-2.4,1.3-5,2.4-7.8,2.7
		c-2.3,0.3-4.1-0.4-5.3-2.5c-2.4-3.9-1.9-6,2.1-8.3c1-0.5,2-0.9,3-1.4c5.6-2.7,7.9-8.8,5.2-14.5c-0.9-1.8-1.3-3.5-0.9-5.4
		c1.3-5.8,3.5-7.4,9.3-6.4c8.7,1.4,11.9-0.4,15-8.8c1.7-4.6,2.5-4.8,6.4-1.7c1.2,1,2.3,2,3.5,3c5.4,4.3,12.1,3.4,16.1-2.2
		c4-5.7,10.7-5.8,15-0.4c2,2.5,3.3,5.4,4.3,8.5c2.1,6.3,6.8,9.1,13.3,7.8c3.7-0.8,7.2-0.6,10.8,0.5c14,4.5,22.2,15.7,30.6,26.7
		C197,301.6,192.4,299.9,187.7,298.8z M319,394.4c7.8,2.8,15,6.9,21.2,12.6c3.6,3.3,5.6,6.9,5.1,12.2c-0.8,8-0.8,16.1-1.2,24.5
		c-6.6-1-12.7-2.2-19-2.9c-18-2.1-32.7,4.2-43.9,18.4c-5.4,6.9-1.5,16.2,6.9,17.3c3.9,0.5,7.1-0.9,9.7-3.9c1.6-1.8,3.2-3.6,4.9-5.4
		c3.9-4,8.7-6,14.3-5.6c2.4,0.2,4.8,0.4,7.2,0.8c3,0.5,6.1,1.2,9.1,1.7c3,0.6,6.1,1,9.4,1.6c-2,34.7-5,69.4-8.9,104.1
		c-6.6,0-12.8-1.4-18.9-2.4c-14.2-2.3-27.4,0.3-39.6,7.9c-5.7,3.6-7.5,9.7-4.4,15c3.2,5.4,9.8,7.1,15.5,3.3c8.2-5.6,17-6.8,26.5-4.7
		c5.9,1.2,11.9,2.3,18.3,2.6c-1,7.4-1.9,14.4-2.9,21.5c-6,43-13.3,85.8-24.3,127.9c-3.7,14.4-7.8,28.7-13.9,42.3
		c-0.5,1.2-1.2,2.3-1.9,3.7c-2.6-2.2-4.2-4.8-5.9-7.3c-13.5-20.3-24.5-42-35.2-64c-4.1-8.5-8.2-17.1-12.3-25.7
		c10.5-7,21.3-9.8,33.3-5.2c4.3,1.7,8.3,1,11.6-2.2c5.9-5.8,3.8-15.1-4.1-17.9c-14.8-5.3-29.4-4.8-43.7,2.1
		c-1.9,0.9-3.8,1.8-6.1,2.9c-17.7-39.6-33.6-79.7-48.3-120.4c7.4-2.7,13.7-7.1,20.6-10.2c11.4-5.2,23.2-5.7,35.3-3.6
		c1.4,0.2,2.8,0.6,4.2,0.8c6,0.9,11.2-2.5,12.4-8.2c1.2-5.8-2.2-11.5-8.1-12.8c-20-4.4-39.4-3-57.9,6.7c-3.6,1.9-7.2,3.9-10.8,5.8
		c-1.8,0.9-2.9,0.8-3.7-1.5c-9.3-28.1-18.1-56.3-24.1-85.2c-0.7-3.5-0.1-6.5,1.8-9.4c5.8-9.2,13.9-16,23-21.5
		C217.3,381.4,266.9,375.7,319,394.4z M252.4,268.9c-10.5,10.9-17.9,23.7-22.6,38c-0.2,0.6-0.5,1.2-1,2.5c-2.3-4.6-4.3-8.6-6.4-12.5
		c-6.3-12.1-15.3-22-25.7-30.7c-3-2.5-5.9-5-8.6-7.7c-3.6-3.5-3.1-7.4,1-10.2c3.5-2.4,7.5-3,11.5-3.7c4.3-0.7,7.3-3.1,8.6-7.3
		c1.3-4,0.4-7.6-2.4-10.8c-1.8-2-4.1-2.9-6.7-3.3c-5.8-1-11.4-2.4-16.6-5.4c-4.3-2.5-4.3-4.1-0.2-6.8c3.7-2.5,7.9-3.7,12.3-4.8
		c5.6-1.3,9.1-5.1,9.3-10.1c0.2-5.2-2.9-9.2-8.6-11.1c-4.8-1.6-9.6-3.4-13.6-6.6c-1.7-1.3-2.9-2.7-1.9-5.3c1-2.4,2.3-3.6,4.9-3.6
		c2,0,3.9,0.3,5.9,0.7c8.6,1.9,15.4-5.3,13-13.7c-1-3.5-1.9-7-1.5-10.7c0.3-2.5,1.6-3.9,4-4.6c7.7-2.1,11.6,0.5,12.7,8.4
		c0.2,1.8,0.2,3.7,0.3,5.6c0.4,7.7,7.4,12.5,14.7,9.8c2.6-0.9,5.1-2.2,7.8-2.6c1.5-0.2,3.1-0.3,4.6-0.3c2,0.1,3.5,1.1,4.4,3
		c0.9,1.9-0.4,3.2-1.4,4.4c-2.8,3.3-6.5,5.5-10.2,7.7c-7.2,4.3-7.2,14.3-0.1,18.6c2.4,1.4,5,1.7,7.7,1.2c4.5-0.7,9-1.2,13.5-0.4
		c4.6,0.8,5.5,3.1,2.4,6.9c-4.1,5.1-9.7,7.8-15.6,10.1c-2.7,1-5.3,2.2-6.9,4.8c-4.2,6.6-0.9,14.8,6.8,16.6c3.6,0.8,7,1.8,10.3,3.6
		c7.1,3.9,9,12,4.3,18.8C259.6,261.7,256,265.3,252.4,268.9z M390.4,265c-0.6,4-2,5.8-5.6,6.1c-2.6,0.2-5.1-0.1-7.5-0.8
		c-4.7-1.3-8.9-0.3-11.9,3.5c-3.1,3.8-3.1,8.1-0.9,12.4c1.2,2.5,2.3,5,2.5,7.8c0.1,1.2,0.8,2.7-0.9,3.5c-1.5,0.7-2.9,0.9-4.4,0
		c-2.1-1.3-3.7-3.1-5.2-5c-6.6-8.5-14.7-8-20.2,1.3c-0.3,0.6-0.7,1.1-1.1,1.8c-2.4-0.6-3.4-2.8-4.7-4.4c-6.4-7.9-12.6-8.3-19.6-1.1
		c-0.9-0.1-0.8-0.9-1-1.5c-2.3-5.5-5.7-7.8-11.8-7.6c-10,0.3-19.7,2.3-29,6c-1.4,0.6-2.8,1.2-4.3,1.8c-0.2-0.2-0.3-0.3-0.5-0.5
		c3.3-3.6,6.6-7.3,9.9-10.9c2.2-2.4,4.5-4.9,6-7.9c2.9-5.7,8.2-7.7,13.9-9.1c7.3-1.8,9.5-4.3,10.3-11.6c0.4-3.3,1-6.5,2.7-9.5
		c3-5.3,8.7-6.5,13.4-2.6c2.6,2.1,5.2,3.7,8.6,3.4c4-0.3,6.6-2.4,8.9-5.5c4.9-6.7,5.1-8.3,10.2-0.2c2.6,4.1,8,5.6,12.6,3.8
		c0.9-0.4,1.8-1,2.7-1.3c2.4-0.8,4.9-2.4,7.1-0.3c2.5,2.5,4.6,5.3,3.7,9.3c-1.5,7,2,12,9.1,13.4c0.9,0.2,1.7,0.3,2.6,0.6
		C388.6,260.7,390.9,261.5,390.4,265z"/>
	<path class="st0" d="M939.4,859.5c-2.1-1.1-4.3-1.9-6.2-3.2c-17.1-11.5-31.8-25.4-42.9-42.9c-2.9-4.6-5.1-9.4-6.1-14.8
		c-2-11.2,6.4-19.7,17.6-17.6c5.6,1.1,10.7,3.4,14.6,7.6c3.8,4,7,8.6,10.4,12.9c0.6,0.7,1,1.6,1.8,2.7c1.3-6.6,2.3-12.6,3.8-18.6
		c1.4-5.9,3.6-11.6,7.8-16.2c3.8-4.1,8.7-5.5,13.2-3.5c3.7,1.7,6.9,4.2,8.7,8.1c2,4.2,2.5,8.6,2.1,13.3c-1,10.8-4,21.1-8.1,31.2
		c-5.3,13.1-10.4,26.2-15.7,39.4C940.2,858.3,939.9,858.7,939.4,859.5z"/>
	<g>
		<path class="st0" d="M101.5,677.8c-3.2-3-4.1-6.7-2.7-11.1s4.5-6.6,9.3-6.4c7.6,0.1,15,0.9,22.3,2.5c7.2,1.6,14.5,3.3,21.9,5
			c7.4,1.7,14.8,3.3,22.1,4.8c7.4,1.5,14.8,1.9,22.4,1.4c1.4,0.2,2.3,1.1,2.6,2.5c0.3,1.4-0.2,2.3-1.6,2.6c-7.5,1.6-15,3-22.3,4.1
			c-7.3,1.1-14.9,1.5-22.8,1.2c-4.5,0.1-9-0.1-13.4-0.6c-4.4-0.6-8.8-1.1-13.3-1.5c-1.7,0.1-4.5-0.3-8.5-1c-4-0.7-6.2-1-6.8-1.1
			c-3.6,1-6.6,0.4-8.9-1.8L101.5,677.8z"/>
		<path class="st0" d="M166.7,773.3c-2.5,1.5-4.8,1.8-6.9,0.9c-2.2-0.9-3.9-2.4-5.2-4.5c-1.3-2.1-1.8-4.3-1.5-6.7
			c0.3-2.4,1.8-4.3,4.3-5.8c5.5-3,10.6-6.4,15.3-10.2c4.7-3.8,9.8-7.5,15.3-11.1c3.3-2.4,7.2-4.8,11.8-7.4c4.6-2.5,9-2.6,13.3-0.2
			c1.2,1.1,1.2,2.2,0.1,3.4c-3,4.3-6.7,8-11.3,11.1c-4.5,3.1-8.7,6.4-12.6,9.9c-3.8,3.5-7.5,7-11.1,10.5
			C174.6,766.8,170.8,770.1,166.7,773.3z"/>
		<path class="st0" d="M232.5,809.7c-1.6,2.9-3.6,4.3-6,4.2c-2.4-0.1-4.4-0.8-6.2-2.1c-1.8-1.3-2.8-3.3-3.1-5.8
			c-0.4-2.5,1-4.8,4-6.9c3-2.1,5.8-5.2,8.4-9.4c2.5-4.2,5.3-7.9,8.3-11c1.3-2,3.1-2.3,5.3-0.8c2.2,1.5,2.7,3.4,1.7,5.7
			c-2.7,4-4.9,8.4-6.6,13.1C236.5,801.3,234.6,805.7,232.5,809.7z"/>
	</g>
</g>
</svg>
