  0
SECTION
  2
HEADER
  9
$ACADVER
  1
AC1024
  9
$ACADMAINTVER
 70
     6
  9
$DWGCODEPAGE
  3
ANSI_1252
  9
$INSBASE
 10
0.0
 20
0.0
 30
0.0
  9
$EXTMIN
 10
1.000000000000000E+20
 20
1.000000000000000E+20
 30
1.000000000000000E+20
  9
$EXTMAX
 10
-1.000000000000000E+20
 20
-1.000000000000000E+20
 30
-1.000000000000000E+20
  9
$LIMMIN
 10
0.0
 20
0.0
  9
$LIMMAX
 10
12.0
 20
9.0
  9
$ORTHOMODE
 70
     0
  9
$REGENMODE
 70
     1
  9
$FILLMODE
 70
     1
  9
$QTEXTMODE
 70
     0
  9
$MIRRTEXT
 70
     1
  9
$LTSCALE
 40
1.0
  9
$ATTMODE
 70
     1
  9
$TEXTSIZE
 40
0.2
  9
$TRACEWID
 40
0.05
  9
$TEXTSTYLE
  7
Standard
  9
$CLAYER
  8
0
  9
$CELTYPE
  6
ByLayer
  9
$CECOLOR
 62
   256
  9
$CELTSCALE
 40
1.0
  9
$DISPSILH
 70
     0
  9
$DIMSCALE
 40
1.0
  9
$DIMASZ
 40
0.18
  9
$DIMEXO
 40
0.0625
  9
$DIMDLI
 40
0.38
  9
$DIMRND
 40
0.0
  9
$DIMDLE
 40
0.0
  9
$DIMEXE
 40
0.18
  9
$DIMTP
 40
0.0
  9
$DIMTM
 40
0.0
  9
$DIMTXT
 40
0.18
  9
$DIMCEN
 40
0.09
  9
$DIMTSZ
 40
0.0
  9
$DIMTOL
 70
     0
  9
$DIMLIM
 70
     0
  9
$DIMTIH
 70
     1
  9
$DIMTOH
 70
     1
  9
$DIMSE1
 70
     0
  9
$DIMSE2
 70
     0
  9
$DIMTAD
 70
     0
  9
$DIMZIN
 70
     0
  9
$DIMBLK
  1

  9
$DIMASO
 70
     1
  9
$DIMSHO
 70
     1
  9
$DIMPOST
  1

  9
$DIMAPOST
  1

  9
$DIMALT
 70
     0
  9
$DIMALTD
 70
     2
  9
$DIMALTF
 40
25.4
  9
$DIMLFAC
 40
1.0
  9
$DIMTOFL
 70
     0
  9
$DIMTVP
 40
0.0
  9
$DIMTIX
 70
     0
  9
$DIMSOXD
 70
     0
  9
$DIMSAH
 70
     0
  9
$DIMBLK1
  1

  9
$DIMBLK2
  1

  9
$DIMSTYLE
  2
Standard
  9
$DIMCLRD
 70
     0
  9
$DIMCLRE
 70
     0
  9
$DIMCLRT
 70
     0
  9
$DIMTFAC
 40
1.0
  9
$DIMGAP
 40
0.09
  9
$DIMJUST
 70
     0
  9
$DIMSD1
 70
     0
  9
$DIMSD2
 70
     0
  9
$DIMTOLJ
 70
     1
  9
$DIMTZIN
 70
     0
  9
$DIMALTZ
 70
     0
  9
$DIMALTTZ
 70
     0
  9
$DIMUPT
 70
     0
  9
$DIMDEC
 70
     4
  9
$DIMTDEC
 70
     4
  9
$DIMALTU
 70
     2
  9
$DIMALTTD
 70
     2
  9
$DIMTXSTY
  7
Standard
  9
$DIMAUNIT
 70
     0
  9
$DIMADEC
 70
     0
  9
$DIMALTRND
 40
0.0
  9
$DIMAZIN
 70
     0
  9
$DIMDSEP
 70
    46
  9
$DIMATFIT
 70
     3
  9
$DIMFRAC
 70
     0
  9
$DIMLDRBLK
  1

  9
$DIMLUNIT
 70
     2
  9
$DIMLWD
 70
    -2
  9
$DIMLWE
 70
    -2
  9
$DIMTMOVE
 70
     0
  9
$DIMFXL
 40
1.0
  9
$DIMFXLON
 70
     0
  9
$DIMJOGANG
 40
0.7853981633974483
  9
$DIMTFILL
 70
     0
  9
$DIMTFILLCLR
 70
     0
  9
$DIMARCSYM
 70
     0
  9
$DIMLTYPE
  6

  9
$DIMLTEX1
  6

  9
$DIMLTEX2
  6

  9
$DIMTXTDIRECTION
 70
     0
  9
$LUNITS
 70
     2
  9
$LUPREC
 70
     4
  9
$SKETCHINC
 40
0.1
  9
$FILLETRAD
 40
0.5
  9
$AUNITS
 70
     0
  9
$AUPREC
 70
     0
  9
$MENU
  1
.
  9
$ELEVATION
 40
0.0
  9
$PELEVATION
 40
0.0
  9
$THICKNESS
 40
0.0
  9
$LIMCHECK
 70
     0
  9
$CHAMFERA
 40
0.5
  9
$CHAMFERB
 40
0.5
  9
$CHAMFERC
 40
1.0
  9
$CHAMFERD
 40
0.0
  9
$SKPOLY
 70
     0
  9
$TDCREATE
 40
2459563.140273021
  9
$TDUCREATE
 40
2459563.473606354
  9
$TDUPDATE
 40
2459563.140273079
  9
$TDUUPDATE
 40
2459563.473606412
  9
$TDINDWG
 40
0.0000000116
  9
$TDUSRTIMER
 40
0.0000000116
  9
$USRTIMER
 70
     1
  9
$ANGBASE
 50
0.0
  9
$ANGDIR
 70
     0
  9
$PDMODE
 70
     0
  9
$PDSIZE
 40
0.0
  9
$PLINEWID
 40
0.0
  9
$SPLFRAME
 70
     0
  9
$SPLINETYPE
 70
     6
  9
$SPLINESEGS
 70
     8
  9
$HANDSEED
  5
6B
  9
$SURFTAB1
 70
     6
  9
$SURFTAB2
 70
     6
  9
$SURFTYPE
 70
     6
  9
$SURFU
 70
     6
  9
$SURFV
 70
     6
  9
$UCSBASE
  2

  9
$UCSNAME
  2

  9
$UCSORG
 10
0.0
 20
0.0
 30
0.0
  9
$UCSXDIR
 10
1.0
 20
0.0
 30
0.0
  9
$UCSYDIR
 10
0.0
 20
1.0
 30
0.0
  9
$UCSORTHOREF
  2

  9
$UCSORTHOVIEW
 70
     0
  9
$UCSORGTOP
 10
0.0
 20
0.0
 30
0.0
  9
$UCSORGBOTTOM
 10
0.0
 20
0.0
 30
0.0
  9
$UCSORGLEFT
 10
0.0
 20
0.0
 30
0.0
  9
$UCSORGRIGHT
 10
0.0
 20
0.0
 30
0.0
  9
$UCSORGFRONT
 10
0.0
 20
0.0
 30
0.0
  9
$UCSORGBACK
 10
0.0
 20
0.0
 30
0.0
  9
$PUCSBASE
  2

  9
$PUCSNAME
  2

  9
$PUCSORG
 10
0.0
 20
0.0
 30
0.0
  9
$PUCSXDIR
 10
1.0
 20
0.0
 30
0.0
  9
$PUCSYDIR
 10
0.0
 20
1.0
 30
0.0
  9
$PUCSORTHOREF
  2

  9
$PUCSORTHOVIEW
 70
     0
  9
$PUCSORGTOP
 10
0.0
 20
0.0
 30
0.0
  9
$PUCSORGBOTTOM
 10
0.0
 20
0.0
 30
0.0
  9
$PUCSORGLEFT
 10
0.0
 20
0.0
 30
0.0
  9
$PUCSORGRIGHT
 10
0.0
 20
0.0
 30
0.0
  9
$PUCSORGFRONT
 10
0.0
 20
0.0
 30
0.0
  9
$PUCSORGBACK
 10
0.0
 20
0.0
 30
0.0
  9
$USERI1
 70
     0
  9
$USERI2
 70
     0
  9
$USERI3
 70
     0
  9
$USERI4
 70
     0
  9
$USERI5
 70
     0
  9
$USERR1
 40
0.0
  9
$USERR2
 40
0.0
  9
$USERR3
 40
0.0
  9
$USERR4
 40
0.0
  9
$USERR5
 40
0.0
  9
$WORLDVIEW
 70
     1
  9
$SHADEDGE
 70
     3
  9
$SHADEDIF
 70
    70
  9
$TILEMODE
 70
     1
  9
$MAXACTVP
 70
    64
  9
$PINSBASE
 10
0.0
 20
0.0
 30
0.0
  9
$PLIMCHECK
 70
     0
  9
$PEXTMIN
 10
1.000000000000000E+20
 20
1.000000000000000E+20
 30
1.000000000000000E+20
  9
$PEXTMAX
 10
-1.000000000000000E+20
 20
-1.000000000000000E+20
 30
-1.000000000000000E+20
  9
$PLIMMIN
 10
0.0
 20
0.0
  9
$PLIMMAX
 10
12.0
 20
9.0
  9
$UNITMODE
 70
     0
  9
$VISRETAIN
 70
     1
  9
$PLINEGEN
 70
     0
  9
$PSLTSCALE
 70
     1
  9
$TREEDEPTH
 70
  3020
  9
$CMLSTYLE
  2
Standard
  9
$CMLJUST
 70
     0
  9
$CMLSCALE
 40
1.0
  9
$PROXYGRAPHICS
 70
     1
  9
$MEASUREMENT
 70
     0
  9
$CELWEIGHT
370
    -1
  9
$ENDCAPS
280
     0
  9
$JOINSTYLE
280
     0
  9
$LWDISPLAY
290
     1
  9
$INSUNITS
 70
     1
  9
$HYPERLINKBASE
  1

  9
$STYLESHEET
  1

  9
$XEDIT
290
     1
  9
$CEPSNTYPE
380
     0
  9
$PSTYLEMODE
290
     1
  9
$FINGERPRINTGUID
  2
{AF10586F-5503-43C2-9B55-249918DE096A}
  9
$VERSIONGUID
  2
{FAEB1C32-E019-11D5-929B-00C0DF256EC4}
  9
$EXTNAMES
290
     1
  9
$PSVPSCALE
 40
0.0
  9
$OLESTARTUP
290
     0
  9
$SORTENTS
280
   127
  9
$INDEXCTL
280
     0
  9
$HIDETEXT
280
     1
  9
$XCLIPFRAME
280
     2
  9
$HALOGAP
280
     0
  9
$OBSCOLOR
 70
   257
  9
$OBSLTYPE
280
     0
  9
$INTERSECTIONDISPLAY
280
     0
  9
$INTERSECTIONCOLOR
 70
   257
  9
$DIMASSOC
280
     2
  9
$PROJECTNAME
  1

  9
$CAMERADISPLAY
290
     0
  9
$LENSLENGTH
 40
50.0
  9
$CAMERAHEIGHT
 40
0.0
  9
$STEPSPERSEC
 40
2.0
  9
$STEPSIZE
 40
6.0
  9
$3DDWFPREC
 40
2.0
  9
$PSOLWIDTH
 40
0.25
  9
$PSOLHEIGHT
 40
4.0
  9
$LOFTANG1
 40
1.570796326794897
  9
$LOFTANG2
 40
1.570796326794897
  9
$LOFTMAG1
 40
0.0
  9
$LOFTMAG2
 40
0.0
  9
$LOFTPARAM
 70
     7
  9
$LOFTNORMALS
280
     1
  9
$LATITUDE
 40
37.795
  9
$LONGITUDE
 40
-122.394
  9
$NORTHDIRECTION
 40
0.0
  9
$TIMEZONE
 70
 -8000
  9
$LIGHTGLYPHDISPLAY
280
     1
  9
$TILEMODELIGHTSYNCH
280
     1
  9
$CMATERIAL
347
3C
  9
$SOLIDHIST
280
     1
  9
$SHOWHIST
280
     1
  9
$DWFFRAME
280
     2
  9
$DGNFRAME
280
     2
  9
$REALWORLDSCALE
290
     1
  9
$INTERFERECOLOR
 62
   256
  9
$CSHADOW
280
     0
  9
$SHADOWPLANELOCATION
 40
0.0
  0
ENDSEC
  0
SECTION
  2
CLASSES
  0
CLASS
  1
ACDBDICTIONARYWDFLT
  2
AcDbDictionaryWithDefault
  3
ObjectDBX Classes
 90
        0
 91
        4
280
     0
281
     0
  0
CLASS
  1
VISUALSTYLE
  2
AcDbVisualStyle
  3
ObjectDBX Classes
 90
     4095
 91
        4
280
     0
281
     0
  0
CLASS
  1
MATERIAL
  2
AcDbMaterial
  3
ObjectDBX Classes
 90
     1153
 91
        4
280
     0
281
     0
  0
CLASS
  1
SUN
  2
AcDbSun
  3
SCENEOE
 90
     1024
 91
        4
280
     0
281
     0
  0
ENDSEC
  0
SECTION
  2
TABLES
  0
TABLE
  2
VPORT
  5
8
330
0
100
AcDbSymbolTable
 70
     1
  0
VPORT
  5
29
330
8
100
AcDbSymbolTableRecord
100
AcDbViewportTableRecord
  2
*Active
 70
     0
 10
0.0
 20
0.0
 11
1.0
 21
1.0
 12
0.0
 22
0.0
 13
0.0
 23
0.0
 14
0.5
 24
0.5
 15
0.5
 25
0.5
 16
0.0
 26
0.0
 36
1.0
 17
540.0
 27
-540.0
 37
0.0
 40
1080.0
 41
1.0
 42
50.0
 43
0.0
 44
0.0
 50
0.0
 51
0.0
 71
     0
 72
   100
 73
     1
 74
     3
 75
     0
 76
     0
 77
     0
 78
     0
281
     0
 65
     1
110
0.0
120
0.0
130
0.0
111
1.0
121
0.0
131
0.0
112
0.0
122
1.0
132
0.0
 79
     0
146
0.0
 60
     3
 61
     5
292
     1
282
     1
141
0.0
142
0.0
 63
   250
361
3F
  0
ENDTAB
  0
TABLE
  2
LTYPE
  5
5
330
0
100
AcDbSymbolTable
 70
     1
  0
LTYPE
  5
14
330
5
100
AcDbSymbolTableRecord
100
AcDbLinetypeTableRecord
  2
ByBlock
 70
     0
  3

 72
    65
 73
     0
 40
0.0
  0
LTYPE
  5
15
330
5
100
AcDbSymbolTableRecord
100
AcDbLinetypeTableRecord
  2
ByLayer
 70
     0
  3

 72
    65
 73
     0
 40
0.0
  0
LTYPE
  5
16
330
5
100
AcDbSymbolTableRecord
100
AcDbLinetypeTableRecord
  2
Continuous
 70
     0
  3
Solid line
 72
    65
 73
     0
 40
0.0
  0
ENDTAB
  0
TABLE
  2
LAYER
  5
2
330
0
100
AcDbSymbolTable
 70
     2
  0
LAYER
  5
10
330
2
100
AcDbSymbolTableRecord
100
AcDbLayerTableRecord
  2
0
 70
     0
 62
     7
  6
Continuous
370
    -3
390
F
347
3E
  0
LAYER
  5
40
330
2
100
AcDbSymbolTableRecord
100
AcDbLayerTableRecord
  2
Layer 1
 70
     0
 62
     7
  6
Continuous
370
    -3
390
F
347
3E
  0
ENDTAB
  0
TABLE
  2
STYLE
  5
3
330
0
100
AcDbSymbolTable
 70
     1
  0
STYLE
  5
11
330
3
100
AcDbSymbolTableRecord
100
AcDbTextStyleTableRecord
  2
Standard
 70
     0
 40
0.0
 41
1.0
 50
0.0
 71
     0
 42
0.2
  3
txt
  4

  0
ENDTAB
  0
TABLE
  2
VIEW
  5
6
330
0
100
AcDbSymbolTable
 70
     0
  0
ENDTAB
  0
TABLE
  2
UCS
  5
7
330
0
100
AcDbSymbolTable
 70
     0
  0
ENDTAB
  0
TABLE
  2
APPID
  5
9
330
0
100
AcDbSymbolTable
 70
     1
  0
APPID
  5
12
330
9
100
AcDbSymbolTableRecord
100
AcDbRegAppTableRecord
  2
ACAD
 70
     0
  0
ENDTAB
  0
TABLE
  2
DIMSTYLE
  5
A
330
0
100
AcDbSymbolTable
 70
     1
100
AcDbDimStyleTable
  0
DIMSTYLE
105
27
330
A
100
AcDbSymbolTableRecord
100
AcDbDimStyleTableRecord
  2
Standard
 70
     0
178
     0
340
11
  0
ENDTAB
  0
TABLE
  2
BLOCK_RECORD
  5
1
330
0
100
AcDbSymbolTable
 70
     4
  0
BLOCK_RECORD
  5
1F
330
1
100
AcDbSymbolTableRecord
100
AcDbBlockTableRecord
  2
*Model_Space
340
22
 70
     0
280
     1
281
     0
  0
BLOCK_RECORD
  5
1B
330
1
100
AcDbSymbolTableRecord
100
AcDbBlockTableRecord
  2
*Paper_Space
340
1E
 70
     0
280
     1
281
     0
  0
BLOCK_RECORD
  5
23
330
1
100
AcDbSymbolTableRecord
100
AcDbBlockTableRecord
  2
*Paper_Space0
340
26
 70
     0
280
     1
281
     0
  0
BLOCK_RECORD
  5
41
330
1
100
AcDbSymbolTableRecord
100
AcDbBlockTableRecord
  2
block 2
340
0
102
{BLKREFS
331
42
102
}
 70
     0
280
     1
281
     0
  0
BLOCK_RECORD
  5
45
330
1
100
AcDbSymbolTableRecord
100
AcDbBlockTableRecord
  2
block 3
340
0
102
{BLKREFS
331
46
102
}
 70
     0
280
     1
281
     0
  0
BLOCK_RECORD
  5
54
330
1
100
AcDbSymbolTableRecord
100
AcDbBlockTableRecord
  2
block 4
340
0
102
{BLKREFS
331
55
102
}
 70
     0
280
     1
281
     0
  0
ENDTAB
  0
ENDSEC
  0
SECTION
  2
BLOCKS
  0
BLOCK
  5
20
330
1F
100
AcDbEntity
  8
0
100
AcDbBlockBegin
  2
*Model_Space
 70
     0
 10
0.0
 20
0.0
 30
0.0
  3
*Model_Space
  1

  0
ENDBLK
  5
21
330
1F
100
AcDbEntity
  8
0
100
AcDbBlockEnd
  0
BLOCK
  5
1C
330
1B
100
AcDbEntity
 67
     1
  8
0
100
AcDbBlockBegin
  2
*Paper_Space
 70
     0
 10
0.0
 20
0.0
 30
0.0
  3
*Paper_Space
  1

  0
ENDBLK
  5
1D
330
1B
100
AcDbEntity
 67
     1
  8
0
100
AcDbBlockEnd
  0
BLOCK
  5
24
330
23
100
AcDbEntity
  8
0
100
AcDbBlockBegin
  2
*Paper_Space0
 70
     0
 10
0.0
 20
0.0
 30
0.0
  3
*Paper_Space0
  1

  0
ENDBLK
  5
25
330
23
100
AcDbEntity
  8
0
100
AcDbBlockEnd
  0
BLOCK
  5
43
330
41
100
AcDbEntity
  8
0
100
AcDbBlockBegin
  2
block 2
 70
     0
 10
0.0
 20
0.0
 30
0.0
  3
block 2
  1

  0
INSERT
  5
46
330
41
100
AcDbEntity
  8
Layer 1
100
AcDbBlockReference
  2
block 3
 10
0.0
 20
0.0
 30
0.0
  0
INSERT
  5
55
330
41
100
AcDbEntity
  8
Layer 1
100
AcDbBlockReference
  2
block 4
 10
0.0
 20
0.0
 30
0.0
  0
SPLINE
  5
65
330
41
100
AcDbEntity
  8
Layer 1
370
     0
100
AcDbSpline
210
0.0
220
0.0
230
1.0
 70
    11
 71
     3
 72
    77
 73
    73
 74
     0
 42
0.0000000001
 43
0.0000000001
 12
1.0
 22
0.0
 32
0.0
 13
1.0
 23
0.0
 33
0.0
 40
0.0
 40
0.0
 40
0.0
 40
0.0
 40
1.0
 40
1.0
 40
1.0
 40
2.0
 40
2.0
 40
2.0
 40
3.0
 40
3.0
 40
3.0
 40
4.0
 40
4.0
 40
4.0
 40
5.0
 40
5.0
 40
5.0
 40
6.0
 40
6.0
 40
6.0
 40
7.0
 40
7.0
 40
7.0
 40
8.0
 40
8.0
 40
8.0
 40
9.0
 40
9.0
 40
9.0
 40
10.0
 40
10.0
 40
10.0
 40
11.0
 40
11.0
 40
11.0
 40
12.0
 40
12.0
 40
12.0
 40
13.0
 40
13.0
 40
13.0
 40
14.0
 40
14.0
 40
14.0
 40
15.0
 40
15.0
 40
15.0
 40
16.0
 40
16.0
 40
16.0
 40
17.0
 40
17.0
 40
17.0
 40
18.0
 40
18.0
 40
18.0
 40
19.0
 40
19.0
 40
19.0
 40
20.0
 40
20.0
 40
20.0
 40
21.0
 40
21.0
 40
21.0
 40
22.0
 40
22.0
 40
22.0
 40
23.0
 40
23.0
 40
23.0
 40
24.0
 40
24.0
 40
24.0
 40
24.0
 10
258.6798391827351
 20
-694.2875232481092
 30
0.0
 10
252.3631620392534
 20
-706.0555511376551
 30
0.0
 10
252.4723507412782
 20
-715.218743389265
 30
0.0
 10
261.1086739340117
 20
-724.5511512054472
 30
0.0
 10
265.2540739225869
 20
-729.0306887039114
 30
0.0
 10
264.9936784099664
 20
-736.7674338733632
 30
0.0
 10
258.1300262715095
 20
-738.2534317703066
 30
0.0
 10
244.2063334800305
 20
-741.2680187982369
 30
0.0
 10
238.9865159886394
 20
-749.494887570916
 30
0.0
 10
239.7196210878183
 20
-764.8185151914804
 30
0.0
 10
226.1357434147512
 20
-749.1911904461776
 30
0.0
 10
213.5460099889833
 20
-735.3833439877853
 30
0.0
 10
196.9291389285445
 20
-726.0796395708967
 30
0.0
 10
179.8003256839529
 20
-716.4892597881917
 30
0.0
 10
176.9034735925525
 20
-717.6800953441234
 30
0.0
 10
172.9567318379241
 20
-737.0872463728047
 30
0.0
 10
164.7447404576242
 20
-777.4683742335656
 30
0.0
 10
154.2122288633309
 20
-817.569386742216
 30
0.0
 10
160.0666772181421
 20
-858.7295561229148
 30
0.0
 10
150.7347025401177
 20
-861.8634110414387
 30
0.0
 10
147.8775356292817
 20
-853.8572395285046
 30
0.0
 10
141.9622242854257
 20
-852.0121497313012
 30
0.0
 10
137.2082387539294
 20
-855.029348817774
 30
0.0
 10
132.629953527141
 20
-858.2348804593712
 30
0.0
 10
127.7728957895406
 20
-860.9400164470608
 30
0.0
 10
122.0201142436908
 20
-864.1439782210109
 30
0.0
 10
115.714960292682
 20
-863.7989551468854
 30
0.0
 10
114.2034669026489
 20
-856.8773363311775
 30
0.0
 10
111.4661535393116
 20
-844.3424434690023
 30
0.0
 10
104.013853702364
 20
-838.1748065726606
 30
0.0
 10
89.31753787810703
 20
-837.1158154060868
 30
0.0
 10
119.1425900103541
 20
-803.9937680586227
 30
0.0
 10
133.8092359992188
 20
-765.5091184897392
 30
0.0
 10
148.2105601948861
 20
-726.9264135691119
 30
0.0
 10
154.3737671960898
 20
-710.4143873173925
 30
0.0
 10
152.6746715628224
 20
-708.0684565465817
 30
0.0
 10
134.7074166537632
 20
-706.0354792561302
 30
0.0
 10
115.5735335033278
 20
-703.8705186943662
 30
0.0
 10
96.9087262796802
 20
-706.4192897669782
 30
0.0
 10
75.25715561819834
 20
-713.7055942940024
 30
0.0
 10
83.77318918053243
 20
-699.761206379324
 30
0.0
 10
84.13876035409703
 20
-688.7631870472615
 30
0.0
 10
75.22873579245879
 20
-677.6155894281146
 30
0.0
 10
71.72766909802885
 20
-673.2353459749029
 30
0.0
 10
76.00596849581052
 20
-667.0955512630717
 30
0.0
 10
81.51777196651801
 20
-666.3011548668619
 30
0.0
 10
94.44069207206212
 20
-664.4385640159817
 30
0.0
 10
98.39641784636842
 20
-655.982903521468
 30
0.0
 10
98.71664762621185
 20
-642.3895044740457
 30
0.0
 10
118.4014920369191
 20
-659.8982405256538
 30
0.0
 10
133.2305136975601
 20
-680.8273929050483
 30
0.0
 10
160.9908526299105
 20
-685.2801754645116
 30
0.0
 10
171.8062832873302
 20
-661.347573343508
 30
0.0
 10
168.2596273135296
 20
-637.810287313885
 30
0.0
 10
158.8584105861519
 20
-612.0345810502622
 30
0.0
 10
171.1216426025785
 20
-617.5709187583561
 30
0.0
 10
181.1893751373245
 20
-620.2640892917043
 30
0.0
 10
190.8320988746209
 20
-610.7083387178973
 30
0.0
 10
194.2649839908381
 20
-607.3063796413735
 30
0.0
 10
201.773212997743
 20
-607.9971868411703
 30
0.0
 10
203.6618812109446
 20
-613.7125707557971
 30
0.0
 10
207.8192496727816
 20
-626.2930768154765
 30
0.0
 10
215.2046085648026
 20
-633.3233083833402
 30
0.0
 10
230.5577679777807
 20
-631.7124094451428
 30
0.0
 10
216.8970644323217
 20
-645.9116474726507
 30
0.0
 10
203.3285692105255
 20
-657.388420774485
 30
0.0
 10
194.4579574351392
 20
-673.0010496011964
 30
0.0
 10
183.2787187723643
 20
-692.6770374977204
 30
0.0
 10
185.0879391578655
 20
-696.3847521408679
 30
0.0
 10
206.8808883125575
 20
-699.540517719619
 30
0.0
 10
224.3119262926393
 20
-702.064661305325
 30
0.0
 10
241.055338579471
 20
-699.5205145464461
 30
0.0
 10
258.6798391827351
 20
-694.2875232481092
 30
0.0
  0
HATCH
  5
66
330
41
100
AcDbEntity
  8
Layer 1
 62
   154
420
   217747
100
AcDbHatch
 10
0.0
 20
0.0
 30
0.0
210
0.0
220
0.0
230
1.0
  2
SOLID
 70
     1
 71
     0
 91
        1
 92
        1
 93
        1
 72
     4
 94
        3
 73
     0
 74
     1
 95
       77
 96
       73
 40
0.0
 40
0.0
 40
0.0
 40
0.0
 40
1.0
 40
1.0
 40
1.0
 40
2.0
 40
2.0
 40
2.0
 40
3.0
 40
3.0
 40
3.0
 40
4.0
 40
4.0
 40
4.0
 40
5.0
 40
5.0
 40
5.0
 40
6.0
 40
6.0
 40
6.0
 40
7.0
 40
7.0
 40
7.0
 40
8.0
 40
8.0
 40
8.0
 40
9.0
 40
9.0
 40
9.0
 40
10.0
 40
10.0
 40
10.0
 40
11.0
 40
11.0
 40
11.0
 40
12.0
 40
12.0
 40
12.0
 40
13.0
 40
13.0
 40
13.0
 40
14.0
 40
14.0
 40
14.0
 40
15.0
 40
15.0
 40
15.0
 40
16.0
 40
16.0
 40
16.0
 40
17.0
 40
17.0
 40
17.0
 40
18.0
 40
18.0
 40
18.0
 40
19.0
 40
19.0
 40
19.0
 40
20.0
 40
20.0
 40
20.0
 40
21.0
 40
21.0
 40
21.0
 40
22.0
 40
22.0
 40
22.0
 40
23.0
 40
23.0
 40
23.0
 40
24.0
 40
24.0
 40
24.0
 40
24.0
 10
258.6798391827351
 20
-694.2875232481092
 10
252.3631620392534
 20
-706.0555511376551
 10
252.4723507412782
 20
-715.218743389265
 10
261.1086739340117
 20
-724.5511512054472
 10
265.2540739225869
 20
-729.0306887039114
 10
264.9936784099664
 20
-736.7674338733632
 10
258.1300262715095
 20
-738.2534317703066
 10
244.2063334800305
 20
-741.2680187982369
 10
238.9865159886394
 20
-749.494887570916
 10
239.7196210878183
 20
-764.8185151914804
 10
226.1357434147512
 20
-749.1911904461776
 10
213.5460099889833
 20
-735.3833439877853
 10
196.9291389285445
 20
-726.0796395708967
 10
179.8003256839529
 20
-716.4892597881917
 10
176.9034735925525
 20
-717.6800953441234
 10
172.9567318379241
 20
-737.0872463728047
 10
164.7447404576242
 20
-777.4683742335656
 10
154.2122288633309
 20
-817.569386742216
 10
160.0666772181421
 20
-858.7295561229148
 10
150.7347025401177
 20
-861.8634110414387
 10
147.8775356292817
 20
-853.8572395285046
 10
141.9622242854257
 20
-852.0121497313012
 10
137.2082387539294
 20
-855.029348817774
 10
132.629953527141
 20
-858.2348804593712
 10
127.7728957895406
 20
-860.9400164470608
 10
122.0201142436908
 20
-864.1439782210109
 10
115.714960292682
 20
-863.7989551468854
 10
114.2034669026489
 20
-856.8773363311775
 10
111.4661535393116
 20
-844.3424434690023
 10
104.013853702364
 20
-838.1748065726606
 10
89.31753787810703
 20
-837.1158154060868
 10
119.1425900103541
 20
-803.9937680586227
 10
133.8092359992188
 20
-765.5091184897392
 10
148.2105601948861
 20
-726.9264135691119
 10
154.3737671960898
 20
-710.4143873173925
 10
152.6746715628224
 20
-708.0684565465817
 10
134.7074166537632
 20
-706.0354792561302
 10
115.5735335033278
 20
-703.8705186943662
 10
96.9087262796802
 20
-706.4192897669782
 10
75.25715561819834
 20
-713.7055942940024
 10
83.77318918053243
 20
-699.761206379324
 10
84.13876035409703
 20
-688.7631870472615
 10
75.22873579245879
 20
-677.6155894281146
 10
71.72766909802885
 20
-673.2353459749029
 10
76.00596849581052
 20
-667.0955512630717
 10
81.51777196651801
 20
-666.3011548668619
 10
94.44069207206212
 20
-664.4385640159817
 10
98.39641784636842
 20
-655.982903521468
 10
98.71664762621185
 20
-642.3895044740457
 10
118.4014920369191
 20
-659.8982405256538
 10
133.2305136975601
 20
-680.8273929050483
 10
160.9908526299105
 20
-685.2801754645116
 10
171.8062832873302
 20
-661.347573343508
 10
168.2596273135296
 20
-637.810287313885
 10
158.8584105861519
 20
-612.0345810502622
 10
171.1216426025785
 20
-617.5709187583561
 10
181.1893751373245
 20
-620.2640892917043
 10
190.8320988746209
 20
-610.7083387178973
 10
194.2649839908381
 20
-607.3063796413735
 10
201.773212997743
 20
-607.9971868411703
 10
203.6618812109446
 20
-613.7125707557971
 10
207.8192496727816
 20
-626.2930768154765
 10
215.2046085648026
 20
-633.3233083833402
 10
230.5577679777807
 20
-631.7124094451428
 10
216.8970644323217
 20
-645.9116474726507
 10
203.3285692105255
 20
-657.388420774485
 10
194.4579574351392
 20
-673.0010496011964
 10
183.2787187723643
 20
-692.6770374977204
 10
185.0879391578655
 20
-696.3847521408679
 10
206.8808883125575
 20
-699.540517719619
 10
224.3119262926393
 20
-702.064661305325
 10
241.055338579471
 20
-699.5205145464461
 10
258.6798391827351
 20
-694.2875232481092
 97
        0
 97
        0
 75
     2
 76
     1
 98
        0
  0
SPLINE
  5
67
330
41
100
AcDbEntity
  8
Layer 1
370
     0
100
AcDbSpline
210
0.0
220
0.0
230
1.0
 70
    11
 71
     3
 72
    50
 73
    46
 74
     0
 42
0.0000000001
 43
0.0000000001
 12
1.0
 22
0.0
 32
0.0
 13
1.0
 23
0.0
 33
0.0
 40
0.0
 40
0.0
 40
0.0
 40
0.0
 40
1.0
 40
1.0
 40
1.0
 40
2.0
 40
2.0
 40
2.0
 40
3.0
 40
3.0
 40
3.0
 40
4.0
 40
4.0
 40
4.0
 40
5.0
 40
5.0
 40
5.0
 40
6.0
 40
6.0
 40
6.0
 40
7.0
 40
7.0
 40
7.0
 40
8.0
 40
8.0
 40
8.0
 40
9.0
 40
9.0
 40
9.0
 40
10.0
 40
10.0
 40
10.0
 40
11.0
 40
11.0
 40
11.0
 40
12.0
 40
12.0
 40
12.0
 40
13.0
 40
13.0
 40
13.0
 40
14.0
 40
14.0
 40
14.0
 40
15.0
 40
15.0
 40
15.0
 40
15.0
 10
622.3714524549141
 20
-305.3724242801081
 30
0.0
 10
622.6707898442546
 20
-303.7895088233236
 30
0.0
 10
622.7978194944099
 20
-302.1731110584897
 30
0.0
 10
623.2876252086862
 20
-300.6753536413571
 30
0.0
 10
627.6776737895616
 20
-287.250986623033
 30
0.0
 10
634.0743627703869
 20
-274.9280062734188
 30
0.0
 10
643.555848727352
 20
-264.3432467502325
 30
0.0
 10
646.0306482782216
 20
-261.5804867149736
 30
0.0
 10
648.7919136473247
 20
-259.1996055460577
 30
0.0
 10
652.1939132767766
 20
-257.5336705748914
 30
0.0
 10
659.1966792105104
 20
-254.1044808994629
 30
0.0
 10
666.3812041614765
 20
-258.0404768988983
 30
0.0
 10
667.0695390121964
 20
-265.8179279223896
 30
0.0
 10
667.4149159635217
 20
-269.720282152849
 30
0.0
 10
666.8053046248151
 20
-273.5103224198892
 30
0.0
 10
664.7941535667433
 20
-276.8406805422046
 30
0.0
 10
662.8370530130687
 20
-280.0815352702775
 30
0.0
 10
660.4365831880659
 20
-283.0554650959311
 30
0.0
 10
658.2131523955813
 20
-286.133862510238
 30
0.0
 10
657.8344559477537
 20
-286.6581790199498
 30
0.0
 10
657.3670514472142
 20
-287.1184254265945
 30
0.0
 10
656.7656455630113
 20
-287.8092743316729
 30
0.0
 10
661.3479411352437
 20
-287.4508880904787
 30
0.0
 10
665.5480981253895
 20
-286.9848762592119
 30
0.0
 10
669.7596152161605
 20
-286.8318710294661
 30
0.0
 10
673.9291496199403
 20
-286.6804070656208
 30
0.0
 10
678.0866725397627
 20
-287.0163803901205
 30
0.0
 10
681.9140308501901
 20
-288.9563970709933
 30
0.0
 10
685.3513816903414
 20
-290.6987440578105
 30
0.0
 10
687.2119763514111
 20
-293.6814183736797
 30
0.0
 10
686.7126312086475
 20
-297.0191451735482
 30
0.0
 10
686.2961723409517
 20
-299.802660919454
 30
0.0
 10
685.2085944831724
 20
-302.3382709506595
 30
0.0
 10
682.9794194549486
 20
-304.251755311795
 30
0.0
 10
680.5484041650634
 20
-306.3385299093588
 30
0.0
 10
677.7554031923628
 20
-307.5476440485254
 30
0.0
 10
674.6056834030478
 20
-308.1218251539221
 30
0.0
 10
667.2704847433706
 20
-309.4589733339335
 30
0.0
 10
659.9281845834521
 20
-309.4425939932598
 30
0.0
 10
652.5406261687167
 20
-308.6391678013051
 30
0.0
 10
642.9114759542044
 20
-307.5919541035428
 30
0.0
 10
633.2688784687489
 20
-306.6684725291516
 30
0.0
 10
623.6329499524181
 20
-305.6832229565398
 30
0.0
 10
623.2975080670458
 20
-305.6489307231959
 30
0.0
 10
622.9714258511467
 20
-305.5232643227491
 30
0.0
 10
622.3714524549141
 20
-305.3724242801081
 30
0.0
  0
HATCH
  5
68
330
41
100
AcDbEntity
  8
Layer 1
 62
   230
420
 16727189
100
AcDbHatch
 10
0.0
 20
0.0
 30
0.0
210
0.0
220
0.0
230
1.0
  2
SOLID
 70
     1
 71
     0
 91
        1
 92
        1
 93
        1
 72
     4
 94
        3
 73
     0
 74
     1
 95
       50
 96
       46
 40
0.0
 40
0.0
 40
0.0
 40
0.0
 40
1.0
 40
1.0
 40
1.0
 40
2.0
 40
2.0
 40
2.0
 40
3.0
 40
3.0
 40
3.0
 40
4.0
 40
4.0
 40
4.0
 40
5.0
 40
5.0
 40
5.0
 40
6.0
 40
6.0
 40
6.0
 40
7.0
 40
7.0
 40
7.0
 40
8.0
 40
8.0
 40
8.0
 40
9.0
 40
9.0
 40
9.0
 40
10.0
 40
10.0
 40
10.0
 40
11.0
 40
11.0
 40
11.0
 40
12.0
 40
12.0
 40
12.0
 40
13.0
 40
13.0
 40
13.0
 40
14.0
 40
14.0
 40
14.0
 40
15.0
 40
15.0
 40
15.0
 40
15.0
 10
622.3714524549141
 20
-305.3724242801081
 10
622.6707898442546
 20
-303.7895088233236
 10
622.7978194944099
 20
-302.1731110584897
 10
623.2876252086862
 20
-300.6753536413571
 10
627.6776737895616
 20
-287.250986623033
 10
634.0743627703869
 20
-274.9280062734188
 10
643.555848727352
 20
-264.3432467502325
 10
646.0306482782216
 20
-261.5804867149736
 10
648.7919136473247
 20
-259.1996055460577
 10
652.1939132767766
 20
-257.5336705748914
 10
659.1966792105104
 20
-254.1044808994629
 10
666.3812041614765
 20
-258.0404768988983
 10
667.0695390121964
 20
-265.8179279223896
 10
667.4149159635217
 20
-269.720282152849
 10
666.8053046248151
 20
-273.5103224198892
 10
664.7941535667433
 20
-276.8406805422046
 10
662.8370530130687
 20
-280.0815352702775
 10
660.4365831880659
 20
-283.0554650959311
 10
658.2131523955813
 20
-286.133862510238
 10
657.8344559477537
 20
-286.6581790199498
 10
657.3670514472142
 20
-287.1184254265945
 10
656.7656455630113
 20
-287.8092743316729
 10
661.3479411352437
 20
-287.4508880904787
 10
665.5480981253895
 20
-286.9848762592119
 10
669.7596152161605
 20
-286.8318710294661
 10
673.9291496199403
 20
-286.6804070656208
 10
678.0866725397627
 20
-287.0163803901205
 10
681.9140308501901
 20
-288.9563970709933
 10
685.3513816903414
 20
-290.6987440578105
 10
687.2119763514111
 20
-293.6814183736797
 10
686.7126312086475
 20
-297.0191451735482
 10
686.2961723409517
 20
-299.802660919454
 10
685.2085944831724
 20
-302.3382709506595
 10
682.9794194549486
 20
-304.251755311795
 10
680.5484041650634
 20
-306.3385299093588
 10
677.7554031923628
 20
-307.5476440485254
 10
674.6056834030478
 20
-308.1218251539221
 10
667.2704847433706
 20
-309.4589733339335
 10
659.9281845834521
 20
-309.4425939932598
 10
652.5406261687167
 20
-308.6391678013051
 10
642.9114759542044
 20
-307.5919541035428
 10
633.2688784687489
 20
-306.6684725291516
 10
623.6329499524181
 20
-305.6832229565398
 10
623.2975080670458
 20
-305.6489307231959
 10
622.9714258511467
 20
-305.5232643227491
 10
622.3714524549141
 20
-305.3724242801081
 97
        0
 97
        0
 75
     2
 76
     1
 98
        0
  0
ENDBLK
  5
44
330
41
100
AcDbEntity
  8
0
100
AcDbBlockEnd
  0
BLOCK
  5
47
330
45
100
AcDbEntity
  8
0
100
AcDbBlockBegin
  2
block 3
 70
     0
 10
0.0
 20
0.0
 30
0.0
  3
block 3
  1

  0
SPLINE
  5
49
330
45
100
AcDbEntity
  8
Layer 1
370
     0
100
AcDbSpline
210
0.0
220
0.0
230
1.0
 70
    11
 71
     3
 72
    38
 73
    34
 74
     0
 42
0.0000000001
 43
0.0000000001
 12
1.0
 22
0.0
 32
0.0
 13
1.0
 23
0.0
 33
0.0
 40
0.0
 40
0.0
 40
0.0
 40
0.0
 40
1.0
 40
1.0
 40
1.0
 40
2.0
 40
2.0
 40
2.0
 40
3.0
 40
3.0
 40
3.0
 40
4.0
 40
4.0
 40
4.0
 40
5.0
 40
5.0
 40
5.0
 40
6.0
 40
6.0
 40
6.0
 40
7.0
 40
7.0
 40
7.0
 40
8.0
 40
8.0
 40
8.0
 40
9.0
 40
9.0
 40
9.0
 40
10.0
 40
10.0
 40
10.0
 40
11.0
 40
11.0
 40
11.0
 40
11.0
 10
401.906812998579
 20
-866.0569362838942
 30
0.0
 10
437.1627312857636
 20
-907.2506934404992
 30
0.0
 10
414.8958355254363
 20
-949.5577953851207
 30
0.0
 10
375.5576530155249
 20
-902.7973142884366
 30
0.0
 10
356.2596766899087
 20
-880.159303598768
 30
0.0
 10
337.7039302229696
 20
-857.1501779797654
 30
0.0
 10
318.7770688266919
 20
-834.1410523607592
 30
0.0
 10
318.7770688266919
 20
-846.7589599582789
 30
0.0
 10
318.7770688266919
 20
-859.0057526264573
 30
0.0
 10
319.1481837560304
 20
-870.881430365298
 30
0.0
 10
319.8904136147085
 20
-939.5376922929754
 30
0.0
 10
281.6655758928136
 20
-938.0532325756176
 30
0.0
 10
280.9233460341356
 20
-875.3348095173642
 30
0.0
 10
280.1811161754576
 20
-828.2032134913388
 30
0.0
 10
280.1811161754576
 20
-777.3604681719262
 30
0.0
 10
280.1811161754576
 20
-726.1466079231759
 30
0.0
 10
280.1811161754576
 20
-674.1905178157467
 30
0.0
 10
280.1811161754576
 20
-621.8633127789763
 30
0.0
 10
279.8100012461191
 20
-572.8761421062591
 30
0.0
 10
279.4388863167806
 20
-550.6092463459281
 30
0.0
 10
278.6966564581035
 20
-539.1046835364259
 30
0.0
 10
282.4078057514907
 20
-533.1668446670055
 30
0.0
 10
289.0878744795891
 20
-522.4045117161804
 30
0.0
 10
332.1372062828877
 20
-525.3734311508906
 30
0.0
 10
344.383998951067
 20
-527.6001207269237
 30
0.0
 10
396.3400890584971
 20
-538.3624536777479
 30
0.0
 10
432.7093521336974
 20
-591.0607736438578
 30
0.0
 10
432.7093521336974
 20
-662.6859550062436
 30
0.0
 10
432.7093521336974
 20
-729.4866422872219
 30
0.0
 10
400.7934682105624
 20
-788.4939160520917
 30
0.0
 10
352.5485273965205
 20
-805.9363177310115
 30
0.0
 10
368.8775842874275
 20
-825.9765239153057
 30
0.0
 10
385.2066411783335
 20
-846.3878450289412
 30
0.0
 10
401.906812998579
 20
-866.0569362838942
 30
0.0
  0
SPLINE
  5
4A
330
45
100
AcDbEntity
  8
Layer 1
370
     0
100
AcDbSpline
210
0.0
220
0.0
230
1.0
 70
    11
 71
     3
 72
    17
 73
    13
 74
     0
 42
0.0000000001
 43
0.0000000001
 12
1.0
 22
0.0
 32
0.0
 13
1.0
 23
0.0
 33
0.0
 40
0.0
 40
0.0
 40
0.0
 40
0.0
 40
1.0
 40
1.0
 40
1.0
 40
2.0
 40
2.0
 40
2.0
 40
3.0
 40
3.0
 40
3.0
 40
4.0
 40
4.0
 40
4.0
 40
4.0
 10
394.4845144118035
 20
-663.7992997942602
 30
0.0
 10
394.855629341142
 20
-604.0497961707151
 30
0.0
 10
359.5997110539574
 20
-575.4739466116298
 30
0.0
 10
318.0348389680139
 20
-577.3295212583216
 30
0.0
 10
318.4059538973524
 20
-624.8322322136883
 30
0.0
 10
318.4059538973524
 20
-675.6749775331009
 30
0.0
 10
318.4059538973524
 20
-726.1466079231759
 30
0.0
 10
318.4059538973524
 20
-726.1466079231759
 30
0.0
 10
318.4059538973524
 20
-759.9180664930027
 30
0.0
 10
318.4059538973524
 20
-759.9180664930027
 30
0.0
 10
361.0841707713125
 20
-760.6602963516816
 30
0.0
 10
394.113399482465
 20
-721.6932287711097
 30
0.0
 10
394.4845144118035
 20
-663.7992997942602
 30
0.0
  0
HATCH
  5
4B
330
45
100
AcDbEntity
  8
Layer 1
 62
   250
420
  2500134
100
AcDbHatch
 10
0.0
 20
0.0
 30
0.0
210
0.0
220
0.0
230
1.0
  2
SOLID
 70
     1
 71
     0
 91
        2
 92
        1
 93
        1
 72
     4
 94
        3
 73
     0
 74
     1
 95
       38
 96
       34
 40
0.0
 40
0.0
 40
0.0
 40
0.0
 40
1.0
 40
1.0
 40
1.0
 40
2.0
 40
2.0
 40
2.0
 40
3.0
 40
3.0
 40
3.0
 40
4.0
 40
4.0
 40
4.0
 40
5.0
 40
5.0
 40
5.0
 40
6.0
 40
6.0
 40
6.0
 40
7.0
 40
7.0
 40
7.0
 40
8.0
 40
8.0
 40
8.0
 40
9.0
 40
9.0
 40
9.0
 40
10.0
 40
10.0
 40
10.0
 40
11.0
 40
11.0
 40
11.0
 40
11.0
 10
401.906812998579
 20
-866.0569362838942
 10
437.1627312857636
 20
-907.2506934404992
 10
414.8958355254363
 20
-949.5577953851207
 10
375.5576530155249
 20
-902.7973142884366
 10
356.2596766899087
 20
-880.159303598768
 10
337.7039302229696
 20
-857.1501779797654
 10
318.7770688266919
 20
-834.1410523607592
 10
318.7770688266919
 20
-846.7589599582789
 10
318.7770688266919
 20
-859.0057526264573
 10
319.1481837560304
 20
-870.881430365298
 10
319.8904136147085
 20
-939.5376922929754
 10
281.6655758928136
 20
-938.0532325756176
 10
280.9233460341356
 20
-875.3348095173642
 10
280.1811161754576
 20
-828.2032134913388
 10
280.1811161754576
 20
-777.3604681719262
 10
280.1811161754576
 20
-726.1466079231759
 10
280.1811161754576
 20
-674.1905178157467
 10
280.1811161754576
 20
-621.8633127789763
 10
279.8100012461191
 20
-572.8761421062591
 10
279.4388863167806
 20
-550.6092463459281
 10
278.6966564581035
 20
-539.1046835364259
 10
282.4078057514907
 20
-533.1668446670055
 10
289.0878744795891
 20
-522.4045117161804
 10
332.1372062828877
 20
-525.3734311508906
 10
344.383998951067
 20
-527.6001207269237
 10
396.3400890584971
 20
-538.3624536777479
 10
432.7093521336974
 20
-591.0607736438578
 10
432.7093521336974
 20
-662.6859550062436
 10
432.7093521336974
 20
-729.4866422872219
 10
400.7934682105624
 20
-788.4939160520917
 10
352.5485273965205
 20
-805.9363177310115
 10
368.8775842874275
 20
-825.9765239153057
 10
385.2066411783335
 20
-846.3878450289412
 10
401.906812998579
 20
-866.0569362838942
 97
        0
 97
        0
 92
        1
 93
        1
 72
     4
 94
        3
 73
     0
 74
     1
 95
       17
 96
       13
 40
0.0
 40
0.0
 40
0.0
 40
0.0
 40
1.0
 40
1.0
 40
1.0
 40
2.0
 40
2.0
 40
2.0
 40
3.0
 40
3.0
 40
3.0
 40
4.0
 40
4.0
 40
4.0
 40
4.0
 10
394.4845144118035
 20
-663.7992997942602
 10
394.855629341142
 20
-604.0497961707151
 10
359.5997110539574
 20
-575.4739466116298
 10
318.0348389680139
 20
-577.3295212583216
 10
318.4059538973524
 20
-624.8322322136883
 10
318.4059538973524
 20
-675.6749775331009
 10
318.4059538973524
 20
-726.1466079231759
 10
318.4059538973524
 20
-726.1466079231759
 10
318.4059538973524
 20
-759.9180664930027
 10
318.4059538973524
 20
-759.9180664930027
 10
361.0841707713125
 20
-760.6602963516816
 10
394.113399482465
 20
-721.6932287711097
 10
394.4845144118035
 20
-663.7992997942602
 97
        0
 97
        0
 75
     2
 76
     1
 98
        0
  0
SPLINE
  5
4C
330
45
100
AcDbEntity
  8
Layer 1
370
     0
100
AcDbSpline
210
0.0
220
0.0
230
1.0
 70
    11
 71
     3
 72
    23
 73
    19
 74
     0
 42
0.0000000001
 43
0.0000000001
 12
1.0
 22
0.0
 32
0.0
 13
1.0
 23
0.0
 33
0.0
 40
0.0
 40
0.0
 40
0.0
 40
0.0
 40
1.0
 40
1.0
 40
1.0
 40
2.0
 40
2.0
 40
2.0
 40
3.0
 40
3.0
 40
3.0
 40
4.0
 40
4.0
 40
4.0
 40
5.0
 40
5.0
 40
5.0
 40
6.0
 40
6.0
 40
6.0
 40
6.0
 10
500.9893447580152
 20
-700.1685628694613
 30
0.0
 10
500.6182298286767
 20
-753.237997764907
 30
0.0
 10
500.6182298286767
 20
-805.5652028016739
 30
0.0
 10
500.6182298286767
 20
-856.4079481210865
 30
0.0
 10
500.6182298286767
 20
-920.2397159673565
 30
0.0
 10
462.3933921067819
 20
-924.6930951194227
 30
0.0
 10
462.3933921067819
 20
-849.7278793929909
 30
0.0
 10
462.3933921067819
 20
-801.1118236496077
 30
0.0
 10
462.7645070361204
 20
-750.6401932595327
 30
0.0
 10
462.7645070361204
 20
-699.79744794012
 30
0.0
 10
463.135621965459
 20
-657.4903459954985
 30
0.0
 10
463.5067368947985
 20
-615.183244050877
 30
0.0
 10
463.5067368947985
 20
-573.2472570355967
 30
0.0
 10
463.5067368947985
 20
-503.4776503199028
 30
0.0
 10
501.7315746166933
 20
-504.2198801785808
 30
0.0
 10
501.7315746166933
 20
-572.1339122475802
 30
0.0
 10
501.7315746166933
 20
-614.4410141922017
 30
0.0
 10
501.3604596873538
 20
-657.4903459954985
 30
0.0
 10
500.9893447580152
 20
-700.1685628694613
 30
0.0
  0
HATCH
  5
4D
330
45
100
AcDbEntity
  8
Layer 1
 62
   250
420
  2500134
100
AcDbHatch
 10
0.0
 20
0.0
 30
0.0
210
0.0
220
0.0
230
1.0
  2
SOLID
 70
     1
 71
     0
 91
        1
 92
        1
 93
        1
 72
     4
 94
        3
 73
     0
 74
     1
 95
       23
 96
       19
 40
0.0
 40
0.0
 40
0.0
 40
0.0
 40
1.0
 40
1.0
 40
1.0
 40
2.0
 40
2.0
 40
2.0
 40
3.0
 40
3.0
 40
3.0
 40
4.0
 40
4.0
 40
4.0
 40
5.0
 40
5.0
 40
5.0
 40
6.0
 40
6.0
 40
6.0
 40
6.0
 10
500.9893447580152
 20
-700.1685628694613
 10
500.6182298286767
 20
-753.237997764907
 10
500.6182298286767
 20
-805.5652028016739
 10
500.6182298286767
 20
-856.4079481210865
 10
500.6182298286767
 20
-920.2397159673565
 10
462.3933921067819
 20
-924.6930951194227
 10
462.3933921067819
 20
-849.7278793929909
 10
462.3933921067819
 20
-801.1118236496077
 10
462.7645070361204
 20
-750.6401932595327
 10
462.7645070361204
 20
-699.79744794012
 10
463.135621965459
 20
-657.4903459954985
 10
463.5067368947985
 20
-615.183244050877
 10
463.5067368947985
 20
-573.2472570355967
 10
463.5067368947985
 20
-503.4776503199028
 10
501.7315746166933
 20
-504.2198801785808
 10
501.7315746166933
 20
-572.1339122475802
 10
501.7315746166933
 20
-614.4410141922017
 10
501.3604596873538
 20
-657.4903459954985
 10
500.9893447580152
 20
-700.1685628694613
 97
        0
 97
        0
 75
     2
 76
     1
 98
        0
  0
SPLINE
  5
4E
330
45
100
AcDbEntity
  8
Layer 1
370
     0
100
AcDbSpline
210
0.0
220
0.0
230
1.0
 70
    11
 71
     3
 72
    47
 73
    43
 74
     0
 42
0.0000000001
 43
0.0000000001
 12
1.0
 22
0.0
 32
0.0
 13
1.0
 23
0.0
 33
0.0
 40
0.0
 40
0.0
 40
0.0
 40
0.0
 40
1.0
 40
1.0
 40
1.0
 40
2.0
 40
2.0
 40
2.0
 40
3.0
 40
3.0
 40
3.0
 40
4.0
 40
4.0
 40
4.0
 40
5.0
 40
5.0
 40
5.0
 40
6.0
 40
6.0
 40
6.0
 40
7.0
 40
7.0
 40
7.0
 40
8.0
 40
8.0
 40
8.0
 40
9.0
 40
9.0
 40
9.0
 40
10.0
 40
10.0
 40
10.0
 40
11.0
 40
11.0
 40
11.0
 40
12.0
 40
12.0
 40
12.0
 40
13.0
 40
13.0
 40
13.0
 40
14.0
 40
14.0
 40
14.0
 40
14.0
 10
565.555610901938
 20
-634.4812203764959
 30
0.0
 10
565.9267258312775
 20
-675.3038626037596
 30
0.0
 10
588.5647365209425
 20
-691.6329194946666
 30
0.0
 10
613.0583218573029
 20
-707.9619763855735
 30
0.0
 10
653.1387342258913
 20
-734.682251297967
 30
0.0
 10
682.4568136436537
 20
-761.7736411396982
 30
0.0
 10
682.4568136436537
 20
-828.2032134913388
 30
0.0
 10
682.4568136436537
 20
-882.3859931748011
 30
0.0
 10
656.4787685899391
 20
-927.6620145541347
 30
0.0
 10
614.542781574657
 20
-926.5486697661181
 30
0.0
 10
579.2868632874724
 20
-925.8064399074392
 30
0.0
 10
552.5665883750808
 20
-889.8082917615793
 30
0.0
 10
551.8243585164037
 20
-842.676695735554
 30
0.0
 10
552.1954734457413
 20
-774.3915487372178
 30
0.0
 10
598.2137246837501
 20
-786.6383414053962
 30
0.0
 10
590.0491962382966
 20
-841.5633509475374
 30
0.0
 10
590.0491962382966
 20
-861.2324422024903
 30
0.0
 10
600.8115291891227
 20
-875.3348095173642
 30
0.0
 10
615.6561263626736
 20
-875.3348095173642
 30
0.0
 10
633.8407579002742
 20
-875.3348095173642
 30
0.0
 10
643.8608609924213
 20
-856.0368331917489
 30
0.0
 10
644.2319759217589
 20
-832.656592643405
 30
0.0
 10
644.6030908510984
 20
-789.2361459107669
 30
0.0
 10
621.593965232094
 20
-771.0515143731682
 30
0.0
 10
595.9870351077188
 20
-754.3513425529236
 30
0.0
 10
557.0199675271451
 20
-728.373297499209
 30
0.0
 10
528.8152328973956
 20
-703.1374823041697
 30
0.0
 10
527.3307731800414
 20
-639.3057144578997
 30
0.0
 10
525.8463134626854
 20
-571.3916823889012
 30
0.0
 10
561.8444616085508
 20
-519.0644773521317
 30
0.0
 10
612.6872069279634
 20
-520.1778221401482
 30
0.0
 10
650.9120446498582
 20
-520.5489370694868
 30
0.0
 10
684.3123882903474
 20
-551.7225911339447
 30
0.0
 10
690.6213420891072
 20
-602.1942215240197
 30
0.0
 10
697.6725257465441
 20
-662.6859550062436
 30
0.0
 10
662.787722388699
 20
-667.5104490876474
 30
0.0
 10
652.7676192965519
 20
-612.2143246161686
 30
0.0
 10
647.2008953564709
 20
-585.4940497037751
 30
0.0
 10
630.871838465564
 20
-570.649452530226
 30
0.0
 10
610.4605173519303
 20
-571.3916823889012
 30
0.0
 10
583.7402424395386
 20
-572.1339122475802
 30
0.0
 10
565.1844959725986
 20
-598.4830722306324
 30
0.0
 10
565.555610901938
 20
-634.4812203764959
 30
0.0
  0
HATCH
  5
4F
330
45
100
AcDbEntity
  8
Layer 1
 62
   250
420
  2500134
100
AcDbHatch
 10
0.0
 20
0.0
 30
0.0
210
0.0
220
0.0
230
1.0
  2
SOLID
 70
     1
 71
     0
 91
        1
 92
        1
 93
        1
 72
     4
 94
        3
 73
     0
 74
     1
 95
       47
 96
       43
 40
0.0
 40
0.0
 40
0.0
 40
0.0
 40
1.0
 40
1.0
 40
1.0
 40
2.0
 40
2.0
 40
2.0
 40
3.0
 40
3.0
 40
3.0
 40
4.0
 40
4.0
 40
4.0
 40
5.0
 40
5.0
 40
5.0
 40
6.0
 40
6.0
 40
6.0
 40
7.0
 40
7.0
 40
7.0
 40
8.0
 40
8.0
 40
8.0
 40
9.0
 40
9.0
 40
9.0
 40
10.0
 40
10.0
 40
10.0
 40
11.0
 40
11.0
 40
11.0
 40
12.0
 40
12.0
 40
12.0
 40
13.0
 40
13.0
 40
13.0
 40
14.0
 40
14.0
 40
14.0
 40
14.0
 10
565.555610901938
 20
-634.4812203764959
 10
565.9267258312775
 20
-675.3038626037596
 10
588.5647365209425
 20
-691.6329194946666
 10
613.0583218573029
 20
-707.9619763855735
 10
653.1387342258913
 20
-734.682251297967
 10
682.4568136436537
 20
-761.7736411396982
 10
682.4568136436537
 20
-828.2032134913388
 10
682.4568136436537
 20
-882.3859931748011
 10
656.4787685899391
 20
-927.6620145541347
 10
614.542781574657
 20
-926.5486697661181
 10
579.2868632874724
 20
-925.8064399074392
 10
552.5665883750808
 20
-889.8082917615793
 10
551.8243585164037
 20
-842.676695735554
 10
552.1954734457413
 20
-774.3915487372178
 10
598.2137246837501
 20
-786.6383414053962
 10
590.0491962382966
 20
-841.5633509475374
 10
590.0491962382966
 20
-861.2324422024903
 10
600.8115291891227
 20
-875.3348095173642
 10
615.6561263626736
 20
-875.3348095173642
 10
633.8407579002742
 20
-875.3348095173642
 10
643.8608609924213
 20
-856.0368331917489
 10
644.2319759217589
 20
-832.656592643405
 10
644.6030908510984
 20
-789.2361459107669
 10
621.593965232094
 20
-771.0515143731682
 10
595.9870351077188
 20
-754.3513425529236
 10
557.0199675271451
 20
-728.373297499209
 10
528.8152328973956
 20
-703.1374823041697
 10
527.3307731800414
 20
-639.3057144578997
 10
525.8463134626854
 20
-571.3916823889012
 10
561.8444616085508
 20
-519.0644773521317
 10
612.6872069279634
 20
-520.1778221401482
 10
650.9120446498582
 20
-520.5489370694868
 10
684.3123882903474
 20
-551.7225911339447
 10
690.6213420891072
 20
-602.1942215240197
 10
697.6725257465441
 20
-662.6859550062436
 10
662.787722388699
 20
-667.5104490876474
 10
652.7676192965519
 20
-612.2143246161686
 10
647.2008953564709
 20
-585.4940497037751
 10
630.871838465564
 20
-570.649452530226
 10
610.4605173519303
 20
-571.3916823889012
 10
583.7402424395386
 20
-572.1339122475802
 10
565.1844959725986
 20
-598.4830722306324
 10
565.555610901938
 20
-634.4812203764959
 97
        0
 97
        0
 75
     2
 76
     1
 98
        0
  0
SPLINE
  5
50
330
45
100
AcDbEntity
  8
Layer 1
370
     0
100
AcDbSpline
210
0.0
220
0.0
230
1.0
 70
    11
 71
     3
 72
    53
 73
    49
 74
     0
 42
0.0000000001
 43
0.0000000001
 12
1.0
 22
0.0
 32
0.0
 13
1.0
 23
0.0
 33
0.0
 40
0.0
 40
0.0
 40
0.0
 40
0.0
 40
1.0
 40
1.0
 40
1.0
 40
2.0
 40
2.0
 40
2.0
 40
3.0
 40
3.0
 40
3.0
 40
4.0
 40
4.0
 40
4.0
 40
5.0
 40
5.0
 40
5.0
 40
6.0
 40
6.0
 40
6.0
 40
7.0
 40
7.0
 40
7.0
 40
8.0
 40
8.0
 40
8.0
 40
9.0
 40
9.0
 40
9.0
 40
10.0
 40
10.0
 40
10.0
 40
11.0
 40
11.0
 40
11.0
 40
12.0
 40
12.0
 40
12.0
 40
13.0
 40
13.0
 40
13.0
 40
14.0
 40
14.0
 40
14.0
 40
15.0
 40
15.0
 40
15.0
 40
16.0
 40
16.0
 40
16.0
 40
16.0
 10
796.0050960862754
 20
-896.488360489675
 30
0.0
 10
780.047154124708
 20
-896.1172455603373
 30
0.0
 10
761.4914076577679
 20
-896.1172455603373
 30
0.0
 10
745.5334656962004
 20
-896.488360489675
 30
0.0
 10
714.3598116317426
 20
-896.488360489675
 30
0.0
 10
718.0709609251317
 20
-904.6528889351284
 30
0.0
 10
718.0709609251317
 20
-864.57247656654
 30
0.0
 10
718.0709609251317
 20
-810.7608118124153
 30
0.0
 10
718.4420758544693
 20
-757.320261987632
 30
0.0
 10
719.1843057131464
 20
-703.5085972335073
 30
0.0
 10
719.9265355718253
 20
-661.9437251475647
 30
0.0
 10
720.6687654305024
 20
-619.6366232029432
 30
0.0
 10
720.2976505011629
 20
-575.8450615409674
 30
0.0
 10
719.9265355718253
 20
-536.5068790310543
 30
0.0
 10
714.3598116317426
 20
-533.1668446670055
 30
0.0
 10
738.1111671094259
 20
-532.7957297376661
 30
0.0
 10
753.3268792123145
 20
-532.4246148083275
 30
0.0
 10
768.5425913152048
 20
-532.053499878989
 30
0.0
 10
783.3871884887576
 20
-532.053499878989
 30
0.0
 10
821.6120262106506
 20
-531.3112700203119
 30
0.0
 10
823.8387157866837
 20
-583.267360127742
 30
0.0
 10
784.5005332767723
 20
-583.267360127742
 30
0.0
 10
775.5937749726418
 20
-583.267360127742
 30
0.0
 10
767.0581315978507
 20
-583.6384750570833
 30
0.0
 10
758.5224882230577
 20
-584.0095899864209
 30
0.0
 10
758.5224882230577
 20
-625.5744620723635
 30
0.0
 10
758.1513732937201
 20
-664.9126445822767
 30
0.0
 10
757.4091434350412
 20
-704.6219420215239
 30
0.0
 10
757.0380285057036
 20
-724.2910332764804
 30
0.0
 10
756.6669135763641
 20
-743.5890096020958
 30
0.0
 10
756.6669135763641
 20
-763.62921578639
 30
0.0
 10
764.8314420218176
 20
-763.62921578639
 30
0.0
 10
775.5937749726418
 20
-763.62921578639
 30
0.0
 10
789.6961422875156
 20
-764.0003307157313
 30
0.0
 10
831.2610143734601
 20
-765.1136755037478
 30
0.0
 10
827.549865080071
 20
-816.6986506818357
 30
0.0
 10
790.8094870755322
 20
-815.5853058938228
 30
0.0
 10
775.9648899019812
 20
-815.2141909644815
 30
0.0
 10
764.8314420218176
 20
-814.8430760351439
 30
0.0
 10
756.2957986470265
 20
-814.8430760351439
 30
0.0
 10
756.2957986470265
 20
-824.8631791272892
 30
0.0
 10
756.2957986470265
 20
-834.8832822194381
 30
0.0
 10
756.6669135763641
 20
-844.9033853115834
 30
0.0
 10
756.6669135763641
 20
-844.9033853115834
 30
0.0
 10
799.7162453796627
 20
-844.9033853115834
 30
0.0
 10
799.7162453796627
 20
-844.9033853115834
 30
0.0
 10
844.9922667589944
 20
-844.9033853115834
 30
0.0
 10
841.6522323949448
 20
-896.488360489675
 30
0.0
 10
796.0050960862754
 20
-896.488360489675
 30
0.0
  0
HATCH
  5
51
330
45
100
AcDbEntity
  8
Layer 1
 62
   250
420
  2500134
100
AcDbHatch
 10
0.0
 20
0.0
 30
0.0
210
0.0
220
0.0
230
1.0
  2
SOLID
 70
     1
 71
     0
 91
        1
 92
        1
 93
        1
 72
     4
 94
        3
 73
     0
 74
     1
 95
       53
 96
       49
 40
0.0
 40
0.0
 40
0.0
 40
0.0
 40
1.0
 40
1.0
 40
1.0
 40
2.0
 40
2.0
 40
2.0
 40
3.0
 40
3.0
 40
3.0
 40
4.0
 40
4.0
 40
4.0
 40
5.0
 40
5.0
 40
5.0
 40
6.0
 40
6.0
 40
6.0
 40
7.0
 40
7.0
 40
7.0
 40
8.0
 40
8.0
 40
8.0
 40
9.0
 40
9.0
 40
9.0
 40
10.0
 40
10.0
 40
10.0
 40
11.0
 40
11.0
 40
11.0
 40
12.0
 40
12.0
 40
12.0
 40
13.0
 40
13.0
 40
13.0
 40
14.0
 40
14.0
 40
14.0
 40
15.0
 40
15.0
 40
15.0
 40
16.0
 40
16.0
 40
16.0
 40
16.0
 10
796.0050960862754
 20
-896.488360489675
 10
780.047154124708
 20
-896.1172455603373
 10
761.4914076577679
 20
-896.1172455603373
 10
745.5334656962004
 20
-896.488360489675
 10
714.3598116317426
 20
-896.488360489675
 10
718.0709609251317
 20
-904.6528889351284
 10
718.0709609251317
 20
-864.57247656654
 10
718.0709609251317
 20
-810.7608118124153
 10
718.4420758544693
 20
-757.320261987632
 10
719.1843057131464
 20
-703.5085972335073
 10
719.9265355718253
 20
-661.9437251475647
 10
720.6687654305024
 20
-619.6366232029432
 10
720.2976505011629
 20
-575.8450615409674
 10
719.9265355718253
 20
-536.5068790310543
 10
714.3598116317426
 20
-533.1668446670055
 10
738.1111671094259
 20
-532.7957297376661
 10
753.3268792123145
 20
-532.4246148083275
 10
768.5425913152048
 20
-532.053499878989
 10
783.3871884887576
 20
-532.053499878989
 10
821.6120262106506
 20
-531.3112700203119
 10
823.8387157866837
 20
-583.267360127742
 10
784.5005332767723
 20
-583.267360127742
 10
775.5937749726418
 20
-583.267360127742
 10
767.0581315978507
 20
-583.6384750570833
 10
758.5224882230577
 20
-584.0095899864209
 10
758.5224882230577
 20
-625.5744620723635
 10
758.1513732937201
 20
-664.9126445822767
 10
757.4091434350412
 20
-704.6219420215239
 10
757.0380285057036
 20
-724.2910332764804
 10
756.6669135763641
 20
-743.5890096020958
 10
756.6669135763641
 20
-763.62921578639
 10
764.8314420218176
 20
-763.62921578639
 10
775.5937749726418
 20
-763.62921578639
 10
789.6961422875156
 20
-764.0003307157313
 10
831.2610143734601
 20
-765.1136755037478
 10
827.549865080071
 20
-816.6986506818357
 10
790.8094870755322
 20
-815.5853058938228
 10
775.9648899019812
 20
-815.2141909644815
 10
764.8314420218176
 20
-814.8430760351439
 10
756.2957986470265
 20
-814.8430760351439
 10
756.2957986470265
 20
-824.8631791272892
 10
756.2957986470265
 20
-834.8832822194381
 10
756.6669135763641
 20
-844.9033853115834
 10
756.6669135763641
 20
-844.9033853115834
 10
799.7162453796627
 20
-844.9033853115834
 10
799.7162453796627
 20
-844.9033853115834
 10
844.9922667589944
 20
-844.9033853115834
 10
841.6522323949448
 20
-896.488360489675
 10
796.0050960862754
 20
-896.488360489675
 97
        0
 97
        0
 75
     2
 76
     1
 98
        0
  0
SPLINE
  5
52
330
45
100
AcDbEntity
  8
Layer 1
370
     0
100
AcDbSpline
210
0.0
220
0.0
230
1.0
 70
    11
 71
     3
 72
    47
 73
    43
 74
     0
 42
0.0000000001
 43
0.0000000001
 12
1.0
 22
0.0
 32
0.0
 13
1.0
 23
0.0
 33
0.0
 40
0.0
 40
0.0
 40
0.0
 40
0.0
 40
1.0
 40
1.0
 40
1.0
 40
2.0
 40
2.0
 40
2.0
 40
3.0
 40
3.0
 40
3.0
 40
4.0
 40
4.0
 40
4.0
 40
5.0
 40
5.0
 40
5.0
 40
6.0
 40
6.0
 40
6.0
 40
7.0
 40
7.0
 40
7.0
 40
8.0
 40
8.0
 40
8.0
 40
9.0
 40
9.0
 40
9.0
 40
10.0
 40
10.0
 40
10.0
 40
11.0
 40
11.0
 40
11.0
 40
12.0
 40
12.0
 40
12.0
 40
13.0
 40
13.0
 40
13.0
 40
14.0
 40
14.0
 40
14.0
 40
14.0
 10
1005.306184672321
 20
-700.1685628694613
 30
0.0
 10
1004.935069742982
 20
-758.0624918463109
 30
0.0
 10
1004.563954813644
 20
-815.9564208231604
 30
0.0
 10
1004.935069742982
 20
-871.2525452946393
 30
0.0
 10
1004.935069742982
 20
-923.2086354020685
 30
0.0
 10
970.4213813144761
 20
-922.8375204727308
 30
0.0
 10
961.1435080810061
 20
-879.0459588107515
 30
0.0
 10
938.8766123206788
 20
-808.9052371657235
 30
0.0
 10
914.3830269843183
 20
-738.3934005913543
 30
0.0
 10
889.8894416479598
 20
-669.3660237343393
 30
0.0
 10
889.8894416479598
 20
-683.8395059785544
 30
0.0
 10
889.8894416479598
 20
-698.6841031521035
 30
0.0
 10
889.5183267186203
 20
-713.1575853963186
 30
0.0
 10
889.1472117892827
 20
-765.4847904330854
 30
0.0
 10
888.7760968599432
 20
-817.069765611177
 30
0.0
 10
889.1472117892827
 20
-870.1392005066227
 30
0.0
 10
889.1472117892827
 20
-920.9819458260354
 30
0.0
 10
851.2934889967255
 20
-925.8064399074392
 30
0.0
 10
850.9223740673879
 20
-870.881430365298
 30
0.0
 10
850.9223740673879
 20
-817.4408805405146
 30
0.0
 10
851.2934889967255
 20
-765.4847904330854
 30
0.0
 10
851.2934889967255
 20
-712.7864704669773
 30
0.0
 10
851.664603926065
 20
-672.3349431690513
 30
0.0
 10
852.0357188554044
 20
-631.5123009417839
 30
0.0
 10
852.0357188554044
 20
-589.5763139265036
 30
0.0
 10
852.0357188554044
 20
-526.4867759389072
 30
0.0
 10
884.6938326372165
 20
-533.5379595963441
 30
0.0
 10
899.5384298107674
 20
-576.2161764703051
 30
0.0
 10
921.8053255710947
 20
-640.4190592459163
 30
0.0
 10
944.8144511900991
 20
-704.9930569508651
 30
0.0
 10
966.710232021087
 20
-769.5670546558104
 30
0.0
 10
967.0813469504265
 20
-746.5579290368078
 30
0.0
 10
967.0813469504265
 20
-723.1776884884639
 30
0.0
 10
967.0813469504265
 20
-699.79744794012
 30
0.0
 10
967.4524618797641
 20
-650.8102772674029
 30
0.0
 10
967.8235768091035
 20
-601.4519916653444
 30
0.0
 10
967.8235768091035
 20
-553.2070508512988
 30
0.0
 10
967.8235768091035
 20
-498.2820413091595
 30
0.0
 10
1006.048414530998
 20
-498.653156238498
 30
0.0
 10
1006.048414530998
 20
-555.8048553566732
 30
0.0
 10
1006.048414530998
 20
-603.3075663120362
 30
0.0
 10
1005.677299601659
 20
-651.9236220554194
 30
0.0
 10
1005.306184672321
 20
-700.1685628694613
 30
0.0
  0
HATCH
  5
53
330
45
100
AcDbEntity
  8
Layer 1
 62
   250
420
  2500134
100
AcDbHatch
 10
0.0
 20
0.0
 30
0.0
210
0.0
220
0.0
230
1.0
  2
SOLID
 70
     1
 71
     0
 91
        1
 92
        1
 93
        1
 72
     4
 94
        3
 73
     0
 74
     1
 95
       47
 96
       43
 40
0.0
 40
0.0
 40
0.0
 40
0.0
 40
1.0
 40
1.0
 40
1.0
 40
2.0
 40
2.0
 40
2.0
 40
3.0
 40
3.0
 40
3.0
 40
4.0
 40
4.0
 40
4.0
 40
5.0
 40
5.0
 40
5.0
 40
6.0
 40
6.0
 40
6.0
 40
7.0
 40
7.0
 40
7.0
 40
8.0
 40
8.0
 40
8.0
 40
9.0
 40
9.0
 40
9.0
 40
10.0
 40
10.0
 40
10.0
 40
11.0
 40
11.0
 40
11.0
 40
12.0
 40
12.0
 40
12.0
 40
13.0
 40
13.0
 40
13.0
 40
14.0
 40
14.0
 40
14.0
 40
14.0
 10
1005.306184672321
 20
-700.1685628694613
 10
1004.935069742982
 20
-758.0624918463109
 10
1004.563954813644
 20
-815.9564208231604
 10
1004.935069742982
 20
-871.2525452946393
 10
1004.935069742982
 20
-923.2086354020685
 10
970.4213813144761
 20
-922.8375204727308
 10
961.1435080810061
 20
-879.0459588107515
 10
938.8766123206788
 20
-808.9052371657235
 10
914.3830269843183
 20
-738.3934005913543
 10
889.8894416479598
 20
-669.3660237343393
 10
889.8894416479598
 20
-683.8395059785544
 10
889.8894416479598
 20
-698.6841031521035
 10
889.5183267186203
 20
-713.1575853963186
 10
889.1472117892827
 20
-765.4847904330854
 10
888.7760968599432
 20
-817.069765611177
 10
889.1472117892827
 20
-870.1392005066227
 10
889.1472117892827
 20
-920.9819458260354
 10
851.2934889967255
 20
-925.8064399074392
 10
850.9223740673879
 20
-870.881430365298
 10
850.9223740673879
 20
-817.4408805405146
 10
851.2934889967255
 20
-765.4847904330854
 10
851.2934889967255
 20
-712.7864704669773
 10
851.664603926065
 20
-672.3349431690513
 10
852.0357188554044
 20
-631.5123009417839
 10
852.0357188554044
 20
-589.5763139265036
 10
852.0357188554044
 20
-526.4867759389072
 10
884.6938326372165
 20
-533.5379595963441
 10
899.5384298107674
 20
-576.2161764703051
 10
921.8053255710947
 20
-640.4190592459163
 10
944.8144511900991
 20
-704.9930569508651
 10
966.710232021087
 20
-769.5670546558104
 10
967.0813469504265
 20
-746.5579290368078
 10
967.0813469504265
 20
-723.1776884884639
 10
967.0813469504265
 20
-699.79744794012
 10
967.4524618797641
 20
-650.8102772674029
 10
967.8235768091035
 20
-601.4519916653444
 10
967.8235768091035
 20
-553.2070508512988
 10
967.8235768091035
 20
-498.2820413091595
 10
1006.048414530998
 20
-498.653156238498
 10
1006.048414530998
 20
-555.8048553566732
 10
1006.048414530998
 20
-603.3075663120362
 10
1005.677299601659
 20
-651.9236220554194
 10
1005.306184672321
 20
-700.1685628694613
 97
        0
 97
        0
 75
     2
 76
     1
 98
        0
  0
ENDBLK
  5
48
330
45
100
AcDbEntity
  8
0
100
AcDbBlockEnd
  0
BLOCK
  5
56
330
54
100
AcDbEntity
  8
0
100
AcDbBlockBegin
  2
block 4
 70
     0
 10
0.0
 20
0.0
 30
0.0
  3
block 4
  1

  0
SPLINE
  5
58
330
54
100
AcDbEntity
  8
Layer 1
370
     0
100
AcDbSpline
210
0.0
220
0.0
230
1.0
 70
    11
 71
     3
 72
   143
 73
   139
 74
     0
 42
0.0000000001
 43
0.0000000001
 12
1.0
 22
0.0
 32
0.0
 13
1.0
 23
0.0
 33
0.0
 40
0.0
 40
0.0
 40
0.0
 40
0.0
 40
1.0
 40
1.0
 40
1.0
 40
2.0
 40
2.0
 40
2.0
 40
3.0
 40
3.0
 40
3.0
 40
4.0
 40
4.0
 40
4.0
 40
5.0
 40
5.0
 40
5.0
 40
6.0
 40
6.0
 40
6.0
 40
7.0
 40
7.0
 40
7.0
 40
8.0
 40
8.0
 40
8.0
 40
9.0
 40
9.0
 40
9.0
 40
10.0
 40
10.0
 40
10.0
 40
11.0
 40
11.0
 40
11.0
 40
12.0
 40
12.0
 40
12.0
 40
13.0
 40
13.0
 40
13.0
 40
14.0
 40
14.0
 40
14.0
 40
15.0
 40
15.0
 40
15.0
 40
16.0
 40
16.0
 40
16.0
 40
17.0
 40
17.0
 40
17.0
 40
18.0
 40
18.0
 40
18.0
 40
19.0
 40
19.0
 40
19.0
 40
20.0
 40
20.0
 40
20.0
 40
21.0
 40
21.0
 40
21.0
 40
22.0
 40
22.0
 40
22.0
 40
23.0
 40
23.0
 40
23.0
 40
24.0
 40
24.0
 40
24.0
 40
25.0
 40
25.0
 40
25.0
 40
26.0
 40
26.0
 40
26.0
 40
27.0
 40
27.0
 40
27.0
 40
28.0
 40
28.0
 40
28.0
 40
29.0
 40
29.0
 40
29.0
 40
30.0
 40
30.0
 40
30.0
 40
31.0
 40
31.0
 40
31.0
 40
32.0
 40
32.0
 40
32.0
 40
33.0
 40
33.0
 40
33.0
 40
34.0
 40
34.0
 40
34.0
 40
35.0
 40
35.0
 40
35.0
 40
36.0
 40
36.0
 40
36.0
 40
37.0
 40
37.0
 40
37.0
 40
38.0
 40
38.0
 40
38.0
 40
39.0
 40
39.0
 40
39.0
 40
40.0
 40
40.0
 40
40.0
 40
41.0
 40
41.0
 40
41.0
 40
42.0
 40
42.0
 40
42.0
 40
43.0
 40
43.0
 40
43.0
 40
44.0
 40
44.0
 40
44.0
 40
45.0
 40
45.0
 40
45.0
 40
46.0
 40
46.0
 40
46.0
 40
46.0
 10
210.6279931685476
 20
-377.9815289021799
 30
0.0
 10
211.081578082184
 20
-378.4364024093211
 30
0.0
 10
214.269558412685
 20
-382.0805448404672
 30
0.0
 10
214.269558412685
 20
-382.0805448404672
 30
0.0
 10
245.2421918904174
 20
-360.2169788470956
 30
0.0
 10
282.5933632161605
 20
-347.4637689315887
 30
0.0
 10
320.3955422685303
 20
-347.4637689315887
 30
0.0
 10
321.3078664698214
 20
-346.5527333238024
 30
0.0
 10
326.7740801165401
 20
-314.2141907311425
 30
0.0
 10
328.1399892314676
 20
-306.4710323617091
 30
0.0
 10
333.150040777542
 20
-275.0435253768355
 30
0.0
 10
337.2503453093332
 20
-242.7049827841756
 30
0.0
 10
338.1600923236147
 20
-210.8213136986569
 30
0.0
 10
338.1600923236147
 20
-203.5330288363639
 30
0.0
 10
337.7039302229696
 20
-186.2246408819246
 30
0.0
 10
336.7941832086872
 20
-184.8587317669972
 30
0.0
 10
333.6062028781871
 20
-179.3925181202785
 30
0.0
 10
320.3955422685303
 20
-178.9376446131373
 30
0.0
 10
314.9319058088204
 20
-178.9376446131373
 30
0.0
 10
265.2849752617212
 20
-178.9376446131373
 30
0.0
 10
209.7156689672565
 20
-200.3450485058638
 30
0.0
 10
181.4774309063887
 20
-241.3377850757433
 30
0.0
 10
176.0112172596691
 20
-249.5371055458227
 30
0.0
 10
172.8232369291691
 20
-257.2802639152551
 30
0.0
 10
168.722932397377
 20
-265.4782957918296
 30
0.0
 10
167.3570232824495
 20
-268.2114026151894
 30
0.0
 10
165.5349520668769
 20
-269.1224382229757
 30
0.0
 10
163.7128808513035
 20
-269.1224382229757
 30
0.0
 10
161.89080963573
 20
-269.1224382229757
 30
0.0
 10
160.5249005208034
 20
-268.2114026151894
 30
0.0
 10
158.7028293052299
 20
-267.3003670074022
 30
0.0
 10
154.1463626727927
 20
-264.1123866769021
 30
0.0
 10
156.4245959890113
 20
-259.5572086379698
 30
0.0
 10
158.2466672045848
 20
-255.4581926996825
 30
0.0
 10
166.9008611818044
 20
-232.6835910985237
 30
0.0
 10
182.3871779206702
 20
-212.6433849142295
 30
0.0
 10
201.5176370906829
 20
-197.1570681753628
 30
0.0
 10
233.8561796833428
 20
-171.6493597508452
 30
0.0
 10
293.067051221944
 20
-153.4312247821244
 30
0.0
 10
334.9721119931146
 20
-153.4312247821244
 30
0.0
 10
356.3808044793459
 20
-153.4312247821244
 30
0.0
 10
360.9346939247735
 20
-162.9964543671304
 30
0.0
 10
361.3908560254195
 20
-181.6707514364971
 30
0.0
 10
361.3908560254195
 20
-238.1498047452433
 30
0.0
 10
353.1902469618362
 20
-292.3519133312748
 30
0.0
 10
340.8944877404792
 20
-347.4637689315887
 30
0.0
 10
366.400907571493
 20
-348.830966640021
 30
0.0
 10
391.9073274025059
 20
-353.3848560854485
 30
0.0
 10
417.4137472335196
 20
-355.206927301022
 30
0.0
 10
421.0578896646657
 20
-355.206927301022
 30
0.0
 10
432.4439018717403
 20
-356.1179629088083
 30
0.0
 10
437.9101155184599
 20
-356.1179629088083
 30
0.0
 10
440.1883488346775
 20
-356.1179629088083
 30
0.0
 10
441.554257949605
 20
-356.1179629088083
 30
0.0
 10
441.554257949605
 20
-355.663089401668
 30
0.0
 10
442.9201670645325
 20
-355.206927301022
 30
0.0
 10
466.6045156799737
 20
-271.3993829456895
 30
0.0
 10
473.8928005422658
 20
-249.5371055458227
 30
0.0
 10
480.724923303912
 20
-227.6735395524502
 30
0.0
 10
488.4667930798405
 20
-205.8112621525825
 30
0.0
 10
496.2112400427786
 20
-183.9476961592109
 30
0.0
 10
498.0333112583512
 20
-178.026609005351
 30
0.0
 10
500.7651294882062
 20
-168.4613794203442
 30
0.0
 10
508.0534143504983
 20
-168.4613794203442
 30
0.0
 10
508.9657385517894
 20
-168.4613794203442
 30
0.0
 10
510.3316476667169
 20
-168.9175415209902
 30
0.0
 10
511.6975567816444
 20
-169.3724150281314
 30
0.0
 10
517.1637704283639
 20
-171.194486243704
 30
0.0
 10
523.539731089365
 20
-177.5717354982098
 30
0.0
 10
521.2614977731464
 20
-183.9476961592109
 30
0.0
 10
499.3992203732787
 20
-239.9718759608159
 30
0.0
 10
461.5944641338992
 20
-354.7520537938808
 30
0.0
 10
461.5944641338992
 20
-354.7520537938808
 30
0.0
 10
461.5944641338992
 20
-354.7520537938808
 30
0.0
 10
479.3590141889845
 20
-351.1079113627347
 30
0.0
 10
493.4794218129236
 20
-342.4537173855151
 30
0.0
 10
496.2112400427786
 20
-340.6316461699416
 30
0.0
 10
501.6774536894973
 20
-334.2556855089415
 30
0.0
 10
504.8654340199982
 20
-334.7105590160818
 30
0.0
 10
510.7852325803533
 20
-335.1667211167278
 30
0.0
 10
506.2313431349257
 20
-341.0878082705876
 30
0.0
 10
503.9531098187072
 20
-342.9098794861611
 30
0.0
 10
500.3115445745698
 20
-346.0978598166612
 30
0.0
 10
489.3791172811316
 20
-353.3848560854485
 30
0.0
 10
479.3590141889845
 20
-357.4851606172406
 30
0.0
 10
469.3389110968374
 20
-361.5841765555278
 30
0.0
 10
459.7723929183267
 20
-363.4062477711004
 30
0.0
 10
459.7723929183267
 20
-363.4062477711004
 30
0.0
 10
445.198400380752
 20
-408.4980002792672
 30
0.0
 10
432.9000639723854
 20
-455.4118240030066
 30
0.0
 10
427.8900124263128
 20
-502.3269363202517
 30
0.0
 10
426.9776882250208
 20
-512.8032015130439
 30
0.0
 10
426.0679412107393
 20
-522.823304605191
 30
0.0
 10
426.5241033113853
 20
-533.2995697979841
 30
0.0
 10
426.5241033113853
 20
-547.8748509290635
 30
0.0
 10
426.9776882250208
 20
-563.8160411750723
 30
0.0
 10
441.554257949605
 20
-571.1043260373663
 30
0.0
 10
444.28607617946
 20
-572.925108659434
 30
0.0
 10
447.930218610607
 20
-573.381270760081
 30
0.0
 10
450.2084519268246
 20
-575.2033419756517
 30
0.0
 10
455.2185034728991
 20
-579.3023579139408
 30
0.0
 10
449.2961277255345
 20
-586.5893541827281
 30
0.0
 10
443.8324912658245
 20
-586.5893541827281
 30
0.0
 10
424.7020320958118
 20
-586.5893541827281
 30
0.0
 10
416.0478381185922
 20
-563.361167667932
 30
0.0
 10
413.3134427017276
 20
-547.8748509290635
 30
0.0
 10
410.1254623712275
 20
-527.8333561512654
 30
0.0
 10
411.9475335868001
 20
-506.8808257656792
 30
0.0
 10
414.2257669030187
 20
-486.840619581385
 30
0.0
 10
419.2358184490922
 20
-445.8478830115055
 30
0.0
 10
428.7997594405942
 20
-404.8538578481212
 30
0.0
 10
439.2760246333874
 20
-364.7721568860279
 30
0.0
 10
435.6318822022404
 20
-365.2283189866739
 30
0.0
 10
431.9877397710943
 20
-365.2283189866739
 30
0.0
 10
428.3461745269578
 20
-365.2283189866739
 30
0.0
 10
416.5014230322286
 20
-365.2283189866739
 30
0.0
 10
404.659248724508
 20
-364.3172833788876
 30
0.0
 10
392.8170744167883
 20
-363.4062477711004
 30
0.0
 10
376.8771727642852
 20
-362.0390500626681
 30
0.0
 10
360.4785318241284
 20
-360.6731409477406
 30
0.0
 10
344.0824680709793
 20
-360.2169788470956
 30
0.0
 10
344.0824680709793
 20
-360.2169788470956
 30
0.0
 10
337.7039302229696
 20
-360.2169788470956
 30
0.0
 10
337.7039302229696
 20
-360.2169788470956
 30
0.0
 10
316.2978149237479
 20
-442.6586140875006
 30
0.0
 10
268.9291176928673
 20
-597.5217814761672
 30
0.0
 10
167.3570232824495
 20
-596.1545837677331
 30
0.0
 10
138.6600459339261
 20
-596.1545837677331
 30
0.0
 10
109.0558987581308
 20
-586.5893541827281
 30
0.0
 10
91.74751080369151
 20
-562.9050055672851
 30
0.0
 10
73.52679864796119
 20
-537.8534592434125
 30
0.0
 10
71.2511425187513
 20
-505.0600431436114
 30
0.0
 10
76.26119406482485
 20
-475.9094808814516
 30
0.0
 10
84.91538804204447
 20
-428.5394950570662
 30
0.0
 10
120.8980730658504
 20
-365.2283189866739
 30
0.0
 10
175.5550551590241
 20
-365.2283189866739
 30
0.0
 10
188.3095536680348
 20
-365.2283189866739
 30
0.0
 10
201.5176370906829
 20
-368.8711728243152
 30
0.0
 10
210.6279931685476
 20
-377.9815289021799
 30
0.0
  0
SPLINE
  5
59
330
54
100
AcDbEntity
  8
Layer 1
370
     0
100
AcDbSpline
210
0.0
220
0.0
230
1.0
 70
    11
 71
     3
 72
    47
 73
    43
 74
     0
 42
0.0000000001
 43
0.0000000001
 12
1.0
 22
0.0
 32
0.0
 13
1.0
 23
0.0
 33
0.0
 40
0.0
 40
0.0
 40
0.0
 40
0.0
 40
1.0
 40
1.0
 40
1.0
 40
2.0
 40
2.0
 40
2.0
 40
3.0
 40
3.0
 40
3.0
 40
4.0
 40
4.0
 40
4.0
 40
5.0
 40
5.0
 40
5.0
 40
6.0
 40
6.0
 40
6.0
 40
7.0
 40
7.0
 40
7.0
 40
8.0
 40
8.0
 40
8.0
 40
9.0
 40
9.0
 40
9.0
 40
10.0
 40
10.0
 40
10.0
 40
11.0
 40
11.0
 40
11.0
 40
12.0
 40
12.0
 40
12.0
 40
13.0
 40
13.0
 40
13.0
 40
14.0
 40
14.0
 40
14.0
 40
14.0
 10
175.5550551590241
 20
-371.604279647675
 30
0.0
 10
130.9181761579985
 20
-371.604279647675
 30
0.0
 10
100.4017047809111
 20
-420.7963366876329
 30
0.0
 10
89.92543958811802
 20
-458.1449308263664
 30
0.0
 10
81.7274077115444
 20
-486.840619581385
 30
0.0
 10
80.35892140960732
 20
-520.0901977818321
 30
0.0
 10
94.47932903354649
 20
-546.5076532206331
 30
0.0
 10
108.5997366574848
 20
-572.925108659434
 30
0.0
 10
136.8405519053631
 20
-583.4013738522262
 30
0.0
 10
165.0787899662309
 20
-583.4013738522262
 30
0.0
 10
257.5405282987831
 20
-583.8575359528731
 30
0.0
 10
300.8114981848812
 20
-434.4605822109261
 30
0.0
 10
317.6637240386754
 20
-360.2169788470956
 30
0.0
 10
287.603414762234
 20
-361.5841765555278
 30
0.0
 10
257.5405282987831
 20
-368.416299317174
 30
0.0
 10
231.5779463671242
 20
-383.9026160560406
 30
0.0
 10
228.8461281372693
 20
-385.7246872716132
 30
0.0
 10
220.1919341600496
 20
-391.645774425474
 30
0.0
 10
220.1919341600496
 20
-391.645774425474
 30
0.0
 10
220.1919341600496
 20
-391.645774425474
 30
0.0
 10
224.2922386918417
 20
-400.2999684026936
 30
0.0
 10
226.5678948210507
 20
-414.4190874331271
 30
0.0
 10
227.9338039359782
 20
-423.0732814103476
 30
0.0
 10
227.0240569216967
 20
-432.1836374882123
 30
0.0
 10
226.1117327204047
 20
-440.8365428719271
 30
0.0
 10
223.3799144905497
 20
-460.4231641425858
 30
0.0
 10
209.2595068666114
 20
-507.3369878663252
 30
0.0
 10
183.7530870355977
 20
-507.3369878663252
 30
0.0
 10
181.4774309063887
 20
-507.3369878663252
 30
0.0
 10
179.1991975901701
 20
-506.8808257656792
 30
0.0
 10
176.9209642739515
 20
-505.9697901578929
 30
0.0
 10
162.346971736376
 20
-499.5938294968919
 30
0.0
 10
161.89080963573
 20
-478.6412991113066
 30
0.0
 10
163.7128808513035
 20
-465.4332156886585
 30
0.0
 10
167.3570232824495
 20
-435.8264913258536
 30
0.0
 10
184.2092491362437
 20
-408.4980002792672
 30
0.0
 10
206.0715265361105
 20
-388.9126676021142
 30
0.0
 10
206.0715265361105
 20
-388.9126676021142
 30
0.0
 10
208.349759852329
 20
-386.6357228793995
 30
0.0
 10
208.349759852329
 20
-386.6357228793995
 30
0.0
 10
205.161779521829
 20
-376.1594576866073
 30
0.0
 10
184.6654112368888
 20
-371.604279647675
 30
0.0
 10
175.5550551590241
 20
-371.604279647675
 30
0.0
  0
SPLINE
  5
5A
330
54
100
AcDbEntity
  8
Layer 1
370
     0
100
AcDbSpline
210
0.0
220
0.0
230
1.0
 70
    11
 71
     3
 72
    20
 73
    16
 74
     0
 42
0.0000000001
 43
0.0000000001
 12
1.0
 22
0.0
 32
0.0
 13
1.0
 23
0.0
 33
0.0
 40
0.0
 40
0.0
 40
0.0
 40
0.0
 40
1.0
 40
1.0
 40
1.0
 40
2.0
 40
2.0
 40
2.0
 40
3.0
 40
3.0
 40
3.0
 40
4.0
 40
4.0
 40
4.0
 40
5.0
 40
5.0
 40
5.0
 40
5.0
 10
214.7257205133301
 20
-456.7790217114389
 30
0.0
 10
220.1919341600496
 20
-438.1047246420721
 30
0.0
 10
222.4701674762682
 20
-415.7862851415593
 30
0.0
 10
215.1818826139761
 20
-397.1106994786878
 30
0.0
 10
215.1818826139761
 20
-397.1106994786878
 30
0.0
 10
214.7257205133301
 20
-396.2009524644063
 30
0.0
 10
214.7257205133301
 20
-396.2009524644063
 30
0.0
 10
192.4072810128173
 20
-414.8752495337731
 30
0.0
 10
174.1891460440966
 20
-444.025811795932
 30
0.0
 10
172.8232369291691
 20
-473.631247565233
 30
0.0
 10
172.3670748285231
 20
-480.9195324275252
 30
0.0
 10
172.8232369291691
 20
-495.4948135586046
 30
0.0
 10
181.4774309063887
 20
-498.2279203819644
 30
0.0
 10
200.1517279757554
 20
-498.2279203819644
 30
0.0
 10
210.1718310679025
 20
-471.8091763496604
 30
0.0
 10
214.7257205133301
 20
-456.7790217114389
 30
0.0
  0
HATCH
  5
5B
330
54
100
AcDbEntity
  8
Layer 1
 62
   154
420
   217747
100
AcDbHatch
 10
0.0
 20
0.0
 30
0.0
210
0.0
220
0.0
230
1.0
  2
SOLID
 70
     1
 71
     0
 91
        3
 92
        1
 93
        1
 72
     4
 94
        3
 73
     0
 74
     1
 95
      143
 96
      139
 40
0.0
 40
0.0
 40
0.0
 40
0.0
 40
1.0
 40
1.0
 40
1.0
 40
2.0
 40
2.0
 40
2.0
 40
3.0
 40
3.0
 40
3.0
 40
4.0
 40
4.0
 40
4.0
 40
5.0
 40
5.0
 40
5.0
 40
6.0
 40
6.0
 40
6.0
 40
7.0
 40
7.0
 40
7.0
 40
8.0
 40
8.0
 40
8.0
 40
9.0
 40
9.0
 40
9.0
 40
10.0
 40
10.0
 40
10.0
 40
11.0
 40
11.0
 40
11.0
 40
12.0
 40
12.0
 40
12.0
 40
13.0
 40
13.0
 40
13.0
 40
14.0
 40
14.0
 40
14.0
 40
15.0
 40
15.0
 40
15.0
 40
16.0
 40
16.0
 40
16.0
 40
17.0
 40
17.0
 40
17.0
 40
18.0
 40
18.0
 40
18.0
 40
19.0
 40
19.0
 40
19.0
 40
20.0
 40
20.0
 40
20.0
 40
21.0
 40
21.0
 40
21.0
 40
22.0
 40
22.0
 40
22.0
 40
23.0
 40
23.0
 40
23.0
 40
24.0
 40
24.0
 40
24.0
 40
25.0
 40
25.0
 40
25.0
 40
26.0
 40
26.0
 40
26.0
 40
27.0
 40
27.0
 40
27.0
 40
28.0
 40
28.0
 40
28.0
 40
29.0
 40
29.0
 40
29.0
 40
30.0
 40
30.0
 40
30.0
 40
31.0
 40
31.0
 40
31.0
 40
32.0
 40
32.0
 40
32.0
 40
33.0
 40
33.0
 40
33.0
 40
34.0
 40
34.0
 40
34.0
 40
35.0
 40
35.0
 40
35.0
 40
36.0
 40
36.0
 40
36.0
 40
37.0
 40
37.0
 40
37.0
 40
38.0
 40
38.0
 40
38.0
 40
39.0
 40
39.0
 40
39.0
 40
40.0
 40
40.0
 40
40.0
 40
41.0
 40
41.0
 40
41.0
 40
42.0
 40
42.0
 40
42.0
 40
43.0
 40
43.0
 40
43.0
 40
44.0
 40
44.0
 40
44.0
 40
45.0
 40
45.0
 40
45.0
 40
46.0
 40
46.0
 40
46.0
 40
46.0
 10
210.6279931685476
 20
-377.9815289021799
 10
211.081578082184
 20
-378.4364024093211
 10
214.269558412685
 20
-382.0805448404672
 10
214.269558412685
 20
-382.0805448404672
 10
245.2421918904174
 20
-360.2169788470956
 10
282.5933632161605
 20
-347.4637689315887
 10
320.3955422685303
 20
-347.4637689315887
 10
321.3078664698214
 20
-346.5527333238024
 10
326.7740801165401
 20
-314.2141907311425
 10
328.1399892314676
 20
-306.4710323617091
 10
333.150040777542
 20
-275.0435253768355
 10
337.2503453093332
 20
-242.7049827841756
 10
338.1600923236147
 20
-210.8213136986569
 10
338.1600923236147
 20
-203.5330288363639
 10
337.7039302229696
 20
-186.2246408819246
 10
336.7941832086872
 20
-184.8587317669972
 10
333.6062028781871
 20
-179.3925181202785
 10
320.3955422685303
 20
-178.9376446131373
 10
314.9319058088204
 20
-178.9376446131373
 10
265.2849752617212
 20
-178.9376446131373
 10
209.7156689672565
 20
-200.3450485058638
 10
181.4774309063887
 20
-241.3377850757433
 10
176.0112172596691
 20
-249.5371055458227
 10
172.8232369291691
 20
-257.2802639152551
 10
168.722932397377
 20
-265.4782957918296
 10
167.3570232824495
 20
-268.2114026151894
 10
165.5349520668769
 20
-269.1224382229757
 10
163.7128808513035
 20
-269.1224382229757
 10
161.89080963573
 20
-269.1224382229757
 10
160.5249005208034
 20
-268.2114026151894
 10
158.7028293052299
 20
-267.3003670074022
 10
154.1463626727927
 20
-264.1123866769021
 10
156.4245959890113
 20
-259.5572086379698
 10
158.2466672045848
 20
-255.4581926996825
 10
166.9008611818044
 20
-232.6835910985237
 10
182.3871779206702
 20
-212.6433849142295
 10
201.5176370906829
 20
-197.1570681753628
 10
233.8561796833428
 20
-171.6493597508452
 10
293.067051221944
 20
-153.4312247821244
 10
334.9721119931146
 20
-153.4312247821244
 10
356.3808044793459
 20
-153.4312247821244
 10
360.9346939247735
 20
-162.9964543671304
 10
361.3908560254195
 20
-181.6707514364971
 10
361.3908560254195
 20
-238.1498047452433
 10
353.1902469618362
 20
-292.3519133312748
 10
340.8944877404792
 20
-347.4637689315887
 10
366.400907571493
 20
-348.830966640021
 10
391.9073274025059
 20
-353.3848560854485
 10
417.4137472335196
 20
-355.206927301022
 10
421.0578896646657
 20
-355.206927301022
 10
432.4439018717403
 20
-356.1179629088083
 10
437.9101155184599
 20
-356.1179629088083
 10
440.1883488346775
 20
-356.1179629088083
 10
441.554257949605
 20
-356.1179629088083
 10
441.554257949605
 20
-355.663089401668
 10
442.9201670645325
 20
-355.206927301022
 10
466.6045156799737
 20
-271.3993829456895
 10
473.8928005422658
 20
-249.5371055458227
 10
480.724923303912
 20
-227.6735395524502
 10
488.4667930798405
 20
-205.8112621525825
 10
496.2112400427786
 20
-183.9476961592109
 10
498.0333112583512
 20
-178.026609005351
 10
500.7651294882062
 20
-168.4613794203442
 10
508.0534143504983
 20
-168.4613794203442
 10
508.9657385517894
 20
-168.4613794203442
 10
510.3316476667169
 20
-168.9175415209902
 10
511.6975567816444
 20
-169.3724150281314
 10
517.1637704283639
 20
-171.194486243704
 10
523.539731089365
 20
-177.5717354982098
 10
521.2614977731464
 20
-183.9476961592109
 10
499.3992203732787
 20
-239.9718759608159
 10
461.5944641338992
 20
-354.7520537938808
 10
461.5944641338992
 20
-354.7520537938808
 10
461.5944641338992
 20
-354.7520537938808
 10
479.3590141889845
 20
-351.1079113627347
 10
493.4794218129236
 20
-342.4537173855151
 10
496.2112400427786
 20
-340.6316461699416
 10
501.6774536894973
 20
-334.2556855089415
 10
504.8654340199982
 20
-334.7105590160818
 10
510.7852325803533
 20
-335.1667211167278
 10
506.2313431349257
 20
-341.0878082705876
 10
503.9531098187072
 20
-342.9098794861611
 10
500.3115445745698
 20
-346.0978598166612
 10
489.3791172811316
 20
-353.3848560854485
 10
479.3590141889845
 20
-357.4851606172406
 10
469.3389110968374
 20
-361.5841765555278
 10
459.7723929183267
 20
-363.4062477711004
 10
459.7723929183267
 20
-363.4062477711004
 10
445.198400380752
 20
-408.4980002792672
 10
432.9000639723854
 20
-455.4118240030066
 10
427.8900124263128
 20
-502.3269363202517
 10
426.9776882250208
 20
-512.8032015130439
 10
426.0679412107393
 20
-522.823304605191
 10
426.5241033113853
 20
-533.2995697979841
 10
426.5241033113853
 20
-547.8748509290635
 10
426.9776882250208
 20
-563.8160411750723
 10
441.554257949605
 20
-571.1043260373663
 10
444.28607617946
 20
-572.925108659434
 10
447.930218610607
 20
-573.381270760081
 10
450.2084519268246
 20
-575.2033419756517
 10
455.2185034728991
 20
-579.3023579139408
 10
449.2961277255345
 20
-586.5893541827281
 10
443.8324912658245
 20
-586.5893541827281
 10
424.7020320958118
 20
-586.5893541827281
 10
416.0478381185922
 20
-563.361167667932
 10
413.3134427017276
 20
-547.8748509290635
 10
410.1254623712275
 20
-527.8333561512654
 10
411.9475335868001
 20
-506.8808257656792
 10
414.2257669030187
 20
-486.840619581385
 10
419.2358184490922
 20
-445.8478830115055
 10
428.7997594405942
 20
-404.8538578481212
 10
439.2760246333874
 20
-364.7721568860279
 10
435.6318822022404
 20
-365.2283189866739
 10
431.9877397710943
 20
-365.2283189866739
 10
428.3461745269578
 20
-365.2283189866739
 10
416.5014230322286
 20
-365.2283189866739
 10
404.659248724508
 20
-364.3172833788876
 10
392.8170744167883
 20
-363.4062477711004
 10
376.8771727642852
 20
-362.0390500626681
 10
360.4785318241284
 20
-360.6731409477406
 10
344.0824680709793
 20
-360.2169788470956
 10
344.0824680709793
 20
-360.2169788470956
 10
337.7039302229696
 20
-360.2169788470956
 10
337.7039302229696
 20
-360.2169788470956
 10
316.2978149237479
 20
-442.6586140875006
 10
268.9291176928673
 20
-597.5217814761672
 10
167.3570232824495
 20
-596.1545837677331
 10
138.6600459339261
 20
-596.1545837677331
 10
109.0558987581308
 20
-586.5893541827281
 10
91.74751080369151
 20
-562.9050055672851
 10
73.52679864796119
 20
-537.8534592434125
 10
71.2511425187513
 20
-505.0600431436114
 10
76.26119406482485
 20
-475.9094808814516
 10
84.91538804204447
 20
-428.5394950570662
 10
120.8980730658504
 20
-365.2283189866739
 10
175.5550551590241
 20
-365.2283189866739
 10
188.3095536680348
 20
-365.2283189866739
 10
201.5176370906829
 20
-368.8711728243152
 10
210.6279931685476
 20
-377.9815289021799
 97
        0
 97
        0
 92
        1
 93
        1
 72
     4
 94
        3
 73
     0
 74
     1
 95
       47
 96
       43
 40
0.0
 40
0.0
 40
0.0
 40
0.0
 40
1.0
 40
1.0
 40
1.0
 40
2.0
 40
2.0
 40
2.0
 40
3.0
 40
3.0
 40
3.0
 40
4.0
 40
4.0
 40
4.0
 40
5.0
 40
5.0
 40
5.0
 40
6.0
 40
6.0
 40
6.0
 40
7.0
 40
7.0
 40
7.0
 40
8.0
 40
8.0
 40
8.0
 40
9.0
 40
9.0
 40
9.0
 40
10.0
 40
10.0
 40
10.0
 40
11.0
 40
11.0
 40
11.0
 40
12.0
 40
12.0
 40
12.0
 40
13.0
 40
13.0
 40
13.0
 40
14.0
 40
14.0
 40
14.0
 40
14.0
 10
175.5550551590241
 20
-371.604279647675
 10
130.9181761579985
 20
-371.604279647675
 10
100.4017047809111
 20
-420.7963366876329
 10
89.92543958811802
 20
-458.1449308263664
 10
81.7274077115444
 20
-486.840619581385
 10
80.35892140960732
 20
-520.0901977818321
 10
94.47932903354649
 20
-546.5076532206331
 10
108.5997366574848
 20
-572.925108659434
 10
136.8405519053631
 20
-583.4013738522262
 10
165.0787899662309
 20
-583.4013738522262
 10
257.5405282987831
 20
-583.8575359528731
 10
300.8114981848812
 20
-434.4605822109261
 10
317.6637240386754
 20
-360.2169788470956
 10
287.603414762234
 20
-361.5841765555278
 10
257.5405282987831
 20
-368.416299317174
 10
231.5779463671242
 20
-383.9026160560406
 10
228.8461281372693
 20
-385.7246872716132
 10
220.1919341600496
 20
-391.645774425474
 10
220.1919341600496
 20
-391.645774425474
 10
220.1919341600496
 20
-391.645774425474
 10
224.2922386918417
 20
-400.2999684026936
 10
226.5678948210507
 20
-414.4190874331271
 10
227.9338039359782
 20
-423.0732814103476
 10
227.0240569216967
 20
-432.1836374882123
 10
226.1117327204047
 20
-440.8365428719271
 10
223.3799144905497
 20
-460.4231641425858
 10
209.2595068666114
 20
-507.3369878663252
 10
183.7530870355977
 20
-507.3369878663252
 10
181.4774309063887
 20
-507.3369878663252
 10
179.1991975901701
 20
-506.8808257656792
 10
176.9209642739515
 20
-505.9697901578929
 10
162.346971736376
 20
-499.5938294968919
 10
161.89080963573
 20
-478.6412991113066
 10
163.7128808513035
 20
-465.4332156886585
 10
167.3570232824495
 20
-435.8264913258536
 10
184.2092491362437
 20
-408.4980002792672
 10
206.0715265361105
 20
-388.9126676021142
 10
206.0715265361105
 20
-388.9126676021142
 10
208.349759852329
 20
-386.6357228793995
 10
208.349759852329
 20
-386.6357228793995
 10
205.161779521829
 20
-376.1594576866073
 10
184.6654112368888
 20
-371.604279647675
 10
175.5550551590241
 20
-371.604279647675
 97
        0
 97
        0
 92
        1
 93
        1
 72
     4
 94
        3
 73
     0
 74
     1
 95
       20
 96
       16
 40
0.0
 40
0.0
 40
0.0
 40
0.0
 40
1.0
 40
1.0
 40
1.0
 40
2.0
 40
2.0
 40
2.0
 40
3.0
 40
3.0
 40
3.0
 40
4.0
 40
4.0
 40
4.0
 40
5.0
 40
5.0
 40
5.0
 40
5.0
 10
214.7257205133301
 20
-456.7790217114389
 10
220.1919341600496
 20
-438.1047246420721
 10
222.4701674762682
 20
-415.7862851415593
 10
215.1818826139761
 20
-397.1106994786878
 10
215.1818826139761
 20
-397.1106994786878
 10
214.7257205133301
 20
-396.2009524644063
 10
214.7257205133301
 20
-396.2009524644063
 10
192.4072810128173
 20
-414.8752495337731
 10
174.1891460440966
 20
-444.025811795932
 10
172.8232369291691
 20
-473.631247565233
 10
172.3670748285231
 20
-480.9195324275252
 10
172.8232369291691
 20
-495.4948135586046
 10
181.4774309063887
 20
-498.2279203819644
 10
200.1517279757554
 20
-498.2279203819644
 10
210.1718310679025
 20
-471.8091763496604
 10
214.7257205133301
 20
-456.7790217114389
 97
        0
 97
        0
 75
     2
 76
     1
 98
        0
  0
SPLINE
  5
5C
330
54
100
AcDbEntity
  8
Layer 1
370
     0
100
AcDbSpline
210
0.0
220
0.0
230
1.0
 70
    11
 71
     3
 72
    44
 73
    40
 74
     0
 42
0.0000000001
 43
0.0000000001
 12
1.0
 22
0.0
 32
0.0
 13
1.0
 23
0.0
 33
0.0
 40
0.0
 40
0.0
 40
0.0
 40
0.0
 40
1.0
 40
1.0
 40
1.0
 40
2.0
 40
2.0
 40
2.0
 40
3.0
 40
3.0
 40
3.0
 40
4.0
 40
4.0
 40
4.0
 40
5.0
 40
5.0
 40
5.0
 40
6.0
 40
6.0
 40
6.0
 40
7.0
 40
7.0
 40
7.0
 40
8.0
 40
8.0
 40
8.0
 40
9.0
 40
9.0
 40
9.0
 40
10.0
 40
10.0
 40
10.0
 40
11.0
 40
11.0
 40
11.0
 40
12.0
 40
12.0
 40
12.0
 40
13.0
 40
13.0
 40
13.0
 40
13.0
 10
619.1920269394286
 20
-411.6859806097682
 30
0.0
 10
598.2394965538442
 20
-441.2927049725731
 30
0.0
 10
563.6227206449657
 20
-475.4533187808056
 30
0.0
 10
524.4520552906561
 20
-475.4533187808056
 30
0.0
 10
512.6098809829364
 20
-475.4533187808056
 30
0.0
 10
502.5897778907893
 20
-469.987105134087
 30
0.0
 10
496.2112400427786
 20
-459.5121285347986
 30
0.0
 10
482.5469945194855
 20
-437.1936890342859
 30
0.0
 10
491.2011884967051
 20
-404.8538578481212
 30
0.0
 10
508.0559915375079
 20
-386.1795607787544
 30
0.0
 10
516.7076083277179
 20
-376.6143311937485
 30
0.0
 10
529.0059447360836
 20
-369.7822084321015
 30
0.0
 10
542.6701902593795
 20
-369.7822084321015
 30
0.0
 10
557.2467599839638
 20
-369.7822084321015
 30
0.0
 10
568.6327721910384
 20
-375.7032955859622
 30
0.0
 10
568.6327721910384
 20
-392.1006479326143
 30
0.0
 10
569.0889342916835
 20
-413.0531783182005
 30
0.0
 10
551.7805463372442
 20
-430.81643977978
 30
0.0
 10
530.8280159516571
 20
-430.81643977978
 30
0.0
 10
525.3618023049376
 20
-430.81643977978
 30
0.0
 10
519.4420037445825
 20
-429.4505306648525
 30
0.0
 10
513.975790097863
 20
-427.1722973486339
 30
0.0
 10
512.1537188822904
 20
-436.7375269336399
 30
0.0
 10
510.7878097673629
 20
-451.3128080647202
 30
0.0
 10
519.4420037445825
 20
-458.1449308263664
 30
0.0
 10
523.0861461757286
 20
-461.3341997503721
 30
0.0
 10
527.6400356211561
 20
-462.2452353581584
 30
0.0
 10
531.7403401529482
 20
-462.2452353581584
 30
0.0
 10
563.1665585443188
 20
-462.2452353581584
 30
0.0
 10
597.7833344531991
 20
-427.6284594492799
 30
0.0
 10
616.0040466089285
 20
-405.3100199487662
 30
0.0
 10
616.913793623211
 20
-404.39898434098
 30
0.0
 10
617.8235406374934
 20
-403.4879487331937
 30
0.0
 10
619.1920269394286
 20
-403.4879487331937
 30
0.0
 10
619.6456118530659
 20
-403.4879487331937
 30
0.0
 10
620.101773953711
 20
-403.4879487331937
 30
0.0
 10
621.0140981550012
 20
-403.9441108338397
 30
0.0
 10
624.2020784855031
 20
-406.2210555565534
 30
0.0
 10
621.0140981550012
 20
-409.8651979876995
 30
0.0
 10
619.1920269394286
 20
-411.6859806097682
 30
0.0
  0
SPLINE
  5
5D
330
54
100
AcDbEntity
  8
Layer 1
370
     0
100
AcDbSpline
210
0.0
220
0.0
230
1.0
 70
    11
 71
     3
 72
    23
 73
    19
 74
     0
 42
0.0000000001
 43
0.0000000001
 12
1.0
 22
0.0
 32
0.0
 13
1.0
 23
0.0
 33
0.0
 40
0.0
 40
0.0
 40
0.0
 40
0.0
 40
1.0
 40
1.0
 40
1.0
 40
2.0
 40
2.0
 40
2.0
 40
3.0
 40
3.0
 40
3.0
 40
4.0
 40
4.0
 40
4.0
 40
5.0
 40
5.0
 40
5.0
 40
6.0
 40
6.0
 40
6.0
 40
6.0
 10
529.0059447360836
 20
-423.0732814103476
 30
0.0
 10
543.1263523600246
 20
-423.0732814103476
 30
0.0
 10
553.6026175528186
 20
-413.5080518253408
 30
0.0
 10
556.7905978833187
 20
-399.8438063020476
 30
0.0
 10
557.7029220846089
 20
-396.2009524644063
 30
0.0
 10
558.1565069982462
 20
-391.645774425474
 30
0.0
 10
556.7905978833187
 20
-388.457794094973
 30
0.0
 10
554.9685266677461
 20
-384.3574895631818
 30
0.0
 10
552.2367084378911
 20
-382.9915804482544
 30
0.0
 10
548.1364039060991
 20
-382.9915804482544
 30
0.0
 10
536.2942295983758
 20
-382.9915804482544
 30
0.0
 10
524.4520552906561
 20
-398.9327706942613
 30
0.0
 10
519.8981658452285
 20
-408.9541623799132
 30
0.0
 10
518.9858416439365
 20
-411.231107102627
 30
0.0
 10
515.7978613134364
 20
-419.8853010798466
 30
0.0
 10
515.7978613134364
 20
-419.8853010798466
 30
0.0
 10
515.7978613134364
 20
-421.7073722954201
 30
0.0
 10
527.183873520511
 20
-423.0732814103476
 30
0.0
 10
529.0059447360836
 20
-423.0732814103476
 30
0.0
  0
HATCH
  5
5E
330
54
100
AcDbEntity
  8
Layer 1
 62
   154
420
   217747
100
AcDbHatch
 10
0.0
 20
0.0
 30
0.0
210
0.0
220
0.0
230
1.0
  2
SOLID
 70
     1
 71
     0
 91
        2
 92
        1
 93
        1
 72
     4
 94
        3
 73
     0
 74
     1
 95
       44
 96
       40
 40
0.0
 40
0.0
 40
0.0
 40
0.0
 40
1.0
 40
1.0
 40
1.0
 40
2.0
 40
2.0
 40
2.0
 40
3.0
 40
3.0
 40
3.0
 40
4.0
 40
4.0
 40
4.0
 40
5.0
 40
5.0
 40
5.0
 40
6.0
 40
6.0
 40
6.0
 40
7.0
 40
7.0
 40
7.0
 40
8.0
 40
8.0
 40
8.0
 40
9.0
 40
9.0
 40
9.0
 40
10.0
 40
10.0
 40
10.0
 40
11.0
 40
11.0
 40
11.0
 40
12.0
 40
12.0
 40
12.0
 40
13.0
 40
13.0
 40
13.0
 40
13.0
 10
619.1920269394286
 20
-411.6859806097682
 10
598.2394965538442
 20
-441.2927049725731
 10
563.6227206449657
 20
-475.4533187808056
 10
524.4520552906561
 20
-475.4533187808056
 10
512.6098809829364
 20
-475.4533187808056
 10
502.5897778907893
 20
-469.987105134087
 10
496.2112400427786
 20
-459.5121285347986
 10
482.5469945194855
 20
-437.1936890342859
 10
491.2011884967051
 20
-404.8538578481212
 10
508.0559915375079
 20
-386.1795607787544
 10
516.7076083277179
 20
-376.6143311937485
 10
529.0059447360836
 20
-369.7822084321015
 10
542.6701902593795
 20
-369.7822084321015
 10
557.2467599839638
 20
-369.7822084321015
 10
568.6327721910384
 20
-375.7032955859622
 10
568.6327721910384
 20
-392.1006479326143
 10
569.0889342916835
 20
-413.0531783182005
 10
551.7805463372442
 20
-430.81643977978
 10
530.8280159516571
 20
-430.81643977978
 10
525.3618023049376
 20
-430.81643977978
 10
519.4420037445825
 20
-429.4505306648525
 10
513.975790097863
 20
-427.1722973486339
 10
512.1537188822904
 20
-436.7375269336399
 10
510.7878097673629
 20
-451.3128080647202
 10
519.4420037445825
 20
-458.1449308263664
 10
523.0861461757286
 20
-461.3341997503721
 10
527.6400356211561
 20
-462.2452353581584
 10
531.7403401529482
 20
-462.2452353581584
 10
563.1665585443188
 20
-462.2452353581584
 10
597.7833344531991
 20
-427.6284594492799
 10
616.0040466089285
 20
-405.3100199487662
 10
616.913793623211
 20
-404.39898434098
 10
617.8235406374934
 20
-403.4879487331937
 10
619.1920269394286
 20
-403.4879487331937
 10
619.6456118530659
 20
-403.4879487331937
 10
620.101773953711
 20
-403.4879487331937
 10
621.0140981550012
 20
-403.9441108338397
 10
624.2020784855031
 20
-406.2210555565534
 10
621.0140981550012
 20
-409.8651979876995
 10
619.1920269394286
 20
-411.6859806097682
 97
        0
 97
        0
 92
        1
 93
        1
 72
     4
 94
        3
 73
     0
 74
     1
 95
       23
 96
       19
 40
0.0
 40
0.0
 40
0.0
 40
0.0
 40
1.0
 40
1.0
 40
1.0
 40
2.0
 40
2.0
 40
2.0
 40
3.0
 40
3.0
 40
3.0
 40
4.0
 40
4.0
 40
4.0
 40
5.0
 40
5.0
 40
5.0
 40
6.0
 40
6.0
 40
6.0
 40
6.0
 10
529.0059447360836
 20
-423.0732814103476
 10
543.1263523600246
 20
-423.0732814103476
 10
553.6026175528186
 20
-413.5080518253408
 10
556.7905978833187
 20
-399.8438063020476
 10
557.7029220846089
 20
-396.2009524644063
 10
558.1565069982462
 20
-391.645774425474
 10
556.7905978833187
 20
-388.457794094973
 10
554.9685266677461
 20
-384.3574895631818
 10
552.2367084378911
 20
-382.9915804482544
 10
548.1364039060991
 20
-382.9915804482544
 10
536.2942295983758
 20
-382.9915804482544
 10
524.4520552906561
 20
-398.9327706942613
 10
519.8981658452285
 20
-408.9541623799132
 10
518.9858416439365
 20
-411.231107102627
 10
515.7978613134364
 20
-419.8853010798466
 10
515.7978613134364
 20
-419.8853010798466
 10
515.7978613134364
 20
-421.7073722954201
 10
527.183873520511
 20
-423.0732814103476
 10
529.0059447360836
 20
-423.0732814103476
 97
        0
 97
        0
 75
     2
 76
     1
 98
        0
  0
SPLINE
  5
5F
330
54
100
AcDbEntity
  8
Layer 1
370
     0
100
AcDbSpline
210
0.0
220
0.0
230
1.0
 70
    11
 71
     3
 72
    44
 73
    40
 74
     0
 42
0.0000000001
 43
0.0000000001
 12
1.0
 22
0.0
 32
0.0
 13
1.0
 23
0.0
 33
0.0
 40
0.0
 40
0.0
 40
0.0
 40
0.0
 40
1.0
 40
1.0
 40
1.0
 40
2.0
 40
2.0
 40
2.0
 40
3.0
 40
3.0
 40
3.0
 40
4.0
 40
4.0
 40
4.0
 40
5.0
 40
5.0
 40
5.0
 40
6.0
 40
6.0
 40
6.0
 40
7.0
 40
7.0
 40
7.0
 40
8.0
 40
8.0
 40
8.0
 40
9.0
 40
9.0
 40
9.0
 40
10.0
 40
10.0
 40
10.0
 40
11.0
 40
11.0
 40
11.0
 40
12.0
 40
12.0
 40
12.0
 40
13.0
 40
13.0
 40
13.0
 40
13.0
 10
742.1702366490681
 20
-373.4263508632475
 30
0.0
 10
746.2705411808602
 20
-373.4263508632475
 30
0.0
 10
750.3682685256426
 20
-375.248422078821
 30
0.0
 10
753.5562488561427
 20
-377.5253668015348
 30
0.0
 10
759.0224625028623
 20
-382.0805448404672
 30
0.0
 10
754.0124109567878
 20
-389.3675411092545
 30
0.0
 10
752.1903397412152
 20
-394.3788812488328
 30
0.0
 10
747.1802881951426
 20
-409.4090358870535
 30
0.0
 10
743.0799836633505
 20
-424.8953526259202
 30
0.0
 10
739.8920033328486
 20
-439.9267958576456
 30
0.0
 10
738.5260942179211
 20
-448.1248277342193
 30
0.0
 10
737.1601851029936
 20
-456.3228596107938
 30
0.0
 10
737.6163472036405
 20
-464.5221800808722
 30
0.0
 10
738.069932117276
 20
-467.7101604113732
 30
0.0
 10
738.5260942179211
 20
-471.3543028425192
 30
0.0
 10
742.1702366490681
 20
-471.3543028425192
 30
0.0
 10
757.6565533879348
 20
-471.3543028425192
 30
0.0
 10
801.8372702883153
 20
-422.6184079032064
 30
0.0
 10
813.679444596035
 20
-408.4980002792672
 30
0.0
 10
815.047930897972
 20
-406.6759290636937
 30
0.0
 10
817.3235870271801
 20
-403.0330752260534
 30
0.0
 10
819.6018203433996
 20
-403.0330752260534
 30
0.0
 10
820.0579824440447
 20
-403.0330752260534
 30
0.0
 10
820.9677294583271
 20
-403.4879487331937
 30
0.0
 10
821.4238915589722
 20
-403.9441108338397
 30
0.0
 10
825.0680339901191
 20
-406.6759290636937
 30
0.0
 10
819.6018203433996
 20
-411.6859806097682
 30
0.0
 10
817.779749127827
 20
-413.9642139259868
 30
0.0
 10
803.6593415038878
 20
-433.0946730959986
 30
0.0
 10
764.9448382502269
 20
-484.1075127580252
 30
0.0
 10
739.8920033328486
 20
-484.1075127580252
 30
0.0
 10
726.2277578095564
 20
-484.1075127580252
 30
0.0
 10
723.0397774790563
 20
-470.443267234733
 30
0.0
 10
722.1300304647739
 20
-459.0559664341536
 30
0.0
 10
720.3079592492013
 20
-433.5495466031398
 30
0.0
 10
733.0598805712034
 20
-381.1695092326809
 30
0.0
 10
734.4283668731405
 20
-377.5253668015348
 30
0.0
 10
735.794275988068
 20
-374.7935485716798
 30
0.0
 10
739.4384184192131
 20
-373.4263508632475
 30
0.0
 10
742.1702366490681
 20
-373.4263508632475
 30
0.0
  0
SPLINE
  5
60
330
54
100
AcDbEntity
  8
Layer 1
370
     0
100
AcDbSpline
210
0.0
220
0.0
230
1.0
 70
    11
 71
     3
 72
    20
 73
    16
 74
     0
 42
0.0000000001
 43
0.0000000001
 12
1.0
 22
0.0
 32
0.0
 13
1.0
 23
0.0
 33
0.0
 40
0.0
 40
0.0
 40
0.0
 40
0.0
 40
1.0
 40
1.0
 40
1.0
 40
2.0
 40
2.0
 40
2.0
 40
3.0
 40
3.0
 40
3.0
 40
4.0
 40
4.0
 40
4.0
 40
5.0
 40
5.0
 40
5.0
 40
5.0
 10
754.9247351580798
 20
-327.4235627472945
 30
0.0
 10
755.8344821723622
 20
-327.4235627472945
 30
0.0
 10
756.2906442730073
 20
-327.8784362544357
 30
0.0
 10
757.2003912872897
 20
-327.8784362544357
 30
0.0
 10
763.1227670346543
 20
-329.245633962867
 30
0.0
 10
767.2204943794368
 20
-336.0777567245141
 30
0.0
 10
765.8545852645093
 20
-343.3647529933014
 30
0.0
 10
764.9448382502269
 20
-351.1079113627347
 30
0.0
 10
759.9347867041524
 20
-354.2958916932357
 30
0.0
 10
752.6465018418603
 20
-354.2958916932357
 30
0.0
 10
746.7241260944957
 20
-352.475109071167
 30
0.0
 10
742.6263987497132
 20
-345.64298630952
 30
0.0
 10
743.9923078646407
 20
-338.3547014472279
 30
0.0
 10
744.9020548789231
 20
-331.977452192722
 30
0.0
 10
749.9146836120053
 20
-327.4235627472945
 30
0.0
 10
754.9247351580798
 20
-327.4235627472945
 30
0.0
  0
HATCH
  5
61
330
54
100
AcDbEntity
  8
Layer 1
 62
   154
420
   217747
100
AcDbHatch
 10
0.0
 20
0.0
 30
0.0
210
0.0
220
0.0
230
1.0
  2
SOLID
 70
     1
 71
     0
 91
        2
 92
        1
 93
        1
 72
     4
 94
        3
 73
     0
 74
     1
 95
       44
 96
       40
 40
0.0
 40
0.0
 40
0.0
 40
0.0
 40
1.0
 40
1.0
 40
1.0
 40
2.0
 40
2.0
 40
2.0
 40
3.0
 40
3.0
 40
3.0
 40
4.0
 40
4.0
 40
4.0
 40
5.0
 40
5.0
 40
5.0
 40
6.0
 40
6.0
 40
6.0
 40
7.0
 40
7.0
 40
7.0
 40
8.0
 40
8.0
 40
8.0
 40
9.0
 40
9.0
 40
9.0
 40
10.0
 40
10.0
 40
10.0
 40
11.0
 40
11.0
 40
11.0
 40
12.0
 40
12.0
 40
12.0
 40
13.0
 40
13.0
 40
13.0
 40
13.0
 10
742.1702366490681
 20
-373.4263508632475
 10
746.2705411808602
 20
-373.4263508632475
 10
750.3682685256426
 20
-375.248422078821
 10
753.5562488561427
 20
-377.5253668015348
 10
759.0224625028623
 20
-382.0805448404672
 10
754.0124109567878
 20
-389.3675411092545
 10
752.1903397412152
 20
-394.3788812488328
 10
747.1802881951426
 20
-409.4090358870535
 10
743.0799836633505
 20
-424.8953526259202
 10
739.8920033328486
 20
-439.9267958576456
 10
738.5260942179211
 20
-448.1248277342193
 10
737.1601851029936
 20
-456.3228596107938
 10
737.6163472036405
 20
-464.5221800808722
 10
738.069932117276
 20
-467.7101604113732
 10
738.5260942179211
 20
-471.3543028425192
 10
742.1702366490681
 20
-471.3543028425192
 10
757.6565533879348
 20
-471.3543028425192
 10
801.8372702883153
 20
-422.6184079032064
 10
813.679444596035
 20
-408.4980002792672
 10
815.047930897972
 20
-406.6759290636937
 10
817.3235870271801
 20
-403.0330752260534
 10
819.6018203433996
 20
-403.0330752260534
 10
820.0579824440447
 20
-403.0330752260534
 10
820.9677294583271
 20
-403.4879487331937
 10
821.4238915589722
 20
-403.9441108338397
 10
825.0680339901191
 20
-406.6759290636937
 10
819.6018203433996
 20
-411.6859806097682
 10
817.779749127827
 20
-413.9642139259868
 10
803.6593415038878
 20
-433.0946730959986
 10
764.9448382502269
 20
-484.1075127580252
 10
739.8920033328486
 20
-484.1075127580252
 10
726.2277578095564
 20
-484.1075127580252
 10
723.0397774790563
 20
-470.443267234733
 10
722.1300304647739
 20
-459.0559664341536
 10
720.3079592492013
 20
-433.5495466031398
 10
733.0598805712034
 20
-381.1695092326809
 10
734.4283668731405
 20
-377.5253668015348
 10
735.794275988068
 20
-374.7935485716798
 10
739.4384184192131
 20
-373.4263508632475
 10
742.1702366490681
 20
-373.4263508632475
 97
        0
 97
        0
 92
        1
 93
        1
 72
     4
 94
        3
 73
     0
 74
     1
 95
       20
 96
       16
 40
0.0
 40
0.0
 40
0.0
 40
0.0
 40
1.0
 40
1.0
 40
1.0
 40
2.0
 40
2.0
 40
2.0
 40
3.0
 40
3.0
 40
3.0
 40
4.0
 40
4.0
 40
4.0
 40
5.0
 40
5.0
 40
5.0
 40
5.0
 10
754.9247351580798
 20
-327.4235627472945
 10
755.8344821723622
 20
-327.4235627472945
 10
756.2906442730073
 20
-327.8784362544357
 10
757.2003912872897
 20
-327.8784362544357
 10
763.1227670346543
 20
-329.245633962867
 10
767.2204943794368
 20
-336.0777567245141
 10
765.8545852645093
 20
-343.3647529933014
 10
764.9448382502269
 20
-351.1079113627347
 10
759.9347867041524
 20
-354.2958916932357
 10
752.6465018418603
 20
-354.2958916932357
 10
746.7241260944957
 20
-352.475109071167
 10
742.6263987497132
 20
-345.64298630952
 10
743.9923078646407
 20
-338.3547014472279
 10
744.9020548789231
 20
-331.977452192722
 10
749.9146836120053
 20
-327.4235627472945
 10
754.9247351580798
 20
-327.4235627472945
 97
        0
 97
        0
 75
     2
 76
     1
 98
        0
  0
SPLINE
  5
62
330
54
100
AcDbEntity
  8
Layer 1
370
     0
100
AcDbSpline
210
0.0
220
0.0
230
1.0
 70
    11
 71
     3
 72
    77
 73
    73
 74
     0
 42
0.0000000001
 43
0.0000000001
 12
1.0
 22
0.0
 32
0.0
 13
1.0
 23
0.0
 33
0.0
 40
0.0
 40
0.0
 40
0.0
 40
0.0
 40
1.0
 40
1.0
 40
1.0
 40
2.0
 40
2.0
 40
2.0
 40
3.0
 40
3.0
 40
3.0
 40
4.0
 40
4.0
 40
4.0
 40
5.0
 40
5.0
 40
5.0
 40
6.0
 40
6.0
 40
6.0
 40
7.0
 40
7.0
 40
7.0
 40
8.0
 40
8.0
 40
8.0
 40
9.0
 40
9.0
 40
9.0
 40
10.0
 40
10.0
 40
10.0
 40
11.0
 40
11.0
 40
11.0
 40
12.0
 40
12.0
 40
12.0
 40
13.0
 40
13.0
 40
13.0
 40
14.0
 40
14.0
 40
14.0
 40
15.0
 40
15.0
 40
15.0
 40
16.0
 40
16.0
 40
16.0
 40
17.0
 40
17.0
 40
17.0
 40
18.0
 40
18.0
 40
18.0
 40
19.0
 40
19.0
 40
19.0
 40
20.0
 40
20.0
 40
20.0
 40
21.0
 40
21.0
 40
21.0
 40
22.0
 40
22.0
 40
22.0
 40
23.0
 40
23.0
 40
23.0
 40
24.0
 40
24.0
 40
24.0
 40
24.0
 10
843.7345994984571
 20
-381.1695092326809
 30
0.0
 10
833.2583343056649
 20
-381.1695092326809
 30
0.0
 10
824.6041403284453
 20
-388.001631994327
 30
0.0
 10
823.6943933141629
 20
-398.9327706942613
 30
0.0
 10
822.7820691128727
 20
-405.3100199487662
 30
0.0
 10
825.5164645297355
 20
-410.3200714948407
 30
0.0
 10
830.5265160758099
 20
-413.9642139259868
 30
0.0
 10
840.546619167957
 20
-421.7073722954201
 30
0.0
 10
853.3011176769687
 20
-423.9843170181339
 30
0.0
 10
863.7748056827513
 20
-431.272601880426
 30
0.0
 10
868.3312723151885
 20
-434.4605822109261
 30
0.0
 10
871.5192526456904
 20
-438.1047246420721
 30
0.0
 10
871.5192526456904
 20
-438.1047246420721
 30
0.0
 10
871.5192526456904
 20
-438.1047246420721
 30
0.0
 10
898.3915815916316
 20
-423.0732814103476
 30
0.0
 10
905.2237043532768
 20
-418.9742654720603
 30
0.0
 10
911.1460801006415
 20
-415.3301230409143
 30
0.0
 10
916.612293747361
 20
-410.7762335954858
 30
0.0
 10
922.075930207071
 20
-406.2210555565534
 30
0.0
 10
923.4444165090081
 20
-405.3100199487662
 30
0.0
 10
924.8103256239356
 20
-403.9441108338397
 30
0.0
 10
926.1762347388631
 20
-403.9441108338397
 30
0.0
 10
927.0885589401532
 20
-403.9441108338397
 30
0.0
 10
927.9983059544356
 20
-403.9441108338397
 30
0.0
 10
928.4544680550807
 20
-404.8538578481212
 30
0.0
 10
931.6424483855826
 20
-408.043126772126
 30
0.0
 10
925.2664877245807
 20
-411.6859806097682
 30
0.0
 10
922.9882544083612
 20
-413.5080518253408
 30
0.0
 10
908.4116846837769
 20
-425.3515147265653
 30
0.0
 10
891.5594588299846
 20
-435.3716178187124
 30
0.0
 10
875.1633950768355
 20
-443.5696496952869
 30
0.0
 10
882.905264852765
 20
-457.6900573192261
 30
0.0
 10
876.9854662924081
 20
-476.3643543885928
 30
0.0
 10
867.8751102145434
 20
-488.6626907969585
 30
0.0
 10
859.6770783379689
 20
-499.5938294968919
 30
0.0
 10
842.3686903835296
 20
-511.4360038046116
 30
0.0
 10
827.3385357453099
 20
-511.4360038046116
 30
0.0
 10
820.0502508830177
 20
-511.4360038046116
 30
0.0
 10
812.7619660207256
 20
-508.2480234741115
 30
0.0
 10
807.7519144746511
 20
-500.0487030040331
 30
0.0
 10
800.0100446987235
 20
-487.7516551891722
 30
0.0
 10
805.4736811584335
 20
-471.8091763496604
 30
0.0
 10
816.4061084518708
 20
-462.7001088652996
 30
0.0
 10
825.0603024290904
 20
-455.4118240030066
 30
0.0
 10
836.446314636165
 20
-453.1348792802928
 30
0.0
 10
846.922579828959
 20
-449.0358633420065
 30
0.0
 10
835.0804055212375
 20
-441.2927049725731
 30
0.0
 10
820.9599978973001
 20
-435.3716178187124
 30
0.0
 10
813.6742902220158
 20
-421.7073722954201
 30
0.0
 10
810.0301477908706
 20
-415.3301230409143
 30
0.0
 10
810.0301477908706
 20
-408.4980002792672
 30
0.0
 10
810.4863098915157
 20
-401.2110040104799
 30
0.0
 10
812.3058039200787
 20
-384.3574895631818
 30
0.0
 10
823.6943933141629
 20
-372.06044174832
 30
0.0
 10
841.0027812686021
 20
-372.06044174832
 30
0.0
 10
850.110560159459
 20
-372.06044174832
 30
0.0
 10
859.2209162373238
 20
-375.7032955859622
 30
0.0
 10
862.4088965678238
 20
-384.8136516638269
 30
0.0
 10
863.3212207691158
 20
-387.5467584871867
 30
0.0
 10
864.6871298840433
 20
-391.645774425474
 30
0.0
 10
863.3212207691158
 20
-393.9227191481878
 30
0.0
 10
862.4088965678238
 20
-395.2899168566191
 30
0.0
 10
861.4991495535432
 20
-395.7447903637603
 30
0.0
 10
860.1332404386158
 20
-395.7447903637603
 30
0.0
 10
859.2209162373238
 20
-395.7447903637603
 30
0.0
 10
858.3111692230414
 20
-395.2899168566191
 30
0.0
 10
857.3988450217512
 20
-394.3788812488328
 30
0.0
 10
856.0329359068237
 20
-392.1006479326143
 30
0.0
 10
856.4890980074688
 20
-388.9126676021142
 30
0.0
 10
855.1206117055317
 20
-386.6357228793995
 30
0.0
 10
852.8449555763236
 20
-382.5354183476084
 30
0.0
 10
848.2884889438847
 20
-381.1695092326809
 30
0.0
 10
843.7345994984571
 20
-381.1695092326809
 30
0.0
  0
SPLINE
  5
63
330
54
100
AcDbEntity
  8
Layer 1
370
     0
100
AcDbSpline
210
0.0
220
0.0
230
1.0
 70
    11
 71
     3
 72
    26
 73
    22
 74
     0
 42
0.0000000001
 43
0.0000000001
 12
1.0
 22
0.0
 32
0.0
 13
1.0
 23
0.0
 33
0.0
 40
0.0
 40
0.0
 40
0.0
 40
0.0
 40
1.0
 40
1.0
 40
1.0
 40
2.0
 40
2.0
 40
2.0
 40
3.0
 40
3.0
 40
3.0
 40
4.0
 40
4.0
 40
4.0
 40
5.0
 40
5.0
 40
5.0
 40
6.0
 40
6.0
 40
6.0
 40
7.0
 40
7.0
 40
7.0
 40
7.0
 10
847.3787419296041
 20
-455.4118240030066
 30
0.0
 10
841.0027812686021
 20
-458.1449308263664
 30
0.0
 10
833.71449640631
 20
-459.5121285347986
 30
0.0
 10
827.7921206589454
 20
-462.7001088652996
 30
0.0
 10
822.7820691128727
 20
-464.9770535880134
 30
0.0
 10
818.6843417680902
 20
-468.6211960191595
 30
0.0
 10
815.4963614375902
 20
-472.7202119574467
 30
0.0
 10
811.8522190064432
 20
-477.2753899963791
 30
0.0
 10
810.0301477908706
 20
-482.7416036430977
 30
0.0
 10
810.4863098915157
 20
-488.2065286963125
 30
0.0
 10
810.9398948051512
 20
-495.9496870657458
 30
0.0
 10
815.4963614375902
 20
-503.237971928038
 30
0.0
 10
823.6943933141629
 20
-503.237971928038
 30
0.0
 10
841.0027812686021
 20
-503.237971928038
 30
0.0
 10
855.5767738061786
 20
-478.1864256041654
 30
0.0
 10
855.5767738061786
 20
-463.1549823724399
 30
0.0
 10
855.5767738061786
 20
-458.1449308263664
 30
0.0
 10
852.8449555763236
 20
-453.5910413809388
 30
0.0
 10
852.8449555763236
 20
-453.5910413809388
 30
0.0
 10
852.8449555763236
 20
-453.5910413809388
 30
0.0
 10
847.3787419296041
 20
-455.4118240030066
 30
0.0
 10
847.3787419296041
 20
-455.4118240030066
 30
0.0
  0
HATCH
  5
64
330
54
100
AcDbEntity
  8
Layer 1
 62
   154
420
   217747
100
AcDbHatch
 10
0.0
 20
0.0
 30
0.0
210
0.0
220
0.0
230
1.0
  2
SOLID
 70
     1
 71
     0
 91
        2
 92
        1
 93
        1
 72
     4
 94
        3
 73
     0
 74
     1
 95
       77
 96
       73
 40
0.0
 40
0.0
 40
0.0
 40
0.0
 40
1.0
 40
1.0
 40
1.0
 40
2.0
 40
2.0
 40
2.0
 40
3.0
 40
3.0
 40
3.0
 40
4.0
 40
4.0
 40
4.0
 40
5.0
 40
5.0
 40
5.0
 40
6.0
 40
6.0
 40
6.0
 40
7.0
 40
7.0
 40
7.0
 40
8.0
 40
8.0
 40
8.0
 40
9.0
 40
9.0
 40
9.0
 40
10.0
 40
10.0
 40
10.0
 40
11.0
 40
11.0
 40
11.0
 40
12.0
 40
12.0
 40
12.0
 40
13.0
 40
13.0
 40
13.0
 40
14.0
 40
14.0
 40
14.0
 40
15.0
 40
15.0
 40
15.0
 40
16.0
 40
16.0
 40
16.0
 40
17.0
 40
17.0
 40
17.0
 40
18.0
 40
18.0
 40
18.0
 40
19.0
 40
19.0
 40
19.0
 40
20.0
 40
20.0
 40
20.0
 40
21.0
 40
21.0
 40
21.0
 40
22.0
 40
22.0
 40
22.0
 40
23.0
 40
23.0
 40
23.0
 40
24.0
 40
24.0
 40
24.0
 40
24.0
 10
843.7345994984571
 20
-381.1695092326809
 10
833.2583343056649
 20
-381.1695092326809
 10
824.6041403284453
 20
-388.001631994327
 10
823.6943933141629
 20
-398.9327706942613
 10
822.7820691128727
 20
-405.3100199487662
 10
825.5164645297355
 20
-410.3200714948407
 10
830.5265160758099
 20
-413.9642139259868
 10
840.546619167957
 20
-421.7073722954201
 10
853.3011176769687
 20
-423.9843170181339
 10
863.7748056827513
 20
-431.272601880426
 10
868.3312723151885
 20
-434.4605822109261
 10
871.5192526456904
 20
-438.1047246420721
 10
871.5192526456904
 20
-438.1047246420721
 10
871.5192526456904
 20
-438.1047246420721
 10
898.3915815916316
 20
-423.0732814103476
 10
905.2237043532768
 20
-418.9742654720603
 10
911.1460801006415
 20
-415.3301230409143
 10
916.612293747361
 20
-410.7762335954858
 10
922.075930207071
 20
-406.2210555565534
 10
923.4444165090081
 20
-405.3100199487662
 10
924.8103256239356
 20
-403.9441108338397
 10
926.1762347388631
 20
-403.9441108338397
 10
927.0885589401532
 20
-403.9441108338397
 10
927.9983059544356
 20
-403.9441108338397
 10
928.4544680550807
 20
-404.8538578481212
 10
931.6424483855826
 20
-408.043126772126
 10
925.2664877245807
 20
-411.6859806097682
 10
922.9882544083612
 20
-413.5080518253408
 10
908.4116846837769
 20
-425.3515147265653
 10
891.5594588299846
 20
-435.3716178187124
 10
875.1633950768355
 20
-443.5696496952869
 10
882.905264852765
 20
-457.6900573192261
 10
876.9854662924081
 20
-476.3643543885928
 10
867.8751102145434
 20
-488.6626907969585
 10
859.6770783379689
 20
-499.5938294968919
 10
842.3686903835296
 20
-511.4360038046116
 10
827.3385357453099
 20
-511.4360038046116
 10
820.0502508830177
 20
-511.4360038046116
 10
812.7619660207256
 20
-508.2480234741115
 10
807.7519144746511
 20
-500.0487030040331
 10
800.0100446987235
 20
-487.7516551891722
 10
805.4736811584335
 20
-471.8091763496604
 10
816.4061084518708
 20
-462.7001088652996
 10
825.0603024290904
 20
-455.4118240030066
 10
836.446314636165
 20
-453.1348792802928
 10
846.922579828959
 20
-449.0358633420065
 10
835.0804055212375
 20
-441.2927049725731
 10
820.9599978973001
 20
-435.3716178187124
 10
813.6742902220158
 20
-421.7073722954201
 10
810.0301477908706
 20
-415.3301230409143
 10
810.0301477908706
 20
-408.4980002792672
 10
810.4863098915157
 20
-401.2110040104799
 10
812.3058039200787
 20
-384.3574895631818
 10
823.6943933141629
 20
-372.06044174832
 10
841.0027812686021
 20
-372.06044174832
 10
850.110560159459
 20
-372.06044174832
 10
859.2209162373238
 20
-375.7032955859622
 10
862.4088965678238
 20
-384.8136516638269
 10
863.3212207691158
 20
-387.5467584871867
 10
864.6871298840433
 20
-391.645774425474
 10
863.3212207691158
 20
-393.9227191481878
 10
862.4088965678238
 20
-395.2899168566191
 10
861.4991495535432
 20
-395.7447903637603
 10
860.1332404386158
 20
-395.7447903637603
 10
859.2209162373238
 20
-395.7447903637603
 10
858.3111692230414
 20
-395.2899168566191
 10
857.3988450217512
 20
-394.3788812488328
 10
856.0329359068237
 20
-392.1006479326143
 10
856.4890980074688
 20
-388.9126676021142
 10
855.1206117055317
 20
-386.6357228793995
 10
852.8449555763236
 20
-382.5354183476084
 10
848.2884889438847
 20
-381.1695092326809
 10
843.7345994984571
 20
-381.1695092326809
 97
        0
 97
        0
 92
        1
 93
        1
 72
     4
 94
        3
 73
     0
 74
     1
 95
       26
 96
       22
 40
0.0
 40
0.0
 40
0.0
 40
0.0
 40
1.0
 40
1.0
 40
1.0
 40
2.0
 40
2.0
 40
2.0
 40
3.0
 40
3.0
 40
3.0
 40
4.0
 40
4.0
 40
4.0
 40
5.0
 40
5.0
 40
5.0
 40
6.0
 40
6.0
 40
6.0
 40
7.0
 40
7.0
 40
7.0
 40
7.0
 10
847.3787419296041
 20
-455.4118240030066
 10
841.0027812686021
 20
-458.1449308263664
 10
833.71449640631
 20
-459.5121285347986
 10
827.7921206589454
 20
-462.7001088652996
 10
822.7820691128727
 20
-464.9770535880134
 10
818.6843417680902
 20
-468.6211960191595
 10
815.4963614375902
 20
-472.7202119574467
 10
811.8522190064432
 20
-477.2753899963791
 10
810.0301477908706
 20
-482.7416036430977
 10
810.4863098915157
 20
-488.2065286963125
 10
810.9398948051512
 20
-495.9496870657458
 10
815.4963614375902
 20
-503.237971928038
 10
823.6943933141629
 20
-503.237971928038
 10
841.0027812686021
 20
-503.237971928038
 10
855.5767738061786
 20
-478.1864256041654
 10
855.5767738061786
 20
-463.1549823724399
 10
855.5767738061786
 20
-458.1449308263664
 10
852.8449555763236
 20
-453.5910413809388
 10
852.8449555763236
 20
-453.5910413809388
 10
852.8449555763236
 20
-453.5910413809388
 10
847.3787419296041
 20
-455.4118240030066
 10
847.3787419296041
 20
-455.4118240030066
 97
        0
 97
        0
 75
     2
 76
     1
 98
        0
  0
ENDBLK
  5
57
330
54
100
AcDbEntity
  8
0
100
AcDbBlockEnd
  0
ENDSEC
  0
SECTION
  2
ENTITIES
  0
INSERT
  5
42
330
1F
100
AcDbEntity
  8
Layer 1
100
AcDbBlockReference
  2
block 2
 10
0.0
 20
0.0
 30
0.0
  0
ENDSEC
  0
SECTION
  2
OBJECTS
  0
DICTIONARY
  5
C
330
0
100
AcDbDictionary
281
     1
  3
ACAD_GROUP
350
D
  3
ACAD_LAYOUT
350
1A
  3
ACAD_MATERIAL
350
3B
  3
ACAD_MLEADERSTYLE
350
6A
  3
ACAD_MLINESTYLE
350
17
  3
ACAD_PLOTSETTINGS
350
19
  3
ACAD_PLOTSTYLENAME
350
E
  3
ACAD_TABLESTYLE
350
69
  3
ACAD_VISUALSTYLE
350
2A
  0
SUN
  5
3F
330
29
100
AcDbSun
 90
        1
290
     0
 63
     7
421
 16777215
 40
1.0
291
     1
 91
  2455826
 92
 54000000
292
     0
 70
     2
 71
   256
280
     1
  0
DICTIONARY
  5
D
102
{ACAD_REACTORS
330
C
102
}
330
C
100
AcDbDictionary
281
     1
  0
DICTIONARY
  5
1A
102
{ACAD_REACTORS
330
C
102
}
330
C
100
AcDbDictionary
281
     1
  3
Layout1
350
1E
  3
Layout2
350
26
  3
Model
350
22
  0
DICTIONARY
  5
3B
102
{ACAD_REACTORS
330
C
102
}
330
C
100
AcDbDictionary
281
     1
  3
ByBlock
350
3D
  3
ByLayer
350
3C
  3
Global
350
3E
  0
DICTIONARY
  5
6A
102
{ACAD_REACTORS
330
C
102
}
330
C
100
AcDbDictionary
281
     1
  0
DICTIONARY
  5
17
102
{ACAD_REACTORS
330
C
102
}
330
C
100
AcDbDictionary
281
     1
  3
Standard
350
18
  0
DICTIONARY
  5
19
102
{ACAD_REACTORS
330
C
102
}
330
C
100
AcDbDictionary
281
     1
  0
ACDBDICTIONARYWDFLT
  5
E
102
{ACAD_REACTORS
330
C
102
}
330
C
100
AcDbDictionary
281
     1
  3
Normal
350
F
100
AcDbDictionaryWithDefault
340
F
  0
DICTIONARY
  5
69
102
{ACAD_REACTORS
330
C
102
}
330
C
100
AcDbDictionary
281
     1
  0
DICTIONARY
  5
2A
102
{ACAD_REACTORS
330
C
102
}
330
C
100
AcDbDictionary
281
     1
  3
2dWireframe
350
2F
  3
3D Hidden
350
31
  3
3dWireframe
350
30
  3
Basic
350
32
  3
Brighten
350
36
  3
ColorChange
350
3A
  3
Conceptual
350
34
  3
Dim
350
35
  3
Facepattern
350
39
  3
Flat
350
2B
  3
FlatWithEdges
350
2C
  3
Gouraud
350
2D
  3
GouraudWithEdges
350
2E
  3
Linepattern
350
38
  3
Realistic
350
33
  3
Thicken
350
37
  0
LAYOUT
  5
1E
102
{ACAD_REACTORS
330
1A
102
}
330
1A
100
AcDbPlotSettings
  1

  2
none_device
  4

  6

 40
0.0
 41
0.0
 42
0.0
 43
0.0
 44
0.0
 45
0.0
 46
0.0
 47
0.0
 48
0.0
 49
0.0
140
0.0
141
0.0
142
1.0
143
1.0
 70
   688
 72
     0
 73
     0
 74
     5
  7

 75
    16
 76
     0
 77
     2
 78
   300
147
1.0
148
0.0
149
0.0
100
AcDbLayout
  1
Layout1
 70
     1
 71
     1
 10
0.0
 20
0.0
 11
12.0
 21
9.0
 12
0.0
 22
0.0
 32
0.0
 14
1.000000000000000E+20
 24
1.000000000000000E+20
 34
1.000000000000000E+20
 15
-1.000000000000000E+20
 25
-1.000000000000000E+20
 35
-1.000000000000000E+20
146
0.0
 13
0.0
 23
0.0
 33
0.0
 16
1.0
 26
0.0
 36
0.0
 17
0.0
 27
1.0
 37
0.0
 76
     0
330
1B
  0
LAYOUT
  5
26
102
{ACAD_REACTORS
330
1A
102
}
330
1A
100
AcDbPlotSettings
  1

  2
none_device
  4

  6

 40
0.0
 41
0.0
 42
0.0
 43
0.0
 44
0.0
 45
0.0
 46
0.0
 47
0.0
 48
0.0
 49
0.0
140
0.0
141
0.0
142
1.0
143
1.0
 70
   688
 72
     0
 73
     0
 74
     5
  7

 75
    16
 76
     0
 77
     2
 78
   300
147
1.0
148
0.0
149
0.0
100
AcDbLayout
  1
Layout2
 70
     1
 71
     2
 10
0.0
 20
0.0
 11
0.0
 21
0.0
 12
0.0
 22
0.0
 32
0.0
 14
0.0
 24
0.0
 34
0.0
 15
0.0
 25
0.0
 35
0.0
146
0.0
 13
0.0
 23
0.0
 33
0.0
 16
1.0
 26
0.0
 36
0.0
 17
0.0
 27
1.0
 37
0.0
 76
     0
330
23
  0
LAYOUT
  5
22
102
{ACAD_REACTORS
330
1A
102
}
330
1A
100
AcDbPlotSettings
  1

  2
none_device
  4

  6

 40
0.0
 41
0.0
 42
0.0
 43
0.0
 44
0.0
 45
0.0
 46
0.0
 47
0.0
 48
0.0
 49
0.0
140
0.0
141
0.0
142
1.0
143
1.0
 70
  1712
 72
     0
 73
     0
 74
     0
  7

 75
     0
 76
     0
 77
     2
 78
   300
147
1.0
148
0.0
149
0.0
100
AcDbLayout
  1
Model
 70
     1
 71
     0
 10
0.0
 20
0.0
 11
12.0
 21
9.0
 12
0.0
 22
0.0
 32
0.0
 14
1.000000000000000E+20
 24
1.000000000000000E+20
 34
1.000000000000000E+20
 15
-1.000000000000000E+20
 25
-1.000000000000000E+20
 35
-1.000000000000000E+20
146
0.0
 13
0.0
 23
0.0
 33
0.0
 16
1.0
 26
0.0
 36
0.0
 17
0.0
 27
1.0
 37
0.0
 76
     0
330
1F
331
29
  0
MATERIAL
  5
3D
102
{ACAD_REACTORS
330
3B
102
}
330
3B
100
AcDbMaterial
  1
ByBlock
 72
     1
 94
      127
  0
MATERIAL
  5
3C
102
{ACAD_REACTORS
330
3B
102
}
330
3B
100
AcDbMaterial
  1
ByLayer
 72
     1
 94
      127
  0
MATERIAL
  5
3E
102
{ACAD_REACTORS
330
3B
102
}
330
3B
100
AcDbMaterial
  1
Global
 72
     1
 94
      127
  0
MLINESTYLE
  5
18
102
{ACAD_REACTORS
330
17
102
}
330
17
100
AcDbMlineStyle
  2
Standard
 70
     0
  3

 62
   256
 51
90.0
 52
90.0
 71
     2
 49
0.5
 62
   256
  6
BYLAYER
 49
-0.5
 62
   256
  6
BYLAYER
  0
ACDBPLACEHOLDER
  5
F
102
{ACAD_REACTORS
330
E
102
}
330
E
  0
VISUALSTYLE
  5
2F
102
{ACAD_REACTORS
330
2A
102
}
330
2A
100
AcDbVisualStyle
  2
2dWireframe
 70
     4
177
     2
291
     0
 71
     0
176
     1
 72
     2
176
     1
 73
     0
176
     1
 90
        0
176
     1
 40
-0.6
176
     1
 41
-30.0
176
     1
 62
     5
 63
     7
421
 16777215
176
     1
 74
     1
176
     1
 91
        4
176
     1
 64
     7
176
     1
 65
   257
176
     1
 75
     1
176
     1
175
     1
176
     1
 42
1.0
176
     1
 92
        0
176
     1
 66
   257
176
     1
 43
1.0
176
     1
 76
     1
176
     1
 77
     6
176
     1
 78
     2
176
     1
 67
     7
176
     1
 79
     5
176
     1
170
     0
176
     1
171
     0
176
     1
290
     0
176
     1
 93
        1
176
     1
 44
0.0
176
     1
173
     0
176
     1
  0
VISUALSTYLE
  5
31
102
{ACAD_REACTORS
330
2A
102
}
330
2A
100
AcDbVisualStyle
  2
3D Hidden
 70
     6
177
     2
291
     0
 71
     1
176
     1
 72
     2
176
     1
 73
     2
176
     1
 90
        0
176
     1
 40
-0.6
176
     1
 41
-30.0
176
     1
 62
     5
 63
     7
421
 16777215
176
     1
 74
     2
176
     1
 91
        2
176
     1
 64
     7
176
     1
 65
   257
176
     1
 75
     2
176
     1
175
     1
176
     1
 42
40.0
176
     1
 92
        0
176
     1
 66
   257
176
     1
 43
1.0
176
     1
 76
     1
176
     1
 77
     6
176
     1
 78
     2
176
     1
 67
     7
176
     1
 79
     3
176
     1
170
     0
176
     1
171
     0
176
     1
290
     0
176
     1
 93
        1
176
     1
 44
0.0
176
     1
173
     0
176
     1
  0
VISUALSTYLE
  5
30
102
{ACAD_REACTORS
330
2A
102
}
330
2A
100
AcDbVisualStyle
  2
3dWireframe
 70
     5
177
     2
291
     0
 71
     0
176
     1
 72
     2
176
     1
 73
     0
176
     1
 90
        0
176
     1
 40
-0.6
176
     1
 41
-30.0
176
     1
 62
     5
 63
     7
421
 16777215
176
     1
 74
     1
176
     1
 91
        4
176
     1
 64
     7
176
     1
 65
   257
176
     1
 75
     1
176
     1
175
     1
176
     1
 42
1.0
176
     1
 92
        0
176
     1
 66
   257
176
     1
 43
1.0
176
     1
 76
     1
176
     1
 77
     6
176
     1
 78
     2
176
     1
 67
     7
176
     1
 79
     5
176
     1
170
     0
176
     1
171
     0
176
     1
290
     0
176
     1
 93
        1
176
     1
 44
0.0
176
     1
173
     0
176
     1
  0
VISUALSTYLE
  5
32
102
{ACAD_REACTORS
330
2A
102
}
330
2A
100
AcDbVisualStyle
  2
Basic
 70
     7
177
     2
291
     1
 71
     1
176
     1
 72
     0
176
     1
 73
     1
176
     1
 90
        0
176
     1
 40
-0.6
176
     1
 41
-30.0
176
     1
 62
     5
 63
     7
421
 16777215
176
     1
 74
     0
176
     1
 91
        4
176
     1
 64
     7
176
     1
 65
   257
176
     1
 75
     1
176
     1
175
     1
176
     1
 42
1.0
176
     1
 92
        8
176
     1
 66
     7
176
     1
 43
1.0
176
     1
 76
     1
176
     1
 77
     6
176
     1
 78
     2
176
     1
 67
     7
176
     1
 79
     5
176
     1
170
     0
176
     1
171
     0
176
     1
290
     0
176
     1
 93
        1
176
     1
 44
0.0
176
     1
173
     0
176
     1
  0
VISUALSTYLE
  5
36
102
{ACAD_REACTORS
330
2A
102
}
330
2A
100
AcDbVisualStyle
  2
Brighten
 70
    12
177
     2
291
     1
 71
     2
176
     1
 72
     2
176
     1
 73
     0
176
     1
 90
        0
176
     1
 40
-0.6
176
     1
 41
-30.0
176
     1
 62
     5
 63
     7
421
 16777215
176
     1
 74
     1
176
     1
 91
        4
176
     1
 64
     7
176
     1
 65
   257
176
     1
 75
     1
176
     1
175
     1
176
     1
 42
1.0
176
     1
 92
        8
176
     1
 66
     7
176
     1
 43
1.0
176
     1
 76
     1
176
     1
 77
     6
176
     1
 78
     2
176
     1
 67
     7
176
     1
 79
     5
176
     1
170
     0
176
     1
171
     0
176
     1
290
     0
176
     1
 93
        1
176
     1
 44
50.0
176
     1
173
     0
176
     1
  0
VISUALSTYLE
  5
3A
102
{ACAD_REACTORS
330
2A
102
}
330
2A
100
AcDbVisualStyle
  2
ColorChange
 70
    16
177
     2
291
     1
 71
     2
176
     1
 72
     2
176
     1
 73
     3
176
     1
 90
        0
176
     1
 40
-0.6
176
     1
 41
-30.0
176
     1
 62
     5
 63
     8
421
  8421504
176
     1
 74
     1
176
     1
 91
        4
176
     1
 64
     7
176
     1
 65
   257
176
     1
 75
     1
176
     1
175
     1
176
     1
 42
1.0
176
     1
 92
        8
176
     1
 66
     8
424
  8421504
176
     1
 43
1.0
176
     1
 76
     1
176
     1
 77
     6
176
     1
 78
     2
176
     1
 67
     7
176
     1
 79
     5
176
     1
170
     0
176
     1
171
     0
176
     1
290
     0
176
     1
 93
        1
176
     1
 44
0.0
176
     1
173
     0
176
     1
  0
VISUALSTYLE
  5
34
102
{ACAD_REACTORS
330
2A
102
}
330
2A
100
AcDbVisualStyle
  2
Conceptual
 70
     9
177
     2
291
     0
 71
     3
176
     1
 72
     2
176
     1
 73
     0
176
     1
 90
        0
176
     1
 40
-0.6
176
     1
 41
-30.0
176
     1
 62
     5
 63
     7
421
 16777215
176
     1
 74
     2
176
     1
 91
        2
176
     1
 64
     7
176
     1
 65
   257
176
     1
 75
     1
176
     1
175
     1
176
     1
 42
40.0
176
     1
 92
        8
176
     1
 66
     7
176
     1
 43
1.0
176
     1
 76
     1
176
     1
 77
     6
176
     1
 78
     2
176
     1
 67
     7
176
     1
 79
     3
176
     1
170
     0
176
     1
171
     0
176
     1
290
     0
176
     1
 93
        1
176
     1
 44
0.0
176
     1
173
     0
176
     1
  0
VISUALSTYLE
  5
35
102
{ACAD_REACTORS
330
2A
102
}
330
2A
100
AcDbVisualStyle
  2
Dim
 70
    11
177
     2
291
     1
 71
     2
176
     1
 72
     2
176
     1
 73
     0
176
     1
 90
        0
176
     1
 40
-0.6
176
     1
 41
-30.0
176
     1
 62
     5
 63
     7
421
 16777215
176
     1
 74
     1
176
     1
 91
        4
176
     1
 64
     7
176
     1
 65
   257
176
     1
 75
     1
176
     1
175
     1
176
     1
 42
1.0
176
     1
 92
        8
176
     1
 66
     7
176
     1
 43
1.0
176
     1
 76
     1
176
     1
 77
     6
176
     1
 78
     2
176
     1
 67
     7
176
     1
 79
     5
176
     1
170
     0
176
     1
171
     0
176
     1
290
     0
176
     1
 93
        1
176
     1
 44
-50.0
176
     1
173
     0
176
     1
  0
VISUALSTYLE
  5
39
102
{ACAD_REACTORS
330
2A
102
}
330
2A
100
AcDbVisualStyle
  2
Facepattern
 70
    15
177
     2
291
     1
 71
     2
176
     1
 72
     2
176
     1
 73
     0
176
     1
 90
        0
176
     1
 40
-0.6
176
     1
 41
-30.0
176
     1
 62
     5
 63
     7
421
 16777215
176
     1
 74
     1
176
     1
 91
        4
176
     1
 64
     7
176
     1
 65
   257
176
     1
 75
     1
176
     1
175
     1
176
     1
 42
1.0
176
     1
 92
        8
176
     1
 66
     7
176
     1
 43
1.0
176
     1
 76
     1
176
     1
 77
     6
176
     1
 78
     2
176
     1
 67
     7
176
     1
 79
     5
176
     1
170
     0
176
     1
171
     0
176
     1
290
     0
176
     1
 93
        1
176
     1
 44
0.0
176
     1
173
     0
176
     1
  0
VISUALSTYLE
  5
2B
102
{ACAD_REACTORS
330
2A
102
}
330
2A
100
AcDbVisualStyle
  2
Flat
 70
     0
177
     2
291
     1
 71
     2
176
     1
 72
     1
176
     1
 73
     1
176
     1
 90
        2
176
     1
 40
-0.6
176
     1
 41
30.0
176
     1
 62
     5
 63
     7
421
 16777215
176
     1
 74
     0
176
     1
 91
        4
176
     1
 64
     7
176
     1
 65
   257
176
     1
 75
     1
176
     1
175
     1
176
     1
 42
1.0
176
     1
 92
        8
176
     1
 66
     7
176
     1
 43
1.0
176
     1
 76
     1
176
     1
 77
     6
176
     1
 78
     2
176
     1
 67
     7
176
     1
 79
     5
176
     1
170
     0
176
     1
171
     0
176
     1
290
     0
176
     1
 93
       13
176
     1
 44
0.0
176
     1
173
     0
176
     1
  0
VISUALSTYLE
  5
2C
102
{ACAD_REACTORS
330
2A
102
}
330
2A
100
AcDbVisualStyle
  2
FlatWithEdges
 70
     1
177
     2
291
     1
 71
     2
176
     1
 72
     1
176
     1
 73
     1
176
     1
 90
        2
176
     1
 40
-0.6
176
     1
 41
30.0
176
     1
 62
     5
 63
     7
421
 16777215
176
     1
 74
     1
176
     1
 91
        4
176
     1
 64
     7
176
     1
 65
   257
176
     1
 75
     1
176
     1
175
     1
176
     1
 42
1.0
176
     1
 92
        0
176
     1
 66
   257
176
     1
 43
1.0
176
     1
 76
     1
176
     1
 77
     6
176
     1
 78
     2
176
     1
 67
     7
176
     1
 79
     5
176
     1
170
     0
176
     1
171
     0
176
     1
290
     0
176
     1
 93
       13
176
     1
 44
0.0
176
     1
173
     0
176
     1
  0
VISUALSTYLE
  5
2D
102
{ACAD_REACTORS
330
2A
102
}
330
2A
100
AcDbVisualStyle
  2
Gouraud
 70
     2
177
     2
291
     1
 71
     2
176
     1
 72
     2
176
     1
 73
     1
176
     1
 90
        2
176
     1
 40
-0.6
176
     1
 41
30.0
176
     1
 62
     5
 63
     7
421
 16777215
176
     1
 74
     0
176
     1
 91
        4
176
     1
 64
     7
176
     1
 65
   257
176
     1
 75
     1
176
     1
175
     1
176
     1
 42
1.0
176
     1
 92
        0
176
     1
 66
     7
176
     1
 43
1.0
176
     1
 76
     1
176
     1
 77
     6
176
     1
 78
     2
176
     1
 67
     7
176
     1
 79
     5
176
     1
170
     0
176
     1
171
     0
176
     1
290
     0
176
     1
 93
       13
176
     1
 44
0.0
176
     1
173
     0
176
     1
  0
VISUALSTYLE
  5
2E
102
{ACAD_REACTORS
330
2A
102
}
330
2A
100
AcDbVisualStyle
  2
GouraudWithEdges
 70
     3
177
     2
291
     1
 71
     2
176
     1
 72
     2
176
     1
 73
     1
176
     1
 90
        2
176
     1
 40
-0.6
176
     1
 41
30.0
176
     1
 62
     5
 63
     7
421
 16777215
176
     1
 74
     1
176
     1
 91
        4
176
     1
 64
     7
176
     1
 65
   257
176
     1
 75
     1
176
     1
175
     1
176
     1
 42
1.0
176
     1
 92
        0
176
     1
 66
   257
176
     1
 43
1.0
176
     1
 76
     1
176
     1
 77
     6
176
     1
 78
     2
176
     1
 67
     7
176
     1
 79
     5
176
     1
170
     0
176
     1
171
     0
176
     1
290
     0
176
     1
 93
       13
176
     1
 44
0.0
176
     1
173
     0
176
     1
  0
VISUALSTYLE
  5
38
102
{ACAD_REACTORS
330
2A
102
}
330
2A
100
AcDbVisualStyle
  2
Linepattern
 70
    14
177
     2
291
     1
 71
     2
176
     1
 72
     2
176
     1
 73
     0
176
     1
 90
        0
176
     1
 40
-0.6
176
     1
 41
-30.0
176
     1
 62
     5
 63
     7
421
 16777215
176
     1
 74
     1
176
     1
 91
        4
176
     1
 64
     7
176
     1
 65
   257
176
     1
 75
     7
176
     1
175
     7
176
     1
 42
1.0
176
     1
 92
        8
176
     1
 66
     7
176
     1
 43
1.0
176
     1
 76
     1
176
     1
 77
     6
176
     1
 78
     2
176
     1
 67
     7
176
     1
 79
     5
176
     1
170
     0
176
     1
171
     0
176
     1
290
     0
176
     1
 93
        1
176
     1
 44
0.0
176
     1
173
     0
176
     1
  0
VISUALSTYLE
  5
33
102
{ACAD_REACTORS
330
2A
102
}
330
2A
100
AcDbVisualStyle
  2
Realistic
 70
     8
177
     2
291
     0
 71
     2
176
     1
 72
     2
176
     1
 73
     0
176
     1
 90
        0
176
     1
 40
-0.6
176
     1
 41
-30.0
176
     1
 62
     5
 63
     7
421
 16777215
176
     1
 74
     1
176
     1
 91
        0
176
     1
 64
     7
176
     1
 65
   257
176
     1
 75
     1
176
     1
175
     1
176
     1
 42
1.0
176
     1
 92
        8
176
     1
 66
     8
424
  7895160
176
     1
 43
1.0
176
     1
 76
     1
176
     1
 77
     6
176
     1
 78
     2
176
     1
 67
     7
176
     1
 79
     5
176
     1
170
     0
176
     1
171
     0
176
     1
290
     0
176
     1
 93
       13
176
     1
 44
0.0
176
     1
173
     0
176
     1
  0
VISUALSTYLE
  5
37
102
{ACAD_REACTORS
330
2A
102
}
330
2A
100
AcDbVisualStyle
  2
Thicken
 70
    13
177
     2
291
     1
 71
     2
176
     1
 72
     2
176
     1
 73
     0
176
     1
 90
        0
176
     1
 40
-0.6
176
     1
 41
-30.0
176
     1
 62
     5
 63
     7
421
 16777215
176
     1
 74
     1
176
     1
 91
        4
176
     1
 64
     7
176
     1
 65
   257
176
     1
 75
     1
176
     1
175
     1
176
     1
 42
1.0
176
     1
 92
       12
176
     1
 66
     7
176
     1
 43
1.0
176
     1
 76
     1
176
     1
 77
     6
176
     1
 78
     2
176
     1
 67
     7
176
     1
 79
     5
176
     1
170
     0
176
     1
171
     0
176
     1
290
     0
176
     1
 93
        1
176
     1
 44
0.0
176
     1
173
     0
176
     1
  0
ENDSEC
  0
EOF
