<?xml version="1.0" encoding="utf-8"?>
<!-- Generator: Adobe Illustrator 22.0.0, SVG Export Plug-In . SVG Version: 6.00 Build 0)  -->
<svg version="1.1" id="Layer_1" xmlns="http://www.w3.org/2000/svg" xmlns:xlink="http://www.w3.org/1999/xlink" x="0px" y="0px"
	 viewBox="0 0 1080 1080" style="enable-background:new 0 0 1080 1080;" xml:space="preserve">
<style type="text/css">
	.st0{fill:#0153A5;}
	.st1{fill:#0AD2E2;}
	.st2{fill:#F74799;}
</style>
<g>
	<g>
		<path class="st0" d="M282.9,960.1c-8.5,18.4-34.1,46.4-112.1,46.4c-12.1,0-25.5-0.7-40.3-2.2c-9.3-0.9-16.4-7.9-18-16.6
			c-0.9-2.1-1.5-4.3-1.6-6.7c-6.1-101.7-6.3-260.1-6.3-261.7c0-7.2,3.8-13.9,10-17.6c24.6-14.8,80.6-28.4,116.2,26.1
			c34.2,52.3,25.3,115.8,2.9,150.2c13.8,3.3,26.1,8.7,34.9,17C287.2,912.8,292.9,938.3,282.9,960.1z M145.8,732.5
			c0.1,25,0.5,82.3,2,142.2c13.9,0.2,33.5-2,45.8-12.3c16.8-14.1,31-68.8,2.7-112.1C180.4,725.9,158.8,728.1,145.8,732.5z
			 M240.1,924.7c-12-11.4-55.9-12-91.1-8.1c0.6,16.6,1.3,32.8,2.1,48.1c60.1,3.7,88.5-8.9,94.4-21.8
			C248.6,936.2,244.8,929.1,240.1,924.7z"/>
		<path class="st0" d="M450.9,977.9c-7.6,10.4-33.3,29.4-61.8,29.4c-0.5,0-1,0-1.5,0c-15.4-0.4-37.5-6.5-55.1-33.3
			c-33.6-51.2-11.8-223.8-7.1-257.9c1.3-9.8,9.4-17.2,19.3-17.7l73-3.9c11.5-0.7,21,8.1,21.6,19.4c0.6,11.3-8.1,21-19.4,21.6
			l-55.9,3c-4.9,40.4-8.6,88.9-8.6,130l51-1.8c11.6-0.3,20.9,8.5,21.3,19.8c0.4,11.4-8.5,20.9-19.8,21.3l-50.9,1.8
			c1.7,19.1,4.8,34.1,9.9,41.8c9.1,13.9,17.8,14.5,20.6,14.7c13.5,1,27.9-9.9,30.5-12.9c6.7-9.2,19.4-11,28.5-4.3
			C455.7,955.6,457.5,968.7,450.9,977.9z"/>
		<path class="st0" d="M624.4,982.5c-1,11.3-10.9,19.7-22.3,18.7c-11.3-1-19.7-10.9-18.7-22.3c0.1-0.6,2-23.7,3.2-55.5l-60.5,0.3
			c2.5,33,5.6,57.1,5.6,57.7c1.4,11.3-6.6,21.6-17.8,23c-0.9,0.1-1.8,0.2-2.6,0.2c-10.2,0-19.1-7.6-20.4-18
			c-0.8-6.2-19-152.6-2.7-226.2c9.9-44.6,33.4-71.9,62.9-73c28.3-1,52.3,22.7,64.7,63.5C637.9,823.6,625,976,624.4,982.5z
			 M587.5,882.3c0.2-42.7-2.1-89.8-11.1-119.5c-7.7-25.4-18.5-34.6-23.7-34.3c-6,0.2-17.9,11.5-24.4,40.8
			c-6.4,29.1-6.6,73-4.8,113.4L587.5,882.3z"/>
		<path class="st0" d="M815.7,982.9c-0.2,11.2-9.4,20.2-20.6,20.2c-0.1,0-0.3,0-0.4,0c-11.4-0.2-20.4-9.6-20.2-21
			c0-1.5,2.8-149.2-5.6-202.2c-3.1-19.4-10.8-33-21.2-37.3c-8.4-3.5-18.9-1.2-29.6,6.5c-18.6,13.3-21.5,45-21,55
			c0,0.8-0.1,1.5-0.1,2.3c0.8,53.9,2.3,122.9,5.6,176.1c0.7,11.3-8,21.1-19.3,21.8c-0.4,0-0.8,0-1.3,0c-10.8,0-19.8-8.4-20.5-19.3
			c-6.2-103.2-6.4-263.8-6.4-265.4c0-11.4,9.2-20.6,20.6-20.6c0,0,0,0,0,0c9.7,0,17.8,6.7,19.9,15.8c22-15.2,46.7-19,68-10.1
			c24.2,10.1,40.6,34.5,46,68.8C818.6,830,815.8,976.6,815.7,982.9z"/>
		<path class="st0" d="M934.2,775c0.1-1.9,1.6-39.5-21.6-41c-10.2-0.7-16,8.4-18.5,13.8c-8.4,18.2-6,49.5,19,75.2
			c49.6,51,65.2,86.9,57.6,132.5c-4.4,26.7-31.6,47.1-63.2,47.5c-0.3,0-0.5,0-0.8,0c-25.8,0-55.9-14.7-63.8-56.2
			c-2.1-11.2,5.2-21.9,16.4-24c11.2-2.1,21.9,5.2,24.1,16.4c2.9,15.2,11,23,23.7,22.8c11.6-0.1,22.2-7.3,23.1-13.1
			c4-23.8,3.1-46-46.5-97c-38.8-39.8-41.5-89.5-26.9-121.1c11.6-25.2,33.5-39.3,58.5-37.7c51.2,3.3,61.7,56.6,60.1,84.4
			c-0.7,11.3-10.3,19.9-21.7,19.3C942.2,796,933.5,786.3,934.2,775z"/>
	</g>
	<g>
		<g>
			<path class="st1" d="M240.8,359.4c-16.2,22.2-36.2,34.1-56.5,34.1c-5,0-10-0.7-15-2.2c-31.3-9.2-52.7-46.2-55.7-96.6
				c-0.7-11.7,8.2-21.8,19.9-22.5c11.7-0.7,21.8,8.2,22.5,19.9c2.1,34.1,14.3,55.2,25.3,58.4c7,2.1,16.5-4,25.3-16.2
				c23.9-32.8,16.8-134.9,5.5-202.5h-42.6c-11.7,0-21.2-9.5-21.2-21.2c0-11.7,9.5-21.2,21.2-21.2h60.3c10.2,0,18.9,7.2,20.8,17.2
				C254.3,126,286.1,297.1,240.8,359.4z"/>
			<path class="st1" d="M433.5,367c-7.8,10.8-34.3,30.4-63.8,30.4c-0.5,0-1.1,0-1.6,0c-15.9-0.4-38.7-6.7-56.9-34.4
				c-34.7-52.9-12.1-231.1-7.3-266.2c1.4-10.1,9.7-17.7,19.9-18.3l75.4-4c11.8-0.7,21.7,8.4,22.3,20.1c0.6,11.7-8.4,21.7-20.1,22.3
				l-57.7,3.1c-5.1,41.7-8.8,91.8-8.8,134.2l52.6-1.9c12-0.3,21.6,8.7,22,20.4c0.4,11.7-8.7,21.6-20.4,22l-52.6,1.9
				c1.7,19.8,5,35.2,10.2,43.2c9.4,14.3,18.4,15,21.3,15.2c14,1,28.8-10.2,31.5-13.3c6.9-9.5,20-11.3,29.5-4.5
				C438.5,344,440.4,357.5,433.5,367z"/>
			<path class="st1" d="M559.7,157.5c0.1-1.9,1.7-40.8-22.3-42.3c-10.5-0.7-16.5,8.7-19.1,14.3c-8.6,18.8-6.2,51.1,19.7,77.6
				c51.2,52.6,67.4,89.7,59.5,136.8c-4.6,27.6-32.7,48.7-65.3,49c-0.3,0-0.5,0-0.8,0c-26.6,0-57.7-15.2-65.8-58
				c-2.2-11.5,5.4-22.6,16.9-24.8c11.5-2.2,22.6,5.4,24.8,16.9c3,15.7,11.4,23.8,24.4,23.5c12-0.1,22.9-7.5,23.9-13.6
				c4.1-24.6,3.2-47.5-48.1-100.2c-40-41.1-42.8-92.4-27.8-125c12-26,34.6-40.6,60.4-38.9c52.9,3.4,63.7,58.5,62,87.1
				c-0.7,11.7-10.6,20.6-22.4,19.9C567.9,179.2,559,169.2,559.7,157.5z"/>
			<path class="st1" d="M802.1,110.3v264.1c0,11.7-9.5,21.2-21.2,21.2c-11.7,0-21.2-9.5-21.2-21.2v-21.3
				c-7,12.6-14.9,22.3-23.6,29.1c-14.2,11.1-30.8,15-48,11.2c-76.4-16.6-60-209.6-49.3-291.7c1.5-11.6,12-19.8,23.8-18.3
				c11.6,1.5,19.8,12.1,18.3,23.8c-15.5,120.6-7.6,239.6,16.3,244.8c4.8,1.1,8.5,0.1,12.8-3.2c21.3-16.7,45.6-88.3,49.8-239
				c0.3-11.6,9.7-20.8,21.5-20.6C792.7,89.3,802.1,98.7,802.1,110.3z"/>
			<path class="st1" d="M924,157.5c0.1-1.9,1.7-40.8-22.3-42.3c-10.5-0.7-16.5,8.7-19.1,14.3c-8.6,18.8-6.2,51.1,19.7,77.6
				c51.2,52.6,67.4,89.7,59.5,136.8c-4.6,27.6-32.7,48.7-65.3,49c-0.3,0-0.5,0-0.8,0c-26.6,0-57.7-15.2-65.8-58
				c-2.2-11.5,5.4-22.6,16.9-24.8c11.5-2.2,22.6,5.4,24.8,16.9c3,15.7,11.4,23.8,24.4,23.5c12-0.1,22.9-7.5,23.9-13.6
				c4.1-24.6,3.2-47.5-48.1-100.2c-40-41.1-42.8-92.4-27.8-125c12-26,34.6-40.6,60.4-38.9c52.9,3.4,63.7,58.5,62,87.1
				c-0.7,11.7-10.6,20.6-22.4,19.9C932.2,179.2,923.3,169.2,924,157.5z"/>
		</g>
	</g>
	<g>
		<path class="st2" d="M209.5,635.6c31.8-31.1,38.4-65.9,34-78.5c-3.3-10.1-16.6-10.9-21.3-1.1c-1.1,2.2-1.8,4.7-2.5,6.9
			c-9,28.2-25,45.6-27.9,46.7c-1.4-1.1-1.8-2.9-2.5-4.3c-5.4-11.6-9.8-23.9-14.8-35.5c-3.6-8.7,4.7-9,21-39.8
			c51-98.8-15.9-133.5-47.8-83.2c-19.2,30.4-17.4,76-6.5,110c2.5,9-1.1,9-20.3,37.6c-22.4,34-8,56.8,19.5,63.7
			c13.7,3.6,27.1,1.4,40.2-4c8-3.3,3.3-3.3,27.5,24.6c7.6,8.7,21.3,1.8,17.7-9.4c-1.8-5.4-5.1-9-17.4-27.5
			C206.3,638.5,206.3,638.5,209.5,635.6z M164.3,481.8c3.6-18.8,15.6-37.6,19.2-30.4c12.3,24.2-14.5,76-18.8,77.4
			c-0.4-0.4-0.7-0.7-0.7-1.4C162.1,512.2,161.4,497,164.3,481.8z M165.7,628.7c-20.6,8-32.6,0-30.4-8c2.5-9.8,11.6-21,17.4-29.3
			c1.8,1.4,1.8,2.5,2.5,3.6C169.4,629.8,172.6,626.2,165.7,628.7z"/>
		<path class="st2" d="M425.9,441.7c6.5-1.8,11.2-9.4,11.2-18.1c0-7.2-4.3-18.5-14.8-18.5c-8.3,0-14.8,11.2-14.8,19.5
			C407.1,437,415.4,444.6,425.9,441.7z"/>
		<path class="st2" d="M953.8,531.4c-8,8.7-36.9,38.4-41.2,40.5c-0.7-1.8,13-90.1,11.6-131c-0.4-9.8-5.4-18.5-15.2-17.7
			c-20.6,1.8-7.2,45.6-40.9,116.9c-5.4,10.5-19.5,34.4-25,23.9c-9.4-18.5,2.9-102,5.1-119c1.4-9.4,1.4-18.5-8-21.3
			c-5.8-1.8-14.1,0.4-18.5,9c-5.8,11.9-13.7,44.9-15.9,70.9c-0.8,10.4-0.9,19.7-0.5,28.1c-0.8,1-1.5,2.1-2.1,3.4
			c-4,8.3-30,77.1-45.6,91.2c-1.8,1.8-2.5,1.4-3.6-0.7c-7.2-16.6-4.7-56.4-2.9-74.5c1.4-11.9,17.4-18.5,31.5-91.2
			c10.9-55.7-20.3-60.8-35.8-42.3c-15.9,18.5-27.9,67.9-32.7,115.3c-0.5,0.7-0.9,1.5-1.3,2.3c-4,8.3-30,77.1-45.6,91.2
			c-1.8,1.8-2.5,1.4-3.6-0.7c-7.2-16.6-4.7-56.4-2.9-74.5c1.4-11.9,17.4-18.5,31.5-91.2c10.9-55.7-20.3-60.8-35.8-42.3
			c-16.3,19-28.6,70.8-33.1,119.3c-7.5,18.9-44.3,95.6-72.5,95.6c-25.3,0-32.2-26.8-30.8-57.2c0.4-3.6,0.4-3.6,4-2.9
			c30.8,5.8,79.2-29.7,87.9-99.1c3.3-27.1-7.6-49.9-39.1-49.9c-41.4,0-74.8,52.8-86.4,108.5c-0.9,0.6-1.8,1.3-2.6,2.2
			c-5.1,5.4-23.5,23.2-34.7,31.5c-2.5,2.2-2.9,1.1-2.9-1.8c0-9,16.6-112.9-21.7-112.9c-38.7,0-60.4,32.6-73.8,71.6
			c-1.4,4.3-1.4,9.4-0.4,13.7c2.5,9.4,25.3,13,23.9-6.2c-0.4-1.8-1.4-2.5-0.7-4c7.2-15.2,28.9-50.3,42.3-50.3
			c9.4,0,2.5,55.4-0.4,95.5c-0.4,5.8-1.4,7.2-6.5,8.7c-61.9,17.7-80.7,107.5-23.2,107.5c18.1,0,32.9-14.1,42-30.8
			c4.7-9,8.3-19.2,10.9-29.3c6.9-27.5,3.6-31.1,8.7-33.3c12.7-5.2,25.2-21.1,35.3-34.3c-3.7,52.5,14.5,100.1,66.4,100.1
			c31.8,0,56-31.5,72.8-67.2c0.2,2.8,0.4,5.6,0.6,8.3c1.1,10.1,2.5,20.3,6.2,29.7c13.7,37.3,48.1,43.1,70.6-7.2
			c2.3-5,7.6-16.6,13.2-29.9c0.2,2.6,0.3,5.1,0.6,7.5c1.1,10.1,2.5,20.3,6.2,29.7c13.7,37.3,48.1,43.1,70.6-7.2
			c3.8-8.1,15.3-33.9,23.4-55.4c7.2,15.9,18.7,23.2,32.3,23.2c22.4,0,36.5-26.1,36.5-26.1s-2.5,15.6-3.6,21.3
			c-0.7,2.9-1.8,4.3-4.7,5.1c-30,8-49.2,20.3-62.2,51.4c-14.1,34.7,31.8,76.3,72.7,17.4c16.3-23.5,18.1-58.3,24.6-61.5
			c16.6-8.3,45.9-34,57.5-51.4C977.3,529.6,962.8,521.3,953.8,531.4z M527.2,537.5c0.4-2.9,9-25.7,19.9-45.2
			c6.2-10.5,18.5-27.5,29.7-32.2c2.2,4.7,1.8,8.7,1.4,13C570.2,528.9,524.7,550.6,527.2,537.5z M385.4,657.3
			c-7.6,0-6.2-34.4,22.1-44.9C407.4,620.8,401.3,657.3,385.4,657.3z M841.6,666.3c-5.4,0-7.2-4-7.2-8.3c0-15.2,29.3-35.1,37.3-36.9
			C870.2,634.9,851,666.3,841.6,666.3z"/>
	</g>
	<g>
		<path class="st1" d="M174,146.3c-7.5,1.3-14.1,4.4-20,9.1c-20.9,16.7-32.5,38-32.7,65.1c0.2,3.6,0.2,7.2,0.8,10.8
			c2.8,17.9,11,32,28.9,38.5c9.6,3.5,19.3,3.3,27.6-3.6c8.9-7.4,9.8-17.3,7.8-27.8c-0.6-3.5-1.4-7.1-2.5-10.5
			c-4.4-14-2.5-26.6,6.8-38.2c3.5-4.3,6.4-8.9,8.2-14.2C204.7,158.5,191.7,143.3,174,146.3z M196.2,172.6
			c-2.8,8.3-6.9,15.9-14.4,21.2c-2.7,1.9-5.1,4.5-7.3,7c-7.7,9.2-6.5,20.4,2.9,27.9c8.2,6.6,7.3,15.6,5.6,24.3
			c-1.6,8.3-8.7,14-16.8,15.1c-14,1.9-28-5.9-35.4-19.8c-4.7-8.8-6.1-18.4-6.2-28.1c0.5-27.1,12.2-48.1,33.8-63.8
			c6.6-4.8,14-7.8,22.6-6.8C192.6,150.9,199.9,161.6,196.2,172.6z M179.8,225.2c-9.5-7.3-9-17.8,1.3-25.6
			C177.2,208.3,177.9,216.4,179.8,225.2z"/>
		<path class="st1" d="M136.6,244.7c1.3,11.2,19,22,27.9,15.9C151.2,260.7,143.7,253,136.6,244.7z"/>
		<path class="st1" d="M135.7,241.7c-0.5-4.8-1.3-9-3.8-13.4C129.9,234.5,131.1,238.8,135.7,241.7z"/>
	</g>
	<g>
		<path class="st2" d="M321.9,437.3c-10.1,2.7-18.8,7.8-26.3,14.9c-26.6,25.4-40,56.1-36.9,93.3c0.8,4.9,1.2,9.9,2.4,14.7
			c6,24.2,19,42.5,44.3,49.2c13.6,3.6,26.8,2.2,37.4-8.3c11.4-11.2,11.3-24.9,7.4-39.1c-1.3-4.8-2.8-9.5-4.7-14.1
			c-7.8-18.6-6.7-36.2,4.7-53.2c4.2-6.3,7.7-13,9.5-20.5C365.4,450.3,345.8,431,321.9,437.3z M355.5,470.7
			c-2.8,11.7-7.5,22.6-17.1,30.8c-3.5,3-6.5,6.7-9.1,10.5c-9.5,13.6-6.5,28.7,7.3,38c12.1,8.1,11.9,20.5,10.7,32.6
			c-1.1,11.6-10.2,20.3-21.2,22.8c-19,4.3-39.1-4.7-50.9-22.8c-7.5-11.5-10.7-24.5-12-37.8c-2.6-37.2,10.9-67.4,38.6-91.6
			c8.5-7.4,18.3-12.4,30.1-12.1C347.9,441.4,359.2,455.2,355.5,470.7z M339.5,544.8c-14-8.9-14.5-23.3-1.4-35.3
			C333.8,521.9,335.7,532.9,339.5,544.8z"/>
		<path class="st2" d="M282.5,576.8c3.2,15.2,28.8,27.8,40.3,18.4C304.6,597,293.4,587.4,282.5,576.8z"/>
		<path class="st2" d="M280.9,572.8c-1.3-6.5-2.9-12.1-6.8-17.9C272.1,563.7,274.3,569.5,280.9,572.8z"/>
	</g>
</g>
</svg>
