  0
SECTION
  2
HEADER
  9
$ACADVER
  1
AC1024
  9
$ACADMAINTVER
 70
     6
  9
$DWGCODEPAGE
  3
ANSI_1252
  9
$INSBASE
 10
0.0
 20
0.0
 30
0.0
  9
$EXTMIN
 10
1.000000000000000E+20
 20
1.000000000000000E+20
 30
1.000000000000000E+20
  9
$EXTMAX
 10
-1.000000000000000E+20
 20
-1.000000000000000E+20
 30
-1.000000000000000E+20
  9
$LIMMIN
 10
0.0
 20
0.0
  9
$LIMMAX
 10
12.0
 20
9.0
  9
$ORTHOMODE
 70
     0
  9
$REGENMODE
 70
     1
  9
$FILLMODE
 70
     1
  9
$QTEXTMODE
 70
     0
  9
$MIRRTEXT
 70
     1
  9
$LTSCALE
 40
1.0
  9
$ATTMODE
 70
     1
  9
$TEXTSIZE
 40
0.2
  9
$TRACEWID
 40
0.05
  9
$TEXTSTYLE
  7
Standard
  9
$CLAYER
  8
0
  9
$CELTYPE
  6
ByLayer
  9
$CECOLOR
 62
   256
  9
$CELTSCALE
 40
1.0
  9
$DISPSILH
 70
     0
  9
$DIMSCALE
 40
1.0
  9
$DIMASZ
 40
0.18
  9
$DIMEXO
 40
0.0625
  9
$DIMDLI
 40
0.38
  9
$DIMRND
 40
0.0
  9
$DIMDLE
 40
0.0
  9
$DIMEXE
 40
0.18
  9
$DIMTP
 40
0.0
  9
$DIMTM
 40
0.0
  9
$DIMTXT
 40
0.18
  9
$DIMCEN
 40
0.09
  9
$DIMTSZ
 40
0.0
  9
$DIMTOL
 70
     0
  9
$DIMLIM
 70
     0
  9
$DIMTIH
 70
     1
  9
$DIMTOH
 70
     1
  9
$DIMSE1
 70
     0
  9
$DIMSE2
 70
     0
  9
$DIMTAD
 70
     0
  9
$DIMZIN
 70
     0
  9
$DIMBLK
  1

  9
$DIMASO
 70
     1
  9
$DIMSHO
 70
     1
  9
$DIMPOST
  1

  9
$DIMAPOST
  1

  9
$DIMALT
 70
     0
  9
$DIMALTD
 70
     2
  9
$DIMALTF
 40
25.4
  9
$DIMLFAC
 40
1.0
  9
$DIMTOFL
 70
     0
  9
$DIMTVP
 40
0.0
  9
$DIMTIX
 70
     0
  9
$DIMSOXD
 70
     0
  9
$DIMSAH
 70
     0
  9
$DIMBLK1
  1

  9
$DIMBLK2
  1

  9
$DIMSTYLE
  2
Standard
  9
$DIMCLRD
 70
     0
  9
$DIMCLRE
 70
     0
  9
$DIMCLRT
 70
     0
  9
$DIMTFAC
 40
1.0
  9
$DIMGAP
 40
0.09
  9
$DIMJUST
 70
     0
  9
$DIMSD1
 70
     0
  9
$DIMSD2
 70
     0
  9
$DIMTOLJ
 70
     1
  9
$DIMTZIN
 70
     0
  9
$DIMALTZ
 70
     0
  9
$DIMALTTZ
 70
     0
  9
$DIMUPT
 70
     0
  9
$DIMDEC
 70
     4
  9
$DIMTDEC
 70
     4
  9
$DIMALTU
 70
     2
  9
$DIMALTTD
 70
     2
  9
$DIMTXSTY
  7
Standard
  9
$DIMAUNIT
 70
     0
  9
$DIMADEC
 70
     0
  9
$DIMALTRND
 40
0.0
  9
$DIMAZIN
 70
     0
  9
$DIMDSEP
 70
    46
  9
$DIMATFIT
 70
     3
  9
$DIMFRAC
 70
     0
  9
$DIMLDRBLK
  1

  9
$DIMLUNIT
 70
     2
  9
$DIMLWD
 70
    -2
  9
$DIMLWE
 70
    -2
  9
$DIMTMOVE
 70
     0
  9
$DIMFXL
 40
1.0
  9
$DIMFXLON
 70
     0
  9
$DIMJOGANG
 40
0.7853981633974483
  9
$DIMTFILL
 70
     0
  9
$DIMTFILLCLR
 70
     0
  9
$DIMARCSYM
 70
     0
  9
$DIMLTYPE
  6

  9
$DIMLTEX1
  6

  9
$DIMLTEX2
  6

  9
$DIMTXTDIRECTION
 70
     0
  9
$LUNITS
 70
     2
  9
$LUPREC
 70
     4
  9
$SKETCHINC
 40
0.1
  9
$FILLETRAD
 40
0.5
  9
$AUNITS
 70
     0
  9
$AUPREC
 70
     0
  9
$MENU
  1
.
  9
$ELEVATION
 40
0.0
  9
$PELEVATION
 40
0.0
  9
$THICKNESS
 40
0.0
  9
$LIMCHECK
 70
     0
  9
$CHAMFERA
 40
0.5
  9
$CHAMFERB
 40
0.5
  9
$CHAMFERC
 40
1.0
  9
$CHAMFERD
 40
0.0
  9
$SKPOLY
 70
     0
  9
$TDCREATE
 40
2459562.999366181
  9
$TDUCREATE
 40
2459563.332699514
  9
$TDUPDATE
 40
2459562.99936625
  9
$TDUUPDATE
 40
2459563.332699583
  9
$TDINDWG
 40
0.0000000116
  9
$TDUSRTIMER
 40
0.0000000116
  9
$USRTIMER
 70
     1
  9
$ANGBASE
 50
0.0
  9
$ANGDIR
 70
     0
  9
$PDMODE
 70
     0
  9
$PDSIZE
 40
0.0
  9
$PLINEWID
 40
0.0
  9
$SPLFRAME
 70
     0
  9
$SPLINETYPE
 70
     6
  9
$SPLINESEGS
 70
     8
  9
$HANDSEED
  5
8D
  9
$SURFTAB1
 70
     6
  9
$SURFTAB2
 70
     6
  9
$SURFTYPE
 70
     6
  9
$SURFU
 70
     6
  9
$SURFV
 70
     6
  9
$UCSBASE
  2

  9
$UCSNAME
  2

  9
$UCSORG
 10
0.0
 20
0.0
 30
0.0
  9
$UCSXDIR
 10
1.0
 20
0.0
 30
0.0
  9
$UCSYDIR
 10
0.0
 20
1.0
 30
0.0
  9
$UCSORTHOREF
  2

  9
$UCSORTHOVIEW
 70
     0
  9
$UCSORGTOP
 10
0.0
 20
0.0
 30
0.0
  9
$UCSORGBOTTOM
 10
0.0
 20
0.0
 30
0.0
  9
$UCSORGLEFT
 10
0.0
 20
0.0
 30
0.0
  9
$UCSORGRIGHT
 10
0.0
 20
0.0
 30
0.0
  9
$UCSORGFRONT
 10
0.0
 20
0.0
 30
0.0
  9
$UCSORGBACK
 10
0.0
 20
0.0
 30
0.0
  9
$PUCSBASE
  2

  9
$PUCSNAME
  2

  9
$PUCSORG
 10
0.0
 20
0.0
 30
0.0
  9
$PUCSXDIR
 10
1.0
 20
0.0
 30
0.0
  9
$PUCSYDIR
 10
0.0
 20
1.0
 30
0.0
  9
$PUCSORTHOREF
  2

  9
$PUCSORTHOVIEW
 70
     0
  9
$PUCSORGTOP
 10
0.0
 20
0.0
 30
0.0
  9
$PUCSORGBOTTOM
 10
0.0
 20
0.0
 30
0.0
  9
$PUCSORGLEFT
 10
0.0
 20
0.0
 30
0.0
  9
$PUCSORGRIGHT
 10
0.0
 20
0.0
 30
0.0
  9
$PUCSORGFRONT
 10
0.0
 20
0.0
 30
0.0
  9
$PUCSORGBACK
 10
0.0
 20
0.0
 30
0.0
  9
$USERI1
 70
     0
  9
$USERI2
 70
     0
  9
$USERI3
 70
     0
  9
$USERI4
 70
     0
  9
$USERI5
 70
     0
  9
$USERR1
 40
0.0
  9
$USERR2
 40
0.0
  9
$USERR3
 40
0.0
  9
$USERR4
 40
0.0
  9
$USERR5
 40
0.0
  9
$WORLDVIEW
 70
     1
  9
$SHADEDGE
 70
     3
  9
$SHADEDIF
 70
    70
  9
$TILEMODE
 70
     1
  9
$MAXACTVP
 70
    64
  9
$PINSBASE
 10
0.0
 20
0.0
 30
0.0
  9
$PLIMCHECK
 70
     0
  9
$PEXTMIN
 10
1.000000000000000E+20
 20
1.000000000000000E+20
 30
1.000000000000000E+20
  9
$PEXTMAX
 10
-1.000000000000000E+20
 20
-1.000000000000000E+20
 30
-1.000000000000000E+20
  9
$PLIMMIN
 10
0.0
 20
0.0
  9
$PLIMMAX
 10
12.0
 20
9.0
  9
$UNITMODE
 70
     0
  9
$VISRETAIN
 70
     1
  9
$PLINEGEN
 70
     0
  9
$PSLTSCALE
 70
     1
  9
$TREEDEPTH
 70
  3020
  9
$CMLSTYLE
  2
Standard
  9
$CMLJUST
 70
     0
  9
$CMLSCALE
 40
1.0
  9
$PROXYGRAPHICS
 70
     1
  9
$MEASUREMENT
 70
     0
  9
$CELWEIGHT
370
    -1
  9
$ENDCAPS
280
     0
  9
$JOINSTYLE
280
     0
  9
$LWDISPLAY
290
     1
  9
$INSUNITS
 70
     1
  9
$HYPERLINKBASE
  1

  9
$STYLESHEET
  1

  9
$XEDIT
290
     1
  9
$CEPSNTYPE
380
     0
  9
$PSTYLEMODE
290
     1
  9
$FINGERPRINTGUID
  2
{11424DFD-CD42-4E15-A843-AB4BE2A0CC58}
  9
$VERSIONGUID
  2
{FAEB1C32-E019-11D5-929B-00C0DF256EC4}
  9
$EXTNAMES
290
     1
  9
$PSVPSCALE
 40
0.0
  9
$OLESTARTUP
290
     0
  9
$SORTENTS
280
   127
  9
$INDEXCTL
280
     0
  9
$HIDETEXT
280
     1
  9
$XCLIPFRAME
280
     2
  9
$HALOGAP
280
     0
  9
$OBSCOLOR
 70
   257
  9
$OBSLTYPE
280
     0
  9
$INTERSECTIONDISPLAY
280
     0
  9
$INTERSECTIONCOLOR
 70
   257
  9
$DIMASSOC
280
     2
  9
$PROJECTNAME
  1

  9
$CAMERADISPLAY
290
     0
  9
$LENSLENGTH
 40
50.0
  9
$CAMERAHEIGHT
 40
0.0
  9
$STEPSPERSEC
 40
2.0
  9
$STEPSIZE
 40
6.0
  9
$3DDWFPREC
 40
2.0
  9
$PSOLWIDTH
 40
0.25
  9
$PSOLHEIGHT
 40
4.0
  9
$LOFTANG1
 40
1.570796326794897
  9
$LOFTANG2
 40
1.570796326794897
  9
$LOFTMAG1
 40
0.0
  9
$LOFTMAG2
 40
0.0
  9
$LOFTPARAM
 70
     7
  9
$LOFTNORMALS
280
     1
  9
$LATITUDE
 40
37.795
  9
$LONGITUDE
 40
-122.394
  9
$NORTHDIRECTION
 40
0.0
  9
$TIMEZONE
 70
 -8000
  9
$LIGHTGLYPHDISPLAY
280
     1
  9
$TILEMODELIGHTSYNCH
280
     1
  9
$CMATERIAL
347
3C
  9
$SOLIDHIST
280
     1
  9
$SHOWHIST
280
     1
  9
$DWFFRAME
280
     2
  9
$DGNFRAME
280
     2
  9
$REALWORLDSCALE
290
     1
  9
$INTERFERECOLOR
 62
   256
  9
$CSHADOW
280
     0
  9
$SHADOWPLANELOCATION
 40
0.0
  0
ENDSEC
  0
SECTION
  2
CLASSES
  0
CLASS
  1
ACDBDICTIONARYWDFLT
  2
AcDbDictionaryWithDefault
  3
ObjectDBX Classes
 90
        0
 91
        4
280
     0
281
     0
  0
CLASS
  1
VISUALSTYLE
  2
AcDbVisualStyle
  3
ObjectDBX Classes
 90
     4095
 91
        4
280
     0
281
     0
  0
CLASS
  1
MATERIAL
  2
AcDbMaterial
  3
ObjectDBX Classes
 90
     1153
 91
        4
280
     0
281
     0
  0
CLASS
  1
SUN
  2
AcDbSun
  3
SCENEOE
 90
     1024
 91
        4
280
     0
281
     0
  0
ENDSEC
  0
SECTION
  2
TABLES
  0
TABLE
  2
VPORT
  5
8
330
0
100
AcDbSymbolTable
 70
     1
  0
VPORT
  5
29
330
8
100
AcDbSymbolTableRecord
100
AcDbViewportTableRecord
  2
*Active
 70
     0
 10
0.0
 20
0.0
 11
1.0
 21
1.0
 12
0.0
 22
0.0
 13
0.0
 23
0.0
 14
0.5
 24
0.5
 15
0.5
 25
0.5
 16
0.0
 26
0.0
 36
1.0
 17
540.0
 27
-540.0
 37
0.0
 40
1080.0
 41
1.0
 42
50.0
 43
0.0
 44
0.0
 50
0.0
 51
0.0
 71
     0
 72
   100
 73
     1
 74
     3
 75
     0
 76
     0
 77
     0
 78
     0
281
     0
 65
     1
110
0.0
120
0.0
130
0.0
111
1.0
121
0.0
131
0.0
112
0.0
122
1.0
132
0.0
 79
     0
146
0.0
 60
     3
 61
     5
292
     1
282
     1
141
0.0
142
0.0
 63
   250
361
3F
  0
ENDTAB
  0
TABLE
  2
LTYPE
  5
5
330
0
100
AcDbSymbolTable
 70
     1
  0
LTYPE
  5
14
330
5
100
AcDbSymbolTableRecord
100
AcDbLinetypeTableRecord
  2
ByBlock
 70
     0
  3

 72
    65
 73
     0
 40
0.0
  0
LTYPE
  5
15
330
5
100
AcDbSymbolTableRecord
100
AcDbLinetypeTableRecord
  2
ByLayer
 70
     0
  3

 72
    65
 73
     0
 40
0.0
  0
LTYPE
  5
16
330
5
100
AcDbSymbolTableRecord
100
AcDbLinetypeTableRecord
  2
Continuous
 70
     0
  3
Solid line
 72
    65
 73
     0
 40
0.0
  0
ENDTAB
  0
TABLE
  2
LAYER
  5
2
330
0
100
AcDbSymbolTable
 70
     2
  0
LAYER
  5
10
330
2
100
AcDbSymbolTableRecord
100
AcDbLayerTableRecord
  2
0
 70
     0
 62
     7
  6
Continuous
370
    -3
390
F
347
3E
  0
LAYER
  5
40
330
2
100
AcDbSymbolTableRecord
100
AcDbLayerTableRecord
  2
Layer 1
 70
     0
 62
     7
  6
Continuous
370
    -3
390
F
347
3E
  0
ENDTAB
  0
TABLE
  2
STYLE
  5
3
330
0
100
AcDbSymbolTable
 70
     1
  0
STYLE
  5
11
330
3
100
AcDbSymbolTableRecord
100
AcDbTextStyleTableRecord
  2
Standard
 70
     0
 40
0.0
 41
1.0
 50
0.0
 71
     0
 42
0.2
  3
txt
  4

  0
ENDTAB
  0
TABLE
  2
VIEW
  5
6
330
0
100
AcDbSymbolTable
 70
     0
  0
ENDTAB
  0
TABLE
  2
UCS
  5
7
330
0
100
AcDbSymbolTable
 70
     0
  0
ENDTAB
  0
TABLE
  2
APPID
  5
9
330
0
100
AcDbSymbolTable
 70
     1
  0
APPID
  5
12
330
9
100
AcDbSymbolTableRecord
100
AcDbRegAppTableRecord
  2
ACAD
 70
     0
  0
ENDTAB
  0
TABLE
  2
DIMSTYLE
  5
A
330
0
100
AcDbSymbolTable
 70
     1
100
AcDbDimStyleTable
  0
DIMSTYLE
105
27
330
A
100
AcDbSymbolTableRecord
100
AcDbDimStyleTableRecord
  2
Standard
 70
     0
178
     0
340
11
  0
ENDTAB
  0
TABLE
  2
BLOCK_RECORD
  5
1
330
0
100
AcDbSymbolTable
 70
     7
  0
BLOCK_RECORD
  5
1F
330
1
100
AcDbSymbolTableRecord
100
AcDbBlockTableRecord
  2
*Model_Space
340
22
 70
     0
280
     1
281
     0
  0
BLOCK_RECORD
  5
1B
330
1
100
AcDbSymbolTableRecord
100
AcDbBlockTableRecord
  2
*Paper_Space
340
1E
 70
     0
280
     1
281
     0
  0
BLOCK_RECORD
  5
23
330
1
100
AcDbSymbolTableRecord
100
AcDbBlockTableRecord
  2
*Paper_Space0
340
26
 70
     0
280
     1
281
     0
  0
BLOCK_RECORD
  5
41
330
1
100
AcDbSymbolTableRecord
100
AcDbBlockTableRecord
  2
block 2
340
0
102
{BLKREFS
331
42
102
}
 70
     0
280
     1
281
     0
  0
BLOCK_RECORD
  5
45
330
1
100
AcDbSymbolTableRecord
100
AcDbBlockTableRecord
  2
block 3
340
0
102
{BLKREFS
331
46
102
}
 70
     0
280
     1
281
     0
  0
BLOCK_RECORD
  5
56
330
1
100
AcDbSymbolTableRecord
100
AcDbBlockTableRecord
  2
block 4
340
0
102
{BLKREFS
331
57
102
}
 70
     0
280
     1
281
     0
  0
BLOCK_RECORD
  5
64
330
1
100
AcDbSymbolTableRecord
100
AcDbBlockTableRecord
  2
block 5
340
0
102
{BLKREFS
331
65
102
}
 70
     0
280
     1
281
     0
  0
BLOCK_RECORD
  5
73
330
1
100
AcDbSymbolTableRecord
100
AcDbBlockTableRecord
  2
block 6
340
0
102
{BLKREFS
331
74
102
}
 70
     0
280
     1
281
     0
  0
BLOCK_RECORD
  5
7F
330
1
100
AcDbSymbolTableRecord
100
AcDbBlockTableRecord
  2
block 7
340
0
102
{BLKREFS
331
80
102
}
 70
     0
280
     1
281
     0
  0
ENDTAB
  0
ENDSEC
  0
SECTION
  2
BLOCKS
  0
BLOCK
  5
20
330
1F
100
AcDbEntity
  8
0
100
AcDbBlockBegin
  2
*Model_Space
 70
     0
 10
0.0
 20
0.0
 30
0.0
  3
*Model_Space
  1

  0
ENDBLK
  5
21
330
1F
100
AcDbEntity
  8
0
100
AcDbBlockEnd
  0
BLOCK
  5
1C
330
1B
100
AcDbEntity
 67
     1
  8
0
100
AcDbBlockBegin
  2
*Paper_Space
 70
     0
 10
0.0
 20
0.0
 30
0.0
  3
*Paper_Space
  1

  0
ENDBLK
  5
1D
330
1B
100
AcDbEntity
 67
     1
  8
0
100
AcDbBlockEnd
  0
BLOCK
  5
24
330
23
100
AcDbEntity
  8
0
100
AcDbBlockBegin
  2
*Paper_Space0
 70
     0
 10
0.0
 20
0.0
 30
0.0
  3
*Paper_Space0
  1

  0
ENDBLK
  5
25
330
23
100
AcDbEntity
  8
0
100
AcDbBlockEnd
  0
BLOCK
  5
43
330
41
100
AcDbEntity
  8
0
100
AcDbBlockBegin
  2
block 2
 70
     0
 10
0.0
 20
0.0
 30
0.0
  3
block 2
  1

  0
INSERT
  5
46
330
41
100
AcDbEntity
  8
Layer 1
100
AcDbBlockReference
  2
block 3
 10
0.0
 20
0.0
 30
0.0
  0
INSERT
  5
57
330
41
100
AcDbEntity
  8
Layer 1
100
AcDbBlockReference
  2
block 4
 10
0.0
 20
0.0
 30
0.0
  0
INSERT
  5
65
330
41
100
AcDbEntity
  8
Layer 1
100
AcDbBlockReference
  2
block 5
 10
0.0
 20
0.0
 30
0.0
  0
INSERT
  5
74
330
41
100
AcDbEntity
  8
Layer 1
100
AcDbBlockReference
  2
block 6
 10
0.0
 20
0.0
 30
0.0
  0
INSERT
  5
80
330
41
100
AcDbEntity
  8
Layer 1
100
AcDbBlockReference
  2
block 7
 10
0.0
 20
0.0
 30
0.0
  0
ENDBLK
  5
44
330
41
100
AcDbEntity
  8
0
100
AcDbBlockEnd
  0
BLOCK
  5
47
330
45
100
AcDbEntity
  8
0
100
AcDbBlockBegin
  2
block 3
 70
     0
 10
0.0
 20
0.0
 30
0.0
  3
block 3
  1

  0
SPLINE
  5
49
330
45
100
AcDbEntity
  8
Layer 1
370
     0
100
AcDbSpline
210
0.0
220
0.0
230
1.0
 70
    11
 71
     3
 72
    35
 73
    31
 74
     0
 42
0.0000000001
 43
0.0000000001
 12
1.0
 22
0.0
 32
0.0
 13
1.0
 23
0.0
 33
0.0
 40
0.0
 40
0.0
 40
0.0
 40
0.0
 40
1.0
 40
1.0
 40
1.0
 40
2.0
 40
2.0
 40
2.0
 40
3.0
 40
3.0
 40
3.0
 40
4.0
 40
4.0
 40
4.0
 40
5.0
 40
5.0
 40
5.0
 40
6.0
 40
6.0
 40
6.0
 40
7.0
 40
7.0
 40
7.0
 40
8.0
 40
8.0
 40
8.0
 40
9.0
 40
9.0
 40
9.0
 40
10.0
 40
10.0
 40
10.0
 40
10.0
 10
282.9001776254026
 20
-960.1133704426957
 30
0.0
 10
274.4455267105168
 20
-978.5306375912278
 30
0.0
 10
248.7586947937252
 20
-1006.503932386275
 30
0.0
 10
170.849146405506
 20
-1006.503932386275
 30
0.0
 10
158.7160646258144
 20
-1006.503932386275
 30
0.0
 10
145.3177748308553
 20
-1005.821102729642
 30
0.0
 10
130.5203419566278
 20
-1004.325095898734
 30
0.0
 10
121.2668640528973
 20
-1003.379179509246
 30
0.0
 10
114.16113056828
 20
-996.4037935422693
 30
0.0
 10
112.4893339658756
 20
-987.7099728702469
 30
0.0
 10
111.6187560498875
 20
-985.6280001343457
 30
0.0
 10
111.0088731691812
 20
-983.4073089393041
 30
0.0
 10
110.8701547100391
 20
-981.0311574021234
 30
0.0
 10
104.7330587418382
 20
-879.317043085799
 30
0.0
 10
104.6015153754106
 20
-720.9483966982498
 30
0.0
 10
104.6015153754106
 20
-719.3603095108447
 30
0.0
 10
104.6015153754106
 20
-712.1302077525143
 30
0.0
 10
108.3947477236452
 20
-705.4358462501768
 30
0.0
 10
114.5868527359889
 20
-701.7179523754421
 30
0.0
 10
139.214162628652
 20
-686.9372613842152
 30
0.0
 10
195.187060892029
 20
-673.3655735153297
 30
0.0
 10
230.7372535932573
 20
-727.7754974157997
 30
0.0
 10
264.8954783079334
 20
-780.054418780157
 30
0.0
 10
256.0533723864828
 20
-843.5456183592178
 30
0.0
 10
233.5905487959335
 20
-877.9513837725335
 30
0.0
 10
247.3930354804579
 20
-881.2662766064877
 30
0.0
 10
259.7054945780055
 20
-886.6129165273433
 30
0.0
 10
268.4423658063133
 20
-894.9121071000864
 30
0.0
 10
287.2195834393424
 20
-912.7529751339134
 30
0.0
 10
292.8855149859792
 20
-938.3333765087791
 30
0.0
 10
282.9001776254026
 20
-960.1133704426957
 30
0.0
  0
SPLINE
  5
4A
330
45
100
AcDbEntity
  8
Layer 1
370
     0
100
AcDbSpline
210
0.0
220
0.0
230
1.0
 70
    11
 71
     3
 72
    17
 73
    13
 74
     0
 42
0.0000000001
 43
0.0000000001
 12
1.0
 22
0.0
 32
0.0
 13
1.0
 23
0.0
 33
0.0
 40
0.0
 40
0.0
 40
0.0
 40
0.0
 40
1.0
 40
1.0
 40
1.0
 40
2.0
 40
2.0
 40
2.0
 40
3.0
 40
3.0
 40
3.0
 40
4.0
 40
4.0
 40
4.0
 40
4.0
 10
145.7698056718491
 20
-732.4967084217351
 30
0.0
 10
145.8774320625616
 20
-757.5174525648927
 30
0.0
 10
146.2888040448415
 20
-814.8225263755394
 30
0.0
 10
147.8003569099637
 20
-874.6532328215781
 30
0.0
 10
161.6602443362026
 20
-874.8756606957177
 30
0.0
 10
181.3367402560762
 20
-872.6382276176773
 30
0.0
 10
193.5678816361942
 20
-862.3646906997456
 30
0.0
 10
210.4126076315351
 20
-848.2177995649381
 30
0.0
 10
224.5834157420559
 20
-793.5519640243292
 30
0.0
 10
196.3063753554434
 20
-750.2706089235635
 30
0.0
 10
180.3824529250887
 20
-725.8836646368254
 30
0.0
 10
158.7567234845283
 20
-728.104355831867
 30
0.0
 10
145.7698056718491
 20
-732.4967084217351
 30
0.0
  0
SPLINE
  5
4B
330
45
100
AcDbEntity
  8
Layer 1
370
     0
100
AcDbSpline
210
0.0
220
0.0
230
1.0
 70
    11
 71
     3
 72
    17
 73
    13
 74
     0
 42
0.0000000001
 43
0.0000000001
 12
1.0
 22
0.0
 32
0.0
 13
1.0
 23
0.0
 33
0.0
 40
0.0
 40
0.0
 40
0.0
 40
0.0
 40
1.0
 40
1.0
 40
1.0
 40
2.0
 40
2.0
 40
2.0
 40
3.0
 40
3.0
 40
3.0
 40
4.0
 40
4.0
 40
4.0
 40
4.0
 10
240.12944995613
 20
-924.7294007226792
 30
0.0
 10
228.1374783331503
 20
-913.3365493413348
 30
0.0
 10
184.2306943174644
 20
-912.7278623094135
 30
0.0
 10
149.0775234130888
 20
-916.6275251995758
 30
0.0
 10
149.6610976205102
 20
-933.2175354035626
 30
0.0
 10
150.3427314283563
 20
-949.4452034254846
 30
0.0
 10
151.1487335099173
 20
-964.7030380822034
 30
0.0
 10
211.2927523378094
 20
-968.3802730982243
 30
0.0
 10
239.6367602564223
 20
-955.779614443325
 30
0.0
 10
245.5251196771987
 20
-942.9397860312874
 30
0.0
 10
248.6104095442988
 20
-936.2274867971646
 30
0.0
 10
244.7526013616371
 20
-929.1289284052618
 30
0.0
 10
240.12944995613
 20
-924.7294007226792
 30
0.0
  0
HATCH
  5
4C
330
45
100
AcDbEntity
  8
Layer 1
 62
   154
420
    86949
100
AcDbHatch
 10
0.0
 20
0.0
 30
0.0
210
0.0
220
0.0
230
1.0
  2
SOLID
 70
     1
 71
     0
 91
        3
 92
        1
 93
        1
 72
     4
 94
        3
 73
     0
 74
     1
 95
       35
 96
       31
 40
0.0
 40
0.0
 40
0.0
 40
0.0
 40
1.0
 40
1.0
 40
1.0
 40
2.0
 40
2.0
 40
2.0
 40
3.0
 40
3.0
 40
3.0
 40
4.0
 40
4.0
 40
4.0
 40
5.0
 40
5.0
 40
5.0
 40
6.0
 40
6.0
 40
6.0
 40
7.0
 40
7.0
 40
7.0
 40
8.0
 40
8.0
 40
8.0
 40
9.0
 40
9.0
 40
9.0
 40
10.0
 40
10.0
 40
10.0
 40
10.0
 10
282.9001776254026
 20
-960.1133704426957
 10
274.4455267105168
 20
-978.5306375912278
 10
248.7586947937252
 20
-1006.503932386275
 10
170.849146405506
 20
-1006.503932386275
 10
158.7160646258144
 20
-1006.503932386275
 10
145.3177748308553
 20
-1005.821102729642
 10
130.5203419566278
 20
-1004.325095898734
 10
121.2668640528973
 20
-1003.379179509246
 10
114.16113056828
 20
-996.4037935422693
 10
112.4893339658756
 20
-987.7099728702469
 10
111.6187560498875
 20
-985.6280001343457
 10
111.0088731691812
 20
-983.4073089393041
 10
110.8701547100391
 20
-981.0311574021234
 10
104.7330587418382
 20
-879.317043085799
 10
104.6015153754106
 20
-720.9483966982498
 10
104.6015153754106
 20
-719.3603095108447
 10
104.6015153754106
 20
-712.1302077525143
 10
108.3947477236452
 20
-705.4358462501768
 10
114.5868527359889
 20
-701.7179523754421
 10
139.214162628652
 20
-686.9372613842152
 10
195.187060892029
 20
-673.3655735153297
 10
230.7372535932573
 20
-727.7754974157997
 10
264.8954783079334
 20
-780.054418780157
 10
256.0533723864828
 20
-843.5456183592178
 10
233.5905487959335
 20
-877.9513837725335
 10
247.3930354804579
 20
-881.2662766064877
 10
259.7054945780055
 20
-886.6129165273433
 10
268.4423658063133
 20
-894.9121071000864
 10
287.2195834393424
 20
-912.7529751339134
 10
292.8855149859792
 20
-938.3333765087791
 10
282.9001776254026
 20
-960.1133704426957
 97
        0
 97
        0
 92
        1
 93
        1
 72
     4
 94
        3
 73
     0
 74
     1
 95
       17
 96
       13
 40
0.0
 40
0.0
 40
0.0
 40
0.0
 40
1.0
 40
1.0
 40
1.0
 40
2.0
 40
2.0
 40
2.0
 40
3.0
 40
3.0
 40
3.0
 40
4.0
 40
4.0
 40
4.0
 40
4.0
 10
145.7698056718491
 20
-732.4967084217351
 10
145.8774320625616
 20
-757.5174525648927
 10
146.2888040448415
 20
-814.8225263755394
 10
147.8003569099637
 20
-874.6532328215781
 10
161.6602443362026
 20
-874.8756606957177
 10
181.3367402560762
 20
-872.6382276176773
 10
193.5678816361942
 20
-862.3646906997456
 10
210.4126076315351
 20
-848.2177995649381
 10
224.5834157420559
 20
-793.5519640243292
 10
196.3063753554434
 20
-750.2706089235635
 10
180.3824529250887
 20
-725.8836646368254
 10
158.7567234845283
 20
-728.104355831867
 10
145.7698056718491
 20
-732.4967084217351
 97
        0
 97
        0
 92
        1
 93
        1
 72
     4
 94
        3
 73
     0
 74
     1
 95
       17
 96
       13
 40
0.0
 40
0.0
 40
0.0
 40
0.0
 40
1.0
 40
1.0
 40
1.0
 40
2.0
 40
2.0
 40
2.0
 40
3.0
 40
3.0
 40
3.0
 40
4.0
 40
4.0
 40
4.0
 40
4.0
 10
240.12944995613
 20
-924.7294007226792
 10
228.1374783331503
 20
-913.3365493413348
 10
184.2306943174644
 20
-912.7278623094135
 10
149.0775234130888
 20
-916.6275251995758
 10
149.6610976205102
 20
-933.2175354035626
 10
150.3427314283563
 20
-949.4452034254846
 10
151.1487335099173
 20
-964.7030380822034
 10
211.2927523378094
 20
-968.3802730982243
 10
239.6367602564223
 20
-955.779614443325
 10
245.5251196771987
 20
-942.9397860312874
 10
248.6104095442988
 20
-936.2274867971646
 10
244.7526013616371
 20
-929.1289284052618
 10
240.12944995613
 20
-924.7294007226792
 97
        0
 97
        0
 75
     2
 76
     1
 98
        0
  0
SPLINE
  5
4D
330
45
100
AcDbEntity
  8
Layer 1
370
     0
100
AcDbSpline
210
0.0
220
0.0
230
1.0
 70
    11
 71
     3
 72
    62
 73
    58
 74
     0
 42
0.0000000001
 43
0.0000000001
 12
1.0
 22
0.0
 32
0.0
 13
1.0
 23
0.0
 33
0.0
 40
0.0
 40
0.0
 40
0.0
 40
0.0
 40
1.0
 40
1.0
 40
1.0
 40
2.0
 40
2.0
 40
2.0
 40
3.0
 40
3.0
 40
3.0
 40
4.0
 40
4.0
 40
4.0
 40
5.0
 40
5.0
 40
5.0
 40
6.0
 40
6.0
 40
6.0
 40
7.0
 40
7.0
 40
7.0
 40
8.0
 40
8.0
 40
8.0
 40
9.0
 40
9.0
 40
9.0
 40
10.0
 40
10.0
 40
10.0
 40
11.0
 40
11.0
 40
11.0
 40
12.0
 40
12.0
 40
12.0
 40
13.0
 40
13.0
 40
13.0
 40
14.0
 40
14.0
 40
14.0
 40
15.0
 40
15.0
 40
15.0
 40
16.0
 40
16.0
 40
16.0
 40
17.0
 40
17.0
 40
17.0
 40
18.0
 40
18.0
 40
18.0
 40
19.0
 40
19.0
 40
19.0
 40
19.0
 10
450.8523561815346
 20
-977.9004252811665
 30
0.0
 10
443.2850250656375
 20
-988.3138765070235
 30
0.0
 10
417.5886263585598
 20
-1007.314717862979
 30
0.0
 10
389.0652411220926
 20
-1007.314717862979
 30
0.0
 10
388.5462427491002
 20
-1007.314717862979
 30
0.0
 10
388.036811166392
 20
-1007.306346921478
 30
0.0
 10
387.5178127933996
 20
-1007.297975979978
 30
0.0
 10
372.0961468530386
 20
-1006.920087763698
 30
0.0
 10
350.0183865714844
 20
-1000.841588385994
 30
0.0
 10
332.4011422605818
 20
-973.9780412640775
 30
0.0
 10
298.8241000557555
 20
-922.7670128653481
 30
0.0
 10
320.638773604458
 20
-750.1928787524939
 30
0.0
 10
325.3504178201074
 20
-716.1159717552455
 30
0.0
 10
326.6993352503741
 20
-706.3602373615213
 30
0.0
 10
334.7856647392637
 20
-698.9256454608385
 30
0.0
 10
344.6322836406998
 20
-698.3982761463449
 30
0.0
 10
344.6322836406998
 20
-698.3982761463449
 30
0.0
 10
417.6149350318447
 20
-694.5332928709686
 30
0.0
 10
417.6149350318447
 20
-694.5332928709686
 30
0.0
 10
429.0711663988313
 20
-693.8743801900491
 30
0.0
 10
438.6379566844153
 20
-702.6423434867866
 30
0.0
 10
439.2382727748354
 20
-713.9777941264183
 30
0.0
 10
439.8385888652556
 20
-725.3204198587628
 30
0.0
 10
431.1375931005186
 20
-735.0008157789871
 30
0.0
 10
419.7937715193875
 20
-735.6011318694073
 30
0.0
 10
419.7937715193875
 20
-735.6011318694073
 30
0.0
 10
363.9189328564371
 20
-738.5704244042954
 30
0.0
 10
363.9189328564371
 20
-738.5704244042954
 30
0.0
 10
359.0183445326475
 20
-778.9650005363856
 30
0.0
 10
355.3662223411247
 20
-827.461452191581
 30
0.0
 10
355.349480458126
 20
-868.5292911900178
 30
0.0
 10
355.349480458126
 20
-868.5292911900178
 30
0.0
 10
406.338080982714
 20
-866.6793131185441
 30
0.0
 10
406.338080982714
 20
-866.6793131185441
 30
0.0
 10
417.9593394821259
 20
-866.39948450269
 30
0.0
 10
427.2223841761424
 20
-875.1423349749275
 30
0.0
 10
427.6337561584223
 20
-886.4849607072738
 30
0.0
 10
428.0427364431307
 20
-897.8359573811176
 30
0.0
 10
419.1695384532522
 20
-907.3692639007022
 30
0.0
 10
407.8257168721229
 20
-907.7806358829821
 30
0.0
 10
407.8257168721229
 20
-907.7806358829821
 30
0.0
 10
356.8945170892475
 20
-909.6234388617431
 30
0.0
 10
356.8945170892475
 20
-909.6234388617431
 30
0.0
 10
358.580663877081
 20
-928.7713696183382
 30
0.0
 10
361.7233544858955
 20
-943.6919749174904
 30
0.0
 10
366.7985367323981
 20
-951.4243331658126
 30
0.0
 10
375.9037293867023
 20
-965.3081375677666
 30
0.0
 10
384.5736330830114
 20
-965.9251955411873
 30
0.0
 10
387.4269282856876
 20
-966.1308815323264
 30
0.0
 10
400.9663282373585
 20
-967.1007148975277
 30
0.0
 10
415.3021634803063
 20
-956.2519747136757
 30
0.0
 10
417.9425975991271
 20
-953.2575693542876
 30
0.0
 10
424.62978400875
 20
-944.0710589825576
 30
0.0
 10
437.3057811371473
 20
-942.2689148625104
 30
0.0
 10
446.4922915088791
 20
-948.9477303306339
 30
0.0
 10
455.6716267878965
 20
-955.6265457987556
 30
0.0
 10
457.5323674984429
 20
-968.7139149094346
 30
0.0
 10
450.8523561815346
 20
-977.9004252811665
 30
0.0
  0
HATCH
  5
4E
330
45
100
AcDbEntity
  8
Layer 1
 62
   154
420
    86949
100
AcDbHatch
 10
0.0
 20
0.0
 30
0.0
210
0.0
220
0.0
230
1.0
  2
SOLID
 70
     1
 71
     0
 91
        1
 92
        1
 93
        1
 72
     4
 94
        3
 73
     0
 74
     1
 95
       62
 96
       58
 40
0.0
 40
0.0
 40
0.0
 40
0.0
 40
1.0
 40
1.0
 40
1.0
 40
2.0
 40
2.0
 40
2.0
 40
3.0
 40
3.0
 40
3.0
 40
4.0
 40
4.0
 40
4.0
 40
5.0
 40
5.0
 40
5.0
 40
6.0
 40
6.0
 40
6.0
 40
7.0
 40
7.0
 40
7.0
 40
8.0
 40
8.0
 40
8.0
 40
9.0
 40
9.0
 40
9.0
 40
10.0
 40
10.0
 40
10.0
 40
11.0
 40
11.0
 40
11.0
 40
12.0
 40
12.0
 40
12.0
 40
13.0
 40
13.0
 40
13.0
 40
14.0
 40
14.0
 40
14.0
 40
15.0
 40
15.0
 40
15.0
 40
16.0
 40
16.0
 40
16.0
 40
17.0
 40
17.0
 40
17.0
 40
18.0
 40
18.0
 40
18.0
 40
19.0
 40
19.0
 40
19.0
 40
19.0
 10
450.8523561815346
 20
-977.9004252811665
 10
443.2850250656375
 20
-988.3138765070235
 10
417.5886263585598
 20
-1007.314717862979
 10
389.0652411220926
 20
-1007.314717862979
 10
388.5462427491002
 20
-1007.314717862979
 10
388.036811166392
 20
-1007.306346921478
 10
387.5178127933996
 20
-1007.297975979978
 10
372.0961468530386
 20
-1006.920087763698
 10
350.0183865714844
 20
-1000.841588385994
 10
332.4011422605818
 20
-973.9780412640775
 10
298.8241000557555
 20
-922.7670128653481
 10
320.638773604458
 20
-750.1928787524939
 10
325.3504178201074
 20
-716.1159717552455
 10
326.6993352503741
 20
-706.3602373615213
 10
334.7856647392637
 20
-698.9256454608385
 10
344.6322836406998
 20
-698.3982761463449
 10
344.6322836406998
 20
-698.3982761463449
 10
417.6149350318447
 20
-694.5332928709686
 10
417.6149350318447
 20
-694.5332928709686
 10
429.0711663988313
 20
-693.8743801900491
 10
438.6379566844153
 20
-702.6423434867866
 10
439.2382727748354
 20
-713.9777941264183
 10
439.8385888652556
 20
-725.3204198587628
 10
431.1375931005186
 20
-735.0008157789871
 10
419.7937715193875
 20
-735.6011318694073
 10
419.7937715193875
 20
-735.6011318694073
 10
363.9189328564371
 20
-738.5704244042954
 10
363.9189328564371
 20
-738.5704244042954
 10
359.0183445326475
 20
-778.9650005363856
 10
355.3662223411247
 20
-827.461452191581
 10
355.349480458126
 20
-868.5292911900178
 10
355.349480458126
 20
-868.5292911900178
 10
406.338080982714
 20
-866.6793131185441
 10
406.338080982714
 20
-866.6793131185441
 10
417.9593394821259
 20
-866.39948450269
 10
427.2223841761424
 20
-875.1423349749275
 10
427.6337561584223
 20
-886.4849607072738
 10
428.0427364431307
 20
-897.8359573811176
 10
419.1695384532522
 20
-907.3692639007022
 10
407.8257168721229
 20
-907.7806358829821
 10
407.8257168721229
 20
-907.7806358829821
 10
356.8945170892475
 20
-909.6234388617431
 10
356.8945170892475
 20
-909.6234388617431
 10
358.580663877081
 20
-928.7713696183382
 10
361.7233544858955
 20
-943.6919749174904
 10
366.7985367323981
 20
-951.4243331658126
 10
375.9037293867023
 20
-965.3081375677666
 10
384.5736330830114
 20
-965.9251955411873
 10
387.4269282856876
 20
-966.1308815323264
 10
400.9663282373585
 20
-967.1007148975277
 10
415.3021634803063
 20
-956.2519747136757
 10
417.9425975991271
 20
-953.2575693542876
 10
424.62978400875
 20
-944.0710589825576
 10
437.3057811371473
 20
-942.2689148625104
 10
446.4922915088791
 20
-948.9477303306339
 10
455.6716267878965
 20
-955.6265457987556
 10
457.5323674984429
 20
-968.7139149094346
 10
450.8523561815346
 20
-977.9004252811665
 97
        0
 97
        0
 75
     2
 76
     1
 98
        0
  0
SPLINE
  5
4F
330
45
100
AcDbEntity
  8
Layer 1
370
     0
100
AcDbSpline
210
0.0
220
0.0
230
1.0
 70
    11
 71
     3
 72
    41
 73
    37
 74
     0
 42
0.0000000001
 43
0.0000000001
 12
1.0
 22
0.0
 32
0.0
 13
1.0
 23
0.0
 33
0.0
 40
0.0
 40
0.0
 40
0.0
 40
0.0
 40
1.0
 40
1.0
 40
1.0
 40
2.0
 40
2.0
 40
2.0
 40
3.0
 40
3.0
 40
3.0
 40
4.0
 40
4.0
 40
4.0
 40
5.0
 40
5.0
 40
5.0
 40
6.0
 40
6.0
 40
6.0
 40
7.0
 40
7.0
 40
7.0
 40
8.0
 40
8.0
 40
8.0
 40
9.0
 40
9.0
 40
9.0
 40
10.0
 40
10.0
 40
10.0
 40
11.0
 40
11.0
 40
11.0
 40
12.0
 40
12.0
 40
12.0
 40
12.0
 10
624.4345908207306
 20
-982.4948763158172
 30
0.0
 10
623.4539948164584
 20
-993.8123892236636
 30
0.0
 10
613.5117080121654
 20
-1002.194093362619
 30
0.0
 10
602.1750615237488
 20
-1001.207518114419
 30
0.0
 10
590.8671154061885
 20
-1000.228117958932
 30
0.0
 10
582.4842154184462
 20
-990.259522481354
 30
0.0
 10
583.4648114227184
 20
-978.9491846662222
 30
0.0
 10
583.5222121644329
 20
-978.3656104588026
 30
0.0
 10
585.4618788948337
 20
-955.2450700361187
 30
0.0
 10
586.6553359829613
 20
-923.4378840341251
 30
0.0
 10
586.6553359829613
 20
-923.4378840341251
 30
0.0
 10
526.1334289387905
 20
-923.7583715086912
 30
0.0
 10
526.1334289387905
 20
-923.7583715086912
 30
0.0
 10
528.6829785498976
 20
-956.7087889498125
 30
0.0
 10
531.6941257922863
 20
-980.882872152697
 30
0.0
 10
531.7682684169995
 20
-981.4664463601166
 30
0.0
 10
533.1913284719794
 20
-992.7265585262485
 30
0.0
 10
525.2126253738024
 20
-1003.016837327179
 30
0.0
 10
513.9429464173863
 20
-1004.439897382161
 30
0.0
 10
513.0628017111121
 20
-1004.554698865588
 30
0.0
 10
512.1922237951239
 20
-1004.603728665801
 30
0.0
 10
511.3359960645648
 20
-1004.603728665801
 30
0.0
 10
501.1282308298469
 20
-1004.603728665801
 30
0.0
 10
492.2789498156817
 20
-997.0124805741907
 30
0.0
 10
490.9635161514143
 20
-986.6157712313325
 30
0.0
 10
490.1718642552823
 20
-980.4224703702021
 30
0.0
 10
471.9543038539596
 20
-833.9800239224187
 30
0.0
 10
488.2226307345936
 20
-760.3970564408537
 30
0.0
 10
498.0764247287461
 20
-715.7990718270357
 30
0.0
 10
521.6011620409954
 20
-688.4918648056228
 30
0.0
 10
551.1458021404469
 20
-687.3558084592096
 30
0.0
 10
579.4180591319164
 20
-686.3859750940082
 30
0.0
 10
603.4354861438751
 20
-710.0171429481852
 30
0.0
 10
615.812521075848
 20
-750.8470080382704
 30
0.0
 10
637.8735394744035
 20
-823.615602496775
 30
0.0
 10
624.9942480524369
 20
-976.0456638145479
 30
0.0
 10
624.4345908207306
 20
-982.4948763158172
 30
0.0
  0
SPLINE
  5
50
330
45
100
AcDbEntity
  8
Layer 1
370
     0
100
AcDbSpline
210
0.0
220
0.0
230
1.0
 70
    11
 71
     3
 72
    20
 73
    16
 74
     0
 42
0.0000000001
 43
0.0000000001
 12
1.0
 22
0.0
 32
0.0
 13
1.0
 23
0.0
 33
0.0
 40
0.0
 40
0.0
 40
0.0
 40
0.0
 40
1.0
 40
1.0
 40
1.0
 40
2.0
 40
2.0
 40
2.0
 40
3.0
 40
3.0
 40
3.0
 40
4.0
 40
4.0
 40
4.0
 40
5.0
 40
5.0
 40
5.0
 40
5.0
 10
587.5354806892337
 20
-882.3030775036877
 30
0.0
 10
587.7315998900885
 20
-839.5969256688422
 30
0.0
 10
585.454703802121
 20
-792.4589582342014
 30
0.0
 10
576.4547458409579
 20
-762.7732079780362
 30
0.0
 10
568.7654381489192
 20
-737.3984925943114
 30
0.0
 10
557.998015682495
 20
-728.1617565735814
 30
0.0
 10
552.7267142351393
 20
-728.4583270724343
 30
0.0
 10
546.7546453993637
 20
-728.6879300392884
 30
0.0
 10
534.8607333768141
 20
-739.9731550299184
 30
0.0
 10
528.3720578656175
 20
-769.2798212210182
 30
0.0
 10
521.9383913985621
 20
-798.3975433039777
 30
0.0
 10
521.7327054074212
 20
-842.3115024123763
 30
0.0
 10
523.5671374446829
 20
-882.6486778027538
 30
0.0
 10
523.5671374446829
 20
-882.6486778027538
 30
0.0
 10
587.5354806892337
 20
-882.3030775036877
 30
0.0
 10
587.5354806892337
 20
-882.3030775036877
 30
0.0
  0
HATCH
  5
51
330
45
100
AcDbEntity
  8
Layer 1
 62
   154
420
    86949
100
AcDbHatch
 10
0.0
 20
0.0
 30
0.0
210
0.0
220
0.0
230
1.0
  2
SOLID
 70
     1
 71
     0
 91
        2
 92
        1
 93
        1
 72
     4
 94
        3
 73
     0
 74
     1
 95
       41
 96
       37
 40
0.0
 40
0.0
 40
0.0
 40
0.0
 40
1.0
 40
1.0
 40
1.0
 40
2.0
 40
2.0
 40
2.0
 40
3.0
 40
3.0
 40
3.0
 40
4.0
 40
4.0
 40
4.0
 40
5.0
 40
5.0
 40
5.0
 40
6.0
 40
6.0
 40
6.0
 40
7.0
 40
7.0
 40
7.0
 40
8.0
 40
8.0
 40
8.0
 40
9.0
 40
9.0
 40
9.0
 40
10.0
 40
10.0
 40
10.0
 40
11.0
 40
11.0
 40
11.0
 40
12.0
 40
12.0
 40
12.0
 40
12.0
 10
624.4345908207306
 20
-982.4948763158172
 10
623.4539948164584
 20
-993.8123892236636
 10
613.5117080121654
 20
-1002.194093362619
 10
602.1750615237488
 20
-1001.207518114419
 10
590.8671154061885
 20
-1000.228117958932
 10
582.4842154184462
 20
-990.259522481354
 10
583.4648114227184
 20
-978.9491846662222
 10
583.5222121644329
 20
-978.3656104588026
 10
585.4618788948337
 20
-955.2450700361187
 10
586.6553359829613
 20
-923.4378840341251
 10
586.6553359829613
 20
-923.4378840341251
 10
526.1334289387905
 20
-923.7583715086912
 10
526.1334289387905
 20
-923.7583715086912
 10
528.6829785498976
 20
-956.7087889498125
 10
531.6941257922863
 20
-980.882872152697
 10
531.7682684169995
 20
-981.4664463601166
 10
533.1913284719794
 20
-992.7265585262485
 10
525.2126253738024
 20
-1003.016837327179
 10
513.9429464173863
 20
-1004.439897382161
 10
513.0628017111121
 20
-1004.554698865588
 10
512.1922237951239
 20
-1004.603728665801
 10
511.3359960645648
 20
-1004.603728665801
 10
501.1282308298469
 20
-1004.603728665801
 10
492.2789498156817
 20
-997.0124805741907
 10
490.9635161514143
 20
-986.6157712313325
 10
490.1718642552823
 20
-980.4224703702021
 10
471.9543038539596
 20
-833.9800239224187
 10
488.2226307345936
 20
-760.3970564408537
 10
498.0764247287461
 20
-715.7990718270357
 10
521.6011620409954
 20
-688.4918648056228
 10
551.1458021404469
 20
-687.3558084592096
 10
579.4180591319164
 20
-686.3859750940082
 10
603.4354861438751
 20
-710.0171429481852
 10
615.812521075848
 20
-750.8470080382704
 10
637.8735394744035
 20
-823.615602496775
 10
624.9942480524369
 20
-976.0456638145479
 10
624.4345908207306
 20
-982.4948763158172
 97
        0
 97
        0
 92
        1
 93
        1
 72
     4
 94
        3
 73
     0
 74
     1
 95
       20
 96
       16
 40
0.0
 40
0.0
 40
0.0
 40
0.0
 40
1.0
 40
1.0
 40
1.0
 40
2.0
 40
2.0
 40
2.0
 40
3.0
 40
3.0
 40
3.0
 40
4.0
 40
4.0
 40
4.0
 40
5.0
 40
5.0
 40
5.0
 40
5.0
 10
587.5354806892337
 20
-882.3030775036877
 10
587.7315998900885
 20
-839.5969256688422
 10
585.454703802121
 20
-792.4589582342014
 10
576.4547458409579
 20
-762.7732079780362
 10
568.7654381489192
 20
-737.3984925943114
 10
557.998015682495
 20
-728.1617565735814
 10
552.7267142351393
 20
-728.4583270724343
 10
546.7546453993637
 20
-728.6879300392884
 10
534.8607333768141
 20
-739.9731550299184
 10
528.3720578656175
 20
-769.2798212210182
 10
521.9383913985621
 20
-798.3975433039777
 10
521.7327054074212
 20
-842.3115024123763
 10
523.5671374446829
 20
-882.6486778027538
 10
523.5671374446829
 20
-882.6486778027538
 10
587.5354806892337
 20
-882.3030775036877
 10
587.5354806892337
 20
-882.3030775036877
 97
        0
 97
        0
 75
     2
 76
     1
 98
        0
  0
SPLINE
  5
52
330
45
100
AcDbEntity
  8
Layer 1
370
     0
100
AcDbSpline
210
0.0
220
0.0
230
1.0
 70
    11
 71
     3
 72
    62
 73
    58
 74
     0
 42
0.0000000001
 43
0.0000000001
 12
1.0
 22
0.0
 32
0.0
 13
1.0
 23
0.0
 33
0.0
 40
0.0
 40
0.0
 40
0.0
 40
0.0
 40
1.0
 40
1.0
 40
1.0
 40
2.0
 40
2.0
 40
2.0
 40
3.0
 40
3.0
 40
3.0
 40
4.0
 40
4.0
 40
4.0
 40
5.0
 40
5.0
 40
5.0
 40
6.0
 40
6.0
 40
6.0
 40
7.0
 40
7.0
 40
7.0
 40
8.0
 40
8.0
 40
8.0
 40
9.0
 40
9.0
 40
9.0
 40
10.0
 40
10.0
 40
10.0
 40
11.0
 40
11.0
 40
11.0
 40
12.0
 40
12.0
 40
12.0
 40
13.0
 40
13.0
 40
13.0
 40
14.0
 40
14.0
 40
14.0
 40
15.0
 40
15.0
 40
15.0
 40
16.0
 40
16.0
 40
16.0
 40
17.0
 40
17.0
 40
17.0
 40
18.0
 40
18.0
 40
18.0
 40
19.0
 40
19.0
 40
19.0
 40
19.0
 10
815.7416961615436
 20
-982.8584143466705
 30
0.0
 10
815.5240516825452
 20
-994.0778676540885
 30
0.0
 10
806.3590665889569
 20
-1003.014445629608
 30
0.0
 10
795.1874472329673
 20
-1003.014445629608
 30
0.0
 10
795.0487287738251
 20
-1003.014445629608
 30
0.0
 10
794.9171854073993
 20
-1003.014445629608
 30
0.0
 10
794.7760752506856
 20
-1003.014445629608
 30
0.0
 10
783.4179034841272
 20
-1002.796801150611
 30
0.0
 10
774.3964202448224
 20
-993.409388182883
 30
0.0
 10
774.6164564213905
 20
-982.0583915090374
 30
0.0
 10
774.6427650946771
 20
-980.5719514684151
 30
0.0
 10
777.4314844629243
 20
-832.8355966345061
 30
0.0
 10
768.9672667577543
 20
-779.8343826035889
 30
0.0
 10
765.8748017979397
 20
-760.4688073679954
 30
0.0
 10
758.1328767593313
 20
-746.8755942209682
 30
0.0
 10
747.7313840213301
 20
-742.5382506752412
 30
0.0
 10
739.3221753603011
 20
-739.0356095819316
 30
0.0
 10
728.8034894413031
 20
-741.3531645286148
 30
0.0
 10
718.095859414163
 20
-749.0532348597244
 30
0.0
 10
699.5386779577038
 20
-762.3977114593272
 30
0.0
 10
696.6184152230289
 20
-794.0051907141096
 30
0.0
 10
697.0560958785936
 20
-804.0311869334
 30
0.0
 10
697.0847962494499
 20
-804.8132720392477
 30
0.0
 10
696.9723864635944
 20
-805.5606775303077
 30
0.0
 10
696.9197691170248
 20
-806.3260207531548
 30
0.0
 10
697.6851123398719
 20
-860.2671719296322
 30
0.0
 10
699.2588493418498
 20
-929.1970917860453
 30
0.0
 10
702.473290877806
 20
-982.460196701033
 30
0.0
 10
703.1549246856539
 20
-993.7980390382345
 30
0.0
 10
694.5185047553441
 20
-1003.544206641673
 30
0.0
 10
683.1866416620687
 20
-1004.225840449521
 30
0.0
 10
682.7657028895046
 20
-1004.252149122805
 30
0.0
 10
682.3471558145102
 20
-1004.256932517948
 30
0.0
 10
681.9262170419443
 20
-1004.256932517948
 30
0.0
 10
671.1372692973764
 20
-1004.256932517948
 30
0.0
 10
662.0823022920722
 20
-995.844136310563
 30
0.0
 10
661.4198020647964
 20
-984.9308202922839
 30
0.0
 10
655.1942132864515
 20
-881.7613580037669
 30
0.0
 10
655.0626699200257
 20
-721.1134238306768
 30
0.0
 10
655.0626699200257
 20
-719.5002238187699
 30
0.0
 10
655.0554948273111
 20
-708.1408562034267
 30
0.0
 10
664.2587470820417
 20
-698.9292330071949
 30
0.0
 10
675.6169188486019
 20
-698.9292330071949
 30
0.0
 10
675.6264856388862
 20
-698.9292330071949
 30
0.0
 10
675.6264856388862
 20
-698.9292330071949
 30
0.0
 10
675.6264856388862
 20
-698.9292330071949
 30
0.0
 10
685.3248192908977
 20
-698.9292330071949
 30
0.0
 10
693.4087570822157
 20
-705.6666450658176
 30
0.0
 10
695.5732433843277
 20
-714.7036743393364
 30
0.0
 10
717.6007780168839
 20
-699.4709525071157
 30
0.0
 10
742.2735301634038
 20
-695.7195748663817
 30
0.0
 10
763.5357215731146
 20
-704.5772268220462
 30
0.0
 10
787.7540511810676
 20
-714.6642113294074
 30
0.0
 10
804.0989123839881
 20
-739.0846393821466
 30
0.0
 10
809.5687247297701
 20
-773.3504904875335
 30
0.0
 10
818.5973830617895
 20
-829.9583844561166
 30
0.0
 10
815.8349723668271
 20
-976.645979904968
 30
0.0
 10
815.7416961615436
 20
-982.8584143466705
 30
0.0
  0
HATCH
  5
53
330
45
100
AcDbEntity
  8
Layer 1
 62
   154
420
    86949
100
AcDbHatch
 10
0.0
 20
0.0
 30
0.0
210
0.0
220
0.0
230
1.0
  2
SOLID
 70
     1
 71
     0
 91
        1
 92
        1
 93
        1
 72
     4
 94
        3
 73
     0
 74
     1
 95
       62
 96
       58
 40
0.0
 40
0.0
 40
0.0
 40
0.0
 40
1.0
 40
1.0
 40
1.0
 40
2.0
 40
2.0
 40
2.0
 40
3.0
 40
3.0
 40
3.0
 40
4.0
 40
4.0
 40
4.0
 40
5.0
 40
5.0
 40
5.0
 40
6.0
 40
6.0
 40
6.0
 40
7.0
 40
7.0
 40
7.0
 40
8.0
 40
8.0
 40
8.0
 40
9.0
 40
9.0
 40
9.0
 40
10.0
 40
10.0
 40
10.0
 40
11.0
 40
11.0
 40
11.0
 40
12.0
 40
12.0
 40
12.0
 40
13.0
 40
13.0
 40
13.0
 40
14.0
 40
14.0
 40
14.0
 40
15.0
 40
15.0
 40
15.0
 40
16.0
 40
16.0
 40
16.0
 40
17.0
 40
17.0
 40
17.0
 40
18.0
 40
18.0
 40
18.0
 40
19.0
 40
19.0
 40
19.0
 40
19.0
 10
815.7416961615436
 20
-982.8584143466705
 10
815.5240516825452
 20
-994.0778676540885
 10
806.3590665889569
 20
-1003.014445629608
 10
795.1874472329673
 20
-1003.014445629608
 10
795.0487287738251
 20
-1003.014445629608
 10
794.9171854073993
 20
-1003.014445629608
 10
794.7760752506856
 20
-1003.014445629608
 10
783.4179034841272
 20
-1002.796801150611
 10
774.3964202448224
 20
-993.409388182883
 10
774.6164564213905
 20
-982.0583915090374
 10
774.6427650946771
 20
-980.5719514684151
 10
777.4314844629243
 20
-832.8355966345061
 10
768.9672667577543
 20
-779.8343826035889
 10
765.8748017979397
 20
-760.4688073679954
 10
758.1328767593313
 20
-746.8755942209682
 10
747.7313840213301
 20
-742.5382506752412
 10
739.3221753603011
 20
-739.0356095819316
 10
728.8034894413031
 20
-741.3531645286148
 10
718.095859414163
 20
-749.0532348597244
 10
699.5386779577038
 20
-762.3977114593272
 10
696.6184152230289
 20
-794.0051907141096
 10
697.0560958785936
 20
-804.0311869334
 10
697.0847962494499
 20
-804.8132720392477
 10
696.9723864635944
 20
-805.5606775303077
 10
696.9197691170248
 20
-806.3260207531548
 10
697.6851123398719
 20
-860.2671719296322
 10
699.2588493418498
 20
-929.1970917860453
 10
702.473290877806
 20
-982.460196701033
 10
703.1549246856539
 20
-993.7980390382345
 10
694.5185047553441
 20
-1003.544206641673
 10
683.1866416620687
 20
-1004.225840449521
 10
682.7657028895046
 20
-1004.252149122805
 10
682.3471558145102
 20
-1004.256932517948
 10
681.9262170419443
 20
-1004.256932517948
 10
671.1372692973764
 20
-1004.256932517948
 10
662.0823022920722
 20
-995.844136310563
 10
661.4198020647964
 20
-984.9308202922839
 10
655.1942132864515
 20
-881.7613580037669
 10
655.0626699200257
 20
-721.1134238306768
 10
655.0626699200257
 20
-719.5002238187699
 10
655.0554948273111
 20
-708.1408562034267
 10
664.2587470820417
 20
-698.9292330071949
 10
675.6169188486019
 20
-698.9292330071949
 10
675.6264856388862
 20
-698.9292330071949
 10
675.6264856388862
 20
-698.9292330071949
 10
675.6264856388862
 20
-698.9292330071949
 10
685.3248192908977
 20
-698.9292330071949
 10
693.4087570822157
 20
-705.6666450658176
 10
695.5732433843277
 20
-714.7036743393364
 10
717.6007780168839
 20
-699.4709525071157
 10
742.2735301634038
 20
-695.7195748663817
 10
763.5357215731146
 20
-704.5772268220462
 10
787.7540511810676
 20
-714.6642113294074
 10
804.0989123839881
 20
-739.0846393821466
 10
809.5687247297701
 20
-773.3504904875335
 10
818.5973830617895
 20
-829.9583844561166
 10
815.8349723668271
 20
-976.645979904968
 10
815.7416961615436
 20
-982.8584143466705
 97
        0
 97
        0
 75
     2
 76
     1
 98
        0
  0
SPLINE
  5
54
330
45
100
AcDbEntity
  8
Layer 1
370
     0
100
AcDbSpline
210
0.0
220
0.0
230
1.0
 70
    11
 71
     3
 72
    56
 73
    52
 74
     0
 42
0.0000000001
 43
0.0000000001
 12
1.0
 22
0.0
 32
0.0
 13
1.0
 23
0.0
 33
0.0
 40
0.0
 40
0.0
 40
0.0
 40
0.0
 40
1.0
 40
1.0
 40
1.0
 40
2.0
 40
2.0
 40
2.0
 40
3.0
 40
3.0
 40
3.0
 40
4.0
 40
4.0
 40
4.0
 40
5.0
 40
5.0
 40
5.0
 40
6.0
 40
6.0
 40
6.0
 40
7.0
 40
7.0
 40
7.0
 40
8.0
 40
8.0
 40
8.0
 40
9.0
 40
9.0
 40
9.0
 40
10.0
 40
10.0
 40
10.0
 40
11.0
 40
11.0
 40
11.0
 40
12.0
 40
12.0
 40
12.0
 40
13.0
 40
13.0
 40
13.0
 40
14.0
 40
14.0
 40
14.0
 40
15.0
 40
15.0
 40
15.0
 40
16.0
 40
16.0
 40
16.0
 40
17.0
 40
17.0
 40
17.0
 40
17.0
 10
934.180951594637
 20
-775.0127202996537
 30
0.0
 10
934.2718361023508
 20
-773.1460003451793
 30
0.0
 10
935.8096976407578
 20
-735.4982888738377
 30
0.0
 10
912.5815308273613
 20
-734.0261990186427
 30
0.0
 10
902.3833323829294
 20
-733.3110814447955
 30
0.0
 10
896.5930325625795
 20
-742.4079031576002
 30
0.0
 10
894.0841418101863
 20
-747.8609736203834
 30
0.0
 10
885.7108086127282
 20
-766.0390710117772
 30
0.0
 10
888.1025061841246
 20
-797.3284544895632
 30
0.0
 10
913.1340129663531
 20
-823.0559452650687
 30
0.0
 10
962.7473873873896
 20
-874.0445457896567
 30
0.0
 10
978.3747393188896
 20
-909.9475138826656
 30
0.0
 10
970.7667493442805
 20
-955.5165277104716
 30
0.0
 10
966.3181918614846
 20
-982.2234186414644
 30
0.0
 10
939.1317655674266
 20
-1002.646124203613
 30
0.0
 10
907.5398323468598
 20
-1003.00846638568
 30
0.0
 10
907.2767456140045
 20
-1003.00846638568
 30
0.0
 10
907.0208339738656
 20
-1003.00846638568
 30
0.0
 10
906.7577472410121
 20
-1003.00846638568
 30
0.0
 10
880.9561138407935
 20
-1003.00846638568
 30
0.0
 10
850.8924753683477
 20
-988.2851761361671
 30
0.0
 10
842.9950899875985
 20
-946.8215111896625
 30
0.0
 10
840.87365424177
 20
-935.6606544727438
 30
0.0
 10
848.1946405078143
 20
-924.8932320063195
 30
0.0
 10
859.3471262832318
 20
-922.7717962604911
 30
0.0
 10
870.5091788489372
 20
-920.6659065488766
 30
0.0
 10
881.2670345250754
 20
-927.9701509319202
 30
0.0
 10
883.3980370611898
 20
-939.1226367073396
 30
0.0
 10
886.3015579128642
 20
-954.3649253298445
 30
0.0
 10
894.421371167753
 20
-962.1367465880958
 30
0.0
 10
907.0614928325795
 20
-961.8736598552423
 30
0.0
 10
918.6923181222774
 20
-961.7421164888146
 30
0.0
 10
929.2301376218475
 20
-954.5777864136999
 30
0.0
 10
930.2011668358355
 20
-948.7384567931367
 30
0.0
 10
934.1737765019225
 20
-924.9506327480321
 30
0.0
 10
933.2601480296507
 20
-902.7018660901231
 30
0.0
 10
883.6539487013288
 20
-851.7216365070344
 30
0.0
 10
844.8964895568588
 20
-811.8783466651494
 30
0.0
 10
842.1986546963235
 20
-762.2063756536154
 30
0.0
 10
856.716258954697
 20
-730.6539054429759
 30
0.0
 10
868.3136004783955
 20
-705.4681341673913
 30
0.0
 10
890.200024954238
 20
-691.345160008299
 30
0.0
 10
915.1813060874683
 20
-692.9655351129186
 30
0.0
 10
966.4234265546256
 20
-696.2230272051602
 30
0.0
 10
976.870361546482
 20
-749.5889751157156
 30
0.0
 10
975.2416155003611
 20
-777.3482129781223
 30
0.0
 10
974.5767235755138
 20
-788.6836636177522
 30
0.0
 10
964.9597076409318
 20
-797.2949707235639
 30
0.0
 10
953.5034762739451
 20
-796.6695418086438
 30
0.0
 10
942.1835716685291
 20
-796.0118249765092
 30
0.0
 10
933.5471517382175
 20
-786.3146871732861
 30
0.0
 10
934.180951594637
 20
-775.0127202996537
 30
0.0
  0
HATCH
  5
55
330
45
100
AcDbEntity
  8
Layer 1
 62
   154
420
    86949
100
AcDbHatch
 10
0.0
 20
0.0
 30
0.0
210
0.0
220
0.0
230
1.0
  2
SOLID
 70
     1
 71
     0
 91
        1
 92
        1
 93
        1
 72
     4
 94
        3
 73
     0
 74
     1
 95
       56
 96
       52
 40
0.0
 40
0.0
 40
0.0
 40
0.0
 40
1.0
 40
1.0
 40
1.0
 40
2.0
 40
2.0
 40
2.0
 40
3.0
 40
3.0
 40
3.0
 40
4.0
 40
4.0
 40
4.0
 40
5.0
 40
5.0
 40
5.0
 40
6.0
 40
6.0
 40
6.0
 40
7.0
 40
7.0
 40
7.0
 40
8.0
 40
8.0
 40
8.0
 40
9.0
 40
9.0
 40
9.0
 40
10.0
 40
10.0
 40
10.0
 40
11.0
 40
11.0
 40
11.0
 40
12.0
 40
12.0
 40
12.0
 40
13.0
 40
13.0
 40
13.0
 40
14.0
 40
14.0
 40
14.0
 40
15.0
 40
15.0
 40
15.0
 40
16.0
 40
16.0
 40
16.0
 40
17.0
 40
17.0
 40
17.0
 40
17.0
 10
934.180951594637
 20
-775.0127202996537
 10
934.2718361023508
 20
-773.1460003451793
 10
935.8096976407578
 20
-735.4982888738377
 10
912.5815308273613
 20
-734.0261990186427
 10
902.3833323829294
 20
-733.3110814447955
 10
896.5930325625795
 20
-742.4079031576002
 10
894.0841418101863
 20
-747.8609736203834
 10
885.7108086127282
 20
-766.0390710117772
 10
888.1025061841246
 20
-797.3284544895632
 10
913.1340129663531
 20
-823.0559452650687
 10
962.7473873873896
 20
-874.0445457896567
 10
978.3747393188896
 20
-909.9475138826656
 10
970.7667493442805
 20
-955.5165277104716
 10
966.3181918614846
 20
-982.2234186414644
 10
939.1317655674266
 20
-1002.646124203613
 10
907.5398323468598
 20
-1003.00846638568
 10
907.2767456140045
 20
-1003.00846638568
 10
907.0208339738656
 20
-1003.00846638568
 10
906.7577472410121
 20
-1003.00846638568
 10
880.9561138407935
 20
-1003.00846638568
 10
850.8924753683477
 20
-988.2851761361671
 10
842.9950899875985
 20
-946.8215111896625
 10
840.87365424177
 20
-935.6606544727438
 10
848.1946405078143
 20
-924.8932320063195
 10
859.3471262832318
 20
-922.7717962604911
 10
870.5091788489372
 20
-920.6659065488766
 10
881.2670345250754
 20
-927.9701509319202
 10
883.3980370611898
 20
-939.1226367073396
 10
886.3015579128642
 20
-954.3649253298445
 10
894.421371167753
 20
-962.1367465880958
 10
907.0614928325795
 20
-961.8736598552423
 10
918.6923181222774
 20
-961.7421164888146
 10
929.2301376218475
 20
-954.5777864136999
 10
930.2011668358355
 20
-948.7384567931367
 10
934.1737765019225
 20
-924.9506327480321
 10
933.2601480296507
 20
-902.7018660901231
 10
883.6539487013288
 20
-851.7216365070344
 10
844.8964895568588
 20
-811.8783466651494
 10
842.1986546963235
 20
-762.2063756536154
 10
856.716258954697
 20
-730.6539054429759
 10
868.3136004783955
 20
-705.4681341673913
 10
890.200024954238
 20
-691.345160008299
 10
915.1813060874683
 20
-692.9655351129186
 10
966.4234265546256
 20
-696.2230272051602
 10
976.870361546482
 20
-749.5889751157156
 10
975.2416155003611
 20
-777.3482129781223
 10
974.5767235755138
 20
-788.6836636177522
 10
964.9597076409318
 20
-797.2949707235639
 10
953.5034762739451
 20
-796.6695418086438
 10
942.1835716685291
 20
-796.0118249765092
 10
933.5471517382175
 20
-786.3146871732861
 10
934.180951594637
 20
-775.0127202996537
 97
        0
 97
        0
 75
     2
 76
     1
 98
        0
  0
ENDBLK
  5
48
330
45
100
AcDbEntity
  8
0
100
AcDbBlockEnd
  0
BLOCK
  5
58
330
56
100
AcDbEntity
  8
0
100
AcDbBlockBegin
  2
block 4
 70
     0
 10
0.0
 20
0.0
 30
0.0
  3
block 4
  1

  0
SPLINE
  5
5A
330
56
100
AcDbEntity
  8
Layer 1
370
     0
100
AcDbSpline
210
0.0
220
0.0
230
1.0
 70
    11
 71
     3
 72
    47
 73
    43
 74
     0
 42
0.0000000001
 43
0.0000000001
 12
1.0
 22
0.0
 32
0.0
 13
1.0
 23
0.0
 33
0.0
 40
0.0
 40
0.0
 40
0.0
 40
0.0
 40
1.0
 40
1.0
 40
1.0
 40
2.0
 40
2.0
 40
2.0
 40
3.0
 40
3.0
 40
3.0
 40
4.0
 40
4.0
 40
4.0
 40
5.0
 40
5.0
 40
5.0
 40
6.0
 40
6.0
 40
6.0
 40
7.0
 40
7.0
 40
7.0
 40
8.0
 40
8.0
 40
8.0
 40
9.0
 40
9.0
 40
9.0
 40
10.0
 40
10.0
 40
10.0
 40
11.0
 40
11.0
 40
11.0
 40
12.0
 40
12.0
 40
12.0
 40
13.0
 40
13.0
 40
13.0
 40
14.0
 40
14.0
 40
14.0
 40
14.0
 10
240.8077935741203
 20
-359.4229793524064
 30
0.0
 10
224.6303512011982
 20
-381.6729418591021
 30
0.0
 10
204.630976109187
 20
-393.5620704865105
 30
0.0
 10
184.2824131717498
 20
-393.5620704865105
 30
0.0
 10
179.2813735499622
 20
-393.5620704865105
 30
0.0
 10
174.2516335573164
 20
-392.8481487614499
 30
0.0
 10
169.260160725813
 20
-391.3880173941125
 30
0.0
 10
137.9217474478137
 20
-382.2325990908084
 30
0.0
 10
116.5638881352479
 20
-345.1971621977445
 30
0.0
 10
113.5240405220047
 20
-294.7443019291477
 30
0.0
 10
112.8184897384417
 20
-283.0417257123081
 30
0.0
 10
121.7347382846056
 20
-272.9786581806602
 30
0.0
 10
133.4373145014451
 20
-272.273107397099
 30
0.0
 10
145.1494575085708
 20
-271.577123403822
 30
0.0
 10
155.2041540987193
 20
-280.4861968572714
 30
0.0
 10
155.9097048822823
 20
-292.1875772253261
 30
0.0
 10
157.9641730961102
 20
-326.3111223252163
 30
0.0
 10
170.176180895658
 20
-347.4226367879273
 30
0.0
 10
181.1732063289364
 20
-350.6322949287405
 30
0.0
 10
188.1713134228412
 20
-352.6879589913551
 30
0.0
 10
197.6233022249962
 20
-346.6238097990808
 30
0.0
 10
206.4725832391614
 20
-334.4548525558184
 30
0.0
 10
230.3536834895494
 20
-301.6228241444824
 30
0.0
 10
223.2718669806454
 20
-199.5104921825223
 30
0.0
 10
211.9926212339433
 20
-131.9785195565873
 30
0.0
 10
211.9926212339433
 20
-131.9785195565873
 30
0.0
 10
169.4371463460957
 20
-131.9785195565873
 30
0.0
 10
169.4371463460957
 20
-131.9785195565873
 30
0.0
 10
157.7106531535428
 20
-131.9785195565873
 30
0.0
 10
148.2060470048145
 20
-122.4763051054324
 30
0.0
 10
148.2060470048145
 20
-110.7474202153062
 30
0.0
 10
148.2060470048145
 20
-99.01973117396665
 30
0.0
 10
157.7106531535428
 20
-89.5175167228117
 30
0.0
 10
169.4371463460957
 20
-89.5175167228117
 30
0.0
 10
169.4371463460957
 20
-89.5175167228117
 30
0.0
 10
229.7342338185572
 20
-89.5175167228117
 30
0.0
 10
229.7342338185572
 20
-89.5175167228117
 30
0.0
 10
239.8893817067037
 20
-89.5175167228117
 30
0.0
 10
248.6286446325848
 20
-96.71054716878461
 30
0.0
 10
250.5730947581305
 20
-106.680338495149
 30
0.0
 10
254.3448018282215
 20
-125.9921005353845
 30
0.0
 10
286.1495961326436
 20
-297.1132783736157
 30
0.0
 10
240.8077935741203
 20
-359.4229793524064
 30
0.0
  0
HATCH
  5
5B
330
56
100
AcDbEntity
  8
Layer 1
 62
   132
420
   709346
100
AcDbHatch
 10
0.0
 20
0.0
 30
0.0
210
0.0
220
0.0
230
1.0
  2
SOLID
 70
     1
 71
     0
 91
        1
 92
        1
 93
        1
 72
     4
 94
        3
 73
     0
 74
     1
 95
       47
 96
       43
 40
0.0
 40
0.0
 40
0.0
 40
0.0
 40
1.0
 40
1.0
 40
1.0
 40
2.0
 40
2.0
 40
2.0
 40
3.0
 40
3.0
 40
3.0
 40
4.0
 40
4.0
 40
4.0
 40
5.0
 40
5.0
 40
5.0
 40
6.0
 40
6.0
 40
6.0
 40
7.0
 40
7.0
 40
7.0
 40
8.0
 40
8.0
 40
8.0
 40
9.0
 40
9.0
 40
9.0
 40
10.0
 40
10.0
 40
10.0
 40
11.0
 40
11.0
 40
11.0
 40
12.0
 40
12.0
 40
12.0
 40
13.0
 40
13.0
 40
13.0
 40
14.0
 40
14.0
 40
14.0
 40
14.0
 10
240.8077935741203
 20
-359.4229793524064
 10
224.6303512011982
 20
-381.6729418591021
 10
204.630976109187
 20
-393.5620704865105
 10
184.2824131717498
 20
-393.5620704865105
 10
179.2813735499622
 20
-393.5620704865105
 10
174.2516335573164
 20
-392.8481487614499
 10
169.260160725813
 20
-391.3880173941125
 10
137.9217474478137
 20
-382.2325990908084
 10
116.5638881352479
 20
-345.1971621977445
 10
113.5240405220047
 20
-294.7443019291477
 10
112.8184897384417
 20
-283.0417257123081
 10
121.7347382846056
 20
-272.9786581806602
 10
133.4373145014451
 20
-272.273107397099
 10
145.1494575085708
 20
-271.577123403822
 10
155.2041540987193
 20
-280.4861968572714
 10
155.9097048822823
 20
-292.1875772253261
 10
157.9641730961102
 20
-326.3111223252163
 10
170.176180895658
 20
-347.4226367879273
 10
181.1732063289364
 20
-350.6322949287405
 10
188.1713134228412
 20
-352.6879589913551
 10
197.6233022249962
 20
-346.6238097990808
 10
206.4725832391614
 20
-334.4548525558184
 10
230.3536834895494
 20
-301.6228241444824
 10
223.2718669806454
 20
-199.5104921825223
 10
211.9926212339433
 20
-131.9785195565873
 10
211.9926212339433
 20
-131.9785195565873
 10
169.4371463460957
 20
-131.9785195565873
 10
169.4371463460957
 20
-131.9785195565873
 10
157.7106531535428
 20
-131.9785195565873
 10
148.2060470048145
 20
-122.4763051054324
 10
148.2060470048145
 20
-110.7474202153062
 10
148.2060470048145
 20
-99.01973117396665
 10
157.7106531535428
 20
-89.5175167228117
 10
169.4371463460957
 20
-89.5175167228117
 10
169.4371463460957
 20
-89.5175167228117
 10
229.7342338185572
 20
-89.5175167228117
 10
229.7342338185572
 20
-89.5175167228117
 10
239.8893817067037
 20
-89.5175167228117
 10
248.6286446325848
 20
-96.71054716878461
 10
250.5730947581305
 20
-106.680338495149
 10
254.3448018282215
 20
-125.9921005353845
 10
286.1495961326436
 20
-297.1132783736157
 10
240.8077935741203
 20
-359.4229793524064
 97
        0
 97
        0
 75
     2
 76
     1
 98
        0
  0
SPLINE
  5
5C
330
56
100
AcDbEntity
  8
Layer 1
370
     0
100
AcDbSpline
210
0.0
220
0.0
230
1.0
 70
    11
 71
     3
 72
    62
 73
    58
 74
     0
 42
0.0000000001
 43
0.0000000001
 12
1.0
 22
0.0
 32
0.0
 13
1.0
 23
0.0
 33
0.0
 40
0.0
 40
0.0
 40
0.0
 40
0.0
 40
1.0
 40
1.0
 40
1.0
 40
2.0
 40
2.0
 40
2.0
 40
3.0
 40
3.0
 40
3.0
 40
4.0
 40
4.0
 40
4.0
 40
5.0
 40
5.0
 40
5.0
 40
6.0
 40
6.0
 40
6.0
 40
7.0
 40
7.0
 40
7.0
 40
8.0
 40
8.0
 40
8.0
 40
9.0
 40
9.0
 40
9.0
 40
10.0
 40
10.0
 40
10.0
 40
11.0
 40
11.0
 40
11.0
 40
12.0
 40
12.0
 40
12.0
 40
13.0
 40
13.0
 40
13.0
 40
14.0
 40
14.0
 40
14.0
 40
15.0
 40
15.0
 40
15.0
 40
16.0
 40
16.0
 40
16.0
 40
17.0
 40
17.0
 40
17.0
 40
18.0
 40
18.0
 40
18.0
 40
19.0
 40
19.0
 40
19.0
 40
19.0
 10
433.5116502966284
 20
-367.0046606537308
 30
0.0
 10
425.6979743308784
 20
-377.7565370859411
 30
0.0
 10
399.169264868955
 20
-397.3732405665305
 30
0.0
 10
369.717900974787
 20
-397.3732405665305
 30
0.0
 10
369.182160718794
 20
-397.3732405665305
 30
0.0
 10
368.655987253087
 20
-397.3648696250311
 30
0.0
 10
368.120246997094
 20
-397.3564986835299
 30
0.0
 10
352.1963245667412
 20
-396.965456130607
 30
0.0
 10
329.4034467113379
 20
-390.689641703264
 30
0.0
 10
311.2121949832999
 20
-362.9543208165724
 30
0.0
 10
276.5469303834889
 20
-310.0798667569379
 30
0.0
 10
299.0695464133241
 20
-131.9007893855178
 30
0.0
 10
303.9342592735429
 20
-96.71652641271248
 30
0.0
 10
305.3286189576665
 20
-86.6450879395652
 30
0.0
 10
313.6756434818381
 20
-78.96773873538405
 30
0.0
 10
323.8403581602706
 20
-78.42482338667651
 30
0.0
 10
323.8403581602706
 20
-78.42482338667651
 30
0.0
 10
399.1931818446701
 20
-74.43308014001741
 30
0.0
 10
399.1931818446701
 20
-74.43308014001741
 30
0.0
 10
411.024909730364
 20
-73.75383802974102
 30
0.0
 10
420.9002290026583
 20
-82.80641333747371
 30
0.0
 10
421.5196786736487
 20
-94.50898955431512
 30
0.0
 10
422.1415200422125
 20
-106.2199367126541
 30
0.0
 10
413.1559122664785
 20
-116.2160367123033
 30
0.0
 10
401.4437692593528
 20
-116.8354863832956
 30
0.0
 10
401.4437692593528
 20
-116.8354863832956
 30
0.0
 10
343.7560238372844
 20
-119.9016426698254
 30
0.0
 10
343.7560238372844
 20
-119.9016426698254
 30
0.0
 10
338.6951917762108
 20
-161.6080649198266
 30
0.0
 10
334.9234847061198
 20
-211.678253576998
 30
0.0
 10
334.9067428231192
 20
-254.0806598202762
 30
0.0
 10
334.9067428231192
 20
-254.0806598202762
 30
0.0
 10
387.5503980671147
 20
-252.1708893095165
 30
0.0
 10
387.5503980671147
 20
-252.1708893095165
 30
0.0
 10
399.5519364803786
 20
-251.8814939033764
 30
0.0
 10
409.1139433708195
 20
-260.908956386611
 30
0.0
 10
409.5372738409569
 20
-272.6199035449499
 30
0.0
 10
409.962996008664
 20
-284.3392216447901
 30
0.0
 10
400.8004026126473
 20
-294.1822529998699
 30
0.0
 10
389.0882596055217
 20
-294.6067793187922
 30
0.0
 10
389.0882596055217
 20
-294.6067793187922
 30
0.0
 10
336.5043968008122
 20
-296.5093747368373
 30
0.0
 10
336.5043968008122
 20
-296.5093747368373
 30
0.0
 10
338.243160935217
 20
-316.2791468619962
 30
0.0
 10
341.4886945396011
 20
-331.6852667681433
 30
0.0
 10
346.7289039185289
 20
-339.6675574126766
 30
0.0
 10
356.1282753741143
 20
-354.0021968068377
 30
0.0
 10
365.0803993838508
 20
-354.6395842096154
 30
0.0
 10
368.0269707918105
 20
-354.8524452934689
 30
0.0
 10
382.0064430966177
 20
-355.8545665758847
 30
0.0
 10
396.8086593659882
 20
-344.6530510002522
 30
0.0
 10
399.5328028998083
 20
-341.5617818892224
 30
0.0
 10
406.4376337884278
 20
-332.0751134722796
 30
0.0
 10
419.5250028991049
 20
-330.2155686105198
 30
0.0
 10
429.0104754672611
 20
-337.110832708855
 30
0.0
 10
438.4887729427028
 20
-344.0072926559751
 30
0.0
 10
440.4069143949637
 20
-357.5191880855746
 30
0.0
 10
433.5116502966284
 20
-367.0046606537308
 30
0.0
  0
HATCH
  5
5D
330
56
100
AcDbEntity
  8
Layer 1
 62
   132
420
   709346
100
AcDbHatch
 10
0.0
 20
0.0
 30
0.0
210
0.0
220
0.0
230
1.0
  2
SOLID
 70
     1
 71
     0
 91
        1
 92
        1
 93
        1
 72
     4
 94
        3
 73
     0
 74
     1
 95
       62
 96
       58
 40
0.0
 40
0.0
 40
0.0
 40
0.0
 40
1.0
 40
1.0
 40
1.0
 40
2.0
 40
2.0
 40
2.0
 40
3.0
 40
3.0
 40
3.0
 40
4.0
 40
4.0
 40
4.0
 40
5.0
 40
5.0
 40
5.0
 40
6.0
 40
6.0
 40
6.0
 40
7.0
 40
7.0
 40
7.0
 40
8.0
 40
8.0
 40
8.0
 40
9.0
 40
9.0
 40
9.0
 40
10.0
 40
10.0
 40
10.0
 40
11.0
 40
11.0
 40
11.0
 40
12.0
 40
12.0
 40
12.0
 40
13.0
 40
13.0
 40
13.0
 40
14.0
 40
14.0
 40
14.0
 40
15.0
 40
15.0
 40
15.0
 40
16.0
 40
16.0
 40
16.0
 40
17.0
 40
17.0
 40
17.0
 40
18.0
 40
18.0
 40
18.0
 40
19.0
 40
19.0
 40
19.0
 40
19.0
 10
433.5116502966284
 20
-367.0046606537308
 10
425.6979743308784
 20
-377.7565370859411
 10
399.169264868955
 20
-397.3732405665305
 10
369.717900974787
 20
-397.3732405665305
 10
369.182160718794
 20
-397.3732405665305
 10
368.655987253087
 20
-397.3648696250311
 10
368.120246997094
 20
-397.3564986835299
 10
352.1963245667412
 20
-396.965456130607
 10
329.4034467113379
 20
-390.689641703264
 10
311.2121949832999
 20
-362.9543208165724
 10
276.5469303834889
 20
-310.0798667569379
 10
299.0695464133241
 20
-131.9007893855178
 10
303.9342592735429
 20
-96.71652641271248
 10
305.3286189576665
 20
-86.6450879395652
 10
313.6756434818381
 20
-78.96773873538405
 10
323.8403581602706
 20
-78.42482338667651
 10
323.8403581602706
 20
-78.42482338667651
 10
399.1931818446701
 20
-74.43308014001741
 10
399.1931818446701
 20
-74.43308014001741
 10
411.024909730364
 20
-73.75383802974102
 10
420.9002290026583
 20
-82.80641333747371
 10
421.5196786736487
 20
-94.50898955431512
 10
422.1415200422125
 20
-106.2199367126541
 10
413.1559122664785
 20
-116.2160367123033
 10
401.4437692593528
 20
-116.8354863832956
 10
401.4437692593528
 20
-116.8354863832956
 10
343.7560238372844
 20
-119.9016426698254
 10
343.7560238372844
 20
-119.9016426698254
 10
338.6951917762108
 20
-161.6080649198266
 10
334.9234847061198
 20
-211.678253576998
 10
334.9067428231192
 20
-254.0806598202762
 10
334.9067428231192
 20
-254.0806598202762
 10
387.5503980671147
 20
-252.1708893095165
 10
387.5503980671147
 20
-252.1708893095165
 10
399.5519364803786
 20
-251.8814939033764
 10
409.1139433708195
 20
-260.908956386611
 10
409.5372738409569
 20
-272.6199035449499
 10
409.962996008664
 20
-284.3392216447901
 10
400.8004026126473
 20
-294.1822529998699
 10
389.0882596055217
 20
-294.6067793187922
 10
389.0882596055217
 20
-294.6067793187922
 10
336.5043968008122
 20
-296.5093747368373
 10
336.5043968008122
 20
-296.5093747368373
 10
338.243160935217
 20
-316.2791468619962
 10
341.4886945396011
 20
-331.6852667681433
 10
346.7289039185289
 20
-339.6675574126766
 10
356.1282753741143
 20
-354.0021968068377
 10
365.0803993838508
 20
-354.6395842096154
 10
368.0269707918105
 20
-354.8524452934689
 10
382.0064430966177
 20
-355.8545665758847
 10
396.8086593659882
 20
-344.6530510002522
 10
399.5328028998083
 20
-341.5617818892224
 10
406.4376337884278
 20
-332.0751134722796
 10
419.5250028991049
 20
-330.2155686105198
 10
429.0104754672611
 20
-337.110832708855
 10
438.4887729427028
 20
-344.0072926559751
 10
440.4069143949637
 20
-357.5191880855746
 10
433.5116502966284
 20
-367.0046606537308
 97
        0
 97
        0
 75
     2
 76
     1
 98
        0
  0
SPLINE
  5
5E
330
56
100
AcDbEntity
  8
Layer 1
370
     0
100
AcDbSpline
210
0.0
220
0.0
230
1.0
 70
    11
 71
     3
 72
    56
 73
    52
 74
     0
 42
0.0000000001
 43
0.0000000001
 12
1.0
 22
0.0
 32
0.0
 13
1.0
 23
0.0
 33
0.0
 40
0.0
 40
0.0
 40
0.0
 40
0.0
 40
1.0
 40
1.0
 40
1.0
 40
2.0
 40
2.0
 40
2.0
 40
3.0
 40
3.0
 40
3.0
 40
4.0
 40
4.0
 40
4.0
 40
5.0
 40
5.0
 40
5.0
 40
6.0
 40
6.0
 40
6.0
 40
7.0
 40
7.0
 40
7.0
 40
8.0
 40
8.0
 40
8.0
 40
9.0
 40
9.0
 40
9.0
 40
10.0
 40
10.0
 40
10.0
 40
11.0
 40
11.0
 40
11.0
 40
12.0
 40
12.0
 40
12.0
 40
13.0
 40
13.0
 40
13.0
 40
14.0
 40
14.0
 40
14.0
 40
15.0
 40
15.0
 40
15.0
 40
16.0
 40
16.0
 40
16.0
 40
17.0
 40
17.0
 40
17.0
 40
17.0
 10
559.6641303974775
 20
-157.5266330142385
 30
0.0
 10
559.7574066027628
 20
-155.5989247716934
 30
0.0
 10
561.3454937901679
 20
-116.7290558413679
 30
0.0
 10
537.3615505442085
 20
-115.2091320347463
 30
0.0
 10
526.8309061373529
 20
-114.4700974851839
 30
0.0
 10
520.8516622088628
 20
-123.8634896968415
 30
0.0
 10
518.2614537390418
 20
-129.4935457799074
 30
0.0
 10
509.6178587160157
 20
-148.2611966226505
 30
0.0
 10
512.0884823072684
 20
-180.5670515682814
 30
0.0
 10
537.9307745662009
 20
-207.130440644989
 30
0.0
 10
589.1561531503594
 20
-259.7752917377693
 30
0.0
 10
605.2929366645676
 20
-296.8442123968343
 30
0.0
 10
597.4362101425322
 20
-343.892491172548
 30
0.0
 10
592.8417591078814
 20
-371.4675683219557
 30
0.0
 10
564.775188107551
 20
-392.5539699601686
 30
0.0
 10
532.1572166288515
 20
-392.928270630091
 30
0.0
 10
531.884563105712
 20
-392.928270630091
 30
0.0
 10
531.6214763728585
 20
-392.928270630091
 30
0.0
 10
531.348822849719
 20
-392.928270630091
 30
0.0
 10
504.70770360194
 20
-392.928270630091
 30
0.0
 10
473.6682525203651
 20
-377.7266408662999
 30
0.0
 10
465.5173471970484
 20
-334.9164501870982
 30
0.0
 10
463.3241605240783
 20
-323.392055439328
 30
0.0
 10
470.8843165472608
 20
-312.2754451274795
 30
0.0
 10
482.3979486559601
 20
-310.0846501520809
 30
0.0
 10
493.923539252517
 20
-307.9105970596829
 30
0.0
 10
505.0305827740794
 20
-315.4516195022934
 30
0.0
 10
507.2309445397641
 20
-326.9676433085642
 30
0.0
 10
510.2277415967219
 20
-342.7038174795634
 30
0.0
 10
518.6106415844642
 20
-350.7291586803822
 30
0.0
 10
531.6645269291439
 20
-350.4577010060293
 30
0.0
 10
543.6708487375527
 20
-350.3213742444586
 30
0.0
 10
554.5506809898325
 20
-342.9250495049182
 30
0.0
 10
555.5528022722483
 20
-336.8943840786433
 30
0.0
 10
559.6545636071914
 20
-312.3352375667655
 30
0.0
 10
558.7122347640616
 20
-289.362982393508
 30
0.0
 10
507.4940312726176
 20
-236.7265022422271
 30
0.0
 10
467.4785392055928
 20
-195.5893040142182
 30
0.0
 10
464.6922115349171
 20
-144.3041329907774
 30
0.0
 10
479.6809802148546
 20
-111.7280162195784
 30
0.0
 10
491.6562099548337
 20
-85.72308852579226
 30
0.0
 10
514.2529686093822
 20
-71.14210428177648
 30
0.0
 10
540.0450352193166
 20
-72.8150967329675
 30
0.0
 10
592.954168893737
 20
-76.17782351835012
 30
0.0
 10
603.73833324316
 20
-131.2765563193825
 30
0.0
 10
602.0569698504696
 20
-159.9386600149919
 30
0.0
 10
601.3681609499072
 20
-171.6412362318315
 30
0.0
 10
591.4426160286148
 20
-180.5323719534954
 30
0.0
 10
579.6108881429191
 20
-179.887809458005
 30
0.0
 10
567.9250538090782
 20
-179.2085673477286
 30
0.0
 10
559.0088052629144
 20
-169.1957254650788
 30
0.0
 10
559.6641303974775
 20
-157.5266330142385
 30
0.0
  0
HATCH
  5
5F
330
56
100
AcDbEntity
  8
Layer 1
 62
   132
420
   709346
100
AcDbHatch
 10
0.0
 20
0.0
 30
0.0
210
0.0
220
0.0
230
1.0
  2
SOLID
 70
     1
 71
     0
 91
        1
 92
        1
 93
        1
 72
     4
 94
        3
 73
     0
 74
     1
 95
       56
 96
       52
 40
0.0
 40
0.0
 40
0.0
 40
0.0
 40
1.0
 40
1.0
 40
1.0
 40
2.0
 40
2.0
 40
2.0
 40
3.0
 40
3.0
 40
3.0
 40
4.0
 40
4.0
 40
4.0
 40
5.0
 40
5.0
 40
5.0
 40
6.0
 40
6.0
 40
6.0
 40
7.0
 40
7.0
 40
7.0
 40
8.0
 40
8.0
 40
8.0
 40
9.0
 40
9.0
 40
9.0
 40
10.0
 40
10.0
 40
10.0
 40
11.0
 40
11.0
 40
11.0
 40
12.0
 40
12.0
 40
12.0
 40
13.0
 40
13.0
 40
13.0
 40
14.0
 40
14.0
 40
14.0
 40
15.0
 40
15.0
 40
15.0
 40
16.0
 40
16.0
 40
16.0
 40
17.0
 40
17.0
 40
17.0
 40
17.0
 10
559.6641303974775
 20
-157.5266330142385
 10
559.7574066027628
 20
-155.5989247716934
 10
561.3454937901679
 20
-116.7290558413679
 10
537.3615505442085
 20
-115.2091320347463
 10
526.8309061373529
 20
-114.4700974851839
 10
520.8516622088628
 20
-123.8634896968415
 10
518.2614537390418
 20
-129.4935457799074
 10
509.6178587160157
 20
-148.2611966226505
 10
512.0884823072684
 20
-180.5670515682814
 10
537.9307745662009
 20
-207.130440644989
 10
589.1561531503594
 20
-259.7752917377693
 10
605.2929366645676
 20
-296.8442123968343
 10
597.4362101425322
 20
-343.892491172548
 10
592.8417591078814
 20
-371.4675683219557
 10
564.775188107551
 20
-392.5539699601686
 10
532.1572166288515
 20
-392.928270630091
 10
531.884563105712
 20
-392.928270630091
 10
531.6214763728585
 20
-392.928270630091
 10
531.348822849719
 20
-392.928270630091
 10
504.70770360194
 20
-392.928270630091
 10
473.6682525203651
 20
-377.7266408662999
 10
465.5173471970484
 20
-334.9164501870982
 10
463.3241605240783
 20
-323.392055439328
 10
470.8843165472608
 20
-312.2754451274795
 10
482.3979486559601
 20
-310.0846501520809
 10
493.923539252517
 20
-307.9105970596829
 10
505.0305827740794
 20
-315.4516195022934
 10
507.2309445397641
 20
-326.9676433085642
 10
510.2277415967219
 20
-342.7038174795634
 10
518.6106415844642
 20
-350.7291586803822
 10
531.6645269291439
 20
-350.4577010060293
 10
543.6708487375527
 20
-350.3213742444586
 10
554.5506809898325
 20
-342.9250495049182
 10
555.5528022722483
 20
-336.8943840786433
 10
559.6545636071914
 20
-312.3352375667655
 10
558.7122347640616
 20
-289.362982393508
 10
507.4940312726176
 20
-236.7265022422271
 10
467.4785392055928
 20
-195.5893040142182
 10
464.6922115349171
 20
-144.3041329907774
 10
479.6809802148546
 20
-111.7280162195784
 10
491.6562099548337
 20
-85.72308852579226
 10
514.2529686093822
 20
-71.14210428177648
 10
540.0450352193166
 20
-72.8150967329675
 10
592.954168893737
 20
-76.17782351835012
 10
603.73833324316
 20
-131.2765563193825
 10
602.0569698504696
 20
-159.9386600149919
 10
601.3681609499072
 20
-171.6412362318315
 10
591.4426160286148
 20
-180.5323719534954
 10
579.6108881429191
 20
-179.887809458005
 10
567.9250538090782
 20
-179.2085673477286
 10
559.0088052629144
 20
-169.1957254650788
 10
559.6641303974775
 20
-157.5266330142385
 97
        0
 97
        0
 75
     2
 76
     1
 98
        0
  0
SPLINE
  5
60
330
56
100
AcDbEntity
  8
Layer 1
370
     0
100
AcDbSpline
210
0.0
220
0.0
230
1.0
 70
    11
 71
     3
 72
    47
 73
    43
 74
     0
 42
0.0000000001
 43
0.0000000001
 12
1.0
 22
0.0
 32
0.0
 13
1.0
 23
0.0
 33
0.0
 40
0.0
 40
0.0
 40
0.0
 40
0.0
 40
1.0
 40
1.0
 40
1.0
 40
2.0
 40
2.0
 40
2.0
 40
3.0
 40
3.0
 40
3.0
 40
4.0
 40
4.0
 40
4.0
 40
5.0
 40
5.0
 40
5.0
 40
6.0
 40
6.0
 40
6.0
 40
7.0
 40
7.0
 40
7.0
 40
8.0
 40
8.0
 40
8.0
 40
9.0
 40
9.0
 40
9.0
 40
10.0
 40
10.0
 40
10.0
 40
11.0
 40
11.0
 40
11.0
 40
12.0
 40
12.0
 40
12.0
 40
13.0
 40
13.0
 40
13.0
 40
14.0
 40
14.0
 40
14.0
 40
14.0
 10
802.0674626535911
 20
-110.3264814427403
 30
0.0
 10
802.0674626535911
 20
-110.3264814427403
 30
0.0
 10
802.0674626535911
 20
-374.3973978469166
 30
0.0
 10
802.0674626535911
 20
-374.3973978469166
 30
0.0
 10
802.0674626535911
 20
-386.1250868882562
 30
0.0
 10
792.5628565048646
 20
-395.6284971881978
 30
0.0
 10
780.8363633123099
 20
-395.6284971881978
 30
0.0
 10
769.1074784221855
 20
-395.6284971881978
 30
0.0
 10
759.6052639710288
 20
-386.1250868882562
 30
0.0
 10
759.6052639710288
 20
-374.3973978469166
 30
0.0
 10
759.6052639710288
 20
-374.3973978469166
 30
0.0
 10
759.6052639710288
 20
-353.1148770078507
 30
0.0
 10
759.6052639710288
 20
-353.1148770078507
 30
0.0
 10
752.5904149941252
 20
-365.6844435943203
 30
0.0
 10
744.7169465890893
 20
-375.3911481878313
 30
0.0
 10
736.0135591267808
 20
-382.20987796388
 30
0.0
 10
721.8307925284025
 20
-393.3181173342291
 30
0.0
 10
705.2108861047727
 20
-397.1914715511048
 30
0.0
 10
688.0217556591506
 20
-393.454444095798
 30
0.0
 10
611.6333269263378
 20
-376.8094248476682
 30
0.0
 10
628.0666809393988
 20
-183.8879236461635
 30
0.0
 10
638.6810347612536
 20
-101.7151743369304
 30
0.0
 10
640.1925876263758
 20
-90.09750338387494
 30
0.0
 10
650.7160569405187
 20
-81.92746447998616
 30
0.0
 10
662.4592920160721
 20
-83.37922490582423
 30
0.0
 10
674.085333910627
 20
-84.87403588794587
 30
0.0
 10
682.2984233708012
 20
-95.52426517337153
 30
0.0
 10
680.7940455983935
 20
-107.1503070679282
 30
0.0
 10
665.2456196867479
 20
-227.7755740812772
 30
0.0
 10
673.1525718577832
 20
-346.7541573167218
 30
0.0
 10
697.0575890838845
 20
-351.9608829296521
 30
0.0
 10
701.8816430853894
 20
-353.0132298610661
 30
0.0
 10
705.6007328089108
 20
-352.0960138424362
 30
0.0
 10
709.8316458127101
 20
-348.7763376133371
 30
0.0
 10
731.1799383349899
 20
-332.0631549844238
 30
0.0
 10
755.4771939628008
 20
-260.4796466725456
 30
0.0
 10
759.6124390637433
 20
-109.7405155377492
 30
0.0
 10
759.9281431431682
 20
-98.13121552619305
 30
0.0
 10
769.3538232720384
 20
-88.9423134568915
 30
0.0
 10
781.1233670208785
 20
-89.09538210146093
 30
0.0
 10
792.7326670324328
 20
-89.25682168752974
 30
0.0
 10
802.0674626535911
 20
-98.71718143118596
 30
0.0
 10
802.0674626535911
 20
-110.3264814427403
 30
0.0
  0
HATCH
  5
61
330
56
100
AcDbEntity
  8
Layer 1
 62
   132
420
   709346
100
AcDbHatch
 10
0.0
 20
0.0
 30
0.0
210
0.0
220
0.0
230
1.0
  2
SOLID
 70
     1
 71
     0
 91
        1
 92
        1
 93
        1
 72
     4
 94
        3
 73
     0
 74
     1
 95
       47
 96
       43
 40
0.0
 40
0.0
 40
0.0
 40
0.0
 40
1.0
 40
1.0
 40
1.0
 40
2.0
 40
2.0
 40
2.0
 40
3.0
 40
3.0
 40
3.0
 40
4.0
 40
4.0
 40
4.0
 40
5.0
 40
5.0
 40
5.0
 40
6.0
 40
6.0
 40
6.0
 40
7.0
 40
7.0
 40
7.0
 40
8.0
 40
8.0
 40
8.0
 40
9.0
 40
9.0
 40
9.0
 40
10.0
 40
10.0
 40
10.0
 40
11.0
 40
11.0
 40
11.0
 40
12.0
 40
12.0
 40
12.0
 40
13.0
 40
13.0
 40
13.0
 40
14.0
 40
14.0
 40
14.0
 40
14.0
 10
802.0674626535911
 20
-110.3264814427403
 10
802.0674626535911
 20
-110.3264814427403
 10
802.0674626535911
 20
-374.3973978469166
 10
802.0674626535911
 20
-374.3973978469166
 10
802.0674626535911
 20
-386.1250868882562
 10
792.5628565048646
 20
-395.6284971881978
 10
780.8363633123099
 20
-395.6284971881978
 10
769.1074784221855
 20
-395.6284971881978
 10
759.6052639710288
 20
-386.1250868882562
 10
759.6052639710288
 20
-374.3973978469166
 10
759.6052639710288
 20
-374.3973978469166
 10
759.6052639710288
 20
-353.1148770078507
 10
759.6052639710288
 20
-353.1148770078507
 10
752.5904149941252
 20
-365.6844435943203
 10
744.7169465890893
 20
-375.3911481878313
 10
736.0135591267808
 20
-382.20987796388
 10
721.8307925284025
 20
-393.3181173342291
 10
705.2108861047727
 20
-397.1914715511048
 10
688.0217556591506
 20
-393.454444095798
 10
611.6333269263378
 20
-376.8094248476682
 10
628.0666809393988
 20
-183.8879236461635
 10
638.6810347612536
 20
-101.7151743369304
 10
640.1925876263758
 20
-90.09750338387494
 10
650.7160569405187
 20
-81.92746447998616
 10
662.4592920160721
 20
-83.37922490582423
 10
674.085333910627
 20
-84.87403588794587
 10
682.2984233708012
 20
-95.52426517337153
 10
680.7940455983935
 20
-107.1503070679282
 10
665.2456196867479
 20
-227.7755740812772
 10
673.1525718577832
 20
-346.7541573167218
 10
697.0575890838845
 20
-351.9608829296521
 10
701.8816430853894
 20
-353.0132298610661
 10
705.6007328089108
 20
-352.0960138424362
 10
709.8316458127101
 20
-348.7763376133371
 10
731.1799383349899
 20
-332.0631549844238
 10
755.4771939628008
 20
-260.4796466725456
 10
759.6124390637433
 20
-109.7405155377492
 10
759.9281431431682
 20
-98.13121552619305
 10
769.3538232720384
 20
-88.9423134568915
 10
781.1233670208785
 20
-89.09538210146093
 10
792.7326670324328
 20
-89.25682168752974
 10
802.0674626535911
 20
-98.71718143118596
 10
802.0674626535911
 20
-110.3264814427403
 97
        0
 97
        0
 75
     2
 76
     1
 98
        0
  0
SPLINE
  5
62
330
56
100
AcDbEntity
  8
Layer 1
370
     0
100
AcDbSpline
210
0.0
220
0.0
230
1.0
 70
    11
 71
     3
 72
    56
 73
    52
 74
     0
 42
0.0000000001
 43
0.0000000001
 12
1.0
 22
0.0
 32
0.0
 13
1.0
 23
0.0
 33
0.0
 40
0.0
 40
0.0
 40
0.0
 40
0.0
 40
1.0
 40
1.0
 40
1.0
 40
2.0
 40
2.0
 40
2.0
 40
3.0
 40
3.0
 40
3.0
 40
4.0
 40
4.0
 40
4.0
 40
5.0
 40
5.0
 40
5.0
 40
6.0
 40
6.0
 40
6.0
 40
7.0
 40
7.0
 40
7.0
 40
8.0
 40
8.0
 40
8.0
 40
9.0
 40
9.0
 40
9.0
 40
10.0
 40
10.0
 40
10.0
 40
11.0
 40
11.0
 40
11.0
 40
12.0
 40
12.0
 40
12.0
 40
13.0
 40
13.0
 40
13.0
 40
14.0
 40
14.0
 40
14.0
 40
15.0
 40
15.0
 40
15.0
 40
16.0
 40
16.0
 40
16.0
 40
17.0
 40
17.0
 40
17.0
 40
17.0
 10
923.9603293797827
 20
-157.5266330142385
 30
0.0
 10
924.0536055850662
 20
-155.5989247716934
 30
0.0
 10
925.6416927724731
 20
-116.7290558413679
 30
0.0
 10
901.6577495265155
 20
-115.2091320347463
 30
0.0
 10
891.12710511966
 20
-114.4700974851839
 30
0.0
 10
885.1478611911698
 20
-123.8634896968415
 30
0.0
 10
882.5576527213489
 20
-129.4935457799074
 30
0.0
 10
873.9140576983245
 20
-148.2611966226505
 30
0.0
 10
876.3846812895754
 20
-180.5670515682814
 30
0.0
 10
902.2269735485079
 20
-207.130440644989
 30
0.0
 10
953.4523521326646
 20
-259.7752917377693
 30
0.0
 10
969.5891356468728
 20
-296.8442123968343
 30
0.0
 10
961.7324091248374
 20
-343.892491172548
 30
0.0
 10
957.1379580901848
 20
-371.4675683219557
 30
0.0
 10
929.0713870898544
 20
-392.5539699601686
 30
0.0
 10
896.4534156111586
 20
-392.928270630091
 30
0.0
 10
896.180762088019
 20
-392.928270630091
 30
0.0
 10
895.9176753551656
 20
-392.928270630091
 30
0.0
 10
895.645021832026
 20
-392.928270630091
 30
0.0
 10
869.003902584247
 20
-392.928270630091
 30
0.0
 10
837.9644515026721
 20
-377.7266408662999
 30
0.0
 10
829.8135461793554
 20
-334.9164501870982
 30
0.0
 10
827.6203595063853
 20
-323.392055439328
 30
0.0
 10
835.1805155295679
 20
-312.2754451274795
 30
0.0
 10
846.6941476382672
 20
-310.0846501520809
 30
0.0
 10
858.219738234824
 20
-307.9105970596829
 30
0.0
 10
869.3267817563865
 20
-315.4516195022934
 30
0.0
 10
871.5271435220711
 20
-326.9676433085642
 30
0.0
 10
874.5239405790289
 20
-342.7038174795634
 30
0.0
 10
882.9068405667713
 20
-350.7291586803822
 30
0.0
 10
895.9607259114509
 20
-350.4577010060293
 30
0.0
 10
907.9670477198579
 20
-350.3213742444586
 30
0.0
 10
918.8468799721377
 20
-342.9250495049182
 30
0.0
 10
919.8490012545535
 20
-336.8943840786433
 30
0.0
 10
923.9507625894967
 20
-312.3352375667655
 30
0.0
 10
923.0084337463668
 20
-289.362982393508
 30
0.0
 10
871.7902302549246
 20
-236.7265022422271
 30
0.0
 10
831.7747381878999
 20
-195.5893040142182
 30
0.0
 10
828.9884105172241
 20
-144.3041329907774
 30
0.0
 10
843.9771791971616
 20
-111.7280162195784
 30
0.0
 10
855.9524089371407
 20
-85.72308852579226
 30
0.0
 10
878.5491675916892
 20
-71.14210428177648
 30
0.0
 10
904.3412342016218
 20
-72.8150967329675
 30
0.0
 10
957.2503678760404
 20
-76.17782351835012
 30
0.0
 10
968.0345322254652
 20
-131.2765563193825
 30
0.0
 10
966.353168832773
 20
-159.9386600149919
 30
0.0
 10
965.6643599322124
 20
-171.6412362318315
 30
0.0
 10
955.7388150109182
 20
-180.5323719534954
 30
0.0
 10
943.9070871252243
 20
-179.887809458005
 30
0.0
 10
932.2212527913834
 20
-179.2085673477286
 30
0.0
 10
923.3050042452196
 20
-169.1957254650788
 30
0.0
 10
923.9603293797827
 20
-157.5266330142385
 30
0.0
  0
HATCH
  5
63
330
56
100
AcDbEntity
  8
Layer 1
 62
   132
420
   709346
100
AcDbHatch
 10
0.0
 20
0.0
 30
0.0
210
0.0
220
0.0
230
1.0
  2
SOLID
 70
     1
 71
     0
 91
        1
 92
        1
 93
        1
 72
     4
 94
        3
 73
     0
 74
     1
 95
       56
 96
       52
 40
0.0
 40
0.0
 40
0.0
 40
0.0
 40
1.0
 40
1.0
 40
1.0
 40
2.0
 40
2.0
 40
2.0
 40
3.0
 40
3.0
 40
3.0
 40
4.0
 40
4.0
 40
4.0
 40
5.0
 40
5.0
 40
5.0
 40
6.0
 40
6.0
 40
6.0
 40
7.0
 40
7.0
 40
7.0
 40
8.0
 40
8.0
 40
8.0
 40
9.0
 40
9.0
 40
9.0
 40
10.0
 40
10.0
 40
10.0
 40
11.0
 40
11.0
 40
11.0
 40
12.0
 40
12.0
 40
12.0
 40
13.0
 40
13.0
 40
13.0
 40
14.0
 40
14.0
 40
14.0
 40
15.0
 40
15.0
 40
15.0
 40
16.0
 40
16.0
 40
16.0
 40
17.0
 40
17.0
 40
17.0
 40
17.0
 10
923.9603293797827
 20
-157.5266330142385
 10
924.0536055850662
 20
-155.5989247716934
 10
925.6416927724731
 20
-116.7290558413679
 10
901.6577495265155
 20
-115.2091320347463
 10
891.12710511966
 20
-114.4700974851839
 10
885.1478611911698
 20
-123.8634896968415
 10
882.5576527213489
 20
-129.4935457799074
 10
873.9140576983245
 20
-148.2611966226505
 10
876.3846812895754
 20
-180.5670515682814
 10
902.2269735485079
 20
-207.130440644989
 10
953.4523521326646
 20
-259.7752917377693
 10
969.5891356468728
 20
-296.8442123968343
 10
961.7324091248374
 20
-343.892491172548
 10
957.1379580901848
 20
-371.4675683219557
 10
929.0713870898544
 20
-392.5539699601686
 10
896.4534156111586
 20
-392.928270630091
 10
896.180762088019
 20
-392.928270630091
 10
895.9176753551656
 20
-392.928270630091
 10
895.645021832026
 20
-392.928270630091
 10
869.003902584247
 20
-392.928270630091
 10
837.9644515026721
 20
-377.7266408662999
 10
829.8135461793554
 20
-334.9164501870982
 10
827.6203595063853
 20
-323.392055439328
 10
835.1805155295679
 20
-312.2754451274795
 10
846.6941476382672
 20
-310.0846501520809
 10
858.219738234824
 20
-307.9105970596829
 10
869.3267817563865
 20
-315.4516195022934
 10
871.5271435220711
 20
-326.9676433085642
 10
874.5239405790289
 20
-342.7038174795634
 10
882.9068405667713
 20
-350.7291586803822
 10
895.9607259114509
 20
-350.4577010060293
 10
907.9670477198579
 20
-350.3213742444586
 10
918.8468799721377
 20
-342.9250495049182
 10
919.8490012545535
 20
-336.8943840786433
 10
923.9507625894967
 20
-312.3352375667655
 10
923.0084337463668
 20
-289.362982393508
 10
871.7902302549246
 20
-236.7265022422271
 10
831.7747381878999
 20
-195.5893040142182
 10
828.9884105172241
 20
-144.3041329907774
 10
843.9771791971616
 20
-111.7280162195784
 10
855.9524089371407
 20
-85.72308852579226
 10
878.5491675916892
 20
-71.14210428177648
 10
904.3412342016218
 20
-72.8150967329675
 10
957.2503678760404
 20
-76.17782351835012
 10
968.0345322254652
 20
-131.2765563193825
 10
966.353168832773
 20
-159.9386600149919
 10
965.6643599322124
 20
-171.6412362318315
 10
955.7388150109182
 20
-180.5323719534954
 10
943.9070871252243
 20
-179.887809458005
 10
932.2212527913834
 20
-179.2085673477286
 10
923.3050042452196
 20
-169.1957254650788
 10
923.9603293797827
 20
-157.5266330142385
 97
        0
 97
        0
 75
     2
 76
     1
 98
        0
  0
ENDBLK
  5
59
330
56
100
AcDbEntity
  8
0
100
AcDbBlockEnd
  0
BLOCK
  5
66
330
64
100
AcDbEntity
  8
0
100
AcDbBlockBegin
  2
block 5
 70
     0
 10
0.0
 20
0.0
 30
0.0
  3
block 5
  1

  0
SPLINE
  5
68
330
64
100
AcDbEntity
  8
Layer 1
370
     0
100
AcDbSpline
210
0.0
220
0.0
230
1.0
 70
    11
 71
     3
 72
    53
 73
    49
 74
     0
 42
0.0000000001
 43
0.0000000001
 12
1.0
 22
0.0
 32
0.0
 13
1.0
 23
0.0
 33
0.0
 40
0.0
 40
0.0
 40
0.0
 40
0.0
 40
1.0
 40
1.0
 40
1.0
 40
2.0
 40
2.0
 40
2.0
 40
3.0
 40
3.0
 40
3.0
 40
4.0
 40
4.0
 40
4.0
 40
5.0
 40
5.0
 40
5.0
 40
6.0
 40
6.0
 40
6.0
 40
7.0
 40
7.0
 40
7.0
 40
8.0
 40
8.0
 40
8.0
 40
9.0
 40
9.0
 40
9.0
 40
10.0
 40
10.0
 40
10.0
 40
11.0
 40
11.0
 40
11.0
 40
12.0
 40
12.0
 40
12.0
 40
13.0
 40
13.0
 40
13.0
 40
14.0
 40
14.0
 40
14.0
 40
15.0
 40
15.0
 40
15.0
 40
16.0
 40
16.0
 40
16.0
 40
16.0
 10
209.5236856042247
 20
-635.5911020727035
 30
0.0
 10
241.3619636746462
 20
-604.4739208200572
 30
0.0
 10
247.8745561615578
 20
-569.7392969906759
 30
0.0
 10
243.5336250694745
 20
-557.076454198921
 30
0.0
 10
240.2761329772329
 20
-546.9452232864878
 30
0.0
 10
226.8898016701314
 20
-546.2217347711394
 30
0.0
 10
222.1853325471948
 20
-555.990623501506
 30
0.0
 10
221.0995018497815
 20
-558.1610890475476
 30
0.0
 10
220.3772091832197
 20
-560.693896775656
 30
0.0
 10
219.6525248190865
 20
-562.8655581704843
 30
0.0
 10
210.6071246040683
 20
-591.0875895129557
 30
0.0
 10
194.6879855688567
 20
-608.4549014276454
 30
0.0
 10
191.7940315074684
 20
-609.5395362762738
 30
0.0
 10
190.3470544767733
 20
-608.4549014276454
 30
0.0
 10
189.98351644592
 20
-606.6455822148855
 30
0.0
 10
189.2612237793601
 20
-605.1974093354056
 30
0.0
 10
183.8344619898617
 20
-593.6192013922773
 30
0.0
 10
179.4911392002068
 20
-581.3175049338024
 30
0.0
 10
174.4255237439902
 20
-569.7392969906759
 30
0.0
 10
170.8068853184686
 20
-561.0562389577226
 30
0.0
 10
179.1299928669268
 20
-560.693896775656
 30
0.0
 10
195.41266993299
 20
-529.9402535538611
 30
0.0
 10
246.4275791308628
 20
-431.1631438552122
 30
0.0
 10
179.4911392002068
 20
-396.4285200258291
 30
0.0
 10
147.6504694322139
 20
-446.721136557142
 30
0.0
 10
128.4738383047625
 20
-477.1136334456551
 30
0.0
 10
130.284353366309
 20
-522.7029767028162
 30
0.0
 10
141.1378769453022
 20
-556.7141120168544
 30
0.0
 10
143.6706846734105
 20
-565.7595122318726
 30
0.0
 10
140.0544379454604
 20
-565.7595122318726
 30
0.0
 10
120.877806818009
 20
-594.3438857564106
 30
0.0
 10
98.44368359831606
 20
-628.3538252216604
 30
0.0
 10
112.9158456028326
 20
-651.1490947746333
 30
0.0
 10
140.4155842787422
 20
-658.0240294436117
 30
0.0
 10
154.1630619191255
 20
-661.6414720203484
 30
0.0
 10
167.5517849237986
 20
-659.4710064743049
 30
0.0
 10
180.5769698976201
 20
-654.0430488360234
 30
0.0
 10
188.5365394152268
 20
-650.7867525925667
 30
0.0
 10
183.8344619898617
 20
-650.7867525925667
 30
0.0
 10
208.07431687596
 20
-678.6476376017581
 30
0.0
 10
215.6727400602831
 20
-687.3306956347096
 30
0.0
 10
229.4226093982379
 20
-680.456956814518
 30
0.0
 10
225.8039709727163
 20
-669.2398952046715
 30
0.0
 10
223.9958476087413
 20
-663.8131334151749
 30
0.0
 10
220.7383555164997
 20
-660.1944949896533
 30
0.0
 10
208.4378549068115
 20
-641.7413523775485
 30
0.0
 10
206.2661935119831
 20
-638.4850561340918
 30
0.0
 10
206.2661935119831
 20
-638.4850561340918
 30
0.0
 10
209.5236856042247
 20
-635.5911020727035
 30
0.0
  0
SPLINE
  5
69
330
64
100
AcDbEntity
  8
Layer 1
370
     0
100
AcDbSpline
210
0.0
220
0.0
230
1.0
 70
    11
 71
     3
 72
    17
 73
    13
 74
     0
 42
0.0000000001
 43
0.0000000001
 12
1.0
 22
0.0
 32
0.0
 13
1.0
 23
0.0
 33
0.0
 40
0.0
 40
0.0
 40
0.0
 40
0.0
 40
1.0
 40
1.0
 40
1.0
 40
2.0
 40
2.0
 40
2.0
 40
3.0
 40
3.0
 40
3.0
 40
4.0
 40
4.0
 40
4.0
 40
4.0
 10
164.2942928315588
 20
-481.8181025685899
 30
0.0
 10
167.9129312570803
 20
-463.0026177744185
 30
0.0
 10
179.8522855334886
 20
-444.1883288290337
 30
0.0
 10
183.4709239590102
 20
-451.424409831292
 30
0.0
 10
195.7738162662699
 20
-475.66665641496
 30
0.0
 10
168.9987619544936
 20
-527.4074458257528
 30
0.0
 10
164.6578308624103
 20
-528.854422856446
 30
0.0
 10
164.2942928315588
 20
-528.4920806743812
 30
0.0
 10
163.933146498277
 20
-528.1309343410994
 30
0.0
 10
163.933146498277
 20
-527.4074458257528
 30
0.0
 10
162.125023134302
 20
-512.210599457103
 30
0.0
 10
161.4003387701687
 20
-497.0137530884531
 30
0.0
 10
164.2942928315588
 20
-481.8181025685899
 30
0.0
  0
SPLINE
  5
6A
330
64
100
AcDbEntity
  8
Layer 1
370
     0
100
AcDbSpline
210
0.0
220
0.0
230
1.0
 70
    11
 71
     3
 72
    17
 73
    13
 74
     0
 42
0.0000000001
 43
0.0000000001
 12
1.0
 22
0.0
 32
0.0
 13
1.0
 23
0.0
 33
0.0
 40
0.0
 40
0.0
 40
0.0
 40
0.0
 40
1.0
 40
1.0
 40
1.0
 40
2.0
 40
2.0
 40
2.0
 40
3.0
 40
3.0
 40
3.0
 40
4.0
 40
4.0
 40
4.0
 40
4.0
 10
165.741269862252
 20
-628.7161674037252
 30
0.0
 10
145.1176617041056
 20
-636.6757369213319
 30
0.0
 10
133.1783074276973
 20
-628.7161674037252
 30
0.0
 10
135.3499688225256
 20
-620.7565978861203
 30
0.0
 10
137.8827765506339
 20
-610.9877091557537
 30
0.0
 10
146.9281767656521
 20
-599.7706475459072
 30
0.0
 10
152.7160848884305
 20
-591.4487358462356
 30
0.0
 10
154.526599949977
 20
-592.8957128769307
 30
0.0
 10
154.526599949977
 20
-593.981543574344
 30
0.0
 10
155.2488926165388
 20
-595.0673742717572
 30
0.0
 10
169.3599082877736
 20
-629.8019981011403
 30
0.0
 10
172.6174003800152
 20
-626.1833596756187
 30
0.0
 10
165.741269862252
 20
-628.7161674037252
 30
0.0
  0
HATCH
  5
6B
330
64
100
AcDbEntity
  8
Layer 1
 62
   233
420
 16205721
100
AcDbHatch
 10
0.0
 20
0.0
 30
0.0
210
0.0
220
0.0
230
1.0
  2
SOLID
 70
     1
 71
     0
 91
        3
 92
        1
 93
        1
 72
     4
 94
        3
 73
     0
 74
     1
 95
       53
 96
       49
 40
0.0
 40
0.0
 40
0.0
 40
0.0
 40
1.0
 40
1.0
 40
1.0
 40
2.0
 40
2.0
 40
2.0
 40
3.0
 40
3.0
 40
3.0
 40
4.0
 40
4.0
 40
4.0
 40
5.0
 40
5.0
 40
5.0
 40
6.0
 40
6.0
 40
6.0
 40
7.0
 40
7.0
 40
7.0
 40
8.0
 40
8.0
 40
8.0
 40
9.0
 40
9.0
 40
9.0
 40
10.0
 40
10.0
 40
10.0
 40
11.0
 40
11.0
 40
11.0
 40
12.0
 40
12.0
 40
12.0
 40
13.0
 40
13.0
 40
13.0
 40
14.0
 40
14.0
 40
14.0
 40
15.0
 40
15.0
 40
15.0
 40
16.0
 40
16.0
 40
16.0
 40
16.0
 10
209.5236856042247
 20
-635.5911020727035
 10
241.3619636746462
 20
-604.4739208200572
 10
247.8745561615578
 20
-569.7392969906759
 10
243.5336250694745
 20
-557.076454198921
 10
240.2761329772329
 20
-546.9452232864878
 10
226.8898016701314
 20
-546.2217347711394
 10
222.1853325471948
 20
-555.990623501506
 10
221.0995018497815
 20
-558.1610890475476
 10
220.3772091832197
 20
-560.693896775656
 10
219.6525248190865
 20
-562.8655581704843
 10
210.6071246040683
 20
-591.0875895129557
 10
194.6879855688567
 20
-608.4549014276454
 10
191.7940315074684
 20
-609.5395362762738
 10
190.3470544767733
 20
-608.4549014276454
 10
189.98351644592
 20
-606.6455822148855
 10
189.2612237793601
 20
-605.1974093354056
 10
183.8344619898617
 20
-593.6192013922773
 10
179.4911392002068
 20
-581.3175049338024
 10
174.4255237439902
 20
-569.7392969906759
 10
170.8068853184686
 20
-561.0562389577226
 10
179.1299928669268
 20
-560.693896775656
 10
195.41266993299
 20
-529.9402535538611
 10
246.4275791308628
 20
-431.1631438552122
 10
179.4911392002068
 20
-396.4285200258291
 10
147.6504694322139
 20
-446.721136557142
 10
128.4738383047625
 20
-477.1136334456551
 10
130.284353366309
 20
-522.7029767028162
 10
141.1378769453022
 20
-556.7141120168544
 10
143.6706846734105
 20
-565.7595122318726
 10
140.0544379454604
 20
-565.7595122318726
 10
120.877806818009
 20
-594.3438857564106
 10
98.44368359831606
 20
-628.3538252216604
 10
112.9158456028326
 20
-651.1490947746333
 10
140.4155842787422
 20
-658.0240294436117
 10
154.1630619191255
 20
-661.6414720203484
 10
167.5517849237986
 20
-659.4710064743049
 10
180.5769698976201
 20
-654.0430488360234
 10
188.5365394152268
 20
-650.7867525925667
 10
183.8344619898617
 20
-650.7867525925667
 10
208.07431687596
 20
-678.6476376017581
 10
215.6727400602831
 20
-687.3306956347096
 10
229.4226093982379
 20
-680.456956814518
 10
225.8039709727163
 20
-669.2398952046715
 10
223.9958476087413
 20
-663.8131334151749
 10
220.7383555164997
 20
-660.1944949896533
 10
208.4378549068115
 20
-641.7413523775485
 10
206.2661935119831
 20
-638.4850561340918
 10
206.2661935119831
 20
-638.4850561340918
 10
209.5236856042247
 20
-635.5911020727035
 97
        0
 97
        0
 92
        1
 93
        1
 72
     4
 94
        3
 73
     0
 74
     1
 95
       17
 96
       13
 40
0.0
 40
0.0
 40
0.0
 40
0.0
 40
1.0
 40
1.0
 40
1.0
 40
2.0
 40
2.0
 40
2.0
 40
3.0
 40
3.0
 40
3.0
 40
4.0
 40
4.0
 40
4.0
 40
4.0
 10
164.2942928315588
 20
-481.8181025685899
 10
167.9129312570803
 20
-463.0026177744185
 10
179.8522855334886
 20
-444.1883288290337
 10
183.4709239590102
 20
-451.424409831292
 10
195.7738162662699
 20
-475.66665641496
 10
168.9987619544936
 20
-527.4074458257528
 10
164.6578308624103
 20
-528.854422856446
 10
164.2942928315588
 20
-528.4920806743812
 10
163.933146498277
 20
-528.1309343410994
 10
163.933146498277
 20
-527.4074458257528
 10
162.125023134302
 20
-512.210599457103
 10
161.4003387701687
 20
-497.0137530884531
 10
164.2942928315588
 20
-481.8181025685899
 97
        0
 97
        0
 92
        1
 93
        1
 72
     4
 94
        3
 73
     0
 74
     1
 95
       17
 96
       13
 40
0.0
 40
0.0
 40
0.0
 40
0.0
 40
1.0
 40
1.0
 40
1.0
 40
2.0
 40
2.0
 40
2.0
 40
3.0
 40
3.0
 40
3.0
 40
4.0
 40
4.0
 40
4.0
 40
4.0
 10
165.741269862252
 20
-628.7161674037252
 10
145.1176617041056
 20
-636.6757369213319
 10
133.1783074276973
 20
-628.7161674037252
 10
135.3499688225256
 20
-620.7565978861203
 10
137.8827765506339
 20
-610.9877091557537
 10
146.9281767656521
 20
-599.7706475459072
 10
152.7160848884305
 20
-591.4487358462356
 10
154.526599949977
 20
-592.8957128769307
 10
154.526599949977
 20
-593.981543574344
 10
155.2488926165388
 20
-595.0673742717572
 10
169.3599082877736
 20
-629.8019981011403
 10
172.6174003800152
 20
-626.1833596756187
 10
165.741269862252
 20
-628.7161674037252
 97
        0
 97
        0
 75
     2
 76
     1
 98
        0
  0
SPLINE
  5
6C
330
64
100
AcDbEntity
  8
Layer 1
370
     0
100
AcDbSpline
210
0.0
220
0.0
230
1.0
 70
    11
 71
     3
 72
    17
 73
    13
 74
     0
 42
0.0000000001
 43
0.0000000001
 12
1.0
 22
0.0
 32
0.0
 13
1.0
 23
0.0
 33
0.0
 40
0.0
 40
0.0
 40
0.0
 40
0.0
 40
1.0
 40
1.0
 40
1.0
 40
2.0
 40
2.0
 40
2.0
 40
3.0
 40
3.0
 40
3.0
 40
4.0
 40
4.0
 40
4.0
 40
4.0
 10
425.8814313078383
 20
-441.6555211009254
 30
0.0
 10
432.39402379475
 20
-439.8462018881637
 30
0.0
 10
437.0961012201133
 20
-432.2489745526254
 30
0.0
 10
437.0961012201133
 20
-423.5647206708873
 30
0.0
 10
437.0961012201133
 20
-416.328639668629
 30
0.0
 10
432.7551701280299
 20
-405.1115780587825
 30
0.0
 10
422.2627928823167
 20
-405.1115780587825
 30
0.0
 10
413.9396853338585
 20
-405.1115780587825
 30
0.0
 10
407.4270928469487
 20
-416.328639668629
 30
0.0
 10
407.4270928469487
 20
-424.6505513683005
 30
0.0
 10
407.0659465136669
 20
-436.9522478267754
 30
0.0
 10
415.3866623645536
 20
-444.5506710111003
 30
0.0
 10
425.8814313078383
 20
-441.6555211009254
 30
0.0
  0
HATCH
  5
6D
330
64
100
AcDbEntity
  8
Layer 1
 62
   233
420
 16205721
100
AcDbHatch
 10
0.0
 20
0.0
 30
0.0
210
0.0
220
0.0
230
1.0
  2
SOLID
 70
     1
 71
     0
 91
        1
 92
        1
 93
        1
 72
     4
 94
        3
 73
     0
 74
     1
 95
       17
 96
       13
 40
0.0
 40
0.0
 40
0.0
 40
0.0
 40
1.0
 40
1.0
 40
1.0
 40
2.0
 40
2.0
 40
2.0
 40
3.0
 40
3.0
 40
3.0
 40
4.0
 40
4.0
 40
4.0
 40
4.0
 10
425.8814313078383
 20
-441.6555211009254
 10
432.39402379475
 20
-439.8462018881637
 10
437.0961012201133
 20
-432.2489745526254
 10
437.0961012201133
 20
-423.5647206708873
 10
437.0961012201133
 20
-416.328639668629
 10
432.7551701280299
 20
-405.1115780587825
 10
422.2627928823167
 20
-405.1115780587825
 10
413.9396853338585
 20
-405.1115780587825
 10
407.4270928469487
 20
-416.328639668629
 10
407.4270928469487
 20
-424.6505513683005
 10
407.0659465136669
 20
-436.9522478267754
 10
415.3866623645536
 20
-444.5506710111003
 10
425.8814313078383
 20
-441.6555211009254
 97
        0
 97
        0
 75
     2
 76
     1
 98
        0
  0
SPLINE
  5
6E
330
64
100
AcDbEntity
  8
Layer 1
370
     0
100
AcDbSpline
210
0.0
220
0.0
230
1.0
 70
    11
 71
     3
 72
   200
 73
   196
 74
     0
 42
0.0000000001
 43
0.0000000001
 12
1.0
 22
0.0
 32
0.0
 13
1.0
 23
0.0
 33
0.0
 40
0.0
 40
0.0
 40
0.0
 40
0.0
 40
1.0
 40
1.0
 40
1.0
 40
2.0
 40
2.0
 40
2.0
 40
3.0
 40
3.0
 40
3.0
 40
4.0
 40
4.0
 40
4.0
 40
5.0
 40
5.0
 40
5.0
 40
6.0
 40
6.0
 40
6.0
 40
7.0
 40
7.0
 40
7.0
 40
8.0
 40
8.0
 40
8.0
 40
9.0
 40
9.0
 40
9.0
 40
10.0
 40
10.0
 40
10.0
 40
11.0
 40
11.0
 40
11.0
 40
12.0
 40
12.0
 40
12.0
 40
13.0
 40
13.0
 40
13.0
 40
14.0
 40
14.0
 40
14.0
 40
15.0
 40
15.0
 40
15.0
 40
16.0
 40
16.0
 40
16.0
 40
17.0
 40
17.0
 40
17.0
 40
18.0
 40
18.0
 40
18.0
 40
19.0
 40
19.0
 40
19.0
 40
20.0
 40
20.0
 40
20.0
 40
21.0
 40
21.0
 40
21.0
 40
22.0
 40
22.0
 40
22.0
 40
23.0
 40
23.0
 40
23.0
 40
24.0
 40
24.0
 40
24.0
 40
25.0
 40
25.0
 40
25.0
 40
26.0
 40
26.0
 40
26.0
 40
27.0
 40
27.0
 40
27.0
 40
28.0
 40
28.0
 40
28.0
 40
29.0
 40
29.0
 40
29.0
 40
30.0
 40
30.0
 40
30.0
 40
31.0
 40
31.0
 40
31.0
 40
32.0
 40
32.0
 40
32.0
 40
33.0
 40
33.0
 40
33.0
 40
34.0
 40
34.0
 40
34.0
 40
35.0
 40
35.0
 40
35.0
 40
36.0
 40
36.0
 40
36.0
 40
37.0
 40
37.0
 40
37.0
 40
38.0
 40
38.0
 40
38.0
 40
39.0
 40
39.0
 40
39.0
 40
40.0
 40
40.0
 40
40.0
 40
41.0
 40
41.0
 40
41.0
 40
42.0
 40
42.0
 40
42.0
 40
43.0
 40
43.0
 40
43.0
 40
44.0
 40
44.0
 40
44.0
 40
45.0
 40
45.0
 40
45.0
 40
46.0
 40
46.0
 40
46.0
 40
47.0
 40
47.0
 40
47.0
 40
48.0
 40
48.0
 40
48.0
 40
49.0
 40
49.0
 40
49.0
 40
50.0
 40
50.0
 40
50.0
 40
51.0
 40
51.0
 40
51.0
 40
52.0
 40
52.0
 40
52.0
 40
53.0
 40
53.0
 40
53.0
 40
54.0
 40
54.0
 40
54.0
 40
55.0
 40
55.0
 40
55.0
 40
56.0
 40
56.0
 40
56.0
 40
57.0
 40
57.0
 40
57.0
 40
58.0
 40
58.0
 40
58.0
 40
59.0
 40
59.0
 40
59.0
 40
60.0
 40
60.0
 40
60.0
 40
61.0
 40
61.0
 40
61.0
 40
62.0
 40
62.0
 40
62.0
 40
63.0
 40
63.0
 40
63.0
 40
64.0
 40
64.0
 40
64.0
 40
65.0
 40
65.0
 40
65.0
 40
65.0
 10
953.7576362046675
 20
-531.3872305845543
 30
0.0
 10
945.7980666870626
 20
-540.0702886175077
 30
0.0
 10
916.8513509804579
 20
-569.7392969906759
 30
0.0
 10
912.5104198883746
 20
-571.9109583855025
 30
0.0
 10
911.7857355242413
 20
-570.1016391727426
 30
0.0
 10
925.5356048621961
 20
-481.8181025685899
 30
0.0
 10
924.0886278315011
 20
-440.932032585577
 30
0.0
 10
923.7274814982211
 20
-431.1631438552122
 30
0.0
 10
918.6618660420045
 20
-422.4788899734722
 30
0.0
 10
908.891781462853
 20
-423.2035743376055
 30
0.0
 10
888.2681733047066
 20
-425.0116977015805
 30
0.0
 10
901.6545046118081
 20
-468.7917217459817
 30
0.0
 10
868.0057114798401
 20
-540.0702886175077
 30
0.0
 10
862.5789496903435
 20
-550.5638617120094
 30
0.0
 10
848.4679340191069
 20
-574.4437661136108
 30
0.0
 10
843.0411722296103
 20
-563.9501930191127
 30
0.0
 10
833.6322339837388
 20
-545.4982462557928
 30
0.0
 10
845.9351262909986
 20
-461.9179829257901
 30
0.0
 10
848.1067876858269
 20
-444.9118173443803
 30
0.0
 10
849.5537647165202
 20
-435.5052707960804
 30
0.0
 10
849.5537647165202
 20
-426.4598705810622
 30
0.0
 10
840.1472181682202
 20
-423.5647206708873
 30
0.0
 10
834.3569183478721
 20
-421.7554014581256
 30
0.0
 10
826.0362024969854
 20
-423.9270628529539
 30
0.0
 10
821.6928797073306
 20
-432.6101208859054
 30
0.0
 10
815.9049715845522
 20
-444.5506710111003
 30
0.0
 10
807.9454020669473
 20
-477.4759756277217
 30
0.0
 10
805.773740672119
 20
-503.5263455753648
 30
0.0
 10
804.9814908515946
 20
-513.8885247845355
 30
0.0
 10
804.8601121998454
 20
-523.2206297459252
 30
0.0
 10
805.3061637969113
 20
-531.615189259328
 30
0.0
 10
804.5369340655106
 20
-532.5768011641285
 30
0.0
 10
803.827496773396
 20
-533.6804201122286
 30
0.0
 10
803.2433246415821
 20
-535.0046731612911
 30
0.0
 10
799.2635398827806
 20
-543.3265848609644
 30
0.0
 10
773.2131699351357
 20
-612.0723440043821
 30
0.0
 10
757.6551772332059
 20
-626.1833596756187
 30
0.0
 10
755.8446621716594
 20
-627.9926788883786
 30
0.0
 10
755.1223695050976
 20
-627.6303367063119
 30
0.0
 10
754.0365388076843
 20
-625.4598711602703
 30
0.0
 10
746.7992619566412
 20
-608.8160477609272
 30
0.0
 10
749.3320696847495
 20
-569.0158084753275
 30
0.0
 10
751.1425847462942
 20
-550.9250080452894
 30
0.0
 10
752.5895617769893
 20
-538.9856537688793
 30
0.0
 10
768.5087008122009
 20
-532.4718654331828
 30
0.0
 10
782.6197164834357
 20
-459.7463215309635
 30
0.0
 10
793.4756317600022
 20
-404.0269432101541
 30
0.0
 10
762.357254658571
 20
-398.9613277539374
 30
0.0
 10
746.7992619566412
 20
-417.4144703660422
 30
0.0
 10
730.9103181032679
 20
-435.9112614588248
 30
0.0
 10
718.9093776143964
 20
-485.3398772424698
 30
0.0
 10
714.0527367334817
 20
-532.6923500530465
 30
0.0
 10
713.5947266485582
 20
-533.3935658847604
 30
0.0
 10
713.1654169344929
 20
-534.1521824581869
 30
0.0
 10
712.7893224913914
 20
-535.0046731612911
 30
0.0
 10
708.8095377325881
 20
-543.3265848609644
 30
0.0
 10
682.759167784945
 20
-612.0723440043821
 30
0.0
 10
667.2011750830152
 20
-626.1833596756187
 30
0.0
 10
665.3906600214668
 20
-627.9926788883786
 30
0.0
 10
664.6683673549069
 20
-627.6303367063119
 30
0.0
 10
663.5825366574918
 20
-625.4598711602703
 30
0.0
 10
656.3452598064487
 20
-608.8160477609272
 30
0.0
 10
658.878067534557
 20
-569.0158084753275
 30
0.0
 10
660.6885825961035
 20
-550.9250080452894
 30
0.0
 10
662.1355596267986
 20
-538.9856537688793
 30
0.0
 10
678.0546986620084
 20
-532.4718654331828
 30
0.0
 10
692.165714333245
 20
-459.7463215309635
 30
0.0
 10
703.0216296098097
 20
-404.0269432101541
 30
0.0
 10
671.9032525083785
 20
-398.9613277539374
 30
0.0
 10
656.3452598064487
 20
-417.4144703660422
 30
0.0
 10
640.0012954901194
 20
-436.4408729897914
 30
0.0
 10
627.78181363566
 20
-488.1910797097717
 30
0.0
 10
623.2097847657406
 20
-536.749267058527
 30
0.0
 10
615.6690612853254
 20
-555.6979395112066
 30
0.0
 10
578.9373699838288
 20
-632.3348058292486
 30
0.0
 10
550.7015863803226
 20
-632.3348058292486
 30
0.0
 10
525.3735090992377
 20
-632.3348058292486
 30
0.0
 10
518.4997702790442
 20
-605.5597515174723
 30
0.0
 10
519.9467473097393
 20
-575.1672546289574
 30
0.0
 10
520.3078936430211
 20
-571.5486162034358
 30
0.0
 10
520.3078936430211
 20
-571.5486162034358
 30
0.0
 10
523.9265320685427
 20
-572.2721047187842
 30
0.0
 10
554.6813711391242
 20
-578.0612086903475
 30
0.0
 10
603.165864306462
 20
-542.6030963456178
 30
0.0
 10
611.8501181882002
 20
-473.1338486868517
 30
0.0
 10
615.1052185828703
 20
-445.9976480417936
 30
0.0
 10
604.2516950038753
 20
-423.2035743376055
 30
0.0
 10
572.7721715691623
 20
-423.2035743376055
 30
0.0
 10
531.4170298999579
 20
-423.2035743376055
 30
0.0
 10
497.9843864360046
 20
-475.9910303980796
 30
0.0
 10
486.4013950977333
 20
-531.7003934853092
 30
0.0
 10
485.5115341200762
 20
-532.2945808507029
 30
0.0
 10
484.6273534241518
 20
-533.0307752593981
 30
0.0
 10
483.7724710234761
 20
-533.9200383126627
 30
0.0
 10
478.7068555672595
 20
-539.3468001021611
 30
0.0
 10
460.252517106368
 20
-557.076454198921
 30
0.0
 10
449.037847194093
 20
-565.3983658985926
 30
0.0
 10
446.5050394659847
 20
-567.5688314446343
 30
0.0
 10
446.1415014351333
 20
-566.483000747221
 30
0.0
 10
446.1415014351333
 20
-563.5890466858309
 30
0.0
 10
446.1415014351333
 20
-554.5436464708127
 30
0.0
 10
462.7853248344763
 20
-450.7009213159436
 30
0.0
 10
424.4344542771432
 20
-450.7009213159436
 30
0.0
 10
385.7176539913871
 20
-450.7009213159436
 30
0.0
 10
364.0106068333989
 20
-483.2650795992849
 30
0.0
 10
350.6218838287241
 20
-522.3418303695362
 30
0.0
 10
349.1749067980309
 20
-526.6827614616195
 30
0.0
 10
349.1749067980309
 20
-531.7483769178361
 30
0.0
 10
350.2607374954441
 20
-536.0905038587043
 30
0.0
 10
352.7935452235524
 20
-545.4982462557928
 30
0.0
 10
375.5888147765254
 20
-549.1156888325295
 30
0.0
 10
374.1394460482607
 20
-529.9402535538611
 30
0.0
 10
373.7782997149789
 20
-528.1309343410994
 30
0.0
 10
372.6924690175656
 20
-527.4074458257528
 30
0.0
 10
373.4171533816989
 20
-525.9592729462729
 30
0.0
 10
380.654430232742
 20
-510.7636224264079
 30
0.0
 10
402.361477390732
 20
-475.66665641496
 30
0.0
 10
415.750200395405
 20
-475.66665641496
 30
0.0
 10
425.156746943705
 20
-475.66665641496
 30
0.0
 10
418.2830081235134
 20
-531.0248884024895
 30
0.0
 10
415.3866623645536
 20
-571.1874698701558
 30
0.0
 10
415.0255160312718
 20
-576.9765738417191
 30
0.0
 10
413.9396853338585
 20
-578.4235508724141
 30
0.0
 10
408.8740698776419
 20
-579.8705279031074
 30
0.0
 10
347.0032454032025
 20
-597.6001819998655
 30
0.0
 10
328.1901523066026
 20
-687.3306956347096
 30
0.0
 10
385.7176539913871
 20
-687.3306956347096
 30
0.0
 10
403.8108461189968
 20
-687.3306956347096
 30
0.0
 10
418.6441544567951
 20
-673.2196799634748
 30
0.0
 10
427.6895546718133
 20
-656.5758565641318
 30
0.0
 10
432.39402379475
 20
-647.5304563491118
 30
0.0
 10
436.0126622202715
 20
-637.4004212854652
 30
0.0
 10
438.5430782508083
 20
-627.269190373032
 30
0.0
 10
445.4192087685715
 20
-599.7706475459072
 30
0.0
 10
442.1617166763299
 20
-596.1520091203856
 30
0.0
 10
447.2273321325465
 20
-593.981543574344
 30
0.0
 10
459.9247050579888
 20
-588.7993328615212
 30
0.0
 10
472.4229691606124
 20
-572.8695806683372
 30
0.0
 10
482.4893252764214
 20
-559.7165893555448
 30
0.0
 10
478.820760164097
 20
-612.2224230269876
 30
0.0
 10
496.9613377998394
 20
-659.8321528075867
 30
0.0
 10
548.8934630163458
 20
-659.8321528075867
 30
0.0
 10
580.7329369355539
 20
-659.8321528075867
 30
0.0
 10
604.8878865578663
 20
-628.3124189574555
 30
0.0
 10
621.7092935018863
 20
-592.5983949725869
 30
0.0
 10
621.8761144074906
 20
-595.4371905087355
 30
0.0
 10
622.0746253059169
 20
-598.2135029458314
 30
0.0
 10
622.3353203411989
 20
-600.8564782433223
 30
0.0
 10
623.421151038614
 20
-610.9877091557537
 30
0.0
 10
624.8681280693072
 20
-621.1177442194021
 30
0.0
 10
628.4867664948288
 20
-630.5254866164869
 30
0.0
 10
642.2342441352139
 20
-667.7929181739783
 30
0.0
 10
676.6077216313151
 20
-673.5820221455415
 30
0.0
 10
699.0418448510081
 20
-623.2894056142286
 30
0.0
 10
701.3839146977971
 20
-618.3122829681542
 30
0.0
 10
706.6280105852784
 20
-606.640948300841
 30
0.0
 10
712.2099337547206
 20
-593.3824233327086
 30
0.0
 10
712.369280605415
 20
-595.9440809127718
 30
0.0
 10
712.5525444318228
 20
-598.4573066170142
 30
0.0
 10
712.7893224913914
 20
-600.8564782433223
 30
0.0
 10
713.8751531888047
 20
-610.9877091557537
 30
0.0
 10
715.3221302194997
 20
-621.1177442194021
 30
0.0
 10
718.9407686450213
 20
-630.5254866164869
 30
0.0
 10
732.6882462854046
 20
-667.7929181739783
 30
0.0
 10
767.0617237815059
 20
-673.5820221455415
 30
0.0
 10
789.4958470011989
 20
-623.2894056142286
 30
0.0
 10
793.3028316104683
 20
-615.198292730196
 30
0.0
 10
804.7784955202224
 20
-589.421174230085
 30
0.0
 10
812.9093703763792
 20
-567.8834891563711
 30
0.0
 10
820.0946278052452
 20
-583.8098032842954
 30
0.0
 10
831.6423416043381
 20
-591.0875895129557
 30
0.0
 10
845.2128336244368
 20
-591.0875895129557
 30
0.0
 10
867.6445651465601
 20
-591.0875895129557
 30
0.0
 10
881.7555808177949
 20
-565.036023716526
 30
0.0
 10
881.7555808177949
 20
-565.036023716526
 30
0.0
 10
881.7555808177949
 20
-565.036023716526
 30
0.0
 10
879.2227730896866
 20
-580.5940164184558
 30
0.0
 10
878.1369423922733
 20
-586.383120390019
 30
0.0
 10
877.4146497257116
 20
-589.278270300194
 30
0.0
 10
876.3288190282983
 20
-590.725247330889
 30
0.0
 10
873.4324732693367
 20
-591.4487358462356
 30
0.0
 10
843.4023185628903
 20
-599.4095012126272
 30
0.0
 10
824.2256874354389
 20
-611.7111976711021
 30
0.0
 10
811.2005024616174
 20
-642.8271830749618
 30
0.0
 10
797.0894867903808
 20
-677.561806904343
 30
0.0
 10
843.0411722296103
 20
-719.1713654027044
 30
0.0
 10
883.9272422126214
 20
-660.1944949896533
 30
0.0
 10
900.2075275811148
 20
-636.6757369213319
 30
0.0
 10
902.0180426426614
 20
-601.9411130919489
 30
0.0
 10
908.5306351295712
 20
-598.6848168484939
 30
0.0
 10
925.1744585289161
 20
-590.3629051488224
 30
0.0
 10
954.4799288712293
 20
-564.6748773832442
 30
0.0
 10
966.0581368143557
 20
-547.3063696197678
 30
0.0
 10
977.2751984242041
 20
-529.5779113717945
 30
0.0
 10
962.8030364196875
 20
-521.2559996721229
 30
0.0
 10
953.7576362046675
 20
-531.3872305845543
 30
0.0
  0
SPLINE
  5
6F
330
64
100
AcDbEntity
  8
Layer 1
370
     0
100
AcDbSpline
210
0.0
220
0.0
230
1.0
 70
    11
 71
     3
 72
    17
 73
    13
 74
     0
 42
0.0000000001
 43
0.0000000001
 12
1.0
 22
0.0
 32
0.0
 13
1.0
 23
0.0
 33
0.0
 40
0.0
 40
0.0
 40
0.0
 40
0.0
 40
1.0
 40
1.0
 40
1.0
 40
2.0
 40
2.0
 40
2.0
 40
3.0
 40
3.0
 40
3.0
 40
4.0
 40
4.0
 40
4.0
 40
4.0
 10
527.1840241607842
 20
-537.5374808893994
 30
0.0
 10
527.5451704940642
 20
-534.6435268280111
 30
0.0
 10
536.2294243758024
 20
-511.8482572750363
 30
0.0
 10
547.0829479547992
 20
-492.3104798143031
 30
0.0
 10
553.2343941084291
 20
-481.8181025685899
 30
0.0
 10
565.5372864156907
 20
-464.8119369871802
 30
0.0
 10
576.7519563279657
 20
-460.1086637130302
 30
0.0
 10
578.9236177227922
 20
-464.8119369871802
 30
0.0
 10
578.5624713895122
 20
-468.7917217459817
 30
0.0
 10
578.1989333586589
 20
-473.1338486868517
 30
0.0
 10
570.239363841054
 20
-528.854422856446
 30
0.0
 10
524.6512164326759
 20
-550.5638617120094
 30
0.0
 10
527.1840241607842
 20
-537.5374808893994
 30
0.0
  0
SPLINE
  5
70
330
64
100
AcDbEntity
  8
Layer 1
370
     0
100
AcDbSpline
210
0.0
220
0.0
230
1.0
 70
    11
 71
     3
 72
    11
 73
     7
 74
     0
 42
0.0000000001
 43
0.0000000001
 12
1.0
 22
0.0
 32
0.0
 13
1.0
 23
0.0
 33
0.0
 40
0.0
 40
0.0
 40
0.0
 40
0.0
 40
1.0
 40
1.0
 40
1.0
 40
2.0
 40
2.0
 40
2.0
 40
2.0
 10
385.3565076581071
 20
-657.3005409282632
 30
0.0
 10
377.7580844737822
 20
-657.3005409282632
 30
0.0
 10
379.2050615044773
 20
-622.927063432162
 30
0.0
 10
407.4270928469487
 20
-612.4346861864487
 30
0.0
 10
407.4270928469487
 20
-620.7565978861203
 30
0.0
 10
401.2780383908885
 20
-657.3005409282632
 30
0.0
 10
385.3565076581071
 20
-657.3005409282632
 30
0.0
  0
SPLINE
  5
71
330
64
100
AcDbEntity
  8
Layer 1
370
     0
100
AcDbSpline
210
0.0
220
0.0
230
1.0
 70
    11
 71
     3
 72
    14
 73
    10
 74
     0
 42
0.0000000001
 43
0.0000000001
 12
1.0
 22
0.0
 32
0.0
 13
1.0
 23
0.0
 33
0.0
 40
0.0
 40
0.0
 40
0.0
 40
0.0
 40
1.0
 40
1.0
 40
1.0
 40
2.0
 40
2.0
 40
2.0
 40
3.0
 40
3.0
 40
3.0
 40
3.0
 10
841.5941951989153
 20
-666.3459411432832
 30
0.0
 10
836.1650417118472
 20
-666.3459411432832
 30
0.0
 10
834.3569183478721
 20
-662.364960535695
 30
0.0
 10
834.3569183478721
 20
-658.0240294436117
 30
0.0
 10
834.3569183478721
 20
-642.8271830749618
 30
0.0
 10
863.6647803877568
 20
-622.927063432162
 30
0.0
 10
871.6243499053617
 20
-621.1177442194021
 30
0.0
 10
870.1773728746684
 20
-634.8676135573569
 30
0.0
 10
851.0007417472152
 20
-666.3459411432832
 30
0.0
 10
841.5941951989153
 20
-666.3459411432832
 30
0.0
  0
HATCH
  5
72
330
64
100
AcDbEntity
  8
Layer 1
 62
   233
420
 16205721
100
AcDbHatch
 10
0.0
 20
0.0
 30
0.0
210
0.0
220
0.0
230
1.0
  2
SOLID
 70
     1
 71
     0
 91
        4
 92
        1
 93
        1
 72
     4
 94
        3
 73
     0
 74
     1
 95
      200
 96
      196
 40
0.0
 40
0.0
 40
0.0
 40
0.0
 40
1.0
 40
1.0
 40
1.0
 40
2.0
 40
2.0
 40
2.0
 40
3.0
 40
3.0
 40
3.0
 40
4.0
 40
4.0
 40
4.0
 40
5.0
 40
5.0
 40
5.0
 40
6.0
 40
6.0
 40
6.0
 40
7.0
 40
7.0
 40
7.0
 40
8.0
 40
8.0
 40
8.0
 40
9.0
 40
9.0
 40
9.0
 40
10.0
 40
10.0
 40
10.0
 40
11.0
 40
11.0
 40
11.0
 40
12.0
 40
12.0
 40
12.0
 40
13.0
 40
13.0
 40
13.0
 40
14.0
 40
14.0
 40
14.0
 40
15.0
 40
15.0
 40
15.0
 40
16.0
 40
16.0
 40
16.0
 40
17.0
 40
17.0
 40
17.0
 40
18.0
 40
18.0
 40
18.0
 40
19.0
 40
19.0
 40
19.0
 40
20.0
 40
20.0
 40
20.0
 40
21.0
 40
21.0
 40
21.0
 40
22.0
 40
22.0
 40
22.0
 40
23.0
 40
23.0
 40
23.0
 40
24.0
 40
24.0
 40
24.0
 40
25.0
 40
25.0
 40
25.0
 40
26.0
 40
26.0
 40
26.0
 40
27.0
 40
27.0
 40
27.0
 40
28.0
 40
28.0
 40
28.0
 40
29.0
 40
29.0
 40
29.0
 40
30.0
 40
30.0
 40
30.0
 40
31.0
 40
31.0
 40
31.0
 40
32.0
 40
32.0
 40
32.0
 40
33.0
 40
33.0
 40
33.0
 40
34.0
 40
34.0
 40
34.0
 40
35.0
 40
35.0
 40
35.0
 40
36.0
 40
36.0
 40
36.0
 40
37.0
 40
37.0
 40
37.0
 40
38.0
 40
38.0
 40
38.0
 40
39.0
 40
39.0
 40
39.0
 40
40.0
 40
40.0
 40
40.0
 40
41.0
 40
41.0
 40
41.0
 40
42.0
 40
42.0
 40
42.0
 40
43.0
 40
43.0
 40
43.0
 40
44.0
 40
44.0
 40
44.0
 40
45.0
 40
45.0
 40
45.0
 40
46.0
 40
46.0
 40
46.0
 40
47.0
 40
47.0
 40
47.0
 40
48.0
 40
48.0
 40
48.0
 40
49.0
 40
49.0
 40
49.0
 40
50.0
 40
50.0
 40
50.0
 40
51.0
 40
51.0
 40
51.0
 40
52.0
 40
52.0
 40
52.0
 40
53.0
 40
53.0
 40
53.0
 40
54.0
 40
54.0
 40
54.0
 40
55.0
 40
55.0
 40
55.0
 40
56.0
 40
56.0
 40
56.0
 40
57.0
 40
57.0
 40
57.0
 40
58.0
 40
58.0
 40
58.0
 40
59.0
 40
59.0
 40
59.0
 40
60.0
 40
60.0
 40
60.0
 40
61.0
 40
61.0
 40
61.0
 40
62.0
 40
62.0
 40
62.0
 40
63.0
 40
63.0
 40
63.0
 40
64.0
 40
64.0
 40
64.0
 40
65.0
 40
65.0
 40
65.0
 40
65.0
 10
953.7576362046675
 20
-531.3872305845543
 10
945.7980666870626
 20
-540.0702886175077
 10
916.8513509804579
 20
-569.7392969906759
 10
912.5104198883746
 20
-571.9109583855025
 10
911.7857355242413
 20
-570.1016391727426
 10
925.5356048621961
 20
-481.8181025685899
 10
924.0886278315011
 20
-440.932032585577
 10
923.7274814982211
 20
-431.1631438552122
 10
918.6618660420045
 20
-422.4788899734722
 10
908.891781462853
 20
-423.2035743376055
 10
888.2681733047066
 20
-425.0116977015805
 10
901.6545046118081
 20
-468.7917217459817
 10
868.0057114798401
 20
-540.0702886175077
 10
862.5789496903435
 20
-550.5638617120094
 10
848.4679340191069
 20
-574.4437661136108
 10
843.0411722296103
 20
-563.9501930191127
 10
833.6322339837388
 20
-545.4982462557928
 10
845.9351262909986
 20
-461.9179829257901
 10
848.1067876858269
 20
-444.9118173443803
 10
849.5537647165202
 20
-435.5052707960804
 10
849.5537647165202
 20
-426.4598705810622
 10
840.1472181682202
 20
-423.5647206708873
 10
834.3569183478721
 20
-421.7554014581256
 10
826.0362024969854
 20
-423.9270628529539
 10
821.6928797073306
 20
-432.6101208859054
 10
815.9049715845522
 20
-444.5506710111003
 10
807.9454020669473
 20
-477.4759756277217
 10
805.773740672119
 20
-503.5263455753648
 10
804.9814908515946
 20
-513.8885247845355
 10
804.8601121998454
 20
-523.2206297459252
 10
805.3061637969113
 20
-531.615189259328
 10
804.5369340655106
 20
-532.5768011641285
 10
803.827496773396
 20
-533.6804201122286
 10
803.2433246415821
 20
-535.0046731612911
 10
799.2635398827806
 20
-543.3265848609644
 10
773.2131699351357
 20
-612.0723440043821
 10
757.6551772332059
 20
-626.1833596756187
 10
755.8446621716594
 20
-627.9926788883786
 10
755.1223695050976
 20
-627.6303367063119
 10
754.0365388076843
 20
-625.4598711602703
 10
746.7992619566412
 20
-608.8160477609272
 10
749.3320696847495
 20
-569.0158084753275
 10
751.1425847462942
 20
-550.9250080452894
 10
752.5895617769893
 20
-538.9856537688793
 10
768.5087008122009
 20
-532.4718654331828
 10
782.6197164834357
 20
-459.7463215309635
 10
793.4756317600022
 20
-404.0269432101541
 10
762.357254658571
 20
-398.9613277539374
 10
746.7992619566412
 20
-417.4144703660422
 10
730.9103181032679
 20
-435.9112614588248
 10
718.9093776143964
 20
-485.3398772424698
 10
714.0527367334817
 20
-532.6923500530465
 10
713.5947266485582
 20
-533.3935658847604
 10
713.1654169344929
 20
-534.1521824581869
 10
712.7893224913914
 20
-535.0046731612911
 10
708.8095377325881
 20
-543.3265848609644
 10
682.759167784945
 20
-612.0723440043821
 10
667.2011750830152
 20
-626.1833596756187
 10
665.3906600214668
 20
-627.9926788883786
 10
664.6683673549069
 20
-627.6303367063119
 10
663.5825366574918
 20
-625.4598711602703
 10
656.3452598064487
 20
-608.8160477609272
 10
658.878067534557
 20
-569.0158084753275
 10
660.6885825961035
 20
-550.9250080452894
 10
662.1355596267986
 20
-538.9856537688793
 10
678.0546986620084
 20
-532.4718654331828
 10
692.165714333245
 20
-459.7463215309635
 10
703.0216296098097
 20
-404.0269432101541
 10
671.9032525083785
 20
-398.9613277539374
 10
656.3452598064487
 20
-417.4144703660422
 10
640.0012954901194
 20
-436.4408729897914
 10
627.78181363566
 20
-488.1910797097717
 10
623.2097847657406
 20
-536.749267058527
 10
615.6690612853254
 20
-555.6979395112066
 10
578.9373699838288
 20
-632.3348058292486
 10
550.7015863803226
 20
-632.3348058292486
 10
525.3735090992377
 20
-632.3348058292486
 10
518.4997702790442
 20
-605.5597515174723
 10
519.9467473097393
 20
-575.1672546289574
 10
520.3078936430211
 20
-571.5486162034358
 10
520.3078936430211
 20
-571.5486162034358
 10
523.9265320685427
 20
-572.2721047187842
 10
554.6813711391242
 20
-578.0612086903475
 10
603.165864306462
 20
-542.6030963456178
 10
611.8501181882002
 20
-473.1338486868517
 10
615.1052185828703
 20
-445.9976480417936
 10
604.2516950038753
 20
-423.2035743376055
 10
572.7721715691623
 20
-423.2035743376055
 10
531.4170298999579
 20
-423.2035743376055
 10
497.9843864360046
 20
-475.9910303980796
 10
486.4013950977333
 20
-531.7003934853092
 10
485.5115341200762
 20
-532.2945808507029
 10
484.6273534241518
 20
-533.0307752593981
 10
483.7724710234761
 20
-533.9200383126627
 10
478.7068555672595
 20
-539.3468001021611
 10
460.252517106368
 20
-557.076454198921
 10
449.037847194093
 20
-565.3983658985926
 10
446.5050394659847
 20
-567.5688314446343
 10
446.1415014351333
 20
-566.483000747221
 10
446.1415014351333
 20
-563.5890466858309
 10
446.1415014351333
 20
-554.5436464708127
 10
462.7853248344763
 20
-450.7009213159436
 10
424.4344542771432
 20
-450.7009213159436
 10
385.7176539913871
 20
-450.7009213159436
 10
364.0106068333989
 20
-483.2650795992849
 10
350.6218838287241
 20
-522.3418303695362
 10
349.1749067980309
 20
-526.6827614616195
 10
349.1749067980309
 20
-531.7483769178361
 10
350.2607374954441
 20
-536.0905038587043
 10
352.7935452235524
 20
-545.4982462557928
 10
375.5888147765254
 20
-549.1156888325295
 10
374.1394460482607
 20
-529.9402535538611
 10
373.7782997149789
 20
-528.1309343410994
 10
372.6924690175656
 20
-527.4074458257528
 10
373.4171533816989
 20
-525.9592729462729
 10
380.654430232742
 20
-510.7636224264079
 10
402.361477390732
 20
-475.66665641496
 10
415.750200395405
 20
-475.66665641496
 10
425.156746943705
 20
-475.66665641496
 10
418.2830081235134
 20
-531.0248884024895
 10
415.3866623645536
 20
-571.1874698701558
 10
415.0255160312718
 20
-576.9765738417191
 10
413.9396853338585
 20
-578.4235508724141
 10
408.8740698776419
 20
-579.8705279031074
 10
347.0032454032025
 20
-597.6001819998655
 10
328.1901523066026
 20
-687.3306956347096
 10
385.7176539913871
 20
-687.3306956347096
 10
403.8108461189968
 20
-687.3306956347096
 10
418.6441544567951
 20
-673.2196799634748
 10
427.6895546718133
 20
-656.5758565641318
 10
432.39402379475
 20
-647.5304563491118
 10
436.0126622202715
 20
-637.4004212854652
 10
438.5430782508083
 20
-627.269190373032
 10
445.4192087685715
 20
-599.7706475459072
 10
442.1617166763299
 20
-596.1520091203856
 10
447.2273321325465
 20
-593.981543574344
 10
459.9247050579888
 20
-588.7993328615212
 10
472.4229691606124
 20
-572.8695806683372
 10
482.4893252764214
 20
-559.7165893555448
 10
478.820760164097
 20
-612.2224230269876
 10
496.9613377998394
 20
-659.8321528075867
 10
548.8934630163458
 20
-659.8321528075867
 10
580.7329369355539
 20
-659.8321528075867
 10
604.8878865578663
 20
-628.3124189574555
 10
621.7092935018863
 20
-592.5983949725869
 10
621.8761144074906
 20
-595.4371905087355
 10
622.0746253059169
 20
-598.2135029458314
 10
622.3353203411989
 20
-600.8564782433223
 10
623.421151038614
 20
-610.9877091557537
 10
624.8681280693072
 20
-621.1177442194021
 10
628.4867664948288
 20
-630.5254866164869
 10
642.2342441352139
 20
-667.7929181739783
 10
676.6077216313151
 20
-673.5820221455415
 10
699.0418448510081
 20
-623.2894056142286
 10
701.3839146977971
 20
-618.3122829681542
 10
706.6280105852784
 20
-606.640948300841
 10
712.2099337547206
 20
-593.3824233327086
 10
712.369280605415
 20
-595.9440809127718
 10
712.5525444318228
 20
-598.4573066170142
 10
712.7893224913914
 20
-600.8564782433223
 10
713.8751531888047
 20
-610.9877091557537
 10
715.3221302194997
 20
-621.1177442194021
 10
718.9407686450213
 20
-630.5254866164869
 10
732.6882462854046
 20
-667.7929181739783
 10
767.0617237815059
 20
-673.5820221455415
 10
789.4958470011989
 20
-623.2894056142286
 10
793.3028316104683
 20
-615.198292730196
 10
804.7784955202224
 20
-589.421174230085
 10
812.9093703763792
 20
-567.8834891563711
 10
820.0946278052452
 20
-583.8098032842954
 10
831.6423416043381
 20
-591.0875895129557
 10
845.2128336244368
 20
-591.0875895129557
 10
867.6445651465601
 20
-591.0875895129557
 10
881.7555808177949
 20
-565.036023716526
 10
881.7555808177949
 20
-565.036023716526
 10
881.7555808177949
 20
-565.036023716526
 10
879.2227730896866
 20
-580.5940164184558
 10
878.1369423922733
 20
-586.383120390019
 10
877.4146497257116
 20
-589.278270300194
 10
876.3288190282983
 20
-590.725247330889
 10
873.4324732693367
 20
-591.4487358462356
 10
843.4023185628903
 20
-599.4095012126272
 10
824.2256874354389
 20
-611.7111976711021
 10
811.2005024616174
 20
-642.8271830749618
 10
797.0894867903808
 20
-677.561806904343
 10
843.0411722296103
 20
-719.1713654027044
 10
883.9272422126214
 20
-660.1944949896533
 10
900.2075275811148
 20
-636.6757369213319
 10
902.0180426426614
 20
-601.9411130919489
 10
908.5306351295712
 20
-598.6848168484939
 10
925.1744585289161
 20
-590.3629051488224
 10
954.4799288712293
 20
-564.6748773832442
 10
966.0581368143557
 20
-547.3063696197678
 10
977.2751984242041
 20
-529.5779113717945
 10
962.8030364196875
 20
-521.2559996721229
 10
953.7576362046675
 20
-531.3872305845543
 97
        0
 97
        0
 92
        1
 93
        1
 72
     4
 94
        3
 73
     0
 74
     1
 95
       17
 96
       13
 40
0.0
 40
0.0
 40
0.0
 40
0.0
 40
1.0
 40
1.0
 40
1.0
 40
2.0
 40
2.0
 40
2.0
 40
3.0
 40
3.0
 40
3.0
 40
4.0
 40
4.0
 40
4.0
 40
4.0
 10
527.1840241607842
 20
-537.5374808893994
 10
527.5451704940642
 20
-534.6435268280111
 10
536.2294243758024
 20
-511.8482572750363
 10
547.0829479547992
 20
-492.3104798143031
 10
553.2343941084291
 20
-481.8181025685899
 10
565.5372864156907
 20
-464.8119369871802
 10
576.7519563279657
 20
-460.1086637130302
 10
578.9236177227922
 20
-464.8119369871802
 10
578.5624713895122
 20
-468.7917217459817
 10
578.1989333586589
 20
-473.1338486868517
 10
570.239363841054
 20
-528.854422856446
 10
524.6512164326759
 20
-550.5638617120094
 10
527.1840241607842
 20
-537.5374808893994
 97
        0
 97
        0
 92
        1
 93
        1
 72
     4
 94
        3
 73
     0
 74
     1
 95
       11
 96
        7
 40
0.0
 40
0.0
 40
0.0
 40
0.0
 40
1.0
 40
1.0
 40
1.0
 40
2.0
 40
2.0
 40
2.0
 40
2.0
 10
385.3565076581071
 20
-657.3005409282632
 10
377.7580844737822
 20
-657.3005409282632
 10
379.2050615044773
 20
-622.927063432162
 10
407.4270928469487
 20
-612.4346861864487
 10
407.4270928469487
 20
-620.7565978861203
 10
401.2780383908885
 20
-657.3005409282632
 10
385.3565076581071
 20
-657.3005409282632
 97
        0
 97
        0
 92
        1
 93
        1
 72
     4
 94
        3
 73
     0
 74
     1
 95
       14
 96
       10
 40
0.0
 40
0.0
 40
0.0
 40
0.0
 40
1.0
 40
1.0
 40
1.0
 40
2.0
 40
2.0
 40
2.0
 40
3.0
 40
3.0
 40
3.0
 40
3.0
 10
841.5941951989153
 20
-666.3459411432832
 10
836.1650417118472
 20
-666.3459411432832
 10
834.3569183478721
 20
-662.364960535695
 10
834.3569183478721
 20
-658.0240294436117
 10
834.3569183478721
 20
-642.8271830749618
 10
863.6647803877568
 20
-622.927063432162
 10
871.6243499053617
 20
-621.1177442194021
 10
870.1773728746684
 20
-634.8676135573569
 10
851.0007417472152
 20
-666.3459411432832
 10
841.5941951989153
 20
-666.3459411432832
 97
        0
 97
        0
 75
     2
 76
     1
 98
        0
  0
ENDBLK
  5
67
330
64
100
AcDbEntity
  8
0
100
AcDbBlockEnd
  0
BLOCK
  5
75
330
73
100
AcDbEntity
  8
0
100
AcDbBlockBegin
  2
block 6
 70
     0
 10
0.0
 20
0.0
 30
0.0
  3
block 6
  1

  0
SPLINE
  5
77
330
73
100
AcDbEntity
  8
Layer 1
370
     0
100
AcDbSpline
210
0.0
220
0.0
230
1.0
 70
    11
 71
     3
 72
    35
 73
    31
 74
     0
 42
0.0000000001
 43
0.0000000001
 12
1.0
 22
0.0
 32
0.0
 13
1.0
 23
0.0
 33
0.0
 40
0.0
 40
0.0
 40
0.0
 40
0.0
 40
1.0
 40
1.0
 40
1.0
 40
2.0
 40
2.0
 40
2.0
 40
3.0
 40
3.0
 40
3.0
 40
4.0
 40
4.0
 40
4.0
 40
5.0
 40
5.0
 40
5.0
 40
6.0
 40
6.0
 40
6.0
 40
7.0
 40
7.0
 40
7.0
 40
8.0
 40
8.0
 40
8.0
 40
9.0
 40
9.0
 40
9.0
 40
10.0
 40
10.0
 40
10.0
 40
10.0
 10
174.0415125685286
 20
-146.28602543136
 30
0.0
 10
166.578446039799
 20
-147.5549806249692
 30
0.0
 10
159.9154794209826
 20
-150.6884786405644
 30
0.0
 10
154.032876344465
 20
-155.3808388871421
 30
0.0
 10
133.1296542931959
 20
-172.0547283079432
 30
0.0
 10
121.5011263708584
 20
-193.4126638362195
 30
0.0
 10
121.3113775139118
 20
-220.5279464388022
 30
0.0
 10
121.548913245153
 20
-224.1202761498407
 30
0.0
 10
121.5165891155466
 20
-227.7547981742791
 30
0.0
 10
122.0694405148843
 20
-231.2980200730344
 30
0.0
 10
124.8641567875293
 20
-249.2084628556076
 30
0.0
 10
133.1141138462699
 20
-263.2743544735604
 30
0.0
 10
150.9372193171293
 20
-269.7696396700721
 30
0.0
 10
160.5439350946035
 20
-273.2706692554275
 30
0.0
 10
170.2120356374216
 20
-273.0702751923382
 30
0.0
 10
178.5567894224041
 20
-266.2066037014865
 30
0.0
 10
187.4956544933048
 20
-258.8543405593318
 30
0.0
 10
188.3126157881197
 20
-248.9198767562211
 30
0.0
 10
186.3950800421244
 20
-238.3980617616089
 30
0.0
 10
185.7517832416852
 20
-234.8683600516761
 30
0.0
 10
184.9958182010432
 20
-231.329256371353
 30
0.0
 10
183.9120274325396
 20
-227.9149424798325
 30
0.0
 10
179.480125076414
 20
-213.9529387495713
 30
0.0
 10
181.4015459341426
 20
-201.2695252900103
 30
0.0
 10
190.7562733647374
 20
-189.7380474587189
 30
0.0
 10
194.2097491825116
 20
-185.4810528327253
 30
0.0
 10
197.1790623763482
 20
-180.8239694006643
 30
0.0
 10
198.9693218620396
 20
-175.5185385229179
 30
0.0
 10
204.706544057577
 20
-158.5160463519005
 30
0.0
 10
191.7425478287969
 20
-143.2762293732831
 30
0.0
 10
174.0415125685286
 20
-146.28602543136
 30
0.0
  0
SPLINE
  5
78
330
73
100
AcDbEntity
  8
Layer 1
370
     0
100
AcDbSpline
210
0.0
220
0.0
230
1.0
 70
    11
 71
     3
 72
    35
 73
    31
 74
     0
 42
0.0000000001
 43
0.0000000001
 12
1.0
 22
0.0
 32
0.0
 13
1.0
 23
0.0
 33
0.0
 40
0.0
 40
0.0
 40
0.0
 40
0.0
 40
1.0
 40
1.0
 40
1.0
 40
2.0
 40
2.0
 40
2.0
 40
3.0
 40
3.0
 40
3.0
 40
4.0
 40
4.0
 40
4.0
 40
5.0
 40
5.0
 40
5.0
 40
6.0
 40
6.0
 40
6.0
 40
7.0
 40
7.0
 40
7.0
 40
8.0
 40
8.0
 40
8.0
 40
9.0
 40
9.0
 40
9.0
 40
10.0
 40
10.0
 40
10.0
 40
10.0
 10
196.2140006223472
 20
-172.5887757665023
 30
0.0
 10
193.4204498832169
 20
-180.875252875514
 30
0.0
 10
189.3172279795454
 20
-188.4497444086883
 30
0.0
 10
181.8608438429965
 20
-193.7735130138044
 30
0.0
 10
179.137302817262
 20
-195.7180891374537
 30
0.0
 10
176.7286889484603
 20
-198.233232769926
 30
0.0
 10
174.5712864041852
 20
-200.8177644979187
 30
0.0
 10
166.8553768039983
 20
-210.061533137472
 30
0.0
 10
168.0527682395204
 20
-221.1993714481705
 30
0.0
 10
177.4402083108871
 20
-228.7509408221322
 30
0.0
 10
185.6606385204759
 20
-235.3636340951543
 30
0.0
 10
184.7089415508253
 20
-244.3523062984441
 30
0.0
 10
183.0804581176144
 20
-253.0025852699582
 30
0.0
 10
181.51561281457
 20
-261.3143933074607
 30
0.0
 10
174.4091218405247
 20
-267.0412034035617
 30
0.0
 10
166.2590898555063
 20
-268.1308218396607
 30
0.0
 10
152.2526404470391
 20
-270.0035233962808
 30
0.0
 10
138.2587788005821
 20
-262.2048609162248
 30
0.0
 10
130.8866238863666
 20
-248.3339242049369
 30
0.0
 10
126.198925773866
 20
-239.5137881485425
 30
0.0
 10
124.7432521104602
 20
-229.9571903124015
 30
0.0
 10
124.6479114685735
 20
-220.2113098327172
 30
0.0
 10
125.1437294276966
 20
-193.1602869781691
 30
0.0
 10
136.8760675354824
 20
-172.1286231330687
 30
0.0
 10
158.4413903279656
 20
-156.4481567819093
 30
0.0
 10
165.0585903305946
 20
-151.6366790096545
 30
0.0
 10
172.4775996922981
 20
-148.6719502476572
 30
0.0
 10
181.0134232722048
 20
-149.6321944631163
 30
0.0
 10
192.5518166023812
 20
-150.9300548880074
 30
0.0
 10
199.9088972830868
 20
-161.6287201686173
 30
0.0
 10
196.2140006223472
 20
-172.5887757665023
 30
0.0
  0
SPLINE
  5
79
330
73
100
AcDbEntity
  8
Layer 1
370
     0
100
AcDbSpline
210
0.0
220
0.0
230
1.0
 70
    11
 71
     3
 72
    11
 73
     7
 74
     0
 42
0.0000000001
 43
0.0000000001
 12
1.0
 22
0.0
 32
0.0
 13
1.0
 23
0.0
 33
0.0
 40
0.0
 40
0.0
 40
0.0
 40
0.0
 40
1.0
 40
1.0
 40
1.0
 40
2.0
 40
2.0
 40
2.0
 40
2.0
 10
179.8318053903131
 20
-225.2243472015798
 30
0.0
 10
170.3087749195311
 20
-217.8894116577485
 30
0.0
 10
170.8470182987585
 20
-207.4579643619963
 30
0.0
 10
181.1044125889566
 20
-199.5881266350261
 30
0.0
 10
177.2128515723871
 20
-208.2868918009444
 30
0.0
 10
177.8838880705789
 20
-216.3538600971497
 30
0.0
 10
179.8318053903131
 20
-225.2243472015798
 30
0.0
  0
HATCH
  5
7A
330
73
100
AcDbEntity
  8
Layer 1
 62
   132
420
   709346
100
AcDbHatch
 10
0.0
 20
0.0
 30
0.0
210
0.0
220
0.0
230
1.0
  2
SOLID
 70
     1
 71
     0
 91
        3
 92
        1
 93
        1
 72
     4
 94
        3
 73
     0
 74
     1
 95
       35
 96
       31
 40
0.0
 40
0.0
 40
0.0
 40
0.0
 40
1.0
 40
1.0
 40
1.0
 40
2.0
 40
2.0
 40
2.0
 40
3.0
 40
3.0
 40
3.0
 40
4.0
 40
4.0
 40
4.0
 40
5.0
 40
5.0
 40
5.0
 40
6.0
 40
6.0
 40
6.0
 40
7.0
 40
7.0
 40
7.0
 40
8.0
 40
8.0
 40
8.0
 40
9.0
 40
9.0
 40
9.0
 40
10.0
 40
10.0
 40
10.0
 40
10.0
 10
174.0415125685286
 20
-146.28602543136
 10
166.578446039799
 20
-147.5549806249692
 10
159.9154794209826
 20
-150.6884786405644
 10
154.032876344465
 20
-155.3808388871421
 10
133.1296542931959
 20
-172.0547283079432
 10
121.5011263708584
 20
-193.4126638362195
 10
121.3113775139118
 20
-220.5279464388022
 10
121.548913245153
 20
-224.1202761498407
 10
121.5165891155466
 20
-227.7547981742791
 10
122.0694405148843
 20
-231.2980200730344
 10
124.8641567875293
 20
-249.2084628556076
 10
133.1141138462699
 20
-263.2743544735604
 10
150.9372193171293
 20
-269.7696396700721
 10
160.5439350946035
 20
-273.2706692554275
 10
170.2120356374216
 20
-273.0702751923382
 10
178.5567894224041
 20
-266.2066037014865
 10
187.4956544933048
 20
-258.8543405593318
 10
188.3126157881197
 20
-248.9198767562211
 10
186.3950800421244
 20
-238.3980617616089
 10
185.7517832416852
 20
-234.8683600516761
 10
184.9958182010432
 20
-231.329256371353
 10
183.9120274325396
 20
-227.9149424798325
 10
179.480125076414
 20
-213.9529387495713
 10
181.4015459341426
 20
-201.2695252900103
 10
190.7562733647374
 20
-189.7380474587189
 10
194.2097491825116
 20
-185.4810528327253
 10
197.1790623763482
 20
-180.8239694006643
 10
198.9693218620396
 20
-175.5185385229179
 10
204.706544057577
 20
-158.5160463519005
 10
191.7425478287969
 20
-143.2762293732831
 10
174.0415125685286
 20
-146.28602543136
 97
        0
 97
        0
 92
        1
 93
        1
 72
     4
 94
        3
 73
     0
 74
     1
 95
       35
 96
       31
 40
0.0
 40
0.0
 40
0.0
 40
0.0
 40
1.0
 40
1.0
 40
1.0
 40
2.0
 40
2.0
 40
2.0
 40
3.0
 40
3.0
 40
3.0
 40
4.0
 40
4.0
 40
4.0
 40
5.0
 40
5.0
 40
5.0
 40
6.0
 40
6.0
 40
6.0
 40
7.0
 40
7.0
 40
7.0
 40
8.0
 40
8.0
 40
8.0
 40
9.0
 40
9.0
 40
9.0
 40
10.0
 40
10.0
 40
10.0
 40
10.0
 10
196.2140006223472
 20
-172.5887757665023
 10
193.4204498832169
 20
-180.875252875514
 10
189.3172279795454
 20
-188.4497444086883
 10
181.8608438429965
 20
-193.7735130138044
 10
179.137302817262
 20
-195.7180891374537
 10
176.7286889484603
 20
-198.233232769926
 10
174.5712864041852
 20
-200.8177644979187
 10
166.8553768039983
 20
-210.061533137472
 10
168.0527682395204
 20
-221.1993714481705
 10
177.4402083108871
 20
-228.7509408221322
 10
185.6606385204759
 20
-235.3636340951543
 10
184.7089415508253
 20
-244.3523062984441
 10
183.0804581176144
 20
-253.0025852699582
 10
181.51561281457
 20
-261.3143933074607
 10
174.4091218405247
 20
-267.0412034035617
 10
166.2590898555063
 20
-268.1308218396607
 10
152.2526404470391
 20
-270.0035233962808
 10
138.2587788005821
 20
-262.2048609162248
 10
130.8866238863666
 20
-248.3339242049369
 10
126.198925773866
 20
-239.5137881485425
 10
124.7432521104602
 20
-229.9571903124015
 10
124.6479114685735
 20
-220.2113098327172
 10
125.1437294276966
 20
-193.1602869781691
 10
136.8760675354824
 20
-172.1286231330687
 10
158.4413903279656
 20
-156.4481567819093
 10
165.0585903305946
 20
-151.6366790096545
 10
172.4775996922981
 20
-148.6719502476572
 10
181.0134232722048
 20
-149.6321944631163
 10
192.5518166023812
 20
-150.9300548880074
 10
199.9088972830868
 20
-161.6287201686173
 10
196.2140006223472
 20
-172.5887757665023
 97
        0
 97
        0
 92
        1
 93
        1
 72
     4
 94
        3
 73
     0
 74
     1
 95
       11
 96
        7
 40
0.0
 40
0.0
 40
0.0
 40
0.0
 40
1.0
 40
1.0
 40
1.0
 40
2.0
 40
2.0
 40
2.0
 40
2.0
 10
179.8318053903131
 20
-225.2243472015798
 10
170.3087749195311
 20
-217.8894116577485
 10
170.8470182987585
 20
-207.4579643619963
 10
181.1044125889566
 20
-199.5881266350261
 10
177.2128515723871
 20
-208.2868918009444
 10
177.8838880705789
 20
-216.3538600971497
 10
179.8318053903131
 20
-225.2243472015798
 97
        0
 97
        0
 75
     2
 76
     1
 98
        0
  0
SPLINE
  5
7B
330
73
100
AcDbEntity
  8
Layer 1
370
     0
100
AcDbSpline
210
0.0
220
0.0
230
1.0
 70
    11
 71
     3
 72
    11
 73
     7
 74
     0
 42
0.0000000001
 43
0.0000000001
 12
1.0
 22
0.0
 32
0.0
 13
1.0
 23
0.0
 33
0.0
 40
0.0
 40
0.0
 40
0.0
 40
0.0
 40
1.0
 40
1.0
 40
1.0
 40
2.0
 40
2.0
 40
2.0
 40
2.0
 10
136.5931536992284
 20
-244.6544125866549
 30
0.0
 10
137.9384124872377
 20
-255.8676220649359
 30
0.0
 10
155.6093769827057
 20
-266.6064594008494
 30
0.0
 10
164.537052931817
 20
-260.5834483863728
 30
0.0
 10
151.2292243148331
 20
-260.7056740014305
 30
0.0
 10
143.73802957718
 20
-253.048818099558
 30
0.0
 10
136.5931536992284
 20
-244.6544125866549
 30
0.0
  0
HATCH
  5
7C
330
73
100
AcDbEntity
  8
Layer 1
 62
   132
420
   709346
100
AcDbHatch
 10
0.0
 20
0.0
 30
0.0
210
0.0
220
0.0
230
1.0
  2
SOLID
 70
     1
 71
     0
 91
        1
 92
        1
 93
        1
 72
     4
 94
        3
 73
     0
 74
     1
 95
       11
 96
        7
 40
0.0
 40
0.0
 40
0.0
 40
0.0
 40
1.0
 40
1.0
 40
1.0
 40
2.0
 40
2.0
 40
2.0
 40
2.0
 10
136.5931536992284
 20
-244.6544125866549
 10
137.9384124872377
 20
-255.8676220649359
 10
155.6093769827057
 20
-266.6064594008494
 10
164.537052931817
 20
-260.5834483863728
 10
151.2292243148331
 20
-260.7056740014305
 10
143.73802957718
 20
-253.048818099558
 10
136.5931536992284
 20
-244.6544125866549
 97
        0
 97
        0
 75
     2
 76
     1
 98
        0
  0
SPLINE
  5
7D
330
73
100
AcDbEntity
  8
Layer 1
370
     0
100
AcDbSpline
210
0.0
220
0.0
230
1.0
 70
    11
 71
     3
 72
    11
 73
     7
 74
     0
 42
0.0000000001
 43
0.0000000001
 12
1.0
 22
0.0
 32
0.0
 13
1.0
 23
0.0
 33
0.0
 40
0.0
 40
0.0
 40
0.0
 40
0.0
 40
1.0
 40
1.0
 40
1.0
 40
2.0
 40
2.0
 40
2.0
 40
2.0
 10
135.6873787502391
 20
-241.6916263805233
 30
0.0
 10
135.1794392425199
 20
-236.9217970060254
 30
0.0
 10
134.3396334907284
 20
-232.7311600884004
 30
0.0
 10
131.9093406984612
 20
-228.3165076283567
 30
0.0
 10
129.8607212826519
 20
-234.5038588690622
 30
0.0
 10
131.0923017014102
 20
-238.8467921665488
 30
0.0
 10
135.6873787502391
 20
-241.6916263805233
 30
0.0
  0
HATCH
  5
7E
330
73
100
AcDbEntity
  8
Layer 1
 62
   132
420
   709346
100
AcDbHatch
 10
0.0
 20
0.0
 30
0.0
210
0.0
220
0.0
230
1.0
  2
SOLID
 70
     1
 71
     0
 91
        1
 92
        1
 93
        1
 72
     4
 94
        3
 73
     0
 74
     1
 95
       11
 96
        7
 40
0.0
 40
0.0
 40
0.0
 40
0.0
 40
1.0
 40
1.0
 40
1.0
 40
2.0
 40
2.0
 40
2.0
 40
2.0
 10
135.6873787502391
 20
-241.6916263805233
 10
135.1794392425199
 20
-236.9217970060254
 10
134.3396334907284
 20
-232.7311600884004
 10
131.9093406984612
 20
-228.3165076283567
 10
129.8607212826519
 20
-234.5038588690622
 10
131.0923017014102
 20
-238.8467921665488
 10
135.6873787502391
 20
-241.6916263805233
 97
        0
 97
        0
 75
     2
 76
     1
 98
        0
  0
ENDBLK
  5
76
330
73
100
AcDbEntity
  8
0
100
AcDbBlockEnd
  0
BLOCK
  5
81
330
7F
100
AcDbEntity
  8
0
100
AcDbBlockBegin
  2
block 7
 70
     0
 10
0.0
 20
0.0
 30
0.0
  3
block 7
  1

  0
SPLINE
  5
83
330
7F
100
AcDbEntity
  8
Layer 1
370
     0
100
AcDbSpline
210
0.0
220
0.0
230
1.0
 70
    11
 71
     3
 72
    35
 73
    31
 74
     0
 42
0.0000000001
 43
0.0000000001
 12
1.0
 22
0.0
 32
0.0
 13
1.0
 23
0.0
 33
0.0
 40
0.0
 40
0.0
 40
0.0
 40
0.0
 40
1.0
 40
1.0
 40
1.0
 40
2.0
 40
2.0
 40
2.0
 40
3.0
 40
3.0
 40
3.0
 40
4.0
 40
4.0
 40
4.0
 40
5.0
 40
5.0
 40
5.0
 40
6.0
 40
6.0
 40
6.0
 40
7.0
 40
7.0
 40
7.0
 40
8.0
 40
8.0
 40
8.0
 40
9.0
 40
9.0
 40
9.0
 40
10.0
 40
10.0
 40
10.0
 40
10.0
 10
321.8999499528345
 20
-437.2969736841333
 30
0.0
 10
311.8201606466009
 20
-439.9476186266584
 30
0.0
 10
303.065062429805
 20
-445.057626833006
 30
0.0
 10
295.5702985724747
 20
-452.210206138172
 30
0.0
 10
268.9384386214333
 20
-477.6262565457655
 30
0.0
 10
255.5969975389071
 20
-508.3343973660758
 30
0.0
 10
258.6446625255085
 20
-545.5425130521853
 30
0.0
 10
259.4086506637577
 20
-550.4399329393436
 30
0.0
 10
259.8077094291784
 20
-555.4281349841076
 30
0.0
 10
260.9981198298829
 20
-560.2197437366049
 30
0.0
 10
267.0156499781715
 20
-584.4405736748486
 30
0.0
 10
280.0453009529429
 20
-602.7236158679643
 30
0.0
 10
305.2796764942395
 20
-609.4567293402179
 30
0.0
 10
318.8810984828415
 20
-613.0859671279413
 30
0.0
 10
332.115152921042
 20
-611.6317110807504
 30
0.0
 10
342.721540523562
 20
-601.2011044422543
 30
0.0
 10
354.0830670877094
 20
-590.0279824518384
 30
0.0
 10
353.9914827435423
 20
-576.3045361493041
 30
0.0
 10
350.0782501901722
 20
-562.1092066286346
 30
0.0
 10
348.7654554427263
 20
-557.3471727226733
 30
0.0
 10
347.2970043624537
 20
-552.5859900363139
 30
0.0
 10
345.3942078396612
 20
-548.035932291039
 30
0.0
 10
337.6131796150439
 20
-529.4295816749036
 30
0.0
 10
338.7008600349509
 20
-511.8015836380473
 30
0.0
 10
350.1228501940732
 20
-494.8464977279018
 30
0.0
 10
354.3395039722327
 20
-488.5873008914532
 30
0.0
 10
357.8433856374559
 20
-481.8385005496639
 30
0.0
 10
359.6512595489294
 20
-474.3444153136115
 30
0.0
 10
365.4449006893337
 20
-450.3278792079145
 30
0.0
 10
345.8073673335784
 20
-431.010036795853
 30
0.0
 10
321.8999499528345
 20
-437.2969736841333
 30
0.0
  0
SPLINE
  5
84
330
7F
100
AcDbEntity
  8
Layer 1
370
     0
100
AcDbSpline
210
0.0
220
0.0
230
1.0
 70
    11
 71
     3
 72
    35
 73
    31
 74
     0
 42
0.0000000001
 43
0.0000000001
 12
1.0
 22
0.0
 32
0.0
 13
1.0
 23
0.0
 33
0.0
 40
0.0
 40
0.0
 40
0.0
 40
0.0
 40
1.0
 40
1.0
 40
1.0
 40
2.0
 40
2.0
 40
2.0
 40
3.0
 40
3.0
 40
3.0
 40
4.0
 40
4.0
 40
4.0
 40
5.0
 40
5.0
 40
5.0
 40
6.0
 40
6.0
 40
6.0
 40
7.0
 40
7.0
 40
7.0
 40
8.0
 40
8.0
 40
8.0
 40
9.0
 40
9.0
 40
9.0
 40
10.0
 40
10.0
 40
10.0
 40
10.0
 10
355.515295469193
 20
-470.6627697076528
 30
0.0
 10
352.6952097433968
 20
-482.3673541065309
 30
0.0
 10
347.9922285495795
 20
-493.2553169056173
 30
0.0
 10
338.4162629041712
 20
-501.4657785409654
 30
0.0
 10
334.9185173095721
 20
-504.4647569552144
 30
0.0
 10
331.9222573610368
 20
-508.2077730906658
 30
0.0
 10
329.2789648738672
 20
-512.0152996050274
 30
0.0
 10
319.8253082604097
 20
-525.6331750442296
 30
0.0
 10
322.8261102857214
 20
-540.761150498598
 30
0.0
 10
336.6209634040151
 20
-549.9719096305762
 30
0.0
 10
348.7008827660466
 20
-558.0374935777963
 30
0.0
 10
348.4923150891736
 20
-570.4803505880009
 30
0.0
 10
347.3143440194763
 20
-582.5417100835748
 30
0.0
 10
346.1823529447502
 20
-594.1311387418718
 30
0.0
 10
337.1353870902076
 20
-602.8516330543443
 30
0.0
 10
326.0916390780349
 20
-605.3401468380725
 30
0.0
 10
307.1121320934853
 20
-609.6169970213614
 30
0.0
 10
286.9700469003619
 20
-600.6293349889329
 30
0.0
 10
275.1679668217748
 20
-582.5065613701481
 30
0.0
 10
267.6634219631414
 20
-570.9827968894588
 30
0.0
 10
264.5013211412515
 20
-558.0547890085127
 30
0.0
 10
263.1816431258376
 20
-544.7012540324249
 30
0.0
 10
260.5615500499389
 20
-507.5439236097955
 30
0.0
 10
274.0851557829155
 20
-477.2705564373882
 30
0.0
 10
301.746188816438
 20
-453.1360805332661
 30
0.0
 10
310.2338221494701
 20
-445.7305317143691
 30
0.0
 10
320.0463201278126
 20
-440.7597357956238
 30
0.0
 10
331.869198789349
 20
-441.0352693239729
 30
0.0
 10
347.8508854008796
 20
-441.4075050428874
 30
0.0
 10
359.245297654661
 20
-455.1817734887391
 30
0.0
 10
355.515295469193
 20
-470.6627697076528
 30
0.0
  0
SPLINE
  5
85
330
7F
100
AcDbEntity
  8
Layer 1
370
     0
100
AcDbSpline
210
0.0
220
0.0
230
1.0
 70
    11
 71
     3
 72
    11
 73
     7
 74
     0
 42
0.0000000001
 43
0.0000000001
 12
1.0
 22
0.0
 32
0.0
 13
1.0
 23
0.0
 33
0.0
 40
0.0
 40
0.0
 40
0.0
 40
0.0
 40
1.0
 40
1.0
 40
1.0
 40
2.0
 40
2.0
 40
2.0
 40
2.0
 10
339.4704970926123
 20
-544.8439016400043
 30
0.0
 10
325.5161278096166
 20
-535.946767811527
 30
0.0
 10
324.9816906792967
 20
-521.5757771000644
 30
0.0
 10
338.0882623668349
 20
-509.5320194969954
 30
0.0
 10
333.8126993831738
 20
-521.9359513678792
 30
0.0
 10
335.7170510632859
 20
-532.9168528384835
 30
0.0
 10
339.4704970926123
 20
-544.8439016400043
 30
0.0
  0
HATCH
  5
86
330
7F
100
AcDbEntity
  8
Layer 1
 62
   233
420
 16205721
100
AcDbHatch
 10
0.0
 20
0.0
 30
0.0
210
0.0
220
0.0
230
1.0
  2
SOLID
 70
     1
 71
     0
 91
        3
 92
        1
 93
        1
 72
     4
 94
        3
 73
     0
 74
     1
 95
       35
 96
       31
 40
0.0
 40
0.0
 40
0.0
 40
0.0
 40
1.0
 40
1.0
 40
1.0
 40
2.0
 40
2.0
 40
2.0
 40
3.0
 40
3.0
 40
3.0
 40
4.0
 40
4.0
 40
4.0
 40
5.0
 40
5.0
 40
5.0
 40
6.0
 40
6.0
 40
6.0
 40
7.0
 40
7.0
 40
7.0
 40
8.0
 40
8.0
 40
8.0
 40
9.0
 40
9.0
 40
9.0
 40
10.0
 40
10.0
 40
10.0
 40
10.0
 10
321.8999499528345
 20
-437.2969736841333
 10
311.8201606466009
 20
-439.9476186266584
 10
303.065062429805
 20
-445.057626833006
 10
295.5702985724747
 20
-452.210206138172
 10
268.9384386214333
 20
-477.6262565457655
 10
255.5969975389071
 20
-508.3343973660758
 10
258.6446625255085
 20
-545.5425130521853
 10
259.4086506637577
 20
-550.4399329393436
 10
259.8077094291784
 20
-555.4281349841076
 10
260.9981198298829
 20
-560.2197437366049
 10
267.0156499781715
 20
-584.4405736748486
 10
280.0453009529429
 20
-602.7236158679643
 10
305.2796764942395
 20
-609.4567293402179
 10
318.8810984828415
 20
-613.0859671279413
 10
332.115152921042
 20
-611.6317110807504
 10
342.721540523562
 20
-601.2011044422543
 10
354.0830670877094
 20
-590.0279824518384
 10
353.9914827435423
 20
-576.3045361493041
 10
350.0782501901722
 20
-562.1092066286346
 10
348.7654554427263
 20
-557.3471727226733
 10
347.2970043624537
 20
-552.5859900363139
 10
345.3942078396612
 20
-548.035932291039
 10
337.6131796150439
 20
-529.4295816749036
 10
338.7008600349509
 20
-511.8015836380473
 10
350.1228501940732
 20
-494.8464977279018
 10
354.3395039722327
 20
-488.5873008914532
 10
357.8433856374559
 20
-481.8385005496639
 10
359.6512595489294
 20
-474.3444153136115
 10
365.4449006893337
 20
-450.3278792079145
 10
345.8073673335784
 20
-431.010036795853
 10
321.8999499528345
 20
-437.2969736841333
 97
        0
 97
        0
 92
        1
 93
        1
 72
     4
 94
        3
 73
     0
 74
     1
 95
       35
 96
       31
 40
0.0
 40
0.0
 40
0.0
 40
0.0
 40
1.0
 40
1.0
 40
1.0
 40
2.0
 40
2.0
 40
2.0
 40
3.0
 40
3.0
 40
3.0
 40
4.0
 40
4.0
 40
4.0
 40
5.0
 40
5.0
 40
5.0
 40
6.0
 40
6.0
 40
6.0
 40
7.0
 40
7.0
 40
7.0
 40
8.0
 40
8.0
 40
8.0
 40
9.0
 40
9.0
 40
9.0
 40
10.0
 40
10.0
 40
10.0
 40
10.0
 10
355.515295469193
 20
-470.6627697076528
 10
352.6952097433968
 20
-482.3673541065309
 10
347.9922285495795
 20
-493.2553169056173
 10
338.4162629041712
 20
-501.4657785409654
 10
334.9185173095721
 20
-504.4647569552144
 10
331.9222573610368
 20
-508.2077730906658
 10
329.2789648738672
 20
-512.0152996050274
 10
319.8253082604097
 20
-525.6331750442296
 10
322.8261102857214
 20
-540.761150498598
 10
336.6209634040151
 20
-549.9719096305762
 10
348.7008827660466
 20
-558.0374935777963
 10
348.4923150891736
 20
-570.4803505880009
 10
347.3143440194763
 20
-582.5417100835748
 10
346.1823529447502
 20
-594.1311387418718
 10
337.1353870902076
 20
-602.8516330543443
 10
326.0916390780349
 20
-605.3401468380725
 10
307.1121320934853
 20
-609.6169970213614
 10
286.9700469003619
 20
-600.6293349889329
 10
275.1679668217748
 20
-582.5065613701481
 10
267.6634219631414
 20
-570.9827968894588
 10
264.5013211412515
 20
-558.0547890085127
 10
263.1816431258376
 20
-544.7012540324249
 10
260.5615500499389
 20
-507.5439236097955
 10
274.0851557829155
 20
-477.2705564373882
 10
301.746188816438
 20
-453.1360805332661
 10
310.2338221494701
 20
-445.7305317143691
 10
320.0463201278126
 20
-440.7597357956238
 10
331.869198789349
 20
-441.0352693239729
 10
347.8508854008796
 20
-441.4075050428874
 10
359.245297654661
 20
-455.1817734887391
 10
355.515295469193
 20
-470.6627697076528
 97
        0
 97
        0
 92
        1
 93
        1
 72
     4
 94
        3
 73
     0
 74
     1
 95
       11
 96
        7
 40
0.0
 40
0.0
 40
0.0
 40
0.0
 40
1.0
 40
1.0
 40
1.0
 40
2.0
 40
2.0
 40
2.0
 40
2.0
 10
339.4704970926123
 20
-544.8439016400043
 10
325.5161278096166
 20
-535.946767811527
 10
324.9816906792967
 20
-521.5757771000644
 10
338.0882623668349
 20
-509.5320194969954
 10
333.8126993831738
 20
-521.9359513678792
 10
335.7170510632859
 20
-532.9168528384835
 10
339.4704970926123
 20
-544.8439016400043
 97
        0
 97
        0
 75
     2
 76
     1
 98
        0
  0
SPLINE
  5
87
330
7F
100
AcDbEntity
  8
Layer 1
370
     0
100
AcDbSpline
210
0.0
220
0.0
230
1.0
 70
    11
 71
     3
 72
    11
 73
     7
 74
     0
 42
0.0000000001
 43
0.0000000001
 12
1.0
 22
0.0
 32
0.0
 13
1.0
 23
0.0
 33
0.0
 40
0.0
 40
0.0
 40
0.0
 40
0.0
 40
1.0
 40
1.0
 40
1.0
 40
2.0
 40
2.0
 40
2.0
 40
2.0
 10
282.5448304942438
 20
-576.7644476404585
 30
0.0
 10
285.7576074998578
 20
-591.9777457150503
 30
0.0
 10
311.3010266296569
 20
-604.5488810622428
 30
0.0
 10
322.8093685350814
 20
-595.2000147994604
 30
0.0
 10
304.5743799592183
 20
-596.9910953903964
 30
0.0
 10
293.3671283477615
 20
-587.4046208953296
 30
0.0
 10
282.5448304942438
 20
-576.7644476404585
 30
0.0
  0
HATCH
  5
88
330
7F
100
AcDbEntity
  8
Layer 1
 62
   233
420
 16205721
100
AcDbHatch
 10
0.0
 20
0.0
 30
0.0
210
0.0
220
0.0
230
1.0
  2
SOLID
 70
     1
 71
     0
 91
        1
 92
        1
 93
        1
 72
     4
 94
        3
 73
     0
 74
     1
 95
       11
 96
        7
 40
0.0
 40
0.0
 40
0.0
 40
0.0
 40
1.0
 40
1.0
 40
1.0
 40
2.0
 40
2.0
 40
2.0
 40
2.0
 10
282.5448304942438
 20
-576.7644476404585
 10
285.7576074998578
 20
-591.9777457150503
 10
311.3010266296569
 20
-604.5488810622428
 10
322.8093685350814
 20
-595.2000147994604
 10
304.5743799592183
 20
-596.9910953903964
 10
293.3671283477615
 20
-587.4046208953296
 10
282.5448304942438
 20
-576.7644476404585
 97
        0
 97
        0
 75
     2
 76
     1
 98
        0
  0
SPLINE
  5
89
330
7F
100
AcDbEntity
  8
Layer 1
370
     0
100
AcDbSpline
210
0.0
220
0.0
230
1.0
 70
    11
 71
     3
 72
    11
 73
     7
 74
     0
 42
0.0000000001
 43
0.0000000001
 12
1.0
 22
0.0
 32
0.0
 13
1.0
 23
0.0
 33
0.0
 40
0.0
 40
0.0
 40
0.0
 40
0.0
 40
1.0
 40
1.0
 40
1.0
 40
2.0
 40
2.0
 40
2.0
 40
2.0
 10
280.9412420611152
 20
-572.8118827414764
 30
0.0
 10
279.6627845172898
 20
-566.3326676643683
 30
0.0
 10
277.9998745406538
 20
-560.6882226618891
 30
0.0
 10
274.1284968701202
 20
-554.9305990369576
 30
0.0
 10
272.0739053066645
 20
-563.6656377341842
 30
0.0
 10
274.2926607333484
 20
-569.4711429185027
 30
0.0
 10
280.9412420611152
 20
-572.8118827414764
 30
0.0
  0
HATCH
  5
8A
330
7F
100
AcDbEntity
  8
Layer 1
 62
   233
420
 16205721
100
AcDbHatch
 10
0.0
 20
0.0
 30
0.0
210
0.0
220
0.0
230
1.0
  2
SOLID
 70
     1
 71
     0
 91
        1
 92
        1
 93
        1
 72
     4
 94
        3
 73
     0
 74
     1
 95
       11
 96
        7
 40
0.0
 40
0.0
 40
0.0
 40
0.0
 40
1.0
 40
1.0
 40
1.0
 40
2.0
 40
2.0
 40
2.0
 40
2.0
 10
280.9412420611152
 20
-572.8118827414764
 10
279.6627845172898
 20
-566.3326676643683
 10
277.9998745406538
 20
-560.6882226618891
 10
274.1284968701202
 20
-554.9305990369576
 10
272.0739053066645
 20
-563.6656377341842
 10
274.2926607333484
 20
-569.4711429185027
 10
280.9412420611152
 20
-572.8118827414764
 97
        0
 97
        0
 75
     2
 76
     1
 98
        0
  0
ENDBLK
  5
82
330
7F
100
AcDbEntity
  8
0
100
AcDbBlockEnd
  0
ENDSEC
  0
SECTION
  2
ENTITIES
  0
INSERT
  5
42
330
1F
100
AcDbEntity
  8
Layer 1
100
AcDbBlockReference
  2
block 2
 10
0.0
 20
0.0
 30
0.0
  0
ENDSEC
  0
SECTION
  2
OBJECTS
  0
DICTIONARY
  5
C
330
0
100
AcDbDictionary
281
     1
  3
ACAD_GROUP
350
D
  3
ACAD_LAYOUT
350
1A
  3
ACAD_MATERIAL
350
3B
  3
ACAD_MLEADERSTYLE
350
8C
  3
ACAD_MLINESTYLE
350
17
  3
ACAD_PLOTSETTINGS
350
19
  3
ACAD_PLOTSTYLENAME
350
E
  3
ACAD_TABLESTYLE
350
8B
  3
ACAD_VISUALSTYLE
350
2A
  0
SUN
  5
3F
330
29
100
AcDbSun
 90
        1
290
     0
 63
     7
421
 16777215
 40
1.0
291
     1
 91
  2455826
 92
 54000000
292
     0
 70
     2
 71
   256
280
     1
  0
DICTIONARY
  5
D
102
{ACAD_REACTORS
330
C
102
}
330
C
100
AcDbDictionary
281
     1
  0
DICTIONARY
  5
1A
102
{ACAD_REACTORS
330
C
102
}
330
C
100
AcDbDictionary
281
     1
  3
Layout1
350
1E
  3
Layout2
350
26
  3
Model
350
22
  0
DICTIONARY
  5
3B
102
{ACAD_REACTORS
330
C
102
}
330
C
100
AcDbDictionary
281
     1
  3
ByBlock
350
3D
  3
ByLayer
350
3C
  3
Global
350
3E
  0
DICTIONARY
  5
8C
102
{ACAD_REACTORS
330
C
102
}
330
C
100
AcDbDictionary
281
     1
  0
DICTIONARY
  5
17
102
{ACAD_REACTORS
330
C
102
}
330
C
100
AcDbDictionary
281
     1
  3
Standard
350
18
  0
DICTIONARY
  5
19
102
{ACAD_REACTORS
330
C
102
}
330
C
100
AcDbDictionary
281
     1
  0
ACDBDICTIONARYWDFLT
  5
E
102
{ACAD_REACTORS
330
C
102
}
330
C
100
AcDbDictionary
281
     1
  3
Normal
350
F
100
AcDbDictionaryWithDefault
340
F
  0
DICTIONARY
  5
8B
102
{ACAD_REACTORS
330
C
102
}
330
C
100
AcDbDictionary
281
     1
  0
DICTIONARY
  5
2A
102
{ACAD_REACTORS
330
C
102
}
330
C
100
AcDbDictionary
281
     1
  3
2dWireframe
350
2F
  3
3D Hidden
350
31
  3
3dWireframe
350
30
  3
Basic
350
32
  3
Brighten
350
36
  3
ColorChange
350
3A
  3
Conceptual
350
34
  3
Dim
350
35
  3
Facepattern
350
39
  3
Flat
350
2B
  3
FlatWithEdges
350
2C
  3
Gouraud
350
2D
  3
GouraudWithEdges
350
2E
  3
Linepattern
350
38
  3
Realistic
350
33
  3
Thicken
350
37
  0
LAYOUT
  5
1E
102
{ACAD_REACTORS
330
1A
102
}
330
1A
100
AcDbPlotSettings
  1

  2
none_device
  4

  6

 40
0.0
 41
0.0
 42
0.0
 43
0.0
 44
0.0
 45
0.0
 46
0.0
 47
0.0
 48
0.0
 49
0.0
140
0.0
141
0.0
142
1.0
143
1.0
 70
   688
 72
     0
 73
     0
 74
     5
  7

 75
    16
 76
     0
 77
     2
 78
   300
147
1.0
148
0.0
149
0.0
100
AcDbLayout
  1
Layout1
 70
     1
 71
     1
 10
0.0
 20
0.0
 11
12.0
 21
9.0
 12
0.0
 22
0.0
 32
0.0
 14
1.000000000000000E+20
 24
1.000000000000000E+20
 34
1.000000000000000E+20
 15
-1.000000000000000E+20
 25
-1.000000000000000E+20
 35
-1.000000000000000E+20
146
0.0
 13
0.0
 23
0.0
 33
0.0
 16
1.0
 26
0.0
 36
0.0
 17
0.0
 27
1.0
 37
0.0
 76
     0
330
1B
  0
LAYOUT
  5
26
102
{ACAD_REACTORS
330
1A
102
}
330
1A
100
AcDbPlotSettings
  1

  2
none_device
  4

  6

 40
0.0
 41
0.0
 42
0.0
 43
0.0
 44
0.0
 45
0.0
 46
0.0
 47
0.0
 48
0.0
 49
0.0
140
0.0
141
0.0
142
1.0
143
1.0
 70
   688
 72
     0
 73
     0
 74
     5
  7

 75
    16
 76
     0
 77
     2
 78
   300
147
1.0
148
0.0
149
0.0
100
AcDbLayout
  1
Layout2
 70
     1
 71
     2
 10
0.0
 20
0.0
 11
0.0
 21
0.0
 12
0.0
 22
0.0
 32
0.0
 14
0.0
 24
0.0
 34
0.0
 15
0.0
 25
0.0
 35
0.0
146
0.0
 13
0.0
 23
0.0
 33
0.0
 16
1.0
 26
0.0
 36
0.0
 17
0.0
 27
1.0
 37
0.0
 76
     0
330
23
  0
LAYOUT
  5
22
102
{ACAD_REACTORS
330
1A
102
}
330
1A
100
AcDbPlotSettings
  1

  2
none_device
  4

  6

 40
0.0
 41
0.0
 42
0.0
 43
0.0
 44
0.0
 45
0.0
 46
0.0
 47
0.0
 48
0.0
 49
0.0
140
0.0
141
0.0
142
1.0
143
1.0
 70
  1712
 72
     0
 73
     0
 74
     0
  7

 75
     0
 76
     0
 77
     2
 78
   300
147
1.0
148
0.0
149
0.0
100
AcDbLayout
  1
Model
 70
     1
 71
     0
 10
0.0
 20
0.0
 11
12.0
 21
9.0
 12
0.0
 22
0.0
 32
0.0
 14
1.000000000000000E+20
 24
1.000000000000000E+20
 34
1.000000000000000E+20
 15
-1.000000000000000E+20
 25
-1.000000000000000E+20
 35
-1.000000000000000E+20
146
0.0
 13
0.0
 23
0.0
 33
0.0
 16
1.0
 26
0.0
 36
0.0
 17
0.0
 27
1.0
 37
0.0
 76
     0
330
1F
331
29
  0
MATERIAL
  5
3D
102
{ACAD_REACTORS
330
3B
102
}
330
3B
100
AcDbMaterial
  1
ByBlock
 72
     1
 94
      127
  0
MATERIAL
  5
3C
102
{ACAD_REACTORS
330
3B
102
}
330
3B
100
AcDbMaterial
  1
ByLayer
 72
     1
 94
      127
  0
MATERIAL
  5
3E
102
{ACAD_REACTORS
330
3B
102
}
330
3B
100
AcDbMaterial
  1
Global
 72
     1
 94
      127
  0
MLINESTYLE
  5
18
102
{ACAD_REACTORS
330
17
102
}
330
17
100
AcDbMlineStyle
  2
Standard
 70
     0
  3

 62
   256
 51
90.0
 52
90.0
 71
     2
 49
0.5
 62
   256
  6
BYLAYER
 49
-0.5
 62
   256
  6
BYLAYER
  0
ACDBPLACEHOLDER
  5
F
102
{ACAD_REACTORS
330
E
102
}
330
E
  0
VISUALSTYLE
  5
2F
102
{ACAD_REACTORS
330
2A
102
}
330
2A
100
AcDbVisualStyle
  2
2dWireframe
 70
     4
177
     2
291
     0
 71
     0
176
     1
 72
     2
176
     1
 73
     0
176
     1
 90
        0
176
     1
 40
-0.6
176
     1
 41
-30.0
176
     1
 62
     5
 63
     7
421
 16777215
176
     1
 74
     1
176
     1
 91
        4
176
     1
 64
     7
176
     1
 65
   257
176
     1
 75
     1
176
     1
175
     1
176
     1
 42
1.0
176
     1
 92
        0
176
     1
 66
   257
176
     1
 43
1.0
176
     1
 76
     1
176
     1
 77
     6
176
     1
 78
     2
176
     1
 67
     7
176
     1
 79
     5
176
     1
170
     0
176
     1
171
     0
176
     1
290
     0
176
     1
 93
        1
176
     1
 44
0.0
176
     1
173
     0
176
     1
  0
VISUALSTYLE
  5
31
102
{ACAD_REACTORS
330
2A
102
}
330
2A
100
AcDbVisualStyle
  2
3D Hidden
 70
     6
177
     2
291
     0
 71
     1
176
     1
 72
     2
176
     1
 73
     2
176
     1
 90
        0
176
     1
 40
-0.6
176
     1
 41
-30.0
176
     1
 62
     5
 63
     7
421
 16777215
176
     1
 74
     2
176
     1
 91
        2
176
     1
 64
     7
176
     1
 65
   257
176
     1
 75
     2
176
     1
175
     1
176
     1
 42
40.0
176
     1
 92
        0
176
     1
 66
   257
176
     1
 43
1.0
176
     1
 76
     1
176
     1
 77
     6
176
     1
 78
     2
176
     1
 67
     7
176
     1
 79
     3
176
     1
170
     0
176
     1
171
     0
176
     1
290
     0
176
     1
 93
        1
176
     1
 44
0.0
176
     1
173
     0
176
     1
  0
VISUALSTYLE
  5
30
102
{ACAD_REACTORS
330
2A
102
}
330
2A
100
AcDbVisualStyle
  2
3dWireframe
 70
     5
177
     2
291
     0
 71
     0
176
     1
 72
     2
176
     1
 73
     0
176
     1
 90
        0
176
     1
 40
-0.6
176
     1
 41
-30.0
176
     1
 62
     5
 63
     7
421
 16777215
176
     1
 74
     1
176
     1
 91
        4
176
     1
 64
     7
176
     1
 65
   257
176
     1
 75
     1
176
     1
175
     1
176
     1
 42
1.0
176
     1
 92
        0
176
     1
 66
   257
176
     1
 43
1.0
176
     1
 76
     1
176
     1
 77
     6
176
     1
 78
     2
176
     1
 67
     7
176
     1
 79
     5
176
     1
170
     0
176
     1
171
     0
176
     1
290
     0
176
     1
 93
        1
176
     1
 44
0.0
176
     1
173
     0
176
     1
  0
VISUALSTYLE
  5
32
102
{ACAD_REACTORS
330
2A
102
}
330
2A
100
AcDbVisualStyle
  2
Basic
 70
     7
177
     2
291
     1
 71
     1
176
     1
 72
     0
176
     1
 73
     1
176
     1
 90
        0
176
     1
 40
-0.6
176
     1
 41
-30.0
176
     1
 62
     5
 63
     7
421
 16777215
176
     1
 74
     0
176
     1
 91
        4
176
     1
 64
     7
176
     1
 65
   257
176
     1
 75
     1
176
     1
175
     1
176
     1
 42
1.0
176
     1
 92
        8
176
     1
 66
     7
176
     1
 43
1.0
176
     1
 76
     1
176
     1
 77
     6
176
     1
 78
     2
176
     1
 67
     7
176
     1
 79
     5
176
     1
170
     0
176
     1
171
     0
176
     1
290
     0
176
     1
 93
        1
176
     1
 44
0.0
176
     1
173
     0
176
     1
  0
VISUALSTYLE
  5
36
102
{ACAD_REACTORS
330
2A
102
}
330
2A
100
AcDbVisualStyle
  2
Brighten
 70
    12
177
     2
291
     1
 71
     2
176
     1
 72
     2
176
     1
 73
     0
176
     1
 90
        0
176
     1
 40
-0.6
176
     1
 41
-30.0
176
     1
 62
     5
 63
     7
421
 16777215
176
     1
 74
     1
176
     1
 91
        4
176
     1
 64
     7
176
     1
 65
   257
176
     1
 75
     1
176
     1
175
     1
176
     1
 42
1.0
176
     1
 92
        8
176
     1
 66
     7
176
     1
 43
1.0
176
     1
 76
     1
176
     1
 77
     6
176
     1
 78
     2
176
     1
 67
     7
176
     1
 79
     5
176
     1
170
     0
176
     1
171
     0
176
     1
290
     0
176
     1
 93
        1
176
     1
 44
50.0
176
     1
173
     0
176
     1
  0
VISUALSTYLE
  5
3A
102
{ACAD_REACTORS
330
2A
102
}
330
2A
100
AcDbVisualStyle
  2
ColorChange
 70
    16
177
     2
291
     1
 71
     2
176
     1
 72
     2
176
     1
 73
     3
176
     1
 90
        0
176
     1
 40
-0.6
176
     1
 41
-30.0
176
     1
 62
     5
 63
     8
421
  8421504
176
     1
 74
     1
176
     1
 91
        4
176
     1
 64
     7
176
     1
 65
   257
176
     1
 75
     1
176
     1
175
     1
176
     1
 42
1.0
176
     1
 92
        8
176
     1
 66
     8
424
  8421504
176
     1
 43
1.0
176
     1
 76
     1
176
     1
 77
     6
176
     1
 78
     2
176
     1
 67
     7
176
     1
 79
     5
176
     1
170
     0
176
     1
171
     0
176
     1
290
     0
176
     1
 93
        1
176
     1
 44
0.0
176
     1
173
     0
176
     1
  0
VISUALSTYLE
  5
34
102
{ACAD_REACTORS
330
2A
102
}
330
2A
100
AcDbVisualStyle
  2
Conceptual
 70
     9
177
     2
291
     0
 71
     3
176
     1
 72
     2
176
     1
 73
     0
176
     1
 90
        0
176
     1
 40
-0.6
176
     1
 41
-30.0
176
     1
 62
     5
 63
     7
421
 16777215
176
     1
 74
     2
176
     1
 91
        2
176
     1
 64
     7
176
     1
 65
   257
176
     1
 75
     1
176
     1
175
     1
176
     1
 42
40.0
176
     1
 92
        8
176
     1
 66
     7
176
     1
 43
1.0
176
     1
 76
     1
176
     1
 77
     6
176
     1
 78
     2
176
     1
 67
     7
176
     1
 79
     3
176
     1
170
     0
176
     1
171
     0
176
     1
290
     0
176
     1
 93
        1
176
     1
 44
0.0
176
     1
173
     0
176
     1
  0
VISUALSTYLE
  5
35
102
{ACAD_REACTORS
330
2A
102
}
330
2A
100
AcDbVisualStyle
  2
Dim
 70
    11
177
     2
291
     1
 71
     2
176
     1
 72
     2
176
     1
 73
     0
176
     1
 90
        0
176
     1
 40
-0.6
176
     1
 41
-30.0
176
     1
 62
     5
 63
     7
421
 16777215
176
     1
 74
     1
176
     1
 91
        4
176
     1
 64
     7
176
     1
 65
   257
176
     1
 75
     1
176
     1
175
     1
176
     1
 42
1.0
176
     1
 92
        8
176
     1
 66
     7
176
     1
 43
1.0
176
     1
 76
     1
176
     1
 77
     6
176
     1
 78
     2
176
     1
 67
     7
176
     1
 79
     5
176
     1
170
     0
176
     1
171
     0
176
     1
290
     0
176
     1
 93
        1
176
     1
 44
-50.0
176
     1
173
     0
176
     1
  0
VISUALSTYLE
  5
39
102
{ACAD_REACTORS
330
2A
102
}
330
2A
100
AcDbVisualStyle
  2
Facepattern
 70
    15
177
     2
291
     1
 71
     2
176
     1
 72
     2
176
     1
 73
     0
176
     1
 90
        0
176
     1
 40
-0.6
176
     1
 41
-30.0
176
     1
 62
     5
 63
     7
421
 16777215
176
     1
 74
     1
176
     1
 91
        4
176
     1
 64
     7
176
     1
 65
   257
176
     1
 75
     1
176
     1
175
     1
176
     1
 42
1.0
176
     1
 92
        8
176
     1
 66
     7
176
     1
 43
1.0
176
     1
 76
     1
176
     1
 77
     6
176
     1
 78
     2
176
     1
 67
     7
176
     1
 79
     5
176
     1
170
     0
176
     1
171
     0
176
     1
290
     0
176
     1
 93
        1
176
     1
 44
0.0
176
     1
173
     0
176
     1
  0
VISUALSTYLE
  5
2B
102
{ACAD_REACTORS
330
2A
102
}
330
2A
100
AcDbVisualStyle
  2
Flat
 70
     0
177
     2
291
     1
 71
     2
176
     1
 72
     1
176
     1
 73
     1
176
     1
 90
        2
176
     1
 40
-0.6
176
     1
 41
30.0
176
     1
 62
     5
 63
     7
421
 16777215
176
     1
 74
     0
176
     1
 91
        4
176
     1
 64
     7
176
     1
 65
   257
176
     1
 75
     1
176
     1
175
     1
176
     1
 42
1.0
176
     1
 92
        8
176
     1
 66
     7
176
     1
 43
1.0
176
     1
 76
     1
176
     1
 77
     6
176
     1
 78
     2
176
     1
 67
     7
176
     1
 79
     5
176
     1
170
     0
176
     1
171
     0
176
     1
290
     0
176
     1
 93
       13
176
     1
 44
0.0
176
     1
173
     0
176
     1
  0
VISUALSTYLE
  5
2C
102
{ACAD_REACTORS
330
2A
102
}
330
2A
100
AcDbVisualStyle
  2
FlatWithEdges
 70
     1
177
     2
291
     1
 71
     2
176
     1
 72
     1
176
     1
 73
     1
176
     1
 90
        2
176
     1
 40
-0.6
176
     1
 41
30.0
176
     1
 62
     5
 63
     7
421
 16777215
176
     1
 74
     1
176
     1
 91
        4
176
     1
 64
     7
176
     1
 65
   257
176
     1
 75
     1
176
     1
175
     1
176
     1
 42
1.0
176
     1
 92
        0
176
     1
 66
   257
176
     1
 43
1.0
176
     1
 76
     1
176
     1
 77
     6
176
     1
 78
     2
176
     1
 67
     7
176
     1
 79
     5
176
     1
170
     0
176
     1
171
     0
176
     1
290
     0
176
     1
 93
       13
176
     1
 44
0.0
176
     1
173
     0
176
     1
  0
VISUALSTYLE
  5
2D
102
{ACAD_REACTORS
330
2A
102
}
330
2A
100
AcDbVisualStyle
  2
Gouraud
 70
     2
177
     2
291
     1
 71
     2
176
     1
 72
     2
176
     1
 73
     1
176
     1
 90
        2
176
     1
 40
-0.6
176
     1
 41
30.0
176
     1
 62
     5
 63
     7
421
 16777215
176
     1
 74
     0
176
     1
 91
        4
176
     1
 64
     7
176
     1
 65
   257
176
     1
 75
     1
176
     1
175
     1
176
     1
 42
1.0
176
     1
 92
        0
176
     1
 66
     7
176
     1
 43
1.0
176
     1
 76
     1
176
     1
 77
     6
176
     1
 78
     2
176
     1
 67
     7
176
     1
 79
     5
176
     1
170
     0
176
     1
171
     0
176
     1
290
     0
176
     1
 93
       13
176
     1
 44
0.0
176
     1
173
     0
176
     1
  0
VISUALSTYLE
  5
2E
102
{ACAD_REACTORS
330
2A
102
}
330
2A
100
AcDbVisualStyle
  2
GouraudWithEdges
 70
     3
177
     2
291
     1
 71
     2
176
     1
 72
     2
176
     1
 73
     1
176
     1
 90
        2
176
     1
 40
-0.6
176
     1
 41
30.0
176
     1
 62
     5
 63
     7
421
 16777215
176
     1
 74
     1
176
     1
 91
        4
176
     1
 64
     7
176
     1
 65
   257
176
     1
 75
     1
176
     1
175
     1
176
     1
 42
1.0
176
     1
 92
        0
176
     1
 66
   257
176
     1
 43
1.0
176
     1
 76
     1
176
     1
 77
     6
176
     1
 78
     2
176
     1
 67
     7
176
     1
 79
     5
176
     1
170
     0
176
     1
171
     0
176
     1
290
     0
176
     1
 93
       13
176
     1
 44
0.0
176
     1
173
     0
176
     1
  0
VISUALSTYLE
  5
38
102
{ACAD_REACTORS
330
2A
102
}
330
2A
100
AcDbVisualStyle
  2
Linepattern
 70
    14
177
     2
291
     1
 71
     2
176
     1
 72
     2
176
     1
 73
     0
176
     1
 90
        0
176
     1
 40
-0.6
176
     1
 41
-30.0
176
     1
 62
     5
 63
     7
421
 16777215
176
     1
 74
     1
176
     1
 91
        4
176
     1
 64
     7
176
     1
 65
   257
176
     1
 75
     7
176
     1
175
     7
176
     1
 42
1.0
176
     1
 92
        8
176
     1
 66
     7
176
     1
 43
1.0
176
     1
 76
     1
176
     1
 77
     6
176
     1
 78
     2
176
     1
 67
     7
176
     1
 79
     5
176
     1
170
     0
176
     1
171
     0
176
     1
290
     0
176
     1
 93
        1
176
     1
 44
0.0
176
     1
173
     0
176
     1
  0
VISUALSTYLE
  5
33
102
{ACAD_REACTORS
330
2A
102
}
330
2A
100
AcDbVisualStyle
  2
Realistic
 70
     8
177
     2
291
     0
 71
     2
176
     1
 72
     2
176
     1
 73
     0
176
     1
 90
        0
176
     1
 40
-0.6
176
     1
 41
-30.0
176
     1
 62
     5
 63
     7
421
 16777215
176
     1
 74
     1
176
     1
 91
        0
176
     1
 64
     7
176
     1
 65
   257
176
     1
 75
     1
176
     1
175
     1
176
     1
 42
1.0
176
     1
 92
        8
176
     1
 66
     8
424
  7895160
176
     1
 43
1.0
176
     1
 76
     1
176
     1
 77
     6
176
     1
 78
     2
176
     1
 67
     7
176
     1
 79
     5
176
     1
170
     0
176
     1
171
     0
176
     1
290
     0
176
     1
 93
       13
176
     1
 44
0.0
176
     1
173
     0
176
     1
  0
VISUALSTYLE
  5
37
102
{ACAD_REACTORS
330
2A
102
}
330
2A
100
AcDbVisualStyle
  2
Thicken
 70
    13
177
     2
291
     1
 71
     2
176
     1
 72
     2
176
     1
 73
     0
176
     1
 90
        0
176
     1
 40
-0.6
176
     1
 41
-30.0
176
     1
 62
     5
 63
     7
421
 16777215
176
     1
 74
     1
176
     1
 91
        4
176
     1
 64
     7
176
     1
 65
   257
176
     1
 75
     1
176
     1
175
     1
176
     1
 42
1.0
176
     1
 92
       12
176
     1
 66
     7
176
     1
 43
1.0
176
     1
 76
     1
176
     1
 77
     6
176
     1
 78
     2
176
     1
 67
     7
176
     1
 79
     5
176
     1
170
     0
176
     1
171
     0
176
     1
290
     0
176
     1
 93
        1
176
     1
 44
0.0
176
     1
173
     0
176
     1
  0
ENDSEC
  0
EOF
