<?xml version="1.0" encoding="utf-8"?>
<!-- Generator: Adobe Illustrator 22.0.0, SVG Export Plug-In . SVG Version: 6.00 Build 0)  -->
<svg version="1.1" id="Layer_1" xmlns="http://www.w3.org/2000/svg" xmlns:xlink="http://www.w3.org/1999/xlink" x="0px" y="0px"
	 viewBox="0 0 1080 1080" style="enable-background:new 0 0 1080 1080;" xml:space="preserve">
<style type="text/css">
	.st0{fill:#FF3C95;}
	.st1{fill:#00CFDD;}
	.st2{fill:#0C57AB;}
	.st3{fill:#FFB9DA;}
	.st4{fill:#04D3DA;}
</style>
<g>
	<g>
		<path class="st0" d="M225.5,1032.1c-1.4-0.8-2.1-1.8-2.1-3v-14.8v-0.7c0-0.2,0.1-0.3,0.2-0.5v-0.5v-0.2v-0.7c0-0.3,0-0.5-0.1-0.6
			c-0.1-0.1-0.1-0.2-0.1-0.3v-0.7l0.5-0.5c-0.2-0.2-0.2-0.5-0.2-1.2c0-0.5,0.1-0.7,0.2-0.7c0-0.2,0.1-0.3,0.2-0.5l0.5-0.5v-0.2v-1.2
			v-1.4c0-6-0.2-12-0.6-18c-0.4-6-0.6-11.9-0.6-17.8v-1.2h0.7c-0.2-0.3-0.3-0.6-0.5-0.9c-0.2-0.3-0.2-0.6-0.2-0.9
			c0-6.5,0-12.7-0.1-18.8c-0.1-6.1-0.1-12.3-0.1-18.6c0-2.2,0-4.2,0.1-6.2c0.1-2,0.1-4.1,0.1-6.2c0-0.8-0.1-1.5-0.2-2.2
			c-0.2-0.7-0.2-1.4-0.2-2.2c0-0.3,0-0.5,0.1-0.6c0.1-0.1,0.1-0.2,0.1-0.3v-0.7c0.2-0.2,0.2-0.4,0.2-0.7v-0.5c0-0.3,0-0.7-0.1-1.2
			c-0.1-0.5-0.1-0.8-0.1-1.2v-6.2h-0.7c-0.3,0-0.5-0.1-0.5-0.2h-0.7c-0.3-0.2-0.6-0.3-0.9-0.3c-0.3-0.1-0.6-0.3-0.9-0.6
			c-0.2,0.2-0.2,0.3-0.2,0.3c0,0.1-0.1,0.2-0.2,0.3l-0.2,0.5h-0.7c-4,0-8,0-12-0.1c-4-0.1-8-0.1-12-0.1c-1.2,0-2.4,0.1-3.6,0.2
			c-1.2,0.2-2.3,0.2-3.6,0.2c-1.7,0-3.4,0-5.1-0.1c-1.7-0.1-3.4,0-5.1,0.1h-1.2V899c0-2,0-4-0.1-6.1c-0.1-2.1-0.1-4.2-0.1-6.3
			c0-2.2,0-4.3,0.1-6.3c0.1-2.1,0.1-4.1,0.1-6.1v-1.4l1.4,0.2c0.6,0.2,1.2,0.3,1.6,0.3c0.5,0.1,1,0.1,1.6,0.1c0.9,0,1.8-0.1,2.8-0.2
			c0.9-0.2,1.8-0.2,2.8-0.2c1.2,0,2.4,0,3.5,0.1c1.1,0.1,2.2,0.1,3.2,0.1c9.7,0,19.2-0.1,28.5-0.2c9.3-0.2,18.8-0.2,28.5-0.2
			c1.2,0,2.5,0,3.8,0.1c1.3,0.1,2.6,0.1,3.8,0.1c6,0,12,0,18.1-0.1c6.1-0.1,12.3-0.1,18.6-0.1c0.5,0,0.9,0,1.4,0.1
			c0.5,0.1,1,0.1,1.6,0.1l0.9,0.2v8.1l-0.2,0.2h0.2l0.2,0.5c0,0.2,0,0.2,0.1,0.2c0.1,0,0.1,0.1,0.1,0.2v0.7v0.5v1.6
			c0,1.2,0.1,2.5,0.2,3.8c0.2,1.3,0.2,2.6,0.2,3.8c0,1.1-0.2,2.1-0.7,3c0.5,0.2,0.7,0.7,0.7,1.6c0,0.5-0.2,0.8-0.5,1.2l-0.2,0.7
			h-0.7c-1.2,0.2-2.5,0.3-3.8,0.5c-1.3,0.2-2.7,0.2-4,0.2c-0.9,0-1.8-0.1-2.7-0.2c-0.8-0.2-1.7-0.2-2.7-0.2c-2.6,0-5.2,0-7.6,0.1
			c-2.5,0.1-5,0.1-7.6,0.1l-0.2,0.2h-0.5c-0.2,0.2-0.4,0.2-0.7,0.2c-0.3,0.2-0.6,0.2-0.9,0.2c-0.6,0-1.2-0.2-1.8-0.5
			c-0.2,0-0.3,0-0.3-0.1c-0.1-0.1-0.2-0.1-0.3-0.1h-9c0,0.3,0,0.6-0.1,0.8c-0.1,0.2-0.1,0.5-0.1,0.8c0,0.9,0.1,1.8,0.2,2.7
			c0.2,0.8,0.2,1.7,0.2,2.7c0,0.5-0.1,0.8-0.2,0.9c0,0.5-0.1,0.8-0.2,0.9v0.5c-0.2,0.2-0.2,0.3-0.2,0.5c0,1.2,0.2,2.5,0.5,3.8
			c0.3,1.3,0.5,2.7,0.5,4c0,2.6,0,5.2,0.1,7.7c0.1,2.5,0.1,5,0.1,7.5v0.5c0.2,0.2,0.2,0.6,0.2,1.4c0,0.8-0.3,1.8-0.9,3
			c0.3,0.8,0.5,1.9,0.5,3.5c0,0.9-0.1,1.8-0.2,2.7c-0.2,0.8-0.2,1.7-0.2,2.4c0,1.8,0.1,3.7,0.3,5.4c0.2,1.8,0.3,3.6,0.3,5.4
			c0,0.6-0.1,1-0.2,1.2c0,0.5-0.1,0.8-0.2,1.2c-0.2,0.3-0.2,0.6-0.2,0.9l0.5,0.9v0.2c0,3.8,0,7.7,0.1,11.5c0.1,3.8,0.1,7.8,0.1,11.8
			c0,1.1-0.1,2.1-0.2,3c-0.2,0.9-0.2,1.9-0.2,3v5.8c0,0.2,0.2,0.5,0.5,1.2c0,0.5,0.1,0.8,0.2,0.9v0.9c0,0.3,0,0.7-0.1,1.2
			c-0.1,0.5-0.1,0.8-0.1,1.2c0,0.8,0,1.7,0.1,2.7c0.1,1,0.1,2,0.1,2.9c0,1.8-0.2,3.6-0.7,5.3v0.2c0.2,0.2,0.2,0.3,0.2,0.5
			c0,0.2,0.1,0.3,0.2,0.5c0,0.3,0,0.7,0.1,1.2c0.1,0.5,0.1,0.9,0.1,1.4v4.4c0,1.2,0,2.4-0.1,3.6c-0.1,1.2-0.1,2.3-0.1,3.6v0.5
			l-0.2,0.2l0.2,0.2c0.3,0.3,0.5,0.7,0.5,1.2c0,0.6-0.3,1-0.9,1.2l-0.9,0.5c-0.5,0-1.2,0.2-2.1,0.5c-0.8,0.2-1.5,0.3-2.3,0.3
			c-0.8,0.1-1.3,0.1-1.6,0.1c-2.8,0.2-5.5,0.3-8.3,0.3c-2.8,0.1-5.5,0.1-8.3,0.1c-0.9,0-1.6-0.1-2.1-0.2c-0.5,0-1.1-0.2-1.8-0.7
			c-0.2,0-0.3,0.1-0.5,0.2h-0.9l-0.5,0.2H225.5z"/>
		<path class="st0" d="M293.6,1028.8l0.7-0.7c0.5,0,0.9-0.4,1.4-1.2c0.3-0.3,0.6-0.5,0.9-0.5v-0.2v-0.2c0-0.3,0-0.5,0.1-0.6
			c0.1-0.1,0.1-0.3,0.1-0.6c0-0.5,0-0.8,0.1-1.2c0.1-0.3,0.1-0.5,0.1-0.7c0.5-2,1-4,1.5-6c0.5-2,1-3.9,1.5-5.8
			c0.3-0.8,0.6-1.5,0.8-2.1c0.2-0.6,0.4-1.3,0.6-2.1c0.3-0.8,0.6-1.4,0.8-1.8c0.2-0.5,0.4-1.1,0.6-1.8c0.8-3.4,1.6-6.7,2.5-9.9
			c0.9-3.2,1.8-6.4,2.8-9.5c0.3-1.2,0.6-2.4,0.9-3.6c0.3-1.2,0.6-2.3,0.9-3.6l3.5-10.2c1.2-4.5,2.4-8.8,3.6-13.2
			c1.2-4.3,2.4-8.6,3.8-12.9c0.6-1.7,1-3.3,1.3-4.8c0.2-1.5,0.6-3.1,1-4.6c1.1-2.6,1.9-5.5,2.5-8.5c0.5-1.5,0.9-3,1.3-4.4
			c0.4-1.4,0.8-2.6,1.3-3.7c0.3-0.6,0.5-1.1,0.5-1.4c0.3-0.3,0.5-0.6,0.5-0.9c0-0.3,0.1-0.6,0.2-0.9c0-1.5,0.3-2.9,0.9-4.2
			c0.5-0.5,0.7-1,0.7-1.6c0-1.1,0.1-1.8,0.2-2.3c0.6-2.6,1.3-5.1,2.2-7.5c0.8-2.4,1.7-4.9,2.4-7.5c0.6-2.2,1.2-4.2,1.6-6.2
			c0.5-2,0.9-3.9,1.4-5.8c0.6-1.7,1.3-2.7,2.1-3c0.3-0.2,0.8-0.2,1.6-0.2c0.2-0.2,0.7-0.2,1.6-0.2c2.2-0.2,4.3-0.4,6.5-0.7
			c2.2-0.3,4.3-0.5,6.5-0.5h15.5c3.8,0,7.6,0.2,11.3,0.7c1.2,0.2,2.4,0.2,3.5,0.1c1.1-0.1,2.2-0.1,3.5-0.1h0.7l0.2,0.9
			c0.5,1.5,1.1,3.2,1.8,5.1c0.3,0.9,0.5,1.9,0.7,2.9c0.2,1,0.2,1.9,0.2,2.7c0.5,2.8,1.2,5.5,2.1,8.1c0.8,1.8,1.4,3.7,2,5.5
			c0.5,1.8,1,3.8,1.3,6c0.8,4,1.7,8,2.9,12c1.2,4,2.2,8,3.1,12l0.2,0.9l-0.7,0.2l1.2,0.7v0.5c0.3,1.1,0.5,2.1,0.6,3
			c0.1,0.9,0.2,1.9,0.3,3c0.3,1.2,0.5,2.3,0.7,3.2c0.2,0.9,0.4,1.8,0.7,2.8l0.5,0.7c0.2,0.5,0.5,1.7,1,3.6c0.5,1.9,1.1,4,1.7,6.2
			c0.6,2.2,1.2,4.3,1.7,6.1c0.5,1.8,0.8,2.9,0.8,3.2c0,1.5,0.5,2.8,1.4,3.7l0.5,0.2v0.5c0.5,2.8,1,5.5,1.6,8.3
			c0.6,2.8,1.2,5.6,1.8,8.5c0.5,2.8,1.2,5.5,2.3,8.1c0.8,1.8,1.3,3.7,1.5,5.7c0.2,1.9,0.3,3.8,0.3,5.7c0.8,0.9,1.2,1.7,1.4,2.3
			c0.2,0.6,0.3,1.2,0.5,1.8v1.8c0.2,0.3,0.2,0.6,0.2,0.8c0,0.2,0.2,0.5,0.5,0.8c0.3,1.2,0.7,2.3,1,3.2c0.4,0.9,0.7,2,1,3.2
			c0.3,0.8,0.5,1.5,0.6,2.1c0.1,0.6,0.2,1.2,0.3,1.8c0.2,0.9,0.7,2,1.6,3.2l0.2,0.5l-0.2,0.5c-0.2,0.2-0.2,0.5-0.2,1.2
			c0,0.5,0,1,0.1,1.5c0.1,0.5,0.1,1,0.1,1.5c0,2.3-1.1,3.5-3.2,3.5c-0.8,0-1.5-0.1-2.1-0.2c-0.6-0.2-1.3-0.2-2.1-0.2
			c-1.2,0-2.4,0-3.6,0.1c-1.2,0.1-2.3,0.1-3.3,0.1H411c-0.9,0-1.9,0-2.9,0c-1,0-1.9,0.2-2.7,0.5h-0.9c-0.2,0.2-0.4,0.2-0.7,0.2
			c-2.8,0-4.5-1.3-5.3-3.9c-0.6-2.2-1.1-4.2-1.4-6.2c-0.3-2-0.8-4.1-1.4-6.2c-1.1-4-2.2-7.9-3.3-11.8c-1.2-3.8-2.1-7.8-2.9-12
			c-0.8-0.2-1.5-0.2-2.2-0.2c-0.7,0-1.4,0-2.2,0c-0.8,0.2-1.7,0.2-2.7,0.2c-1,0-2,0-2.9,0c-4.5,0-9-0.1-13.5-0.2
			c-4.5-0.2-9-0.2-13.5-0.2h-13.1c-0.5,1.2-1.3,3.9-2.7,8.1c-1.3,4.2-2.7,8.5-4,12.9c-1.4,4.5-2.6,8.5-3.6,12.2
			c-1,3.7-1.5,5.7-1.5,6v0.7l-0.7,0.2c-1.2,0.6-2.5,1-3.7,1.2c-1.2,0.2-2.5,0.2-3.7,0.2c-1.2,0-2.5,0-3.7-0.1
			c-1.2-0.1-2.5-0.1-3.7-0.1c-2,0-4,0.1-6,0.2c-2,0.2-4.1,0.2-6.2,0.2c-1.5,0-2.7-0.5-3.5-1.4c-0.3-0.3-0.5-0.5-0.7-0.7
			c-0.2-0.2-0.3-0.3-0.5-0.5c-0.6-0.6-1-1.1-1.2-1.4L293.6,1028.8z M363.7,903.1v0.9c0,1.4-0.4,3.2-1.2,5.4c-0.8,2.2-1.3,4-1.6,5.2
			c-0.6,1.7-1.1,3.4-1.4,5.2c-0.3,1.8-0.8,3.5-1.4,5.2c-0.5,1.2-0.9,2.4-1.3,3.5c-0.4,1.1-0.7,2.2-1,3.5c-0.3,1.1-0.5,2.1-0.7,3.1
			c-0.2,1-0.2,2.1-0.2,3.3c0,0.5-0.2,0.9-0.7,1.4c-0.3,0.6-0.6,1.1-0.8,1.5c-0.2,0.4-0.4,0.8-0.6,1.3c0,0.6-0.1,1.1-0.2,1.4
			c0,0.5-0.2,1.2-0.5,2.1c-0.3,0.5-0.5,1-0.7,1.6c-0.2,0.6-0.3,1.2-0.5,1.8c-0.2,0.5-0.3,1-0.3,1.6c-0.1,0.6-0.3,1.3-0.6,2.1
			c-0.3,1.4-0.6,2.7-0.8,4c-0.2,1.3-0.7,2.5-1.3,3.6c-0.2,0.3-0.3,0.6-0.6,0.9c-0.2,0.3-0.4,0.6-0.6,0.9c-0.2,0.5-0.2,1-0.2,1.6v1.4
			v0.7c0,0.2,0,0.3-0.1,0.5c-0.1,0.2-0.1,0.3-0.1,0.5c-0.5,0.6-0.7,1.2-0.7,1.8c-0.3,0.5-0.5,0.9-0.6,1.3c-0.1,0.4-0.3,0.8-0.6,1.3
			c1.1,0.2,2.2,0.3,3.2,0.3c1.1,0.1,2.2,0.1,3.5,0.1c1.7,0,3.4,0,5.1-0.1c1.7-0.1,3.4-0.1,5.1-0.1c1.7-0.2,3.3-0.2,5-0.2
			c1.6,0,3,0,4.3,0c1.1,0.2,2,0.3,2.9,0.3c0.8,0.1,1.7,0.3,2.4,0.6c0.6-0.3,1.2-0.5,1.7-0.5c0.5,0,1.1-0.1,1.7-0.2
			c0.6,0,1.2,0,1.6,0.1c0.5,0.1,1.1,0.1,1.8,0.1h1.2c-2.5-12.5-5.4-24.7-8.9-36.7s-6.7-24.1-9.6-36.5c-0.2,0.2-0.2,0.3-0.2,0.5
			c-0.2,0.9-0.5,1.8-0.9,2.5v0.5L363.7,903.1z"/>
		<path class="st0" d="M458.1,1010.4l0.5-0.7h0.2c-0.3-0.6-0.5-1.1-0.5-1.4c0-0.3,0-0.5,0.1-0.7c0.1-0.2,0.1-0.3,0.1-0.5l-0.5-1.6
			l0.5-0.5l0.5-0.5h-0.2c-0.5-0.5-0.7-1.1-0.7-1.8c0-5.1,0-10.1,0.1-15.1c0.1-5,0.1-10,0.1-15.1c0-0.8,0-1.5,0.1-2.2
			c0.1-0.7,0.1-1.3,0.1-2v-1.2h0.5l-0.5-0.5c-0.2-0.3-0.2-0.7-0.2-1.2c0-7.7,0-15.2-0.1-22.6c-0.1-7.4-0.1-14.8-0.1-22.4
			c0-1.1,0.1-2.1,0.2-3c0.2-0.9,0.2-1.9,0.2-3c0-0.3-0.1-0.7-0.2-1.3c-0.2-0.5-0.2-1.1-0.2-1.7c0-0.3,0.1-0.7,0.2-1.2
			c0.2-0.5,0.2-0.9,0.2-1.4c0-1.1-0.2-2.2-0.5-3.2c-0.3-1.1-0.5-2.2-0.5-3.2c0-0.3,0.1-0.7,0.2-1c0.2-0.4,0.3-0.7,0.5-1v-0.5v-0.7
			c-0.2-0.2-0.2-0.4-0.2-0.7V898c-0.3-0.3-0.5-0.7-0.5-1.2c0-0.9,0.1-1.9,0.3-3c0.2-1.1,0.3-2.2,0.3-3.5c0-1.8-0.1-3.7-0.3-5.5
			c-0.2-1.8-0.3-3.7-0.3-5.5v-1.6v-1.2c0-1.2,0.7-2.4,2.1-3.5l0.2-0.2h4.6c0.9,0,1.8,0,2.8,0.1c0.9,0.1,1.8,0.1,2.8,0.1
			c2.3,0,4.7-0.1,7.2-0.2c2.5-0.2,4.9-0.2,7.4-0.2c1.1,0,2.1,0.2,3,0.7c0.8,0,1.5,0.2,2.1,0.7c0.2,0.2,0.3,0.4,0.6,0.7
			c0.2,0.3,0.3,0.6,0.3,0.9c0,0.3,0,0.5-0.1,0.6c-0.1,0.1-0.1,0.3-0.1,0.6c0,0.3-0.1,0.5-0.2,0.7v0.2l-0.2,0.5c0,0.3,0,0.7,0.1,1.2
			c0.1,0.5,0.1,0.8,0.1,1.2c0,2.5,0,4.9-0.1,7.3c-0.1,2.4-0.1,4.8-0.1,7.3v0.2c0,0.2,0.1,0.3,0.2,0.5v0.2v0.7v0.5l-0.9,0.9
			c0,0.5,0.1,0.9,0.2,1.4c0.2,0.5,0.3,0.9,0.5,1.4c0.2,0.8,0.2,1.4,0.2,2c0,0.5,0,1.2,0,2c0,1.2,0,2.5-0.1,3.7
			c-0.1,1.2-0.1,2.5-0.1,3.7c0,3.4,0.1,6.8,0.2,10.2c0.2,3.4,0.2,6.8,0.2,10.2v0.2c0.2,0.3,0.3,0.6,0.5,0.8c0.2,0.2,0.2,0.5,0.2,0.8
			c0,0.3-0.1,0.6-0.2,0.9c-0.2,0.3-0.3,0.6-0.5,0.9c0,0.2-0.2,0.5-0.5,1.2c0.3,1.5,0.5,2.7,0.5,3.5c0,0.9-0.1,1.8-0.2,2.7
			c-0.2,0.8-0.2,1.7-0.2,2.4c0,1.7,0.1,3.4,0.2,5.2c0.2,1.8,0.2,3.5,0.2,5.2v0.9c0,0.3,0,0.5-0.1,0.6c-0.1,0.1-0.1,0.2-0.1,0.3
			c0,0.3,0,0.5-0.1,0.7c-0.1,0.2-0.1,0.4-0.1,0.7v0.2c0,0.2,0.1,0.3,0.2,0.5v0.5v0.7c0,1.8,0,3.7,0.1,5.4c0.1,1.8,0.1,3.5,0.1,5.2
			v0.5l-0.7,0.9l0.7,1.6v0.2v6.2v12.5c0,0.9,0,1.8,0.1,2.8c0.1,0.9,0.1,1.9,0.1,3c0,1.8,0,3.7-0.1,5.4c-0.1,1.8-0.1,3.6-0.1,5.4v0.9
			c-0.2,0-0.2,0.2-0.2,0.5l-0.2,0.2c0,1.4,0.1,2.8,0.3,4.4c0.2,1.5,0.3,3.2,0.3,4.8c0,1.4,0,2.8-0.1,4.3c-0.1,1.5-0.1,3-0.1,4.5v0.9
			l-0.7,0.2c-4,0.6-7.8,1-11.5,1.2c-3.7,0.2-7.5,0.2-11.3,0.2c-0.6,0-1.3,0-2-0.1c-0.7-0.1-1.4-0.3-2.2-0.8h-0.2
			c-0.5,0.2-0.9,0.2-1.4,0.2c-1.1,0-1.9-0.5-2.5-1.4c-0.3-1.2-0.5-2.1-0.5-2.5c0-0.8,0-1.6,0.1-2.4c0.1-0.8,0.1-1.4,0.1-1.7v-8.3
			c0-0.9,0.1-1.6,0.2-2.1c0-0.2,0-0.3,0.1-0.3c0.1-0.1,0.1-0.2,0.1-0.3v-0.5v-0.2l-0.5-0.9L458.1,1010.4z"/>
		<path class="st0" d="M528.4,1005.1l1.2-1.2c0.2,0,0.2-0.1,0.2-0.2c-0.3-0.3-0.5-1-0.5-2.1v-30.5c0-0.8,0-1.4,0.1-2
			c0.1-0.5,0.1-1.2,0.1-2v-1.2h0.5c-0.5-0.5-0.7-1.1-0.7-1.8c0-6.5,0-12.8-0.1-18.9c-0.1-6.1-0.1-12.4-0.1-18.7c0-2.2,0-4.3,0.1-6.3
			c0.1-2.1,0.1-4.2,0.1-6.3c0-0.6,0-1.3-0.1-2c-0.1-0.7-0.1-1.4-0.1-2.2c0-0.5,0-0.9,0.1-1.4c0.1-0.5,0.1-0.9,0.1-1.4
			c0-0.9-0.1-1.8-0.3-2.8c-0.2-0.9-0.3-1.8-0.3-2.8c0-0.3,0.1-0.7,0.2-1c0.2-0.4,0.3-0.7,0.5-1V899c0-0.5,0-1-0.1-1.5
			c-0.1-0.5-0.1-1-0.1-1.5c0-0.9,0-1.9,0.1-2.9c0.1-1,0.1-2.1,0.1-3.3c0-1.7-0.1-3.4-0.3-5.2c-0.2-1.8-0.3-3.5-0.3-5.2v-0.9
			c0.3,0,0.5-0.2,0.5-0.5l0.2-0.2v-0.2h-0.2c0-0.3-0.2-0.5-0.5-0.5v-0.9c0-1.8,0.8-3.2,2.3-4.2l0.2-0.2h0.2c1.8,0,3.7,0.1,5.4,0.2
			c1.8,0.2,3.5,0.2,5.2,0.2c2.3,0,4.6-0.1,6.9-0.3c2.3-0.2,4.6-0.3,6.9-0.3c0.8,0,1.8,0.2,3,0.5c0.5,0.2,1,0.5,1.6,0.9
			c0.6,0.5,0.9,1.1,0.9,1.8c0,0.9-0.1,1.6-0.2,2.1c-0.2,0.3-0.2,0.7-0.2,1.2v2.1v8.1c0,0.8-0.1,1.4-0.2,1.8c0.2,0.3,0.2,0.8,0.2,1.4
			c0,0.6,0,1.3,0,2.1c0,0.8,0,1.7,0,2.8l-0.2,0.5h-0.5v0.2c-0.2,0-0.2,0.1-0.2,0.2c0.9,2.8,1.4,5.5,1.4,8.3c0,0.3,0,0.5-0.1,0.6
			c-0.1,0.1-0.1,0.2-0.1,0.3c0,0.5-0.1,0.8-0.2,0.9v0.9v1.6c0.2,0.5,0.2,1.1,0.2,1.8c0,0.8,0,1.5-0.1,2.1c-0.1,0.6-0.1,1.3-0.1,2.1
			c0,0.9,0,1.8,0.1,2.8c0.1,0.9,0.1,1.8,0.1,2.8v5.1c0,1.4,0.2,2.7,0.5,3.9c0.3,1.2,0.5,2.5,0.5,3.7c0,0.3-0.1,0.5-0.2,0.6
			c-0.2,0.1-0.2,0.2-0.2,0.3c0,0.3,0,0.5-0.1,0.6c-0.1,0.1-0.1,0.2-0.1,0.3c0,0.2,0,0.3-0.1,0.5c-0.1,0.2-0.1,0.4-0.1,0.7
			c0,1.2,0,2.5-0.1,3.8c-0.1,1.3-0.1,2.6-0.1,3.8c0,1.8,0.1,3.7,0.2,5.4c0.2,1.8,0.2,3.6,0.2,5.4v0.9c0,0.3,0,0.5-0.1,0.6
			c-0.1,0.1-0.1,0.2-0.1,0.3c0,0.3,0,0.5-0.1,0.7c-0.1,0.2-0.1,0.4-0.1,0.7v0.5c0.2,0.2,0.2,0.4,0.2,0.7c0,0.3,0.1,0.5,0.2,0.7v0.9
			c0,0.6,0,1.2-0.1,1.7c-0.1,0.5-0.1,1.1-0.1,1.7c0,0.8,0,1.6,0.1,2.4c0.1,0.8,0.1,1.7,0.1,2.4v0.5c0,0.2-0.1,0.3-0.2,0.5v0.2
			c0,0.2-0.2,0.5-0.5,1.2h0.7v14.8c0,1.1,0,2.2-0.1,3.2c-0.1,1.1-0.1,2.2-0.1,3.5c0,1.1,0.1,2.1,0.2,3.1c0.2,1,0.2,2,0.2,3.1
			c0,0.9,0,1.8-0.1,2.8c-0.1,0.9-0.1,1.8-0.1,2.5c0,0.3,0,0.7,0.1,1c0.1,0.4,0.1,0.7,0.1,1c1.8,0.2,3.7,0.3,5.7,0.3
			c1.9,0.1,3.8,0.1,5.7,0.1c1.2,0,2.3,0,3.3-0.1c1-0.1,2.1-0.1,3.3-0.1c2.2,0,4.3,0.1,6.6,0.3c2.2,0.2,4.4,0.3,6.6,0.3
			c4.9,0,9.8-0.2,14.8-0.6c4.9-0.4,9.8-0.6,14.8-0.6c3.8,0,6.3,0.9,7.4,2.8c0.3,0.6,0.5,1.6,0.5,3v4.2c0,0.9,0.2,1.6,0.5,2.1
			c0,0.3,0,0.5,0.1,0.7c0.1,0.2,0.1,0.4,0.1,0.7v1.4c0,0.2,0,0.6-0.1,1.4c-0.1,0.8-0.2,1.6-0.3,2.5c-0.2,0.9-0.3,1.8-0.5,2.5
			c-0.2,0.8-0.2,1.2-0.2,1.4c-0.2,1.7-1.2,2.5-3.2,2.5c-0.8,0-2,0-3.7-0.1c-1.7-0.1-3.5-0.1-5.3-0.1c-1.7,0-3.4,0-5.1,0.1
			c-1.7,0.1-3.1,0.3-4.2,0.6l-0.5,0.2c-0.3,0.2-0.5,0.3-0.7,0.5c-0.2,0.2-0.3,0.2-0.5,0.2l-0.9,0.5l-0.5-0.7c-0.9-0.9-2-1.4-3.2-1.4
			c-1.4,0-2.8,0.1-4.2,0.2c-1.4,0.2-2.8,0.2-4.2,0.2c-2.5,0-4.8-0.1-7-0.2c-2.2-0.2-4.5-0.2-6.8-0.2h-14.5c-2.2,0-4.2-0.1-6.1-0.3
			c-1.9-0.2-3.8-0.3-5.7-0.3c-2.8,0-5.5,0-8.3,0.1c-2.8,0.1-5.5,0.1-8.3,0.1c-0.9,0-1.9-0.3-3-0.9l-0.5,0.2h-1.4
			c-0.8,0-1.4-0.2-2-0.6c-0.5-0.4-0.8-1-0.8-2c0-1.1,0-2.1,0.1-3.1c0.1-1,0.1-2,0.1-2.9c0-0.3,0-0.6-0.1-0.9
			c-0.1-0.3-0.1-0.6-0.1-0.9c0-0.5,0-0.8,0.1-0.9c0.1-0.2,0.2-0.4,0.3-0.7c0-0.2-0.1-0.2-0.2-0.2c0-0.3-0.1-0.5-0.2-0.5v-0.9
			c0-0.5,0-1-0.1-1.5c-0.1-0.5-0.1-1-0.1-1.5c0-0.8,0.1-1.5,0.2-2.1c0.2-0.6,0.2-1.3,0.2-2.1c0-0.5,0.1-0.8,0.2-0.9v-0.2
			c-0.3-0.6-0.5-1.1-0.5-1.4c0-0.3,0.2-0.8,0.5-1.4l0.2-0.2l-0.2-0.2L528.4,1005.1z"/>
	</g>
	<g>
		<g>
			<path class="st1" d="M186.9,408.6c-2.5-2.3-3.7-5.3-3.9-8.7c0-3.4,1.1-6.2,3.4-8.7c2.1-2.5,4.8-3.7,8.2-3.9
				c3.4-0.2,6.9-0.2,10.1-0.5c-6.6-40.2-10.1-99.4-10.3-177.3c0-28.8,0.2-54.1,0.7-75.6c0.5-21.7,0.9-39.1,1.4-52.5
				c-6.4,0.7-10.1,1.1-11,1.1c-3,0-5.7-0.9-8.2-3c-2.5-2.1-3.7-5.3-3.9-9.4c0-3,0.9-5.5,2.7-8c2.1-2.3,4.6-3.7,8-4.1
				c51.9-5.9,78.4-8.9,79.3-8.9c3,0,5.7,0.9,8.2,3c2.5,2.1,3.7,5.3,3.9,9.4c0,2.7-0.9,5.5-2.7,7.8c-1.8,2.5-4.6,3.9-8,4.3
				c-3.4,0.5-7.1,0.7-10.5,1.1c-7.8,65.3-12.3,133-14.2,202.9c16.7-15.5,33.4-37.2,50.3-65.6c22.2-37,41.8-82.7,58.7-136.8l-19-5
				c-3.4-0.9-5.9-2.7-7.5-5.5c-1.1-1.8-1.8-3.9-1.8-6.2c0-4.1,1.6-7.3,4.8-9.8c2.1-1.6,4.6-2.5,7.3-2.7c0.9,0,27.2,6.6,79,19.9
				c3.4,0.9,5.9,2.7,7.5,5.5c1.1,2.1,1.8,4.1,1.8,6.4c0,4.6-2.1,8.2-5.9,10.5c-1.8,1.1-3.9,1.8-6.2,1.8c-1.1,0-5-0.9-11.2-2.5
				c-5.5,17.4-13.9,38.6-25.1,63.1c-14.2,30.8-29.9,58.3-47.1,82.2c-21.5,29.7-44.1,51.4-68.1,65.6c7.1,9.8,16.2,18,27.4,24.7
				c9.8,5.9,20.1,8.9,31.1,8.9c4.6,0,10.1-0.9,16.9-2.3c6.9-1.4,15.3-5.5,25.4-12.1c2.3-1.4,4.3-2.1,6.9-2.1c4.1,0,7.5,1.8,10.1,5.3
				c1.4,2.3,2.1,4.6,2.1,7.1c0,4.1-1.8,7.5-5.3,10.1c-19.4,13-37.9,19.4-56,19.4c-1.1,0-4.1,0-9.1-0.2c-5-0.2-11.2-1.8-18.7-4.8
				c-7.5-3-14.2-6.4-20.3-10.7c-6.2-4.3-11.7-8.7-16.4-13.5c-4.8-4.8-8.9-9.1-12.3-13.5c-0.2,18-0.5,33.8-0.5,47.3l0.2,23.8
				l15.8-0.7c3.4,0,6.2,1.1,8.7,3.2c2.3,2.3,3.7,5.3,3.9,8.7c0,3.4-1.1,6.4-3.4,8.7c-2.3,2.5-5,3.7-8.5,3.9l-59.9,2.5
				C192.2,412.1,189.2,410.9,186.9,408.6z"/>
			<path class="st1" d="M435.9,384c-3.4-2.1-5.3-5.5-5.3-10.3c0-6.2,3.2-10.1,9.4-11.7c0.2-0.2,2.3-0.7,6.4-1.4
				c-5-25.1-7.5-61-7.5-107.6c0-18.7,0.2-36.1,0.7-52.3c0.5-16.2,1.1-31.5,2.1-46.1c0.7-14.6,1.4-26.3,2.1-35.2l-16.5,1.6
				c-3.4,0-6.4-0.9-8.9-3c-2.5-2.1-3.9-4.8-4.3-8.7c0-3.4,0.9-6.2,3-8.7c2.1-2.5,4.8-3.9,8.2-4.1l77.9-7.1c3.9,0,6.9,0.9,9.1,3
				s3.7,5,4.1,8.5c0,3.4-0.9,6.4-3,8.9c-2.1,2.5-4.8,3.9-8.2,4.1c-3.4,0.2-7.1,0.7-10.5,0.9c-3.7,23.8-6.4,47.5-8.5,71.5
				c-3.9,44.8-5.9,87.5-6.4,127.9c-0.2,11.7-0.2,25.6-0.2,42.3c5.9,0,10.7,0.2,14.4,0.7c3.4,0.5,6.2,1.8,8,4.1
				c1.8,2.5,2.7,5,2.7,7.8c0,4.1-1.6,7.3-4.8,10.1c-2.1,1.6-4.6,2.5-7.3,2.5l-1.8-0.2c-3-0.2-5.9-0.5-9.1-0.5c-3,0-7.1,0.2-12.1,0.7
				c-5,0.7-10.1,1.4-15.1,2.3c-5,0.9-8,1.6-8.9,1.8c-0.9,0.2-1.8,0.5-2.7,0.5C440.5,386.2,438.2,385.6,435.9,384z"/>
			<path class="st1" d="M583.3,394.5c-5.4-2.8-9.8-6.7-13-11.7c-4.3-6.3-6.5-13.7-6.5-22.2c0-6.7,1.5-14.3,4.1-22.6
				c-6.1-1.3-9.3-4.3-9.3-8.7c0-3.3,1.3-5.7,3.7-7.4c1.5-1.1,3-1.7,4.8-1.7l25.9,4.1c2.4,0.4,4.3,1.5,5.4,3.3c1.3,2,1.7,3.7,1.7,5.7
				c0,2.8-1.3,5.2-3.5,7c-1.5,1.1-3.3,1.5-5.2,1.5c-2-0.2-3.9-0.4-5.9-0.9c-2.8,8-4.3,14.8-4.3,20.2c0,1.1,0.2,3.3,0.7,6.5
				c0.2,3.5,2,6.5,5,9.1c3,2.4,6.5,3.7,10.4,3.7c0.4,0,2,0,4.3-0.2c2.6-0.2,6.3-2,11.1-5.2c4.6-3.3,8.7-7.6,12.4-13.5
				s6.3-12.2,8.3-19.1c2-6.7,3-14.3,3.3-22.4c0-6.7-0.4-12.6-1.7-17.6c-1.5-7.2-3.9-11.7-7-14.1c-2.2-1.5-4.6-2.4-7.4-2.4
				c-3.9,0-10.4,2.2-19.6,6.1c-4.8,2-10.4,3-17.2,3c-7.4,0-15.2-1.1-23.3-3.3c-16.7-4.1-28-10.9-33.9-19.8
				c-8.3-13.5-12.2-30.2-12.2-50c0-17.4,3.3-35.7,9.8-54.6c9.3-27.2,23.5-50.2,42.6-69.4c20.9-20.9,44.6-33.3,71.1-37.2
				c4.8-0.7,9.3-1.1,13.5-1.1c33.3,0,49.8,19.4,49.8,57.8c0,23.5-5.4,49.4-16.5,77.8c-1.7,4.8-5.2,7.2-10.2,7.2
				c-1.5,0-3-0.4-4.8-1.1c-5-2.2-7.4-5.9-7.4-11.1c0-1.3,0.2-2.6,0.7-4.1c2.4-6.1,4.3-12.8,6.1-20.2c3-12.2,4.3-23.5,4.3-33.5
				c0-10.7-1.5-18.7-4.8-24.6c-3-5.2-7.6-7.8-13.7-8c-4.1,0-8.9,1.5-14.4,4.1c-9.8,5-18.9,11.3-27,19.4c-8.3,8-15.7,17.2-22,27
				c-6.3,10-11.7,20.4-16.3,31.1c-4.6,10.7-8,21.3-10.4,31.5c-2.4,10.4-3.7,20.2-3.9,29.6c0,8.5,1.1,15.7,3,21.3
				c3.3,8.5,8.7,12.6,16.5,12.6c3.5,0,7.4-0.9,12-2.8c8.5-3.7,17.4-5.4,26.7-5.7c18.5,0,34.6,6.5,48.7,19.4
				c10.2,10,15.4,22.4,15.4,37.2c0,10.7-2.6,20.9-7.6,31.3c-8.3,16.3-20,28.5-35.2,36.7c-10.2,5.2-20.9,7.8-32.4,7.8
				C598.7,400.4,590.5,398.4,583.3,394.5z"/>
			<path class="st1" d="M779.7,407c-5.7-3-10.3-7.1-13.7-12.3c-4.6-6.6-6.9-14.4-6.9-23.3c0-7.1,1.6-15.1,4.3-23.8
				c-6.4-1.4-9.8-4.6-9.8-9.1c0-3.4,1.4-5.9,3.9-7.8c1.6-1.1,3.2-1.8,5-1.8l27.2,4.3c2.5,0.5,4.6,1.6,5.7,3.4
				c1.4,2.1,1.8,3.9,1.8,5.9c0,3-1.4,5.5-3.7,7.3c-1.6,1.1-3.4,1.6-5.5,1.6c-2.1-0.2-4.1-0.5-6.2-0.9c-3,8.5-4.6,15.5-4.6,21.2
				c0,1.1,0.2,3.4,0.7,6.9c0.2,3.7,2.1,6.9,5.3,9.6c3.2,2.5,6.9,3.9,11,3.9c0.5,0,2.1,0,4.6-0.2c2.7-0.2,6.6-2.1,11.7-5.5
				c4.8-3.4,9.1-8,13-14.2c3.9-6.2,6.6-12.8,8.7-20.1c2.1-7.1,3.2-15.1,3.4-23.5c0-7.1-0.5-13.3-1.8-18.5
				c-1.6-7.5-4.1-12.3-7.3-14.8c-2.3-1.6-4.8-2.5-7.8-2.5c-4.1,0-11,2.3-20.6,6.4c-5,2.1-11,3.2-18,3.2c-7.8,0-16-1.1-24.4-3.4
				c-17.6-4.3-29.5-11.4-35.6-20.8c-8.7-14.2-12.8-31.8-12.8-52.5c0-18.3,3.4-37.5,10.3-57.3c9.8-28.6,24.7-52.8,44.8-72.9
				c21.9-21.9,46.8-35,74.7-39.1c5-0.7,9.8-1.1,14.2-1.1c35,0,52.3,20.3,52.3,60.8c0,24.7-5.7,51.9-17.4,81.8
				c-1.8,5-5.5,7.5-10.7,7.5c-1.6,0-3.2-0.5-5-1.1c-5.3-2.3-7.8-6.2-7.8-11.7c0-1.4,0.2-2.7,0.7-4.3c2.5-6.4,4.6-13.5,6.4-21.2
				c3.2-12.8,4.6-24.7,4.6-35.2c0-11.2-1.6-19.6-5-25.8c-3.2-5.5-8-8.2-14.4-8.5c-4.3,0-9.4,1.6-15.1,4.3
				c-10.3,5.3-19.9,11.9-28.3,20.3c-8.7,8.5-16.4,18-23.1,28.3c-6.6,10.5-12.3,21.5-17.1,32.7c-4.8,11.2-8.5,22.4-11,33.1
				c-2.5,11-3.9,21.2-4.1,31.1c0,8.9,1.1,16.4,3.2,22.4c3.4,8.9,9.1,13.2,17.4,13.2c3.7,0,7.8-0.9,12.6-3c8.9-3.9,18.3-5.7,28.1-5.9
				c19.4,0,36.3,6.9,51.2,20.3c10.7,10.5,16.2,23.5,16.2,39.1c0,11.2-2.7,21.9-8,32.9c-8.7,17.1-21,29.9-37,38.6
				c-10.7,5.5-21.9,8.2-34,8.2C795.9,413.2,787.2,411.2,779.7,407z"/>
		</g>
	</g>
	<g>
		<g>
			<path class="st2" d="M475.2,697.1c-7.9,0-14.3-3.1-19.1-9.4c0.5-16.4,0.7-34.8,0.7-55.1c0-25.3-0.2-51.6-0.5-78.9
				c-0.4-24.8-0.5-46.9-0.5-66.1v-6.1l-41.6,141.5c-2.5,3.6-5.4,6.3-8.6,8.1c-3.2,1.8-6.5,2.7-9.9,2.7c-4,0-7.7-1.1-11.2-3.3
				c-3.5-2.2-6.3-5.4-8.5-9.6c-2.8-5.3-11.2-24.2-25.2-56.7c-13.2-31.4-27.2-62.5-41.9-93.1c-0.8,27.1-1.3,53.1-1.3,78
				c0,44.7,1.2,91.1,3.6,139.4c-2.5,3.8-5.9,5.8-10.1,5.8c-2.2,0-4.1-0.6-5.9-1.9c-1.8-1.3-2.9-3-3.4-5.1
				c0.4-12.6,0.5-25.2,0.5-37.8c0-22.9-0.4-45.7-1.1-68.4c-0.7-22.7-1.1-45.4-1.1-68.2c0-20.9,0.6-41.9,1.8-63.2l-0.2-14.6
				c0-7.1,0.7-12.7,2.2-16.9c1.3-2.8,3.2-4.9,5.8-6.3c2.5-1.4,5.3-2.2,8.3-2.2c2.8,0,5.6,0.7,8.5,2c7.4,3.6,17.5,19.8,30.2,48.6
				c7.8,16.9,17.5,39.4,29,67.5c9.2,22.7,18.8,45,28.6,67l48.6-172.3c1-4,3.6-7.1,8-9.3c4.4-2.2,9.2-3.3,14.3-3.3
				c3.7,0,7.2,0.6,10.5,1.9c3.3,1.3,5.9,3.3,7.8,6l0.5,45.2c0.7,46.6,1.1,93,1.1,139.3c0,29-0.2,58.8-0.7,89.1
				C488.4,695.2,482,697.1,475.2,697.1z"/>
			<path class="st2" d="M565.2,696c-9.4,0-18.2-2.1-26.6-6.3c-10-8-14.9-19.8-14.9-35.3c0-12.2,2.9-26.1,8.6-41.6
				c0.5-1.7,1.7-3,3.7-4c2-1,4-1.4,6-1.4c1.8,0,3.3,0.4,4.6,1.1c1.3,0.7,1.9,1.9,1.9,3.6c0,1.2-0.4,2.7-1.3,4.5
				c-1.7,3.1-3.5,8.9-5.4,17.4c-1.9,8.5-2.9,16.7-2.9,24.8c0,12.6,3.3,19.3,9.9,20.2c21.7,0,38.3-21.3,49.7-63.9
				c2.9-10.8,5.3-20.9,7.4-30.4l1.8-8.3c0.8-4.7,1.4-8.5,1.6-11.5c0.2-3,0.7-6.5,1.3-10.6c-7.6,10.1-17.6,19.2-30.2,27.4
				c-7.9,3.7-16.3,5.6-25.2,5.6c-3.5,0-6.7-0.3-9.7-0.9c-10.1-2.9-17.5-7.9-22.3-15.1c-7.7-11.3-12.8-23.5-15.2-36.5
				c-2.5-13.1-3.7-26.6-3.7-40.5c0-9.5,0.2-19,0.7-28.6c0.5-9.6,0.7-19.1,0.7-28.4c0-6.5-0.2-12.9-0.7-19.3c1.7-3.7,4.7-6.4,8.9-8.1
				c4.3-1.7,8.9-2.5,14-2.5c6.2,0,12,1.1,17.3,3.2c5.3,2.1,8.4,4.9,9.4,8.4c-0.4,9.7-1,21-2,33.8c-1.9,27.2-2.9,48.1-2.9,62.5
				c0,10.7,0.5,20.4,1.6,29.2c1.1,8.8,3,15.8,5.7,21c2.7,5.2,6.5,7.8,11.4,7.8c5.5-0.1,12.7-7.2,21.4-21.2c8.2-13,14.8-26.5,20-40.7
				c3.6-10.3,6-21,7.2-32c1.2-11,2-21.4,2.3-31.1c0.6-19.4,2.5-31.1,5.6-34.9c2-2.4,6.4-3.6,13.1-3.6h2.7c7.3,0.2,13.8,1.8,19.4,4.6
				c5.6,2.8,8.9,7.2,10,13.1c-0.2,25.8-2.3,54.6-6.2,86.3c-3.9,31.7-9.8,62.1-17.7,91c-7.9,28.9-17.9,52.2-30.1,69.7
				c-4.9,6.6-12.1,11.9-21.4,16C585.2,694,575.4,696,565.2,696z"/>
		</g>
	</g>
	<g>
		<g>
			<path class="st3" d="M211.5,853.8c-3.6-1.3-7.9-4.3-12.8-9.1c-4.3-4.3-7.8-9.8-10.4-16.3c-3.9-9.8-5.9-21.1-5.9-33.8
				c0-11.5,1.6-22.9,5-34.1c4.7-16,11.7-27.9,21.2-35.7c6.7-5.5,13.5-8.3,20-8.3c3.9,0.1,7.6,1.3,10.8,3.5c3.2,2.3,5.8,5.7,7.8,10.2
				c2,4.5,3.2,10.1,3.7,16.8c0.5-0.2,1-0.2,1.3-0.2c0.8,0,1.6,0.2,2.4,0.6c1.8,1.1,2.8,2.6,2.8,4.6c0,0.8-0.2,1.5-0.6,2.3l-6.8,13.2
				c-0.9,2.1-2.5,3.1-4.7,3.1c-1.7-0.1-3.1-0.7-4-1.9c-0.8-0.9-1.2-1.9-1.2-3.1l0.1-0.8c0.3-2.7,0.5-5.5,0.5-8.4
				c0-4.7-0.5-9.5-1.4-14.3c-0.7-3.6-1.6-6.7-2.9-9.4c-1.9-4.1-4.2-6.2-6.9-6.2c-1.1,0-2.5,0.5-4.1,1.4c-1.7,1-3.9,3.6-6.6,7.7
				c-5.3,8.5-9.1,20.6-11.4,36.2c-1.3,8.4-2,16.8-2,25.4c0,15.1,1.8,27.2,5.5,36.3c3.6,8.3,7.4,12.4,11.3,12.4
				c0.4,0,1.2-0.1,2.3-0.4c1.3-0.2,2.8-1.3,4.8-3.5c1.9-2,3.8-4.7,5.4-7.9c1.6-3.2,3.2-6.7,4.6-10.5c1.3-3.8,2.5-7.6,3.4-11.3
				c0.9-3.8,1.5-7.2,1.9-10.4c0.2-1.4,0.8-2.6,1.7-3.5c1.1-0.8,2.1-1.2,3.4-1.2c1.6,0,3,0.7,4,1.9c0.8,1,1.1,2.1,1.1,3.5
				c-0.7,6.4-1.9,12.6-3.6,18.4c-3.6,12.3-8.5,21.5-14.8,27.7c-4.8,4.6-10,6.9-15.8,6.9C218.1,855.7,215.1,855,211.5,853.8z"/>
			<path class="st3" d="M303,843c-8.4,0-16.3-3.8-24.1-11.3c-3.5-3.6-6.3-7.7-8.7-12.4c-4.6-9.2-6.9-19.5-6.9-30.9
				c0-0.3,0-1.9,0-4.9c0.1-3,0.8-7.2,2-12.7c1.3-5.5,3.1-10.6,5.7-15.5c2.5-4.9,5.7-9.2,9.4-13.1c3.8-3.8,8.1-6.8,13.2-9.1
				c5-2.3,10.7-3.7,17-3.9c0.7,0,1.3,0.5,1.7,1.4c0.5,1.1,0.7,2.3,0.8,3.8c0,1.4-0.3,2.8-0.9,4.2c-0.6,1.3-1.6,2.5-3.1,3.4
				c-6.8,4-12.1,11.1-15.9,21.1c-3.5,8.9-5.1,18.7-5.1,29.2v4.7c0,2.8,0.5,6.4,1.3,11.1c0.9,4.7,2.2,8.8,3.9,12.4
				c3.7,7.4,8,11.2,13.1,11.2c0.8,0,2.1-0.3,3.9-0.8c1.8-0.5,3.9-2,6.5-4.7c2.5-2.7,4.7-6.2,6.6-10.5c-3.6-0.7-6.7-1.8-9.7-3.7
				c-5.9-3.4-10.4-8.3-13.8-14.7c-3.8-7.3-5.8-14.9-5.8-22.8c0-11.4,3.6-19.8,10.7-25.1c4-3.1,8.8-4.6,14.2-4.6
				c8.2,0,14.2,4.6,18.1,13.8c2.5,6.1,3.8,13.6,3.8,22.4c0,7.5-0.9,15.2-2.7,23c0.5-0.2,1.1-0.4,1.7-0.7c0.6-0.3,1.2-0.4,1.8-0.4
				c2.2,0,3.8,1.1,4.7,3.2c0.3,0.7,0.5,1.4,0.5,2.1c0,2.2-1.1,3.8-3.2,4.6c-3.2,1.3-6.2,2.3-9.1,2.8c-2.1,6-5.1,11.2-8.8,15.6
				c-6.3,7.4-13.7,11.3-22.1,11.6H303z M330.8,781.2c0-7.4-1.1-13.6-3.1-18.5c-2-4.9-5-7.4-8.9-7.4l-1.5,0.1
				c-4.6,0.8-8.1,3.4-10.3,7.8c-1.5,3.2-2.3,6.9-2.3,11.4c0,3.5,0.5,6.9,1.5,10.5c1.4,5.2,3.8,9.7,7.3,13.6
				c3.8,4.1,8.5,6.5,13.8,7.1C329.6,797.5,330.8,789.3,330.8,781.2z"/>
			<path class="st3" d="M358.9,862c-1.4-0.1-2.7-0.7-3.6-1.7c-0.9-1-1.3-2.2-1.3-3.7c0.1-1.4,0.7-2.7,1.7-3.6
				c1.1-0.9,2.3-1.3,3.7-1.3l3.6,0.2c-3.3-17-4.9-43.6-4.9-79.7c0-1.9,0-5.9,0.1-11.6c0.1-5.9,0.2-12.5,0.4-20.1
				c0.2-7.5,0.4-13.2,0.6-17.1l-26.6,1.6c-1.3,0-2.4-0.4-3.5-1.3c-1-0.9-1.5-2.1-1.6-3.8c0-1.4,0.4-2.6,1.3-3.7
				c0.9-1,2.1-1.4,3.6-1.5l81.4-5.1c1.5,0,2.8,0.5,3.8,1.3c1,0.9,1.4,2.1,1.5,3.7c0,1.4-0.4,2.6-1.3,3.7c-0.9,1-2.1,1.5-3.6,1.6
				l-30.7,1.9c-3,23.5-4.9,49.6-5.9,78.3c-0.5,12-0.7,29.6-0.7,52.6c1.5,0.1,3.1,0.2,4.5,0.3c1.4,0.1,2.7,0.7,3.6,1.6
				c0.9,1,1.3,2.1,1.3,3.6c-0.1,1.6-0.7,2.9-1.6,3.8c-1.1,0.9-2.3,1.3-3.8,1.3L358.9,862z"/>
			<path class="st3" d="M451.6,862c-1.4-0.1-2.7-0.7-3.6-1.7c-0.9-1-1.3-2.2-1.3-3.7c0.1-1.4,0.7-2.7,1.7-3.6
				c1.1-0.9,2.3-1.3,3.7-1.3l3.6,0.2c-3.3-17-4.9-43.6-4.9-79.7c0-1.9,0-5.9,0.1-11.6c0.1-5.9,0.2-12.5,0.4-20.1
				c0.2-7.5,0.4-13.2,0.6-17.1l-26.6,1.6c-1.3,0-2.4-0.4-3.5-1.3c-1-0.9-1.5-2.1-1.6-3.8c0-1.4,0.4-2.6,1.3-3.7
				c0.9-1,2.1-1.4,3.6-1.5l81.4-5.1c1.5,0,2.8,0.5,3.8,1.3c1,0.9,1.4,2.1,1.5,3.7c0,1.4-0.4,2.6-1.3,3.7c-0.9,1-2.1,1.5-3.6,1.6
				l-30.7,1.9c-3,23.5-4.9,49.6-5.9,78.3c-0.5,12-0.7,29.6-0.7,52.6c1.5,0.1,3.1,0.2,4.5,0.3c1.4,0.1,2.7,0.7,3.6,1.6
				c0.9,1,1.3,2.1,1.3,3.6c-0.1,1.6-0.7,2.9-1.6,3.8c-1.1,0.9-2.3,1.3-3.8,1.3L451.6,862z"/>
			<path class="st3" d="M530.9,843c-8.4,0-16.3-3.8-24.1-11.3c-3.5-3.6-6.3-7.7-8.7-12.4c-4.6-9.2-6.9-19.5-6.9-30.9
				c0-0.3,0-1.9,0-4.9c0.1-3,0.8-7.2,2-12.7c1.3-5.5,3.1-10.6,5.7-15.5c2.5-4.9,5.7-9.2,9.4-13.1c3.8-3.8,8.1-6.8,13.2-9.1
				c5-2.3,10.7-3.7,17-3.9c0.7,0,1.3,0.5,1.7,1.4c0.5,1.1,0.7,2.3,0.8,3.8c0,1.4-0.3,2.8-0.9,4.2c-0.6,1.3-1.6,2.5-3.1,3.4
				c-6.8,4-12.1,11.1-15.9,21.1c-3.5,8.9-5.1,18.7-5.1,29.2v4.7c0,2.8,0.5,6.4,1.3,11.1c0.9,4.7,2.2,8.8,3.9,12.4
				c3.7,7.4,8,11.2,13.1,11.2c0.8,0,2.1-0.3,3.9-0.8c1.8-0.5,3.9-2,6.5-4.7c2.5-2.7,4.7-6.2,6.6-10.5c-3.6-0.7-6.7-1.8-9.7-3.7
				c-5.9-3.4-10.4-8.3-13.8-14.7c-3.8-7.3-5.8-14.9-5.8-22.8c0-11.4,3.6-19.8,10.7-25.1c4-3.1,8.8-4.6,14.2-4.6
				c8.2,0,14.2,4.6,18.1,13.8c2.5,6.1,3.8,13.6,3.8,22.4c0,7.5-0.9,15.2-2.7,23c0.5-0.2,1.1-0.4,1.7-0.7c0.6-0.3,1.2-0.4,1.8-0.4
				c2.2,0,3.8,1.1,4.7,3.2c0.3,0.7,0.5,1.4,0.5,2.1c0,2.2-1.1,3.8-3.2,4.6c-3.2,1.3-6.2,2.3-9.1,2.8c-2.1,6-5.1,11.2-8.8,15.6
				c-6.3,7.4-13.7,11.3-22.1,11.6H530.9z M558.7,781.2c0-7.4-1.1-13.6-3.1-18.5c-2-4.9-5-7.4-8.9-7.4l-1.5,0.1
				c-4.6,0.8-8.1,3.4-10.3,7.8c-1.5,3.2-2.3,6.9-2.3,11.4c0,3.5,0.5,6.9,1.5,10.5c1.4,5.2,3.8,9.7,7.3,13.6
				c3.8,4.1,8.5,6.5,13.8,7.1C557.5,797.5,558.7,789.3,558.7,781.2z"/>
			<path class="st3" d="M624.4,833.9c-6-11-11.6-24.1-16.9-39.6c-4.4-13-8.4-26.4-11.7-40.4c-1.9,23.1-2.9,42.3-2.9,57.8
				c0,9.4,0.4,17.5,1.1,24.2l4.9-0.5c1.6,0,2.9,0.4,3.9,1.3c1,0.9,1.5,2,1.7,3.5c0,1.4-0.4,2.7-1.3,3.8c-0.9,1.1-1.9,1.6-3.4,1.8
				l-20.9,2.2c-1.4,0-2.7-0.4-3.8-1.2c-1.1-0.9-1.6-1.9-1.8-3.4c0-1.6,0.4-2.9,1.3-3.9c0.8-1,1.9-1.5,3.4-1.7l5.7-0.6
				c-0.8-7-1.2-14.9-1.2-23.7c0-24.5,1.7-52.4,5.2-83.6l-5.1,0.1c-1.4-0.1-2.7-0.6-3.7-1.5c-1.1-1-1.5-2.1-1.6-3.6
				c0.1-1.4,0.6-2.7,1.5-3.8c0.9-1,2.1-1.4,3.6-1.5l29.9-0.5c1.4,0,2.7,0.5,3.8,1.4c1,1,1.4,2.1,1.5,3.6c-0.1,2.8-1.4,4.5-4,5.2
				c3.2,13.7,7.4,29.5,12.7,47.5c7.1,24.1,14.3,43.9,21.6,59c-0.4-6.9-0.6-14.3-0.6-22.2c0-9.7,0.4-20.3,1.2-31.8
				c2.2-30.1,7-53.7,14.4-70.9c5.3-12.4,12-20.3,19.9-23.8c0.4-0.2,0.9-0.3,1.3-0.5c0.5-0.2,1-0.4,1.6-0.6c0.6-0.1,1.4-0.3,2.7-0.5
				l0.1-0.1c3.7,0,5.7,1.5,6.1,4.6c0,1.5-0.4,2.8-1.2,3.8c-0.9,1.1-1.9,1.6-3.4,1.8c-0.3,0-0.7,0.1-1,0.2
				c-6.3,1.2-11.7,7.1-16.1,17.8c-3.9,9.5-6.9,22-9.1,37.6c-2.1,16.3-3.2,33-3.2,50.2c0,15.5,0.7,28.9,2,40.2
				c0.3,2.2,0.6,4.4,1.1,6.4c0.7,2.8,1.1,5.1,1.1,6.7c0,2.6-0.9,4.4-2.5,5.5c-1.7,1.1-4.1,1.6-7.2,1.6
				C644.9,861.9,634.5,852.6,624.4,833.9z"/>
		</g>
	</g>
	<g>
		<path class="st1" d="M222.3,575.9c-0.9,0.1-2.3,0.3-4.1,0.5c-1.8,0.2-3.1,0.3-3.9,0.3c-3.4,0.3-7-0.6-11.1-2.5
			c-1.8-0.9-3.3-2.6-4.5-5c-1.2-2.5-1.5-4.6-1-6.4l0.2-0.2c0.5-1.6,1.2-2.8,2.1-3.9c0.9-1.2,2.3-1.9,4.3-2.1
			c1.9-0.3,3.6-0.1,4.8,0.6c0.3,0.1,0.5,0.3,0.9,0.5c0.3,0.2,0.5,0.3,0.7,0.3c0.1,0.1,0.3,0.2,0.4,0.2c0.4-0.1,1.1-0.1,2.1,0.2
			c1,0.3,1.6,0.4,1.7,0.4c3.6,0.3,6.2,0.5,7.8,0.8c3.2,0.4,8.3,0.7,15.3,1c18.7,1,29.5,1.7,32.2,2.1c0.9,0.1,1.7,0.5,2.5,1.2
			c0.8,0.6,1.4,1.4,1.8,2.2c0.5,0.8,0.7,1.7,0.8,2.6c0.1,0.9-0.2,1.7-0.7,2.4c-0.5,0.7-1.4,1.1-2.5,1.3c-4.9,0.8-16.2,1.6-33.9,2.5
			C228,575.5,222.6,575.9,222.3,575.9z M269.8,612.2c1.8-0.8,3.6-0.4,5.4,1.1c1.8,1.5,2.5,3.2,1.9,5.1c-0.5,1.8-1.1,3.4-1.7,4.8
			c-0.3,0.4-0.7,1-1.4,1.8c-0.6,0.8-1.1,1.5-1.4,1.8c-0.6,0.9-1.6,2.2-3,4c-1.4,1.7-2.4,3.1-3,4c-4.9,6.5-8.5,11.2-10.9,14.4
			c-4.3,5.6-8.1,10.3-11.6,14.2c-0.3,0.3-0.6,0.6-1,1.1c-0.4,0.5-0.6,0.7-0.8,0.9l-0.2,0.2c-0.4,0.8-1.7,2.6-3.9,5.4
			c-0.3,0.5-0.3,0.8-0.2,0.8c-0.1,0.3-0.9,1.3-2.3,3.1c0,0.1-0.1,0.3-0.2,0.4c-0.1,0.1-0.4,0.4-0.8,0.9c-0.4,0.5-0.8,0.9-1.2,1.3
			c-0.4,0.4-0.6,0.6-0.8,0.8c-5.2,3.8-10.2,3.9-14.9,0.6l-0.2-0.2v-0.2c-1.9-1.2-3.5-2.7-4.7-4.7v-0.2c-3.2-5.4-2.9-10.4,1-14.9
			c0.5-0.6,1.2-1.2,1.9-1.6l1.2-1c0.1,0,0.3-0.1,0.4-0.2c0.1-0.1,0.3-0.3,0.4-0.4c0.3-0.3,0.6-0.5,1.2-0.9c0.5-0.3,0.9-0.5,1.2-0.7
			l0.6-0.2h0.2c0.1-0.1,0.4-0.3,0.8-0.6c3-1.9,4.7-3,5-3.3l-0.4,0.2l1.2-0.8l1.4-1.4c1.7-1.6,4.1-3.7,7.4-6.4
			c3.2-2.7,5.3-4.5,6.2-5.2c2.1-1.8,6.5-5.9,13.4-12.4c0.6-0.6,1.7-1.7,3.1-3.1c1.4-1.4,2.6-2.6,3.4-3.4c0.8-0.8,1.9-1.7,3.3-2.7
			C267.2,613.6,268.6,612.8,269.8,612.2z M218.3,475.6l0.2,0.8l-3.1-3.3c-2.5-2.7-3.8-5.6-4.2-8.7c-0.3-3.1,0.7-6.1,3-8.9
			c1.8-1.9,4.1-2.9,7-2.9c2.8,0,5.4,0.8,7.8,2.3c1.3,0.8,2.3,1.6,2.9,2.3c0.3,0.3,0.6,0.7,1.2,1.5c0.5,0.7,1,1.3,1.4,1.6l0.2,0.2
			l0.2,0.2l-1-1.2l0.6,0.6c1.8,1.8,2.8,3.2,3.1,4.1l-0.2-0.2v0.2c0.3,0.4,0.6,0.8,1.1,1.3c0.4,0.5,0.8,0.9,1.2,1.3
			c0.3,0.4,0.7,0.8,1.1,1.4c0.4,0.5,0.6,1,0.8,1.4v0.2c0.1,0,0.2,0.1,0.2,0.2l1.4,1.4c4.3,4.7,8.2,9.4,11.8,14.2
			c1.3,1.7,3.2,4.1,5.8,7.4c2.6,3.2,4.5,5.7,5.8,7.4c0.5,0.6,1.5,1.9,2.9,3.7c1.4,1.8,2.5,3.2,3.2,4.2c0.7,1,1.5,2.2,2.4,3.8
			c0.9,1.6,1.6,3,2.1,4.5c0.6,2.2,0.2,3.8-1.5,4.8c-1.6,1-3.3,0.9-5.1-0.1c-1.7-0.9-3.3-2-4.8-3.2c-1.5-1.2-3.2-2.9-5.2-5
			c-2-2.1-3.3-3.5-4-4.2c-7.2-6.9-11.6-10.9-13-12.2c-6.2-5.4-10.8-9.5-13.8-12.2l-1.4-1.4l-0.2-0.2H228c-0.1,0-0.5-0.2-1.1-0.7
			c-0.6-0.5-1.1-0.9-1.6-1.3l-0.8-0.6h0.4c-3-1.7-5-3-6-3.9c-0.8-0.8-1.1-1.1-1-1C217.9,474.9,218,475.1,218.3,475.6z M238.4,671.1
			l-0.2,0.6C238.2,671.6,238.3,671.4,238.4,671.1z"/>
	</g>
	<g>
		<path class="st1" d="M869.8,930.8c-2.2-1-4.5-2-6.8-2.6c-15-3.6-29.6-2.5-43.5,4.5c-1.4,0.7-2.9,1.3-4.5,1.9
			c0.1,1.6,0.2,3.3,0.3,5.1c4.2,3,8.9,4.9,13.7,6.2c8.4,2.4,17,3.4,25.7,2.6c6.4-0.6,12.5-2.1,17.4-6.6c0.8-1.7,1.7-3.4,2.5-5.1
			C874.2,933.9,872.4,931.9,869.8,930.8z M862.1,939.1c-1.1,1-2.8,1.7-4.3,2c-2.2,0.4-4.6,0.7-6.9,0.4c-8.3-1.1-16.5-2.5-24.8-3.8
			c0-0.4,0-0.8,0-1.1c10-2.9,20-5.6,30.6-4.8c1.3,0.1,2.7,0.4,4,0.7c1.6,0.3,3.6,0.7,3.6,2.6C864.2,936.4,863.2,938.1,862.1,939.1z"
			/>
		<path class="st1" d="M848.4,868.2c2.9-7.6,3.4-15-0.9-22.4c-2.8-4.9-6.7-6.8-12.3-5.2c-5.1,1.5-9.8,4-13.9,7.5
			c-8.8,7.3-15.7,16.2-20.8,26.4c-3.7,7.4-7.3,14.9-8.7,23.2c-0.3,1.9-1.6,2.7-3,3.6c-11.7,8.3-24.6,13.9-38.2,17.9
			c-3.2,1-6.5,1.7-10.2,1.9c0.8-0.7,1.7-1.4,2.5-2.1c9.5-7.4,17.3-16.1,22.1-27.2c2.4-5.4,3.8-11.1,3.7-17
			c-0.1-11.7-10.8-18-21.1-12.5c-5.9,3.1-10.2,8-13.9,13.5c-5.8,8.6-10,18.1-14,27.6c-3.2,7.5-6.1,15.1-9.2,22.6
			c-13.1,2.4-50.6,0.2-60.8-3.8c1.7-0.4,3-0.8,4.3-1c9.8-2,19-5.8,27.2-11.6c5.9-4.2,10.6-9.4,13.7-15.9c4.1-8.6-0.2-16.9-9.6-18.2
			c-3.1-0.4-6.5,0-9.7,0.6c-7.7,1.6-14.7,4.9-21.3,9.1c-12.3,7.8-23.1,17.1-32.6,28.9c-4.6-2-9.3-4.1-14-6.2
			c-1.6-0.7-3.1-1.7-4.7-2.4c-1.2-0.5-2.6-0.9-3.9-0.9c-3,0-4.6,2.3-3.3,4.9c0.9,1.7,2.4,3.4,4,4.4c4.9,3,9.9,5.6,14.9,8.4
			c0.6,0.3,1.2,0.6,2.1,1c0,7.5,2.2,14.4,5.5,21c7.7,15.1,18.6,27.3,33.3,36c6.5,3.8,13.4,5.9,21,5.1c1.5-0.2,3-0.5,4.3-1
			c3.1-1.2,4.5-3.5,3.9-6.8c-0.5-2.6-1.4-5.3-2.5-7.7c-3.4-7.7-8.4-14.3-14.2-20.3c-4.9-5-10.1-9.8-15.2-14.7
			c20.8,2.2,41.5,2.1,62.4-0.2c0.4,0.7,0.7,1.2,1,1.8c7.3,15.8,18,29,31.5,40c4.9,4,10.3,7.2,16.2,9.3c2.8,1,5.8,1.6,8.7,1.5
			c7.9-0.3,12.9-6.9,11.3-14.6c-1.3-6.1-4-11.5-7.9-16.4c-6.7-8.3-15.2-14.3-24.5-19.2c-3.7-2-7.5-3.7-11.5-5.7
			c0.4-0.2,0.9-0.6,1.5-0.7c18.5-4.4,36.3-10.6,52.5-20.7c1.2-0.8,2.7-1.2,4.2-1.5c7.4-1.8,14.6-4.3,21.2-8.2
			C832.5,892.7,842.9,882.6,848.4,868.2z M674.4,891.5c1.4-0.6,2.8-1.1,4.2-1.4c2.8-0.5,4.9,1.7,4,4.4c-0.5,1.5-1.5,2.9-2.7,3.9
			c-2,1.6-4.1,3.1-6.4,4.3c-9.8,5.5-20.2,9.2-31.1,11.9c-2.3,0.6-4.7,0.9-7.1,1.4C647.4,905.8,660.2,897.5,674.4,891.5z
			 M673.3,967.4c1.1,1.2,2.3,2.4,3.1,3.8c1.6,2.6,0.9,4-2,4.8c-3.7,1-7.3,0.1-10.7-1.4c-4.5-2-8.4-5-12-8.4
			c-10.1-9.4-17.5-20.6-22.7-33.3c0.2-0.2,0.4-0.4,0.6-0.6c1,0.7,2,1.3,2.9,2.1c3.1,2.3,6.1,4.5,9.1,6.8
			C652.7,949.3,663.8,957.4,673.3,967.4z M752.8,948.9c5.6,3.5,10.6,8,15.7,12.3c1.5,1.3,2.7,3,3.8,4.7c0.9,1.4,1.2,3.1-0.1,4.5
			c-1.3,1.4-2.8,1.5-4.5,0.8c-1.1-0.5-2.2-1-3.2-1.7c-13.7-9-25.1-20.6-35.6-33.5c0.5,0.2,1,0.3,1.4,0.5
			C737.9,940.6,745.6,944.4,752.8,948.9z M724.8,919.9c-0.3-0.2-0.7-0.4-1-0.7c6.3-11.1,12.6-22.2,19-33.1c1.7-2.9,3.8-5.6,6.1-8.1
			c2.2-2.6,5.2-4,8.7-3.8c2.6,0.1,3.7,1.5,3.1,4c-0.4,1.7-1,3.4-2,4.9c-3.4,5-6.8,10.2-10.6,14.9
			C741.3,906.2,733.1,913.2,724.8,919.9z M802.9,894.5c0.2-0.5,0.3-1,0.5-1.5c5.4-11.7,13-21.9,22.3-30.7c1.5-1.4,3.1-2.6,4.8-3.7
			c1.9-1.1,4-2.2,6-0.3c2,1.8,1.9,4.2,0.9,6.4c-0.9,1.9-2,3.9-3.3,5.5c-8.3,10.6-19.4,17.9-30.9,25.2
			C802.9,894.7,802.8,894.6,802.9,894.5z"/>
	</g>
	<path class="st4" d="M743.9,646.3c-12.3,3.3-19.3,11.5-25.5,20.7c-5.8,8.7-10.7,18-17,26.2c-9,11.6-22.5,13.9-33,6
		c-11.8-8.9-5.5-18.9-0.2-27.7c8.1-13.6,17.8-26.3,26.2-39.8c8.4-13.6,11.1-28.2,8.1-44.3c-3.6-19.2-2.4-38.4,0.9-57.8
		c5.1-29.4,4-58-13.7-84.4c-9.5-14.1-20-28.8-13.7-48.3c3.7-11.6,9.1-18.3,22.4-15.8c8.8,1.6,17.8,1.8,26.6,3
		c17.1,2.5,30.6,10.8,40.4,25.2c11.8,17.3,25.5,26.7,48.9,20.5c20.1-5.3,41.5-1.7,61.7,4.8c5.8,1.9,12.3,3.9,13.3,10.5
		c1.2,7.6-3.9,13.1-10.3,16.7c-18.4,10.5-38.2,13.5-59,10.4c-10.8-1.6-21.7-3.5-32.5-0.2c-11.1,3.4-13,11-4.2,18.4
		c6.4,5.4,13.9,9.6,21.3,13.7c21.8,12.3,38.4,29.5,50.4,51.5c30.6,56,49.7,114.8,45.1,179.5c-0.5,7.4-1.6,14.9-3.8,22
		c-3.3,10.8-4,20.1,6.3,28c6.2,4.8,4.3,11.6,1.1,17.7c-7.5,14.1-19.1,23.8-34.9,25.1c-54,4.6-108,8.1-162,12c-0.5,0-1,0-1.5,0
		c-17.3-1-30.8-11.7-29.5-23.4c1.2-10.4,16.3-17.8,33-15.8c8.4,1,16.6,3.3,25,3.8c17.3,1.2,21.9-4.9,15.8-21.3
		c-5.9-15.8-13.2-30.8-15.2-48.1c-2.8-23.2-1.2-45.5,6.3-67.6C742.7,661.4,746.6,655.1,743.9,646.3z"/>
</g>
</svg>
