<?xml version="1.0" encoding="utf-8"?>
<!-- Generator: Adobe Illustrator 22.0.0, SVG Export Plug-In . SVG Version: 6.00 Build 0)  -->
<svg version="1.1" id="Layer_1" xmlns="http://www.w3.org/2000/svg" xmlns:xlink="http://www.w3.org/1999/xlink" x="0px" y="0px"
	 viewBox="0 0 1080 1080" style="enable-background:new 0 0 1080 1080;" xml:space="preserve">
<style type="text/css">
	.st0{fill:#04D3DA;}
	.st1{fill:#0153A5;}
	.st2{fill:#FF3C95;}
</style>
<g>
	<g>
		<g>
			<path class="st0" d="M201.9,275.2c0.3-0.6,0.4-0.9,0.7-1.5c0.1-0.1,0.2-0.2,0.1-0.3c-0.4-0.1-0.8-0.7-1.3-1.7
				c-4.8-11-7.1-16.5-11.9-27.5c-0.3-0.7-0.5-1.3-0.7-1.8c-0.1-0.5-0.3-1.1-0.7-1.8c-0.2-0.4-0.3-0.6-0.5-1c0.2-0.1,0.3-0.1,0.5-0.2
				c-0.6-0.2-1.1-0.7-1.4-1.4c-2.5-5.8-5-11.5-7.5-17c-2.5-5.5-5-11.1-7.4-16.8c-0.8-1.9-1.6-3.9-2.4-5.8c-0.7-1.9-1.5-3.8-2.4-5.8
				c-0.2-0.6-0.5-1.1-0.9-1.7c-0.4-0.6-0.7-1.2-1-1.9c-0.2-0.4-0.3-0.9-0.4-1.3c-0.1-0.4-0.2-0.9-0.4-1.3c-0.4-0.8-0.8-1.6-1.5-2.3
				c-0.6-0.7-1.1-1.5-1.5-2.3c-0.1-0.3-0.2-0.6-0.2-1c0-0.4,0-0.8,0.1-1.2c-0.1-0.2-0.1-0.2-0.2-0.4c-0.2-0.4-0.4-0.9-0.7-1.3
				c-0.3-0.4-0.5-0.9-0.7-1.3c-0.4-0.8-0.7-1.7-1-2.7c-0.3-0.9-0.7-2-1.2-3.1c-0.7-1.5-1.5-3-2.4-4.5c-0.9-1.5-1.7-3-2.4-4.5
				c-0.1-0.3-0.2-0.5-0.4-0.8c0.3-0.1,0.4-0.4,0.3-0.6c0.1-0.1,0.1-0.2,0.2-0.3c0-0.1-0.1-0.1-0.1-0.2c-0.1,0-0.2,0.1-0.3,0.1
				c-0.1-0.3-0.3-0.3-0.7-0.2c-0.1-0.3-0.2-0.5-0.4-0.8c-0.7-1.7-0.4-3.3,0.9-4.8c0.1-0.1,0.1-0.2,0.2-0.3c0.1,0,0.2-0.1,0.3-0.1
				c2-0.9,4.1-1.7,6.1-2.3c2-0.7,3.9-1.4,5.8-2.2c2.6-1.1,5.1-2.2,7.5-3.5c2.5-1.3,5-2.4,7.6-3.4c0.9-0.3,2-0.6,3.5-0.9
				c0.6-0.1,1.3,0,2.1,0.1c0.8,0.2,1.4,0.6,1.7,1.3c0.3,0.8,0.5,1.6,0.5,2c0,0.3,0,0.7,0.2,1.2c0.3,0.8,0.4,1.1,0.7,1.9
				c1.2,3,1.7,4.4,2.9,7.4c0.3,0.7,0.4,1.3,0.4,1.8c0.3,0.2,0.5,0.6,0.7,1.2c0.2,0.6,0.5,1.2,0.7,1.9c0.3,0.7,0.6,1.6,1,2.5
				c0,0.2-0.1,0.3-0.1,0.5c-0.2,0.1-0.3,0.1-0.5,0.2c0,0.1,0,0.1,0.1,0.2c-0.2,0.1-0.2,0.2-0.2,0.3c2,2.1,3.5,4.5,4.5,7
				c0.1,0.3,0.1,0.5,0.1,0.6c-0.1,0.1-0.1,0.2,0,0.4c0.2,0.4,0.2,0.7,0.1,0.9c0.1,0.3,0.2,0.5,0.3,0.8c0.2,0.6,0.3,0.9,0.6,1.5
				c0.3,0.4,0.6,0.9,0.9,1.6c0.3,0.7,0.5,1.4,0.6,2c0.1,0.6,0.3,1.2,0.6,2c0.3,0.8,0.7,1.7,1.1,2.5c0.4,0.8,0.8,1.6,1.1,2.5
				c0.7,1.9,1.1,2.8,1.8,4.7c0.5,1.3,1.1,2.4,1.9,3.4c0.8,1,1.4,2.1,1.8,3.2c0.1,0.3,0.1,0.5,0,0.6c-0.1,0.1-0.2,0.3-0.1,0.4
				c0.1,0.3,0.1,0.5,0.1,0.6c-0.1,0.1-0.1,0.2,0,0.4c0.1,0.1,0.1,0.3,0,0.5c0,0.2,0,0.4,0.1,0.7c0.4,1.1,0.9,2.3,1.2,3.5
				c0.4,1.2,0.8,2.4,1.2,3.5c0.7,1.7,1.4,3.3,2.2,4.9c0.8,1.6,1.5,3.2,2.2,4.9c0.1,0.3,0.2,0.5,0.3,0.8c0.1,0.3,0.1,0.5,0.1,0.6
				c-0.1,0.1,0,0.2,0,0.4c0.1,0.3,0.2,0.5,0.1,0.7c0,0.2,0,0.4,0.1,0.7c0.1,0.2,0.1,0.3,0.2,0.4c0.2,0.1,0.4,0.3,0.5,0.5
				c0.1,0.3,0.3,0.5,0.5,0.5c0.1,0.3,0.2,0.5,0.3,0.8c0.2,0.6,0.4,1.1,0.5,1.6c0.1,0.5,0.3,1.1,0.5,1.6c0.3,0.7,0.6,1.4,1,2.2
				c0.4,0.7,0.7,1.5,1,2.2c0.1,0.2,0.1,0.3,0.2,0.4c0.1,0.1,0,0.3-0.1,0.5c0,0.1,0,0.1,0.1,0.2c0.1,0.1,0,0.6-0.1,1.2
				c0.3-0.1,0.4-0.2,0.7-0.3c2.1,5.4,3.2,8.1,5.3,13.5c0.4,1,0.7,2,1,3c0.3,1,0.7,2.1,1.1,3.2c0.4,1,0.8,1.9,1.3,2.8
				c0.5,0.9,1,1.8,1.3,2.8c0.3,0.8,0.6,1.7,0.9,2.6c0.3,0.9,0.5,1.7,0.8,2.4c0.1,0.3,0.3,0.6,0.5,0.9c0.2,0.3,0.4,0.6,0.5,0.9
				c1.9-0.6,3.7-1.2,5.6-1.8c1.9-0.6,3.8-1.3,5.6-2c1.2-0.5,2.3-0.9,3.2-1.3c1-0.4,2-0.9,3.2-1.3c2.1-0.8,4.3-1.5,6.6-2
				c2.3-0.6,4.5-1.2,6.6-2c4.8-1.7,9.6-3.5,14.4-5.5c4.7-2,9.6-3.7,14.4-5.3c3.8-1.2,6.5-1.1,8.1,0.3c0.5,0.5,0.9,1.4,1.3,2.7
				c0.5,1.6,0.7,2.3,1.2,3.9c0.3,0.9,0.6,1.5,1,1.8c0.1,0.3,0.2,0.5,0.3,0.6c0.1,0.1,0.2,0.3,0.3,0.6c0.2,0.5,0.2,0.8,0.4,1.3
				c0,0.1,0.1,0.6,0.3,1.3c0.1,0.7,0.3,1.6,0.4,2.5c0.1,0.9,0.2,1.8,0.3,2.5c0.1,0.8,0.1,1.2,0.2,1.4c0.3,1.6-0.5,2.8-2.4,3.3
				c-0.7,0.2-1.9,0.6-3.6,1c-1.7,0.4-3.4,0.9-5.2,1.5c-1.6,0.5-3.3,1.1-4.9,1.7c-1.6,0.6-2.9,1.2-3.8,1.9c-0.1,0.1-0.2,0.2-0.4,0.4
				c-0.3,0.2-0.4,0.5-0.5,0.7c-0.1,0.2-0.2,0.3-0.4,0.4c-0.3,0.3-0.4,0.4-0.7,0.7c-0.3-0.2-0.4-0.3-0.7-0.5
				c-1.2-0.6-2.4-0.6-3.5-0.2c-1.3,0.5-2.6,1-3.9,1.6c-1.3,0.6-2.6,1.1-3.9,1.6c-2.4,0.8-4.6,1.5-6.8,2.2c-2.2,0.6-4.4,1.3-6.6,2.1
				c-5.5,2-8.3,3.1-13.8,5.2c-2,0.8-4,1.4-5.9,1.9c-1.9,0.5-3.7,1.1-5.5,1.8c-2.6,1.1-5.2,2.2-7.8,3.3c-2.6,1.1-5.2,2.3-7.8,3.4
				c-0.9,0.4-1.9,0.5-3.2,0.4c-0.1,0.2-0.2,0.2-0.3,0.4c-0.5,0.2-0.8,0.3-1.3,0.6c-0.7,0.3-1.4,0.4-2.1,0.3
				c-0.7-0.1-1.2-0.6-1.5-1.4c-0.4-1-0.8-1.9-1.1-2.9c-0.3-0.9-0.7-1.8-1-2.7c-0.1-0.3-0.3-0.5-0.5-0.8c-0.2-0.2-0.3-0.5-0.5-0.8
				c-0.2-0.4-0.3-0.7-0.3-0.9c0-0.2,0-0.4,0.1-0.8c-0.1-0.1-0.2-0.2-0.3-0.1c-0.1-0.3-0.3-0.4-0.4-0.3c-0.1-0.3-0.2-0.5-0.4-0.8
				c-0.2-0.4-0.4-0.9-0.7-1.3c-0.3-0.5-0.5-0.9-0.7-1.3c-0.3-0.7-0.5-1.4-0.6-2c-0.1-0.6-0.3-1.3-0.6-2c-0.2-0.4-0.2-0.7-0.1-0.9
				c0-0.1-0.1-0.1-0.1-0.2c-0.5-0.4-0.9-0.8-1-1.1c-0.1-0.3-0.2-0.8-0.1-1.4c0.1-0.1,0.1-0.2,0.1-0.3c-0.1,0-0.2-0.1-0.3-0.1
				C202.8,275.1,202.5,275.2,201.9,275.2z"/>
			<path class="st0" d="M326.4,236.7c0.1-0.3,0.2-0.5,0.3-0.8c0.1,0,0.1,0,0.2-0.1c-0.5-0.5-0.7-0.9-0.8-1.2
				c-0.1-0.3-0.1-0.5-0.1-0.7c0-0.2,0-0.3,0-0.5c-0.4-0.6-0.5-0.8-0.9-1.4c0.1-0.2,0.2-0.3,0.3-0.6c0.1-0.2,0.2-0.3,0.3-0.6
				c-0.1,0-0.1,0-0.2,0.1c-0.6-0.3-1-0.8-1.2-1.6c-1.3-4.8-2.6-9.6-3.8-14.4c-1.2-4.8-2.5-9.6-3.8-14.4c-0.2-0.7-0.4-1.4-0.5-2.1
				c-0.1-0.7-0.2-1.3-0.4-1.9c-0.1-0.4-0.2-0.7-0.3-1.1c0.2-0.1,0.3-0.1,0.5-0.1c-0.2-0.1-0.4-0.2-0.6-0.3c-0.2-0.2-0.4-0.6-0.5-1
				c-2-7.3-4-14.4-6-21.4c-2-7-4-14-6-21.2c-0.3-1-0.5-2-0.5-2.9c-0.1-0.9-0.2-1.9-0.5-2.9c-0.1-0.3-0.3-0.7-0.6-1.1
				c-0.3-0.5-0.5-1-0.7-1.6c-0.1-0.3-0.1-0.7,0-1.2c0-0.5,0-0.9-0.1-1.4c-0.3-1-0.7-2-1.4-2.9c-0.6-0.9-1.1-1.9-1.4-2.9
				c-0.1-0.3-0.1-0.6,0-1.1c0.1-0.4,0.2-0.8,0.2-1.1c0-0.2-0.1-0.3-0.1-0.4c-0.1-0.3-0.1-0.4-0.2-0.7c-0.2-0.1-0.4-0.3-0.4-0.6
				c-0.1-0.3-0.1-0.4-0.2-0.7c-0.4-0.2-0.7-0.5-0.8-1c-0.2-0.9-0.4-1.9-0.4-3c0-1.1-0.2-2.2-0.5-3.4c-0.5-1.8-1.1-3.5-1.8-5.1
				c-0.7-1.7-1.4-3.4-1.8-5.1c-0.2-0.6-0.3-0.9-0.4-1.5c-0.1-0.4-0.2-0.7-0.3-1.1c-0.3-1.2,0.2-2.5,1.5-3.9c0.1-0.1,0.1-0.2,0.2-0.3
				c2.1-0.6,3.2-0.9,5.3-1.4c1.1-0.3,2.1-0.5,3.2-0.7c1.1-0.2,2.1-0.4,3.2-0.7c2.6-0.7,5.4-1.5,8.1-2.3c2.8-0.9,5.6-1.6,8.4-2.3
				c1.2-0.3,2.4-0.4,3.6-0.2c0.9-0.2,1.7-0.2,2.5,0.1c0.2,0.1,0.5,0.3,0.8,0.5c0.3,0.2,0.5,0.5,0.6,0.8c0.1,0.3,0.1,0.5,0,0.6
				c-0.1,0.1-0.1,0.3,0,0.6c0.1,0.3,0,0.5-0.1,0.7c0,0.1,0,0.1,0.1,0.2c-0.1,0.2-0.1,0.3-0.2,0.5c0.1,0.3,0.2,0.7,0.4,1.1
				c0.2,0.4,0.3,0.8,0.4,1.1c0.6,2.4,1.1,4.7,1.5,7c0.5,2.3,1,4.6,1.5,7c0,0.1,0,0.1,0.1,0.2c0,0.1,0.2,0.3,0.4,0.4
				c0,0.1,0,0.1,0.1,0.2c0.1,0.3,0.1,0.4,0.2,0.7c0,0.2,0.1,0.3,0.1,0.4c-0.3,0.5-0.5,0.7-0.8,1.1c0.1,0.4,0.3,0.9,0.6,1.3
				c0.3,0.4,0.6,0.8,0.8,1.2c0.4,0.6,0.6,1.3,0.7,1.8c0.1,0.5,0.3,1.1,0.4,1.9c0.3,1.2,0.5,2.4,0.7,3.6c0.2,1.2,0.4,2.4,0.7,3.6
				c0.8,3.2,1.6,6.5,2.6,9.7c0.9,3.2,1.8,6.4,2.6,9.7c0,0.1,0,0.1,0.1,0.2c0.2,0.3,0.5,0.5,0.7,0.7c0.2,0.2,0.4,0.4,0.4,0.7
				c0.1,0.3,0.1,0.6,0,0.9c-0.1,0.3-0.2,0.7-0.3,1c0,0.1,0,0.6-0.2,1.2c0.7,1.4,1.1,2.5,1.3,3.2c0.2,0.9,0.3,1.8,0.4,2.6
				c0,0.8,0.1,1.6,0.3,2.4c0.4,1.6,0.9,3.3,1.4,4.9c0.6,1.7,1,3.3,1.4,4.9c0.1,0.4,0.1,0.5,0.2,0.9c0.1,0.3,0.1,0.5,0,0.6
				c-0.1,0.1-0.1,0.2,0,0.4c0.1,0.3,0.1,0.5,0,0.7c0,0.2,0,0.4,0,0.7c0,0.1,0,0.1,0.1,0.2c0,0.1,0.2,0.3,0.3,0.4
				c0,0.2,0.1,0.3,0.1,0.4c0.1,0.3,0.1,0.4,0.2,0.7c0.4,1.8,0.9,3.5,1.4,5.2c0.5,1.7,0.9,3.3,1.3,4.9c0,0.2,0.1,0.3,0.1,0.4
				c-0.2,0.4-0.3,0.6-0.5,1.1c0.4,0.5,0.7,0.8,1.1,1.4c0,0.1,0,0.1,0.1,0.2c0.6,2.4,0.9,3.6,1.4,6c1.1,4.8,1.7,7.2,2.8,11.9
				c0.2,0.9,0.5,1.8,0.7,2.6c0.3,0.9,0.6,1.8,0.8,2.8c0.4,1.8,0.8,3.5,1.1,5.2c0.3,1.7,0.7,3.5,1.1,5.2c0.1,0.4,0.1,0.5,0.2,0.9
				c-0.2,0-0.2,0.2-0.1,0.5c-0.1,0.1-0.1,0.2-0.2,0.3c0.3,1.3,0.8,2.7,1.3,4.1c0.6,1.4,1.1,2.9,1.4,4.6c0.3,1.3,0.6,2.7,0.9,4.1
				c0.3,1.4,0.6,2.9,0.9,4.3c0.1,0.4,0.1,0.5,0.2,0.9c-0.3,0.2-0.4,0.2-0.6,0.4c-3.8,1.5-7.5,2.8-11,3.9c-3.6,1.1-7.2,2.1-11,3.1
				c-0.6,0.2-1.2,0.3-1.9,0.4c-0.7,0.1-1.5,0-2.3-0.2c-0.1,0-0.1,0-0.2,0.1c-0.4,0.3-0.8,0.5-1.3,0.6c-1,0.3-2.3,0.1-2.8-0.6
				c-0.7-0.8-1-1.8-1.1-2.3c-0.2-0.7-0.4-1.5-0.5-2.3c-0.1-0.8-0.3-1.4-0.3-1.7c-0.9-3.2-1.3-4.7-2.2-7.9c-0.2-0.9-0.3-1.6-0.3-2
				c0-0.1,0-0.3,0-0.4c0.1-0.1,0.1-0.2,0-0.4c0-0.2-0.1-0.3-0.1-0.4c0-0.1,0-0.1-0.1-0.2c-0.3-0.3-0.4-0.4-0.7-0.7
				C326.7,237.1,326.6,237,326.4,236.7z"/>
			<path class="st0" d="M435.1,235.2c-1.5-0.5-2.3-1.4-2.5-2.6c-0.9-5.7-1.3-8.6-2.2-14.4c0-0.3-0.1-0.4-0.1-0.7
				c0-0.1,0-0.3,0.2-0.5c0-0.2,0-0.3-0.1-0.4c0-0.1,0-0.1,0-0.2c0-0.3-0.1-0.4-0.1-0.7c0-0.3-0.1-0.5-0.2-0.5
				c-0.1-0.1-0.1-0.2-0.2-0.3c0-0.3-0.1-0.4-0.1-0.7c0.2-0.2,0.2-0.3,0.4-0.5c-0.2-0.1-0.3-0.5-0.4-1.1c-0.1-0.4,0-0.7,0.1-0.7
				c0-0.1,0-0.3,0.2-0.5c0.2-0.2,0.2-0.3,0.4-0.5c0-0.1,0-0.1,0-0.2c-0.1-0.4-0.1-0.7-0.2-1.1c-0.1-0.5-0.1-0.8-0.2-1.3
				c-0.9-5.8-2-11.6-3.3-17.4c-1.3-5.8-2.4-11.5-3.3-17.2c-0.1-0.4-0.1-0.7-0.2-1.1c0.3,0,0.4-0.1,0.7-0.1c-0.2-0.3-0.4-0.5-0.6-0.8
				c-0.2-0.3-0.3-0.6-0.4-0.9c-1-6.3-2-12.4-3-18.3c-1-5.9-2-11.9-3-18c-0.3-2.1-0.6-4.1-0.8-6.1c-0.2-2-0.5-4-0.8-6.1
				c-0.1-0.7-0.3-1.4-0.6-2.1c-0.3-0.6-0.5-1.3-0.6-2.1c0-0.3,0-0.5,0-0.6c0.1-0.1,0.1-0.2,0.1-0.4c0-0.3-0.1-0.4-0.1-0.7
				c0.1-0.2,0.2-0.4,0.2-0.7c0-0.2,0-0.3-0.1-0.4c0-0.3-0.1-0.7-0.3-1.1c-0.2-0.4-0.3-0.8-0.3-1.1c-0.4-2.4-0.6-3.6-0.9-6.1
				c-0.3,0-0.5,0.1-0.8,0.1c-0.4,0.1-0.5,0-0.6-0.1c-0.3,0-0.5,0.1-0.8,0.1c-0.4-0.1-0.7-0.2-1.1-0.2c-0.4,0-0.7-0.1-1.1-0.4
				c-0.2,0.2-0.2,0.3-0.2,0.4c0,0.1-0.1,0.2-0.2,0.4c-0.1,0.2-0.1,0.3-0.2,0.5c-0.3,0.1-0.5,0.1-0.8,0.1c-4.5,0.7-9.1,1.5-13.6,2.2
				c-4.5,0.7-9.1,1.5-13.6,2.4c-1.4,0.3-2.7,0.6-4,1c-1.3,0.4-2.6,0.7-4,1c-1.9,0.4-3.8,0.7-5.8,1c-1.9,0.3-3.8,0.8-5.7,1.3
				c-0.5,0.1-0.8,0.2-1.3,0.3c-0.1-0.4-0.1-0.7-0.2-1.1c-0.4-1.9-0.9-3.9-1.4-5.9c-0.5-2-1-4-1.4-6.1c-0.4-2.1-0.8-4.1-1.2-6.1
				c-0.3-2-0.7-4-1.1-5.9c-0.1-0.5-0.2-0.8-0.3-1.3c0.7,0,1-0.1,1.6-0.1c0.7,0,1.4,0,1.9-0.1c0.5,0,1.2-0.1,1.9-0.3
				c1.1-0.2,2.1-0.5,3.2-0.9c1-0.4,2.1-0.7,3.2-0.9c1.4-0.3,2.8-0.5,4-0.7c1.3-0.2,2.5-0.4,3.8-0.6c11.2-2.2,22.3-4.2,33.1-6
				c10.8-1.9,21.9-3.5,33.2-5c1.4-0.2,2.9-0.3,4.5-0.4c1.5-0.1,3-0.3,4.5-0.4c7-0.8,14.1-1.6,21.2-2.4c7.1-0.8,14.4-1.5,21.8-2
				c0.5,0,1.1,0,1.6,0c0.5,0,1.2,0,1.9,0c0.4,0.1,0.7,0.1,1.1,0.1c0.2,3.2,0.3,4.8,0.6,7.9c-0.1,0.1-0.2,0.1-0.3,0.2
				c0.1,0,0.2,0,0.3,0c0.1,0.2,0.2,0.3,0.3,0.4c0,0.2,0.1,0.2,0.1,0.2c0.1,0,0.1,0.1,0.2,0.2c0,0.3,0,0.4,0,0.7c0,0.2,0,0.3,0,0.5
				c0,0.6,0.1,1,0.1,1.6c0.1,1.2,0.3,2.5,0.5,3.7c0.3,1.3,0.4,2.5,0.5,3.7c0.1,1.1-0.1,2.1-0.6,3c0.5,0.1,0.8,0.6,0.9,1.5
				c0,0.5-0.1,0.8-0.4,1.2c-0.1,0.3-0.1,0.4-0.2,0.7c-0.3,0-0.5,0-0.8,0.1c-1.4,0.3-2.8,0.5-4.3,0.8c-1.5,0.3-3,0.5-4.6,0.6
				c-1.1,0.1-2.1,0.1-3.1,0c-1-0.1-2-0.1-3.1,0c-3,0.3-5.9,0.6-8.7,0.9c-2.8,0.3-5.7,0.7-8.7,1c-0.1,0.1-0.1,0.2-0.2,0.3
				c-0.2,0-0.3,0-0.5,0.1c-0.2,0.2-0.4,0.3-0.8,0.3c-0.3,0.2-0.7,0.3-1,0.3c-0.7,0.1-1.4,0-2.2-0.2c-0.2,0-0.3,0-0.4-0.1
				c-0.1-0.1-0.2-0.1-0.4-0.1c-4.1,0.5-6.2,0.7-10.3,1.2c0,0.3,0,0.6,0,0.8c-0.1,0.2-0.1,0.5,0,0.8c0.1,0.9,0.3,1.8,0.6,2.6
				c0.3,0.8,0.5,1.7,0.6,2.6c0.1,0.5,0,0.8-0.2,0.9c0.1,0.5,0,0.8-0.2,0.9c0,0.2,0,0.3,0.1,0.5c-0.2,0.2-0.2,0.3-0.2,0.5
				c0.1,1.2,0.5,2.4,1,3.7c0.5,1.2,0.8,2.5,1,3.9c0.3,2.6,0.7,5.1,1,7.5c0.4,2.5,0.7,4.9,1,7.3c0,0.2,0,0.3,0.1,0.5
				c0.2,0.1,0.3,0.6,0.4,1.3c0.1,0.8-0.1,1.8-0.7,3.1c0.4,0.7,0.7,1.8,0.9,3.3c0.1,0.9,0.1,1.8,0.1,2.6c-0.1,0.8-0.1,1.6,0,2.4
				c0.2,1.8,0.6,3.6,1,5.2c0.5,1.7,0.8,3.4,1,5.3c0.1,0.6-0.1,1-0.1,1.2c-0.1,0.3,0,0.8-0.1,1.2c-0.1,0.3-0.2,0.6-0.1,0.9
				c0.2,0.3,0.4,0.5,0.6,0.8c0,0.1,0,0.1,0,0.2c0.5,3.8,0.9,7.5,1.5,11.3c0.5,3.7,1,7.6,1.5,11.5c0.1,1.1,0.2,2,0.1,3
				c-0.1,0.9,0,1.9,0.1,3c0.3,2.3,0.4,3.4,0.7,5.6c0,0.2,0.2,0.5,0.6,1.1c0.1,0.5,0.2,0.7,0.3,0.9c0,0.4,0.1,0.5,0.1,0.9
				c0,0.3,0,0.7,0,1.1c0,0.5,0,0.8,0,1.1c0.1,0.8,0.2,1.6,0.4,2.6c0.2,1,0.3,1.9,0.5,2.8c0.2,1.8,0.2,3.6-0.1,5.3c0,0.1,0,0.1,0,0.2
				c0.2,0.1,0.3,0.3,0.3,0.4c0,0.2,0.1,0.3,0.3,0.4c0,0.3,0.1,0.7,0.3,1.1c0.1,0.4,0.2,0.9,0.3,1.3c0.2,1.7,0.3,2.6,0.5,4.3
				c0.1,1.2,0.2,2.4,0.3,3.5c0.1,1.1,0.2,2.3,0.3,3.5c0,0.2,0,0.3,0.1,0.5c-0.1,0.1-0.1,0.2-0.2,0.3c0.1,0.1,0.2,0.1,0.3,0.2
				c0.3,0.3,0.5,0.6,0.6,1.1c0.1,0.6-0.2,1-0.8,1.2c-0.3,0.2-0.5,0.3-0.9,0.6c-0.5,0.1-1.2,0.4-2,0.7c-0.7,0.3-1.5,0.5-2.3,0.6
				c-0.8,0.2-1.3,0.3-1.6,0.3c-2.7,0.5-5.5,1-8.2,1.4c-2.7,0.5-5.5,0.9-8.2,1.3c-0.9,0.1-1.6,0.2-2.1,0.1c-0.5,0.1-1.1-0.1-1.9-0.4
				c-0.2,0-0.3,0.1-0.4,0.3c-0.4,0.1-0.5,0.1-0.9,0.1c-0.2,0.1-0.3,0.2-0.4,0.3C435.3,235.2,435.2,235.2,435.1,235.2z"/>
			<path class="st0" d="M564.3,224.7c-1.4-0.7-2.1-1.7-2.1-2.9c-0.1-5.8-0.1-8.7-0.2-14.5c0-0.3,0-0.4,0-0.7c0-0.1,0.1-0.3,0.2-0.5
				c0-0.2,0-0.3,0-0.5c0-0.1,0-0.1,0-0.2c0-0.3,0-0.4,0-0.7c0-0.3,0-0.5-0.1-0.6c-0.1-0.1-0.1-0.2-0.1-0.3c0-0.3,0-0.4,0-0.7
				c0.2-0.2,0.3-0.3,0.5-0.5c-0.2-0.1-0.2-0.5-0.3-1.1c0-0.5,0.1-0.7,0.2-0.7c0-0.1,0.1-0.3,0.2-0.5c0.2-0.2,0.3-0.3,0.5-0.5
				c0-0.1,0-0.1,0-0.2c0-0.5,0-0.7,0-1.1c0-0.5,0-0.8,0-1.4c-0.1-5.9-0.3-11.8-0.8-17.7c-0.5-5.9-0.7-11.7-0.8-17.5
				c0-0.5,0-0.7,0-1.1c0.3,0,0.4,0,0.7,0c-0.2-0.3-0.3-0.6-0.5-0.9c-0.2-0.3-0.3-0.6-0.3-0.9c-0.1-6.4-0.2-12.5-0.3-18.5
				c-0.2-6-0.3-12.1-0.3-18.3c0-2.1,0-4.2,0.1-6.1c0.1-2,0.1-4,0.1-6.1c0-0.8-0.1-1.5-0.3-2.2c-0.2-0.7-0.3-1.4-0.3-2.2
				c0-0.3,0-0.5,0.1-0.6c0.1-0.1,0.1-0.2,0.1-0.3c0-0.3,0-0.4,0-0.7c0.2-0.2,0.3-0.4,0.3-0.7c0-0.2,0-0.3,0-0.5
				c0-0.3-0.1-0.7-0.1-1.1c-0.1-0.5-0.1-0.8-0.1-1.1c0-2.5,0-3.7-0.1-6.1c-0.3,0-0.5,0-0.8,0c-0.4,0-0.5-0.1-0.5-0.2
				c-0.3,0-0.5,0-0.8,0c-0.4-0.1-0.7-0.3-1.1-0.3c-0.4-0.1-0.7-0.3-1.1-0.6c-0.2,0.2-0.3,0.3-0.3,0.3c0,0.1-0.1,0.2-0.3,0.3
				c-0.1,0.2-0.2,0.3-0.3,0.5c-0.3,0-0.5,0-0.8,0c-4.6,0.1-9.2,0.2-13.8,0.2c-4.6,0.1-9.2,0.2-13.8,0.4c-1.4,0.1-2.8,0.2-4.1,0.4
				c-1.3,0.2-2.7,0.4-4.1,0.4c-1.9,0.1-3.9,0.2-5.8,0.2c-1.9,0-3.9,0.2-5.8,0.5c-0.5,0-0.8,0.1-1.3,0.1c0-0.5,0-0.7-0.1-1.1
				c-0.1-2-0.3-4-0.5-6c-0.2-2-0.4-4.1-0.5-6.2c-0.1-2.1-0.2-4.2-0.3-6.2c0-2-0.1-4-0.3-6c0-0.5-0.1-0.8-0.1-1.4
				c0.7,0,1,0.1,1.6,0.1c0.7,0.1,1.4,0.2,1.9,0.2c0.5,0,1.2,0,1.9,0c1.1-0.1,2.2-0.2,3.2-0.4c1.1-0.2,2.2-0.3,3.2-0.4
				c1.4-0.1,2.8-0.1,4.1-0.1c1.3,0,2.5,0,3.8-0.1c11.4-0.5,22.6-0.9,33.5-1.2c11-0.3,22.1-0.4,33.6-0.2c1.4,0,2.9,0.1,4.5,0.2
				c1.5,0.1,3,0.2,4.5,0.2c7.1,0.2,14.2,0.4,21.3,0.6c7.2,0.3,14.4,0.6,21.9,1.1c0.5,0,1.1,0.1,1.6,0.2c0.5,0.1,1.2,0.2,1.9,0.2
				c0.4,0.1,0.6,0.2,1.1,0.3c-0.2,3.2-0.3,4.8-0.6,7.9c-0.1,0.1-0.2,0.1-0.3,0.2c0.1,0,0.2,0,0.3,0c0.1,0.2,0.1,0.3,0.2,0.5
				c0,0.2,0,0.2,0.1,0.2c0.1,0,0.1,0.1,0.1,0.2c0,0.3,0,0.4,0,0.7c0,0.2,0,0.3,0,0.5c0,0.6-0.1,1-0.1,1.6c-0.1,1.2-0.1,2.5,0,3.8
				c0.1,1.3,0.1,2.5,0,3.8c-0.1,1.1-0.4,2-1,2.9c0.5,0.2,0.7,0.7,0.7,1.6c0,0.5-0.2,0.8-0.6,1.1c-0.1,0.3-0.2,0.4-0.3,0.7
				c-0.3,0-0.5,0-0.8-0.1c-1.4,0.1-2.9,0.1-4.4,0.2c-1.5,0.1-3.1,0-4.6-0.1c-1.1-0.1-2.1-0.2-3-0.4c-1-0.2-2-0.3-3-0.4
				c-3-0.2-5.9-0.3-8.7-0.3c-2.8-0.1-5.7-0.1-8.7-0.3c-0.1,0.1-0.2,0.1-0.3,0.2c-0.2,0-0.3,0-0.5,0c-0.2,0.1-0.5,0.2-0.8,0.2
				c-0.4,0.1-0.7,0.2-1.1,0.2c-0.7,0-1.4-0.2-2.1-0.5c-0.2,0-0.3,0-0.4-0.1c-0.1-0.1-0.2-0.1-0.4-0.1c-4.1-0.1-6.2-0.2-10.3-0.3
				c0,0.3-0.1,0.6-0.2,0.8c-0.1,0.2-0.1,0.5-0.2,0.8c0,0.9,0,1.8,0.2,2.6c0.2,0.8,0.2,1.7,0.2,2.6c0,0.5-0.1,0.8-0.3,0.9
				c0,0.5-0.1,0.8-0.3,0.9c0,0.2,0,0.3,0,0.5c-0.2,0.1-0.3,0.3-0.3,0.4c0,1.2,0.1,2.5,0.4,3.8c0.3,1.3,0.5,2.6,0.4,4
				c-0.1,2.6-0.1,5.1-0.1,7.6c0,2.5,0,5,0,7.4c0,0.2,0,0.3,0,0.5c0.2,0.2,0.2,0.6,0.2,1.4c0,0.8-0.4,1.7-1.1,2.9
				c0.3,0.8,0.5,1.9,0.4,3.4c0,0.9-0.1,1.8-0.3,2.6c-0.2,0.8-0.3,1.6-0.3,2.4c0,1.8,0,3.6,0.3,5.3c0.2,1.7,0.3,3.5,0.3,5.3
				c0,0.6-0.2,1-0.3,1.1c-0.1,0.2-0.1,0.8-0.3,1.1c-0.2,0.3-0.3,0.6-0.3,0.9c0.2,0.4,0.3,0.6,0.5,0.9c0,0.1,0,0.1,0,0.2
				c-0.1,3.8-0.1,7.6-0.1,11.4c0,3.8-0.1,7.6-0.2,11.6c0,1.1-0.1,2-0.3,2.9c-0.2,0.9-0.3,1.9-0.3,2.9c-0.1,2.3-0.1,3.4-0.1,5.7
				c0,0.2,0.1,0.5,0.5,1.1c0,0.5,0.1,0.8,0.2,0.9c0,0.4,0,0.5,0,0.9c0,0.3-0.1,0.7-0.1,1.1c-0.1,0.4-0.1,0.8-0.1,1.1
				c0,0.8,0,1.6,0.1,2.6c0.1,1,0.1,1.9,0,2.8c0,1.8-0.3,3.6-0.8,5.2c0,0.1,0,0.1,0,0.2c0.2,0.2,0.2,0.3,0.2,0.5
				c0,0.2,0.1,0.3,0.2,0.5c0,0.3,0,0.7,0.1,1.1c0.1,0.5,0.1,0.9,0.1,1.4c0,1.7-0.1,2.6-0.1,4.3c0,1.2-0.1,2.4-0.2,3.5
				c-0.1,1.1-0.2,2.3-0.2,3.5c0,0.2,0,0.3,0,0.5c-0.1,0.1-0.1,0.1-0.2,0.2c0.1,0.1,0.1,0.1,0.2,0.2c0.3,0.3,0.4,0.7,0.4,1.1
				c0,0.6-0.3,1-1,1.1c-0.4,0.2-0.6,0.3-0.9,0.4c-0.5,0-1.2,0.2-2.1,0.4c-0.7,0.2-1.6,0.2-2.3,0.3c-0.8,0.1-1.3,0.1-1.6,0.1
				c-2.8,0.1-5.6,0.2-8.3,0.2c-2.8,0.1-5.6,0.1-8.3,0.1c-0.9,0-1.6-0.1-2.1-0.2c-0.5,0-1.1-0.2-1.9-0.7c-0.2,0-0.3,0.1-0.5,0.2
				c-0.4,0-0.6,0-0.9,0c-0.2,0.1-0.3,0.1-0.5,0.2C564.6,224.7,564.5,224.7,564.3,224.7z"/>
			<path class="st0" d="M662.2,202.4c0.5-0.4,0.8-0.6,1.3-1c0.2,0,0.2-0.1,0.3-0.2c-0.3-0.3-0.4-1-0.3-2.1
				c1.2-11.9,1.7-17.9,2.9-29.8c0.1-0.8,0.2-1.4,0.3-1.9c0.1-0.5,0.2-1.2,0.3-1.9c0-0.5,0.1-0.7,0.1-1.1c0.2,0,0.3,0,0.5,0
				c-0.4-0.5-0.6-1.1-0.6-1.9c0.6-6.3,1.2-12.5,1.7-18.5c0.5-6,1.1-12.1,1.7-18.3c0.2-2.1,0.4-4.2,0.7-6.2c0.3-2,0.5-4.1,0.7-6.2
				c0.1-0.6,0.1-1.2,0.1-1.9c0-0.7,0-1.4,0.1-2.2c0-0.5,0.1-0.9,0.3-1.3c0.1-0.4,0.2-0.9,0.3-1.3c0.1-0.9,0-1.8-0.1-2.7
				c-0.2-0.9-0.2-1.8-0.1-2.7c0-0.3,0.1-0.6,0.4-1c0.2-0.4,0.4-0.7,0.6-1c0-0.2,0-0.3,0-0.5c0-0.5,0-0.9,0-1.5c0-0.5,0-1,0-1.5
				c0.1-0.9,0.2-1.8,0.4-2.8c0.2-1,0.3-2.1,0.5-3.3c0.2-1.7,0.2-3.4,0.1-5.1c-0.1-1.8-0.1-3.5,0.1-5.1c0-0.4,0.1-0.5,0.1-0.9
				c0.4,0,0.6-0.1,0.6-0.4c0.1-0.1,0.2-0.1,0.3-0.2c0-0.1,0-0.1,0-0.2c-0.1,0-0.2,0-0.3,0c0-0.3-0.1-0.5-0.5-0.5
				c0-0.4,0.1-0.5,0.1-0.9c0.2-1.8,1.2-3.1,3.1-3.8c0.1-0.1,0.2-0.1,0.3-0.2c0.1,0,0.2,0,0.3,0c2.2,0.2,4.3,0.5,6.4,0.9
				c2.1,0.4,4.1,0.7,6.1,0.9c2.7,0.3,5.4,0.5,8.2,0.6c2.7,0.1,5.5,0.3,8.2,0.7c0.9,0.1,2.1,0.4,3.5,0.9c0.5,0.2,1.1,0.6,1.8,1.1
				c0.7,0.5,0.9,1.2,0.8,1.9c-0.1,0.9-0.3,1.6-0.5,2c-0.2,0.3-0.4,0.6-0.4,1.1c-0.1,0.8-0.2,1.2-0.3,2c-0.4,3.2-0.6,4.7-1,7.9
				c-0.1,0.8-0.3,1.3-0.5,1.8c0.1,0.3,0.2,0.8,0.1,1.4c-0.1,0.6-0.2,1.3-0.3,2c-0.1,0.8-0.2,1.7-0.4,2.7c-0.1,0.2-0.2,0.2-0.3,0.4
				c-0.2,0-0.3,0-0.5-0.1c0,0.1,0,0.1,0,0.2c-0.2,0-0.3,0-0.3,0.2c0.7,2.8,0.9,5.6,0.5,8.3c0,0.3-0.1,0.5-0.2,0.5
				c-0.1,0.1-0.2,0.2-0.2,0.3c-0.1,0.4-0.2,0.7-0.4,0.9c0,0.4-0.1,0.5-0.1,0.9c-0.1,0.6-0.1,0.9-0.2,1.6c0.1,0.5,0.1,1.1,0,1.8
				c-0.1,0.8-0.2,1.4-0.4,2c-0.2,0.6-0.3,1.3-0.4,2c-0.1,0.9-0.2,1.8-0.2,2.7c0,0.9-0.1,1.8-0.2,2.7c-0.3,2-0.4,3-0.7,5
				c-0.2,1.4-0.2,2.7,0,3.9c0.2,1.2,0.2,2.5,0,3.7c0,0.3-0.2,0.5-0.3,0.5c-0.2,0.1-0.3,0.2-0.3,0.3c0,0.3-0.1,0.5-0.2,0.5
				c-0.1,0.1-0.2,0.2-0.2,0.3c0,0.2-0.1,0.3-0.2,0.4c-0.1,0.1-0.2,0.4-0.2,0.7c-0.2,1.2-0.4,2.4-0.6,3.7c-0.3,1.3-0.5,2.5-0.6,3.7
				c-0.2,1.8-0.4,3.6-0.5,5.3c-0.1,1.7-0.2,3.5-0.5,5.3c0,0.4-0.1,0.5-0.1,0.9c0,0.3-0.1,0.5-0.2,0.5c-0.1,0.1-0.2,0.2-0.2,0.3
				c0,0.3-0.1,0.5-0.2,0.7c-0.1,0.1-0.2,0.4-0.2,0.7c0,0.2,0,0.3-0.1,0.5c0.1,0.2,0.2,0.4,0.2,0.7c0,0.3,0,0.5,0.2,0.7
				c0,0.4-0.1,0.5-0.1,0.9c-0.1,0.6-0.2,1.2-0.3,1.7c-0.2,0.5-0.3,1.1-0.3,1.7c-0.1,0.8-0.2,1.5-0.2,2.4c0,0.8-0.1,1.6-0.2,2.4
				c0,0.2,0,0.3-0.1,0.4c0,0.2-0.1,0.3-0.3,0.4c0,0.1,0,0.1,0,0.2c0,0.2-0.2,0.5-0.6,1.1c0.3,0,0.4,0.1,0.7,0.1
				c-0.8,5.8-1.2,8.6-1.9,14.4c-0.1,1.1-0.3,2.1-0.5,3.1c-0.2,1-0.4,2.2-0.6,3.4c-0.1,1.1-0.2,2.1-0.2,3.1c0,1,0,2-0.2,3.1
				c-0.1,0.9-0.3,1.8-0.5,2.7c-0.2,0.9-0.3,1.7-0.4,2.5c0,0.3,0,0.6,0,1c0,0.4,0,0.7,0,1c1.9,0.4,3.8,0.8,5.7,1.1
				c2,0.4,3.9,0.7,5.8,0.9c1.3,0.2,2.4,0.3,3.4,0.4c1,0.1,2.2,0.2,3.4,0.4c2.2,0.3,4.4,0.8,6.7,1.4c2.2,0.6,4.5,1.1,6.7,1.4
				c5,0.9,10.1,1.6,15.2,2.1c5.1,0.6,10.1,1.4,15.1,2.4c3.9,0.8,6.2,2.2,6.9,4.2c0.2,0.7,0.1,1.7-0.1,3c-0.3,1.6-0.5,2.4-0.9,4
				c-0.2,0.9-0.2,1.6,0,2.1c-0.1,0.3-0.1,0.5,0,0.7c0,0.2,0,0.4,0,0.7c-0.1,0.5-0.2,0.8-0.3,1.3c0,0.1-0.2,0.6-0.4,1.3
				c-0.2,0.7-0.5,1.5-0.9,2.4c-0.3,0.9-0.7,1.6-1,2.3c-0.3,0.7-0.5,1.1-0.5,1.3c-0.5,1.6-1.7,2.2-3.7,1.8c-0.8-0.2-2-0.4-3.6-0.9
				c-1.7-0.4-3.4-0.8-5.2-1.2c-1.7-0.3-3.4-0.6-5.1-0.9c-1.7-0.2-3.1-0.3-4.2-0.2c-0.2,0.1-0.3,0.1-0.5,0.1
				c-0.3,0.1-0.6,0.2-0.8,0.3c-0.2,0.1-0.3,0.2-0.5,0.1c-0.4,0.1-0.6,0.2-1,0.3c-0.1-0.3-0.2-0.5-0.3-0.8c-0.8-1.1-1.7-1.7-3-1.9
				c-1.4-0.2-2.8-0.4-4.2-0.5c-1.4-0.1-2.8-0.3-4.2-0.5c-2.4-0.4-4.8-0.9-7-1.4c-2.2-0.5-4.4-0.9-6.7-1.3c-5.8-0.9-8.7-1.3-14.5-2.1
				c-2.2-0.3-4.2-0.7-6.1-1.2c-1.9-0.5-3.8-0.8-5.6-1.1c-2.8-0.3-5.5-0.6-8.3-0.9c-2.8-0.2-5.6-0.5-8.3-0.8
				c-0.9-0.1-1.9-0.5-2.9-1.2c-0.2,0.1-0.3,0.1-0.5,0.2c-0.6-0.1-0.8-0.1-1.4-0.1c-0.8-0.1-1.4-0.3-1.9-0.8c-0.5-0.4-0.7-1.1-0.6-2
				c0.1-1.1,0.2-2.1,0.4-3c0.2-1,0.3-1.9,0.4-2.8c0-0.3,0-0.6,0-0.9c0-0.3-0.1-0.6,0-0.9c0-0.5,0.1-0.7,0.2-0.9
				c0.1-0.1,0.2-0.4,0.4-0.6c0-0.1-0.1-0.2-0.2-0.2c0-0.3,0-0.5-0.2-0.5c0-0.4,0.1-0.5,0.1-0.9c0-0.5,0.1-0.9,0-1.5c0-0.5,0-1,0-1.5
				c0.1-0.8,0.2-1.4,0.4-2c0.2-0.6,0.4-1.3,0.4-2c0-0.5,0.1-0.7,0.3-0.9c0-0.1,0-0.1,0-0.2c-0.3-0.6-0.4-1.1-0.3-1.4
				c0-0.3,0.2-0.7,0.6-1.3c0.1-0.1,0.2-0.1,0.3-0.2c-0.1-0.1-0.1-0.1-0.2-0.2C663,202.7,662.7,202.6,662.2,202.4z"/>
			<path class="st0" d="M785.1,249c-0.1-1,0-1.8,0.1-2.5c0.1-0.6,0.3-1.1,0.5-1.5c0.2-0.4,0.3-0.9,0.5-1.5c0.2-0.7,0.3-1.4,0.2-1.9
				c0-0.5,0-1.2,0.2-1.9c0.1-0.3,0.1-0.4,0.2-0.7c0.2-0.1,0.3-0.3,0.4-0.6c0.1-0.4,0.1-0.5,0.2-0.9c0.1-0.5,0.2-0.8,0.3-1.3
				c-0.1-0.3-0.1-0.6,0-0.9c0.1-0.4,0.2-0.7,0.3-1.1c0.2-0.9,0.5-1.8,0.8-2.8c0.3-1,0.7-2,1.1-3c0-0.1,0-0.1,0.1-0.2
				c-0.2-0.2-0.4-0.4-0.6-0.6c0.3-0.3,0.4-0.5,0.7-0.8c0-0.2,0.1-0.3,0.1-0.4c0-0.2,0.1-0.3,0.1-0.4c0.2-0.1,0.3-0.2,0.3-0.4
				c-0.2-0.6-0.2-0.9-0.4-1.5c0.3-0.2,0.4-0.3,0.6-0.5c0.3,0.1,0.5,0,0.6-0.3c-0.2-0.7-0.2-1.2-0.1-1.8c0.1-0.5,0.2-1,0.3-1.4
				c0.3-1.4,0.5-2.1,0.9-3.5c1-4.1,1.9-8.2,2.8-12.3c0.9-4.1,1.8-8.2,2.8-12.3c0.1-0.4,0.2-0.7,0.3-1.1c0.1-0.3,0.2-0.5,0.3-0.5
				c0.1-0.1,0.2-0.2,0.2-0.3c0.1-0.3,0.2-0.5,0.3-0.7c0.1-0.2,0.2-0.4,0.3-0.7c0.1-0.4,0.2-0.7,0.3-1.1c0.2,0,0.3,0.1,0.5,0.1
				c0.1-0.3-0.1-0.5-0.4-0.6c0.1-0.3,0.1-0.5,0-0.7c0-0.2,0-0.4,0-0.7c1.8-7.5,3.6-15,5.3-22.5c1.7-7.5,3.5-15,5.3-22.5
				c0.1-0.6,0.3-1.2,0.4-1.8c0.1-0.6,0.4-1.1,0.9-1.6c-0.1-0.2-0.2-0.4-0.2-0.5c0-0.1,0-0.4-0.1-0.7c0.2-0.7,0.3-1.1,0.4-1.8
				c0.1-0.3,0.2-0.7,0.4-1.1c0.2-0.4,0.3-0.8,0.4-1.1c0.3-1.2,0.4-2.4,0.3-3.5c-0.1-1.2,0-2.4,0.3-3.5c0-0.1,0.1-0.2,0.3-0.3
				c0.2,0,0.3-0.1,0.3-0.3c0.1-0.3,0.2-0.5,0.4-0.6c0.1-0.3,0.1-0.4,0.2-0.7c0.1-0.5,0.2-0.8,0.3-1.3c0-0.1,0-0.3-0.1-0.4
				c-0.1-0.1-0.1-0.3,0-0.6c0.1-0.4,0.1-0.5,0.2-0.9c0.3-1.3,0.7-2.6,1.1-3.9c0.4-1.3,0.8-2.7,1.1-4.2c0.3-1.2,0.4-2.3,0.4-3.3
				c0-1,0.1-2,0.3-3.1c0.1-0.4,0.3-0.9,0.6-1.3c0.3-0.4,0.6-0.8,0.8-1.2c-0.1-0.3-0.1-0.7,0-1.2c0.3-1.3,0.6-2.2,0.9-2.6
				c0.3-0.4,1.1-0.9,2.3-1.5c0.1-0.2,0.2-0.2,0.4-0.4c0.2,0.1,0.3,0.1,0.5,0.1c2.8,1,5.5,1.8,8.2,2.5c2.7,0.7,5.3,1.4,8,2
				c6.9,1.8,13.8,3.6,20.8,5.3c6.9,1.7,13.8,3.6,20.4,5.6c3,0.9,5.9,1.9,8.8,2.8c2.9,1,5.8,1.9,8.8,2.9c1,0.3,2.1,0.6,3.2,0.9
				c1.1,0.3,2.1,0.6,3.2,0.9c8.5,2.8,12.7,4.2,21.2,7.2c2.3,0.8,3.3,2.3,3.1,4.5c-0.1,0.8-0.2,1.5-0.4,2.3c-0.2,0.7-0.4,1.5-0.6,2.2
				c-0.4,1.1-0.9,2.2-1.4,3.1c-0.5,0.9-1,2-1.4,3.1c-0.6,1.8-1,2.7-1.6,4.5c-0.2,0.6-0.5,1-0.8,1.4c-0.3,0.4-0.6,0.8-0.8,1.4
				c-0.2,0.4-0.2,0.6-0.4,1.1c-0.4-0.1-0.6-0.2-1-0.4c-0.6-0.2-0.9-0.3-1.5-0.5c-0.4-0.1-0.6-0.2-1-0.4c-1.4-1-2.6-1.7-3.7-2.1
				c-1.1-0.5-2.4-1-3.9-1.5c-4.6-1.6-6.9-2.4-11.5-3.9c-2.4-0.8-4.7-1.6-6.8-2.3c-2.1-0.8-4.4-1.5-6.8-2.3c-1.4-0.4-2.8-0.8-4.2-1.1
				c-1.4-0.3-2.8-0.6-4.2-1.1c-3.9-1.2-5.9-1.8-9.8-3c-5.8-1.7-8.7-2.5-14.5-4.2c-0.1,0-0.2,0-0.3-0.1c-0.3-0.1-0.6-0.1-0.8,0
				c-0.1,0-0.2,0-0.3-0.1c0,0.2-0.1,0.3-0.1,0.4c0.2,0,0.2,0.2,0.1,0.5c-0.1,0.4-0.3,0.7-0.5,0.8c-0.2,0.1-0.6,0.2-0.6,0.3
				c-0.3,0.3-0.3,1.8-0.3,3c0,0.8-0.1,1.4-0.3,1.9c-0.1,0.5-0.3,1.1-0.5,1.9c-0.1,0.4-0.2,0.7-0.3,1.1c-0.1,0.3-0.2,0.5-0.3,0.5
				c-0.1,0.1-0.2,0.2-0.3,0.5c-0.1,0.3-0.2,0.5-0.3,0.7c-0.1,0.2-0.3,0.4-0.3,0.7c-0.3,1-0.5,2-0.5,2.9c-0.1,0.9-0.2,1.8-0.5,2.7
				c-0.3,1.2-0.7,2.3-1,3.2c-0.4,1-0.7,2.1-1,3.2c-0.8,2.8-1.2,4.2-1.9,7c-0.2,0.7-0.3,1.7-0.3,3c-0.1,0.3-0.1,0.5,0.1,0.7
				c0.1,0.2,0.1,0.4,0.1,0.7c-0.1,0.3-0.1,0.6-0.1,0.8c0,0.2,0,0.5-0.1,0.8c0,0.1,0,0.1-0.1,0.2c-0.2,0.1-0.3,0.2-0.4,0.4
				c-0.4,0.1-0.6,0.2-0.6,0.3c-0.2,0.2-0.4,0.6-0.6,1c-0.1,0.3-0.1,0.5-0.2,0.9c0,0.1,0,0.3,0.1,0.5c1.9,1,3.8,1.8,5.8,2.3
				c2.1,0.6,4.3,1.1,6.4,1.5c2.1,0.4,4.2,0.9,6.2,1.5c1.3,0.4,2.6,0.8,3.8,1.3c1.2,0.5,2.4,0.9,3.6,1.2c1.8,0.6,3.6,1.1,5.5,1.5
				c1.9,0.4,3.7,0.9,5.5,1.5c4.2,1.4,6.4,2.1,10.6,3.5c1.5,0.5,2.6,1.1,3.4,1.7c0.8,0.7,1.3,1.8,1.4,3.5c0.1,3.4-0.3,6.5-1.3,9.4
				c-0.6,1.7-1.6,3.5-3,5c-0.9,0.9-2,1.3-2.6,1.3c-0.7,0-1.3,0.1-1.6-0.1c-0.6-0.2-0.9-0.3-1.4-0.5c-3.4-1.1-6.8-2.2-10.3-3.2
				c-3.5-1-7-2-10.6-3.1c-3.2-1-6.6-1.9-10-2.8c-3.4-0.9-6.8-1.8-10-2.7c-1.3-0.4-2.5-0.8-3.5-1.2c-1-0.4-2.2-0.8-3.5-1.2
				c-0.1,0-0.1,0-0.2-0.1c-1.3,4.6-1.9,7-3.2,11.6c-0.2,0.1-0.4,0.2-0.6,0.3c0.2,0.1,0.3,0.1,0.5,0.1c-0.1,0.4-0.2,0.7-0.3,1.1
				c-0.6,2.2-1.2,4.4-1.7,6.6c-0.5,2.2-1.1,4.3-1.7,6.4c-0.3,1.2-0.7,2.3-1,3.2c-0.4,1-0.7,2.1-1,3.2c-0.2,0.9-0.4,1.6-0.3,2
				c-0.1,0.3-0.1,0.5,0.1,0.6c0.1,0.1,0.2,0.3,0.1,0.6c-0.1,0.4-0.2,0.7-0.3,1.1c-0.2,0.7-0.5,1.5-0.9,2.3c-0.4,0.8-0.7,1.7-1,2.6
				c-0.6,2.2-0.9,3.3-1.5,5.5c0.4,0.1,0.6,0.2,0.9,0.3c0.1,0.2,0.5,0.4,1.1,0.5c0.5,0.5,1.1,0.8,1.7,1c0.3,0.1,0.7,0.1,1.1,0.1
				c0.4,0,0.9,0,1.3,0.1c0.8,0.2,1.4,0.5,2,0.8c0.6,0.3,1.2,0.6,2,0.8c5.4,1.6,10.7,3.2,16.1,5c5.3,1.7,10.7,3.7,15.9,5.5
				c1.6,0.6,3.3,1.2,5,1.9c1.6,0.7,3.3,1.3,4.9,1.9c1.1,0.4,2.1,0.7,3.1,1c1,0.3,2,0.6,3.1,1c0.8,0.3,1.2,0.7,1.3,1.4
				c0.1,0.7,0.1,1.2,0,1.4c0.1,0.7,0.1,1.3,0,1.9c-0.1,0.6-0.2,1.2-0.3,1.8c-0.9,2.4-1.3,3.6-2.1,6c-0.8,2.3-1.2,3.5-2.1,5.8
				c-0.4,1.1-1.1,1.9-2,2.2c-0.7,0.1-1.2,0.1-1.5,0c-0.1-0.1-0.3-0.1-0.6-0.1c-0.2,0-0.5-0.1-0.8-0.2c-1.2-0.3-2.5-0.6-3.8-1
				c-1.3-0.4-2.5-0.7-3.7-1.2c-1.2-0.4-2.4-0.9-3.6-1.5c-1.2-0.6-2.4-1-3.6-1.4c-2.2-0.7-4.5-1.4-6.9-1.9c-2.4-0.5-4.8-1.2-7.1-1.9
				c-5.2-1.6-10.3-3.4-15.3-5.3c-5-1.9-10.1-3.5-15.4-5c-1.7-0.5-3.4-0.9-5.2-1.3c-1.8-0.4-3.6-0.8-5.2-1.3c-0.2,0-0.3-0.1-0.5-0.1
				c-0.2,0-0.3-0.1-0.5-0.1c0,0.1-0.2,0.2-0.5,0.1c-0.3-0.1-0.4-0.1-0.7-0.2c-0.3-0.1-0.4-0.1-0.7-0.2c-2.3-0.9-4.6-1.7-6.9-2.3
				c-2.2-0.6-4.5-1.4-6.7-2.2c-0.3-0.2-0.4-0.2-0.6-0.4C785.2,249.3,785.1,249.2,785.1,249z M851.2,128.3c0-0.1,0-0.1,0.1-0.2
				c-0.2,0.1-0.6,0.1-1.1-0.1C850.6,128.1,850.8,128.2,851.2,128.3z"/>
		</g>
	</g>
	<g>
		<g>
			<path class="st1" d="M514.6,322.1c2.1,2.4,5.9,3.5,11.6,3.5h2.6c1.6,0,2.9-0.1,4.1-0.3c6.1-0.6,10.1-3.7,12-9.5l0.6-2.4
				c1.6-4.3,2.6-8.8,3.2-13.3l0.3-3.8c0-6.7-3.7-10.6-11.1-11.8c-2.5-0.6-5.1-0.9-7.6-0.9c-3.1,0-6.2,0.5-9.1,1.5
				c-1.4,0.4-2.5,0.9-3.5,1.6c-1,0.7-1.7,1.7-2.1,3.1c-0.4,1.4-0.9,2.8-1.5,4.1c-2,3.7-2.9,7.6-2.9,11.5l0.3,3.2
				C511.5,315.4,512.6,319.8,514.6,322.1z"/>
		</g>
		<g>
			<path class="st1" d="M923.3,404.6c-5.5,0-8.9,0.5-10.3,1.6c-1.4,1.1-2.3,3.1-2.9,6.1c-2.3,9.3-7.9,17.9-16.7,26
				C882,449.5,869.2,458.7,855,466c-0.8,0.4-1.5,0.6-2.1,0.6c-1.2,0-4.6-3.9-10.3-11.8c-3.7-4.7-6.9-8.7-9.7-11.8
				c-7.2-8.3-14.1-16.9-20.5-26c-15.1-21.1-22.6-44.3-22.6-69.7c0-20.9,4.7-38.4,14.1-52.6c1.4-2.2,2.4-3.2,3.2-3.2
				c0.8,0,1.7,1.1,2.6,3.2c3.5,7.3,5.3,14.8,5.3,22.4c0,2.2-0.6,9.1-1.8,20.7l-1.5,13c0,3.9,3.4,5.9,10.3,5.9
				c6.8,0,12.3-3.2,16.4-9.7c6.3-10.4,9.4-21.8,9.4-34c0-4.3-0.4-8.8-1.2-13.3c-2.7-20.3-16.3-30.4-40.8-30.4
				c-25.6,0-44.2,14.7-55.7,44c-6.3,15.6-9.4,31.7-9.4,48.4c0,17,3.8,33.2,11.4,48.4c-0.2,0.6-0.4,1.3-0.5,2.1
				c-2.3,9.3-7.9,17.9-16.7,26c-11.3,11.2-24.1,20.5-38.4,27.8c-0.8,0.4-1.5,0.6-2.1,0.6c-1.2,0-4.6-3.9-10.3-11.8
				c-3.7-4.7-6.9-8.7-9.7-11.8c-7.2-8.3-14.1-16.9-20.5-26c-15.1-21.1-22.6-44.3-22.6-69.7c0-20.9,4.7-38.4,14.1-52.6
				c1.4-2.2,2.4-3.2,3.2-3.2c0.8,0,1.7,1.1,2.6,3.2c3.5,7.3,5.3,14.8,5.3,22.4c0,2.2-0.6,9.1-1.8,20.7l-1.5,13
				c0,3.9,3.4,5.9,10.3,5.9c6.8,0,12.3-3.2,16.4-9.7c6.3-10.4,9.4-21.8,9.4-34c0-4.3-0.4-8.8-1.2-13.3
				c-2.7-20.3-16.3-30.4-40.8-30.4c-25.6,0-44.2,14.7-55.7,44c-6.3,15.6-9.4,31.7-9.4,48.4c0,18.7,4.6,36.4,13.8,52.9
				c-3.1,17.4-7.6,34.6-13.5,51.6c-6.3,17.9-15.7,33.9-28.4,47.9c-1.4,1.6-2.5,2.4-3.5,2.4c-1,0-2-1.2-2.9-3.5
				c-5.7-11.6-8.8-23.8-9.4-36.6c-0.8-12.6-1.2-25.2-1.2-37.8c0-19.3,1.6-38.6,4.7-57.9c0.4-2,0.7-3.9,0.9-5.9
				c1.4-5.7,2.1-11.4,2.1-17.1c-0.2-4.3-2.2-7.2-5.9-8.6c-3.9-1.6-8.1-2.4-12.6-2.4h-3.2c-10.4,0.8-16.9,3.5-19.6,8.3
				c-2.7,4.7-4.5,11.7-5.3,21c-0.4,3.5-0.9,7.4-1.5,11.5c-2.2,11.3-3.6,24.1-4.1,38.5c-6.9,32.2-16.1,60.9-27.8,85.8
				c-2.2,4.1-4.9,7.9-8.2,11.2c-0.8,0.8-1.5,1.2-2.1,1.2c-0.6,0-1.2-0.4-1.8-1.2c-2.5-2.8-4.7-5.8-6.5-9.2
				c-6.6-15-10.5-30.8-11.4-47.6c-1.4-16.3-2.3-32.8-2.9-49.3c-0.2-6.5-0.6-14.4-1.2-23.6c-0.8-37.8-7.5-61.5-20.2-71.2
				c-7.2-4.3-15.1-6.5-23.5-6.5c-9,0-17,2.3-24,6.8c-13.9,9.8-28.5,29.5-44,59.1c-1-30.7-7.5-50.8-19.6-60.3
				c-7.2-4.1-15-6.2-23.2-6.2c-9.2,0-17.2,2.2-24,6.5c-8.8,6.5-16.2,14.2-22.3,23l-12,18.6c0.6-6.7,1.1-13.3,1.5-19.9
				c0.4-6.6,0.9-13.1,1.5-19.6c0-12.2-7.4-18.3-22.3-18.3c-8.8,0-17.4,2.7-26,8c-8.5,5.3-13.5,13.4-15.1,24.2
				c-1.2,11.8-2.5,34.8-4.1,69c-1.6,34.2-2.3,64.3-2.3,90.5c0,17.9,0.6,30.4,1.8,37.5c1.8,6.7,8.7,10,20.8,10
				c13.9,0,20.8-3.4,20.8-10c0-16.9,3.2-37,9.7-60.3c13.9-49.6,30.7-89.9,50.4-120.8c4.5-6.9,10-13,16.4-18.3
				c2.3,4.3,3.7,8.9,4.1,13.6c3.9,26.2,6.3,50.9,7.2,74c0.9,23.1,3.6,51.7,8.1,85.8c1,5.7,3.2,9.9,6.6,12.6c3.4,2.7,7,4,10.7,4
				c3.7,0,7-1.1,10-3.4c2.9-2.3,4.5-5.5,4.7-9.6c0.8-18.9,3-39.5,6.7-61.9c3.7-22.3,9.7-43.8,18-64.2c8.3-20.5,19.9-37.2,34.8-50.2
				c5.1,9.5,8,31.3,8.8,65.6c0,54.5,7.5,92.9,22.6,115.2c11.1,14.6,24.4,21.9,39.9,21.9l4.7-0.3c10.2-0.6,17.8-5.3,22.9-14.2
				c6.4-11.5,12-24.1,16.9-37.6c3.1,12.6,8.2,23.1,15.4,31.6c7.8,9.2,19,14,33.4,14.6h1.2c9,0,17.7-3.8,26.1-11.5
				c13.3-14.4,23.1-30.7,29.3-49c3.9-11.1,7.1-22.3,9.7-33.7c3.3,4.1,6.7,8.2,10.3,12.1c7.6,7.7,16.9,18.4,27.9,32.2
				c0.8,0.8,1.2,1.5,1.2,2.1c0,0.6-0.6,1.2-1.8,1.8c-19.2,11-32.9,28.2-41.3,51.4c-2.9,8.3-4.4,16.8-4.4,25.7l0.3,7.1
				c1.2,13,7.1,23.3,17.9,31c8.8,5.3,18.4,8,28.7,8c4.9,0,9.5-0.6,13.8-1.8c11.3-3.7,20.5-9.6,27.4-17.6c6.9-8,12.6-17.2,16.9-27.8
				c4.3-10.5,6.5-21.5,6.5-32.9c0-17.3-4.1-32.7-12.3-46.1l-0.6-1.8c0-0.8,0.7-1.4,2.1-1.8c19.5-9.6,37-22.2,52.2-37.5
				c3.4-3.3,6.3-6.8,8.7-10.7c4.8,6.5,9.9,12.7,15.3,18.7c7.6,7.7,16.9,18.4,27.9,32.2c0.8,0.8,1.2,1.5,1.2,2.1
				c0,0.6-0.6,1.2-1.8,1.8c-19.2,11-32.9,28.2-41.3,51.4c-2.9,8.3-4.4,16.8-4.4,25.7l0.3,7.1c1.2,13,7.1,23.3,17.9,31
				c8.8,5.3,18.4,8,28.7,8c4.9,0,9.5-0.6,13.8-1.8c11.3-3.7,20.5-9.6,27.4-17.6c6.9-8,12.6-17.2,16.9-27.8
				c4.3-10.5,6.5-21.5,6.5-32.9c0-17.3-4.1-32.7-12.3-46.1l-0.6-1.8c0-0.8,0.7-1.4,2.1-1.8c19.5-9.6,37-22.2,52.2-37.5
				c7.4-7.1,12.5-15.7,15.3-25.7c0.6-2.4,0.9-4.3,0.9-5.9C931.8,406.6,929,404.6,923.3,404.6z M666.7,574.1
				c-3.7,7.1-8.9,13.1-15.5,18c-0.6,0.6-1.2,0.9-1.8,0.9c-1,0-1.9-0.5-2.6-1.5c-6.1-5.3-9.3-11.9-9.7-19.8l-0.6-7.4
				c0-9.8,2.9-20.7,8.8-32.5c4.5-9.5,10.4-17.8,17.6-25.1c0.8-0.8,1.4-1.2,1.8-1.2c0.6,0,1.2,0.6,1.8,1.8c4.1,9.8,6.2,21.9,6.2,36
				C672.5,553.8,670.6,564.1,666.7,574.1z M825,574.1c-3.7,7.1-8.9,13.1-15.5,18c-0.6,0.6-1.2,0.9-1.8,0.9c-1,0-1.9-0.5-2.6-1.5
				c-6.1-5.3-9.3-11.9-9.7-19.8l-0.6-7.4c0-9.8,2.9-20.7,8.8-32.5c4.5-9.5,10.4-17.8,17.6-25.1c0.8-0.8,1.4-1.2,1.8-1.2
				c0.6,0,1.2,0.6,1.8,1.8c4.1,9.8,6.2,21.9,6.2,36C830.9,553.8,828.9,564.1,825,574.1z"/>
		</g>
	</g>
	<g>
		<g>
			<path class="st2" d="M441.9,768.4c-7.2,0-13.6-1.4-19-4.2c-5.4-2.8-10.1-6.6-14-11.3c-3.9-4.8-7-10.1-9.5-16
				c-2.5-5.9-4.3-12.1-5.5-18.5c-1.2-6.4-1.8-12.6-2-18.8v-2.8c0-8,1-15.9,3-23.8c2-7.9,5.1-15.1,9.3-21.6
				c4.1-6.5,9.3-11.7,15.6-15.7c6.3-3.9,13.6-5.9,22-5.9c5.7,0,11.1,1.2,16.2,3.6c5.1,2.4,9.4,5.8,13.1,10.2
				c2.4,2.8,3.6,5.9,3.6,9.4c0,4.1-1.6,7.8-4.9,10.9c-3.2,3.1-6.9,4.7-11.1,4.7c-2.2,0-4.3-0.5-6.2-1.6c-1.9-1.1-3.6-2.5-5-4.2
				c-1.4-1.7-3.3-2.6-5.8-2.6c-7.2,0-12.4,5.1-15.7,15.4c-2.4,7.6-3.6,15.6-3.6,24.1c0,8.3,1.2,16.2,3.7,23.5
				c3.3,9.7,8.5,14.6,15.6,14.6c2.5,0,4.4-0.9,5.8-2.8c3.1-3.7,6.8-5.6,11.2-5.6c4.1,0,7.8,1.5,11.1,4.6c3.3,3.1,4.9,6.7,4.9,10.9
				c0,3.6-1.2,6.8-3.7,9.5C463,763.8,453.2,768.4,441.9,768.4z"/>
		</g>
		<g>
			<path class="st2" d="M521.6,768.4c-8.1,0-15-1.8-20.8-5.3c-5.8-3.5-10.6-8.3-14.3-14.1c-3.7-5.9-6.5-12.3-8.3-19.4
				c-1.8-7.1-2.7-14.2-2.7-21.5c0-7.1,0.9-14.2,2.7-21.5c1.8-7.2,4.7-13.8,8.5-19.7c3.8-5.9,8.7-10.7,14.6-14.4
				c5.9-3.7,13-5.5,21.1-5.5c8.1,0,15,1.8,20.8,5.5c5.8,3.7,10.5,8.5,14.2,14.5c3.7,6,6.4,12.5,8.2,19.6c1.8,7.1,2.6,14.1,2.6,21
				c0,7-0.9,14.1-2.8,21.3c-1.9,7.2-4.7,13.7-8.5,19.6c-3.8,5.9-8.6,10.6-14.5,14.3C536.5,766.6,529.6,768.4,521.6,768.4z
				 M521.6,738c5.9,0,10.2-3.8,12.9-11.5c2.1-5.9,3.2-12.2,3.2-18.9c0-6.4-1-12.5-3-18.3c-2.7-7.8-6.9-11.7-12.5-11.7
				c-5.9,0-10.3,3.8-13.1,11.5c-2.2,5.9-3.3,12.2-3.3,18.9c0,6.6,1,12.8,3,18.6C511.4,734.2,515.7,738,521.6,738z"/>
		</g>
		<g>
			<path class="st2" d="M632.1,768.4c-1.5,0-3.1-0.2-4.7-0.6c-10.6-3.2-18.3-8-22.9-14.5c-4.7-6.5-7.6-14.1-8.7-22.7
				c-1.1-8.1-1.7-16.7-1.7-25.6v-1.6l-0.3-11.9h-6.9c-4.5,0-8.2-1.4-10.9-4.3c-2.7-2.9-4.1-6.5-4.1-11c0-4.3,1.4-7.9,4.1-10.8
				c2.8-2.9,6.4-4.3,10.9-4.3h6.1c-0.1-3.2-0.2-6.4-0.3-9.6c-0.3-5.3-0.4-10.6-0.4-16c0-4.5,1.4-8.1,4.3-11c2.9-2.9,6.5-4.3,11-4.3
				c4.3,0,7.9,1.3,10.6,4c2.8,2.7,4.2,6.2,4.4,10.7l0.7,26.3h6.9c4.5,0,8.2,1.4,11,4.3c2.8,2.9,4.1,6.5,4.1,11
				c0,4.3-1.4,7.9-4.2,10.8c-2.8,2.9-6.4,4.3-10.9,4.3h-6.1c0.3,6.6,0.4,11.6,0.4,15.1c0,4.8,0.2,9.2,0.6,13.4
				c1,10.3,4.5,16.5,10.4,18.5c7.2,2.4,10.8,7.1,10.8,14.2c0,4-1.3,7.6-4,10.9C639.8,766.8,636.3,768.4,632.1,768.4z"/>
		</g>
		<g>
			<path class="st2" d="M713.5,768.4c-1.5,0-3.1-0.2-4.7-0.6c-10.6-3.2-18.3-8-22.9-14.5c-4.7-6.5-7.6-14.1-8.7-22.7
				c-1.1-8.1-1.7-16.7-1.7-25.6v-1.6l-0.3-11.9h-6.9c-4.5,0-8.2-1.4-10.9-4.3c-2.7-2.9-4.1-6.5-4.1-11c0-4.3,1.4-7.9,4.1-10.8
				c2.8-2.9,6.4-4.3,10.9-4.3h6.1c-0.1-3.2-0.2-6.4-0.3-9.6c-0.3-5.3-0.4-10.6-0.4-16c0-4.5,1.4-8.1,4.3-11c2.9-2.9,6.5-4.3,11-4.3
				c4.3,0,7.9,1.3,10.6,4c2.8,2.7,4.2,6.2,4.4,10.7l0.7,26.3h6.9c4.5,0,8.2,1.4,11,4.3c2.8,2.9,4.1,6.5,4.1,11
				c0,4.3-1.4,7.9-4.2,10.8c-2.8,2.9-6.4,4.3-10.9,4.3h-6.1c0.3,6.6,0.4,11.6,0.4,15.1c0,4.8,0.2,9.2,0.6,13.4
				c1,10.3,4.5,16.5,10.4,18.5c7.2,2.4,10.8,7.1,10.8,14.2c0,4-1.3,7.6-4,10.9C721.3,766.8,717.8,768.4,713.5,768.4z"/>
		</g>
		<g>
			<path class="st2" d="M779.6,768.4c-8.1,0-15-1.8-20.8-5.3c-5.8-3.5-10.6-8.3-14.3-14.1c-3.7-5.9-6.5-12.3-8.3-19.4
				c-1.8-7.1-2.7-14.2-2.7-21.5c0-7.1,0.9-14.2,2.7-21.5c1.8-7.2,4.7-13.8,8.5-19.7c3.8-5.9,8.7-10.7,14.6-14.4
				c5.9-3.7,13-5.5,21.1-5.5c8.1,0,15,1.8,20.8,5.5c5.8,3.7,10.5,8.5,14.2,14.5c3.7,6,6.4,12.5,8.2,19.6c1.8,7.1,2.6,14.1,2.6,21
				c0,7-0.9,14.1-2.8,21.3c-1.9,7.2-4.7,13.7-8.5,19.6c-3.8,5.9-8.6,10.6-14.5,14.3C794.5,766.6,787.6,768.4,779.6,768.4z
				 M779.6,738c5.9,0,10.2-3.8,12.9-11.5c2.1-5.9,3.2-12.2,3.2-18.9c0-6.4-1-12.5-3-18.3c-2.7-7.8-6.9-11.7-12.5-11.7
				c-5.9,0-10.3,3.8-13.1,11.5c-2.2,5.9-3.3,12.2-3.3,18.9c0,6.6,1,12.8,3,18.6C769.5,734.2,773.7,738,779.6,738z"/>
		</g>
		<g>
			<path class="st2" d="M909.1,768.4c-4.3,0-8-1.4-10.9-4.1c-2.9-2.7-4.4-6.3-4.4-10.8c0-5.4,0.1-10.9,0.4-16.5
				c0.2-5.6,0.4-11.3,0.4-17.1c0-29.9-3.1-44.9-9.4-44.9c-2.8,0-5,1.9-6.8,5.8c-1.8,3.9-3.1,8.8-4.1,14.6c-1,5.8-1.7,11.8-2.2,18
				c-0.5,6.2-0.8,11.8-0.9,16.7c-0.1,5-0.2,8.3-0.2,10.1l0.1,12.7c0,4.5-1.4,8.2-4.3,11.1c-2.9,2.8-6.5,4.2-11,4.2
				c-4.3,0-7.8-1.3-10.6-4c-2.8-2.7-4.3-6.2-4.5-10.7l-1.9-94c0-4.3,1.5-7.9,4.5-10.8c3-2.9,6.6-4.3,10.8-4.3c4.8,0,8.7,2,11.8,5.9
				c6.2-4,12.7-6,19.5-6c9.5,0.2,17,2.8,22.3,7.9c5.4,5.1,9.3,11.5,11.7,19.4c2.4,7.9,3.9,16.2,4.4,25c0.6,8.8,0.8,16.9,0.8,24.2
				c0,4.9-0.1,9.8-0.3,14.7c-0.2,4.9-0.3,9.9-0.3,14.9v2.7c0,4.4-1.4,8-4.3,10.8C917.1,767.1,913.5,768.4,909.1,768.4z"/>
		</g>
	</g>
	<g>
		<g>
			<path class="st0" d="M492.7,957.3c-1.5-0.8-2.2-1.9-2.2-3.2v-15.9v-0.7c0-0.2,0.1-0.3,0.2-0.5v-0.5v-0.2v-0.7
				c0-0.3,0-0.5-0.1-0.6c-0.1-0.1-0.1-0.2-0.1-0.4v-0.7l0.5-0.5c-0.2-0.2-0.2-0.6-0.2-1.2c0-0.5,0.1-0.7,0.2-0.7
				c0-0.2,0.1-0.3,0.2-0.5l0.5-0.5V930v-1.2v-1.5c0-6.4-0.2-12.9-0.6-19.3c-0.4-6.4-0.6-12.8-0.6-19.1v-1.2h0.7
				c-0.2-0.3-0.3-0.7-0.5-1c-0.2-0.3-0.2-0.7-0.2-1c0-6.9,0-13.7-0.1-20.2c-0.1-6.5-0.1-13.2-0.1-20c0-2.3,0-4.5,0.1-6.7
				c0.1-2.1,0.1-4.4,0.1-6.7c0-0.8-0.1-1.6-0.2-2.4c-0.2-0.7-0.2-1.5-0.2-2.4c0-0.3,0-0.5,0.1-0.6c0.1-0.1,0.1-0.2,0.1-0.4v-0.7
				c0.2-0.2,0.2-0.4,0.2-0.7v-0.5c0-0.3,0-0.7-0.1-1.2c-0.1-0.5-0.1-0.9-0.1-1.2v-6.7h-0.7c-0.3,0-0.5-0.1-0.5-0.2h-0.7
				c-0.3-0.2-0.7-0.3-1-0.4c-0.3-0.1-0.7-0.3-1-0.6c-0.2,0.2-0.2,0.3-0.2,0.4c0,0.1-0.1,0.2-0.2,0.4l-0.2,0.5h-0.7
				c-4.3,0-8.6,0-12.9-0.1c-4.3-0.1-8.6-0.1-12.9-0.1c-1.3,0-2.6,0.1-3.8,0.2c-1.2,0.2-2.5,0.2-3.8,0.2c-1.8,0-3.6,0-5.5-0.1
				c-1.8-0.1-3.6,0-5.5,0.1h-1.2v-1.2c0-2.1,0-4.3-0.1-6.6c-0.1-2.2-0.1-4.5-0.1-6.8c0-2.3,0-4.6,0.1-6.8c0.1-2.2,0.1-4.4,0.1-6.6
				v-1.5l1.5,0.2c0.7,0.2,1.2,0.3,1.7,0.4c0.5,0.1,1.1,0.1,1.7,0.1c1,0,2-0.1,3-0.2c1-0.2,2-0.2,3-0.2c1.3,0,2.6,0,3.7,0.1
				c1.2,0.1,2.3,0.1,3.5,0.1c10.4,0,20.6-0.1,30.6-0.2c10-0.2,20.2-0.2,30.6-0.2c1.3,0,2.7,0,4.1,0.1c1.4,0.1,2.8,0.1,4.1,0.1
				c6.4,0,12.9,0,19.5-0.1c6.5-0.1,13.2-0.1,20-0.1c0.5,0,1,0,1.5,0.1c0.5,0.1,1.1,0.1,1.7,0.1l1,0.2v8.7l-0.2,0.2h0.2l0.2,0.5
				c0,0.2,0,0.2,0.1,0.2c0.1,0,0.1,0.1,0.1,0.2v0.7v0.5v1.7c0,1.3,0.1,2.7,0.2,4.1c0.2,1.4,0.2,2.8,0.2,4.1c0,1.2-0.2,2.2-0.7,3.2
				c0.5,0.2,0.7,0.7,0.7,1.7c0,0.5-0.2,0.9-0.5,1.2l-0.2,0.7h-0.7c-1.3,0.2-2.7,0.3-4.1,0.5c-1.4,0.2-2.9,0.2-4.3,0.2
				c-1,0-1.9-0.1-2.9-0.2c-0.9-0.2-1.9-0.2-2.9-0.2c-2.8,0-5.5,0-8.2,0.1c-2.6,0.1-5.4,0.1-8.2,0.1l-0.2,0.2h-0.5
				c-0.2,0.2-0.4,0.2-0.7,0.2c-0.3,0.2-0.7,0.2-1,0.2c-0.7,0-1.3-0.2-2-0.5c-0.2,0-0.3,0-0.4-0.1c-0.1-0.1-0.2-0.1-0.4-0.1h-9.7
				c0,0.3,0,0.6-0.1,0.9c-0.1,0.2-0.1,0.5-0.1,0.9c0,1,0.1,1.9,0.2,2.9c0.2,0.9,0.2,1.9,0.2,2.9c0,0.5-0.1,0.8-0.2,1
				c0,0.5-0.1,0.8-0.2,1v0.5c-0.2,0.2-0.2,0.3-0.2,0.5c0,1.3,0.2,2.7,0.5,4.1c0.3,1.4,0.5,2.9,0.5,4.3c0,2.8,0,5.6,0.1,8.3
				c0.1,2.7,0.1,5.4,0.1,8.1v0.5c0.2,0.2,0.2,0.7,0.2,1.5c0,0.8-0.3,1.9-1,3.2c0.3,0.8,0.5,2.1,0.5,3.7c0,1-0.1,1.9-0.2,2.9
				c-0.2,0.9-0.2,1.8-0.2,2.6c0,2,0.1,3.9,0.4,5.8c0.2,1.9,0.4,3.8,0.4,5.8c0,0.7-0.1,1.1-0.2,1.2c0,0.5-0.1,0.9-0.2,1.2
				c-0.2,0.3-0.2,0.7-0.2,1l0.5,1v0.2c0,4.1,0,8.3,0.1,12.4c0.1,4.1,0.1,8.3,0.1,12.6c0,1.2-0.1,2.2-0.2,3.2c-0.2,1-0.2,2.1-0.2,3.2
				v6.2c0,0.2,0.2,0.6,0.5,1.2c0,0.5,0.1,0.8,0.2,1v1c0,0.3,0,0.7-0.1,1.2c-0.1,0.5-0.1,0.9-0.1,1.2c0,0.8,0,1.8,0.1,2.9
				c0.1,1.1,0.1,2.1,0.1,3.1c0,2-0.2,3.9-0.7,5.7v0.2c0.2,0.2,0.2,0.3,0.2,0.5c0,0.2,0.1,0.3,0.2,0.5c0,0.3,0,0.7,0.1,1.2
				c0.1,0.5,0.1,1,0.1,1.5v4.7c0,1.3,0,2.6-0.1,3.8c-0.1,1.2-0.1,2.5-0.1,3.8v0.5l-0.2,0.2l0.2,0.2c0.3,0.3,0.5,0.7,0.5,1.2
				c0,0.7-0.3,1.1-1,1.2l-1,0.5c-0.5,0-1.2,0.2-2.2,0.5c-0.8,0.2-1.7,0.3-2.5,0.4c-0.8,0.1-1.4,0.1-1.7,0.1c-3,0.2-5.9,0.3-8.9,0.4
				c-3,0.1-5.9,0.1-8.9,0.1c-1,0-1.7-0.1-2.2-0.2c-0.5,0-1.2-0.2-2-0.7c-0.2,0-0.3,0.1-0.5,0.2h-1l-0.5,0.2H492.7z"/>
		</g>
		<g>
			<path class="st0" d="M565.8,953.8l0.7-0.7c0.5,0,1-0.4,1.5-1.2c0.3-0.3,0.7-0.5,1-0.5v-0.2v-0.2c0-0.3,0-0.5,0.1-0.6
				c0.1-0.1,0.1-0.3,0.1-0.6c0-0.5,0-0.9,0.1-1.2c0.1-0.3,0.1-0.6,0.1-0.7c0.5-2.1,1-4.3,1.6-6.4c0.6-2.1,1.1-4.2,1.6-6.2
				c0.3-0.8,0.6-1.6,0.9-2.2c0.2-0.7,0.5-1.4,0.6-2.2c0.3-0.8,0.6-1.5,0.9-2c0.2-0.5,0.5-1.2,0.6-2c0.8-3.6,1.7-7.2,2.7-10.7
				c1-3.5,2-6.9,3-10.2c0.3-1.3,0.7-2.6,1-3.8c0.3-1.2,0.7-2.5,1-3.8l3.7-10.9c1.3-4.8,2.6-9.5,3.8-14.1c1.2-4.6,2.6-9.3,4.1-13.9
				c0.7-1.8,1.1-3.6,1.4-5.2c0.2-1.7,0.6-3.3,1.1-5c1.2-2.8,2.1-5.9,2.7-9.2c0.5-1.7,0.9-3.2,1.4-4.7c0.4-1.5,0.9-2.8,1.4-4
				c0.3-0.7,0.5-1.2,0.5-1.5c0.3-0.3,0.5-0.7,0.5-1c0-0.3,0.1-0.7,0.2-1c0-1.7,0.3-3.1,1-4.5c0.5-0.5,0.7-1.1,0.7-1.7
				c0-1.2,0.1-2,0.2-2.5c0.7-2.8,1.4-5.5,2.4-8.1c0.9-2.6,1.8-5.2,2.6-8.1c0.7-2.3,1.2-4.5,1.7-6.7c0.5-2.1,1-4.2,1.5-6.2
				c0.7-1.8,1.4-2.9,2.2-3.2c0.3-0.2,0.9-0.2,1.7-0.2c0.2-0.2,0.7-0.2,1.7-0.2c2.3-0.2,4.6-0.4,6.9-0.7c2.3-0.3,4.6-0.5,6.9-0.5
				h16.6c4.1,0,8.2,0.2,12.1,0.7c1.3,0.2,2.6,0.2,3.7,0.1c1.2-0.1,2.4-0.1,3.7-0.1h0.7l0.2,1c0.5,1.7,1.2,3.5,2,5.5
				c0.3,1,0.6,2,0.7,3.1c0.2,1.1,0.2,2,0.2,2.9c0.5,3,1.2,5.9,2.2,8.7c0.8,2,1.5,4,2.1,6c0.6,2,1,4.1,1.4,6.4
				c0.8,4.3,1.9,8.6,3.1,12.9c1.2,4.3,2.4,8.6,3.3,12.9l0.2,1l-0.7,0.2l1.2,0.7v0.5c0.3,1.2,0.5,2.2,0.6,3.2c0.1,1,0.2,2.1,0.4,3.2
				c0.3,1.3,0.6,2.5,0.7,3.5c0.2,1,0.4,2,0.7,3l0.5,0.7c0.2,0.5,0.5,1.8,1.1,3.8c0.6,2.1,1.2,4.3,1.9,6.7c0.7,2.4,1.3,4.6,1.9,6.6
				c0.6,2,0.9,3.1,0.9,3.5c0,1.7,0.5,3,1.5,4l0.5,0.2v0.5c0.5,3,1.1,6,1.7,8.9c0.7,3,1.3,6,2,9.2c0.5,3,1.3,5.9,2.5,8.7
				c0.8,2,1.4,4,1.6,6.1c0.2,2.1,0.4,4.1,0.4,6.1c0.8,1,1.3,1.8,1.5,2.5c0.2,0.7,0.3,1.3,0.5,2v2c0.2,0.3,0.2,0.6,0.2,0.9
				c0,0.2,0.2,0.5,0.5,0.9c0.3,1.3,0.7,2.5,1.1,3.5c0.4,1,0.8,2.2,1.1,3.5c0.3,0.8,0.5,1.6,0.6,2.2c0.1,0.7,0.2,1.3,0.4,2
				c0.2,1,0.7,2.2,1.7,3.5l0.2,0.5l-0.2,0.5c-0.2,0.2-0.2,0.6-0.2,1.2c0,0.5,0,1,0.1,1.6c0.1,0.6,0.1,1.1,0.1,1.6
				c0,2.5-1.2,3.7-3.5,3.7c-0.8,0-1.6-0.1-2.2-0.2c-0.7-0.2-1.4-0.2-2.2-0.2c-1.3,0-2.6,0-3.8,0.1c-1.2,0.1-2.4,0.1-3.6,0.1H692
				c-1,0-2,0-3.1,0c-1.1,0-2,0.2-2.9,0.5h-1c-0.2,0.2-0.4,0.2-0.7,0.2c-3,0-4.9-1.4-5.7-4.2c-0.7-2.3-1.2-4.5-1.5-6.7
				c-0.3-2.1-0.8-4.4-1.5-6.7c-1.2-4.3-2.4-8.5-3.6-12.6c-1.2-4.1-2.3-8.4-3.1-12.9c-0.8-0.2-1.6-0.2-2.4-0.2s-1.5,0-2.4,0
				c-0.8,0.2-1.8,0.2-2.9,0.2c-1.1,0-2.1,0-3.1,0c-4.8,0-9.6-0.1-14.5-0.2c-4.9-0.2-9.7-0.2-14.5-0.2h-14.1
				c-0.5,1.3-1.4,4.2-2.9,8.7c-1.4,4.5-2.9,9.1-4.3,13.9c-1.5,4.8-2.8,9.2-3.8,13.1c-1.1,4-1.6,6.1-1.6,6.4v0.7l-0.7,0.2
				c-1.3,0.7-2.6,1.1-4,1.2c-1.3,0.2-2.6,0.2-4,0.2c-1.3,0-2.6,0-4-0.1c-1.3-0.1-2.6-0.1-4-0.1c-2.2,0-4.3,0.1-6.4,0.2
				c-2.2,0.2-4.4,0.2-6.7,0.2c-1.7,0-2.9-0.5-3.7-1.5c-0.3-0.3-0.6-0.6-0.7-0.7c-0.2-0.2-0.3-0.3-0.5-0.5c-0.7-0.7-1.1-1.2-1.2-1.5
				L565.8,953.8z M641.2,818.7v1c0,1.5-0.4,3.4-1.2,5.8c-0.8,2.4-1.4,4.3-1.7,5.6c-0.7,1.8-1.2,3.7-1.5,5.6
				c-0.3,1.9-0.8,3.8-1.5,5.6c-0.5,1.3-1,2.6-1.4,3.7c-0.4,1.2-0.8,2.4-1.1,3.7c-0.3,1.2-0.6,2.3-0.7,3.3c-0.2,1.1-0.2,2.3-0.2,3.6
				c0,0.5-0.2,1-0.7,1.5c-0.3,0.7-0.6,1.2-0.9,1.6c-0.2,0.4-0.5,0.9-0.6,1.4c0,0.7-0.1,1.2-0.2,1.5c0,0.5-0.2,1.2-0.5,2.2
				c-0.3,0.5-0.6,1.1-0.7,1.7c-0.2,0.7-0.3,1.3-0.5,2c-0.2,0.5-0.3,1.1-0.4,1.7c-0.1,0.7-0.3,1.4-0.6,2.2c-0.3,1.5-0.6,2.9-0.9,4.3
				c-0.2,1.4-0.7,2.7-1.4,3.8c-0.2,0.3-0.4,0.7-0.6,1c-0.2,0.3-0.5,0.7-0.6,1c-0.2,0.5-0.2,1.1-0.2,1.7v1.5v0.7c0,0.2,0,0.3-0.1,0.5
				c-0.1,0.2-0.1,0.3-0.1,0.5c-0.5,0.7-0.7,1.3-0.7,2c-0.3,0.5-0.5,1-0.6,1.4c-0.1,0.4-0.3,0.9-0.6,1.4c1.2,0.2,2.3,0.3,3.5,0.4
				c1.2,0.1,2.4,0.1,3.7,0.1c1.8,0,3.6,0,5.5-0.1c1.8-0.1,3.6-0.1,5.5-0.1c1.8-0.2,3.6-0.2,5.3-0.2s3.3,0,4.6,0
				c1.2,0.2,2.2,0.3,3.1,0.4c0.9,0.1,1.8,0.3,2.6,0.6c0.7-0.3,1.3-0.5,1.9-0.5c0.6,0,1.2-0.1,1.9-0.2c0.7,0,1.2,0,1.7,0.1
				c0.5,0.1,1.2,0.1,2,0.1h1.2c-2.6-13.4-5.8-26.5-9.5-39.4c-3.7-12.9-7.2-25.9-10.3-39.2c-0.2,0.2-0.2,0.3-0.2,0.5
				c-0.2,1-0.5,1.9-1,2.7v0.5L641.2,818.7z"/>
		</g>
		<g>
			<path class="st0" d="M742.6,934l0.5-0.7h0.2c-0.3-0.7-0.5-1.2-0.5-1.5c0-0.3,0-0.6,0.1-0.7c0.1-0.2,0.1-0.3,0.1-0.5l-0.5-1.7
				l0.5-0.5l0.5-0.5h-0.2c-0.5-0.5-0.7-1.2-0.7-2c0-5.5,0-10.9,0.1-16.2c0.1-5.4,0.1-10.8,0.1-16.2c0-0.8,0-1.6,0.1-2.4
				c0.1-0.7,0.1-1.4,0.1-2.1v-1.2h0.5l-0.5-0.5c-0.2-0.3-0.2-0.7-0.2-1.2c0-8.3,0-16.4-0.1-24.3c-0.1-7.9-0.1-16-0.1-24.1
				c0-1.2,0.1-2.2,0.2-3.2c0.2-1,0.2-2.1,0.2-3.2c0-0.3-0.1-0.8-0.2-1.4c-0.2-0.6-0.2-1.2-0.2-1.9c0-0.3,0.1-0.7,0.2-1.2
				c0.2-0.5,0.2-1,0.2-1.5c0-1.2-0.2-2.3-0.5-3.5c-0.3-1.2-0.5-2.3-0.5-3.5c0-0.3,0.1-0.7,0.2-1.1c0.2-0.4,0.3-0.8,0.5-1.1v-0.5
				v-0.7c-0.2-0.2-0.2-0.4-0.2-0.7v-0.7c-0.3-0.3-0.5-0.7-0.5-1.2c0-1,0.1-2.1,0.4-3.2c0.2-1.2,0.4-2.4,0.4-3.7c0-2-0.1-4-0.4-6
				c-0.2-2-0.4-4-0.4-6v-1.7v-1.2c0-1.3,0.7-2.6,2.2-3.7l0.2-0.2h5c1,0,2,0,3,0.1c1,0.1,2,0.1,3,0.1c2.5,0,5-0.1,7.7-0.2
				c2.6-0.2,5.3-0.2,7.9-0.2c1.2,0,2.2,0.2,3.2,0.7c0.8,0,1.6,0.2,2.2,0.7c0.2,0.2,0.4,0.4,0.6,0.7c0.2,0.3,0.4,0.7,0.4,1
				c0,0.3,0,0.5-0.1,0.6c-0.1,0.1-0.1,0.3-0.1,0.6c0,0.3-0.1,0.6-0.2,0.7v0.2l-0.2,0.5c0,0.3,0,0.7,0.1,1.2c0.1,0.5,0.1,0.9,0.1,1.2
				c0,2.6,0,5.2-0.1,7.8c-0.1,2.6-0.1,5.2-0.1,7.8v0.2c0,0.2,0.1,0.3,0.2,0.5v0.2v0.7v0.5l-1,1c0,0.5,0.1,1,0.2,1.5
				c0.2,0.5,0.3,1,0.5,1.5c0.2,0.8,0.2,1.5,0.2,2.1c0,0.6,0,1.3,0,2.1c0,1.3,0,2.6-0.1,4c-0.1,1.3-0.1,2.6-0.1,4
				c0,3.6,0.1,7.3,0.2,10.9c0.2,3.6,0.2,7.3,0.2,10.9v0.2c0.2,0.3,0.3,0.6,0.5,0.9c0.2,0.2,0.2,0.5,0.2,0.9c0,0.3-0.1,0.7-0.2,1
				c-0.2,0.3-0.3,0.7-0.5,1c0,0.2-0.2,0.6-0.5,1.2c0.3,1.7,0.5,2.9,0.5,3.7c0,1-0.1,1.9-0.2,2.9c-0.2,0.9-0.2,1.8-0.2,2.6
				c0,1.8,0.1,3.7,0.2,5.6c0.2,1.9,0.2,3.8,0.2,5.6v1c0,0.3,0,0.5-0.1,0.6c-0.1,0.1-0.1,0.2-0.1,0.4c0,0.3,0,0.6-0.1,0.7
				c-0.1,0.2-0.1,0.4-0.1,0.7v0.2c0,0.2,0.1,0.3,0.2,0.5v0.5v0.7c0,2,0,3.9,0.1,5.8c0.1,1.9,0.1,3.8,0.1,5.6v0.5l-0.7,1l0.7,1.7v0.2
				v6.7v13.4c0,1,0,2,0.1,3c0.1,1,0.1,2.1,0.1,3.2c0,2,0,3.9-0.1,5.8c-0.1,1.9-0.1,3.8-0.1,5.8v1c-0.2,0-0.2,0.2-0.2,0.5l-0.2,0.2
				c0,1.5,0.1,3.1,0.4,4.7c0.2,1.7,0.4,3.4,0.4,5.2c0,1.5,0,3-0.1,4.6c-0.1,1.6-0.1,3.2-0.1,4.8v1l-0.7,0.2
				c-4.3,0.7-8.4,1.1-12.4,1.2c-4,0.2-8,0.2-12.1,0.2c-0.7,0-1.4,0-2.1-0.1c-0.7-0.1-1.5-0.4-2.4-0.9h-0.2c-0.5,0.2-1,0.2-1.5,0.2
				c-1.2,0-2.1-0.5-2.7-1.5c-0.3-1.3-0.5-2.2-0.5-2.7c0-0.8,0-1.7,0.1-2.6c0.1-0.9,0.1-1.5,0.1-1.9v-8.9c0-1,0.1-1.7,0.2-2.2
				c0-0.2,0-0.3,0.1-0.4c0.1-0.1,0.1-0.2,0.1-0.4v-0.5v-0.2l-0.5-1L742.6,934z"/>
		</g>
		<g>
			<path class="st0" d="M818.2,928.3l1.2-1.2c0.2,0,0.2-0.1,0.2-0.2c-0.3-0.3-0.5-1.1-0.5-2.2v-32.7c0-0.8,0-1.5,0.1-2.1
				c0.1-0.6,0.1-1.3,0.1-2.1v-1.2h0.5c-0.5-0.5-0.7-1.2-0.7-2c0-6.9,0-13.7-0.1-20.3c-0.1-6.6-0.1-13.3-0.1-20.1
				c0-2.3,0-4.6,0.1-6.8c0.1-2.2,0.1-4.5,0.1-6.8c0-0.7,0-1.4-0.1-2.1c-0.1-0.7-0.1-1.5-0.1-2.4c0-0.5,0-1,0.1-1.5
				c0.1-0.5,0.1-1,0.1-1.5c0-1-0.1-2-0.4-3c-0.2-1-0.4-2-0.4-3c0-0.3,0.1-0.7,0.2-1.1c0.2-0.4,0.3-0.8,0.5-1.1v-0.5
				c0-0.5,0-1-0.1-1.6c-0.1-0.6-0.1-1.1-0.1-1.6c0-1,0-2,0.1-3.1c0.1-1.1,0.1-2.3,0.1-3.6c0-1.8-0.1-3.7-0.4-5.6
				c-0.2-1.9-0.4-3.8-0.4-5.6v-1c0.3,0,0.5-0.2,0.5-0.5l0.2-0.2v-0.2H819c0-0.3-0.2-0.5-0.5-0.5v-1c0-2,0.8-3.5,2.5-4.5l0.2-0.2h0.2
				c2,0,3.9,0.1,5.8,0.2c1.9,0.2,3.8,0.2,5.6,0.2c2.5,0,5-0.1,7.4-0.4c2.5-0.2,5-0.4,7.4-0.4c0.8,0,1.9,0.2,3.2,0.5
				c0.5,0.2,1.1,0.5,1.7,1c0.7,0.5,1,1.2,1,2c0,1-0.1,1.7-0.2,2.2c-0.2,0.3-0.2,0.7-0.2,1.2v2.2v8.7c0,0.8-0.1,1.5-0.2,2
				c0.2,0.3,0.2,0.8,0.2,1.5c0,0.7,0,1.4,0,2.2c0,0.8,0,1.8,0,3l-0.2,0.5h-0.5v0.2c-0.2,0-0.2,0.1-0.2,0.2c1,3,1.5,6,1.5,8.9
				c0,0.3,0,0.5-0.1,0.6c-0.1,0.1-0.1,0.2-0.1,0.4c0,0.5-0.1,0.8-0.2,1v1v1.7c0.2,0.5,0.2,1.2,0.2,2c0,0.8,0,1.6-0.1,2.2
				c-0.1,0.7-0.1,1.4-0.1,2.2c0,1,0,2,0.1,3c0.1,1,0.1,2,0.1,3v5.5c0,1.5,0.2,2.9,0.5,4.2c0.3,1.3,0.5,2.6,0.5,4
				c0,0.3-0.1,0.5-0.2,0.6c-0.2,0.1-0.2,0.2-0.2,0.4c0,0.3,0,0.5-0.1,0.6c-0.1,0.1-0.1,0.2-0.1,0.4c0,0.2,0,0.3-0.1,0.5
				c-0.1,0.2-0.1,0.4-0.1,0.7c0,1.3,0,2.7-0.1,4.1c-0.1,1.4-0.1,2.8-0.1,4.1c0,2,0.1,3.9,0.2,5.8c0.2,1.9,0.2,3.8,0.2,5.8v1
				c0,0.3,0,0.5-0.1,0.6c-0.1,0.1-0.1,0.2-0.1,0.4c0,0.3,0,0.6-0.1,0.7c-0.1,0.2-0.1,0.4-0.1,0.7v0.5c0.2,0.2,0.2,0.4,0.2,0.7
				c0,0.3,0.1,0.6,0.2,0.7v1c0,0.7,0,1.3-0.1,1.9c-0.1,0.6-0.1,1.2-0.1,1.9c0,0.8,0,1.7,0.1,2.6c0.1,0.9,0.1,1.8,0.1,2.6v0.5
				c0,0.2-0.1,0.3-0.2,0.5v0.2c0,0.2-0.2,0.6-0.5,1.2h0.7v15.9c0,1.2,0,2.3-0.1,3.5c-0.1,1.2-0.1,2.4-0.1,3.7c0,1.2,0.1,2.3,0.2,3.3
				c0.2,1.1,0.2,2.2,0.2,3.3c0,1,0,2-0.1,3c-0.1,1-0.1,1.9-0.1,2.7c0,0.3,0,0.7,0.1,1.1c0.1,0.4,0.1,0.8,0.1,1.1
				c2,0.2,4,0.3,6.1,0.4c2.1,0.1,4.1,0.1,6.1,0.1c1.3,0,2.5,0,3.6-0.1c1.1-0.1,2.3-0.1,3.6-0.1c2.3,0,4.7,0.1,7.1,0.4
				c2.4,0.2,4.8,0.4,7.1,0.4c5.3,0,10.6-0.2,15.9-0.6c5.3-0.4,10.6-0.6,15.9-0.6c4.1,0,6.8,1,7.9,3c0.3,0.7,0.5,1.7,0.5,3.2v4.5
				c0,1,0.2,1.7,0.5,2.2c0,0.3,0,0.6,0.1,0.7c0.1,0.2,0.1,0.4,0.1,0.7v1.5c0,0.2,0,0.7-0.1,1.5c-0.1,0.8-0.2,1.7-0.4,2.7
				c-0.2,1-0.3,1.9-0.5,2.7c-0.2,0.8-0.2,1.3-0.2,1.5c-0.2,1.8-1.3,2.7-3.5,2.7c-0.8,0-2.2,0-4-0.1c-1.8-0.1-3.7-0.1-5.7-0.1
				c-1.8,0-3.6,0-5.5,0.1c-1.8,0.1-3.3,0.3-4.5,0.6l-0.5,0.2c-0.3,0.2-0.6,0.3-0.7,0.5c-0.2,0.2-0.3,0.2-0.5,0.2l-1,0.5l-0.5-0.7
				c-1-1-2.2-1.5-3.5-1.5c-1.5,0-3,0.1-4.5,0.2c-1.5,0.2-3,0.2-4.5,0.2c-2.6,0-5.2-0.1-7.6-0.2c-2.4-0.2-4.8-0.2-7.3-0.2h-15.6
				c-2.3,0-4.5-0.1-6.6-0.4c-2.1-0.2-4.1-0.4-6.1-0.4c-3,0-5.9,0-8.9,0.1c-3,0.1-5.9,0.1-8.9,0.1c-1,0-2.1-0.3-3.2-1l-0.5,0.2h-1.5
				c-0.8,0-1.5-0.2-2.1-0.6c-0.6-0.4-0.9-1.1-0.9-2.1c0-1.2,0-2.3,0.1-3.3c0.1-1.1,0.1-2.1,0.1-3.1c0-0.3,0-0.7-0.1-1
				c-0.1-0.3-0.1-0.7-0.1-1c0-0.5,0-0.8,0.1-1c0.1-0.2,0.2-0.4,0.4-0.7c0-0.2-0.1-0.2-0.2-0.2c0-0.3-0.1-0.5-0.2-0.5v-1
				c0-0.5,0-1-0.1-1.6c-0.1-0.6-0.1-1.1-0.1-1.6c0-0.8,0.1-1.6,0.2-2.2c0.2-0.7,0.2-1.4,0.2-2.2c0-0.5,0.1-0.8,0.2-1v-0.2
				c-0.3-0.7-0.5-1.2-0.5-1.5c0-0.3,0.2-0.8,0.5-1.5l0.2-0.2l-0.2-0.2L818.2,928.3z"/>
		</g>
	</g>
	<g>
		<path class="st0" d="M159.4,575.4c24.6,3.7,39.7,22,54.4,40c13.9,17.1,26.4,35.3,41.9,56.1c23.2-44.9-13.1-101.5,32.9-142.5
			c35.9,40.4,33.2,89.2,43.3,133.3c3.1,13.3,0.4,28.1,15.5,35.8c45.5,23.1,49.5,61.9,38.8,106.3c31.3,20.5,59.8,42.8,69.4,80.1
			c14.1,54.6-21.1,103.3-91.7,120.4c-35.6,8.6-75.3,15.3-106.1-14.5c-32.2-31.2-34-71.3-22-111.5c5.5-18.4,4.4-28.7-11.4-42.1
			c-23.4-19.6-35.4-46-19.8-77.5c8.8-17.8,5.6-33.4-5.2-50.1c-19.6-30.1-35.4-62.2-46.8-96.5C147.8,598.6,143.6,586.3,159.4,575.4z
			 M349.9,892.4c-24.1,1.3-40.2,16.4-39,38.5c1.1,19.6,12.7,39.8,39.6,38c24.7-1.7,37.7-16.1,37.1-40.2
			C386.9,906.3,373.4,894,349.9,892.4z"/>
	</g>
	<g>
		<path class="st2" d="M436.3,601.2c-4.8-0.8-9.6-1.3-14.4-2.4c-14.1-3.2-28.2-6.6-42.3-10.1c-1.8-0.4-3.4-1.8-5-2.7
			c2.6-4.9,5.5-6.5,10.1-5.6c28.9,5.4,57.3,3.5,85.1-5.7c15.9-5.2,31.8-10.6,47.7-15.8c4.1-1.3,8.4-2.5,12.7-3
			c3.7-0.5,7.7-0.4,11.4,0.3c9.2,1.6,13.5,9.5,9.8,18.1c-1.1,2.7-3.1,5.2-5.2,7.3c-4.1,4.1-9.2,6.6-14.6,8.5
			c-18.3,6.5-37,10.4-56.6,10.2c-5.1-0.1-10.3,0-15.4,0.2c-1.4,0-2.8,0.4-4.3,0.7C449,601.2,442.7,601.2,436.3,601.2z"/>
	</g>
</g>
</svg>
