<?xml version="1.0" encoding="utf-8"?>
<!-- Generator: Adobe Illustrator 22.0.0, SVG Export Plug-In . SVG Version: 6.00 Build 0)  -->
<svg version="1.1" id="Layer_1" xmlns="http://www.w3.org/2000/svg" xmlns:xlink="http://www.w3.org/1999/xlink" x="0px" y="0px"
	 viewBox="0 0 1080 1080" style="enable-background:new 0 0 1080 1080;" xml:space="preserve">
<style type="text/css">
	.st0{fill:#09CCCC;}
	.st1{fill:#035293;}
	.st2{fill:#FF3C95;}
</style>
<g>
	<g>
		<path class="st0" d="M370.3,132.4c7.4,2.5,14.9,6,22.4,10.6c7.5,4.6,14.9,9.9,22.3,16c7.4,6.1,14.3,12.9,20.9,20.4
			c6.6,7.5,12.9,15.3,18.8,23.3c11.8,16,21.2,32.6,28.1,49.8c6.9,17.2,10.7,33.7,11.5,49.8c0.8,16.3-1.4,31.5-6.8,45.7
			c-5.4,14.1-13.7,26.4-25.2,36.9c-11.4,10.2-24.9,17.9-40.2,23.3c-15.4,5.4-30.7,7.4-46.1,6c-15.3-1.3-29.5-5.9-42.6-13.6
			c-13-7.7-24.1-18.2-33.3-31.6c-9.2-13.3-16.3-28.9-21.3-46.7c-5-17.8-7.8-36.7-8.5-56.6c-0.1-9.8,0.1-19.7,0.9-29.6
			c0.7-9.9,2.1-19.6,4.1-29.1c2-9.4,4.5-18.3,7.7-26.5c3.2-8.2,6.9-15.6,11.3-22c9-13.2,20.2-22,33.4-26.6
			C341,127.2,355.2,127.5,370.3,132.4z M460.5,223.9c-0.7-1.1-1.3-2.2-1.9-3.2c-0.6-1-1.2-1.9-1.9-2.7c-3.2,3.6-6.2,6-9.1,7.2
			l-3.8,1.7c2.2-1.4,4.3-3.4,6.3-6c2-2.6,3.5-4.7,4.5-6.3c-0.7-1.1-1.4-2.2-2.1-3.1c-0.7-1-1.4-2-2.1-3.1c-3.2,3.6-6.2,6-9.1,7.2
			l-3.8,1.7c2.3-1.1,4.4-3,6.3-5.6c2-2.6,3.5-4.7,4.5-6.3c-1.7-1.6-2.9-3.1-3.6-4.5c-1.6,2-3.1,3.5-4.7,4.5c-1.5,1.1-3,2-4.4,2.7
			l-3.8,1.7c2.2-1.4,4.3-3.4,6.3-5.8c2-2.4,3.5-4.5,4.5-6.1c-1.7-1.6-2.9-3.1-3.6-4.5c-3.2,3.6-6.2,6-9.1,7.2l-3.8,1.7
			c2.2-1.4,4.3-3.4,6.1-5.8c1.8-2.4,3.3-4.4,4.3-6c-1.3-0.8-2.1-1.9-2.6-3.3c-21.5,19-45.8,33-72.7,41.9
			c-26.9,9-54.6,12.7-83.1,11.3c-0.2,0.9-0.3,1.7-0.2,2.5c0.1,0.7,0,1.6-0.2,2.5c1.8,0.4,4.3,1,7.3,1.7c3.1,0.7,5.9,0.8,8.5,0.2
			c-1.4,0.5-2.9,0.9-4.3,1.4c-1.4,0.5-3.1,0.7-5.1,0.8c-1.9,0.1-4.1-0.1-6.5-0.4c-0.2,0.9-0.2,1.9-0.1,2.9c0.1,1,0.1,2-0.1,2.9
			c1.9,0.7,4.3,1.4,7.4,2.1c3.1,0.7,5.9,0.8,8.5,0.2c-1.4,0.5-2.9,0.8-4.4,0.9c-1.5,0.2-3.2,0.3-5.1,0.5c-1.9,0.2-4.1,0.1-6.5-0.2
			c0.3,2.7,0.3,4.7,0.2,6.2c1.8,0.4,4.3,1,7.3,1.7c3.1,0.7,5.9,0.8,8.5,0.2c-1.4,0.7-2.9,1.2-4.3,1.4c-2.9,0.9-6.6,0.9-11.2-0.2
			c-0.1,1.5-0.1,2.9,0,4.2c0.1,1.3,0.3,2.7,0.4,4.2c1.8,0.4,4.3,0.9,7.3,1.5c3,0.6,5.7,0.7,8.1,0.5c-1.1,0.4-2.5,0.7-3.9,0.9
			c-1.5,0.2-3.1,0.3-4.9,0.5c-1.8,0.2-3.9,0.1-6.3-0.2l0.8,7.5c1.9,0.7,4.3,1.3,7.4,1.9c3,0.6,5.9,0.7,8.5,0.4
			c-1.4,0.5-2.9,0.8-4.4,0.9c-1.5,0.2-3.1,0.3-4.9,0.5c-1.8,0.2-3.9,0.1-6.3-0.2c0.3,2.9,0.7,5,1.1,6.1c1.9,0.7,4.2,1.3,6.9,1.9
			c2.7,0.6,5.3,0.6,7.6,0.1c-1.4,0.8-2.7,1.2-3.9,1.3c-2,0.5-5.5,0.6-10.3,0.2c0.4,1.2,0.7,2.2,0.8,3.3c0.1,1,0.2,2,0.3,2.9
			c4.9,1.6,9.6,2.1,14,1.6c-1.1,0.4-2.3,0.7-3.5,0.8c-1.2,0.1-2.6,0.4-4.2,0.7c-1.6,0.3-3.5,0.3-5.6-0.1c0.9,2.9,1.4,4.9,1.5,6.1
			c2.1,0.4,4.3,0.8,6.6,1.3c2.3,0.5,4.6,0.5,6.9-0.1c-1.2,0.4-2.3,0.8-3.4,1.3c-2.6,0.9-5.7,1.1-9.3,0.5c0.8,2.3,1.5,4.2,1.9,5.6
			c1.8,0.4,4,0.9,6.4,1.3c2.4,0.5,4.8,0.5,7.1-0.1c-1.2,0.4-2.3,0.8-3.4,1.3c-2.6,0.9-5.7,1.1-9.3,0.5l1.9,5.2
			c2.2,0.7,4.4,1.2,6.9,1.7c2.4,0.5,4.8,0.5,7.1-0.1c-1.2,0.4-2.3,0.7-3.5,0.8c-2.3,0.8-5.4,1.2-9.3,1c0.4,0.6,0.7,1.3,0.9,2.1
			c0.2,0.9,0.7,1.7,1.4,2.5c1.8,0.4,4.1,0.9,6.9,1.5c2.7,0.6,5.3,0.6,7.6,0.1c-1.2,0.4-2.3,0.8-3.4,1.3c-2.6,0.9-5.9,1.1-9.8,0.6
			l0.5,0.4c16,7.2,33.3,10.9,51.9,11c18.6,0.1,36.7-2.8,54.1-8.9c17.4-6,33.4-14.8,48-26.3c14.6-11.5,25.9-25.2,34.1-41l-0.5-0.8
			c-3,3-5.7,5.2-8.2,6.7c-1.1,0.7-2.3,1.1-3.4,1.3c2.5-1.5,4.8-3.5,6.7-6.1c2-2.6,3.3-4.7,4-6.2c-0.1-0.9-0.5-2.2-1.3-3.9
			c-3.6,3.1-6.2,5.1-7.8,6.2c-1.1,0.7-2.3,1.1-3.4,1.3c2.2-1.4,4.3-3.3,6.1-5.6c1.8-2.3,3.3-4.2,4.3-5.8c-0.8-2.3-1.5-3.9-1.8-4.7
			c-3,3-5.7,5.1-8.3,6.2c-1.1,0.7-2.3,1.1-3.4,1.3c2.3-1.1,4.3-2.9,6.1-5.3c1.8-2.4,3.3-4.4,4.3-6c-0.4-0.9-1-2.4-1.8-4.7
			c-1.6,1.7-3,2.9-4.3,3.8c-1.2,0.9-2.4,1.7-3.5,2.4c-1.1,0.7-2.3,1.1-3.4,1.3c2.3-1.1,4.2-2.8,5.9-5.1c1.7-2.3,3.1-4.2,4.1-5.8
			c-0.4-0.9-0.8-1.7-1.2-2.6c-0.4-0.9-0.8-1.7-1.2-2.6c-1.6,1.7-3.1,2.9-4.5,3.8c-1.4,0.9-2.7,1.7-3.8,2.4c-1.1,0.7-2.3,1.3-3.4,1.7
			c2.3-1.1,4.2-2.8,5.9-5.1c1.7-2.3,3.1-4.2,4.1-5.8c-0.4-1.1-0.8-2.1-1.2-3c-0.4-0.9-0.8-1.7-1.2-2.6c-1.6,1.7-3.2,3-4.7,4.1
			c-1.5,1.1-2.9,1.9-4,2.7l-3.8,1.7c2.3-1.1,4.4-3,6.3-5.6c2-2.6,3.3-4.7,4-6.2c-0.8-1.7-1.7-3.5-2.8-5.5l0,0.4
			c-3.8,4-6.8,6.5-9,7.7c-1.4,1-2.7,1.6-3.8,1.7c2.5-1.8,4.8-4,6.9-6.8C458.3,227.2,459.7,225.2,460.5,223.9z M303.5,214.6
			c-3.6-0.2-7.3-0.3-11-0.4c-3.7-0.1-7.4-0.3-11-0.8l10,14.6l11.6-12.9l12.4,11.6l10.6-14.1l16.6,9l9.1-15.7l18.6,6.5l4.6-15.7
			l18.7,3.8l1.4-16.2l18.6,2.9l0.6-19.3c-5.7,5.4-12.1,10.8-19.3,16.4c-3.1,2.1-6.3,4.2-9.8,6.4c-3.5,2.2-6.9,4.2-10.3,6
			c-7.7,3.5-15.4,6.6-23.2,9.2c-4,1.6-8.2,2.9-12.6,3.8c-4.4,0.9-8.7,1.9-13.1,3c-3.8,0.7-7.6,1.2-11.3,1.4
			C311.1,214.3,307.3,214.5,303.5,214.6z M281.9,209.3c11.5,1.5,23.2,1.6,35.1,0.3c11.9-1.3,23.5-3.8,34.7-7.7
			c11.2-3.9,22-8.9,32.4-15.1c10.4-6.2,19.6-13.3,27.7-21.3c-1-0.8-2-1.6-3.2-2.3c-1.1-0.8-2.2-1.7-3.2-2.8
			c-16.6,15.2-35.4,26.4-56.6,33.7c-21.1,7.3-42.8,10.1-65.1,8.3L281.9,209.3z M303.1,182c-3.7,1.3-5.1,4-4.1,8
			c0.7,1.4,1.9,2.6,3.5,3.4c1.6,0.9,3.1,0.9,4.5,0.2c1.7-0.5,3-1.5,3.7-3.1c0.7-1.6,0.9-3.1,0.4-4.5
			C309.5,182.1,306.9,180.7,303.1,182z M486.1,300.8c0.1-1.5,0-3.9-0.3-7.1c-7.9,15.1-19.1,28.3-33.4,39.3
			c-14.3,11.1-30.1,19.5-47.4,25.4c-17.3,5.9-34.9,8.8-53,8.8c-18,0-34.7-3.5-50.1-10.6c0.7,1.1,1.3,2.2,1.9,3.2
			c0.6,1,1.2,2,1.9,3.2c1,1.4,2.1,2.8,3.1,4.1c1,1.4,2.1,2.8,3.1,4.1c14.9,5.6,30.7,8.1,47.5,7.7c16.8-0.4,33.2-3.4,49.4-8.8
			c16.1-5.4,30.9-13.2,44.5-23.3c13.5-10.1,24.5-21.8,32.9-35.2c0.1-1.8,0.1-3.6,0.1-5.4C486.4,304.3,486.3,302.5,486.1,300.8z
			 M330,178.3c-3.7,1.3-5.1,4-4.1,8c1.6,3.7,4.2,4.9,8,3.6c1.7-0.5,3-1.5,3.7-3.1c0.7-1.6,0.8-3.2,0.4-5c-0.8-1.4-1.9-2.5-3.5-3.4
			C332.9,177.6,331.4,177.5,330,178.3z M357.3,250c1.2,0.2,2.3,0.4,3.4,0.5c1.1,0.2,1.9,0.4,2.5,0.6c1.9,1,3,1.8,3.4,2.3
			c1,1.4,1.6,2.7,1.7,3.8c0.4,1.2,0.8,3.2,1.1,6.1c0,0.3,0.5,1.6,1.3,3.9c0.4,0.9,0.8,1.7,1.2,2.6c0.4,0.9,0.9,1.8,1.7,3
			c1.4,2.2,2.5,3.8,3.2,4.6c0.7,1.4,1.7,2.1,2.9,1.9c0.6-0.1,1.3-0.6,2.1-1.6c0.5-0.6,0.9-1.3,1.1-1.9c0.2-0.6,0.6-1.3,1.1-1.9
			c0.5-0.9,1.2-2.7,2.1-5.1c0.5-1.2,0.9-2.3,1.4-3.3c0.5-0.9,1-1.9,1.5-2.8c0.5-1.2,0.9-2.3,1.2-3.3c0.3-0.9,0.8-1.9,1.3-2.8
			c0.5-0.9,0.9-1.9,1.3-2.8c0.3-0.9,0.8-1.7,1.3-2.4c0.5-1.2,1.2-2.5,2.3-3.8c0.8-1,1.5-1.5,2.1-1.6c1.2-0.1,2.4,0,3.6,0.5
			c1.2,0.2,2.3,0.9,3.4,2.3c1,1.1,1.9,2.2,2.6,3.3c0.8,1.7,1.2,3,1.3,3.9c0.2,1.5,0.1,3.4-0.3,5.8c-0.2,1.2-0.3,2.3-0.3,3.2
			c-0.1,0.9-0.2,2-0.3,3.2l-0.9,4.1c-0.2,0.6-0.3,1.2-0.3,1.8c0.1,0.6,0,1.2-0.3,1.8l-0.8,17.5c-0.3,6-0.1,11.8,0.5,17.4
			c0.1,0.6,0.1,1.3,0,2c-0.1,0.8-0.1,1.6,0,2.5c0.2,1.5,0,2.8-0.5,4.1c-1,2.2-2.8,3.4-5.4,3.7c-1.2,0.1-2.6-0.5-4.2-1.8
			c-0.8-1.4-1.5-3.3-2.4-5.6c-0.8-2.3-1.4-4.3-1.5-6.1l-0.5-4.9c-0.1-1.2-0.3-2.4-0.4-3.5c-0.1-1.2-0.1-2.4,0.1-3.6
			c-0.2-1.5-0.1-3.7,0.2-6.7l-3.7,3.1c-1.7,0.8-3.2,1.2-4.3,1.4c-1.8,0.2-3.3-0.1-4.6-0.9c-1.2-0.2-2.8-0.7-4.7-1.7
			c-0.7-0.5-1.4-1-2.2-1.6c-0.8-0.5-1.5-1-2.2-1.6c-0.7-0.5-1.2-1.1-1.8-1.8c-0.5-0.7-1.1-1.3-1.8-1.8c0.1,0.6,0,2.4-0.3,5.4
			c0.2,1.8,0.1,4.2-0.1,7.2l-0.5,8.1c-0.1,1.5-0.2,2.9-0.2,4.3c0,1.3-0.1,2.8-0.2,4.3c-0.3,3-0.5,5.1-0.7,6.3
			c-0.1,1.8-0.4,3-0.9,3.7c-0.8,1.3-1.4,1.9-2,2c-0.6,0.4-1.6,0.6-3,0.8c-0.9,0.1-1.9-0.1-3.2-0.6c-1.5-0.1-2.6-0.6-3.3-1.4
			c-0.7-0.5-1.1-0.9-1.2-1.2c-0.2-0.3-0.6-0.7-1.2-1.2c-0.4-0.9-0.7-2-0.8-3.5c-0.2-2.1-0.2-3.6,0-4.5l0.8-5.4
			c0.2-0.6,0.3-1.1,0.3-1.4c0-0.3,0.1-0.7,0.3-1.4c-0.1-0.6,0-1,0.1-1.4c0.1-0.3,0.1-0.8,0.1-1.4c0.2-3.3,0.4-6.5,0.5-9.7
			c0.1-3.1,0.3-6.4,0.5-9.7c0.5-6,0.5-12.4-0.2-19.2l-1.1-5.7c-0.3-2.4,0-4,0.8-5c0.8-1,1.5-1.5,2.1-1.6c0.3-0.3,0.5-0.6,0.8-0.8
			c0.3-0.2,0.5-0.6,0.8-1.2l2-2L357.3,250z M355.4,168.9c-1.7,0.5-3,1.5-3.9,3.1c-0.9,1.6-0.9,3.1-0.2,4.5c1.6,4,4.3,5.4,8,4.1
			c3.7-1.6,4.9-4.2,3.6-8c-0.5-1.4-1.5-2.6-3.1-3.5C358.3,168.2,356.8,168.1,355.4,168.9z M369.1,399c1.7-0.8,2.9-1.9,3.6-3.5
			c0.7-1.6,0.9-3.1,0.4-4.5c-0.8-1.7-2-2.9-3.5-3.7c-1.6-0.7-3.1-0.9-4.5-0.4c-1.7,0.8-2.9,2-3.6,3.5c-0.7,1.6-0.9,3.1-0.4,4.5
			C362.3,398.7,365,400.1,369.1,399z M377.3,156.7c-3.7,1.3-5.1,4-4.1,8c0.7,1.4,1.9,2.6,3.5,3.4c1.6,0.9,3.1,0.9,4.5,0.2
			c1.7-0.5,3-1.5,3.9-3.1c0.9-1.6,0.9-3.1,0.2-4.5C383.8,156.8,381.1,155.4,377.3,156.7z M393.6,398.7c1.4-0.4,2.6-1.5,3.5-3.1
			c0.9-1.6,0.9-3.1,0.2-4.5c-0.5-1.7-1.5-3-3.1-3.9c-1.6-0.9-3.1-0.9-4.5-0.2c-4,1.6-5.4,4.3-4.1,8
			C387.2,398.7,389.9,400,393.6,398.7z M417.5,391.7c1.7-0.5,3-1.5,3.9-3.1c0.9-1.6,0.9-3.1,0.2-4.5c-1.6-4-4.3-5.4-8-4.1
			c-3.7,1.6-4.9,4.3-3.6,8c0.4,1.4,1.5,2.6,3.1,3.5C414.6,392.3,416.1,392.4,417.5,391.7z M440.6,381.6c1.7-0.5,3-1.5,3.7-3.1
			c0.7-1.6,0.8-3.2,0.4-5c-0.8-1.4-1.9-2.5-3.5-3.4c-1.6-0.9-3.1-0.9-4.5-0.2c-4,1.6-5.4,4.3-4.1,8
			C434.2,381.7,436.8,382.9,440.6,381.6z M459.5,366.2c1.7-0.5,3-1.5,3.9-3.1c0.9-1.6,0.9-3.1,0.2-4.5c-1.6-4-4.3-5.4-8-4.1
			c-3.7,1.6-4.9,4.3-3.6,8c0.4,1.4,1.5,2.6,3.1,3.5C456.6,366.9,458.1,366.9,459.5,366.2z"/>
		<path class="st0" d="M647.1,112c13.5,9,25.5,21.8,36,38.4c10.6,16.6,19.4,34.2,26.4,52.9c6.7,18.7,11.1,37.1,13,55.4
			c1.9,18.3,1.1,35.4-2.6,51.3c-3.7,15.6-10.2,29.5-19.5,41.6c-9.3,12.2-20.7,21.7-34.3,28.5c-13.6,6.5-28.7,10.2-45.1,11
			c-16.5,0.9-31.8-1.4-46.1-6.7c-14.3-5.3-26.5-13.5-36.8-24.5c-10.3-11-18-24.2-23.2-39.8c-5.2-15.5-7.8-32.5-7.6-50.8
			c0.1-18.3,2.6-37.2,7.4-56.5c2.6-9.5,5.6-19,9.1-28.5c3.5-9.5,7.4-18.4,11.9-26.8c4.5-8.4,9.4-16.1,14.7-23.3
			c5.4-7.1,11-13.2,17.1-18.4c12.4-10,25.4-15.3,39.2-16C620.5,99.2,634,103.2,647.1,112z M714.8,256.8c-3.9,2.2-7.1,3.4-9.4,3.7
			c-1.1,0.4-2.3,0.5-3.5,0.4c2.3-0.5,4.7-1.6,7-3.2c2.4-1.6,4.2-3.1,5.6-4.4c-0.3-2.4-0.6-4.3-1.1-5.7c-1.9,1.4-3.7,2.3-5.3,2.8
			c-1.6,0.5-3,0.9-4.1,1.3c-1.4,0.5-2.8,0.6-4,0.4c2.3-0.8,4.7-2.1,7.2-3.7c2.5-1.6,4.4-3.1,5.8-4.4c-0.1-0.9-0.3-1.8-0.5-2.8
			c-0.3-1-0.4-2-0.5-2.9c-2.2,1.4-4.1,2.4-5.7,2.8c-1.6,0.5-3.1,0.9-4.5,1.4c-1.4,0.5-2.8,0.6-4,0.4c2.6-0.6,5.2-1.8,7.7-3.7
			c2.5-1.9,4.4-3.4,5.8-4.4c-0.4-1.1-0.7-2.2-0.8-3.3c-0.1-1-0.4-2.1-0.8-3.3l0,0.4c-2.2,1.7-4.2,2.9-5.9,3.5
			c-1.7,0.6-3.3,1.2-4.7,1.6c-1.4,0.5-2.9,0.6-4.4,0.5c2.9-0.9,5.7-2.5,8.4-4.7c2.7-2.2,4.7-3.9,5.7-4.9l-2-6.5
			c-2.2,1.4-4.2,2.5-5.9,3.1c-1.7,0.6-3.3,1.2-4.7,1.6c-1.4,0.5-2.8,0.6-4,0.4c2.9-0.9,5.6-2.3,8.1-4.2c2.5-1.9,4.4-3.4,5.8-4.4
			c-0.5-1.4-0.9-2.7-1.3-3.7c-0.4-1-0.8-2.2-1.3-3.7c-2.2,1.4-4.2,2.5-5.9,3.1c-1.7,0.6-3.3,1.2-4.7,1.6c-1.4,0.5-2.8,0.6-4,0.4
			c2.6-0.9,5.1-2.3,7.6-4.2c2.5-1.9,4.4-3.4,5.8-4.4c-0.8-2.3-1.5-4.2-1.9-5.6c-2.2,1.4-4.2,2.5-5.9,3.1c-1.7,0.6-3.3,1.2-4.7,1.6
			c-1.4,0.5-2.8,0.6-4,0.4c2.6-0.6,5.2-1.8,7.7-3.7c2.5-1.9,4.4-3.4,5.8-4.4c-0.4-1.1-0.8-2.1-1.2-3c-0.4-0.9-0.8-1.7-1.2-2.6
			c-2.2,1.4-4.2,2.5-5.9,3.1c-1.7,0.6-3.3,1.2-4.7,1.6c-1.4,0.5-2.8,0.6-4,0.4c2.6-0.9,5.1-2.2,7.4-3.9c2.3-1.7,4.2-3.3,5.5-4.6
			l-1.8-3.8c-25.8,12.3-52.9,19-81.2,20.3c-28.3,1.2-56-2.8-82.9-12.2c-0.5,0.9-0.8,1.8-0.8,2.5c-0.1,0.8-0.4,1.5-0.9,2.1
			c1.6,1.3,3.9,2.7,6.7,4c2.8,1.3,5.6,2.2,8.3,2.5c-1.5,0.2-3,0.2-4.5,0c-1.5-0.1-3.2-0.4-5-0.8c-1.8-0.4-4-1.2-6.5-2.4
			c-1,2.2-1.5,4.2-1.6,6c1.6,1.3,3.8,2.7,6.5,4c2.7,1.4,5.4,2.2,8.1,2.5c-1.5,0.2-3,0.2-4.5,0c-1.5-0.1-3.2-0.4-5-0.8
			c-1.8-0.4-3.9-1.2-6.1-2.5c-1,2.2-1.5,4.2-1.6,6c1.6,1.3,3.8,2.7,6.5,4c2.7,1.4,5.4,2.2,8.1,2.5c-1.5,0.2-3,0.2-4.5,0
			c-3-0.3-6.7-1.4-11.1-3.3l-1.8,8.2c1.6,1,3.8,2.2,6.6,3.5c2.8,1.3,5.4,2.2,7.9,2.5c-1.2,0.1-2.5,0.1-4,0c-3.3-0.2-7-1.2-11-2.9
			c-0.5,1.2-0.7,2.5-0.7,3.7c0,1.2-0.3,2.4-0.7,3.7c1.6,1.3,3.9,2.6,6.7,4c2.8,1.3,5.6,2.2,8.3,2.5c-1.5,0.2-3,0.2-4.5,0
			c-2.7,0-6.4-1-11-2.9c-0.2,1.2-0.4,3.3-0.7,6.3c1.6,1.3,3.8,2.5,6.4,3.6c2.6,1.1,5.2,1.8,7.6,2.1c-1.5,0.2-2.8,0.2-4,0
			c-1.5-0.1-3-0.4-4.5-0.6c-1.5-0.3-3.4-0.9-5.6-1.9c-0.3,3-0.5,5.1-0.7,6.3c1.6,1.3,3.6,2.5,5.9,3.4c2.3,0.9,4.7,1.6,7.1,1.9
			c-1.2,0.1-2.4,0.1-3.6-0.1c-1.2-0.2-2.7-0.4-4.3-0.7c-1.7-0.3-3.4-0.8-5.3-1.4c-0.3,3-0.4,5.1-0.2,6.3c1.6,1.3,3.5,2.4,5.7,3.2
			c2.2,0.8,4.3,1.4,6.4,1.8c-1.2,0.4-2.3,0.5-3.5,0.4c-2.4-0.3-5.3-1.1-8.7-2.2c0.1,0.9,0.1,1.9,0.1,2.9c0,1.1,0,2,0.1,2.9
			c1.6,1,3.6,2,5.9,3c2.3,0.9,4.6,1.6,6.7,2c-1.2,0.4-2.3,0.5-3.5,0.4c-3-0.3-6.1-1-9.2-2.2l0.6,5.7c1.6,1.3,3.5,2.5,5.7,3.4
			c2.2,1,4.5,1.6,6.9,2c-1.2,0.1-2.4,0.1-3.6-0.1c-1.2-0.2-2.5-0.3-3.9-0.5c-1.4-0.1-3-0.6-4.8-1.3l0.5,4.9c1.6,1.3,3.7,2.5,6.2,3.6
			c2.5,1.1,5,1.8,7.4,2.1c-1.2,0.1-2.4,0.1-3.6-0.1c-1.2-0.2-2.6-0.3-4.3-0.4c-1.7-0.1-3.4-0.7-5.3-1.7l0.1,0.9
			c13.5,11.7,29.1,20.1,46.9,25.2c17.8,5.1,36,7.1,54.5,6.1c18.5-1.1,36.3-5.1,53.5-12.2c17.1-7,31.7-17,43.8-29.9l-0.1-0.9
			c-1.9,1.4-3.7,2.3-5.3,2.8c-1.6,0.5-3,0.9-4.1,1.3c-1.4,0.5-2.8,0.6-4,0.4c2.6-0.9,5.2-2.3,7.8-4.2c2.6-1.9,4.6-3.5,6-4.9
			c-0.1-0.6-0.1-1.3,0-2c0.1-0.7,0.1-1.4,0-2c-3.9,2.2-7.1,3.4-9.4,3.7c-1.4,0.5-2.8,0.6-4,0.4c2.6-0.9,5.1-2.1,7.7-3.7
			c2.5-1.6,4.4-3.1,5.8-4.4l-0.6-5.3c-3.9,2.2-7.1,3.4-9.4,3.7c-1.1,0.4-2.3,0.5-3.5,0.4c2.3-0.5,4.7-1.7,7.2-3.5
			c2.5-1.8,4.4-3.2,5.8-4.2L714.8,256.8z M712.5,306.2c0.5-1.2,0.7-2.4,0.8-3.4c0-1,0.3-2.2,0.8-3.4c-11.8,12.3-26.1,21.7-42.8,28.2
			c-16.7,6.5-34.2,10.3-52.5,11.2c-18.2,0.9-36-1.1-53.4-6c-17.4-4.9-32.4-12.9-45.3-24c0.3,2.7,1,5,2.1,6.9
			c0.6,3.2,1.9,6.5,3.7,9.9c12.6,9.4,27.1,16.3,43.6,20.6c16.4,4.4,33.1,6.1,50,5.2c16.9-0.9,33.2-4.3,49-10.1
			c15.8-5.8,29.5-14.2,41.2-24.9C710.9,313,711.9,309.6,712.5,306.2z M545.5,182.2l14.7-9.2l8.7,14.7l14-10.9l13.5,13.8l13-12.6
			l16.3,10.8l8.4-13.9l17.1,9.4l6-15.4l16.9,7.6l5.7-18c-6.8,3.7-14.3,7.2-22.6,10.4c-4,1.3-7.9,2.5-11.5,3.5
			c-3.6,1-7.5,1.8-11.6,2.6c-4.1,1-8.2,1.8-12.3,2.2c-4.1,0.4-8.3,0.7-12.4,0.9c-9.2,0.4-18,0-26.5-1.2c-6.9-0.5-14.2-1.8-21.9-3.9
			c-3.7-1.1-7.3-2.3-10.9-3.5c-3.6-1.3-7.1-2.6-10.5-4L545.5,182.2z M544.9,155.5c-0.5,0.9-1.1,2-1.7,3.1c-0.6,1.1-1.2,2.3-1.6,3.5
			c10.6,4.5,21.8,7.8,33.5,9.9c11.7,2,23.5,2.7,35.3,2.1c11.8-0.7,23.6-2.5,35.2-5.5c11.6-3,22.5-7.3,32.6-12.9
			c-0.7-1.1-1.4-2.2-2.1-3.1c-0.7-1-1.4-2.2-2.2-3.6c-20.4,10.2-41.7,15.8-63.9,16.9C587.7,166.8,566,163.4,544.9,155.5z
			 M563.3,148.1c0.2,1.5,0.9,2.8,2.2,4c1.3,1.2,2.7,1.7,4.2,1.6c1.8,0.1,3.3-0.5,4.5-1.8c1.2-1.3,1.7-2.9,1.5-4.6
			c0.1-1.5-0.5-2.9-1.8-4.1c-1.3-1.2-2.9-1.9-4.7-2C565.5,141.6,563.5,143.9,563.3,148.1z M578.8,361.6c-0.4-3.8-2.6-5.8-6.4-6
			c-1.8,0.2-3.3,0.9-4.5,2.3c-1.2,1.3-1.7,2.7-1.6,4.2c-0.1,1.8,0.5,3.3,1.8,4.5c1.3,1.2,2.9,1.7,4.6,1.5c1.8,0.1,3.2-0.5,4.3-1.8
			C578.1,364.9,578.7,363.4,578.8,361.6z M612.4,222.5c2.7-0.3,5.7,0.3,9.1,1.7c2.8,0.9,5.8,2.7,9.1,5.3c1.3,1.4,2.6,2.6,3.8,3.9
			c1.2,1.2,2.3,2.5,3.3,3.9c1.8,3.4,2.9,6.3,3.2,8.6c0.1,1.2,0.1,2.1-0.2,2.7c0,0.3,0,0.6-0.1,0.9c-0.1,0.3-0.2,0.6-0.1,0.9
			c-0.4,1.5-0.9,3-1.3,4.4c-0.5,1.4-0.9,2.7-1.4,3.9c-1.2,2.5-2.5,4.4-3.9,5.8c-0.5,0.7-1.2,1.4-2,2.2c-0.8,0.8-1.6,1.6-2.4,2.3
			c-0.8,0.7-1.8,1.5-2.9,2.3c-1.1,0.9-2.3,1.8-3.7,2.9l-0.4,0l2.8,1c0.9,0.5,2.3,0.9,4.2,1.3c1.2,0.5,2.5,0.9,3.7,1.4
			c1.2,0.5,2.5,0.9,3.7,1.4c1.5,0.4,2.9,1,4,1.6c1.1,0.6,2.3,1.2,3.5,1.6c1.2,0.5,2.3,1,3.1,1.7c0.8,0.7,1.7,1.2,2.6,1.7
			c1.3,1.1,2,2.3,2.2,3.8c0.2,1.5-0.4,3-1.7,4.7c-1.7,1.1-3.3,1.7-4.7,1.8c-1.2,0.1-2.5,0.1-4,0c-1.5-0.1-3.2-0.4-5-0.8
			c-1.8-0.4-3.8-0.9-5.8-1.6c-2-0.7-4.1-1.4-6.2-2c-2.2-0.7-4.2-1.4-6.1-2.3c-1.9-0.8-3.7-1.6-5.6-2.3c-1.9-1-3.6-1.8-5.2-2.6
			c-1.6-0.7-2.8-1.3-3.8-1.8c0.1,0.6,0.1,1.3,0,2.2c-0.1,0.9,0,1.8,0.1,2.7c0.2,2.1,0,4-0.7,5.9c-0.1,1.5-0.7,3.2-1.7,5.1
			c-1.3,1.6-2.7,2.5-4.2,2.7c-2.4,0.3-4.4-0.3-6-1.6c-1.6-1.3-2.6-3.3-2.9-6c-0.2-1.5-0.2-2.9-0.2-4.2c0-1.3,0.1-2.9,0.2-4.7
			c0.1-1.8,0.2-3.6,0.3-5.4c0.1-1.8,0.4-3.6,0.8-5.4c0.1-1.8,0.2-3.6,0.3-5.4c0.1-1.8,0.4-3.6,0.8-5.4c0.8-3.7,1.3-7.1,1.6-10.5
			c0.2-0.6,0.3-1.1,0.3-1.4c0-0.3,0.1-0.7,0.3-1.4c-0.1-0.6,0-1,0.1-1.4c0.1-0.3,0.1-0.8,0.1-1.3l0.6-2.7c0.4-1.8,0.7-3.4,0.9-4.6
			c0.5-0.6,0.8-1.4,0.9-2.3c0-0.9,0.3-1.8,0.8-2.8c0.2-0.6,0.4-1.4,0.6-2.3c0.2-0.9,0.4-1.7,0.6-2.3c0.5-0.6,0.8-1.3,0.9-1.9
			c0.1-0.6,0.4-1.2,0.9-1.9c0.8-1,1.3-1.5,1.6-1.5l2.3,0.2c0.3,0.3,0.6,0.4,0.9,0.3l0.9-0.1l1.3-0.6c1.1-0.7,2-1.1,2.6-1.2
			C610.6,223,611.8,222.6,612.4,222.5z M602.4,368.5c-0.2-1.8-0.9-3.3-2.3-4.5c-1.3-1.2-2.7-1.7-4.2-1.6c-1.8-0.1-3.3,0.5-4.5,1.8
			c-1.2,1.3-1.7,2.9-1.5,4.6c0.4,3.8,2.6,5.8,6.5,6c1.8-0.2,3.3-0.9,4.5-2.3C602,371.3,602.5,369.9,602.4,368.5z M590.1,151.6
			c0.2,1.8,0.9,3.3,2.3,4.5c1.3,1.2,2.7,1.7,4.2,1.6c1.8,0.1,3.3-0.5,4.5-1.8c1.2-1.3,1.7-2.9,1.5-4.6c0.1-1.8-0.5-3.2-1.8-4.3
			c-1.3-1-2.9-1.6-4.7-1.7C592.3,145.5,590.3,147.7,590.1,151.6z M605.3,265.3c0-0.3-0.2-0.4-0.5-0.4c0-0.3-0.2-0.4-0.5-0.4
			l-0.5-0.4l-0.3,0.9l1.1,2.1l0.8-0.5L605.3,265.3z M618.3,240.2c-1.8,0.2-3.2,0.9-4.2,2.2c-1.6,2-2.6,3.4-3.1,4.4
			c-0.5,0.9-0.9,1.8-1.1,2.6c-0.2,0.8-0.4,1.6-0.6,2.5c-0.5,0.9-0.8,1.8-0.8,2.6c-0.1,0.8-0.2,1.4-0.5,2.1l-0.7,2.3
			c-0.2,0.6-0.4,1.2-0.5,1.6c-0.1,0.5-0.3,1-0.5,1.6c-0.3,0.3-0.5,0.7-0.5,1.2c-0.1,0.5-0.3,1-0.5,1.6c0.9-0.4,1.8-0.8,2.8-1.2
			c1-0.4,2.1-1,3.2-1.7c1.4-0.7,2.6-1.6,3.5-2.6c0.9-1,2.1-2,3.5-3.1c1.1-0.7,2.1-1.6,2.9-2.5c0.8-1,1.6-2,2.4-2.9
			c1.3-2.2,1.8-3.9,1.7-5.1c-0.2-1.8-0.9-3.2-2.2-4.2C620.4,240.6,618.9,240.2,618.3,240.2z M627.4,368c0.1-1.5-0.5-2.9-1.8-4.1
			c-1.3-1.2-2.9-1.9-4.7-2c-3.8,0.4-5.8,2.7-6,6.9c0.2,1.5,0.9,2.8,2.2,4c1.3,1.2,2.7,1.7,4.2,1.6c1.8,0.1,3.3-0.5,4.5-1.8
			C627,371.4,627.6,369.8,627.4,368z M617.1,149.6c-0.1,1.8,0.5,3.2,1.8,4.3c1.3,1.1,2.9,1.6,4.7,1.7c3.8-0.4,5.8-2.7,6-6.9
			c-0.2-1.5-0.9-2.8-2.2-4c-1.3-1.2-2.7-1.7-4.2-1.6c-1.8-0.1-3.3,0.5-4.5,1.8C617.5,146.3,617,147.8,617.1,149.6z M652.1,365
			c0.1-1.8-0.5-3.3-1.8-4.5c-1.3-1.2-2.9-1.7-4.6-1.5c-1.8-0.1-3.2,0.5-4.3,1.8c-1.1,1.3-1.6,2.9-1.7,4.7c0.4,3.8,2.7,5.8,6.9,6
			c1.5-0.2,2.8-0.9,4-2.2C651.7,367.8,652.2,366.4,652.1,365z M641.6,144.3c0.2,1.5,0.9,2.8,2.2,4c1.3,1.2,2.7,1.7,4.2,1.6
			c1.8,0.1,3.3-0.5,4.5-1.8c1.2-1.3,1.7-2.9,1.5-4.6c0.1-1.8-0.5-3.2-1.8-4.3c-1.3-1-2.9-1.6-4.7-1.7
			C643.8,137.8,641.8,140.1,641.6,144.3z M674.8,355.4c0.1-1.8-0.5-3.3-1.8-4.5c-1.3-1.2-2.9-1.7-4.6-1.5c-1.8-0.1-3.2,0.5-4.3,1.8
			c-1.1,1.3-1.6,2.9-1.7,4.7c0.4,3.8,2.6,5.8,6.5,6c1.8-0.2,3.3-0.9,4.5-2.3C674.4,358.3,674.9,356.9,674.8,355.4z"/>
		<path class="st0" d="M729.6,397.5c-1.7-16.4,8.1-29,23.6-30.7c15.5-1.6,27.3,8.7,29,25.1c1.7,15.9-7.2,28.9-23.6,30.7
			C743.2,424.3,731.3,413.5,729.6,397.5z"/>
	</g>
	<path class="st0" d="M217,300.8c-0.8,0.2-2,0.6-3.6,1c-1.6,0.4-2.8,0.7-3.5,0.8c-3,0.7-6.5,0.4-10.4-0.9c-1.8-0.6-3.3-1.9-4.7-4
		s-1.9-4-1.7-5.7l0.2-0.2c0.3-1.5,0.8-2.7,1.4-3.8c0.7-1.2,1.9-2,3.6-2.5c1.7-0.5,3.2-0.5,4.5-0.1c0.3,0.1,0.5,0.2,0.9,0.3
		c0.3,0.1,0.5,0.2,0.7,0.2c0.1,0.1,0.3,0.1,0.4,0.1c0.3-0.2,1-0.2,2-0.1c1,0.1,1.5,0.1,1.6,0.1c3.3-0.2,5.7-0.3,7.1-0.3
		c3-0.1,7.7-0.4,14-1.1c17.2-1.4,27-2.1,29.5-2.1c0.8,0,1.6,0.2,2.4,0.7c0.8,0.5,1.4,1.1,2,1.8c0.5,0.7,0.9,1.5,1,2.3
		s0.1,1.6-0.3,2.3c-0.4,0.7-1.1,1.2-2.1,1.5c-4.4,1.3-14.5,3.5-30.5,6.6C222,299.8,217.2,300.8,217,300.8z M264.7,327.8
		c1.5-0.9,3.2-0.8,5.1,0.3c1.8,1.1,2.6,2.6,2.4,4.4c-0.2,1.7-0.6,3.3-1,4.6c-0.2,0.4-0.5,1-1,1.8c-0.5,0.8-0.8,1.5-1,1.8
		c-0.5,0.9-1.2,2.2-2.2,4c-1,1.8-1.8,3.1-2.2,4c-3.6,6.5-6.3,11.3-8,14.4c-3.2,5.6-6.1,10.4-8.8,14.3c-0.2,0.3-0.4,0.6-0.7,1.1
		c-0.3,0.5-0.5,0.8-0.6,0.9l-0.2,0.2c-0.3,0.8-1.2,2.6-2.8,5.4c-0.2,0.5-0.2,0.7-0.1,0.7c-0.1,0.3-0.7,1.3-1.7,3.1
		c0,0.1,0,0.2-0.1,0.4c-0.1,0.1-0.3,0.4-0.6,0.9c-0.3,0.5-0.6,0.9-0.9,1.3c-0.3,0.4-0.5,0.7-0.6,0.8c-4.2,4.1-8.7,4.9-13.5,2.4
		l-0.2-0.2l0-0.2c-1.9-0.8-3.5-2-4.8-3.6l0-0.2c-3.6-4.5-4-9.1-1-13.7c0.4-0.7,0.9-1.2,1.6-1.7l0.9-1c0.1,0,0.2-0.1,0.3-0.2
		c0.1-0.1,0.2-0.3,0.3-0.4c0.2-0.3,0.5-0.6,0.9-0.9c0.4-0.4,0.7-0.6,1-0.8l0.5-0.3l0.2,0c0.1-0.1,0.3-0.3,0.6-0.6
		c2.5-2.1,3.8-3.3,4.2-3.6l-0.3,0.2l1-0.9l1.1-1.4c1.3-1.6,3.3-3.9,5.9-6.7c2.6-2.9,4.2-4.7,5-5.5c1.6-1.9,5.2-6.2,10.6-13
		c0.5-0.7,1.3-1.7,2.4-3.2c1.1-1.5,2-2.6,2.7-3.5c0.7-0.9,1.5-1.8,2.7-2.9C262.5,329.4,263.6,328.5,264.7,327.8z M200.6,210.3
		l0.3,0.7l-3.2-2.6c-2.6-2.2-4.2-4.6-4.9-7.4c-0.7-2.8-0.2-5.6,1.6-8.5c1.4-2,3.4-3.2,6-3.5c2.6-0.4,5,0,7.3,1.1
		c1.3,0.5,2.2,1.1,2.9,1.7c0.3,0.2,0.7,0.6,1.2,1.2c0.6,0.6,1,1,1.4,1.3l0.2,0.2l0.2,0.2l-1-0.9l0.6,0.5c1.9,1.4,3,2.5,3.3,3.3
		l-0.2-0.2l0,0.2c0.3,0.3,0.7,0.7,1.1,1c0.5,0.4,0.9,0.7,1.2,1c0.3,0.3,0.7,0.7,1.1,1.1c0.4,0.4,0.7,0.8,0.9,1.1l0,0.2
		c0.1,0,0.2,0,0.2,0.2l1.4,1.1c4.5,3.7,8.6,7.5,12.5,11.4c1.4,1.4,3.5,3.3,6.2,6c2.8,2.6,4.8,4.6,6.2,6c0.5,0.5,1.6,1.5,3.1,3
		c1.5,1.5,2.7,2.6,3.4,3.4c0.8,0.8,1.7,1.8,2.7,3.1c1,1.3,1.9,2.6,2.5,3.8c0.9,1.9,0.6,3.4-0.7,4.5c-1.3,1.1-2.9,1.3-4.7,0.6
		c-1.6-0.6-3.2-1.4-4.7-2.3c-1.5-0.9-3.3-2.2-5.4-3.9c-2.1-1.7-3.5-2.8-4.1-3.3c-7.4-5.3-11.9-8.5-13.3-9.4c-6.3-4.1-11-7.3-14-9.4
		l-1.4-1.1l-0.2-0.2l-0.2,0c-0.1,0-0.5-0.1-1.1-0.5c-0.6-0.3-1.1-0.7-1.7-0.9l-0.8-0.4l0.4,0c-2.9-1.1-4.9-2.1-5.9-2.8
		c-0.8-0.6-1.1-0.9-1-0.8C200.1,209.7,200.3,209.9,200.6,210.3z M243.6,385.3l-0.1,0.6C243.5,385.7,243.6,385.5,243.6,385.3z"/>
	<path class="st0" d="M774.9,238c-16.2,0.9-26.6,1.2-31.2,0.9c-1.1,0-1.9-0.3-2.4-0.9c-0.5-0.6-0.8-1.3-0.8-2.1
		c0-0.8,0.1-1.6,0.5-2.5c0.3-0.8,0.8-1.5,1.5-2.2c0.6-0.7,1.4-1.1,2.2-1.3c2.4-0.6,12.2-2.3,29.2-5c6.3-0.9,11-1.7,13.9-2.4
		c1.4-0.4,3.7-0.9,7-1.4c0.1,0,0.6-0.2,1.6-0.5c0.9-0.3,1.6-0.5,1.9-0.4c0.1,0,0.2-0.1,0.3-0.2c0.1,0,0.3-0.1,0.6-0.3
		c0.3-0.2,0.5-0.4,0.8-0.5c1.1-0.7,2.6-1,4.4-1c1.8,0.1,3.2,0.6,4.1,1.5c0.9,0.9,1.7,2,2.3,3.3l0.2,0.2c0.6,1.6,0.6,3.6-0.3,5.9
		s-2,4-3.6,5c-3.5,2.2-6.7,3.3-9.8,3.4c-0.7,0.1-1.9,0.1-3.6,0.1c-1.7,0-2.9,0-3.8-0.1C789.4,237.5,784.5,237.7,774.9,238z
		 M753.7,277c1.3,0.8,2.4,1.5,3.3,2.2c0.8,0.7,2,1.6,3.4,2.8c1.4,1.2,2.5,2,3.1,2.5c6.9,5.2,11.3,8.6,13.4,10c0.9,0.6,3,2,6.2,4.2
		c3.2,2.2,5.7,3.9,7.3,5.1l1.4,1.1l1.1,0.6l-0.4-0.1c0.4,0.2,2,1,4.9,2.5c0.4,0.2,0.6,0.4,0.8,0.5l0.2,0l0.5,0.1
		c0.3,0.1,0.6,0.3,1.1,0.5c0.5,0.2,0.9,0.5,1.1,0.7c0.1,0.1,0.3,0.2,0.4,0.3c0.1,0.1,0.3,0.2,0.4,0.1l1.2,0.8
		c0.7,0.3,1.4,0.7,1.9,1.2c4,3.8,4.7,8.3,2.3,13.5l0,0.2c-0.9,1.9-2.1,3.4-3.8,4.7l0,0.2l-0.2,0.2c-4,3.5-8.6,3.8-13.7,0.9
		c-0.1-0.1-0.4-0.3-0.8-0.6c-0.4-0.3-0.8-0.7-1.2-1c-0.4-0.4-0.7-0.6-0.8-0.7c-0.1-0.1-0.2-0.2-0.2-0.3c-1.5-1.5-2.3-2.4-2.4-2.6
		c0.1,0,0-0.2-0.3-0.7c-2.3-2.4-3.6-3.9-4.1-4.6l-0.2-0.2c-0.1-0.1-0.4-0.3-0.8-0.7c-0.4-0.4-0.7-0.7-1-0.9
		c-3.6-3.2-7.5-7.1-12-11.8c-2.4-2.6-6.2-6.6-11.3-12c-0.7-0.8-1.7-1.9-3.1-3.3c-1.4-1.5-2.4-2.6-3.1-3.3c-0.3-0.3-0.7-0.8-1.4-1.6
		c-0.7-0.7-1.1-1.2-1.4-1.5c-0.7-1.2-1.4-2.6-2.1-4.3c-0.7-1.7-0.2-3.3,1.3-4.9c1.5-1.5,3.1-2,4.9-1.5
		C751.1,275.6,752.3,276.2,753.7,277z M784.1,145.1c0.1-0.1-0.2,0.2-0.8,1c-0.9,0.9-2.6,2.3-5.1,4.1l0.4,0l-0.7,0.6
		c-0.4,0.4-0.9,0.8-1.4,1.3c-0.5,0.5-0.8,0.7-0.9,0.7l-0.2,0l-0.2,0.2l-1.1,1.4c-2.5,2.8-6.2,6.9-11.4,12.5
		c-1.2,1.3-4.7,5.4-10.7,12.4c-0.5,0.7-1.6,2-3.2,4.2c-1.6,2.1-3,3.8-4.3,5.1c-1.2,1.3-2.6,2.4-4,3.4c-1.5,1.1-3.1,1.3-4.7,0.6
		c-1.6-0.7-2.2-2.1-1.8-4.2c0.3-1.3,0.8-2.8,1.5-4.3c0.7-1.5,1.3-2.7,1.8-3.7c0.6-1,1.4-2.3,2.5-4.1c1.1-1.8,1.9-3,2.3-3.6
		c1-1.7,2.6-4.1,4.6-7.3c2.1-3.2,3.6-5.6,4.6-7.3c2.8-4.7,6-9.4,9.4-14l1.1-1.4c0-0.1,0-0.2,0.2-0.2l0-0.2c0.1-0.4,0.3-0.8,0.6-1.3
		c0.3-0.5,0.6-1,0.8-1.3s0.6-0.8,0.9-1.3c0.4-0.5,0.7-0.9,0.9-1.3l0-0.2l-0.2,0.2c0.2-0.8,1-2.2,2.4-4l0.5-0.6l-0.8,1.2l0.2-0.2
		l0.2-0.2c0.3-0.4,0.7-0.9,1.1-1.6c0.4-0.7,0.7-1.2,0.9-1.4c0.5-0.8,1.3-1.6,2.4-2.4c2-1.6,4.3-2.6,6.9-2.9c2.6-0.3,4.8,0.4,6.6,2
		c2.4,2.4,3.6,5,3.6,7.8c0,2.9-1,5.6-3,8.4l-2.5,3.3l0.1-0.7C784,145.2,784.1,145,784.1,145.1z M784.3,326.4l-0.2-0.5
		C784.2,326.1,784.3,326.3,784.3,326.4z"/>
	<path class="st1" d="M959.3,801.9c-7.2-6.9-16.5-10.4-27.9-10.4c-4.6,0-9,0.9-13.3,2.6c-7.7,3-14.1,7.8-19.1,14.3
		c-5,6.5-8.7,13.7-11.1,21.5c-2.2-4.7-5.2-8.8-9-12.2c-5.8-5.1-12.2-7.6-19.3-7.6c-2.2,0-4.4,0.3-6.6,0.9
		c-6.7,2.1-11.6,5.9-14.7,11.6c-3.1,5.7-4.6,11.8-4.6,18.3c0,0.8,0.3,1.4,0.9,2c0.6,0.6,1.3,0.8,2.1,0.8c0.8,0,1.5-0.3,2.1-0.8
		c0.6-0.6,0.9-1.2,0.9-2c0-5.2,1.2-10.1,3.5-14.8c2.3-4.7,6.1-7.8,11.5-9.4c1.7-0.5,3.4-0.8,5-0.8c5.8,0,10.9,2.1,15.5,6.2
		c5.7,5.2,9.2,11.5,10.5,19.1c0.3,1.5,1.2,2.3,2.8,2.3c1.5,0,2.4-0.8,2.7-2.3c1.5-8.7,4.7-17,9.5-24.8c4.8-7.9,11.4-13.5,19.7-17
		c3.6-1.5,7.3-2.2,11.2-2.2c9.7,0,17.6,2.8,23.6,8.5c6,5.7,9,13.4,9,23.2c0,18-8.4,32.9-25.1,44.9c-9.4,6.7-20.7,13.3-34,19.7
		c-7.2,3.5-13.4,6.8-18.7,9.8c-4.9-12.2-12.6-22.2-23.1-29.9c-11.3-8.2-24.3-13.6-39.1-16.2c-2.8-12.4-7.7-23-14.6-32
		c-12.4-15.8-29.4-23.7-50.9-23.7c-16.8,0-31.2,6.1-43.4,18.3c-14.7,14.7-25.7,36.2-33.1,64.6c-1.4,5.8-3.4,12.5-6,20.2
		c-6.3,18.3-11.3,27.5-15.1,27.5c-2.1,0-4-2.8-5.7-8.4c-3.7-12.7-5.6-33.4-5.6-62c0-31.4,0.6-58.8,1.8-82.2c0.9-0.2,1.7-0.4,2.6-0.6
		c29.6-7.1,51.7-10.6,66.4-10.6c6.2,0,11.7,1.5,16.4,4.6c4.8,3.1,7.9,7.8,9.4,14c0.3,1.7,1.3,2.6,2.8,2.6c2.2,0,3.4-1.1,3.3-3.2
		c0-1.1-0.6-3-1.7-5.8c-2.2-5.2-5.5-9.4-9.9-12.6c-5.9-4-12.7-6.1-20.4-6c-14.8,0-37.6,3.6-68.3,10.9c-0.1,0-0.2,0-0.3,0.1
		c0.2-4.1,0.5-8.1,0.8-11.9c0.3-3.4,0.6-6.4,0.9-9.2c0.3-2.7,0.5-5.2,0.5-7.3c0-4.8-2.8-7.2-8.5-7.2c-5.1,0-7.8,2.2-8.2,6.5
		c-1.1,9.8-2,20.8-2.7,33c-21.1,4.4-37.5,6.6-49.3,6.6c-6.1,0-11.6-1.6-16.4-4.7c-4.8-3.1-7.9-7.8-9.3-14c-0.4-1.7-1.5-2.6-3.1-2.6
		c-2.2,0-3.4,1.1-3.3,3.2c0,1.1,0.6,3.1,1.7,5.8c2.2,5.2,5.5,9.4,10.1,12.5c5.9,4.1,12.7,6.2,20.4,6.2c12.2,0,28.5-2.1,48.9-6.3
		c-1.1,22.4-1.7,48.5-1.7,78.4c0,8.1,0.2,15.6,0.6,22.6c0,0,0,0.1,0,0.1c-1.7,7.1-4.2,13.3-7.3,18.6c-4.3,7-9.6,10.4-15.9,10.5
		c-1.5,0-3.1-0.2-4.5-0.5c1.9-9.5,2.8-19.1,2.8-28.6c0-14.3-2-27.2-6.1-38.9c-4.1-12.2-10.3-19.3-18.6-21.4
		c-0.9-0.2-1.8-0.3-2.7-0.3c-4,0-7,1.2-9.2,3.5c-2.2,2.3-3.8,5.2-4.8,8.5c-1,3.4-1.6,6.7-1.8,10.1c-4.6,0-7.3,1.4-8.2,4.3
		c-3.7,11.3-5.8,23.6-6.3,36.8c-4.2,15.9-9.9,29.9-17.4,41.9c-1.5,2.5-3.2,3.8-4.9,3.9c-1.6,0-3-1.3-4.1-4c-2-4.7-3.5-10.7-4.7-17.8
		c-1.8-11.5-2.9-23.2-3.1-35.2c8.9-20.2,16.3-42,22-65.5c4.7-19.7,7.1-37.2,7.1-52.5c0-13.7-3.1-22.1-9.3-25.4
		c-1.4-0.6-2.8-0.9-4.3-0.9c-6,0-11.3,5.1-15.8,15.2c-2.9,6.7-5.4,14.4-7.3,23c-6.3,27.3-9.5,58.1-9.5,92.3c0,8.1,0.2,15.7,0.6,22.6
		c0,0,0,0,0,0.1c-5.4,21.1-11.6,37.7-18.5,49.5c-1.2,2.1-2.4,3.2-3.6,3.2c-2,0-4-4.9-6.1-14.6c-5.6-26.1-9.3-74.8-11.2-145.9
		l-0.5-22.6c-0.2-5.7-3.2-8.5-9-8.5c-14.7,0-26,14.6-34,43.9c-5,18.2-9.6,39.2-13.9,62.8c-1.9,10.9-3.8,20.7-5.7,29.4l-7.7,3
		c1.8-3.4,2.7-7.7,2.7-13c0-9.5-2.1-17.9-6.1-25.2c-4.1-7.3-9.6-13.3-16.4-18.2c-6.8-4.9-14.5-8.6-23-11.1c-8.5-2.5-17.2-3.7-26-3.7
		c-21.4,0-38.3,8-50.6,23.9c-7,9.1-12,19.8-14.8,32c-15,2.8-28,8.2-39,16.3c-10.9,8.1-18.6,18.1-23,29.9c-5.5-3.3-11.7-6.6-18.7-9.9
		c-13.3-6.4-24.7-13-34-19.6c-16.8-11.9-25.2-26.9-25.2-44.8c0-9.8,3-17.5,9-23.2c6-5.7,13.9-8.5,23.6-8.5c3.8,0,7.5,0.7,11.1,2.2
		c8.3,3.3,14.9,9,19.8,16.9c4.9,7.9,8,16.2,9.4,24.7c0.3,1.6,1.2,2.4,3,2.4c1.5,0,2.4-0.8,2.7-2.3c1.4-7.7,4.9-14,10.6-19.1
		c4.6-4.2,9.7-6.3,15.3-6.3c1.7,0,3.4,0.3,5,0.8c5.4,1.6,9.3,4.8,11.6,9.4c2.3,4.6,3.5,9.5,3.5,14.7c0,0.9,0.3,1.6,0.8,2.1
		c0.6,0.6,1.3,0.8,2.1,0.8c0.8,0,1.4-0.3,2-0.8c0.6-0.6,0.8-1.3,0.8-2.1c0-6.5-1.6-12.6-4.7-18.2c-3.1-5.6-8-9.5-14.7-11.5
		c-2.1-0.6-4.3-0.9-6.6-0.9c-7.1,0-13.5,2.5-19.2,7.6c-4,3.4-7,7.5-9.1,12.3c-2.4-7.8-6.1-15-11.2-21.5c-5-6.5-11.4-11.3-19.2-14.4
		c-4.2-1.6-8.6-2.4-13.2-2.4c-11.3,0-20.6,3.5-27.9,10.4c-7.3,6.9-10.9,16.2-10.9,27.9c0,19.3,9.3,35.5,28,48.7
		c10.1,7.2,21.2,13.7,33.5,19.4c7.8,3.7,14.8,7.3,20.9,10.8c-1.5,5.6-2.2,11.6-2.2,18.2c0,9,2.2,16.4,6.6,22.2c4,5.3,8.8,8,14.4,8
		c5.1,0,9.1-1.5,12-4.4c2.9-2.9,4.4-6.9,4.4-11.9c0-9.2-5.9-18.3-17.7-27.2c-3-2.3-6.4-4.6-10.3-7c3.9-11.5,11.3-21.1,22-28.8
		c9.4-6.7,20.5-11.4,33.1-14.1c-0.9,5.2-1.3,10.6-1.3,16.1c0,7.8,0.8,15.8,2.5,24c1.6,8.2,4.1,16.1,7.4,23.7
		c3.3,7.6,7.5,14.3,12.6,20.4c5.1,6,11.2,10.8,18.2,14.4c7,3.6,15,5.3,23.9,5.3c8.3,0,15.3-2,21.2-5.9c5.9-4,10.4-9.2,13.5-15.8
		c3.1-6.6,4.7-13.8,4.7-21.7c0-17.4-6.6-32.7-19.9-46c-15.2-15.3-35.8-22.9-61.6-22.9c-4.5,0-8.9,0.3-13.3,0.8
		c2.5-9.9,6.6-18.7,12.5-26.4c11.2-14.7,26.6-22.1,46.3-22.1c17.2,0,31.9,4.3,44.1,13c13.4,9.5,20.1,22.5,20.1,38.9
		c0,6.3-1.9,11-5.7,14.2c-2.7,2.3-5,4.1-7.1,5.4c-2.1,1.3-3.1,2.7-3.1,4.3c0,2.2,1.1,3.4,3.2,3.3c0.8,0,1.9-0.3,3.5-1
		c8-3.4,14.6-5.9,19.7-7.4c-4.1,18.7-7.9,32-11.3,39.7c-2.8,6.3-6.4,10.4-10.8,12.4c-4.4,2-6.6,3.6-6.6,4.9c0,1.7,1.1,2.6,3.4,2.6
		c16.9,0,29.9-21.2,38.9-63.7c7.5-2.7,15-4,22.7-4c5.6,0,11.2,0.7,16.9,2.2c2.3,25.7,6.1,44.7,11.3,57.1c2.8,6.8,6.5,10.2,11,10.2
		c8.2,0,16.1-10.3,24-31c2.2-6,4.4-12.2,6.5-18.7c1.7,14.6,4.5,25.6,8.4,33c3.4,6.6,7.8,9.9,13,9.9c6.2,0,12.7-6.4,19.6-19.1
		c3.5-6.7,6.4-13.4,9-20.3c0.2,1.6,0.4,3.3,0.7,5c0.9,6.3,2.8,12.2,5.4,17.7c2.7,5.5,6.5,9.7,11.5,12.5c3.5,2,7.3,3,11.2,3
		c11.3,0,19.3-8.3,24.1-24.8c2,0.4,4,0.6,5.9,0.6c10.4,0,18.6-6.5,24.5-19.5c1.7,15.3,4.5,26.9,8.5,34.8c3.4,6.6,7.7,9.9,13,9.9
		c10.6,0,20.8-17.8,30.8-53.5c0.7-2.3,1.1-4,1.3-5.2c0-0.1,0.1-0.1,0.1-0.2c4.1-16,9.7-30.1,16.7-42.4
		c13.7-23.9,31.6-35.9,53.6-35.9c19.7,0,35.1,7.3,46.3,22c5.9,7.7,10.1,16.5,12.7,26.3c-4.5-0.5-8.9-0.8-13.4-0.8
		c-25.8,0-46.3,7.7-61.5,23.1c-13.3,13.3-20,28.7-20,46c0,7.9,1.6,15.1,4.7,21.7c3.1,6.6,7.7,11.8,13.6,15.8
		c5.9,3.9,13,5.9,21.3,5.9c10,0,19.2-2.7,27.8-8c14.9-9.2,25.4-23.9,31.4-44.1c3.4-11.6,5.1-23.5,5.1-35.7c0-5.5-0.4-10.9-1.3-16.1
		c12.6,2.5,23.8,7.2,33.4,14c10.4,7.5,17.7,17,21.8,28.6c-18.6,11.4-28,22.8-28,34.2c0,5,1.5,9,4.4,11.9c2.9,3,6.9,4.4,12,4.4
		c5.7,0,10.5-2.7,14.6-8c4.4-5.8,6.6-13.2,6.6-22.3c0-6.4-0.7-12.5-2.2-18c5.3-3.1,11.6-6.3,18.7-9.7c13.8-6.6,25.7-13.5,35.7-20.7
		c7.8-5.6,14.3-12.3,19.3-20c5.7-8.7,8.5-18.3,8.5-28.8C970.1,818.1,966.5,808.8,959.3,801.9z M203.9,929
		c10.9,7.8,16.4,15.8,16.4,24.1c0,6.7-3.3,10.1-9.9,10.1c-3.6,0-6.8-1.8-9.4-5.4c-3.5-4.7-5.3-10.9-5.3-18.4
		c0-5.2,0.5-10.2,1.5-14.8C199.6,926.1,201.8,927.6,203.9,929z M275.2,874.1c24.1,0,43.1,7,57.1,21.1c12,12,18.1,25.9,18.1,41.5
		c0,6.7-1.3,12.9-3.9,18.5c-2.6,5.6-6.3,10.1-11.2,13.5c-4.9,3.4-10.9,5-18,5c-8.2,0-15.5-1.7-21.9-5c-6.3-3.3-11.8-7.8-16.4-13.5
		c-4.6-5.6-8.4-12-11.3-19.1c-2.9-7.1-5.1-14.4-6.5-21.9c-1.4-7.5-2.1-14.8-2.1-21.8c0-6,0.5-11.8,1.4-17.3
		C265.3,874.4,270.2,874.1,275.2,874.1z M431.5,875.4c-6.4,0-13.2,0.9-20.6,2.6c2.1-10.6,4.2-21.2,6.2-31.8
		c7.7-42.8,15.1-71,22.1-84.5c0.9-1.7,1.5-2.6,2.1-2.6c0.5,0,0.8,0.9,0.9,2.6l0.9,29c1.1,35,2.6,63.8,4.7,86.5
		C442.4,876,437,875.4,431.5,875.4z M523.8,779c2.1-11.6,4.8-21.1,8.2-28.6c1.5-3.1,2.8-4.6,4-4.6c2.1,0,3.1,5.1,3.1,15.2
		c0,4.1-0.3,8.3-0.8,12.4c-3.2,27.5-10.5,56.3-22.1,86.4C516.2,832.1,518.7,805.2,523.8,779z M584.7,934.8c-4.4,0-8-2.9-10.8-8.6
		c-4.3-8.7-6.5-19.5-6.5-32.5c0-6.4,0.4-13.1,1.3-19.9c2.5,9.2,6.2,17.8,11.1,25.8c4.9,8,11,13.8,18.2,17.5
		C594.8,929,590.4,934.8,584.7,934.8z M599.6,910.9c-5.7-3.4-10.4-8.2-14.2-14.4c-7.1-11.5-11.6-24.1-13.3-37.8
		c0.9-2.3,1.3-4.2,1.3-5.7c0-2.4-0.6-4-1.9-4.9c0-2.7,0.2-5.3,0.7-7.6c0.5-2.3,1.4-4.1,2.8-5.5c1.4-1.3,2.7-2,3.9-2
		c4,0,7.6,2.4,10.7,7.2c4.8,7.3,8.1,16.8,9.8,28.5c1,6.7,1.6,15,1.6,24.9C601,899.3,600.5,905.1,599.6,910.9z M817,908.1
		c-2.3,9.7-5.9,18.6-10.7,26.9c-4.9,8.3-11.4,14.8-19.5,19.7c-7.6,4.6-15.7,7-24.5,7c-7.1,0-13.2-1.7-18.1-5.1
		c-4.9-3.4-8.7-7.9-11.2-13.5c-2.5-5.6-3.8-11.7-3.8-18.4c0-15.6,6-29.5,18-41.5c13.9-14.1,32.9-21.2,57-21.2c5,0,9.9,0.3,14.8,1
		c0.9,5.5,1.4,11.3,1.4,17.3C820.4,889.1,819.2,898.4,817,908.1z M878.6,945.5c-2.7,3.6-5.9,5.4-9.5,5.4c-6.6,0-9.9-3.3-9.9-10
		c0-8.2,5.5-16.2,16.5-24.1c2-1.4,4.2-2.8,6.6-4.4c1,4.6,1.6,9.5,1.6,14.7C883.7,934.7,882,940.8,878.6,945.5z"/>
	<g>
		<path class="st2" d="M537.1,449.4c2.6,1.9,5.1,2.8,7.9,2.8c1.9,0,8.4-1.2,19.5-3.3l4.2-0.9c-5.3,30-9.1,58.4-11.4,85.1
			c-2.3,26.7-3.5,46.7-3.7,59.5c0,13,0,20.7,0,23.5c0,36.7,1.9,70.4,5.8,101.4c1.6,13.7,3.3,24.4,4.9,32.5l-8.1-0.2
			c-1.3,0.1-2.6,0.4-3.8,0.7c0.2,1.6,0.3,3.3,0.3,5.1c1.1-0.4,2.4-0.6,4-0.6c5,0,8.9,3.1,10.1,8.1c0,0.1,0,0.1,0,0.2
			c1,4.4,2.9,7.4,6.2,9.5c1.8,1.2,3.6,2,5.6,2.6l18.1,0.3c8.6-0.8,18.9-2.4,31-4.7c0.4-5.8,0.8-11.2,1.2-16.4
			c-2.3-2.2-5.3-3.4-8.7-3.4l-5.8-0.2c-3-21.9-5.3-43.2-6.7-64.2c20.5-3,38.6-8.1,54.6-15.8c16-7.7,30-17,41.8-28.1
			c11.9-10.9,21.6-23.2,29.3-36.7c7.7-13.3,13.3-27,16.7-40.7c3.5-13.7,5.1-27.9,5.1-42.1c-0.2-30.2-8.4-55.6-24.2-76
			c-16.5-20.9-39.3-32.3-68.4-34.2l-11.4-0.2c-20.5,0.2-47,3.5-79.5,9.5l-28.8,4.9c-3.5,0.7-6.3,2.1-7.9,4.4
			c-1.9,2.6-2.8,5.1-2.8,7.9C532.4,443.8,534.1,447.3,537.1,449.4z M611.5,509.1c4-35.6,7.2-58.6,10-68.8c2.6-0.7,7.4-0.9,14.9-0.9
			c7.9,0,14.6,1.6,20.7,4.9c11.9,6.5,21.6,20.7,29.1,42.1c6.5,18.6,9.8,38.6,9.8,60c0,15.8-2.3,31.2-6.7,45.8
			c-7.7,25.1-22.1,43.7-43,56.3c-10.9,6.7-24.2,11.2-39.5,13.3c-0.7-14.9-0.9-29.5-0.9-43.5C605.7,581.2,607.5,544.9,611.5,509.1z"
			/>
		<path class="st2" d="M820.5,660.9c8.6,2.3,17,3.5,24.9,3.5c7.2,0,13.3-1.2,18.4-3.3c9.8-4.2,16.7-6.5,20.9-6.5
			c3,0,5.6,0.9,7.9,2.6c3.3,2.6,5.8,7.4,7.4,15.1c1.4,5.3,1.9,11.6,1.9,18.8c-0.2,8.6-1.4,16.7-3.5,23.9c-2.1,7.4-4.9,14.2-8.8,20.5
			c-4,6.3-8.4,10.9-13.3,14.4c-5.1,3.5-9.1,5.3-11.9,5.6c-2.6,0.2-4.2,0.2-4.6,0.2c-4.2,0-7.9-1.4-11.2-4c-3.3-2.8-5.1-6-5.3-9.8
			c-0.5-3.5-0.7-5.8-0.7-7c0-5.8,1.6-13,4.6-21.6c2.1,0.5,4.2,0.7,6.3,0.9c2.1,0,4-0.5,5.6-1.6c2.3-1.9,3.7-4.4,3.7-7.4
			c0-2.1-0.5-4-1.9-6c-1.2-1.9-3.3-3-5.8-3.5l-27.7-4.4c-1.9,0-3.5,0.7-5.1,1.9c-2.6,1.9-4,4.4-4,7.9c0,4.7,3.5,7.9,10,9.3
			c-2.8,8.8-4.4,17-4.4,24.2c0,9.1,2.3,17,7,23.7c3.5,5.3,8.1,9.5,13.9,12.6c7.7,4.2,16.5,6.3,26.5,6.3c12.3,0,23.7-2.8,34.6-8.4
			c16.3-8.8,28.8-21.9,37.7-39.3c5.3-11.2,8.1-22.1,8.1-33.5c0-15.8-5.6-29.1-16.5-39.8c-15.1-13.7-32.3-20.7-52.1-20.7
			c-10,0.2-19.5,2.1-28.6,6c-4.9,2.1-9.1,3-12.8,3c-8.4,0-14.2-4.4-17.7-13.5c-2.1-6-3.3-13.7-3.3-22.8c0.2-10,1.6-20.5,4.2-31.6
			c2.6-10.9,6.3-22.3,11.2-33.7c4.9-11.4,10.7-22.6,17.4-33.2c6.7-10.5,14.6-20.2,23.5-28.8c8.6-8.6,18.4-15.3,28.8-20.7
			c5.8-2.8,10.9-4.4,15.3-4.4c6.5,0.2,11.4,3,14.6,8.6c3.5,6.3,5.1,14.9,5.1,26.3c0,10.7-1.4,22.8-4.6,35.8
			c-1.9,7.9-4,15.1-6.5,21.6c-0.5,1.6-0.7,3-0.7,4.4c0,5.6,2.6,9.5,7.9,11.9c1.9,0.7,3.5,1.2,5.1,1.2c5.3,0,9.1-2.6,10.9-7.7
			c11.9-30.5,17.7-58.1,17.7-83.2c0-41.2-17.7-61.8-53.2-61.8c-4.4,0-9.3,0.5-14.4,1.2c-28.4,4.2-53.7,17.4-76,39.8
			c-20.5,20.5-35.6,45.1-45.6,74.2c-7,20.2-10.5,39.8-10.5,58.4c0,21.2,4.2,39.1,13,53.5C790.5,649.3,802.6,656.5,820.5,660.9z"/>
		<path class="st2" d="M330.9,589.8c0,7.2,0,11.2,0,11.9c0,27.4,5.6,52.3,16.7,74.6c5.6,11.4,12.6,21.4,20.9,30
			c18.8,18.1,38.1,27.2,58.4,27.2h2.1c20.5-0.9,38.1-10.2,53.5-28.1c9.1-10.7,16.3-23.2,21.4-37.7c7.2-1.2,14.4-3.5,22.1-6.7
			c5.1-2.1,7.7-5.8,7.7-11.2c0-1.6-0.5-3.5-1.2-5.1c-2.1-5.1-6-7.7-11.4-7.7c-1.6,0-3,0.2-4.4,0.9c-1.6,0.7-3,1.2-4.2,1.6
			c4.4-18.8,6.5-37.4,6.5-55.6c0-21.4-3-39.5-9.1-54.2c-9.3-22.3-23.9-33.5-43.7-33.5c-13,0-24.6,3.7-34.4,11.2
			c-17.2,12.8-25.8,33-25.8,60.7c0,19.1,4.6,37.4,13.9,55.1c8.4,15.6,19.3,27.4,33.5,35.6c7.2,4.4,14.9,7.2,23.5,8.8
			c-4.6,10.5-10,18.8-16,25.3c-6.3,6.5-11.4,10.2-15.8,11.4c-4.4,1.2-7.7,1.9-9.5,1.9c-12.3,0-22.8-9.1-31.6-27
			c-4.2-8.6-7.4-18.6-9.5-30c-2.1-11.2-3.3-20-3.3-26.7v-11.4c0-25.6,4-49.1,12.3-70.7c9.1-24.2,21.9-41.2,38.4-50.9
			c3.5-2.1,6-4.9,7.4-8.1c1.4-3.5,2.1-6.7,2.1-10.2c-0.2-3.7-0.7-6.7-1.9-9.3c-1.2-2.3-2.6-3.5-4.2-3.5c-15.3,0.7-29.1,4-41.2,9.5
			c-12.3,5.6-22.8,13-31.9,22.1c-9.1,9.3-16.7,19.8-22.8,31.6c-6.3,11.9-10.7,24.2-13.7,37.4C332.7,572.4,331.1,582.6,330.9,589.8z
			 M452.2,626.3c-8.4-9.3-14.2-20.2-17.7-32.8c-2.6-8.6-3.7-17-3.7-25.3c0-10.9,1.9-20,5.6-27.7c5.3-10.7,13.7-17,24.9-18.8l3.7-0.2
			c9.5,0,16.7,6,21.6,17.9c4.9,11.9,7.4,26.7,7.4,44.6c0,19.8-2.8,39.5-8.4,59.5C472.7,642.1,461.5,636.3,452.2,626.3z"/>
		<path class="st2" d="M128.6,471.2l4.2-0.2c-0.5,10-0.7,27.4-0.7,52.1c0,31.6,0.7,60.4,2.1,86.3c2.1,47.2,7,84.9,13.9,112.5
			l-15.8,0.7c-3.5,0.2-6.5,1.6-8.6,4.2c-2.1,2.6-3.3,5.6-3.3,9.1c0.2,3.5,1.6,6.5,4.2,8.6c2.6,2.1,5.3,3.3,8.8,3.3l57.2-3
			c3.5-0.2,6.3-1.6,8.4-4c2.1-2.6,3.3-5.3,3.3-8.8c-0.2-4-1.4-7-4-9.1c-2.6-2.1-5.6-3.3-9.1-3.3l-7.7,0.5l-0.5-7.9
			c-0.7-6.7-1.2-16.7-1.9-29.5c25.3-6.5,46.5-9.8,63.5-9.8l8.4,0.2c0.7,29.5,2.6,54.9,6,76.3c-5.8-0.5-10.5-0.9-14.2-1.6
			c-3.7-0.5-6-0.7-6.7-0.9c-0.7-0.2-1.4-0.2-2.1-0.2c-2.6,0-4.9,0.7-7,2.3c-3.5,2.3-5.3,5.8-5.3,10.5c0,2.6,0.7,4.6,2.1,6.7
			c1.9,2.8,4.6,4.6,8.1,5.3c0.2,0,2.3,0.2,6.3,0.9c3.7,0.7,8.8,1.2,15.1,1.6c6.3,0.7,13,0.9,20.7,0.9c17.9,0,33.2-2.6,46-7.4
			c5.3-2.3,8.1-6,8.1-11.4c0-1.6-0.2-3-0.9-4.6c-2.3-5.3-6-8.1-11.4-8.1c-1.6,0-3,0.2-4.6,0.9c-4,1.6-8.4,2.8-13,3.7
			c-0.2-12.3-0.2-29.3-0.2-51.1c0-21.9,0.5-47,1.2-75.1c0.7-28.1,2.1-57.9,4.2-89.3c1.9-31.4,4.6-62.5,8.4-93.7h14.4
			c3.5,0,6.5-1.2,9.1-3.7c2.3-2.6,3.5-5.3,3.5-8.8c0-3.5-1.2-6.5-3.5-9.1c-2.6-2.3-5.6-3.5-9.1-3.5h-79.5c-3.5,0-6.3,1.2-8.6,3.5
			c-2.6,2.6-3.7,5.6-3.7,9.1c0,3.5,1.2,6.3,3.7,8.8c2.3,2.6,5.1,3.7,8.6,3.7h13.5c-0.9,10-2.1,26-3.7,48.1
			c-1.6,22.1-2.8,47.2-4,75.3c-1.2,28.1-1.9,56.7-1.9,85.8l-7.2-0.2c-17.4,0-39.1,3.3-64.9,9.3c-0.5-17.7-0.7-37-0.7-57.9
			c0-46.3,2.1-90,6.5-130.7c9.3-0.9,13.9-5.3,13.9-13.3c-0.2-3.5-1.6-6.5-4-8.6c-2.6-2.1-5.3-3.3-8.6-3.3c-40.9,0.9-63,3.3-66.3,6.7
			c-2.1,2.6-3.3,5.3-3.3,8.8c0.2,4,1.4,7,4,9.1C122.6,470.1,125.4,471.2,128.6,471.2z"/>
	</g>
</g>
</svg>
