<?xml version="1.0" encoding="utf-8"?>
<!-- Generator: Adobe Illustrator 22.0.0, SVG Export Plug-In . SVG Version: 6.00 Build 0)  -->
<svg version="1.1" id="Layer_1" xmlns="http://www.w3.org/2000/svg" xmlns:xlink="http://www.w3.org/1999/xlink" x="0px" y="0px"
	 viewBox="0 0 1080 1080" style="enable-background:new 0 0 1080 1080;" xml:space="preserve">
<style type="text/css">
	.st0{fill:#714D22;}
	.st1{fill:#0056B2;}
</style>
<g>
	<g>
		<path class="st0" d="M697.1,452.4c-5.4-0.1-9.9-0.3-15.8-0.4c2.2-38,10-72.6,40.8-98.6c26.6-22.5,46.2-22.2,70.9,2.8
			c12.7,12.9,23.6,27.1,33.2,42.3c2.7,4.3,8.4,9.1,3.6,14.4c-4.2,4.6-10.4,1.7-15.3-0.2c-14-5.6-27.7-11.7-41.6-17.6
			c-3-1.2-5.7-3.5-10.9-2.3c3.7,29-15.6,47.5-31.6,68.6c-4.3-1.5-8.6-2.9-13.9-4.8c9-13.6,17.3-26.5,25.9-39.2
			c5.2-7.7,9-16,12.3-24.6c1.5-4,3-7.9-0.6-11.6c-3.6-3.7-7.8-2.3-11.8-1.3c-9.3,2.4-16.5,7.8-21.5,16.1
			C710.2,413.5,700.1,431.2,697.1,452.4z"/>
		<path class="st0" d="M630.6,475.2c-5.3,4.4-9.2,7.5-14.1,11.5c-25.1-23.1-52.2-43.8-62.1-79.3c-6.2-22.4-15.8-43.9-23.9-65.8
			c-1.3-3.5-3.3-7.3-0.2-10.6c2.6-2.8,5.9-1.3,9.3-0.8c23.9,3.7,42.2,17.5,60,32.3c25.1,20.9,49.9,42.3,60.9,74.8
			c1.8,5.5,3.6,11,5.7,17.2c-6.5,3.2-12.3,6-19,9.2c-17.9-42.2-44.9-75.7-84.8-97.9C577.1,407.1,595.4,445.8,630.6,475.2z"/>
	</g>
	<g>
		<path class="st1" d="M346.3,596.8c-3.3-1.4-6.7-2.6-10-3.8c-3.3-1.1-7.3-2.1-12-2.8c-4.7-0.8-8-1.3-10-1.7
			c-2-0.3-6.1-0.9-12.2-1.6c-6.1-0.7-9.7-1.1-10.6-1.3c-7.5-0.8-13-1.5-16.6-2.1c-3.5-0.6-8.2-1.7-14.1-3.4
			c-5.8-1.7-10.9-3.9-15.2-6.6c-12.1-7.5-18.3-21.2-18.6-40.9c-0.1-31.2,6.7-67.4,20.5-108.5c11.8-35.1,28.8-68.9,50.9-101.5
			c5.7-8.6,10.8-15.3,15.2-20c3.1-3.3,6-5.7,8.8-7.1c2.2-1.1,3.9-1.7,5-1.9c1,0.1,2.1,0.2,3.3,0.2c3.3,0.7,6.3,4.4,8.8,11.1
			c3.1,8.2,4.8,18.1,5.3,29.7c0.5,11.6,0.4,20.7-0.2,27.2c-0.6,6.5-1.8,16.6-3.7,30.3c-4.7,36.7-11.3,74-19.8,111.7
			c-0.7,3.1,0.2,5.8,2.6,8.2c2.4,2.4,5.1,3.5,8.1,3.2c3-0.3,5-2.1,6-5.4c9.6-37,17-70.1,22.1-99.2c6-33.4,7.9-62,5.8-85.8
			c-2.2-26.3-10.8-43.4-25.7-51.4c-3.6-1.9-7.3-3.2-11-3.9c-3.7-0.6-7-0.8-10-0.6c-3,0.2-6.2,1.2-9.7,3c-3.5,1.8-6.4,3.4-8.8,4.9
			c-2.4,1.5-5.2,3.9-8.5,7.4c-3.3,3.5-5.8,6.2-7.5,8c-1.7,1.9-4.1,4.9-7.1,9.2c-3,4.2-5,7.2-6.1,8.8c-1,1.6-2.9,4.4-5.5,8.5
			c-20,30.3-36,64.2-48,101.5c-14.2,43.6-20.7,81.1-19.4,112.5c0.7,18.6,6.5,34.4,17.5,47.3c11,12.9,25.7,21.5,44,25.8
			c5.3,1.3,10.7,2.2,16.2,2.9c5.5,0.7,12.2,1.3,20.1,1.8c7.9,0.5,13.4,0.9,16.5,1.1c11.5,1.1,20.3,2.7,26.3,4.8
			c5.8,2.1,9.5,3.8,11.1,5.2c2.9,2.8,2.6,7-0.8,12.7c-3.3,5.3-11,12.9-23,23c-8.1,6.8-16.4,12.9-24.8,18.4
			c-20.6,12.9-38.8,22.7-54.5,29.2c-9.2,3.9-18.7,7.3-28.6,10.2c-14.6,4.3-24.4,6.5-29.4,6.5c-3.8,0-6.9-0.9-9.5-2.8
			c-2.6-1.9-4.4-4.3-5.5-7.3c-1.1-3-2-6.3-2.7-10c-0.7-3.7-1-7.3-0.8-10.9c0.1-3.5,0.1-6.8,0-9.7c0-2.4-1.1-4.4-3.3-6.2
			c-2.2-1.7-4.6-2.4-7.1-2c-2.5,0.4-4,2-4.6,4.8c-3.2,18.1-2.6,32.4,1.7,42.8c3.2,7.7,8.3,13.5,15.3,17.4c7,4,14.8,5.7,23.3,5.1
			c12-0.7,29.2-5.2,51.6-13.6c17.4-6.5,33.6-14.3,48.6-23.2c15.2-9,30-19.8,44.5-32.1c0.4-0.3,2.5-2.1,6.4-5.3
			c3.8-3.3,6.3-5.4,7.3-6.5c1-1,3.1-3.1,6.1-6.1c3-3,5.1-5.4,6.4-7.3c1.3-1.9,2.6-4.3,4-7.2c1.4-2.9,2.4-5.8,2.9-8.6
			c1.5-8.2-0.4-15.4-5.8-21.5C362.1,605.7,355,600.7,346.3,596.8z"/>
		<path class="st1" d="M623.2,499.1c-2.7-1.1-5.5-1.7-8.3-1.8c-2.9-0.1-5.4,0.8-7.7,2.7c-2.3,1.9-3.8,4.5-4.5,7.8
			c-1.1,2.6-2.1,5.5-3,8.6c-0.9,3.1-1.8,6.6-2.7,10.6c-0.9,4-1.6,7-2.2,8.8c-4.5,16.1-7,25.1-7.5,26.7c-4.7,16.3-9.2,29.6-13.4,40.1
			c-2.5,6.3-4.3,10.7-5.4,13.5c-1.1,2.7-3.1,6.4-6.1,11.1c-2.9,4.7-6,8.2-9.2,10.5l0.2-0.2l-2.7,1.5c-0.3,0.1-0.8,0.2-1.5,0.2h-0.8
			c-0.3,0-0.5,0-0.6,0l-0.4,0.2l-1.3-0.6c-1.7-0.7-3.1-1.9-4.2-3.5c-3.3-5.1-5.4-13.8-6.3-25.9c-0.8-13.8-1-27-0.4-39.7
			c1.1-24.4,4.1-55.1,9-92.3c0.4-3.5-0.4-6.8-2.5-10c-3.3-4.9-7.7-7.6-13.1-8.1c-6-0.6-9.6,2.4-10.9,8.8c-7,34.9-10.2,66-9.8,93.3
			c0.3,19.9,1.7,35.8,4.2,47.8c2.9,14.6,7.1,25.6,12.5,33c4.5,6.1,9.9,10.6,16.3,13.5c6.4,2.9,12.7,2.8,19-0.1
			c3.8-1.7,7.3-4.6,10.5-8.8c3.3-4.2,5.6-7.8,7.1-10.8c1.5-3,3.3-7.3,5.5-12.8c4.7-11.5,9.6-26.2,14.6-43.8c0.1-0.3,0.3-0.7,0.4-1.4
			c0.1-0.6,0.2-1.1,0.2-1.4c-0.4,10.9-0.6,16.4-0.6,16.5c-0.1,12.8,1,26.2,3.3,40.1c2.8,17.3,6.9,30.2,12.3,38.8
			c1.3,1.9,3.1,3.3,5.6,4.2s4.7,0.7,6.7-0.4c1.9-1.1,2.9-3.1,2.7-6.1c-0.3-3.8-1-9.9-2.2-18.5c-1.2-8.6-1.8-15.2-2-19.9
			c-0.3-7.1,0.3-19.6,1.9-37.4c0.6-5.7,1.4-14.1,2.6-25.2c1.2-11.1,2.2-21,2.9-29.9c0.8-8.8,1.1-17.2,1.1-25.2c0-3.3-0.9-6.3-2.7-9
			C628.2,502.1,625.9,500.2,623.2,499.1z"/>
		<path class="st1" d="M476.3,445.6c-5.4-0.7-8.6,1.9-9.6,7.7c-1.4,7.7-2.5,21.3-3.3,40.9c0,0.1,0,0.3-0.1,0.6
			c-0.1,0.3-0.1,0.5-0.1,0.6c-0.7-7.2-2-13.1-3.8-17.7c-2.4-6.3-6.2-10.9-11.4-14c-5.2-3.1-10.8-3.9-16.7-2.5
			c-5.9,1.4-10.9,4.9-14.9,10.4c-8.8,11.8-16.1,29.9-22.1,54.3c-5.7,23.5-7.8,45.6-6.3,66.2c2.2,27.8,11.3,44.4,27.3,49.7
			c1.5,0.6,3.3,0.7,5.2,0.4c2.8,0.4,5.4,0,7.8-1.4c2.4-1.3,4.5-2.9,6.2-4.8c1.7-1.9,3.3-4.5,5-7.7c1.7-3.3,2.9-5.9,3.5-7.9
			c0.7-2,1.6-4.6,2.7-7.6c2.9-8.5,6.5-21.5,10.6-39c1-3.9,2.4-9.9,4.4-18c0,1.1-0.1,2.8-0.2,5c-0.1,2.2-0.2,3.9-0.2,5
			c-1.4,56.2-1.9,108.1-1.5,155.7c0.3,24.5,0.8,39.9,1.7,46.3c0.3,2.4,1.3,4.5,2.9,6.5c3.3,3.8,7.2,5.4,11.7,4.8
			c4.7-0.6,6.9-3.6,6.5-9.2c-0.3-3.3-0.2-15.9,0.2-37.8c0.3-16,0.8-39.5,1.7-70.3c0.4-14.7,1.1-39.6,2-74.4
			c0.9-34.9,1.7-61.7,2.4-80.5c0.1-3.3,0.3-8.4,0.5-15c0.2-6.7,0.4-11.7,0.5-15c0-0.7,0-1.7,0.1-2.9c0.1-1.3,0.1-2.2,0.1-2.7v-1.5
			l0.2-0.4c0-0.3,0-0.6,0-0.8c0.4-4.3,0.6-6.5,0.6-6.7c0.3-2.8-0.3-5.6-1.9-8.3C485.3,449,481.3,446.3,476.3,445.6z M435.4,600.1
			c-1.8,4.7-3.8,8.9-5.8,12.5c-2.9,5-4.5,7.7-4.8,7.9c-0.3,0.3-0.6,0.6-1,0.9c-0.4,0.3-0.7,0.6-0.8,0.7c-0.1,0-0.3-0.1-0.4-0.2
			l-0.2-0.2c-0.1-0.1-0.4-0.3-0.8-0.4c-0.4-0.3-0.7-0.5-0.8-0.6l-1.3-1.3c-0.4-0.4-0.8-0.9-1-1.5l-0.6-1.3c0-0.1,0-0.3-0.1-0.4
			c-0.1-0.1-0.1-0.3-0.1-0.4c-1.7-4.9-2.7-10.9-3.1-18c-0.7-13.9,0.8-30.8,4.6-50.5c3.6-18.8,8.4-34.7,14.2-47.6
			c1.4-3.2,2.9-6.1,4.4-8.6c1.1-1.9,2-3.3,2.7-4.2V487l0.4-0.2c0.6,1.4,0.9,2.4,1,3.1c0.7,2.4,1.5,6.3,2.3,11.9
			c1.8,12,2.7,25.8,2.7,41.5c0,2.6,1.3,4.9,3.8,6.7C445.1,571.6,440.1,588.3,435.4,600.1z"/>
		<path class="st1" d="M893.4,418.7c4-26.3,7.9-47.6,11.7-63.9c1.3-5.3-0.1-10-4.2-14.1c-4-4.1-8.7-6-13.9-5.6
			c-5.2,0.3-8.7,3.4-10.5,9.3c-4.2,14.2-7.9,30-11.3,47.4c-3.3,17.4-5.8,32.4-7.5,45c-1.7,12.6-3.6,28.7-5.8,48.3
			c-0.1,1.5-0.4,3.8-0.7,6.9c-0.3,3.1-0.6,5.4-0.7,6.9c-1.5,0.3-2.8,1-3.8,2.1c-0.4-5.4-1.1-10.3-2.1-14.6
			c-2.9-14.3-9.6-22.8-20-25.3c-4.6-1.1-8.9-1-12.8,0.2c-4,1.3-7.4,3.5-10.4,6.7c-3,3.2-5.5,6.4-7.6,9.6c-2.1,3.2-4.2,7-6.3,11.5
			c-6.8,14.2-12.4,31.5-16.7,52c-1.2,6-2.3,11.9-3.1,17.7c-0.6,2-1.2,4-1.9,6.2c-2.9,10-5.1,16.9-6.5,20.8
			c-2.8,7.5-5.5,13.4-8.1,17.5c-1.1,1.8-2.3,3.3-3.5,4.6c-0.4,0.4-1.6,1.1-3.5,2.1l-0.6,0.2h-0.2l-0.2-0.2h-0.4l-0.2-0.2
			c-0.4-0.8-0.7-1.3-0.8-1.5c-0.1-0.1-0.2-0.3-0.2-0.5c0-0.2-0.1-0.4-0.2-0.5c-0.6-1.5-0.9-2.5-1-2.9c0-0.1-0.1-0.4-0.2-0.7
			c-0.1-0.3-0.2-0.6-0.2-0.7c-0.1-0.3-0.2-0.5-0.2-0.6c-1.3-7.4-1.7-19.6-1.5-36.7c0-3.9,0.2-10.9,0.5-20.9
			c0.3-10,0.5-17.7,0.5-23.2c0-3.1-1.3-5.8-4-8.3c-2.6-2.5-5.6-4-9-4.4c-0.3-12-2-22.1-5-30.3c-4-10.2-10.9-15.9-20.7-17.2
			c-9.7-1.3-17.9,2.5-24.4,11.4c-10.2,13.8-18.4,33.7-24.6,59.7c-6.4,25.7-8.7,50-6.9,72.9c2.2,29.9,12,47.8,29.2,53.6
			c2.1,0.7,4.1,0.8,6.1,0.4c4.9,0.4,9.2-0.9,13-4.1c3.8-3.1,7-7.6,9.4-13.4c2.4-5.8,4.3-10.8,5.5-15.1c1.3-4.3,2.4-9.1,3.3-14.4
			c1.9-10.3,3.3-18.1,4.2-23.4c1.3,6.4,2.6,11.8,4.2,16.3c2.2,6.5,5.6,12.1,10,16.7c4.5,4.6,9.8,6.8,16.1,6.7
			c7.8-0.1,14.5-5.6,20-16.6c1.4,12.5,4.4,22.8,9.2,31c3.8,6.3,8.8,11.1,15.1,14.4c6.3,3.3,12.7,3.7,19.1,1c3.8-1.5,7.3-4.2,10.5-8
			c3.3-3.8,5.7-7.3,7.3-10.4c1.6-3.1,3.4-7.2,5.5-12.2c5-11.5,9.6-25.2,13.8-40.9c0.7,21.7,3.1,41.7,7.1,59.9
			c6,25.9,15.9,42.2,29.8,49.1c2.2,1.1,4.6,1.1,7.1,0c2.5-1.1,4.2-2.9,5-5.2c1.8-5,0.1-9.5-5-13.5c0.1,0.1,0.2,0.1,0.2,0.1
			c0.1,0,0.1-0.1,0-0.4l-3.1-3.3l0.4,0.8c-0.3-0.4-0.7-1-1.1-1.9c-0.5-0.8-0.9-1.5-1.1-1.9c-0.6-1-1-2-1.5-3.1
			c-2.1-5.3-3.6-12.9-4.6-23c-1.7-16.3-2.1-39.1-1.3-68.5C879.1,529.8,884.2,477.4,893.4,418.7z M702,595.1
			c-2.8,13.1-5.4,22.5-7.9,28.4c-1.5,3.9-3.7,7.7-6.5,11.3c-1.4,1.8-2.9,3.2-4.4,4.2c-0.6,0.3-1,0.5-1.5,0.6l-1.3-0.6
			c-0.1,0-0.5-0.2-0.9-0.5c-0.5-0.3-0.9-0.6-1.1-0.7l-1.7-1.7l-1.3-1.9c-0.3-0.6-0.6-1.4-1-2.5c-2-5.3-3.1-12-3.5-20.2
			c-0.8-16.1,0.8-34.9,4.8-56.4c4-20.7,9.4-38.4,16.1-53c3.1-6.5,6.3-11.8,9.8-15.7c0.8,2,1.5,3.7,1.9,5.2c0.8,2.8,1.7,7.2,2.5,13.4
			c1.8,12.5,2.7,27,2.7,43.4C705.9,572.1,703.7,587.7,702,595.1z M826,484.9c-0.1,0.1-0.4,0.2-0.8,0.2
			C825.8,484.5,826.1,484.5,826,484.9z M822.6,589.5c-5.8,18.2-11.2,31-16.1,38.4c-2.8,4.2-5.2,7-7.3,8.4l-1,0.4
			c-0.8-0.4-1.1-0.4-0.8,0c-1.4-1.1-2.4-2.9-3.1-5.4c-1.4-4.3-2.3-9.7-2.7-16.3c-0.7-11.5,0.2-25.7,2.7-42.4
			c5.3-36.6,13.8-64.2,25.5-82.7c0.3-0.6,0.8-1.4,1.7-2.5l1.9-1l0.8,2.1c2.1,6,3.6,12.8,4.6,20.4c1,7.6,1.5,14.7,1.5,21.4
			s0,13.6,0,20.9c0,2,0.7,3.6,2.1,5C829.2,568.2,826,579.3,822.6,589.5z"/>
	</g>
	<g>
		<path class="st0" d="M148,553.6c-1.4,0.7-2.8,1.6-4.3,2.6c-1.5,1-2.6,2-3.5,2.9c-0.9,0.9-2.1,2.1-3.7,3.7
			c-1.5,1.5-2.6,2.6-3.3,3.3c-7.4,7-12.2,11.4-14.4,13.4c-1,0.8-3.2,2.7-6.7,5.6c-3.5,2.9-6.1,5.2-7.9,6.9l-1.5,1.5l-1.3,0.8
			l0.4-0.2c-0.4,0.3-2.2,1.5-5.4,3.5c-0.4,0.3-0.7,0.5-0.8,0.6h-0.2l-0.6,0.2c-0.3,0.1-0.7,0.4-1.3,0.7c-0.6,0.3-1,0.7-1.3,0.9
			c-0.1,0.1-0.3,0.3-0.4,0.4c-0.1,0.1-0.3,0.2-0.4,0.2l-1.3,1c-0.8,0.4-1.5,1-2.1,1.7c-4.2,4.9-4.5,10.2-1,16.1v0.2
			c1.3,2.1,2.9,3.8,5,5v0.2l0.2,0.2c5.1,3.6,10.5,3.4,16.1-0.6c0.1-0.1,0.4-0.4,0.8-0.8c0.4-0.4,0.8-0.9,1.3-1.4
			c0.4-0.5,0.7-0.8,0.8-0.9c0.1-0.1,0.2-0.3,0.2-0.4c1.5-1.9,2.4-3.1,2.5-3.3c-0.1,0-0.1-0.3,0.2-0.8c2.4-3.1,3.8-5,4.2-5.8l0.2-0.2
			c0.1-0.1,0.4-0.5,0.8-0.9c0.4-0.5,0.8-0.9,1-1.1c3.8-4.2,7.9-9.3,12.5-15.2c2.5-3.3,6.4-8.5,11.7-15.4c0.7-1,1.8-2.4,3.2-4.3
			c1.5-1.9,2.5-3.3,3.2-4.3c0.3-0.4,0.8-1.1,1.5-2c0.7-0.9,1.2-1.6,1.5-2c0.7-1.5,1.3-3.3,1.9-5.2c0.6-2.1-0.1-3.9-2.1-5.5
			C151.9,553.1,149.9,552.7,148,553.6z"/>
		<path class="st0" d="M92.6,407.4l-0.2-0.8c-0.1-0.2-0.2-0.3-0.3-0.5c0.2,0.2,0.5,0.5,0.9,0.9c1.1,1,3.3,2.4,6.5,4.2h-0.4l0.8,0.6
			c0.6,0.4,1.1,0.9,1.8,1.4c0.6,0.5,1,0.7,1.1,0.7h0.2l0.2,0.2l1.5,1.5c3.2,2.9,8.1,7.3,14.8,13.2c1.5,1.4,6.2,5.8,14,13.2
			c0.7,0.7,2.1,2.2,4.3,4.5c2.2,2.3,4,4.1,5.6,5.4c1.6,1.3,3.3,2.5,5.1,3.4c1.9,1.1,3.8,1.1,5.5,0.1c1.7-1,2.3-2.7,1.6-5.1
			c-0.6-1.5-1.3-3.1-2.3-4.8c-1-1.7-1.8-3-2.6-4.1c-0.8-1-1.9-2.5-3.4-4.5c-1.5-1.9-2.6-3.3-3.1-4c-1.4-1.8-3.5-4.5-6.3-7.9
			c-2.8-3.5-4.9-6.1-6.3-7.9c-3.9-5.1-8.1-10.2-12.7-15.2l-1.5-1.5c0-0.1-0.1-0.2-0.2-0.2v-0.2c-0.1-0.4-0.4-0.9-0.8-1.5
			c-0.4-0.6-0.8-1-1.1-1.5c-0.3-0.4-0.8-0.9-1.3-1.4c-0.5-0.5-0.9-0.9-1.1-1.4v-0.2l0.2,0.2c-0.3-1-1.4-2.4-3.3-4.4l-0.6-0.6l1,1.3
			l-0.2-0.2l-0.2-0.2c-0.4-0.4-0.9-1-1.5-1.8c-0.6-0.8-1-1.3-1.3-1.6c-0.7-0.8-1.7-1.7-3.1-2.5c-2.5-1.7-5.3-2.5-8.4-2.5
			c-3.1,0-5.6,1-7.5,3.1c-2.5,3.1-3.6,6.3-3.2,9.6c0.3,3.3,1.8,6.5,4.5,9.4L92.6,407.4z"/>
		<path class="st0" d="M92.4,515c1.9-0.2,3.4-0.4,4.4-0.5c0.3,0,6.1-0.4,17.3-1.3c19.1-1,31.2-1.9,36.5-2.7c1.3-0.1,2.2-0.6,2.7-1.4
			c0.6-0.8,0.8-1.6,0.7-2.6c-0.1-1-0.3-1.9-0.8-2.8c-0.5-0.9-1.1-1.7-2-2.4c-0.8-0.7-1.7-1.1-2.7-1.3c-2.9-0.4-14.5-1.2-34.7-2.3
			c-7.5-0.3-13-0.6-16.5-1c-1.7-0.3-4.5-0.6-8.4-0.8c-0.1,0-0.8-0.1-1.9-0.4c-1.1-0.3-1.9-0.3-2.3-0.2c-0.1,0-0.3-0.1-0.4-0.2
			c-0.1,0-0.4-0.1-0.7-0.3c-0.3-0.2-0.7-0.4-0.9-0.5c-1.4-0.7-3.1-0.9-5.2-0.6c-2.1,0.3-3.6,1-4.6,2.3c-1,1.1-1.7,2.5-2.3,4.2
			l-0.2,0.2c-0.6,2-0.2,4.2,1,6.9c1.3,2.6,2.9,4.5,4.8,5.4c4.3,2.1,8.3,3,11.9,2.7C89.1,515.3,90.5,515.2,92.4,515z"/>
		<path class="st0" d="M987.3,602l0.2,0.8c0.1,0.2,0.2,0.3,0.2,0.5c-0.2-0.2-0.5-0.5-0.9-0.9c-1.1-1-3.3-2.4-6.5-4.2h0.4l-0.8-0.6
			c-0.6-0.4-1.1-0.9-1.8-1.4c-0.6-0.5-1-0.7-1.1-0.7h-0.2l-0.2-0.2c-0.1-0.1-0.3-0.3-0.5-0.4c-0.2-0.1-0.4-0.3-0.5-0.5
			c-0.1-0.2-0.3-0.4-0.4-0.5c-3.2-2.9-8.1-7.3-14.8-13.1c-1.5-1.4-6.2-5.8-14-13.2c-0.7-0.7-2.1-2.2-4.3-4.5c-2.2-2.3-4-4.1-5.6-5.4
			c-1.6-1.3-3.3-2.5-5.1-3.4c-2-1.1-3.8-1.1-5.5-0.1c-1.7,1-2.3,2.7-1.6,5.1c0.6,1.5,1.3,3.1,2.3,4.8c1,1.7,1.8,3,2.6,4.1
			c0.8,1,1.9,2.5,3.4,4.5c1.5,2,2.6,3.3,3.1,4c1.4,1.8,3.5,4.5,6.3,7.9c2.8,3.5,4.9,6.1,6.3,7.9c3.9,5.1,8.1,10.2,12.7,15.2l1.5,1.5
			l0.2,0.2v0.2c0.1,0.4,0.4,0.9,0.8,1.5c0.4,0.6,0.8,1,1.1,1.5c0.3,0.4,0.8,0.9,1.3,1.4c0.5,0.5,0.9,0.9,1.1,1.4v0.2l-0.2-0.2
			c0.3,1,1.4,2.4,3.3,4.4l0.5,0.5c0.2,0.3,0.5,0.6,0.7,0.9c0.6,0.7,1,1.3,1.5,1.7c0.7,0.8,1.7,1.7,3.1,2.5c2.5,1.7,5.3,2.5,8.4,2.5
			c3.1,0,5.6-1,7.5-3.1c2.5-3.1,3.6-6.3,3.2-9.6c-0.3-3.3-1.8-6.5-4.5-9.4L987.3,602z"/>
		<path class="st0" d="M1009.7,505.1c-0.6-4.9-3.2-8.4-7.9-10.4c-3.3-1.4-6.1-1.5-8.3-0.2c-0.6,0.3-1.1,0.5-1.7,0.6
			c-2,0.6-4.8,1-8.6,1.3c-0.3,0-6.1,0.4-17.3,1.3c-19.6,1-31.8,1.8-36.5,2.5c-2.1,0.3-3.3,1.3-3.5,2.9c-0.3,1.7,0.2,3.3,1.5,4.9
			c1.3,1.6,2.6,2.5,4.2,2.6c6.5,0.8,18.8,1.7,36.7,2.7c11.7,0.8,17.7,1.3,18,1.3c0.4,0,1.6,0.1,3.5,0.4c1.9,0.3,3.3,0.4,4.2,0.4
			c0.8,0,2,0,3.5,0c1.5,0,2.9-0.1,4.1-0.4c1.2-0.3,2.3-0.7,3.4-1.3C1008.5,512,1010.1,509.2,1009.7,505.1z"/>
		<path class="st0" d="M926.3,454.7c2,1.6,4,2,5.9,1.1c1.4-0.7,2.8-1.6,4.2-2.6c1.4-1,2.6-2,3.5-2.9c1-0.9,2.2-2.1,3.7-3.7
			c1.5-1.5,2.5-2.6,3.2-3.3c7.4-7,12.2-11.4,14.4-13.4c1-0.8,3.2-2.7,6.7-5.6c3.5-2.9,6.1-5.2,7.9-6.9c0.1-0.1,0.3-0.3,0.4-0.5
			c0.1-0.2,0.3-0.4,0.5-0.5c0.2-0.1,0.4-0.3,0.5-0.4c0.1-0.1,0.6-0.4,1.3-0.8l-0.4,0.2c0.7-0.4,1.7-1.1,2.9-2
			c1.3-0.9,2.1-1.5,2.5-1.8c0.4-0.3,0.7-0.5,0.8-0.6l0.2,0.2l0.6-0.2l2.5-1.9c0.4-0.3,0.7-0.5,0.8-0.6l1.5-0.8
			c0.6-0.3,1.2-0.9,1.9-1.9c4.2-4.9,4.5-10.2,1-15.9v-0.2c-1.3-2.1-2.9-3.8-5-5v-0.2l-0.2-0.2c-5.2-3.6-10.5-3.4-16.1,0.6
			c-0.1,0.1-0.4,0.4-0.8,0.8c-0.4,0.4-0.8,0.9-1.3,1.4c-0.4,0.5-0.7,0.8-0.8,0.9c-0.1,0.1-0.2,0.3-0.2,0.4c-1.5,2-2.4,3.1-2.5,3.3
			c0.1,0,0.1,0.3-0.2,0.8c-2.4,3.1-3.8,5-4.2,5.8l-0.2,0.2c-0.3,0.1-0.6,0.5-1,0.9c-0.4,0.5-0.7,0.9-0.8,1.1
			c-3.8,4.2-7.9,9.3-12.5,15.2c-1.4,1.8-3.4,4.5-6.1,7.9c-2.6,3.5-4.5,5.9-5.6,7.3c-0.7,1-1.8,2.4-3.2,4.4c-1.5,2-2.5,3.4-3.2,4.4
			c-0.3,0.4-0.8,1.1-1.5,2c-0.7,0.9-1.2,1.6-1.5,2c-0.8,1.5-1.5,3.3-1.9,5.2C923.5,451.3,924.3,453.1,926.3,454.7z"/>
		<polygon class="st0" points="966,392 966,391.8 965.8,392.4 		"/>
	</g>
	<g>
		<path class="st0" d="M451.3,737.8c-34.3,14-68,30-101,47.9c-8.6,4.7-17.7,9.4-24,19.2c16.1,12.8,29.2,2.1,41.4-4
			c27.7-13.8,56-25.8,84.7-36.2C451.9,758.9,451.6,750,451.3,737.8z"/>
		<path class="st0" d="M804.9,688.8c-31.2-12.7-64.1-14.9-97.1-12.5c-75.6,5.5-148,21.8-217.8,46.7c-0.1,3.4-0.1,6.6-0.2,9.4
			c-0.2,8.2-0.3,14.7-0.3,19.8c60.9-18.9,123.6-30.8,187.9-37.1c29.5-2.9,59.4-3.5,88.6,3.9c9.5,2.4,19,5.8,22.4,16
			c4.4,13,12.5,10.2,20.3,5.1c11-7.2,16.8-18.3,16.4-31.5C824.7,696.4,814.1,692.5,804.9,688.8z"/>
	</g>
</g>
</svg>
