  0
SECTION
  2
HEADER
  9
$ACADVER
  1
AC1024
  9
$ACADMAINTVER
 70
     6
  9
$DWGCODEPAGE
  3
ANSI_1252
  9
$INSBASE
 10
0.0
 20
0.0
 30
0.0
  9
$EXTMIN
 10
1.000000000000000E+20
 20
1.000000000000000E+20
 30
1.000000000000000E+20
  9
$EXTMAX
 10
-1.000000000000000E+20
 20
-1.000000000000000E+20
 30
-1.000000000000000E+20
  9
$LIMMIN
 10
0.0
 20
0.0
  9
$LIMMAX
 10
12.0
 20
9.0
  9
$ORTHOMODE
 70
     0
  9
$REGENMODE
 70
     1
  9
$FILLMODE
 70
     1
  9
$QTEXTMODE
 70
     0
  9
$MIRRTEXT
 70
     1
  9
$LTSCALE
 40
1.0
  9
$ATTMODE
 70
     1
  9
$TEXTSIZE
 40
0.2
  9
$TRACEWID
 40
0.05
  9
$TEXTSTYLE
  7
Standard
  9
$CLAYER
  8
0
  9
$CELTYPE
  6
ByLayer
  9
$CECOLOR
 62
   256
  9
$CELTSCALE
 40
1.0
  9
$DISPSILH
 70
     0
  9
$DIMSCALE
 40
1.0
  9
$DIMASZ
 40
0.18
  9
$DIMEXO
 40
0.0625
  9
$DIMDLI
 40
0.38
  9
$DIMRND
 40
0.0
  9
$DIMDLE
 40
0.0
  9
$DIMEXE
 40
0.18
  9
$DIMTP
 40
0.0
  9
$DIMTM
 40
0.0
  9
$DIMTXT
 40
0.18
  9
$DIMCEN
 40
0.09
  9
$DIMTSZ
 40
0.0
  9
$DIMTOL
 70
     0
  9
$DIMLIM
 70
     0
  9
$DIMTIH
 70
     1
  9
$DIMTOH
 70
     1
  9
$DIMSE1
 70
     0
  9
$DIMSE2
 70
     0
  9
$DIMTAD
 70
     0
  9
$DIMZIN
 70
     0
  9
$DIMBLK
  1

  9
$DIMASO
 70
     1
  9
$DIMSHO
 70
     1
  9
$DIMPOST
  1

  9
$DIMAPOST
  1

  9
$DIMALT
 70
     0
  9
$DIMALTD
 70
     2
  9
$DIMALTF
 40
25.4
  9
$DIMLFAC
 40
1.0
  9
$DIMTOFL
 70
     0
  9
$DIMTVP
 40
0.0
  9
$DIMTIX
 70
     0
  9
$DIMSOXD
 70
     0
  9
$DIMSAH
 70
     0
  9
$DIMBLK1
  1

  9
$DIMBLK2
  1

  9
$DIMSTYLE
  2
Standard
  9
$DIMCLRD
 70
     0
  9
$DIMCLRE
 70
     0
  9
$DIMCLRT
 70
     0
  9
$DIMTFAC
 40
1.0
  9
$DIMGAP
 40
0.09
  9
$DIMJUST
 70
     0
  9
$DIMSD1
 70
     0
  9
$DIMSD2
 70
     0
  9
$DIMTOLJ
 70
     1
  9
$DIMTZIN
 70
     0
  9
$DIMALTZ
 70
     0
  9
$DIMALTTZ
 70
     0
  9
$DIMUPT
 70
     0
  9
$DIMDEC
 70
     4
  9
$DIMTDEC
 70
     4
  9
$DIMALTU
 70
     2
  9
$DIMALTTD
 70
     2
  9
$DIMTXSTY
  7
Standard
  9
$DIMAUNIT
 70
     0
  9
$DIMADEC
 70
     0
  9
$DIMALTRND
 40
0.0
  9
$DIMAZIN
 70
     0
  9
$DIMDSEP
 70
    46
  9
$DIMATFIT
 70
     3
  9
$DIMFRAC
 70
     0
  9
$DIMLDRBLK
  1

  9
$DIMLUNIT
 70
     2
  9
$DIMLWD
 70
    -2
  9
$DIMLWE
 70
    -2
  9
$DIMTMOVE
 70
     0
  9
$DIMFXL
 40
1.0
  9
$DIMFXLON
 70
     0
  9
$DIMJOGANG
 40
0.7853981633974483
  9
$DIMTFILL
 70
     0
  9
$DIMTFILLCLR
 70
     0
  9
$DIMARCSYM
 70
     0
  9
$DIMLTYPE
  6

  9
$DIMLTEX1
  6

  9
$DIMLTEX2
  6

  9
$DIMTXTDIRECTION
 70
     0
  9
$LUNITS
 70
     2
  9
$LUPREC
 70
     4
  9
$SKETCHINC
 40
0.1
  9
$FILLETRAD
 40
0.5
  9
$AUNITS
 70
     0
  9
$AUPREC
 70
     0
  9
$MENU
  1
.
  9
$ELEVATION
 40
0.0
  9
$PELEVATION
 40
0.0
  9
$THICKNESS
 40
0.0
  9
$LIMCHECK
 70
     0
  9
$CHAMFERA
 40
0.5
  9
$CHAMFERB
 40
0.5
  9
$CHAMFERC
 40
1.0
  9
$CHAMFERD
 40
0.0
  9
$SKPOLY
 70
     0
  9
$TDCREATE
 40
2459562.983671898
  9
$TDUCREATE
 40
2459563.317005232
  9
$TDUPDATE
 40
2459562.983671945
  9
$TDUUPDATE
 40
2459563.317005278
  9
$TDINDWG
 40
0.0000000116
  9
$TDUSRTIMER
 40
0.0000000116
  9
$USRTIMER
 70
     1
  9
$ANGBASE
 50
0.0
  9
$ANGDIR
 70
     0
  9
$PDMODE
 70
     0
  9
$PDSIZE
 40
0.0
  9
$PLINEWID
 40
0.0
  9
$SPLFRAME
 70
     0
  9
$SPLINETYPE
 70
     6
  9
$SPLINESEGS
 70
     8
  9
$HANDSEED
  5
5C
  9
$SURFTAB1
 70
     6
  9
$SURFTAB2
 70
     6
  9
$SURFTYPE
 70
     6
  9
$SURFU
 70
     6
  9
$SURFV
 70
     6
  9
$UCSBASE
  2

  9
$UCSNAME
  2

  9
$UCSORG
 10
0.0
 20
0.0
 30
0.0
  9
$UCSXDIR
 10
1.0
 20
0.0
 30
0.0
  9
$UCSYDIR
 10
0.0
 20
1.0
 30
0.0
  9
$UCSORTHOREF
  2

  9
$UCSORTHOVIEW
 70
     0
  9
$UCSORGTOP
 10
0.0
 20
0.0
 30
0.0
  9
$UCSORGBOTTOM
 10
0.0
 20
0.0
 30
0.0
  9
$UCSORGLEFT
 10
0.0
 20
0.0
 30
0.0
  9
$UCSORGRIGHT
 10
0.0
 20
0.0
 30
0.0
  9
$UCSORGFRONT
 10
0.0
 20
0.0
 30
0.0
  9
$UCSORGBACK
 10
0.0
 20
0.0
 30
0.0
  9
$PUCSBASE
  2

  9
$PUCSNAME
  2

  9
$PUCSORG
 10
0.0
 20
0.0
 30
0.0
  9
$PUCSXDIR
 10
1.0
 20
0.0
 30
0.0
  9
$PUCSYDIR
 10
0.0
 20
1.0
 30
0.0
  9
$PUCSORTHOREF
  2

  9
$PUCSORTHOVIEW
 70
     0
  9
$PUCSORGTOP
 10
0.0
 20
0.0
 30
0.0
  9
$PUCSORGBOTTOM
 10
0.0
 20
0.0
 30
0.0
  9
$PUCSORGLEFT
 10
0.0
 20
0.0
 30
0.0
  9
$PUCSORGRIGHT
 10
0.0
 20
0.0
 30
0.0
  9
$PUCSORGFRONT
 10
0.0
 20
0.0
 30
0.0
  9
$PUCSORGBACK
 10
0.0
 20
0.0
 30
0.0
  9
$USERI1
 70
     0
  9
$USERI2
 70
     0
  9
$USERI3
 70
     0
  9
$USERI4
 70
     0
  9
$USERI5
 70
     0
  9
$USERR1
 40
0.0
  9
$USERR2
 40
0.0
  9
$USERR3
 40
0.0
  9
$USERR4
 40
0.0
  9
$USERR5
 40
0.0
  9
$WORLDVIEW
 70
     1
  9
$SHADEDGE
 70
     3
  9
$SHADEDIF
 70
    70
  9
$TILEMODE
 70
     1
  9
$MAXACTVP
 70
    64
  9
$PINSBASE
 10
0.0
 20
0.0
 30
0.0
  9
$PLIMCHECK
 70
     0
  9
$PEXTMIN
 10
1.000000000000000E+20
 20
1.000000000000000E+20
 30
1.000000000000000E+20
  9
$PEXTMAX
 10
-1.000000000000000E+20
 20
-1.000000000000000E+20
 30
-1.000000000000000E+20
  9
$PLIMMIN
 10
0.0
 20
0.0
  9
$PLIMMAX
 10
12.0
 20
9.0
  9
$UNITMODE
 70
     0
  9
$VISRETAIN
 70
     1
  9
$PLINEGEN
 70
     0
  9
$PSLTSCALE
 70
     1
  9
$TREEDEPTH
 70
  3020
  9
$CMLSTYLE
  2
Standard
  9
$CMLJUST
 70
     0
  9
$CMLSCALE
 40
1.0
  9
$PROXYGRAPHICS
 70
     1
  9
$MEASUREMENT
 70
     0
  9
$CELWEIGHT
370
    -1
  9
$ENDCAPS
280
     0
  9
$JOINSTYLE
280
     0
  9
$LWDISPLAY
290
     1
  9
$INSUNITS
 70
     1
  9
$HYPERLINKBASE
  1

  9
$STYLESHEET
  1

  9
$XEDIT
290
     1
  9
$CEPSNTYPE
380
     0
  9
$PSTYLEMODE
290
     1
  9
$FINGERPRINTGUID
  2
{F4247872-91B7-427C-AE42-61324C71BAF7}
  9
$VERSIONGUID
  2
{FAEB1C32-E019-11D5-929B-00C0DF256EC4}
  9
$EXTNAMES
290
     1
  9
$PSVPSCALE
 40
0.0
  9
$OLESTARTUP
290
     0
  9
$SORTENTS
280
   127
  9
$INDEXCTL
280
     0
  9
$HIDETEXT
280
     1
  9
$XCLIPFRAME
280
     2
  9
$HALOGAP
280
     0
  9
$OBSCOLOR
 70
   257
  9
$OBSLTYPE
280
     0
  9
$INTERSECTIONDISPLAY
280
     0
  9
$INTERSECTIONCOLOR
 70
   257
  9
$DIMASSOC
280
     2
  9
$PROJECTNAME
  1

  9
$CAMERADISPLAY
290
     0
  9
$LENSLENGTH
 40
50.0
  9
$CAMERAHEIGHT
 40
0.0
  9
$STEPSPERSEC
 40
2.0
  9
$STEPSIZE
 40
6.0
  9
$3DDWFPREC
 40
2.0
  9
$PSOLWIDTH
 40
0.25
  9
$PSOLHEIGHT
 40
4.0
  9
$LOFTANG1
 40
1.570796326794897
  9
$LOFTANG2
 40
1.570796326794897
  9
$LOFTMAG1
 40
0.0
  9
$LOFTMAG2
 40
0.0
  9
$LOFTPARAM
 70
     7
  9
$LOFTNORMALS
280
     1
  9
$LATITUDE
 40
37.795
  9
$LONGITUDE
 40
-122.394
  9
$NORTHDIRECTION
 40
0.0
  9
$TIMEZONE
 70
 -8000
  9
$LIGHTGLYPHDISPLAY
280
     1
  9
$TILEMODELIGHTSYNCH
280
     1
  9
$CMATERIAL
347
3C
  9
$SOLIDHIST
280
     1
  9
$SHOWHIST
280
     1
  9
$DWFFRAME
280
     2
  9
$DGNFRAME
280
     2
  9
$REALWORLDSCALE
290
     1
  9
$INTERFERECOLOR
 62
   256
  9
$CSHADOW
280
     0
  9
$SHADOWPLANELOCATION
 40
0.0
  0
ENDSEC
  0
SECTION
  2
CLASSES
  0
CLASS
  1
ACDBDICTIONARYWDFLT
  2
AcDbDictionaryWithDefault
  3
ObjectDBX Classes
 90
        0
 91
        4
280
     0
281
     0
  0
CLASS
  1
VISUALSTYLE
  2
AcDbVisualStyle
  3
ObjectDBX Classes
 90
     4095
 91
        4
280
     0
281
     0
  0
CLASS
  1
MATERIAL
  2
AcDbMaterial
  3
ObjectDBX Classes
 90
     1153
 91
        4
280
     0
281
     0
  0
CLASS
  1
SUN
  2
AcDbSun
  3
SCENEOE
 90
     1024
 91
        4
280
     0
281
     0
  0
ENDSEC
  0
SECTION
  2
TABLES
  0
TABLE
  2
VPORT
  5
8
330
0
100
AcDbSymbolTable
 70
     1
  0
VPORT
  5
29
330
8
100
AcDbSymbolTableRecord
100
AcDbViewportTableRecord
  2
*Active
 70
     0
 10
0.0
 20
0.0
 11
1.0
 21
1.0
 12
0.0
 22
0.0
 13
0.0
 23
0.0
 14
0.5
 24
0.5
 15
0.5
 25
0.5
 16
0.0
 26
0.0
 36
1.0
 17
540.0
 27
-540.0
 37
0.0
 40
1080.0
 41
1.0
 42
50.0
 43
0.0
 44
0.0
 50
0.0
 51
0.0
 71
     0
 72
   100
 73
     1
 74
     3
 75
     0
 76
     0
 77
     0
 78
     0
281
     0
 65
     1
110
0.0
120
0.0
130
0.0
111
1.0
121
0.0
131
0.0
112
0.0
122
1.0
132
0.0
 79
     0
146
0.0
 60
     3
 61
     5
292
     1
282
     1
141
0.0
142
0.0
 63
   250
361
3F
  0
ENDTAB
  0
TABLE
  2
LTYPE
  5
5
330
0
100
AcDbSymbolTable
 70
     1
  0
LTYPE
  5
14
330
5
100
AcDbSymbolTableRecord
100
AcDbLinetypeTableRecord
  2
ByBlock
 70
     0
  3

 72
    65
 73
     0
 40
0.0
  0
LTYPE
  5
15
330
5
100
AcDbSymbolTableRecord
100
AcDbLinetypeTableRecord
  2
ByLayer
 70
     0
  3

 72
    65
 73
     0
 40
0.0
  0
LTYPE
  5
16
330
5
100
AcDbSymbolTableRecord
100
AcDbLinetypeTableRecord
  2
Continuous
 70
     0
  3
Solid line
 72
    65
 73
     0
 40
0.0
  0
ENDTAB
  0
TABLE
  2
LAYER
  5
2
330
0
100
AcDbSymbolTable
 70
     2
  0
LAYER
  5
10
330
2
100
AcDbSymbolTableRecord
100
AcDbLayerTableRecord
  2
0
 70
     0
 62
     7
  6
Continuous
370
    -3
390
F
347
3E
  0
LAYER
  5
40
330
2
100
AcDbSymbolTableRecord
100
AcDbLayerTableRecord
  2
Layer 1
 70
     0
 62
     7
  6
Continuous
370
    -3
390
F
347
3E
  0
ENDTAB
  0
TABLE
  2
STYLE
  5
3
330
0
100
AcDbSymbolTable
 70
     1
  0
STYLE
  5
11
330
3
100
AcDbSymbolTableRecord
100
AcDbTextStyleTableRecord
  2
Standard
 70
     0
 40
0.0
 41
1.0
 50
0.0
 71
     0
 42
0.2
  3
txt
  4

  0
ENDTAB
  0
TABLE
  2
VIEW
  5
6
330
0
100
AcDbSymbolTable
 70
     0
  0
ENDTAB
  0
TABLE
  2
UCS
  5
7
330
0
100
AcDbSymbolTable
 70
     0
  0
ENDTAB
  0
TABLE
  2
APPID
  5
9
330
0
100
AcDbSymbolTable
 70
     1
  0
APPID
  5
12
330
9
100
AcDbSymbolTableRecord
100
AcDbRegAppTableRecord
  2
ACAD
 70
     0
  0
ENDTAB
  0
TABLE
  2
DIMSTYLE
  5
A
330
0
100
AcDbSymbolTable
 70
     1
100
AcDbDimStyleTable
  0
DIMSTYLE
105
27
330
A
100
AcDbSymbolTableRecord
100
AcDbDimStyleTableRecord
  2
Standard
 70
     0
178
     0
340
11
  0
ENDTAB
  0
TABLE
  2
BLOCK_RECORD
  5
1
330
0
100
AcDbSymbolTable
 70
     3
  0
BLOCK_RECORD
  5
1F
330
1
100
AcDbSymbolTableRecord
100
AcDbBlockTableRecord
  2
*Model_Space
340
22
 70
     0
280
     1
281
     0
  0
BLOCK_RECORD
  5
1B
330
1
100
AcDbSymbolTableRecord
100
AcDbBlockTableRecord
  2
*Paper_Space
340
1E
 70
     0
280
     1
281
     0
  0
BLOCK_RECORD
  5
23
330
1
100
AcDbSymbolTableRecord
100
AcDbBlockTableRecord
  2
*Paper_Space0
340
26
 70
     0
280
     1
281
     0
  0
BLOCK_RECORD
  5
41
330
1
100
AcDbSymbolTableRecord
100
AcDbBlockTableRecord
  2
block 2
340
0
102
{BLKREFS
331
42
102
}
 70
     0
280
     1
281
     0
  0
BLOCK_RECORD
  5
52
330
1
100
AcDbSymbolTableRecord
100
AcDbBlockTableRecord
  2
block 3
340
0
102
{BLKREFS
331
53
102
}
 70
     0
280
     1
281
     0
  0
ENDTAB
  0
ENDSEC
  0
SECTION
  2
BLOCKS
  0
BLOCK
  5
20
330
1F
100
AcDbEntity
  8
0
100
AcDbBlockBegin
  2
*Model_Space
 70
     0
 10
0.0
 20
0.0
 30
0.0
  3
*Model_Space
  1

  0
ENDBLK
  5
21
330
1F
100
AcDbEntity
  8
0
100
AcDbBlockEnd
  0
BLOCK
  5
1C
330
1B
100
AcDbEntity
 67
     1
  8
0
100
AcDbBlockBegin
  2
*Paper_Space
 70
     0
 10
0.0
 20
0.0
 30
0.0
  3
*Paper_Space
  1

  0
ENDBLK
  5
1D
330
1B
100
AcDbEntity
 67
     1
  8
0
100
AcDbBlockEnd
  0
BLOCK
  5
24
330
23
100
AcDbEntity
  8
0
100
AcDbBlockBegin
  2
*Paper_Space0
 70
     0
 10
0.0
 20
0.0
 30
0.0
  3
*Paper_Space0
  1

  0
ENDBLK
  5
25
330
23
100
AcDbEntity
  8
0
100
AcDbBlockEnd
  0
BLOCK
  5
43
330
41
100
AcDbEntity
  8
0
100
AcDbBlockBegin
  2
block 2
 70
     0
 10
0.0
 20
0.0
 30
0.0
  3
block 2
  1

  0
SPLINE
  5
45
330
41
100
AcDbEntity
  8
Layer 1
370
     0
100
AcDbSpline
210
0.0
220
0.0
230
1.0
 70
    11
 71
     3
 72
   125
 73
   121
 74
     0
 42
0.0000000001
 43
0.0000000001
 12
1.0
 22
0.0
 32
0.0
 13
1.0
 23
0.0
 33
0.0
 40
0.0
 40
0.0
 40
0.0
 40
0.0
 40
1.0
 40
1.0
 40
1.0
 40
2.0
 40
2.0
 40
2.0
 40
3.0
 40
3.0
 40
3.0
 40
4.0
 40
4.0
 40
4.0
 40
5.0
 40
5.0
 40
5.0
 40
6.0
 40
6.0
 40
6.0
 40
7.0
 40
7.0
 40
7.0
 40
8.0
 40
8.0
 40
8.0
 40
9.0
 40
9.0
 40
9.0
 40
10.0
 40
10.0
 40
10.0
 40
11.0
 40
11.0
 40
11.0
 40
12.0
 40
12.0
 40
12.0
 40
13.0
 40
13.0
 40
13.0
 40
14.0
 40
14.0
 40
14.0
 40
15.0
 40
15.0
 40
15.0
 40
16.0
 40
16.0
 40
16.0
 40
17.0
 40
17.0
 40
17.0
 40
18.0
 40
18.0
 40
18.0
 40
19.0
 40
19.0
 40
19.0
 40
20.0
 40
20.0
 40
20.0
 40
21.0
 40
21.0
 40
21.0
 40
22.0
 40
22.0
 40
22.0
 40
23.0
 40
23.0
 40
23.0
 40
24.0
 40
24.0
 40
24.0
 40
25.0
 40
25.0
 40
25.0
 40
26.0
 40
26.0
 40
26.0
 40
27.0
 40
27.0
 40
27.0
 40
28.0
 40
28.0
 40
28.0
 40
29.0
 40
29.0
 40
29.0
 40
30.0
 40
30.0
 40
30.0
 40
31.0
 40
31.0
 40
31.0
 40
32.0
 40
32.0
 40
32.0
 40
33.0
 40
33.0
 40
33.0
 40
34.0
 40
34.0
 40
34.0
 40
35.0
 40
35.0
 40
35.0
 40
36.0
 40
36.0
 40
36.0
 40
37.0
 40
37.0
 40
37.0
 40
38.0
 40
38.0
 40
38.0
 40
39.0
 40
39.0
 40
39.0
 40
40.0
 40
40.0
 40
40.0
 40
40.0
 10
150.5686007998775
 20
-439.428380221957
 30
0.0
 10
170.5764866490354
 20
-441.0820321175988
 30
0.0
 10
185.7458130933082
 20
-444.0039178292682
 30
0.0
 10
196.0765801326943
 20
-448.1940373569651
 30
0.0
 10
203.394315292936
 20
-449.669303181975
 30
0.0
 10
212.8683083580454
 20
-454.834686701668
 30
0.0
 10
224.4959551518095
 20
-463.687583739832
 30
0.0
 10
230.3397265751482
 20
-468.9415092507879
 30
0.0
 10
233.4386962693434
 20
-477.0561223323939
 30
0.0
 10
233.7928642343941
 20
-488.035329248969
 30
0.0
 10
233.6730721285676
 20
-501.2580339735687
 30
0.0
 10
232.4647343654533
 20
-512.618752705438
 30
0.0
 10
230.1626425926224
 20
-522.1213917088971
 30
0.0
 10
225.4985629940493
 20
-540.3024479442083
 30
0.0
 10
217.4125958507939
 20
-552.017334641132
 30
0.0
 10
205.9021369866414
 20
-557.2699580639819
 30
0.0
 10
200.4724295812666
 20
-558.9236099596237
 30
0.0
 10
194.954180184629
 20
-559.6032999513736
 30
0.0
 10
189.3473887967293
 20
-559.3064238630213
 30
0.0
 10
176.3004659665476
 20
-559.0121519508866
 30
0.0
 10
165.2639671732732
 20
-554.0251545018255
 30
0.0
 10
156.2352882406904
 20
-544.3441294277327
 30
0.0
 10
148.6779688687975
 20
-533.601902546593
 30
0.0
 10
144.9019133590646
 20
-523.2138436305058
 30
0.0
 10
144.9019133590646
 20
-513.1799526794712
 30
0.0
 10
144.9019133590646
 20
-503.1460617284356
 30
0.0
 10
149.3863047988989
 20
-495.0887405235289
 30
0.0
 10
158.3602960309954
 20
-489.0092911528591
 30
0.0
 10
164.8525073315232
 20
-485.0548495724934
 30
0.0
 10
172.4358684655526
 20
-484.0222937037979
 30
0.0
 10
181.1129836092978
 20
-485.9103214586639
 30
0.0
 10
184.3004952947549
 20
-486.5014694591537
 30
0.0
 10
187.4281109272997
 20
-488.0066833106193
 30
0.0
 10
190.4984346831443
 20
-490.4259630130628
 30
0.0
 10
189.7900987530429
 20
-485.2905275198254
 30
0.0
 10
185.4515411811699
 20
-477.9415422450211
 30
0.0
 10
177.482761967527
 20
-468.3803092767548
 30
0.0
 10
168.3342909291187
 20
-462.1823698883663
 30
0.0
 10
160.7795757334388
 20
-459.6146521417477
 30
0.0
 10
154.8186163804876
 20
-460.6771560368998
 30
0.0
 10
146.9670250964564
 20
-462.6849758975923
 30
0.0
 10
140.7404397697173
 20
-467.9974953733545
 30
0.0
 10
136.1362562240565
 20
-476.6134123760803
 30
0.0
 10
131.4148847487832
 20
-489.6590331181542
 30
0.0
 10
128.8185210638148
 20
-500.8726158939544
 30
0.0
 10
128.3445609929386
 20
-510.2580669678018
 30
0.0
 10
128.1674770104128
 20
-528.7320930271435
 30
0.0
 10
129.7325869147917
 20
-546.8233051830866
 30
0.0
 10
133.0372865298614
 20
-564.5304013475215
 30
0.0
 10
134.4539583900651
 20
-572.6176705788857
 30
0.0
 10
137.1987601192086
 20
-576.9249780361934
 30
0.0
 10
141.2716917172929
 20
-577.4562299837708
 30
0.0
 10
157.3863341271062
 20
-579.6997277917944
 30
0.0
 10
174.2666043437193
 20
-581.7661416172923
 30
0.0
 10
191.9151065433471
 20
-583.6541693721592
 30
0.0
 10
204.7224451618767
 20
-585.8377711272697
 30
0.0
 10
214.5480020158229
 20
-589.970598778269
 30
0.0
 10
221.3969854576153
 20
-596.048746060831
 30
0.0
 10
230.0142045484472
 20
-603.3091893443743
 30
0.0
 10
234.3241161819697
 20
-612.6047963388519
 30
0.0
 10
234.3241161819697
 20
-623.9381712204777
 30
0.0
 10
234.3241161819697
 20
-644.9512690880874
 30
0.0
 10
230.516810557674
 20
-664.4292050777767
 30
0.0
 10
222.902199309081
 20
-682.3719791895419
 30
0.0
 10
218.1782236575946
 20
-691.9332121578082
 30
0.0
 10
212.3370564104698
 20
-700.0191793010636
 30
0.0
 10
205.3708850390649
 20
-706.6311827074169
 30
0.0
 10
192.8005264559742
 20
-715.2470997101445
 30
0.0
 10
176.4202580723741
 20
-719.7340953261919
 30
0.0
 10
156.2352882406904
 20
-720.0882632912435
 30
0.0
 10
130.9721747924696
 20
-720.5010252210996
 30
0.0
 10
110.3132448899096
 20
-715.3356417014074
 30
0.0
 10
94.25849853301042
 20
-704.5947169083774
 30
0.0
 10
86.7037833373306
 20
-698.5738615025111
 30
0.0
 10
80.16730104117141
 20
-690.0595073721161
 30
0.0
 10
74.64905164453467
 20
-679.0516545171922
 30
0.0
 10
69.12819807168307
 20
-668.0438016622684
 30
0.0
 10
67.22454525953526
 20
-655.1908899599985
 30
0.0
 10
68.93809320808941
 20
-640.4942214984985
 30
0.0
 10
70.35476506829309
 20
-633.4707582503943
 30
0.0
 10
74.91467761832246
 20
-627.671257822687
 30
0.0
 10
82.61783085817751
 20
-623.0970223034819
 30
0.0
 10
90.31837992181954
 20
-618.5240888723856
 30
0.0
 10
101.1048777985879
 20
-616.6777279369344
 30
0.0
 10
114.9773244884836
 20
-617.5631478495634
 30
0.0
 10
123.5945435793155
 20
-618.0371079204415
 30
0.0
 10
131.8575947050967
 20
-622.0501434656107
 30
0.0
 10
139.7664778658273
 20
-629.6048586612924
 30
0.0
 10
143.0112814279837
 20
-633.5593002416572
 30
0.0
 10
145.1362892182897
 20
-639.0775496382921
 30
0.0
 10
146.1415012367424
 20
-646.1609089393096
 30
0.0
 10
146.3185852192673
 20
-665.8745228763291
 30
0.0
 10
141.2404416027302
 20
-680.0099913638005
 30
0.0
 10
130.9122787395572
 20
-688.569918577934
 30
0.0
 10
132.1518666172342
 20
-690.3980502798877
 30
0.0
 10
135.4279202939542
 20
-691.4319082366892
 30
0.0
 10
140.7404397697173
 20
-691.6675861840195
 30
0.0
 10
151.0686026328904
 20
-691.1949282012501
 30
0.0
 10
160.6311376892627
 20
-685.2053229099511
 30
0.0
 10
169.4254407626204
 20
-673.6948640457995
 30
0.0
 10
175.5035880451833
 20
-665.9044709027876
 30
0.0
 10
179.5478737049179
 20
-654.4825540298989
 30
0.0
 10
181.5556935656114
 20
-639.4317176033437
 30
0.0
 10
181.5556935656114
 20
-630.8743945654242
 30
0.0
 10
170.3707567281599
 20
-622.432957369012
 30
0.0
 10
148.0008830532588
 20
-614.1100101903176
 30
0.0
 10
107.9226111258167
 20
-604.1946092569997
 30
0.0
 10
85.02148550333914
 20
-596.611248122972
 30
0.0
 10
79.29750618582602
 20
-591.357322612017
 30
0.0
 10
73.45373476248824
 20
-586.3403771364974
 30
0.0
 10
70.53184905081798
 20
-576.6906021769682
 30
0.0
 10
70.53184905081798
 20
-562.4053935572192
 30
0.0
 10
70.9433088925689
 20
-531.8909587742519
 30
0.0
 10
72.47977285859815
 20
-508.3101431600217
 30
0.0
 10
75.1360325964788
 20
-491.6655508907397
 30
0.0
 10
76.43291235085599
 20
-481.394679904266
 30
0.0
 10
80.38865601932866
 20
-471.9219889272636
 30
0.0
 10
86.99805524946805
 20
-463.2448737835184
 30
0.0
 10
100.3366458155733
 20
-446.8372615496746
 30
0.0
 10
121.5294318419237
 20
-438.8971282743814
 30
0.0
 10
150.5686007998775
 20
-439.428380221957
 30
0.0
  0
HATCH
  5
46
330
41
100
AcDbEntity
  8
Layer 1
 62
   241
420
 16734367
100
AcDbHatch
 10
0.0
 20
0.0
 30
0.0
210
0.0
220
0.0
230
1.0
  2
SOLID
 70
     1
 71
     0
 91
        1
 92
        1
 93
        1
 72
     4
 94
        3
 73
     0
 74
     1
 95
      125
 96
      121
 40
0.0
 40
0.0
 40
0.0
 40
0.0
 40
1.0
 40
1.0
 40
1.0
 40
2.0
 40
2.0
 40
2.0
 40
3.0
 40
3.0
 40
3.0
 40
4.0
 40
4.0
 40
4.0
 40
5.0
 40
5.0
 40
5.0
 40
6.0
 40
6.0
 40
6.0
 40
7.0
 40
7.0
 40
7.0
 40
8.0
 40
8.0
 40
8.0
 40
9.0
 40
9.0
 40
9.0
 40
10.0
 40
10.0
 40
10.0
 40
11.0
 40
11.0
 40
11.0
 40
12.0
 40
12.0
 40
12.0
 40
13.0
 40
13.0
 40
13.0
 40
14.0
 40
14.0
 40
14.0
 40
15.0
 40
15.0
 40
15.0
 40
16.0
 40
16.0
 40
16.0
 40
17.0
 40
17.0
 40
17.0
 40
18.0
 40
18.0
 40
18.0
 40
19.0
 40
19.0
 40
19.0
 40
20.0
 40
20.0
 40
20.0
 40
21.0
 40
21.0
 40
21.0
 40
22.0
 40
22.0
 40
22.0
 40
23.0
 40
23.0
 40
23.0
 40
24.0
 40
24.0
 40
24.0
 40
25.0
 40
25.0
 40
25.0
 40
26.0
 40
26.0
 40
26.0
 40
27.0
 40
27.0
 40
27.0
 40
28.0
 40
28.0
 40
28.0
 40
29.0
 40
29.0
 40
29.0
 40
30.0
 40
30.0
 40
30.0
 40
31.0
 40
31.0
 40
31.0
 40
32.0
 40
32.0
 40
32.0
 40
33.0
 40
33.0
 40
33.0
 40
34.0
 40
34.0
 40
34.0
 40
35.0
 40
35.0
 40
35.0
 40
36.0
 40
36.0
 40
36.0
 40
37.0
 40
37.0
 40
37.0
 40
38.0
 40
38.0
 40
38.0
 40
39.0
 40
39.0
 40
39.0
 40
40.0
 40
40.0
 40
40.0
 40
40.0
 10
150.5686007998775
 20
-439.428380221957
 10
170.5764866490354
 20
-441.0820321175988
 10
185.7458130933082
 20
-444.0039178292682
 10
196.0765801326943
 20
-448.1940373569651
 10
203.394315292936
 20
-449.669303181975
 10
212.8683083580454
 20
-454.834686701668
 10
224.4959551518095
 20
-463.687583739832
 10
230.3397265751482
 20
-468.9415092507879
 10
233.4386962693434
 20
-477.0561223323939
 10
233.7928642343941
 20
-488.035329248969
 10
233.6730721285676
 20
-501.2580339735687
 10
232.4647343654533
 20
-512.618752705438
 10
230.1626425926224
 20
-522.1213917088971
 10
225.4985629940493
 20
-540.3024479442083
 10
217.4125958507939
 20
-552.017334641132
 10
205.9021369866414
 20
-557.2699580639819
 10
200.4724295812666
 20
-558.9236099596237
 10
194.954180184629
 20
-559.6032999513736
 10
189.3473887967293
 20
-559.3064238630213
 10
176.3004659665476
 20
-559.0121519508866
 10
165.2639671732732
 20
-554.0251545018255
 10
156.2352882406904
 20
-544.3441294277327
 10
148.6779688687975
 20
-533.601902546593
 10
144.9019133590646
 20
-523.2138436305058
 10
144.9019133590646
 20
-513.1799526794712
 10
144.9019133590646
 20
-503.1460617284356
 10
149.3863047988989
 20
-495.0887405235289
 10
158.3602960309954
 20
-489.0092911528591
 10
164.8525073315232
 20
-485.0548495724934
 10
172.4358684655526
 20
-484.0222937037979
 10
181.1129836092978
 20
-485.9103214586639
 10
184.3004952947549
 20
-486.5014694591537
 10
187.4281109272997
 20
-488.0066833106193
 10
190.4984346831443
 20
-490.4259630130628
 10
189.7900987530429
 20
-485.2905275198254
 10
185.4515411811699
 20
-477.9415422450211
 10
177.482761967527
 20
-468.3803092767548
 10
168.3342909291187
 20
-462.1823698883663
 10
160.7795757334388
 20
-459.6146521417477
 10
154.8186163804876
 20
-460.6771560368998
 10
146.9670250964564
 20
-462.6849758975923
 10
140.7404397697173
 20
-467.9974953733545
 10
136.1362562240565
 20
-476.6134123760803
 10
131.4148847487832
 20
-489.6590331181542
 10
128.8185210638148
 20
-500.8726158939544
 10
128.3445609929386
 20
-510.2580669678018
 10
128.1674770104128
 20
-528.7320930271435
 10
129.7325869147917
 20
-546.8233051830866
 10
133.0372865298614
 20
-564.5304013475215
 10
134.4539583900651
 20
-572.6176705788857
 10
137.1987601192086
 20
-576.9249780361934
 10
141.2716917172929
 20
-577.4562299837708
 10
157.3863341271062
 20
-579.6997277917944
 10
174.2666043437193
 20
-581.7661416172923
 10
191.9151065433471
 20
-583.6541693721592
 10
204.7224451618767
 20
-585.8377711272697
 10
214.5480020158229
 20
-589.970598778269
 10
221.3969854576153
 20
-596.048746060831
 10
230.0142045484472
 20
-603.3091893443743
 10
234.3241161819697
 20
-612.6047963388519
 10
234.3241161819697
 20
-623.9381712204777
 10
234.3241161819697
 20
-644.9512690880874
 10
230.516810557674
 20
-664.4292050777767
 10
222.902199309081
 20
-682.3719791895419
 10
218.1782236575946
 20
-691.9332121578082
 10
212.3370564104698
 20
-700.0191793010636
 10
205.3708850390649
 20
-706.6311827074169
 10
192.8005264559742
 20
-715.2470997101445
 10
176.4202580723741
 20
-719.7340953261919
 10
156.2352882406904
 20
-720.0882632912435
 10
130.9721747924696
 20
-720.5010252210996
 10
110.3132448899096
 20
-715.3356417014074
 10
94.25849853301042
 20
-704.5947169083774
 10
86.7037833373306
 20
-698.5738615025111
 10
80.16730104117141
 20
-690.0595073721161
 10
74.64905164453467
 20
-679.0516545171922
 10
69.12819807168307
 20
-668.0438016622684
 10
67.22454525953526
 20
-655.1908899599985
 10
68.93809320808941
 20
-640.4942214984985
 10
70.35476506829309
 20
-633.4707582503943
 10
74.91467761832246
 20
-627.671257822687
 10
82.61783085817751
 20
-623.0970223034819
 10
90.31837992181954
 20
-618.5240888723856
 10
101.1048777985879
 20
-616.6777279369344
 10
114.9773244884836
 20
-617.5631478495634
 10
123.5945435793155
 20
-618.0371079204415
 10
131.8575947050967
 20
-622.0501434656107
 10
139.7664778658273
 20
-629.6048586612924
 10
143.0112814279837
 20
-633.5593002416572
 10
145.1362892182897
 20
-639.0775496382921
 10
146.1415012367424
 20
-646.1609089393096
 10
146.3185852192673
 20
-665.8745228763291
 10
141.2404416027302
 20
-680.0099913638005
 10
130.9122787395572
 20
-688.569918577934
 10
132.1518666172342
 20
-690.3980502798877
 10
135.4279202939542
 20
-691.4319082366892
 10
140.7404397697173
 20
-691.6675861840195
 10
151.0686026328904
 20
-691.1949282012501
 10
160.6311376892627
 20
-685.2053229099511
 10
169.4254407626204
 20
-673.6948640457995
 10
175.5035880451833
 20
-665.9044709027876
 10
179.5478737049179
 20
-654.4825540298989
 10
181.5556935656114
 20
-639.4317176033437
 10
181.5556935656114
 20
-630.8743945654242
 10
170.3707567281599
 20
-622.432957369012
 10
148.0008830532588
 20
-614.1100101903176
 10
107.9226111258167
 20
-604.1946092569997
 10
85.02148550333914
 20
-596.611248122972
 10
79.29750618582602
 20
-591.357322612017
 10
73.45373476248824
 20
-586.3403771364974
 10
70.53184905081798
 20
-576.6906021769682
 10
70.53184905081798
 20
-562.4053935572192
 10
70.9433088925689
 20
-531.8909587742519
 10
72.47977285859815
 20
-508.3101431600217
 10
75.1360325964788
 20
-491.6655508907397
 10
76.43291235085599
 20
-481.394679904266
 10
80.38865601932866
 20
-471.9219889272636
 10
86.99805524946805
 20
-463.2448737835184
 10
100.3366458155733
 20
-446.8372615496746
 10
121.5294318419237
 20
-438.8971282743814
 10
150.5686007998775
 20
-439.428380221957
 97
        0
 97
        0
 75
     2
 76
     1
 98
        0
  0
SPLINE
  5
47
330
41
100
AcDbEntity
  8
Layer 1
370
     0
100
AcDbSpline
210
0.0
220
0.0
230
1.0
 70
    11
 71
     3
 72
   113
 73
   109
 74
     0
 42
0.0000000001
 43
0.0000000001
 12
1.0
 22
0.0
 32
0.0
 13
1.0
 23
0.0
 33
0.0
 40
0.0
 40
0.0
 40
0.0
 40
0.0
 40
1.0
 40
1.0
 40
1.0
 40
2.0
 40
2.0
 40
2.0
 40
3.0
 40
3.0
 40
3.0
 40
4.0
 40
4.0
 40
4.0
 40
5.0
 40
5.0
 40
5.0
 40
6.0
 40
6.0
 40
6.0
 40
7.0
 40
7.0
 40
7.0
 40
8.0
 40
8.0
 40
8.0
 40
9.0
 40
9.0
 40
9.0
 40
10.0
 40
10.0
 40
10.0
 40
11.0
 40
11.0
 40
11.0
 40
12.0
 40
12.0
 40
12.0
 40
13.0
 40
13.0
 40
13.0
 40
14.0
 40
14.0
 40
14.0
 40
15.0
 40
15.0
 40
15.0
 40
16.0
 40
16.0
 40
16.0
 40
17.0
 40
17.0
 40
17.0
 40
18.0
 40
18.0
 40
18.0
 40
19.0
 40
19.0
 40
19.0
 40
20.0
 40
20.0
 40
20.0
 40
21.0
 40
21.0
 40
21.0
 40
22.0
 40
22.0
 40
22.0
 40
23.0
 40
23.0
 40
23.0
 40
24.0
 40
24.0
 40
24.0
 40
25.0
 40
25.0
 40
25.0
 40
26.0
 40
26.0
 40
26.0
 40
27.0
 40
27.0
 40
27.0
 40
28.0
 40
28.0
 40
28.0
 40
29.0
 40
29.0
 40
29.0
 40
30.0
 40
30.0
 40
30.0
 40
31.0
 40
31.0
 40
31.0
 40
32.0
 40
32.0
 40
32.0
 40
33.0
 40
33.0
 40
33.0
 40
34.0
 40
34.0
 40
34.0
 40
35.0
 40
35.0
 40
35.0
 40
36.0
 40
36.0
 40
36.0
 40
36.0
 10
331.8921822010452
 20
-483.5196876945711
 30
0.0
 10
353.4339278400184
 20
-483.5196876945711
 30
0.0
 10
370.7881581275087
 20
-493.6434227249765
 30
0.0
 10
383.9496647110891
 20
-513.8869865214656
 30
0.0
 10
389.2621841868513
 20
-526.1656773686327
 30
0.0
 10
391.9184439247329
 20
-538.3831700747787
 30
0.0
 10
391.9184439247329
 20
-550.5420688161212
 30
0.0
 10
391.9184439247329
 20
-565.8884792429199
 30
0.0
 10
389.4679141077268
 20
-582.7687494595339
 30
0.0
 10
384.5694586499276
 20
-601.1841815540683
 30
0.0
 10
381.1449669290323
 20
-615.5865781034336
 30
0.0
 10
375.272549567344
 20
-628.8379287663847
 30
0.0
 10
366.9522065648634
 20
-640.9369314548094
 30
0.0
 10
375.2152576906446
 20
-637.3379599276013
 30
0.0
 10
382.650180780498
 20
-635.3301400669116
 30
0.0
 10
389.2621841868513
 20
-634.9160760489467
 30
0.0
 10
398.4106552252597
 20
-634.9160760489467
 30
0.0
 10
405.848182491327
 20
-638.8718197174203
 30
0.0
 10
411.5747659850531
 20
-646.7807028781499
 30
0.0
 10
414.0513375641949
 20
-652.3289003012433
 30
0.0
 10
415.2909254418737
 20
-656.6388119347648
 30
0.0
 10
415.2909254418737
 20
-659.7065315143991
 30
0.0
 10
415.2909254418737
 20
-671.2755843433551
 30
0.0
 10
409.0955902296973
 20
-684.0230269089698
 30
0.0
 10
396.6997114529186
 20
-697.9540675636745
 30
0.0
 10
387.4913443615969
 20
-710.8213022351156
 30
0.0
 10
382.887160815937
 20
-722.2705629582451
 30
0.0
 10
382.887160815937
 20
-732.3057559973895
 30
0.0
 10
382.887160815937
 20
-738.916457315634
 30
0.0
 10
384.4809166586656
 20
-742.8422529576528
 30
0.0
 10
387.6684283441227
 20
-744.0818408353298
 30
0.0
 10
393.9835556621247
 20
-746.7953924499088
 30
0.0
 10
400.8898309806154
 20
-745.3214287130068
 30
0.0
 10
408.387254299596
 20
-739.654741272192
 30
0.0
 10
402.1893149112066
 20
-736.5844175163475
 30
0.0
 10
398.4705512781729
 20
-730.5648641985899
 30
0.0
 10
397.2309634004951
 20
-721.5934771427092
 30
0.0
 10
396.2257513820423
 20
-712.503600069107
 30
0.0
 10
399.0903452170114
 20
-703.2353369248704
 30
0.0
 10
405.8195365529773
 20
-693.7925939743254
 30
0.0
 10
414.4940475205094
 20
-683.817296988098
 30
0.0
 10
423.8794985943559
 20
-678.8302995390368
 30
0.0
 10
433.9732855983038
 20
-678.8302995390368
 30
0.0
 10
452.153039745509
 20
-680.0099913638005
 30
0.0
 10
460.9759887572163
 20
-690.9006562891118
 30
0.0
 10
460.4447368096398
 20
-711.4996901387603
 30
0.0
 10
460.4447368096398
 20
-718.6416434045823
 30
0.0
 10
455.4863852989283
 20
-728.5882944524637
 30
0.0
 10
445.5722864537183
 20
-741.3370391061835
 30
0.0
 10
432.7024476060633
 20
-758.3943933053233
 30
0.0
 10
412.6945617569054
 20
-766.4504124221239
 30
0.0
 10
385.5434205538177
 20
-765.5077006327956
 30
0.0
 10
378.2829772702753
 20
-764.799364702696
 30
0.0
 10
372.2647260406256
 20
-762.3488348856881
 30
0.0
 10
367.483458512439
 20
-758.1587153579931
 30
0.0
 10
358.9235312983064
 20
-749.0089422314777
 30
0.0
 10
354.4964317351714
 20
-738.1495274207264
 30
0.0
 10
354.2021598230331
 20
-725.5778667495288
 30
0.0
 10
354.0250758405082
 20
-715.7197576929138
 30
0.0
 10
356.827169446351
 20
-706.4827446632407
 30
0.0
 10
362.6136489929904
 20
-697.8655255724116
 30
0.0
 10
367.2751244153505
 20
-692.4944121318404
 30
0.0
 10
369.6084663027441
 20
-688.9813784196813
 30
0.0
 10
369.6084663027441
 20
-687.3303307002534
 30
0.0
 10
369.7855502852699
 20
-682.3120831366286
 30
0.0
 10
367.6605424949648
 20
-679.8628554077295
 30
0.0
 10
363.2334429318289
 20
-679.9813454254509
 30
0.0
 10
352.9625719453552
 20
-680.2170233727811
 30
0.0
 10
335.7854256403907
 20
-691.2548242541634
 30
0.0
 10
311.7046081931476
 20
-713.0934459814889
 30
0.0
 10
300.2540453819092
 20
-721.7106650723217
 30
0.0
 10
289.6290064303848
 20
-726.4320365475942
 30
0.0
 10
279.8320955147874
 20
-727.2601645835202
 30
0.0
 10
270.0325804229769
 20
-727.5544364956586
 30
0.0
 10
260.1184815777669
 20
-724.161194889326
 30
0.0
 10
250.0845906267314
 20
-717.0778355883122
 30
0.0
 10
241.9387274305627
 20
-709.1676503394738
 30
0.0
 10
237.6001698586906
 20
-702.9697109510853
 30
0.0
 10
237.0689179111141
 20
-698.4853195112482
 30
0.0
 10
237.0090218582009
 20
-697.4228156160971
 30
0.0
 10
237.4517318145145
 20
-697.0686476510455
 30
0.0
 10
238.3970477800549
 20
-697.4228156160971
 30
0.0
 10
244.1210270975671
 20
-701.9671031088437
 30
0.0
 10
251.0273024160579
 20
-706.0686806452795
 30
0.0
 10
259.1132695593142
 20
-709.728850313506
 30
0.0
 10
270.5638323705534
 20
-712.2080260688599
 30
0.0
 10
281.5143933487789
 20
-708.5035854050038
 30
0.0
 10
291.9623483177784
 20
-698.6181324981444
 30
0.0
 10
302.407699110564
 20
-688.7313775031762
 30
0.0
 10
310.7879381659577
 20
-681.2795272679359
 30
0.0
 10
317.1056696601736
 20
-676.2625817924163
 30
0.0
 10
307.483238550888
 20
-678.7417575477739
 30
0.0
 10
299.6628973814204
 20
-679.9813454254509
 30
0.0
 10
293.6446461517698
 20
-679.9813454254509
 30
0.0
 10
284.2591950779224
 20
-679.9813454254509
 30
0.0
 10
274.1654080739745
 20
-676.205289915717
 30
0.0
 10
263.3632851399243
 20
-668.6492726319302
 30
0.0
 10
248.6080227136154
 20
-658.5554856279814
 30
0.0
 10
240.9934114650223
 20
-641.4981314288416
 30
0.0
 10
240.52205557036
 20
-617.4746058583005
 30
0.0
 10
240.8163274824974
 20
-602.188091484415
 30
0.0
 10
244.3580071330052
 20
-584.3924533287172
 30
0.0
 10
251.1470945218844
 20
-564.0876913912107
 30
0.0
 10
261.415361332145
 20
-538.7659839781791
 30
0.0
 10
274.3424920564994
 20
-518.1083561637261
 30
0.0
 10
289.9258825187362
 20
-502.1122037716332
 30
0.0
 10
306.8061527353493
 20
-489.7176270829605
 30
0.0
 10
320.7931831786436
 20
-483.5196876945711
 30
0.0
 10
331.8921822010452
 20
-483.5196876945711
 30
0.0
  0
SPLINE
  5
48
330
41
100
AcDbEntity
  8
Layer 1
370
     0
100
AcDbSpline
210
0.0
220
0.0
230
1.0
 70
    11
 71
     3
 72
    29
 73
    25
 74
     0
 42
0.0000000001
 43
0.0000000001
 12
1.0
 22
0.0
 32
0.0
 13
1.0
 23
0.0
 33
0.0
 40
0.0
 40
0.0
 40
0.0
 40
0.0
 40
1.0
 40
1.0
 40
1.0
 40
2.0
 40
2.0
 40
2.0
 40
3.0
 40
3.0
 40
3.0
 40
4.0
 40
4.0
 40
4.0
 40
5.0
 40
5.0
 40
5.0
 40
6.0
 40
6.0
 40
6.0
 40
7.0
 40
7.0
 40
7.0
 40
8.0
 40
8.0
 40
8.0
 40
8.0
 10
303.8243709707676
 20
-541.5993276985864
 30
0.0
 10
300.2826913202589
 20
-551.3389467374873
 30
0.0
 10
296.6238237401385
 20
-566.2426472079715
 30
0.0
 10
292.8477682304056
 20
-586.3104291100426
 30
0.0
 10
290.7227604401005
 20
-606.438107065027
 30
0.0
 10
293.4076661163308
 20
-626.1517210020465
 30
0.0
 10
300.9024852590974
 20
-645.45257300921
 30
0.0
 10
304.0301008916422
 20
-651.0007704323034
 30
0.0
 10
308.3686584635152
 20
-653.508592126007
 30
0.0
 10
313.9181579747155
 20
-652.9773401784332
 30
0.0
 10
322.1812091004967
 20
-652.9773401784332
 30
0.0
 10
331.1083251607488
 20
-645.0241860220704
 30
0.0
 10
340.6995061554708
 20
-629.1178777093446
 30
0.0
 10
350.2906871501928
 20
-613.2115693966225
 30
0.0
 10
355.7073736744996
 20
-594.3091563501403
 30
0.0
 10
356.9469615521775
 20
-572.4093364817963
 30
0.0
 10
358.717801377431
 20
-552.2829606149207
 30
0.0
 10
355.4990395774103
 20
-535.2555544422348
 30
0.0
 10
347.2958845045423
 20
-521.3245137875329
 30
0.0
 10
343.4599329418961
 20
-514.5380305748677
 30
0.0
 10
339.1812714229363
 20
-510.819266941834
 30
0.0
 10
334.4572957714499
 20
-510.1695249765389
 30
0.0
 10
323.2437129956497
 20
-510.2880149942584
 30
0.0
 10
313.0327380620884
 20
-520.7646159016067
 30
0.0
 10
303.8243709707676
 20
-541.5993276985864
 30
0.0
  0
HATCH
  5
49
330
41
100
AcDbEntity
  8
Layer 1
 62
   131
420
  8320511
100
AcDbHatch
 10
0.0
 20
0.0
 30
0.0
210
0.0
220
0.0
230
1.0
  2
SOLID
 70
     1
 71
     0
 91
        2
 92
        1
 93
        1
 72
     4
 94
        3
 73
     0
 74
     1
 95
      113
 96
      109
 40
0.0
 40
0.0
 40
0.0
 40
0.0
 40
1.0
 40
1.0
 40
1.0
 40
2.0
 40
2.0
 40
2.0
 40
3.0
 40
3.0
 40
3.0
 40
4.0
 40
4.0
 40
4.0
 40
5.0
 40
5.0
 40
5.0
 40
6.0
 40
6.0
 40
6.0
 40
7.0
 40
7.0
 40
7.0
 40
8.0
 40
8.0
 40
8.0
 40
9.0
 40
9.0
 40
9.0
 40
10.0
 40
10.0
 40
10.0
 40
11.0
 40
11.0
 40
11.0
 40
12.0
 40
12.0
 40
12.0
 40
13.0
 40
13.0
 40
13.0
 40
14.0
 40
14.0
 40
14.0
 40
15.0
 40
15.0
 40
15.0
 40
16.0
 40
16.0
 40
16.0
 40
17.0
 40
17.0
 40
17.0
 40
18.0
 40
18.0
 40
18.0
 40
19.0
 40
19.0
 40
19.0
 40
20.0
 40
20.0
 40
20.0
 40
21.0
 40
21.0
 40
21.0
 40
22.0
 40
22.0
 40
22.0
 40
23.0
 40
23.0
 40
23.0
 40
24.0
 40
24.0
 40
24.0
 40
25.0
 40
25.0
 40
25.0
 40
26.0
 40
26.0
 40
26.0
 40
27.0
 40
27.0
 40
27.0
 40
28.0
 40
28.0
 40
28.0
 40
29.0
 40
29.0
 40
29.0
 40
30.0
 40
30.0
 40
30.0
 40
31.0
 40
31.0
 40
31.0
 40
32.0
 40
32.0
 40
32.0
 40
33.0
 40
33.0
 40
33.0
 40
34.0
 40
34.0
 40
34.0
 40
35.0
 40
35.0
 40
35.0
 40
36.0
 40
36.0
 40
36.0
 40
36.0
 10
331.8921822010452
 20
-483.5196876945711
 10
353.4339278400184
 20
-483.5196876945711
 10
370.7881581275087
 20
-493.6434227249765
 10
383.9496647110891
 20
-513.8869865214656
 10
389.2621841868513
 20
-526.1656773686327
 10
391.9184439247329
 20
-538.3831700747787
 10
391.9184439247329
 20
-550.5420688161212
 10
391.9184439247329
 20
-565.8884792429199
 10
389.4679141077268
 20
-582.7687494595339
 10
384.5694586499276
 20
-601.1841815540683
 10
381.1449669290323
 20
-615.5865781034336
 10
375.272549567344
 20
-628.8379287663847
 10
366.9522065648634
 20
-640.9369314548094
 10
375.2152576906446
 20
-637.3379599276013
 10
382.650180780498
 20
-635.3301400669116
 10
389.2621841868513
 20
-634.9160760489467
 10
398.4106552252597
 20
-634.9160760489467
 10
405.848182491327
 20
-638.8718197174203
 10
411.5747659850531
 20
-646.7807028781499
 10
414.0513375641949
 20
-652.3289003012433
 10
415.2909254418737
 20
-656.6388119347648
 10
415.2909254418737
 20
-659.7065315143991
 10
415.2909254418737
 20
-671.2755843433551
 10
409.0955902296973
 20
-684.0230269089698
 10
396.6997114529186
 20
-697.9540675636745
 10
387.4913443615969
 20
-710.8213022351156
 10
382.887160815937
 20
-722.2705629582451
 10
382.887160815937
 20
-732.3057559973895
 10
382.887160815937
 20
-738.916457315634
 10
384.4809166586656
 20
-742.8422529576528
 10
387.6684283441227
 20
-744.0818408353298
 10
393.9835556621247
 20
-746.7953924499088
 10
400.8898309806154
 20
-745.3214287130068
 10
408.387254299596
 20
-739.654741272192
 10
402.1893149112066
 20
-736.5844175163475
 10
398.4705512781729
 20
-730.5648641985899
 10
397.2309634004951
 20
-721.5934771427092
 10
396.2257513820423
 20
-712.503600069107
 10
399.0903452170114
 20
-703.2353369248704
 10
405.8195365529773
 20
-693.7925939743254
 10
414.4940475205094
 20
-683.817296988098
 10
423.8794985943559
 20
-678.8302995390368
 10
433.9732855983038
 20
-678.8302995390368
 10
452.153039745509
 20
-680.0099913638005
 10
460.9759887572163
 20
-690.9006562891118
 10
460.4447368096398
 20
-711.4996901387603
 10
460.4447368096398
 20
-718.6416434045823
 10
455.4863852989283
 20
-728.5882944524637
 10
445.5722864537183
 20
-741.3370391061835
 10
432.7024476060633
 20
-758.3943933053233
 10
412.6945617569054
 20
-766.4504124221239
 10
385.5434205538177
 20
-765.5077006327956
 10
378.2829772702753
 20
-764.799364702696
 10
372.2647260406256
 20
-762.3488348856881
 10
367.483458512439
 20
-758.1587153579931
 10
358.9235312983064
 20
-749.0089422314777
 10
354.4964317351714
 20
-738.1495274207264
 10
354.2021598230331
 20
-725.5778667495288
 10
354.0250758405082
 20
-715.7197576929138
 10
356.827169446351
 20
-706.4827446632407
 10
362.6136489929904
 20
-697.8655255724116
 10
367.2751244153505
 20
-692.4944121318404
 10
369.6084663027441
 20
-688.9813784196813
 10
369.6084663027441
 20
-687.3303307002534
 10
369.7855502852699
 20
-682.3120831366286
 10
367.6605424949648
 20
-679.8628554077295
 10
363.2334429318289
 20
-679.9813454254509
 10
352.9625719453552
 20
-680.2170233727811
 10
335.7854256403907
 20
-691.2548242541634
 10
311.7046081931476
 20
-713.0934459814889
 10
300.2540453819092
 20
-721.7106650723217
 10
289.6290064303848
 20
-726.4320365475942
 10
279.8320955147874
 20
-727.2601645835202
 10
270.0325804229769
 20
-727.5544364956586
 10
260.1184815777669
 20
-724.161194889326
 10
250.0845906267314
 20
-717.0778355883122
 10
241.9387274305627
 20
-709.1676503394738
 10
237.6001698586906
 20
-702.9697109510853
 10
237.0689179111141
 20
-698.4853195112482
 10
237.0090218582009
 20
-697.4228156160971
 10
237.4517318145145
 20
-697.0686476510455
 10
238.3970477800549
 20
-697.4228156160971
 10
244.1210270975671
 20
-701.9671031088437
 10
251.0273024160579
 20
-706.0686806452795
 10
259.1132695593142
 20
-709.728850313506
 10
270.5638323705534
 20
-712.2080260688599
 10
281.5143933487789
 20
-708.5035854050038
 10
291.9623483177784
 20
-698.6181324981444
 10
302.407699110564
 20
-688.7313775031762
 10
310.7879381659577
 20
-681.2795272679359
 10
317.1056696601736
 20
-676.2625817924163
 10
307.483238550888
 20
-678.7417575477739
 10
299.6628973814204
 20
-679.9813454254509
 10
293.6446461517698
 20
-679.9813454254509
 10
284.2591950779224
 20
-679.9813454254509
 10
274.1654080739745
 20
-676.205289915717
 10
263.3632851399243
 20
-668.6492726319302
 10
248.6080227136154
 20
-658.5554856279814
 10
240.9934114650223
 20
-641.4981314288416
 10
240.52205557036
 20
-617.4746058583005
 10
240.8163274824974
 20
-602.188091484415
 10
244.3580071330052
 20
-584.3924533287172
 10
251.1470945218844
 20
-564.0876913912107
 10
261.415361332145
 20
-538.7659839781791
 10
274.3424920564994
 20
-518.1083561637261
 10
289.9258825187362
 20
-502.1122037716332
 10
306.8061527353493
 20
-489.7176270829605
 10
320.7931831786436
 20
-483.5196876945711
 10
331.8921822010452
 20
-483.5196876945711
 97
        0
 97
        0
 92
        1
 93
        1
 72
     4
 94
        3
 73
     0
 74
     1
 95
       29
 96
       25
 40
0.0
 40
0.0
 40
0.0
 40
0.0
 40
1.0
 40
1.0
 40
1.0
 40
2.0
 40
2.0
 40
2.0
 40
3.0
 40
3.0
 40
3.0
 40
4.0
 40
4.0
 40
4.0
 40
5.0
 40
5.0
 40
5.0
 40
6.0
 40
6.0
 40
6.0
 40
7.0
 40
7.0
 40
7.0
 40
8.0
 40
8.0
 40
8.0
 40
8.0
 10
303.8243709707676
 20
-541.5993276985864
 10
300.2826913202589
 20
-551.3389467374873
 10
296.6238237401385
 20
-566.2426472079715
 10
292.8477682304056
 20
-586.3104291100426
 10
290.7227604401005
 20
-606.438107065027
 10
293.4076661163308
 20
-626.1517210020465
 10
300.9024852590974
 20
-645.45257300921
 10
304.0301008916422
 20
-651.0007704323034
 10
308.3686584635152
 20
-653.508592126007
 10
313.9181579747155
 20
-652.9773401784332
 10
322.1812091004967
 20
-652.9773401784332
 10
331.1083251607488
 20
-645.0241860220704
 10
340.6995061554708
 20
-629.1178777093446
 10
350.2906871501928
 20
-613.2115693966225
 10
355.7073736744996
 20
-594.3091563501403
 10
356.9469615521775
 20
-572.4093364817963
 10
358.717801377431
 20
-552.2829606149207
 10
355.4990395774103
 20
-535.2555544422348
 10
347.2958845045423
 20
-521.3245137875329
 10
343.4599329418961
 20
-514.5380305748677
 10
339.1812714229363
 20
-510.819266941834
 10
334.4572957714499
 20
-510.1695249765389
 10
323.2437129956497
 20
-510.2880149942584
 10
313.0327380620884
 20
-520.7646159016067
 10
303.8243709707676
 20
-541.5993276985864
 97
        0
 97
        0
 75
     2
 76
     1
 98
        0
  0
SPLINE
  5
4A
330
41
100
AcDbEntity
  8
Layer 1
370
     0
100
AcDbSpline
210
0.0
220
0.0
230
1.0
 70
    11
 71
     3
 72
    74
 73
    70
 74
     0
 42
0.0000000001
 43
0.0000000001
 12
1.0
 22
0.0
 32
0.0
 13
1.0
 23
0.0
 33
0.0
 40
0.0
 40
0.0
 40
0.0
 40
0.0
 40
1.0
 40
1.0
 40
1.0
 40
2.0
 40
2.0
 40
2.0
 40
3.0
 40
3.0
 40
3.0
 40
4.0
 40
4.0
 40
4.0
 40
5.0
 40
5.0
 40
5.0
 40
6.0
 40
6.0
 40
6.0
 40
7.0
 40
7.0
 40
7.0
 40
8.0
 40
8.0
 40
8.0
 40
9.0
 40
9.0
 40
9.0
 40
10.0
 40
10.0
 40
10.0
 40
11.0
 40
11.0
 40
11.0
 40
12.0
 40
12.0
 40
12.0
 40
13.0
 40
13.0
 40
13.0
 40
14.0
 40
14.0
 40
14.0
 40
15.0
 40
15.0
 40
15.0
 40
16.0
 40
16.0
 40
16.0
 40
17.0
 40
17.0
 40
17.0
 40
18.0
 40
18.0
 40
18.0
 40
19.0
 40
19.0
 40
19.0
 40
20.0
 40
20.0
 40
20.0
 40
21.0
 40
21.0
 40
21.0
 40
22.0
 40
22.0
 40
22.0
 40
23.0
 40
23.0
 40
23.0
 40
23.0
 10
544.3747319980466
 20
-486.5301153975033
 30
0.0
 10
552.1664272291655
 20
-487.1798573627984
 30
0.0
 10
564.4138679617681
 20
-487.6811612839183
 30
0.0
 10
581.1170541958563
 20
-488.035329248969
 30
0.0
 10
582.5337260560591
 20
-488.5079872317392
 30
0.0
 10
583.5675840128624
 20
-489.3634591179098
 30
0.0
 10
584.2160238900506
 20
-490.6030469955876
 30
0.0
 10
581.3227841167318
 20
-573.6489243594733
 30
0.0
 10
579.7160073929335
 20
-622.9798343738694
 30
0.0
 10
579.3904853662334
 20
-638.590568686348
 30
0.0
 10
579.0675675157454
 20
-654.2039071750405
 30
0.0
 10
578.7863164846767
 20
-663.80941113894
 30
0.0
 10
578.5493364492377
 20
-667.4096847542532
 30
0.0
 10
574.5961969569798
 20
-670.0073505273285
 30
0.0
 10
569.4321155253929
 20
-673.7261141603631
 30
0.0
 10
563.0570921544786
 20
-678.5646735652481
 30
0.0
 10
556.6820687835625
 20
-683.4032329701331
 30
0.0
 10
550.9268393514867
 20
-686.3850147347148
 30
0.0
 10
545.7914038582494
 20
-687.5074146827792
 30
0.0
 10
543.9033761033825
 20
-687.5074146827792
 30
0.0
 10
542.3382661990036
 20
-683.2573991021709
 30
0.0
 10
541.0986783213248
 20
-674.7573679409506
 30
0.0
 10
524.278304157624
 20
-682.252187083719
 30
0.0
 10
509.4605415021888
 20
-685.9709507167499
 30
0.0
 10
496.6532028836591
 20
-685.9136588400506
 30
0.0
 10
475.9369811043998
 20
-685.9136588400506
 30
0.0
 10
461.1218226251785
 20
-680.0698874167138
 30
0.0
 10
452.2103316222083
 20
-668.3836466581415
 30
0.0
 10
446.7780200406196
 20
-663.1896172000997
 30
0.0
 10
443.6790503464254
 20
-657.8471496978818
 30
0.0
 10
442.9134225396238
 20
-652.3575462395929
 30
0.0
 10
440.5514347138806
 20
-645.2754890266842
 30
0.0
 10
439.283200897853
 20
-635.3301400669116
 30
0.0
 10
439.1061169153272
 20
-622.5214993602749
 30
0.0
 10
438.9290329328023
 20
-609.714160741747
 30
0.0
 10
439.0462208624149
 20
-572.6463165172354
 30
0.0
 10
439.4602848803788
 20
-511.3205708629539
 30
0.0
 10
439.4602848803788
 20
-505.7723734398596
 30
0.0
 10
441.7024806002955
 20
-502.9976236842595
 30
0.0
 10
446.1894762163438
 20
-502.9976236842595
 30
0.0
 10
462.1244304674174
 20
-500.9325119468676
 30
0.0
 10
482.1349204927892
 20
-497.6851042084973
 30
0.0
 10
506.2157379400314
 20
-493.2593067334683
 30
0.0
 10
507.9266817123726
 20
-493.0822227509434
 30
0.0
 10
508.6063717041243
 20
-494.6173846288657
 30
0.0
 10
508.2522037390736
 20
-497.8621881910231
 30
0.0
 10
506.5412599667325
 20
-508.0145691597772
 30
0.0
 10
504.5933361589532
 20
-547.1188791833338
 30
0.0
 10
502.4084323157349
 20
-615.1725140854687
 30
0.0
 10
503.1766642987495
 20
-640.6713054810207
 30
0.0
 10
507.1298037910083
 20
-653.5684881789202
 30
0.0
 10
514.2730591449381
 20
-653.8627600910586
 30
0.0
 10
520.1168305682768
 20
-653.8627600910586
 30
0.0
 10
525.4137249867572
 20
-652.1361912614375
 30
0.0
 10
530.1663465765932
 20
-648.6843556902968
 30
0.0
 10
534.9163639902163
 20
-645.231218031051
 30
0.0
 10
537.8825206975171
 20
-643.1804292628331
 30
0.0
 10
539.0622125222817
 20
-642.530687297538
 30
0.0
 10
539.0622125222817
 20
-639.9343236125715
 30
0.0
 10
538.7236696145128
 20
-631.5514803809638
 30
0.0
 10
538.0439796227602
 20
-617.3860638670376
 30
0.0
 10
537.3668938072224
 20
-603.2206473531114
 30
0.0
 10
536.8486627407146
 20
-590.471902699388
 30
0.0
 10
536.494494775663
 20
-579.1385278177622
 30
0.0
 10
536.1403268106124
 20
-567.8064550242416
 30
0.0
 10
535.4918869334242
 20
-537.7920220742899
 30
0.0
 10
534.5491751440977
 20
-489.097833144122
 30
0.0
 10
535.6689709159491
 20
-487.3868893717809
 30
0.0
 10
538.9450245926691
 20
-486.5301153975033
 30
0.0
 10
544.3747319980466
 20
-486.5301153975033
 30
0.0
  0
HATCH
  5
4B
330
41
100
AcDbEntity
  8
Layer 1
 62
   132
420
   316378
100
AcDbHatch
 10
0.0
 20
0.0
 30
0.0
210
0.0
220
0.0
230
1.0
  2
SOLID
 70
     1
 71
     0
 91
        1
 92
        1
 93
        1
 72
     4
 94
        3
 73
     0
 74
     1
 95
       74
 96
       70
 40
0.0
 40
0.0
 40
0.0
 40
0.0
 40
1.0
 40
1.0
 40
1.0
 40
2.0
 40
2.0
 40
2.0
 40
3.0
 40
3.0
 40
3.0
 40
4.0
 40
4.0
 40
4.0
 40
5.0
 40
5.0
 40
5.0
 40
6.0
 40
6.0
 40
6.0
 40
7.0
 40
7.0
 40
7.0
 40
8.0
 40
8.0
 40
8.0
 40
9.0
 40
9.0
 40
9.0
 40
10.0
 40
10.0
 40
10.0
 40
11.0
 40
11.0
 40
11.0
 40
12.0
 40
12.0
 40
12.0
 40
13.0
 40
13.0
 40
13.0
 40
14.0
 40
14.0
 40
14.0
 40
15.0
 40
15.0
 40
15.0
 40
16.0
 40
16.0
 40
16.0
 40
17.0
 40
17.0
 40
17.0
 40
18.0
 40
18.0
 40
18.0
 40
19.0
 40
19.0
 40
19.0
 40
20.0
 40
20.0
 40
20.0
 40
21.0
 40
21.0
 40
21.0
 40
22.0
 40
22.0
 40
22.0
 40
23.0
 40
23.0
 40
23.0
 40
23.0
 10
544.3747319980466
 20
-486.5301153975033
 10
552.1664272291655
 20
-487.1798573627984
 10
564.4138679617681
 20
-487.6811612839183
 10
581.1170541958563
 20
-488.035329248969
 10
582.5337260560591
 20
-488.5079872317392
 10
583.5675840128624
 20
-489.3634591179098
 10
584.2160238900506
 20
-490.6030469955876
 10
581.3227841167318
 20
-573.6489243594733
 10
579.7160073929335
 20
-622.9798343738694
 10
579.3904853662334
 20
-638.590568686348
 10
579.0675675157454
 20
-654.2039071750405
 10
578.7863164846767
 20
-663.80941113894
 10
578.5493364492377
 20
-667.4096847542532
 10
574.5961969569798
 20
-670.0073505273285
 10
569.4321155253929
 20
-673.7261141603631
 10
563.0570921544786
 20
-678.5646735652481
 10
556.6820687835625
 20
-683.4032329701331
 10
550.9268393514867
 20
-686.3850147347148
 10
545.7914038582494
 20
-687.5074146827792
 10
543.9033761033825
 20
-687.5074146827792
 10
542.3382661990036
 20
-683.2573991021709
 10
541.0986783213248
 20
-674.7573679409506
 10
524.278304157624
 20
-682.252187083719
 10
509.4605415021888
 20
-685.9709507167499
 10
496.6532028836591
 20
-685.9136588400506
 10
475.9369811043998
 20
-685.9136588400506
 10
461.1218226251785
 20
-680.0698874167138
 10
452.2103316222083
 20
-668.3836466581415
 10
446.7780200406196
 20
-663.1896172000997
 10
443.6790503464254
 20
-657.8471496978818
 10
442.9134225396238
 20
-652.3575462395929
 10
440.5514347138806
 20
-645.2754890266842
 10
439.283200897853
 20
-635.3301400669116
 10
439.1061169153272
 20
-622.5214993602749
 10
438.9290329328023
 20
-609.714160741747
 10
439.0462208624149
 20
-572.6463165172354
 10
439.4602848803788
 20
-511.3205708629539
 10
439.4602848803788
 20
-505.7723734398596
 10
441.7024806002955
 20
-502.9976236842595
 10
446.1894762163438
 20
-502.9976236842595
 10
462.1244304674174
 20
-500.9325119468676
 10
482.1349204927892
 20
-497.6851042084973
 10
506.2157379400314
 20
-493.2593067334683
 10
507.9266817123726
 20
-493.0822227509434
 10
508.6063717041243
 20
-494.6173846288657
 10
508.2522037390736
 20
-497.8621881910231
 10
506.5412599667325
 20
-508.0145691597772
 10
504.5933361589532
 20
-547.1188791833338
 10
502.4084323157349
 20
-615.1725140854687
 10
503.1766642987495
 20
-640.6713054810207
 10
507.1298037910083
 20
-653.5684881789202
 10
514.2730591449381
 20
-653.8627600910586
 10
520.1168305682768
 20
-653.8627600910586
 10
525.4137249867572
 20
-652.1361912614375
 10
530.1663465765932
 20
-648.6843556902968
 10
534.9163639902163
 20
-645.231218031051
 10
537.8825206975171
 20
-643.1804292628331
 10
539.0622125222817
 20
-642.530687297538
 10
539.0622125222817
 20
-639.9343236125715
 10
538.7236696145128
 20
-631.5514803809638
 10
538.0439796227602
 20
-617.3860638670376
 10
537.3668938072224
 20
-603.2206473531114
 10
536.8486627407146
 20
-590.471902699388
 10
536.494494775663
 20
-579.1385278177622
 10
536.1403268106124
 20
-567.8064550242416
 10
535.4918869334242
 20
-537.7920220742899
 10
534.5491751440977
 20
-489.097833144122
 10
535.6689709159491
 20
-487.3868893717809
 10
538.9450245926691
 20
-486.5301153975033
 10
544.3747319980466
 20
-486.5301153975033
 97
        0
 97
        0
 75
     2
 76
     1
 98
        0
  0
SPLINE
  5
4C
330
41
100
AcDbEntity
  8
Layer 1
370
     0
100
AcDbSpline
210
0.0
220
0.0
230
1.0
 70
    11
 71
     3
 72
   113
 73
   109
 74
     0
 42
0.0000000001
 43
0.0000000001
 12
1.0
 22
0.0
 32
0.0
 13
1.0
 23
0.0
 33
0.0
 40
0.0
 40
0.0
 40
0.0
 40
0.0
 40
1.0
 40
1.0
 40
1.0
 40
2.0
 40
2.0
 40
2.0
 40
3.0
 40
3.0
 40
3.0
 40
4.0
 40
4.0
 40
4.0
 40
5.0
 40
5.0
 40
5.0
 40
6.0
 40
6.0
 40
6.0
 40
7.0
 40
7.0
 40
7.0
 40
8.0
 40
8.0
 40
8.0
 40
9.0
 40
9.0
 40
9.0
 40
10.0
 40
10.0
 40
10.0
 40
11.0
 40
11.0
 40
11.0
 40
12.0
 40
12.0
 40
12.0
 40
13.0
 40
13.0
 40
13.0
 40
14.0
 40
14.0
 40
14.0
 40
15.0
 40
15.0
 40
15.0
 40
16.0
 40
16.0
 40
16.0
 40
17.0
 40
17.0
 40
17.0
 40
18.0
 40
18.0
 40
18.0
 40
19.0
 40
19.0
 40
19.0
 40
20.0
 40
20.0
 40
20.0
 40
21.0
 40
21.0
 40
21.0
 40
22.0
 40
22.0
 40
22.0
 40
23.0
 40
23.0
 40
23.0
 40
24.0
 40
24.0
 40
24.0
 40
25.0
 40
25.0
 40
25.0
 40
26.0
 40
26.0
 40
26.0
 40
27.0
 40
27.0
 40
27.0
 40
28.0
 40
28.0
 40
28.0
 40
29.0
 40
29.0
 40
29.0
 40
30.0
 40
30.0
 40
30.0
 40
31.0
 40
31.0
 40
31.0
 40
32.0
 40
32.0
 40
32.0
 40
33.0
 40
33.0
 40
33.0
 40
34.0
 40
34.0
 40
34.0
 40
35.0
 40
35.0
 40
35.0
 40
36.0
 40
36.0
 40
36.0
 40
36.0
 10
711.6201367884441
 20
-464.7500876349841
 30
0.0
 10
711.6201367884441
 20
-464.7500876349841
 30
0.0
 10
718.8805800719856
 20
-464.7500876349841
 30
0.0
 10
718.8805800719856
 20
-464.7500876349841
 30
0.0
 10
720.888399932679
 20
-465.576913582805
 30
0.0
 10
722.1566337487056
 20
-473.2943897918349
 30
0.0
 10
722.687885696283
 20
-487.9025162620756
 30
0.0
 10
723.2191376438586
 20
-502.5106427323144
 30
0.0
 10
726.8493592856285
 20
-526.3570843203324
 30
0.0
 10
733.5785506215943
 20
-559.4392368499175
 30
0.0
 10
740.3077419575602
 20
-592.5226914676059
 30
0.0
 10
745.2061974153585
 20
-614.8782421733304
 30
0.0
 10
748.2765211712049
 20
-626.5058889670945
 30
0.0
 10
750.3416329085958
 20
-626.5058889670945
 30
0.0
 10
752.5239325756011
 20
-625.0006751156288
 30
0.0
 10
754.826024348431
 20
-621.9902474126975
 30
0.0
 10
757.128116121261
 20
-618.9798197097662
 30
0.0
 10
759.4302078940909
 20
-617.5345019112137
 30
0.0
 10
761.7322996669209
 20
-617.6516898408263
 30
0.0
 10
765.5083551766547
 20
-619.6595097015197
 30
0.0
 10
767.7531550727854
 20
-631.9056483460154
 30
0.0
 10
768.4614910028868
 20
-654.394012038636
 30
0.0
 10
768.4614910028868
 20
-654.394012038636
 30
0.0
 10
768.4614910028868
 20
-677.5907116613562
 30
0.0
 10
768.4614910028868
 20
-677.5907116613562
 30
0.0
 10
768.4614910028868
 20
-681.4266632240033
 30
0.0
 10
766.2166911067561
 20
-683.3459410934338
 30
0.0
 10
761.7322996669209
 20
-683.3459410934338
 30
0.0
 10
752.4067446459885
 20
-685.4110528308265
 30
0.0
 10
737.945754131817
 20
-687.9787705774434
 30
0.0
 10
718.34932812441
 20
-691.0477922451828
 30
0.0
 10
710.323257034066
 20
-691.0477922451828
 30
0.0
 10
705.5133435675307
 20
-689.1584624022071
 30
0.0
 10
703.9195877248021
 20
-685.3824068924769
 30
0.0
 10
702.5029158645993
 20
-684.6740709623737
 30
0.0
 10
701.4247869121646
 20
-675.62976697251
 30
0.0
 10
700.6878050437135
 20
-658.2455886585631
 30
0.0
 10
699.9482189990485
 20
-640.8640145208301
 30
0.0
 10
699.1070700820528
 20
-631.7884604164028
 30
0.0
 10
698.1643582927263
 20
-631.0202284333864
 30
0.0
 10
692.5549627286127
 20
-631.0801244862996
 30
0.0
 10
684.4689955853573
 20
-632.3796084168898
 30
0.0
 10
673.9038526867444
 20
-634.9160760489467
 30
0.0
 10
671.2475929488628
 20
-645.5411150004729
 30
0.0
 10
667.9298724527252
 20
-658.909653593033
 30
0.0
 10
663.9454828459038
 20
-675.0229939147393
 30
0.0
 10
659.9610932390824
 20
-691.1363342364457
 30
0.0
 10
652.4193989244704
 20
-709.4046303749128
 30
0.0
 10
641.3230040782819
 20
-729.8265802420319
 30
0.0
 10
636.1875685850464
 20
-737.027127472662
 30
0.0
 10
630.8620282282154
 20
-742.443813996968
 30
0.0
 10
625.3437788315787
 20
-746.0740356387396
 30
0.0
 10
619.8229252587262
 20
-749.7029551924024
 30
0.0
 10
614.3203009193712
 20
-751.5180660132901
 30
0.0
 10
608.8306974610823
 20
-751.5180660132901
 30
0.0
 10
599.2082663517976
 20
-751.5180660132901
 30
0.0
 10
590.9478194022304
 20
-748.404773349921
 30
0.0
 10
584.0415440837387
 20
-742.1781880231792
 30
0.0
 10
577.135268765247
 20
-735.950300608336
 30
0.0
 10
573.9764030181395
 20
-725.8877637189507
 30
0.0
 10
574.5675510186302
 20
-711.9866710907045
 30
0.0
 10
575.1560948429051
 20
-698.086880550567
 30
0.0
 10
579.6717363973039
 20
-685.9423047784003
 30
0.0
 10
588.114475681823
 20
-675.5542458623167
 30
0.0
 10
593.3072030517596
 20
-669.711776527085
 30
0.0
 10
599.3567043959738
 20
-666.789890815413
 30
0.0
 10
606.2629797144655
 20
-666.789890815413
 30
0.0
 10
616.4140585951118
 20
-666.9669747979387
 30
0.0
 10
622.7890819660279
 20
-671.5698562554935
 30
0.0
 10
625.3880498272083
 20
-680.6011393642875
 30
0.0
 10
627.9844135121766
 20
-689.63112038498
 30
0.0
 10
625.2109658446843
 20
-699.1337593884382
 30
0.0
 10
617.0651026485139
 20
-709.1090563746657
 30
0.0
 10
610.0989312771108
 20
-715.3069957630578
 30
0.0
 10
604.255159853772
 20
-718.9372174048258
 30
0.0
 10
599.5337883784996
 20
-719.9997212999806
 30
0.0
 10
599.179620413448
 20
-726.846100565559
 30
0.0
 10
601.0676481683149
 20
-730.623458163398
 30
0.0
 10
605.2004758193125
 20
-731.3317940935012
 30
0.0
 10
609.7447633120591
 20
-731.3317940935012
 30
0.0
 10
616.2083286742381
 20
-724.4111958058347
 30
0.0
 10
624.591171905844
 20
-710.5699992305017
 30
0.0
 10
632.9714109612378
 20
-696.7288026551687
 30
0.0
 10
640.8360231263377
 20
-672.6922562035579
 30
0.0
 10
648.1850084011421
 20
-638.4577556994554
 30
0.0
 10
655.5339936759465
 20
-604.2245572834581
 30
0.0
 10
660.8308880944278
 20
-567.8650489890497
 30
0.0
 10
664.0782958327982
 20
-529.3818349924395
 30
0.0
 10
664.0782958327982
 20
-527.6109951671851
 30
0.0
 10
663.2215218585206
 20
-526.725575254558
 30
0.0
 10
661.5105780861795
 20
-526.725575254558
 30
0.0
 10
648.4636552559987
 20
-528.4964150798123
 30
0.0
 10
641.7370680962467
 20
-529.3818349924395
 30
0.0
 10
641.3230040782819
 20
-529.3818349924395
 30
0.0
 10
635.8334006199948
 20
-529.3818349924395
 30
0.0
 10
632.8385979743434
 20
-526.725575254558
 30
0.0
 10
632.3359919651175
 20
-521.4130557787958
 30
0.0
 10
631.8359901321055
 20
-516.1005363030336
 30
0.0
 10
631.5833850393847
 20
-502.0236617803703
 30
0.0
 10
631.5833850393847
 20
-479.1811301226981
 30
0.0
 10
633.1771408821132
 20
-469.915471154678
 30
0.0
 10
636.2761105763093
 20
-465.2813395825606
 30
0.0
 10
640.8802941219692
 20
-465.2813395825606
 30
0.0
 10
648.19802928221
 20
-466.2852495129073
 30
0.0
 10
659.6798422080119
 20
-466.4480105262573
 30
0.0
 10
675.3205245469471
 20
-465.7683205345056
 30
0.0
 10
690.9612068858842
 20
-465.0899326308599
 30
0.0
 10
703.0628137505246
 20
-464.7500876349841
 30
0.0
 10
711.6201367884441
 20
-464.7500876349841
 30
0.0
  0
SPLINE
  5
4D
330
41
100
AcDbEntity
  8
Layer 1
370
     0
100
AcDbSpline
210
0.0
220
0.0
230
1.0
 70
    11
 71
     3
 72
    14
 73
    10
 74
     0
 42
0.0000000001
 43
0.0000000001
 12
1.0
 22
0.0
 32
0.0
 13
1.0
 23
0.0
 33
0.0
 40
0.0
 40
0.0
 40
0.0
 40
0.0
 40
1.0
 40
1.0
 40
1.0
 40
2.0
 40
2.0
 40
2.0
 40
3.0
 40
3.0
 40
3.0
 40
3.0
 10
678.5965782236672
 20
-617.6516898408263
 30
0.0
 10
689.9299531052948
 20
-616.117830051011
 30
0.0
 10
695.8622665198964
 20
-614.4068862786698
 30
0.0
 10
696.393518467472
 20
-612.516254347589
 30
0.0
 10
695.331014572319
 20
-599.5904257113398
 30
0.0
 10
692.9091306936625
 20
-586.8416810576164
 30
0.0
 10
689.1330751839305
 20
-574.2687182983136
 30
0.0
 10
684.9403514800197
 20
-591.1502906030328
 30
0.0
 10
681.4299219440745
 20
-605.6112811172061
 30
0.0
 10
678.5965782236672
 20
-617.6516898408263
 30
0.0
  0
HATCH
  5
4E
330
41
100
AcDbEntity
  8
Layer 1
 62
   241
420
 16734367
100
AcDbHatch
 10
0.0
 20
0.0
 30
0.0
210
0.0
220
0.0
230
1.0
  2
SOLID
 70
     1
 71
     0
 91
        2
 92
        1
 93
        1
 72
     4
 94
        3
 73
     0
 74
     1
 95
      113
 96
      109
 40
0.0
 40
0.0
 40
0.0
 40
0.0
 40
1.0
 40
1.0
 40
1.0
 40
2.0
 40
2.0
 40
2.0
 40
3.0
 40
3.0
 40
3.0
 40
4.0
 40
4.0
 40
4.0
 40
5.0
 40
5.0
 40
5.0
 40
6.0
 40
6.0
 40
6.0
 40
7.0
 40
7.0
 40
7.0
 40
8.0
 40
8.0
 40
8.0
 40
9.0
 40
9.0
 40
9.0
 40
10.0
 40
10.0
 40
10.0
 40
11.0
 40
11.0
 40
11.0
 40
12.0
 40
12.0
 40
12.0
 40
13.0
 40
13.0
 40
13.0
 40
14.0
 40
14.0
 40
14.0
 40
15.0
 40
15.0
 40
15.0
 40
16.0
 40
16.0
 40
16.0
 40
17.0
 40
17.0
 40
17.0
 40
18.0
 40
18.0
 40
18.0
 40
19.0
 40
19.0
 40
19.0
 40
20.0
 40
20.0
 40
20.0
 40
21.0
 40
21.0
 40
21.0
 40
22.0
 40
22.0
 40
22.0
 40
23.0
 40
23.0
 40
23.0
 40
24.0
 40
24.0
 40
24.0
 40
25.0
 40
25.0
 40
25.0
 40
26.0
 40
26.0
 40
26.0
 40
27.0
 40
27.0
 40
27.0
 40
28.0
 40
28.0
 40
28.0
 40
29.0
 40
29.0
 40
29.0
 40
30.0
 40
30.0
 40
30.0
 40
31.0
 40
31.0
 40
31.0
 40
32.0
 40
32.0
 40
32.0
 40
33.0
 40
33.0
 40
33.0
 40
34.0
 40
34.0
 40
34.0
 40
35.0
 40
35.0
 40
35.0
 40
36.0
 40
36.0
 40
36.0
 40
36.0
 10
711.6201367884441
 20
-464.7500876349841
 10
711.6201367884441
 20
-464.7500876349841
 10
718.8805800719856
 20
-464.7500876349841
 10
718.8805800719856
 20
-464.7500876349841
 10
720.888399932679
 20
-465.576913582805
 10
722.1566337487056
 20
-473.2943897918349
 10
722.687885696283
 20
-487.9025162620756
 10
723.2191376438586
 20
-502.5106427323144
 10
726.8493592856285
 20
-526.3570843203324
 10
733.5785506215943
 20
-559.4392368499175
 10
740.3077419575602
 20
-592.5226914676059
 10
745.2061974153585
 20
-614.8782421733304
 10
748.2765211712049
 20
-626.5058889670945
 10
750.3416329085958
 20
-626.5058889670945
 10
752.5239325756011
 20
-625.0006751156288
 10
754.826024348431
 20
-621.9902474126975
 10
757.128116121261
 20
-618.9798197097662
 10
759.4302078940909
 20
-617.5345019112137
 10
761.7322996669209
 20
-617.6516898408263
 10
765.5083551766547
 20
-619.6595097015197
 10
767.7531550727854
 20
-631.9056483460154
 10
768.4614910028868
 20
-654.394012038636
 10
768.4614910028868
 20
-654.394012038636
 10
768.4614910028868
 20
-677.5907116613562
 10
768.4614910028868
 20
-677.5907116613562
 10
768.4614910028868
 20
-681.4266632240033
 10
766.2166911067561
 20
-683.3459410934338
 10
761.7322996669209
 20
-683.3459410934338
 10
752.4067446459885
 20
-685.4110528308265
 10
737.945754131817
 20
-687.9787705774434
 10
718.34932812441
 20
-691.0477922451828
 10
710.323257034066
 20
-691.0477922451828
 10
705.5133435675307
 20
-689.1584624022071
 10
703.9195877248021
 20
-685.3824068924769
 10
702.5029158645993
 20
-684.6740709623737
 10
701.4247869121646
 20
-675.62976697251
 10
700.6878050437135
 20
-658.2455886585631
 10
699.9482189990485
 20
-640.8640145208301
 10
699.1070700820528
 20
-631.7884604164028
 10
698.1643582927263
 20
-631.0202284333864
 10
692.5549627286127
 20
-631.0801244862996
 10
684.4689955853573
 20
-632.3796084168898
 10
673.9038526867444
 20
-634.9160760489467
 10
671.2475929488628
 20
-645.5411150004729
 10
667.9298724527252
 20
-658.909653593033
 10
663.9454828459038
 20
-675.0229939147393
 10
659.9610932390824
 20
-691.1363342364457
 10
652.4193989244704
 20
-709.4046303749128
 10
641.3230040782819
 20
-729.8265802420319
 10
636.1875685850464
 20
-737.027127472662
 10
630.8620282282154
 20
-742.443813996968
 10
625.3437788315787
 20
-746.0740356387396
 10
619.8229252587262
 20
-749.7029551924024
 10
614.3203009193712
 20
-751.5180660132901
 10
608.8306974610823
 20
-751.5180660132901
 10
599.2082663517976
 20
-751.5180660132901
 10
590.9478194022304
 20
-748.404773349921
 10
584.0415440837387
 20
-742.1781880231792
 10
577.135268765247
 20
-735.950300608336
 10
573.9764030181395
 20
-725.8877637189507
 10
574.5675510186302
 20
-711.9866710907045
 10
575.1560948429051
 20
-698.086880550567
 10
579.6717363973039
 20
-685.9423047784003
 10
588.114475681823
 20
-675.5542458623167
 10
593.3072030517596
 20
-669.711776527085
 10
599.3567043959738
 20
-666.789890815413
 10
606.2629797144655
 20
-666.789890815413
 10
616.4140585951118
 20
-666.9669747979387
 10
622.7890819660279
 20
-671.5698562554935
 10
625.3880498272083
 20
-680.6011393642875
 10
627.9844135121766
 20
-689.63112038498
 10
625.2109658446843
 20
-699.1337593884382
 10
617.0651026485139
 20
-709.1090563746657
 10
610.0989312771108
 20
-715.3069957630578
 10
604.255159853772
 20
-718.9372174048258
 10
599.5337883784996
 20
-719.9997212999806
 10
599.179620413448
 20
-726.846100565559
 10
601.0676481683149
 20
-730.623458163398
 10
605.2004758193125
 20
-731.3317940935012
 10
609.7447633120591
 20
-731.3317940935012
 10
616.2083286742381
 20
-724.4111958058347
 10
624.591171905844
 20
-710.5699992305017
 10
632.9714109612378
 20
-696.7288026551687
 10
640.8360231263377
 20
-672.6922562035579
 10
648.1850084011421
 20
-638.4577556994554
 10
655.5339936759465
 20
-604.2245572834581
 10
660.8308880944278
 20
-567.8650489890497
 10
664.0782958327982
 20
-529.3818349924395
 10
664.0782958327982
 20
-527.6109951671851
 10
663.2215218585206
 20
-526.725575254558
 10
661.5105780861795
 20
-526.725575254558
 10
648.4636552559987
 20
-528.4964150798123
 10
641.7370680962467
 20
-529.3818349924395
 10
641.3230040782819
 20
-529.3818349924395
 10
635.8334006199948
 20
-529.3818349924395
 10
632.8385979743434
 20
-526.725575254558
 10
632.3359919651175
 20
-521.4130557787958
 10
631.8359901321055
 20
-516.1005363030336
 10
631.5833850393847
 20
-502.0236617803703
 10
631.5833850393847
 20
-479.1811301226981
 10
633.1771408821132
 20
-469.915471154678
 10
636.2761105763093
 20
-465.2813395825606
 10
640.8802941219692
 20
-465.2813395825606
 10
648.19802928221
 20
-466.2852495129073
 10
659.6798422080119
 20
-466.4480105262573
 10
675.3205245469471
 20
-465.7683205345056
 10
690.9612068858842
 20
-465.0899326308599
 10
703.0628137505246
 20
-464.7500876349841
 10
711.6201367884441
 20
-464.7500876349841
 97
        0
 97
        0
 92
        1
 93
        1
 72
     4
 94
        3
 73
     0
 74
     1
 95
       14
 96
       10
 40
0.0
 40
0.0
 40
0.0
 40
0.0
 40
1.0
 40
1.0
 40
1.0
 40
2.0
 40
2.0
 40
2.0
 40
3.0
 40
3.0
 40
3.0
 40
3.0
 10
678.5965782236672
 20
-617.6516898408263
 10
689.9299531052948
 20
-616.117830051011
 10
695.8622665198964
 20
-614.4068862786698
 10
696.393518467472
 20
-612.516254347589
 10
695.331014572319
 20
-599.5904257113398
 10
692.9091306936625
 20
-586.8416810576164
 10
689.1330751839305
 20
-574.2687182983136
 10
684.9403514800197
 20
-591.1502906030328
 10
681.4299219440745
 20
-605.6112811172061
 10
678.5965782236672
 20
-617.6516898408263
 97
        0
 97
        0
 75
     2
 76
     1
 98
        0
  0
SPLINE
  5
4F
330
41
100
AcDbEntity
  8
Layer 1
370
     0
100
AcDbSpline
210
0.0
220
0.0
230
1.0
 70
    11
 71
     3
 72
    71
 73
    67
 74
     0
 42
0.0000000001
 43
0.0000000001
 12
1.0
 22
0.0
 32
0.0
 13
1.0
 23
0.0
 33
0.0
 40
0.0
 40
0.0
 40
0.0
 40
0.0
 40
1.0
 40
1.0
 40
1.0
 40
2.0
 40
2.0
 40
2.0
 40
3.0
 40
3.0
 40
3.0
 40
4.0
 40
4.0
 40
4.0
 40
5.0
 40
5.0
 40
5.0
 40
6.0
 40
6.0
 40
6.0
 40
7.0
 40
7.0
 40
7.0
 40
8.0
 40
8.0
 40
8.0
 40
9.0
 40
9.0
 40
9.0
 40
10.0
 40
10.0
 40
10.0
 40
11.0
 40
11.0
 40
11.0
 40
12.0
 40
12.0
 40
12.0
 40
13.0
 40
13.0
 40
13.0
 40
14.0
 40
14.0
 40
14.0
 40
15.0
 40
15.0
 40
15.0
 40
16.0
 40
16.0
 40
16.0
 40
17.0
 40
17.0
 40
17.0
 40
18.0
 40
18.0
 40
18.0
 40
19.0
 40
19.0
 40
19.0
 40
20.0
 40
20.0
 40
20.0
 40
21.0
 40
21.0
 40
21.0
 40
22.0
 40
22.0
 40
22.0
 40
22.0
 10
1001.311302966522
 20
-532.9235146429473
 30
0.0
 10
1008.217578285014
 20
-542.1904756990771
 30
0.0
 10
1011.670715944259
 20
-553.582444545511
 30
0.0
 10
1011.670715944259
 20
-567.098119094142
 30
0.0
 10
1011.670715944259
 20
-577.8989399400853
 30
0.0
 10
1007.863410319962
 20
-591.3273745855586
 30
0.0
 10
1000.248799071371
 20
-607.3821209424568
 30
0.0
 10
991.865955839763
 20
-621.7246214389088
 30
0.0
 10
979.1784093270599
 20
-635.8327460761357
 30
0.0
 10
962.1783470046212
 20
-649.7025885898183
 30
0.0
 10
945.1808888583946
 20
-663.5737331916062
 30
0.0
 10
933.9360559680299
 20
-672.5438181593818
 30
0.0
 10
928.4464525097428
 20
-676.6167497574679
 30
0.0
 10
914.9281737848978
 20
-686.0022008313135
 30
0.0
 10
894.8031000061274
 20
-697.3629195631838
 30
0.0
 10
868.0634186447915
 20
-710.7028122173942
 30
0.0
 10
849.5893925854489
 20
-718.0804434305501
 30
0.0
 10
835.2768401154535
 20
-721.8591031164979
 30
0.0
 10
825.1257612348054
 20
-722.0361870990237
 30
0.0
 10
805.1725630861329
 20
-724.0414027834995
 30
0.0
 10
791.1855326428395
 20
-719.5413862863861
 30
0.0
 10
783.1594615524973
 20
-708.5348355195674
 30
0.0
 10
775.1307862859394
 20
-697.5256805765348
 30
0.0
 10
771.3391057189256
 20
-686.8433497483093
 30
0.0
 10
771.7818156752382
 20
-676.4839367705717
 30
0.0
 10
772.2245256315528
 20
-666.125825880943
 30
0.0
 10
775.6906841718665
 20
-657.7442847374441
 30
0.0
 10
782.1854996486072
 20
-651.3393133400714
 30
0.0
 10
788.677710949134
 20
-644.9356440308075
 30
0.0
 10
796.2766971404453
 20
-643.416107210167
 30
0.0
 10
804.982458222541
 20
-646.7807028781499
 30
0.0
 10
813.6882193046349
 20
-650.1452985461328
 30
0.0
 10
818.4538617755388
 20
-657.347147864868
 30
0.0
 10
819.2819898114667
 20
-668.3836466581415
 30
0.0
 10
820.1075136711806
 20
-679.4214475395238
 30
0.0
 10
814.8548902483326
 20
-687.6532485507414
 30
0.0
 10
803.521515366705
 20
-693.0842580442222
 30
0.0
 10
805.7637110866235
 20
-699.8720433449962
 30
0.0
 10
814.9720781779433
 20
-700.9931412049555
 30
0.0
 10
831.144012464456
 20
-696.4488537122052
 30
0.0
 10
829.904424586779
 20
-636.7181659887647
 30
0.0
 10
828.9617127974525
 20
-593.335194446252
 30
0.0
 10
828.3132729202625
 20
-566.3012411727759
 30
0.0
 10
816.6830219502845
 20
-570.2556827531407
 30
0.0
 10
808.8027847279045
 20
-572.3806905434467
 30
0.0
 10
804.6725612531209
 20
-572.674962455585
 30
0.0
 10
800.5996296550366
 20
-572.3806905434467
 30
0.0
 10
797.6490980050166
 20
-567.4822350856484
 30
0.0
 10
795.8183621268508
 20
-557.9782939940815
 30
0.0
 10
793.9902304248972
 20
-548.4756549906233
 30
0.0
 10
791.0084486603137
 20
-531.5367908092003
 30
0.0
 10
786.87822518553
 20
-507.1590972736067
 30
0.0
 10
786.87822518553
 20
-507.1590972736067
 30
0.0
 10
786.87822518553
 20
-506.6278453260302
 30
0.0
 10
786.87822518553
 20
-506.6278453260302
 30
0.0
 10
789.9459447651625
 20
-502.1421517980889
 30
0.0
 10
805.1152712094336
 20
-496.4455163308194
 30
0.0
 10
832.3836003421347
 20
-489.5405431004356
 30
0.0
 10
853.102426297608
 20
-484.759275572249
 30
0.0
 10
876.6363667399928
 20
-483.1069257647141
 30
0.0
 10
902.9932341979293
 20
-484.5821915897241
 30
0.0
 10
929.3448933034379
 20
-486.0587595028401
 30
0.0
 10
951.3189321938698
 20
-492.5952417989984
 30
0.0
 10
968.9075383405852
 20
-504.1929405663059
 30
0.0
 10
986.4961444873006
 20
-515.7906393336134
 30
0.0
 10
997.2956632451369
 20
-525.3687994472675
 30
0.0
 10
1001.311302966522
 20
-532.9235146429473
 30
0.0
  0
SPLINE
  5
50
330
41
100
AcDbEntity
  8
Layer 1
370
     0
100
AcDbSpline
210
0.0
220
0.0
230
1.0
 70
    11
 71
     3
 72
    23
 73
    19
 74
     0
 42
0.0000000001
 43
0.0000000001
 12
1.0
 22
0.0
 32
0.0
 13
1.0
 23
0.0
 33
0.0
 40
0.0
 40
0.0
 40
0.0
 40
0.0
 40
1.0
 40
1.0
 40
1.0
 40
2.0
 40
2.0
 40
2.0
 40
3.0
 40
3.0
 40
3.0
 40
4.0
 40
4.0
 40
4.0
 40
5.0
 40
5.0
 40
5.0
 40
6.0
 40
6.0
 40
6.0
 40
6.0
 10
959.9647972230523
 20
-579.9354057391283
 30
0.0
 10
958.3710413803237
 20
-559.9861138547749
 30
0.0
 10
949.4283002627908
 20
-548.1214870255717
 30
0.0
 10
933.1391780466656
 20
-544.3441294277327
 30
0.0
 10
916.9073477072416
 20
-544.3441294277327
 30
0.0
 10
899.495825543052
 20
-547.2660151394011
 30
0.0
 10
880.9020073778829
 20
-553.1084844746329
 30
0.0
 10
878.1858515870899
 20
-588.5825728564159
 30
0.0
 10
874.2900039715296
 20
-631.2285625304758
 30
0.0
 10
869.2144645312055
 20
-681.043849320602
 30
0.0
 10
900.6755173678175
 20
-665.6974388938033
 30
0.0
 10
922.040179024265
 20
-652.2247332527004
 30
0.0
 10
933.3162620291914
 20
-640.627034485391
 30
0.0
 10
944.5897408579058
 20
-629.0293357180817
 30
0.0
 10
951.8501841414472
 20
-617.1516880078125
 30
0.0
 10
955.0949877036037
 20
-604.9914871783658
 30
0.0
 10
958.3423954419741
 20
-592.8325884370242
 30
0.0
 10
959.9647972230523
 20
-584.4809953199801
 30
0.0
 10
959.9647972230523
 20
-579.9354057391283
 30
0.0
  0
HATCH
  5
51
330
41
100
AcDbEntity
  8
Layer 1
 62
   132
420
   316378
100
AcDbHatch
 10
0.0
 20
0.0
 30
0.0
210
0.0
220
0.0
230
1.0
  2
SOLID
 70
     1
 71
     0
 91
        2
 92
        1
 93
        1
 72
     4
 94
        3
 73
     0
 74
     1
 95
       71
 96
       67
 40
0.0
 40
0.0
 40
0.0
 40
0.0
 40
1.0
 40
1.0
 40
1.0
 40
2.0
 40
2.0
 40
2.0
 40
3.0
 40
3.0
 40
3.0
 40
4.0
 40
4.0
 40
4.0
 40
5.0
 40
5.0
 40
5.0
 40
6.0
 40
6.0
 40
6.0
 40
7.0
 40
7.0
 40
7.0
 40
8.0
 40
8.0
 40
8.0
 40
9.0
 40
9.0
 40
9.0
 40
10.0
 40
10.0
 40
10.0
 40
11.0
 40
11.0
 40
11.0
 40
12.0
 40
12.0
 40
12.0
 40
13.0
 40
13.0
 40
13.0
 40
14.0
 40
14.0
 40
14.0
 40
15.0
 40
15.0
 40
15.0
 40
16.0
 40
16.0
 40
16.0
 40
17.0
 40
17.0
 40
17.0
 40
18.0
 40
18.0
 40
18.0
 40
19.0
 40
19.0
 40
19.0
 40
20.0
 40
20.0
 40
20.0
 40
21.0
 40
21.0
 40
21.0
 40
22.0
 40
22.0
 40
22.0
 40
22.0
 10
1001.311302966522
 20
-532.9235146429473
 10
1008.217578285014
 20
-542.1904756990771
 10
1011.670715944259
 20
-553.582444545511
 10
1011.670715944259
 20
-567.098119094142
 10
1011.670715944259
 20
-577.8989399400853
 10
1007.863410319962
 20
-591.3273745855586
 10
1000.248799071371
 20
-607.3821209424568
 10
991.865955839763
 20
-621.7246214389088
 10
979.1784093270599
 20
-635.8327460761357
 10
962.1783470046212
 20
-649.7025885898183
 10
945.1808888583946
 20
-663.5737331916062
 10
933.9360559680299
 20
-672.5438181593818
 10
928.4464525097428
 20
-676.6167497574679
 10
914.9281737848978
 20
-686.0022008313135
 10
894.8031000061274
 20
-697.3629195631838
 10
868.0634186447915
 20
-710.7028122173942
 10
849.5893925854489
 20
-718.0804434305501
 10
835.2768401154535
 20
-721.8591031164979
 10
825.1257612348054
 20
-722.0361870990237
 10
805.1725630861329
 20
-724.0414027834995
 10
791.1855326428395
 20
-719.5413862863861
 10
783.1594615524973
 20
-708.5348355195674
 10
775.1307862859394
 20
-697.5256805765348
 10
771.3391057189256
 20
-686.8433497483093
 10
771.7818156752382
 20
-676.4839367705717
 10
772.2245256315528
 20
-666.125825880943
 10
775.6906841718665
 20
-657.7442847374441
 10
782.1854996486072
 20
-651.3393133400714
 10
788.677710949134
 20
-644.9356440308075
 10
796.2766971404453
 20
-643.416107210167
 10
804.982458222541
 20
-646.7807028781499
 10
813.6882193046349
 20
-650.1452985461328
 10
818.4538617755388
 20
-657.347147864868
 10
819.2819898114667
 20
-668.3836466581415
 10
820.1075136711806
 20
-679.4214475395238
 10
814.8548902483326
 20
-687.6532485507414
 10
803.521515366705
 20
-693.0842580442222
 10
805.7637110866235
 20
-699.8720433449962
 10
814.9720781779433
 20
-700.9931412049555
 10
831.144012464456
 20
-696.4488537122052
 10
829.904424586779
 20
-636.7181659887647
 10
828.9617127974525
 20
-593.335194446252
 10
828.3132729202625
 20
-566.3012411727759
 10
816.6830219502845
 20
-570.2556827531407
 10
808.8027847279045
 20
-572.3806905434467
 10
804.6725612531209
 20
-572.674962455585
 10
800.5996296550366
 20
-572.3806905434467
 10
797.6490980050166
 20
-567.4822350856484
 10
795.8183621268508
 20
-557.9782939940815
 10
793.9902304248972
 20
-548.4756549906233
 10
791.0084486603137
 20
-531.5367908092003
 10
786.87822518553
 20
-507.1590972736067
 10
786.87822518553
 20
-507.1590972736067
 10
786.87822518553
 20
-506.6278453260302
 10
786.87822518553
 20
-506.6278453260302
 10
789.9459447651625
 20
-502.1421517980889
 10
805.1152712094336
 20
-496.4455163308194
 10
832.3836003421347
 20
-489.5405431004356
 10
853.102426297608
 20
-484.759275572249
 10
876.6363667399928
 20
-483.1069257647141
 10
902.9932341979293
 20
-484.5821915897241
 10
929.3448933034379
 20
-486.0587595028401
 10
951.3189321938698
 20
-492.5952417989984
 10
968.9075383405852
 20
-504.1929405663059
 10
986.4961444873006
 20
-515.7906393336134
 10
997.2956632451369
 20
-525.3687994472675
 10
1001.311302966522
 20
-532.9235146429473
 97
        0
 97
        0
 92
        1
 93
        1
 72
     4
 94
        3
 73
     0
 74
     1
 95
       23
 96
       19
 40
0.0
 40
0.0
 40
0.0
 40
0.0
 40
1.0
 40
1.0
 40
1.0
 40
2.0
 40
2.0
 40
2.0
 40
3.0
 40
3.0
 40
3.0
 40
4.0
 40
4.0
 40
4.0
 40
5.0
 40
5.0
 40
5.0
 40
6.0
 40
6.0
 40
6.0
 40
6.0
 10
959.9647972230523
 20
-579.9354057391283
 10
958.3710413803237
 20
-559.9861138547749
 10
949.4283002627908
 20
-548.1214870255717
 10
933.1391780466656
 20
-544.3441294277327
 10
916.9073477072416
 20
-544.3441294277327
 10
899.495825543052
 20
-547.2660151394011
 10
880.9020073778829
 20
-553.1084844746329
 10
878.1858515870899
 20
-588.5825728564159
 10
874.2900039715296
 20
-631.2285625304758
 10
869.2144645312055
 20
-681.043849320602
 10
900.6755173678175
 20
-665.6974388938033
 10
922.040179024265
 20
-652.2247332527004
 10
933.3162620291914
 20
-640.627034485391
 10
944.5897408579058
 20
-629.0293357180817
 10
951.8501841414472
 20
-617.1516880078125
 10
955.0949877036037
 20
-604.9914871783658
 10
958.3423954419741
 20
-592.8325884370242
 10
959.9647972230523
 20
-584.4809953199801
 10
959.9647972230523
 20
-579.9354057391283
 97
        0
 97
        0
 75
     2
 76
     1
 98
        0
  0
INSERT
  5
53
330
41
100
AcDbEntity
  8
Layer 1
100
AcDbBlockReference
  2
block 3
 10
0.0
 20
0.0
 30
0.0
  0
ENDBLK
  5
44
330
41
100
AcDbEntity
  8
0
100
AcDbBlockEnd
  0
BLOCK
  5
54
330
52
100
AcDbEntity
  8
0
100
AcDbBlockBegin
  2
block 3
 70
     0
 10
0.0
 20
0.0
 30
0.0
  3
block 3
  1

  0
SPLINE
  5
56
330
52
100
AcDbEntity
  8
Layer 1
370
     0
100
AcDbSpline
210
0.0
220
0.0
230
1.0
 70
    11
 71
     3
 72
    53
 73
    49
 74
     0
 42
0.0000000001
 43
0.0000000001
 12
1.0
 22
0.0
 32
0.0
 13
1.0
 23
0.0
 33
0.0
 40
0.0
 40
0.0
 40
0.0
 40
0.0
 40
1.0
 40
1.0
 40
1.0
 40
2.0
 40
2.0
 40
2.0
 40
3.0
 40
3.0
 40
3.0
 40
4.0
 40
4.0
 40
4.0
 40
5.0
 40
5.0
 40
5.0
 40
6.0
 40
6.0
 40
6.0
 40
7.0
 40
7.0
 40
7.0
 40
8.0
 40
8.0
 40
8.0
 40
9.0
 40
9.0
 40
9.0
 40
10.0
 40
10.0
 40
10.0
 40
11.0
 40
11.0
 40
11.0
 40
12.0
 40
12.0
 40
12.0
 40
13.0
 40
13.0
 40
13.0
 40
14.0
 40
14.0
 40
14.0
 40
15.0
 40
15.0
 40
15.0
 40
16.0
 40
16.0
 40
16.0
 40
16.0
 10
549.6088182706462
 20
-474.3535134851691
 30
0.0
 10
543.1898749418888
 20
-474.4956830224528
 30
0.0
 10
537.8300726933139
 20
-474.6144059654689
 30
0.0
 10
530.7743482777596
 20
-474.7706886592532
 30
0.0
 10
531.1398971169083
 20
-429.321361762085
 30
0.0
 10
538.4302888348957
 20
-387.6914156368975
 30
0.0
 10
573.512645599596
 20
-354.8446910054327
 30
0.0
 10
603.8596372074098
 20
-326.4315758435878
 30
0.0
 10
627.2547908219094
 20
-325.6827520050656
 30
0.0
 10
658.2002926687419
 20
-354.0280212356893
 30
0.0
 10
674.1169730095062
 20
-368.6072911379679
 30
0.0
 10
687.958930043038
 20
-384.9258218613923
 30
0.0
 10
700.3298316160908
 20
-402.5019223198033
 30
0.0
 10
703.8105664978884
 20
-407.4472254431557
 30
0.0
 10
710.8730533998532
 20
-412.8612739205355
 30
0.0
 10
705.4979431150041
 20
-419.4452324146823
 30
0.0
 10
700.7765559823856
 20
-425.2284691228169
 30
0.0
 10
693.1505135010011
 20
-422.1025941657199
 30
0.0
 10
687.2046764722163
 20
-420.0665604224369
 30
0.0
 10
670.2239621954468
 20
-414.2518071527275
 30
0.0
 10
653.4830622775316
 20
-407.7392425428579
 30
0.0
 10
636.6117504557533
 20
-401.6003520038057
 30
0.0
 10
633.0051653644896
 20
-400.2880621746353
 30
0.0
 10
629.5614768403757
 20
-397.7755314977321
 30
0.0
 10
623.5092718062242
 20
-399.472370476492
 30
0.0
 10
629.6210621717782
 20
-433.8073063427737
 30
0.0
 10
607.7147311661793
 20
-457.061032196897
 30
0.0
 10
589.868304342368
 20
-483.1025852932717
 30
0.0
 10
584.6132674350647
 20
-481.5823769485105
 30
0.0
 10
579.4914729997126
 20
-480.1007358132911
 30
0.0
 10
573.0463753794538
 20
-478.2362502274855
 30
0.0
 10
582.9269124509428
 20
-461.4624256076722
 30
0.0
 10
592.0430946143315
 20
-445.5832810071197
 30
0.0
 10
601.5735566537642
 20
-429.95689549896
 30
0.0
 10
607.3501457806178
 20
-420.4855686927613
 30
0.0
 10
611.3469764442052
 20
-410.3512299105987
 30
0.0
 10
614.726752306904
 20
-399.8766917580278
 30
0.0
 10
616.3056969764821
 20
-394.9831630314338
 30
0.0
 10
617.808482794293
 20
-390.2849603697605
 30
0.0
 10
613.2662481657098
 20
-386.0520051607991
 30
0.0
 10
608.7621973175046
 20
-381.85467830383
 30
0.0
 10
603.791452655867
 20
-383.759769822509
 30
0.0
 10
599.1451849317145
 20
-385.1922584237263
 30
0.0
 10
588.1710256374445
 20
-388.575644404802
 30
0.0
 10
579.9568983038916
 20
-395.4471082710179
 30
0.0
 10
574.4892548429925
 20
-405.6728490537789
 30
0.0
 10
562.9559137310698
 20
-427.2426377573629
 30
0.0
 10
551.9189957593189
 20
-448.9806845898147
 30
0.0
 10
549.6088182706462
 20
-474.3535134851691
 30
0.0
  0
HATCH
  5
57
330
52
100
AcDbEntity
  8
Layer 1
 62
   132
420
   316378
100
AcDbHatch
 10
0.0
 20
0.0
 30
0.0
210
0.0
220
0.0
230
1.0
  2
SOLID
 70
     1
 71
     0
 91
        1
 92
        1
 93
        1
 72
     4
 94
        3
 73
     0
 74
     1
 95
       53
 96
       49
 40
0.0
 40
0.0
 40
0.0
 40
0.0
 40
1.0
 40
1.0
 40
1.0
 40
2.0
 40
2.0
 40
2.0
 40
3.0
 40
3.0
 40
3.0
 40
4.0
 40
4.0
 40
4.0
 40
5.0
 40
5.0
 40
5.0
 40
6.0
 40
6.0
 40
6.0
 40
7.0
 40
7.0
 40
7.0
 40
8.0
 40
8.0
 40
8.0
 40
9.0
 40
9.0
 40
9.0
 40
10.0
 40
10.0
 40
10.0
 40
11.0
 40
11.0
 40
11.0
 40
12.0
 40
12.0
 40
12.0
 40
13.0
 40
13.0
 40
13.0
 40
14.0
 40
14.0
 40
14.0
 40
15.0
 40
15.0
 40
15.0
 40
16.0
 40
16.0
 40
16.0
 40
16.0
 10
549.6088182706462
 20
-474.3535134851691
 10
543.1898749418888
 20
-474.4956830224528
 10
537.8300726933139
 20
-474.6144059654689
 10
530.7743482777596
 20
-474.7706886592532
 10
531.1398971169083
 20
-429.321361762085
 10
538.4302888348957
 20
-387.6914156368975
 10
573.512645599596
 20
-354.8446910054327
 10
603.8596372074098
 20
-326.4315758435878
 10
627.2547908219094
 20
-325.6827520050656
 10
658.2002926687419
 20
-354.0280212356893
 10
674.1169730095062
 20
-368.6072911379679
 10
687.958930043038
 20
-384.9258218613923
 10
700.3298316160908
 20
-402.5019223198033
 10
703.8105664978884
 20
-407.4472254431557
 10
710.8730533998532
 20
-412.8612739205355
 10
705.4979431150041
 20
-419.4452324146823
 10
700.7765559823856
 20
-425.2284691228169
 10
693.1505135010011
 20
-422.1025941657199
 10
687.2046764722163
 20
-420.0665604224369
 10
670.2239621954468
 20
-414.2518071527275
 10
653.4830622775316
 20
-407.7392425428579
 10
636.6117504557533
 20
-401.6003520038057
 10
633.0051653644896
 20
-400.2880621746353
 10
629.5614768403757
 20
-397.7755314977321
 10
623.5092718062242
 20
-399.472370476492
 10
629.6210621717782
 20
-433.8073063427737
 10
607.7147311661793
 20
-457.061032196897
 10
589.868304342368
 20
-483.1025852932717
 10
584.6132674350647
 20
-481.5823769485105
 10
579.4914729997126
 20
-480.1007358132911
 10
573.0463753794538
 20
-478.2362502274855
 10
582.9269124509428
 20
-461.4624256076722
 10
592.0430946143315
 20
-445.5832810071197
 10
601.5735566537642
 20
-429.95689549896
 10
607.3501457806178
 20
-420.4855686927613
 10
611.3469764442052
 20
-410.3512299105987
 10
614.726752306904
 20
-399.8766917580278
 10
616.3056969764821
 20
-394.9831630314338
 10
617.808482794293
 20
-390.2849603697605
 10
613.2662481657098
 20
-386.0520051607991
 10
608.7621973175046
 20
-381.85467830383
 10
603.791452655867
 20
-383.759769822509
 10
599.1451849317145
 20
-385.1922584237263
 10
588.1710256374445
 20
-388.575644404802
 10
579.9568983038916
 20
-395.4471082710179
 10
574.4892548429925
 20
-405.6728490537789
 10
562.9559137310698
 20
-427.2426377573629
 10
551.9189957593189
 20
-448.9806845898147
 10
549.6088182706462
 20
-474.3535134851691
 97
        0
 97
        0
 75
     2
 76
     1
 98
        0
  0
SPLINE
  5
58
330
52
100
AcDbEntity
  8
Layer 1
370
     0
100
AcDbSpline
210
0.0
220
0.0
230
1.0
 70
    11
 71
     3
 72
    38
 73
    34
 74
     0
 42
0.0000000001
 43
0.0000000001
 12
1.0
 22
0.0
 32
0.0
 13
1.0
 23
0.0
 33
0.0
 40
0.0
 40
0.0
 40
0.0
 40
0.0
 40
1.0
 40
1.0
 40
1.0
 40
2.0
 40
2.0
 40
2.0
 40
3.0
 40
3.0
 40
3.0
 40
4.0
 40
4.0
 40
4.0
 40
5.0
 40
5.0
 40
5.0
 40
6.0
 40
6.0
 40
6.0
 40
7.0
 40
7.0
 40
7.0
 40
8.0
 40
8.0
 40
8.0
 40
9.0
 40
9.0
 40
9.0
 40
10.0
 40
10.0
 40
10.0
 40
11.0
 40
11.0
 40
11.0
 40
11.0
 10
432.1375450663263
 20
-501.0320919930336
 30
0.0
 10
425.1885199866902
 20
-505.4520260431118
 30
0.0
 10
420.2090762192583
 20
-508.6191988907831
 30
0.0
 10
413.8179199097694
 20
-512.6843157251487
 30
0.0
 10
387.3299577451189
 20
-481.746988174641
 30
0.0
 10
358.242261544875
 20
-453.3577706724909
 30
0.0
 10
351.5766332818894
 20
-409.8105584983805
 30
0.0
 10
347.3790561913911
 20
-382.3871007780081
 30
0.0
 10
339.1074153563404
 20
-355.5886597241679
 30
0.0
 10
332.7089404934868
 20
-328.4990857737948
 30
0.0
 10
331.6845745603759
 20
-324.1621386285915
 30
0.0
 10
329.8968426965712
 20
-319.3797706903906
 30
0.0
 10
334.0118532245906
 20
-315.8810398816195
 30
0.0
 10
337.4640563562207
 20
-312.9458186677866
 30
0.0
 10
341.2367999366597
 20
-315.1554213527434
 30
0.0
 10
345.1193657543399
 20
-316.2388458754031
 30
0.0
 10
372.8658967563679
 20
-323.9814862451612
 30
0.0
 10
392.6492915045355
 20
-343.0399354461488
 30
0.0
 10
411.5360743810998
 20
-363.0741089798694
 30
0.0
 10
438.307575138082
 20
-391.4719975982243
 30
0.0
 10
464.6237134938056
 20
-420.3361864193876
 30
0.0
 10
472.9592649515362
 20
-460.4372281819242
 30
0.0
 10
474.3649490997841
 20
-467.1998137078981
 30
0.0
 10
475.6883934557227
 20
-473.9795157478829
 30
0.0
 10
477.2178846080451
 20
-481.5871658360193
 30
0.0
 10
469.0856262922362
 20
-484.392546374439
 30
0.0
 10
461.7662117367754
 20
-486.9175155713592
 30
0.0
 10
453.4245566019899
 20
-489.7951183901378
 30
0.0
 10
438.271353449034
 20
-437.2325726484787
 30
0.0
 10
411.0306423845041
 20
-393.7227833482484
 30
0.0
 10
366.9286189463883
 20
-361.7328364207015
 30
0.0
 10
378.458360716957
 20
-412.6294958909475
 30
0.0
 10
394.6421154785185
 20
-461.1266922894447
 30
0.0
 10
432.1375450663263
 20
-501.0320919930336
 30
0.0
  0
HATCH
  5
59
330
52
100
AcDbEntity
  8
Layer 1
 62
   132
420
   316378
100
AcDbHatch
 10
0.0
 20
0.0
 30
0.0
210
0.0
220
0.0
230
1.0
  2
SOLID
 70
     1
 71
     0
 91
        1
 92
        1
 93
        1
 72
     4
 94
        3
 73
     0
 74
     1
 95
       38
 96
       34
 40
0.0
 40
0.0
 40
0.0
 40
0.0
 40
1.0
 40
1.0
 40
1.0
 40
2.0
 40
2.0
 40
2.0
 40
3.0
 40
3.0
 40
3.0
 40
4.0
 40
4.0
 40
4.0
 40
5.0
 40
5.0
 40
5.0
 40
6.0
 40
6.0
 40
6.0
 40
7.0
 40
7.0
 40
7.0
 40
8.0
 40
8.0
 40
8.0
 40
9.0
 40
9.0
 40
9.0
 40
10.0
 40
10.0
 40
10.0
 40
11.0
 40
11.0
 40
11.0
 40
11.0
 10
432.1375450663263
 20
-501.0320919930336
 10
425.1885199866902
 20
-505.4520260431118
 10
420.2090762192583
 20
-508.6191988907831
 10
413.8179199097694
 20
-512.6843157251487
 10
387.3299577451189
 20
-481.746988174641
 10
358.242261544875
 20
-453.3577706724909
 10
351.5766332818894
 20
-409.8105584983805
 10
347.3790561913911
 20
-382.3871007780081
 10
339.1074153563404
 20
-355.5886597241679
 10
332.7089404934868
 20
-328.4990857737948
 10
331.6845745603759
 20
-324.1621386285915
 10
329.8968426965712
 20
-319.3797706903906
 10
334.0118532245906
 20
-315.8810398816195
 10
337.4640563562207
 20
-312.9458186677866
 10
341.2367999366597
 20
-315.1554213527434
 10
345.1193657543399
 20
-316.2388458754031
 10
372.8658967563679
 20
-323.9814862451612
 10
392.6492915045355
 20
-343.0399354461488
 10
411.5360743810998
 20
-363.0741089798694
 10
438.307575138082
 20
-391.4719975982243
 10
464.6237134938056
 20
-420.3361864193876
 10
472.9592649515362
 20
-460.4372281819242
 10
474.3649490997841
 20
-467.1998137078981
 10
475.6883934557227
 20
-473.9795157478829
 10
477.2178846080451
 20
-481.5871658360193
 10
469.0856262922362
 20
-484.392546374439
 10
461.7662117367754
 20
-486.9175155713592
 10
453.4245566019899
 20
-489.7951183901378
 10
438.271353449034
 20
-437.2325726484787
 10
411.0306423845041
 20
-393.7227833482484
 10
366.9286189463883
 20
-361.7328364207015
 10
378.458360716957
 20
-412.6294958909475
 10
394.6421154785185
 20
-461.1266922894447
 10
432.1375450663263
 20
-501.0320919930336
 97
        0
 97
        0
 75
     2
 76
     1
 98
        0
  0
ENDBLK
  5
55
330
52
100
AcDbEntity
  8
0
100
AcDbBlockEnd
  0
ENDSEC
  0
SECTION
  2
ENTITIES
  0
INSERT
  5
42
330
1F
100
AcDbEntity
  8
Layer 1
100
AcDbBlockReference
  2
block 2
 10
0.0
 20
0.0
 30
0.0
  0
ENDSEC
  0
SECTION
  2
OBJECTS
  0
DICTIONARY
  5
C
330
0
100
AcDbDictionary
281
     1
  3
ACAD_GROUP
350
D
  3
ACAD_LAYOUT
350
1A
  3
ACAD_MATERIAL
350
3B
  3
ACAD_MLEADERSTYLE
350
5B
  3
ACAD_MLINESTYLE
350
17
  3
ACAD_PLOTSETTINGS
350
19
  3
ACAD_PLOTSTYLENAME
350
E
  3
ACAD_TABLESTYLE
350
5A
  3
ACAD_VISUALSTYLE
350
2A
  0
SUN
  5
3F
330
29
100
AcDbSun
 90
        1
290
     0
 63
     7
421
 16777215
 40
1.0
291
     1
 91
  2455826
 92
 54000000
292
     0
 70
     2
 71
   256
280
     1
  0
DICTIONARY
  5
D
102
{ACAD_REACTORS
330
C
102
}
330
C
100
AcDbDictionary
281
     1
  0
DICTIONARY
  5
1A
102
{ACAD_REACTORS
330
C
102
}
330
C
100
AcDbDictionary
281
     1
  3
Layout1
350
1E
  3
Layout2
350
26
  3
Model
350
22
  0
DICTIONARY
  5
3B
102
{ACAD_REACTORS
330
C
102
}
330
C
100
AcDbDictionary
281
     1
  3
ByBlock
350
3D
  3
ByLayer
350
3C
  3
Global
350
3E
  0
DICTIONARY
  5
5B
102
{ACAD_REACTORS
330
C
102
}
330
C
100
AcDbDictionary
281
     1
  0
DICTIONARY
  5
17
102
{ACAD_REACTORS
330
C
102
}
330
C
100
AcDbDictionary
281
     1
  3
Standard
350
18
  0
DICTIONARY
  5
19
102
{ACAD_REACTORS
330
C
102
}
330
C
100
AcDbDictionary
281
     1
  0
ACDBDICTIONARYWDFLT
  5
E
102
{ACAD_REACTORS
330
C
102
}
330
C
100
AcDbDictionary
281
     1
  3
Normal
350
F
100
AcDbDictionaryWithDefault
340
F
  0
DICTIONARY
  5
5A
102
{ACAD_REACTORS
330
C
102
}
330
C
100
AcDbDictionary
281
     1
  0
DICTIONARY
  5
2A
102
{ACAD_REACTORS
330
C
102
}
330
C
100
AcDbDictionary
281
     1
  3
2dWireframe
350
2F
  3
3D Hidden
350
31
  3
3dWireframe
350
30
  3
Basic
350
32
  3
Brighten
350
36
  3
ColorChange
350
3A
  3
Conceptual
350
34
  3
Dim
350
35
  3
Facepattern
350
39
  3
Flat
350
2B
  3
FlatWithEdges
350
2C
  3
Gouraud
350
2D
  3
GouraudWithEdges
350
2E
  3
Linepattern
350
38
  3
Realistic
350
33
  3
Thicken
350
37
  0
LAYOUT
  5
1E
102
{ACAD_REACTORS
330
1A
102
}
330
1A
100
AcDbPlotSettings
  1

  2
none_device
  4

  6

 40
0.0
 41
0.0
 42
0.0
 43
0.0
 44
0.0
 45
0.0
 46
0.0
 47
0.0
 48
0.0
 49
0.0
140
0.0
141
0.0
142
1.0
143
1.0
 70
   688
 72
     0
 73
     0
 74
     5
  7

 75
    16
 76
     0
 77
     2
 78
   300
147
1.0
148
0.0
149
0.0
100
AcDbLayout
  1
Layout1
 70
     1
 71
     1
 10
0.0
 20
0.0
 11
12.0
 21
9.0
 12
0.0
 22
0.0
 32
0.0
 14
1.000000000000000E+20
 24
1.000000000000000E+20
 34
1.000000000000000E+20
 15
-1.000000000000000E+20
 25
-1.000000000000000E+20
 35
-1.000000000000000E+20
146
0.0
 13
0.0
 23
0.0
 33
0.0
 16
1.0
 26
0.0
 36
0.0
 17
0.0
 27
1.0
 37
0.0
 76
     0
330
1B
  0
LAYOUT
  5
26
102
{ACAD_REACTORS
330
1A
102
}
330
1A
100
AcDbPlotSettings
  1

  2
none_device
  4

  6

 40
0.0
 41
0.0
 42
0.0
 43
0.0
 44
0.0
 45
0.0
 46
0.0
 47
0.0
 48
0.0
 49
0.0
140
0.0
141
0.0
142
1.0
143
1.0
 70
   688
 72
     0
 73
     0
 74
     5
  7

 75
    16
 76
     0
 77
     2
 78
   300
147
1.0
148
0.0
149
0.0
100
AcDbLayout
  1
Layout2
 70
     1
 71
     2
 10
0.0
 20
0.0
 11
0.0
 21
0.0
 12
0.0
 22
0.0
 32
0.0
 14
0.0
 24
0.0
 34
0.0
 15
0.0
 25
0.0
 35
0.0
146
0.0
 13
0.0
 23
0.0
 33
0.0
 16
1.0
 26
0.0
 36
0.0
 17
0.0
 27
1.0
 37
0.0
 76
     0
330
23
  0
LAYOUT
  5
22
102
{ACAD_REACTORS
330
1A
102
}
330
1A
100
AcDbPlotSettings
  1

  2
none_device
  4

  6

 40
0.0
 41
0.0
 42
0.0
 43
0.0
 44
0.0
 45
0.0
 46
0.0
 47
0.0
 48
0.0
 49
0.0
140
0.0
141
0.0
142
1.0
143
1.0
 70
  1712
 72
     0
 73
     0
 74
     0
  7

 75
     0
 76
     0
 77
     2
 78
   300
147
1.0
148
0.0
149
0.0
100
AcDbLayout
  1
Model
 70
     1
 71
     0
 10
0.0
 20
0.0
 11
12.0
 21
9.0
 12
0.0
 22
0.0
 32
0.0
 14
1.000000000000000E+20
 24
1.000000000000000E+20
 34
1.000000000000000E+20
 15
-1.000000000000000E+20
 25
-1.000000000000000E+20
 35
-1.000000000000000E+20
146
0.0
 13
0.0
 23
0.0
 33
0.0
 16
1.0
 26
0.0
 36
0.0
 17
0.0
 27
1.0
 37
0.0
 76
     0
330
1F
331
29
  0
MATERIAL
  5
3D
102
{ACAD_REACTORS
330
3B
102
}
330
3B
100
AcDbMaterial
  1
ByBlock
 72
     1
 94
      127
  0
MATERIAL
  5
3C
102
{ACAD_REACTORS
330
3B
102
}
330
3B
100
AcDbMaterial
  1
ByLayer
 72
     1
 94
      127
  0
MATERIAL
  5
3E
102
{ACAD_REACTORS
330
3B
102
}
330
3B
100
AcDbMaterial
  1
Global
 72
     1
 94
      127
  0
MLINESTYLE
  5
18
102
{ACAD_REACTORS
330
17
102
}
330
17
100
AcDbMlineStyle
  2
Standard
 70
     0
  3

 62
   256
 51
90.0
 52
90.0
 71
     2
 49
0.5
 62
   256
  6
BYLAYER
 49
-0.5
 62
   256
  6
BYLAYER
  0
ACDBPLACEHOLDER
  5
F
102
{ACAD_REACTORS
330
E
102
}
330
E
  0
VISUALSTYLE
  5
2F
102
{ACAD_REACTORS
330
2A
102
}
330
2A
100
AcDbVisualStyle
  2
2dWireframe
 70
     4
177
     2
291
     0
 71
     0
176
     1
 72
     2
176
     1
 73
     0
176
     1
 90
        0
176
     1
 40
-0.6
176
     1
 41
-30.0
176
     1
 62
     5
 63
     7
421
 16777215
176
     1
 74
     1
176
     1
 91
        4
176
     1
 64
     7
176
     1
 65
   257
176
     1
 75
     1
176
     1
175
     1
176
     1
 42
1.0
176
     1
 92
        0
176
     1
 66
   257
176
     1
 43
1.0
176
     1
 76
     1
176
     1
 77
     6
176
     1
 78
     2
176
     1
 67
     7
176
     1
 79
     5
176
     1
170
     0
176
     1
171
     0
176
     1
290
     0
176
     1
 93
        1
176
     1
 44
0.0
176
     1
173
     0
176
     1
  0
VISUALSTYLE
  5
31
102
{ACAD_REACTORS
330
2A
102
}
330
2A
100
AcDbVisualStyle
  2
3D Hidden
 70
     6
177
     2
291
     0
 71
     1
176
     1
 72
     2
176
     1
 73
     2
176
     1
 90
        0
176
     1
 40
-0.6
176
     1
 41
-30.0
176
     1
 62
     5
 63
     7
421
 16777215
176
     1
 74
     2
176
     1
 91
        2
176
     1
 64
     7
176
     1
 65
   257
176
     1
 75
     2
176
     1
175
     1
176
     1
 42
40.0
176
     1
 92
        0
176
     1
 66
   257
176
     1
 43
1.0
176
     1
 76
     1
176
     1
 77
     6
176
     1
 78
     2
176
     1
 67
     7
176
     1
 79
     3
176
     1
170
     0
176
     1
171
     0
176
     1
290
     0
176
     1
 93
        1
176
     1
 44
0.0
176
     1
173
     0
176
     1
  0
VISUALSTYLE
  5
30
102
{ACAD_REACTORS
330
2A
102
}
330
2A
100
AcDbVisualStyle
  2
3dWireframe
 70
     5
177
     2
291
     0
 71
     0
176
     1
 72
     2
176
     1
 73
     0
176
     1
 90
        0
176
     1
 40
-0.6
176
     1
 41
-30.0
176
     1
 62
     5
 63
     7
421
 16777215
176
     1
 74
     1
176
     1
 91
        4
176
     1
 64
     7
176
     1
 65
   257
176
     1
 75
     1
176
     1
175
     1
176
     1
 42
1.0
176
     1
 92
        0
176
     1
 66
   257
176
     1
 43
1.0
176
     1
 76
     1
176
     1
 77
     6
176
     1
 78
     2
176
     1
 67
     7
176
     1
 79
     5
176
     1
170
     0
176
     1
171
     0
176
     1
290
     0
176
     1
 93
        1
176
     1
 44
0.0
176
     1
173
     0
176
     1
  0
VISUALSTYLE
  5
32
102
{ACAD_REACTORS
330
2A
102
}
330
2A
100
AcDbVisualStyle
  2
Basic
 70
     7
177
     2
291
     1
 71
     1
176
     1
 72
     0
176
     1
 73
     1
176
     1
 90
        0
176
     1
 40
-0.6
176
     1
 41
-30.0
176
     1
 62
     5
 63
     7
421
 16777215
176
     1
 74
     0
176
     1
 91
        4
176
     1
 64
     7
176
     1
 65
   257
176
     1
 75
     1
176
     1
175
     1
176
     1
 42
1.0
176
     1
 92
        8
176
     1
 66
     7
176
     1
 43
1.0
176
     1
 76
     1
176
     1
 77
     6
176
     1
 78
     2
176
     1
 67
     7
176
     1
 79
     5
176
     1
170
     0
176
     1
171
     0
176
     1
290
     0
176
     1
 93
        1
176
     1
 44
0.0
176
     1
173
     0
176
     1
  0
VISUALSTYLE
  5
36
102
{ACAD_REACTORS
330
2A
102
}
330
2A
100
AcDbVisualStyle
  2
Brighten
 70
    12
177
     2
291
     1
 71
     2
176
     1
 72
     2
176
     1
 73
     0
176
     1
 90
        0
176
     1
 40
-0.6
176
     1
 41
-30.0
176
     1
 62
     5
 63
     7
421
 16777215
176
     1
 74
     1
176
     1
 91
        4
176
     1
 64
     7
176
     1
 65
   257
176
     1
 75
     1
176
     1
175
     1
176
     1
 42
1.0
176
     1
 92
        8
176
     1
 66
     7
176
     1
 43
1.0
176
     1
 76
     1
176
     1
 77
     6
176
     1
 78
     2
176
     1
 67
     7
176
     1
 79
     5
176
     1
170
     0
176
     1
171
     0
176
     1
290
     0
176
     1
 93
        1
176
     1
 44
50.0
176
     1
173
     0
176
     1
  0
VISUALSTYLE
  5
3A
102
{ACAD_REACTORS
330
2A
102
}
330
2A
100
AcDbVisualStyle
  2
ColorChange
 70
    16
177
     2
291
     1
 71
     2
176
     1
 72
     2
176
     1
 73
     3
176
     1
 90
        0
176
     1
 40
-0.6
176
     1
 41
-30.0
176
     1
 62
     5
 63
     8
421
  8421504
176
     1
 74
     1
176
     1
 91
        4
176
     1
 64
     7
176
     1
 65
   257
176
     1
 75
     1
176
     1
175
     1
176
     1
 42
1.0
176
     1
 92
        8
176
     1
 66
     8
424
  8421504
176
     1
 43
1.0
176
     1
 76
     1
176
     1
 77
     6
176
     1
 78
     2
176
     1
 67
     7
176
     1
 79
     5
176
     1
170
     0
176
     1
171
     0
176
     1
290
     0
176
     1
 93
        1
176
     1
 44
0.0
176
     1
173
     0
176
     1
  0
VISUALSTYLE
  5
34
102
{ACAD_REACTORS
330
2A
102
}
330
2A
100
AcDbVisualStyle
  2
Conceptual
 70
     9
177
     2
291
     0
 71
     3
176
     1
 72
     2
176
     1
 73
     0
176
     1
 90
        0
176
     1
 40
-0.6
176
     1
 41
-30.0
176
     1
 62
     5
 63
     7
421
 16777215
176
     1
 74
     2
176
     1
 91
        2
176
     1
 64
     7
176
     1
 65
   257
176
     1
 75
     1
176
     1
175
     1
176
     1
 42
40.0
176
     1
 92
        8
176
     1
 66
     7
176
     1
 43
1.0
176
     1
 76
     1
176
     1
 77
     6
176
     1
 78
     2
176
     1
 67
     7
176
     1
 79
     3
176
     1
170
     0
176
     1
171
     0
176
     1
290
     0
176
     1
 93
        1
176
     1
 44
0.0
176
     1
173
     0
176
     1
  0
VISUALSTYLE
  5
35
102
{ACAD_REACTORS
330
2A
102
}
330
2A
100
AcDbVisualStyle
  2
Dim
 70
    11
177
     2
291
     1
 71
     2
176
     1
 72
     2
176
     1
 73
     0
176
     1
 90
        0
176
     1
 40
-0.6
176
     1
 41
-30.0
176
     1
 62
     5
 63
     7
421
 16777215
176
     1
 74
     1
176
     1
 91
        4
176
     1
 64
     7
176
     1
 65
   257
176
     1
 75
     1
176
     1
175
     1
176
     1
 42
1.0
176
     1
 92
        8
176
     1
 66
     7
176
     1
 43
1.0
176
     1
 76
     1
176
     1
 77
     6
176
     1
 78
     2
176
     1
 67
     7
176
     1
 79
     5
176
     1
170
     0
176
     1
171
     0
176
     1
290
     0
176
     1
 93
        1
176
     1
 44
-50.0
176
     1
173
     0
176
     1
  0
VISUALSTYLE
  5
39
102
{ACAD_REACTORS
330
2A
102
}
330
2A
100
AcDbVisualStyle
  2
Facepattern
 70
    15
177
     2
291
     1
 71
     2
176
     1
 72
     2
176
     1
 73
     0
176
     1
 90
        0
176
     1
 40
-0.6
176
     1
 41
-30.0
176
     1
 62
     5
 63
     7
421
 16777215
176
     1
 74
     1
176
     1
 91
        4
176
     1
 64
     7
176
     1
 65
   257
176
     1
 75
     1
176
     1
175
     1
176
     1
 42
1.0
176
     1
 92
        8
176
     1
 66
     7
176
     1
 43
1.0
176
     1
 76
     1
176
     1
 77
     6
176
     1
 78
     2
176
     1
 67
     7
176
     1
 79
     5
176
     1
170
     0
176
     1
171
     0
176
     1
290
     0
176
     1
 93
        1
176
     1
 44
0.0
176
     1
173
     0
176
     1
  0
VISUALSTYLE
  5
2B
102
{ACAD_REACTORS
330
2A
102
}
330
2A
100
AcDbVisualStyle
  2
Flat
 70
     0
177
     2
291
     1
 71
     2
176
     1
 72
     1
176
     1
 73
     1
176
     1
 90
        2
176
     1
 40
-0.6
176
     1
 41
30.0
176
     1
 62
     5
 63
     7
421
 16777215
176
     1
 74
     0
176
     1
 91
        4
176
     1
 64
     7
176
     1
 65
   257
176
     1
 75
     1
176
     1
175
     1
176
     1
 42
1.0
176
     1
 92
        8
176
     1
 66
     7
176
     1
 43
1.0
176
     1
 76
     1
176
     1
 77
     6
176
     1
 78
     2
176
     1
 67
     7
176
     1
 79
     5
176
     1
170
     0
176
     1
171
     0
176
     1
290
     0
176
     1
 93
       13
176
     1
 44
0.0
176
     1
173
     0
176
     1
  0
VISUALSTYLE
  5
2C
102
{ACAD_REACTORS
330
2A
102
}
330
2A
100
AcDbVisualStyle
  2
FlatWithEdges
 70
     1
177
     2
291
     1
 71
     2
176
     1
 72
     1
176
     1
 73
     1
176
     1
 90
        2
176
     1
 40
-0.6
176
     1
 41
30.0
176
     1
 62
     5
 63
     7
421
 16777215
176
     1
 74
     1
176
     1
 91
        4
176
     1
 64
     7
176
     1
 65
   257
176
     1
 75
     1
176
     1
175
     1
176
     1
 42
1.0
176
     1
 92
        0
176
     1
 66
   257
176
     1
 43
1.0
176
     1
 76
     1
176
     1
 77
     6
176
     1
 78
     2
176
     1
 67
     7
176
     1
 79
     5
176
     1
170
     0
176
     1
171
     0
176
     1
290
     0
176
     1
 93
       13
176
     1
 44
0.0
176
     1
173
     0
176
     1
  0
VISUALSTYLE
  5
2D
102
{ACAD_REACTORS
330
2A
102
}
330
2A
100
AcDbVisualStyle
  2
Gouraud
 70
     2
177
     2
291
     1
 71
     2
176
     1
 72
     2
176
     1
 73
     1
176
     1
 90
        2
176
     1
 40
-0.6
176
     1
 41
30.0
176
     1
 62
     5
 63
     7
421
 16777215
176
     1
 74
     0
176
     1
 91
        4
176
     1
 64
     7
176
     1
 65
   257
176
     1
 75
     1
176
     1
175
     1
176
     1
 42
1.0
176
     1
 92
        0
176
     1
 66
     7
176
     1
 43
1.0
176
     1
 76
     1
176
     1
 77
     6
176
     1
 78
     2
176
     1
 67
     7
176
     1
 79
     5
176
     1
170
     0
176
     1
171
     0
176
     1
290
     0
176
     1
 93
       13
176
     1
 44
0.0
176
     1
173
     0
176
     1
  0
VISUALSTYLE
  5
2E
102
{ACAD_REACTORS
330
2A
102
}
330
2A
100
AcDbVisualStyle
  2
GouraudWithEdges
 70
     3
177
     2
291
     1
 71
     2
176
     1
 72
     2
176
     1
 73
     1
176
     1
 90
        2
176
     1
 40
-0.6
176
     1
 41
30.0
176
     1
 62
     5
 63
     7
421
 16777215
176
     1
 74
     1
176
     1
 91
        4
176
     1
 64
     7
176
     1
 65
   257
176
     1
 75
     1
176
     1
175
     1
176
     1
 42
1.0
176
     1
 92
        0
176
     1
 66
   257
176
     1
 43
1.0
176
     1
 76
     1
176
     1
 77
     6
176
     1
 78
     2
176
     1
 67
     7
176
     1
 79
     5
176
     1
170
     0
176
     1
171
     0
176
     1
290
     0
176
     1
 93
       13
176
     1
 44
0.0
176
     1
173
     0
176
     1
  0
VISUALSTYLE
  5
38
102
{ACAD_REACTORS
330
2A
102
}
330
2A
100
AcDbVisualStyle
  2
Linepattern
 70
    14
177
     2
291
     1
 71
     2
176
     1
 72
     2
176
     1
 73
     0
176
     1
 90
        0
176
     1
 40
-0.6
176
     1
 41
-30.0
176
     1
 62
     5
 63
     7
421
 16777215
176
     1
 74
     1
176
     1
 91
        4
176
     1
 64
     7
176
     1
 65
   257
176
     1
 75
     7
176
     1
175
     7
176
     1
 42
1.0
176
     1
 92
        8
176
     1
 66
     7
176
     1
 43
1.0
176
     1
 76
     1
176
     1
 77
     6
176
     1
 78
     2
176
     1
 67
     7
176
     1
 79
     5
176
     1
170
     0
176
     1
171
     0
176
     1
290
     0
176
     1
 93
        1
176
     1
 44
0.0
176
     1
173
     0
176
     1
  0
VISUALSTYLE
  5
33
102
{ACAD_REACTORS
330
2A
102
}
330
2A
100
AcDbVisualStyle
  2
Realistic
 70
     8
177
     2
291
     0
 71
     2
176
     1
 72
     2
176
     1
 73
     0
176
     1
 90
        0
176
     1
 40
-0.6
176
     1
 41
-30.0
176
     1
 62
     5
 63
     7
421
 16777215
176
     1
 74
     1
176
     1
 91
        0
176
     1
 64
     7
176
     1
 65
   257
176
     1
 75
     1
176
     1
175
     1
176
     1
 42
1.0
176
     1
 92
        8
176
     1
 66
     8
424
  7895160
176
     1
 43
1.0
176
     1
 76
     1
176
     1
 77
     6
176
     1
 78
     2
176
     1
 67
     7
176
     1
 79
     5
176
     1
170
     0
176
     1
171
     0
176
     1
290
     0
176
     1
 93
       13
176
     1
 44
0.0
176
     1
173
     0
176
     1
  0
VISUALSTYLE
  5
37
102
{ACAD_REACTORS
330
2A
102
}
330
2A
100
AcDbVisualStyle
  2
Thicken
 70
    13
177
     2
291
     1
 71
     2
176
     1
 72
     2
176
     1
 73
     0
176
     1
 90
        0
176
     1
 40
-0.6
176
     1
 41
-30.0
176
     1
 62
     5
 63
     7
421
 16777215
176
     1
 74
     1
176
     1
 91
        4
176
     1
 64
     7
176
     1
 65
   257
176
     1
 75
     1
176
     1
175
     1
176
     1
 42
1.0
176
     1
 92
       12
176
     1
 66
     7
176
     1
 43
1.0
176
     1
 76
     1
176
     1
 77
     6
176
     1
 78
     2
176
     1
 67
     7
176
     1
 79
     5
176
     1
170
     0
176
     1
171
     0
176
     1
290
     0
176
     1
 93
        1
176
     1
 44
0.0
176
     1
173
     0
176
     1
  0
ENDSEC
  0
EOF
