<?xml version="1.0" encoding="utf-8"?>
<!-- Generator: Adobe Illustrator 22.0.0, SVG Export Plug-In . SVG Version: 6.00 Build 0)  -->
<svg version="1.1" id="Layer_1" xmlns="http://www.w3.org/2000/svg" xmlns:xlink="http://www.w3.org/1999/xlink" x="0px" y="0px"
	 viewBox="0 0 1080 1080" style="enable-background:new 0 0 1080 1080;" xml:space="preserve">
<g>
	<path d="M210.7,591.4c12.3-5.9,21.9-13.4,28.8-22.6c6.9-9.2,11.1-19.2,12.6-30c1.4-10.9,0.3-21.2-3.5-31.2
		c-3.8-9.9-10.2-18.7-19.2-26.3c-9-7.6-20.6-12.6-34.7-14.9c7.6-1.3,14.1-3.8,19.6-7.5c5.5-3.7,10-7.9,13.5-12.8
		c3.5-4.8,6.1-10.1,7.7-15.7c1.6-5.6,2.4-11.2,2.4-16.7c-0.3-11.2-3-20.5-8.2-27.9c-5.2-7.3-11.9-13-20-17.1
		c-8.1-4.1-17-6.9-26.7-8.4c-9.7-1.6-19-2.4-27.9-2.4H79.7c-2.1,0-3.1,1.2-3.1,3.7c0,2.5,1,3.7,3.1,3.7H95v227.2H79.7
		c-2.1,0-3.1,1.2-3.1,3.7c0,2.5,1,3.7,3.1,3.7h85.9C183.4,600.2,198.4,597.2,210.7,591.4z M129.1,365.5H155c6.3,0,12.2,0.8,17.7,2.4
		c5.5,1.6,10.4,4.3,14.7,8c4.3,3.8,7.7,8.8,10.2,15.1c2.5,6.3,3.7,14,3.7,23.2c0,9.2-1.9,18-5.7,26.5c-3.8,8.5-9.1,14.7-15.9,18.6
		c-1.3,0.8-2.7,1.5-4.3,2.2c-1.6,0.7-3.3,1.1-5.1,1.4c-8.6,0-17.1,1.9-25.3,5.7c-8.2,3.8-13.5,10.1-15.9,19V365.5z M129.1,592.7
		v-87.5c1.6,6.3,4.8,11.8,9.6,16.7c4.8,4.8,11.4,7.3,19.8,7.3c8.1,0,14.4-3.3,18.8-9.8c3.1-4.4,4.2-9.3,3.1-14.7
		c-1-5.4-3.8-9.6-8.2-12.8c-3.7-2.4-7.7-3-12.2-2c-3.4,0.8-5.8,2.2-7.1,4.1c-1.3,2-1.8,3.8-1.4,5.5c0.4,1.7,1.4,3,3.1,3.9
		c1.7,0.9,3.9,0.7,6.5-0.6c2.9-1.3,5.2-1.8,6.9-1.4c1.7,0.4,3.1,1.2,4.1,2.6c1.3,1.6,1.8,3.4,1.6,5.5c-0.3,2.1-1,4.2-2.4,6.3
		c-1.3,2.1-3.1,3.7-5.3,4.9c-2.2,1.2-4.6,1.8-7.3,1.8c-3.9,0.3-7.4-0.4-10.4-2c-3-1.6-5.5-3.7-7.5-6.5c-2-2.7-3.4-5.8-4.3-9.2
		c-0.9-3.4-1.1-6.8-0.6-10.2c0.8-8.6,4.4-14.9,10.8-18.8c6.4-3.9,13.4-5.6,21-5.1c11.5,0.8,20.5,3.7,27.1,8.6
		c6.8,5.2,11.9,12.6,15.3,22c3.4,9.4,4.8,19.2,4.3,29.4c-0.3,7.6-1.4,15.1-3.5,22.6c-2.1,7.5-5.6,14.1-10.4,20
		c-4.8,5.9-11.1,10.6-18.8,14.1c-7.7,3.5-17.2,5.3-28.4,5.3H129.1z"/>
	<path d="M290.6,575.9c6.4,8.4,14.6,15.2,24.5,20.4c9.9,5.2,21.7,8,35.3,8.2c11.2,0.3,21.4-1.9,30.4-6.5c9-4.6,16.9-11,23.7-19.4
		c1.3-1.8,1.1-3.5-0.6-5.1c-1.7-1.6-3.2-1.4-4.5,0.4c-4.4,6-10.3,11.2-17.5,15.5c-7.2,4.3-16.3,6.2-27.3,5.7
		c-10.7-0.3-19.6-3.6-26.7-10c-7.1-6.4-12.4-14.3-16.1-23.7c-3.7-9.4-5.8-19.8-6.3-31.2c-0.5-11.4,0.4-22.2,2.7-32.4
		c0,4.2,0.9,8.4,2.7,12.6c1.8,4.2,4.6,8,8.4,11.4c3.8,3.4,8.6,6.1,14.3,8c5.8,2,12.6,2.7,20.4,2.2c6.5-0.3,12.9-1.5,19-3.7
		c6.1-2.2,11.6-5.4,16.5-9.4c4.8-4.1,8.7-9,11.6-14.7c2.9-5.8,4.2-12.2,3.9-19.2c-0.3-6.8-1.8-12.9-4.7-18.4
		c-2.9-5.5-6.7-10.1-11.6-13.9c-4.8-3.8-10.3-6.7-16.3-8.6c-6-2-12.3-2.9-18.8-2.9c-9.7-0.3-19.2,1.2-28.4,4.3
		c-9.3,3.1-17.2,7.6-23.7,13.3c-8.1,7.3-14.5,16-19.2,25.9c-4.7,9.9-7.5,20.3-8.4,31.2c-0.9,10.9,0,21.5,2.7,32
		C279.6,558.1,284.1,567.5,290.6,575.9z M324.1,463c4.4-5.6,10.3-9.9,17.7-12.8c4.4-1.8,8.9-2.9,13.3-3.1c4.4-0.3,8.4,0.5,12,2.4
		c3.5,1.8,6.4,4.8,8.6,8.8c2.2,4.1,3.3,9.4,3.3,15.9c0,9.7-2.2,19-6.7,27.9c-4.5,8.9-10.9,15-19.2,18.4c-7.1,2.9-14.1,2.9-21.2,0.2
		c-7.1-2.7-12-8-14.9-15.9c-2.1-5.5-1.8-10.9,1-16.3c2.7-5.4,7.4-8,13.9-8c2.6,0,5,0.6,7.1,1.8c2.1,1.2,3.4,2.9,3.9,5.3
		c0.5,1.6,0.4,3.1-0.4,4.7c-0.8,1.6-2.6,3-5.5,4.3c-2.6,1.3-4.1,2.9-4.5,4.9s0,3.6,1.2,4.9c1.2,1.3,2.9,2.1,5.1,2.4
		c2.2,0.3,4.6-0.6,7.3-2.7c3.7-3.1,5.8-6.7,6.3-10.6c0.8-6.8-1-12.2-5.5-16.1c-4.5-3.9-9.6-5.8-15.3-5.5c-8.1,0.3-14.3,3.1-18.4,8.6
		C316,475.1,319.7,468.7,324.1,463z"/>
	<path d="M619.2,641.2c-12-6.4-28.4-9-49-7.7c-15.7,1-32.7,4.1-51,9c-18.3,5-37.5,11.2-57.7,18.8c-1-5.5-1.9-11.3-2.6-17.3
		c-0.7-6-1.2-12.6-1.6-19.8c-0.4-7.2-0.7-15.2-0.8-24.1c-0.1-8.9-0.2-19-0.2-30.2c0-3.9,0.1-12.8,0.2-26.5c0.1-13.7,0.2-30.4,0.2-50
		c0-19.6,0-41.4,0-65.3c0-23.9,0-48.2,0-72.8h-2.3c-2.3,1-5.1,1.8-8.3,2.2c-3.2,0.4-6.7,0.7-10.4,0.8c-3.7,0.1-7.6,0.2-11.5,0.2
		c-3.9,0-7.4,0-10.6,0c-2.1,0-3.1,1.1-2.9,3.3c0.1,2.2,1,3.3,2.6,3.3h16.1v208.7c0.3,18,1,35.1,2.1,51.2c1.2,16.1,4.3,30.7,9.5,43.8
		c-7.2,2.6-14.4,5.3-21.4,8c-7.1,2.7-14.2,5.4-21.6,8c-7.8-14.4-19.4-26.8-34.5-37.3c-9.9-6.8-20.8-12.4-32.6-16.7
		s-23.9-7.7-36.3-10c-12.4-2.4-25-3.7-37.7-4.1c-12.7-0.4-24.9-0.1-36.7,1c-18.6,1.8-35.2,5.4-50,10.8
		c-14.8,5.4-27.7,11.8-38.7,19.4c-17,12-27.8,25-32.4,39c-4.6,14-4.2,27,1.2,39c5.4,12,15.1,22,29.2,30c14.1,8,31.3,11.8,51.4,11.6
		c18.6-0.3,38.5-2.6,59.6-7.1c21.2-4.5,41.8-9.7,61.8-15.9c20-6.2,38.6-12.5,55.7-19c17.1-6.5,31.1-12,41.8-16.5
		c1.6,7.8,2.3,15.9,2.2,24.1c-0.1,8.2-1.2,16.1-3.3,23.7c-2.1,7.6-5.2,14.8-9.2,21.6c-4.1,6.8-9.4,12.7-15.9,17.7
		c-6.8,5.2-15.2,9.4-25.3,12.6c-10.1,3.1-19.9,4.4-29.4,3.7c-9.5-0.7-18.1-3.7-25.7-9c-7.6-5.4-12.2-13.9-13.7-25.7
		c-0.5-3.4-2-5.8-4.3-7.3c-2.4-1.4-4.6-1.9-6.9-1.4c-2.2,0.5-3.9,2.2-5.1,5.1c-1.2,2.9-0.7,7.1,1.4,12.6c3.4,9.7,9.7,17,18.8,22
		c9.2,5,19.4,8,30.6,9c11.3,1,22.6,0.1,33.9-2.9c11.4-3,21.3-7.7,29.6-13.9c7.1-5.5,12.8-11.9,17.3-19.2c4.5-7.3,7.7-15.1,9.8-23.3
		c2.1-8.2,3.1-16.7,3.1-25.5c0-8.8-0.9-17.5-2.7-26.1c7.6-2.9,15-5.9,22.1-9c7.1-3.1,14.5-6.4,21.9-9.8
		c7.8,14.1,18.5,25.4,32.1,33.9c13.6,8.5,28.3,14.3,44.1,17.5c15.8,3.1,31.8,3.5,48.1,1c16.2-2.5,30.6-7.8,43.2-15.9
		c12.3-7.8,20.7-17.3,25.1-28.3c4.4-11,4.8-21.3,1.2-31C639.1,655.6,631.2,647.6,619.2,641.2z M341.6,705.7
		c-17.9,6.3-36.1,12.2-54.5,17.7c-18.4,5.5-36.8,10.1-54.9,13.9c-18.2,3.8-35.6,6.1-52.4,6.9c-16.5,0.8-31-1.4-43.6-6.5
		c-12.6-5.1-21.6-12-27.1-20.8c-5.5-8.8-6.7-18.7-3.5-29.8c3.1-11.1,12.3-22.2,27.5-33.2c10.7-7.6,23.3-14.1,37.9-19.4
		c14.5-5.4,31.1-9,49.6-10.8c11.5-1,23.4-1.4,35.7-1.2c12.3,0.3,24.5,1.5,36.7,3.7c12.2,2.2,24,5.5,35.5,9.8
		c11.5,4.3,22,9.7,31.4,16.3c14.4,9.7,25.4,21.3,33,34.9C376.6,693.3,359.5,699.5,341.6,705.7z M635.9,695.3
		c-4.6,9.3-12,17.2-22.2,23.7c-7.1,4.4-15,8-23.9,10.6c-8.9,2.6-18.2,4.1-27.9,4.5c-9.7,0.4-19.5-0.3-29.4-2.2
		c-9.9-1.8-19.2-4.9-27.9-9.2c-8.6-4.3-16.4-9.9-23.3-16.7c-6.9-6.8-12.2-15-15.9-24.7c20.4-8.4,40-15.8,58.9-22.4
		c18.8-6.5,35.6-10.7,50.2-12.6c19.4-2.4,34.3-1.1,44.7,3.7c10.5,4.8,17,11.2,19.6,19.2C641.4,677.4,640.4,686,635.9,695.3z"/>
	<path d="M475.6,600.2h58.9c1.8,0,2.7-1.1,2.7-3.3c0-2.2-0.9-3.3-2.7-3.3h-15.7V443.2h-5.1c-6,1.3-11.8,2-17.3,2.2
		c-5.5,0.1-11.4,0.2-17.7,0.2c-2.1,0-3.1,1.1-2.9,3.3c0.1,2.2,1,3.3,2.6,3.3h13v141.3h-15.7c-1.8,0-2.8,1.1-2.9,3.3
		C472.5,599.1,473.5,600.2,475.6,600.2z"/>
	<path d="M488.1,389.5c0,4.5,1.6,8.3,4.9,11.6c3.3,3.3,7.3,4.9,12,4.9c4.4,0,8.3-1.6,11.6-4.9c3.3-3.3,4.9-7.1,4.9-11.6
		c0-4.7-1.6-8.7-4.9-12c-3.3-3.3-7.1-4.9-11.6-4.9c-4.7,0-8.7,1.6-12,4.9C489.7,380.8,488.1,384.8,488.1,389.5z"/>
	<path d="M680,578.6c1.3-1.8,1.1-3.5-0.6-5.1c-1.7-1.6-3.2-1.4-4.5,0.4c-4.4,6-10.3,11.2-17.5,15.5c-7.2,4.3-16.3,6.2-27.3,5.7
		c-10.7-0.3-19.6-3.6-26.7-10c-7.1-6.4-12.4-14.3-16.1-23.7c-3.7-9.4-5.8-19.8-6.3-31.2c-0.5-11.4,0.4-22.2,2.7-32.4
		c0,4.2,0.9,8.4,2.7,12.6c1.8,4.2,4.6,8,8.4,11.4c3.8,3.4,8.6,6.1,14.3,8c5.8,2,12.6,2.7,20.4,2.2c6.5-0.3,12.9-1.5,19-3.7
		c6.1-2.2,11.6-5.4,16.5-9.4c4.8-4.1,8.7-9,11.6-14.7c2.9-5.8,4.2-12.2,3.9-19.2c-0.3-6.8-1.8-12.9-4.7-18.4
		c-2.9-5.5-6.7-10.1-11.6-13.9c-4.8-3.8-10.3-6.7-16.3-8.6c-6-2-12.3-2.9-18.8-2.9c-9.7-0.3-19.2,1.2-28.4,4.3
		c-9.3,3.1-17.2,7.6-23.7,13.3c-8.1,7.3-14.5,16-19.2,25.9c-4.7,9.9-7.5,20.3-8.4,31.2c-0.9,10.9,0,21.5,2.7,32
		c2.7,10.5,7.3,19.9,13.7,28.3c6.4,8.4,14.6,15.2,24.5,20.4c9.9,5.2,21.7,8,35.3,8.2c11.2,0.3,21.4-1.9,30.4-6.5
		C665.3,593.4,673.2,587,680,578.6z M599.6,463c4.4-5.6,10.3-9.9,17.7-12.8c4.4-1.8,8.9-2.9,13.3-3.1c4.4-0.3,8.4,0.5,12,2.4
		c3.5,1.8,6.4,4.8,8.6,8.8c2.2,4.1,3.3,9.4,3.3,15.9c0,9.7-2.2,19-6.7,27.9c-4.5,8.9-10.9,15-19.2,18.4c-7.1,2.9-14.1,2.9-21.2,0.2
		c-7.1-2.7-12-8-14.9-15.9c-2.1-5.5-1.8-10.9,1-16.3c2.7-5.4,7.4-8,13.9-8c2.6,0,5,0.6,7.1,1.8c2.1,1.2,3.4,2.9,3.9,5.3
		c0.5,1.6,0.4,3.1-0.4,4.7s-2.6,3-5.5,4.3c-2.6,1.3-4.1,2.9-4.5,4.9s0,3.6,1.2,4.9c1.2,1.3,2.9,2.1,5.1,2.4c2.2,0.3,4.6-0.6,7.3-2.7
		c3.7-3.1,5.8-6.7,6.3-10.6c0.8-6.8-1-12.2-5.5-16.1c-4.5-3.9-9.6-5.8-15.3-5.5c-8.1,0.3-14.3,3.1-18.4,8.6
		C591.4,475.1,595.1,468.7,599.6,463z"/>
	<path d="M798.3,431.1c-8.2,0-15.2,2.7-21,8.2c-5.2,4.7-8.4,10.5-9.4,17.5c-1,6.9,0.8,13,5.5,18.2c2.6,2.9,5.6,4.9,9,6.1
		c3.4,1.2,6.8,1.6,10.2,1.2c3.4-0.4,6.5-1.6,9.2-3.7c2.7-2.1,4.8-4.8,6.1-8.2c1.6-3.7,1.3-7.7-0.8-12.2c-1.6-3.1-3.5-5.1-5.7-5.9
		c-2.2-0.8-4.1-0.8-5.7,0c-1.6,0.8-2.6,2.1-2.9,3.9c-0.4,1.8,0.3,3.9,2.2,6.3c2.1,2.4,3.1,4.5,3.1,6.3c0,1.8-0.7,3.4-2,4.7
		c-2.1,2.4-5.1,3.3-9,2.9c-3.9-0.4-6.9-2.3-9-5.7c-3.1-4.7-4.1-9.7-2.7-14.9c1.3-5.2,4.2-9.5,8.6-12.9c4.2-3.1,9.3-4.6,15.3-4.5
		c6,0.1,11,2.2,14.9,6.1c3.7,3.7,5.5,8.4,5.5,14.1c0,6.3-1,12.6-3.1,18.8c-2.1,6.3-4.6,12.6-7.5,18.8l-39.2,78.5l-40-122.4h14.9
		c1.8,0,2.7-1.1,2.7-3.3c0-2.2-0.9-3.3-2.7-3.3h-58.9c-1.6,0-2.4,1.1-2.6,3.3c-0.1,2.2,0.7,3.3,2.6,3.3h14.9l53.8,152.2h9
		l51.8-105.2c2.9-6,5.6-12.5,8-19.4c2.5-6.9,3.7-14.1,3.7-21.4c0-8.1-2.6-14.5-7.8-19.2C813.5,433.8,806.5,431.1,798.3,431.1z"/>
	<path d="M1002.9,386.1c-1.8-13.7-8-26-18.4-36.7c-6-6.3-13.7-11.4-23-15.5c-9.3-4.1-20.2-6.5-32.8-7.3c-9.9-0.5-19.8,0.2-29.4,2.2
		c-9.7,2-19.2,4.6-28.6,8c-9.4,3.4-18.6,7.2-27.7,11.4c-9,4.2-17.9,8.2-26.5,12.2c-11,5.2-21.9,10.2-32.8,14.9
		c-10.9,4.7-21.4,8.8-31.8,12.2c-10.3,3.4-20.3,5.8-29.8,7.3c-9.5,1.4-18.5,1.4-26.9-0.2c-7.3-1.6-14.3-4.1-21-7.5
		c-6.7-3.4-12.3-7.7-16.9-12.8c-4.6-5.1-7.5-10.9-8.8-17.3c-1.3-6.4-0.4-13.4,2.7-21c5.2,3.1,10.9,6.7,17.1,10.6
		c6.1,3.9,12.4,7.7,18.8,11.2c6.4,3.5,12.9,6.5,19.4,9c6.5,2.5,12.8,4.1,18.8,4.9c13.3,1.3,24.3,0.3,32.8-2.9
		c8.5-3.3,14.7-7.9,18.6-13.9c3.7-5.2,5.3-11,4.9-17.5c-0.4-6.4-2.6-12.4-6.5-17.9c-4.7-6.8-11.8-12.5-21.4-17.1
		c-9.5-4.6-21.8-6.9-36.7-6.9c-13.3,0.3-26.2,3.2-38.7,8.8c-12.4,5.6-22,13.7-28.8,24.1c-6-2.9-11.8-5.4-17.3-7.7
		c-5.5-2.2-11.5-3.7-18-4.5c-7.8-1-13.4-0.3-16.7,2.2c-3.3,2.5-5,5.5-5.1,9c-0.1,3.5,1,6.9,3.3,10c2.4,3.1,5.2,4.8,8.6,5.1
		c-0.8-2.4-1.2-4.8-1.4-7.3c-0.1-2.5,0.3-4.8,1.2-6.9c0.9-2.1,2.7-3.7,5.3-4.9c2.6-1.2,6.3-1.6,11-1.4c4.7,0.5,9.4,1.9,13.9,4.1
		c4.6,2.2,8.8,4.6,12.8,7.3c-3.4,8.6-4.3,16.9-2.7,24.9c1.6,8,4.8,15.1,9.8,21.4c5,6.3,11.3,11.6,19,15.9c7.7,4.3,16,7.3,24.9,8.8
		c12.8,2.4,25.6,2.8,38.3,1.4c12.7-1.4,25.2-4.1,37.7-7.8c12.4-3.8,24.7-8.4,36.9-13.7c12.2-5.4,24-10.8,35.5-16.3
		c8.4-3.9,16.1-7.6,23.3-11c7.2-3.4,14.1-6.3,20.8-8.8c6.7-2.5,13.3-4.5,19.8-6.1c6.5-1.6,13.3-2.5,20.4-2.7
		c8.4-0.3,17.4,0.7,27.1,2.7c9.7,2.1,17.9,6.2,24.7,12.2c4.7,4.5,8.4,9.5,11,15.1c2.6,5.6,4.2,11.4,4.9,17.5c0.6,6,0.4,12-0.8,17.9
		c-1.2,5.9-3.1,11.2-5.7,15.9c-5.8,9.7-13.9,16.4-24.3,20.2c-10.5,3.8-21.5,4.5-33,2.2c-5.5-1.6-11.2-2.4-17.3-2.4
		c-9.7-0.3-19.2,1.2-28.4,4.3c-9.3,3.1-17.2,7.6-23.7,13.3c-8.1,7.3-14.5,16-19.2,25.9c-4.7,9.9-7.5,20.3-8.4,31.2
		c-0.9,10.9,0,21.5,2.7,32c2.7,10.5,7.3,19.9,13.7,28.3c6.4,8.4,14.6,15.2,24.5,20.4c9.9,5.2,21.7,8,35.3,8.2
		c11.2,0.3,21.4-1.9,30.4-6.5c9-4.6,16.9-11,23.7-19.4c1.3-1.8,1.1-3.5-0.6-5.1c-1.7-1.6-3.2-1.4-4.5,0.4
		c-4.4,6-10.3,11.2-17.5,15.5c-7.2,4.3-16.3,6.2-27.3,5.7c-10.7-0.3-19.6-3.6-26.7-10c-7.1-6.4-12.4-14.3-16.1-23.7
		c-3.7-9.4-5.8-19.8-6.3-31.2c-0.5-11.4,0.4-22.2,2.7-32.4c0,4.2,0.9,8.4,2.7,12.6c1.8,4.2,4.6,8,8.4,11.4c3.8,3.4,8.6,6.1,14.3,8
		c5.8,2,12.6,2.7,20.4,2.2c6.5-0.3,12.9-1.5,19-3.7c6.1-2.2,11.6-5.4,16.5-9.4c4.8-4.1,8.7-9,11.6-14.7c2.9-5.8,4.2-12.2,3.9-19.2
		c-0.3-8.1-2.4-15.2-6.3-21.2c-3.9-6-9-10.9-15.3-14.5c9.9,0,19-2.2,27.3-6.5c8.2-4.3,15-10.5,20.2-18.6
		C1002.1,412.5,1004.8,399.9,1002.9,386.1z M667.4,315.9c5.5-4.1,11.5-7.3,18.1-9.8c6.5-2.5,13.3-4.2,20.2-5.3
		c6.9-1,13.7-1.4,20.2-1.2c11,0.8,20.7,3.3,29,7.5c8.4,4.2,14.4,9,18,14.5c2.9,3.9,4.5,8.5,4.7,13.7c0.3,5.2-1,9.7-3.9,13.3
		c-3.4,3.9-9.3,6.8-17.7,8.6c-8.4,1.8-19.2,2.1-32.6,0.8c-5.5-0.8-11.2-2.2-17.1-4.1c-5.9-2-11.9-4.2-18-6.9
		c-6.1-2.6-12.2-5.4-18-8.2c-5.9-2.9-11.3-5.6-16.3-8.2C657.5,324.9,661.9,320,667.4,315.9z M936.2,502.1
		c-4.5,8.9-10.9,15-19.2,18.4c-7.1,2.9-14.1,2.9-21.2,0.2c-7.1-2.7-12-8-14.9-15.9c-2.1-5.5-1.8-10.9,1-16.3c2.7-5.4,7.4-8,13.9-8
		c2.6,0,5,0.6,7.1,1.8c2.1,1.2,3.4,2.9,3.9,5.3c0.5,1.6,0.4,3.1-0.4,4.7s-2.6,3-5.5,4.3c-2.6,1.3-4.1,2.9-4.5,4.9s0,3.6,1.2,4.9
		c1.2,1.3,2.9,2.1,5.1,2.4c2.2,0.3,4.6-0.6,7.3-2.7c3.7-3.1,5.8-6.7,6.3-10.6c0.8-6.8-1-12.2-5.5-16.1c-4.5-3.9-9.6-5.8-15.3-5.5
		c-8.1,0.3-14.3,3.1-18.4,8.6c2.9-7.3,6.5-13.8,11-19.4c4.4-5.6,10.3-9.9,17.7-12.8c4.4-1.8,8.9-2.9,13.3-3.1
		c4.4-0.3,8.4,0.5,12,2.4c3.5,1.8,6.4,4.8,8.6,8.8c2.2,4.1,3.3,9.4,3.3,15.9C942.9,483.9,940.7,493.2,936.2,502.1z"/>
	<path d="M781.7,654c-15,3.6-30.1,7.1-45.9,10.9c1.5-4.4,2.9-8,4-11.6c1.1-3.5,3.1-6.8,2.7-10.8c-5.8,6-10.5,12.9-16,19.6
		c-1-1.5-1.8-2.7-2.4-3.9c-2.7-5.2-5.4-10.5-8.1-15.7c-3.8-7.5-7.7-15-11.6-22.5c-0.7-1.2-1.1-3-3.7-3.5
		c3.2,17.3,7.9,33.6,11.1,50.8c-3.6-0.7-6.4-1.2-9.2-1.8c-2.8-0.6-5.6-1.3-8.4-1.7c-2.7-0.4-5.3-2-9-0.6c7.2,4.2,13.8,8,21.1,12.4
		c-7.7,3.9-14.6,7.2-21.4,10.8c-6.7,3.5-13.8,6.3-20.1,10.5c0.1,0.3,0.3,0.7,0.4,1c15.3-3.6,30.5-7.2,46.6-11
		c-1.8,6.1-3.4,11.6-5,17.1c0.4,0.2,0.7,0.4,1.1,0.7c4.8-3.4,7.9-8.8,12.6-12.7c0.8,1.4,1.6,2.6,2.2,3.9
		c5.2,11.1,10.3,22.3,15.5,33.4c4,8.5,8,17,12,25.5c0.4,0.8,1.2,1.5,1.8,2.2c0.3-0.2,0.7-0.3,1-0.5c-1-7.9-3.9-15.5-5.7-23.2
		c-1.8-7.7-4-15.4-6.1-23.1c-2.1-7.8-4.1-15.6-6.4-24c7.3,1,14,2,20.6,2.9c0.2-0.4,0.3-0.8,0.5-1.2c-4.9-4.2-11.3-6.3-16.8-10.8
		c14.6-7.4,28.6-14.6,42.7-21.8C781.9,654.8,781.8,654.4,781.7,654z"/>
	<path d="M334.5,332.1c-1.8,6.1-3.4,11.6-5,17.1c0.4,0.2,0.7,0.4,1.1,0.7c4.8-3.4,7.9-8.8,12.6-12.7c0.8,1.4,1.6,2.6,2.2,3.9
		c5.2,11.1,10.3,22.3,15.5,33.4c4,8.5,8,17,12,25.5c0.4,0.8,1.2,1.5,1.8,2.2c0.3-0.2,0.7-0.3,1-0.5c-1-7.9-3.9-15.5-5.7-23.2
		c-1.8-7.7-4-15.4-6.1-23.1c-2.1-7.8-4.1-15.6-6.4-24c7.3,1,14,2,20.6,2.9c0.2-0.4,0.3-0.8,0.5-1.2c-4.9-4.2-11.3-6.3-16.8-10.8
		c14.6-7.4,28.6-14.6,42.7-21.8c-0.1-0.4-0.3-0.8-0.4-1.2c-15,3.6-30.1,7.1-45.9,10.9c1.5-4.4,2.9-8,4-11.6
		c1.1-3.5,3.1-6.8,2.7-10.8c-5.8,6-10.5,12.9-16,19.6c-1-1.5-1.8-2.7-2.4-3.9c-2.7-5.2-5.4-10.5-8.1-15.7c-3.8-7.5-7.7-15-11.6-22.5
		c-0.7-1.2-1.1-3-3.7-3.5c3.2,17.3,7.9,33.6,11.1,50.8c-3.6-0.7-6.4-1.2-9.2-1.8c-2.8-0.6-5.6-1.3-8.4-1.7c-2.7-0.4-5.3-2-9-0.6
		c7.2,4.2,13.8,8,21.1,12.4c-7.7,3.9-14.6,7.2-21.4,10.8c-6.7,3.5-13.8,6.3-20.1,10.5c0.1,0.3,0.3,0.7,0.4,1
		C303.2,339.5,318.5,335.9,334.5,332.1z"/>
	<path d="M835.4,639.7c-8.4,0-8.4,13.1,0,13.1C843.8,652.8,843.8,639.7,835.4,639.7z"/>
	<path d="M954.6,663.6c-9.7,0-9.7,15.1,0,15.1C964.3,678.7,964.3,663.6,954.6,663.6z"/>
	<path d="M857.7,738c-6.7,0-6.8,10.5,0,10.5C864.4,748.4,864.4,738,857.7,738z"/>
	<path d="M582.6,394.8c6.7,0,6.8-10.5,0-10.5C575.8,384.3,575.8,394.8,582.6,394.8z"/>
	<path d="M492.2,284.8c10.1,0,10.1-15.7,0-15.7C482.1,269,482.1,284.8,492.2,284.8z"/>
	<path d="M289.2,407.2c12.6,0,12.7-19.6,0-19.6C276.5,387.6,276.5,407.2,289.2,407.2z"/>
	<path d="M926.6,383.4c-6.7,0-6.8,10.5,0,10.5C933.4,393.9,933.4,383.4,926.6,383.4z"/>
</g>
</svg>
