<?xml version="1.0" encoding="utf-8"?>
<!-- Generator: Adobe Illustrator 22.0.0, SVG Export Plug-In . SVG Version: 6.00 Build 0)  -->
<svg version="1.1" id="Layer_1" xmlns="http://www.w3.org/2000/svg" xmlns:xlink="http://www.w3.org/1999/xlink" x="0px" y="0px"
	 viewBox="0 0 1080 1080" style="enable-background:new 0 0 1080 1080;" xml:space="preserve">
<g>
	<path d="M300.2,580.1c-15.6-4.5-30.2-1-43.9,5.2c8.5-25.5,15.9-51.5,19.8-78.1c3.3-21.9,12.2-85-28.1-73.8
		c-14.2,3.9-22.4,18.7-28.4,31.1c-7.5,15-12.9,31.3-17.7,47.4c-3.8,12.7-7.2,25.5-10.1,38.5c-4.6-24.4-11.4-48.1-21.2-70.7
		c-7-16.3-17-37.8-34.1-45.6c-15-6.9-30.3-0.9-38.5,12.6c-14.7,24.3-30,86.5-14.6,112.1c3.1,5.2,7.6,7.4,12.1,7.9
		c27.6,3,42.9-54.3,46.6-76.8c0.8-4.1-12.2-4.1-12.9-0.1c-3.4,15.8-14.2,70.8-30.9,67.6c-12.4-2.3-5.9-49.7-1.5-66
		c3.7-14.6,9.6-32.5,19.4-44.5c4.1-5,11.6,3.3,13.5,6c4.8,6.7,9,14,12.7,21.4c7.9,15.9,13.7,32.6,18.2,49.7
		c9.1,33.8,13.2,68.8,14.3,103.7c0.7,20.7,0.1,41.6-1.2,62.3c-0.2,1.3-0.3,2.8-0.3,4.5c-22.3,9.5-40.5,29.4-49,52.1
		c-7.2,19.7-10.2,45.9,2.4,64.1c11.2,16.1,31.2,20.6,49.6,20.6c44.8,0.1,83.6-27.4,109.8-61.8c28.6-37.4,49.6-86.6,48.3-134.2
		C333.9,611.8,324.6,587.3,300.2,580.1z M309.9,643.6c-1.2,37-15.1,73.9-34.5,105.1c-17.8,28.4-44.1,57-77.3,66.8
		c-12.9,3.8-29.9,5.5-41.4-3.1c-14.6-10.8-15.4-32.4-12.5-48.7c3.2-18.1,12.2-35.8,25.9-48.2c0.4-0.4,0.8-0.7,1.3-1.1
		c-0.9,8-1.7,15.7-2.2,20.3c-0.9,9.7,23.9,3.5,26.6-16.3c0.7-5.8,1.2-11.5,1.7-17.3c4.4-1.2,8.8-2.3,13.3-3.1c5.2-1.1,9-7,1.5-8.4
		c-4.7-0.7-9.3-1.1-14-0.9c0.2-2.1,0.2-4.2,0.4-6.3c0.5-7.7,0.7-15.6,0.9-23.4c3-25.6,5.6-51.1,9.9-76.5c4.4-25,10.2-49.7,17.9-73.9
		c3.6-11.5,7.6-23,12.4-34.1c2.3-5.3,4.9-10.6,7.7-15.7c3.2-5.6,6.5-4.4,7,1.2c0.6,8.6,0,18-0.4,23.8c-0.9,14.6-3,29.1-6,43.4
		c-5.6,26.3-14,51.8-23.1,77.1c-3.4,9.5,17,7.4,20.9,4.9c12.9-7.8,32.3-25.3,47.5-14.4C308.4,605.5,310.4,626.9,309.9,643.6z"/>
	<path d="M598.1,647.8c15.5-27.9,12.7-69.5-24-77.7c-33.6-7.6-58.8,25.1-56.3,56.5c0.5,6.5,2.3,12.7,5.1,18.4
		c-4,12.6-9.6,26.1-11.8,30.2c-7.7,13.7-19.5,34.3-36.4,34.3c-19.3,0-26-18.6-28.1-37.5c1,0.1,2.1,0.3,3.1,0.3
		c15.3,0.7,26-10.3,32.8-22.8c10.7-19.7,27.6-81.7-12.5-80c-35.6,1.5-48,51.7-48.4,79.8c-0.2,7.5-0.1,15.6,0.7,23.6
		c-5,23.1-12.4,49-21.8,49.9c-5.5,0.5-7.5-2.1-10.4-6.4c-4.7-7.1-7.9-15.3-10.4-23.5c-5.3-18.1-7.3-37.4-8.3-56
		c-0.5-9.1-1-25.3-0.8-34.4c36.7-52.2,55.3-134.1,38.2-151.5c-5.4-5.5-11.5-7-18.4-4.2c-7.7,2.9-17.5,13.5-29,50.3
		c-13.8,44.4-17.3,95.1-14.6,141.4c1.8,29.3,7.9,106.9,53.9,98.5c12.6-2.3,19.8-20.6,25.3-44.6c1.1,3.7,2.5,7.2,4.2,10.6
		c8.3,16.1,25,23.3,42.6,21.3c18.6-2,33.8-19.8,43.5-42.5c4-9.3,7.8-19.5,10.9-29.2c3.3,5,7.4,9.6,11.9,13.7
		c5.8,5.3,12.4,9.7,19.2,13.6c7.2,4.2,16,8,19.8,15.8c6.1,12.3-5,20.2-14.1,19.9c-11-0.5-15-12.2-16.4-21.4
		c-1.3-9.1-26-7.1-24.7,1.5c3.5,24,21.7,34.6,45,32.6c9.5-0.9,19.7-3.5,27.4-9.4c12.7-9.6,11.6-25,0.4-35.8
		c-11.5-11.3-27.9-15.9-39.2-28c-12.3-13.1-17-31.2-11.7-48.5c2.3-7.4,6.3-15.3,12.1-20.4c4.4-3.8,6.7-4.3,12.2-1.8
		c23.4,11,18.4,43.6,13.9,62.6C581.8,651.3,596.4,651,598.1,647.8z M378.9,523.5c2.7-17.7,13.3-65,23.7-68.6
		c16.9,22.6-22.1,116.9-30.5,125.3C373.6,561.2,376,542.3,378.9,523.5z M446.6,636.2c2.2-37.3,18.9-60.8,26.9-56.5
		c6.4,3.3,7,15.5,7.1,21.5c0.3,15.6-3.9,31.5-11,45.4c-3.8,7.2-11.2,21.2-21.8,16.4c-0.7-0.2-1.2-0.6-1.7-1
		C445.6,651.5,446.3,641.8,446.6,636.2z"/>
	<path d="M723.8,564.3c9.8-0.3,17.6-4.6,17.5-9.8c-0.2-5.1-8.2-9.2-18-9c-9.8,0.3-17.7,4.6-17.5,9.8
		C705.9,560.6,713.9,564.6,723.8,564.3z"/>
	<path d="M888.3,744c-0.5-2.3-4.2-1.8-5.7-1.3c-33.5-12.8-12.6-122.3-8.6-171.1c0.7-8.9,0.8-25.7-3.9-36.8
		c-1.9-4.1-15.1-11.9-20.8-10.7c-9.4,2.2-15.2,12.7-19,22.3c-6.6,17-13,34-17.8,51.6c-5.3,19.3-8.5,39-12.3,58.7
		c-0.3-3.1-0.6-6.2-0.9-9.4c-2-21.5-2.8-41.5-2.3-64.9c0.2-9-16.8-4.7-18.4,0.5c-3.4,10.8-5.9,39.1-4.8,64.6c0.1,1.6,0.2,3.3,0.3,5
		c-5,24.3-14.3,56-27.1,56.2c-6.8,0.1-10.3-16.3-11.3-21.1c-3.7-18-2.5-37-2.5-55.2c-0.1-9.3,0.5-34.5-0.3-43.8c0-0.4,0-0.9-0.1-1.3
		c5.6-0.6,7.9-1.9,7.6-4.9c-0.3-4-9.2-5.5-20.4-5.1c-11.2,0.4-20.3,1.3-20.1,6.7c0.1,3.4,4.5,4.5,9,4.5c0,0.4-0.1,0.9-0.1,1.3
		c0.3,6.6-0.3,19.5-0.3,26.1c0.1,13.3,0.1,26.6,0.2,39.8c0.1,19.3-0.6,48,17.2,60.7c4.4,3,9.4,4.5,14.4,4.3
		c18.8-0.7,29.2-23.8,35.3-48c1.7,13.1,4.9,26,11.6,36.9c2.9,4.8,15.5,3.7,16.6-2.2c5.7-30.4,12.2-61,19.2-91
		c3.5-14.6,7.2-29.2,12.5-43.3c2.5-6.5,5-12.9,8.5-19c0.7-1.3,1.9-3.6,3.3-6.1c0,0.5,0,1,0.2,1.6c0.6,6.5,0.9,13.1,1.2,19.8
		c-13.5,112.1-10.9,157.7,3,176.6c6.4,6.9,15.9,9.4,25.1,7.9C882.3,752.7,889.4,750.5,888.3,744z"/>
	<path d="M996.9,610.7c-6.8,20.1-15.4,37.1-25.7,54.5c-2.6,4.4-5.4,8.7-8.4,12.9c-0.5-35.9-1.6-71.7-3-107.4c-0.3-7.4-18-7.6-23-2
		c-2.6-2.2-5.8-4.1-10.1-5.1c-11.3-2.7-24.1,1.2-31.7,10.2c-9.3,11.3-11.8,29.2-14.1,43.2c-2.6,17.3-2.9,35-0.7,52.4
		c1.5,12.1,4.7,24.6,18.2,27.9c12.3,2.9,23.4-2.5,29-13.4c4.4-8.5,7.5-17.8,10.2-27.1c0.2,8,0.4,15.9,0.5,23.9
		c0.1,9.3,0.3,18.5,0.6,27.9c-1.5,1.9-3,3.8-4.5,5.7c-11.7,14.7-23.3,29.2-33.2,45c-9.2,14.6-18,31.4-16.6,49.2
		c0.9,13.3,8.7,26.5,21.1,32.5c13.4,6.4,31.6-0.4,40.7-11.2c11.2-13.4,14-32.8,15.6-49.7c1.8-20.6,1.5-41.4,1.6-62
		c-0.1-9.4-0.2-18.8-0.3-28.2c25.2-36.2,35.4-62.1,38.5-78C1001.6,610.7,997.2,609.9,996.9,610.7z M931.4,618.5
		c-1.5,10.6-9,61.2-24.1,68.1c-3.2,0.5-5.5-11.4-5.8-12.8c-3.8-19.4-3-40.5,0.3-59.9c1.7-10.1,3.8-21.8,8.7-31.1
		c9-17.1,19.6,1.6,22.3,12.3c0.2,0.6,0.7,1.3,1.4,1.6C932.4,603.8,932.4,611.4,931.4,618.5z M936,789.1
		c-1.6,11.7-5.3,37.5-19.7,41.3c-8.9,2.3-15.1-8.8-17.1-16c-2.4-8.7-1.6-18.1,0.7-26.6c6.7-24.9,22.9-45.8,38.9-66.1
		C939.2,744.2,938.7,767,936,789.1z"/>
	<path d="M182,219.4c0.6,0,2.5-0.2,5.6-0.6c-0.2,2.6-0.2,9.2-0.3,19.5c-0.2,10.4-0.3,20.3-0.5,29.6c0,9.3,0,15.9,0,19.8
		c0,56.1,1.9,96.1,5.5,120.1l-5.3,0.8c-2.3,0.5-4.1,1.4-5.3,3.1c-1.2,1.6-1.9,3.3-1.9,5.1c0,2.8,1.1,5.1,3.3,6.7
		c1.6,1.1,3.4,1.7,5.5,1.7c0.6,0,9.3-1.4,26.3-4.1c2.3-0.5,4.2-1.4,5.3-3c1.2-1.7,1.9-3.4,1.9-5.3c0-2.8-1.1-5.1-3.1-6.5
		c-1.7-1.2-3.4-1.9-5.3-1.9l-4.8,0.6c-3.6-22.4-5.3-60.1-5.3-113.3c0-11.5,0-22.4,0.2-32.6c4.4,23.5,9.2,44.9,14.6,64
		c6.1,22,11.1,35.4,15,40c5.5,6.1,11.2,9,17.3,9c4.2-0.2,7.5-1.6,9.8-4.1c2.3-2.6,3.7-6.4,4.5-11.5c4.5-32.9,15.6-72.3,32.9-118.4
		c-0.5,16.8-0.8,35.1-0.8,54.4c0,60.8,2.6,105.8,8.1,135.1l-6.4-0.3c-2.2,0-4.1,0.8-5.6,2.2c-1.7,1.4-2.6,3.4-2.8,5.9
		c0,2.3,0.8,4.4,2.2,5.9c2.3,2.6,16.4,4.2,42.1,4.8c2,0,3.9-0.8,5.6-2.2c1.6-1.4,2.5-3.4,2.7-5.9c0-2.3-0.6-4.2-2-5.9
		c-1.4-1.6-3.4-2.5-5.8-2.6c-2.5-0.2-5-0.3-7.5-0.5c0-39.7,0.3-70,1.1-91c1.6-49.5,4.8-94.9,9.8-135.7l9.4-2.2
		c4.4-1.1,6.5-3.9,6.5-8.3c0-2.6-1.1-4.8-3.1-6.5c-1.4-1.1-3.1-1.7-5.1-1.7c-0.8,0-17.8,3.7-51,11.2c-2.3,0.6-3.9,1.7-5,3.4
		c-1.1,1.6-1.6,3.1-1.6,4.8c0,2.3,0.8,4.2,2.5,5.9c-3,7.3-6.9,17.6-11.7,30.8c-4.8,13.2-9.8,28-14.8,44.4
		c-5,16.4-9.2,32.7-12.6,49.2c-7-25.7-15.9-65.4-26.5-119.2c2.2-0.5,3.9-1.6,5-3.1c1.2-1.6,1.7-3.3,1.7-5.1c-0.2-2.8-1.1-5-2.8-6.2
		c-1.7-1.4-3.6-2-5.5-2c-0.6,0-15,1.6-42.8,4.7c-2.3,0.3-4.1,1.2-5.5,2.8c-1.2,1.7-1.9,3.4-1.9,5.5c0.2,2.8,0.9,5,2.6,6.4
		C178.1,218.8,180,219.4,182,219.4z"/>
	<path d="M356.2,406.4h-6.1c-2.3,0-4.4,0.8-5.9,2.5c-1.7,1.7-2.5,3.6-2.5,5.9c0,2.3,0.8,4.4,2.5,5.9c1.6,1.7,3.6,2.5,5.9,2.5h40.5
		c2.3,0,4.2-0.8,5.9-2.5c1.6-1.6,2.3-3.6,2.3-5.9c0-2.3-0.8-4.2-2.3-5.9c-1.7-1.7-3.6-2.5-5.9-2.5H373c0.9-5.8,2-12,3.4-18.5
		c12.5-3,25.6-4.5,39.6-4.5c5.9,0,10.9,0.2,15.1,0.5c2.2,8.6,4.5,16.2,7,23.2h-12.8c-2.3,0-4.2,0.8-5.9,2.5
		c-1.7,1.7-2.5,3.6-2.5,5.9c0,2.3,0.8,4.2,2.5,5.9c1.7,1.7,3.6,2.5,5.9,2.5h53.3c2.3,0,4.2-0.8,5.9-2.5c1.7-1.7,2.5-3.6,2.5-5.9
		c0-2.3-0.8-4.2-2.5-5.9c-1.7-1.7-3.6-2.5-5.9-2.5h-12.8c-4-19.8-8.3-44.1-12.6-73.1c-5.9-38.6-9.7-74.5-11.1-107.4
		c5.9,0.5,11.5,1.6,16.8,3c0.8,0.2,1.6,0.3,2.2,0.3c1.4,0,2.8-0.5,4.1-1.1c2.8-1.7,4.4-4.1,4.4-7.3c0-1.4-0.5-2.8-1.1-4.1
		c-1.1-2-2.8-3.3-5-4.1c-10.6-2.8-23.2-4.2-37.6-4.2c-14.6,0.2-25.6,0.8-32.6,2c-2.3,0.5-4.2,1.4-5.5,3c-1.2,1.7-1.9,3.4-1.9,5.3
		c0,2.8,1.1,5,3.1,6.5c1.6,1.2,3.4,1.9,5.5,1.9l9.8-0.9l-0.5,1.6C378.3,307.3,362.2,366.5,356.2,406.4z M409.5,266.6l1.6-4.8
		c3.7,36.8,9,71.8,16.2,105c-2.6-0.2-5.5-0.2-8.4-0.2c-13.7,0-26.5,0.9-38.5,3.1C387,341.3,396.7,307,409.5,266.6z"/>
	<path d="M495.9,219.4c0.6,0,2.5-0.2,5.6-0.6c-0.2,2.6-0.2,9.2-0.3,19.5c-0.2,10.4-0.3,20.3-0.5,29.6c0,9.3,0,15.9,0,19.8
		c0,56.1,1.9,96.1,5.5,120.1l-5.3,0.8c-2.3,0.5-4.1,1.4-5.3,3.1c-1.2,1.6-1.9,3.3-1.9,5.1c0,2.8,1.1,5.1,3.3,6.7
		c1.6,1.1,3.4,1.7,5.5,1.7c0.6,0,9.3-1.4,26.3-4.1c2.3-0.5,4.2-1.4,5.3-3c1.2-1.7,1.9-3.4,1.9-5.3c0-2.8-1.1-5.1-3.1-6.5
		c-1.7-1.2-3.4-1.9-5.3-1.9l-4.8,0.6c-3.6-22.4-5.3-60.1-5.3-113.3c0-11.5,0-22.4,0.2-32.6c4.4,23.5,9.2,44.9,14.6,64
		c6.1,22,11.1,35.4,15,40c5.5,6.1,11.2,9,17.3,9c4.2-0.2,7.5-1.6,9.8-4.1c2.3-2.6,3.7-6.4,4.5-11.5c4.5-32.9,15.6-72.3,32.9-118.4
		c-0.5,16.8-0.8,35.1-0.8,54.4c0,60.8,2.6,105.8,8.1,135.1l-6.4-0.3c-2.2,0-4.1,0.8-5.6,2.2c-1.7,1.4-2.6,3.4-2.8,5.9
		c0,2.3,0.8,4.4,2.2,5.9c2.3,2.6,16.4,4.2,42.1,4.8c2,0,3.9-0.8,5.6-2.2c1.6-1.4,2.5-3.4,2.6-5.9c0-2.3-0.6-4.2-2-5.9
		c-1.4-1.6-3.4-2.5-5.8-2.6c-2.5-0.2-5-0.3-7.5-0.5c0-39.7,0.3-70,1.1-91c1.6-49.5,4.8-94.9,9.8-135.7l9.4-2.2
		c4.4-1.1,6.5-3.9,6.5-8.3c0-2.6-1.1-4.8-3.1-6.5c-1.4-1.1-3.1-1.7-5.1-1.7c-0.8,0-17.8,3.7-51,11.2c-2.3,0.6-3.9,1.7-5,3.4
		c-1.1,1.6-1.6,3.1-1.6,4.8c0,2.3,0.8,4.2,2.5,5.9c-3,7.3-6.9,17.6-11.7,30.8c-4.8,13.2-9.8,28-14.8,44.4
		c-5,16.4-9.2,32.7-12.6,49.2c-7-25.7-15.9-65.4-26.5-119.2c2.2-0.5,3.9-1.6,5-3.1c1.2-1.6,1.7-3.3,1.7-5.1c-0.2-2.8-1.1-5-2.8-6.2
		c-1.7-1.4-3.6-2-5.5-2c-0.6,0-15,1.6-42.8,4.7c-2.3,0.3-4.1,1.2-5.5,2.8c-1.2,1.7-1.9,3.4-1.9,5.5c0.2,2.8,0.9,5,2.6,6.4
		C492,218.8,493.9,219.4,495.9,219.4z"/>
	<path d="M670.1,406.4H664c-2.3,0-4.4,0.8-5.9,2.5c-1.7,1.7-2.5,3.6-2.5,5.9c0,2.3,0.8,4.4,2.5,5.9c1.6,1.7,3.6,2.5,5.9,2.5h40.5
		c2.3,0,4.2-0.8,5.9-2.5c1.6-1.6,2.3-3.6,2.3-5.9c0-2.3-0.8-4.2-2.3-5.9c-1.7-1.7-3.6-2.5-5.9-2.5h-17.6c0.9-5.8,2-12,3.4-18.5
		c12.5-3,25.6-4.5,39.6-4.5c5.9,0,10.9,0.2,15.1,0.5c2.2,8.6,4.5,16.2,7,23.2h-12.8c-2.3,0-4.2,0.8-5.9,2.5
		c-1.7,1.7-2.5,3.6-2.5,5.9c0,2.3,0.8,4.2,2.5,5.9c1.7,1.7,3.6,2.5,5.9,2.5h53.3c2.3,0,4.2-0.8,5.9-2.5c1.7-1.7,2.5-3.6,2.5-5.9
		c0-2.3-0.8-4.2-2.5-5.9c-1.7-1.7-3.6-2.5-5.9-2.5h-12.8c-4-19.8-8.3-44.1-12.6-73.1c-5.9-38.6-9.7-74.5-11.1-107.4
		c5.9,0.5,11.5,1.6,16.8,3c0.8,0.2,1.6,0.3,2.2,0.3c1.4,0,2.8-0.5,4.1-1.1c2.8-1.7,4.4-4.1,4.4-7.3c0-1.4-0.5-2.8-1.1-4.1
		c-1.1-2-2.8-3.3-5-4.1c-10.6-2.8-23.2-4.2-37.6-4.2c-14.6,0.2-25.6,0.8-32.6,2c-2.3,0.5-4.2,1.4-5.5,3c-1.2,1.7-1.9,3.4-1.9,5.3
		c0,2.8,1.1,5,3.1,6.5c1.6,1.2,3.4,1.9,5.5,1.9l9.8-0.9l-0.5,1.6C692.2,307.3,676.2,366.5,670.1,406.4z M723.4,266.6l1.6-4.8
		c3.7,36.8,9,71.8,16.2,105c-2.6-0.2-5.5-0.2-8.4-0.2c-13.7,0-26.5,0.9-38.5,3.1C701,341.3,710.6,307,723.4,266.6z"/>
	<path d="M830.3,228c8.1,5.6,14.2,8.4,18.5,8.4c1.6,0,2.8-0.5,3.9-1.2c2.5-2,3.7-4.5,3.7-7.3c0-1.6-0.5-3.1-1.6-4.5l-17.5-22.6
		c-1.9-2.5-4.2-3.7-7-3.7c-1.9,0-3.7,0.5-5.5,1.2c-1.9,0.9-3.6,2-5.1,3.4c-1.7,1.4-3.1,2.8-4.4,4.2c-1.1,1.4-1.7,3.3-1.7,5.5
		c0.2,2.5,1.1,4.5,2.8,6.1C821.2,221.5,825.7,225,830.3,228z"/>
	<path d="M902.2,362.5c5.8,1.6,11.4,2.3,16.7,2.3c4.8,0,8.9-0.8,12.3-2.2c6.5-2.8,11.2-4.4,14-4.4c2,0,3.7,0.6,5.3,1.7
		c2.2,1.7,3.9,5,5,10.1c0.9,3.6,1.2,7.8,1.2,12.6c-0.2,5.8-0.9,11.2-2.3,16c-1.4,5-3.3,9.5-5.9,13.7s-5.6,7.3-8.9,9.7
		c-3.4,2.3-6.1,3.6-7.9,3.7c-1.7,0.2-2.8,0.2-3.1,0.2c-2.8,0-5.3-0.9-7.5-2.6c-2.2-1.9-3.4-4.1-3.6-6.5c-0.3-2.3-0.5-3.9-0.5-4.7
		c0-3.9,1.1-8.7,3.1-14.5c1.4,0.3,2.8,0.5,4.2,0.6c1.4,0,2.6-0.3,3.7-1.1c1.6-1.2,2.5-3,2.5-5c0-1.4-0.3-2.6-1.2-4.1
		c-0.8-1.2-2.2-2-3.9-2.3l-18.5-3c-1.2,0-2.3,0.5-3.4,1.2c-1.7,1.2-2.6,3-2.6,5.3c0,3.1,2.3,5.3,6.7,6.2c-1.9,5.9-3,11.4-3,16.2
		c0,6.1,1.6,11.4,4.7,15.9c2.3,3.6,5.5,6.4,9.3,8.4c5.1,2.8,11.1,4.2,17.8,4.2c8.3,0,15.9-1.9,23.2-5.6
		c10.9-5.9,19.3-14.6,25.2-26.3c3.6-7.5,5.5-14.8,5.5-22.4c0-10.6-3.7-19.5-11.1-26.6c-10.1-9.2-21.7-13.9-34.9-13.9
		c-6.7,0.2-13.1,1.4-19.2,4.1c-3.3,1.4-6.1,2-8.6,2c-5.6,0-9.5-3-11.8-9c-1.4-4.1-2.2-9.2-2.2-15.3c0.2-6.7,1.1-13.7,2.8-21.2
		c1.7-7.3,4.2-15,7.5-22.6c3.3-7.6,7.2-15.1,11.7-22.3c4.5-7,9.8-13.6,15.7-19.3c5.8-5.8,12.3-10.3,19.3-13.9c3.9-1.9,7.3-3,10.3-3
		c4.4,0.2,7.6,2,9.8,5.8c2.3,4.2,3.4,10,3.4,17.6c0,7.2-0.9,15.3-3.1,24c-1.2,5.3-2.6,10.1-4.4,14.5c-0.3,1.1-0.5,2-0.5,3
		c0,3.7,1.7,6.4,5.3,7.9c1.2,0.5,2.3,0.8,3.4,0.8c3.6,0,6.1-1.7,7.3-5.1c7.9-20.4,11.8-39,11.8-55.8c0-27.6-11.8-41.4-35.7-41.4
		c-3,0-6.2,0.3-9.7,0.8c-19,2.8-36,11.7-50.9,26.6c-13.7,13.7-23.8,30.2-30.5,49.7c-4.7,13.6-7,26.6-7,39.1
		c0,14.2,2.8,26.2,8.7,35.8C882.1,354.7,890.2,359.5,902.2,362.5z"/>
	<path d="M855.9,794.5c-2.7-8.1-8-14-15.7-17.6c-4.7-2.3-9.8-3.4-15-4c-8.4-0.9-16.7,0-24.9,1.2c-11.3,1.7-22.2,4.8-33.1,8.2
		c-16.5,5.2-32.4,11.7-48.3,18.2c-3,1.2-6.1,2.5-9.3,3.8c-17.8-19.3-26.7-41.4-25-66.7c-0.3,0.1-0.5,0.1-0.8,0.2
		c0.7-5.6,0.5-14.3,0.2-20.3c1.5-0.8,2.9-1.7,4.2-2.7c12.7-9.6,11.6-25,0.4-35.8c-11.5-11.3-27.9-15.9-39.2-28
		c-12.3-13.1-17-31.2-11.7-48.5c2.3-7.4,6.3-15.3,12.1-20.4c4.4-3.8,6.7-4.3,12.2-1.8c23.4,11,18.4,43.6,13.9,62.6
		c-1.1,4.7,13.5,4.4,15.2,1.2c15.5-27.9,12.7-69.5-24-77.7c-33.6-7.6-58.8,25.1-56.3,56.5c1.3,15.6,9.7,29,21.1,39.4
		c5.8,5.3,12.4,9.7,19.2,13.6c7.2,4.2,16,8,19.8,15.8c6.1,12.3-5,20.2-14.1,19.9c-11-0.5-15-12.2-16.4-21.4
		c-1.3-9.1-26-7.1-24.7,1.5c3.3,22,18.8,32.8,39.4,32.8l1,20.4c0.1,2.9,0.2,5.7,0.4,8.6c0.1,0.9-0.2,2,0.5,2.5c1,0.8,1,1.9,1.3,3
		c1.5,5.7,3.5,11.2,6.1,16.4c6.6,13.4,16.2,24.2,27.9,33.2c0.7,0.5,1.5,0.8,1.8,1.8c-0.5,0.2-0.9,0.4-1.4,0.6
		c-23.4,9.2-46.9,18.2-70.5,26.9c-32.8,12.1-66.1,22.6-100.3,30.2c-12.9,2.9-26,5-39.1,6.6c-8.8,1-17.6,1.7-26.4,2.2
		c-11.5,0.6-22.9-0.3-33.9-4.2c-30.8-11-43.9-39.2-39.3-65.7c4.3-24.8,19.2-40.6,43.4-47.2c16.1-4.4,32.4-3.8,48.6-0.3
		c8.4,1.8,16.3,4.9,23.3,9.9c7.7,5.4,13.4,12.4,16.1,21.6c0.9,2.9,1.3,5.9,0.9,9c-0.3,3-0.9,5.9-1.7,8.7c-0.7,2.6-1.1,5.2-1,7.8
		c0,1.2,0.4,2.2,1.2,3c3.4,3.3,9.7,2.2,11.7-2.1c0.4-0.8,0.6-1.6,0.8-2.5c0.8-3.9,0.1-7.7-0.5-11.5c-2.6-15.6-10.5-28-23.4-36.9
		c-13.4-9.3-28.5-13.2-44.6-14c-14.9-0.8-29.6,1.1-44.1,4.7c-13.7,3.4-26.4,8.9-37.7,17.5c-5.7,4.3-10.7,9.2-14.7,15.1
		c-5.8,8.6-9.5,18-9.8,28.5c-0.3,11,2.9,20.9,8.9,29.9c6.3,9.5,14.8,16.3,24.6,21.8c15.7,8.7,32.7,12.3,50.4,13.4
		c10,0.7,20,0.4,30-0.4c11.8-0.9,23.6-2.5,35.3-4.6c18.4-3.4,36.5-8,54.4-13.1c28.7-8.1,56.8-18,84.7-28.4
		c19.2-7.1,38.3-14.6,57.4-22.3c1.5-0.6,2.6-0.5,4,0.3c3.2,2,6.5,3.8,9.9,5.4c27.9,12.8,57.1,19.3,88,17.9
		c11.3-0.5,22.3-2.6,32.8-6.8c6.3-2.5,12.2-5.8,17-10.6c4.1-4.1,7-8.9,7.3-15c0-0.5,0-1,0.4-1.3v-2.9c-0.4-0.7-0.4-1.5-0.4-2.3
		C856.8,797.4,856.4,796,855.9,794.5z M832.1,820.4c-5,4.7-11.1,7.3-17.5,9.2c-5.3,1.6-10.8,2.4-16.3,2.8c-17.7,1.4-35.1-0.3-52-5.7
		c-11.3-3.6-21.4-9.3-30.5-16.9c-0.5-0.5-1.2-0.8-1.7-1.8c4.1-1.8,8.1-3.5,12.1-5.1c14.3-6,28.7-12,43.7-16.3
		c8.4-2.4,16.9-4.6,25.6-5.3c8.1-0.7,16.2-1,24,1.7c5.6,1.9,10.6,4.9,14.4,9.5C841.2,801.5,840.5,812.5,832.1,820.4z"/>
	<path d="M382.1,891.8c-9-1.4-17.6-4.2-25.6-8.5c-15.8-8.4-26.5-20.9-31.2-38.3c-0.9-3.2-1.4-6.6-2.1-9.9c-0.4-1.9-0.9-3.7-1.9-5.4
		c-0.5-0.9-1-1.8-2.1-1.8c-1.1,0-1.6,1-2,1.8c-0.7,1.4-1,2.9-1.3,4.4c-1.1,6.2-0.9,12.4,0,18.7c1.2,8.3,3.7,16.2,8.2,23.4
		c6.8,10.7,16.4,17,28.9,19c2.4,0.4,4.8,0.1,7.1,0.9c0.8,0,1.6,0,2.4,0c0.6-0.4,1.2-0.3,1.9-0.4c5.6-0.2,11.1-1.2,16.6-2.6
		c0.8-0.2,1.6-0.3,2.3-0.8C382.9,891.8,382.5,891.9,382.1,891.8z"/>
	<path d="M612.4,508.1c2.7,0.4,5.3,0.9,8,1.3c4.7,0.7,8.9,2.5,12.9,5.4c9.5,7.1,20.2,11.7,32,13.4c4.3,0.6,8.8,0.6,13.1,0.3
		c5.2-0.3,9.8-2.3,11.5-7.6c1.9-5.6,0.4-10.8-3.4-15.1c-3.1-3.6-7.4-5.3-11.9-6.4c-9.5-2.3-19.1-2-28.7-0.6
		c-3.9,0.5-7.6,1.4-10.9,3.7c-1,0.7-2.6,1.3-3.8,1.1c-8.6-1.2-17.3-2.6-25.9-4c0-0.4-0.1-0.8-0.1-1.2c4.6-2.4,9.4-4.6,13.9-7.2
		c4.8-2.8,9.7-5.6,13.9-9.1c4.8-3.9,6.9-9.1,4.7-15.4c-1.6-4.5-4.6-7.2-9.4-6.9c-3.8,0.2-7.9,1-11.2,2.7
		c-12,6.2-21.3,15.4-28.1,27.1c-1.3,2.3-2.1,4.9-3.4,7.9c-10.7-0.1-21.6-0.2-32.5-0.4c-0.1-0.4-0.3-0.7-0.4-1.1
		c1.9-1.4,3.8-2.8,5.8-4.2c5.1-3.7,10.4-7,15.1-11.1c3-2.6,5.8-5.9,7.5-9.4c4.4-9-0.6-16.4-10.6-16.5c-6.6,0-12.2,2.4-17.2,6.5
		c-10.8,9.1-18,20.6-21.6,34.2c-0.7,2.6-1.5,4.2-4.4,4.7c-14.2,2.2-28.3,4.6-43,6c1.3-1.4,2.6-2.9,3.9-4.2
		c5.1-5.2,10.4-10.2,15.3-15.5c3.8-4.1,7.1-8.6,9-14c1.8-5.1,1.7-10-1.9-14.4c-3.8-4.6-9.8-6.4-15-3.6c-3.6,2-7.2,4.6-9.9,7.7
		c-9.8,11.5-15.5,24.9-17.8,39.8c-0.4,2.8-0.1,5.7-0.2,9.1c-7.2,2.7-14.7,5.6-22.7,8.6c0.2,2.2,0.4,4.3,0.7,7.1
		c8.6-2.7,16.8-5.2,25.4-7.8c1.5,2.7,2.8,4.8,3.9,7c4.6,9.4,10.6,17.8,18.1,24.9c3.4,3.2,7.4,5.9,11.6,8c4.9,2.4,10,1.9,14.2-2
		c4.3-4.1,5.6-9.1,3.8-14.8c-1.4-4.5-3.9-8.4-7.5-11.3c-5-4-10.4-7.5-15.8-11c-2.5-1.6-5.3-2.8-7.9-4.2c0.1-0.5,0.1-1,0.2-1.5
		c11.8-1.9,23.7-3.9,35.5-5.9c4-0.7,6.4,1,7.9,4.7c2.3,5.6,4.8,11.2,7.1,16.8c3.1,7.4,7.8,13.5,14.3,18.1c2.3,1.6,5,2.9,7.7,3.6
		c7.4,1.6,12.7-2.5,13.3-10.1c0.4-5.9-1.1-11.6-4.5-16.3c-3.3-4.4-7.4-8.3-11.4-12.2c-2.3-2.2-4.9-4-8.2-6.7
		c2.4-0.2,3.8-0.5,5.2-0.5c7.4-0.2,14.9-0.3,22.3-0.6c4.3-0.2,6.5,1.8,7.7,5.8c2.6,8.6,6,16.9,10.6,24.6c3.5,5.9,8,10.9,13.5,14.9
		c3.8,2.7,7.7,3.3,11.9,1.4c4.5-2,6.5-5.7,6.9-10.5c0.3-3.8-0.7-7.3-2.5-10.7c-3.8-7-9.3-12.4-15.2-17.6c-1.5-1.3-3-2.7-5.2-4.5
		C610.3,508.2,611.4,508,612.4,508.1z"/>
	<path d="M718.4,481.8c5.4-1.5,8.5-7.5,6.8-12.8c-1.7-5.2-7.4-8.1-12.5-6.5c-5.2,1.7-8.2,7.2-6.6,12.5
		C707.7,480.2,713.2,483.3,718.4,481.8z"/>
	<path d="M763.5,512.9c-5.2,1.7-8.2,7.2-6.6,12.5c1.6,5.2,7.1,8.3,12.4,6.8c5.4-1.5,8.5-7.5,6.8-12.8
		C774.3,514.2,768.6,511.3,763.5,512.9z"/>
	<path d="M793.4,475c1.6,5.2,7.1,8.3,12.4,6.8c5.4-1.5,8.5-7.5,6.8-12.8c-1.7-5.2-7.4-8.1-12.5-6.5
		C794.7,464.2,791.8,469.8,793.4,475z"/>
</g>
</svg>
