<?xml version="1.0" encoding="utf-8"?>
<!-- Generator: Adobe Illustrator 22.0.0, SVG Export Plug-In . SVG Version: 6.00 Build 0)  -->
<svg version="1.1" id="Layer_1" xmlns="http://www.w3.org/2000/svg" xmlns:xlink="http://www.w3.org/1999/xlink" x="0px" y="0px"
	 viewBox="0 0 1080 1080" style="enable-background:new 0 0 1080 1080;" xml:space="preserve">
<style type="text/css">
	.st0{fill:#BE1E2F;}
	.st1{fill:#030405;}
</style>
<g>
	<g>
		<g>
			<g>
				<path class="st0" d="M868.5,573.5c13.9-13.4,27.8-26.8,41.7-40.1c0.8-0.7,1.5-1.5,2.4-2.2c2.1-1.7,3.3-1.7,5.4,0.2
					c3.2,3.1,6.4,6.1,9.6,9.2c4.9,4.6,9.7,9.3,14.6,13.9c2.2,2.1,2.4,3.4,0.9,6c-1.9,3.3-4.6,5.9-7,8.8
					c-11.8,13.7-23.8,27.1-35.9,40.5c-12.5,13.8-25.2,27.6-37.7,41.4c-1.1,1.2-1.6,1.3-2.7,0c-10.6-12-22.1-23-34.6-33.1
					c-0.9-0.7-1.6-1.1-0.4-2.3C839.4,601.7,853.9,587.6,868.5,573.5C868.5,573.6,868.5,573.5,868.5,573.5z"/>
				<path class="st0" d="M809.6,706.6c-9.3,9.7-18.6,19.4-27.9,29.2c-1.2,1.3-1.8,1.2-2.9-0.1c-10.6-12-22.1-23-34.6-33.1
					c-1.3-1.1-1.2-1.6-0.2-2.8c17.9-18.6,35.8-37.3,53.6-56c1.7-1.8,3.4-2,5.5-1.5c3.9,1,7.2,3,10.3,5.4
					c8.4,6.4,15.8,13.8,22.2,22.2c4,5.2,3.9,5.3-0.5,10C826.6,688.8,818.1,697.7,809.6,706.6z"/>
				<path class="st0" d="M724.4,727.3c6-6.2,12-12.5,17.9-18.7c1-1.1,1.6-1.3,2.9-0.2c9.8,8.3,19.1,17.2,27.8,26.6
					c1,1.1,1.1,1.7,0,2.8c-9.8,10.2-19.5,20.5-29.4,30.6c-10.2,10.4-22.5,17.5-36.4,21.9c-2,0.6-4.1,1.1-6.2,1.2
					c-1.1,0.1-1.7-0.3-2.1-1.3c-0.2-0.7-0.5-1.3-0.7-2c-2.5-13.6-1.3-26.5,5.5-38.5c1-1.7,2.2-3.2,3.6-4.7
					C713.1,739.2,718.7,733.2,724.4,727.3z M703.8,785.5c5.1-6.6,8.7-14,10.1-22.4c0.3-2,0.4-4,0.1-5.9c-0.3-2-1-3.8-2.4-5.2
					c-1.3-1.3-2.6-1.3-3.9,0c-1.5,1.4-2.2,3.2-2.9,5.1c-2.7,7.4-3.9,15.1-4.2,22.9c-0.1,1.9,0,3.9,0.3,5.8c0.3,1.5,1,1.5,2,0.7
					C703.2,786.2,703.5,785.8,703.8,785.5z"/>
				<path class="st0" d="M912.6,526.5c-2.1,1.1-3.6,2.6-5.1,4c-16.3,15.7-32.6,31.4-48.8,47c-12.3,11.8-24.5,23.6-36.7,35.5
					c-1.2,1.1-1.9,1.1-3.2,0.2c-1.9-1.4-4-2.4-6.2-3.8c3.2-3,6.3-5.9,9.4-8.9c12.6-11.9,25.1-23.7,37.7-35.5
					c13.4-12.5,26.7-25.2,41-36.7c1.6-1.3,3.2-2.5,5.2-3.1C908.2,524.4,910.3,524.8,912.6,526.5z"/>
				<path class="st0" d="M947.6,560.1c2.1,2.6,2.1,5.1,0.9,7.5c-1.7,3.7-4.3,6.7-6.8,9.9c-14.1,18-29.2,35.2-44.1,52.5
					c-9.1,10.5-18.1,21.1-27.2,31.6c-1.6,1.9-1.6,1.9-2.9-0.2c-0.9-1.5-1.9-3-3-4.3c-0.9-1.1-0.7-1.7,0.1-2.6
					c4.6-4.9,9.1-9.9,13.6-14.9c16.5-18,32.8-36,49-54.3c5.9-6.7,11.6-13.5,17.4-20.2C945.9,563.7,946.8,562.1,947.6,560.1z"/>
				<path class="st0" d="M833.1,644.5c5.5,5.4,11,10.8,16.2,16.4c1,1.1,1,1.7,0,2.6c-1.2,1.1-2.4,2.3-3.4,3.6
					c-0.9,1-1.6,1.1-2.9,0.5c-4.4-2-8.3-4.6-11.5-8.4c-4.7-5.4-10-10.2-15.6-14.7c-3.4-2.7-4.8-6.6-6.9-10c-0.4-0.7,0-1.1,0.4-1.5
					c1.3-1.3,2.6-2.6,3.8-4c0.9-1.1,1.6-1.1,2.8-0.1C821.8,634,827.5,639.2,833.1,644.5z"/>
				<path class="st0" d="M841,637.1c6.9,6.8,14.4,14.1,20.7,22.4c1.3,1.8,2.5,3.6,3.6,5.6c0.7,1.2,0.7,2.2-0.5,3.2
					c-0.9,0.7-1.7,2.3-2.6,2.3c-1.1,0-1.4-1.8-2.1-2.7c-6.1-8.3-13.4-15.5-20.7-22.7c-9.2-9-18.5-17.8-29-25.4
					c-1.4-1-2.8-1.8-4.3-2.7c-0.7-0.4-0.8-0.7-0.2-1.3c0.9-0.9,1.8-1.8,2.6-2.7c0.8-0.9,1.7-0.3,2.5,0.1c3.7,1.6,7,4,10.2,6.5
					C827.9,625,834.2,630.7,841,637.1z"/>
				<path class="st0" d="M847.4,679c-0.2-2.1-0.4-4.1-0.7-6.1c-0.1-0.7,0.2-1.2,0.6-1.7c1.6-1.6,3.2-3.3,4.7-5
					c0.7-0.8,1.3-0.9,1.9,0.1c1.7,2.4,1.6,4.5-0.4,6.5c-1.9,2-3.8,3.9-5.7,5.9C847.9,678.9,847.8,678.9,847.4,679z"/>
				<path class="st0" d="M797.9,631.1c2.4-2.6,4.9-5.1,7.3-7.6c0.9-0.9,4.9,0.3,5.4,1.4c0.2,0.5-0.1,0.7-0.3,1
					c-1.7,1.8-3.3,3.5-5,5.2c-0.4,0.4-0.9,0.4-1.4,0.5c-1.9,0.1-3.8,0.3-5.8,0.4C798,631.7,797.9,631.4,797.9,631.1z"/>
			</g>
		</g>
		<g>
			<g>
				<path class="st0" d="M194.1,620.2c-16.8-9.5-33.6-19.1-50.4-28.6c-0.9-0.5-1.9-1.1-2.8-1.6c-2.5-1.2-3.6-0.8-5.1,1.6
					c-2.4,3.8-4.7,7.5-7.1,11.3c-3.6,5.7-7.1,11.4-10.7,17.1c-1.6,2.6-1.5,3.9,0.6,6c2.6,2.7,5.9,4.6,9,6.8
					c14.8,10.4,29.7,20.4,44.8,30.4c15.6,10.3,31.2,20.5,46.8,30.8c1.3,0.9,1.8,0.8,2.6-0.7c7.3-14.2,15.8-27.8,25.3-40.6
					c0.7-0.9,1.3-1.5-0.2-2.3C229.3,640.3,211.7,630.2,194.1,620.2C194.1,620.2,194.1,620.2,194.1,620.2z"/>
				<path class="st0" d="M284.1,734.6c11.4,7.1,22.9,14.2,34.2,21.4c1.5,0.9,2,0.7,2.8-0.8c7.3-14.2,15.8-27.8,25.3-40.6
					c1-1.3,0.8-1.9-0.5-2.7c-21.9-13.6-43.9-27.3-65.7-41.1c-2-1.3-3.8-1.1-5.7,0c-3.5,1.9-6.2,4.7-8.6,7.8
					c-6.5,8.3-11.9,17.3-16.1,27c-2.6,6-2.5,6.1,3,9.5C263.2,721.6,273.6,728.1,284.1,734.6z"/>
				<path class="st0" d="M392.5,746.7c1.7,1,3.3,2.2,4.6,3.6c9.5,10,13.9,22.2,14.8,36c0,0.7-0.1,1.4-0.1,2.1
					c-0.1,1.1-0.6,1.6-1.7,1.8c-2.1,0.4-4.2,0.5-6.3,0.3c-14.6-0.9-28.2-4.7-40.7-12.3c-12.1-7.4-24-15-36.1-22.4
					c-1.3-0.8-1.4-1.4-0.6-2.7c6.1-11.3,12.9-22.2,20.4-32.7c1-1.4,1.6-1.3,2.9-0.5c7.3,4.6,14.6,9.2,22,13.7
					C378.6,738,385.6,742.3,392.5,746.7z M407.1,785.7c1.2,0.5,1.8,0.3,1.7-1.2c-0.2-1.9-0.6-3.8-1.1-5.7
					c-2.2-7.6-5.3-14.7-9.7-21.2c-1.1-1.6-2.3-3.2-4.1-4.2c-1.6-0.9-2.8-0.6-3.7,1c-1.1,1.7-1.3,3.7-1.1,5.6c0.2,2,0.8,3.9,1.6,5.7
					c3.5,7.7,8.8,14,15.3,19.2C406.4,785.2,406.7,785.5,407.1,785.7z"/>
				<path class="st0" d="M139.8,585.5c2.3,0.5,4.1,1.6,5.9,2.7c19.6,11.2,39.3,22.4,58.9,33.5c14.8,8.4,29.6,16.8,44.3,25.3
					c1.4,0.8,2.1,0.6,3.1-0.6c1.5-1.8,3.2-3.4,5.1-5.2c-3.8-2.1-7.6-4.2-11.3-6.3c-15.1-8.4-30.2-16.8-45.3-25.1
					c-16.1-8.8-32.1-17.8-48.8-25.5c-1.9-0.8-3.7-1.6-5.8-1.8C143.5,582.3,141.5,583.2,139.8,585.5z"/>
				<path class="st0" d="M114.2,626.7c-1.4,3-0.8,5.4,1,7.5c2.5,3.2,5.8,5.5,9,7.9c18.1,14,36.9,26.9,55.7,40
					c11.4,8,22.8,15.9,34.2,23.9c2.1,1.4,2,1.4,2.8-0.9c0.5-1.7,1.1-3.4,1.8-4.9c0.6-1.2,0.3-1.8-0.8-2.5
					c-5.6-3.7-11.2-7.4-16.9-11.1c-20.4-13.3-40.7-26.8-60.9-40.5c-7.3-5-14.6-10.2-21.8-15.3C116.7,629.7,115.4,628.4,114.2,626.7z
					"/>
				<path class="st0" d="M245.9,680.2c-4,6.6-8,13.2-11.7,19.9c-0.7,1.3-0.6,1.9,0.7,2.6c1.5,0.8,2.9,1.7,4.2,2.6
					c1.1,0.8,1.8,0.7,2.9-0.2c3.8-3.1,6.9-6.5,9.1-11c3.2-6.4,7.2-12.4,11.5-18.1c2.6-3.5,3-7.5,4.3-11.4c0.2-0.8-0.2-1-0.7-1.3
					c-1.6-1-3.2-1.9-4.7-2.9c-1.2-0.9-1.9-0.7-2.7,0.6C254.3,667.2,250.1,673.7,245.9,680.2z"/>
				<path class="st0" d="M236.5,675c-5,8.3-10.5,17.2-14.5,26.8c-0.9,2-1.6,4.1-2.1,6.3c-0.3,1.4-0.1,2.4,1.2,3
					c1.1,0.5,2.2,1.8,3.1,1.6c1-0.2,1-2.1,1.4-3.2c3.8-9.5,9.1-18.3,14.4-27.1c6.7-11,13.5-21.9,21.8-31.7c1.1-1.3,2.3-2.5,3.5-3.7
					c0.6-0.6,0.6-0.9-0.1-1.3c-1.1-0.6-2.2-1.3-3.2-2c-1-0.7-1.7,0.1-2.4,0.7c-3.2,2.5-5.8,5.6-8.2,8.8
					C246.1,660,241.5,667.1,236.5,675z"/>
				<path class="st0" d="M240.6,717.2c-0.3-2.1-0.6-4.1-0.8-6.1c-0.1-0.7-0.5-1.1-1-1.5c-1.9-1.2-3.9-2.4-5.8-3.6
					c-0.9-0.6-1.4-0.5-1.8,0.6c-1,2.8-0.4,4.8,2,6.2c2.3,1.4,4.6,2.9,6.9,4.3C240.1,717.2,240.2,717.2,240.6,717.2z"/>
				<path class="st0" d="M276.8,658.5c-3-1.9-6-3.8-9-5.6c-1-0.6-4.7,1.5-4.9,2.7c-0.1,0.5,0.3,0.7,0.6,0.9c2,1.3,4.1,2.6,6.1,3.8
					c0.5,0.3,1,0.2,1.5,0.1c1.9-0.4,3.8-0.7,5.7-1C276.8,659.1,276.8,658.8,276.8,658.5z"/>
			</g>
		</g>
		<path d="M168.6,203.7c18.3,1.8,32,7.4,31.3,13.5c-0.4,1.8-2.2,2.8-8.6,4.6c-12.2,2.8-20.5,3.9-33.5,4.3c-8.3,0-13,0-16.2-0.7
			c-9-1.4-14.4-3.9-15.5-7.4c-1.8-5.3,4-10.6,14.7-13.1c4.3-1.1,13-1.8,20.5-1.4C163.9,203.3,166.4,203.3,168.6,203.7z M194.1,233.4
			c6.5,0.4,9,2.5,7.2,5.7c-1.4,2.5-7.9,9.9-11.1,12.8c-6.1,5-14.4,8.9-22.7,10.6c-5.4,1.1-7.9,1.1-10.4,0c-2.9-1.1-5-3.2-5.4-5.7
			c-0.7-5.7,5-11.7,16.9-17c8.6-4.3,16.5-6.4,23-6.4C192.7,233.1,193.4,233.1,194.1,233.4z M203.8,188.1c6.5,11.3,7.2,12.8,6.5,14.2
			c-0.7,1.8-2.2,1.8-7.2,0.4c-16.9-4.6-31.3-15.2-38.1-28.7c-6.1-12.4-4.3-24.1,4-24.1C177.6,149.8,189.8,163.2,203.8,188.1z
			 M229.7,209c3.6,1.8,5.7,4.3,6.5,8.5c0.7,4.3,0.4,6-2.2,9.2c-2.2,2.8-4.3,4.3-8.3,5.3c-3.6,1.1-5.4,0.7-7.9-0.4
			c-2.2-1.4-3.2-3.5-4.3-7.8c-0.7-2.8-0.7-3.5,0-6.4c0.7-3.5,2.9-6.7,5.8-8.5c1.4-1.1,2.9-1.8,4.7-1.8S227.6,207.9,229.7,209z"/>
		<g>
			<g>
				<path class="st0" d="M294.3,295.5c1-2.2,1.6-6.1,1.6-11.5c0-8.5-1-19.8-3.1-33.7c-11.4,0.8-22.4,3.7-32.8,8.7
					c-1,9.3-1.6,16.2-1.6,20.6c0,5,0.5,8.6,1.4,10.8h-41.7c1.5-3.5,5.9-15.1,13.1-34.6c18-49.1,26.9-83.8,26.9-104.2
					c0-4.6-0.5-8.6-1.4-12c13.4,0,27.5-2,42.4-6.1c-1,3.5-1.4,7.7-1.4,12.7c0,14.5,4.1,36.2,12.2,65c8.2,29.1,16.9,55.5,26.1,79.2
					C321.6,290.5,307.7,292.2,294.3,295.5z M263.3,236.6c8.9-0.9,17.6-3.1,26.1-6.6c-3.5-19-7.6-36.9-12.3-53.5
					C271.8,194.8,267.3,214.8,263.3,236.6z"/>
				<path class="st0" d="M383.2,292.9c-18.2,0-30.5-6.9-36.8-20.7c-1.6-3.6-2.9-7.1-4-10.4c-1.8-5.8-4-9.9-6.6-12.5l39.4-6.6
					c-2.2,3.6-3.2,8.5-3.2,14.9c0,2.5,0.3,5.4,0.8,8.8c0.6,3.4,1.7,6.5,3.5,9.5c1.8,2.9,4,4.4,6.8,4.4c4.3,0,7.9-2.6,10.8-7.7
					c2.9-5.1,4.4-10.9,4.4-17.3c0-6.1-1.4-11.3-4.3-15.4c-2.9-4.2-7.4-8.1-13.7-11.7c-3-1.8-6.6-3.6-10.8-5.6
					c-10.5-5-18.2-9.9-23.1-14.6c-7.1-6.9-10.7-16.1-10.7-27.7c0-8,1.6-15.2,4.9-21.6c3.8-7.4,9.6-13,17.2-16.6
					c5.7-2.7,12.3-4.1,19.9-4.1c13.3,0,23.3,3.6,29.9,10.7c4.3,4.7,7.9,11.6,10.8,20.6c1.8,5.7,4,9.8,6.7,12.3l-39.5,6.6
					c2.2-3.5,3.2-8.5,3.2-15c0-2.5-0.3-5.4-0.8-8.7c-0.6-3.4-1.7-6.5-3.5-9.4c-1.8-2.9-4-4.4-6.8-4.4c-9.1,0-13.9,8.3-14.3,24.8
					c0,5.4,0.9,9.5,2.6,12.3c1.4,2.2,3.8,4.4,7.1,6.8c3,2.1,7.7,4.8,14.3,8.3c11.3,6,19.7,11.7,25.3,17.1
					c8.2,8.1,12.3,18.4,12.3,30.9c0,8-1.6,15.1-4.9,21.4c-2.2,4.3-5,8-8.6,11C404.2,289.7,394.7,292.9,383.2,292.9z"/>
				<path class="st0" d="M530.1,298h-38.2c1.4-4.9,2.2-11.7,2.2-20.6c0-20.8-4.7-37-14-48.7c-3.3-4.2-7.2-7.7-11.9-10.4
					c0.2,15,0.9,29.6,2.3,43.9c1.4,14.3,3.6,23.7,6.5,28.3c-12.8,0-25.5,1.7-38.2,5c3.5-12.9,5.3-33.9,5.3-62.8
					c0-16.4-0.8-34.2-2.5-53.3c-1.6-19.1-4.7-34.1-9-45c11.3,3.5,25.2,5.3,41.7,5.3c-3.6,8.1-5.6,28.5-6,61.4
					c8.3-3.8,14.8-8.6,19.4-14.5c6.8-8.7,10.2-20.4,10.2-35c0-4.6-0.4-8.6-1.3-12l37.2,5.6c-1.8,2.5-3.5,7.4-5.3,14.7
					c-6,25-20.2,41.6-42.6,49.9c25.1,11.5,38.6,35.5,40.7,71.9C527,289.8,528.2,295.2,530.1,298z"/>
				<path class="st0" d="M599.7,296.4c3.6-12.9,5.4-33.2,5.4-61.1c0-16-0.8-33.2-2.5-51.6c-1.6-18.4-4.7-33.1-9-44h41.7
					c-0.3,0.9-0.5,2.1-0.5,3.7c0,3.7,1,10.2,3,19.5c3.6,16.8,9.5,37.7,17.8,62.9c3-9.5,6.1-19.9,9.2-31.1
					c8.1-29.2,12.1-48.2,12.1-56.9c0-1.6-0.2-2.8-0.5-3.7c6.3,0,13.2-0.2,20.7-0.5c7.5-0.3,14.5-1.2,21-2.8
					c-4.4,10.9-7.4,25.7-9,44.6c-1.6,18.9-2.5,36.5-2.5,52.9c0,28.5,1.8,49.2,5.3,62.2h-38.2c3-4.7,5.1-14.4,6.5-29.2
					c1.4-14.7,2.1-26.9,2.2-36.6c0.1-9.7,0.1-15.1,0.1-16.3c0-5.9-0.1-11.7-0.2-17.2c-4.7,14-8.5,27.4-11.3,40.4
					c-2.6,11.7-3.8,19.6-3.8,24h-22.9c0-4.3-1.3-12-4-23.2c-2.7-11.1-6.4-23.2-11.1-36.2c-0.1,5.1-0.1,10.4-0.1,15.8
					c0,1.2,0,6.5,0.1,15.9c0,9.4,0.8,21.3,2.2,35.6c1.4,14.3,3.6,23.8,6.6,28.4c-4.8,0-9.6,0.4-14.4,1.1L599.7,296.4z"/>
				<path class="st0" d="M783.1,297.2c-9.3,0-17.5-2.3-24.6-6.9c-8.9-5.8-16-14.4-21.3-25.6c-6.8-14.4-10.2-30.9-10.2-49.5
					c0-22.1,4.7-41,14-56.5c10.1-17.1,24.2-25.6,42-25.6c12.1,0,21.6,4,28.4,12.1c5.8,7,8.7,15.2,8.7,24.4c0,9.4-2.8,18.3-8.4,26.7
					c-5.6,8.4-13.1,14.2-22.3,17.4c-3.4,1.2-7,1.8-10.7,1.8c-6.3,0-13-1.7-20.1-5.1c0,20.5,1.9,37.2,5.6,50.2
					c4.5,15.6,10.7,23.4,18.8,23.4c3,0,5.3-1.8,6.9-5.4c2.2-4.8,3.4-11.5,3.4-20.2c0-9-1.3-17.3-3.8-24.9l35.1,5.3
					c-1.6,1.4-3.3,5.8-5,13.3c-1.8,7.5-3.3,13.7-4.6,18.4C810.2,288.2,799.5,297.2,783.1,297.2z M765.8,196.2c7,0,13.3-2.6,18.7-7.8
					c5.4-5.2,8.1-12.5,8.1-21.8c0-5.8-0.9-10.6-2.8-14.4c-1.9-3.9-4.1-5.8-6.8-5.8c-4.5,0-8.3,2.3-11.5,6.8
					c-3.2,4.5-5.8,10.5-7.8,17.8c-2,7.4-3.5,15.6-4.3,24.6C761.7,196,763.8,196.2,765.8,196.2z"/>
			</g>
		</g>
		<path class="st0" d="M949,351.1c-5.5-11.2-16.3-18.7-32.3-22.5c-12.5-3.4-37.9-0.8-76.4,7.6c4.4-13.7,9.5-27.8,15.2-42.2
			c0.8-7.8-1.2-12.1-6-13c-5.3-0.4-10.4,3.7-15.2,12.4c-9.1,15.2-17,31.7-23.8,49.4c-80.5,18-124.9,11.3-133.1-20
			c-1.5-4-3.9-6.2-7.3-6.7c-3.4,0-5,2.1-4.8,6.3c0.8,7.4,4,13.8,9.4,19.2c5.4,5.4,12.2,9.6,20.4,12.5c8.2,3,17.4,5.1,27.6,6.3
			c10.1,1.3,20.2,1.8,30.1,1.6c9.9-0.2,19.5-1.1,28.8-2.5c7-1.1,15.2-2.7,24.7-5.1c-11.6,33.4-19.5,71.1-23.8,113.2
			c-1.5,14.9-2,28.3-1.4,40.5c-0.8,2.2-1.6,4.4-2.4,6.6c-4.7,12.6-10.1,26-16.5,40.4c-6.3,14.4-12.7,25.5-19.2,33.3
			c-6.4,7.8-12,10.5-16.6,7.9c-1.3-4.9-1.9-10.9-1.7-18.1c0.1-7.2,0.4-13.5,1-18.9c0.5-5.4,1.7-13,3.5-22.8
			c1.8-9.8,3.1-16.3,3.8-19.3c0.7-3.1,2.2-9.6,4.3-19.5c1.3-5.3,2.2-9.7,2.9-13.2c0.6-3.5,1.3-7.3,1.9-11.4
			c0.6-4.1,0.9-7.5,0.8-10.1c-0.1-2.6-0.4-5.2-0.8-7.8c-0.4-2.5-1.3-4.5-2.7-5.9c-1.4-1.4-3.1-2.4-5.2-3c-6.3-1.3-11-0.1-13.9,3.5
			c-2.7,3.4-7.6,10.8-14.4,22.2c-6.9,11.4-13.3,22.2-19.3,32.5c-6,10.3-12.7,19.2-20,26.8c-7.3,7.6-13.3,10.6-17.9,8.9
			c-2.3-0.8-3.8-3.2-4.3-7c-0.5-3.8-0.3-8.7,0.8-14.6c1.1-5.9,2.3-11.8,3.8-17.8c1.5-5.9,3.1-12.4,4.9-19.5c1.8-7.1,3-12.6,3.6-16.6
			c0.6-5.9-0.6-10.2-3.8-13c-3.2-2.7-7-3.3-11.6-1.7c-4.5,1.6-8.2,4.8-10.9,9.7c-1.5,3.8-3,9.2-4.4,16.3c-0.1,0.6-0.2,1.3-0.4,1.9
			c-6.6,8.2-13.4,14.3-20.2,18.2c-0.4-1.9-0.8-3.8-1.3-5.7c-8.2-33-26.7-51.3-55.5-55.2c-8.9-1.1-17.5,0.2-25.8,3.6
			c-8.4,3.5-15.3,8.4-20.8,14.7c-7.6,8.9-10.4,19.1-8.2,30.7c0.9,3.1,1.9,5.8,3.1,8.3c-0.4,0.5-0.8,0.9-1.2,1.4
			c-4.9,5.2-9.6,8.9-14.3,11.3c-4.7,2.3-10,4.9-16,7.6c-6,2.7-10.1,4.9-12.2,6.3c-7.4-9.5-16.1-15.5-26-18.1
			c-15.4-4-29.8-0.2-43.3,11.6c-13.4,11.7-24.9,30-34.4,54.7c-1.7-29.2-0.6-58.1,3.2-86.8c6.1-3.8,15.2-10.5,27.1-20.1
			c11.9-9.6,23.7-20.1,35.3-31.5c11.2-10.8,20.9-21.2,29-31.4c8.1-10.1,15.2-20.7,21.1-31.5c5.9-10.9,8.6-21.1,8.1-30.6
			c-0.5-9.5-4.7-17.5-12.5-24.1c-6.8-5.9-15.8-8.8-27.3-8.7c-11.4,0.1-22.8,3.4-34.2,10c-15.2,8.9-28.5,20.7-39.9,35.3
			c-11.4,14.7-20.3,30.8-26.8,48.3c-6.4,17.5-11.5,36-15.2,55.3c-3.1,16.2-5,32.7-5.8,49.4c-2.5,6.4-5.5,13.4-8.9,21.1
			c-8.7,19.4-17.9,36.8-27.7,52.1c-9.8,15.3-17,21.9-21.4,19.8c-2.3-1.1-3.7-6.1-4.1-15.2c-0.4-9.1,0-19.5,1.3-31.4
			c1.3-11.8,2.5-22.2,3.6-31.2c1.2-9,2.1-15.6,2.7-19.8c0.4-1.9,1-4.8,1.6-8.6c1.3-6.5,2.2-11.5,2.9-14.7c0.6-3.3,1.4-7.8,2.2-13.5
			c0.8-5.7,1.3-10.1,1.3-13.3c0-3.2,0-7,0-11.4c0-4.4-0.5-7.9-1.6-10.5c-1.1-2.5-2.3-5.1-3.8-7.8c-1.5-2.6-3.5-4.7-6.2-6.2
			c-2.6-1.5-5.7-2.4-9-2.9c-3.6-4.9-8.2-9-13.8-12.4c-5.6-3.4-11.9-5.9-19-7.4c-7.1-1.6-14.5-2.2-22.3-1.7
			c-7.4,0.4-14.3,1.4-20.6,2.9c-25.1,6.3-41.7,20.7-49.8,43.1c-6.3,18-5.9,35.7,1.3,53.3c6.1,15,15.1,23.7,26.9,26
			c5.7,1.9,11.7,1.7,17.9-0.6c6.2-2.3,11.7-5.5,16.3-9.7c4.6-4.1,9.3-9.1,13.9-14.9c4.6-5.8,8.1-10.6,10.5-14.3
			c2.3-3.7,4.2-6.9,5.7-9.7c0.4,5.1,0.7,11.8,1,20.3c0.2,8.5,0.1,17.4-0.5,26.9c-0.5,9.5-0.3,19.4,0.8,29.8
			c1.1,10.4,2.6,20,4.6,28.8c2,8.9,5.5,16.8,10.6,23.9c5.1,7.1,11.5,12.2,19.3,15.4c7.4,3,15.3,1.3,23.6-4.9
			c8.3-6.2,15.8-14.8,22.5-25.8c6.3-10.5,12.3-22,18-34.4c0.2,8.4,0.6,16.7,1.2,24.6c1.3,17.5,3.3,34.3,6,50.4
			c1.9,7.8,5.3,13.4,10.3,16.6c5,3.3,9.9,4.1,14.7,2.4c0.4-0.2,0.8-0.4,1.3-0.6c0,1.9,0.1,3.7,0.3,5.4c2.3,8,7.2,14.2,14.6,18.4
			c13.1,7.2,30,7.2,50.7,0c22-8,38.8-21.2,50.4-39.6c17.5-27.3,17-57.7-1.6-91.3c2.1-1.9,6.1-4.1,11.9-6.7c5.8-2.5,11.4-5,16.8-7.3
			c5.3-2.3,10.8-6.2,16.3-11.7c0.8,0.7,1.6,1.3,2.5,1.9c-0.4,1.1-0.7,2.1-1,3.2c-1.1,10.4-1.2,19.6-0.3,27.7
			c0.8,8.1,2.3,15.3,4.4,21.4c2.1,6.1,4.8,11.3,7.9,15.5c3.2,4.2,6.6,7.7,10.3,10.5c3.7,2.7,7.6,4.8,11.7,6c4.1,1.3,8.1,2,11.9,2.1
			c3.8,0.1,7.4-0.3,10.8-1.1c9.5-3,17.5-7.4,23.9-13.3c6.4-5.9,11.1-12.7,14.1-20.3c3-7.6,4.9-15.3,5.9-23c1-7.7,1.1-15.7,0.5-23.9
			c5.3-2.6,10.6-6.6,15.7-11.7c-0.1,1.2-0.3,2.3-0.4,3.5c-1,9.7-1.1,18.8-0.5,27.3c0.6,8.5,3,15.8,7,22c4,6.2,9.7,9.6,17.1,10
			c5.3,0.4,10.8-1.4,16.5-5.5s11.1-9.9,16.3-17.3c5.2-7.4,9.7-14.3,13.5-20.6c3.8-6.3,7.6-13.4,11.4-21.1c3.8-7.7,6-12.2,6.7-13.5
			c-0.2,1.1-1,4.6-2.2,10.6c-1.3,6-2.3,10.9-3,14.7c-0.7,3.8-1.8,9.2-3.2,16.3c-1.4,7.1-2.2,13.2-2.5,18.2c-0.3,5.1-0.6,10.9-1,17.4
			c-0.3,6.5,0,12.1,1,16.8c1,4.6,2.2,9.2,3.8,13.6c1.6,4.4,4,8,7.1,10.6c3.2,2.6,6.9,4.4,11.1,5.2c5.7,1.1,11.3,0.3,16.6-2.2
			s10.5-6.9,15.2-13c4.8-6.1,9.2-13,13.3-20.6c4.1-7.6,8.2-16.7,12.4-27.4c1.5-3.9,2.9-7.6,4.3-11.3c0.5,2.4,1,4.8,1.6,7.1
			c4.9,18.6,14.3,29.4,28.2,32.3c6.3,1.3,12.9-0.6,19.8-5.7c6.9-5.1,13.6-12.5,20.1-22.2c6.5-9.7,12.4-19.7,17.6-29.8
			c5.2-10.1,10.3-21.2,15.4-33.3c1.3-3,0.8-5.4-1.3-7.3c-2.5-2.3-4.9-1.9-7,1.3c-3.8,8.7-7.4,16.6-10.8,23.8
			c-3.4,7.2-7.3,14.6-11.7,22.2c-4.4,7.6-8.7,13.9-12.8,19c-4.1,5.1-8.5,9.2-13.2,12.4c-4.7,3.2-9.1,4.7-13.3,4.4
			c-5.3-3-8.5-10.9-9.7-23.9c-1.2-13-0.5-28.8,2.1-47.5c2.5-18.7,5.1-35,7.6-48.8c2.5-13.8,5.4-27.7,8.6-41.7
			c3.2-15.2,7.2-30.7,12-46.6c37.8-9.1,63.9-13,78.3-11.7c9.9,1.7,17,5.8,21.1,12.2c4.1,6.4,3.9,13.1-0.8,19.8
			c-1.7,1.5-2.3,3.1-1.7,4.9c0.5,1.8,1.6,2.7,3.3,2.7c3.8-0.4,7-1.7,9.5-3.8C952.2,366.5,953,359.8,949,351.1z M404.4,342.6
			c6.8-8.9,13.7-15.3,20.8-19.3c7.1-4,13.2-5.8,18.2-5.4c5.1,0.4,9.3,2.5,12.7,6.3c3.8,4,5.7,8.9,5.7,14.7c0,5.8-1.3,11.9-4,18.2
			c-2.6,6.3-6.6,13.2-11.7,20.6c-5.2,7.4-10.7,14.5-16.5,21.2c-5.8,6.8-12.3,13.7-19.5,20.9c-20.5,20.3-38.7,35.8-54.5,46.6
			C364,414.5,380.3,373.2,404.4,342.6z M222.9,423.2c-3.7,8.6-10.1,19-19.2,31.2c-10.1,13.7-20.2,25.1-30.1,34.2
			c-9.9,9.1-16.3,11.9-19,8.6c-3.6-24.1-0.2-45.5,10.1-64.3c6.5-11.6,14.8-19.9,24.9-24.9c10-5,20.9-5.3,32.5-1.1
			C226.4,409.2,226.6,414.7,222.9,423.2z M357.8,606.9c9.9-34.4,20.7-59.4,32.2-75c11.5-15.5,23-19.8,34.4-12.8
			c4,3.4,7,9.4,8.9,18.1c-3,2.5-7,5.9-12,10.1c-5.1,4.2-9.2,7.7-12.5,10.3c-3.3,2.6-7.1,5.9-11.6,9.8c-4.4,3.9-8.3,7.3-11.6,10.3
			c-3.3,3-6.7,6.2-10.3,9.7c-3.6,3.5-6.8,6.8-9.7,10C362.7,600.6,360.1,603.7,357.8,606.9z M435.5,567c-1.3,30.6-10.8,54.3-28.5,71
			c-11.4,10.8-22.2,15.3-32.3,13.6c-8.5-1.3-12.5-6.7-12-16.2c0.6-5.5,2.4-11.2,5.4-17.1c3-5.9,6.1-11.1,9.5-15.7
			c3.4-4.5,8.4-10,15.2-16.5c6.8-6.4,12.3-11.5,16.6-15.1c4.3-3.6,10.7-8.9,19.2-15.8c3-2.3,5.2-4.1,6.7-5.4
			C435.6,555.8,435.7,561.5,435.5,567z M585.9,545.7c-2,7-5.1,13.2-9.2,18.5c-4.1,5.4-9,8.4-14.7,9c-7.2-0.8-12.4-6.1-15.7-15.8
			c-3.3-9.7-5-21-5.2-33.9c19.2,5.9,35.6,5.6,49.1-1C589.3,531.1,587.9,538.8,585.9,545.7z M590.8,508.7c-5.3,3.6-11,5.7-17.1,6.2
			c-6.1,0.5-11.7-0.1-16.8-1.7c-5.1-1.7-10-4.1-14.9-7.3c0-5.1-1.5-8.9-4.4-11.6c-3-2.6-6.6-4-10.8-4c-5.5-7-7.4-14.7-5.7-23.1
			c1.3-6.5,4.3-12.3,9.2-17.1c4.9-4.9,10.7-7,17.4-6.3c22.4,7.6,36.8,27.9,43.1,60.9C590.8,505.8,590.8,507.2,590.8,508.7z"/>
		<path d="M526.5,631.9c0.8-0.3,1.7-0.9,2.2-1.4c1.4-2,0.9-2.8-0.3-5.1c-1.1-2-2.8-2-3.9-2.5c-3.7-0.3-4.8,2.2-4.2,4.5
			C521.2,630.2,523.7,631.9,526.5,631.9z M513.6,645.7c3.1,0,3.9-1.1,3.7-4.2c-0.3-1.7-3.1-4.5-5.1-4.5c-0.6,0-0.8,0-1.4,0.3
			c-1.4,0.3-2.5,1.4-2.5,2.8C508,643.2,510.8,646,513.6,645.7z M535.8,620.9c0.8,1.1,2.3,2,3.9,2c0.9,0,2-0.3,3.1-0.9
			c1.7-1.1,1.1-2.8,0.8-4.5c-0.3-1.7-3.4-3.9-5.1-3.9c-1.4,0-2.3,0.6-3.1,1.1c-1.1,1.1-1.4,2.8-0.6,4.2
			C535.3,619.5,535.5,620.4,535.8,620.9z M556.4,615.3c3.1-0.3,3.7-0.8,4.2-2.8c0.8-3.1-2.8-6.2-5.9-5.9c-1.4,0-3.1,1.4-3.1,2.8
			C551,612.2,553.8,615,556.4,615.3z M502.9,661.8c2.5,0,3.1-2.8,3.1-4.8c-0.3-2.5-3.7-4.8-6.2-4.8c-2.2,0-3.9,2.3-3.4,4.5
			C497.2,659.8,499.5,661.8,502.9,661.8z M574.7,612.8c3.1,0,4.5,0,4.5-3.7c0.3-3.4-3.1-5.3-6.2-5.3h-0.8c-1.4,0.3-2,1.1-2.3,2.2
			C569.1,609.1,571.3,612.2,574.7,612.8z M490.2,701.5c1.1,0,2.5-0.6,3.4-1.1c0.8-0.8,1.4-1.7,2-2.5c0-0.6,0-0.8,0-0.8
			c-0.6-2.3-2-3.7-4.2-4.2c-0.6,0-1.1-0.3-1.4-0.3c-1.7,0-3.1,0.8-4.2,2.2c-0.8,0.9-1.1,2.3-0.6,3.7
			C486,700.3,488.2,701.5,490.2,701.5z M494.7,718.6c0.9-1.4,0.6-2.5,0-3.7c-1.4-2-3.7-2-5.3-2.5c-3.1,0-4.8,1.1-5.1,3.4
			c-0.3,1.4,0.6,3.1,1.4,3.9c1.1,1.1,2.5,1.4,3.7,1.4C491.6,721.2,493.6,720.3,494.7,718.6z M492.5,681.5c3.1,0,4.5-2.5,4.2-4.2
			c-0.3-3.1-2-5.6-5.3-5.3c-2.5,0.3-3.7,1.7-3.7,4.5C488,679.2,490.2,681.5,492.5,681.5z M661.7,641.5c0.6,0,0.8,0,1.1,0.3
			c0.6,0.3,0.9,0.3,1.4,0.3c1.7,0,2.8-1.1,3.4-3.1c0.3-2.8-2-5.6-5.1-5.6c-2.5,0-4.2,1.4-4.2,3.7
			C658.6,639.5,659.4,640.9,661.7,641.5z M671.8,670.2c0.3,3.4,1.7,5.4,5.1,5.6h1.4c1.4,0,2.5-0.3,3.4-1.4c1.1-1.7,0.8-3.7,0-5.4
			c-1.7-2.5-3.4-2.8-6.2-2.8C673.2,666.6,671.5,668,671.8,670.2z M667.3,651.3c0.3,2.8,1.7,5.3,5.6,5.3c2,0.3,4.5-2,4.8-4.2
			c0-2.8-3.1-5.4-7-5.4C668.7,647.1,667,649.1,667.3,651.3z M593.6,611.6c2.2,0,4.8-2.2,4.8-4.2c0-2.8-2.2-4.5-6.5-4.8
			c-1.4,0-3.1,1.4-3.1,2.5C588.5,608.5,590.7,611.6,593.6,611.6z M674.9,687.7c-0.6,1.4,0,3.7,0.9,4.8c1.1,1.4,2.8,2.2,4.5,2.2
			c1.4,0,2.5-0.6,3.7-1.1c0.9-0.6,2-2.8,1.7-3.7c-1.7-4.2-2.8-4.8-7.3-4.8C676.6,685.1,675.2,686,674.9,687.7z M613.3,613.6
			c2.8,0,4.5-0.8,4.5-3.9c0-0.6,0-1.4-0.3-2c-1.1-2-2.8-3.1-5.3-3.1c-4.2,0-4.8,2.8-3.9,5.6C609,612.8,611,613.3,613.3,613.6z
			 M644.8,624.3c-0.6,2,2.5,4.8,5.1,4.8c0.6,0,0.9-0.3,1.4-0.6c0.8-0.6,1.7-1.1,2.5-1.7c0.9-0.6,0.9-1.4,0.9-2.5
			c0-1.7-1.4-2.5-2.3-3.7c-1.1-0.8-2.2-1.1-3.4-1.1c-0.8,0-1.4,0-2.2,0.3c-1.4,0.6-2.5,1.7-2,3.4V624.3z M632.4,621.5
			c0.6,0,1.1,0,1.7-0.3c2.2-0.6,3.7-2.8,2.5-5.1c-0.9-2.8-2.8-4.5-5.9-4.5c-0.6,0-1.1,0.3-2,0.6c-1.4,0.6-2.5,1.7-2.3,3.1
			C626.5,619.2,628.2,621.5,632.4,621.5z M529.6,772.7c-1.4,0.6-2.8,0.9-4.2,1.7c-2,1.1-1.7,5.1,0.3,6.2c1.1,0.6,2.3,0.8,3.4,0.8
			c2,0,3.7-0.6,4.8-2c0.3-0.6,0.8-1.1,0.8-2C534.4,775.2,532.4,773.3,529.6,772.7z M499.8,733.6c-0.3-1.7-2.2-4.8-4.8-4.5
			c-2.5,0-5.4,1.1-5.4,3.9c0,2.2,1.7,4.5,4.2,4.5c2-0.3,3.7-1.4,5.3-2.3C499.8,735,500.1,734.1,499.8,733.6z M646.8,771.9
			c-0.9-1.4-2-2-3.7-2c-0.3,0-0.6,0.3-1.1,0.3c-2.5,1.7-3.1,2.8-2.5,6.2c0.3,2.3,1.4,3.4,3.4,3.7c0.6,0.3,1.4,0.6,2,0.6
			c0.9,0,1.4-0.3,2-1.1c1.1-1.7,1.7-3.7,1.4-5.6C647.9,773,647.1,772.4,646.8,771.9z M658.3,755.2c-0.6,0-0.8-0.3-1.4-0.3
			c-1.4,0-2.8,1.1-3.7,2.8c-0.9,1.4-0.9,2.5-0.6,4.2c0.6,2.2,2.2,4.2,5.1,4.2c3.1,0,3.9-3.1,4.2-5.6
			C662.3,758.9,660.3,755.8,658.3,755.2z M608.7,746.8c-1.9,4.5-2.9,8.1-2.9,10.7c0,0.6,0.1,1.1,0.4,1.4c0.1,0.1,0.2,0.2,0.3,0.2
			c0.7,0,1.9-1.4,3.7-4.1c1.8-2.7,3.5-6.5,5.2-11.4c1.7-4.9,3-10.6,3.8-17.3c-0.8,1.1-2.2,3.7-4.4,7.7
			C612.7,738,610.7,742.3,608.7,746.8z M678.3,704c0,0-0.3,0-0.6,0c-3.4,0-4.8,1.7-4.5,4.8c0,2.8,2.8,5.3,5.6,5.3
			c4.2,0,5.9-2.5,5.6-4.5C683.9,706.5,682.5,704,678.3,704z M666.8,739.8c-0.9,0-1.4,0.3-2.3,0.6c-1.1,0.8-2.5,2-2.8,3.4
			c-0.6,1.7,0,3.7,2,4.8c1.1,0.8,2.5,1.4,3.9,1.4c2,0,5.1-1.1,5.1-3.4C673,743.4,670.1,739.8,666.8,739.8z M672.1,723.1
			c-2.8,0-4.5,1.7-4.2,4.5c0.6,3.7,2.3,5.1,5.9,5.1c3.7-0.3,5.1-1.4,5.1-4.8c0,0-0.3-0.8-0.6-1.4C677.2,724,674.9,723.1,672.1,723.1
			z M638.6,636.1c-16.3-10.7-35.5-15.8-54.9-15.8c-5.9,0-11.8,0.3-17.7,1.4c-44.5,7.6-72.1,58.3-63.4,98.3
			c9,40.3,49.6,60.8,88.1,60.8c28.2,0,41.1-11.3,58.6-31c7.9-8.7,14.9-25.9,17.2-38C671.3,683.7,663.7,652.5,638.6,636.1z
			 M649,682.8c-0.1,0.1-0.2,0.2-0.3,0.3c-1.3,2.1-3.4,4.9-6.5,8.6c-4.1,4.9-7.8,9.8-11,14.8c-0.8,1.8-1.5,5.5-2,11
			c-0.5,4.9-1.3,10.4-2.5,16.6c-1.2,6.1-3.2,12.1-5.9,17.9c-2.4,4.7-5.1,8.1-7.8,10.3c-2.8,2.2-5.2,3.2-7.3,3.2
			c-1.9,0-3.5-0.8-4.7-2.4c-1.2-1.6-1.8-3.9-1.8-6.9c0-1.5,0.1-3.2,0.4-5.1c0.3-1.8,0.9-3.8,1.8-5.9c4.1-8.9,8.1-16.7,12.3-23.4
			c4-6.4,6.2-10.8,6.8-13.4v-1.9c-0.1-2-0.3-4.1-0.4-6.4c-0.2-4.3-0.5-8.9-1.1-13.7c-0.5-4.8-1.5-9.8-2.9-15.1
			c-0.4,0.5-1.1,2.2-2,5.1c-1,3-2.1,6.6-3.4,11c-1.5,4.9-3.1,9.9-4.7,15.1c-1.7,5.1-3.3,9.7-4.8,13.5c-1.2,2.8-2.4,4.9-3.9,6.1
			c-1.4,1.2-2.9,1.8-4.3,1.8h-0.7c-1.9-0.1-3.5-1.2-4.9-3.1c-1.4-1.9-2.3-5-2.5-9.2c-0.1-1.8-0.1-3.8-0.1-6c0-2.7,0.1-5.6,0.2-8.6
			c-0.6,1.2-1.1,2.3-1.7,3.5c-1.7,3.2-3.5,5.9-5.5,8.1c-2,2.2-4,3.2-6.2,3.2c-2,0-3.7-0.8-5-2.3c-1.3-1.5-2.4-3.5-3.1-5.8
			c-0.8-2.3-1.4-4.8-1.8-7.3c-0.4-2.5-0.7-4.8-0.8-6.9c-0.6,0.3-1.6,3-3.2,8.1c-1.5,5.1-2.7,12-3.4,20.7c-0.1,1.4-0.7,2.4-1.6,3.2
			c-1,0.8-2,1.2-3.2,1.2c-1.1,0-2.1-0.4-2.9-1.1c-0.9-0.7-1.4-1.9-1.5-3.5c-1-15.2-1.6-30.4-1.8-45.6c0-2.1-0.1-3.2-0.4-3.2
			c-0.3,0-0.6,0.7-1.2,2c-3.1,8.9-5.3,17-6.5,24c-1.3,7.1-2.3,14.7-3.1,22.9c-0.3,2.1-0.5,4.3-0.8,6.6c-0.1,1.6-0.5,2.7-1.1,3.2
			c-0.6,0.5-1.6,0.8-3.1,0.8c-1.5,0-2.6-0.3-3.3-0.9c-0.7-0.6-1.3-1.7-1.6-3.3c-1.2-5.9-2.1-11.8-2.8-17.9c-0.7-6-1.1-12.1-1.1-18
			c0-5.1,0.4-10.2,1.1-15.2c0.1-0.8,0.6-1.5,1.3-1.9c0.7-0.4,1.5-0.7,2.4-0.7c1,0,1.8,0.2,2.6,0.7c0.7,0.5,1.1,1.2,1.1,2.2v0.2
			c-0.1,3-0.2,6.3-0.2,10.1c0,3.4,0.1,6.8,0.2,10.1c0.2,3.3,0.4,6.1,0.8,8.3c0.8-6.2,2.4-14.1,4.8-23.6c2.4-9.6,4.8-16.7,7.1-21.2
			c0.7-1.2,1.6-2,2.8-2.6c1.1-0.5,2.3-0.8,3.4-0.8c1.7,0,3.2,0.5,4.5,1.5c1.3,1,2.1,2.5,2.3,4.5c0.4,6.5,0.7,13,0.7,19.5
			c0.1,6,0.3,10.5,0.6,13.6l4.6-12.2c0.6-1.4,1.4-2.3,2.4-3c1-0.6,2.1-1,3.2-1c1.4,0,2.7,0.5,3.9,1.4c1.2,0.9,1.7,2.2,1.7,3.7v1.2
			c0,1.7,0.1,4.1,0.4,7.4c0.3,3.3,0.8,6.2,1.5,8.8c0.7,2.6,1.6,4.1,2.8,4.2h0.1c1.2,0,2.7-1.5,4.5-4.5c1.8-3,3.6-6.4,5.3-10.2
			c0.7-1.5,1.3-2.9,1.9-4.3c0-0.4,0.1-0.8,0.1-1.2c0.9-8.1,2.6-14.8,4.9-20c0.8-1.1,1.7-1.6,2.8-1.6c0.8,0,1.5,0.2,2.1,0.7
			c0.6,0.5,1,1.1,1,1.9v0.5c-0.3,1.3-0.6,4.4-1.1,9.3c-0.5,4.9-0.9,10.4-1.4,16.5c-0.4,6-0.6,11.1-0.6,15.2c0,4.2,0.3,6.5,1,6.9h0.1
			c0.6-0.3,1.5-2.5,2.8-6.5c1.3-4,2.8-8.7,4.3-14.3c1.5-5.5,3-10.8,4.3-15.8c1.7-6.6,2.9-10.8,3.6-12.7c0.7-1.9,1.8-3.4,3.3-4.4
			c1.5-1,3.1-1.5,4.8-1.5c2.8,0,4.8,1.4,6,4.3c1.9,5.1,3.2,9.8,3.9,14.2c0.7,4.4,1.3,9.1,1.8,14.3c0.2,1.9,0.4,3.9,0.6,6.1
			c1.4-1.5,3.2-3.6,5.2-6.1c2.1-2.5,4.1-4.9,6-7c1.9-2.2,3.2-3.5,4-4.1c0.5-0.3,1-0.5,1.5-0.5c0.7,0,1.3,0.2,1.8,0.7
			c0.5,0.5,0.7,1,0.7,1.6C649.5,681.9,649.3,682.4,649,682.8z M517,764c-0.6-2.8-2.5-3.1-4.8-3.9c-0.8,0.6-2,1.1-2.8,2
			c-2,1.7-2,3.7,0,5.6c0.6,0.6,1.4,1.1,2,1.7c1.1,0.8,2,1.4,2.8,1.4c0.9,0,1.7-0.6,2.8-1.4c1.7-1.4,1.7-1.4,0.6-3.9
			C517.5,764.8,517.2,764.5,517,764z M627.9,781.4c-0.6-0.6-1.1-0.6-2-0.6c-0.6,0-1.1,0-2,0.3c-3.1,1.1-3.4,5.6-2,7.6
			c0.3,0.3,0.8,0.6,1.1,1.1c0.6,1.1,1.4,1.4,2.5,1.4c2,0,3.4-0.6,4.2-2.5c0.3-0.8,0.6-1.7,0.6-2.5
			C630.7,784,629.3,782.8,627.9,781.4z M543.7,780.3c-0.6,0-1.1,0-2,0.3c-3.1,0.6-4.5,4.8-2.5,7c1.4,1.4,3.1,2.2,4.5,2.2
			c2.3,0,4.5-1.4,5.9-3.9c0.3-0.3,0.3-0.8,0.3-1.1C549.1,782.3,547.1,780.3,543.7,780.3z M503.2,746c-0.3-0.3-0.8-0.3-1.4-0.3
			c-1.1,0-2.2,0.6-3.4,0.9c-3.1,1.1-2.8,3.1-2,5.6c0.8,2.3,2.8,2.3,4.2,2.5c2.5,0,5.1-1.1,5.6-2.5c0.6-0.8,0.6-2.2,0.3-2.8
			C505.7,747.9,504.6,746.2,503.2,746z M560.9,787.1c-0.8,0.3-2,0.6-3.1,0.8c-1.4,0.8-2,2-1.7,3.4c0.6,2.8,3.1,4.5,5.6,4.5
			c1.7,0,3.1,0,4-2C567.4,790.2,564.8,787.3,560.9,787.1z M605.9,787.3c-0.6-0.6-1.4-0.8-2.2-0.8c-0.6,0-1.1,0.3-1.7,0.8
			c-1.7,1.1-3.1,2.5-2.8,4.8c0.3,0.6,0.3,1.4,0.8,1.7c0.8,1.1,2.8,3.1,4.2,3.1c1.1,0,3.7-2,4-3.1C609,791.3,607.9,789,605.9,787.3z
			 M582.6,788.8c-0.9,0-2,0.3-2.8,1.1c-1.4,1.1-2,2.8-2,4.5c0,2.3,3.1,5.1,5.4,5.1c2.8,0,4.2-3.1,4.8-5.3c-0.6-1.1-0.8-2.5-1.7-3.7
			C585.4,789.3,584,788.8,582.6,788.8z"/>
		<path d="M908.9,208.8c7.9-0.4,17,0.4,21.6,1.5c11.3,2.7,17.4,8.3,15.5,14c-1.1,3.8-6.8,6.4-16.3,7.9c-3.4,0.8-8.3,0.8-17,0.8
			c-13.6-0.4-22.3-1.5-35.2-4.5c-6.8-1.9-8.7-3-9.1-4.9c-0.7-6.4,13.6-12.5,32.9-14.4C903.6,208.8,906.3,208.8,908.9,208.8z
			 M877.2,240.9c6.8,0,15.1,2.3,24.2,6.8c12.5,5.7,18.5,12.1,17.8,18.2c-0.4,2.7-2.6,4.9-5.7,6.1c-2.6,1.1-5.3,1.1-11,0
			c-8.7-1.9-17.4-6.1-23.8-11.3c-3.4-3-10.2-11-11.7-13.6c-1.9-3.4,0.8-5.7,7.6-6.1C875.3,240.6,876,240.6,877.2,240.9z M901,151.6
			c8.7,0,10.6,12.5,4.2,25.7c-7.2,14.4-22.3,25.7-40.1,30.7c-5.3,1.5-6.8,1.5-7.6-0.4c-0.7-1.5,0-3,6.8-15.1
			C879,166,891.9,151.6,901,151.6z M843.1,212.9c1.9,0,3.4,0.8,4.9,1.9c3,1.9,5.3,5.3,6,9.1c0.8,3,0.8,3.8,0,6.8
			c-1.1,4.5-2.3,6.8-4.5,8.3c-2.6,1.1-4.5,1.5-8.3,0.4c-4.2-1.1-6.4-2.7-8.7-5.7c-2.7-3.4-3-5.3-2.3-9.8c0.7-4.5,3-7.2,6.8-9.1
			C839.3,213.7,841.2,212.9,843.1,212.9z"/>
		<path class="st1" d="M521.9,403.7l4.7-7.7c-7.1-7.1-13-15.9-15.9-24.8c-6.5-15.9-1.8-39,10-50.8c9.4-9.4,19.5-10.6,26.6-3.5
			c8.9,21.3,5.3,33.7,0.6,51.9l7.7-8.3c28.9-31.3,59.6-47.2,72-37.8c7.7,5.9,4.1,15.9-11.8,31.3c-15.9,15.9-27.2,23.6-49,34.2
			c-15.4,7.7-25.4,11.2-28.4,10.6c-1.2,0-2.3,1.2-6.5,7.1c-8.2,12.4-17.7,27.2-18.3,28.9c-1.8,3.5-5.9,1.8-4.7-3
			C509.5,428,515.4,414.4,521.9,403.7z"/>
		<circle class="st1" cx="237.8" cy="336.1" r="28"/>
		<circle class="st1" cx="317.4" cy="337.1" r="28"/>
		<g>
			<path d="M130.6,967.7c4.1-14.9,6.1-38.7,6.1-71.8c0-18.8-1-39.2-2.8-61.2c-1.9-22-5.4-39.6-10.4-52.9c12.9,5.6,28.9,9.4,48,11.4
				c-2.3,4.8-4,15-5.2,30.8c-1.2,14.7-1.8,31.1-1.8,49.2c0,1.3,0,7.1,0.2,17.5c0.1,10.4,1,23.7,2.7,39.7c0.3,3.2,0.6,6.2,1,8.9
				c22.9-3.7,41.1-8.6,54.6-14.6c0.9,13,1.8,26,2.7,39c-13-1.1-26.5-1.7-40.4-1.9c-3.5,0-10.7,0.3-21.7,0.8
				C152.4,963.2,141.5,964.8,130.6,967.7z"/>
			<path d="M281.1,970.6c-14.7,0-29.4,0-44.1,0c4-13.2,6-30,6-50.5c-0.1-32-4.5-57.8-13.4-77.8c16,1.1,32,2,48.1,2.9
				c-3.1,6.3-5.2,18.2-6.2,35.8c-0.5,7.5-0.7,15.1-0.7,22.7c0,10.1,0.6,22.1,1.7,36C273.8,953.6,276.6,963.9,281.1,970.6z
				 M255.3,835.6c-6.8-0.4-12.6-3.1-17.5-7.9c-4.8-4.9-7.3-10.5-7.3-17c0-6.4,2.4-11.7,7.2-15.7c4.8-4.1,10.6-5.8,17.5-5.2
				c6.8,0.6,12.6,3.3,17.4,8.1c4.8,4.8,7.2,10.3,7.2,16.5c0,6.3-2.4,11.5-7.2,15.6C268,834.1,262.2,836,255.3,835.6z"/>
			<path d="M300.9,967.9c4-13.6,6-35.5,6-65.7c0-17.2-1-35.9-2.9-56c-1.9-20.1-5.4-36.1-10.4-48c13,4.6,29,7.6,48.1,8.9
				c13.4,0.9,24.7,3.5,33.9,7.7c10.2,4.8,17.7,10.6,22.7,17.4c4.9,6.8,7.4,14,7.4,21.5c0,8.1-2.8,15.9-8.4,23.5
				c-5.6,7.5-13.9,14.1-24.9,19.6c-10.1,5-22.5,8.6-37.2,10.8c1.6,29.7,4.9,48.1,9.8,55.2C330.3,962.7,315.6,964.4,300.9,967.9z
				 M334.8,892.7c6.8-0.4,12.9-2.5,18.4-6.2c6.8-4.7,11.9-10.3,15.1-16.9c3.3-6.6,4.9-12.9,4.9-19c0-9.4-3.9-17-11.5-22.9
				c-5.5-4.3-13.4-7-23.5-8.2c-2.3,14.1-3.4,34.5-3.3,61C334.8,884.6,334.8,888.6,334.8,892.7z"/>
			<path d="M471.8,965.4c-21,0-35.2-7-42.5-21c-1.9-3.6-3.4-7.2-4.6-10.6c-2-5.8-4.6-10.1-7.6-12.7c15.2-2.1,30.3-4.1,45.5-6.2
				c-2.5,3.6-3.7,8.6-3.7,14.9c0,2.5,0.3,5.4,1,8.9c0.6,3.4,2,6.6,4,9.5c2,2.9,4.7,4.4,7.9,4.4c5,0,9.1-2.6,12.5-7.7
				c3.4-5.2,5-10.9,5-17.3c0-6.2-1.7-11.3-5-15.5c-3.3-4.2-8.6-8.1-15.8-11.9c-3.5-1.8-7.7-3.7-12.5-5.8
				c-12.2-5.2-21.1-10.2-26.7-15.1c-8.2-7.1-12.3-16.5-12.4-28.3c0-8.1,1.9-15.3,5.6-21.7c4.4-7.4,11.1-12.8,19.9-16.3
				c6.6-2.6,14.2-3.7,23-3.6c15.4,0.3,27,4,34.6,11.2c5,4.8,9.1,11.7,12.5,20.7c2,5.7,4.6,9.8,7.8,12.4c-15.2,2.1-30.5,4.2-45.7,6.2
				c2.5-3.5,3.7-8.5,3.7-15c0-2.5-0.3-5.4-1-8.8c-0.6-3.4-2-6.5-4-9.5c-2-3-4.7-4.5-7.9-4.5c-10.5-0.2-16,8-16.5,24.6
				c0,5.5,1,9.6,3.1,12.5c1.7,2.2,4.4,4.5,8.2,7c3.4,2.1,8.9,5,16.5,8.5c13,6.1,22.7,11.9,29.2,17.4c9.5,8.2,14.3,18.5,14.3,31
				c0,8-1.9,15.1-5.7,21.4c-2.5,4.3-5.8,8-10,11C496.1,962.2,485.1,965.4,471.8,965.4z"/>
			<path d="M562.5,969.8c4-12.7,6-32.6,6-59.8c0-16.6-1-34.4-2.9-53.3c-0.8-8.1-1.9-15.4-3.3-22.1c-12.7,2.1-25.3,5.5-37.8,10.2
				c0-10.9,0-21.7,0-32.6c37.5,0.1,75-3.8,112.6-11.9c0,13.2,0,26.3,0,39.5c-12.4-4.3-25.2-6.7-38.5-7.3c-1.7,14.3-2.5,31.3-2.5,51
				c0,1.2,0.1,6.5,0.2,15.8c0.1,9.3,1,21.1,2.6,35.4c1.6,14.3,4.1,23.7,7.5,28.4c-9.8,0-22.7,1.9-38.7,5.8
				C565.9,969.2,564.2,969.5,562.5,969.8z"/>
			<path d="M699.3,970.6c-14.7,0-29.4,0-44.1,0c4.1-12.4,6.1-28.2,6.1-47.5c0-30.1-4.4-54.2-13.2-72c16.1-0.4,32.1-0.8,48.2-1.4
				c-3.1,6.3-5.2,18-6.3,34.9c-0.5,7.3-0.7,14.5-0.7,21.8c0,9.7,0.5,21.2,1.6,34.5C692,954.2,694.8,964.1,699.3,970.6z M673.9,842.5
				c-6.8,0.2-12.7-1.8-17.5-5.9c-4.8-4.1-7.3-9.1-7.2-15.1c0-6,2.4-11.1,7.3-15.5c4.9-4.4,10.7-6.7,17.5-7
				c6.8-0.3,12.6,1.6,17.4,5.6c4.8,4,7.2,9.1,7.2,15.1c0,6-2.4,11.3-7.2,15.8C686.6,839.9,680.8,842.3,673.9,842.5z"/>
			<path d="M775.8,969.7c-10.8,0-20.2-2.4-28.2-7.2c-9.4-5.5-17-13.4-22.9-23.5c-9-15.3-13.5-33.1-13.5-53.5
				c0-10.6,1.4-20.9,4.1-31.1c2.7-10.2,6.8-19.4,12.3-27.7c11.7-18.2,27.9-28.1,48.4-29.5c16.5-1.2,28.6,1.4,36.5,7.8
				c5.3,4.4,9.6,11.1,12.7,20c2,5.7,4.6,9.9,7.9,12.5c-16.1,3.6-32.2,7.1-48.4,10.4c2.9-4.4,4.3-9.8,4.3-16.4c0-14-4.3-20.7-13-20.1
				c-5.3,0.3-10,3.3-13.8,8.8c-3.9,5.5-7,12.5-9.3,21.1c-3.4,12.6-5.2,26.8-5.2,42.5c0,16.6,1.7,31.2,5.2,43.9
				c5.2,18.8,12.9,28.2,22.9,28.2c3.5,0,6.3-2.2,8.3-6.6c3.1-6.8,4.7-15.3,4.7-25.5c0-9.6-1.4-16.6-4.2-21c16.1,2,32.2,4,48.4,6.1
				c-2.9,2.2-5.5,8-7.9,17.4c-3.2,12.2-7.5,21.8-13,28.8C804.2,964.7,792.1,969.7,775.8,969.7z"/>
			<path d="M947.2,970.6c-14.7,0-29.4,0-44.1,0c1.7-5.5,2.5-13.2,2.5-23.1c0-23.3-5.4-41.4-16.1-54c-3.8-4.5-8.3-8.2-13.7-10.9
				c0.2,16.5,1,32.6,2.6,48.4c1.6,15.7,4.1,26.1,7.5,31.3c-14.7,0.1-29.4,2-44.1,5.6c4.1-14,6.1-36.8,6.2-68.2
				c0-17.9-0.9-37.1-2.7-57.7c-1.9-20.6-5.3-36.6-10.4-47.9c13,2.7,29,3.2,48,1.3c-4.1,9.3-6.5,32.1-7,68.4
				c9.6-4.7,17-10.6,22.4-17.6c7.8-10.3,11.7-23.8,11.8-40.2c0-5.2-0.5-9.7-1.5-13.3c14.3,0.6,28.6,1.2,42.9,1.7
				c-2,3.1-4,9-6.1,17.6c-6.9,29.5-23.3,49.7-49.1,60.4c28.9,11.1,44.5,37.8,46.9,79.7C943.7,961.1,945,967.2,947.2,970.6z"/>
		</g>
		<circle cx="432.6" cy="705.7" r="27.1"/>
		<circle cx="727" cy="652.8" r="27.1"/>
	</g>
	<circle class="st0" cx="151.6" cy="337.1" r="40.2"/>
</g>
</svg>
