<?xml version="1.0" encoding="utf-8"?>
<!-- Generator: Adobe Illustrator 22.0.0, SVG Export Plug-In . SVG Version: 6.00 Build 0)  -->
<svg version="1.1" id="Layer_1" xmlns="http://www.w3.org/2000/svg" xmlns:xlink="http://www.w3.org/1999/xlink" x="0px" y="0px"
	 viewBox="0 0 1080 1080" style="enable-background:new 0 0 1080 1080;" xml:space="preserve">
<style type="text/css">
	.st0{fill:#BE1E2F;}
	.st1{fill:#030405;}
</style>
<g>
	<g>
		<g>
			<path class="st0" d="M853.5,643.4c5.4,11.6,10.8,23.3,16.3,34.9c0.3,0.7,0.6,1.3,0.9,2c0.6,1.7,0.3,2.5-1.3,3.3
				c-2.6,1.4-5.2,2.7-7.9,4.1c-4,2.1-7.9,4.1-11.9,6.2c-1.8,0.9-2.7,0.8-4-0.7c-1.7-1.9-2.7-4.2-4-6.3
				c-6.1-10.4-11.9-20.8-17.7-31.3c-6-10.9-11.9-21.8-17.9-32.7c-0.5-0.9-0.5-1.3,0.6-1.7c9.8-4.1,19.3-9,28.3-14.6
				c0.6-0.4,1.1-0.8,1.5,0.2C842,618.9,847.7,631.2,853.5,643.4C853.5,643.4,853.5,643.4,853.5,643.4z"/>
			<path class="st0" d="M782.4,577.5c-4.1-8-8.2-15.9-12.4-23.9c-0.5-1-0.4-1.4,0.7-1.8c9.8-4.1,19.3-9,28.3-14.6
				c0.9-0.6,1.3-0.4,1.8,0.5c7.9,15.3,15.8,30.6,23.7,45.8c0.7,1.4,0.5,2.6-0.3,3.8c-1.4,2.2-3.5,3.9-5.6,5.3
				c-5.8,3.9-12.1,7-18.7,9.2c-4.1,1.4-4.2,1.3-6.2-2.5C789.9,592.1,786.2,584.8,782.4,577.5z"/>
			<path class="st0" d="M787.7,519.4c2.6,5.1,5.3,10.2,7.9,15.3c0.5,0.9,0.5,1.3-0.5,1.9c-7.4,4.4-14.9,8.3-22.8,11.8
				c-0.9,0.4-1.3,0.3-1.8-0.6c-4.3-8.4-8.7-16.7-12.9-25.1c-4.4-8.7-6.2-17.9-6-27.6c0-1.4,0.2-2.8,0.6-4.2c0.2-0.7,0.6-1,1.3-1
				c0.5,0,1,0,1.4,0c9.1,1.3,17,4.9,23.1,11.8c0.9,1,1.6,2.1,2.2,3.3C782.7,509.8,785.2,514.6,787.7,519.4z M755.6,493.9
				c3.1,4.6,7,8.5,11.9,11.2c1.2,0.6,2.4,1.1,3.7,1.4c1.3,0.2,2.6,0.2,3.8-0.4c1.1-0.6,1.4-1.3,0.9-2.4c-0.6-1.2-1.5-2.1-2.6-2.9
				c-4.1-3.3-8.6-5.7-13.5-7.6c-1.2-0.5-2.4-0.8-3.7-1.1c-1-0.2-1.2,0.3-0.9,1.1C755.3,493.4,755.4,493.7,755.6,493.9z"/>
			<path class="st0" d="M873.6,681.3c-0.2-1.6-0.8-2.8-1.4-4.1c-6.4-13.6-12.7-27.3-19.1-40.9c-4.8-10.3-9.6-20.5-14.4-30.8
				c-0.5-1-0.3-1.4,0.6-2c1.3-0.9,2.4-2,3.7-3.1c1.2,2.6,2.4,5.2,3.6,7.8c4.8,10.5,9.5,20.9,14.2,31.4c5,11.1,10.1,22.2,14.3,33.7
				c0.5,1.3,0.9,2.6,0.9,4C875.9,679,875.1,680.2,873.6,681.3z"/>
			<path class="st0" d="M844.8,696.1c-2.1,0.7-3.6,0.2-5-1c-2-1.9-3.3-4.2-4.8-6.4c-8.3-12.8-15.9-26-23.5-39.1c-4.7-8-9.4-16-14-24
				c-0.8-1.4-0.8-1.4,0.8-1.8c1.1-0.3,2.3-0.5,3.4-0.9c0.8-0.3,1.2-0.1,1.6,0.6c2.1,3.9,4.3,7.9,6.4,11.8
				c7.8,14.3,15.6,28.5,23.6,42.6c2.9,5.1,6,10.2,9,15.3C842.9,694.2,843.7,695.2,844.8,696.1z"/>
			<path class="st0" d="M816.4,605.8c-4.6,2.3-9.2,4.6-13.8,6.7c-0.9,0.4-1.3,0.3-1.7-0.6c-0.4-1-0.9-2-1.5-2.9
				c-0.5-0.8-0.4-1.3,0.3-1.9c2.2-2.3,4.7-4.2,7.8-5.4c4.4-1.8,8.6-4.1,12.6-6.7c2.4-1.5,5.2-1.6,7.8-2.2c0.5-0.1,0.7,0.2,0.9,0.6
				c0.6,1.1,1.1,2.2,1.7,3.3c0.5,0.8,0.4,1.3-0.5,1.8C825.5,600.9,821,603.4,816.4,605.8z"/>
			<path class="st0" d="M819.4,612.3c-5.8,2.9-12,6-18.6,8.2c-1.4,0.5-2.8,0.8-4.3,1c-0.9,0.1-1.6,0-1.9-1c-0.3-0.7-1.1-1.6-0.9-2.1
				c0.2-0.7,1.4-0.5,2.2-0.8c6.5-2,12.6-5.1,18.7-8.1c7.6-3.9,15.2-7.8,22.2-12.8c0.9-0.7,1.8-1.4,2.6-2.1c0.4-0.3,0.6-0.4,0.9,0.1
				c0.4,0.8,0.8,1.5,1.2,2.3c0.4,0.7-0.2,1.1-0.6,1.5c-1.8,2-4.1,3.5-6.3,5C829.9,606.7,824.9,609.4,819.4,612.3z"/>
			<path class="st0" d="M791.6,607.3c1.4,0.3,2.7,0.6,4,0.9c0.5,0.1,0.7,0.4,0.9,0.8c0.7,1.4,1.4,2.7,2.1,4c0.4,0.6,0.3,1-0.5,1.2
				c-1.9,0.5-3.2,0-4-1.6c-0.8-1.6-1.7-3.2-2.5-4.8C791.6,607.7,791.6,607.6,791.6,607.3z"/>
			<path class="st0" d="M832.5,586.5c1.1,2.1,2.2,4.2,3.2,6.3c0.4,0.7-1.2,3-2,3.1c-0.3,0-0.4-0.2-0.5-0.4c-0.7-1.4-1.5-2.9-2.2-4.3
				c-0.2-0.3-0.1-0.6,0-1c0.3-1.2,0.7-2.5,1-3.7C832.1,586.4,832.3,586.5,832.5,586.5z"/>
		</g>
	</g>
	<g>
		<g>
			<path class="st0" d="M317.8,141.5c-3.9,62.2-2.8,116,3.1,161.3c-0.6-10.8-0.3-22.6,1.1-35.4c1.3-12.8,3.7-26.2,7-40.3
				c3.4-14,7.5-27.8,12.4-41.3c4.9-13.5,11-26.3,18.5-38.4c7.4-12.1,15.6-22.5,24.6-31.3c8.9-8.7,19.3-15.4,31.1-20.1
				c11.8-4.7,24.3-6.3,37.5-4.9c10,0.6,19.1,3.7,27.4,9.1c13.2,8.7,22.8,19.6,28.8,32.6c6,13,8.5,26.6,7.5,40.9
				c-1,14.2-4.6,28.7-10.8,43.5c-6.2,14.7-14.7,28.6-25.5,41.6c-13.2,16.1-29.4,30.6-48.6,43.5c-19.2,12.9-36.1,21.6-50.8,26.1
				l1.5-0.3c9.8-1.8,18.8-1.8,27.1,0c8.3,1.8,15.9,4.7,22.6,8.5c6.7,3.9,12.4,8.9,17.1,15.2c4.7,6.3,8.2,13.1,10.7,20.3
				c2.4,7.2,3.5,15,3.1,23.3c-0.4,8.3-2.3,16.5-5.8,24.4c-4.7,13-10.7,22.5-18.1,28.5c-7.4,6-15.2,8.6-23.5,7.8
				c-8.2-0.8-16.9-3.9-25.9-9.2c-9.1-5.3-17.6-12.1-25.6-20.4c-8-8.3-15.5-17.6-22.4-27.8c0.4,1.2,0.7,2.4,0.9,3.7
				c1.4,8.9-0.2,13.9-4.9,14.9c-2.2,0.4-5.1-0.4-8.7-2.4c-3.6-2-6.1-4.9-7.5-8.5c-3.5-10.4-6.7-20.9-9.8-31.7
				c-16.9-20.3-30.2-38.7-40-55.2c-2.8-4.3-2.7-7.9,0.3-11c2.6-2.2,5.2-1.8,7.6,1.2c7.9,11,15.2,20.3,22,28.1
				c-11.8-48.2-18.4-92.6-19.8-133.3c-7.5,16.9-17.7,29.3-30.5,37.2c-6.1,4.3-11.2,4.3-15.2,0c-3-3.3-3.5-6.4-1.2-9.5
				c0.6-0.6,1.3-1.2,2.1-1.8c12.8-10.8,22.5-23.3,29.1-37.5c6.6-14.2,12.8-32.1,18.5-53.7c0.4-3.3,0.9-6.4,1.5-9.5
				c0.6-3.1,1.3-5.8,2-8.4c0.7-2.5,1.5-4.7,2.4-6.4c0.9-1.7,1.7-3.3,2.4-4.6c0.7-1.3,1.6-2.3,2.7-2.9c1.1-0.6,2-1.2,2.6-1.7
				c0.6-0.5,1.5-0.8,2.7-0.8c1.2,0,2,0,2.4,0c0.4,0,1.8,0.2,4.3,0.6c4.1,0.4,7,3.2,8.7,8.2C318.2,119.2,318.6,128.3,317.8,141.5z
				 M379.7,169.9c-12.4,25.6-23,55-31.7,88c-8.7,33-15.4,62.2-19.8,87.4c33.1-20.7,63.2-43.9,90.3-69.5
				c24.8-23.4,42.9-46.8,54.3-70.1c5.5-11.6,9.1-22.2,11-31.7c1.8-9.6,1.8-17.6,0-24.2c-1.8-6.6-4.6-12.1-8.4-16.5
				c-3.8-4.4-8.6-8.1-14.5-11.1C429.3,106.3,402.3,122.3,379.7,169.9z M331.8,362l0.3,1.2c3.7,3.9,9.2,11.2,16.6,22
				c7.4,10.8,13,17.8,16.6,21c8.7,8.3,17,14,24.9,16.9c7.8,2.9,14.5,3.4,20,1.2c5.5-2.1,10-5.3,13.6-9.5c3.6-4.2,6.1-9,7.8-14.5
				c1.4-5.1,2.2-10.1,2.4-14.9c0.2-4.9-0.6-9.8-2.3-14.6c-1.7-4.9-4.4-9.1-8.1-12.8c-3.7-3.7-8.9-6.7-15.7-9.2
				c-6.8-2.4-14.9-3.9-24.2-4.3C366.8,346.1,349.5,351.9,331.8,362z"/>
			<path class="st0" d="M653.7,272.9c0.8-3.7,2-5.9,3.7-6.7c1.6-0.8,3-0.3,4.1,1.5c1.1,1.8,1.4,4.2,0.8,7
				c-3.5,11.8-6.7,22.4-9.8,31.7c-3.1,9.4-6.6,19.2-10.5,29.4c-4,10.3-7.9,19.1-11.9,26.4c-4,7.3-8.2,13.9-12.8,19.8
				c-4.6,5.9-9.5,10.1-14.6,12.5c-5.2,2.4-10.5,3.1-16,2.1c-4.1-0.8-7.6-2.5-10.7-5c-3-2.5-5.3-5.9-6.9-10.2
				c-1.5-4.3-2.7-8.6-3.7-13.1c-0.9-4.5-1.2-9.9-0.9-16.2c0.3-6.3,0.6-11.9,0.9-16.8c0.3-4.9,1.1-10.7,2.4-17.5
				c1.3-6.8,2.3-12,3-15.7c0.7-3.7,1.7-8.4,2.9-14.2c1.2-5.8,1.9-9.2,2.1-10.2c-0.6,1.2-2.7,5.5-6.4,13c-3.7,7.4-7.3,14.2-11,20.3
				c-3.7,6.1-8,12.7-13,19.8c-5,7.1-10.2,12.7-15.7,16.6c-5.5,4-10.8,5.7-15.9,5.3c-7.1-0.4-12.6-3.6-16.5-9.6
				c-3.9-6-6.1-13.1-6.7-21.2c-0.6-8.1-0.5-16.9,0.5-26.2c0.9-9.3,2.1-17.4,3.5-24.2c1.4-6.8,2.8-12,4.3-15.7
				c2.6-4.7,6.1-7.8,10.5-9.3c4.4-1.5,8.1-1,11.1,1.7c3,2.6,4.3,6.8,3.7,12.5c-0.6,3.9-1.8,9.2-3.5,16c-1.7,6.8-3.3,13.1-4.7,18.8
				c-1.4,5.7-2.6,11.4-3.7,17.1c-1,5.7-1.3,10.4-0.8,14c0.5,3.7,1.9,5.9,4.1,6.7c4.5,1.6,10.2-1.2,17.2-8.5
				c7-7.3,13.4-15.9,19.2-25.8c5.8-9.9,12-20.3,18.6-31.3c6.6-11,11.2-18.1,13.9-21.3c2.8-3.5,7.3-4.6,13.4-3.4c2,0.6,3.7,1.6,5,2.9
				c1.3,1.3,2.2,3.2,2.6,5.6c0.4,2.4,0.7,4.9,0.8,7.5c0.1,2.5-0.2,5.8-0.8,9.8c-0.6,4-1.2,7.6-1.8,11c-0.6,3.4-1.5,7.6-2.7,12.7
				c-2,9.6-3.4,15.8-4.1,18.8c-0.7,2.9-1.9,9.1-3.7,18.6c-1.7,9.5-2.9,16.8-3.4,22c-0.5,5.2-0.8,11.2-0.9,18.1
				c-0.1,6.9,0.5,12.7,1.7,17.4c4.5,2.4,9.8-0.1,16-7.6c6.2-7.5,12.4-18.2,18.5-32c6.1-13.8,11.4-26.8,15.9-38.9
				C645.6,296.6,649.8,284.7,653.7,272.9z"/>
			<path class="st0" d="M790.5,158c15.4,3.7,25.8,10.9,31.1,21.7c3.9,8.3,3.2,14.8-2.1,19.5c-2.4,2-5.5,3.3-9.1,3.7
				c-1.6,0-2.7-0.9-3.2-2.6c-0.5-1.7,0-3.3,1.7-4.7c4.5-6.5,4.7-12.9,0.8-19.1c-4-6.2-10.7-10.1-20.3-11.7
				c-13.8-1.2-38.9,2.5-75.3,11.3c-4.7,15.2-8.5,30.2-11.6,44.8c-3.1,13.4-5.8,26.8-8.2,40.1c-2.4,13.3-4.9,29-7.3,47
				c-2.4,18-3.1,33.2-2,45.7c1.1,12.5,4.2,20.2,9.3,23c4.1,0.2,8.3-1.2,12.8-4.3c4.5-3,8.7-7,12.7-11.9c4-4.9,8.1-11,12.4-18.3
				c4.3-7.3,8-14.4,11.3-21.3c3.3-6.9,6.7-14.5,10.4-22.9c2-3,4.3-3.5,6.7-1.2c2,1.8,2.4,4.2,1.2,7c-4.9,11.6-9.8,22.3-14.8,32
				c-5,9.8-10.6,19.3-16.9,28.7c-6.3,9.4-12.8,16.5-19.4,21.3c-6.6,4.9-13,6.7-19.1,5.5c-13.4-2.8-22.5-13.2-27.1-31.1
				c-4.7-17.9-5.6-40.7-2.7-68.3c4.1-40.5,11.7-76.8,22.9-108.9c-9.2,2.2-17.1,3.9-23.8,4.9c-8.9,1.4-18.2,2.2-27.8,2.4
				c-9.6,0.2-19.2-0.3-29-1.5c-9.8-1.2-18.6-3.3-26.5-6.1c-7.9-2.8-14.5-6.9-19.7-12c-5.2-5.2-8.2-11.3-9-18.5
				c-0.2-4.1,1.3-6.1,4.6-6.1c3.3,0.4,5.6,2.5,7,6.4c7.9,30.1,50.6,36.5,128.1,19.2c6.5-17.1,14.1-32.9,22.9-47.6
				c4.7-8.3,9.6-12.3,14.6-11.9c4.7,0.8,6.6,5,5.8,12.5c-5.5,13.8-10.4,27.3-14.6,40.6C754,157.1,778.5,154.7,790.5,158z"/>
		</g>
	</g>
	<g>
		<path class="st1" d="M304,854.8c0.3,2.5,1.9,4.5,5,6c3.1,1.5,6.6,2.1,10.7,1.7c4-0.4,7.4-1.6,10-3.7c2.7-2.1,3.9-4.4,3.6-6.9
			c-0.3-2.5-1.9-4.5-4.9-6c-3-1.5-6.5-2.1-10.6-1.7c-4,0.4-7.4,1.7-10.1,3.7C305,850,303.8,852.2,304,854.8z"/>
		<path class="st1" d="M588.2,819.8c-3-1.5-6.5-2.1-10.6-1.7c-4,0.4-7.4,1.7-10.1,3.7c-2.7,2.1-3.9,4.4-3.7,6.9c0.3,2.5,1.9,4.5,5,6
			c3.1,1.5,6.6,2.1,10.7,1.7c4-0.4,7.4-1.6,10-3.7c2.7-2.1,3.9-4.4,3.6-6.9C592.8,823.3,591.2,821.3,588.2,819.8z"/>
		<path class="st1" d="M786.4,840.3c-0.9-0.8-1.7-0.8-2.5-0.1c-1.9,2.2-3.9,5.3-6,9.5c-2.1,4.2-4,8.6-5.8,13.1
			c-1.7,4.6-3.6,9.3-5.6,14.2c-2,4.9-3.8,9.2-5.5,13c-1.7,3.8-3.4,6.8-5.4,9.1c-1.9,2.3-3.7,3.3-5.2,3c-2.9-0.3-5.1-2.2-6.8-5.8
			c-1.6-3.6-3.1-8.3-4.3-14.2c-1.3-5.9-2.4-10-3.5-12.3c4.7-0.2,8.9-1.7,12.7-4.3c3.8-2.6,6.7-5.9,8.8-9.9c1.3-2.3,2.2-4.8,2.6-7.4
			c0.5-2.6,0.5-4.9,0.1-7c-0.4-2.1-1-4.1-2-5.8c-0.9-1.8-2.2-3.1-3.9-4c-1.6-0.9-3.4-1.4-5.2-1.5c-1.8-0.1-3.9,0.4-6.2,1.5
			c-2.3,1.2-4.6,3-6.9,5.4c-3.1,3.3-7.6,9.3-13.4,18c0.6-7,1.6-13.9,3.1-20.6c0.7-3.4,1.4-6.6,2.2-9.8c10.2-7.2,18.9-14.4,26-21.6
			c7.2-7.2,12.4-13.7,15.7-19.3c3.3-5.7,5.5-11,6.6-15.9c1.1-4.9,0.9-8.9-0.4-11.9c-1.3-3.1-3.4-5.3-6.3-6.6
			c-5.4-2.5-12.1-1.5-20,3.1c-7.9,4.6-15.4,12.7-22.3,24.5c-8.3,13.9-14.5,32.1-18.7,54.4c-1.7,9.4-2.9,18.3-3.4,26.6
			c-2.2,5-5,10.7-8.4,17.3c-3.7,7-7.8,13.6-12.3,19.6c-4.5,6-9.1,10.6-13.9,13.8c-4.8,3.2-9.4,3.5-13.9,1c-4.7-2.8-8-8.2-9.9-16.2
			c-1.9-8-2-15.9-0.4-23.9c1.9-10.9,5.9-18.7,12-23.5c4.6-3.8,8.7-4.8,12.4-3.1c3.3,1.4,4.2,4.2,2.5,8.3l-0.2,1.3
			c0.1,1.8,1,2.8,2.8,3.2c2.2,0.4,3.7-0.9,4.4-3.9c0.2-2.2,0.1-4.4-0.5-6.6c-1.5-6.5-5.8-10.9-12.9-13.4c-8-2.7-15.8-1.7-23.3,3
			c-10.3,6.4-15.9,17.9-16.9,34.4c-0.2,3.6-0.2,7.2,0.1,10.7c-0.9,5.5-2.1,11.1-3.5,16.6c-1.7,6.8-4,12.2-6.9,16.2
			c-2.8,4-6,6-9.6,5.9c-1.5,0-2.9-0.7-4.1-2.3c-1.2-1.6-2.2-3.7-2.9-6.3c-0.8-2.6-1.4-5.7-2-9.1c-0.6-3.5-1-7.1-1.3-10.9
			c-0.3-3.8-0.6-7.7-0.9-11.6c-0.3-3.9-0.6-7.5-0.9-10.9c-0.3-3.4-0.7-6.4-1.3-9.1c-0.4-3.2-1.7-5.7-3.8-7.6c-2.1-1.9-4.5-3-7.2-3.2
			c-2.7-0.2-5.2,0.2-7.7,1.1c-2.5,0.9-4.5,2.7-6,5.4c-1.5,2.7-2,5.9-1.5,9.6c0.6,4.5,1.4,8.8,2.2,12.8c-1.1,2.9-2.4,5.9-3.8,9
			c-1.9,4.2-3.8,7.6-5.6,10.5c-1.9,2.8-3.9,5.2-6.2,7.1c-2.2,1.9-4.4,2.9-6.6,3c-2.9-1.3-5-5.2-6.2-11.8c-1.3-6.6-1.7-14.9-1.4-24.6
			s0.8-18.3,1.4-25.6c0.6-7.3,1.3-14.6,2.3-22c0.8-8,2.1-16.2,3.8-24.7c19.1-6.6,32.3-10,39.8-10.1c5.2,0.4,9,2.1,11.5,5.2
			c2.5,3.1,2.7,6.5,0.6,10.3c-0.8,0.9-1,1.7-0.6,2.6c0.4,0.9,1,1.3,1.9,1.2c1.9-0.4,3.5-1.2,4.7-2.5c2.6-2.8,2.6-6.3,0.1-10.6
			c-3.4-5.5-9.4-8.8-17.9-9.9c-6.6-1.1-19.6,1.5-39,7.9c1.6-7.3,3.5-14.8,5.7-22.5c0-4.1-1.2-6.2-3.8-6.4c-2.7,0.1-5.2,2.4-7.2,7.2
			c-3.9,8.3-7.1,17.2-9.7,26.8c-40.6,13.4-63.9,12.3-69.7-3.4c-1-2-2.3-3-4.1-3.1c-1.7,0.2-2.5,1.3-2.1,3.5c0.8,3.8,2.8,6.9,5.8,9.4
			c3.1,2.5,6.8,4.3,11.2,5.4c4.4,1.1,9.3,1.7,14.6,1.8c5.3,0.1,10.5-0.1,15.6-0.7c5.1-0.6,10-1.6,14.8-2.8c3.5-0.9,7.7-2.2,12.5-3.9
			c-4.3,17.8-6.4,37.7-6.4,59.6c0,4.2,0.1,8.1,0.4,11.8c-2.4,2.3-4.9,4.4-7.7,6.3c-2.9,1.9-6.4,4.7-10.7,8.2
			c-4.2,3.5-8.1,7.3-11.5,11.2c-4.3-5.6-7.9-11.1-10.7-16.3c-2.8-5.2-5-11.3-6.6-18.3c-1.7-7.4-2.2-13.8-1.4-19.3
			c0.8-5.4,3.1-8.7,6.9-9.9c3-1,5.7-0.2,8,2.4c2.4,2.6,4.1,5.9,5.3,10c1.2,4.1,2,8.4,2.5,13.1c0.1,0.5,0.2,1,0.3,1.5
			c0.7,1.9,2.3,2.5,4.6,1.7c3.1-1,5-3.6,5.6-8c-1-10.1-4.4-17.9-10.3-23.3c-4.7-4.4-10.2-6.9-16.4-7.4c-6.2-0.6-12,0.7-17.4,4
			c-5.4,3.2-9.3,7.9-11.7,14c-1.5,3.9-2.2,8.2-2.2,12.9c-0.1,5,0.6,9.6,2,13.9c1.1,3.4,2.6,6.6,4.6,9.6c-0.6,0.6-1.1,1.2-1.7,1.7
			c-1.1,1-2.5,2-4.3,2.9s-3.1,1.6-4.3,2.1s-2.6,1-4.5,1.7c-1.9,0.7-3.2,1.2-4,1.5c-0.1-5.1-0.8-9.9-2.3-14.5
			c-1.5-4.6-3.3-8.5-5.6-11.8c-2.3-3.3-4.9-5.9-7.9-7.9c-3-2-6.1-3-9.2-3.1c-3.1-0.1-6.2,0.9-9.4,3c-3.2,2.1-6.1,5.4-8.8,9.9
			c-5.2,8.7-9.8,21.7-13.9,39.1c-1.1-10.7-1.6-22.5-1.6-35.5c0.2-1.1,0.2-2.1,0-3c-0.7-2.5-2.5-3.5-5.4-3.1c-3.4,0.4-5.7,2.4-7,6
			c-3,10.8-3.6,23.1-1.9,36.7c-0.9,5.5-2.1,11-3.5,16.6c-1.7,6.8-4,12.2-6.9,16.2c-2.8,4-6,6-9.6,5.9c-1.5,0-2.9-0.7-4.1-2.3
			c-1.2-1.6-2.2-3.7-2.9-6.3c-0.8-2.6-1.4-5.7-2-9.1c-0.6-3.5-1-7.1-1.3-10.9c-0.3-3.8-0.6-7.7-0.9-11.6c-0.3-3.9-0.6-7.5-0.9-10.9
			c-0.3-3.4-0.7-6.4-1.3-9.1c-0.4-3.2-1.7-5.7-3.8-7.6c-2.1-1.9-4.5-3-7.2-3.2c-2.7-0.2-5.2,0.2-7.7,1.1c-2.5,0.9-4.5,2.7-6,5.4
			c-1.5,2.7-2,5.9-1.5,9.6c1,7,2.2,13.5,3.6,19.4c-0.7,7.1-1.3,13.7-1.9,19.8c-0.6,6.7-1.3,13.3-2.2,19.6c-0.8,6.4-2,11.4-3.5,15.1
			c-1.5,3.7-3.4,5.5-5.6,5.4c-3.1-1-6.5-6.2-10.2-15.6c-3.7-9.4-7-19.4-9.6-30c-2.7-10.6-4.6-20.2-5.9-28.7
			c5.8-6.6,11.2-14.2,16-22.6c4.8-8.4,8.9-18.1,12.3-29.2c3.4-11,4.9-21.6,4.7-31.9c-0.2-7.8-1.4-14.2-3.6-19.3
			c-2.2-5.1-4.9-8.5-8.1-10.2c-3.3-1.7-6.9-2-10.9-0.8c-4,1.2-8,3.8-11.9,7.8c-10.1,10.4-16.1,28.4-18.1,54
			c-0.8,10.1-0.7,21.1,0.2,32.9c0.9,11.9,2.6,23.6,5.1,35.1c2.5,11.5,5.5,22.2,9.1,31.9c3.6,9.7,7.9,17.8,13.1,24.1
			c5.2,6.4,10.6,10,16.3,11c2.7,0.4,5.1-0.3,7.2-2.2c2.1-1.9,3.9-4.7,5.3-8.5c1.4-3.8,2.6-8.1,3.5-12.7c1-4.7,1.8-10,2.5-15.9
			c0.5-4.2,0.9-8.3,1.3-12.2c2,5.6,4.3,10.4,6.9,14.4c7,11.1,15.6,15.5,25.8,13c2.6-1,5.2-2.6,7.6-4.6c2.4-2,4.5-4.4,6.2-7.3
			c1.7-2.9,3.3-5.8,4.8-8.7c1.2-2.4,2.2-5.3,3.2-8.5c2.1,9.1,4.8,18,8.2,26.9c5.4,14.2,11.5,25.9,18.2,35.3l0.4,0.3
			c2.8,2.8,5.2,3.3,7.3,1.6c2.3-2,2.4-5.4,0.3-10.1c-7.3-13-12.7-27.1-16.4-42.1c4.1,2.5,8.2,3.7,12.4,3.7c4.9-0.2,9.8-1.7,14.6-4.5
			c4.8-2.8,8.9-6.4,12.3-10.7c3.4-4.3,6.3-9,8.5-14.2c2.2-5.1,3.5-10,3.8-14.7c0.4-0.2,1.1-0.4,1.9-0.7c2.6-1,4.7-1.9,6.3-2.4
			c1.5-0.6,3.6-1.5,6.3-2.9c2.7-1.3,4.8-2.6,6.5-4c0.4-0.3,0.8-0.6,1.1-1c2.2,2.8,4.3,5.3,6.2,7.4c2.4,2.6,5.7,5.9,10,9.8
			c4.2,3.9,7.4,7.1,9.5,9.4c-6.9,12-9.8,22.5-8.6,31.3c0.6,7,3.1,12.3,7.5,15.9c4.4,3.6,9.3,5.2,14.6,4.8c6.2-0.5,10.9-3.5,14.1-9
			c3.2-5.5,3.2-12.8,0.1-22c-2.8-8.1-7.7-16.8-14.7-26.1c1.8-3,4.5-6.3,8.2-9.7c3.7-3.5,7.2-6.4,10.6-9c2.2-1.7,4.5-3.6,6.7-5.8
			c0.9,6.3,2.2,11.9,4,16.8c3.5,9.3,8.9,14.4,16.2,15.2c3.3,0.3,6.6-1,9.9-4c3.3-3,6.4-7.1,9.2-12.5c2.1-3.9,4-7.9,5.7-11.9
			c3,12,6.7,21.6,11.2,28.8c7,11.1,15.6,15.5,25.8,13c2.6-1,5.2-2.6,7.6-4.6c2.4-2,4.5-4.4,6.2-7.3c1.8-2.9,3.3-5.8,4.8-8.7
			c1.4-2.8,2.6-6.1,3.6-9.9c2.2,5.8,5.4,10.6,9.7,14.5c5.2,4.8,11.5,6.8,18.8,6.2c5.2-0.5,10.6-2.8,16.1-6.8
			c5.5-4,10.3-8.8,14.5-14.3c4.2-5.5,8.1-11.4,11.7-17.8c1.3-2.3,2.5-4.5,3.6-6.6c0.2,6,0.7,11.6,1.7,16.9c1.6,9.4,4,17,7.1,22.8
			c3.1,5.7,6.5,9.3,10.3,10.5c2.7,0.7,4.5-0.1,5.4-2.4c0.9-2.3,0.3-5-1.6-8.1c-4.7-13.6-6.5-29.6-5.6-48c1.5,2.8,2.8,6.6,4,11.4
			c1.2,4.8,2.2,9.2,3.2,13.3c0.9,4.1,2.1,8.1,3.4,12c1.4,3.9,3.4,7.1,6.1,9.4c2.7,2.3,6,3.5,9.9,3.5c3.4,0.1,6.7-1.7,9.8-5.3
			c3.1-3.6,5.9-8.4,8.2-14.3c2.4-5.9,4.6-12,6.8-18.2c2.1-6.2,4.4-12.5,6.8-18.8c2.4-6.3,4.7-11,6.8-14.1
			C787.4,842,787.2,841.1,786.4,840.3z M742.5,782.1c4.8-9,9.7-15.8,14.7-20.5c5-4.7,8.8-6.7,11.4-5.9c0.7,0.3,1.2,0.7,1.5,1.3
			c0.3,0.6,0.5,1.4,0.6,2.3c0,1-0.1,2.2-0.4,3.5c-0.3,1.4-0.8,2.9-1.6,4.6c-0.8,1.7-1.7,3.6-2.9,5.7c-1.2,2-2.6,4.3-4.4,6.8
			c-1.7,2.5-3.7,5.1-5.8,7.9c-6.8,8.5-15.3,17.6-25.5,27.3C733.3,802.7,737.4,791.7,742.5,782.1z M270.5,850c1-12.2,2.9-23.5,5.9-34
			c0.7-2.3,1.4-4.6,2.3-7c3.8-10.2,7.5-15.8,11-17c3.9-1.3,6.3,5,7.2,18.8c0.8,13-1.4,26-6.6,39c-5.1,13-11.6,24.7-19.4,35.2
			C269.7,873.5,269.6,861.8,270.5,850z M419.5,912.9c-2.4,5.3-5.5,10.1-9.5,14.3c-3.9,4.2-7.7,6.2-11.4,5.9
			c-3.1-0.1-5.3-2.6-6.7-7.3c0.9-3.2,2-6,3.3-8.3c1.3-2.4,2.6-4.3,3.9-5.8c1.3-1.5,3-2.8,5.3-4.2c2.2-1.3,4.1-2.3,5.5-2.9
			c1.4-0.6,3.7-1.5,6.8-2.7c3.1-1.1,5.4-2,6.8-2.7C423.2,903.1,421.9,907.6,419.5,912.9z M423.9,893.5c-1.5,0.5-3.4,1.1-5.8,1.9
			c-2.3,0.8-4.2,1.4-5.7,2c-1.4,0.5-3.2,1.2-5.2,2.1c-2.1,0.9-3.8,1.8-5.1,2.7c-1.3,0.9-2.8,2.1-4.5,3.6c-1.7,1.5-3.1,3.1-4.4,4.9
			c-1.3,1.8-2.5,3.9-3.8,6.4c-1.3,2.5-2.5,5.3-3.6,8.4c-0.7-3.9,0.4-11,3.4-21.3c3-10.3,6.8-19.5,11.4-27.6c0.1-0.1,0.1-0.2,0.1-0.3
			c7-12.2,12.8-16.1,17.2-11.8C422.1,868.5,424.1,878.3,423.9,893.5z M502.1,932.1c2.4,5.3,3.6,9.7,3.5,13.4
			c-0.1,3.6-0.8,6.4-2.2,8.2c-1.4,1.8-3.3,2.8-5.6,3c-8.4,0.7-11.8-5.5-10.3-18.6c0.9-7.5,2.8-14.3,5.6-20.4
			C497.2,923,500.3,927.9,502.1,932.1z M731.3,861.9c-2.4-0.7-4.4-1.8-6-3.3c1.9-2.1,4.5-5.2,7.9-9.4c3.4-4.2,6.2-7.4,8.4-9.6
			c2.2-2.2,4.1-3.5,5.7-3.9c1.8-0.4,3.2,0.1,4,1.6c1.6,3,1.1,7.5-1.6,13.4c-3.1,6.9-7,10.8-11.9,11.8
			C735.9,862.8,733.7,862.6,731.3,861.9z"/>
	</g>
	<path class="st1" d="M525.1,553.6c-3.2,10.9-6.1,26.1-8.8,45.6l-0.9,6.5c4.8,0.3,9.3-0.7,13.5-3c5.3-2.8,9.4-6.5,12.4-11
		c3-4.5,4.7-9,5.3-13.3c1-7-0.9-12.8-5.7-17.5C537.5,557.4,532.2,555,525.1,553.6z M707.5,541.2V533c5.5-42.9,58.4-62,101.3-69.3
		c-23.7-61.1-96.8-70.3-168.8-63c-60.2,7.3-105.9,20.1-180.7,52c-61.1,25.5-148.7,57.5-197.1-2.7c-50.2,48.4,31,170.6,89.4,198.9
		c-21.9,39.2-66.6,57.5-115,83c23.7,65.7,179.8,67.5,278.3,35.6c90.3-26.5,185.2-55.7,281.1-40.2l2.7-2.7
		C826.1,661.7,769.5,575.9,707.5,541.2z M423.9,605.1c-3.8-2.5-13.6-5.1-29.5-7.9c-1.1,7.8-1.8,17.5-2.3,29.2
		c-0.4,11.6,0.3,19.5,2.1,23.6l-31.1-4.3c4.3-9.9,8-25.4,10.9-46.6c1.7-12.6,3-26.2,3.6-40.8c0.7-14.6-0.1-26.6-2.5-35.7l71.4,9.9
		l-3.7,26.4c-9.6-5.6-22.8-10.6-39.7-14.8c-2.3,9.8-4.5,21.4-6.4,34.8c13,0.6,23.3-0.1,31-2L423.9,605.1z M473,595.6
		c-0.1,0.9-0.7,5-1.7,12.5c-1,7.5-1.7,17.1-2.1,28.8c-0.4,11.7,0.3,19.6,2.1,23.7l-31.1-4.3c4.3-9.8,7.9-25.7,11-47.7
		c1.7-12.2,2.9-25.6,3.6-40c0.7-14.4-0.1-26.2-2.5-35.4l33.8,4.7c-2.1,3.4-4.4,10.7-6.9,22.1C476.9,570.6,474.9,582.5,473,595.6z
		 M569.4,582.9c-0.8,6.1-3.7,11.7-8.4,16.9c-4.8,5.2-11.3,9.3-19.6,12.6c-2,0.8-4.1,1.5-6.2,2.1c1.1,0.7,2.1,1.5,3,2.4
		c5.2,4.6,8.7,9.8,10.4,15.6c1.7,5.8,2.9,11.7,3.5,17.8c0.4,4,1,7.8,1.7,11.7c0.8,3.8,2,7.5,3.8,10.9l-31.1-4.3
		c1.3-3.7,2.3-7.4,2.8-11.1c0.6-4.3,0.5-9.5-0.2-15.7c-0.7-6.2-2.7-12-6-17.5c-1.7-3-4.8-5.2-9.3-6.6c-0.8,7.1-1.4,15.6-1.8,25.4
		c-0.5,11.7,0.2,19.7,2.1,23.8l-31.1-4.3c4.3-9.8,7.9-25.7,11-47.7c1.7-12.2,2.9-25.6,3.6-40c0.7-14.4-0.1-26.2-2.5-35.4l33.8,5
		c9.4,1.4,17.2,4,23.3,7.8c6.7,4.1,11.4,8.9,14.2,14.3C569.2,571.6,570.2,577.2,569.4,582.9z M620.8,571c-1.1-3.8-3.1-6-5.8-6.3
		c-2.8-0.4-5.7,1.3-8.7,5.1c-3,3.8-5,9.3-6,16.4c-0.5,3.4,0.4,6.6,2.6,9.7c2.2,3.1,6.9,7.2,14,12.3c8.4,6,14.7,11.6,18.7,16.9
		c5.8,7.5,8,16.3,6.6,26.4c-0.9,6.5-3,12.1-6.4,16.9c-2.3,3.2-5,5.8-8.2,7.9c-6.8,4.4-14.9,6-24.3,4.7c-10.9-1.5-18.6-5.5-23.1-12
		c-3.2-4.5-5.3-10.5-6.5-17.9c-0.8-4.8-2.1-8.4-4-10.8l32.8-0.9c-2.1,2.7-3.6,6.6-4.3,11.8c-0.3,2-0.4,4.4-0.3,7.2
		c0.1,2.8,0.6,5.5,1.8,8c1.1,2.6,2.8,4,5.1,4.3c3.9,0.5,7.5-1.6,10.7-6.6c2.3-3.6,3.8-7.6,4.4-12.1c0.7-5,0.2-9.3-1.6-12.8
		c-1.6-3.2-3.8-6-6.6-8.5c-3-2.7-6.8-5.5-11.5-8.6c-3.1-2.1-6.2-4.3-9.2-6.7c-4.1-3.1-7.2-6.5-9.6-10.2c-3.8-6-5.1-13.1-4-21.3
		c1.2-8.4,4.3-15.3,9.5-20.6c7.4-7.7,17.2-10.7,29.4-9c14.8,2.1,24,9.1,27.6,21c0.9,3.1,1.6,6.1,2.1,9c0.7,4.8,2,8.4,3.9,10.8
		l-32.8,0.9c2.1-2.7,3.6-6.7,4.3-11.9C622.2,579.3,621.9,574.9,620.8,571z M731.3,598.9c-8.3-5-17.1-8.7-26.2-11.2
		c-2.4,10.4-4.7,23.4-6.8,39c-0.1,0.9-0.7,5.1-1.7,12.7c-1,7.5-1.7,17.1-2.2,28.8c-0.4,11.7,0.3,19.6,2.1,23.7l-31.1-4.3
		c4.3-10,8-25.8,11-47.4c1.7-12.3,2.9-25.8,3.6-40.3c0.3-5.6,0.3-10.9,0.1-15.8c-9.3,0-18.5,1.2-27.8,3.7l3.7-26.4l79.1,11
		L731.3,598.9z"/>
	<path class="st0" d="M250,638.6c19.7,1.9,34.3,8.1,33.6,14.7c-0.4,1.9-2.3,3.1-9.3,5c-13.1,3.1-22,4.2-35.9,4.6
		c-8.9,0-13.9,0-17.4-0.8c-9.6-1.5-15.4-4.2-16.6-8.1c-1.9-5.8,4.2-11.6,15.8-14.3c4.6-1.2,13.9-1.9,22-1.5
		C245,638.2,247.7,638.2,250,638.6z M277.4,671c6.9,0.4,9.6,2.7,7.7,6.2c-1.5,2.7-8.5,10.8-11.9,13.9c-6.6,5.4-15.4,9.6-24.3,11.6
		c-5.8,1.2-8.5,1.2-11.2,0c-3.1-1.2-5.4-3.5-5.8-6.2c-0.8-6.2,5.4-12.7,18.1-18.5c9.3-4.6,17.7-6.9,24.7-6.9
		C275.9,670.6,276.6,670.6,277.4,671z M287.8,621.6c6.9,12.3,7.7,13.9,6.9,15.4c-0.8,1.9-2.3,1.9-7.7,0.4
		c-18.1-5-33.6-16.6-40.9-31.3c-6.6-13.5-4.6-26.2,4.2-26.2C259.7,579.9,272.8,594.6,287.8,621.6z M315.6,644.3
		c3.8,1.9,6.2,4.6,6.9,9.3c0.8,4.6,0.4,6.6-2.3,10c-2.3,3.1-4.6,4.6-8.9,5.8c-3.9,1.2-5.8,0.8-8.5-0.4c-2.3-1.5-3.5-3.9-4.6-8.5
		c-0.8-3.1-0.8-3.9,0-6.9c0.8-3.9,3.1-7.3,6.2-9.3c1.5-1.2,3.1-1.9,5-1.9S313.3,643.2,315.6,644.3z"/>
</g>
</svg>
