<?xml version="1.0" encoding="utf-8"?>
<!-- Generator: Adobe Illustrator 22.0.0, SVG Export Plug-In . SVG Version: 6.00 Build 0)  -->
<svg version="1.1" id="Layer_1" xmlns="http://www.w3.org/2000/svg" xmlns:xlink="http://www.w3.org/1999/xlink" x="0px" y="0px"
	 viewBox="0 0 1080 1080" style="enable-background:new 0 0 1080 1080;" xml:space="preserve">
<style type="text/css">
	.st0{fill:#030405;}
	.st1{fill:#BE1E2F;}
</style>
<g>
	<g>
		<path class="st0" d="M835.1,236.3l-3.1-3.7c-17.7,12.5-33.5,27.6-44.7,43.5c-10.5-13.8-22.2-22.4-33.1-32
			c5.2-11.7,10-31.4,7.6-45.3c-1.8-10.3-8.1-17.2-17.7-15.5c-2.3,0.4-5,1.4-7.5,3c-14.5,9.7-20.2,26.3-17.6,41.4
			c1.9,11.4,7.8,22.6,14.6,31.3c0.5,0.7,1.1,1.3,1.6,2c-3,9-6.6,17.8-10.7,26.3c-8,16.4-19.2,33.2-36.7,36.2
			c-11.4,1.4-18.5-2.8-22.6-14.1c-1.1-3.2-2-7.6-2.9-12.7c-1.6-9.2-2.7-20.3-2.9-28.6c4,1.9,8.6,2.6,12.9,1.9
			c19.6-3.4,28.4-33.6,24.2-57.8c-2.2-10.9-5.8-19.8-16.1-20.2c-1.5-0.1-3,0-4.4,0.2c-9,1.5-16.9,8.6-22.9,15.6
			c-1.6,1.8-6.8,9.1-11.3,17.5c-7.8,16-10.8,36.5-7.5,55.8c0.3,1.7,0.7,3.5,1.1,5.2c-3.6,20.8-9.9,42.9-22.5,45.1l-1.7,0.1
			c-5.1-0.2-9.2-3.1-12.8-6.3c-9.1-8.8-14.8-34.4-17.8-51.7l-1.5-10.1c-5.2-33.4-6.6-72-6-107.5c10,1.1,20,0.7,29.9-1
			c21.3-3.6,41.7-13.4,57.7-28.3c10.7-10,17.3-20.4,19.7-31.2l-5.8-1.2c-2.1,9.6-8.1,19-18,28.1c-15.2,14.1-34.4,23.3-54.6,26.8
			c-9.6,1.6-19.1,2-28.8,1c0.1-9.3,0.5-12.1,0.6-21.6l1.2-23.2c0-1.1,0-2.4-0.2-3.3c-1.3-7.4-7.8-10.9-13.6-9.9
			c-4.7,0.8-8.8,4.7-9.4,11.4c-0.6,6.4-0.8,10.5-0.9,22c-0.2,6.5-0.3,13.2-0.3,19.9c-13.3-4-26.3-9.8-39-15.6l-4.6-2l0.5-11
			c0-1.1,0-2.4-0.2-3.3c-1.3-7.4-7.8-10.9-13.6-9.9c-4.7,0.8-8.8,4.7-9.4,11.4l-0.2,3.2c-17.4-6.3-39.2-12-60.6-8.3
			c-3.2,0.6-6.6,1.3-9.8,2.4c-15.5,5.1-26.9,15.2-30.5,27.5c-1.2,3.9-1.4,8.2-0.6,12.5c0.7,4,2.3,8,4.5,11.3
			c3.8,6,9.6,9.7,15.9,10.3l0.7-5.9c-4.5-0.5-8.7-3.1-11.7-7.6c-1.8-2.7-3-5.8-3.6-9c-0.6-3.4-0.4-6.8,0.5-9.9
			c3-10.4,13-19.1,26.6-23.5c3-0.9,5.9-1.6,8.9-2.1c20.9-3.6,42.5,2.2,59.5,8.5l-0.4,12.7c-0.9,36.1,0.8,77,7.2,114.7
			c2,11.5,4.5,22.8,7.4,33.6c1.4,5.3,3.1,11.3,5,17.4c-0.7,3.3-1.5,6.7-2.2,10c-3.3,14.5-8.3,30.7-20.2,41.3
			c-3.1,2.7-6.1,4.4-8.8,4.8c-3.1,0.3-6.1-1.7-8.3-3.8c-4-3.9-6.1-10.5-7.7-15.9c-1.4-5-2.6-9.6-3.4-14.4c-2.6-15-1.9-29.7,2.6-46.6
			l0-0.9c-0.7-4.3-11.9-7.8-18.4-6.9c-4.3,0.7-4.3,3.1-4.8,5.5c-0.8,2.9-0.7,2.3-0.9,4.2c-2.3-7.2-5.5-13.9-9.4-20.3
			c-4.5-7-10.5-13.4-18.9-13.8c-2.2,0-4.4,0-6.6,0.4c-25.6,4.4-42.1,39.9-36,75.9c0.6,3.4,1.4,6.7,2.4,10
			c-0.7,12.4-2.7,25.1-7.6,36.3c-3.3,7.6-8.3,13.5-13.3,14.3c-13.2,2.3-21.1-23.5-26-51.9c-4.3-25.1-6.3-52-7.3-64.1l1.8,1.6
			c30.9-32.8,37.5-79,32-110.9c-3.6-20.7-12.2-35.2-22.5-36.2c-0.6-0.1-0.6-0.4-3.2,0c-2.5,0.4-6.3,2-10.9,6.9
			c-25.3,27.9-30.9,101.4-20.2,163.6c7.2,42,21.9,79,42.9,93.2c6.1,4,10.4,4.2,14.9,3.4c9.3-2,14.9-11.8,17.2-17.4
			c3.6-8.3,5.7-17.3,6.8-26.4c6.1,12.3,19.7,31.5,34.2,29c4.3-0.9,7.2-2.2,10.8-6.5c7.1-9.2,15-42.5,17.4-65.1
			c0.2,3.3,0.6,6.9,1.3,10.7c4,23.1,16.9,52,35.7,52.7c1.9,0.1,6.4-0.7,6.4-0.7c4.5-0.8,8.2-3.1,11.8-6.1c13-11.7,18.4-29.1,22-44.6
			c0-0.2,0.1-0.4,0.1-0.7c7.3,18.8,18.1,35.8,35.1,35.1l1.9,0.1l2.7-0.3c14.4-2.5,20.1-20,23.8-34.1c1.2-4.8,2.3-9.5,3.1-14.3
			c7.2,19.5,18.4,37.9,35.9,37.1l1.9,0.1l2.7-0.3c14.2-2.4,20.1-20,23.8-34.1c0.4-1.4,0.7-2.9,1.1-4.4c0.7,1.7,1.4,3.4,2.2,5.1
			c10.8,20.8,18.5,28,43.3,26.5c1.5-0.1,2.9-0.3,4.2-0.5c19.5-3.3,32.1-20.7,41-39.1c3.7-7.7,7-15.6,9.9-23.8
			c10.5,11.5,22.6,21.6,31.2,35.1c-12.7,20.9-27.5,50.4-25.1,64.6c1.5,9,8.5,12.6,15.9,11.4l0.9-0.2c4.7-1,9.1-3.4,12.9-6.1
			c23.5-17.6,30-41.3,26.3-62.9c-1.5-9-5.1-17.9-10.6-26.4C802.8,265,817,249.4,835.1,236.3z M667.2,215.4
			c3.7-9.9,5.5-16.7,11.4-17.7c5.9-1,10.6,4.3,12.5,15.7c1.6,9.6,1,22.3-3.1,33c-4.2,11.5-10.5,16.6-16.6,17.7
			c-4.1,0.7-8.2-0.4-11.8-2.6C660.1,242.4,664.6,221.9,667.2,215.4z M318.1,126.8c7.3-0.5,15.2,9.8,18.9,31.4
			c5.8,33.7-3.9,75.6-28.6,103.6C306.5,236.6,295,130.7,318.1,126.8z M430.1,300.7l-5.8-0.5c-2.5,25.3-10.8,56-16.3,62.9
			c-1.6,2.3-4,3.8-6.3,4.2c-5.2,0.9-7.4-4.1-8.8-9.1c-1.5-5.7-3-11.9-4.1-18.4c-6.6-38.4-3.5-85.5,12.3-88.2
			c13.9-0.9,23.9,23.4,27.2,38.4l2-0.3C429.9,293.1,429.9,296.5,430.1,300.7z M558.8,240.8c1.9,11.2,4.2,22.3,7.1,32.7
			c1.3,4.2,2.5,9,4.1,14c-3.3,23-9.3,52.6-24.3,55.2l-1.5,0.1c-5.1-0.2-9.2-3.1-12.8-6.3c-9.1-8.8-14.8-34.4-17.8-51.7l-1.5-10.1
			c-6.5-42.5-6.8-89.7-5.1-134.9c0-2,0-4.1,0.3-6l2.6,1.2c13.3,6.1,27.1,12.2,41.4,16.3C551.6,180.6,553.8,211.6,558.8,240.8z
			 M732.7,212.1c-1.4-8.1,0.6-15.9,7.6-20.6c1.8-1.2,3.6-1.9,5.2-2.2c5.4-0.9,9.2,3.6,10.4,10.7c2,11.7-1.6,28.3-6.4,39.7
			C741,231.5,734.5,222.9,732.7,212.1z M780.1,331.6c-0.5,13.4-5.8,36.4-18.7,39.2l-0.5,0.1c-4.1,0.7-8-1-8.9-6.5
			c-1.9-11,11.4-38.3,22.7-57.1c2.3,5,3.9,10.7,4.7,15.7C779.9,326.5,780.3,329.6,780.1,331.6z"/>
		<g>
			<g>
				<path class="st1" d="M346.6,709.9c-12.9-3.8-25.8-7.6-38.7-11.3c-0.7-0.2-1.4-0.4-2.2-0.7c-1.8-0.7-2.2-1.4-1.7-3.3
					c0.7-3,1.5-6,2.2-9c1.1-4.5,2.2-9.1,3.4-13.6c0.5-2,1.2-2.6,3.3-2.6c2.6,0,5.2,0.7,7.7,1.2c12.3,2.4,24.6,5,36.9,7.7
					c12.7,2.8,25.4,5.7,38.1,8.4c1.1,0.2,1.3,0.5,0.9,1.7c-3.6,10.6-6.2,21.3-8,32.3c-0.1,0.8-0.1,1.4-1.2,1
					C373.7,717.7,360.2,713.8,346.6,709.9C346.7,709.8,346.6,709.9,346.6,709.9z"/>
				<path class="st1" d="M447.4,699.4c9.1,2.3,18.2,4.5,27.3,6.7c1.2,0.3,1.3,0.7,1,1.8c-3.6,10.5-6.3,21.3-8,32.3
					c-0.2,1.2-0.6,1.3-1.6,1.1c-17.5-4.4-34.9-8.7-52.4-13c-1.6-0.4-2.4-1.4-2.8-2.8c-0.7-2.7-0.7-5.4-0.3-8.1
					c1-7.3,2.9-14.3,5.7-21.1c1.8-4.2,1.9-4.2,6.2-3.1C430.8,695.3,439.1,697.4,447.4,699.4z"/>
				<path class="st1" d="M489.4,743.7c-5.8-1.4-11.7-2.9-17.5-4.3c-1-0.2-1.3-0.5-1.1-1.7c1.6-8.8,3.8-17.5,6.5-26
					c0.3-1,0.7-1.2,1.7-1c9.6,2.4,19.1,4.7,28.7,7.2c9.8,2.5,18.3,7.5,25.8,14.4c1.1,1,2.1,2.1,2.9,3.3c0.4,0.6,0.4,1.2-0.1,1.7
					c-0.3,0.4-0.6,0.8-1,1.1c-7.3,6.2-15.6,9.9-25.2,10c-1.4,0-2.7-0.2-4.1-0.6C500.5,746.5,495,745.1,489.4,743.7z M531.7,736
					c-5.8-0.8-11.5-0.4-17,1.6c-1.3,0.5-2.5,1.1-3.6,2c-1.1,0.9-1.9,1.9-2.3,3.3c-0.3,1.3,0.1,2,1.3,2.4c1.4,0.4,2.7,0.2,4.1,0
					c5.4-0.9,10.5-2.9,15.3-5.4c1.2-0.6,2.3-1.3,3.4-2.2c0.8-0.7,0.6-1.1-0.2-1.4C532.3,736.2,532,736.1,531.7,736z"/>
				<path class="st1" d="M303,699.5c1.4,0.9,2.8,1.3,4.2,1.7c15.1,4.4,30.2,8.8,45.3,13.2c11.4,3.3,22.7,6.6,34.1,9.9
					c1.1,0.3,1.3,0.8,1.2,1.9c-0.2,1.6-0.1,3.2-0.1,5c-2.9-0.9-5.8-1.7-8.6-2.6c-11.5-3.5-23-6.9-34.5-10.5
					c-12.2-3.8-24.5-7.4-36.4-12.1c-1.3-0.5-2.6-1.1-3.7-2.1C303.2,702.9,302.7,701.4,303,699.5z"/>
				<path class="st1" d="M311.2,666.7c0.9-2.1,2.3-3,4.2-3.2c2.8-0.3,5.6,0.3,8.3,0.7c15.8,2.3,31.3,5.4,47,8.5
					c9.5,1.9,19,3.7,28.5,5.5c1.7,0.3,1.7,0.3,0.9,1.8c-0.6,1.1-1.2,2.2-1.6,3.3c-0.3,0.9-0.8,1-1.6,0.8c-4.6-1.1-9.1-2-13.7-3.1
					c-16.6-3.7-33.1-7.4-49.8-10.8c-6.1-1.3-12.1-2.4-18.2-3.5C313.9,666.5,312.7,666.5,311.2,666.7z"/>
				<path class="st1" d="M401.8,706.7c1.4-5.2,2.7-10.3,4.3-15.5c0.3-1,0.7-1.2,1.6-0.9c1.1,0.4,2.2,0.6,3.3,0.8
					c0.9,0.2,1.2,0.6,1.3,1.6c0.3,3.4,0.1,6.6-1.1,9.9c-1.7,4.7-2.7,9.6-3.5,14.5c-0.5,3-2.3,5.2-3.6,7.7c-0.3,0.5-0.6,0.4-1,0.3
					c-1.2-0.3-2.5-0.7-3.7-0.9c-1-0.2-1.3-0.6-1-1.6C399.3,717.2,400.5,711.9,401.8,706.7z"/>
				<path class="st1" d="M394.6,704.5c1.7-6.5,3.5-13.6,6.4-20.3c0.6-1.4,1.3-2.8,2.1-4.1c0.5-0.8,1.1-1.2,2.1-0.8
					c0.8,0.3,2,0.2,2.3,0.8c0.4,0.6-0.6,1.5-0.9,2.2c-2.9,6.5-4.8,13.4-6.5,20.3c-2.2,8.7-4.4,17.3-5.3,26.3
					c-0.1,1.2-0.1,2.4-0.1,3.5c0,0.5-0.2,0.7-0.7,0.6c-0.9-0.2-1.7-0.4-2.6-0.6c-0.8-0.2-0.8-0.9-0.8-1.5c-0.3-2.8,0-5.6,0.4-8.4
					C391.8,716.6,393.1,710.8,394.6,704.5z"/>
				<path class="st1" d="M417.7,686.1c-1.2,0.9-2.3,1.7-3.4,2.5c-0.4,0.3-0.8,0.3-1.2,0.2c-1.5-0.4-3.1-0.8-4.6-1.1
					c-0.8-0.2-1-0.5-0.6-1.2c0.9-1.8,2.2-2.5,4.1-2c1.8,0.5,3.7,0.9,5.5,1.4C417.4,685.8,417.5,685.9,417.7,686.1z"/>
				<path class="st1" d="M405.9,732.6c-2.4-0.6-4.8-1.2-7.2-1.8c-0.8-0.2-1.5-3-1-3.7c0.2-0.3,0.5-0.2,0.7-0.1
					c1.6,0.4,3.3,0.8,4.9,1.2c0.4,0.1,0.6,0.4,0.8,0.7c0.7,1.1,1.5,2.2,2.2,3.3C406.1,732.3,406,732.5,405.9,732.6z"/>
			</g>
		</g>
		<g>
			<g>
				<path class="st0" d="M308.5,742.4c7.7,0,14.1-6.4,14.1-14.1c0-7.7-6.3-14.1-14.1-14.1s-14.1,6.3-14.1,14.1
					C294.4,736.1,300.8,742.4,308.5,742.4z"/>
				<path class="st0" d="M606.1,728.4c0,7.7,6.4,14.1,14.1,14.1c7.7,0,14.1-6.4,14.1-14.1c0-7.7-6.3-14.1-14.1-14.1
					C612.4,714.3,606.1,720.7,606.1,728.4z"/>
				<path class="st0" d="M841.3,809.7c-2.7,10.6-8.3,29.2-15.3,37.8c-4.1,5.3-9.4,8.3-14.5,8.3c-16.8-0.3-27.7-30.5-31.9-47.5
					c2.3-0.9,11.6-2.6,20.9-12.5c7.1-7.9,11.2-18.7,11.2-26.3c0-6.2-4.1-11.8-9.2-11.8c-8.2,0.2-14.8,9.8-18.6,15.7
					c-11.9,18.6-21.3,39.5-27.7,61.5c1.8-25.4,0.9-16,5.1-69.4c33.9-19.8,46.7-56.1,46.7-83.3c0-23.4-7.9-35.5-21.5-36.6
					c-23,0-46.6,54.7-46.6,128.1c0,14.2,0.9,29.1,2.8,44.3c-11.2,19.5-31.1,44.1-50.2,44.1c-5-0.3-8.6-1.5-10.7-5.4
					c-2.3-4.5-2.9-10.1-2.9-15.3c0.3-26.9,6.7-45.7,11.5-59c3-7.7,3.3-7.7,7.3-15.7c1.4-2.9,4.1-8,8.6-8
					c7.9,0.5,10.3,12.7,10.3,24.5c0,4.1-0.5,7.9-0.9,10.6l4.8,0.9c0.6-3.3,0.9-7.4,0.9-11.6c0-12.7-3.2-26.9-13.3-29
					c-0.5,0-1.4-0.3-2.9-0.3c-1.7,0-4.2,0.5-8,2c-20.9,9.4-37.8,36.4-37.8,66.2c0,1.5,0.1,3.1,0.1,4.6c-6.3,16.1-16.6,34.4-28,34.4
					c-7.1-0.5-10.6-7.6-12.2-15c-1.7-7.1-2.3-15.4-2.3-24c0-21.5,3.9-45.1,6.7-59.6v-0.6c0-3.6-6-6-11.3-6c-3.8,0-7.1,1.2-7.7,3.9
					c-2.1,12.2-3.8,27.5-3.8,42.5c0,5.8,0.2,11.6,0.8,17.2c-5.9,17.7-14.7,38.6-26.4,38.6c-16.3-1.2-18.1-28.1-18.1-51.7
					c0.6-39.8,5-72.1,13.8-114.1c11.2,6,22.2,9.4,35.4,9.4c23.7,0,48.2-12.7,54.7-28.9l-4.5-1.8c-5.1,12.9-26,25.9-50.2,25.9
					c-11.9,0-23.1-3.3-34.3-9.4c1.5-7.4,2.6-12.1,4.1-18.9c0.2-0.9,0.3-1.8,0.3-2.7c0-6.2-4.8-9.8-9.7-9.8c-3.9,0-7.9,2.4-9.2,7.9
					c-0.9,3.6-1.5,6.8-2.7,12.9c-13.3-8.9-33-23-54.4-23c-16.2,0-30.5,8.5-30.5,22.4c0,7.1,3.9,14.2,10.9,16.2l1.2-4.7
					c-4.5-1.4-7.1-6.4-7.1-11.5c0-10.7,11.9-17.5,25.9-17.5c20.1,0,38.9,13.8,53.1,23.3c-5.7,29.5-10.1,63.2-10.1,94.9
					c0,9.5,0.3,18.9,1.2,28c0.3,2.5,0.5,5.2,0.9,8c-12.9,7-24.8,15.6-34.1,24.9c-6.7-12.7-15-21.3-22.5-30.7
					c5.9-8.8,12.5-24.2,12.5-35.8c0-8.6-4.2-15.1-12.2-15.1c-2,0-4.2,0.5-6.5,1.4c-13.2,5.9-20.1,18.6-20.1,31.3
					c0,9.2,3,18.9,7.2,26.7c-0.1,0-0.2,0-0.4,0c-7.1-0.3-11.3-3.8-23-6.7c2.6-6,3.8-12.5,3.8-18.7c0-16-8.5-29.9-23.3-29.9
					c-1.1,0-2.1,0-3.3,0.2c-5.9,0.8-11,4.7-14.4,7.9c-36.7,35.1-43.2,144.5-47.6,208.8c-3.2-18.4-4.5-37.5-4.5-56.8
					c0-51.7,9.5-105.1,18.9-152.9l0.3-2.9c0-6.7-4.7-10.6-9.4-10.6c-4.1,0-8.3,2.9-9.7,9.2c-4.7,24.3-8.1,46.2-10.3,66
					c-6.4,15.5-16.2,32.1-27.1,32.1c-7.1-0.5-10.6-7.6-12.2-15c-1.7-7.1-2.3-15.4-2.3-24c0-21.5,3.9-45.1,6.7-59.6v-0.6
					c0-3.6-6-6-11.3-6c-3.8,0-7.1,1.2-7.7,3.9c-2.1,12.2-3.8,27.5-3.8,42.5c0,6.5,0.3,13.1,1,19.3c-2.3,10.7-5.8,21.8-11.8,30.9
					c-3.8,5.7-8.6,9.8-12.9,9.8c-11,0-13.9-22.1-13.9-46c0-21,2.1-43.2,3-53.2l1.2,1.5c29.8-22.4,41.6-59.1,41.6-85.9
					c0-17.4-5-30.4-13.3-32.7c-0.5-0.2-0.5-0.5-2.6-0.5c-2.1,0-5.4,0.8-9.8,4.1c-24.5,19.2-39.3,78.3-39.3,130.5
					c0,35.2,6.8,67.4,21.9,81.9c4.4,4.1,7.9,4.8,11.6,4.8c7.9-0.3,13.8-7.6,16.5-11.8c4.3-6.7,7.4-14.1,9.6-21.8
					c0.9,4,2,7.7,3.4,11.2c2.9,7.1,7.3,15.3,14.1,18.9h0.2c3,1.8,8.2,2.3,8.2,2.3l2.1,0.2c9.1,0,16.5-7.7,21.3-15.7
					c1.5-2.3,2.9-4.7,4.2-7.1c-1.4,15.8-2.1,30.2-2.1,43.4c0,42,6.4,72.4,14.2,98.4l0.9,3.6l7.3-2.1c4.7-73.5,11.6-181.3,46.7-214.8
					c3.6-3.2,7.4-6.2,12.7-6.5c4.5,0,7.3,4.4,7.3,11.8c0,7.4-2.7,17.8-9.1,29.9c-9.2,0.9-18.3,3.9-25.7,10c-6.4,5.3-8.8,11-8.8,15.9
					c0,8.8,6.8,13,13,13c1.8,0,3.8-0.3,6-0.6c7.3-1.1,13.6-5.6,21-11.8c6.4-5.6,11.2-11.8,15.4-20c12.1,2.7,16.2,6.7,24.9,7.1
					c1,0,2-0.1,3.1-0.3c7.2,11.9,16.6,22.4,22.2,35.6c-13.3,15.3-29.5,37.2-29.5,49.1c0,7.6,5.1,11.5,11.3,11.5h0.8
					c3.9-0.2,7.9-1.5,11.3-3.2c21.6-11,30.2-29.5,30.2-47.6c0-7.6-1.7-15.3-5-23c9.3-9.4,19.9-18.1,32.3-25.4
					c2.7,19.7,8.5,42.6,25.6,44.9l3.8,0.3c12.1,0,19.2-13.5,24.2-24.5c1.2-2.6,2.3-5.3,3.3-8c1,5.2,2.3,10.2,4.1,14.6
					c2.9,7.1,7.3,15.3,14.1,18.9h0.2c3,1.8,8.2,2.3,8.2,2.3l2.1,0.2c9.1,0,16.5-7.7,21.3-15.7c2.9-4.5,5.4-9.1,7.7-13.9
					c1,5.2,2.6,10.3,5,15.1c5.4,10.9,13.6,15.1,26.6,15.7c19.6,0,39-21.4,51.4-41.3c4.6,25.5,5.2,20.9,7.3,37.5l4.8-0.6l-0.2-2.7
					c0-1.7,0.2-3.3,0.5-5c5.6-28.3,16.5-55.5,31.6-78.9c3-4.7,8.6-14.1,14.5-14.7c1.5,0.2,2.3,1.2,2.3,2.4
					c-0.2,2.9-2.3,5.4-5.6,10.3c-12.1,18.4-17.5,25.9-17.5,25.9c-2.7,4.1-3.6,5.6-6.7,7.3l-0.2,2.1c5.1,19.8,16.8,51.3,36.6,51.4
					c7.4,0,14.1-4.4,18.4-10.1c7.4-9.2,13.2-28.1,16.2-39.6L841.3,809.7z M788.1,650.5c9.2,1.8,15.1,12.5,15.1,32.2
					c0,24.2-10.6,57.1-41.4,77C767.2,691.5,771,650.5,788.1,650.5z M282,650.4c6,0.6,11,10.1,11,28.3c0,28.3-13.8,61.1-37.8,80.4
					C257.2,738.2,262.7,650.4,282,650.4z M399.7,840.3c-2.7,0-5.6-3.5-5.6-7.9c0-3.5,1.8-7.7,7-11.9c5.7-4.8,12.7-7.4,19.8-8.5
					C412.1,827.3,405.4,840.3,399.7,840.3z M476,777.8c0-6.8,2.7-12.9,9.1-15.7c1.7-0.8,3.2-1.1,4.5-1.1c4.5,0,7,4.2,7,10.1
					c0,9.8-5.3,22.8-10.7,31.4C480.1,794.8,476,786.9,476,777.8z M498,881.8c-2.3,10.9-9.8,28.9-20.7,29.3h-0.5
					c-3.5,0-6.4-2-6.4-6.5c0-9.2,14.7-29.6,26.5-43.4c1.2,4.4,1.7,9.2,1.7,13.5C498.6,877.6,498.4,880.2,498,881.8z"/>
			</g>
		</g>
		<path class="st0" d="M438.7,445.4c-1.3,0.5-3.3,7.9-5.9,22.3c-0.5,2.7-1,6-1.9,9.8c-0.8,3.9-1.1,6.2-1.1,7.4
			c0,1.1,0.5,1.9,1.3,2.3c0.5,0.1,1.2,0.2,2.2,0.2h2.6c4.3-0.2,7.1-0.7,8-1.4c0.3-0.2,0.5-0.9,0.5-2.1c0-2.6-0.3-6.8-0.9-12.6
			C441.6,454.3,440,445.7,438.7,445.4z M612.7,444.3c-2.3,1.4-3.4,9.5-3.4,24.1l0.2,21.3c0,7.1-0.1,12.9-0.3,17.5
			c-0.1,3.6-0.2,7.1-0.2,10.4c0,7.7,0.4,14.7,1,21.3c0.4,3.7,0.7,8.5,0.8,14.4c0.2,6.9,1.3,10.4,3.5,10.4c2,0,4.3-2,7.2-6l5-7.6
			c9-13.4,13.4-28.9,13.4-46.3c0-15.1-3-29.3-9.2-42.6C625.7,449.9,619.6,444.3,612.7,444.3z M669,456.2v-6.7
			c4.5-35,47.6-50.6,82.6-56.6c-19.4-49.9-78.9-57.3-137.7-51.4c-49.1,6-86.4,16.4-147.4,42.4c-49.9,20.8-121.3,46.9-160.8-2.2
			C264.8,421.2,331,521,378.7,544.1c-17.9,32-54.3,46.9-93.8,67.7c19.4,53.6,146.7,55.1,227.1,29c73.7-21.6,151.1-45.4,229.3-32.8
			l2.2-2.2C765.8,554.5,719.6,484.5,669,456.2z M473,575.7c-0.3,1.9-3,2.8-8.2,2.8c-2.7,0-4.8-0.7-6-2c-1.2-1.3-2.1-4.1-2.4-8.1
			c-1.8-21.3-4-38-6.4-50.1c-1.3-6.4-2.2-11.6-2.5-15.5c-0.2-2.2-0.5-3.7-0.8-4.7c-0.5-0.9-1.4-1.4-2.8-1.5c-1.5-0.1-3-0.2-4.5-0.2
			h-3.6c-4.2,0.1-6.6,0.8-7.3,2c-0.9,1.8-2.9,13.7-6,35.8c-0.7,4.3-1.2,8.6-1.7,12.7c-1.4,11.2-2.7,18.3-4,21.2
			c-1.6,3.9-6.6,5.9-15,5.9c-3,0-4.5-1.7-4.5-5c0-3.7,1.4-14.5,4.2-32.5c0.6-3.5,1.1-7.1,1.6-10.7c5.5-38.3,10.4-63.8,14.6-76.7
			c3.4-10.2,8.4-17.3,14.9-21.4c3-1.8,6-2.7,8.9-2.7c2.3,0,4.3,0.9,6,2.6c3.2,3.3,5.9,11.2,7.9,23.8c0.9,6,2.6,18.1,4.8,36.5
			c1.2,10.3,2.9,20.6,4.9,30.8c1.6,8.6,3,17.1,4.1,25.7c1.6,12.4,2.7,20,3.5,23.1c0.5,1.9,0.8,3.6,0.8,5.2
			C473.3,573.2,473.2,574.3,473,575.7z M563.7,455.2c-0.3,12.6-0.5,19.6-0.6,21c-1.2,19.6-1.9,39.2-2,58.7l-0.1,22
			c0,3.5-2.2,5.3-6.4,5.3c-6.1,0-11.5-2.6-16.2-7.7c-10.2-11.2-17.9-26.9-23-47.4c-5.3-21.3-8.7-31.8-10.2-31.8
			c-0.6,0-0.8,2.3-0.8,6.9c0,8.4,0.1,13.7,0.2,16.1c1.1,16.5,1.9,29.5,2.3,38.8c0.1,2.4,0.3,5.5,0.8,9.5c1,9.2,1.6,15.3,1.6,18.3
			c0,2.4-0.3,4.3-0.8,5.7c-0.9,2.5-3,3.7-6.7,3.7c-2.9,0-5-0.9-6.2-2.6c-1.4-2-2.2-9.8-2.2-23.3c0-6.5-0.1-10.6-0.2-12.3
			c-0.8-16.1-1.3-32.8-1.3-50.3c0-8.1,0.4-22.6,1.1-43.2c0.1-3.4,0.5-6,0.9-7.7c0.5-1.7,1.6-2.9,3.4-3.7c1.7-0.8,3.5-1.1,5.5-1.1
			c0.8,0,2.2,0.2,4.2,0.5c1.9,0.3,3.7,1.6,5.4,4c1.2,1.8,3.1,6,5.5,12.5c7.2,19.8,12.6,36.8,16.2,50.7c3.1,12.4,6.2,22.1,9.4,29.1
			c1.3,2.9,2.4,4.4,3.2,4.4c0.8,0,1.2-2.1,1.2-6.3c0.1-12.7,0.2-23.6,0.5-32.9c0.3-8.1,0.4-14.7,0.4-20c0-6.4-0.1-12.6-0.2-18.3
			c0-1.8,0.2-3.6,0.5-5.5c0.4-1.9,2.1-3.1,5.2-3.8c0.8-0.2,1.5-0.3,2.2-0.3c4.9,0,7.4,3.3,7.4,9.9V455.2z M660.3,523
			c-0.9,7.4-4,15.6-9,24.8c-5,9.2-12.6,16.5-22.5,22.3c-8.8,5-17.8,7.6-26.9,7.6c-1.2,0-2.5-0.1-3.7-0.2c-3.8-0.6-6.1-1.5-7-2.7
			c-0.9-1.2-1.3-3.6-1.4-7.1c-0.1-2.9-0.3-6.6-0.7-11.1c-0.6-6.5-0.9-15-0.9-25.4c0-4.3,0.6-23.5,1.8-57.7
			c0.2-5.4,0.6-10.5,1.1-15.4c0.6-4.8,1-9.1,1.3-12.6c0.3-3.5,0.9-6.3,1.9-8.6c2-4.4,5.6-6.6,10.8-6.6c3.4,0,7.4,0.8,11.8,2.4
			c12.6,4.4,22.3,11.2,29.2,19.9c6.9,8.9,11.6,19.8,14.2,33c1,5.7,1.6,11.6,1.6,17.8C662,507.7,661.5,514.3,660.3,523z"/>
		<path class="st1" d="M811.5,474.5c8.9,3.1,18.6,8,23.1,11.2c11.3,8,15.5,16.9,10.9,22.3c-2.9,3.7-10.3,4.1-21.4,1.5
			c-4.1-0.7-9.5-2.9-19.1-6.7c-14.8-6.5-23.9-11.6-36.7-20.6c-6.7-5.1-8.2-7.2-7.8-9.5c2-7.4,20.6-7.7,42.6-1.2
			C805.6,472.2,808.5,473.3,811.5,474.5z M762.2,495.8c7.5,3,15.7,9.2,23.6,18.2c11.2,11.8,15,21.6,11.5,27.9
			c-1.6,2.8-5.1,4.2-8.9,4.1c-3.4,0.1-6.3-1.1-12.1-4.9c-8.7-5.9-16.5-14.4-21.2-23.1c-2.4-4.8-6.4-16.6-6.9-20.2
			c-0.6-4.6,3.4-5.9,11-3.3C760.3,494.6,761.1,494.9,762.2,495.8z M828.1,408.1c9.6,3.9,6.1,18.4-6.8,30.2
			c-14.3,12.6-36,18.4-57.8,15.9c-6.5-0.7-8.2-1.4-8.2-3.8c-0.1-2,1.3-3.3,14.2-13.6C797.5,414.2,818.1,404.1,828.1,408.1z
			 M737.1,449.9c2.1,0.8,3.4,2.3,4.6,4.3c2.5,3.4,3.5,8.2,2.6,12.7c-0.5,3.7-0.8,4.5-3,7.5c-3.3,4.5-5.5,6.5-8.7,7.2
			c-3.4,0.1-5.7-0.4-9.3-3.3c-4.1-3.1-5.9-5.8-7.1-10.1c-1.4-4.9-1-7.2,1.9-11.8c2.8-4.7,6.5-6.6,11.5-7
			C732.6,449,735.1,449,737.1,449.9z"/>
		<path class="st1" d="M279.2,534.7c18.2,0,32.2,4.3,32.1,10.3c-0.2,1.8-1.8,3-8,5.5c-11.7,4-19.8,5.9-32.5,7.6
			c-8.1,0.8-12.7,1.3-16,0.9c-9-0.5-14.6-2.5-16-5.9c-2.3-5.1,2.8-11,13.2-14.6c4.1-1.5,12.6-3.1,20-3.4
			C274.6,534.8,277.1,534.6,279.2,534.7z M307.3,561.9c6.4-0.3,9.1,1.6,7.7,4.9c-1.2,2.6-6.8,10.7-9.7,13.8
			c-5.5,5.6-13.3,10.3-21.2,12.9c-5.2,1.6-7.7,1.8-10.3,1c-2.9-0.8-5.3-2.7-5.9-5.1c-1.3-5.6,3.8-12.2,14.9-18.7
			c8.1-5.1,15.6-8,22-8.6C305.9,561.7,306.6,561.6,307.3,561.9z M312.3,515.6c7.5,10.7,8.4,12,7.8,13.5c-0.5,1.8-2,2-7,1.1
			c-17.1-2.9-32.3-12.1-40.4-24.9c-7.3-11.8-6.7-23.6,1.5-24.5C282.6,480,296,492.3,312.3,515.6z M339.9,534
			c3.7,1.4,6.1,3.7,7.2,7.9c1.1,4.2,1,6-1.2,9.4c-1.8,3-3.8,4.7-7.6,6.1c-3.4,1.4-5.2,1.2-7.8,0.4c-2.3-1.2-3.5-3.2-5-7.4
			c-1-2.8-1.1-3.5-0.6-6.4c0.3-3.6,2.1-7,4.8-9.1c1.3-1.2,2.7-2.1,4.4-2.2C335.8,532.6,337.7,533.1,339.9,534z"/>
	</g>
	<path class="st1" d="M666.8,630.6c1.2,1.6,1,3.2-0.5,5.1c-1.4,1.9-2.1,2.2-3,1.3c-0.5-0.6-0.4-1,0.3-2.2c0.5-1,0.6-1.7,0.5-1.9
		c-0.5-0.8-3.1-1.2-5.9-1c-7.7,1.1-19.2,8-20.2,12.5c-0.8,3.4,9.1,6.3,29.4,8.5c11.8,1,35.3,4,41.4,5c17.6,3.1,35.1,7.4,39.1,9.5
		c3.4,2,5.1,6.2,2.9,7.7c-1.3,0.8-3.3,0.6-5.2-1c-1.1-1-3.3-3.1-6.5-3.8c-13.5-3.3-37.9-3.3-52.6,1.1c-4.9,1.5-9.4,3.2-9.8,7.8
		c-0.3,2.4,3.7,6.3,11,5.1c2.1-0.4,2.6-0.3,3.2-1.3c0.7-1.2,2.4-1.5,3.3-0.6c1.2,5.5-9.7,8.1-15.2,6.5c-3.4-0.8-4.2-1.2-5.9-2.6
		c-7-5.8-4.1-14.8,5.9-18.9c1.8-0.7,4.9-1.5,7.1-2.1c2.2-0.6,3.9-1.1,3.7-1.1c-0.4-0.1-6.6-0.9-14.1-1.8c-28-3.8-36.4-5.9-41.3-10
		c-7.3-6.3-3.2-15.9,9.6-21.9c6.6-3.1,13.3-4.3,17.8-3.2C664.3,627.9,665.7,628.7,666.8,630.6z M712,676.8c-0.5,2.1-3.6,2.8-4.7,0.7
		c-1.1-1.9,0.6-4.2,2.9-3.6C711.7,674.3,712.4,675.4,712,676.8z M721.7,676.2c-0.3,1.1-1.6,1.9-2.5,1.7c-0.4-0.1-1-0.7-1.3-1
		c-0.3-0.5-0.4-1.2-0.3-1.4c0.2-0.6,1.5-1.7,2.2-1.5C720.8,674.2,721.8,675.6,721.7,676.2z M731.2,675.4c1.1,1,0.9,2-0.5,2.8
		c-1.1,0.6-2.6,0.3-2.9-0.9c-0.7-1.8,0.7-3,2-2.7C730.2,674.7,730.8,674.8,731.2,675.4z M739.3,678.2c-0.8,0.5-2.3,0.1-2.8-0.7
		c-0.4-1,0.3-2.4,1.7-2.3l0.6,0.2C740.1,675.7,740.6,677.4,739.3,678.2z"/>
</g>
</svg>
