<?xml version="1.0" encoding="utf-8"?>
<!-- Generator: Adobe Illustrator 22.1.0, SVG Export Plug-In . SVG Version: 6.00 Build 0)  -->
<svg version="1.1" id="Layer_1" xmlns="http://www.w3.org/2000/svg" xmlns:xlink="http://www.w3.org/1999/xlink" x="0px" y="0px"
	 viewBox="0 0 1080 1296" style="enable-background:new 0 0 1080 1296;" xml:space="preserve">
<style type="text/css">
	.st0{fill:#191112;}
</style>
<path class="st0" d="M799.4,801.4V645.5H770v-26h86.2v26h-29.4v155.9H799.4z M589.1,554.4l29.2-29.2l-29.2-29.2h-24.8l20.4,20.4
	l8.7,8.8l-29.2,29.2H589.1z M538.8,554.4l29.2-29.2l-29.2-29.2H514l20.4,20.4l8.7,8.8L514,554.4H538.8z M745.1,554.4l29.2-29.2
	l-29.2-29.2h-24.8l20.4,20.4l8.7,8.8l-29.2,29.2H745.1z M324.2,366.8l34.2,110.1H319l-29.6-102.1h-17.3v102.1h-37.4V235.4h54
	c40.2,0,62.1,21.4,62.1,61.1v17.3C350.7,339.2,341.5,357.2,324.2,366.8z M313.3,298.8c0-20.4-8.1-29.7-26.1-29.7h-15.2v71.8h15.2
	c18,0,26.1-9.3,26.1-29.7V298.8z M248.5,123.1H94.7c-16.2,0-15.6,25.1,0.6,25.1h153.8C265.3,148.2,264.7,123.1,248.5,123.1z
	 M338.1,666.9c-0.2,1.3,0.7,2.5,2,2.7c0.1,0,0.3,0,0.4,0c1.2,0,2.2-0.8,2.4-2c13.8-87.5,156.9-73.4,200.4-67
	c40.5,5.9,115.4,3.6,144.2-28.1c0.9-1,0.8-2.5-0.2-3.4c-1-0.9-2.5-0.8-3.4,0.2c-28.6,31.4-106.6,31.5-140,26.6
	C499.3,589.3,352.5,575.1,338.1,666.9z M961.4,801.4V619.5h-27.5v76.6h-32.7v-76.6h-27.5v181.8h27.5v-79.2h32.7v79.2H961.4z
	 M198,235.4h-37.4v241.5H198V235.4z M236,172.1h-81.6c-16.2,0-15.6,25.1,0.6,25.1h81.6C252.7,197.2,252.2,172.1,236,172.1z
	 M815.3,525.2l-29.2-29.2h-24.8l20.4,20.4l8.7,8.8l-29.2,29.2h24.8L815.3,525.2z M266.1,525.2l-29.2-29.2h-24.8l20.4,20.4l8.7,8.8
	l-29.2,29.2h24.8L266.1,525.2z M312.7,496.1l20.4,20.4l8.7,8.8l-29.2,29.2h24.8l29.2-29.2l-29.2-29.2H312.7z M363,496.1l20.4,20.4
	l8.7,8.8L363,554.4h24.8l29.2-29.2l-29.2-29.2H363z M186.5,554.4l29.2-29.2l-29.2-29.2h-24.8l20.4,20.4l8.7,8.8l-29.2,29.2H186.5z
	 M438.1,496.1h-24.8l20.4,20.4l8.7,8.8l-29.2,29.2h24.8l29.2-29.2L438.1,496.1z M1068.5,645v-25.5h-77.4v181.8h77.4v-25.5h-49.9v-54
	h40.3v-25.5h-40.3V645H1068.5z M201.3,960.2v-25.5h-77.4v181.8h77.4v-25.5h-49.9v-54h40.3v-25.5h-40.3v-51.4H201.3z M782,296.4
	v119.4c0,39.7-21.9,61.1-62.1,61.1h-53.6V235.4h53.6C760.1,235.4,782,256.8,782,296.4z M744.6,298.8c0-20.4-8.1-29.7-26.1-29.7
	h-14.8v173.9h14.8c18,0,26.1-9.3,26.1-29.7V298.8z M700.9,687.3c-6.3-4.7-14.9-5.2-21.3-1.4c-7,4.3-10.1,12.7-8.4,23
	c0.2,1.3,1.5,2.2,2.8,2c1.3-0.2,2.2-1.5,2-2.8c-1.4-8.3,0.9-14.9,6.1-18.1c4.7-2.9,11.1-2.4,15.9,1.1c7.3,5.4,9.4,16.1,6,29.3
	c-15.1,57.5-106.9,55.2-161.8,53.8c-7.2-0.2-13.6-0.4-19.2-0.3l-2.5,0c-58,0.1-178.6,0.2-189.7,76.3c-2.7,18.6,7.1,38.5,23.8,48.3
	c6.7,4,14,5.9,21.3,5.9c10.2,0,20.7-3.8,30.5-11.3c12.3-9.4,14.7-27.7,9.3-38.8c-3.3-6.8-9.2-11.2-15.9-11.8
	c-7.8-0.7-15.5,3.7-21.9,12.5c-0.8,1.1-0.6,2.6,0.5,3.3c1.1,0.8,2.6,0.6,3.3-0.5c5.4-7.4,11.7-11.1,17.6-10.5c5,0.5,9.5,3.9,12,9.1
	c4.5,9.3,2.3,25.1-7.9,33c-15.2,11.6-32.2,13.5-46.6,5c-15.1-8.9-23.9-26.7-21.5-43.5c10.5-72,128.3-72.1,185-72.2l2.5,0
	c5.4-0.1,11.9,0.2,19.1,0.3c56.3,1.4,150.5,3.8,166.6-57.4C714.3,700,705.1,690.4,700.9,687.3z M937.1,496.1h-24.8l20.4,20.4
	l8.7,8.8l-29.2,29.2h24.8l29.2-29.2L937.1,496.1z M916,525.2l-29.2-29.2H862l20.4,20.4l8.7,8.8L862,554.4h24.8L916,525.2z
	 M165.4,525.2l-29.2-29.2h-24.8l20.4,20.4l8.7,8.8l-29.2,29.2h24.8L165.4,525.2z M1037.7,554.4l29.2-29.2l-29.2-29.2H1013l20.4,20.4
	l8.7,8.8l-29.2,29.2H1037.7z M1016.6,525.2l-29.2-29.2h-24.8l20.4,20.4l8.7,8.8l-29.2,29.2h24.8L1016.6,525.2z M997.8,320.9
	l-31.4-85.6H927l51.8,132.1v109.4h37.4v-109l51.1-132.5h-38.8l-30,85.6H997.8z M836.5,496.1h-24.8l20.4,20.4l8.7,8.8l-29.2,29.2
	h24.8l29.2-29.2L836.5,496.1z M795,103.1h216.5c16.2,0,16.8-25.1,0.6-25.1H795.6C779.4,78,778.8,103.1,795,103.1z M361.8,1116.5
	V960.7h29.4v-26h-86.2v26h29.4v155.9H361.8z M85.4,670.2l14.8-31.7V612H71.1v29.1h9.4l-9.4,29.1H85.4z M899.1,172.1h-81.6
	c-16.2,0-16.8,25.1-0.6,25.1h81.6C914.8,197.2,915.3,172.1,899.1,172.1z M85.9,496.1H61.2l20.4,20.4l8.7,8.8l-29.2,29.2h24.8
	l29.2-29.2L85.9,496.1z M693,757.3c-43.9,35.1-88.3,36.3-135.2,37.7l-10.3,0.3c-9.3,0.3-20.5,0-33.6-0.3
	c-56.7-1.4-134.5-3.2-165.5,38c-0.8,1.1-0.6,2.6,0.5,3.4c0.4,0.3,0.9,0.5,1.4,0.5c0.7,0,1.4-0.3,1.9-1
	c29.5-39.2,105.8-37.4,161.5-36c13.1,0.3,24.5,0.6,33.8,0.3l10.3-0.3c47.8-1.3,92.9-2.6,138.1-38.7c1-0.8,1.2-2.3,0.4-3.4
	C695.6,756.7,694.1,756.5,693,757.3z M893.4,235.4l42.7,241.5H898l-8.1-54.9h-41.3l-8.1,54.9h-37.4l42.7-241.5H893.4z M885,388.9
	l-15.2-101.8h-1.1l-15.2,101.8H885z M958.8,123.1H805c-16.2,0-16.8,25.1-0.6,25.1h153.8C974.4,148.2,975,123.1,958.8,123.1z
	 M418.3,1123.7v-113h36.9c27.5,0,42.4,10,42.4,28.6v9c0,18.6-14.9,28.6-42.4,28.6h-11.3v46.8H418.3z M443.9,1061h10.4
	c12.3,0,17.8-4.4,17.8-13.9v-6.8c0-9.5-5.5-13.9-17.8-13.9h-10.4V1061z M718.2,216.6h25.9v-77.3l35.5-93.9h-26.9l-20.8,60.6h-0.5
	l-21.8-60.6h-27.4l35.9,93.7V216.6z M705.4,939.7h-13.7h-2.9h-13.7l-5.8-4.7l-5.8,4.7H650h-2.9h-13.7l-5.8-4.7l-5.8,4.7h-13.7h-2.9
	h-13.7L586,935l-5.8,4.7h-13.7h-2.9h-13.7l-5.8-4.7l-5.8,4.7H522l14-11.5l-12.6-10.4l-26.6,21.9h-16.5l34.9-28.7l-12.6-10.4
	l-47.5,39.1h-16.6l55.8-45.9l-55.8-45.9h16.6l47.5,39.1l12.6-10.4l-34.9-28.7h16.5l26.6,21.9l12.6-10.4l-14-11.5h16.5l5.8,4.7
	l5.8-4.7h13.7h2.9h13.7l5.8,4.7l5.8-4.7h13.7h2.9H622l5.8,4.7l5.8-4.7h13.7h2.9h13.7l5.8,4.7l5.8-4.7h13.7h2.9h13.7l5.8,4.7l5.8-4.7
	h13.7h2.9h13.7l5.8,4.7l5.8-4.7h13.7h2.9h13.7l5.8,4.7l5.8-4.7h13.7h2.9h13.7l5.8,4.7l5.8-4.7h13.7h2.9h13.7l5.8,4.7l5.8-4.7h13.7
	h2.9h13.7l5.8,4.7l5.8-4.7h13.7h2.9h13.7l5.8,4.7l5.8-4.7h16.5l-14,11.5l12.6,10.4l26.6-21.9h16.5l-34.9,28.7l12.6,10.4l47.5-39.1
	h16.5l-55.8,45.9l55.8,45.9h-16.5l-47.5-39.1L990.7,911l34.9,28.7H1009l-26.6-21.9l-12.6,10.4l14,11.5h-16.5l-5.8-4.7l-5.8,4.7
	h-13.7h-2.9h-13.7l-5.8-4.7l-5.8,4.7h-13.7h-2.9h-13.7l-5.8-4.7l-5.8,4.7h-13.7h-2.9h-13.7l-5.8-4.7l-5.8,4.7h-13.7h-2.9h-13.7
	l-5.8-4.7l-5.8,4.7h-13.7h-2.9h-13.7l-5.8-4.7l-5.8,4.7h-13.7h-2.9H717l-5.8-4.7L705.4,939.7z M744.6,928.2l-12.6-10.4l-12.6,10.4
	l12.6,10.4L744.6,928.2z M565.2,883.4l-12.6,10.4l12.6,10.4l12.6-10.4L565.2,883.4z M586,887l12.6-10.4L586,866.3l-12.6,10.4
	L586,887z M573.4,911l12.6,10.4l12.6-10.4L586,900.6L573.4,911z M606.9,904.2l12.6-10.4l-12.6-10.4l-12.6,10.4L606.9,904.2z
	 M627.8,887l12.6-10.4l-12.6-10.4l-12.6,10.4L627.8,887z M615.2,911l12.6,10.4l12.6-10.4l-12.6-10.4L615.2,911z M648.6,904.2
	l12.6-10.4l-12.6-10.4L636,893.8L648.6,904.2z M669.5,887l12.6-10.4l-12.6-10.4l-12.6,10.4L669.5,887z M656.9,911l12.6,10.4
	l12.6-10.4l-12.6-10.4L656.9,911z M690.3,904.2l12.6-10.4l-12.6-10.4l-12.6,10.4L690.3,904.2z M940.7,904.2l12.6-10.4l-12.6-10.4
	l-12.6,10.4L940.7,904.2z M919.8,900.6L907.2,911l12.6,10.4l12.6-10.4L919.8,900.6z M932.4,876.6l-12.6-10.4l-12.6,10.4l12.6,10.4
	L932.4,876.6z M899,883.4l-12.6,10.4l12.6,10.4l12.6-10.4L899,883.4z M878.1,900.6L865.5,911l12.6,10.4l12.6-10.4L878.1,900.6z
	 M890.7,876.6l-12.6-10.4l-12.6,10.4l12.6,10.4L890.7,876.6z M857.2,883.4l-12.6,10.4l12.6,10.4l12.6-10.4L857.2,883.4z
	 M836.4,900.6L823.8,911l12.6,10.4L849,911L836.4,900.6z M849,876.6l-12.6-10.4l-12.6,10.4l12.6,10.4L849,876.6z M815.5,883.4
	l-12.6,10.4l12.6,10.4l12.6-10.4L815.5,883.4z M794.6,900.6L782.1,911l12.6,10.4l12.6-10.4L794.6,900.6z M807.2,876.6l-12.6-10.4
	l-12.6,10.4l12.6,10.4L807.2,876.6z M773.8,883.4l-12.6,10.4l12.6,10.4l12.6-10.4L773.8,883.4z M752.9,900.6L740.3,911l12.6,10.4
	l12.6-10.4L752.9,900.6z M765.5,876.6l-12.6-10.4l-12.6,10.4l12.6,10.4L765.5,876.6z M732.1,883.4l-12.6,10.4l12.6,10.4l12.6-10.4
	L732.1,883.4z M723.8,876.6l-12.6-10.4l-12.6,10.4l12.6,10.4L723.8,876.6z M698.6,911l12.6,10.4l12.6-10.4l-12.6-10.4L698.6,911z
	 M786.4,928.2l-12.6-10.4l-12.6,10.4l12.6,10.4L786.4,928.2z M828.1,928.2l-12.6-10.4l-12.6,10.4l12.6,10.4L828.1,928.2z
	 M869.8,928.2l-12.6-10.4l-12.6,10.4l12.6,10.4L869.8,928.2z M911.5,928.2L899,917.8l-12.6,10.4l12.6,10.4L911.5,928.2z
	 M953.3,928.2l-12.6-10.4l-12.6,10.4l12.6,10.4L953.3,928.2z M974.1,911l-12.6-10.4L949,911l12.6,10.4L974.1,911z M982.4,883.4
	l-12.6,10.4l12.6,10.4l12.6-10.4L982.4,883.4z M961.5,866.3L949,876.6l12.6,10.4l12.6-10.4L961.5,866.3z M928.1,859.5l12.6,10.4
	l12.6-10.4l-12.6-10.4L928.1,859.5z M886.4,859.5l12.6,10.4l12.6-10.4L899,849.1L886.4,859.5z M844.6,859.5l12.6,10.4l12.6-10.4
	l-12.6-10.4L844.6,859.5z M802.9,859.5l12.6,10.4l12.6-10.4l-12.6-10.4L802.9,859.5z M761.2,859.5l12.6,10.4l12.6-10.4l-12.6-10.4
	L761.2,859.5z M719.5,859.5l12.6,10.4l12.6-10.4l-12.6-10.4L719.5,859.5z M677.7,859.5l12.6,10.4l12.6-10.4l-12.6-10.4L677.7,859.5z
	 M636,859.5l12.6,10.4l12.6-10.4l-12.6-10.4L636,859.5z M594.3,859.5l12.6,10.4l12.6-10.4l-12.6-10.4L594.3,859.5z M552.6,859.5
	l12.6,10.4l12.6-10.4l-12.6-10.4L552.6,859.5z M531.7,876.6l12.6,10.4l12.6-10.4l-12.6-10.4L531.7,876.6z M523.4,904.2l12.6-10.4
	l-12.6-10.4l-12.6,10.4L523.4,904.2z M544.3,921.3l12.6-10.4l-12.6-10.4L531.7,911L544.3,921.3z M577.8,928.2l-12.6-10.4l-12.6,10.4
	l12.6,10.4L577.8,928.2z M619.5,928.2l-12.6-10.4l-12.6,10.4l12.6,10.4L619.5,928.2z M661.2,928.2l-12.6-10.4L636,928.2l12.6,10.4
	L661.2,928.2z M702.9,928.2l-12.6-10.4l-12.6,10.4l12.6,10.4L702.9,928.2z M617.1,1123.7h71.8v-15.8h-46.2v-33.6h37.3v-15.8h-37.3
	v-32h46.2v-15.8h-71.8V1123.7z M949,1078h-0.5l-30.1-67.3H890v113H914v-74.9h0.5l33.5,74.9h25.1v-113H949V1078z M575.1,1072.2
	l23.4,51.5h-27l-20.2-47.8h-11.8v47.8H514v-113h36.9c27.5,0,42.4,10,42.4,28.6v8.1C593.2,1059.3,586.9,1067.7,575.1,1072.2z
	 M567.7,1040.4c0-9.5-5.5-13.9-17.8-13.9h-10.4v33.6h10.4c12.3,0,17.8-4.4,17.8-13.9V1040.4z M83.6,1143.3
	c-11.1,18.1,58.3,34.4,58.3,34.4C141.1,1176.2,94.9,1124.9,83.6,1143.3z M38.9,1191.7c-2.1,29.9,95.4,5,95.4,5
	C132.2,1195.3,41.1,1161.4,38.9,1191.7z M83.6,1246.6c11.3,18.4,57.5-32.8,58.3-34.4C142,1212.1,72.5,1228.5,83.6,1246.6z
	 M868.3,1026.5v-15.8h-71.8v113h71.8v-15.8H822v-33.6h37.3v-15.8H822v-32H868.3z M686.1,1191.9c0,1.3-1,2.3-2.2,2.4
	c-75.9,2.3-140.3,2.3-215.4,0h-2.2c-20.8-1.1-30.1-1.7-43.7,9.4c-0.6,0.5-1.4,1.3-2.2,2.4c3.7,5.5,9.1,17.2,6.2,24.2
	c-0.9,2.2-3.2,4.9-8.3,5.2c-0.4,0-0.8,0-1.2,0c-6.1,0-8.5-2.9-9.5-5.4c-2.5-6.5,2.4-17,7.1-23.9c-7-8-13.5-11-24.9-11.9l-2.4,0
	c-74.4,2.3-141.2,2.3-216.4,0c-1.3,0-2.3-1.1-2.2-2.4c0-1.3,1.1-2.3,2.4-2.2c75.2,2.3,141.9,2.3,216.2,0h2.7
	c12.3,0.9,20,4.4,27.5,12.7c0.8-1,1.6-1.8,2.2-2.3c14.9-12.2,26.2-11.6,46.7-10.4h2.2c75,2.3,139.4,2.3,215.1,0
	C685.1,1189.6,686.1,1190.7,686.1,1191.9z M417.6,1210.1c-3.7,6-7.3,14.2-5.7,18.3c0.3,0.7,1.1,2.7,6.1,2.5c3-0.2,3.9-1.5,4.3-2.4
	C424.2,1224,420.7,1215.2,417.6,1210.1z M968.6,1246.2h41.1v-13.5h-26.5V1204h21.4v-13.5h-21.4v-27.3h26.5v-13.5h-41.1V1246.2z
	 M56,1116.5H15.5V934.7H54c28.6,0,43.9,16.1,43.9,46v3.4c0,20.3-6,32.2-20.5,37.1v0.5c17.1,5.2,24.4,18.7,24.4,42.6v6.2
	C101.8,1100.4,85.7,1116.5,56,1116.5z M43.1,1009.8h8.6c13.2,0,18.7-6.8,18.7-22.1v-6c0-14.8-5.5-21.6-17.4-21.6h-9.9V1009.8z
	 M55,1091.1c13.2,0,19.2-7,19.2-22.3v-10.1c0-16.1-6-23.4-20.5-23.4H43.1v55.9H55z M932.7,1223.3h-0.3l-10.9-73.6h-14.9l16.3,96.5
	h18.9l16.3-96.5h-14.6L932.7,1223.3z M1055.6,1202.2l13.4,44h-15.4l-11.6-40.8h-6.8v40.8h-14.6v-96.5h21.1
	c15.7,0,24.3,8.5,24.3,24.4v6.9C1066,1191.2,1062.4,1198.4,1055.6,1202.2z M1051.4,1175.1c0-8.1-3.2-11.8-10.2-11.8h-5.9v28.7h5.9
	c7,0,10.2-3.7,10.2-11.9V1175.1z M989.2,1010.7v16.1h27.2v96.8h25.5v-96.8h27.2v-16.1H989.2z M858.5,1246.2h41.1v-13.5h-26.5V1204
	h21.4v-13.5h-21.4v-27.3h26.5v-13.5h-41.1V1246.2z M722.3,1177.7c0,0,65.2-15.3,54.7-32.3C766.4,1128.2,723.1,1176.2,722.3,1177.7z
	 M781.1,1099.9v-5.6c0-13.6-8.7-22.9-32-36.1c-17.1-9.7-21.4-15.3-21.4-21.9v-1.5c0-6.5,4.6-9.8,13-9.8c8.4,0,13,3.4,13,9.8v4.2
	l24.6-1.6v-2.9c0-16.1-13.7-25.3-38.1-25.3c-24.3,0-38.1,9.2-38.1,25.3v2.4c0,13.2,7.9,22.6,31.3,35.8c17.1,9.7,22.2,15.3,22.2,22.4
	v3.7c0,7.1-4.8,10.7-14.5,10.7c-9.6,0-14.5-3.5-14.5-10.7v-8.1l-24.6,1.6v7.6c0,16.1,14.2,25.3,39.5,25.3
	C766.9,1125.3,781.1,1116.1,781.1,1099.9z M722.3,1210c0.8,1.5,44.1,49.6,54.7,32.3C787.5,1225.3,722.3,1210,722.3,1210z
	 M729.4,1195.5c0,0,91.5,23.4,89.5-4.6C816.9,1162.3,731.4,1194.2,729.4,1195.5z M216.8,667.6v126.2h27.5V612h-37.1l-21.3,97.7h-0.5
	L163.8,612h-36.1v181.8h26V667.6h0.5l22.9,100.3h16.4l22.9-100.3H216.8z M625.3,216.6h-25.9V45.4h37.4c27.9,0,43,15.2,43,43.3v13.7
	c0,28.1-15.2,43.3-43,43.3h-11.5V216.6z M625.3,121.7h10.5c12.5,0,18.1-6.6,18.1-21V90.4c0-14.4-5.6-21-18.1-21h-10.5V121.7z
	 M597.3,743.6h-20.9v-96.5h20.9c15.7,0,24.3,8.5,24.3,24.4v47.7C621.5,735.1,613,743.6,597.3,743.6z M606.9,672.5
	c0-8.1-3.2-11.8-10.2-11.8h-5.8v69.4h5.8c7,0,10.2-3.7,10.2-11.9V672.5z M15.5,793.8h27.5V612H15.5V793.8z M688,489.1
	c-17.7-7.5-35.3-2.9-46.9,12.2c-9.9,12.9-8.6,29-3.2,38.6c3.6,6.2,11.3,10.3,19.2,10c8-0.2,14.7-4.8,18.5-12.5
	c0.6-1.2,0.1-2.6-1.1-3.2c-1.2-0.6-2.6-0.1-3.2,1.1c-4.1,8.3-10.8,9.7-14.4,9.8c-6,0.2-12.3-3-14.9-7.6c-4.7-8.2-5.8-22.1,2.8-33.3
	c10.4-13.5,25.5-17.4,41.3-10.7c18.5,7.8,31.1,27,28.7,43.6c-11.1,76.7-141.5,76.9-184.3,76.9c-4.8-0.1-10.3-0.1-16.3-0.2
	c-51-0.9-145.8-2.6-169.3,57c-5.6,14.1-1.1,25.6,4.8,31.7c4.1,4.1,9.1,6.3,14,6.3c1.9,0,3.7-0.3,5.5-1c4.4-1.6,11.9-6.9,13-23.5
	c0.1-1.3-0.9-2.5-2.2-2.5c-1.3-0.1-2.5,0.9-2.5,2.2c-0.6,10.3-4.1,17.2-9.9,19.3c-4.6,1.7-10.1,0.1-14.4-4.2
	c-6.4-6.5-7.8-16.4-3.8-26.6c22.2-56.5,114.9-54.8,164.7-53.9c6,0.1,11.4,0.2,16.4,0.2c43.8-0.1,177.3-0.2,189-81
	C722.3,519.2,708.4,497.8,688,489.1z M537.9,743.6h-20.9v-96.5h20.9c15.7,0,24.3,8.5,24.3,24.4v47.7
	C562.1,735.1,553.6,743.6,537.9,743.6z M537.3,730.1c7,0,10.2-3.7,10.2-11.9v-45.7c0-8.1-3.2-11.8-10.2-11.8h-5.8v69.4H537.3z
	 M258.1,1119.1c27.3,0,42.6-14.8,42.6-40.8v-9.1c0-21.8-9.4-36.9-34.5-58.2c-18.4-15.6-23.1-24.7-23.1-35.3v-2.3
	c0-10.4,4.9-15.8,14-15.8c9.1,0,14,5.5,14,15.8v6.8l26.5-2.6v-4.7c0-26-14.8-40.8-41-40.8s-41,14.8-41,40.8v3.9
	c0,21.3,8.6,36.4,33.8,57.7c18.4,15.6,23.9,24.7,23.9,36.1v6c0,11.4-5.2,17.1-15.6,17.1s-15.6-5.7-15.6-17.1v-13l-26.5,2.6v12.2
	C215.5,1104.3,230.9,1119.1,258.1,1119.1z M287.2,496.1h-24.8l20.4,20.4l8.7,8.8l-29.2,29.2h24.8l29.2-29.2L287.2,496.1z
	 M472.3,721.7l-3.2,21.9h-14.6l16.7-96.5h18.6l16.7,96.5h-14.9l-3.2-21.9H472.3z M474.2,708.5h12.3l-5.9-40.6h-0.4L474.2,708.5z
	 M422,743.6h-20.9v-96.5H422c15.7,0,24.3,8.5,24.3,24.4v47.7C446.3,735.1,437.7,743.6,422,743.6z M431.7,672.5
	c0-8.1-3.2-11.8-10.2-11.8h-5.8v69.4h5.8c7,0,10.2-3.7,10.2-11.9V672.5z M659.7,743.6v-43.5l20-52.9h-15.2l-11.7,34.2h-0.3
	l-12.3-34.2h-15.4l20.3,52.8v43.7H659.7z M313.8,142h30.8v74.6h25.9V45.4h-25.9v72.1h-30.8V45.4h-25.9v171.2h25.9V142z M42,103.1
	h216.5c16.2,0,15.6-25.1-0.6-25.1H41.4C25.2,78,25.8,103.1,42,103.1z M544.3,235.4h-37.4v241.5h37.4V371.7h44.4v105.2h37.4V235.4
	h-37.4v101.8h-44.4V235.4z M35.6,554.4l29.2-29.2l-29.2-29.2H10.8l20.4,20.4l8.7,8.8l-29.2,29.2H35.6z M68.6,476.9h-55V235.4h52.2
	c38.8,0,59.6,21.4,59.6,61.1v4.5c0,26.9-8.1,42.8-27.9,49.3v0.7c23.3,6.9,33.2,24.8,33.2,56.6v8.3
	C130.6,455.5,108.8,476.9,68.6,476.9z M50.9,335.1h11.6c18,0,25.4-9,25.4-29.3v-7.9c0-19.7-7.4-28.6-23.6-28.6H50.9V335.1z
	 M67.2,443.1c18,0,26.1-9.3,26.1-29.7v-13.5c0-21.4-8.1-31.1-27.9-31.1H50.9v74.2H67.2z M415,216.6h-25.9l29.6-171.2h33l29.6,171.2
	h-26.4l-5.6-38.9h-28.6L415,216.6z M424.1,154.2h21.8l-10.5-72.1h-0.7L424.1,154.2z M525.8,216.6h-25.9V45.4h37.4
	c27.9,0,43,15.2,43,43.3v13.7c0,28.1-15.2,43.3-43,43.3h-11.5V216.6z M525.8,121.7h10.5c12.5,0,18.1-6.6,18.1-21V90.4
	c0-14.4-5.6-21-18.1-21h-10.5V121.7z M484.1,516.5l8.7,8.8l-29.2,29.2h24.8l29.2-29.2l-29.2-29.2h-24.8L484.1,516.5z M366.2,269.9
	h39.9v207h37.4v-207h39.9v-34.5H366.2V269.9z"/>
</svg>
