<?xml version="1.0" encoding="utf-8"?>
<!-- Generator: Adobe Illustrator 22.1.0, SVG Export Plug-In . SVG Version: 6.00 Build 0)  -->
<svg version="1.1" id="Layer_1" xmlns="http://www.w3.org/2000/svg" xmlns:xlink="http://www.w3.org/1999/xlink" x="0px" y="0px"
	 viewBox="0 0 1080 1296" style="enable-background:new 0 0 1080 1296;" xml:space="preserve">
<style type="text/css">
	.st0{fill:#110E10;}
</style>
<g>
	<path class="st0" d="M979.5,872.6c-0.6,0.6-0.5,1.6,0.1,2.2c0.6,0.6,1.6,0.5,2.2-0.1c0.4-0.4,0.5-0.9,0.4-1.4
		c0.5,0.1,1.2-0.1,1.9,0c0.1-0.6,0.1-1.3,0-1.9c0.4,0,0.9-0.2,1.2-0.5c0.6-0.6,0.5-1.6-0.1-2.2c-0.6-0.6-1.6-0.5-2.2,0.1
		c-0.2,0.3-0.4,0.6-0.4,0.9c-0.6,0.1-1.1,0.1-1.8-0.1c-0.7-0.2-1,0.2-0.7,0.9c0.2,0.6,0.3,1.1,0.3,1.6
		C980.1,872.2,979.8,872.4,979.5,872.6z"/>
	<path class="st0" d="M1002.5,844.6c0.2,0.1,0.4,0.2,0.6,0.4c2.8-1.5,6.9-1.6,10.8,0.1c3.9,1.7,6.6,4.8,7.4,8
		c0.2,0.1,0.5,0.1,0.7,0.2c1.4-4.1-1.4-9.1-6.6-11.5C1010.2,839.6,1004.5,840.8,1002.5,844.6z"/>
	<path class="st0" d="M1002,845.8C1002,845.8,1002,845.8,1002,845.8C1002,845.8,1002,845.8,1002,845.8
		C1002,845.8,1002,845.8,1002,845.8z"/>
	<path class="st0" d="M1019.1,917.8c3-3.9,1.9-9.5-1.6-12.1c-2.7-2-7.2-3.2-10.8-1.8c-2.1,0.8-3.8,2-5.2,3.5c-1.9-0.8-4-1.2-6.2-1.1
		c-3.9,0.2-7.5,3.1-9.1,6.1c-2.1,3.8-0.9,9.4,3.4,11.7c1.4,0.8,3.1,0.9,4.6,0.4c0-0.2-0.1-0.3-0.1-0.5c-0.1-0.2-0.1-0.5-0.1-0.7
		c-1.2,0.6-2.7,0.9-4.4,0c-2.7-1.5-3.3-4-3.2-5.1c0-0.5,0.4-0.6,0.4-0.1c0,0.6,0.5,1.8,1.2,2.2c0.8,0.4,1.6,0.1,1.8-0.4
		c0.3-0.5,0.3-1.3-0.2-1.6c-0.5-0.3-0.8,0.1-0.5,0.5c0.3,0.4,0.4,0.6,0.3,0.9c-0.2,0.3-0.8,0.4-1.2,0.2c-0.5-0.3-0.9-1.1-0.3-2.1
		c0.6-1.1,0.7-2.5-0.1-2.8c-0.8-0.3-1-0.1-1.1,0.2c-0.2,0.2-0.5,0-0.3-0.6c0.8-3,4.1-7,9.3-7.4c1.8-0.1,3.6,0.2,5.4,0.9
		c-2.2,2.5-3.6,5.5-4.2,8.3c0,0,0,0-0.1,0c-1.5-0.9-3.2-0.4-3.9,0.8c-0.7,1.2-0.4,2.7,0.7,3.3c1.1,0.6,2,0.5,2.4-0.1
		c0.4-0.6,0.9,0,0.3,1.1c-0.3,0.5-1,1.3-2,1.9c0.3,0.3,0.6,0.7,1,1c1.2-0.5,2.2-1.2,2.7-2.3c1.2-2.2,0.6-4.2-0.5-5.3
		c0.1,0.1,0.2,0.1,0.3,0.2c0.6-2.8,2.1-6,4.3-8.5c3,1.4,5.6,3.7,7.3,6c0.1-0.1,0.1-0.2,0.2-0.3c-0.6,1.4-0.3,3.6,1.7,5.1
		c0.9,0.7,2.2,1,3.4,0.9c0.2-0.4,0.4-0.8,0.5-1.3c-1.2-0.1-2.2-0.6-2.6-0.9c-1-0.7-0.8-1.5-0.2-1.1c0.6,0.4,1.5,0.1,2.2-0.9
		c0.8-1,0.4-2.5-0.7-3.3c-1.1-0.8-2.8-0.6-3.9,0.8c0,0,0,0,0,0.1c-1.7-2.2-4.2-4.4-7.2-5.8c1.3-1.4,2.9-2.5,4.6-3
		c4.9-1.7,9.6,0.6,11.5,3c0.4,0.5,0.2,0.8,0,0.7c-0.2-0.2-0.5-0.3-1.1,0.3c-0.6,0.6,0.1,1.8,1,2.6c0.9,0.7,0.9,1.7,0.6,2.1
		c-0.3,0.4-0.9,0.6-1.2,0.4c-0.3-0.2-0.2-0.5-0.1-1c0.1-0.5-0.3-0.6-0.6-0.2c-0.3,0.4,0,1.2,0.5,1.5c0.4,0.3,1.3,0.3,1.8-0.4
		c0.5-0.7,0.4-1.9,0.2-2.5c-0.2-0.5,0.2-0.6,0.4-0.1c0.5,0.9,1,3.5-0.9,5.9c-1.2,1.6-2.7,1.9-4,1.8c0.1,0.2,0.1,0.4,0.2,0.7
		c0,0.2,0.1,0.3,0.1,0.5C1016.6,919.8,1018.2,919,1019.1,917.8z M997.2,921c-0.2,0.3-0.3,0.4-0.6,0.6c-0.1,0-0.2,0-0.1-0.2
		c1.4-1.4,0.4-4.1-1.2-3.8c-0.3,0-1.2,0.4-1,0.6c0.2,0,0.4,0.1,0.4,0.5c0,0.5-1,0.7-1.1,0c-0.1-0.6,0.3-1.2,1.2-1.4
		C997.2,916.8,998,919.6,997.2,921z M1011.6,913.8c0.9-0.2,1.6,0.2,1.7,0.8c0.2,0.6-0.8,0.8-1,0.4c-0.2-0.3-0.1-0.5,0.1-0.6
		c0.1-0.2-0.8-0.3-1.1-0.1c-1.6,0.4-1.4,3.3,0.4,4c0.1,0.1,0,0.2-0.1,0.2c-0.3-0.1-0.5-0.2-0.8-0.3
		C1009.5,917.1,1009.1,914.2,1011.6,913.8z"/>
	<path class="st0" d="M1007.2,866.7c-0.3-0.2-0.7-0.2-1-0.1c-0.3-0.5-0.4-1.1-0.5-1.7c0-0.7-0.5-0.9-1.1-0.4c-0.5,0.4-1,0.6-1.4,0.7
		c-0.2-0.3-0.4-0.5-0.7-0.7c-0.8-0.3-1.7,0-2,0.8c-0.3,0.8,0,1.7,0.8,2c0.5,0.2,1,0.2,1.5-0.1c0,0.5,0.4,1.2,0.6,1.8
		c0.6-0.1,1.3-0.3,1.8-0.6c0.1,0.4,0.4,0.8,0.9,1c0.8,0.3,1.7,0,2-0.8C1008.3,868,1008,867.1,1007.2,866.7z"/>
	<path class="st0" d="M985.1,843.5c-1.3,0.1-1.5,2.2-0.3,2.6c1,0.3,2.7,0.2,3.4,0.1l4.2,23c0.3-0.1,0.5-0.2,0.8-0.3l-4.2-22.9
		c0.7-0.2,2.3-0.7,3.1-1.3c0.9-0.7,0-2.6-1.2-2.3c-0.8,0.2-1.5,1.3-1.9,2.2c0.2-1,0.3-2.2-0.2-3c-0.8-1.2-2.6-0.4-2.2,0.9
		c0.2,0.8,0.8,1.9,1.3,2.6C987.2,844.4,986,843.4,985.1,843.5z"/>
	<path class="st0" d="M998.3,904.9c0.4-0.1,0.6-0.3,0.9-0.5c0.5,0.2,1,0.6,1.4,1.1c0.4,0.6,0.9,0.4,1.1-0.3c0.2-0.6,0.4-1.1,0.7-1.4
		c0.3,0.1,0.6,0.2,1,0.1c0.8-0.2,1.4-1,1.2-1.8c-0.2-0.8-1-1.4-1.8-1.2c-0.5,0.1-0.9,0.5-1.1,0.9c-0.3-0.4-1-0.7-1.5-1.1
		c-0.4,0.4-0.9,1-1.1,1.5c-0.4-0.3-0.8-0.4-1.3-0.3c-0.8,0.2-1.4,1-1.2,1.8C996.6,904.6,997.4,905.1,998.3,904.9z"/>
	<path class="st0" d="M958.7,893.9C958.7,893.9,958.7,893.9,958.7,893.9C958.7,893.9,958.7,893.9,958.7,893.9
		C958.7,893.9,958.7,893.9,958.7,893.9z"/>
	<path class="st0" d="M1021.6,503.5c4.4,2.8,8.9,5.7,13.5,8.7c-0.1-0.3-0.1-0.5-0.2-0.8c-0.1-0.6,0-1.2,0.3-1.7
		c0.3-0.5,0.9-0.8,1.4-1c0.3-0.1,0.7-0.1,1-0.2c-4.2-2.7-8.3-5.3-12.3-7.9c-1.4,0.3-2.8,0.5-4.3,0.8
		C1021.3,502.1,1021.4,502.8,1021.6,503.5z"/>
	<polygon class="st0" points="1014,823.7 1019.5,821.7 1018.2,826.9 1019.8,826.9 1021.3,821.1 1029,818.3 1027.4,826.3 
		1021.7,828.6 1022,830.2 1026.9,828.1 1025.8,833.9 1027.7,834.2 1028.7,828.5 1032.5,832.2 1033.4,830.8 1029,826.7 1030.5,818.6 
		1036.6,824 1035.8,830 1037.3,830.6 1038,825.3 1042.3,829.1 1043.6,827.7 1039.1,823.9 1044.3,822.5 1043.5,821.1 1037.7,822.7 
		1031.5,817.5 1039.3,814.9 1044,818.6 1045.3,817.5 1041,814.3 1046.5,812.5 1045.9,810.6 1040.4,812.6 1041.8,807.4 1040.2,807.4 
		1038.7,813.3 1031,816 1032.6,808 1038.2,805.7 1038,804.1 1033,806.2 1034.2,800.5 1032.3,800.1 1031.3,805.8 1027.5,802.1 
		1026.6,803.5 1030.9,807.7 1029.5,815.7 1023.3,810.3 1024.2,804.3 1022.7,803.8 1022,809.1 1017.6,805.2 1016.4,806.6 
		1020.8,810.4 1015.7,811.8 1016.4,813.3 1022.2,811.6 1028.5,816.9 1020.7,819.4 1016,815.8 1014.7,816.8 1018.9,820 1013.5,821.9 
			"/>
	<path class="st0" d="M1032.7,898.9C1032.7,898.9,1032.7,898.9,1032.7,898.9C1032.7,898.9,1032.7,898.9,1032.7,898.9
		C1032.7,898.9,1032.7,898.9,1032.7,898.9z"/>
	<path class="st0" d="M975.8,851.4C975.8,851.4,975.8,851.4,975.8,851.4C975.8,851.4,975.8,851.4,975.8,851.4
		C975.8,851.4,975.8,851.4,975.8,851.4z"/>
	<path class="st0" d="M1034.9,877.6C1034.9,877.6,1034.9,877.7,1034.9,877.6C1034.9,877.7,1034.9,877.6,1034.9,877.6
		C1034.9,877.6,1034.9,877.6,1034.9,877.6z"/>
	<path class="st0" d="M1040.5,515.6c5.7,3.7,11.5,7.6,17.6,11.9c0.4,0.3,0.8,0.4,1.3,0.4c0.7,0,1.4-0.3,1.8-1c0.7-1,0.4-2.4-0.6-3.1
		c-6.1-4.2-11.9-8.1-17.5-11.8c-1.1,0.2-2.2,0.4-3.3,0.6C1040.1,513.6,1040.3,514.6,1040.5,515.6z"/>
	<path class="st0" d="M1066,507.1c0.1,0,0.2,0,0.3,0l0-0.1c2.4-0.8,2.4-1.4,2.3-2.3c-0.1-1.5-2-2.4-3.3-1.8
		c-2.5,0.6-17.6,3.6-27.6,5.6c1.8,1.2,3.6,2.3,5.4,3.5C1056.6,509.4,1063,508.1,1066,507.1z"/>
	<path class="st0" d="M1030.2,484.7c0.1,0,0.2,0,0.3,0l0-0.1c2.4-0.8,2.4-1.4,2.3-2.3c-0.1-1.5-2-2.4-3.3-1.8
		c-2.5,0.6-17,3.5-26.9,5.5c1.8,1.2,3.6,2.4,5.4,3.5C1021,486.9,1027.2,485.6,1030.2,484.7z"/>
	<path class="st0" d="M1016.3,500.1C1016.3,500.1,1016.3,500.1,1016.3,500.1c6.4,30.2,7.6,30.2,9.7,30.2c1.2,0,2.2-1,2.2-2.2
		c0-0.7-0.3-1.3-0.8-1.7c-1-2.1-3.6-12.5-5.8-22.9c-1.3-0.8-2.6-1.7-3.9-2.5C1017.2,500.7,1016.8,500.4,1016.3,500.1z"/>
	<path class="st0" d="M1021.5,854.5c1.3,0.2,2.7,0.8,3.5,2.6c1.3,2.8,0.3,5.2-0.4,6c-0.3,0.4-0.7,0.3-0.4-0.2
		c0.3-0.5,0.7-1.7,0.3-2.5c-0.4-0.8-1.2-1-1.7-0.8c-0.5,0.2-1,0.9-0.8,1.4c0.2,0.5,0.7,0.4,0.7-0.1c0-0.5,0-0.8,0.3-0.9
		c0.3-0.2,0.9,0.1,1.1,0.6c0.2,0.5,0.1,1.4-1,1.9c-1.1,0.5-2,1.6-1.5,2.3c0.5,0.7,0.8,0.6,1,0.5c0.3-0.1,0.4,0.3-0.1,0.7
		c-2.4,2-7.4,3.3-11.9,0.6c-1.5-0.9-2.8-2.3-3.8-3.9c3.2-0.7,6.2-2.4,8.3-4.2c0,0,0,0.1,0,0.1c0.7,1.6,2.4,2.2,3.6,1.6
		c1.2-0.6,1.9-1.9,1.4-3.1c-0.5-1.1-1.3-1.6-2-1.3c-0.6,0.3-0.7-0.5,0.5-1.1C1019.2,854.6,1020.3,854.3,1021.5,854.5
		c0-0.4-0.1-0.9-0.2-1.3c-1.2-0.3-2.5-0.3-3.6,0.2c-2.3,1.1-3,3.1-2.7,4.6c-0.1-0.1-0.1-0.2-0.1-0.4c-2.1,1.9-5.2,3.6-8.4,4.3
		c-1.6-2.9-2.4-6.3-2.4-9.2c-0.1,0.1-0.2,0.1-0.4,0.1c1.4-0.8,2.3-2.7,1.6-5.1c-0.3-1.1-1.2-2.1-2.2-2.8c-0.4,0.2-0.8,0.5-1.1,0.8
		c0.9,0.8,1.4,1.7,1.6,2.3c0.4,1.2-0.2,1.7-0.5,1c-0.2-0.7-1.1-1-2.3-0.6c-1.2,0.4-1.7,1.8-1.3,3.1c0.4,1.3,1.9,2.1,3.6,1.6
		c0,0,0.1,0,0.1,0c0.1,2.8,0.8,6,2.4,8.9c-1.9,0.3-3.8,0.3-5.5-0.2c-5-1.5-7.4-6.1-7.5-9.2c0-0.6,0.3-0.8,0.4-0.5
		c0.1,0.3,0.3,0.5,1.1,0.4c0.8-0.1,1-1.5,0.7-2.7c-0.3-1.2,0.3-1.9,0.8-2c0.5-0.2,1.1,0.1,1.2,0.4c0.1,0.4-0.1,0.5-0.5,0.9
		c-0.4,0.3-0.1,0.7,0.4,0.6c0.5-0.2,0.7-1,0.5-1.5c-0.2-0.5-0.9-1-1.7-0.8c-0.8,0.3-1.5,1.3-1.6,1.9c-0.2,0.6-0.5,0.4-0.4-0.1
		c0.1-1,1.3-3.4,4.2-4.3c1.9-0.6,3.3,0,4.3,0.9c0.1-0.2,0.2-0.4,0.2-0.7c0.1-0.2,0.2-0.3,0.2-0.5c-1.4-0.7-3.1-1-4.6-0.5
		c-4.7,1.4-7.1,6.6-5.8,10.8c1,3.2,3.9,6.8,7.7,7.8c2.1,0.6,4.3,0.6,6.3,0.2c1.1,1.8,2.6,3.3,4.4,4.5c3.3,2.1,7.9,1.9,11,0.5
		c4-1.9,6.2-7.1,4.1-11.5c-0.7-1.4-2-2.5-3.5-3.1c-0.1,0.2-0.1,0.3-0.2,0.5C1021.7,854.1,1021.6,854.3,1021.5,854.5z M1017.5,854.3
		c0.3-0.1,0.5-0.1,0.8-0.2c0.1,0.1,0.1,0.2,0,0.3c-2,0.3-2.7,3-1.2,3.8c0.3,0.2,1.2,0.4,1.1,0.1c-0.2-0.1-0.2-0.3,0-0.6
		c0.3-0.4,1.2,0,0.9,0.6c-0.2,0.5-1,0.8-1.8,0.4C1015,857.8,1015.9,855,1017.5,854.3z M1001.6,851.7c-0.8-0.4-1.1-1.1-0.9-1.6
		c0.2-0.6,1.1-0.2,1.1,0.3c-0.1,0.4-0.3,0.5-0.5,0.4c-0.2,0.1,0.5,0.7,0.8,0.8c1.6,0.6,3.1-1.8,2-3.4c0-0.2,0.1-0.2,0.2-0.2
		c0.2,0.3,0.3,0.4,0.4,0.7C1005.3,850.3,1003.9,852.8,1001.6,851.7z"/>
	<path class="st0" d="M980.1,890.9c-0.4-0.7-1.4-1-2.1-0.6c-0.7,0.4-1,1.4-0.5,2.1c0.2,0.3,0.4,0.5,0.8,0.7
		c-0.1,0.6-0.3,1.1-0.6,1.7c-0.4,0.6-0.1,1,0.7,0.9c0.6,0,1.1,0.1,1.6,0.2c0,0.3,0,0.7,0.2,1c0.4,0.7,1.4,1,2.1,0.6
		c0.7-0.4,1-1.4,0.5-2.1c-0.3-0.5-0.7-0.7-1.2-0.8c0.3-0.5,0.3-1.2,0.5-1.8c-0.5-0.2-1.2-0.5-1.8-0.6
		C980.4,891.8,980.4,891.3,980.1,890.9z"/>
	<path class="st0" d="M1044.6,541.5c1.2,0,2.2-1,2.2-2.2c0-0.7-0.3-1.3-0.8-1.7c-1-2-3.4-11.9-5.6-22c-1.8-1.2-3.6-2.3-5.3-3.5
		C1041.4,541.5,1042.6,541.5,1044.6,541.5z"/>
	<path class="st0" d="M1008.8,519.1c1.2,0,2.2-1,2.2-2.2c0-0.7-0.3-1.3-0.8-1.7c-1-2.1-3.5-12.3-5.8-22.6c-1.8-1.1-3.5-2.3-5.3-3.4
		C1005.5,519.1,1006.7,519.1,1008.8,519.1z"/>
	<path class="st0" d="M831.3,398.4v-2.6c-11.4,0-21.7-7.6-20.7-19.9c1-12.8,13.2-19.4,24.9-19.6h2.6c29.4-0.1,27.1,60,0,53.7v2.6
		c30.1-7.1,31.1,65.2-3.9,63.3h-1.3l-1.2-0.1c-19.1-1-36.8-20.3-25.2-39.3l-2.3-1.3c-12.7,20.7,7.6,45,29.9,43.2
		c17.8-0.7,34.8-8.1,40.3-26.6c5.9-19.9-6.9-37.6-26.9-40.4c14.8-2.3,27.8-13.5,27.2-29.5c-0.7-15.8-13.8-25.5-28.6-27.1
		c-13-1.4-27.5-1.4-35.1,11.4C801.5,382,814.5,398.4,831.3,398.4z"/>
	<path class="st0" d="M981.1,917.8l0.2,0.1c-0.5-0.2-2.3-0.9-3.4-0.9c-1.2,0-1.5,2-0.3,2.5c0.8,0.3,1.9-0.2,2.8-0.7
		c-0.8,0.7-1.5,1.6-1.6,2.5c-0.1,1.3,1.8,1.8,2.3,0.6c0.3-0.8,0.4-2,0.5-2.9c0.1,1.1,0.4,2.5,1.2,3c1.1,0.6,2.4-0.9,1.7-1.8
		c-0.8-1-2.8-2.1-2.9-2.1c0,0,0,0,0,0l0.3,0.1l10.4-21.8c-0.3-0.1-0.5-0.2-0.8-0.3L981.1,917.8z M981.3,918.1c0,0,0.1-0.1,0.1-0.1
		l0,0C981.4,918,981.4,918.1,981.3,918.1z"/>
	<path class="st0" d="M1032.7,898.9c0.2,1.3,0,2.8-1.4,4.2c-2.2,2.1-4.8,1.9-5.8,1.5c-0.5-0.2-0.5-0.6,0.1-0.4
		c0.6,0.1,1.8,0.1,2.5-0.5c0.6-0.6,0.6-1.5,0.2-1.9c-0.4-0.4-1.2-0.7-1.6-0.3c-0.4,0.4-0.1,0.8,0.3,0.6s0.7-0.2,0.9,0
		c0.3,0.3,0.2,0.9-0.2,1.2c-0.4,0.4-1.3,0.5-2.1-0.3c-0.8-0.9-2.2-1.4-2.7-0.8c-0.5,0.7-0.4,0.9-0.2,1.1c0.2,0.2-0.1,0.4-0.7,0.1
		c-2.6-1.7-5.4-6.1-4.2-11.1c0.4-1.8,1.3-3.4,2.6-4.8c1.7,2.9,4.2,5.1,6.5,6.6c0,0-0.1,0-0.1,0.1c-1.3,1.2-1.4,2.9-0.4,3.9
		c1,1,2.4,1.2,3.3,0.4c0.9-0.9,1.1-1.8,0.6-2.3c-0.5-0.5,0.3-0.8,1.2,0.1C1031.9,896.8,1032.5,897.7,1032.7,898.9
		c0.4-0.2,0.8-0.4,1.2-0.6c-0.1-1.3-0.5-2.5-1.3-3.3c-1.7-1.8-3.8-1.9-5.2-1.1c0.1-0.1,0.2-0.2,0.3-0.3c-2.5-1.5-5-3.9-6.7-6.7
		c2.2-2.4,5.2-4.2,8-5.1c-0.1-0.1-0.2-0.2-0.2-0.3c1.2,1,3.3,1.4,5.3,0c1-0.7,1.6-1.8,2-3c-0.3-0.3-0.7-0.6-1.1-0.8
		c-0.5,1.1-1.2,1.9-1.7,2.2c-1,0.7-1.7,0.3-1.2-0.1c0.6-0.4,0.6-1.4-0.1-2.4c-0.7-1-2.2-1.1-3.3-0.3c-1.1,0.8-1.4,2.5-0.4,3.9
		c0,0,0,0,0.1,0.1c-2.6,0.9-5.5,2.6-7.8,5c-0.9-1.7-1.5-3.5-1.5-5.3c-0.1-5.2,3.5-8.9,6.4-10c0.6-0.2,0.8,0.1,0.6,0.2
		c-0.2,0.2-0.4,0.4-0.1,1.2c0.4,0.8,1.8,0.5,2.8-0.2c1-0.7,1.9-0.3,2.2,0.1c0.3,0.4,0.3,1,0,1.3c-0.3,0.2-0.5,0.1-0.9-0.2
		c-0.4-0.3-0.7,0.1-0.4,0.5c0.3,0.4,1.1,0.4,1.6,0c0.5-0.3,0.7-1.2,0.2-1.9c-0.5-0.7-1.7-1-2.3-1c-0.6,0-0.5-0.3,0-0.4
		c1-0.2,3.6,0.2,5.4,2.7c1.1,1.6,1,3.2,0.5,4.4c0.2,0,0.5,0,0.7,0c0.2,0,0.3,0.1,0.5,0.1c0.3-1.6,0-3.3-0.9-4.5
		c-2.8-4-8.4-4.7-12-2.2c-2.8,1.9-5.3,5.8-5.1,9.7c0.1,2.2,0.8,4.2,1.7,6.1c-1.3,1.6-2.4,3.5-3,5.6c-1,3.8,0.6,8.1,3,10.6
		c3,3.2,8.6,3.7,12.2,0.4c1.1-1.1,1.8-2.7,1.8-4.3c-0.2,0-0.3,0-0.5,0C1033.2,899,1032.9,899,1032.7,898.9z M1031.6,895.1
		c0.2,0.3,0.3,0.4,0.4,0.7c-0.1,0.1-0.1,0.1-0.2,0.1c-0.9-1.8-3.7-1.7-4,0c-0.1,0.3,0,1.2,0.2,1.1c0.1-0.2,0.2-0.3,0.6-0.2
		c0.4,0.2,0.3,1.1-0.3,1.1c-0.6,0-1-0.7-1-1.6C1027.5,893.7,1030.4,893.8,1031.6,895.1z M1029.1,879.1c0.1-0.9,0.7-1.4,1.3-1.3
		c0.7,0,0.6,1,0.1,1.1c-0.4,0.1-0.5-0.1-0.5-0.3c-0.2-0.2-0.5,0.7-0.5,1c-0.1,1.7,2.7,2.4,3.9,0.8c0.2,0,0.2,0,0.2,0.1
		c-0.2,0.3-0.3,0.4-0.6,0.6C1031.7,882.2,1028.8,881.6,1029.1,879.1z"/>
	<path class="st0" d="M1024.3,910c-0.4,0.5-1.5,1.9-1.8,2.9c-0.4,1.1,1.5,2.1,2.3,1.1c0.5-0.6,0.4-1.9,0.2-2.9
		c0.4,0.9,1.1,2,1.9,2.3c1.3,0.5,2.2-1.2,1.3-2c-0.6-0.5-1.8-1-2.6-1.4c1,0.2,2.5,0.4,3.2-0.2c1-0.8-0.1-2.6-1.2-2.2
		c-0.9,0.3-2,1.3-2.6,1.8l-16.9-16.1c-0.2,0.2-0.3,0.4-0.5,0.6L1024.3,910z"/>
	<path class="st0" d="M677,265.5c-0.1,0.8,0.2,1.7,0.9,2.2l0.5,0.3l19,33.3c0.4,0.7,1.2,1.1,1.9,1.1c0.4,0,0.8-0.1,1.1-0.3
		c1.1-0.6,1.4-2,0.8-3.1L687,273.9l42.9,29.7c-8.1,15.1-11.4,34.8-8.9,57c6.5,57.8,54.8,139.4,169.6,179.4c0.3,0.1,0.5,0.2,0.8,0.2
		c0.5,0,0.9-0.1,1.2-0.4l0.6-0.3c11.5-6.3,49.6-28.5,84-64.9c-0.1,0-0.1-0.1-0.2-0.1c-1-0.7-1.3-2.1-0.6-3.1c0.7-1,2.1-1.3,3.1-0.6
		c0.3,0.2,0.5,0.3,0.7,0.5c24.6-26.8,46.8-61,55.3-101.8c6.9-33,3.4-61.7-9.7-80.7c-9.9-14.2-24.9-23-44.7-26.1
		c-5.7-0.9-11.3-1.3-16.7-1.3c-37.6,0-67.6,22.1-83.2,61c-10.3-31.8-44.1-55-81.7-55c-17.4,0-34.7,5-49.9,14.6
		c-7.1,4.4-13,10.5-17.6,17.8l-46.6-32.2c12.8,2.9,27.6,6.3,30,7c1.3,0.7,3.2-0.2,3.3-1.7c0.1-0.9,0.2-1.5-2.3-2.4v-0.1
		c-0.1,0-0.2,0-0.3,0c-3.9-1.4-13.7-3.6-37.3-8.9c-0.9-0.2-1.8,0.1-2.3,0.8c-0.5,0.7-0.6,1.7-0.1,2.4L677,265.5z M752.1,285.6
		c14.5-9.1,31-13.9,47.5-13.9c38.1,0,72.1,25.1,79.1,58.3c0.2,1,1,1.7,2.1,1.8c1,0.1,1.9-0.6,2.3-1.5c14.4-41.6,43.3-64.6,81.5-64.6
		c5.2,0,10.5,0.4,16,1.3c18.5,2.9,32.6,11,41.7,24.2c12.4,18,15.6,45.4,9,77.2c-20.2,97.2-119.9,155.9-140,166.9
		C779,496,731.8,416.3,725.5,360c-2.4-21,0.6-39.7,8.1-53.9l72.5,50.1c0.4,0.3,0.8,0.4,1.3,0.4c0.7,0,1.4-0.3,1.8-1
		c0.7-1,0.4-2.4-0.6-3.1l-72.8-50.3C740.1,295.3,745.6,289.7,752.1,285.6z"/>
	<path class="st0" d="M956.3,907.7c2.8,4.9,8.1,7.2,12.1,5.4c-0.1-0.2-0.2-0.5-0.3-0.7c-3.2-0.4-6.5-2.8-8.7-6.5
		c-2.1-3.7-2.5-7.8-1.3-10.8c-0.2-0.2-0.3-0.4-0.4-0.6C954.1,897,953.4,902.7,956.3,907.7z"/>
	<path class="st0" d="M1042.8,889.2c0.6-5.7-2.3-10.7-6.6-11.5c0,0.2-0.1,0.5-0.2,0.7c2.3,2.2,3.7,6.1,3.2,10.3
		c-0.4,4.3-2.6,7.8-5.3,9.5c0,0.2,0,0.5,0,0.7C1038.3,899.2,1042.2,894.9,1042.8,889.2z"/>
	<path class="st0" d="M969.4,912.4C969.4,912.4,969.4,912.4,969.4,912.4C969.4,912.4,969.4,912.4,969.4,912.4
		C969.4,912.4,969.4,912.4,969.4,912.4z"/>
	<path class="st0" d="M959,879.9c0-0.7,0.1-2.2-0.2-3.1c-0.4-1.1-2.3-0.8-2.4,0.4c0,0.8,0.7,1.7,1.5,2.3c-0.8-0.5-1.9-0.9-2.7-0.7
		c-1.3,0.4-1.1,2.2,0.1,2.2c0.8,0.1,1.9-0.2,2.7-0.4c-0.9,0.4-2.2,1.1-2.3,2c-0.3,1.2,1.5,2,2.2,1c0.6-0.8,0.9-2.3,1.1-3l23.2,3.1
		c0-0.3,0.1-0.5,0.1-0.8L959,879.9z"/>
	<path class="st0" d="M1005.5,926.4c-4.2,0.9-8.2,0-10.6-2.1c-0.2,0.1-0.5,0.2-0.7,0.2c1.2,4.2,6.5,6.6,12.1,5.4
		c5.6-1.2,9.4-5.5,8.9-9.8c-0.2,0-0.5,0.1-0.7,0.1C1012.9,923,1009.7,925.5,1005.5,926.4z"/>
	<path class="st0" d="M1013.6,888.7c-0.1,0.8,0.5,1.6,1.3,1.7c0.8,0.1,1.6-0.5,1.7-1.4c0-0.4-0.1-0.7-0.2-1c0.4-0.4,0.9-0.7,1.5-1
		c0.7-0.2,0.7-0.7,0-1.1c-0.5-0.4-0.9-0.7-1.2-1.1c0.2-0.2,0.4-0.5,0.4-0.9c0.1-0.9-0.5-1.6-1.4-1.7c-0.8-0.1-1.6,0.5-1.7,1.4
		c-0.1,0.5,0.2,1,0.5,1.4c-0.5,0.2-1,0.8-1.5,1.1c0.3,0.5,0.7,1.1,1.1,1.5C1013.9,887.9,1013.6,888.3,1013.6,888.7z"/>
	<path class="st0" d="M1029.6,866c0.4,0.6,1.2,1.9,2,2.4c0.9,0.6,2.3-0.7,1.7-1.7c-0.4-0.7-1.6-0.9-2.5-1c1-0.1,2.1-0.4,2.6-1
		c0.8-1-0.4-2.4-1.4-1.7c-0.7,0.4-1.5,1.3-2,2c0.5-0.9,1.1-2.2,0.8-3.1c-0.5-1.1-2.4-0.7-2.4,0.4c0,0.9,0.6,2.4,0.9,3l-20.4,11
		c0.1,0.2,0.3,0.5,0.4,0.7L1029.6,866z"/>
	<path class="st0" d="M921.3,478.4c21.4,0.1,30.8-28.5,34-45.3c3.9-21,2.2-45.5-9.5-63.9c-10.4-16.8-29.4-21-43.6-6
		c-14,14.5-22,40.6-19.7,60.4C885.3,445,894.8,478.1,921.3,478.4z M897.8,398.4c0.3-10.2,1.6-21.2,6.3-30.4
		c5.3-10.2,16.8-15.5,26.9-7.9c8.2,6.3,11.4,17.4,13.4,27.1c2.4,10.9,3.3,22.3,3.5,33.5c0,17-1,49.9-22.2,54.8
		c-24.9,5.8-27.9-35-27.5-50.5l0.1-4.5C898.5,413.2,897.7,405.9,897.8,398.4z"/>
	<path class="st0" d="M993.9,923.3C993.9,923.3,993.9,923.3,993.9,923.3C993.9,923.3,993.9,923.3,993.9,923.3
		C993.9,923.3,993.9,923.3,993.9,923.3z"/>
	<path class="st0" d="M995.9,892.2c5.4,1.1,8.7-1.5,9.7-6.3c1.2-5.3-1.7-10.6-7.5-12.1c-5.7-1.5-10.5,4.9-10.8,9.9
		C987.1,888,991.9,891.4,995.9,892.2z M997.8,876.6c4,1,6,4.7,5.2,8.4c-0.7,3.4-3.1,5.2-6.8,4.4c-2.8-0.6-6.2-3-6-5.9
		C990.5,880.1,993.8,875.6,997.8,876.6z"/>
	<path class="st0" d="M958.7,893.9c-1-0.9-1.7-2.3-1.3-4.2c0.6-3,2.8-4.4,3.8-4.6c0.5-0.1,0.7,0.2,0.2,0.4c-0.5,0.2-1.5,1-1.7,1.8
		c-0.2,0.9,0.4,1.5,0.9,1.6c0.6,0.1,1.4-0.2,1.5-0.7c0.1-0.5-0.3-0.7-0.6-0.3c-0.3,0.4-0.4,0.6-0.8,0.5c-0.4-0.1-0.6-0.6-0.5-1.1
		c0.1-0.5,0.7-1.2,1.9-1c1.2,0.2,2.6-0.1,2.6-1c0-0.8-0.3-1-0.5-1s-0.1-0.4,0.5-0.5c3.1-0.2,7.9,1.7,9.9,6.5
		c0.7,1.7,0.9,3.5,0.8,5.4c-3.1-1.3-6.4-1.7-9.1-1.5c0,0,0-0.1,0-0.1c0.3-1.7-0.6-3.2-2-3.4c-1.4-0.3-2.7,0.4-2.9,1.7
		c-0.2,1.2,0.2,2.1,0.9,2.2c0.7,0.2,0.2,0.8-1,0.6C960.6,895.1,959.6,894.7,958.7,893.9c-0.2,0.4-0.5,0.8-0.6,1.2
		c0.8,1,1.8,1.7,3,1.9c2.5,0.5,4.2-0.7,4.9-2.1c0,0.1-0.1,0.3-0.1,0.4c2.9-0.3,6.3,0.2,9.4,1.4c-0.4,3.2-1.8,6.5-3.4,8.8
		c0.1,0,0.3,0.1,0.4,0.1c-1.6-0.2-3.5,0.8-4.3,3.2c-0.4,1.1-0.3,2.4,0.2,3.5c0.5,0.1,0.9,0.1,1.4,0.1c-0.3-1.1-0.1-2.2,0.1-2.8
		c0.4-1.2,1.2-1.2,1-0.6c-0.2,0.7,0.3,1.4,1.5,1.9c1.2,0.4,2.5-0.4,2.9-1.7c0.5-1.3-0.3-2.9-2-3.4c0,0-0.1,0-0.1,0
		c1.6-2.3,2.9-5.4,3.3-8.7c1.7,0.8,3.2,2,4.3,3.4c3.1,4.1,2.4,9.3,0.7,11.9c-0.4,0.5-0.7,0.4-0.7,0.2c0.1-0.3,0.1-0.6-0.6-1
		c-0.7-0.4-1.7,0.6-2.1,1.8c-0.4,1.1-1.3,1.3-1.8,1.2c-0.5-0.2-0.8-0.7-0.7-1c0.1-0.4,0.4-0.4,0.9-0.4c0.5,0,0.5-0.5,0-0.7
		c-0.5-0.2-1.1,0.4-1.3,0.9c-0.2,0.5,0.1,1.3,0.9,1.6c0.8,0.3,2-0.2,2.4-0.6c0.5-0.4,0.6,0,0.2,0.3c-0.7,0.8-3,2-5.9,1
		c-1.9-0.6-2.7-2-3-3.3c-0.2,0.1-0.4,0.3-0.6,0.4c-0.2,0.1-0.3,0.2-0.5,0.2c0.7,1.4,2,2.6,3.4,3.1c4.6,1.6,9.6-1.1,11-5.3
		c1.1-3.2,0.9-7.8-1.6-10.9c-1.4-1.7-3.1-3-5-3.9c0.1-2.1-0.1-4.2-0.9-6.2c-1.4-3.6-5.3-6.2-8.6-6.8c-4.3-0.8-9.1,2.1-10.1,6.9
		c-0.3,1.5,0.1,3.2,1,4.5c0.1-0.1,0.3-0.2,0.4-0.3C958.3,894.1,958.5,894,958.7,893.9z M961.9,896.4c-0.3-0.1-0.5-0.2-0.8-0.4
		c0-0.1,0-0.2,0.2-0.2c1.8,0.9,4-0.9,3.2-2.4c-0.1-0.3-0.7-1-0.8-0.7c0.1,0.2,0,0.4-0.4,0.5c-0.5,0.1-0.9-0.7-0.4-1
		c0.5-0.3,1.2,0,1.7,0.7C965.9,895,963.5,896.7,961.9,896.4z M973.2,907.8c0.4,0.8,0.3,1.5-0.2,1.8c-0.6,0.4-1-0.5-0.7-0.8
		c0.3-0.3,0.5-0.2,0.6-0.1c0.3,0,0-0.9-0.2-1.1c-0.9-1.4-3.5-0.4-3.6,1.6c-0.1,0.1-0.2,0.1-0.3,0c0-0.3,0-0.5,0.1-0.8
		C969.4,906.8,972,905.6,973.2,907.8z"/>
	<path class="st0" d="M992.4,869.5l-0.1-0.4c-5.4,2.1-9.4,8.3-10.2,13.8l0.5,0.1l-0.1,0.8l-0.5-0.1c0,0.1,0,0.2,0,0.4
		c-0.3,5.3,4.4,9.8,9.5,12l0-0.1l0.7,0.4l0,0c1,0.4,2,0.7,3,0.9c5.4,1.1,9.4-0.2,12.1-3.3l-0.5-0.5l0.6-0.6l0.4,0.4
		c1.2-1.6,2-3.6,2.5-5.9c0.8-3.7,0.3-7.3-1.1-10.4l-0.7,0.4l-0.4-0.7l0.6-0.4c-2-3.6-5.4-6.4-10.1-7.6c-2-0.5-3.9-0.4-5.6,0.1
		l0.1,0.5L992.4,869.5z M998.5,871c7.6,2,11.3,8.8,9.8,15.8c-1.3,6.3-5.8,9.7-12.8,8.3c-5.3-1.1-11.5-5.5-11.2-11.1
		C984.7,877.4,991,869,998.5,871z"/>
	<path class="st0" d="M1025.4,500.6c12.8-2.5,19-3.8,21.9-4.7c0.1,0,0.2,0,0.3,0l0-0.1c2.4-0.8,2.4-1.4,2.3-2.3
		c-0.1-1.5-2-2.4-3.3-1.8c-2.4,0.6-16.7,3.5-26.7,5.4c0,0,0.1,0.1,0.1,0.1C1021.8,498.3,1023.6,499.5,1025.4,500.6z"/>
	<path class="st0" d="M1021.5,854.5C1021.5,854.5,1021.5,854.5,1021.5,854.5C1021.5,854.5,1021.5,854.5,1021.5,854.5
		C1021.5,854.5,1021.5,854.5,1021.5,854.5z"/>
	<path class="st0" d="M1004.5,492.6c4,2.6,7.9,5.1,11.8,7.5c-0.1-0.6,0-1.2,0.3-1.7c0.3-0.5,0.9-0.8,1.4-1c0.6-0.1,1.2-0.2,1.9-0.4
		c-3.9-2.5-7.9-5-12-7.7c-1.3,0.2-2.6,0.5-4,0.8C1004.1,491,1004.3,491.8,1004.5,492.6z"/>
	<path class="st0" d="M1014.8,918.8C1014.8,918.8,1014.8,918.8,1014.8,918.8C1014.8,918.8,1014.8,918.8,1014.8,918.8
		C1014.8,918.8,1014.8,918.8,1014.8,918.8z"/>
	<path class="st0" d="M999.2,489.1c0-0.1,0-0.1,0-0.2c-0.1-0.6,0-1.2,0.3-1.7c0.3-0.5,0.9-0.8,1.4-1c0.5-0.1,1.1-0.2,1.6-0.3
		c-7.1-4.6-14.4-9.4-22.1-14.8c-1,1.1-2.1,2.2-3.1,3.3C984.9,479.8,992.2,484.6,999.2,489.1z"/>
	<polygon class="st0" points="772.6,837.5 764.2,826.7 763.5,840.4 771.8,851.2 	"/>
	<path class="st0" d="M324,834.7c1.5-0.3,2.3-2.1,2-3.6c-0.4-1.7-3.2-4-3.6-5.9c0-0.2-0.5-0.1-0.5-0.1s-0.5,0.2-0.4,0.3
		c0.4,1.9-1.2,5.2-0.8,6.9C321,833.8,322.5,835.1,324,834.7z"/>
	<polygon class="st0" points="340.7,808.3 329.2,815.8 342.8,817.6 354.3,810.2 	"/>
	<path class="st0" d="M326.2,812.9c1.4-1.3,5-1.6,6.3-2.8c1.1-1,1.4-3,0.4-4.1c-1-1.1-3-1-4.1,0.1c-1.3,1.2-1.9,4.8-3.3,6.1
		c-0.1,0.1,0.2,0.5,0.2,0.5S326.1,813,326.2,812.9z"/>
	<path class="st0" d="M327.4,820.1c0,0-0.1,0.5,0.1,0.5c1.9,0.6,3.9,3.6,5.6,4.1c1.4,0.5,3.3-0.3,3.7-1.7c0.4-1.4-0.7-3.1-2.1-3.5
		c-1.7-0.5-5.1,0.7-6.9,0.2C327.6,819.6,327.4,820.1,327.4,820.1z"/>
	<path class="st0" d="M240.9,851.9c0.5-0.3,0.7-0.5,1.9-0.6c-1.8-6.2-2.4-12.8,1-16.5c1.9-2,6.9-1.6,11-3.7
		c6.9-3.6,8.5-8.6,7.5-12.4c-0.7-2.6-2.2-3.5-2.8-1.6c-0.6,1.8-2.8,3-5.2,2.9c-2.5-0.1-3.9-0.1-3.1-2.6c0.8-2.5,5.1-5.8,11.3-5.5
		c6.3,0.3,8.5,5.3,8.7,7.4c0.2,2,2.2,1.4,2.4-0.5c0.3-3.1-2.6-6.9-6.5-8.9c-3.9-2-15.6-2-23.7,8.5
		C235.3,828.8,238.6,844.3,240.9,851.9z"/>
	<polygon class="st0" points="343.9,843.5 338.7,830.9 326.5,824.7 331.7,837.3 	"/>
	<path class="st0" d="M543.1,585.7v17.7h-36.3l29.8,140.9h114.4V585.7h-52.7v17.7h-2.4v-17.7H543.1z M605.2,647v-54.5h38.9v144.4
		h-38.9v-56h-15.8v56h-39.6V592.5H589V647H605.2z"/>
	<polygon class="st0" points="727.3,810.2 738.8,817.6 752.4,815.8 740.9,808.3 	"/>
	<path class="st0" d="M486.8,631h19.9v-45.1h-91.9v17.5h-30.2l8.8,41.4h19.3l21,99.3h53.2V631z M480,736.9h-39V624.2h-19.3v-31.7
		h77.9v31.7H480V736.9z"/>
	<path class="st0" d="M190.5,603.4H154l30,140.9h59.3V585.7h-52.7V603.4z M197.3,592.5h39.2v144.4h-39.2V592.5z"/>
	<path class="st0" d="M311.6,829.5c1.3-1.2,1.9-4.8,3.3-6.1c0.1-0.1-0.2-0.5-0.2-0.5s-0.4-0.3-0.5-0.2c-1.4,1.3-5,1.6-6.3,2.8
		c-1.1,1-1.4,3-0.4,4.1C308.5,830.7,310.4,830.5,311.6,829.5z"/>
	<polygon class="st0" points="299.7,827.3 311.1,819.8 297.6,818 286.1,825.5 	"/>
	<path class="st0" d="M303.6,812.7c-0.5,1.4,0.7,3.1,2.1,3.5c1.7,0.5,5.1-0.7,6.9-0.2c0.2,0,0.4-0.4,0.4-0.4s0.1-0.5-0.1-0.5
		c-1.9-0.6-3.9-3.6-5.5-4.1C305.9,810.5,304.1,811.2,303.6,812.7z"/>
	<polygon class="st0" points="308.7,798.3 296.5,792.1 301.7,804.8 313.9,811 	"/>
	<path class="st0" d="M323.6,624h-3.5v25.8h4.2c7.4,0,10.3-2.4,10.3-12.7c0-1.8-0.2-3.3-0.2-5.7C333.9,626.8,330.4,624,323.6,624z"
		/>
	<path class="st0" d="M381.1,637.5v-19c0-22.5-14.2-32.2-34.8-32.2h-72.6v17.5h-30.4l30,140.3h53.2v-9.6c2,4.2,4.2,6.6,7.4,9.6h60.4
		c-9.2-9.4-12.9-17.3-12.9-29.8c0-7.2,0.7-14.9,0.7-22.3c0-11.6-2-22.3-10.9-28.7C380,655.9,381.1,649.4,381.1,637.5z M374.8,688.5
		v31.3c0,8.8,3.3,10.9,5.3,17.1h-41.6c-2.2-3.1-3.9-6.6-3.9-12.5v-35c-1.1-5-3.7-6.8-9.2-6.8h-5.7v54.3h-39.2v-144h65.6
		c18.8,0,28.4,7.9,28.4,23.2v26c-1.5,12.9-10.7,21.2-23,21.2C369.1,666.7,374.8,674.3,374.8,688.5z"/>
	<polygon class="st0" points="318.1,840.4 317.4,826.7 309,837.5 309.7,851.2 	"/>
	<path class="st0" d="M744.9,823c0.5,1.4,2.3,2.1,3.7,1.7c1.7-0.5,3.7-3.5,5.5-4.1c0.2,0,0.1-0.5,0.1-0.5s-0.2-0.4-0.4-0.4
		c-1.8,0.5-5.2-0.7-6.9-0.2C745.5,819.9,744.4,821.5,744.9,823z"/>
	<path class="st0" d="M324.9,819.3c0.8-2.6-0.6-5.3-3.2-6.1c-2.6-0.8-5.3,0.6-6.1,3.2c-0.8,2.6,0.6,5.3,3.2,6.1
		C321.3,823.3,324.1,821.9,324.9,819.3z"/>
	<polygon class="st0" points="330.6,784.5 322.2,795.3 323,809 331.3,798.1 	"/>
	<path class="st0" d="M319.7,803.3c-0.3-1.5-1.9-2.7-3.3-2.4c-1.5,0.3-2.3,2.1-2,3.6c0.4,1.7,3.2,4,3.6,5.9c0,0.2,0.5,0.1,0.5,0.1
		s0.5-0.1,0.4-0.3C318.5,808.3,320.1,805,319.7,803.3z"/>
	<polygon class="st0" points="755.1,824.7 742.9,830.9 737.7,843.5 750,837.3 	"/>
	<path class="st0" d="M98.4,679.8h-5.7v26.7h6.3c8.1,0,8.3-3.7,8.3-8.8v-10.5C107.4,682,105,679.8,98.4,679.8z"/>
	<path class="st0" d="M99.3,623.5h-6.6v24.7h6.6c5,0,8.3-2.4,8.3-8.8v-7.4C107.6,626.8,104.1,623.5,99.3,623.5z"/>
	<path class="st0" d="M75.7,435.5c27.8,3.2,54.1-5,70.9-28.3c16.5-22.6,22.3-51.8,22.7-79.3c2.9,0.4,5.9,1,8.9,1.7l0.7,0.3l1.7,0.6
		l1,0.3c16.1,4.5,33.8,5.2,49.5-1.6c0.4,20.1,1.3,40.4-0.6,60.4c-1.3,13.2-4.7,45.8-24.3,44.3v2.2c19.9-1.2,26.9-25.3,31.1-41.3
		c5.9-22.9,8.2-46.6,8.9-70.1V321l0.1-1.6c12.7-11.8,18-30.7,22.2-46.9c2.3-9.4,12.2-48.5-5-50.4H263c-15-0.9-22.9,29.1-25.9,39.6
		c-5.3,19.3-6.5,39.3-6,59.3v1.4c-15.1,4.9-31.7,2.7-46.8-1.4l-0.9-0.1l-1.7-0.6l-1-0.1c-3.7-1-7.6-1.4-11.4-1.6v-2.2
		c0.1-18.6,0-37.4,3.6-55.5c2.2-11.8,7.5-33,21.3-36.4v-0.1c1-0.6,2.2-1.2,3.3-1.4l-0.9-2.3c-11.9,6.5-29.5,3.3-41.6,0
		c-17.4-4.7-33.4-9.6-51.7-8.1l-1.4,0.1h-0.7l-0.7,0.1c-23.5,0.6-48.6,8.3-62,28.9c-13.5,21-11.5,49.8,2.3,70.1
		c-3.6,2.2-7.1,4.6-10.1,7.5C11.1,337.5,6,367.6,16,392.2C25.9,417.1,49.5,432.5,75.7,435.5z M246.6,313.6c0.1-4.9,0.3-9.8,0.6-14.7
		c0.7-15.3,0.7-30.8,2.4-46c0.7-7.1,3-28.3,13.5-28.6h0.3c13.5-0.1,6,36,4.6,43c-3.3,15.8-8.8,35.3-21.4,46.5V313.6z M38.5,303.1
		c-9.8-19.7-9.5-45,4-63c13.5-18,36.6-23.5,58-23h0.7c12.7,0,25.6,6.5,37.4,10.5c15.1,5,29.6,6.3,45,1c-11.1,9.9-17.6,25-22,38.9
		c-5.3,17-7.9,34.7-8.2,52.4c-6.3,1.3-12.4,3.5-18.3,5.9c-4.9-8.5-12.2-14.8-21.2-18.7c2.2-10.2,1-34.1-13.8-34.8H100l-0.1,2.4h0.4
		c12.8,0.6,13.2,22.9,11.5,31.4c-21.2-8.2-48.9-6.5-68.9,4.6C41.3,308.2,39.8,305.7,38.5,303.1z M111.4,308.2
		c-7.9,29.8-45.9,27.9-63.8,8.5C65.2,304.9,91.4,300,111.4,308.2z M45.7,318c1.6,1.7,3.2,3.5,5,4.9c19.9,16.8,55,14.4,62.7-13.7
		c8.1,3.7,15,9.9,19.4,17.6c-5.2,2.4-10.1,5-15,7.9l-3.2,2l-1.6,0.9l-1.7,1l1.3,1.7c6-4.9,14.5-7.8,22-9.8
		c13,28.6-3.9,66.8-34.7,74.7c-14.8,3.7-30.2,0.4-40.1-11.5c-10.4-12.4-13.2-31.9-1.6-44.5l-1.9-1.7c-11.8,12.7-9.9,32.4-0.1,45.6
		c9.4,12.8,24.3,17.8,39.7,15.4c34.8-5.6,55.3-47.1,41.2-78.7c5.3-1.3,10.6-2.2,16.3-2.4v0.1c-0.1,25.6,0.6,54.8-11.8,78.1
		c-13.2,24.6-41.9,31.8-67.9,26.8c-25.5-4.9-46.2-23.2-52.1-48.8C16.1,359,25.2,332.9,45.7,318z"/>
	<path class="st0" d="M255.9,363.9l0.1,1.2v1.2c0.4,12.2,2.9,24.3,7.5,35.7c4.5,10.5,11.5,23.2,22.9,27.3
		c26.2,9.6,31.8-33.5,32.8-49.6c1.4,12.1,3.6,50.8,22.3,49.9h0.4l0.3-0.1h0.1c12.1-1.9,14.2-27.6,15.7-36.6
		c1.7-10.8,2.8-21.8,3.6-32.8c0.7,8.4,1.4,16.8,2,25.3c-8.8,32.4-14.8,65.6-18.3,99c-1.6,15.8-2.6,31.8-1.7,47.8
		c0.3,7.1,0.4,35.4,11.5,35.3c7.9-0.3,9.4-13,10.2-18.6c1.4-9.4,2-18.9,2.4-28.3l0.3-6.5c1.2-37.6-0.9-75-1-112.4
		c3.3-17.1,7.2-34.1,12.7-50.5c4.5-13.5,11.2-35.3,25.2-41.9c16.3-7.5,23.6,14.7,25.2,26c2.4,18.1,2.9,36.8,0.9,55.1
		c-12.8,7.8-30.5,14.5-37.6,28.5c-3.6,7.2-1.6,16,7.3,17c8.5,1,17.3-4.3,23.2-9.8l0.7-0.6c10.6-10.4,16.4-26.3,19.9-40.4
		c11.2-7.8,22.7-18.1,27.2-31.3c0.9,10.5,1.8,21,2.6,31.6c-8.8,32.4-14.8,65.6-18.3,99c-1.6,15.8-2.6,31.8-1.7,47.8
		c0.3,7.1,0.4,35.4,11.5,35.3c7.9-0.3,9.4-13,10.2-18.6c1.4-9.4,2-18.9,2.4-28.3l0.3-6.5c1.2-37.6-0.9-75-1-112.4
		c3.3-17.1,7.2-34.1,12.7-50.5c4.5-13.5,11.2-35.3,25.2-41.9c16.3-7.5,23.6,14.7,25.2,26c2.4,18.1,2.9,36.8,0.9,55.1
		c-12.8,7.8-30.5,14.5-37.6,28.5c-3.6,7.2-1.6,16,7.3,17c8.5,1,17.3-4.3,23.2-9.8l0.7-0.6c10.6-10.4,16.4-26.3,19.9-40.4
		c11-7.7,22.2-17.7,26.9-30.4c0.9,12.3,2.1,24.7,4.3,36.9c2.4,13,7.3,37.7,24.6,37.7h0.6c14.7-0.4,20.7-23,23.7-34.2
		c4.2-15.4,6.6-31.4,8.3-47.3l2,23.9l1.4,16.7c1.4,16.5,1.7,33,1.9,49.5c-4.3,4.2-9.4,8.3-15,10.5l-1,0.4
		c-22.2,8.5-39.7,26.9-46.8,49.6c-5.9,19.3-5.9,58,20.1,62.9c27.5,5.2,37.7-24.9,41.2-46c4.3-25.3,4.2-51.4,4-76.8
		c23.5-24,29.6-64.3,28.8-96.7l-2.2,0.1c0.9,31.1-4.9,69.5-26.8,93.4c0-10.1-0.7-20.1-0.6-30.2l0.7-16.8l0.6-16.7
		c0.4-11.2,0.9-22.3,1.6-33.5l0.4-8.3l0.6-8.3c0.3-5.6,0.7-11.2,1.2-16.7h-15.8l1.4,16.8l0.7,10.1c-1.4,18.1-3.6,36.4-7.6,54.4
		c-2.6,10.9-7.9,40-23.2,40.6h-0.9c-18.6-0.7-18.7-31.1-19.1-43.7c-0.6-20.7,1-41.3,2.4-61.7l1.2-15.5h-16l0.6,7.6l1.3,23.3
		c0.1,2.7,0.3,5.4,0.5,8.1c-0.3,3.3-1,6.6-2.2,9.8c-4.3,11.2-13.7,19.7-23,26.6c3.2-15.7,3.7-33-1.6-48.2c-4.2-11.8-13-24.5-26-26.9
		c-16-3-26.2,10.5-33,22.9c-7.5,13.7-12.7,28.5-17.3,43.2c0.6-22.2,1.4-44.3,3.7-66.3H467c1.4,12.7,2.6,25.5,3.8,38.2
		c-0.2,3.6-1,7.2-2.3,10.5c-4.3,11.2-13.7,19.7-23,26.6c3.2-15.7,3.7-33-1.6-48.2c-4.2-11.8-13-24.5-26-26.9
		c-16-3-26.2,10.5-33,22.9c-7.5,13.7-12.7,28.5-17.3,43.2c0.6-22.2,1.4-44.3,3.7-66.3h-15.1c1.4,13.3,2.8,26.7,4,40
		c-0.3,6.8-0.8,13.7-1.3,20.5c-1,12.1-2.3,24.2-4.7,36.1c-1.2,5.8-3.9,24.9-12.1,25.5h-0.6l-0.1-0.1c-14.1-1.2-12.8-29.8-13-39.3
		c-0.3-18.7,1.2-37.3,2.4-55.8h-15.8c0,0.7,0,1.3,0.1,1.9H315c1.4,15.5,2,31.1,0.7,46.6c-1,13.7-3,31.4-13.2,41.7
		c-11.2,11.4-22.7-3.5-26.5-14c-4.9-13.2-5.5-28.2-4.9-42.2l0.1-1v-1c0.9-13.5,4.2-29.4,11.4-41c8.5-13.8,25.2-17.4,40.4-17.4v-3
		c-16.4,0-32.5,5.8-45.9,15.3C261.9,328.8,255.9,345.6,255.9,363.9z M429.3,401.6c-1.4,7.2-3.6,14.8-8.1,20.7l-0.4,0.7
		c-4,5-9.8,9.9-16.7,10.2c-7.5,0.4-11.5-5.2-8.5-12.1c5.9-13.4,23.2-20,35-27.2L429.3,401.6z M539.9,401.6
		c-1.4,7.2-3.6,14.8-8.1,20.7l-0.4,0.7c-4,5-9.8,9.9-16.7,10.2c-7.5,0.4-11.5-5.2-8.5-12.1c5.9-13.4,23.2-20,35-27.2L539.9,401.6z
		 M648.9,471.9c-0.7,21.7-1.3,45.2-9.5,65.6c-3.6,8.8-9.2,17-18.4,20.3c-8.2,2.9-17.4,0.9-22.2-6.9c-9.6-15.8-3-40.6,2.6-56.6
		c6.5-18.9,16.8-35,34.5-44.8l3.7-2c3.3-2,6.5-4.3,9.4-6.9C649.2,451.1,649.2,461.4,648.9,471.9z M476.2,435.7l0.3,13l0.3,13.1
		c0.3,19,0.7,37.8-0.3,56.8c-0.4,9.2-1.2,18.4-2.9,27.5c-0.6,3.2-2.6,17.3-7.8,16.8h-0.1c-3.5-4-2.9-12.2-2.9-17
		c-0.1-9.4,0.4-18.6,1-27.9l0.9-12.8c2.2-31.4,5.9-62.6,11.2-93.4C476.2,419.7,476.1,427.6,476.2,435.7z M365.5,435.7l0.3,13
		l0.3,13.1c0.3,19,0.7,37.8-0.3,56.8c-0.4,9.2-1.2,18.4-2.9,27.5c-0.6,3.2-2.6,17.3-7.8,16.8H355c-3.5-4-2.9-12.2-2.9-17
		c-0.1-9.4,0.4-18.6,1-27.9l0.9-12.8c2.2-31.4,5.9-62.6,11.2-93.4C365.5,419.7,365.4,427.6,365.5,435.7z"/>
	<path class="st0" d="M879.8,622.9c-5.3,0-7.9,2.8-7.9,9.6v42h15.5v-42C887.5,625.7,884.9,622.9,879.8,622.9z"/>
	<path class="st0" d="M908.7,585.9h-58.2c-10.9,0-19.7,6.3-23.2,16.8l-0.2,0.7h-9c-12.7,0-23.6,5.9-23.6,18.8c0,2.4,0.2,5,0.9,7.9
		l24.3,113.8H933V613.7C933,597.7,925.8,585.9,908.7,585.9z M926.2,736.9h-38.7v-31.7H872v31.7h-39V613.7c0-12.3,4.6-21.2,17.7-21.2
		h58c13.6,0,17.5,9,17.5,21.2V736.9z"/>
	<path class="st0" d="M124,743.9c5.7,0,11.6-0.9,16.8-3.9c9.4-5.9,12.9-16.4,12.9-27.1c0.2-6.1,0.2-13.1,0.2-20.1
		c0-11.2-1.3-22.3-10.9-29.1c9-7.9,9.8-17.7,9.8-29.5c0-4.6,0.2-9.2,0.2-14c0-22.3-10.3-34.1-31.9-34.1H46.3v17.5H10l30,140.5H124z
		 M53.3,592.5h67.8c22.5,0,25.6,14.7,25.6,30.6c0,5.9-0.4,11.8-0.4,17.5c0,15.8-10.1,19.9-22.8,23.6c12.7,2,23.6,5.5,23.6,21v27.6
		c0,16-8.1,24.1-24.5,24.1H53.3V592.5z"/>
	<path class="st0" d="M1017.9,585.9v17.5h-2.4v-17.5h-52.1v17.5H933c4.4,19.7,8.3,39.4,12.7,58.9c4.6,19.7,20.1,35.7,37,45.3
		l7.7,36.5h52.7v-42.5c15.1-12.5,26.9-30,26.9-49.9v-65.9H1017.9z M1063.9,655.1c-3.3,16.6-14.2,36.3-27.8,43.1v38.7h-38.3v-38.7
		c-14.7-7.2-25.2-27.8-27.4-43.1c-0.2-2.4-0.4-62.6-0.4-62.6h38.9v57.8c0,11.6,2.6,17.7,7.9,22.1c5.5-4.4,7.9-10.5,7.9-22.1v-57.8
		h39.2V655.1z"/>
	<polygon class="st0" points="976.6,773.7 965.4,773.7 959.7,783.8 965.2,794 976.4,794 979.7,788.3 1061.6,788.3 1061.6,946.1 
		947.4,946.1 943.9,939.7 932.7,939.6 927,949.7 932.5,959.9 943.8,960 947,954.2 1069.6,954.2 1069.6,780.3 980.1,780.3 	"/>
	<path class="st0" d="M11.9,980.5h99.5c12,6.2,24.3,18.8,25.9,32.1c1.8,14.6-7.5,25.3-14.2,28.9c0-0.8-0.2-1.8-1-3
		c-0.7-1.1-1.9-1.7-3.4-1.7c-2,0-4.5,1-6.5,2.7c-0.9,0.7-1.8,1.1-2.7,1.1c-0.8,0-1.4-0.3-1.7-0.6c-0.6-0.7-0.6-1.5-0.3-1.8
		c0.2,0,0.8,0.3,1.2,0.5c1.3,0.6,2.7,0.2,3.2-0.9c0.4-0.9,0.2-2-0.6-2.9c-0.6-0.7-1.6-1.1-2.8-1.1c-1.3,0-2.8,0.5-3.8,1.4
		c-1.8,1.6-2.3,4.9-0.2,7.4c0.2,0.3,0.5,0.5,0.8,0.8c-2.4-0.7-5.3-2.3-8-5.3c-2.8-3.2-3.6-6.8-2.6-10.7c0.9-3.5,3-6,4-6.8
		c0.2-0.1,0.3-0.3,0.5-0.4c-0.7,1.8-0.3,4.4,2,7.1c1.4,1.6,3.3,2.5,5.5,2.5c2.2,0,4.3-0.8,6.1-2.4c3.8-3.2,3.8-9.1,0.2-13.4
		c-2.1-2.4-5.4-3.8-8.9-3.8c-3.5,0-7,1.4-10,4c-6.8,5.9-7.4,18.8-1.2,26c5,5.8,12.3,9.1,20.1,9.1c4.3,0,8.5-1,12.1-2.8
		c-0.1,0.5-0.2,0.9-0.2,1.5l0.3,2.5l0.5,2.7l0.3,0.9c0,0.1,0.1,0.4,0.2,0.6c0.1,0.2,0.2,0.5,0.4,0.8l0.2,0.5c0.1,0.3,0.2,0.6,0.4,1
		c0.3,1,1,1.8,1.5,2.5l0.2,0.2c0.9,1.1,1.7,2.2,2.9,3.2l0.2,0.1c0.2,0.1,0.4,0.2,0.5,0.4l0.2,0.2c0.4,0.3,0.8,0.6,1.2,1l3.1,1.6
		c0.3,0.1,0.6,0.2,0.9,0.4c0.5,0.2,0.9,0.3,1.2,0.6c0,0,0.2,0.2,0.2,0.3c0.1,0.2,0.2,0.3,0.4,0.5c0.2,1,0.2,1.6,0,2.5
		c-0.2,0.9-0.7,2-3.3,2.8c-0.2,0.1-0.4,0.1-0.6,0.2c-0.4,0.1-0.9,0.2-1.4,0.4c-1.3,0.6-2.2,1.4-2.9,2.1c-0.5,0.5-0.9,1.1-1.1,1.8
		c0,0-1.1,4.7,1,5.6l1.8,0.8l0.2-1.9c0-0.2,0-0.5,0-0.7c0-0.4,0.1-0.8,0.3-1.3c0.4-0.8,1.5-1.8,2.4-1.8c0.4,0,0.8,0.1,1.1,0.1
		c1.2,0.2,2.6,0.2,3.9-0.2c0.7-0.2,1.2-0.6,1.6-1.2l0,0c0.1,0,0.2-0.1,0.4-0.1c0.6-0.2,1.1-0.5,1.4-0.8c0.3-0.3,1.1-1,1.3-2l0.1-0.9
		c0-0.1,0.1-0.2,0.1-0.3c0.1-0.3,0.3-0.8,0.4-1.3c0.1-1.9-0.9-4.1-1.7-5.4c0.4-0.1,0.7-0.3,1.1-0.5c2.2-1.2,4.8-3.8,5.4-6.8
		c0.2-1.1,0.1-2.2-0.1-3.2c0-0.3-0.1-0.5-0.2-0.8c-0.3-1.1-0.8-2.2-1.5-3c-0.6-0.8-1.6-2-3.2-2c-0.3,0-0.5,0-0.8,0.1l-0.8,0.3l0,0
		c-0.1,0-0.2-0.1-0.3-0.1c-0.6-0.1-1.3,0.1-1.7,0.2c-1.6,0.6-2.6,2.4-2.4,4.2c0,0.4,0.2,1,0.5,1.5c0.1,0.3,0.3,0.7,0.7,1
		c0.5,0.4,1.3,0.6,2,0.6c1.1,0,2-0.4,2.5-1.1c0.1,0.6,0.2,1,0.2,1.5c0,0.1,0,0.2-0.1,0.3c-0.2,0.9-0.9,1.8-1.9,2.5
		c-0.5,0.3-1,0.6-1.4,0.7c-1.3,0.3-2.5,0.2-4.3-0.5c-0.3-0.1-0.6-0.3-0.9-0.6l-0.3-0.3c-0.9-0.6-1.5-1.2-2.1-1.9l-0.5-0.6
		c-0.5-0.5-0.9-1-1.3-1.6c-2.4-3.4-3.2-7.9-2-11.8c0.1-0.4,0.3-0.8,0.5-1.2h817.5c0.2,0.4,0.3,0.8,0.4,1.1c1.1,3.8,0.3,8.4-2.1,11.8
		c-0.4,0.5-0.8,1-1.3,1.6l-0.5,0.6c-0.6,0.7-1.2,1.3-2.1,1.9l-0.3,0.3c-0.3,0.2-0.6,0.5-0.9,0.6c-1.8,0.6-3,0.8-4.4,0.5
		c-0.4-0.1-0.9-0.3-1.4-0.7c-0.9-0.7-1.7-1.7-1.9-2.5c0-0.1,0-0.2-0.1-0.3c0-0.5,0-0.9,0.2-1.5c0.5,0.7,1.4,1.1,2.4,1.1
		c0.8,0,1.5-0.2,2-0.6c0.4-0.3,0.5-0.7,0.7-1c0.3-0.5,0.4-1.1,0.5-1.5c0.2-1.8-0.8-3.6-2.4-4.2c-0.4-0.2-1.1-0.4-1.8-0.2
		c-0.1,0-0.2,0.1-0.3,0.1l0,0l-0.6-0.2l-0.2-0.1c-0.3-0.1-0.5-0.1-0.8-0.1c-1.7,0-2.6,1.2-3.2,2c-0.6,0.8-1.2,1.9-1.5,3.1
		c-0.1,0.3-0.1,0.5-0.2,0.7c-0.2,1.1-0.3,2.1-0.1,3.2c0.6,3,3.2,5.6,5.4,6.8c0.4,0.2,0.7,0.3,1.1,0.5c-0.8,1.3-1.9,3.5-1.7,5.4
		c0,0.5,0.2,0.9,0.4,1.3c0,0.1,0.1,0.2,0.1,0.3l0.1,0.9c0.3,1,1,1.7,1.4,2c0.3,0.3,0.7,0.6,1.4,0.8c0.1,0,0.2,0.1,0.4,0.1l0.1,0.1
		c0.4,0.6,0.9,1,1.6,1.2c1.3,0.4,2.7,0.4,3.9,0.2c0.4-0.1,0.7-0.1,1.2-0.1c0.9,0,2,1,2.4,1.8c0.2,0.5,0.3,0.9,0.3,1.2
		c0,0.2,0,0.5,0,0.7l0.2,1.9l1.8-0.8c2.1-1,1-5.6,0.9-5.7c-0.2-0.7-0.6-1.3-1.1-1.8c-0.7-0.7-1.6-1.5-2.9-2.1
		c-0.5-0.2-1-0.3-1.4-0.4c-0.2,0-0.4-0.1-0.6-0.1c-2.5-0.8-3.1-1.9-3.3-2.8c-0.2-0.9-0.2-1.5,0-2.5c0.1-0.2,0.2-0.3,0.4-0.5
		c0.1-0.1,0.2-0.3,0.2-0.3c0.3-0.2,0.7-0.4,1.2-0.6c0.3-0.1,0.6-0.2,0.9-0.4l1.6-0.8l1.4-0.8c0.4-0.3,0.8-0.6,1.2-0.9l0.3-0.2
		c0.2-0.1,0.4-0.3,0.6-0.4l0.2-0.1c1.1-1,2-2.1,2.8-3.1l0.2-0.3c0.5-0.7,1.2-1.5,1.5-2.5c0.2-0.3,0.3-0.7,0.4-1l0.2-0.5
		c0.2-0.3,0.3-0.6,0.4-0.8c0.1-0.2,0.2-0.5,0.2-0.6l0.3-0.7l0.8-5.3l0-0.2c0-0.6-0.1-1.1-0.2-1.6c3.7,2,8,3,12.4,3
		c7.8,0,15.2-3.3,20.1-9.1c6.2-7.2,5.6-20.1-1.2-26c-3-2.6-6.5-4-10-4c-3.5,0-6.8,1.4-8.9,3.8c-3.7,4.3-3.6,10.1,0.2,13.4
		c1.8,1.5,3.9,2.4,6.1,2.4c2.2,0,4.2-0.9,5.5-2.5c2.4-2.7,2.7-5.3,2-7.1c0.1,0.1,0.3,0.2,0.5,0.4c1,0.8,3.1,3.4,4,6.8
		c1,3.9,0.1,7.5-2.6,10.7c-2.6,3-5.5,4.6-8,5.3c0.3-0.2,0.6-0.5,0.8-0.8c2.1-2.5,1.6-5.8-0.2-7.4c-1-0.8-2.4-1.4-3.8-1.4
		c-1.2,0-2.2,0.4-2.8,1.1c-0.8,0.9-1,2-0.6,2.9c0.5,1.1,1.9,1.6,3.2,0.9c0.3-0.2,1-0.5,1.3-0.4c0.1,0.2,0.1,1.1-0.4,1.7
		c-0.3,0.3-0.8,0.6-1.7,0.6c-0.9,0-1.8-0.4-2.7-1.1c-2-1.7-4.5-2.7-6.5-2.7c-1.5,0-2.7,0.6-3.4,1.7c-0.8,1.3-1,2.2-1,3
		c-6.7-3.6-16-14.3-14.1-28.9c1.6-13.3,13.9-25.8,25.8-32.1h99.6v-7.4H11.9V980.5z M939,1012.1c-1,6.3,0.4,12.6,3,18.1
		c-0.1-0.1,1.3,3.3,2.6,5.8H137c1.5-2.6,3-6,2.8-5.9c2.5-5.5,3.8-11.7,2.9-18c-2.2-13.9-11.1-24.8-20.6-31.7h837.5
		C950.1,987.5,941.1,998.3,939,1012.1z"/>
	<polygon class="st0" points="795.5,825.5 784,818 770.4,819.8 781.9,827.3 	"/>
	<path class="st0" d="M766.1,816.4c-0.8-2.6-3.6-4-6.1-3.2c-2.6,0.8-4,3.6-3.2,6.1c0.8,2.6,3.5,4,6.1,3.2
		C765.4,821.7,766.9,818.9,766.1,816.4z"/>
	<path class="st0" d="M757.6,834.7c1.5,0.3,3-0.9,3.3-2.4c0.4-1.7-1.2-5-0.8-6.9c0-0.2-0.4-0.3-0.4-0.3s-0.5-0.1-0.5,0.1
		c-0.4,1.8-3.2,4.2-3.6,5.9C755.3,832.6,756.1,834.4,757.6,834.7z"/>
	<polygon class="st0" points="759.4,795.3 751,784.5 750.3,798.1 758.6,809 	"/>
	<path class="st0" d="M763.1,810.5c0,0,0.5,0.1,0.5-0.1c0.4-1.8,3.2-4.1,3.6-5.9c0.3-1.5-0.5-3.3-2-3.6c-1.5-0.3-3,0.9-3.3,2.4
		c-0.4,1.7,1.2,5,0.8,6.9C762.6,810.3,763.1,810.5,763.1,810.5z"/>
	<path class="st0" d="M840.7,851.9c2.2-7.6,5.6-23.1-2.5-33.6c-8.1-10.5-19.7-10.5-23.7-8.5c-3.9,2-6.8,5.7-6.5,8.9
		c0.2,1.9,2.2,2.5,2.4,0.5c0.1-2,2.4-7.1,8.7-7.4c6.3-0.3,10.6,3,11.3,5.5c0.8,2.5-0.6,2.5-3.1,2.6c-2.5,0.1-4.7-1-5.3-2.9
		c-0.6-1.8-2.1-0.9-2.8,1.6c-1.1,3.8,0.6,8.8,7.5,12.4c4.1,2.1,9.1,1.8,11,3.7c3.4,3.6,2.8,10.3,1,16.5
		C840,851.4,840.2,851.6,840.7,851.9z"/>
	<path class="st0" d="M755.9,812.7c0,0,0.3-0.4,0.2-0.5c-1.4-1.3-2-4.9-3.3-6.1c-1.1-1-3.1-1.2-4.1-0.1c-1,1.1-0.7,3.1,0.4,4.1
		c1.3,1.2,4.9,1.4,6.3,2.8C755.5,813,755.9,812.7,755.9,812.7z"/>
	<polygon class="st0" points="116.2,773.7 105,773.7 101.5,780.3 11.9,780.3 11.9,954.2 134.6,954.2 137.8,960 149.1,959.9 
		154.6,949.7 148.9,939.6 137.7,939.7 134.2,946.1 19.9,946.1 19.9,788.3 101.9,788.3 105.1,794 116.4,794 121.9,783.8 	"/>
	<path class="st0" d="M774.2,811c-1.7,0.5-3.7,3.5-5.5,4.1c-0.2,0-0.1,0.5-0.1,0.5s0.2,0.4,0.4,0.4c1.8-0.5,5.2,0.7,6.9,0.2
		c1.4-0.5,2.6-2.1,2.1-3.5C777.5,811.2,775.7,810.5,774.2,811z"/>
	<path class="st0" d="M773.7,825.5c-1.3-1.2-4.9-1.4-6.3-2.8c-0.1-0.1-0.5,0.2-0.5,0.2s-0.3,0.4-0.2,0.5c1.4,1.3,2,4.9,3.3,6.1
		c1.1,1,3.1,1.2,4.1,0.1C775.2,828.5,774.8,826.5,773.7,825.5z"/>
	<polygon class="st0" points="785.1,792.1 772.9,798.3 767.7,811 779.9,804.8 	"/>
	<path class="st0" d="M696.6,856.5l-1.1,0.1c0.4,15.8-2.5,35.3-13.6,47.4c0-5.1-0.4-10.2-0.3-15.3l0.4-8.5l0.3-8.5
		c0.2-5.7,0.4-11.3,0.8-17l0.2-4.2l0.3-4.2c0.1-2.8,0.4-5.7,0.6-8.5h-8l0.7,8.5l0.4,5.1c-0.7,9.2-1.8,18.5-3.9,27.6
		c-1.3,5.5-4,20.3-11.8,20.6h-0.4c-9.4-0.4-9.5-15.8-9.7-22.2c-0.3-10.5,0.5-20.9,1.2-31.3l0.6-7.9h-8.1l0.3,3.9l0.7,11.8
		c0.1,1.6,0.2,3.2,0.3,4.8l-0.2,4.2c-0.4,7.1-1.1,14.2-2.3,21.1c-0.7,3.6-2.3,15.7-7.6,15.7h-0.1c-4.4-0.4-5.8-8-6.5-11.2
		c-1.2-5.5-1.7-11.2-2-16.9c5.9-18.1,9.6-37,11.9-55.9c1.2-9.6,2-19.2,1.9-28.8c-0.1-3.6,0.4-17.7-5.6-17.4
		c-3.1,0.1-5.1,4.2-6.2,6.6c-1.9,4-3.2,8.2-4.3,12.5c-2.6,9.9-3.9,20-4.5,30.1c-1.2,19.6-0.2,39.4,3.4,58.6
		c-2.8,7.4-6.6,18.7-14.3,22.3c-8.8,4.1-11.7-10.3-12-15.9c-0.6-8.8,0.7-17.8,3.1-26.3c1.8-6.1,5.3-19.9,14.3-18.2v-1.3
		c-4.7,0.8-8.7,1.2-12.7,4.2c-3.7,2.8-6.6,6.6-8.4,10.9c-3.3,7.8-3.9,17-2.7,25.4c-0.3,2-0.6,3.9-0.9,5.8
		c-0.7,3.6-2.3,15.7-7.6,15.7H583c-4.4-0.4-5.8-8-6.5-11.2c-1.2-5.5-1.7-11.2-2-16.9c5.9-18.1,9.6-37,11.9-55.9
		c1.2-9.6,2-19.2,1.9-28.8c-0.1-3.6,0.4-17.7-5.6-17.4c-3.1,0.1-5.1,4.2-6.2,6.6c-1.9,4-3.2,8.2-4.3,12.5c-2.6,9.9-3.9,20-4.5,30.1
		c-1.2,19.6-0.2,39.4,3.4,58.6c-2.8,7.4-6.6,18.7-14.3,22.3c-8.8,4.1-11.7-10.3-12-15.9c-0.6-8.8,0.7-17.8,3.1-26.3
		c1.8-6.1,5.3-19.9,14.3-18.2v-1.3c-4.7,0.8-8.7,1.2-12.7,4.2c-3.7,2.8-6.6,6.6-8.4,10.9c-3.4,8-3.9,17.3-2.7,25.9
		c-0.4,2.9-0.8,5.7-1.4,8.6c-0.6,2.9-2,12.6-6.1,12.9h-0.3l-0.1-0.1c-7.2-0.6-6.5-15.1-6.6-19.9c-0.1-9.5,0.6-18.9,1.2-28.3h-8
		c0,0.4,0,0.7,0.1,0.9h-0.1c0.7,7.9,1,15.8,0.4,23.6c-0.5,6.9-1.5,15.9-6.7,21.2c-5.7,5.8-11.5-1.8-13.4-7.1
		c-2.5-6.7-2.8-14.3-2.5-21.4l0.1-0.5V868c0.4-6.9,2.1-14.9,5.8-20.8c4.3-7,12.8-8.8,20.5-8.8v-1.5c-8.3,0-16.5,2.9-23.3,7.7
		c-7.7,5.4-10.8,13.9-10.8,23.2l0.1,0.6v0.6c0.2,6.2,1.5,12.3,3.8,18.1c2.3,5.3,5.8,11.8,11.6,13.9c13.3,4.9,16.1-17,16.6-25.2
		c0.7,6.1,1.8,25.8,11.3,25.3h0.2l0.1-0.1h0.1c6.1-0.9,7.2-14,8-18.5c0-0.2,0.1-0.4,0.1-0.6c0,0.1,0,0.2,0.1,0.3
		c1.6,7.4,6.1,20.5,15.8,19.1c9-1.3,13.8-14.5,16.7-21.7c1.1,5.3,3.6,21.3,11.2,21.2h0.2c6.6-0.4,8.2-13.1,9-17.9
		c0.1-0.3,0.1-0.7,0.2-1c0,0.1,0,0.2,0,0.3c1.6,7.4,6.1,20.5,15.8,19.1c9-1.3,13.8-14.5,16.7-21.7c1.1,5.3,3.6,21.3,11.2,21.2h0.2
		c6.6-0.4,8.2-13.1,9-17.9c0.9-4.9,1.5-9.9,1.8-14.9c0.4,4.6,1,9.2,1.8,13.8c1.2,6.6,3.7,19.1,12.5,19.1h0.3
		c7.4-0.2,10.5-11.7,12-17.4c2.1-7.8,3.4-15.9,4.2-24l1,12.1l0.7,8.5c0.7,8.4,0.9,16.7,0.9,25.1c-2.2,2.1-4.7,4.2-7.6,5.3l-0.5,0.2
		c-11.2,4.3-20.1,13.6-23.7,25.2c-3,9.8-3,29.4,10.2,31.9c13.9,2.6,19.1-12.6,20.9-23.4c2.2-12.8,2.1-26.1,2-39
		C693.9,893.3,697,872.9,696.6,856.5z M574.4,850c0.2-10.4,0.7-20.7,1.2-31l0.4-6.2l0.8-12.3c0.4-5.8,0.8-11.5,1.7-17.2
		c0.4-2.6,1-10.7,4.4-11.7h0.1c4.2-0.4,4,13.1,4,15.1c0.1,9.2-0.7,18.4-1.8,27.4c-2.1,18-5.6,36.1-10.9,53.5
		C574.2,861.8,574.2,855.9,574.4,850z M627.6,850c0.2-10.4,0.7-20.7,1.2-31l0.4-6.2l0.8-12.3c0.4-5.8,0.8-11.5,1.7-17.2
		c0.4-2.6,1-10.7,4.4-11.7h0.1c4.2-0.4,4,13.1,4,15.1c0.1,9.2-0.7,18.4-1.8,27.4c-2.1,18-5.6,36.1-10.9,53.5
		C627.4,861.8,627.4,855.9,627.6,850z M680.6,922.6c-0.4,11-0.7,22.9-4.8,33.3c-1.8,4.5-4.7,8.6-9.3,10.3c-4.2,1.5-8.8,0.4-11.2-3.5
		c-4.9-8-1.5-20.6,1.3-28.7c3.3-9.6,8.5-17.7,17.5-22.7l1.9-1c1.7-1,3.3-2.2,4.7-3.5C680.8,912,680.8,917.3,680.6,922.6z"/>
	<path class="st0" d="M119.7,853.3c-3.8-4.2-9.5-5.4-12.9-2.8c0.2,0.2,0.3,0.4,0.4,0.6c3.2-0.3,7,1.4,9.8,4.5
		c2.9,3.2,4.1,7.1,3.5,10.3c0.2,0.2,0.4,0.3,0.6,0.5C124,863.3,123.5,857.5,119.7,853.3z"/>
	<path class="st0" d="M56.8,909.4c-0.6-0.5-1.7-1.5-2.6-1.8c-1.1-0.4-2.2,1.4-1.2,2.2c0.7,0.6,2.2,0.5,3.3,0.2
		c-0.8,0.3-2,0.8-2.6,1.4c-1,0.8,0,2.5,1.3,2c0.8-0.3,1.5-1.3,1.9-2.3c-0.2,1-0.3,2.2,0.2,2.9c0.8,1,2.6,0,2.3-1.1
		c-0.3-1-1.4-2.4-1.8-2.9l16.9-16c-0.2-0.2-0.4-0.4-0.5-0.6L56.8,909.4z"/>
	<path class="st0" d="M99.8,918.2l0.3-0.1c0,0,0,0,0,0c-0.1,0.1-2.1,1.1-2.9,2.1c-0.7,0.9,0.6,2.5,1.7,1.8c0.8-0.5,1.2-2,1.2-3
		c0.1,0.9,0.2,2.1,0.5,2.9c0.5,1.2,2.3,0.8,2.2-0.6c0-0.9-0.8-1.8-1.6-2.4c0.9,0.5,2,1,2.8,0.7c1.2-0.4,0.8-2.5-0.3-2.5
		c-1.1,0-3,0.7-3.4,0.9l0.2-0.1l-10.4-21.8c-0.3,0.1-0.5,0.2-0.8,0.3L99.8,918.2z M100.3,918.1c0,0-0.1-0.1-0.1-0.1L100.3,918.1
		C100.2,918,100.2,918.1,100.3,918.1z"/>
	<path class="st0" d="M120.1,867.3C120.1,867.3,120.1,867.3,120.1,867.3C120.1,867.3,120.1,867.3,120.1,867.3
		C120.1,867.3,120.1,867.3,120.1,867.3z"/>
	<path class="st0" d="M120.1,867.3c1.1,0.7,2.1,1.9,2.2,3.8c0.1,3-1.8,4.9-2.8,5.3c-0.5,0.2-0.7,0-0.3-0.3c0.5-0.3,1.3-1.3,1.3-2.2
		c0-0.9-0.7-1.4-1.3-1.4c-0.6,0-1.3,0.5-1.3,1c0,0.5,0.5,0.6,0.6,0.2c0.2-0.4,0.3-0.7,0.7-0.7c0.4,0,0.8,0.5,0.8,1
		c0,0.5-0.5,1.3-1.7,1.4c-1.2,0-2.5,0.7-2.3,1.5c0.1,0.8,0.5,0.9,0.7,0.9c0.3,0,0.2,0.4-0.4,0.6c-3,0.9-8.1,0-11.1-4.3
		c-1-1.5-1.6-3.3-1.9-5.2c3.3,0.6,6.6,0.3,9.2-0.5c0,0,0,0.1,0,0.1c0,1.8,1.3,3,2.6,2.9c1.4,0,2.5-1,2.5-2.2c0-1.3-0.6-2-1.3-2
		c-0.7,0-0.4-0.8,0.8-0.8C118,866.4,119.1,866.6,120.1,867.3c0.1-0.4,0.3-0.9,0.4-1.3c-1-0.8-2.1-1.3-3.3-1.3
		c-2.5,0.1-4,1.6-4.3,3.1c0-0.1,0-0.3,0-0.4c-2.7,0.9-6.2,1.2-9.4,0.5c-0.3-3.3,0.4-6.7,1.5-9.3c-0.1,0-0.3,0-0.4,0
		c1.6-0.2,3.2-1.5,3.6-4c0.1-1.2-0.2-2.4-0.9-3.4c-0.5,0-0.9,0.1-1.3,0.2c0.5,1.1,0.6,2.2,0.5,2.7c-0.2,1.2-0.9,1.5-0.9,0.8
		c0.1-0.7-0.6-1.3-1.9-1.5c-1.3-0.2-2.3,0.9-2.5,2.3c-0.2,1.4,0.9,2.7,2.6,2.9c0,0,0.1,0,0.1,0c-1.1,2.6-1.7,5.8-1.4,9.2
		c-1.8-0.5-3.6-1.2-4.9-2.4c-3.9-3.4-4.3-8.6-3.1-11.5c0.2-0.6,0.6-0.6,0.6-0.3c0,0.3,0,0.6,0.8,0.8c0.8,0.2,1.5-1,1.7-2.2
		c0.2-1.2,1-1.6,1.5-1.5c0.5,0.1,1,0.5,0.9,0.9c0,0.4-0.3,0.5-0.8,0.6c-0.5,0.1-0.4,0.6,0.1,0.7c0.5,0.1,1-0.6,1.1-1.2
		c0.1-0.6-0.4-1.3-1.3-1.4c-0.9-0.1-1.9,0.6-2.3,1c-0.4,0.5-0.6,0.1-0.3-0.3c0.6-0.9,2.5-2.6,5.6-2.2c2,0.2,3,1.4,3.6,2.6
		c0.2-0.2,0.3-0.3,0.5-0.5c0.1-0.1,0.3-0.2,0.4-0.3c-1-1.2-2.5-2.2-4-2.3c-4.9-0.6-9.1,3.1-9.7,7.5c-0.4,3.4,0.8,7.8,3.8,10.3
		c1.7,1.4,3.7,2.3,5.7,2.8c0.3,2.1,1,4.1,2.2,5.9c2.1,3.3,6.4,4.9,9.8,4.9c4.4-0.1,8.5-3.9,8.4-8.9c0-1.5-0.8-3.1-1.9-4.2
		c-0.1,0.1-0.2,0.3-0.4,0.4C120.5,867,120.3,867.1,120.1,867.3z M116.5,865.5c0.3,0,0.5,0.1,0.8,0.2c0.1,0.1,0,0.2-0.1,0.2
		c-1.9-0.5-3.7,1.7-2.7,3c0.2,0.3,0.9,0.8,1,0.6c-0.1-0.2-0.1-0.4,0.2-0.6c0.4-0.2,1.1,0.5,0.6,0.9c-0.4,0.4-1.2,0.3-1.8-0.3
		C112.8,867.6,114.8,865.5,116.5,865.5z M103,856.7c-0.6-0.7-0.6-1.5-0.2-1.8c0.5-0.5,1.1,0.3,0.9,0.7c-0.2,0.3-0.4,0.3-0.6,0.2
		c-0.3,0,0.2,0.8,0.5,1c1.2,1.2,3.5-0.4,3.2-2.3c0.1-0.1,0.1-0.1,0.2-0.1c0.1,0.3,0.1,0.5,0.1,0.8C107,856.8,104.7,858.6,103,856.7z
		"/>
	<path class="st0" d="M105.8,851.4C105.8,851.4,105.8,851.4,105.8,851.4C105.8,851.4,105.8,851.4,105.8,851.4
		C105.8,851.4,105.8,851.4,105.8,851.4z"/>
	<path class="st0" d="M99,883l0.5-0.1c-0.8-5.5-4.8-11.7-10.2-13.8l-0.1,0.4l-0.8-0.2l0.1-0.5c-1.8-0.5-3.7-0.6-5.6-0.1
		c-4.7,1.2-8.1,4-10.1,7.6l0.7,0.4l-0.4,0.7l-0.7-0.4c-1.5,3.1-1.9,6.7-1.1,10.4c0.5,2.3,1.3,4.3,2.5,5.9l0.4-0.4l0.6,0.6l-0.5,0.5
		c2.6,3.1,6.7,4.4,12.1,3.3c1-0.2,2-0.5,3-0.9l0,0l0.8-0.4l0,0.1c5.1-2.2,9.8-6.7,9.5-12c0-0.1,0-0.2,0-0.4l-0.5,0.1L99,883z
		 M86,895.1c-7,1.4-11.4-2-12.8-8.3c-1.5-7,2.3-13.8,9.8-15.8c7.5-2,13.8,6.4,14.2,13C97.6,889.5,91.3,894,86,895.1z"/>
	<path class="st0" d="M52.3,865.3c0.3-0.6,0.9-2.1,0.9-3c0-1.1-1.9-1.6-2.4-0.4c-0.4,0.8,0.2,2.1,0.7,3c-0.5-0.6-1.3-1.5-2-1.9
		c-1-0.6-2.2,0.7-1.4,1.7c0.5,0.6,1.6,0.9,2.6,1c-1,0.1-2.1,0.4-2.5,1c-0.7,1,0.7,2.4,1.7,1.7c0.8-0.5,1.6-1.8,2-2.4l20.4,11
		c0.1-0.2,0.3-0.5,0.4-0.7L52.3,865.3z"/>
	<path class="st0" d="M83.4,873.9c-5.8,1.5-8.6,6.7-7.5,12.1c1,4.8,4.4,7.4,9.7,6.3c4-0.8,8.8-4.2,8.6-8.5
		C93.9,878.8,89.1,872.4,83.4,873.9z M85.3,889.5c-3.8,0.7-6.1-1.1-6.8-4.4c-0.8-3.7,1.2-7.4,5.2-8.4c4-1,7.4,3.4,7.6,6.9
		C91.5,886.5,88.2,888.9,85.3,889.5z"/>
	<path class="st0" d="M93.4,846.1c0.7,0.1,2.4,0.2,3.4-0.1c1.1-0.3,0.9-2.4-0.3-2.6c-1-0.1-2.1,0.9-2.8,1.7c0.5-0.8,1.1-1.8,1.3-2.7
		c0.3-1.2-1.5-2-2.2-0.9c-0.5,0.7-0.4,2-0.2,3c-0.4-0.9-1.1-2-1.9-2.2c-1.2-0.3-2.2,1.5-1.2,2.3c0.8,0.6,2.4,1.1,3.1,1.3l-4.2,22.9
		c0.3,0.1,0.5,0.2,0.8,0.3L93.4,846.1z"/>
	<path class="st0" d="M101.4,870.5c0.3-0.8,0-1.1-0.7-0.9c-0.7,0.2-1.2,0.2-1.8,0.1c0-0.3-0.2-0.6-0.4-0.9c-0.6-0.6-1.5-0.7-2.2-0.1
		c-0.6,0.6-0.7,1.5-0.1,2.2c0.3,0.4,0.8,0.5,1.2,0.5c-0.1,0.6-0.1,1.3,0,1.9c0.6,0,1.4,0.2,1.9,0c-0.1,0.5,0,1,0.4,1.4
		c0.6,0.6,1.5,0.7,2.2,0.1c0.6-0.6,0.7-1.5,0.1-2.2c-0.2-0.3-0.5-0.4-0.9-0.5C101.1,871.6,101.2,871.1,101.4,870.5z"/>
	<path class="st0" d="M261.7,939.4c0.3-0.4,0.6-0.8,1-1.4c1.6,3.7,4.1,6.8,7,6.4c2.1-0.3,5.1-1.4,7.4-3c2.5,1.9,5.2,3.4,6,3.6
		c3.8,1.4,7.1,0.3,10.3-2c1.5,2.7,4.3,6.5,7.1,6.5c2.9,0,5.5-1.7,7.5-3.8c3.7,3,10.2,3.9,13.3,0.6c0.8,0.5,1.7,0.9,2.6,1.2
		c6.2,1.9,9.6-2.9,13.7-6.6c8.5,0.7,16.5,0.5,22.6-1c-3.1-0.9-9.9-3.9-11.2-5.1c-6.5,0-14.3-4-15.1-9.1c-0.8-5-2.5-9.9-4.2-11.5
		c-1.8-1.7-3.7-1.9-5.2-0.1c-1.4,1.8-2.2,3.8-3.3,3.7c-1.1-0.1-2-2.9-2-6.5c0-3.6,0.5-12.3-0.4-15.4c-1-3.2-4.3-6.4-6.1-7.1
		c-1.7-0.7-2.3,0.1-1.7,2.1c0.7,2-1,5-3,4.9c-2.1-0.2-2.8-2.9-1.9-5c0.9-2.1,0.2-6-3.3-8.6c-3.5-2.6-5.1-4.2-5.1-5.9
		c0.1-1.8-2-1.4-4.2,0.4c-3.9,3.3-3.8,11.1-2.2,14.4c1,2.1,0.6,3.8-0.3,4.1c-0.8,0.3-2.8-1.1-2.7-2.7c0.2-1.6-1.5-1.4-2.2,0.2
		c-0.7,1.6-2.5,6.3-1.5,9.3c1.1,3.1,3.1,5.4,4.3,6.2c1.2,0.7,2.1,2.3,1.3,3.3c-1.4,1.8-1,6.5,0.5,8.2c1.1,1.3,1.4,3.9-1.9,0.9
		c-3.4-3-8.9-11.2-9.3-16.8c-0.6-8.1-4.2-11.1-5.6-12.6c-1.4-1.5-2.4-1.8-3.7,0.4c-1.3,2.2-2,3.6-3,3.6c-1,0-2.8-4-1.8-7.6
		c1-3.6,5.6-10.4,6.8-14.7c1.2-4.3-0.6-10.3-5.2-11.7c-1.6-0.5-2.1-0.9-1.6,1.2c0.4,2.1-2.2,5.8-4,5.3c-1.8-0.5-3.5-3.1-2.4-5.8
		c1.1-2.7,2.9-8.7,1.2-12.2c-1.7-3.5-5.5-7.9-4.8-10.4c0.7-2.5-1.3-2.6-3.2-1.5c-1.9,1.1-6.4,5.8-7,10.8c-0.8,7.8,2.5,10.9,1.8,12.1
		c-1.3,2.4-3.3,1-3.6-1.7c-0.3-2.7-1.3-4.3-1-5.5c0.3-1.2-1.3-1.3-2.8-0.1c-1.4,1.2-3.4,4.5-2.5,8c0.8,3.5,2.8,10,2.4,12.3
		c-0.3,1.8-1.5,5-1.4,9.2c-0.3-0.4-0.6-0.8-0.9-1.2c0.1-0.3,0.2-0.6,0.3-0.9c-3.5-4.3-6.5-14.6-4.3-19.2c2.2-4.5,4.1-8.9,3.7-12.5
		c-0.3-3.5-0.8-5.8-0.6-7.1c0.2-1.4-2-1.2-3.3-0.4c-1.3,0.8-2.1-0.2-1.8-1.7c1-4.8-1.6-9.3-0.8-11.2c0.8-2-0.9-1.8-3.1-1.8
		c-2.2,0-6.1,2-6.3,3.9c-0.2,1.9-2.2,1.1-1.6-1.1c0.6-2.2,1.7-5.9,4.6-9.5c3-3.6,6.1-11.1,5.4-14.5c-0.7-3.4-1.1-5.4-2.1-6.6
		c-1-1.2-2.7-1.2-3.4-0.5c-0.7,0.7-1.3,0.6-1.1-1.3c0.2-1.9,1.5-3.8-0.8-6.5c-2.3-2.6-1.7-4.8-3.1-6.9c-1.4-2-2.8-3.8-4.9-1.5
		c-2.1,2.3-3.7,3.1-4.3,4.1c-0.6,1-2.1,0.8-3.9-1c-12.4-11.8-29.3-5.9-29.6,3.2c-0.1,2,2.2,0.5,3-1.5c0.8-2,7.8-6.8,14.2-0.7
		c10.8,10.2,8.4,15.4,14.8,39.1c3.2,12,10.6,29.4,17.5,42.4c-9.7-9.7-21.5-17.4-33.2-20.6c0.3-2.6,0.5-5.3,0.4-8
		c-0.4-16.2-11.9-32.3-23.8-40.2c-15.4-10.2-38.1-7-48.2,10c-6.2,10.4-2.7,27.5,7.5,34.3c10.2,6.8,20,3.6,23.6-2.5
		c3.6-6.1,2-13.1-2.9-16.4c-4.9-3.2-10.9-2.8-13.5,1.6c-2.6,4.4-2.2,8.2,0.2,10c2.4,1.8-0.3,3.5-4.6,0.7c-4.3-2.9-14.7-14.7-7-27.6
		c6.3-10.6,16.7-12.2,21-11.5c2.1,0.3,2.5,1.8,0.2,1.8c-2.4-0.1-7.3,1.3-9.1,4.3c-1.8,3-0.5,6.5,1.4,7.8c1.9,1.3,5.4,1.5,6.5-0.3
		c1.1-1.8-0.3-3.3-1.8-2.3c-1.5,1.1-2.5,1.6-3.8,0.8c-1.3-0.9-1.6-3.4-0.5-5.2c1.1-1.8,4.4-3.3,8.7-0.6c4.3,2.7,10.1,3.7,11.3,0.5
		c1.3-3.2,0.3-4.1-0.6-4.8c-0.9-0.8,0.1-1.9,2.4-1.1c12.3,4.3,28.2,19.6,29.4,41.2c0.1,2.3,0,4.6-0.2,6.9c-11.1-2.1-22,0.1-31.1,8.8
		c-13.3,12.8-12.1,33.6,1,46.1c5.1,4.9,13,6.3,18.4,4.8c3.6,4.4,9.6,9.3,15.1,5.9c0.1,0,0.2-0.1,0.2-0.2c0.9,1,2,1.8,3,2
		c8.1,1.8,1-15.2,0.6-17.4c-1.2-6.4,0-14.2,7.8-15.3c3.7-0.5,7.4,0.9,9,4.6c0.1,0.3,0.3,0.7,0.4,1.1c-0.7,0.5-1.4,1-2,1.6
		c-0.4-0.5-0.8-0.8-1.2-1.1c-6.2-3.9-7,4.2-2.4,6.9c-0.8,3.1-0.6,6.8,3.6,6.3c2.9-0.4,3.3-3.6,2.5-6.8c0.8-1.4,0.9-3.5,0.4-5.6
		c0.7-0.4,1.3-0.8,2-1c7.1-2.8,10.8,3.7,14.5,9.5c-1,0.8-1.8,1.8-2.6,3.1c-0.5,0.8-1.2,2.2-2.3,2.5c-4.4,0.9-6.8-9.7-1.6-4.1
		c0.5,0.6,0.1-0.9-0.1-1.2c-2-2.2-5.8-2.1-4.4,1.8c1.1,3.1,5,7,8.1,4c1.4-1.4,2.2-3.5,3.7-4.8c1.2,1.9,2.5,3.6,4,4.8
		c3.9,3.3,6.3-1.3,3.8-4.8c-1.6-2.2-4.6-3.8-7.2-2.2c-0.3,0.2-0.6,0.4-0.9,0.6c-2-2.9-3.8-5.9-6.2-8.5c-3.3-3.5-7.6-3.4-11.2-1.3
		c-0.2-0.7-0.5-1.3-0.8-1.9c-3.3-6.3-13.4-7.1-16.9-0.2c-1.8,3.6-1.7,7.7-0.8,11.5c0.9,4.1,5.2,11.6,2.7,15.3
		c-1.4,2-3.2,1.5-4.8,0.1c2-1.4,3.9-3.6,3-6.2c-0.4-1.2-2.1-4.1-3.9-3.5c-3.6,1.3-2.9,5.7-0.8,8.8c-5.2,2.6-10.1-0.6-13.6-4.6
		c1.5-0.5,2.7-1.2,3.7-2.1c4.5-4.4,4.2-11.7,1.5-14.9c-2.7-3.2-3-0.8-1.9,0.9c1,1.7,1.1,4.7-0.7,5.5c-1.8,0.8-3.2-1-4.7-1.7
		c-1.5-0.7-4.4-0.5-6.9,2.1c-2.5,2.6-8,3.6-12.8-2.3c-6.5-8.1-3.6-15.3-1-17.6c2.9-2.5,4.6,2.1,2.6,3.5c-1.1,0.8-1.6,2.5,1.9,2.7
		c3.6,0.2,10.6-3.9,10-9.9c-1-11.4,3.8-20.2,10.9-19.8c2.8,0.2,3,1.2,0.7,2.5c-5.5,3-9.2,8.2-9.1,13.3c0,1.4,0.7,2.7,1.8,1.4
		c1.1-1.3,3.4-1.3,3.2,0.1c-0.2,1.4-2.7,3.8-1.7,6.2c1,2.4,0.6,4.5-1,5.5c-1.6,1-1.1,2.8,2.4,2.5c3.5-0.3,9.7-4,10.3-5.8
		c0.6-1.7,1.5-2.2,3.6-0.9c2.1,1.3,4.9,1,6.1-2.5c1.1-3.5,0.4-8.8-0.1-11.7c-1.1-7.1,6.7-7.9,10.8-5.3c2.2,1.4,1.3,2.4-1.4,2.5
		c-2.7,0.2-6.4,3-6,5.3c0.4,2.2,3.9,5.3,9,4.6c5-0.7,10.5-2.9,15.5,1.9c3.6,3.4,10,11.3,14.9,17.6c2.9,7,9.8,15.1,17.8,20.3
		c1,0.9,2,1.8,2.9,2.5c-0.1-0.3-0.2-0.6-0.4-0.9c6.6,3.8,9,6.1,10.3,7c1.3,0.9,0.3,2.2-1.8,1.2c-17.4-8.9-41.2-18.3-56.1-6.7
		c-10.9,8.5-11,18.5-5.9,23.4c2,1.9,4.9,2.8,6.4,1.3c1.6-1.5,1-5.3-2.5-6.3c-3.5-1-5.7-2.7-4.4-6.9c1.5-4.5,7.7-9.3,11.6-9.3
		c2.2,0,2.5,1.9,1.7,3.2c-0.8,1.3-0.5,3.1,0.2,4.3c0.8,1.2,1.9,0.9,3.2-0.6c1.3-1.5,3.5-1.7,5.6-4.5c2.1-2.8,4.5-2.6,5.6-2.7
		c1.1-0.1,2.2,1-0.3,2c-2.6,1-5.4,4.5-6.1,7c-0.7,2.6,0.6,3.5,3.5,3.6c2.9,0.1,6.9-1.2,8.6-2.5c1.7-1.4,3.3-0.5,3.9,1
		c0.7,1.5-1.5,4.1-3.9,3.8c-2.5-0.3-1.8,1.3-0.3,2.9c1.1,1.2,4.4,2.6,7.9,2.6C247,942.3,257.7,944.8,261.7,939.4z M234.6,896.8
		c0.9-0.3,1.7-0.3,2.6,0c2.1,0.6,3.1,2.2,2.9,4.8c-1.2,1.4-2.7,1.1-3.9-0.1c-1.2-1.2-2.3-2.6-3.3-4
		C233.4,897.2,233.9,897,234.6,896.8z M213.6,893c-0.2,0.2-0.4,0.3-0.6,0.4c-0.9,0.4-2,0.5-3,0.2c0.5-1,1.2-1.9,1.9-2.7
		C212.5,891.6,213,892.3,213.6,893z M208.3,892.9c-2.5-3.7-2.2-5.4,1-5c0.5,0.6,1.1,1.3,1.6,1.9c-0.4,0.5-0.8,1.1-1.2,1.6
		c-0.3,0.5-0.6,1.1-0.8,1.8C208.7,893.2,208.5,893,208.3,892.9z M213.3,898.2c-1.1,1.1-5.3,1.5-4.5-1.7c0.1-0.6,0.3-1.2,0.6-1.7
		c0.1,0,0.2,0.1,0.3,0.1c1.9,0.6,3.3,0.4,4.2-0.3C214.1,895.8,214.2,897.3,213.3,898.2z M214.2,892.3c-0.3-0.9-0.7-1.8-1.2-2.5
		c0.5-0.4,1-0.8,1.5-1.2C214.7,889.8,214.7,891.2,214.2,892.3z M193.3,903.5c2.4-0.8,3.6,2.8,2.2,4.5c-0.7,0.9-1.5,1.7-2.5,2.3
		C191.3,907.9,190.7,904.4,193.3,903.5z M276.8,940.1c-1.9-1.9-4.1-5.6-0.9-6.3c3.8-0.8,4.1,3.6,1.7,5.6
		C277.3,939.7,277,939.9,276.8,940.1z M309.2,941.1c0.7,0.2-0.2,1.5-1.6,2.9C306.8,942.3,306.6,940.2,309.2,941.1z M257.2,922.8
		c-0.8-2.8,0.1-5.1,3.8-3.9c3.7,1.2,13.8,7.4,25.6,11.5c8.1,2.8,30.1,8.7,49.8,10.4c-2.3,2.4-4.6,5.3-7.6,6
		c-2.4,0.6-4.4,0.3-6.5-0.8c0,0-0.2-0.1-0.3-0.3c0.4-0.6,0.8-1.3,1-2.1c1-3.8-5.5-4.7-4.6-1c0.3,1.2,1,2.1,1.8,2.8
		c-1.3,1-2.8,1.7-3.6,1.8c-2.6,0.3-5.3,0-7.5-1.5c-0.2-0.1-0.4-0.3-0.5-0.5c0.7-0.8,1.3-1.6,1.9-2.4c2.1-3.1-6.5-4.1-4.7,0
		c0.3,0.7,0.7,1.3,1.3,1.9c-1.8,1.7-3.9,3.4-4.4,3.5c-3.7,0.9-5.5-1.7-7.7-4.3c-0.4-0.4-0.7-0.8-1-1.2c1.6-1.1,4.4-2.9,4.1-5.1
		c-0.2-1.6-3.1-2.4-4.3-1.9c-2.4,1-2,3.8-1.1,5.8c0.1,0.2,0.2,0.5,0.4,0.7c-1.9,1.3-4,2.3-5.9,2.4c-3.7,0.2-6.4-1.6-9.3-3.7
		c0,0-0.1-0.1-0.1-0.1c1.9-1.6,3.1-3.6,2.5-6c-0.8-3.1-4.6-2.5-6.5-1c-2.2,1.8-0.3,4.4,2.5,6.7c-2.3,1.7-5.4,3.5-7.9,2.8
		c-2.2-0.6-4-3.3-5.1-5.9c2-2.7,4.4-6.7,3.1-9.3c-0.9-2-4.5-2.4-5.2,0.1c-0.5,1.8,0,5.4,1.3,8.7c-0.2,0.3-0.3,0.5-0.5,0.8
		c-3.2,4.2-15.1,5-13.1-2.4c1.2-0.1,2.4-0.4,3.5-0.9C257.7,931.7,258.1,925.7,257.2,922.8z M321.1,944.7c-1.4-1.8-3.1-4.6-0.2-3.6
		C323.1,941.8,322.5,943.3,321.1,944.7z M293.3,942c-2-3-1.4-4.8,2.1-5.3c0.7,0.4,1.3,0.8,1.9,1.1C296.5,939.3,295,940.8,293.3,942z
		 M262.7,936.4c-0.4-0.9-0.6-1.8-0.8-2.5c-0.4-1.4-1.1-4,0-5.3c0.6-0.7,5.4-3.1,3.8,1.8C264.9,932.5,263.9,934.6,262.7,936.4z"/>
	<polygon class="st0" points="707.5,868.2 710.8,788 702.8,788 706.1,868.2 	"/>
	<path class="st0" d="M125.2,877.2c-0.1-1.2-2-1.5-2.4-0.4c-0.3,0.9-0.3,2.4-0.2,3.1l-23.1,3.1c0,0.3,0.1,0.5,0.1,0.8l23.2-3.1
		c0.1,0.7,0.5,2.2,1,3c0.6,0.9,2.4,0.2,2.2-1c-0.2-0.9-1.4-1.6-2.4-2c0.8,0.2,2,0.5,2.8,0.4c1.2-0.1,1.4-1.9,0.1-2.2
		c-0.8-0.2-1.9,0.2-2.7,0.7C124.5,878.9,125.2,878,125.2,877.2z"/>
	<path class="st0" d="M961.5,867.3C961.5,867.3,961.5,867.3,961.5,867.3C961.5,867.3,961.5,867.3,961.5,867.3
		C961.5,867.3,961.5,867.3,961.5,867.3z"/>
	<path class="st0" d="M978.9,848.2c-1.5,0.2-3,1.1-4,2.4c0.1,0.1,0.3,0.2,0.4,0.3c0.2,0.2,0.3,0.3,0.5,0.5c0.6-1.2,1.6-2.3,3.6-2.6
		c3-0.4,5,1.3,5.6,2.2c0.3,0.4,0.1,0.7-0.3,0.3c-0.4-0.5-1.4-1.2-2.3-1c-0.9,0.1-1.3,0.9-1.3,1.4c0.1,0.6,0.6,1.2,1.1,1.2
		c0.5-0.1,0.6-0.5,0.1-0.7c-0.5-0.1-0.7-0.2-0.8-0.6c0-0.4,0.4-0.8,0.9-0.9c0.5-0.1,1.3,0.3,1.5,1.5c0.2,1.2,0.9,2.4,1.7,2.2
		c0.8-0.2,0.8-0.5,0.8-0.8c0-0.3,0.4-0.3,0.6,0.3c1.2,2.9,0.8,8.1-3.1,11.5c-1.4,1.2-3.1,2-4.9,2.4c0.3-3.3-0.3-6.6-1.4-9.2
		c0,0,0.1,0,0.1,0c1.7-0.2,2.8-1.6,2.6-2.9c-0.2-1.4-1.2-2.4-2.5-2.3c-1.2,0.2-1.9,0.8-1.9,1.5c0.1,0.7-0.7,0.5-0.9-0.8
		c-0.1-0.6,0-1.7,0.5-2.7c-0.4-0.1-0.9-0.2-1.3-0.2c-0.7,1.1-1,2.3-0.9,3.4c0.3,2.5,2,3.8,3.6,4c-0.1,0-0.3,0-0.4,0
		c1.1,2.6,1.8,6.1,1.5,9.3c-3.2,0.6-6.7,0.3-9.5-0.5c0,0.1,0,0.3,0,0.4c-0.3-1.5-1.8-3.1-4.3-3.1c-1.2,0-2.3,0.5-3.3,1.2
		c0.1,0.5,0.2,0.9,0.4,1.3c1-0.6,2.1-0.8,2.7-0.8c1.2,0,1.6,0.8,0.9,0.8c-0.7,0-1.3,0.8-1.3,2c0,1.3,1.1,2.2,2.5,2.2
		c1.4,0,2.6-1.2,2.6-2.9c0,0,0-0.1,0-0.1c2.7,0.8,6,1.1,9.3,0.5c-0.3,1.9-0.9,3.7-1.9,5.2c-3,4.3-8.1,5.1-11.1,4.3
		c-0.6-0.2-0.6-0.5-0.4-0.6c0.3,0,0.6-0.1,0.7-0.9c0.1-0.8-1.1-1.4-2.3-1.5c-1.2-0.1-1.7-0.8-1.7-1.4c0-0.5,0.4-1,0.8-1
		c0.4,0,0.5,0.2,0.7,0.7c0.2,0.4,0.6,0.3,0.6-0.2c0-0.5-0.7-1-1.3-1c-0.6,0-1.2,0.5-1.3,1.4c0,0.9,0.8,1.8,1.3,2.2
		c0.5,0.3,0.2,0.6-0.3,0.3c-0.9-0.5-2.8-2.3-2.8-5.3c0-2,1.1-3.2,2.2-3.8c-0.2-0.1-0.4-0.3-0.6-0.4c-0.1-0.1-0.2-0.2-0.4-0.4
		c-1.1,1.1-1.9,2.7-1.9,4.2c-0.1,4.9,4.1,8.8,8.4,8.9c3.4,0.1,7.7-1.6,9.8-4.9c1.2-1.8,1.9-3.9,2.2-5.9c2-0.5,4-1.4,5.7-2.8
		c3-2.4,4.2-6.9,3.8-10.3C988,851.3,983.7,847.6,978.9,848.2z M974.4,855.1c0-0.3,0-0.5,0.1-0.8c0.1-0.1,0.2-0.1,0.2,0.1
		c-0.3,2,2,3.5,3.2,2.3c0.3-0.2,0.7-1,0.5-1c-0.2,0.1-0.4,0.1-0.6-0.2c-0.2-0.4,0.4-1.1,0.9-0.7c0.4,0.4,0.4,1.2-0.1,1.8
		C976.9,858.6,974.6,856.8,974.4,855.1z M967,869.5c-0.6,0.6-1.4,0.7-1.8,0.3c-0.5-0.4,0.1-1.1,0.6-0.9c0.3,0.2,0.4,0.4,0.2,0.6
		c0,0.3,0.8-0.3,1-0.6c1.1-1.3-0.7-3.5-2.7-3c-0.1-0.1-0.1-0.1-0.1-0.2c0.3-0.1,0.5-0.1,0.8-0.2C966.8,865.5,968.8,867.6,967,869.5z
		"/>
	<path class="st0" d="M706.7,898.9c6.5,0,6.5-10.1,0-10.1C700.2,888.9,700.2,898.9,706.7,898.9z"/>
	<path class="st0" d="M740,624h-6.8v80.3h7.2c6.1,0,8.1-2.2,8.1-12v-56.9C748.5,627.9,745.3,624,740,624z"/>
	<path class="st0" d="M964.6,855.7c2.9-3.2,6.6-4.8,9.8-4.5c0.1-0.2,0.3-0.4,0.4-0.6c-3.4-2.6-9.1-1.5-12.9,2.8
		c-3.8,4.2-4.4,10-1.4,13.2c0.2-0.2,0.4-0.3,0.6-0.5C960.5,862.8,961.7,858.9,964.6,855.7z"/>
	<path class="st0" d="M438.4,862.4l-0.7-1.2c-8,4.4-9,18.5-7.9,26.3c1.6,10,8.6,17.6,19,18.4l2.8,0.1c10,0.4,17.7-7.8,22.5-15.8
		c5-8.4,7.8-18,8.9-27.7c2.1-19.8-2.9-41.5-17.2-55.9c-13.2-13.4-33.5-18.1-51.8-15.7c-9.6,1.2-19,5-25.7,12.2
		c-6.4,7.1-9.3,16.9-8.4,26.3c0.2,2.5,0.7,4.9,1.5,7.2c-3,0.3-5.9,0.7-8.8,1.5c-13.4,3.4-23.6,13.6-25.1,27.7
		c-1.5,14.7,6.9,28.9,20.4,35c12.4,5.6,28.5,5.5,39.9-2.3c11.2-7.7,17.4-21.5,18.3-34.7l0.2-2.8c1-14.2,2.5-28.8,1.4-43.1h-8
		c-1,14.3,0.4,28.9,1.4,43.1l0.2,2.7c0.8,13-3.3,26.3-14.4,33.9c-11.1,7.5-27.4,7.9-39,1.1c-12.3-7.2-18.2-22.3-15-36.1
		c3.2-13.8,14.7-23.6,28.8-24.9c1.9,5.2,5.3,10.2,10.4,12.6c5.1,2.3,12,1.3,16.6-1.9c9.1,14.5,0.4,36.3-16.3,40.5
		c-7.3,1.8-15,0.3-20.1-5.5c-5.4-6.3-7-16.4-1-22.8l-0.9-0.9c-6.1,6.6-5,16.7,0.1,23.4c5.1,6.6,13.1,9,21.1,7.3
		c18.1-3.7,28-27.2,18-42.8c4.8-4,6.6-10.6,6-16.6c-0.4-4.2-2.5-10.8-7.6-10.8l-0.1,1.4c4.4,0.1,6,6.1,6.3,9.5
		c0.6,5.6-1,11.7-5.4,15.4c-5.1-7-13.7-10-22.1-10l-0.7,0.1c-1.1,0-2.2,0-3.3,0.1c-6.4-19.1,5.5-37.7,24.2-42.8
		c17.4-4.7,38-1.9,51.2,11.1c14.3,14.2,18,36.3,17,55.7c-0.5,9-2,18.3-5.3,26.8c-3.1,7.9-8.9,16.8-18.3,17.3h-0.3l-0.4,0.1
		c-9.6,0.1-17.2-6.1-19.3-15.3c-1.2-4.9-1-10.1,0.1-15.1C432.7,870.2,434.5,864.5,438.4,862.4z M383.5,837.5
		c0.9-0.1,1.8-0.1,2.7-0.1l0.7,0.1c8,0.2,16.2,2.8,21.2,9.6c-3.6,2.6-8.9,3.6-13.2,2.5c-5.8-1.5-9.6-6.8-11.5-12H383.5z"/>
	<path class="st0" d="M794.5,708.4v-88c0-18.8-7.9-34.8-28.9-34.8h-78.1v17.5h-36.5l30,140.7h78.8
		C786,743.9,794.5,737.1,794.5,708.4z M694.3,592.3h71.3c13.8,0,22.1,9,22.1,28.2v88c0,19-2.6,28.4-21.2,28.4h-72.2V592.3z"/>
	<path class="st0" d="M912,799c-11.9,7.9-23.4,24-23.8,40.2c-0.1,2.7,0.1,5.4,0.4,8c-11.8,3.1-23.5,10.9-33.2,20.6
		c7-13,14.3-30.4,17.5-42.4c6.4-23.7,4-28.9,14.8-39.1c6.4-6.1,13.4-1.3,14.2,0.7c0.8,2,3.1,3.4,3,1.5c-0.3-9.1-17.2-15-29.6-3.2
		c-1.9,1.8-3.4,2.1-3.9,1c-0.6-1-2.2-1.8-4.3-4.1c-2.1-2.3-3.5-0.5-4.9,1.5c-1.4,2-0.9,4.2-3.1,6.9c-2.3,2.6-1,4.6-0.8,6.5
		c0.2,1.9-0.4,2-1.1,1.3c-0.7-0.7-2.4-0.6-3.4,0.5c-1,1.2-1.4,3.2-2.1,6.6c-0.7,3.4,2.4,11,5.4,14.5c3,3.6,4.1,7.3,4.7,9.5
		c0.5,2.2-1.4,3-1.6,1.1c-0.2-1.9-4.1-3.9-6.3-3.9c-2.2,0-3.9-0.2-3.1,1.8c0.8,2-1.8,6.5-0.8,11.2c0.3,1.4-0.4,2.5-1.8,1.7
		c-1.3-0.8-3.5-1-3.3,0.4c0.2,1.4-0.2,3.6-0.6,7.1c-0.3,3.5,1.5,7.9,3.7,12.5c2.2,4.5-0.8,14.9-4.3,19.2c0.1,0.3,0.3,0.6,0.3,0.9
		c-0.3,0.4-0.6,0.8-0.9,1.2c0.1-4.1-1.1-7.4-1.4-9.1c-0.4-2.4,1.5-8.8,2.4-12.3c0.8-3.5-1.1-6.8-2.5-8c-1.4-1.2-3.1-1.2-2.8,0.1
		c0.3,1.2-0.6,2.8-1,5.5c-0.4,2.7-2.3,4.1-3.6,1.7c-0.7-1.3,2.6-4.3,1.8-12.1c-0.5-5.1-5.1-9.7-7-10.8c-1.9-1.1-3.8-1-3.2,1.5
		c0.7,2.4-3.1,6.9-4.8,10.4c-1.7,3.5,0.1,9.5,1.2,12.2c1.1,2.7-0.6,5.4-2.4,5.8c-1.8,0.5-4.4-3.2-4-5.3c0.4-2.1,0-1.7-1.6-1.2
		c-4.6,1.4-6.4,7.4-5.2,11.7c1.2,4.3,5.8,11.1,6.8,14.7c1,3.6-0.8,7.6-1.8,7.6c-1,0-1.7-1.4-3-3.6c-1.3-2.2-2.3-1.9-3.7-0.4
		c-1.4,1.5-5,4.5-5.6,12.6c-0.4,5.6-5.9,13.8-9.3,16.8c-3.4,3-3.1,0.4-1.9-0.9c1.5-1.8,1.9-6.4,0.5-8.2c-0.8-1,0.1-2.6,1.3-3.3
		c1.2-0.7,3.3-3.1,4.3-6.2c1.1-3.1-0.8-7.7-1.5-9.3c-0.7-1.6-2.4-1.8-2.2-0.2c0.2,1.6-1.8,3.1-2.6,2.7c-0.9-0.3-1.3-2-0.3-4.1
		c1.6-3.3,1.7-11.1-2.2-14.4c-2.2-1.8-4.2-2.1-4.2-0.4c0.1,1.7-1.6,3.3-5.1,5.9c-3.5,2.7-4.2,6.5-3.3,8.6c0.9,2.1,0.2,4.8-1.8,5
		c-2.1,0.2-3.7-2.9-3.1-4.9c0.7-2,0.1-2.8-1.7-2.1c-1.7,0.7-5.1,4-6.1,7.1c-0.9,3.2-0.5,11.8-0.4,15.4c0,3.6-0.9,6.3-2,6.5
		c-1.1,0.1-1.9-1.8-3.3-3.7c-1.4-1.8-3.4-1.6-5.2,0.1c-1.8,1.7-3.5,6.5-4.2,11.5c-0.8,5-8.6,9.1-15.1,9.1c-1.3,1.2-8.1,4.2-11.2,5.1
		c6.1,1.6,14.1,1.7,22.6,1c4.1,3.8,7.5,8.6,13.7,6.6c0.9-0.3,1.8-0.7,2.6-1.2c3.2,3.2,9.6,2.3,13.3-0.6c2.1,2.1,4.7,3.8,7.5,3.8
		c2.8,0,5.6-3.7,7.1-6.5c3.2,2.3,6.5,3.4,10.3,2c0.8-0.3,3.5-1.8,6-3.6c2.3,1.7,5.3,2.7,7.4,3c2.9,0.4,5.4-2.7,7-6.4
		c0.4,0.5,0.7,1,1,1.4c4.1,5.4,14.7,2.9,13.8-4c3.5,0.1,6.8-1.4,7.9-2.6c1.5-1.7,2.2-3.2-0.3-2.9c-2.5,0.3-4.6-2.3-3.9-3.8
		c0.7-1.5,2.3-2.4,4-1c1.7,1.4,5.7,2.6,8.6,2.5c2.9-0.1,4.2-1,3.5-3.6c-0.7-2.6-3.5-6-6.1-7c-2.5-1-1.4-2.1-0.3-2
		c1.1,0.1,3.4-0.1,5.6,2.7c2.1,2.8,4.3,3,5.6,4.5c1.3,1.5,2.4,1.8,3.2,0.6c0.8-1.2,1.1-3.1,0.2-4.3c-0.8-1.3-0.5-3.2,1.7-3.2
		c3.9-0.1,10.2,4.8,11.6,9.3c1.3,4.2-0.9,5.9-4.4,6.9c-3.5,1-4.1,4.8-2.5,6.3c1.6,1.5,4.4,0.6,6.4-1.3c5.2-4.9,5.1-14.9-5.9-23.4
		c-14.9-11.6-38.7-2.2-56.1,6.7c-2,1-3.1-0.3-1.8-1.2c1.3-0.9,3.7-3.2,10.3-7c-0.1,0.3-0.2,0.6-0.4,0.9c0.9-0.7,1.9-1.5,2.9-2.5
		c8-5.2,14.9-13.3,17.8-20.2c4.9-6.3,11.3-14.2,14.9-17.6c5-4.8,10.5-2.6,15.5-1.9c5,0.7,8.5-2.4,9-4.6c0.4-2.2-3.3-5.1-6-5.3
		c-2.7-0.2-3.6-1.1-1.4-2.5c4-2.6,11.8-1.8,10.8,5.3c-0.4,2.9-1.2,8.2-0.1,11.7c1.1,3.5,3.9,3.8,6.1,2.5s3.1-0.9,3.7,0.9
		c0.6,1.7,6.7,5.5,10.3,5.8c3.5,0.3,4-1.5,2.4-2.5c-1.6-1-2-3.1-0.9-5.5c1-2.4-1.5-4.8-1.7-6.2c-0.2-1.4,2.1-1.3,3.2-0.1
		c1.1,1.3,1.7,0,1.8-1.4c0.1-5.1-3.6-10.3-9.1-13.3c-2.3-1.2-2.1-2.3,0.7-2.5c7.1-0.4,11.9,8.4,10.9,19.8c-0.5,6,6.5,10.1,10,9.9
		c3.6-0.2,3-1.9,1.9-2.7c-2-1.5-0.4-6,2.5-3.5c2.6,2.2,5.6,9.5-1,17.6c-4.8,5.9-10.3,5-12.8,2.3c-2.5-2.6-5.4-2.8-6.9-2.1
		c-1.5,0.7-2.9,2.5-4.7,1.7c-1.8-0.8-1.7-3.8-0.7-5.5c1-1.7,0.7-4.1-1.9-0.9c-2.7,3.2-3,10.6,1.5,14.9c1,0.9,2.2,1.6,3.7,2.1
		c-3.6,4-8.4,7.3-13.6,4.6c2.1-3.2,2.8-7.6-0.8-8.8c-1.7-0.6-3.4,2.3-3.9,3.5c-0.9,2.6,1,4.7,3,6.2c-1.5,1.4-3.4,1.9-4.8-0.1
		c-2.6-3.7,1.7-11.2,2.7-15.3c0.9-3.9,1-7.9-0.8-11.5c-3.5-6.9-13.5-6.1-16.9,0.2c-0.3,0.6-0.6,1.2-0.8,1.9
		c-3.6-2.1-7.8-2.3-11.2,1.3c-2.4,2.6-4.2,5.6-6.2,8.5c-0.3-0.2-0.6-0.4-0.9-0.6c-2.7-1.6-5.6,0-7.2,2.2c-2.5,3.4-0.2,8,3.8,4.8
		c1.4-1.2,2.7-2.9,4-4.8c1.5,1.3,2.3,3.4,3.7,4.8c3.1,3,7-1,8.1-4c1.4-3.8-2.4-3.9-4.4-1.8c-0.2,0.3-0.7,1.8-0.1,1.2
		c5.1-5.6,2.7,4.9-1.6,4.1c-1.1-0.2-1.7-1.6-2.3-2.5c-0.8-1.2-1.6-2.2-2.6-3.1c3.7-5.8,7.4-12.3,14.5-9.5c0.7,0.3,1.4,0.6,2,1
		c-0.4,2-0.4,4.2,0.4,5.6c-0.8,3.2-0.4,6.4,2.5,6.8c4.1,0.6,4.3-3.2,3.6-6.3c4.6-2.7,3.8-10.8-2.4-6.9c-0.4,0.2-0.8,0.6-1.2,1.1
		c-0.6-0.6-1.3-1.1-2-1.6c0.1-0.4,0.3-0.8,0.4-1.1c1.6-3.7,5.3-5.1,9-4.6c7.8,1.1,9,8.9,7.8,15.3c-0.4,2.3-7.6,19.3,0.6,17.4
		c1-0.2,2.1-1,3-2c0.1,0.1,0.2,0.1,0.2,0.2c5.6,3.5,11.5-1.4,15.1-5.9c5.5,1.5,13.3,0,18.4-4.8c13.2-12.5,14.3-33.4,1-46.1
		c-9.1-8.7-20-10.9-31.1-8.8c-0.3-2.3-0.4-4.6-0.2-6.9c1.2-21.6,17.1-37,29.4-41.2c2.3-0.8,3.4,0.3,2.5,1.1
		c-0.9,0.8-1.9,1.7-0.6,4.8c1.3,3.2,7.1,2.2,11.4-0.5c4.3-2.7,7.6-1.2,8.7,0.6c1.1,1.8,0.8,4.4-0.5,5.2c-1.3,0.9-2.2,0.3-3.8-0.8
		c-1.5-1.1-2.9,0.4-1.8,2.3c1.1,1.8,4.6,1.6,6.5,0.3c1.9-1.3,3.2-4.8,1.4-7.8c-1.8-3-6.7-4.3-9.1-4.3c-2.4,0.1-1.9-1.4,0.2-1.8
		c4.3-0.7,14.7,1,21,11.5c7.7,12.9-2.6,24.7-7,27.6c-4.3,2.9-7.1,1.1-4.6-0.7c2.4-1.8,2.8-5.6,0.2-10c-2.6-4.4-8.7-4.8-13.5-1.6
		c-4.9,3.2-6.5,10.3-2.9,16.4c3.6,6.1,13.4,9.3,23.6,2.5c10.2-6.8,13.7-23.9,7.5-34.3C950.1,792,927.4,788.8,912,799z M773.9,944
		c-1.4-1.4-2.3-2.7-1.6-2.9C775,940.2,774.8,942.3,773.9,944z M804,939.4c-2.4-2-2.1-6.4,1.7-5.6c3.2,0.7,1,4.3-0.9,6.3
		C804.5,939.9,804.3,939.6,804,939.4z M820.5,918.9c3.7-1.2,4.6,1.1,3.8,3.9c-0.8,2.8-0.5,8.9,5.1,11.6c1.1,0.5,2.3,0.8,3.5,0.9
		c2,7.4-9.9,6.6-13.1,2.4c-0.2-0.3-0.4-0.5-0.5-0.8c1.2-3.3,1.8-6.8,1.3-8.7c-0.7-2.4-4.2-2-5.2-0.1c-1.3,2.7,1.1,6.6,3.1,9.4
		c-1.2,2.6-2.9,5.3-5.1,5.9c-2.5,0.7-5.6-1.1-7.9-2.8c2.7-2.3,4.7-4.9,2.5-6.7c-1.9-1.5-5.7-2.1-6.5,1c-0.6,2.4,0.6,4.4,2.5,6
		c0,0-0.1,0.1-0.1,0.1c-2.9,2-5.6,3.9-9.3,3.7c-1.8-0.1-4-1.1-5.9-2.4c0.1-0.2,0.3-0.5,0.4-0.7c1-2,1.3-4.8-1.1-5.8
		c-1.1-0.5-4.1,0.3-4.3,1.9c-0.2,2.1,2.5,3.9,4.1,5.1c-0.3,0.4-0.6,0.8-1,1.2c-2.2,2.6-4.1,5.1-7.7,4.3c-0.5-0.1-2.6-1.8-4.4-3.5
		c0.5-0.6,1-1.2,1.3-1.9c1.8-4.1-6.8-3.1-4.7,0c0.5,0.8,1.2,1.6,1.9,2.4c-0.2,0.2-0.4,0.4-0.5,0.5c-2.3,1.5-4.9,1.9-7.5,1.5
		c-0.8-0.1-2.3-0.8-3.6-1.8c0.8-0.8,1.5-1.7,1.8-2.8c1-3.7-5.6-2.8-4.6,1c0.2,0.8,0.6,1.5,1,2.1c-0.2,0.2-0.3,0.3-0.3,0.3
		c-2.2,1.1-4.2,1.4-6.5,0.8c-3-0.7-5.3-3.6-7.6-6c19.6-1.7,41.7-7.6,49.8-10.4C806.7,926.3,816.8,920.2,820.5,918.9z M818.9,936.4
		c-1.2-1.9-2.3-3.9-3-6c-1.7-5,3.1-2.5,3.7-1.8c1.2,1.3,0.4,3.9,0,5.3C819.6,934.6,819.3,935.5,818.9,936.4z M788.3,942
		c-1.7-1.2-3.2-2.8-4-4.2c0.7-0.4,1.3-0.8,1.9-1.1C789.7,937.3,790.3,939,788.3,942z M760.7,941c2.9-1,1.1,1.9-0.2,3.6
		C759.1,943.3,758.5,941.8,760.7,941z M845.4,901.5c-1.2,1.2-2.7,1.4-3.9,0.1c-0.1-2.6,0.8-4.2,2.9-4.8c0.9-0.2,1.7-0.2,2.6,0
		c0.7,0.1,1.2,0.4,1.7,0.7C847.7,898.9,846.6,900.3,845.4,901.5z M872.7,896.4c0.8,3.2-3.3,2.9-4.5,1.7c-0.8-0.9-0.8-2.3-0.6-3.7
		c0.9,0.7,2.2,0.9,4.2,0.3c0.1,0,0.2-0.1,0.3-0.1C872.4,895.3,872.6,895.9,872.7,896.4z M869.7,890.9c0.7,0.8,1.4,1.7,1.9,2.7
		c-1,0.2-2.1,0.2-3-0.2c-0.2-0.1-0.4-0.3-0.6-0.4C868.6,892.3,869.1,891.6,869.7,890.9z M873.3,892.9c-0.2,0.1-0.4,0.2-0.6,0.3
		c-0.2-0.7-0.5-1.3-0.8-1.8c-0.4-0.6-0.8-1.1-1.2-1.6c0.5-0.6,1.1-1.3,1.6-1.9C875.5,887.5,875.8,889.2,873.3,892.9z M868.6,889.7
		c-0.4,0.8-0.8,1.6-1.2,2.5c-0.5-1-0.5-2.4-0.3-3.7C867.6,888.9,868.1,889.3,868.6,889.7z M886,908c-1.4-1.7-0.1-5.3,2.3-4.5
		c2.6,0.9,2,4.4,0.3,6.8C887.6,909.7,886.8,908.9,886,908z"/>
	<polygon class="st0" points="39.3,829.1 43.6,825.3 44.3,830.6 45.8,830 45,824 51.1,818.6 52.6,826.7 48.2,830.8 49.1,832.2 
		52.9,828.5 53.9,834.2 55.8,833.9 54.6,828.1 59.6,830.2 59.9,828.6 54.2,826.3 52.6,818.3 60.3,821.1 61.8,826.9 63.4,826.9 
		62,821.7 67.6,823.7 68.1,821.9 62.6,820 66.9,816.8 65.6,815.8 60.9,819.4 53.1,816.9 59.4,811.6 65.1,813.3 65.9,811.8 
		60.8,810.4 65.2,806.6 64,805.2 59.6,809.1 58.9,803.8 57.4,804.3 58.2,810.3 52.1,815.7 50.7,807.7 55,803.5 54.2,802.1 
		50.3,805.8 49.3,800.1 47.4,800.5 48.6,806.2 43.6,804.1 43.4,805.7 49,808 50.6,816 42.9,813.3 41.4,807.4 39.8,807.4 41.2,812.6 
		35.7,810.6 35.1,812.5 40.6,814.3 36.3,817.5 37.6,818.6 42.3,814.9 50.1,817.5 43.9,822.7 38.1,821.1 37.3,822.5 42.4,823.9 
		38,827.7 	"/>
	<path class="st0" d="M98.9,895.4c-0.4,0.8-0.2,1.7,0.5,2.1c0.7,0.4,1.7,0.2,2.1-0.6c0.2-0.3,0.2-0.7,0.2-1c0.5-0.2,1-0.3,1.6-0.2
		c0.8,0.1,1.1-0.3,0.7-0.9c-0.4-0.6-0.6-1.1-0.6-1.7c0.3-0.1,0.6-0.4,0.8-0.7c0.4-0.7,0.2-1.7-0.5-2.1c-0.7-0.4-1.7-0.2-2.1,0.6
		c-0.2,0.4-0.3,0.9-0.1,1.3c-0.6,0-1.2,0.3-1.8,0.6c0.2,0.6,0.3,1.4,0.5,1.8C99.6,894.6,99.1,894.9,98.9,895.4z"/>
	<path class="st0" d="M49.5,903.3c3.6,3.3,9.2,2.8,12.2-0.4c2.3-2.5,4-6.8,3-10.6c-0.6-2.1-1.6-4-3-5.6c1-1.8,1.6-3.9,1.7-6.1
		c0.2-3.9-2.3-7.8-5.1-9.7c-3.6-2.5-9.2-1.8-12,2.2c-0.9,1.3-1.2,3-0.9,4.5c0.2,0,0.3-0.1,0.5-0.1c0.2,0,0.5,0,0.7,0
		c-0.5-1.2-0.6-2.8,0.5-4.4c1.7-2.5,4.3-2.9,5.4-2.7c0.5,0.1,0.6,0.5,0,0.4c-0.6,0-1.8,0.3-2.3,1c-0.5,0.7-0.3,1.6,0.2,1.9
		c0.4,0.3,1.3,0.4,1.6,0c0.3-0.4,0-0.8-0.4-0.5c-0.4,0.2-0.6,0.4-0.9,0.2c-0.3-0.2-0.3-0.8,0-1.3c0.3-0.4,1.1-0.8,2.1-0.1
		c1,0.7,2.4,0.9,2.8,0.2c0.4-0.8,0.2-1-0.1-1.2c-0.2-0.2,0.1-0.4,0.6-0.2c2.9,1.1,6.6,4.8,6.4,10c0,1.8-0.6,3.6-1.5,5.3
		c-2.3-2.4-5.1-4.1-7.8-5.1c0,0,0,0,0.1-0.1c1-1.4,0.7-3.1-0.4-3.9c-1.1-0.8-2.6-0.7-3.4,0.3c-0.7,1-0.7,2-0.1,2.4
		c0.6,0.4-0.1,0.8-1.1,0.1c-0.5-0.3-1.2-1.1-1.7-2.2c-0.4,0.2-0.7,0.5-1.1,0.8c0.3,1.2,1,2.3,2,3c2,1.4,4.2,1.1,5.3,0
		c-0.1,0.1-0.2,0.2-0.2,0.3c2.7,0.9,5.7,2.7,8,5.1c-1.7,2.8-4.3,5.2-6.7,6.7c0.1,0.1,0.2,0.2,0.3,0.3c-1.4-0.8-3.5-0.7-5.2,1.1
		c-0.8,0.9-1.2,2.1-1.3,3.3c0.4,0.2,0.8,0.4,1.2,0.6c0.2-1.2,0.8-2.1,1.2-2.5c0.8-0.9,1.6-0.7,1.2-0.1c-0.5,0.5-0.3,1.5,0.6,2.3
		c0.9,0.9,2.4,0.6,3.3-0.4c0.9-1,0.9-2.7-0.4-3.9c0,0-0.1,0-0.1-0.1c2.4-1.4,4.8-3.7,6.5-6.6c1.2,1.5,2.1,3.1,2.6,4.8
		c1.2,5.1-1.6,9.5-4.2,11.1c-0.5,0.3-0.8,0.1-0.7-0.1c0.2-0.2,0.3-0.5-0.2-1.1c-0.5-0.7-1.8-0.1-2.7,0.8c-0.8,0.9-1.7,0.7-2.1,0.3
		c-0.4-0.4-0.5-1-0.2-1.2c0.3-0.3,0.5-0.2,1,0c0.4,0.2,0.7-0.3,0.3-0.6c-0.4-0.4-1.2-0.1-1.6,0.3c-0.4,0.4-0.4,1.3,0.2,1.9
		c0.6,0.6,1.9,0.6,2.5,0.5c0.6-0.2,0.6,0.2,0.1,0.4c-1,0.4-3.6,0.6-5.8-1.5c-1.4-1.3-1.6-2.9-1.4-4.2c-0.2,0-0.5,0.1-0.7,0.1
		c-0.2,0-0.3,0-0.5,0C47.8,900.6,48.4,902.2,49.5,903.3z M48.5,881.2c-0.3-0.2-0.4-0.4-0.6-0.6c0-0.1,0.1-0.2,0.2-0.1
		c1.2,1.5,4,0.8,3.9-0.8c0-0.3-0.3-1.2-0.5-1c0,0.2-0.1,0.4-0.5,0.3c-0.5-0.1-0.6-1.1,0.1-1.1c0.6-0.1,1.2,0.5,1.3,1.3
		C52.8,881.6,49.9,882.2,48.5,881.2z M53.3,897.9c-0.7,0.1-0.8-0.9-0.3-1.1c0.4-0.1,0.5,0,0.6,0.2c0.2,0.1,0.3-0.8,0.2-1.1
		c-0.3-1.7-3.1-1.8-4,0c-0.1,0.1-0.2,0-0.2-0.1c0.1-0.3,0.2-0.5,0.4-0.7c1.2-1.3,4.1-1.3,4.3,1.2C54.3,897.2,53.9,897.8,53.3,897.9z
		"/>
	<path class="st0" d="M48.9,898.9C48.9,898.9,48.9,898.9,48.9,898.9C48.9,898.9,48.9,898.9,48.9,898.9
		C48.9,898.9,48.9,898.9,48.9,898.9z"/>
	<path class="st0" d="M67.7,845.2c3.9-1.7,8-1.7,10.8-0.1c0.2-0.1,0.4-0.3,0.6-0.4c-2.1-3.8-7.7-5.1-12.9-2.7
		c-5.2,2.3-8.1,7.4-6.6,11.5c0.2-0.1,0.5-0.2,0.7-0.2C61,850,63.7,846.9,67.7,845.2z"/>
	<path class="st0" d="M42.4,888.8c-0.4-4.3,0.9-8.1,3.2-10.3c-0.1-0.2-0.1-0.5-0.2-0.7c-4.3,0.8-7.2,5.8-6.6,11.5
		c0.6,5.7,4.5,9.9,8.8,9.8c0-0.2,0-0.5,0-0.7C45,896.7,42.8,893.1,42.4,888.8z"/>
	<path class="st0" d="M60.1,854.5C60.1,854.5,60.1,854.5,60.1,854.5C60.1,854.5,60.1,854.5,60.1,854.5
		C60.1,854.5,60.1,854.5,60.1,854.5z"/>
	<path class="st0" d="M79.1,864.6c-0.3,0.1-0.6,0.4-0.7,0.7c-0.5-0.1-0.9-0.4-1.4-0.7c-0.6-0.5-1-0.4-1.1,0.4c0,0.7-0.2,1.2-0.5,1.7
		c-0.3-0.1-0.7-0.1-1,0.1c-0.8,0.3-1.1,1.3-0.8,2c0.3,0.8,1.3,1.1,2,0.8c0.4-0.2,0.7-0.6,0.9-1c0.5,0.3,1.2,0.5,1.8,0.6
		c0.2-0.6,0.6-1.2,0.6-1.8c0.4,0.3,1,0.3,1.5,0.1c0.8-0.4,1.1-1.3,0.8-2C80.8,864.6,79.9,864.3,79.1,864.6z"/>
	<path class="st0" d="M63.7,886c-0.7,0.4-0.7,0.9,0,1.1c0.6,0.3,1.1,0.6,1.5,1c-0.2,0.3-0.3,0.6-0.2,1c0.1,0.9,0.9,1.5,1.7,1.4
		c0.8-0.1,1.4-0.9,1.3-1.7c-0.1-0.5-0.3-0.9-0.7-1.1c0.4-0.4,0.8-1,1.1-1.5c-0.5-0.4-1-0.9-1.5-1.1c0.4-0.3,0.6-0.8,0.5-1.4
		c-0.1-0.9-0.8-1.5-1.7-1.4c-0.8,0.1-1.4,0.9-1.4,1.7c0,0.4,0.2,0.7,0.4,0.9C64.6,885.3,64.2,885.6,63.7,886z"/>
	<path class="st0" d="M89.5,854.9c1.3-4.2-1.1-9.3-5.8-10.8c-1.5-0.5-3.2-0.2-4.6,0.5c0.1,0.2,0.2,0.3,0.2,0.5
		c0.1,0.2,0.2,0.4,0.3,0.7c1-0.9,2.4-1.5,4.3-0.9c2.9,0.9,4.1,3.2,4.2,4.3c0.1,0.5-0.2,0.7-0.4,0.1c-0.2-0.6-0.8-1.6-1.6-1.9
		c-0.8-0.2-1.5,0.2-1.7,0.8c-0.2,0.5,0,1.4,0.5,1.5c0.5,0.2,0.8-0.3,0.4-0.6c-0.4-0.3-0.6-0.5-0.5-0.9c0.1-0.4,0.7-0.6,1.2-0.4
		c0.5,0.1,1.1,0.8,0.8,2c-0.3,1.2-0.1,2.6,0.7,2.7c0.8,0.1,1-0.2,1.1-0.4c0.1-0.3,0.5-0.1,0.4,0.5c-0.1,3.1-2.5,7.7-7.5,9.2
		c-1.7,0.5-3.6,0.5-5.5,0.2c1.6-2.9,2.4-6.2,2.4-8.9c0,0,0.1,0,0.1,0c1.7,0.5,3.2-0.3,3.6-1.6c0.4-1.3-0.1-2.7-1.3-3.1
		c-1.2-0.4-2.1,0-2.3,0.6c-0.2,0.7-0.8,0.1-0.5-1c0.2-0.6,0.7-1.5,1.6-2.3c-0.3-0.3-0.7-0.5-1.1-0.8c-1,0.7-1.9,1.7-2.2,2.8
		c-0.7,2.4,0.3,4.3,1.6,5.1c-0.1,0-0.3-0.1-0.4-0.1c0,2.9-0.8,6.3-2.4,9.2c-3.2-0.8-6.3-2.4-8.4-4.3c0,0.1-0.1,0.3-0.1,0.4
		c0.3-1.5-0.4-3.5-2.7-4.6c-1.1-0.5-2.3-0.5-3.5-0.2c-0.1,0.4-0.2,0.9-0.2,1.3c1.2-0.1,2.2,0.1,2.8,0.4c1.1,0.5,1.1,1.3,0.5,1.1
		c-0.7-0.3-1.5,0.2-2,1.3c-0.5,1.1,0.1,2.5,1.4,3.1c1.3,0.6,2.9,0,3.6-1.6c0,0,0-0.1,0-0.1c2.1,1.8,5,3.5,8.3,4.2
		c-1,1.6-2.3,3-3.8,3.9c-4.4,2.7-9.5,1.4-11.9-0.6c-0.5-0.4-0.4-0.8-0.1-0.7c0.3,0.1,0.6,0.2,1-0.5c0.5-0.7-0.5-1.8-1.5-2.3
		c-1.1-0.5-1.2-1.4-1-1.9c0.2-0.5,0.8-0.8,1.1-0.6c0.3,0.1,0.3,0.4,0.3,0.9c0,0.5,0.5,0.6,0.7,0.1c0.2-0.5-0.3-1.2-0.8-1.4
		c-0.5-0.2-1.3,0-1.7,0.8c-0.4,0.8,0,2,0.3,2.5c0.3,0.5,0,0.6-0.4,0.2c-0.7-0.8-1.7-3.2-0.4-6c0.8-1.8,2.2-2.5,3.6-2.6
		c-0.1-0.2-0.2-0.4-0.3-0.6c-0.1-0.2-0.1-0.3-0.2-0.5c-1.5,0.6-2.8,1.7-3.5,3.1c-2.1,4.4,0.1,9.7,4.1,11.5c3.1,1.4,7.7,1.7,11-0.5
		c1.8-1.2,3.3-2.8,4.4-4.5c2,0.3,4.2,0.3,6.3-0.2C85.6,861.7,88.6,858.1,89.5,854.9z M76.8,848.6c0.1-0.3,0.2-0.5,0.4-0.7
		c0.1,0,0.2,0,0.2,0.2c-1.1,1.7,0.4,4.1,2,3.4c0.3-0.1,1.1-0.6,0.8-0.8c-0.2,0.1-0.4,0-0.5-0.4c-0.1-0.5,0.8-0.9,1.1-0.3
		c0.3,0.5-0.1,1.2-0.9,1.6C77.7,852.8,76.3,850.3,76.8,848.6z M64.3,858.8c-0.8,0.3-1.6,0.1-1.8-0.4c-0.3-0.6,0.6-1,0.9-0.6
		c0.2,0.3,0.2,0.5,0,0.6c-0.1,0.3,0.9,0.1,1.1-0.1c1.5-0.8,0.7-3.5-1.2-3.8c-0.1-0.1-0.1-0.2,0-0.3c0.3,0,0.5,0.1,0.8,0.2
		C65.7,855,66.6,857.8,64.3,858.8z"/>
	<path class="st0" d="M79.6,845.8C79.6,845.8,79.6,845.8,79.6,845.8C79.6,845.8,79.6,845.8,79.6,845.8
		C79.6,845.8,79.6,845.8,79.6,845.8z"/>
	<path class="st0" d="M122.9,893.9C122.9,893.9,122.9,893.9,122.9,893.9C122.9,893.9,122.9,893.9,122.9,893.9
		C122.9,893.9,122.9,893.9,122.9,893.9z"/>
	<path class="st0" d="M98.8,910.9c1.4,4.1,6.4,6.9,11,5.3c1.5-0.5,2.7-1.7,3.4-3.1c-0.2-0.1-0.3-0.1-0.5-0.2
		c-0.2-0.1-0.4-0.2-0.6-0.4c-0.3,1.3-1.1,2.6-3,3.3c-2.9,1-5.2-0.2-5.9-1c-0.3-0.4-0.2-0.7,0.2-0.3c0.5,0.4,1.6,0.8,2.5,0.6
		c0.8-0.3,1.1-1.1,0.9-1.6c-0.2-0.5-0.8-1.1-1.3-0.9c-0.5,0.2-0.5,0.6,0,0.7c0.5,0,0.7,0.1,0.9,0.4c0.1,0.4-0.2,0.9-0.7,1
		c-0.5,0.2-1.4,0-1.8-1.2c-0.4-1.1-1.4-2.2-2.1-1.8s-0.7,0.7-0.6,1c0.1,0.3-0.3,0.3-0.7-0.2c-1.7-2.6-2.5-7.7,0.7-11.9
		c1.1-1.4,2.6-2.6,4.3-3.4c0.4,3.3,1.7,6.4,3.3,8.7c0,0-0.1,0-0.1,0c-1.7,0.6-2.4,2.1-2,3.4c0.4,1.3,1.7,2.1,2.9,1.7
		c1.2-0.4,1.7-1.2,1.5-1.9c-0.2-0.7,0.6-0.6,1,0.6c0.2,0.5,0.3,1.7,0.1,2.8c0.4,0,0.9,0,1.4-0.1c0.4-1.2,0.5-2.4,0.2-3.6
		c-0.8-2.4-2.7-3.3-4.3-3.2c0.1,0,0.3-0.1,0.4-0.1c-1.7-2.3-3-5.6-3.4-8.8c3-1.3,6.5-1.7,9.4-1.4c0-0.1-0.1-0.3-0.1-0.4
		c0.7,1.4,2.4,2.6,4.9,2.1c1.2-0.2,2.2-0.9,3-1.9c-0.2-0.4-0.4-0.8-0.6-1.2c-0.9,0.8-1.9,1.2-2.5,1.3c-1.2,0.2-1.7-0.4-1-0.6
		c0.7-0.2,1.1-1,0.9-2.2c-0.2-1.2-1.6-1.9-2.9-1.7c-1.4,0.3-2.3,1.7-2,3.4c0,0,0,0.1,0,0.1c-2.8-0.2-6.1,0.2-9.1,1.5
		c-0.1-1.9,0.1-3.8,0.8-5.4c2-4.8,6.8-6.7,9.9-6.5c0.6,0,0.7,0.4,0.5,0.5c-0.3,0.1-0.6,0.2-0.5,1c0,0.8,1.4,1.2,2.6,1
		c1.2-0.2,1.8,0.5,1.9,1c0.1,0.5-0.2,1.1-0.5,1.1c-0.4,0.1-0.5-0.1-0.8-0.5c-0.3-0.4-0.7-0.2-0.6,0.3c0.1,0.5,0.9,0.8,1.4,0.7
		c0.6-0.1,1.1-0.8,0.9-1.6c-0.2-0.8-1.2-1.6-1.7-1.8c-0.5-0.2-0.3-0.5,0.2-0.4c1,0.3,3.2,1.6,3.8,4.6c0.4,1.9-0.4,3.3-1.3,4.2
		c0.2,0.1,0.4,0.2,0.6,0.3c0.2,0.1,0.3,0.2,0.4,0.3c0.9-1.3,1.3-3,1-4.5c-0.9-4.8-5.8-7.7-10.1-6.9c-3.3,0.6-7.2,3.2-8.6,6.8
		c-0.8,2.1-1,4.2-0.9,6.3c-1.9,0.9-3.6,2.2-5,3.9C98,903.1,97.7,907.7,98.8,910.9z M112.8,908.5c0.1,0.3,0.1,0.5,0.1,0.8
		c-0.1,0.1-0.1,0.1-0.2,0c-0.1-2-2.7-3-3.6-1.6c-0.2,0.2-0.5,1.1-0.2,1.1c0.1-0.2,0.3-0.2,0.6,0.1c0.3,0.4-0.2,1.2-0.7,0.8
		c-0.5-0.3-0.7-1-0.2-1.8C109.6,905.6,112.2,906.8,112.8,908.5z M117,892.9c0.5-0.8,1.2-1,1.7-0.7c0.6,0.3,0.1,1.1-0.4,1
		c-0.4-0.1-0.4-0.3-0.4-0.5c-0.1-0.3-0.7,0.4-0.8,0.7c-0.8,1.5,1.5,3.2,3.2,2.4c0.2,0,0.2,0.1,0.2,0.2c-0.3,0.2-0.4,0.2-0.8,0.4
		C118,896.7,115.7,895,117,892.9z"/>
	<path class="st0" d="M66.8,918.8C66.8,918.8,66.8,918.8,66.8,918.8C66.8,918.8,66.8,918.8,66.8,918.8
		C66.8,918.8,66.8,918.8,66.8,918.8z"/>
	<path class="st0" d="M112.2,912.4C112.2,912.4,112.2,912.4,112.2,912.4C112.2,912.4,112.2,912.4,112.2,912.4
		C112.2,912.4,112.2,912.4,112.2,912.4z"/>
	<path class="st0" d="M122.2,905.9c-2.1,3.7-5.5,6.1-8.7,6.5c-0.1,0.2-0.2,0.5-0.3,0.7c3.9,1.9,9.2-0.4,12.1-5.4
		c2.9-4.9,2.2-10.7-1.4-13.2c-0.1,0.2-0.3,0.4-0.4,0.6C124.7,898.1,124.4,902.2,122.2,905.9z"/>
	<path class="st0" d="M66.8,918.8c-1.3,0.1-2.8-0.3-4-1.8c-1.8-2.4-1.4-5-0.9-5.9c0.2-0.5,0.6-0.4,0.4,0.1c-0.2,0.5-0.3,1.8,0.2,2.5
		c0.5,0.7,1.4,0.7,1.8,0.4c0.4-0.3,0.8-1.1,0.5-1.5c-0.3-0.4-0.8-0.2-0.7,0.2c0.1,0.5,0.2,0.7-0.1,1c-0.3,0.2-0.9,0-1.2-0.4
		c-0.3-0.4-0.4-1.3,0.6-2.1c0.9-0.8,1.6-2,1-2.6c-0.6-0.6-0.9-0.5-1.1-0.3c-0.2,0.1-0.4-0.2,0-0.7c1.9-2.5,6.6-4.7,11.5-3
		c1.7,0.6,3.2,1.7,4.6,3c-3,1.4-5.5,3.6-7.2,5.8c0,0,0,0,0-0.1c-1.1-1.4-2.8-1.7-3.9-0.8c-1.1,0.8-1.5,2.3-0.7,3.3
		c0.8,1,1.6,1.3,2.2,0.9c0.6-0.4,0.8,0.4-0.2,1.1C69,918.3,68,918.7,66.8,918.8c0.1,0.4,0.3,0.9,0.5,1.3c1.3,0.1,2.5-0.2,3.4-0.9
		c2-1.5,2.3-3.6,1.7-5.1c0.1,0.1,0.2,0.2,0.2,0.3c1.7-2.3,4.4-4.6,7.3-6c2.1,2.5,3.6,5.7,4.3,8.5c0.1-0.1,0.2-0.1,0.3-0.2
		c-1.2,1.1-1.7,3.1-0.5,5.3c0.6,1,1.6,1.8,2.7,2.3c0.4-0.3,0.7-0.6,1-1c-1-0.6-1.8-1.4-2-1.9c-0.6-1.1-0.1-1.7,0.3-1.1
		c0.4,0.6,1.3,0.7,2.4,0.1c1.1-0.6,1.3-2.1,0.7-3.3c-0.7-1.2-2.3-1.7-3.9-0.8c0,0,0,0-0.1,0c-0.6-2.7-2-5.7-4.2-8.2
		c1.8-0.7,3.6-1.1,5.4-0.9c5.2,0.4,8.5,4.4,9.3,7.4c0.1,0.6-0.1,0.8-0.3,0.6c-0.2-0.2-0.4-0.5-1.2-0.2c-0.8,0.3-0.7,1.7-0.1,2.8
		c0.6,1.1,0.1,1.9-0.3,2.1c-0.5,0.3-1.1,0.2-1.2-0.2c-0.2-0.3,0-0.6,0.3-0.9c0.3-0.4,0-0.7-0.5-0.5c-0.5,0.3-0.5,1.1-0.2,1.6
		c0.3,0.5,1.1,0.8,1.8,0.4c0.8-0.4,1.2-1.6,1.2-2.2c0-0.6,0.4-0.5,0.4,0.1c0.1,1.1-0.6,3.6-3.2,5.1c-1.7,1-3.3,0.7-4.4,0
		c0,0.2-0.1,0.5-0.1,0.7c0,0.2-0.1,0.3-0.1,0.5c1.5,0.4,3.3,0.3,4.6-0.4c4.3-2.4,5.6-7.9,3.4-11.7c-1.6-3-5.2-5.9-9.1-6.1
		c-2.2-0.1-4.3,0.3-6.2,1.1c-1.4-1.5-3.2-2.7-5.2-3.5c-3.6-1.4-8.1-0.2-10.8,1.8c-3.5,2.6-4.6,8.2-1.6,12.1c0.9,1.2,2.5,2,4,2.3
		c0-0.2,0-0.3,0.1-0.5C66.7,919.3,66.7,919.1,66.8,918.8z M70.7,918.1c-0.3,0.2-0.5,0.2-0.8,0.3c-0.1-0.1-0.1-0.1-0.1-0.2
		c1.8-0.7,2-3.5,0.4-4c-0.3-0.1-1.2-0.1-1.1,0.1c0.2,0.1,0.3,0.3,0.1,0.6c-0.2,0.4-1.2,0.2-1-0.4c0.1-0.6,0.8-1,1.7-0.8
		C72.5,914.2,72.1,917.1,70.7,918.1z M86.9,917.4c0.9,0.2,1.3,0.9,1.2,1.4c-0.1,0.7-1,0.5-1.1,0c0-0.4,0.2-0.5,0.4-0.5
		c0.2-0.2-0.6-0.6-1-0.6c-1.7-0.3-2.7,2.4-1.2,3.8c0,0.2,0,0.2-0.1,0.2c-0.3-0.2-0.4-0.3-0.6-0.6C83.5,919.6,84.4,916.8,86.9,917.4z
		"/>
	<path class="st0" d="M79.3,903.8c0.3,0.4,0.5,0.8,0.7,1.4c0.2,0.8,0.6,0.9,1.1,0.3c0.4-0.5,0.9-0.9,1.4-1.1
		c0.2,0.3,0.5,0.4,0.9,0.5c0.8,0.2,1.7-0.4,1.8-1.2c0.2-0.8-0.4-1.6-1.2-1.8c-0.5-0.1-0.9,0-1.3,0.3c-0.2-0.5-0.7-1.1-1.1-1.5
		c-0.5,0.4-1.2,0.7-1.5,1.1c-0.2-0.5-0.6-0.8-1.1-0.9c-0.8-0.2-1.7,0.3-1.8,1.2c-0.2,0.8,0.4,1.6,1.2,1.8
		C78.6,904,79,903.9,79.3,903.8z"/>
	<path class="st0" d="M75.4,929.9c5.6,1.2,10.8-1.2,12.1-5.4c-0.2-0.1-0.5-0.1-0.7-0.2c-2.4,2.1-6.4,3-10.6,2.1
		c-4.2-0.9-7.5-3.4-8.9-6.2c-0.2,0-0.5,0-0.7-0.1C66,924.4,69.8,928.7,75.4,929.9z"/>
	<path class="st0" d="M87.7,923.3C87.7,923.3,87.7,923.3,87.7,923.3C87.7,923.3,87.7,923.3,87.7,923.3
		C87.7,923.3,87.7,923.3,87.7,923.3z"/>
	<path class="st0" d="M46.7,877.6C46.7,877.6,46.7,877.6,46.7,877.6C46.7,877.6,46.7,877.7,46.7,877.6
		C46.7,877.7,46.7,877.6,46.7,877.6z"/>
</g>
</svg>
