<?xml version="1.0" encoding="utf-8"?>
<!-- Generator: Adobe Illustrator 22.1.0, SVG Export Plug-In . SVG Version: 6.00 Build 0)  -->
<svg version="1.1" id="Layer_1" xmlns="http://www.w3.org/2000/svg" xmlns:xlink="http://www.w3.org/1999/xlink" x="0px" y="0px"
	 viewBox="0 0 1080 1296" style="enable-background:new 0 0 1080 1296;" xml:space="preserve">
<path d="M905.1,36.1c-3.4-3.7-6.4-7.8-6-13.1c0.2-2.3,1.8-4,4.1-4.1c7.8-0.4,14.4,4.7,16.6,12.1c1.5,5.2,1.1,11.1-2.2,15.2
	c-0.1,0.5-0.2,1.1-0.4,1.6c-1.5,5-9.3,2.9-8-2c-0.2-1,0-2,0.5-2.8c0-0.8-0.3-1.5-0.7-2.2C907.9,39,906.7,37.8,905.1,36.1z
	 M919.1,94.8c-0.1,0-0.2,0.1-0.2,0.1c0,0-0.1,0-0.2,0.1c-0.7,0.3-1.4,0.4-2.1,0.6c0,0,0,0-0.1,0c0,0-0.1,0-0.1,0
	c-0.5,0-0.9,0.1-1.4,0.1c-1.6,0-2.7,0.8-3.3,1.8c-0.1,0-0.2,0-0.3,0c-5.3-0.2-5.3,8,0,8.2c6,0.3,12.1-2.4,17.5-4.8
	c7.1-3.3,13.8-7.5,19.9-12.4c9.4-7.4,22.8-21.5,14.9-34.3c-3.3-5.3-10.3-9.9-16.6-10.1c-5.4-0.1-9.3,4-11.4,8.6
	c-2.5,5.5-3.7,11.5-5,17.3c-0.7,3.1-1.4,6.3-2.3,9.4c-0.4,1.4-0.9,2.9-1.3,4.3c-0.2,0.7-0.5,1.4-0.8,2c0,0.1-0.1,0.3-0.2,0.5
	c-0.2,0.4-0.3,0.7-0.5,1.1c-0.6,1.3-1.3,2.6-2.1,3.7c-0.1,0.2-0.2,0.3-0.3,0.4c0-0.1-0.5,0.6-0.6,0.7c-0.5,0.5-1,1-1.5,1.5
	c0,0-0.1,0.1-0.1,0.1c-0.3,0.2-0.6,0.4-1,0.6C919.6,94.5,919.4,94.7,919.1,94.8z M57.2,482.8c-0.4-0.9-0.5-1.7-0.2-2.5
	c0.2-0.8,0.7-1.4,1.4-1.9c0.8-0.5,1.6-0.7,2.3-0.4c0.7,0.3,1.3,0.8,1.7,1.7c4,7.9,9.1,14.6,15.3,20.1c6.2,5.6,13.1,9.8,20.6,12.6
	c7.5,2.8,15.3,4.3,23.5,4.3c8.2,0,16.2-1.6,24-4.9c-3,0.7-5.7,1-8,1c-3.3,0-5.9-0.5-7.9-1.6c-4.2-2.3-6.8-7.6-7.9-15.9
	c-0.4-3.3-0.5-6.7-0.2-10.4c0.2-3.7,0.8-7.2,1.6-10.7c1.4-5.6,3.2-9.8,5.6-12.8c2.3-3,5-4.4,8.1-4.2c2.9,0.2,6,1.1,9.5,2.6
	c3.5,1.5,6.9,3.3,10.3,5.3c3.4,2,6.5,4.1,9.2,6.1c2.8,2.1,4.9,3.7,6.4,4.7H184c1.7-1.2,3.9-2.8,6.6-4.9c2.7-2.1,5.7-4.1,8.9-6.1
	c4.1-2.5,7.6-4.4,10.7-5.6c3.1-1.3,5.8-2,8.2-2.2c3-0.2,5.7,1.2,8,4.2c2.4,3,4.3,7.3,5.7,12.8c0.8,3.5,1.3,7.1,1.6,10.7
	c0.2,3.7,0.1,7.1-0.4,10.4c-0.9,8.3-3.5,13.6-7.7,15.9c-2,1.1-4.5,1.6-7.4,1.6c-3.2,0-6.8-0.7-11-2c7.3,4,14.7,6.4,22.1,7
	c7.4,0.6,14.5-0.5,21.4-3.2c6.9-2.7,13.4-7.1,19.6-13c6.1-5.9,11.6-13.4,16.4-22.3c0.5-0.8,1.1-1.3,1.9-1.6c0.7-0.3,1.5-0.1,2.2,0.4
	c1.7,1.2,2,2.7,1,4.6c-2.9,5.3-6,10.2-9.3,14.6c-3.3,4.4-6.9,8.2-10.6,11.6c-7,6.4-14.8,10.9-23.4,13.4c-5.1,1.5-10.1,2.3-15,2.3
	c-1.6,0-3.1-0.1-4.7-0.2c-1.5-0.2-3.1-0.4-4.7-0.6c-6.2-1.1-12.3-3.2-18.3-6.4c2.3,7.9,4.1,15.8,5.4,24c1.3,8.1,2.1,16.4,2.3,25
	c0,1.2-0.4,2.1-1.3,2.8c-0.9,0.7-1.9,0.7-3,0.2l-11.5-6.5l-12.2,11.5c-0.4,0.5-1,0.8-1.9,0.8c-0.6,0-1.1-0.2-1.5-0.5
	c-1.3-0.7-1.7-1.9-1.3-3.6c2.3-10.6,3.7-21.5,4.2-32.7c0.5-11.2,0.1-23.5-1.2-36.7h-11.8c-1.3,13.2-1.7,25.4-1.1,36.7
	c0.5,11.2,2,22.1,4.2,32.7c0.3,1.6-0.1,2.8-1.3,3.6c-0.5,0.3-1,0.5-1.6,0.5c-0.8,0-1.4-0.3-1.9-0.8l-12.2-11.5l-11.3,6.5
	c-1.1,0.5-2.1,0.5-3-0.2c-1-0.8-1.4-1.7-1.3-2.8c0.3-11.6,1.4-22.4,3.3-32.4c1.3-5.8,2.6-11.3,4-16.5c-9.4,4-18.8,6.1-28.2,6.1
	c-7.3,0-14.5-1.1-21.4-3.4c-9.1-2.9-17.3-7.5-24.5-13.7C67.9,499.6,61.9,491.8,57.2,482.8z M191.5,478.3c0.6,0.8,0.9,1.6,1,2.6h4.9
	c0.8,0,1.5,0.3,2.1,1s0.9,1.4,0.9,2.3c0,0.9-0.3,1.6-0.9,2.3s-1.3,1-2.1,1h-4.8v2.5l5.5,0.5c0.8,0,1.5,0.4,2,1.1
	c0.5,0.7,0.8,1.5,0.7,2.4c0,0.9-0.3,1.6-0.8,2.2c-0.5,0.6-1.2,0.9-2,0.9h-0.3l-5.2-0.5c0,0.4-0.1,0.9-0.4,1.3
	c7.4,3.6,13.8,6.1,19.2,7.4c5.4,1.3,9.2,1.3,11.6,0c1.2-0.7,2.2-2,3-3.9c0.8-2,1.3-4.3,1.6-7c0.3-2.7,0.3-5.7,0.1-8.9
	c-0.2-3.2-0.6-6.4-1.3-9.6c-0.9-3.8-2-6.8-3.4-9c-1.4-2.2-2.8-3.2-4.3-3.1c-1.8,0.1-3.8,0.7-6.2,1.6c-2.3,1-4.7,2.2-7.2,3.7
	c-2.5,1.5-4.9,3.1-7.3,4.7C195.5,475.4,193.4,476.9,191.5,478.3z M190.9,534.7c-0.3,9.7-1.2,19.1-2.7,28.2l7.1-6.7
	c1-0.9,2.1-1,3.3-0.5l8.5,4.9c-1-18.8-4.8-36.8-11.5-54.2c-1-0.4-2-0.8-2.9-1.2c-0.9-0.4-1.9-0.8-2.9-1.4
	C190.8,514.8,191.2,525.1,190.9,534.7z M168.7,494.9h18v-12.4h-18V494.9z M165.6,504.5c-1,0.5-2,1-3.1,1.5c-1.1,0.4-2.2,0.9-3.4,1.3
	c-3.2,8.4-5.7,16.9-7.5,25.5c-1.8,8.6-3,17.9-3.5,27.8l8.7-4.9c1.2-0.5,2.3-0.4,3.3,0.5l7.2,6.7
	C164.4,545.2,163.8,525.7,165.6,504.5z M146.3,504.9c2.8-0.7,5.7-1.7,8.8-2.9c3-1.2,5.9-2.5,8.6-3.8c-0.4-0.5-0.6-1.1-0.7-1.8
	l-5.7,0.5H157c-0.8,0-1.5-0.3-2-0.9c-0.5-0.6-0.8-1.3-0.8-2.2c-0.1-0.9,0.1-1.7,0.7-2.4c0.5-0.7,1.2-1.1,2-1.1l6-0.5v-2.5h-5.2
	c-0.8,0-1.5-0.3-2.1-1c-0.6-0.7-0.9-1.4-0.9-2.3c0-0.9,0.3-1.6,0.9-2.3c0.6-0.7,1.3-1,2.1-1h5.4c0.2-1.1,0.7-2.2,1.6-3.3
	c-2.4-1.7-4.8-3.4-7.4-5.1c-2.5-1.6-5-3.1-7.4-4.4c-2.4-1.3-4.8-2.4-7-3.2c-2.2-0.8-4.2-1.3-5.9-1.4c-1.4-0.1-2.8,0.9-4.2,3.1
	c-1.4,2.2-2.5,5.2-3.4,9c-0.8,3.2-1.3,6.4-1.4,9.6c-0.1,3.2-0.1,6.2,0.2,8.9c0.3,2.7,0.8,5.1,1.6,7c0.8,2,1.8,3.3,3,3.9
	c1.5,0.9,3.4,1.2,5.8,1.1C140.9,506.1,143.5,505.6,146.3,504.9z M202.8,797.7C202.3,797.5,202.3,797.5,202.8,797.7L202.8,797.7z
	 M860.5,68.1c4.9,1.9,9.7,3.7,14,6.8c4.6,3.3,7.7,8.1,10,13.2c0.1,0.3,0.2,0.6,0.4,0.9c0,0,0,0.1,0.1,0.1c0.8,1.9,3.3,2.4,5.1,1.7
	c1.1-0.4,2-1.2,2.4-2.7c3.3-12.3,2.1-25-6.1-35.2c-2.9-3.6-6.7-6.5-10.5-9.1c-4-2.7-8.6-4.9-13.3-5.7c-5.4-0.9-9.8,0.4-14,3.8
	c-3.7,3-6.3,7-5.6,11.8C844.1,61.5,854.1,65.6,860.5,68.1z M965.2,102.6c0.5,0.5,1.3,0.9,2,1.1c0.2,0.2,0.4,0.3,0.6,0.5
	c2.1,1.2,4.3,0.3,5.6-1.5c0.2-0.3,0.6-0.7,1.2-1.3c0,0,0,0,0,0c0,0,0.1-0.1,0.2-0.1c0.1-0.1,0.4-0.2,0.5-0.3c0.1,0,0.3-0.1,0.4-0.1
	c0,0,0.1,0,0.2,0c0.1,0,0.3,0,0.4,0c-0.1,0,0.7,0.1,0.9,0.2c0.2,0,0.4,0.1,0.5,0.2c-0.1,0,0.5,0.2,0.6,0.3c0.6,0.3,1.3,0.7,1.9,1
	c1.4,0.9,2.7,1.8,4.1,2.8c4.7,3.5,10.7,8.8,17.1,6.6c6.2-2.2,10.8-11.2,7.1-17.1c-3.4-5.6-11.4-6.4-17.2-6.4c-5,0-10.1,0.7-14.9,2.1
	c-4,1.2-8.6,3-11.4,6.3C963.7,98.5,963.5,100.9,965.2,102.6z M933.9,134.7c2.8,2.7,5.1,6.1,6.7,9.6c2.8,6.1,5.7,15.1,13.2,16.9
	c7.4,1.8,15.4-6.4,17.1-13c1.6-6.3-2.4-11.5-7.1-15.1c-6.3-4.8-14.4-7.5-21.9-9.7c-4.9-1.5-10-2.2-14.8-3.8
	c-2.5-0.8-4.2,0.7-4.8,2.6c-5.2,0-5.2,8.2,0.1,8.2C926.9,130.4,930.6,131.5,933.9,134.7z M899.9,264c-0.3-0.3-0.5-0.5-0.5-0.5
	S899.6,263.7,899.9,264z M1009.5,351.9c-20.6-46.7-103.6-83.2-103.6-83.2s21.4,14.2,35.8,25.8c14.4,11.6,32.7,34.7,36.4,70.5
	C981.8,400.7,1030.1,398.6,1009.5,351.9z M114.4,375.3c4.6-44,27-72.4,44.8-86.7c17.7-14.3,44-31.7,44-31.7s-102.1,45-127.5,102.4
	C50.3,416.6,109.8,419.2,114.4,375.3z M204,285.9c1.9,18.4,20.3,19,16.5-3.8c-3.9-23.2,12.3-43.9,14.7-46.8
	C232,239.1,202.8,274.5,204,285.9z M409.1,219.7c4.1-38.4,35.5-107.2,72.7-107.2c19.2,0,30.1,23.5,28.8,44.7c-0.3,3.6-1,7.1-2,10.3
	l-0.2,0.2c-0.5,0.8-3.3,1.7-4.1,1.7c-1.1,0-2.5-0.8-3.4-2.3c0.8-2.7,1.1-5.2,1.5-7.8c0.5-13-3.9-29.2-15.9-29.2
	c-23.1,0-48.5,69.3-50.1,91.7c-0.5,7.3,0.2,17.2,7.9,17.2c13.8,0,31.1-36.5,39.3-55.2c0.7-2.9,2.6-6.7,2.3-11.3
	c-0.3-3.4,3.1-4.4,6.4-4.6c12.9,1.3,17.2,7.4,17.8,15.5c0.7,8.2-2.3,18.1-3.4,26.4c-0.8,5.2-5.1,35.1,3.1,26.5
	c10.6-12.4,24.2-41.1,32.7-60c0.6-1.6,1.3-3.1,1.9-4.6c2.9-17.1,5.1-31.4,5.6-38.6c0.5-5.3,0-9.7-0.3-13.2c-0.2-2.1-0.3-3.6-0.2-5
	c0.2-4.2,2.9-5.5,6.1-5.5c13.6,0,17.5,12.6,17.5,27.9c0,2.7-0.2,5.7-0.3,8.6c0,1.3-0.2,3.4-0.3,4.6c9.5-21.6,23.6-41.1,40.4-46.2
	c2.5-0.8,4.7-1,7.2-1c15.6,0,22.9,15.1,25.4,31.5c0.7,4.2,1,9.2,1,14.5c0,21.4-5.2,48.5-15.7,70.9c14.4-13.9,28.9-31.7,38.9-51.5
	c2.7-15.8,4.7-28.8,5.1-35.6c0.5-5.3,0-9.7-0.3-13.2c-0.2-2.1-0.3-3.6-0.2-5c0.2-4.2,2.9-5.5,6.1-5.5c13.6,0,17.5,12.6,17.5,27.9
	c0,2.7-0.2,5.7-0.3,8.6c0,1.3-0.2,3.4-0.3,4.6c9.5-21.6,23.6-41.1,40.4-46.2c2.5-0.8,4.7-1,7.2-1c15.6,0,22.9,15.1,25.4,31.5
	c0.7,4.2,1,9.2,1,14.5c0,21.4-5.2,48.5-15.7,70.9c13.6-13.1,27.2-29.7,37.1-48.1c0.4-1.7,0.8-3.4,1.2-5c3.6-15.3,7-30,7.7-38.4
	c0.3-4-0.3-6.7-0.7-8.6c-0.2-1-0.3-1.5-0.3-2.7c0.2-3.4,2.9-4.6,5.9-4.6c4.3,0,9.5,1.9,11.5,3.2c6.2,5,8.3,14.7,7.7,24.4
	c-0.7,9.9-3.3,19.7-5.4,27.1l-1,3.6c-4.1,14.7-11.5,43.4-12.9,58.4c-0.2,5.5,0.2,10.3,2.1,10.3c8,0,29-41.3,39.6-62.6v0.2
	c0.8-1.5,1.8-3.1,2.5-4.6l-0.2,0.2c3.3-19.5,5.1-33.6,5.2-38c0.3-4.4-0.3-7.6-0.7-10.3c-0.3-1.5-0.3-2.7-0.3-3.4
	c0.3-3.4,2.9-4.4,6.4-4.6c14.4,0,19.8,8.2,21,18.7c-1.8,26-4.6,51.2-11,89.4c12.1-11.5,25.4-40.3,34.5-61.7l0.7-0.6
	c0.2,0,0.5,0,1-0.2c1.5-0.4,3.4-1,5.9,1.7c-11.3,27.1-29.8,64.9-44.7,76.2c-14.7,83.7-38.5,173-80.9,167.1
	c-12.1-1.7-20.1-15.3-20.1-33.2c0-4.4,0.5-8.8,1.5-13.4c10.8-46.8,38.5-78.9,68.3-109.1c2.3-13.4,5.1-28.6,8.5-48.7l-2.1,3.6
	c-13.9,25.8-29.1,51-45.8,51c-11.3,0-15.4-9.7-15.4-24.1c0-2.5,0.2-5.2,0.3-7.8c0.7-8.7,2.5-19.1,4.7-29.8
	c-8.9,13-19.8,26.1-31.9,36.8c-12.9,11.1-32.3,24.6-49.4,24.6c-8.3,0-17.2-4.2-23.6-11.8c-1.6,9.7-3.1,18.7-4.6,26.2
	c-4.7,26.7-8,43.4-10.3,71.1c-0.3,3.8-0.3,7.1-0.3,10.1c0,7.6,0.7,13.2,1.1,16.4c0.2,1.7,0.3,2.3,0.3,3.8c-0.3,2.7-1.8,3.2-3.6,3.2
	c-15.1,0-20-22.3-20-44.3c0-3.8,0.2-8.2,0.5-12c2.1-23.7,10.5-72.4,17-110c1.1-6.4,2.2-12.8,3.3-19.1c-9.5,14.6-21.6,29.8-35.2,41.8
	c-12.9,11.1-32.3,24.6-49.4,24.6c-8.3,0-17.2-4.2-23.6-11.8c-1.6,9.7-3.1,18.7-4.6,26.2c-4.7,26.7-8,43.4-10.3,71.1
	c-0.3,3.8-0.3,7.1-0.3,10.1c0,7.6,0.7,13.2,1.1,16.4c0.2,1.7,0.3,2.3,0.3,3.8c-0.3,2.7-1.8,3.2-3.6,3.2c-15.1,0-20-22.3-20-44.3
	c0-3.8,0.2-8.2,0.5-12c2.1-23.7,10.5-72.4,17-110c0.5-2.8,1-5.6,1.4-8.3c-8.9,19-19.4,38.7-28.6,47.5c-4.4,4.2-11,7.4-16.9,7.4
	c-15.6,0-16.9-29.8-15.2-42.6c0-0.6,0-0.2,0.2-1.9c-11.8,22.7-28.6,45.3-47,45.3c-17.2,0-22.8-15.1-22.8-32.5
	C408.9,223.7,408.9,221.4,409.1,219.7z M833.9,268.4c-15.2,13.9-29.8,32.3-41.1,52.3c-4.7,9.2-16.5,37.1-16.5,53.1
	c0,6.7,2.3,11.7,8.2,11.7c5.1-0.8,10-5.3,14.2-12c12.8-19.7,23.1-57.7,30.3-84.8c1.3-4.6,2.1-9.2,3.3-13v0.2L833.9,268.4z
	 M685.1,231.4c4.6,8.8,13.3,15.3,22.4,12.8c21.9-5.7,33.6-65.3,33.6-94.4c0-3.4-0.3-6.7-0.7-9.2c-0.8-7.3-3.9-16.6-12.1-14.3
	c-15.7,4-31.3,47-36.7,66.7C689.7,205.2,687.5,218,685.1,231.4z M560.3,231.4c4.6,8.8,13.3,15.3,22.4,12.8
	c21.9-5.7,33.6-65.3,33.6-94.4c0-3.4-0.3-6.7-0.7-9.2c-0.8-7.3-3.9-16.6-12.1-14.3c-15.7,4-31.3,47-36.7,66.7
	C564.9,205.2,562.8,218,560.3,231.4z M210.4,251.1c0.4-0.4,0.7-0.6,0.7-0.6S210.8,250.7,210.4,251.1z M147.7,333.3
	c0.7,31.8,33.2,35.5,29.8-4.1c-3.5-40.1,27.9-73.1,32.9-78.1C203.6,257.8,147.3,313.7,147.7,333.3z M235.2,235.3
	c0.2-0.2,0.3-0.4,0.3-0.4S235.4,235.1,235.2,235.3z M905.2,292.3c1-9.3-22.7-38-25.4-41.1c2,2.4,15.1,19.2,12,38
	C888.7,307.7,903.6,307.2,905.2,292.3z M951,330.9c0.3-16-45.9-61.8-51-66.9c3.8,3.7,29.6,30.7,26.8,63.5
	C923.9,359.8,950.4,356.7,951,330.9z M879.8,251.2c-0.2-0.2-0.2-0.3-0.2-0.3S879.6,251,879.8,251.2z M396.6,415.7
	c-4.3,0-7.5,6.3-7.9,12c-0.2,7.3,2.9,10.7,6.6,10.7c4.2,0,9-3.4,9.4-9.4c0.1-2.5-0.5-5.4-2.2-8.9C400.6,417,398.5,415.7,396.6,415.7
	z M203.9,160.1c31.9,16.6,63.4-23.1,71.7-60c-0.2-7.6-5.6-3.8-6.7-3.6c-3.6,16-23.6,56-42.4,52.1c-15.9-2.3-27.2-39-21.1-73.5
	c6.9-37.6,35.2-69.3,57.8-64.2c50.1,16.8,37.8,103.9,27.7,154.5c-19.6,2.5-36.3,12-47,37.1c-1.5,2.5,0.7,6.3,3.1,5
	c10.5-13.2,24.2-19.1,39.5-21c-7.7,32.1-17,63-25,92.8c-3.3,11.8-6.2,21-8.2,25.6c-2.8,6.7-7.2,9.6-8.3,11.7c-1,2.7,1.3,5,4.7,6.3
	c19.2,9.9,29.1-0.4,34.5-13.4c5.6-12.6,12-34.4,17.5-57.1c4.6-20.4,11-42.8,16.2-65.7c12.4,1.3,24.9,3.6,36.7,5.2
	c-3.4,15.9-6.5,31.1-9,44.5c-10.5,54.1-25.2,144.2,52.9,132.9c4.1-3.2,5.2-5.7,1.3-9c-54.8,2.7-36-81-27-121.3
	c2.9-14.1,6.5-29.4,10.2-45.3c15.7-0.6,28.3-5.7,35-20.6c1.1-2.9,1.8-8.6-2.1-5.7c-8.5,4.4-18.2,6.3-28.5,6.5
	c9.8-43.9,19.3-88.1,21.3-115.2c1-13.8-2.1-27.9-20.5-27.9c-3.1,0-5.6,0.8-5.9,4c-0.2,2.1,1.6,6.7,1.1,13.8
	c-1.6,23.5-13.4,74.1-24.2,123c-12.1-1.7-24.4-4-36.3-5.3c10.6-51,14.7-102.2-9.2-138.7c-10.5-15.5-27.8-25.4-46.5-27.3
	c-38-3.2-71.4,27.1-84.5,70.9C171.9,106.4,178.4,144.6,203.9,160.1z M293,664.1c-2.7,1.3-5,3.3-6.6,5.9c-1.7,2.6-2.8,5.6-3.5,8.9
	c-0.6,3.3-0.6,6.6,0,9.9c0.6,3.3,1.9,6.1,3.8,8.5c-3,2.4-5.7,4.7-8.4,7.1c-2.6,2.4-5.5,4.2-8.7,5.5c1.3-2.1,2.3-3.9,3.2-5.3
	c0.8-1.4,1.6-2.8,2.2-3.9c0.6-1.2,1.1-2.5,1.3-3.9c0.2-1.4,0.3-3.3,0.3-5.7c0-0.5-0.2-1.9-0.5-4.1c-0.3-2.2-0.6-4.7-0.9-7.3
	c-0.3-2.6-0.6-4.9-0.8-6.9c-0.2-2-0.2-3,0-3c-1.9,0-4.2,1.4-6.8,4.3c-2.6,2.9-5.1,7-7.4,12.2c-2.1,5.5-3.2,10.4-3.2,14.6
	c0,4.2,1.4,8.5,4.1,13c-0.4,0.5-2,1.5-4.6,3c-2.6,1.4-5,3.2-7.1,5.3c-0.6-3.7-1.4-7.1-2.2-10.2c-0.8-2.9-2-5.8-3.3-8.7
	c-1.4-2.9-2.9-5.3-4.6-7.1c-0.8-0.8-2-1.8-3.5-3c-1.5-1.2-3.3-2.2-5.4-3c-2.1-0.8-4.5-1.2-7.1-1.2c-2.6,0-5.5,0.8-8.7,2.4
	c-0.4-2.1-0.4-3.9,0-5.5c0.4-1.6,0.9-3.2,1.4-4.9c0.5-1.7,0.9-3.7,1.3-5.9c0.3-2.2,0.4-5.2,0.2-8.9c0-1-0.6-3.4-1.9-7.1
	c-1.3-3.7-2.4-7.9-3.5-12.8c-1.1-4.9-1.8-10.2-2.2-16c-0.4-5.8,0-11.4,1.3-16.9c-8.2,1.3-15.6,5.5-22.1,12.4
	c-6.5,7-10.9,14.5-13,22.7c-1.1,3.9-1.7,8.2-1.9,12.8c-0.2,4.6-0.3,8.9-0.2,12.8c0.1,3.9,0.3,7.4,0.5,10.2c0.2,2.9,0.3,4.5,0.3,4.7
	c-9.7-9.7-19.2-19.6-28.4-29.5c-9.3-10-19.4-18.4-30.3-25.2c-4.2-2.4-7.8-4.7-10.7-6.9c-3-2.2-5.6-4.6-7.9-7.1
	c-2.3-2.5-4.5-5.3-6.6-8.3c-2.1-3-4.3-6.6-6.6-10.8c-2.5,11-3.5,22.3-2.8,33.9c0.6,11.6,2.9,22.5,7,32.7c4,10.2,9.7,19.4,17.1,27.4
	c7.4,8,16.5,14.1,27.5,18.3c-3.8,2.6-7.5,4.7-11.1,6.1c-3.6,1.4-7.4,2.8-11.5,3.9c-4.1,1.2-8.7,2.6-13.9,4.1
	c-5.2,1.6-11.2,3.8-18.2,6.7c1.9,4.5,5,8.7,9.3,12.8c4.3,4.1,9,7.7,14.1,10.8c5.1,3.2,10.2,5.7,15.3,7.7c5.2,2,9.5,3,13.1,3
	c-0.4,0-0.5-1-0.2-3c0.3-2,0.8-4.3,1.4-7.1c0.6-2.8,1.4-5.4,2.2-8.1c0.8-2.6,1.7-4.3,2.5-5.1c-0.2,0.3,0.3,1.6,1.6,3.9
	c1.3,2.4,3.3,5.1,6.2,8.1c2.8,3,6.4,6,10.6,8.9c4.2,2.9,9.2,4.9,14.9,6.1c5.7,1.2,12.1,1.2,19.1,0c7.1-1.2,14.8-4.3,23.2-9.3
	c2.9-1.8,5.8-4.7,8.5-8.5c2.7-3.8,4.9-7.7,6.6-11.6c1.1-2.4,3.1-4.5,6-6.3c2.9-1.8,6.2-3,9.8-3.5c-9.7,12.1-17.3,22.2-22.9,30.3
	c-5.6,8.1-9.7,14.7-12.5,19.7c-2.7,5-4.3,8.6-4.7,10.8c-0.4,2.2-0.2,3.5,0.6,3.7c0,0-0.1,0-0.1,0c0.2,0.1,0.4,0.1,0.8,0.2
	c1.3,0.4,2.5-0.1,3.8-1.4c-0.2-3.4,1.3-8.1,4.6-14.2c3.3-6,7.2-12.3,11.7-18.9c4.5-6.6,9.1-12.7,13.8-18.5c4.6-5.8,8.2-10.1,10.7-13
	c0.6,0,1.5-0.1,2.7-0.4c1.2-0.3,2.1-0.4,2.7-0.4c-0.4-1-0.8-1.9-1.3-2.6c-0.4-0.7-0.6-1.5-0.6-2.6c3.6-2.6,6.5-4.7,8.7-6.1
	c2.2-1.4,3.2-2,3-1.8c0.6,2.4,1.7,4.6,3.2,6.7c1.5,2.1,3.1,3.9,4.7,5.5c3.4,2.9,6.9,4.5,10.6,4.9c3.7,0.4,7.5-0.1,11.5-1.4
	c2.7-1,5.2-2.3,7.3-3.7c2.1-1.4,4.3-3.1,6.6-4.9c-2.3-2.1-4.7-4.1-7.1-6.1c-2.4-2-5.1-3.5-8.1-4.5c-3.2-1.3-6.3-1.9-9.5-1.8
	c-3.2,0.1-6.3,0.2-9.5,0.2c5.5-3.2,10.3-7,14.5-11.4c6.7,5.5,12.5,7.4,17.4,5.7c4.8-1.7,9.7-6.5,14.5-14.4c0.4-0.5,0.9-1.1,1.4-1.8
	c0.5-0.7,0.7-1.1,0.5-1.4c-2.1-1-4.4-1.6-7-1.6c-2.5,0-5.1,0.3-7.6,0.8c-2.5,0.5-5,1.4-7.4,2.6c-2.4,1.2-4.5,2.4-6.2,3.7
	c0.8-1.3,2.5-3.3,5.1-6.1c2.5-2.8,4.3-4.8,5.4-6.1c7.2-1.8,11.9-5.8,14.2-11.8c2.3-6,2.9-14.6,1.9-25.6c0-0.3-0.2-0.1-0.6,0.4
	c-0.4,0.5-0.9,1.2-1.4,2.2c-0.5,0.9-1.1,1.8-1.6,2.8c-0.5,0.9-0.9,1.5-1.1,1.8c-1.7,2.1-3.7,4.2-6,6.3c-2.3,2.1-4.3,4.2-6,6.3
	c-1.7,2.6-2.5,5.1-2.5,7.5c0,2.4,0.1,5.1,0.3,8.3c-1.3,2.1-3.1,4.3-5.4,6.7c-2.3,2.4-3.7,3.8-4.1,4.3c1.9-4.2,3.4-8.9,4.4-14.2
	C296.9,672.7,296,668.1,293,664.1z M195.2,970c3.4-20.1-12.9-19.5-14.5-3.4c-1,10,24.7,41.2,27.5,44.6
	C206.1,1008.7,191.8,990.4,195.2,970z M877,1012c0,0,0.2-0.2,0.7-0.6C877.2,1011.7,877,1012,877,1012z M852.8,1027.1
	c-0.2,0.2-0.3,0.4-0.3,0.4S852.6,1027.4,852.8,1027.1z M940.3,929.1c-0.7-31.8-33.2-35.5-29.8,4.1c3.5,40.1-27.9,73.1-32.9,78.1
	C884.4,1004.7,940.7,948.8,940.3,929.1z M881.2,692.5h0.4c1.3-9.6,5.2-18.2,11.5-25.7c5.8-6.8,15.6-13.7,24.3-7.8
	c7.6,5.2,3,14.3-3.6,17.6c-5.1,2.6-11.1,2.6-16.3,5.2c-5.5,2.8-9.7,7.6-12.4,13.1c-0.3,0.7-0.8,0.9-1.4,0.9
	c-0.2,0.1-0.3,0.1-0.6,0.1H883V711h4.8c1.4,0,1.9,1.4,1.5,2.4c5.5,5.7,14.1,7.2,21.2,3.1c8.5-4.9,10.1-17.3,4.1-24.6
	c-6.3-7.8-21-6.5-22.3,4.7c-0.4,3.1,1,6.2,3.3,8.2c-1.2-5,2.4-11,8.4-9.6c7.1,1.7,8,10.2,2.2,14.1c-5.7,3.9-12.8-0.4-15.8-5.5
	c-3.7-6.6-0.7-13.9,5-18c6.2-4.4,14.2-2.6,19.8,1.9c1.9,1.6,3.4,3.5,4.4,5.6c0.2-0.6,0.5-1.2,0.7-1.7c1.3-2.9,3.3-5.2,4.5-8.2
	c1.3-3.3,1.4-6.9,0.8-10.3c-0.3-1.8,2.2-3.2,3.2-1.3c4.2,8.1,5.8,16.9,4.8,25.8c15.9-8.1,36.1-1.9,52.9-7.6c5.3-1.8,10-5.1,13-9.8
	c3.9-6,2-13.6-4-17.3c-5.7-3.4-12.8-0.3-15.8,5c-0.9,1.5-1.3,3.3-1.3,5.1c5-2.5,12-1.8,12.2,5.1c0.2,7-8.9,6.6-12.5,3.4
	c-5.6-4.8-2.9-14.1,1.1-18.8c4.7-5.6,13.3-5.8,19.2-2.2c6.3,3.8,8,12.1,5.6,18.6c-2.7,7.1-9.7,11.5-16.5,14.1
	c-15.9,6-35.6-0.5-50.9,6.6c2.1-0.7,4.2-1.3,6.5-1.7c9.6-1.8,19.6-0.5,28.5,3.3c7.7,3.2,16.3,9.5,17,18.7
	c0.6,7.8-4.4,14.6-12.6,14.5c-3.3,0-6.3-2.3-8.1-4.9c-3.1-4.4-5.2-8.9-9.7-12.3c-17.4-13-38.6-1.3-49.5,14.2
	c3.8,1.6,6.8,4.7,8.1,8.9c2,6.1-0.1,12.4-5.2,16.1l-0.3,0.2c-0.6,0.4-1.1,0.9-1.5,1.5c-1.7,8.3,2.7,14.9,9.1,19.2
	c7.2,3.5,15.8,3.5,23.4-0.9c5.7-3.3,8.1-8.5,11.3-13.8c2.5-4.2,7.3-5,11.8-5.1c1.5-9.4-1.2-21.4-9.3-25.7c2.8,4.6,2.3,10.9-2.1,14.6
	c-5.6,4.6-14.1,1.3-16.4-4.9c-3.1-8.2,5.7-14.7,12.9-14.7c9.6,0,15.7,9.3,17.9,17.5c4.9,18.3-7.6,37.1-25.7,41
	c-8,1.7-17.5-0.1-24.9-4.6c-3.4-1.7-6.4-4-8.9-6.8c-0.4,1.6-1.2,3.1-2.2,4.5c-2.8,3.8-7.2,6.1-11.8,6.1c-3,0-5.9-1-8.4-2.8l-0.3-0.2
	c-0.8-0.6-1.7-1-2.7-1.2c2,7,6.9,12.5,13.8,15.2c2.4,0.9,5,1.3,7.5,1.3c0-0.1,0-0.1,0-0.2c0.7-4.4,4.2-12.1,10.1-9.2
	c5.7,2.7,2.7,9.8-2.2,11.5c-8.7,3.1-17.7,0.8-24.2-4.7l6.4,9.9c1.1,1.7,1.1,4.1,0,5.8l-13.8,21.6v-12.8l7.5-11.7l-7.5-11.7v-11.2v0
	v-1.5v-2.5v-2v0v-4.9c0.2,0,0.4,0,0.6,0c3.1,0,6,1,8.5,2.8l0.3,0.2c1.4,1,2.8,1.5,4.4,1.5c2.4,0,4.8-1.2,6.2-3.2
	c1.4-1.9,1.8-4.3,1-6.7l-0.1-0.4c-1.9-6,0.2-12.4,5.2-16.1l0.3-0.2c3.3-2.4,3.6-5.9,2.7-8.4s-3.1-5.2-7.2-5.2h-0.4
	c-6.3,0-11.8-4-13.7-10l-0.1-0.4c-1.2-3.8-4.5-5.2-7.2-5.2c-0.2,0-0.4,0-0.6,0V720v-5V692.5z M981.5,729.8
	c-7.6-16.7-25.7-25.4-42.9-21.2c0.5,0,1,0,1.5,0c7.1-0.3,14.2,1.9,20,5.9c2.9,2,5.2,4.5,7.1,7.4c2.7,4,4.3,9.3,10,9.4
	C978.9,731.2,980.4,730.6,981.5,729.8z M935.2,706c19-5.8,39.8,2.6,48.7,20.9c1.2-2.3,1.6-5.2,1.2-7.7c-0.9-5.4-5.4-9.4-9.8-12.1
	c-8.1-5.1-18.1-6.7-27.5-6.1C940.5,701.5,936,704,935.2,706z M923.6,701c4.5,3.3,6.8-3.8,6.9-7c0.1-2.2,0-4.3-0.3-6.5
	c-0.2-1.6-1.5-4.6-1.2-6c-0.3,1.6-0.8,3.1-1.5,4.5c-1.2,2.5-2.8,4.8-4.2,7.3C922.3,695.4,921.3,699.3,923.6,701z M920.6,708.7
	c1.6-1.3,3.3-2.5,5-3.6c-1.4-0.1-2.8-0.6-4-1.5C921.5,705.3,921.2,707,920.6,708.7z M899.6,705.5c0.4,0.6,0.3,1.2,0,1.7
	c0,0,0.1,0,0.1,0c3.2,0.8,6.8-1.2,7-4.6C907.2,696.4,895.2,698.6,899.6,705.5z M892.9,720.2c1.1,1.4,2,3,2.6,4.7l0.1,0.4
	c1,3.1,3.9,5.2,7.2,5.2h0.4c0.7,0,1.4,0.1,2,0.1c1.3-3.7,3-7.1,5.1-10.3C904.9,722.8,898.4,722.8,892.9,720.2z M883,715
	c1.4,0.1,2.7,0.4,3.9,0.9c-0.4-0.5-0.9-0.9-1.3-1.5H883V715z M884,976.6c-1.9-18.4-20.3-19-16.5,3.8c3.9,23.2-12.3,43.9-14.7,46.8
	C856,1023.3,885.2,988,884,976.6z M881.2,668.5v12.8l0,0l13.4-20.8c0.4-0.7,0.4-1.8,0-2.5l-13.4-20.8l0,0v12.8l0,0l6,9.3
	L881.2,668.5L881.2,668.5z M1012.3,903.2c25.4-57.4-34.1-60-38.7-16c-4.6,44-27,72.4-44.8,86.7c-17.7,14.3-44,31.7-44,31.7
	S986.9,960.7,1012.3,903.2z M878.4,735.2l-2,6.1c-0.4,1.2-1.5,2-2.7,2h-6.4c-2.8,0-3.9,3.5-1.7,5.1l5.2,3.7c1,0.7,1.4,2,1,3.2
	l-2,6.1c-0.9,2.6,2.1,4.8,4.4,3.2l5.2-3.7c0.4-0.3,0.9-0.5,1.4-0.5v0c0.1,0,0.3,0,0.4,0c0.1,0,0.3,0,0.4,0v0c0.5,0,1,0.2,1.4,0.5
	l5.2,3.7c2.2,1.6,5.2-0.6,4.4-3.2l-2-6.1c-0.4-1.2,0-2.5,1-3.2l5.2-3.7c2.2-1.6,1.1-5.1-1.7-5.1h-6.4c-1.2,0-2.3-0.8-2.7-2l-2-6.1
	c-0.4-1.4-1.7-2-2.8-2C880,733.2,878.8,733.8,878.4,735.2z M1017.9,1124.6c-1.8,0-2.3,1.2-2.9,2.9h0.1l-0.3,0.9
	c-1.2,2.8-22.5,51.8-29.7,51.8c-2.5,0-2.7-6.6-2.6-10.2c0.7-7.8,4-19.4,7.5-30.9c3.5-12,7.3-25,8-34.6c0.8-9.4-1.7-16.5-10-16.5
	c-12,0-21.4,16.8-29.5,31.6c-2,3.4-3.6,6.9-5.6,9.9l4-20.6c3.7-18.9,8.4-42.4,8.8-47.7c0.6-8.9-1.6-18.4-13-18.4
	c-2.2,0-4.1,0.7-4.2,3c0,0.7,0.1,1.5,0.2,2.4c0.2,1.7,0.6,3.7,0.5,6.6c-0.5,6.2-4.2,24.6-8.3,44.8c-2.2,10.7-4.4,21.8-6.4,32.1
	c-0.4,0.9-0.8,1.7-1.1,2.4c-2.5,5.8-5.7,13.4-9.3,20.6v-0.1c-5.9,11.6-15.2,29.5-27.1,29.5c-6.8,0-9-7.3-9-15.6
	c0-1.5,0.1-3.2,0.2-4.6c3.1-25.1,19-59.2,28.1-59.2c4,0,5.8,7.7,5.3,15.1c-0.1,1.9-0.6,4.2-1.1,6.6c0.9,1.1,1.5,1.3,2.3,1.5
	c3.9,0,4.2-5.3,4.4-8.5c0.9-14.9-6.9-30.7-20.3-30.7c-14.6,0-27.1,17.1-34,37.4c-0.2,0.4-0.4,0.9-0.6,1.4h0.1l-0.3,0.9
	c-1.2,2.8-22.7,51.8-29.8,51.8c-2.5,0-2.8-6.9-2.5-10.3c0.3-6.3,2.9-16,5.7-26.4c2.9-11.6,6.1-24.5,6.9-34.1
	c0.7-7.9-1.2-15.1-8.4-15.1c-5.1,0-7,1.2-7.3,4.6c0,0,0.1,1.1,0.2,2c0.2,1.3,0.5,3,0.3,4.4c-0.7,10.7-3.1,18-6,28.7l0.1-0.1
	c-6.6,12.7-23.3,46-29.5,46c-1.4,0-1.6-3.3-1.5-7.1c1-10.6,6-30.4,8.8-40.4c1.6-5.3,3.9-13.6,4.4-21.3c0.5-6.9-0.8-13.7-5.2-16.9
	c-1.4-0.9-5-2.2-7.9-2.2c-2,0-4.1,0.8-4.2,3.2c0,0.7,0,1.2,0.2,2v-0.1c0.3,1.3,0.8,3.2,0.6,5.9c-0.4,5.4-2.5,14.5-4.8,24.2
	c-0.3,0.5-0.5,1.1-0.8,1.7h0.1l-0.3,0.8c-0.1,0.1-0.3,0.7-0.3,0.8c-3.4,7.8-22.8,51.3-29.3,51.2c-2.6,0-2.9-6.6-2.6-10
	c0.6-7.9,4-19.3,7.4-30.7c3.9-12,7.5-25.1,8.2-35c0.6-9.4-1.7-16.5-10-16.5c-12.2,0-21.6,17.3-30,32.5c-0.8,1.5-1.4,2.4-2.2,3.8
	c2.3-7.4,4.1-14.9,4.5-21c0.5-8.5-1.9-16.5-10.4-16.5c-12,0-21.1,16.7-29.2,31.5c-2,3.7-4,7.3-5.9,10.3c0.3-2.4,0.6-2.5,1.1-5.6
	c1-4.2,2-9.3,2.4-14c0.6-8.7-1.6-18.4-13-18.4c-2.2,0-4,0.8-4.2,3c0,0.9,0.1,1.5,0.2,2.4c0.2,1.7,0.6,3.8,0.5,6.6
	c-0.5,6.3-2.5,15.5-4.4,24.9c-2.6,11.4-5.2,24.3-6.1,36.2c-0.1,1.9-0.2,3.7-0.2,5.4c0,10.8,2.7,22.1,13.7,22.1
	c1.5,0,2.5-0.4,2.7-1.7c0-0.5-0.1-1.3-0.3-2.1c-0.6-2.4-1.4-6.9-1-13.1c0.7-8.2,2.7-18.5,5-25.5h-0.1l1.9-3.7v0.1
	c6.2-12.3,23.2-46.5,31.3-46.5c0.9,0,1.1,0.7,1,2.4c-0.2,3.7-2.8,11.8-6,21.1c-4.5,13.7-10.3,32.3-11.7,46.3
	c-0.1,1.2-0.1,2.9-0.1,4.1c0,10.8,3.6,19.7,14.5,19.7c1.6,0,2.5-0.4,2.6-1.7c0.1-0.9,0-1.2-0.1-1.6c-1.8-4.2-2.3-9-2-13.6
	c0.6-6.3,2.3-14,4.6-22.1l-0.1,0.1c2-3.3,4.8-8.5,8-14.5c8.6-16.7,20.3-39,27.3-39c0.3,0,0.5,0.1,0.6,0.1c0.5,0.3,0.7,1.1,0.6,2.1
	c-0.3,3.7-2.9,11.5-6,21c-4.5,13.7-10.3,32.1-11.7,45.9c-0.1,1.3-0.2,3-0.2,4.2c0,10.3,3.6,17.7,13.9,17.7c10.6,0,22-20.7,30.7-39.8
	c-1.2,6.3-2.2,12.5-2.6,17.7c-0.1,1.8-0.2,3.7-0.2,5.4c0,9.9,2.7,16.7,10.5,16.7c12.2,0,21-15.6,28.9-29.9c0.2-0.3,0.3-0.8,0.6-1.1
	c-0.6,2.9-1,5.9-1.1,8.6c0,1.2,0,2.8,0,3.8c0,10.2,3.4,17.3,13.9,17.3c10.9,0,22.2-21,30.8-40.1c-0.1,0.8-0.1,1.5-0.2,2.3v-0.1
	c-0.2,2.4-0.2,4.6-0.2,6.9c0,18.2,5.8,34.9,21.5,34.9c21.1,0,32.4-21.9,40.5-39c0.6-1.2,1.2-2.4,1.7-3.6c-0.8,5.1-1.4,9.4-1.6,12.7
	c-0.1,1.9-0.2,3.7-0.2,5.4c0,10.8,2.8,22.1,13.7,22.1c1.6,0,2.6-0.4,2.6-1.8c0-0.5-0.1-1.2-0.3-2c-0.5-2.4-1.2-6.9-0.9-13.1
	c0.7-8.2,2.6-18.5,5.1-25.5h-0.1l1.8-3.7v0.1c6.2-12.3,23.2-46.5,31.4-46.5c0.8,0,1.1,0.7,1,2.4c-0.3,3.6-2.9,11.4-6,20.9
	c-4.4,13.7-10.2,32.3-11.7,45.9c-0.1,1.2-0.1,2.8-0.1,4c0,10.4,3.4,18,13.8,18c13.8,0,28.8-34.9,37.8-55.8l3.4-8.1
	C1020.1,1125.7,1019.1,1124.6,1017.9,1124.6z M1022.6,485.8c-2.9,5.3-6,10.2-9.3,14.6c-3.3,4.4-6.9,8.2-10.6,11.6
	c-7,6.4-14.8,10.9-23.4,13.4c-5.1,1.5-10.1,2.3-15,2.3c-1.6,0-3.1-0.1-4.7-0.2c-1.5-0.2-3.1-0.4-4.7-0.6c-6.2-1.1-12.3-3.2-18.3-6.4
	c2.3,7.9,4.1,15.8,5.4,24c1.3,8.1,2.1,16.4,2.3,25c0,1.2-0.4,2.1-1.3,2.8c-0.9,0.7-1.9,0.7-3,0.2l-11.5-6.5l-12.2,11.5
	c-0.4,0.5-1,0.8-1.9,0.8c-0.6,0-1.1-0.2-1.5-0.5c-1.3-0.7-1.7-1.9-1.3-3.6c2.3-10.6,3.7-21.5,4.2-32.7c0.5-11.2,0.1-23.5-1.2-36.7
	h-11.8c-1.3,13.2-1.7,25.4-1.1,36.7c0.5,11.2,2,22.1,4.2,32.7c0.3,1.6-0.1,2.8-1.3,3.6c-0.5,0.3-1,0.5-1.6,0.5
	c-0.8,0-1.4-0.3-1.9-0.8l-12.2-11.5l-11.3,6.5c-1.1,0.5-2.1,0.5-3-0.2c-1-0.8-1.4-1.7-1.3-2.8c0.3-11.6,1.4-22.4,3.3-32.4
	c1.3-5.8,2.6-11.3,4-16.5c-9.4,4-18.8,6.1-28.2,6.1c-7.3,0-14.5-1.1-21.4-3.4c0,0-0.1,0-0.1,0c-2.2,2.8-4.3,5-6.3,6.6
	c-10.2,57.9-26.6,119.8-56,115.7c-8.4-1.2-13.9-10.6-13.9-23c0-3,0.3-6.1,1-9.3c7.5-32.4,26.6-54.6,47.2-75.5
	c1.3-7.7,2.9-16.4,4.8-27.2c-0.4-0.3-0.8-0.7-1.3-1c-0.2-0.1-0.3-0.3-0.5-0.4c-9.3,16.9-19.3,32.8-30.3,32.8
	c-7.8,0-10.7-6.7-10.7-16.7c0-1.7,0.1-3.6,0.2-5.4c0.3-3.2,0.7-6.8,1.4-10.5c-5.5,11.1-11.5,21.6-16.9,26.8
	c-3.1,2.9-7.6,5.2-11.7,5.2c-10.8,0-11.7-20.6-10.5-29.5c0-0.4,0-0.1,0.1-1.3c-8.2,15.7-19.8,31.3-32.5,31.3
	c-11.8,0-15.7-10.3-15.7-22.2c-1.4,2.5-2.8,4.9-4.2,7.1c-5.1,7.5-11.3,15.3-20.3,16c-13.3,0-18.2-8.3-18.2-22.5
	c0-1.6,0.1-3.4,0.2-5.4c0.1-2.4-0.1-2.4,0.5-5.8C628.8,525,617,542,603.9,542C592,542,588,531.7,588,520c0-1,0-2.2,0.1-3.3
	c-7.2,13.1-15.2,23.8-22.8,23.8c-10.4,0-13.8-7.5-13.8-18c0-1.2,0-2.8,0.1-4c1.5-13.6,7.3-32.1,11.7-45.9c3.1-9.5,5.7-17.3,6-20.9
	c0.1-1.7-0.2-2.4-1-2.4c-8.2,0-25.2,34.2-31.4,46.5v-0.1l-1.8,3.7h0.1c-2.5,7-4.4,17.3-5.1,25.5c-0.3,6.2,0.5,10.7,0.9,13.1
	c0.2,0.8,0.3,1.5,0.3,2c0,1.5-1,1.9-2.6,1.9c-10.9,0-13.7-11.2-13.7-22.1c0-1.7,0.1-3.6,0.2-5.4c0.2-3,0.7-7,1.4-11.6
	c-8.8,19.9-19.7,39.6-32.6,39.6c-13.5,0-18-8.2-18-22.1c0-1.9,0.1-3.8,0.2-5.9c0.2-2.6,0.6-6.2,1.3-10.4
	c-6.1,12.8-13.1,25.9-19.3,31.8c-3.1,2.9-7.5,5.2-11.7,5.2c-7.8,0-10.8-11.1-10.8-23.4c0-2,0.1-4.1,0.2-5.9c0.7-9,5.3-31.7,8.5-41.1
	l-7.7-0.4c-0.8,1.9-1.7,3.9-2.5,5.9c0.1,0.2,0.2,0.4,0.4,0.7l-1.2,2.8c-8.8,21.4-26.5,61.3-39.7,61.3c-10.5,0-13.9-10.6-13.9-23.8
	c0-2.1,0.1-4.4,0.2-6.5c0.3-4.4,0.8-8.7,1.5-13c-9.8,15.7-24.4,32.8-40.3,41.5c-6.1,3.3-14.1,6.7-21.5,6.7c-2,0-3.7-0.3-5.6-0.8
	c-8.6-2.8-14.4-11.4-13.8-25c0.5-15.5,7-47.6,12.6-74.4c3.7-18.5,7.1-34.5,7.6-41.1c0.1-2.9-0.2-5-0.5-6.6c-0.1-0.9-0.2-1.7-0.2-2.4
	c0.1-2.4,2-3,4.1-3c11.8,0,13.7,9.3,13,18.4c-1.2,14.3-5.9,35.7-10.4,55.5c-0.5,2.4-0.6,2.2-1.1,4.9c7.9-13.7,18.2-25.5,29.5-25.5
	c11.9,0,15.9,10.2,15.9,21.9c0,1.5-0.1,2.9-0.2,4.4c-1.1,14.1-9.2,36.7-19.7,52.7c12.6-10.8,25.7-26.6,34.1-43.9
	c1.6-6.9,3.5-13.8,5.4-20.7l1.6-6.1v0.1c0.2-1.5,0.3-2.8,0.3-3.7c0-1.2,0.1-2,0.2-2.5c0.6-2.2,2.6-2.5,4.8-1.9
	c6.2,2.6,9.1,5.6,9.1,10.6c0,2.5-0.6,5.4-1.5,9c-3.1,11.4-7.9,33.7-9.4,48.4c-0.1,1.7-0.2,4-0.2,5.4c0,6.2,1,10.3,3.5,10.4
	c6,0,17.9-25.7,25.5-42.4l-0.1,0l7.8-18.1c-10.3-1.2-14.8-11.6-14.1-22.3c1.4-11.4,9-25.4,19.7-25.4c6.7,0,9.4,4.6,9,13.7
	c-0.9,9.9-5.3,22.6-6.6,26.4c3.6,1.1,7,1.1,10.1,1.1c6.2,0,10.3,0.1,9.6,8.6c-0.1,1.3-0.3,2.9-0.7,4.5l-1.1,5.4
	c-2.6,12.7-6.1,29.2-7,38.9c-0.3,5.6,0.9,9.9,2.5,10.2c7.4-3.4,20.1-29.9,27.6-46.3c2.3-12.3,5-26,7.5-38.4l1.6-7.5
	c-5.1,0.5-9.7,0.9-14.2,0.9c-9.2,0-16.7-2.1-19.5-9.4c-0.7-1.9-0.6-5.2,2.3-3.2l-0.1-0.1c4.5,2.2,10,3,15.8,3
	c5.4,0,11.9-0.8,17.8-1.5c2-11,3.7-20,4.1-23.7c0.1-2.9-0.2-4.9-0.5-6.6c-0.1-0.9-0.2-1.7-0.2-2.4c0.2-2.5,2-3,4.2-3
	c11.8,0,13.7,9.3,13,18.4c-0.3,4.6-1.2,9.9-2.3,15.9c12-0.1,22.6,2.5,28.4,12.9c3.3-16.2,5.9-29.9,6.3-35.1c0.1-2.9-0.2-4.9-0.5-6.6
	c-0.1-0.9-0.2-1.7-0.2-2.4c0.1-2.4,2-3,4.2-3c11.4,0,13.6,9.5,13,18.4c-0.5,5.3-5.1,28.8-8.8,47.7l-4,20.6c1.9-3,3.5-6.5,5.6-9.9
	c8-14.8,17.5-31.6,29.5-31.6c8.3,0,10.8,7.1,10,16.5c-0.8,9.6-4.5,22.6-8,34.6c-3.5,11.5-6.8,23.1-7.5,30.9
	c-0.1,3.6,0.1,10.2,2.6,10.2c4.6,0,14.9-20.1,22.1-35.3c8.3-25,25.7-52.9,45.4-52.9c4.1,0,7.5,1.5,10.5,4.1l1.1-5
	c3.3-16.7,6.2-30.8,6.6-36.2c0.1-2.9-0.2-5-0.5-6.6c-0.1-0.9-0.2-1.7-0.2-2.4c0.1-2.4,2.2-3,4.3-3c11.8,0,13.6,9.3,12.9,18.4
	c-0.6,8.1-4.6,28.3-9,49.7c-0.6,3.6-1.8,8.7-2.9,14.4c-3.3,14.9-7.5,34.9-7.5,46.7c0,1.6,0,3,0.2,4.2c0.5,3.8,1.9,5.4,4.1,5.4
	c3.7,0,9-4.6,11.9-8.6c4.3-5.6,8.3-13.2,11.8-20.6c7-26.6,25.9-60.9,47.8-60.9c13.3,0,20.8,16.3,19.9,30.9c-0.2,2.5-0.7,4.9-1.4,7.1
	l-0.1,0.1c-0.3,0.5-2.3,1.2-2.8,1.2c-0.8,0-1.7-0.5-2.4-1.6c0.6-1.9,0.8-3.6,1-5.4c0.3-9-2.7-20.2-11-20.2c-16,0-33.5,48-34.7,63.5
	c-0.3,5,0.1,11.9,5.4,11.9c9.5,0,21.5-25.2,27.2-38.2c0.5-2,1.8-4.6,1.6-7.8c-0.2-2.4,2.2-3,4.4-3.2c9,0.9,11.9,5.2,12.4,10.7
	c0.5,5.7-1.6,12.6-2.4,18.2c-0.6,3.6-3.5,24.3,2.2,18.4c7.2-8.4,16.3-27.3,22.2-40.4c0.6-2.5,1.2-5,1.7-7.4
	c2.5-10.6,4.9-20.8,5.3-26.6c0.2-2.8-0.2-4.6-0.5-5.9c-0.1-0.7-0.2-1.1-0.2-1.9c0.1-2.4,2-3.2,4.1-3.2c2.9,0,6.6,1.3,7.9,2.2
	c4.3,3.4,5.8,10.2,5.3,16.9c-0.5,6.9-2.3,13.6-3.7,18.8l-0.5,1.7c0.3,0,0.7,0,1,0.1c0.7,0.3,1.3,0.8,1.7,1.7
	c2.9,5.8,6.5,11,10.7,15.6c2.4-4.5,4.5-8.9,6.3-12.4v0.1c0.6-1.1,1.2-2.1,1.7-3.2l-0.1,0.1c2.3-13.5,3.5-23.3,3.6-26.3
	c0.2-3-0.2-5.3-0.5-7.1c-0.2-1.1-0.2-1.9-0.2-2.4c0.2-2.4,2-3,4.4-3.2c10,0,13.7,5.7,14.5,13c-1.2,17-3,33.5-6.9,57.6
	c0.8,0.3,1.5,0.6,2.3,0.9c0,0,0,0,0,0c7.5-9.3,15.3-26.3,20.9-39.3l0.5-0.4c0.1,0,0.3,0,0.7-0.1c0.9-0.2,2-0.5,3.3,0.5
	c1.4-5,3.1-9,5.3-11.8c2.3-3,5-4.4,8.1-4.2c2.9,0.2,6.1,1.1,9.5,2.6c3.5,1.5,6.9,3.3,10.3,5.3c3.4,2,6.5,4.1,9.2,6.1
	c2.8,2.1,4.9,3.7,6.4,4.7H915c1.7-1.2,3.9-2.8,6.6-4.9c2.7-2.1,5.7-4.1,8.9-6.1c4.1-2.5,7.6-4.4,10.7-5.6c3.1-1.3,5.8-2,8.2-2.2
	c3-0.2,5.7,1.2,8,4.2c2.4,3,4.3,7.3,5.7,12.8c0.8,3.5,1.3,7.1,1.6,10.7c0.2,3.7,0.1,7.1-0.4,10.4c-0.9,8.3-3.5,13.6-7.7,15.9
	c-2,1.1-4.5,1.6-7.4,1.6c-3.2,0-6.8-0.7-11-2c7.3,4,14.7,6.4,22.1,7c7.4,0.6,14.5-0.5,21.4-3.2c6.9-2.7,13.4-7.1,19.6-13
	c6.1-5.9,11.6-13.4,16.4-22.3c0.5-0.8,1.1-1.3,1.9-1.6c0.7-0.3,1.5-0.1,2.2,0.4C1023.3,482.4,1023.6,483.9,1022.6,485.8z
	 M341.5,470.5c0.5-5,0-11.9-5.3-11.9c-8.6,0-19.1,20.1-25.3,33.4l0.1-0.1l-0.7,3.2c-1.7,7.5-4.6,21.2-4.6,29.9
	c0,4.9,0.8,8.3,3.3,8.3c1,0,2-0.4,3.3-1.2C326.6,523.4,340.5,484.2,341.5,470.5z M430.8,438.7c0.1-2,0.1-2.8-0.3-2.8
	c-2.4,0-8.7,10.8-9.3,18.4c-0.3,3.3,0.6,5.8,3.5,6.5C426,457.7,430.2,445.6,430.8,438.7z M527.6,445.5c-6.2-7.1-15.7-9.1-26.1-9.1
	h-2.8c-1.5,7.8-3.3,15.9-5.1,24.1l-2.2,10l-0.3,1.7c-2,9.1-7.4,33.4-7.4,48.1c0,5,0.6,9.1,2.4,10.6c1.4,1.2,4.5,0.3,8.8-3.4
	c9.4-8.7,18-28.9,23.2-41.6H518c1-2.4,1.9-4.5,2.8-6.4c1.9-9.8,4-20.3,6.1-30.3C527.1,447.9,527.3,446.7,527.6,445.5z M647.2,455.7
	c-1.5-1.3-3.3-2-5.4-2c-16,0-33.5,48-34.7,63.5c-0.5,5,0,11.9,5.3,11.9c10.2,0,22.9-27.9,28.2-40.1l-0.1,0.1
	c1.6-8.7,3.5-18.4,5.4-28C646.3,459.3,646.8,457.7,647.2,455.7z M801.1,504.2c-4.7-5-8.7-10.6-12.1-16.9
	c-2.9,10.7-6.6,26.1-7.4,34.9c-0.1,3.8,0.1,7.1,1.5,7.1C786.7,529.4,794.3,516.9,801.1,504.2z M800.7,548.9
	c-10.5,9.6-20.6,22.3-28.4,36.2c-3.3,6.3-11.4,25.6-11.4,36.7c0,4.6,1.6,8.1,5.7,8.1c3.5-0.5,6.9-3.7,9.9-8.3
	c8.8-13.6,16-39.9,21-58.7c0.9-3.2,1.5-6.3,2.3-9v0.1L800.7,548.9z M876.9,514.9c-3,0.7-5.7,1-8,1c-3.3,0-5.9-0.5-7.9-1.6
	c-4.2-2.3-6.8-7.6-7.9-15.9c-0.4-3.3-0.5-6.7-0.2-10.4c0.2-2.4,0.4-4.7,0.8-7c-5.2,12-12,26.1-18.8,36.4c5.8,1.6,11.8,2.4,18,2.4
	C861,519.8,869.1,518.2,876.9,514.9z M886.1,505.2c3-1.2,5.9-2.5,8.6-3.8c-0.4-0.5-0.6-1.1-0.7-1.8l-5.7,0.5H888
	c-0.8,0-1.5-0.3-2-0.9c-0.5-0.6-0.8-1.3-0.8-2.2c-0.1-0.9,0.1-1.7,0.7-2.4c0.5-0.7,1.2-1.1,2-1.1l6-0.5v-2.5h-5.2
	c-0.8,0-1.5-0.3-2.1-1c-0.6-0.7-0.9-1.4-0.9-2.3c0-0.9,0.3-1.6,0.9-2.3c0.6-0.7,1.3-1,2.1-1h5.4c0.2-1.1,0.7-2.2,1.6-3.3
	c-2.4-1.7-4.8-3.4-7.4-5.1c-2.5-1.6-5-3.1-7.4-4.4c-2.4-1.3-4.8-2.4-7-3.2c-2.2-0.8-4.2-1.3-5.9-1.4c-1.4-0.1-2.8,0.9-4.2,3.1
	c-1.4,2.2-2.5,5.2-3.4,9c-0.8,3.2-1.3,6.4-1.4,9.6c-0.1,3.2-0.1,6.2,0.2,8.9c0.3,2.7,0.8,5.1,1.6,7c0.8,2,1.8,3.3,3,3.9
	c1.5,0.9,3.4,1.2,5.8,1.1c2.4-0.2,5-0.6,7.8-1.3C880.2,507.4,883.1,506.4,886.1,505.2z M898.4,566.1c-3-17.8-3.6-37.3-1.8-58.4
	c-1,0.5-2,1-3.1,1.5c-1.1,0.4-2.2,0.9-3.4,1.3c-3.2,8.4-5.7,16.9-7.5,25.5c-1.8,8.6-3,17.9-3.5,27.8l8.7-4.9
	c1.2-0.5,2.3-0.4,3.3,0.5L898.4,566.1z M917.7,485.6h-18V498h18V485.6z M926.7,509.7c-1-0.4-2-0.8-2.9-1.2c-0.9-0.4-1.9-0.8-2.9-1.4
	c1,10.9,1.3,21.2,1,30.8c-0.3,9.7-1.2,19.1-2.7,28.2l7.1-6.7c1-0.9,2.1-1,3.3-0.5l8.5,4.9C937.1,545.1,933.3,527,926.7,509.7z
	 M942.3,508.4c5.4,1.3,9.2,1.3,11.6,0c1.2-0.7,2.2-2,3-3.9c0.8-2,1.3-4.3,1.6-7c0.3-2.7,0.3-5.7,0.1-8.9c-0.2-3.2-0.6-6.4-1.3-9.6
	c-0.9-3.8-2-6.8-3.4-9c-1.4-2.2-2.8-3.2-4.3-3.1c-1.8,0.1-3.8,0.7-6.2,1.6c-2.3,1-4.7,2.2-7.2,3.7c-2.5,1.5-4.9,3.1-7.3,4.7
	c-2.4,1.7-4.5,3.2-6.4,4.7c0.6,0.8,0.9,1.6,1,2.6h4.9c0.8,0,1.5,0.3,2.1,1c0.6,0.7,0.9,1.4,0.9,2.3c0,0.9-0.3,1.6-0.9,2.3
	c-0.6,0.7-1.3,1-2.1,1h-4.8v2.5l5.5,0.5c0.8,0,1.5,0.4,2,1.1c0.5,0.7,0.8,1.5,0.7,2.4c0,0.9-0.3,1.6-0.8,2.2c-0.5,0.6-1.2,0.9-2,0.9
	h-0.3l-5.2-0.5c0,0.4-0.1,0.9-0.4,1.3C930.5,504.6,936.9,507,942.3,508.4z M186.3,997.3c0.3,0.3,0.5,0.5,0.5,0.5
	S186.7,997.6,186.3,997.3z M867.8,657.9c-0.4,0.7-0.4,1.8,0,2.5l13.4,20.8l0,0v-12.8l0,0l-6-9.3l6-9.3l0,0v-12.8l0,0L867.8,657.9z
	 M783.9,673c0-1.8-0.4-3.6-1.3-5.1c-3.1-5.3-10.1-8.5-15.8-5c-6.1,3.6-8,11.3-4,17.3c3.1,4.7,7.8,8,13,9.8
	c16.9,5.7,37.1-0.5,52.9,7.6c-1-8.9,0.7-17.7,4.8-25.8c1-1.9,3.5-0.5,3.2,1.3c-0.6,3.4-0.5,7.1,0.8,10.3c1.2,3,3.2,5.3,4.5,8.2
	c0.3,0.5,0.5,1.1,0.7,1.7c1-2.1,2.5-4,4.4-5.6c5.5-4.5,13.5-6.3,19.8-1.9c5.7,4.1,8.8,11.4,5,18c-2.9,5.1-10.1,9.4-15.8,5.5
	c-5.7-3.9-4.8-12.4,2.2-14.1c6-1.5,9.6,4.5,8.4,9.6c2.3-2.1,3.6-5.1,3.3-8.2c-1.3-11.2-16-12.5-22.3-4.7c-5.9,7.4-4.4,19.7,4.1,24.6
	c7,4.1,15.7,2.5,21.2-3.1c-0.4-1,0.1-2.4,1.5-2.4h4.8v-15.1h-0.2c-0.2,0-0.4,0-0.6-0.1c-0.5,0-1.1-0.2-1.4-0.9
	c-2.6-5.5-6.8-10.3-12.4-13.1c-5.2-2.6-11.2-2.6-16.3-5.2c-6.6-3.3-11.2-12.4-3.6-17.6c8.7-5.9,18.5,0.9,24.3,7.8
	c6.3,7.4,10.2,16.1,11.5,25.7h0.4V715v5v1.9c-0.2,0-0.4,0-0.6,0c-2.6,0-5.9,1.4-7.2,5.2l-0.1,0.4c-1.9,6-7.5,10-13.7,10h-0.4
	c-4,0-6.3,2.7-7.2,5.2s-0.5,6.1,2.7,8.4l0.3,0.2c5.1,3.7,7.2,10.2,5.2,16.1l-0.1,0.4c-0.8,2.4-0.4,4.7,1,6.7c1.4,2,3.8,3.2,6.2,3.2
	c1.6,0,3-0.5,4.4-1.5l0.3-0.2c2.5-1.8,5.4-2.8,8.5-2.8c0.2,0,0.4,0,0.6,0v4.9v0v2v2.5v1.5v0v11.2l-7.5,11.7l7.5,11.7v12.8
	l-13.8-21.6c-1.1-1.7-1.1-4.1,0-5.8l6.4-9.9c-6.5,5.5-15.5,7.7-24.2,4.7c-4.9-1.7-7.8-8.8-2.2-11.5c6-2.9,9.4,4.8,10.1,9.2
	c0,0.1,0,0.1,0,0.2c2.6,0,5.1-0.4,7.5-1.3c6.9-2.7,11.8-8.2,13.8-15.2c-1,0.2-1.9,0.6-2.7,1.2l-0.3,0.2c-2.5,1.8-5.4,2.8-8.4,2.8
	c-4.6,0-9-2.3-11.8-6.1c-1-1.4-1.7-2.9-2.2-4.5c-2.5,2.8-5.6,5.1-8.9,6.8c-7.4,4.5-16.9,6.3-24.9,4.6c-18.1-3.9-30.6-22.7-25.7-41
	c2.2-8.3,8.3-17.5,17.9-17.5c7.2,0,16,6.5,12.9,14.7c-2.3,6.3-10.9,9.6-16.4,4.9c-4.4-3.7-4.9-10-2.1-14.6
	c-8.2,4.3-10.8,16.3-9.3,25.7c4.5,0.2,9.3,0.9,11.8,5.1c3.2,5.4,5.6,10.5,11.3,13.8c7.6,4.4,16.3,4.4,23.4,0.9
	c6.4-4.3,10.8-10.9,9.1-19.2c-0.4-0.5-0.9-1-1.5-1.5l-0.3-0.2c-5.2-3.7-7.2-10.1-5.2-16.1c1.4-4.2,4.3-7.3,8.1-8.9
	c-10.9-15.5-32.1-27.3-49.5-14.2c-4.5,3.3-6.6,7.8-9.7,12.3c-1.8,2.6-4.8,4.9-8.1,4.9c-8.2,0.1-13.1-6.8-12.6-14.5
	c0.7-9.1,9.3-15.4,17-18.7c8.9-3.7,19-5.1,28.5-3.3c2.2,0.4,4.4,1,6.5,1.7c-15.3-7.1-35-0.6-50.9-6.6c-6.8-2.5-13.8-7-16.5-14.1
	c-2.5-6.5-0.8-14.9,5.6-18.6c5.9-3.5,14.5-3.4,19.2,2.2c4,4.7,6.7,14,1.1,18.8c-3.7,3.2-12.7,3.6-12.5-3.4
	C771.8,671.2,778.9,670.5,783.9,673z M875.5,715.9c1.2-0.5,2.5-0.8,3.9-0.9v-0.6h-2.6C876.4,715,875.9,715.4,875.5,715.9z
	 M852.1,720.4c2.1,3.2,3.8,6.7,5.1,10.3c0.7-0.1,1.3-0.1,2-0.1h0.4c3.3,0,6.2-2.1,7.2-5.2l0.1-0.4c0.6-1.8,1.5-3.4,2.6-4.7
	C864,722.8,857.5,722.8,852.1,720.4z M855.6,702.7c0.2,3.4,3.8,5.4,7,4.6c0,0,0.1,0,0.1,0c-0.3-0.5-0.3-1,0-1.7
	C867.2,698.6,855.2,696.4,855.6,702.7z M840.8,703.5c-1.2,1-2.6,1.5-4,1.5c1.7,1.1,3.4,2.3,5,3.6C841.2,707,840.9,705.3,840.8,703.5
	z M831.8,694c0.1,3.2,2.4,10.3,6.9,7c2.4-1.7,1.4-5.6,0.2-7.7c-1.4-2.5-3-4.7-4.2-7.3c-0.7-1.5-1.2-3-1.5-4.5c0.3,1.5-1,4.4-1.2,6
	C831.9,689.7,831.8,691.9,831.8,694z M823.8,708.6c-17.3-4.2-35.3,4.5-42.9,21.2c1.2,0.9,2.6,1.4,4.3,1.4c5.7-0.1,7.3-5.4,10-9.4
	c1.9-2.8,4.3-5.4,7.1-7.4c5.8-4,12.9-6.2,20-5.9C822.9,708.6,823.4,708.6,823.8,708.6z M814.6,701c-9.4-0.7-19.4,1-27.5,6.1
	c-4.4,2.8-8.9,6.7-9.8,12.1c-0.4,2.5,0,5.3,1.2,7.7c9-18.3,29.8-26.7,48.7-20.9C826.4,704,821.9,701.5,814.6,701z M640.2,1214.7
	h43.6v9.5h-67.6c-1.2,1.6-2.6,3-4.3,4.3c-2.2,1.6-4.4,2.8-6.7,3.7c-1.8,0.8-3.7,1.4-5.8,1.8c-0.1,0-0.2,0-0.4,0.1c0,0-0.1,0-0.1,0
	c0,0-0.1,0-0.1,0l-0.3,0c-1.6,2.5-3.6,4.5-6,6c-1.6,1-3.2,1.7-4.6,2c-0.8,0.2-1.5,0.3-2.2,0.3c-1,0-1.8-0.1-2.5-0.2
	c-1.1-0.2-2.1-0.5-3.1-1c-1.7-1-2.6-2.5-2.6-4.4c0-1.6,0.5-2.8,1.5-3.7c0.8-0.8,2-1.3,3.4-1.3c0.1,0,0.2,0,0.4,0
	c-0.7-0.3-1.3-0.7-1.8-1.1c-2.7,1-5.4,1.7-8,2c-1,0.1-2.1,0.2-3.4,0.2c-3.5,0-6.6-0.8-9.1-2.5c-2.2-1.4-3.8-3.2-4.8-5.3
	c-0.6,0.1-1.3,0.2-2,0.2c-0.9,0.1-1.8,0.1-2.7,0.1c-3.9,0-7-0.5-9.6-1.4h-51.6v-9.5h43.6c0-0.3-0.1-0.6-0.1-0.9c0-3,1.1-5.6,3.2-7.6
	c2.1-2,4.8-3,7.9-3c3.3,0,5.7,0.8,7.3,2.6c1.5,1.6,2.2,3.5,2.2,5.5c0,1.2-0.3,2.3-0.9,3.4h2.1c0.3-1,0.6-1.9,1.1-2.7
	c0.4-0.8,0.9-1.5,1.4-2.2c1.9-4.3,4.8-8.1,8.7-10.8c11.9-8.3,24.2-3,23.4-3.2c-7.7-2-16.3-0.5-22.7,4.4c-2.3,1.7-4.2,3.8-5.8,6.1
	c1.6-1.2,3.4-2.1,5.5-2.6c2.2-0.6,4.2-0.9,6.1-0.9h0.3c2.6,0,5,0.3,7.2,1c1.1,0.3,2.4,0.8,3.7,1.4c0.7,0.4,1.4,0.7,2,1.1
	c0.1,0,0.2-0.1,0.3-0.1c0.4-0.2,0.8-0.3,1.2-0.5c2-0.7,3.8-1.3,5.7-1.8c1.8-0.4,3.6-0.7,5.5-0.9c0.2,0,0.3,0,0.4,0
	c0.1,0,0.1,0,0.2,0c0.8,0,1.6,0,2.4,0c2.1,0,4.1,0.4,6.2,1.1c1.9,0.6,3.7,1.5,5.3,2.7c2.3-1.1,4.6-2,6.8-2.6
	c2.4-0.7,5.1-1.1,7.9-1.1c1.3,0,2.8,0.1,4.2,0.4c1.6,0.3,2.9,0.9,4.1,1.6c1.2,0.7,2.2,1.8,3.1,3.3c0,0,0,0,0,0
	c0.8,1.5,1.2,3.2,1.2,5.4C640.3,1214,640.3,1214.4,640.2,1214.7z M551.3,1211.2c0-1.3-0.6-2.4-1.7-3.4c-1.2-1-2.8-1.6-4.6-1.6
	c-0.8,0-1.8,0.2-2.9,0.7c-1,0.4-2,1-3,1.7c-0.8,0.7-1.6,1.6-2.2,2.6c-0.6,1-0.9,2-0.9,3.1c0,0.1,0,0.3,0,0.4h14
	c0.1-0.2,0.3-0.3,0.4-0.5C551,1213.3,551.3,1212.3,551.3,1211.2z M584.1,1211.2c0.7-0.2,1.5-0.4,2.2-0.5c-0.1-0.2-0.3-0.3-0.4-0.5
	C585.3,1210.6,584.7,1210.9,584.1,1211.2z M582.8,1214.7h5.3c-0.1-0.4-0.1-0.8-0.3-1.3c0,0-0.1,0-0.1,0c-1.5,0-2.8,0.3-3.9,0.8
	C583.4,1214.4,583.1,1214.5,582.8,1214.7z M558.3,1214.7h11.5c0,0,0.1,0,0.1-0.1c0.4-0.2,0.7-0.4,1.1-0.6c0.4-0.2,0.7-0.4,1.1-0.6
	c1.5-0.9,3.2-1.8,4.8-2.7c2.1-1.1,3.9-2.1,5.7-2.9c-1-0.5-2.1-1-3.3-1.4c-1.9-0.6-4-0.8-6.2-0.8h-0.4c-2.3,0-4.4,0.4-6.2,1.2
	c-2,0.8-3.6,1.9-5,3.2c-1.4,1.3-2.4,2.8-3.1,4.5C558.4,1214.5,558.4,1214.6,558.3,1214.7z M577.9,1228.3c-1.1-1.2-1.8-2.5-2.1-4h-16
	c-0.4,0.1-0.8,0.3-1.2,0.4c0.8,1.5,2,2.7,3.5,3.6c1.9,1.1,4.2,1.6,7,1.6c1.4,0,2.5-0.1,3.5-0.2c0,0,0,0,0,0
	C574.2,1229.4,576,1228.9,577.9,1228.3z M578.7,1214.3c-0.2,0.1-0.5,0.3-0.7,0.4h0.3C578.4,1214.6,578.5,1214.4,578.7,1214.3z
	 M582.7,1226.2l0.2-0.1c1.1-0.5,2.3-1.2,3.5-1.9h-7.2c0.4,1,1,1.9,1.9,2.8C581.6,1226.8,582.2,1226.5,582.7,1226.2z M594.5,1234.5
	c-2.4,0-4.8-0.3-7.1-0.9l-0.5-0.1c-0.8-0.2-1.5-0.4-2.3-0.7c0.4,0.3,0.7,0.7,0.9,1.1c0.2,0.5,0.1,1-0.3,1.3c-0.4,0.3-1,0.3-1.4-0.1
	c-0.4-0.3-0.9-0.5-1.4-0.5c-0.1,0-0.1,0-0.2,0c-0.3,0-0.7,0.1-1,0.5c-0.3,0.5-0.4,1.1-0.4,1.7c0,1.2,0.4,1.9,1.4,2.4
	c0.5,0.2,1,0.4,1.5,0.5c1.4,0.3,2.5,0.3,3.8,0c1.2-0.3,2.3-0.9,3.4-1.7C592.3,1237.2,593.5,1236,594.5,1234.5z M597.8,1224.3
	C597.8,1224.3,597.8,1224.3,597.8,1224.3l-4.5,0c-0.9,0.6-1.8,1.1-2.6,1.6c-0.8,0.5-1.5,0.9-2.3,1.3l-0.2,0.1
	c-1.2,0.6-2.4,1.3-3.9,2c1.1,0.5,2.3,1,3.5,1.3l0,0c0.1,0,0.1,0,0.2,0.1c2,0.5,4.3,0.8,6.7,0.8c0.3,0,0.7,0,1,0c0.2,0,0.5,0,0.6-0.1
	c0.6-1.4,1.1-2.8,1.3-4.3C597.8,1226.3,597.8,1225.4,597.8,1224.3z M591.3,1214.7h1.6c-0.6-0.3-1.1-0.6-1.7-0.8
	C591.2,1214.2,591.3,1214.4,591.3,1214.7z M600.1,1214.7c1.4-1,2.8-2,4.3-2.9c1.8-1.2,3.4-2.2,5.1-3.1c-1-0.6-2-1.2-3.1-1.6
	c-1.5-0.6-3.1-0.9-4.5-0.9c-0.9,0-1.8,0-2.6,0.1c-0.1,0-0.2,0-0.2,0c-0.1,0-0.3,0-0.4,0c-1.4,0.1-2.9,0.4-4.3,0.8
	c-1.8,0.5-3.7,1.1-5.6,1.9c0.6,0.7,1,1.3,1.3,1.9c1.7,0.3,3.4,0.8,4.9,1.7c1.1,0.6,2.1,1.3,3,2.2H600.1z M611.5,1224.3h-10
	c-0.1,2.2-0.4,4.4-1.2,6.3c1.3-0.4,2.6-0.9,4-1.5c1.9-0.8,3.8-1.9,5.5-3.3C610.4,1225.3,610.9,1224.8,611.5,1224.3z M614.8,1214.7
	c-0.1-0.4-0.3-0.8-0.5-1.2c0,0,0,0,0,0c-0.4-0.8-1-1.6-1.7-2.4c-1.7,1.1-3.5,2.3-5.3,3.6H614.8z M637.2,1213.7c0-1-0.1-2-0.4-3.2
	c-0.3-0.9-0.7-1.7-1.5-2.5c-0.7-0.8-1.6-1.4-2.8-1.8c-1.3-0.5-2.9-0.7-4.8-0.7c-2,0-4.1,0.4-6.1,1.2c-1.8,0.7-3.7,1.5-5.6,2.5
	c0.7,0.8,1.3,1.7,1.9,2.7c0.4,0.9,0.7,1.8,0.9,2.8h0.2c0.3-1.8,1.3-3.5,2.6-4.5c1-0.7,1.9-0.8,2.8-0.9c0.2,0,0.4,0,0.7-0.1
	c0,0,0,0,0,0c0,0,0,0,0,0c0.6-0.1,1.1,0.3,1.2,0.9c0.1,0.6-0.3,1.1-0.9,1.2c0,0,0,0,0,0c0,0,0,0,0,0c-1,0.2-1.8,0.6-2.5,1.4
	c-0.5,0.5-0.8,1.2-0.9,2h15.1C637.2,1214.4,637.2,1214,637.2,1213.7z M908.3,1216.8h43.6v9.5h-67.6c-1.2,1.6-2.6,3-4.3,4.3
	c-2.2,1.6-4.4,2.8-6.7,3.7c-1.8,0.8-3.7,1.4-5.8,1.8c-0.1,0-0.2,0-0.4,0.1c0,0-0.1,0-0.1,0c0,0-0.1,0-0.1,0l-0.3,0
	c-1.6,2.5-3.6,4.5-6,6c-1.6,1-3.2,1.7-4.6,2c-0.8,0.2-1.5,0.3-2.2,0.3c-1,0-1.8-0.1-2.5-0.2c-1.1-0.2-2.1-0.5-3.1-1
	c-1.7-1-2.6-2.5-2.6-4.4c0-1.6,0.5-2.8,1.5-3.7c0.8-0.8,2-1.3,3.4-1.3c0.1,0,0.2,0,0.4,0c-0.7-0.3-1.3-0.7-1.8-1.1
	c-2.7,1-5.4,1.7-8,2c-1,0.1-2.1,0.2-3.4,0.2c-3.5,0-6.6-0.8-9.1-2.5c-2.2-1.4-3.8-3.2-4.8-5.3c-0.6,0.1-1.3,0.2-2,0.2
	c-0.9,0.1-1.8,0.1-2.7,0.1c-3.9,0-7-0.5-9.6-1.4h-51.6v-9.5h43.6c0-0.3-0.1-0.6-0.1-0.9c0-3,1.1-5.6,3.2-7.6c2.1-2,4.8-3,7.9-3
	c3.3,0,5.7,0.8,7.3,2.6c1.5,1.6,2.2,3.5,2.2,5.5c0,1.2-0.3,2.3-0.9,3.4h2.1c0.3-1,0.6-1.9,1.1-2.7c0.4-0.8,0.9-1.5,1.4-2.2
	c1.9-4.3,4.8-8.1,8.7-10.8c11.9-8.3,24.2-3,23.4-3.2c-7.7-2-16.3-0.5-22.7,4.4c-2.3,1.7-4.2,3.8-5.8,6.1c1.6-1.2,3.4-2.1,5.5-2.6
	c2.2-0.6,4.2-0.9,6.1-0.9h0.3c2.6,0,5,0.3,7.2,1c1.1,0.3,2.4,0.8,3.7,1.4c0.7,0.4,1.4,0.7,2,1.1c0.1,0,0.2-0.1,0.3-0.1
	c0.4-0.2,0.8-0.3,1.2-0.5c2-0.7,3.8-1.3,5.7-1.8c1.8-0.4,3.6-0.7,5.5-0.9c0.2,0,0.3,0,0.4,0c0.1,0,0.1,0,0.2,0c0.8,0,1.6,0,2.4,0
	c2.1,0,4.1,0.4,6.2,1.1c1.9,0.6,3.7,1.5,5.3,2.7c2.3-1.1,4.6-2,6.8-2.6c2.4-0.7,5.1-1.1,7.9-1.1c1.3,0,2.8,0.1,4.2,0.4
	c1.6,0.3,2.9,0.9,4.1,1.6c1.2,0.7,2.2,1.8,3.1,3.3c0,0,0,0,0,0c0.8,1.5,1.2,3.2,1.2,5.4C908.3,1216.2,908.3,1216.5,908.3,1216.8z
	 M819.3,1213.3c0-1.3-0.6-2.4-1.7-3.4c-1.2-1-2.8-1.6-4.6-1.6c-0.8,0-1.8,0.2-2.9,0.7c-1,0.4-2,1-3,1.7c-0.8,0.7-1.6,1.6-2.2,2.6
	c-0.6,1-0.9,2-0.9,3.1c0,0.1,0,0.3,0,0.4h14c0.1-0.2,0.3-0.3,0.4-0.5C819,1215.4,819.3,1214.4,819.3,1213.3z M852.2,1213.3
	c0.7-0.2,1.5-0.4,2.2-0.5c-0.1-0.2-0.3-0.3-0.4-0.5C853.4,1212.7,852.8,1213,852.2,1213.3z M850.9,1216.8h5.3
	c-0.1-0.4-0.1-0.8-0.3-1.3c0,0-0.1,0-0.1,0c-1.5,0-2.8,0.3-3.9,0.8C851.5,1216.5,851.2,1216.7,850.9,1216.8z M826.4,1216.8h11.5
	c0,0,0.1,0,0.1-0.1c0.4-0.2,0.7-0.4,1.1-0.6c0.4-0.2,0.7-0.4,1.1-0.6c1.5-0.9,3.2-1.8,4.8-2.7c2.1-1.1,3.9-2.1,5.7-2.9
	c-1-0.5-2.1-1-3.3-1.4c-1.9-0.6-4-0.8-6.2-0.8h-0.4c-2.3,0-4.4,0.4-6.2,1.2c-2,0.8-3.6,1.9-5,3.2c-1.4,1.3-2.4,2.8-3.1,4.5
	C826.5,1216.6,826.4,1216.7,826.4,1216.8z M845.9,1230.4c-1.1-1.2-1.8-2.5-2.1-4h-16c-0.4,0.1-0.8,0.3-1.2,0.4
	c0.8,1.5,2,2.7,3.5,3.6c1.9,1.1,4.2,1.6,7,1.6c1.4,0,2.5-0.1,3.5-0.2c0,0,0,0,0,0C842.3,1231.5,844,1231,845.9,1230.4z
	 M846.7,1216.4c-0.2,0.1-0.5,0.3-0.7,0.4h0.3C846.5,1216.7,846.6,1216.6,846.7,1216.4z M850.8,1228.4l0.2-0.1
	c1.1-0.5,2.3-1.2,3.5-1.9h-7.2c0.4,1,1,1.9,1.9,2.8C849.7,1228.9,850.2,1228.6,850.8,1228.4z M862.6,1236.7c-2.4,0-4.8-0.3-7.1-0.9
	l-0.5-0.1c-0.8-0.2-1.5-0.4-2.3-0.7c0.4,0.3,0.7,0.7,0.9,1.1c0.2,0.5,0.1,1-0.3,1.3c-0.4,0.3-1,0.3-1.4-0.1
	c-0.4-0.3-0.9-0.5-1.4-0.5c-0.1,0-0.1,0-0.2,0c-0.3,0-0.7,0.1-1,0.5c-0.3,0.5-0.4,1.1-0.4,1.7c0,1.2,0.4,1.9,1.4,2.4
	c0.5,0.2,1,0.4,1.5,0.5c1.4,0.3,2.5,0.3,3.8,0c1.2-0.3,2.3-0.9,3.4-1.7C860.3,1239.3,861.6,1238.1,862.6,1236.7z M865.9,1226.4
	C865.9,1226.4,865.9,1226.4,865.9,1226.4l-4.5,0c-0.9,0.6-1.8,1.1-2.6,1.6c-0.8,0.5-1.5,0.9-2.3,1.3l-0.2,0.1
	c-1.2,0.6-2.4,1.3-3.9,2c1.1,0.5,2.3,1,3.5,1.3l0,0c0.1,0,0.1,0,0.2,0.1c2,0.5,4.3,0.8,6.7,0.8c0.3,0,0.7,0,1,0c0.2,0,0.5,0,0.6-0.1
	c0.6-1.4,1.1-2.8,1.3-4.3C865.8,1228.4,865.9,1227.6,865.9,1226.4z M859.3,1216.8h1.6c-0.6-0.3-1.1-0.6-1.7-0.8
	C859.3,1216.3,859.3,1216.6,859.3,1216.8z M868.1,1216.8c1.4-1,2.8-2,4.3-2.9c1.8-1.2,3.4-2.2,5.1-3.1c-1-0.6-2-1.2-3.1-1.6
	c-1.5-0.6-3.1-0.9-4.5-0.9c-0.9,0-1.8,0-2.6,0.1c-0.1,0-0.2,0-0.2,0c-0.1,0-0.3,0-0.4,0c-1.4,0.1-2.9,0.4-4.3,0.8
	c-1.8,0.5-3.7,1.1-5.6,1.9c0.6,0.7,1,1.3,1.3,1.9c1.7,0.3,3.4,0.8,4.9,1.7c1.1,0.6,2.1,1.3,3,2.2H868.1z M879.5,1226.4h-10
	c-0.1,2.2-0.4,4.4-1.2,6.3c1.3-0.4,2.6-0.9,4-1.5c1.9-0.8,3.8-1.9,5.5-3.3C878.4,1227.4,879,1226.9,879.5,1226.4z M882.8,1216.8
	c-0.1-0.4-0.3-0.8-0.5-1.2c0,0,0,0,0,0c-0.4-0.8-1-1.6-1.7-2.4c-1.7,1.1-3.5,2.3-5.3,3.6H882.8z M905.3,1215.8c0-1-0.1-2-0.4-3.2
	c-0.3-0.9-0.7-1.7-1.5-2.5c-0.7-0.8-1.6-1.4-2.8-1.8c-1.3-0.5-2.9-0.7-4.8-0.7c-2,0-4.1,0.4-6.1,1.2c-1.8,0.7-3.7,1.5-5.6,2.5
	c0.7,0.8,1.3,1.7,1.9,2.7c0.4,0.9,0.7,1.8,0.9,2.8h0.2c0.3-1.8,1.3-3.5,2.6-4.5c1-0.7,1.9-0.8,2.8-0.9c0.2,0,0.4,0,0.7-0.1
	c0,0,0,0,0,0c0,0,0,0,0,0c0.6-0.1,1.1,0.3,1.2,0.9c0.1,0.6-0.3,1.1-0.9,1.2c0,0,0,0,0,0c0,0,0,0,0,0c-1,0.2-1.8,0.6-2.5,1.4
	c-0.5,0.5-0.8,1.2-0.9,2h15.1C905.2,1216.5,905.3,1216.1,905.3,1215.8z M269.4,1226.4H313v9.5h-67.6c-1.2,1.6-2.6,3-4.3,4.3
	c-2.2,1.6-4.4,2.8-6.7,3.7c-1.8,0.8-3.7,1.4-5.8,1.8c-0.1,0-0.2,0-0.4,0.1c0,0-0.1,0-0.1,0l-0.4,0.1c-1.6,2.5-3.6,4.5-6,6
	c-1.6,1-3.2,1.7-4.6,2c-0.8,0.2-1.5,0.3-2.2,0.3c-1,0-1.8-0.1-2.5-0.2c-1.1-0.2-2.1-0.5-3.1-1c-1.7-1-2.6-2.5-2.6-4.4
	c0-1.6,0.5-2.8,1.5-3.7c0.8-0.8,2-1.3,3.4-1.3c0.1,0,0.2,0,0.4,0c-0.7-0.3-1.3-0.7-1.8-1.1c-2.7,1-5.4,1.7-8,2
	c-1,0.1-2.1,0.2-3.4,0.2c-3.5,0-6.6-0.8-9.1-2.5c-2.2-1.4-3.8-3.2-4.8-5.3c-0.6,0.1-1.3,0.2-2,0.2c-0.9,0.1-1.8,0.1-2.7,0.1
	c-3.9,0-7-0.5-9.7-1.4h-51.6v-9.5h43.6c0-0.3-0.1-0.6-0.1-0.9c0-3,1.1-5.6,3.2-7.6c2.1-2,4.8-3,7.9-3c3.3,0,5.7,0.8,7.3,2.6
	c1.5,1.6,2.2,3.5,2.2,5.5c0,1.2-0.3,2.3-0.9,3.4h2.1c0.3-1,0.6-1.9,1.1-2.7c0.4-0.8,0.9-1.5,1.4-2.2c1.9-4.3,4.8-8.1,8.7-10.8
	c11.9-8.3,24.2-3,23.4-3.2c-7.7-2-16.3-0.5-22.7,4.4c-2.3,1.7-4.2,3.8-5.8,6.1c1.6-1.2,3.4-2.1,5.5-2.6c2.2-0.6,4.2-0.9,6.1-0.9h0.3
	c2.6,0,5,0.3,7.2,1c1.1,0.3,2.4,0.8,3.7,1.4c0.7,0.4,1.4,0.7,2,1.1c0.1,0,0.2-0.1,0.3-0.1c0.4-0.2,0.8-0.3,1.2-0.5
	c2-0.7,3.8-1.3,5.7-1.8c1.8-0.4,3.6-0.7,5.5-0.9c0.2,0,0.3,0,0.4,0c0.1,0,0.1,0,0.2,0c0.8,0,1.6,0,2.4,0c2.1,0,4.1,0.4,6.2,1.1
	c1.9,0.6,3.7,1.5,5.3,2.7c2.3-1.1,4.6-2,6.8-2.6c2.4-0.7,5.1-1.1,7.9-1.1c1.3,0,2.8,0.1,4.2,0.4c1.6,0.3,2.9,0.9,4.1,1.6
	c1.2,0.7,2.2,1.9,3.1,3.3c0,0,0,0,0,0c0.8,1.5,1.2,3.2,1.2,5.4C269.5,1225.7,269.4,1226,269.4,1226.4z M180.5,1222.9
	c0-1.3-0.6-2.4-1.7-3.4c-1.2-1-2.8-1.6-4.6-1.6c-0.8,0-1.8,0.2-2.9,0.7c-1,0.4-2,1-3,1.7c-0.8,0.7-1.6,1.6-2.2,2.6
	c-0.6,1-0.9,2-0.9,3.1c0,0.1,0,0.3,0,0.4h14c0.1-0.2,0.3-0.3,0.4-0.5C180.2,1225,180.5,1223.9,180.5,1222.9z M213.3,1222.8
	c0.7-0.2,1.5-0.4,2.2-0.5c-0.1-0.2-0.3-0.3-0.4-0.5C214.5,1222.2,213.9,1222.5,213.3,1222.8z M212,1226.4h5.3
	c-0.1-0.4-0.1-0.8-0.3-1.3c-0.1,0-0.1,0-0.1,0c-1.5,0-2.8,0.3-3.9,0.8C212.6,1226,212.3,1226.2,212,1226.4z M187.5,1226.4H199
	c0,0,0.1,0,0.1-0.1c0.4-0.2,0.7-0.4,1.1-0.6c0.4-0.2,0.7-0.4,1.1-0.7c1.5-0.9,3.2-1.8,4.8-2.7c2.1-1.1,3.9-2.1,5.7-2.9
	c-1-0.5-2.1-1-3.3-1.4c-1.9-0.6-4-0.8-6.2-0.8h-0.4c-2.3,0-4.4,0.4-6.2,1.2c-2,0.8-3.6,1.9-5,3.2c-1.4,1.3-2.4,2.8-3.1,4.5
	C187.6,1226.2,187.6,1226.3,187.5,1226.4z M207.1,1239.9c-1.1-1.2-1.8-2.5-2.1-4h-16c-0.4,0.1-0.8,0.3-1.2,0.4
	c0.8,1.5,2,2.7,3.5,3.6c1.9,1.1,4.2,1.6,7,1.6c1.4,0,2.5-0.1,3.5-0.2c0,0,0,0,0,0C203.4,1241,205.2,1240.6,207.1,1239.9z
	 M207.9,1226c-0.2,0.1-0.5,0.3-0.7,0.4h0.3C207.6,1226.2,207.7,1226.1,207.9,1226z M211.9,1237.9l0.2-0.1c1.1-0.5,2.3-1.2,3.5-1.9
	h-7.2c0.4,1,1,1.9,1.9,2.8C210.8,1238.4,211.4,1238.2,211.9,1237.9z M223.7,1246.2c-2.4,0-4.8-0.3-7.1-0.9l-0.5-0.1
	c-0.8-0.2-1.5-0.4-2.3-0.7c0.4,0.3,0.7,0.7,0.9,1.1c0.2,0.5,0.1,1-0.3,1.3c-0.4,0.3-1,0.3-1.4-0.1c-0.4-0.3-0.9-0.5-1.4-0.5
	c-0.1,0-0.1,0-0.2,0c-0.3,0-0.7,0.1-1,0.5c-0.3,0.5-0.4,1.1-0.4,1.7c0,1.2,0.4,1.9,1.4,2.4c0.5,0.2,1,0.4,1.5,0.5
	c1.4,0.3,2.5,0.3,3.8,0c1.2-0.3,2.3-0.9,3.4-1.7C221.5,1248.8,222.7,1247.6,223.7,1246.2z M227,1235.9
	C227,1235.9,227,1235.9,227,1235.9l-4.5,0c-0.9,0.6-1.8,1.1-2.6,1.6c-0.8,0.5-1.5,0.9-2.3,1.3l-0.2,0.1c-1.2,0.6-2.4,1.3-3.9,2
	c1.1,0.5,2.3,1,3.5,1.3l0,0c0.1,0,0.1,0,0.2,0.1c2,0.5,4.3,0.8,6.7,0.8c0.3,0,0.7,0,1,0c0.2,0,0.5,0,0.6-0.1
	c0.6-1.4,1.1-2.8,1.3-4.3C227,1237.9,227,1237.1,227,1235.9z M220.5,1226.4h1.6c-0.6-0.3-1.1-0.6-1.7-0.8
	C220.4,1225.8,220.5,1226.1,220.5,1226.4z M229.3,1226.4c1.4-1,2.8-2,4.3-2.9c1.8-1.2,3.4-2.2,5.1-3.1c-1-0.6-2-1.2-3.1-1.6
	c-1.5-0.6-3-0.9-4.5-0.9c-0.9,0-1.8,0-2.6,0.1c-0.1,0-0.2,0-0.2,0c-0.1,0-0.3,0-0.4,0c-1.4,0.1-2.9,0.4-4.3,0.8
	c-1.8,0.5-3.7,1.1-5.6,1.9c0.6,0.7,1,1.3,1.3,1.9c1.7,0.3,3.4,0.8,4.9,1.7c1.1,0.6,2.1,1.3,3,2.2H229.3z M240.7,1235.9h-10
	c-0.1,2.2-0.4,4.3-1.2,6.3c1.3-0.4,2.6-0.9,4-1.5c1.9-0.8,3.8-1.9,5.5-3.3C239.6,1237,240.1,1236.5,240.7,1235.9z M243.9,1226.4
	c-0.1-0.4-0.3-0.8-0.5-1.2c0,0,0,0,0,0c-0.4-0.8-1-1.6-1.7-2.4c-1.7,1.1-3.5,2.3-5.3,3.6H243.9z M266.4,1225.3c0-1-0.1-2-0.4-3.2
	c-0.3-0.9-0.7-1.7-1.5-2.5c-0.7-0.8-1.6-1.4-2.8-1.8c-1.3-0.5-2.9-0.7-4.8-0.7c-2,0-4.1,0.4-6.1,1.2c-1.8,0.7-3.7,1.5-5.6,2.5
	c0.7,0.8,1.3,1.7,1.9,2.7c0.4,0.9,0.7,1.8,0.9,2.8h0.2c0.3-1.8,1.3-3.5,2.6-4.5c1-0.7,1.9-0.8,2.8-0.9c0.2,0,0.4,0,0.7-0.1
	c0.1,0,0.1,0,0.2,0c0.5,0,1,0.4,1,0.9c0.1,0.6-0.3,1.1-0.9,1.2c-1,0.2-1.8,0.6-2.5,1.4c-0.5,0.5-0.8,1.2-0.9,2h15.1
	C266.4,1226,266.4,1225.7,266.4,1225.3z M208.2,1011.2c0.2,0.2,0.3,0.3,0.3,0.3S208.3,1011.4,208.2,1011.2z M335.3,1127.1l-1.1,2.9
	c-2.7,6.5-6.9,16.1-11.7,25.8c-8,17.1-19.4,39-40.5,39c-15.8,0-21.5-16.7-21.5-34.9c0-2.2,0-4.5,0.2-6.9v0.1
	c0.1-0.8,0.1-1.7,0.2-2.5c-2.1,1.1-4.2,1.9-6.4,2.3c-4,0.7-8.6-0.3-12.6-2.9c-3.3,7.7-6.8,14.8-9.5,20.2
	c-5.3,10.4-13.1,22.3-25.2,21.8c-10.3-0.3-13.3-14.1-13.3-31.1c0-6.4,0.4-13.3,1-19.9c-6.1,12.6-15.5,26-28.2,26.8
	c-7.7,13.6-18.1,23.1-30.3,23.1c-16.7,0-22.2-22.3-22.5-40.9c-8.9,20.8-20.4,42.3-33.9,42.3c-14.7,0-18.6-16.1-18.6-31.2
	c0-2.4,0-4.9,0.2-7.1v0.1c1.8-25.1,17.8-108.4,44.3-108.4c7.6,0,9.9,12.3,9.4,19.8c-1.8,23.5-18.5,48.1-34.1,64.8
	c-0.1,0-3.6,15.6-4.8,29.5c-0.2,2.2-0.2,4.2-0.2,6.2c0,8.5,1.7,15.1,6.7,15.1c12.4,0,24.8-29.7,31.6-46.1c0,0,0-0.1,0-0.1
	c0.6-5.9,1.5-11.2,2.8-15.1c2.9-4.2,7.3-6.1,11.4-6.1c2.4,0,5.1,0.8,7.1,2c1.6-18.6,6.7-38.9,24.7-38.9c14.7,0,20.8,15.2,20.8,34.6
	c0,2.6-0.1,5.2-0.3,7.5v-0.1c-1.1,13.6-5.1,28.8-10.9,41.5c11.7-2.8,17.9-16.3,23.7-29.3l2.5-5.3c0,0,0,0,0,0
	c0.3-2.2,0.5-4.3,0.8-6.3c1-7.5,1.7-13.4,1.6-16c-0.1-2.4-0.8-4.2-1.2-5.6c-0.2-0.7-0.5-1.1-0.5-1.9c-0.2-2.4,1.6-3.3,3.6-3.7
	c2.9-0.5,6.9,0,8.3,0.7c4.8,2.8,7.1,9.3,7.5,16c0.2,7-0.8,16-1.8,21.1c-1.1,7.7-2.9,20.6-3.5,30.7c0,0.4-0.1,0.9-0.1,1.3
	c0,1.6-0.1,3.7-0.1,5.8c0,5.2,0.6,10.8,4.4,11.2c4.8,0.5,9.1-6.5,11.6-11.4c2.9-5.7,6.5-13,10.5-22.3c-4.1-6.2-6-16.3-6-26.7
	c0-23.8,9.5-51.6,23.8-50.4c6.5,0.5,8.8,5.6,8.8,13.1c0,11.9-6.2,30-12.7,46.5l-6.3,15.3c2.3,2.2,5,3.6,7.5,3.6c0.9,0,2-0.3,3.2-0.5
	c2.1-0.6,4.1-1.7,6.1-3.1c4.6-26.9,19.8-54.8,38.5-54.8c13.3,0,21.2,14.5,20.5,28.6c-1.9,19.8-22.3,33.3-37.6,37.1
	c-0.6,2.9-0.9,6.2-1.2,9.6c-0.1,1.3-0.1,3-0.1,4.4c0,7.7,1.8,15.1,9.2,15.7c11.6-0.4,20.6-18.2,26.4-29.5v0.1
	c3.6-7.3,6.8-14.8,9.3-20.6c1.1-2.6,2.9-6.3,4.1-8.9c0.8-0.4,1.5-0.7,1.7-0.7C334,1124.6,334.8,1125.7,335.3,1127.1z M284.8,1147.2
	c10.2-1.6,29.6-13.1,30.7-28.9c0.3-3.3-0.2-6.6-1.7-10c-1.1-2.6-2.6-3.8-4.1-3.8C300.9,1104.4,287.3,1135.9,284.8,1147.2z
	 M83.9,1119.3c6.2-6.5,24.6-31.6,26.2-51.7c0.5-4.5-0.1-11.2-2.4-11.2C102.8,1056.4,91.7,1083.5,83.9,1119.3z M159,1167.5
	c-15.1-5.3-21.3-17.7-22.9-33.8c-0.5,2.8-0.7,5.9-0.9,8.9c-0.2,2.8-0.3,5.6-0.3,8.2c0,13.1,2.6,25.2,10.5,25.2
	C150.5,1175.9,154.9,1173,159,1167.5z M174.8,1119.5c0.2-2.4,0.2-4.6,0.2-6.9c0-15.2-4.4-27.5-14.5-27.5c-7,0-10.2,12.7-11.3,26.8
	c-0.2,3.2-0.5,7.1-0.5,11.4c0,14.9,2.4,34,15,36.8C169.6,1148.9,173.8,1133.3,174.8,1119.5z M245.6,1127.9
	c5.6-13.1,13.5-34.4,13.5-45.1c0-4.2-1-6.9-3.6-7.5c-9.1-2.8-15.6,32.5-15.6,52.3c0,4.8,0.3,8.3,1.1,10.4L245.6,1127.9z
	 M186.3,997.3c-4.1-4.1-32.1-33.3-29.1-68.9c3-35-25.7-31.7-26.3-3.6C130.6,942.2,180.7,991.8,186.3,997.3z M625.4,808.2
	c-4.3,0-7.5,6.3-7.9,12c-0.2,7.3,2.9,10.7,6.6,10.7c4.2,0,9-3.4,9.4-9.4c0.1-2.5-0.5-5.4-2.2-8.9
	C629.5,809.5,627.4,808.2,625.4,808.2z M334.6,871.3c26.7-7.7,41.2-34.5,43.2-61.7c0.1-1.3,0.2-3.3,0.2-4.5
	c0.5-35.4-20.1-49.3-44.2-49.8c-16.3-0.5-35.9,5.3-50.5,12.6c-8.2,4.2-24.9,14.8-32.5,27.1c-2.5,3.8-3.6,7.4-3.9,10.4
	c-0.7,9,6.7,14,16.2,13c8.4-1.2,17.8-6.1,25.3-11.1c-2.8,9.6-4.6,28.6-7.1,50.4c-2.8,26.6-6.3,57.2-11.7,78l0.1-0.1
	c-1.1,3.2-2.2,5.9-3.2,7.3c-0.6,0.9-0.8,1.7-0.8,2.6c-1.4,3.2,1.2,4.6,4.1,5.8c13.6,2.1,19.1-8.1,22.4-18.6
	c3.5-19.7,14.3-93.9,19.1-130.1c0.3-9.4-0.9-16.3-7.6-16.3c-2,0-5.1,0.8-8.2,2.2c-2.6,1.2-7.5,4.5-12.4,7.8c-6.8,4.6-15.3,10-21,12
	c-4.8,1.3-7.1-0.3-6.9-3.3c0.1-2.2,1.6-5.2,4-8.3c4.4-5.7,13.9-13,26.9-19c9.9-4.1,21.5-7.4,31.4-7.4c4.5,0,9,0.7,12.8,2
	c11.9,3.8,20.3,13.9,20.1,33.7c0,1.3-0.1,2.9-0.2,4.5c-1.7,23.5-13.9,47.6-40.6,56.7c-1.7,1.3-2.5,5.9-1.4,7.3
	c21.8,2.8,30.1,15.6,29.8,32.1c-0.6,39-41.6,80.5-74.3,80.5c-1.6,0-3.3,0-5.1-0.4c-22.4-3-34.3-24.5-32.6-52
	c0.3-5.4,1.6-11.8,3.2-17.7c5.2-17.3,18.7-32.4,28.3-32.4c6.2,0,10.9,6.6,9.9,23.7c1,1.6,2.8,2,4.9-1.5c0.3-2,0.6-4.2,0.7-5.9
	c1.4-19-6.6-26.6-17.1-26.6c-15.4,0-36.5,16.9-43.1,40.6c-1.5,5.4-2.3,10.6-2.7,15.9c-2.4,34,17.3,58,45.3,64.8
	c3.9,0.9,8,1.5,12.6,1.5c36.6,0,90.2-31.1,93.6-78.9c0.2-3.6,0.2-7.5-0.1-11C360,892.4,351.4,878.9,334.6,871.3z M101.6,887.8
	c-4-38.8-56.5-36.5-34.1,14.1c22.4,50.6,112.4,90.3,112.4,90.3s-23.2-15.4-38.8-28C125.5,951.6,105.7,926.6,101.6,887.8z
	 M539.6,925.1c-0.1,5.7,5.2,6.6,9.6,6.3c12-0.5,17.1-9.5,17.6-24.1c-0.1-9.4-4.5-24.9-10.2-35l-5,13.1l-4.1-1.7l6-16.5
	c-5.2-7.8-9-19.2-9-30c0-8.5,2.3-16.8,8.4-22.6c2.7-2.8,6.7-4.2,10.4-4.2c5.2,0,10,2.8,10,9.9c0,5.4-2.5,12.7-5.3,20.6
	c-1.4,4-2.8,8.1-4.1,12.3c11.7,20.4,22,42.8,22.2,55.1c6.9-11.9,13.7-27.1,17.5-36c0.1-0.3,0.3-0.7,0.3-0.7l0.7-1.6
	c0-0.2,0.1-0.4,0.1-0.6h0c0,0,0-0.1,0-0.1c1.4-5.6,2.9-11.2,4.5-16.8l1.6-6.1v0.1c0.2-1.5,0.3-2.8,0.3-3.7c0-1.2,0.1-2,0.2-2.5
	c0.6-2.2,2.6-2.5,4.8-1.8c6.2,2.6,9.1,5.6,9.1,10.6c0,2.5-0.6,5.4-1.5,9c-3.1,11.4-7.9,33.7-9.4,48.4c-0.1,1.7-0.2,4-0.2,5.4
	c0,6.2,1,10.3,3.5,10.4c5.5,0,16.3-22.2,23.8-38.7l0,0l6-16.5c-5.2-7.8-9-19.2-9-30c0-8.5,2.3-16.8,8.4-22.6
	c2.7-2.8,6.7-4.2,10.4-4.2c5.2,0,10,2.8,10,9.9c0,5.4-2.5,12.7-5.3,20.6c-1.4,4-2.8,8.1-4.1,12.3c11.7,20.4,22,42.8,22.2,55.1
	c6.9-11.9,13.7-27.1,17.5-36c0-0.1,0.1-0.2,0.1-0.3c2.1-11,4.5-23,6.7-33.8l1.6-7.5c-5.1,0.5-9.7,0.9-14.2,0.9
	c-9.2,0-16.7-2.1-19.5-9.4c-0.7-1.8-0.6-5.2,2.3-3.2l-0.1-0.1c4.5,2.2,10,3,15.7,3c5.4,0,11.9-0.8,17.8-1.5c2-11,3.7-20,4.1-23.7
	c0.1-2.9-0.2-4.9-0.5-6.6c-0.1-0.9-0.2-1.7-0.2-2.4c0.2-2.5,2-3,4.2-3c11.8,0,13.7,9.3,13,18.4c-0.3,4.6-1.2,9.9-2.3,15.9
	c13.3-0.1,24.8,3,30,16.5h-0.1c0.7,1.5-0.7,3.7-2.5,2.8c-6.2-7.4-15.9-9.4-26.4-9.4h-2.8c-1.5,7.8-3.3,15.9-5.1,24.1l-2.2,10
	l-0.3,1.7c-2,9.1-7.4,33.4-7.4,48.1c0,5,0.6,9.1,2.4,10.6c1.4,1.2,4.5,0.3,8.8-3.4c9.4-8.7,18-29,23.2-41.6h-0.1
	c0.8-1.8,1.5-3.5,2.1-5c6.5-22.6,19.8-42.7,35.7-42.7c13.3,0,21.2,14.5,20.5,28.6c-1.9,19.8-22.3,33.3-37.6,37.1
	c-0.6,2.9-0.9,6.2-1.2,9.6c-0.1,1.3-0.1,3-0.1,4.4c0,7.7,1.8,15.1,9.2,15.7c11.6-0.4,20.6-18.2,26.4-29.5v0.1
	c3.6-7.3,6.8-14.8,9.3-20.6c1.1-2.6,2.9-6.3,4.1-8.9c0.1,0,0.1-0.1,0.2-0.1l2.3-5.3c-10.3-1.2-14.8-11.6-14.1-22.3
	c1.4-11.4,9-25.4,19.7-25.4c6.7,0,9.4,4.6,9,13.7c-0.9,9.9-5.3,22.6-6.6,26.4c3.6,1.1,7,1.1,10.1,1.1c6.2,0,10.3,0.1,9.6,8.6
	c-0.1,1.3-0.3,2.9-0.7,4.5l-1.1,5.4c-2.6,12.7-6.1,29.2-7,38.9c-0.3,5.6,0.9,9.9,2.5,10.2c8.4-3.8,23.8-37.7,30.4-52.5l0.3-0.9h-0.1
	c0.7-1.7,1.1-2.9,2.8-2.9c1.1,0,2,1.1,2.8,2.6l-1.2,2.8c-6.2,14.7-19.5,46.1-30.1,56.3c-3.1,2.9-7.5,5.2-11.7,5.2
	c-7.8,0-10.8-11.1-10.8-23.4c0-2,0.1-4.1,0.2-5.9c0.7-9,5.3-31.7,8.5-41.1l-7.7-0.4c-2.6,6.1-5.3,12.7-7.9,18.6l-0.1,0
	c-2.2,5.1-4.9,10.8-7.7,16.6c-8,17.1-19.4,39-40.4,39c-15.7,0-21.5-16.7-21.5-34.9c0-1.8,0-3.5,0.1-5.4
	c-8.7,19.5-19.4,38.4-32.1,38.4c-13.5,0-18-8.2-18-22.1c0-1.8,0.1-3.8,0.2-5.9c0.3-3.4,0.9-8.4,1.9-14.3
	c-6.9,14.7-15.5,30.7-23.2,37.5c-7.4,5.8-18.1,9.4-26.7,9.4c-10,0-17.8-4.2-17.1-13.4c0.2-2.5,2.5-5.7,4.9-5.7
	c1.8,0,1.8,2.4,1.7,4.5c-0.1,5.7,5.2,6.6,9.6,6.3c12-0.5,17.1-9.5,17.6-24.1c-0.1-8.8-4-23.1-9.2-33.2
	c-9.1,21.8-26.1,59.3-38.8,59.3c-10.5,0-13.9-10.6-13.9-23.8c0-2.1,0.1-4.4,0.2-6.5c0.3-3.5,0.7-7.1,1.2-10.5
	c-6.9,14.7-15.5,30.8-23.2,37.6c-7.4,5.8-18.1,9.4-26.7,9.4c-10,0-17.8-4.2-17.1-13.4c0.2-2.5,2.5-5.7,4.9-5.7
	C539.7,920.6,539.7,923,539.6,925.1z M817.4,853.3c1.4-3,5.6-15.2,6.1-22.1c0.1-2,0.1-2.8-0.3-2.8c-2.4,0-8.7,10.8-9.3,18.4
	C813.5,850.1,814.4,852.6,817.4,853.3z M766.1,889.3c10.2-1.6,29.6-13.1,30.7-28.9c0.3-3.3-0.2-6.6-1.7-10c-1.1-2.6-2.6-3.8-4.1-3.8
	C782.1,846.4,768.6,877.9,766.1,889.3z M653,840.2c0,2.8,0.5,5.4,1.4,7.8l1.1-3.2c2.8-7.8,6.8-19.6,5.7-22.5h0.1
	c-0.5-1.1-0.9-1.6-1.5-1.7C657.2,820.1,653,830.8,653,840.2z M561.5,844.8c2.8-7.8,6.8-19.6,5.7-22.5h0.1c-0.5-1.1-0.9-1.6-1.5-1.7
	c-2.6-0.5-6.8,10.2-6.8,19.6c0,2.8,0.5,5.4,1.4,7.8L561.5,844.8z M479.5,1191.1c-17,0-22.4-23.1-22.5-41.9
	c-6.7,13.3-14.3,25.9-21,30.9c-10.2,57.9-26.6,119.8-56,115.7c-8.4-1.2-13.9-10.6-13.9-23c0-3,0.3-6.1,1-9.3
	c7.5-32.4,26.6-54.6,47.2-75.5c1.6-9.3,3.5-19.8,5.9-33.7l-1.5,2.5c-9.6,17.8-20.2,35.3-31.7,35.3c-7.8,0-10.7-6.7-10.7-16.7
	c0-1.7,0.1-3.6,0.2-5.4c0.9-11.6,4.8-27.6,7.8-40.7c2.5-10.6,4.9-20.8,5.3-26.6c0.2-2.8-0.2-4.6-0.5-5.9c-0.1-0.7-0.2-1.1-0.2-1.9
	c0.1-2.4,2-3.2,4.1-3.2c2.9,0,6.6,1.3,7.9,2.2c4.3,3.4,5.8,10.2,5.3,16.9c-0.5,6.9-2.3,13.6-3.7,18.8l-0.7,2.5
	c-2.8,10.2-7.9,30-9,40.4c-0.1,3.8,0.1,7.1,1.5,7.1c5.6,0,20.1-28.6,27.4-43.4v0.1c0.6-1.1,1.2-2.1,1.7-3.2l-0.1,0.1
	c2.3-13.5,3.5-23.3,3.6-26.3c0.2-3-0.2-5.3-0.5-7.1c-0.2-1.1-0.2-1.9-0.2-2.4c0.2-2.4,2-3,4.4-3.2c10,0,13.7,5.7,14.5,13
	c-1.2,18-3.2,35.4-7.6,61.9c6.7-6.3,13.9-20.4,19.8-33.3c0.6-6.4,1.5-12,2.9-16.1c2.9-4.2,7.3-6.1,11.4-6.1c2.4,0,5.1,0.8,7.1,2
	c1.6-18.6,6.7-38.9,24.7-38.9c14.7,0,20.8,15.2,20.8,34.6c0,2.6-0.1,5.2-0.3,7.5v-0.1c-1.1,13.6-5.1,28.8-10.9,41.5
	c11.7-2.8,17.9-16.3,23.7-29.3l2.1-4.4c2.3-9.6,4.3-18.7,4.7-24c0.2-2.8-0.2-4.6-0.6-5.9v0.1c-0.2-0.8-0.2-1.3-0.2-2
	c0.1-2.4,2.2-3.2,4.2-3.2c2.9,0,6.6,1.3,7.9,2.2c4.4,3.2,5.7,10,5.2,16.9c-0.6,7.7-2.8,16-4.4,21.3c-2.8,10-7.8,29.9-8.8,40.4
	c-0.1,3.8,0.1,7.1,1.5,7.1c6.1,0,22.9-33.3,29.5-46l-0.1,0.1c2.9-10.7,5.3-18,6-28.7c0.1-1.3-0.1-3-0.3-4.4c-0.1-0.9-0.2-2-0.2-2
	c0.2-3.4,2.2-4.6,7.3-4.6c7.1,0,9.1,7.1,8.4,15.1c-0.8,9.7-4,22.5-6.9,34.1c-2.7,10.4-5.3,20.1-5.7,26.4c-0.3,3.4,0,10.3,2.5,10.3
	c7.1,0,28.6-49,29.8-51.8l0.3-0.9h-0.1c0.7-1.7,1.1-2.9,2.8-2.9c1.5,0,2.3,1.1,2.8,2.5c-1,2.1-2.5,5.3-3.7,8.3
	c-8.8,20.8-23.5,55.5-37.5,55.5c-10.5,0-13.9-7.1-13.9-17.3c0-1.1,0-2.6,0-3.8c0.1-2.6,0.6-5.7,1.1-8.6c-0.2,0.3-0.3,0.8-0.6,1.1
	c-7.9,14.3-16.7,29.9-28.9,29.9c-7.8,0-10.5-6.7-10.5-16.7c0-1.7,0.1-3.6,0.2-5.4c0.5-6.5,1.9-14.3,3.5-22.2
	c-6,10.2-14.1,19.3-24.6,20C502,1181.6,491.6,1191.1,479.5,1191.1z M412.2,1199.4c-10.5,9.6-20.6,22.3-28.4,36.2
	c-3.3,6.3-11.4,25.6-11.4,36.7c0,4.6,1.6,8.1,5.7,8.1c3.5-0.5,6.9-3.7,9.9-8.3c8.8-13.6,16-39.9,21-58.7c0.9-3.2,1.5-6.3,2.3-9v0.1
	L412.2,1199.4z M491.6,1123.3c0,14.9,2.4,34,15,36.8c5.9-11.1,10.1-26.7,11.1-40.6c0.2-2.4,0.2-4.6,0.2-6.9
	c0-15.2-4.4-27.5-14.5-27.5c-7,0-10.2,12.7-11.3,26.8C491.8,1115.1,491.6,1119.1,491.6,1123.3z M501.9,1167.5
	c-15.1-5.3-21.3-17.7-22.9-33.8c-0.5,2.8-0.7,5.9-0.9,8.9c-0.2,2.8-0.3,5.6-0.3,8.2c0,13.1,2.6,25.2,10.5,25.2
	C493.4,1175.9,497.7,1173,501.9,1167.5z M340.4,586.3l-0.1-0.1c4.5,2.2,10,3,15.8,3c5.4,0,11.9-0.8,17.8-1.5c2-11,3.7-20,4.1-23.7
	c0.1-2.9-0.2-4.9-0.5-6.6c-0.1-0.9-0.2-1.7-0.2-2.4c0.2-2.5,2-3,4.2-3c11.8,0,13.7,9.3,13,18.4c-0.3,4.6-1.2,9.9-2.3,15.9
	c13.3-0.1,24.8,3,30,16.5h-0.1c0.7,1.5-0.7,3.7-2.5,2.8c-6.2-7.4-15.9-9.4-26.4-9.4h-2.8c-1.5,7.8-3.3,15.9-5.1,24.1l-2.2,10
	l-0.3,1.7c-2,9.1-7.4,33.4-7.4,48.1c0,5,0.6,9.1,2.4,10.6c1.4,1.2,4.5,0.3,8.8-3.4c9.4-8.7,18-28.9,23.2-41.6h-0.1
	c0.1-0.3,0.2-0.5,0.3-0.8c0.6-6.1,1.5-11.6,2.8-15.6c2.9-4.2,7.3-6.1,11.4-6.1c2.4,0,5.1,0.8,7.1,2c1.6-18.6,6.7-38.9,24.7-38.9
	c14.7,0,20.8,15.2,20.8,34.6c0,2.6-0.1,5.2-0.3,7.5v-0.1c-1.1,13.6-5.1,28.8-10.9,41.5c11.7-2.8,17.9-16.3,23.7-29.3l2.5-5.3
	c0.7-0.4,1.5-0.8,1.9-0.8c0.8,0,1.6,0.5,2,2.6c-5.1,14.1-16.2,39-33.8,40.2c-7.7,13.6-18.1,23.1-30.3,23.1
	c-16.5,0-22.1-21.8-22.5-40.2c-9,20.7-20.2,42.1-33.7,42.1c-13.5,0-18-8.2-18-22.1c0-1.9,0.1-3.8,0.2-5.9
	c0.9-12.2,7.1-43.4,12.2-68.7l1.6-7.5c-5.1,0.5-9.7,0.9-14.2,0.9c-9.2,0-16.7-2.1-19.5-9.4C337.4,587.6,337.6,584.3,340.4,586.3z
	 M444.1,632.5c0,14.9,2.4,34,15,36.7c5.9-11.1,10.1-26.7,11.1-40.6c0.2-2.4,0.2-4.6,0.2-6.9c0-15.2-4.4-27.5-14.5-27.5
	c-7,0-10.2,12.7-11.3,26.8C444.3,624.3,444.1,628.3,444.1,632.5z M430.2,659.9c0,13.1,2.6,25.2,10.5,25.2c5.1,0,9.4-2.9,13.6-8.5
	c-15.1-5.3-21.3-17.7-22.9-33.8c-0.5,2.8-0.7,5.9-0.9,8.9C430.4,654.5,430.2,657.3,430.2,659.9z M550.6,613.1
	c0.1-2.8-0.2-4.9-0.5-6.6c-0.1-0.9-0.2-1.5-0.2-2.4c0.2-2.2,2-3,4.2-3c11.4,0,13.6,9.6,13,18.4c-0.3,4.8-1.4,9.8-2.4,14
	c-0.6,3-0.8,3.2-1.1,5.6c1.9-3,3.9-6.6,5.9-10.3c8.2-14.8,17.2-31.5,29.2-31.5c8.5,0,10.9,8.1,10.4,16.5c-0.5,6.1-2.3,13.6-4.5,21
	c0.8-1.5,1.4-2.4,2.2-3.8c8.4-15.2,17.8-32.5,30-32.5c8.3,0,10.5,7.1,10,16.5c-0.7,9.9-4.3,23-8.2,35c-3.4,11.4-6.8,22.7-7.4,30.7
	c-0.3,3.4,0,10,2.6,10c5.4,0.1,19.6-29.5,26.3-44.3c0.6-2.7,1.2-5.3,1.8-7.8c2.5-10.6,4.9-20.8,5.3-26.6c0.2-2.8-0.2-4.6-0.5-5.9
	c-0.1-0.7-0.2-1.1-0.2-1.9c0.1-2.4,2-3.2,4.1-3.2c2.9,0,6.6,1.3,7.9,2.2c4.3,3.4,5.8,10.2,5.3,16.9c-0.5,6.9-2.3,13.6-3.7,18.8
	l-0.7,2.5c-2.8,10.2-7.9,30-9,40.4c-0.1,3.8,0.1,7.1,1.5,7.1c5.6,0,20.1-28.6,27.4-43.4v0.1c0.6-1.1,1.2-2.1,1.7-3.2l-0.1,0.1
	c2.3-13.5,3.5-23.3,3.6-26.3c0.2-3-0.2-5.3-0.5-7.1c-0.2-1.1-0.2-1.9-0.2-2.4c0.2-2.4,2-3,4.4-3.2c10,0,13.7,5.7,14.5,13
	c-1.2,18-3.2,35.4-7.6,61.9c8.4-7.9,17.6-27.9,23.9-42.7l0.5-0.4c0.1,0,0.3,0,0.7-0.1c1-0.3,2.4-0.7,4.1,1.2
	c-7.8,18.8-20.6,44.9-30.9,52.7c-10.2,57.9-26.6,119.8-56,115.7c-8.4-1.2-13.9-10.6-13.9-23c0-3,0.3-6.1,1-9.3
	c7.5-32.4,26.6-54.6,47.2-75.5c1.6-9.3,3.5-19.8,5.9-33.7l-1.5,2.5c-9.6,17.8-20.2,35.3-31.7,35.3c-7.8,0-10.7-6.7-10.7-16.7
	c0-1.7,0.1-3.6,0.2-5.4c0.2-3.2,0.7-6.7,1.3-10.4c-8.2,16.7-18,32.5-27.3,32.5c-10.3,0-13.9-7.4-13.9-17.7c0-1.2,0.1-2.9,0.2-4.2
	c1.4-13.7,7.1-32.1,11.7-45.9c3.1-9.5,5.7-17.3,6-21c0.1-1.1-0.1-1.9-0.6-2.1c-0.1,0-0.2-0.1-0.6-0.1c-7,0-18.7,22.3-27.3,39
	c-3.3,6.1-6,11.2-8,14.5l0.1-0.1c-2.4,8.1-4.1,15.7-4.6,22.1c-0.2,4.6,0.2,9.4,2,13.6c0.1,0.4,0.2,0.7,0.1,1.6
	c-0.1,1.3-1,1.7-2.6,1.7c-10.9,0-14.5-8.9-14.5-19.7c0-1.2,0-2.9,0.1-4.1c1.4-14,7.1-32.5,11.7-46.3c3.2-9.4,5.8-17.4,6-21.2
	c0.1-1.7-0.1-2.4-1-2.4c-8,0-25,34.2-31.3,46.5v-0.1l-1.9,3.7h0.1c-2.3,7-4.3,17.3-5,25.5c-0.3,6.2,0.5,10.7,1,13.1
	c0.2,0.8,0.3,1.6,0.3,2.1c-0.2,1.3-1.2,1.7-2.7,1.7c-11,0-13.7-11.2-13.7-22.1c0-1.7,0.1-3.6,0.2-5.4c0.9-11.9,3.5-24.9,6.1-36.2
	C548.1,628.6,550.1,619.5,550.6,613.1z M689.7,708.7c-10.5,9.7-20.6,22.3-28.4,36.2c-3.3,6.3-11.4,25.6-11.4,36.8
	c0,4.6,1.6,8.1,5.7,8.1c3.5-0.5,6.9-3.7,9.9-8.3c8.8-13.6,16-39.9,21-58.7c0.9-3.2,1.5-6.3,2.3-9v0.1L689.7,708.7z M405.4,821.6
	c0.1-2.5-0.5-5.4-2.2-8.9c-1.8-3.2-4-4.5-5.9-4.5c-4.3,0-7.5,6.3-7.9,12c-0.2,7.3,2.9,10.7,6.6,10.7
	C400.2,831,405,827.5,405.4,821.6z M452.5,912.7l1.8-9c-8.4,15.1-19.6,29.9-31.8,29.9c-11.8,0-15.7-10.2-15.7-22.1
	c0-0.6,0-1.4,0.1-2.2c-7.4,13.4-15.5,24.2-22.3,24.2c-10.5,0-13.9-10.6-13.9-23.8c0-2.1,0.1-4.4,0.2-6.5
	c1.2-17.2,5.7-33.8,10.3-50.5l1.6-6.1v0.1c0.2-1.5,0.3-2.8,0.3-3.7c0-1.2,0.1-2,0.2-2.5c0.6-2.2,2.6-2.5,4.8-1.8
	c6.2,2.6,9.1,5.6,9.1,10.6c0,2.5-0.6,5.4-1.5,9c-3.1,11.4-7.9,33.7-9.4,48.4c-0.1,1.7-0.2,4-0.2,5.4c0,6.2,1,10.3,3.5,10.4
	c5,0,14.2-18,21.4-33.6c7.9-25.7,25.8-55.8,46.2-55.8c13.4,0,21.1,16.3,19.9,30.9c-0.2,2.4-0.6,4.8-1.4,7.1
	c-0.3,0.5-2.4,1.3-2.8,1.3c-0.8,0-1.8-0.5-2.5-1.5c0.6-2,0.8-3.7,1-5.6c0.5-9-2.7-20.2-10.9-20.2c-16,0-33.5,48-34.7,63.5
	c-0.5,5,0,11.9,5.3,11.9c8.4,0,18.1-18.2,24.5-32.4c0.8-2,1.7-4.5,1.9-7c0.1-0.9,0.1-1.7,0.1-2.5l-0.5-3c-0.2-1.1-0.2-1.8-0.2-2.4
	c0.2-2.4,2.2-3,4.4-3.2c10.1,0,13.8,5.7,14.6,13c-0.7,9.5-1.6,18.9-2.8,29.5c8-8.9,17-27.8,23-41.8c0-0.1,0.1-0.1,0.1-0.3
	c1.6-1.2,3.2-1.7,5.1,0.9c-7.8,18.8-20.6,44.8-30.9,52.7c-10.1,57.9-26.6,119.8-55.9,115.7c-8.5-1.2-14.1-10.6-14.1-23.1
	c0-2.9,0.3-6.1,1-9.1c7.6-32.3,26.7-54.6,47.2-75.5C450.2,925.2,451.4,918.3,452.5,912.7z M446.8,943.5
	c-10.5,9.6-20.6,22.3-28.4,36.2c-3.3,6.3-11.4,25.5-11.4,36.7c0,4.6,1.6,7.9,5.7,7.9c3.6-0.5,6.9-3.6,9.9-8.2
	c9-13.4,15.9-39.4,20.8-58.4l2.4-9.1l0.7-3.6L446.8,943.5z"/>
</svg>
