<?xml version="1.0" encoding="utf-8"?>
<!-- Generator: Adobe Illustrator 22.1.0, SVG Export Plug-In . SVG Version: 6.00 Build 0)  -->
<svg version="1.1" id="Layer_1" xmlns="http://www.w3.org/2000/svg" xmlns:xlink="http://www.w3.org/1999/xlink" x="0px" y="0px"
	 viewBox="0 0 1080 1296" style="enable-background:new 0 0 1080 1296;" xml:space="preserve">
<path d="M422.3,1211.2c-1.5-1.3-3.2-2.5-5.1-3.4c-0.4,1-1.6,3.4-3.7,7.2c-2.1,3.9-4.5,8-7.2,12.2c-2.7,4.3-5.4,8.1-8.1,11.5
	c-2.7,3.4-4.7,5.1-6.3,5.1c-1.3,0-2-1.2-2-3.7c0-4,1.1-9.6,3.4-16.9c2.3-7.3,4.8-14.6,7.5-22c2.7-7.4,5.3-14,7.5-19.9
	c2.3-5.9,3.4-9.5,3.4-10.8c0-2.3-0.7-4.6-2-7.1c-1.3-2.5-3-4.8-5.1-7c-2.1-2.2-4.4-4-7-5.5c-2.6-1.5-5-2.3-7.2-2.3
	c-1,0-1.7,0.3-2.3,1c-0.6,0.7-1,1.5-1.4,2.4c-1.1-2.8-2.6-5.7-4.3-8.5c-1.7-2.8-3.8-5.5-6.4-8c-2.6-2.5-5.6-4.4-9.1-6
	c-3.5-1.5-7.6-2.3-12.4-2.3c-5.7,0-10.9,2.2-15.6,6.7c-4.7,4.5-9,10.1-12.8,17c-3.8,6.9-7.2,14.7-10.1,23.3
	c-2.9,8.6-5.4,17-7.4,25.1c-2,8.1-3.5,15.6-4.5,22.4c-1,6.8-1.6,12-1.6,15.6c0,4.7,0.2,9.9,0.6,15.3c0.4,5.5,1.2,10.6,2.6,15.2
	c1.3,4.6,3.3,8.5,5.8,11.7c2.6,3.1,6.1,4.7,10.7,4.7c5.9,0,11.7-3.6,17.5-10.9c5.8-7.3,12-17.2,18.6-29.7c-0.6,4.4-0.9,8.9-0.9,13.6
	c0,4.2,0.2,8.3,0.7,12.4c0.5,4.1,1.3,7.7,2.4,10.8c1.1,3.1,2.7,5.6,4.7,7.5c2,1.9,4.4,2.8,7.2,2.8c2.5,0,5.5-1.5,9.1-4.5
	c3.6-3,7.4-6.9,11.4-11.5c4-4.6,8-9.8,11.9-15.3c4-5.6,7.6-10.9,10.8-16.1c3.2-5.1,5.9-9.7,8-13.6c2.1-4,3.3-6.6,3.7-8v-1.7
	c0-1.9-0.5-3.6-1.6-5.1C424.8,1213.6,423.6,1212.3,422.3,1211.2z M372.3,1186.7c-2.1,7-4.1,14.1-6,21.3c-1.9,3.8-3.8,7.5-5.7,11.1
	c-1.9,3.6-3.8,6.8-5.7,9.7c-1.9,2.8-3.7,5.1-5.5,6.8c-1.8,1.7-3.4,2.6-4.7,2.6c-1.3,0-2.4-0.9-3.1-2.7c-0.8-1.8-1.3-3.9-1.7-6.4
	c-0.4-2.5-0.6-4.8-0.7-7c-0.1-2.2-0.1-3.7-0.1-4.7c0-8.3,0.9-16.7,2.7-25c1.8-8.3,3.9-15.8,6.4-22.4c2.5-6.6,5-12,7.5-16.1
	c2.6-4.1,4.6-6.1,6.1-6.1c1.3,0,2.7,0.7,4.1,2c1.4,1.3,2.9,3,4.4,5c1.5,2,2.9,4.2,4.3,6.5c1.3,2.4,2.5,4.6,3.4,6.7
	C376.3,1173.5,374.4,1179.7,372.3,1186.7z M689.3,1216.4c-0.9-1.6-1.8-3.1-2.8-4.5c-1-1.4-2.1-2.6-3.3-3.4c-1.1-0.9-2-1.3-2.6-1.3
	c0.2,0-1,1.9-3.6,5.7c-2.6,3.8-5.6,8-9.1,12.5c-3.5,4.5-7,8.7-10.5,12.5c-3.5,3.8-6.1,5.7-7.8,5.7c-1,0-1.5-0.6-1.7-1.7
	c-0.2-1.1-0.3-2.6-0.3-4.3c0-3.6,0.9-8.6,2.7-15.1c1.8-6.4,4.1-13.6,7-21.5c2.8-7.9,6-16.1,9.4-24.7c3.4-8.6,6.7-17.1,9.9-25.4
	c0.6,0.2,1.5,0.3,2.8,0.3c3.8,0,7.1-1.3,9.8-3.8c2.7-2.6,4.1-5.8,4.1-9.8c0-1.1-0.5-1.7-1.4-1.7c-1.1,0-2.3,0-3.4,0.1
	c-1.1,0.1-2.2,0.1-3.1,0.1c-1.5,0-2.7-0.1-3.4-0.3c0.4-1.1,1.1-3.4,2.3-6.8c1.1-3.4,2.3-7,3.4-10.8c1.1-3.8,2.2-7.2,3.1-10.4
	c0.9-3.1,1.4-5,1.4-5.5c0-3.4-1-6.6-3.1-9.7c-2.1-3-4.7-5.6-8-7.8c-3.2-2.2-6.9-3.9-11.1-5.1c-4.2-1.2-8.3-1.8-12.5-1.8
	c-0.4,0-0.9,0.3-1.4,1c-0.6,0.7-0.9,1.2-0.9,1.6c0,1.3,0.6,2.7,1.7,4.3c1.1,1.5,1.7,3.8,1.7,6.8c0,1.1-0.5,3.4-1.6,6.8
	c-1,3.4-2.2,7.2-3.4,11.4c-1.2,4.2-2.5,8.1-3.7,11.9c-1.2,3.8-2,6.6-2.4,8.5h-4.8c-4.5,0.2-8.5,2-11.9,5.5
	c-3.4,3.5-5.1,7.3-5.1,11.5c0,1.7,0.3,3.1,1,4.3c0.7,1.1,1.5,1.7,2.4,1.7c0.6,0,1.2-0.4,1.8-1.1c0.7-0.8,1.5-1.5,2.6-2.3
	c1-0.8,2.3-1.4,3.8-1.8c1.5-0.5,3.3-0.4,5.4,0.1c-3.2,10.2-6.6,20.4-10.1,30.4c-3.5,10-6.7,19.7-9.5,29c-0.7,2.4-1.4,4.8-2.1,7.2
	c-0.2,0-0.3-0.1-0.4-0.1c0,0.2-0.8,1-2.4,2.3c-1.6,1.3-4.4,2-8.4,2c-2.3,0-4.6-0.3-7.1-0.9c5.3-13.4,8.7-24.2,10.1-32.1
	c1.4-8,2.1-13.8,2.1-17.6c0-4-0.7-8.3-2.1-13.1c-1.4-4.7-3.7-9.1-6.8-13.2c-3.1-4.1-7.2-7.5-12.2-10.4c-5-2.8-11-4.3-18-4.3
	c-5.7,0-10.9,2.2-15.6,6.5c-4.7,4.4-9,10-12.9,16.9c-3.9,6.9-7.3,14.6-10.4,23.2c-3,8.5-5.5,16.9-7.5,25c-1.7,7-3.1,13.6-4.1,19.7
	c-0.5,0.8-1,1.7-1.5,2.5c-2.7,4.4-5.4,8.2-8.2,11.5c-2.8,3.3-5.6,6-8.2,8c-2.7,2-4.9,3-6.8,3c-1.3,0-2-1.8-2-5.4
	c0-5.5,1.1-12.2,3.3-20.2c2.2-8,4.9-16.4,8.2-25.4c3.3-9,6.9-18.2,10.8-27.6c3.9-9.4,7.5-18.2,10.8-26.4c3.3-8.2,6.1-15.5,8.2-21.9
	c2.2-6.3,3.3-11.1,3.3-14.3c0-3.4-1-6.6-3.1-9.7c-2.1-3-4.7-5.6-8-7.8c-3.2-2.2-6.9-3.9-11.1-5.1c-4.2-1.2-8.3-1.8-12.5-1.8
	c-0.4,0-0.9,0.3-1.4,1c-0.6,0.7-0.9,1.2-0.9,1.6c0,1.3,0.6,2.7,1.7,4.3c1.1,1.5,1.7,3.8,1.7,6.8c-0.4,4.4-1.7,10.6-3.8,18.8
	c-2.2,8.1-4.9,17.3-8.1,27.4c-3.2,10.1-6.7,20.8-10.4,32.1c-3.7,11.3-7.1,22.3-10.2,33.1c-3.1,10.8-5.7,20.9-7.8,30.4
	c-2.1,9.5-3.1,17.4-3.1,23.9c0,4.2,0.2,8.3,0.7,12.4c0.5,4.1,1.3,7.7,2.4,10.8c1.1,3.1,2.7,5.6,4.7,7.5c2,1.9,4.4,2.8,7.2,2.8
	c3.2,0,6.8-1.3,10.8-3.8c4-2.6,8-5.9,12.1-10.1c4.1-4.2,8.1-8.8,12.1-13.9c2.7-3.4,5.2-6.9,7.6-10.3c0,0.3,0,0.5,0,0.8
	c0.4,5.4,1.4,10.4,3,14.9c1.6,4.5,4,8.3,7.2,11.2c3.2,2.9,7.7,4.4,13.4,4.4c1.7,0,4.1-0.3,7.1-1c3-0.7,6.5-2.5,10.5-5.4
	c4-2.9,8.4-7.4,13.2-13.5c4.8-6.1,10-14.6,15.5-25.6c4.2,1.1,8.2,1.7,12.2,1.7c3.2,0,6.3-0.4,9.2-1.1c-1.2,6.3-1.8,12.2-1.8,17.6
	c0,4.2,0.3,8.3,1,12.4c0.7,4.1,1.7,7.7,3.1,10.9c1.4,3.2,3.2,5.8,5.4,7.8c2.2,2,4.7,3,7.5,3c2.8,0,6.3-1.6,10.4-4.8
	c4.1-3.2,8.3-7.3,12.8-12.2c4.4-4.9,8.9-10.3,13.4-16.1c4.4-5.8,8.4-11.3,11.9-16.5c3.5-5.2,6.3-9.7,8.5-13.5
	c2.2-3.8,3.3-6.1,3.3-6.8C690.5,1219.5,690.1,1218,689.3,1216.4z M594.8,1181.5c-0.6,2.7-1.4,5.7-2.4,9c-1,3.2-2.1,6.4-3.3,9.7
	c-1.1,3.2-2.3,6.2-3.4,8.8h-1.1c-4,0-7,1.5-9.1,4.5c-2.1,3-3.1,6.3-3.1,9.9c0,2.5,0.6,4.8,1.7,7.1c-2.5,5.5-5.4,8.2-8.8,8.2
	c-2.1,0-3.6-0.9-4.7-2.6c-1-1.7-1.8-3.7-2.1-6c-0.4-2.3-0.6-4.5-0.7-6.7c-0.1-2.2-0.1-3.8-0.1-5c0.6-8.7,1.9-17.3,4-25.7
	c2.1-8.4,4.4-16,7-22.6c2.6-6.6,5-11.9,7.4-15.9c2.4-4,4.1-6,5.3-6c0.8,0,1.9,0.2,3.6,0.7c1.6,0.5,3.2,1.6,4.8,3.3
	c1.6,1.7,3,4.3,4.3,7.8c1.2,3.5,1.8,8.3,1.8,14.3C595.6,1176.4,595.4,1178.7,594.8,1181.5z M780.8,1096.1
	c-2.7,6.4-6.2,14.1-10.4,22.9c-4.2,8.8-8.7,18.3-13.6,28.4c-4.9,10.1-9.5,19.8-13.6,29.1c-4.2,9.3-7.6,17.8-10.4,25.4
	c-2.7,7.7-4.1,13.4-4.1,17.2c0,2.7-1,4.5-3,5.7c-2,1.1-4.1,1.7-6.4,1.7c-4.7,0-8-1.7-9.8-5c-1.8-3.3-2.7-7-2.7-10.9
	c0-3.6,0.9-9,2.8-16.2c1.9-7.2,4.3-15.4,7.2-24.6c2.9-9.2,6.2-18.9,9.8-29.3c3.6-10.3,7-20.3,10.1-30c3.1-9.7,5.9-18.6,8.4-26.7
	c2.5-8.1,4.1-14.7,4.8-19.6c0.6-2.8,2.3-4.3,5.1-4.3c2.5,0,5.4,0.7,8.8,2.1c3.4,1.4,6.7,3.2,9.8,5.4c3.1,2.2,5.8,4.6,8,7.4
	c2.2,2.7,3.3,5.4,3.3,8.1C784.9,1085.3,783.5,1089.6,780.8,1096.1z M725.5,1261.4c0,3-0.6,6.3-1.8,9.7c-1.2,3.4-2.9,6.5-5,9.4
	c-2.1,2.8-4.5,5.2-7.4,7.1c-2.8,1.9-5.9,2.8-9.1,2.8c-3.2,0-6.5-1.3-9.8-3.8c-3.3-2.6-5-5.9-5-10.1c0-3,0.7-6.2,2-9.5
	c1.3-3.3,3.1-6.3,5.3-8.8c2.2-2.6,4.7-4.7,7.5-6.4c2.8-1.7,5.9-2.6,9.1-2.6c3.8,0,7.1,1,9.9,3.1
	C724.1,1254.4,725.5,1257.5,725.5,1261.4z M124.6,972.2c2,1.9,4.4,2.9,7.3,2.9c2.5,0,5.5-1.4,9-4.3c3.5-2.9,7.2-6.5,11-10.8
	c1.1,1.9,2.9,3.8,5.4,5.6c2.5,1.8,6.5,2.7,12,2.7c6.3-0.9,12-4,17.3-9.1c5.2-5.1,9.9-11.5,14-19c4.1-7.5,7.7-15.8,10.7-24.8
	c3-9,5.6-17.9,7.7-26.7c2.1-8.7,3.6-16.9,4.6-24.5c0.9-7.6,1.4-13.8,1.4-18.5c0-4.6-0.2-8.9-0.7-13.1c-0.5-4.2-1.3-7.9-2.6-11.1
	c-1.2-3.2-3-5.8-5.1-7.8c-2.2-2-5.1-3-8.7-3c-2.7,0-5.5,1-8.6,3c-3,2-6.1,4.7-9.3,8.1c-3.1,3.4-6.3,7.4-9.4,11.8
	c-3.1,4.5-6.2,9.2-9.3,14.1c2.9-6.8,5.7-13.4,8.4-19.7c2.8-6.3,5.2-12.1,7.4-17.5c2.2-5.4,3.9-10.2,5.3-14.4c1.3-4.2,2-7.5,2-10
	c0-3.4-1-6.7-3.1-9.7c-2.1-3-4.8-5.7-8.1-7.8c-3.3-2.2-7.1-3.9-11.3-5.1c-4.2-1.2-8.4-1.9-12.5-1.9c-0.4,0-0.9,0.3-1.4,1
	c-0.6,0.7-0.9,1.2-0.9,1.6c0,1.3,0.6,2.8,1.7,4.3c1.1,1.5,1.7,3.8,1.7,6.8c-0.4,4.4-1.7,10.6-3.8,18.8c-2.2,8.2-4.9,17.4-8.1,27.5
	c-3.2,10.2-6.7,20.9-10.4,32.2c-3.7,11.3-7.1,22.4-10.3,33.2c-3.1,10.8-5.8,21-7.8,30.5c-2.1,9.5-3.1,17.5-3.1,24
	c0,4.2,0.2,8.3,0.7,12.4c0.5,4.1,1.3,7.7,2.4,10.8C121,967.7,122.6,970.3,124.6,972.2z M150.6,912.7c0.9-5.8,2.1-11.5,3.8-17
	c2.5-4.2,5.4-8.9,8.7-14.3c3.3-5.3,6.7-10.4,10-15.1c3.3-4.7,6.5-8.7,9.6-12c3-3.2,5.4-4.8,7.1-4.8c1.5,0,2.5,1.4,2.9,4.1
	c0.4,2.8,0.6,5.4,0.6,7.8c0,8.6-1.4,17.4-4.1,26.4c-2.8,9-6.1,17.2-10,24.5c-3.9,7.3-8,13.4-12.4,18.1c-4.4,4.8-8.3,7.1-11.7,7.1
	c-3,0-5.2-2.3-6.6-6.8C149,924.5,149.7,918.5,150.6,912.7z M466.1,826.2c0.6-1.9,1.1-3.5,1.6-4.8c0.5-1.3,0.7-2.7,0.7-4
	c0-3-1.2-5.4-3.7-7c-2.5-1.6-5-2.4-7.7-2.4c-2.3,0-4.6,0.1-6.8,0.4c-2.3,0.3-4.5,1-6.6,2.1c-2.1,1.1-4,2.8-5.8,5
	c-1.8,2.2-3.3,5.2-4.4,9c-2.9,3.6-5.9,7.8-9.3,12.7c-3.3,4.8-6.7,9.8-10.1,15c-3.4,5.1-6.9,10.2-10.4,15.3c-3.5,5-6.9,9.7-10.1,13.8
	c-0.4-0.4-1-0.6-1.7-0.6c-1.9,0-3.9,1.3-6,4c-2.1,2.7-3.1,6.8-3.1,12.5c0,0.7,0,1.4,0.1,2.2c-1.2,2.1-2.6,4.4-4.1,6.9
	c-3.6,6.1-7.7,12-12.3,17.8c-4.6,5.8-9.3,10.8-14.3,15.1c-4.9,4.3-9.7,6.4-14.3,6.4c-3.4-0.2-6.3-1.6-8.7-4.3
	c-2.4-2.7-4.3-5.8-5.7-9.6c-1.4-3.7-2.5-7.7-3.1-12c-0.7-4.3-1-8.3-1-12.1c0-3.8,0.3-7,0.9-9.7c2.1,2.3,4.7,4.3,7.8,6
	c3.1,1.7,6.6,2.6,10.4,2.6c4.6,0,9.3-2.4,14.1-7.1c4.8-4.8,9.3-10.4,13.3-17c4-6.6,7.3-13.1,9.8-19.7c2.6-6.6,3.8-11.7,3.8-15.5
	c0-4.9-1.5-9.6-4.4-14c-3-4.4-6.7-8.2-11.1-11.5c-4.5-3.3-9.3-5.9-14.4-7.8c-5.1-1.9-9.9-2.9-14.3-2.9c-6.1,0-11.5,2.4-16.4,7.1
	c-4.8,4.8-9.2,10.8-13.1,18.3c-3.9,7.4-7.3,15.6-10.1,24.7c-2.9,9-5.2,17.7-7,26.1c-1,4.5-1.8,8.7-2.5,12.6c-1,1.8-2,3.6-3,5.3
	c-2.7,4.4-5.4,8.2-8.3,11.5c-2.9,3.3-5.6,6-8.3,8c-2.7,2-4.9,3-6.8,3c-1.3,0-2-1.8-2-5.4c0-5.5,1.1-12.3,3.3-20.2
	c2.2-8,4.9-16.5,8.3-25.5c3.3-9,6.9-18.3,10.8-27.7c3.9-9.4,7.5-18.3,10.8-26.5c3.3-8.3,6.1-15.6,8.3-22c2.2-6.4,3.3-11.2,3.3-14.4
	c0-3.4-1-6.7-3.1-9.7c-2.1-3-4.8-5.7-8-7.8c-3.2-2.2-6.9-3.9-11.1-5.1c-4.2-1.2-8.4-1.9-12.5-1.9c-0.4,0-0.9,0.3-1.4,1
	c-0.6,0.7-0.9,1.2-0.9,1.6c0,1.3,0.6,2.8,1.7,4.3c1.1,1.5,1.7,3.8,1.7,6.8c-0.4,4.4-1.7,10.6-3.8,18.8c-2.2,8.2-4.9,17.4-8.1,27.5
	c-3.2,10.2-6.7,20.9-10.4,32.2c-3.7,11.3-7.1,22.4-10.3,33.2c-3.1,10.8-5.8,21-7.8,30.5c-2.1,9.5-3.1,17.5-3.1,24
	c0,4.2,0.2,8.3,0.7,12.4c0.5,4.1,1.3,7.7,2.4,10.8c1.1,3.1,2.7,5.7,4.7,7.6c2,1.9,4.4,2.9,7.3,2.9c3.2,0,6.8-1.3,10.8-3.8
	c4-2.6,8-5.9,12.1-10.1c4.1-4.2,8.1-8.8,12.1-14c2.9-3.8,5.7-7.6,8.4-11.3c1.2,10.4,4.2,19,8.9,25.8c6.4,9.2,17.2,13.8,32.4,13.8
	c5.7,0,11.5-1.4,17.3-4.1c5.8-2.8,11.3-6.4,16.5-10.8c5.2-4.5,10.2-9.6,14.8-15.3c4.7-5.7,8.8-11.6,12.4-17.7c0.5-0.9,1-1.8,1.5-2.8
	c1.7,5.6,3.8,11.4,6.3,17.3c2.6,6.1,5.6,11.6,9.1,16.5c3.5,4.9,7.5,9,12,12.1c4.5,3.1,9.6,4.7,15.3,4.7c6.8,0,12.5-1.8,17.1-5.4
	c4.6-3.6,8.2-8.5,11-14.5c2.8-6.1,4.8-13.1,6-21c1.2-7.9,1.9-16.1,1.9-24.7c0-11.6-0.4-22.4-1.1-32.5c-0.8-10.1-1.1-21-1.1-32.8
	c0-4.6,0.2-8.3,0.7-11.1C465,830.4,465.5,828.1,466.1,826.2z M327.4,860.1c2-6.1,4-11.5,6-16.1c2-4.7,3.8-8.3,5.4-11
	c1.6-2.7,2.9-4,3.8-4c1.5,0,3.1,1,4.7,3c1.6,2,3.2,4.3,4.7,7c-0.6,5.7-1.7,11.4-3.4,17.1c-1.7,5.7-3.7,10.8-6,15.3
	c-2.3,4.5-4.6,8.1-6.8,10.8c-2.3,2.8-4.3,4.1-6,4.1c-1.5-0.2-2.9-0.9-4.1-2.3c-1.2-1.3-2.3-2.9-3.3-4.6
	C323.7,872.6,325.4,866.2,327.4,860.1z M433.6,900.2c-0.4,6.9-1,13.3-2,19c-1,5.7-2.2,10.4-3.7,14.1c-1.5,3.7-3.5,5.6-6,5.6
	c-3.2,0-6.1-1.7-8.6-5.1c-2.5-3.4-4.5-7.3-6.1-11.7c-1.6-4.4-2.9-8.6-3.7-12.5c-0.9-4-1.3-6.7-1.3-8c1.7-2.9,3.9-6.4,6.6-10.6
	c2.7-4.2,5.5-8.6,8.4-13.3c2.9-4.7,5.8-9.3,8.6-14c2.8-4.7,5.2-8.7,7.3-12.1c0.4,2.7,0.7,6.5,0.9,11.6c0.2,5,0.3,10.6,0.3,16.7
	C434.2,886.4,434,893.2,433.6,900.2z M563.1,826.2c0.6-1.9,1.1-3.5,1.6-4.8c0.5-1.3,0.7-2.7,0.7-4c0-3-1.2-5.4-3.7-7
	c-2.5-1.6-5-2.4-7.7-2.4c-2.3,0-4.6,0.1-6.8,0.4c-2.3,0.3-4.5,1-6.6,2.1c-2.1,1.1-4,2.8-5.8,5c-1.8,2.2-3.3,5.2-4.4,9
	c-2.9,3.6-5.9,7.8-9.3,12.7c-3.3,4.8-6.7,9.8-10.1,15c-3.4,5.1-6.9,10.2-10.4,15.3c-3.5,5-6.9,9.7-10.1,13.8c-0.4-0.4-1-0.6-1.7-0.6
	c-1.9,0-3.9,1.3-6,4c-2.1,2.7-3.1,6.8-3.1,12.5c0,2.7,0.4,6.4,1.1,11.3c0.8,4.8,2,10.1,3.7,15.8c1.7,5.7,3.8,11.6,6.4,17.7
	c2.6,6.1,5.6,11.6,9.1,16.5c3.5,4.9,7.5,9,12,12.1c4.5,3.1,9.6,4.7,15.3,4.7c6.8,0,12.5-1.8,17.1-5.4c4.6-3.6,8.2-8.5,11-14.5
	c2.8-6.1,4.7-13.1,6-21c1.2-7.9,1.9-16.1,1.9-24.7c0-11.6-0.4-22.4-1.1-32.5c-0.8-10.1-1.1-21-1.1-32.8c0-4.6,0.2-8.3,0.7-11.1
	C562,830.4,562.5,828.1,563.1,826.2z M530.5,900.2c-0.4,6.9-1,13.3-2,19c-1,5.7-2.2,10.4-3.7,14.1c-1.5,3.7-3.5,5.6-6,5.6
	c-3.2,0-6.1-1.7-8.6-5.1c-2.5-3.4-4.5-7.3-6.1-11.7c-1.6-4.4-2.9-8.6-3.7-12.5c-0.9-4-1.3-6.7-1.3-8c1.7-2.9,3.9-6.4,6.6-10.6
	c2.7-4.2,5.5-8.6,8.4-13.3c2.9-4.7,5.8-9.3,8.6-14c2.8-4.7,5.2-8.7,7.3-12.1c0.4,2.7,0.7,6.5,0.9,11.6c0.2,5,0.3,10.6,0.3,16.7
	C531.1,886.4,530.9,893.2,530.5,900.2z M959.2,914c2.1-4,3.3-6.7,3.7-8c0-1.3-0.3-2.9-1-4.6c-0.7-1.7-1.5-3.3-2.4-4.7
	c-1-1.4-2-2.6-3.3-3.6c-1.2-0.9-2.4-1.4-3.6-1.4c-0.4,1-1.6,3.4-3.7,7.3c-2.1,3.9-4.5,8-7.3,12.3c-2.8,4.3-5.5,8.1-8.1,11.5
	c-2.7,3.4-4.8,5.1-6.3,5.1c-1.1,0-1.7-1.2-1.7-3.7c0-2.3,0.5-5.6,1.6-9.8c1-4.3,2.4-8.9,4-14c1.6-5,3.4-10.2,5.3-15.4
	c1.9-5.2,3.8-10.1,5.6-14.5c1.8-4.5,3.4-8.3,4.7-11.5c1.3-3.2,2.2-5.2,2.6-6c0.4-0.8,0.6-1.5,0.6-2.3c0-2.1-0.8-4.5-2.3-7.3
	c-1.5-2.8-3.5-5.3-5.8-7.7c-2.4-2.4-4.9-4.4-7.7-6.1c-2.8-1.7-5.3-2.6-7.6-2.6c-3.2,0-6.7,5.6-10.4,16.7
	c-3.7,11.1-8.3,27.6-13.8,49.5c-1.3,2.3-3.3,5.1-6,8.4c-2.7,3.3-5.5,6.5-8.4,9.6c-2.9,3-5.9,5.7-9,7.8c-3,2.2-5.5,3.3-7.4,3.3
	c-2.1,0-3.1-2.1-3.1-6.3c0-4,0.8-9.4,2.4-16.1c1.6-6.7,3.6-13.7,5.8-20.8c2.3-7.1,4.6-13.7,7-19.7c2.4-6,4.3-10.3,5.8-13
	c0.6-0.8,0.9-1.9,0.9-3.4c0-2.1-0.8-4.4-2.3-7c-1.5-2.6-3.5-5-5.8-7.3c-2.4-2.3-4.9-4.2-7.6-5.7c-2.7-1.5-5.1-2.3-7.4-2.3
	c-1.7,0-3.7,1.9-5.8,5.7c-2.2,3.8-4.4,8.8-6.7,15.1c-2.3,6.3-4.6,13.4-6.8,21.2c-2.3,7.9-4.3,15.9-6.1,24c-0.9,4.2-1.8,8.3-2.5,12.3
	c-0.4,0.4-1.1,1-2,1.8c-1.6,1.3-4.4,2-8.4,2c-2.3,0-4.7-0.3-7.1-0.9c5.3-13.5,8.7-24.2,10.1-32.2c1.4-8,2.1-13.9,2.1-17.7
	c0-4-0.7-8.4-2.1-13.1c-1.4-4.7-3.7-9.2-6.8-13.3c-3.1-4.1-7.2-7.6-12.3-10.4c-5-2.9-11.1-4.3-18.1-4.3c-5.7,0-10.9,2.2-15.7,6.6
	c-4.8,4.4-9.1,10-13,17c-3.9,6.9-7.4,14.7-10.4,23.2c-3,8.6-5.6,16.9-7.6,25.1c-1.5,6.3-2.8,12.2-3.8,17.7c-3,5.4-6,10.3-9.1,14.8
	c-4.7,6.8-10,13.9-16.1,21.1c3-17.7,6.7-33.6,11.1-47.6c4.4-14.1,9-28,14-41.9c0.6-1.3,0.9-2.9,0.9-4.6c0-2.9-1-5.5-2.9-8
	c-1.9-2.5-4.1-4.6-6.7-6.3c-2.6-1.7-5.1-3.1-7.7-4.1c-2.6-1-4.5-1.6-5.8-1.6c-2.1,0-3.6,0.8-4.6,2.3c-4.4,11.6-7.9,23.5-10.7,35.8
	c-2.8,12.3-5.4,23.2-7.8,32.9c-1,1.5-2.9,4.2-5.8,8c-3,3.8-6.2,7.7-9.7,11.7c-3.5,4-6.9,7.5-10.3,10.6c-3.3,3-5.8,4.6-7.6,4.6
	c-1,0-1.5-0.8-1.7-2.3c-0.2-1.5-0.3-3-0.3-4.6c0-3.6,0.5-8,1.6-13.3c1-5.2,2.3-10.7,3.8-16.5c1.5-5.8,3.2-11.6,5-17.5
	c1.8-5.9,3.5-11.3,5.1-16.1c1.6-4.8,3-8.9,4.3-12.1c1.2-3.2,2-5.2,2.4-6c0.4-1.1,0.6-2,0.6-2.6c0-2.1-0.9-4.3-2.7-6.7
	c-1.8-2.4-3.9-4.6-6.4-6.7c-2.5-2.1-5.1-3.8-8-5.1c-2.9-1.3-5.2-2-7.1-2c-1.9,0-3.1,0.7-3.7,2c-1.1,2.9-2.6,7-4.3,12.4
	c-1.7,5.4-3.6,11.5-5.6,18.3c-2,6.8-4,14-6,21.8c-2,7.8-3.8,15.5-5.4,23.1c-1.6,7.6-2.9,15-4,22.1c-1,7.1-1.6,13.5-1.6,19
	c0,4.2,0.4,8.3,1.1,12.3c0.8,4,1.9,7.5,3.4,10.6c1.5,3,3.5,5.5,6,7.3c2.5,1.8,5.3,2.7,8.6,2.7c2.1,0,4.7-0.9,7.7-2.9
	c3-1.9,6.3-4.4,9.7-7.4c3.4-3,7-6.5,10.7-10.4c3.7-3.9,7.3-7.8,10.7-11.8l-6.3,26.8c-5.5,3-11.2,6.4-17,10.1
	c-5.8,3.7-11.1,7.9-15.8,12.7c-4.8,4.7-8.7,10.1-11.7,16c-3,5.9-4.6,12.4-4.6,19.4c0,4.6,0.7,8.8,2.1,12.8c1.4,4,3.5,7.5,6.3,10.4
	c2.8,2.9,6,5.3,9.8,7.1c3.8,1.8,8.1,2.7,12.8,2.7c3,0,6.7-1.6,10.8-4.7c4.2-3.1,8.3-7.4,12.4-12.7c4.1-5.3,7.8-11.5,11.1-18.5
	c3.3-7,5.8-14.5,7.6-22.5c1.1-5.3,2.5-10.6,4-15.8c1.5-5.2,2.7-9.7,3.4-13.5c3.4-3,7.4-7.1,12-12.3c4.6-5.1,9.1-10.6,13.5-16.3
	c0.8-1,1.5-1.9,2.2-2.9c0.1,1,0.1,2,0.2,3.1c0.4,5.4,1.4,10.4,3,15c1.6,4.6,4,8.3,7.3,11.3c3.2,3,7.7,4.4,13.4,4.4
	c1.7,0,4.1-0.3,7.1-1c3-0.7,6.6-2.5,10.6-5.4c4-2.9,8.4-7.5,13.3-13.5c4.8-6.1,10-14.6,15.5-25.7c4.2,1.1,8.3,1.7,12.3,1.7
	c4,0,7.7-0.6,11.1-1.7c-0.2,2.7-0.3,5.3-0.3,7.7c0,4.6,0.3,9.1,1,13.7c0.7,4.6,1.7,8.7,3.1,12.3c1.4,3.6,3.3,6.6,5.6,8.8
	s5,3.4,8.3,3.4c2.7,0,5.7-1.2,9.1-3.7c3.4-2.5,6.9-5.6,10.6-9.4c3.6-3.8,7.2-7.9,10.8-12.4c3.6-4.5,7-8.7,10.3-12.7
	c-0.8,4.4-1.1,9.1-1.1,14.3c0,4,0.3,7.8,0.9,11.5c0.6,3.7,1.5,7,2.7,9.8c1.2,2.9,2.8,5.1,4.7,6.8c1.9,1.7,4.1,2.6,6.6,2.6
	c2.5,0,5.5-1.5,9.1-4.6c3.6-3,7.4-6.9,11.4-11.6c4-4.7,8-9.8,12-15.4c4-5.6,7.6-11,10.8-16.1C954.4,922.5,957.1,918,959.2,914z
	 M676.1,996c-1,4.1-2.4,8.1-4,12.1c-1.6,4-3.6,7.5-6,10.4c-2.4,2.9-5.1,4.4-8.1,4.4c-2.1,0-3.9-0.7-5.6-2c-1.6-1.3-2.4-3.2-2.4-5.7
	c0-3,0.9-5.9,2.7-8.7c1.8-2.8,4-5.3,6.7-7.7c2.7-2.4,5.7-4.6,9-6.7c3.3-2.1,6.6-4,9.8-5.7C677.9,988.7,677.2,991.9,676.1,996z
	 M813.4,865.4c-0.6,2.8-1.4,5.8-2.4,9c-1,3.2-2.1,6.5-3.3,9.7c-1.1,3.2-2.3,6.2-3.4,8.8h-1.1c-4,0-7,1.5-9.1,4.6
	c-2.1,3-3.1,6.4-3.1,10c0,2.5,0.6,4.8,1.7,7.1c-2.5,5.5-5.4,8.3-8.8,8.3c-2.1,0-3.7-0.9-4.7-2.6c-1-1.7-1.8-3.7-2.1-6
	c-0.4-2.3-0.6-4.5-0.7-6.7c-0.1-2.2-0.1-3.8-0.1-5c0.6-8.7,1.9-17.3,4-25.8c2.1-8.5,4.4-16,7-22.7c2.6-6.7,5-12,7.4-16
	c2.4-4,4.1-6,5.3-6c0.8,0,1.9,0.2,3.6,0.7c1.6,0.5,3.2,1.6,4.8,3.3c1.6,1.7,3,4.3,4.3,7.8c1.2,3.5,1.9,8.3,1.9,14.4
	C814.3,860.3,814,862.6,813.4,865.4z M469.9,786.7c-2.4-1-4.4-2.3-6.1-4.1c-1.7-1.8-2.6-4.2-2.6-7.2c0-2.3,0.8-6.7,2.3-13.4
	c-7.2,9.9-15.2,17.3-24,22.3c-8.8,5-17.8,7.5-26.9,7.5c-10,0-18.6-1.6-25.6-4.8c-7-3.2-12.8-7.6-17.3-13.2
	c-4.5-5.6-7.9-12.2-9.9-19.9c-2.1-7.7-3.1-16-3.1-24.9c0-11.6,1.6-23.8,4.8-36.7c3.2-12.9,7.7-25.7,13.4-38.4
	c5.7-12.7,12.5-24.8,20.3-36.4c7.9-11.6,16.4-21.8,25.7-30.7c9.3-8.9,19.1-16,29.6-21.2c10.4-5.2,21.1-7.8,32.1-7.8
	c2.1,0,4.6,0.2,7.5,0.7c2.9,0.5,5.8,1.2,8.5,2.1c2.7,1,5.1,2.1,7.1,3.4c2,1.3,3,2.7,3,4.3c0,0.4-0.2,1-0.6,1.7
	c-1.7,2.8-3.8,7.7-6.3,14.6c-2.5,6.9-4.9,14.4-7.2,22.4c-2.4,8.1-4.4,15.8-6,23.3c-1.6,7.5-2.4,13.2-2.4,17.2c0,1.9-0.8,2.8-2.3,2.8
	c-1.9,0-4.4-0.2-7.5-0.6c-3.1-0.4-6.2-1.1-9.2-2.3c-3-1.1-5.6-2.8-7.8-5.1c-2.2-2.3-3.3-5.3-3.3-9.1c0-3.8,0.9-8.1,2.6-12.9
	c1.7-4.8,3.7-9.7,6-14.6c2.3-4.9,4.5-9.6,6.7-14.1c2.2-4.4,3.7-8.3,4.7-11.5c-5.1,0-10.7,2.3-16.8,7c-6.1,4.6-12.3,10.8-18.6,18.5
	c-6.3,7.7-12.5,16.5-18.5,26.4c-6,9.9-11.2,20.2-15.8,30.7c-4.5,10.5-8.2,20.9-11.1,31.3c-2.8,10.3-4.3,19.7-4.3,28
	c0,5.1,0.6,9.9,1.7,14.5c1.1,4.5,2.9,8.5,5.3,11.8c2.4,3.3,5.4,6,9.2,8c3.8,2,8.3,3,13.6,3c6.8,0,13.5-2.1,20.2-6.4
	c6.6-4.3,12.6-9.4,18-15.5c5.4-6.1,10-12.4,13.9-19c3.9-6.6,6.6-12.2,8.1-16.8c-3.6,1-7.2,1.9-10.8,3c-3.6,1-7,2.2-10.2,3.4
	c-3.2,1.2-6.2,2.6-8.8,4.1c-2.7,1.5-4.6,3.1-6,4.8c-0.4,0.4-1,1.1-1.8,2.1c-0.9,1-1.8,1.6-2.7,1.6c-1,0-2.5-2-4.7-6.1
	c-2.2-4.1-3.3-10.1-3.3-18c0-3.8,0.7-6.9,2-9.4c0.9-1.7,3.2-3.2,6.8-4.5c3.6-1.3,7.9-2.4,12.8-3.1c4.9-0.8,10.2-1.3,15.8-1.7
	c5.6-0.4,10.8-0.6,15.8-0.6c6.1,0,10.7,0.3,14.1,1c3.3,0.7,5.7,1.7,7.2,3c1.5,1.3,2.4,3,2.7,5c0.3,2,0.4,4.4,0.4,7.2
	c0,1.3-0.2,2.5-0.6,3.4c-0.4,1-1,1.4-2,1.4c-1.3,0-2.7-0.3-4-0.9c-0.6,1.3-1.6,5.3-3,11.9c-1.4,6.6-2.8,14.1-4.3,22.4
	c-1.4,8.3-2.7,16.6-3.8,24.9c-1.1,8.2-1.7,14.7-1.7,19.5c0,2.1,0.2,3.6,0.6,4.7c0.4,1,0.8,1.7,1.1,2.1c0.4,0.4,0.8,0.7,1.1,1
	c0.4,0.3,0.6,0.8,0.6,1.6c0,1.7-0.7,2.7-2.1,3c-1.4,0.3-3.8,0.4-7.2,0.4c-2.3,0-4.8-0.1-7.5-0.4
	C474.8,788.3,472.3,787.6,469.9,786.7z M582.9,727c4.2,1.1,8.2,1.7,12.2,1.7c3.9,0,7.6-0.6,11.1-1.7c0,4.5,0.2,9.3,0.6,14.5
	c0.4,5.5,1.2,10.6,2.6,15.2c1.3,4.6,3.3,8.5,5.8,11.7c2.6,3.1,6.1,4.7,10.7,4.7c5.3,0,11-3.2,17-9.7c6.1-6.4,12.3-15.5,18.8-27.3
	c-0.2,1.3-0.3,2.9-0.4,4.8c-0.1,1.9-0.1,3.9-0.1,6c0,3.4,0.2,7,0.6,10.8c0.4,3.8,1.1,7.3,2.3,10.7c1.1,3.3,2.7,6,4.7,8.1
	c2,2.1,4.5,3.1,7.5,3.1c2.5,0,5.5-1.5,9.1-4.5c3.6-3,7.4-6.9,11.4-11.5c4-4.6,8-9.8,12.1-15.3c4.1-5.6,7.7-10.9,10.9-16.1
	c3.2-5.1,5.9-9.7,8-13.6c2.1-4,3.2-6.6,3.4-8c0-1.3-0.3-2.8-1-4.5c-0.7-1.7-1.5-3.3-2.4-4.7c-1-1.4-2-2.6-3.1-3.6
	c-1.1-0.9-2.4-1.4-3.7-1.4c-0.4,1-1.7,3.4-3.8,7.2c-2.2,3.9-4.6,8-7.2,12.2c-2.7,4.3-5.3,8.1-8,11.5c-2.7,3.4-4.7,5.1-6.3,5.1
	c-1.3,0-2-1.8-2-5.4c0-2.1,0.9-6.3,2.7-12.8c1.8-6.4,4-14,6.7-22.7c2.7-8.7,5.6-18.1,8.8-28.1c3.2-10,6.2-19.7,8.8-29.1
	c2.7-9.4,4.9-17.9,6.7-25.7c1.8-7.8,2.7-13.8,2.7-18.2c0-3.4-1-6.6-3.1-9.7c-2.1-3-4.7-5.6-8-7.8c-3.2-2.2-6.9-3.9-11.1-5.1
	c-4.2-1.2-8.3-1.8-12.5-1.8c-0.4,0-0.9,0.3-1.4,1c-0.6,0.7-0.9,1.2-0.9,1.6c0,1.5,0.6,3.4,1.7,5.5c1.1,2.2,1.7,5.7,1.7,10.7
	c0,6.1-0.4,13.6-1.1,22.6c-0.8,9-2.8,19-6.3,30c-2.5-5.3-6.1-10.2-10.9-14.6c-4.8-4.4-11.4-6.7-19.7-6.7c-5.7,0-10.9,2.2-15.6,6.7
	c-4.7,4.5-9,10.1-12.8,17c-3.8,6.9-7.2,14.6-10.1,23.2c-2.9,8.5-5.4,16.9-7.4,25c-1.4,5.8-2.6,11.3-3.5,16.5
	c-0.4,0.3-0.8,0.7-1.3,1.1c-1.6,1.3-4.4,2-8.4,2c-2.3,0-4.6-0.3-7.1-0.9c5.3-13.4,8.7-24.2,10.1-32.1s2.1-13.8,2.1-17.6
	c0-4-0.7-8.3-2.1-13.1c-1.4-4.7-3.7-9.1-6.8-13.2c-3.1-4.1-7.2-7.5-12.2-10.4c-5-2.8-11-4.3-18-4.3c-5.7,0-10.9,2.2-15.6,6.5
	c-4.7,4.4-9,10-12.9,16.9c-3.9,6.9-7.3,14.6-10.4,23.2c-3,8.5-5.5,16.9-7.5,25c-2,8.1-3.5,15.7-4.5,22.6c-1,6.9-1.6,12.3-1.6,16.1
	c0,5.1,0.2,10.4,0.6,15.8c0.4,5.4,1.4,10.4,3,14.9c1.6,4.5,4,8.3,7.2,11.2c3.2,2.9,7.7,4.4,13.4,4.4c1.7,0,4.1-0.3,7.1-1
	c3-0.7,6.5-2.5,10.5-5.4c4-2.9,8.4-7.4,13.2-13.5C572.2,746.5,577.4,738,582.9,727z M645.5,681c2-8.7,4.3-16.6,6.8-23.6
	c2.6-7,5.1-12.7,7.7-17c2.6-4.4,4.3-6.5,5.3-6.5c1.5,0,3.3,1.2,5.3,3.7c2,2.5,3.8,5.2,5.5,8.2c1.7,3,3.2,5.8,4.4,8.2
	c1.2,2.5,1.8,3.8,1.8,4c-1.7,5.3-3.4,10.6-5.1,15.8c-1.7,5.2-3.3,10.4-4.8,15.5c-1.7,3.4-3.6,7.2-5.7,11.5
	c-2.1,4.3-4.2,8.3-6.4,12.2c-2.2,3.9-4.4,7.1-6.5,9.7c-2.2,2.6-4.1,3.8-5.8,3.8c-1.3,0-2.3-0.9-3-2.7c-0.7-1.8-1.2-3.8-1.6-6.1
	c-0.4-2.3-0.6-4.4-0.7-6.5c-0.1-2.1-0.1-3.5-0.1-4.3C642.5,698.3,643.5,689.7,645.5,681z M564.7,702c-2.1,3-3.1,6.3-3.1,9.9
	c0,2.5,0.6,4.8,1.7,7.1c-2.5,5.5-5.4,8.2-8.8,8.2c-2.1,0-3.6-0.9-4.7-2.6c-1-1.7-1.8-3.7-2.1-6c-0.4-2.3-0.6-4.5-0.7-6.7
	c-0.1-2.2-0.1-3.8-0.1-5c0.6-8.7,1.9-17.3,4-25.7c2.1-8.4,4.4-16,7-22.6c2.6-6.6,5-11.9,7.4-15.9c2.4-4,4.1-6,5.3-6
	c0.8,0,1.9,0.2,3.6,0.7c1.6,0.5,3.2,1.6,4.8,3.3c1.6,1.7,3,4.3,4.3,7.8c1.2,3.5,1.8,8.3,1.8,14.3c0,1.9-0.3,4.2-0.9,7
	c-0.6,2.7-1.4,5.7-2.4,9c-1,3.2-2.1,6.4-3.3,9.7c-1.1,3.2-2.3,6.2-3.4,8.8h-1.1C569.8,697.5,566.8,699,564.7,702z M120.2,535.5
	c1.3,3.5,3,6.2,5.2,8.3c2.2,2.1,4.9,3.1,8,3.1c2.7,0,6-1.6,9.9-4.7c3.9-3.1,7.9-7.1,12.1-11.9c1.3,2.1,3.2,4.1,6,6.1
	c2.7,2,7.1,3,13.2,3c6.9-1,13.2-4.4,19-10.1c5.8-5.7,10.9-12.6,15.4-20.9c4.5-8.3,8.4-17.4,11.8-27.3c3.3-9.9,6.2-19.7,8.5-29.4
	c2.3-9.6,4-18.6,5-27c1-8.4,1.6-15.2,1.6-20.4c0-5-0.3-9.8-0.8-14.5c-0.5-4.6-1.5-8.7-2.8-12.3c-1.4-3.6-3.2-6.4-5.7-8.6
	c-2.4-2.2-5.6-3.3-9.6-3.3c-2.9,0-6.1,1.1-9.4,3.3c-3.4,2.2-6.8,5.2-10.2,9c-3.5,3.8-6.9,8.1-10.4,13c-3.5,4.9-6.9,10.1-10.2,15.6
	c3.1-7.5,6.2-14.8,9.3-21.7c3-6.9,5.8-13.4,8.2-19.3c2.4-6,4.3-11.3,5.8-15.9c1.5-4.6,2.2-8.3,2.2-11c0-3.8-1.2-7.3-3.5-10.7
	c-2.3-3.3-5.3-6.2-9-8.6c-3.7-2.4-7.8-4.3-12.4-5.7c-4.6-1.4-9.2-2-13.8-2c-0.4,0-0.9,0.4-1.6,1.1c-0.6,0.7-0.9,1.3-0.9,1.7
	c0,1.5,0.6,3,1.9,4.7c1.3,1.7,1.9,4.2,1.9,7.5c-0.4,4.8-1.8,11.7-4.2,20.7c-2.4,9-5.4,19.1-9,30.3c-3.6,11.2-7.4,23-11.5,35.5
	c-4.1,12.5-7.9,24.7-11.3,36.6c-3.5,11.9-6.3,23.1-8.6,33.6c-2.3,10.5-3.5,19.3-3.5,26.4c0,4.6,0.3,9.2,0.8,13.7
	C118.1,528.1,119,532,120.2,535.5z M154,478.3c0.9-6.4,2.4-12.6,4.2-18.7c2.7-4.6,5.9-9.8,9.6-15.7c3.7-5.9,7.3-11.4,11-16.7
	c3.7-5.2,7.2-9.6,10.5-13.2c3.3-3.6,6-5.3,7.9-5.3c1.7,0,2.7,1.5,3.1,4.6c0.4,3,0.6,5.9,0.6,8.6c0,9.4-1.5,19.1-4.6,29.1
	c-3,10-6.7,19-11,27c-4.3,8.1-8.9,14.7-13.7,19.9c-4.8,5.2-9.1,7.9-12.9,7.9c-3.4,0-5.8-2.5-7.2-7.5
	C152.3,491.3,153,484.7,154,478.3z M279.5,355.2c-2.9-3.5-4.4-8-4.4-13.7c0-3.3,0.7-6.6,2-9.9c1.4-3.2,3.1-6.2,5.2-8.8
	c2.1-2.6,4.6-4.7,7.5-6.3c2.9-1.6,6-2.4,9.1-2.4c4.8,0,8.9,1.8,12.3,5.3c3.3,3.6,5,8.1,5,13.5c-0.2,3.6-1,7-2.4,10.2
	c-1.4,3.2-3.1,6.1-5.3,8.6c-2.2,2.5-4.8,4.6-7.7,6.1c-2.9,1.6-6.1,2.4-9.4,2.4C286.4,360.3,282.4,358.6,279.5,355.2z M954,456.9
	c-1.7-1.1-2.9-1.7-3.8-1.7c-5,9.8-10.1,18.5-15.2,26.1c-5.1,7.5-11,15.3-17.8,23.2c3.3-19.5,7.4-37,12.3-52.5
	c4.8-15.5,9.9-30.9,15.4-46.2c0.6-1.5,0.9-3.1,0.9-5c0-3.1-1.1-6.1-3.1-8.8c-2.1-2.7-4.6-5-7.4-6.9c-2.8-1.9-5.7-3.4-8.5-4.6
	c-2.8-1.1-5-1.7-6.4-1.7c-2.3,0-4,0.8-5,2.5c-4.8,12.8-8.7,25.9-11.8,39.4c-3,13.5-5.9,25.6-8.6,36.3c-1.1,1.7-3.2,4.6-6.4,8.8
	c-3.2,4.2-6.8,8.5-10.7,12.9c-3.9,4.4-7.6,8.3-11.3,11.6c-3.7,3.4-6.4,5-8.3,5c-1.1,0-1.7-0.8-1.9-2.5c-0.2-1.7-0.3-3.3-0.3-5
	c0-4,0.6-8.8,1.7-14.6c1.1-5.8,2.6-11.8,4.2-18.2c1.7-6.4,3.5-12.8,5.5-19.3c2-6.5,3.9-12.4,5.7-17.7c1.8-5.3,3.3-9.8,4.7-13.4
	c1.4-3.6,2.2-5.8,2.7-6.6c0.4-1.3,0.6-2.2,0.6-2.8c0-2.3-1-4.8-3-7.4c-2-2.6-4.3-5.1-7.1-7.4c-2.7-2.3-5.7-4.2-8.8-5.7
	c-3.1-1.5-5.8-2.2-7.9-2.2c-2.1,0-3.5,0.7-4.1,2.2c-1.3,3.1-2.8,7.7-4.7,13.7c-1.9,6-3.9,12.7-6.1,20.1c-2.2,7.4-4.4,15.4-6.6,24
	c-2.2,8.6-4.2,17.1-6,25.4c-0.4,1.7-0.7,3.4-1,5.1c0,0,0,0.1-0.1,0.1c-2.3,4.3-5,8.8-8,13.5c-3,4.7-6,9-9,12.7
	c-2.9,3.8-5.2,5.7-6.9,5.7c-1.5,0-2.2-1.4-2.2-4.1c0-4.4,1.3-10.6,3.8-18.7c2.5-8.1,5.3-16.2,8.3-24.3c3-8.2,5.8-15.5,8.3-22
	c2.5-6.5,3.8-10.5,3.8-11.9c0-2.5-0.7-5.1-2.2-7.9c-1.5-2.7-3.4-5.3-5.7-7.7c-2.3-2.4-4.9-4.4-7.7-6.1c-2.8-1.7-5.5-2.5-8-2.5
	c-1.1,0-1.9,0.4-2.5,1.1c-0.6,0.7-1.2,1.6-1.6,2.7c-1.3-3.1-2.8-6.3-4.7-9.4c-1.9-3.1-4.2-6.1-7.1-8.8c-2.8-2.7-6.2-4.9-10.1-6.6
	c-3.9-1.7-8.4-2.5-13.7-2.5c-6.3,0-12,2.5-17.3,7.4c-5.2,4.9-9.9,11.2-14.1,18.8c-4.2,7.6-7.9,16.2-11.2,25.8
	c-3.2,9.5-6,18.8-8.2,27.8c-1.7,6.9-3.1,13.4-4.1,19.4c-2.1,3.6-4.3,7.3-6.7,11.2c-2.9,4.7-5.9,9-8.8,12.7c-2.9,3.8-5.2,5.7-6.9,5.7
	c-1.5,0-2.2-2-2.2-6c0-2.3,1-7,3-14.1c2-7.1,4.4-15.5,7.4-25.1c2.9-9.6,6.2-20,9.7-31.1c3.6-11.1,6.8-21.8,9.7-32.2
	c2.9-10.4,5.4-19.8,7.4-28.4c2-8.6,3-15.3,3-20.1c0-3.8-1.2-7.3-3.5-10.7c-2.3-3.3-5.2-6.2-8.8-8.6c-3.6-2.4-7.6-4.3-12.3-5.7
	c-4.6-1.4-9.2-2-13.8-2c-0.4,0-0.9,0.4-1.6,1.1c-0.6,0.7-0.9,1.3-0.9,1.7c0,1.7,0.6,3.7,1.9,6.1c1.3,2.4,1.9,6.3,1.9,11.8
	c0,6.7-0.4,15-1.3,25c-0.8,10-3.1,21-6.9,33.1c-2.7-5.9-6.8-11.3-12.1-16.2c-5.3-4.9-12.6-7.4-21.8-7.4c-6.3,0-12,2.5-17.3,7.4
	c-5.2,4.9-9.9,11.2-14.1,18.8c-4.2,7.6-7.9,16.2-11.2,25.6c-3.2,9.4-6,18.6-8.2,27.6c-1.7,6.9-3.1,13.4-4.1,19.5
	c-2,3.7-4.3,7.5-6.9,11.4c-3,4.7-6,9-9,12.7c-2.9,3.8-5.2,5.7-6.9,5.7c-1.5,0-2.2-1.4-2.2-4.1c0-3.1,0.6-7.3,1.9-12.4
	c1.3-5.1,2.8-10.7,4.7-16.8c1.9-6.1,3.9-12.3,6-18.5c2.1-6.3,4.1-12.1,6-17.4c1.9-5.3,3.5-9.9,4.7-13.7c1.3-3.8,1.9-6.2,1.9-7.2
	c0-2.5-0.8-5.2-2.4-8.2c-1.6-2.9-3.6-5.5-6-7.9c-2.4-2.3-5-4.2-7.9-5.8c-2.8-1.6-5.5-2.4-8-2.4c-2.3,0-5.6,1.6-9.9,4.9
	c-4.3,3.2-8.9,7.1-13.8,11.6c-4.9,4.5-9.7,9.2-14.5,14c-4.7,4.8-8.5,8.8-11.5,11.9c3.6-9,7.1-17.7,10.5-26.2
	c3.5-8.5,6.6-16.3,9.4-23.4c2.8-7.1,5.1-13.5,6.8-19c1.7-5.5,2.5-9.9,2.5-13c0-3.8-1.2-7.3-3.5-10.7c-2.3-3.3-5.2-6.2-8.8-8.6
	c-3.6-2.4-7.6-4.3-12.3-5.7c-4.6-1.4-9.2-2-13.8-2c-0.4,0-0.9,0.4-1.6,1.1c-0.6,0.7-0.9,1.3-0.9,1.7c0,1.5,0.6,3,1.9,4.7
	c1.3,1.7,1.9,4.2,1.9,7.5c-0.4,4.8-1.9,11.7-4.4,20.7c-2.5,9-5.6,19.1-9.3,30.3c-3.7,11.2-7.6,23.1-11.8,35.7
	c-4.2,12.6-8.1,24.8-11.6,36.8c-0.2,0.8-0.5,1.6-0.7,2.5c-0.6,1-1.8,2.8-3.5,5.4c-2.8,4.2-6.2,8.8-10.1,13.8
	c-3.9,5-7.8,9.6-11.6,13.8c-3.9,4.2-6.8,6.3-8.6,6.3c-1.1,0-1.7-0.6-1.9-1.9c-0.2-1.3-0.3-2.8-0.3-4.7c0-4,1-9.5,3-16.7
	c2-7.1,4.6-15,7.7-23.7c3.1-8.7,6.6-17.8,10.4-27.3c3.8-9.5,7.4-18.9,11-28.1c0.6,0.2,1.7,0.3,3.1,0.3c4.2,0,7.8-1.4,10.8-4.2
	c3-2.8,4.6-6.4,4.6-10.8c0-1.3-0.5-1.9-1.6-1.9c-1.3,0-2.5,0.1-3.8,0.2c-1.3,0.1-2.4,0.2-3.5,0.2c-1.7,0-2.9-0.1-3.8-0.3
	c0.4-1.3,1.3-3.8,2.5-7.5c1.3-3.8,2.5-7.7,3.8-11.9c1.3-4.2,2.4-8,3.5-11.5c1-3.5,1.6-5.5,1.6-6.1c0-3.8-1.2-7.3-3.5-10.7
	c-2.3-3.3-5.2-6.2-8.8-8.6c-3.6-2.4-7.6-4.3-12.3-5.7c-4.6-1.4-9.2-2-13.8-2c-0.4,0-0.9,0.4-1.6,1.1c-0.6,0.7-0.9,1.3-0.9,1.7
	c0,1.5,0.6,3,1.9,4.7c1.3,1.7,1.9,4.2,1.9,7.5c0,1.3-0.6,3.8-1.7,7.5c-1.2,3.8-2.4,8-3.8,12.6c-1.4,4.6-2.7,9-4.1,13.2
	c-1.4,4.2-2.3,7.3-2.7,9.4h-5.3c-5,0.2-9.4,2.3-13.2,6.1c-3.8,3.9-5.7,8.1-5.7,12.7c0,1.9,0.4,3.5,1.1,4.7c0.7,1.3,1.6,1.9,2.7,1.9
	c0.6,0,1.3-0.4,2-1.3c0.7-0.8,1.7-1.7,2.8-2.5c1.1-0.8,2.6-1.5,4.2-2c1.7-0.5,3.7-0.5,6,0.2c-3.6,11.3-7.3,22.5-11.2,33.6
	c-3.9,11.1-7.4,21.8-10.5,32c-1,3.2-1.9,6.2-2.7,9.3c-2.2,4-4.7,8.2-7.5,12.5c-3,4.7-6,9-9,12.7c-2.9,3.8-5.2,5.7-6.9,5.7
	c-0.8,0-0.8-1.9,0-5.7c0.8-3.8,2.1-8.6,3.9-14.5c1.8-5.9,3.8-12.4,6.1-19.5c2.3-7.1,4.4-14,6.4-20.7c2-6.7,3.7-12.7,5.2-17.9
	c1.5-5.2,2.2-9,2.2-11.3c0-5.2-1.8-10-5.5-14.3c-3.7-4.3-8.1-8-13.2-11.2c-5.1-3.1-10.5-5.8-16.2-7.9c-5.7-2.1-10.4-3.7-14.1-4.7
	c0.2-1.5,0.3-2.7,0.3-3.8c0-1,0-2,0-2.8c-0.4-4.8-2.1-8.6-5-11.3c-2.9-2.7-6.2-4.8-9.7-6.3c-4-1.7-8.5-2.8-13.5-3.5
	c0.2,2.3,0.3,4.6,0.3,6.8s0,4.5,0,6.8c0,16.8-1.4,32.2-4.2,46.3c-2.8,14.1-6,26.3-9.4,36.6c-3.5,10.3-6.6,18.2-9.4,23.7
	c-2.8,5.6-4.2,8.2-4.2,8c0,0.1,0,0.2,0,0.4c-0.4,0.6-0.7,1.2-1.1,1.8c-3,4.8-6.2,9.1-9.4,12.7c-3.2,3.7-6.4,6.6-9.4,8.8
	c-3,2.2-5.5,3.3-7.4,3.3c-1.5,0-2.2-1.3-2.2-3.8c0-2.9,0.7-7.1,2.2-12.6c1.5-5.4,3.2-11.4,5.3-17.8c2.1-6.4,4.4-12.9,6.9-19.6
	c2.5-6.7,4.8-12.9,6.9-18.5c2.1-5.7,3.9-10.5,5.3-14.5c1.5-4,2.2-6.5,2.2-7.5c0-2.5-0.9-5.1-2.7-7.9c-1.8-2.7-4-5.2-6.8-7.4
	c-2.7-2.2-5.6-4-8.5-5.5c-2.9-1.5-5.6-2.2-7.9-2.2c-2.3,0-3.9,0.7-4.7,2.2c-3.4,9.8-7.1,20.3-11.2,31.3c-4.1,11-7.9,22.2-11.3,33.6
	c-3.5,11.4-6.3,22.7-8.6,33.9c-2.3,11.2-3.5,21.8-3.5,31.9c0,4.6,0.3,9.1,0.8,13.4c0.5,4.3,1.5,8.2,2.8,11.6
	c1.4,3.5,3.1,6.2,5.2,8.3c2.1,2.1,4.7,3.1,7.9,3.1c2.7,0,6.2-1.6,10.4-4.9c4.2-3.2,8.7-7.4,13.5-12.6c4.8-5.1,9.6-10.7,14.5-16.8
	c4.8-6.1,9.3-11.9,13.5-17.6c4.2-5.7,7.7-10.7,10.5-15.2c2.8-4.5,4.6-7.6,5.2-9.3c0,0,0-0.1,0.1-0.1c1.3-2.6,2.9-5.9,4.7-9.8
	c3.1-6.8,6.4-14.5,9.9-22.9c3.5-8.5,6.8-17.2,9.9-26.2c3.1-9,5.7-17.2,7.5-24.5c4.4,3.8,7.8,7.6,10.2,11.5c2.4,3.9,3.6,7.5,3.6,10.8
	c0,8.6-1.1,17.6-3.3,27.2c-2.2,9.5-4.7,18.9-7.4,28.1c-2.7,9.2-5.3,17.8-7.9,25.8c-2.5,8-4.1,14.6-4.7,19.8c-0.6,4.4-0.6,8.8,0,13.2
	c0.6,4.4,1.7,8.3,3.1,11.8c1.5,3.5,3.4,6.2,5.8,8.3c2.4,2.1,5.2,3.1,8.3,3.1c2.7,0,6.1-1.7,10.1-5c4-3.3,8.2-7.6,12.7-12.7
	c4.5-5.1,9-10.8,13.4-17c0.2-0.3,0.4-0.6,0.7-0.9c0.1,3.9,0.4,7.8,1.1,11.6c0.7,4.5,1.9,8.5,3.5,12.1c1.6,3.6,3.6,6.4,6,8.6
	c2.4,2.2,5.2,3.3,8.3,3.3s7-1.8,11.5-5.3c4.5-3.6,9.2-8.1,14.1-13.5c4.9-5.4,9.8-11.4,14.8-17.8c1.1-1.5,2.3-2.9,3.3-4.4
	c-0.2,2.5-0.4,4.9-0.4,7.1c0,9.4,1.5,16.8,4.6,22c3,5.2,7.7,7.9,14,7.9c2.7,0,6.7-0.6,11.9-1.9c5.2-1.3,10.1-4.4,14.5-9.4
	c-1.7-4.4-2.8-9.1-3.3-14.1c-0.5-5-0.8-9.9-0.8-14.8c0-7.5,1.6-15.7,4.9-24.3c3.2-8.7,7.3-17.1,12.1-25.3c4.8-8.2,10.2-15.7,16-22.5
	c5.9-6.8,11.4-12,16.6-15.6c-2.9,8.8-5.6,18.1-8,28c-2.4,9.8-4.5,19.3-6.3,28.3c-1.8,9-3.2,17-4.2,24c-1.1,7-1.6,12.2-1.6,15.6
	c0,4.6,0.3,9.1,0.8,13.4c0.5,4.3,1.5,8.2,2.8,11.6c1.4,3.5,3.1,6.2,5.2,8.3c2.1,2.1,4.7,3.1,7.9,3.1c2.7,0,6-1.7,9.9-5
	c3.9-3.3,8-7.6,12.3-12.7c4.3-5.1,8.6-10.7,13-16.8c2.4-3.3,4.6-6.5,6.8-9.6c0,0.7,0.1,1.4,0.1,2.1c0.4,6.1,1.4,11.7,2.8,16.8
	c1.5,5.1,3.6,9.4,6.4,12.9c2.8,3.5,6.8,5.2,11.8,5.2c5.9,0,12.1-3.6,18.8-10.7c6.7-7.1,13.6-17.2,20.7-30.2
	c-0.2,1.5-0.4,3.2-0.5,5.3c-0.1,2.1-0.2,4.3-0.2,6.6c0,3.8,0.2,7.8,0.6,11.9c0.4,4.2,1.3,8.1,2.5,11.8c1.3,3.7,3,6.6,5.2,9
	c2.2,2.3,5,3.5,8.3,3.5c2.7,0,6.1-1.7,10.1-5c4-3.3,8.2-7.6,12.6-12.7c4.4-5.1,8.8-10.8,13.4-17c2-2.8,3.9-5.5,5.8-8.2
	c0,0.3,0,0.5,0,0.8c0.4,6.1,1.4,11.7,2.8,16.8c1.5,5.1,3.6,9.4,6.4,12.9c2.8,3.5,6.8,5.2,11.8,5.2c6.5,0,12.9-4,19.3-12.1
	c6.4-8.1,13.2-19,20.6-32.8c-0.6,4.8-0.9,9.8-0.9,15.1c0,4.6,0.3,9.2,0.8,13.7c0.5,4.5,1.4,8.5,2.7,11.9c1.3,3.5,3,6.2,5.2,8.3
	c2.2,2.1,4.9,3.1,8,3.1c2.7,0,6.1-1.7,10.1-5c4-3.3,8.2-7.6,12.6-12.7c4.4-5.1,8.8-10.8,13.2-17c1.5-2.2,3-4.3,4.5-6.4
	c0.1,3.6,0.5,7.2,1.2,10.6c0.8,4.4,2.1,8.3,3.8,11.6c1.7,3.4,3.9,6,6.6,8c2.7,2,5.9,3,9.4,3c2.3,0,5.1-1,8.5-3.1
	c3.3-2.1,6.9-4.8,10.7-8.2c3.8-3.3,7.7-7.2,11.8-11.5c4.1-4.3,8-8.6,11.8-13l-6.9,29.5c-6.1,3.4-12.3,7.1-18.7,11.2
	c-6.4,4.1-12.2,8.7-17.4,14c-5.2,5.2-9.5,11.1-12.9,17.6c-3.4,6.5-5,13.6-5,21.4c0,5,0.8,9.7,2.4,14.1c1.6,4.4,3.9,8.2,6.9,11.5
	c3,3.2,6.6,5.9,10.8,7.9c4.2,2,8.9,3,14.1,3c3.3,0,7.3-1.7,11.9-5.2c4.6-3.5,9.2-8.1,13.7-14c4.5-5.9,8.6-12.7,12.3-20.4
	c3.7-7.8,6.4-16,8.3-24.8c1.3-5.9,2.7-11.7,4.4-17.4c1.7-5.8,2.9-10.7,3.8-14.9c3.8-3.3,8.2-7.9,13.2-13.5c5-5.7,10-11.6,14.9-17.9
	c4.9-6.3,9.4-12.6,13.4-18.8c4-6.3,6.9-11.6,8.8-16c0.6-1.3,0.5-2.7-0.3-4.4c-0.8-1.7-2-3.3-3.5-5
	C957.2,459.5,955.7,458.1,954,456.9z M663.4,430.2c-1.9,5.8-3.7,11.5-5.3,17.1c-1.9,3.8-4,8-6.3,12.7c-2.3,4.7-4.7,9.2-7.1,13.5
	c-2.4,4.3-4.8,7.9-7.2,10.7c-2.4,2.8-4.6,4.2-6.4,4.2c-1.5,0-2.6-1-3.3-3c-0.7-2-1.3-4.2-1.7-6.8c-0.4-2.5-0.7-4.9-0.8-7.2
	c-0.1-2.3-0.2-3.9-0.2-4.7c0-9.4,1.1-19,3.3-28.6c2.2-9.6,4.7-18.3,7.5-26.1c2.8-7.7,5.7-14,8.5-18.8c2.8-4.8,4.8-7.2,5.8-7.2
	c1.7,0,3.6,1.4,5.8,4.1c2.2,2.7,4.2,5.8,6.1,9.1c1.9,3.4,3.5,6.4,4.9,9.1c1.4,2.7,2,4.2,2,4.4C667.2,418.7,665.3,424.5,663.4,430.2z
	 M780.3,432c-2.3,7.8-4.5,15.6-6.6,23.6c-2.1,4.2-4.2,8.3-6.3,12.3c-2.1,4-4.2,7.5-6.3,10.7c-2.1,3.1-4.1,5.7-6.1,7.5
	c-2,1.9-3.7,2.8-5.2,2.8c-1.5,0-2.6-1-3.5-3c-0.8-2-1.5-4.3-1.9-7.1c-0.4-2.7-0.7-5.3-0.8-7.7c-0.1-2.4-0.2-4.1-0.2-5.2
	c0-9.2,1-18.4,3-27.6c2-9.2,4.3-17.5,7.1-24.8c2.7-7.3,5.5-13.2,8.3-17.8c2.8-4.5,5.1-6.8,6.8-6.8c1.5,0,3,0.7,4.6,2.2
	c1.6,1.5,3.2,3.3,4.9,5.5c1.7,2.2,3.2,4.6,4.7,7.2c1.5,2.6,2.7,5.1,3.8,7.4C784.7,417.3,782.6,424.2,780.3,432z M870.3,570
	c-1.2,4.5-2.6,9-4.4,13.4c-1.8,4.4-4,8.2-6.6,11.5c-2.6,3.2-5.6,4.9-9,4.9c-2.3,0-4.3-0.7-6.1-2.2c-1.8-1.5-2.7-3.6-2.7-6.3
	c0-3.4,1-6.5,3-9.6c2-3,4.4-5.9,7.4-8.5c2.9-2.6,6.2-5.1,9.9-7.4c3.7-2.3,7.3-4.4,10.8-6.3C872.2,562,871.4,565.5,870.3,570z
	 M237.3,88.5c-1.5-2.2-2.2-4.9-2.2-8.2c0-3.6,1.7-7.8,5-12.5c3.4-4.7,7.8-9.5,13.2-14.5c5.5-4.9,11.8-9.7,19-14.3
	c7.2-4.6,14.6-8.8,22.2-12.4c7.6-3.6,15.3-6.5,22.9-8.7c7.6-2.2,14.6-3.3,21-3.3c8.2,0,14.9,2.1,20.2,6.3c5.3,4.2,7.9,11.5,7.9,21.8
	c0,9.6-1.5,21-4.5,34c-3,13-6.3,26.6-10,40.8c10.9,0.7,21.1,2,30.6,3.8c2.4-8.2,4.8-16.4,7.2-24.7c2.5-8.3,4.6-16.4,6.5-24.3
	c1.9-7.9,3.5-15.5,4.6-22.9c1.2-7.4,1.8-14.2,1.8-20.6c0-2.9-0.5-5.1-1.6-6.5c-1.1-1.5-1.6-2.8-1.6-4.1c0-0.4,0.3-0.9,0.8-1.5
	c0.5-0.6,1-1,1.4-1c4,0,8,0.6,12.1,1.9c4.1,1.3,7.8,3.1,11,5.6c3.3,2.5,5.9,5.4,7.9,8.9c2,3.5,3,7.4,3,11.7c0,6.5-1,14.6-2.9,24
	c-1.9,9.5-4.3,19.8-7.2,31c-2.9,11.2-6,22.8-9.4,34.9c-3.4,12.1-6.5,24-9.4,35.6c-2.9,11.6-5.3,22.7-7.2,33.3
	c-1.9,10.5-2.9,19.7-2.9,27.6c0,3.1,0.1,6.1,0.4,9c0.3,2.9,0.8,5.8,1.5,8.7c-2,2.2-4.2,4.3-6.5,6.4c-2.4,2.1-4.7,3.9-7.1,5.5
	c-2.4,1.5-4.6,2.8-6.7,3.7c-2.1,0.9-3.8,1.4-5,1.4c-5.5,0-9.5-2.7-12.1-8.2c-2.6-5.5-4-13.1-4-22.9c0-2,0.3-5.2,1-9.5
	c0.6-4.4,1.5-9.5,2.6-15.3c1.1-5.8,2.4-12,3.8-18.5c1.5-6.5,2.9-13,4.4-19.5c1.5-6.5,2.9-12.5,4.4-18c1.5-5.5,2.7-10.2,3.8-14
	c-4.4,0-9.2,0.1-14.5,0.4c-5.3,0.3-10.7,0.7-16.4,1.2c-1.6,6.4-3.4,13.3-5.3,20.7c-1.9,7.5-3.8,14.9-5.6,22.2
	c-1.8,7.4-3.3,14.4-4.5,21.1c-1.2,6.7-1.8,12.5-1.8,17.5c0,4,0.3,7.7,0.8,11.2c-3.1,2.9-6.5,4.9-10.2,6c-3.7,1.1-6.9,1.6-9.4,1.6
	c-5.3,0-10-2.7-14-8.2c-4.1-5.5-6.1-12.5-6.1-21c0-2.9,0.5-6.9,1.6-11.9c1.1-5,2.5-10.4,4.1-16.2c1.6-5.8,3.4-11.8,5.3-17.9
	c1.9-6.1,3.7-11.8,5.3-17c-6,2-11.4,4.3-16.1,6.8c-4.7,2.5-8.5,5.5-11.5,8.7c-1.5,1.6-3,2.5-4.6,2.5c-1.6,0-2.8-0.5-3.5-1.6
	c-0.7-1.1-1.1-1.8-1.1-2.2c0-1.3,0.4-3.6,1.1-7.1c0.7-3.5,1.9-7.2,3.4-11.2c1.5-4,3.6-7.9,6.3-11.7c2.6-3.8,5.9-6.7,9.7-8.7
	c3.3-1.8,7.1-3.2,11.6-4.2c4.5-1,9.2-1.8,14.3-2.3c4.5-14.2,8.7-28.1,12.5-41.9c3.8-13.7,6.4-26,7.6-36.7c-4.9,0-10.1,1.2-15.5,3.7
	s-10.9,5.6-16.2,9.5c-5.4,3.9-10.5,8.2-15.4,12.8c-4.9,4.6-9.2,9.1-13,13.5c-3.7,4.4-6.7,8.3-9,11.7c-2.3,3.5-3.4,5.9-3.4,7.4
	c0,2,0.6,3.4,1.8,4.2c1.2,0.8,2.5,1.5,4.1,1.9c1.5,0.5,3,0.8,4.2,1c1.3,0.2,2,0.6,2.2,1.4c0,0.4-0.5,0.9-1.5,1.5
	c-1,0.6-2.3,1.3-3.8,2c-1.5,0.7-3.4,1.4-5.5,1.9c-2.1,0.5-4.2,0.8-6.4,0.8c-1.5,0-2.3-0.4-2.5-1.1c-2.2-3.8-4.5-7-7-9.5
	c-2.5-2.5-4.7-4.8-6.8-6.8C240.5,92.8,238.7,90.7,237.3,88.5z M427.8,141.4c-1.9,7.8-3.4,15-4.4,21.5c-1,6.5-1.5,11.6-1.5,15
	c0,4.5,0.2,9.5,0.5,14.7c0.4,5.3,1.2,10.1,2.5,14.6c1.3,4.5,3.1,8.2,5.6,11.2c2.5,3,5.9,4.5,10.2,4.5c5.6,0,11.2-3.5,16.8-10.5
	c5.5-7,11.5-16.5,17.9-28.5c-0.5,4.2-0.8,8.6-0.8,13.1c0,4,0.2,8,0.7,11.9c0.5,3.9,1.2,7.4,2.3,10.4c1.1,3,2.6,5.4,4.5,7.2
	c1.9,1.8,4.2,2.7,7,2.7c2.4,0,5.3-1.5,8.7-4.4c3.5-2.9,7.1-6.6,10.9-11c2.4-2.8,4.8-5.8,7.2-8.9c-1.9,7.6-3.7,14.9-5.3,22
	c-2.4,10.5-4.3,20.1-5.7,28.9c-1.5,8.8-2.2,16.3-2.2,22.5c0,8.2,1.3,14.5,4,19.1c2.6,4.5,6.7,6.8,12.1,6.8c2.4,0,5.8-0.5,10.4-1.6
	c4.5-1.1,8.7-3.8,12.5-8.2c-1.5-3.8-2.4-7.9-2.9-12.3c-0.5-4.4-0.7-8.6-0.7-12.8c0-1.8,0-4.1,0.1-7c0.1-2.8,0.4-6.5,1-11.2
	c0.5-4.6,1.4-10.5,2.6-17.6c1.2-7.1,2.9-15.7,5-25.9c3.6,5.6,7.5,9.5,11.6,11.6c4.1,2.1,8.5,3.1,13.2,3.1c5.3,0,10.3-2.1,15-6.4
	c4.7-4.3,9.1-9.9,13.1-16.9c4-7,7.6-14.8,10.8-23.5c3.2-8.6,5.9-17.4,8-26.2c2.2-8.8,3.9-17.2,5-25.2c1.2-8,1.8-14.8,1.8-20.5
	c0-4.2-0.3-8.2-0.8-12c-0.5-3.8-1.5-7.2-2.7-10.2c-1.3-3-3-5.4-5.2-7.2c-2.2-1.8-4.9-2.7-8.2-2.7c-2.5,0-5.3,1-8.2,2.9
	c-2.9,1.9-5.9,4.5-8.9,7.9c-3,3.4-6.1,7.3-9.3,11.9c-3.2,4.5-6.4,9.5-9.7,15c-0.5-2.5-1.8-4.9-3.7-7.1c-1.9-2.2-4.1-4.1-6.4-5.7
	c-2.4-1.6-4.7-2.9-7.1-3.8c-2.4-0.9-4.4-1.4-6-1.4c-1.5,0-2.4,0.5-2.7,1.4c-2.7,10-5.7,20.7-8.9,32.1c-2.7,9.7-5.4,19.5-8.2,29.4
	c-0.4,0.7-0.8,1.4-1.2,2.2c-2,3.7-4.3,7.6-7,11.7c-2.6,4.1-5.2,7.8-7.8,11c-2.5,3.3-4.5,4.9-6,4.9c-1.3,0-1.9-1.2-1.9-3.5
	c0-3.8,1.1-9.2,3.3-16.2c2.2-7,4.6-14,7.2-21.1c2.6-7.1,5-13.5,7.2-19.1c2.2-5.6,3.3-9.1,3.3-10.4c0-2.2-0.6-4.5-1.9-6.8
	c-1.3-2.4-2.9-4.6-4.9-6.7c-2-2.1-4.2-3.9-6.7-5.3c-2.5-1.5-4.8-2.2-7-2.2c-0.9,0-1.6,0.3-2.2,1c-0.5,0.6-1,1.4-1.4,2.3
	c-1.1-2.7-2.5-5.5-4.1-8.2c-1.6-2.7-3.7-5.3-6.1-7.6c-2.5-2.4-5.4-4.3-8.7-5.7c-3.4-1.5-7.3-2.2-11.9-2.2c-5.5,0-10.5,2.1-15,6.4
	c-4.5,4.3-8.6,9.7-12.3,16.4c-3.6,6.6-6.9,14.1-9.7,22.4C432.1,125.6,429.7,133.6,427.8,141.4z M554.9,175.1c1.2-4.1,2.3-8,3.4-11.7
	c1.1-3.7,2.1-7,3.1-10c1-2.9,1.7-4.9,2-6c2.4-4,5-8.2,7.8-12.5c2.8-4.4,5.5-8.4,8.2-12c2.6-3.6,5-6.6,7.2-9c2.2-2.4,3.9-3.5,5.2-3.5
	c1.1,0,1.7,1.2,1.9,3.5c0,8.4-1.1,17.2-3.4,26.6c-2.3,9.4-5.2,18-8.7,25.8c-3.5,7.8-7.4,14.3-11.6,19.4c-4.2,5.1-8.2,7.6-12,7.6
	c-2.9,0-5-2.1-6.3-6.3C552.7,183.2,553.7,179.2,554.9,175.1z M459.5,134.6c1.7-8,3.8-15.2,6.1-21.5c2.4-6.4,4.8-11.5,7.2-15.4
	c2.5-3.9,4.4-5.9,5.9-5.9c1.3,0,2.6,0.6,4,1.9c1.4,1.3,2.8,2.9,4.2,4.8c1.5,1.9,2.8,4,4.1,6.3c1.3,2.3,2.4,4.4,3.3,6.4
	c-1.6,5.3-3.5,11.3-5.5,18c-2,6.7-3.9,13.5-5.7,20.5c-1.8,3.6-3.6,7.2-5.5,10.6c-1.8,3.5-3.6,6.5-5.5,9.3c-1.8,2.7-3.6,4.9-5.3,6.5
	c-1.7,1.6-3.2,2.5-4.5,2.5c-1.3,0-2.3-0.9-3-2.6c-0.7-1.7-1.3-3.8-1.6-6.1c-0.4-2.4-0.6-4.6-0.7-6.7c-0.1-2.1-0.1-3.6-0.1-4.5
	C456.9,150.6,457.7,142.6,459.5,134.6z M641.8,251.2c0.5-4.6,1.4-10.5,2.6-17.6c1.2-7.1,2.9-15.7,5-25.9c3.6,5.6,7.5,9.5,11.6,11.6
	c4.1,2.1,8.5,3.1,13.2,3.1c5.3,0,10.3-2.1,15-6.4c4.7-4.3,9.1-9.9,13.1-16.9c4-7,7.6-14.8,10.8-23.5c3.2-8.6,5.9-17.4,8-26.2
	c2.2-8.8,3.9-17.2,5-25.2c1.2-8,1.8-14.8,1.8-20.5c0-4.2-0.3-8.2-0.8-12c-0.5-3.8-1.5-7.2-2.7-10.2c-1.3-3-3-5.4-5.2-7.2
	c-2.2-1.8-4.9-2.7-8.2-2.7c-2.5,0-5.3,1-8.2,2.9c-2.9,1.9-5.9,4.5-8.9,7.9c-3,3.4-6.1,7.3-9.3,11.9c-3.2,4.5-6.4,9.5-9.7,15
	c-0.5-2.5-1.8-4.9-3.7-7.1c-1.9-2.2-4-4.1-6.4-5.7c-2.4-1.6-4.7-2.9-7.1-3.8c-2.4-0.9-4.4-1.4-6-1.4c-1.5,0-2.4,0.5-2.7,1.4
	c-2.7,10-5.7,20.7-8.9,32.1c-3.2,11.4-6.4,22.9-9.7,34.6s-6.4,23.3-9.4,34.8c-3,11.5-5.7,22.4-8,32.9c-2.4,10.5-4.3,20.1-5.7,28.9
	c-1.5,8.8-2.2,16.3-2.2,22.5c0,8.2,1.3,14.5,4,19.1c2.6,4.5,6.7,6.8,12.1,6.8c2.4,0,5.8-0.5,10.4-1.6c4.5-1.1,8.7-3.8,12.5-8.2
	c-1.5-3.8-2.4-7.9-2.9-12.3c-0.5-4.4-0.7-8.6-0.7-12.8c0-1.8,0-4.1,0.1-7C640.9,259.6,641.3,255.9,641.8,251.2z M657.5,175.1
	c1.2-4.1,2.3-8,3.4-11.7c1.1-3.7,2.1-7,3.1-10c1-2.9,1.7-4.9,2-6c2.4-4,5-8.2,7.8-12.5c2.8-4.4,5.5-8.4,8.2-12c2.6-3.6,5-6.6,7.2-9
	c2.2-2.4,3.9-3.5,5.2-3.5c1.1,0,1.7,1.2,1.9,3.5c0,8.4-1.1,17.2-3.4,26.6c-2.3,9.4-5.2,18-8.7,25.8c-3.5,7.8-7.4,14.3-11.6,19.4
	c-4.2,5.1-8.2,7.6-12,7.6c-2.9,0-5-2.1-6.3-6.3C655.3,183.2,656.3,179.2,657.5,175.1z M764.8,149.2c1.5-5.5,3-11.1,4.8-16.8
	c1.7-5.6,3.4-10.8,4.9-15.4c1.5-4.6,2.9-8.5,4.1-11.6c1.2-3.1,2-5,2.3-5.7c0.4-1.1,0.5-1.9,0.5-2.5c0-2-0.9-4.1-2.6-6.4
	c-1.7-2.3-3.8-4.4-6.1-6.4c-2.4-2-4.9-3.6-7.6-4.9c-2.7-1.3-5-1.9-6.8-1.9c-1.8,0-3,0.6-3.5,1.9c-1.1,2.7-2.5,6.7-4.1,11.9
	c-1.6,5.2-3.4,11-5.3,17.5c-1.9,6.5-3.8,13.4-5.7,20.9c-1.9,7.5-3.6,14.8-5.2,22.1c-1.5,7.3-2.8,14.3-3.8,21.1
	c-1,6.8-1.5,12.9-1.5,18.1c0,4,0.4,7.9,1.1,11.7c0.7,3.8,1.8,7.2,3.3,10.1c1.5,2.9,3.4,5.2,5.7,7c2.4,1.7,5.1,2.6,8.2,2.6
	c2,0,4.5-0.9,7.4-2.7c2.9-1.8,6-4.2,9.3-7.1c3.3-2.9,6.7-6.2,10.2-10c3.5-3.7,7-7.5,10.2-11.3l-6,25.6c-5.3,2.9-10.7,6.1-16.2,9.7
	c-5.5,3.5-10.6,7.6-15.1,12.1c-4.5,4.5-8.3,9.6-11.2,15.3c-2.9,5.6-4.4,11.8-4.4,18.5c0,4.4,0.7,8.5,2,12.3c1.4,3.8,3.4,7.1,6,10
	c2.6,2.8,5.8,5.1,9.4,6.8c3.6,1.7,7.7,2.6,12.3,2.6c2.9,0,6.4-1.5,10.4-4.5c4-3,8-7,11.9-12.1c3.9-5.1,7.5-11,10.6-17.7
	c3.2-6.7,5.6-13.9,7.2-21.5c1.1-5.1,2.4-10.1,3.8-15.1c1.5-5,2.5-9.3,3.3-13c3.3-2.9,7.1-6.8,11.5-11.7c4.4-4.9,8.7-10.1,13-15.5
	c4.3-5.5,8.1-10.9,11.6-16.4c3.5-5.5,6-10.1,7.6-13.9c0.5-1.1,0.5-2.4-0.3-3.8c-0.7-1.5-1.7-2.9-3-4.4c-1.3-1.5-2.6-2.7-4.1-3.7
	c-1.5-1-2.5-1.5-3.3-1.5c-4.4,8.6-8.8,16.1-13.2,22.6c-4.5,6.5-9.6,13.3-15.4,20.2c2.9-16.9,6.5-32.1,10.6-45.6
	c4.2-13.5,8.6-26.8,13.4-40.1c0.5-1.3,0.8-2.7,0.8-4.4c0-2.7-0.9-5.3-2.7-7.6c-1.8-2.4-4-4.4-6.4-6c-2.5-1.6-4.9-3-7.4-4
	c-2.5-1-4.3-1.5-5.6-1.5c-2,0-3.5,0.7-4.4,2.2c-4.2,11.1-7.6,22.5-10.2,34.2c-2.6,11.7-5.1,22.2-7.5,31.5c-0.9,1.5-2.8,4-5.6,7.6
	c-2.8,3.6-5.9,7.4-9.3,11.2c-3.4,3.8-6.6,7.2-9.8,10.1c-3.2,2.9-5.6,4.4-7.2,4.4c-0.9,0-1.5-0.7-1.6-2.2c-0.2-1.5-0.3-2.9-0.3-4.4
	c0-3.5,0.5-7.7,1.5-12.7C762.1,160,763.4,154.8,764.8,149.2z M772.1,249c-1,3.9-2.3,7.8-3.8,11.6c-1.5,3.8-3.5,7.1-5.7,10
	c-2.3,2.8-4.9,4.2-7.8,4.2c-2,0-3.8-0.6-5.3-1.9c-1.5-1.3-2.3-3.1-2.3-5.5c0-2.9,0.9-5.7,2.6-8.3c1.7-2.6,3.9-5.1,6.4-7.4
	c2.5-2.3,5.4-4.4,8.6-6.4c3.2-2,6.3-3.8,9.4-5.5C773.7,242.1,773.1,245.1,772.1,249z M188.4,84.4c1-3.3,1.6-6.8,2.6-10.1
	c1.5-5.1,3.3-10.6,6.6-14.9c2.5-3.2,6-6,10.3-4.8c4.5,1.2,10.1,6.6,8.9,11.6c-1.2,5.1-7.3,7-11.5,9c-2.4,1.1-4.7,2.7-6.5,4.6
	c-2.1,2.2-2.9,4.8-3,7.8c0,3.6-5.6,3.6-5.6,0.1C188.9,87.3,187.8,86.1,188.4,84.4z M119.9,100.7c-0.3-5.3,3.2-9.8,8.3-11.3
	c3.5-1,7.5-0.8,10.4,1.5c0.4,0.1,0.7,0.2,1.1,0.3c3.4,1.1,2,6.3-1.4,5.4c-0.7,0.2-1.4,0-1.9-0.3c-0.5,0-1,0.2-1.5,0.5
	c-1.1,0.7-2,1.6-3.2,2.6c-2.5,2.3-5.3,4.3-8.9,4.1C121.1,103.4,119.9,102.3,119.9,100.7z M168.8,109.6c0.5,1.2,0.1,2.9-1.2,3.5
	c0,0-0.1,0-0.1,0c-0.2,0.1-0.4,0.2-0.6,0.3c-3.5,1.5-6.7,3.6-9,6.8c-2.1,3-3.3,6.2-4.6,9.6c-1.7,4.4-4.5,11.2-9.8,11.9
	c-3.3,0.5-6-1.3-8.1-3.8c-2.3-2.9-3.2-5.9-2.6-9.5c0.6-3.2,2.1-6.3,3.9-9.1c1.7-2.6,3.7-5.2,6.2-7.1c7-5.6,15.6-6.4,24-4.2
	C167.9,108.2,168.5,108.9,168.8,109.6z M168.7,50.8c-1-3.3-1.5-6.8-1.5-10.2c0-4,0.6-9.4,4.3-11.7c4.1-2.5,10.2,0.6,11.7,4.9
	c1.5,4.3-2.1,8.4-4.5,11.6c-0.7,0.9-1.3,1.8-1.9,2.8c-0.2,0.4-0.5,0.8-0.7,1.3c0,0.1-0.2,0.5-0.2,0.4c0,0.1-0.1,0.2-0.1,0.4
	c0,0.1-0.1,0.7-0.1,0.6c0,0.1,0,0.2,0,0.3c0,0,0,0.1,0,0.1c0,0.1,0.1,0.2,0.1,0.3c0,0.1,0.1,0.3,0.2,0.3c0,0.1,0.1,0.1,0.1,0.2
	c0,0,0,0,0,0c0.4,0.4,0.7,0.7,0.9,0.8c1.2,0.9,1.8,2.4,1,3.8c-0.1,0.2-0.2,0.3-0.3,0.4c-0.1,0.5-0.4,1-0.7,1.4c-1.2,1.2-2.8,1-4,0
	C170.7,56.7,169.5,53.5,168.7,50.8z M137.1,70.9c0.1-4.3,3.3-9.1,6.9-11.3c8.7-5.4,18.3,3.7,23.4,10.1c3.3,4.2,6.2,8.7,8.4,13.5
	c1.7,3.6,3.4,7.8,3.3,11.9c-0.2,3.6-5.8,3.6-5.6,0c0-0.1,0-0.1,0-0.2c-0.7-0.4-1.2-1.2-1.2-2.3c0-0.3,0-0.6,0-0.9c0,0,0-0.1,0-0.1
	c0,0,0,0,0,0c-0.1-0.5-0.2-1-0.4-1.4c0-0.1,0-0.1,0-0.1c0,0,0-0.1-0.1-0.2c-0.1-0.2-0.2-0.4-0.3-0.5c-0.1-0.2-0.3-0.5-0.4-0.7
	c0,0,0,0-0.1-0.1c-0.3-0.4-0.6-0.7-1-1c-0.1-0.1-0.5-0.4-0.5-0.4c-0.1-0.1-0.2-0.1-0.3-0.2c-0.8-0.5-1.7-1-2.5-1.5
	c-0.2-0.1-0.5-0.2-0.7-0.3c-0.1-0.1-0.3-0.1-0.3-0.1c-0.5-0.2-0.9-0.4-1.4-0.5c-1-0.3-1.9-0.6-2.9-0.9c-2.1-0.6-4.2-1.1-6.4-1.6
	c-4-0.9-8-1.7-11.8-3.4C139.8,77.2,136.9,74.5,137.1,70.9z M848.6,83.7c2.9-2.3,5.9-3.2,9.5-2.6c3.2,0.6,6.3,2.1,9.1,3.9
	c2.6,1.7,5.2,3.7,7.1,6.2c5.6,7,6.4,15.6,4.2,24c-0.3,1-0.9,1.6-1.6,1.8c-1.2,0.5-2.9,0.1-3.5-1.2c0,0,0-0.1,0-0.1
	c-0.1-0.2-0.2-0.4-0.3-0.6c-1.5-3.5-3.6-6.7-6.8-9c-3-2.1-6.2-3.3-9.6-4.6c-4.4-1.7-11.2-4.5-11.9-9.8
	C844.3,88.4,846.1,85.7,848.6,83.7z M887,79.8c-2.3-2.5-4.3-5.3-4.1-8.9c0.1-1.6,1.2-2.7,2.8-2.8c5.3-0.3,9.8,3.2,11.3,8.3
	c1,3.5,0.8,7.5-1.5,10.4c-0.1,0.4-0.2,0.7-0.3,1.1c-1.1,3.4-6.3,2-5.4-1.4c-0.2-0.7,0-1.4,0.3-1.9c0-0.5-0.2-1-0.5-1.5
	C889,81.8,888.1,81,887,79.8z M897.1,119.5c0.2-0.1,0.5-0.3,0.7-0.4c0,0,0,0,0.1-0.1c0.4-0.3,0.7-0.6,1-1c0.1-0.1,0.4-0.5,0.4-0.5
	c0.1-0.1,0.1-0.2,0.2-0.3c0.5-0.8,1-1.7,1.5-2.5c0.1-0.2,0.2-0.5,0.3-0.7c0.1-0.1,0.1-0.3,0.1-0.3c0.2-0.5,0.4-0.9,0.5-1.4
	c0.3-1,0.6-1.9,0.9-2.9c0.6-2.1,1.1-4.2,1.6-6.4c0.9-4,1.7-8,3.4-11.8c1.4-3.1,4.1-5.9,7.7-5.8c4.3,0.1,9.1,3.3,11.3,6.9
	c5.4,8.7-3.7,18.3-10.1,23.4c-4.2,3.3-8.7,6.2-13.5,8.4c-3.6,1.7-7.8,3.4-11.9,3.3c-3.6-0.2-3.6-5.8,0-5.6c0.1,0,0.1,0,0.2,0
	c0.4-0.7,1.2-1.2,2.3-1.2c0.3,0,0.6,0,0.9,0c0,0,0.1,0,0.1,0c0,0,0,0,0,0c0.5-0.1,1-0.2,1.4-0.4c0.1,0,0.1,0,0.1,0
	c0,0,0.1,0,0.2-0.1C896.7,119.7,896.9,119.6,897.1,119.5z M898.7,138.4c0.4-1.3,1.6-2.3,3.3-1.8c3.3,1,6.8,1.6,10.1,2.6
	c5.1,1.5,10.6,3.3,14.9,6.6c3.2,2.5,6,6,4.8,10.3c-1.2,4.5-6.6,10.1-11.6,8.9c-5.1-1.2-7-7.3-9-11.5c-1.1-2.4-2.7-4.7-4.6-6.5
	c-2.2-2.1-4.8-2.9-7.8-3C895.2,143.9,895.2,138.4,898.7,138.4z M927.9,121.1c1.9-2.3,5-3.5,7.7-4.3c3.3-1,6.8-1.5,10.2-1.5
	c4,0,9.4,0.6,11.7,4.3c2.5,4.1-0.6,10.2-4.9,11.7c-4.3,1.5-8.4-2.1-11.6-4.5c-0.9-0.7-1.8-1.3-2.8-1.9c-0.4-0.2-0.8-0.5-1.3-0.7
	c-0.1,0-0.5-0.2-0.4-0.2c-0.1,0-0.2-0.1-0.4-0.1c-0.1,0-0.7-0.1-0.6-0.1c-0.1,0-0.2,0-0.3,0c0,0-0.1,0-0.1,0c-0.1,0-0.2,0.1-0.3,0.1
	c-0.1,0-0.3,0.1-0.3,0.2c-0.1,0-0.1,0.1-0.2,0.1c0,0,0,0,0,0c-0.4,0.4-0.7,0.7-0.8,0.9c-0.9,1.2-2.4,1.8-3.8,1
	c-0.2-0.1-0.3-0.2-0.4-0.3c-0.5-0.1-1-0.4-1.4-0.7C926.8,124,926.9,122.3,927.9,121.1z M963.2,1192.1c0,0-16.1-29.9-67-32.6
	c22.6-2.6,54.2-11.6,62.8-41.3c0,0-32.6-9.7-70.4,24.3c14.2-17.8,30.1-46.5,15.2-73.6c0,0-29.9,16.1-32.6,67
	c-2.6-22.6-11.6-54.2-41.3-62.8c0,0-9.7,32.6,24.3,70.4c-17.8-14.2-46.5-30.1-73.6-15.2c0,0,16.1,29.9,67,32.6
	c-22.6,2.6-54.2,11.6-62.8,41.3c0,0,32.6,9.7,70.4-24.3c-14.2,17.8-30.1,46.5-15.2,73.6c0,0,29.9-16.1,32.6-67
	c2.6,22.6,11.6,54.2,41.3,62.8c0,0,9.7-32.6-24.3-70.4C907.5,1191.2,936.1,1207.1,963.2,1192.1z M882.4,1170.1
	c20.2,22.4,14.4,41.7,14.4,41.7c-17.6-5.1-22.9-23.7-24.5-37.1c-1.6,30.1-19.3,39.6-19.3,39.6c-8.8-16.1,0.6-33,9-43.5
	c-22.4,20.2-41.7,14.4-41.7,14.4c5.1-17.6,23.7-22.9,37.1-24.5c-30.1-1.6-39.6-19.3-39.6-19.3c16.1-8.8,33,0.6,43.6,9
	c-20.2-22.4-14.4-41.7-14.4-41.7c17.6,5.1,22.9,23.8,24.4,37.2c1.6-30.1,19.3-39.6,19.3-39.6c8.8,16.1-0.6,33-9,43.6
	c22.4-20.2,41.7-14.4,41.7-14.4c-5.1,17.6-23.8,22.9-37.2,24.4c30.1,1.6,39.6,19.3,39.6,19.3C909.9,1188,892.9,1178.5,882.4,1170.1z
	 M896.3,1168.8c-7.2,4-14.9-0.3-19.7-4c9.1,10.1,6.5,18.8,6.5,18.8c-7.9-2.3-10.4-10.7-11-16.8c-0.7,13.6-8.7,17.9-8.7,17.9
	c-4-7.2,0.3-14.9,4-19.7c-10.1,9.1-18.8,6.5-18.8,6.5c2.3-7.9,10.7-10.4,16.8-11c-13.6-0.7-17.9-8.7-17.9-8.7
	c7.2-4,14.9,0.3,19.7,4.1c-9.1-10.1-6.5-18.8-6.5-18.8c7.9,2.3,10.4,10.7,11,16.8c0.7-13.6,8.7-17.9,8.7-17.9
	c4,7.2-0.3,14.9-4.1,19.7c10.1-9.1,18.8-6.5,18.8-6.5c-2.3,7.9-10.7,10.4-16.8,11C892,1160.8,896.3,1168.8,896.3,1168.8z
	 M234.4,1157.6c22.6-2.6,54.2-11.6,62.8-41.3c0,0-32.6-9.7-70.4,24.3c14.2-17.8,30.1-46.5,15.2-73.6c0,0-29.9,16.1-32.6,67
	c-2.6-22.6-11.6-54.2-41.3-62.8c0,0-9.7,32.6,24.3,70.4c-17.8-14.2-46.5-30.1-73.6-15.2c0,0,16.1,29.9,67,32.6
	c-22.6,2.6-54.2,11.6-62.8,41.3c0,0,32.6,9.7,70.4-24.3c-14.2,17.8-30.1,46.5-15.2,73.6c0,0,29.9-16.1,32.6-67
	c2.6,22.6,11.6,54.2,41.3,62.8c0,0,9.7-32.6-24.3-70.4c17.8,14.2,46.5,30.1,73.6,15.2C301.4,1190.1,285.3,1160.2,234.4,1157.6z
	 M220.6,1168.2c20.2,22.4,14.4,41.7,14.4,41.7c-17.6-5.1-22.9-23.7-24.5-37.1c-1.6,30.1-19.3,39.6-19.3,39.6
	c-8.8-16.1,0.6-33,9-43.5c-22.4,20.2-41.7,14.4-41.7,14.4c5.1-17.6,23.7-22.9,37.1-24.5c-30.1-1.6-39.6-19.3-39.6-19.3
	c16.1-8.8,33,0.6,43.6,9c-20.2-22.4-14.4-41.7-14.4-41.7c17.6,5.1,22.9,23.8,24.4,37.2c1.6-30.1,19.3-39.6,19.3-39.6
	c8.8,16.1-0.6,33-9,43.6c22.4-20.2,41.7-14.4,41.7-14.4c-5.1,17.6-23.8,22.9-37.2,24.4c30.1,1.6,39.6,19.3,39.6,19.3
	C248.1,1186,231.1,1176.6,220.6,1168.2z M234.5,1166.8c-7.2,4-14.9-0.3-19.7-4c9.1,10.1,6.5,18.8,6.5,18.8
	c-7.9-2.3-10.4-10.7-11-16.8c-0.7,13.6-8.7,17.9-8.7,17.9c-4-7.2,0.3-14.9,4-19.7c-10.1,9.1-18.8,6.5-18.8,6.5
	c2.3-7.9,10.7-10.4,16.8-11c-13.6-0.7-17.9-8.7-17.9-8.7c7.2-4,14.9,0.3,19.7,4.1c-9.1-10.1-6.5-18.8-6.5-18.8
	c7.9,2.3,10.4,10.7,11,16.8c0.7-13.6,8.7-17.9,8.7-17.9c4,7.2-0.3,14.9-4.1,19.7c10.1-9.1,18.8-6.5,18.8-6.5
	c-2.3,7.9-10.7,10.4-16.8,11C230.2,1158.8,234.5,1166.8,234.5,1166.8z M850.8,209c0,0,24.3,43.1,21.7,68.9
	c-2.6,25.8-38.5,40.7-47.5,2.6c-9-38.1,30.7-43.7,30.7-43.7l2.3,10.7c0,0-29.5,5.6-31,28.3c-1,16,20.3,28.4,33.9,9.2
	C874.6,266,850.8,209,850.8,209z M858.8,251.1l1,12.6c0,0-24.9,1.3-24.3,21.7C835.5,285.5,826.2,261.6,858.8,251.1z M860.9,268.6
	l-0.3,8.8c0,0-15.5-1.8-20.3,9.2C840.3,286.6,839,271.8,860.9,268.6z M867.4,232.2c43-3.8,47.6-54.5,47.6-54.5
	c15.5,52.3-41.8,67.3-41.8,67.3L867.4,232.2z M918.1,214.2c-1.6,33.8-40.8,45.8-40.8,45.8l-2.8-10.9
	C903.1,246,918.1,214.2,918.1,214.2z M877.7,275.2c0.7-2.6,0.2-9.8,0.2-9.8c17.1-0.2,32.1-22.5,32.1-22.5
	C903.3,270.8,877.7,275.2,877.7,275.2z M247,209c0,0-23.8,56.9-10.1,76.1c13.6,19.2,34.9,6.8,33.9-9.2c-1.5-22.8-31-28.3-31-28.3
	l2.3-10.7c0,0,39.7,5.6,30.7,43.7c-9,38.1-44.9,23.2-47.5-2.6C222.7,252.1,247,209,247,209z M262.3,285.5
	c0.6-20.5-24.3-21.7-24.3-21.7l1-12.6C271.7,261.6,262.3,285.5,262.3,285.5z M257.5,286.6c-4.8-11.1-20.3-9.2-20.3-9.2l-0.3-8.8
	C258.9,271.8,257.5,286.6,257.5,286.6z M230.5,232.2l-5.8,12.8c0,0-57.3-14.9-41.8-67.3C182.9,177.7,187.5,228.4,230.5,232.2z
	 M220.6,260c0,0-39.2-12-40.8-45.8c0,0,15,31.8,43.6,34.9L220.6,260z M219.9,265.4c0,0-0.6,7.2,0.2,9.8c0,0-25.5-4.4-32.2-32.2
	C187.9,242.9,202.8,265.2,219.9,265.4z M240.4,714.4c-0.8,9.6,3.7,19.6,11.5,25.3c3.9,2.9,8.6,4.8,13.4,5.5
	c4.9,0.7,9.9,0.3,14.5-1.5c9.2-3.4,16.5-11.9,18.7-21.6l0.3-1.8c0-0.3,0.1-0.6,0.1-0.9l0.1-0.9l0.1-1.9l-0.1-1.9
	c-0.1-2.5-0.7-4.9-1.6-7.2c-1.8-4.6-5.2-8.5-9.6-10.7c-4.4-2.2-9.8-2.6-14.3-0.7c-4.5,1.9-7.8,6.4-8.6,11.2
	c-0.2,1.2-0.2,2.5-0.1,3.7c0.1,1.2,0.5,2.4,1,3.5c0.5,1.1,1.2,2.1,2.1,3c0.9,0.9,1.9,1.6,3,2.1c1.1,0.6,2.3,1,3.5,1.2
	c1.2,0.2,2.5,0.3,3.7,0.1c2.5-0.2,4.9-1.4,6.6-3.2l0.7,0.7c-1.8,2.1-4.4,3.4-7.2,3.7c-1.4,0.2-2.7,0.2-4.1,0
	c-1.4-0.2-2.7-0.6-3.9-1.2c-1.3-0.6-2.4-1.3-3.4-2.3c-1-1-1.9-2.1-2.5-3.4c-0.6-1.3-1-2.6-1.2-4c-0.2-1.4-0.2-2.8,0-4.2
	c0.4-2.7,1.4-5.4,3-7.7c0.8-1.2,1.8-2.2,2.8-3.1c1.1-0.9,2.3-1.6,3.6-2.2c5.1-2.3,11.2-2,16.3,0.4c2.5,1.2,4.8,2.9,6.7,4.9
	c1.9,2.1,3.4,4.4,4.5,7c1.1,2.6,1.8,5.3,1.9,8.1l0.1,2.1l-0.1,2.1l0,1c0,0.3-0.1,0.7-0.1,1l-0.3,2.1c-2.2,10.9-10,20.4-20.4,24.6
	c-1.3,0.6-2.6,0.9-4,1.3c-0.7,0.2-1.4,0.3-2.1,0.4c-0.7,0.1-1.4,0.3-2.1,0.3c-2.8,0.3-5.6,0.3-8.4-0.1c-5.5-0.7-10.9-2.7-15.6-6
	c-4.6-3.3-8.4-7.8-10.8-12.9c-1.2-2.6-2.1-5.3-2.7-8c-0.2-0.7-0.2-1.4-0.4-2.1l-0.2-2.1c-0.2-1.4-0.1-2.8,0-4.3
	c0.3-5.7,2.3-11.2,5.1-16.1c2.8-4.8,6.4-9,10.1-12.9c3.8-3.9,7.7-7.4,11.6-11c3.9-3.5,7.8-7.1,11.6-10.6c7.6-7.1,15-14.4,21.7-22.3
	c6.7-7.8,12.6-16.3,16.9-25.4c2.2-4.6,3.9-9.3,5.2-14.1c0.6-2.4,1.1-4.9,1.5-7.3c0.2-1.2,0.4-2.5,0.4-3.7l0.2-1.9
	c0-0.6,0.1-1.2,0.1-1.8c0.1-4.8-0.6-9.6-2.2-14c-0.8-2.2-1.9-4.2-3.1-6.1c-1.3-1.9-2.8-3.6-4.5-5.1c-3.4-3-7.6-5.3-12.1-6.6
	c-4.5-1.4-9.2-1.8-13.8-1.4c-9.3,0.9-18.3,5.2-25.4,11.7c-7.2,6.4-12.7,14.8-16.8,23.8c-2.1,4.5-3.8,9.3-5.2,14.1
	c-0.7,2.4-1.4,4.9-2,7.4l-1.8,7.5l-2.5,10.5l-6.4-8.4c-4.7-6.1-9.4-11.9-14.9-16.4c-5.5-4.5-11.9-7.6-18.6-8.2c-1.7-0.2-3.3-0.1-5,0
	c-1.6,0.2-3.2,0.5-4.8,1c-1.5,0.6-3,1.2-4.3,2.1c-0.4,0.2-0.7,0.4-1,0.7c-0.3,0.2-0.7,0.5-1,0.7c-0.6,0.5-1.2,1-1.7,1.6
	c-2.2,2.3-3.5,5.1-4.2,8.3c-0.3,1.6-0.4,3.2-0.3,4.9c0.1,1.7,0.3,3.4,0.8,5c0.8,3.3,2.3,6.5,4.3,9.6c2,3,4.4,5.9,7,8.7
	c5.2,5.6,10.8,11.1,16.4,16.4c11.4,10.6,22.9,21.2,34.2,32l-0.6,0.8c-12.3-9.6-24.5-19.4-36.7-29.2c-6-5-12-10.1-17.7-15.6
	c-2.9-2.8-5.7-5.8-8.1-9.1c-2.5-3.4-4.6-7.2-5.8-11.4c-0.6-2.1-1.1-4.3-1.3-6.5c-0.2-2.2-0.1-4.5,0.2-6.7c0.7-4.5,2.6-9,5.7-12.5
	c0.7-0.9,1.6-1.7,2.5-2.5c0.4-0.4,0.9-0.7,1.3-1.1c0.4-0.4,0.9-0.7,1.4-1c1.9-1.3,4-2.3,6.1-3.2c2.2-0.8,4.4-1.4,6.6-1.7
	c2.2-0.3,4.5-0.4,6.7-0.2c2.2,0.1,4.4,0.5,6.6,1c2.2,0.5,4.2,1.2,6.3,2.1c4,1.7,7.7,4,11.1,6.6c3.8,3,7.2,6.3,10.2,9.8
	c0.5-1.9,1-3.8,1.5-5.6c1.6-5.2,3.4-10.4,5.7-15.4c2.3-5,5-9.9,8.3-14.5c3.2-4.6,7-8.8,11.3-12.6c8.5-7.6,19.6-12.6,31.2-13.4
	c5.8-0.4,11.7,0.3,17.3,2.1c5.6,1.8,10.8,4.7,15.2,8.7c2.2,2,4.1,4.3,5.8,6.8c1.6,2.5,2.9,5.2,3.9,8c1.9,5.5,2.6,11.3,2.4,17
	c-0.3,5.6-1.2,11-2.7,16.4c-1.4,5.3-3.5,10.5-5.9,15.3c-4.9,9.8-11.3,18.6-18.4,26.6c-7.1,8.1-14.8,15.4-22.6,22.5
	c-3.9,3.5-7.9,7-11.8,10.5c-3.9,3.5-7.9,6.9-11.5,10.5c-3.6,3.6-6.9,7.5-9.5,11.7C242.5,705,240.7,709.6,240.4,714.4z M875.4,658.1
	c0,0.7,0.5,1.4,0.3,2c-0.1,0.4-0.3,0.8-0.3,1.3c0.1,3.7-1.1,7.1-2.2,10.5c-1.5,4.8-3.9,9.2-6.3,13.6c-1.7,3.3-3.8,6.3-5.9,9.4
	c-2.1,3.1-4.3,6.1-6.6,9.1c-1.7,2.1-3.3,4.3-5.1,6.3c-1.5,1.7-2.9,3.7-4.6,5.3c-0.2,0.2-0.4,0.3-0.6,0.4c0,0,0,0,0,0
	c-0.1,0.1-0.2,0.2-0.3,0.3c0,0-0.1-0.1-0.1-0.1c0.1-0.1,0.2-0.2,0.3-0.3c0,0,0,0,0,0c0.2-1.1,1.1-2,1.6-2.9c0.6-1.2,1.3-2.4,2.1-3.5
	c1.4-1.9,2.2-4.2,3.5-6.2c1-1.4,1.8-3.1,2.4-4.8c0.6-1.6,1.8-3,2.1-4.8c0-0.2,0.3-0.4,0.4-0.6c1.5-3.2,3-6.3,4.1-9.7
	c0.3-1.1,0.9-2.2,1.2-3.3c0.6-1.8,1-3.7,1.6-5.6c0.5-1.6,0.5-3.3,1.1-4.9c0.1-0.3,0-0.8,0-1.2c0-1.8,0-3.6,0-5.4
	c-0.1-3.3-1.4-6.2-3.9-8.3c-1.2-0.9-2.6-1.6-4.2-2c-1.7-0.5-3.4-0.3-5.1-0.3c-0.9,0-3.1,0.9-4,1.8c-2,1.8-3.5,4-4.5,6.6
	c-0.4,1.2-1,2.4-1.3,3.6c-0.4,1.6-1,3.1-1.1,4.8c0,0.6-0.3,1.2-0.4,1.8c-0.1,0.6,0.2,1.2-0.4,1.6c0,0,0,0.1,0,0.2
	c0.3,1.8-0.4,3.6-0.4,5.4c0,2.4-0.3,4.8-0.4,7.2c-0.1,2.5-0.1,4.9,0,7.4c0,1.5,0.3,3,0.4,4.4c0.1,1.5-0.3,3,0.1,4.4
	c0.4,1.7,0.2,3.4,0.3,5.1c0.1,0.9,0.5,1.7,0.4,2.6c-0.1,0.9-0.1,1.8,0.4,2.7c0.2,0.3,0,0.8,0,1.2c0,0.6-0.1,1.3,0.4,1.9
	c0.1,0.2,0,0.6-0.1,1.1c-1.3-0.6-2.1-1.5-2.7-2.5c-1.1-1.8-2-3.8-2.9-5.8c-1.2-2.5-1.6-5.2-2.6-7.7c-0.5-1.4-0.6-3-0.9-4.4
	c-0.2-1-0.3-2.1-0.7-3.1c-0.2-0.5,0-1-0.1-1.6c-0.1-0.5-0.3-1-0.4-1.4c-0.2-1.9-0.1-3.8-0.5-5.6c-0.5-2.4-0.3-4.7-0.3-7.1
	c-0.1-2.4,0-4.8,0-7.2c0-0.9,0.2-1.8,0.4-2.6c0.1-0.9,0-1.7,0.3-2.7c0.3-0.9,0.3-2,0.5-3c0.3-1.5,0.7-2.9,1-4.4
	c0.7-2.7,1.7-5.2,3-7.6c2.1-3.9,4.9-7.2,9.1-8.9c1.2-0.5,2.4-1.1,3.8-1.1c0.1,0,0.2-0.2,0.3-0.4c2.3,0,4.5,0,6.8,0
	c0,0.1,0.1,0.3,0.1,0.3c2.6,0,5,1.1,7.4,1.9c3.5,1.2,6.5,3.1,9,5.8c2,2.2,3.2,4.9,3.9,7.8C875.3,656,875.3,657,875.4,658.1z
	 M929.1,794.2c0,0.3-0.2,0.7,0.4,0.7c0,1.5,0,2.9,0,4.4c-0.1,0.1-0.4,0.2-0.4,0.3c0,0.5,0,0.9,0,1.4c0,1.7-0.2,3.3-0.7,4.9
	c-0.3,0.7-0.1,1.6-0.4,2.4c-0.3,0.7-0.4,1.4-0.8,2.2c-0.6-3.9-1.2-7.7-1.8-11.7c-0.9,1.5-9.5,10.1-11.5,11c0-0.5,0-1,0-1.4
	c0-3.3-0.1-6.5,0-9.8c0.1-2.8-0.4-5.5-0.5-8.2c0-1.1-0.3-2.1-0.3-3.2c-1-0.8,0.2-2.1-0.8-2.9c0.3-1.8-0.6-3.4-0.8-5.1
	c-0.2-1.5-0.7-2.9-1.2-4.3c-0.4-1.4-0.9-2.7-1.4-4c-1.5-3.8-3.3-7.5-5.7-10.9c-2.1-3-4.5-5.6-7.2-8c-1.1-0.9-2.1-1.9-3.2-2.9
	c-1.1-0.9-2.3-1.6-3.3-2.6c-1.1-0.9-2.3-1.7-3.3-2.6c-2.2-1.9-4.7-3.2-7-4.9c-0.7-0.6-1.6-1-2.4-1.5c-2.2-1.2-4.3-2.5-6.6-3.5
	c-3.4-1.5-6.9-3.1-10.5-4.2c-0.9-0.3-1.8-0.6-2.6-1c1.3-0.1,2.5-0.5,3.7,0.1c0.3,0.1,0.6,0.1,1,0.1c1.5,0,2.9,0.5,4.3,0.7
	c3,0.4,5.7,1.6,8.6,2.4c0.9,0.3,1.6,1.1,2.6,0.9c2.4,1.2,4.9,2.3,7.3,3.6c2.9,1.6,5.9,3.3,8.6,5.2c2,1.4,4,2.8,5.8,4.4
	c1.5,1.4,3.2,2.7,4.8,4c1.3,1.1,2.4,2.4,3.8,3.4c1.7,1.3,3.3,2.8,4.8,4.4c3.3,3.6,6.5,7.3,9,11.5c1.8,3,3.4,6.2,4.6,9.5
	c0.7,1.7,1.1,3.5,1.8,5.3c0.3,0.7,0.4,1.6,0.6,2.4c0.4,1.3,0.3,2.6,0.7,3.9C929.3,791.8,929.1,793,929.1,794.2z M781.6,672.5
	c-0.6,3.1-0.3,6.2-0.3,9.3c0,1.7,0.6,3.3,0.9,5c0.4,1.9,1.3,3.6,2,5.4c0.7,1.8,1.9,3.5,3.1,5.1c2.1,3.1,4.8,5.8,7.5,8.3
	c2.8,2.5,5.8,4.8,9.1,6.6c2.5,1.5,5.2,2.9,8,3.8c1.4,0.5,2.8,1.3,4.3,1.7c1.7,0.5,3.5,1,5.2,1.4c2,0.5,4,0.9,6,1
	c-1.3,0.1-2.5,0.5-3.8-0.1c-0.3-0.1-0.7,0-1-0.1c-0.7-0.1-1.5,0.3-2.3-0.3c-0.5-0.4-1.4,0.3-2-0.5c-1.9,0.1-3.6-0.7-5.3-1.2
	c-1.7-0.5-3.3-1.1-4.9-1.6c-0.9-0.3-1.8-0.5-2.6-0.9c-2.5-1.1-5-2.2-7.3-3.6c-3.5-2-6.9-4.1-10.1-6.6c-2.3-1.8-4.5-3.6-6.7-5.5
	c-1.3-1.1-2.6-2.2-3.7-3.4c-2.9-3.3-5.7-6.7-7.9-10.5c-2.6-4.4-3.2-6.8-4.6-10.9c-0.6-1.6-0.7-3.5-1-5.2c-0.4-2.3-0.4-4.6-0.3-6.8
	c0.1-3.2,0.8-6.4,1.6-9.5c0.1-0.2,0.3-0.4,0.6-0.8c0.8,1,1.7,1.7,2.4,2.7c0.8,1.2,2,2.2,2.9,3.4c1,1.4,2.3,2.5,3.4,3.8
	c0.7,0.8,1.4,1.7,2.1,2.7c2.3-2.7,4.3-5.5,7.9-6.9c0.3,0,0.9,0,1.5,0c0,0.1,0,0.2-0.1,0.3c-1.6,3-2.8,6.2-3.5,9.6
	C782.2,669.7,781.9,671.1,781.6,672.5z M828.8,703.2c0.8,1.2,1.4,2.6,2.2,3.9c1.4,2.5,2.9,5,4.7,7.3c-0.3-0.2-0.7-0.3-1-0.5
	c-1.8-1.7-3.6-3.5-5.5-5.1c-3.2-2.5-5.9-5.5-8.7-8.4c-2.1-2.2-4.2-4.3-6.3-6.6c-1.7-1.9-3.9-3.2-5.9-4.6c-0.8-0.6-1.9-1-3-0.9
	c-0.7,0-1.5,0-2.2,0c-0.6,0.4-1.2,0.9-1.8,1.3c0,0.9,0,1.7,0,2.5c0.7,1.1,1.3,2.3,2,3.4c0.1,0.2,0.2,0.3,0.3,0.5
	c1.2,1.4,2.3,2.8,3.7,4.1c3.7,3.3,7.5,6.4,11.6,9.1c3.2,2,6.4,3.8,9.8,5.5c1.2,0.6,2.5,1,4,1.6c-0.5,0.1-0.8,0.2-1.1,0.1
	c-2.3-0.7-4.7-1.1-7.1-1.8c-2.2-0.7-4.5-1.4-6.7-2.2c-1.7-0.6-3.3-1.3-5-2c-2.4-0.9-4.8-2-7.1-3.3c-2.9-1.5-5.6-3.2-8.4-5
	c-0.8-0.5-1.6-1.2-2.2-1.8c-0.7-0.7-1.3-1.4-1.8-2.2c-1-1.6-2-3.2-2-5.2c0-0.4-0.2-0.7-0.3-1.1c-0.1-0.2-0.1-0.5-0.1-0.8
	c0.5-2.6,1-5.2,2.5-7.6c1.9-2.8,4.5-4.4,7.5-5.5c2.6-0.9,5.3-0.7,8,0.5c3,1.3,5.3,3.5,7.3,6c1.5,1.9,2.9,3.8,4.3,5.7
	c1.7,2.2,3.2,4.7,4.7,7.1C826.5,699.2,827.5,701.3,828.8,703.2z M899.1,710.5c0.7,3.2,0.4,6-0.9,8.9c-1.5,3.1-4.1,5.1-7.4,6.1
	c-1.5,0.5-3.1,0.8-4.7,0.8c-1.5,0-2.9-0.1-4.4,0c-2.7,0.2-5.4-0.5-8-0.5c-0.8,0-1.6-0.4-2.4-0.3c-0.9,0.1-1.7-0.5-2.6-0.4
	c-0.8,0.1-1.6-0.6-2.4-0.4c-1.3-0.8-2.8-0.7-4.1-1.1c-1.4-0.4-2.8-0.7-4.2-1c-2.4-0.6-4.7-1.6-7-2.4c-0.5-0.2-1-0.4-1.8-0.8
	c1.2,0,2,0,2.9,0.4c0.7,0.3,1.6-0.2,2.2,0.4c0.1,0.1,0.3,0,0.4,0c2.8-0.1,5.6,0.7,8.4,0.4c1.4-0.1,2.8,0,4.2,0
	c1.9-0.1,3.9-0.6,5.8-0.4c0.8-0.6,1.8-0.2,2.6-0.4c0.8-0.2,1.6-0.3,2.4-0.4c1.2-0.1,2.3-0.6,3.5-0.8c2-0.5,4-1.1,5.7-2.3
	c0.5-0.3,1-0.6,1.4-1c1.3-1.3,1.2-2.5,0-3.8c-0.4-0.4-0.8-0.8-1.2-1.2c-1.7-0.3-3.4-1.2-5.2-0.8c-2.3,0.5-4.7,0.1-6.9,1.1
	c-1.4-0.1-2.6,0.5-3.9,0.8c-1.5,0.3-2.9,0.8-4.3,1.2c-1.2,0.3-2.4,0.5-3.7,0.8c-2.2,0.5-4.5,0.8-6.7,1.3c-0.9,0.2-1.9,0-2.6,0.4
	c-0.9,0.5-1.7,0.2-2.5,0.3c-0.6,0.1-1.1,0.5-1.8,0.4c-0.6-0.1-1.2-0.1-1.9,0.3c-0.4,0.3-1.1,0-1.7-0.1c4.1-0.9,7.7-2.8,11.2-4.9
	c1.8-1,3.7-1.8,5.5-2.7c1.5-0.8,2.9-1.6,4.5-2.3c2.7-1.3,5.6-2.4,8.3-3.5c1.1-0.5,2.2-1,3.5-1.3c1.2-0.3,2.4-0.9,3.6-1
	c1.5-0.2,3-0.8,4.6-0.5c2.5,0.4,5.1,0.9,7.1,2.7C896.6,704.9,897.9,705.5,899.1,710.5z M833.6,721.2c4.3-0.8,4.8-0.5,8.3,0.5
	c1.4,0.4,2.7,1.2,4,1.9c1.8,1,3.7,3.2,4.2,5c0.3,1.3-0.4,2.4-1.2,3.2c-0.7,0.7-1.7,1.1-2.6,1.4c-1.2,0.3-2.4,0.4-3.6,0.4
	c-1.3,0-2.5-0.3-3.7-0.6c-2-0.4-3.8-1.2-5.4-2.3c-1-0.7-2.3-1.3-2.9-2.7c-0.4-0.8-0.9-1.5-0.9-2.4c0-0.2-0.2-0.3-0.4-0.5
	c0.1-0.1,0.2-0.1,0.2-0.2C830,722.5,831.4,721.5,833.6,721.2z M848.8,719.6c-0.1,0-0.1-0.1-0.4-0.4c0.5,0.1,0.7,0.2,1,0.3
	C849.2,719.5,849,719.5,848.8,719.6z M837.2,715.9c-0.1-0.1-0.2-0.2-0.3-0.3c0,0,0,0,0,0c0,0,0,0,0,0c0.1,0.1,0.2,0.2,0.3,0.3
	C837.3,715.9,837.2,715.9,837.2,715.9z M833.2,716.4c0,0.1,0,0.3,0,0.4c0,0-0.1,0-0.1,0c0-0.1,0-0.3,0-0.4
	C833.1,716.4,833.2,716.4,833.2,716.4z M499.6,38.3c0.3,0.9,0.5,1.9,0.5,2.8c-0.1,2-0.7,4-0.4,6c0.3,1.4,1.2,2.8,2.3,4
	c-0.5-1.2-0.2-2.6,0.2-3.8c0.5-1.5,1.1-3,1.2-4.5c0-0.6-0.1-1.1-0.3-1.7c2.5,1.9,5.1,3.6,7.8,5.1c1.1,1.2,1.9,2.7,2.3,4.2
	c0.7,2.6,0.7,5.4,2,7.9c0.9,1.7,2.7,3.1,4.6,4.2c-1.2-1.4-1.3-3.2-1.3-4.9c0-2.1,0.2-4.3-0.3-6.3c-0.2-0.7-0.5-1.4-1-2
	c6.1,2.5,12.7,4.1,19.4,4.7c0.3,0,0.7,0,1,0.1c0.7,1.3,1.9,3.1,3.1,3.8c0-0.3,0.1-0.6,0.1-1.4c1.1,1.4,3.4,3.2,4.4,3.5
	c0.1-0.3,0.1-0.6,0.1-1.1c0.8,0.7,4.6,2.7,5.4,2.6c0.5-0.7,0.6-4.9,0.4-6c0.4,0.2,0.7,0.4,1,0.5c0.2-0.6,0.1-1.7-0.1-2.9
	c3.6-0.7,7.1-1.7,10.6-3c1.7,0.8,3.1,1.8,4.1,3.2c2.1,2.7,3.2,6.1,6.1,8.2c2,1.5,5.2,2,8.2,2c-2.2-0.9-3.3-3-4-5.1
	c-0.9-2.6-1.5-5.3-3.1-7.4c-1.5-1.9-4-2.7-7.1-2.7c0.3,0,0.8-0.4,1.1-0.5c0.4-0.2,0.8-0.4,1.3-0.6c0.8-0.4,1.6-0.8,2.4-1.3
	c1.6-0.9,3.1-1.9,4.5-2.9c1.4-0.9,2.9-1.9,4.1-2.9c1.5-1.3,2.9-2.6,4.4-3.9c0.3,0,1-0.9,1.2-1.1c0.4-0.4,0.9-0.8,1.3-1.2
	c0.9-0.8,1.8-1.6,2.6-2.3c1.7-1.5,3.4-2.9,5.3-4.1c8.3-0.7,16.6,0.5,24.2,3.5c-4.7,0.5-8.4,3-10.2,5.6c0.5,0.1,0.9,0.1,1.4,0.1
	c-0.6,0.7-3.2,3.5-3.5,5.6c0.3-0.1,0.6-0.1,1.3-0.4c-0.9,1.5-1.7,4.4-1.5,5.4c0.3,0,0.6-0.1,1-0.3c-0.4,1-0.8,5.2-0.4,6
	c0.8,0.2,4.8-1.3,5.7-1.9c-0.1,0.4-0.1,0.8-0.1,1.1c1.1-0.1,3.6-1.6,4.9-2.9c-0.1,0.7-0.1,1-0.1,1.4c2-0.8,4-4.1,4.5-4.8
	c0.1,0.6,0.2,0.9,0.4,1.4c2.4-2.8,4-7.9,2.4-13.5c0.6,0.3,1.2,0.6,1.7,1c-0.7,7.9,3,14,7,16.8c0.2-0.6,0.2-1.1,0.1-1.8
	c0.9,0.7,4.3,4,7,4.4c-0.1-0.4-0.2-0.8-0.5-1.6c1.9,1.1,5.4,2.1,6.7,1.9c0-0.3-0.2-0.8-0.4-1.3c1.3,0.5,6.5,1,7.4,0.5
	c0.2-1-1.6-5.9-2.3-7c0.6,0.1,1,0.1,1.4,0.1c-0.1-1.3-2-4.5-3.6-6c0.9,0.1,1.3,0.1,1.7,0.1c-1-2.4-5.1-5-6-5.6
	c0.7-0.1,1.2-0.2,1.7-0.5c-3.8-3.2-10.9-5.3-18.6-2.3c-0.7-0.4-1.4-0.8-2.1-1.2c5.9-0.6,10-4,11.8-7.3c-0.5-0.1-0.9,0-1.4,0.1
	c0.4-0.7,2.1-3.1,2.6-5.1c10.6,2.2,20.5,7.1,28.6,14.5c0.1,0.1,0.1,0.2,0.2,0.2c0.8,3.1,0.7,8-3.4,8.6c-1.6,0.2-3.7-0.7-3.6-2.6
	c0.1-1.6,1.9-2.6,3.1-1.4c1.3,1.3,3.3-0.7,2-2c-2-1.9-5.8-1.9-7.3,0.7c-1.4,2.4-0.7,6.2,2,7.5c3,1.4,6.3,0.7,8.4-1.9
	c1.3-1.6,1.9-3.5,1.9-5.5c0.6,0.6,1.2,1.1,1.8,1.7c0.3,0.9,0.5,1.9,0.5,2.8c-0.1,2-0.7,4-0.4,6c0.3,1.4,1.2,2.8,2.3,4
	c-0.5-1.2-0.2-2.6,0.2-3.8c0.5-1.5,1.1-3,1.2-4.5c0-0.6-0.1-1.1-0.3-1.7c2.5,1.9,5.1,3.6,7.8,5.1c1.1,1.2,1.9,2.7,2.3,4.2
	c0.7,2.6,0.7,5.4,2,7.9c0.9,1.7,2.7,3.1,4.6,4.2c-1.2-1.4-1.3-3.2-1.3-4.9c0-2.1,0.2-4.3-0.3-6.3c-0.2-0.7-0.5-1.4-1-2
	c6.1,2.5,12.7,4.1,19.4,4.7c0.3,0,0.7,0,1,0.1c0.7,1.3,1.9,3.1,3.1,3.8c0-0.3,0.1-0.6,0.1-1.4c1.1,1.4,3.4,3.2,4.4,3.5
	c0.1-0.3,0.1-0.6,0.1-1.1c0.8,0.7,4.6,2.7,5.4,2.6c0.5-0.7,0.6-4.9,0.4-6c0.4,0.2,0.7,0.4,1,0.5c0.2-0.6,0.1-1.7-0.1-2.9
	c3.6-0.7,7.1-1.7,10.6-3c1.7,0.8,3.1,1.8,4.1,3.2c2.1,2.7,3.2,6.1,6.1,8.2c2,1.5,5.2,2,8.2,2c-2.2-0.9-3.3-3-4-5.1
	c-0.9-2.6-1.5-5.3-3.1-7.4c-1.5-1.9-4-2.7-7.1-2.7c6.3-2.9,11.9-6.9,17-11.5c3.6-3.3,7.1-6.7,11.2-9.4c8.3-0.7,16.6,0.5,24.2,3.5
	c-4.7,0.5-8.4,3-10.2,5.6c0.5,0.1,0.9,0.1,1.4,0.1c-0.6,0.7-3.2,3.5-3.5,5.6c0.3-0.1,0.6-0.1,1.3-0.4c-0.9,1.5-1.7,4.4-1.5,5.4
	c0.3,0,0.6-0.1,1-0.3c-0.4,1-0.8,5.2-0.4,6c0.8,0.2,4.8-1.3,5.7-1.9c-0.1,0.4-0.1,0.8-0.1,1.1c1.1-0.1,3.6-1.6,4.9-2.9
	c-0.1,0.7-0.1,1-0.1,1.4c2-0.8,4-4.1,4.5-4.8c0.1,0.6,0.2,0.9,0.4,1.4c2.4-2.8,4-7.9,2.4-13.5c0.6,0.3,1.2,0.6,1.7,1
	c-0.7,7.9,3,14,7,16.8c0.2-0.6,0.2-1.1,0.1-1.8c0.9,0.7,4.3,4,7,4.4c-0.1-0.4-0.2-0.8-0.5-1.6c1.9,1.1,5.4,2.1,6.7,1.9
	c0-0.3-0.2-0.8-0.4-1.3c1.3,0.5,6.5,1,7.4,0.5c0.2-1-1.6-5.9-2.3-7c0.6,0.1,1,0.1,1.4,0.1c-0.1-1.3-2-4.5-3.6-6
	c0.9,0.1,1.3,0.1,1.7,0.1c-1-2.4-5.1-5-6-5.6c0.7-0.1,1.2-0.2,1.7-0.5c-3.8-3.2-10.9-5.3-18.6-2.3c-0.7-0.4-1.4-0.8-2.1-1.2
	c5.9-0.6,10-4,11.8-7.3c-0.5-0.1-0.9,0-1.4,0.1c0.4-0.7,2.1-3.1,2.6-5.1c10.7,2.2,20.7,7.2,28.9,14.7c0.8,3.1,0.7,8.1-3.3,8.7
	c-1.6,0.2-3.7-0.7-3.6-2.6c0.1-1.6,1.9-2.6,3.1-1.4c1.3,1.3,3.3-0.7,2-2c-2-1.9-5.8-1.9-7.3,0.7c-1.4,2.4-0.7,6.2,2,7.5
	c3,1.4,6.3,0.7,8.4-1.9c1.4-1.7,1.9-3.7,1.9-5.8c0.8,0.8,1.6,1.5,2.5,2.3c1.3,1.2,3.4-0.8,2-2c-3.4-3.2-6.8-6.5-10.5-9.3
	c-3.6-2.7-7.5-5.1-11.6-7c3,0,5.6-0.9,7.1-2.7c1.7-2.1,2.3-4.8,3.1-7.4c0.7-2.1,1.7-4.2,4-5.1c-3.1,0.1-6.2,0.5-8.2,2
	c-2.9,2.1-4,5.5-6.1,8.2c-1,1.3-2.5,2.4-4.1,3.2c-3.4-1.3-7-2.3-10.6-3c0.2-1.2,0.3-2.3,0.1-2.9c-0.3,0.1-0.6,0.2-1,0.5
	c0.2-1.1,0.1-5.3-0.4-6c-0.8-0.1-4.6,1.9-5.4,2.6c0-0.5,0-0.8-0.1-1.1c-1.1,0.2-3.4,2.1-4.4,3.5c0-0.7-0.1-1-0.1-1.4
	c-1.2,0.7-2.3,2.5-3.1,3.8c-0.3,0-0.7,0-1,0.1c-6.7,0.5-13.3,2.1-19.4,4.7c0.4-0.6,0.8-1.3,1-2c0.6-2,0.4-4.2,0.3-6.3
	c0-1.7,0.2-3.5,1.3-4.9c-1.8,1-3.7,2.4-4.6,4.2c-1.3,2.5-1.3,5.2-2,7.9c-0.4,1.5-1.2,2.9-2.3,4.2c-2.7,1.5-5.3,3.2-7.8,5.1
	c0.2-0.5,0.3-1.1,0.3-1.7c-0.1-1.6-0.7-3-1.2-4.5c-0.4-1.2-0.7-2.5-0.2-3.8c-1.1,1.2-2.1,2.6-2.3,4c-0.4,2,0.3,4,0.4,6
	c0,0.9-0.1,1.9-0.5,2.8c-0.7,0.6-1.4,1.3-2.1,1.9c0-2.1-0.5-4.1-1.9-5.7c-2.2-2.6-5.4-3.3-8.4-1.9c-2.7,1.3-3.4,5-2,7.5
	c1.5,2.6,5.3,2.6,7.3,0.7c1.3-1.3-0.7-3.3-2-2c-1.3,1.2-3.1,0.2-3.1-1.4c-0.1-2,2-2.9,3.6-2.6c4.1,0.6,4.2,5.6,3.3,8.7
	c-8.1,7.5-18.2,12.5-28.9,14.7c-0.5-2-2.2-4.4-2.6-5.1c0.5,0.2,0.9,0.2,1.4,0.1c-1.7-3.3-5.9-6.7-11.8-7.3c0.7-0.4,1.4-0.8,2.1-1.2
	c7.7,2.9,14.8,0.9,18.6-2.3c-0.5-0.3-1-0.4-1.7-0.5c0.9-0.6,5-3.2,6-5.6c-0.4,0-0.8,0-1.7,0.1c1.5-1.5,3.4-4.7,3.6-6
	c-0.3,0-0.8,0-1.4,0.1c0.8-1.1,2.6-6,2.3-7c-0.9-0.5-6.1,0-7.4,0.5c0.2-0.5,0.4-1,0.4-1.3c-1.3-0.2-4.9,0.8-6.7,1.9
	c0.3-0.8,0.4-1.2,0.5-1.6c-2.6,0.4-6.1,3.6-7,4.4c0.1-0.6,0.1-1.2-0.1-1.8c-4,2.8-7.7,8.9-7,16.8c-0.6,0.3-1.1,0.7-1.7,1
	c1.6-5.6,0-10.6-2.4-13.5c-0.3,0.4-0.4,0.8-0.4,1.4c-0.5-0.7-2.6-4-4.5-4.8c0,0.3,0,0.7,0.1,1.4c-1.2-1.2-3.8-2.8-4.9-2.9
	c0,0.3,0,0.7,0.1,1.1c-0.9-0.6-4.9-2.1-5.7-1.9c-0.4,0.7,0,4.9,0.4,6c-0.4-0.2-0.8-0.3-1-0.3c-0.2,1.1,0.7,3.9,1.5,5.4
	c-0.7-0.3-1-0.3-1.3-0.4c0.3,2.1,2.9,4.9,3.5,5.6c-0.5-0.1-1-0.1-1.4,0.1c1.8,2.6,5.5,5.1,10.2,5.6c-0.4,0-1.2,0.4-1.5,0.6
	c-0.6,0.2-1.1,0.4-1.7,0.6c-1.1,0.4-2.3,0.7-3.5,1c-2.3,0.6-4.7,1-7.1,1.3c-2.4,0.3-4.8,0.4-7.3,0.3c-1,0-2.4,0.1-3.3-0.3
	c-1.9-0.8-3.4-2.7-4.9-4c-1.2-1.1-2.5-2.2-3.7-3.3c-1.9-1.8-4-3.5-6.1-5.2c-1.8-1.4-3.7-2.8-5.6-4.1c-1.9-1.3-3.8-2.4-5.9-3.4
	c-0.6-0.3-1.1-0.5-1.7-0.8c3,0,5.6-0.9,7.1-2.7c1.7-2.1,2.3-4.8,3.1-7.4c0.7-2.1,1.7-4.2,4-5.1c-3.1,0.1-6.2,0.5-8.2,2
	c-2.9,2.1-4,5.5-6.1,8.2c-1,1.3-2.5,2.4-4.1,3.2c-3.4-1.3-7-2.3-10.6-3c0.2-1.2,0.3-2.3,0.1-2.9c-0.3,0.1-0.6,0.2-1,0.5
	c0.2-1.1,0.1-5.3-0.4-6c-0.8-0.1-4.6,1.9-5.4,2.6c0-0.5,0-0.8-0.1-1.1c-1.1,0.2-3.4,2.1-4.4,3.5c0-0.7-0.1-1-0.1-1.4
	c-1.2,0.7-2.3,2.5-3.1,3.8c-0.3,0-0.7,0-1,0.1c-6.7,0.5-13.3,2.1-19.4,4.7c0.4-0.6,0.8-1.3,1-2c0.6-2,0.4-4.2,0.3-6.3
	c0-1.7,0.2-3.5,1.3-4.9c-1.8,1-3.7,2.4-4.6,4.2c-1.3,2.5-1.3,5.2-2,7.9c-0.4,1.5-1.2,2.9-2.3,4.2c-2.7,1.5-5.3,3.2-7.8,5.1
	c0.2-0.5,0.3-1.1,0.3-1.7c-0.1-1.6-0.7-3-1.2-4.5c-0.4-1.2-0.7-2.5-0.2-3.8c-1.1,1.2-2.1,2.6-2.3,4c-0.4,2,0.3,4,0.4,6
	c0,0.9-0.1,1.9-0.5,2.8c-0.7,0.6-1.4,1.3-2.1,1.9c0-2.1-0.5-4.1-1.9-5.7c-2.2-2.6-5.4-3.3-8.4-1.9c-2.7,1.3-3.4,5-2,7.5
	c1.5,2.6,5.3,2.6,7.3,0.7c1.3-1.3-0.7-3.3-2-2c-1.3,1.2-3.1,0.2-3.1-1.4c-0.1-2,2-2.9,3.6-2.6c4.1,0.6,4.2,5.6,3.3,8.7
	c-8.1,7.5-18.2,12.5-28.9,14.7c-0.5-2-2.2-4.4-2.6-5.1c0.5,0.2,0.9,0.2,1.4,0.1c-1.7-3.3-5.9-6.7-11.8-7.3c0.7-0.4,1.4-0.8,2.1-1.2
	c7.7,2.9,14.8,0.9,18.6-2.3c-0.5-0.3-1-0.4-1.7-0.5c0.9-0.6,5-3.2,6-5.6c-0.4,0-0.8,0-1.7,0.1c1.5-1.5,3.4-4.7,3.6-6
	c-0.3,0-0.8,0-1.4,0.1c0.8-1.1,2.6-6,2.3-7c-0.9-0.5-6.1,0-7.4,0.5c0.2-0.5,0.4-1,0.4-1.3c-1.3-0.2-4.9,0.8-6.7,1.9
	c0.3-0.8,0.4-1.2,0.5-1.6c-2.6,0.4-6.1,3.6-7,4.4c0.1-0.6,0.1-1.2-0.1-1.8c-4,2.8-7.7,8.9-7,16.8c-0.6,0.3-1.1,0.7-1.7,1
	c1.6-5.6,0-10.6-2.4-13.5c-0.3,0.4-0.4,0.8-0.4,1.4c-0.5-0.7-2.6-4-4.5-4.8c0,0.3,0,0.7,0.1,1.4c-1.2-1.2-3.8-2.8-4.9-2.9
	c0,0.3,0,0.7,0.1,1.1c-0.9-0.6-4.9-2.1-5.7-1.9c-0.4,0.7,0,4.9,0.4,6c-0.4-0.2-0.8-0.3-1-0.3c-0.2,1.1,0.7,3.9,1.5,5.4
	c-0.7-0.3-1-0.3-1.3-0.4c0.3,2.1,2.9,4.9,3.5,5.6c-0.5-0.1-1-0.1-1.4,0.1c1.8,2.6,5.5,5.1,10.2,5.6c-7.6,3-15.9,4.2-24.2,3.5
	c-4.6-3.1-8.8-6.7-12.5-10.9c-1.2-1.4-3.2,0.6-2,2C495.5,34.4,497.5,36.4,499.6,38.3z M795.4,17.5c-1,3.2-1,7.3,0.9,11.5
	c-7.1-3.2-14.8-4.9-22.6-4.9C780.5,20.5,787.8,18.2,795.4,17.5z M709.4,39.3c-2,4.2-2,8.3-0.9,11.5c-7.6-0.7-14.9-3-21.6-6.6
	C694.6,44.2,702.3,42.5,709.4,39.3z M621.8,17.5c-1,3.2-1,7.3,0.9,11.5c-7.1-3.2-14.8-4.9-22.6-4.9
	C606.9,20.5,614.2,18.2,621.8,17.5z M535.8,39.3c-2,4.2-2,8.3-0.9,11.5c-7.6-0.7-14.9-3-21.6-6.6C521,44.2,528.7,42.5,535.8,39.3z
	 M934.6,1026.2c0.8,0.8,2.1-0.5,1.3-1.3c-1.2-1.2-3.6-1.2-4.5,0.4c-0.9,1.5-0.5,3.8,1.2,4.6c1.9,0.9,3.9,0.4,5.3-1.2
	c0.9-1,1.2-2.3,1.2-3.6c0.5,0.5,1,0.9,1.5,1.4c0.8,0.8,2.1-0.5,1.3-1.3c-2.1-2-4.2-4-6.5-5.8c-2.2-1.7-4.7-3.2-7.2-4.3
	c1.9,0,3.5-0.5,4.4-1.7c1-1.3,1.4-3,2-4.6c0.4-1.3,1.1-2.6,2.5-3.2c-1.9,0-3.9,0.3-5.1,1.3c-1.8,1.3-2.5,3.4-3.8,5.1
	c-0.6,0.8-1.5,1.5-2.6,2c-2.1-0.8-4.3-1.4-6.6-1.9c0.1-0.7,0.2-1.4,0.1-1.8c-0.2,0-0.4,0.1-0.6,0.3c0.1-0.7,0.1-3.3-0.2-3.7
	c-0.5-0.1-2.8,1.2-3.3,1.6c0-0.3,0-0.5-0.1-0.7c-0.7,0.2-2.1,1.3-2.8,2.2c0-0.5-0.1-0.6-0.1-0.9c-0.8,0.4-1.4,1.5-1.9,2.4
	c-0.2,0-0.4,0-0.6,0c-4.2,0.3-8.3,1.3-12.1,2.9c0.3-0.4,0.5-0.8,0.6-1.2c0.3-1.3,0.2-2.6,0.2-3.9c0-1.1,0.1-2.2,0.8-3.1
	c-1.1,0.7-2.3,1.5-2.8,2.6c-0.8,1.5-0.8,3.3-1.2,4.9c-0.2,0.9-0.7,1.8-1.4,2.6c-1.7,0.9-3.3,2-4.9,3.1c0.1-0.3,0.2-0.7,0.2-1.1
	c0-1-0.4-1.9-0.7-2.8c-0.2-0.7-0.4-1.6-0.1-2.3c-0.7,0.7-1.3,1.6-1.4,2.5c-0.2,1.3,0.2,2.5,0.2,3.7c0,0.6-0.1,1.2-0.3,1.8
	c-0.4,0.4-0.9,0.8-1.3,1.2c0-1.3-0.3-2.5-1.2-3.6c-1.3-1.6-3.4-2.1-5.3-1.2c-1.7,0.8-2.1,3.1-1.2,4.6c0.9,1.6,3.3,1.6,4.5,0.4
	c0.8-0.8-0.4-2.1-1.3-1.3c-0.8,0.8-1.9,0.1-2-0.9c-0.1-1.2,1.2-1.8,2.3-1.6c2.5,0.4,2.6,3.5,2.1,5.4c-5.1,4.7-11.3,7.8-18,9.1
	c-0.3-1.3-1.4-2.8-1.6-3.2c0.3,0.1,0.6,0.1,0.9,0.1c-1.1-2.1-3.7-4.2-7.3-4.5c0.4-0.2,0.9-0.5,1.3-0.7c4.8,1.8,9.2,0.6,11.6-1.4
	c-0.3-0.2-0.6-0.3-1.1-0.3c0.6-0.4,3.1-2,3.7-3.5c-0.3,0-0.5,0-1.1,0.1c1-0.9,2.1-2.9,2.2-3.7c-0.2,0-0.5,0-0.8,0
	c0.5-0.7,1.6-3.8,1.5-4.4c-0.5-0.3-3.8,0-4.6,0.3c0.2-0.3,0.2-0.6,0.3-0.8c-0.8-0.1-3,0.5-4.2,1.2c0.2-0.5,0.2-0.8,0.3-1
	c-1.6,0.2-3.8,2.3-4.3,2.7c0.1-0.4,0.1-0.7,0-1.1c-2.5,1.7-4.8,5.6-4.4,10.5c-0.4,0.2-0.7,0.4-1.1,0.6c1-3.5,0-6.6-1.5-8.4
	c-0.2,0.3-0.2,0.5-0.3,0.9c-0.3-0.5-1.6-2.5-2.8-3c0,0.2,0,0.4,0,0.9c-0.8-0.8-2.3-1.7-3-1.8c0,0.2,0,0.4,0,0.7
	c-0.6-0.4-3-1.3-3.5-1.2c-0.2,0.4,0,3.1,0.2,3.7c-0.3-0.1-0.5-0.2-0.7-0.2c-0.1,0.7,0.4,2.4,1,3.4c-0.4-0.2-0.6-0.2-0.8-0.3
	c0.2,1.3,1.8,3.1,2.2,3.5c-0.3-0.1-0.6-0.1-0.9,0c1.1,1.6,3.4,3.2,6.4,3.5c-0.2,0-0.7,0.3-1,0.4c-0.4,0.1-0.7,0.2-1.1,0.4
	c-0.7,0.2-1.4,0.4-2.2,0.6c-1.5,0.4-2.9,0.6-4.4,0.8c-1.5,0.2-3,0.2-4.5,0.2c-0.6,0-1.5,0.1-2.1-0.2c-1.2-0.5-2.1-1.7-3.1-2.5
	c-0.8-0.7-1.5-1.4-2.3-2.1c-1.2-1.1-2.5-2.2-3.8-3.2c-1.1-0.9-2.3-1.7-3.5-2.5c-1.2-0.8-2.4-1.5-3.7-2.1c-0.3-0.2-0.7-0.3-1-0.5
	c1.9,0,3.5-0.5,4.4-1.7c1-1.3,1.4-3,2-4.6c0.4-1.3,1.1-2.6,2.5-3.2c-1.9,0-3.9,0.3-5.1,1.3c-1.8,1.3-2.5,3.4-3.8,5.1
	c-0.6,0.8-1.5,1.5-2.6,2c-2.1-0.8-4.3-1.4-6.6-1.9c0.1-0.7,0.2-1.4,0.1-1.8c-0.2,0-0.4,0.1-0.6,0.3c0.1-0.7,0.1-3.3-0.2-3.7
	c-0.5-0.1-2.8,1.2-3.3,1.6c0-0.3,0-0.5,0-0.7c-0.7,0.2-2.1,1.3-2.8,2.2c0-0.5-0.1-0.6-0.1-0.9c-0.8,0.4-1.4,1.5-1.9,2.4
	c-0.2,0-0.4,0-0.6,0c-4.2,0.3-8.3,1.3-12.1,2.9c0.3-0.4,0.5-0.8,0.6-1.2c0.3-1.3,0.2-2.6,0.2-3.9c0-1.1,0.1-2.2,0.8-3.1
	c-1.1,0.7-2.3,1.5-2.8,2.6c-0.8,1.5-0.8,3.3-1.2,4.9c-0.2,0.9-0.7,1.8-1.4,2.6c-1.7,0.9-3.3,2-4.9,3.1c0.1-0.3,0.2-0.7,0.2-1.1
	c0-1-0.4-1.9-0.7-2.8c-0.2-0.7-0.4-1.6-0.1-2.3c-0.7,0.7-1.3,1.6-1.4,2.5c-0.2,1.3,0.2,2.5,0.2,3.7c0,0.6-0.1,1.2-0.3,1.8
	c-0.4,0.4-0.9,0.8-1.3,1.2c0-1.3-0.3-2.5-1.2-3.6c-1.3-1.6-3.4-2.1-5.3-1.2c-1.7,0.8-2.1,3.1-1.2,4.6c0.9,1.6,3.3,1.6,4.5,0.4
	c0.8-0.8-0.4-2.1-1.3-1.3c-0.8,0.8-1.9,0.1-2-0.9c-0.1-1.2,1.2-1.8,2.3-1.6c2.5,0.4,2.6,3.5,2.1,5.4c-5.1,4.7-11.3,7.8-18,9.1
	c-0.3-1.3-1.4-2.8-1.6-3.2c0.3,0.1,0.6,0.1,0.9,0.1c-1.1-2.1-3.7-4.2-7.3-4.5c0.4-0.2,0.9-0.5,1.3-0.7c4.8,1.8,9.2,0.6,11.6-1.4
	c-0.3-0.2-0.6-0.3-1.1-0.3c0.6-0.4,3.1-2,3.7-3.5c-0.3,0-0.5,0-1.1,0.1c1-0.9,2.1-2.9,2.2-3.7c-0.2,0-0.5,0-0.8,0
	c0.5-0.7,1.6-3.8,1.5-4.4c-0.5-0.3-3.8,0-4.6,0.3c0.2-0.3,0.2-0.6,0.3-0.8c-0.8-0.1-3,0.5-4.2,1.2c0.2-0.5,0.2-0.8,0.3-1
	c-1.6,0.2-3.8,2.3-4.3,2.7c0.1-0.4,0.1-0.7,0-1.1c-2.5,1.7-4.8,5.6-4.4,10.5c-0.4,0.2-0.7,0.4-1.1,0.6c1-3.5,0-6.6-1.5-8.4
	c-0.2,0.3-0.2,0.5-0.3,0.9c-0.3-0.5-1.6-2.5-2.8-3c0,0.2,0,0.4,0,0.9c-0.8-0.8-2.3-1.7-3-1.8c0,0.2,0,0.4,0,0.7
	c-0.6-0.4-3-1.3-3.5-1.2c-0.2,0.4,0,3.1,0.2,3.7c-0.3-0.1-0.5-0.2-0.7-0.2c-0.1,0.7,0.4,2.4,1,3.4c-0.4-0.2-0.6-0.2-0.8-0.3
	c0.2,1.3,1.8,3.1,2.2,3.5c-0.3-0.1-0.6-0.1-0.9,0c1.1,1.6,3.4,3.2,6.4,3.5c-4.7,1.9-9.9,2.6-15.1,2.2c-2.9-1.9-5.5-4.2-7.8-6.8
	c-0.8-0.9-2,0.4-1.3,1.3c1.2,1.3,2.4,2.6,3.7,3.7c0.2,0.6,0.3,1.2,0.3,1.8c-0.1,1.2-0.5,2.5-0.2,3.7c0.2,0.9,0.8,1.7,1.4,2.5
	c-0.3-0.8-0.1-1.6,0.1-2.3c0.3-0.9,0.7-1.8,0.7-2.8c0-0.4,0-0.7-0.2-1.1c1.5,1.2,3.2,2.2,4.9,3.1c0.7,0.8,1.2,1.7,1.4,2.6
	c0.4,1.6,0.4,3.4,1.2,4.9c0.6,1.1,1.7,1.9,2.8,2.6c-0.7-0.9-0.8-2-0.8-3.1c0-1.3,0.1-2.6-0.2-3.9c-0.1-0.4-0.3-0.9-0.6-1.2
	c3.8,1.6,7.9,2.6,12.1,2.9c0.2,0,0.4,0,0.6,0c0.5,0.8,1.2,1.9,1.9,2.4c0-0.2,0.1-0.4,0.1-0.9c0.7,0.9,2.1,2,2.8,2.2
	c0-0.2,0.1-0.4,0.1-0.7c0.5,0.5,2.8,1.7,3.3,1.6c0.3-0.4,0.4-3,0.2-3.7c0.2,0.2,0.5,0.2,0.6,0.3c0.1-0.4,0.1-1.1-0.1-1.8
	c2.2-0.4,4.4-1.1,6.6-1.9c1,0.5,1.9,1.1,2.6,2c1.3,1.7,2,3.8,3.8,5.1c1.2,0.9,3.2,1.2,5.1,1.3c-1.4-0.6-2-1.9-2.5-3.2
	c-0.5-1.6-0.9-3.3-2-4.6c-0.9-1.2-2.5-1.7-4.4-1.7c0.2,0,0.5-0.2,0.7-0.3c0.3-0.1,0.5-0.3,0.8-0.4c0.5-0.3,1-0.5,1.5-0.8
	c1-0.6,1.9-1.2,2.8-1.8c0.8-0.6,1.8-1.2,2.6-1.8c0.9-0.8,1.8-1.6,2.7-2.4c0.2,0,0.6-0.6,0.8-0.7c0.3-0.2,0.5-0.5,0.8-0.7
	c0.5-0.5,1.1-1,1.6-1.5c1.1-0.9,2.1-1.8,3.3-2.6c5.2-0.4,10.3,0.3,15,2.2c-2.9,0.3-5.2,1.9-6.4,3.5c0.3,0.1,0.6,0.1,0.9,0
	c-0.4,0.4-2,2.2-2.2,3.5c0.2-0.1,0.4-0.1,0.8-0.3c-0.5,0.9-1.1,2.7-1,3.4c0.2,0,0.4-0.1,0.7-0.2c-0.2,0.6-0.5,3.3-0.2,3.7
	c0.5,0.1,3-0.8,3.5-1.2c-0.1,0.3-0.1,0.5,0,0.7c0.7-0.1,2.3-1,3-1.8c-0.1,0.5,0,0.6,0,0.9c1.2-0.5,2.5-2.5,2.8-3
	c0,0.4,0.1,0.6,0.3,0.9c1.5-1.8,2.5-4.9,1.5-8.4c0.4,0.2,0.7,0.4,1.1,0.6c-0.4,4.9,1.9,8.7,4.4,10.5c0.1-0.4,0.1-0.7,0-1.1
	c0.5,0.5,2.7,2.5,4.3,2.7c-0.1-0.3-0.1-0.5-0.3-1c1.2,0.7,3.4,1.3,4.2,1.2c0-0.2-0.1-0.5-0.3-0.8c0.8,0.3,4,0.6,4.6,0.3
	c0.1-0.6-1-3.7-1.5-4.4c0.3,0.1,0.6,0.1,0.8,0c-0.1-0.8-1.3-2.8-2.2-3.7c0.6,0.1,0.8,0,1.1,0.1c-0.6-1.5-3.1-3.1-3.7-3.5
	c0.4,0,0.7-0.1,1.1-0.3c-2.4-2-6.8-3.3-11.6-1.4c-0.4-0.3-0.9-0.5-1.3-0.7c3.7-0.4,6.2-2.5,7.3-4.5c-0.3,0-0.5,0-0.9,0.1
	c0.3-0.4,1.3-1.9,1.6-3.2c6.6,1.3,12.8,4.4,17.8,9c0,0.1,0.1,0.1,0.1,0.2c0.5,1.9,0.4,5-2.1,5.4c-1,0.1-2.3-0.4-2.3-1.6
	c0.1-1,1.2-1.6,2-0.9c0.8,0.8,2.1-0.5,1.3-1.3c-1.2-1.2-3.6-1.2-4.5,0.4c-0.9,1.5-0.5,3.8,1.2,4.6c1.9,0.9,3.9,0.4,5.3-1.2
	c0.8-1,1.2-2.2,1.2-3.4c0.4,0.4,0.8,0.7,1.1,1c0.2,0.6,0.3,1.2,0.3,1.8c-0.1,1.2-0.5,2.5-0.2,3.7c0.2,0.9,0.8,1.7,1.4,2.5
	c-0.3-0.8-0.1-1.6,0.1-2.3c0.3-0.9,0.7-1.8,0.7-2.8c0-0.4,0-0.7-0.2-1.1c1.5,1.2,3.2,2.2,4.9,3.1c0.7,0.8,1.2,1.7,1.4,2.6
	c0.4,1.6,0.4,3.4,1.2,4.9c0.6,1.1,1.7,1.9,2.8,2.6c-0.7-0.9-0.8-2-0.8-3.1c0-1.3,0.1-2.6-0.2-3.9c-0.1-0.4-0.3-0.9-0.6-1.2
	c3.8,1.6,7.9,2.6,12.1,2.9c0.2,0,0.4,0,0.6,0c0.5,0.8,1.2,1.9,1.9,2.4c0-0.2,0.1-0.4,0.1-0.9c0.7,0.9,2.1,2,2.8,2.2
	c0-0.2,0.1-0.4,0.1-0.7c0.5,0.5,2.8,1.7,3.3,1.6c0.3-0.4,0.4-3,0.2-3.7c0.2,0.2,0.5,0.2,0.6,0.3c0.1-0.4,0.1-1.1-0.1-1.8
	c2.2-0.4,4.4-1.1,6.6-1.9c1,0.5,1.9,1.1,2.6,2c1.3,1.7,2,3.8,3.8,5.1c1.2,0.9,3.2,1.2,5.1,1.3c-1.4-0.6-2-1.9-2.5-3.2
	c-0.5-1.6-0.9-3.3-2-4.6c-0.9-1.2-2.5-1.7-4.4-1.7c3.9-1.8,7.4-4.3,10.6-7.2c2.2-2.1,4.4-4.2,7-5.9c5.2-0.4,10.3,0.3,15,2.2
	c-2.9,0.3-5.2,1.9-6.4,3.5c0.3,0.1,0.6,0.1,0.9,0c-0.4,0.4-2,2.2-2.2,3.5c0.2-0.1,0.4-0.1,0.8-0.3c-0.5,0.9-1.1,2.7-1,3.4
	c0.2,0,0.4-0.1,0.7-0.2c-0.2,0.6-0.5,3.3-0.2,3.7c0.5,0.1,3-0.8,3.5-1.2c-0.1,0.3-0.1,0.5,0,0.7c0.7-0.1,2.3-1,3-1.8
	c-0.1,0.5,0,0.6,0,0.9c1.2-0.5,2.5-2.5,2.8-3c0,0.4,0.1,0.6,0.3,0.9c1.5-1.8,2.5-4.9,1.5-8.4c0.4,0.2,0.7,0.4,1.1,0.6
	c-0.4,4.9,1.9,8.7,4.4,10.5c0.1-0.4,0.1-0.7,0-1.1c0.5,0.5,2.7,2.5,4.3,2.7c-0.1-0.3-0.1-0.5-0.3-1c1.2,0.7,3.4,1.3,4.2,1.2
	c0-0.2-0.1-0.5-0.3-0.8c0.8,0.3,4,0.6,4.6,0.3c0.1-0.6-1-3.7-1.5-4.4c0.3,0.1,0.6,0.1,0.8,0c-0.1-0.8-1.3-2.8-2.2-3.7
	c0.6,0.1,0.8,0,1.1,0.1c-0.6-1.5-3.1-3.1-3.7-3.5c0.4,0,0.7-0.1,1.1-0.3c-2.4-2-6.8-3.3-11.6-1.4c-0.4-0.3-0.9-0.5-1.3-0.7
	c3.7-0.4,6.2-2.5,7.3-4.5c-0.3,0-0.5,0-0.9,0.1c0.3-0.4,1.3-1.9,1.6-3.2c6.7,1.4,12.9,4.5,18,9.1c0.5,1.9,0.4,5-2.1,5.4
	c-1,0.1-2.3-0.4-2.3-1.6C932.7,1026.1,933.8,1025.5,934.6,1026.2z M746,1034.3c-4.7-0.4-9.3-1.9-13.5-4.1c4.9,0,9.6-1.1,14-3.1
	C745.4,1029.7,745.4,1032.3,746,1034.3z M786.7,1017.7c4.2-2.2,8.7-3.6,13.5-4.1c-0.6,2-0.6,4.6,0.6,7.2
	C796.3,1018.7,791.5,1017.7,786.7,1017.7z M854.1,1034.3c-4.7-0.4-9.3-1.9-13.5-4.1c4.9,0,9.6-1.1,14-3.1
	C853.4,1029.7,853.4,1032.3,854.1,1034.3z M894.7,1017.7c4.2-2.2,8.7-3.6,13.5-4.1c-0.6,2-0.6,4.6,0.6,7.2
	C904.3,1018.7,899.5,1017.7,894.7,1017.7z M473.3,1026.4c0.5,0.2,1,0.2,1.6,0.1c-0.7,0.8-3.7,4-4,6.5c0.4-0.1,0.7-0.2,1.5-0.5
	c-1,1.7-2,5-1.8,6.2c0.3,0,0.7-0.2,1.2-0.4c-0.4,1.2-0.9,6-0.4,6.8c0.9,0.2,5.5-1.5,6.5-2.2c-0.1,0.5-0.1,0.9-0.1,1.3
	c1.2-0.1,4.2-1.9,5.6-3.3c-0.1,0.8-0.1,1.2-0.1,1.6c2.3-1,4.6-4.7,5.2-5.6c0.1,0.7,0.2,1.1,0.5,1.6c2.8-3.2,4.6-9.1,2.7-15.5
	c0.7,0.4,1.3,0.7,2,1.1c-0.8,9.1,3.5,16.1,8.1,19.3c0.2-0.7,0.2-1.3,0.1-2c1,0.8,5,4.6,8,5c-0.1-0.5-0.2-0.9-0.6-1.9
	c2.1,1.3,6.2,2.4,7.7,2.2c-0.1-0.4-0.2-0.9-0.5-1.5c1.5,0.5,7.5,1.1,8.5,0.6c0.3-1.1-1.8-6.8-2.7-8.1c0.6,0.1,1.2,0.1,1.6,0.1
	c-0.2-1.5-2.3-5.2-4.1-6.9c1,0.1,1.5,0.1,2,0.1c-1.2-2.8-5.8-5.7-6.9-6.5c0.8-0.1,1.3-0.2,1.9-0.6c-4.4-3.7-12.6-6-21.4-2.7
	c-0.8-0.5-1.6-0.9-2.4-1.3c6.8-0.7,11.5-4.6,13.5-8.4c-0.6-0.1-1,0-1.6,0.2c0.5-0.8,2.5-3.5,3-5.8c12.3,2.5,23.8,8.3,33.2,16.9
	c0.9,3.6,0.8,9.3-3.9,10c-1.9,0.3-4.3-0.8-4.2-3c0.1-1.9,2.2-3,3.6-1.6c1.5,1.5,3.8-0.8,2.3-2.3c-2.2-2.2-6.7-2.2-8.3,0.8
	c-1.6,2.8-0.8,7.1,2.3,8.6c3.5,1.7,7.2,0.7,9.7-2.2c1.6-1.9,2.2-4.3,2.2-6.7c0.9,0.9,1.9,1.7,2.8,2.6c1.6,1.4,3.9-0.9,2.3-2.3
	c-4-3.6-7.8-7.4-12.1-10.7c-4.2-3.1-8.6-5.8-13.4-8c3.5,0,6.5-1,8.1-3.1c1.9-2.4,2.6-5.6,3.6-8.6c0.8-2.4,2-4.8,4.5-5.8
	c-3.5,0.1-7.2,0.6-9.5,2.3c-3.3,2.4-4.7,6.3-7,9.5c-1.2,1.5-2.8,2.8-4.8,3.6c-3.9-1.5-8-2.7-12.2-3.4c0.2-1.4,0.3-2.7,0.1-3.3
	c-0.3,0.1-0.7,0.3-1.1,0.5c0.3-1.2,0.1-6.1-0.4-6.8c-0.9-0.1-5.2,2.2-6.2,3c0-0.5,0-1-0.1-1.3c-1.2,0.3-3.9,2.4-5.1,4
	c0-0.8-0.1-1.2-0.1-1.6c-1.4,0.8-2.7,2.8-3.5,4.4c-0.4,0-0.8,0-1.2,0.1c-7.7,0.6-15.3,2.4-22.3,5.4c0.5-0.7,0.9-1.5,1.1-2.3
	c0.6-2.4,0.4-4.8,0.4-7.3c0-1.9,0.2-4.1,1.5-5.6c-2.1,1.2-4.2,2.8-5.2,4.8c-1.5,2.8-1.5,6-2.2,9c-0.4,1.7-1.4,3.4-2.6,4.8
	c-3.1,1.7-6.1,3.7-9,5.8c0.2-0.6,0.3-1.3,0.3-1.9c-0.1-1.8-0.8-3.5-1.4-5.2c-0.5-1.4-0.8-2.9-0.2-4.3c-1.2,1.3-2.4,2.9-2.7,4.6
	c-0.4,2.3,0.3,4.6,0.4,6.9c0.1,1.1-0.1,2.2-0.5,3.3c-0.8,0.7-1.6,1.4-2.4,2.2c0-2.4-0.6-4.7-2.2-6.6c-2.5-2.9-6.2-3.8-9.7-2.2
	c-3.2,1.5-3.9,5.8-2.3,8.6c1.7,3,6.1,3,8.3,0.8c1.5-1.5-0.8-3.8-2.3-2.3c-1.5,1.4-3.5,0.3-3.6-1.6c-0.1-2.3,2.3-3.3,4.2-3
	c4.7,0.7,4.8,6.4,3.9,10c-9.4,8.6-20.9,14.4-33.2,16.9c-0.6-2.3-2.5-5.1-3-5.8c0.6,0.2,1.1,0.2,1.6,0.2c-2-3.8-6.8-7.7-13.5-8.4
	c0.8-0.4,1.6-0.9,2.4-1.3c8.8,3.4,17,1.1,21.4-2.7c-0.6-0.4-1.1-0.5-1.9-0.6c1.1-0.7,5.7-3.7,6.9-6.5c-0.5,0-0.9,0-2,0.1
	c1.8-1.8,3.9-5.4,4.1-6.9c-0.4,0-0.9,0-1.6,0.1c0.9-1.3,3-6.9,2.7-8.1c-1-0.6-7,0-8.5,0.6c0.3-0.6,0.4-1.1,0.5-1.5
	c-1.5-0.2-5.6,0.9-7.7,2.2c0.4-1,0.4-1.4,0.6-1.9c-3,0.4-7,4.2-8,5c0.1-0.7,0.1-1.4-0.1-2c-4.6,3.2-8.8,10.3-8.1,19.3
	c-0.7,0.4-1.3,0.8-2,1.1c1.8-6.4,0-12.2-2.7-15.5c-0.3,0.5-0.4,0.9-0.5,1.6c-0.6-0.9-3-4.6-5.2-5.6c0,0.4,0,0.7,0.1,1.6
	c-1.4-1.4-4.3-3.2-5.6-3.3c0,0.3,0,0.7,0.1,1.3c-1-0.7-5.6-2.4-6.5-2.2c-0.4,0.8,0,5.7,0.4,6.8c-0.5-0.2-0.9-0.3-1.2-0.4
	c-0.2,1.2,0.8,4.5,1.8,6.2c-0.8-0.3-1.1-0.4-1.5-0.5c0.3,2.4,3.4,5.7,4,6.5c-0.6-0.1-1.1-0.1-1.6,0.1c2.1,3,6.3,5.9,11.8,6.5
	c-0.4,0-1.3,0.5-1.8,0.7c-0.7,0.2-1.3,0.5-2,0.7c-1.3,0.4-2.6,0.8-4,1.1c-2.7,0.7-5.4,1.1-8.2,1.4c-2.8,0.3-5.6,0.4-8.4,0.3
	c-1.2,0-2.7,0.1-3.8-0.4c-2.1-0.9-3.9-3.1-5.6-4.6c-1.4-1.3-2.8-2.6-4.2-3.8c-2.2-2.1-4.6-4.1-7-5.9c-2.1-1.6-4.2-3.2-6.4-4.7
	c-2.2-1.5-4.4-2.7-6.8-3.9c-0.6-0.3-1.3-0.6-1.9-0.9c3.5,0,6.5-1,8.1-3.1c1.9-2.4,2.6-5.6,3.6-8.6c0.8-2.4,2-4.8,4.5-5.8
	c-3.5,0.1-7.2,0.6-9.5,2.3c-3.3,2.4-4.7,6.3-7,9.5c-1.2,1.5-2.8,2.8-4.8,3.6c-3.9-1.5-8-2.7-12.2-3.4c0.2-1.4,0.3-2.7,0.1-3.3
	c-0.3,0.1-0.7,0.3-1.1,0.5c0.3-1.2,0.1-6.1-0.4-6.8c-0.9-0.1-5.2,2.2-6.2,3c0-0.5,0-1-0.1-1.3c-1.2,0.3-3.9,2.4-5.1,4
	c0-0.8-0.1-1.2-0.1-1.6c-1.4,0.8-2.7,2.8-3.5,4.4c-0.4,0-0.8,0-1.2,0.1c-7.7,0.6-15.3,2.4-22.3,5.4c0.5-0.7,0.9-1.5,1.1-2.3
	c0.6-2.4,0.4-4.8,0.4-7.3c0-1.9,0.2-4.1,1.5-5.6c-2.1,1.2-4.2,2.8-5.2,4.8c-1.5,2.8-1.5,6-2.2,9c-0.4,1.7-1.4,3.4-2.6,4.8
	c-3.1,1.7-6.1,3.7-9,5.8c0.2-0.6,0.3-1.3,0.3-1.9c-0.1-1.8-0.8-3.5-1.4-5.2c-0.5-1.4-0.8-2.9-0.2-4.3c-1.2,1.3-2.4,2.9-2.7,4.6
	c-0.4,2.3,0.3,4.6,0.4,6.9c0.1,1.1-0.1,2.2-0.5,3.3c-0.8,0.7-1.6,1.4-2.4,2.2c0-2.4-0.6-4.7-2.2-6.6c-2.5-2.9-6.2-3.8-9.7-2.2
	c-3.2,1.5-3.9,5.8-2.3,8.6c1.7,3,6.1,3,8.3,0.8c1.5-1.5-0.8-3.8-2.3-2.3c-1.5,1.4-3.5,0.3-3.6-1.6c-0.1-2.3,2.3-3.3,4.2-3
	c4.7,0.7,4.8,6.4,3.9,10c-9.4,8.6-20.9,14.4-33.2,16.9c-0.6-2.3-2.5-5.1-3-5.8c0.6,0.2,1.1,0.2,1.6,0.2c-2-3.8-6.8-7.7-13.5-8.4
	c0.8-0.4,1.6-0.9,2.4-1.3c8.8,3.4,17,1.1,21.4-2.7c-0.6-0.4-1.1-0.5-1.9-0.6c1.1-0.7,5.7-3.7,6.9-6.5c-0.5,0-0.9,0-2,0.1
	c1.8-1.8,3.9-5.4,4.1-6.9c-0.4,0-0.9,0-1.6,0.1c0.9-1.3,3-6.9,2.7-8.1c-1-0.6-7,0-8.5,0.6c0.3-0.6,0.4-1.1,0.5-1.5
	c-1.5-0.2-5.6,0.9-7.7,2.2c0.4-1,0.4-1.4,0.6-1.9c-3,0.4-7,4.2-8,5c0.1-0.7,0.1-1.4-0.1-2c-4.6,3.2-8.8,10.3-8.1,19.3
	c-0.7,0.4-1.3,0.8-2,1.1c1.8-6.4,0-12.2-2.7-15.5c-0.3,0.5-0.4,0.9-0.5,1.6c-0.6-0.9-3-4.6-5.2-5.6c0,0.4,0,0.7,0.1,1.6
	c-1.4-1.4-4.3-3.2-5.6-3.3c0,0.3,0,0.7,0.1,1.3c-1-0.7-5.6-2.4-6.5-2.2c-0.4,0.8,0,5.7,0.4,6.8c-0.5-0.2-0.9-0.3-1.2-0.4
	c-0.2,1.2,0.8,4.5,1.8,6.2c-0.8-0.3-1.1-0.4-1.5-0.5c0.3,2.4,3.4,5.7,4,6.5c-0.6-0.1-1.1-0.1-1.6,0.1c2.1,3,6.3,5.9,11.8,6.5
	c-8.8,3.5-18.2,4.9-27.8,4c-5.3-3.5-10.2-7.8-14.4-12.6c-1.4-1.6-3.7,0.7-2.3,2.3c2.1,2.5,4.4,4.8,6.9,6.9c0.4,1.1,0.6,2.2,0.5,3.3
	c-0.1,2.3-0.8,4.6-0.4,6.9c0.3,1.6,1.4,3.2,2.7,4.6c-0.6-1.4-0.3-3,0.2-4.3c0.6-1.7,1.3-3.4,1.4-5.2c0-0.7-0.1-1.3-0.3-1.9
	c2.9,2.2,5.9,4.1,9,5.8c1.3,1.4,2.2,3.1,2.6,4.8c0.8,3,0.8,6.2,2.2,9c1,2,3.1,3.6,5.2,4.8c-1.3-1.6-1.5-3.7-1.5-5.6
	c0-2.4,0.3-4.9-0.4-7.3c-0.2-0.8-0.6-1.6-1.1-2.3c7.1,2.9,14.6,4.7,22.3,5.4c0.4,0,0.8,0.1,1.2,0.1c0.9,1.5,2.1,3.6,3.5,4.4
	c0-0.4,0.1-0.7,0.1-1.6c1.2,1.6,3.9,3.7,5.1,4c0.1-0.3,0.1-0.7,0.1-1.3c0.9,0.8,5.2,3.1,6.2,3c0.5-0.8,0.7-5.6,0.4-6.8
	c0.4,0.3,0.8,0.5,1.1,0.5c0.2-0.7,0.1-2-0.1-3.3c4.1-0.8,8.2-1.9,12.2-3.4c1.9,0.9,3.6,2.1,4.8,3.6c2.4,3.1,3.7,7,7,9.5
	c2.3,1.7,6,2.3,9.5,2.3c-2.6-1-3.8-3.5-4.5-5.8c-1-3-1.7-6.1-3.6-8.6c-1.7-2.1-4.7-3.2-8.1-3.1c0.3,0,0.9-0.4,1.2-0.6
	c0.5-0.2,1-0.5,1.4-0.7c0.9-0.5,1.8-1,2.7-1.5c1.8-1,3.5-2.1,5.2-3.3c1.6-1.1,3.3-2.2,4.7-3.4c1.7-1.5,3.4-3,5.1-4.5
	c0.3,0,1.2-1,1.4-1.3c0.5-0.4,1-0.9,1.5-1.3c1-0.9,2-1.8,3-2.7c2-1.7,3.9-3.3,6.1-4.7c9.6-0.8,19,0.6,27.8,4
	c-5.4,0.6-9.6,3.4-11.8,6.5c0.5,0.2,1,0.2,1.6,0.1c-0.7,0.8-3.7,4-4,6.5c0.4-0.1,0.7-0.2,1.5-0.5c-1,1.7-2,5-1.8,6.2
	c0.3,0,0.7-0.2,1.2-0.4c-0.4,1.2-0.9,6-0.4,6.8c0.9,0.2,5.5-1.5,6.5-2.2c-0.1,0.5-0.1,0.9-0.1,1.3c1.2-0.1,4.2-1.9,5.6-3.3
	c-0.1,0.8-0.1,1.2-0.1,1.6c2.3-1,4.6-4.7,5.2-5.6c0.1,0.7,0.2,1.1,0.5,1.6c2.8-3.2,4.6-9.1,2.7-15.5c0.7,0.4,1.3,0.7,2,1.1
	c-0.8,9.1,3.5,16.1,8.1,19.3c0.2-0.7,0.2-1.3,0.1-2c1,0.8,5,4.6,8,5c-0.1-0.5-0.2-0.9-0.6-1.9c2.1,1.3,6.2,2.4,7.7,2.2
	c-0.1-0.4-0.2-0.9-0.5-1.5c1.5,0.5,7.5,1.1,8.5,0.6c0.3-1.1-1.8-6.8-2.7-8.1c0.6,0.1,1.2,0.1,1.6,0.1c-0.2-1.5-2.3-5.2-4.1-6.9
	c1,0.1,1.5,0.1,2,0.1c-1.2-2.8-5.8-5.7-6.9-6.5c0.8-0.1,1.3-0.2,1.9-0.6c-4.4-3.7-12.6-6-21.4-2.7c-0.8-0.5-1.6-0.9-2.4-1.3
	c6.8-0.7,11.5-4.6,13.5-8.4c-0.6-0.1-1,0-1.6,0.2c0.5-0.8,2.5-3.5,3-5.8c12.2,2.5,23.6,8.2,32.9,16.7c0.1,0.1,0.2,0.2,0.3,0.3
	c0.9,3.6,0.8,9.3-3.9,9.9c-1.9,0.3-4.3-0.8-4.2-3c0.1-1.9,2.2-3,3.6-1.6c1.5,1.5,3.8-0.8,2.3-2.3c-2.2-2.2-6.7-2.2-8.3,0.8
	c-1.6,2.8-0.8,7.1,2.3,8.6c3.5,1.7,7.2,0.7,9.7-2.2c1.5-1.8,2.2-4,2.2-6.3c0.7,0.7,1.4,1.3,2.1,1.9c0.4,1.1,0.6,2.2,0.5,3.3
	c-0.1,2.3-0.8,4.6-0.4,6.9c0.3,1.6,1.4,3.2,2.7,4.6c-0.6-1.4-0.3-3,0.2-4.3c0.6-1.7,1.3-3.4,1.4-5.2c0-0.7-0.1-1.3-0.3-1.9
	c2.9,2.2,5.9,4.1,9,5.8c1.3,1.4,2.2,3.1,2.6,4.8c0.8,3,0.8,6.2,2.2,9c1,2,3.1,3.6,5.2,4.8c-1.3-1.6-1.5-3.7-1.5-5.6
	c0-2.4,0.3-4.9-0.4-7.3c-0.2-0.8-0.6-1.6-1.1-2.3c7.1,2.9,14.6,4.7,22.3,5.4c0.4,0,0.8,0.1,1.2,0.1c0.9,1.5,2.1,3.6,3.5,4.4
	c0-0.4,0.1-0.7,0.1-1.6c1.2,1.6,3.9,3.7,5.1,4c0.1-0.3,0.1-0.7,0.1-1.3c0.9,0.8,5.2,3.1,6.2,3c0.5-0.8,0.7-5.6,0.4-6.8
	c0.4,0.3,0.8,0.5,1.1,0.5c0.2-0.7,0.1-2-0.1-3.3c4.1-0.8,8.2-1.9,12.2-3.4c1.9,0.9,3.6,2.1,4.8,3.6c2.4,3.1,3.7,7,7,9.5
	c2.3,1.7,6,2.3,9.5,2.3c-2.6-1-3.8-3.5-4.5-5.8c-1-3-1.7-6.1-3.6-8.6c-1.7-2.1-4.7-3.2-8.1-3.1c7.2-3.4,13.7-7.9,19.6-13.3
	c4.2-3.8,8.2-7.7,12.9-10.8c9.6-0.8,19,0.6,27.8,4C479.6,1020.5,475.5,1023.3,473.3,1026.4z M188.4,1043.1
	c-8.7-0.8-17.2-3.5-24.9-7.5c9-0.1,17.8-2,26-5.7C187.2,1034.6,187.2,1039.4,188.4,1043.1z M263.5,1012.3c7.7-4.1,16.2-6.7,24.9-7.5
	c-1.2,3.6-1.2,8.4,1.1,13.2C281.3,1014.3,272.5,1012.4,263.5,1012.3z M388,1043.1c-8.7-0.8-17.2-3.5-24.9-7.5c9-0.1,17.8-2,26-5.7
	C386.9,1034.6,386.9,1039.4,388,1043.1z M463.2,1012.3c7.7-4.1,16.2-6.7,24.9-7.5c-1.2,3.6-1.2,8.4,1.1,13.2
	C481,1014.3,472.1,1012.4,463.2,1012.3z"/>
</svg>
