<?xml version="1.0" encoding="utf-8"?>
<!-- Generator: Adobe Illustrator 22.1.0, SVG Export Plug-In . SVG Version: 6.00 Build 0)  -->
<svg version="1.1" id="Layer_1" xmlns="http://www.w3.org/2000/svg" xmlns:xlink="http://www.w3.org/1999/xlink" x="0px" y="0px"
	 viewBox="0 0 1080 1296" style="enable-background:new 0 0 1080 1296;" xml:space="preserve">
<style type="text/css">
	.st0{fill:#0F0A0D;}
</style>
<path class="st0" d="M111.5,297.1c0.1,0.3,0.3,0.5,0.5,0.7c0,0.6,0.3,1.1,0.9,1.4c0.2,0.1,0.4,0.1,0.5,0.1c0.5,0,1.1-0.3,1.3-0.9
	l0.1-0.2c3-7.4,10.1-24.7,11.5-29.7l0.1-0.2c1.4-5,2.4-10.6,0.1-13.4c-0.7-0.8-2-1.7-4.3-1.5c-3,0.3-5.7,2-7.7,5
	c-1.5,2.2-2.5,4.8-2.9,7.5c-2.7-5.5-5.6-9.9-8.9-10.3c-1.1-0.1-2.8,0.2-4.3,2.4c-5.8,8.1,1.7,19.9,7.7,29.4
	C108.3,291.1,110.6,294.6,111.5,297.1z M100.5,259.6c0.8-1.1,1.3-1.2,1.6-1.2c0.1,0,0.1,0,0.1,0c3.2,0.3,7.5,10.3,8.9,13.5
	c0.3,0.6,0.5,1.1,0.6,1.4c0.3,0.7,1.1,1,1.8,0.7c0.7-0.3,1.1-1,0.8-1.7c-1.1-3.6-0.1-9,2.3-12.5c1.1-1.6,2.9-3.5,5.6-3.8
	c1.2-0.1,1.6,0.3,1.9,0.6c1.7,2.1-0.1,8.7-0.6,10.9l-0.1,0.2c-1.2,4.3-7,18.7-10.2,26.6c-1.2-2.4-3-5.3-5-8.5
	C102.8,277.1,95.8,266.2,100.5,259.6z M226.6,321.9c-2.6-3.9-4-8.9-4-15c0-9.5,2.5-19.3,7.4-29.6c5-10.2,11.7-19.5,20.2-27.8
	c8.5-8.3,18.5-15.2,29.9-20.6c11.4-5.4,23.4-8.1,36.1-8.1c5.7,0,11.9,0.7,18.5,2.1c6.6,1.4,12.8,4,18.3,7.7
	c5.6,3.8,10.2,9,13.9,15.7c3.7,6.6,5.5,15.1,5.5,25.5c0,9.7-0.8,19.5-2.4,29.3c-1.6,9.8-3.9,19.8-6.8,29.9c4-1.1,7.7-1.7,11.1-2.1
	c3.4-0.3,6.9-0.5,10.4-0.5c6.5,0,11.6,0.9,15.2,2.8c3.6,1.9,6,3.9,7.3,6c2.3-9.7,4.8-19.5,7.4-29.3c2.6-9.8,5.1-18.8,7.4-26.9
	c2.3-8.1,4.4-14.9,6.2-20.2c1.8-5.4,3-8.7,3.6-10c1.3-2.1,3.3-3.9,6-5.4c2.7-1.5,5.6-2.6,8.7-3.3c3.1-0.7,6.1-1.3,9-1.6
	c3-0.3,5.3-0.5,7-0.5c-2.3,4-5,9.8-7.9,17.5c-3,7.7-6,16.4-9,26.1c-3.1,9.7-6,19.9-8.9,30.8c-2.8,10.8-5.4,21.3-7.6,31.3
	c-2.2,10-4,19.2-5.4,27.6c-1.4,8.4-2.1,15.2-2.1,20.2c0,8.6,1.7,14.8,5.2,18.6c3.5,3.8,7.5,5.8,12.2,6c3.8,0.2,7.2-0.8,10.1-2.9
	c3-2.1,5-4.1,6-6c0.8,1.3,1.3,2.1,1.3,2.5c0,0.4-0.6,1.4-1.9,2.8c-1.3,1.5-3.1,3-5.4,4.6c-2.3,1.6-5.1,3.1-8.4,4.4
	c-3.3,1.4-6.9,2.1-10.9,2.1c-3.6,0-7.2-0.4-10.9-1.1c-3.7-0.7-7.1-2.1-10.3-4.1c-3.2-2-5.8-4.9-7.9-8.7c-2.1-3.8-3.3-8.7-3.5-14.9
	c-0.4-6.1,0.4-14.4,2.4-24.8c2-10.4,4.4-21.7,7.1-33.7c-1.5-0.6-3.2-1-5.1-1.1c-1.9-0.1-4.1-0.2-6.6-0.2c-5.7,0-11.3,0.6-16.8,1.9
	c-5.5,1.3-12.1,3.1-19.9,5.4c-6.1,16.4-13.1,32.4-20.9,47.9c-7.8,15.5-16.2,29.2-25.3,41c-9.1,11.8-18.5,21.3-28.3,28.5
	c-9.8,7.2-19.7,10.8-29.6,10.8c-3.4,0-5.9-0.5-7.6-1.4c-1.7-0.9-2.5-1.7-2.5-2.4c0-0.4,0.1-0.8,0.3-1.1c0.2-0.3,0.3-0.7,0.3-1.1
	c0.8,0.4,1.8,0.9,3,1.4c1.2,0.5,2.6,0.8,4.3,0.8c4.2,0,9.5-3,16-9c6.4-6,13.3-14.2,20.6-24.7c7.3-10.4,14.5-22.7,21.7-36.8
	c7.2-14.1,13.7-29.2,19.6-45.2c-1.9,0.6-4.9,0.9-8.9,0.9c-6.1,0-11.3-0.5-15.7-1.6c-4.3-1.1-7.9-2.3-10.8-3.6
	c-2.8-1.4-5.2-2.9-7-4.6c-1.8-1.7-3.1-3.2-4-4.4c2.3,1.1,6,2.1,11.1,2.9c5.1,0.8,11.1,1.2,18,1.2c3.6,0,7.1-0.3,10.4-0.8
	c3.4-0.6,7.2-1.6,11.4-3.2c3.8-12.1,7.7-24.5,11.7-37.3c4-12.8,6-25.3,6-37.5c0-12.7-2.7-22.3-8.2-28.9c-5.5-6.6-14.2-10-26.3-10
	c-8.6,0-16.5,1.6-23.6,4.7c-7.1,3.2-13.4,7.2-19,12.2c-5.6,5-10.4,10.7-14.4,17.1c-4,6.4-7.3,12.9-10,19.3
	c-2.6,6.4-4.6,12.7-5.9,18.8c-1.3,6.1-1.9,11.4-1.9,15.8c0,6.5,0.6,11.6,1.9,15.2c1.3,3.6,2.2,6.1,2.8,7.6v0.3
	c-4.9-1.5-9.2-3.5-13-6C232.1,328.9,229.2,325.8,226.6,321.9z M868.2,284.6c0.2-0.8,0.9-1.2,1.6-1.1l20.5,4.4l-2.9-21.5
	c-0.1-0.8,0.4-1.5,1.2-1.6c0.8-0.1,1.5,0.4,1.6,1.2l3.1,22.6l3.2,3.2l-2.6-19c-0.1-0.8,0.4-1.5,1.2-1.6c0.8-0.1,1.5,0.4,1.6,1.2
	l3.1,22.6l3.2,3.2l-2.6-19c-0.1-0.8,0.4-1.5,1.2-1.6c0.8-0.1,1.5,0.4,1.6,1.2l3.1,22.6l3.2,3.2l-2.6-19c-0.1-0.8,0.4-1.5,1.2-1.6
	c0.8-0.1,1.5,0.4,1.6,1.2l3.1,22.6l3.2,3.2l-2.6-19c-0.1-0.8,0.4-1.5,1.2-1.6c0.8-0.1,1.5,0.4,1.6,1.2l3.1,22.6l46.7,46.7l48.1-48.1
	l3.1-22.6c0.1-0.8,0.8-1.3,1.6-1.2c0.8,0.1,1.3,0.8,1.2,1.6l-2.6,19l3.2-3.2l3.1-22.6c0.1-0.8,0.8-1.3,1.6-1.2
	c0.8,0.1,1.3,0.8,1.2,1.6l-2.6,19l3.2-3.2l3.1-22.6c0.1-0.8,0.8-1.3,1.6-1.2c0.8,0.1,1.3,0.8,1.2,1.6l-2.6,19l3.2-3.2l3.1-22.6
	c0.1-0.8,0.8-1.3,1.6-1.2c0.8,0.1,1.3,0.8,1.2,1.6l-2.6,19l3.2-3.2l3.1-22.6c0.1-0.8,0.8-1.3,1.6-1.2c0.8,0.1,1.3,0.8,1.2,1.6
	l-2.9,21.5l20.5-4.4c0.7-0.2,1.5,0.3,1.6,1.1c0.2,0.8-0.3,1.5-1.1,1.6l-20.9,4.5c-0.1,0.1-0.2,0.2-0.3,0.3l-2.5,2.5l16.6-3.5
	c0.8-0.2,1.5,0.3,1.6,1.1c0.2,0.8-0.3,1.5-1.1,1.6l-20.8,4.4l-2.9,2.9l16.6-3.5c0.8-0.2,1.5,0.3,1.6,1.1c0.2,0.8-0.3,1.5-1.1,1.6
	l-20.8,4.4l-2.9,2.9l16.6-3.5c0.7-0.2,1.5,0.3,1.6,1.1c0.2,0.8-0.3,1.5-1.1,1.6l-20.8,4.4l-2.9,2.9l16.6-3.5
	c0.8-0.2,1.5,0.3,1.6,1.1c0.2,0.8-0.3,1.5-1.1,1.6l-20.8,4.4L968.6,364l72.6,72.6l-8-19.1c-0.4-0.9,0.1-2,1-2.4c0.9-0.4,2,0.1,2.4,1
	l11.6,27.7c0.3,0.7,0.1,1.5-0.4,2c-0.4,0.3-0.8,0.5-1.3,0.5c-0.3,0-0.5-0.1-0.7-0.2l-27.7-12.1c-0.9-0.4-1.4-1.5-1-2.4
	c0.4-0.9,1.5-1.4,2.4-1l18.7,8.2l-72.3-72.3L895,437.5l18.7-8.2c0.9-0.4,2,0,2.4,1c0.4,0.9,0,2-1,2.4l-27.7,12.1
	c-0.2,0.1-0.5,0.2-0.7,0.2c-0.5,0-0.9-0.2-1.3-0.5c-0.5-0.5-0.7-1.3-0.4-2l11.6-27.7c0.4-0.9,1.5-1.4,2.4-1c0.9,0.4,1.4,1.5,1,2.4
	l-8,19.1l71.2-71.2L916,316.6l-20.8-4.4c-0.8-0.2-1.2-0.9-1.1-1.6c0.2-0.8,0.9-1.2,1.6-1.1l16.6,3.5l-2.9-2.9l-20.8-4.4
	c-0.8-0.2-1.2-0.9-1.1-1.6c0.2-0.8,0.9-1.2,1.6-1.1l16.6,3.5l-2.9-2.9l-20.8-4.4c-0.8-0.2-1.2-0.9-1.1-1.6c0.2-0.8,0.9-1.2,1.6-1.1
	l16.6,3.5l-2.9-2.9l-20.8-4.4c-0.8-0.2-1.2-0.9-1.1-1.6c0.2-0.8,0.9-1.2,1.6-1.1l16.6,3.5l-2.5-2.5c-0.1-0.1-0.2-0.2-0.3-0.3
	l-20.9-4.5C868.5,286.1,868,285.3,868.2,284.6z M450.4,360.5c-2.7,8.7-4.1,16.1-4.1,22.2c0,7.6,2,13.5,6,17.8
	c4,4.2,9.2,6.3,15.5,6.3c3.2,0,7.1-2.9,11.7-8.7c4.6-5.8,9.3-12.7,14.1-20.7c4.7-8,9.2-16.2,13.3-24.5c4.1-8.3,7.3-14.9,9.6-19.8
	h0.6c-1.9,6.1-4,12.4-6.3,18.8c-2.3,6.4-4.5,12.6-6.6,18.5c-2.1,5.9-3.9,11.3-5.2,16.3c-1.4,5-2.1,9-2.1,12.2c0,2.1,0.7,3.8,2.1,5.1
	c1.4,1.3,3,2.2,4.7,2.8c1.8,0.6,3.5,1.1,5.2,1.3c1.7,0.2,2.8,0.3,3.5,0.3c2.3,0,5.2-1.5,8.5-4.4c3.4-3,7-6.7,10.9-11.4
	c3.9-4.6,7.9-9.7,11.9-15.2c4-5.5,7.7-10.6,11.1-15.5c3.4-4.8,6.2-9.2,8.5-13c0.1-0.2,0.3-0.5,0.4-0.7c-2.9,8.9-5.9,18.2-9.1,27.9
	c-3.7,11.2-7.2,21.8-10.4,31.8c-3.3,10-6,18.9-8.1,26.6c-2.1,7.7-3.2,13-3.2,16c0,0.6,0.7,1.9,2.1,4c1.4,2,3.1,4.1,5.1,6.3
	c2,2.2,4.1,4.2,6.3,6c2.2,1.8,4.2,2.9,5.9,3.3c-0.2-1.7-0.3-2.9-0.3-3.6c0-0.7,0-1.6,0-2.7c0-3.6,1.6-10.9,4.9-21.8
	c3.3-11,7.1-23.3,11.5-37c5.9-12.9,11.7-24.8,17.4-35.7c5.7-11,10.9-20.5,15.7-28.5c4.7-8,8.9-14.2,12.3-18.7
	c3.5-4.4,6.1-6.6,7.8-6.6c3,0,4.7,2.1,5.2,6.3c0.5,4.2,0.4,9.2-0.5,14.9c-0.8,5.7-2.1,11.4-3.8,17.1c-1.7,5.7-3.3,10-4.7,13
	c-5.3,2.3-10.2,4.7-14.7,7.3c-4.5,2.5-8.5,5.2-12,8.1c-3.5,2.8-6.2,5.7-8.2,8.5c-2,2.8-3,5.6-3,8.4c0,2.5,1.5,5,4.4,7.3
	c3,2.3,7.2,3.5,12.7,3.5c9.3,0,17.6-4.2,24.8-12.7c7.3-8.4,14-19.1,20.1-31.9c4.4-1.9,8.6-3.4,12.7-4.4c2.1-0.6,4.1-1.1,6.1-1.6
	c-1.8,5.6-3.7,11.2-5.6,17.1c-3.7,11.2-7.2,21.8-10.4,31.8c-3.3,10-6,18.9-8.1,26.6c-2.1,7.7-3.2,13-3.2,16c0,0.6,0.7,1.9,2.1,4
	c1.4,2,3.1,4.1,5.1,6.3c2,2.2,4.1,4.2,6.3,6c2.2,1.8,4.2,2.9,5.9,3.3c-0.2-1.7-0.3-2.9-0.3-3.6c0-0.7,0-1.6,0-2.7
	c0-3.6,1.6-10.9,4.9-21.8c3.3-11,7.1-23.3,11.5-37c5.9-12.9,11.7-24.8,17.4-35.7c5.7-11,10.9-20.5,15.7-28.5
	c4.7-8,8.9-14.2,12.3-18.7c3.5-4.4,6.1-6.6,7.8-6.6c3,0,4.7,2.1,5.2,6.3c0.5,4.2,0.4,9.2-0.5,14.9c-0.8,5.7-2.1,11.4-3.8,17.1
	c-1.7,5.7-3.3,10-4.7,13c-5.3,2.3-10.2,4.7-14.7,7.3c-4.5,2.5-8.5,5.2-12,8.1c-3.5,2.8-6.2,5.7-8.2,8.5c-2,2.8-3,5.6-3,8.4
	c0,2.5,1.5,5,4.4,7.3c3,2.3,7.2,3.5,12.7,3.5c9.3,0,17.6-4.2,24.8-12.7c7.3-8.4,14-19.1,20.1-31.9c4.4-1.9,8.6-3.4,12.7-4.4
	c2.3-0.6,4.4-1.2,6.5-1.7c-0.6,2-1.2,3.9-1.7,5.8c-1.7,5.7-3.1,10.8-4.1,15.3c-1.1,4.5-1.6,7.9-1.6,10c0,1.3,0.6,2.9,1.9,4.9
	c1.3,2,2.8,3.8,4.6,5.5c1.8,1.7,3.7,3.2,5.9,4.4c2.1,1.3,4,1.9,5.7,1.9c3.2,0,6.9-2.3,11.1-7c4.2-4.6,8.6-10.5,13.3-17.7
	c4.6-7.2,9.3-14.9,13.9-23.1c4.6-8.2,8.7-16,12.3-23.4c-1.9,7.6-4.2,15.6-6.8,23.9c-2.6,8.3-5.4,16.7-8.4,25.1
	c-11,9.1-21.7,18.5-32.1,28.3c-10.4,9.8-19.8,19.3-28,28.6c-8.2,9.3-14.9,17.9-20.1,25.9c-5.2,8-7.9,14.8-8.1,20.2
	c-0.2,3.4,0.2,6.1,1.1,8.2c0.9,2.1,2.2,3.7,3.6,4.7c1.5,1.1,3.1,1.8,4.9,2.2c1.8,0.4,3.5,0.6,5.2,0.6c9.9,0,19.2-2.4,27.8-7.3
	c8.6-4.9,16.9-12.4,24.8-22.8c7.9-10.3,15.6-23.6,23.1-39.9c7.5-16.2,15-35.6,22.6-58.2c6.5-4.6,13.2-9.2,19.9-13.6
	c6.7-4.4,13.7-8.7,20.9-13l0.9-4.4c-6.1,3.4-12.5,7.2-19.3,11.4c-6.8,4.2-13.7,9-20.9,14.2c2.5-7.4,4.7-14.3,6.6-20.9
	c1.9-6.5,3.5-12.2,4.7-17.1c1.3-4.8,2.2-8.8,2.8-11.9c0.6-3.1,0.9-4.9,0.9-5.5c0-0.6-0.8-1.5-2.5-2.5c-1.7-1.1-3.6-2.1-5.7-3.2
	c-2.1-1.1-4.3-2-6.5-2.8c-2.2-0.8-3.7-1.5-4.6-1.9c-0.6,3-1.3,6.1-1.9,9.5c-0.6,3.4-1.5,7-2.5,10.8c-4.9,9.3-9.8,18.5-14.7,27.5
	c-5,9.1-9.6,17.1-14.1,24.2c-4.4,7.1-8.3,12.8-11.7,17.2c-3.4,4.4-5.7,6.6-7,6.6c-1.9,0-2.8-1.6-2.8-4.7c0-2.3,0.5-5.6,1.6-10
	c1.1-4.3,2.4-9.2,4.1-14.6c1.7-5.4,3.4-11,5.2-16.8c1.8-5.8,3.5-11.3,5.2-16.4c1.7-5.2,3.1-9.7,4.1-13.6c1.1-3.9,1.6-6.7,1.6-8.4
	c0-0.6-0.8-1.7-2.5-3.2c-1.7-1.5-3.6-3.1-5.9-4.7c-2.2-1.7-4.5-3.2-6.8-4.6c-2.3-1.4-4-2.3-5.1-2.7c-0.2,2.7-0.9,6.6-2.1,11.5
	c-1.2,5-2.6,10.4-4.3,16.3c-1.7,5.9-3.5,12-5.4,18.3c-0.9,3.1-1.8,6.1-2.7,9.1c-5.8,1.3-12.1,3.1-19.1,5.5
	c2.5-6.7,4.3-13.5,5.4-20.4c1.1-6.9,1-12.9-0.2-18.2c-1.2-5.3-3.6-9.3-7.3-12c-3.7-2.7-8.9-3.4-15.7-1.9c-4.4,1.1-9,4.3-13.6,9.8
	c-4.6,5.5-9.3,12-13.9,19.6c-4.6,7.6-9.1,15.7-13.4,24.4c-4.3,8.6-8.2,16.6-11.5,23.7h-0.3c2.3-7.2,4.8-14.5,7.6-22
	c2.7-7.5,5.3-14.5,7.6-21c2.3-6.5,4.3-12.2,5.9-16.9c1.6-4.7,2.4-8.1,2.4-10c0-0.6-0.8-1.8-2.4-3.5c-1.6-1.7-3.4-3.4-5.4-5.1
	c-2-1.7-4.1-3.3-6.3-4.7c-2.2-1.5-4-2.3-5.2-2.5c0,3.2-1.1,8.7-3.2,16.6c-2.1,7.9-4.8,16.9-8.1,27c-1.2,3.8-2.5,7.7-3.8,11.6
	c-5.7,1.3-12,3.1-18.8,5.4c2.5-6.7,4.3-13.5,5.4-20.4c1.1-6.9,1-12.9-0.2-18.2c-1.2-5.3-3.6-9.3-7.3-12c-3.7-2.7-8.9-3.4-15.7-1.9
	c-4.4,1.1-9,4.3-13.6,9.8c-4.6,5.5-9.3,12-13.9,19.6c-4.6,7.6-9.1,15.7-13.4,24.4c-4.3,8.6-8.2,16.6-11.5,23.7h-0.3
	c2.3-7.2,4.8-14.5,7.6-22c2.7-7.5,5.3-14.5,7.6-21c2.3-6.5,4.3-12.2,5.9-16.9c1.6-4.7,2.4-8.1,2.4-10c0-0.6-0.8-1.8-2.4-3.5
	c-1.6-1.7-3.4-3.4-5.4-5.1c-2-1.7-4.1-3.3-6.3-4.7c-2.2-1.5-4-2.3-5.2-2.5c0,3.2-1.1,8.7-3.2,16.6c-1.5,5.8-3.4,12.2-5.6,19.2
	c-4.8,8.5-9.8,16.5-15,23.9c-5.3,7.5-10.2,14-14.7,19.6c-4.5,5.6-8.4,10-11.7,13.3c-3.3,3.3-5.3,4.9-6.2,4.9c-0.6,0-0.4-2,0.6-5.9
	c1.1-3.9,2.5-8.8,4.4-14.8c1.9-5.9,4-12.4,6.3-19.4c2.3-7,4.5-13.5,6.6-19.5c2.1-6,3.9-11.2,5.4-15.4c1.5-4.2,2.2-6.6,2.2-7
	c0-0.4-0.8-1-2.5-1.7c-1.7-0.7-3.7-1.5-6-2.4c-2.3-0.8-4.6-1.6-7-2.2c-2.3-0.6-4-1.2-5.1-1.6l-2.5,5.4c-0.8-0.6-2.4-1.4-4.6-2.2
	s-4.7-1.6-7.4-2.4c-2.7-0.7-5.5-1.4-8.2-1.9c-2.7-0.5-5.1-0.8-7-0.8c-6.3,0-12.4,2.9-18.3,8.6c-5.9,5.7-11.1,12.6-15.7,20.6
	C456.7,343.5,453.1,351.8,450.4,360.5z M603.5,393.2c-4.6,6-9.4,8.9-14.2,8.9c-1.7,0-3.1-0.4-4.1-1.1c-1.1-0.7-1.6-1.8-1.6-3.3
	c0-4.6,3.2-9.2,9.6-13.9c6.4-4.7,14.1-9.1,22.9-13.3C612.3,379.7,608.1,387.2,603.5,393.2z M703.7,393.2c-4.6,6-9.4,8.9-14.2,8.9
	c-1.7,0-3.1-0.4-4.1-1.1c-1.1-0.7-1.6-1.8-1.6-3.3c0-4.6,3.2-9.2,9.6-13.9c6.4-4.7,14.1-9.1,22.9-13.3
	C712.6,379.7,708.4,387.2,703.7,393.2z M789.1,430.4c-5.9,13.2-12,24.9-18.3,35.3c-6.3,10.3-12.8,18.7-19.3,25
	c-6.5,6.3-13,9.5-19.3,9.5c-2.1,0-4.3-0.8-6.5-2.5c-2.2-1.7-3.1-5-2.7-9.8c0.2-4.2,2.4-9.9,6.6-17.1c4.2-7.2,10-15.1,17.2-23.7
	c7.3-8.6,15.9-17.9,25.8-27.7c9.9-9.8,20.9-19.5,32.9-28.9C800.5,403.9,795,417.2,789.1,430.4z M469.5,378.1
	c1.6-6.3,3.8-13.2,6.8-20.7c3-7.5,6.4-14.4,10.4-20.7c4-6.3,8.4-11.6,13.1-15.8c4.7-4.2,9.8-6.3,15-6.3c2.7,0,4.8,0.9,6.3,2.8
	c-5.5,12-10.9,23.1-16.3,33.4c-5.4,10.2-10.4,19-15,26.3c-4.6,7.3-8.6,13-12,17.1c-3.4,4.1-5.8,6.2-7.3,6.2c-2.1,0-3.2-2.1-3.3-6.3
	C467.2,389.7,467.9,384.4,469.5,378.1z M965,297.1c0.1,0.3,0.3,0.5,0.5,0.7c0,0.6,0.3,1.1,0.9,1.4c0.2,0.1,0.4,0.1,0.5,0.1
	c0.5,0,1.1-0.3,1.3-0.9l0.1-0.2c3-7.4,10.1-24.7,11.5-29.7l0.1-0.2c1.4-5,2.4-10.6,0.1-13.4c-0.7-0.8-2-1.7-4.3-1.5
	c-3,0.3-5.7,2-7.7,5c-1.5,2.2-2.5,4.8-2.9,7.5c-2.7-5.5-5.6-9.9-8.9-10.3c-1.1-0.1-2.8,0.2-4.3,2.4c-5.8,8.1,1.7,19.9,7.7,29.4
	C961.8,291.1,964,294.6,965,297.1z M954,259.6c0.8-1.1,1.3-1.2,1.6-1.2c0.1,0,0.1,0,0.1,0c3.2,0.3,7.5,10.3,8.9,13.5
	c0.3,0.6,0.5,1.1,0.6,1.4c0.3,0.7,1.1,1,1.8,0.7c0.7-0.3,1.1-1,0.8-1.7c-1.1-3.6-0.1-9,2.3-12.5c1.1-1.6,2.9-3.5,5.6-3.8
	c1.2-0.1,1.6,0.3,1.9,0.6c1.7,2.1-0.1,8.7-0.6,10.9l-0.1,0.2c-1.2,4.3-7,18.7-10.2,26.6c-1.2-2.4-3-5.3-5-8.5
	C956.3,277.1,949.3,266.2,954,259.6z M682.4,808.2H550.6v29.5h-61.7l50.6,237.4h132.9c44.3,0,58.7-11.4,58.7-59.8V866.9
	C731.1,835.2,717.9,808.2,682.4,808.2z M719.7,1015.3c0,32.1-4.4,48-35.8,48H562V819.3h120.4c23.3,0,37.3,15.1,37.3,47.6V1015.3z
	 M275.7,574.8c-4.1-4.1-6.2-9.1-6.2-15.1c0-5.8,2.1-10.7,6.2-14.7c4.1-4,9.1-6,14.9-6c5.8,0,10.8,2,14.9,6c4.1,4,6.2,8.9,6.2,14.7
	c0,6-2.1,11-6.2,15.1c-4.1,4.1-9.1,6.2-14.9,6.2C284.8,580.9,279.9,578.9,275.7,574.8z M1065.1,900.2c0.2,0.8-0.3,1.5-1.1,1.6
	l-20.9,4.5c-0.1,0.1-0.2,0.2-0.3,0.3l-2.5,2.5l16.6-3.5c0.8-0.2,1.5,0.3,1.6,1.1c0.2,0.8-0.3,1.5-1.1,1.6l-20.8,4.4l-2.9,2.9
	l16.6-3.5c0.8-0.2,1.5,0.3,1.6,1.1c0.2,0.8-0.3,1.5-1.1,1.6l-20.8,4.4l-2.9,2.9l16.6-3.5c0.7-0.2,1.5,0.3,1.6,1.1
	c0.2,0.8-0.3,1.5-1.1,1.6l-20.8,4.4l-2.9,2.9l16.6-3.5c0.8-0.2,1.5,0.3,1.6,1.1c0.2,0.8-0.3,1.5-1.1,1.6l-20.8,4.4l-48.7,48.7
	l72.6,72.6l-8-19.1c-0.4-0.9,0.1-2,1-2.4c0.9-0.4,2,0.1,2.4,1l11.6,27.7c0.3,0.7,0.1,1.5-0.4,2c-0.4,0.3-0.8,0.5-1.3,0.5
	c-0.3,0-0.5-0.1-0.7-0.2l-27.7-12.1c-0.9-0.4-1.4-1.5-1-2.4c0.4-0.9,1.5-1.4,2.4-1l18.7,8.2l-72.3-72.3l-70.9,70.9l18.7-8.2
	c0.9-0.4,2,0,2.4,1c0.4,0.9,0,2-1,2.4l-27.7,12.1c-0.2,0.1-0.5,0.2-0.7,0.2c-0.5,0-0.9-0.2-1.3-0.5c-0.5-0.5-0.7-1.3-0.4-2
	l11.6-27.7c0.4-0.9,1.5-1.4,2.4-1c0.9,0.4,1.4,1.5,1,2.4l-8,19.1l71.2-71.2L916,933.6l-20.8-4.4c-0.8-0.2-1.2-0.9-1.1-1.6
	c0.2-0.8,0.9-1.2,1.6-1.1l16.6,3.5l-2.9-2.9l-20.8-4.4c-0.8-0.2-1.2-0.9-1.1-1.6c0.2-0.8,0.9-1.2,1.6-1.1l16.6,3.5l-2.9-2.9
	l-20.8-4.4c-0.8-0.2-1.2-0.9-1.1-1.6c0.2-0.8,0.9-1.2,1.6-1.1l16.6,3.5l-2.9-2.9l-20.8-4.4c-0.8-0.2-1.2-0.9-1.1-1.6
	c0.2-0.8,0.9-1.2,1.6-1.1l16.6,3.5l-2.5-2.5c-0.1-0.1-0.2-0.2-0.3-0.3l-20.9-4.5c-0.8-0.2-1.2-0.9-1.1-1.6c0.2-0.8,0.9-1.2,1.6-1.1
	l20.5,4.4l-2.9-21.5c-0.1-0.8,0.4-1.5,1.2-1.6c0.8-0.1,1.5,0.4,1.6,1.2l3.1,22.6l3.2,3.2l-2.6-19c-0.1-0.8,0.4-1.5,1.2-1.6
	c0.8-0.1,1.5,0.4,1.6,1.2l3.1,22.6l3.2,3.2l-2.6-19c-0.1-0.8,0.4-1.5,1.2-1.6c0.8-0.1,1.5,0.4,1.6,1.2l3.1,22.6l3.2,3.2l-2.6-19
	c-0.1-0.8,0.4-1.5,1.2-1.6c0.8-0.1,1.5,0.4,1.6,1.2l3.1,22.6l3.2,3.2l-2.6-19c-0.1-0.8,0.4-1.5,1.2-1.6c0.8-0.1,1.5,0.4,1.6,1.2
	l3.1,22.6l46.7,46.7l48.1-48.1l3.1-22.6c0.1-0.8,0.8-1.3,1.6-1.2c0.8,0.1,1.3,0.8,1.2,1.6l-2.6,19l3.2-3.2l3.1-22.6
	c0.1-0.8,0.8-1.3,1.6-1.2c0.8,0.1,1.3,0.8,1.2,1.6l-2.6,19l3.2-3.2l3.1-22.6c0.1-0.8,0.8-1.3,1.6-1.2c0.8,0.1,1.3,0.8,1.2,1.6
	l-2.6,19l3.2-3.2l3.1-22.6c0.1-0.8,0.8-1.3,1.6-1.2c0.8,0.1,1.3,0.8,1.2,1.6l-2.6,19l3.2-3.2l3.1-22.6c0.1-0.8,0.8-1.3,1.6-1.2
	c0.8,0.1,1.3,0.8,1.2,1.6l-2.9,21.5l20.5-4.4C1064.2,898.9,1064.9,899.4,1065.1,900.2z M965.5,914.7c0,0.6,0.3,1.1,0.9,1.4
	c0.2,0.1,0.4,0.1,0.5,0.1c0.5,0,1.1-0.3,1.3-0.9l0.1-0.2c3-7.4,10.1-24.7,11.5-29.7l0.1-0.2c1.4-5,2.4-10.6,0.1-13.4
	c-0.7-0.8-2-1.7-4.3-1.5c-3,0.3-5.7,2-7.7,5c-1.5,2.2-2.5,4.8-2.9,7.5c-2.7-5.5-5.6-9.9-8.9-10.3c-1.1-0.1-2.8,0.2-4.3,2.4
	c-5.8,8.1,1.7,19.9,7.7,29.4c2.3,3.7,4.6,7.2,5.5,9.7C965.1,914.4,965.3,914.6,965.5,914.7z M954,876.5c0.8-1.1,1.3-1.2,1.6-1.2
	c0.1,0,0.1,0,0.1,0c3.2,0.3,7.5,10.3,8.9,13.5c0.3,0.6,0.5,1.1,0.6,1.4c0.3,0.7,1.1,1,1.8,0.7c0.7-0.3,1.1-1,0.8-1.7
	c-1.1-3.6-0.1-9,2.3-12.5c1.1-1.6,2.9-3.5,5.6-3.8c1.2-0.1,1.6,0.3,1.9,0.6c1.7,2.1-0.1,8.7-0.6,10.9l-0.1,0.2
	c-1.2,4.3-7,18.7-10.2,26.6c-1.2-2.4-3-5.3-5-8.5C956.3,894.1,949.3,883.1,954,876.5z M12.9,507.5v281.4l4.1-1.2
	c7.5-2.1,15.4-1.7,22.7,1.1l2,0.8l1.5-1.6c7-7.5,16.8-11.8,26.8-11.8c4.9,0,9.7,1,14.2,2.9l0.8,0.3l0.9-0.1
	c6.4-0.8,12.5,0.1,18.3,2.5l1.2,0.5l1.2-0.5c4.5-1.9,9.1-2.8,13.9-2.8c6.8,0,13.4,1.9,19.2,5.6l1.7,1.1l1.7-1.1
	c5.8-3.6,12.5-5.6,19.2-5.6c5.5,0,10.9,1.2,15.9,3.7l1.4,0.7l1.4-0.7c5-2.5,10.4-3.7,15.9-3.7c4.8,0,9.5,0.9,13.9,2.8l1.2,0.5
	l1.2-0.5c4.5-1.9,9.1-2.8,13.9-2.8c7.9,0,15.5,2.6,21.9,7.4l1.9,1.5l1.9-1.5c6.4-4.8,14-7.4,21.9-7.4c8.3,0,16.5,3,23.1,8.3l1.8,1.5
	l2-1.2c5.9-3.7,12.6-5.7,19.4-5.7c6.3,0,12.7,1.7,18.2,5l1.1,0.7l1.3-0.3c6.4-1.5,12.9-1.3,19.1,0.7l1.3,0.4l1.2-0.6
	c5.3-2.8,11.2-4.3,17.1-4.3c7.6,0,14.9,2.4,21.2,6.9l1.9,1.4l1.9-1.4c6.3-4.5,13.6-6.9,21.2-6.9c7.4,0,14.7,2.3,20.9,6.7l1.4,1
	l1.6-0.7c4.4-1.8,8.9-2.7,13.6-2.7c11.2,0,21.8,5.2,28.9,14.3l1.3,1.6l2-0.5c5.1-1.2,10.2-1.3,15.3-0.3l1.5,0.3l1.2-1
	c6.7-5.6,15-8.7,23.5-8.7c9.3,0,18.2,3.6,25.1,10.1l1.9,1.7l2.1-1.4c6-4,13-6.1,20-6.1c7.4,0,14.7,2.3,20.9,6.6l2.1,1.5l1.9-1.7
	c6.8-6,15.4-9.3,24.3-9.3c7.8,0,15.2,2.5,21.6,7.2l2.1,1.6l2-1.8c6.9-6.3,15.7-9.8,24.9-9.8c6.7,0,13.3,1.9,19.1,5.5l1.6,1l1.6-0.8
	c5.3-2.7,10.9-4.1,16.7-4.1c6.7,0,13.4,1.9,19.2,5.5l2.2,1.4l1.8-1.8c7-7,16.2-10.9,25.9-10.9c5.8,0,11.5,1.4,16.7,4.1l2.2,1.1
	l1.7-1.8c7.1-7.7,16.9-12.1,27.1-12.1c10.4,0,20.4,4.6,27.5,12.5l0.7,0.8l1.1,0.2c17.5,3.1,30.7,18.7,30.7,36.3c0,0.2,0,0.4,0,0.7
	l0,1.3l0.5,0.8c2.9,4.7,4.6,9.8,5.1,15.1l0.3,2.9h178.3V507.5H12.9z M1060.6,843.4H894.6c-0.9-4.9-2.6-9.7-5.1-14.1
	c0-0.1,0-0.2,0-0.3c0-20.4-14.9-38.4-34.9-42.5c-8.3-8.8-19.7-13.9-31.6-13.9c-11.2,0-22,4.5-30.2,12.5c-5.5-2.5-11.5-3.8-17.5-3.8
	c-10.6,0-20.7,3.9-28.7,11c-6.3-3.4-13.3-5.3-20.5-5.3c-6.2,0-12.4,1.4-18.1,4.1c-6.4-3.6-13.6-5.5-20.9-5.5
	c-9.9,0-19.5,3.5-27.3,9.8c-7-4.6-15-7-23.3-7c-9.6,0-19,3.3-26.6,9.3c-6.8-4.2-14.6-6.4-22.5-6.4c-7.5,0-14.9,2-21.5,5.8
	c-7.8-6.6-17.6-10.2-27.7-10.2c-9.5,0-18.8,3.3-26.4,9.2c-4.8-0.8-9.7-0.7-14.5,0.2c-8.3-9.7-20.1-15.2-32.7-15.2
	c-4.9,0-9.8,0.9-14.4,2.5c-7-4.5-15-6.9-23.2-6.9c-8.2,0-16.1,2.4-23.1,6.8c-7-4.5-14.9-6.8-23.1-6.8c-6.5,0-13,1.5-18.9,4.5
	c-6.5-1.8-13.3-2.1-19.9-0.7c-6.3-3.4-13.3-5.2-20.4-5.2c-7.3,0-14.5,1.9-20.9,5.5c-7.4-5.4-16.3-8.4-25.3-8.4
	c-8.5,0-16.7,2.5-23.8,7.3c-7.1-4.8-15.3-7.3-23.8-7.3c-5.2,0-10.3,0.9-15.2,2.8c-4.9-1.9-10-2.8-15.2-2.8c-6,0-11.8,1.2-17.3,3.7
	c-5.5-2.5-11.3-3.7-17.3-3.7c-7.3,0-14.5,1.9-21,5.5c-6.4-3.6-13.6-5.5-21-5.5c-5.2,0-10.3,0.9-15.2,2.8c-6.2-2.4-12.7-3.3-19.5-2.6
	c-5.1-2.1-10.5-3.1-15.9-3.1c-11.1,0-21.9,4.5-30,12.3c-6.7-2.2-13.8-2.8-20.7-1.5V514h1041.3V843.4z M44.6,753.6
	c2.3,2.1,5.2,3.5,8.6,4.1c3.4,0.6,6.8,0.3,10.1-0.9c3.3-1.2,6.3-3.4,9-6.5c2.6-3.2,4.5-7.4,5.5-12.7c2.2,3.2,5.1,6.2,8.6,8.7
	c3.5,2.6,7.4,4.7,11.7,6.5c4.3,1.8,8.8,3.2,13.7,4.1c4.9,0.9,9.9,1.4,15,1.4c9.7,0,19.5-1.8,29.4-5.3c9.8-3.5,18.6-9.3,26.3-17.3
	c4.8,1.5,10.2,2.3,16.2,2.3c7.5,0,14.6-1.2,21.3-3.7c0.7-0.2,1.3-0.5,1.9-0.8c2.3,4.5,5.3,8.3,9.2,11.4c4,3.2,8.6,5.7,13.8,7.4
	c5.2,1.7,10.8,2.6,16.8,2.6c6.3,0,12.7-1.1,19.1-3.2c6.4-2.1,12.7-5.9,18.8-11.2c6.2-5.3,12.1-12.3,17.7-21
	c5.6-8.7,10.7-19.7,15.1-33.1c0.2-0.6,0.3-1.1,0.5-1.6l11.8-31.7c2.1,0.7,4.2,1.4,6.5,2.1c2.3,0.7,4.3,1.7,6,2.9
	c1.7,1.3,2.9,2.9,3.7,4.9c0.8,2,0.6,4.5-0.4,7.6L349.3,702c-2.1,6-3.1,11.5-3.1,16.4c0,5.6,1,10.7,3.1,15.2
	c2.1,4.5,4.9,8.3,8.5,11.4c3.6,3.1,7.7,5.6,12.4,7.4c4.7,1.8,9.7,2.7,15,2.7c13.1,0,25.3-5.1,36.6-15.4c1.4,1.6,3,3,4.7,4.3
	c4.5,3.6,9.7,6.3,15.7,8.2c5.9,1.9,12.3,2.8,18.9,2.8c10.5,0,20.2-2.3,29.2-6.8c2.1,2.8,4.6,4.7,7.7,5.8c4.3,1.5,8.8,1.2,13.6-0.9
	c4.8-2.1,8.5-6.6,11-13.5l30.8-86.4c2.7-5,6.1-9.1,10.1-12.3c4-3.2,8-4.9,11.9-4.9c2.6,0,4.7,0.8,6.3,2.4c1.6,1.6,2.4,3.6,2.4,6
	c0,1.7-0.3,3.2-1,4.6l-18.5,52.6v-0.3c-2.1,6.2-3.1,11.8-3.1,16.9c0,6,1.2,11.3,3.6,15.9c2.4,4.6,5.6,8.5,9.5,11.5
	c3.9,3.1,8.4,5.4,13.5,6.9c5,1.5,10.3,2.3,15.8,2.3c6.2,0,12.4-1.1,18.8-3.2c6.4-2.1,12.7-5.8,18.8-11c0.2-0.2,0.4-0.4,0.6-0.5
	c0.7,0.7,1.4,1.4,2.1,2.1c3.7,3.3,7.9,5.9,12.8,7.7c4.9,1.8,10,2.7,15.5,2.7c5.8,0,11.7-1,17.7-3.1c6-2.1,11.5-5.3,16.7-9.7
	c3.9,4.6,8.9,8.3,14.9,11c6,2.7,12.3,4.1,19,4.1c6.3,0,12.8-1.2,19.5-3.6c6.1-2.2,12.1-5.7,18-10.5c0.1,0.1,0.2,0.3,0.4,0.4
	c3.5,3.5,7.7,6.3,12.6,8.3c4.9,2.1,10.1,3.1,15.8,3.1c5.8,0,11.6-1.2,17.3-3.5c5.7-2.3,10.9-5.5,15.5-9.6c1.9,3.2,4.4,5.9,7.6,7.9
	c3.2,2.1,6.5,3.6,9.9,4.7c3.4,1.1,6.7,1.8,9.9,2.2c3.2,0.3,5.8,0.5,7.8,0.5c5.3,0,10.8-0.8,16.4-2.4c5.6-1.6,11.2-4.3,16.7-7.9
	c0.4-0.3,0.8-0.5,1.2-0.8c0.9,1.1,1.9,2.1,2.9,3c3.4,3.1,7.4,5.4,12.1,7.1c4.6,1.6,9.6,2.4,14.9,2.4c5.6,0,11.1-0.9,16.4-2.8
	c-1.4,3.8-2.5,7-3.5,9.6c-0.9,2.6-1.8,5.2-2.7,7.6c-0.9,2.4-1.8,4.9-2.7,7.4c-0.9,2.6-2,5.6-3.2,9.2c-1.9,4.4-4.4,7.9-7.7,10.5
	c-3.2,2.6-6.4,3.8-9.5,3.8s-5.6-1-7.7-3.1c4.8-0.7,8.8-2.6,12.2-5.6c3.3-3.1,5.2-7.6,5.5-13.6c0.2-6.5-1.8-11.8-5.9-15.9
	c-4.1-4.1-9.4-6.2-15.9-6.2c-3.4,0-6.9,0.7-10.4,2.2c-3.5,1.5-6.7,3.6-9.5,6.5c-2.8,2.9-5.1,6.5-6.9,10.8c-1.8,4.3-2.7,9.1-2.7,14.6
	c0,5.6,1,10.9,3.1,15.8s5,9.2,8.8,12.9c3.8,3.8,8.5,6.7,13.8,8.8c5.4,2.1,11.3,3.2,17.8,3.2c4.6,0,9.4-0.6,14.4-1.9
	c5-1.3,9.8-3.5,14.5-6.5c4.7-3.1,9.1-7.3,13.3-12.6c4.2-5.3,7.7-12,10.6-20l56.2-160c1.5-4.8,1.9-9,1.2-12.6
	c-0.8-3.6-2.3-6.5-4.5-8.8c-2.2-2.3-4.9-3.8-7.9-4.6c-3.1-0.8-6.2-0.7-9.4,0.1c-3.2,0.9-6.1,2.6-8.8,5.3c-2.7,2.7-4.8,6.2-6.2,10.6
	l-29.7,84.4c-3.9,7-8.1,12-12.4,14.9c-4.4,2.9-8.2,4.4-11.7,4.4c-5,0-7.4-2.5-7.4-7.4c0-0.9,0.1-1.8,0.3-2.9c0.2-1.1,0.5-2.3,1-3.5
	l28.2-80.8c2.1-5.3,2.7-9.8,2.1-13.6c-0.7-3.8-2.1-6.7-4.4-8.8c-2.2-2.1-5-3.5-8.3-4.1c-3.3-0.6-6.7-0.3-10.1,0.8
	c-3.4,1.1-6.5,3.1-9.4,6c-2.8,2.9-4.8,6.7-6,11.3l-28.3,80.2c-3.3,5.7-6.7,10.3-10.1,13.6c-6.2,6-12.1,9-17.9,9
	c-4.6,0-6.9-2.1-6.9-6.4c0-1.9,0.4-4.4,1.3-7.4l28.7-82c2.2-6.5,2.2-11.8,0-15.8c-2.2-4-5.4-6.8-9.5-8.3c-4.1-1.5-8.6-1.8-13.5-0.6
	c-4.9,1.1-8.8,3.5-11.9,7.3c-2.6-1.7-6.3-3.5-11.3-5.3c-5-1.8-11-2.7-18.2-2.7c-8.5,0-16.8,2.4-24.7,7.2
	c-7.9,4.8-13.8,12.1-17.6,21.8l-24.1,67.9c-0.9,2.4-1.5,4.7-1.9,6.9c-0.1,0.6-0.2,1.1-0.3,1.7c-1.5,2.1-3,3.9-4.5,5.5
	c-6.5,6.8-12.7,10.3-18.5,10.3c-2.6,0-4.5-0.8-5.9-2.3c-1.4-1.5-2.1-3.3-2.1-5.4c0-1.7,0.3-3.2,1-4.6l50.5-146.1
	c1.5-4.6,2-8.8,1.3-12.4c-0.7-3.7-2.1-6.7-4.2-9.1c-2.1-2.4-4.7-4.1-7.8-5c-3.1-0.9-6.2-0.9-9.5,0c-3.2,0.9-6.3,2.9-9.2,5.9
	c-2.9,3-5.2,7.2-6.9,12.7l-20.5,59.2c-3.9-4.3-8.6-7.6-14-10c-5.4-2.4-11.1-3.6-17.1-3.6c-4.1,0-8.3,0.6-12.6,1.8
	c-4.3,1.2-8.2,3-11.9,5.4c-3.7,2.4-7,5.4-10,9.1c-3,3.7-5.3,7.9-7.1,12.7l-23.8,67.4c0,0.1-0.1,0.2-0.1,0.3
	c-3.1,5.6-6.4,10.2-9.8,13.7c-6.8,6.9-13,10.4-18.8,10.4c-2.4,0-4.3-0.6-5.8-1.9c-1.5-1.3-2.2-2.9-2.2-4.7c0-1.2,0.3-2.3,0.8-3.3
	l21-59.5c1.5-4.8,2.3-9.4,2.3-13.8c0-5.1-0.9-9.9-2.8-14.4c-1.9-4.4-4.5-8.3-7.8-11.5c-3.3-3.2-7.3-5.8-11.8-7.7
	c-4.5-1.9-9.4-2.8-14.5-2.8c-5.8,0-11.3,1.1-16.4,3.3l13.8-40.5c2.1-5,2.8-9.4,2.3-13.3c-0.5-3.9-1.8-7.1-3.7-9.6
	c-2-2.5-4.5-4.2-7.6-5.1c-3.1-0.9-6.2-0.9-9.5,0c-3.2,0.9-6.3,2.9-9.2,6c-2.9,3.1-5.2,7.4-6.9,12.8l-49.8,139.4
	c-3.7,6.9-7.8,12.5-12.4,16.6c-7.4,6.8-14.9,10.1-22.4,10.1c-4.6,0-8.2-1.2-10.9-3.6c-2.7-2.4-4-5.3-4-8.7c0-2.2,0.3-4.1,1-5.7
	l24.4-68.4h16.7c5.8,0,10.4-1.6,13.8-4.7c3.4-3.2,5.4-6.7,6-10.5c0.6-3.8-0.2-7.3-2.4-10.5c-2.2-3.2-6.1-4.7-11.5-4.7h-11.5
	l16.9-48.2c1.5-5,0.9-9.3-1.9-12.9c-2.8-3.7-6.5-6.1-10.9-7.2c-4.4-1.1-9-0.6-13.7,1.4c-4.7,2.1-8.1,6.3-10.1,12.8L446,607.6h-10.7
	c-6.5,0-11.3,1.6-14.4,4.7c-3.1,3.2-4.8,6.7-5.3,10.5c-0.4,3.8,0.4,7.4,2.4,10.5c2.1,3.2,5,4.7,8.7,4.7h8.5
	c-1.9,5.5-3.6,10.6-5.3,15.3c-1.7,4.7-3.4,9.4-5,14c-1.6,4.6-3.3,9.3-5,14c-1.7,4.7-3.5,9.8-5.3,15.3v-0.3c-0.5,1.4-0.9,2.7-1.2,4.1
	c-2.5,4.4-5,8.3-7.5,11.7c-2.9,3.8-5.8,6.9-8.7,9.1c-2.9,2.2-5.7,3.3-8.5,3.3c-1.9,0-3.2-0.6-4.1-1.9c-0.9-1.3-1.3-2.9-1.3-4.7
	c0-1.9,0.3-3.8,1-5.6l15.1-42c0.9-2.6,1.5-5,1.9-7.3c0.4-2.3,0.6-4.6,0.6-6.8c0-6.2-1.7-11.4-5-15.8s-7.4-8.1-12.2-11.2
	c-4.8-3.1-9.7-5.6-14.9-7.6c-5.1-2-9.5-3.5-13.1-4.5c1.2-3.6,1.4-7.1,0.6-10.4c-0.8-3.3-2.2-6.3-4.2-9c-2.1-2.6-4.6-4.8-7.7-6.4
	c-3.1-1.6-6.3-2.4-9.7-2.4c-5.3,0-9.9,1.5-13.7,4.4c-3.8,2.9-6.5,6.7-7.8,11.3c-0.9,1.9-1.5,3.9-1.9,6.2c-0.4,2.2-0.6,4.3-0.6,6.2
	c0,6.8,2.1,12.9,6.4,18.2l-15.4,41.5c-0.8,1.2-1.5,2.6-2.1,4.2c-3.1,8.4-6.2,15.3-9.4,20.9c-3.2,5.6-6.3,10-9.4,13.5
	c-3.1,3.4-6.1,5.9-9,7.3c-2.9,1.5-5.6,2.2-8.2,2.2c-2.9,0-5.3-0.9-7.1-2.6c-1.8-1.7-2.7-3.8-2.7-6.2c0-1.2,0.3-2.6,0.8-4.1
	l28.2-80.5c2.2-7.3,2.1-13.3-0.5-17.8c-2.6-4.5-6.1-7.3-10.5-8.3c-4.4-1-9.1-0.2-14,2.6c-4.9,2.7-8.5,7.6-10.9,14.6
	c-2.1,6-4.2,12.4-6.5,19.1c-2.3,6.8-4.7,13.5-7.1,20.3c-2.4,6.8-4.7,13.5-7.1,20.1c-1.5,4.2-2.9,8.3-4.2,12.2
	c-1.3,1.7-2.6,3.3-4.1,4.7c-5,4.8-11,7.2-18.2,7.2h-0.3c2.9-5,5.3-10.6,7.1-16.9c1.8-6.3,2.6-12.8,2.4-19.5
	c-0.2-6.7-1.4-13.3-3.7-19.9c-2.3-6.6-6.1-12.7-11.4-18.3c4.3-2.9,8.2-6.4,11.8-10.5c3.6-4.1,6.7-8.5,9.2-13.3
	c2.6-4.8,4.5-9.7,5.9-14.9c1.4-5.1,2.1-10.2,2.1-15.1c0-6.5-1.2-12.3-3.5-17.6c-2.3-5.2-5.4-9.7-9.2-13.5c-3.8-3.8-8.3-6.8-13.3-9
	c-5-2.2-10.4-3.6-16-4.1c-3.4-0.3-8.3-0.4-14.6-0.3c-6.3,0.2-13.2,2.1-20.5,5.6c0-4.3-1.7-7.6-5-10c-3.3-2.4-7.2-3.5-11.5-3.5
	c-4.4,0.1-8.7,1.5-12.9,4.2c-4.3,2.7-7.3,7-9,12.8l-67.2,190c-1.9,5-2.4,9.2-1.5,12.8C40.7,748.6,42.3,751.5,44.6,753.6z
	 M830.4,645.9c2.1-2.5,4.1-4.1,6-4.9c1.9-0.8,3.5-1,4.7-0.8c1.3,0.3,2,0.5,2.2,0.6c0.2,0,0.9,0.3,2.1,0.9c1.2,0.6,2.3,1.9,3.3,3.8
	c1,2,1.6,4.8,1.7,8.5c0.1,3.7-0.9,8.6-2.9,14.7l-9.2,26.4c-1.9,4.8-3.9,8.6-6.2,11.4c-2.2,2.8-4.4,4.9-6.4,6.3
	c-2.1,1.4-4,2.2-5.8,2.6c-1.8,0.3-3.3,0.3-4.5,0c-2.1-0.5-3.5-1.5-4.5-2.9c-0.9-1.5-1.5-3.1-1.7-4.9c-0.2-1.8-0.1-3.6,0.3-5.4
	c0.3-1.8,0.8-3.4,1.3-4.7l13.3-39.7C826.2,652.4,828.3,648.4,830.4,645.9z M686.5,657.9c2.1-5.5,4.1-9.4,6.3-11.9
	c2.1-2.5,4.1-4.1,6-4.9c1.9-0.8,3.5-1,4.7-0.8c1.3,0.3,2,0.5,2.2,0.6c0.2,0,0.9,0.3,2.1,0.9c1.2,0.6,2.3,1.9,3.3,3.8
	c1,2,1.6,4.8,1.7,8.5c0.1,3.7-0.9,8.6-2.9,14.7l-9.2,26.4c-1.9,4.8-3.9,8.6-6.2,11.4c-2.2,2.8-4.4,4.9-6.4,6.3
	c-2.1,1.4-4,2.2-5.8,2.6c-1.8,0.3-3.3,0.3-4.5,0c-2.1-0.5-3.5-1.5-4.5-2.9c-0.9-1.5-1.5-3.1-1.7-4.9c-0.2-1.8-0.1-3.6,0.3-5.4
	c0.3-1.8,0.8-3.4,1.3-4.7L686.5,657.9z M138.6,723c-5.1,2.1-10,3.1-14.6,3.1c-4.8,0-8.5-1-11-2.9c-2.6-2-3.8-4.4-3.8-7.3
	c0-1.7,0.2-3,0.5-3.8c1-3.4,3.1-6.2,6.3-8.2c3.2-2.1,7.2-3.1,12.2-3.1c5.3,0,9.8,1.2,13.5,3.7c3.7,2.5,7.2,5.4,10.6,8.8
	C148.2,717.7,143.7,720.9,138.6,723z M133.2,587.4c1.5-3.2,3.6-6.1,6.2-8.5c2.6-2.4,5.3-4.4,8.3-5.9c3-1.5,6-2.6,9.1-3.3
	c3.1-0.7,6.1-1,9-1c4.4,0.3,8.2,1.8,11.3,4.2c3.1,2.5,4.6,5.9,4.6,10.1c0,1.9-0.3,4-0.8,6.3c-0.5,2.3-1.4,4.6-2.6,6.9
	c-1.2,2.3-2.8,4.5-4.9,6.7c-2.1,2.1-4.6,3.8-7.7,5c-0.9-0.7-2.3-1.5-4.2-2.3c-2-0.9-4.2-1.4-6.7-1.8c-2.5-0.3-5.1-0.5-7.8-0.4
	c-2.7,0.1-5.4,0.6-7.9,1.7c-2.4,1-4.7,2.6-6.9,4.7c-2.2,2.1-4.1,4.7-5.5,7.6c-1.5,2.9-2.4,6.1-2.9,9.6c-0.5,3.5-0.3,7.1,0.5,10.6
	c1.5,4.6,3.8,8.2,6.8,10.9c3,2.7,6.2,4.5,9.7,5.5c3.5,1,7,1.5,10.4,1.3c3.4-0.2,6.3-0.7,8.7-1.5c5,1.2,8.1,4.5,9.5,10
	c1.4,5.5,0.6,12.3-2.3,20.5c-4.6-4.4-10.3-8.2-17.1-11.2c-6.8-3-14.5-4.6-23.2-4.7c-4.1,0-8.4,0.3-12.8,1c-4.4,0.7-8.3,1.7-11.5,3.1
	L133.2,587.4z M448,808.6h-98.2c-18.5,0-33.2,10.7-39.1,28.4l-0.4,1.1h-15.1c-21.4,0-39.8,9.9-39.9,31.7v-2.9
	c0-31.8-13.3-58.7-48.7-58.7H74.7v29.5H13l50.6,237.4h132.9c44.3,0,58.7-11.4,58.7-59.8V870c0,4,0.4,8.4,1.5,13.1l41,192h191.3
	V855.5C488.9,828.5,476.8,808.6,448,808.6z M243.8,1015.3c0,32.1-4.4,48-35.8,48H86.1V819.3h120.4c23.3,0,37.3,15.1,37.3,47.6
	V1015.3z M477.5,1063.3h-65.4v-53.5h-26.2v53.5h-65.7V855.5c0-20.7,7.8-35.8,29.9-35.8H448c22.9,0,29.5,15.1,29.5,35.8V1063.3z
	 M177.7,892v96c0,16.6-3.3,20.3-13.7,20.3h-12.2V872.8h11.4C172.1,872.8,177.7,879.5,177.7,892z M781,837h-49.8l49.8,237.4h82V808.2
	h-82V837z M792.8,819.3h58.3v169.8h-58.3V819.3z M792.8,1005h58.3v58.3h-58.3V1005z M412.1,887.2v70.9h-26.2v-70.9
	c0-11.4,4.4-16.2,13.3-16.2C407.7,871,412.1,875.8,412.1,887.2z M653.6,892v96c0,16.6-3.3,20.3-13.7,20.3h-12.2V872.8h11.4
	C648.1,872.8,653.6,879.5,653.6,892z M14.7,284.6c0.2-0.8,0.9-1.2,1.6-1.1l20.5,4.4l-2.9-21.5c-0.1-0.8,0.4-1.5,1.2-1.6
	c0.8-0.1,1.5,0.4,1.6,1.2l3.1,22.6l3.2,3.2l-2.6-19c-0.1-0.8,0.4-1.5,1.2-1.6c0.8-0.1,1.5,0.4,1.6,1.2l3.1,22.6l3.2,3.2l-2.6-19
	c-0.1-0.8,0.4-1.5,1.2-1.6c0.8-0.1,1.5,0.4,1.6,1.2l3.1,22.6l3.2,3.2l-2.6-19c-0.1-0.8,0.4-1.5,1.2-1.6c0.8-0.1,1.5,0.4,1.6,1.2
	l3.1,22.6l3.2,3.2l-2.6-19c-0.1-0.8,0.4-1.5,1.2-1.6c0.8-0.1,1.5,0.4,1.6,1.2l3.1,22.6l46.7,46.7l48.1-48.1l3.1-22.6
	c0.1-0.8,0.8-1.3,1.6-1.2c0.8,0.1,1.3,0.8,1.2,1.6l-2.6,19l3.2-3.2l3.1-22.6c0.1-0.8,0.8-1.3,1.6-1.2c0.8,0.1,1.3,0.8,1.2,1.6
	l-2.6,19l3.2-3.2l3.1-22.6c0.1-0.8,0.8-1.3,1.6-1.2c0.8,0.1,1.3,0.8,1.2,1.6l-2.6,19l3.2-3.2l3.1-22.6c0.1-0.8,0.8-1.3,1.6-1.2
	c0.8,0.1,1.3,0.8,1.2,1.6l-2.6,19l3.2-3.2l3.1-22.6c0.1-0.8,0.8-1.3,1.6-1.2c0.8,0.1,1.3,0.8,1.2,1.6l-2.9,21.5l20.5-4.4
	c0.7-0.2,1.5,0.3,1.6,1.1c0.2,0.8-0.3,1.5-1.1,1.6l-20.9,4.5c-0.1,0.1-0.2,0.2-0.3,0.3l-2.5,2.5l16.6-3.5c0.8-0.2,1.5,0.3,1.6,1.1
	c0.2,0.8-0.3,1.5-1.1,1.6l-20.8,4.4l-2.9,2.9l16.6-3.5c0.8-0.2,1.5,0.3,1.6,1.1c0.2,0.8-0.3,1.5-1.1,1.6l-20.8,4.4l-2.9,2.9
	l16.6-3.5c0.7-0.2,1.5,0.3,1.6,1.1c0.2,0.8-0.3,1.5-1.1,1.6l-20.8,4.4l-2.9,2.9l16.6-3.5c0.8-0.2,1.5,0.3,1.6,1.1
	c0.2,0.8-0.3,1.5-1.1,1.6l-20.8,4.4L115.1,364l72.6,72.6l-8-19.1c-0.4-0.9,0.1-2,1-2.4c0.9-0.4,2,0.1,2.4,1l11.6,27.7
	c0.3,0.7,0.1,1.5-0.4,2c-0.4,0.3-0.8,0.5-1.3,0.5c-0.3,0-0.5-0.1-0.7-0.2l-27.7-12.1c-0.9-0.4-1.4-1.5-1-2.4c0.4-0.9,1.5-1.4,2.4-1
	l18.7,8.2l-72.3-72.3l-70.9,70.9l18.7-8.2c0.9-0.4,2,0,2.4,1c0.4,0.9,0,2-1,2.4L34,444.8c-0.2,0.1-0.5,0.2-0.7,0.2
	c-0.5,0-0.9-0.2-1.3-0.5c-0.5-0.5-0.7-1.3-0.4-2l11.6-27.7c0.4-0.9,1.5-1.4,2.4-1c0.9,0.4,1.4,1.5,1,2.4l-8,19.1l71.2-71.2
	l-47.3-47.3l-20.8-4.4c-0.8-0.2-1.2-0.9-1.1-1.6c0.2-0.8,0.9-1.2,1.6-1.1l16.6,3.5l-2.9-2.9l-20.8-4.4c-0.8-0.2-1.2-0.9-1.1-1.6
	c0.2-0.8,0.9-1.2,1.6-1.1l16.6,3.5l-2.9-2.9l-20.8-4.4c-0.8-0.2-1.2-0.9-1.1-1.6c0.2-0.8,0.9-1.2,1.6-1.1l16.6,3.5l-2.9-2.9
	l-20.8-4.4c-0.8-0.2-1.2-0.9-1.1-1.6c0.2-0.8,0.9-1.2,1.6-1.1l16.6,3.5l-2.5-2.5c-0.1-0.1-0.2-0.2-0.3-0.3l-20.9-4.5
	C15,286.1,14.5,285.3,14.7,284.6z"/>
</svg>
