<?xml version="1.0" encoding="utf-8"?>
<!-- Generator: Adobe Illustrator 22.1.0, SVG Export Plug-In . SVG Version: 6.00 Build 0)  -->
<svg version="1.1" id="Layer_1" xmlns="http://www.w3.org/2000/svg" xmlns:xlink="http://www.w3.org/1999/xlink" x="0px" y="0px"
	 viewBox="0 0 1080 1296" style="enable-background:new 0 0 1080 1296;" xml:space="preserve">
<style type="text/css">
	.st0{fill:#110E10;}
</style>
<path class="st0" d="M903.5,458h122.9l-60,64.5l60,68.5H853l50.5-29.4V458z M1041.3,541.5c9.4,0,17-7.6,17-17s-7.6-17-17-17
	s-17,7.6-17,17S1031.9,541.5,1041.3,541.5z M845.8,557.1H230.7v29.3l-50.3-29.3h0v0l-0.1-0.1V452l0.1,0.5v-31.8h715.8v136.4h-0.2
	l-50.3,29.3V557.1z M310.4,501c0-5-1.4-8.7-4.2-11.1c-2.8-2.4-8.2-4.2-16.2-5.2c7.1-0.9,11.9-2.3,14.3-4.1c2.4-1.8,3.6-4.9,3.6-9.4
	c0-6.6-1.7-11.5-5.1-14.4c-3.4-3-7.9-5-13.5-6c-5.6-1-13.8-1.5-24.6-1.5h-34.3v76.9h39.8c13.8,0,23-0.5,27.4-1.4
	c4.5-0.9,7.7-2.6,9.8-5.1c2-2.5,3.1-6.3,3.1-11.5V501z M357.1,449.3h-34.4v76.9h34.4V449.3z M428.8,486.1c7.5-0.4,12.5-1.6,15.1-3.7
	c2.6-2.1,3.8-6.1,3.8-12.1c0-6.6-1.8-11.3-5.4-14.3c-3.6-3-8.3-4.9-14-5.6c-5.7-0.7-16.7-1.1-33-1.1H371v76.9h34.4v-34.7
	c4.7,0,7.7,0.5,8.8,1.5c1.1,1,1.7,3.5,1.7,7.6v25.5h31.9v-20.3c0-6.2-0.3-10-0.9-11.4c-0.6-1.4-2-2.9-4.4-4.5
	C440.1,488.4,435.6,487.1,428.8,486.1z M530.3,449.3h-75.1v15.4h20.3v61.5h34.4v-61.5h20.4V449.3z M617.2,449.3h-34.4v27.5h-10.3
	v-27.5h-34.4v76.9h34.4v-32.3h10.3v32.3h34.4V449.3z M710.6,476.4c0-7.3-0.4-12.2-1.1-14.6c-0.8-2.5-2.7-4.7-5.7-6.8
	c-3-2-7.5-3.5-13.4-4.4c-5.9-0.9-17.1-1.3-33.7-1.3H631v76.9h43.4c8.2,0,14.4-0.3,18.5-0.8c4.1-0.5,7.5-1.4,10.3-2.8
	c2.8-1.3,4.7-3.1,5.8-5.5c1.1-2.3,1.7-6.9,1.7-13.8V476.4z M802.5,526.2l-19.7-76.9h-49.7l-17.5,76.9h35.5l2.1-13.8h12.3l1.8,13.8
	H802.5z M846.5,526.2v-27.8l25.1-49H840c-4.5,12-7.7,22.1-9.6,30.3c-0.6-5.2-3.4-15.3-8.4-30.3h-31.6l24.2,49v27.8H846.5z
	 M670.8,648c6.3,7.1,10.3,15,11.9,23.6c1.6,8.7,2.4,25.7,2.4,51.2v94c0,24.1-1.2,40.2-3.5,48.3c-2.3,8.1-6.4,14.5-12.1,19.1
	c-5.8,4.6-12.9,7.8-21.4,9.6s-21.2,2.7-38.3,2.7h-90V628.1h53.4c34.5,0,57.8,1.5,69.9,4.6C655.3,635.9,664.5,640.9,670.8,648z
	 M613.7,707.4c0-12.2-0.4-20-1.2-23.4c-0.8-3.4-2.6-5.9-5.4-7.5c-2.8-1.6-8.1-2.4-15.9-2.4v176.6c10.3,0,16.6-2,19-6.1
	c2.4-4,3.6-15,3.6-32.9V707.4z M1039,648c6.3,7.1,10.3,15,11.9,23.6c1.6,8.7,2.4,25.7,2.4,51.2v94c0,24.1-1.2,40.2-3.5,48.3
	c-2.3,8.1-6.4,14.5-12.1,19.1c-5.8,4.6-12.9,7.8-21.4,9.6s-21.2,2.7-38.3,2.7h-90V628.1h53.4c34.5,0,57.8,1.5,69.9,4.6
	C1023.5,635.9,1032.7,640.9,1039,648z M981.9,707.4c0-12.2-0.4-20-1.2-23.4c-0.8-3.4-2.6-5.9-5.4-7.5c-2.8-1.6-8.1-2.4-15.9-2.4
	v176.6c10.3,0,16.6-2,19-6.1c2.4-4,3.6-15,3.6-32.9V707.4z M271.9,462.9c-1.2-0.3-3.6-0.4-7.1-0.4v17.1c1.5,0,2.6,0,3.4,0
	c3.4,0,5.5-0.5,6.5-1.4c0.9-1,1.4-3.7,1.4-8.3c0-2.4-0.4-4.1-1.1-5.1C274.2,463.8,273.2,463.2,271.9,462.9z M673,463.2
	c-1.4-0.5-3.9-0.7-7.7-0.7V513c5,0,8-0.6,9.1-1.7c1.1-1.2,1.7-4.3,1.7-9.4V472c0-3.5-0.2-5.7-0.6-6.7
	C675.2,464.3,674.4,463.6,673,463.2z M447.7,926.9c1.4,0,2.6-1.2,2.6-2.6c0-0.8-0.3-1.5-0.9-1.9c-1.1-2.4-3.9-13.7-6.5-25.4
	c-2.1-1.4-4.1-2.7-6.2-4C443.9,926.8,445.3,926.9,447.7,926.9z M413.5,463.6c-1.5-0.8-4.2-1.1-8.2-1.1v17.1c3.9,0,6.6-0.3,8.1-0.9
	c1.6-0.6,2.3-2.6,2.3-6v-4.2C415.8,466,415,464.4,413.5,463.6z M969.5,1031.6l92.2,75.9h-27.4l-78.5-64.7L935,1060l57.7,47.5h-27.4
	l-44-36.2l-20.8,17.1l23.2,19.1h-27.4l-9.5-7.8l-9.5,7.8h-22.6h-4.8h-22.6l-9.5-7.8l-9.5,7.8h-22.6h-4.8h-22.6l-9.5-7.8l-9.5,7.8
	h-22.6h-4.8h-22.6l-9.5-7.8l-9.5,7.8h-22.6h-4.8h-22.6l-9.5-7.8l-9.5,7.8h-22.6h-4.8h-22.6l-9.5-7.8l-9.5,7.8h-22.6h-4.8h-22.6
	l-9.5-7.8l-9.5,7.8h-22.6h-4.8h-22.6l-9.5-7.8l-9.5,7.8h-22.6h-4.8h-22.6l-9.5-7.8l-9.5,7.8h-22.6h-4.8h-22.6l-9.5-7.8l-9.5,7.8
	h-22.6h-4.8h-22.6l-9.5-7.8l-9.5,7.8h-27.4l23.2-19.1l-20.8-17.1l-44,36.2H90.8l57.7-47.5l-20.8-17.1l-78.5,64.6H21.7l92.2-75.9
	l-92.2-75.9h27.4l78.5,64.6l20.8-17.1l-57.7-47.5h27.4l44,36.2l20.8-17.1l-23.2-19.1h27.4l9.5,7.8l9.5-7.8h22.6h4.8h22.6l9.5,7.8
	l9.5-7.8h22.6h4.8h22.6l9.5,7.8l9.5-7.8h22.6h4.8h22.6l9.5,7.8l9.5-7.8h22.6h4.8h22.6l9.5,7.8l9.5-7.8h22.6h4.8h22.6l9.5,7.8
	l9.5-7.8h22.6h4.8h22.6l9.5,7.8l9.5-7.8h22.6h4.8h22.6l9.5,7.8l9.5-7.8h22.6h4.8h22.6l9.5,7.8l9.5-7.8h22.6h4.8h22.6l9.5,7.8
	l9.5-7.8h22.6h4.8h22.6l9.5,7.8l9.5-7.8h27.4l-23.2,19.1l20.8,17.1l44-36.2h27.4l-57.7,47.5l20.8,17.1l78.5-64.7h27.4L969.5,1031.6z
	 M886.8,986.1l-20.8,17.1l20.8,17.1l20.8-17.1L886.8,986.1z M231.2,1014.5l-20.8,17.1l20.8,17.1l20.8-17.1L231.2,1014.5z
	 M265.7,1020.4l20.8-17.1l-20.8-17.1l-20.8,17.1L265.7,1020.4z M244.9,1060l20.8,17.1l20.8-17.1l-20.8-17.1L244.9,1060z
	 M300.2,1048.8l20.8-17.1l-20.8-17.1l-20.8,17.1L300.2,1048.8z M334.7,1020.4l20.8-17.1l-20.8-17.1l-20.8,17.1L334.7,1020.4z
	 M313.9,1060l20.8,17.1l20.8-17.1l-20.8-17.1L313.9,1060z M369.2,1048.8l20.8-17.1l-20.8-17.1l-20.8,17.1L369.2,1048.8z
	 M403.7,1020.4l20.8-17.1l-20.8-17.1l-20.8,17.1L403.7,1020.4z M382.9,1060l20.8,17.1l20.8-17.1l-20.8-17.1L382.9,1060z
	 M438.2,1048.8l20.8-17.1l-20.8-17.1l-20.8,17.1L438.2,1048.8z M472.7,1020.4l20.8-17.1l-20.8-17.1l-20.8,17.1L472.7,1020.4z
	 M451.9,1060l20.8,17.1l20.8-17.1l-20.8-17.1L451.9,1060z M507.2,1048.8l20.8-17.1l-20.8-17.1l-20.8,17.1L507.2,1048.8z
	 M541.8,1020.4l20.8-17.1l-20.8-17.1l-20.8,17.1L541.8,1020.4z M520.9,1060l20.8,17.1l20.8-17.1l-20.8-17.1L520.9,1060z
	 M576.3,1048.8l20.8-17.1l-20.8-17.1l-20.8,17.1L576.3,1048.8z M610.8,1020.4l20.8-17.1l-20.8-17.1l-20.8,17.1L610.8,1020.4z
	 M589.9,1060l20.8,17.1l20.8-17.1l-20.8-17.1L589.9,1060z M645.3,1048.8l20.8-17.1l-20.8-17.1l-20.8,17.1L645.3,1048.8z
	 M679.8,1020.4l20.8-17.1l-20.8-17.1l-20.8,17.1L679.8,1020.4z M659,1060l20.8,17.1l20.8-17.1l-20.8-17.1L659,1060z M714.3,1048.8
	l20.8-17.1l-20.8-17.1l-20.8,17.1L714.3,1048.8z M748.8,1020.4l20.8-17.1l-20.8-17.1l-20.8,17.1L748.8,1020.4z M728,1060l20.8,17.1
	l20.8-17.1l-20.8-17.1L728,1060z M783.3,1048.8l20.8-17.1l-20.8-17.1l-20.8,17.1L783.3,1048.8z M817.8,1020.4l20.8-17.1l-20.8-17.1
	l-20.8,17.1L817.8,1020.4z M797,1060l20.8,17.1l20.8-17.1l-20.8-17.1L797,1060z M852.3,1048.8l20.8-17.1l-20.8-17.1l-20.8,17.1
	L852.3,1048.8z M831.5,974.8l20.8,17.1l20.8-17.1l-20.8-17.1L831.5,974.8z M762.5,974.8l20.8,17.1l20.8-17.1l-20.8-17.1L762.5,974.8
	z M693.5,974.8l20.8,17.1l20.8-17.1l-20.8-17.1L693.5,974.8z M624.5,974.8l20.8,17.1l20.8-17.1l-20.8-17.1L624.5,974.8z
	 M555.4,974.8l20.8,17.1l20.8-17.1l-20.8-17.1L555.4,974.8z M486.4,974.8l20.8,17.1l20.8-17.1l-20.8-17.1L486.4,974.8z M417.4,974.8
	l20.8,17.1l20.8-17.1l-20.8-17.1L417.4,974.8z M348.4,974.8l20.8,17.1l20.8-17.1l-20.8-17.1L348.4,974.8z M279.4,974.8l20.8,17.1
	l20.8-17.1l-20.8-17.1L279.4,974.8z M210.4,974.8l20.8,17.1l20.8-17.1l-20.8-17.1L210.4,974.8z M175.9,1003.2l20.8,17.1l20.8-17.1
	l-20.8-17.1L175.9,1003.2z M162.2,1048.8l20.8-17.1l-20.8-17.1l-20.8,17.1L162.2,1048.8z M196.7,1077.2l20.8-17.1l-20.8-17.1
	l-20.8,17.1L196.7,1077.2z M252,1088.4l-20.8-17.1l-20.8,17.1l20.8,17.1L252,1088.4z M321,1088.4l-20.8-17.1l-20.8,17.1l20.8,17.1
	L321,1088.4z M390,1088.4l-20.8-17.1l-20.8,17.1l20.8,17.1L390,1088.4z M459.1,1088.4l-20.8-17.1l-20.8,17.1l20.8,17.1L459.1,1088.4
	z M528.1,1088.4l-20.8-17.1l-20.8,17.1l20.8,17.1L528.1,1088.4z M597.1,1088.4l-20.8-17.1l-20.8,17.1l20.8,17.1L597.1,1088.4z
	 M666.1,1088.4l-20.8-17.1l-20.8,17.1l20.8,17.1L666.1,1088.4z M735.1,1088.4l-20.8-17.1l-20.8,17.1l20.8,17.1L735.1,1088.4z
	 M804.1,1088.4l-20.8-17.1l-20.8,17.1l20.8,17.1L804.1,1088.4z M873.1,1088.4l-20.8-17.1l-20.8,17.1l20.8,17.1L873.1,1088.4z
	 M907.7,1060l-20.8-17.1L866,1060l20.8,17.1L907.7,1060z M942.2,1031.6l-20.8-17.1l-20.8,17.1l20.8,17.1L942.2,1031.6z M752.8,498.8
	h11.8c-1.7-8.7-3.5-19.5-5.2-32.3C755.9,481.2,753.7,492,752.8,498.8z M274.3,492.7c-1.2-0.7-4.4-1.1-9.5-1.2V513
	c4.8-0.1,7.9-0.5,9.3-1.3c1.3-0.8,2-2.7,2-5.8v-7.2C276.1,495.4,275.5,493.4,274.3,492.7z M769.3,896.6h-73.8l36.4-268.5h103.1
	l40.8,268.5h-72.9l-3.8-48.3h-25.5L769.3,896.6z M772.7,800.8h24.6c-3.6-30.4-7.2-68-10.9-112.8C779.1,739.4,774.5,777,772.7,800.8z
	 M948.5,310.8H797.1c-15.9,0-16.5,24.7-0.6,24.7h151.4C963.9,335.5,964.4,310.8,948.5,310.8z M451.6,272.7c3.3-5.9,7.2-11,11.5-15.2
	c4.3-4.2,8.8-6.3,13.5-6.3c1.4,0,3.1,0.2,5.1,0.6c2,0.4,4,0.9,6,1.4c2,0.5,3.8,1.1,5.5,1.8c1.6,0.6,2.8,1.2,3.4,1.6l1.9-4
	c0.8,0.3,2,0.7,3.7,1.2c1.7,0.5,3.4,1,5.1,1.6c1.7,0.6,3.2,1.2,4.4,1.8c1.2,0.5,1.9,1,1.9,1.3s-0.5,2-1.6,5.1
	c-1.1,3.1-2.4,6.9-4,11.3c-1.6,4.4-3.2,9.2-4.9,14.3c-1.7,5.1-3.3,9.9-4.6,14.2s-2.5,8-3.3,10.8c-0.8,2.9-0.9,4.3-0.5,4.3
	c0.6,0,2.1-1.2,4.5-3.6c2.4-2.4,5.3-5.7,8.6-9.8c3.3-4.1,6.9-8.9,10.8-14.4c3.8-5.4,7.5-11.3,11-17.5c1.6-5.1,3-9.8,4.1-14.1
	c1.5-5.8,2.3-9.9,2.3-12.2c0.9,0.2,2.2,0.8,3.8,1.9c1.6,1.1,3.2,2.2,4.7,3.5c1.5,1.2,2.8,2.5,4,3.7c1.2,1.2,1.7,2.1,1.7,2.6
	c0,1.4-0.6,3.8-1.7,7.3c-1.2,3.5-2.6,7.6-4.3,12.4c-1.7,4.8-3.6,10-5.6,15.5c-2,5.5-3.9,10.9-5.6,16.2h0.2
	c2.5-5.3,5.3-11.1,8.5-17.4c3.2-6.4,6.5-12.3,9.9-17.9c3.4-5.6,6.8-10.4,10.2-14.4c3.4-4,6.7-6.4,10-7.2c5-1.1,8.8-0.6,11.5,1.4
	c2.7,2,4.5,5,5.3,8.8c0.8,3.9,0.9,8.3,0.1,13.4c-0.8,5-2.1,10-4,15c5.1-1.7,9.7-3.1,13.8-4c0.9-2.9,1.9-5.8,2.8-8.6
	c2.4-7.4,4.4-14.1,5.9-19.9c1.5-5.8,2.3-9.9,2.3-12.2c0.9,0.2,2.2,0.8,3.8,1.9c1.6,1.1,3.2,2.2,4.7,3.5c1.5,1.2,2.8,2.5,4,3.7
	c1.2,1.2,1.7,2.1,1.7,2.6c0,1.4-0.6,3.8-1.7,7.3c-1.2,3.5-2.6,7.6-4.3,12.4c-1.7,4.8-3.6,10-5.6,15.5c-2,5.5-3.9,10.9-5.6,16.2h0.2
	c2.5-5.3,5.3-11.1,8.5-17.4c3.2-6.4,6.5-12.3,9.9-17.9c3.4-5.6,6.8-10.4,10.2-14.4c3.4-4,6.7-6.4,10-7.2c5-1.1,8.8-0.6,11.5,1.4
	c2.7,2,4.5,5,5.3,8.8c0.9,3.9,0.9,8.3,0.1,13.4c-0.8,5-2.1,10-4,15c5.1-1.8,9.8-3.1,14.1-4c0.6-2.2,1.3-4.4,2-6.7
	c1.4-4.6,2.7-9.1,4-13.5c1.2-4.3,2.3-8.3,3.1-12c0.8-3.6,1.4-6.5,1.5-8.5c0.8,0.3,2,1,3.7,2c1.7,1,3.4,2.1,5,3.4
	c1.6,1.2,3.1,2.4,4.3,3.5c1.2,1.1,1.9,1.9,1.9,2.3c0,1.2-0.4,3.3-1.2,6.2c-0.8,2.9-1.8,6.2-3,10c-1.2,3.8-2.5,7.8-3.8,12.1
	c-1.3,4.3-2.6,8.4-3.8,12.3c-1.2,4-2.2,7.5-3,10.7c-0.8,3.2-1.2,5.6-1.2,7.3c0,2.3,0.7,3.5,2.1,3.5c0.9,0,2.6-1.6,5.1-4.9
	c2.5-3.3,5.3-7.5,8.6-12.7c3.3-5.2,6.7-11.1,10.3-17.8c3.6-6.7,7.2-13.4,10.8-20.2c0.8-2.8,1.4-5.4,1.9-7.9c0.5-2.5,0.9-4.8,1.4-7
	c0.6,0.3,1.7,0.8,3.4,1.4c1.6,0.6,3.2,1.3,4.8,2.1c1.5,0.8,2.9,1.6,4.2,2.3c1.2,0.8,1.9,1.4,1.9,1.9s-0.2,1.8-0.7,4.1
	c-0.5,2.2-1.2,5.2-2.1,8.7c-0.9,3.6-2.1,7.8-3.5,12.6c-1.4,4.8-3,9.9-4.9,15.3c5.3-3.9,10.4-7.4,15.3-10.5c5-3.1,9.7-5.9,14.2-8.4
	l-0.7,3.3c-5.3,3.1-10.4,6.3-15.3,9.5c-5,3.3-9.8,6.6-14.6,10c-5.6,16.6-11.1,30.8-16.6,42.8c-5.5,11.9-11.2,21.7-17,29.3
	c-5.8,7.6-11.9,13.2-18.3,16.7c-6.4,3.6-13.2,5.3-20.5,5.3c-1.2,0-2.5-0.2-3.8-0.5c-1.3-0.3-2.5-0.9-3.6-1.6c-1.1-0.8-2-1.9-2.7-3.5
	c-0.7-1.6-1-3.6-0.8-6c0.2-4,2.1-9,5.9-14.9c3.8-5.9,8.7-12.2,14.8-19.1c6-6.8,12.9-13.8,20.6-21c7.7-7.2,15.5-14.1,23.6-20.8
	c2.2-6.2,4.2-12.4,6.2-18.5c1.9-6.1,3.6-12,5-17.6c-2.6,5.4-5.7,11.2-9.1,17.2c-3.4,6-6.8,11.7-10.2,17c-3.4,5.3-6.7,9.6-9.8,13
	c-3.1,3.4-5.8,5.1-8.1,5.1c-1.2,0-2.6-0.5-4.2-1.4c-1.5-0.9-3-2-4.3-3.3c-1.3-1.2-2.4-2.6-3.4-4.1c-0.9-1.5-1.4-2.7-1.4-3.6
	c0-1.5,0.4-4,1.2-7.3c0.8-3.3,1.8-7.1,3-11.3c0.4-1.4,0.8-2.8,1.3-4.3c-1.5,0.4-3.1,0.8-4.7,1.2c-2.9,0.8-6,1.9-9.3,3.3
	c-4.5,9.5-9.4,17.3-14.8,23.5c-5.3,6.2-11.4,9.3-18.3,9.3c-4,0-7.1-0.9-9.3-2.6c-2.2-1.7-3.3-3.5-3.3-5.3c0-2,0.7-4.1,2.2-6.2
	c1.5-2.1,3.5-4.2,6-6.3c2.6-2.1,5.5-4.1,8.8-5.9c3.3-1.9,6.9-3.6,10.8-5.3c1.1-2.2,2.2-5.3,3.5-9.5c1.2-4.2,2.2-8.4,2.8-12.6
	c0.6-4.2,0.7-7.8,0.3-10.9c-0.4-3.1-1.7-4.7-3.8-4.7c-1.2,0-3.1,1.6-5.7,4.9c-2.6,3.3-5.6,7.8-9.1,13.7c-3.5,5.9-7.3,12.9-11.5,20.9
	c-4.2,8.1-8.5,16.8-12.8,26.3c-3.3,10.1-6.1,19.1-8.5,27.2c-2.4,8.1-3.6,13.4-3.6,16c0,0.8,0,1.4,0,2c0,0.5,0.1,1.4,0.2,2.7
	c-1.2-0.3-2.7-1.1-4.3-2.4c-1.6-1.3-3.2-2.8-4.7-4.4c-1.5-1.6-2.7-3.2-3.7-4.7c-1-1.5-1.5-2.4-1.5-2.9c0-2.2,0.8-6.1,2.3-11.7
	c1.6-5.7,3.5-12.2,5.9-19.5c2.4-7.4,5-15.1,7.7-23.4c1.4-4.3,2.8-8.5,4.1-12.6c-1.4,0.4-2.9,0.8-4.5,1.2c-2.9,0.8-6,1.9-9.3,3.3
	c-4.5,9.5-9.4,17.3-14.8,23.5c-5.3,6.2-11.4,9.3-18.3,9.3c-4,0-7.1-0.9-9.3-2.6c-2.2-1.7-3.3-3.5-3.3-5.3c0-2,0.7-4.1,2.2-6.2
	c1.5-2.1,3.5-4.2,6-6.3c2.6-2.1,5.5-4.1,8.8-5.9c3.3-1.9,6.9-3.6,10.8-5.3c1.1-2.2,2.2-5.3,3.5-9.5c1.2-4.2,2.2-8.4,2.8-12.6
	c0.6-4.2,0.7-7.8,0.3-10.9c-0.4-3.1-1.7-4.7-3.8-4.7c-1.2,0-3.1,1.6-5.7,4.9c-2.6,3.3-5.6,7.8-9.1,13.7c-3.5,5.9-7.3,12.9-11.5,20.9
	c-4.2,8.1-8.5,16.8-12.8,26.3c-3.3,10.1-6.1,19.1-8.5,27.2c-2.4,8.1-3.6,13.4-3.6,16c0,0.8,0,1.4,0,2c0,0.5,0.1,1.4,0.2,2.7
	c-1.2-0.3-2.7-1.1-4.3-2.4c-1.6-1.3-3.2-2.8-4.7-4.4c-1.5-1.6-2.7-3.2-3.7-4.7c-1-1.5-1.5-2.4-1.5-2.9c0-2.2,0.8-6.1,2.3-11.7
	c1.6-5.7,3.5-12.2,5.9-19.5c2.4-7.4,5-15.1,7.7-23.4c2.4-7.1,4.6-14,6.7-20.5c-0.1,0.2-0.2,0.3-0.3,0.5c-1.7,2.8-3.8,6-6.3,9.5
	c-2.5,3.6-5.2,7.4-8.1,11.4c-2.9,4-5.9,7.8-8.7,11.2c-2.9,3.4-5.5,6.2-8,8.4c-2.5,2.2-4.6,3.3-6.3,3.3c-0.5,0-1.3-0.1-2.6-0.2
	c-1.2-0.2-2.5-0.5-3.8-0.9c-1.3-0.5-2.5-1.2-3.5-2.1c-1-0.9-1.5-2.2-1.5-3.7c0-2.3,0.5-5.3,1.5-9c1-3.6,2.3-7.6,3.8-12
	c1.5-4.3,3.2-8.9,4.9-13.6c1.7-4.7,3.3-9.3,4.7-13.8h-0.5c-1.7,3.6-4.1,8.4-7.1,14.5c-3,6.1-6.3,12.1-9.8,18
	c-3.5,5.9-6.9,11-10.3,15.2c-3.4,4.3-6.3,6.4-8.6,6.4c-4.7,0-8.4-1.6-11.4-4.7c-2.9-3.1-4.4-7.5-4.4-13.1c0-4.5,1-10,3-16.3
	C445.6,284.7,448.3,278.6,451.6,272.7z M565.4,298.4c-6.5,3.1-12.1,6.3-16.9,9.8c-4.7,3.5-7.1,6.9-7.1,10.2c0,1.1,0.4,1.9,1.2,2.4
	c0.8,0.5,1.8,0.8,3,0.8c3.6,0,7.1-2.2,10.5-6.6C559.5,310.8,562.6,305.2,565.4,298.4z M639.1,298.4c-6.5,3.1-12.1,6.3-16.9,9.8
	c-4.7,3.5-7.1,6.9-7.1,10.2c0,1.1,0.4,1.9,1.2,2.4c0.8,0.5,1.8,0.8,3,0.8c3.6,0,7.1-2.2,10.5-6.6
	C633.2,310.8,636.3,305.2,639.1,298.4z M704.7,313.1c-8.8,7-16.9,14.1-24.2,21.3c-7.3,7.2-13.6,14-18.9,20.3
	c-5.3,6.4-9.6,12.2-12.7,17.4c-3.1,5.3-4.7,9.5-4.9,12.6c-0.3,3.6,0.3,6,2,7.2c1.6,1.2,3.2,1.9,4.8,1.9c4.6,0,9.4-2.3,14.2-7
	c4.8-4.7,9.5-10.8,14.2-18.4c4.7-7.6,9.1-16.2,13.5-25.9C696.9,332.8,701,323,704.7,313.1z M456,315.6c0.1,3.1,0.9,4.7,2.4,4.7
	c1.1,0,2.9-1.5,5.3-4.5c2.5-3,5.4-7.2,8.8-12.6c3.4-5.3,7.1-11.8,11-19.3c4-7.5,7.9-15.7,12-24.5c-1.1-1.4-2.6-2.1-4.6-2.1
	c-3.9,0-7.6,1.6-11,4.6c-3.5,3.1-6.7,7-9.6,11.6c-2.9,4.7-5.5,9.7-7.7,15.2c-2.2,5.5-3.8,10.6-5,15.2
	C456.5,308.7,456,312.5,456,315.6z M809.5,359.1c-16,0-16.5,24.7-0.6,24.7h80.3c15.9,0,16.5-24.7,0.6-24.7H809.5z M249.3,310.8H97.9
	c-15.9,0-15.4,24.7,0.6,24.7h151.4C265.8,335.5,265.3,310.8,249.3,310.8z M110.2,522.5l-60,68.5h173.3l-50.5-29.4V458H50.2
	L110.2,522.5z M156.6,359.1c-15.9,0-15.4,24.7,0.6,24.7h80.3c15.9,0,15.4-24.7-0.6-24.7H156.6z M285.5,269.6c2.8,1.9,6,3.3,9.5,4.4
	v-0.2c-0.5-1.1-1.2-2.9-2.1-5.6c-0.9-2.6-1.4-6.4-1.4-11.2c0-3.3,0.5-7.1,1.4-11.6c0.9-4.5,2.4-9.1,4.3-13.8
	c1.9-4.7,4.4-9.5,7.3-14.2c2.9-4.7,6.5-8.9,10.6-12.6c4.1-3.6,8.8-6.6,14-9c5.2-2.3,11-3.5,17.3-3.5c8.8,0,15.3,2.4,19.3,7.3
	c4,4.9,6,12,6,21.3c0,9-1.5,18.2-4.4,27.6c-2.9,9.4-5.8,18.5-8.6,27.4c-3.1,1.1-5.9,1.9-8.4,2.3c-2.5,0.4-5,0.6-7.7,0.6
	c-5.1,0-9.5-0.3-13.3-0.9s-6.4-1.3-8.1-2.1c0.6,0.9,1.6,2,2.9,3.3c1.3,1.2,3,2.4,5.1,3.4c2.1,1,4.7,1.9,7.9,2.7
	c3.2,0.8,7,1.2,11.5,1.2c2.9,0,5.1-0.2,6.5-0.7c-4.3,11.8-9.1,22.9-14.4,33.2c-5.3,10.4-10.6,19.4-15.9,27.1
	c-5.3,7.7-10.4,13.7-15.1,18.1c-4.7,4.4-8.6,6.6-11.7,6.6c-1.2,0-2.3-0.2-3.1-0.6c-0.9-0.4-1.6-0.7-2.2-1c0,0.3-0.1,0.6-0.2,0.8
	c-0.2,0.2-0.2,0.5-0.2,0.8c0,0.5,0.6,1,1.9,1.7c1.2,0.7,3.1,1,5.6,1c7.3,0,14.5-2.6,21.7-7.9c7.2-5.3,14.1-12.2,20.8-20.9
	c6.7-8.7,12.9-18.7,18.6-30.1c5.7-11.4,10.8-23.1,15.3-35.2c5.7-1.7,10.6-3,14.6-4c4-0.9,8.1-1.4,12.3-1.4c1.9,0,3.5,0,4.9,0.1
	c1.4,0.1,2.6,0.3,3.7,0.8c-2,8.8-3.8,17.1-5.2,24.8c-1.5,7.7-2.1,13.8-1.7,18.3c0.2,4.5,1,8.1,2.6,10.9c1.5,2.8,3.5,4.9,5.8,6.4
	c2.3,1.5,4.8,2.5,7.6,3c2.7,0.5,5.4,0.8,8,0.8c2.9,0,5.6-0.5,8-1.5c2.4-1,4.5-2.1,6.2-3.3c1.7-1.2,3-2.3,4-3.4
	c0.9-1.1,1.4-1.8,1.4-2.1c0-0.3-0.3-0.9-0.9-1.9c-0.8,1.3-2.2,2.8-4.4,4.4c-2.2,1.6-4.7,2.3-7.4,2.1c-3.4-0.2-6.4-1.6-9-4.4
	c-2.6-2.8-3.8-7.3-3.8-13.7c0-3.7,0.5-8.7,1.5-14.9c1-6.2,2.3-13,4-20.3c1.6-7.3,3.5-15,5.6-23c2.1-8,4.3-15.5,6.5-22.6
	c2.2-7.1,4.5-13.5,6.6-19.1c2.2-5.6,4.1-9.9,5.8-12.9c-1.2,0-2.9,0.1-5.1,0.3c-2.2,0.2-4.4,0.6-6.6,1.2c-2.2,0.5-4.4,1.4-6.4,2.4
	c-2,1.1-3.5,2.4-4.4,4c-0.5,0.9-1.4,3.4-2.7,7.3c-1.3,4-2.8,8.9-4.5,14.9c-1.7,6-3.5,12.6-5.5,19.8c-1.9,7.2-3.8,14.4-5.5,21.5
	c-0.9-1.5-2.7-3-5.3-4.4c-2.6-1.4-6.4-2.1-11.2-2.1c-2.6,0-5.2,0.1-7.7,0.3c-2.5,0.2-5.2,0.7-8.1,1.5c2.2-7.4,3.8-14.8,5-22
	s1.7-14.4,1.7-21.5c0-7.6-1.4-13.8-4.1-18.7c-2.7-4.9-6.1-8.7-10.2-11.5c-4.1-2.8-8.6-4.7-13.5-5.7c-4.9-1-9.4-1.5-13.6-1.5
	c-9.3,0-18.1,2-26.5,5.9c-8.4,4-15.7,9-22,15.1c-6.3,6.1-11.2,12.9-14.9,20.5c-3.6,7.5-5.5,14.8-5.5,21.7c0,4.5,1,8.2,2.9,11
	C281,265.6,283.2,267.9,285.5,269.6z M787.3,291.1h213.1c15.9,0,16.5-24.7,0.6-24.7H787.9C771.9,266.4,771.4,291.1,787.3,291.1z
	 M46,291.1h213.1c15.9,0,15.4-24.7-0.6-24.7H45.4C29.5,266.4,30.1,291.1,46,291.1z M35.3,541.5c9.4,0,17-7.6,17-17s-7.6-17-17-17
	c-9.4,0-17,7.6-17,17S25.9,541.5,35.3,541.5z M431,861.2c0.1,0,0.2,0,0.3,0l0-0.1c2.8-0.9,2.7-1.6,2.6-2.7c-0.2-1.8-2.3-2.8-3.8-2.1
	c-2.9,0.7-19.6,4.1-31.1,6.3c2.1,1.4,4.2,2.7,6.3,4.1C420.3,863.7,427.6,862.2,431,861.2z M406.2,900.9c1.4,0,2.6-1.2,2.6-2.6
	c0-0.8-0.3-1.5-0.9-1.9c-1.2-2.4-4.1-14.2-6.7-26.2c-2-1.3-4.1-2.6-6.2-4C402.4,900.9,403.8,900.9,406.2,900.9z M395.4,864.1
	c0.4-0.6,1-1,1.7-1.1c0.6-0.1,1.2-0.2,1.9-0.4c-8.2-5.3-16.6-10.9-25.6-17.1c-1.2,1.3-2.4,2.6-3.6,3.8c8.9,6.1,17.2,11.7,25.3,16.9
	c0-0.1,0-0.1,0-0.2C394.9,865.4,395,864.7,395.4,864.1z M425.5,879.5c14.8-2.9,22-4.3,25.3-5.4c0.1,0,0.2,0,0.3,0l0-0.1
	c2.8-0.9,2.7-1.6,2.6-2.7c-0.2-1.8-2.3-2.8-3.8-2.1c-2.8,0.7-19.3,4-30.8,6.3c0,0,0.1,0.1,0.1,0.1
	C421.3,876.9,423.4,878.2,425.5,879.5z M308.9,796.6c0,0.3,0,0.5-0.7,0.7l0,0c0,0-0.1,0-0.1,0c-0.9,0.3-2.9,0.7-7,1.5
	c1.7,1.1,3.5,2.3,5.4,3.6c0.3,0.2,0.4,0.6,0.2,1c-0.1,0.2-0.3,0.3-0.6,0.3c-0.1,0-0.3,0-0.4-0.1c-1.9-1.3-3.7-2.5-5.4-3.6
	c0.7,3.1,1.4,6.1,1.7,6.7c0.1,0.1,0.2,0.3,0.2,0.5c0,0.4-0.3,0.7-0.7,0.7c-0.6,0-1,0-2.9-9c-1.4-0.9-2.8-1.8-4.2-2.7
	c0.7,3.2,1.5,6.4,1.8,7c0.1,0.1,0.2,0.3,0.2,0.5c0,0.4-0.3,0.7-0.7,0.7c-0.6,0-1,0-3-9.3c0,0,0,0,0,0c-1.2-0.8-2.4-1.5-3.6-2.3
	c0.7,3.2,1.5,6.3,1.8,7c0.1,0.1,0.2,0.3,0.2,0.5c0,0.4-0.3,0.7-0.7,0.7c-0.6,0-1,0-3-9.2c-2.1-1.4-4.4-2.9-6.7-4.5
	c-10.6,11.2-22.3,18-25.8,19.9l-0.2,0.1c-0.1,0.1-0.2,0.1-0.4,0.1c-0.1,0-0.2,0-0.3,0c-35.3-12.3-50.1-37.4-52.1-55.1
	c-0.8-6.8,0.2-12.9,2.7-17.5l-13.2-9.1l4.4,7.7c0.2,0.3,0.1,0.8-0.3,0.9c-0.1,0.1-0.2,0.1-0.3,0.1c-0.2,0-0.5-0.1-0.6-0.3l-5.8-10.2
	l-0.1-0.1c-0.2-0.2-0.3-0.4-0.3-0.7l-0.2-0.3c-0.1-0.2-0.1-0.5,0-0.8c0.2-0.2,0.4-0.3,0.7-0.3c7.3,1.6,10.3,2.3,11.5,2.7
	c0,0,0.1,0,0.1,0v0c0.7,0.3,0.7,0.4,0.7,0.7c-0.1,0.5-0.6,0.7-1,0.5c-0.7-0.2-5.3-1.3-9.2-2.2l14.3,9.9c1.4-2.3,3.2-4.1,5.4-5.5
	c4.7-2.9,10-4.5,15.3-4.5c11.5,0,21.9,7.1,25.1,16.9c4.8-11.9,14-18.7,25.6-18.7c1.7,0,3.4,0.1,5.1,0.4c6.1,0.9,10.7,3.6,13.7,8
	c4,5.8,5.1,14.6,3,24.8c-2.6,12.6-9.4,23-17,31.3c2.4,1.6,4.6,3.1,6.8,4.5c3.1-0.6,7.5-1.5,8.3-1.7c0.4-0.2,1,0.1,1,0.6
	c0,0.3,0,0.5-0.7,0.7l0,0c0,0-0.1,0-0.1,0c-0.9,0.3-2.8,0.7-6.8,1.5c1.2,0.8,2.5,1.6,3.7,2.4c3.1-0.6,7.4-1.5,8.2-1.7
	c0.4-0.2,1,0.1,1,0.6c0,0.3,0,0.5-0.7,0.7l0,0c0,0-0.1,0-0.1,0c-0.9,0.3-2.8,0.7-6.7,1.4c1.2,0.8,2.5,1.6,3.8,2.4
	c3.1-0.6,7.7-1.5,8.5-1.7C308.2,795.8,308.8,796.1,308.9,796.6z M297.4,754.7c2-9.8,1.1-18.2-2.8-23.7c-2.8-4.1-7.1-6.6-12.8-7.4
	c-1.7-0.3-3.3-0.4-4.9-0.4c-11.7,0-20.6,7-25,19.8c-0.1,0.3-0.4,0.5-0.7,0.5c-0.3,0-0.6-0.2-0.6-0.5c-2.1-10.2-12.6-17.9-24.3-17.9
	c-5.1,0-10.1,1.5-14.6,4.3c-2,1.3-3.7,3-5,5.1l22.4,15.4c0.3,0.2,0.4,0.6,0.2,1c-0.1,0.2-0.3,0.3-0.6,0.3c-0.1,0-0.3,0-0.4-0.1
	l-22.3-15.4c-2.3,4.4-3.2,10.1-2.5,16.6c1.9,17.3,16.5,41.8,50.9,53.9C260.5,802.6,291.2,784.6,297.4,754.7z M369.5,849.2
	c0.1,0.1,0.2,0.1,0.2,0.2c-39.8,42.1-83.8,67.7-97.1,75l-0.7,0.4c-0.4,0.3-0.9,0.4-1.4,0.4c-0.3,0-0.7-0.1-0.9-0.2
	C136.9,878.8,81,784.4,73.5,717.6c-2.9-25.6,0.9-48.4,10.3-65.9l-49.6-34.3l16.6,29.1c0.7,1.2,0.3,2.8-1,3.5
	c-0.4,0.2-0.8,0.3-1.3,0.3c-0.9,0-1.8-0.5-2.3-1.3l-22-38.5l-0.6-0.4c-0.8-0.6-1.2-1.5-1.1-2.5l-0.6-1c-0.5-0.9-0.4-2,0.2-2.8
	c0.6-0.8,1.7-1.2,2.7-1c27.4,6.2,38.6,8.7,43.1,10.3c0.1,0,0.2,0,0.3,0v0.1c2.8,1,2.7,1.7,2.6,2.7c-0.2,1.8-2.4,2.8-3.9,2
	c-2.8-0.8-19.8-4.7-34.7-8.1l53.9,37.2c5.4-8.5,12.2-15.5,20.4-20.6c17.6-11,37.6-16.8,57.7-16.8c43.4,0,82.5,26.8,94.4,63.6
	c18.1-44.9,52.8-70.5,96.2-70.5c6.2,0,12.7,0.5,19.3,1.5c22.9,3.6,40.3,13.7,51.7,30.2c15.2,21.9,19.2,55.1,11.2,93.2
	c-9.8,47.2-35.5,86.7-63.9,117.7c-0.3-0.2-0.6-0.4-0.9-0.6c-1.2-0.8-2.8-0.5-3.6,0.7C368.1,846.8,368.4,848.4,369.5,849.2z
	 M432.2,726.8c7.7-36.8,4-68.5-10.4-89.3c-10.6-15.2-26.8-24.7-48.2-28c-6.3-1-12.5-1.5-18.5-1.5c-44.1,0-77.6,26.5-94.2,74.7
	c-0.4,1.1-1.5,1.8-2.6,1.7c-1.2-0.1-2.1-0.9-2.4-2.1c-8.1-38.4-47.4-67.4-91.5-67.4c-19.2,0-38.2,5.5-55,16
	c-7.6,4.7-13.9,11.2-18.9,19.2l84.1,58.1c1.2,0.8,1.5,2.4,0.7,3.6c-0.5,0.7-1.3,1.1-2.1,1.1c-0.5,0-1-0.1-1.5-0.5l-83.8-57.9
	c-8.7,16.4-12.1,38-9.4,62.3c7.3,65.1,61.9,157.2,191.7,202.7C293.6,907.1,408.8,839.1,432.2,726.8z M472.7,887.1l0-0.1
	c2.8-0.9,2.7-1.6,2.6-2.7c-0.2-1.8-2.3-2.8-3.8-2.1c-2.9,0.7-20.3,4.2-31.9,6.5c2.1,1.3,4.1,2.7,6.2,4.1c15.6-3.1,23-4.5,26.5-5.6
	C472.5,887.1,472.6,887.1,472.7,887.1z M442.9,896.9c6.6,4.3,13.3,8.8,20.4,13.7c0.4,0.3,1,0.5,1.5,0.5c0.8,0,1.6-0.4,2.1-1.1
	c0.8-1.2,0.5-2.8-0.7-3.6c-7-4.9-13.8-9.4-20.3-13.6c-1.2,0.2-2.5,0.5-3.8,0.7C442.4,894.6,442.6,895.8,442.9,896.9z M436.9,890
	c0.4-0.6,1-1,1.7-1.1c0.4-0.1,0.8-0.1,1.2-0.2c-4.8-3.1-9.6-6.2-14.2-9.1c-1.6,0.3-3.2,0.6-5,1c0.2,0.8,0.3,1.6,0.5,2.3
	c5.1,3.3,10.3,6.6,15.7,10c-0.1-0.3-0.1-0.6-0.2-0.9C436.4,891.3,436.5,890.6,436.9,890z M415.3,877c0.4-0.6,1-1,1.7-1.1
	c0.7-0.1,1.4-0.3,2.2-0.4c-4.6-2.9-9.2-5.8-13.9-8.8c-1.5,0.3-3,0.6-4.6,0.9c0.2,0.9,0.4,1.8,0.6,2.7c4.6,3,9.2,5.9,13.7,8.7
	C414.8,878.3,414.9,877.6,415.3,877z M414.9,879C414.9,879,414.9,879,414.9,879c7.4,34.9,8.8,34.9,11.2,34.9c1.4,0,2.6-1.2,2.6-2.6
	c0-0.8-0.3-1.5-0.9-1.9c-1.2-2.4-4.1-14.4-6.8-26.5c-1.5-1-3-1.9-4.5-2.9C416,879.6,415.4,879.3,414.9,879z"/>
</svg>
