<?xml version="1.0" encoding="utf-8"?>
<!-- Generator: Adobe Illustrator 22.1.0, SVG Export Plug-In . SVG Version: 6.00 Build 0)  -->
<svg version="1.1" id="Layer_1" xmlns="http://www.w3.org/2000/svg" xmlns:xlink="http://www.w3.org/1999/xlink" x="0px" y="0px"
	 viewBox="0 0 1080 1296" style="enable-background:new 0 0 1080 1296;" xml:space="preserve">
<style type="text/css">
	.st0{fill:#010101;}
</style>
<path class="st0" d="M1001.7,426.7c0.1,0,0.1,0.1,0.2,0.1c-25.2,26.7-53.2,43-61.6,47.6l-0.4,0.2c-0.3,0.2-0.6,0.3-0.9,0.3
	c-0.2,0-0.4,0-0.6-0.1c-84.3-29.3-119.7-89.2-124.5-131.7c-1.8-16.2,0.6-30.7,6.5-41.8l2.7,1.9c-5.5,10.4-7.7,24.1-6,39.6
	c4.6,41.3,39.3,99.8,121.7,128.7c14.7-8,87.9-51.2,102.7-122.5c4.9-23.4,2.5-43.5-6.6-56.7c-6.7-9.7-17-15.7-30.6-17.8
	c-4-0.6-7.9-0.9-11.7-0.9c-28,0-49.2,16.8-59.8,47.4c-0.2,0.7-0.9,1.2-1.7,1.1c-0.7,0-1.4-0.6-1.5-1.3
	c-5.1-24.4-30.1-42.8-58.1-42.8c-12.2,0-24.2,3.5-34.9,10.2c-4.8,3-8.8,7.1-12,12.2l-2.7-1.9c3.4-5.4,7.7-9.8,12.9-13.1
	c11.2-7,23.8-10.7,36.6-10.7c27.6,0,52.3,17,59.9,40.3c11.5-28.5,33.5-44.7,61.1-44.7c4,0,8.1,0.3,12.2,1
	c14.5,2.3,25.6,8.7,32.8,19.2c9.6,13.9,12.2,34.9,7.1,59.2c-6.2,30-22.5,55-40.6,74.7c-0.2-0.1-0.4-0.2-0.5-0.4
	c-0.7-0.5-1.8-0.3-2.3,0.4C1000.8,425.2,1001,426.2,1001.7,426.7z M276.3,512.3c-6.1,0-11.4,2.1-15.7,6.4c-4.3,4.2-6.5,9.4-6.5,15.6
	c0,6.3,2.2,11.6,6.5,16c4.3,4.3,9.6,6.5,15.7,6.5c6.1,0,11.4-2.2,15.7-6.5c4.3-4.3,6.5-9.7,6.5-16c0-6.1-2.2-11.3-6.5-15.6
	C287.7,514.4,282.4,512.3,276.3,512.3z M876.2,340c0.3,0.2,0.6,0.3,0.9,0.3c0.5,0,1-0.2,1.4-0.7c0.5-0.7,0.3-1.8-0.4-2.3l-53.4-36.9
	c-0.6,0.9-1.1,1.9-1.7,2.9L876.2,340z M1068.9,449c-0.1-1.1-1.5-1.8-2.4-1.3c-1.8,0.5-12.9,2.7-20.2,4.1c-3.1-2-6.1-3.9-9-5.8
	c9.4-1.8,13.9-2.8,16.1-3.4c0.1,0,0.1,0,0.2,0l0-0.1c1.8-0.6,1.7-1,1.7-1.7c-0.1-1.1-1.5-1.8-2.4-1.3c-1.8,0.5-12.3,2.5-19.6,4
	c-2.9-1.8-5.8-3.7-8.8-5.6c9.6-1.9,14.2-2.8,16.3-3.5c0.1,0,0.1,0,0.2,0l0-0.1c1.8-0.6,1.7-1,1.7-1.7c-0.1-1.1-1.5-1.8-2.4-1.3
	c-1.8,0.5-12.4,2.6-19.8,4c-5.2-3.4-10.6-6.9-16.3-10.8c-0.8,0.8-1.5,1.6-2.3,2.4c5.6,3.9,10.9,7.4,16.1,10.7c4.6,22,5.6,22,7.1,22
	c0.9,0,1.6-0.7,1.6-1.6c0-0.5-0.2-0.9-0.6-1.2c-0.7-1.5-2.6-9-4.2-16.6c2.9,1.9,5.8,3.7,8.7,5.5c0,0,0,0,0,0
	c4.7,22.1,5.6,22.1,7.1,22.1c0.9,0,1.6-0.7,1.6-1.6c0-0.5-0.2-0.9-0.6-1.2c-0.7-1.5-2.6-9.2-4.3-16.8c3.3,2.1,6.6,4.2,9.9,6.4
	c4.6,21.5,5.5,21.6,7,21.6c0.9,0,1.6-0.7,1.6-1.6c0-0.5-0.2-0.9-0.6-1.2c-0.7-1.5-2.5-8.7-4.1-16.1c4.2,2.7,8.5,5.6,13,8.7
	c0.3,0.2,0.6,0.3,0.9,0.3c0.5,0,1-0.2,1.4-0.7c0.5-0.7,0.3-1.8-0.4-2.3c-4.5-3.1-8.7-5.9-12.9-8.7c9.9-1.9,14.6-2.9,16.8-3.6
	c0.1,0,0.1,0,0.2,0l0-0.1C1069,450.1,1069,449.7,1068.9,449z M313.1,271.7c15.1-10.7,33.4-17.2,51.9-17.2v3.4
	c-17.2,0-36.1,4.1-45.7,19.7c-8.1,13.2-11.9,31.1-12.9,46.4v1.1l-0.2,1.1c-0.7,15.8,0,32.7,5.5,47.7c4.2,11.9,17.2,28.6,29.9,15.8
	c11.6-11.7,13.8-31.7,15-47.2c1.5-17.6,0.8-35.1-0.8-52.7h0.3c-0.2-0.7-0.2-1.3-0.2-2.1h17.9c-1.5,21-3.1,42-2.8,63.1
	c0.2,10.7-1.3,43.1,14.6,44.4l0.2,0.2h0.7c9.3-0.7,12.4-22.3,13.7-28.8c2.8-13.5,4.2-27.2,5.4-40.8c0.5-7.7,1.1-15.4,1.4-23.2
	c-1.4-15.1-2.9-30.2-4.5-45.3h17.1c-2.6,24.9-3.6,50-4.2,75c5.2-16.6,11.1-33.4,19.5-48.8c7.6-14,19.2-29.3,37.3-25.9
	c14.8,2.8,24.7,17.1,29.5,30.4c6,17.2,5.4,36.8,1.8,54.5c10.6-7.8,21.2-17.4,26-30.1c1.4-3.8,2.3-7.8,2.5-11.9
	c-1.3-14.4-2.8-28.9-4.3-43.3h17.1c-2.6,24.9-3.6,50-4.2,75c5.2-16.6,11.1-33.4,19.5-48.8c7.6-14,19.2-29.3,37.3-25.9
	c14.8,2.8,24.7,17.1,29.5,30.4c6,17.2,5.4,36.8,1.8,54.5c10.6-7.8,21.2-17.4,26-30.1c1.3-3.5,2.2-7.2,2.5-10.9
	c-0.2-3.1-0.4-6.2-0.5-9.2l-1.5-26.4l-0.7-8.6h18.1l-1.3,17.6c-1.6,23.1-3.4,46.4-2.8,69.8c0.5,14.3,0.7,48.7,21.6,49.5h1
	c17.2-0.7,23.3-33.5,26.2-45.9c4.6-20.3,7-41,8.6-61.5l-0.8-11.4l-1.6-19h17.9c-0.5,6.2-1,12.5-1.3,18.9l-0.7,9.4l-0.5,9.4
	c-0.8,12.7-1.3,25.2-1.8,37.9l-0.7,18.9l-0.8,19c-0.2,11.4,0.7,22.8,0.7,34.2c24.7-27,31.2-70.5,30.3-105.6l2.4-0.2
	c1,36.6-6,82.2-32.5,109.3c0.2,28.8,0.3,58.3-4.6,86.9c-3.9,23.9-15.5,57.9-46.5,52.1c-29.5-5.5-29.5-49.3-22.8-71.1
	c8-25.7,27.8-46.5,52.9-56.1l1.1-0.5c6.3-2.4,12-7.2,16.9-11.9c-0.2-18.7-0.5-37.3-2.1-56l-1.6-18.9l-2.3-27
	c-2,18.1-4.7,36.1-9.4,53.5c-3.4,12.7-10.3,38.2-26.8,38.7h-0.7c-19.5,0-25.1-28-27.8-42.6c-2.5-13.8-3.9-27.8-4.9-41.7
	c-5.3,14.4-18,25.7-30.4,34.4c-3.9,15.9-10.4,34-22.5,45.7l-0.8,0.7c-6.7,6.2-16.6,12.2-26.2,11.1c-10.1-1.1-12.4-11.1-8.3-19.2
	c8-15.8,28-23.4,42.5-32.2c2.3-20.7,1.8-41.8-1-62.3c-1.8-12.9-10.1-37.9-28.5-29.5c-15.8,7.5-23.4,32.1-28.5,47.4
	c-6.2,18.5-10.6,37.8-14.3,57.1c0.2,42.3,2.4,84.6,1.1,127.1l-0.3,7.3c-0.5,10.7-1.1,21.5-2.8,32.1c-1,6.3-2.6,20.7-11.6,21
	c-12.5,0.2-12.7-31.9-13-39.9c-1-18.1,0.2-36.1,2-54c3.9-37.8,10.7-75.3,20.7-111.9c-0.9-11.9-1.9-23.8-2.9-35.7
	c-5.1,14.8-18.1,26.5-30.7,35.3c-3.9,15.9-10.4,34-22.5,45.7l-0.8,0.7c-6.7,6.2-16.6,12.2-26.2,11.1c-10.1-1.1-12.4-11.1-8.3-19.2
	c8-15.8,28-23.4,42.5-32.2c2.3-20.7,1.8-41.8-1-62.3c-1.8-12.9-10.1-37.9-28.5-29.5c-15.8,7.5-23.4,32.1-28.5,47.4
	c-6.2,18.5-10.6,37.8-14.3,57.1c0.2,42.3,2.4,84.6,1.1,127.1l-0.3,7.3c-0.5,10.7-1.1,21.5-2.8,32.1c-1,6.3-2.6,20.7-11.6,21
	c-12.5,0.2-12.7-31.9-13-39.9c-1-18.1,0.2-36.1,2-54c3.9-37.8,10.7-75.3,20.7-111.9c-0.7-9.5-1.5-19-2.3-28.5
	c-0.9,12.4-2.2,24.8-4,37c-1.6,10.1-4.1,39.2-17.7,41.3h-0.2l-0.3,0.2h-0.5c-21.2,1-23.6-42.8-25.2-56.5c-1.1,18.2-7.5,67-37.1,56.1
	c-12.9-4.7-20.8-19-25.9-30.9c-5.2-12.9-8-26.5-8.5-40.4v-1.3l-0.2-1.3C289,302.7,295.8,283.7,313.1,271.7z M486.5,357.4
	c-13.3,8.1-32.9,15.6-39.5,30.8c-3.4,7.8,1.1,14.2,9.6,13.7c7.8-0.3,14.3-5.9,18.9-11.6l0.5-0.8c5-6.7,7.5-15.3,9.1-23.4
	L486.5,357.4z M611.6,357.4c-13.3,8.1-32.9,15.6-39.5,30.8c-3.4,7.8,1.1,14.2,9.6,13.7c7.8-0.3,14.3-5.9,18.9-11.6l0.5-0.8
	c5-6.7,7.5-15.3,9.1-23.4L611.6,357.4z M733.5,410.3c-3.3,2.9-6.8,5.5-10.6,7.8l-4.2,2.3c-20,11.1-31.7,29.3-39.1,50.6
	c-6.3,18.1-13.8,46-2.9,63.9c5.4,8.8,15.8,11.1,25.1,7.8c10.4-3.7,16.8-13,20.8-22.9c9.3-23.1,9.9-49.6,10.7-74.2
	C733.7,433.7,733.7,422,733.5,410.3z M537.8,377.6c-6,34.8-10.3,70.1-12.7,105.6l-1,14.5c-0.7,10.6-1.3,21-1.1,31.6
	c0,5.4-0.7,14.6,3.3,19.2h0.2c5.9,0.5,8.1-15.5,8.8-19c2-10.3,2.8-20.7,3.3-31.1c1.1-21.5,0.7-42.8,0.3-64.3l-0.3-14.8l-0.3-14.6
	C537.9,395.5,538.1,386.5,537.8,377.6z M412.6,377.6c-6,34.8-10.3,70.1-12.7,105.6l-1,14.5c-0.7,10.6-1.3,21-1.1,31.6
	c0,5.4-0.7,14.6,3.3,19.2h0.2c5.9,0.5,8.1-15.5,8.8-19c2-10.3,2.8-20.7,3.3-31.1c1.1-21.5,0.7-42.8,0.3-64.3l-0.3-14.8l-0.3-14.6
	C412.8,395.5,413,386.5,412.6,377.6z M231.9,975.1c0.5-0.8,1.5-0.9,2.3-0.4c0.2,0.1,0.4,0.2,0.5,0.4c18-19.7,34.3-44.7,40.6-74.7
	c5-24.2,2.5-45.3-7.1-59.2c-7.2-10.4-18.3-16.9-32.8-19.2c-4.2-0.6-8.3-1-12.2-1c-27.6,0-49.6,16.2-61.1,44.7
	c-7.6-23.3-32.4-40.3-59.9-40.3c-12.8,0-25.5,3.7-36.6,10.7c-5.2,3.2-9.5,7.7-12.9,13.1l2.7,1.9c3.2-5,7.2-9.2,12-12.2
	c10.7-6.7,22.7-10.2,34.9-10.2c28,0,52.9,18.4,58.1,42.8c0.2,0.7,0.8,1.3,1.5,1.3c0.7,0.1,1.4-0.4,1.7-1.1
	c10.6-30.6,31.8-47.4,59.8-47.4c3.8,0,7.7,0.3,11.7,0.9c13.6,2.1,23.9,8.1,30.6,17.8c9.1,13.2,11.5,33.3,6.6,56.7
	c-14.8,71.3-88,114.4-102.7,122.5C87,993.2,52.3,934.8,47.7,893.5c-1.7-15.4,0.4-29.1,6-39.6l-2.7-1.9c-6,11.1-8.3,25.6-6.5,41.8
	c4.8,42.4,40.2,102.3,124.5,131.7c0.2,0.1,0.4,0.1,0.6,0.1c0.3,0,0.6-0.1,0.9-0.3l0.4-0.2c8.4-4.6,36.4-20.9,61.6-47.6
	c-0.1,0-0.1-0.1-0.2-0.1C231.6,976.9,231.4,975.8,231.9,975.1z M549.6,818.5c28.7,29.1,38.8,72.8,34.6,112.6
	c-2.2,19.6-7.9,39-17.9,55.9c-9.6,16-25.1,32.6-45.3,31.8l-5.7-0.3c-20.9-1.6-35-16.9-38.2-37.1c-2.4-15.7-0.1-44.1,15.9-52.9
	l1.3,2.5c-7.9,4.3-11.5,15.7-13.2,23.8c-2.4,10-2.6,20.6-0.3,30.4c4.4,18.5,19.7,31,39,30.7l0.7-0.1h0.6c19-1,30.7-19,36.9-34.9
	c6.8-17.1,9.7-35.7,10.7-54c2.1-39.1-5.4-83.7-34.3-112.2c-26.6-26.2-68.1-31.9-103.2-22.4c-37.5,10.4-61.6,47.8-48.7,86.3
	c2.2-0.3,4.4-0.3,6.6-0.3l1.3-0.1c16.9,0,34.3,6,44.6,20.1c8.8-7.5,12.1-19.7,10.9-31c-0.6-6.8-3.8-19-12.6-19.1l0.1-2.8
	c10.3,0,14.6,13.4,15.3,21.8c1.3,12.2-2.4,25.4-12.1,33.5c20.1,31.5,0.1,78.7-36.3,86.2c-16,3.4-32.2-1.3-42.5-14.7
	c-10.3-13.5-12.5-34-0.3-47.2l1.9,1.8c-12.1,12.9-8.8,33.4,2.1,46c10.3,11.8,25.7,14.9,40.4,11.2c33.5-8.4,51.2-52.4,32.8-81.6
	c-9.3,6.5-23.1,8.5-33.4,3.8c-10.4-4.7-17.2-14.9-21-25.3c-28.4,2.5-51.6,22.4-58.1,50.1c-6.6,27.8,5.3,58.2,30.1,72.6
	c23.4,13.7,56.2,12.9,78.5-2.2c22.4-15.3,30.6-42.1,29-68.2l-0.4-5.4c-1.9-28.7-4.9-58.1-2.8-86.9h16.2c2.2,28.8-0.7,58.2-2.8,86.9
	l-0.4,5.6c-1.9,26.6-14.3,54.4-36.9,69.9c-23.1,15.9-55.4,16-80.4,4.7c-27.2-12.2-44-40.7-41-70.4c2.9-28.4,23.5-49,50.6-55.7
	c5.9-1.5,11.8-2.4,17.8-2.9c-1.5-4.7-2.5-9.6-2.9-14.6c-1.9-19,4-38.7,16.9-52.9c13.4-14.6,32.5-22.1,51.8-24.6
	C482.1,782,523,791.5,549.6,818.5z M383.1,880.9c4,10.6,11.6,21.3,23.2,24.3c8.7,2.4,19.3,0.1,26.6-5c-10-13.7-26.5-18.8-42.6-19.3
	l-1.3-0.1c-1.8,0-3.7,0-5.4,0.1H383.1z M106.8,890.7c0.3,0.2,0.6,0.3,0.9,0.3c0.5,0,1-0.2,1.4-0.7c0.5-0.7,0.3-1.8-0.4-2.3L55.3,851
	c-0.6,0.9-1.1,1.9-1.6,2.9L106.8,890.7z M297.1,998.3c-1.8,0.5-12.9,2.7-20.2,4.1c-3.1-2-6.1-3.9-9-5.8c9.4-1.8,13.9-2.8,16.1-3.4
	c0.1,0,0.1,0,0.2,0l0-0.1c1.8-0.6,1.7-1,1.7-1.7c-0.1-1.1-1.5-1.8-2.4-1.3c-1.8,0.5-12.3,2.5-19.6,4c-2.9-1.8-5.8-3.7-8.8-5.6
	c9.6-1.9,14.2-2.8,16.3-3.5c0.1,0,0.1,0,0.2,0l0-0.1c1.8-0.6,1.7-1,1.7-1.7c-0.1-1.1-1.5-1.8-2.4-1.3c-1.8,0.5-12.4,2.6-19.8,4
	c-5.2-3.4-10.6-6.9-16.3-10.8c-0.8,0.8-1.5,1.6-2.3,2.4c5.6,3.9,10.9,7.4,16.1,10.7c4.6,22,5.6,22,7.1,22c0.9,0,1.6-0.7,1.6-1.6
	c0-0.5-0.2-0.9-0.6-1.2c-0.7-1.5-2.6-9-4.2-16.6c2.9,1.9,5.8,3.7,8.7,5.5c0,0,0,0,0,0c4.7,22.1,5.6,22.1,7.1,22.1
	c0.9,0,1.6-0.7,1.6-1.6c0-0.5-0.2-0.9-0.6-1.2c-0.7-1.5-2.6-9.2-4.3-16.8c3.3,2.1,6.6,4.2,9.9,6.4c4.6,21.5,5.5,21.6,7,21.6
	c0.9,0,1.6-0.7,1.6-1.6c0-0.5-0.2-0.9-0.6-1.2c-0.7-1.5-2.5-8.7-4.1-16.1c4.2,2.7,8.5,5.6,13,8.7c0.3,0.2,0.6,0.3,0.9,0.3
	c0.5,0,1-0.2,1.4-0.7c0.5-0.7,0.3-1.8-0.4-2.3c-4.5-3.1-8.7-5.9-12.9-8.7c9.9-1.9,14.6-2.9,16.8-3.6c0.1,0,0.1,0,0.2,0l0-0.1
	c1.8-0.6,1.7-1,1.7-1.7C299.4,998.5,298,997.9,297.1,998.3z M787.8,274.9c9.4,2.1,20.2,4.6,22,5.2c0.9,0.5,2.3-0.2,2.4-1.3
	c0.1-0.7,0.1-1.1-1.7-1.7v-0.1c-0.1,0-0.1,0-0.2,0c-2.9-1-10-2.6-27.4-6.6c-0.6-0.2-1.3,0.1-1.7,0.6c-0.4,0.5-0.4,1.2-0.1,1.8
	l0.4,0.6c-0.1,0.6,0.2,1.2,0.7,1.6l0.4,0.2l14,24.4c0.3,0.5,0.9,0.8,1.4,0.8c0.3,0,0.6-0.1,0.8-0.2c0.8-0.5,1.1-1.5,0.6-2.2
	l-10.6-18.5l31.5,21.8c0.5-1,1.1-1.9,1.7-2.8L787.8,274.9z M985.1,1017.9c0.1,26,0.3,52.6-4.1,78.5c-3.5,21.6-14,52.4-42.1,47.1
	c-26.6-5-26.6-44.6-20.6-64.3c7.2-23.2,25.1-42.1,47.8-50.7l1-0.4c5.7-2.2,10.9-6.5,15.3-10.7c-0.1-16.9-0.4-33.7-1.9-50.6
	l-1.5-17.1l-2.1-24.4c-1.8,16.3-4.3,32.6-8.5,48.4c-3.1,11.5-9.3,34.6-24.3,35h-0.6c-17.6,0-22.6-25.3-25.1-38.5
	c-1.7-9.2-2.8-18.6-3.6-27.9c-0.8,10.1-1.9,20.2-3.7,30.1c-1.6,9.6-4.7,35.3-18.1,36h-0.4c-15.4,0.1-20.4-32.1-22.6-42.8
	c-5.9,14.7-15.6,41.2-33.7,43.8c-19.7,2.8-28.7-23.7-31.9-38.5c0-0.2-0.1-0.4-0.1-0.6c-0.1,0.7-0.2,1.4-0.3,2
	c-1.6,9.6-4.7,35.3-18.1,36h-0.4c-15.4,0.1-20.4-32.1-22.6-42.8c-5.9,14.7-15.6,41.2-33.7,43.8c-19.7,2.8-28.7-23.7-31.9-38.5
	c0-0.2-0.1-0.4-0.1-0.6c-0.1,0.4-0.1,0.8-0.2,1.2c-1.5,9.1-3.7,35.4-16,37.4h-0.1l-0.3,0.1h-0.4c-19.1,0.9-21.3-38.7-22.8-51
	c-1,16.5-6.8,60.6-33.5,50.7c-11.6-4.3-18.8-17.2-23.4-27.9c-4.7-11.6-7.2-24-7.6-36.5v-1.2l-0.1-1.2c0-18.7,6.2-35.9,21.8-46.8
	c13.7-9.7,30.1-15.6,46.9-15.6v3.1c-15.6,0-32.6,3.7-41.3,17.8c-7.4,11.9-10.7,28.1-11.6,41.9v1l-0.1,1c-0.6,14.3,0,29.6,5,43.1
	c3.8,10.7,15.6,25.9,27.1,14.3c10.4-10.6,12.5-28.7,13.5-42.6c1.3-15.9,0.7-31.8-0.7-47.6h0.3c-0.1-0.6-0.1-1.2-0.1-1.9h16.2
	c-1.3,19-2.8,37.9-2.5,57.1c0.1,9.7-1.2,39,13.2,40.1l0.1,0.1h0.6c8.4-0.6,11.2-20.1,12.4-26c1.2-5.7,2.1-11.5,2.8-17.3
	c-2.5-17.2-1.4-36,5.4-52.1c3.5-8.7,9.4-16.3,16.9-21.9c8.1-6,16-6.8,25.6-8.4v2.6c-18.2-3.2-25.3,24.6-28.8,36.8
	c-4.9,17.1-7.5,35.1-6.3,52.9c0.7,11.3,6.5,40.3,24.3,32.1c15.4-7.2,23.2-30,28.8-44.9c-7.4-38.7-9.3-78.7-6.9-118.1
	c1-20.4,3.8-40.9,9-60.7c2.2-8.5,4.9-17.1,8.7-25.1c2.2-4.9,6.2-12.9,12.5-13.2c12.2-0.6,11.2,27.6,11.3,35
	c0.3,19.4-1.5,38.8-3.8,58.1c-4.7,38.1-12.1,76.2-24,112.6c0.6,11.5,1.5,22.9,4,34.1c1.3,6.5,4.3,21.9,13.1,22.6h0.3
	c10.6,0,14-24.4,15.3-31.6c0.7-3.9,1.3-7.8,1.8-11.8c-2.3-17-1.2-35.4,5.5-51.1c3.5-8.7,9.4-16.3,16.9-21.9c8.1-6,16-6.8,25.6-8.4
	v2.6c-18.2-3.2-25.3,24.6-28.8,36.8c-4.9,17.1-7.5,35.1-6.3,52.9c0.7,11.3,6.5,40.3,24.3,32.1c15.4-7.2,23.2-30,28.8-44.9
	c-7.4-38.7-9.3-78.7-6.9-118.1c1-20.4,3.8-40.9,9-60.7c2.2-8.5,4.9-17.1,8.7-25.1c2.2-4.9,6.2-12.9,12.5-13.2
	c12.2-0.6,11.2,27.6,11.3,35c0.3,19.4-1.5,38.8-3.8,58.1c-4.7,38.1-12.1,76.2-24,112.6c0.6,11.5,1.5,22.9,4,34.1
	c1.3,6.5,4.3,21.9,13.1,22.6h0.3c10.6,0,14-24.4,15.3-31.6c2.5-14,3.8-28.2,4.7-42.5l0.4-8.7c-0.2-3.2-0.4-6.4-0.5-9.6l-1.3-23.8
	l-0.6-7.8h16.3l-1.2,15.9c-1.5,20.9-3.1,41.9-2.5,63.1c0.4,12.9,0.6,44,19.6,44.7h0.9c15.6-0.6,21-30.3,23.7-41.5
	c4.1-18.4,6.3-37.1,7.8-55.6l-0.7-10.3l-1.5-17.2h16.2c-0.4,5.6-0.9,11.3-1.2,17.1l-0.6,8.5l-0.4,8.5c-0.7,11.5-1.2,22.8-1.6,34.3
	l-0.6,17.1l-0.7,17.2c-0.1,10.3,0.6,20.6,0.6,30.9c22.4-24.4,28.2-63.7,27.4-95.4l2.2-0.1C1015.4,952.2,1009,993.4,985.1,1017.9z
	 M768.1,941.6c10.7-35,17.8-71.5,22.1-107.8c2.2-18.2,3.8-36.8,3.5-55.3c0-4,0.3-31.2-8.1-30.4h-0.3c-6.8,2.1-8.1,18.2-8.8,23.5
	c-1.8,11.5-2.6,23.1-3.4,34.7l-1.6,24.9l-0.9,12.5c-1.2,20.7-2.1,41.6-2.5,62.5C767.8,917.9,767.8,929.8,768.1,941.6z M875.3,941.6
	c10.7-35,17.8-71.5,22.1-107.8c2.2-18.2,3.8-36.8,3.5-55.3c0-4,0.3-31.2-8.1-30.4h-0.3c-6.8,2.1-8.1,18.2-8.8,23.5
	c-1.8,11.5-2.6,23.1-3.4,34.7l-1.6,24.9l-0.9,12.5c-1.2,20.7-2.1,41.6-2.5,62.5C875.1,917.9,875.1,929.8,875.3,941.6z M982.4,1020.4
	c-2.9,2.6-6.2,5-9.6,7.1l-3.8,2.1c-18.1,10-28.7,26.5-35.3,45.7c-5.7,16.3-12.5,41.6-2.6,57.8c4.9,7.9,14.3,10,22.6,7.1
	c9.4-3.4,15.1-11.8,18.8-20.7c8.4-20.9,9-44.9,9.7-67.1C982.6,1041.6,982.6,1031,982.4,1020.4z M1066.3,596.5
	c0.8,3.8,0.4,8.2-1.2,13.3l-59.3,169c-3.1,8.5-6.8,15.5-11.2,21.1c-4.4,5.6-9.1,10-14.1,13.3c-5,3.2-10.1,5.6-15.3,6.9
	c-5.2,1.4-10.3,2-15.2,2c-6.9,0-13.1-1.1-18.8-3.4c-5.7-2.3-10.6-5.4-14.6-9.3c-4.1-4-7.2-8.5-9.3-13.7C905,790.5,904,785,904,779
	c0-5.8,0.9-10.9,2.8-15.4c1.9-4.5,4.3-8.3,7.3-11.4c3-3.1,6.3-5.4,10-6.9c3.7-1.5,7.4-2.3,11-2.3c6.9,0,12.5,2.2,16.8,6.5
	c4.3,4.3,6.4,9.9,6.2,16.8c-0.4,6.3-2.3,11.1-5.8,14.4c-3.5,3.2-7.8,5.2-12.9,6c2.2,2.2,4.9,3.3,8.1,3.3c3.3,0,6.6-1.4,10-4.1
	c3.4-2.7,6.1-6.4,8.1-11.1c1.3-3.8,2.4-7,3.4-9.7c1-2.7,1.9-5.3,2.8-7.9c0.9-2.5,1.8-5.2,2.8-8c1-2.8,2.2-6.2,3.7-10.2
	c-5.6,2-11.4,3-17.3,3c-5.6,0-10.8-0.9-15.7-2.6c-4.9-1.7-9.1-4.2-12.7-7.4c-1.1-1-2.1-2.1-3.1-3.2c-0.4,0.3-0.8,0.6-1.2,0.9
	c-5.8,3.9-11.6,6.7-17.6,8.4c-6,1.7-11.7,2.6-17.3,2.6c-2.2,0-4.9-0.2-8.3-0.5c-3.3-0.4-6.8-1.1-10.4-2.3c-3.6-1.2-7.1-2.8-10.4-5
	c-3.3-2.2-6-5-8-8.4c-4.9,4.3-10.3,7.7-16.4,10.2c-6,2.4-12.1,3.7-18.3,3.7c-6,0-11.5-1.1-16.7-3.3c-5.1-2.2-9.6-5.1-13.3-8.8
	c-0.1-0.1-0.3-0.3-0.4-0.4c-6.2,5.1-12.5,8.8-19,11.1c-7,2.5-13.9,3.8-20.6,3.8c-7,0-13.7-1.4-20-4.3c-6.3-2.9-11.6-6.8-15.7-11.6
	c-5.4,4.7-11.3,8.1-17.6,10.3c-6.3,2.2-12.5,3.3-18.7,3.3c-5.8,0-11.2-0.9-16.4-2.8c-5.1-1.9-9.7-4.6-13.5-8.1
	c-0.8-0.7-1.5-1.4-2.2-2.2c-0.2,0.2-0.4,0.4-0.6,0.6c-6.5,5.5-13.1,9.4-19.9,11.6c-6.8,2.3-13.4,3.4-19.9,3.4
	c-5.8,0-11.3-0.8-16.7-2.4c-5.3-1.6-10.1-4.1-14.2-7.3c-4.2-3.2-7.5-7.3-10-12.2c-2.5-4.9-3.8-10.5-3.8-16.8
	c0-5.4,1.1-11.4,3.3-17.9v0.3l19.5-55.5c0.7-1.4,1.1-3.1,1.1-4.9c0-2.5-0.9-4.6-2.6-6.4c-1.7-1.7-3.9-2.6-6.6-2.6
	c-4.2,0-8.4,1.7-12.6,5.1c-4.2,3.4-7.8,7.8-10.7,13l-32.5,91.3c-2.7,7.2-6.6,12-11.6,14.2c-5.1,2.3-9.8,2.6-14.4,0.9
	c-3.2-1.2-5.9-3.2-8.1-6.1c-9.5,4.8-19.8,7.2-30.9,7.2c-7,0-13.7-1-20-3c-6.3-2-11.8-4.9-16.5-8.7c-1.8-1.4-3.4-2.9-4.9-4.6
	c-12,10.8-24.9,16.2-38.7,16.2c-5.6,0-10.9-0.9-15.8-2.8c-5-1.9-9.3-4.5-13.1-7.8c-3.8-3.3-6.8-7.3-8.9-12.1
	c-2.2-4.7-3.2-10.1-3.2-16c0-5.2,1.1-11,3.2-17.3l11.9-33c1.1-3.3,1.2-5.9,0.4-8c-0.8-2.1-2.1-3.8-3.9-5.1c-1.8-1.4-3.9-2.4-6.4-3.1
	c-2.4-0.7-4.7-1.4-6.9-2.2l-12.5,33.5c-0.1,0.6-0.3,1.1-0.5,1.7c-4.7,14.1-10,25.7-16,34.9c-6,9.2-12.2,16.6-18.7,22.2
	c-6.5,5.6-13.1,9.5-19.9,11.8c-6.8,2.3-13.5,3.4-20.2,3.4c-6.3,0-12.2-0.9-17.7-2.7c-5.5-1.8-10.4-4.4-14.6-7.9
	c-4.1-3.3-7.3-7.3-9.7-12c-0.7,0.3-1.4,0.6-2,0.8c-7,2.6-14.5,3.9-22.5,3.9c-6.3,0-12-0.8-17.1-2.4c-8.1,8.5-17.4,14.6-27.8,18.3
	c-10.4,3.7-20.7,5.6-31,5.6c-5.4,0-10.7-0.5-15.8-1.5c-5.1-1-10-2.4-14.5-4.3c-4.5-1.9-8.6-4.2-12.3-6.9c-3.7-2.7-6.7-5.8-9.1-9.2
	c-1.1,5.6-3,10.1-5.8,13.4c-2.8,3.3-6,5.6-9.5,6.9c-3.5,1.3-7.1,1.6-10.7,0.9c-3.6-0.6-6.6-2.1-9.1-4.3c-2.4-2.3-4.1-5.3-5-9.1
	c-0.9-3.8-0.4-8.3,1.6-13.5l70.9-200.6c1.8-6.1,5-10.6,9.5-13.5c4.5-2.9,9.1-4.4,13.7-4.5c4.6-0.1,8.7,1.1,12.2,3.7
	c3.5,2.5,5.3,6,5.3,10.6c7.8-3.8,15-5.8,21.7-6c6.7-0.2,11.8-0.1,15.4,0.3c6,0.5,11.6,2,16.9,4.3c5.3,2.3,10,5.5,14.1,9.5
	c4.1,4,7.3,8.7,9.7,14.2c2.4,5.5,3.7,11.7,3.7,18.5c0,5.2-0.7,10.6-2.2,16c-1.4,5.4-3.5,10.7-6.2,15.7c-2.7,5.1-6,9.7-9.7,14.1
	c-3.8,4.3-7.9,8-12.5,11.1c5.6,6,9.6,12.4,12,19.4c2.4,7,3.7,13.9,3.9,21c0.2,7-0.7,13.9-2.6,20.6c-1.9,6.7-4.4,12.6-7.4,17.9h0.3
	c7.6,0,14-2.5,19.2-7.6c1.6-1.5,3-3.2,4.4-5c1.4-4.2,2.9-8.4,4.4-12.9c2.4-7,4.9-14.1,7.4-21.3c2.5-7.1,5-14.3,7.4-21.4
	c2.4-7.1,4.7-13.9,6.9-20.2c2.5-7.4,6.4-12.5,11.5-15.4c5.1-2.9,10.1-3.8,14.8-2.7c4.7,1.1,8.4,4,11.1,8.8
	c2.7,4.8,2.9,11.1,0.5,18.8l-29.8,85c-0.5,1.6-0.8,3.1-0.8,4.3c0,2.5,0.9,4.7,2.8,6.5c1.9,1.8,4.4,2.7,7.4,2.7
	c2.7,0,5.6-0.8,8.7-2.3c3.1-1.5,6.2-4.1,9.5-7.7c3.2-3.6,6.5-8.3,9.9-14.2c3.3-5.9,6.6-13.2,9.9-22.1c0.6-1.6,1.3-3.1,2.2-4.4
	l16.2-43.8c-4.5-5.6-6.8-12-6.8-19.2c0-2,0.2-4.2,0.7-6.5c0.4-2.3,1.1-4.5,2-6.5c1.4-4.9,4.2-8.8,8.3-11.9c4.1-3.1,8.9-4.6,14.5-4.6
	c3.6,0,7,0.9,10.3,2.6c3.2,1.7,6,4,8.1,6.8c2.2,2.8,3.7,6,4.5,9.5c0.8,3.5,0.6,7.2-0.7,11c3.8,1.1,8.4,2.7,13.8,4.7
	c5.4,2.1,10.6,4.7,15.7,8c5.1,3.2,9.3,7.2,12.9,11.8c3.5,4.6,5.3,10.2,5.3,16.7c0,2.3-0.2,4.7-0.7,7.2c-0.5,2.4-1.1,5-2,7.7
	l-16,44.4c-0.7,2-1.1,4-1.1,6c0,2,0.4,3.7,1.4,5c0.9,1.4,2.3,2,4.3,2c2.9,0,5.9-1.2,8.9-3.5c3.1-2.3,6.1-5.6,9.2-9.6
	c2.7-3.5,5.3-7.6,7.9-12.3c0.4-1.4,0.8-2.9,1.3-4.3v0.3c2-5.8,3.9-11.1,5.6-16.1c1.8-5,3.5-9.9,5.2-14.8c1.7-4.9,3.4-9.8,5.2-14.8
	c1.8-5,3.7-10.3,5.6-16.1h-8.9c-4,0-7-1.7-9.2-5c-2.2-3.3-3-7-2.6-11.1c0.4-4.1,2.3-7.8,5.6-11.1c3.2-3.3,8.3-5,15.2-5h11.3
	l20.6-57.1c2.2-6.9,5.7-11.4,10.7-13.5c5-2.2,9.8-2.7,14.5-1.5c4.7,1.2,8.5,3.7,11.5,7.6c3,3.9,3.7,8.4,2,13.7l-17.9,50.9H494
	c5.8,0,9.8,1.7,12.2,5c2.3,3.3,3.2,7,2.6,11.1c-0.6,4.1-2.8,7.8-6.4,11.1c-3.6,3.3-8.5,5-14.6,5h-17.6l-25.7,72.2
	c-0.7,1.6-1.1,3.6-1.1,6c0,3.6,1.4,6.7,4.2,9.2c2.8,2.5,6.6,3.8,11.5,3.8c7.9,0,15.8-3.6,23.7-10.7c4.8-4.4,9.2-10.2,13.1-17.6
	l52.6-147.2c1.8-5.8,4.2-10.3,7.3-13.5c3.1-3.2,6.3-5.4,9.7-6.4c3.4-1,6.8-1,10,0c3.3,1,5.9,2.8,8,5.4c2.1,2.6,3.4,6,3.9,10.2
	c0.5,4.2-0.3,8.8-2.4,14.1l-14.6,42.8c5.4-2.3,11.2-3.5,17.3-3.5c5.4,0,10.5,1,15.3,3c4.8,2,8.9,4.7,12.5,8.1
	c3.5,3.4,6.3,7.5,8.3,12.2c2,4.7,3,9.7,3,15.2c0,4.7-0.8,9.6-2.4,14.6L602,697.8c-0.5,1.1-0.8,2.3-0.8,3.5c0,2,0.8,3.7,2.3,5
	c1.5,1.4,3.6,2,6.1,2c6.1,0,12.8-3.7,19.9-11c3.6-3.7,7-8.5,10.3-14.4c0-0.1,0.1-0.2,0.1-0.3l25.2-71.2c1.8-5.1,4.3-9.5,7.4-13.4
	c3.2-3.9,6.7-7.1,10.6-9.6c3.9-2.5,8.1-4.4,12.6-5.7c4.5-1.3,8.9-1.9,13.3-1.9c6.3,0,12.3,1.3,18,3.8c5.7,2.5,10.6,6.1,14.8,10.6
	l21.7-62.5c1.8-5.8,4.2-10.2,7.3-13.4c3.1-3.2,6.3-5.2,9.7-6.2c3.4-1,6.8-1,10,0c3.2,1,6,2.8,8.3,5.3c2.3,2.5,3.7,5.7,4.5,9.6
	c0.7,3.9,0.3,8.3-1.4,13.1l-53.3,154.3c-0.7,1.4-1.1,3.1-1.1,4.9c0,2.2,0.7,4.1,2.2,5.7c1.4,1.6,3.5,2.4,6.2,2.4
	c6.1,0,12.6-3.6,19.5-10.8c1.6-1.7,3.2-3.6,4.7-5.8c0.1-0.6,0.2-1.2,0.3-1.8c0.5-2.3,1.1-4.8,2-7.3l25.5-71.8
	c4-10.3,10.2-18,18.5-23c8.4-5.1,17.1-7.6,26.1-7.6c7.6,0,14,0.9,19.2,2.8c5.2,1.9,9.2,3.7,11.9,5.6c3.3-4,7.4-6.5,12.6-7.7
	c5.1-1.2,9.9-0.9,14.2,0.7c4.3,1.6,7.7,4.6,10,8.8c2.3,4.2,2.3,9.8,0,16.7l-30.3,86.6c-0.9,3.2-1.4,5.9-1.4,7.9
	c0,4.5,2.4,6.8,7.3,6.8c6.1,0,12.5-3.2,19-9.5c3.6-3.5,7.2-8.3,10.7-14.4l29.9-84.7c1.3-4.9,3.4-8.8,6.4-11.9c3-3.1,6.3-5.2,9.9-6.4
	c3.6-1.2,7.2-1.4,10.7-0.8c3.5,0.6,6.5,2.1,8.8,4.3c2.3,2.3,3.9,5.4,4.6,9.3c0.7,4,0,8.8-2.2,14.4L964.1,694
	c-0.5,1.3-0.9,2.5-1.1,3.7c-0.2,1.2-0.3,2.2-0.3,3.1c0,5.2,2.6,7.9,7.9,7.9c3.6,0,7.7-1.5,12.3-4.6c4.6-3.1,9-8.3,13.1-15.7
	l31.4-89.1c1.4-4.7,3.6-8.4,6.5-11.2c2.9-2.8,6-4.6,9.3-5.6c3.3-0.9,6.6-0.9,9.9-0.1c3.2,0.8,6,2.4,8.4,4.9
	C1063.9,589.6,1065.5,592.7,1066.3,596.5z M130.1,696.4c-3.6-3.6-7.4-6.7-11.2-9.3c-3.9-2.6-8.6-3.9-14.2-3.9
	c-5.2,0-9.5,1.1-12.9,3.2c-3.3,2.2-5.6,5.1-6.6,8.7c-0.4,0.9-0.5,2.3-0.5,4.1c0,3.1,1.4,5.6,4.1,7.7c2.7,2.1,6.6,3.1,11.6,3.1
	c4.9,0,10-1.1,15.4-3.2C121.2,704.5,125.9,701.1,130.1,696.4z M161.2,558.9c0-4.5-1.6-8.1-4.9-10.7c-3.2-2.6-7.2-4.1-11.9-4.5
	c-3.1,0-6.2,0.4-9.5,1.1c-3.2,0.7-6.5,1.9-9.6,3.5c-3.2,1.6-6.1,3.7-8.8,6.2c-2.7,2.5-4.9,5.5-6.5,8.9l-32.5,89.9
	c3.4-1.4,7.5-2.5,12.2-3.2c4.7-0.7,9.2-1.1,13.5-1.1c9.2,0.2,17.4,1.9,24.5,5c7.1,3.2,13.1,7.1,18,11.8c3.1-8.7,3.9-15.9,2.4-21.7
	c-1.4-5.8-4.8-9.3-10-10.6c-2.5,0.9-5.6,1.4-9.2,1.6c-3.6,0.2-7.3-0.3-11-1.4c-3.7-1.1-7.1-3-10.3-5.8c-3.2-2.8-5.6-6.6-7.2-11.5
	c-0.9-3.8-1.1-7.5-0.5-11.2c0.5-3.7,1.6-7.1,3.1-10.2c1.5-3.1,3.5-5.7,5.8-8c2.3-2.3,4.8-3.9,7.3-5c2.7-1.1,5.5-1.7,8.4-1.8
	c2.9-0.1,5.6,0,8.3,0.4c2.6,0.4,5,1,7,1.9c2.1,0.9,3.6,1.7,4.5,2.4c3.2-1.3,6-3,8.1-5.3c2.2-2.3,3.9-4.6,5.1-7
	c1.3-2.4,2.2-4.9,2.7-7.3C161,563.1,161.2,560.8,161.2,558.9z M722.1,634c-0.1-3.9-0.7-6.9-1.8-8.9c-1.1-2.1-2.3-3.4-3.5-4.1
	c-1.3-0.6-2-0.9-2.2-0.9c-0.2-0.2-0.9-0.4-2.3-0.7c-1.4-0.3-3,0-5,0.8c-2,0.8-4.1,2.5-6.4,5.1c-2.3,2.6-4.5,6.8-6.6,12.6l-14.1,42
	c-0.5,1.4-1,3.1-1.4,5c-0.4,1.9-0.5,3.8-0.3,5.7c0.2,1.9,0.8,3.6,1.8,5.1c1,1.5,2.6,2.6,4.7,3.1c1.3,0.4,2.8,0.4,4.7,0
	c1.9-0.4,3.9-1.3,6.1-2.7c2.2-1.4,4.4-3.7,6.8-6.6c2.3-3,4.5-7,6.5-12l9.7-27.9C721.2,643.1,722.2,637.9,722.1,634z M867.5,634
	c-0.1-3.9-0.7-6.9-1.8-8.9c-1.1-2.1-2.3-3.4-3.5-4.1c-1.3-0.6-2-0.9-2.2-0.9c-0.2-0.2-0.9-0.4-2.3-0.7c-1.4-0.3-3,0-5,0.8
	c-2,0.8-4.1,2.5-6.4,5.1c-2.3,2.6-4.5,6.8-6.6,12.6l-14.1,42c-0.5,1.4-1,3.1-1.4,5c-0.4,1.9-0.5,3.8-0.3,5.7
	c0.2,1.9,0.8,3.6,1.8,5.1c1,1.5,2.6,2.6,4.7,3.1c1.3,0.4,2.8,0.4,4.7,0c1.9-0.4,3.9-1.3,6.1-2.7c2.2-1.4,4.4-3.7,6.8-6.6
	c2.3-3,4.5-7,6.5-12l9.7-27.9C866.6,643.1,867.6,637.9,867.5,634z M18.4,825.5c9.4,2.1,20.2,4.6,22,5.2c0.9,0.5,2.3-0.2,2.4-1.3
	c0.1-0.7,0.1-1.1-1.7-1.7v-0.1c-0.1,0-0.1,0-0.2,0c-2.9-1-10-2.6-27.4-6.6c-0.6-0.2-1.3,0.1-1.7,0.6c-0.4,0.5-0.4,1.2-0.1,1.8
	l0.4,0.6c-0.1,0.6,0.2,1.2,0.7,1.6l0.4,0.2l14,24.4c0.3,0.5,0.9,0.8,1.4,0.8c0.3,0,0.6-0.1,0.8-0.2c0.8-0.5,1.1-1.5,0.6-2.2
	l-10.6-18.5L50.9,852c0.5-1,1.1-1.9,1.7-2.8L18.4,825.5z M17.7,355.5c-11.2-27.8-5.5-61.8,16.8-82.5c3.4-3.3,7.3-6,11.4-8.5
	C30.3,241.6,28,209,43.3,185.3c15.1-23.3,43.6-32.1,70.1-32.7l0.8-0.2h0.8l1.6-0.2c20.7-1.8,38.7,3.7,58.4,9.1
	c13.7,3.7,33.5,7.3,47,0l1,2.6c-1.3,0.3-2.6,1-3.7,1.6v0.2c-15.6,3.9-21.6,27.8-24.1,41.2c-4.1,20.5-3.9,41.8-4.1,62.8v2.4
	c4.2,0.2,8.6,0.7,12.9,1.8l1.1,0.2l2,0.7l1,0.2c17.1,4.7,35.8,7.2,52.9,1.6v-1.6c-0.5-22.6,0.8-45.2,6.8-67
	c3.4-11.9,12.4-45.7,29.3-44.7h0.7c19.5,2.1,8.3,46.4,5.7,57c-4.7,18.4-10.7,39.7-25.1,53l-0.2,1.8v4.2
	c-0.8,26.5-3.4,53.4-10.1,79.2c-4.7,18.1-12.7,45.4-35.1,46.7v-2.4c22.1,1.6,26-35.1,27.5-50.1c2.1-22.6,1.1-45.6,0.7-68.3
	c-17.7,7.6-37.8,6.8-56,1.8l-1.1-0.3l-2-0.7l-0.8-0.3c-3.4-0.8-6.8-1.5-10.1-2c-0.5,31.1-7,64.1-25.7,89.7
	c-19,26.4-48.8,35.6-80.2,32.1C55.7,401,29,383.6,17.7,355.5z M278.6,266.8c14.3-12.7,20.5-34.7,24.2-52.6c1.6-8,10.1-48.8-5.2-48.7
	h-0.3c-11.9,0.3-14.5,24.4-15.3,32.4c-2,17.2-2,34.8-2.8,52.1c-0.3,5.5-0.5,11.1-0.7,16.6V266.8z M48.2,263.2
	c22.6-12.5,54-14.5,77.9-5.2c2-9.6,1.5-34.8-13-35.5h-0.5l0.2-2.8h0.3c16.8,0.8,18.1,27.8,15.6,39.4c10.1,4.4,18.4,11.6,23.9,21.2
	c6.7-2.8,13.5-5.2,20.7-6.7c0.3-20,3.3-40,9.3-59.2c5-15.6,12.4-32.7,24.9-43.9c-17.4,6-33.8,4.6-50.9-1.1
	c-13.3-4.6-28-11.9-42.3-11.9h-0.8c-24.2-0.5-50.3,5.7-65.6,26c-15.3,20.3-15.6,49-4.6,71.3C44.8,257.7,46.4,260.4,48.2,263.2z
	 M53.5,270c20.2,22,63.1,24.1,72.1-9.6C103,251.2,73.4,256.7,53.5,270z M24.2,345.7c6.7,29,30.1,49.6,58.9,55.2
	c29.5,5.7,61.8-2.4,76.8-30.3c14-26.4,13.2-59.4,13.3-88.4v-0.2c-6.3,0.3-12.4,1.3-18.4,2.8c15.9,35.8-7.2,82.7-46.5,89
	c-17.4,2.8-34.3-2.9-44.9-17.4c-11.1-15-13.2-37.3,0.2-51.6l2.1,2c-13.2,14.2-9.9,36.3,1.8,50.3c11.2,13.5,28.6,17.2,45.4,13
	c34.8-8.9,53.9-52.1,39.2-84.4c-8.5,2.3-18.1,5.5-24.9,11.1l-1.5-2l2-1.1l1.8-1l3.6-2.3c5.5-3.3,11.1-6.2,16.9-8.9
	c-5-8.6-12.9-15.6-22-19.9c-8.8,31.7-48.5,34.5-70.9,15.5c-2.1-1.6-3.9-3.6-5.7-5.5C28.2,288.4,17.9,317.9,24.2,345.7z"/>
</svg>
