<?xml version="1.0" encoding="utf-8"?>
<!-- Generator: Adobe Illustrator 22.0.0, SVG Export Plug-In . SVG Version: 6.00 Build 0)  -->
<svg version="1.1" id="Layer_1" xmlns="http://www.w3.org/2000/svg" xmlns:xlink="http://www.w3.org/1999/xlink" x="0px" y="0px"
	 viewBox="0 0 1080 1080" style="enable-background:new 0 0 1080 1080;" xml:space="preserve">
<style type="text/css">
	.st0{fill:#CE432C;}
	.st1{fill:#2A4F7B;}
	.st2{fill:#FFC000;}
</style>
<g>
	<g>
		<g>
			<path class="st0" d="M152.7,433.9c-3.4,0.9-4.6,0-4-3.4c0.6-4,2.6-6.9,6.6-8c0.3-0.3,0.6-0.3,0.9-0.3c2.3-1.1,5.4-0.3,6.6-2.3
				c1.4-2,0.6-5.2,0.9-7.7c0.6-16.9,1.1-33.5,3.4-50.1c0.6-4,1.4-8,2.3-12c0.3-1.4,0.9-2.9,0.3-4.3c-2.3-0.3-4.6,1.1-6.9,1.7
				c-2.6,0.9-3.4,0-3.4-2.3c-0.3-4,2.6-7.7,6.3-9.2c1.1-0.3,2.6-0.6,3.7-0.9c2.9-0.3,4.6-1.4,5.7-4c1.4-3.2,4.6-4,8-4
				c3.2,0.3,6.6,0.9,9.2,2.3c4.6,2.6,9.2,2.6,14,2c7.2-0.9,14.6-0.6,21.8-0.3c2.6,0.3,5.2,0.6,7.5,1.7c5.7,3.2,6.6,8.9,1.7,14
				c-2.9-4.9-7.4-6.3-12.6-6.6c-4-0.3-7.7-0.9-11.5-0.6c-2.6,0-4,1.1-4.6,3.7c-2.3,9.5-4.3,18.9-5.7,28.4c-2,13.8-3.2,27.2-4,41
				c0,1.1,0,2.3,0,3.2c-0.3,2.3,0.9,2.9,2.6,3.2c4,0.9,8,1.7,12,2.6c2,0.3,3.7,1.1,5.2,2.6c2.6,2.6,1.7,6.6-2,7.7
				c-2,0.6-4.3,0.9-6.6,0c-2.6-0.9-5.7-1.1-8.6-1.7c-2.3-0.6-3.4,0.3-3.4,2.6c-0.6,13.8-0.9,27.2,1.1,41c0.6,4.3,1.4,8.6,2.6,12.9
				c1.4,5.2,0.6,6.3-4.9,6.9c-9.7,0.9-21.5-5.4-26.1-14.3c-3.2-5.7-4-11.7-4.6-17.8c-0.9-9.2-2-18.3-2.9-27.5c0-0.6-0.3-1.1-0.3-1.4
				C159.3,432.2,156.1,433.3,152.7,433.9z"/>
			<path class="st0" d="M275.6,427.3c2.3-16,4.9-32.1,9.7-47.6c1.1-4,2.6-7.4,4.9-10.9c6.6-9.2,18.9-10.9,27.8-3.7
				c2.3,1.7,4.3,4,5.7,6.9c3.4,6.9,6,14.3,4.3,22.3c-0.9,4.6-3.2,6.3-8,6.3c-7.7-0.3-12.3-4.6-12.9-12.6c-0.3-3.7-0.6-7.2-1.4-10.9
				c0-0.9,0-1.7-1.1-2.6c-1.4,0.3-1.7,1.7-2.3,2.9c-6,10.6-10.3,22.1-13.8,33.8c-3.2,11.2-6,22.3-8.3,33.8
				c-2.3,13.5-3.2,27.2-2.6,41c0.3,5.2-1.4,7.4-6.9,6.9c-4.9-0.3-9.5-1.7-13.2-5.4c-3.7-3.4-6.6-7.5-9.2-12c-5.7-11.2-8-22.9-10-35
				c-2.6-18.1-4-36.4-2.9-54.7c0.6-8,1.7-8.9,9.2-12c7.2-2.9,14.3-2.6,21.5-0.6c1.4,0.6,3.2,1.1,4.9,2c3.4,1.7,5.2,4.6,4.9,8.9
				c-1.1,9.2-2,18.1-2.6,26.9c-0.9,12.3-1.7,24.6-0.6,37C273.9,441.1,274.7,434.2,275.6,427.3z"/>
			<path class="st0" d="M331.5,404.1c3.7-12.3,11.2-22.3,21.5-30.1c5.7-4,12.3-5.2,19.2-4.9c5.7,0.3,11.2,1.1,16.9,2.6
				c10.9,3.2,16.9,10.9,19.2,21.5c3.2,14.9-0.6,28.7-10,40.4c-7.2,8.3-16.3,12.9-27.8,12c-0.6,0-0.9,0-1.4,0c-4.3-0.3-4.6,0-3.7,4.6
				c1.4,9.2,3.4,18.3,8.6,26.4c4.9,8.3,9.5,9.5,17.5,4.3c6.9-4.3,11.5-10,14-17.5c0.6-1.7,0.9-3.2,1.4-4.6c0.6-1.1,1.1-2.6,2.9-1.7
				c1.4,0.6,2.9,0.9,2.6,2.9c-0.3,8.3-2.3,15.8-8.9,21.8c-2.6,2.3-5.4,4.6-8,7.2c-3.4,3.2-8,4.6-12.9,4.9
				c-10.3,0.6-20.1-1.7-29.2-6.9c-9.7-5.2-15.2-14.3-18.9-24.1c-4.3-10.9-6.3-22.3-6.3-36.7C327.7,420.4,329.2,412.1,331.5,404.1z
				 M363.3,432.2c0.3,5.4,3.7,8,8.9,6c6.6-2.6,11.2-7.2,14.6-13.2c3.4-6,4.9-12.9,5.2-20.1c0.6-7.7-1.4-15.2-6.3-21.5
				c-4.3-5.7-8.3-5.4-12.3,0.3c-2.3,2.9-3.7,6.3-4.6,9.5c-2.9,10.3-6,20.6-5.4,31.5C363.3,427.3,363.3,429.6,363.3,432.2z"/>
			<path class="st0" d="M423.1,404.1c3.7-12.3,11.2-22.3,21.5-30.1c5.7-4,12.3-5.2,19.2-4.9c5.7,0.3,11.2,1.1,16.9,2.6
				c10.9,3.2,16.9,10.9,19.2,21.5c3.2,14.9-0.6,28.7-10,40.4c-7.2,8.3-16.3,12.9-27.8,12c-0.6,0-0.9,0-1.4,0c-4.3-0.3-4.6,0-3.7,4.6
				c1.4,9.2,3.4,18.3,8.6,26.4c4.9,8.3,9.5,9.5,17.5,4.3c6.9-4.3,11.5-10,14-17.5c0.6-1.7,0.9-3.2,1.4-4.6c0.6-1.1,1.1-2.6,2.9-1.7
				c1.4,0.6,2.9,0.9,2.6,2.9c-0.3,8.3-2.3,15.8-8.9,21.8c-2.6,2.3-5.4,4.6-8,7.2c-3.4,3.2-8,4.6-12.9,4.9
				c-10.3,0.6-20.1-1.7-29.2-6.9c-9.7-5.2-15.2-14.3-18.9-24.1c-4.3-10.9-6.3-22.3-6.3-36.7C419.4,420.4,420.9,412.1,423.1,404.1z
				 M455,432.2c0.3,5.4,3.7,8,8.9,6c6.6-2.6,11.2-7.2,14.6-13.2c3.4-6,4.9-12.9,5.2-20.1c0.6-7.7-1.4-15.2-6.3-21.5
				c-4.3-5.7-8.3-5.4-12.3,0.3c-2.3,2.9-3.7,6.3-4.6,9.5c-2.9,10.3-6,20.6-5.4,31.5C455,427.3,455,429.6,455,432.2z"/>
			<path class="st0" d="M586.2,369.7c0.9-7.2,1.7-14.3,4-20.9c2.9-9.5,7.7-13.5,17.8-13.8c6-0.3,12,0.6,17.5,3.2c2.3,0.9,4.3,2,6,4
				c1.4,1.7,2.3,3.4,0.9,5.7c-8.3,12.9-9.7,27.8-11.5,42.4c-2.3,20.1-3.7,40.1-2.6,60.5c0.3,8.9,1.4,18.1,2.3,26.9
				c0.6,4.6,2.9,8.3,4.9,12.3c0.9,2,2.3,1.7,4,1.4c1.1-0.3,2.6,0,2.9,1.4c0.3,1.4-1.1,2.3-2.3,2.6c-1.1,0.3-2.3,0.6-3.2,0.3
				c-9.7-0.6-18.3-4-25.2-11.2c-7.7-7.7-12-16.9-14.3-27.5c-1.1-4.6-2-9.2-3.7-13.8c-1.4,4.3-2.9,8.6-4,13.2
				c-2.9,9.2-6,18.1-11.5,26.1c-4.9,7.2-11.5,10.6-20.3,9.5c-21.5-2.9-33.5-18.1-36.1-38.1c-2.3-20.9,3.2-40.1,14.3-57.6
				c7.2-11.2,18.1-17.5,30.9-18.3c9.7-0.9,19.2,1.1,26.9,9.7C584.7,380.9,585.6,375.5,586.2,369.7z M583,406.1c0-1.4,0.3-2.9-0.6-4
				c-2.3-4.6-5.7-8.3-10-11.5c-1.4-0.9-2.9-0.9-4.3,0.3c-2.9,2.6-5.4,5.4-7.4,8.6c-6.3,10.3-10,21.8-12.6,33.2
				c-2,9.7-3.2,19.2-2.9,28.9c0.3,6.3,1.1,12.6,4,18.6c2.3,4.9,3.2,5.2,7.7,2c7.4-5.4,11.7-12.9,14.6-21.2
				c2.9-7.2,4.9-14.9,7.2-22.1c2.6-8,5.7-16,3.7-23.5C582.7,411.6,583,409,583,406.1z"/>
			<path class="st0" d="M719.7,419.3c-0.3,4,0.3,4.6,4.3,2.9c4-1.4,7.7-3.2,11.5-4.9c2.6-0.9,5.2-2,7.7-3.4c2-0.9,3.7-0.9,5.4,0.3
				c1.4,0.6,2.6,0.9,4,1.1c2.6,0.3,2.6,1.4,2.3,4.3c-0.3,3.4-2,4.9-4.9,6c-8,3.2-16,6-24.6,6.9c-0.6,0-0.9,0.3-1.4,0.3
				c-4.9,0.9-4.9,0.9-5.4,5.4c-0.3,4.6-0.9,9.2-2,13.8c-3.2,10.9-6.3,21.5-13.5,30.7c-7.7,9.7-17.5,13.8-29.8,11.5
				c-13.5-2.3-23.5-9.2-30.1-21.2c-8.9-16-11.5-33.5-9.2-51.6c0.9-8.9,2.6-17.2,6-25.5c0.6-1.4,0.6-2.9,0.3-4.6
				c-1.7-7.2-0.6-14.6,1.4-21.5c5.4-17.8,20.9-26.6,39-22.6c13.2,2.9,22.6,10.9,29.5,22.3c5.7,9.7,8.6,20.3,9.2,31.8
				c0,2.6,0,5.4,0,8C720,412.7,720,415.8,719.7,419.3z M649.8,381.5c5.4-4,10.9-4,16.6-1.4c1.7,0.9,3.7,1.7,2.3,4.3
				c-4,7.7-5.2,16.3-6.3,24.9c-0.6,4-0.3,4.3,3.4,6c8.9,4.3,18.3,6.3,28.1,8c3.4,0.6,3.7,0.6,4-3.2c1.4-9.2,2-18.3,0.3-27.5
				c-1.7-11.7-5.2-22.6-12-32.4c-4.6-6.9-8.9-8.3-17.2-6.6c-12.6,2.6-22.9,13.5-22.9,30.9C647.8,383.2,648.6,382.3,649.8,381.5z
				 M682.4,471.7c6.6-10.6,10.6-22.1,12.6-34.1c0.9-3.7,0.9-3.7-3.2-4.3c-10-1.1-19.5-3.7-28.1-8.9c-0.3-0.3-0.9,0-1.4,0
				c0,0.6,0,1.1,0,2c0.6,13.2,2,26.1,6.3,39c1.4,4.9,3.2,9.7,7.2,13.8C678.7,477.2,680.7,474.9,682.4,471.7z"/>
			<path class="st0" d="M783.9,421.9c2.9-19.5,6-38.7,11.5-57.6c2.6-9.2,5.7-18.3,11.7-26.4c4.6-6,7.7-7.2,14.9-4.9
				c5.7,2,10,6,12.9,11.2c6,11.2,9.5,22.9,10,35.2c0.6,9.2,0.9,18.3-0.6,27.5c-0.3,2-0.3,3.7-0.3,6c1.7-1.1,1.7-2.3,2-3.4
				c3.2-8,6.6-15.5,12.6-21.8c2.6-2.9,5.2-4,8.9-3.7c11.2,0.3,19.5,6.9,23.2,17.8c1.4,5.2,2.6,10.3,2.9,15.5
				c1.7,16.9,2.3,33.8,2.6,50.4c0.3,3.2,0,6.3,0,10c2.9-0.6,3.7-2,4.6-3.4c3.4-4.3,5.7-9.5,8-14.6c6-12.3,10-25.2,12-39
				c0.3-1.1,0.6-2.6,0.9-3.7c0.9-3.4,0.9-3.7,4.6-3.7c4-0.3,4-0.3,4.9,4c0.6,2.3,0.3,4.6,0,6.9c-3.4,18.9-10.9,36.4-19.8,53
				c-2.3,4.3-6,7.7-9.7,11.2c-2.3,2.3-5.4,2.6-8.9,2.6c-13.8-0.6-24.4-8.9-28.7-21.8c-3.4-10.6-3.2-21.2-2.6-31.8
				c0.9-12,1.1-24.1,1.7-36.1c0-1.1,0-2-0.3-4c-2.6,2.6-4,5.2-5.2,7.4c-5.7,9.7-9.7,20.1-12.6,30.9c-0.6,1.7-1.1,3.4-1.4,5.2
				c-0.3,5.2-4,8-7.4,10.9c-0.3,0.6-0.9,0.6-1.1,0.9c-6.3,2.9-17.5-1.1-20.6-7.2c-4-7.2-6.3-14.9-6-23.5c0.6-23.8,1.7-47.6,5.4-71.1
				c0.3-1.7,0.3-3.7,0-5.4c-1.7-0.3-1.4,1.1-2,2c-5.2,11.2-8.6,22.9-12,34.7c-5.7,17.8-9.5,35.8-12.6,54.2
				c-2.9,17.2-5.2,34.7-4,52.1c0,2.3,0.3,3.7-2.6,4.9c-8.6,3.4-18.3,1.1-23.8-6.6c-6.9-9.5-10.9-20.1-13.2-31.5
				c-3.7-21.2-5.7-42.4-5.4-63.9c0-4.9,0.6-10,1.4-14.9c0.6-3.7,2.6-6.3,6.3-7.2c11.5-2.9,21.8-0.6,31.5,5.7c2.9,2,4,5.2,3.7,8.9
				c-1.1,9.7-1.7,19.2-2.6,28.9c-1.4,16.6-2.3,33.2-1.4,50.1c0.3,2.3,0.9,4.9,1.1,7.5C779,454,781.3,437.9,783.9,421.9z"/>
		</g>
	</g>
	<g>
		<g>
			<path class="st1" d="M336.3,609.5l19.4,19.5V664h-25.2v-29.2h-34.2v40.5h39.6l19.9,19.6v46.4l-19.4,19.4h-46l-19.4-19.4v-25.7
				h25.3v19.8h34.2v-34.8h-40.6l-18.9-19.3v-52.3l19.4-19.5H336.3z"/>
			<path class="st1" d="M437.2,609.4l19.4,19.4V741l-9.6,9.6l9.6,10l-18.2,17.5l-17.2-17.7h-31.9L369.9,741V628.8l19.4-19.4H437.2z
				 M431.3,734.4v-99.8h-36.1v100.5h14.6l11.4-11.1L431.3,734.4z"/>
			<path class="st1" d="M537.3,735.3V634.8h-9.6v-25.2h45v25.2h-9.8v106.4l-19.4,19.4H500l-19.4-19.4V634.8h-9.8v-25.2h45v25.2h-9.6
				v100.5H537.3z"/>
			<path class="st1" d="M615.2,721l-3.2,14.4h6.8v25.2h-41.4v-25.2h9.5l29.4-125.9h25.7l27.9,125.9h9v25.2h-41.4v-25.2h7.2
				l-3.2-14.4H615.2z M635.8,695.9l-7.5-33.2l-7.5,33.2H635.8z"/>
			<path class="st1" d="M769.7,609.6L789,629v112.2l-19.4,19.4H693v-25.2h9.4V634.8H693v-25.2H769.7z M763.8,634.9h-36.1v100.4h36.1
				V634.9z"/>
		</g>
	</g>
	<rect x="225.5" y="569.8" class="st0" width="623.1" height="11.8"/>
	<rect x="225.5" y="541.7" class="st0" width="623.1" height="11.8"/>
	<rect x="225.5" y="513.7" class="st0" width="623.1" height="11.8"/>
	<g>
		<g>
			<g>
				<path class="st0" d="M883.8,622.4l-0.7,11.1c0,0.3,0.2,0.7,0.5,0.8l10.3,4.1c0.7,0.3,0.7,1.3-0.1,1.5l-10.7,2.8
					c-0.3,0.1-0.6,0.4-0.6,0.7l-0.7,11.1c0,0.8-1.1,1-1.5,0.4l-5.9-9.4c-0.2-0.3-0.5-0.4-0.9-0.3l-10.7,2.8
					c-0.8,0.2-1.3-0.7-0.8-1.3l7.1-8.5c0.2-0.3,0.2-0.7,0.1-0.9l-5.9-9.4c-0.4-0.7,0.3-1.5,1-1.2l10.3,4.1c0.3,0.1,0.7,0,0.9-0.2
					l7.1-8.5C882.9,621.2,883.9,621.6,883.8,622.4z"/>
				<path class="st0" d="M874.4,655.7c-2.1,2.1-4,4.9-5.8,7.8c-3.2,5.2-5.7,11.3-7.8,17.6c-2.1,6.3-3.9,13-5.4,19.8
					c-1.4,6.7-2.6,13.6-3.4,20.6l-0.9,0c-1.4-6.9-2.5-13.9-3.3-21c-0.8-7.1-1.2-14.3-1.1-21.6c0.1-7.3,0.6-14.9,2.3-22.6
					c1.8-7.7,4.3-15.9,10.6-23.8l2.9,4.6l-6.4,7.8c-1.5,1.9-1.7,4.5-0.4,6.5c1.3,2,3.7,3,6.1,2.4l9.8-2.5L874.4,655.7z"/>
			</g>
			<g>
				<path class="st0" d="M912,672.1l-3.2,7c-0.1,0.2,0,0.5,0.1,0.6l5.7,5.2c0.4,0.4,0.1,1-0.4,1l-7.7-0.9c-0.2,0-0.5,0.1-0.6,0.3
					l-3.2,7c-0.2,0.5-1,0.4-1.1-0.1l-1.5-7.6c0-0.2-0.2-0.4-0.5-0.4l-7.7-0.9c-0.5-0.1-0.7-0.8-0.2-1l6.7-3.8
					c0.2-0.1,0.3-0.4,0.3-0.6l-1.5-7.6c-0.1-0.5,0.5-0.9,0.9-0.5l5.7,5.2c0.2,0.2,0.4,0.2,0.7,0.1l6.7-3.8
					C911.7,671.1,912.2,671.6,912,672.1z"/>
				<path class="st0" d="M897.5,691.4c-1.9,0.9-3.8,2.1-5.7,3.6c-3.3,2.6-6.5,5.9-9.5,9.5c-3,3.6-5.8,7.4-8.4,11.5
					c-2.6,4-5.1,8.2-7.3,12.5l-0.6-0.2c0.8-4.8,1.9-9.6,3.1-14.5c1.3-4.8,2.8-9.6,4.7-14.3c1.9-4.7,4.1-9.5,7.1-14.1
					c3.1-4.6,6.8-9.3,12.8-12.8l0.7,3.7l-6.1,3.4c-1.4,0.8-2.2,2.5-1.9,4.1c0.3,1.6,1.7,2.9,3.3,3.1l7,0.8L897.5,691.4z"/>
			</g>
			<g>
				<path class="st0" d="M826.7,651.9l2.7,7.2c0.1,0.2,0.3,0.4,0.5,0.4l7.7-0.3c0.5,0,0.8,0.7,0.4,1l-6,4.8
					c-0.2,0.2-0.3,0.4-0.2,0.6l2.7,7.2c0.2,0.5-0.4,1-0.8,0.7l-6.4-4.3c-0.2-0.1-0.5-0.1-0.7,0l-6,4.8c-0.4,0.3-1-0.1-0.9-0.6
					l2.1-7.4c0.1-0.2,0-0.5-0.2-0.6l-6.4-4.3c-0.5-0.3-0.3-1,0.3-1l7.7-0.3c0.2,0,0.5-0.2,0.5-0.4l2.1-7.4
					C825.8,651.4,826.5,651.3,826.7,651.9z"/>
				<path class="st0" d="M830.1,675.7c-0.7,2-1.2,4.2-1.5,6.6c-0.5,4.2-0.4,8.8,0,13.4c0.4,4.6,1.2,9.4,2.2,14.1
					c1,4.7,2.2,9.4,3.7,14l-0.6,0.3c-2.9-4-5.5-8.1-8-12.4c-2.5-4.3-4.8-8.7-6.8-13.4c-2-4.7-3.8-9.6-4.9-15c-1-5.4-1.8-11.3,0-18.1
					l3.2,2.1l-1.9,6.8c-0.4,1.6,0.2,3.3,1.6,4.3c1.4,0.9,3.2,0.9,4.5-0.2l5.5-4.4L830.1,675.7z"/>
			</g>
		</g>
	</g>
	<g>
		<g>
			<g>
				<path class="st2" d="M182.8,622.4l0.7,11.1c0,0.3-0.2,0.7-0.5,0.8l-10.3,4.1c-0.7,0.3-0.7,1.3,0.1,1.5l10.7,2.8
					c0.3,0.1,0.6,0.4,0.6,0.7l0.7,11.1c0,0.8,1.1,1,1.5,0.4l5.9-9.4c0.2-0.3,0.5-0.4,0.9-0.3l10.7,2.8c0.8,0.2,1.3-0.7,0.8-1.3
					l-7.1-8.5c-0.2-0.3-0.2-0.7-0.1-0.9l5.9-9.4c0.4-0.7-0.3-1.5-1-1.2l-10.3,4.1c-0.3,0.1-0.7,0-0.9-0.2l-7.1-8.5
					C183.7,621.2,182.8,621.6,182.8,622.4z"/>
				<path class="st2" d="M192.3,655.7c2.1,2.1,4,4.9,5.8,7.8c3.2,5.2,5.7,11.3,7.8,17.6c2.1,6.3,3.9,13,5.4,19.8
					c1.4,6.7,2.6,13.6,3.4,20.6l0.9,0c1.4-6.9,2.5-13.9,3.3-21c0.8-7.1,1.2-14.3,1.1-21.6c-0.1-7.3-0.6-14.9-2.3-22.6
					c-1.8-7.7-4.3-15.9-10.6-23.8l-2.9,4.6l6.4,7.8c1.5,1.9,1.7,4.5,0.4,6.5c-1.3,2-3.7,3-6.1,2.4l-9.8-2.5L192.3,655.7z"/>
			</g>
			<g>
				<path class="st2" d="M154.7,672.1l3.2,7c0.1,0.2,0,0.5-0.1,0.6l-5.7,5.2c-0.4,0.4-0.1,1,0.4,1l7.7-0.9c0.2,0,0.5,0.1,0.6,0.3
					l3.2,7c0.2,0.5,1,0.4,1.1-0.1l1.5-7.6c0-0.2,0.2-0.4,0.5-0.4l7.7-0.9c0.5-0.1,0.7-0.8,0.2-1l-6.7-3.8c-0.2-0.1-0.3-0.4-0.3-0.6
					l1.5-7.6c0.1-0.5-0.5-0.9-0.9-0.5l-5.7,5.2c-0.2,0.2-0.4,0.2-0.7,0.1l-6.7-3.8C155,671.1,154.4,671.6,154.7,672.1z"/>
				<path class="st2" d="M169.1,691.4c1.9,0.9,3.8,2.1,5.7,3.6c3.3,2.6,6.5,5.9,9.5,9.5c3,3.6,5.8,7.4,8.4,11.5
					c2.6,4,5.1,8.2,7.3,12.5l0.6-0.2c-0.8-4.8-1.9-9.6-3.1-14.5c-1.3-4.8-2.8-9.6-4.7-14.3c-1.9-4.7-4.1-9.5-7.1-14.1
					c-3.1-4.6-6.8-9.3-12.8-12.8l-0.7,3.7l6.1,3.4c1.4,0.8,2.2,2.5,1.9,4.1c-0.3,1.6-1.7,2.9-3.3,3.1l-7,0.8L169.1,691.4z"/>
			</g>
			<g>
				<path class="st2" d="M239.9,651.9l-2.7,7.2c-0.1,0.2-0.3,0.4-0.5,0.4l-7.7-0.3c-0.5,0-0.8,0.7-0.4,1l6,4.8
					c0.2,0.2,0.3,0.4,0.2,0.6l-2.7,7.2c-0.2,0.5,0.4,1,0.8,0.7l6.4-4.3c0.2-0.1,0.5-0.1,0.7,0l6,4.8c0.4,0.3,1-0.1,0.9-0.6l-2.1-7.4
					c-0.1-0.2,0-0.5,0.2-0.6l6.4-4.3c0.5-0.3,0.3-1-0.3-1l-7.7-0.3c-0.2,0-0.5-0.2-0.5-0.4l-2.1-7.4
					C240.8,651.4,240.1,651.3,239.9,651.9z"/>
				<path class="st2" d="M236.5,675.7c0.7,2,1.2,4.2,1.5,6.6c0.5,4.2,0.4,8.8,0,13.4c-0.4,4.6-1.2,9.4-2.2,14.1
					c-1,4.7-2.2,9.4-3.7,14l0.6,0.3c2.9-4,5.5-8.1,8-12.4c2.5-4.3,4.8-8.7,6.8-13.4c2-4.7,3.8-9.6,4.9-15c1-5.4,1.8-11.3,0-18.1
					l-3.2,2.1l1.9,6.8c0.4,1.6-0.2,3.3-1.6,4.3c-1.4,0.9-3.2,0.9-4.5-0.2l-5.5-4.4L236.5,675.7z"/>
			</g>
		</g>
	</g>
	<path class="st2" d="M355.8,303.9l4,12.5c0.2,0.5,0.6,0.8,1.2,0.8h13.1c1.2,0,1.7,1.5,0.7,2.2l-10.6,7.7c-0.4,0.3-0.6,0.9-0.4,1.4
		l4,12.5c0.4,1.1-0.9,2.1-1.9,1.4l-10.6-7.7c-0.4-0.3-1-0.3-1.4,0l-10.6,7.7c-1,0.7-2.2-0.2-1.9-1.4l4-12.5c0.2-0.5,0-1.1-0.4-1.4
		l-10.6-7.7c-1-0.7-0.5-2.2,0.7-2.2h13.1c0.5,0,1-0.3,1.2-0.8l4-12.5C353.9,302.8,355.5,302.8,355.8,303.9z"/>
	<path class="st2" d="M753.6,302.7l4,12.5c0.2,0.5,0.6,0.8,1.2,0.8h13.1c1.2,0,1.7,1.5,0.7,2.2l-10.6,7.7c-0.4,0.3-0.6,0.9-0.4,1.4
		l4,12.5c0.4,1.1-0.9,2.1-1.9,1.4l-10.6-7.7c-0.4-0.3-1-0.3-1.4,0l-10.6,7.7c-1,0.7-2.2-0.2-1.9-1.4l4-12.5c0.2-0.5,0-1.1-0.4-1.4
		l-10.6-7.7c-1-0.7-0.5-2.2,0.7-2.2h13.1c0.5,0,1-0.3,1.2-0.8l4-12.5C751.6,301.6,753.2,301.6,753.6,302.7z"/>
	<path class="st2" d="M421.7,338l2,6.2c0.1,0.3,0.3,0.4,0.6,0.4h6.6c0.6,0,0.8,0.8,0.4,1.1l-5.3,3.9c-0.2,0.2-0.3,0.4-0.2,0.7l2,6.2
		c0.2,0.6-0.5,1-0.9,0.7l-5.3-3.9c-0.2-0.2-0.5-0.2-0.7,0l-5.3,3.9c-0.5,0.3-1.1-0.1-0.9-0.7l2-6.2c0.1-0.3,0-0.5-0.2-0.7l-5.3-3.9
		c-0.5-0.3-0.2-1.1,0.4-1.1h6.6c0.3,0,0.5-0.2,0.6-0.4l2-6.2C420.7,337.4,421.5,337.4,421.7,338z"/>
	<path class="st2" d="M537.6,343l2,6.2c0.1,0.3,0.3,0.4,0.6,0.4h6.6c0.6,0,0.8,0.8,0.4,1.1l-5.3,3.9c-0.2,0.2-0.3,0.4-0.2,0.7l2,6.2
		c0.2,0.6-0.5,1-0.9,0.7l-5.3-3.9c-0.2-0.2-0.5-0.2-0.7,0l-5.3,3.9c-0.5,0.3-1.1-0.1-0.9-0.7l2-6.2c0.1-0.3,0-0.5-0.2-0.7l-5.3-3.9
		c-0.5-0.3-0.2-1.1,0.4-1.1h6.6c0.3,0,0.5-0.2,0.6-0.4l2-6.2C536.7,342.4,537.5,342.4,537.6,343z"/>
	<path class="st2" d="M480.2,318.1l1,3.1c0,0.1,0.2,0.2,0.3,0.2h3.3c0.3,0,0.4,0.4,0.2,0.6l-2.7,1.9c-0.1,0.1-0.2,0.2-0.1,0.3l1,3.1
		c0.1,0.3-0.2,0.5-0.5,0.3l-2.7-1.9c-0.1-0.1-0.3-0.1-0.4,0l-2.7,1.9c-0.2,0.2-0.6-0.1-0.5-0.3l1-3.1c0-0.1,0-0.3-0.1-0.3l-2.7-1.9
		c-0.2-0.2-0.1-0.6,0.2-0.6h3.3c0.1,0,0.2-0.1,0.3-0.2l1-3.1C479.7,317.8,480.1,317.8,480.2,318.1z"/>
	<path class="st2" d="M661.2,315l1,3.1c0,0.1,0.2,0.2,0.3,0.2h3.3c0.3,0,0.4,0.4,0.2,0.6l-2.7,1.9c-0.1,0.1-0.2,0.2-0.1,0.3l1,3.1
		c0.1,0.3-0.2,0.5-0.5,0.3l-2.7-1.9c-0.1-0.1-0.3-0.1-0.4,0l-2.7,1.9c-0.2,0.2-0.6-0.1-0.5-0.3l1-3.1c0-0.1,0-0.3-0.1-0.3l-2.7-1.9
		c-0.2-0.2-0.1-0.6,0.2-0.6h3.3c0.1,0,0.2-0.1,0.3-0.2l1-3.1C660.7,314.7,661.1,314.7,661.2,315z"/>
</g>
</svg>
