<?xml version="1.0" encoding="utf-8"?>
<!-- Generator: Adobe Illustrator 22.0.0, SVG Export Plug-In . SVG Version: 6.00 Build 0)  -->
<svg version="1.1" id="Layer_1" xmlns="http://www.w3.org/2000/svg" xmlns:xlink="http://www.w3.org/1999/xlink" x="0px" y="0px"
	 viewBox="0 0 1080 1080" style="enable-background:new 0 0 1080 1080;" xml:space="preserve">
<style type="text/css">
	.st0{fill:#2A4F7B;}
	.st1{fill:#CE432C;}
</style>
<g>
	<g>
		<g>
			<path class="st0" d="M174.1,594.9c-2,0-4,0.2-6,0.7c-2.1,0.4-4.4,0.7-7,0.7c-1.6,0-3-0.1-4.1-0.4c-1.1-0.3-2-0.8-2.7-1.5
				c-0.7-0.7-1.2-1.7-1.5-3c-0.3-1.3-0.5-2.9-0.5-4.9c0-1.2,0.2-2.3,0.7-3.3s0.7-2.1,0.7-3.3c0-1.7-0.1-3.5-0.4-5.2
				c-0.3-1.8-0.6-3.5-0.9-5.2v-44c-0.5-1-0.8-2.1-1-3.3c-0.2-1.2-0.3-2.4-0.4-3.7c0-1.3,0-2.5,0-3.8c0-1.3,0-2.4,0-3.5
				c0-3.5,0.2-6.8,0.7-10.2c0.4-3.3,0.7-6.2,0.7-8.6c0-1.6-0.1-3.1-0.4-4.4c-0.3-1.3-0.6-2.6-0.9-3.7c-0.3-1.1-0.6-2.1-0.9-3
				c-0.3-0.9-0.4-1.8-0.4-2.7c0-1.6,0.5-3.3,1.4-4.9c1-1.7,2.1-3.2,3.5-4.6c1.4-1.4,2.9-2.5,4.6-3.4c1.6-0.9,3.1-1.3,4.5-1.3
				c0.3,0,0.6,0,0.8,0c0.2,0,0.4,0,0.7,0c0.7,0,1.4,0.1,2.1,0.2c0.7,0.1,1.4,0.5,2,1.1c0.3,0,0.9,0,1.7,0c0.8,0,1.7,0.1,2.6,0.1
				c0.9,0,1.8,0,2.6,0c0.8,0,1.4,0,1.7,0c1.4,0,2.7-0.1,4-0.2c1.3-0.1,2.7-0.3,4.1-0.5c1.4-0.2,2.9-0.3,4.5-0.5
				c1.6-0.1,3.3-0.2,5.2-0.2c2,0,3.8,0.1,5.4,0.2c1.6,0.1,3.3,0.3,5.1,0.5c1.8,0.2,3.6,0.3,5.6,0.5c2,0.1,4.3,0.2,6.9,0.2
				c0.8,0,1.7,0,2.6,0c0.9,0,1.9-0.1,2.9-0.1c1.2,0.7,2.2,1,3.1,1.2c0.9,0.1,1.9,0.2,3.1,0.2c0.9,0,1.7-0.1,2.6-0.4
				c0.8-0.3,1.6-0.6,2.4-0.9c0.8-0.3,1.5-0.6,2.3-0.9c0.7-0.3,1.5-0.4,2.3-0.4c1.3,0,2.4,0.4,3.4,1.2c1,0.8,2,1.8,2.8,3
				c0.8,1.2,1.6,2.6,2.2,4.2c0.7,1.6,1.2,3.1,1.6,4.6c0.4,1.5,0.7,2.9,0.9,4.3c0.2,1.3,0.3,2.4,0.3,3.3c0,1.4-0.3,2.8-0.8,4.3
				c-0.5,1.5-1.3,2.9-2.1,4.1c-0.9,1.3-1.9,2.3-3.1,3.1c-1.2,0.8-2.5,1.2-3.8,1.2c-1,0-2-0.2-3-0.6c-1.1-0.4-2.1-0.8-3.2-1.3
				c-1-0.5-2-1-2.9-1.3c-0.9-0.4-1.7-0.6-2.4-0.6h-0.4c-0.1,0.1-0.2,0.1-0.3,0.1c-0.2,0.1-0.4,0.2-0.8,0.4c-0.3,0.2-0.7,0.5-1.1,0.8
				c-0.4,0.3-0.8,0.5-1.1,0.8c-0.4,0.2-0.6,0.4-0.7,0.5h-28.1c-0.5,0-1,0.1-1.5,0.4c-0.4,0.3-0.9,0.6-1.3,1
				c-0.4,0.4-0.8,0.8-1.1,1.2c-0.4,0.4-0.7,0.7-1.1,1H192h-0.6c-0.1,0-0.2-0.1-0.4-0.2c-0.2-0.1-0.5-0.3-0.8-0.4
				c-0.3-0.1-0.6-0.3-0.8-0.4c-0.2-0.1-0.4-0.2-0.4-0.2c-0.2,0-0.4,0.2-0.7,0.5c-0.3,0.3-0.4,0.6-0.4,0.8c1.4,1.1,2.6,2.5,3.7,4.2
				c1.1,1.7,2.2,3.3,3.4,4.8s2.4,2.9,3.8,4c1.4,1.1,3.1,1.7,5.1,1.7c1,0,2-0.1,3-0.4c1-0.3,1.9-0.6,2.9-0.9c1-0.3,2-0.6,3-0.9
				c1-0.3,2-0.4,2.9-0.4h1c0.2,0.1,0.4,0.1,0.6,0.1c0.1,0.1,0.4,0.2,0.9,0.4c0.5,0.2,1,0.5,1.6,0.8c0.6,0.3,1.1,0.6,1.6,0.8
				c0.5,0.2,0.8,0.4,0.9,0.4c0.1,0,0.4-0.1,0.9-0.4c0.5-0.2,1-0.5,1.6-0.8c0.6-0.3,1.1-0.6,1.6-0.8c0.5-0.3,0.8-0.4,0.9-0.4
				c0.7,0,1.2,0,1.6,0c0.4,0,0.9,0,1.3,0c0.4,0,0.8,0,1,0c1.9,0,3.7,0.1,5.5,0.4c1.8,0.3,3.3,0.9,4.6,1.7c1.3,0.8,2.4,2,3.1,3.4
				c0.8,1.5,1.2,3.4,1.2,5.7c0,0.7,0,1.7,0.1,3c0.1,1.3,0.1,2.7,0,4.3c-0.1,1.5-0.2,3.1-0.4,4.7c-0.2,1.6-0.5,3-0.9,4.3
				c-0.4,1.3-1.1,2.4-1.9,3.2c-0.8,0.8-1.8,1.2-3.1,1.2c-1,0-1.8-0.1-2.4-0.3c-0.7-0.2-1.5-0.5-2.5-1h-21.9
				c-0.1-0.1-0.4-0.3-0.7-0.5c-0.4-0.2-0.7-0.5-1.1-0.8c-0.4-0.3-0.8-0.5-1.1-0.8c-0.4-0.2-0.6-0.4-0.7-0.4c-0.1,0-0.1,0-0.3,0
				c-0.1,0-0.2,0-0.4,0c-0.3,0-0.8,0.2-1.6,0.5c-0.7,0.3-1.6,0.7-2.4,1.2c-0.9,0.4-1.7,0.9-2.4,1.3c-0.7,0.4-1.3,0.7-1.6,0.8
				c-0.4,0.1-0.9,0.3-1.5,0.7c-0.6,0.3-0.9,0.5-0.9,0.6v25.7c0.7,1.6,1,2.9,1.2,4c0.1,1,0.2,1.8,0.2,2.2c0,6-1.1,10.8-3.2,14.3
				c-2.1,3.5-5.6,5.3-10.4,5.3c-1.1,0-2.1-0.1-3-0.2c-0.9-0.1-1.8-0.3-2.7-0.5c-0.9-0.2-1.8-0.3-2.7-0.5
				C176,595,175.1,594.9,174.1,594.9z M162.1,475.3V474h-1.3L162.1,475.3z M165.7,503.4c-0.3,0-0.5,0.1-0.7,0.4
				c-0.1,0.2-0.2,0.5-0.2,0.8c0,0.3,0.1,0.6,0.2,0.8c0.1,0.2,0.4,0.4,0.7,0.4c0.3,0,0.5-0.1,0.7-0.4c0.2-0.2,0.3-0.5,0.3-0.8
				c0-0.3-0.1-0.6-0.3-0.8C166.3,503.5,166,503.4,165.7,503.4z M173.1,533c1.1,0,1.9-0.5,2.4-1.5h-2.4V533z M182.2,486.1
				c-0.1,0-0.2,0-0.3,0c-0.1,0-0.3,0-0.3,0l3.7,3.7c0.1-0.1,0.1-0.1,0.1-0.3c0-0.1,0-0.2,0-0.3c0-0.3-0.1-0.6-0.4-1
				c-0.2-0.4-0.5-0.7-0.9-1c-0.3-0.3-0.7-0.6-1-0.9C182.7,486.2,182.4,486.1,182.2,486.1z M186.5,489.8c-0.3,0-0.5,0.1-0.7,0.4
				c-0.1,0.3-0.2,0.6-0.2,0.8c0,0.3,0.1,0.6,0.2,0.9c0.1,0.3,0.4,0.4,0.7,0.4c0.3,0,0.5-0.1,0.7-0.4c0.2-0.3,0.3-0.6,0.3-0.9
				c0-0.3-0.1-0.6-0.3-0.8C187,490,186.8,489.8,186.5,489.8z M199.8,536.9c0,0.1,0,0.2,0,0.3c0,0.1,0,0.3,0,0.3l4.9-1.3l0.1-0.2
				v-0.3c0-0.5-0.2-1-0.6-1.4c-0.4-0.4-0.9-0.6-1.4-0.6c-0.3,0-0.6,0.1-1,0.4c-0.4,0.2-0.7,0.5-1,0.9c-0.3,0.3-0.6,0.7-0.8,1
				C199.9,536.4,199.8,536.7,199.8,536.9z M242.7,474c1-0.5,1.5-1.4,1.5-2.8c-1.3,0-2.2,0.5-2.8,1.5L242.7,474z"/>
			<path class="st0" d="M253.4,535.1c0-0.1-0.1-0.5-0.2-1.3s-0.2-1.5-0.4-2.5c-0.1-0.9-0.2-1.8-0.4-2.7c-0.1-0.9-0.2-1.6-0.3-2.1
				V526c0-3.4,0-6.2,0.1-8.5c0.1-2.3,0.3-4.3,0.7-6.1c0.4-1.8,1-3.6,1.8-5.4c0.8-1.8,2-3.9,3.4-6.3c0-0.1,0-0.1,0-0.3
				c0-0.1,0-0.2,0-0.4c0-0.8-0.2-1.6-0.7-2.1c-0.4-0.6-0.7-1.3-0.7-2.1c0-1,0.2-1.8,0.6-2.4c0.4-0.7,0.9-1.3,1.5-2.1
				c0.6-0.7,1.4-1.6,2.2-2.6c0.9-1,1.8-2.4,2.7-4c1.7-3,3.7-5.5,5.9-7.6c2.2-2.1,4.5-3.8,7-5.1c2.4-1.4,5-2.4,7.6-3.2
				c2.6-0.7,5.2-1.3,7.6-1.7c2.4-0.4,4.8-0.6,7-0.7c2.2-0.1,4.2-0.1,5.9-0.1c4.1,0,8.7,0.1,13.6,0.3c5,0.2,9.9,0.7,15,1.4
				c5,0.7,9.9,1.9,14.7,3.4c4.7,1.5,9,3.6,12.6,6.3c3.7,2.7,6.6,6,8.9,9.9c2.2,4,3.4,8.8,3.4,14.5c0,1.5-0.1,2.8-0.2,3.8
				c-0.1,1-0.3,1.9-0.4,2.7c-0.1,0.7-0.3,1.4-0.4,2.1c-0.1,0.7-0.2,1.4-0.2,2.1c0,1.3,0.2,2.7,0.6,4.3c0.4,1.5,0.8,3.1,1.3,4.7
				c0.5,1.6,1,3.3,1.3,4.9c0.4,1.7,0.6,3.4,0.6,5.1c0,0.4,0,1,0,1.8s0,1.8,0,2.7c0,1,0,1.9,0,2.7s0,1.5,0,1.8
				c-0.1,0.1-0.2,0.4-0.3,0.7c-0.1,0.4-0.3,0.7-0.4,1.1c-0.2,0.4-0.3,0.7-0.4,1.1c-0.1,0.3-0.1,0.6-0.1,0.8
				c-0.3,4.9-0.7,9.6-1.3,14.1c-0.5,4.5-1.4,8.6-2.6,12.4c-1.2,3.8-2.8,7.3-4.7,10.3c-2,3.1-4.5,5.7-7.6,7.9
				c-3.1,2.2-6.8,3.9-11.2,5c-4.4,1.2-9.6,1.7-15.7,1.7c-0.5,0-1.1,0-2,0c-0.8,0-1.3,0-1.3,0c-0.1,0-0.4-0.1-0.7-0.4
				c-0.4-0.3-0.7-0.6-1.1-0.9c-0.4-0.3-0.8-0.6-1.1-0.9c-0.4-0.2-0.6-0.4-0.7-0.4c-0.1,0-0.3,0.2-0.7,0.6c-0.3,0.4-0.7,0.8-1.1,1.3
				c-0.4,0.4-0.8,0.8-1.2,1.2c-0.4,0.4-0.6,0.6-0.7,0.6c0,0.1-0.3,0.1-1,0.1c-0.7,0-1.2,0-1.5,0s-1,0-1.9,0c-0.9,0-1.5,0-1.7-0.1
				c-0.8,0-2.3-0.1-4.4-0.2c-2.1-0.1-4.3-0.2-6.6-0.4c-2.3-0.1-4.5-0.2-6.6-0.4c-2.1-0.1-3.6-0.2-4.4-0.3c-1-1.4-2-2.4-3.2-2.9
				c-1.2-0.5-2.5-0.9-3.8-1c-1.4-0.2-2.9-0.4-4.6-0.5c-1.7-0.2-3.5-0.7-5.5-1.4c-3.3-1.4-6.4-3.4-9.1-6.2c-2.7-2.7-5-5.9-7-9.4
				c-1.9-3.5-3.4-7.2-4.5-11.2c-1-3.9-1.6-7.7-1.6-11.4c0-1.4,0.1-2.7,0.2-3.9c0.1-1.2,0.3-2.2,0.4-3.2c0.1-1,0.3-1.9,0.4-2.9
				c0.1-0.9,0.2-1.9,0.2-2.8v-0.6c-0.1-0.1-0.3-0.5-0.6-1.2S253.5,535.2,253.4,535.1z M265.7,491.1v0.3c-0.1,0.1-0.1,0.2-0.1,0.4
				c0,0.1,0,0.2,0,0.4c0,0.1,0,0.2,0,0.3c0.1,0.1,0.3,0.3,0.6,0.6c0.3,0.3,0.6,0.5,0.7,0.5c0,0.1,0.1,0.1,0.2,0.1c0.1,0,0.3,0,0.3,0
				c0.1,0,0.3,0,0.4,0c0.1,0,0.2,0,0.2-0.1c0.2-0.1,0.4-0.2,0.8-0.4c0.4-0.2,0.7-0.4,1.1-0.7c0.4-0.3,0.7-0.5,1.1-0.8
				c0.3-0.2,0.6-0.4,0.7-0.5c-0.1-0.1-0.4-0.1-0.7-0.3c-0.4-0.1-0.7-0.2-1.1-0.4c-0.4-0.1-0.7-0.2-1.1-0.4c-0.3-0.1-0.6-0.2-0.8-0.3
				h-0.6h-0.5c-0.1,0.1-0.3,0.3-0.7,0.6C265.9,490.8,265.7,491,265.7,491.1z M268.1,565.6c-0.3,0-0.5,0.1-0.7,0.4
				c-0.1,0.2-0.2,0.5-0.2,0.8c0,0.3,0.1,0.6,0.2,0.8c0.1,0.2,0.4,0.4,0.7,0.4c0.3,0,0.5-0.1,0.7-0.4c0.2-0.2,0.3-0.5,0.3-0.8
				c0-0.3-0.1-0.6-0.3-0.8C268.6,565.8,268.4,565.6,268.1,565.6z M269.4,568.1c-0.2-0.1-0.3,0-0.4,0.3c-0.1,0.3-0.1,0.6-0.1,1
				c0,0.4,0,0.7,0.1,0.9c0.1,0.3,0.2,0.4,0.4,0.3c0.4-0.2,0.5-0.7,0.5-1.3C269.9,568.6,269.7,568.2,269.4,568.1z M276.7,582.7
				c0.7,0.6,1.2,1,1.7,1.1c0.5,0.1,1.1,0.2,1.9,0.2h1.2c-0.1-0.2-0.5-0.7-1.1-1.3c-0.6-0.6-1.1-1-1.3-1.2h-0.5h-0.7
				c-0.1,0.1-0.3,0.3-0.6,0.6C276.9,582.4,276.8,582.6,276.7,582.7z M286.5,494h1.3c0.6,0,1.2,0,1.8-0.1c0.6-0.1,1.1-0.2,1.7-0.4
				c0.5-0.2,0.9-0.5,1.3-0.9c0.3-0.4,0.5-0.9,0.5-1.7c-0.1,0-0.4,0-0.8,0c-0.4,0-0.6,0-0.8,0c-0.4,0.1-0.8,0.1-1.4,0.3
				s-1.1,0.3-1.7,0.4c-0.5,0.1-1.2,0.3-1.9,0.6V494z M292.5,532.1v0.5c0.1,0.2,0.3,0.7,0.6,1.3c0.3,0.6,0.5,1,0.6,1.2v19.5
				c0,1,0.4,1.9,1.3,2.7c0.9,0.9,2,1.7,3.3,2.4c1.3,0.7,2.9,1.4,4.6,2c1.7,0.6,3.4,1.1,5.1,1.5c1.7,0.4,3.3,0.7,4.8,0.9
				c1.5,0.2,2.8,0.3,3.8,0.3c2.3,0,4.6-0.6,6.8-1.7c2.2-1.1,4.2-2.6,6-4.5c1.8-1.9,3.2-4.1,4.3-6.5c1.1-2.5,1.6-5,1.6-7.7
				c0-1.7-0.2-3.5-0.6-5.4c-0.4-1.9-0.9-3.8-1.3-5.7c-0.5-1.9-0.9-3.9-1.3-5.8c-0.4-1.9-0.6-3.7-0.6-5.5c0-0.5,0-1.1,0-1.9
				c0-0.8,0-1.6,0-2.4c0-0.8,0-1.5,0-2.1c0-0.6,0-0.9,0-1l2.5-3.6c0.2-0.3-0.1-0.9-0.9-1.7s-1.8-1.8-3.1-2.9
				c-1.3-1.1-2.7-2.3-4.3-3.4c-1.6-1.2-3.1-2.3-4.6-3.3c-1.5-1-2.7-1.8-3.8-2.5c-1.1-0.7-1.8-1-2.2-1c-1.8,0-3.7,0.3-5.6,1
				c-2,0.7-3.9,1.6-5.7,2.6c-1.9,1.1-3.5,2.3-5.1,3.6c-1.5,1.3-2.8,2.6-3.8,3.8c0,0.7-0.1,2-0.2,3.8c-0.1,1.9-0.2,3.8-0.4,5.9
				c-0.1,2.1-0.3,4-0.4,5.9c-0.1,1.9-0.3,3.2-0.3,3.9c0,0.1-0.1,0.4-0.2,0.9c-0.1,0.5-0.3,1-0.4,1.6c-0.1,0.6-0.3,1.1-0.4,1.6
				c-0.1,0.5-0.2,0.8-0.2,0.9V532.1z M308.5,476.4h1.2l-1.2-1.2V476.4z M329.2,582.7c-0.3,0-0.5,0.1-0.7,0.4
				c-0.1,0.2-0.2,0.5-0.2,0.8c0,0.3,0.1,0.6,0.2,0.8c0.1,0.2,0.4,0.4,0.7,0.4c0.3,0,0.5-0.1,0.7-0.4c0.2-0.2,0.3-0.5,0.3-0.8
				c0-0.3-0.1-0.6-0.3-0.8C329.8,582.9,329.5,582.7,329.2,582.7z M347.8,567.2c0-2-1-3-3-3c0,0.9,0.3,1.6,0.9,2.2
				C346.2,566.9,347,567.2,347.8,567.2z M348.7,566.9c-0.3,0-0.5,0.1-0.7,0.4c-0.1,0.2-0.2,0.5-0.2,0.8c0,0.3,0.1,0.6,0.2,0.9
				c0.1,0.2,0.4,0.4,0.7,0.4c0.3,0,0.5-0.1,0.7-0.4c0.2-0.2,0.3-0.5,0.3-0.9c0-0.3-0.1-0.6-0.3-0.8C349.3,567,349,566.9,348.7,566.9
				z M353.9,580.3c0-1.1-0.5-2-1.5-2.5v2.5H353.9z M363.4,483.8c0.1-0.2,0-0.3-0.1-0.4c-0.1-0.1-0.3-0.1-0.5-0.1
				c-0.2,0-0.3,0-0.5,0.1c-0.1,0.1-0.2,0.2,0,0.4c0.1,0.4,0.3,0.5,0.5,0.5C363.1,484.3,363.4,484.1,363.4,483.8z M363.4,507v2.4
				l1.3-1.3L363.4,507z"/>
			<path class="st0" d="M387.4,542.3c0-1.6,0.2-3.1,0.6-4.6c0.4-1.5,0.8-3,1.3-4.5c0.5-1.5,0.9-3,1.3-4.4c0.4-1.4,0.6-2.8,0.6-4.2
				c0-0.1,0-0.2,0-0.3s0-0.2-0.1-0.2c0-0.1-0.2-0.3-0.5-0.6c-0.4-0.3-0.6-0.5-0.6-0.6c-0.2-0.3-0.4-0.7-0.8-1.3
				c-0.3-0.6-0.5-1-0.5-1.1v-25.7c0.3-0.1,0.8-0.4,1.4-1c0.6-0.6,1-1.1,1-1.4c0.1-0.2,0-0.4,0-0.8s-0.2-0.7-0.3-1.1
				c-0.1-0.4-0.3-0.7-0.4-1.1c-0.1-0.3-0.3-0.6-0.4-0.7v-18.3l4.8-4.9c1.9-0.2,3.5-0.3,4.8-0.5c1.3-0.1,2.6-0.3,4-0.4
				c1.4-0.1,2.6-0.2,3.4-0.3c0.1,0,0.2,0,0.3,0c0.1,0,0.3,0,0.4,0c0.7,0,1.2,0.1,1.7,0.4c0.5,0.3,0.9,0.6,1.3,1
				c0.4,0.4,0.8,0.8,1.1,1.2c0.4,0.4,0.8,0.8,1.3,1.2c1,0,2-0.3,3.2-0.9c1.2-0.6,2.1-1.1,2.9-1.7h19.6c0.1,0.1,0.4,0.1,0.7,0.3
				c0.4,0.1,0.7,0.3,1.1,0.4c0.4,0.1,0.7,0.3,1.1,0.4c0.3,0.1,0.6,0.2,0.8,0.2c0.8,0,1.4-0.1,1.9-0.3c0.5-0.2,1.1-0.5,1.7-0.9
				c0.4,0,1,0,1.9,0c0.9,0,1.9,0,3,0c1,0,2,0,3,0c0.9,0,1.6,0,1.9,0c2.9,0,5.9,0,9.1,0.1c3.2,0.1,6.4,0.3,9.6,0.7
				c3.2,0.4,6.3,1.1,9.3,2c3,0.9,5.7,2.2,8.1,3.8c2.4,1.6,4.4,3.7,6,6.2c1.6,2.5,2.7,5.6,3.2,9.3c0,0.5,0,1.4,0,2.7
				c0,1.3,0.1,2.6,0.1,4c0,1.4,0,2.8,0,4.1c0,1.3,0,2.2,0,2.6c0,0.9,0,2.3-0.1,4.3c-0.1,2-0.2,4.2-0.4,6.7c-0.2,2.5-0.6,5-1.2,7.7
				c-0.5,2.7-1.3,5.1-2.2,7.3c-1,2.2-2.1,4-3.6,5.4c-1.4,1.4-3.2,2.1-5.3,2.1c-1.1,0-2.1-0.2-3.2-0.5l-7.3,7.3
				c1.1,1.4,2,2.7,2.6,3.9c0.6,1.2,1.1,2.4,1.5,3.6c0.4,1.2,0.7,2.3,1,3.4c0.3,1.1,0.7,2.1,1.3,3.1c0.8,1.7,2,3.2,3.4,4.6
				c1.4,1.4,2.9,2.8,4.6,4.1c1.6,1.3,3.3,2.7,4.9,4.1c1.6,1.4,3.1,2.9,4.5,4.6c1.3,1.7,2.4,3.6,3.3,5.7c0.8,2.1,1.3,4.5,1.3,7.2
				c0,0.4,0,1-0.1,1.8c-0.1,0.8-0.3,1.7-0.6,2.6c-0.3,0.9-0.8,1.9-1.5,2.8c-0.7,0.9-1.6,1.7-2.8,2.3c-2.2,0.2-4.1,0.4-5.8,0.6
				c-1.6,0.2-3.1,0.3-4.3,0.4c-1.3,0.1-2.4,0.1-3.4,0.2c-1,0-1.9,0-2.7,0c-3.5,0-6.4-0.2-8.9-0.7c-2.5-0.5-4.6-1.2-6.4-2
				c-1.7-0.9-3.2-1.9-4.4-3c-1.2-1.2-2.2-2.4-3.1-3.8c-0.9-1.4-1.7-2.8-2.4-4.3c-0.7-1.5-1.6-3-2.5-4.6c-1.4-2.4-2.7-4.4-4-6.1
				c-1.3-1.7-2.5-3.3-3.4-4.8c-1-1.5-1.7-3.1-2.2-4.8c-0.5-1.7-0.6-3.7-0.3-6.1l-13.4-6.2h-1.2c0,2.5,0.1,5,0.2,7.4
				c0.1,2.4,0.3,4.7,0.4,7c0.2,2.2,0.3,4.3,0.4,6.3c0.1,2,0.2,3.7,0.2,5.3c0,2.5-0.2,4.9-0.6,7.2c-0.4,2.3-1.1,4.4-2,6.2
				c-0.9,1.8-2,3.2-3.4,4.3c-1.4,1.1-3,1.6-5,1.6h-1.3c-0.1,0-0.4-0.1-0.7-0.2c-0.4-0.1-0.7-0.3-1.2-0.4c-0.4-0.1-0.8-0.3-1.1-0.4
				c-0.3-0.1-0.6-0.2-0.7-0.2c-0.2,0-0.7,0.2-1.3,0.5c-0.7,0.3-1,0.6-1.2,0.8H396c-1.7,0-2.9-0.6-3.8-1.8c-0.9-1.2-1.5-2.6-1.8-4.3
				c-0.4-1.7-0.5-3.4-0.5-5.1c0-1.8,0-3.2,0-4.3c0-2.3,0.1-4,0.4-5.1c0.3-1.1,0.7-2,1.4-2.7c0.7-0.7,1.5-1.5,2.6-2.3
				c1.1-0.8,2.5-2,4.2-3.7c0.2-0.2,0.5-0.6,0.8-0.9c0.3-0.4,0.6-0.8,0.9-1.2c0.3-0.4,0.5-0.7,0.7-1c0.2-0.3,0.2-0.5,0.2-0.5
				l-1.3-1.3l-6.1,6.2c-0.1,0-0.1,0-0.3,0c-0.1,0-0.2,0-0.4,0c-1.3,0-2.3-0.6-3-1.7c-0.7-1.1-1.3-2.5-1.7-4.2
				c-0.4-1.7-0.7-3.6-0.8-5.6c-0.1-2-0.2-4-0.2-5.8c0-1.8,0-3.4,0.1-4.8C387.4,543.6,387.4,542.7,387.4,542.3z M404.6,488.4
				c-1.2,0-2,0.5-2.5,1.4h2.5V488.4z M411.6,534.7c0,1.3,0.4,2.2,1.3,2.6c0.8,0.4,1.8,0.6,3,0.6c0-1.3-0.4-2.2-1.3-2.6
				C413.8,534.9,412.8,534.7,411.6,534.7z M420.4,547.3v1.5c1.1,0,1.9-0.5,2.4-1.5H420.4z M422.8,513.1l-1.2-1.3v1.3H422.8z
				 M432.7,504.5c-0.2,0.7-0.6,1.4-1.3,2c-0.7,0.6-1.4,1.1-2.1,1.6c-0.8,0.5-1.5,0.9-2.1,1.2c-0.6,0.3-0.9,0.6-0.9,0.8
				c0,0.1,0,0.2,0.1,0.3c0.1,0.1,0.1,0.3,0.1,0.3c0.5,0.2,1.2,0.8,2.3,1.8c1,1,2.1,1.9,3.2,2.9c1.1,1,2.1,1.9,3.1,2.7
				c1,0.8,1.6,1.2,1.8,1.2c2.4,0,4.7-0.3,6.8-1c2.1-0.7,4.3-1.5,6.4-2.3c2.1-0.9,4.3-1.6,6.4-2.3c2.2-0.7,4.5-1,6.8-1
				c0-4.7-0.5-8.3-1.4-10.8c-0.9-2.6-2.3-4.5-4.2-5.7c-1.9-1.2-4.2-2-7.1-2.2c-2.8-0.2-6.2-0.4-10.1-0.4h-3.4c-0.1,0-0.3,0-0.5,0
				c-0.2,0-0.4,0-0.7,0c-0.5,0-0.9,0.1-1.4,0.2c-0.4,0.1-0.7,0.5-0.9,1.1c0,0.4-0.1,1-0.2,2c-0.1,1-0.2,1.9-0.4,3
				c-0.1,1-0.2,2-0.4,2.9C432.8,503.5,432.7,504.2,432.7,504.5z M446.1,531.5c-0.3,0-0.5,0.1-0.7,0.4c-0.1,0.2-0.2,0.5-0.2,0.9
				c0,0.3,0.1,0.6,0.2,0.8c0.1,0.2,0.4,0.4,0.7,0.4c0.3,0,0.5-0.1,0.7-0.4c0.1-0.2,0.2-0.5,0.2-0.8c0-0.3-0.1-0.6-0.2-0.9
				C446.6,531.6,446.4,531.5,446.1,531.5z M457.1,483.8c0.1,0.4,0.3,0.9,0.6,1.6c0.3,0.6,0.7,0.9,1.2,0.9c0.7,0,1.2-0.3,1.6-0.8
				c0.4-0.5,0.6-1.1,0.6-1.7H457.1z M461.2,548.5c0-0.5-0.1-0.9-0.4-1.2c-0.3-0.3-0.7-0.6-1.1-0.8c-0.4-0.2-0.9-0.3-1.3-0.4
				c-0.5-0.1-0.9-0.1-1.3-0.1v2.5H461.2z M479,575.1c-1.1,0-1.9,0.5-2.4,1.5h2.4V575.1z"/>
			<path class="st0" d="M592.4,531.5v-0.5c0-3-0.1-5.9-0.2-8.7c-0.1-2.8-0.3-5.6-0.5-8.3c-0.2-2.7-0.3-5.5-0.4-8.2
				c-0.1-2.8-0.1-5.6,0-8.5l-7.3,3.7h-23.3c-0.4,0-1-0.3-1.7-0.9c-0.7-0.6-1.5-1.4-2.2-2.2c-0.7-0.9-1.4-1.8-2.1-2.8
				c-0.6-1-1.1-1.8-1.3-2.6v-0.5c0-1,0-2.4,0-4.1c0-1.7,0.1-3.6,0.2-5.5c0.1-1.9,0.4-3.9,0.8-5.9c0.4-2,1-3.8,1.7-5.5
				c0.7-1.6,1.7-3,2.9-4c1.2-1,2.6-1.5,4.3-1.5c1.4,0,2.7,0.2,4.1,0.7c1.4,0.5,2.8,0.7,4.4,0.7c0.6,0,1.1-0.1,1.5-0.2
				c0.4-0.1,0.7-0.5,0.9-1.2h29.3c0.2,0.2,0.4,0.6,0.8,1c0.4,0.4,0.7,0.8,1.2,1.3c0.4,0.4,0.8,0.8,1.3,1.1c0.4,0.3,0.8,0.4,1,0.4
				c0.4,0,0.8-0.2,1.3-0.5c0.4-0.3,0.9-0.7,1.3-1.2c0.4-0.4,0.9-0.9,1.4-1.3c0.5-0.4,1-0.7,1.4-0.9c0.8-0.1,2-0.1,3.6-0.2
				c1.6-0.1,3.4-0.1,5.4-0.2c2-0.1,4.1-0.1,6.4-0.2c2.2-0.1,4.4-0.2,6.4-0.2c2-0.1,3.8-0.1,5.4-0.2c1.6-0.1,2.8-0.1,3.5-0.1
				c0.1,0,0.4,0,0.9,0c0.5,0,0.9,0,1.1,0c1.1,0,2.1,0.2,3,0.7c0.9,0.4,1.8,0.7,2.9,0.7c2.3,0,4.5-0.2,6.7-0.7
				c2.2-0.4,4.5-0.7,6.8-0.7c0.2,0,0.5,0,1.1,0c0.5,0,1.1,0,1.7,0c0.6,0,1.1,0,1.7,0c0.5,0,0.9,0,1.1,0c0.1,0.1,0.4,0.3,1,0.8
				c0.5,0.5,1.1,1,1.7,1.7c0.6,0.6,1.1,1.3,1.6,1.9c0.4,0.7,0.7,1.2,0.7,1.7v13.4c-0.2,0.1-0.4,0.3-0.6,0.7
				c-0.2,0.3-0.5,0.7-0.8,1.1c-0.3,0.4-0.5,0.8-0.7,1.1c-0.2,0.4-0.3,0.6-0.4,0.8c0,0.1,0.1,0.2,0.2,0.4c0.1,0.2,0.3,0.5,0.4,0.8
				c0.2,0.3,0.3,0.5,0.4,0.8c0.1,0.2,0.2,0.4,0.2,0.4c0,0.1,0,0.6,0,1.3c0,0.8,0,1.4,0,1.8c0,1.6-0.2,2.8-0.5,3.7
				c-0.3,0.9-0.8,1.6-1.4,2.1c-0.6,0.5-1.3,0.8-2.1,0.9c-0.8,0.1-1.7,0.2-2.7,0.2c-1.5,0-2.8-0.1-4-0.2c-1.2-0.1-2.3-0.3-3.3-0.5
				c-1-0.2-2-0.3-2.9-0.5c-0.9-0.1-1.9-0.2-2.9-0.2c-1.6,0-3,0.2-4,0.6c-1.1,0.4-2.1,0.9-3,1.3c-1,0.5-2,0.9-3.1,1.3
				c-1.1,0.4-2.5,0.6-4.3,0.6c-0.4,0-0.7,0-1.2,0c-0.4,0-0.9-0.1-1.3-0.1l-2.4,2.4c0.2,2.1,0.3,4,0.2,5.4c0,1.5-0.1,2.7-0.2,3.7
				c-0.1,1-0.2,1.8-0.4,2.6c-0.1,0.7-0.3,1.4-0.4,2.1c-0.1,0.7-0.3,1.5-0.4,2.4c-0.1,0.9-0.1,2-0.1,3.4c0,0.1,0,0.3,0,0.7
				c0,0.3,0,0.5,0.1,0.5c0,0.2,0.1,0.4,0.2,0.8c0.1,0.3,0.2,0.7,0.4,1.1c0.1,0.4,0.2,0.8,0.4,1.1c0.1,0.4,0.2,0.6,0.3,0.7
				c-0.2,4.6-0.3,8.9,0,12.9c0.2,4,0.5,7.9,0.9,11.8s0.8,7.7,1.2,11.7c0.4,3.9,0.5,8.1,0.5,12.6c0,1.7,0,3.6-0.1,5.6
				c-0.1,2-0.4,3.8-0.9,5.5c-0.6,1.7-1.5,3.1-2.9,4.3c-1.4,1.1-3.4,1.7-6,1.7H601c-1.8,0-3.3-0.6-4.6-1.7c-1.3-1.2-2.3-2.6-3-4.2
				c-0.8-1.6-1.3-3.3-1.7-5c-0.4-1.7-0.5-3.2-0.5-4.3c0-0.1,0-0.3,0-0.4c0-0.1,0-0.3,0-0.3c0.1-0.5,0.1-1.4,0.2-2.6
				c0.1-1.3,0.2-2.6,0.4-4.1c0.1-1.4,0.3-2.8,0.4-4.1c0.1-1.3,0.2-2.2,0.2-2.6c0.2-0.1,0.4-0.3,0.7-0.6c0.3-0.3,0.6-0.7,0.8-1.1
				c0.3-0.4,0.5-0.8,0.7-1.2c0.2-0.4,0.3-0.7,0.3-0.8c0-0.2-0.1-0.6-0.3-1.1c-0.2-0.5-0.4-1-0.7-1.5c-0.3-0.5-0.6-1-0.8-1.5
				c-0.3-0.4-0.5-0.7-0.7-0.8c0.1-0.5,0.1-1.5,0.1-2.9c0-1.4,0-2.8,0-4.4c0-1.6,0-3.1,0-4.4c0-1.4-0.1-2.3-0.1-2.9
				c0-0.2-0.1-0.6-0.2-1.2c-0.1-0.6-0.2-1.2-0.4-1.9c-0.1-0.7-0.3-1.3-0.4-1.9c-0.1-0.6-0.2-1-0.2-1.2V536c-0.1-0.1-0.1-0.2-0.1-0.4
				c0-0.2,0-0.3,0.1-0.4c0-0.1,0-0.1,0-0.2c0-0.1,0.1-0.4,0.2-0.7c0.1-0.4,0.3-0.7,0.4-1.2c0.1-0.4,0.3-0.8,0.4-1.2
				C592.4,531.7,592.4,531.5,592.4,531.5z M582.7,474c0.3,0.4,0.8,1,1.5,1.7c0.7,0.7,1.4,1.1,2.2,1.1V474H582.7z M599.5,564.4
				c0,1.1,0.5,2,1.5,2.5v-2.5H599.5z M602.3,570.6c0.4-0.2,0.5-0.7,0.5-1.3c0-0.6-0.2-1-0.5-1.2c-0.2-0.1-0.3,0-0.4,0.3
				s-0.2,0.6-0.2,1c0,0.4,0.1,0.7,0.2,0.9C601.9,570.5,602.1,570.6,602.3,570.6z M603.4,488.7v1.2h1.3v-1.2H603.4z M658.5,480.1
				c-0.3,0-0.5,0.1-0.7,0.4c-0.1,0.2-0.2,0.5-0.2,0.9c0,0.3,0.1,0.6,0.2,0.8c0.1,0.2,0.4,0.4,0.7,0.4c0.3,0,0.5-0.1,0.7-0.4
				c0.1-0.2,0.2-0.5,0.2-0.8c0-0.3-0.1-0.6-0.2-0.9C659,480.2,658.8,480.1,658.5,480.1z M666.2,483c-1,0-1.9,0.2-2.8,0.7
				c-0.8,0.4-1.3,1.3-1.3,2.5c0,0.2,0.1,0.5,0.4,0.8c0.3,0.3,0.5,0.4,0.7,0.4c1-0.7,1.7-1.3,2.1-1.9
				C665.9,485,666.2,484.1,666.2,483z"/>
			<path class="st0" d="M720.2,575.3c-0.4,0-0.8,0.1-1.1,0.4c-0.3,0.3-0.6,0.6-0.8,0.9c0.5,0.7,1.4,1.7,2.7,2.9
				c1.3,1.2,2.7,2.4,4.1,3.6c1.4,1.2,2.7,2.2,3.8,3.1c1.1,0.9,1.7,1.4,1.7,1.4c0,0.1,0,0.3,0,0.6c0,0.3,0,0.5,0,0.6
				c0,0.7-0.3,1.4-0.8,2.1c-0.6,0.7-1.3,1.4-2.1,2c-0.8,0.6-1.6,1.1-2.5,1.5c-0.8,0.4-1.5,0.6-2.1,0.6h-28.1
				c-0.1-0.2-0.3-0.6-0.6-0.9c-0.3-0.4-0.7-0.8-1.1-1.2c-0.4-0.4-0.8-0.7-1.2-1c-0.4-0.3-0.7-0.5-0.8-0.5c-0.1-0.1-0.3,0-0.7,0.1
				c-0.4,0.1-0.8,0.3-1.2,0.4c-0.4,0.1-0.8,0.3-1.1,0.4c-0.4,0.1-0.6,0.2-0.7,0.2c-0.1,0-0.2,0-0.3,0s-0.3,0-0.3,0
				c-1.1,0-1.9-0.7-2.5-2.1c-0.6-1.4-1-3-1.3-4.8c-0.3-1.8-0.4-3.6-0.4-5.4s0-3,0-3.7c0-1,0.1-2,0.4-3.1c0.3-1,0.6-2,0.8-3V496
				c0-0.2,0.2-0.6,0.5-1.2c0.3-0.6,0.6-1.1,0.8-1.3c0.1-0.1,0.4-0.4,0.9-0.9c0.5-0.5,1-1,1.6-1.5c0.6-0.5,1.1-1,1.6-1.5
				c0.5-0.5,0.7-0.8,0.8-0.9c0.1-0.1,0.1-0.2,0.1-0.3c0-0.1,0-0.3,0-0.4c0-0.5-0.2-0.8-0.6-1c-0.4-0.2-0.9-0.3-1.5-0.4
				c-0.6-0.1-1.1-0.3-1.7-0.4c-0.6-0.2-1-0.5-1.2-1.1c0-0.2,0-0.5,0-0.9c0-0.4,0-0.8,0-1.3c0-0.5,0-0.9,0-1.3c0-0.4,0-0.7,0-0.9
				c0-1,0.2-2.3,0.5-4c0.3-1.7,0.8-3.4,1.4-5.1c0.6-1.7,1.4-3.1,2.3-4.3c0.9-1.2,2-1.8,3.2-1.8H722c1.2,0,2.4,0.4,3.5,1.1
				c1.2,0.7,2,1.6,2.6,2.6c0,0.2,0,0.7,0,1.3c0,0.7,0,1.3,0,2.1s0,1.4,0,2s0,1.1,0,1.3c0,1.1-0.1,2.1-0.2,3
				c-0.1,0.9-0.3,1.8-0.4,2.7c-0.1,0.9-0.3,1.7-0.4,2.6c-0.1,0.9-0.2,1.8-0.2,2.7v0.6c0,0.1,0.1,0.3,0.2,0.7
				c0.1,0.4,0.3,0.8,0.4,1.2c0.1,0.4,0.3,0.8,0.4,1.1c0.1,0.4,0.2,0.6,0.2,0.7c0.1,0.5,0.1,1.5,0.3,2.9c0.1,1.4,0.2,2.9,0.4,4.4
				c0.1,1.6,0.2,3,0.4,4.4c0.1,1.4,0.2,2.4,0.2,2.9c2.1,1.3,4.7,2.2,7.7,2.8c3.1,0.6,6.2,0.9,9.4,0.9c1.4,0,3-0.1,5-0.3
				c1.9-0.2,3.8-0.6,5.6-1.3c1.8-0.7,3.4-1.8,4.7-3.2c1.3-1.4,1.9-3.4,1.9-5.9c0-1.7-0.2-3.3-0.6-4.7c-0.4-1.5-0.6-3-0.6-4.6v-2
				c0.1-0.7,0.1-1.9,0.2-3.7c0.1-1.7,0.2-3.6,0.4-5.5c0.1-1.9,0.3-3.8,0.4-5.5c0.1-1.7,0.2-3,0.3-3.7c0.2-0.2,0.4-0.6,0.8-1
				c0.4-0.4,0.8-0.8,1.3-1.2c0.5-0.4,1-0.7,1.5-1c0.5-0.3,0.9-0.4,1.3-0.4h22c1.6,0,2.9,0.5,3.9,1.4c1,1,1.7,2.1,2.2,3.5
				c0.5-1.2,1-1.9,1.7-2.2c0.7-0.3,1.5-0.4,2.5-0.4c1.3,0,2.3,0.4,3,1.2s1.3,1.7,1.7,2.8c0.4,1.1,0.6,2.1,0.8,3.2
				c0.1,1.1,0.2,1.9,0.2,2.5c0,1.4-0.2,2.6-0.6,3.5c-0.4,0.9-0.8,1.8-1.3,2.7c-0.5,0.9-1,1.9-1.3,3.1c-0.4,1.2-0.6,2.8-0.6,4.8
				c0,1.7,0.1,3.6,0.4,5.9c0.3,2.3,0.6,4.7,0.9,7.3c0.4,2.6,0.7,5.3,0.9,8.1c0.3,2.8,0.4,5.7,0.4,8.5c0,4-0.2,7.7-0.7,11.2
				c-0.4,3.5-0.7,6.6-0.7,9.4c0,1.4,0.1,2.7,0.2,4c0.1,1.3,0.3,2.9,0.4,4.8c0.2,1.9,0.3,4.3,0.4,7.3c0.1,3,0.2,6.8,0.2,11.5
				c0,4,0,7.4,0.1,10.3c0.1,2.9,0,5.3,0,7.2c-0.1,2-0.3,3.6-0.7,4.7c-0.4,1.2-1,2.1-1.9,2.7c-0.9,0.6-2.1,1-3.6,1.3
				c-1.5,0.2-3.5,0.3-5.9,0.3c-5,0-9.3-0.3-12.8-0.9c-3.5-0.6-6.5-1.3-8.8-2.2c-2.4-0.9-4.2-2-5.6-3.1c-1.4-1.2-2.4-2.3-3.1-3.5
				c-0.7-1.2-1.1-2.3-1.3-3.4c-0.2-1.1-0.3-2-0.3-2.8c0-0.3,0-0.7,0-1.3s0-1.1,0-1.6c0-0.5,0-1,0-1.4c0-0.4,0-0.6,0-0.7
				c0-0.1,0.1-0.4,0.2-0.7c0.1-0.4,0.3-0.7,0.4-1.1c0.1-0.4,0.3-0.8,0.4-1.2c0.1-0.4,0.2-0.6,0.2-0.7c0-0.1-0.1-0.4-0.2-0.9
				c-0.1-0.5-0.3-1-0.4-1.5c-0.1-0.5-0.3-1-0.4-1.5c-0.1-0.5-0.2-0.8-0.2-0.9v-18.3c0.7-0.2,1-0.6,1.2-1c0.1-0.4,0.2-0.9,0.2-1.5
				c0-0.1,0-0.3,0-0.6c0-0.3,0-0.5,0-0.6c-2.3-0.3-4.6-0.8-6.8-1.4c-2.3-0.7-4.5-1.4-6.6-2.2l-2.5,3h-17.1V573
				c0,1.1-0.3,2.3-0.9,3.4c-0.6,1.1-1.5,1.7-2.7,1.7c-0.1,0-0.3,0-0.7,0c-0.3,0-0.5-0.1-0.5-0.1c-0.1,0-0.4-0.1-0.7-0.4
				c-0.4-0.2-0.7-0.5-1.2-0.8c-0.4-0.3-0.8-0.6-1.1-0.8c-0.3-0.2-0.6-0.4-0.7-0.4c-0.1,0-0.2,0-0.3,0
				C720.4,575.3,720.3,575.3,720.2,575.3z M695.2,533.9c0.3,0,0.5-0.1,0.7-0.4c0.2-0.2,0.3-0.5,0.3-0.8c0-0.3-0.1-0.6-0.3-0.9
				c-0.2-0.2-0.4-0.4-0.7-0.4c-0.3,0-0.5,0.1-0.7,0.4c-0.1,0.2-0.2,0.5-0.2,0.9c0,0.3,0.1,0.6,0.2,0.8
				C694.6,533.8,694.9,533.9,695.2,533.9z M695,476.4c0,0.2,0,0.6,0,1.2c0,0.6,0.1,1.1,0.1,1.3c0.8-2.4,2.5-4.1,4.9-4.9
				c-0.1-0.2-0.3-0.7-0.6-1.3c-0.3-0.6-0.6-1-0.7-1.1c0-0.1-0.1-0.1-0.2-0.1c-0.1,0-0.3,0-0.4,0c-0.7,0-1.3,0.2-1.7,0.5
				c-0.4,0.3-0.7,0.7-0.9,1.3c-0.2,0.5-0.4,1.1-0.4,1.7C695,475.4,695,475.9,695,476.4z M708.6,485c-1.1-0.8-2.4-1.3-3.7-1.3
				c-0.1,0.1-0.3,0.3-0.6,0.6c-0.3,0.3-0.5,0.5-0.5,0.6H708.6z M709.8,561.3c0,0.2,0,0.3,0.1,0.4c0,0.1,0,0.2,0,0.3
				c0.1,0.2,0.2,0.6,0.5,1.2c0.3,0.6,0.5,1,0.6,1.2c0.1-0.1,0.1-0.3,0.1-0.6c0-0.3,0-0.5,0-0.6c0-0.5,0-1-0.1-1.5
				c-0.1-0.4-0.5-0.8-1.1-1c0,0.1,0,0.2,0,0.3C709.8,561.2,709.8,561.3,709.8,561.3z M713.5,486.2c0.1-0.2,0-0.3-0.4-0.4
				c-0.4-0.1-0.9-0.1-1.4-0.1c-0.5,0-1,0-1.4,0.1c-0.4,0.1-0.5,0.2-0.4,0.4c0.1,0.2,0.4,0.4,0.7,0.5c0.4,0.1,0.7,0.1,1.1,0.1
				c0.4,0,0.8,0,1.2-0.1C713.2,486.6,713.4,486.4,713.5,486.2z M740.4,515.5c-0.5,1.7-1.1,3.4-1.9,5.1c-0.8,1.7-1.8,3.3-3,4.7
				c0.1,0.1,0.2,0.1,0.3,0.1s0.3,0,0.3,0c0.2,0,0.6-0.2,1.4-0.7c0.7-0.4,1.5-1,2.3-1.6c0.8-0.6,1.5-1.2,2.1-1.8
				c0.6-0.6,0.9-1.1,0.9-1.4c0-0.8-0.3-1.6-0.8-2.4C741.6,516.6,741,516,740.4,515.5z M765.8,547.3c0,1.1,0.5,1.9,1.4,2.4v-2.4
				H765.8z M770.9,576.7c-0.3,0-0.5,0.1-0.7,0.4c-0.1,0.2-0.2,0.5-0.2,0.9c0,0.3,0.1,0.6,0.2,0.8c0.1,0.2,0.4,0.4,0.7,0.4
				c0.3,0,0.5-0.1,0.7-0.4c0.2-0.2,0.3-0.5,0.3-0.8c0-0.3-0.1-0.6-0.3-0.9C771.4,576.8,771.2,576.7,770.9,576.7z M788.1,559.6h-2.5
				c0.6,1,1.4,1.5,2.5,1.5V559.6z M789.6,563.1c-0.1,0.3,0,0.6,0.2,0.9c0.2,0.3,0.4,0.4,0.7,0.4c0.3,0,0.5-0.1,0.7-0.4
				c0.2-0.2,0.3-0.5,0.3-0.8c0-0.3-0.1-0.6-0.3-0.9c-0.2-0.2-0.4-0.4-0.7-0.4c-0.2,0-0.3,0-0.4,0.1c0.1-0.3,0-0.6-0.2-0.9
				c-0.2-0.3-0.4-0.4-0.7-0.4c-0.3,0-0.5,0.1-0.7,0.4c-0.1,0.3-0.2,0.6-0.2,0.9s0.1,0.6,0.2,0.8c0.1,0.3,0.4,0.4,0.7,0.4
				c0.1,0,0.1,0,0.2,0C789.5,563.2,789.5,563.1,789.6,563.1z M790.1,562.1c0,0.5-0.2,0.9-0.5,1.1c0-0.2,0-0.5,0.1-0.7
				C789.8,562.3,789.9,562.1,790.1,562.1z M794.4,574.1c0-1.1-0.5-1.9-1.5-2.4v2.4H794.4z"/>
			<path class="st0" d="M822.3,474c0.7-1,1.8-2.1,3.1-3.2c1.4-1.1,2.9-2.2,4.5-3.2c1.6-1,3.3-1.8,5-2.5c1.7-0.7,3.2-1,4.5-1
				c0.1,0,0.3,0,0.7,0c0.3,0,0.5,0,0.6,0c0.4,0,0.9,0.1,1.7,0.2c0.8,0.1,1.7,0.2,2.6,0.4c0.9,0.1,1.7,0.2,2.5,0.4
				c0.8,0.1,1.4,0.2,1.7,0.3h73.3c0.2,0,0.6,0.1,1.2,0.4c0.5,0.3,1.1,0.6,1.7,1c0.6,0.4,1.1,0.8,1.5,1.2c0.4,0.4,0.6,0.7,0.6,1v18.3
				c0,1.6-0.6,3-1.7,4.1c-1.2,1.1-2.6,2.1-4.4,2.8s-3.7,1.3-5.8,1.7c-2.1,0.4-4,0.7-5.9,0.9c-1.8,0.2-3.4,0.3-4.7,0.3
				c-1.3,0-2,0-2.2,0c-1.8,0-3.4-0.1-4.8-0.4c-1.4-0.3-2.8-0.6-4-0.9c-1.2-0.3-2.4-0.6-3.5-0.9c-1.1-0.3-2.3-0.4-3.4-0.4
				c-1.1,0-2.2,0.2-3.1,0.7c-0.9,0.4-2,0.7-3.1,0.7c-0.8,0-1.4-0.2-2-0.6c-0.6-0.4-1.1-0.8-1.6-1.3c-0.5-0.5-1-0.9-1.5-1.3
				c-0.5-0.4-1-0.6-1.5-0.6c-1.6,0-2.8,0.4-3.8,1.1c-1,0.7-1.8,1.6-2.5,2.7c-0.6,1-1.1,2.1-1.3,3.3c-0.3,1.1-0.4,2.1-0.4,3
				c0,1.7,0.4,3.2,1.3,4.7c0.9,1.5,1.9,2.7,3.2,3.8c1.3,1.1,2.7,2,4.2,2.6c1.5,0.6,2.9,0.9,4.2,0.9c0.1,0,0.3,0,0.4,0
				c0.1,0,0.2,0,0.2-0.1c0.2-0.1,0.6-0.2,1.3-0.5c0.7-0.3,1-0.5,1.2-0.6c0.7-0.1,1.7-0.1,3.1-0.3c1.4-0.1,3-0.3,4.8-0.4
				c1.8-0.2,3.7-0.4,5.6-0.5c1.9-0.2,3.8-0.3,5.6-0.5c1.8-0.1,3.4-0.3,4.8-0.4c1.4-0.1,2.4-0.2,3.1-0.3c0-0.1,0.1-0.1,0.2-0.1
				c0.1,0,0.3,0,0.4,0c0.8,0,1.8,0,2.8,0c1,0,2.1,0.2,3.1,0.4c1,0.2,1.9,0.6,2.7,1.1c0.8,0.5,1.4,1.2,1.7,2.1c0,0.2,0,0.5,0,1
				c0,0.5,0,1,0,1.5c0,0.5,0,1,0,1.5c0,0.4,0,0.8,0,0.9c0,1.1,0,2.7-0.1,4.7c-0.1,2-0.3,4-0.6,6.1c-0.3,2.1-0.8,3.9-1.5,5.6
				c-0.7,1.7-1.6,2.7-2.8,3.2c-3.8,0.4-7.5,0.9-11.1,1.6c-3.6,0.6-7,0.9-10.2,0.9c-2.8,0-5.2-0.2-7.3-0.7c-2.1-0.4-4.1-0.7-6.2-0.7
				c-1.1,0-2.1,0.2-3,0.7c-1,0.4-2,0.7-3,0.7c-1.5,0-2.9-0.2-4.3-0.6c-1.4-0.4-2.8-0.6-4.3-0.6v14.5c-0.1,0.1-0.3,0.3-0.6,0.7
				c-0.3,0.3-0.6,0.7-0.9,1.1c-0.3,0.4-0.6,0.8-0.9,1.1c-0.3,0.4-0.5,0.6-0.6,0.8v0.3c-0.1,0.1-0.1,0.2-0.1,0.4c0,0.1,0,0.2,0,0.3
				c0,0.1,0,0.3,0,0.3c0.1,0.1,0.3,0.3,0.6,0.6c0.3,0.3,0.6,0.5,0.7,0.5c1.9,0.3,3.5,0.5,4.9,0.7c1.4,0.2,2.6,0.3,3.7,0.4
				c1.1,0.1,2,0.1,2.9,0.2c0.9,0,1.7,0,2.6,0c3.2,0,6.3-0.1,9.1-0.4c2.8-0.3,5.6-0.6,8.2-0.9c2.7-0.4,5.3-0.7,7.9-0.9
				c2.6-0.3,5.3-0.4,8.1-0.4c1.7,0,3.7,0.1,5.8,0.3c2.1,0.2,4.2,0.7,6,1.5c1.9,0.8,3.5,2,4.7,3.5c1.3,1.5,1.9,3.6,1.9,6.2v2.1
				c-0.1,1.4-0.2,3.1-0.3,5.1c-0.1,2.1-0.3,4.1-0.4,6c-0.1,2-0.3,4.4-0.5,7.2l-1.2,1.2c-0.1,0.1-0.8,0.3-2,0.4
				c-1.2,0.1-2.7,0.3-4.7,0.5c-1.9,0.2-4.1,0.4-6.5,0.6c-2.4,0.2-5,0.4-7.6,0.6c-2.6,0.2-5.2,0.4-7.8,0.6c-2.6,0.2-5,0.4-7.2,0.5
				c-2.2,0.1-4.2,0.3-5.8,0.4c-1.6,0.1-2.8,0.1-3.5,0.1c-1.4,0-2.7-0.1-3.9-0.4c-1.2-0.3-2.5-0.6-3.7-0.9c-1.3-0.4-2.6-0.7-3.9-0.9
				c-1.3-0.3-2.8-0.4-4.5-0.4c-1.6,0-3.3,0.1-5.1,0.4c-1.8,0.3-3.7,0.6-5.6,0.9c-1.9,0.3-3.8,0.6-5.7,0.9c-1.9,0.3-3.8,0.4-5.7,0.4
				c-3.4,0-6.6-0.5-9.5-1.6c-3-1-5.5-2.5-7.7-4.4c-2.2-1.9-3.9-4.2-5.2-6.9c-1.3-2.7-1.9-5.8-1.9-9.2c0-0.8,0.1-1.4,0.4-1.9
				c0.3-0.5,0.6-0.9,0.9-1.3c0.4-0.4,0.7-0.8,0.9-1.2c0.3-0.4,0.4-0.9,0.4-1.6c0-1.1-0.2-2.2-0.7-3.1c-0.4-1-0.7-2-0.7-3
				c0-2.9,0.2-5.6,0.7-8.3c0.4-2.7,0.7-5.4,0.7-8.3c0-2-0.1-3.9-0.4-5.8c-0.3-1.9-0.6-3.7-0.9-5.5c-0.3-1.8-0.6-3.5-0.9-5.2
				c-0.3-1.7-0.4-3.4-0.4-5c0-1.6,0.1-3.2,0.4-4.7c0.3-1.5,0.6-3,0.9-4.4c0.3-1.4,0.6-2.8,0.9-4.2c0.3-1.3,0.4-2.7,0.4-4.1
				c0-1-0.1-2-0.2-3.1c-0.1-1-0.3-2.2-0.4-3.5c-0.1-1.3-0.3-2.8-0.4-4.5c-0.1-1.7-0.2-3.8-0.2-6.1c0-0.7,0-1.5,0-2.5
				c0-0.9,0.1-2,0.2-3.2c0.1-1.2,0.2-2.6,0.4-4.3S822,476.2,822.3,474z M827.3,504.5c0.2,0.4,0.4,0.7,0.8,0.9
				c0.3,0.3,0.7,0.4,1.1,0.4c0.1,0,0.2,0,0.3-0.1h0.3c0.9-0.7,1.7-1.3,2.3-1.7c0.6-0.4,1.1-0.8,1.5-1.2c0.4-0.4,0.7-0.8,0.9-1.3
				c0.2-0.4,0.3-1.1,0.3-1.8c0-1-0.1-1.8-0.3-2.5c-0.2-0.7-0.6-1.6-1-2.5c-0.7,1.8-1.5,3.5-2.5,5.1
				C829.8,501.6,828.6,503.1,827.3,504.5z M827.3,575.4h1.3v-1.3h-1.3V575.4z M849.3,470.3c0.1-0.2,0-0.3-0.1-0.4
				c-0.1-0.1-0.3-0.1-0.5-0.1c-0.5,0-0.7,0.2-0.6,0.5c0.1,0.4,0.3,0.5,0.6,0.5C849,470.9,849.2,470.7,849.3,470.3z M859,527.8v1.2
				h1.3L859,527.8z M872.7,586.4c0-1.1-0.5-1.9-1.5-2.4v2.4H872.7z M896.9,482.5v1.3h1.3v-1.3H896.9z M901.8,590.1v-2.9
				c-1,0-1.9,0.2-2.7,0.6c-0.8,0.4-1.3,1.2-1.3,2.3H901.8z"/>
		</g>
	</g>
	<g>
		<g>
			<path class="st1" d="M352.4,179.8c3.7,1.1,5.6,3.7,5.2,6.7c-0.4,3-2.6,5.2-6,6c-1.1,0.4-2.2,0.4-3.4,0.4
				c-4.8,0.4-5.6,1.1-5.6,6.3c0,5.6-0.4,11.2-0.4,16.8c0.4,22-1.1,44-1.9,66c-0.7,17.9-0.7,35.8-1.5,53.7
				c-0.7,23.1-1.5,46.3-2.2,69.4c-0.4,5.2-1.1,10.4-0.7,15.7c0.4,4.5,0.7,5.2,4.9,6c1.1,0,2.2,0,3.4,0.4c2.6,0.7,4.5,2.6,4.8,5.6
				c0.4,3-1.1,4.9-3.4,6c-2.6,1.1-5.2,1.1-7.8,0.7c-5.2-0.7-10.4-1.5-15.3-3.4c-10.8-3.7-21.6-2.6-32.5,0.7
				c-2.6,0.7-5.2,1.5-7.8,2.2c-2.6,0.7-5.2,1.1-7.8,0.7c-2.6-0.4-4.5-1.9-4.8-4.5c-0.4-2.6,1.1-4.5,3.4-5.6c0.7-0.4,1.9-0.7,3-1.1
				c5.6-1.9,5.6-1.9,5.6-7.8c0-3.4,0-6.7,0-10.1c0.4-22.8,0.7-45.5,1.5-68.3c0-5.6-0.7-10.4-4.8-14.9c-4.9-5.2-10.4-9.3-17.9-10.4
				c-10.4-1.9-18.7,2.2-26.5,8.2c-1.9,1.5-1.9,3.4-1.9,5.2c-0.4,8.2-0.7,16.4-0.7,24.6c0,19.4-1.1,38.8-2.2,58.2c0,1.5,0,3,0,4.5
				c0,7.8,0,7.8,7.8,9.3c3.4,0.7,5.6,2.6,5.6,5.6s-1.9,4.9-4.5,6c-2.2,0.7-4.5,0.7-6.7,0.4c-4.9-0.7-9.7-1.5-14.6-3
				c-11.9-4.1-23.5-3-35.1,0.7c-2.2,0.7-4.5,1.5-6.7,2.2c-2.6,0.7-5.2,1.1-7.8,0.4c-2.6-0.7-4.1-2.2-4.5-4.9
				c-0.4-2.2,0.7-4.1,2.6-5.2c1.1-0.7,2.2-1.1,3.4-1.5c5.2-1.5,5.2-1.5,5.2-7.1c0-4.5,0-9,0-13.4c0.4-24.6,0.7-49.2,1.1-73.9
				c0-4.5-0.4-8.6-2.2-12.7c-1.5-3.4-3-6.3-6.3-8.2c-3-1.5-4.5-3.7-3.4-7.1c0.7-3,3.4-4.1,7.8-3.7c4.1,0.4,4.5,0.4,4.8-3.7
				c0.4-2.2,0.4-4.5,0.4-6.7c0-17.2,0-34.3,0.4-51.5c0-12.3,1.1-24.6,0.7-36.9c0-1.5,0-3,0-4.5c0-1.9-1.1-3-3-3.4
				c-0.7,0-1.5,0-2.2,0c-4.8-0.7-7.1-2.6-7.1-5.6c0-3.4,3-5.6,7.5-6c4.9-0.4,9.7,0.7,14.2,2.2c13.1,4.5,26.1,5.2,39.2-0.7
				c3.7-1.9,7.8-2.2,11.9-2.6c1.9-0.4,3.7-0.4,5.6,0c3.7,0.7,6,3.4,6,6.3c0,3.4-2.6,5.6-6.7,6.3c-0.7,0-1.5,0-2.2,0
				c-5.2,0.4-6,1.1-6,6.3c0,6-0.4,11.9-0.4,17.9c0.7,22-1.1,43.7-1.1,65.7c0,6.7-1.1,13.4-0.7,20.1c0,1.5-0.7,3.4,0.7,4.9
				c1.5,0.7,2.6,0,3.7-0.4c13.4-6.7,26.9-5.6,40.3,0.7c1.1,0.4,1.9,0.7,2.6,1.1c2.2,1.1,3.4,0.4,3.4-1.9c0.4-5.2,0.7-10.4,0.7-15.7
				c0.4-13.8,0.4-27.6,0.7-41.4c0.4-15.7,0.7-31.3,1.1-47c0-1.5,0-3,0-4.5c0-2.2-1.1-3.7-3.7-4.1c-1.1,0-2.2,0-3.4-0.4
				c-2.6-0.7-4.5-2.6-4.5-5.6c0-3,1.5-4.9,4.1-5.6c3.4-1.1,6.7-0.7,10.1-0.4c6.3,1.1,12.3,4.1,18.7,4.8c8.6,1.1,16.8,0.7,25-3
				c4.1-1.9,8.6-2.6,13.1-3.4c2.6-0.4,5.2-0.4,7.8,0.4V179.8z M219.9,279c0.7-24.3,2.6-48.5,2.2-72.8c0-1.5,0-3,0-4.5
				c0-3-1.5-4.8-4.5-4.1c-7.5,1.5-14.5,0-21.6-0.7c-4.5-0.4-4.8-0.4-4.8,4.5c0,12.7-0.7,25.4-1.1,38.1c-0.7,22.4,0.4,44.8-1.1,67.2
				c-0.4,3-0.7,6,0.4,9.7c8.6-4.5,16.8-6.3,25.4-2.2c4.1,1.9,4.5,1.5,4.5-3.4c0.4-10.1,0.7-20.1,1.1-30.2L219.9,279z M198.7,281.3
				c3.4-2.6,7.1-1.9,10.8,2.6c1.5,1.9,2.2,4.1,2.2,6.7c0,2.6-1.1,4.9-3.7,6.3c-2.6,1.5-5.2,1.1-7.5-0.4c-1.1-0.7-2.2-1.9-3-3
				c-3-4.1-2.2-9.3,1.5-12.3H198.7z M327,277.5c0.7-24.3,2.6-48.5,2.2-72.8c0-1.5,0-3,0-4.5c0-3-1.5-4.8-4.5-4.1
				c-7.5,1.5-14.5,0-21.6-0.7c-4.5-0.4-4.9-0.4-4.9,4.5c0,12.7-0.7,25.4-1.1,38.1c-0.7,22.4,0.4,44.8-1.1,67.2c-0.4,3-0.7,6,0.4,9.7
				c8.6-4.5,16.8-6.3,25.4-2.2c4.1,1.9,4.5,1.5,4.5-3.4c0.4-10.1,0.7-20.1,1.1-30.2L327,277.5z M315.8,282.8
				c3.4,3.4,4.1,7.8,1.9,11.2c-1.9,3-5.2,4.1-8.2,3c-4.1-1.1-7.1-5.2-7.1-9.3c0-3.4,2.2-6.7,5.2-7.8c3.4-1.5,5.6,0.4,7.8,2.2
				L315.8,282.8z"/>
			<path class="st1" d="M542.7,217.5c0.7,1.9,1.1,4.1,0.7,6.3c-0.4,2.6-1.9,4.1-4.5,4.9c-2.6,0.7-4.5,0-6-1.9
				c-1.5-1.9-1.9-4.1-2.6-6.3c-2.6-8.6-8.2-14.5-16.8-17.5c-11.2-4.1-22.8-4.5-34.3-3.4c-5.6,0.4-11.2,1.1-16.8,1.9
				c-4.5,0.7-4.5,1.1-4.9,5.6c-1.1,30.6-0.7,61.2-1.1,91.8c0,1.5,0,3,0,4.5c0.4,4.5,0.7,4.9,4.8,3c8.6-3.4,17.5-5.2,26.9-3.4
				c5.2,1.1,10.1,3.4,14.2,7.5c2.6-2.2,2.2-4.9,1.9-7.5c0-1.5-0.4-3-0.4-4.5c0-3.4,1.5-5.6,4.1-6.3c2.6-0.7,5.2,0.4,6.7,3.4
				c2.2,5.2,2.6,10.4,1.5,16c-1.1,5.6-3.4,10.8-6,16c-1.9,3.7-3,7.5-2.6,11.9c0,0.7,0,1.5,0,2.2c-0.4,3-2.2,4.9-5.2,5.2
				c-3,0.4-4.8-1.1-6.3-3.4c-1.1-1.9-1.5-3.7-1.5-6c0-3,0.7-6,1.1-9c1.1-7.1-2.2-11.9-9-13.8c-10.8-3-20.1,0.4-28.7,6.7
				c-2.6,1.9-2.6,4.5-2.6,7.1c0,13.1,0,26.1,0,39.2c-0.4,18.3,0.4,36.6-0.7,54.5c-0.4,3.7,1.1,4.9,4.1,5.6c11.2,2.6,22.4,3,33.6,1.9
				c5.2-0.7,10.4-1.9,15.3-3.4c5.6-1.9,10.8-4.5,14.2-9.7c0.7-0.7,1.5-1.5,2.2-2.2c2.2-1.9,4.5-2.2,7.1-0.7c2.6,1.5,3.4,4.1,2.6,7.1
				c-0.7,2.6-2.2,4.5-3.7,6.3c-4.8,5.6-10.8,9-17.5,11.2c-17.9,5.6-36.2,6.3-54.5,2.2c-7.5-1.5-14.5-3.4-22-4.5
				c-13.8-1.9-27.2-0.7-39.9,6c-4.8,2.6-7.8,2.2-9.7-0.7c-1.9-3-0.7-6.7,4.1-8.6c8.2-3.4,10.4-8.6,10.4-16.8
				c0-9.7,0.4-19.4,0.4-29.1c0.4-15.3,0.4-30.6,1.5-45.9c0.4-7.8-2.6-14.6-6.3-20.9c-1.1-1.9-3-3-4.8-4.1c-4.1-3-5.2-5.6-3.4-8.6
				c1.9-3,4.8-3.4,9.7-1.1c1.1,0.7,2.2,1.9,4.5,1.9c0.4-9.3,1.1-18.3,1.1-27.2c0.4-14.2,0.4-28.4,0.7-42.5c0-8.6,0.4-17.2,0.4-25.7
				c0-5.6,0-5.6-6-7.5c-3.7-1.1-7.5-2.2-10.4-4.5c-3-1.9-3.7-4.9-2.2-7.5c1.5-2.6,4.1-3.7,7.1-2.6c16.4,6.7,33.2,4.5,50,2.2
				c10.8-1.5,21.6-3.4,32.5-4.9c14.9-1.9,29.5-1.1,43.7,4.5c12.3,4.9,19.8,13.8,23.5,26.5V217.5z M443,209.3
				c0.4-4.1-0.4-4.9-4.9-4.9c-5.2,0.4-10.4,1.5-16,1.5c-4.9,0-5.6,0.7-5.6,5.6c0,7.1-0.4,14.2-0.4,21.3c-0.7,23.5,0,47.4-1.5,70.9
				c0,3,0,6,0,9c0,5.2,0.4,5.6,5.2,3.7c5.6-2.2,11.2-4.1,17.5-1.5c3.7,1.5,4.5,1.1,4.9-3.4c0.4-4.5,0.4-9,0.4-13.4
				c0.4-29.5-0.4-58.9,1.1-88.4L443,209.3z M428.9,286.5c3,0,5.2,2.2,5.2,5.6c0,3.7-3,7.1-6.3,7.1c-3,0-6-3-6-6
				c0-3.4,3.7-7.1,7.1-7.1V286.5z"/>
			<path class="st1" d="M747.5,436.1c0.7,3-0.7,5.2-3.4,6.7c-3.7,2.2-7.8,2.2-11.9,1.5c-4.1-0.7-8.6-1.5-12.7-3
				c-8.6-3.4-17.2-2.6-25.7,0.4c-1.9,0.7-3.7,1.5-5.6,1.9c-3.4,0.4-6-1.5-6.7-4.5c-0.7-3,0.7-4.8,3.4-6.3c3.4-1.9,6.7-3.7,10.1-5.6
				c2.6-1.5,3.7-3.4,3.4-6.3c-2.2-14.6-3.7-29.1-8.2-42.9c-1.9-5.6-3.7-11.2-6.3-16.4c-8.6-17.2-25.7-22.4-42.9-21.6
				c-3,0-4.8,1.9-5.2,4.9c-0.4,3.7-1.1,7.5-1.1,11.2c0,19.4-1.1,38.8-2.2,58.2c0,1.5,0,3,0,4.5c0,7.8,0,7.8,7.8,9.3
				c3.4,0.7,5.6,3,5.6,6c0,3-1.9,4.9-4.5,6c-2.2,0.7-4.5,0.7-6.7,0.4c-5.2-0.7-10.4-1.5-15.3-3.4c-11.2-3.7-22-2.6-32.8,1.1
				c-3,1.1-6,2.2-9,3c-2.6,0.7-5.2,0.7-7.8,0c-2.2-0.7-3.7-2.2-4.1-4.5c-0.4-1.9,0.7-3.4,2.2-4.5c1.5-1.1,3.4-1.5,5.2-1.9
				c3-0.4,4.1-2.2,4.1-5.2c0-6,0-11.9,0-17.9c0.4-23.9,0.7-47.8,1.1-71.6c0-4.5-0.4-9-2.2-13.4c-1.9-3.7-3.7-7.1-7.8-9.3
				c-3.7-1.9-4.5-4.8-3-7.5c1.5-2.6,4.1-3.4,8.2-2.2c0.7,0.4,1.5,0.7,2.2,1.1c1.9,0.7,3,0,3.4-1.9c0.4-2.6,0.7-5.2,0.7-7.8
				c0-13.8,0.4-27.6,0.4-41.4c0-13.1,1.1-25.7,1.1-38.8c0-4.1,0-8.2,0-12.3c0-3-1.1-4.8-4.5-5.2c-5.6-0.7-7.5-2.6-7.5-5.6
				c0-3.7,3.4-6,9-6c4.5,0,9,1.1,13.4,2.6c12.7,4.1,25.4,4.9,38.1-0.7c5.6-2.6,11.9-3.4,18.3-3.4c9.3,0,18.7-1.1,28,1.1
				c16.4,3.7,31,10.4,42.5,23.1c6.3,6.7,10.4,14.5,12.3,23.5c8.2,39.9-2.2,73.9-32.8,101.5c-3.4,3-3.4,3,0,6
				c11.9,10.4,20.1,23.5,25.4,38.4c4.1,11.9,6.7,24.3,7.8,36.9c0.4,5.2,1.9,10.1,3.4,14.9c0.7,3,2.2,4.8,5.6,4.5c0.7,0,1.5,0,2.2,0
				c2.6,0.4,4.5,1.9,5.2,4.5V436.1z M625.5,206.3c0-4.5-0.7-5.6-4.9-4.9c-6.7,1.5-13.4,0-20.1-0.4c-6-0.4-6-0.4-6,5.6
				c-0.4,21.3-0.7,42.5-1.1,63.8c-0.4,13.1,0,26.1-1.1,39.2c-0.4,3-0.4,6,0.4,9.3c0.7,0,1.1,0,1.5,0c8.2-4.1,16.4-5.2,25-0.7
				c2.6,1.1,3.4,0.4,3.4-3.4c0.4-7.8,0.4-15.7,0.7-23.5c0.7-24.3,2.2-48.5,1.9-72.8C625.1,214.5,625.5,210.4,625.5,206.3z
				 M602.3,286.5c3.4-2.2,7.1-1.1,10.4,3c1.5,1.9,2.2,4.1,2.2,6.7c0,3-1.1,5.6-4.1,7.1c-2.6,1.5-5.2,0.7-7.5-1.1
				c-1.1-0.7-2.2-1.9-3-3c-2.6-4.1-1.5-9.7,2.2-12.3L602.3,286.5z M659.1,305.9c13.1-15.7,19-34.3,19-54.8
				c-0.4-10.8-1.9-21.3-6-31.3c-4.5-11.2-13.1-17.5-24.3-20.5c-8.2-2.2-9.7-1.1-9.7,7.1c0,29.8-0.7,59.7-2.2,89.5
				c-0.4,6-0.4,11.9-0.4,17.9c0,3.7,0.7,4.5,4.5,3.4c7.5-2.2,14.2-6,19-11.9V305.9z M689.3,318.2c1.9,1.5,3.4,1.1,4.8-0.4
				c1.1-1.1,2.2-2.2,3.4-3.4c20.5-24.6,27.2-52.6,19.4-83.9c-1.5-6.3-4.9-11.6-9.7-16.4c-10.1-10.4-23.1-15.3-38.1-18.7
				c11.9,11.6,16.4,18.7,19.4,33.2c3.4,16,4.5,32.1,1.9,48.5c-1.9,10.4-4.5,20.5-9,30.2c-1.9,4.5-1.9,4.5,2.2,6.7
				c2.2,1.1,4.1,2.2,5.6,3.7V318.2z"/>
			<path class="st1" d="M925.8,217.5c0.7,1.9,1.1,4.1,0.7,6.3c-0.4,2.6-1.9,4.1-4.5,4.9c-2.6,0.7-4.5,0-6-1.9
				c-1.5-1.9-1.9-4.1-2.6-6.3c-2.6-8.6-8.2-14.5-16.8-17.5c-11.2-4.1-22.8-4.5-34.3-3.4c-5.6,0.4-11.2,1.1-16.8,1.9
				c-4.5,0.7-4.5,1.1-4.9,5.6c-1.1,30.6-0.7,61.2-1.1,91.8c0,1.5,0,3,0,4.5c0.4,4.5,0.7,4.9,4.8,3c8.6-3.4,17.5-5.2,26.9-3.4
				c5.2,1.1,10.1,3.4,14.2,7.5c2.6-2.2,2.2-4.9,1.9-7.5c0-1.5-0.4-3-0.4-4.5c0-3.4,1.5-5.6,4.1-6.3c2.6-0.7,5.2,0.4,6.7,3.4
				c2.2,5.2,2.6,10.4,1.5,16c-1.1,5.6-3.4,10.8-6,16c-1.9,3.7-3,7.5-2.6,11.9c0,0.7,0,1.5,0,2.2c-0.4,3-2.2,4.9-5.2,5.2
				c-3,0.4-4.8-1.1-6.3-3.4c-1.1-1.9-1.5-3.7-1.5-6c0-3,0.7-6,1.1-9c1.1-7.1-2.2-11.9-9-13.8c-10.8-3-20.1,0.4-28.7,6.7
				c-2.6,1.9-2.6,4.5-2.6,7.1c0,13.1,0,26.1,0,39.2c-0.4,18.3,0.4,36.6-0.7,54.5c-0.4,3.7,1.1,4.9,4.1,5.6c11.2,2.6,22.4,3,33.6,1.9
				c5.2-0.7,10.4-1.9,15.3-3.4c5.6-1.9,10.8-4.5,14.2-9.7c0.7-0.7,1.5-1.5,2.2-2.2c2.2-1.9,4.5-2.2,7.1-0.7c2.6,1.5,3.4,4.1,2.6,7.1
				c-0.7,2.6-2.2,4.5-3.7,6.3c-4.9,5.6-10.8,9-17.5,11.2c-17.9,5.6-36.2,6.3-54.5,2.2c-7.5-1.5-14.5-3.4-22-4.5
				c-13.8-1.9-27.2-0.7-39.9,6c-4.8,2.6-7.8,2.2-9.7-0.7c-1.9-3-0.7-6.7,4.1-8.6c8.2-3.4,10.4-8.6,10.4-16.8
				c0-9.7,0.4-19.4,0.4-29.1c0.4-15.3,0.4-30.6,1.5-45.9c0.4-7.8-2.6-14.6-6.3-20.9c-1.1-1.9-3-3-4.8-4.1c-4.1-3-5.2-5.6-3.4-8.6
				c1.9-3,4.8-3.4,9.7-1.1c1.1,0.7,2.2,1.9,4.5,1.9c0.4-9.3,1.1-18.3,1.1-27.2c0.4-14.2,0.4-28.4,0.7-42.5c0-8.6,0.4-17.2,0.4-25.7
				c0-5.6,0-5.6-6-7.5c-3.7-1.1-7.5-2.2-10.4-4.5c-3-1.9-3.7-4.9-2.2-7.5c1.5-2.6,4.1-3.7,7.1-2.6c16.4,6.7,33.2,4.5,50,2.2
				c10.8-1.5,21.6-3.4,32.5-4.9c14.9-1.9,29.5-1.1,43.6,4.5c12.3,4.9,19.8,13.8,23.5,26.5V217.5z M826.2,209.3
				c0.4-4.1-0.4-4.9-4.9-4.9c-5.2,0.4-10.4,1.5-16,1.5c-4.9,0-5.6,0.7-5.6,5.6c0,7.1-0.4,14.2-0.4,21.3c-0.7,23.5,0,47.4-1.5,70.9
				c0,3,0,6,0,9c0,5.2,0.4,5.6,5.2,3.7c5.6-2.2,11.2-4.1,17.5-1.5c3.7,1.5,4.5,1.1,4.9-3.4c0.4-4.5,0.4-9,0.4-13.4
				c0.4-29.5-0.4-58.9,1.1-88.4L826.2,209.3z M812,286.5c3,0,5.2,2.2,5.2,5.6c0,3.7-3,7.1-6.3,7.1c-3,0-6-3-6-6
				c0-3.4,3.7-7.1,7.1-7.1V286.5z"/>
		</g>
	</g>
	<g>
		<g>
			<path class="st0" d="M540.1,648.8c2.8,0.3,4.5,2.3,4.8,4.8c0.3,2.5-1.1,4.5-4,4.8c-4.5,0.6-8.5,2.5-12.7,3.7
				c-2,0.6-3.1,1.7-4.2,3.4c-13,21.8-26,43.5-39,65.3c-1.4,2.3-1.4,4.2-0.3,6.8c11.3,24.9,22.6,49.7,33.9,74.6
				c2.8,6.2,5.7,12.4,9,18.4c1.4,2.5,3.1,4.5,6.5,4.2c0.8,0,1.7,0.3,2.5,0.6c2,0.8,3.1,2.5,2.8,4.8c-0.3,2.3-1.7,3.7-4,4
				c-3.1,0.6-6.2,0-9.3-0.8c-3.1-0.8-5.9-2-8.8-3.4c-6.2-3.4-12.4-3.4-18.7-0.3c-2.5,1.1-5.1,2.5-7.6,4c-1.7,0.8-3.4,2-5.4,2.3
				c-2,0.3-3.7-0.3-4.5-2.3c-0.8-2-0.3-3.7,1.4-5.1c0.8-0.6,1.7-0.8,2.5-1.4c4-2,4.2-2.3,2.5-6.2c-3.7-8.2-7.6-16.4-11.3-24.6
				c-4.2-9.3-8.5-18.7-12.7-28c-0.6-1.1-0.8-2.3-1.4-3.1c-0.8-1.4-2-1.7-2.8-0.3c-0.6,0.8-1.1,1.7-1.7,2.5
				c-9.6,16.1-19.2,32.2-28.8,48.3c-0.3,0.3-0.6,0.6-0.8,0.8c-2,4-1.7,4.5,2.5,5.9c1.7,0.6,3.7,0.8,5.4,1.4c1.1,0.3,2.3,0.6,3.1,1.1
				c2.3,1.1,3.1,3.1,2.8,5.4c-0.3,2-1.7,3.1-3.7,3.4c-1.7,0.3-3.4,0-5.1-0.6c-3.4-0.8-6.5-2-9.6-3.7c-4.2-2.3-8.5-2.3-12.7-0.3
				c-2.8,1.1-5.7,2.5-8.5,3.7c-3.1,1.1-5.4,0.3-6.5-2c-0.8-2.3,0.3-4.5,3.4-5.9c5.1-2.3,9.9-5.7,15.5-6.8c2.5-0.6,3.4-2.5,4.5-4.2
				c6.5-11,13-22,19.5-33.1c4.8-8.2,9.6-16.4,14.7-24.6c1.7-2.8,2-5.4,0.3-8.5c-2.5-4.5-4.8-9-8.5-12.7c-1.7-1.7-3.7-3.4-6.2-4.2
				c-1.1-0.3-2.3-0.8-3.1-1.4c-1.4-1.1-2-2.5-1.4-4.2c0.6-1.7,1.7-2.5,3.4-2.8c1.4-0.3,2.8-0.3,4.8-0.3c-3.4-7.3-6.5-14.1-9.6-20.9
				c-7.3-16.4-15-32.8-22.3-49.2c-1.7-3.4-3.7-5.7-7.6-6.2c-0.6,0-1.1,0-1.7-0.3c-2.3-0.8-3.4-2.5-3.1-4.5c0.3-2,2-3.4,4.2-3.7
				c2.5-0.3,4.8,0.6,7.1,1.7c2.8,1.4,5.4,2.8,8.2,4.2c5.4,2.8,10.7,3.1,16.1,0c4.5-2.5,9.3-4.8,14.7-5.7c2.5-0.3,5.1,0,7.3,0.8
				c2.8,1.1,4.2,3.4,3.7,5.7c-0.6,2.5-2.5,3.7-5.7,3.4c-0.3,0-0.6,0-0.8,0c-4.5-0.3-4.8,0.3-2.8,4.5c3.1,6.8,6.2,13.6,9.3,20.3
				c5.1,11.3,10.2,22.6,15.3,33.9c0.8,1.7,1.4,3.7,2.8,4.8c2-0.6,2.5-2.3,3.4-3.7c10.5-17.5,20.9-35,31.4-52.6
				c2.8-4.8,2.8-4.8-2.3-7.1c-2-0.8-4.2-1.4-6.5-1.7s-3.7-1.7-3.7-4c0-2,1.4-3.7,3.7-4.2c1.7-0.6,3.1-0.3,4.8,0
				c2.3,0.6,4.2,1.4,6.2,2.5c4.2,2.3,8.8,2.3,13.3,0.3c2.8-1.1,5.7-2.3,8.8-2.8c1.1-0.3,2.5-0.6,3.7-0.6L540.1,648.8z M467.1,751.4
				c4.2-1.1,7.1-5.1,6.8-9.3c-0.3-5.4-1.7-10.2-4-15.3c-8.2-17.5-16.1-35.3-24-52.9c-1.4-3.1-3.1-6.2-4.5-9.3c-0.8-1.7-2-2.5-4-1.7
				c-4.2,2-8.8,3.1-13.6,2.8c-1.7,0-2,1.1-1.4,2.5c0.3,0.8,0.6,1.7,0.8,2.5c11.6,25.2,23.2,50.3,34.8,75.5c0.6,1.1,1.1,2.3,1.7,3.1
				c1.7,2.5,4.8,3.7,7.3,2.8V751.4z M459.8,721.4c2.8,0,5.4,2.5,5.4,5.4c0,3.1-2.5,6.2-5.4,6.2c-2.8,0-5.1-2.5-5.1-5.7
				c0-3.4,2-5.9,4.8-5.9H459.8z"/>
			<path class="st0" d="M683.7,689.8c2.8,23.2-3.7,43.5-18.7,61.1c-11.3,13-26,20.1-43.2,21.5c-2.5,0.3-5.4,0.3-7.9,0.3
				c-3.4,0.3-3.7,0.6-3.7,4c0,4-0.3,7.9-0.3,11.9c0,13-1.4,26-1.1,39c0,4,0,4,4.2,4.5c0.8,0,1.7,0,2.5,0.3c2,0.6,3.1,2,3.4,4
				c0.3,2-0.8,3.7-2.8,4.5c-2,0.8-4,1.1-5.9,0.8c-3.4-0.6-6.8-0.8-9.9-2c-9.3-3.4-18.7-2.8-28,0.6c-2.8,1.1-5.7,2-8.8,2
				c-3.1,0-5.1-1.4-5.4-3.7c-0.3-2.3,1.1-4,4.2-5.1c4.2-1.4,4.2-1.4,4.5-5.7c0.8-19.2,0.8-38.4,1.1-57.7c0-2.3,0-4.5,0.3-6.8
				c0.3-2.8,0-5.7-0.8-8.5c-1.4-4.2-2.8-8.2-7.3-10.5c-2-0.8-2.8-2.8-2-5.1c0.8-2.3,2.8-3.1,5.4-2.5c0.8,0.3,1.7,0.6,2.5,0.8
				c0.8,0.3,1.7,0.6,2.5,0.3c1.1-1.1,0.8-2.5,0.8-4c0-23.2,1.1-46.4,0.8-69.5c0-1.1,0-2.3,0-3.4c-0.3-3.4-0.6-3.7-4-4.5
				c-0.6,0-1.1,0-1.7,0c-2-0.6-3.4-1.7-3.7-4c-0.3-2,1.1-3.7,3.7-4.2c2-0.6,4-0.6,5.9,0c3.1,0.6,6.2,1.4,9.3,2.3
				c8.8,2.5,17.5,3.1,26-0.6c6.8-3.1,14.1-2.8,21.5-3.1c7.9-0.3,15.5,0.8,22.9,3.4c7.3,2.5,14.1,6.2,20.1,11.3
				c9.6,7.9,13.3,18.4,14.7,30.2L683.7,689.8z M602.3,683.3c0.8-7.6,0.3-15.3,0.6-22.9c0-2.8-0.3-3.1-3.4-2.5
				c-5.1,1.1-10.2,0.6-15.3,0c-0.8,0-1.7,0-2.5-0.3c-2.3-0.6-3.1,0.6-3.1,2.8c0,0.6,0,1.1,0,1.7c0,22,0,44.1-0.8,65
				c0,6.5,0,12.2,0,17.8c0,3.1,0.6,3.4,3.4,2.3c5.7-2.3,11-2.5,16.7,0c2.8,1.1,3.1,0.8,3.4-2.3c0-0.8,0-1.7,0-2.5
				c-0.3-18.1,0.8-36.2,1.1-54.3c0-0.8,0-1.7,0-2.5V683.3z M592.6,724.2c2.5,2.5,3.1,5.9,1.7,8.5c-1.4,2.3-3.7,3.4-5.9,2.8
				c-3.1-0.8-5.4-4-5.4-7.3c0-2.5,1.1-4.5,3.4-5.7c2.5-1.1,4.2,0,5.9,1.4L592.6,724.2z M642.7,699.4c0-2.3,0-4.5-0.3-6.8
				c-0.6-8.5-2-17-6.5-24.6c-4.2-7.3-11-11-19.2-11.9c-3.1-0.3-3.7,0.6-4,4c-0.3,4.2-0.8,8.5-0.8,12.7c0.6,19.8-1.1,39.6-1.1,59.4
				c0,7.9-0.3,15.8-0.8,23.7c-0.3,4.8,0.6,5.1,5.1,3.1c7.1-3.1,12.2-8.5,15.8-15c7.9-13.8,12.2-28.8,11.6-44.9L642.7,699.4z
				 M671.8,718c4-11.9,3.7-24,1.1-36.2c-1.1-5.1-3.1-9.6-6.8-13.3c-7.9-8.5-17.8-13-29.4-14.7c7.6,5.9,11.3,14.1,13.3,23.2
				c4.5,20.1,3.4,39.9-4.2,59.1c-2,4.8-2,4.8,2.3,7.3c0.8,0.6,1.7,1.1,2.5,1.7c2.8,2,2.8,2,5.4-0.6c7.6-7.6,12.4-17,15.8-27.1V718z"
				/>
		</g>
	</g>
	<g>
		<rect x="152.5" y="610.7" class="st1" width="777.7" height="18.1"/>
	</g>
	<g>
		<g>
			<rect x="164" y="719.1" class="st1" width="209.6" height="25.1"/>
			<rect x="164" y="668.8" class="st1" width="209.6" height="25.1"/>
			<rect x="164" y="769.2" class="st1" width="209.6" height="25.1"/>
		</g>
		<g>
			<rect x="709.1" y="719.1" class="st1" width="209.6" height="25.1"/>
			<rect x="709.1" y="668.8" class="st1" width="209.6" height="25.1"/>
			<rect x="709.1" y="769.2" class="st1" width="209.6" height="25.1"/>
		</g>
	</g>
	<g>
		<path class="st1" d="M897.4,858.1l4.4,13.6c0.2,0.5,0.7,0.9,1.3,0.9h14.3c1.3,0,1.8,1.6,0.8,2.4l-11.6,8.4
			c-0.5,0.3-0.7,0.9-0.5,1.5l4.4,13.6c0.4,1.2-1,2.2-2,1.5l-11.6-8.4c-0.5-0.3-1.1-0.3-1.6,0l-11.6,8.4c-1,0.8-2.4-0.3-2-1.5
			l4.4-13.6c0.2-0.5,0-1.1-0.5-1.5l-11.6-8.4c-1-0.8-0.5-2.4,0.8-2.4h14.3c0.6,0,1.1-0.4,1.3-0.9l4.4-13.6
			C895.2,856.9,897,856.9,897.4,858.1z"/>
		<path class="st1" d="M808.7,858.1l4.4,13.6c0.2,0.5,0.7,0.9,1.3,0.9h14.3c1.3,0,1.8,1.6,0.8,2.4l-11.6,8.4
			c-0.5,0.3-0.7,0.9-0.5,1.5l4.4,13.6c0.4,1.2-1,2.2-2,1.5l-11.6-8.4c-0.5-0.3-1.1-0.3-1.6,0l-11.6,8.4c-1,0.8-2.4-0.3-2-1.5
			l4.4-13.6c0.2-0.5,0-1.1-0.5-1.5l-11.6-8.4c-1-0.8-0.5-2.4,0.8-2.4h14.3c0.6,0,1.1-0.4,1.3-0.9l4.4-13.6
			C806.6,856.9,808.3,856.9,808.7,858.1z"/>
		<path class="st1" d="M720,858.1l4.4,13.6c0.2,0.5,0.7,0.9,1.3,0.9H740c1.3,0,1.8,1.6,0.8,2.4l-11.6,8.4c-0.5,0.3-0.7,0.9-0.5,1.5
			l4.4,13.6c0.4,1.2-1,2.2-2,1.5l-11.6-8.4c-0.5-0.3-1.1-0.3-1.6,0l-11.6,8.4c-1,0.8-2.4-0.3-2-1.5l4.4-13.6c0.2-0.5,0-1.1-0.5-1.5
			l-11.6-8.4c-1-0.8-0.5-2.4,0.8-2.4h14.3c0.6,0,1.1-0.4,1.3-0.9l4.4-13.6C717.9,856.9,719.6,856.9,720,858.1z"/>
		<path class="st1" d="M631.3,858.1l4.4,13.6c0.2,0.5,0.7,0.9,1.3,0.9h14.3c1.3,0,1.8,1.6,0.8,2.4l-11.6,8.4
			c-0.5,0.3-0.7,0.9-0.5,1.5l4.4,13.6c0.4,1.2-1,2.2-2,1.5l-11.6-8.4c-0.5-0.3-1.1-0.3-1.6,0l-11.6,8.4c-1,0.8-2.4-0.3-2-1.5
			l4.4-13.6c0.2-0.5,0-1.1-0.5-1.5L608,875c-1-0.8-0.5-2.4,0.8-2.4h14.3c0.6,0,1.1-0.4,1.3-0.9l4.4-13.6
			C629.2,856.9,630.9,856.9,631.3,858.1z"/>
		<path class="st1" d="M542.6,858.1l4.4,13.6c0.2,0.5,0.7,0.9,1.3,0.9h14.3c1.3,0,1.8,1.6,0.8,2.4l-11.6,8.4
			c-0.5,0.3-0.7,0.9-0.5,1.5l4.4,13.6c0.4,1.2-1,2.2-2,1.5l-11.6-8.4c-0.5-0.3-1.1-0.3-1.6,0L529,900c-1,0.8-2.4-0.3-2-1.5l4.4-13.6
			c0.2-0.5,0-1.1-0.5-1.5l-11.6-8.4c-1-0.8-0.5-2.4,0.8-2.4h14.3c0.6,0,1.1-0.4,1.3-0.9l4.4-13.6
			C540.5,856.9,542.2,856.9,542.6,858.1z"/>
		<path class="st1" d="M453.9,858.1l4.4,13.6c0.2,0.5,0.7,0.9,1.3,0.9h14.3c1.3,0,1.8,1.6,0.8,2.4l-11.6,8.4
			c-0.5,0.3-0.7,0.9-0.5,1.5l4.4,13.6c0.4,1.2-1,2.2-2,1.5l-11.6-8.4c-0.5-0.3-1.1-0.3-1.6,0l-11.6,8.4c-1,0.8-2.4-0.3-2-1.5
			l4.4-13.6c0.2-0.5,0-1.1-0.5-1.5l-11.6-8.4c-1-0.8-0.5-2.4,0.8-2.4h14.3c0.6,0,1.1-0.4,1.3-0.9l4.4-13.6
			C451.8,856.9,453.5,856.9,453.9,858.1z"/>
		<path class="st1" d="M365.2,858.1l4.4,13.6c0.2,0.5,0.7,0.9,1.3,0.9h14.3c1.3,0,1.8,1.6,0.8,2.4l-11.6,8.4
			c-0.5,0.3-0.7,0.9-0.5,1.5l4.4,13.6c0.4,1.2-1,2.2-2,1.5l-11.6-8.4c-0.5-0.3-1.1-0.3-1.6,0l-11.6,8.4c-1,0.8-2.4-0.3-2-1.5
			l4.4-13.6c0.2-0.5,0-1.1-0.5-1.5L342,875c-1-0.8-0.5-2.4,0.8-2.4H357c0.6,0,1.1-0.4,1.3-0.9l4.4-13.6
			C363.1,856.9,364.8,856.9,365.2,858.1z"/>
		<path class="st1" d="M276.5,858.1l4.4,13.6c0.2,0.5,0.7,0.9,1.3,0.9h14.3c1.3,0,1.8,1.6,0.8,2.4l-11.6,8.4
			c-0.5,0.3-0.7,0.9-0.5,1.5l4.4,13.6c0.4,1.2-1,2.2-2,1.5l-11.6-8.4c-0.5-0.3-1.1-0.3-1.6,0l-11.6,8.4c-1,0.8-2.4-0.3-2-1.5
			l4.4-13.6c0.2-0.5,0-1.1-0.5-1.5l-11.6-8.4c-1-0.8-0.5-2.4,0.8-2.4h14.3c0.6,0,1.1-0.4,1.3-0.9l4.4-13.6
			C274.4,856.9,276.1,856.9,276.5,858.1z"/>
		<path class="st1" d="M187.8,858.1l4.4,13.6c0.2,0.5,0.7,0.9,1.3,0.9h14.3c1.3,0,1.8,1.6,0.8,2.4l-11.6,8.4
			c-0.5,0.3-0.7,0.9-0.5,1.5l4.4,13.6c0.4,1.2-1,2.2-2,1.5l-11.6-8.4c-0.5-0.3-1.1-0.3-1.6,0l-11.6,8.4c-1,0.8-2.4-0.3-2-1.5
			l4.4-13.6c0.2-0.5,0-1.1-0.5-1.5l-11.6-8.4c-1-0.8-0.5-2.4,0.8-2.4h14.3c0.6,0,1.1-0.4,1.3-0.9l4.4-13.6
			C185.7,856.9,187.4,856.9,187.8,858.1z"/>
	</g>
</g>
</svg>
