<?xml version="1.0" encoding="utf-8"?>
<!-- Generator: Adobe Illustrator 22.0.0, SVG Export Plug-In . SVG Version: 6.00 Build 0)  -->
<svg version="1.1" id="Layer_1" xmlns="http://www.w3.org/2000/svg" xmlns:xlink="http://www.w3.org/1999/xlink" x="0px" y="0px"
	 viewBox="0 0 1080 1080" style="enable-background:new 0 0 1080 1080;" xml:space="preserve">
<style type="text/css">
	.st0{fill:#2B568D;}
	.st1{fill:#D21B30;}
</style>
<g>
	<g>
		<g>
			<path class="st0" d="M218.8,913.1c-0.7,0-1.3,0-2,0c-0.1,0-0.2,0-0.3,0l-44.7-2.5c-0.2,1.8-0.4,3.7-0.6,5.6l40,2.2
				c0.1,0,0.2,0,0.3,0c0.7,0,1.3,0,2,0c12.7,0,23.9-3.9,33.2-11.5c2.6-2.1,4.9-4.3,6.9-6.7c-0.6,0.5-1.1,1-1.6,1.4
				C242.6,909.2,231.5,913.1,218.8,913.1z"/>
			<path class="st0" d="M343.4,1007.8c-9.3,0-18.4-2.5-27.1-7.4c-10.6-6-23-18.7-21.7-44.5c0-0.2,0-0.4,0-0.6
				c8.2-77.7,15.4-158.2,21.4-239.3c0-0.2,0-0.3,0.1-0.5c1.5-12.4,5.7-21.1,10.8-27.4c-7.5,6.2-14.1,16.2-16.1,32.7
				c0,0.2,0,0.3-0.1,0.5c-6,81.1-13.2,161.6-21.4,239.3c0,0.2,0,0.4,0,0.6c-1.4,25.8,11,38.4,21.7,44.5c8.7,4.9,17.8,7.4,27.1,7.4
				c6,0,12.2-1,18.4-3.1c7.8-2.6,14.2-6.9,19.1-12.8c-4,3.3-8.6,5.8-13.8,7.5C355.6,1006.7,349.4,1007.8,343.4,1007.8z"/>
			<path class="st0" d="M116.6,1017c-9.3,0-18.4-2.5-26.8-7.4c-10.7-6-23.1-18.5-22-44.3c0-0.2,0-0.4,0-0.6
				c7.7-79.1,16.7-157.6,26.8-233.3c0.1-0.6,0.1-1.4,0.4-2.4c1.2-10.5,5.1-19.7,11.7-27.4c-0.7,0.6-1.4,1.1-2,1.8
				c0,0-0.1,0.1-0.1,0.1c-8.5,8.4-13.5,18.8-14.9,30.9c-0.2,1-0.3,1.8-0.4,2.4C79.1,812.5,70.1,891,62.4,970.1c0,0.2,0,0.4,0,0.6
				c-1.1,25.7,11.4,38.3,22,44.3c8.5,4.9,17.5,7.4,26.8,7.4c6.1,0,12.3-1.1,18.5-3.2c6.1-2.1,13.2-5.9,19-12.8
				c-4.5,3.7-9.3,6.1-13.7,7.5C128.8,1015.9,122.6,1017,116.6,1017z"/>
			<path class="st0" d="M248.5,797.7c-0.2,0-0.4,0-0.6-0.1l-18.9-2.3l-17.4-2.1l-25.8-3.1c-0.2,1.9-0.5,3.9-0.7,5.9l21.3,2.6
				l17.4,2.1l18.9,2.3c0.2,0,0.4,0,0.6,0.1c1.5,0.1,3.1,0.1,4.6,0.1c18.2,0,29.1-7.3,35.6-15.1c-6.7,5.5-16.4,9.8-30.3,9.8
				C251.6,797.8,250.1,797.8,248.5,797.7z"/>
			<path class="st0" d="M480.9,891.8c6.6-4.8,12.5-10.1,17.9-15.8c-5.7,5.4-12,10.3-18.8,14.8C480.2,891.2,480.5,891.5,480.9,891.8z
				"/>
			<path class="st0" d="M434,773.9c-4.2-1-8.7-1.5-13.3-1.5c-3.5,0-7.1,0.3-10.8,0.9c-0.1,1.6-0.3,3.1-0.4,4.7c2-0.2,4-0.3,5.9-0.3
				c4.7,0,9.1,0.5,13.3,1.5c2.5,0.6,7.7,1.9,6.8,16.1c-1,5.1-2.9,9.4-5.7,13.1c5.9-4.6,9.6-10.7,11-18.4
				C441.7,775.8,436.5,774.5,434,773.9z"/>
			<path class="st0" d="M749.2,789.5c-0.2-0.1-0.4-0.2-0.7-0.2c-13.6-5.6-27.5-10.3-41.3-14c-0.4,1.2-0.8,2.5-1.2,3.7
				c0,0.1-0.1,0.2-0.1,0.4c-0.3,0.7-0.5,1.4-0.8,2.1c5.9,1.6,11.8,3.4,17.6,5.4c1.7,0.5,3.4,1,5.1,1.5c4.2,1.2,8.3,2.5,12.6,3.7
				c0.2,0.1,0.4,0.1,0.5,0.2c3.4,1.2,6.5,2.6,9.4,4.4c4.4,1.1,8.7,1.6,12.8,1.6c11.5,0,21.4-4.1,29.4-12.2c0.8-0.8,1.5-1.6,2.2-2.5
				c-7.4,6.2-16.2,9.4-26.3,9.4C762.3,792.9,755.9,791.7,749.2,789.5z"/>
			<path class="st0" d="M939.7,901.2c-5.2,0-10.5-0.7-15.9-2.2c-0.1,0-0.1,0-0.2-0.1l-3.7-1.1c-6.3-1.9-12.2-3.6-18.3-5.3
				c-0.1,0-0.1,0-0.2-0.1c-3.8-1.1-8-2.4-12.3-3.6c-0.7,2.1-1.4,4.1-2.2,6.2c3.2,0.9,6.3,1.9,9.2,2.7c0.1,0,0.1,0,0.2,0.1
				c6,1.7,12,3.4,18.3,5.3l3.7,1.1c0.1,0,0.1,0,0.2,0.1c5.3,1.4,10.7,2.2,15.9,2.2c6.9,0,13.7-1.3,20.1-3.8
				c6.8-2.7,12.6-6.9,17.3-12.4c-3.6,3-7.6,5.4-12,7.1C953.4,899.9,946.6,901.2,939.7,901.2z"/>
			<path class="st0" d="M887.7,1026.8c-0.2,0-0.3-0.1-0.5-0.1c-26-8.1-52.8-14.4-79.7-18.7c-0.1,0-0.2,0-0.3,0
				c-15.6-2.9-27.6-10.5-35.6-22.8c-8.1-12.3-9.8-26.7-5-42.6c0-0.1,0.1-0.3,0.1-0.4c6.2-17.8,12.4-35.7,18.6-53.5
				c6.2-17.9,12.4-35.8,18.7-53.6c12.5-36.3,25.4-73.2,36.8-105.8c0.5-11.8,4.6-22.2,12-30.9c-1.4,1.2-2.8,2.4-4,3.8
				c-8.2,9-12.7,19.9-13.2,32.4c-11.4,32.7-24.3,69.5-36.8,105.8c-6.2,17.8-12.5,35.7-18.7,53.6c-6.2,17.8-12.4,35.7-18.6,53.5
				c-0.1,0.1-0.1,0.3-0.1,0.4c-4.8,15.9-3.1,30.3,5,42.6c8.1,12.2,20,19.9,35.6,22.8c0.1,0,0.2,0,0.3,0
				c26.8,4.3,53.6,10.6,79.7,18.7c0.2,0.1,0.3,0.1,0.5,0.1c5.6,1.4,10.9,2.2,15.9,2.2c12.9,0,24-4.7,32.9-13.8
				c0.8-0.8,1.5-1.6,2.2-2.4c-8.3,7.2-18.3,10.9-29.8,10.9C898.6,1029,893.3,1028.3,887.7,1026.8z"/>
			<path class="st0" d="M965.5,804.1c-0.2-0.1-0.4-0.2-0.7-0.2c-13.6-5.6-27.5-10.3-41.3-14c-0.4,1.2-0.8,2.5-1.2,3.7
				c0,0.1-0.1,0.2-0.1,0.3c-0.3,0.7-0.5,1.4-0.8,2.1c5.9,1.6,11.8,3.4,17.6,5.4c1.7,0.5,3.4,1,5.1,1.5c4.2,1.2,8.3,2.5,12.6,3.7
				c0.2,0.1,0.4,0.1,0.5,0.2c3.4,1.2,6.5,2.6,9.4,4.4c4.4,1.1,8.7,1.6,12.8,1.6c11.5,0,21.4-4.1,29.4-12.2c0.8-0.8,1.5-1.6,2.2-2.5
				c-7.4,6.2-16.3,9.4-26.3,9.4C978.7,807.6,972.3,806.4,965.5,804.1z"/>
			<path class="st0" d="M671.4,1012.1c-0.2,0-0.3-0.1-0.5-0.1c-26-8.1-52.8-14.4-79.7-18.7c-0.1,0-0.2,0-0.3,0
				c-15.6-2.9-27.6-10.5-35.6-22.8c-8.1-12.3-9.8-26.7-5-42.6c0-0.1,0.1-0.3,0.1-0.4c6.2-17.8,12.4-35.7,18.6-53.5
				c6.2-17.9,12.4-35.8,18.7-53.6c12.5-36.3,25.4-73.2,36.8-105.8c0.5-11.8,4.6-22.2,12-30.9c-1.4,1.2-2.8,2.4-4,3.8
				c-8.2,9-12.7,19.9-13.2,32.4c-11.4,32.7-24.3,69.5-36.8,105.8c-6.2,17.8-12.4,35.7-18.7,53.6c-6.2,17.8-12.4,35.7-18.6,53.5
				c-0.1,0.1-0.1,0.3-0.1,0.4c-4.8,15.9-3.1,30.3,5,42.6c8.1,12.2,20,19.9,35.6,22.8c0.1,0,0.2,0,0.3,0
				c26.8,4.3,53.6,10.6,79.7,18.7c0.2,0.1,0.3,0.1,0.5,0.1c5.6,1.4,10.9,2.2,15.9,2.2c12.9,0,24-4.7,32.9-13.8
				c0.8-0.8,1.5-1.6,2.2-2.4c-8.3,7.2-18.3,10.9-29.8,10.9C682.3,1014.3,676.9,1013.6,671.4,1012.1z"/>
			<path class="st0" d="M478.5,1010.4c-12.2-1.8-22.9-7.2-32.1-16.2c-17-16.8-34.5-33.4-52.2-49.5c-0.3,3.1-0.6,6.2-1,9.3
				c16.3,14.9,32.3,30.1,47.9,45.5c9.1,9,19.9,14.5,32.1,16.2c2.2,0.3,4.3,0.5,6.4,0.5c10.4,0,20.3-3.6,29.5-10.8
				c0.2-0.1,0.4-0.3,0.5-0.4c1.7-1.5,3.2-3.1,4.7-4.8c-9.2,7.2-19.2,10.8-29.5,10.8C482.8,1010.8,480.7,1010.7,478.5,1010.4z"/>
			<path class="st0" d="M723.3,886.5c-5.2,0-10.5-0.7-15.9-2.2c-0.1,0-0.1,0-0.2-0.1l-3.7-1.1c-6.3-1.8-12.2-3.6-18.2-5.2
				c-0.1,0-0.1,0-0.2-0.1c-3.8-1.1-8-2.4-12.3-3.6c-0.7,2.1-1.4,4.1-2.2,6.2c3.2,0.9,6.3,1.9,9.2,2.7c0.1,0,0.1,0,0.2,0.1
				c6,1.7,11.9,3.4,18.2,5.2l3.7,1.1c0.1,0,0.1,0,0.2,0.1c5.3,1.4,10.7,2.2,15.9,2.2c6.9,0,13.7-1.3,20.1-3.8
				c6.8-2.7,12.6-6.9,17.3-12.4c-3.6,3-7.6,5.4-12,7.1C737,885.2,730.3,886.5,723.3,886.5z"/>
			<path class="st0" d="M287.3,734.3c-4.5-12.9-14.8-20.7-31-23.7c-36.8-4.4-73.6-8.7-110.4-13.1c-12.2-1.1-21.7,1.7-28.6,8.4
				c-6.8,6.7-10.7,14.9-11.8,24.8c0,0.2,0,0.5-0.1,0.7c-0.2,0.5-0.3,1-0.3,1.5c-10.4,77.5-19.2,155.2-26.8,233.1
				c-0.7,16.5,4.9,28,16.6,34.6c11.7,6.8,24,7.7,36.7,3.4c12.9-4.3,20.5-14.6,23.1-30.9c2.4-24.6,5.1-49.1,7.7-73.5l54.8,3.1
				c10.8,0.3,20.3-2.6,28.2-9.1c8.1-6.4,12.6-14.9,13.6-25.6c1-10.3-1.9-19.4-8.6-27.8c-6.6-8.3-15.3-12.9-26.1-13.9
				c-11.8-0.8-23.7-1.4-35.7-2.1c-5.8-0.2-11.6-0.6-17.4-1c1.7-14.9,3.6-29.7,5.5-44.5c12.2,1.5,24.3,2.9,36.3,4.4
				c12,1.5,24.3,2.9,36.3,4.4c16.4,1,28.1-4.2,34.7-16C290.4,759.6,291.6,747.3,287.3,734.3z"/>
			<path class="st0" d="M485.4,700.9c-14-9.3-30-14.6-47.8-15.8c-17.9-1.2-35.2,0.2-52.3,4c-11.7-6.6-24.1-7.7-36.7-3.4
				c-12.6,4.3-20,14.7-22.1,31.2c-5.9,79.9-13,159.8-21.4,239.6c-0.9,16.6,4.7,28.1,16.3,34.7c11.7,6.6,24,7.7,36.9,3.4
				c12.9-4.3,20.5-14.6,23.2-31c1.4-13.5,2.9-27.3,4.1-40.8c23.3,20.7,46,42,68.2,63.9c7.6,7.5,16.4,11.9,26.1,13.3
				c9.9,1.4,19.2-1.4,28-8.3c7.6-6.8,12.3-15.5,13.8-26.3c1.5-10.7-1.5-20-8.8-27.8c-16.7-16.6-33.5-32.6-50.7-48.6
				c40-21.2,62-55.1,66.4-102C528.6,751.1,514.1,722.4,485.4,700.9z M451.3,791.3c-2.1,12.3-8.5,21.9-19.5,28.6
				c-11,6.7-23.1,11.4-36,14.2c-0.2,0-0.3,0-0.5,0c-0.5-0.2-0.8-0.2-1.1-0.4c2-23,3.9-46,5.7-69.2c13.5-3.3,25.7-3.5,36.6-0.8
				C447.5,766.3,452.4,775.6,451.3,791.3z"/>
			<path class="st0" d="M701.2,930c-17.8-5.5-35.7-10.3-54-14.5c6.4-18.1,12.7-36.2,18.9-54.1c7.3,2,14.8,4.2,22.1,6.4
				c7.3,2,14.6,4.2,22.1,6.4c10.3,2.8,20.1,2.4,29.3-1.3c9.2-3.7,16-10.7,20.1-21.2c3.4-9.7,3-19.6-0.9-29.5
				c-4.1-9.9-11.3-16.6-21.3-20c-7.8-2.2-15.4-4.6-23.1-6.8c-7.8-2.2-15.4-4.4-23.1-6.6c1.4-4.4,3-8.7,4.6-13.1
				c1.4-4.4,3-8.7,4.6-13.1c17.6,4.1,35,9.8,52.2,16.8c15.7,5.3,28.2,3.3,37.6-6.2c9.4-9.5,13.8-21.1,13.1-34.7
				c-0.7-13.6-8.6-24-23.5-31c-33.6-13.6-68.3-22.7-104.2-27.5c-13.1-1.4-23,1.7-29.9,9.2c-6.9,7.5-10.4,16.6-10.5,27.2
				c-12.5,35.7-25,71.4-37.3,107.3c-12.5,35.7-24.8,71.4-37.3,107.2c-3.9,12.8-2.7,23.9,3.7,33.7c6.4,9.8,15.9,15.8,28.7,18.2
				c27.6,4.4,54.6,10.7,81.2,19c16.1,4.2,28.9,1.2,38.5-8.8c9.6-9.8,14-21.4,13.2-34.5C724.8,945.4,716.7,935.9,701.2,930z"/>
			<path class="st0" d="M953.8,816.9c-7.8-2.2-15.4-4.6-23.1-6.8c-7.8-2.2-15.4-4.4-23.1-6.6c1.4-4.4,3-8.7,4.6-13.1
				c1.4-4.4,3-8.7,4.5-13.1c17.6,4.1,35,9.8,52.2,16.8c15.7,5.3,28.2,3.3,37.6-6.2c9.4-9.5,13.8-21.1,13.1-34.7
				c-0.7-13.6-8.6-24-23.5-31c-33.6-13.6-68.3-22.7-104.2-27.5c-13.1-1.4-23,1.7-29.9,9.2c-6.9,7.5-10.4,16.6-10.5,27.2
				c-12.5,35.7-25,71.4-37.3,107.3c-12.5,35.7-24.8,71.4-37.3,107.2c-3.9,12.8-2.7,23.9,3.7,33.7c6.4,9.8,15.9,15.8,28.7,18.2
				c27.6,4.4,54.6,10.7,81.2,19c16.1,4.2,28.9,1.2,38.5-8.8c9.6-9.8,14-21.4,13.2-34.5c-0.9-13.3-9.1-22.7-24.5-28.6
				c-17.8-5.5-35.7-10.3-54-14.5c6.4-18.1,12.7-36.2,18.9-54.1c7.3,2,14.8,4.2,22.1,6.4c7.3,2,14.6,4.2,22.1,6.4
				c10.2,2.8,20.1,2.4,29.3-1.3c9.2-3.7,16-10.7,20.1-21.2c3.4-9.7,3-19.6-0.9-29.5C971,827,963.8,820.3,953.8,816.9z"/>
		</g>
		<g>
			<path class="st1" d="M305.7,842.2c3.7-41.7,7.2-83.8,10.3-126.1c0-0.2,0-0.3,0.1-0.5c1.5-12.4,5.7-21.1,10.8-27.4
				c-7.5,6.2-14.1,16.2-16.1,32.7c0,0.2,0,0.3-0.1,0.5c-3,40.5-6.3,80.8-9.8,120.8H305.7z"/>
			<path class="st1" d="M80.8,842.2c4.3-37.4,8.9-74.3,13.8-110.7c0.1-0.6,0.1-1.4,0.4-2.4c1.2-10.5,5.1-19.7,11.7-27.4
				c-0.7,0.6-1.4,1.1-2,1.8c0,0-0.1,0.1-0.1,0.1c-8.5,8.4-13.5,18.8-14.9,30.9c-0.2,1-0.3,1.8-0.4,2.4c-4.6,34.6-9,69.8-13.1,105.3
				H80.8z"/>
			<path class="st1" d="M248.5,797.7c-0.2,0-0.4,0-0.6-0.1l-18.9-2.3l-17.4-2.1l-25.8-3.1c-0.2,1.9-0.5,3.9-0.7,5.9l21.3,2.6
				l17.4,2.1l18.9,2.3c0.2,0,0.4,0,0.6,0.1c1.5,0.1,3.1,0.1,4.6,0.1c18.2,0,29.1-7.3,35.6-15.1c-6.7,5.5-16.4,9.8-30.3,9.8
				C251.6,797.8,250.1,797.8,248.5,797.7z"/>
			<path class="st1" d="M434,773.9c-4.2-1-8.7-1.5-13.3-1.5c-3.5,0-7.1,0.3-10.8,0.9c-0.1,1.6-0.3,3.1-0.4,4.7c2-0.2,4-0.3,5.9-0.3
				c4.7,0,9.1,0.5,13.3,1.5c2.5,0.6,7.7,1.9,6.8,16.1c-1,5.1-2.9,9.4-5.7,13.1c5.9-4.6,9.6-10.7,11-18.4
				C441.7,775.8,436.5,774.5,434,773.9z"/>
			<path class="st1" d="M749.2,789.5c-0.2-0.1-0.4-0.2-0.7-0.2c-13.6-5.6-27.5-10.3-41.3-14c-0.4,1.2-0.8,2.5-1.2,3.7
				c0,0.1-0.1,0.2-0.1,0.4c-0.3,0.7-0.5,1.4-0.8,2.1c5.9,1.6,11.8,3.4,17.6,5.4c1.7,0.5,3.4,1,5.1,1.5c4.2,1.2,8.3,2.5,12.6,3.7
				c0.2,0.1,0.4,0.1,0.5,0.2c3.4,1.2,6.5,2.6,9.4,4.4c4.4,1.1,8.7,1.6,12.8,1.6c11.5,0,21.4-4.1,29.4-12.2c0.8-0.8,1.5-1.6,2.2-2.5
				c-7.4,6.2-16.2,9.4-26.3,9.4C762.3,792.9,755.9,791.7,749.2,789.5z"/>
			<path class="st1" d="M801.6,842.2c0.8-2.4,1.6-4.7,2.5-7.1c12.5-36.3,25.4-73.2,36.8-105.8c0.5-11.8,4.6-22.2,12-30.9
				c-1.4,1.2-2.8,2.4-4,3.8c-8.2,9-12.7,19.9-13.2,32.4c-11.4,32.7-24.3,69.5-36.8,105.8c-0.2,0.6-0.4,1.2-0.6,1.8H801.6z"/>
			<path class="st1" d="M965.5,804.1c-0.2-0.1-0.4-0.2-0.7-0.2c-13.6-5.6-27.5-10.3-41.3-14c-0.4,1.2-0.8,2.5-1.2,3.7
				c0,0.1-0.1,0.2-0.1,0.3c-0.3,0.7-0.5,1.4-0.8,2.1c5.9,1.6,11.8,3.4,17.6,5.4c1.7,0.5,3.4,1,5.1,1.5c4.2,1.2,8.3,2.5,12.6,3.7
				c0.2,0.1,0.4,0.1,0.5,0.2c3.4,1.2,6.5,2.6,9.4,4.4c4.4,1.1,8.7,1.6,12.8,1.6c11.5,0,21.4-4.1,29.4-12.2c0.8-0.8,1.5-1.6,2.2-2.5
				c-7.4,6.2-16.3,9.4-26.3,9.4C978.7,807.6,972.3,806.4,965.5,804.1z"/>
			<path class="st1" d="M580.2,842.2c2.5-7.3,5.1-14.6,7.6-21.8c12.5-36.3,25.4-73.2,36.8-105.8c0.5-11.8,4.6-22.2,12-30.9
				c-1.4,1.2-2.8,2.4-4,3.8c-8.2,9-12.7,19.9-13.2,32.4c-11.4,32.7-24.3,69.5-36.8,105.8c-1.9,5.5-3.8,11-5.7,16.5H580.2z"/>
			<path class="st1" d="M251.9,842.2c-0.5-0.7-1-1.5-1.6-2.2c-6.6-8.3-15.3-12.9-26.1-13.9c-11.8-0.8-23.7-1.4-35.7-2.1
				c-5.8-0.2-11.6-0.6-17.4-1c1.7-14.9,3.6-29.7,5.5-44.5c12.2,1.5,24.3,2.9,36.3,4.4c12,1.5,24.3,2.9,36.3,4.4
				c16.4,1,28.1-4.2,34.7-16c6.6-11.6,7.7-23.8,3.4-36.9c-4.5-12.9-14.8-20.7-31-23.7c-36.8-4.4-73.6-8.7-110.4-13.1
				c-12.2-1.1-21.7,1.7-28.6,8.4c-6.8,6.7-10.7,14.9-11.8,24.8c0,0.2,0,0.5-0.1,0.7c-0.2,0.5-0.3,1-0.3,1.5
				c-4.9,36.4-9.4,72.9-13.6,109.4H251.9z"/>
			<path class="st1" d="M512.1,842.2c9.1-15.8,14.6-34.2,16.5-55.2c0-35.9-14.5-64.6-43.2-86.1c-14-9.3-30-14.6-47.8-15.8
				c-17.9-1.2-35.2,0.2-52.3,4c-11.7-6.6-24.1-7.7-36.7-3.4c-12.6,4.3-20,14.7-22.1,31.2c-3.1,41.8-6.5,83.5-10.3,125.3H512.1z
				 M399.9,764.4c13.5-3.3,25.7-3.5,36.6-0.8c10.9,2.7,15.9,12,14.8,27.7c-2.1,12.3-8.5,21.9-19.5,28.6c-11,6.7-23.1,11.4-36,14.2
				c-0.2,0-0.3,0-0.5,0c-0.5-0.2-0.8-0.2-1.1-0.4C396.1,810.6,398.1,787.6,399.9,764.4z"/>
			<path class="st1" d="M761.8,842.2c0.6-6.6-0.4-13.3-3-20c-4.1-9.9-11.3-16.6-21.3-20c-7.8-2.2-15.4-4.6-23.1-6.8
				c-7.8-2.2-15.4-4.4-23.1-6.6c1.4-4.4,3-8.7,4.6-13.1c1.4-4.4,3-8.7,4.6-13.1c17.6,4.1,35,9.8,52.2,16.8
				c15.7,5.3,28.2,3.3,37.6-6.2c9.4-9.5,13.8-21.1,13.1-34.7c-0.7-13.6-8.6-24-23.5-31c-33.6-13.6-68.3-22.7-104.2-27.5
				c-13.1-1.4-23,1.7-29.9,9.2c-6.9,7.5-10.4,16.6-10.5,27.2c-12.5,35.7-25,71.4-37.3,107.3c-2.1,6.1-4.3,12.2-6.4,18.4H761.8z"/>
			<path class="st1" d="M976.8,842.2c-0.5-1.8-1-3.5-1.7-5.3c-4.1-9.9-11.3-16.6-21.3-20c-7.8-2.2-15.4-4.6-23.1-6.8
				c-7.8-2.2-15.4-4.4-23.1-6.6c1.4-4.4,3-8.7,4.6-13.1c1.4-4.4,3-8.7,4.5-13.1c17.6,4.1,35,9.8,52.2,16.8
				c15.7,5.3,28.2,3.3,37.6-6.2c9.4-9.5,13.8-21.1,13.1-34.7c-0.7-13.6-8.6-24-23.5-31c-33.6-13.6-68.3-22.7-104.2-27.5
				c-13.1-1.4-23,1.7-29.9,9.2c-6.9,7.5-10.4,16.6-10.5,27.2c-12.5,35.7-25,71.4-37.3,107.3c-0.4,1.2-0.8,2.4-1.3,3.7H976.8z"/>
		</g>
	</g>
	<g>
		<path class="st0" d="M733.6,267.1c-0.5-0.2-1.1-0.2-1.6-0.3c-5.1-0.7-8.1-3.8-9.8-8.5c-1-3-1.4-6-1.3-9.2
			c0.2-20.1-0.7-40.2-1.2-60.3c-0.7-31.2-0.6-62.3,0.4-93.5c0.2-6.7,0.4-13.5,1.3-20.2c0.5-3.6,1.4-7.1,3.1-10.4
			c1.2-2.5,3-4.1,6.1-3.6c1.3,0.2,2.7,0.4,3.9-0.4c0.6-1.8-0.5-2.8-1.6-3.8c-3-2.7-6.4-4.7-10.3-5.3c-6.4-1.1-12.9-1-19.3,0.2
			c-5.4,1-10.2,3.2-14.1,7.1c-1.9-1.1-3.5-2.1-5.1-3c-7.9-4.5-16.2-4.7-24.7-2.3c-1.6,0.4-3.1,1-4.2,2.3c-1.3,1.6-0.8,3.1,1.1,3.7
			c0.9,0.3,1.9,0.4,2.8,0.6c4.5,1.3,7.5,4.2,8.8,8.7c0.8,2.9,1,5.8,0.7,8.8c-1,7.7-2.8,15.1-4.9,22.5c-11.3,38.8-24.7,77-37,115.6
			c-0.2,0.6-0.3,1.3-1.3,1.2c-0.4-0.7-0.8-1.3-1.1-2.1c-1.3-3-2.7-5.9-3.9-8.9c-16.3-43-30.2-86.8-42.5-131.2
			c-0.4-1.4-0.6-2.9-0.7-4.4c-0.4-5.8,4-8.7,9.3-6.2c1.2,0.6,2.2,1.6,3.9,0.8c0.8-3.3-0.8-5.9-2.8-8.3c-2.3-2.8-5.5-4.3-9-5.2
			c-9-2.3-18.1-2.5-27.2-0.3c-5.4,1.3-10,4-14.4,7.2c-4-2.9-8.5-4.3-13.2-5c-3.9-0.6-7.8-0.8-11.6,0.7c-4.5,1.8-6.6,5.8-5.3,10.2
			c0.4,0,0.8,0.1,1.2,0c7.5-3.6,10.8,0.5,12.2,6.8c0.3,1.2,0.5,2.4,0.7,3.6c1,5.7,1.4,11.5,1.5,17.3c0.3,23.7,0.8,47.5,1,71.2
			c0.1,24.3,0.4,48.6-1,72.9c-0.3,4.8-0.7,9.7-1.6,14.5c-0.4,2.3-1.5,4-3.4,5.3c-2.6,1.8-5.3,3.1-8.3,4c-1.3,0.4-3.1,0.3-3.5,2.3
			c1,1.8,2.7,2.1,4.5,2.2c8.5,0.6,16.7,0.1,23.4-6.2c3.3,3.3,7.3,4.6,11.4,5.4c7.5,1.4,9.5,1.2,11.7-1c-0.3-1.8-2-2-3.3-2.6
			c-5.7-3-8.8-7.4-8.3-14c0.1-0.9,0-1.9,0-2.8c0.2-21.1,0.5-42.1,0.7-63.2c0.2-18.5,0.2-37,0.4-55.5c0-3.6-0.2-7.2,0.7-11.4
			c1.9,2.5,2.8,4.8,3.8,7.1c10.4,25.2,20.3,50.5,27.7,76.8c3,10.6,6.3,21.2,9.3,31.8c1.8,6.2,3.1,12.6,3.6,19.1
			c0.4,5.1-1.4,8.9-5.8,11.6c-1.3,0.8-3,1.4-3.7,3.4c2.5,1.5,5.3,1.5,8.1,1.6c6.8,0.4,12.7-1.6,17.9-5.9c3.7,3,7.6,5.2,11.9,6.5
			c8,2.4,16.2,2.3,24.5,1.5c1.6-0.2,3.2-0.7,4.6-1.4c2-1,3.6-2.4,3.4-5c-0.6-0.7-1.5-0.7-2.2-0.9c-4.9-1.6-6.7-4.1-6.8-9.3
			c0-1.5,0.1-3,0.2-4.4c0.4-9.6,2.5-19,5-28.2c8.8-33.4,19.9-66.1,31.1-98.7c0.2-0.7,0.2-1.7,1.2-1.9c0.7,0.6,0.4,1.5,0.4,2.2
			c0.1,22.7,0.1,45.3,0.1,68c0,10.4-0.2,20.8-0.1,31.2c0.1,9.9,0,19.7-1.6,29.5c-0.6,3.9-1.5,7.7-3.4,11.2c-1.5,2.7-3.5,4.4-6.8,4
			c-1-0.1-2.2-0.3-3.1,1c1,3,3.8,4,6.5,4.5c9.7,1.8,19.2,2.6,26.1-6.5c0.6,0.4,1,0.6,1.3,0.8c8.3,7.9,18.7,9.6,29.6,9.9
			c1.6,0.1,3.3-0.3,4.6-1.3C735.9,269.8,735.6,267.9,733.6,267.1z"/>
		<path class="st0" d="M320,265.7c-5,1.8-8.9,0.5-11.8-3.9c-1.5-2.3-2.3-4.8-3-7.5c-1.5-6.1-2.1-12.2-2.4-18.4
			c-1-23.9-0.4-47.8-0.7-71.6c0-0.8-0.5-1.9,0.9-2.5c2.9,1.7,4.8,4.2,5.3,7.6c0.2,1.3,0.1,2.8,1.8,3.2c1.8,0.5,2.8-0.7,3.7-1.9
			c2.8-3.4,4.8-7.2,5.9-11.4c1.5-5.7,0-10.6-3.9-15c-3.1-3.4-7-5.4-11.3-6.9c-1-0.3-2.2-0.3-2.9-1.5c-0.1-0.3-0.2-0.7-0.2-1.1
			c-0.4-16.3-0.2-32.7,1.3-48.9c0.6-6.4,1.6-12.8,3.8-19c1.6-4.2,4.2-6.8,8.9-6.7c1.7,0,3.5-0.2,4.9-1.4c0.4-2-0.8-3.2-2.1-4.1
			c-5.5-3.8-11.4-6.1-18.2-5.3c-6.5,0.7-12.1,3.4-17.3,7.3c-0.7-0.3-1.4-0.5-2-0.8c-4.9-2.4-10.1-3.7-15.5-4.1
			c-4-0.2-7.8,0.2-11.4,2c-2.1,1.1-4.2,2.3-4.6,5c1.3,1.5,2.8,1.3,4.3,1.3c3.8,0,6.7,1.8,8.9,4.7c1.6,2.2,2.7,4.7,3.5,7.2
			c1.4,4.5,2.3,9.2,2.5,13.9c1,18.1,0.6,36.2,0.8,54.2c0,0.4-0.2,0.8-0.3,1.3c-9.6,4.1-18.7,9.4-28.1,14c-6.9,3.4-14.1,6.2-21.6,8
			c-0.9,0.2-1.8,0.7-2.8-0.1c-0.6-6.2-0.5-12.5-0.6-18.8c-0.2-17.4-0.6-34.8,0.8-52.2c0.6-7.3,1.3-14.5,3.3-21.6
			c0.9-3.1,2.1-6.1,4.3-8.6c1.5-1.8,3.3-2.6,5.6-2.6c1.6,0,3.2,0.5,4.9-0.4c0.3-2.2-1.2-3.5-2.7-4.5c-6.5-4.5-13.5-6.4-21.4-4.4
			c-5.1,1.3-9.4,3.9-13.6,7c-4.3-2.2-8.7-4-13.4-4.7c-4-0.6-8.1-0.9-12,0.3c-3.5,1.1-4.9,3.1-4.9,6.2c0.9,0.8,2,0.6,3.1,0.6
			c4.6,0,7.6,2.3,9.6,6.3c1.2,2.3,1.9,4.7,2.4,7.3c1,4.8,1.5,9.6,1.5,14.5c0.3,24.2,0.5,48.3,0.6,72.5c0,1.4,0.4,3-0.5,4.3
			c-1.6,0.4-3,0-4.5-0.2c-1.7-0.2-3.5-0.3-5.2-0.5c-1.3-0.1-2.4,0.3-3,1.6c-0.6,1.3-0.6,2.6,0.6,3.7c1.7,1.6,3.5,2.9,5.6,3.9
			c2.2,1,4.4,1.9,6.7,2.9c0.7,3.3,0.1,6.5,0.1,9.7c-0.1,23.9-0.2,47.8-2,71.6c-0.5,6.3-1.2,12.6-2.4,18.8c-0.7,3.5-2.5,6.1-5.7,7.9
			c-2.2,1.2-4.6,2-6.9,3.1c-0.6,2.6,0.8,3.9,2.7,4.9c3.8,1.9,7.8,2.3,11.8,1.4c7.5-1.7,14.2-4.9,19.9-10.3c0.6-0.6,1-1.7,2.3-1.5
			c0.6,0.5,1.1,1.1,1.7,1.6c8.8,7.6,21.1,7.1,29.2-1.3c1.8-1.9,3.2-4,2.6-6.8c-1.3-0.5-2-0.1-2.8,0.2c-5,2.1-8.9,1-11.8-3.6
			c-1.8-2.9-2.7-6.2-3.4-9.5c-1.6-7.8-2.1-15.8-2.3-23.7c-0.3-19.3-0.3-38.6-0.4-57.9c0-1.2-0.3-2.5,0.7-3.6
			c17.6-2.6,34.6-8.3,52.2-13.1c0,1.9,0,3.2,0,4.5c0,8.4,0,16.7-0.1,25.1c-0.1,19.3-0.7,38.6-2.5,57.8c-0.4,4.7-1.1,9.4-2.3,14
			c-0.7,2.8-2.2,4.8-4.7,6.2c-2.5,1.3-5.1,2.3-7.8,3.1c-0.6,2.7,0.9,4,2.8,4.9c4.2,2,8.5,2.4,13,1.4c7.7-1.8,14.8-4.9,20.5-10.6
			c1.1,1,2.1,1.9,3.1,2.7c9.6,7.6,20.9,5.1,27.9-0.7c2.1-1.7,3.7-3.8,3.1-6.7C321.7,264.8,320.9,265.4,320,265.7z"/>
		<path class="st0" d="M479.9,78.7c-16.4-21.7-37.8-33.8-65.5-33c-21,0.6-38.4,8.6-52.1,24.7c-8.3,9.8-14.1,21.1-18.2,33.2
			c-10.8,31.9-11.7,64.3-4.4,97c3.5,15.7,9.3,30.4,19,43.4c8.5,11.5,19.2,20,33,24.4c9.8,3.2,19.8,3.7,30,2.6
			c15.4-1.7,29.3-7,41.2-17.1c11.6-9.8,19.6-22.2,25.5-36c9.1-21.6,12.7-44.2,13.1-67.5c0.1-8-0.5-15.9-1.8-23.8
			C496.6,109.1,490.6,92.9,479.9,78.7z M463,157c-0.4,15.6-1.7,35-7.1,53.8c-2.6,9-6,17.6-11.6,25.2c-5.3,7.3-12.1,12.5-21,14.9
			c-9.3,2.4-17.3,0.4-24.4-5.9c-4.8-4.3-8.3-9.5-11.2-15.2c-5.4-10.7-8.4-22.1-10.4-33.9c-2.9-16.8-3.7-33.8-3.1-50.8
			c0.6-16.4,3.2-32.4,9.6-47.7c3.4-8.1,7.8-15.7,14.3-21.8c5.2-5,11.2-8.3,18.5-9.1c5.2-0.5,9.9,0.6,14.3,3.2
			c6.1,3.5,10.9,8.4,14.9,14c7.3,10.2,11.4,21.6,14,33.7C462.4,129.2,463.2,141.2,463,157z"/>
		<path class="st0" d="M898,278.4c3.9-6.3,4.9-13.3,4.2-20.6c-1.3-13.3-9.2-22.7-21.8-25.4c-2.6-0.6-5.2-0.9-8.1-0.2
			c0.2,1.7,1.1,2.7,1.9,3.7c1.7,2.4,2.4,5.1,2.3,8c-0.2,7-2.9,12.8-8.1,17.5c-3.9,3.5-8.4,5.8-13.5,7c-16,3.9-30.5,0.1-43.7-9.2
			c-5.9-4.1-8.9-10.3-10.4-17.3c-1-5-1.3-10.2-1.5-15.3c-0.7-19.7,0.6-39.4,0.9-59.1c0-1.2-0.1-2.4,0.9-3.6
			c5.7,0.2,11.4,1.1,17.1,2.3c5.7,1.2,11.2,2.9,16.2,6.1c6.3,4.2,7.3,8.4,3.6,15c-1.3,2.4-0.6,3.9,2.1,4.1c3.6,0.4,7-0.5,10.1-2.3
			c7.3-4.3,11.7-10.7,13.1-19c2.1-12.3-5-23-17.2-25.8c-5.5-1.3-11-1.1-16.5-0.4c-7.6,1.1-14.9,3.7-22.3,5.6
			c-2.3,0.6-4.6,1.5-7.6,1.2c0-1,0-1.7,0-2.3c0.4-21.5,0.9-42.9,1-64.4c0-5.1,2.1-7.8,6.3-9.5c1.4-0.6,2.8-1.1,4.2-1.5
			c4.8-1.5,9.8-1.4,14.8-1.9c8.7-0.8,16.2,1.9,23,7.2c2.4,1.9,4.8,3.9,7.1,6c5.3,5,10,10.5,13,17.2c2.7-0.9,2.8-0.9,4-2.2
			c4.4-4.9,7-10.5,7.1-17.2c0-1.3-0.5-2.7,0.3-3.9c13.2-1.6,23.3-10.4,25.9-22.6c0.5-2.3,0.6-4.5,0.1-6.8c-0.2-1.1-0.7-2.1-1.9-2.4
			c-1.4-0.3-2.5,0.2-3,1.5c-0.7,1.8-2.3,2.6-3.7,3.6c-3,2.1-6.4,3.5-9.9,4.4c-8.1,2.1-16.3,2.3-24.5,1.2c-7.9-1-15.6-3.2-23.3-4.9
			c-11-2.4-22.1-3.7-33.3-2c-9.9,1.5-19.5,4.4-28.6,8.4c-3,1.3-5.2,1.4-8.1-0.6c-6-4.1-12.9-5.4-20.1-3.8c-1.8,0.4-3.7,0.8-4.3,3.3
			c6.1,2.5,8.5,7.7,10.6,13.2c0.6,1.6,1.1,3.3,1.6,5c2,7.2,3.1,14.5,3.9,21.9c1.9,16.5,1.9,33.1,1.9,49.7c0,1,0.3,2.1-0.6,3
			c-8.8-2.6-8.8-2.6-10.9-0.7c3,3.7,7.4,5.7,11.1,8c0.1,0.6,0.2,0.8,0.2,1.1c-0.1,23.8-0.1,47.5-0.4,71.3
			c-0.1,8.4-0.8,16.7-2.9,24.9c-1.6,6.1-3.9,11.8-9.4,15.6c-1,0.7-2.3,1.6-1.8,3.5c1.8,1.1,4,1.1,6.1,1c7.7-0.6,15.3-2.1,22.3-5.3
			c3-1.4,5.3-1.1,8.1,0.5c12.8,7.3,26,13.6,40.2,17.8c7.7,2.3,15.5,3.5,23.6,2.5c4.4-0.5,8.8-1.1,13.2-2c12.4-2.4,23.9-0.6,34.3,6.9
			c2,1.4,3.9,2.9,5.5,4.7c0.7,0.8,1.5,1.7,2.7,1.1c1.2-0.6,1.2-1.8,1.1-2.8c0-1.8-0.3-3.5-0.8-5.2C904,288.2,901.6,283.1,898,278.4z
			"/>
	</g>
	<g>
		<path class="st0" d="M372,504.7c-6.5,6.1-19.2,18.2-31.8,21.5c-6.5,1.9-14.5,1.4-32.3-1.4c-0.5,0-0.9-0.5-0.9-1.9
			c26.2-17.8,42.6-41.6,53.3-71.1c48.3-131.2-88.6-162.7-112.6,56.2c-2.8,3.1-4.4,8-5.7,12.1c-0.6,2.2-3.3,6.2-6.9,10.6
			c-4.2,2.1-9.2,5.8-14.5,14.6c-4.3,3.5-8.7,6.2-12.2,7.1c0.5-3.3,1.9-7,2.3-8.9c7.5-51,6.1-108-21.5-150.1
			c-8.4-13.1-19.2-20.1-33.7-23.4c-20.1-3.7-33.2,4.2-46.3,21c-49.6,62.2-71.6,220.7-6.5,271.2c25.7,20.1,59.4,15.4,82.8-30.9
			c16.8-34.1,11.7-44.4,21-45.4c7.3-0.6,23.1-8.1,36.1-22.3c0.4-0.2,0.8-0.4,1.3-0.6c1.4,2.3,0.9,4.7,0.9,7c0.5,23.4,4.7,51,15,84.6
			c4.7,14.5,12.6,18.7,20.6,18.7c28.5,0,15.9-46.8,14-65c-0.9-9.8-1.9-22.9-2.3-42.6c0-4.2-0.5-7,3.3-6.5
			c20.6,1.4,39.8,3.3,59.9-9.4c6.1-4.2,24.3-17.8,29.9-24.3C399.6,509.9,382.3,495.4,372,504.7z M172.3,529.1c0,0.5-0.5,0.9-0.5,1.4
			c-1.4,0.5-2.3-0.5-3.7-0.9c-10.8-4.7-21.5,5.6-16.8,22c5.6,21,15,19.6,12.6,27.6c-3.7,15-10.3,37.4-20.6,48.2
			c-10.3,9.8-19.2,2.8-25.3-10.3c-21-44.9,6.5-208.6,32.3-208.6C166.7,408.4,175.6,487.4,172.3,529.1z M296.3,488.8
			c0-1.4,0-2.3,0-3.3c4.2-27.6,15-83.7,37.4-98.7c3.7,7.5,2.8,22.4,1.4,30.4C326.7,460.8,300.9,487.4,296.3,488.8z"/>
		<path class="st0" d="M996.9,511.3C990.8,528.6,940.3,638,902,638c-32.7,0-41.6-34.6-39.8-73.9c0.5-4.7,0.5-4.7,5.1-3.7
			c39.8,7.5,102.4-38.3,113.6-128.1c4.2-35.1-9.8-64.5-50.5-64.5c-53.7,0-97.1,68.9-111.8,141.3c-0.3,0.5-0.6,0.9-0.9,1.4
			c-3.3,6.5-50,120.2-59.9,120.2c-9.8,0,22.9-118.8,3.3-153.4c-8.4-15-24.8-19.6-40.2-11.2c-19.2,10.8-35.1,38.3-45.4,56.6
			c0,0,25.7-144,22-159c-4.7-16.8-23.9-20.6-34.1-6.1c-10.4,14.5-23.5,71-32.8,131.9c-14.8,34.6-46.1,117.6-67.9,139.9
			c-4,4-4.5,4-7.4-1.1c-3.4-6.8-5.1-14.2-5.1-22.1c-2.8-48.2,4-143,7.4-181c1.1-10.2,0-6.8,24.4-9.1c7.4-0.6,14.2-1.1,20.4-4
			c20.4-9.1,17.6-35.8-4-40.3c-3.4-0.6-6.8-0.6-10.2-0.6c-24.4,0-25.5,5.1-25-3.4c0-5.7,3.4-30.6,2.8-48.8c0-17.6-4-36.3-22.7-37.5
			c-17-1.1-23.3,12.5-27.8,27.8c-19.9,73.8-8.5,69.2-21.6,70.9c-10.8,2.3-21.6,4-32.3,5.7c-11.9,2.3-21,9.1-19.9,20.4
			c1.7,10.8,11.4,14.8,22.1,15.3c34,0.6,31.8-1.7,30.6,8.5c-7.4,77.7-6.2,80.6-6.2,112.9c0,19.9,2.3,39.7,6.2,59.6
			c8.5,42,42.6,86.3,80,65.8c17-9.6,31.8-32.3,38.6-50.5c1.5-3.8,3.5-8.6,5.7-14.1c-0.9,27.2,0.5,48.5,5.2,57.7
			c7.5,15,27.1,16.4,36.9,2.8c9.8-14,51-144,60.8-144c9.8,0-12.2,102.9,2.3,135.6c10.8,23.4,41.2,23.4,59.9-2.8
			c8.2-11.8,20.3-36.2,31.4-61.4c7.5,46.6,33.2,82,84.1,82c61.3,0,100.5-90.3,119.3-154.3C1024,501,1001.6,498.2,996.9,511.3z
			 M871.6,515.5c0.5-3.7,11.7-33.2,25.7-58.5c8-13.6,23.9-35.5,38.3-41.6c2.8,6.1,2.3,11.2,1.9,16.8
			C927.2,504.3,868.3,532.3,871.6,515.5z"/>
	</g>
	<g>
		<path class="st1" d="M999.8,225.9c-3.9-4.3-8.6-7.8-13.8-10.5c-12.2-6.1-24.1-5.7-35.9,1.1c-3.9,2.3-6.8,5.4-7.5,10
			c-1,7,1.3,12.8,7.1,17c5.4,3.9,10.8,3.2,16.2-0.2c3.6-2.3,7.4-2.3,11.3-0.9c3,1.1,5.5,2.8,7.9,4.9c10.8,9.7,15.5,21.8,14,36.2
			c-0.7,6.5-2.8,12.6-6.6,18c-0.3-0.2-0.4-0.2-0.5-0.3c-0.8-0.8-0.8-2-1.2-3c-2.7-7.2-7.5-12.8-14.2-16.5c-6.3-3.5-13-4.5-19.9-2.6
			c-6,1.7-9.5,7.1-8.5,13.4c0.8,5.4,5.7,9.2,11.6,9.2c3,0,5.5-1,7.7-3.1c1.9-1.8,4.2-1.7,6.4-0.9c4,1.5,6.9,5.9,6.7,10.2
			c-0.2,3.9-4.6,12.2-7.8,14.5c-8.4,6.1-17.6,10.5-27.6,13.1c-24.7,6.5-49.6,6.4-74.7,2.8c-16.9-2.4-33.3-6.5-49.6-11.4
			c-21.8-6.6-43.5-13.5-65.3-20.1c-25.9-7.8-52.3-13-79.2-15.7c-20.5-2-41-2.4-61.5-0.8c-5,0.4-10.1,0.4-15.5,1.8
			c4.7,2.9,8.9,5.4,13.2,8c0.7,0.4,1.5,0.5,2.3,0.6c6.8,0.8,13.7,1.6,20.5,2.4c16.6,2,33.1,4.4,49.6,7.7
			c21.7,4.4,42.6,11.7,63.7,18.3c1.2,0.4,2.2,0.9,3.1,1.8c5.3,6.1,9.3,12.9,10.3,21.1c0.4,3.3,0.7,6.6,1,10.2
			c7.8-1.7,15.2-0.3,23.1,1.3c-0.4-9.6-3.9-17.6-9.1-25.3c0.8-0.1,1.1-0.2,1.4-0.2c14.2,4,28.6,6.5,43.1,9.2c24.8,4.6,49.6,9,75,9.7
			c19.1,0.5,38-0.9,56.4-6.8c18.7-6.1,35.2-15.6,48.2-30.6c10.4-12.1,17.1-26,18.4-41.9C1021.1,257.5,1013.3,240.5,999.8,225.9z"/>
		<path class="st1" d="M489.9,293c-13.1-1.8-26.3-3-39.5-3.3c-37.6-1.1-74.5,3.8-110.9,13.2c-21.7,5.6-42.9,12.8-64.2,19.4
			c-23.4,7.3-47,14.1-71.5,17c-19.8,2.4-39.6,2.3-59.2-1.4c-12.6-2.4-24.4-6.6-35.1-13.9c-5.2-3.5-7.4-8.6-9.5-14
			c-0.4-1.1-0.4-2.4-0.3-3.6c0.5-3.9,2.7-6.7,6.2-8.4c3.1-1.5,5.5-0.4,8.1,1.6c3.9,3,8.3,2.9,12.6,0.6c4.2-2.3,6-6.1,5.6-10.8
			c-0.4-4.8-2.9-8.1-7.4-9.8c-3.6-1.4-7.3-1.8-11.1-1.2c-11.7,1.9-19.5,8.6-24,19.4c-0.5,1.2-0.4,2.7-1.6,3.6
			c-0.7-0.2-1-0.9-1.3-1.4c-9.4-16.1-8.2-39.5,10-53.9c1.4-1.1,2.9-2,4.4-2.8c4.6-2.4,9.3-2.6,13.8,0.3c1.5,0.9,3.1,1.7,4.8,2.1
			c6.6,1.5,13.1-2,16.4-8.9c3.4-7.1,2-14.6-3.9-18.9c-7.2-5.2-15.4-7.6-24.4-6.7c-8.2,0.8-15.3,4.2-21.6,9.3
			c-10.9,8.8-18.1,20.2-22.5,33.4c-2.8,8.4-4,17.1-2.7,25.9c2.5,16.6,9.7,31,21.4,43.1c12.5,13,27.8,21.6,44.9,27.1
			c23.3,7.5,47.2,7.9,71.3,6.1c15.1-1.1,30-3.4,44.9-6.1c17.6-3.2,35.3-6.1,52.7-10.5c2.2-0.6,4.3-1.5,6.6-1.4c0,0.3,0,0.4,0,0.5
			c-0.6,1-1.2,2.1-1.8,3.1c-3.4,5.5-5.6,11.3-6.5,17.5c8.6-8.5,17.6-14,26.5-16.8c1.6-3.7,3.8-7.2,6.6-10.4c1.1-1.2,2.2-2.3,3.8-2.9
			c14.9-4.7,29.7-9.8,44.8-13.8c29.5-7.9,59.8-11.3,90.1-14.6c7.9-0.9,15.8-1.8,23.7-2.7c4-0.5,5.3-1.2,4.9-2.9
			C494.3,292.4,491.6,293.3,489.9,293z"/>
		<path class="st1" d="M908.3,183.3c9.9-0.8,19.7-1.6,29.6-2.3c7.6-0.6,15-1.9,22.1-4.6c3.1-1.2,5.6-2.9,7.7-5.4
			c1.9-2.3,2.5-5.1,2.4-8c-0.1-3.4-2.5-6.1-6.3-7.2c-4.2-1.2-8.5-0.8-12.6,0.1c-4.2,0.9-8.3,2.2-12.9,3.4c0.5-0.8,0.9-1.4,1.1-2
			c1.7-3.5,3.5-6.9,4.9-10.6c1.4-3.7,1.3-7.6,0.3-11.5c-2.1-7.7-10.1-10.3-16.5-5.6c-3.1,2.3-5.5,5.2-7.4,8.4
			c-7.6,12.4-11.8,26-13.7,40.3c-0.2,1.6,0,3.2-0.1,4.9C907.6,183.2,907.9,183.3,908.3,183.3z"/>
		<path class="st1" d="M86.2,157.2c11.7,8.7,24.8,14,38.9,17.2c1.6,0.4,3.2,0.3,4.9,0.5c0.1-0.6,0.2-1,0.2-1.3
			c0.1-9.9,0.1-19.8,0.3-29.7c0.1-7.6-0.6-15.1-2.6-22.4c-0.9-3.2-2.4-5.9-4.7-8.2c-2.2-2.1-4.8-3-7.7-3.1c-3.4-0.2-6.3,2-7.8,5.6
			c-1.6,4.1-1.6,8.3-1,12.6c0.6,4.3,1.4,8.5,2.2,13.1c-0.8-0.5-1.3-1-1.8-1.3c-3.3-2-6.6-4.1-10.1-5.8c-3.6-1.7-7.5-2-11.4-1.3
			c-7.9,1.4-11.2,9.1-7,15.9C80.4,152.3,83.1,154.9,86.2,157.2z"/>
	</g>
</g>
</svg>
