<?xml version="1.0" encoding="utf-8"?>
<!-- Generator: Adobe Illustrator 22.0.0, SVG Export Plug-In . SVG Version: 6.00 Build 0)  -->
<svg version="1.1" id="Layer_1" xmlns="http://www.w3.org/2000/svg" xmlns:xlink="http://www.w3.org/1999/xlink" x="0px" y="0px"
	 viewBox="0 0 1080 1080" style="enable-background:new 0 0 1080 1080;" xml:space="preserve">
<style type="text/css">
	.st0{fill:#CE432C;}
	.st1{fill:#2A4F7B;}
</style>
<g>
	<g>
		<g>
			<path class="st0" d="M383.6,432c0.8,2.4,1.5,4.7,2,7.1c0.5,2.3,0.9,4.7,1.4,7.1c0.7,3.8,1.1,7.6,1.3,11.4
				c0.1,3.8,0.2,7.7,0.2,11.6c0,2.1-0.1,4.2-0.3,6.3c-0.2,2.1-0.5,4.2-0.7,6.1c-1.3,7.7-3.4,15.1-6.3,21.9c-1,2.4-2,4.7-3.1,7
				c-1.1,2.3-2.4,4.4-3.9,6.5c-5.2,7.6-11.8,13.5-19.8,17.7c-1.1,0.6-2.2,1.1-3.3,1.5c-1.1,0.4-2.1,0.8-3.3,1.3
				c-0.8,0.3-1.7,0.5-2.5,0.5c-0.8,0.1-1.7,0.2-2.5,0.3c-2.7,0.3-5.3,0.4-7.8,0.3c-2.5-0.1-5.1-0.1-7.6-0.1
				c-1.1,0.1-2.3,0.2-3.5,0.2c-1.2,0-2.4,0-3.5,0c-0.8,0-1.7,0-2.4-0.1c-0.8-0.1-1.5-0.2-2.2-0.3c-1.8-0.6-2.8-1.5-3-2.7
				c-0.3-1.8,0.3-3.2,1.9-4.2c1.5-0.7,3-1,4.2-0.8h1.5c0-0.7-0.1-1.6-0.4-2.7l-0.6-3.2c-0.3-1.4-0.5-2.7-0.5-4
				c-0.1-1.3-0.2-2.6-0.5-4c-0.1-1.3-0.3-2.5-0.4-3.8c-0.1-1.3-0.4-2.6-0.6-4c-0.1-0.4-0.2-0.9-0.2-1.4c0-0.5-0.1-0.9-0.2-1.4
				c-0.3-2.4-0.5-4.8-0.7-7.3c-0.2-2.5-0.4-4.9-0.5-7.3c-0.3-2.2-0.4-4.5-0.4-6.8c0-2.2-0.1-4.5-0.2-6.8c0-1.1,0-2.3-0.1-3.6
				c-0.1-1.3-0.2-2.5-0.3-3.6c-0.1-2.2-0.3-4.5-0.4-6.6c-0.1-2.2-0.3-4.4-0.4-6.6c-0.1-2.2-0.2-4.5-0.3-6.6c-0.1-2.2,0-4.5,0.1-6.9
				c0-3,0-5.9,0-8.8c0-2.9,0.1-5.8,0.4-8.8c0.1-2.4,0.3-4.7,0.4-7.1c0.1-2.3,0.3-4.7,0.6-7.1c0.1-0.7,0.2-1.4,0.2-2.2
				c0-0.8,0.1-1.5,0.2-2.2c0-0.6,0-1.1,0.1-1.5c0.1-0.4,0.2-0.9,0.3-1.5h-1.1c-1.5,0.1-3.2-0.3-4.9-1.5c-1.1-0.8-1.6-2-1.5-3.5
				c0.1-1.5,0.9-2.5,2.3-3.1c1.7-0.7,3.2-1.1,4.6-1.1c1.1-0.1,2.3-0.2,3.5-0.2c1.2,0,2.4,0,3.5,0c1-0.1,1.9-0.2,2.7-0.3
				c0.8-0.1,1.8,0,2.7,0.1c1.8,0.1,3.6,0.2,5.4,0.3c1.8,0.1,3.6,0.2,5.4,0.5c5.5,0.7,10.6,1.8,15.4,3.4c3.8,1.4,7.3,3.2,10.7,5.3
				c3.3,2.1,6.3,4.8,9,8C377.9,418.8,381.2,425.1,383.6,432z M321.6,475c0,0.6,0,1,0.1,1.3c0.1,0.3,0.1,0.6,0.1,0.8v0.8l12.4-1.1
				v-0.8c0-0.3,0-0.6-0.1-0.8c-0.1-0.3-0.1-0.7-0.1-1.3c0-0.8-0.1-1.9-0.2-3.2c-0.1-1.3-0.2-2.7-0.2-4.2c-0.3-3.1-0.5-6.6-0.6-10.6
				c-0.1-3.9-0.2-7.9-0.2-12c0-4.1,0.1-8.1,0.3-11.9c0.2-3.9,0.5-7.3,0.7-10.4v-2.1c0.1-0.4,0.2-1.1,0.2-1.9
				c0.1-0.7,0.2-1.3,0.3-1.8c0.1-0.5,0.1-0.9,0.1-1.4c0-0.4,0-0.8,0.1-1.2c0.1-0.3,0.1-0.7,0.1-0.9c0-0.3,0.1-0.5,0.2-0.6l-12.4-1.9
				c-0.1,0.3-0.2,0.6-0.2,0.8c0,0.3,0,0.6-0.1,1c-0.1,0.4-0.1,0.7-0.1,1.2c0,0.6,0,1.1-0.1,1.6c-0.1,0.5-0.2,1.1-0.3,1.8
				c0,1-0.1,1.7-0.2,2.1c0,1-0.1,1.8-0.2,2.3c-0.3,3.2-0.5,6.9-0.6,11c-0.1,4.1-0.3,8.2-0.4,12.4c0.1,4.2,0.2,8.4,0.3,12.4
				c0.1,4.1,0.2,7.7,0.5,11C321.1,470.7,321.3,473.2,321.6,475z M323.3,488.3h12.4v-6.8h-12.7L323.3,488.3z M336.6,496.3v-3.8h-12.4
				v4L336.6,496.3z M373.5,474.8c0.8-3.8,1.1-7.7,0.8-11.8c-0.1-2-0.3-3.9-0.4-5.7c-0.1-1.8-0.3-3.7-0.4-5.7c-0.1-2-0.4-3.9-0.6-5.7
				c-0.3-1.8-0.6-3.7-1.1-5.7c-1.1-4.9-2.8-9.4-5.1-13.5c-5.1-8.9-12.6-13.9-22.6-15.2c-0.6,0-0.9,0.1-1.1,0.2
				c-0.3,0.1-0.6,0.2-1.1,0.2c-0.4,0-0.7,0.1-0.8,0.4c-0.3,0.3-0.4,0.6-0.3,1.1c0.1,0.4,0.1,0.8,0.1,1.1c0.1,1.7,0.2,3.4,0.2,5.1
				c0,1.7,0.1,3.3,0.4,4.9c0.1,2,0.3,3.9,0.4,5.8c0.1,1.9,0.3,3.8,0.6,5.8l1.3,13.9c0.3,2.4,0.6,4.9,0.8,7.4
				c0.3,2.5,0.6,5.1,0.8,7.6c0,1.1,0.1,2,0.2,2.7c0.1,2,0.3,4,0.5,6c0.2,2,0.4,4.1,0.5,6.2c0.3,2.4,0.5,4.7,0.6,7
				c0.1,2.3,0.3,4.6,0.4,7c0.1,2.7,0.2,5.3,0.3,8c0.1,2.7,0.2,5.3,0.3,8c0,1.3,0,2.5,0,3.8s-0.1,2.5-0.4,3.6l0.2,0.2l3.2-1.9
				c4.2-2.4,7.9-5.7,11-9.9c2.4-3.7,4.4-7.5,5.9-11.5c1.5-4,2.8-8.1,3.8-12.3c0.3-1.1,0.5-2.3,0.6-3.5
				C373,477.1,373.2,475.9,373.5,474.8z"/>
			<path class="st0" d="M395.9,538.5c-0.3-0.1-0.6-0.6-0.8-1.3c-0.3-0.6-0.4-1.1-0.3-1.7c0.1-0.6,0.2-1.2,0.3-1.9
				c0.3-1,0.8-1.8,1.6-2.3c0.8-0.6,1.7-0.8,2.6-0.8h3.2h0.2c-0.1-0.4-0.2-0.9-0.2-1.4c0-0.5,0-0.9,0-1.4c-0.3-1.6-0.5-3.2-0.5-4.9
				c-0.1-1.7-0.2-3.3-0.5-4.9l-1.3-15.2c-0.1-2-0.3-4-0.4-6c-0.1-2-0.3-4-0.4-6c-0.1-1.5-0.2-3.1-0.3-4.6c-0.1-1.5-0.1-3.1-0.1-4.6
				c-0.1-2.1-0.2-4.3-0.3-6.4c-0.1-2.2-0.2-4.3-0.3-6.4c-0.1-2.4-0.2-4.7-0.2-6.9c0-2.2,0-4.5,0-6.9c0-1.8,0-3.6-0.1-5.3
				c-0.1-1.7-0.1-3.4-0.1-5.3c0-1.7,0-3.3,0-5c0-1.6,0.1-3.3,0.2-5c0.1-2.1,0.3-4.2,0.4-6.3c0.1-2.1,0.3-4.2,0.4-6.3
				c0.1-0.7,0.2-1.4,0.2-2.1c0-0.7,0.1-1.4,0.2-2.1l0.6-5.7c0.3-1.4,0.6-2.8,0.8-4.2c0.3-1.4,0.6-2.8,0.8-4.2v-0.6h-0.6
				c-1.7-0.1-3.2-0.8-4.6-2.1c-0.3-0.1-0.6-0.5-0.8-1.1c-0.4-1.5-0.4-3.1,0-4.6c0.1-0.7,0.5-1.4,1.2-2c0.6-0.6,1.4-0.9,2.4-0.9
				c2.1,0,4.2-0.1,6.3-0.2c2.1-0.1,4.2-0.3,6.3-0.6c1.5-0.1,3.1-0.2,4.6-0.3c1.5-0.1,3.1-0.2,4.6-0.3l7.6-0.6c1.1,0,2.2,0,3.2,0
				c1,0,2,0.1,3.2,0.2c1.8,0.3,3,1.2,3.6,2.7c0.6,1.5,0.5,3-0.1,4.2c-0.6,1.3-1.8,2-3.5,2.3c-0.3,0.1-0.6,0.2-0.8,0.1
				c-0.3-0.1-0.6,0-0.8,0.1c-0.4,0-0.7,0.2-0.8,0.6c-0.1,0.8-0.2,1.7-0.3,2.5c-0.1,0.8-0.2,1.8-0.3,2.7c-0.1,1-0.3,1.9-0.4,2.8
				c-0.1,0.9-0.3,1.9-0.4,2.8c0,0.4,0,0.8-0.1,1.2c-0.1,0.4-0.1,0.7-0.1,1.2c-0.3,1.4-0.4,2.5-0.4,3.4v0.6c0.3-0.3,0.5-0.4,0.6-0.4
				c1.8-2,3.7-3.8,5.6-5.5c1.9-1.7,4-3.3,6.2-4.9c1.7-1.1,3.4-2.1,5.3-3c1.8-0.8,3.7-1.5,5.7-2.1c3.1-1,6-1.3,8.7-0.8
				c5.1,0.8,8.4,3.7,10.1,8.4c1.1,3.4,1.7,6.6,1.7,9.7c0,1.1,0,2.3,0.1,3.5c0.1,1.2,0,2.4-0.1,3.5c-0.1,1.1-0.3,2.2-0.4,3.3
				c-0.1,1.1-0.3,2.1-0.4,3.3c-0.3,0.8-0.5,1.7-0.5,2.5c-0.1,0.8-0.2,1.7-0.5,2.5c-0.4,1.8-0.9,3.6-1.5,5.4
				c-0.6,1.8-1.2,3.6-1.9,5.4c-1.1,2.8-2.3,5.5-3.4,8c-1.4,2.8-2.9,5.5-4.5,8.1c-1.6,2.6-3.4,5.1-5.4,7.5c-2,2.1-4,4-6,5.8
				c-2,1.8-4.3,3.3-6.9,4.7l-0.4,0.4c-0.1,0.3-0.1,0.4,0.1,0.4c0.2,0,0.4,0.1,0.5,0.2c1.5,0.7,3,1.4,4.3,2.2
				c1.3,0.8,2.6,1.7,3.9,2.8c0.6,0.3,1.1,0.6,1.5,1.1c0.4,0.4,0.9,0.8,1.5,1.3c0.4,0.4,0.6,0.6,0.6,0.4c0.3,0.3,0.5,0.5,0.6,0.6
				c0.1,0.1,0.3,0.3,0.6,0.4c1.4,0.8,2.8,1.7,4.1,2.5c1.3,0.8,2.6,1.8,3.9,3c0.6,0.6,1.1,1.1,1.6,1.6c0.5,0.5,0.9,1.1,1.2,1.8
				c0.4-0.3,0.8-0.6,1.1-0.9c0.3-0.3,0.6-0.7,0.8-0.9c0.6-0.6,1.1-1.1,1.7-1.6c0.6-0.5,1.2-0.9,1.9-1.2c1.3-0.8,2.6-1,4-0.4
				c1.7,0.4,2.5,1.5,2.5,3.4c0.1,1.5,0.2,3,0.2,4.4c0,1.4,0.1,2.8,0.2,4.2c0,1.5,0,3.1,0,4.5c0,1.5-0.1,3-0.4,4.5
				c0,0.7-0.4,1.6-1.3,2.7c-1,1.1-2,1.9-3.2,2.3c-0.4,0.3-0.8,0.3-1.3,0c-1.1-0.1-2.3-0.7-3.4-1.7c-0.7-0.6-1.2-1.3-1.5-2.1
				c-0.6-2.1-1.9-3.9-4-5.3c-1.8-1.3-3.7-2.5-5.5-3.6c-1.8-1.1-3.7-2.2-5.5-3.4c-1.1-0.7-2.3-1.4-3.5-2.1c-1.2-0.7-2.4-1.4-3.5-2.1
				c-0.4-0.3-0.9-0.5-1.4-0.6c-0.5-0.1-0.9-0.3-1.4-0.6c-1.1-0.6-2.2-1.1-3.2-1.5c-1-0.4-2-0.9-3-1.5c-1.3-0.7-2.5-1.4-3.7-2
				c-1.2-0.6-2.4-1.3-3.7-2l-0.4-0.2v3.6c0.1,1.1,0.2,2.3,0.3,3.6c0.1,1.3,0.2,2.5,0.3,3.6c0.1,2,0.2,3.8,0.3,5.6
				c0.1,1.8,0.2,3.6,0.5,5.4c0,0.6,0,1.1,0.1,1.6c0.1,0.5,0.1,1,0.1,1.6c0.1,1.4,0.2,2.8,0.3,4.1c0.1,1.3,0.2,2.7,0.5,4.1
				c0,0.7,0.3,1.1,1.1,1.1c0.3-0.1,0.6-0.2,0.8-0.2c1.3-0.6,2.7-0.5,4.2,0.2c1.5,0.7,2.5,2,2.7,4c0.3,2-0.2,3.4-1.4,4.4
				c-1.2,1-2.6,1.5-4.1,1.7c-1.5,0.1-3.1,0.3-4.6,0.4c-1.5,0.1-3.1,0.3-4.6,0.4c-1.1,0.1-2.3,0.2-3.6,0.3c-1.3,0.1-2.5,0.1-3.6,0.1
				c-2.1,0.3-4.2,0.5-6.3,0.5c-2.1,0.1-4.2,0.2-6.3,0.3c-1,0.1-1.9,0.2-2.8,0.2c-0.9,0-1.9,0-3.1,0
				C399,540.3,397.4,539.7,395.9,538.5z M406,484.1h12.7v-79.6H406V484.1z M406,493.8h12.7v-6.5H406V493.8z M406,503.3h12.7v-3.2
				H406V503.3z M428.4,459.4c0,2.5,0,5.1,0,7.7c0,2.6-0.1,5.2-0.2,7.9c0,0.1,0,0.2,0.1,0.3c0.1,0.1,0.1,0.2,0.1,0.3
				c0.7,0,1.3-0.1,1.7-0.2c3.1-0.4,6.1-1.5,9.1-3.4c2.7-1.7,5-3.6,7-5.8c2-2.2,3.8-4.5,5.5-7.1c1.3-2.3,2.6-4.9,4-7.8
				c0.6-1.4,1.1-2.8,1.7-4.2c0.6-1.4,1.1-2.8,1.7-4.2c0.4-1.3,0.8-2.5,1.3-3.7c0.4-1.2,0.8-2.4,1.1-3.7c0.3-1.3,0.6-2.6,0.8-3.9
				c0.3-1.3,0.5-2.6,0.6-3.9c0.1-0.7,0.2-1.4,0.2-2.1c0-0.7,0.1-1.4,0.2-2.1c0.1-2.4,0-5.1-0.4-8c-0.6-3.1-2.5-4.3-5.7-3.6
				c-0.8,0.1-1.6,0.4-2.3,0.7c-0.7,0.4-1.4,0.7-2.1,1.2c-3.8,2.3-7.5,5-11,8.2c-5.1,4.8-9.1,10-12,15.6c-0.6,1.1-0.9,2-1.1,2.5
				c0,2.3,0,4.5,0,6.8c0,2.3-0.1,4.5-0.2,6.8V459.4z"/>
			<path class="st0" d="M529.2,532.4c-3.9-0.3-7.7-1.1-11.2-2.5c-3.4-1.4-6.4-3.3-9-5.6c-2.6-2.3-5-4.9-7.1-7.7
				c-1.5-2-2.8-4-3.9-6.1c-1.1-2.1-2.1-4.3-3.1-6.5c-1.8-3.9-3.1-7.7-3.8-11.4c-0.8-3.1-1.5-6-1.9-8.7c-0.7-2.7-1.1-5.4-1.3-8.2
				c-0.3-1.1-0.5-2.3-0.5-3.6c-0.1-1.3-0.2-2.5-0.5-3.8c0-1.1,0-2.2-0.1-3.4c-0.1-1.1-0.1-2.2-0.1-3.4c-0.3-2.4-0.4-4.7-0.4-7.1
				s0-4.7,0-7.1V437l0.6-15.2c0.1-1.4,0.3-2.8,0.4-4.1c0.1-1.3,0.3-2.7,0.6-4.1c0.1-1.4,0.3-2.8,0.4-4.1c0.1-1.3,0.3-2.7,0.4-4.1
				c0.1-0.7,0.3-1.5,0.4-2.3c0.1-0.8,0.3-1.7,0.4-2.5v-0.4c-0.4,0-0.8,0-1.3-0.1c-0.4-0.1-0.8-0.1-1.1-0.1c-1.4-0.3-2.4-0.9-3-2
				c-0.6-1.1-0.7-2.1-0.4-3.3c0.1-0.6,0.2-1.1,0.3-1.7c0.1-0.6,0.2-1.1,0.5-1.7c0.8-1.1,1.7-1.8,2.5-1.9h0.6
				c1.1,0.1,2.3,0.2,3.5,0.3c1.2,0.1,2.4,0.1,3.5,0.1c3,0.1,5.9,0.2,8.9,0.1c3-0.1,5.9,0,8.9,0.1c1.5,0,3.2,0,4.9,0.1
				c1.7,0.1,3.3,0.2,4.9,0.3c1.1,0,2,0.4,2.6,1.1c0.6,0.7,1,1.5,1.2,2.5v2.7c-0.1,1.1-0.6,2.1-1.5,3.1c-0.8,0.9-2,1.3-3.6,1.2h-2.5
				v1.3c0.1,1,0.2,1.9,0.2,2.8c0,0.9,0.1,1.9,0.2,2.8c0.1,2,0.2,3.9,0.3,5.9c0.1,2,0.1,3.9,0.1,5.9c0.1,1.8,0.2,3.6,0.2,5.4
				c0,1.8,0,3.6,0,5.4v12.2c0,1.8,0,3.6,0.1,5.4c0.1,1.8,0.1,3.6,0.1,5.4c0.1,1.5,0.2,3,0.3,4.3c0.1,1.3,0.2,2.8,0.3,4.3
				c0.1,1.7,0.3,3.4,0.4,5.1c0.1,1.7,0.3,3.3,0.4,4.9c0.3,1.5,0.5,3.1,0.5,4.6c0.1,1.6,0.2,3.1,0.5,4.6c0.1,1.1,0.3,2.1,0.4,3.1
				c0.1,0.9,0.3,1.9,0.4,3.1c0.3,1,0.5,2,0.5,3c0.1,1,0.2,2,0.5,3c0.4,2.1,0.9,4.2,1.6,6.1c0.6,2,1.5,3.9,2.6,5.7
				c1.1,2,2.6,3.6,4.4,4.9c3.2,1.8,6.4,1.7,9.5-0.4c1.5-1.1,2.8-2.4,3.9-3.7c1.1-1.3,2.1-2.8,3.1-4.3c0.7-1.4,1.3-2.8,1.8-4.1
				c0.5-1.3,1-2.7,1.6-4.1c1.3-4.2,2.3-8.4,3.2-12.7c0.3-1.1,0.5-2.2,0.6-3.3s0.4-2.1,0.6-3.3c0.3-1.5,0.5-3,0.6-4.3
				c0.1-1.3,0.3-2.8,0.4-4.3c0.1-1.1,0.2-2.3,0.3-3.6c0.1-1.3,0.2-2.5,0.3-3.6c0-2,0-3.9,0.1-5.9c0.1-2,0-3.9-0.1-5.9
				c0-2.2,0-4.4-0.1-6.5c-0.1-2.1-0.2-4.3-0.3-6.5c-0.1-1.5-0.2-3.1-0.2-4.5s-0.1-3-0.2-4.5c-0.1-1.7-0.2-3.3-0.3-5
				c-0.1-1.6-0.1-3.3-0.1-5c-0.1-1.1-0.2-2.2-0.2-3.3c0-1.1,0-2.1,0-3.3v-5.5v-1.3h-1.7c-1.1,0-1.9-0.2-2.3-0.6
				c-0.7-0.4-1.4-0.8-2.1-1.1c-0.8-0.4-1.3-1.1-1.5-2.1c-0.1-0.7-0.2-1.3-0.2-1.9c0-0.6,0-1.2,0-1.9c0-1.1,0.3-2.2,1.1-3.4
				c0.3-0.1,0.5-0.2,0.5-0.3c0.1-0.1,0.2-0.2,0.5-0.3h4.4c1.1,0,2.2,0,3.2,0c1,0,2,0.1,3.2,0.2c1.5,0,3.1,0,4.5,0s3,0.1,4.5,0.2h0.6
				c1-0.3,1.9-0.3,2.7,0c0.8,0.3,1.7,0.6,2.5,1.1c2,1,2.8,2.5,2.5,4.6c0,0.8-0.2,1.7-0.6,2.5c-0.3,0.7-0.7,1.2-1.3,1.5
				c-0.6,0.3-1.2,0.5-1.9,0.6c-0.6,0.1-1.4,0.2-2.5,0.2v0.8c0.1,1.8,0.2,3.6,0.3,5.3c0.1,1.7,0.2,3.4,0.3,5.3
				c0.1,1.1,0.2,2.3,0.2,3.4c0,1.1,0.1,2.3,0.2,3.4v8.9c0,1.8,0,3.6,0,5.4c0,1.8-0.1,3.6-0.2,5.4c-0.1,2.1-0.3,4.2-0.3,6.2
				c-0.1,2-0.2,4-0.3,6c-0.1,2.3-0.3,4.4-0.4,6.5c-0.1,2.1-0.4,4.3-0.6,6.5c-0.1,1.1-0.3,2.2-0.3,3.2c-0.1,1-0.2,2-0.5,3.2
				c-0.3,2-0.6,3.9-0.8,5.8c-0.3,1.9-0.6,3.8-1.1,5.8c-0.3,1.7-0.6,3.4-1.1,5.2c-0.4,1.8-0.9,3.5-1.5,5.2c-0.7,2.4-1.5,4.8-2.3,7.2
				c-0.8,2.4-1.8,4.8-3,7.2c-1.1,2.5-2.4,5-3.9,7.5c-1.5,2.5-3.2,4.8-5.2,7.1c-1.3,1.5-2.6,3-3.9,4.2c-1.3,1.3-2.8,2.5-4.3,3.6
				c-2.5,1.4-4.9,2.4-7,3C535.3,532.4,532.3,532.7,529.2,532.4z M497.8,469.1c0,0.7,0,1.3,0.1,1.9c0.1,0.6,0.1,1.1,0.1,1.7
				c2.1,0.1,4.2,0.2,6.3,0.2c2.1,0,4.2,0,6.3,0v-0.8c-0.1-0.7-0.2-1.4-0.2-2c0-0.6-0.1-1.3-0.2-2c0-0.7,0-1.4-0.1-2.1
				c-0.1-0.7-0.2-1.4-0.3-2.1c0-0.7,0-1.4,0-2.2c0-0.8-0.1-1.5-0.2-2.2c0-1.4,0-2.8-0.1-4.3c-0.1-1.5-0.1-3-0.1-4.5
				c-0.1-3-0.2-5.9-0.3-8.9c-0.1-3-0.1-5.8-0.1-8.7c0-2.8,0-5.5-0.1-8.1c-0.1-2.6-0.1-5-0.1-7.3c0-2.2,0-4.3,0.1-6
				c0.1-1.8,0.2-3.3,0.3-4.5c0-0.6,0-1.1,0.1-1.6c0.1-0.5,0.1-0.9,0.1-1.2c0-0.4,0.1-0.8,0.2-1.1l-10.6-1.5h-1.9
				c-0.1,0.3-0.2,0.8-0.2,1.5c0,0.7-0.1,1.6-0.2,2.7c-0.1,1.4-0.2,3.1-0.3,5.1c-0.1,2-0.1,4.2-0.1,6.5V433c0.1,2.8,0.2,5.7,0.2,8.8
				c0,3,0.1,6.1,0.2,9.2c0.1,1.6,0.2,3.1,0.2,4.6c0,1.5,0.1,3.1,0.2,4.6c0,0.7,0,1.4,0.1,2.2c0.1,0.8,0.1,1.5,0.1,2.2
				c0.1,0.7,0.2,1.4,0.2,2.2C497.6,467.7,497.6,468.4,497.8,469.1z M498.6,477.6c0.1,1,0.2,1.9,0.3,2.8c0.1,0.9,0.2,1.8,0.5,2.6
				c2.1-0.1,4.3-0.2,6.4-0.2c2.2,0,4.3,0,6.4,0c0-0.3-0.1-0.5-0.2-0.6c-0.3-0.8-0.5-1.7-0.6-2.6c-0.1-0.9-0.3-1.9-0.4-3.1
				c-2.1,0-4.2,0-6.3-0.1c-2.1-0.1-4.2-0.1-6.3-0.1C498.4,476.8,498.5,477.3,498.6,477.6z M501.4,489.4c2.1,0.1,4.3,0.2,6.4,0.1
				c2.2-0.1,4.4-0.2,6.6-0.3c-0.1-0.4-0.3-0.8-0.4-1.3c-0.1-0.4-0.4-0.9-0.6-1.5c-4.2-0.3-8.6-0.3-13.1,0c0.3,0.6,0.5,1.1,0.5,1.6
				C500.9,488.5,501.1,488.9,501.4,489.4z"/>
			<path class="st0" d="M586.6,417.6c-0.6-0.6-0.9-1-1.1-1.3c-1.3-1.7-1.7-3.5-1.3-5.5c0.1-1,0.5-1.8,1.2-2.4
				c0.6-0.6,1.4-1.1,2.2-1.4c1.8-0.8,3.9-1.5,6.1-1.9c1.7-0.4,3.4-0.8,5.2-1.1c1.8-0.3,3.6-0.6,5.4-0.8c2.4-0.3,4.7-0.6,6.9-0.8
				c2.2-0.3,4.5-0.6,6.9-0.8c1.1-0.1,2.3-0.2,3.6-0.3c1.3-0.1,2.5-0.1,3.8-0.1c2.7-0.1,4.9,0.8,6.8,2.7c0.7,0.8,1.2,1.7,1.6,2.6
				c0.3,0.9,0.7,1.9,0.9,2.8c0.4,1.7,0.8,3.4,1.2,5.2c0.3,1.8,0.7,3.5,1,5.2l2.5,13.3c0.4,2.1,0.8,4.3,1.3,6.4
				c0.4,2.2,0.8,4.3,1.3,6.4c0.4,2.1,0.8,4.2,1.3,6.2c0.4,2,0.8,4.1,1.3,6.2c0.4,2,0.8,3.9,1.3,5.9c0.4,2,0.8,3.9,1.3,5.9
				c0.4,1.8,0.8,3.7,1.3,5.5c0.4,1.8,0.8,3.7,1.3,5.5l3.2,12c0,0.1,0.1,0.3,0.4,0.4c0-0.3,0-0.5,0.1-0.7c0.1-0.2,0.1-0.5,0.1-0.7
				c0.3-3.2,0.5-6.4,0.7-9.4c0.2-3,0.5-6.1,0.7-9.2c0.3-2.8,0.5-5.6,0.7-8.2c0.2-2.7,0.5-5.3,0.7-8c0.1-1.8,0.3-3.6,0.4-5.4
				c0.1-1.8,0.3-3.5,0.4-5.2c0.3-1.5,0.5-3.1,0.6-4.7c0.1-1.6,0.3-3.3,0.6-5c0.3-2,0.5-3.8,0.6-5.6c0.1-1.8,0.3-3.6,0.6-5.6
				c0.3-1.3,0.5-2.6,0.6-3.9c0.1-1.3,0.3-2.6,0.6-3.9c0.1-0.6,0.2-1.1,0.2-1.7c0-0.6,0.1-1.1,0.2-1.7l1.9-11.4l1.3-7.6V395l-1.9-0.6
				c-0.7-0.3-1.4-0.6-2.2-0.9c-0.8-0.3-1.4-0.9-2-1.6c-1.6-2.1-1.8-4.4-0.6-6.8c0.4-1.1,1.1-2,1.9-2.5c0.8-0.6,1.8-1,3-1.3
				c2.8-0.3,5.6-0.4,8.2-0.4c2.7,0,5.4,0.1,8.2,0.2c0.7,0,1.8,0.1,3.2,0.4c0.6,0,1,0.1,1.3,0.4c1.4,1,2.5,2.3,3.4,3.8
				c0.4,0.7,0.5,1.5,0.2,2.5c-0.4,1.7-1.3,3.2-2.5,4.4c-0.6,0.6-1.1,0.8-1.7,0.8c-3.4,0.7-5.3,2.6-5.7,5.7c-0.3,1.7-0.6,3.4-1,5.2
				c-0.4,1.8-0.7,3.5-0.9,5.2c-0.3,2-0.6,3.9-0.9,5.9c-0.4,2-0.7,3.9-0.9,5.9c-0.3,1.5-0.5,3.1-0.7,4.7c-0.2,1.6-0.5,3.2-0.7,4.7
				c-0.3,1.4-0.5,2.7-0.6,4c-0.1,1.3-0.3,2.6-0.4,4c-0.1,0.6-0.2,1.1-0.2,1.6c0,0.5-0.1,1-0.2,1.6c-0.1,2-0.3,3.9-0.4,5.8
				c-0.1,1.9-0.4,3.8-0.6,5.8l-0.6,10.8c-0.1,2.1-0.2,4.2-0.3,6.2c-0.1,2-0.2,4.1-0.3,6.2c-0.1,2-0.3,4-0.4,6.1
				c-0.1,2.1-0.3,4.2-0.4,6.3c-0.1,2.3-0.2,4.5-0.2,6.8c0,2.3-0.1,4.5-0.2,6.8c0,1.3,0,2.5-0.1,3.7c-0.1,1.2-0.2,2.4-0.3,3.5v1.1
				c0.7,0.3,1.4,0.5,2,0.7c0.6,0.2,1.3,0.5,2,0.7c0.4,0.3,0.9,0.5,1.4,0.6c0.5,0.1,0.9,0.4,1.2,0.6c1.5,0.8,2.4,2.1,2.6,3.7
				c0.2,1.6-0.2,3.1-1.4,4.3c-1.1,1.4-2.4,2.4-3.8,3c-4.2,2-8.4,3-12.4,3c-1.4-0.1-2.6-0.5-3.6-0.9c-1-0.5-1.8-1.4-2.5-2.6
				c-0.8-1.4-1.7-2.8-2.5-4.3c-0.8-1.5-1.6-3-2.3-4.5c-2.1-4.4-4-9-5.7-13.9c-0.6-1.5-1.1-3.2-1.6-4.9c-0.5-1.7-0.9-3.4-1.4-5.1
				c-0.6-2.1-1.1-4.2-1.6-6.3c-0.5-2.1-1-4.2-1.4-6.3c-0.4-1.8-0.8-3.6-1.2-5.4c-0.4-1.8-0.7-3.6-1.2-5.4c-0.3-2-0.6-3.8-1.1-5.6
				c-0.4-1.8-0.8-3.6-1.3-5.4l-1.9-9.5c0-0.4-0.1-0.8-0.2-1.3c-0.1-0.4-0.3-1-0.4-1.7l-0.4,0.8c-0.3,1.5-0.6,3.1-0.8,4.5
				c-0.3,1.5-0.6,3-0.8,4.5c-0.1,0.8-0.2,1.7-0.2,2.4c0,0.8-0.1,1.5-0.2,2.2c-0.3,2.4-0.5,4.8-0.5,7.3c-0.1,2.5-0.2,4.9-0.5,7.3
				c-0.1,2-0.2,3.8-0.3,5.6c-0.1,1.8-0.2,3.6-0.3,5.4c-0.3,3.1-0.5,6.2-0.7,9.2c-0.2,3-0.4,6-0.5,9c-0.1,1.8-0.2,3.6-0.3,5.4
				c-0.1,1.8-0.2,3.5-0.3,5.2v4.9c0.1,2.3,1.4,3.9,3.8,4.9c1.5,0.6,2.7,1.8,3.4,3.8c0.7,1.5,0.4,3.1-0.8,4.6c-2,2.3-4.2,3.4-6.5,3.4
				l-10.1,0.6c-1.6,0.1-3.1,0.2-4.5,0.3c-1.5,0.1-3,0.2-4.5,0.5c-1.3,0.3-2.5,0.5-3.8,0.5c-1.3,0.1-2.5,0.2-3.8,0.3
				c-2,0-3.9-0.7-5.7-2.1c-1.3-1.1-1.7-2.5-1.3-4c0.4-1.4,0.7-2.8,0.9-4.1c0.2-1.3,0.5-2.7,0.7-4.1c0-0.7,0.1-1.3,0.2-1.9
				c0.1-0.6,0.1-1.1,0-1.7c0-0.8,0-1.7-0.1-2.5c-0.1-0.8-0.2-1.7-0.3-2.5c-0.3-1.7-0.5-3.3-0.6-5c-0.1-1.6-0.4-3.2-0.6-4.7
				c-0.3-2.2-0.5-4.5-0.5-6.6c-0.1-2.2-0.2-4.4-0.3-6.6c-0.3-4.4-0.4-8.7-0.4-13c0-4.3,0-8.6,0-13c0-1,0-1.9,0-2.8
				c0-0.9,0.1-1.9,0.2-2.8c0-2.7,0-5.3,0.1-8c0.1-2.7,0.2-5.3,0.3-8l0.6-12c0.1-1.4,0.2-2.8,0.3-4.1c0.1-1.3,0.1-2.7,0.1-4.1
				C588.7,421.4,588,419.5,586.6,417.6z M599.5,485.1v2.1v3.6v3.2l12.7-0.4v-0.8c0-0.3,0-0.6-0.1-0.8c-0.1-0.3-0.1-0.7-0.1-1.3v-3.4
				v-2.1V483c0.1-3.2,0.3-6.9,0.5-11s0.5-8.3,0.7-12.7c0.3-4.4,0.5-8.6,0.7-12.8c0.2-4.1,0.5-7.9,0.7-11.3v-4.4
				c0.1-0.7,0.2-1.3,0.2-1.7c0-0.4,0-0.9,0-1.5v-2.3h-12.4c-0.1,0.1-0.2,0.3-0.2,0.4v1.7v2.7c0,0.7,0,1.4,0,2.1
				c0,0.7-0.1,1.5-0.2,2.3c-0.1,3.2-0.4,6.9-0.6,11c-0.3,4.1-0.6,8.3-0.8,12.7c-0.3,4.5-0.5,8.9-0.7,13.1c-0.2,4.2-0.3,8-0.3,11.4
				V485.1z M613.6,497.4h-13.9v5.7h13.9V497.4z M613.6,505.8h-13.9v5.5h13.9V505.8z"/>
			<path class="st0" d="M683,537.7c-0.6-0.4-0.8-1-0.8-1.7c-0.3-1-0.3-2,0-3.2c0.1-0.8,0.6-1.6,1.3-2.2c0.7-0.6,1.5-0.9,2.3-0.9h3.8
				c0-0.3,0-0.5,0.1-0.7c0.1-0.2,0-0.5-0.1-0.7c-0.1-1-0.2-1.9-0.3-2.7c-0.1-0.8-0.1-1.7-0.1-2.5c-0.3-2-0.5-3.9-0.6-5.9
				c-0.1-2-0.3-3.9-0.4-5.9c-0.3-2.4-0.5-4.7-0.6-7.1c-0.1-2.3-0.4-4.7-0.6-7.1c-0.1-1.8-0.2-3.6-0.3-5.3c-0.1-1.7-0.2-3.4-0.3-5.3
				l-0.6-11.4c0-0.8,0-1.7,0-2.6c0-0.9-0.1-1.8-0.2-2.6c-0.3-4.2-0.4-8.5-0.4-12.8c0-4.3,0-8.5,0-12.8c0-1.7,0-3.4,0-5.2
				c0-1.8,0.1-3.5,0.2-5.2c0.1-2.4,0.2-4.7,0.3-7c0.1-2.2,0.2-4.6,0.5-7c0.3-2.1,0.6-4.2,0.8-6.3c0.3-2.1,0.6-4.2,0.8-6.3
				c0.1-1,0.3-1.9,0.4-2.7c0.1-0.8,0.3-1.8,0.6-2.7c-0.6-0.3-1.1-0.4-1.5-0.4c-1.3-0.1-2.5-0.7-3.6-1.7c-0.3-0.1-0.5-0.3-0.5-0.4
				c-0.1-0.1-0.2-0.3-0.3-0.4c-1-2.4-0.9-4.5,0.2-6.3c0.6-1,1.5-1.6,3-1.9c2.1-0.1,4.2-0.2,6.3-0.3c2.1-0.1,4.1-0.2,6.1-0.5
				c2.2-0.1,4.5-0.3,6.6-0.4c2.2-0.1,4.4-0.3,6.6-0.6c0.7-0.1,1.3-0.2,1.8-0.2c0.5,0,1,0,1.6,0h6.3c2,0.3,3.4,1.3,4.2,3
				c0.7,1.8,0.6,3.3-0.2,4.5c-0.8,1.2-2.2,1.9-4,2.2c-0.3,0.1-0.6,0.2-0.8,0.1c-0.3-0.1-0.6-0.1-0.8-0.1c-0.3,2-0.5,3.8-0.6,5.5
				c-0.1,1.7-0.4,3.3-0.6,4.9c-0.3,1.5-0.5,3-0.7,4.4c-0.2,1.4-0.4,2.8-0.5,4.2c-0.3,2.1-0.5,4.2-0.7,6.3c-0.2,2.1-0.3,4.3-0.3,6.5
				c0,3.4,0,6.8-0.1,10.1c-0.1,3.4-0.2,6.8-0.3,10.1v9.3c-0.1,0.8-0.2,1.7-0.2,2.6c0,0.9,0,1.8,0,2.6v2.1c0.4-0.3,0.8-0.5,1.2-0.6
				c0.3-0.1,0.7-0.3,1.2-0.6c2.3-1.5,4.2-3.2,5.9-5.1c1.7-1.8,3.3-3.8,4.9-5.9c1.5-2.4,3-4.9,4.3-7.4c1.3-2.5,2.6-5.1,3.7-7.8
				c1-2.4,1.9-4.8,2.6-7.3c0.8-2.5,1.5-5,2.2-7.5c0.3-1.5,0.6-3.1,0.9-4.6c0.3-1.5,0.7-3.1,0.9-4.6c0.4-2.2,0.7-4.5,0.8-6.6
				c0.1-2.2,0.3-4.3,0.4-6.4c0-1.5,0.5-2.7,1.6-3.6c1.1-0.8,2.1-1.3,3.3-1.5c2.1,0,3.7,0.6,4.9,1.7c0.8,1.1,1.3,2.3,1.3,3.6
				l-0.6,10.1c-0.1,1.3-0.3,2.6-0.4,3.9c-0.1,1.3-0.4,2.6-0.6,3.9c-0.3,1.5-0.6,3.1-0.9,4.5c-0.4,1.5-0.7,3-1.2,4.5
				c-0.3,1.3-0.6,2.5-1,3.8c-0.4,1.3-0.7,2.5-1.2,3.6c-2.7,8.6-6.3,16.3-11,23.2c-3.1,4.8-6.5,8.7-10.3,11.8
				c-0.3,0.1-0.4,0.2-0.4,0.3c0,0.1-0.1,0.2-0.4,0.3c0.7,0.3,1.3,0.6,1.9,0.9c0.6,0.4,1.1,0.7,1.7,0.9c2.1,1,4.2,2,6.2,3
				c2,1,4,2.3,5.8,3.8c0.6,0.4,1.1,0.8,1.5,1.3c0.4,0.4,0.9,0.8,1.5,1.1c0.8,0.7,1.7,1.3,2.6,1.8c0.9,0.5,1.8,1.1,2.6,1.8
				c1,0.7,1.9,1.4,2.8,2.2c0.9,0.8,1.8,1.5,2.6,2.2c0.4,0.3,0.8,0.6,1.1,1.1c0.3,0.4,0.6,0.8,1.1,1.3l1.3-1.3
				c0.7-0.6,1.3-1.1,1.8-1.7c0.5-0.6,1.1-1.1,1.8-1.5c1-0.8,2.4-1.1,4.2-0.8c0.7,0.1,1.3,0.6,1.9,1.4c0.6,0.8,0.8,1.5,0.8,2.2
				c0.1,2,0.2,3.9,0.3,5.7c0.1,1.8,0.1,3.7,0.1,5.7c0,1,0,1.9-0.1,2.8c-0.1,0.9-0.1,1.9-0.1,2.8c0,1.1-0.2,2-0.7,2.6
				c-0.5,0.6-1.1,1.3-1.8,2c-1.7,1.4-3.4,1.5-5.3,0.4c-1.7-0.8-2.7-2.1-3.2-3.8c-0.3-1.1-0.8-2-1.5-2.6c-0.7-0.6-1.5-1.3-2.3-2
				c-2.3-1.5-4.5-3-6.8-4.3c-2.3-1.3-4.6-2.8-7-4.3c-0.4-0.1-1.1-0.5-1.9-1.1c-1-0.7-1.9-1.3-2.8-1.7c-0.9-0.4-1.9-0.8-2.8-1.3
				c-2.4-1.1-4.8-2.3-7.2-3.5c-2.4-1.2-4.7-2.5-7-3.9c-0.7-0.3-1.3-0.6-1.9-1c-0.6-0.3-1.1-0.7-1.7-0.9l-1.3-0.6v1.7l0.6,7
				c0.1,1.1,0.2,2.3,0.3,3.4c0.1,1.1,0.1,2.3,0.1,3.4c0.3,1.8,0.5,3.6,0.5,5.4c0.1,1.8,0.2,3.6,0.3,5.4c0.3,2.4,0.5,4.7,0.6,7.1
				c0.1,2.3,0.3,4.7,0.6,7.1c0.1,0.4,0.2,1.1,0.2,2.1c0.1,0.8,0.6,1.2,1.5,1.1c0.8-0.4,2-0.5,3.4-0.2c1.3,0.3,2.3,1,3.2,2.1
				c0.7,1.3,0.9,2.7,0.6,4.4c-0.3,1.7-1.5,2.9-3.6,3.6c-0.3,0.1-0.5,0.2-0.7,0.2c-0.2,0-0.5,0.1-0.7,0.2c-2,0.1-3.9,0.3-5.9,0.4
				c-2,0.1-3.9,0.3-5.9,0.4c-2.8,0.3-5.6,0.5-8.4,0.6c-2.8,0.1-5.6,0.3-8.4,0.6c-2.3,0.3-4.4,0.3-6.5,0c-0.8,0-1.7-0.2-2.4-0.5
				C684.5,538.5,683.7,538.1,683,537.7z M693.2,449.5c-0.1,2-0.2,3.9-0.2,5.9c0,2,0,3.8,0,5.5v2.3v2.3c0.1,0.7,0.2,1.3,0.2,1.9
				c0,0.6,0,1.1,0,1.5c0,0.6,0,1,0.1,1.4c0.1,0.4,0.1,0.7,0.1,0.9c0,0.4,0.1,0.7,0.2,0.8l12.4-1.3c-0.1-0.1-0.2-0.3-0.2-0.6v-2.1
				c-0.1-0.6-0.2-1.6-0.2-3.2c0-0.8-0.1-1.5-0.2-1.9v-2.3c0-1.5,0-3.2,0.1-4.9c0.1-1.7,0.2-3.5,0.3-5.5c0.1-2,0.3-4,0.4-6
				c0.1-2,0.3-4.1,0.6-6.2c0.4-4.4,0.8-8.6,1.3-12.7c0.3-2,0.5-3.9,0.5-5.8c0.1-1.9,0.2-3.7,0.3-5.4c0-0.8,0-1.6,0.1-2.3
				c0.1-0.7,0.1-1.4,0.1-2.1v-3.6v-3.2l-12.7,0.4v2.7v3.2c0,0.7,0,1.4,0,2.1c0,0.7-0.1,1.4-0.2,2.1c0,1.5-0.1,3.2-0.2,5.1
				c-0.1,1.8-0.3,3.7-0.4,5.7c-0.3,2-0.5,4-0.6,6c-0.1,2-0.4,4.2-0.6,6.4L693.2,449.5z M706.9,482.4v-5.5l-12.2,0.2l0.2,5.7
				L706.9,482.4z M706.9,490v-3l-12.2,0.4l0.2,3L706.9,490z"/>
		</g>
	</g>
	<g>
		<g>
			<path class="st1" d="M230.4,361.7c-2.8-1.1-4.1-4-5.2-6.8c-2.8-6.9-3.7-14.2-3.9-21.5c-0.7-18.8-1.1-37.6-1.6-55.8l-0.1-34.7
				c0-7,0.1-13.9,0.4-20.9c0.5-10.9,2-21.5,5.6-31.9c1.7-4.6,3.9-8.9,7-12.7c1.7-2.1,3.7-3.4,6.2-3.8c1.7-0.3,3.3-0.5,4.9-0.5
				c6.2,0,8.6,0.4,11,1.3c4.5,1.6,7.1,5.2,7.5,10c0.2,2.3,0.3,4.7,0.3,7.1c0,3.7-0.2,7.4-0.8,10.9c-3.4,21.3-4.5,42.7-4.5,64.1
				c0,13.9,0.4,27.8,1.1,41.8c0.3,6.3,0.3,12.8,0.3,19.1v19.2c0,1.2,0,2.4-0.2,3.5c-2.1,9.8-7,13.6-17.6,13.6
				C237.7,363.7,234.2,362.9,230.4,361.7z"/>
			<path class="st1" d="M271.8,213.2c-1.7-5.1-2.4-10.1-2.4-15.2c0-6.2,1.2-12.3,3.2-18.5c2.3-7.1,8-10.5,15.6-10.5h1.7
				c8.6,0.7,13.5,4.7,15.5,13c0.6,2.6,0.8,5.4,0.8,8.1c0,2.5-0.2,5-0.2,7.5V208c-0.3,8.6-6,15.9-13.1,17c-1.4,0.2-2.7,0.3-4.1,0.3
				C280.5,225.3,274.3,221.1,271.8,213.2z"/>
			<path class="st1" d="M429.8,365.6c-2.4-0.6-3.4-3-4.4-5.1c-3.4-6.6-4.1-14-5.4-21.2c-2.4-14.5-3.3-29-3.3-43.5l0.1-12
				c0-0.9-0.2-1.9-0.3-3.2c-1.9,0.8-1.9,2.5-2.3,3.8c-1.7,5.6-3.7,11-6.6,16c-4.7,8.1-11.6,11.8-19.1,11.8c-3.7,0-7.5-0.9-11.4-2.5
				c-2.4-1.1-4-3.1-5.4-5.2c-5.9-9.5-11.8-19-16.2-29.3c-0.2-0.3-0.5-0.5-1.1-1.3c-0.4,0.7-0.5,1.6-0.5,2.3v1.6
				c0.5,15.1,0.4,30.2,1.9,45.1c0.2,2.1,0.3,4.3,0.3,6.4c0,6.2-0.6,12.3-1.2,18.5c-0.7,9-10,16.7-18.4,16.7l-1.6-0.1
				c-8.3-1-13-6.4-15.8-13.5c-3.1-7.6-4.3-15.7-4.7-23.8c-0.2-6-0.3-12-0.3-18c0-15.1,0.7-30.1,2.2-45.1c1.8-17.8,1.4-35.9,1.6-53.9
				c0-4.5,0-9.3-0.1-13.8c0-2.5,0.3-5.1,0.7-7.5c1.1-7.5,5.7-11.7,12.7-13.5c2.7-0.6,5.3-1.1,7.6-1.1c9.5,0,16.7,5.4,20.9,15.5
				l23,54.5c0.5,1.2,0.8,2.5,2.1,3.4c2.1-1.5,2.4-3.9,3.3-6c6.6-17.8,14.7-34.9,24.9-50.9c4.2-6.6,8.6-13.3,15.3-17.9
				c3.5-2.4,6.9-4.3,10.7-4.3c2,0,4.1,0.6,6.4,1.9c6,3.4,9.7,7.8,10.7,14.8c1.3,8,1.7,16.1,1.7,24.2c0,7.8-0.4,15.6-1.1,23.3
				c-0.6,10.4-1.1,21-1.1,31.4c0,13.8,0.6,27.6,2.3,41.6c1.5,12,3.3,24,3.9,36.3l0.1,1.2c0,4.4-1.2,8.2-3.9,11.8c-2.2,3-4.3,6-6.4,9
				c-1.3,1.9-3.1,3-5.2,3.5c-1.4,0.3-2.8,0.4-4.2,0.4C437.9,367.7,433.9,366.6,429.8,365.6z"/>
			<path class="st1" d="M611.3,367.4c-7.6-1.4-13.5-5-17.1-12.3c-6.2-12.9-11.6-26.1-16-39.8c-2-6.3-4.1-12.7-6.5-18.9
				c-0.3,2.5-0.4,5-0.4,7.4c0,3.3,0.2,6.5,0.6,9.8c0.8,6.9,0.9,13.6,0.9,20.5v7.4c-0.1,11.3-7.1,17.5-15.7,22.5
				c-1.6,1-3.3,1.4-4.9,1.4c-3.1,0-6-1.5-8.6-3.6c-3.9-3.2-5.9-7.6-7.1-12.3c-1.5-5.3-1.7-10.8-2.1-16.1
				c-1.1-13.4-1.4-26.8-1.4-40.3c0-13.4,0.3-26.9,0.4-40.3c0.1-9.5,0.5-18.9,0.8-28.4v-3.4l0.1-2.4c0.4-2.5,0.7-5,0.7-7.3
				c0-5.5-1.4-10.8-4.9-15.8c-1.1-1.6-1.6-3.4-1.6-5.3c0-2.3,0.7-4.7,1.9-7c2.1-4.2,5.1-8,9.3-10.1c4.9-2.4,9.8-3.7,14.9-3.7
				c3.4,0,6.9,0.5,10.3,1.9c4.7,1.7,8.3,5.1,9.1,9.8c2.7,17.5,12.3,32.4,17.6,48.9c2.2,6.8,4.1,13.7,6.1,20.6c0.5,1.6,1,3.2,2,4.7
				c1.1-1.2,1.2-2.4,1.2-3.7V250c0.2-4.4,0.3-8.9,0.3-13.4c0-5-0.2-9.9-0.5-15c-0.2-3.3-0.3-6.5-0.3-9.9c0-6.1,0.4-12.3,1.1-18.5
				c0.7-6.4,2.7-12.3,7.6-17.1c3.2-3.1,7.8-4.7,12.7-4.7c7.3,0,14.8,3.9,17.5,12.8c1.1,3.2,1.7,6.4,1.7,9.7l-0.1,1.7
				c-0.6,11.3-1.4,22.5-1.9,33.6c-0.2,3.9-0.3,7.7-0.3,11.5c0,14.8,1.5,29.4,2.7,44.1c1.4,14.8,2,29.6,2.6,44.5v1.1
				c0,6.5-1.7,12.8-5,18.5c-1.4,2.5-2.8,5.1-4.3,7.6c-3.9,7-11.6,11.3-19.6,11.3C614,367.7,612.7,367.6,611.3,367.4z"/>
			<path class="st1" d="M701.6,370.9c-14.6-1.6-26.5-7.8-35-19.9c-4-5.7-5.8-12.2-7.9-18.7c-5.5-17.5-7-35.5-7.2-60.7
				c0.4-15.7,2.3-38,9.8-59.4c2.7-7.9,6.2-15.4,10.3-22.7c4.5-8.2,11.9-13,20.8-15.6c2.3-0.7,4.9-1.3,7.3-1.7
				c4-0.7,7.6-1.8,11.1-4.3c2.3-1.7,5.5-2.4,8.9-2.4c5.5,0,11.7,2,15.9,5.7c9.8,8.5,17.3,18.7,20.5,31.6c4,16.8,6.9,33.6,6.9,50.9
				c0,3.1-0.1,6.2-0.3,9.4c-0.5,10.2-2.4,20.3-5.3,30.2c-2.6,8.9-5.4,17.7-7.8,26.7c-4.9,17.3-14.8,31.3-27.1,43.9
				c-4.9,4.9-10.8,7.2-17.4,7.2L701.6,370.9z M704.9,326.2c2.7-3.3,4.1-7.1,5.4-10.9c6.3-20.3,9.5-40.9,10.5-62v-1.3
				c0-10.3-1.3-20.4-4.7-30.2c-0.8-2.2-1.7-4.3-3.1-6.2c-1.4-1.8-3.2-2.7-5-2.7c-1.9,0-3.9,1.3-5.2,3.6c-3,5.5-4.7,11.5-5.6,17.5
				c-2.5,18-4.6,36.2-4.6,54.5v3.8c0.1,7.7,1.1,15.3,2.2,23c0.7,4.1,3.2,7.4,5.4,10.8c0.6,1.1,1.4,1.6,2.2,1.6
				C703.2,327.7,704.1,327.2,704.9,326.2z"/>
			<path class="st1" d="M809.9,364.2c-6.1-1-9.8-4.1-11.2-10.1c-1.5-6.9-2.6-13.7-2.6-20.7c-0.1-14.1-0.6-28.3-0.6-41.9l0.2-13.8
				c-0.1-15.5-0.1-29.7-0.6-44.1v-2.4c0-4.4,0.4-8.9,0.7-13.2v-0.6c0-2.2-1.1-3.1-3.1-3.1H792l-9.7,1.1l-1.7,0.1
				c-9.4,0-15.6-7.4-15.6-16.1c0-1.9,0.3-3.8,0.8-5.7c2.8-9.7,9.3-14.9,19.4-15c14.2-0.2,28.1-2.6,41.9-5.4
				c4.6-0.8,9.2-1.4,13.8-1.7h1.3c7.7,0,14.1,3.6,19.7,8.4c2.8,2.4,4.2,6.9,4.2,11.3c0,3.7-1.1,7.6-3,10.2c-5.1,7-11.2,11.3-20,11.3
				l-3.5-0.1c-4.1,0-4.7,1.3-5.3,6.4c-0.9,8-0.8,16.2-1.1,24.3c-0.1,5.7-0.2,11.3-0.2,17c0,21.4,0.8,42.7,0.8,64.1
				c0,5.7-0.1,11.3-0.2,17c-0.1,3.5-0.2,6.9-1,10.3c-0.5,2.6-1.7,4.9-3.7,6.3c-4.9,3.7-9.9,6.3-15.9,6.3
				C812.2,364.5,811,364.4,809.9,364.2z"/>
		</g>
	</g>
	<g>
		<path class="st0" d="M221.4,905.4c-1.5-3-2.2-6.2-2.5-9.5c-0.6-6.7-1.2-13.2-1.2-19.9l0.2-4.7c0-2.3-0.8-4-2.5-5.7
			c-2.9-3.2-4.3-6.9-4.3-11c0-1.1,0.1-2.1,0.2-3.3c0.5-3,1.6-5.5,4.5-6.7c1.6-0.7,2.1-2,2.3-3.5c0.3-2,0.4-3.9,0.4-5.8
			c0-2.5-0.2-5.2-0.2-7.7c0-11.2-1.6-22.3-1.6-33.4v-4c0-1.7-0.8-3.1-1.6-4.6c-1.4-3.1-2.5-6.2-2.5-9.6c0-1.3,0.2-2.6,0.5-3.9
			c0.9-3.4,2.5-6,5.4-8c7.1-4.7,15-6.8,23.5-7.1h7.2c4.7,0.2,9.3,0.3,14,0.8c3.3,0.4,6.2,1.4,8.5,3.7c1.3,1.3,2.7,2.5,4.1,3.6
			c5.1,4,8.7,9.1,10.9,15.2c0.6,1.6,1.4,3,2.1,4.4c2.9,5.2,3.9,10.5,3.9,16.1c0,2.2-0.2,4.4-0.5,6.7c-1.7,15.1-8.1,28.2-16.2,40.7
			c-3.8,6-9,10.5-15.9,12.7c-3.4,1.1-6.7,2.7-10,4c-2.1,0.8-3,2.2-3.6,4.3c-1,3.3-0.9,6.6-1,9.9c-0.2,5-0.3,9.9-0.4,14.9
			c-0.1,6.3-3.4,11.1-7.9,15.2c-1.4,1.3-3.5,2-5.7,2C227.7,911,223.3,908.9,221.4,905.4z M255.9,826c4-8.2,5.9-17,6-26v-0.7
			c0-8.3-1.6-9.7-9.9-13.5c-0.9-0.4-1.7-0.7-2.5-0.7c-2.2,0-3.9,1.7-4.4,4.5c-0.3,2.2-0.4,4.4-0.4,6.7v3.4c0,11.9,0.7,23.7,1.5,36
			C250.7,833.7,253.6,830.8,255.9,826z"/>
		<path class="st0" d="M309.4,911.2c-7.6,0-11.8-4.3-14.6-10.5c-2.5-6-3-12.6-3.5-19v-5.5c0-4.7,0.4-9.4,1.7-13.8
			c0.2-0.5,0.2-1,0.2-1.5c0-0.8-0.2-1.6-0.8-2.3c-1.5-2-2.1-4.4-2.4-6.7c-0.1-0.7-0.1-1.3-0.1-1.9c0-3,0.9-5.6,3.3-7.6
			c5.3-4.4,7.6-9.7,8.6-16.6c2.1-15.5,5.9-30.7,11.6-45.4c2.4-6.3,6.1-11.7,11-16.3c3.6-3.3,7.4-5.7,11.6-5.7c2.1,0,4.4,0.6,6.7,2
			c0.6,0.3,1.2,0.6,1.9,0.6h1.1c3.2,0,5.7,1.6,8.2,3.4c10.1,7.6,15,18.1,16.7,30.4c1.6,11.3,1.4,22.8,2.5,34.2
			c1.6,15,3.5,29.9,6,44.8c0.4,2.4,0.6,4.7,0.6,6.9c0,9.1-3,17.5-8.5,25.1c-2.5,3.6-6.1,5.1-10.3,5.1c-1.1,0-2.5-0.1-3.8-0.3
			c-5.7-1.1-8.5-4.6-9.4-9.6c-0.9-5.5-1.1-11.1-1.5-16.7c-0.7-9.6-1.4-19.2-2.7-28.7c-0.3-2.5-0.7-3.4-2.1-3.4
			c-0.6,0-1.2,0.2-2.2,0.4c-4.9,1.3-9.8,3-14.7,4.4c-2.2,0.7-3,2.1-3,4.4c0.2,5.4,0.8,10.8,1.5,16.2c0.3,2.2,0.4,4.4,0.4,6.7
			c0,6.2-1,12.3-2.5,18.4c-1.5,6.1-5.3,8.5-11.4,8.5H309.4z M337.5,824.4c3.1-0.5,3.7-1.1,3.7-4.5c-0.1-4.1-0.2-8.4-0.7-12.5
			c-0.4-3.4-0.2-6.8-1.7-10.1c-3.3,9-6.8,18-8.6,28C333.1,824.9,335.3,824.7,337.5,824.4z"/>
		<path class="st0" d="M412.2,909.2c-4.8-0.7-7.6-3.2-8.7-7.9c-1.1-5.3-2.1-10.7-2.1-16.1c-0.1-11-0.5-22-0.5-32.6l0.2-10.8
			c-0.1-12.1-0.1-23.2-0.5-34.3v-1.9c0-3.4,0.3-6.9,0.6-10.3v-0.5c0-1.7-0.8-2.4-2.4-2.4h-0.5l-7.6,0.8l-1.3,0.1
			c-7.3,0-12.2-5.7-12.2-12.6c0-1.5,0.2-3,0.7-4.4c2.2-7.6,7.2-11.6,15.1-11.7c11.1-0.2,21.8-2.1,32.6-4.2c3.6-0.7,7.1-1.1,10.8-1.3
			h1c6,0,11,2.8,15.4,6.6c2.2,1.9,3.3,5.3,3.3,8.8c0,2.9-0.8,5.9-2.3,8c-3.9,5.4-8.7,8.8-15.6,8.8l-2.7-0.1c-3.2,0-3.7,1-4.1,5
			c-0.7,6.2-0.7,12.6-0.8,18.9c-0.1,4.4-0.2,8.8-0.2,13.2c0,16.7,0.7,33.3,0.7,49.9c0,4.4-0.1,8.8-0.2,13.2c-0.1,2.7-0.2,5.3-0.7,8
			c-0.4,2.1-1.3,3.8-2.9,4.9c-3.8,2.9-7.7,4.9-12.4,4.9C414,909.4,413.1,909.3,412.2,909.2z"/>
		<path class="st0" d="M469,906.3c-2.6-5.5-4.4-11.2-5.3-17.2c-1.2-7.9-1.3-15.8-1.6-23.8c-0.8-20.7-1.3-41.4-1.3-62.1l0.1-12.9
			c0-2.1-0.1-4.2-2.5-5.3c-1.4-0.7-1.8-2.4-2.1-3.9c-0.3-1.5-0.5-2.9-0.5-4.2c0-5.2,2.4-9.5,6.4-13.3c5.2-4.8,11.7-7,18.6-7.2
			c2.7-0.1,5.3-0.2,8-0.2c4.8,0,9.7,0.2,14.5,0.9c6.4,0.9,12.2,4.2,17.5,8c1.6,1.1,2.9,2.6,4.5,3.8c9.7,6.9,12.8,16.9,12.8,27.9v0.9
			c-0.2,12.9-3.4,25.3-8.3,37.2c-2.1,5.1-5.4,9.4-8.2,14c-1.3,2.3-3.8,3.4-6,4.7c-2.5,1.4-3.7,2.3-3.7,3.4c0,0.9,1.1,2,3.1,3.5
			c5.1,3.9,8.9,8.7,12.4,14.1c3.1,4.9,4.9,10.3,6.2,15.8c0.2,1.1,0.3,2.3,0.3,3.4c0,3.4-1,6.6-3.1,9.5c-1.9,2.6-4.5,4.1-7.6,4.4
			l-2.6,0.2c-4.8,0-9.3-1.4-12.7-5.2c-4.7-5.1-9.1-10.3-13.7-15.5c-0.2-0.2-0.3-0.6-0.8-0.6l-0.7,0.1v5.2c0,1.8,0,3.5-0.1,5.3
			c-0.2,5.3-2.5,9.5-6.9,13c-1.7,1.4-3.9,2.1-6.2,2.1C475.1,912.3,470.8,910,469,906.3z M505.3,814.8c1-3.4,1.4-6.9,1.4-10.5
			c0-1.6-0.1-3.1-0.2-4.7c-0.4-5.7-3.3-9.4-8.2-11.9c-2.1-1.1-3.7-1.6-4.9-1.6c-2.2,0-3,2-3.1,6.2c0,3.7,0.4,7.4,0.4,11.2l-0.2,12.3
			l0.1,15.2c0.4,0.2,0.8,0.3,1.1,0.6C498.5,827.8,503.2,822.3,505.3,814.8z"/>
		<path class="st0" d="M554.5,907.2c-2.2-0.8-3.2-3.1-4-5.3c-2.2-5.3-2.9-11.1-3-16.7c-0.6-14.6-0.8-29.2-1.2-43.4l-0.1-27
			c0-5.4,0.1-10.8,0.3-16.3c0.4-8.5,1.6-16.7,4.4-24.8c1.3-3.6,3-6.9,5.4-9.9c1.3-1.6,2.9-2.6,4.8-3c1.3-0.2,2.5-0.4,3.8-0.4
			c4.8,0,6.7,0.3,8.5,1c3.5,1.2,5.5,4,5.8,7.8c0.2,1.8,0.2,3.7,0.2,5.5c0,2.9-0.2,5.7-0.7,8.5c-2.6,16.6-3.5,33.3-3.5,49.9
			c0,10.8,0.3,21.7,0.8,32.5c0.2,4.9,0.2,9.9,0.2,14.9v14.9c0,0.9,0,1.9-0.2,2.7c-1.6,7.6-5.4,10.6-13.7,10.6
			C560.2,908.8,557.5,908.2,554.5,907.2z"/>
		<path class="st0" d="M624.7,914.4c-11.3-1.2-20.6-6.1-27.3-15.5c-3.1-4.4-4.5-9.5-6.2-14.5c-4.3-13.6-5.4-27.7-5.6-47.2
			c0.3-12.2,1.8-29.6,7.6-46.2c2.1-6.2,4.8-12,8-17.7c3.5-6.4,9.3-10.1,16.2-12.2c1.8-0.6,3.8-1,5.7-1.3c3.1-0.6,5.9-1.4,8.6-3.4
			c1.8-1.3,4.3-1.9,6.9-1.9c4.3,0,9.1,1.6,12.4,4.4c7.6,6.7,13.5,14.5,15.9,24.6c3.1,13.1,5.3,26.2,5.3,39.7c0,2.4-0.1,4.8-0.2,7.3
			c-0.4,8-1.9,15.8-4.1,23.5c-2.1,6.9-4.2,13.8-6.1,20.8c-3.8,13.5-11.5,24.4-21.1,34.2c-3.8,3.8-8.4,5.6-13.5,5.6L624.7,914.4z
			 M627.2,879.6c2.1-2.5,3.2-5.5,4.2-8.5c4.9-15.8,7.4-31.9,8.2-48.3v-1c0-8-1-15.8-3.7-23.5c-0.7-1.7-1.3-3.4-2.4-4.8
			c-1.1-1.4-2.5-2.1-3.9-2.1c-1.5,0-3,1-4,2.8c-2.3,4.3-3.7,8.9-4.4,13.6c-2,14-3.6,28.2-3.6,42.5v3c0.1,6,0.8,11.9,1.7,17.9
			c0.6,3.2,2.5,5.7,4.2,8.4c0.5,0.8,1.1,1.2,1.7,1.2C625.9,880.8,626.5,880.4,627.2,879.6z"/>
		<path class="st0" d="M708.9,909.2c-4.8-0.7-7.6-3.2-8.7-7.9c-1.1-5.3-2.1-10.7-2.1-16.1c-0.1-11-0.5-22-0.5-32.6l0.2-10.8
			c-0.1-12.1-0.1-23.2-0.5-34.3v-1.9c0-3.4,0.3-6.9,0.6-10.3v-0.5c0-1.7-0.8-2.4-2.4-2.4H695l-7.6,0.8l-1.3,0.1
			c-7.3,0-12.2-5.7-12.2-12.6c0-1.5,0.2-3,0.7-4.4c2.2-7.6,7.2-11.6,15.1-11.7c11.1-0.2,21.8-2.1,32.6-4.2c3.6-0.7,7.1-1.1,10.8-1.3
			h1c6,0,11,2.8,15.4,6.6c2.2,1.9,3.3,5.3,3.3,8.8c0,2.9-0.8,5.9-2.3,8c-3.9,5.4-8.7,8.8-15.6,8.8l-2.7-0.1c-3.2,0-3.7,1-4.1,5
			c-0.7,6.2-0.7,12.6-0.8,18.9c-0.1,4.4-0.2,8.8-0.2,13.2c0,16.7,0.7,33.3,0.7,49.9c0,4.4-0.1,8.8-0.2,13.2c-0.1,2.7-0.2,5.3-0.7,8
			c-0.4,2.1-1.3,3.8-2.9,4.9c-3.8,2.9-7.7,4.9-12.4,4.9C710.7,909.4,709.8,909.3,708.9,909.2z"/>
		<path class="st0" d="M766.1,907.2c-2.2-0.8-3.2-3.1-4-5.3c-2.2-5.3-2.9-11.1-3-16.7c-0.6-14.6-0.8-29.2-1.2-43.4l-0.1-27
			c0-5.4,0.1-10.8,0.3-16.3c0.4-8.5,1.6-16.7,4.4-24.8c1.3-3.6,3-6.9,5.4-9.9c1.3-1.6,2.9-2.6,4.8-3c1.3-0.2,2.5-0.4,3.8-0.4
			c4.8,0,6.7,0.3,8.5,1c3.5,1.2,5.5,4,5.8,7.8c0.2,1.8,0.2,3.7,0.2,5.5c0,2.9-0.2,5.7-0.7,8.5c-2.6,16.6-3.5,33.3-3.5,49.9
			c0,10.8,0.3,21.7,0.8,32.5c0.2,4.9,0.2,9.9,0.2,14.9v14.9c0,0.9,0,1.9-0.2,2.7c-1.6,7.6-5.4,10.6-13.7,10.6
			C771.7,908.8,769,908.2,766.1,907.2z"/>
		<path class="st0" d="M824.3,906.6c-2.2-1.1-4.7-2.1-6.9-3.4c-7.8-4.5-12.7-11.2-14.9-20c-2.8-10.9-3.6-22-4.4-33.1
			c-0.5-7.1-0.8-14.2-0.8-21.3c0-4.8,0.2-9.6,0.5-14.4c0.9-12.2,3-23.9,7.8-35.1c2.7-6.5,7-11.9,12.1-16.7c3.4-3.2,7.6-4.9,12.2-5.2
			l2.9-0.1c8.6,0,16.7,2,24.6,5.9c2.5,1.3,4.8,3.1,6.7,5.3c3,3.4,4.9,7,4.9,10.9c0,2.2-0.7,4.5-1.9,6.9c-0.7,1.1-1.1,2.5-1.7,3.7
			c-0.8,1.6-1.9,3-3.4,4.1c-2.5,1.7-6,2.5-9.4,2.5c-3.6,0-7.2-0.9-9.7-2.9c-1.5-1.1-2.3-1.8-3-1.8c-0.9,0-1.6,0.9-3.1,3.2
			c-3.9,6.2-6.9,12.7-7.7,20c-0.8,6.6-1.3,13.1-1.3,19.7c0,9.6,1.1,19.2,3.6,28.7c1.1,4.1,2.7,7.9,4.9,11.5c1.6-0.3,2.3-1.5,3.2-2.5
			c0.7-0.8,1.3-1.6,2.1-2.5c3.4-3.8,7.3-5.6,11.2-5.6c2.3,0,4.7,0.6,7.1,1.8c5.4,2.8,8.3,8,8.3,14.1c0,1.1-0.1,2.2-0.2,3.4
			c-1,6.3-4.9,10.9-8.7,15.5c-3.7,4.5-8.2,7.6-14.4,8.5c-3.2,0.5-6.4,0.9-9.6,0.9C831.4,908.9,827.8,908.4,824.3,906.6z"/>
	</g>
	<g>
		<path class="st1" d="M832.5,686.5c6.7-1,13.4-4.1,18.3-8.4c5.6-4.9,9.9-13.8,6.1-21.1c-4.4-8.3-12.8-7.3-18.7-2.4
			c-3.6,3-5.5,9.9-6.6,14.2c-0.7,2.8-1.4,5.6-2.4,8.3c-0.4,1.1-0.9,2.2-1.5,3.2C824.4,686.1,825.3,687.6,832.5,686.5z M843.3,672.8
			c1.1-3.8,4.1-8.6,7.2-11.1c0.4-0.3,1-0.2,1.1,0.3c1.3,4.5-2.2,12-7.6,11.7C843.5,673.7,843.1,673.3,843.3,672.8z"/>
		<path class="st1" d="M806.2,692.9c18.6-25.6,29.6-63.8,16.4-94.2c-9.4-21.7-45.2-35.6-54.9-4.3c-6.5,21,6.5,39.5,3.4,61
			c-4.2,28.9-24.7,54.1-49.7,69.9c-11.5,7.3-11.9,11.1,0.5,9.7C753.9,731.5,786.8,719.7,806.2,692.9z M796.3,587.8
			c25.1,3.2,26.9,46.7,15,62.3c-0.7,0.9-2.1,0.6-2.1-0.6c-1.1-20.7-0.5-43.3-13.4-60.7C795.4,588.4,795.8,587.8,796.3,587.8z"/>
		<path class="st1" d="M828.2,699.3c-7.4,3-14,8.9-19.9,14c-5.4,4.7-10.6,8.7-16.3,12.3c-10.6,6.8-9.5,7.5-1,9.5
			c11.4,2.7,23.8,1.5,35-0.8c5.1-1,11.7-2.3,17.4-5.3C868,716.5,858.9,686.9,828.2,699.3z M847.5,714c-1.7,7.7-14.7,10.8-21.5,9.1
			c-0.3-0.1-0.5-0.5-0.3-0.8c2.4-3.2,6.3-4.5,9.7-6.4c3.8-2,7-3.9,11.3-3.3C847.4,712.7,847.6,713.5,847.5,714z"/>
		<path class="st1" d="M289.6,725.5c-5.7-3.6-10.9-7.6-16.3-12.3c-5.9-5.1-12.6-11-19.9-14c-30.7-12.3-39.7,17.2-15.2,29.7
			c5.7,2.9,12.3,4.2,17.4,5.3c11.3,2.3,23.7,3.5,35.1,0.8C299.1,733,300.2,732.3,289.6,725.5z M255.6,723.1
			c-6.8,1.7-19.8-1.4-21.5-9.1c-0.1-0.5,0.1-1.2,0.7-1.3c4.3-0.6,7.6,1.3,11.3,3.3c3.5,1.8,7.3,3.2,9.7,6.4
			C256.1,722.6,255.9,723,255.6,723.1z"/>
		<path class="st1" d="M230.9,678.1c4.9,4.3,11.6,7.5,18.3,8.4c7.1,1,8.1-0.5,4.7-6.3c-0.6-1-1.1-2-1.5-3.2
			c-0.9-2.7-1.6-5.5-2.4-8.3c-1.1-4.3-3-11.2-6.6-14.2c-5.9-4.9-14.3-5.9-18.6,2.4C220.9,664.3,225.3,673.2,230.9,678.1z M230.1,662
			c0.2-0.5,0.7-0.6,1.1-0.3c3.1,2.5,6.1,7.3,7.2,11.1c0.1,0.5-0.2,0.9-0.7,0.9C232.3,674,228.7,666.6,230.1,662z"/>
		<path class="st1" d="M360.3,725.3c-25-15.7-45.5-40.9-49.7-69.9c-3.1-21.5,9.8-40,3.4-61c-9.6-31.4-45.5-17.4-54.9,4.3
			c-13.2,30.5-2.1,68.6,16.4,94.2c19.4,26.7,52.3,38.6,84.3,42.1C372.2,736.4,371.8,732.5,360.3,725.3z M285.9,588.8
			c-13,17.3-12.3,39.9-13.4,60.7c-0.1,1.2-1.5,1.5-2.1,0.6c-12-15.5-10.1-59.1,15-62.3C285.8,587.8,286.2,588.4,285.9,588.8z"/>
		<path class="st1" d="M730.8,687.8c23.5-24.5,23.3-56.9,0.6-81.1c-26.1-27.8-69.9-40.5-105.9-49.6c-69.7-17.7-181.4-6.6-236.9,21.8
			c-73,37.4-74.5,100.7-0.4,139.3c55.5,29,127.7,29.4,188.5,25.3C629.9,740,692.8,727.5,730.8,687.8z M471.4,699.2
			c-0.8,4.8-2.1,7.3-4.1,7.3h-57c-1.9,0-3.2-2.4-3.9-7.3c-0.5-2.4-0.7-4.8-0.7-7.3c0-2.5,0.2-4.9,0.7-7.3c0.7-4.8,2-7.3,3.9-7.3
			h11.7v-60.2h-12c-1.9,0-3.3-2.4-4.1-7.3c-0.3-2.4-0.5-4.8-0.5-7.3c0-2.5,0.2-4.9,0.5-7.3c0.8-4.8,2.1-7.3,4.1-7.3h56.8
			c1.9,0,3.2,2.4,3.9,7.3c0.4,2.4,0.7,4.8,0.7,7.3c0,2.5-0.2,4.9-0.7,7.3c-0.7,4.8-2,7.3-3.9,7.3h-11.3v60.2h11.8
			c1.9,0,3.3,2.4,4.1,7.3c0.4,2.4,0.7,4.8,0.7,7.3C472.1,694.4,471.9,696.8,471.4,699.2z M509.3,630c0,2-1.6,3.5-4.9,4.4
			c-1.6,0.5-3.2,0.7-4.7,0.7c-1.6,0-3.2-0.2-4.7-0.7c-3.2-0.9-4.7-2.4-4.7-4.4l-3.4-35.7c0-2,2.1-3.5,6.4-4.4
			c2.1-0.4,4.3-0.7,6.4-0.7c2.1,0,4.3,0.2,6.4,0.7c4.4,0.9,6.6,2.4,6.6,4.4L509.3,630z M664.3,705.7c-4.4,0.6-8.3,0.8-11.7,0.8
			c-10,0-15-1.1-15-3.4l-3.5-67.8l-20.6,68.6c-0.5,1.4-4.3,2-11.5,2c-7.2,0-10.9-0.6-11.2-1.9l-21.3-69.5l-2.4,67.5
			c-0.1,1.7-2.3,2.8-6.4,3.5c-4.2,0.6-7.6,0.9-10.4,0.9c-2.8,0-5.4-0.2-8-0.5c-5.4-0.8-8.1-2.2-7.9-4.2l3.9-109.9
			c0-2.7,6.9-4.1,20.6-4.1c4.1,0,9,0.3,14.9,0.9c5.9,0.6,9.1,1.8,9.8,3.6l18.9,53.3l16.6-53.4c1-2.9,8.8-4.4,23.3-4.4
			c4.2,0,9.2,0.3,15,0.9c5.8,0.6,8.7,1.7,8.7,3.3l4.9,110.9C670.9,704.3,668.7,705.2,664.3,705.7z"/>
	</g>
	<g>
		<path class="st1" d="M857.5,546.7c-20.8,0-41.7,0-62.5,0c0-0.5-0.1-1-0.1-1.6c6.3-1.9,12.7-3.8,19-5.7c6.3-1.9,9.6-5.6,9.3-12.9
			c-0.5-12.6-0.1-25.3-0.1-37.9c0-8.8-1.9-11.2-10.2-14.8c-16-6.8-24-19.6-24.6-36.5c-0.6-16.6,4.3-32,12.4-46.4
			c1-1.7,3.8-3.4,5.8-3.4c13.3-0.3,26.5-0.3,39.8,0c2,0,5,1.7,5.9,3.4c8.5,15.8,14,32.5,11.9,50.8c-1.9,16-10.6,27.1-25.8,32.8
			c-5.4,2-8.4,5.6-8.4,11.6c0,14.1,0.2,28.2-0.1,42.3c-0.1,5.6,2.5,8.7,7.3,10.3c6.7,2.2,13.5,4.3,20.3,6.4
			C857.4,545.7,857.4,546.2,857.5,546.7z M806.7,396.5c-0.8-0.2-1.6-0.3-2.4-0.5c-2.8,9.3-6.9,18.5-8,28.1c-1,8.9,0.2,18.4,2.1,27.3
			c1.6,7.2,7.5,11.9,11.8,12.8C799,442.3,800.6,419.5,806.7,396.5z"/>
		<path class="st1" d="M224.2,545.1c6.8-2.1,13.6-4.2,20.3-6.4c4.9-1.6,7.4-4.7,7.3-10.3c-0.3-14.1-0.1-28.2-0.1-42.3
			c0-5.9-3-9.6-8.4-11.6c-15.3-5.7-24-16.8-25.8-32.8c-2.1-18.2,3.4-34.9,11.9-50.8c0.9-1.7,3.9-3.4,5.9-3.4
			c13.3-0.3,26.5-0.3,39.8,0c2,0,4.8,1.7,5.8,3.4c8.1,14.4,13,29.8,12.4,46.4c-0.6,17-8.6,29.7-24.6,36.5
			c-8.4,3.6-10.2,5.9-10.2,14.8c0,12.6,0.4,25.3-0.1,37.9c-0.3,7.3,3,10.9,9.3,12.9c6.3,2,12.7,3.8,19,5.7c0,0.5-0.1,1-0.1,1.6
			c-20.8,0-41.7,0-62.5,0C224.2,546.2,224.2,545.7,224.2,545.1z M271.3,464.2c4.3-0.9,10.3-5.6,11.8-12.8c1.9-8.9,3.1-18.4,2.1-27.3
			c-1.1-9.5-5.2-18.7-8-28.1c-0.8,0.2-1.6,0.3-2.4,0.5C281.1,419.5,282.7,442.3,271.3,464.2z"/>
	</g>
</g>
</svg>
