<?xml version="1.0" encoding="utf-8"?>
<!-- Generator: Adobe Illustrator 22.0.0, SVG Export Plug-In . SVG Version: 6.00 Build 0)  -->
<svg version="1.1" id="Layer_1" xmlns="http://www.w3.org/2000/svg" xmlns:xlink="http://www.w3.org/1999/xlink" x="0px" y="0px"
	 viewBox="0 0 1080 1080" style="enable-background:new 0 0 1080 1080;" xml:space="preserve">
<style type="text/css">
	.st0{fill:#F11111;}
	.st1{fill:#2E3C9B;}
	.st2{fill:#2A4F7B;}
</style>
<g>
	<g>
		<g>
			<path class="st0" d="M628.6,860.6l-0.8-0.3c-2.2,1.5-4.4,0.9-6.5,0c-64.2,1-128.4,0.9-192.6,0c-4.9,1.7-10.6-0.5-15.5,1.9
				c0.4,3.1,3,5.1,4.9,7.5c10.4,13.3,22.9,23.6,45,20.2c42.8,0,85.5,0,128.3,0c1-0.1,2.1-0.3,3.1-0.4c11.3-0.3,35-18.5,36.2-27.8
				c0.1-0.4-0.8-0.9-1.2-1.4L628.6,860.6z"/>
			<path class="st0" d="M670.5,807.9c-3.6,0-7.1,0-10.7,0c-75.7,0-151.3,0-227,0c-19.2,1.5-38.4,0.1-57.6,0.2c-4.9,0-9.1,0-4.7,5.5
				c5.7,7.2,12,14,16.6,21.8c1.8,3,6.1,3.8,10,3.7c19.7-0.4,39.3-1.5,58.9-1.6c63-0.2,126,0,189-0.2c3.5,0,8.9,2.5,10.7-2.7
				c0,0,0.1-0.1,0.1-0.1c10.2-6.9,15.3-16.5,21-25.8C674.7,808.4,672.6,808.1,670.5,807.9z"/>
			<path class="st0" d="M566.1,913.1c-32.4,0-64.8,0-100,0c11.9,10.2,22.8,16.5,34.4,22.1c14.2,6.8,28.1,6.9,42.3,0
				c12.3-5.9,23.5-12.8,33.1-21.4c0,0,0-0.1,0-0.1c-2.1-0.2-4.1-0.5-6.2-0.7C568.6,913.1,567.3,913.1,566.1,913.1z"/>
		</g>
	</g>
	<g>
		<g>
			<path class="st1" d="M893.1,493.5c-41.2,0-82.4,0-123.6,0c-2.3,0-4.6,0.3-6.9,0.5c45.1-0.2,90.3-0.2,135.4-0.2
				C896.4,493.7,894.7,493.5,893.1,493.5z"/>
			<path class="st1" d="M751.7,487.1c0.4-5,0.3-10.1,0.5-15.1c-1.8-6.3-1.8-12.6,0-18.8c-0.5-3.1-0.9-6.1-1.4-9.2
				c-0.1-0.1-0.1-0.2-0.2-0.4v90.5c0.6,0,1.1,0,1.7,0l0.5-0.4c-1.8-7.1-1.1-14.3-0.3-21.4c-0.1-0.4-0.2-0.9-0.4-1.3
				c-1.7-5.2-1.6-10.4-0.1-15.6l-0.1-0.2c1-1,2-1.5,3.1-1.8C752.3,492.4,751.4,490.5,751.7,487.1z"/>
			<path class="st1" d="M754.9,493.4c1.3,0.5,3,0.7,5.2,0.7c0.7,0,1.3,0,2,0C759.6,493.6,757.1,492.8,754.9,493.4z"/>
			<path class="st0" d="M752.2,453.1c-0.5-3.1-0.9-6.1-1.4-9.2c2.2-4.2,4.4-8.4,6.6-12.6c3.6,0,7.1-0.1,10.7-0.1
				c44.1-0.1,88.1-0.2,132.2-0.3c7.7,5.3,8.8,12.8,9.6,20c0.4,3.6-4.5,2.3-7,2.3c-24.6,0.1-49.2,0.1-73.7,0
				C803.5,453.3,777.8,453.2,752.2,453.1z"/>
			<path class="st0" d="M898.7,493.8c-46.2,0-92.4,0-138.7,0.2c-6.6,0-8.8-1.9-8.4-6.9c0.4-5,0.3-10.1,0.5-15.1
				c50.9-0.1,101.8-0.1,152.6-0.2c4.4,0,6,1.2,4.8,4.6c-1.6,4.4-3.1,8.9-4.5,13.3C904.2,492.4,902.3,493.9,898.7,493.8z"/>
			<path class="st0" d="M877.2,534.3c-38.9,0-77.8,0-116.7,0c-2.6-0.2-5.2-0.4-7.8-0.6c-1.8-7.1-1.1-14.3-0.3-21.4
				c3.3-0.1,6.5-0.3,9.8-0.3c43.6-0.1,87.3-0.1,130.9-0.2c0.2,5.4-5.3,9.1-6.5,14.1c-1.3,0.5-1.7,1.5-1.6,2.5
				c-0.7,0.9-1.4,1.8-2.1,2.7C881.5,532.8,879.8,534.1,877.2,534.3z"/>
			<path class="st0" d="M883.8,411.3c-0.6-0.5-1.2-0.9-1.8-1.4c0,0,0.1,0.1,0.1,0.1c-3.2-1.8-6.4-3.7-9.6-5.5c0,0-0.1,0-0.1,0
				c-10.4-4.5-21.5-7.1-32.9-9.1c-1.1-0.1-2.2-0.1-3.2-0.2c-8.8,0.6-17.5,1.2-26.3,1.7c-1.6,0.4-3.3,0.8-4.9,1.2
				c-1.2,0.7-2.5,1.4-3.7,2.1c-1-0.1-1.9-0.2-2.9-0.3c-0.7,0.2-1.4,0.4-2.1,0.6c-0.4,0.9-0.8,1.7-1.3,2.6c-3.6,0.2-6.5,1.9-9.3,3.5
				c-2,1.1-6.1,1.1-5.2,3.9c0.9,2.9,4.8,2.3,7.6,2.3c13.3,0.1,26.6,0.2,39.9,0.2c1.1-0.2,2.1-0.4,3.2-0.6c-0.3,0.3-0.4,0.7-0.2,1.1
				c2.3-1.1,4.6-1,6.9,0c0.5-0.3,0.9-0.6,1.4-0.9c0.7,0.2,1.3,0.4,2,0.7c14.2-1.5,28.5,0.1,42.7-0.9
				C883.7,412.1,883.6,411.7,883.8,411.3z M803.2,405.4c-0.1-1-0.6-1.7-2.1-1.8c0,0,0,0,0,0C802.5,403.7,803.1,404.5,803.2,405.4z"
				/>
		</g>
		<g>
			<path class="st1" d="M311.4,530.5c-0.6-4.4-0.4-8.8,0-13.2v-5.8c-1.6-5.1-1.5-10.3-0.1-15.5l-0.1-0.2c0.1-0.1,0.1-0.1,0.2-0.2
				v-4.3c-0.4-1-0.5-2.1-0.3-3.6c0.2-2.3,0.3-4.5,0.3-6.8v-9.1c-1.5-5.9-1.6-11.8,0-17.7v-1.7c-0.4-2.7-0.8-5.5-1.2-8.2
				c-8.9-21.8-25.6-37.6-53.1-45.3c-18.5-5.2-36.7-4.8-55,0.4c-1.8,0.5-4.4,2.1-1.6,3c6.7,2.3-0.3,4.8,0.7,7.1
				c-2.4-1.4-7.1,2.5-8.2-2.7c-0.5-2.6-3.5-3-6.4-1.2c-2.8,1.8-5.8,3.4-8.7,5c-3.9,2.2-4.6,4.9-0.1,6.5c5.7,2-0.8,3.7,0.3,5.8
				c1.1,2.1-1.9,0.6-3,0.9c-5.2,1.6-5.2-2.2-7.3-5.2c-10.3,10.8-16.6,21.9-18.7,34.7c-0.6,3.4,2.3,5.4,4.7,6.4
				c6.4,2.8-1.3,4.7-0.1,7c-7.8-1.2-4.6,3.9-4.2,5.7c1.2,5.7-1.7,12.7,6.6,16.7c0.3,0.1,0.2,1.3-0.2,1.7c-2.9,2.8-0.5,5.7,0.5,8.2
				c4.5,11.2,10.3,21.9,16.8,32.5c1.3,2,2.5,4,5.9,4c1.1,0,2.3,0,3.4,0c1.1,0,2.2,0,3.2,0c5,0,10,0,15,0c7.2-0.4,14.4-0.7,21.5,0
				c12.2,0,24.3,0,36.5,0h13.2c11.1,0,22.1,0,33.2,0c2.1-0.1,4.2-0.1,6.3-0.2V530.5z M174.2,442c1.4,2,6.7,2.1,5.4,4.3
				c-0.8,1.4,1.5,7.8-5.5,4.5c-6.9,2.5-3.4-3.6-6.2-4.5C169.1,444,172.2,443.5,174.2,442z M173.9,505.7c-7,2.7-4.7-3.2-5.3-4.4
				c-1.1-2.2,4-2.4,5.4-4.4c2,1.5,5.1,2.1,6.4,4.3C177.3,502,180.9,508.8,173.9,505.7z M173.8,478.4c-5.9,2.5-4.7-2.6-5.2-4.2
				c-0.9-3,4.3-2.7,5.7-4.8c2,1.4,4,2.9,6,4.3C177.6,474.7,180.6,480.5,173.8,478.4z M203,518.9c-0.6,1.5,1.1,7.3-5.4,4.3
				c-6.9,2.5-3.3-3.8-6.2-4.5c1.3-2.2,4.3-2.9,6.4-4.3C198.9,516.3,204.1,516.2,203,518.9z M203.1,490.5c-0.7,1.9,0.3,7-5.6,4.3
				c-6.9,1.8-3.1-4.1-6.2-4.8c2.1-1.4,4.1-2.9,6.2-4.3C198.2,488.2,204.3,487.2,203.1,490.5z M191.5,461.7c0.9-2.4,4.2-2.9,6.1-4.5
				c1.8,1.6,6,2.3,5.5,4.5c-0.4,1.5,1,7.1-5.4,4.3C190.6,468.8,194.5,462.3,191.5,461.7z M203.2,433c-0.9,1.5,1.6,7.7-5.5,4.6
				c-7,2.7-5.3-3.1-5.8-4.5c-0.8-2.3,4-2.5,5.7-4.3C199.2,430.6,204.2,431.2,203.2,433z M221,450.9c-7.3,1.9-3.1-4.1-6.3-4.7
				c2.1-1.4,4.2-2.8,6.3-4.2c1.2,2.2,5.4,1.7,6.1,4.3C223.5,446.6,229.1,455.7,221,450.9z M226.7,473.7c-0.7,1.4,1.1,6.2-5.3,4.9
				c-5.8,2.1-4.1-3.3-6.4-4.9c2-1.5,4-3.1,6.1-4.6C222,471.6,227.7,471.5,226.7,473.7z M221.5,414.3c0.7,2.5,5.2,2.1,5.7,4.8
				c-3.4,0.2,1.1,7.3-5.9,4.4c-6.9,2.4-3.5-3.9-6.5-4.8C217,417.2,219.2,415.8,221.5,414.3z M222.5,506.4c-6.1,0.6-5.7-2.7-7.8-5.5
				c2-1.3,4.1-2.7,6.3-4.2c1.8,1.8,5.1,2.2,6.2,4.5C223.9,501.8,228,505.9,222.5,506.4z M249.9,433.2c-0.5,1.3,1.3,7.1-5.4,4.4
				c-6.5,2.1-3.5-3.7-6.3-4.7c2-1.5,4-3,6-4.5C245.4,430.7,251,430.5,249.9,433.2z M250.5,461.7c-3.4,0.2,1,7.1-5.9,4.3
				c-6.2,2.5-3.5-3.4-6.1-4.3c2-1.7,4.1-3.5,6.1-5.2C245.1,459.4,249.9,459,250.5,461.7z M250,518.6c-0.8,1.4,1.5,7.3-5.5,4.5
				c-6.7,2.4-3.3-3.8-6.2-4.7l6.4-4.1C245.7,516.5,251.4,516.3,250,518.6z M244.4,494.8c-7.1,1.7-2.8-4.2-6-4.9c2-1.5,4-4.1,6-4.2
				c2.1,0,4.2,2.5,6.4,3.8C247.5,490.5,251.7,497.8,244.4,494.8z M244.5,409.2c-5.8,2.3-5-3-5.6-4.5c-0.9-2.6,4.7-2.4,5.6-5
				c1.1,2.4,4.4,2.8,6.2,4.5C247.6,404.9,251.1,410.8,244.5,409.2z M291.3,428.8c1.8,1.6,6.7,2.3,5.6,4.1c-1,1.6,1.3,7.9-5.7,4.8
				c-7,2.3-3-3.9-6-4.6C286.2,430.6,289.8,430.6,291.3,428.8z M268,414.3c1.2,2.1,6,2.6,5.2,4.9c-0.5,1.5,0.6,6.9-5.5,4.3
				c-6.6,1.9-3.1-3.9-6.1-4.7L268,414.3z M267.7,441.6c0.8,2.6,7,2.1,5.6,4.7c-0.7,1.4,1.8,8.5-5.4,4.6c-7.1,1.9-2.9-4.2-6.3-4.7
				L267.7,441.6z M267.6,505.8c-6.3,2.2-4.7-3-5.2-4.3c-0.9-2.8,4-3.1,5.6-5.1c2,1.6,4,3.1,6,4.7C270.9,502,274.2,508.5,267.6,505.8
				z M267.5,478.4c-6.6,1.9-2.4-4.1-5.7-4.5c0.6-2.7,5.3-2.4,6-5c2.1,1.6,4.1,3.3,6.2,4.9C271.4,475.1,273.6,480.9,267.5,478.4z
				 M297,518.7c-0.5,1.7,0.5,7.6-6.1,4.4c-6.8,2.2-4.3-3-5.1-4.4c-1.6-2.7,4.5-2.2,5-4.7C292.2,516.4,297.9,515.8,297,518.7z
				 M291.2,494.8c-6.8,1.6-3-4.1-6-5c2.1-1.3,4.2-3.5,6.4-3.7c1.8-0.1,3.8,2.3,5.8,3.6C294.6,491,297.6,497,291.2,494.8z M291,466.2
				c-6.7,1.9-2.8-4.2-6.1-4.8c2.1-1.4,4.3-2.8,6.4-4.3c1.6,1.9,5,2.1,6.1,4.4C294.2,462.2,297.8,469.1,291,466.2z"/>
			<path class="st0" d="M311.4,441.9c-0.4,0.8-0.8,1.5-1.2,2.3c0.4,2.7,0.8,5.5,1.2,8.2V441.9z"/>
			<path class="st0" d="M311.4,480.9c-0.1,2.3-0.1,4.6-0.3,6.8c-0.1,1.5,0,2.6,0.3,3.6V480.9z"/>
			<path class="st0" d="M311.4,517.3c-0.4,4.4-0.6,8.8,0,13.2V517.3z"/>
		</g>
	</g>
	<g>
		<path class="st0" d="M346.5,432.7c0,3.4-1.8,5.1-5.5,5.1c-1.9,0-3.7-0.7-5.5-2v0.2c-1.2-0.8-1.8-2.5-1.8-4.9c0-4.1,0.2-8,0.5-11.8
			c0.3-3.7,0.6-7.6,0.9-11.5v-1.2c0-1.1,0.1-2.1,0.3-3c0.2-0.9,0.8-1.7,1.7-2.4c1.1-1,2.3-1.4,3.7-1.4c1,0,1.9,0.3,2.9,0.8
			c0.7,0.4,1.1,1.1,1.2,2c0.1,1,0.3,1.9,0.6,2.9v3.9c19.9-6.5,40.1-10,60.7-10.4c2.5,0,4.8,0.1,7.2,0.3c2.3,0.2,4.6,0.6,6.9,1.3
			c0.4-1.9,1-3.4,1.7-4.6c0.7-1.2,2.1-1.7,4.2-1.7c1.4,0,2.5,0.3,3.3,1c0.7,0.4,1.1,1,1.2,1.8c0.1,0.8,0.2,1.7,0.2,2.7
			c0.3,3.3,0.4,6.4,0.4,9.5s0.1,6.2,0.4,9.3c0,1.4,0,2.8,0,4.2c0,1.4,0.1,2.8,0.4,4.2c0,1.9-0.5,3.3-1.5,4.1c-1,0.8-2.2,1.2-3.6,1.2
			c-1.6,0-3.3-0.4-5-1.3c-1.7-0.9-2.6-2.3-2.6-4.2v-1v-3.1c0-1.5,0.1-3,0.2-4.6c0.1-1.6,0.2-3.1,0.2-4.6c-6.7,0-13,0.2-18.9,0.6
			s-11.7,1.5-17.3,3.3c1,0.4,2,0.9,3.2,1.4c1.2,0.5,2.3,1.2,3.4,1.8c1.1,0.7,2,1.4,2.8,2.2c0.7,0.8,1.1,1.8,1.1,2.9
			c0,0.8-0.2,2-0.6,3.5c-1.9,8.3-3.1,16.5-3.5,24.5c-1,11.4-1.7,22.8-2.4,34c-0.6,11.2-0.9,22.5-0.9,33.8c0,1.8,0,3.5,0.1,5.1
			c0.1,1.6,0.1,3.3,0.1,5.1c0,0.3,0,0.6,0,0.9c0,0.3,0.1,0.7,0.4,1.1c1.1-0.3,2.2-0.4,3.3-0.4c1.1,0,2.3,0,3.7,0
			c2.5,0,3.8,0.7,4.1,2.2c0.3,0.7,0.4,1.3,0.5,1.7c0.1,0.5,0.1,1.1,0.1,1.7c0,1.6-0.5,3.4-1.6,5.3c-0.7,1.1-2.1,1.6-4.3,1.6
			c-0.7-0.3-1.3-0.4-1.7-0.4c-0.5,0-0.9,0-1.3,0c-3.1,0-6.3-0.1-9.5-0.2c-3.2-0.1-6.4-0.3-9.5-0.6c-2.3,0-4.1-0.5-5.4-1.5
			c-1.3-1-1.9-2.6-1.9-4.8c0-1.1,0.3-2.1,0.8-3.1c0.4-0.7,1-1.1,1.7-1.1c0.7-0.1,1.6-0.1,2.6-0.1h4.1c-2-15.1-3.1-30.2-3.1-45.2
			c0-2.6,0-5.1,0.1-7.6c0.1-2.5,0.2-5,0.3-7.6c0-4,0.1-7.9,0.2-11.9c0.1-4,0.2-7.9,0.2-11.9c0.3-4.8,0.7-9.7,1.4-14.7
			c0.7-5,1.4-10,2-14.9V419c-3.3,0.4-6.4,1-9.3,1.7c-2.9,0.8-5.8,1.8-8.7,3.2c-1.8,0.7-3.5,1.4-5.1,2.2c-1.6,0.8-3.1,1.8-4.5,2.9
			V432.7z"/>
		<path class="st0" d="M512.5,531.8c1.9,0,3.2,0.5,3.8,1.6c0.6,1.1,0.9,2.5,0.9,4.3c0,1.8-0.4,3.4-1.3,4.8c-0.9,1.4-2.3,2.1-4.2,2.1
			c-0.4-0.3-0.9-0.4-1.3-0.4c-0.5,0-0.9,0-1.3,0h-4.5c-1.6,0-3.4-0.2-5.3-0.6c-1.4,0-2.6-0.1-3.7-0.2c-1.1-0.1-2.2-0.2-3.3-0.2
			c-1.1,0-2.2-0.1-3.4-0.4c-1.2-0.3-1.9-0.9-2.4-1.8c-0.7-1-1-2.2-1-3.7c0-1.1,0.2-2.2,0.6-3.5c0.4-0.7,1-1.1,1.7-1.1
			c0.7-0.1,1.5-0.1,2.1-0.1h0.4c-1.4-6.5-2.3-13.2-2.9-19.9c-0.5-6.7-1-13.6-1.4-20.5c0-1.4-0.1-2.1-0.4-2.3
			c-0.3-0.2-1.2-0.3-2.7-0.3c-3.1,0.4-6.2,0.8-9.3,1.2c-3.1,0.4-6.2,0.6-9.3,0.6c-1.4,0-2.1,0.3-2.1,1c-0.1,0.7-0.1,1.4-0.1,2
			c0,11.6,1.4,23.4,4.1,35.6v1.8h4.9c1.9,0,3.1,0.5,3.7,1.5c0.5,1,0.8,2.4,0.8,4.2c0,1.8-0.4,3.4-1.3,4.8c-0.9,1.4-2.3,2.1-4.2,2.1
			c-0.4-0.3-0.9-0.4-1.3-0.4c-0.5,0-0.9,0-1.3,0c-2.9,0-5.7-0.1-8.4-0.3c-2.7-0.2-5.5-0.4-8.2-0.7c-1.1,0-2.2-0.1-3.4-0.4
			c-1.2-0.3-1.9-0.9-2.4-1.8c-0.8-1.2-1.2-2.5-1.2-3.7c0-1,0.2-2,0.6-3.3c0.4-0.7,1-1.1,1.8-1.1c0.8-0.1,1.6-0.1,2.2-0.1h4.3
			c-1.1-1.4-1.8-3-2.2-4.9c-0.4-2.3-0.7-4.6-0.9-6.8c-0.2-2.2-0.4-4.5-0.7-6.8c-0.4-3.1-0.8-6.3-1-9.6c-0.3-3.3-0.5-6.5-0.8-9.8
			c0-2.2-1-3.1-3.1-2.7c-1.1,0-2.2-0.1-3.5-0.2c-1.2-0.1-2.4-0.2-3.5-0.2v0.6c-5.3-1.4-8-5.7-8-12.9c0-1.1,0.2-1.9,0.5-2.3
			c0.3-0.5,1.2-0.6,2.6-0.3c1.8,0.3,3.7,0.6,5.9,1c2.2,0.4,4.3,0.6,6.3,0.6c1.1,0,1.6-0.5,1.6-1.6c0-0.3,0-0.5-0.1-0.8
			c-0.1-0.3-0.1-0.5-0.1-0.8c-0.4-8-0.6-15.9-0.6-23.7c0-4,0-7.9,0.1-11.8c0.1-3.9,0.1-7.8,0.1-11.8c0-4.5,0.4-8.9,1.2-13.1
			c-1.5-0.4-2.8-1-3.8-1.6c-1-0.7-1.5-2-1.5-3.9c0-1.1,0.3-2.3,1-3.7c0.3-0.7,0.7-1.1,1.4-1.2c0.7-0.1,1.4-0.2,2-0.2
			c2.7-0.3,5.3-0.4,7.9-0.4c2.5,0,5.1,0,7.9,0c2.3-0.4,4.7-0.6,7.2-0.6h1c1.4,0,2.2,0.5,2.6,1.6c0.3,1.1,0.5,2.4,0.5,3.9
			c0,1.8-0.4,3.4-1.3,5c-0.9,1.6-2.3,2.4-4.2,2.4c-0.4-0.4-0.8-0.6-1.2-0.6c-0.4,1.5-0.7,3-0.8,4.4c-0.1,1.4-0.3,2.9-0.6,4.4
			c-1,8.5-1.6,16.9-1.9,25.3c-0.3,8.4-0.7,16.9-1.1,25.3c0,1.9,0.2,3,0.6,3.4c0.4,0.3,1.6,0.5,3.5,0.5h17.2c1.5,0,2.4-0.2,2.7-0.6
			c0.3-0.4,0.4-1.4,0.4-2.9v-21.1c0-6.5,0.1-13,0.4-19.4c0.3-6.4,0.4-12.9,0.4-19.4c0-1.5,0.1-3,0.2-4.6c0.1-1.6,0.3-3.1,0.6-4.6
			c-1.6,0-2.9-0.5-3.7-1.6c-0.8-1.1-1.2-2.4-1.2-3.9c0-1.1,0.3-2.2,1-3.3c0.3-0.7,0.7-1.1,1.4-1.1c0.7-0.1,1.4-0.1,2-0.1
			c2.7-0.3,5.4-0.4,8-0.5c2.6-0.1,5.2-0.2,8-0.5c1.1,0,2.2-0.1,3.3-0.2c1.1-0.1,2.3-0.2,3.7-0.2c2,0,3.2,0.8,3.5,2.2
			c0.3,0.7,0.5,1.3,0.6,1.8c0.1,0.5,0.2,1.2,0.2,1.8c0,1.8-0.4,3.3-1.3,4.7c-0.9,1.4-2.3,2-4.2,2h-1c-1.1,7.4-2,15-2.8,23
			c-0.8,8-1.3,15.8-1.5,23.6v20.8c0,1.5,0.1,2.4,0.3,2.6c0.2,0.2,1,0.2,2.3-0.1c1.1,0,2.2,0,3.5-0.1c1.2-0.1,2.5-0.1,3.7-0.1
			c0.7,0,1.3,0,1.8,0c0.5,0,1.2,0.1,1.8,0.2c-1.9,4.6-4.6,7.3-8.2,8c-0.4,0.3-0.9,0.5-1.5,0.7c-0.6,0.2-1.1,0.3-1.5,0.3
			c-1.5,0.3-2.2,1.2-2.2,2.7c0,1,0,1.8,0,2.6c0,0.8,0.1,1.6,0.4,2.6c0.3,6.5,0.6,12.9,1.1,19.2c0.5,6.3,1.4,12.5,2.8,18.6H512.5z"/>
		<path class="st0" d="M529.3,527.3c0-2.9,0.2-5.6,0.7-8.2c0.5-2.6,0.7-5.2,0.7-8c0-0.8-0.2-1.4-0.6-1.6c-0.4-0.3-1.3-0.5-2.7-0.8
			c-5.7-1.8-9.2-5.4-10.4-11c-0.3-1.1-0.4-1.7-0.4-1.8c0-1.2,0.7-1.8,2-1.8c0.3,0,0.5,0,0.7,0.1c0.2,0.1,0.4,0.1,0.7,0.1
			c1.5,0.4,3,0.7,4.6,1c1.6,0.3,3.2,0.4,5,0.4c0.7,0.1,1.4,0.2,2,0.2c0.7,0,1.1-0.2,1.2-0.7c0.1-0.5,0.3-1.4,0.6-2.8
			c1.4-7.1,2.7-14,3.9-20.7c1.2-6.7,2.7-13.6,4.5-20.5c3.8-13.8,9-27.5,15.5-41.3c1.4-2.7,3.2-5.3,5.4-7.7c2.2-2.4,5.1-3.6,8.7-3.6
			c0.3,0,0.6,0,1,0.1c0.4,0.1,0.7,0.1,1,0.1c4.2,0.5,7.7,1.8,10.4,3.9c2.7,2,5,4.6,6.7,7.7c1.8,3.1,3.1,6.5,4,10.4
			c0.9,3.9,1.6,8,2.1,12.4c1.4,9.5,2.4,19.1,3.1,28.6c0.7,9.5,1.2,19.2,1.4,29c0,1.5,0.1,2.4,0.4,2.7c0.3,0.3,1.3,0.3,3.1,0
			c0.7-0.3,1.3-0.4,1.9-0.3c0.6,0.1,1.3,0.6,1.9,1.5c1,1.8,0.8,3.3-0.4,4.5c-0.7,0.4-1.3,0.9-1.7,1.5c-0.5,0.6-1.1,1.1-1.7,1.5
			c-1.9,1-2.9,2.3-2.9,4.1c0,0.3,0,0.5,0.1,0.8c0.1,0.3,0.1,0.5,0.1,0.8c0.3,4,0.6,7.9,0.9,11.9c0.3,4,0.6,7.9,0.9,11.9h3.1
			c2,0,3.2,0.7,3.5,2.2c0.5,1.1,0.8,2.2,0.8,3.5c0,1.6-0.5,3.4-1.6,5.3c-0.8,1.2-2.2,1.8-4.1,1.8c-0.8-0.4-1.5-0.6-2-0.6
			c-2.9,0-5.7-0.1-8.6-0.2c-2.9-0.1-5.7-0.3-8.6-0.6c-1.8,0-3.3-0.4-4.7-1.3c-1.4-0.9-2-2.3-2-4.2c0-1.1,0.3-2.3,1-3.7
			c0.3-0.7,0.7-1.1,1.4-1.2c0.7-0.1,1.5-0.2,2.5-0.2h2.7c-0.3-2.9-0.5-5.8-0.6-8.8c-0.1-3-0.3-5.9-0.6-8.8c-0.3-2.7-0.5-4.5-0.7-5.3
			c-0.2-0.8-0.8-1.2-1.7-1.2c-0.5,0-1.2,0-1.9,0.1c-0.7,0.1-1.8,0.2-3.2,0.3c-4.4,0.3-8.8,0.6-13.4,0.9c-4.6,0.3-9,0.5-13.4,0.5
			c-1.9,0-3.1,0.2-3.5,0.5c-0.4,0.3-0.7,1.5-1,3.4c-0.4,2.5-0.7,4.8-0.9,7.1c-0.2,2.3-0.3,4.6-0.3,7.1h2.7c1.6,0,2.8,0.4,3.4,1.3
			c0.6,0.9,0.9,2,0.9,3.4c0,1.9-0.4,3.7-1.3,5.4c-0.9,1.7-2.3,2.6-4.4,2.6c-3.4,0-6.7-0.1-9.8-0.4c-3.1-0.3-6.3-0.5-9.6-0.8
			c-1.1,0-2.1-0.1-3.2-0.3c-1-0.2-1.9-0.9-2.6-1.9c-0.5-1-0.8-2-0.8-3.3c0-1.2,0.3-2.3,0.8-3.3c0.3-0.7,0.8-1.1,1.5-1.2
			c0.7-0.1,1.6-0.3,2.6-0.6h3.1V527.3z M579.3,495.6c2-0.3,3.4-0.5,4.1-0.8c0.7-0.3,1-1,1-2c0-0.3,0-0.6-0.1-1
			c-0.1-0.4-0.1-0.9-0.1-1.4c-0.7-7.8-1.3-15.6-1.7-23.4c-0.5-7.8-1.1-15.6-1.7-23.4c-0.7-6.7-1.4-13.1-2-19.4
			c-0.7-6.3-2.5-11.9-5.5-17c-3.4,7.1-6.3,14.3-8.8,21.7c-2.5,7.4-4.6,14.8-6.3,22.2c-1.8,7.4-3.3,14.9-4.6,22.3
			c-1.3,7.4-2.5,14.9-3.6,22.4c0.4,0.4,0.8,0.6,1.3,0.7c0.5,0.1,0.9,0.1,1.3,0.1h10.8c2.7,0,5.4,0,8.1-0.1
			C574.1,496.3,576.8,496,579.3,495.6z"/>
		<path class="st0" d="M625.3,432.7c0,3.4-1.8,5.1-5.5,5.1c-1.9,0-3.8-0.7-5.5-2v0.2c-1.2-0.8-1.8-2.5-1.8-4.9c0-4.1,0.2-8,0.5-11.8
			c0.3-3.7,0.6-7.6,0.9-11.5v-1.2c0-1.1,0.1-2.1,0.3-3c0.2-0.9,0.8-1.7,1.7-2.4c1.1-1,2.3-1.4,3.7-1.4c1,0,1.9,0.3,2.9,0.8
			c0.7,0.4,1.1,1.1,1.2,2c0.1,1,0.3,1.9,0.6,2.9v3.9c19.9-6.5,40.1-10,60.7-10.4c2.5,0,4.8,0.1,7.2,0.3c2.3,0.2,4.6,0.6,6.9,1.3
			c0.4-1.9,1-3.4,1.7-4.6c0.7-1.2,2.1-1.7,4.2-1.7c1.4,0,2.5,0.3,3.3,1c0.7,0.4,1.1,1,1.2,1.8c0.1,0.8,0.2,1.7,0.2,2.7
			c0.3,3.3,0.4,6.4,0.4,9.5s0.1,6.2,0.4,9.3c0,1.4,0,2.8,0,4.2c0,1.4,0.1,2.8,0.4,4.2c0,1.9-0.5,3.3-1.5,4.1c-1,0.8-2.2,1.2-3.6,1.2
			c-1.6,0-3.3-0.4-5-1.3c-1.7-0.9-2.6-2.3-2.6-4.2v-1v-3.1c0-1.5,0.1-3,0.2-4.6c0.1-1.6,0.2-3.1,0.2-4.6c-6.7,0-13,0.2-18.9,0.6
			c-5.9,0.4-11.7,1.5-17.3,3.3c1,0.4,2,0.9,3.2,1.4c1.2,0.5,2.3,1.2,3.4,1.8c1.1,0.7,2,1.4,2.8,2.2c0.7,0.8,1.1,1.8,1.1,2.9
			c0,0.8-0.2,2-0.6,3.5c-1.9,8.3-3.1,16.5-3.5,24.5c-1,11.4-1.7,22.8-2.3,34c-0.6,11.2-0.9,22.5-0.9,33.8c0,1.8,0,3.5,0.1,5.1
			c0.1,1.6,0.1,3.3,0.1,5.1c0,0.3,0,0.6,0,0.9c0,0.3,0.1,0.7,0.4,1.1c1.1-0.3,2.2-0.4,3.3-0.4c1.1,0,2.3,0,3.7,0
			c2.5,0,3.8,0.7,4.1,2.2c0.3,0.7,0.4,1.3,0.5,1.7c0.1,0.5,0.1,1.1,0.1,1.7c0,1.6-0.5,3.4-1.6,5.3c-0.7,1.1-2.1,1.6-4.3,1.6
			c-0.7-0.3-1.3-0.4-1.7-0.4c-0.5,0-0.9,0-1.3,0c-3.1,0-6.3-0.1-9.5-0.2c-3.2-0.1-6.4-0.3-9.5-0.6c-2.3,0-4.1-0.5-5.4-1.5
			c-1.3-1-1.9-2.6-1.9-4.8c0-1.1,0.3-2.1,0.8-3.1c0.4-0.7,1-1.1,1.7-1.1c0.7-0.1,1.6-0.1,2.6-0.1h4.1c-2-15.1-3.1-30.2-3.1-45.2
			c0-2.6,0-5.1,0.1-7.6c0.1-2.5,0.2-5,0.3-7.6c0-4,0.1-7.9,0.2-11.9c0.1-4,0.2-7.9,0.2-11.9c0.3-4.8,0.7-9.7,1.4-14.7
			c0.7-5,1.4-10,2-14.9V419c-3.3,0.4-6.4,1-9.3,1.7c-2.9,0.8-5.8,1.8-8.7,3.2c-1.8,0.7-3.5,1.4-5.1,2.2c-1.6,0.8-3.1,1.8-4.5,2.9
			V432.7z"/>
	</g>
	<g>
		<path class="st1" d="M304,334c3.8,5.2,5.5,11,4.5,17.6c-0.7,2.8-1.4,5.5-2.1,8.3c-1.7,6.5-5.5,11.4-11.4,14.5
			c-8.6,4.5-17.9,6.2-27.6,6.5c-14.8,0.7-29.6-0.7-44.4-2.8c-9-1.4-17.9-3.1-26.9-1c-3.8,1-7.6,2.1-11.4,3.4c-3.1,1-6.2,1.7-9.6,1.4
			c-3.1-0.3-4.8-2.1-4.8-4.5c0-2.8,1.4-4.5,3.8-5.5c0.7-0.3,1.4-0.7,2.1-0.7c3.4-0.3,4.5-2.4,4.5-5.5c0.3-10.7,0.7-21.4,1-32
			c0.3-17.2,0-34.4,0.7-51.7c0.3-7.9-1.7-15.8-10-20.3c-3.1-1.7-3.8-4.5-2.4-6.9s3.8-3.1,7.2-2.4c5.9,1.4,5.9,1.4,5.9-4.5
			c-0.3-20.3,1.4-40.3,1-60.6c0-9,0-17.9,0-26.9c0-5.9,0-5.9-5.5-7.2c-3.4-0.7-5.2-2.8-4.8-5.5c0.3-3.1,2.4-4.5,5.2-5.2
			c4.8-1,9.3,0.3,13.8,1.7c6.2,1.7,12.4,3.4,18.9,3.4c5.2,0,10.3-0.7,15.2-2.8c4.5-1.7,9-3.1,13.8-3.8c2.8-0.3,5.5-0.3,7.9,1
			c2.4,1.4,3.8,3.4,3.4,6.2c-0.3,2.4-2.1,3.8-4.5,4.5c-0.3,0-0.7,0-1,0c-7.9,1-7.6,1-8.3,9c-1,17.6,0,35.1-1,52.7
			c-1,16.2-0.7,32.4-1,48.6c-0.7,23.4-1.4,46.8-2.4,70.3c-0.3,7.9-1,15.8-1,23.8c0,6.5,0,6.5,6.2,7.6c8.6,1.4,17.2,1.7,25.8,1.7
			c18.3,0.3,23.1-14.8,22.7-26.5c0-2.1-1.4-3.8-2.4-5.5c-1.7-2.8-2.4-5.5-0.3-8.3c2.1-3.1,5.2-4.1,8.6-3.4c5.2,1,9,4.1,11.7,8.3
			L304,334z M223.7,219.3c0.7-18.9,1.4-37.9,1.4-56.8c0-3.8-0.3-4.1-4.1-3.4c-6.9,1.4-13.4,0.3-20-0.3c-0.7,0-1.4,0-2.1,0
			c-2.1-0.3-3.1,0.7-3.1,2.8c0,1,0,2.1,0,3.1c0,26.9,0,53.7-1,78.5c0,8.6,0,15.5,0,22.4c0,3.1,0.7,3.8,3.1,2.8
			c7.2-3.4,14.5-3.8,21.7,0c1.7,1,2.8,0.3,2.8-1.7c0-1.7,0-3.4,0-5.2c0.3-13.4,0.3-26.9,1-40.3L223.7,219.3z M208.6,236.2
			c3.8,0.3,7.9,5.5,7.9,9.6c0,2.8-1.4,4.8-3.4,6.2c-2.4,1.4-4.8,1-7.2-0.3c-3.8-2.4-5.5-6.9-4.1-11c1-2.8,3.8-4.8,6.5-4.5H208.6z"/>
		<path class="st1" d="M519.6,369.1c1,1.7,1,3.4,0,5.2c-1.4,2.4-3.4,3.4-6.2,3.1c-5.5-0.3-11-1-16.2-3.1c-4.8-2.1-9.6-2.1-14.5,0
			c-3.4,1.4-7.2,2.8-11,3.4c-1.7,0.3-3.4,0.7-5.2,0.7c-3.8,0-5.9-1.7-6.2-4.5c-0.3-2.8,1.4-5.2,5.2-5.5c5.2-0.7,9.6-2.4,14.1-4.1
			c4.8-2.1,4.8-2.4,3.8-7.6c-3.8-16.9-7.6-33.8-11.7-50.6c-1.4-6.2-1.4-6.2-7.6-6.2c-18.9,0.3-37.9,0-56.8,1
			c-4.8,0.3-5.2,0.7-6.5,5.2c-5.5,17.2-11,34.4-16.5,51.7c-0.7,1.7-1,3.4-1.4,5.2c-1,3.4-0.7,3.8,2.8,4.5c1.4,0.3,3.1,0.7,4.5,1.4
			c2.4,1,4.1,3.1,3.8,5.9c-0.3,2.8-2.1,4.5-4.8,4.8c-2.4,0.3-4.8,0-7.2-0.7c-3.8-1-7.9-1.7-11.7-3.1c-6.5-2.4-12.7-2.1-18.9,0.3
			c-5.9,2.1-12.1,3.4-18.3,4.1c-3.8,0.3-7.6-0.3-11.4-1c-2.8-0.3-4.5-2.8-4.5-5.2c0-2.4,1.7-4.5,4.8-4.8c2.4-0.3,4.8-0.3,7.2-0.3
			c2.4,0,4.1-1,4.8-3.4c0.3-0.7,0.7-1.4,1-2.1c8.6-25.8,16.2-52,24.5-77.8c2.4-7.9,0.3-14.5-3.4-21c-0.3-0.7-1-1.4-1.4-2.1
			c-1.4-2.8-1-5.2,1-6.9c1.7-1.7,4.1-1.7,6.5,0c0.7,0.7,1.4,1.4,2.1,2.1c0.7,0.7,1,1.7,1.7,2.8c2.4-2.4,2.8-4.5,3.4-6.5
			c10-32,20-64.1,30-96.1c2.1-6.5,2.1-6.5-4.8-6.9c-2.1,0-4.1,0-5.9-0.3c-2.8-0.7-4.5-3.1-4.5-5.5c0-2.4,1.7-4.5,4.8-4.8
			c5.9-0.3,11.7-0.3,17.6,0.7c2.4,0.3,4.8,0.7,7.2,1.4c8.6,3.1,17.2,2.4,25.8,0c6.2-1.7,12.4-2.8,18.9-2.4c5.2,0.3,8.3,2.4,8.3,5.9
			c0,3.8-2.8,5.9-8.3,5.9c-9.6,0-8.6,0.7-6.9,8.3c11,48.2,22,96.4,33.1,144.7c4.1,17.9,8.6,35.8,12.4,53.7c1,4.8,3.8,6.9,7.9,7.6
			c3.1,0.7,6.2,1,9.3,1.4c2.4,0.3,4.5,1,5.9,3.1L519.6,369.1z M401.5,264.4c10-31.3,20-62.7,30-94c1.4-4.1,2.8-8.3,3.1-12.7
			c0.3-3.4,0-4.1-3.4-3.4c-5.2,1-10.3,0.7-15.5-0.7c-5.2-1.4-5.9-1-7.2,4.1c-2.4,9-4.5,17.9-7.2,26.9c-7.2,23.1-14.5,46.2-21.7,69.2
			c-0.7,2.1-1.7,4.1-0.7,7.2c4.1-1,7.9-1.4,11.7,0.3c3.8,1.7,5.5,5.5,8.6,7.6c1.7-1.4,1.7-3.1,2.1-4.5H401.5z M397.3,232.7
			c3.4,0,5.9,2.8,5.9,6.2c0,3.8-3.4,7.2-7.2,6.9c-3.4-0.3-5.9-3.4-5.5-6.9c0.3-3.8,3.4-6.9,7.2-6.5L397.3,232.7z M462.1,280.6
			c3.8,0,4.1-0.7,3.4-4.1c-0.3-1-0.7-2.1-1-3.1c-5.5-24.1-11-48.2-16.5-72.3c-1.7-7.2-3.4-14.5-5.2-22.4c-2.1,1.4-2.1,3.1-2.4,4.5
			c-7.2,22-14.5,44.1-21.7,66.1c-2.8,8.6-5.5,17.2-8.3,26.2c-1.4,4.1-1,4.8,3.1,4.8c16.2,0,32.4,0,48.6,0V280.6z"/>
		<path class="st1" d="M735.5,140.8c2.4,1.4,3.8,3.4,3.4,6.2c-0.3,2.8-2.1,4.1-4.5,4.8c-0.7,0.3-1.4,0.3-2.1,0.3
			c-6.5,0.7-6.5,1-6.9,7.2c-1,17.2,0,34.4-1,51.7c-1,17.9-0.7,35.8-1,53.7c-0.7,22.4-1.4,44.8-2.4,67.2c-0.3,10-0.7,20-0.7,30
			c0,4.1,0.3,4.5,4.5,5.2c1,0,2.1,0,3.1,0.3c2.4,0.7,3.8,2.4,4.1,4.8s-0.7,4.5-3.1,5.5c-2.4,1-5.2,1-7.9,0.7
			c-4.8-0.7-9.6-1.7-14.1-3.1c-9.6-3.1-19.3-2.4-28.9,0.7c-1.7,0.7-3.4,1-5.2,1.7c-8.3,3.1-14.8,0.3-20.3-5.9
			c-2.8-3.1-5.2-6.5-6.9-10.7c-7.6-18.3-13.1-37.2-17.6-56.5c-4.8-21-9.3-42.4-12.7-63.7c-2.1-13.8-3.1-27.9-4.8-41.7
			c-1.4-11-3.1-22-5.9-33.1c-1.4,3.8-1.7,7.6-1.7,11.4c0.7,28.9-1.4,57.9-1.7,86.8c0,14.5-0.3,28.9-1,43.4
			c-0.7,17.6-2.1,35.1-2.1,52.7c0,5.5,0,5.5,5.5,6.2c1,0,2.1,0,3.1,0.3c2.1,0.7,3.4,2.4,3.8,4.8c0.3,2.4-0.7,4.1-2.8,5.2
			c-2.4,1.4-5.2,1.7-7.9,1.4c-4.5-0.7-9-1.4-13.4-2.8c-10.3-3.4-20.7-2.8-31,0.7c-2.4,0.7-4.8,1.4-7.2,2.1s-4.8,1-7.2,0.7
			c-2.4-0.7-4.1-2.4-4.5-5.2c0-2.4,1.4-4.5,3.4-4.8c7.6-0.7,6.9-5.9,7.2-11.4c1-23.1,0.7-46.5,1-69.9c0-5.9,1-11.7-1.4-17.6
			c-1.7-4.1-3.4-7.9-7.9-10c-3.1-1.7-3.8-4.5-2.8-6.9c1-2.8,3.8-3.8,7.2-2.8c1,0.3,2.1,0.7,3.1,1c0.7,0.3,1.4,0.7,2.1,0
			c1-1.4,0.7-3.1,0.7-4.8c0-28.2,1.4-56.5,1-84.7c0-1.4,0-2.8,0-4.1c-0.3-4.1-0.7-4.5-4.8-5.5c-0.7,0-1.4,0-2.1,0
			c-2.4-0.7-4.1-2.1-4.5-4.8c0-2.4,1.7-4.5,4.8-5.2c2.4-0.7,4.8-0.7,7.2,0c3.8,0.7,7.6,1.7,11.4,2.8c10.7,3.1,21,3.8,31.3-0.7
			c4.5-2.1,9.3-3.1,14.1-3.4c5.9-0.3,8.3,1.4,10,6.9c1.7,5.5,2.4,11.4,3.4,16.9c4.8,23.4,7.6,47.2,11,71c4.5,30.3,7.9,61,15.8,90.9
			c2.4,9,5.2,17.9,10.3,25.8c1,1.4,2.1,2.8,3.1,4.1c1.4,1.4,2.4,4.1,4.8,3.4c2.1-0.7,1-3.4,1-5.2c1.4-20.7,0.7-41.3,1-62
			c0-2.8,0-5.5,0.3-8.3c0.7-5.5-0.7-10.7-2.8-15.8c-1.4-2.8-3.1-5.2-6.2-6.5c-0.7-0.3-1-0.7-1.4-1c-2.4-1.7-3.1-4.1-2.1-6.5
			c1-2.4,3.4-3.4,6.2-3.1c2.1,0.3,4.1,2.8,5.9,1c1.7-1.7,0.7-4.5,0.7-6.9c0.3-27.6,1.7-55.1,1.4-82.7c0-1.7,0-3.4,0-5.2
			c0-3.1-1-4.8-4.1-4.8c-1,0-2.1-0.3-3.1-0.7c-2.1-0.7-3.4-2.4-3.4-4.8c0-2.1,1-3.4,2.8-4.5c2.4-1,4.8-1,7.2-0.7
			c3.8,0.7,7.6,1.7,11.4,2.8c11,3.4,22,4.1,32.7-0.7c3.8-1.7,7.9-2.8,12.1-3.4c2.4-0.3,4.8-0.3,7.2,1L735.5,140.8z M590.9,216.2
			c0.7-18.9,1.4-37.9,1.4-56.8c0-3.8-0.3-4.1-4.1-3.4c-6.9,1.4-13.4,0.3-20-0.3c-0.7,0-1.4,0-2.1,0c-2.1-0.3-3.1,0.7-3.1,2.8
			c0,1,0,2.1,0,3.1c0,26.9,0,53.7-1,78.5c0,8.6,0,15.5,0,22.4c0,3.1,0.7,3.8,3.1,2.8c7.2-3.4,14.5-3.8,21.7,0c1.7,1,2.8,0.3,2.8-1.7
			c0-1.7,0-3.4,0-5.2c0.3-13.4,0.3-26.9,1-40.3L590.9,216.2z M577.4,231.7c3.4,0.7,6.9,5.5,6.9,9.3c0,2.8-1.4,4.8-3.4,6.2
			c-2.4,1.4-4.8,1-7.2-0.3c-3.8-2.4-5.5-6.9-4.1-11c1-3.1,4.1-5.2,6.9-4.5L577.4,231.7z M712.5,214.5c0.7-18.9,1.4-37.9,1.4-56.8
			c0-3.8-0.3-4.1-4.1-3.4c-6.9,1.4-13.4,0.3-20-0.3c-0.7,0-1.4,0-2.1,0c-2.1-0.3-3.1,0.7-3.1,2.8c0,1,0,2.1,0,3.1
			c0,26.9,0,53.7-1,78.5c0,8.6,0,15.5,0,22.4c0,3.1,0.7,3.8,3.1,2.8c7.2-3.4,14.5-3.8,21.7,0c1.7,1,2.8,0.3,2.8-1.7
			c0-1.7,0-3.4,0-5.2c0.3-13.4,0.3-26.9,1-40.3L712.5,214.5z M704.9,241c0,2.8-1.4,4.8-3.8,6.2c-2.4,1.4-4.8,0.7-6.9-0.7
			c-3.8-2.4-5.2-6.9-3.4-11c1-2.8,3.8-4.5,6.5-4.1C701.1,232,704.9,236.9,704.9,241z"/>
		<path class="st1" d="M917.4,192.8c4.8,12.4,6.2,23.4,6.5,35.1c-0.7,35.1-5.9,66.8-19.3,96.8c-6.2,13.8-14.1,26.5-25.1,36.9
			c-7.6,7.2-16.2,12.7-25.8,16.5c-11.4,4.5-22.7,3.8-34.1,0.7c-4.1-1-8.3-2.4-12.4-3.8c-4.8-1.7-10-2.4-15.2-2.4
			c-5.9,0-11.4,1-16.5,4.5c-3.1,2.1-5.9,1.7-7.6-0.7c-1.7-2.1-1.4-4.8,1-7.6v-0.3c5.9-2.4,4.8-7.2,4.8-12.4c0-25.1,0.7-50.3,1-75.4
			c0-2.4,0-4.8-0.3-7.2c-0.7-4.8-3.1-8.3-7.6-10.3c-0.3,0-0.7,0-1,0c-4.1-2.1-5.5-4.1-4.8-6.9c1-3.1,4.1-4.5,8.3-3.4
			c5.9,1.4,5.5,1.4,5.9-4.8c1.4-19.3,0.7-38.6,1-57.9c0-7.9,0.3-15.8,0.3-23.8c0-5.2,0-5.2-4.8-7.2c-2.8-1-5.5-2.4-7.9-4.5
			c-3.1-2.8-3.8-5.5-2.1-8.3c1.7-2.8,4.5-3.1,7.9-1.4c0.7,0.3,1.4,1,2.1,1.4c4.1,2.1,8.3,2.8,13.1,2.4c11.4-1,22.4-4.8,33.8-5.9
			c14.8-1,30-1.7,44.8,2.4c25.5,7.2,43.4,23.1,53,47.9L917.4,192.8z M813.7,192.4c1-10.7,0.3-21.4,0.3-32c0-3.4-0.7-3.8-4.5-3.1
			c-5.2,1-10.3,2.1-15.5,3.1c-4.8,1-4.8,1-4.8,5.9c0,12.4-1,24.8-1,37.2c0,12.1,0,24.1-0.3,36.2c-0.3,9.3-0.7,18.6-0.7,27.9
			c0,4.8,0.3,5.2,4.1,3.1c6.5-3.8,13.1-4.8,20-0.3c0,0,0.3,0,1.7,0c0-2.4,0-4.5,0-6.5c0-21.4,0-42.7,0-64.1c0-2.8,0-5.5,0.3-8.3
			L813.7,192.4z M805.1,246.8c-0.3,3.4-3.8,6.5-7.6,6.5c-4.1,0-7.2-3.1-7.2-7.2c0-3.8,2.8-6.5,5.9-6.5
			C800.6,239.6,805.4,243.4,805.1,246.8z M865,302.6c7.9-25.5,10.7-51.7,7.2-78.5c-1.7-13.4-5.2-26.2-11-38.2
			c-6.2-13.1-16.2-21.7-29.6-26.2c-4.5-1.4-5.2-0.7-5.2,4.1c-0.3,23.8-0.3,47.5-1,71.3c-0.7,34.4,0,68.9-1.4,101.6
			c0,9.3,0,16.9,0,24.5c0,3.1,1,3.4,3.4,1.7c5.9-3.8,11-8.6,15.2-14.5c9.6-14.1,18.3-28.9,23.4-45.5L865,302.6z M907.7,267.8
			c2.1-16.9,4.5-33.8,2.4-50.6c-2.8-25.1-14.5-44.4-37.5-56.1c-7.2-3.8-14.8-5.5-23.8-6.5c1.4,1.4,2.1,2.1,2.8,2.4
			c10.3,7.2,17.2,16.9,22,28.2c7.2,16.9,10.3,34.4,11,52.7c0.3,8.6,0.7,17.2-0.3,25.8c-0.3,3.8,0.3,4.5,3.8,3.4
			c5.9-1.7,11.4-0.7,16.5,2.4c0.7,0.3,1.4,0.7,2.8,1.4c0.3-1.4,0.7-2.1,0.7-2.8L907.7,267.8z"/>
	</g>
	<g>
		<g>
			<path class="st2" d="M224.3,562.5c2.1,1.2,3.3,3,3,5.4c-0.3,2.1-1.8,3.3-3.9,3.9c-0.6,0-1.2,0-1.8,0c-6.4,0.9-6,0.9-6.4,7
				c-0.9,15.4,0,30.8-0.9,46.3c-0.9,15.1-0.6,30.2-0.9,45.4c-0.6,20-1.2,39.9-2.1,59.9c-0.3,8.8-0.6,17.5-0.6,26.3
				c0,3.6,0.3,3.9,3.9,4.5c0.9,0,1.8,0,2.7,0.3c2.1,0.6,3.3,2.1,3.6,4.2c0.3,2.1-0.6,3.9-2.7,4.8c-2.1,0.9-4.2,1.2-6.4,0.9
				c-3.9-0.6-7.9-1.2-11.8-2.4c-9.1-3-18.1-2.4-27.2,0.6c-2.4,0.9-4.8,1.5-7.3,2.1c-1.5,0.3-3.3,0.3-5.1,0c-2.1-0.6-3.6-1.8-3.6-4.2
				c0-2.1,1.2-3.9,3-4.2c6.7-0.6,6-5.4,6.4-10.3c0.9-20.3,0.6-40.8,0.9-61.1c0-5.1,0.9-10.3-1.2-15.4c-1.5-3.6-3-7-7-9.1
				c-3-1.5-3.6-3.9-2.4-6c1.2-2.1,3.3-2.7,6.7-1.8c4.5,1.2,4.5,1.2,4.5-3.6c-0.3-17.8,1.2-35.7,0.9-53.5c0-7.9,0-15.7,0-23.6
				c0-5.1,0-5.1-4.8-6.4c-3-0.6-4.5-2.4-4.5-4.8c0-2.4,1.8-4.2,4.8-4.8c3.9-0.6,7.6,0.3,11.2,1.5c5.4,1.8,10.9,3.3,16.6,3.3
				c4.5,0,8.8-0.6,13-2.4c3.9-1.5,7.9-2.7,12.1-3.3c2.4-0.3,4.8-0.3,7,0.9L224.3,562.5z M203.8,604.6c0.9-8.2,0.3-16.3,0.6-24.5
				c0-2.4-1.2-3.3-3.6-3c-3.9,0.6-7.9,1.2-11.8,0.6c-2.4-0.3-4.8-0.6-7.3-0.9c-1.8-0.3-2.7,0.3-2.7,2.1c0,0.9,0,1.8,0,2.7
				c0,23.6,0,47.2-0.9,69.3c0,7,0,12.4,0,17.8c0,3.6,0.3,3.9,3.6,2.4c6-2.4,11.8-2.4,17.8,0.3c2.7,1.2,3.3,0.9,3.6-2.1
				c0-1.2,0-2.4,0-3.6c-0.3-19.4,0.9-38.7,1.2-58.1c0-0.9,0-1.8,0-2.7L203.8,604.6z M189.9,645.1c3.3,0.6,6.7,4.8,6.7,8.5
				c0,2.4-1.2,4.2-3,5.4c-2.1,1.2-4.2,0.9-6.4-0.3c-3.3-2.1-4.8-6-3.6-9.7c0.9-2.4,3.3-4.2,5.7-3.9H189.9z"/>
			<path class="st2" d="M453.3,732.5c3.3,4.5,4.8,9.7,3.9,15.4c-0.6,2.4-1.2,4.8-1.8,7.3c-1.5,5.7-4.8,10-10,12.7
				c-7.6,3.9-15.7,5.4-24.2,5.7c-13,0.6-26-0.6-39-2.4c-7.9-1.2-15.7-2.7-23.6-0.9c-3.3,0.9-6.7,1.8-10,3c-2.7,0.9-5.4,1.5-8.5,1.2
				c-2.7-0.3-4.2-1.8-4.2-3.9c0-2.4,1.2-3.9,3.3-4.8c0.6-0.3,1.2-0.6,1.8-0.6c3-0.3,3.9-2.1,3.9-4.8c0.3-9.4,0.6-18.7,0.9-28.1
				c0.3-15.1,0-30.2,0.6-45.4c0.3-7-1.5-13.9-8.8-17.8c-2.7-1.5-3.3-3.9-2.1-6c1.2-2.1,3.3-2.7,6.4-2.1c5.1,1.2,5.1,1.2,5.1-3.9
				c-0.3-17.8,1.2-35.4,0.9-53.2c0-7.9,0-15.7,0-23.6c0-5.1,0-5.1-4.8-6.4c-3-0.6-4.5-2.4-4.2-4.8c0.3-2.7,2.1-3.9,4.5-4.5
				c4.2-0.9,8.2,0.3,12.1,1.5c5.4,1.5,10.9,3,16.6,3c4.5,0,9.1-0.6,13.3-2.4c3.9-1.5,7.9-2.7,12.1-3.3c2.4-0.3,4.8-0.3,7,0.9
				c2.1,1.2,3.3,3,3,5.4c-0.3,2.1-1.8,3.3-3.9,3.9c-0.3,0-0.6,0-0.9,0c-7,0.9-6.7,0.9-7.3,7.9c-0.9,15.4,0,30.8-0.9,46.3
				c-0.9,14.2-0.6,28.4-0.9,42.6c-0.6,20.6-1.2,41.1-2.1,61.7c-0.3,7-0.9,13.9-0.9,20.9c0,5.7,0,5.7,5.4,6.7
				c7.6,1.2,15.1,1.5,22.7,1.5c16,0.3,20.3-13,20-23.3c0-1.8-1.2-3.3-2.1-4.8c-1.5-2.4-2.1-4.8-0.3-7.3c1.8-2.7,4.5-3.6,7.6-3
				c4.5,0.9,7.9,3.6,10.3,7.3L453.3,732.5z M382.8,631.8c0.6-16.6,1.2-33.3,1.2-49.9c0-3.3-0.3-3.6-3.6-3c-6,1.2-11.8,0.3-17.5-0.3
				c-0.6,0-1.2,0-1.8,0c-1.8-0.3-2.7,0.6-2.7,2.4c0,0.9,0,1.8,0,2.7c0,23.6,0,47.2-0.9,69c0,7.6,0,13.6,0,19.7
				c0,2.7,0.6,3.3,2.7,2.4c6.4-3,12.7-3.3,19.1,0c1.5,0.9,2.4,0.3,2.4-1.5c0-1.5,0-3,0-4.5c0.3-11.8,0.3-23.6,0.9-35.4L382.8,631.8z
				 M369.5,646.6c3.3,0.3,7,4.8,7,8.5c0,2.4-1.2,4.2-3,5.4c-2.1,1.2-4.2,0.9-6.4-0.3c-3.3-2.1-4.8-6-3.6-9.7
				c0.9-2.4,3.3-4.2,5.7-3.9H369.5z"/>
			<path class="st2" d="M610.5,606.7c9.1,18.7,13,38.7,13,61.1c-0.3,24.2-5.7,48.7-19.4,71.1c-7.3,11.8-16.3,21.8-28.1,29.3
				c-22.1,13.9-49,11.5-68.3-6c-11.8-10.9-20-24.2-25.4-39.3c-4.8-13-7.3-26.3-8.2-39.9c-0.3-6.4-1.8-12.4-7.3-16.6
				c-1.8-1.5-2.7-3.3-1.5-5.7c0.9-2.1,2.7-2.7,6-2.1c3.6,0.6,3.6,0.6,4.2-3.3c3.3-23.9,11.2-46,26.3-65
				c8.2-10.3,18.1-18.4,30.5-23.3c16.9-6.7,33.3-5.1,48.7,4.2c13.9,8.2,23.3,20.3,30.2,34.5L610.5,606.7z M511.9,667.5
				c-0.3-12.1,1.2-24.2,3.9-36c3.9-16.9,9.4-33.3,19.7-47.5c1.8-2.7,4.2-5.1,6.4-7.6c-0.3-0.3-0.6-0.6-0.9-0.9c-0.6,0-1.2,0-1.8,0.3
				c-14.5,4.2-25.1,13.6-33.6,25.4c-10.3,14.5-16,30.8-19.1,48.1c-1.2,6.7-2.1,13.3-2.1,20c0,1.8,0.3,3.6,3,2.7
				c7.3-2.7,14.5-3.3,21.8,0c1.5,0.6,2.4,0,2.4-1.5c0-0.9,0-1.8,0-2.7L511.9,667.5z M498.6,649.3c3.3,0,7,3,7.3,6
				c0,2.7-3,5.4-6.4,5.4c-3.6,0-7-3-7-6.4c0-2.7,2.4-4.5,6-4.5V649.3z M603.9,719.2c9.7-23.6,12.4-48.1,8.8-73.2
				c-2.1-15.4-6.7-30.2-15.1-43.5c-7.3-11.2-16.3-20.3-29-25.4c-2.7-0.9-5.1-0.9-7.9,0c-5.4,1.8-9.4,5.1-12.7,9.4
				c-7,8.5-11.5,18.1-15.1,28.4c-7.3,20-10.6,40.8-9.7,58.1c0,13.6-0.3,23,0.9,32.4c1.5,11.5,4.8,22.4,10.9,32.4
				c5.1,8.5,12.1,15.1,21.5,18.4c9.4,3.3,18.1,2.7,25.7-5.1c9.1-9.4,16-20,20.9-32.1L603.9,719.2z"/>
			<path class="st2" d="M781.7,563.1c2.4,0.6,3.9,2.1,3.9,4.5c0,2.4-1.5,3.9-3.9,4.5c-0.9,0.3-1.8,0.6-2.7,0.6
				c-4.5-0.3-8.2,2.1-12.1,3.6c-2.4,0.9-2.4,3.3-2.7,5.1c-3,14.5-6,29-9.1,43.5c-9.1,42.6-18.1,85.3-27.2,127.9
				c-0.3,0.9-0.3,1.8-0.6,2.7c-0.9,2.7,0.3,3.9,2.7,4.5c2.4,0.6,4.8,1.5,7.3,1.8c1.5,0.3,3,0.6,4.5,1.2c2.1,0.9,3.3,2.4,3.3,4.8
				c0,2.4-1.5,3.9-3.9,4.5c-2.1,0.6-4.2,0.3-6.4,0c-4.2-0.9-8.2-2.4-12.1-3.6c-6.4-2.1-12.7-3.6-19.4-3.3
				c-5.4,0.3-10.6,1.8-15.4,4.2c-3.3,1.5-6.7,3.3-10.3,4.2c-1.5,0.3-3,0.6-4.5,0.3c-2.1-0.3-3.6-1.5-3.9-3.9c-0.3-2.4,0.9-3.9,3-4.8
				c2.4-0.9,4.8-1.5,7.3-2.4c4.2-1.8,4.5-2.4,3.6-7c-3.6-18.8-7.3-37.5-10.9-56.3c-1.5-8.2-3.3-16.3-4.8-24.5
				c-1.2-7-3.9-12.4-11.5-14.2c-2.4-0.6-3.6-2.4-3.3-4.8c0.3-2.4,2.1-3.6,5.1-3.9c5.1-0.3,5.1-0.3,4.2-5.1
				c-4.5-23.3-8.8-46.6-14.2-69.6c-1.2-5.1-2.1-7-7-6.7c-0.9,0-1.8-0.3-2.7-0.6c-2.1-0.6-3.6-2.1-3.6-4.5c0-2.4,1.5-3.9,3.6-4.5
				c3.3-0.6,6.7-0.6,9.7,0.3s6,1.8,8.8,3c6.4,2.4,12.7,2.4,19.1-0.9c4.8-2.4,10-3.6,15.1-3.9c2.4,0,4.8,0.3,7.3,1.5
				c2.1,0.9,3.3,2.7,3,5.1c-0.3,2.4-2.4,4.2-5.1,4.5c-1.8,0.3-4.2-1.5-5.4,1.2c-0.9,1.8,0.6,3.6,0.9,5.4
				c3.6,18.1,7.3,36.3,10.9,54.4c6,31.1,12.1,62.3,18.1,93.4c0.3,1.2,0.6,2.4,0.9,3.6c0.3,0,0.6,0,0.9,0c1.5-6.4,3-12.4,4.2-18.7
				c9.1-42.6,18.1-85.3,27.2-127.9c1.8-8.2,2.1-6.7-4.5-9.7c-2.7-1.2-5.1-2.4-8.2-3c-3-0.6-4.5-2.4-4.5-4.5c0-2.4,2.1-4.2,5.1-4.5
				c2.7-0.3,5.4,0.6,7.9,1.5c1.8,0.9,3.6,1.8,5.4,2.7c4.5,1.8,8.8,0.9,12.7-1.2c3.6-1.8,7.3-3.3,11.5-3c1.2,0,2.4,0,3.6,0.3
				L781.7,563.1z M694.6,666c0.9-1.8,0.3-2.7,0-3.6c-4.2-21.5-8.5-42.9-12.7-64.4c-1.2-6-2.4-12.1-3.6-18.1c-0.3-1.8-0.6-3.9-3-3
				c-4.8,2.1-10,2.4-15.1,2.1c-2.7,0-3,0.6-2.7,3.3c0,0.9,0.3,1.8,0.6,2.7c5.1,26.3,10.3,52.6,15.4,78.6c0.3,1.2,0.3,2.7,1.8,3.6
				c6.4-3,13-5.1,20-2.7L694.6,666z M679.4,644.5c3.9,0,7.6,3,7.6,6.7s-3,7-6.4,7c-3.6,0-7-3.3-7-7.3c0-3.3,2.4-6,5.4-6L679.4,644.5
				z"/>
			<path class="st2" d="M930.8,588.2c0.6,1.5,0.9,3.3,0.6,5.1c-0.3,2.1-1.5,3.3-3.6,3.9c-2.1,0.6-3.6,0-4.8-1.5
				c-1.2-1.5-1.5-3.3-2.1-5.1c-2.1-7-6.7-11.8-13.6-14.2c-9.1-3.3-18.4-3.6-27.8-2.7c-4.5,0.3-9.1,0.9-13.6,1.5
				c-3.6,0.6-3.6,0.9-3.9,4.5c-0.9,24.8-0.6,49.6-0.9,74.4c0,1.2,0,2.4,0,3.6c0.3,3.6,0.6,3.9,3.9,2.4c7-2.7,14.2-4.2,21.8-2.7
				c4.2,0.9,8.2,2.7,11.5,6c2.1-1.8,1.8-3.9,1.5-6c0-1.2-0.3-2.4-0.3-3.6c0-2.7,1.2-4.5,3.3-5.1c2.1-0.6,4.2,0.3,5.4,2.7
				c1.8,4.2,2.1,8.5,1.2,13s-2.7,8.8-4.8,13c-1.5,3-2.4,6-2.1,9.7c0,0.6,0,1.2,0,1.8c-0.3,2.4-1.8,3.9-4.2,4.2
				c-2.4,0.3-3.9-0.9-5.1-2.7c-0.9-1.5-1.2-3-1.2-4.8c0-2.4,0.6-4.8,0.9-7.3c0.9-5.7-1.8-9.7-7.3-11.2c-8.8-2.4-16.3,0.3-23.3,5.4
				c-2.1,1.5-2.1,3.6-2.1,5.7c0,10.6,0,21.2,0,31.8c-0.3,14.8,0.3,29.6-0.6,44.2c-0.3,3,0.9,3.9,3.3,4.5c9.1,2.1,18.1,2.4,27.2,1.5
				c4.2-0.6,8.5-1.5,12.4-2.7c4.5-1.5,8.8-3.6,11.5-7.9c0.6-0.6,1.2-1.2,1.8-1.8c1.8-1.5,3.6-1.8,5.7-0.6c2.1,1.2,2.7,3.3,2.1,5.7
				c-0.6,2.1-1.8,3.6-3,5.1c-3.9,4.5-8.8,7.3-14.2,9.1c-14.5,4.5-29.3,5.1-44.2,1.8c-6-1.2-11.8-2.7-17.8-3.6
				c-11.2-1.5-22.1-0.6-32.4,4.8c-3.9,2.1-6.4,1.8-7.9-0.6c-1.5-2.4-0.6-5.4,3.3-7c6.7-2.7,8.5-7,8.5-13.6c0-7.9,0.3-15.7,0.3-23.6
				c0.3-12.4,0.3-24.8,1.2-37.2c0.3-6.4-2.1-11.8-5.1-16.9c-0.9-1.5-2.4-2.4-3.9-3.3c-3.3-2.4-4.2-4.5-2.7-7
				c1.5-2.4,3.9-2.7,7.9-0.9c0.9,0.6,1.8,1.5,3.6,1.5c0.3-7.6,0.9-14.8,0.9-22.1c0.3-11.5,0.3-23,0.6-34.5c0-7,0.3-13.9,0.3-20.9
				c0-4.5,0-4.5-4.8-6c-3-0.9-6-1.8-8.5-3.6c-2.4-1.5-3-3.9-1.8-6c1.2-2.1,3.3-3,5.7-2.1c13.3,5.4,26.9,3.6,40.5,1.8
				c8.8-1.2,17.5-2.7,26.3-3.9c12.1-1.5,23.9-0.9,35.4,3.6c10,3.9,16,11.2,19.1,21.5V588.2z M850,581.6c0.3-3.3-0.3-3.9-3.9-3.9
				c-4.2,0.3-8.5,1.2-13,1.2c-3.9,0-4.5,0.6-4.5,4.5c0,5.7-0.3,11.5-0.3,17.2c-0.6,19.1,0,38.4-1.2,57.5c0,2.4,0,4.8,0,7.3
				c0,4.2,0.3,4.5,4.2,3c4.5-1.8,9.1-3.3,14.2-1.2c3,1.2,3.6,0.9,3.9-2.7c0.3-3.6,0.3-7.3,0.3-10.9c0.3-23.9-0.3-47.8,0.9-71.7
				L850,581.6z M838.5,644.2c2.4,0,4.2,1.8,4.2,4.5c0,3-2.4,5.7-5.1,5.7c-2.4,0-4.8-2.4-4.8-4.8c0-2.7,3-5.7,5.7-5.7V644.2z"/>
		</g>
	</g>
</g>
</svg>
