<?xml version="1.0" encoding="utf-8"?>
<!-- Generator: Adobe Illustrator 22.0.0, SVG Export Plug-In . SVG Version: 6.00 Build 0)  -->
<svg version="1.1" id="Layer_1" xmlns="http://www.w3.org/2000/svg" xmlns:xlink="http://www.w3.org/1999/xlink" x="0px" y="0px"
	 viewBox="0 0 1080 1080" style="enable-background:new 0 0 1080 1080;" xml:space="preserve">
<style type="text/css">
	.st0{fill:#2B568D;}
	.st1{fill:#D21B30;}
</style>
<g>
	<g>
		<path class="st0" d="M514.6,680.8c-2.5,2.4-3.8,5.3-4.1,8.7c0,3.6,1.1,6.5,3.3,8.7c2.2,2.3,5,3.4,8.5,3.6c3.6-0.1,6.6-1.4,9.1-3.8
			c2.9-2.8,4.4-6,4.4-9.5c0-3.2-1.1-5.9-3.3-8.2c-2.2-2.3-5-3.4-8.5-3.4C520.2,677.2,517,678.4,514.6,680.8z"/>
		<path class="st0" d="M974.3,754.6l-1.2-0.2c-3.4,0-7,2.4-10.7,7.2c-9.4,14.7-22.4,26.4-39,35.2c-1.9-4.1-4.2-8.7-7.2-13.7
			c-5.8-12.5-13.4-23.7-22.7-33.8c-6.4-6.5-12.3-9.7-17.9-9.7c-6.9,0-13.1,4.9-18.5,14.7c-2.1,3.6-4,7.3-5.8,11.1l-4.2,8.4
			c-5.2,10.7-12.1,20.1-20.7,28.2c-1.7,1.7-3.2,2.6-4.4,2.6c-0.7,0-1.4-0.1-2.2-0.4c-0.7-3.6-1-7.1-1-10.5c0-13.4,5-26,15.1-38
			c1.6,0.8,3.2,1.6,4.9,2.4c1.7,0.8,3.2,1.2,4.7,1.2c2.3,0,4.3-1,6.2-3c1.5-2,2.2-4.1,2.2-6.4c0-1.5-0.3-3-1-4.8
			c-4.2-9.8-11.3-14.7-21.1-14.7c-1.5,0-3,0.1-4.6,0.4c-9,2.1-16.2,6.9-21.5,14.3c-8.1,10.3-12.9,21.7-14.5,34l-0.8,2.4
			c-2.8,8.5-5.9,16.9-9.4,25.3c-3.5,8.4-7.9,16.5-13,24.2c-3.3,4.9-7.5,9-12.5,12.3c-5,3.3-9.6,5-13.7,5c-6,0-10.9-3.4-14.7-10.2
			c-3.8-6.8-7.2-13.9-10.1-21.2c-2-5.2-3.8-10.4-5.6-15.7c-2.1-6.4-4.4-12.6-7-18.7c-3.2-8.3-7.3-16.1-12.3-23.3
			c-6.1-7.4-13.3-11.1-21.5-11.1c-4,0-8.2,0.9-12.7,2.6c-8.1,3.2-14.7,8.1-19.9,14.7c-6.1,7.7-11.5,15.8-16.3,24.3
			c-3.6,6.9-6.9,13.9-9.9,21.1c-4.4,10.5-7.1,16.5-8.2,18.1l-1.4-0.4l0.2-3.6c0.1-2.6,0.5-5.3,1-8l8.6-38.6
			c1.1-4.4,1.7-8.7,1.8-13.1c-0.4-5.6-2.7-9.7-6.8-12.3c-2.7-1.7-5.5-2.6-8.5-2.6c-1.7,0-3.6,0.3-5.6,0.8c-5.4,2.1-8.9,6-10.3,11.5
			c-0.2,0.5-0.3,1-0.4,1.5c-0.1,0.3-0.3,0.5-0.4,0.8c-0.1,0.4-0.3,0.7-0.6,1c-7.8,17.2-13.9,30-18.3,38.4
			c-8.1,15.2-16.5,25.8-25.2,31.8c-4.4,2.8-8.3,4.2-11.7,4.2c-5.8,0-10.1-4.3-12.7-12.9c-2-8.1-3-16.3-3-24.7
			c0.4-16.7,4-32.9,10.7-48.7c2.3-4.4,3.4-8.5,3.4-12.3c0-7.2-3.7-12.4-11.1-15.7c-2.3-0.8-4.4-1.2-6.6-1.2
			c-5.6,0-10.5,3.1-14.7,9.1c-2.1,3.8-3.4,6.5-3.8,8c-4.2,9.8-7.4,19.7-9.3,29.6c-0.5,2.7-1,5.2-1.4,7.6
			c-13.1,29.7-28.3,58.1-45.7,85.4c-6.6,10.3-13.9,20.2-21.7,29.6c-3.8,4.4-8.3,8.2-13.3,11.3c-1.6,1.1-3.1,1.6-4.4,1.6
			c-2.1,0-4-1.3-5.6-3.8c-2.1-3.8-3.9-7.9-5.4-12.1c-8.2-24.7-12.7-50-13.5-76.1c-0.5-6.6-0.8-13.2-0.8-19.7
			c0-12.6,0.9-25.2,2.8-37.8l5.2-2.8c33.4-13.9,58.3-37,74.8-69.4c13.1-24.8,19.7-51.2,19.7-79.1v-5.6c-0.3-11.4-3-22.2-8.2-32.4
			c-4-6.9-9.3-11.7-15.9-14.3c-3.7-1.6-7.4-2.4-11.1-2.4c-3.1,0-6.1,0.5-9.1,1.6c-8.5,2.9-16,7.2-22.7,12.9
			c-12.5,10.7-22.2,23.5-29.2,38.4c-6.8,14.1-12.7,28.5-17.7,43.3c-12.5,38.4-20,77.9-22.5,118.3c-1.3,3.2-2.4,6.4-3.4,9.7
			c-4,13-11.1,23.8-21.5,32.4c-11.9,9.4-24.8,14.1-38.6,14.1c-5.4,0-11-0.7-16.7-2.2c0.3-1.7,0.6-3.4,1-5l2.2-10.7
			c1.6-8.1,2.4-16.1,2.4-24.1c0-5.7-0.4-11.3-1.2-16.9c-1.3-11.5-6.1-21.5-14.3-29.8c-6.8-6.6-14.2-9.9-22.3-9.9
			c-4.5,0-9.2,1.1-14.1,3.2c-7.7,3.6-14.1,8.7-19.3,15.3c-7.6,9.1-13.6,19.2-18.1,30c-2.4,5.7-6.1,14.9-11.1,27.6
			c-2-11.8-3-22.9-3-33.4c0-5.8,0.3-11.5,1-16.9c0.4-3.6,2.2-6.4,5.4-8.4c2.4-1.5,4.7-3.1,7-5h0.2c41.2-31.4,68.5-72.1,81.7-122.1
			c3.3-12.1,5-24.3,5-36.6c0-3.7-0.1-7.5-0.4-11.3c-0.7-9-3.7-17.2-9.1-24.5c-6-7.3-12.9-10.9-20.9-10.9c-3.3,0-6.8,0.7-10.5,2
			c-6.8,2.8-13.1,6.4-18.9,10.9c-10.5,8.4-18.9,18.4-25.2,30.2c-22.8,41.4-37.2,86.7-43.1,136.2c-2.1,14.8-3.2,29.6-3.2,44.3
			c0,20.3,2.1,40.6,6.2,60.8c0.3,1.5,0.5,3.1,0.6,4.8l0.4,2.6c-4,2.9-8.2,6.3-12.7,10.1c-10.6,10.3-15.9,21.8-15.9,34.4
			c0,1.6,0.4,6.4,1.2,14.5c0.8,8.1,8.3,16.6,22.7,25.4c9.1,5.2,18.7,7.8,28.6,7.8c2.7,0,5.4-0.2,8.2-0.6
			c15.4-2.3,29.2-8.2,41.4-17.9c14-11.1,25.1-24.7,33.2-40.6l7.6-14.1c3,0,6,0.1,8.9,0.2h6.2l11.9-0.2c17.6-0.7,33.9-6.8,48.8-18.3
			c4.2-3.3,8-7,11.4-11.1c0.9,21.5,3.6,42.9,8.2,64.2c2.3,12.2,6.7,23.5,13.3,34c10.6,15.8,22,23.7,34.2,23.7
			c5.7,0,11.5-1.8,17.3-5.4c12.7-8,26.7-24.7,41.9-50.3c12-20.8,22-39.1,30.1-54.8c1.8,7.5,4.7,14.1,8.6,19.6
			c9.5,13.9,21.3,20.9,35.2,20.9c9.4,0,18.7-3.6,27.8-10.7c7.2-6,13.3-12.9,18.5-20.7c2.8-4.3,5.5-8.6,8.1-13
			c-0.2,5.5-0.3,10.9-0.3,16.4c0,6.1,0.1,12.3,0.4,18.5c0.3,6.2,1.3,12.4,3.2,18.5c1.5,4.1,3.8,7.7,7.2,10.7c2.5,2.1,5.2,3.2,8,3.2
			c0.5,0,1.8-0.1,3.7-0.4c1.9-0.3,3.9-2,6.1-5.2c3.3-4.9,5.9-10.1,7.8-15.5c2.1-6,4-11.9,5.6-17.9l3.2-10.1
			c4.5-15.1,10.7-29.5,18.5-43.1c3.8-7.6,9.1-13.9,15.7-19.1l0.6-0.4c2.4-2,4.8-3,7.2-3c1.2,0,2.5,0.3,4,0.8c0.8,2.4,2.1,6.8,4,13.1
			c1.3,4,2.6,8,3.8,12.1c3,10.1,6.4,19.9,10.1,29.6c5.8,15.5,15.8,27.8,30,37c7.7,4.8,15.5,7.2,23.5,7.2c6.5,0,13.1-1.7,19.9-5
			c7.6-3.6,14-8.7,19.5-15.3c7.2-8.2,12.7-17.4,16.7-27.4c1.2-3.2,2.4-6.3,3.5-9.4c5.4,9.3,12.4,14,21.2,14
			c9.8,0,20.3-7.1,31.6-21.3c8.5-10.9,15.6-23.2,21.5-37c0.7-1.9,1.4-3.6,2.3-5.2c0.9-1.6,2.2-2.9,3.9-4c10.9,12.9,18,30,21.3,51.3
			l-12.1,7.2c-19.9,11.1-33.5,18.9-40.8,23.3c-20.1,12.3-38.5,26.9-55.1,43.7c-10.1,10.1-18.3,21.5-24.6,34.4
			c-5.7,11.7-8.6,23.7-8.6,36.2c0,3.6,0.3,7.2,0.8,10.9c2.3,14.7,7.9,26.5,16.9,35.4c11.1,11.3,25.4,16.9,42.9,16.9
			c12.6,0,24.5-3.1,35.6-9.1c12.6-6.8,23.5-15.7,32.8-26.8c22.1-25.6,37-54.9,44.7-87.9c3.3-13.3,5-26.6,5-40c0-8-0.6-16-1.8-24.1
			c-1.3-7.2-2.3-12.6-2.8-16.3l10.7-7.8c10.5-7.3,19.9-15.8,28.2-25.4c7-8.3,10.5-15.2,10.5-20.7
			C979.5,758.2,977.7,755.4,974.3,754.6z M371.1,725.8c3.3-21.2,8.1-41.9,14.2-62.1c6.2-20.2,14.5-39.7,25-58.5
			c4.5-8.2,9.9-15.7,16.1-22.5c3.7-4,7-6,9.9-6c3.7,0,6.7,3.3,8.9,9.8c2.3,6.6,3.4,14.7,3.4,24.6c0,9.8-1.6,21.8-4.9,36
			c-3.2,14.2-10.1,29.2-20.6,45c-10.5,15.8-24.6,28.8-42.3,38.9c-1.9,1.1-3.9,2-6.2,2.8l-3.6,1.6l-0.2-5.8
			C370.9,728.2,371,726.9,371.1,725.8z M159,704.3c5.2-34.6,14.5-67.9,28-100c6.1-15.4,14-28.8,23.7-40.2c3.4-5,8.2-8.2,14.3-9.5
			c3.3,1.6,5.6,3.8,7,6.7c1.3,2.9,2.2,5.9,2.5,9c0.3,3.2,0.5,6.3,0.5,9.3c0,3.7-0.3,7.4-0.8,10.9c-7.8,49.2-30.4,90.3-67.8,123.3
			l-4,3l-2,1.4c-0.1-0.3-0.2-0.6-0.2-1c-0.7-2.1-1.1-3.6-1.4-4.6c-0.3-0.9-0.4-1.8-0.4-2.6C158.4,708.5,158.6,706.5,159,704.3z
			 M204.9,838.5c-7.8,15.9-18.5,29.7-32,41.4c-7.6,6.2-16.1,9.3-25.6,9.3h-2.8c-10.5-0.4-17.9-5.2-22.3-14.3c-1.3-3.3-2-6.6-2-9.7
			c0-7.8,3.9-14.6,11.7-20.5l3-2.6l2.4,3.6c4.2,6.4,8.8,11,13.7,13.9c2.3,1.2,4.4,1.8,6.6,1.8c6.1,0,9.9-3.4,11.5-10.1
			c0.7-4.4,1.3-10.9,1.8-19.5c3.3-0.8,6.5-1.2,9.5-1.2c3.7,0,8.9,0.8,15.7,2.4c2.9,0.7,5.8,1.2,8.5,1.6c0.3,1.3,0.4,2.3,0.4,3
			C205.1,837.9,205,838.2,204.9,838.5z M213.9,815.4l-2.4-0.4l-34.4-3.8c-0.1-1.3-0.2-2.7-0.2-4.2c0-9.8,3.9-21.7,11.7-35.6
			c2.7-4.9,5.8-9.5,9.3-13.7c3.6-4.2,8.3-7.5,14.3-9.7c6.1,10.6,9.1,21.8,9.1,33.6C221.4,792.4,218.9,803.6,213.9,815.4z
			 M900.7,863.5l-0.2,1c-4.1,38.3-18.2,72.6-42.1,102.8c-6.2,8.2-13.7,15.2-22.3,20.9c-7.4,4.8-15.3,7.2-23.7,7.2
			c-4.2,0-8.5-0.6-12.9-1.8c-10.5-3.3-17.7-10-21.7-20.1c-2.3-6.1-3.4-12.2-3.4-18.3c0-13,6.1-27.8,18.3-44.3
			c5.3-6.9,11.2-13.3,17.7-19.3c12.9-12.2,26.9-22.8,42-31.9c15.2-9.1,31-17.8,47.4-26.1c1.3,5,2,9.9,2,14.5
			C901.9,852.7,901.5,857.8,900.7,863.5z"/>
		<path class="st0" d="M141.6,325.5c3.7,0.9,7.4,1.4,11,1.4h2.7c14.2,0,27.6-3.4,40.3-10.3c8.3-4.5,16.6-9.3,24.7-14.2
			c19.2-11.8,35.7-21.2,49.6-28.1c12.2-6,25.2-10.2,38.9-12.7c1.8-0.3,3.3-2,4.6-4.9v-0.3c0-0.4-0.2-1.1-0.7-1.9
			c-1.1-2.1-3.6-4.1-7.3-5.8l-0.8-0.5c-8.9-4.6-17.4-8-25.4-10.2c-8-2.1-14.6-3.2-19.6-3.2h-0.8c-19.5,0.5-36.7,2.7-51.6,6.8
			c-34.4,9.6-58.5,25.2-72.3,46.7c-3.3,5.3-5.4,11.1-6.4,17.3l-0.2,2.7C128.2,316.8,132.7,322.5,141.6,325.5z"/>
		<path class="st0" d="M202.4,209.7c16,2,34.2,3,54.5,3h10.7c12.3,0.5,23.1,4.8,32.3,13l4.1,3.9c1.8,1.7,3.7,3.3,5.6,4.9
			c0.7,0.5,1.6,0.7,2.9,0.7h0.7l3,0.2l0.2-6.6c0-2.3-0.3-4.3-0.8-6.3c-5.4-18.2-13.3-35.2-23.7-51c-8.9-13.2-20-24.1-33.2-32.7
			c-14.3-9.1-29.5-13.7-45.5-13.7c-28.6,0-43.4,11.6-44.5,34.9v2.5c0,9.9,2.5,19.3,7.4,28.1C181.7,201.4,190.5,207.8,202.4,209.7z"
			/>
		<path class="st0" d="M283.3,291.9c-3.4,4.4-5.8,9.4-7.1,15.1c-0.2,0.9-0.3,1.8-0.3,2.5c0,2.6,1,5,3,7.1c2,2.1,4.6,3.2,7.8,3.2h1.4
			c3.7-0.6,7.1-1.9,10.2-3.9c4-3,7.4-6.6,10.3-10.7c5.5-7.3,11.1-14.9,16.6-22.7l6.9-9.6c-1.9-1.6-3.1-2.5-3.6-2.8
			c-0.5-0.3-1-0.4-1.4-0.4h-0.3C308.9,270.9,294.5,278.3,283.3,291.9z"/>
		<path class="st0" d="M389.6,392.3c9,13.4,18.7,20.1,29.1,20.1c4.9,0,9.8-1.5,14.7-4.6c10.8-6.8,22.7-21,35.7-42.8
			c13.5-23.3,24-42.9,31.7-58.9c2,6.6,4.9,12.9,8.7,19.1c8.9,12.8,20.3,19.1,34.2,19.1c3.9,0,8.1-0.5,12.5-1.5
			c14.6-4.5,25.9-13.1,34-25.9c3.2-5,6-10,8.6-15.2c0.1,0.3,0.1,0.7,0.2,1l1.5,9.6c1.5,10.5,5.5,20,12.2,28.6
			c8.8,9.9,19,14.9,30.6,14.9c6.2,0,12.2-1.2,18.1-3.7c6.8-2.9,12.8-7.1,17.9-12.4c10.8-10.7,18.9-23.2,24.2-37.4
			c0-0.4,0.6-1.9,1.7-4.4c0.1-0.2,0.2-0.5,0.3-0.9c0.1-0.4,0.3-1,0.8-1.9c2.6-8.2,4.7-18.3,6.3-30.1v-1c0-2.4-0.7-4-2.2-4.9
			c-0.8-0.6-1.7-0.8-2.7-0.8c-0.9,0-1.9,0.3-2.9,0.8c-2,0.9-3.4,2.9-4.2,5.9c-1.8,11.1-4.7,21.8-8.8,32.3
			c-5.4,13-13.8,23.6-25.2,31.8c-3.6,2.6-7.6,4.7-11.8,6.3c-2.1,0.8-4.2,1.2-6.1,1.2c-8.6,0-14.9-9.8-19-29.3
			c-1.7-8.7-2.5-17.5-2.5-26.4c0-8.8,0.4-17.6,1.2-26.4c1.7-20.4,4.7-40.7,9.1-60.8l1.5-5.6l1-2.9h0.3c1.2,0.7,4.5,2,9.7,4
			c5.2,2,11.4,3.4,18.4,4.3l5.8,0.2c13.9,0,22.9-5.5,27.1-16.6c0.3-0.9,0.5-1.8,0.5-2.7c0-1-0.2-2-0.7-2.9c-0.9-1.8-2.3-3.1-4.2-3.9
			c-0.9-0.3-1.8-0.5-2.7-0.5c-1,0-2,0.2-3,0.7c-1.8,0.9-3.1,2.3-3.9,4.2c-1,2.9-2.9,4.8-5.6,5.6c-2.7,0.8-5.7,1.2-9,1.2
			c-1.8,0-3.7-0.1-5.6-0.3c-5.4-0.7-10.4-1.7-14.9-3.1c-4.5-1.4-7.6-2.6-9.3-3.5c4.7-16.5,8-27.3,9.8-32.5
			c5.9-16.7,12-33.3,18.5-49.9v-0.3c2.5-5.5,3.8-11.3,3.9-17.3c-0.1-5.9-2.9-9.9-8.5-12c-1.8-0.6-3.5-0.8-5.1-0.8
			c-3.7,0-6.8,1.6-9.3,4.7c-3.2,4.2-5.8,8.7-7.8,13.5c-10,24.7-18.9,49.8-26.6,75.3l-3.4,9.6c-4.7-0.9-10.7-1.4-17.8-1.4h-5.4
			c-9.6,0.2-20.5,3.2-32.7,9c-13.5,7.4-22,18.8-25.4,34c-0.6,2.4-0.8,4.7-0.8,7.1c0,0.2,0,0.5,0,0.7c-8.8,4.3-15.8,10.9-20.9,19.8
			c-7.8,12.5-12.3,26.3-13.7,41.3c-11.8,28-25.9,54.7-42.2,80.2c-5.6,8.8-11.8,17.2-18.5,25.2c-3.3,3.7-7.1,6.9-11.3,9.6
			c-1.4,0.9-2.6,1.4-3.7,1.4c-1.8,0-3.4-1.1-4.7-3.2c-1.8-3.3-3.3-6.7-4.6-10.3c-7-21-10.8-42.6-11.5-64.8
			c-0.5-5.6-0.7-11.2-0.7-16.8c0-10.7,0.8-21.4,2.4-32.2l4.4-2.4c28.4-11.8,49.7-31.5,63.6-59.1c11.2-21.1,16.8-43.6,16.8-67.4v-4.7
			c-0.2-9.7-2.5-18.9-6.9-27.6c-3.4-5.9-7.9-9.9-13.5-12.2c-3.2-1.4-6.3-2-9.5-2c-2.6,0-5.2,0.5-7.8,1.4c-7.2,2.5-13.7,6.2-19.3,11
			c-10.6,9.1-18.9,20-24.9,32.7c-5.8,12-10.8,24.3-15.1,36.9c-13.3,41-20,83.3-20,127c0,22.8,2.4,45.4,7.3,67.9
			C380.2,373.8,383.9,383.4,389.6,392.3z M530.4,264.2c2.4-13,8.7-22.5,19-28.4c1.8-1,3.8-1.6,5.9-1.7c4.2,0.2,6.3,2.1,6.3,5.6
			c0,0.9-0.3,2.9-1,6.1c-0.7,3.2-3.9,7.6-9.6,13.4c-5.7,5.8-12.8,9.4-21.4,10.8L530.4,264.2z M527.7,283.1l10.2-3.4
			c13.4-4.5,24.3-12.5,32.7-24c5.2-6.9,7.8-14.1,7.8-21.7c0-11.2-5.4-19.4-16.3-24.5c-2-0.8-4-1.4-6-1.8c0-0.6-0.1-1.2-0.1-1.8
			c0-9,4.3-16.8,13-23.2c8.4-5.4,17.3-8.1,26.9-8.1c5.8,0,10.8,0.6,15.2,1.9c-0.5,1.5-0.7,2.5-0.7,3s-0.1,0.9-0.2,1.1
			c-5.8,27.2-9.8,54.7-12.2,82.4c-0.1,0.5-0.2,1-0.2,1.5c-0.2,3-0.3,5.9-0.4,8.9c-0.1,0.3-0.2,0.6-0.3,1
			c-10.6,23.3-21.7,38.9-33.2,46.9c-6.4,4.4-12.2,6.6-17.3,6.6c-4.2,0-7.9-1.5-11.2-4.4c-5.8-5.1-8.6-14.4-8.6-28.1
			C527,291.6,527.3,287.5,527.7,283.1z M405.8,234.9c2.8-18.1,6.9-35.7,12.1-52.9c5.2-17.2,12.3-33.8,21.2-49.9
			c3.8-7,8.4-13.4,13.7-19.1c3.2-3.4,6-5.1,8.5-5.1c3.2,0,5.7,2.8,7.6,8.4c1.9,5.6,2.9,12.6,2.9,20.9c0,8.4-1.4,18.6-4.1,30.6
			c-2.8,12.1-8.6,24.9-17.5,38.3c-8.9,13.5-20.9,24.5-36.1,33.1c-1.6,0.9-3.3,1.7-5.2,2.4l-3,1.4l-0.2-4.9
			C405.7,237,405.7,235.9,405.8,234.9z"/>
		<path class="st0" d="M800.6,253.4c-6.4,0.5-12.9,1.1-19.5,2c-6.3,0.5-11.8,3-16.4,7.8c-0.7,1.1-1,2.3-1,3.6c0,2.3,0.8,3.8,2.5,4.6
			h0.2c1.7,0.8,3.4,1.4,5.1,1.7c10,1.6,19,4.9,27,10c8,5.1,15.2,11.3,21.8,18.6c6.2,7,11.5,13.2,15.7,18.6
			c8.7,10,19.2,17.6,31.5,22.7c7.7,3.4,15.5,5.1,23.5,5.1c4.9,0,9.8-0.6,14.7-1.9c11.3-3.2,16.9-11.6,16.9-25.2
			c0-7.8-2.6-14.8-7.8-21.2c-6.1-7.1-12.9-13.5-20.3-19.1c-23.5-17.2-52-26.5-85.7-27.9L800.6,253.4z"/>
		<path class="st0" d="M750.3,221.5c0.3,0.1,0.8,0.2,1.4,0.2c1.8,0,3.5-0.8,5.1-2.4c7.4-7.8,15.7-14.6,24.7-20.3
			c19.7-13.8,34.6-24.8,44.7-33.2c7.9-6.9,15-14.6,21.3-23.2c3.5-5.2,5.7-10.9,6.6-17.3l0.2-3.2c0-4.5-1.2-8.4-3.7-11.7
			c-4.3-5.4-10.8-8.1-19.5-8.1c-6.2,0-12.1,1.4-17.8,4.1c-9.8,4.3-18.4,10.4-25.7,18.3c-16.9,17.9-29.5,38.5-37.6,61.8
			c-1.7,5.3-2.9,10.2-3.6,14.6c-0.2,1.7-0.5,3.1-0.8,4.2c0.3,6.2,0.6,9.8,0.8,10.7C747.5,219.2,748.7,221.1,750.3,221.5z"/>
		<path class="st0" d="M846.5,187.2c-5.3,1-10.6,2.5-15.7,4.4c-17.3,7.4-33,17.5-47.1,30.1c-1.5,1.2-2.8,2.5-3.9,3.9
			c-1.1,1.4-1.9,2.5-2.4,3.6c-0.5,1-0.7,1.8-0.7,2.2c0,0.9,0.4,1.8,1.1,2.8c0.7,1,1.8,1.8,3.3,2.5c1.5,0.7,2.9,1,4.2,1
			c9.9-0.3,19.9-1,29.8-2c9.3-0.8,18.5-1.9,27.8-3.2c12.8-1.9,23.6-7.4,32.7-16.6c3.5-3.8,5.2-7.8,5.2-11.9
			c0-6.3-3.4-11.1-10.3-14.4c-3.4-1.5-7.1-2.4-11.2-2.9l-5.9-1.2L846.5,187.2z"/>
	</g>
	<g>
		<path class="st1" d="M324.1,415.3c0-4.1-0.3-8.2-0.6-11.7c-0.6-4.1-1.3-8.2-2.5-11.7c-1.3-3.8-3.8-7.3-6-10.1
			c-2.2-3.2-4.7-6.6-7.9-8.8c-3.2-2.2-6.9-3.5-10.7-4.7c-3.5-1.3-7.3-1.9-11.7-2.5c-3.5-0.3-7.6-0.6-11.7-0.6
			c-5.4,0-5.4,0.3-10.7,0.3c-5.4,0-5.4-0.9-10.7-0.9c-5,0-5,0.3-10.7,0.3c-5.4,0-5.4-0.3-10.4-0.3c-5.4,0-5.4,0.6-10.7,0.6
			c-2.8,0-5.4,2.2-5.4,4.7c0,6,0,6,0,11.7c0,6,0,6,0,12c0,5.7,0,5.7,0,11.7c0,5.7,0.9,5.7,0.9,11.4c0,6,0,6,0,12
			c0,5.7-0.6,5.7-0.6,11.7c0,5.7-0.3,5.7-0.3,11.7c0,5.7,0.9,5.7,0.9,11.7c0,5.7-0.3,5.7-0.3,11.7c0,5.7,0.3,5.7,0.3,11.7
			c0,5.7-0.6,5.7-0.6,11.7c0,5.7,0,5.7,0,11.7c0,4.8-0.2,5.6-0.3,9.2c3-0.6,5.9-1,8.7-1c8.1,0,20,2.7,30.5,15.5
			c0.1,0.1,0.1,0.2,0.2,0.2c-0.1-2.5-0.3-3.5-0.3-7.5c0-5.4,0.3-5.4,0.3-10.7c0-2.8,1.6-6,4.1-7.3c5.7-3.5,4.1-2.5,9.8-6
			c2.8-1.3,5,0.3,6.3,12.9c0.6,7.9,6.6,26.8,8.5,41.3c0,4.7,1.3,9.5,1.3,13.9c0,4.7,0.9,4.7,0.9,9.5c0,2.8,2.8,5,5.4,5
			c5,0,5,0.3,9.8,0.3c5,0,5-0.9,9.8-0.9c5,0,6.3,0.9,11.4,0.9c2.5,0,3.5-2.5,3.5-5.4c0-5.4-5-14.8-6.3-20.5c0-5.4-5-19.2-5-24.9
			c-2.8-17.7-4.4-22.7-6.6-33.8c-1.3-10.1-6-15.8-3.8-17.4c3.2-2.2,10.4-6.3,12.6-9.8c2.5-3.2,4.1-6.9,5.4-10.7
			c1.3-3.5,2.2-7.6,2.5-11.7c0.6-3.8,0.3-7.9,0.3-12c0-6,0.9-6,0.9-12C324.4,421.3,324.1,421.3,324.1,415.3z M285,446.9
			c0,5.7-2.5,9.1-5.7,12.3c-3.5,2.8-7.3,5.7-11.7,7.9c-4.7,2.5-5,2.5-9.8,5c-2.5,1.3-3.8,0-3.8-2.5c0-5.4,0-5.4,0-10.7
			c0-5.4-0.3-5.4-0.3-10.4c0-5.4,0-5.4,0-10.7s0-5.4,0-10.7c0-5.4-0.3-5.4-0.3-10.4c0-5.4,0.3-5.4,0.3-10.7c0-2.8,1.9-5,4.7-5
			c6.9,0,6.9,0.6,13.9,0.6c2.8,0,6,0,8.2,1.9c4.1,3.2,4.1,10.4,4.1,15.1c0,7.3,0.3,7.3,0.3,14.2C285,440,285,440,285,446.9z"/>
		<path class="st1" d="M554.4,548.5c-5,0-5,0-10.4,0c-5.4,0-5.4,0-10.4,0c-5.4,0-5.4,0.9-10.7,0.9c-5,0-5,0-10.4,0
			c-5,0-5-0.6-10.4-0.6c-2.5,0-4.4-1.9-4.4-4.7c0-5.4-0.9-5.4-0.9-10.7c0-5.4,0.3-5.4,0.3-10.7s0-5.4,0-10.7c0-5.4,0.3-5.4,0.3-10.7
			c0-2.8,2.2-4.7,4.7-4.7c5,0,5,0.3,10.4,0.3c5,0,5-0.3,10.1-0.3c5.4,0,5.4,0.3,10.4,0.3c5,0,5-0.6,10.1-0.6c2.8,0,5-1.9,5-4.7
			c0-6.6,0-6.6,0-12.9c0-6.6,0-6.6,0-13.2c0-2.5-2.2-5.4-5-5.4c-5,0-5,0.6-10.1,0.6c-5.4,0-5.4-0.3-10.4-0.3c-5,0-5-0.3-10.1-0.3
			c-5.4,0-5.4,0.3-10.4,0.3c-2.5,0-4.7-1.9-4.7-4.7c0-6,0-6,0-12.3c0-6.3,0-6.3,0-12.6c0-6.3-0.3-6.3-0.3-12.3
			c0-6.3,0.3-6.3,0.3-12.6c0-2.5,2.2-5,4.7-5c5.4,0,5.4,0.3,10.4,0.3c5.4,0,5.4,0,10.7,0c5,0,5-0.6,10.4-0.6c5,0,5,0.6,10.4,0.6
			c5.4,0,5.4,0.3,10.4,0.3c2.8,0,4.4-2.5,4.4-5.4c0-6.3,0.3-6.3,0.3-12.9c0-6.6-0.3-6.6-0.3-13.2c0-2.5-1.6-4.7-4.4-4.7
			c-5.7,0-5.7-0.3-11.4-0.3c-5.7,0-5.7,0.3-11.4,0.3c-5.7,0-5.7-0.6-11.4-0.6c-5.7,0-5.7,0.6-11.4,0.6c-6,0-6-0.3-11.7-0.3
			c-5.7,0-5.7-0.3-11.4-0.3c-0.7,0-1.4,0-2,0c-1.3,2.3-2.6,4.6-4,7c0,0-0.1,0.1-0.1,0.1c-7.4,12.4-14.5,22.5-21.4,30.5
			c0,0.8,0,1.6,0,2.7c0,6-0.3,6-0.3,12c0,5.7,0.6,5.7,0.6,11.7c0,5.7,0,5.7,0,11.7c0,5.7-0.6,5.7-0.6,11.7c0,5.7,0.6,5.7,0.6,11.7
			c0,5.7-0.6,5.7-0.6,11.7c0,5.7-0.3,5.7-0.3,11.7c0,5.7,0.6,5.7,0.6,11.7c0,5.7-0.6,5.7-0.6,11.7c0,5.7,0,5.7,0,11.7
			c0,5.7,0.3,5.7,0.3,11.7c0,6,0.6,6,0.6,11.7c0,1.5-0.1,2.6-0.1,3.6c4.5,3.6,8.4,8.1,11.5,13.5c0.1,0.2,0.2,0.4,0.3,0.6
			c3.6,7.2,6.2,14.7,7.8,22.4c2.4,0.1,3.6,0.3,7.7,0.3c5.7,0,5.7-0.3,11.7-0.3c5.7,0,5.7-0.3,11.4-0.3s5.7,0,11.4,0
			c5.7,0,5.7,0,11.4,0c5.7,0,5.7,0.6,11.4,0.6c5.7,0,5.7,0,11.4,0c2.8,0,5.4-2.5,5.4-5.4c0-6.6-0.6-6.6-0.6-12.9
			c0-6.6,0.6-6.6,0.6-13.2C559.7,551.3,557.2,548.5,554.4,548.5z"/>
		<path class="st1" d="M219.7,585.4c1.1,0,1.9,0,2.6,0c0.2-1.9,0.3-3.8,0.3-5.8c0-2.6-0.1-5.3-0.4-8.1c-0.1-0.6-0.1-1.1-0.2-1.6
			c-0.3,0.4-0.6,0.8-0.9,1.2c-0.2,0.4-0.5,0.7-0.8,1c-1.8,2.1-3.5,4.4-5.2,6.7c0,0.5,0,0.9,0,1.5
			C214.9,583.2,216.8,585.4,219.7,585.4z"/>
		<path class="st1" d="M603.2,365.8c-5.7,0-5.7-0.6-11.4-0.6c-5.7,0-5.7,0.3-11,0.3c-2.8,0-5,1.9-5,4.4c0,6,0,6,0,11.7
			c0,6-0.3,6-0.3,11.7c0,6,0.3,6,0.3,11.7c0,6-0.3,6-0.3,12c0,5.7,0.3,5.7,0.3,11.7c0,5.7,0,5.7,0,11.7c0,5.7,0,5.7,0,11.7
			c0,5.7,0,5.7,0,11.7c0,5.7-0.3,5.7-0.3,11.7c0,5.7,0.6,5.7,0.6,11.7c0,5.7-0.3,5.7-0.3,11.7c0,5.7-0.3,5.7-0.3,11.7
			c0,5.7,0,5.7,0,11.7c0,5.7,0.3,5.7,0.3,11.7c0,6,0,6,0,11.7c0,6,0,6,0,11.7c0,6,0.6,6,0.6,11.7c0,6-0.6,6-0.6,11.7
			c0,2.8,2.2,4.7,5,4.7c5.4,0,5.4,0.3,11,0.6c5.7,0,5.7-0.9,11.4-0.9c5.7,0,5.7,0.6,11,0.6c5.7,0,5.7,0.3,11.4,0.3
			c5.7,0,5.7-0.6,11-0.6c4.4,0,8.5,0.3,12.3-0.3c4.1-0.6,8.2-1.9,11.7-3.2c3.8-1.6,7.3-3.8,10.4-6.3c3.2-2.5,5.4-6,7.9-9.1
			c1.9-3.5,4.4-6.6,6-10.7c1.3-3.5,1.9-7.6,2.5-11.7c0.6-3.8,0.6-7.9,0.6-12.3c0-5.4,0.3-5.4,0.3-11c0-5.7-0.3-5.7-0.3-11.4
			c0-5.7,0.3-5.7,0.3-11.4c0-5.7-0.3-5.7-0.3-11.4c0-5.4-0.3-5.4-0.3-11c0-5.7,0-5.7,0-11.4c0-5.7-0.3-5.7-0.3-11.4
			c0-5.4,0.9-5.4,0.9-11c0-5.7,0-5.7,0-11.4c0-5.7,0-5.7,0-11.4c0-4.1-0.9-8.2-1.6-12c-0.3-4.1-0.6-8.2-1.9-12
			c-1.6-4.1-3.5-7.6-5.4-11c-2.5-3.2-5-6.3-8.2-8.8c-3.2-2.5-6.9-4.4-10.7-6c-2-0.9-4.2-1.3-6.5-1.6c-3.5,0.7-7.1,1-10.7,1
			c-6.5,0-12.7-1.2-18.5-3.5c-5,0-5.3,0-10.8,0C608.6,364.9,608.6,365.8,603.2,365.8z M619.6,400.8c8.2,0,8.2,0.6,16.7,0.6
			c5.4,0,8.2,1.6,10.1,4.4c1.6,2.8,2.2,6.6,2.2,11.4c0,6,0.9,6,0.9,11.7c0,5.7,0,5.7,0,11.7c0,5.7-0.9,5.7-0.9,11.7
			c0,5.7,0,5.7,0,11.4c0,5.7,0.9,5.7,0.9,11.7c0,5.7-0.3,5.7-0.3,11.7c0,5.7,0.3,5.7,0.3,11.4c0,5.7-0.6,5.7-0.6,11.7
			c0,5.7,0,5.7,0,11.4c0,6-0.3,6-0.3,11.7c0,4.7-0.3,8.5-2.2,11.4c-1.9,3.2-4.7,4.4-10.1,4.4c-8.5,0-8.5,0.6-16.7,0.6
			c-2.8,0-4.7-2.2-4.7-5c0-5.7-0.3-5.7-0.3-11.4c0-6,0.3-6,0.3-11.7c0-5.7,0.3-5.7,0.3-11.4c0-6-0.6-6-0.6-11.7
			c0-5.7,0.3-5.7,0.3-11.7c0-5.7,0.3-5.7,0.3-11.4c0-6-0.3-6-0.3-11.7c0-5.7,0-5.7,0-11.7c0-5.7,0-5.7,0-11.4c0-6-0.3-6-0.3-11.7
			c0-5.7-0.3-5.7-0.3-11.4c0-6,0.3-6,0.3-11.7C614.6,403.4,616.8,400.8,619.6,400.8z"/>
		<path class="st1" d="M427.9,370.2c1.5-1.8,2.9-3.6,4.4-5.4c-2-0.1-3.3-0.2-6.9-0.2c-1.2,0-2.1,0-2.9,0c0.7,2.4,1.4,4.8,2.2,7.1
			c0.1,0.4,0.3,0.9,0.5,1.3C426.1,372.1,427,371.2,427.9,370.2z"/>
		<path class="st1" d="M99.8,475c0,5.7,0,5.7,0,11.7c0,5.7,0.3,5.7,0.3,11.7c0,5.7,0,5.7,0,11.7c0,5.7-0.6,5.7-0.6,11.7
			c0,5.7,0,5.7,0,11.7c0,6,0,6,0,11.7c0,6,0.6,6,0.6,11.7c0,6-0.6,6-0.6,11.7c0,6,0,6,0,11.7c0,2.8,2.5,5.4,5.4,5.4
			c4.7,0,4.7,0,9.5,0c5,0,5-0.9,9.8-0.9c4.7,0,4.7,0,9.8,0c2.5,0,5-1.6,5-4.4c0-6,0-6,0-12.3c0-6.3-0.6-6.3-0.6-12.3
			c0-6.3,0.3-6.3,0.3-12.6c0-6-0.3-6-0.3-12.3c0-6.3,0.3-6.3,0.3-12.3c0-6.3,0-6.3,0-12.3c0-2.8,2.2-4.7,4.7-4.7c6.6,0,6.6,0,12.9,0
			c6.6,0,6.6,0.3,12.9,0.3c6.3,0,6.3-0.6,12.9-0.6c2.5,0,5-2.2,5-4.7c0-6.6-0.3-6.6-0.3-13.2c0-6.3,0-6.3,0-12.9
			c0-2.8-2.2-5.4-4.7-5.4c-6.6,0-6.6,0.6-12.9,0.6c-6.6,0-6.6-0.3-12.9-0.3c-6.3,0-6.3-0.3-12.9-0.3c-2.5,0-4.4-1.6-4.4-4.4
			c0-5.4,0-5.4,0-10.7c0-5.7,0-5.7,0-11c0-5.4-0.3-5.4-0.3-11c0-5.4-0.3-5.4-0.3-10.7c0-5.7,0.3-5.7,0.3-11c0-2.5,2.2-5,4.7-5
			c6.3,0,6.3,0.6,12.6,0.6c6.3,0.3,6.3-0.3,12.6-0.3c6,0,6,0.3,12.3,0.3c6.3,0,6.3-0.9,12.6-0.9c2.5,0,5-1.6,5-4.4
			c0-6.3-0.6-6.3-0.6-12.9c0-6.6,0.3-6.6,0.3-13.2c0-2.5-2.2-5-4.7-5c-5.7,0-5.7,0.9-11.4,0.9c-5.4,0-5.4-0.3-11-0.3
			c-5.4,0-5.4-0.6-11-0.6c-5.4,0-5.4,0.9-11,0.9s-5.7-0.9-11-0.9c-5.7,0-5.7,0-11,0c-5.7,0-5.7,0.6-11,0.6c-5.7,0-5.7-0.9-11-0.9
			c-2.8,0-5.4,2.8-5.4,5.4c0,6,0.3,6,0.3,11.7c0,6,0.3,6,0.3,11.7c0,6-0.6,6-0.6,11.7c0,6,0,6,0,12c0,5.7,0,5.7,0,11.7
			c0,5.7,0,5.7,0,11.7c0,5.7,0.3,5.7,0.3,11.7c0,5.7-0.6,5.7-0.6,11.7C99.1,469,99.8,469,99.8,475z"/>
		<path class="st1" d="M341.1,369.6c0,6-0.9,6-0.9,11.7c0,6,0.6,6,0.6,11.7c0,6,0,6,0,11.7c0,6-0.3,6-0.3,12c0,5.7,0.6,5.7,0.6,11.7
			c0,5.7,0,5.7,0,11.7c0,5.7-0.6,5.7-0.6,11.7c0,5.7,0.6,5.7,0.6,11.7c0,5.7-0.6,5.7-0.6,11.7c0,5.7-0.3,5.7-0.3,11.7
			c0,5.7,0.6,5.7,0.6,11.7c0,5.7-0.6,5.7-0.6,11.7c0,5.7,0,5.7,0,11.7c0,5.7,0.3,5.7,0.3,11.7c0,6,0.6,6,0.6,11.7
			c0,6-0.9,6-0.9,11.7c0,6,0.3,6,0.3,11.7c0,6,0,6,0,11.7c0,2.8,2.5,5.4,5,5.4c5.7,0,5.7-0.3,11.4-0.3c5.5,0,5.7,0.3,10.8,0.3
			c6.8-10.7,15-20.3,24.7-28.7c3.1-2.7,6.4-5.1,9.9-7.3c-2.5,0-3.5,0-7.6,0c-5,0-5-0.6-10.4-0.6c-2.5,0-4.4-1.9-4.4-4.7
			c0-5.4-0.9-5.4-0.9-10.7c0-5.4,0.3-5.4,0.3-10.7s0-5.4,0-10.7c0-5.4,0.3-5.4,0.3-10.7c0-2.8,2.2-4.7,4.7-4.7c5,0,5,0.3,10.4,0.3
			c5,0,5-0.3,10.1-0.3c5.4,0,5.4,0.3,10.4,0.3c5,0,5-0.6,10.1-0.6c2.8,0,5-1.9,5-4.7c0-6.6,0-6.6,0-12.9c0-6.6,0-6.6,0-13.2
			c0-2.5-2.2-5.4-5-5.4c-5,0-5,0.6-10.1,0.6c-5.4,0-5.4-0.3-10.4-0.3c-5,0-5-0.3-10.1-0.3c-5.4,0-5.4,0.3-10.4,0.3
			c-2.5,0-4.7-1.9-4.7-4.7c0-6,0-6,0-12.3c0-6.3,0-6.3,0-12.6c0-6.3-0.3-6.3-0.3-12.3c0-6.3,0.3-6.3,0.3-12.6c0-1.3,0.6-2.7,1.6-3.6
			c-0.6-0.9-1.3-1.8-1.9-2.7c-0.1-0.1-0.1-0.2-0.2-0.3c-6.4-10.2-10.8-21.3-13-33.1c-0.1-0.5-0.2-1-0.3-1.6
			c-3.3,0.1-4.2,0.3-8.9,0.3c-5.7,0-5.7,0-11.4,0C343,364.6,341.1,367.1,341.1,369.6z"/>
		<path class="st1" d="M928.8,369.6c-0.9,5.7-0.6,6-1.6,11.7c-0.9,6-0.9,6-1.9,12c-0.9,5.7-1.3,5.7-2.2,11.7
			c-0.6,5.7-0.3,6-0.9,11.7c-0.9,6-1.3,6-2.2,11.7c-0.6,6-1.3,6-2.2,11.7c-0.6,6-0.6,6-1.3,12c-0.9,6-0.9,6-1.9,11.7
			c-0.6,6-0.6,6-1.6,11.7c-0.9,6-0.6,6-1.6,12c-0.9,6-0.6,6-1.3,11.7c-0.9,6-1.3,6-2.2,11.7c-0.3,2.8-1.3,2.8-1.6,0
			c-0.9-5.7-0.9-5.7-1.9-11.7c-0.6-6-1.3-5.7-2.2-11.7c-0.6-6-0.9-6-1.9-12c-0.9-5.7-0.3-5.7-1.3-11.7c-0.9-6-0.9-6-1.9-11.7
			c-0.6-6-1.3-6-2.2-11.7c-0.9-6-0.9-6-1.6-12c-0.9-5.7-0.3-6-1.6-11.7c-0.9-6-0.9-6-1.9-11.7c-0.9-6-0.9-6-1.6-12
			c-1.3-6-1.3-5.7-1.9-11.7c-1.3-6-1.6-5.7-2.5-11.7c-0.6-2.5-2.8-4.4-5.7-4.4c-5,0-5-0.6-10.1-0.6c-5.4,0-5.4,0.6-10.4,0.6
			c-5,0-5-0.6-10.1-0.6c-5.4,0-5.4,0.3-10.4,0.3c-2.8,0-5,2.2-5,4.7c0,6,0,6,0,11.7c0,6,0,6,0,12c0,5.7,0.6,5.7,0.6,11.7
			c0,5.7,0,5.7,0,11.4c0,6-0.3,6-0.3,12c0,5.7-0.3,5.7-0.3,11.7c0,5.7,0,5.7,0,11.7c0,5.7,0.3,5.7,0.3,11.7c0,5.7-0.3,5.7-0.3,11.7
			c0,5.7-0.3,5.7-0.3,11.7c0,5.7,0.6,5.7,0.6,11.7c0,5.7,0,5.7,0,11.7c0,5.7,0.3,5.7,0.3,11.7c0,5.7-0.6,5.7-0.6,11.7
			c0,6,0,6,0,11.7c0,6,0.6,6,0.6,11.7c0,6,0,6,0,11.7c0,6-0.9,6-0.9,11.7c0,2.8,2.5,5,5.4,5c6.3,0,6.3-0.3,12.6-0.3
			c6.3,0,6.3,0.3,12.6,0.3c2.5,0,4.7-2.2,4.7-5c0-6-0.3-6-0.3-12.3c0-6,0-6,0-12c0-6.3,0-6.3,0-12.6c0-6,0.3-6,0.3-12
			c0-6.3,0-6.3,0-12.3c0-6.3-0.6-6.3-0.6-12.3c0-6.3,0.9-6.3,0.9-12.3c0-6,0-6,0-12.3c0-2.5,0.6-2.8,0.9,0c0.9,5.4,0.3,5.4,1.3,10.7
			c0.9,5.7,1.3,5.7,2.2,11c0.6,5.4,0.6,5.4,1.6,11c0.6,5.4,0,5.7,0.9,11c0.9,5.4,1.6,5.4,2.2,10.7c0.9,5.4,0.3,5.7,1.3,11
			c0.9,5.4,1.6,5.4,2.5,10.7c0.6,5.4,0.6,5.7,1.6,11c0.9,5.4,0.3,5.7,1.3,11c0.3,2.5,3.5,4.7,6.3,4.7c5.4,0,5.4,0.3,11,0.3
			c5.4,0,5.4-0.9,11-0.9c5.7,0,5.7,0.9,11,0.9c2.8,0,5-2.5,5.4-5.4c0.9-6,0.9-6,1.9-12c0.9-6,1.3-6,2.2-12c0.9-6,0-6.3,0.9-12
			c0.9-6.3,0.9-6.3,1.9-12.3c0.9-6,1.6-5.7,2.5-12c0.9-6,0-6,0.9-12c0.9-6,1.6-6,2.5-12c0.6-6,1.3-6,1.9-12c0.3-2.5,0.6-2.5,0.6,0
			c0,6-0.6,6-0.6,12c0,6,0,6,0,12c0,6,0.3,6,0.3,12c0,6.3,0.3,6.3,0.3,12.3c0,6-0.6,6-0.6,12c0,6,0,6,0,12c0,6,0,6,0,12
			c0,6,0,6,0,12c0,2.8,2.5,5,5,5c6.9,0,6.9,0.3,13.9,0.3s6.9-0.3,13.6-0.3c2.8,0,4.7-2.2,4.7-5c0-6,0-6,0-11.7c0-5.7,0-5.7,0-11.7
			c0-6,0.6-6,0.6-11.7c0-6,0-6,0-11.7c0-6,0-6,0-11.7c0-6-0.6-6-0.6-11.7c0-6,0.6-6,0.6-11.7c0-6,0-6,0-11.7c0-6,0-6,0-11.7
			c0-6,0-6,0-12c0-5.7-0.9-5.7-0.9-11.7c0-5.7,0.3-5.7,0.3-11.7c0-5.7,0.6-5.7,0.6-11.7c0-5.7,0-5.7,0-11.7c0-5.7-0.9-5.7-0.9-11.7
			c0-5.7,0.3-5.7,0.3-11.7c0-5.7,0-5.7,0-11.7c0-5.7,0.3-5.7,0.3-11.7c0-2.5-2.2-4.7-5-4.7c-5,0-5-0.3-10.1-0.3c-5.4,0-5.4,0-10.4,0
			c-5,0-5-0.3-10.1-0.3c-5.4,0-5.4,0.6-10.4,0.6C931.6,364.9,929.1,367.1,928.8,369.6z"/>
		<path class="st1" d="M720,379.4c-2.5,2.5-5.4,5.4-7.3,8.2c-1.9,3.2-3.2,6.6-4.4,10.1c-1.3,3.5-2.2,6.9-2.8,10.7
			c-0.6,3.5-0.9,7.3-0.9,11c0,5.4,0.3,5.4,0.3,11c0,5.7,0,5.7,0,11c0,5.7-0.6,5.7-0.6,11c0,5.7,0.3,5.7,0.3,11.4c0,5.4,0,5.4,0,11
			c0,5.4,0,5.4,0,11c0,5.7,0.3,5.7,0.3,11c0,5.7,0.3,5.7,0.3,11c0,5.7-0.3,5.7-0.3,11c0,5.7,0,5.7,0,11.4c0,3.8,0,7.3,0.6,10.7
			c0.6,3.8,1.3,7.6,2.5,10.7c1.3,3.8,3.5,6.6,5,9.8c2.2,3.2,3.8,6.6,6.3,9.1c2.8,2.5,5.7,4.7,8.8,6.6c3.2,1.6,6.6,3.2,10.4,4.4
			c3.2,0.9,6.9,1.3,10.7,1.9c3.5,0.6,6.9,1.6,10.7,1.6c4.1,0,7.6-0.3,11-0.9c3.8-0.6,7.6-1.6,10.7-2.5c3.8-1.3,7.3-2.5,10.4-4.4
			c3.2-1.9,5.7-4.4,8.2-6.9c2.8-2.5,5.4-5.4,7.6-8.5c1.9-2.8,3.2-6.3,4.4-10.1c1.3-3.2,1.9-6.9,2.2-10.7c0.6-3.5,0.9-6.9,0.9-10.7
			c0-5.7-0.3-5.7-0.3-11.4c0-5.4,0.9-5.4,0.9-11c0-5.4-0.3-5.4-0.3-11c0-5.7,0.3-5.7,0.3-11c0-5.7-0.6-5.7-0.6-11
			c0-5.7,0.6-5.7,0.6-11.4c0-5.4,0-5.4,0-11c0-5.4,0-5.4,0-11c0-5.4,0-5.4,0-11c0-5.7-1.3-5.7-1.3-11c0-3.8,0-7.6-0.6-11
			c-0.3-3.8-0.6-7.6-1.9-10.7c-1.3-3.5-2.8-6.9-4.7-10.1c-1.9-3.2-4.7-5.4-7.6-7.9c-2.5-2.5-5-5-8.2-6.9c-3.2-1.9-6.6-3.2-10.1-4.4
			c-3.5-0.9-6.9-2.2-10.7-2.8c-3.5-0.3-6.9-0.6-11-0.6c-3.8,0-7.3,0-11,0.3c-3.5,0.6-7.3,1.6-10.4,2.8c-3.8,1.3-7.3,2.5-10.4,4.1
			C725,374,722.5,376.9,720,379.4z M743.6,463.3c0-5.7,0-5.7,0-11.4c0-5.7-0.3-5.7-0.3-11.7c0-5.7,0.3-5.7,0.3-11.4
			c0-5.7-0.3-5.7-0.3-11.4c0-5.4,2.2-9.1,5-12.3c2.8-2.8,6.6-5,11.7-5c5.4,0,9.8,1.9,12.6,4.7c2.8,2.8,3.8,7.3,3.8,12.6
			c0,5.7,0,5.7,0,11.4c0,5.7,0.9,5.7,0.9,11.7c0,5.7-0.3,5.7-0.3,11.4c0,5.7,0,5.7,0,11.4c0,6-0.3,6-0.3,11.7c0,5.7,0,5.7,0,11.4
			c0,6-0.3,6-0.3,11.7c0,5.7,0,5.7,0,11.4c0,6,0,6,0,11.7c0,5.7,0.3,5.7,0.3,11.4c0,5.4-1.6,9.1-4.4,12c-2.8,2.8-6.9,4.7-12.3,4.7
			c-5,0-9.1-1.6-12-4.4c-2.8-2.8-4.1-6.9-4.1-12.3c0-5.7-0.6-5.7-0.6-11.4c0-6,0.3-6,0.3-11.7c0-5.7,0.3-5.7,0.3-11.7
			c0-5.7,0-5.7,0-11.4c0-5.7,0-5.7,0-11.4C743.9,469.3,743.6,469.3,743.6,463.3z"/>
	</g>
	<g>
		<path class="st0" d="M268.1,1012c-2.1,0-4-1-5.6-3c-0.5-1.1-0.8-2.1-0.8-3.2c0-2,0.9-3.8,2.8-5.4c3.6-2.8,7.5-5.1,11.6-7
			c46.6-19.3,96.4-32.4,149.4-39.4c26.9-3.2,57.5-5.3,91.7-6.2c3.5,0.1,7,0.2,10.6,0.2c13.2,0.3,26.3,0.8,39.4,1.6
			c13.1,0.8,26,2.5,38.8,5c14.4,2.8,23.6,5.9,27.8,9.4c1.9,1.6,2.8,3.5,2.8,5.8c0,0.9-0.2,1.9-0.6,3c-1.3,3.1-3.5,4.6-6.6,4.6
			c-6.5,0-14.5-1.3-24-3.8l-7.4-1.8c-22.2-4.4-44.7-6.7-67.3-6.8c-8.5-0.4-17-0.6-25.6-0.6c-45.8,0-91.2,4.9-136.1,14.6
			c-31.8,6.4-62.5,16.5-91.9,30.4C273.3,1011.1,270.3,1012,268.1,1012z"/>
		<path class="st0" d="M685.4,999.6c-1.7,0-3.3-0.5-4.8-1.6c-5.1-3.7-10.5-6.7-16.2-8.8l-4.2-1.8c-3.3-1.9-5-4.3-5-7.4l0.2-1.6
			c0.9-4.3,4.3-6.5,10-6.8c7.7,0.7,15.5,3.1,23.4,7.2c1.7,0.9,3.3,2.3,4.7,4.1c1.4,1.8,2.1,3.8,2.1,5.9v2.4c0,1.3-0.9,2.9-2.6,4.8
			C690.9,998.4,688.4,999.6,685.4,999.6z"/>
	</g>
	<g>
		<polygon class="st1" points="581.5,649.5 575.4,637.1 569.3,649.5 555.6,651.5 565.5,661.2 563.2,674.8 575.4,668.4 587.7,674.8 
			585.3,661.2 595.2,651.5 		"/>
		<polygon class="st1" points="635.9,649.5 629.8,637.1 623.6,649.5 609.9,651.5 619.9,661.2 617.5,674.8 629.8,668.4 642,674.8 
			639.7,661.2 649.6,651.5 		"/>
		<polygon class="st1" points="690.2,649.5 684.1,637.1 678,649.5 664.3,651.5 674.2,661.2 671.8,674.8 684.1,668.4 696.3,674.8 
			694,661.2 703.9,651.5 		"/>
		<polygon class="st1" points="744.5,649.5 738.4,637.1 732.3,649.5 718.6,651.5 728.5,661.2 726.2,674.8 738.4,668.4 750.7,674.8 
			748.3,661.2 758.2,651.5 		"/>
		<polygon class="st1" points="798.9,649.5 792.8,637.1 786.6,649.5 772.9,651.5 782.8,661.2 780.5,674.8 792.8,668.4 805,674.8 
			802.7,661.2 812.6,651.5 		"/>
		<polygon class="st1" points="853.2,649.5 847.1,637.1 841,649.5 827.3,651.5 837.2,661.2 834.8,674.8 847.1,668.4 859.3,674.8 
			857,661.2 866.9,651.5 		"/>
		<polygon class="st1" points="907.5,649.5 901.4,637.1 895.3,649.5 881.6,651.5 891.5,661.2 889.2,674.8 901.4,668.4 913.7,674.8 
			911.3,661.2 921.2,651.5 		"/>
		<polygon class="st1" points="975.6,651.5 961.9,649.5 955.7,637.1 949.6,649.5 935.9,651.5 945.8,661.2 943.5,674.8 955.7,668.4 
			968,674.8 965.7,661.2 		"/>
	</g>
</g>
</svg>
