<?xml version="1.0" encoding="utf-8"?>
<!-- Generator: Adobe Illustrator 22.0.0, SVG Export Plug-In . SVG Version: 6.00 Build 0)  -->
<svg version="1.1" id="Layer_1" xmlns="http://www.w3.org/2000/svg" xmlns:xlink="http://www.w3.org/1999/xlink" x="0px" y="0px"
	 viewBox="0 0 1080 1080" style="enable-background:new 0 0 1080 1080;" xml:space="preserve">
<style type="text/css">
	.st0{fill:#2B568D;}
	.st1{fill:#D21B30;}
	.st2{clip-path:url(#SVGID_2_);}
	.st3{fill-rule:evenodd;clip-rule:evenodd;fill:#2B568D;}
	.st4{clip-path:url(#SVGID_4_);}
</style>
<g>
	<g>
		<g>
			<path class="st0" d="M239.7,488.4c0.1,0.2,0.1,0.4,0.2,0.6c12.8,45.3,30.4,88.9,52.3,129.5c0.1,0.2,0.2,0.4,0.3,0.6
				c1.4,2.9,2.3,5.7,3.1,8.3c0.5-2.4,1-4.9,1.5-7.3c-21.7-40.3-39.1-83.5-51.7-128.3c-0.1-0.2-0.1-0.4-0.2-0.6
				c-5.1-14.7-13.2-21-20.4-23.7C230.4,471.1,235.9,477.4,239.7,488.4z"/>
			<path class="st0" d="M426.6,466.7c-0.2-0.1-0.4-0.2-0.6-0.2c9.4,5.6,15.1,14.2,16.4,25.2c0.2,1.6,0.3,3.1,0.4,4.6
				c1.1-2.9,2.4-5.4,3.9-7.6C443.9,478.7,437.1,471.2,426.6,466.7z"/>
			<path class="st0" d="M128.3,493.4c0.2,0.2,0.4,0.5,0.5,0.7c10.9,15.9,21.1,31.1,31.1,46l1.2-3.7c-8.6-12.9-17.5-26-26.8-39.6
				c-0.2-0.2-0.4-0.5-0.5-0.7c-4.3-5.3-9-8.3-13.3-9.8C123.1,488,125.8,490.3,128.3,493.4z"/>
			<path class="st0" d="M513,546.1c-1-0.1-2-0.2-3-0.2c-1.3,0-2.7,0.1-4.1,0.4c0.1,6.7,0.1,13.3,0.2,19.8c0.8-0.6,1.5-1.2,2.3-1.8
				c1.3-1.2,2.3-2.5,3.2-3.9c0-3.7-0.1-7.5-0.1-11.3c0.8-0.1,1.5-0.2,2.2-0.3C513.5,547.3,513.2,546.5,513,546.1z"/>
			<path class="st0" d="M803.6,673.2c-0.3-0.1-0.7-0.2-1-0.4c4.8,2.9,8.7,6.9,11.8,11.9c-0.1-1.4-0.2-2.9-0.2-4.4
				c-3-3-6.5-5.4-10.5-7.1C803.7,673.3,803.6,673.3,803.6,673.2z"/>
			<path class="st0" d="M144.7,677c0-0.6-0.1-1.2-0.1-1.8c-0.1-1.9-0.2-3.9-0.3-5.9c-0.1-2.5-0.4-4.6-0.7-6.5
				c-0.6-8.9-1.2-18-1.6-27.1c-0.1-0.1-0.2-0.3-0.3-0.4c-0.1-0.1-0.2-0.3-0.3-0.4c-1.8-2.8-3.5-5.5-5.3-8.2
				c0.5,11.2,1.1,22.4,1.9,33.4c0.4,1.9,0.6,4,0.7,6.5c0.1,2,0.2,4,0.3,5.9c0,0.6,0.1,1.2,0.1,1.8c0,0.4,0,0.7,0.1,1.1
				c0,0.3,0,0.6,0,0.9c0,9.8-3.1,18.3-9.4,25.3c-6.4,7.2-14.5,11-23.4,11c-3.9,0-7.5-0.7-10.9-1.9c4.7,3.1,10.2,4.7,16.4,4.7
				c8.9,0,16.9-3.8,23.4-11c6.2-7,9.4-15.5,9.4-25.3c0-0.3,0-0.6,0-0.9C144.7,677.7,144.7,677.3,144.7,677z"/>
			<path class="st0" d="M726.9,651.6c-0.1-16.8,5.6-28.8,17.4-36.6c5.9-3.5,13-5.3,21.6-5.4c0.4,0,0.7,0,1.1,0
				c5.4,0,10.2,0.9,14.5,2.6c0,0-0.1-0.1-0.1-0.1c-5.7-3.5-12.2-5.2-19.9-5.2c-0.4,0-0.7,0-1.1,0c-8.6,0.2-15.7,2-21.6,5.4
				c-11.8,7.8-17.5,19.8-17.4,36.6c0,0.2,0,0.4,0,0.6c-0.4,8.7,0.6,17.5,2.9,26.1c1.6,5.9,4.8,9.3,10.3,11c0.1,0,0.2,0,0.3,0.1
				c-2.4-1.9-4-4.6-5-8.3c-2.3-8.7-3.3-17.5-2.9-26.1C726.9,652,726.9,651.8,726.9,651.6z"/>
			<path class="st0" d="M815.8,550.3c10.8,8.3,15.8,19.4,14.6,32.1c-1.1,11.9-6,21.4-14.3,28.4c-5.1,4.4-11.2,6.7-17.5,6.7
				c-3.7,0-7.5-0.8-11.4-2.4c5.8,3.4,11.4,5.1,16.9,5.1c6.3,0,12.4-2.3,17.5-6.7c8.3-7,13.2-16.5,14.3-28.4
				c1.2-12.7-3.8-23.7-14.6-32.1c-0.3-0.2-0.5-0.4-0.8-0.6c-4.1-2.6-8.2-4.9-12.5-6.8c2.3,1.3,4.7,2.6,6.9,4.1
				C815.3,549.9,815.6,550.1,815.8,550.3z"/>
			<path class="st0" d="M580.5,639.6c-7-6.8-14.3-13.7-22.1-20.8c17.5-17.8,26.4-41.6,26.4-71c0-0.3,0-0.6,0-0.9
				c-2.1-26.8-13.3-47.6-33.3-61.9c-0.2-0.1-0.4-0.3-0.6-0.4c-2.6-1.7-5.4-3.1-8.2-4.3c0.9,0.5,1.8,1,2.6,1.5
				c0.2,0.1,0.4,0.2,0.6,0.4c20,14.3,31.2,35.2,33.3,61.9c0,0.3,0,0.6,0,0.9c0,29.4-8.9,53.3-26.4,71c7.8,7.1,15,13.9,22.1,20.8
				c0.1,0.1,0.2,0.2,0.3,0.3c5.4,5.7,8.5,12.7,9.2,20.6c0.6-3.4,1.2-6.8,1.7-10.3c-1.4-2.7-3.2-5.3-5.5-7.6
				C580.7,639.8,580.6,639.7,580.5,639.6z"/>
			<path class="st0" d="M396,618.1c10,6.1,13.4,15.2,14.5,22.6c1.5,11.2-1.1,22-7.4,31.1c-6,8.8-14.7,13.4-25.1,13.4
				c-2.3,0-4.8-0.2-7.2-0.7c-0.2,0-0.4-0.1-0.6-0.1c-14.7-3.7-29.7-6.1-44.7-7.3c-0.1,0-0.2,0-0.3,0c-3.3-0.3-6.4-1.1-9.3-2.3
				c4.4,2.7,9.3,4.5,14.8,5c0.1,0,0.2,0,0.3,0c14.9,1.1,30,3.6,44.7,7.3c0.2,0.1,0.4,0.1,0.6,0.1c2.5,0.5,4.9,0.7,7.2,0.7
				c10.4,0,19.1-4.6,25.1-13.4c6.3-9.1,8.9-19.9,7.4-31.1C414.8,634.9,410.3,623.9,396,618.1z"/>
			<path class="st0" d="M813.6,729.7c-0.2,0.3-0.4,0.6-0.6,0.9c-12.1,15.2-28.1,24.8-47.5,28.6c-7.1,1.4-14,2.1-20.7,2.1
				c-11.3,0-22.2-2-32.4-6.1c-0.1,0-0.2-0.1-0.3-0.1c-0.7-0.3-1.3-0.7-2-1c2.4,1.3,4.9,2.6,7.5,3.7c0.1,0.1,0.2,0.1,0.3,0.1
				c10.2,4,21.1,6.1,32.4,6.1c6.7,0,13.7-0.7,20.7-2.1c19.4-3.8,35.4-13.4,47.5-28.6c0.2-0.3,0.4-0.6,0.6-0.9c5.1-7.9,7.5-16,7.3-24
				c-2.1-2-4.1-4.3-5.8-6.9C821.9,711,819.6,720.4,813.6,729.7z"/>
			<path class="st0" d="M200.7,626.3c0,0.1-0.1,0.3-0.1,0.4c-6.8,18.2-18.3,23.6-26.7,24.9c-0.1,0-0.1,0-0.2,0
				c-1.4,0.2-2.7,0.3-4.1,0.3c-3,0-6.5-0.5-10.2-1.9c5.8,3.6,11.4,4.7,15.7,4.7c1.3,0,2.7-0.1,4.1-0.3c0.1,0,0.1,0,0.2,0
				c8.4-1.3,19.9-6.6,26.7-24.9c0.1-0.1,0.1-0.3,0.1-0.4c2.2-6.8,4.5-13.6,6.7-20.3c-1.2-2.8-2.5-5.5-3.7-8.3
				C206.5,609,203.6,617.7,200.7,626.3z"/>
			<path class="st0" d="M883.9,677.8c-2.8,6.8-5.7,13.5-8.8,20.5c-0.1,0.2-0.2,0.4-0.3,0.6c-7.8,15.6-18.5,18.9-26,18.9
				c-1,0-2.1-0.1-3.1-0.2c-3-0.3-5.8-1.1-8.5-2.2c4.2,2.6,8.9,4.3,14,4.9c1,0.1,2.1,0.2,3.1,0.2c7.6,0,18.2-3.3,26-18.9
				c0.1-0.2,0.2-0.4,0.3-0.6c3-7,5.9-13.7,8.8-20.5c12.1,1.9,23.5,3.5,34.4,4.9c-0.2-0.7-0.5-1.4-0.7-2.1
				C910.8,681.8,897.8,680,883.9,677.8z"/>
			<path class="st0" d="M998,685.8c0-0.1-0.1-0.3-0.1-0.4c-18.5-54.4-35-110.8-48.8-167.6c-0.1-0.2-0.1-0.5-0.2-0.7
				c-4.4-14-13-20.7-20.9-23.8c6.1,3.8,12,10.2,15.4,21c0.1,0.2,0.1,0.5,0.2,0.7c13.9,56.8,30.3,113.2,48.8,167.6
				c0.1,0.1,0.1,0.3,0.1,0.4c2.8,9.5,1.8,19-2.9,27.5c-4.6,8.5-11,14.2-19,17.1c-0.3,0.1-0.5,0.2-0.8,0.3c-3,0.9-6.1,1.3-9,1.3
				c-3.4,0-6.6-0.6-9.6-1.7c4.5,2.9,9.6,4.4,15.1,4.4c2.9,0,5.9-0.4,9-1.3c0.3-0.1,0.5-0.2,0.8-0.3c8-2.9,14.4-8.7,19-17.1
				C999.8,704.7,1000.8,695.2,998,685.8z"/>
			<path class="st0" d="M667.3,594.5c0.1-0.3,0.3-0.5,0.4-0.8l8.5-50c1.5-9.2,0.4-17.8-3.1-25.5c-3.7-8.2-9.9-14.1-18-17.3
				c5.4,3.4,9.7,8.3,12.5,14.5c3.5,7.8,4.5,16.3,3.1,25.5l-8.6,51l-8.5,50.1c-1.4,8.3-2.8,16.6-4.2,24.9c-1.4,8.5-2.9,17.1-4.3,25.6
				c0,0.2-0.1,0.4-0.1,0.5c-2.1,9.9-7.4,17.6-15.2,22.3c-5.3,3.3-10.9,4.9-16.7,4.9c-2.9,0-5.8-0.4-8.6-1.2
				c-0.2-0.1-0.5-0.2-0.7-0.2c-0.3-0.1-0.6-0.3-1-0.4c2,1.2,4.2,2.3,6.5,3.2c0.2,0.1,0.5,0.2,0.7,0.2c2.9,0.8,5.7,1.2,8.6,1.2
				c5.8,0,11.4-1.7,16.7-4.9c7.8-4.7,13.1-12.4,15.2-22.3c0-0.2,0.1-0.4,0.1-0.5c1.4-8.5,2.9-17.1,4.3-25.6c0.4-2.5,0.8-5,1.3-7.5
				c-0.1-2.9-0.2-5.9-0.1-8.9C656.2,632.5,660.1,612.7,667.3,594.5z"/>
			<path class="st0" d="M435.1,522.9c-5.4,7.6-12.9,11.8-21.9,12c3.2,3,5.9,6.7,7.9,11.1c0,0,0,0.1,0.1,0.1c3.7,8.5,4.6,17.2,2.7,26
				c0,0.1-0.1,0.2-0.1,0.4c-2.5,9.9-7.7,17.4-15.2,21.9c-5.2,3.1-11,4.7-17,4.7c-2.4,0-4.8-0.3-7.2-0.7c-0.1,0-0.2,0-0.3-0.1
				l-2.1-0.5c-3.6-0.8-7-1.6-10.4-2.3c-0.1,0-0.2,0-0.3-0.1c-0.6-0.1-1.1-0.3-1.7-0.4c-1,4.9-2.1,9.7-3.1,14.6
				c1.9,0.4,3.9,0.8,5.8,1.2c0.9-4.3,1.8-8.7,2.8-13c0.6,0.1,1.2,0.3,1.7,0.4c0.1,0,0.2,0,0.3,0.1c3.4,0.7,6.8,1.5,10.4,2.3l2.1,0.5
				c0.1,0,0.2,0,0.3,0.1c2.4,0.5,4.9,0.7,7.2,0.7c6,0,11.8-1.6,17-4.7c7.5-4.5,12.8-12.1,15.2-21.9c0-0.1,0.1-0.2,0.1-0.4
				c1.9-8.8,1-17.5-2.7-26c0,0,0-0.1-0.1-0.1c-2-4.4-4.6-8.2-7.9-11.1c8.9-0.3,16.4-4.4,21.8-11.9c-0.1-4.3-0.1-8.6-0.2-12.9
				C439,516.4,437.3,519.7,435.1,522.9z"/>
			<path class="st0" d="M581.1,678.9c-1.4,3-3.1,5.9-5.2,8.5c-0.2,0.2-0.3,0.4-0.5,0.5c-8.1,8.9-16.6,10.7-22.4,10.7
				c-0.5,0-1.1,0-1.7,0c-3.5-0.2-6.9-1-10.1-2.2c4.8,3,10.1,4.7,15.6,5c0.6,0,1.1,0,1.7,0c5.8,0,14.3-1.9,22.4-10.7
				c0.1-0.1,0.2-0.3,0.4-0.4C580.8,686.6,580.7,682.8,581.1,678.9z"/>
			<path class="st0" d="M292.2,654.6c-6.1,10-15.1,16-26,17.5c-1.3,0.2-2.6,0.3-3.9,0.3c-2.7,0-5.8-0.4-9.2-1.6
				c5.3,3.4,10.5,4.4,14.7,4.4c1.3,0,2.6-0.1,3.9-0.3c10.9-1.4,19.8-7.4,25.9-17.3c-1.3-2.6-2.2-5.3-2.8-8.2
				C294,651.4,293.1,653.1,292.2,654.6z"/>
			<path class="st0" d="M506,669.9c0,0.2,0,0.4,0,0.5c-1.1,18.7-10.1,27.2-17.4,30.9c-5.1,2.6-10.3,3.9-15.5,3.9c-4,0-8-0.8-12-2.4
				c0.7,0.4,1.3,0.8,1.9,1.1c5.1,2.7,10.3,4,15.6,4c5.2,0,10.4-1.3,15.5-3.9c7.3-3.8,16.3-12.2,17.4-30.9c0-0.2,0-0.4,0-0.5
				c0-0.2,0-0.4,0-0.6c-1.8-1.7-3.6-3.4-5.5-5C506.1,668,506,669,506,669.9z"/>
			<path class="st0" d="M264.7,661.2c7.7-1,13.7-5,18.1-12.3c4.3-7.1,4.2-15.4-0.3-25.1c-22.4-41.4-40.1-85.3-53.2-131.8
				c-4.3-12.4-11.2-18.4-20.6-18.1c-9.4,0.4-16.5,6.5-21.1,18.1l-24.3,73.1c-14.3-21.8-28.8-43.3-43.5-64.8
				c-5.4-6.7-12.2-8.9-20.1-6.6c-4.8,1-8.9,3.5-12.3,7.4c-3.4,4.1-5.3,9.5-5.8,16.5c-2.1,52.9-0.9,105.7,3.5,158.5
				c0.7,7,2.8,13,6.6,18c3.7,4.9,8.8,7.3,15.1,7.3c5.7,0,10.8-2.4,15.2-7.3c4.4-4.9,6.5-10.8,6.5-18c-0.1-1.1-0.1-2.1-0.2-3.2
				c-0.1-2-0.2-4.1-0.3-6.1c-0.1-2-0.3-3.8-0.7-5.5c-1.8-24.6-2.8-49.1-3.2-73.7c9,13.6,18,27.3,26.8,41c6.3,9,13.5,12.9,21.5,11.8
				c8-1.2,14-7.1,18.1-17.8c6-18.2,12.1-36.2,18.1-54.4c10.6,28,22.9,55.1,36.9,81C250.5,658.3,257.1,662.2,264.7,661.2z"/>
			<path class="st0" d="M372.8,673.6c9.3,1.8,16.3-1,21.1-8.1c4.9-7,6.7-14.9,5.6-23.4c-1.2-8.6-6.3-14.3-15.2-17.3
				c-10.3-2.5-20.6-4.6-31.1-6.2c2.6-12.3,5.2-24.5,7.8-36.7c4.2,0.9,8.5,1.9,12.7,2.8c4.2,0.9,8.4,1.9,12.7,2.8
				c5.9,1.2,11.4,0.3,16.4-2.6c5-3,8.4-8,10.2-15.1c1.4-6.6,0.7-13-2.1-19.3c-2.8-6.2-7.2-10.2-13-11.8c-4.5-1-8.9-2.1-13.3-3.1
				c-4.5-1-8.9-2-13.3-3c0.6-3,1.2-5.9,1.9-8.9c0.6-3,1.2-5.9,1.9-8.9c10.1,1.6,20.1,4.3,30.1,7.9c9.1,2.5,16,0.4,20.8-6.3
				c4.8-6.8,6.6-14.7,5.5-23.5c-1.1-8.9-6.1-15.2-14.8-18.9c-19.6-6.9-39.5-10.7-59.9-11.7c-7.4-0.1-12.8,2.5-16.3,7.9
				c-3.5,5.4-5,11.5-4.5,18.5c-5.1,24.2-10.3,48.4-15.3,72.7c-5.1,24.2-10.2,48.4-15.3,72.6c-1.5,8.6-0.3,15.9,3.8,21.9
				c4.1,6,9.7,9.4,17,10.2C342,667.3,357.5,669.8,372.8,673.6z"/>
			<path class="st0" d="M567.3,680.5c3.9-4.9,6.1-10.9,6.4-18.1c0.3-7.1-1.9-13-6.4-17.7c-10.2-9.9-20.5-19.4-31-28.8
				c21.3-16.3,31.9-40,31.9-70.9c-1.9-23.5-11.5-41.5-28.7-53.9c-8.3-5.3-17.6-7.8-27.6-7.4c-10.1,0.3-19.7,2.3-29.1,5.8
				c-6.9-3.6-13.9-3.6-20.8,0c-6.8,3.6-10.5,10.8-10.8,21.8c0.8,52.8,1,105.6,0.5,158.5c0.4,10.9,4.1,18.2,10.9,21.8
				c6.9,3.6,13.8,3.6,20.9,0c7-3.6,10.8-10.8,11.4-21.8c0.1-9,0.2-18.1,0.2-27c14.1,12.1,28,24.7,41.5,37.8
				c4.7,4.5,9.8,6.8,15.3,7.1C557.7,688,562.7,685.6,567.3,680.5z M515.7,572.5c-5.8,5-12.3,8.9-19.5,11.5c-0.1,0-0.2,0-0.3,0
				c-0.3-0.1-0.5-0.1-0.7-0.2c-0.1-15.2-0.2-30.4-0.4-45.8c7.4-3,14.2-3.8,20.5-2.7c6.3,1.1,9.5,6.9,9.7,17.3
				C524.6,560.8,521.5,567.5,515.7,572.5z"/>
			<path class="st0" d="M623.9,706c5.3-3.2,8.7-8.3,10.2-15.2c2.8-16.9,5.7-33.7,8.5-50.6c5.7-33.7,11.4-67.4,17.1-101.1
				c1.1-7,0.4-13.4-2.2-19.2c-2.6-5.8-6.9-9.9-12.9-11.9c-5.6-1.6-11.1-0.9-16.5,2.4c-5.3,3.3-8.7,8.3-10.1,15.2
				c-1.4,8.3-2.8,16.7-4.2,25.1c-7.2,42.3-14.3,84.5-21.4,126.7c-1.1,6.9-0.4,13.4,2.2,19.2c2.6,5.8,6.9,9.7,12.9,11.9
				C613.2,710.2,618.7,709.3,623.9,706z"/>
			<path class="st0" d="M763.2,748.3c16.9-3.3,30.6-11.5,41.1-24.6c5.6-8.6,7-17.2,4.1-25.7c-2.9-8.5-7.8-14.2-14.7-17.3
				c-6.9-3-13.6-0.7-20,7.2c-5.1,6.2-11.7,9.9-19.7,10.7c-8,0.9-15.5,0.4-22.5-1.4c-9.3-2.8-15.2-9.1-17.9-18.7
				c-2.6-9.7-3.7-19.6-3.3-29.6c-0.1-20.7,7.4-36,22.5-46c7.7-4.6,16.7-6.9,27.2-7.1c10.5-0.2,19.5,2.2,27,6.9
				c8.3,5,15.6,4.9,21.8-0.3c6.2-5.1,9.6-12.1,10.5-21c0.8-8.9-2.6-16.3-10.4-22.3c-15-9.6-31.2-14.1-48.8-13.4
				c-17.7,0.7-34.1,5.1-49.1,13.6c-15.5,9.1-26.7,22.2-33.6,39.4c-6.8,17.1-10.3,35.4-10.6,54.9c-0.3,20.6,3.7,39.2,11.9,55.6
				c8.3,16.4,20.8,28.3,37.5,35.7C730.7,750.6,746.3,751.7,763.2,748.3z"/>
			<path class="st0" d="M966.8,717.3c5.4-2,9.8-6,13.1-12c3.3-6,3.9-12.5,2-19.2c-18.8-55.2-35.2-111.4-49.1-168.6
				c-3.2-10.1-9.4-16.1-18.4-18.1c-9.1-2-16.1,2.1-21.1,12c-21.1,52.6-42.9,104.9-65.5,156.7c-3.7,10.1-3.4,18.7,1.2,26
				s10.6,11.4,18.1,12.3c7.4,0.9,13.4-3.4,18.1-12.7c3-6.9,5.9-13.7,8.8-20.6c1.1-2.5,2.2-5.1,3.4-7.8c18.1,3,36.1,5.6,54.3,7.7
				c2.8,8.9,5.7,17.6,8.7,26.4c2.2,6.6,5.7,11.6,10.4,15.1C955.1,718.2,960.6,719.1,966.8,717.3z M897.3,618
				c1.1-2.8,2.3-5.6,3.5-8.4c2.2-5.3,4.5-10.6,6.6-15.9c2.5,9,5.1,18,7.8,26.8C909.2,619.8,903.2,618.9,897.3,618z"/>
		</g>
		<g>
			<path class="st1" d="M239.7,488.4c0.1,0.2,0.1,0.4,0.2,0.6c7.4,26.2,16.4,51.9,27,76.7h4.4c-10-24-18.7-48.7-25.8-73.9
				c-0.1-0.2-0.1-0.4-0.2-0.6c-5.1-14.7-13.2-21-20.4-23.7C230.4,471.1,235.9,477.4,239.7,488.4z"/>
			<path class="st1" d="M426.6,466.7c-0.2-0.1-0.4-0.2-0.6-0.2c9.4,5.6,15.1,14.2,16.4,25.2c0.2,1.6,0.3,3.1,0.4,4.6
				c1.1-2.9,2.4-5.4,3.9-7.6C443.9,478.7,437.1,471.2,426.6,466.7z"/>
			<path class="st1" d="M128.3,493.4c0.2,0.2,0.4,0.5,0.5,0.7c10.9,15.9,21.1,31.1,31.1,46l1.2-3.7c-8.6-12.9-17.5-26-26.8-39.6
				c-0.2-0.2-0.4-0.5-0.5-0.7c-4.3-5.3-9-8.3-13.3-9.8C123.1,488,125.8,490.3,128.3,493.4z"/>
			<path class="st1" d="M506.5,565.7c0.6-0.5,1.3-1,1.9-1.6c1.3-1.2,2.3-2.5,3.2-3.9c0-3.7-0.1-7.5-0.1-11.3
				c0.8-0.1,1.5-0.2,2.2-0.3c-0.2-1.4-0.5-2.2-0.7-2.6c-1-0.1-2-0.2-3-0.2c-1.3,0-2.7,0.1-4.1,0.4c0.1,6.6,0.1,13.2,0.2,19.5H506.5z
				"/>
			<path class="st1" d="M803.6,673.2c-0.3-0.1-0.7-0.2-1-0.4c4.8,2.9,8.7,6.9,11.8,11.9c-0.1-1.4-0.2-2.9-0.2-4.4
				c-3-3-6.5-5.4-10.5-7.1C803.7,673.3,803.6,673.3,803.6,673.2z"/>
			<path class="st1" d="M144.7,677c0-0.6-0.1-1.2-0.1-1.8c-0.1-1.9-0.2-3.9-0.3-5.9c-0.1-2.5-0.4-4.6-0.7-6.5c0-0.2,0-0.3,0-0.5
				h-5.1c0.2,1.3,0.3,2.7,0.4,4.2c0.1,2,0.2,4,0.3,5.9c0,0.6,0.1,1.2,0.1,1.8c0,0.4,0,0.7,0.1,1.1c0,0.3,0,0.6,0,0.9
				c0,9.8-3.1,18.3-9.4,25.3c-6.4,7.2-14.5,11-23.4,11c-3.9,0-7.5-0.7-10.9-1.9c4.7,3.1,10.2,4.7,16.4,4.7c8.9,0,16.9-3.8,23.4-11
				c6.2-7,9.4-15.5,9.4-25.3c0-0.3,0-0.6,0-0.9C144.7,677.7,144.7,677.3,144.7,677z"/>
			<path class="st1" d="M729.8,678.3c-1.4-5.3-2.3-10.7-2.7-16.1h-5.3c0.5,4.5,1.3,8.9,2.5,13.3c1.6,5.9,4.8,9.3,10.3,11
				c0.1,0,0.2,0,0.3,0.1C732.4,684.7,730.8,682,729.8,678.3z"/>
			<path class="st1" d="M815.8,550.3c5.7,4.4,9.7,9.6,12.2,15.4h4.2c-2.5-4.7-6.1-9-10.8-12.7c-0.3-0.2-0.5-0.4-0.8-0.6
				c-4.1-2.6-8.2-4.9-12.5-6.8c2.3,1.3,4.7,2.6,6.9,4.1C815.3,549.9,815.6,550.1,815.8,550.3z"/>
			<path class="st1" d="M546,482.2c20,14.3,31.2,35.2,33.3,61.9c0,0.3,0,0.6,0,0.9c0,7.2-0.5,14.2-1.6,20.7h5.9
				c0.8-5.7,1.2-11.7,1.2-18c0-0.3,0-0.6,0-0.9c-2.1-26.8-13.3-47.6-33.3-61.9c-0.2-0.1-0.4-0.3-0.6-0.4c-2.6-1.7-5.4-3.1-8.2-4.3
				c0.9,0.5,1.8,1,2.6,1.5C545.6,482,545.8,482.1,546,482.2z"/>
			<path class="st1" d="M408,662.2c-1.3,3.3-2.9,6.5-5,9.5c-6,8.8-14.7,13.4-25.1,13.4c-2.3,0-4.8-0.2-7.2-0.7
				c-0.2,0-0.4-0.1-0.6-0.1c-14.7-3.7-29.7-6.1-44.7-7.3c-0.1,0-0.2,0-0.3,0c-3.3-0.3-6.4-1.1-9.3-2.3c4.4,2.7,9.3,4.5,14.8,5
				c0.1,0,0.2,0,0.3,0c14.9,1.1,30,3.6,44.7,7.3c0.2,0.1,0.4,0.1,0.6,0.1c2.5,0.5,4.9,0.7,7.2,0.7c10.4,0,19.1-4.6,25.1-13.4
				c2.7-3.8,4.6-8,5.9-12.3H408z"/>
			<path class="st1" d="M813.6,729.7c-0.2,0.3-0.4,0.6-0.6,0.9c-12.1,15.2-28.1,24.8-47.5,28.6c-7.1,1.4-14,2.1-20.7,2.1
				c-11.3,0-22.2-2-32.4-6.1c-0.1,0-0.2-0.1-0.3-0.1c-0.7-0.3-1.3-0.7-2-1c2.4,1.3,4.9,2.6,7.5,3.7c0.1,0.1,0.2,0.1,0.3,0.1
				c10.2,4,21.1,6.1,32.4,6.1c6.7,0,13.7-0.7,20.7-2.1c19.4-3.8,35.4-13.4,47.5-28.6c0.2-0.3,0.4-0.6,0.6-0.9c5.1-7.9,7.5-16,7.3-24
				c-2.1-2-4.1-4.3-5.8-6.9C821.9,711,819.6,720.4,813.6,729.7z"/>
			<path class="st1" d="M883.9,677.8c-2.8,6.8-5.7,13.5-8.8,20.5c-0.1,0.2-0.2,0.4-0.3,0.6c-7.8,15.6-18.5,18.9-26,18.9
				c-1,0-2.1-0.1-3.1-0.2c-3-0.3-5.8-1.1-8.5-2.2c4.2,2.6,8.9,4.3,14,4.9c1,0.1,2.1,0.2,3.1,0.2c7.6,0,18.2-3.3,26-18.9
				c0.1-0.2,0.2-0.4,0.3-0.6c3-7,5.9-13.7,8.8-20.5c12.1,1.9,23.5,3.5,34.4,4.9c-0.2-0.7-0.5-1.4-0.7-2.1
				C910.8,681.8,897.8,680,883.9,677.8z"/>
			<path class="st1" d="M943.3,514.2c0.1,0.2,0.1,0.5,0.2,0.7c4.1,17,8.5,33.9,13.1,50.8h4.8c-4.3-16-8.5-32-12.4-48.1
				c-0.1-0.2-0.1-0.5-0.2-0.7c-4.4-14-13-20.7-20.9-23.8C934,497,939.9,503.4,943.3,514.2z"/>
			<path class="st1" d="M997.8,685.3c-2.6-7.7-5.2-15.4-7.7-23.1h-4.6c2.2,6.8,4.5,13.6,6.8,20.3c0,0.1,0.1,0.3,0.1,0.4
				c2.8,9.5,1.8,19-2.9,27.5c-4.6,8.5-11,14.2-19,17.1c-0.3,0.1-0.5,0.2-0.8,0.3c-3,0.9-6.1,1.3-9,1.3c-3.4,0-6.6-0.6-9.6-1.7
				c4.5,2.9,9.6,4.4,15.1,4.4c2.9,0,5.9-0.4,9-1.3c0.3-0.1,0.5-0.2,0.8-0.3c8-2.9,14.4-8.7,19-17.1c4.7-8.6,5.6-18.1,2.9-27.5
				C997.9,685.6,997.9,685.5,997.8,685.3z"/>
			<path class="st1" d="M667.6,515.4c3.5,7.8,4.5,16.3,3.1,25.5l-4.2,24.8h6l3.7-22c1.5-9.2,0.4-17.8-3.1-25.5
				c-3.7-8.2-9.9-14.1-18-17.3C660.5,504.3,664.8,509.2,667.6,515.4z"/>
			<path class="st1" d="M650.1,662.2c-0.3,1.6-0.5,3.2-0.8,4.8c-1.4,8.5-2.9,17.1-4.3,25.6c0,0.2-0.1,0.4-0.1,0.5
				c-2.1,9.9-7.4,17.6-15.2,22.3c-5.3,3.3-10.9,4.9-16.7,4.9c-2.9,0-5.8-0.4-8.6-1.2c-0.2-0.1-0.5-0.2-0.7-0.2
				c-0.3-0.1-0.6-0.3-1-0.4c2,1.2,4.2,2.3,6.5,3.2c0.2,0.1,0.5,0.2,0.7,0.2c2.9,0.8,5.7,1.2,8.6,1.2c5.8,0,11.4-1.7,16.7-4.9
				c7.8-4.7,13.1-12.4,15.2-22.3c0-0.2,0.1-0.4,0.1-0.5c1.4-8.5,2.9-17.1,4.3-25.6c0.4-2.5,0.8-5,1.3-7.5c0,0,0-0.1,0-0.1H650.1z"/>
			<path class="st1" d="M421.1,546.2c2.8,6.4,4,12.9,3.6,19.5h5.6c-0.1-5.7-1.3-11.3-3.6-16.8c0,0,0-0.1-0.1-0.1
				c-2-4.4-4.6-8.2-7.9-11.1c8.9-0.3,16.4-4.4,21.8-11.9c-0.1-4.3-0.1-8.6-0.2-12.9c-1.3,3.5-3,6.9-5.2,10
				c-5.4,7.6-12.9,11.8-21.9,12c3.2,3,5.9,6.7,7.9,11.1C421.1,546.1,421.1,546.2,421.1,546.2z"/>
			<path class="st1" d="M581.1,678.9c-1.4,3-3.1,5.9-5.2,8.5c-0.2,0.2-0.3,0.4-0.5,0.5c-8.1,8.9-16.6,10.7-22.4,10.7
				c-0.5,0-1.1,0-1.7,0c-3.5-0.2-6.9-1-10.1-2.2c4.8,3,10.1,4.7,15.6,5c0.6,0,1.1,0,1.7,0c5.8,0,14.3-1.9,22.4-10.7
				c0.1-0.1,0.2-0.3,0.4-0.4C580.8,686.6,580.7,682.8,581.1,678.9z"/>
			<path class="st1" d="M286.2,662.2c-5.5,5.4-12.2,8.8-20,9.9c-1.3,0.2-2.6,0.3-3.9,0.3c-2.7,0-5.8-0.4-9.2-1.6
				c5.3,3.4,10.5,4.4,14.7,4.4c1.3,0,2.6-0.1,3.9-0.3c9-1.2,16.7-5.5,22.5-12.6H286.2z"/>
			<path class="st1" d="M506,669.9c0,0.2,0,0.4,0,0.5c-1.1,18.7-10.1,27.2-17.4,30.9c-5.1,2.6-10.3,3.9-15.5,3.9c-4,0-8-0.8-12-2.4
				c0.7,0.4,1.3,0.8,1.9,1.1c5.1,2.7,10.3,4,15.6,4c5.2,0,10.4-1.3,15.5-3.9c7.3-3.8,16.3-12.2,17.4-30.9c0-0.2,0-0.4,0-0.5
				c0-0.2,0-0.4,0-0.6c-1.8-1.7-3.6-3.4-5.5-5C506.1,668,506,669,506,669.9z"/>
			<path class="st1" d="M254.9,565.7c-9.9-23.8-18.5-48.3-25.6-73.7c-4.3-12.4-11.2-18.4-20.6-18.1c-9.4,0.4-16.5,6.5-21.1,18.1
				l-24.3,73.1c-14.3-21.8-28.8-43.3-43.5-64.8c-5.4-6.7-12.2-8.9-20.1-6.6c-4.8,1-8.9,3.5-12.3,7.4c-3.4,4.1-5.3,9.5-5.8,16.5
				c-0.6,16-0.9,32-1,48H254.9z"/>
			<path class="st1" d="M127.8,667c-0.1-1.7-0.3-3.3-0.5-4.7H83.9c0.3,4.7,0.7,9.4,1.1,14c0.7,7,2.8,13,6.6,18
				c3.7,4.9,8.8,7.3,15.1,7.3c5.7,0,10.8-2.4,15.2-7.3c4.4-4.9,6.5-10.8,6.5-18c-0.1-1.1-0.1-2.1-0.2-3.2
				C128,671.1,127.9,669,127.8,667z"/>
			<path class="st1" d="M315.5,662.2c3.1,2.1,6.7,3.4,10.8,3.8c15.7,1.2,31.2,3.7,46.5,7.6c9.3,1.8,16.3-1,21.1-8.1
				c0.7-1.1,1.4-2.2,2-3.3H315.5z"/>
			<path class="st1" d="M319.9,565.7h93.7c0.4-5.1-0.5-10.2-2.6-15.1c-2.8-6.2-7.2-10.2-13-11.8c-4.5-1-8.9-2.1-13.3-3.1
				c-4.5-1-8.9-2-13.3-3c0.6-3,1.2-5.9,1.9-8.9c0.6-3,1.2-5.9,1.9-8.9c10.1,1.6,20.1,4.3,30.1,7.9c9.1,2.5,16,0.4,20.8-6.3
				c4.8-6.8,6.6-14.7,5.5-23.5c-1.1-8.9-6.1-15.2-14.8-18.9c-19.6-6.9-39.5-10.7-59.9-11.7c-7.4-0.1-12.8,2.5-16.3,7.9
				c-3.5,5.4-5,11.5-4.5,18.5c-5.1,24.2-10.3,48.4-15.3,72.7C320.5,562.9,320.2,564.3,319.9,565.7z"/>
			<path class="st1" d="M451.8,662.2c0,2.5,0,5-0.1,7.6c0.4,10.9,4.1,18.2,10.9,21.8c6.9,3.6,13.8,3.6,20.9,0
				c7-3.6,10.8-10.8,11.4-21.8c0-2.5,0-5,0.1-7.6H451.8z"/>
			<path class="st1" d="M495.2,565.7c-0.1-9.2-0.1-18.5-0.3-27.7c7.4-3,14.2-3.8,20.5-2.7c6.3,1.1,9.5,6.9,9.7,17.3
				c-0.3,5-1.6,9.4-3.8,13.2h45.2c1.2-6.5,1.8-13.4,1.8-20.7c-1.9-23.5-11.5-41.5-28.7-53.9c-8.3-5.3-17.6-7.8-27.6-7.4
				c-10.1,0.3-19.7,2.3-29.1,5.8c-6.9-3.6-13.9-3.6-20.8,0c-6.8,3.6-10.5,10.8-10.8,21.8c0.3,18.1,0.5,36.3,0.6,54.4H495.2z"/>
			<path class="st1" d="M517.2,662.2c6.6,6,13.1,12.1,19.6,18.3c4.7,4.5,9.8,6.8,15.3,7.1c5.6,0.3,10.7-2.1,15.2-7.1
				c3.9-4.9,6.1-10.9,6.4-18.1c0-0.1,0-0.2,0-0.2H517.2z"/>
			<path class="st1" d="M595,662.2c-0.9,5.1-1.7,10.2-2.6,15.2c-1.1,6.9-0.4,13.4,2.2,19.2c2.6,5.8,6.9,9.7,12.9,11.9
				c5.7,1.6,11.2,0.8,16.5-2.5c5.3-3.2,8.7-8.3,10.2-15.2c1.6-9.5,3.2-19.1,4.8-28.6H595z"/>
			<path class="st1" d="M655.3,565.7c1.5-8.9,3-17.8,4.5-26.6c1.1-7,0.4-13.4-2.2-19.2c-2.6-5.8-6.9-9.9-12.9-11.9
				c-5.6-1.6-11.1-0.9-16.5,2.4c-5.3,3.3-8.7,8.3-10.1,15.2c-1.4,8.3-2.8,16.7-4.2,25.1c-0.9,5-1.7,10-2.5,15H655.3z"/>
			<path class="st1" d="M815.5,565.7c-1.7-2.4-3.8-4.6-6.4-6.7c-15-9.6-31.2-14.1-48.8-13.4c-17.7,0.7-34.1,5.1-49.1,13.6
				c-3.4,2-6.5,4.2-9.4,6.5H815.5z"/>
			<path class="st1" d="M793.7,680.6c-6.9-3-13.6-0.7-20,7.2c-5.1,6.2-11.7,9.9-19.7,10.7c-8,0.9-15.5,0.4-22.5-1.4
				c-9.3-2.8-15.2-9.1-17.9-18.7c-1.4-5.4-2.4-10.8-2.9-16.2h-43.6c0.8,17.2,4.7,32.9,11.7,47c8.3,16.4,20.8,28.3,37.5,35.7
				c14.3,5.7,29.9,6.8,46.9,3.4c16.9-3.3,30.6-11.5,41.1-24.6c5.6-8.6,7-17.2,4.1-25.7C805.5,689.4,800.7,683.7,793.7,680.6z"/>
			<path class="st1" d="M945.2,565.7c-4.3-16-8.5-32.1-12.4-48.2c-3.2-10.1-9.4-16.1-18.4-18.1c-9.1-2-16.1,2.1-21.1,12
				c-7.3,18.1-14.7,36.2-22.1,54.2H945.2z"/>
			<path class="st1" d="M973.9,662.2H830.3c-0.9,2-1.7,4-2.6,6c-3.7,10.1-3.4,18.7,1.2,26s10.6,11.4,18.1,12.3
				c7.4,0.9,13.4-3.4,18.1-12.7c3-6.9,5.9-13.7,8.8-20.6c1.1-2.5,2.2-5.1,3.4-7.8c18.1,3,36.1,5.6,54.3,7.7
				c2.8,8.9,5.7,17.6,8.7,26.4c2.2,6.6,5.7,11.6,10.4,15.1c4.6,3.5,10,4.4,16.3,2.6c5.4-2,9.8-6,13.1-12c3.3-6,3.9-12.5,2-19.2
				C979.2,678.2,976.5,670.2,973.9,662.2z"/>
		</g>
	</g>
	<g>
		<g>
			<g>
				<path class="st0" d="M724.4,360.4c-3.5-42.5-39-75.9-82.4-75.9c-38.3,0-70.5,26-79.9,61.4h-39.7c-9.4-35.3-41.6-61.4-79.9-61.4
					c-43.4,0-78.9,33.4-82.4,75.9l-0.1,12.8c3.1,42.9,38.8,76.7,82.5,76.7c45.7,0,82.7-37,82.7-82.7c0-1.4,0-2.8-0.1-4.3h34.3
					c-0.1,1.4-0.1,2.8-0.1,4.3c0,45.7,37,82.7,82.7,82.7c43.7,0,79.4-33.8,82.4-76.7L724.4,360.4z"/>
			</g>
			<g>
				<g>
					<defs>
						<path id="SVGID_1_" d="M507.9,367.2c0,36.1-29.3,65.4-65.4,65.4c-36.1,0-65.4-29.3-65.4-65.4c0-36.1,29.3-65.4,65.4-65.4
							C478.7,301.9,507.9,331.1,507.9,367.2z"/>
					</defs>
					<use xlink:href="#SVGID_1_"  style="overflow:visible;fill:#FFFFFF;"/>
					<clipPath id="SVGID_2_">
						<use xlink:href="#SVGID_1_"  style="overflow:visible;"/>
					</clipPath>
					<g class="st2">
						<path class="st3" d="M279.3,172.2h414.2v322.3H279.3V172.2L279.3,172.2z M331.9,196.9h-14.4l-4.1-12.4l-4.1,12.4h-14.5
							l11.4,8.3l-4.1,14.4l11.4-9.3l11.4,8.3l-4.1-13.4L331.9,196.9L331.9,196.9z M673.9,462.4h-13.4l-5.2-12.4l-4.1,12.4h-13.4
							l11.3,8.3l-5.2,14.4l11.3-9.3l11.4,9.3l-4.2-14.4L673.9,462.4L673.9,462.4z M605.7,462.4h-14.5l-4.1-12.4l-4.1,12.4h-14.5
							l11.3,8.3l-4.1,14.4l11.4-9.3l11.4,9.3l-4.2-14.4L605.7,462.4L605.7,462.4z M536.5,462.4H523l-4.1-12.4l-4.1,12.4h-14.5
							l11.4,8.3l-5.2,14.4l12.4-9.3l11.4,9.3l-4.1-14.4L536.5,462.4L536.5,462.4z M468.3,462.4h-13.4l-4.1-12.4l-5.1,12.4h-13.4
							l11.4,8.3l-5.2,14.4l12.4-9.3l11.4,9.3l-5.2-14.4L468.3,462.4L468.3,462.4z M400.1,462.4h-13.4l-5.2-12.4l-4.1,12.4H364
							l11.4,8.3l-5.2,14.4l11.4-9.3l11.4,9.3l-4.1-14.4L400.1,462.4L400.1,462.4z M331.9,462.4h-14.4l-4.1-12.4l-4.1,12.4h-14.5
							l11.4,8.3l-4.1,14.4l11.4-9.3l11.4,9.3l-4.1-14.4L331.9,462.4L331.9,462.4z M637.7,429.4h-13.4l-4.1-12.4l-4.1,12.4h-14.5
							l11.3,8.3l-5.2,14.5l12.4-9.3l11.4,8.3l-5.2-13.4L637.7,429.4L637.7,429.4z M569.6,429.4h-13.4L551,417l-4.1,12.4h-13.5
							l11.4,8.3l-5.2,14.5l11.4-9.3l11.3,8.3l-4.1-13.4L569.6,429.4L569.6,429.4z M501.3,429.4h-14.4l-4.1-12.4l-4.2,12.4h-14.4
							l11.4,8.3l-4.1,14.5l11.4-9.3l11.3,8.3l-4.1-13.4L501.3,429.4L501.3,429.4z M433.2,429.4h-14.4l-4.2-12.4l-4.1,12.4H396
							l11.4,8.3l-4.1,14.5l11.4-9.3l11.4,8.3l-4.1-13.4L433.2,429.4L433.2,429.4z M364,429.4h-13.4l-4.2-12.4l-4.1,12.4h-14.5
							l11.4,8.3l-5.2,14.5l12.4-9.3l11.4,8.3l-5.2-13.4L364,429.4L364,429.4z M637.7,363.3h-13.4l-4.1-12.4l-4.1,12.4h-14.5
							l11.3,8.3l-5.2,13.4l12.4-8.3l11.4,8.3l-5.2-13.4L637.7,363.3L637.7,363.3z M569.6,363.3h-13.4l-5.2-12.4l-4.1,12.4h-13.5
							l11.4,8.3l-5.2,13.4l11.4-8.3l11.3,8.3l-4.1-13.4L569.6,363.3L569.6,363.3z M501.3,363.3h-14.4l-4.1-12.4l-4.2,12.4h-14.4
							l11.4,8.3l-4.1,13.4l11.4-8.3l11.3,8.3l-4.1-13.4L501.3,363.3L501.3,363.3z M433.2,363.3h-14.4l-4.2-12.4l-4.1,12.4H396
							l11.4,8.3l-4.1,13.4l11.4-8.3l11.4,8.3l-4.1-13.4L433.2,363.3L433.2,363.3z M364,363.3h-13.4l-4.2-12.4l-4.1,12.4h-14.5
							l11.4,8.3l-5.2,13.4l12.4-8.3l11.4,8.3l-5.2-13.4L364,363.3L364,363.3z M637.7,297.1h-13.4l-4.1-13.4l-4.1,13.4h-14.5
							l11.3,8.3l-5.2,13.4l12.4-8.2l11.4,8.2l-5.2-13.4L637.7,297.1L637.7,297.1z M569.6,297.1h-13.4l-5.2-13.4l-4.1,13.4h-13.5
							l11.4,8.3l-5.2,13.4l11.4-8.2l11.3,8.2l-4.1-13.4L569.6,297.1L569.6,297.1z M501.3,297.1h-14.4l-4.1-13.4l-4.2,13.4h-14.4
							l11.4,8.3l-4.1,13.4l11.4-8.2l11.3,8.2l-4.1-13.4L501.3,297.1L501.3,297.1z M433.2,297.1h-14.4l-4.2-13.4l-4.1,13.4H396
							l11.4,8.3l-4.1,13.4l11.4-8.2l11.4,8.2l-4.1-13.4L433.2,297.1L433.2,297.1z M364,297.1h-13.4l-4.2-13.4l-4.1,13.4h-14.5
							l11.4,8.3l-5.2,13.4l12.4-8.2l11.4,8.2l-5.2-13.4L364,297.1L364,297.1z M637.7,230h-13.4l-4.1-12.4L616,230h-14.5l11.3,8.3
							l-5.2,14.4l12.4-9.3l11.4,9.3l-5.2-14.4L637.7,230L637.7,230z M569.6,230h-13.4l-5.2-12.4l-4.1,12.4h-13.5l11.4,8.3l-5.2,14.4
							l11.4-9.3l11.3,9.3l-4.1-14.4L569.6,230L569.6,230z M501.3,230h-14.4l-4.1-12.4l-4.2,12.4h-14.4l11.4,8.3l-4.1,14.4l11.4-9.3
							l11.3,9.3l-4.1-14.4L501.3,230L501.3,230z M433.2,230h-14.4l-4.2-12.4l-4.1,12.4H396l11.4,8.3l-4.1,14.4l11.4-9.3l11.4,9.3
							l-4.1-14.4L433.2,230L433.2,230z M364,230h-13.4l-4.2-12.4l-4.1,12.4h-14.5l11.4,8.3l-5.2,14.4l12.4-9.3l11.4,9.3l-5.2-14.4
							L364,230L364,230z M673.9,396.3h-13.4l-5.2-12.4l-4.1,12.4h-13.4l11.3,8.3l-5.2,13.4l11.3-8.3l11.4,8.3l-4.2-13.4L673.9,396.3
							L673.9,396.3z M605.7,396.3h-14.5l-4.1-12.4l-4.1,12.4h-14.5l11.3,8.3l-4.1,13.4l11.4-8.3l11.4,8.3l-4.2-13.4L605.7,396.3
							L605.7,396.3z M536.5,396.3H523l-4.1-12.4l-4.1,12.4h-14.5l11.4,8.3l-5.2,13.4l12.4-8.3l11.4,8.3l-4.1-13.4L536.5,396.3
							L536.5,396.3z M468.3,396.3h-13.4l-4.1-12.4l-5.1,12.4h-13.4l11.4,8.3l-5.2,13.4l12.4-8.3l11.4,8.3l-5.2-13.4L468.3,396.3
							L468.3,396.3z M400.1,396.3h-13.4l-5.2-12.4l-4.1,12.4H364l11.4,8.3l-5.2,13.4l11.4-8.3l11.4,8.3l-4.1-13.4L400.1,396.3
							L400.1,396.3z M331.9,396.3h-14.4l-4.1-12.4l-4.1,12.4h-14.5l11.4,8.3L302,418l11.4-8.3l11.4,8.3l-4.1-13.4L331.9,396.3
							L331.9,396.3z M673.9,330.2h-13.4l-5.2-13.4l-4.1,13.4h-13.4l11.3,8.3l-5.2,13.4l11.3-8.3l11.4,8.3l-4.2-13.4L673.9,330.2
							L673.9,330.2z M605.7,330.2h-14.5l-4.1-13.4l-4.1,13.4h-14.5l11.3,8.3l-4.1,13.4l11.4-8.3l11.4,8.3l-4.2-13.4L605.7,330.2
							L605.7,330.2z M536.5,330.2H523l-4.1-13.4l-4.1,13.4h-14.5l11.4,8.3l-5.2,13.4l12.4-8.3l11.4,8.3l-4.1-13.4L536.5,330.2
							L536.5,330.2z M468.3,330.2h-13.4l-4.1-13.4l-5.1,13.4h-13.4l11.4,8.3l-5.2,13.4l12.4-8.3l11.4,8.3l-5.2-13.4L468.3,330.2
							L468.3,330.2z M400.1,330.2h-13.4l-5.2-13.4l-4.1,13.4H364l11.4,8.3l-5.2,13.4l11.4-8.3l11.4,8.3l-4.1-13.4L400.1,330.2
							L400.1,330.2z M331.9,330.2h-14.4l-4.1-13.4l-4.1,13.4h-14.5l11.4,8.3l-4.1,13.4l11.4-8.3l11.4,8.3l-4.1-13.4L331.9,330.2
							L331.9,330.2z M673.9,264.1h-13.4l-5.2-13.4l-4.1,13.4h-13.4l11.3,8.3l-5.2,13.4l11.3-8.3l11.4,8.3l-4.2-13.4L673.9,264.1
							L673.9,264.1z M605.7,264.1h-14.5l-4.1-13.4l-4.1,13.4h-14.5l11.3,8.3l-4.1,13.4l11.4-8.3l11.4,8.3l-4.2-13.4L605.7,264.1
							L605.7,264.1z M536.5,264.1H523l-4.1-13.4l-4.1,13.4h-14.5l11.4,8.3l-5.2,13.4l12.4-8.3l11.4,8.3l-4.1-13.4L536.5,264.1
							L536.5,264.1z M468.3,264.1h-13.4l-4.1-13.4l-5.1,13.4h-13.4l11.4,8.3l-5.2,13.4l12.4-8.3l11.4,8.3l-5.2-13.4L468.3,264.1
							L468.3,264.1z M400.1,264.1h-13.4l-5.2-13.4l-4.1,13.4H364l11.4,8.3l-5.2,13.4l11.4-8.3l11.4,8.3l-4.1-13.4L400.1,264.1
							L400.1,264.1z M331.9,264.1h-14.4l-4.1-13.4l-4.1,13.4h-14.5l11.4,8.3l-4.1,13.4l11.4-8.3l11.4,8.3l-4.1-13.4L331.9,264.1
							L331.9,264.1z M673.9,196.9h-13.4l-5.2-12.4l-4.1,12.4h-13.4l11.3,8.3l-5.2,14.4l11.3-9.3l11.4,8.3l-4.2-13.4L673.9,196.9
							L673.9,196.9z M605.7,196.9h-14.5l-4.1-12.4l-4.1,12.4h-14.5l11.3,8.3l-4.1,14.4l11.4-9.3l11.4,8.3l-4.2-13.4L605.7,196.9
							L605.7,196.9z M536.5,196.9H523l-4.1-12.4l-4.1,12.4h-14.5l11.4,8.3l-5.2,14.4l12.4-9.3l11.4,8.3l-4.1-13.4L536.5,196.9
							L536.5,196.9z M468.3,196.9h-13.4l-4.1-12.4l-5.1,12.4h-13.4l11.4,8.3l-5.2,14.4l12.4-9.3l11.4,8.3l-5.2-13.4L468.3,196.9
							L468.3,196.9z M400.1,196.9h-13.4l-5.2-12.4l-4.1,12.4H364l11.4,8.3l-5.2,14.4l11.4-9.3l11.4,8.3l-4.1-13.4L400.1,196.9z"/>
					</g>
				</g>
			</g>
			<g>
				<g>
					<defs>
						<path id="SVGID_3_" d="M706.9,367.2c0,36.5-29.6,66.1-66.1,66.1c-36.5,0-66.1-29.6-66.1-66.1c0-36.5,29.6-66.1,66.1-66.1
							C677.3,301.1,706.9,330.7,706.9,367.2z"/>
					</defs>
					<use xlink:href="#SVGID_3_"  style="overflow:visible;fill:#FFFFFF;"/>
					<clipPath id="SVGID_4_">
						<use xlink:href="#SVGID_3_"  style="overflow:visible;"/>
					</clipPath>
					<g class="st4">
						<g>
							<rect x="558.7" y="448.1" class="st1" width="256.9" height="21.9"/>
						</g>
						<g>
							<rect x="558.7" y="534.7" class="st1" width="256.9" height="21.9"/>
						</g>
						<g>
							<rect x="558.7" y="491.4" class="st1" width="256.9" height="21.9"/>
						</g>
						<g>
							<rect x="558.7" y="404.8" class="st1" width="256.9" height="21.9"/>
						</g>
						<g>
							<rect x="558.7" y="274.9" class="st1" width="256.9" height="21.9"/>
						</g>
						<g>
							<rect x="558.7" y="318.2" class="st1" width="256.9" height="21.9"/>
						</g>
						<g>
							<rect x="558.7" y="361.5" class="st1" width="256.9" height="21.9"/>
						</g>
					</g>
				</g>
			</g>
		</g>
		<g>
			<polygon class="st1" points="543.4,767.7 536.5,755.2 534.7,769.4 520.7,772.1 533.6,778.1 531.9,792.3 541.6,781.8 554.5,787.9 
				547.6,775.4 557.4,765 			"/>
			<polygon class="st1" points="603.6,768.2 589.6,770.9 582.7,758.4 580.9,772.6 566.9,775.3 579.8,781.3 578.1,795.4 587.8,785 
				600.7,791.1 593.8,778.6 			"/>
			<polygon class="st1" points="499.8,765.7 492.9,753.2 491.2,767.3 477.2,770.1 490.1,776.1 488.4,790.2 498.1,779.8 511,785.9 
				504.1,773.4 513.8,763 			"/>
		</g>
		<g>
			<path class="st0" d="M485.1,781.8l-8.7-3.5c-2.5-1-3.9-3.2-3.6-5.5h-410V370.2h287.8v-9.3H50v421.3h435.1L485.1,781.8z"/>
			<path class="st0" d="M735.5,360.9v9.3h281.8v402.7H611.7c-0.2,1-0.7,1.9-1.5,2.6l-6.6,6l0.4,0.7h426V360.9H735.5z"/>
		</g>
	</g>
</g>
</svg>
