  0
SECTION
  2
HEADER
  9
$ACADVER
  1
AC1024
  9
$ACADMAINTVER
 70
     6
  9
$DWGCODEPAGE
  3
ANSI_1252
  9
$INSBASE
 10
0.0
 20
0.0
 30
0.0
  9
$EXTMIN
 10
1.000000000000000E+20
 20
1.000000000000000E+20
 30
1.000000000000000E+20
  9
$EXTMAX
 10
-1.000000000000000E+20
 20
-1.000000000000000E+20
 30
-1.000000000000000E+20
  9
$LIMMIN
 10
0.0
 20
0.0
  9
$LIMMAX
 10
12.0
 20
9.0
  9
$ORTHOMODE
 70
     0
  9
$REGENMODE
 70
     1
  9
$FILLMODE
 70
     1
  9
$QTEXTMODE
 70
     0
  9
$MIRRTEXT
 70
     1
  9
$LTSCALE
 40
1.0
  9
$ATTMODE
 70
     1
  9
$TEXTSIZE
 40
0.2
  9
$TRACEWID
 40
0.05
  9
$TEXTSTYLE
  7
Standard
  9
$CLAYER
  8
0
  9
$CELTYPE
  6
ByLayer
  9
$CECOLOR
 62
   256
  9
$CELTSCALE
 40
1.0
  9
$DISPSILH
 70
     0
  9
$DIMSCALE
 40
1.0
  9
$DIMASZ
 40
0.18
  9
$DIMEXO
 40
0.0625
  9
$DIMDLI
 40
0.38
  9
$DIMRND
 40
0.0
  9
$DIMDLE
 40
0.0
  9
$DIMEXE
 40
0.18
  9
$DIMTP
 40
0.0
  9
$DIMTM
 40
0.0
  9
$DIMTXT
 40
0.18
  9
$DIMCEN
 40
0.09
  9
$DIMTSZ
 40
0.0
  9
$DIMTOL
 70
     0
  9
$DIMLIM
 70
     0
  9
$DIMTIH
 70
     1
  9
$DIMTOH
 70
     1
  9
$DIMSE1
 70
     0
  9
$DIMSE2
 70
     0
  9
$DIMTAD
 70
     0
  9
$DIMZIN
 70
     0
  9
$DIMBLK
  1

  9
$DIMASO
 70
     1
  9
$DIMSHO
 70
     1
  9
$DIMPOST
  1

  9
$DIMAPOST
  1

  9
$DIMALT
 70
     0
  9
$DIMALTD
 70
     2
  9
$DIMALTF
 40
25.4
  9
$DIMLFAC
 40
1.0
  9
$DIMTOFL
 70
     0
  9
$DIMTVP
 40
0.0
  9
$DIMTIX
 70
     0
  9
$DIMSOXD
 70
     0
  9
$DIMSAH
 70
     0
  9
$DIMBLK1
  1

  9
$DIMBLK2
  1

  9
$DIMSTYLE
  2
Standard
  9
$DIMCLRD
 70
     0
  9
$DIMCLRE
 70
     0
  9
$DIMCLRT
 70
     0
  9
$DIMTFAC
 40
1.0
  9
$DIMGAP
 40
0.09
  9
$DIMJUST
 70
     0
  9
$DIMSD1
 70
     0
  9
$DIMSD2
 70
     0
  9
$DIMTOLJ
 70
     1
  9
$DIMTZIN
 70
     0
  9
$DIMALTZ
 70
     0
  9
$DIMALTTZ
 70
     0
  9
$DIMUPT
 70
     0
  9
$DIMDEC
 70
     4
  9
$DIMTDEC
 70
     4
  9
$DIMALTU
 70
     2
  9
$DIMALTTD
 70
     2
  9
$DIMTXSTY
  7
Standard
  9
$DIMAUNIT
 70
     0
  9
$DIMADEC
 70
     0
  9
$DIMALTRND
 40
0.0
  9
$DIMAZIN
 70
     0
  9
$DIMDSEP
 70
    46
  9
$DIMATFIT
 70
     3
  9
$DIMFRAC
 70
     0
  9
$DIMLDRBLK
  1

  9
$DIMLUNIT
 70
     2
  9
$DIMLWD
 70
    -2
  9
$DIMLWE
 70
    -2
  9
$DIMTMOVE
 70
     0
  9
$DIMFXL
 40
1.0
  9
$DIMFXLON
 70
     0
  9
$DIMJOGANG
 40
0.7853981633974483
  9
$DIMTFILL
 70
     0
  9
$DIMTFILLCLR
 70
     0
  9
$DIMARCSYM
 70
     0
  9
$DIMLTYPE
  6

  9
$DIMLTEX1
  6

  9
$DIMLTEX2
  6

  9
$DIMTXTDIRECTION
 70
     0
  9
$LUNITS
 70
     2
  9
$LUPREC
 70
     4
  9
$SKETCHINC
 40
0.1
  9
$FILLETRAD
 40
0.5
  9
$AUNITS
 70
     0
  9
$AUPREC
 70
     0
  9
$MENU
  1
.
  9
$ELEVATION
 40
0.0
  9
$PELEVATION
 40
0.0
  9
$THICKNESS
 40
0.0
  9
$LIMCHECK
 70
     0
  9
$CHAMFERA
 40
0.5
  9
$CHAMFERB
 40
0.5
  9
$CHAMFERC
 40
1.0
  9
$CHAMFERD
 40
0.0
  9
$SKPOLY
 70
     0
  9
$TDCREATE
 40
2459561.744636447
  9
$TDUCREATE
 40
2459561.494636447
  9
$TDUPDATE
 40
2459561.744636482
  9
$TDUUPDATE
 40
2459561.494636482
  9
$TDINDWG
 40
0.0000000116
  9
$TDUSRTIMER
 40
0.0000000116
  9
$USRTIMER
 70
     1
  9
$ANGBASE
 50
0.0
  9
$ANGDIR
 70
     0
  9
$PDMODE
 70
     0
  9
$PDSIZE
 40
0.0
  9
$PLINEWID
 40
0.0
  9
$SPLFRAME
 70
     0
  9
$SPLINETYPE
 70
     6
  9
$SPLINESEGS
 70
     8
  9
$HANDSEED
  5
F5
  9
$SURFTAB1
 70
     6
  9
$SURFTAB2
 70
     6
  9
$SURFTYPE
 70
     6
  9
$SURFU
 70
     6
  9
$SURFV
 70
     6
  9
$UCSBASE
  2

  9
$UCSNAME
  2

  9
$UCSORG
 10
0.0
 20
0.0
 30
0.0
  9
$UCSXDIR
 10
1.0
 20
0.0
 30
0.0
  9
$UCSYDIR
 10
0.0
 20
1.0
 30
0.0
  9
$UCSORTHOREF
  2

  9
$UCSORTHOVIEW
 70
     0
  9
$UCSORGTOP
 10
0.0
 20
0.0
 30
0.0
  9
$UCSORGBOTTOM
 10
0.0
 20
0.0
 30
0.0
  9
$UCSORGLEFT
 10
0.0
 20
0.0
 30
0.0
  9
$UCSORGRIGHT
 10
0.0
 20
0.0
 30
0.0
  9
$UCSORGFRONT
 10
0.0
 20
0.0
 30
0.0
  9
$UCSORGBACK
 10
0.0
 20
0.0
 30
0.0
  9
$PUCSBASE
  2

  9
$PUCSNAME
  2

  9
$PUCSORG
 10
0.0
 20
0.0
 30
0.0
  9
$PUCSXDIR
 10
1.0
 20
0.0
 30
0.0
  9
$PUCSYDIR
 10
0.0
 20
1.0
 30
0.0
  9
$PUCSORTHOREF
  2

  9
$PUCSORTHOVIEW
 70
     0
  9
$PUCSORGTOP
 10
0.0
 20
0.0
 30
0.0
  9
$PUCSORGBOTTOM
 10
0.0
 20
0.0
 30
0.0
  9
$PUCSORGLEFT
 10
0.0
 20
0.0
 30
0.0
  9
$PUCSORGRIGHT
 10
0.0
 20
0.0
 30
0.0
  9
$PUCSORGFRONT
 10
0.0
 20
0.0
 30
0.0
  9
$PUCSORGBACK
 10
0.0
 20
0.0
 30
0.0
  9
$USERI1
 70
     0
  9
$USERI2
 70
     0
  9
$USERI3
 70
     0
  9
$USERI4
 70
     0
  9
$USERI5
 70
     0
  9
$USERR1
 40
0.0
  9
$USERR2
 40
0.0
  9
$USERR3
 40
0.0
  9
$USERR4
 40
0.0
  9
$USERR5
 40
0.0
  9
$WORLDVIEW
 70
     1
  9
$SHADEDGE
 70
     3
  9
$SHADEDIF
 70
    70
  9
$TILEMODE
 70
     1
  9
$MAXACTVP
 70
    64
  9
$PINSBASE
 10
0.0
 20
0.0
 30
0.0
  9
$PLIMCHECK
 70
     0
  9
$PEXTMIN
 10
1.000000000000000E+20
 20
1.000000000000000E+20
 30
1.000000000000000E+20
  9
$PEXTMAX
 10
-1.000000000000000E+20
 20
-1.000000000000000E+20
 30
-1.000000000000000E+20
  9
$PLIMMIN
 10
0.0
 20
0.0
  9
$PLIMMAX
 10
12.0
 20
9.0
  9
$UNITMODE
 70
     0
  9
$VISRETAIN
 70
     1
  9
$PLINEGEN
 70
     0
  9
$PSLTSCALE
 70
     1
  9
$TREEDEPTH
 70
  3020
  9
$CMLSTYLE
  2
Standard
  9
$CMLJUST
 70
     0
  9
$CMLSCALE
 40
1.0
  9
$PROXYGRAPHICS
 70
     1
  9
$MEASUREMENT
 70
     0
  9
$CELWEIGHT
370
    -1
  9
$ENDCAPS
280
     0
  9
$JOINSTYLE
280
     0
  9
$LWDISPLAY
290
     1
  9
$INSUNITS
 70
     1
  9
$HYPERLINKBASE
  1

  9
$STYLESHEET
  1

  9
$XEDIT
290
     1
  9
$CEPSNTYPE
380
     0
  9
$PSTYLEMODE
290
     1
  9
$FINGERPRINTGUID
  2
{33B5B082-0CD9-4888-84B3-BA377A9DDF0A}
  9
$VERSIONGUID
  2
{FAEB1C32-E019-11D5-929B-00C0DF256EC4}
  9
$EXTNAMES
290
     1
  9
$PSVPSCALE
 40
0.0
  9
$OLESTARTUP
290
     0
  9
$SORTENTS
280
   127
  9
$INDEXCTL
280
     0
  9
$HIDETEXT
280
     1
  9
$XCLIPFRAME
280
     2
  9
$HALOGAP
280
     0
  9
$OBSCOLOR
 70
   257
  9
$OBSLTYPE
280
     0
  9
$INTERSECTIONDISPLAY
280
     0
  9
$INTERSECTIONCOLOR
 70
   257
  9
$DIMASSOC
280
     2
  9
$PROJECTNAME
  1

  9
$CAMERADISPLAY
290
     0
  9
$LENSLENGTH
 40
50.0
  9
$CAMERAHEIGHT
 40
0.0
  9
$STEPSPERSEC
 40
2.0
  9
$STEPSIZE
 40
6.0
  9
$3DDWFPREC
 40
2.0
  9
$PSOLWIDTH
 40
0.25
  9
$PSOLHEIGHT
 40
4.0
  9
$LOFTANG1
 40
1.570796326794897
  9
$LOFTANG2
 40
1.570796326794897
  9
$LOFTMAG1
 40
0.0
  9
$LOFTMAG2
 40
0.0
  9
$LOFTPARAM
 70
     7
  9
$LOFTNORMALS
280
     1
  9
$LATITUDE
 40
37.795
  9
$LONGITUDE
 40
-122.394
  9
$NORTHDIRECTION
 40
0.0
  9
$TIMEZONE
 70
 -8000
  9
$LIGHTGLYPHDISPLAY
280
     1
  9
$TILEMODELIGHTSYNCH
280
     1
  9
$CMATERIAL
347
3C
  9
$SOLIDHIST
280
     1
  9
$SHOWHIST
280
     1
  9
$DWFFRAME
280
     2
  9
$DGNFRAME
280
     2
  9
$REALWORLDSCALE
290
     1
  9
$INTERFERECOLOR
 62
   256
  9
$CSHADOW
280
     0
  9
$SHADOWPLANELOCATION
 40
0.0
  0
ENDSEC
  0
SECTION
  2
CLASSES
  0
CLASS
  1
ACDBDICTIONARYWDFLT
  2
AcDbDictionaryWithDefault
  3
ObjectDBX Classes
 90
        0
 91
        4
280
     0
281
     0
  0
CLASS
  1
VISUALSTYLE
  2
AcDbVisualStyle
  3
ObjectDBX Classes
 90
     4095
 91
        4
280
     0
281
     0
  0
CLASS
  1
MATERIAL
  2
AcDbMaterial
  3
ObjectDBX Classes
 90
     1153
 91
        4
280
     0
281
     0
  0
CLASS
  1
SUN
  2
AcDbSun
  3
SCENEOE
 90
     1024
 91
        4
280
     0
281
     0
  0
ENDSEC
  0
SECTION
  2
TABLES
  0
TABLE
  2
VPORT
  5
8
330
0
100
AcDbSymbolTable
 70
     1
  0
VPORT
  5
29
330
8
100
AcDbSymbolTableRecord
100
AcDbViewportTableRecord
  2
*Active
 70
     0
 10
0.0
 20
0.0
 11
1.0
 21
1.0
 12
0.0
 22
0.0
 13
0.0
 23
0.0
 14
0.5
 24
0.5
 15
0.5
 25
0.5
 16
0.0
 26
0.0
 36
1.0
 17
540.0
 27
-540.0
 37
0.0
 40
1080.0
 41
1.0
 42
50.0
 43
0.0
 44
0.0
 50
0.0
 51
0.0
 71
     0
 72
   100
 73
     1
 74
     3
 75
     0
 76
     0
 77
     0
 78
     0
281
     0
 65
     1
110
0.0
120
0.0
130
0.0
111
1.0
121
0.0
131
0.0
112
0.0
122
1.0
132
0.0
 79
     0
146
0.0
 60
     3
 61
     5
292
     1
282
     1
141
0.0
142
0.0
 63
   250
361
3F
  0
ENDTAB
  0
TABLE
  2
LTYPE
  5
5
330
0
100
AcDbSymbolTable
 70
     1
  0
LTYPE
  5
14
330
5
100
AcDbSymbolTableRecord
100
AcDbLinetypeTableRecord
  2
ByBlock
 70
     0
  3

 72
    65
 73
     0
 40
0.0
  0
LTYPE
  5
15
330
5
100
AcDbSymbolTableRecord
100
AcDbLinetypeTableRecord
  2
ByLayer
 70
     0
  3

 72
    65
 73
     0
 40
0.0
  0
LTYPE
  5
16
330
5
100
AcDbSymbolTableRecord
100
AcDbLinetypeTableRecord
  2
Continuous
 70
     0
  3
Solid line
 72
    65
 73
     0
 40
0.0
  0
ENDTAB
  0
TABLE
  2
LAYER
  5
2
330
0
100
AcDbSymbolTable
 70
     2
  0
LAYER
  5
10
330
2
100
AcDbSymbolTableRecord
100
AcDbLayerTableRecord
  2
0
 70
     0
 62
     7
  6
Continuous
370
    -3
390
F
347
3E
  0
LAYER
  5
40
330
2
100
AcDbSymbolTableRecord
100
AcDbLayerTableRecord
  2
Layer 1
 70
     0
 62
     7
  6
Continuous
370
    -3
390
F
347
3E
  0
ENDTAB
  0
TABLE
  2
STYLE
  5
3
330
0
100
AcDbSymbolTable
 70
     1
  0
STYLE
  5
11
330
3
100
AcDbSymbolTableRecord
100
AcDbTextStyleTableRecord
  2
Standard
 70
     0
 40
0.0
 41
1.0
 50
0.0
 71
     0
 42
0.2
  3
txt
  4

  0
ENDTAB
  0
TABLE
  2
VIEW
  5
6
330
0
100
AcDbSymbolTable
 70
     0
  0
ENDTAB
  0
TABLE
  2
UCS
  5
7
330
0
100
AcDbSymbolTable
 70
     0
  0
ENDTAB
  0
TABLE
  2
APPID
  5
9
330
0
100
AcDbSymbolTable
 70
     1
  0
APPID
  5
12
330
9
100
AcDbSymbolTableRecord
100
AcDbRegAppTableRecord
  2
ACAD
 70
     0
  0
ENDTAB
  0
TABLE
  2
DIMSTYLE
  5
A
330
0
100
AcDbSymbolTable
 70
     1
100
AcDbDimStyleTable
  0
DIMSTYLE
105
27
330
A
100
AcDbSymbolTableRecord
100
AcDbDimStyleTableRecord
  2
Standard
 70
     0
178
     0
340
11
  0
ENDTAB
  0
TABLE
  2
BLOCK_RECORD
  5
1
330
0
100
AcDbSymbolTable
 70
     5
  0
BLOCK_RECORD
  5
1F
330
1
100
AcDbSymbolTableRecord
100
AcDbBlockTableRecord
  2
*Model_Space
340
22
 70
     0
280
     1
281
     0
  0
BLOCK_RECORD
  5
1B
330
1
100
AcDbSymbolTableRecord
100
AcDbBlockTableRecord
  2
*Paper_Space
340
1E
 70
     0
280
     1
281
     0
  0
BLOCK_RECORD
  5
23
330
1
100
AcDbSymbolTableRecord
100
AcDbBlockTableRecord
  2
*Paper_Space0
340
26
 70
     0
280
     1
281
     0
  0
BLOCK_RECORD
  5
41
330
1
100
AcDbSymbolTableRecord
100
AcDbBlockTableRecord
  2
block 2
340
0
102
{BLKREFS
331
42
102
}
 70
     0
280
     1
281
     0
  0
BLOCK_RECORD
  5
45
330
1
100
AcDbSymbolTableRecord
100
AcDbBlockTableRecord
  2
block 3
340
0
102
{BLKREFS
331
46
102
}
 70
     0
280
     1
281
     0
  0
BLOCK_RECORD
  5
C1
330
1
100
AcDbSymbolTableRecord
100
AcDbBlockTableRecord
  2
block 4
340
0
102
{BLKREFS
331
C2
102
}
 70
     0
280
     1
281
     0
  0
BLOCK_RECORD
  5
DD
330
1
100
AcDbSymbolTableRecord
100
AcDbBlockTableRecord
  2
block 5
340
0
102
{BLKREFS
331
DE
102
}
 70
     0
280
     1
281
     0
  0
ENDTAB
  0
ENDSEC
  0
SECTION
  2
BLOCKS
  0
BLOCK
  5
20
330
1F
100
AcDbEntity
  8
0
100
AcDbBlockBegin
  2
*Model_Space
 70
     0
 10
0.0
 20
0.0
 30
0.0
  3
*Model_Space
  1

  0
ENDBLK
  5
21
330
1F
100
AcDbEntity
  8
0
100
AcDbBlockEnd
  0
BLOCK
  5
1C
330
1B
100
AcDbEntity
 67
     1
  8
0
100
AcDbBlockBegin
  2
*Paper_Space
 70
     0
 10
0.0
 20
0.0
 30
0.0
  3
*Paper_Space
  1

  0
ENDBLK
  5
1D
330
1B
100
AcDbEntity
 67
     1
  8
0
100
AcDbBlockEnd
  0
BLOCK
  5
24
330
23
100
AcDbEntity
  8
0
100
AcDbBlockBegin
  2
*Paper_Space0
 70
     0
 10
0.0
 20
0.0
 30
0.0
  3
*Paper_Space0
  1

  0
ENDBLK
  5
25
330
23
100
AcDbEntity
  8
0
100
AcDbBlockEnd
  0
BLOCK
  5
43
330
41
100
AcDbEntity
  8
0
100
AcDbBlockBegin
  2
block 2
 70
     0
 10
0.0
 20
0.0
 30
0.0
  3
block 2
  1

  0
INSERT
  5
46
330
41
100
AcDbEntity
  8
Layer 1
100
AcDbBlockReference
  2
block 3
 10
0.0
 20
0.0
 30
0.0
  0
INSERT
  5
C2
330
41
100
AcDbEntity
  8
Layer 1
100
AcDbBlockReference
  2
block 4
 10
0.0
 20
0.0
 30
0.0
  0
INSERT
  5
DE
330
41
100
AcDbEntity
  8
Layer 1
100
AcDbBlockReference
  2
block 5
 10
0.0
 20
0.0
 30
0.0
  0
ENDBLK
  5
44
330
41
100
AcDbEntity
  8
0
100
AcDbBlockEnd
  0
BLOCK
  5
47
330
45
100
AcDbEntity
  8
0
100
AcDbBlockBegin
  2
block 3
 70
     0
 10
0.0
 20
0.0
 30
0.0
  3
block 3
  1

  0
POLYLINE
  5
49
330
45
100
AcDbEntity
  8
Layer 1
370
     0
100
AcDb2dPolyline
 66
     1
 10
0.0
 20
0.0
 30
0.0
  0
VERTEX
  5
4A
330
49
100
AcDbEntity
  8
Layer 1
370
     0
100
AcDbVertex
100
AcDb2dVertex
 10
304.9945036894424
 20
-429.9393812479066
 30
0.0
  0
VERTEX
  5
4B
330
49
100
AcDbEntity
  8
Layer 1
370
     0
100
AcDbVertex
100
AcDb2dVertex
 10
327.5386090058819
 20
-452.5932792850435
 30
0.0
  0
VERTEX
  5
4C
330
49
100
AcDbEntity
  8
Layer 1
370
     0
100
AcDbVertex
100
AcDb2dVertex
 10
327.5386090058819
 20
-513.7361800307426
 30
0.0
  0
VERTEX
  5
4D
330
49
100
AcDbEntity
  8
Layer 1
370
     0
100
AcDbVertex
100
AcDb2dVertex
 10
304.9945036894424
 20
-536.2802853471803
 30
0.0
  0
VERTEX
  5
4E
330
49
100
AcDbEntity
  8
Layer 1
370
     0
100
AcDbVertex
100
AcDb2dVertex
 10
261.6663036398586
 20
-536.2802853471803
 30
0.0
  0
VERTEX
  5
4F
330
49
100
AcDbEntity
  8
Layer 1
370
     0
100
AcDbVertex
100
AcDb2dVertex
 10
261.6663036398586
 20
-576.4195059183403
 30
0.0
  0
VERTEX
  5
50
330
49
100
AcDbEntity
  8
Layer 1
370
     0
100
AcDbVertex
100
AcDb2dVertex
 10
273.1030453791227
 20
-576.4195059183403
 30
0.0
  0
VERTEX
  5
51
330
49
100
AcDbEntity
  8
Layer 1
370
     0
100
AcDbVertex
100
AcDb2dVertex
 10
273.1030453791227
 20
-605.7807410744172
 30
0.0
  0
VERTEX
  5
52
330
49
100
AcDbEntity
  8
Layer 1
370
     0
100
AcDbVertex
100
AcDb2dVertex
 10
220.7577022607848
 20
-605.7807410744172
 30
0.0
  0
VERTEX
  5
53
330
49
100
AcDbEntity
  8
Layer 1
370
     0
100
AcDbVertex
100
AcDb2dVertex
 10
220.7577022607848
 20
-576.4195059183403
 30
0.0
  0
VERTEX
  5
54
330
49
100
AcDbEntity
  8
Layer 1
370
     0
100
AcDbVertex
100
AcDb2dVertex
 10
232.1944440000498
 20
-576.4195059183403
 30
0.0
  0
VERTEX
  5
55
330
49
100
AcDbEntity
  8
Layer 1
370
     0
100
AcDbVertex
100
AcDb2dVertex
 10
232.1944440000498
 20
-459.4104091246809
 30
0.0
  0
VERTEX
  5
56
330
49
100
AcDbEntity
  8
Layer 1
370
     0
100
AcDbVertex
100
AcDb2dVertex
 10
220.7577022607848
 20
-459.4104091246809
 30
0.0
  0
VERTEX
  5
57
330
49
100
AcDbEntity
  8
Layer 1
370
     0
100
AcDbVertex
100
AcDb2dVertex
 10
220.7577022607848
 20
-429.9393812479066
 30
0.0
  0
VERTEX
  5
58
330
49
100
AcDbEntity
  8
Layer 1
370
     0
100
AcDbVertex
100
AcDb2dVertex
 10
304.9945036894424
 20
-429.9393812479066
 30
0.0
  0
SEQEND
  5
59
330
49
100
AcDbEntity
  8
Layer 1
370
     0
  0
POLYLINE
  5
5A
330
45
100
AcDbEntity
  8
Layer 1
370
     0
100
AcDb2dPolyline
 66
     1
 10
0.0
 20
0.0
 30
0.0
  0
VERTEX
  5
5B
330
5A
100
AcDbEntity
  8
Layer 1
370
     0
100
AcDbVertex
100
AcDb2dVertex
 10
298.0667493660731
 20
-459.4104091246809
 30
0.0
  0
VERTEX
  5
5C
330
5A
100
AcDbEntity
  8
Layer 1
370
     0
100
AcDbVertex
100
AcDb2dVertex
 10
261.6663036398586
 20
-459.4104091246809
 30
0.0
  0
VERTEX
  5
5D
330
5A
100
AcDbEntity
  8
Layer 1
370
     0
100
AcDbVertex
100
AcDb2dVertex
 10
261.6663036398586
 20
-506.9173866650344
 30
0.0
  0
VERTEX
  5
5E
330
5A
100
AcDbEntity
  8
Layer 1
370
     0
100
AcDbVertex
100
AcDb2dVertex
 10
298.0667493660731
 20
-506.9173866650344
 30
0.0
  0
VERTEX
  5
5F
330
5A
100
AcDbEntity
  8
Layer 1
370
     0
100
AcDbVertex
100
AcDb2dVertex
 10
298.0667493660731
 20
-459.4104091246809
 30
0.0
  0
SEQEND
  5
60
330
5A
100
AcDbEntity
  8
Layer 1
370
     0
  0
HATCH
  5
61
330
45
100
AcDbEntity
  8
Layer 1
 62
   167
420
  2772859
100
AcDbHatch
 10
0.0
 20
0.0
 30
0.0
210
0.0
220
0.0
230
1.0
  2
SOLID
 70
     1
 71
     0
 91
        2
 92
        1
 93
       14
 72
     1
 10
304.9945036894424
 20
-429.9393812479066
 11
327.5386090058819
 21
-452.5932792850435
 72
     1
 10
327.5386090058819
 20
-452.5932792850435
 11
327.5386090058819
 21
-513.7361800307426
 72
     1
 10
327.5386090058819
 20
-513.7361800307426
 11
304.9945036894424
 21
-536.2802853471803
 72
     1
 10
304.9945036894424
 20
-536.2802853471803
 11
261.6663036398586
 21
-536.2802853471803
 72
     1
 10
261.6663036398586
 20
-536.2802853471803
 11
261.6663036398586
 21
-576.4195059183403
 72
     1
 10
261.6663036398586
 20
-576.4195059183403
 11
273.1030453791227
 21
-576.4195059183403
 72
     1
 10
273.1030453791227
 20
-576.4195059183403
 11
273.1030453791227
 21
-605.7807410744172
 72
     1
 10
273.1030453791227
 20
-605.7807410744172
 11
220.7577022607848
 21
-605.7807410744172
 72
     1
 10
220.7577022607848
 20
-605.7807410744172
 11
220.7577022607848
 21
-576.4195059183403
 72
     1
 10
220.7577022607848
 20
-576.4195059183403
 11
232.1944440000498
 21
-576.4195059183403
 72
     1
 10
232.1944440000498
 20
-576.4195059183403
 11
232.1944440000498
 21
-459.4104091246809
 72
     1
 10
232.1944440000498
 20
-459.4104091246809
 11
220.7577022607848
 21
-459.4104091246809
 72
     1
 10
220.7577022607848
 20
-459.4104091246809
 11
220.7577022607848
 21
-429.9393812479066
 72
     1
 10
220.7577022607848
 20
-429.9393812479066
 11
304.9945036894424
 21
-429.9393812479066
 97
        0
 92
        1
 93
        4
 72
     1
 10
298.0667493660731
 20
-459.4104091246809
 11
261.6663036398586
 21
-459.4104091246809
 72
     1
 10
261.6663036398586
 20
-459.4104091246809
 11
261.6663036398586
 21
-506.9173866650344
 72
     1
 10
261.6663036398586
 20
-506.9173866650344
 11
298.0667493660731
 21
-506.9173866650344
 72
     1
 10
298.0667493660731
 20
-506.9173866650344
 11
298.0667493660731
 21
-459.4104091246809
 97
        0
 75
     2
 76
     1
 98
        0
  0
POLYLINE
  5
62
330
45
100
AcDbEntity
  8
Layer 1
370
     0
100
AcDb2dPolyline
 66
     1
 10
0.0
 20
0.0
 30
0.0
  0
VERTEX
  5
63
330
62
100
AcDbEntity
  8
Layer 1
370
     0
100
AcDbVertex
100
AcDb2dVertex
 10
421.2317243860816
 20
-536.2802853471803
 30
0.0
  0
VERTEX
  5
64
330
62
100
AcDbEntity
  8
Layer 1
370
     0
100
AcDbVertex
100
AcDb2dVertex
 10
384.9419031436
 20
-536.2802853471803
 30
0.0
  0
VERTEX
  5
65
330
62
100
AcDbEntity
  8
Layer 1
370
     0
100
AcDbVertex
100
AcDb2dVertex
 10
384.9419031436
 20
-576.4195059183403
 30
0.0
  0
VERTEX
  5
66
330
62
100
AcDbEntity
  8
Layer 1
370
     0
100
AcDbVertex
100
AcDb2dVertex
 10
396.378644882865
 20
-576.4195059183403
 30
0.0
  0
VERTEX
  5
67
330
62
100
AcDbEntity
  8
Layer 1
370
     0
100
AcDbVertex
100
AcDb2dVertex
 10
396.378644882865
 20
-605.7807410744172
 30
0.0
  0
VERTEX
  5
68
330
62
100
AcDbEntity
  8
Layer 1
370
     0
100
AcDbVertex
100
AcDb2dVertex
 10
344.0333017645262
 20
-605.7807410744172
 30
0.0
  0
VERTEX
  5
69
330
62
100
AcDbEntity
  8
Layer 1
370
     0
100
AcDbVertex
100
AcDb2dVertex
 10
344.0333017645262
 20
-576.4195059183403
 30
0.0
  0
VERTEX
  5
6A
330
62
100
AcDbEntity
  8
Layer 1
370
     0
100
AcDbVertex
100
AcDb2dVertex
 10
354.9202481372704
 20
-576.4195059183403
 30
0.0
  0
VERTEX
  5
6B
330
62
100
AcDbEntity
  8
Layer 1
370
     0
100
AcDbVertex
100
AcDb2dVertex
 10
354.9202481372704
 20
-459.4104091246809
 30
0.0
  0
VERTEX
  5
6C
330
62
100
AcDbEntity
  8
Layer 1
370
     0
100
AcDbVertex
100
AcDb2dVertex
 10
344.0333017645262
 20
-459.4104091246809
 30
0.0
  0
VERTEX
  5
6D
330
62
100
AcDbEntity
  8
Layer 1
370
     0
100
AcDbVertex
100
AcDb2dVertex
 10
344.0333017645262
 20
-429.7197958065135
 30
0.0
  0
VERTEX
  5
6E
330
62
100
AcDbEntity
  8
Layer 1
370
     0
100
AcDbVertex
100
AcDb2dVertex
 10
428.0505177517907
 20
-429.7197958065135
 30
0.0
  0
VERTEX
  5
6F
330
62
100
AcDbEntity
  8
Layer 1
370
     0
100
AcDbVertex
100
AcDb2dVertex
 10
450.7035840258904
 20
-452.703072005741
 30
0.0
  0
VERTEX
  5
70
330
62
100
AcDbEntity
  8
Layer 1
370
     0
100
AcDbVertex
100
AcDb2dVertex
 10
450.7035840258904
 20
-510.1063661434582
 30
0.0
  0
VERTEX
  5
71
330
62
100
AcDbEntity
  8
Layer 1
370
     0
100
AcDbVertex
100
AcDb2dVertex
 10
442.566446248783
 20
-518.1345429629037
 30
0.0
  0
VERTEX
  5
72
330
62
100
AcDbEntity
  8
Layer 1
370
     0
100
AcDbVertex
100
AcDb2dVertex
 10
450.7035840258904
 20
-525.943134340956
 30
0.0
  0
VERTEX
  5
73
330
62
100
AcDbEntity
  8
Layer 1
370
     0
100
AcDbVertex
100
AcDb2dVertex
 10
450.7035840258904
 20
-576.4195059183403
 30
0.0
  0
VERTEX
  5
74
330
62
100
AcDbEntity
  8
Layer 1
370
     0
100
AcDbVertex
100
AcDb2dVertex
 10
462.1403257651555
 20
-576.4195059183403
 30
0.0
  0
VERTEX
  5
75
330
62
100
AcDbEntity
  8
Layer 1
370
     0
100
AcDbVertex
100
AcDb2dVertex
 10
462.1403257651555
 20
-605.7807410744172
 30
0.0
  0
VERTEX
  5
76
330
62
100
AcDbEntity
  8
Layer 1
370
     0
100
AcDbVertex
100
AcDb2dVertex
 10
409.7949826468166
 20
-605.7807410744172
 30
0.0
  0
VERTEX
  5
77
330
62
100
AcDbEntity
  8
Layer 1
370
     0
100
AcDbVertex
100
AcDb2dVertex
 10
409.7949826468166
 20
-576.4195059183403
 30
0.0
  0
VERTEX
  5
78
330
62
100
AcDbEntity
  8
Layer 1
370
     0
100
AcDbVertex
100
AcDb2dVertex
 10
421.2317243860816
 20
-576.4195059183403
 30
0.0
  0
VERTEX
  5
79
330
62
100
AcDbEntity
  8
Layer 1
370
     0
100
AcDbVertex
100
AcDb2dVertex
 10
421.2317243860816
 20
-536.2802853471803
 30
0.0
  0
SEQEND
  5
7A
330
62
100
AcDbEntity
  8
Layer 1
370
     0
  0
POLYLINE
  5
7B
330
45
100
AcDbEntity
  8
Layer 1
370
     0
100
AcDb2dPolyline
 66
     1
 10
0.0
 20
0.0
 30
0.0
  0
VERTEX
  5
7C
330
7B
100
AcDbEntity
  8
Layer 1
370
     0
100
AcDbVertex
100
AcDb2dVertex
 10
421.2317243860816
 20
-459.5218653714492
 30
0.0
  0
VERTEX
  5
7D
330
7B
100
AcDbEntity
  8
Layer 1
370
     0
100
AcDbVertex
100
AcDb2dVertex
 10
384.9419031436
 20
-459.5218653714492
 30
0.0
  0
VERTEX
  5
7E
330
7B
100
AcDbEntity
  8
Layer 1
370
     0
100
AcDbVertex
100
AcDb2dVertex
 10
384.9419031436
 20
-506.9173866650344
 30
0.0
  0
VERTEX
  5
7F
330
7B
100
AcDbEntity
  8
Layer 1
370
     0
100
AcDbVertex
100
AcDb2dVertex
 10
421.2317243860816
 20
-506.9173866650344
 30
0.0
  0
VERTEX
  5
80
330
7B
100
AcDbEntity
  8
Layer 1
370
     0
100
AcDbVertex
100
AcDb2dVertex
 10
421.2317243860816
 20
-459.5218653714492
 30
0.0
  0
SEQEND
  5
81
330
7B
100
AcDbEntity
  8
Layer 1
370
     0
  0
HATCH
  5
82
330
45
100
AcDbEntity
  8
Layer 1
 62
   167
420
  2772859
100
AcDbHatch
 10
0.0
 20
0.0
 30
0.0
210
0.0
220
0.0
230
1.0
  2
SOLID
 70
     1
 71
     0
 91
        2
 92
        1
 93
       22
 72
     1
 10
421.2317243860816
 20
-536.2802853471803
 11
384.9419031436
 21
-536.2802853471803
 72
     1
 10
384.9419031436
 20
-536.2802853471803
 11
384.9419031436
 21
-576.4195059183403
 72
     1
 10
384.9419031436
 20
-576.4195059183403
 11
396.378644882865
 21
-576.4195059183403
 72
     1
 10
396.378644882865
 20
-576.4195059183403
 11
396.378644882865
 21
-605.7807410744172
 72
     1
 10
396.378644882865
 20
-605.7807410744172
 11
344.0333017645262
 21
-605.7807410744172
 72
     1
 10
344.0333017645262
 20
-605.7807410744172
 11
344.0333017645262
 21
-576.4195059183403
 72
     1
 10
344.0333017645262
 20
-576.4195059183403
 11
354.9202481372704
 21
-576.4195059183403
 72
     1
 10
354.9202481372704
 20
-576.4195059183403
 11
354.9202481372704
 21
-459.4104091246809
 72
     1
 10
354.9202481372704
 20
-459.4104091246809
 11
344.0333017645262
 21
-459.4104091246809
 72
     1
 10
344.0333017645262
 20
-459.4104091246809
 11
344.0333017645262
 21
-429.7197958065135
 72
     1
 10
344.0333017645262
 20
-429.7197958065135
 11
428.0505177517907
 21
-429.7197958065135
 72
     1
 10
428.0505177517907
 20
-429.7197958065135
 11
450.7035840258904
 21
-452.703072005741
 72
     1
 10
450.7035840258904
 20
-452.703072005741
 11
450.7035840258904
 21
-510.1063661434582
 72
     1
 10
450.7035840258904
 20
-510.1063661434582
 11
442.566446248783
 21
-518.1345429629037
 72
     1
 10
442.566446248783
 20
-518.1345429629037
 11
450.7035840258904
 21
-525.943134340956
 72
     1
 10
450.7035840258904
 20
-525.943134340956
 11
450.7035840258904
 21
-576.4195059183403
 72
     1
 10
450.7035840258904
 20
-576.4195059183403
 11
462.1403257651555
 21
-576.4195059183403
 72
     1
 10
462.1403257651555
 20
-576.4195059183403
 11
462.1403257651555
 21
-605.7807410744172
 72
     1
 10
462.1403257651555
 20
-605.7807410744172
 11
409.7949826468166
 21
-605.7807410744172
 72
     1
 10
409.7949826468166
 20
-605.7807410744172
 11
409.7949826468166
 21
-576.4195059183403
 72
     1
 10
409.7949826468166
 20
-576.4195059183403
 11
421.2317243860816
 21
-576.4195059183403
 72
     1
 10
421.2317243860816
 20
-576.4195059183403
 11
421.2317243860816
 21
-536.2802853471803
 97
        0
 92
        1
 93
        4
 72
     1
 10
421.2317243860816
 20
-459.5218653714492
 11
384.9419031436
 21
-459.5218653714492
 72
     1
 10
384.9419031436
 20
-459.5218653714492
 11
384.9419031436
 21
-506.9173866650344
 72
     1
 10
384.9419031436
 20
-506.9173866650344
 11
421.2317243860816
 21
-506.9173866650344
 72
     1
 10
421.2317243860816
 20
-506.9173866650344
 11
421.2317243860816
 21
-459.5218653714492
 97
        0
 75
     2
 76
     1
 98
        0
  0
POLYLINE
  5
83
330
45
100
AcDbEntity
  8
Layer 1
370
     0
100
AcDb2dPolyline
 66
     1
 10
0.0
 20
0.0
 30
0.0
  0
VERTEX
  5
84
330
83
100
AcDbEntity
  8
Layer 1
370
     0
100
AcDbVertex
100
AcDb2dVertex
 10
556.9346954044668
 20
-430.049173968604
 30
0.0
  0
VERTEX
  5
85
330
83
100
AcDbEntity
  8
Layer 1
370
     0
100
AcDbVertex
100
AcDb2dVertex
 10
579.4788007209063
 20
-452.703072005741
 30
0.0
  0
VERTEX
  5
86
330
83
100
AcDbEntity
  8
Layer 1
370
     0
100
AcDbVertex
100
AcDb2dVertex
 10
579.4788007209063
 20
-583.2366357579776
 30
0.0
  0
VERTEX
  5
87
330
83
100
AcDbEntity
  8
Layer 1
370
     0
100
AcDbVertex
100
AcDb2dVertex
 10
556.9346954044668
 20
-605.7807410744172
 30
0.0
  0
VERTEX
  5
88
330
83
100
AcDbEntity
  8
Layer 1
370
     0
100
AcDbVertex
100
AcDb2dVertex
 10
501.1799556032747
 20
-605.7807410744172
 30
0.0
  0
VERTEX
  5
89
330
83
100
AcDbEntity
  8
Layer 1
370
     0
100
AcDbVertex
100
AcDb2dVertex
 10
478.6358502868361
 20
-583.2366357579776
 30
0.0
  0
VERTEX
  5
8A
330
83
100
AcDbEntity
  8
Layer 1
370
     0
100
AcDbVertex
100
AcDb2dVertex
 10
478.6358502868361
 20
-452.703072005741
 30
0.0
  0
VERTEX
  5
8B
330
83
100
AcDbEntity
  8
Layer 1
370
     0
100
AcDbVertex
100
AcDb2dVertex
 10
501.1799556032747
 20
-430.049173968604
 30
0.0
  0
VERTEX
  5
8C
330
83
100
AcDbEntity
  8
Layer 1
370
     0
100
AcDbVertex
100
AcDb2dVertex
 10
556.9346954044668
 20
-430.049173968604
 30
0.0
  0
SEQEND
  5
8D
330
83
100
AcDbEntity
  8
Layer 1
370
     0
  0
POLYLINE
  5
8E
330
45
100
AcDbEntity
  8
Layer 1
370
     0
100
AcDb2dPolyline
 66
     1
 10
0.0
 20
0.0
 30
0.0
  0
VERTEX
  5
8F
330
8E
100
AcDbEntity
  8
Layer 1
370
     0
100
AcDbVertex
100
AcDb2dVertex
 10
550.1159020387604
 20
-459.5218653714492
 30
0.0
  0
VERTEX
  5
90
330
8E
100
AcDbEntity
  8
Layer 1
370
     0
100
AcDbVertex
100
AcDb2dVertex
 10
508.1085416896804
 20
-459.5218653714492
 30
0.0
  0
VERTEX
  5
91
330
8E
100
AcDbEntity
  8
Layer 1
370
     0
100
AcDbVertex
100
AcDb2dVertex
 10
508.1085416896804
 20
-576.3080496715738
 30
0.0
  0
VERTEX
  5
92
330
8E
100
AcDbEntity
  8
Layer 1
370
     0
100
AcDbVertex
100
AcDb2dVertex
 10
550.1159020387604
 20
-576.3080496715738
 30
0.0
  0
VERTEX
  5
93
330
8E
100
AcDbEntity
  8
Layer 1
370
     0
100
AcDbVertex
100
AcDb2dVertex
 10
550.1159020387604
 20
-459.5218653714492
 30
0.0
  0
SEQEND
  5
94
330
8E
100
AcDbEntity
  8
Layer 1
370
     0
  0
HATCH
  5
95
330
45
100
AcDbEntity
  8
Layer 1
 62
   167
420
  2772859
100
AcDbHatch
 10
0.0
 20
0.0
 30
0.0
210
0.0
220
0.0
230
1.0
  2
SOLID
 70
     1
 71
     0
 91
        2
 92
        1
 93
        8
 72
     1
 10
556.9346954044668
 20
-430.049173968604
 11
579.4788007209063
 21
-452.703072005741
 72
     1
 10
579.4788007209063
 20
-452.703072005741
 11
579.4788007209063
 21
-583.2366357579776
 72
     1
 10
579.4788007209063
 20
-583.2366357579776
 11
556.9346954044668
 21
-605.7807410744172
 72
     1
 10
556.9346954044668
 20
-605.7807410744172
 11
501.1799556032747
 21
-605.7807410744172
 72
     1
 10
501.1799556032747
 20
-605.7807410744172
 11
478.6358502868361
 21
-583.2366357579776
 72
     1
 10
478.6358502868361
 20
-583.2366357579776
 11
478.6358502868361
 21
-452.703072005741
 72
     1
 10
478.6358502868361
 20
-452.703072005741
 11
501.1799556032747
 21
-430.049173968604
 72
     1
 10
501.1799556032747
 20
-430.049173968604
 11
556.9346954044668
 21
-430.049173968604
 97
        0
 92
        1
 93
        4
 72
     1
 10
550.1159020387604
 20
-459.5218653714492
 11
508.1085416896804
 21
-459.5218653714492
 72
     1
 10
508.1085416896804
 20
-459.5218653714492
 11
508.1085416896804
 21
-576.3080496715738
 72
     1
 10
508.1085416896804
 20
-576.3080496715738
 11
550.1159020387604
 21
-576.3080496715738
 72
     1
 10
550.1159020387604
 20
-576.3080496715738
 11
550.1159020387604
 21
-459.5218653714492
 97
        0
 75
     2
 76
     1
 98
        0
  0
POLYLINE
  5
96
330
45
100
AcDbEntity
  8
Layer 1
370
     0
100
AcDb2dPolyline
 66
     1
 10
0.0
 20
0.0
 30
0.0
  0
VERTEX
  5
97
330
96
100
AcDbEntity
  8
Layer 1
370
     0
100
AcDbVertex
100
AcDb2dVertex
 10
673.3931650685736
 20
-576.3080496715738
 30
0.0
  0
VERTEX
  5
98
330
96
100
AcDbEntity
  8
Layer 1
370
     0
100
AcDbVertex
100
AcDb2dVertex
 10
673.3931650685736
 20
-459.4104091246809
 30
0.0
  0
VERTEX
  5
99
330
96
100
AcDbEntity
  8
Layer 1
370
     0
100
AcDbVertex
100
AcDb2dVertex
 10
662.1760087707007
 20
-459.4104091246809
 30
0.0
  0
VERTEX
  5
9A
330
96
100
AcDbEntity
  8
Layer 1
370
     0
100
AcDbVertex
100
AcDb2dVertex
 10
662.1760087707007
 20
-430.049173968604
 30
0.0
  0
VERTEX
  5
9B
330
96
100
AcDbEntity
  8
Layer 1
370
     0
100
AcDbVertex
100
AcDb2dVertex
 10
714.5221836520759
 20
-430.049173968604
 30
0.0
  0
VERTEX
  5
9C
330
96
100
AcDbEntity
  8
Layer 1
370
     0
100
AcDbVertex
100
AcDb2dVertex
 10
714.5221836520759
 20
-459.4104091246809
 30
0.0
  0
VERTEX
  5
9D
330
96
100
AcDbEntity
  8
Layer 1
370
     0
100
AcDbVertex
100
AcDb2dVertex
 10
703.0854419128118
 20
-459.4104091246809
 30
0.0
  0
VERTEX
  5
9E
330
96
100
AcDbEntity
  8
Layer 1
370
     0
100
AcDbVertex
100
AcDb2dVertex
 10
703.0854419128118
 20
-583.2366357579776
 30
0.0
  0
VERTEX
  5
9F
330
96
100
AcDbEntity
  8
Layer 1
370
     0
100
AcDbVertex
100
AcDb2dVertex
 10
680.5413365963723
 20
-605.7807410744172
 30
0.0
  0
VERTEX
  5
A0
330
96
100
AcDbEntity
  8
Layer 1
370
     0
100
AcDbVertex
100
AcDb2dVertex
 10
629.9551722982906
 20
-605.7807410744172
 30
0.0
  0
VERTEX
  5
A1
330
96
100
AcDbEntity
  8
Layer 1
370
     0
100
AcDbVertex
100
AcDb2dVertex
 10
607.411066981851
 20
-583.2366357579776
 30
0.0
  0
VERTEX
  5
A2
330
96
100
AcDbEntity
  8
Layer 1
370
     0
100
AcDbVertex
100
AcDb2dVertex
 10
607.411066981851
 20
-459.4104091246809
 30
0.0
  0
VERTEX
  5
A3
330
96
100
AcDbEntity
  8
Layer 1
370
     0
100
AcDbVertex
100
AcDb2dVertex
 10
595.9743252425869
 20
-459.4104091246809
 30
0.0
  0
VERTEX
  5
A4
330
96
100
AcDbEntity
  8
Layer 1
370
     0
100
AcDbVertex
100
AcDb2dVertex
 10
595.9743252425869
 20
-430.049173968604
 30
0.0
  0
VERTEX
  5
A5
330
96
100
AcDbEntity
  8
Layer 1
370
     0
100
AcDbVertex
100
AcDb2dVertex
 10
648.3205001239621
 20
-430.049173968604
 30
0.0
  0
VERTEX
  5
A6
330
96
100
AcDbEntity
  8
Layer 1
370
     0
100
AcDbVertex
100
AcDb2dVertex
 10
648.3205001239621
 20
-459.4104091246809
 30
0.0
  0
VERTEX
  5
A7
330
96
100
AcDbEntity
  8
Layer 1
370
     0
100
AcDbVertex
100
AcDb2dVertex
 10
637.1033438260893
 20
-459.4104091246809
 30
0.0
  0
VERTEX
  5
A8
330
96
100
AcDbEntity
  8
Layer 1
370
     0
100
AcDbVertex
100
AcDb2dVertex
 10
637.1033438260893
 20
-576.3080496715738
 30
0.0
  0
VERTEX
  5
A9
330
96
100
AcDbEntity
  8
Layer 1
370
     0
100
AcDbVertex
100
AcDb2dVertex
 10
673.3931650685736
 20
-576.3080496715738
 30
0.0
  0
SEQEND
  5
AA
330
96
100
AcDbEntity
  8
Layer 1
370
     0
  0
HATCH
  5
AB
330
45
100
AcDbEntity
  8
Layer 1
 62
   167
420
  2772859
100
AcDbHatch
 10
0.0
 20
0.0
 30
0.0
210
0.0
220
0.0
230
1.0
  2
SOLID
 70
     1
 71
     0
 91
        1
 92
        1
 93
       18
 72
     1
 10
673.3931650685736
 20
-576.3080496715738
 11
673.3931650685736
 21
-459.4104091246809
 72
     1
 10
673.3931650685736
 20
-459.4104091246809
 11
662.1760087707007
 21
-459.4104091246809
 72
     1
 10
662.1760087707007
 20
-459.4104091246809
 11
662.1760087707007
 21
-430.049173968604
 72
     1
 10
662.1760087707007
 20
-430.049173968604
 11
714.5221836520759
 21
-430.049173968604
 72
     1
 10
714.5221836520759
 20
-430.049173968604
 11
714.5221836520759
 21
-459.4104091246809
 72
     1
 10
714.5221836520759
 20
-459.4104091246809
 11
703.0854419128118
 21
-459.4104091246809
 72
     1
 10
703.0854419128118
 20
-459.4104091246809
 11
703.0854419128118
 21
-583.2366357579776
 72
     1
 10
703.0854419128118
 20
-583.2366357579776
 11
680.5413365963723
 21
-605.7807410744172
 72
     1
 10
680.5413365963723
 20
-605.7807410744172
 11
629.9551722982906
 21
-605.7807410744172
 72
     1
 10
629.9551722982906
 20
-605.7807410744172
 11
607.411066981851
 21
-583.2366357579776
 72
     1
 10
607.411066981851
 20
-583.2366357579776
 11
607.411066981851
 21
-459.4104091246809
 72
     1
 10
607.411066981851
 20
-459.4104091246809
 11
595.9743252425869
 21
-459.4104091246809
 72
     1
 10
595.9743252425869
 20
-459.4104091246809
 11
595.9743252425869
 21
-430.049173968604
 72
     1
 10
595.9743252425869
 20
-430.049173968604
 11
648.3205001239621
 21
-430.049173968604
 72
     1
 10
648.3205001239621
 20
-430.049173968604
 11
648.3205001239621
 21
-459.4104091246809
 72
     1
 10
648.3205001239621
 20
-459.4104091246809
 11
637.1033438260893
 21
-459.4104091246809
 72
     1
 10
637.1033438260893
 20
-459.4104091246809
 11
637.1033438260893
 21
-576.3080496715738
 72
     1
 10
637.1033438260893
 20
-576.3080496715738
 11
673.3931650685736
 21
-576.3080496715738
 97
        0
 75
     2
 76
     1
 98
        0
  0
POLYLINE
  5
AC
330
45
100
AcDbEntity
  8
Layer 1
370
     0
100
AcDb2dPolyline
 66
     1
 10
0.0
 20
0.0
 30
0.0
  0
VERTEX
  5
AD
330
AC
100
AcDbEntity
  8
Layer 1
370
     0
100
AcDbVertex
100
AcDb2dVertex
 10
820.202667901096
 20
-430.049173968604
 30
0.0
  0
VERTEX
  5
AE
330
AC
100
AcDbEntity
  8
Layer 1
370
     0
100
AcDbVertex
100
AcDb2dVertex
 10
842.7467732175355
 20
-452.703072005741
 30
0.0
  0
VERTEX
  5
AF
330
AC
100
AcDbEntity
  8
Layer 1
370
     0
100
AcDbVertex
100
AcDb2dVertex
 10
842.7467732175355
 20
-583.2366357579776
 30
0.0
  0
VERTEX
  5
B0
330
AC
100
AcDbEntity
  8
Layer 1
370
     0
100
AcDbVertex
100
AcDb2dVertex
 10
820.202667901096
 20
-605.7807410744172
 30
0.0
  0
VERTEX
  5
B1
330
AC
100
AcDbEntity
  8
Layer 1
370
     0
100
AcDbVertex
100
AcDb2dVertex
 10
731.0177081737565
 20
-605.7807410744172
 30
0.0
  0
VERTEX
  5
B2
330
AC
100
AcDbEntity
  8
Layer 1
370
     0
100
AcDbVertex
100
AcDb2dVertex
 10
731.0177081737565
 20
-576.4195059183403
 30
0.0
  0
VERTEX
  5
B3
330
AC
100
AcDbEntity
  8
Layer 1
370
     0
100
AcDbVertex
100
AcDb2dVertex
 10
741.9054863095371
 20
-576.4195059183403
 30
0.0
  0
VERTEX
  5
B4
330
AC
100
AcDbEntity
  8
Layer 1
370
     0
100
AcDbVertex
100
AcDb2dVertex
 10
741.9054863095371
 20
-459.4104091246809
 30
0.0
  0
VERTEX
  5
B5
330
AC
100
AcDbEntity
  8
Layer 1
370
     0
100
AcDbVertex
100
AcDb2dVertex
 10
731.0177081737565
 20
-459.4104091246809
 30
0.0
  0
VERTEX
  5
B6
330
AC
100
AcDbEntity
  8
Layer 1
370
     0
100
AcDbVertex
100
AcDb2dVertex
 10
731.0177081737565
 20
-430.049173968604
 30
0.0
  0
VERTEX
  5
B7
330
AC
100
AcDbEntity
  8
Layer 1
370
     0
100
AcDbVertex
100
AcDb2dVertex
 10
820.202667901096
 20
-430.049173968604
 30
0.0
  0
SEQEND
  5
B8
330
AC
100
AcDbEntity
  8
Layer 1
370
     0
  0
POLYLINE
  5
B9
330
45
100
AcDbEntity
  8
Layer 1
370
     0
100
AcDb2dPolyline
 66
     1
 10
0.0
 20
0.0
 30
0.0
  0
VERTEX
  5
BA
330
B9
100
AcDbEntity
  8
Layer 1
370
     0
100
AcDbVertex
100
AcDb2dVertex
 10
813.3855380614586
 20
-459.5218653714492
 30
0.0
  0
VERTEX
  5
BB
330
B9
100
AcDbEntity
  8
Layer 1
370
     0
100
AcDbVertex
100
AcDb2dVertex
 10
771.3765141863078
 20
-459.5218653714492
 30
0.0
  0
VERTEX
  5
BC
330
B9
100
AcDbEntity
  8
Layer 1
370
     0
100
AcDbVertex
100
AcDb2dVertex
 10
771.3765141863078
 20
-576.3080496715738
 30
0.0
  0
VERTEX
  5
BD
330
B9
100
AcDbEntity
  8
Layer 1
370
     0
100
AcDbVertex
100
AcDb2dVertex
 10
813.3855380614586
 20
-576.3080496715738
 30
0.0
  0
VERTEX
  5
BE
330
B9
100
AcDbEntity
  8
Layer 1
370
     0
100
AcDbVertex
100
AcDb2dVertex
 10
813.3855380614586
 20
-459.5218653714492
 30
0.0
  0
SEQEND
  5
BF
330
B9
100
AcDbEntity
  8
Layer 1
370
     0
  0
HATCH
  5
C0
330
45
100
AcDbEntity
  8
Layer 1
 62
   167
420
  2772859
100
AcDbHatch
 10
0.0
 20
0.0
 30
0.0
210
0.0
220
0.0
230
1.0
  2
SOLID
 70
     1
 71
     0
 91
        2
 92
        1
 93
       10
 72
     1
 10
820.202667901096
 20
-430.049173968604
 11
842.7467732175355
 21
-452.703072005741
 72
     1
 10
842.7467732175355
 20
-452.703072005741
 11
842.7467732175355
 21
-583.2366357579776
 72
     1
 10
842.7467732175355
 20
-583.2366357579776
 11
820.202667901096
 21
-605.7807410744172
 72
     1
 10
820.202667901096
 20
-605.7807410744172
 11
731.0177081737565
 21
-605.7807410744172
 72
     1
 10
731.0177081737565
 20
-605.7807410744172
 11
731.0177081737565
 21
-576.4195059183403
 72
     1
 10
731.0177081737565
 20
-576.4195059183403
 11
741.9054863095371
 21
-576.4195059183403
 72
     1
 10
741.9054863095371
 20
-576.4195059183403
 11
741.9054863095371
 21
-459.4104091246809
 72
     1
 10
741.9054863095371
 20
-459.4104091246809
 11
731.0177081737565
 21
-459.4104091246809
 72
     1
 10
731.0177081737565
 20
-459.4104091246809
 11
731.0177081737565
 21
-430.049173968604
 72
     1
 10
731.0177081737565
 20
-430.049173968604
 11
820.202667901096
 21
-430.049173968604
 97
        0
 92
        1
 93
        4
 72
     1
 10
813.3855380614586
 20
-459.5218653714492
 11
771.3765141863078
 21
-459.5218653714492
 72
     1
 10
771.3765141863078
 20
-459.5218653714492
 11
771.3765141863078
 21
-576.3080496715738
 72
     1
 10
771.3765141863078
 20
-576.3080496715738
 11
813.3855380614586
 21
-576.3080496715738
 72
     1
 10
813.3855380614586
 20
-576.3080496715738
 11
813.3855380614586
 21
-459.5218653714492
 97
        0
 75
     2
 76
     1
 98
        0
  0
ENDBLK
  5
48
330
45
100
AcDbEntity
  8
0
100
AcDbBlockEnd
  0
BLOCK
  5
C3
330
C1
100
AcDbEntity
  8
0
100
AcDbBlockBegin
  2
block 4
 70
     0
 10
0.0
 20
0.0
 30
0.0
  3
block 4
  1

  0
POLYLINE
  5
C5
330
C1
100
AcDbEntity
  8
Layer 1
370
     0
100
AcDb2dPolyline
 66
     1
 10
0.0
 20
0.0
 30
0.0
  0
VERTEX
  5
C6
330
C5
100
AcDbEntity
  8
Layer 1
370
     0
100
AcDbVertex
100
AcDb2dVertex
 10
918.9766700527398
 20
-678.8786255102514
 30
0.0
  0
VERTEX
  5
C7
330
C5
100
AcDbEntity
  8
Layer 1
370
     0
100
AcDbVertex
100
AcDb2dVertex
 10
161.0233299472611
 20
-678.8786255102514
 30
0.0
  0
VERTEX
  5
C8
330
C5
100
AcDbEntity
  8
Layer 1
370
     0
100
AcDbVertex
100
AcDb2dVertex
 10
161.0233299472611
 20
-661.2533829336098
 30
0.0
  0
VERTEX
  5
C9
330
C5
100
AcDbEntity
  8
Layer 1
370
     0
100
AcDbVertex
100
AcDb2dVertex
 10
918.9766700527398
 20
-661.2533829336098
 30
0.0
  0
VERTEX
  5
CA
330
C5
100
AcDbEntity
  8
Layer 1
370
     0
100
AcDbVertex
100
AcDb2dVertex
 10
918.9766700527398
 20
-678.8786255102514
 30
0.0
  0
SEQEND
  5
CC
330
C5
100
AcDbEntity
  8
Layer 1
370
     0
  0
HATCH
  5
CB
330
C1
100
AcDbEntity
  8
Layer 1
 62
    22
420
 13517612
100
AcDbHatch
 10
0.0
 20
0.0
 30
0.0
210
0.0
220
0.0
230
1.0
  2
SOLID
 70
     1
 71
     0
 91
        1
 92
        1
 93
        4
 72
     1
 10
918.9766700527398
 20
-678.8786255102514
 11
161.0233299472611
 21
-678.8786255102514
 72
     1
 10
161.0233299472611
 20
-678.8786255102514
 11
161.0233299472611
 21
-661.2533829336098
 72
     1
 10
161.0233299472611
 20
-661.2533829336098
 11
918.9766700527398
 21
-661.2533829336098
 72
     1
 10
918.9766700527398
 20
-661.2533829336098
 11
918.9766700527398
 21
-678.8786255102514
 97
        0
 75
     2
 76
     1
 98
        0
  0
POLYLINE
  5
CD
330
C1
100
AcDbEntity
  8
Layer 1
370
     0
100
AcDb2dPolyline
 66
     1
 10
0.0
 20
0.0
 30
0.0
  0
VERTEX
  5
CE
330
CD
100
AcDbEntity
  8
Layer 1
370
     0
100
AcDbVertex
100
AcDb2dVertex
 10
918.9766700527398
 20
-643.5322465985009
 30
0.0
  0
VERTEX
  5
CF
330
CD
100
AcDbEntity
  8
Layer 1
370
     0
100
AcDbVertex
100
AcDb2dVertex
 10
161.0233299472611
 20
-643.5322465985009
 30
0.0
  0
VERTEX
  5
D0
330
CD
100
AcDbEntity
  8
Layer 1
370
     0
100
AcDbVertex
100
AcDb2dVertex
 10
161.0233299472611
 20
-625.9070040218576
 30
0.0
  0
VERTEX
  5
D1
330
CD
100
AcDbEntity
  8
Layer 1
370
     0
100
AcDbVertex
100
AcDb2dVertex
 10
918.9766700527398
 20
-625.9070040218576
 30
0.0
  0
VERTEX
  5
D2
330
CD
100
AcDbEntity
  8
Layer 1
370
     0
100
AcDbVertex
100
AcDb2dVertex
 10
918.9766700527398
 20
-643.5322465985009
 30
0.0
  0
SEQEND
  5
D4
330
CD
100
AcDbEntity
  8
Layer 1
370
     0
  0
HATCH
  5
D3
330
C1
100
AcDbEntity
  8
Layer 1
 62
    22
420
 13517612
100
AcDbHatch
 10
0.0
 20
0.0
 30
0.0
210
0.0
220
0.0
230
1.0
  2
SOLID
 70
     1
 71
     0
 91
        1
 92
        1
 93
        4
 72
     1
 10
918.9766700527398
 20
-643.5322465985009
 11
161.0233299472611
 21
-643.5322465985009
 72
     1
 10
161.0233299472611
 20
-643.5322465985009
 11
161.0233299472611
 21
-625.9070040218576
 72
     1
 10
161.0233299472611
 20
-625.9070040218576
 11
918.9766700527398
 21
-625.9070040218576
 72
     1
 10
918.9766700527398
 20
-625.9070040218576
 11
918.9766700527398
 21
-643.5322465985009
 97
        0
 75
     2
 76
     1
 98
        0
  0
POLYLINE
  5
D5
330
C1
100
AcDbEntity
  8
Layer 1
370
     0
100
AcDb2dPolyline
 66
     1
 10
0.0
 20
0.0
 30
0.0
  0
VERTEX
  5
D6
330
D5
100
AcDbEntity
  8
Layer 1
370
     0
100
AcDbVertex
100
AcDb2dVertex
 10
918.9766700527398
 20
-714.1291106635472
 30
0.0
  0
VERTEX
  5
D7
330
D5
100
AcDbEntity
  8
Layer 1
370
     0
100
AcDbVertex
100
AcDb2dVertex
 10
161.0233299472611
 20
-714.1291106635472
 30
0.0
  0
VERTEX
  5
D8
330
D5
100
AcDbEntity
  8
Layer 1
370
     0
100
AcDbVertex
100
AcDb2dVertex
 10
161.0233299472611
 20
-696.5038680869038
 30
0.0
  0
VERTEX
  5
D9
330
D5
100
AcDbEntity
  8
Layer 1
370
     0
100
AcDbVertex
100
AcDb2dVertex
 10
918.9766700527398
 20
-696.5038680869038
 30
0.0
  0
VERTEX
  5
DA
330
D5
100
AcDbEntity
  8
Layer 1
370
     0
100
AcDbVertex
100
AcDb2dVertex
 10
918.9766700527398
 20
-714.1291106635472
 30
0.0
  0
SEQEND
  5
DC
330
D5
100
AcDbEntity
  8
Layer 1
370
     0
  0
HATCH
  5
DB
330
C1
100
AcDbEntity
  8
Layer 1
 62
    22
420
 13517612
100
AcDbHatch
 10
0.0
 20
0.0
 30
0.0
210
0.0
220
0.0
230
1.0
  2
SOLID
 70
     1
 71
     0
 91
        1
 92
        1
 93
        4
 72
     1
 10
918.9766700527398
 20
-714.1291106635472
 11
161.0233299472611
 21
-714.1291106635472
 72
     1
 10
161.0233299472611
 20
-714.1291106635472
 11
161.0233299472611
 21
-696.5038680869038
 72
     1
 10
161.0233299472611
 20
-696.5038680869038
 11
918.9766700527398
 21
-696.5038680869038
 72
     1
 10
918.9766700527398
 20
-696.5038680869038
 11
918.9766700527398
 21
-714.1291106635472
 97
        0
 75
     2
 76
     1
 98
        0
  0
ENDBLK
  5
C4
330
C1
100
AcDbEntity
  8
0
100
AcDbBlockEnd
  0
BLOCK
  5
DF
330
DD
100
AcDbEntity
  8
0
100
AcDbBlockBegin
  2
block 5
 70
     0
 10
0.0
 20
0.0
 30
0.0
  3
block 5
  1

  0
SPLINE
  5
E1
330
DD
100
AcDbEntity
  8
Layer 1
370
     0
100
AcDbSpline
210
0.0
220
0.0
230
1.0
 70
    11
 71
     3
 72
    65
 73
    61
 74
     0
 42
0.0000000001
 43
0.0000000001
 12
1.0
 22
0.0
 32
0.0
 13
1.0
 23
0.0
 33
0.0
 40
0.0
 40
0.0
 40
0.0
 40
0.0
 40
1.0
 40
1.0
 40
1.0
 40
2.0
 40
2.0
 40
2.0
 40
3.0
 40
3.0
 40
3.0
 40
4.0
 40
4.0
 40
4.0
 40
5.0
 40
5.0
 40
5.0
 40
6.0
 40
6.0
 40
6.0
 40
7.0
 40
7.0
 40
7.0
 40
8.0
 40
8.0
 40
8.0
 40
9.0
 40
9.0
 40
9.0
 40
10.0
 40
10.0
 40
10.0
 40
11.0
 40
11.0
 40
11.0
 40
12.0
 40
12.0
 40
12.0
 40
13.0
 40
13.0
 40
13.0
 40
14.0
 40
14.0
 40
14.0
 40
15.0
 40
15.0
 40
15.0
 40
16.0
 40
16.0
 40
16.0
 40
17.0
 40
17.0
 40
17.0
 40
18.0
 40
18.0
 40
18.0
 40
19.0
 40
19.0
 40
19.0
 40
20.0
 40
20.0
 40
20.0
 40
20.0
 10
907.4194916849156
 20
-366.8172343419301
 30
0.0
 10
907.4194916849156
 20
-366.8172343419301
 30
0.0
 10
911.9758934346246
 20
-380.8403969957617
 30
0.0
 10
911.9758934346246
 20
-380.8403969957617
 30
0.0
 10
912.1592427393225
 20
-381.4046881324102
 30
0.0
 10
912.6850947770254
 20
-381.7867420012408
 30
0.0
 10
913.2784255906809
 20
-381.7867420012408
 30
0.0
 10
913.2784255906809
 20
-381.7867420012408
 30
0.0
 10
928.0232513855372
 20
-381.7867420012408
 30
0.0
 10
928.0232513855372
 20
-381.7867420012408
 30
0.0
 10
929.3499794180134
 20
-381.7867420012408
 30
0.0
 10
929.9016060546091
 20
-383.4844742193618
 30
0.0
 10
928.8282605294262
 20
-384.264305390665
 30
0.0
 10
928.8282605294262
 20
-384.264305390665
 30
0.0
 10
916.8994458822817
 20
-392.9310965404929
 30
0.0
 10
916.8994458822817
 20
-392.9310965404929
 30
0.0
 10
916.4194311707506
 20
-393.2798476424978
 30
0.0
 10
916.218573565413
 20
-393.8980237877913
 30
0.0
 10
916.4019228701218
 20
-394.4623149244362
 30
0.0
 10
916.4019228701218
 20
-394.4623149244362
 30
0.0
 10
920.9583246198235
 20
-408.4854775782624
 30
0.0
 10
920.9583246198235
 20
-408.4854775782624
 30
0.0
 10
921.3683061287556
 20
-409.7472709188987
 30
0.0
 10
919.9241288450503
 20
-410.7965271334979
 30
0.0
 10
918.8507833198673
 20
-410.0166959622111
 30
0.0
 10
918.8507833198673
 20
-410.0166959622111
 30
0.0
 10
906.9219686727338
 20
-401.3499048123704
 30
0.0
 10
906.9219686727338
 20
-401.3499048123704
 30
0.0
 10
906.4419539612136
 20
-401.0011537103746
 30
0.0
 10
905.7919650964941
 20
-401.0011537103746
 30
0.0
 10
905.3119503849593
 20
-401.3499048123704
 30
0.0
 10
905.3119503849593
 20
-401.3499048123704
 30
0.0
 10
893.383135737844
 20
-410.0166959622111
 30
0.0
 10
893.383135737844
 20
-410.0166959622111
 30
0.0
 10
892.3097902126538
 20
-410.7965271334979
 30
0.0
 10
890.8656129289375
 20
-409.7472709188987
 30
0.0
 10
891.2755944378878
 20
-408.4854775782624
 30
0.0
 10
891.2755944378878
 20
-408.4854775782624
 30
0.0
 10
895.8319961875968
 20
-394.4623149244362
 30
0.0
 10
895.8319961875968
 20
-394.4623149244362
 30
0.0
 10
896.015345492302
 20
-393.8980237877913
 30
0.0
 10
895.8144878869389
 20
-393.2798476424978
 30
0.0
 10
895.3344731754078
 20
-392.9310965404929
 30
0.0
 10
895.3344731754078
 20
-392.9310965404929
 30
0.0
 10
883.4056585282742
 20
-384.264305390665
 30
0.0
 10
883.4056585282742
 20
-384.264305390665
 30
0.0
 10
882.3323130030913
 20
-383.4844742193618
 30
0.0
 10
882.8839396396979
 20
-381.7867420012408
 30
0.0
 10
884.2106676721705
 20
-381.7867420012408
 30
0.0
 10
884.2106676721705
 20
-381.7867420012408
 30
0.0
 10
898.9554934670123
 20
-381.7867420012408
 30
0.0
 10
898.9554934670123
 20
-381.7867420012408
 30
0.0
 10
899.5488242806714
 20
-381.7867420012408
 30
0.0
 10
900.074676318367
 20
-381.4046881324102
 30
0.0
 10
900.2580256230794
 20
-380.8403969957617
 30
0.0
 10
900.2580256230794
 20
-380.8403969957617
 30
0.0
 10
904.8144273727885
 20
-366.8172343419301
 30
0.0
 10
904.8144273727885
 20
-366.8172343419301
 30
0.0
 10
905.2244088817351
 20
-365.5554410012955
 30
0.0
 10
907.0095101759689
 20
-365.5554410012955
 30
0.0
 10
907.4194916849156
 20
-366.8172343419301
 30
0.0
  0
HATCH
  5
E2
330
DD
100
AcDbEntity
  8
Layer 1
 62
    22
420
 13517612
100
AcDbHatch
 10
0.0
 20
0.0
 30
0.0
210
0.0
220
0.0
230
1.0
  2
SOLID
 70
     1
 71
     0
 91
        1
 92
        1
 93
        1
 72
     4
 94
        3
 73
     0
 74
     1
 95
       65
 96
       61
 40
0.0
 40
0.0
 40
0.0
 40
0.0
 40
1.0
 40
1.0
 40
1.0
 40
2.0
 40
2.0
 40
2.0
 40
3.0
 40
3.0
 40
3.0
 40
4.0
 40
4.0
 40
4.0
 40
5.0
 40
5.0
 40
5.0
 40
6.0
 40
6.0
 40
6.0
 40
7.0
 40
7.0
 40
7.0
 40
8.0
 40
8.0
 40
8.0
 40
9.0
 40
9.0
 40
9.0
 40
10.0
 40
10.0
 40
10.0
 40
11.0
 40
11.0
 40
11.0
 40
12.0
 40
12.0
 40
12.0
 40
13.0
 40
13.0
 40
13.0
 40
14.0
 40
14.0
 40
14.0
 40
15.0
 40
15.0
 40
15.0
 40
16.0
 40
16.0
 40
16.0
 40
17.0
 40
17.0
 40
17.0
 40
18.0
 40
18.0
 40
18.0
 40
19.0
 40
19.0
 40
19.0
 40
20.0
 40
20.0
 40
20.0
 40
20.0
 10
907.4194916849156
 20
-366.8172343419301
 10
907.4194916849156
 20
-366.8172343419301
 10
911.9758934346246
 20
-380.8403969957617
 10
911.9758934346246
 20
-380.8403969957617
 10
912.1592427393225
 20
-381.4046881324102
 10
912.6850947770254
 20
-381.7867420012408
 10
913.2784255906809
 20
-381.7867420012408
 10
913.2784255906809
 20
-381.7867420012408
 10
928.0232513855372
 20
-381.7867420012408
 10
928.0232513855372
 20
-381.7867420012408
 10
929.3499794180134
 20
-381.7867420012408
 10
929.9016060546091
 20
-383.4844742193618
 10
928.8282605294262
 20
-384.264305390665
 10
928.8282605294262
 20
-384.264305390665
 10
916.8994458822817
 20
-392.9310965404929
 10
916.8994458822817
 20
-392.9310965404929
 10
916.4194311707506
 20
-393.2798476424978
 10
916.218573565413
 20
-393.8980237877913
 10
916.4019228701218
 20
-394.4623149244362
 10
916.4019228701218
 20
-394.4623149244362
 10
920.9583246198235
 20
-408.4854775782624
 10
920.9583246198235
 20
-408.4854775782624
 10
921.3683061287556
 20
-409.7472709188987
 10
919.9241288450503
 20
-410.7965271334979
 10
918.8507833198673
 20
-410.0166959622111
 10
918.8507833198673
 20
-410.0166959622111
 10
906.9219686727338
 20
-401.3499048123704
 10
906.9219686727338
 20
-401.3499048123704
 10
906.4419539612136
 20
-401.0011537103746
 10
905.7919650964941
 20
-401.0011537103746
 10
905.3119503849593
 20
-401.3499048123704
 10
905.3119503849593
 20
-401.3499048123704
 10
893.383135737844
 20
-410.0166959622111
 10
893.383135737844
 20
-410.0166959622111
 10
892.3097902126538
 20
-410.7965271334979
 10
890.8656129289375
 20
-409.7472709188987
 10
891.2755944378878
 20
-408.4854775782624
 10
891.2755944378878
 20
-408.4854775782624
 10
895.8319961875968
 20
-394.4623149244362
 10
895.8319961875968
 20
-394.4623149244362
 10
896.015345492302
 20
-393.8980237877913
 10
895.8144878869389
 20
-393.2798476424978
 10
895.3344731754078
 20
-392.9310965404929
 10
895.3344731754078
 20
-392.9310965404929
 10
883.4056585282742
 20
-384.264305390665
 10
883.4056585282742
 20
-384.264305390665
 10
882.3323130030913
 20
-383.4844742193618
 10
882.8839396396979
 20
-381.7867420012408
 10
884.2106676721705
 20
-381.7867420012408
 10
884.2106676721705
 20
-381.7867420012408
 10
898.9554934670123
 20
-381.7867420012408
 10
898.9554934670123
 20
-381.7867420012408
 10
899.5488242806714
 20
-381.7867420012408
 10
900.074676318367
 20
-381.4046881324102
 10
900.2580256230794
 20
-380.8403969957617
 10
900.2580256230794
 20
-380.8403969957617
 10
904.8144273727885
 20
-366.8172343419301
 10
904.8144273727885
 20
-366.8172343419301
 10
905.2244088817351
 20
-365.5554410012955
 10
907.0095101759689
 20
-365.5554410012955
 10
907.4194916849156
 20
-366.8172343419301
 97
        0
 97
        0
 75
     2
 76
     1
 98
        0
  0
SPLINE
  5
E3
330
DD
100
AcDbEntity
  8
Layer 1
370
     0
100
AcDbSpline
210
0.0
220
0.0
230
1.0
 70
    11
 71
     3
 72
    65
 73
    61
 74
     0
 42
0.0000000001
 43
0.0000000001
 12
1.0
 22
0.0
 32
0.0
 13
1.0
 23
0.0
 33
0.0
 40
0.0
 40
0.0
 40
0.0
 40
0.0
 40
1.0
 40
1.0
 40
1.0
 40
2.0
 40
2.0
 40
2.0
 40
3.0
 40
3.0
 40
3.0
 40
4.0
 40
4.0
 40
4.0
 40
5.0
 40
5.0
 40
5.0
 40
6.0
 40
6.0
 40
6.0
 40
7.0
 40
7.0
 40
7.0
 40
8.0
 40
8.0
 40
8.0
 40
9.0
 40
9.0
 40
9.0
 40
10.0
 40
10.0
 40
10.0
 40
11.0
 40
11.0
 40
11.0
 40
12.0
 40
12.0
 40
12.0
 40
13.0
 40
13.0
 40
13.0
 40
14.0
 40
14.0
 40
14.0
 40
15.0
 40
15.0
 40
15.0
 40
16.0
 40
16.0
 40
16.0
 40
17.0
 40
17.0
 40
17.0
 40
18.0
 40
18.0
 40
18.0
 40
19.0
 40
19.0
 40
19.0
 40
20.0
 40
20.0
 40
20.0
 40
20.0
 10
815.8902518026844
 20
-366.8172343419301
 30
0.0
 10
815.8902518026844
 20
-366.8172343419301
 30
0.0
 10
820.446653552408
 20
-380.8403969957617
 30
0.0
 10
820.446653552408
 20
-380.8403969957617
 30
0.0
 10
820.6300028571059
 20
-381.4046881324102
 30
0.0
 10
821.1558548948051
 20
-381.7867420012408
 30
0.0
 10
821.7491857084642
 20
-381.7867420012408
 30
0.0
 10
821.7491857084642
 20
-381.7867420012408
 30
0.0
 10
836.4940115033205
 20
-381.7867420012408
 30
0.0
 10
836.4940115033205
 20
-381.7867420012408
 30
0.0
 10
837.8207395357967
 20
-381.7867420012408
 30
0.0
 10
838.3723661723925
 20
-383.4844742193618
 30
0.0
 10
837.2990206472095
 20
-384.264305390665
 30
0.0
 10
837.2990206472095
 20
-384.264305390665
 30
0.0
 10
825.3702060000796
 20
-392.9310965404929
 30
0.0
 10
825.3702060000796
 20
-392.9310965404929
 30
0.0
 10
824.890191288534
 20
-393.2798476424978
 30
0.0
 10
824.6893336831963
 20
-393.8980237877913
 30
0.0
 10
824.8726829879051
 20
-394.4623149244362
 30
0.0
 10
824.8726829879051
 20
-394.4623149244362
 30
0.0
 10
829.4290847376069
 20
-408.4854775782624
 30
0.0
 10
829.4290847376069
 20
-408.4854775782624
 30
0.0
 10
829.8390662465499
 20
-409.7472709188987
 30
0.0
 10
828.3948889628409
 20
-410.7965271334979
 30
0.0
 10
827.3215434376507
 20
-410.0166959622111
 30
0.0
 10
827.3215434376507
 20
-410.0166959622111
 30
0.0
 10
815.392728790528
 20
-401.3499048123704
 30
0.0
 10
815.392728790528
 20
-401.3499048123704
 30
0.0
 10
814.9127140789969
 20
-401.0011537103746
 30
0.0
 10
814.2627252142775
 20
-401.0011537103746
 30
0.0
 10
813.78271050275
 20
-401.3499048123704
 30
0.0
 10
813.78271050275
 20
-401.3499048123704
 30
0.0
 10
801.8538958556273
 20
-410.0166959622111
 30
0.0
 10
801.8538958556273
 20
-410.0166959622111
 30
0.0
 10
800.7805503304371
 20
-410.7965271334979
 30
0.0
 10
799.3363730467208
 20
-409.7472709188987
 30
0.0
 10
799.7463545556711
 20
-408.4854775782624
 30
0.0
 10
799.7463545556711
 20
-408.4854775782624
 30
0.0
 10
804.3027563053802
 20
-394.4623149244362
 30
0.0
 10
804.3027563053802
 20
-394.4623149244362
 30
0.0
 10
804.486105610089
 20
-393.8980237877913
 30
0.0
 10
804.2852480047259
 20
-393.2798476424978
 30
0.0
 10
803.8052332931911
 20
-392.9310965404929
 30
0.0
 10
803.8052332931911
 20
-392.9310965404929
 30
0.0
 10
791.8764186460576
 20
-384.264305390665
 30
0.0
 10
791.8764186460576
 20
-384.264305390665
 30
0.0
 10
790.8030731208855
 20
-383.4844742193618
 30
0.0
 10
791.3546997574886
 20
-381.7867420012408
 30
0.0
 10
792.6814277899502
 20
-381.7867420012408
 30
0.0
 10
792.6814277899502
 20
-381.7867420012408
 30
0.0
 10
807.4262535847993
 20
-381.7867420012408
 30
0.0
 10
807.4262535847993
 20
-381.7867420012408
 30
0.0
 10
808.0195843984548
 20
-381.7867420012408
 30
0.0
 10
808.545436436154
 20
-381.4046881324102
 30
0.0
 10
808.7287857408628
 20
-380.8403969957617
 30
0.0
 10
808.7287857408628
 20
-380.8403969957617
 30
0.0
 10
813.2851874905718
 20
-366.8172343419301
 30
0.0
 10
813.2851874905718
 20
-366.8172343419301
 30
0.0
 10
813.6951689995221
 20
-365.5554410012955
 30
0.0
 10
815.4802702937486
 20
-365.5554410012955
 30
0.0
 10
815.8902518026844
 20
-366.8172343419301
 30
0.0
  0
HATCH
  5
E4
330
DD
100
AcDbEntity
  8
Layer 1
 62
    22
420
 13517612
100
AcDbHatch
 10
0.0
 20
0.0
 30
0.0
210
0.0
220
0.0
230
1.0
  2
SOLID
 70
     1
 71
     0
 91
        1
 92
        1
 93
        1
 72
     4
 94
        3
 73
     0
 74
     1
 95
       65
 96
       61
 40
0.0
 40
0.0
 40
0.0
 40
0.0
 40
1.0
 40
1.0
 40
1.0
 40
2.0
 40
2.0
 40
2.0
 40
3.0
 40
3.0
 40
3.0
 40
4.0
 40
4.0
 40
4.0
 40
5.0
 40
5.0
 40
5.0
 40
6.0
 40
6.0
 40
6.0
 40
7.0
 40
7.0
 40
7.0
 40
8.0
 40
8.0
 40
8.0
 40
9.0
 40
9.0
 40
9.0
 40
10.0
 40
10.0
 40
10.0
 40
11.0
 40
11.0
 40
11.0
 40
12.0
 40
12.0
 40
12.0
 40
13.0
 40
13.0
 40
13.0
 40
14.0
 40
14.0
 40
14.0
 40
15.0
 40
15.0
 40
15.0
 40
16.0
 40
16.0
 40
16.0
 40
17.0
 40
17.0
 40
17.0
 40
18.0
 40
18.0
 40
18.0
 40
19.0
 40
19.0
 40
19.0
 40
20.0
 40
20.0
 40
20.0
 40
20.0
 10
815.8902518026844
 20
-366.8172343419301
 10
815.8902518026844
 20
-366.8172343419301
 10
820.446653552408
 20
-380.8403969957617
 10
820.446653552408
 20
-380.8403969957617
 10
820.6300028571059
 20
-381.4046881324102
 10
821.1558548948051
 20
-381.7867420012408
 10
821.7491857084642
 20
-381.7867420012408
 10
821.7491857084642
 20
-381.7867420012408
 10
836.4940115033205
 20
-381.7867420012408
 10
836.4940115033205
 20
-381.7867420012408
 10
837.8207395357967
 20
-381.7867420012408
 10
838.3723661723925
 20
-383.4844742193618
 10
837.2990206472095
 20
-384.264305390665
 10
837.2990206472095
 20
-384.264305390665
 10
825.3702060000796
 20
-392.9310965404929
 10
825.3702060000796
 20
-392.9310965404929
 10
824.890191288534
 20
-393.2798476424978
 10
824.6893336831963
 20
-393.8980237877913
 10
824.8726829879051
 20
-394.4623149244362
 10
824.8726829879051
 20
-394.4623149244362
 10
829.4290847376069
 20
-408.4854775782624
 10
829.4290847376069
 20
-408.4854775782624
 10
829.8390662465499
 20
-409.7472709188987
 10
828.3948889628409
 20
-410.7965271334979
 10
827.3215434376507
 20
-410.0166959622111
 10
827.3215434376507
 20
-410.0166959622111
 10
815.392728790528
 20
-401.3499048123704
 10
815.392728790528
 20
-401.3499048123704
 10
814.9127140789969
 20
-401.0011537103746
 10
814.2627252142775
 20
-401.0011537103746
 10
813.78271050275
 20
-401.3499048123704
 10
813.78271050275
 20
-401.3499048123704
 10
801.8538958556273
 20
-410.0166959622111
 10
801.8538958556273
 20
-410.0166959622111
 10
800.7805503304371
 20
-410.7965271334979
 10
799.3363730467208
 20
-409.7472709188987
 10
799.7463545556711
 20
-408.4854775782624
 10
799.7463545556711
 20
-408.4854775782624
 10
804.3027563053802
 20
-394.4623149244362
 10
804.3027563053802
 20
-394.4623149244362
 10
804.486105610089
 20
-393.8980237877913
 10
804.2852480047259
 20
-393.2798476424978
 10
803.8052332931911
 20
-392.9310965404929
 10
803.8052332931911
 20
-392.9310965404929
 10
791.8764186460576
 20
-384.264305390665
 10
791.8764186460576
 20
-384.264305390665
 10
790.8030731208855
 20
-383.4844742193618
 10
791.3546997574886
 20
-381.7867420012408
 10
792.6814277899502
 20
-381.7867420012408
 10
792.6814277899502
 20
-381.7867420012408
 10
807.4262535847993
 20
-381.7867420012408
 10
807.4262535847993
 20
-381.7867420012408
 10
808.0195843984548
 20
-381.7867420012408
 10
808.545436436154
 20
-381.4046881324102
 10
808.7287857408628
 20
-380.8403969957617
 10
808.7287857408628
 20
-380.8403969957617
 10
813.2851874905718
 20
-366.8172343419301
 10
813.2851874905718
 20
-366.8172343419301
 10
813.6951689995221
 20
-365.5554410012955
 10
815.4802702937486
 20
-365.5554410012955
 10
815.8902518026844
 20
-366.8172343419301
 97
        0
 97
        0
 75
     2
 76
     1
 98
        0
  0
SPLINE
  5
E5
330
DD
100
AcDbEntity
  8
Layer 1
370
     0
100
AcDbSpline
210
0.0
220
0.0
230
1.0
 70
    11
 71
     3
 72
    65
 73
    61
 74
     0
 42
0.0000000001
 43
0.0000000001
 12
1.0
 22
0.0
 32
0.0
 13
1.0
 23
0.0
 33
0.0
 40
0.0
 40
0.0
 40
0.0
 40
0.0
 40
1.0
 40
1.0
 40
1.0
 40
2.0
 40
2.0
 40
2.0
 40
3.0
 40
3.0
 40
3.0
 40
4.0
 40
4.0
 40
4.0
 40
5.0
 40
5.0
 40
5.0
 40
6.0
 40
6.0
 40
6.0
 40
7.0
 40
7.0
 40
7.0
 40
8.0
 40
8.0
 40
8.0
 40
9.0
 40
9.0
 40
9.0
 40
10.0
 40
10.0
 40
10.0
 40
11.0
 40
11.0
 40
11.0
 40
12.0
 40
12.0
 40
12.0
 40
13.0
 40
13.0
 40
13.0
 40
14.0
 40
14.0
 40
14.0
 40
15.0
 40
15.0
 40
15.0
 40
16.0
 40
16.0
 40
16.0
 40
17.0
 40
17.0
 40
17.0
 40
18.0
 40
18.0
 40
18.0
 40
19.0
 40
19.0
 40
19.0
 40
20.0
 40
20.0
 40
20.0
 40
20.0
 10
724.3610119204859
 20
-366.8172343419301
 30
0.0
 10
724.3610119204859
 20
-366.8172343419301
 30
0.0
 10
728.9174136701986
 20
-380.8403969957617
 30
0.0
 10
728.9174136701986
 20
-380.8403969957617
 30
0.0
 10
729.1007629748892
 20
-381.4046881324102
 30
0.0
 10
729.626615012603
 20
-381.7867420012408
 30
0.0
 10
730.2199458262476
 20
-381.7867420012408
 30
0.0
 10
730.2199458262476
 20
-381.7867420012408
 30
0.0
 10
744.964771621122
 20
-381.7867420012408
 30
0.0
 10
744.964771621122
 20
-381.7867420012408
 30
0.0
 10
746.2914996535874
 20
-381.7867420012408
 30
0.0
 10
746.8431262901722
 20
-383.4844742193618
 30
0.0
 10
745.7697807649965
 20
-384.264305390665
 30
0.0
 10
745.7697807649965
 20
-384.264305390665
 30
0.0
 10
733.840966117863
 20
-392.9310965404929
 30
0.0
 10
733.840966117863
 20
-392.9310965404929
 30
0.0
 10
733.3609514063173
 20
-393.2798476424978
 30
0.0
 10
733.1600938009833
 20
-393.8980237877913
 30
0.0
 10
733.3434431056921
 20
-394.4623149244362
 30
0.0
 10
733.3434431056921
 20
-394.4623149244362
 30
0.0
 10
737.8998448553975
 20
-408.4854775782624
 30
0.0
 10
737.8998448553975
 20
-408.4854775782624
 30
0.0
 10
738.3098263643406
 20
-409.7472709188987
 30
0.0
 10
736.8656490806316
 20
-410.7965271334979
 30
0.0
 10
735.7923035554486
 20
-410.0166959622111
 30
0.0
 10
735.7923035554486
 20
-410.0166959622111
 30
0.0
 10
723.8634889082969
 20
-401.3499048123704
 30
0.0
 10
723.8634889082969
 20
-401.3499048123704
 30
0.0
 10
723.3834741967803
 20
-401.0011537103746
 30
0.0
 10
722.7334853320572
 20
-401.0011537103746
 30
0.0
 10
722.2534706205442
 20
-401.3499048123704
 30
0.0
 10
722.2534706205442
 20
-401.3499048123704
 30
0.0
 10
710.3246559734107
 20
-410.0166959622111
 30
0.0
 10
710.3246559734107
 20
-410.0166959622111
 30
0.0
 10
709.2513104482241
 20
-410.7965271334979
 30
0.0
 10
707.8071331645042
 20
-409.7472709188987
 30
0.0
 10
708.2171146734654
 20
-408.4854775782624
 30
0.0
 10
708.2171146734654
 20
-408.4854775782624
 30
0.0
 10
712.7735164231635
 20
-394.4623149244362
 30
0.0
 10
712.7735164231635
 20
-394.4623149244362
 30
0.0
 10
712.9568657278724
 20
-393.8980237877913
 30
0.0
 10
712.7560081225201
 20
-393.2798476424978
 30
0.0
 10
712.2759934109927
 20
-392.9310965404929
 30
0.0
 10
712.2759934109927
 20
-392.9310965404929
 30
0.0
 10
700.3471787638482
 20
-384.264305390665
 30
0.0
 10
700.3471787638482
 20
-384.264305390665
 30
0.0
 10
699.2738332386689
 20
-383.4844742193618
 30
0.0
 10
699.8254598752719
 20
-381.7867420012408
 30
0.0
 10
701.1521879077336
 20
-381.7867420012408
 30
0.0
 10
701.1521879077336
 20
-381.7867420012408
 30
0.0
 10
715.8970137025826
 20
-381.7867420012408
 30
0.0
 10
715.8970137025826
 20
-381.7867420012408
 30
0.0
 10
716.4903445162381
 20
-381.7867420012408
 30
0.0
 10
717.0161965539628
 20
-381.4046881324102
 30
0.0
 10
717.1995458586462
 20
-380.8403969957617
 30
0.0
 10
717.1995458586462
 20
-380.8403969957617
 30
0.0
 10
721.7559476083625
 20
-366.8172343419301
 30
0.0
 10
721.7559476083625
 20
-366.8172343419301
 30
0.0
 10
722.1659291173055
 20
-365.5554410012955
 30
0.0
 10
723.9510304115502
 20
-365.5554410012955
 30
0.0
 10
724.3610119204859
 20
-366.8172343419301
 30
0.0
  0
HATCH
  5
E6
330
DD
100
AcDbEntity
  8
Layer 1
 62
    22
420
 13517612
100
AcDbHatch
 10
0.0
 20
0.0
 30
0.0
210
0.0
220
0.0
230
1.0
  2
SOLID
 70
     1
 71
     0
 91
        1
 92
        1
 93
        1
 72
     4
 94
        3
 73
     0
 74
     1
 95
       65
 96
       61
 40
0.0
 40
0.0
 40
0.0
 40
0.0
 40
1.0
 40
1.0
 40
1.0
 40
2.0
 40
2.0
 40
2.0
 40
3.0
 40
3.0
 40
3.0
 40
4.0
 40
4.0
 40
4.0
 40
5.0
 40
5.0
 40
5.0
 40
6.0
 40
6.0
 40
6.0
 40
7.0
 40
7.0
 40
7.0
 40
8.0
 40
8.0
 40
8.0
 40
9.0
 40
9.0
 40
9.0
 40
10.0
 40
10.0
 40
10.0
 40
11.0
 40
11.0
 40
11.0
 40
12.0
 40
12.0
 40
12.0
 40
13.0
 40
13.0
 40
13.0
 40
14.0
 40
14.0
 40
14.0
 40
15.0
 40
15.0
 40
15.0
 40
16.0
 40
16.0
 40
16.0
 40
17.0
 40
17.0
 40
17.0
 40
18.0
 40
18.0
 40
18.0
 40
19.0
 40
19.0
 40
19.0
 40
20.0
 40
20.0
 40
20.0
 40
20.0
 10
724.3610119204859
 20
-366.8172343419301
 10
724.3610119204859
 20
-366.8172343419301
 10
728.9174136701986
 20
-380.8403969957617
 10
728.9174136701986
 20
-380.8403969957617
 10
729.1007629748892
 20
-381.4046881324102
 10
729.626615012603
 20
-381.7867420012408
 10
730.2199458262476
 20
-381.7867420012408
 10
730.2199458262476
 20
-381.7867420012408
 10
744.964771621122
 20
-381.7867420012408
 10
744.964771621122
 20
-381.7867420012408
 10
746.2914996535874
 20
-381.7867420012408
 10
746.8431262901722
 20
-383.4844742193618
 10
745.7697807649965
 20
-384.264305390665
 10
745.7697807649965
 20
-384.264305390665
 10
733.840966117863
 20
-392.9310965404929
 10
733.840966117863
 20
-392.9310965404929
 10
733.3609514063173
 20
-393.2798476424978
 10
733.1600938009833
 20
-393.8980237877913
 10
733.3434431056921
 20
-394.4623149244362
 10
733.3434431056921
 20
-394.4623149244362
 10
737.8998448553975
 20
-408.4854775782624
 10
737.8998448553975
 20
-408.4854775782624
 10
738.3098263643406
 20
-409.7472709188987
 10
736.8656490806316
 20
-410.7965271334979
 10
735.7923035554486
 20
-410.0166959622111
 10
735.7923035554486
 20
-410.0166959622111
 10
723.8634889082969
 20
-401.3499048123704
 10
723.8634889082969
 20
-401.3499048123704
 10
723.3834741967803
 20
-401.0011537103746
 10
722.7334853320572
 20
-401.0011537103746
 10
722.2534706205442
 20
-401.3499048123704
 10
722.2534706205442
 20
-401.3499048123704
 10
710.3246559734107
 20
-410.0166959622111
 10
710.3246559734107
 20
-410.0166959622111
 10
709.2513104482241
 20
-410.7965271334979
 10
707.8071331645042
 20
-409.7472709188987
 10
708.2171146734654
 20
-408.4854775782624
 10
708.2171146734654
 20
-408.4854775782624
 10
712.7735164231635
 20
-394.4623149244362
 10
712.7735164231635
 20
-394.4623149244362
 10
712.9568657278724
 20
-393.8980237877913
 10
712.7560081225201
 20
-393.2798476424978
 10
712.2759934109927
 20
-392.9310965404929
 10
712.2759934109927
 20
-392.9310965404929
 10
700.3471787638482
 20
-384.264305390665
 10
700.3471787638482
 20
-384.264305390665
 10
699.2738332386689
 20
-383.4844742193618
 10
699.8254598752719
 20
-381.7867420012408
 10
701.1521879077336
 20
-381.7867420012408
 10
701.1521879077336
 20
-381.7867420012408
 10
715.8970137025826
 20
-381.7867420012408
 10
715.8970137025826
 20
-381.7867420012408
 10
716.4903445162381
 20
-381.7867420012408
 10
717.0161965539628
 20
-381.4046881324102
 10
717.1995458586462
 20
-380.8403969957617
 10
717.1995458586462
 20
-380.8403969957617
 10
721.7559476083625
 20
-366.8172343419301
 10
721.7559476083625
 20
-366.8172343419301
 10
722.1659291173055
 20
-365.5554410012955
 10
723.9510304115502
 20
-365.5554410012955
 10
724.3610119204859
 20
-366.8172343419301
 97
        0
 97
        0
 75
     2
 76
     1
 98
        0
  0
SPLINE
  5
E7
330
DD
100
AcDbEntity
  8
Layer 1
370
     0
100
AcDbSpline
210
0.0
220
0.0
230
1.0
 70
    11
 71
     3
 72
    65
 73
    61
 74
     0
 42
0.0000000001
 43
0.0000000001
 12
1.0
 22
0.0
 32
0.0
 13
1.0
 23
0.0
 33
0.0
 40
0.0
 40
0.0
 40
0.0
 40
0.0
 40
1.0
 40
1.0
 40
1.0
 40
2.0
 40
2.0
 40
2.0
 40
3.0
 40
3.0
 40
3.0
 40
4.0
 40
4.0
 40
4.0
 40
5.0
 40
5.0
 40
5.0
 40
6.0
 40
6.0
 40
6.0
 40
7.0
 40
7.0
 40
7.0
 40
8.0
 40
8.0
 40
8.0
 40
9.0
 40
9.0
 40
9.0
 40
10.0
 40
10.0
 40
10.0
 40
11.0
 40
11.0
 40
11.0
 40
12.0
 40
12.0
 40
12.0
 40
13.0
 40
13.0
 40
13.0
 40
14.0
 40
14.0
 40
14.0
 40
15.0
 40
15.0
 40
15.0
 40
16.0
 40
16.0
 40
16.0
 40
17.0
 40
17.0
 40
17.0
 40
18.0
 40
18.0
 40
18.0
 40
19.0
 40
19.0
 40
19.0
 40
20.0
 40
20.0
 40
20.0
 40
20.0
 10
632.8317720382693
 20
-366.8172343419301
 30
0.0
 10
632.8317720382693
 20
-366.8172343419301
 30
0.0
 10
637.3881737879819
 20
-380.8403969957617
 30
0.0
 10
637.3881737879819
 20
-380.8403969957617
 30
0.0
 10
637.5715230926908
 20
-381.4046881324102
 30
0.0
 10
638.09737513039
 20
-381.7867420012408
 30
0.0
 10
638.6907059440455
 20
-381.7867420012408
 30
0.0
 10
638.6907059440455
 20
-381.7867420012408
 30
0.0
 10
653.4355317389054
 20
-381.7867420012408
 30
0.0
 10
653.4355317389054
 20
-381.7867420012408
 30
0.0
 10
654.7622597713707
 20
-381.7867420012408
 30
0.0
 10
655.3138864079665
 20
-383.4844742193618
 30
0.0
 10
654.2405408827944
 20
-384.264305390665
 30
0.0
 10
654.2405408827944
 20
-384.264305390665
 30
0.0
 10
642.3117262356463
 20
-392.9310965404929
 30
0.0
 10
642.3117262356463
 20
-392.9310965404929
 30
0.0
 10
641.8317115241189
 20
-393.2798476424978
 30
0.0
 10
641.6308539187667
 20
-393.8980237877913
 30
0.0
 10
641.8142032234755
 20
-394.4623149244362
 30
0.0
 10
641.8142032234755
 20
-394.4623149244362
 30
0.0
 10
646.3706049731882
 20
-408.4854775782624
 30
0.0
 10
646.3706049731882
 20
-408.4854775782624
 30
0.0
 10
646.7805864821239
 20
-409.7472709188987
 30
0.0
 10
645.3364091984149
 20
-410.7965271334979
 30
0.0
 10
644.263063673232
 20
-410.0166959622111
 30
0.0
 10
644.263063673232
 20
-410.0166959622111
 30
0.0
 10
632.3342490260948
 20
-401.3499048123704
 30
0.0
 10
632.3342490260948
 20
-401.3499048123704
 30
0.0
 10
631.8542343145818
 20
-401.0011537103746
 30
0.0
 10
631.2042454498587
 20
-401.0011537103746
 30
0.0
 10
630.7242307383276
 20
-401.3499048123704
 30
0.0
 10
630.7242307383276
 20
-401.3499048123704
 30
0.0
 10
618.7954160911904
 20
-410.0166959622111
 30
0.0
 10
618.7954160911904
 20
-410.0166959622111
 30
0.0
 10
617.7220705660147
 20
-410.7965271334979
 30
0.0
 10
616.2778932822876
 20
-409.7472709188987
 30
0.0
 10
616.687874791256
 20
-408.4854775782624
 30
0.0
 10
616.687874791256
 20
-408.4854775782624
 30
0.0
 10
621.2442765409651
 20
-394.4623149244362
 30
0.0
 10
621.2442765409651
 20
-394.4623149244362
 30
0.0
 10
621.4276258456557
 20
-393.8980237877913
 30
0.0
 10
621.2267682403035
 20
-393.2798476424978
 30
0.0
 10
620.7467535287651
 20
-392.9310965404929
 30
0.0
 10
620.7467535287651
 20
-392.9310965404929
 30
0.0
 10
608.8179388816425
 20
-384.264305390665
 30
0.0
 10
608.8179388816425
 20
-384.264305390665
 30
0.0
 10
607.7445933564559
 20
-383.4844742193618
 30
0.0
 10
608.2962199930516
 20
-381.7867420012408
 30
0.0
 10
609.6229480255315
 20
-381.7867420012408
 30
0.0
 10
609.6229480255315
 20
-381.7867420012408
 30
0.0
 10
624.3677738203769
 20
-381.7867420012408
 30
0.0
 10
624.3677738203769
 20
-381.7867420012408
 30
0.0
 10
624.9611046340178
 20
-381.7867420012408
 30
0.0
 10
625.4869566717462
 20
-381.4046881324102
 30
0.0
 10
625.6703059764404
 20
-380.8403969957617
 30
0.0
 10
625.6703059764404
 20
-380.8403969957617
 30
0.0
 10
630.2267077261531
 20
-366.8172343419301
 30
0.0
 10
630.2267077261531
 20
-366.8172343419301
 30
0.0
 10
630.6366892350889
 20
-365.5554410012955
 30
0.0
 10
632.4217905293335
 20
-365.5554410012955
 30
0.0
 10
632.8317720382693
 20
-366.8172343419301
 30
0.0
  0
HATCH
  5
E8
330
DD
100
AcDbEntity
  8
Layer 1
 62
    22
420
 13517612
100
AcDbHatch
 10
0.0
 20
0.0
 30
0.0
210
0.0
220
0.0
230
1.0
  2
SOLID
 70
     1
 71
     0
 91
        1
 92
        1
 93
        1
 72
     4
 94
        3
 73
     0
 74
     1
 95
       65
 96
       61
 40
0.0
 40
0.0
 40
0.0
 40
0.0
 40
1.0
 40
1.0
 40
1.0
 40
2.0
 40
2.0
 40
2.0
 40
3.0
 40
3.0
 40
3.0
 40
4.0
 40
4.0
 40
4.0
 40
5.0
 40
5.0
 40
5.0
 40
6.0
 40
6.0
 40
6.0
 40
7.0
 40
7.0
 40
7.0
 40
8.0
 40
8.0
 40
8.0
 40
9.0
 40
9.0
 40
9.0
 40
10.0
 40
10.0
 40
10.0
 40
11.0
 40
11.0
 40
11.0
 40
12.0
 40
12.0
 40
12.0
 40
13.0
 40
13.0
 40
13.0
 40
14.0
 40
14.0
 40
14.0
 40
15.0
 40
15.0
 40
15.0
 40
16.0
 40
16.0
 40
16.0
 40
17.0
 40
17.0
 40
17.0
 40
18.0
 40
18.0
 40
18.0
 40
19.0
 40
19.0
 40
19.0
 40
20.0
 40
20.0
 40
20.0
 40
20.0
 10
632.8317720382693
 20
-366.8172343419301
 10
632.8317720382693
 20
-366.8172343419301
 10
637.3881737879819
 20
-380.8403969957617
 10
637.3881737879819
 20
-380.8403969957617
 10
637.5715230926908
 20
-381.4046881324102
 10
638.09737513039
 20
-381.7867420012408
 10
638.6907059440455
 20
-381.7867420012408
 10
638.6907059440455
 20
-381.7867420012408
 10
653.4355317389054
 20
-381.7867420012408
 10
653.4355317389054
 20
-381.7867420012408
 10
654.7622597713707
 20
-381.7867420012408
 10
655.3138864079665
 20
-383.4844742193618
 10
654.2405408827944
 20
-384.264305390665
 10
654.2405408827944
 20
-384.264305390665
 10
642.3117262356463
 20
-392.9310965404929
 10
642.3117262356463
 20
-392.9310965404929
 10
641.8317115241189
 20
-393.2798476424978
 10
641.6308539187667
 20
-393.8980237877913
 10
641.8142032234755
 20
-394.4623149244362
 10
641.8142032234755
 20
-394.4623149244362
 10
646.3706049731882
 20
-408.4854775782624
 10
646.3706049731882
 20
-408.4854775782624
 10
646.7805864821239
 20
-409.7472709188987
 10
645.3364091984149
 20
-410.7965271334979
 10
644.263063673232
 20
-410.0166959622111
 10
644.263063673232
 20
-410.0166959622111
 10
632.3342490260948
 20
-401.3499048123704
 10
632.3342490260948
 20
-401.3499048123704
 10
631.8542343145818
 20
-401.0011537103746
 10
631.2042454498587
 20
-401.0011537103746
 10
630.7242307383276
 20
-401.3499048123704
 10
630.7242307383276
 20
-401.3499048123704
 10
618.7954160911904
 20
-410.0166959622111
 10
618.7954160911904
 20
-410.0166959622111
 10
617.7220705660147
 20
-410.7965271334979
 10
616.2778932822876
 20
-409.7472709188987
 10
616.687874791256
 20
-408.4854775782624
 10
616.687874791256
 20
-408.4854775782624
 10
621.2442765409651
 20
-394.4623149244362
 10
621.2442765409651
 20
-394.4623149244362
 10
621.4276258456557
 20
-393.8980237877913
 10
621.2267682403035
 20
-393.2798476424978
 10
620.7467535287651
 20
-392.9310965404929
 10
620.7467535287651
 20
-392.9310965404929
 10
608.8179388816425
 20
-384.264305390665
 10
608.8179388816425
 20
-384.264305390665
 10
607.7445933564559
 20
-383.4844742193618
 10
608.2962199930516
 20
-381.7867420012408
 10
609.6229480255315
 20
-381.7867420012408
 10
609.6229480255315
 20
-381.7867420012408
 10
624.3677738203769
 20
-381.7867420012408
 10
624.3677738203769
 20
-381.7867420012408
 10
624.9611046340178
 20
-381.7867420012408
 10
625.4869566717462
 20
-381.4046881324102
 10
625.6703059764404
 20
-380.8403969957617
 10
625.6703059764404
 20
-380.8403969957617
 10
630.2267077261531
 20
-366.8172343419301
 10
630.2267077261531
 20
-366.8172343419301
 10
630.6366892350889
 20
-365.5554410012955
 10
632.4217905293335
 20
-365.5554410012955
 10
632.8317720382693
 20
-366.8172343419301
 97
        0
 97
        0
 75
     2
 76
     1
 98
        0
  0
SPLINE
  5
E9
330
DD
100
AcDbEntity
  8
Layer 1
370
     0
100
AcDbSpline
210
0.0
220
0.0
230
1.0
 70
    11
 71
     3
 72
    65
 73
    61
 74
     0
 42
0.0000000001
 43
0.0000000001
 12
1.0
 22
0.0
 32
0.0
 13
1.0
 23
0.0
 33
0.0
 40
0.0
 40
0.0
 40
0.0
 40
0.0
 40
1.0
 40
1.0
 40
1.0
 40
2.0
 40
2.0
 40
2.0
 40
3.0
 40
3.0
 40
3.0
 40
4.0
 40
4.0
 40
4.0
 40
5.0
 40
5.0
 40
5.0
 40
6.0
 40
6.0
 40
6.0
 40
7.0
 40
7.0
 40
7.0
 40
8.0
 40
8.0
 40
8.0
 40
9.0
 40
9.0
 40
9.0
 40
10.0
 40
10.0
 40
10.0
 40
11.0
 40
11.0
 40
11.0
 40
12.0
 40
12.0
 40
12.0
 40
13.0
 40
13.0
 40
13.0
 40
14.0
 40
14.0
 40
14.0
 40
15.0
 40
15.0
 40
15.0
 40
16.0
 40
16.0
 40
16.0
 40
17.0
 40
17.0
 40
17.0
 40
18.0
 40
18.0
 40
18.0
 40
19.0
 40
19.0
 40
19.0
 40
20.0
 40
20.0
 40
20.0
 40
20.0
 10
541.3025321560599
 20
-366.8172343419301
 30
0.0
 10
541.3025321560599
 20
-366.8172343419301
 30
0.0
 10
545.8589339057689
 20
-380.8403969957617
 30
0.0
 10
545.8589339057689
 20
-380.8403969957617
 30
0.0
 10
546.0422832104741
 20
-381.4046881324102
 30
0.0
 10
546.5681352481806
 20
-381.7867420012408
 30
0.0
 10
547.1614660618325
 20
-381.7867420012408
 30
0.0
 10
547.1614660618325
 20
-381.7867420012408
 30
0.0
 10
561.9062918566888
 20
-381.7867420012408
 30
0.0
 10
561.9062918566888
 20
-381.7867420012408
 30
0.0
 10
563.2330198891505
 20
-381.7867420012408
 30
0.0
 10
563.7846465257608
 20
-383.4844742193618
 30
0.0
 10
562.7113010005742
 20
-384.264305390665
 30
0.0
 10
562.7113010005742
 20
-384.264305390665
 30
0.0
 10
550.7824863534297
 20
-392.9310965404929
 30
0.0
 10
550.7824863534297
 20
-392.9310965404929
 30
0.0
 10
550.3024716419095
 20
-393.2798476424978
 30
0.0
 10
550.1016140365609
 20
-393.8980237877913
 30
0.0
 10
550.2849633412698
 20
-394.4623149244362
 30
0.0
 10
550.2849633412698
 20
-394.4623149244362
 30
0.0
 10
554.8413650909679
 20
-408.4854775782624
 30
0.0
 10
554.8413650909679
 20
-408.4854775782624
 30
0.0
 10
555.2513465999109
 20
-409.7472709188987
 30
0.0
 10
553.8071693161983
 20
-410.7965271334979
 30
0.0
 10
552.7338237910117
 20
-410.0166959622111
 30
0.0
 10
552.7338237910117
 20
-410.0166959622111
 30
0.0
 10
540.8050091438918
 20
-401.3499048123704
 30
0.0
 10
540.8050091438918
 20
-401.3499048123704
 30
0.0
 10
540.3249944323643
 20
-401.0011537103746
 30
0.0
 10
539.6750055676421
 20
-401.0011537103746
 30
0.0
 10
539.1949908561146
 20
-401.3499048123704
 30
0.0
 10
539.1949908561146
 20
-401.3499048123704
 30
0.0
 10
527.2661762089747
 20
-410.0166959622111
 30
0.0
 10
527.2661762089747
 20
-410.0166959622111
 30
0.0
 10
526.192830683799
 20
-410.7965271334979
 30
0.0
 10
524.7486534000827
 20
-409.7472709188987
 30
0.0
 10
525.1586349090312
 20
-408.4854775782624
 30
0.0
 10
525.1586349090312
 20
-408.4854775782624
 30
0.0
 10
529.7150366587475
 20
-394.4623149244362
 30
0.0
 10
529.7150366587475
 20
-394.4623149244362
 30
0.0
 10
529.8983859634382
 20
-393.8980237877913
 30
0.0
 10
529.6975283580987
 20
-393.2798476424978
 30
0.0
 10
529.2175136465676
 20
-392.9310965404929
 30
0.0
 10
529.2175136465676
 20
-392.9310965404929
 30
0.0
 10
517.2886989994304
 20
-384.264305390665
 30
0.0
 10
517.2886989994304
 20
-384.264305390665
 30
0.0
 10
516.2153534742456
 20
-383.4844742193618
 30
0.0
 10
516.7669801108477
 20
-381.7867420012408
 30
0.0
 10
518.0937081433185
 20
-381.7867420012408
 30
0.0
 10
518.0937081433185
 20
-381.7867420012408
 30
0.0
 10
532.838533938163
 20
-381.7867420012408
 30
0.0
 10
532.838533938163
 20
-381.7867420012408
 30
0.0
 10
533.4318647518267
 20
-381.7867420012408
 30
0.0
 10
533.9577167895277
 20
-381.4046881324102
 30
0.0
 10
534.1410660942365
 20
-380.8403969957617
 30
0.0
 10
534.1410660942365
 20
-380.8403969957617
 30
0.0
 10
538.6974678439474
 20
-366.8172343419301
 30
0.0
 10
538.6974678439474
 20
-366.8172343419301
 30
0.0
 10
539.1074493528895
 20
-365.5554410012955
 30
0.0
 10
540.892550647116
 20
-365.5554410012955
 30
0.0
 10
541.3025321560599
 20
-366.8172343419301
 30
0.0
  0
HATCH
  5
EA
330
DD
100
AcDbEntity
  8
Layer 1
 62
    22
420
 13517612
100
AcDbHatch
 10
0.0
 20
0.0
 30
0.0
210
0.0
220
0.0
230
1.0
  2
SOLID
 70
     1
 71
     0
 91
        1
 92
        1
 93
        1
 72
     4
 94
        3
 73
     0
 74
     1
 95
       65
 96
       61
 40
0.0
 40
0.0
 40
0.0
 40
0.0
 40
1.0
 40
1.0
 40
1.0
 40
2.0
 40
2.0
 40
2.0
 40
3.0
 40
3.0
 40
3.0
 40
4.0
 40
4.0
 40
4.0
 40
5.0
 40
5.0
 40
5.0
 40
6.0
 40
6.0
 40
6.0
 40
7.0
 40
7.0
 40
7.0
 40
8.0
 40
8.0
 40
8.0
 40
9.0
 40
9.0
 40
9.0
 40
10.0
 40
10.0
 40
10.0
 40
11.0
 40
11.0
 40
11.0
 40
12.0
 40
12.0
 40
12.0
 40
13.0
 40
13.0
 40
13.0
 40
14.0
 40
14.0
 40
14.0
 40
15.0
 40
15.0
 40
15.0
 40
16.0
 40
16.0
 40
16.0
 40
17.0
 40
17.0
 40
17.0
 40
18.0
 40
18.0
 40
18.0
 40
19.0
 40
19.0
 40
19.0
 40
20.0
 40
20.0
 40
20.0
 40
20.0
 10
541.3025321560599
 20
-366.8172343419301
 10
541.3025321560599
 20
-366.8172343419301
 10
545.8589339057689
 20
-380.8403969957617
 10
545.8589339057689
 20
-380.8403969957617
 10
546.0422832104741
 20
-381.4046881324102
 10
546.5681352481806
 20
-381.7867420012408
 10
547.1614660618325
 20
-381.7867420012408
 10
547.1614660618325
 20
-381.7867420012408
 10
561.9062918566888
 20
-381.7867420012408
 10
561.9062918566888
 20
-381.7867420012408
 10
563.2330198891505
 20
-381.7867420012408
 10
563.7846465257608
 20
-383.4844742193618
 10
562.7113010005742
 20
-384.264305390665
 10
562.7113010005742
 20
-384.264305390665
 10
550.7824863534297
 20
-392.9310965404929
 10
550.7824863534297
 20
-392.9310965404929
 10
550.3024716419095
 20
-393.2798476424978
 10
550.1016140365609
 20
-393.8980237877913
 10
550.2849633412698
 20
-394.4623149244362
 10
550.2849633412698
 20
-394.4623149244362
 10
554.8413650909679
 20
-408.4854775782624
 10
554.8413650909679
 20
-408.4854775782624
 10
555.2513465999109
 20
-409.7472709188987
 10
553.8071693161983
 20
-410.7965271334979
 10
552.7338237910117
 20
-410.0166959622111
 10
552.7338237910117
 20
-410.0166959622111
 10
540.8050091438918
 20
-401.3499048123704
 10
540.8050091438918
 20
-401.3499048123704
 10
540.3249944323643
 20
-401.0011537103746
 10
539.6750055676421
 20
-401.0011537103746
 10
539.1949908561146
 20
-401.3499048123704
 10
539.1949908561146
 20
-401.3499048123704
 10
527.2661762089747
 20
-410.0166959622111
 10
527.2661762089747
 20
-410.0166959622111
 10
526.192830683799
 20
-410.7965271334979
 10
524.7486534000827
 20
-409.7472709188987
 10
525.1586349090312
 20
-408.4854775782624
 10
525.1586349090312
 20
-408.4854775782624
 10
529.7150366587475
 20
-394.4623149244362
 10
529.7150366587475
 20
-394.4623149244362
 10
529.8983859634382
 20
-393.8980237877913
 10
529.6975283580987
 20
-393.2798476424978
 10
529.2175136465676
 20
-392.9310965404929
 10
529.2175136465676
 20
-392.9310965404929
 10
517.2886989994304
 20
-384.264305390665
 10
517.2886989994304
 20
-384.264305390665
 10
516.2153534742456
 20
-383.4844742193618
 10
516.7669801108477
 20
-381.7867420012408
 10
518.0937081433185
 20
-381.7867420012408
 10
518.0937081433185
 20
-381.7867420012408
 10
532.838533938163
 20
-381.7867420012408
 10
532.838533938163
 20
-381.7867420012408
 10
533.4318647518267
 20
-381.7867420012408
 10
533.9577167895277
 20
-381.4046881324102
 10
534.1410660942365
 20
-380.8403969957617
 10
534.1410660942365
 20
-380.8403969957617
 10
538.6974678439474
 20
-366.8172343419301
 10
538.6974678439474
 20
-366.8172343419301
 10
539.1074493528895
 20
-365.5554410012955
 10
540.892550647116
 20
-365.5554410012955
 10
541.3025321560599
 20
-366.8172343419301
 97
        0
 97
        0
 75
     2
 76
     1
 98
        0
  0
SPLINE
  5
EB
330
DD
100
AcDbEntity
  8
Layer 1
370
     0
100
AcDbSpline
210
0.0
220
0.0
230
1.0
 70
    11
 71
     3
 72
    65
 73
    61
 74
     0
 42
0.0000000001
 43
0.0000000001
 12
1.0
 22
0.0
 32
0.0
 13
1.0
 23
0.0
 33
0.0
 40
0.0
 40
0.0
 40
0.0
 40
0.0
 40
1.0
 40
1.0
 40
1.0
 40
2.0
 40
2.0
 40
2.0
 40
3.0
 40
3.0
 40
3.0
 40
4.0
 40
4.0
 40
4.0
 40
5.0
 40
5.0
 40
5.0
 40
6.0
 40
6.0
 40
6.0
 40
7.0
 40
7.0
 40
7.0
 40
8.0
 40
8.0
 40
8.0
 40
9.0
 40
9.0
 40
9.0
 40
10.0
 40
10.0
 40
10.0
 40
11.0
 40
11.0
 40
11.0
 40
12.0
 40
12.0
 40
12.0
 40
13.0
 40
13.0
 40
13.0
 40
14.0
 40
14.0
 40
14.0
 40
15.0
 40
15.0
 40
15.0
 40
16.0
 40
16.0
 40
16.0
 40
17.0
 40
17.0
 40
17.0
 40
18.0
 40
18.0
 40
18.0
 40
19.0
 40
19.0
 40
19.0
 40
20.0
 40
20.0
 40
20.0
 40
20.0
 10
449.7732922738505
 20
-366.8172343419301
 30
0.0
 10
449.7732922738505
 20
-366.8172343419301
 30
0.0
 10
454.3296940235641
 20
-380.8403969957617
 30
0.0
 10
454.3296940235641
 20
-380.8403969957617
 30
0.0
 10
454.5130433282611
 20
-381.4046881324102
 30
0.0
 10
455.0388953659622
 20
-381.7867420012408
 30
0.0
 10
455.6322261796231
 20
-381.7867420012408
 30
0.0
 10
455.6322261796231
 20
-381.7867420012408
 30
0.0
 10
470.3770519744767
 20
-381.7867420012408
 30
0.0
 10
470.3770519744767
 20
-381.7867420012408
 30
0.0
 10
471.7037800069529
 20
-381.7867420012408
 30
0.0
 10
472.2554066435432
 20
-383.4844742193618
 30
0.0
 10
471.1820611183584
 20
-384.264305390665
 30
0.0
 10
471.1820611183584
 20
-384.264305390665
 30
0.0
 10
459.2532464712358
 20
-392.9310965404929
 30
0.0
 10
459.2532464712358
 20
-392.9310965404929
 30
0.0
 10
458.7732317596965
 20
-393.2798476424978
 30
0.0
 10
458.5723741543497
 20
-393.8980237877913
 30
0.0
 10
458.7557234590531
 20
-394.4623149244362
 30
0.0
 10
458.7557234590531
 20
-394.4623149244362
 30
0.0
 10
463.3121252087576
 20
-408.4854775782624
 30
0.0
 10
463.3121252087576
 20
-408.4854775782624
 30
0.0
 10
463.7221067177088
 20
-409.7472709188987
 30
0.0
 10
462.2779294339871
 20
-410.7965271334979
 30
0.0
 10
461.2045839088141
 20
-410.0166959622111
 30
0.0
 10
461.2045839088141
 20
-410.0166959622111
 30
0.0
 10
449.2757692616733
 20
-401.3499048123704
 30
0.0
 10
449.2757692616733
 20
-401.3499048123704
 30
0.0
 10
448.7957545501458
 20
-401.0011537103746
 30
0.0
 10
448.1457656854254
 20
-401.0011537103746
 30
0.0
 10
447.6657509739007
 20
-401.3499048123704
 30
0.0
 10
447.6657509739007
 20
-401.3499048123704
 30
0.0
 10
435.7369363267726
 20
-410.0166959622111
 30
0.0
 10
435.7369363267726
 20
-410.0166959622111
 30
0.0
 10
434.6635908015814
 20
-410.7965271334979
 30
0.0
 10
433.2194135178715
 20
-409.7472709188987
 30
0.0
 10
433.6293950268291
 20
-408.4854775782624
 30
0.0
 10
433.6293950268291
 20
-408.4854775782624
 30
0.0
 10
438.1857967765309
 20
-394.4623149244362
 30
0.0
 10
438.1857967765309
 20
-394.4623149244362
 30
0.0
 10
438.3691460812215
 20
-393.8980237877913
 30
0.0
 10
438.1682884758811
 20
-393.2798476424978
 30
0.0
 10
437.6882737643509
 20
-392.9310965404929
 30
0.0
 10
437.6882737643509
 20
-392.9310965404929
 30
0.0
 10
425.7594591172128
 20
-384.264305390665
 30
0.0
 10
425.7594591172128
 20
-384.264305390665
 30
0.0
 10
424.6861135920371
 20
-383.4844742193618
 30
0.0
 10
425.2377402286338
 20
-381.7867420012408
 30
0.0
 10
426.564468261101
 20
-381.7867420012408
 30
0.0
 10
426.564468261101
 20
-381.7867420012408
 30
0.0
 10
441.3092940559518
 20
-381.7867420012408
 30
0.0
 10
441.3092940559518
 20
-381.7867420012408
 30
0.0
 10
441.9026248696091
 20
-381.7867420012408
 30
0.0
 10
442.4284769073101
 20
-381.4046881324102
 30
0.0
 10
442.6118262120199
 20
-380.8403969957617
 30
0.0
 10
442.6118262120199
 20
-380.8403969957617
 30
0.0
 10
447.1682279617298
 20
-366.8172343419301
 30
0.0
 10
447.1682279617298
 20
-366.8172343419301
 30
0.0
 10
447.5782094706719
 20
-365.5554410012955
 30
0.0
 10
449.3633107648993
 20
-365.5554410012955
 30
0.0
 10
449.7732922738505
 20
-366.8172343419301
 30
0.0
  0
HATCH
  5
EC
330
DD
100
AcDbEntity
  8
Layer 1
 62
    22
420
 13517612
100
AcDbHatch
 10
0.0
 20
0.0
 30
0.0
210
0.0
220
0.0
230
1.0
  2
SOLID
 70
     1
 71
     0
 91
        1
 92
        1
 93
        1
 72
     4
 94
        3
 73
     0
 74
     1
 95
       65
 96
       61
 40
0.0
 40
0.0
 40
0.0
 40
0.0
 40
1.0
 40
1.0
 40
1.0
 40
2.0
 40
2.0
 40
2.0
 40
3.0
 40
3.0
 40
3.0
 40
4.0
 40
4.0
 40
4.0
 40
5.0
 40
5.0
 40
5.0
 40
6.0
 40
6.0
 40
6.0
 40
7.0
 40
7.0
 40
7.0
 40
8.0
 40
8.0
 40
8.0
 40
9.0
 40
9.0
 40
9.0
 40
10.0
 40
10.0
 40
10.0
 40
11.0
 40
11.0
 40
11.0
 40
12.0
 40
12.0
 40
12.0
 40
13.0
 40
13.0
 40
13.0
 40
14.0
 40
14.0
 40
14.0
 40
15.0
 40
15.0
 40
15.0
 40
16.0
 40
16.0
 40
16.0
 40
17.0
 40
17.0
 40
17.0
 40
18.0
 40
18.0
 40
18.0
 40
19.0
 40
19.0
 40
19.0
 40
20.0
 40
20.0
 40
20.0
 40
20.0
 10
449.7732922738505
 20
-366.8172343419301
 10
449.7732922738505
 20
-366.8172343419301
 10
454.3296940235641
 20
-380.8403969957617
 10
454.3296940235641
 20
-380.8403969957617
 10
454.5130433282611
 20
-381.4046881324102
 10
455.0388953659622
 20
-381.7867420012408
 10
455.6322261796231
 20
-381.7867420012408
 10
455.6322261796231
 20
-381.7867420012408
 10
470.3770519744767
 20
-381.7867420012408
 10
470.3770519744767
 20
-381.7867420012408
 10
471.7037800069529
 20
-381.7867420012408
 10
472.2554066435432
 20
-383.4844742193618
 10
471.1820611183584
 20
-384.264305390665
 10
471.1820611183584
 20
-384.264305390665
 10
459.2532464712358
 20
-392.9310965404929
 10
459.2532464712358
 20
-392.9310965404929
 10
458.7732317596965
 20
-393.2798476424978
 10
458.5723741543497
 20
-393.8980237877913
 10
458.7557234590531
 20
-394.4623149244362
 10
458.7557234590531
 20
-394.4623149244362
 10
463.3121252087576
 20
-408.4854775782624
 10
463.3121252087576
 20
-408.4854775782624
 10
463.7221067177088
 20
-409.7472709188987
 10
462.2779294339871
 20
-410.7965271334979
 10
461.2045839088141
 20
-410.0166959622111
 10
461.2045839088141
 20
-410.0166959622111
 10
449.2757692616733
 20
-401.3499048123704
 10
449.2757692616733
 20
-401.3499048123704
 10
448.7957545501458
 20
-401.0011537103746
 10
448.1457656854254
 20
-401.0011537103746
 10
447.6657509739007
 20
-401.3499048123704
 10
447.6657509739007
 20
-401.3499048123704
 10
435.7369363267726
 20
-410.0166959622111
 10
435.7369363267726
 20
-410.0166959622111
 10
434.6635908015814
 20
-410.7965271334979
 10
433.2194135178715
 20
-409.7472709188987
 10
433.6293950268291
 20
-408.4854775782624
 10
433.6293950268291
 20
-408.4854775782624
 10
438.1857967765309
 20
-394.4623149244362
 10
438.1857967765309
 20
-394.4623149244362
 10
438.3691460812215
 20
-393.8980237877913
 10
438.1682884758811
 20
-393.2798476424978
 10
437.6882737643509
 20
-392.9310965404929
 10
437.6882737643509
 20
-392.9310965404929
 10
425.7594591172128
 20
-384.264305390665
 10
425.7594591172128
 20
-384.264305390665
 10
424.6861135920371
 20
-383.4844742193618
 10
425.2377402286338
 20
-381.7867420012408
 10
426.564468261101
 20
-381.7867420012408
 10
426.564468261101
 20
-381.7867420012408
 10
441.3092940559518
 20
-381.7867420012408
 10
441.3092940559518
 20
-381.7867420012408
 10
441.9026248696091
 20
-381.7867420012408
 10
442.4284769073101
 20
-381.4046881324102
 10
442.6118262120199
 20
-380.8403969957617
 10
442.6118262120199
 20
-380.8403969957617
 10
447.1682279617298
 20
-366.8172343419301
 10
447.1682279617298
 20
-366.8172343419301
 10
447.5782094706719
 20
-365.5554410012955
 10
449.3633107648993
 20
-365.5554410012955
 10
449.7732922738505
 20
-366.8172343419301
 97
        0
 97
        0
 75
     2
 76
     1
 98
        0
  0
SPLINE
  5
ED
330
DD
100
AcDbEntity
  8
Layer 1
370
     0
100
AcDbSpline
210
0.0
220
0.0
230
1.0
 70
    11
 71
     3
 72
    65
 73
    61
 74
     0
 42
0.0000000001
 43
0.0000000001
 12
1.0
 22
0.0
 32
0.0
 13
1.0
 23
0.0
 33
0.0
 40
0.0
 40
0.0
 40
0.0
 40
0.0
 40
1.0
 40
1.0
 40
1.0
 40
2.0
 40
2.0
 40
2.0
 40
3.0
 40
3.0
 40
3.0
 40
4.0
 40
4.0
 40
4.0
 40
5.0
 40
5.0
 40
5.0
 40
6.0
 40
6.0
 40
6.0
 40
7.0
 40
7.0
 40
7.0
 40
8.0
 40
8.0
 40
8.0
 40
9.0
 40
9.0
 40
9.0
 40
10.0
 40
10.0
 40
10.0
 40
11.0
 40
11.0
 40
11.0
 40
12.0
 40
12.0
 40
12.0
 40
13.0
 40
13.0
 40
13.0
 40
14.0
 40
14.0
 40
14.0
 40
15.0
 40
15.0
 40
15.0
 40
16.0
 40
16.0
 40
16.0
 40
17.0
 40
17.0
 40
17.0
 40
18.0
 40
18.0
 40
18.0
 40
19.0
 40
19.0
 40
19.0
 40
20.0
 40
20.0
 40
20.0
 40
20.0
 10
358.244052391633
 20
-366.8172343419301
 30
0.0
 10
358.244052391633
 20
-366.8172343419301
 30
0.0
 10
362.8004541413502
 20
-380.8403969957617
 30
0.0
 10
362.8004541413502
 20
-380.8403969957617
 30
0.0
 10
362.9838034460436
 20
-381.4046881324102
 30
0.0
 10
363.5096554837601
 20
-381.7867420012408
 30
0.0
 10
364.1029862974056
 20
-381.7867420012408
 30
0.0
 10
364.1029862974056
 20
-381.7867420012408
 30
0.0
 10
378.8478120922618
 20
-381.7867420012408
 30
0.0
 10
378.8478120922618
 20
-381.7867420012408
 30
0.0
 10
380.1745401247354
 20
-381.7867420012408
 30
0.0
 10
380.726166761332
 20
-383.4844742193618
 30
0.0
 10
379.6528212361472
 20
-384.264305390665
 30
0.0
 10
379.6528212361472
 20
-384.264305390665
 30
0.0
 10
367.7240065890192
 20
-392.9310965404929
 30
0.0
 10
367.7240065890192
 20
-392.9310965404929
 30
0.0
 10
367.2439918774789
 20
-393.2798476424978
 30
0.0
 10
367.0431342721331
 20
-393.8980237877913
 30
0.0
 10
367.2264835768356
 20
-394.4623149244362
 30
0.0
 10
367.2264835768356
 20
-394.4623149244362
 30
0.0
 10
371.7828853265528
 20
-408.4854775782624
 30
0.0
 10
371.7828853265528
 20
-408.4854775782624
 30
0.0
 10
372.1928668354922
 20
-409.7472709188987
 30
0.0
 10
370.7486895517823
 20
-410.7965271334979
 30
0.0
 10
369.6753440265966
 20
-410.0166959622111
 30
0.0
 10
369.6753440265966
 20
-410.0166959622111
 30
0.0
 10
357.7465293794567
 20
-401.3499048123704
 30
0.0
 10
357.7465293794567
 20
-401.3499048123704
 30
0.0
 10
357.2665146679292
 20
-401.0011537103746
 30
0.0
 10
356.6165258032142
 20
-401.0011537103746
 30
0.0
 10
356.1365110916895
 20
-401.3499048123704
 30
0.0
 10
356.1365110916895
 20
-401.3499048123704
 30
0.0
 10
344.207696444555
 20
-410.0166959622111
 30
0.0
 10
344.207696444555
 20
-410.0166959622111
 30
0.0
 10
343.1343509193703
 20
-410.7965271334979
 30
0.0
 10
341.6901736356604
 20
-409.7472709188987
 30
0.0
 10
342.1001551446116
 20
-408.4854775782624
 30
0.0
 10
342.1001551446116
 20
-408.4854775782624
 30
0.0
 10
346.6565568943161
 20
-394.4623149244362
 30
0.0
 10
346.6565568943161
 20
-394.4623149244362
 30
0.0
 10
346.8399061990222
 20
-393.8980237877913
 30
0.0
 10
346.6390485936763
 20
-393.2798476424978
 30
0.0
 10
346.1590338821334
 20
-392.9310965404929
 30
0.0
 10
346.1590338821334
 20
-392.9310965404929
 30
0.0
 10
334.2302192349989
 20
-384.264305390665
 30
0.0
 10
334.2302192349989
 20
-384.264305390665
 30
0.0
 10
333.1568737098205
 20
-383.4844742193618
 30
0.0
 10
333.7085003464135
 20
-381.7867420012408
 30
0.0
 10
335.0352283788898
 20
-381.7867420012408
 30
0.0
 10
335.0352283788898
 20
-381.7867420012408
 30
0.0
 10
349.780054173747
 20
-381.7867420012408
 30
0.0
 10
349.780054173747
 20
-381.7867420012408
 30
0.0
 10
350.3733849873925
 20
-381.7867420012408
 30
0.0
 10
350.8992370250926
 20
-381.4046881324102
 30
0.0
 10
351.0825863298151
 20
-380.8403969957617
 30
0.0
 10
351.0825863298151
 20
-380.8403969957617
 30
0.0
 10
355.6389880795132
 20
-366.8172343419301
 30
0.0
 10
355.6389880795132
 20
-366.8172343419301
 30
0.0
 10
356.0489695884553
 20
-365.5554410012955
 30
0.0
 10
357.8340708827
 20
-365.5554410012955
 30
0.0
 10
358.244052391633
 20
-366.8172343419301
 30
0.0
  0
HATCH
  5
EE
330
DD
100
AcDbEntity
  8
Layer 1
 62
    22
420
 13517612
100
AcDbHatch
 10
0.0
 20
0.0
 30
0.0
210
0.0
220
0.0
230
1.0
  2
SOLID
 70
     1
 71
     0
 91
        1
 92
        1
 93
        1
 72
     4
 94
        3
 73
     0
 74
     1
 95
       65
 96
       61
 40
0.0
 40
0.0
 40
0.0
 40
0.0
 40
1.0
 40
1.0
 40
1.0
 40
2.0
 40
2.0
 40
2.0
 40
3.0
 40
3.0
 40
3.0
 40
4.0
 40
4.0
 40
4.0
 40
5.0
 40
5.0
 40
5.0
 40
6.0
 40
6.0
 40
6.0
 40
7.0
 40
7.0
 40
7.0
 40
8.0
 40
8.0
 40
8.0
 40
9.0
 40
9.0
 40
9.0
 40
10.0
 40
10.0
 40
10.0
 40
11.0
 40
11.0
 40
11.0
 40
12.0
 40
12.0
 40
12.0
 40
13.0
 40
13.0
 40
13.0
 40
14.0
 40
14.0
 40
14.0
 40
15.0
 40
15.0
 40
15.0
 40
16.0
 40
16.0
 40
16.0
 40
17.0
 40
17.0
 40
17.0
 40
18.0
 40
18.0
 40
18.0
 40
19.0
 40
19.0
 40
19.0
 40
20.0
 40
20.0
 40
20.0
 40
20.0
 10
358.244052391633
 20
-366.8172343419301
 10
358.244052391633
 20
-366.8172343419301
 10
362.8004541413502
 20
-380.8403969957617
 10
362.8004541413502
 20
-380.8403969957617
 10
362.9838034460436
 20
-381.4046881324102
 10
363.5096554837601
 20
-381.7867420012408
 10
364.1029862974056
 20
-381.7867420012408
 10
364.1029862974056
 20
-381.7867420012408
 10
378.8478120922618
 20
-381.7867420012408
 10
378.8478120922618
 20
-381.7867420012408
 10
380.1745401247354
 20
-381.7867420012408
 10
380.726166761332
 20
-383.4844742193618
 10
379.6528212361472
 20
-384.264305390665
 10
379.6528212361472
 20
-384.264305390665
 10
367.7240065890192
 20
-392.9310965404929
 10
367.7240065890192
 20
-392.9310965404929
 10
367.2439918774789
 20
-393.2798476424978
 10
367.0431342721331
 20
-393.8980237877913
 10
367.2264835768356
 20
-394.4623149244362
 10
367.2264835768356
 20
-394.4623149244362
 10
371.7828853265528
 20
-408.4854775782624
 10
371.7828853265528
 20
-408.4854775782624
 10
372.1928668354922
 20
-409.7472709188987
 10
370.7486895517823
 20
-410.7965271334979
 10
369.6753440265966
 20
-410.0166959622111
 10
369.6753440265966
 20
-410.0166959622111
 10
357.7465293794567
 20
-401.3499048123704
 10
357.7465293794567
 20
-401.3499048123704
 10
357.2665146679292
 20
-401.0011537103746
 10
356.6165258032142
 20
-401.0011537103746
 10
356.1365110916895
 20
-401.3499048123704
 10
356.1365110916895
 20
-401.3499048123704
 10
344.207696444555
 20
-410.0166959622111
 10
344.207696444555
 20
-410.0166959622111
 10
343.1343509193703
 20
-410.7965271334979
 10
341.6901736356604
 20
-409.7472709188987
 10
342.1001551446116
 20
-408.4854775782624
 10
342.1001551446116
 20
-408.4854775782624
 10
346.6565568943161
 20
-394.4623149244362
 10
346.6565568943161
 20
-394.4623149244362
 10
346.8399061990222
 20
-393.8980237877913
 10
346.6390485936763
 20
-393.2798476424978
 10
346.1590338821334
 20
-392.9310965404929
 10
346.1590338821334
 20
-392.9310965404929
 10
334.2302192349989
 20
-384.264305390665
 10
334.2302192349989
 20
-384.264305390665
 10
333.1568737098205
 20
-383.4844742193618
 10
333.7085003464135
 20
-381.7867420012408
 10
335.0352283788898
 20
-381.7867420012408
 10
335.0352283788898
 20
-381.7867420012408
 10
349.780054173747
 20
-381.7867420012408
 10
349.780054173747
 20
-381.7867420012408
 10
350.3733849873925
 20
-381.7867420012408
 10
350.8992370250926
 20
-381.4046881324102
 10
351.0825863298151
 20
-380.8403969957617
 10
351.0825863298151
 20
-380.8403969957617
 10
355.6389880795132
 20
-366.8172343419301
 10
355.6389880795132
 20
-366.8172343419301
 10
356.0489695884553
 20
-365.5554410012955
 10
357.8340708827
 20
-365.5554410012955
 10
358.244052391633
 20
-366.8172343419301
 97
        0
 97
        0
 75
     2
 76
     1
 98
        0
  0
SPLINE
  5
EF
330
DD
100
AcDbEntity
  8
Layer 1
370
     0
100
AcDbSpline
210
0.0
220
0.0
230
1.0
 70
    11
 71
     3
 72
    65
 73
    61
 74
     0
 42
0.0000000001
 43
0.0000000001
 12
1.0
 22
0.0
 32
0.0
 13
1.0
 23
0.0
 33
0.0
 40
0.0
 40
0.0
 40
0.0
 40
0.0
 40
1.0
 40
1.0
 40
1.0
 40
2.0
 40
2.0
 40
2.0
 40
3.0
 40
3.0
 40
3.0
 40
4.0
 40
4.0
 40
4.0
 40
5.0
 40
5.0
 40
5.0
 40
6.0
 40
6.0
 40
6.0
 40
7.0
 40
7.0
 40
7.0
 40
8.0
 40
8.0
 40
8.0
 40
9.0
 40
9.0
 40
9.0
 40
10.0
 40
10.0
 40
10.0
 40
11.0
 40
11.0
 40
11.0
 40
12.0
 40
12.0
 40
12.0
 40
13.0
 40
13.0
 40
13.0
 40
14.0
 40
14.0
 40
14.0
 40
15.0
 40
15.0
 40
15.0
 40
16.0
 40
16.0
 40
16.0
 40
17.0
 40
17.0
 40
17.0
 40
18.0
 40
18.0
 40
18.0
 40
19.0
 40
19.0
 40
19.0
 40
20.0
 40
20.0
 40
20.0
 40
20.0
 10
266.7148125094218
 20
-366.8172343419301
 30
0.0
 10
266.7148125094218
 20
-366.8172343419301
 30
0.0
 10
271.2712142591326
 20
-380.8403969957617
 30
0.0
 10
271.2712142591326
 20
-380.8403969957617
 30
0.0
 10
271.4545635638387
 20
-381.4046881324102
 30
0.0
 10
271.9804156015425
 20
-381.7867420012408
 30
0.0
 10
272.5737464152007
 20
-381.7867420012408
 30
0.0
 10
272.5737464152007
 20
-381.7867420012408
 30
0.0
 10
287.3185722100516
 20
-381.7867420012408
 30
0.0
 10
287.3185722100516
 20
-381.7867420012408
 30
0.0
 10
288.6453002425187
 20
-381.7867420012408
 30
0.0
 10
289.1969268791145
 20
-383.4844742193618
 30
0.0
 10
288.1235813539424
 20
-384.264305390665
 30
0.0
 10
288.1235813539424
 20
-384.264305390665
 30
0.0
 10
276.1947667068016
 20
-392.9310965404929
 30
0.0
 10
276.1947667068016
 20
-392.9310965404929
 30
0.0
 10
275.7147519952714
 20
-393.2798476424978
 30
0.0
 10
275.5138943899246
 20
-393.8980237877913
 30
0.0
 10
275.6972436946253
 20
-394.4623149244362
 30
0.0
 10
275.6972436946253
 20
-394.4623149244362
 30
0.0
 10
280.2536454443352
 20
-408.4854775782624
 30
0.0
 10
280.2536454443352
 20
-408.4854775782624
 30
0.0
 10
280.6636269532746
 20
-409.7472709188987
 30
0.0
 10
279.2194496695711
 20
-410.7965271334979
 30
0.0
 10
278.1461041443799
 20
-410.0166959622111
 30
0.0
 10
278.1461041443799
 20
-410.0166959622111
 30
0.0
 10
266.2172894972518
 20
-401.3499048123704
 30
0.0
 10
266.2172894972518
 20
-401.3499048123704
 30
0.0
 10
265.7372747857271
 20
-401.0011537103746
 30
0.0
 10
265.0872859210094
 20
-401.0011537103746
 30
0.0
 10
264.6072712094783
 20
-401.3499048123704
 30
0.0
 10
264.6072712094783
 20
-401.3499048123704
 30
0.0
 10
252.6784565623384
 20
-410.0166959622111
 30
0.0
 10
252.6784565623384
 20
-410.0166959622111
 30
0.0
 10
251.6051110371591
 20
-410.7965271334979
 30
0.0
 10
250.1609337534428
 20
-409.7472709188987
 30
0.0
 10
250.5709152623949
 20
-408.4854775782624
 30
0.0
 10
250.5709152623949
 20
-408.4854775782624
 30
0.0
 10
255.1273170121049
 20
-394.4623149244362
 30
0.0
 10
255.1273170121049
 20
-394.4623149244362
 30
0.0
 10
255.3106663168055
 20
-393.8980237877913
 30
0.0
 10
255.1098087114588
 20
-393.2798476424978
 30
0.0
 10
254.6297939999158
 20
-392.9310965404929
 30
0.0
 10
254.6297939999158
 20
-392.9310965404929
 30
0.0
 10
242.7009793527941
 20
-384.264305390665
 30
0.0
 10
242.7009793527941
 20
-384.264305390665
 30
0.0
 10
241.6276338276029
 20
-383.4844742193618
 30
0.0
 10
242.1792604641996
 20
-381.7867420012408
 30
0.0
 10
243.5059884966786
 20
-381.7867420012408
 30
0.0
 10
243.5059884966786
 20
-381.7867420012408
 30
0.0
 10
258.2508142915294
 20
-381.7867420012408
 30
0.0
 10
258.2508142915294
 20
-381.7867420012408
 30
0.0
 10
258.8441451051904
 20
-381.7867420012408
 30
0.0
 10
259.3699971428914
 20
-381.4046881324102
 30
0.0
 10
259.5533464475975
 20
-380.8403969957617
 30
0.0
 10
259.5533464475975
 20
-380.8403969957617
 30
0.0
 10
264.1097481972956
 20
-366.8172343419301
 30
0.0
 10
264.1097481972956
 20
-366.8172343419301
 30
0.0
 10
264.5197297062532
 20
-365.5554410012955
 30
0.0
 10
266.3048310004833
 20
-365.5554410012955
 30
0.0
 10
266.7148125094218
 20
-366.8172343419301
 30
0.0
  0
HATCH
  5
F0
330
DD
100
AcDbEntity
  8
Layer 1
 62
    22
420
 13517612
100
AcDbHatch
 10
0.0
 20
0.0
 30
0.0
210
0.0
220
0.0
230
1.0
  2
SOLID
 70
     1
 71
     0
 91
        1
 92
        1
 93
        1
 72
     4
 94
        3
 73
     0
 74
     1
 95
       65
 96
       61
 40
0.0
 40
0.0
 40
0.0
 40
0.0
 40
1.0
 40
1.0
 40
1.0
 40
2.0
 40
2.0
 40
2.0
 40
3.0
 40
3.0
 40
3.0
 40
4.0
 40
4.0
 40
4.0
 40
5.0
 40
5.0
 40
5.0
 40
6.0
 40
6.0
 40
6.0
 40
7.0
 40
7.0
 40
7.0
 40
8.0
 40
8.0
 40
8.0
 40
9.0
 40
9.0
 40
9.0
 40
10.0
 40
10.0
 40
10.0
 40
11.0
 40
11.0
 40
11.0
 40
12.0
 40
12.0
 40
12.0
 40
13.0
 40
13.0
 40
13.0
 40
14.0
 40
14.0
 40
14.0
 40
15.0
 40
15.0
 40
15.0
 40
16.0
 40
16.0
 40
16.0
 40
17.0
 40
17.0
 40
17.0
 40
18.0
 40
18.0
 40
18.0
 40
19.0
 40
19.0
 40
19.0
 40
20.0
 40
20.0
 40
20.0
 40
20.0
 10
266.7148125094218
 20
-366.8172343419301
 10
266.7148125094218
 20
-366.8172343419301
 10
271.2712142591326
 20
-380.8403969957617
 10
271.2712142591326
 20
-380.8403969957617
 10
271.4545635638387
 20
-381.4046881324102
 10
271.9804156015425
 20
-381.7867420012408
 10
272.5737464152007
 20
-381.7867420012408
 10
272.5737464152007
 20
-381.7867420012408
 10
287.3185722100516
 20
-381.7867420012408
 10
287.3185722100516
 20
-381.7867420012408
 10
288.6453002425187
 20
-381.7867420012408
 10
289.1969268791145
 20
-383.4844742193618
 10
288.1235813539424
 20
-384.264305390665
 10
288.1235813539424
 20
-384.264305390665
 10
276.1947667068016
 20
-392.9310965404929
 10
276.1947667068016
 20
-392.9310965404929
 10
275.7147519952714
 20
-393.2798476424978
 10
275.5138943899246
 20
-393.8980237877913
 10
275.6972436946253
 20
-394.4623149244362
 10
275.6972436946253
 20
-394.4623149244362
 10
280.2536454443352
 20
-408.4854775782624
 10
280.2536454443352
 20
-408.4854775782624
 10
280.6636269532746
 20
-409.7472709188987
 10
279.2194496695711
 20
-410.7965271334979
 10
278.1461041443799
 20
-410.0166959622111
 10
278.1461041443799
 20
-410.0166959622111
 10
266.2172894972518
 20
-401.3499048123704
 10
266.2172894972518
 20
-401.3499048123704
 10
265.7372747857271
 20
-401.0011537103746
 10
265.0872859210094
 20
-401.0011537103746
 10
264.6072712094783
 20
-401.3499048123704
 10
264.6072712094783
 20
-401.3499048123704
 10
252.6784565623384
 20
-410.0166959622111
 10
252.6784565623384
 20
-410.0166959622111
 10
251.6051110371591
 20
-410.7965271334979
 10
250.1609337534428
 20
-409.7472709188987
 10
250.5709152623949
 20
-408.4854775782624
 10
250.5709152623949
 20
-408.4854775782624
 10
255.1273170121049
 20
-394.4623149244362
 10
255.1273170121049
 20
-394.4623149244362
 10
255.3106663168055
 20
-393.8980237877913
 10
255.1098087114588
 20
-393.2798476424978
 10
254.6297939999158
 20
-392.9310965404929
 10
254.6297939999158
 20
-392.9310965404929
 10
242.7009793527941
 20
-384.264305390665
 10
242.7009793527941
 20
-384.264305390665
 10
241.6276338276029
 20
-383.4844742193618
 10
242.1792604641996
 20
-381.7867420012408
 10
243.5059884966786
 20
-381.7867420012408
 10
243.5059884966786
 20
-381.7867420012408
 10
258.2508142915294
 20
-381.7867420012408
 10
258.2508142915294
 20
-381.7867420012408
 10
258.8441451051904
 20
-381.7867420012408
 10
259.3699971428914
 20
-381.4046881324102
 10
259.5533464475975
 20
-380.8403969957617
 10
259.5533464475975
 20
-380.8403969957617
 10
264.1097481972956
 20
-366.8172343419301
 10
264.1097481972956
 20
-366.8172343419301
 10
264.5197297062532
 20
-365.5554410012955
 10
266.3048310004833
 20
-365.5554410012955
 10
266.7148125094218
 20
-366.8172343419301
 97
        0
 97
        0
 75
     2
 76
     1
 98
        0
  0
SPLINE
  5
F1
330
DD
100
AcDbEntity
  8
Layer 1
370
     0
100
AcDbSpline
210
0.0
220
0.0
230
1.0
 70
    11
 71
     3
 72
    65
 73
    61
 74
     0
 42
0.0000000001
 43
0.0000000001
 12
1.0
 22
0.0
 32
0.0
 13
1.0
 23
0.0
 33
0.0
 40
0.0
 40
0.0
 40
0.0
 40
0.0
 40
1.0
 40
1.0
 40
1.0
 40
2.0
 40
2.0
 40
2.0
 40
3.0
 40
3.0
 40
3.0
 40
4.0
 40
4.0
 40
4.0
 40
5.0
 40
5.0
 40
5.0
 40
6.0
 40
6.0
 40
6.0
 40
7.0
 40
7.0
 40
7.0
 40
8.0
 40
8.0
 40
8.0
 40
9.0
 40
9.0
 40
9.0
 40
10.0
 40
10.0
 40
10.0
 40
11.0
 40
11.0
 40
11.0
 40
12.0
 40
12.0
 40
12.0
 40
13.0
 40
13.0
 40
13.0
 40
14.0
 40
14.0
 40
14.0
 40
15.0
 40
15.0
 40
15.0
 40
16.0
 40
16.0
 40
16.0
 40
17.0
 40
17.0
 40
17.0
 40
18.0
 40
18.0
 40
18.0
 40
19.0
 40
19.0
 40
19.0
 40
20.0
 40
20.0
 40
20.0
 40
20.0
 10
175.1855726272051
 20
-366.8172343419301
 30
0.0
 10
175.1855726272051
 20
-366.8172343419301
 30
0.0
 10
179.7419743769278
 20
-380.8403969957617
 30
0.0
 10
179.7419743769278
 20
-380.8403969957617
 30
0.0
 10
179.9253236816248
 20
-381.4046881324102
 30
0.0
 10
180.4511757193259
 20
-381.7867420012408
 30
0.0
 10
181.0445065329832
 20
-381.7867420012408
 30
0.0
 10
181.0445065329832
 20
-381.7867420012408
 30
0.0
 10
195.789332327834
 20
-381.7867420012408
 30
0.0
 10
195.789332327834
 20
-381.7867420012408
 30
0.0
 10
197.1160603603075
 20
-381.7867420012408
 30
0.0
 10
197.6676869969097
 20
-383.4844742193618
 30
0.0
 10
196.5943414717249
 20
-384.264305390665
 30
0.0
 10
196.5943414717249
 20
-384.264305390665
 30
0.0
 10
184.665526824584
 20
-392.9310965404929
 30
0.0
 10
184.665526824584
 20
-392.9310965404929
 30
0.0
 10
184.1855121130538
 20
-393.2798476424978
 30
0.0
 10
183.984654507708
 20
-393.8980237877913
 30
0.0
 10
184.1680038124168
 20
-394.4623149244362
 30
0.0
 10
184.1680038124168
 20
-394.4623149244362
 30
0.0
 10
188.7244055621186
 20
-408.4854775782624
 30
0.0
 10
188.7244055621186
 20
-408.4854775782624
 30
0.0
 10
189.1343870710634
 20
-409.7472709188987
 30
0.0
 10
187.6902097873535
 20
-410.7965271334979
 30
0.0
 10
186.6168642621815
 20
-410.0166959622111
 30
0.0
 10
186.6168642621815
 20
-410.0166959622111
 30
0.0
 10
174.6880496150407
 20
-401.3499048123704
 30
0.0
 10
174.6880496150407
 20
-401.3499048123704
 30
0.0
 10
174.2080349035105
 20
-401.0011537103746
 30
0.0
 10
173.5580460387919
 20
-401.0011537103746
 30
0.0
 10
173.0780313272617
 20
-401.3499048123704
 30
0.0
 10
173.0780313272617
 20
-401.3499048123704
 30
0.0
 10
161.1492166801336
 20
-410.0166959622111
 30
0.0
 10
161.1492166801336
 20
-410.0166959622111
 30
0.0
 10
160.0758711549479
 20
-410.7965271334979
 30
0.0
 10
158.631693871238
 20
-409.7472709188987
 30
0.0
 10
159.0416753801774
 20
-408.4854775782624
 30
0.0
 10
159.0416753801774
 20
-408.4854775782624
 30
0.0
 10
163.5980771298946
 20
-394.4623149244362
 30
0.0
 10
163.5980771298946
 20
-394.4623149244362
 30
0.0
 10
163.781426434588
 20
-393.8980237877913
 30
0.0
 10
163.5805688292476
 20
-393.2798476424978
 30
0.0
 10
163.1005541177174
 20
-392.9310965404929
 30
0.0
 10
163.1005541177174
 20
-392.9310965404929
 30
0.0
 10
151.1717394705765
 20
-384.264305390665
 30
0.0
 10
151.1717394705765
 20
-384.264305390665
 30
0.0
 10
150.0983939453854
 20
-383.4844742193618
 30
0.0
 10
150.6500205819948
 20
-381.7867420012408
 30
0.0
 10
151.9767486144683
 20
-381.7867420012408
 30
0.0
 10
151.9767486144683
 20
-381.7867420012408
 30
0.0
 10
166.7215744093119
 20
-381.7867420012408
 30
0.0
 10
166.7215744093119
 20
-381.7867420012408
 30
0.0
 10
167.3149052229728
 20
-381.7867420012408
 30
0.0
 10
167.8407572606739
 20
-381.4046881324102
 30
0.0
 10
168.02410656538
 20
-380.8403969957617
 30
0.0
 10
168.02410656538
 20
-380.8403969957617
 30
0.0
 10
172.5805083150972
 20
-366.8172343419301
 30
0.0
 10
172.5805083150972
 20
-366.8172343419301
 30
0.0
 10
172.9904898240356
 20
-365.5554410012955
 30
0.0
 10
174.7755911182658
 20
-365.5554410012955
 30
0.0
 10
175.1855726272051
 20
-366.8172343419301
 30
0.0
  0
HATCH
  5
F2
330
DD
100
AcDbEntity
  8
Layer 1
 62
    22
420
 13517612
100
AcDbHatch
 10
0.0
 20
0.0
 30
0.0
210
0.0
220
0.0
230
1.0
  2
SOLID
 70
     1
 71
     0
 91
        1
 92
        1
 93
        1
 72
     4
 94
        3
 73
     0
 74
     1
 95
       65
 96
       61
 40
0.0
 40
0.0
 40
0.0
 40
0.0
 40
1.0
 40
1.0
 40
1.0
 40
2.0
 40
2.0
 40
2.0
 40
3.0
 40
3.0
 40
3.0
 40
4.0
 40
4.0
 40
4.0
 40
5.0
 40
5.0
 40
5.0
 40
6.0
 40
6.0
 40
6.0
 40
7.0
 40
7.0
 40
7.0
 40
8.0
 40
8.0
 40
8.0
 40
9.0
 40
9.0
 40
9.0
 40
10.0
 40
10.0
 40
10.0
 40
11.0
 40
11.0
 40
11.0
 40
12.0
 40
12.0
 40
12.0
 40
13.0
 40
13.0
 40
13.0
 40
14.0
 40
14.0
 40
14.0
 40
15.0
 40
15.0
 40
15.0
 40
16.0
 40
16.0
 40
16.0
 40
17.0
 40
17.0
 40
17.0
 40
18.0
 40
18.0
 40
18.0
 40
19.0
 40
19.0
 40
19.0
 40
20.0
 40
20.0
 40
20.0
 40
20.0
 10
175.1855726272051
 20
-366.8172343419301
 10
175.1855726272051
 20
-366.8172343419301
 10
179.7419743769278
 20
-380.8403969957617
 10
179.7419743769278
 20
-380.8403969957617
 10
179.9253236816248
 20
-381.4046881324102
 10
180.4511757193259
 20
-381.7867420012408
 10
181.0445065329832
 20
-381.7867420012408
 10
181.0445065329832
 20
-381.7867420012408
 10
195.789332327834
 20
-381.7867420012408
 10
195.789332327834
 20
-381.7867420012408
 10
197.1160603603075
 20
-381.7867420012408
 10
197.6676869969097
 20
-383.4844742193618
 10
196.5943414717249
 20
-384.264305390665
 10
196.5943414717249
 20
-384.264305390665
 10
184.665526824584
 20
-392.9310965404929
 10
184.665526824584
 20
-392.9310965404929
 10
184.1855121130538
 20
-393.2798476424978
 10
183.984654507708
 20
-393.8980237877913
 10
184.1680038124168
 20
-394.4623149244362
 10
184.1680038124168
 20
-394.4623149244362
 10
188.7244055621186
 20
-408.4854775782624
 10
188.7244055621186
 20
-408.4854775782624
 10
189.1343870710634
 20
-409.7472709188987
 10
187.6902097873535
 20
-410.7965271334979
 10
186.6168642621815
 20
-410.0166959622111
 10
186.6168642621815
 20
-410.0166959622111
 10
174.6880496150407
 20
-401.3499048123704
 10
174.6880496150407
 20
-401.3499048123704
 10
174.2080349035105
 20
-401.0011537103746
 10
173.5580460387919
 20
-401.0011537103746
 10
173.0780313272617
 20
-401.3499048123704
 10
173.0780313272617
 20
-401.3499048123704
 10
161.1492166801336
 20
-410.0166959622111
 10
161.1492166801336
 20
-410.0166959622111
 10
160.0758711549479
 20
-410.7965271334979
 10
158.631693871238
 20
-409.7472709188987
 10
159.0416753801774
 20
-408.4854775782624
 10
159.0416753801774
 20
-408.4854775782624
 10
163.5980771298946
 20
-394.4623149244362
 10
163.5980771298946
 20
-394.4623149244362
 10
163.781426434588
 20
-393.8980237877913
 10
163.5805688292476
 20
-393.2798476424978
 10
163.1005541177174
 20
-392.9310965404929
 10
163.1005541177174
 20
-392.9310965404929
 10
151.1717394705765
 20
-384.264305390665
 10
151.1717394705765
 20
-384.264305390665
 10
150.0983939453854
 20
-383.4844742193618
 10
150.6500205819948
 20
-381.7867420012408
 10
151.9767486144683
 20
-381.7867420012408
 10
151.9767486144683
 20
-381.7867420012408
 10
166.7215744093119
 20
-381.7867420012408
 10
166.7215744093119
 20
-381.7867420012408
 10
167.3149052229728
 20
-381.7867420012408
 10
167.8407572606739
 20
-381.4046881324102
 10
168.02410656538
 20
-380.8403969957617
 10
168.02410656538
 20
-380.8403969957617
 10
172.5805083150972
 20
-366.8172343419301
 10
172.5805083150972
 20
-366.8172343419301
 10
172.9904898240356
 20
-365.5554410012955
 10
174.7755911182658
 20
-365.5554410012955
 10
175.1855726272051
 20
-366.8172343419301
 97
        0
 97
        0
 75
     2
 76
     1
 98
        0
  0
ENDBLK
  5
E0
330
DD
100
AcDbEntity
  8
0
100
AcDbBlockEnd
  0
ENDSEC
  0
SECTION
  2
ENTITIES
  0
INSERT
  5
42
330
1F
100
AcDbEntity
  8
Layer 1
100
AcDbBlockReference
  2
block 2
 10
0.0
 20
0.0
 30
0.0
  0
ENDSEC
  0
SECTION
  2
OBJECTS
  0
DICTIONARY
  5
C
330
0
100
AcDbDictionary
281
     1
  3
ACAD_GROUP
350
D
  3
ACAD_LAYOUT
350
1A
  3
ACAD_MATERIAL
350
3B
  3
ACAD_MLEADERSTYLE
350
F4
  3
ACAD_MLINESTYLE
350
17
  3
ACAD_PLOTSETTINGS
350
19
  3
ACAD_PLOTSTYLENAME
350
E
  3
ACAD_TABLESTYLE
350
F3
  3
ACAD_VISUALSTYLE
350
2A
  0
SUN
  5
3F
330
29
100
AcDbSun
 90
        1
290
     0
 63
     7
421
 16777215
 40
1.0
291
     1
 91
  2455826
 92
 54000000
292
     0
 70
     2
 71
   256
280
     1
  0
DICTIONARY
  5
D
102
{ACAD_REACTORS
330
C
102
}
330
C
100
AcDbDictionary
281
     1
  0
DICTIONARY
  5
1A
102
{ACAD_REACTORS
330
C
102
}
330
C
100
AcDbDictionary
281
     1
  3
Layout1
350
1E
  3
Layout2
350
26
  3
Model
350
22
  0
DICTIONARY
  5
3B
102
{ACAD_REACTORS
330
C
102
}
330
C
100
AcDbDictionary
281
     1
  3
ByBlock
350
3D
  3
ByLayer
350
3C
  3
Global
350
3E
  0
DICTIONARY
  5
F4
102
{ACAD_REACTORS
330
C
102
}
330
C
100
AcDbDictionary
281
     1
  0
DICTIONARY
  5
17
102
{ACAD_REACTORS
330
C
102
}
330
C
100
AcDbDictionary
281
     1
  3
Standard
350
18
  0
DICTIONARY
  5
19
102
{ACAD_REACTORS
330
C
102
}
330
C
100
AcDbDictionary
281
     1
  0
ACDBDICTIONARYWDFLT
  5
E
102
{ACAD_REACTORS
330
C
102
}
330
C
100
AcDbDictionary
281
     1
  3
Normal
350
F
100
AcDbDictionaryWithDefault
340
F
  0
DICTIONARY
  5
F3
102
{ACAD_REACTORS
330
C
102
}
330
C
100
AcDbDictionary
281
     1
  0
DICTIONARY
  5
2A
102
{ACAD_REACTORS
330
C
102
}
330
C
100
AcDbDictionary
281
     1
  3
2dWireframe
350
2F
  3
3D Hidden
350
31
  3
3dWireframe
350
30
  3
Basic
350
32
  3
Brighten
350
36
  3
ColorChange
350
3A
  3
Conceptual
350
34
  3
Dim
350
35
  3
Facepattern
350
39
  3
Flat
350
2B
  3
FlatWithEdges
350
2C
  3
Gouraud
350
2D
  3
GouraudWithEdges
350
2E
  3
Linepattern
350
38
  3
Realistic
350
33
  3
Thicken
350
37
  0
LAYOUT
  5
1E
102
{ACAD_REACTORS
330
1A
102
}
330
1A
100
AcDbPlotSettings
  1

  2
none_device
  4

  6

 40
0.0
 41
0.0
 42
0.0
 43
0.0
 44
0.0
 45
0.0
 46
0.0
 47
0.0
 48
0.0
 49
0.0
140
0.0
141
0.0
142
1.0
143
1.0
 70
   688
 72
     0
 73
     0
 74
     5
  7

 75
    16
 76
     0
 77
     2
 78
   300
147
1.0
148
0.0
149
0.0
100
AcDbLayout
  1
Layout1
 70
     1
 71
     1
 10
0.0
 20
0.0
 11
12.0
 21
9.0
 12
0.0
 22
0.0
 32
0.0
 14
1.000000000000000E+20
 24
1.000000000000000E+20
 34
1.000000000000000E+20
 15
-1.000000000000000E+20
 25
-1.000000000000000E+20
 35
-1.000000000000000E+20
146
0.0
 13
0.0
 23
0.0
 33
0.0
 16
1.0
 26
0.0
 36
0.0
 17
0.0
 27
1.0
 37
0.0
 76
     0
330
1B
  0
LAYOUT
  5
26
102
{ACAD_REACTORS
330
1A
102
}
330
1A
100
AcDbPlotSettings
  1

  2
none_device
  4

  6

 40
0.0
 41
0.0
 42
0.0
 43
0.0
 44
0.0
 45
0.0
 46
0.0
 47
0.0
 48
0.0
 49
0.0
140
0.0
141
0.0
142
1.0
143
1.0
 70
   688
 72
     0
 73
     0
 74
     5
  7

 75
    16
 76
     0
 77
     2
 78
   300
147
1.0
148
0.0
149
0.0
100
AcDbLayout
  1
Layout2
 70
     1
 71
     2
 10
0.0
 20
0.0
 11
0.0
 21
0.0
 12
0.0
 22
0.0
 32
0.0
 14
0.0
 24
0.0
 34
0.0
 15
0.0
 25
0.0
 35
0.0
146
0.0
 13
0.0
 23
0.0
 33
0.0
 16
1.0
 26
0.0
 36
0.0
 17
0.0
 27
1.0
 37
0.0
 76
     0
330
23
  0
LAYOUT
  5
22
102
{ACAD_REACTORS
330
1A
102
}
330
1A
100
AcDbPlotSettings
  1

  2
none_device
  4

  6

 40
0.0
 41
0.0
 42
0.0
 43
0.0
 44
0.0
 45
0.0
 46
0.0
 47
0.0
 48
0.0
 49
0.0
140
0.0
141
0.0
142
1.0
143
1.0
 70
  1712
 72
     0
 73
     0
 74
     0
  7

 75
     0
 76
     0
 77
     2
 78
   300
147
1.0
148
0.0
149
0.0
100
AcDbLayout
  1
Model
 70
     1
 71
     0
 10
0.0
 20
0.0
 11
12.0
 21
9.0
 12
0.0
 22
0.0
 32
0.0
 14
1.000000000000000E+20
 24
1.000000000000000E+20
 34
1.000000000000000E+20
 15
-1.000000000000000E+20
 25
-1.000000000000000E+20
 35
-1.000000000000000E+20
146
0.0
 13
0.0
 23
0.0
 33
0.0
 16
1.0
 26
0.0
 36
0.0
 17
0.0
 27
1.0
 37
0.0
 76
     0
330
1F
331
29
  0
MATERIAL
  5
3D
102
{ACAD_REACTORS
330
3B
102
}
330
3B
100
AcDbMaterial
  1
ByBlock
 72
     1
 94
      127
  0
MATERIAL
  5
3C
102
{ACAD_REACTORS
330
3B
102
}
330
3B
100
AcDbMaterial
  1
ByLayer
 72
     1
 94
      127
  0
MATERIAL
  5
3E
102
{ACAD_REACTORS
330
3B
102
}
330
3B
100
AcDbMaterial
  1
Global
 72
     1
 94
      127
  0
MLINESTYLE
  5
18
102
{ACAD_REACTORS
330
17
102
}
330
17
100
AcDbMlineStyle
  2
Standard
 70
     0
  3

 62
   256
 51
90.0
 52
90.0
 71
     2
 49
0.5
 62
   256
  6
BYLAYER
 49
-0.5
 62
   256
  6
BYLAYER
  0
ACDBPLACEHOLDER
  5
F
102
{ACAD_REACTORS
330
E
102
}
330
E
  0
VISUALSTYLE
  5
2F
102
{ACAD_REACTORS
330
2A
102
}
330
2A
100
AcDbVisualStyle
  2
2dWireframe
 70
     4
177
     2
291
     0
 71
     0
176
     1
 72
     2
176
     1
 73
     0
176
     1
 90
        0
176
     1
 40
-0.6
176
     1
 41
-30.0
176
     1
 62
     5
 63
     7
421
 16777215
176
     1
 74
     1
176
     1
 91
        4
176
     1
 64
     7
176
     1
 65
   257
176
     1
 75
     1
176
     1
175
     1
176
     1
 42
1.0
176
     1
 92
        0
176
     1
 66
   257
176
     1
 43
1.0
176
     1
 76
     1
176
     1
 77
     6
176
     1
 78
     2
176
     1
 67
     7
176
     1
 79
     5
176
     1
170
     0
176
     1
171
     0
176
     1
290
     0
176
     1
 93
        1
176
     1
 44
0.0
176
     1
173
     0
176
     1
  0
VISUALSTYLE
  5
31
102
{ACAD_REACTORS
330
2A
102
}
330
2A
100
AcDbVisualStyle
  2
3D Hidden
 70
     6
177
     2
291
     0
 71
     1
176
     1
 72
     2
176
     1
 73
     2
176
     1
 90
        0
176
     1
 40
-0.6
176
     1
 41
-30.0
176
     1
 62
     5
 63
     7
421
 16777215
176
     1
 74
     2
176
     1
 91
        2
176
     1
 64
     7
176
     1
 65
   257
176
     1
 75
     2
176
     1
175
     1
176
     1
 42
40.0
176
     1
 92
        0
176
     1
 66
   257
176
     1
 43
1.0
176
     1
 76
     1
176
     1
 77
     6
176
     1
 78
     2
176
     1
 67
     7
176
     1
 79
     3
176
     1
170
     0
176
     1
171
     0
176
     1
290
     0
176
     1
 93
        1
176
     1
 44
0.0
176
     1
173
     0
176
     1
  0
VISUALSTYLE
  5
30
102
{ACAD_REACTORS
330
2A
102
}
330
2A
100
AcDbVisualStyle
  2
3dWireframe
 70
     5
177
     2
291
     0
 71
     0
176
     1
 72
     2
176
     1
 73
     0
176
     1
 90
        0
176
     1
 40
-0.6
176
     1
 41
-30.0
176
     1
 62
     5
 63
     7
421
 16777215
176
     1
 74
     1
176
     1
 91
        4
176
     1
 64
     7
176
     1
 65
   257
176
     1
 75
     1
176
     1
175
     1
176
     1
 42
1.0
176
     1
 92
        0
176
     1
 66
   257
176
     1
 43
1.0
176
     1
 76
     1
176
     1
 77
     6
176
     1
 78
     2
176
     1
 67
     7
176
     1
 79
     5
176
     1
170
     0
176
     1
171
     0
176
     1
290
     0
176
     1
 93
        1
176
     1
 44
0.0
176
     1
173
     0
176
     1
  0
VISUALSTYLE
  5
32
102
{ACAD_REACTORS
330
2A
102
}
330
2A
100
AcDbVisualStyle
  2
Basic
 70
     7
177
     2
291
     1
 71
     1
176
     1
 72
     0
176
     1
 73
     1
176
     1
 90
        0
176
     1
 40
-0.6
176
     1
 41
-30.0
176
     1
 62
     5
 63
     7
421
 16777215
176
     1
 74
     0
176
     1
 91
        4
176
     1
 64
     7
176
     1
 65
   257
176
     1
 75
     1
176
     1
175
     1
176
     1
 42
1.0
176
     1
 92
        8
176
     1
 66
     7
176
     1
 43
1.0
176
     1
 76
     1
176
     1
 77
     6
176
     1
 78
     2
176
     1
 67
     7
176
     1
 79
     5
176
     1
170
     0
176
     1
171
     0
176
     1
290
     0
176
     1
 93
        1
176
     1
 44
0.0
176
     1
173
     0
176
     1
  0
VISUALSTYLE
  5
36
102
{ACAD_REACTORS
330
2A
102
}
330
2A
100
AcDbVisualStyle
  2
Brighten
 70
    12
177
     2
291
     1
 71
     2
176
     1
 72
     2
176
     1
 73
     0
176
     1
 90
        0
176
     1
 40
-0.6
176
     1
 41
-30.0
176
     1
 62
     5
 63
     7
421
 16777215
176
     1
 74
     1
176
     1
 91
        4
176
     1
 64
     7
176
     1
 65
   257
176
     1
 75
     1
176
     1
175
     1
176
     1
 42
1.0
176
     1
 92
        8
176
     1
 66
     7
176
     1
 43
1.0
176
     1
 76
     1
176
     1
 77
     6
176
     1
 78
     2
176
     1
 67
     7
176
     1
 79
     5
176
     1
170
     0
176
     1
171
     0
176
     1
290
     0
176
     1
 93
        1
176
     1
 44
50.0
176
     1
173
     0
176
     1
  0
VISUALSTYLE
  5
3A
102
{ACAD_REACTORS
330
2A
102
}
330
2A
100
AcDbVisualStyle
  2
ColorChange
 70
    16
177
     2
291
     1
 71
     2
176
     1
 72
     2
176
     1
 73
     3
176
     1
 90
        0
176
     1
 40
-0.6
176
     1
 41
-30.0
176
     1
 62
     5
 63
     8
421
  8421504
176
     1
 74
     1
176
     1
 91
        4
176
     1
 64
     7
176
     1
 65
   257
176
     1
 75
     1
176
     1
175
     1
176
     1
 42
1.0
176
     1
 92
        8
176
     1
 66
     8
424
  8421504
176
     1
 43
1.0
176
     1
 76
     1
176
     1
 77
     6
176
     1
 78
     2
176
     1
 67
     7
176
     1
 79
     5
176
     1
170
     0
176
     1
171
     0
176
     1
290
     0
176
     1
 93
        1
176
     1
 44
0.0
176
     1
173
     0
176
     1
  0
VISUALSTYLE
  5
34
102
{ACAD_REACTORS
330
2A
102
}
330
2A
100
AcDbVisualStyle
  2
Conceptual
 70
     9
177
     2
291
     0
 71
     3
176
     1
 72
     2
176
     1
 73
     0
176
     1
 90
        0
176
     1
 40
-0.6
176
     1
 41
-30.0
176
     1
 62
     5
 63
     7
421
 16777215
176
     1
 74
     2
176
     1
 91
        2
176
     1
 64
     7
176
     1
 65
   257
176
     1
 75
     1
176
     1
175
     1
176
     1
 42
40.0
176
     1
 92
        8
176
     1
 66
     7
176
     1
 43
1.0
176
     1
 76
     1
176
     1
 77
     6
176
     1
 78
     2
176
     1
 67
     7
176
     1
 79
     3
176
     1
170
     0
176
     1
171
     0
176
     1
290
     0
176
     1
 93
        1
176
     1
 44
0.0
176
     1
173
     0
176
     1
  0
VISUALSTYLE
  5
35
102
{ACAD_REACTORS
330
2A
102
}
330
2A
100
AcDbVisualStyle
  2
Dim
 70
    11
177
     2
291
     1
 71
     2
176
     1
 72
     2
176
     1
 73
     0
176
     1
 90
        0
176
     1
 40
-0.6
176
     1
 41
-30.0
176
     1
 62
     5
 63
     7
421
 16777215
176
     1
 74
     1
176
     1
 91
        4
176
     1
 64
     7
176
     1
 65
   257
176
     1
 75
     1
176
     1
175
     1
176
     1
 42
1.0
176
     1
 92
        8
176
     1
 66
     7
176
     1
 43
1.0
176
     1
 76
     1
176
     1
 77
     6
176
     1
 78
     2
176
     1
 67
     7
176
     1
 79
     5
176
     1
170
     0
176
     1
171
     0
176
     1
290
     0
176
     1
 93
        1
176
     1
 44
-50.0
176
     1
173
     0
176
     1
  0
VISUALSTYLE
  5
39
102
{ACAD_REACTORS
330
2A
102
}
330
2A
100
AcDbVisualStyle
  2
Facepattern
 70
    15
177
     2
291
     1
 71
     2
176
     1
 72
     2
176
     1
 73
     0
176
     1
 90
        0
176
     1
 40
-0.6
176
     1
 41
-30.0
176
     1
 62
     5
 63
     7
421
 16777215
176
     1
 74
     1
176
     1
 91
        4
176
     1
 64
     7
176
     1
 65
   257
176
     1
 75
     1
176
     1
175
     1
176
     1
 42
1.0
176
     1
 92
        8
176
     1
 66
     7
176
     1
 43
1.0
176
     1
 76
     1
176
     1
 77
     6
176
     1
 78
     2
176
     1
 67
     7
176
     1
 79
     5
176
     1
170
     0
176
     1
171
     0
176
     1
290
     0
176
     1
 93
        1
176
     1
 44
0.0
176
     1
173
     0
176
     1
  0
VISUALSTYLE
  5
2B
102
{ACAD_REACTORS
330
2A
102
}
330
2A
100
AcDbVisualStyle
  2
Flat
 70
     0
177
     2
291
     1
 71
     2
176
     1
 72
     1
176
     1
 73
     1
176
     1
 90
        2
176
     1
 40
-0.6
176
     1
 41
30.0
176
     1
 62
     5
 63
     7
421
 16777215
176
     1
 74
     0
176
     1
 91
        4
176
     1
 64
     7
176
     1
 65
   257
176
     1
 75
     1
176
     1
175
     1
176
     1
 42
1.0
176
     1
 92
        8
176
     1
 66
     7
176
     1
 43
1.0
176
     1
 76
     1
176
     1
 77
     6
176
     1
 78
     2
176
     1
 67
     7
176
     1
 79
     5
176
     1
170
     0
176
     1
171
     0
176
     1
290
     0
176
     1
 93
       13
176
     1
 44
0.0
176
     1
173
     0
176
     1
  0
VISUALSTYLE
  5
2C
102
{ACAD_REACTORS
330
2A
102
}
330
2A
100
AcDbVisualStyle
  2
FlatWithEdges
 70
     1
177
     2
291
     1
 71
     2
176
     1
 72
     1
176
     1
 73
     1
176
     1
 90
        2
176
     1
 40
-0.6
176
     1
 41
30.0
176
     1
 62
     5
 63
     7
421
 16777215
176
     1
 74
     1
176
     1
 91
        4
176
     1
 64
     7
176
     1
 65
   257
176
     1
 75
     1
176
     1
175
     1
176
     1
 42
1.0
176
     1
 92
        0
176
     1
 66
   257
176
     1
 43
1.0
176
     1
 76
     1
176
     1
 77
     6
176
     1
 78
     2
176
     1
 67
     7
176
     1
 79
     5
176
     1
170
     0
176
     1
171
     0
176
     1
290
     0
176
     1
 93
       13
176
     1
 44
0.0
176
     1
173
     0
176
     1
  0
VISUALSTYLE
  5
2D
102
{ACAD_REACTORS
330
2A
102
}
330
2A
100
AcDbVisualStyle
  2
Gouraud
 70
     2
177
     2
291
     1
 71
     2
176
     1
 72
     2
176
     1
 73
     1
176
     1
 90
        2
176
     1
 40
-0.6
176
     1
 41
30.0
176
     1
 62
     5
 63
     7
421
 16777215
176
     1
 74
     0
176
     1
 91
        4
176
     1
 64
     7
176
     1
 65
   257
176
     1
 75
     1
176
     1
175
     1
176
     1
 42
1.0
176
     1
 92
        0
176
     1
 66
     7
176
     1
 43
1.0
176
     1
 76
     1
176
     1
 77
     6
176
     1
 78
     2
176
     1
 67
     7
176
     1
 79
     5
176
     1
170
     0
176
     1
171
     0
176
     1
290
     0
176
     1
 93
       13
176
     1
 44
0.0
176
     1
173
     0
176
     1
  0
VISUALSTYLE
  5
2E
102
{ACAD_REACTORS
330
2A
102
}
330
2A
100
AcDbVisualStyle
  2
GouraudWithEdges
 70
     3
177
     2
291
     1
 71
     2
176
     1
 72
     2
176
     1
 73
     1
176
     1
 90
        2
176
     1
 40
-0.6
176
     1
 41
30.0
176
     1
 62
     5
 63
     7
421
 16777215
176
     1
 74
     1
176
     1
 91
        4
176
     1
 64
     7
176
     1
 65
   257
176
     1
 75
     1
176
     1
175
     1
176
     1
 42
1.0
176
     1
 92
        0
176
     1
 66
   257
176
     1
 43
1.0
176
     1
 76
     1
176
     1
 77
     6
176
     1
 78
     2
176
     1
 67
     7
176
     1
 79
     5
176
     1
170
     0
176
     1
171
     0
176
     1
290
     0
176
     1
 93
       13
176
     1
 44
0.0
176
     1
173
     0
176
     1
  0
VISUALSTYLE
  5
38
102
{ACAD_REACTORS
330
2A
102
}
330
2A
100
AcDbVisualStyle
  2
Linepattern
 70
    14
177
     2
291
     1
 71
     2
176
     1
 72
     2
176
     1
 73
     0
176
     1
 90
        0
176
     1
 40
-0.6
176
     1
 41
-30.0
176
     1
 62
     5
 63
     7
421
 16777215
176
     1
 74
     1
176
     1
 91
        4
176
     1
 64
     7
176
     1
 65
   257
176
     1
 75
     7
176
     1
175
     7
176
     1
 42
1.0
176
     1
 92
        8
176
     1
 66
     7
176
     1
 43
1.0
176
     1
 76
     1
176
     1
 77
     6
176
     1
 78
     2
176
     1
 67
     7
176
     1
 79
     5
176
     1
170
     0
176
     1
171
     0
176
     1
290
     0
176
     1
 93
        1
176
     1
 44
0.0
176
     1
173
     0
176
     1
  0
VISUALSTYLE
  5
33
102
{ACAD_REACTORS
330
2A
102
}
330
2A
100
AcDbVisualStyle
  2
Realistic
 70
     8
177
     2
291
     0
 71
     2
176
     1
 72
     2
176
     1
 73
     0
176
     1
 90
        0
176
     1
 40
-0.6
176
     1
 41
-30.0
176
     1
 62
     5
 63
     7
421
 16777215
176
     1
 74
     1
176
     1
 91
        0
176
     1
 64
     7
176
     1
 65
   257
176
     1
 75
     1
176
     1
175
     1
176
     1
 42
1.0
176
     1
 92
        8
176
     1
 66
     8
424
  7895160
176
     1
 43
1.0
176
     1
 76
     1
176
     1
 77
     6
176
     1
 78
     2
176
     1
 67
     7
176
     1
 79
     5
176
     1
170
     0
176
     1
171
     0
176
     1
290
     0
176
     1
 93
       13
176
     1
 44
0.0
176
     1
173
     0
176
     1
  0
VISUALSTYLE
  5
37
102
{ACAD_REACTORS
330
2A
102
}
330
2A
100
AcDbVisualStyle
  2
Thicken
 70
    13
177
     2
291
     1
 71
     2
176
     1
 72
     2
176
     1
 73
     0
176
     1
 90
        0
176
     1
 40
-0.6
176
     1
 41
-30.0
176
     1
 62
     5
 63
     7
421
 16777215
176
     1
 74
     1
176
     1
 91
        4
176
     1
 64
     7
176
     1
 65
   257
176
     1
 75
     1
176
     1
175
     1
176
     1
 42
1.0
176
     1
 92
       12
176
     1
 66
     7
176
     1
 43
1.0
176
     1
 76
     1
176
     1
 77
     6
176
     1
 78
     2
176
     1
 67
     7
176
     1
 79
     5
176
     1
170
     0
176
     1
171
     0
176
     1
290
     0
176
     1
 93
        1
176
     1
 44
0.0
176
     1
173
     0
176
     1
  0
ENDSEC
  0
EOF
