<?xml version="1.0" encoding="utf-8"?>
<!-- Generator: Adobe Illustrator 22.0.0, SVG Export Plug-In . SVG Version: 6.00 Build 0)  -->
<svg version="1.1" id="Layer_1" xmlns="http://www.w3.org/2000/svg" xmlns:xlink="http://www.w3.org/1999/xlink" x="0px" y="0px"
	 viewBox="0 0 1080 1080" style="enable-background:new 0 0 1080 1080;" xml:space="preserve">
<style type="text/css">
	.st0{fill:#2A4F7B;}
	.st1{fill:#CE432C;}
</style>
<g>
	<g>
		<g>
			<path class="st0" d="M305,429.9l22.5,22.7v61.1L305,536.3h-43.3v40.1h11.4v29.4h-52.3v-29.4h11.4v-117h-11.4v-29.5H305z
				 M298.1,459.4h-36.4v47.5h36.4V459.4z"/>
			<path class="st0" d="M421.2,536.3h-36.3v40.1h11.4v29.4H344v-29.4h10.9v-117H344v-29.7h84l22.7,23v57.4l-8.1,8l8.1,7.8v50.5h11.4
				v29.4h-52.3v-29.4h11.4V536.3z M421.2,459.5h-36.3v47.4h36.3V459.5z"/>
			<path class="st0" d="M556.9,430l22.5,22.7v130.5l-22.5,22.5h-55.8l-22.5-22.5V452.7l22.5-22.7H556.9z M550.1,459.5h-42v116.8h42
				V459.5z"/>
			<path class="st0" d="M673.4,576.3V459.4h-11.2V430h52.3v29.4h-11.4v123.8l-22.5,22.5H630l-22.5-22.5V459.4H596V430h52.3v29.4
				h-11.2v116.9H673.4z"/>
			<path class="st0" d="M820.2,430l22.5,22.7v130.5l-22.5,22.5H731v-29.4h10.9v-117H731V430H820.2z M813.4,459.5h-42v116.8h42V459.5
				z"/>
		</g>
	</g>
	<g>
		<rect x="161" y="661.3" class="st1" width="758" height="17.6"/>
		<rect x="161" y="625.9" class="st1" width="758" height="17.6"/>
		<rect x="161" y="696.5" class="st1" width="758" height="17.6"/>
	</g>
	<g>
		<path class="st1" d="M907.4,366.8l4.6,14c0.2,0.6,0.7,0.9,1.3,0.9H928c1.3,0,1.9,1.7,0.8,2.5l-11.9,8.7c-0.5,0.3-0.7,1-0.5,1.5
			l4.6,14c0.4,1.3-1,2.3-2.1,1.5l-11.9-8.7c-0.5-0.3-1.1-0.3-1.6,0l-11.9,8.7c-1.1,0.8-2.5-0.3-2.1-1.5l4.6-14
			c0.2-0.6,0-1.2-0.5-1.5l-11.9-8.7c-1.1-0.8-0.5-2.5,0.8-2.5H899c0.6,0,1.1-0.4,1.3-0.9l4.6-14C905.2,365.6,907,365.6,907.4,366.8z
			"/>
		<path class="st1" d="M815.9,366.8l4.6,14c0.2,0.6,0.7,0.9,1.3,0.9h14.7c1.3,0,1.9,1.7,0.8,2.5l-11.9,8.7c-0.5,0.3-0.7,1-0.5,1.5
			l4.6,14c0.4,1.3-1,2.3-2.1,1.5l-11.9-8.7c-0.5-0.3-1.1-0.3-1.6,0l-11.9,8.7c-1.1,0.8-2.5-0.3-2.1-1.5l4.6-14
			c0.2-0.6,0-1.2-0.5-1.5l-11.9-8.7c-1.1-0.8-0.5-2.5,0.8-2.5h14.7c0.6,0,1.1-0.4,1.3-0.9l4.6-14
			C813.7,365.6,815.5,365.6,815.9,366.8z"/>
		<path class="st1" d="M724.4,366.8l4.6,14c0.2,0.6,0.7,0.9,1.3,0.9H745c1.3,0,1.9,1.7,0.8,2.5l-11.9,8.7c-0.5,0.3-0.7,1-0.5,1.5
			l4.6,14c0.4,1.3-1,2.3-2.1,1.5l-11.9-8.7c-0.5-0.3-1.1-0.3-1.6,0l-11.9,8.7c-1.1,0.8-2.5-0.3-2.1-1.5l4.6-14
			c0.2-0.6,0-1.2-0.5-1.5l-11.9-8.7c-1.1-0.8-0.5-2.5,0.8-2.5h14.7c0.6,0,1.1-0.4,1.3-0.9l4.6-14C722.2,365.6,724,365.6,724.4,366.8
			z"/>
		<path class="st1" d="M632.8,366.8l4.6,14c0.2,0.6,0.7,0.9,1.3,0.9h14.7c1.3,0,1.9,1.7,0.8,2.5l-11.9,8.7c-0.5,0.3-0.7,1-0.5,1.5
			l4.6,14c0.4,1.3-1,2.3-2.1,1.5l-11.9-8.7c-0.5-0.3-1.1-0.3-1.6,0l-11.9,8.7c-1.1,0.8-2.5-0.3-2.1-1.5l4.6-14
			c0.2-0.6,0-1.2-0.5-1.5l-11.9-8.7c-1.1-0.8-0.5-2.5,0.8-2.5h14.7c0.6,0,1.1-0.4,1.3-0.9l4.6-14
			C630.6,365.6,632.4,365.6,632.8,366.8z"/>
		<path class="st1" d="M541.3,366.8l4.6,14c0.2,0.6,0.7,0.9,1.3,0.9h14.7c1.3,0,1.9,1.7,0.8,2.5l-11.9,8.7c-0.5,0.3-0.7,1-0.5,1.5
			l4.6,14c0.4,1.3-1,2.3-2.1,1.5l-11.9-8.7c-0.5-0.3-1.1-0.3-1.6,0l-11.9,8.7c-1.1,0.8-2.5-0.3-2.1-1.5l4.6-14
			c0.2-0.6,0-1.2-0.5-1.5l-11.9-8.7c-1.1-0.8-0.5-2.5,0.8-2.5h14.7c0.6,0,1.1-0.4,1.3-0.9l4.6-14
			C539.1,365.6,540.9,365.6,541.3,366.8z"/>
		<path class="st1" d="M449.8,366.8l4.6,14c0.2,0.6,0.7,0.9,1.3,0.9h14.7c1.3,0,1.9,1.7,0.8,2.5l-11.9,8.7c-0.5,0.3-0.7,1-0.5,1.5
			l4.6,14c0.4,1.3-1,2.3-2.1,1.5l-11.9-8.7c-0.5-0.3-1.1-0.3-1.6,0l-11.9,8.7c-1.1,0.8-2.5-0.3-2.1-1.5l4.6-14
			c0.2-0.6,0-1.2-0.5-1.5l-11.9-8.7c-1.1-0.8-0.5-2.5,0.8-2.5h14.7c0.6,0,1.1-0.4,1.3-0.9l4.6-14
			C447.6,365.6,449.4,365.6,449.8,366.8z"/>
		<path class="st1" d="M358.2,366.8l4.6,14c0.2,0.6,0.7,0.9,1.3,0.9h14.7c1.3,0,1.9,1.7,0.8,2.5l-11.9,8.7c-0.5,0.3-0.7,1-0.5,1.5
			l4.6,14c0.4,1.3-1,2.3-2.1,1.5l-11.9-8.7c-0.5-0.3-1.1-0.3-1.6,0l-11.9,8.7c-1.1,0.8-2.5-0.3-2.1-1.5l4.6-14
			c0.2-0.6,0-1.2-0.5-1.5l-11.9-8.7c-1.1-0.8-0.5-2.5,0.8-2.5h14.7c0.6,0,1.1-0.4,1.3-0.9l4.6-14C356,365.6,357.8,365.6,358.2,366.8
			z"/>
		<path class="st1" d="M266.7,366.8l4.6,14c0.2,0.6,0.7,0.9,1.3,0.9h14.7c1.3,0,1.9,1.7,0.8,2.5l-11.9,8.7c-0.5,0.3-0.7,1-0.5,1.5
			l4.6,14c0.4,1.3-1,2.3-2.1,1.5l-11.9-8.7c-0.5-0.3-1.1-0.3-1.6,0l-11.9,8.7c-1.1,0.8-2.5-0.3-2.1-1.5l4.6-14
			c0.2-0.6,0-1.2-0.5-1.5l-11.9-8.7c-1.1-0.8-0.5-2.5,0.8-2.5h14.7c0.6,0,1.1-0.4,1.3-0.9l4.6-14
			C264.5,365.6,266.3,365.6,266.7,366.8z"/>
		<path class="st1" d="M175.2,366.8l4.6,14c0.2,0.6,0.7,0.9,1.3,0.9h14.7c1.3,0,1.9,1.7,0.8,2.5l-11.9,8.7c-0.5,0.3-0.7,1-0.5,1.5
			l4.6,14c0.4,1.3-1,2.3-2.1,1.5l-11.9-8.7c-0.5-0.3-1.1-0.3-1.6,0l-11.9,8.7c-1.1,0.8-2.5-0.3-2.1-1.5l4.6-14
			c0.2-0.6,0-1.2-0.5-1.5l-11.9-8.7c-1.1-0.8-0.5-2.5,0.8-2.5h14.7c0.6,0,1.1-0.4,1.3-0.9l4.6-14C173,365.6,174.8,365.6,175.2,366.8
			z"/>
	</g>
</g>
</svg>
