<?xml version="1.0" encoding="utf-8"?>
<!-- Generator: Adobe Illustrator 22.0.0, SVG Export Plug-In . SVG Version: 6.00 Build 0)  -->
<svg version="1.1" id="Layer_1" xmlns="http://www.w3.org/2000/svg" xmlns:xlink="http://www.w3.org/1999/xlink" x="0px" y="0px"
	 viewBox="0 0 1080 1080" style="enable-background:new 0 0 1080 1080;" xml:space="preserve">
<style type="text/css">
	.st0{fill:#2B568D;}
	.st1{fill:#D21B30;}
</style>
<g>
	<g>
		<path class="st0" d="M102,1029.4c-1.3-1.2-2-2.3-2-3.3c-0.2-0.4-0.3-1-0.3-1.8v-1.8v-8.5v-4.5c0-1,0.1-2,0.2-3c0.1-1,0.2-2,0.2-3
			c0-0.4-0.1-0.9-0.2-1.5c-0.1-0.6-0.2-1.1-0.2-1.5v-0.9h0.3c-0.2-0.2-0.3-0.6-0.3-1.2c0-0.4,0.2-1,0.7-1.8c0.2-0.2,0.3-0.4,0.3-0.6
			h0.3c-0.2-0.2-0.4-0.3-0.5-0.3c-0.1,0-0.3-0.1-0.5-0.3l-2-0.6l1.7-1.2c0-0.2,0.1-0.4,0.3-0.6h-0.3V945l1-1.5
			c-0.5-0.4-0.7-0.7-0.7-0.9c-0.2-0.4-0.3-0.8-0.3-1.2v-12.4v-17.9v-26.6v-13.6v-4.2v-0.3v-0.6v-0.6v-0.9c0-2.4-0.1-4.9-0.2-7.4
			c-0.1-2.5-0.2-4.9-0.2-7.1c0-1.6,0.1-3.2,0.2-4.7c0.1-1.5,0.2-3.1,0.2-4.7c0-1.4-0.1-2.7-0.3-3.9c-0.2-1.2-0.3-2.5-0.3-3.9
			c0-0.8,0.1-1.5,0.2-2.1c0.1-0.6,0.3-1.3,0.5-2.1c-0.2-0.2-0.3-0.5-0.3-0.9c-0.2-0.2-0.3-0.7-0.3-1.5c0-2.2,0.8-4,2.4-5.4l0.7-0.6
			h0.7c3.6,0.4,7.1,0.6,10.6,0.6c3.5,0,7,0,10.6,0c2.2,0,4.4,0,6.4-0.2c2-0.1,4.1-0.2,6.4-0.2c2.2,0,4.4,0.1,6.6,0.3
			c2.1,0.2,4.3,0.3,6.6,0.3c4,0,8.1-0.2,12.3-0.6c4.1-0.4,8.3-0.6,12.6-0.6c2.5,0,4.9,0.1,7.4,0.2c2.5,0.1,4.9,0.2,7.4,0.2
			c0.7,0,1.4,0,2.2-0.2c0.8-0.1,1.6-0.2,2.5-0.2c1.1,0,2.2,0.1,3.2,0.2c1,0.1,2.1,0.3,3.2,0.5c1.1,0.2,2.1,0.4,2.9,0.5
			c0.8,0.1,1.7,0.2,2.9,0.2h4.4c2.5,0,5,0.2,7.7,0.6c2.7,0.4,5.3,0.9,7.7,1.5c2.5,0.6,4.9,1.3,7.4,2c2.5,0.7,4.9,1.4,7.4,2
			c4.5,1.2,9.4,3.6,14.8,7.1c5.4,3.5,9.2,7.3,11.4,11.4c1.8,3.4,3.2,6.8,4.4,10.1c1.1,3.3,1.7,7,1.7,11c0,1.6,0,3.3,0,5
			c0,1.7-0.2,3.4-0.7,5c-1.3,6.1-4.8,12.2-10.4,18.3c-5.6,6.2-11.7,11.1-18.2,15h1.3h4l-2.7,2.4l-1,0.9c3.6,2.2,7.7,4.4,12.4,6.7
			c5.2,3,9.9,6.7,14.1,10.9c2,2.2,4,4.4,5.9,6.5c1.9,2.1,3.8,4.3,5.6,6.5c1.1,1.2,2,2.9,2.7,5c0.7,2.1,1.2,4.3,1.5,6.5
			c0.3,2.2,0.6,4.4,0.8,6.7c0.2,2.2,0.3,4,0.3,5.4c0,8.1-2,15.6-6.1,22.7c-4,7.1-9.6,13.2-16.8,18.5c-7.9,5.9-16,10.3-24.4,13.3
			c-8.4,3-17.1,5.3-26.1,6.7c-4.5,0.8-8.9,1.4-13.3,1.7c-4.4,0.3-8.9,0.6-13.6,0.8c-4.5,0.2-9.1,0.3-13.8,0.3c-4.7,0-9.5,0-14.5,0
			c-3.8,0-7.7,0.2-11.8,0.5c-4,0.3-8.1,0.5-12.1,0.5c-1.8,0-3.6-0.1-5.6-0.3c-1.9-0.2-3.8-0.3-5.5-0.3c-1.8,0-3.7,0.2-5.7,0.5
			c-2,0.3-3.9,0.5-5.7,0.5c-1.1,0-2-0.1-2.7-0.3c-0.2-0.2-0.8-0.5-1.7-0.9h-0.7c-0.5,0-0.8,0-1.2-0.2c-0.3-0.1-0.7-0.2-1.2-0.2
			c-1.8-0.4-3-0.6-3.7-0.6l-0.7-0.3L102,1029.4z M204.6,852v-0.6c-2,0.6-3.9,1.1-5.7,1.4c-1.8,0.3-3.9,0.5-6.4,0.5
			c-2,0-4-0.1-5.9-0.3c-1.9-0.2-3.9-0.3-5.9-0.3c-5.2,0-10.4,0.1-15.6,0.2c-5.3,0.1-10.5,0.2-15.6,0.2c-0.9,0-2.2,0.2-4,0.6
			c0.4,1.8,0.8,3.6,1,5.4c0.2,1.8,0.3,3.5,0.3,5.1v1.5l-0.7,1.2c0,0.4-0.1,0.8-0.2,1.1c-0.1,0.3-0.2,0.7-0.2,1.1
			c0,2.2,0.2,4.3,0.5,6.4c0.3,2,0.5,4.1,0.5,6.4c0,1.8-0.1,3.6-0.2,5.4c-0.1,1.8-0.2,3.7-0.2,5.8c0,1.4,0.2,2.8,0.5,4.2
			c0.3,1.4,0.5,2.6,0.5,3.6c0,0.4-0.1,0.8-0.2,1.2c-0.1,0.4-0.2,0.8-0.2,1.2c0,0.2-0.1,0.3-0.3,0.3c1.3,0,2.7-0.1,4-0.3
			c1.3-0.2,2.6-0.3,3.7-0.3c1.8,0,4.1-0.2,6.9-0.6c2.8-0.4,5.7-0.8,8.7-1.2c3-0.4,5.9-0.9,8.7-1.5c2.8-0.6,5-1.2,6.6-1.8
			c0.9-0.4,1.7-0.7,2.4-0.9c0.7-0.2,1.5-0.5,2.4-0.9c2.2-0.4,3.8-0.8,4.7-1.2c3.4-1,6.9-2.5,10.6-4.4c3.7-1.9,7-4.2,9.9-6.8
			c2.9-2.6,5.3-5.5,7.2-8.6c1.9-3.1,2.9-6.3,2.9-9.5c0-1.6-0.3-2.8-0.8-3.6c-0.6-0.8-1.2-1.5-1.9-2.1c-0.5-0.4-1.3-1-2.7-1.8
			c-0.9-0.8-1.6-1.5-2-2.1c-0.9,0-2-0.2-3.4-0.6c-0.5,0-1-0.1-1.5-0.3c-0.6-0.2-1.1-0.4-1.5-0.6c-1.1-0.4-2.1-0.7-2.9-0.9
			c-0.8-0.2-1.6-0.2-2.5,0h-1.3L204.6,852z M146.8,953.1c0,4.6-0.1,9.3-0.2,14.1c-0.1,4.7-0.2,9.4-0.2,14.1c0,2.2,0.1,4.3,0.2,6.4
			c0.1,2,0.3,4.1,0.5,6.4c9.9,0.6,19.9,0.9,30.3,0.9c4.9,0,9.8-0.3,14.5-0.9l14.1-2.7h0.3l0.7-0.6c1.1-0.4,2.2-0.9,3.4-1.5
			c1.1-0.4,2.2-0.9,3.4-1.4c1.1-0.5,1.9-0.9,2.4-1.1c5.4-2.8,9.6-6.1,12.8-9.7c3.1-3.6,4.7-8.2,4.7-13.6v-3.3
			c-0.2-0.4-0.3-1-0.3-1.8V958l-0.3-0.6c-1.3-2-3.1-4.3-5.4-6.8c-2.2-2.5-4.7-4.9-7.4-7.1c-2.7-2.2-5.4-4.1-8.2-5.6
			c-2.8-1.5-5.4-2.3-7.9-2.3c-3.6,0-7.1-0.1-10.4-0.3c-3.4-0.2-6.8-0.3-10.4-0.3c-1.8,0-3.9,0.3-6.4,0.9c-0.5,0.2-1,0.3-1.7,0.3
			c-0.7,0-1.2,0.1-1.7,0.3c-0.7,0-1.3,0.1-1.9,0.2c-0.6,0.1-1.2,0.2-1.8,0.2c-3.8,0-7.6,0-11.4,0c-3.8,0-7.6,0.2-11.4,0.6
			c0,0.6-0.1,1.2-0.2,1.7c-0.1,0.5-0.2,1.1-0.2,1.7c0,1,0.1,2.1,0.2,3.3c0.1,1.2,0.2,2.3,0.2,3.3c0,1.8-0.2,3-0.7,3.6l-0.3,0.6
			l1,0.3V953.1z"/>
		<path class="st0" d="M366.4,994.6l1.7-1.5c0.2,0,0.3-0.1,0.3-0.3c-0.5-0.4-0.7-1.3-0.7-2.7v-40c0-1,0.1-1.9,0.2-2.6
			c0.1-0.7,0.2-1.6,0.2-2.6v-1.5h0.7c-0.7-0.6-1-1.4-1-2.4c0-8.5-0.1-16.7-0.2-24.8c-0.1-8.1-0.2-16.2-0.2-24.5
			c0-2.8,0.1-5.6,0.2-8.3c0.1-2.7,0.2-5.5,0.2-8.3c0-0.8-0.1-1.7-0.2-2.6c-0.1-0.9-0.2-1.9-0.2-2.9c0-0.6,0.1-1.2,0.2-1.8
			c0.1-0.6,0.2-1.2,0.2-1.8c0-1.2-0.2-2.4-0.5-3.6c-0.3-1.2-0.5-2.4-0.5-3.6c0-0.4,0.1-0.9,0.3-1.4c0.2-0.5,0.4-1,0.7-1.4v-0.6
			c0-0.6-0.1-1.3-0.2-2c-0.1-0.7-0.2-1.4-0.2-2c0-1.2,0.1-2.5,0.2-3.8c0.1-1.3,0.2-2.8,0.2-4.4c0-2.2-0.2-4.5-0.5-6.8
			c-0.3-2.3-0.5-4.6-0.5-6.8v-1.2c0.4,0,0.7-0.2,0.7-0.6l0.3-0.3v-0.3h-0.3c0-0.4-0.2-0.6-0.7-0.6v-1.2c0-2.4,1.1-4.2,3.4-5.4
			l0.3-0.3h0.3c2.7,0,5.3,0.1,7.9,0.3c2.6,0.2,5.1,0.3,7.6,0.3c3.4,0,6.7-0.2,10.1-0.5c3.4-0.3,6.7-0.5,10.1-0.5
			c1.1,0,2.6,0.2,4.4,0.6c0.7,0.2,1.5,0.6,2.4,1.2c0.9,0.6,1.3,1.4,1.3,2.4c0,1.2-0.1,2.1-0.3,2.7c-0.2,0.4-0.3,0.9-0.3,1.5v2.7
			v10.6c0,1-0.1,1.8-0.3,2.4c0.2,0.4,0.3,1,0.3,1.8c0,0.8,0,1.7,0,2.7c0,1,0,2.2,0,3.6l-0.3,0.6h-0.7v0.3c-0.2,0-0.3,0.1-0.3,0.3
			c1.3,3.6,2,7.3,2,10.9c0,0.4-0.1,0.7-0.2,0.8c-0.1,0.1-0.2,0.3-0.2,0.5c0,0.6-0.1,1-0.3,1.2v1.2v2.1c0.2,0.6,0.3,1.4,0.3,2.4
			c0,1-0.1,1.9-0.2,2.7c-0.1,0.8-0.2,1.7-0.2,2.7c0,1.2,0.1,2.4,0.2,3.6c0.1,1.2,0.2,2.4,0.2,3.6v6.7c0,1.8,0.2,3.5,0.7,5.1
			c0.4,1.6,0.7,3.2,0.7,4.8c0,0.4-0.1,0.7-0.3,0.8c-0.2,0.1-0.3,0.3-0.3,0.5c0,0.4-0.1,0.7-0.2,0.8c-0.1,0.1-0.2,0.3-0.2,0.5
			c0,0.2-0.1,0.4-0.2,0.6c-0.1,0.2-0.2,0.5-0.2,0.9c0,1.6-0.1,3.3-0.2,5c-0.1,1.7-0.2,3.4-0.2,5c0,2.4,0.1,4.8,0.3,7.1
			c0.2,2.3,0.3,4.7,0.3,7.1v1.2c0,0.4-0.1,0.7-0.2,0.8c-0.1,0.1-0.2,0.3-0.2,0.5c0,0.4-0.1,0.7-0.2,0.9c-0.1,0.2-0.2,0.5-0.2,0.9
			v0.6c0.2,0.2,0.3,0.5,0.3,0.9c0,0.4,0.1,0.7,0.3,0.9v1.2c0,0.8-0.1,1.6-0.2,2.3c-0.1,0.7-0.2,1.5-0.2,2.3c0,1,0.1,2.1,0.2,3.2
			c0.1,1.1,0.2,2.2,0.2,3.2v0.6c0,0.2-0.1,0.4-0.3,0.6v0.3c0,0.2-0.2,0.7-0.7,1.5h1v19.4c0,1.4-0.1,2.8-0.2,4.2
			c-0.1,1.4-0.2,2.9-0.2,4.5c0,1.4,0.1,2.8,0.3,4.1c0.2,1.3,0.3,2.7,0.3,4.1c0,1.2-0.1,2.4-0.2,3.6c-0.1,1.2-0.2,2.3-0.2,3.3
			c0,0.4,0.1,0.9,0.2,1.4c0.1,0.5,0.2,1,0.2,1.4c2.7,0.2,5.4,0.4,8.2,0.5c2.8,0.1,5.6,0.2,8.2,0.2c1.8,0,3.4,0,4.9-0.2
			c1.5-0.1,3.1-0.2,4.9-0.2c3.1,0,6.3,0.2,9.6,0.5c3.2,0.3,6.4,0.5,9.6,0.5c7.2,0,14.3-0.3,21.5-0.8c7.2-0.5,14.3-0.8,21.5-0.8
			c5.6,0,9.2,1.2,10.8,3.6c0.4,0.8,0.7,2.1,0.7,3.9v5.4c0,1.2,0.2,2.1,0.7,2.7c0,0.4,0.1,0.7,0.2,0.9c0.1,0.2,0.2,0.5,0.2,0.9v1.8
			c0,0.2-0.1,0.8-0.2,1.8c-0.1,1-0.3,2.1-0.5,3.3c-0.2,1.2-0.5,2.3-0.7,3.3c-0.2,1-0.3,1.6-0.3,1.8c-0.2,2.2-1.8,3.3-4.7,3.3
			c-1.1,0-2.9,0-5.4-0.2c-2.5-0.1-5-0.2-7.7-0.2c-2.5,0-4.9,0.1-7.4,0.2c-2.5,0.1-4.5,0.4-6.1,0.8l-0.7,0.3c-0.5,0.2-0.8,0.4-1,0.6
			c-0.2,0.2-0.5,0.3-0.7,0.3l-1.3,0.6l-0.7-0.9c-1.3-1.2-2.9-1.8-4.7-1.8c-2,0-4,0.1-6.1,0.3c-2,0.2-4,0.3-6.1,0.3
			c-3.6,0-7-0.1-10.3-0.3c-3.3-0.2-6.6-0.3-9.9-0.3h-21.2c-3.1,0-6.1-0.2-8.9-0.5c-2.8-0.3-5.6-0.5-8.2-0.5c-4,0-8.1,0.1-12.1,0.2
			c-4,0.1-8.1,0.2-12.1,0.2c-1.3,0-2.8-0.4-4.4-1.2l-0.7,0.3h-2c-1.1,0-2.1-0.2-2.9-0.8c-0.8-0.5-1.2-1.4-1.2-2.6
			c0-1.4,0.1-2.8,0.2-4.1c0.1-1.3,0.2-2.6,0.2-3.8c0-0.4-0.1-0.8-0.2-1.2c-0.1-0.4-0.2-0.8-0.2-1.2c0-0.6,0.1-1,0.2-1.2
			c0.1-0.2,0.3-0.5,0.5-0.9c0-0.2-0.1-0.3-0.3-0.3c0-0.4-0.1-0.6-0.3-0.6v-1.2c0-0.6-0.1-1.3-0.2-2c-0.1-0.7-0.2-1.4-0.2-2
			c0-1,0.1-1.9,0.3-2.7c0.2-0.8,0.3-1.7,0.3-2.7c0-0.6,0.1-1,0.3-1.2v-0.3c-0.5-0.8-0.7-1.4-0.7-1.8c0-0.4,0.2-1,0.7-1.8l0.3-0.3
			l-0.3-0.3L366.4,994.6z"/>
		<path class="st0" d="M628.3,965.8c0,0.6,0.1,1.2,0.2,1.8c0.1,0.6,0.2,1.3,0.2,2.1c0.2,0.4,0.3,0.7,0.3,0.8c0,0.1,0.1,0.4,0.3,0.8
			v2.4c0,4.2,1.3,7.7,3.9,10.3c2.6,2.6,5.9,4.8,9.9,6.5c4,1.7,8.4,2.9,13.1,3.6c4.7,0.7,9.2,1.3,13.5,1.7c0.4,0,0.9,0.1,1.3,0.2
			c0.4,0.1,0.9,0.2,1.3,0.2c2,0,5-0.4,8.9-1.2c3.9-0.8,6.8-1.5,8.6-2.1c1.3-0.4,2.7-0.9,4-1.4c1.3-0.5,2.6-1.1,3.7-1.7
			c2-0.8,4-1.9,6.1-3.3c1.3-1.2,2.9-3.3,4.5-6.4c1.7-3,2.7-5.3,3.2-7c0.2-2,0.3-4,0.3-6.1c0-2,0-4.1,0-6.4c0-2.2,0.1-4.5,0.3-7
			c0.2-2.4,0.3-4.7,0.3-7v-0.3l-0.3-0.3v-0.9v-0.9c0.2,0,0.3-0.2,0.3-0.6v-0.3c-0.2-0.4-0.3-1.1-0.3-2.1c0-2-0.1-3.9-0.2-5.8
			c-0.1-1.8-0.2-3.7-0.2-5.8c0-8.1-0.1-16.1-0.2-24.2c-0.1-8.1-0.2-16.2-0.2-24.5c0-2.4,0.1-4.8,0.3-7.3c0.2-2.4,0.3-4.9,0.3-7.6
			c0-1-0.1-1.9-0.3-2.7c0-0.2-0.1-0.4-0.2-0.6c-0.1-0.2-0.2-0.5-0.2-0.9v-1.5c0-0.8,0.1-1.6,0.2-2.3c0.1-0.7,0.2-1.5,0.2-2.3
			c0-0.4-0.1-0.8-0.2-1.2c-0.1-0.4-0.2-0.8-0.2-1.2c0-0.4-0.1-0.7-0.3-0.8c-0.2-0.1-0.3-0.4-0.3-0.8v-1.2v-29.1l0.7-0.6
			c1.6-1,3.2-1.5,5-1.5H746c2.5,0,4.6,0,6.6,0c1.9,0,4.1,0.2,6.6,0.6l1,0.3v0.9c0.2,1,0.3,2.5,0.3,4.5c0,1.4-0.1,2.4-0.3,3
			c-0.2,1-0.3,2.4-0.3,4.2v4.8c0,3.4-0.3,6.8-1,10c-0.7,3.2-1,6.6-1,10c0,0.4,0.1,0.8,0.2,1.2c0.1,0.4,0.2,0.8,0.2,1.2
			c0.2,0.2,0.3,0.6,0.3,1.2v1.2v1.2c0,0.2-0.1,0.4-0.2,0.5c-0.1,0.1-0.2,0.3-0.2,0.5c0,0.4-0.1,0.7-0.3,0.9v0.3
			c0,1.6,0.1,3.1,0.3,4.5c0.2,1.4,0.3,2.8,0.3,4.2c0,1-0.1,1.9-0.2,2.6c-0.1,0.7-0.2,1.5-0.2,2.3c0,0.8,0.1,1.6,0.2,2.4
			c0.1,0.8,0.2,1.6,0.2,2.4v13.6c0.2,0.2,0.4,0.3,0.7,0.3c0,0.2,0.1,0.5,0.2,0.9c0.1,0.4,0.2,0.8,0.2,1.2c0,1.6-0.5,2.8-1.3,3.6
			c0.2,0.8,0.4,1.6,0.7,2.3c0.2,0.7,0.3,1.5,0.3,2.3c0,1.2-0.2,2.4-0.5,3.5c-0.3,1.1-0.5,2.3-0.5,3.5c0,2.6,0.1,5.2,0.2,7.7
			c0.1,2.5,0.2,5.1,0.2,7.7c0,0.6-0.1,1-0.3,1.2c0,0.4-0.1,0.7-0.3,0.9v0.3v0.3v0.3c0.4,0.4,0.7,1.1,0.7,2.1c0,0.4-0.1,0.9-0.2,1.5
			c-0.1,0.6-0.2,1.1-0.2,1.5c0,1.8,0.1,3.6,0.2,5.4c0.1,1.8,0.2,3.5,0.2,5.1v0.9l-0.7,0.3l-0.3,0.3h0.3c0.4,0.8,0.7,1.4,0.7,1.8v23
			c0,1.2-0.1,2.4-0.2,3.6c-0.1,1.2-0.3,2.4-0.5,3.6c-0.5,1-0.8,2.1-1,3.3c-0.2,1.2-0.6,2.3-1,3.3c-0.7,1.8-1.6,3.8-2.7,6.1
			c-0.7,1-1.3,1.9-1.9,2.7c-0.6,0.8-1.1,1.7-1.5,2.7c-1.3,2.6-3.4,5.3-6.2,7.9c-2.8,2.6-5.7,4.5-8.6,5.8c-1.1,0.4-2.4,1.1-3.7,2.1
			c-0.5,0.4-1,0.7-1.7,0.9c-0.7,0.2-1.2,0.5-1.7,0.9c-5.8,3-11.7,5.3-17.7,7c-5.9,1.6-12.2,2.9-18.7,3.9c-0.9,0-1.6,0.1-2.2,0.2
			c-0.6,0.1-1.2,0.3-1.8,0.5c-0.7,0-1.4,0.1-2.2,0.2c-0.8,0.1-1.5,0.2-2.2,0.2h-1l-0.7-0.3h-0.7h-0.7h-0.3c-0.2,0-0.5,0.1-0.7,0.3
			c-0.5,0-0.8,0.1-1,0.3h-1.3h-3c-0.9,0-1.6,0.1-2,0.3h-1.3c-0.5,0.2-1,0.3-1.7,0.3h-5c-1.6,0-3.1-0.1-4.5-0.3
			c-1.5-0.2-3.1-0.4-4.9-0.6c-8.7-1-17-2.7-24.7-5.1c-7.7-2.4-15.5-5.6-23.4-9.7c-2-1-4.1-2.3-6.2-3.8c-2.1-1.5-3.8-3.1-4.9-4.7
			c-0.5-0.4-0.8-0.8-1.2-1.2c-0.3-0.4-0.7-0.8-1.2-1.2c-0.2-0.4-0.5-0.8-0.8-1.2c-0.3-0.4-0.7-0.8-1.2-1.2c-4-4-6.6-8.7-7.7-13.9
			c-1.1-5.2-1.7-10.4-1.7-15.4v-23.3c0-1,0.1-1.9,0.3-2.7c0.2-0.8,0.3-1.6,0.3-2.4v-1.5h1c-0.2-0.2-0.3-0.4-0.3-0.6
			c-0.5,0-0.7-0.2-0.7-0.6c0-0.2-0.1-0.4-0.3-0.5c-0.2-0.1-0.3-0.4-0.3-0.8c0-10.3-0.1-20.5-0.2-30.6c-0.1-10.1-0.2-20.3-0.2-30.6
			c0-1,0.1-1.9,0.2-2.7c0.1-0.8,0.4-1.6,0.8-2.4c-0.7-1.6-1-3.2-1-4.8c0-0.6,0.1-1.2,0.2-1.8c0.1-0.6,0.2-1.2,0.2-1.8
			c0-1.4-0.1-2.6-0.3-3.6c0-1.8-0.1-2.8-0.3-3v-0.6v-0.6c0.2-0.4,0.3-1.1,0.3-2.1c0-1.4-0.1-2.8-0.3-4.1c-0.2-1.3-0.3-2.5-0.3-3.5
			c0-1.8,0.1-3.1,0.3-3.9c0.4-2.8,0.7-5.6,0.7-8.3c0-2.7,0-5.5,0-8.3c0-1.2,0-2.4,0-3.5c0-1.1,0.2-2.3,0.7-3.5V820h1.3
			c6.1-0.2,12.2-0.4,18.3-0.5c6.2-0.1,12.4-0.2,18.7-0.2c1.3,0,2.7,0.1,4.2,0.2c1.5,0.1,2.9,0.3,4.2,0.5l1.3,0.3v26.3
			c0,1-0.5,2.1-1.3,3.3c0.9,0.8,1.3,1.5,1.3,2.1v0.9c-0.5,0.2-0.7,0.5-0.7,0.9l-0.3,0.9h-1h-0.7v0.3v0.9v1.2c0,0.8,0.1,1.6,0.3,2.3
			c0.2,0.7,0.3,1.6,0.3,2.6c0,1.2-0.1,2.4-0.3,3.6c-0.2,1.2-0.3,2.4-0.3,3.6c0,1,0.1,2,0.3,3c0.2,1,0.3,2,0.3,3
			c0,1.8-0.1,3.7-0.3,5.6c-0.2,1.9-0.3,3.8-0.3,5.6c0,2,0.2,4,0.5,5.9c0.3,1.9,0.5,3.9,0.5,5.9c0.4,0.8,0.7,1.5,0.7,2.1
			c0,0.8-0.2,1.6-0.7,2.4c0,0.4-0.3,0.9-1,1.5c0.7,1.4,1,2.9,1,4.5c0,1.2-0.2,2.4-0.5,3.5c-0.3,1.1-0.5,2.3-0.5,3.5
			c0,2.6,0.2,5.2,0.5,7.7c0.3,2.5,0.5,5.1,0.5,7.7c0,0.6-0.1,1-0.3,1.2c0,0.4-0.2,0.7-0.7,0.9v0.3v0.3v0.3c0.7,0.2,1,0.9,1,2.1
			c0,0.4-0.1,0.9-0.2,1.5c-0.1,0.6-0.2,1.1-0.2,1.5c0,1.6,0.1,3.2,0.2,4.7c0.1,1.5,0.2,3.1,0.2,4.7v0.3l-0.3,1.5l-1,0.9l1.3,2.1
			V965.8z"/>
		<path class="st0" d="M848.6,1028.8c-0.5-1.2-0.7-2.3-0.7-3.3c0-0.8,0.1-1.5,0.2-2.1c0.1-0.6,0.2-1.3,0.2-2.1c0-1-0.1-1.9-0.3-2.6
			c-0.2-0.7-0.3-1.6-0.3-2.6v-0.9c0.2-0.2,0.3-0.5,0.3-0.9v-1.2v-1.8c-0.2-0.4-0.3-0.8-0.3-1.2v-1.5c0-1.2,0.1-2.5,0.2-3.9
			c0.1-1.4,0.3-2.8,0.5-4.2v-0.3l-1-0.6l0.7-1.2v-0.6V997c0.2-0.2,0.3-0.4,0.3-0.6l-1-1.8l0.7-0.9c0.4,0,0.7-0.2,0.7-0.6
			c-0.5-0.8-0.7-1.6-0.7-2.3c0-0.7,0-1.4,0-2V984c0-5.6-0.1-11.2-0.2-16.8c-0.1-5.5-0.2-11.1-0.2-16.8v-1.5c0-0.4,0.1-0.7,0.2-0.8
			c0.1-0.1,0.2-0.3,0.2-0.5c0-0.4,0.1-0.8,0.2-1.1c0.1-0.3,0.2-0.7,0.2-1.1v-1.5h0.7c0-0.4-0.2-0.6-0.7-0.6c0-0.4-0.1-0.7-0.2-0.9
			c-0.1-0.2-0.2-0.5-0.2-0.9c0-10.3-0.1-20.6-0.2-30.9c-0.1-10.3-0.2-20.6-0.2-30.9c0-0.8,0-1.6,0-2.4c0-0.8,0.2-1.6,0.7-2.4
			c-0.2-0.2-0.3-0.4-0.3-0.6c0-0.2-0.1-0.5-0.3-0.9v-2.4c0-0.4,0.1-0.9,0.2-1.5c0.1-0.6,0.2-1.1,0.2-1.5c0-1.6-0.2-3.2-0.7-4.7
			c-0.5-1.5-0.7-3.1-0.7-4.7c0-0.2,0.1-0.4,0.3-0.5c0.2-0.1,0.3-0.3,0.3-0.5c0-0.4,0.1-0.7,0.3-0.9V856v-1.8c0-0.2-0.1-0.3-0.2-0.5
			c-0.1-0.1-0.2-0.3-0.2-0.8v-1.2c0-1.8,0.1-3.6,0.2-5.4c0.1-1.8,0.2-3.7,0.2-5.8c0-1.6-0.2-3.1-0.5-4.4c-0.3-1.3-0.5-2.7-0.5-4.1
			c0-0.6,0.1-1.2,0.3-1.8c0.2-0.6,0.4-1.2,0.7-1.8c-0.2-0.4-0.3-0.9-0.3-1.5c0-1.8,0.1-3,0.3-3.6c0.2-0.6,1-1.5,2.4-2.7l0.3-0.6h0.7
			c3.6,0.4,7.1,0.6,10.4,0.6c3.4,0,6.7,0,10.1,0c8.7,0,17.5-0.2,26.2-0.5c8.7-0.3,17.4-0.5,25.9-0.5c3.8,0,7.6,0.1,11.3,0.2
			c3.7,0.1,7.5,0.2,11.3,0.2c1.3,0,2.7,0,4-0.2c1.3-0.1,2.7-0.2,4-0.2h27.2c2.9,0,4.7,1.4,5.4,4.2c0.2,1,0.4,2,0.5,3
			c0.1,1,0.2,2,0.2,3c0,1.6-0.1,3.1-0.3,4.5c-0.2,1.4-0.3,2.9-0.3,4.5v6.4c0,0.8-0.1,1.5-0.3,2.1c-0.2,0.6-0.3,1.3-0.3,2.1v1.5h-1.3
			h-2h-1.3c-2-0.6-3.8-1-5.2-1.1c-1.5-0.1-3.2-0.2-5.2-0.2h-15.1c-3.1,0-6.1,0-8.9-0.2c-2.8-0.1-5.8-0.2-8.9-0.2
			c-1.8,0-3.6,0.1-5.4,0.3c-1.8,0.2-3.6,0.3-5.4,0.3h-12.8h-18.8h-0.3c-0.5,0-0.8,0.1-1,0.3H894v0.6c0.2,0,0.3,0.2,0.3,0.6
			c0,0.6-0.1,1-0.3,1.2c-0.2,0.2-0.5,0.4-0.7,0.6c0,1,0.2,2.3,0.7,3.9c0.2,1,0.3,1.9,0.3,2.6c0,0.7,0,1.6,0,2.6v1.5
			c0,0.4-0.1,0.7-0.2,0.8c-0.1,0.1-0.2,0.4-0.2,0.8c0,0.4-0.1,0.8-0.2,1.1c-0.1,0.3-0.2,0.7-0.2,1.1c0,1.4,0.1,2.7,0.3,3.9
			c0.2,1.2,0.3,2.4,0.3,3.6c0,1.6-0.1,3.1-0.2,4.5c-0.1,1.4-0.2,2.9-0.2,4.5v9.7c0,1,0.2,2.3,0.7,3.9c0,0.4,0.1,0.7,0.3,0.9
			c0.2,0.2,0.3,0.5,0.3,0.9c0,0.4,0.1,0.8,0.2,1.1c0.1,0.3,0.2,0.7,0.2,1.1v0.3c-0.2,0.2-0.3,0.4-0.3,0.6c-0.5,0.2-0.7,0.4-0.7,0.6
			c-0.2,0.4-0.3,0.9-0.3,1.5v1.2c0,0.2,0.1,0.4,0.3,0.6c2.7,0.6,5.4,0.9,8.1,0.9c2.9,0,5.8-0.2,8.6-0.5c2.8-0.3,5.5-0.5,8.2-0.5
			c1.8,0,3.5,0.1,5.2,0.2c1.7,0.1,3.3,0.2,4.9,0.2c2.5,0,4.9-0.1,7.4-0.3c2.5-0.2,4.9-0.3,7.4-0.3h14.5c2,0,3.6,0.3,4.9,0.8
			c1.2,0.5,2.3,1.8,3.2,3.8c1.6,4.2,2.4,8.4,2.4,12.4c0,2.4-0.6,4.9-1.7,7.6c-0.9,1.6-1.8,2.5-2.7,2.7c-0.9,0.4-1.6,0.6-2,0.6h-2
			c-4.7,0-9.5,0.1-14.3,0.3c-4.8,0.2-9.7,0.3-14.6,0.3c-4.5,0-9.1,0.1-13.8,0.3c-4.7,0.2-9.3,0.3-13.8,0.3c-1.8,0-3.4-0.1-4.9-0.3
			c-1.5-0.2-3.1-0.3-4.9-0.3h-0.3v16l-0.7,0.6h0.7v1.5c0,3,0.1,6.1,0.2,9.1c0.1,3,0.2,6,0.2,8.8c0,1.6-0.1,3.1-0.2,4.5
			c-0.1,1.4-0.2,2.9-0.2,4.5c0,1.2,0.1,2.1,0.3,2.7c0,0.4,0.1,0.7,0.3,0.8c0.2,0.1,0.3,0.4,0.3,0.8v1.5c0,1-0.1,2.1-0.3,3.3
			c-0.2,1.2-0.3,2.4-0.3,3.6v7.6h1.3c0.2,0.2,0.8,0.3,1.7,0.3c0.9,0.4,1.8,0.6,2.7,0.6c0.4,0,1-0.1,1.5-0.3c0.6-0.2,1.2-0.3,1.8-0.3
			c1.1,0,2.1,0.1,3,0.3c0.9,0.2,1.9,0.3,3,0.3c7.8,0,15.7,0.1,23.5,0.2c7.8,0.1,15.7,0.3,23.5,0.5c2.5,0,4.9,0.1,7.4,0.3
			c2.5,0.2,4.9,0.3,7.4,0.3c1.6,0,3.1,0,4.5-0.2c1.5-0.1,3-0.2,4.5-0.2c1.1,0,1.9,0.4,2.4,1.2c0.4,0.8,0.7,1.4,0.7,1.8
			c0.4,0.8,0.7,1.6,0.8,2.4c0.1,0.8,0.3,1.6,0.5,2.4v8.5v8.2c0,1.6-0.6,2.8-1.7,3.6c-0.9,0.4-1.6,0.6-2,0.6c-0.2,0-0.5,0.1-0.8,0.2
			c-0.3,0.1-0.7,0.2-1.2,0.2c-1.8,0.2-3.6,0.4-5.5,0.5c-1.9,0.1-3.8,0.2-5.6,0.2c-1.8,0-3.6-0.1-5.5-0.3c-1.9-0.2-3.8-0.3-5.5-0.3
			c-3.4,0-6.8,0.2-10.3,0.5c-3.5,0.3-7,0.5-10.6,0.5c-7.9,0-15.6-0.3-23.2-0.8c-7.6-0.5-15.4-0.8-23.2-0.8c-2.5,0-5,0.1-7.7,0.2
			c-2.7,0.1-5.3,0.2-7.7,0.2h-0.7h-0.7c0,0.2-0.2,0.3-0.7,0.3h-1h-1c-3.6-0.4-7.1-0.7-10.4-0.8c-3.4-0.1-6.7-0.4-10.1-0.8l-1-0.3
			L848.6,1028.8z M893.6,850.8v-0.3c-0.2,0.2-0.7,0.3-1.3,0.3H893.6z"/>
	</g>
	<g>
		<path class="st1" d="M275.3,760.6l0.7-0.7c0.5,0,1-0.4,1.5-1.1c0.3-0.3,0.7-0.4,1-0.4v-0.2v-0.2c0-0.3,0-0.5,0.1-0.6
			c0.1-0.1,0.1-0.3,0.1-0.6c0-0.4,0-0.8,0.1-1.1c0.1-0.3,0.1-0.5,0.1-0.7c0.5-1.9,1-3.8,1.6-5.8c0.6-1.9,1.1-3.8,1.6-5.5
			c0.3-0.7,0.6-1.4,0.9-2c0.2-0.6,0.5-1.3,0.6-2c0.3-0.7,0.6-1.3,0.9-1.8c0.2-0.4,0.4-1,0.6-1.8c0.8-3.2,1.7-6.4,2.7-9.5
			c1-3.1,2-6.1,3-9.1c0.3-1.2,0.7-2.3,1-3.4c0.3-1.1,0.7-2.2,1-3.4l3.7-9.7c1.3-4.3,2.6-8.5,3.8-12.6c1.2-4.1,2.6-8.3,4.1-12.4
			c0.7-1.6,1.1-3.2,1.4-4.7c0.2-1.5,0.6-3,1.1-4.4c1.1-2.5,2.1-5.2,2.7-8.2c0.5-1.5,0.9-2.9,1.4-4.2c0.4-1.3,0.9-2.5,1.4-3.5
			c0.3-0.6,0.5-1,0.5-1.3c0.3-0.3,0.5-0.6,0.5-0.9c0-0.3,0.1-0.6,0.2-0.9c0-1.5,0.3-2.8,1-4c0.5-0.4,0.7-1,0.7-1.6
			c0-1,0.1-1.8,0.2-2.2c0.7-2.5,1.4-4.9,2.3-7.2c0.9-2.3,1.8-4.7,2.6-7.2c0.7-2.1,1.2-4.1,1.7-6c0.5-1.9,1-3.8,1.5-5.5
			c0.7-1.6,1.4-2.6,2.2-2.9c0.3-0.1,0.9-0.2,1.7-0.2c0.2-0.1,0.7-0.2,1.7-0.2c2.3-0.1,4.6-0.4,6.9-0.7c2.3-0.3,4.6-0.4,6.9-0.4h16.5
			c4.1,0,8.1,0.2,12.1,0.7c1.3,0.1,2.5,0.2,3.7,0.1c1.1-0.1,2.4-0.1,3.7-0.1h0.7l0.2,0.9c0.5,1.5,1.1,3.1,2,4.9
			c0.3,0.9,0.6,1.8,0.7,2.8c0.2,1,0.2,1.8,0.2,2.5c0.5,2.7,1.2,5.2,2.2,7.8c0.8,1.8,1.5,3.5,2.1,5.3c0.6,1.8,1,3.7,1.4,5.8
			c0.8,3.8,1.8,7.7,3.1,11.5c1.2,3.8,2.3,7.7,3.3,11.5l0.2,0.9l-0.7,0.2l1.2,0.7v0.4c0.3,1,0.5,2,0.6,2.9c0.1,0.9,0.2,1.8,0.4,2.9
			c0.3,1.2,0.6,2.2,0.7,3.1c0.2,0.9,0.4,1.8,0.7,2.7l0.5,0.7c0.2,0.4,0.5,1.6,1.1,3.4c0.6,1.8,1.2,3.8,1.8,6
			c0.7,2.1,1.3,4.1,1.8,5.9c0.6,1.8,0.9,2.8,0.9,3.1c0,1.5,0.5,2.7,1.5,3.5l0.5,0.2v0.4c0.5,2.7,1.1,5.3,1.7,8
			c0.7,2.7,1.3,5.4,2,8.2c0.5,2.7,1.3,5.2,2.5,7.8c0.8,1.8,1.4,3.6,1.6,5.4c0.2,1.8,0.4,3.7,0.4,5.4c0.8,0.9,1.3,1.6,1.5,2.2
			c0.2,0.6,0.3,1.2,0.5,1.8v1.8c0.2,0.3,0.2,0.6,0.2,0.8c0,0.2,0.2,0.5,0.5,0.8c0.3,1.2,0.7,2.2,1.1,3.1c0.4,0.9,0.8,1.9,1.1,3.1
			c0.3,0.7,0.5,1.4,0.6,2c0.1,0.6,0.2,1.2,0.4,1.8c0.2,0.9,0.7,1.9,1.7,3.1l0.2,0.4l-0.2,0.4c-0.2,0.1-0.2,0.5-0.2,1.1
			c0,0.4,0,0.9,0.1,1.4c0.1,0.5,0.1,1,0.1,1.4c0,2.2-1.2,3.3-3.4,3.3c-0.8,0-1.6-0.1-2.2-0.2c-0.7-0.1-1.4-0.2-2.2-0.2
			c-1.3,0-2.6,0-3.8,0.1c-1.2,0.1-2.4,0.1-3.6,0.1h-6.2c-1,0-2,0-3.1,0c-1.1,0-2,0.1-2.8,0.4h-1c-0.2,0.1-0.4,0.2-0.7,0.2
			c-3,0-4.8-1.3-5.7-3.8c-0.7-2.1-1.2-4.1-1.5-6c-0.3-1.9-0.8-3.9-1.5-6c-1.2-3.8-2.3-7.6-3.6-11.3c-1.2-3.7-2.3-7.5-3.1-11.5
			c-0.8-0.1-1.6-0.2-2.3-0.2c-0.7,0-1.5,0-2.3,0c-0.8,0.1-1.8,0.2-2.8,0.2c-1.1,0-2.1,0-3.1,0c-4.8,0-9.6-0.1-14.4-0.2
			c-4.8-0.1-9.6-0.2-14.4-0.2h-14c-0.5,1.2-1.4,3.8-2.8,7.8c-1.4,4-2.8,8.1-4.3,12.4c-1.5,4.3-2.8,8.2-3.8,11.7
			c-1.1,3.5-1.6,5.5-1.6,5.8v0.7l-0.7,0.2c-1.3,0.6-2.6,1-3.9,1.1c-1.3,0.1-2.6,0.2-3.9,0.2c-1.3,0-2.6,0-3.9-0.1
			c-1.3-0.1-2.6-0.1-3.9-0.1c-2.1,0-4.3,0.1-6.4,0.2c-2.1,0.1-4.4,0.2-6.6,0.2c-1.6,0-2.9-0.4-3.7-1.3c-0.3-0.3-0.6-0.5-0.7-0.7
			c-0.2-0.1-0.3-0.3-0.5-0.4c-0.7-0.6-1.1-1-1.2-1.3L275.3,760.6z M350.2,639.8v0.9c0,1.3-0.4,3.1-1.2,5.2c-0.8,2.1-1.4,3.8-1.7,5
			c-0.7,1.6-1.2,3.3-1.5,5c-0.3,1.7-0.8,3.4-1.5,5c-0.5,1.2-0.9,2.3-1.4,3.3c-0.4,1-0.8,2.1-1.1,3.3c-0.3,1-0.6,2-0.7,3
			c-0.2,1-0.2,2-0.2,3.2c0,0.4-0.2,0.9-0.7,1.3c-0.3,0.6-0.6,1.1-0.9,1.4c-0.2,0.4-0.5,0.8-0.6,1.2c0,0.6-0.1,1-0.2,1.3
			c0,0.4-0.2,1.1-0.5,2c-0.3,0.4-0.6,1-0.7,1.6c-0.2,0.6-0.3,1.2-0.5,1.8c-0.2,0.4-0.3,1-0.4,1.6c-0.1,0.6-0.3,1.3-0.6,2
			c-0.3,1.3-0.6,2.6-0.9,3.9c-0.2,1.3-0.7,2.4-1.4,3.4c-0.2,0.3-0.4,0.6-0.6,0.9c-0.2,0.3-0.5,0.6-0.6,0.9c-0.2,0.4-0.2,1-0.2,1.6
			v1.3v0.7c0,0.1,0,0.3-0.1,0.4c-0.1,0.1-0.1,0.3-0.1,0.4c-0.5,0.6-0.7,1.2-0.7,1.8c-0.3,0.4-0.5,0.9-0.6,1.2
			c-0.1,0.4-0.3,0.8-0.6,1.2c1.1,0.1,2.3,0.3,3.4,0.3c1.1,0.1,2.4,0.1,3.7,0.1c1.8,0,3.6,0,5.4-0.1c1.8-0.1,3.6-0.1,5.4-0.1
			c1.8-0.1,3.6-0.2,5.3-0.2c1.7,0,3.2,0,4.6,0c1.1,0.1,2.2,0.3,3.1,0.3c0.9,0.1,1.8,0.3,2.6,0.6c0.7-0.3,1.3-0.4,1.8-0.4
			c0.6,0,1.2-0.1,1.8-0.2c0.7,0,1.2,0,1.7,0.1c0.5,0.1,1.1,0.1,2,0.1h1.2c-2.6-12-5.8-23.7-9.5-35.2c-3.7-11.5-7.1-23.2-10.2-35
			c-0.2,0.1-0.2,0.3-0.2,0.4c-0.2,0.9-0.5,1.7-1,2.4v0.4L350.2,639.8z"/>
		<path class="st1" d="M476.5,762.1v-0.4c-0.2-0.1-0.2-0.4-0.2-0.7c0-0.6-0.1-1-0.2-1.3c0-0.6,0-1.2,0-1.9c0-0.7-0.1-1.4-0.2-2.1
			v-7.3v-1.1c0-0.3,0-0.5,0.1-0.6c0.1-0.1,0.1-0.2,0.1-0.3c0-0.3,0-0.6,0.1-0.9c0.1-0.3,0.1-0.6,0.1-0.9v-0.2l-0.2-0.2
			c0-0.3-0.1-0.5-0.2-0.7v-0.9v-0.4l0.2-0.4c0.3,0,0.5-0.1,0.5-0.4c0-0.1,0-0.3-0.1-0.6c-0.1-0.2-0.1-0.5-0.1-0.8
			c0-0.3,0.1-0.5,0.2-0.7v-0.4h-0.2l-0.7-0.2v-57.2c0-1.2,0-2.3,0.1-3.3c0.1-1,0.1-2.1,0.1-3.3c0-1.3-0.1-2.7-0.4-4.1
			c-0.2-1.4-0.4-2.8-0.4-4.1c0-2.2,0.1-4.4,0.4-6.5c0.2-2.1,0.4-4.3,0.4-6.5v-0.2l-0.2-0.4v-0.7v-0.7c0-0.7,0.2-1.2,0.5-1.3
			c-0.7-1.2-1-2.1-1-2.9c0-0.4,0.1-0.9,0.2-1.4c0.2-0.5,0.3-0.9,0.5-1.2c0-0.3-0.1-0.5-0.2-0.7c0-0.3-0.1-0.6-0.2-0.8
			c-0.2-0.2-0.2-0.5-0.2-0.8c0-3,0.1-5.8,0.2-8.5c0.2-2.7,0.2-5.6,0.2-8.5v-9.1c0-0.4-0.1-0.8-0.2-1.2c-0.2-0.4-0.2-0.8-0.2-1.2
			c0-1.6,0.4-2.6,1.2-3c0.8-0.4,1.9-0.6,3.2-0.6c1.6,0,3.2,0,4.7,0.1c1.5,0.1,3,0.1,4.7,0.1c3.4,0,6.9-0.1,10.3-0.2
			c3.4-0.1,6.9-0.2,10.3-0.2c3.8,0,6.8,1.2,9.1,3.5c2.3,2.4,4.3,5,5.9,7.8c0.8,1.5,1.6,3,2.3,4.4c0.7,1.5,1.5,2.8,2.3,4
			c1.5,2.7,3.1,4.4,4.9,5.3l0.2,0.2l0.2,0.2c0.3,0.6,0.6,1.1,0.7,1.6c0.2,0.4,0.3,0.9,0.5,1.3c0.2,0.6,0.4,1.1,0.6,1.6
			c0.2,0.4,0.5,0.9,0.9,1.3c2.5,4.1,5.2,8.2,8.1,12.2c3,4,5.8,7.9,8.6,11.7c0.7,1,1.2,2,1.6,2.8c0.4,0.8,0.9,1.7,1.6,2.8
			c1.1,1.6,2.2,3.2,3.2,4.8c1,1.6,2.1,3.1,3.2,4.8c0.5,0.7,1.1,1.6,1.7,2.4c0.7,0.9,1.3,1.7,2,2.4c0.8,0.9,1.5,1.8,2,2.7
			c0.5,0.9,1.1,1.8,1.7,2.7c0.2,0.3,0.2,0.7,0.2,1.3c0,0.3,0.2,0.4,0.5,0.4c0,0.1,0.1,0.2,0.2,0.2l0.5,0.4c0.3,0.1,0.8,0.6,1.4,1.4
			c0.6,0.8,1.2,1.7,1.8,2.7c0.7,1,1.2,1.8,1.7,2.7c0.5,0.8,0.8,1.4,1,1.7c0.2,0.3,0.2,0.6,0.2,0.8s0.1,0.4,0.2,0.6l0.2,0.2
			c0.2,0,0.2,0.1,0.2,0.2c0-4.1,0.2-8.3,0.7-12.4c0.5-4.1,0.7-8.3,0.7-12.4c0-0.1-0.1-0.2-0.2-0.2h-0.2v-0.4v-0.2
			c0.3-0.4,0.5-1.2,0.5-2.2c0-1.3-0.1-2.6-0.2-3.9c-0.2-1.3-0.2-2.5-0.2-3.7c0-0.7,0-1.5-0.1-2.3c-0.1-0.8-0.1-1.6-0.1-2.3v-0.7
			v-0.4l0.2-0.4v-0.4c0-1.5,0-2.9-0.1-4.3c-0.1-1.4-0.1-2.8-0.1-4.3c0-0.3,0.1-0.6,0.4-1c0.2-0.4,0.4-0.7,0.6-1c0-0.1,0-0.3-0.1-0.4
			c-0.1-0.1-0.1-0.4-0.1-0.7c-0.5-0.7-0.7-1.4-0.7-2c0-0.4,0.1-0.7,0.2-0.9v-0.7c0.3-0.1,0.5-0.4,0.5-0.7v-0.4v-0.9
			c-0.3-0.1-0.5-0.4-0.5-0.7v-0.7c0-1.5,0-2.9-0.1-4.3c-0.1-1.4-0.1-2.8-0.1-4.3v-4.9c0-1.6,0-3.3-0.1-5.1c-0.1-1.8,0-3.5,0.1-5.1
			v-0.9c0.2-0.1,0.2-0.3,0.2-0.4c0.3-0.3,0.5-0.5,0.5-0.7v-0.7c-0.3-0.1-0.5-0.4-0.5-0.7c-0.2-0.3-0.2-0.9-0.2-1.8
			c0-1.2,0.4-2,1.4-2.3c0.9-0.4,1.8-0.6,2.6-0.6c1.6,0,3.2,0,4.8,0.1c1.6,0.1,3.2,0.1,4.8,0.1c3.6,0,7.1-0.1,10.6-0.2
			c3.4-0.1,7-0.2,10.6-0.2c2.5,0,4.5,0.7,6.2,2.2l0.5,0.4l-0.2,0.7l-0.2,0.4c0,0.1,0,0.3-0.1,0.4c-0.1,0.1-0.1,0.3-0.1,0.4
			c-0.2,0.1-0.2,0.4-0.2,0.9H620v0.2c0,0.6,0.1,1.1,0.2,1.7c0.2,0.5,0.2,1.1,0.2,1.7v4.7c-0.3,0.7-0.5,1.4-0.5,2.1s0,1.2,0,1.7
			c0.5,0.6,0.7,1.2,0.7,1.8c0,0.4-0.1,0.7-0.2,0.9v0.7c-0.3,0.3-0.5,0.7-0.5,1.1c0,0.1,0.2,0.3,0.5,0.4l1,1.1l-1.5,0.4l-0.5,0.4
			c0.3,0.6,0.5,1.2,0.5,1.8c0,0.6,0.2,1.2,0.5,1.8v2c0,0.9,0.1,1.6,0.2,2v0.2v0.4c-0.2,0.3-0.3,0.6-0.5,1c-0.2,0.4-0.2,0.8-0.2,1.2
			c0,0.9,0.1,1.8,0.4,2.7c0.2,0.9,0.4,1.7,0.4,2.4v7.1c0,1.2,0,2.3-0.1,3.2c-0.1,1-0.1,2-0.1,3c0,0.7,0,1.4,0.1,2
			c0.1,0.6,0.1,1.3,0.1,2v0.2c0.2,0.1,0.2,0.3,0.2,0.4l0.5,0.4c0,0.1,0.1,0.3,0.2,0.3c0.2,0.1,0.2,0.3,0.2,0.6l0.2,0.4l-0.7,0.4
			c0,0.3-0.2,0.6-0.5,0.9c0,0.1-0.2,0.5-0.5,1.1c0.3,1.5,0.5,2.6,0.5,3.3c0,0.7-0.1,1.6-0.2,2.4c-0.2,0.9-0.2,1.7-0.2,2.4
			c0,1.8,0,3.5,0.1,5.3c0.1,1.8,0.1,3.5,0.1,5.3c0,0.7-0.1,1.3-0.2,1.8v0.9c0.3,0.9,0.5,1.6,0.5,2.2v5.8c0,0.6,0,1.2-0.1,1.9
			c-0.1,0.7-0.1,1.4-0.1,2.1v0.4l-0.7,0.4l1,0.2v10.4v5.1c0,0.4,0,0.9-0.1,1.4c-0.1,0.5-0.1,1-0.1,1.4c0,0.1,0.1,0.2,0.2,0.2
			c0,0.3,0.1,0.5,0.2,0.7c0,0.1,0,0.3,0.1,0.3c0.1,0.1,0.1,0.3,0.1,0.6l-0.5,0.9v0.2c-0.2,0.1-0.2,0.4-0.2,0.7v0.9
			c0,0.1,0,0.3,0.1,0.3c0.1,0.1,0.1,0.3,0.1,0.6c0.2,0.7,0.3,1.5,0.4,2.2c0.1,0.7,0.1,1.5,0.1,2.2c-0.2,0.7-0.2,1.4-0.2,2
			c0,0.6,0,1.3,0,2c0,1.2-0.1,2.4-0.2,3.8c-0.2,1.3-0.2,2.6-0.2,3.8c0,1.2,0.2,2.4,0.7,3.5c0,0.3,0.1,0.6,0.2,0.8
			c0.2,0.2,0.2,0.5,0.2,0.8c0,0.3,0,0.5,0.1,0.7c0.1,0.1,0.1,0.4,0.1,0.7c0,0.4-0.1,0.7-0.2,0.9v0.7c-0.3,0.3-0.5,0.7-0.5,1.1
			c0,0.6,0.2,1.1,0.5,1.6c0,0.4,0.1,0.7,0.2,0.9v1.1c0,1.8-0.9,3-2.7,3.8c-0.3,0.1-0.7,0.2-1,0.2c-0.3,0-0.7,0.1-1,0.2
			c-0.5,0-1.1,0.1-1.7,0.4c-0.7,0.1-1.3,0.3-2,0.3c-0.7,0.1-1.4,0.1-2.2,0.1c-1.5,0-3-0.1-4.4-0.2c-1.5-0.1-3-0.2-4.4-0.2
			c-3.1,0-6.2,0.1-9.1,0.2c-3,0.1-6,0.2-9.1,0.2h-0.5l-0.7-0.4c-2.3-3.5-4.7-7-7.3-10.4c-2.5-3.4-5-6.9-7.3-10.4
			c-0.7-0.9-1.2-1.7-1.5-2.3c-0.3-0.7-0.7-1.4-1.2-2.1c-0.3-0.9-1.4-2.2-3.2-4l-0.7-0.4l0.7-0.9h-0.2l-0.7-0.2l-0.2-0.2
			c-1-1.5-2-2.9-3.1-4.3c-1.1-1.4-2.1-2.9-3.1-4.5c-0.3-0.4-0.6-0.9-0.9-1.3c-0.2-0.4-0.5-0.9-0.9-1.3c-0.3-0.4-0.7-0.8-1.1-1.1
			c-0.4-0.3-0.9-0.6-1.4-0.9c-0.2-0.1-0.4-0.5-0.7-1.1c-1.6-3.1-3.4-6-5.3-8.8c-1.9-2.7-3.9-5.5-6-8.3c-1.6-2.1-3.1-4.1-4.3-6.2
			c-1.2-2.1-2.6-4.1-4.1-6.2l-0.2-0.9l0.2-0.2c-0.5-0.3-0.9-0.6-1.1-0.8c-0.2-0.2-0.5-0.5-0.9-0.8c-0.3-0.4-0.7-0.9-1-1.3
			c-0.3-0.4-0.7-0.9-1-1.3c-1.3-1.6-2.6-3.4-3.8-5.3c-1.2-1.9-2.3-3.8-3.1-5.5v-0.4l-0.2,0.2l-0.5-0.7c-0.7-1.2-1.6-2.3-3-3.3
			c0.3,0.1,0.5,0.4,0.5,0.7c0,1-0.5,2-1.5,2.9c0.3,1.5,0.5,2.6,0.5,3.3c0,0.7-0.1,1.6-0.2,2.4c-0.2,0.9-0.2,1.7-0.2,2.4
			c0,1.9,0,3.7,0.1,5.4c0.1,1.7,0.1,3.5,0.1,5.4c0,0.7-0.2,1.5-0.7,2.2c0.5,2.1,0.7,4.1,0.7,6.1c0,2,0.1,4,0.2,5.9v0.4l-1,0.7h0.7
			v1.1c0,2.2,0.1,4.5,0.4,6.8c0.2,2.3,0.4,4.5,0.4,6.5c0,0.1-0.1,1.1-0.4,3c-0.2,1.8-0.5,3.2-0.6,4.1c0.5,1,0.7,2.1,0.7,3.3
			c0,0.6,0,1.2-0.1,1.8c-0.1,0.6-0.1,1.3-0.1,2c0,0.7,0,1.5,0.1,2.3c0.1,0.8,0.1,1.6,0.1,2.3c0,0.7,0,1.5-0.1,2.2
			c-0.1,0.7-0.3,1.5-0.6,2.2c0.2,0.3,0.2,0.6,0.2,0.9c0,0.3,0.1,0.6,0.2,0.9v2.2c0,0.6,0.1,1.1,0.2,1.6v0.9c0,0.1,0,0.3,0.1,0.4
			c0.1,0.1,0.1,0.3,0.1,0.4c0,1.5-0.1,2.9-0.4,4.2c-0.2,1.3-0.4,2.7-0.4,4.2c0,0.3,0.1,0.5,0.2,0.7l1.7,1.6l-2.7,0.2
			c-1.3,0.1-2.6,0.3-3.8,0.3c-1.2,0.1-2.5,0.3-3.8,0.6c-1.2,0.1-2.7,0.3-4.7,0.3c-2,0.1-4,0.1-6,0.1c-2.1,0-4.1,0-6,0
			c-2,0-3.7,0-5.2,0c-0.7,0-1.3,0-2-0.1c-0.7-0.1-1.4-0.2-2.2-0.3c-1.3-0.3-2.5-0.4-3.7-0.4h-0.7L476.5,762.1z"/>
		<path class="st1" d="M686.7,742.2c0-0.1,0-0.3-0.1-0.3c-0.1-0.1-0.1-0.2-0.1-0.3v-0.7v-0.4V740c0.2-0.1,0.2-0.3,0.2-0.4
			c-0.2,0-0.2-0.1-0.2-0.2v-0.4l-0.2-0.2l-0.5-0.9l1-0.2c0-0.1,0.1-0.2,0.2-0.2l-0.5-0.2v-35.9h0.7l-0.5-0.4
			c-0.2-0.1-0.2-0.4-0.2-0.7c-0.2,0-0.2-0.2-0.2-0.7c0-7.2-0.1-14.5-0.2-21.7c-0.2-7.2-0.2-14.5-0.2-21.7v-8.2
			c0-0.3,0.1-0.5,0.2-0.6c0.2-0.1,0.2-0.3,0.2-0.6V646c0.2-0.1,0.2-0.4,0.2-0.7v-0.7v-0.2v-0.2c-0.2-0.1-0.2-0.3-0.2-0.4v-0.7v-16.2
			c0-1.3-0.2-2.7-0.5-4c-0.3-1.3-0.5-2.7-0.5-4c0-1,0.3-1.9,1-2.7v-0.4c0-0.1-0.1-0.2-0.2-0.2c-0.2,0-0.2-0.1-0.2-0.2v-0.2
			c-0.2-0.1-0.2-0.4-0.2-0.7c0-0.7,0.2-1.4,0.7-2.1c0.5-0.7,0.9-1.2,1.2-1.7l0.5-0.2h0.5c3.8,0,7.5,0,11.3-0.1
			c3.8-0.1,7.5-0.1,11.3-0.1c5.7,0,12,0.2,18.7,0.7c6.7,0.4,12.8,1.4,18.2,2.9c1.3,0.3,2.6,0.5,3.9,0.7c1.3,0.1,2.5,0.4,3.7,0.7
			c0.8,0.1,1.5,0.4,2,0.9c0.8,0.1,1.6,0.4,2.2,0.9c0.8,0.3,1.5,0.6,2.1,0.8c0.6,0.2,1.1,0.3,1.6,0.3c1.1,0.1,2.1,0.7,2.7,1.6
			l0.2,0.2h0.2c0.3,0,0.5,0,0.5-0.1c0-0.1,0.1-0.1,0.2-0.1h0.7c0.5,0,0.9,0.1,1.2,0.4l0.7,0.7c0.2,0.1,0.2,0.3,0.2,0.3
			c0,0.1,0.1,0.2,0.2,0.3c1.5,0.1,3,0.9,4.4,2.2c0.5,0.4,1.1,0.7,1.7,0.9c0.5,0.3,0.9,0.5,1.4,0.6c0.4,0.1,0.8,0.3,1.1,0.6
			c1.8,0.9,3.7,2,5.5,3.2c1.9,1.3,3.7,2.5,5.3,3.7c1.3,1,2.7,2.1,4.1,3.1c1.4,1,2.7,2.1,4.1,3.3c3.4,3,6.5,6.5,9.1,10.5
			c2.6,4.1,4.8,8.3,6.5,12.9c1.7,4.5,3,9.1,3.9,13.7c0.9,4.7,1.4,9.1,1.4,13.2c0,1.6-0.2,3.4-0.5,5.2c-0.3,1.8-0.6,3.6-0.7,5.2
			c-0.7,6.6-2.8,12.8-6.5,18.5c-3.7,5.7-7.9,11-12.7,16.1c-3.3,3.5-6.8,6.8-10.5,9.9c-3.7,3-7.9,5.8-12.7,8.3
			c-0.8,0.4-1.7,0.9-2.6,1.4c-0.9,0.5-1.8,1-2.6,1.4c-1.2,0.3-2.2,0.7-3.2,1.1c-1,0.4-2,0.8-3,1.1c-2.8,0.7-5.5,1.5-8.1,2.3
			c-2.6,0.8-5.3,1.6-8.1,2.3c-2,0.6-4.3,1-6.9,1.3c-2.6,0.3-5.3,0.5-8.1,0.7c-2.8,0.1-5.5,0.3-8.2,0.3c-2.7,0.1-5.1,0.1-7.3,0.1
			h-14.8c-2.5-0.1-4.9-0.3-7.4-0.4c-2.5-0.1-4.8-0.4-6.9-0.9c-1.3-0.3-2-1-2-2.2v-9.1c0-0.7,0-1.4-0.1-2.1c-0.1-0.7-0.1-1.4-0.1-2.1
			v-1.1c0.2-0.1,0.2-0.4,0.2-0.9c0-0.1,0-0.3,0.1-0.3c0.1-0.1,0.1-0.2,0.1-0.3v-0.4v-0.2v-0.4c-0.2,0-0.2-0.1-0.2-0.4v-0.7v-0.4
			L686.7,742.2z M722,736.4c-0.2,0.4-0.2,0.9-0.2,1.2c0,0.4-0.1,0.7-0.2,1c1.3,0.3,2.5,0.4,3.4,0.4c5.4,0,10.7-0.5,16-1.4
			c5.3-1,10.3-2.5,15-4.8c0.8-0.3,1.6-0.6,2.2-1c0.7-0.4,1.4-0.8,2.2-1.2c1.6-0.7,3-1.6,3.9-2.4c5.1-3.8,9.7-8.4,13.8-13.7
			c0.3-0.6,0.7-1.1,1.1-1.7c0.4-0.5,0.8-1.1,1.1-1.7c0.3-0.6,0.7-1.1,1-1.7c0.3-0.5,0.6-1.1,0.7-1.7c1.3-3,2.2-6,2.7-9.2
			c0.5-3.2,0.7-6.4,0.7-9.6c0-4.3-0.7-8.6-2.2-13.1c-0.3-1.5-0.8-2.9-1.5-4.3c-0.7-1.4-1.3-2.8-2-4.1c0-0.1,0-0.3-0.1-0.3
			c-0.1-0.1-0.1-0.2-0.1-0.3c-0.2-0.1-0.2-0.3-0.2-0.4c0-0.1-0.2-0.3-0.5-0.4c-0.2-0.3-0.3-0.6-0.5-1c-0.2-0.4-0.2-0.8-0.2-1.2v-0.7
			c0-0.1-0.1-0.2-0.2-0.2c-0.5-0.1-0.8-0.4-1-0.9c-0.8-0.6-1.5-1.3-2-2.2c-0.3-0.3-0.7-0.7-1-1.1c-0.3-0.4-0.7-0.8-1-1.1
			c-1.2-1.6-2.7-2.8-4.7-3.5c-1-0.4-2.1-0.9-3.3-1.4c-1.2-0.5-2.3-1.1-3.3-1.9c-0.2-0.3-0.4-0.4-0.6-0.4c-0.2,0-0.5-0.1-0.6-0.2
			c-0.2-0.3-0.6-0.6-1.2-0.9c-3.3-1.6-6.4-3-9.2-4.2c-2.9-1.2-5.7-2.2-8.5-3c-2.8-0.8-5.8-1.4-9-1.8c-3.2-0.4-6.8-0.6-10.7-0.6
			c-0.8,0-1.4,0.1-1.7,0.2c0.3,1.5,0.5,2.5,0.5,3.1c0,0.3,0,0.5-0.1,0.6c-0.1,0.1-0.1,0.2-0.1,0.3v0.7c-0.2,0.3-0.2,0.6-0.2,0.9
			c0,0.6,0,1.1,0.1,1.6c0.1,0.4,0.1,1,0.1,1.6c0,2.7,0,5.3,0.1,8c0.1,2.7,0.1,5.4,0.1,8.2c0,0.9,0.2,1.8,0.5,2.8
			c0.3,1,0.5,1.9,0.5,2.8c-0.2,0-0.2,0.1-0.2,0.2c-0.2,0.1-0.2,0.3-0.2,0.4c-0.2,0.1-0.2,0.3-0.2,0.4c-0.2,0.3-0.2,0.7-0.2,1.3
			c0,0.7,0,1.5,0.1,2.3c0.1,0.8,0.1,1.6,0.1,2.3c0,0.6-0.1,1.2-0.2,1.8c-0.2,0.6-0.2,1.2-0.2,1.8c0,0.7,0,1.5,0.1,2.2
			c0.1,0.7,0.1,1.5,0.1,2.2c0,1.5,0,2.9-0.1,4.2c-0.1,1.3-0.1,2.7-0.1,4c0,1.3,0,2.7,0.1,4c0.1,1.3,0.1,2.7,0.1,4v4.9l-1,0.9
			l1.2,0.2v0.9c0,3.5,0,7.1-0.1,10.5c-0.1,3.5-0.1,7-0.1,10.5c0,0.6,0.1,1.1,0.2,1.6c0,0.3,0.1,0.5,0.2,0.7v1.1v0.7
			c-0.2,0.1-0.2,0.3-0.2,0.4v0.4v0.2v0.4c0.2,0.1,0.3,0.2,0.5,0.2c0.2,0,0.3,0.1,0.5,0.2l0.5,0.4L722,736.4z"/>
	</g>
	<path class="st0" d="M370.5,227.5c-6.3-5.6-11.9-8.4-16.8-8.4c-5.6,0-10,2.2-13.1,6.7c-1.5,2.3-2.2,4.9-2.2,7.7
		c0,0.5,0.1,1.7,0.4,3.6c0.2,1.9,1.9,4.1,5.1,6.6c9.6,8.4,15.8,18.7,18.6,30.9c4.1,14.7,6.4,29.6,6.9,44.8l0.2,21.5
		c0,38.6-3,77-8.9,115.1c-3.1,22.9-8.7,45.4-16.6,67.3c-4.5,12.7-10.6,24.6-18.3,35.6c-6.6,9.7-15.2,17.2-25.7,22.5
		c-4.9,2.3-9.7,3.5-14.1,3.5c-6.4,0-12.5-2.4-18.3-7.2c-16-14.5-26.9-34.5-32.7-59.9c-1.2-3.6-1.7-7.3-1.7-11.1
		c0-6.6,2-13.2,5.9-19.8c15.3-25.1,26.3-52.1,32.9-80.9c3.6-13.7,5.4-27.6,5.4-41.8l-0.2-10.6c-0.7-8.6-2.7-16.7-6.2-24.5
		c-3.6-7.3-8.9-10.9-15.8-10.9c-7.8,0-15.5,5.3-23.3,15.8c-9.2,12.4-15.8,26.1-19.6,41.1c-7.3,24.6-11,49.7-11.1,75.5
		c0.2,10.1,0.6,20.1,1.2,30.2l0.7,13.9c-3.8,5.1-6.8,9-9.2,11.5c-2.3,2.6-4.7,4.4-7.1,5.4c-2.4,1.1-5.7,2-9.8,2.8
		c-2.3-2.1-3.8-4.7-4.6-7.5c-0.7-2.9-1.2-5.9-1.4-9c-1-15.2-1.5-30.4-1.5-45.5l1.7-37.1c1.2-19.5,1.7-35.7,1.7-48.8
		c0-14-0.6-28-1.7-41.8c-1.2-8.9-3.6-17.7-7.4-26.2c-8.4-19.3-24.3-29.7-47.5-31.2c-6.1,0-12,1.2-17.8,3.5
		c-4.1,1.8-6.2,5.2-6.2,10.1c0.2,2.5,1.1,4.7,2.8,6.6c1.7,1.9,3.8,3,6.3,3.3c1.5,0.2,3.1,0.2,4.7,0.2h6.2
		c13.4,0.8,20.9,11,22.5,30.4l0.2,13.4c0,5.9-0.2,11.9-0.5,17.8l-5.4,61.9c-1,9.9-1.5,19.9-1.5,29.9c0,14.8,1.2,29.7,3.5,44.5
		c2,14.2,6.8,27.2,14.6,39.1c8.1,11.1,17.4,16.6,28,16.6c6.1,0,12.7-1.9,19.8-5.7c3.5-2,7-4.2,10.6-6.7l5.9-4.2
		c1,2.3,1.8,4.5,2.5,6.7c1.3,3.8,2.6,7.3,4,10.6c6.6,18,16.7,33.7,30.2,47.3c12.2,11.2,25,16.8,38.4,16.8c10.4,0,21-3.3,31.9-10
		c10.9-6.7,20.1-15.3,27.7-25.9c13.5-18.3,23.8-38.2,30.9-59.6c20-58.7,30.4-119.1,31.2-181.2v-3.5c0-19.5-2.7-38.7-8.2-57.7
		C393.5,254.1,384,239.4,370.5,227.5z M228.9,450.4c-0.3-0.2-0.7-0.5-1-0.7c-0.3-0.2-0.5-0.5-0.5-0.6c0-25.7,3.7-50.9,11.1-75.5
		c1.2-4.6,2.8-9.2,4.9-13.7c2.1-4.5,5.4-8.9,9.9-13.2c0.8,6.3,1.2,12.6,1.2,19.1c0,12-1.9,26.2-5.7,42.6
		c-3.8,16.3-10.2,30.6-19.3,42.8C229.5,450.9,229.2,450.6,228.9,450.4z M475.8,369.3c-2.7-2.8-4.1-6.4-4.1-10.9
		c0.3-4.3,2-7.9,5.1-10.9c3-3,7-4.5,11.8-4.7c4.3,0,7.8,1.4,10.5,4.2c2.7,2.8,4.1,6.2,4.1,10.1c0,4.5-1.8,8.4-5.4,11.9
		c-3.1,3-6.9,4.5-11.4,4.7C482,373.6,478.5,372.1,475.8,369.3z M984.5,444.3c-0.8-0.3-1.7-0.5-2.5-0.5c-1.8,0-4.3,1.1-7.3,3.3
		c-3.1,2.2-5.6,6.9-7.5,14c-15.5,34-31.7,56.8-48.5,68.6c-9.4,6.4-17.8,9.7-25.2,9.7c-6.1,0-11.6-2.1-16.3-6.4
		c-8.4-7.4-12.6-21.1-12.6-41.1c0-5.4,0.3-11.4,1-17.8l14.8-4.9c19.6-6.6,35.6-18.3,47.8-35.1c7.6-10.1,11.4-20.6,11.4-31.7
		c0-16.3-7.9-28.3-23.8-35.9c-5.9-2.3-11.9-3.5-17.8-3.5c-4.8,0-9.6,0.7-14.4,2.2c-18.3,5.8-32.2,16.9-41.6,33.4
		c-12,19.2-18.8,40.6-20.4,64l-3.6,10.3c-3.5,10.6-7.4,21.1-11.8,31.6c-4.4,10.5-9.8,20.5-16.2,30.1c-4.1,6.1-9.3,11.2-15.6,15.3
		c-6.3,4.1-12,6.2-17.1,6.2c-7.4,0-13.5-4.2-18.3-12.7c-4.8-8.5-9-17.3-12.6-26.4c-2.5-6.4-4.8-13-6.9-19.6
		c-2.6-7.9-5.5-15.7-8.7-23.3c-4-10.4-9.1-20-15.3-29c-7.6-9.2-16.5-13.9-26.7-13.9c-4.9,0-10.2,1.1-15.8,3.2
		c-10.1,4-18.3,10.1-24.7,18.3c-7.6,9.6-14.4,19.6-20.3,30.2c-4.5,8.6-8.6,17.3-12.4,26.2c-5.4,13-8.8,20.5-10.1,22.5l-1.7-0.5
		l0.2-4.5c0.2-3.3,0.6-6.6,1.2-9.9l10.6-48c1.3-5.4,2.1-10.9,2.2-16.3c-0.5-6.9-3.3-12-8.4-15.3c-3.3-2.1-6.8-3.2-10.6-3.2
		c-2.1,0-4.5,0.3-6.9,1c-6.8,2.6-11.1,7.4-12.9,14.4c-0.2,0.6-0.4,1.3-0.5,1.9c-0.2,0.3-0.3,0.7-0.5,1c-0.2,0.5-0.4,0.9-0.7,1.2
		c-9.7,21.5-17.3,37.4-22.8,47.8c-10.1,19-20.5,32.2-31.4,39.6c-5.4,3.5-10.3,5.2-14.6,5.2c-7.3,0-12.5-5.4-15.8-16.1
		c-2.5-10.1-3.7-20.3-3.7-30.7c0.5-20.8,4.9-41,13.4-60.6c2.8-5.4,4.2-10.6,4.2-15.3c0-8.9-4.6-15.4-13.9-19.6
		c-2.8-1-5.5-1.5-8.2-1.5c-6.9,0-13,3.8-18.3,11.4c-2.6,4.8-4.2,8.1-4.7,9.9c-5.3,12.2-9.2,24.5-11.6,36.9
		c-3.1,15.7-4.7,28.1-4.7,37.4c0,21.6,4.6,39,13.9,52.2c11.9,17.3,26.5,26,43.8,26c11.7,0,23.3-4.5,34.7-13.4
		c8.9-7.4,16.6-16,23-25.7c3.5-5.3,6.8-10.8,10-16.2c-0.2,6.8-0.4,13.6-0.4,20.4c0,7.6,0.2,15.3,0.5,23c0.3,7.8,1.6,15.4,4,23
		c1.8,5.1,4.8,9.6,8.9,13.4c3.1,2.6,6.4,4,9.9,4c0.7,0,2.2-0.2,4.6-0.5c2.4-0.3,4.9-2.5,7.5-6.4c4.1-6.1,7.3-12.5,9.7-19.3
		c2.6-7.4,4.9-14.8,6.9-22.3l4-12.6c5.6-18.8,13.3-36.7,23-53.7c4.8-9.4,11.3-17.3,19.6-23.8l0.7-0.5c3-2.5,5.9-3.7,8.9-3.7
		c1.5,0,3.1,0.3,4.9,1c1,3,2.6,8.4,4.9,16.3c1.6,4.9,3.2,10,4.7,15.1c3.8,12.5,8,24.8,12.6,36.9c7.3,19.3,19.7,34.6,37.4,46
		c9.6,5.9,19.3,8.9,29.2,8.9c8.1,0,16.3-2.1,24.7-6.2c9.4-4.5,17.5-10.8,24.3-19.1c8.9-10.2,15.8-21.6,20.8-34.2
		c2-5.2,3.8-10.2,5.6-15c2.9,8.3,6.7,16.4,11.5,24.2c13,18.6,29.7,28,50,28c5.8,0,11.9-0.7,18.3-2.2c21.3-6.6,37.9-19.2,49.7-37.9
		c12.5-19.6,21.9-40.7,28.2-63.1c1-2.8,1.6-5.8,1.7-8.9l0.5-2.7C987.5,446.5,986.5,445,984.5,444.3z M869.4,446.3
		c3.5-19,12.7-32.8,27.7-41.6c2.6-1.5,5.5-2.3,8.7-2.5c6.1,0.3,9.2,3.1,9.2,8.2c0,1.3-0.5,4.3-1.5,8.9c-1,4.6-5.7,11.1-14,19.6
		c-8.3,8.4-18.8,13.7-31.3,15.8L869.4,446.3z"/>
	<g>
		<path class="st1" d="M437.2,246.9c6.2,0.3,6,0.2,7.7,6.4c5.5,20.2,10.4,40.5,14.7,60.9c2.8,13.4,5.7,26.9,7.1,40.6
			c0.3,3.4-0.8,5.7-3.2,7.6c-5.5,4.4-11.9,7.3-18.5,9.8c-6.5,2.5-13.4,4.4-18.7,9.2c-4.6,4.1-5.5,9.3-2.8,14.9
			c2.3,4.8,6.5,6.7,12.7,5.7c1.1-0.2,2.2-0.5,3.3-0.7c27.6-6.6,55.1-13.2,82.7-19.8c8.2-2,16.4-3.8,24.6-5.9c7-1.8,10-5.5,9.9-11.7
			c-0.1-6-3.9-10.3-10.6-11.7c-4.3-0.9-8.6-0.7-13-0.2c-7.2,0.9-14.5,1.7-21.8,1.1c-1.4-0.1-2.5-0.2-3.6-0.4
			c0.3,1.4,0.5,2.9,0.5,4.5c0,2-0.3,3.9-0.8,5.7c8.9,1.2,17.7,0.4,26.6-0.8c2.8-0.4,5.6-0.6,8.4-0.4c1.7,0.2,3.4,0.3,4.4,2.9
			c-17.7,4.2-35.4,8.5-53,12.7c-1.6,0.6-3.4,1-5.2,1.2c-18.6,4.5-37.3,8.9-56,13.4c-0.2-3.8,2.5-4.7,4.6-5.7
			c6.8-3,13.8-5.5,20.6-8.5c4.5-2,8.6-4.5,12.3-7.7c-2.2-3.3-3.3-7.2-3.3-11.7c0-0.1,0-0.3,0-0.4c0.4-5.5,2.6-10.3,6.6-14.1
			c0.7-0.6,1.4-1.2,2.1-1.8c-1.4-9-3.1-17.9-5-26.8c-4.7-22.2-10-44.3-16-66.2c-3.4-12.3-3.3-11.9-15.9-12.4
			c-28.7-1.1-53.5-11.4-72.7-33.4c-9.8-11.3-14.2-24.7-14-39.5c0.3-24.3,2.2-48.4,6.4-72.3c0.9-5.2,3.1-7.7,8.5-8.9
			c33.4-7.7,66.6-15.7,99.9-23.9c4.4-1.1,7-0.1,9.6,3.3c8.9,11.6,16.8,23.8,24.4,36.2c6,9.8,11.8,19.7,16.6,30.2
			c8.4,18.4,6.3,36.7-2.2,54.4c-10.3,21.5-26.3,37.5-47.8,47.9c-4.1,2-5.5,4.6-4.9,9c3.4,23.1,9.3,45.6,14.8,68.2
			c2.5,10.2,5.2,20.3,8.4,30.2c0.9-0.1,1.9-0.2,2.9-0.3c0.1,0,0.1,0,0.2,0c2.9,0,5.6,0.5,8,1.5c-9.9-31.4-17.1-63.4-23.5-95.6
			c-0.6-3.1,0.1-4.7,3-6.2c22.1-12.1,38.7-29.5,49.1-52.5c9.9-21.9,10.4-43.8-1.1-65.6c-7.6-14.4-15.8-28.4-24.6-42
			c-5.8-8.9-11.7-17.8-19.1-25.6c-3.6-3.8-7.4-5.1-12.8-3.7c-17.9,4.6-36,8.7-54,13c0,0,0,0,0,0c-17.7,4.2-35.4,8.7-53.3,12.6
			c-5.7,1.3-8.8,4.3-10.3,9.6c-0.5,1.8-1,3.5-1.4,5.3c-5.1,25.7-6.9,51.6-6.8,77.7c0.1,14.3,4.1,27.5,12.7,38.9
			C375.2,232.7,403.5,245.1,437.2,246.9z"/>
		<path class="st1" d="M500.5,186.2c4.4-8.6,8.7-17.3,8.2-27.4c-0.3-4.9-1.3-5.7-5.9-4.7c-21,5-42,10-63,15.1c0,0,0,0,0,0
			c-5.6,1.3-11.2,2.7-16.8,4c-15.5,3.7-31.1,7.4-46.6,11.2c-4.8,1.2-5.3,2.1-3.4,6.7c1.5,3.5,3.5,6.7,6.2,9.5
			c20.1,20.3,43.3,29.6,72.4,22.4C473.5,217.5,490.1,206.4,500.5,186.2z"/>
	</g>
	<path class="st1" d="M983.1,598.6c-7.5-3-15.3-5-23.3-5.9c-16.7-1.9-33.5-3.4-50.3-3.6c-9-0.1-18,1-26.7,3.4c-3.6,1-7.3,0.7-10.9,1
		c-10.8,0.7-21.5,1.8-32.3,2c-5.3,0.1-10.7,0-16-0.4c-10.1-0.7-20.1-0.8-30.1,0.9c-13.2,2.3-26.4,1.8-39.7,1
		c-1.1-0.1-2.1-0.2-3.2-0.1c-0.8,0-1.3,0.6-1.4,1.4c-0.1,0.8,0.3,1.5,1,1.7c1.2,0.4,2.5,0.7,3.8,1c13,2.8,26.1,4.7,38.8,8.5
		c11.1,3.3,22.4,3.2,33.8,2.6c6.9-0.4,13.7-0.4,20.6-0.1c12.2,0.5,24.4,0.8,36.6,0.4c9.6-0.3,19.1-1.4,28.4-4
		c2.6-0.7,5.2-0.4,7.8-0.1c10.2,1.4,20.3,0.8,30.5,0.2c2.1-0.1,4.3,0,6.7,0c-0.4,0.4-0.7,0.7-0.9,0.8c-9.4,3-17.1,8.6-24.1,15.3
		c-2,1.9-4.1,2.7-6.9,2.9c-14.5,0.7-28.9,0-43.3-0.6c-8.2-0.4-16.3-0.8-24.4,1.2c-1.9,0.5-4,0.6-5.4,2.2c0.4,1.6,1.7,1.7,2.8,2
		c5.3,1.9,10.7,3,16.3,3.5c7.3,0.7,14.7,1,22,1.5c5.3,0.4,10.6,1.1,15.9,1.6c2.1,0.2,4.2,0.4,6.4,0.7c0.4,0.7-0.1,1.1-0.5,1.5
		c-4.1,4.4-8.3,8.8-12.2,13.4c-1.1,1.3-2.3,1.4-3.8,1.3c-8.5-0.2-17-0.6-25.6-0.4c-9.8,0.2-19.7,0.4-29.5,0.6c-0.9,0-1.9,0-2.8,0.2
		c-2,0.4-3.2,1.8-3.2,3.6c0,1.8,0.8,2.7,3.2,3c7.8,1.2,15.7,2.1,23.6,2.8c8.8,0.8,17.7,1.2,26.6,1.4c0.2,1.3-0.8,1.8-1.3,2.5
		c-2.7,3.3-5.6,6.4-8.2,9.8c-1.2,1.6-2.5,2.1-4.5,2c-12.5-0.5-24.8,0.8-37.1,3.3c-0.5,0.1-0.9,0.1-1.4,0.2c-1.6,0.4-2.4,1.4-2.4,3.1
		c0.1,1.5,0.9,2.4,2.4,2.6c3,0.4,6.1,0.9,9.1,1.3c7.9,0.8,15.8,0.8,23.8,0.8c0.8,0,1.6,0,2.9,0c-1.1,6.6-0.1,12.6,2.2,18.7
		c-1.3,0.6-2.4,0.3-3.5,0.2c-9.1-0.9-18.2-1.3-27.2-2.5c-2.6-0.3-3.9,0.5-4.3,2.5c-0.5,2.2,0.6,3.7,3.2,4.2
		c11.8,2.4,23.4,6,35.5,6.8c1.2,0.1,2.2,0.4,3,1.6c3.1,5.1,6.2,10.1,9.4,15.1c0.2,0.4,0.5,0.8,0.1,1.5c-3.6,0.2-7.4,0.1-11.1-0.3
		c-10.8-1-21.7-2.5-32.6-2.5c-0.8,0-1.7-0.1-2.5,0c-1.8,0.2-2.9,1.4-3,3c-0.1,1.5,1,2.9,2.6,3.4c0.2,0.1,0.5,0.1,0.7,0.1
		c9.8,0.8,19.4,3.3,29,5c7.7,1.4,15.4,2.7,23.6,2.8c1.8,3.8,3.7,7.7,5.8,12.1c-4.3,0-8.1-0.1-11.8,0c-18.1,0.4-36.2,0.9-54.3,1.4
		c-1.1,0-2.7-0.4-2.8,1.3c-0.1,1.8,1.5,1.4,2.6,1.5c12.9,1.2,25.6,3.4,38.3,5.3c10.9,1.6,21.8,3.2,32.8,3.4c2.1,0,3.5,0.7,4.7,2.5
		c1.4,2,3.1,3.9,4.6,5.8c0.7,0.9,1.6,1.7,1.7,2.9c-0.5,0.5-0.9,0.4-1.4,0.4c-7.7-0.6-15.4-0.1-23.1,0.6c-0.9,0.1-1.9,0.4-2.8-0.2
		c-2.3-1.4-4.8-1.1-7.2-0.6c-11.6,2.3-23.3,2.5-35,1.7c-23.7-1.8-47.4-3.8-71.2-5.1c-7.1-0.4-14.2-0.6-21.3-0.7
		c-10-0.1-19.9-1.3-29.7-2.5c-9.6-1.2-19.3-2-29-2.5c-22.6-1.1-45.2-1.4-67.8-0.1c-13.6,0.8-27.1,2.5-40.6,4.5
		c-14.4,2.2-28.9,3.7-43.5,2.8c-8.5-0.6-17.1-1-25.6-0.1c-12.4,1.3-24.8,0.5-37.2,0c-12.6-0.5-25-2-37.4-4
		c-13.3-2.2-26.7-3.8-40.3-3.2c-5.1,0.2-10.2,0.6-15.2,1.5c-4,0.7-7.9,1.7-11.5,3.6c-9.2,4.9-19.2,5.7-29.3,5.2
		c-9.5-0.5-18.8-2.1-28.2-3.6c-19.4-3.2-38.9-5.4-58.6-5.6c-12.7-0.1-25.4-0.2-38,0.4c-13.7,0.6-27.5,0.7-41,3.6
		c-6.3,1.3-12.1,1.5-18.4,0c-7.7-1.8-15.6-2.8-23.6-4.2c0.3-1.4,1.2-2.3,2.1-3.5c8.7,1.4,17.2-0.3,25.7-1.4
		c5.9-0.7,11.8-0.4,17.7-0.3c7.7,0.1,15.4-0.1,22.9-2.2c1.5-0.4,2.9-0.9,4.3-1.5c1-0.5,1.6-1.4,1.5-2.6c-0.2-1.2-1-1.8-2.2-2
		c-0.5-0.1-0.9-0.1-1.4-0.1c-9.5-0.6-18.9-1.1-28.4-1.7c-6.5-0.4-13-0.4-19.5-0.5c-3.7-0.1-7.3-0.6-11-0.9c-0.9-0.1-1.9-0.3-2.9-0.9
		c1.3-3.6,2.7-7.3,4.1-11.1c2.6,0,5,0.1,7.5,0c8.3-0.6,16.5-1.2,24.8-1.9c2.8-0.2,4-1.6,3.9-4c-0.1-1.7-0.9-3-2.6-3.4
		c-1.1-0.3-2.3-0.4-3.5-0.4c-6.9-0.3-13.7-0.6-20.6-0.9c-1.6-0.1-3.3,0-5.1-0.9c0.9-3.7,2.5-7,4.1-10.8c8.5,1.6,16.9-1,25.4-0.3
		c0.6,0.1,1.2,0.1,1.8-0.1c1.3-0.4,1.9-1.3,2-2.6c0.1-1.2-0.5-2-1.7-2.4c-2.3-0.7-4.6-1-7-1.3c-3.9-0.4-7.8-0.9-11.6-1.4
		c-1.4-0.2-2.7-0.6-4.3-1c2.8-5.9,6.7-10.4,11.2-14.4c5.3,2.1,10.6,1.5,15.9,1c4.2-0.4,8.5-1.1,12.7-1.6c0.4,0,0.7-0.1,1.1-0.2
		c1.6-0.2,2.6-1.1,2.5-2.8c-0.1-1.5-1.2-2.2-2.6-2.4c-2.7-0.2-5.4-0.4-8.1-0.7c-3.4-0.3-6.8-0.6-10.3-0.9c-1.2-0.1-2.3-0.4-3.9-0.7
		c3.8-5.8,3.7-11.5-0.1-17.5c5.3-0.5,10.1-1,14.9-1.5c7.7-0.8,15.3-1.5,23-2.3c0.5,0,0.9-0.1,1.4-0.2c1.3-0.3,2.1-1,2.2-2.4
		c0-1.5-0.8-2.5-2.3-2.8c-2.5-0.4-4.9-0.6-7.4-0.8c-7.7-0.5-15.4-0.9-23.1-1.2c-7-0.3-13.8-2-20.9-1.9c-0.9,0-1.6-0.3-2.3-0.8
		c-4.8-3.7-9.8-7.1-14.2-11.2c-0.3-0.3-0.6-0.7-0.9-1c0.4-1.1,1.2-0.7,1.8-0.7c13.1,0.5,26-0.7,39-1.9c5.7-0.5,11.3-0.9,17-1.4
		c1.1-0.1,2.1-0.1,3.2-0.4c1.7-0.4,2.5-1.6,2.4-3.4c-0.1-1.6-1-2.7-2.6-2.9c-1-0.2-2.1-0.1-3.2-0.1c-11.5-0.2-23-0.3-34.5-0.7
		c-9.2-0.3-18.5-0.8-27.5-2.8c-0.1,0-0.2,0-0.4-0.1c-4.3-0.6-7.7-2.4-9.4-6.9c-1-2.7-2.8-5.2-4.4-8c5.6-1,10.9-1,16.2-1.3
		c5.4-0.4,10.9-0.7,16.3-1.6c0.6-0.1,1.2-0.1,1.7-0.3c1.1-0.3,1.9-1,1.9-2.2c0-1.3-0.8-2-1.9-2.2c-2.5-0.4-4.9-0.8-7.4-1
		c-6.4-0.5-12.8-0.6-19.2-0.7c-4.5-0.1-9-0.4-13.5-0.5c-1,0-1.8-0.4-2.5-1.2c-4-4.3-7.8-8.8-11.5-13.3c0.2-0.8,0.6-0.8,1.1-0.8
		c13.3,0.6,26.5-0.9,39.8-0.9c8.3,0,16.6,0.1,24.8,1c1.8,0.2,3.5,0.7,5.1,1.4c2.6,1.1,5.3,1.4,7.9,0.1c1.2-0.6,2.5-0.7,3.8-0.8
		c13.4-0.8,26.8-0.9,40.2-0.8c-0.6-0.5-1.1-1-1.7-1.5c-0.1-0.1-0.2-0.1-0.2-0.2c-3.7-3.7-7.2-7.6-10.4-11.7
		c-11-1.4-22.1-2.4-33.2-2.2c-10.7,0.1-21.3,0.6-32,1c-9.7,0.3-19.4,0.7-29.1,1.1c-8.8,0.4-17.5,0.7-26,3.4
		c-1.2,0.4-2.3,0.1-3.4-0.5c-2.3-1.3-4.7-2.2-7.4-2.5c-3.2-0.4-4.7,1.6-3.4,4.6c1.4,3.1,3.4,6,5.5,8.7c2.6,3.2,5.2,6.5,7.9,9.6
		c6,6.8,10.9,14.3,14.7,22.5c2.2,4.7,4.5,9.4,6.7,14.1c4.9,10.3,11.8,19.1,20.4,26.6c5.5,4.8,11.4,9.3,16.7,14.4
		c0.9,0.8,1.7,1.6,2.4,2.2c0.1,1.8-0.9,2.7-1.7,3.7c-6.8,9.2-11.2,19.4-14.1,30.4c-2.5,9.5-5.8,18.7-10.5,27.4
		c-8.2,15.1-20.1,25.5-36.9,30c-5.1,1.4-7.5,5.3-6.4,10.2c1.3,5.8,6.2,8,10.6,7c12-2.9,24-1.8,36-0.4c9.5,1.1,19.1,2.2,28.7,1.8
		c0.9,0,1.9-0.1,2.8,0.2c8.2,1.9,16.5,1.7,24.7,0.9c26.8-2.7,53.7-3.4,80.5-3.1c12.9,0.1,25.7,1.7,38.6,3.1
		c15.5,1.7,31.1,3.5,46.7,4c7.8,0.3,15.3-0.8,22.7-3.4c2.1-0.7,4.3-1.4,6.4-2.1c6.9-2.4,14-3.5,21.3-3.5c10.1,0,20.1,0.6,30.2,1.3
		c19.4,1.3,38.8,1.5,58.2,0.8c5.8-0.2,11.6-0.7,17.4-0.7c3.8,0,7.5,0.7,11.3,1.2c9.3,1.3,18.6,2.3,27.9,3.1c8.7,0.7,17.3,0,25.8-1.5
		c30.1-5.2,60.3-5.6,90.7-4.2c21.3,1,42.6,2.4,63.9,3.3c21.2,0.8,42.4,1.7,63.5,3.5c12.3,1.1,24.4,2.9,36.7,4.5
		c10.5,1.3,21,2,31.5,0.4c4.2-0.6,8.4-1.7,12.2-3.6c1.6-0.8,3.1-1,4.8-0.8c10.5,0.9,20.9,2.6,31.3,4c3.2,0.4,6.4,0.7,9.5,1.2
		c5.7,1,11.2-6.6,7.9-12.3c-1.2-2.1-2.7-3.9-4.5-5.4c-1.9-1.6-3.9-3.1-5.8-4.6c-3.7-2.8-6.2-6.5-8.1-10.6c-0.1-0.2-0.3-0.4-0.3-0.6
		c0.2-6.5-4.7-11.3-5.9-17.4c-1.6-7.7-5.2-14.7-8.9-21.6c-3.9-7.3-7.9-14.6-11.8-21.9c-1.1-2.1-2.4-4.1-3.2-6.3
		c-2.2-5.4-2.4-10.2,1.8-15.4c6.5-8.1,13.1-16.2,19.7-24.2c6.7-8.2,14.1-15.7,22.2-22.5c3.7-3.1,7.1-6.6,10.7-9.9
		c5-4.8,10.5-8.8,17-11.4c3.1-1.2,5.9-3,8.5-5c3-2.3,6-4.6,9-6.9c1.3-1,2.4-2.3,3.1-3.8C988.2,604.4,987.7,600.5,983.1,598.6z"/>
	<g>
		<path class="st1" d="M327.1,212.9c-27.9,10.8-52.7,20.9-77.9,30c-12.3,4.5-24.3,1.3-30.1-10.6c-6.4-13.1,2.2-22.5,13.2-28.5
			C264.4,186.1,294.6,193.6,327.1,212.9z"/>
		<path class="st1" d="M321.4,198.3c-16.9-6.3-34-12.2-50.7-19c-6.2-2.6-11.9-9-9.7-15.5c2.7-8,11.4-9.8,19.3-7.7
			c21.1,5.5,33.6,20.7,43.6,38.6C323.1,195.8,322.3,197.1,321.4,198.3z"/>
		<path class="st1" d="M319.1,232c-11.9,16.9-22.5,33.2-36.1,47.3c-4.2,4.3-10.2,6.1-15.2,2.7c-5.1-3.5-4.5-9.6-2.9-15.2
			C269.6,250,297.8,231.1,319.1,232z"/>
		<path class="st1" d="M312.5,124.9c-0.7,7.7-5,12.8-13.4,12.5c-7.6-0.2-11.8-5.2-12.1-12.7c-0.3-7.8,4.1-12.6,11.7-12.9
			C306.8,111.4,311.9,115.7,312.5,124.9z"/>
	</g>
	<g>
		<path class="st0" d="M733.9,330.1c2,0.2,4,0.3,5.9,0.3c18,0,35.2-9.5,42.5-24.1c4.7-9.4,1-20.9-8.4-25.6c-9.4-4.7-20.7-1-25.4,8.4
			c-0.9,1.3-5.6,4.2-11,3.1c-7.7-1.5-14.1-11.3-17.7-26.8c0-0.1-0.1-0.2-0.1-0.3c16.5,0.3,36.5-0.3,45.9-4
			c10.5-4.1,16.6-15.2,19.2-34.9c3.7-27.6,1.1-80.9-32.2-105.8c-12.5-9.3-27.4-10-39.9-1.9c-32.2,21-42.6,100.8-30,155.4
			C693.4,320.4,722.1,328.7,733.9,330.1z M731.5,152.1c18.1,15.8,18.4,58.2,14.9,74.2c-7.1,0.6-19,0.9-31.1,0.6
			C715,191.4,724.1,160.7,731.5,152.1z"/>
		<path class="st0" d="M783.2,347.5c-1.5,1.1-37.4,26.5-97.1,15.4c-40.2-7.5-61.6-36.5-71-53.8c3.7-2.1,7.4-4.5,10.8-7.4
			c29.3-24.6,47.8-97.4,10-155.3c-30.1-46-75.7-40-101.2-28.2c10.7,22.7,10.6,46.5-0.4,70.9c-4.2,9.3-9.4,17.8-15.5,25.6
			c0.5,38.3,1.5,85.4,3.2,128.3c3.3-0.2,6.6-0.6,9.8-1c3-0.4,5.5-0.5,7.8-0.5c3,0,5.8,0.3,8.5,0.9c4.9,1,9,3.2,12.1,6.2
			c-0.4-8.6-0.7-17.4-1-26.2c5.7,0,12.3-0.3,19.3-1.3c11.1,22.7,40.4,68.1,100.7,79.3c12.9,2.4,25.1,3.4,36.3,3.4
			c55.3,0,88.7-24.5,90.4-25.7c8.4-6.3,10-18.1,3.8-26.5C803.5,343.2,791.6,341.4,783.2,347.5z M601.4,272.6
			c-11.6,9.7-30.5,11.7-43.3,11.6c-1.4-56.4-1.8-110.4-1.9-133.7c11.9-4.1,32.7-6.5,47.9,16.8C630.6,207.9,617.2,259.3,601.4,272.6z
			"/>
		<path class="st0" d="M975.5,201.5c-3.8-56.1-21.2-95.1-51.8-116.1c-37.2-25.6-79-13.1-80.8-12.6c-8,2.5-13.4,9.8-13.4,18.2
			c0,1.5,0.1,149.9,5.9,245.2c0.6,9.7,8.5,17.5,18.2,17.8c0.2,0,0.8,0,1.8,0c9.5,0,53.3-1.9,85.8-35.3
			C967.4,291.7,979,252.2,975.5,201.5z M914.2,291.9c-13.1,13.7-29.7,19.6-42,22.2c-3.6-73.8-4.5-169.1-4.7-206.8
			c9.7-0.3,23,1.3,35,9.6c20,14,32.1,44.1,35.1,87.1C940.3,243.4,932.4,272.9,914.2,291.9z"/>
		<path class="st0" d="M561.7,378.3c-2.6,3-6.6,5.5-12.5,7c-5.9,1.5-11.9,2.9-17.7,4.3c-1.9,0.4-3.7,0.9-5.6,1.3
			c3.1,6.3,9.6,10.5,17,10.5c0.4,0,0.8,0,1.2,0c10.5-0.6,18.4-9.6,17.8-20.1C561.8,380.3,561.8,379.3,561.7,378.3z"/>
	</g>
</g>
</svg>
