  0
SECTION
  2
HEADER
  9
$ACADVER
  1
AC1024
  9
$ACADMAINTVER
 70
     6
  9
$DWGCODEPAGE
  3
ANSI_1252
  9
$INSBASE
 10
0.0
 20
0.0
 30
0.0
  9
$EXTMIN
 10
1.000000000000000E+20
 20
1.000000000000000E+20
 30
1.000000000000000E+20
  9
$EXTMAX
 10
-1.000000000000000E+20
 20
-1.000000000000000E+20
 30
-1.000000000000000E+20
  9
$LIMMIN
 10
0.0
 20
0.0
  9
$LIMMAX
 10
12.0
 20
9.0
  9
$ORTHOMODE
 70
     0
  9
$REGENMODE
 70
     1
  9
$FILLMODE
 70
     1
  9
$QTEXTMODE
 70
     0
  9
$MIRRTEXT
 70
     1
  9
$LTSCALE
 40
1.0
  9
$ATTMODE
 70
     1
  9
$TEXTSIZE
 40
0.2
  9
$TRACEWID
 40
0.05
  9
$TEXTSTYLE
  7
Standard
  9
$CLAYER
  8
0
  9
$CELTYPE
  6
ByLayer
  9
$CECOLOR
 62
   256
  9
$CELTSCALE
 40
1.0
  9
$DISPSILH
 70
     0
  9
$DIMSCALE
 40
1.0
  9
$DIMASZ
 40
0.18
  9
$DIMEXO
 40
0.0625
  9
$DIMDLI
 40
0.38
  9
$DIMRND
 40
0.0
  9
$DIMDLE
 40
0.0
  9
$DIMEXE
 40
0.18
  9
$DIMTP
 40
0.0
  9
$DIMTM
 40
0.0
  9
$DIMTXT
 40
0.18
  9
$DIMCEN
 40
0.09
  9
$DIMTSZ
 40
0.0
  9
$DIMTOL
 70
     0
  9
$DIMLIM
 70
     0
  9
$DIMTIH
 70
     1
  9
$DIMTOH
 70
     1
  9
$DIMSE1
 70
     0
  9
$DIMSE2
 70
     0
  9
$DIMTAD
 70
     0
  9
$DIMZIN
 70
     0
  9
$DIMBLK
  1

  9
$DIMASO
 70
     1
  9
$DIMSHO
 70
     1
  9
$DIMPOST
  1

  9
$DIMAPOST
  1

  9
$DIMALT
 70
     0
  9
$DIMALTD
 70
     2
  9
$DIMALTF
 40
25.4
  9
$DIMLFAC
 40
1.0
  9
$DIMTOFL
 70
     0
  9
$DIMTVP
 40
0.0
  9
$DIMTIX
 70
     0
  9
$DIMSOXD
 70
     0
  9
$DIMSAH
 70
     0
  9
$DIMBLK1
  1

  9
$DIMBLK2
  1

  9
$DIMSTYLE
  2
Standard
  9
$DIMCLRD
 70
     0
  9
$DIMCLRE
 70
     0
  9
$DIMCLRT
 70
     0
  9
$DIMTFAC
 40
1.0
  9
$DIMGAP
 40
0.09
  9
$DIMJUST
 70
     0
  9
$DIMSD1
 70
     0
  9
$DIMSD2
 70
     0
  9
$DIMTOLJ
 70
     1
  9
$DIMTZIN
 70
     0
  9
$DIMALTZ
 70
     0
  9
$DIMALTTZ
 70
     0
  9
$DIMUPT
 70
     0
  9
$DIMDEC
 70
     4
  9
$DIMTDEC
 70
     4
  9
$DIMALTU
 70
     2
  9
$DIMALTTD
 70
     2
  9
$DIMTXSTY
  7
Standard
  9
$DIMAUNIT
 70
     0
  9
$DIMADEC
 70
     0
  9
$DIMALTRND
 40
0.0
  9
$DIMAZIN
 70
     0
  9
$DIMDSEP
 70
    46
  9
$DIMATFIT
 70
     3
  9
$DIMFRAC
 70
     0
  9
$DIMLDRBLK
  1

  9
$DIMLUNIT
 70
     2
  9
$DIMLWD
 70
    -2
  9
$DIMLWE
 70
    -2
  9
$DIMTMOVE
 70
     0
  9
$DIMFXL
 40
1.0
  9
$DIMFXLON
 70
     0
  9
$DIMJOGANG
 40
0.7853981633974483
  9
$DIMTFILL
 70
     0
  9
$DIMTFILLCLR
 70
     0
  9
$DIMARCSYM
 70
     0
  9
$DIMLTYPE
  6

  9
$DIMLTEX1
  6

  9
$DIMLTEX2
  6

  9
$DIMTXTDIRECTION
 70
     0
  9
$LUNITS
 70
     2
  9
$LUPREC
 70
     4
  9
$SKETCHINC
 40
0.1
  9
$FILLETRAD
 40
0.5
  9
$AUNITS
 70
     0
  9
$AUPREC
 70
     0
  9
$MENU
  1
.
  9
$ELEVATION
 40
0.0
  9
$PELEVATION
 40
0.0
  9
$THICKNESS
 40
0.0
  9
$LIMCHECK
 70
     0
  9
$CHAMFERA
 40
0.5
  9
$CHAMFERB
 40
0.5
  9
$CHAMFERC
 40
1.0
  9
$CHAMFERD
 40
0.0
  9
$SKPOLY
 70
     0
  9
$TDCREATE
 40
2459561.743136019
  9
$TDUCREATE
 40
2459561.493136019
  9
$TDUPDATE
 40
2459561.743136042
  9
$TDUUPDATE
 40
2459561.493136042
  9
$TDINDWG
 40
0.0000000116
  9
$TDUSRTIMER
 40
0.0000000116
  9
$USRTIMER
 70
     1
  9
$ANGBASE
 50
0.0
  9
$ANGDIR
 70
     0
  9
$PDMODE
 70
     0
  9
$PDSIZE
 40
0.0
  9
$PLINEWID
 40
0.0
  9
$SPLFRAME
 70
     0
  9
$SPLINETYPE
 70
     6
  9
$SPLINESEGS
 70
     8
  9
$HANDSEED
  5
C2
  9
$SURFTAB1
 70
     6
  9
$SURFTAB2
 70
     6
  9
$SURFTYPE
 70
     6
  9
$SURFU
 70
     6
  9
$SURFV
 70
     6
  9
$UCSBASE
  2

  9
$UCSNAME
  2

  9
$UCSORG
 10
0.0
 20
0.0
 30
0.0
  9
$UCSXDIR
 10
1.0
 20
0.0
 30
0.0
  9
$UCSYDIR
 10
0.0
 20
1.0
 30
0.0
  9
$UCSORTHOREF
  2

  9
$UCSORTHOVIEW
 70
     0
  9
$UCSORGTOP
 10
0.0
 20
0.0
 30
0.0
  9
$UCSORGBOTTOM
 10
0.0
 20
0.0
 30
0.0
  9
$UCSORGLEFT
 10
0.0
 20
0.0
 30
0.0
  9
$UCSORGRIGHT
 10
0.0
 20
0.0
 30
0.0
  9
$UCSORGFRONT
 10
0.0
 20
0.0
 30
0.0
  9
$UCSORGBACK
 10
0.0
 20
0.0
 30
0.0
  9
$PUCSBASE
  2

  9
$PUCSNAME
  2

  9
$PUCSORG
 10
0.0
 20
0.0
 30
0.0
  9
$PUCSXDIR
 10
1.0
 20
0.0
 30
0.0
  9
$PUCSYDIR
 10
0.0
 20
1.0
 30
0.0
  9
$PUCSORTHOREF
  2

  9
$PUCSORTHOVIEW
 70
     0
  9
$PUCSORGTOP
 10
0.0
 20
0.0
 30
0.0
  9
$PUCSORGBOTTOM
 10
0.0
 20
0.0
 30
0.0
  9
$PUCSORGLEFT
 10
0.0
 20
0.0
 30
0.0
  9
$PUCSORGRIGHT
 10
0.0
 20
0.0
 30
0.0
  9
$PUCSORGFRONT
 10
0.0
 20
0.0
 30
0.0
  9
$PUCSORGBACK
 10
0.0
 20
0.0
 30
0.0
  9
$USERI1
 70
     0
  9
$USERI2
 70
     0
  9
$USERI3
 70
     0
  9
$USERI4
 70
     0
  9
$USERI5
 70
     0
  9
$USERR1
 40
0.0
  9
$USERR2
 40
0.0
  9
$USERR3
 40
0.0
  9
$USERR4
 40
0.0
  9
$USERR5
 40
0.0
  9
$WORLDVIEW
 70
     1
  9
$SHADEDGE
 70
     3
  9
$SHADEDIF
 70
    70
  9
$TILEMODE
 70
     1
  9
$MAXACTVP
 70
    64
  9
$PINSBASE
 10
0.0
 20
0.0
 30
0.0
  9
$PLIMCHECK
 70
     0
  9
$PEXTMIN
 10
1.000000000000000E+20
 20
1.000000000000000E+20
 30
1.000000000000000E+20
  9
$PEXTMAX
 10
-1.000000000000000E+20
 20
-1.000000000000000E+20
 30
-1.000000000000000E+20
  9
$PLIMMIN
 10
0.0
 20
0.0
  9
$PLIMMAX
 10
12.0
 20
9.0
  9
$UNITMODE
 70
     0
  9
$VISRETAIN
 70
     1
  9
$PLINEGEN
 70
     0
  9
$PSLTSCALE
 70
     1
  9
$TREEDEPTH
 70
  3020
  9
$CMLSTYLE
  2
Standard
  9
$CMLJUST
 70
     0
  9
$CMLSCALE
 40
1.0
  9
$PROXYGRAPHICS
 70
     1
  9
$MEASUREMENT
 70
     0
  9
$CELWEIGHT
370
    -1
  9
$ENDCAPS
280
     0
  9
$JOINSTYLE
280
     0
  9
$LWDISPLAY
290
     1
  9
$INSUNITS
 70
     1
  9
$HYPERLINKBASE
  1

  9
$STYLESHEET
  1

  9
$XEDIT
290
     1
  9
$CEPSNTYPE
380
     0
  9
$PSTYLEMODE
290
     1
  9
$FINGERPRINTGUID
  2
{8674B969-92FA-47EF-AC8E-F55DAB592256}
  9
$VERSIONGUID
  2
{FAEB1C32-E019-11D5-929B-00C0DF256EC4}
  9
$EXTNAMES
290
     1
  9
$PSVPSCALE
 40
0.0
  9
$OLESTARTUP
290
     0
  9
$SORTENTS
280
   127
  9
$INDEXCTL
280
     0
  9
$HIDETEXT
280
     1
  9
$XCLIPFRAME
280
     2
  9
$HALOGAP
280
     0
  9
$OBSCOLOR
 70
   257
  9
$OBSLTYPE
280
     0
  9
$INTERSECTIONDISPLAY
280
     0
  9
$INTERSECTIONCOLOR
 70
   257
  9
$DIMASSOC
280
     2
  9
$PROJECTNAME
  1

  9
$CAMERADISPLAY
290
     0
  9
$LENSLENGTH
 40
50.0
  9
$CAMERAHEIGHT
 40
0.0
  9
$STEPSPERSEC
 40
2.0
  9
$STEPSIZE
 40
6.0
  9
$3DDWFPREC
 40
2.0
  9
$PSOLWIDTH
 40
0.25
  9
$PSOLHEIGHT
 40
4.0
  9
$LOFTANG1
 40
1.570796326794897
  9
$LOFTANG2
 40
1.570796326794897
  9
$LOFTMAG1
 40
0.0
  9
$LOFTMAG2
 40
0.0
  9
$LOFTPARAM
 70
     7
  9
$LOFTNORMALS
280
     1
  9
$LATITUDE
 40
37.795
  9
$LONGITUDE
 40
-122.394
  9
$NORTHDIRECTION
 40
0.0
  9
$TIMEZONE
 70
 -8000
  9
$LIGHTGLYPHDISPLAY
280
     1
  9
$TILEMODELIGHTSYNCH
280
     1
  9
$CMATERIAL
347
3C
  9
$SOLIDHIST
280
     1
  9
$SHOWHIST
280
     1
  9
$DWFFRAME
280
     2
  9
$DGNFRAME
280
     2
  9
$REALWORLDSCALE
290
     1
  9
$INTERFERECOLOR
 62
   256
  9
$CSHADOW
280
     0
  9
$SHADOWPLANELOCATION
 40
0.0
  0
ENDSEC
  0
SECTION
  2
CLASSES
  0
CLASS
  1
ACDBDICTIONARYWDFLT
  2
AcDbDictionaryWithDefault
  3
ObjectDBX Classes
 90
        0
 91
        4
280
     0
281
     0
  0
CLASS
  1
VISUALSTYLE
  2
AcDbVisualStyle
  3
ObjectDBX Classes
 90
     4095
 91
        4
280
     0
281
     0
  0
CLASS
  1
MATERIAL
  2
AcDbMaterial
  3
ObjectDBX Classes
 90
     1153
 91
        4
280
     0
281
     0
  0
CLASS
  1
SUN
  2
AcDbSun
  3
SCENEOE
 90
     1024
 91
        4
280
     0
281
     0
  0
ENDSEC
  0
SECTION
  2
TABLES
  0
TABLE
  2
VPORT
  5
8
330
0
100
AcDbSymbolTable
 70
     1
  0
VPORT
  5
29
330
8
100
AcDbSymbolTableRecord
100
AcDbViewportTableRecord
  2
*Active
 70
     0
 10
0.0
 20
0.0
 11
1.0
 21
1.0
 12
0.0
 22
0.0
 13
0.0
 23
0.0
 14
0.5
 24
0.5
 15
0.5
 25
0.5
 16
0.0
 26
0.0
 36
1.0
 17
540.0
 27
-540.0
 37
0.0
 40
1080.0
 41
1.0
 42
50.0
 43
0.0
 44
0.0
 50
0.0
 51
0.0
 71
     0
 72
   100
 73
     1
 74
     3
 75
     0
 76
     0
 77
     0
 78
     0
281
     0
 65
     1
110
0.0
120
0.0
130
0.0
111
1.0
121
0.0
131
0.0
112
0.0
122
1.0
132
0.0
 79
     0
146
0.0
 60
     3
 61
     5
292
     1
282
     1
141
0.0
142
0.0
 63
   250
361
3F
  0
ENDTAB
  0
TABLE
  2
LTYPE
  5
5
330
0
100
AcDbSymbolTable
 70
     1
  0
LTYPE
  5
14
330
5
100
AcDbSymbolTableRecord
100
AcDbLinetypeTableRecord
  2
ByBlock
 70
     0
  3

 72
    65
 73
     0
 40
0.0
  0
LTYPE
  5
15
330
5
100
AcDbSymbolTableRecord
100
AcDbLinetypeTableRecord
  2
ByLayer
 70
     0
  3

 72
    65
 73
     0
 40
0.0
  0
LTYPE
  5
16
330
5
100
AcDbSymbolTableRecord
100
AcDbLinetypeTableRecord
  2
Continuous
 70
     0
  3
Solid line
 72
    65
 73
     0
 40
0.0
  0
ENDTAB
  0
TABLE
  2
LAYER
  5
2
330
0
100
AcDbSymbolTable
 70
     2
  0
LAYER
  5
10
330
2
100
AcDbSymbolTableRecord
100
AcDbLayerTableRecord
  2
0
 70
     0
 62
     7
  6
Continuous
370
    -3
390
F
347
3E
  0
LAYER
  5
40
330
2
100
AcDbSymbolTableRecord
100
AcDbLayerTableRecord
  2
Layer 1
 70
     0
 62
     7
  6
Continuous
370
    -3
390
F
347
3E
  0
ENDTAB
  0
TABLE
  2
STYLE
  5
3
330
0
100
AcDbSymbolTable
 70
     1
  0
STYLE
  5
11
330
3
100
AcDbSymbolTableRecord
100
AcDbTextStyleTableRecord
  2
Standard
 70
     0
 40
0.0
 41
1.0
 50
0.0
 71
     0
 42
0.2
  3
txt
  4

  0
ENDTAB
  0
TABLE
  2
VIEW
  5
6
330
0
100
AcDbSymbolTable
 70
     0
  0
ENDTAB
  0
TABLE
  2
UCS
  5
7
330
0
100
AcDbSymbolTable
 70
     0
  0
ENDTAB
  0
TABLE
  2
APPID
  5
9
330
0
100
AcDbSymbolTable
 70
     1
  0
APPID
  5
12
330
9
100
AcDbSymbolTableRecord
100
AcDbRegAppTableRecord
  2
ACAD
 70
     0
  0
ENDTAB
  0
TABLE
  2
DIMSTYLE
  5
A
330
0
100
AcDbSymbolTable
 70
     1
100
AcDbDimStyleTable
  0
DIMSTYLE
105
27
330
A
100
AcDbSymbolTableRecord
100
AcDbDimStyleTableRecord
  2
Standard
 70
     0
178
     0
340
11
  0
ENDTAB
  0
TABLE
  2
BLOCK_RECORD
  5
1
330
0
100
AcDbSymbolTable
 70
     5
  0
BLOCK_RECORD
  5
1F
330
1
100
AcDbSymbolTableRecord
100
AcDbBlockTableRecord
  2
*Model_Space
340
22
 70
     0
280
     1
281
     0
  0
BLOCK_RECORD
  5
1B
330
1
100
AcDbSymbolTableRecord
100
AcDbBlockTableRecord
  2
*Paper_Space
340
1E
 70
     0
280
     1
281
     0
  0
BLOCK_RECORD
  5
23
330
1
100
AcDbSymbolTableRecord
100
AcDbBlockTableRecord
  2
*Paper_Space0
340
26
 70
     0
280
     1
281
     0
  0
BLOCK_RECORD
  5
41
330
1
100
AcDbSymbolTableRecord
100
AcDbBlockTableRecord
  2
block 2
340
0
102
{BLKREFS
331
42
102
}
 70
     0
280
     1
281
     0
  0
BLOCK_RECORD
  5
45
330
1
100
AcDbSymbolTableRecord
100
AcDbBlockTableRecord
  2
block 3
340
0
102
{BLKREFS
331
46
102
}
 70
     0
280
     1
281
     0
  0
BLOCK_RECORD
  5
93
330
1
100
AcDbSymbolTableRecord
100
AcDbBlockTableRecord
  2
block 4
340
0
102
{BLKREFS
331
94
102
}
 70
     0
280
     1
281
     0
  0
BLOCK_RECORD
  5
B8
330
1
100
AcDbSymbolTableRecord
100
AcDbBlockTableRecord
  2
block 5
340
0
102
{BLKREFS
331
B9
102
}
 70
     0
280
     1
281
     0
  0
ENDTAB
  0
ENDSEC
  0
SECTION
  2
BLOCKS
  0
BLOCK
  5
20
330
1F
100
AcDbEntity
  8
0
100
AcDbBlockBegin
  2
*Model_Space
 70
     0
 10
0.0
 20
0.0
 30
0.0
  3
*Model_Space
  1

  0
ENDBLK
  5
21
330
1F
100
AcDbEntity
  8
0
100
AcDbBlockEnd
  0
BLOCK
  5
1C
330
1B
100
AcDbEntity
 67
     1
  8
0
100
AcDbBlockBegin
  2
*Paper_Space
 70
     0
 10
0.0
 20
0.0
 30
0.0
  3
*Paper_Space
  1

  0
ENDBLK
  5
1D
330
1B
100
AcDbEntity
 67
     1
  8
0
100
AcDbBlockEnd
  0
BLOCK
  5
24
330
23
100
AcDbEntity
  8
0
100
AcDbBlockBegin
  2
*Paper_Space0
 70
     0
 10
0.0
 20
0.0
 30
0.0
  3
*Paper_Space0
  1

  0
ENDBLK
  5
25
330
23
100
AcDbEntity
  8
0
100
AcDbBlockEnd
  0
BLOCK
  5
43
330
41
100
AcDbEntity
  8
0
100
AcDbBlockBegin
  2
block 2
 70
     0
 10
0.0
 20
0.0
 30
0.0
  3
block 2
  1

  0
INSERT
  5
46
330
41
100
AcDbEntity
  8
Layer 1
100
AcDbBlockReference
  2
block 3
 10
0.0
 20
0.0
 30
0.0
  0
INSERT
  5
94
330
41
100
AcDbEntity
  8
Layer 1
100
AcDbBlockReference
  2
block 4
 10
0.0
 20
0.0
 30
0.0
  0
POLYLINE
  5
A8
330
41
100
AcDbEntity
  8
Layer 1
370
     0
100
AcDb2dPolyline
 66
     1
 10
0.0
 20
0.0
 30
0.0
  0
VERTEX
  5
A9
330
A8
100
AcDbEntity
  8
Layer 1
370
     0
100
AcDbVertex
100
AcDb2dVertex
 10
929.2308925413072
 20
-495.184036777564
 30
0.0
  0
VERTEX
  5
AA
330
A8
100
AcDbEntity
  8
Layer 1
370
     0
100
AcDbVertex
100
AcDb2dVertex
 10
150.7691074586983
 20
-495.184036777564
 30
0.0
  0
VERTEX
  5
AB
330
A8
100
AcDbEntity
  8
Layer 1
370
     0
100
AcDbVertex
100
AcDb2dVertex
 10
150.7691074586983
 20
-473.8205431498827
 30
0.0
  0
VERTEX
  5
AC
330
A8
100
AcDbEntity
  8
Layer 1
370
     0
100
AcDbVertex
100
AcDb2dVertex
 10
929.2308925413072
 20
-473.8205431498827
 30
0.0
  0
VERTEX
  5
AD
330
A8
100
AcDbEntity
  8
Layer 1
370
     0
100
AcDbVertex
100
AcDb2dVertex
 10
929.2308925413072
 20
-495.184036777564
 30
0.0
  0
SEQEND
  5
AF
330
A8
100
AcDbEntity
  8
Layer 1
370
     0
  0
HATCH
  5
AE
330
41
100
AcDbEntity
  8
Layer 1
 62
    22
420
 13517612
100
AcDbHatch
 10
0.0
 20
0.0
 30
0.0
210
0.0
220
0.0
230
1.0
  2
SOLID
 70
     1
 71
     0
 91
        1
 92
        1
 93
        4
 72
     1
 10
929.2308925413072
 20
-495.184036777564
 11
150.7691074586983
 21
-495.184036777564
 72
     1
 10
150.7691074586983
 20
-495.184036777564
 11
150.7691074586983
 21
-473.8205431498827
 72
     1
 10
150.7691074586983
 20
-473.8205431498827
 11
929.2308925413072
 21
-473.8205431498827
 72
     1
 10
929.2308925413072
 20
-473.8205431498827
 11
929.2308925413072
 21
-495.184036777564
 97
        0
 75
     2
 76
     1
 98
        0
  0
POLYLINE
  5
B0
330
41
100
AcDbEntity
  8
Layer 1
370
     0
100
AcDb2dPolyline
 66
     1
 10
0.0
 20
0.0
 30
0.0
  0
VERTEX
  5
B1
330
B0
100
AcDbEntity
  8
Layer 1
370
     0
100
AcDbVertex
100
AcDb2dVertex
 10
929.2308925413072
 20
-537.9110240329246
 30
0.0
  0
VERTEX
  5
B2
330
B0
100
AcDbEntity
  8
Layer 1
370
     0
100
AcDbVertex
100
AcDb2dVertex
 10
150.7691074586983
 20
-537.9110240329246
 30
0.0
  0
VERTEX
  5
B3
330
B0
100
AcDbEntity
  8
Layer 1
370
     0
100
AcDbVertex
100
AcDb2dVertex
 10
150.7691074586983
 20
-516.5475304052434
 30
0.0
  0
VERTEX
  5
B4
330
B0
100
AcDbEntity
  8
Layer 1
370
     0
100
AcDbVertex
100
AcDb2dVertex
 10
929.2308925413072
 20
-516.5475304052434
 30
0.0
  0
VERTEX
  5
B5
330
B0
100
AcDbEntity
  8
Layer 1
370
     0
100
AcDbVertex
100
AcDb2dVertex
 10
929.2308925413072
 20
-537.9110240329246
 30
0.0
  0
SEQEND
  5
B7
330
B0
100
AcDbEntity
  8
Layer 1
370
     0
  0
HATCH
  5
B6
330
41
100
AcDbEntity
  8
Layer 1
 62
    22
420
 13517612
100
AcDbHatch
 10
0.0
 20
0.0
 30
0.0
210
0.0
220
0.0
230
1.0
  2
SOLID
 70
     1
 71
     0
 91
        1
 92
        1
 93
        4
 72
     1
 10
929.2308925413072
 20
-537.9110240329246
 11
150.7691074586983
 21
-537.9110240329246
 72
     1
 10
150.7691074586983
 20
-537.9110240329246
 11
150.7691074586983
 21
-516.5475304052434
 72
     1
 10
150.7691074586983
 20
-516.5475304052434
 11
929.2308925413072
 21
-516.5475304052434
 72
     1
 10
929.2308925413072
 20
-516.5475304052434
 11
929.2308925413072
 21
-537.9110240329246
 97
        0
 75
     2
 76
     1
 98
        0
  0
INSERT
  5
B9
330
41
100
AcDbEntity
  8
Layer 1
100
AcDbBlockReference
  2
block 5
 10
0.0
 20
0.0
 30
0.0
  0
ENDBLK
  5
44
330
41
100
AcDbEntity
  8
0
100
AcDbBlockEnd
  0
BLOCK
  5
47
330
45
100
AcDbEntity
  8
0
100
AcDbBlockBegin
  2
block 3
 70
     0
 10
0.0
 20
0.0
 30
0.0
  3
block 3
  1

  0
POLYLINE
  5
49
330
45
100
AcDbEntity
  8
Layer 1
370
     0
100
AcDb2dPolyline
 66
     1
 10
0.0
 20
0.0
 30
0.0
  0
VERTEX
  5
4A
330
49
100
AcDbEntity
  8
Layer 1
370
     0
100
AcDbVertex
100
AcDb2dVertex
 10
399.6746578325665
 20
-410.9747602470034
 30
0.0
  0
VERTEX
  5
4B
330
49
100
AcDbEntity
  8
Layer 1
370
     0
100
AcDbVertex
100
AcDb2dVertex
 10
399.6746578325665
 20
-264.7336384252303
 30
0.0
  0
VERTEX
  5
4C
330
49
100
AcDbEntity
  8
Layer 1
370
     0
100
AcDbVertex
100
AcDb2dVertex
 10
385.6421236158239
 20
-264.7336384252303
 30
0.0
  0
VERTEX
  5
4D
330
49
100
AcDbEntity
  8
Layer 1
370
     0
100
AcDbVertex
100
AcDb2dVertex
 10
385.6421236158239
 20
-228.0006922504399
 30
0.0
  0
VERTEX
  5
4E
330
49
100
AcDbEntity
  8
Layer 1
370
     0
100
AcDbVertex
100
AcDb2dVertex
 10
451.1261106914517
 20
-228.0006922504399
 30
0.0
  0
VERTEX
  5
4F
330
49
100
AcDbEntity
  8
Layer 1
370
     0
100
AcDbVertex
100
AcDb2dVertex
 10
451.1261106914517
 20
-264.7336384252303
 30
0.0
  0
VERTEX
  5
50
330
49
100
AcDbEntity
  8
Layer 1
370
     0
100
AcDbVertex
100
AcDb2dVertex
 10
436.8191874877684
 20
-264.7336384252303
 30
0.0
  0
VERTEX
  5
51
330
49
100
AcDbEntity
  8
Layer 1
370
     0
100
AcDbVertex
100
AcDb2dVertex
 10
436.8191874877684
 20
-419.6402927832896
 30
0.0
  0
VERTEX
  5
52
330
49
100
AcDbEntity
  8
Layer 1
370
     0
100
AcDbVertex
100
AcDb2dVertex
 10
408.6169245608107
 20
-447.843728312755
 30
0.0
  0
VERTEX
  5
53
330
49
100
AcDbEntity
  8
Layer 1
370
     0
100
AcDbVertex
100
AcDb2dVertex
 10
345.3327397907406
 20
-447.843728312755
 30
0.0
  0
VERTEX
  5
54
330
49
100
AcDbEntity
  8
Layer 1
370
     0
100
AcDbVertex
100
AcDb2dVertex
 10
317.1304768637838
 20
-419.6402927832896
 30
0.0
  0
VERTEX
  5
55
330
49
100
AcDbEntity
  8
Layer 1
370
     0
100
AcDbVertex
100
AcDb2dVertex
 10
317.1304768637838
 20
-264.7336384252303
 30
0.0
  0
VERTEX
  5
56
330
49
100
AcDbEntity
  8
Layer 1
370
     0
100
AcDbVertex
100
AcDb2dVertex
 10
302.822381057591
 20
-264.7336384252303
 30
0.0
  0
VERTEX
  5
57
330
49
100
AcDbEntity
  8
Layer 1
370
     0
100
AcDbVertex
100
AcDb2dVertex
 10
302.822381057591
 20
-228.0006922504399
 30
0.0
  0
VERTEX
  5
58
330
49
100
AcDbEntity
  8
Layer 1
370
     0
100
AcDbVertex
100
AcDb2dVertex
 10
368.3075407357264
 20
-228.0006922504399
 30
0.0
  0
VERTEX
  5
59
330
49
100
AcDbEntity
  8
Layer 1
370
     0
100
AcDbVertex
100
AcDb2dVertex
 10
368.3075407357264
 20
-264.7336384252303
 30
0.0
  0
VERTEX
  5
5A
330
49
100
AcDbEntity
  8
Layer 1
370
     0
100
AcDbVertex
100
AcDb2dVertex
 10
354.275006518983
 20
-264.7336384252303
 30
0.0
  0
VERTEX
  5
5B
330
49
100
AcDbEntity
  8
Layer 1
370
     0
100
AcDbVertex
100
AcDb2dVertex
 10
354.275006518983
 20
-410.9747602470034
 30
0.0
  0
VERTEX
  5
5C
330
49
100
AcDbEntity
  8
Layer 1
370
     0
100
AcDbVertex
100
AcDb2dVertex
 10
399.6746578325665
 20
-410.9747602470034
 30
0.0
  0
SEQEND
  5
5D
330
49
100
AcDbEntity
  8
Layer 1
370
     0
  0
HATCH
  5
5E
330
45
100
AcDbEntity
  8
Layer 1
 62
   167
420
  2772859
100
AcDbHatch
 10
0.0
 20
0.0
 30
0.0
210
0.0
220
0.0
230
1.0
  2
SOLID
 70
     1
 71
     0
 91
        1
 92
        1
 93
       18
 72
     1
 10
399.6746578325665
 20
-410.9747602470034
 11
399.6746578325665
 21
-264.7336384252303
 72
     1
 10
399.6746578325665
 20
-264.7336384252303
 11
385.6421236158239
 21
-264.7336384252303
 72
     1
 10
385.6421236158239
 20
-264.7336384252303
 11
385.6421236158239
 21
-228.0006922504399
 72
     1
 10
385.6421236158239
 20
-228.0006922504399
 11
451.1261106914517
 21
-228.0006922504399
 72
     1
 10
451.1261106914517
 20
-228.0006922504399
 11
451.1261106914517
 21
-264.7336384252303
 72
     1
 10
451.1261106914517
 20
-264.7336384252303
 11
436.8191874877684
 21
-264.7336384252303
 72
     1
 10
436.8191874877684
 20
-264.7336384252303
 11
436.8191874877684
 21
-419.6402927832896
 72
     1
 10
436.8191874877684
 20
-419.6402927832896
 11
408.6169245608107
 21
-447.843728312755
 72
     1
 10
408.6169245608107
 20
-447.843728312755
 11
345.3327397907406
 21
-447.843728312755
 72
     1
 10
345.3327397907406
 20
-447.843728312755
 11
317.1304768637838
 21
-419.6402927832896
 72
     1
 10
317.1304768637838
 20
-419.6402927832896
 11
317.1304768637838
 21
-264.7336384252303
 72
     1
 10
317.1304768637838
 20
-264.7336384252303
 11
302.822381057591
 21
-264.7336384252303
 72
     1
 10
302.822381057591
 20
-264.7336384252303
 11
302.822381057591
 21
-228.0006922504399
 72
     1
 10
302.822381057591
 20
-228.0006922504399
 11
368.3075407357264
 21
-228.0006922504399
 72
     1
 10
368.3075407357264
 20
-228.0006922504399
 11
368.3075407357264
 21
-264.7336384252303
 72
     1
 10
368.3075407357264
 20
-264.7336384252303
 11
354.275006518983
 21
-264.7336384252303
 72
     1
 10
354.275006518983
 20
-264.7336384252303
 11
354.275006518983
 21
-410.9747602470034
 72
     1
 10
354.275006518983
 20
-410.9747602470034
 11
399.6746578325665
 21
-410.9747602470034
 97
        0
 75
     2
 76
     1
 98
        0
  0
POLYLINE
  5
5F
330
45
100
AcDbEntity
  8
Layer 1
370
     0
100
AcDb2dPolyline
 66
     1
 10
0.0
 20
0.0
 30
0.0
  0
VERTEX
  5
60
330
5F
100
AcDbEntity
  8
Layer 1
370
     0
100
AcDbVertex
100
AcDb2dVertex
 10
566.9651672807104
 20
-227.8634977569691
 30
0.0
  0
VERTEX
  5
61
330
5F
100
AcDbEntity
  8
Layer 1
370
     0
100
AcDbVertex
100
AcDb2dVertex
 10
595.1639124001431
 20
-256.2041277799053
 30
0.0
  0
VERTEX
  5
62
330
5F
100
AcDbEntity
  8
Layer 1
370
     0
100
AcDbVertex
100
AcDb2dVertex
 10
595.1639124001431
 20
-307.243997158379
 30
0.0
  0
VERTEX
  5
63
330
5F
100
AcDbEntity
  8
Layer 1
370
     0
100
AcDbVertex
100
AcDb2dVertex
 10
558.4333114303699
 20
-307.243997158379
 30
0.0
  0
VERTEX
  5
64
330
5F
100
AcDbEntity
  8
Layer 1
370
     0
100
AcDbVertex
100
AcDb2dVertex
 10
558.4333114303699
 20
-264.7336384252303
 30
0.0
  0
VERTEX
  5
65
330
5F
100
AcDbEntity
  8
Layer 1
370
     0
100
AcDbVertex
100
AcDb2dVertex
 10
508.6328829031618
 20
-264.7336384252303
 30
0.0
  0
VERTEX
  5
66
330
5F
100
AcDbEntity
  8
Layer 1
370
     0
100
AcDbVertex
100
AcDb2dVertex
 10
508.6328829031618
 20
-323.6147007766594
 30
0.0
  0
VERTEX
  5
67
330
5F
100
AcDbEntity
  8
Layer 1
370
     0
100
AcDbVertex
100
AcDb2dVertex
 10
566.275677005835
 20
-323.6147007766594
 30
0.0
  0
VERTEX
  5
68
330
5F
100
AcDbEntity
  8
Layer 1
370
     0
100
AcDbVertex
100
AcDb2dVertex
 10
595.1639124001431
 20
-352.0925252930647
 30
0.0
  0
VERTEX
  5
69
330
5F
100
AcDbEntity
  8
Layer 1
370
     0
100
AcDbVertex
100
AcDb2dVertex
 10
595.1639124001431
 20
-419.6402927832896
 30
0.0
  0
VERTEX
  5
6A
330
5F
100
AcDbEntity
  8
Layer 1
370
     0
100
AcDbVertex
100
AcDb2dVertex
 10
566.9651672807104
 20
-447.843728312755
 30
0.0
  0
VERTEX
  5
6B
330
5F
100
AcDbEntity
  8
Layer 1
370
     0
100
AcDbVertex
100
AcDb2dVertex
 10
499.9650051618592
 20
-447.843728312755
 30
0.0
  0
VERTEX
  5
6C
330
5F
100
AcDbEntity
  8
Layer 1
370
     0
100
AcDbVertex
100
AcDb2dVertex
 10
471.7627422349015
 20
-419.6402927832896
 30
0.0
  0
VERTEX
  5
6D
330
5F
100
AcDbEntity
  8
Layer 1
370
     0
100
AcDbVertex
100
AcDb2dVertex
 10
471.7627422349015
 20
-382.2202015386392
 30
0.0
  0
VERTEX
  5
6E
330
5F
100
AcDbEntity
  8
Layer 1
370
     0
100
AcDbVertex
100
AcDb2dVertex
 10
508.6328829031618
 20
-382.2202015386392
 30
0.0
  0
VERTEX
  5
6F
330
5F
100
AcDbEntity
  8
Layer 1
370
     0
100
AcDbVertex
100
AcDb2dVertex
 10
508.6328829031618
 20
-410.9747602470034
 30
0.0
  0
VERTEX
  5
70
330
5F
100
AcDbEntity
  8
Layer 1
370
     0
100
AcDbVertex
100
AcDb2dVertex
 10
558.4333114303699
 20
-410.9747602470034
 30
0.0
  0
VERTEX
  5
71
330
5F
100
AcDbEntity
  8
Layer 1
370
     0
100
AcDbVertex
100
AcDb2dVertex
 10
558.4333114303699
 20
-360.3464743489403
 30
0.0
  0
VERTEX
  5
72
330
5F
100
AcDbEntity
  8
Layer 1
370
     0
100
AcDbVertex
100
AcDb2dVertex
 10
499.277860092001
 20
-360.3464743489403
 30
0.0
  0
VERTEX
  5
73
330
5F
100
AcDbEntity
  8
Layer 1
370
     0
100
AcDbVertex
100
AcDb2dVertex
 10
471.7627422349015
 20
-332.2814059154534
 30
0.0
  0
VERTEX
  5
74
330
5F
100
AcDbEntity
  8
Layer 1
370
     0
100
AcDbVertex
100
AcDb2dVertex
 10
471.7627422349015
 20
-256.2041277799053
 30
0.0
  0
VERTEX
  5
75
330
5F
100
AcDbEntity
  8
Layer 1
370
     0
100
AcDbVertex
100
AcDb2dVertex
 10
499.9650051618592
 20
-227.8634977569691
 30
0.0
  0
VERTEX
  5
76
330
5F
100
AcDbEntity
  8
Layer 1
370
     0
100
AcDbVertex
100
AcDb2dVertex
 10
566.9651672807104
 20
-227.8634977569691
 30
0.0
  0
SEQEND
  5
77
330
5F
100
AcDbEntity
  8
Layer 1
370
     0
  0
HATCH
  5
78
330
45
100
AcDbEntity
  8
Layer 1
 62
   167
420
  2772859
100
AcDbHatch
 10
0.0
 20
0.0
 30
0.0
210
0.0
220
0.0
230
1.0
  2
SOLID
 70
     1
 71
     0
 91
        1
 92
        1
 93
       22
 72
     1
 10
566.9651672807104
 20
-227.8634977569691
 11
595.1639124001431
 21
-256.2041277799053
 72
     1
 10
595.1639124001431
 20
-256.2041277799053
 11
595.1639124001431
 21
-307.243997158379
 72
     1
 10
595.1639124001431
 20
-307.243997158379
 11
558.4333114303699
 21
-307.243997158379
 72
     1
 10
558.4333114303699
 20
-307.243997158379
 11
558.4333114303699
 21
-264.7336384252303
 72
     1
 10
558.4333114303699
 20
-264.7336384252303
 11
508.6328829031618
 21
-264.7336384252303
 72
     1
 10
508.6328829031618
 20
-264.7336384252303
 11
508.6328829031618
 21
-323.6147007766594
 72
     1
 10
508.6328829031618
 20
-323.6147007766594
 11
566.275677005835
 21
-323.6147007766594
 72
     1
 10
566.275677005835
 20
-323.6147007766594
 11
595.1639124001431
 21
-352.0925252930647
 72
     1
 10
595.1639124001431
 20
-352.0925252930647
 11
595.1639124001431
 21
-419.6402927832896
 72
     1
 10
595.1639124001431
 20
-419.6402927832896
 11
566.9651672807104
 21
-447.843728312755
 72
     1
 10
566.9651672807104
 20
-447.843728312755
 11
499.9650051618592
 21
-447.843728312755
 72
     1
 10
499.9650051618592
 20
-447.843728312755
 11
471.7627422349015
 21
-419.6402927832896
 72
     1
 10
471.7627422349015
 20
-419.6402927832896
 11
471.7627422349015
 21
-382.2202015386392
 72
     1
 10
471.7627422349015
 20
-382.2202015386392
 11
508.6328829031618
 21
-382.2202015386392
 72
     1
 10
508.6328829031618
 20
-382.2202015386392
 11
508.6328829031618
 21
-410.9747602470034
 72
     1
 10
508.6328829031618
 20
-410.9747602470034
 11
558.4333114303699
 21
-410.9747602470034
 72
     1
 10
558.4333114303699
 20
-410.9747602470034
 11
558.4333114303699
 21
-360.3464743489403
 72
     1
 10
558.4333114303699
 20
-360.3464743489403
 11
499.277860092001
 21
-360.3464743489403
 72
     1
 10
499.277860092001
 20
-360.3464743489403
 11
471.7627422349015
 21
-332.2814059154534
 72
     1
 10
471.7627422349015
 20
-332.2814059154534
 11
471.7627422349015
 21
-256.2041277799053
 72
     1
 10
471.7627422349015
 20
-256.2041277799053
 11
499.9650051618592
 21
-227.8634977569691
 72
     1
 10
499.9650051618592
 20
-227.8634977569691
 11
566.9651672807104
 21
-227.8634977569691
 97
        0
 75
     2
 76
     1
 98
        0
  0
POLYLINE
  5
79
330
45
100
AcDbEntity
  8
Layer 1
370
     0
100
AcDb2dPolyline
 66
     1
 10
0.0
 20
0.0
 30
0.0
  0
VERTEX
  5
7A
330
79
100
AcDbEntity
  8
Layer 1
370
     0
100
AcDbVertex
100
AcDb2dVertex
 10
663.9534659466499
 20
-390.200934210081
 30
0.0
  0
VERTEX
  5
7B
330
79
100
AcDbEntity
  8
Layer 1
370
     0
100
AcDbVertex
100
AcDb2dVertex
 10
659.2747819385604
 20
-411.1107821379646
 30
0.0
  0
VERTEX
  5
7C
330
79
100
AcDbEntity
  8
Layer 1
370
     0
100
AcDbVertex
100
AcDb2dVertex
 10
669.180927928619
 20
-411.1107821379646
 30
0.0
  0
VERTEX
  5
7D
330
79
100
AcDbEntity
  8
Layer 1
370
     0
100
AcDbVertex
100
AcDb2dVertex
 10
669.180927928619
 20
-447.843728312755
 30
0.0
  0
VERTEX
  5
7E
330
79
100
AcDbEntity
  8
Layer 1
370
     0
100
AcDbVertex
100
AcDb2dVertex
 10
608.9232302324544
 20
-447.843728312755
 30
0.0
  0
VERTEX
  5
7F
330
79
100
AcDbEntity
  8
Layer 1
370
     0
100
AcDbVertex
100
AcDb2dVertex
 10
608.9232302324544
 20
-411.1107821379646
 30
0.0
  0
VERTEX
  5
80
330
79
100
AcDbEntity
  8
Layer 1
370
     0
100
AcDbVertex
100
AcDb2dVertex
 10
622.6802028597485
 20
-411.1107821379646
 30
0.0
  0
VERTEX
  5
81
330
79
100
AcDbEntity
  8
Layer 1
370
     0
100
AcDbVertex
100
AcDb2dVertex
 10
665.4661231823466
 20
-227.8634977569691
 30
0.0
  0
VERTEX
  5
82
330
79
100
AcDbEntity
  8
Layer 1
370
     0
100
AcDbVertex
100
AcDb2dVertex
 10
702.886214426997
 20
-227.8634977569691
 30
0.0
  0
VERTEX
  5
83
330
79
100
AcDbEntity
  8
Layer 1
370
     0
100
AcDbVertex
100
AcDb2dVertex
 10
743.4699872390211
 20
-411.1107821379646
 30
0.0
  0
VERTEX
  5
84
330
79
100
AcDbEntity
  8
Layer 1
370
     0
100
AcDbVertex
100
AcDb2dVertex
 10
756.5398147964552
 20
-411.1107821379646
 30
0.0
  0
VERTEX
  5
85
330
79
100
AcDbEntity
  8
Layer 1
370
     0
100
AcDbVertex
100
AcDb2dVertex
 10
756.5398147964552
 20
-447.843728312755
 30
0.0
  0
VERTEX
  5
86
330
79
100
AcDbEntity
  8
Layer 1
370
     0
100
AcDbVertex
100
AcDb2dVertex
 10
696.2821171002888
 20
-447.843728312755
 30
0.0
  0
VERTEX
  5
87
330
79
100
AcDbEntity
  8
Layer 1
370
     0
100
AcDbVertex
100
AcDb2dVertex
 10
696.2821171002888
 20
-411.1107821379646
 30
0.0
  0
VERTEX
  5
88
330
79
100
AcDbEntity
  8
Layer 1
370
     0
100
AcDbVertex
100
AcDb2dVertex
 10
706.7370410642307
 20
-411.1107821379646
 30
0.0
  0
VERTEX
  5
89
330
79
100
AcDbEntity
  8
Layer 1
370
     0
100
AcDbVertex
100
AcDb2dVertex
 10
702.0607022611584
 20
-390.200934210081
 30
0.0
  0
VERTEX
  5
8A
330
79
100
AcDbEntity
  8
Layer 1
370
     0
100
AcDbVertex
100
AcDb2dVertex
 10
663.9534659466499
 20
-390.200934210081
 30
0.0
  0
SEQEND
  5
8B
330
79
100
AcDbEntity
  8
Layer 1
370
     0
  0
POLYLINE
  5
8C
330
45
100
AcDbEntity
  8
Layer 1
370
     0
100
AcDb2dPolyline
 66
     1
 10
0.0
 20
0.0
 30
0.0
  0
VERTEX
  5
8D
330
8C
100
AcDbEntity
  8
Layer 1
370
     0
100
AcDbVertex
100
AcDb2dVertex
 10
693.9439476987536
 20
-353.6063551312709
 30
0.0
  0
VERTEX
  5
8E
330
8C
100
AcDbEntity
  8
Layer 1
370
     0
100
AcDbVertex
100
AcDb2dVertex
 10
683.0762676518934
 20
-305.3174112372526
 30
0.0
  0
VERTEX
  5
8F
330
8C
100
AcDbEntity
  8
Layer 1
370
     0
100
AcDbVertex
100
AcDb2dVertex
 10
672.206242400016
 20
-353.6063551312709
 30
0.0
  0
VERTEX
  5
90
330
8C
100
AcDbEntity
  8
Layer 1
370
     0
100
AcDbVertex
100
AcDb2dVertex
 10
693.9439476987536
 20
-353.6063551312709
 30
0.0
  0
SEQEND
  5
91
330
8C
100
AcDbEntity
  8
Layer 1
370
     0
  0
HATCH
  5
92
330
45
100
AcDbEntity
  8
Layer 1
 62
   167
420
  2772859
100
AcDbHatch
 10
0.0
 20
0.0
 30
0.0
210
0.0
220
0.0
230
1.0
  2
SOLID
 70
     1
 71
     0
 91
        2
 92
        1
 93
       16
 72
     1
 10
663.9534659466499
 20
-390.200934210081
 11
659.2747819385604
 21
-411.1107821379646
 72
     1
 10
659.2747819385604
 20
-411.1107821379646
 11
669.180927928619
 21
-411.1107821379646
 72
     1
 10
669.180927928619
 20
-411.1107821379646
 11
669.180927928619
 21
-447.843728312755
 72
     1
 10
669.180927928619
 20
-447.843728312755
 11
608.9232302324544
 21
-447.843728312755
 72
     1
 10
608.9232302324544
 20
-447.843728312755
 11
608.9232302324544
 21
-411.1107821379646
 72
     1
 10
608.9232302324544
 20
-411.1107821379646
 11
622.6802028597485
 21
-411.1107821379646
 72
     1
 10
622.6802028597485
 20
-411.1107821379646
 11
665.4661231823466
 21
-227.8634977569691
 72
     1
 10
665.4661231823466
 20
-227.8634977569691
 11
702.886214426997
 21
-227.8634977569691
 72
     1
 10
702.886214426997
 20
-227.8634977569691
 11
743.4699872390211
 21
-411.1107821379646
 72
     1
 10
743.4699872390211
 20
-411.1107821379646
 11
756.5398147964552
 21
-411.1107821379646
 72
     1
 10
756.5398147964552
 20
-411.1107821379646
 11
756.5398147964552
 21
-447.843728312755
 72
     1
 10
756.5398147964552
 20
-447.843728312755
 11
696.2821171002888
 21
-447.843728312755
 72
     1
 10
696.2821171002888
 20
-447.843728312755
 11
696.2821171002888
 21
-411.1107821379646
 72
     1
 10
696.2821171002888
 20
-411.1107821379646
 11
706.7370410642307
 21
-411.1107821379646
 72
     1
 10
706.7370410642307
 20
-411.1107821379646
 11
702.0607022611584
 21
-390.200934210081
 72
     1
 10
702.0607022611584
 20
-390.200934210081
 11
663.9534659466499
 21
-390.200934210081
 97
        0
 92
        1
 93
        3
 72
     1
 10
693.9439476987536
 20
-353.6063551312709
 11
683.0762676518934
 21
-305.3174112372526
 72
     1
 10
683.0762676518934
 20
-305.3174112372526
 11
672.206242400016
 21
-353.6063551312709
 72
     1
 10
672.206242400016
 20
-353.6063551312709
 11
693.9439476987536
 21
-353.6063551312709
 97
        0
 75
     2
 76
     1
 98
        0
  0
ENDBLK
  5
48
330
45
100
AcDbEntity
  8
0
100
AcDbBlockEnd
  0
BLOCK
  5
95
330
93
100
AcDbEntity
  8
0
100
AcDbBlockBegin
  2
block 4
 70
     0
 10
0.0
 20
0.0
 30
0.0
  3
block 4
  1

  0
SPLINE
  5
97
330
93
100
AcDbEntity
  8
Layer 1
370
     0
100
AcDbSpline
210
0.0
220
0.0
230
1.0
 70
    11
 71
     3
 72
    86
 73
    82
 74
     0
 42
0.0000000001
 43
0.0000000001
 12
1.0
 22
0.0
 32
0.0
 13
1.0
 23
0.0
 33
0.0
 40
0.0
 40
0.0
 40
0.0
 40
0.0
 40
1.0
 40
1.0
 40
1.0
 40
2.0
 40
2.0
 40
2.0
 40
3.0
 40
3.0
 40
3.0
 40
4.0
 40
4.0
 40
4.0
 40
5.0
 40
5.0
 40
5.0
 40
6.0
 40
6.0
 40
6.0
 40
7.0
 40
7.0
 40
7.0
 40
8.0
 40
8.0
 40
8.0
 40
9.0
 40
9.0
 40
9.0
 40
10.0
 40
10.0
 40
10.0
 40
11.0
 40
11.0
 40
11.0
 40
12.0
 40
12.0
 40
12.0
 40
13.0
 40
13.0
 40
13.0
 40
14.0
 40
14.0
 40
14.0
 40
15.0
 40
15.0
 40
15.0
 40
16.0
 40
16.0
 40
16.0
 40
17.0
 40
17.0
 40
17.0
 40
18.0
 40
18.0
 40
18.0
 40
19.0
 40
19.0
 40
19.0
 40
20.0
 40
20.0
 40
20.0
 40
21.0
 40
21.0
 40
21.0
 40
22.0
 40
22.0
 40
22.0
 40
23.0
 40
23.0
 40
23.0
 40
24.0
 40
24.0
 40
24.0
 40
25.0
 40
25.0
 40
25.0
 40
26.0
 40
26.0
 40
26.0
 40
27.0
 40
27.0
 40
27.0
 40
27.0
 10
205.9663106574235
 20
-733.023003534654
 30
0.0
 10
206.3907927654254
 20
-729.2050097676511
 30
0.0
 10
205.5418285494197
 20
-726.2336350116366
 30
0.0
 10
202.1471442879119
 20
-723.6890875686404
 30
0.0
 10
172.0194680423374
 20
-702.4720177835843
 30
0.0
 10
158.4407309963044
 20
-671.4942047194963
 30
0.0
 10
152.5003266892909
 20
-636.2739157804062
 30
0.0
 10
150.8023982572822
 20
-624.817589274382
 30
0.0
 10
150.3779161492803
 20
-613.3612627683578
 30
0.0
 10
149.9534340412774
 20
-601.4804541543344
 30
0.0
 10
149.9534340412774
 20
-598.933561506321
 30
0.0
 10
149.9534340412774
 20
-596.3866688583075
 30
0.0
 10
150.3779161492803
 20
-593.8421214153132
 30
0.0
 10
152.0758445812889
 20
-582.3834497042717
 30
0.0
 10
156.7428025642957
 20
-577.7164917212649
 30
0.0
 10
168.2003016728268
 20
-576.44304539726
 30
0.0
 10
175.4141523038452
 20
-575.5940811812543
 30
0.0
 10
182.6280029348654
 20
-576.44304539726
 30
0.0
 10
189.8418535658839
 20
-576.867527505261
 30
0.0
 10
197.0557041969041
 20
-577.2920096132639
 30
0.0
 10
204.268382225413
 20
-577.2920096132639
 30
0.0
 10
211.4822328564333
 20
-577.2920096132639
 30
0.0
 10
221.6662856409584
 20
-577.7164917212649
 30
0.0
 10
225.48545201047
 20
-580.6878664772812
 30
0.0
 10
226.334416226473
 20
-590.8707466592969
 30
0.0
 10
226.7588983344767
 20
-595.9621867503047
 30
0.0
 10
226.7588983344767
 20
-601.0559720463316
 30
0.0
 10
226.7588983344767
 20
-606.5718942453423
 30
0.0
 10
227.6078625504797
 20
-621.8485597233848
 30
0.0
 10
229.7291004879817
 20
-637.1228799964101
 30
0.0
 10
233.5482668574932
 20
-652.3995454744527
 30
0.0
 10
235.6695047949943
 20
-659.6133961054729
 30
0.0
 10
238.639706948501
 20
-666.8272467364914
 30
0.0
 10
243.7323196420184
 20
-672.343168935502
 30
0.0
 10
249.24824184103
 20
-679.1325374585176
 30
0.0
 10
252.6429261025387
 20
-679.1325374585176
 30
0.0
 10
257.7355387960542
 20
-672.343168935502
 30
0.0
 10
271.7387579500919
 20
-653.6729917984594
 30
0.0
 10
283.6195665641162
 20
-633.7293683374119
 30
0.0
 10
289.5599708711288
 20
-611.2388522283472
 30
0.0
 10
291.6823814111394
 20
-603.6005194893278
 30
0.0
 10
294.6525835646462
 20
-595.9621867503047
 30
0.0
 10
295.501547780651
 20
-587.4772350002968
 30
0.0
 10
295.9260298886529
 20
-580.6878664772812
 30
0.0
 10
301.4419520876627
 20
-577.7164917212649
 30
0.0
 10
309.5047669346859
 20
-578.9899380452716
 30
0.0
 10
316.2941354577042
 20
-579.8389022612755
 30
0.0
 10
319.6876471167043
 20
-582.8079318122745
 30
0.0
 10
318.4153733952062
 20
-590.446264551294
 30
0.0
 10
317.1419270711995
 20
-598.0845972903153
 30
0.0
 10
314.5962070256955
 20
-605.7229300293366
 30
0.0
 10
312.8982785936878
 20
-613.3612627683578
 30
0.0
 10
306.5333921786732
 20
-640.5187368604275
 30
0.0
 10
297.622785718153
 20
-667.2517288444942
 30
0.0
 10
283.1950844561143
 20
-691.4378281805475
 30
0.0
 10
282.7706023481132
 20
-692.2867923965496
 30
0.0
 10
282.3472928426181
 20
-693.1357566125553
 30
0.0
 10
281.4983286266142
 20
-693.9847208285591
 30
0.0
 10
271.3142758420872
 20
-704.5920831185795
 30
0.0
 10
270.4653116260852
 20
-718.1708201646143
 30
0.0
 10
270.8897937340862
 20
-732.1740393186483
 30
0.0
 10
271.7387579500919
 20
-763.5763344907373
 30
0.0
 10
270.4653116260852
 20
-794.551802349808
 30
0.0
 10
273.0110316715891
 20
-825.9517523168815
 30
0.0
 10
273.4355137795919
 20
-828.923127072896
 30
0.0
 10
273.4355137795919
 20
-831.8945018289105
 30
0.0
 10
273.4355137795919
 20
-834.8635313799095
 30
0.0
 10
273.0110316715891
 20
-840.8039356869212
 30
0.0
 10
270.0408295180823
 20
-845.0487567669425
 30
0.0
 10
264.5249073190716
 20
-846.3222030909492
 30
0.0
 10
252.2184439945358
 20
-850.1401968579521
 30
0.0
 10
240.3376353805097
 20
-853.1092264089493
 30
0.0
 10
227.6078625504797
 20
-851.8381252899599
 30
0.0
 10
212.75567918044
 20
-850.1401968579521
 30
0.0
 10
207.6642390894322
 20
-845.4732388749435
 30
0.0
 10
206.3907927654254
 20
-831.0455376129066
 30
0.0
 10
205.1173464414187
 20
-813.6464615948535
 30
0.0
 10
205.5418285494197
 20
-796.6742128898186
 30
0.0
 10
205.9663106574235
 20
-779.6996189797683
 30
0.0
 10
205.9663106574235
 20
-764.0008165987401
 30
0.0
 10
205.9663106574235
 20
-748.7241511206976
 30
0.0
 10
205.9663106574235
 20
-733.023003534654
 30
0.0
  0
SPLINE
  5
98
330
93
100
AcDbEntity
  8
Layer 1
370
     0
100
AcDbSpline
210
0.0
220
0.0
230
1.0
 70
    11
 71
     3
 72
    26
 73
    22
 74
     0
 42
0.0000000001
 43
0.0000000001
 12
1.0
 22
0.0
 32
0.0
 13
1.0
 23
0.0
 33
0.0
 40
0.0
 40
0.0
 40
0.0
 40
0.0
 40
1.0
 40
1.0
 40
1.0
 40
2.0
 40
2.0
 40
2.0
 40
3.0
 40
3.0
 40
3.0
 40
4.0
 40
4.0
 40
4.0
 40
5.0
 40
5.0
 40
5.0
 40
6.0
 40
6.0
 40
6.0
 40
7.0
 40
7.0
 40
7.0
 40
7.0
 10
216.1503634419478
 20
-673.6166152595088
 30
0.0
 10
204.268382225413
 20
-652.3995454744527
 30
0.0
 10
196.2067399808984
 20
-630.3335114733927
 30
0.0
 10
193.6610199353954
 20
-605.7229300293366
 30
0.0
 10
193.2365378273935
 20
-598.5090793983181
 30
0.0
 10
192.3875736113887
 20
-598.5090793983181
 30
0.0
 10
184.3247587643655
 20
-598.933561506321
 30
0.0
 10
178.3843544573519
 20
-599.3580436143238
 30
0.0
 10
177.9598723493509
 20
-599.3580436143238
 30
0.0
 10
178.3843544573519
 20
-606.1474121373394
 30
0.0
 10
179.2333186733576
 20
-622.6951787343714
 30
0.0
 10
181.7790387188597
 20
-639.2452905364207
 30
0.0
 10
186.8716514123789
 20
-654.5219560144633
 30
0.0
 10
194.0855020433974
 20
-675.7390257995175
 30
0.0
 10
205.9663106574235
 20
-693.5602387205563
 30
0.0
 10
224.2131782889719
 20
-706.7144936585901
 30
0.0
 10
233.9727489654952
 20
-713.5038621816057
 30
0.0
 10
236.518469011
 20
-713.0793800736028
 30
0.0
 10
244.1568017500194
 20
-703.32098199959
 30
0.0
 10
230.5780647039865
 20
-694.833685044563
 30
0.0
 10
224.2131782889719
 20
-688.4687986295485
 30
0.0
 10
216.1503634419478
 20
-673.6166152595088
 30
0.0
  0
SPLINE
  5
99
330
93
100
AcDbEntity
  8
Layer 1
370
     0
100
AcDbSpline
210
0.0
220
0.0
230
1.0
 70
    11
 71
     3
 72
    29
 73
    25
 74
     0
 42
0.0000000001
 43
0.0000000001
 12
1.0
 22
0.0
 32
0.0
 13
1.0
 23
0.0
 33
0.0
 40
0.0
 40
0.0
 40
0.0
 40
0.0
 40
1.0
 40
1.0
 40
1.0
 40
2.0
 40
2.0
 40
2.0
 40
3.0
 40
3.0
 40
3.0
 40
4.0
 40
4.0
 40
4.0
 40
5.0
 40
5.0
 40
5.0
 40
6.0
 40
6.0
 40
6.0
 40
7.0
 40
7.0
 40
7.0
 40
8.0
 40
8.0
 40
8.0
 40
8.0
 10
231.8503384254855
 20
-747.8751869046937
 30
0.0
 10
231.4258563174817
 20
-771.6368041327441
 30
0.0
 10
231.0025468119884
 20
-794.9762844578108
 30
0.0
 10
230.5780647039865
 20
-818.3157647828775
 30
0.0
 10
230.5780647039865
 20
-820.011348009868
 30
0.0
 10
230.1535825959854
 20
-822.1337585498786
 30
0.0
 10
230.1535825959854
 20
-824.2561690898874
 30
0.0
 10
230.1535825959854
 20
-826.8007165328854
 30
0.0
 10
231.4258563174817
 20
-828.4986449648932
 30
0.0
 10
234.3972310734971
 20
-828.4986449648932
 30
0.0
 10
236.0939869029971
 20
-828.0741628568903
 30
0.0
 10
237.7919153350049
 20
-828.0741628568903
 30
0.0
 10
239.4886711645067
 20
-828.4986449648932
 30
0.0
 10
243.7323196420184
 20
-828.923127072896
 30
0.0
 10
246.2780396875232
 20
-827.6496807488893
 30
0.0
 10
245.4290754715184
 20
-822.1337585498786
 30
0.0
 10
243.7323196420184
 20
-813.6464615948535
 30
0.0
 10
245.0045933635165
 20
-805.1615098448437
 30
0.0
 10
245.0045933635165
 20
-796.6742128898186
 30
0.0
 10
245.0045933635165
 20
-775.4571431047625
 30
0.0
 10
245.0045933635165
 20
-754.6645554277093
 30
0.0
 10
245.0045933635165
 20
-733.023003534654
 30
0.0
 10
230.5780647039865
 20
-736.4188603986695
 30
0.0
 10
232.2748205334865
 20
-733.871967750656
 30
0.0
 10
231.8503384254855
 20
-747.8751869046937
 30
0.0
  0
HATCH
  5
9A
330
93
100
AcDbEntity
  8
Layer 1
 62
   167
420
  2772859
100
AcDbHatch
 10
0.0
 20
0.0
 30
0.0
210
0.0
220
0.0
230
1.0
  2
SOLID
 70
     1
 71
     0
 91
        3
 92
        1
 93
        1
 72
     4
 94
        3
 73
     0
 74
     1
 95
       86
 96
       82
 40
0.0
 40
0.0
 40
0.0
 40
0.0
 40
1.0
 40
1.0
 40
1.0
 40
2.0
 40
2.0
 40
2.0
 40
3.0
 40
3.0
 40
3.0
 40
4.0
 40
4.0
 40
4.0
 40
5.0
 40
5.0
 40
5.0
 40
6.0
 40
6.0
 40
6.0
 40
7.0
 40
7.0
 40
7.0
 40
8.0
 40
8.0
 40
8.0
 40
9.0
 40
9.0
 40
9.0
 40
10.0
 40
10.0
 40
10.0
 40
11.0
 40
11.0
 40
11.0
 40
12.0
 40
12.0
 40
12.0
 40
13.0
 40
13.0
 40
13.0
 40
14.0
 40
14.0
 40
14.0
 40
15.0
 40
15.0
 40
15.0
 40
16.0
 40
16.0
 40
16.0
 40
17.0
 40
17.0
 40
17.0
 40
18.0
 40
18.0
 40
18.0
 40
19.0
 40
19.0
 40
19.0
 40
20.0
 40
20.0
 40
20.0
 40
21.0
 40
21.0
 40
21.0
 40
22.0
 40
22.0
 40
22.0
 40
23.0
 40
23.0
 40
23.0
 40
24.0
 40
24.0
 40
24.0
 40
25.0
 40
25.0
 40
25.0
 40
26.0
 40
26.0
 40
26.0
 40
27.0
 40
27.0
 40
27.0
 40
27.0
 10
205.9663106574235
 20
-733.023003534654
 10
206.3907927654254
 20
-729.2050097676511
 10
205.5418285494197
 20
-726.2336350116366
 10
202.1471442879119
 20
-723.6890875686404
 10
172.0194680423374
 20
-702.4720177835843
 10
158.4407309963044
 20
-671.4942047194963
 10
152.5003266892909
 20
-636.2739157804062
 10
150.8023982572822
 20
-624.817589274382
 10
150.3779161492803
 20
-613.3612627683578
 10
149.9534340412774
 20
-601.4804541543344
 10
149.9534340412774
 20
-598.933561506321
 10
149.9534340412774
 20
-596.3866688583075
 10
150.3779161492803
 20
-593.8421214153132
 10
152.0758445812889
 20
-582.3834497042717
 10
156.7428025642957
 20
-577.7164917212649
 10
168.2003016728268
 20
-576.44304539726
 10
175.4141523038452
 20
-575.5940811812543
 10
182.6280029348654
 20
-576.44304539726
 10
189.8418535658839
 20
-576.867527505261
 10
197.0557041969041
 20
-577.2920096132639
 10
204.268382225413
 20
-577.2920096132639
 10
211.4822328564333
 20
-577.2920096132639
 10
221.6662856409584
 20
-577.7164917212649
 10
225.48545201047
 20
-580.6878664772812
 10
226.334416226473
 20
-590.8707466592969
 10
226.7588983344767
 20
-595.9621867503047
 10
226.7588983344767
 20
-601.0559720463316
 10
226.7588983344767
 20
-606.5718942453423
 10
227.6078625504797
 20
-621.8485597233848
 10
229.7291004879817
 20
-637.1228799964101
 10
233.5482668574932
 20
-652.3995454744527
 10
235.6695047949943
 20
-659.6133961054729
 10
238.639706948501
 20
-666.8272467364914
 10
243.7323196420184
 20
-672.343168935502
 10
249.24824184103
 20
-679.1325374585176
 10
252.6429261025387
 20
-679.1325374585176
 10
257.7355387960542
 20
-672.343168935502
 10
271.7387579500919
 20
-653.6729917984594
 10
283.6195665641162
 20
-633.7293683374119
 10
289.5599708711288
 20
-611.2388522283472
 10
291.6823814111394
 20
-603.6005194893278
 10
294.6525835646462
 20
-595.9621867503047
 10
295.501547780651
 20
-587.4772350002968
 10
295.9260298886529
 20
-580.6878664772812
 10
301.4419520876627
 20
-577.7164917212649
 10
309.5047669346859
 20
-578.9899380452716
 10
316.2941354577042
 20
-579.8389022612755
 10
319.6876471167043
 20
-582.8079318122745
 10
318.4153733952062
 20
-590.446264551294
 10
317.1419270711995
 20
-598.0845972903153
 10
314.5962070256955
 20
-605.7229300293366
 10
312.8982785936878
 20
-613.3612627683578
 10
306.5333921786732
 20
-640.5187368604275
 10
297.622785718153
 20
-667.2517288444942
 10
283.1950844561143
 20
-691.4378281805475
 10
282.7706023481132
 20
-692.2867923965496
 10
282.3472928426181
 20
-693.1357566125553
 10
281.4983286266142
 20
-693.9847208285591
 10
271.3142758420872
 20
-704.5920831185795
 10
270.4653116260852
 20
-718.1708201646143
 10
270.8897937340862
 20
-732.1740393186483
 10
271.7387579500919
 20
-763.5763344907373
 10
270.4653116260852
 20
-794.551802349808
 10
273.0110316715891
 20
-825.9517523168815
 10
273.4355137795919
 20
-828.923127072896
 10
273.4355137795919
 20
-831.8945018289105
 10
273.4355137795919
 20
-834.8635313799095
 10
273.0110316715891
 20
-840.8039356869212
 10
270.0408295180823
 20
-845.0487567669425
 10
264.5249073190716
 20
-846.3222030909492
 10
252.2184439945358
 20
-850.1401968579521
 10
240.3376353805097
 20
-853.1092264089493
 10
227.6078625504797
 20
-851.8381252899599
 10
212.75567918044
 20
-850.1401968579521
 10
207.6642390894322
 20
-845.4732388749435
 10
206.3907927654254
 20
-831.0455376129066
 10
205.1173464414187
 20
-813.6464615948535
 10
205.5418285494197
 20
-796.6742128898186
 10
205.9663106574235
 20
-779.6996189797683
 10
205.9663106574235
 20
-764.0008165987401
 10
205.9663106574235
 20
-748.7241511206976
 10
205.9663106574235
 20
-733.023003534654
 97
        0
 97
        0
 92
        1
 93
        1
 72
     4
 94
        3
 73
     0
 74
     1
 95
       26
 96
       22
 40
0.0
 40
0.0
 40
0.0
 40
0.0
 40
1.0
 40
1.0
 40
1.0
 40
2.0
 40
2.0
 40
2.0
 40
3.0
 40
3.0
 40
3.0
 40
4.0
 40
4.0
 40
4.0
 40
5.0
 40
5.0
 40
5.0
 40
6.0
 40
6.0
 40
6.0
 40
7.0
 40
7.0
 40
7.0
 40
7.0
 10
216.1503634419478
 20
-673.6166152595088
 10
204.268382225413
 20
-652.3995454744527
 10
196.2067399808984
 20
-630.3335114733927
 10
193.6610199353954
 20
-605.7229300293366
 10
193.2365378273935
 20
-598.5090793983181
 10
192.3875736113887
 20
-598.5090793983181
 10
184.3247587643655
 20
-598.933561506321
 10
178.3843544573519
 20
-599.3580436143238
 10
177.9598723493509
 20
-599.3580436143238
 10
178.3843544573519
 20
-606.1474121373394
 10
179.2333186733576
 20
-622.6951787343714
 10
181.7790387188597
 20
-639.2452905364207
 10
186.8716514123789
 20
-654.5219560144633
 10
194.0855020433974
 20
-675.7390257995175
 10
205.9663106574235
 20
-693.5602387205563
 10
224.2131782889719
 20
-706.7144936585901
 10
233.9727489654952
 20
-713.5038621816057
 10
236.518469011
 20
-713.0793800736028
 10
244.1568017500194
 20
-703.32098199959
 10
230.5780647039865
 20
-694.833685044563
 10
224.2131782889719
 20
-688.4687986295485
 10
216.1503634419478
 20
-673.6166152595088
 97
        0
 97
        0
 92
        1
 93
        1
 72
     4
 94
        3
 73
     0
 74
     1
 95
       29
 96
       25
 40
0.0
 40
0.0
 40
0.0
 40
0.0
 40
1.0
 40
1.0
 40
1.0
 40
2.0
 40
2.0
 40
2.0
 40
3.0
 40
3.0
 40
3.0
 40
4.0
 40
4.0
 40
4.0
 40
5.0
 40
5.0
 40
5.0
 40
6.0
 40
6.0
 40
6.0
 40
7.0
 40
7.0
 40
7.0
 40
8.0
 40
8.0
 40
8.0
 40
8.0
 10
231.8503384254855
 20
-747.8751869046937
 10
231.4258563174817
 20
-771.6368041327441
 10
231.0025468119884
 20
-794.9762844578108
 10
230.5780647039865
 20
-818.3157647828775
 10
230.5780647039865
 20
-820.011348009868
 10
230.1535825959854
 20
-822.1337585498786
 10
230.1535825959854
 20
-824.2561690898874
 10
230.1535825959854
 20
-826.8007165328854
 10
231.4258563174817
 20
-828.4986449648932
 10
234.3972310734971
 20
-828.4986449648932
 10
236.0939869029971
 20
-828.0741628568903
 10
237.7919153350049
 20
-828.0741628568903
 10
239.4886711645067
 20
-828.4986449648932
 10
243.7323196420184
 20
-828.923127072896
 10
246.2780396875232
 20
-827.6496807488893
 10
245.4290754715184
 20
-822.1337585498786
 10
243.7323196420184
 20
-813.6464615948535
 10
245.0045933635165
 20
-805.1615098448437
 10
245.0045933635165
 20
-796.6742128898186
 10
245.0045933635165
 20
-775.4571431047625
 10
245.0045933635165
 20
-754.6645554277093
 10
245.0045933635165
 20
-733.023003534654
 10
230.5780647039865
 20
-736.4188603986695
 10
232.2748205334865
 20
-733.871967750656
 10
231.8503384254855
 20
-747.8751869046937
 97
        0
 97
        0
 75
     2
 76
     1
 98
        0
  0
SPLINE
  5
9B
330
93
100
AcDbEntity
  8
Layer 1
370
     0
100
AcDbSpline
210
0.0
220
0.0
230
1.0
 70
    11
 71
     3
 72
    35
 73
    31
 74
     0
 42
0.0000000001
 43
0.0000000001
 12
1.0
 22
0.0
 32
0.0
 13
1.0
 23
0.0
 33
0.0
 40
0.0
 40
0.0
 40
0.0
 40
0.0
 40
1.0
 40
1.0
 40
1.0
 40
2.0
 40
2.0
 40
2.0
 40
3.0
 40
3.0
 40
3.0
 40
4.0
 40
4.0
 40
4.0
 40
5.0
 40
5.0
 40
5.0
 40
6.0
 40
6.0
 40
6.0
 40
7.0
 40
7.0
 40
7.0
 40
8.0
 40
8.0
 40
8.0
 40
9.0
 40
9.0
 40
9.0
 40
10.0
 40
10.0
 40
10.0
 40
10.0
 10
337.5041696277094
 20
-584.9303423522833
 30
0.0
 10
336.2307233037027
 20
-581.5344854882678
 30
0.0
 10
335.8062411957007
 20
-577.7164917212649
 30
0.0
 10
336.2307233037027
 20
-574.3229800622648
 30
0.0
 10
337.5041696277094
 20
-564.1377546752301
 30
0.0
 10
340.4743717812162
 20
-561.1687251242329
 30
0.0
 10
351.0829066737442
 20
-560.74424301623
 30
0.0
 10
358.7212394127637
 20
-560.74424301623
 30
0.0
 10
365.9350900437839
 20
-560.319760908229
 30
0.0
 10
373.5722501802975
 20
-560.74424301623
 30
0.0
 10
382.9085113513265
 20
-561.1687251242329
 30
0.0
 10
387.1509872263305
 20
-565.8356831072397
 30
0.0
 10
386.3031956128352
 20
-574.7474621702677
 30
0.0
 10
384.1807850728237
 20
-603.6005194893278
 30
0.0
 10
378.664862873813
 20
-631.6069577973994
 30
0.0
 10
365.0861258277782
 20
-657.4909855654623
 30
0.0
 10
364.6616437197772
 20
-657.9154676734634
 30
0.0
 10
364.2371616117753
 20
-658.3399497814644
 30
0.0
 10
364.2371616117753
 20
-659.1889139974701
 30
0.0
 10
361.6914415662704
 20
-663.006907764473
 30
0.0
 10
358.7212394127637
 20
-665.5538004124865
 30
0.0
 10
353.6286267192472
 20
-664.7048361964808
 30
0.0
 10
348.9616687362404
 20
-663.431389872474
 30
0.0
 10
347.2637403042318
 20
-659.6133961054729
 30
0.0
 10
347.2637403042318
 20
-655.79540233847
 30
0.0
 10
346.8392581962307
 20
-649.4281707184382
 30
0.0
 10
346.8392581962307
 20
-643.0632843034218
 30
0.0
 10
346.8392581962307
 20
-636.6983978884091
 30
0.0
 10
346.8392581962307
 20
-618.8771849673685
 30
0.0
 10
344.293538150725
 20
-601.4804541543344
 30
0.0
 10
337.5041696277094
 20
-584.9303423522833
 30
0.0
  0
SPLINE
  5
9C
330
93
100
AcDbEntity
  8
Layer 1
370
     0
100
AcDbSpline
210
0.0
220
0.0
230
1.0
 70
    11
 71
     3
 72
    17
 73
    13
 74
     0
 42
0.0000000001
 43
0.0000000001
 12
1.0
 22
0.0
 32
0.0
 13
1.0
 23
0.0
 33
0.0
 40
0.0
 40
0.0
 40
0.0
 40
0.0
 40
1.0
 40
1.0
 40
1.0
 40
2.0
 40
2.0
 40
2.0
 40
3.0
 40
3.0
 40
3.0
 40
4.0
 40
4.0
 40
4.0
 40
4.0
 10
368.056327981285
 20
-582.3834497042717
 30
0.0
 10
368.056327981285
 20
-579.8389022612755
 30
0.0
 10
365.9350900437839
 20
-579.4144201532727
 30
0.0
 10
363.8126795037733
 20
-579.4144201532727
 30
0.0
 10
361.2669594582694
 20
-579.8389022612755
 30
0.0
 10
360.8424773502666
 20
-581.112348585284
 30
0.0
 10
361.2669594582694
 20
-583.6568960282784
 30
0.0
 10
362.5404057822761
 20
-588.3261992163007
 30
0.0
 10
363.8126795037733
 20
-593.4176393073103
 30
0.0
 10
365.0861258277782
 20
-599.3580436143238
 30
0.0
 10
368.4808100892888
 20
-593.4176393073103
 30
0.0
 10
368.056327981285
 20
-587.9017171082996
 30
0.0
 10
368.056327981285
 20
-582.3834497042717
 30
0.0
  0
HATCH
  5
9D
330
93
100
AcDbEntity
  8
Layer 1
 62
   167
420
  2772859
100
AcDbHatch
 10
0.0
 20
0.0
 30
0.0
210
0.0
220
0.0
230
1.0
  2
SOLID
 70
     1
 71
     0
 91
        2
 92
        1
 93
        1
 72
     4
 94
        3
 73
     0
 74
     1
 95
       35
 96
       31
 40
0.0
 40
0.0
 40
0.0
 40
0.0
 40
1.0
 40
1.0
 40
1.0
 40
2.0
 40
2.0
 40
2.0
 40
3.0
 40
3.0
 40
3.0
 40
4.0
 40
4.0
 40
4.0
 40
5.0
 40
5.0
 40
5.0
 40
6.0
 40
6.0
 40
6.0
 40
7.0
 40
7.0
 40
7.0
 40
8.0
 40
8.0
 40
8.0
 40
9.0
 40
9.0
 40
9.0
 40
10.0
 40
10.0
 40
10.0
 40
10.0
 10
337.5041696277094
 20
-584.9303423522833
 10
336.2307233037027
 20
-581.5344854882678
 10
335.8062411957007
 20
-577.7164917212649
 10
336.2307233037027
 20
-574.3229800622648
 10
337.5041696277094
 20
-564.1377546752301
 10
340.4743717812162
 20
-561.1687251242329
 10
351.0829066737442
 20
-560.74424301623
 10
358.7212394127637
 20
-560.74424301623
 10
365.9350900437839
 20
-560.319760908229
 10
373.5722501802975
 20
-560.74424301623
 10
382.9085113513265
 20
-561.1687251242329
 10
387.1509872263305
 20
-565.8356831072397
 10
386.3031956128352
 20
-574.7474621702677
 10
384.1807850728237
 20
-603.6005194893278
 10
378.664862873813
 20
-631.6069577973994
 10
365.0861258277782
 20
-657.4909855654623
 10
364.6616437197772
 20
-657.9154676734634
 10
364.2371616117753
 20
-658.3399497814644
 10
364.2371616117753
 20
-659.1889139974701
 10
361.6914415662704
 20
-663.006907764473
 10
358.7212394127637
 20
-665.5538004124865
 10
353.6286267192472
 20
-664.7048361964808
 10
348.9616687362404
 20
-663.431389872474
 10
347.2637403042318
 20
-659.6133961054729
 10
347.2637403042318
 20
-655.79540233847
 10
346.8392581962307
 20
-649.4281707184382
 10
346.8392581962307
 20
-643.0632843034218
 10
346.8392581962307
 20
-636.6983978884091
 10
346.8392581962307
 20
-618.8771849673685
 10
344.293538150725
 20
-601.4804541543344
 10
337.5041696277094
 20
-584.9303423522833
 97
        0
 97
        0
 92
        1
 93
        1
 72
     4
 94
        3
 73
     0
 74
     1
 95
       17
 96
       13
 40
0.0
 40
0.0
 40
0.0
 40
0.0
 40
1.0
 40
1.0
 40
1.0
 40
2.0
 40
2.0
 40
2.0
 40
3.0
 40
3.0
 40
3.0
 40
4.0
 40
4.0
 40
4.0
 40
4.0
 10
368.056327981285
 20
-582.3834497042717
 10
368.056327981285
 20
-579.8389022612755
 10
365.9350900437839
 20
-579.4144201532727
 10
363.8126795037733
 20
-579.4144201532727
 10
361.2669594582694
 20
-579.8389022612755
 10
360.8424773502666
 20
-581.112348585284
 10
361.2669594582694
 20
-583.6568960282784
 10
362.5404057822761
 20
-588.3261992163007
 10
363.8126795037733
 20
-593.4176393073103
 10
365.0861258277782
 20
-599.3580436143238
 10
368.4808100892888
 20
-593.4176393073103
 10
368.056327981285
 20
-587.9017171082996
 10
368.056327981285
 20
-582.3834497042717
 97
        0
 97
        0
 75
     2
 76
     1
 98
        0
  0
SPLINE
  5
9E
330
93
100
AcDbEntity
  8
Layer 1
370
     0
100
AcDbSpline
210
0.0
220
0.0
230
1.0
 70
    11
 71
     3
 72
    83
 73
    79
 74
     0
 42
0.0000000001
 43
0.0000000001
 12
1.0
 22
0.0
 32
0.0
 13
1.0
 23
0.0
 33
0.0
 40
0.0
 40
0.0
 40
0.0
 40
0.0
 40
1.0
 40
1.0
 40
1.0
 40
2.0
 40
2.0
 40
2.0
 40
3.0
 40
3.0
 40
3.0
 40
4.0
 40
4.0
 40
4.0
 40
5.0
 40
5.0
 40
5.0
 40
6.0
 40
6.0
 40
6.0
 40
7.0
 40
7.0
 40
7.0
 40
8.0
 40
8.0
 40
8.0
 40
9.0
 40
9.0
 40
9.0
 40
10.0
 40
10.0
 40
10.0
 40
11.0
 40
11.0
 40
11.0
 40
12.0
 40
12.0
 40
12.0
 40
13.0
 40
13.0
 40
13.0
 40
14.0
 40
14.0
 40
14.0
 40
15.0
 40
15.0
 40
15.0
 40
16.0
 40
16.0
 40
16.0
 40
17.0
 40
17.0
 40
17.0
 40
18.0
 40
18.0
 40
18.0
 40
19.0
 40
19.0
 40
19.0
 40
20.0
 40
20.0
 40
20.0
 40
21.0
 40
21.0
 40
21.0
 40
22.0
 40
22.0
 40
22.0
 40
23.0
 40
23.0
 40
23.0
 40
24.0
 40
24.0
 40
24.0
 40
25.0
 40
25.0
 40
25.0
 40
26.0
 40
26.0
 40
26.0
 40
26.0
 10
624.7753677244018
 20
-829.3476091808989
 30
0.0
 10
624.7753677244018
 20
-833.590085055901
 30
0.0
 10
624.350885616399
 20
-837.8349061359222
 30
0.0
 10
622.6529571843912
 20
-842.077382010928
 30
0.0
 10
620.1060645363796
 20
-847.1688221019358
 30
0.0
 10
616.7125528773795
 20
-849.2912326419464
 30
0.0
 10
610.772148570366
 20
-848.8667505339454
 30
0.0
 10
600.586923183333
 20
-848.4422684259425
 30
0.0
 10
589.9795608933127
 20
-847.5933042099387
 30
0.0
 10
579.369853398277
 20
-846.744339993933
 30
0.0
 10
576.4008238472779
 20
-846.744339993933
 30
0.0
 10
573.4294490912635
 20
-846.3222030909492
 30
0.0
 10
570.4604195402662
 20
-845.8977209829463
 30
0.0
 10
560.2751941532315
 20
-843.7753104429357
 30
0.0
 10
556.4572003862286
 20
-839.5304893629145
 30
0.0
 10
555.6082361702265
 20
-829.3476091808989
 30
0.0
 10
555.1837540622237
 20
-819.1647289988796
 30
0.0
 10
555.6082361702265
 20
-809.4039857198477
 30
0.0
 10
555.6082361702265
 20
-799.6432424408176
 30
0.0
 10
555.1837540622237
 20
-797.0986949978214
 30
0.0
 10
555.1837540622237
 20
-794.9762844578108
 30
0.0
 10
555.1837540622237
 20
-792.4293918097974
 30
0.0
 10
554.7592719542208
 20
-783.9444400597895
 30
0.0
 10
554.7592719542208
 20
-783.5199579517866
 30
0.0
 10
546.2719749991957
 20
-783.9444400597895
 30
0.0
 10
530.9964821236626
 20
-784.3689221677905
 30
0.0
 10
516.1442987536211
 20
-785.215541178779
 30
0.0
 10
500.8688058780881
 20
-786.4889875027839
 30
0.0
 10
481.7741466330426
 20
-788.1869159347934
 30
0.0
 10
462.6783147854894
 20
-788.6113980427945
 30
0.0
 10
443.5836555404449
 20
-788.6113980427945
 30
0.0
 10
433.8240848639216
 20
-788.6113980427945
 30
0.0
 10
433.8240848639216
 20
-788.6113980427945
 30
0.0
 10
433.8240848639216
 20
-799.2187603328148
 30
0.0
 10
433.8240848639216
 20
-808.5550215038456
 30
0.0
 10
433.8240848639216
 20
-818.3157647828775
 30
0.0
 10
433.8240848639216
 20
-827.6496807488893
 30
0.0
 10
433.8240848639216
 20
-831.4700197209095
 30
0.0
 10
433.3996027559187
 20
-835.2880134879106
 30
0.0
 10
432.5506385399149
 20
-838.6838703519279
 30
0.0
 10
430.8527101079071
 20
-843.7753104429357
 30
0.0
 10
426.6102342329013
 20
-847.1688221019358
 30
0.0
 10
421.093139431383
 20
-847.5933042099387
 30
0.0
 10
415.1527351243694
 20
-848.4422684259425
 30
0.0
 10
410.9090866468568
 20
-845.4732388749435
 30
0.0
 10
407.9388844933501
 20
-840.8039356869212
 30
0.0
 10
405.3931644478471
 20
-836.1369777039145
 30
0.0
 10
405.3931644478471
 20
-831.0455376129066
 30
0.0
 10
404.9686823398451
 20
-826.3762344248826
 30
0.0
 10
401.9984801863384
 20
-791.1582906908079
 30
0.0
 10
406.2421286638501
 20
-756.3624838597188
 30
0.0
 10
413.8804614028722
 20
-722.4156412446337
 30
0.0
 10
418.1229372778762
 20
-703.7431189025738
 30
0.0
 10
422.7910678633916
 20
-685.0729417655311
 30
0.0
 10
429.1559542784071
 20
-666.8272467364914
 30
0.0
 10
438.4910428469284
 20
-640.5187368604275
 30
0.0
 10
451.6452977849603
 20
-615.9058102113559
 30
0.0
 10
471.1656117405146
 20
-595.1132225343026
 30
0.0
 10
482.1974561385359
 20
-582.8079318122745
 30
0.0
 10
496.2006752925727
 20
-575.5940811812543
 30
0.0
 10
511.9018228786172
 20
-572.2005695222542
 30
0.0
 10
534.8156484931724
 20
-567.1091294312464
 30
0.0
 10
553.9103077382169
 20
-574.7474621702677
 30
0.0
 10
570.4604195402662
 20
-590.446264551294
 30
0.0
 10
591.6774893253205
 20
-611.2388522283472
 30
0.0
 10
603.5582979393457
 20
-637.1228799964101
 30
0.0
 10
610.772148570366
 20
-665.1293183044836
 30
0.0
 10
618.4104813093873
 20
-696.5316134765708
 30
0.0
 10
622.2284750763902
 20
-728.3560455516454
 30
0.0
 10
623.5019214003951
 20
-760.18047762672
 30
0.0
 10
623.9264035083979
 20
-769.5167387977508
 30
0.0
 10
623.5019214003951
 20
-778.4285178607788
 30
0.0
 10
623.5019214003951
 20
-787.7624338267924
 30
0.0
 10
623.9264035083979
 20
-787.7624338267924
 30
0.0
 10
624.350885616399
 20
-787.7624338267924
 30
0.0
 10
624.7753677244018
 20
-787.7624338267924
 30
0.0
 10
624.7753677244018
 20
-801.7656529808264
 30
0.0
 10
624.7753677244018
 20
-815.3443900268612
 30
0.0
 10
624.7753677244018
 20
-829.3476091808989
 30
0.0
  0
SPLINE
  5
9F
330
93
100
AcDbEntity
  8
Layer 1
370
     0
100
AcDbSpline
210
0.0
220
0.0
230
1.0
 70
    11
 71
     3
 72
    38
 73
    34
 74
     0
 42
0.0000000001
 43
0.0000000001
 12
1.0
 22
0.0
 32
0.0
 13
1.0
 23
0.0
 33
0.0
 40
0.0
 40
0.0
 40
0.0
 40
0.0
 40
1.0
 40
1.0
 40
1.0
 40
2.0
 40
2.0
 40
2.0
 40
3.0
 40
3.0
 40
3.0
 40
4.0
 40
4.0
 40
4.0
 40
5.0
 40
5.0
 40
5.0
 40
6.0
 40
6.0
 40
6.0
 40
7.0
 40
7.0
 40
7.0
 40
8.0
 40
8.0
 40
8.0
 40
9.0
 40
9.0
 40
9.0
 40
10.0
 40
10.0
 40
10.0
 40
11.0
 40
11.0
 40
11.0
 40
11.0
 10
553.0613435222131
 20
-754.6645554277093
 30
0.0
 10
552.6368614142102
 20
-748.7241511206976
 30
0.0
 10
552.2123793062092
 20
-741.5103004896773
 30
0.0
 10
551.7878971982063
 20
-734.7209319666617
 30
0.0
 10
549.2433497552101
 20
-707.1389757665911
 30
0.0
 10
545.8474928911946
 20
-679.9815016745233
 30
0.0
 10
537.7858506466782
 20
-653.2485096904566
 30
0.0
 10
533.5422021691656
 20
-639.2452905364207
 30
0.0
 10
526.3283515381472
 20
-627.3644819223955
 30
0.0
 10
516.9932629696259
 20
-616.3302923193587
 30
0.0
 10
514.0230608161191
 20
-612.5122985523558
 30
0.0
 10
510.6283765546104
 20
-609.9654059043423
 30
0.0
 10
506.384728077097
 20
-607.8453405693472
 30
0.0
 10
501.2932879860891
 20
-605.7229300293366
 30
0.0
 10
497.4741216165794
 20
-606.1474121373394
 30
0.0
 10
492.805991031064
 20
-609.9654059043423
 30
0.0
 10
482.1974561385359
 20
-619.7261491833742
 30
0.0
 10
474.1358138940213
 20
-631.6069577973994
 30
0.0
 10
467.7709274790068
 20
-645.1856948434324
 30
0.0
 10
450.3730240634613
 20
-682.5283943225368
 30
0.0
 10
441.03793549494
 20
-722.8401233526347
 30
0.0
 10
435.5208406934216
 20
-763.5763344907373
 30
0.0
 10
434.6718764774159
 20
-769.5167387977508
 30
0.0
 10
435.5208406934216
 20
-769.5167387977508
 30
0.0
 10
441.4612450004333
 20
-769.5167387977508
 30
0.0
 10
443.1591734324411
 20
-769.5167387977508
 30
0.0
 10
444.8559292619429
 20
-769.5167387977508
 30
0.0
 10
446.5538576939516
 20
-769.5167387977508
 30
0.0
 10
479.2272539850292
 20
-766.9698461497392
 30
0.0
 10
511.9018228786172
 20
-764.849780814744
 30
0.0
 10
544.9985286751889
 20
-764.425298706743
 30
0.0
 10
553.9103077382169
 20
-764.0008165987401
 30
0.0
 10
553.9103077382169
 20
-764.0008165987401
 30
0.0
 10
553.0613435222131
 20
-754.6645554277093
 30
0.0
  0
SPLINE
  5
A0
330
93
100
AcDbEntity
  8
Layer 1
370
     0
100
AcDbSpline
210
0.0
220
0.0
230
1.0
 70
    11
 71
     3
 72
    29
 73
    25
 74
     0
 42
0.0000000001
 43
0.0000000001
 12
1.0
 22
0.0
 32
0.0
 13
1.0
 23
0.0
 33
0.0
 40
0.0
 40
0.0
 40
0.0
 40
0.0
 40
1.0
 40
1.0
 40
1.0
 40
2.0
 40
2.0
 40
2.0
 40
3.0
 40
3.0
 40
3.0
 40
4.0
 40
4.0
 40
4.0
 40
5.0
 40
5.0
 40
5.0
 40
6.0
 40
6.0
 40
6.0
 40
7.0
 40
7.0
 40
7.0
 40
8.0
 40
8.0
 40
8.0
 40
8.0
 10
592.9485904443118
 20
-822.1337585498786
 30
0.0
 10
594.2220367683167
 20
-769.9412209057518
 30
0.0
 10
591.2530072173195
 20
-718.1708201646143
 30
0.0
 10
581.0677818302847
 20
-666.8272467364914
 30
0.0
 10
576.8253059552808
 20
-644.7612127354314
 30
0.0
 10
568.3380090002556
 20
-625.2420713823849
 30
0.0
 10
549.2433497552101
 20
-612.0878164443529
 30
0.0
 10
549.667831863213
 20
-616.3302923193587
 30
0.0
 10
551.7878971982063
 20
-619.7261491833742
 30
0.0
 10
553.9103077382169
 20
-623.5441429503771
 30
0.0
 10
560.6996762612343
 20
-632.8804041214062
 30
0.0
 10
564.9421521362383
 20
-643.4877664114247
 30
0.0
 10
567.0645626762489
 20
-654.9464381224643
 30
0.0
 10
570.4604195402662
 20
-671.0697226114953
 30
0.0
 10
573.8539311992663
 20
-687.1953523055417
 30
0.0
 10
575.9763417392769
 20
-703.7431189025738
 30
0.0
 10
581.0677818302847
 20
-742.783746813684
 30
0.0
 10
585.3126029103059
 20
-781.8220295197789
 30
0.0
 10
586.1592219212926
 20
-821.7092764418776
 30
0.0
 10
586.1592219212926
 20
-824.2561690898874
 30
0.0
 10
585.3126029103059
 20
-827.2251986408883
 30
0.0
 10
589.5550787853117
 20
-827.2251986408883
 30
0.0
 10
593.7975546603157
 20
-827.6496807488893
 30
0.0
 10
592.9485904443118
 20
-824.6806511978903
 30
0.0
 10
592.9485904443118
 20
-822.1337585498786
 30
0.0
  0
HATCH
  5
A1
330
93
100
AcDbEntity
  8
Layer 1
 62
   167
420
  2772859
100
AcDbHatch
 10
0.0
 20
0.0
 30
0.0
210
0.0
220
0.0
230
1.0
  2
SOLID
 70
     1
 71
     0
 91
        3
 92
        1
 93
        1
 72
     4
 94
        3
 73
     0
 74
     1
 95
       83
 96
       79
 40
0.0
 40
0.0
 40
0.0
 40
0.0
 40
1.0
 40
1.0
 40
1.0
 40
2.0
 40
2.0
 40
2.0
 40
3.0
 40
3.0
 40
3.0
 40
4.0
 40
4.0
 40
4.0
 40
5.0
 40
5.0
 40
5.0
 40
6.0
 40
6.0
 40
6.0
 40
7.0
 40
7.0
 40
7.0
 40
8.0
 40
8.0
 40
8.0
 40
9.0
 40
9.0
 40
9.0
 40
10.0
 40
10.0
 40
10.0
 40
11.0
 40
11.0
 40
11.0
 40
12.0
 40
12.0
 40
12.0
 40
13.0
 40
13.0
 40
13.0
 40
14.0
 40
14.0
 40
14.0
 40
15.0
 40
15.0
 40
15.0
 40
16.0
 40
16.0
 40
16.0
 40
17.0
 40
17.0
 40
17.0
 40
18.0
 40
18.0
 40
18.0
 40
19.0
 40
19.0
 40
19.0
 40
20.0
 40
20.0
 40
20.0
 40
21.0
 40
21.0
 40
21.0
 40
22.0
 40
22.0
 40
22.0
 40
23.0
 40
23.0
 40
23.0
 40
24.0
 40
24.0
 40
24.0
 40
25.0
 40
25.0
 40
25.0
 40
26.0
 40
26.0
 40
26.0
 40
26.0
 10
624.7753677244018
 20
-829.3476091808989
 10
624.7753677244018
 20
-833.590085055901
 10
624.350885616399
 20
-837.8349061359222
 10
622.6529571843912
 20
-842.077382010928
 10
620.1060645363796
 20
-847.1688221019358
 10
616.7125528773795
 20
-849.2912326419464
 10
610.772148570366
 20
-848.8667505339454
 10
600.586923183333
 20
-848.4422684259425
 10
589.9795608933127
 20
-847.5933042099387
 10
579.369853398277
 20
-846.744339993933
 10
576.4008238472779
 20
-846.744339993933
 10
573.4294490912635
 20
-846.3222030909492
 10
570.4604195402662
 20
-845.8977209829463
 10
560.2751941532315
 20
-843.7753104429357
 10
556.4572003862286
 20
-839.5304893629145
 10
555.6082361702265
 20
-829.3476091808989
 10
555.1837540622237
 20
-819.1647289988796
 10
555.6082361702265
 20
-809.4039857198477
 10
555.6082361702265
 20
-799.6432424408176
 10
555.1837540622237
 20
-797.0986949978214
 10
555.1837540622237
 20
-794.9762844578108
 10
555.1837540622237
 20
-792.4293918097974
 10
554.7592719542208
 20
-783.9444400597895
 10
554.7592719542208
 20
-783.5199579517866
 10
546.2719749991957
 20
-783.9444400597895
 10
530.9964821236626
 20
-784.3689221677905
 10
516.1442987536211
 20
-785.215541178779
 10
500.8688058780881
 20
-786.4889875027839
 10
481.7741466330426
 20
-788.1869159347934
 10
462.6783147854894
 20
-788.6113980427945
 10
443.5836555404449
 20
-788.6113980427945
 10
433.8240848639216
 20
-788.6113980427945
 10
433.8240848639216
 20
-788.6113980427945
 10
433.8240848639216
 20
-799.2187603328148
 10
433.8240848639216
 20
-808.5550215038456
 10
433.8240848639216
 20
-818.3157647828775
 10
433.8240848639216
 20
-827.6496807488893
 10
433.8240848639216
 20
-831.4700197209095
 10
433.3996027559187
 20
-835.2880134879106
 10
432.5506385399149
 20
-838.6838703519279
 10
430.8527101079071
 20
-843.7753104429357
 10
426.6102342329013
 20
-847.1688221019358
 10
421.093139431383
 20
-847.5933042099387
 10
415.1527351243694
 20
-848.4422684259425
 10
410.9090866468568
 20
-845.4732388749435
 10
407.9388844933501
 20
-840.8039356869212
 10
405.3931644478471
 20
-836.1369777039145
 10
405.3931644478471
 20
-831.0455376129066
 10
404.9686823398451
 20
-826.3762344248826
 10
401.9984801863384
 20
-791.1582906908079
 10
406.2421286638501
 20
-756.3624838597188
 10
413.8804614028722
 20
-722.4156412446337
 10
418.1229372778762
 20
-703.7431189025738
 10
422.7910678633916
 20
-685.0729417655311
 10
429.1559542784071
 20
-666.8272467364914
 10
438.4910428469284
 20
-640.5187368604275
 10
451.6452977849603
 20
-615.9058102113559
 10
471.1656117405146
 20
-595.1132225343026
 10
482.1974561385359
 20
-582.8079318122745
 10
496.2006752925727
 20
-575.5940811812543
 10
511.9018228786172
 20
-572.2005695222542
 10
534.8156484931724
 20
-567.1091294312464
 10
553.9103077382169
 20
-574.7474621702677
 10
570.4604195402662
 20
-590.446264551294
 10
591.6774893253205
 20
-611.2388522283472
 10
603.5582979393457
 20
-637.1228799964101
 10
610.772148570366
 20
-665.1293183044836
 10
618.4104813093873
 20
-696.5316134765708
 10
622.2284750763902
 20
-728.3560455516454
 10
623.5019214003951
 20
-760.18047762672
 10
623.9264035083979
 20
-769.5167387977508
 10
623.5019214003951
 20
-778.4285178607788
 10
623.5019214003951
 20
-787.7624338267924
 10
623.9264035083979
 20
-787.7624338267924
 10
624.350885616399
 20
-787.7624338267924
 10
624.7753677244018
 20
-787.7624338267924
 10
624.7753677244018
 20
-801.7656529808264
 10
624.7753677244018
 20
-815.3443900268612
 10
624.7753677244018
 20
-829.3476091808989
 97
        0
 97
        0
 92
        1
 93
        1
 72
     4
 94
        3
 73
     0
 74
     1
 95
       38
 96
       34
 40
0.0
 40
0.0
 40
0.0
 40
0.0
 40
1.0
 40
1.0
 40
1.0
 40
2.0
 40
2.0
 40
2.0
 40
3.0
 40
3.0
 40
3.0
 40
4.0
 40
4.0
 40
4.0
 40
5.0
 40
5.0
 40
5.0
 40
6.0
 40
6.0
 40
6.0
 40
7.0
 40
7.0
 40
7.0
 40
8.0
 40
8.0
 40
8.0
 40
9.0
 40
9.0
 40
9.0
 40
10.0
 40
10.0
 40
10.0
 40
11.0
 40
11.0
 40
11.0
 40
11.0
 10
553.0613435222131
 20
-754.6645554277093
 10
552.6368614142102
 20
-748.7241511206976
 10
552.2123793062092
 20
-741.5103004896773
 10
551.7878971982063
 20
-734.7209319666617
 10
549.2433497552101
 20
-707.1389757665911
 10
545.8474928911946
 20
-679.9815016745233
 10
537.7858506466782
 20
-653.2485096904566
 10
533.5422021691656
 20
-639.2452905364207
 10
526.3283515381472
 20
-627.3644819223955
 10
516.9932629696259
 20
-616.3302923193587
 10
514.0230608161191
 20
-612.5122985523558
 10
510.6283765546104
 20
-609.9654059043423
 10
506.384728077097
 20
-607.8453405693472
 10
501.2932879860891
 20
-605.7229300293366
 10
497.4741216165794
 20
-606.1474121373394
 10
492.805991031064
 20
-609.9654059043423
 10
482.1974561385359
 20
-619.7261491833742
 10
474.1358138940213
 20
-631.6069577973994
 10
467.7709274790068
 20
-645.1856948434324
 10
450.3730240634613
 20
-682.5283943225368
 10
441.03793549494
 20
-722.8401233526347
 10
435.5208406934216
 20
-763.5763344907373
 10
434.6718764774159
 20
-769.5167387977508
 10
435.5208406934216
 20
-769.5167387977508
 10
441.4612450004333
 20
-769.5167387977508
 10
443.1591734324411
 20
-769.5167387977508
 10
444.8559292619429
 20
-769.5167387977508
 10
446.5538576939516
 20
-769.5167387977508
 10
479.2272539850292
 20
-766.9698461497392
 10
511.9018228786172
 20
-764.849780814744
 10
544.9985286751889
 20
-764.425298706743
 10
553.9103077382169
 20
-764.0008165987401
 10
553.9103077382169
 20
-764.0008165987401
 10
553.0613435222131
 20
-754.6645554277093
 97
        0
 97
        0
 92
        1
 93
        1
 72
     4
 94
        3
 73
     0
 74
     1
 95
       29
 96
       25
 40
0.0
 40
0.0
 40
0.0
 40
0.0
 40
1.0
 40
1.0
 40
1.0
 40
2.0
 40
2.0
 40
2.0
 40
3.0
 40
3.0
 40
3.0
 40
4.0
 40
4.0
 40
4.0
 40
5.0
 40
5.0
 40
5.0
 40
6.0
 40
6.0
 40
6.0
 40
7.0
 40
7.0
 40
7.0
 40
8.0
 40
8.0
 40
8.0
 40
8.0
 10
592.9485904443118
 20
-822.1337585498786
 10
594.2220367683167
 20
-769.9412209057518
 10
591.2530072173195
 20
-718.1708201646143
 10
581.0677818302847
 20
-666.8272467364914
 10
576.8253059552808
 20
-644.7612127354314
 10
568.3380090002556
 20
-625.2420713823849
 10
549.2433497552101
 20
-612.0878164443529
 10
549.667831863213
 20
-616.3302923193587
 10
551.7878971982063
 20
-619.7261491833742
 10
553.9103077382169
 20
-623.5441429503771
 10
560.6996762612343
 20
-632.8804041214062
 10
564.9421521362383
 20
-643.4877664114247
 10
567.0645626762489
 20
-654.9464381224643
 10
570.4604195402662
 20
-671.0697226114953
 10
573.8539311992663
 20
-687.1953523055417
 10
575.9763417392769
 20
-703.7431189025738
 10
581.0677818302847
 20
-742.783746813684
 10
585.3126029103059
 20
-781.8220295197789
 10
586.1592219212926
 20
-821.7092764418776
 10
586.1592219212926
 20
-824.2561690898874
 10
585.3126029103059
 20
-827.2251986408883
 10
589.5550787853117
 20
-827.2251986408883
 10
593.7975546603157
 20
-827.6496807488893
 10
592.9485904443118
 20
-824.6806511978903
 10
592.9485904443118
 20
-822.1337585498786
 97
        0
 97
        0
 75
     2
 76
     1
 98
        0
  0
SPLINE
  5
A2
330
93
100
AcDbEntity
  8
Layer 1
370
     0
100
AcDbSpline
210
0.0
220
0.0
230
1.0
 70
    11
 71
     3
 72
    65
 73
    61
 74
     0
 42
0.0000000001
 43
0.0000000001
 12
1.0
 22
0.0
 32
0.0
 13
1.0
 23
0.0
 33
0.0
 40
0.0
 40
0.0
 40
0.0
 40
0.0
 40
1.0
 40
1.0
 40
1.0
 40
2.0
 40
2.0
 40
2.0
 40
3.0
 40
3.0
 40
3.0
 40
4.0
 40
4.0
 40
4.0
 40
5.0
 40
5.0
 40
5.0
 40
6.0
 40
6.0
 40
6.0
 40
7.0
 40
7.0
 40
7.0
 40
8.0
 40
8.0
 40
8.0
 40
9.0
 40
9.0
 40
9.0
 40
10.0
 40
10.0
 40
10.0
 40
11.0
 40
11.0
 40
11.0
 40
12.0
 40
12.0
 40
12.0
 40
13.0
 40
13.0
 40
13.0
 40
14.0
 40
14.0
 40
14.0
 40
15.0
 40
15.0
 40
15.0
 40
16.0
 40
16.0
 40
16.0
 40
17.0
 40
17.0
 40
17.0
 40
18.0
 40
18.0
 40
18.0
 40
19.0
 40
19.0
 40
19.0
 40
20.0
 40
20.0
 40
20.0
 40
20.0
 10
713.0301229085744
 20
-801.3411708728254
 30
0.0
 10
713.4546050165754
 20
-806.0081288558322
 30
0.0
 10
714.3035692325793
 20
-810.6774320438562
 30
0.0
 10
715.1525334485832
 20
-814.9199079188584
 30
0.0
 10
716.8504618805928
 20
-823.8316869818882
 30
0.0
 10
716.8504618805928
 20
-823.8316869818882
 30
0.0
 10
726.1843778466045
 20
-822.1337585498786
 30
0.0
 10
735.9451211256383
 20
-820.435830117869
 30
0.0
 10
746.1280013076539
 20
-818.3157647828775
 30
0.0
 10
756.3132266946886
 20
-816.1933542428651
 30
0.0
 10
760.1312204616916
 20
-815.3443900268612
 30
0.0
 10
763.9515594337099
 20
-814.9199079188584
 30
0.0
 10
767.769553200711
 20
-815.7688721348641
 30
0.0
 10
772.4365111837178
 20
-816.617836350868
 30
0.0
 10
776.256850155738
 20
-818.7402468908786
 30
0.0
 10
777.1058143717419
 20
-823.4072048738853
 30
0.0
 10
777.9547785877457
 20
-828.4986449648932
 30
0.0
 10
775.8323680477351
 20
-831.8945018289105
 30
0.0
 10
772.014374280734
 20
-834.4390492719067
 30
0.0
 10
769.4674816327206
 20
-835.7124955959116
 30
0.0
 10
766.9205889847071
 20
-836.5614598119173
 30
0.0
 10
764.376041541711
 20
-837.4104240279212
 30
0.0
 10
741.88552543265
 20
-842.9263462269319
 30
0.0
 10
718.9705272155861
 20
-847.1688221019358
 30
0.0
 10
695.6333920955385
 20
-849.7157147499493
 30
0.0
 10
687.5705772485144
 20
-850.5646789659531
 30
0.0
 10
679.9322445094931
 20
-848.8667505339454
 30
0.0
 10
672.2939117704718
 20
-845.8977209829463
 30
0.0
 10
662.9599958044582
 20
-842.077382010928
 30
0.0
 10
656.5951093894437
 20
-835.2880134879106
 30
0.0
 10
653.6237346334292
 20
-825.529615413896
 30
0.0
 10
650.6523598774147
 20
-815.3443900268612
 30
0.0
 10
648.5322945424214
 20
-804.7370277368427
 30
0.0
 10
648.1078124344185
 20
-794.551802349808
 30
0.0
 10
645.5609197864051
 20
-756.7869659677199
 30
0.0
 10
643.4408544514117
 20
-719.4442664886192
 30
0.0
 10
643.0163723434107
 20
-681.6794301065311
 30
0.0
 10
643.0163723434107
 20
-654.5219560144633
 30
0.0
 10
642.167408127405
 20
-627.3644819223955
 30
0.0
 10
642.167408127405
 20
-599.7825257223249
 30
0.0
 10
642.167408127405
 20
-596.3866688583075
 30
0.0
 10
641.7429260194021
 20
-592.5686750913046
 30
0.0
 10
642.5918902354078
 20
-589.1728182272891
 30
0.0
 10
644.2874734624002
 20
-581.5344854882678
 30
0.0
 10
649.3812587584252
 20
-577.7164917212649
 30
0.0
 10
657.0195914974447
 20
-578.1409738292678
 30
0.0
 10
671.869429662469
 20
-578.1409738292678
 30
0.0
 10
686.7216130325105
 20
-578.1409738292678
 30
0.0
 10
701.1493142945492
 20
-579.8389022612755
 30
0.0
 10
708.3631649255676
 20
-580.2633843692784
 30
0.0
 10
711.7566765845677
 20
-583.2324139202756
 30
0.0
 10
712.6056408005716
 20
-590.8707466592969
 30
0.0
 10
713.0301229085744
 20
-596.8111509663104
 30
0.0
 10
712.6056408005716
 20
-602.7515552733221
 30
0.0
 10
712.6056408005716
 20
-608.6919595803356
 30
0.0
 10
711.7566765845677
 20
-637.971844212414
 30
0.0
 10
710.9100575735793
 20
-667.2517288444942
 30
0.0
 10
710.0610933575754
 20
-707.987939982595
 30
0.0
 10
709.2121291415715
 20
-731.7495572106454
 30
0.0
 10
711.7566765845677
 20
-766.5453640417363
 30
0.0
 10
713.0301229085744
 20
-801.3411708728254
 30
0.0
  0
SPLINE
  5
A3
330
93
100
AcDbEntity
  8
Layer 1
370
     0
100
AcDbSpline
210
0.0
220
0.0
230
1.0
 70
    11
 71
     3
 72
    38
 73
    34
 74
     0
 42
0.0000000001
 43
0.0000000001
 12
1.0
 22
0.0
 32
0.0
 13
1.0
 23
0.0
 33
0.0
 40
0.0
 40
0.0
 40
0.0
 40
0.0
 40
1.0
 40
1.0
 40
1.0
 40
2.0
 40
2.0
 40
2.0
 40
3.0
 40
3.0
 40
3.0
 40
4.0
 40
4.0
 40
4.0
 40
5.0
 40
5.0
 40
5.0
 40
6.0
 40
6.0
 40
6.0
 40
7.0
 40
7.0
 40
7.0
 40
8.0
 40
8.0
 40
8.0
 40
9.0
 40
9.0
 40
9.0
 40
10.0
 40
10.0
 40
10.0
 40
11.0
 40
11.0
 40
11.0
 40
11.0
 10
682.4791371575047
 20
-620.999595507381
 30
0.0
 10
682.9036192655076
 20
-614.6347090923664
 30
0.0
 10
683.3281013735086
 20
-608.26982267735
 30
0.0
 10
684.1770655895143
 20
-602.327073165321
 30
0.0
 10
684.5992024924999
 20
-598.933561506321
 30
0.0
 10
683.3281013735086
 20
-597.6601151823143
 30
0.0
 10
679.9322445094931
 20
-597.2356330743132
 30
0.0
 10
670.5983285434795
 20
-597.2356330743132
 30
0.0
 10
669.7493643274756
 20
-598.0845972903153
 30
0.0
 10
669.7493643274756
 20
-606.9963763533451
 30
0.0
 10
669.3248822194746
 20
-608.26982267735
 30
0.0
 10
669.3248822194746
 20
-609.5409237963395
 30
0.0
 10
669.7493643274756
 20
-611.2388522283472
 30
0.0
 10
670.5983285434795
 20
-659.6133961054729
 30
0.0
 10
671.0204654464651
 20
-707.987939982595
 30
0.0
 10
672.2939117704718
 20
-756.3624838597188
 30
0.0
 10
672.7183938784729
 20
-775.0326609967615
 30
0.0
 10
673.9918402024796
 20
-794.1273202418051
 30
0.0
 10
677.8098339694825
 20
-813.2219794868506
 30
0.0
 10
679.0832802934874
 20
-821.2847943338747
 30
0.0
 10
680.781208725497
 20
-823.4072048738853
 30
0.0
 10
687.5705772485144
 20
-824.2561690898874
 30
0.0
 10
693.0864994475251
 20
-825.529615413896
 30
0.0
 10
693.9354636635289
 20
-824.6806511978903
 30
0.0
 10
693.0864994475251
 20
-819.586865901867
 30
0.0
 10
688.4195414645183
 20
-798.7942782248138
 30
0.0
 10
686.7216130325105
 20
-777.5795536447731
 30
0.0
 10
684.5992024924999
 20
-755.9380017517178
 30
0.0
 10
682.0546550495037
 20
-723.6890875686404
 30
0.0
 10
681.2056908334998
 20
-691.0133460725447
 30
0.0
 10
681.2056908334998
 20
-653.6729917984594
 30
0.0
 10
681.6301729415009
 20
-646.0346590594381
 30
0.0
 10
682.0546550495037
 20
-633.304886229409
 30
0.0
 10
682.4791371575047
 20
-620.999595507381
 30
0.0
  0
HATCH
  5
A4
330
93
100
AcDbEntity
  8
Layer 1
 62
   167
420
  2772859
100
AcDbHatch
 10
0.0
 20
0.0
 30
0.0
210
0.0
220
0.0
230
1.0
  2
SOLID
 70
     1
 71
     0
 91
        2
 92
        1
 93
        1
 72
     4
 94
        3
 73
     0
 74
     1
 95
       65
 96
       61
 40
0.0
 40
0.0
 40
0.0
 40
0.0
 40
1.0
 40
1.0
 40
1.0
 40
2.0
 40
2.0
 40
2.0
 40
3.0
 40
3.0
 40
3.0
 40
4.0
 40
4.0
 40
4.0
 40
5.0
 40
5.0
 40
5.0
 40
6.0
 40
6.0
 40
6.0
 40
7.0
 40
7.0
 40
7.0
 40
8.0
 40
8.0
 40
8.0
 40
9.0
 40
9.0
 40
9.0
 40
10.0
 40
10.0
 40
10.0
 40
11.0
 40
11.0
 40
11.0
 40
12.0
 40
12.0
 40
12.0
 40
13.0
 40
13.0
 40
13.0
 40
14.0
 40
14.0
 40
14.0
 40
15.0
 40
15.0
 40
15.0
 40
16.0
 40
16.0
 40
16.0
 40
17.0
 40
17.0
 40
17.0
 40
18.0
 40
18.0
 40
18.0
 40
19.0
 40
19.0
 40
19.0
 40
20.0
 40
20.0
 40
20.0
 40
20.0
 10
713.0301229085744
 20
-801.3411708728254
 10
713.4546050165754
 20
-806.0081288558322
 10
714.3035692325793
 20
-810.6774320438562
 10
715.1525334485832
 20
-814.9199079188584
 10
716.8504618805928
 20
-823.8316869818882
 10
716.8504618805928
 20
-823.8316869818882
 10
726.1843778466045
 20
-822.1337585498786
 10
735.9451211256383
 20
-820.435830117869
 10
746.1280013076539
 20
-818.3157647828775
 10
756.3132266946886
 20
-816.1933542428651
 10
760.1312204616916
 20
-815.3443900268612
 10
763.9515594337099
 20
-814.9199079188584
 10
767.769553200711
 20
-815.7688721348641
 10
772.4365111837178
 20
-816.617836350868
 10
776.256850155738
 20
-818.7402468908786
 10
777.1058143717419
 20
-823.4072048738853
 10
777.9547785877457
 20
-828.4986449648932
 10
775.8323680477351
 20
-831.8945018289105
 10
772.014374280734
 20
-834.4390492719067
 10
769.4674816327206
 20
-835.7124955959116
 10
766.9205889847071
 20
-836.5614598119173
 10
764.376041541711
 20
-837.4104240279212
 10
741.88552543265
 20
-842.9263462269319
 10
718.9705272155861
 20
-847.1688221019358
 10
695.6333920955385
 20
-849.7157147499493
 10
687.5705772485144
 20
-850.5646789659531
 10
679.9322445094931
 20
-848.8667505339454
 10
672.2939117704718
 20
-845.8977209829463
 10
662.9599958044582
 20
-842.077382010928
 10
656.5951093894437
 20
-835.2880134879106
 10
653.6237346334292
 20
-825.529615413896
 10
650.6523598774147
 20
-815.3443900268612
 10
648.5322945424214
 20
-804.7370277368427
 10
648.1078124344185
 20
-794.551802349808
 10
645.5609197864051
 20
-756.7869659677199
 10
643.4408544514117
 20
-719.4442664886192
 10
643.0163723434107
 20
-681.6794301065311
 10
643.0163723434107
 20
-654.5219560144633
 10
642.167408127405
 20
-627.3644819223955
 10
642.167408127405
 20
-599.7825257223249
 10
642.167408127405
 20
-596.3866688583075
 10
641.7429260194021
 20
-592.5686750913046
 10
642.5918902354078
 20
-589.1728182272891
 10
644.2874734624002
 20
-581.5344854882678
 10
649.3812587584252
 20
-577.7164917212649
 10
657.0195914974447
 20
-578.1409738292678
 10
671.869429662469
 20
-578.1409738292678
 10
686.7216130325105
 20
-578.1409738292678
 10
701.1493142945492
 20
-579.8389022612755
 10
708.3631649255676
 20
-580.2633843692784
 10
711.7566765845677
 20
-583.2324139202756
 10
712.6056408005716
 20
-590.8707466592969
 10
713.0301229085744
 20
-596.8111509663104
 10
712.6056408005716
 20
-602.7515552733221
 10
712.6056408005716
 20
-608.6919595803356
 10
711.7566765845677
 20
-637.971844212414
 10
710.9100575735793
 20
-667.2517288444942
 10
710.0610933575754
 20
-707.987939982595
 10
709.2121291415715
 20
-731.7495572106454
 10
711.7566765845677
 20
-766.5453640417363
 10
713.0301229085744
 20
-801.3411708728254
 97
        0
 97
        0
 92
        1
 93
        1
 72
     4
 94
        3
 73
     0
 74
     1
 95
       38
 96
       34
 40
0.0
 40
0.0
 40
0.0
 40
0.0
 40
1.0
 40
1.0
 40
1.0
 40
2.0
 40
2.0
 40
2.0
 40
3.0
 40
3.0
 40
3.0
 40
4.0
 40
4.0
 40
4.0
 40
5.0
 40
5.0
 40
5.0
 40
6.0
 40
6.0
 40
6.0
 40
7.0
 40
7.0
 40
7.0
 40
8.0
 40
8.0
 40
8.0
 40
9.0
 40
9.0
 40
9.0
 40
10.0
 40
10.0
 40
10.0
 40
11.0
 40
11.0
 40
11.0
 40
11.0
 10
682.4791371575047
 20
-620.999595507381
 10
682.9036192655076
 20
-614.6347090923664
 10
683.3281013735086
 20
-608.26982267735
 10
684.1770655895143
 20
-602.327073165321
 10
684.5992024924999
 20
-598.933561506321
 10
683.3281013735086
 20
-597.6601151823143
 10
679.9322445094931
 20
-597.2356330743132
 10
670.5983285434795
 20
-597.2356330743132
 10
669.7493643274756
 20
-598.0845972903153
 10
669.7493643274756
 20
-606.9963763533451
 10
669.3248822194746
 20
-608.26982267735
 10
669.3248822194746
 20
-609.5409237963395
 10
669.7493643274756
 20
-611.2388522283472
 10
670.5983285434795
 20
-659.6133961054729
 10
671.0204654464651
 20
-707.987939982595
 10
672.2939117704718
 20
-756.3624838597188
 10
672.7183938784729
 20
-775.0326609967615
 10
673.9918402024796
 20
-794.1273202418051
 10
677.8098339694825
 20
-813.2219794868506
 10
679.0832802934874
 20
-821.2847943338747
 10
680.781208725497
 20
-823.4072048738853
 10
687.5705772485144
 20
-824.2561690898874
 10
693.0864994475251
 20
-825.529615413896
 10
693.9354636635289
 20
-824.6806511978903
 10
693.0864994475251
 20
-819.586865901867
 10
688.4195414645183
 20
-798.7942782248138
 10
686.7216130325105
 20
-777.5795536447731
 10
684.5992024924999
 20
-755.9380017517178
 10
682.0546550495037
 20
-723.6890875686404
 10
681.2056908334998
 20
-691.0133460725447
 10
681.2056908334998
 20
-653.6729917984594
 10
681.6301729415009
 20
-646.0346590594381
 10
682.0546550495037
 20
-633.304886229409
 10
682.4791371575047
 20
-620.999595507381
 97
        0
 97
        0
 75
     2
 76
     1
 98
        0
  0
SPLINE
  5
A5
330
93
100
AcDbEntity
  8
Layer 1
370
     0
100
AcDbSpline
210
0.0
220
0.0
230
1.0
 70
    11
 71
     3
 72
    65
 73
    61
 74
     0
 42
0.0000000001
 43
0.0000000001
 12
1.0
 22
0.0
 32
0.0
 13
1.0
 23
0.0
 33
0.0
 40
0.0
 40
0.0
 40
0.0
 40
0.0
 40
1.0
 40
1.0
 40
1.0
 40
2.0
 40
2.0
 40
2.0
 40
3.0
 40
3.0
 40
3.0
 40
4.0
 40
4.0
 40
4.0
 40
5.0
 40
5.0
 40
5.0
 40
6.0
 40
6.0
 40
6.0
 40
7.0
 40
7.0
 40
7.0
 40
8.0
 40
8.0
 40
8.0
 40
9.0
 40
9.0
 40
9.0
 40
10.0
 40
10.0
 40
10.0
 40
11.0
 40
11.0
 40
11.0
 40
12.0
 40
12.0
 40
12.0
 40
13.0
 40
13.0
 40
13.0
 40
14.0
 40
14.0
 40
14.0
 40
15.0
 40
15.0
 40
15.0
 40
16.0
 40
16.0
 40
16.0
 40
17.0
 40
17.0
 40
17.0
 40
18.0
 40
18.0
 40
18.0
 40
19.0
 40
19.0
 40
19.0
 40
20.0
 40
20.0
 40
20.0
 40
20.0
 10
865.7850516639155
 20
-801.3411708728254
 30
0.0
 10
866.2095337719165
 20
-806.0081288558322
 30
0.0
 10
867.0584979879222
 20
-810.6774320438562
 30
0.0
 10
867.9074622039261
 20
-814.9199079188584
 30
0.0
 10
869.6053906359339
 20
-823.8316869818882
 30
0.0
 10
869.6053906359339
 20
-823.8316869818882
 30
0.0
 10
878.9393066019475
 20
-822.1337585498786
 30
0.0
 10
888.7000498809793
 20
-820.435830117869
 30
0.0
 10
898.8829300629968
 20
-818.3157647828775
 30
0.0
 10
909.0681554500316
 20
-816.1933542428651
 30
0.0
 10
912.8861492170327
 20
-815.3443900268612
 30
0.0
 10
916.7064881890528
 20
-814.9199079188584
 30
0.0
 10
920.5244819560539
 20
-815.7688721348641
 30
0.0
 10
925.1937851440762
 20
-816.617836350868
 30
0.0
 10
929.0117789110791
 20
-818.7402468908786
 30
0.0
 10
929.8607431270848
 20
-823.4072048738853
 30
0.0
 10
930.7097073430868
 20
-828.4986449648932
 30
0.0
 10
928.5872968030762
 20
-831.8945018289105
 30
0.0
 10
924.7693030360751
 20
-834.4390492719067
 30
0.0
 10
922.2224103880617
 20
-835.7124955959116
 30
0.0
 10
919.67551774005
 20
-836.5614598119173
 30
0.0
 10
917.1309702970539
 20
-837.4104240279212
 30
0.0
 10
894.6404541879929
 20
-842.9263462269319
 30
0.0
 10
871.725455970929
 20
-847.1688221019358
 30
0.0
 10
848.3883208508796
 20
-849.7157147499493
 30
0.0
 10
840.3255060038555
 20
-850.5646789659531
 30
0.0
 10
832.6871732648342
 20
-848.8667505339454
 30
0.0
 10
825.0488405258129
 20
-845.8977209829463
 30
0.0
 10
815.7149245598011
 20
-842.077382010928
 30
0.0
 10
809.3500381447866
 20
-835.2880134879106
 30
0.0
 10
806.3786633887703
 20
-825.529615413896
 30
0.0
 10
803.4072886327558
 20
-815.3443900268612
 30
0.0
 10
801.2872232977625
 20
-804.7370277368427
 30
0.0
 10
800.8627411897596
 20
-794.551802349808
 30
0.0
 10
798.315848541748
 20
-756.7869659677199
 30
0.0
 10
796.1934380017356
 20
-719.4442664886192
 30
0.0
 10
795.7713010987518
 20
-681.6794301065311
 30
0.0
 10
795.7713010987518
 20
-654.5219560144633
 30
0.0
 10
794.9223368827479
 20
-627.3644819223955
 30
0.0
 10
794.9223368827479
 20
-599.7825257223249
 30
0.0
 10
794.9223368827479
 20
-596.3866688583075
 30
0.0
 10
794.4978547747451
 20
-592.5686750913046
 30
0.0
 10
795.346818990749
 20
-589.1728182272891
 30
0.0
 10
797.0424022177413
 20
-581.5344854882678
 30
0.0
 10
802.1361875137663
 20
-577.7164917212649
 30
0.0
 10
809.7721750477704
 20
-578.1409738292678
 30
0.0
 10
824.6243584178119
 20
-578.1409738292678
 30
0.0
 10
839.4765417878516
 20
-578.1409738292678
 30
0.0
 10
853.9042430498903
 20
-579.8389022612755
 30
0.0
 10
861.1180936809087
 20
-580.2633843692784
 30
0.0
 10
864.5116053399088
 20
-583.2324139202756
 30
0.0
 10
865.3605695559145
 20
-590.8707466592969
 30
0.0
 10
865.7850516639155
 20
-596.8111509663104
 30
0.0
 10
865.3605695559145
 20
-602.7515552733221
 30
0.0
 10
865.3605695559145
 20
-608.6919595803356
 30
0.0
 10
864.5116053399088
 20
-637.971844212414
 30
0.0
 10
863.6649863289222
 20
-667.2517288444942
 30
0.0
 10
862.8160221129183
 20
-707.987939982595
 30
0.0
 10
861.9670578969144
 20
-731.7495572106454
 30
0.0
 10
864.5116053399088
 20
-766.5453640417363
 30
0.0
 10
865.7850516639155
 20
-801.3411708728254
 30
0.0
  0
SPLINE
  5
A6
330
93
100
AcDbEntity
  8
Layer 1
370
     0
100
AcDbSpline
210
0.0
220
0.0
230
1.0
 70
    11
 71
     3
 72
    38
 73
    34
 74
     0
 42
0.0000000001
 43
0.0000000001
 12
1.0
 22
0.0
 32
0.0
 13
1.0
 23
0.0
 33
0.0
 40
0.0
 40
0.0
 40
0.0
 40
0.0
 40
1.0
 40
1.0
 40
1.0
 40
2.0
 40
2.0
 40
2.0
 40
3.0
 40
3.0
 40
3.0
 40
4.0
 40
4.0
 40
4.0
 40
5.0
 40
5.0
 40
5.0
 40
6.0
 40
6.0
 40
6.0
 40
7.0
 40
7.0
 40
7.0
 40
8.0
 40
8.0
 40
8.0
 40
9.0
 40
9.0
 40
9.0
 40
10.0
 40
10.0
 40
10.0
 40
11.0
 40
11.0
 40
11.0
 40
11.0
 10
835.2340659128477
 20
-620.999595507381
 30
0.0
 10
835.6585480208505
 20
-614.6347090923664
 30
0.0
 10
836.0830301288515
 20
-608.26982267735
 30
0.0
 10
836.9296491398381
 20
-602.327073165321
 30
0.0
 10
837.354131247841
 20
-598.933561506321
 30
0.0
 10
836.0830301288515
 20
-597.6601151823143
 30
0.0
 10
832.6871732648342
 20
-597.2356330743132
 30
0.0
 10
823.3509120938052
 20
-597.2356330743132
 30
0.0
 10
822.5042930828167
 20
-598.0845972903153
 30
0.0
 10
822.5042930828167
 20
-606.9963763533451
 30
0.0
 10
822.0798109748157
 20
-608.26982267735
 30
0.0
 10
822.0798109748157
 20
-609.5409237963395
 30
0.0
 10
822.5042930828167
 20
-611.2388522283472
 30
0.0
 10
823.3509120938052
 20
-659.6133961054729
 30
0.0
 10
823.775394201808
 20
-707.987939982595
 30
0.0
 10
825.0488405258129
 20
-756.3624838597188
 30
0.0
 10
825.4733226338158
 20
-775.0326609967615
 30
0.0
 10
826.7467689578225
 20
-794.1273202418051
 30
0.0
 10
830.5647627248236
 20
-813.2219794868506
 30
0.0
 10
831.8382090488303
 20
-821.2847943338747
 30
0.0
 10
833.5361374808381
 20
-823.4072048738853
 30
0.0
 10
840.3255060038555
 20
-824.2561690898874
 30
0.0
 10
845.8414282028662
 20
-825.529615413896
 30
0.0
 10
846.6903924188719
 20
-824.6806511978903
 30
0.0
 10
845.8414282028662
 20
-819.586865901867
 30
0.0
 10
841.1744702198612
 20
-798.7942782248138
 30
0.0
 10
839.4765417878516
 20
-777.5795536447731
 30
0.0
 10
837.354131247841
 20
-755.9380017517178
 30
0.0
 10
834.8095838048448
 20
-723.6890875686404
 30
0.0
 10
833.9606195888409
 20
-691.0133460725447
 30
0.0
 10
833.9606195888409
 20
-653.6729917984594
 30
0.0
 10
834.385101696842
 20
-646.0346590594381
 30
0.0
 10
834.8095838048448
 20
-633.304886229409
 30
0.0
 10
835.2340659128477
 20
-620.999595507381
 30
0.0
  0
HATCH
  5
A7
330
93
100
AcDbEntity
  8
Layer 1
 62
   167
420
  2772859
100
AcDbHatch
 10
0.0
 20
0.0
 30
0.0
210
0.0
220
0.0
230
1.0
  2
SOLID
 70
     1
 71
     0
 91
        2
 92
        1
 93
        1
 72
     4
 94
        3
 73
     0
 74
     1
 95
       65
 96
       61
 40
0.0
 40
0.0
 40
0.0
 40
0.0
 40
1.0
 40
1.0
 40
1.0
 40
2.0
 40
2.0
 40
2.0
 40
3.0
 40
3.0
 40
3.0
 40
4.0
 40
4.0
 40
4.0
 40
5.0
 40
5.0
 40
5.0
 40
6.0
 40
6.0
 40
6.0
 40
7.0
 40
7.0
 40
7.0
 40
8.0
 40
8.0
 40
8.0
 40
9.0
 40
9.0
 40
9.0
 40
10.0
 40
10.0
 40
10.0
 40
11.0
 40
11.0
 40
11.0
 40
12.0
 40
12.0
 40
12.0
 40
13.0
 40
13.0
 40
13.0
 40
14.0
 40
14.0
 40
14.0
 40
15.0
 40
15.0
 40
15.0
 40
16.0
 40
16.0
 40
16.0
 40
17.0
 40
17.0
 40
17.0
 40
18.0
 40
18.0
 40
18.0
 40
19.0
 40
19.0
 40
19.0
 40
20.0
 40
20.0
 40
20.0
 40
20.0
 10
865.7850516639155
 20
-801.3411708728254
 10
866.2095337719165
 20
-806.0081288558322
 10
867.0584979879222
 20
-810.6774320438562
 10
867.9074622039261
 20
-814.9199079188584
 10
869.6053906359339
 20
-823.8316869818882
 10
869.6053906359339
 20
-823.8316869818882
 10
878.9393066019475
 20
-822.1337585498786
 10
888.7000498809793
 20
-820.435830117869
 10
898.8829300629968
 20
-818.3157647828775
 10
909.0681554500316
 20
-816.1933542428651
 10
912.8861492170327
 20
-815.3443900268612
 10
916.7064881890528
 20
-814.9199079188584
 10
920.5244819560539
 20
-815.7688721348641
 10
925.1937851440762
 20
-816.617836350868
 10
929.0117789110791
 20
-818.7402468908786
 10
929.8607431270848
 20
-823.4072048738853
 10
930.7097073430868
 20
-828.4986449648932
 10
928.5872968030762
 20
-831.8945018289105
 10
924.7693030360751
 20
-834.4390492719067
 10
922.2224103880617
 20
-835.7124955959116
 10
919.67551774005
 20
-836.5614598119173
 10
917.1309702970539
 20
-837.4104240279212
 10
894.6404541879929
 20
-842.9263462269319
 10
871.725455970929
 20
-847.1688221019358
 10
848.3883208508796
 20
-849.7157147499493
 10
840.3255060038555
 20
-850.5646789659531
 10
832.6871732648342
 20
-848.8667505339454
 10
825.0488405258129
 20
-845.8977209829463
 10
815.7149245598011
 20
-842.077382010928
 10
809.3500381447866
 20
-835.2880134879106
 10
806.3786633887703
 20
-825.529615413896
 10
803.4072886327558
 20
-815.3443900268612
 10
801.2872232977625
 20
-804.7370277368427
 10
800.8627411897596
 20
-794.551802349808
 10
798.315848541748
 20
-756.7869659677199
 10
796.1934380017356
 20
-719.4442664886192
 10
795.7713010987518
 20
-681.6794301065311
 10
795.7713010987518
 20
-654.5219560144633
 10
794.9223368827479
 20
-627.3644819223955
 10
794.9223368827479
 20
-599.7825257223249
 10
794.9223368827479
 20
-596.3866688583075
 10
794.4978547747451
 20
-592.5686750913046
 10
795.346818990749
 20
-589.1728182272891
 10
797.0424022177413
 20
-581.5344854882678
 10
802.1361875137663
 20
-577.7164917212649
 10
809.7721750477704
 20
-578.1409738292678
 10
824.6243584178119
 20
-578.1409738292678
 10
839.4765417878516
 20
-578.1409738292678
 10
853.9042430498903
 20
-579.8389022612755
 10
861.1180936809087
 20
-580.2633843692784
 10
864.5116053399088
 20
-583.2324139202756
 10
865.3605695559145
 20
-590.8707466592969
 10
865.7850516639155
 20
-596.8111509663104
 10
865.3605695559145
 20
-602.7515552733221
 10
865.3605695559145
 20
-608.6919595803356
 10
864.5116053399088
 20
-637.971844212414
 10
863.6649863289222
 20
-667.2517288444942
 10
862.8160221129183
 20
-707.987939982595
 10
861.9670578969144
 20
-731.7495572106454
 10
864.5116053399088
 20
-766.5453640417363
 10
865.7850516639155
 20
-801.3411708728254
 97
        0
 97
        0
 92
        1
 93
        1
 72
     4
 94
        3
 73
     0
 74
     1
 95
       38
 96
       34
 40
0.0
 40
0.0
 40
0.0
 40
0.0
 40
1.0
 40
1.0
 40
1.0
 40
2.0
 40
2.0
 40
2.0
 40
3.0
 40
3.0
 40
3.0
 40
4.0
 40
4.0
 40
4.0
 40
5.0
 40
5.0
 40
5.0
 40
6.0
 40
6.0
 40
6.0
 40
7.0
 40
7.0
 40
7.0
 40
8.0
 40
8.0
 40
8.0
 40
9.0
 40
9.0
 40
9.0
 40
10.0
 40
10.0
 40
10.0
 40
11.0
 40
11.0
 40
11.0
 40
11.0
 10
835.2340659128477
 20
-620.999595507381
 10
835.6585480208505
 20
-614.6347090923664
 10
836.0830301288515
 20
-608.26982267735
 10
836.9296491398381
 20
-602.327073165321
 10
837.354131247841
 20
-598.933561506321
 10
836.0830301288515
 20
-597.6601151823143
 10
832.6871732648342
 20
-597.2356330743132
 10
823.3509120938052
 20
-597.2356330743132
 10
822.5042930828167
 20
-598.0845972903153
 10
822.5042930828167
 20
-606.9963763533451
 10
822.0798109748157
 20
-608.26982267735
 10
822.0798109748157
 20
-609.5409237963395
 10
822.5042930828167
 20
-611.2388522283472
 10
823.3509120938052
 20
-659.6133961054729
 10
823.775394201808
 20
-707.987939982595
 10
825.0488405258129
 20
-756.3624838597188
 10
825.4733226338158
 20
-775.0326609967615
 10
826.7467689578225
 20
-794.1273202418051
 10
830.5647627248236
 20
-813.2219794868506
 10
831.8382090488303
 20
-821.2847943338747
 10
833.5361374808381
 20
-823.4072048738853
 10
840.3255060038555
 20
-824.2561690898874
 10
845.8414282028662
 20
-825.529615413896
 10
846.6903924188719
 20
-824.6806511978903
 10
845.8414282028662
 20
-819.586865901867
 10
841.1744702198612
 20
-798.7942782248138
 10
839.4765417878516
 20
-777.5795536447731
 10
837.354131247841
 20
-755.9380017517178
 10
834.8095838048448
 20
-723.6890875686404
 10
833.9606195888409
 20
-691.0133460725447
 10
833.9606195888409
 20
-653.6729917984594
 10
834.385101696842
 20
-646.0346590594381
 10
834.8095838048448
 20
-633.304886229409
 10
835.2340659128477
 20
-620.999595507381
 97
        0
 97
        0
 75
     2
 76
     1
 98
        0
  0
ENDBLK
  5
96
330
93
100
AcDbEntity
  8
0
100
AcDbBlockEnd
  0
BLOCK
  5
BA
330
B8
100
AcDbEntity
  8
0
100
AcDbBlockBegin
  2
block 5
 70
     0
 10
0.0
 20
0.0
 30
0.0
  3
block 5
  1

  0
SPLINE
  5
BC
330
B8
100
AcDbEntity
  8
Layer 1
370
     0
100
AcDbSpline
210
0.0
220
0.0
230
1.0
 70
    11
 71
     3
 72
    65
 73
    61
 74
     0
 42
0.0000000001
 43
0.0000000001
 12
1.0
 22
0.0
 32
0.0
 13
1.0
 23
0.0
 33
0.0
 40
0.0
 40
0.0
 40
0.0
 40
0.0
 40
1.0
 40
1.0
 40
1.0
 40
2.0
 40
2.0
 40
2.0
 40
3.0
 40
3.0
 40
3.0
 40
4.0
 40
4.0
 40
4.0
 40
5.0
 40
5.0
 40
5.0
 40
6.0
 40
6.0
 40
6.0
 40
7.0
 40
7.0
 40
7.0
 40
8.0
 40
8.0
 40
8.0
 40
9.0
 40
9.0
 40
9.0
 40
10.0
 40
10.0
 40
10.0
 40
11.0
 40
11.0
 40
11.0
 40
12.0
 40
12.0
 40
12.0
 40
13.0
 40
13.0
 40
13.0
 40
14.0
 40
14.0
 40
14.0
 40
15.0
 40
15.0
 40
15.0
 40
16.0
 40
16.0
 40
16.0
 40
17.0
 40
17.0
 40
17.0
 40
18.0
 40
18.0
 40
18.0
 40
19.0
 40
19.0
 40
19.0
 40
20.0
 40
20.0
 40
20.0
 40
20.0
 10
849.816139850851
 20
-296.1893574548467
 30
0.0
 10
849.816139850851
 20
-296.1893574548467
 30
0.0
 10
858.7600564962577
 20
-323.7159024722823
 30
0.0
 10
858.7600564962577
 20
-323.7159024722823
 30
0.0
 10
859.119959109843
 20
-324.8235688211043
 30
0.0
 10
860.1521720382516
 20
-325.57351541155
 30
0.0
 10
861.3168413610965
 20
-325.57351541155
 30
0.0
 10
861.3168413610965
 20
-325.57351541155
 30
0.0
 10
890.2599636107243
 20
-325.57351541155
 30
0.0
 10
890.2599636107243
 20
-325.57351541155
 30
0.0
 10
892.8642433879104
 20
-325.57351541155
 30
0.0
 10
893.9470501569667
 20
-328.906051978609
 30
0.0
 10
891.8401435591131
 20
-330.436809224484
 30
0.0
 10
891.8401435591131
 20
-330.436809224484
 30
0.0
 10
868.4246657888925
 20
-347.4491496381161
 30
0.0
 10
868.4246657888925
 20
-347.4491496381161
 30
0.0
 10
867.4824285138839
 20
-348.1337250898832
 30
0.0
 10
867.0881582588609
 20
-349.3471641629658
 30
0.0
 10
867.448060872448
 20
-350.4548305117896
 30
0.0
 10
867.448060872448
 20
-350.4548305117896
 30
0.0
 10
876.3919775178547
 20
-377.9813755292253
 30
0.0
 10
876.3919775178547
 20
-377.9813755292253
 30
0.0
 10
877.1967442271107
 20
-380.4581927815743
 30
0.0
 10
874.3619193024733
 20
-382.5178136487739
 30
0.0
 10
872.2550127046215
 20
-380.9870564028988
 30
0.0
 10
872.2550127046215
 20
-380.9870564028988
 30
0.0
 10
848.8395349344064
 20
-363.9747159892686
 30
0.0
 10
848.8395349344064
 20
-363.9747159892686
 30
0.0
 10
847.8972976593923
 20
-363.2901405374996
 30
0.0
 10
846.621412312632
 20
-363.2901405374996
 30
0.0
 10
845.6791750376233
 20
-363.9747159892686
 30
0.0
 10
845.6791750376233
 20
-363.9747159892686
 30
0.0
 10
822.2636972674063
 20
-380.9870564028988
 30
0.0
 10
822.2636972674063
 20
-380.9870564028988
 30
0.0
 10
820.1567906695491
 20
-382.5178136487739
 30
0.0
 10
817.3219657449154
 20
-380.4581927815743
 30
0.0
 10
818.1267324541732
 20
-377.9813755292253
 30
0.0
 10
818.1267324541732
 20
-377.9813755292253
 30
0.0
 10
827.0706490995763
 20
-350.4548305117896
 30
0.0
 10
827.0706490995763
 20
-350.4548305117896
 30
0.0
 10
827.430551713167
 20
-349.3471641629658
 30
0.0
 10
827.036281458144
 20
-348.1337250898832
 30
0.0
 10
826.0940441831353
 20
-347.4491496381161
 30
0.0
 10
826.0940441831353
 20
-347.4491496381161
 30
0.0
 10
802.6785664129147
 20
-330.436809224484
 30
0.0
 10
802.6785664129147
 20
-330.436809224484
 30
0.0
 10
800.5716598150575
 20
-328.906051978609
 30
0.0
 10
801.6544665841138
 20
-325.57351541155
 30
0.0
 10
804.2587463613036
 20
-325.57351541155
 30
0.0
 10
804.2587463613036
 20
-325.57351541155
 30
0.0
 10
833.2018686109277
 20
-325.57351541155
 30
0.0
 10
833.2018686109277
 20
-325.57351541155
 30
0.0
 10
834.3665379337763
 20
-325.57351541155
 30
0.0
 10
835.3987508621849
 20
-324.8235688211043
 30
0.0
 10
835.7586534757666
 20
-323.7159024722823
 30
0.0
 10
835.7586534757666
 20
-323.7159024722823
 30
0.0
 10
844.7025701211733
 20
-296.1893574548467
 30
0.0
 10
844.7025701211733
 20
-296.1893574548467
 30
0.0
 10
845.5073368304347
 20
-293.712540202494
 30
0.0
 10
849.0113731415931
 20
-293.712540202494
 30
0.0
 10
849.816139850851
 20
-296.1893574548467
 30
0.0
  0
HATCH
  5
BD
330
B8
100
AcDbEntity
  8
Layer 1
 62
    22
420
 13517612
100
AcDbHatch
 10
0.0
 20
0.0
 30
0.0
210
0.0
220
0.0
230
1.0
  2
SOLID
 70
     1
 71
     0
 91
        1
 92
        1
 93
        1
 72
     4
 94
        3
 73
     0
 74
     1
 95
       65
 96
       61
 40
0.0
 40
0.0
 40
0.0
 40
0.0
 40
1.0
 40
1.0
 40
1.0
 40
2.0
 40
2.0
 40
2.0
 40
3.0
 40
3.0
 40
3.0
 40
4.0
 40
4.0
 40
4.0
 40
5.0
 40
5.0
 40
5.0
 40
6.0
 40
6.0
 40
6.0
 40
7.0
 40
7.0
 40
7.0
 40
8.0
 40
8.0
 40
8.0
 40
9.0
 40
9.0
 40
9.0
 40
10.0
 40
10.0
 40
10.0
 40
11.0
 40
11.0
 40
11.0
 40
12.0
 40
12.0
 40
12.0
 40
13.0
 40
13.0
 40
13.0
 40
14.0
 40
14.0
 40
14.0
 40
15.0
 40
15.0
 40
15.0
 40
16.0
 40
16.0
 40
16.0
 40
17.0
 40
17.0
 40
17.0
 40
18.0
 40
18.0
 40
18.0
 40
19.0
 40
19.0
 40
19.0
 40
20.0
 40
20.0
 40
20.0
 40
20.0
 10
849.816139850851
 20
-296.1893574548467
 10
849.816139850851
 20
-296.1893574548467
 10
858.7600564962577
 20
-323.7159024722823
 10
858.7600564962577
 20
-323.7159024722823
 10
859.119959109843
 20
-324.8235688211043
 10
860.1521720382516
 20
-325.57351541155
 10
861.3168413610965
 20
-325.57351541155
 10
861.3168413610965
 20
-325.57351541155
 10
890.2599636107243
 20
-325.57351541155
 10
890.2599636107243
 20
-325.57351541155
 10
892.8642433879104
 20
-325.57351541155
 10
893.9470501569667
 20
-328.906051978609
 10
891.8401435591131
 20
-330.436809224484
 10
891.8401435591131
 20
-330.436809224484
 10
868.4246657888925
 20
-347.4491496381161
 10
868.4246657888925
 20
-347.4491496381161
 10
867.4824285138839
 20
-348.1337250898832
 10
867.0881582588609
 20
-349.3471641629658
 10
867.448060872448
 20
-350.4548305117896
 10
867.448060872448
 20
-350.4548305117896
 10
876.3919775178547
 20
-377.9813755292253
 10
876.3919775178547
 20
-377.9813755292253
 10
877.1967442271107
 20
-380.4581927815743
 10
874.3619193024733
 20
-382.5178136487739
 10
872.2550127046215
 20
-380.9870564028988
 10
872.2550127046215
 20
-380.9870564028988
 10
848.8395349344064
 20
-363.9747159892686
 10
848.8395349344064
 20
-363.9747159892686
 10
847.8972976593923
 20
-363.2901405374996
 10
846.621412312632
 20
-363.2901405374996
 10
845.6791750376233
 20
-363.9747159892686
 10
845.6791750376233
 20
-363.9747159892686
 10
822.2636972674063
 20
-380.9870564028988
 10
822.2636972674063
 20
-380.9870564028988
 10
820.1567906695491
 20
-382.5178136487739
 10
817.3219657449154
 20
-380.4581927815743
 10
818.1267324541732
 20
-377.9813755292253
 10
818.1267324541732
 20
-377.9813755292253
 10
827.0706490995763
 20
-350.4548305117896
 10
827.0706490995763
 20
-350.4548305117896
 10
827.430551713167
 20
-349.3471641629658
 10
827.036281458144
 20
-348.1337250898832
 10
826.0940441831353
 20
-347.4491496381161
 10
826.0940441831353
 20
-347.4491496381161
 10
802.6785664129147
 20
-330.436809224484
 10
802.6785664129147
 20
-330.436809224484
 10
800.5716598150575
 20
-328.906051978609
 10
801.6544665841138
 20
-325.57351541155
 10
804.2587463613036
 20
-325.57351541155
 10
804.2587463613036
 20
-325.57351541155
 10
833.2018686109277
 20
-325.57351541155
 10
833.2018686109277
 20
-325.57351541155
 10
834.3665379337763
 20
-325.57351541155
 10
835.3987508621849
 20
-324.8235688211043
 10
835.7586534757666
 20
-323.7159024722823
 10
835.7586534757666
 20
-323.7159024722823
 10
844.7025701211733
 20
-296.1893574548467
 10
844.7025701211733
 20
-296.1893574548467
 10
845.5073368304347
 20
-293.712540202494
 10
849.0113731415931
 20
-293.712540202494
 10
849.816139850851
 20
-296.1893574548467
 97
        0
 97
        0
 75
     2
 76
     1
 98
        0
  0
SPLINE
  5
BE
330
B8
100
AcDbEntity
  8
Layer 1
370
     0
100
AcDbSpline
210
0.0
220
0.0
230
1.0
 70
    11
 71
     3
 72
    65
 73
    61
 74
     0
 42
0.0000000001
 43
0.0000000001
 12
1.0
 22
0.0
 32
0.0
 13
1.0
 23
0.0
 33
0.0
 40
0.0
 40
0.0
 40
0.0
 40
0.0
 40
1.0
 40
1.0
 40
1.0
 40
2.0
 40
2.0
 40
2.0
 40
3.0
 40
3.0
 40
3.0
 40
4.0
 40
4.0
 40
4.0
 40
5.0
 40
5.0
 40
5.0
 40
6.0
 40
6.0
 40
6.0
 40
7.0
 40
7.0
 40
7.0
 40
8.0
 40
8.0
 40
8.0
 40
9.0
 40
9.0
 40
9.0
 40
10.0
 40
10.0
 40
10.0
 40
11.0
 40
11.0
 40
11.0
 40
12.0
 40
12.0
 40
12.0
 40
13.0
 40
13.0
 40
13.0
 40
14.0
 40
14.0
 40
14.0
 40
15.0
 40
15.0
 40
15.0
 40
16.0
 40
16.0
 40
16.0
 40
17.0
 40
17.0
 40
17.0
 40
18.0
 40
18.0
 40
18.0
 40
19.0
 40
19.0
 40
19.0
 40
20.0
 40
20.0
 40
20.0
 40
20.0
 10
235.2974298788267
 20
-296.1893574548467
 30
0.0
 10
235.2974298788267
 20
-296.1893574548467
 30
0.0
 10
244.2413465242334
 20
-323.7159024722823
 30
0.0
 10
244.2413465242334
 20
-323.7159024722823
 30
0.0
 10
244.6012491378215
 20
-324.8235688211043
 30
0.0
 10
245.6334620662292
 20
-325.57351541155
 30
0.0
 10
246.7981313890723
 20
-325.57351541155
 30
0.0
 10
246.7981313890723
 20
-325.57351541155
 30
0.0
 10
275.7412536387019
 20
-325.57351541155
 30
0.0
 10
275.7412536387019
 20
-325.57351541155
 30
0.0
 10
278.345533415888
 20
-325.57351541155
 30
0.0
 10
279.4283401849425
 20
-328.906051978609
 30
0.0
 10
277.3214335870907
 20
-330.436809224484
 30
0.0
 10
277.3214335870907
 20
-330.436809224484
 30
0.0
 10
253.9059558168692
 20
-347.4491496381161
 30
0.0
 10
253.9059558168692
 20
-347.4491496381161
 30
0.0
 10
252.9637185418615
 20
-348.1337250898832
 30
0.0
 10
252.5694482868385
 20
-349.3471641629658
 30
0.0
 10
252.9293509004237
 20
-350.4548305117896
 30
0.0
 10
252.9293509004237
 20
-350.4548305117896
 30
0.0
 10
261.8732675458305
 20
-377.9813755292253
 30
0.0
 10
261.8732675458305
 20
-377.9813755292253
 30
0.0
 10
262.6780342550883
 20
-380.4581927815743
 30
0.0
 10
259.8432093304509
 20
-382.5178136487739
 30
0.0
 10
257.7363027325991
 20
-380.9870564028988
 30
0.0
 10
257.7363027325991
 20
-380.9870564028988
 30
0.0
 10
234.3208249623822
 20
-363.9747159892686
 30
0.0
 10
234.3208249623822
 20
-363.9747159892686
 30
0.0
 10
233.378587687369
 20
-363.2901405374996
 30
0.0
 10
232.1027023406077
 20
-363.2901405374996
 30
0.0
 10
231.1604650655991
 20
-363.9747159892686
 30
0.0
 10
231.1604650655991
 20
-363.9747159892686
 30
0.0
 10
207.7449872953839
 20
-380.9870564028988
 30
0.0
 10
207.7449872953839
 20
-380.9870564028988
 30
0.0
 10
205.6380806975267
 20
-382.5178136487739
 30
0.0
 10
202.8032557728911
 20
-380.4581927815743
 30
0.0
 10
203.6080224821499
 20
-377.9813755292253
 30
0.0
 10
203.6080224821499
 20
-377.9813755292253
 30
0.0
 10
212.5519391275529
 20
-350.4548305117896
 30
0.0
 10
212.5519391275529
 20
-350.4548305117896
 30
0.0
 10
212.9118417411428
 20
-349.3471641629658
 30
0.0
 10
212.5175714861198
 20
-348.1337250898832
 30
0.0
 10
211.5753342111111
 20
-347.4491496381161
 30
0.0
 10
211.5753342111111
 20
-347.4491496381161
 30
0.0
 10
188.1598564408914
 20
-330.436809224484
 30
0.0
 10
188.1598564408914
 20
-330.436809224484
 30
0.0
 10
186.0529498430351
 20
-328.906051978609
 30
0.0
 10
187.1357566120896
 20
-325.57351541155
 30
0.0
 10
189.7400363892802
 20
-325.57351541155
 30
0.0
 10
189.7400363892802
 20
-325.57351541155
 30
0.0
 10
218.6831586389044
 20
-325.57351541155
 30
0.0
 10
218.6831586389044
 20
-325.57351541155
 30
0.0
 10
219.8478279617539
 20
-325.57351541155
 30
0.0
 10
220.8800408901607
 20
-324.8235688211043
 30
0.0
 10
221.2399435037441
 20
-323.7159024722823
 30
0.0
 10
221.2399435037441
 20
-323.7159024722823
 30
0.0
 10
230.1838601491509
 20
-296.1893574548467
 30
0.0
 10
230.1838601491509
 20
-296.1893574548467
 30
0.0
 10
230.9886268584123
 20
-293.712540202494
 30
0.0
 10
234.4926631695689
 20
-293.712540202494
 30
0.0
 10
235.2974298788267
 20
-296.1893574548467
 30
0.0
  0
HATCH
  5
BF
330
B8
100
AcDbEntity
  8
Layer 1
 62
    22
420
 13517612
100
AcDbHatch
 10
0.0
 20
0.0
 30
0.0
210
0.0
220
0.0
230
1.0
  2
SOLID
 70
     1
 71
     0
 91
        1
 92
        1
 93
        1
 72
     4
 94
        3
 73
     0
 74
     1
 95
       65
 96
       61
 40
0.0
 40
0.0
 40
0.0
 40
0.0
 40
1.0
 40
1.0
 40
1.0
 40
2.0
 40
2.0
 40
2.0
 40
3.0
 40
3.0
 40
3.0
 40
4.0
 40
4.0
 40
4.0
 40
5.0
 40
5.0
 40
5.0
 40
6.0
 40
6.0
 40
6.0
 40
7.0
 40
7.0
 40
7.0
 40
8.0
 40
8.0
 40
8.0
 40
9.0
 40
9.0
 40
9.0
 40
10.0
 40
10.0
 40
10.0
 40
11.0
 40
11.0
 40
11.0
 40
12.0
 40
12.0
 40
12.0
 40
13.0
 40
13.0
 40
13.0
 40
14.0
 40
14.0
 40
14.0
 40
15.0
 40
15.0
 40
15.0
 40
16.0
 40
16.0
 40
16.0
 40
17.0
 40
17.0
 40
17.0
 40
18.0
 40
18.0
 40
18.0
 40
19.0
 40
19.0
 40
19.0
 40
20.0
 40
20.0
 40
20.0
 40
20.0
 10
235.2974298788267
 20
-296.1893574548467
 10
235.2974298788267
 20
-296.1893574548467
 10
244.2413465242334
 20
-323.7159024722823
 10
244.2413465242334
 20
-323.7159024722823
 10
244.6012491378215
 20
-324.8235688211043
 10
245.6334620662292
 20
-325.57351541155
 10
246.7981313890723
 20
-325.57351541155
 10
246.7981313890723
 20
-325.57351541155
 10
275.7412536387019
 20
-325.57351541155
 10
275.7412536387019
 20
-325.57351541155
 10
278.345533415888
 20
-325.57351541155
 10
279.4283401849425
 20
-328.906051978609
 10
277.3214335870907
 20
-330.436809224484
 10
277.3214335870907
 20
-330.436809224484
 10
253.9059558168692
 20
-347.4491496381161
 10
253.9059558168692
 20
-347.4491496381161
 10
252.9637185418615
 20
-348.1337250898832
 10
252.5694482868385
 20
-349.3471641629658
 10
252.9293509004237
 20
-350.4548305117896
 10
252.9293509004237
 20
-350.4548305117896
 10
261.8732675458305
 20
-377.9813755292253
 10
261.8732675458305
 20
-377.9813755292253
 10
262.6780342550883
 20
-380.4581927815743
 10
259.8432093304509
 20
-382.5178136487739
 10
257.7363027325991
 20
-380.9870564028988
 10
257.7363027325991
 20
-380.9870564028988
 10
234.3208249623822
 20
-363.9747159892686
 10
234.3208249623822
 20
-363.9747159892686
 10
233.378587687369
 20
-363.2901405374996
 10
232.1027023406077
 20
-363.2901405374996
 10
231.1604650655991
 20
-363.9747159892686
 10
231.1604650655991
 20
-363.9747159892686
 10
207.7449872953839
 20
-380.9870564028988
 10
207.7449872953839
 20
-380.9870564028988
 10
205.6380806975267
 20
-382.5178136487739
 10
202.8032557728911
 20
-380.4581927815743
 10
203.6080224821499
 20
-377.9813755292253
 10
203.6080224821499
 20
-377.9813755292253
 10
212.5519391275529
 20
-350.4548305117896
 10
212.5519391275529
 20
-350.4548305117896
 10
212.9118417411428
 20
-349.3471641629658
 10
212.5175714861198
 20
-348.1337250898832
 10
211.5753342111111
 20
-347.4491496381161
 10
211.5753342111111
 20
-347.4491496381161
 10
188.1598564408914
 20
-330.436809224484
 10
188.1598564408914
 20
-330.436809224484
 10
186.0529498430351
 20
-328.906051978609
 10
187.1357566120896
 20
-325.57351541155
 10
189.7400363892802
 20
-325.57351541155
 10
189.7400363892802
 20
-325.57351541155
 10
218.6831586389044
 20
-325.57351541155
 10
218.6831586389044
 20
-325.57351541155
 10
219.8478279617539
 20
-325.57351541155
 10
220.8800408901607
 20
-324.8235688211043
 10
221.2399435037441
 20
-323.7159024722823
 10
221.2399435037441
 20
-323.7159024722823
 10
230.1838601491509
 20
-296.1893574548467
 10
230.1838601491509
 20
-296.1893574548467
 10
230.9886268584123
 20
-293.712540202494
 10
234.4926631695689
 20
-293.712540202494
 10
235.2974298788267
 20
-296.1893574548467
 97
        0
 97
        0
 75
     2
 76
     1
 98
        0
  0
ENDBLK
  5
BB
330
B8
100
AcDbEntity
  8
0
100
AcDbBlockEnd
  0
ENDSEC
  0
SECTION
  2
ENTITIES
  0
INSERT
  5
42
330
1F
100
AcDbEntity
  8
Layer 1
100
AcDbBlockReference
  2
block 2
 10
0.0
 20
0.0
 30
0.0
  0
ENDSEC
  0
SECTION
  2
OBJECTS
  0
DICTIONARY
  5
C
330
0
100
AcDbDictionary
281
     1
  3
ACAD_GROUP
350
D
  3
ACAD_LAYOUT
350
1A
  3
ACAD_MATERIAL
350
3B
  3
ACAD_MLEADERSTYLE
350
C1
  3
ACAD_MLINESTYLE
350
17
  3
ACAD_PLOTSETTINGS
350
19
  3
ACAD_PLOTSTYLENAME
350
E
  3
ACAD_TABLESTYLE
350
C0
  3
ACAD_VISUALSTYLE
350
2A
  0
SUN
  5
3F
330
29
100
AcDbSun
 90
        1
290
     0
 63
     7
421
 16777215
 40
1.0
291
     1
 91
  2455826
 92
 54000000
292
     0
 70
     2
 71
   256
280
     1
  0
DICTIONARY
  5
D
102
{ACAD_REACTORS
330
C
102
}
330
C
100
AcDbDictionary
281
     1
  0
DICTIONARY
  5
1A
102
{ACAD_REACTORS
330
C
102
}
330
C
100
AcDbDictionary
281
     1
  3
Layout1
350
1E
  3
Layout2
350
26
  3
Model
350
22
  0
DICTIONARY
  5
3B
102
{ACAD_REACTORS
330
C
102
}
330
C
100
AcDbDictionary
281
     1
  3
ByBlock
350
3D
  3
ByLayer
350
3C
  3
Global
350
3E
  0
DICTIONARY
  5
C1
102
{ACAD_REACTORS
330
C
102
}
330
C
100
AcDbDictionary
281
     1
  0
DICTIONARY
  5
17
102
{ACAD_REACTORS
330
C
102
}
330
C
100
AcDbDictionary
281
     1
  3
Standard
350
18
  0
DICTIONARY
  5
19
102
{ACAD_REACTORS
330
C
102
}
330
C
100
AcDbDictionary
281
     1
  0
ACDBDICTIONARYWDFLT
  5
E
102
{ACAD_REACTORS
330
C
102
}
330
C
100
AcDbDictionary
281
     1
  3
Normal
350
F
100
AcDbDictionaryWithDefault
340
F
  0
DICTIONARY
  5
C0
102
{ACAD_REACTORS
330
C
102
}
330
C
100
AcDbDictionary
281
     1
  0
DICTIONARY
  5
2A
102
{ACAD_REACTORS
330
C
102
}
330
C
100
AcDbDictionary
281
     1
  3
2dWireframe
350
2F
  3
3D Hidden
350
31
  3
3dWireframe
350
30
  3
Basic
350
32
  3
Brighten
350
36
  3
ColorChange
350
3A
  3
Conceptual
350
34
  3
Dim
350
35
  3
Facepattern
350
39
  3
Flat
350
2B
  3
FlatWithEdges
350
2C
  3
Gouraud
350
2D
  3
GouraudWithEdges
350
2E
  3
Linepattern
350
38
  3
Realistic
350
33
  3
Thicken
350
37
  0
LAYOUT
  5
1E
102
{ACAD_REACTORS
330
1A
102
}
330
1A
100
AcDbPlotSettings
  1

  2
none_device
  4

  6

 40
0.0
 41
0.0
 42
0.0
 43
0.0
 44
0.0
 45
0.0
 46
0.0
 47
0.0
 48
0.0
 49
0.0
140
0.0
141
0.0
142
1.0
143
1.0
 70
   688
 72
     0
 73
     0
 74
     5
  7

 75
    16
 76
     0
 77
     2
 78
   300
147
1.0
148
0.0
149
0.0
100
AcDbLayout
  1
Layout1
 70
     1
 71
     1
 10
0.0
 20
0.0
 11
12.0
 21
9.0
 12
0.0
 22
0.0
 32
0.0
 14
1.000000000000000E+20
 24
1.000000000000000E+20
 34
1.000000000000000E+20
 15
-1.000000000000000E+20
 25
-1.000000000000000E+20
 35
-1.000000000000000E+20
146
0.0
 13
0.0
 23
0.0
 33
0.0
 16
1.0
 26
0.0
 36
0.0
 17
0.0
 27
1.0
 37
0.0
 76
     0
330
1B
  0
LAYOUT
  5
26
102
{ACAD_REACTORS
330
1A
102
}
330
1A
100
AcDbPlotSettings
  1

  2
none_device
  4

  6

 40
0.0
 41
0.0
 42
0.0
 43
0.0
 44
0.0
 45
0.0
 46
0.0
 47
0.0
 48
0.0
 49
0.0
140
0.0
141
0.0
142
1.0
143
1.0
 70
   688
 72
     0
 73
     0
 74
     5
  7

 75
    16
 76
     0
 77
     2
 78
   300
147
1.0
148
0.0
149
0.0
100
AcDbLayout
  1
Layout2
 70
     1
 71
     2
 10
0.0
 20
0.0
 11
0.0
 21
0.0
 12
0.0
 22
0.0
 32
0.0
 14
0.0
 24
0.0
 34
0.0
 15
0.0
 25
0.0
 35
0.0
146
0.0
 13
0.0
 23
0.0
 33
0.0
 16
1.0
 26
0.0
 36
0.0
 17
0.0
 27
1.0
 37
0.0
 76
     0
330
23
  0
LAYOUT
  5
22
102
{ACAD_REACTORS
330
1A
102
}
330
1A
100
AcDbPlotSettings
  1

  2
none_device
  4

  6

 40
0.0
 41
0.0
 42
0.0
 43
0.0
 44
0.0
 45
0.0
 46
0.0
 47
0.0
 48
0.0
 49
0.0
140
0.0
141
0.0
142
1.0
143
1.0
 70
  1712
 72
     0
 73
     0
 74
     0
  7

 75
     0
 76
     0
 77
     2
 78
   300
147
1.0
148
0.0
149
0.0
100
AcDbLayout
  1
Model
 70
     1
 71
     0
 10
0.0
 20
0.0
 11
12.0
 21
9.0
 12
0.0
 22
0.0
 32
0.0
 14
1.000000000000000E+20
 24
1.000000000000000E+20
 34
1.000000000000000E+20
 15
-1.000000000000000E+20
 25
-1.000000000000000E+20
 35
-1.000000000000000E+20
146
0.0
 13
0.0
 23
0.0
 33
0.0
 16
1.0
 26
0.0
 36
0.0
 17
0.0
 27
1.0
 37
0.0
 76
     0
330
1F
331
29
  0
MATERIAL
  5
3D
102
{ACAD_REACTORS
330
3B
102
}
330
3B
100
AcDbMaterial
  1
ByBlock
 72
     1
 94
      127
  0
MATERIAL
  5
3C
102
{ACAD_REACTORS
330
3B
102
}
330
3B
100
AcDbMaterial
  1
ByLayer
 72
     1
 94
      127
  0
MATERIAL
  5
3E
102
{ACAD_REACTORS
330
3B
102
}
330
3B
100
AcDbMaterial
  1
Global
 72
     1
 94
      127
  0
MLINESTYLE
  5
18
102
{ACAD_REACTORS
330
17
102
}
330
17
100
AcDbMlineStyle
  2
Standard
 70
     0
  3

 62
   256
 51
90.0
 52
90.0
 71
     2
 49
0.5
 62
   256
  6
BYLAYER
 49
-0.5
 62
   256
  6
BYLAYER
  0
ACDBPLACEHOLDER
  5
F
102
{ACAD_REACTORS
330
E
102
}
330
E
  0
VISUALSTYLE
  5
2F
102
{ACAD_REACTORS
330
2A
102
}
330
2A
100
AcDbVisualStyle
  2
2dWireframe
 70
     4
177
     2
291
     0
 71
     0
176
     1
 72
     2
176
     1
 73
     0
176
     1
 90
        0
176
     1
 40
-0.6
176
     1
 41
-30.0
176
     1
 62
     5
 63
     7
421
 16777215
176
     1
 74
     1
176
     1
 91
        4
176
     1
 64
     7
176
     1
 65
   257
176
     1
 75
     1
176
     1
175
     1
176
     1
 42
1.0
176
     1
 92
        0
176
     1
 66
   257
176
     1
 43
1.0
176
     1
 76
     1
176
     1
 77
     6
176
     1
 78
     2
176
     1
 67
     7
176
     1
 79
     5
176
     1
170
     0
176
     1
171
     0
176
     1
290
     0
176
     1
 93
        1
176
     1
 44
0.0
176
     1
173
     0
176
     1
  0
VISUALSTYLE
  5
31
102
{ACAD_REACTORS
330
2A
102
}
330
2A
100
AcDbVisualStyle
  2
3D Hidden
 70
     6
177
     2
291
     0
 71
     1
176
     1
 72
     2
176
     1
 73
     2
176
     1
 90
        0
176
     1
 40
-0.6
176
     1
 41
-30.0
176
     1
 62
     5
 63
     7
421
 16777215
176
     1
 74
     2
176
     1
 91
        2
176
     1
 64
     7
176
     1
 65
   257
176
     1
 75
     2
176
     1
175
     1
176
     1
 42
40.0
176
     1
 92
        0
176
     1
 66
   257
176
     1
 43
1.0
176
     1
 76
     1
176
     1
 77
     6
176
     1
 78
     2
176
     1
 67
     7
176
     1
 79
     3
176
     1
170
     0
176
     1
171
     0
176
     1
290
     0
176
     1
 93
        1
176
     1
 44
0.0
176
     1
173
     0
176
     1
  0
VISUALSTYLE
  5
30
102
{ACAD_REACTORS
330
2A
102
}
330
2A
100
AcDbVisualStyle
  2
3dWireframe
 70
     5
177
     2
291
     0
 71
     0
176
     1
 72
     2
176
     1
 73
     0
176
     1
 90
        0
176
     1
 40
-0.6
176
     1
 41
-30.0
176
     1
 62
     5
 63
     7
421
 16777215
176
     1
 74
     1
176
     1
 91
        4
176
     1
 64
     7
176
     1
 65
   257
176
     1
 75
     1
176
     1
175
     1
176
     1
 42
1.0
176
     1
 92
        0
176
     1
 66
   257
176
     1
 43
1.0
176
     1
 76
     1
176
     1
 77
     6
176
     1
 78
     2
176
     1
 67
     7
176
     1
 79
     5
176
     1
170
     0
176
     1
171
     0
176
     1
290
     0
176
     1
 93
        1
176
     1
 44
0.0
176
     1
173
     0
176
     1
  0
VISUALSTYLE
  5
32
102
{ACAD_REACTORS
330
2A
102
}
330
2A
100
AcDbVisualStyle
  2
Basic
 70
     7
177
     2
291
     1
 71
     1
176
     1
 72
     0
176
     1
 73
     1
176
     1
 90
        0
176
     1
 40
-0.6
176
     1
 41
-30.0
176
     1
 62
     5
 63
     7
421
 16777215
176
     1
 74
     0
176
     1
 91
        4
176
     1
 64
     7
176
     1
 65
   257
176
     1
 75
     1
176
     1
175
     1
176
     1
 42
1.0
176
     1
 92
        8
176
     1
 66
     7
176
     1
 43
1.0
176
     1
 76
     1
176
     1
 77
     6
176
     1
 78
     2
176
     1
 67
     7
176
     1
 79
     5
176
     1
170
     0
176
     1
171
     0
176
     1
290
     0
176
     1
 93
        1
176
     1
 44
0.0
176
     1
173
     0
176
     1
  0
VISUALSTYLE
  5
36
102
{ACAD_REACTORS
330
2A
102
}
330
2A
100
AcDbVisualStyle
  2
Brighten
 70
    12
177
     2
291
     1
 71
     2
176
     1
 72
     2
176
     1
 73
     0
176
     1
 90
        0
176
     1
 40
-0.6
176
     1
 41
-30.0
176
     1
 62
     5
 63
     7
421
 16777215
176
     1
 74
     1
176
     1
 91
        4
176
     1
 64
     7
176
     1
 65
   257
176
     1
 75
     1
176
     1
175
     1
176
     1
 42
1.0
176
     1
 92
        8
176
     1
 66
     7
176
     1
 43
1.0
176
     1
 76
     1
176
     1
 77
     6
176
     1
 78
     2
176
     1
 67
     7
176
     1
 79
     5
176
     1
170
     0
176
     1
171
     0
176
     1
290
     0
176
     1
 93
        1
176
     1
 44
50.0
176
     1
173
     0
176
     1
  0
VISUALSTYLE
  5
3A
102
{ACAD_REACTORS
330
2A
102
}
330
2A
100
AcDbVisualStyle
  2
ColorChange
 70
    16
177
     2
291
     1
 71
     2
176
     1
 72
     2
176
     1
 73
     3
176
     1
 90
        0
176
     1
 40
-0.6
176
     1
 41
-30.0
176
     1
 62
     5
 63
     8
421
  8421504
176
     1
 74
     1
176
     1
 91
        4
176
     1
 64
     7
176
     1
 65
   257
176
     1
 75
     1
176
     1
175
     1
176
     1
 42
1.0
176
     1
 92
        8
176
     1
 66
     8
424
  8421504
176
     1
 43
1.0
176
     1
 76
     1
176
     1
 77
     6
176
     1
 78
     2
176
     1
 67
     7
176
     1
 79
     5
176
     1
170
     0
176
     1
171
     0
176
     1
290
     0
176
     1
 93
        1
176
     1
 44
0.0
176
     1
173
     0
176
     1
  0
VISUALSTYLE
  5
34
102
{ACAD_REACTORS
330
2A
102
}
330
2A
100
AcDbVisualStyle
  2
Conceptual
 70
     9
177
     2
291
     0
 71
     3
176
     1
 72
     2
176
     1
 73
     0
176
     1
 90
        0
176
     1
 40
-0.6
176
     1
 41
-30.0
176
     1
 62
     5
 63
     7
421
 16777215
176
     1
 74
     2
176
     1
 91
        2
176
     1
 64
     7
176
     1
 65
   257
176
     1
 75
     1
176
     1
175
     1
176
     1
 42
40.0
176
     1
 92
        8
176
     1
 66
     7
176
     1
 43
1.0
176
     1
 76
     1
176
     1
 77
     6
176
     1
 78
     2
176
     1
 67
     7
176
     1
 79
     3
176
     1
170
     0
176
     1
171
     0
176
     1
290
     0
176
     1
 93
        1
176
     1
 44
0.0
176
     1
173
     0
176
     1
  0
VISUALSTYLE
  5
35
102
{ACAD_REACTORS
330
2A
102
}
330
2A
100
AcDbVisualStyle
  2
Dim
 70
    11
177
     2
291
     1
 71
     2
176
     1
 72
     2
176
     1
 73
     0
176
     1
 90
        0
176
     1
 40
-0.6
176
     1
 41
-30.0
176
     1
 62
     5
 63
     7
421
 16777215
176
     1
 74
     1
176
     1
 91
        4
176
     1
 64
     7
176
     1
 65
   257
176
     1
 75
     1
176
     1
175
     1
176
     1
 42
1.0
176
     1
 92
        8
176
     1
 66
     7
176
     1
 43
1.0
176
     1
 76
     1
176
     1
 77
     6
176
     1
 78
     2
176
     1
 67
     7
176
     1
 79
     5
176
     1
170
     0
176
     1
171
     0
176
     1
290
     0
176
     1
 93
        1
176
     1
 44
-50.0
176
     1
173
     0
176
     1
  0
VISUALSTYLE
  5
39
102
{ACAD_REACTORS
330
2A
102
}
330
2A
100
AcDbVisualStyle
  2
Facepattern
 70
    15
177
     2
291
     1
 71
     2
176
     1
 72
     2
176
     1
 73
     0
176
     1
 90
        0
176
     1
 40
-0.6
176
     1
 41
-30.0
176
     1
 62
     5
 63
     7
421
 16777215
176
     1
 74
     1
176
     1
 91
        4
176
     1
 64
     7
176
     1
 65
   257
176
     1
 75
     1
176
     1
175
     1
176
     1
 42
1.0
176
     1
 92
        8
176
     1
 66
     7
176
     1
 43
1.0
176
     1
 76
     1
176
     1
 77
     6
176
     1
 78
     2
176
     1
 67
     7
176
     1
 79
     5
176
     1
170
     0
176
     1
171
     0
176
     1
290
     0
176
     1
 93
        1
176
     1
 44
0.0
176
     1
173
     0
176
     1
  0
VISUALSTYLE
  5
2B
102
{ACAD_REACTORS
330
2A
102
}
330
2A
100
AcDbVisualStyle
  2
Flat
 70
     0
177
     2
291
     1
 71
     2
176
     1
 72
     1
176
     1
 73
     1
176
     1
 90
        2
176
     1
 40
-0.6
176
     1
 41
30.0
176
     1
 62
     5
 63
     7
421
 16777215
176
     1
 74
     0
176
     1
 91
        4
176
     1
 64
     7
176
     1
 65
   257
176
     1
 75
     1
176
     1
175
     1
176
     1
 42
1.0
176
     1
 92
        8
176
     1
 66
     7
176
     1
 43
1.0
176
     1
 76
     1
176
     1
 77
     6
176
     1
 78
     2
176
     1
 67
     7
176
     1
 79
     5
176
     1
170
     0
176
     1
171
     0
176
     1
290
     0
176
     1
 93
       13
176
     1
 44
0.0
176
     1
173
     0
176
     1
  0
VISUALSTYLE
  5
2C
102
{ACAD_REACTORS
330
2A
102
}
330
2A
100
AcDbVisualStyle
  2
FlatWithEdges
 70
     1
177
     2
291
     1
 71
     2
176
     1
 72
     1
176
     1
 73
     1
176
     1
 90
        2
176
     1
 40
-0.6
176
     1
 41
30.0
176
     1
 62
     5
 63
     7
421
 16777215
176
     1
 74
     1
176
     1
 91
        4
176
     1
 64
     7
176
     1
 65
   257
176
     1
 75
     1
176
     1
175
     1
176
     1
 42
1.0
176
     1
 92
        0
176
     1
 66
   257
176
     1
 43
1.0
176
     1
 76
     1
176
     1
 77
     6
176
     1
 78
     2
176
     1
 67
     7
176
     1
 79
     5
176
     1
170
     0
176
     1
171
     0
176
     1
290
     0
176
     1
 93
       13
176
     1
 44
0.0
176
     1
173
     0
176
     1
  0
VISUALSTYLE
  5
2D
102
{ACAD_REACTORS
330
2A
102
}
330
2A
100
AcDbVisualStyle
  2
Gouraud
 70
     2
177
     2
291
     1
 71
     2
176
     1
 72
     2
176
     1
 73
     1
176
     1
 90
        2
176
     1
 40
-0.6
176
     1
 41
30.0
176
     1
 62
     5
 63
     7
421
 16777215
176
     1
 74
     0
176
     1
 91
        4
176
     1
 64
     7
176
     1
 65
   257
176
     1
 75
     1
176
     1
175
     1
176
     1
 42
1.0
176
     1
 92
        0
176
     1
 66
     7
176
     1
 43
1.0
176
     1
 76
     1
176
     1
 77
     6
176
     1
 78
     2
176
     1
 67
     7
176
     1
 79
     5
176
     1
170
     0
176
     1
171
     0
176
     1
290
     0
176
     1
 93
       13
176
     1
 44
0.0
176
     1
173
     0
176
     1
  0
VISUALSTYLE
  5
2E
102
{ACAD_REACTORS
330
2A
102
}
330
2A
100
AcDbVisualStyle
  2
GouraudWithEdges
 70
     3
177
     2
291
     1
 71
     2
176
     1
 72
     2
176
     1
 73
     1
176
     1
 90
        2
176
     1
 40
-0.6
176
     1
 41
30.0
176
     1
 62
     5
 63
     7
421
 16777215
176
     1
 74
     1
176
     1
 91
        4
176
     1
 64
     7
176
     1
 65
   257
176
     1
 75
     1
176
     1
175
     1
176
     1
 42
1.0
176
     1
 92
        0
176
     1
 66
   257
176
     1
 43
1.0
176
     1
 76
     1
176
     1
 77
     6
176
     1
 78
     2
176
     1
 67
     7
176
     1
 79
     5
176
     1
170
     0
176
     1
171
     0
176
     1
290
     0
176
     1
 93
       13
176
     1
 44
0.0
176
     1
173
     0
176
     1
  0
VISUALSTYLE
  5
38
102
{ACAD_REACTORS
330
2A
102
}
330
2A
100
AcDbVisualStyle
  2
Linepattern
 70
    14
177
     2
291
     1
 71
     2
176
     1
 72
     2
176
     1
 73
     0
176
     1
 90
        0
176
     1
 40
-0.6
176
     1
 41
-30.0
176
     1
 62
     5
 63
     7
421
 16777215
176
     1
 74
     1
176
     1
 91
        4
176
     1
 64
     7
176
     1
 65
   257
176
     1
 75
     7
176
     1
175
     7
176
     1
 42
1.0
176
     1
 92
        8
176
     1
 66
     7
176
     1
 43
1.0
176
     1
 76
     1
176
     1
 77
     6
176
     1
 78
     2
176
     1
 67
     7
176
     1
 79
     5
176
     1
170
     0
176
     1
171
     0
176
     1
290
     0
176
     1
 93
        1
176
     1
 44
0.0
176
     1
173
     0
176
     1
  0
VISUALSTYLE
  5
33
102
{ACAD_REACTORS
330
2A
102
}
330
2A
100
AcDbVisualStyle
  2
Realistic
 70
     8
177
     2
291
     0
 71
     2
176
     1
 72
     2
176
     1
 73
     0
176
     1
 90
        0
176
     1
 40
-0.6
176
     1
 41
-30.0
176
     1
 62
     5
 63
     7
421
 16777215
176
     1
 74
     1
176
     1
 91
        0
176
     1
 64
     7
176
     1
 65
   257
176
     1
 75
     1
176
     1
175
     1
176
     1
 42
1.0
176
     1
 92
        8
176
     1
 66
     8
424
  7895160
176
     1
 43
1.0
176
     1
 76
     1
176
     1
 77
     6
176
     1
 78
     2
176
     1
 67
     7
176
     1
 79
     5
176
     1
170
     0
176
     1
171
     0
176
     1
290
     0
176
     1
 93
       13
176
     1
 44
0.0
176
     1
173
     0
176
     1
  0
VISUALSTYLE
  5
37
102
{ACAD_REACTORS
330
2A
102
}
330
2A
100
AcDbVisualStyle
  2
Thicken
 70
    13
177
     2
291
     1
 71
     2
176
     1
 72
     2
176
     1
 73
     0
176
     1
 90
        0
176
     1
 40
-0.6
176
     1
 41
-30.0
176
     1
 62
     5
 63
     7
421
 16777215
176
     1
 74
     1
176
     1
 91
        4
176
     1
 64
     7
176
     1
 65
   257
176
     1
 75
     1
176
     1
175
     1
176
     1
 42
1.0
176
     1
 92
       12
176
     1
 66
     7
176
     1
 43
1.0
176
     1
 76
     1
176
     1
 77
     6
176
     1
 78
     2
176
     1
 67
     7
176
     1
 79
     5
176
     1
170
     0
176
     1
171
     0
176
     1
290
     0
176
     1
 93
        1
176
     1
 44
0.0
176
     1
173
     0
176
     1
  0
ENDSEC
  0
EOF
