<?xml version="1.0" encoding="utf-8"?>
<!-- Generator: Adobe Illustrator 22.0.0, SVG Export Plug-In . SVG Version: 6.00 Build 0)  -->
<svg version="1.1" id="Layer_1" xmlns="http://www.w3.org/2000/svg" xmlns:xlink="http://www.w3.org/1999/xlink" x="0px" y="0px"
	 viewBox="0 0 1080 1080" style="enable-background:new 0 0 1080 1080;" xml:space="preserve">
<style type="text/css">
	.st0{fill:#2A4F7B;}
	.st1{fill:#F11111;}
	.st2{fill:#2E3C9B;}
</style>
<g>
	<g>
		<g>
			<path class="st0" d="M241.9,701.1c2.1,0.6,3.3,1,3.9,1.2c0.5,0.2,0.6,0.7,0.3,1.4c-0.3,0.7-1,1.1-2,1.1c-2.8,0-5.5-0.7-8-2.1
				c-2.5-1.4-4.8-3.1-6.9-5c-2.7-2.5-4.7-5.1-6.2-7.7c-1.5-2.7-1.6-4.2-0.4-4.6l0.4-0.2c0.6,0,1.5,1.1,2.7,3.3
				c0.9,1.6,2.3,3.5,4.3,5.5c2,2.1,3.8,3.7,5.4,4.9C237.2,699.9,239.4,700.6,241.9,701.1z M342.9,613.5c0.4,1.8,0.8,4.2,1.2,7.3
				c0.4,3.1,0.7,6.3,0.9,9.6c0.2,3.3,0.3,6.6,0.2,9.7c-0.1,3.2-0.3,5.8-0.6,7.8c-0.7,5-2.2,10.2-4.3,15.6
				c-2.1,5.4-4.9,10.3-8.2,14.8c-3.3,4.5-7.3,8.2-11.9,11.2c-4.6,3-9.8,4.4-15.6,4.4c-4,0-7.5-0.7-10.6-2c-3.1-1.3-6.2-3.5-9.3-6.6
				l-3.8-3.8l-2.2,2.9c-2.1,2.8-4.7,5.2-8,7.2c-3.2,2-6.4,3.4-9.5,4.1c-0.7,0.3-1.6,0.4-2.5,0.4c-1,0-2,0-3.2,0c-0.7,0-1.5,0-2.3,0
				c-0.8,0-1.5-0.1-2.1-0.2c-2.1-0.3-4.3-1-6.6-2.1c-2.4-1.1-4.4-2.5-6.2-4.1c-5-4.3-9-10.8-11.9-19.6c-2.9-8.8-4.4-18.5-4.4-29.3
				c0-3.4,0.3-7.1,0.8-11c0.5-4,1.2-8,2.1-11.9c0.9-4,1.9-7.8,3.1-11.6c1.2-3.8,2.4-7,3.8-9.8c1.8-3.8,3.6-6.6,5.5-8.2
				c1.9-1.6,4.3-2.4,7.1-2.4c1.9,0,3.4,0.3,4.5,0.8c1.1,0.5,2.2,1.4,3.4,2.5c3.5,3.8,3.8,8.2,0.7,13c-1.8,2.9-3.2,7.5-4.3,13.6
				c-1.1,6.1-1.8,13.2-2.1,21.3c-0.4,13.3,1,23.1,4.4,29.6c1,2.1,1.9,3.5,2.5,4.2c0.7,0.7,1.5,1.1,2.5,1.1c2.4,0,5-2.9,7.8-8.7
				c2.9-5.8,5.3-13,7.2-21.5c0.9-3.7,1.7-6.3,2.3-7.8c0.7-1.5,1.7-2.9,3-4.1c1.5-1.2,2.8-2,4-2.3c1.2-0.4,2.7-0.6,4.6-0.6
				c4,0.4,7,2.4,9.1,5.7l1.5,2.4v9.9c0,5.5,0.2,9.3,0.6,11.6c0.4,2.3,1.3,4.8,2.8,7.6c1.9,3.8,3.8,5.7,5.7,5.7c2.4,0,5-1.9,8-5.7
				c2.9-3.8,5.2-8.2,6.9-13c0.9-2.7,1.4-6.4,1.7-11.2c0.2-4.8,0-9.8-0.8-15.1c-0.4-4.1-0.6-7-0.6-8.6c0.1-1.6,0.5-3.2,1.2-4.6
				c2.4-4.4,5.8-6.6,10.4-6.6c1.2,0,2.4,0.2,3.8,0.7c1.3,0.3,2.8,1.3,4.5,3C341.4,610.5,342.4,612.1,342.9,613.5z"/>
			<path class="st0" d="M438.6,629.7c0.3,1.3,0.5,3,0.6,5.1c0.1,2.1,0.1,4.2,0.2,6.4c0.1,2.2,0.1,4.4,0,6.5c-0.1,2.1-0.3,4-0.6,5.6
				c-0.4,3.7-1.1,8-1.9,12.9c-0.8,4.9-1.6,9.7-2.3,14.3c-0.7,4.6-1.4,8.5-2,11.8c-0.6,3.3-1,5.2-1.1,5.6c-0.7,2.4-2.1,4.3-4.2,5.7
				c-2.1,1.5-4.3,2.2-6.9,2.2c-2.4,0-4.5-0.6-6.4-1.8c-1.9-1.2-3.3-3-4.2-5.3l-0.9-1.8l-3.5,1.3c-4,1.3-8.1,2-12.4,2
				c-4.7,0-9.3-0.8-13.7-2.5c-4.4-1.7-8.3-4-11.7-7c-3.4-2.9-6.1-6.5-8.2-10.6c-2.1-4.1-3.1-8.7-3.1-13.7c0-5.7,1.3-11.2,3.9-16.2
				c2.6-5.1,6-9.6,10.2-13.5c4.2-3.9,9-7,14.3-9.2s10.8-3.3,16.4-3.3c2.7,0,5.6,0.4,8.8,1.1c0.6,0.2,1.2,0.2,1.8,0.2
				c0.9,0,0.7-1-0.7-2.9c-1.9-2.5-4.4-4.5-7.5-5.9c-3.1-1.4-6.4-2.1-9.9-2.1c-3.7,0-7.5,0.8-11.5,2.4c-2.7,1.2-4.9,1.8-6.9,1.8
				c-3.2,0-5.9-1.3-8-4c-2.1-2.9-2.6-6-1.7-9.3c1-3.2,3.4-5.9,7.2-8c3.4-1.8,7.2-3.1,11.5-4.1c4.3-1,8.4-1.4,12.4-1.4
				c11.9,0,21.4,3.4,28.4,10.2C432,609.3,436.5,618.3,438.6,629.7z M389.1,705.7h7.3v1.3c0,0.7-0.5,1.3-1.5,1.5
				c-0.6,0.1-1.3,0.2-2.1,0.2c-0.8,0-1.7,0-2.8,0c-4.6,0-8.7-0.5-12.3-1.4c-3.6-1-7.3-2.9-11.2-5.9c-1.6-1.2-3.3-2.8-5.1-4.8
				s-2.6-3.2-2.4-3.6c0.1-0.6,0.4-0.9,0.9-0.9c0.9,0,2.4,1,4.4,3.1c3.7,3.8,7.4,6.5,11.3,8.1C379.4,704.9,383.9,705.7,389.1,705.7z
				 M414.5,652.9l-2.7-2.4c-2.7-2.4-5.6-3.5-8.8-3.5c-2.4,0-4.8,0.5-7.3,1.5c-2.5,1-4.9,2.4-7.1,4.2c-2.2,1.8-4.1,3.8-5.5,6
				c-1.5,2.2-2.4,4.5-2.7,6.9c-0.1,1.3,0.1,2.8,0.7,4.4c2.2,4.1,6.3,6.2,12.2,6.2c2.9,0,5.5-0.6,7.7-1.9c2.2-1.3,4.3-2.9,6.4-5
				c2.5-2.4,4.1-4.2,4.9-5.5c0.7-1.3,1.3-3.4,1.8-6.2L414.5,652.9z"/>
			<path class="st0" d="M529.6,602.9c7.5,3.8,12.7,10.5,15.6,19.9c2.9,9.4,3.2,20.9,1,34.3c-0.4,2.1-1,4.5-1.7,7.2
				c-0.7,2.7-1.4,5.5-2.1,8.4c-0.7,2.9-1.5,5.6-2.3,8.1c-0.8,2.5-1.6,4.6-2.3,6.2c-1.2,2.5-2.8,4.4-5,5.6c-2.1,1.3-4.5,1.9-7.2,1.9
				c-2.9-0.1-5.5-1.3-7.5-3.3c-3.7-3.8-4.4-8.5-2.2-14.1c2.1-5.5,3.8-11.2,5.2-17.2c1.4-6,2.1-12,2.1-17.9c0.1-5-0.1-8.9-0.9-11.6
				c-0.7-2.7-1.9-4.7-3.5-5.9c-0.6-0.6-1.2-0.9-1.8-1c-0.6-0.1-1.8-0.1-3.5-0.1c-1.6,0.1-2.9,0.3-3.9,0.5c-1,0.2-2.2,0.8-3.9,1.7
				c-6.8,3-12.7,7.7-17.9,14.3c-5.2,6.6-9.3,13-12.4,19.3c-0.4,0.9-0.8,1.7-1,2.3c-0.2,0.7-0.4,1.4-0.6,2.1
				c-0.1,0.7-0.3,1.6-0.3,2.7c-0.1,1-0.2,2.5-0.3,4.4c-0.1,2.2-0.3,4.5-0.3,7c-0.1,2.4-0.1,4.2-0.1,5.4c-0.1,2.4-0.4,4.1-0.7,5.2
				c-0.3,1.1-1,2.5-2,4.1c-0.9,1.2-2.3,2.2-4.2,3c-1.9,0.8-3.8,1.2-5.5,1.2c-0.9,0-1.5-0.1-2-0.2c-2.1-0.6-3.9-1.6-5.6-3.1
				c-1.7-1.5-2.8-3.2-3.4-5.3c-0.6-1.8-0.9-4.6-1-8.4c-0.1-3.8,0.1-7.2,0.6-10.2c0.3-1.6,0.5-3.6,0.7-5.9c0.1-2.3,0.2-4.2,0.2-5.9
				c0-1.8,0-4,0.1-6.6c0.1-2.7,0.2-5,0.3-7.1c0.1-2.1,0.3-4.8,0.4-8.3c0.1-3.5,0.3-6.7,0.4-9.6c0.3-2.8,0.5-5.5,0.7-8.2
				c0.1-2.7,0.3-4.3,0.4-5.1c1.2-6.6,4.6-10.2,10.2-10.6c4.4,0,7.4,1.3,8.8,3.8c1.5,2.5,2.2,5.7,2.2,9.5v4.2l3.5-3.1
				c5.2-4.9,10.8-9,17-12.3s12.9-5,20.1-5c3.5,0,6.3,0.3,8.4,0.8C524.6,600.5,527,601.5,529.6,602.9z M502.4,591
				c-0.7,0.2-1.2-0.1-1.4-0.7c-0.2-0.6,0-1.2,0.6-1.8c0.7-0.7,2.5-1.3,5.2-1.8c2.7-0.4,5.6-0.7,8.7-0.7c1.2,0,2.3,0,3.4,0.1
				c1.1,0.1,2.2,0.2,3.2,0.3c4,0.7,7.8,2,11.5,3.8c3.7,1.8,5.5,3.3,5.5,4.6c0,1-0.5,1.5-1.5,1.5c-0.4,0-1.2-0.4-2.2-1.1
				c-2.2-1.9-5.4-3.5-9.6-4.6c-4.2-1.2-8.3-1.8-12.3-1.8c-1.3,0-2.6,0.1-3.8,0.2c-1.2,0.1-2.3,0.4-3.3,0.7c-0.7,0.3-1.5,0.5-2.3,0.7
				C503.3,590.7,502.7,590.9,502.4,591z"/>
			<path class="st0" d="M634.8,665.9c0.6,1.5,0.8,3.4,0.7,5.6c-0.1,2.3-0.6,4.8-1.3,7.4c-0.7,2.7-1.7,5.4-3,8.3
				c-1.3,2.9-2.7,5.6-4.3,8.1c-3,4.3-6.6,7.9-10.8,10.8c-4.3,2.9-9.1,4.4-14.4,4.4c-6,0-11.4-1.8-16-5.3c-4.6-3.5-8.2-7.9-10.7-13
				c-3.2-6.5-5.6-15-7.1-25.4c-1.5-10.5-1.8-22-1.1-34.7c0.1-3.2,0.4-6.6,0.7-10.1c0.3-3.5,0.6-6.2,0.9-8.1c0.1-0.9,0.3-1.7,0.3-2.5
				c0.1-0.8,0.1-1.5,0.1-2.1c0.1-0.7,0.2-1.4,0.2-2h-0.7c-0.4,0-1.1,0-2,0.1c-0.9,0.1-1.9,0.2-3.1,0.3c-0.9,0.2-1.7,0.2-2.4,0.2
				c-0.7,0-1.4,0-2,0c-3.1,0-5.5-0.8-7.3-2.4c-2.5-2.2-3.7-5-3.5-8.4c0.1-3.4,1.5-6,4.2-8c1.2-0.9,3.1-1.7,5.9-2.3
				c2.7-0.7,6-1.2,9.8-1.7l6.2-0.4l0.7-3.5c1.8-6.2,5.4-9.3,10.8-9.3c6.3,0,9.7,3.4,10.2,10.2l0.4,3.1l6,0.7
				c3.7,0.6,6.2,1.1,7.6,1.4c1.4,0.4,2.7,1,3.9,1.9c1.9,1.3,3.3,2.9,4.2,4.8c0.9,1.8,1.3,3.8,1.2,5.7c-0.1,2-0.6,3.8-1.7,5.5
				c-1,1.7-2.6,3.1-4.6,4.1c-1.8,0.9-3.5,1.3-5.3,1.3c-1,0-2.2-0.1-3.5-0.2c-1.3-0.1-3-0.4-5.1-0.7c-1.5-0.4-3-0.7-4.4-0.7
				c-0.6-0.1-1.2-0.2-1.8-0.2c-0.1,0.2-0.4,1.6-0.7,4.3c-0.3,2.7-0.6,5.9-0.8,9.6c-0.2,3.7-0.4,7.4-0.6,11c-0.1,3.7-0.2,6.6-0.2,8.8
				c0,9,0.7,17.1,2,24.4c1.3,7.3,3,12.6,5.1,16c1.3,2.2,2.7,3.3,4,3.3c1.2,0,2.3-0.7,3.4-2c1.1-1.3,2.1-2.9,3.1-4.8
				c1-1.8,1.8-3.6,2.4-5.4c0.7-1.8,1.1-3.1,1.2-4c0.4-2.4,1-4.2,1.5-5.4c0.6-1.3,1.5-2.5,2.7-3.6c2.4-2.1,4.9-3.1,7.7-3.1
				c2.5,0,4.8,0.7,7,2.1C632.6,661.7,634.1,663.6,634.8,665.9z M582.4,712.3c2.4,1,3,2.1,2,3.1c-0.1,0.4-0.5,0.7-1.1,0.7
				c-0.4,0-1.5-0.4-3.1-1.3c-2.9-1.6-5.6-3.7-8-6.3c-2.4-2.6-4.6-6-6.6-10.3c-1.3-2.5-2.1-4.3-2.3-5.4c-0.2-1.1,0-1.8,0.8-2.1
				c0.6-0.1,1.1,0,1.4,0.4c0.4,0.4,0.8,1.4,1.4,2.9c1.5,3.8,3.5,7.3,6.2,10.5C575.8,707.7,578.9,710.3,582.4,712.3z"/>
			<path class="st0" d="M764.3,665.9c0.6,1.5,0.8,3.4,0.7,5.6c-0.1,2.3-0.6,4.8-1.3,7.4c-0.7,2.7-1.7,5.4-3,8.3
				c-1.3,2.9-2.7,5.6-4.3,8.1c-3,4.3-6.6,7.9-10.8,10.8c-4.3,2.9-9.1,4.4-14.4,4.4c-6,0-11.4-1.8-16-5.3c-4.6-3.5-8.2-7.9-10.7-13
				c-3.2-6.5-5.6-15-7.1-25.4c-1.5-10.5-1.8-22-1.1-34.7c0.1-3.2,0.4-6.6,0.7-10.1c0.3-3.5,0.6-6.2,0.9-8.1c0.1-0.9,0.3-1.7,0.3-2.5
				c0.1-0.8,0.1-1.5,0.1-2.1c0.1-0.7,0.2-1.4,0.2-2h-0.7c-0.4,0-1.1,0-2,0.1c-0.9,0.1-1.9,0.2-3.1,0.3c-0.9,0.2-1.7,0.2-2.4,0.2
				c-0.7,0-1.4,0-2,0c-3.1,0-5.5-0.8-7.3-2.4c-2.5-2.2-3.7-5-3.5-8.4c0.1-3.4,1.5-6,4.2-8c1.2-0.9,3.1-1.7,5.9-2.3
				c2.7-0.7,6-1.2,9.8-1.7l6.2-0.4l0.7-3.5c1.8-6.2,5.4-9.3,10.8-9.3c6.3,0,9.7,3.4,10.2,10.2l0.4,3.1l6,0.7
				c3.7,0.6,6.2,1.1,7.6,1.4c1.4,0.4,2.7,1,3.9,1.9c1.9,1.3,3.3,2.9,4.2,4.8c0.9,1.8,1.3,3.8,1.2,5.7c-0.1,2-0.6,3.8-1.7,5.5
				c-1,1.7-2.6,3.1-4.6,4.1c-1.8,0.9-3.5,1.3-5.3,1.3c-1,0-2.2-0.1-3.5-0.2c-1.3-0.1-3-0.4-5.1-0.7c-1.5-0.4-3-0.7-4.4-0.7
				c-0.6-0.1-1.2-0.2-1.8-0.2c-0.1,0.2-0.4,1.6-0.7,4.3c-0.3,2.7-0.6,5.9-0.8,9.6c-0.2,3.7-0.4,7.4-0.6,11c-0.1,3.7-0.2,6.6-0.2,8.8
				c0,9,0.7,17.1,2,24.4c1.3,7.3,3,12.6,5.1,16c1.3,2.2,2.7,3.3,4,3.3c1.2,0,2.3-0.7,3.4-2c1.1-1.3,2.1-2.9,3.1-4.8
				c1-1.8,1.8-3.6,2.4-5.4c0.7-1.8,1.1-3.1,1.2-4c0.4-2.4,1-4.2,1.5-5.4c0.6-1.3,1.5-2.5,2.7-3.6c2.4-2.1,4.9-3.1,7.7-3.1
				c2.5,0,4.8,0.7,7,2.1C762.1,661.7,763.6,663.6,764.3,665.9z M711.9,712.3c2.4,1,3,2.1,2,3.1c-0.1,0.4-0.5,0.7-1.1,0.7
				c-0.4,0-1.5-0.4-3.1-1.3c-2.9-1.6-5.6-3.7-8-6.3c-2.4-2.6-4.6-6-6.6-10.3c-1.3-2.5-2.1-4.3-2.3-5.4c-0.2-1.1,0-1.8,0.8-2.1
				c0.6-0.1,1.1,0,1.4,0.4c0.4,0.4,0.8,1.4,1.4,2.9c1.5,3.8,3.5,7.3,6.2,10.5C705.3,707.7,708.4,710.3,711.9,712.3z"/>
			<path class="st0" d="M791.9,605.8c-1.5,0.9-3.1,2.1-4.9,3.8c-1.8,1.6-3.5,3.3-5.1,5.1c-1.6,1.8-3.1,3.5-4.3,5.1
				c-1.3,1.6-2,2.9-2.3,4c-0.3,0.7-0.7,1.1-1.3,1.1c-0.6,0-1-0.2-1.1-0.7c-0.4-1.2,0.1-3,1.8-5.5c1.6-2.5,3.9-5.3,6.9-8.4
				c2.7-2.7,5.1-4.8,7.3-6.3c2.2-1.5,3.9-2.3,5.1-2.3c0.7,0,1.1,0.4,1.1,1.1C795,603.5,794,604.5,791.9,605.8z M845.2,625.5
				c3.8,6.8,5.5,14.6,5.1,23.4c-0.1,5.5-1.3,10.9-3.5,16.2c-2.2,5.4-5.2,10.2-8.8,14.5c-3.7,4.3-8,7.8-12.8,10.5
				c-4.9,2.7-10.2,4.2-15.9,4.5c-2.7,0-4.5,0-5.5-0.1c-1-0.1-2.3-0.4-3.8-1c-4.7-1.6-8.8-4.4-12.4-8.3c-3.5-3.9-6.1-8.1-7.7-12.7
				c-1.2-3.4-2-6.7-2.5-9.8c-0.5-3.2-0.7-7-0.6-11.6c0.3-7.1,1.8-14.1,4.5-21.1c2.7-7,7.1-12.6,13.1-16.9c1.3-1,3-2,5-2.9
				c2-0.9,4.8-2.1,8.5-3.5c0.6-0.1,1.5-0.3,2.7-0.4c1.2-0.1,2.5-0.2,4-0.2c6.6,0,12.6,1.6,17.8,4.9
				C837.5,614.1,841.8,619,845.2,625.5z M826.4,646.3c0-2.5-0.3-4.5-0.8-6.1c-0.5-1.5-1.4-3.3-2.8-5.2c-1.3-2.1-2.6-3.4-3.9-4
				c-1.3-0.6-3.4-1-6.3-1.1l-4.6-0.2l-1.5,1.8c-1.8,2.1-3.1,4.5-4.1,7.4c-1,2.9-1.6,6.4-1.9,10.7c-0.3,4.4,0,8.4,0.9,11.9
				c0.9,3.5,2.1,6.1,3.8,7.7c0.7,0.7,1.3,1.2,1.7,1.3c0.4,0.1,1.1,0.2,2.1,0.2c0.6-0.1,1.3-0.3,2-0.6c0.7-0.2,1.4-0.5,2-0.8
				c4-2.1,7.2-5.3,9.7-9.8C825.2,655.1,826.4,650.7,826.4,646.3z"/>
		</g>
	</g>
	<g>
		<path class="st1" d="M207.1,397.3v158.5h-19V397.3h-22.2v-19h63.4v19H207.1z"/>
		<path class="st1" d="M261,473.4v82.4h-19V378.3h19v76.1h25.4v-76.1h19v177.6h-19v-82.4H261z"/>
		<path class="st1" d="M381.5,378.3v19h-44.4v57.1h31.7v19h-31.7v63.4h44.4v19H318V378.3H381.5z"/>
		<path class="st1" d="M489.3,378.3c21.1,0,31.7,10.6,31.7,31.7v38c0,21.1-10.6,31.7-31.7,31.7h-12.7v76.1h-19V378.3H489.3z
			 M502,410c0-8.5-4.2-12.7-12.7-12.7h-12.7v63.4h12.7c8.5,0,12.7-4.2,12.7-12.7V410z"/>
		<path class="st1" d="M597.1,378.3v19h-44.4v57.1h31.7v19h-31.7v63.4h44.4v19h-63.4V378.3H597.1z"/>
		<path class="st1" d="M609.8,410c0-21.1,10.6-31.7,31.7-31.7c21.1,0,31.7,10.6,31.7,31.7v114.1c0,21.1-10.6,31.7-31.7,31.7
			c-21.1,0-31.7-10.6-31.7-31.7V410z M641.5,397.3c-8.5,0-12.7,4.2-12.7,12.7v114.1c0,8.5,4.2,12.7,12.7,12.7
			c8.5,0,12.7-4.2,12.7-12.7V410C654.1,401.5,649.9,397.3,641.5,397.3z"/>
		<path class="st1" d="M717.6,378.3c21.1,0,31.7,10.6,31.7,31.7v38c0,21.1-10.6,31.7-31.7,31.7h-12.7v76.1h-19V378.3H717.6z
			 M730.2,410c0-8.5-4.2-12.7-12.7-12.7h-12.7v63.4h12.7c8.5,0,12.7-4.2,12.7-12.7V410z"/>
		<path class="st1" d="M762,555.8V378.3h19v158.5h44.4v19H762z"/>
		<path class="st1" d="M901.5,378.3v19h-44.4v57.1h31.7v19h-31.7v63.4h44.4v19h-63.4V378.3H901.5z"/>
	</g>
	<g>
		<g>
			<path class="st0" d="M567.2,259.5c0.6,5.3,0.7,10.8,0.3,16.7c-0.4,5.9-1.1,11.8-2.2,17.8c-1.1,6-2.6,11.7-4.5,17.2
				c-1.8,5.5-4,10.6-6.4,15.1c-4.1,7.8-8.9,13.8-14.5,18.1c-5.5,4.3-11.4,6.4-17.5,6.4c-8.4,0-15.3-4.1-20.6-12.3l-2.3-3.4l-1.9,3.2
				c-2.8,4.4-6.5,8.3-10.9,11.7c-4.4,3.4-9.4,5.1-14.9,5.1c-0.7,0-1.5,0-2.2-0.1c-0.8-0.1-1.5-0.2-2.2-0.3c-1.3-0.3-2.8-0.9-4.5-1.9
				c-10.5-5.2-17.3-19.2-20.4-41.9c-0.3-2.3-0.5-5-0.6-8.2c-0.1-3.2-0.2-6.5-0.2-9.9c0-3.4,0.1-6.8,0.2-10.1
				c0.1-3.3,0.4-6.3,0.9-8.8c0.4-3.3,1.1-7,2-11.2c0.9-4.2,1.9-8.3,3-12.3c1.1-4,2.2-7.8,3.5-11.3c1.3-3.5,2.4-6.3,3.4-8.4
				c2.6-5.1,6.1-7.7,10.6-7.7c3.8,0,6.6,1.5,8.4,4.6c1.8,3.1,1.9,6.4,0.3,10.1c-2.7,6.5-5.3,17.8-7.7,33.8c-0.3,1.8-0.5,3.5-0.7,4.9
				c-0.2,1.4-0.4,2.9-0.4,4.4c-0.1,1.5-0.1,3.2-0.1,5.1c0,1.9,0,4.4,0,7.3c0,5.8,0.2,11.8,0.7,18.1c0.5,6.2,2.1,12,4.8,17.2
				c1,1.8,1.8,2.8,2.3,2.8c0.6,0,1.3-0.5,2.1-1.5c5.4-6,10.4-16.2,14.9-30.9c0.4-1.4,0.9-2.8,1.5-4.3c0.6-1.4,1-2.4,1.3-3
				c2.1-4.5,5.7-6.8,10.6-6.8c2.8,0,5.5,1,7.9,3c0.9,0.7,1.5,1.5,2,2.2c0.5,0.8,1,1.8,1.4,3.1c0.4,1.3,0.8,2.9,1.1,4.8
				c0.3,1.9,0.6,4.4,0.9,7.3c0,0.6,0.2,2.1,0.5,4.5c0.4,2.4,0.8,4.9,1.3,7.6c0.5,2.6,1.1,5,1.9,7.1c0.8,2.1,1.7,3.2,2.7,3.2
				c0.7,0,1.4-0.3,2.1-0.9c3-1.8,6-5.7,8.9-11.5c3-5.8,5.4-12.6,7.2-20.2c1.1-4.1,1.9-7.7,2.2-10.9c0.4-3.1,0.6-7,0.7-11.5
				c0.1-3.7,0.1-7,0-10c-0.1-3-0.5-5.8-1-8.4c-0.5-2.6-1.2-5.2-2.1-7.8c-0.9-2.6-2-5.3-3.3-8.3c-1-2-1.8-3.8-2.6-5.5
				c-0.7-1.7-1.2-2.9-1.5-3.6c-0.9-3.4-0.1-6.6,2.1-9.7c2.3-3.1,5.1-4.6,8.5-4.6c3.3,0,5.8,0.9,7.7,2.7c1.8,1.8,4,5.4,6.4,10.7
				c2.8,5.8,4.9,11,6.1,15.5C565.7,248.3,566.6,253.5,567.2,259.5z M545.2,350.4c1.7-1.8,3-2.8,3.8-2.8c0.6,0,0.9,0.2,1.1,0.6
				c0.4,1.1-0.4,2.7-2.6,4.8c-2.1,2.1-4.8,3.9-7.9,5.4c-3.3,1.6-6.5,2.6-9.8,3c-3.3,0.4-6.7,0.6-10.4,0.6c-1.4,0-2.5,0-3.3-0.1
				c-0.8-0.1-1.6-0.3-2.4-0.5c-1.7-0.6-3.4-1.3-5.1-2.2c-1.7-0.9-3.2-1.8-4.6-2.8c-1.3-0.9-2.4-1.8-3.3-2.6
				c-0.9-0.8-1.2-1.4-1.1-1.8c0.3-0.6,0.6-0.9,0.9-0.9c0.6,0,1.6,0.6,3.2,1.7c1.6,1.1,3.5,2.2,5.7,3.3c2.3,1.1,4.3,1.9,6,2.4
				c1.7,0.4,3.4,0.6,5.1,0.6h2.3C532.7,358.5,540.1,355.5,545.2,350.4z"/>
			<path class="st0" d="M649.5,334.4c1.4,2.8,1.6,5.7,0.6,8.6c-1,2.9-3,5.1-6,6.7c-0.9,0.4-1.6,0.7-2.3,0.7
				c-0.7,0.1-2.1,0.1-4.3,0.1c-1.3-0.1-3.2-0.2-5.7-0.2c-2.6,0-5,0-7.4,0c-2.6,0-4.8,0-6.6,0.1c-1.8,0.1-3.6,0.3-5.3,0.6
				c-1.7,0.4-3.4,0.8-5.2,1.3c-1.8,0.5-3.9,1.2-6.3,2c-2.4,0.7-4.4,1.3-6.1,1.7c-1.6,0.4-3.1,0.6-4.4,0.6c-2.4,0-4.6-0.7-6.6-2.2
				c-2-1.5-3.4-3.4-4.3-5.6c-0.6-1.6-0.9-3.6-1-6.1c-0.1-2.5,0-6.6,0.3-12.5c0.1-3,0.4-7.3,0.6-13.1c0.3-5.7,0.5-12,0.7-18.8
				c0.2-6.8,0.4-13.8,0.6-20.9c0.2-7.1,0.4-13.5,0.5-19.4c0.1-5.8,0.2-10.6,0.3-14.4c0.1-3.8,0-5.7-0.1-5.9
				c-0.6-0.1-1.1-0.2-1.7-0.2c-0.4-0.1-1-0.2-1.7-0.3c-0.7-0.1-1.4-0.2-2.1-0.3c-3.5-0.4-6.6-1.3-9-2.8c-2.5-1.4-3.7-4.1-3.7-8.1
				c0-1.4,0.1-2.4,0.2-3c0.1-0.6,0.6-1.3,1.3-2.1c0.7-1.1,2.1-2.3,4-3.6l2.6-1.3l6.6,0.4c1.7,0.1,3.4,0.2,5.2,0.2c1.8,0,3,0,3.7,0
				h11.1c1.4,0,4.5-0.3,9.4-1s12.2-1.7,22.1-3.3c1.1-0.1,2.2-0.2,3.1-0.3c0.9-0.1,1.7-0.1,2.4-0.1c2.4,0,4.7,0.8,6.9,2.3
				c2.2,1.6,3.6,3.5,4.1,6c0.7,2.8,0.5,5.4-0.6,7.8c-1.1,2.3-2.9,4.1-5.3,5.4c-0.6,0.3-2.5,0.7-5.7,1.4c-3.3,0.6-6.9,1.3-10.9,1.9
				c-4,0.6-7.8,1.2-11.4,1.6c-3.6,0.4-6.1,0.6-7.3,0.6h-1.7l0.2,3c0.1,0.9,0.2,2.9,0.3,6.3c0.1,3.3,0.2,6.9,0.3,10.7l0.4,14l1.3-0.4
				c3.3-0.6,6.6-1,10-1.2c3.4-0.2,6.7-0.3,10-0.3c2.6,0.1,4.6,0.5,6.1,1.2c1.5,0.6,2.9,1.7,4.4,3.3c3.4,3.4,4,7.4,1.7,11.9
				c-1.7,4.1-5.7,6.2-11.9,6.2H624c-0.6,0-1.9,0-3.9,0s-4.2,0-6.5,0.1c-2.3,0.1-4.4,0.2-6.3,0.3c-1.9,0.1-2.9,0.3-3.1,0.4
				c-0.4,7.2-0.7,13-1,17.2c-0.2,4.3-0.4,10-0.5,17.2c0,0.3,1.1,0.1,3.2-0.4c5.8-1.4,12-2.1,18.5-2.1c1.6,0,3.1,0,4.6,0.1
				c1.5,0.1,3.1,0.2,4.8,0.3c5,0.4,8.5,1.1,10.7,2.1C646.7,330.3,648.4,332,649.5,334.4z M572.5,335.9c-0.9,9.8,0.4,16.7,3.8,20.9
				c0.7,0.7,1,1.3,0.7,1.9c-0.2,0.6-0.7,0.9-1.4,0.9c-0.9,0-1.7-0.5-2.6-1.5c-1.7-2.3-2.8-5.1-3.4-8.5c-0.6-3.4-0.6-7.8-0.2-13.2
				c0.3-4.1,0.6-6.8,1-8c0.4-1.2,0.9-1.7,1.6-1.6c0.3,0,0.5,0,0.7,0.1c0.2,0.1,0.3,0.4,0.3,1c0,0.6,0,1.5-0.1,2.7
				C572.9,331.7,572.8,333.5,572.5,335.9z"/>
		</g>
	</g>
	<g>
		<g>
			<path class="st0" d="M373.1,763.7c1.9,15.5-2.5,29-12.4,40.7c-7.5,8.7-17.4,13.4-28.9,14.3c-1.7,0.2-3.6,0.2-5.3,0.2
				c-2.3,0.2-2.5,0.4-2.5,2.6c0,2.6-0.2,5.3-0.2,7.9c0,8.7-0.9,17.3-0.8,26c0,2.6,0,2.6,2.8,3c0.6,0,1.1,0,1.7,0.2
				c1.3,0.4,2.1,1.3,2.3,2.6c0.2,1.3-0.6,2.5-1.9,3c-1.3,0.6-2.6,0.8-4,0.6c-2.3-0.4-4.5-0.6-6.6-1.3c-6.2-2.3-12.4-1.9-18.7,0.4
				c-1.9,0.8-3.8,1.3-5.8,1.3c-2.1,0-3.4-0.9-3.6-2.5c-0.2-1.5,0.8-2.6,2.8-3.4c2.8-0.9,2.8-0.9,3-3.8c0.6-12.8,0.6-25.7,0.8-38.5
				c0-1.5,0-3,0.2-4.5c0.2-1.9,0-3.8-0.6-5.7c-0.9-2.8-1.9-5.5-4.9-7c-1.3-0.6-1.9-1.9-1.3-3.4s1.9-2.1,3.6-1.7
				c0.6,0.2,1.1,0.4,1.7,0.6c0.6,0.2,1.1,0.4,1.7,0.2c0.8-0.8,0.6-1.7,0.6-2.6c0-15.5,0.8-30.9,0.6-46.4c0-0.8,0-1.5,0-2.3
				c-0.2-2.3-0.4-2.5-2.6-3c-0.4,0-0.8,0-1.1,0c-1.3-0.4-2.3-1.1-2.5-2.6c-0.2-1.3,0.8-2.5,2.5-2.8c1.3-0.4,2.6-0.4,4,0
				c2.1,0.4,4.1,0.9,6.2,1.5c5.8,1.7,11.7,2.1,17.4-0.4c4.5-2.1,9.4-1.9,14.3-2.1c5.3-0.2,10.4,0.6,15.3,2.3
				c4.9,1.7,9.4,4.1,13.4,7.5c6.4,5.3,8.9,12.3,9.8,20.2L373.1,763.7z M318.8,759.3c0.6-5.1,0.2-10.2,0.4-15.3
				c0-1.9-0.2-2.1-2.3-1.7c-3.4,0.8-6.8,0.4-10.2,0c-0.6,0-1.1,0-1.7-0.2c-1.5-0.4-2.1,0.4-2.1,1.9c0,0.4,0,0.8,0,1.1
				c0,14.7,0,29.4-0.6,43.4c0,4.3,0,8.1,0,11.9c0,2.1,0.4,2.3,2.3,1.5c3.8-1.5,7.4-1.7,11.1,0c1.9,0.8,2.1,0.6,2.3-1.5
				c0-0.6,0-1.1,0-1.7c-0.2-12.1,0.6-24.1,0.8-36.2c0-0.6,0-1.1,0-1.7V759.3z M312.4,786.7c1.7,1.7,2.1,4,1.1,5.7
				c-0.9,1.5-2.5,2.3-4,1.9c-2.1-0.6-3.6-2.6-3.6-4.9c0-1.7,0.8-3,2.3-3.8c1.7-0.8,2.8,0,4,0.9L312.4,786.7z M345.7,770.1
				c0-1.5,0-3-0.2-4.5c-0.4-5.7-1.3-11.3-4.3-16.4c-2.8-4.9-7.4-7.4-12.8-7.9c-2.1-0.2-2.5,0.4-2.6,2.6c-0.2,2.8-0.6,5.7-0.6,8.5
				c0.4,13.2-0.8,26.4-0.8,39.6c0,5.3-0.2,10.6-0.6,15.8c-0.2,3.2,0.4,3.4,3.4,2.1c4.7-2.1,8.1-5.7,10.6-10c5.3-9.2,8.1-19.2,7.7-30
				L345.7,770.1z M365.2,782.5c2.6-7.9,2.5-16,0.8-24.1c-0.8-3.4-2.1-6.4-4.5-8.9c-5.3-5.7-11.9-8.7-19.6-9.8
				c5.1,4,7.5,9.4,8.9,15.5c3,13.4,2.3,26.6-2.8,39.4c-1.3,3.2-1.3,3.2,1.5,4.9c0.6,0.4,1.1,0.8,1.7,1.1c1.9,1.3,1.9,1.3,3.6-0.4
				c5.1-5.1,8.3-11.3,10.6-18.1V782.5z"/>
			<path class="st0" d="M491,860.1c0.6,0.9,0.6,1.9,0,2.8c-0.8,1.3-1.9,1.9-3.4,1.7c-3-0.2-6-0.6-8.9-1.7c-2.6-1.1-5.3-1.1-7.9,0
				c-1.9,0.8-4,1.5-6,1.9c-0.9,0.2-1.9,0.4-2.8,0.4c-2.1,0-3.2-0.9-3.4-2.5c-0.2-1.5,0.8-2.8,2.8-3c2.8-0.4,5.3-1.3,7.7-2.3
				c2.6-1.1,2.6-1.3,2.1-4.1c-2.1-9.2-4.1-18.5-6.4-27.7c-0.8-3.4-0.8-3.4-4.1-3.4c-10.4,0.2-20.7,0-31.1,0.6
				c-2.6,0.2-2.8,0.4-3.6,2.8c-3,9.4-6,18.9-9.1,28.3c-0.4,0.9-0.6,1.9-0.8,2.8c-0.6,1.9-0.4,2.1,1.5,2.5c0.8,0.2,1.7,0.4,2.5,0.8
				c1.3,0.6,2.3,1.7,2.1,3.2c-0.2,1.5-1.1,2.5-2.6,2.6c-1.3,0.2-2.6,0-4-0.4c-2.1-0.6-4.3-0.9-6.4-1.7c-3.6-1.3-7-1.1-10.4,0.2
				c-3.2,1.1-6.6,1.9-10,2.3c-2.1,0.2-4.1-0.2-6.2-0.6c-1.5-0.2-2.5-1.5-2.5-2.8c0-1.3,0.9-2.4,2.6-2.6c1.3-0.2,2.6-0.2,4-0.2
				c1.3,0,2.3-0.6,2.6-1.9c0.2-0.4,0.4-0.8,0.6-1.1c4.7-14.1,8.9-28.5,13.4-42.6c1.3-4.3,0.2-7.9-1.9-11.5c-0.2-0.4-0.6-0.8-0.8-1.1
				c-0.8-1.5-0.6-2.8,0.6-3.8c0.9-0.9,2.3-0.9,3.6,0c0.4,0.4,0.8,0.8,1.1,1.1c0.4,0.4,0.6,0.9,0.9,1.5c1.3-1.3,1.5-2.5,1.9-3.6
				c5.5-17.5,10.9-35.1,16.4-52.6c1.1-3.6,1.1-3.6-2.6-3.8c-1.1,0-2.3,0-3.2-0.2c-1.5-0.4-2.5-1.7-2.5-3c0-1.3,0.9-2.5,2.6-2.6
				c3.2-0.2,6.4-0.2,9.6,0.4c1.3,0.2,2.6,0.4,4,0.8c4.7,1.7,9.4,1.3,14.1,0c3.4-0.9,6.8-1.5,10.4-1.3c2.8,0.2,4.5,1.3,4.5,3.2
				c0,2.1-1.5,3.2-4.5,3.2c-5.3,0-4.7,0.4-3.8,4.5c6,26.4,12.1,52.8,18.1,79.2c2.3,9.8,4.7,19.6,6.8,29.4c0.6,2.6,2.1,3.8,4.3,4.1
				c1.7,0.4,3.4,0.6,5.1,0.8c1.3,0.2,2.5,0.6,3.2,1.7L491,860.1z M426.3,802.7c5.5-17.2,10.9-34.3,16.4-51.5c0.8-2.3,1.5-4.5,1.7-7
				c0.2-1.9,0-2.3-1.9-1.9c-2.8,0.6-5.7,0.4-8.5-0.4c-2.8-0.8-3.2-0.6-4,2.3c-1.3,4.9-2.5,9.8-4,14.7c-4,12.6-7.9,25.3-11.9,37.9
				c-0.4,1.1-0.9,2.3-0.4,4c2.3-0.6,4.3-0.8,6.4,0.2c2.1,0.9,3,3,4.7,4.1c0.9-0.8,0.9-1.7,1.1-2.5H426.3z M424,785.4
				c1.9,0,3.2,1.5,3.2,3.4c0,2.1-1.9,4-4,3.8c-1.9-0.2-3.2-1.9-3-3.8c0.2-2.1,1.9-3.8,4-3.6L424,785.4z M459.5,811.6
				c2.1,0,2.3-0.4,1.9-2.3c-0.2-0.6-0.4-1.1-0.6-1.7c-3-13.2-6-26.4-9.1-39.6c-0.9-4-1.9-7.9-2.8-12.3c-1.1,0.8-1.1,1.7-1.3,2.4
				c-4,12.1-7.9,24.1-11.9,36.2c-1.5,4.7-3,9.4-4.5,14.3c-0.8,2.3-0.6,2.6,1.7,2.6c8.9,0,17.7,0,26.6,0V811.6z"/>
			<path class="st0" d="M592.2,862.1c0.4,1.5-0.4,2.6-1.7,3.4c-1.9,1.1-4,1.1-6,0.8c-2.1-0.4-4.3-0.8-6.4-1.5
				c-4.3-1.7-8.7-1.3-13,0.2c-0.9,0.4-1.9,0.8-2.8,0.9c-1.7,0.2-3-0.8-3.4-2.3c-0.4-1.5,0.4-2.5,1.7-3.2c1.7-0.9,3.4-1.9,5.1-2.8
				c1.3-0.8,1.9-1.7,1.7-3.2c-1.1-7.4-1.9-14.7-4.1-21.7c-0.9-2.8-1.9-5.7-3.2-8.3c-4.3-8.7-13-11.3-21.7-10.9
				c-1.5,0-2.5,0.9-2.6,2.5c-0.2,1.9-0.6,3.8-0.6,5.7c0,9.8-0.6,19.6-1.1,29.4c0,0.8,0,1.5,0,2.3c0,4,0,4,4,4.7
				c1.7,0.4,2.8,1.5,2.8,3c0,1.5-0.9,2.5-2.3,3c-1.1,0.4-2.3,0.4-3.4,0.2c-2.6-0.4-5.3-0.8-7.7-1.7c-5.7-1.9-11.1-1.3-16.6,0.6
				c-1.5,0.6-3,1.1-4.5,1.5c-1.3,0.4-2.6,0.4-4,0c-1.1-0.4-1.9-1.1-2.1-2.3c-0.2-0.9,0.4-1.7,1.1-2.3c0.8-0.6,1.7-0.8,2.6-0.9
				c1.5-0.2,2.1-1.1,2.1-2.6c0-3,0-6,0-9.1c0.2-12.1,0.4-24.1,0.6-36.2c0-2.3-0.2-4.5-1.1-6.8c-0.9-1.9-1.9-3.6-4-4.7
				c-1.9-0.9-2.3-2.5-1.5-3.8c0.8-1.3,2.1-1.7,4.1-1.1c0.4,0.2,0.8,0.4,1.1,0.6c0.9,0.4,1.5,0,1.7-0.9c0.2-1.3,0.4-2.6,0.4-4
				c0-7,0.2-14,0.2-20.9c0-6.6,0.6-13,0.6-19.6c0-2.1,0-4.1,0-6.2c0-1.5-0.6-2.5-2.3-2.6c-2.8-0.4-3.8-1.3-3.8-2.8
				c0-1.9,1.7-3,4.5-3c2.3,0,4.5,0.6,6.8,1.3c6.4,2.1,12.8,2.5,19.2-0.4c2.8-1.3,6-1.7,9.2-1.7c4.7,0,9.4-0.6,14.1,0.6
				c8.3,1.9,15.7,5.3,21.5,11.7c3.2,3.4,5.3,7.4,6.2,11.9c4.1,20.2-1.1,37.3-16.6,51.3c-1.7,1.5-1.7,1.5,0,3
				c6,5.3,10.2,11.9,12.8,19.4c2.1,6,3.4,12.3,4,18.7c0.2,2.6,0.9,5.1,1.7,7.5c0.4,1.5,1.1,2.4,2.8,2.3c0.4,0,0.8,0,1.1,0
				c1.3,0.2,2.3,0.9,2.6,2.3V862.1z M530.6,746c0-2.3-0.4-2.8-2.5-2.5c-3.4,0.8-6.8,0-10.2-0.2c-3-0.2-3-0.2-3,2.8
				c-0.2,10.8-0.4,21.5-0.6,32.3c-0.2,6.6,0,13.2-0.6,19.8c-0.2,1.5-0.2,3,0.2,4.7c0.4,0,0.6,0,0.8,0c4.1-2.1,8.3-2.6,12.6-0.4
				c1.3,0.6,1.7,0.2,1.7-1.7c0.2-4,0.2-7.9,0.4-11.9c0.4-12.3,1.1-24.5,0.9-36.8C530.4,750.1,530.6,748,530.6,746z M518.9,786.5
				c1.7-1.1,3.6-0.6,5.3,1.5c0.8,0.9,1.1,2.1,1.1,3.4c0,1.5-0.6,2.8-2.1,3.6c-1.3,0.8-2.6,0.4-3.8-0.6c-0.6-0.4-1.1-0.9-1.5-1.5
				c-1.3-2.1-0.8-4.9,1.1-6.2L518.9,786.5z M547.5,796.3c6.6-7.9,9.6-17.4,9.6-27.7c-0.2-5.5-0.9-10.7-3-15.8
				c-2.3-5.7-6.6-8.9-12.3-10.4c-4.1-1.1-4.9-0.6-4.9,3.6c0,15.1-0.4,30.2-1.1,45.3c-0.2,3-0.2,6-0.2,9.1c0,1.9,0.4,2.3,2.3,1.7
				c3.8-1.1,7.2-3,9.6-6V796.3z M562.8,802.5c0.9,0.8,1.7,0.6,2.5-0.2c0.6-0.6,1.1-1.1,1.7-1.7c10.4-12.4,13.8-26.6,9.8-42.4
				c-0.8-3.2-2.5-5.8-4.9-8.3c-5.1-5.3-11.7-7.7-19.2-9.4c6,5.8,8.3,9.4,9.8,16.8c1.7,8.1,2.3,16.2,0.9,24.5
				c-0.9,5.3-2.3,10.4-4.5,15.3c-0.9,2.3-0.9,2.3,1.1,3.4c1.1,0.6,2.1,1.1,2.8,1.9V802.5z"/>
			<path class="st0" d="M690.1,744.3c1.1,3.2,1.7,6.6,1.5,10c0,1.5-0.4,3-1.1,4.3c-0.9,1.7-2.5,2.3-4,1.7c-1.5-0.6-2.4-2.1-1.9-3.8
				c1.1-2.8,0.6-5.7,0.2-8.5c-0.4-2.1-1.5-3.4-3.6-4c-2.6-0.8-5.3-1.5-8.1-1.5c-3,0-6,0-9.1,0c-1.1,0-2.3,0.2-3.2,0.4
				c-3,0.8-3.4,1.3-3.4,4.3c0,4,0,7.9,0,11.9c0,11.7-0.8,23.4-1.1,35.1c0,0.9,0,1.9,0,2.8c-0.2,13.4-0.2,26.8-0.8,40.2
				c-0.2,5.5-0.2,11.1-0.8,16.6c-0.2,1.7,0,3.4,0,5.1c0,1.5,0.8,2.3,2.3,2.3c0.9,0,1.9,0,2.8,0.4c1.3,0.6,2.1,1.5,2.1,2.8
				c0,1.3-0.8,2.1-1.9,2.6c-0.9,0.4-2.1,0.4-3.2,0.4c-2.8,0-5.5-0.8-8.1-1.5c-5.7-1.9-11.3-1.5-17,0.4c-1.5,0.6-3.2,0.9-4.9,1.3
				c-0.8,0.2-1.7,0.2-2.5,0c-1.7-0.2-2.6-1.3-2.8-2.6c-0.2-1.3,0.6-2.5,2.1-3c0.4-0.2,0.8-0.2,1.1-0.2c2.6-0.8,2.6-0.8,2.6-3.8
				c0-5.8,0-11.7,0.2-17.5c0.2-8.9,0.4-17.7,0.6-26.6c0-2.3-0.2-4.5-1.1-6.8c-0.8-1.9-1.7-3.6-3.8-4.7c-1.9-0.9-2.3-2.3-1.7-3.6
				c0.6-1.5,1.9-2.1,3.8-1.7c0.4,0,0.8,0.2,1.1,0.4c1.5,0.6,2.1-0.2,2.3-1.5c0.2-1.1,0.2-2.3,0.2-3.4c0-4.7,0.2-9.4,0.2-14.1
				c-0.2-9.8,0.6-19.6,0.6-29.4c0-3.8,0-3.8-3.6-4.3c-5.5-0.9-10.9-1.7-16.6-0.8c-1.9,0.4-2.8,1.1-3.2,2.8
				c-0.8,3.4-1.9,6.6-0.9,10.2c0.6,2.1-0.6,3.6-2.3,4c-1.5,0.4-3.2-0.6-4-2.5c-0.8-2.1-1.1-4.1-0.8-6.2c0.4-1.9,0.8-3.8,1.3-5.7
				c0.9-3.2,1.7-6.4,1.5-9.8c-0.2-2.1,0.6-3.2,1.9-3.6c1.3-0.4,2.6,0.2,3.4,2.1c0.8,1.9,1.9,2.1,3.6,1.7c3.2-0.6,6.4-0.4,9.6,0
				c6.2,0.8,12.4,1.5,18.5,3c4.3,1.1,8.7,0.4,12.8-1.1c9.8-3.6,19.6-4.7,29.8-2.6c1.3,0.2,2.3,0,2.6-1.5c0-0.4,0.2-0.8,0.4-1.1
				c0.8-1.3,1.7-2.1,3.2-1.7c1.3,0.2,1.9,1.1,2.1,2.5c0,0.4,0,0.8,0,1.1c0,2.8,0.8,5.5,1.7,8.1L690.1,744.3z M650.7,762.2
				c0-5.3,0-9.2,0-13.2c0-1.9,0-2.1-1.9-1.7c-3.6,0.9-7.2,0.9-10.9,0.8c-2.6-0.2-2.6-0.2-2.6,2.6c-0.2,11.3-0.4,22.6-0.6,33.9
				c-0.2,6.6-0.2,13.2-0.6,19.8c-0.2,2.3,0.2,2.5,2.3,1.5c3.6-1.7,7.2-1.9,10.9,0c2.1,0.9,2.3,0.8,2.3-1.7c0-4,0-7.9,0.2-11.9
				c0.4-10.7,0.8-21.5,1.1-30.9L650.7,762.2z M645.6,794.8c0,2.3-1.7,4-3.8,4c-2.3,0-4.5-2.5-4.5-4.9c0-2.3,1.7-4.1,3.6-4.1
				C643.2,789.7,645.6,792.3,645.6,794.8z"/>
			<path class="st0" d="M792.2,736.5c1.5,0.6,2.5,1.9,2.3,3.4c-0.2,1.5-1.1,2.6-2.6,2.8c-3,0.4-5.7,1.7-8.5,2.5
				c-1.5,0.4-2.4,1.1-3.2,2.5c-6.8,11.7-13.6,23.4-20.4,34.9c-0.9,1.5-1.3,3.2-1.3,5.1c0,5.5,0,10.9,0,16.4
				c-0.2,17.2-0.4,34.3-0.6,51.5c0,0.6,0,1.1,0,1.7c0,3,0,3,2.8,3.8c0.6,0.2,1.1,0.4,1.7,0.6c1.3,0.6,2.1,1.5,1.9,3
				c-0.2,1.5-1.1,2.5-2.6,2.8c-1.3,0.2-2.6,0-3.8-0.4c-2.1-0.8-4.1-1.3-6-2.3c-5.1-2.6-10-2.1-14.9,0.2c-1.7,0.8-3.4,1.7-5.3,2.1
				c-0.9,0.2-1.9,0.2-2.8-0.2c-1.9-0.9-2.3-3.2-0.6-4.5c0.4-0.2,0.8-0.6,1.1-0.6c3.8-0.6,4.1-3,4.1-6.2c0-13.2,0.4-26.4,0.4-39.6
				c0-7.4-3.6-12.8-10.2-16.2c-1.3-0.8-2.3-1.5-2.1-3c0.2-1.7,1.3-2.5,2.8-2.8c0.6-0.2,1.1-0.2,2.3-0.4c-1.3-3-2.4-5.7-3.6-8.3
				c-6-13.2-12.1-26.4-18.1-39.6c-1.1-2.5-2.5-4-5.1-4.5c-2.3-0.4-3.2-1.9-2.8-3.6c0.4-1.7,1.9-2.6,4-2.5c1.5,0.2,3,0.8,4.5,1.5
				c1.5,0.8,3,1.5,4.7,2.3c3.4,1.7,6.8,1.7,10.2-0.2c3-1.7,6.2-3.2,9.8-3.8c1.7-0.2,3.4-0.2,5.1,0.4c1.9,0.8,2.8,2.3,2.6,3.8
				c-0.4,1.7-1.9,2.6-4.1,2.5c-0.4,0-0.8-0.2-1.1-0.2c-1.5,0-1.9,0.4-1.3,1.9c0.9,2.5,2.1,4.9,3.2,7.4c4.5,10.2,9.1,20.4,13.8,30.6
				c0.4,0.9,0.8,2.1,1.7,2.8c1.1-0.2,1.3-1.1,1.7-1.9c7.2-11.9,14.1-23.8,21.1-35.6c0.2-0.4,0.4-0.8,0.6-1.1
				c0.6-0.9,0.4-1.7-0.6-2.3c-1.5-0.8-3.2-1.5-4.9-1.9c-0.6-0.2-1.1-0.2-1.7-0.4c-1.3-0.4-1.9-1.3-1.9-2.6c0-1.1,0.6-1.9,1.5-2.5
				c1.1-0.6,2.3-0.6,3.4-0.4c1.5,0.4,3,0.9,4.3,1.7c3,1.7,6.2,1.7,9.4,0.4c1.9-0.8,3.8-1.5,5.8-1.9c0.9-0.2,1.9-0.2,2.8,0.2
				L792.2,736.5z M748.2,795.4c-0.9-2.1-2.3-4-3.2-6c-4.7-10.2-9.2-20.4-13.8-30.6c-1.7-3.8-3.6-7.5-5.5-11.3
				c-0.4-0.9-0.8-2.1-1.9-1.5c-3.2,1.5-6.6,2.1-10.4,1.9c-0.2,1.5,0.2,2.3,0.6,3c4.7,10.2,9.4,20.4,14,30.7c3.2,7.4,7,14.3,9.4,21.9
				c0.6,1.9,1.9,3,3.8,3.6c2.6,0.8,4.7-0.2,6.4-2.3C750.1,801.8,749.7,798.6,748.2,795.4z M737.7,785.2c2.1,0,4,1.9,4,4
				c0,2.1-1.5,4-3.2,4.1c-1.9,0.2-3.6-1.7-3.6-4c0-2.3,1.1-3.8,2.8-3.8V785.2z"/>
		</g>
	</g>
	<g>
		<g>
			<rect x="166.9" y="223.4" class="st1" width="226.8" height="24.7"/>
			<rect x="166.9" y="274.9" class="st1" width="226.8" height="24.7"/>
			<rect x="166.9" y="326.4" class="st1" width="226.8" height="24.7"/>
		</g>
		<g>
			<rect x="686.4" y="223.4" class="st1" width="226.8" height="24.7"/>
			<rect x="686.4" y="274.9" class="st1" width="226.8" height="24.7"/>
			<rect x="686.4" y="326.4" class="st1" width="226.8" height="24.7"/>
		</g>
	</g>
	<g>
		<g>
			<g>
				<path class="st0" d="M877.8,609.1c-2.2-0.2-3.6-1.1-4.3-3c-0.6-1.9-0.1-3.5,1.5-4.7c0.9-0.6,1.9-1.1,2.9-1.5
					c12.7-4.8,25.4-9.5,38.2-14.2c1.5-0.5,3.2-0.7,4.8-0.5c2.1,0.2,3.5,1.6,3.8,3.7c0.3,2-0.5,3.4-2.2,4.5c-0.7,0.4-1.4,0.8-2.2,1
					c-13.1,4.6-26.1,9.2-39.2,13.8C879.9,608.6,878.8,608.8,877.8,609.1z"/>
				<path class="st0" d="M921.6,677.2c-0.5-0.1-1.5-0.1-2.4-0.4c-9.4-2.6-18.8-5.1-28.2-7.8c-1.7-0.5-3.3-1.3-4.7-2.4
					c-1.5-1.1-2.1-2.9-1.1-4.7c0.9-1.6,2.4-2.2,4.1-1.9c11.5,2.4,23.2,4.4,34.2,8.7c0.4,0.1,0.8,0.3,1.1,0.4c2.1,1,3.1,2.6,2.9,4.4
					c-0.3,2-1.9,3.3-4.4,3.5C922.9,677.2,922.5,677.2,921.6,677.2z"/>
				<path class="st0" d="M897.5,639.3c-2.3,0-4.6-0.1-6.9-0.3c-1.9-0.2-3.3-1.1-3.7-3.2c-0.3-1.9,0.8-3.5,3.1-4.1
					c7.4-1.8,14.9-2.9,22.5-2.5c0.9,0.1,1.9,0.3,2.7,0.7c1.6,0.7,2.5,2.1,2.6,3.8c0.1,1.8-0.8,3.1-2.4,4c-0.8,0.4-1.8,0.8-2.7,0.9
					C907.6,639,902.6,639.4,897.5,639.3z"/>
				<path class="st0" d="M909.7,703.3c0.1,2.6-1.5,4.3-3.7,4c-1.3-0.2-2.7-0.7-3.7-1.4c-6.2-4.4-12.3-8.9-18.5-13.4
					c-0.5-0.4-1.3-0.9-1.4-1.4c-0.3-1.1-0.5-2.4-0.1-3.4c0.6-1.4,2-1.7,3.5-1.2c0.5,0.2,1,0.4,1.5,0.7c5.9,3.6,11.8,7.3,17.6,11
					c1.3,0.8,2.4,1.8,3.4,2.8C909,701.8,909.4,702.8,909.7,703.3z"/>
			</g>
			<g>
				<path class="st0" d="M202.2,609.1c2.2-0.2,3.6-1.1,4.3-3c0.6-1.9,0.1-3.5-1.5-4.7c-0.9-0.6-1.9-1.1-2.9-1.5
					c-12.7-4.8-25.4-9.5-38.2-14.2c-1.5-0.5-3.2-0.7-4.8-0.5c-2.1,0.2-3.5,1.6-3.8,3.7c-0.3,2,0.5,3.4,2.2,4.5
					c0.7,0.4,1.4,0.8,2.2,1c13.1,4.6,26.1,9.2,39.2,13.8C200.1,608.6,201.2,608.8,202.2,609.1z"/>
				<path class="st0" d="M158.4,677.2c0.5-0.1,1.5-0.1,2.4-0.4c9.4-2.6,18.8-5.1,28.2-7.8c1.7-0.5,3.3-1.3,4.7-2.4
					c1.5-1.1,2.1-2.9,1.1-4.7c-0.9-1.6-2.4-2.2-4.1-1.9c-11.5,2.4-23.2,4.4-34.2,8.7c-0.4,0.1-0.8,0.3-1.1,0.4
					c-2.1,1-3.1,2.6-2.9,4.4c0.3,2,1.9,3.3,4.4,3.5C157.1,677.2,157.5,677.2,158.4,677.2z"/>
				<path class="st0" d="M182.5,639.3c2.3,0,4.6-0.1,6.9-0.3c1.9-0.2,3.3-1.1,3.7-3.2c0.3-1.9-0.8-3.5-3.1-4.1
					c-7.4-1.8-14.9-2.9-22.5-2.5c-0.9,0.1-1.9,0.3-2.7,0.7c-1.6,0.7-2.5,2.1-2.6,3.8c-0.1,1.8,0.8,3.1,2.4,4
					c0.8,0.4,1.8,0.8,2.7,0.9C172.4,639,177.4,639.4,182.5,639.3z"/>
				<path class="st0" d="M170.3,703.3c-0.1,2.6,1.5,4.3,3.7,4c1.3-0.2,2.7-0.7,3.7-1.4c6.2-4.4,12.3-8.9,18.5-13.4
					c0.5-0.4,1.3-0.9,1.4-1.4c0.3-1.1,0.5-2.4,0.1-3.4c-0.6-1.4-2-1.7-3.5-1.2c-0.5,0.2-1,0.4-1.5,0.7c-5.9,3.6-11.8,7.3-17.6,11
					c-1.3,0.8-2.4,1.8-3.4,2.8C171,701.8,170.6,702.8,170.3,703.3z"/>
			</g>
		</g>
	</g>
	<g>
		<path class="st2" d="M850.7,775.6c-0.6,2.6-0.6,5.1,0,7.7c0,2.1,0,4.1-0.2,6.2c-0.1,2.1,0.6,2.8,2.8,2.8
			c15.1-0.1,30.3-0.1,45.4-0.1c0.2,0,0.3,0.1,0.5,0.1c-0.8-0.1-1.6-0.2-2.4-0.2c-13.5,0-27,0-40.5,0c-0.8,0-1.6,0.1-2.4,0.2
			c-1.2-0.3-2.4-0.8-3.4,0.4l0,0.1c-0.5,2.1-0.5,4.2,0,6.4c0,0.2,0.1,0.4,0.1,0.5c-0.2,2.9-0.5,5.8,0.1,8.7l-0.2,0.2
			c-0.7,0-1.4,0-2.1,0.1c-3.6,0-7.2,0-10.8,0c-1.4,0-2.9,0-4.3,0c-4,0-7.9,0-11.9,0c-2.3-0.3-4.7-0.2-7,0c-1.6,0-3.2,0-4.9,0
			c-0.4,0-0.7,0-1.1,0c-0.4,0-0.7,0-1.1,0c-1.1,0-1.5-0.8-1.9-1.6c-2.1-4.3-4-8.6-5.5-13.1c-0.3-1-1.1-2.1-0.1-3.3
			c0.1-0.1,0.1-0.6,0-0.7c-2.7-1.6-1.8-4.4-2.1-6.7c-0.1-0.8-1.2-2.8,1.4-2.3c-0.4-0.9,2.1-1.7,0-2.8c-0.8-0.4-1.7-1.2-1.5-2.6
			c0.7-5.1,2.7-9.7,6.1-14c0.7,1.2,0.7,2.7,2.4,2.1c0.3-0.1,1.3,0.5,1-0.4c-0.4-0.9,1.8-1.5-0.1-2.3c-1.5-0.6-1.2-1.7,0-2.6
			c1-0.7,1.9-1.3,2.8-2c0.9-0.7,1.9-0.6,2.1,0.5c0.3,2.1,1.9,0.5,2.6,1.1c-0.3-0.9,1.9-1.9-0.2-2.9c-0.9-0.4-0.1-1,0.5-1.2
			c5.9-2.1,11.9-2.3,17.9-0.1c8.9,3.1,14.4,9.5,17.3,18.3C850.4,773.1,850.5,774.4,850.7,775.6z M819.2,794.8
			c0.7,1.1,0.5,2.5,2.5,2.2c1.8-0.2,0.5-1.9,1.5-2.1c-0.4-0.9-1.4-1.1-2-1.8C820.5,793.7,819.8,794.3,819.2,794.8z M805.9,785.7
			c2.2,0.9,1.2-1.5,2.1-1.9c-0.7-0.6-1.3-1.2-2-1.7c-0.4,0.9-2.2,0.7-1.9,1.9C804.4,784.7,804,786.7,805.9,785.7z M813.7,780.8
			c2.1,1.1,1.6-1.1,1.7-1.7c0.2-0.9-1.2-1.2-1.8-1.8c-0.6,0.6-1.7,0.8-2,1.8C812.7,779.2,811.4,781.9,813.7,780.8z M813.6,792.3
			c1.9,1.1,1.6-1,1.8-1.7c0.4-1.3-1.6-0.9-1.8-2c-0.7,0.6-1.3,1.2-2,1.8C812.6,790.7,811.4,793.1,813.6,792.3z M844,803.8
			c2.1,1.3,1.8-1.1,2-1.8c0.3-1.2-1.5-1-2-1.9c-0.2,1-2.2,0.8-1.6,1.9C842.6,802.6,841.8,804.7,844,803.8z M821.3,774.6
			c2.6,1.9,0.8-1.7,2-1.9c-0.2-1.1-1.6-0.8-2-1.7c-0.7,0.6-1.4,1.1-2.1,1.7C820.3,773,818.9,775.4,821.3,774.6z M813.6,803.8
			c2.1,1.2,1.6-1.1,1.8-1.7c0.4-1.1-1.3-1-1.7-1.9c-0.7,0.6-1.6,0.9-2.1,1.8C812.6,802.3,811.4,804.8,813.6,803.8z M828.9,803.8
			c2.3,1.1,1.5-1.3,1.8-1.8c0.5-0.9-1.4-0.8-1.7-1.8c-0.7,0.6-1.4,1.1-2.1,1.7C827.8,802.3,826.7,804.8,828.9,803.8z M828.9,769.3
			c2.2,1.1,1.6-1.3,1.7-1.8c0.4-1.1-1.5-1-1.8-2c-0.7,0.6-1.3,1.2-2,1.8C827.8,767.8,826.8,770.1,828.9,769.3z M805.9,796.8
			c2.3,1.3,1.1-1.5,2.1-1.8c-0.4-0.9-1.4-1.1-2.1-1.8c-0.4,0.8-2.1,0.9-1.7,1.8C804.4,795.5,803.7,797.9,805.9,796.8z M813.7,769.2
			c2.3,1.2,1.5-1.3,1.8-1.9c0.3-0.7-1.3-1-1.8-1.7c-0.5,0.7-2.1,0.8-1.9,1.8C812,768,811.4,770.4,813.7,769.2z M806,774.6
			c2.3,1.3,1.5-1.2,1.8-1.8c0.4-0.9-1.3-1-1.8-1.8c-0.7,0.6-1.7,0.8-2.1,1.7C804.9,773.1,803.8,775.6,806,774.6z M836.4,796.8
			c2.1,1.1,1.1-1.6,2.1-1.9c-0.6-0.6-1.3-1.3-1.9-1.9c-0.5,0.8-2.1,0.9-1.8,2C834.9,795.6,834.3,797.7,836.4,796.8z M844,780.8
			c2.2,1.2,1-1.6,2.1-1.9c-0.4-0.9-1.5-1-2-1.8c-0.7,0.6-1.4,1.1-2.1,1.7C843.1,779.1,841.8,781.6,844,780.8z M844.1,769.3
			c2.3,1.2,1.5-1.3,1.9-1.9c0.3-0.7-1.3-1-1.8-1.6c-0.5,0.8-1.7,0.7-2,1.7C843.1,767.7,841.8,770.2,844.1,769.3z M821.3,763.5
			c2.3,1.2,0.8-1.7,1.9-1.8c-0.1-1.1-1.6-0.9-1.8-1.9c-0.7,0.6-1.5,1.2-2.2,1.7C820.2,761.9,819.1,764.5,821.3,763.5z M828.9,792.4
			c2.4,1.2,1-1.7,2.1-2.1c-0.7-0.6-1.4-1.6-2.1-1.6c-0.7,0-1.3,1.1-1.9,1.7C828,790.7,826.6,793,828.9,792.4z M828.9,780.7
			c2.3,1.1,0.8-1.7,1.9-1.8c-0.2-1.1-1.8-0.9-1.9-2.1c-0.7,0.7-1.3,1.4-2,2.1C827.8,779.4,826.9,781.8,828.9,780.7z M836.5,774.6
			c2.3,1.6,1.5-1.3,1.8-1.9c0.4-1-1.6-0.9-1.8-1.9c-0.7,0.6-1.3,1.2-2,1.9C835.5,772.9,834.2,775.4,836.5,774.6z M821.4,785.8
			c2.1,0.5,1.5-1.4,1.7-2c0.3-0.9-1.5-0.9-1.8-1.9c-0.7,0.6-1.3,1.2-2,1.9C820.1,784.5,819.5,786.7,821.4,785.8z M844,792.4
			c2.1,0.9,1.1-1.5,2-2.1c-0.6-0.5-1.3-1.5-1.9-1.5c-0.7,0.1-1.4,0.9-2.1,1.5C843.1,790.7,841.9,793,844,792.4z M836.4,763.5
			c2,1.1,1.6-1.1,1.8-1.7c0.3-0.9-1.3-1.1-1.7-2c-0.7,0.6-1.4,1.2-2.1,1.8C835.4,761.9,834.3,764.3,836.4,763.5z M828.9,757.8
			c2.1,0.6,1-1.7,2-2c-0.6-0.7-1.7-0.9-2-1.8c-0.3,1-2.1,1-1.8,2C827.3,756.6,827,758.7,828.9,757.8z M836.4,785.7
			c2,1,1.3-1.4,2.1-1.8c-0.7-0.7-1.3-1.3-2-2c-0.2,1.1-1.8,0.9-2,2C835.6,784.1,834.2,786.5,836.4,785.7z"/>
		<path class="st1" d="M850.7,775.6c-0.1-1.2-0.3-2.5-0.4-3.7c0.7-1.7,1.4-3.4,2.2-5.2c1.2,0,2.3,0,3.5,0c14.4,0,28.9-0.1,43.3-0.1
			c2.5,2.1,2.9,5.2,3.2,8.2c0.1,1.5-1.5,0.9-2.3,0.9c-8.1,0-16.1,0-24.2,0C867.5,775.7,859.1,775.7,850.7,775.6z"/>
		<path class="st1" d="M898.7,792.2c-15.1,0-30.3,0-45.4,0.1c-2.2,0-2.9-0.8-2.8-2.8c0.1-2.1,0.1-4.1,0.2-6.2c16.7,0,33.3,0,50-0.1
			c1.5,0,2,0.5,1.6,1.9c-0.5,1.8-1,3.6-1.5,5.4C900.5,791.7,899.9,792.3,898.7,792.2z"/>
		<path class="st1" d="M891.7,808.7c-12.7,0-25.5,0-38.2,0c-0.9-0.1-1.7-0.2-2.6-0.2c-0.6-2.9-0.4-5.8-0.1-8.7
			c1.1,0,2.1-0.1,3.2-0.1c14.3,0,28.6,0,42.9-0.1c0.1,2.2-1.7,3.7-2.1,5.8c-0.4,0.2-0.5,0.6-0.5,1c-0.2,0.4-0.5,0.7-0.7,1.1
			C893.1,808.1,892.5,808.6,891.7,808.7z"/>
		<g>
			<path class="st1" d="M876.3,832.5l-0.2-0.1c-0.6,0.5-1.1,0.3-1.6,0c-16.2,0.3-32.3,0.3-48.5,0c-1.2,0.5-2.7-0.2-3.9,0.6
				c0.1,1,0.8,1.6,1.2,2.3c2.6,4.2,5.8,7.4,11.3,6.3c10.8,0,21.5,0,32.3,0c0.3,0,0.5-0.1,0.8-0.1c2.8-0.1,8.8-5.8,9.1-8.7
				c0-0.1-0.2-0.3-0.3-0.4L876.3,832.5z"/>
			<path class="st1" d="M886.8,816c-0.9,0-1.8,0-2.7,0c-19,0-38.1,0-57.1,0c-4.8,0.5-9.7,0-14.5,0.1c-1.2,0-2.3,0-1.2,1.7
				c1.4,2.2,3,4.4,4.2,6.8c0.4,0.9,1.5,1.2,2.5,1.2c4.9-0.1,9.9-0.5,14.8-0.5c15.9-0.1,31.7,0,47.6-0.1c0.9,0,2.2,0.8,2.7-0.9
				c0,0,0,0,0,0c2.6-2.2,3.9-5.2,5.3-8.1C887.9,816.1,887.3,816,886.8,816z"/>
			<path class="st1" d="M860.5,848.9c-8.2,0-16.3,0-25.2,0c3,3.2,5.7,5.2,8.7,6.9c3.6,2.1,7.1,2.2,10.6,0c3.1-1.9,5.9-4,8.3-6.7
				c0,0,0,0,0,0c-0.5-0.1-1-0.1-1.6-0.2C861.2,848.9,860.8,848.9,860.5,848.9z"/>
		</g>
		<path class="st1" d="M893.8,758.6c-0.2-0.2-0.4-0.4-0.6-0.6c0,0,0,0,0,0c-1-0.7-2.1-1.5-3.1-2.2c0,0,0,0,0,0
			c-3.4-1.8-7-2.9-10.8-3.7c-0.4,0-0.7-0.1-1.1-0.1c-2.9,0.2-5.7,0.5-8.6,0.7c-0.5,0.2-1.1,0.3-1.6,0.5c-0.4,0.3-0.8,0.6-1.2,0.9
			c-0.3,0-0.6-0.1-1-0.1c-0.2,0.1-0.5,0.2-0.7,0.2c-0.1,0.4-0.3,0.7-0.4,1.1c-1.2,0.1-2.1,0.8-3.1,1.4c-0.7,0.4-2,0.4-1.7,1.6
			c0.3,1.2,1.6,0.9,2.5,0.9c4.4,0,8.7,0.1,13.1,0.1c0.4-0.1,0.7-0.2,1.1-0.2c-0.1,0.1-0.1,0.3-0.1,0.5c0.8-0.4,1.5-0.4,2.3,0
			c0.2-0.1,0.3-0.3,0.5-0.4c0.2,0.1,0.4,0.2,0.6,0.3c4.7-0.6,9.3,0.1,14-0.4C893.8,758.9,893.8,758.7,893.8,758.6z M867.4,756.2
			c0-0.4-0.2-0.7-0.7-0.7c0,0,0,0,0,0C867.2,755.5,867.4,755.8,867.4,756.2z"/>
	</g>
	<g>
		<path class="st2" d="M207.4,775.6c-0.6,2.6-0.6,5.1,0,7.7c0,2.1,0,4.1-0.2,6.2c-0.1,2.1,0.6,2.8,2.8,2.8
			c15.1-0.1,30.3-0.1,45.4-0.1c0.2,0,0.3,0.1,0.5,0.1c-0.8-0.1-1.6-0.2-2.4-0.2c-13.5,0-27,0-40.5,0c-0.8,0-1.6,0.1-2.4,0.2
			c-1.2-0.3-2.4-0.8-3.4,0.4l0,0.1c-0.5,2.1-0.5,4.2,0,6.4c0,0.2,0.1,0.4,0.1,0.5c-0.2,2.9-0.5,5.8,0.1,8.7l-0.2,0.2
			c-0.7,0-1.4,0-2.1,0.1c-3.6,0-7.2,0-10.8,0c-1.4,0-2.9,0-4.3,0c-4,0-7.9,0-11.9,0c-2.3-0.3-4.7-0.2-7,0c-1.6,0-3.2,0-4.9,0
			c-0.4,0-0.7,0-1.1,0c-0.4,0-0.7,0-1.1,0c-1.1,0-1.5-0.8-1.9-1.6c-2.1-4.3-4-8.6-5.5-13.1c-0.3-1-1.1-2.1-0.1-3.3
			c0.1-0.1,0.1-0.6,0-0.7c-2.7-1.6-1.8-4.4-2.1-6.7c-0.1-0.8-1.2-2.8,1.4-2.3c-0.4-0.9,2.1-1.7,0-2.8c-0.8-0.4-1.7-1.2-1.5-2.6
			c0.7-5.1,2.7-9.7,6.1-14c0.7,1.2,0.7,2.7,2.4,2.1c0.3-0.1,1.3,0.5,1-0.4c-0.4-0.9,1.8-1.5-0.1-2.3c-1.5-0.6-1.2-1.7,0-2.6
			c1-0.7,1.9-1.3,2.8-2c0.9-0.7,1.9-0.6,2.1,0.5c0.3,2.1,1.9,0.5,2.6,1.1c-0.3-0.9,1.9-1.9-0.2-2.9c-0.9-0.4-0.1-1,0.5-1.2
			c5.9-2.1,11.9-2.3,17.9-0.1c8.9,3.1,14.4,9.5,17.3,18.3C207.1,773.1,207.2,774.4,207.4,775.6z M175.9,794.8
			c0.7,1.1,0.5,2.5,2.5,2.2c1.8-0.2,0.5-1.9,1.5-2.1c-0.4-0.9-1.4-1.1-2-1.8C177.2,793.7,176.5,794.3,175.9,794.8z M162.6,785.7
			c2.2,0.9,1.2-1.5,2.1-1.9c-0.7-0.6-1.3-1.2-2-1.7c-0.4,0.9-2.2,0.7-1.9,1.9C161.1,784.7,160.7,786.7,162.6,785.7z M170.3,780.8
			c2.1,1.1,1.6-1.1,1.7-1.7c0.2-0.9-1.2-1.2-1.8-1.8c-0.6,0.6-1.7,0.8-2,1.8C169.3,779.2,168.1,781.9,170.3,780.8z M170.3,792.3
			c1.9,1.1,1.6-1,1.8-1.7c0.4-1.3-1.6-0.9-1.8-2c-0.7,0.6-1.3,1.2-2,1.8C169.3,790.7,168,793.1,170.3,792.3z M200.6,803.8
			c2.1,1.3,1.8-1.1,2-1.8c0.3-1.2-1.5-1-2-1.9c-0.2,1-2.2,0.8-1.6,1.9C199.3,802.6,198.5,804.7,200.6,803.8z M177.9,774.6
			c2.6,1.9,0.8-1.7,2-1.9c-0.2-1.1-1.6-0.8-2-1.7c-0.7,0.6-1.4,1.1-2.1,1.7C176.9,773,175.6,775.4,177.9,774.6z M170.3,803.8
			c2.1,1.2,1.6-1.1,1.8-1.7c0.4-1.1-1.3-1-1.7-1.9c-0.7,0.6-1.6,0.9-2.1,1.8C169.2,802.3,168.1,804.8,170.3,803.8z M185.6,803.8
			c2.3,1.1,1.5-1.3,1.8-1.8c0.5-0.9-1.4-0.8-1.7-1.8c-0.7,0.6-1.4,1.1-2.1,1.7C184.5,802.3,183.4,804.8,185.6,803.8z M185.6,769.3
			c2.2,1.1,1.6-1.3,1.7-1.8c0.4-1.1-1.5-1-1.8-2c-0.7,0.6-1.3,1.2-2,1.8C184.4,767.8,183.5,770.1,185.6,769.3z M162.6,796.8
			c2.3,1.3,1.1-1.5,2.1-1.8c-0.4-0.9-1.4-1.1-2.1-1.8c-0.4,0.8-2.1,0.9-1.7,1.8C161.1,795.5,160.3,797.9,162.6,796.8z M170.3,769.2
			c2.3,1.2,1.5-1.3,1.8-1.9c0.3-0.7-1.3-1-1.8-1.7c-0.5,0.7-2.1,0.8-1.9,1.8C168.6,768,168.1,770.4,170.3,769.2z M162.7,774.6
			c2.3,1.3,1.5-1.2,1.8-1.8c0.4-0.9-1.3-1-1.8-1.8c-0.7,0.6-1.7,0.8-2.1,1.7C161.6,773.1,160.5,775.6,162.7,774.6z M193.1,796.8
			c2.1,1.1,1.1-1.6,2.1-1.9c-0.6-0.6-1.3-1.3-1.9-1.9c-0.5,0.8-2.1,0.9-1.8,2C191.5,795.6,191,797.7,193.1,796.8z M200.7,780.8
			c2.2,1.2,1-1.6,2.1-1.9c-0.4-0.9-1.5-1-2-1.8c-0.7,0.6-1.4,1.1-2.1,1.7C199.8,779.1,198.5,781.6,200.7,780.8z M200.8,769.3
			c2.3,1.2,1.5-1.3,1.9-1.9c0.3-0.7-1.3-1-1.8-1.6c-0.5,0.8-1.7,0.7-2,1.7C199.8,767.7,198.5,770.2,200.8,769.3z M178,763.5
			c2.3,1.2,0.8-1.7,1.9-1.8c-0.1-1.1-1.6-0.9-1.8-1.9c-0.7,0.6-1.5,1.2-2.2,1.7C176.9,761.9,175.8,764.5,178,763.5z M185.6,792.4
			c2.4,1.2,1-1.7,2.1-2.1c-0.7-0.6-1.4-1.6-2.1-1.6c-0.7,0-1.3,1.1-1.9,1.7C184.6,790.7,183.3,793,185.6,792.4z M185.6,780.7
			c2.3,1.1,0.8-1.7,1.9-1.8c-0.2-1.1-1.8-0.9-1.9-2.1c-0.7,0.7-1.3,1.4-2,2.1C184.5,779.4,183.6,781.8,185.6,780.7z M193.2,774.6
			c2.3,1.6,1.5-1.3,1.8-1.9c0.4-1-1.6-0.9-1.8-1.9c-0.7,0.6-1.3,1.2-2,1.9C192.2,772.9,190.9,775.4,193.2,774.6z M178.1,785.8
			c2.1,0.5,1.5-1.4,1.7-2c0.3-0.9-1.5-0.9-1.8-1.9c-0.7,0.6-1.3,1.2-2,1.9C176.7,784.5,176.2,786.7,178.1,785.8z M200.7,792.4
			c2.1,0.9,1.1-1.5,2-2.1c-0.6-0.5-1.3-1.5-1.9-1.5c-0.7,0.1-1.4,0.9-2.1,1.5C199.7,790.7,198.5,793,200.7,792.4z M193.1,763.5
			c2,1.1,1.6-1.1,1.8-1.7c0.3-0.9-1.3-1.1-1.7-2c-0.7,0.6-1.4,1.2-2.1,1.8C192.1,761.9,191,764.3,193.1,763.5z M185.6,757.8
			c2.1,0.6,1-1.7,2-2c-0.6-0.7-1.7-0.9-2-1.8c-0.3,1-2.1,1-1.8,2C183.9,756.6,183.7,758.7,185.6,757.8z M193,785.7
			c2,1,1.3-1.4,2.1-1.8c-0.7-0.7-1.3-1.3-2-2c-0.2,1.1-1.8,0.9-2,2C192.3,784.1,190.9,786.5,193,785.7z"/>
		<path class="st1" d="M207.4,775.6c-0.1-1.2-0.3-2.5-0.4-3.7c0.7-1.7,1.4-3.4,2.2-5.2c1.2,0,2.3,0,3.5,0c14.4,0,28.9-0.1,43.3-0.1
			c2.5,2.1,2.9,5.2,3.2,8.2c0.1,1.5-1.5,0.9-2.3,0.9c-8.1,0-16.1,0-24.2,0C224.2,775.7,215.8,775.7,207.4,775.6z"/>
		<path class="st1" d="M255.4,792.2c-15.1,0-30.3,0-45.4,0.1c-2.2,0-2.9-0.8-2.8-2.8c0.1-2.1,0.1-4.1,0.2-6.2c16.7,0,33.3,0,50-0.1
			c1.5,0,2,0.5,1.6,1.9c-0.5,1.8-1,3.6-1.5,5.4C257.2,791.7,256.5,792.3,255.4,792.2z"/>
		<path class="st1" d="M248.3,808.7c-12.7,0-25.5,0-38.2,0c-0.9-0.1-1.7-0.2-2.6-0.2c-0.6-2.9-0.4-5.8-0.1-8.7
			c1.1,0,2.1-0.1,3.2-0.1c14.3,0,28.6,0,42.9-0.1c0.1,2.2-1.7,3.7-2.1,5.8c-0.4,0.2-0.5,0.6-0.5,1c-0.2,0.4-0.5,0.7-0.7,1.1
			C249.7,808.1,249.2,808.6,248.3,808.7z"/>
		<g>
			<path class="st1" d="M232.9,832.5l-0.2-0.1c-0.6,0.5-1.1,0.3-1.6,0c-16.2,0.3-32.3,0.3-48.5,0c-1.2,0.5-2.7-0.2-3.9,0.6
				c0.1,1,0.8,1.6,1.2,2.3c2.6,4.2,5.8,7.4,11.3,6.3c10.8,0,21.5,0,32.3,0c0.3,0,0.5-0.1,0.8-0.1c2.8-0.1,8.8-5.8,9.1-8.7
				c0-0.1-0.2-0.3-0.3-0.4L232.9,832.5z"/>
			<path class="st1" d="M243.5,816c-0.9,0-1.8,0-2.7,0c-19,0-38.1,0-57.1,0c-4.8,0.5-9.7,0-14.5,0.1c-1.2,0-2.3,0-1.2,1.7
				c1.4,2.2,3,4.4,4.2,6.8c0.4,0.9,1.5,1.2,2.5,1.2c4.9-0.1,9.9-0.5,14.8-0.5c15.9-0.1,31.7,0,47.6-0.1c0.9,0,2.2,0.8,2.7-0.9
				c0,0,0,0,0,0c2.6-2.2,3.9-5.2,5.3-8.1C244.5,816.1,244,816,243.5,816z"/>
			<path class="st1" d="M217.2,848.9c-8.2,0-16.3,0-25.2,0c3,3.2,5.7,5.2,8.7,6.9c3.6,2.1,7.1,2.2,10.6,0c3.1-1.9,5.9-4,8.3-6.7
				c0,0,0,0,0,0c-0.5-0.1-1-0.1-1.6-0.2C217.8,848.9,217.5,848.9,217.2,848.9z"/>
		</g>
		<path class="st1" d="M250.5,758.6c-0.2-0.2-0.4-0.4-0.6-0.6c0,0,0,0,0,0c-1-0.7-2.1-1.5-3.1-2.2c0,0,0,0,0,0
			c-3.4-1.8-7-2.9-10.8-3.7c-0.4,0-0.7-0.1-1.1-0.1c-2.9,0.2-5.7,0.5-8.6,0.7c-0.5,0.2-1.1,0.3-1.6,0.5c-0.4,0.3-0.8,0.6-1.2,0.9
			c-0.3,0-0.6-0.1-1-0.1c-0.2,0.1-0.5,0.2-0.7,0.2c-0.1,0.4-0.3,0.7-0.4,1.1c-1.2,0.1-2.1,0.8-3.1,1.4c-0.7,0.4-2,0.4-1.7,1.6
			c0.3,1.2,1.6,0.9,2.5,0.9c4.4,0,8.7,0.1,13.1,0.1c0.4-0.1,0.7-0.2,1.1-0.2c-0.1,0.1-0.1,0.3-0.1,0.5c0.8-0.4,1.5-0.4,2.3,0
			c0.2-0.1,0.3-0.3,0.5-0.4c0.2,0.1,0.4,0.2,0.6,0.3c4.7-0.6,9.3,0.1,14-0.4C250.5,758.9,250.4,758.7,250.5,758.6z M224.1,756.2
			c0-0.4-0.2-0.7-0.7-0.7c0,0,0,0,0,0C223.9,755.5,224,755.8,224.1,756.2z"/>
	</g>
</g>
</svg>
