<?xml version="1.0" encoding="utf-8"?>
<!-- Generator: Adobe Illustrator 22.0.1, SVG Export Plug-In . SVG Version: 6.00 Build 0)  -->
<svg version="1.1" id="Layer_1" xmlns="http://www.w3.org/2000/svg" xmlns:xlink="http://www.w3.org/1999/xlink" x="0px" y="0px"
	 viewBox="0 0 432 432" style="enable-background:new 0 0 432 432;" xml:space="preserve">
<style type="text/css">
	.st0{fill:#231F20;}
</style>
<g>
	<g>
		<g>
			<path class="st0" d="M46.5,235.1c-0.1-0.1-0.2-0.2-0.2-0.3c-0.1-0.2-0.2-0.3-0.5-0.5c-2.3-1.8-4-3.9-5-6.3c-1-2.4-1.7-5-2.1-7.8
				c-0.5-2.2-0.7-4.3-0.7-6.5c0-0.7-0.3-1-0.8-1l-2.6,0.2c-1,0-1.9-0.2-2.7-0.7c-0.8-0.5-1.2-1.3-1.2-2.4c0.2-1.8,1.5-2.9,4-3.3
				c1.7-0.2,4.3-0.2,7.8-0.2c1.2,0,2.3,0,3.4,0.1s1.9,0.4,2.5,1c0.6,0.6,0.9,1.4,0.9,2.3c0,1.6-1,2.6-2.9,3.2
				c-1.4,0.2-2.2,0.4-2.3,0.4c-0.1,0-0.2,0.2-0.2,0.6l0.9,6.9c0.4,2.6,1.3,5,2.8,6.9c1.5,2,3.4,2.9,5.8,2.9c2.7,0,5.1-1.2,7-3.5
				c2-2.3,3-5.2,3.1-8.7c0-4.2-1.2-8.7-3.7-13.7c-2.5-4.9-5.8-9.4-9.9-13.2c-0.4-0.4-0.8-0.6-1.2-0.6c-1.4,0.4-2.6,0.7-3.4,1.1
				c-0.8,0.3-1.6,0.6-2.4,0.8c-0.8,0.2-1.9,0.4-3.2,0.5c-1.7,0-3.4-0.3-5.2-1c-1.8-0.6-2.7-1.7-2.7-3.1c0-0.8,0.2-1.4,0.7-1.9
				c0.5-0.5,1.1-0.7,1.9-0.7l6.1,0.3c1.1,0,2.3-0.3,3.5-0.8l-0.2-0.5h-0.1c-4.5-5-6.8-10.4-6.8-16.3c0-4.7,1.1-9.4,3.4-14
				c2.3-4.6,5.4-8.5,9.5-11.6c4.1-3.1,8.8-4.6,14.3-4.6c1.3,0,2.6,0.1,4,0.3c3,0.6,5.1,2.4,6.2,5.3c1.1,2.9,1.7,5.8,1.7,8.8
				c0,10.1-4.3,19.5-12.9,28.1c-0.5,0.4-0.7,0.7-0.7,0.9c0,0.3,0.2,0.6,0.7,1c8.5,7.5,13,16.9,13.3,28.3c0.2,1.8,0.2,3.6,0.2,5.4
				c0,6.6-2.4,11.9-7.3,15.9c-2.3,2-4.6,3.4-6.7,4.4c-2.1,0.9-4.6,1.5-7.6,1.8C51.6,239.6,48.8,238.1,46.5,235.1z M64.4,198.3
				c0.3-0.3,0.5-0.6,0.5-0.9c0-0.4-0.1-0.8-0.3-1.1c-1.8-3-4-5.8-6.6-8.3c-6.2-5.6-9.3-12.4-9.3-20.4c0.1-2.9,0.4-5.5,0.9-7.8
				c0.5-2.2,1.4-4.6,2.7-7.1c0.7-1.7,1.7-2.9,3.2-3.9c0.5-0.3,0.8-0.7,0.8-1.1c-0.1-1-0.6-1.5-1.6-1.5c-0.8,0.2-1.3,0.5-1.7,0.9
				c-1.5,1.5-2.7,3.3-3.6,5.2c-2.2,5.1-3.3,10.5-3.3,16.2c0,6.9,2.3,13,6.9,18.4c1,1.1,2,2.3,3.2,3.4c2.4,2.1,4.4,4.6,6,7.6
				c0.3,0.5,0.7,0.8,1.2,0.8C63.8,198.7,64.1,198.6,64.4,198.3z M58.6,177.7c3.1-3.1,5.7-6.6,7.7-10.4c1.4-2.5,2.3-4.9,2.7-7.1
				c0.5-2.2,0.7-4.7,0.7-7.3c0-3.9-1.1-5.8-3.3-5.8c-1.3,0.2-2.4,0.5-3.2,1s-1.8,1.2-2.8,2.2c-4.6,4.4-6.9,10.2-6.9,17.5
				c0.1,2.1,0.3,3.9,0.6,5.3c0.3,1.4,1.2,2.9,2.6,4.6c0.4,0.5,0.7,0.7,1,0.7C57.9,178.2,58.2,178,58.6,177.7z M70.7,210.3
				c0.5-0.5,0.8-1,0.9-1.6c0-0.7-0.3-1.2-0.8-1.7c-0.5-0.5-1.2-0.7-1.9-0.8c-1.3,0-1.9,0.8-1.9,2.3c0,0.8,0.2,1.4,0.6,1.9
				c0.4,0.5,0.9,0.8,1.5,0.8C69.7,211,70.2,210.8,70.7,210.3z"/>
			<path class="st0" d="M78.9,242.1c-0.5-0.5-0.8-1-0.8-1.7c0-1,0.6-1.9,1.7-2.7c0.7-0.4,1.3-0.6,1.8-0.8c0.5-0.2,0.9-0.3,1.2-0.5
				c0.3-0.2,0.5-0.5,0.5-0.9c-1.1-6.6-1.7-14.2-1.7-22.8l0.1-12.6c0-17.7,0.8-35.1,2.4-52.3c0-0.7-0.3-1-1-1l-2.2,0.1
				c-1.3-0.2-2-1-2.2-2.3c0-2.1,2.4-3.2,7.1-3.2l12,0.8c1.3,0.1,2.6,0.4,3.9,1.1c1.3,0.6,1.9,1.5,1.9,2.7c0,0.7-0.2,1.3-0.6,1.8
				c-0.4,0.5-1,0.8-1.6,0.8l-1.5-0.2c-0.5,0-0.7,0.4-0.7,1.1c-2,23.2-2.9,47-2.9,71.3c0,8.6,0.1,13.1,0.3,13.6
				c0.2,0.4,0.7,0.6,1.4,0.6c1.3,0,2,0.7,2.2,2.2c0,0.8-0.4,1.5-1.1,1.9c-1.7,1.1-3.5,1.7-5.4,1.8c-1,0.1-1.9,0.2-2.8,0.3
				c-1.9,0.5-3.8,0.7-5.7,0.7c-0.5,0-1,0-1.4,0.1c-0.4,0.1-0.8,0.2-1.2,0.3c-0.4,0.2-1,0.3-1.9,0.3
				C80.1,242.7,79.5,242.5,78.9,242.1z M89.9,208.8c0.5-0.5,0.8-1.2,0.8-2c0-0.8-0.3-1.4-0.9-1.9c-0.6-0.5-1.3-0.8-2.1-0.8
				c-1.5,0.1-2.3,1-2.4,2.8c0,1.7,0.8,2.6,2.5,2.7C88.7,209.6,89.4,209.3,89.9,208.8z M89.6,198.6c0-8.6,0.2-15.3,0.6-20
				c0.4-4.7,0.8-9.4,1.4-14c0.9-8.5,1.4-13.5,1.4-15.2c0-0.8-0.4-1.2-1.1-1.2c-0.9,0-1.4,0.4-1.5,1.1c-0.2,1.8-0.6,5.9-1.2,12.2
				c-0.6,5.9-1.1,11.6-1.5,17.2c-0.4,5.6-0.6,12.2-0.6,19.7c0,0.9,0.4,1.4,1.1,1.6C88.9,200.1,89.4,199.6,89.6,198.6z"/>
			<path class="st0" d="M121.2,235.1c-0.1-0.1-0.2-0.2-0.2-0.3c-0.1-0.2-0.2-0.3-0.5-0.5c-2.3-1.8-4-3.9-5-6.3c-1-2.4-1.7-5-2.1-7.8
				c-0.5-2.2-0.7-4.3-0.7-6.5c0-0.7-0.3-1-0.8-1l-2.6,0.2c-1,0-1.9-0.2-2.7-0.7c-0.8-0.5-1.2-1.3-1.2-2.4c0.2-1.8,1.5-2.9,4-3.3
				c1.7-0.2,4.3-0.2,7.8-0.2c1.2,0,2.3,0,3.4,0.1c1.1,0.1,1.9,0.4,2.5,1c0.6,0.6,0.9,1.4,0.9,2.3c0,1.6-1,2.6-2.9,3.2
				c-1.4,0.2-2.2,0.4-2.3,0.4c-0.1,0-0.2,0.2-0.2,0.6l0.9,6.9c0.4,2.6,1.3,5,2.8,6.9c1.5,2,3.4,2.9,5.8,2.9c2.7,0,5.1-1.2,7-3.5
				c2-2.3,3-5.2,3.1-8.7c0-4.2-1.2-8.7-3.7-13.7c-2.5-4.9-5.8-9.4-9.9-13.2c-0.4-0.4-0.8-0.6-1.2-0.6c-1.4,0.4-2.6,0.7-3.4,1.1
				c-0.8,0.3-1.6,0.6-2.4,0.8c-0.8,0.2-1.9,0.4-3.2,0.5c-1.7,0-3.4-0.3-5.2-1c-1.8-0.6-2.7-1.7-2.7-3.1c0-0.8,0.2-1.4,0.7-1.9
				c0.5-0.5,1.1-0.7,1.9-0.7l6.1,0.3c1.1,0,2.3-0.3,3.5-0.8l-0.2-0.5h-0.1c-4.5-5-6.8-10.4-6.8-16.3c0-4.7,1.1-9.4,3.4-14
				c2.3-4.6,5.4-8.5,9.5-11.6c4.1-3.1,8.8-4.6,14.3-4.6c1.3,0,2.6,0.1,4,0.3c3,0.6,5.1,2.4,6.2,5.3c1.1,2.9,1.7,5.8,1.7,8.8
				c0,10.1-4.3,19.5-12.9,28.1c-0.5,0.4-0.7,0.7-0.7,0.9c0,0.3,0.2,0.6,0.7,1c8.5,7.5,13,16.9,13.3,28.3c0.2,1.8,0.2,3.6,0.2,5.4
				c0,6.6-2.4,11.9-7.3,15.9c-2.3,2-4.6,3.4-6.7,4.4c-2.1,0.9-4.6,1.5-7.6,1.8C126.3,239.6,123.5,238.1,121.2,235.1z M139.1,198.3
				c0.3-0.3,0.5-0.6,0.5-0.9c0-0.4-0.1-0.8-0.3-1.1c-1.8-3-4-5.8-6.6-8.3c-6.2-5.6-9.3-12.4-9.3-20.4c0.1-2.9,0.4-5.5,0.9-7.8
				c0.5-2.2,1.4-4.6,2.7-7.1c0.7-1.7,1.7-2.9,3.2-3.9c0.5-0.3,0.8-0.7,0.8-1.1c-0.1-1-0.6-1.5-1.6-1.5c-0.8,0.2-1.3,0.5-1.7,0.9
				c-1.5,1.5-2.7,3.3-3.6,5.2c-2.2,5.1-3.3,10.5-3.3,16.2c0,6.9,2.3,13,6.9,18.4c1,1.1,2,2.3,3.2,3.4c2.4,2.1,4.4,4.6,6,7.6
				c0.3,0.5,0.7,0.8,1.2,0.8C138.5,198.7,138.8,198.6,139.1,198.3z M133.4,177.7c3.1-3.1,5.7-6.6,7.7-10.4c1.4-2.5,2.3-4.9,2.7-7.1
				c0.5-2.2,0.7-4.7,0.7-7.3c0-3.9-1.1-5.8-3.3-5.8c-1.3,0.2-2.4,0.5-3.2,1s-1.8,1.2-2.8,2.2c-4.6,4.4-6.9,10.2-6.9,17.5
				c0.1,2.1,0.3,3.9,0.6,5.3c0.3,1.4,1.2,2.9,2.6,4.6c0.4,0.5,0.7,0.7,1,0.7C132.7,178.2,133,178,133.4,177.7z M145.4,210.3
				c0.5-0.5,0.8-1,0.9-1.6c0-0.7-0.3-1.2-0.8-1.7c-0.5-0.5-1.2-0.7-1.9-0.8c-1.3,0-1.9,0.8-1.9,2.3c0,0.8,0.2,1.4,0.6,1.9
				c0.4,0.5,0.9,0.8,1.5,0.8C144.4,211,144.9,210.8,145.4,210.3z"/>
			<path class="st0" d="M174.3,245.4c-1.4,0-2.1-0.7-2.3-2c0-0.9,0.6-1.7,1.7-2.4c0.8-0.4,1.1-1.1,1.1-2.2
				c-0.3-7.4-0.5-12.1-0.5-14.1c0-11.9,0.8-26,2.4-42.4c1-10.5,1.7-21.4,2.3-32.5c0-0.4-0.1-0.6-0.2-0.8c-0.2-0.2-0.5-0.2-0.9-0.2
				c-2.6,0.2-5.2,0.3-7.6,0.6c-2.9,0.2-6,0.4-9.4,0.6c-0.8,0-1.3,0-1.5,0.1c-0.3,0.1-0.4,0.3-0.4,0.8c0.2,2,0.4,3.5,0.4,4.3
				c0,0.8,0.1,2.1,0.1,3.8c-0.1,1.6-0.3,2.8-0.6,3.6c-0.3,0.8-1,1.2-2,1.2c-1.2,0-1.9-0.5-2.2-1.6c-0.3-1.1-0.4-2.3-0.5-3.7
				c-0.2-3.2-0.4-6-0.7-8.5c-0.2-1.9-0.4-4-0.6-6.5c0-1.2,0.1-2,0.4-2.5c0.3-0.5,1-0.8,2.1-0.9c0.9,0,1.5,0.4,1.9,1.1l0.9,3.2
				c0,0.2,0,0.3,0,0.6s0.2,0.3,0.5,0.3c5.1-0.9,10.4-1.5,15.6-1.9l6.2-0.5c8.5-0.8,17.1-1.2,25.6-1.2c4.5,0.1,9,0.4,13.7,0.9
				c0.5,0,0.8-0.2,0.9-0.6c0.4-0.7,0.7-1.2,1.1-1.6c0.3-0.4,0.8-0.6,1.5-0.6c0.7,0,1.2,0.3,1.6,0.9c0.4,0.6,0.6,1.2,0.6,2
				c0,1.2-0.5,3.4-1.4,6.7c-1.5,6.5-2.5,10.1-3,10.9c-0.5,0.8-1.2,1.2-2,1.2c-1-0.1-1.7-0.5-2-1.1c-0.4-0.7-0.6-1.7-0.7-3.2
				c0-1.8,0.3-3.6,1-5.4c0.3-1.1,0.5-2,0.5-2.5c0-0.5-0.2-0.7-0.7-0.9c-0.5-0.1-2.6-0.3-6.4-0.5c-1.7,0-3.4,0.1-5.1,0.3
				c-7.4,0-11.2,0.1-11.3,0.2c-0.1,0.1-0.2,0.7-0.2,1.6c0,8.6-0.6,19.5-1.9,32.7c-1.7,18-2.7,33.9-3.2,47.8c0,4.9,0.2,7.6,0.6,8.2
				c0.2,0.3,0.5,0.5,1.1,0.5c1,0,1.9,0.2,2.7,0.7c0.8,0.5,1.2,1.1,1.2,1.9c-0.1,1.4-0.7,2.3-1.8,2.5c-3,0.4-6,0.6-9,0.6
				c-3,0-6,0.3-9.1,0.7H174.3z M184.2,218.1c0.4-0.6,0.6-1.2,0.6-2c0-0.7-0.2-1.2-0.7-1.7c-0.5-0.5-1.1-0.7-1.8-0.8
				c-1.4,0-2,0.9-2,2.6c0,1.6,0.7,2.5,2.2,2.7C183.2,218.9,183.8,218.6,184.2,218.1z M184.9,205c0.2-0.6,0.2-1.1,0.2-1.6
				c0.4-6.1,0.9-13.9,1.6-23.2c0.4-7.2,1-14.6,1.8-22.2l0.8-8c0-0.8-0.5-1.3-1.4-1.4c-0.6,0-1,0.5-1.2,1.5c-0.1,0.1-0.1,0.2-0.1,0.5
				c-0.9,7.9-1.5,13.5-1.8,16.8l-0.5,6.8l-1.1,15.3c-0.5,4.5-0.8,9.6-0.8,15.3c0.2,0.7,0.6,1.1,1.2,1.2
				C184.4,205.9,184.8,205.6,184.9,205z"/>
			<path class="st0" d="M232.8,233.7c-3.6-7.3-5.4-15.7-5.4-25.1c0-6.6,0.5-13.3,1.6-20.3c1.1-7,2.8-13.4,5-19.3
				c2-5.4,4.7-10.7,8.2-15.6c3.5-5,8.2-7.9,14.2-8.6c6,0.6,10.2,3.1,12.8,7.5c2.6,4.4,3.9,11.3,3.9,20.7c-0.1,4.2-0.3,8.3-0.6,12.3
				c-0.3,4-1,8.5-2,13.6c-0.8,4.8-3.3,7.7-7.6,8.5c-6.8,0.9-13.6,1.7-20.4,2.3c-0.7,0-1.1,0.1-1.3,0.3c-0.2,0.2-0.3,0.7-0.3,1.4
				c0,5.6,1,10.9,3.1,15.8c2.1,5,5.8,7.8,11.3,8.4c0.4,0,0.8-0.3,1.2-0.8c0.8-1.4,1.4-2.8,1.7-4.3l1.6-7.1c0-0.3-0.3-0.5-0.8-0.5
				c-1.8-0.3-2.7-1.1-2.7-2.5c0-1.6,1.1-2.6,3.3-2.9c2.2-0.4,4.2-0.6,6.1-0.6c0.7,0,1.4,0,2.3,0.1c0.8,0,1.6,0.2,2.2,0.6
				c0.6,0.4,1,1.1,1.1,2c0,0.9-0.3,1.5-0.9,1.8c-0.6,0.3-1.2,0.5-1.9,0.6c-1.7,0.3-2.6,0.9-2.7,1.8c-0.3,2.3-1,5.6-2,10.1
				c-0.8,2.6-2.6,5.1-5.7,7.5c-3,2.4-6,3.7-9.1,4C241.9,245.4,236.6,241.5,232.8,233.7z M235,211.4c0.4-0.5,0.6-1.1,0.6-1.9
				c-0.2-1.6-0.9-2.4-2.3-2.4c-1.6,0.2-2.4,1.1-2.4,2.6c0,1.6,0.8,2.4,2.5,2.4C234.1,212.1,234.6,211.9,235,211.4z M234.9,199.1
				c0.1-0.3,0.2-0.7,0.3-1c1.6-11.5,4.7-22.4,9.3-32.8c1.9-4.9,4.8-9.2,8.6-12.9c0.4-0.4,0.6-0.8,0.6-1.1c0-0.3-0.1-0.6-0.4-0.9
				c-0.3-0.3-0.6-0.5-0.9-0.5c-0.4,0-0.8,0.2-1.1,0.5c-1.5,1-2.7,2.3-3.6,4c-5.6,8.4-9.6,17.5-11.9,27.3c-1.5,5.1-2.6,10.5-3.3,16.2
				v0.2c0.1,1.1,0.5,1.7,1.1,1.7C234.3,199.7,234.8,199.5,234.9,199.1z M259.9,201.7c1.8-0.2,3-0.5,3.5-1c0.5-0.5,0.9-1.6,1.2-3.3
				c1.5-7.6,2.3-15.3,2.3-23.1v-7.1c-0.2-3.8-0.9-7.4-2.4-10.9c-0.5-1.5-1.6-2.8-3.3-4l-0.5-0.1c-0.2,0-0.8,0.5-1.7,1.6
				c-0.8,0.8-1.6,1.6-2.3,2.5c-2.8,3.9-5.3,8.1-7.5,12.6c-4.8,10.3-7.5,21.7-8.2,34.2c0,0.5,0.2,0.7,0.7,0.7L259.9,201.7z"/>
			<path class="st0" d="M275.5,239.7c0-0.6,0.4-1.1,1.1-1.6c0.8-0.5,1.1-0.8,1.1-1.1c-0.9-3.6-1.4-7-1.6-10.2
				c-1-8.5-1.5-16.7-1.5-24.7c0-13.8,0.8-27.9,2.4-42.4c0.5-3.6,0.8-7.2,1.1-10.9c0-0.5-0.3-0.7-0.9-0.7c-1.3,0-2-0.6-2-1.8
				c0-0.8,0.5-1.3,1.5-1.7c2.5-1.2,5.1-1.8,7.8-1.8l3.9,0.1c1.8,0,3.2,0.3,4.3,1c1,0.6,1.5,1.5,1.5,2.7l-1.1,7.5
				c-1.4,7.7-2.5,15.5-3.3,23.2v0.7c0.3-0.4,0.5-0.7,0.6-0.9c0.1-0.2,0.2-0.4,0.2-0.6c2.9-7.5,6.7-13.7,11.6-18.8
				c4.8-5,11.1-7.8,18.9-8.3c3.2,0,5.9,0.9,7.9,2.8c2,1.9,3.5,4.3,4.5,7.3c1,2.9,1.5,6,1.5,9.3c0,9.2-2.3,17.7-7,25.3
				c-4.6,7.6-10.9,13.8-18.7,18.6c-3.5,2.1-7.2,3.2-11.2,3.2c-1.1,0-1.7,0-1.9-0.1l-0.3,0.2c1.9,2.6,4.3,4.7,7.1,6.2
				c2.8,1.5,5.7,2.2,8.7,2.2c3.6,0,5.5-0.7,5.8-2c0.2-3.5,1.4-5.2,3.4-5.2c0.8,0.1,1.3,0.3,1.7,0.6c0.4,0.3,0.6,0.9,0.6,1.8
				l-0.3,9.9c-0.2,2.6-1.2,3.9-3.1,3.9c-1.5,0-2.5-0.7-2.8-2c-0.2-0.8-0.5-1.1-1.1-1.1c-1.8,0.2-3.2,0.3-4.3,0.3
				c-9.4,0-17.2-5-23.6-15c-0.4,0.8-0.6,1.6-0.6,2.3c0.8,10.9,1.2,16.4,1.4,16.7c0.2,0.2,0.6,0.3,1.2,0.3h1.1c2.8,0,4.2,0.8,4.2,2.5
				c0,2-4.9,3.4-14.6,4.2l-3.3,0.3C276.1,241.6,275.5,241,275.5,239.7z M283.4,215.6c0.6-0.5,0.8-1.2,0.8-2c0-0.8-0.3-1.5-0.8-2.1
				c-0.5-0.6-1.2-0.9-2.2-0.9c-2,0.1-3.1,1.2-3.1,3.3c0,1.7,0.9,2.5,2.7,2.5h0.2C282.1,216.4,282.9,216.2,283.4,215.6z M282.2,204.2
				l-0.1-4.8c0.3-4.8,0.5-9.4,0.7-14.1c0.3-10.5,1.1-20.7,2.5-30.5c0.2-1.4,0.4-2.8,0.5-4.2c0-1.1-0.5-1.7-1.6-1.8
				c-0.7,0-1.1,0.5-1.1,1.6c0,0.5,0,1-0.1,1.4c-0.1,0.4-0.2,0.8-0.2,1.1c-1,7.1-1.6,12.5-1.8,16.3c-0.2,2.6-0.5,9.6-0.9,21.1
				c-0.1,1.5-0.2,3-0.3,4.4c-0.2,2.5-0.3,5-0.3,7.5l0.1,3.2c0,0.5,0.1,0.8,0.3,0.9c0.2,0.2,0.6,0.3,1,0.3
				C281.7,206.7,282.2,205.9,282.2,204.2z M304.5,208.3c15.3-8.5,23.5-21.4,24.5-38.9c0-2-0.2-4.1-0.7-6.3c-0.5-2.2-1.2-4-2.4-5.4
				c-1.1-1.5-2.8-2.2-4.9-2.2c-8.3,0.6-14.7,4.6-19.1,12.1c-6.7,10.2-11.1,23.4-13,39.5l-0.2,0.7c0,0.3,0.2,0.5,0.6,0.5l0.9-0.1
				c1,0,2,0.2,2.9,0.7c1.7,0.7,3.5,1,5.3,1C300.5,209.7,302.5,209.3,304.5,208.3z"/>
			<path class="st0" d="M352.4,235.1c-0.1-0.1-0.2-0.2-0.2-0.3c-0.1-0.2-0.2-0.3-0.5-0.5c-2.3-1.8-4-3.9-5-6.3c-1-2.4-1.7-5-2.1-7.8
				c-0.5-2.2-0.7-4.3-0.7-6.5c0-0.7-0.3-1-0.8-1l-2.6,0.2c-1,0-1.9-0.2-2.7-0.7c-0.8-0.5-1.2-1.3-1.2-2.4c0.2-1.8,1.5-2.9,4-3.3
				c1.7-0.2,4.3-0.2,7.8-0.2c1.2,0,2.3,0,3.4,0.1s1.9,0.4,2.5,1c0.6,0.6,0.9,1.4,0.9,2.3c0,1.6-1,2.6-2.9,3.2
				c-1.4,0.2-2.2,0.4-2.3,0.4c-0.1,0-0.2,0.2-0.2,0.6l0.9,6.9c0.4,2.6,1.3,5,2.8,6.9c1.5,2,3.4,2.9,5.8,2.9c2.7,0,5.1-1.2,7-3.5
				c2-2.3,3-5.2,3.1-8.7c0-4.2-1.2-8.7-3.7-13.7c-2.5-4.9-5.8-9.4-9.9-13.2c-0.4-0.4-0.8-0.6-1.2-0.6c-1.4,0.4-2.6,0.7-3.4,1.1
				c-0.8,0.3-1.6,0.6-2.4,0.8c-0.8,0.2-1.9,0.4-3.2,0.5c-1.7,0-3.4-0.3-5.2-1c-1.8-0.6-2.7-1.7-2.7-3.1c0-0.8,0.2-1.4,0.7-1.9
				c0.5-0.5,1.1-0.7,1.9-0.7l6.1,0.3c1.1,0,2.3-0.3,3.5-0.8l-0.2-0.5h-0.1c-4.5-5-6.8-10.4-6.8-16.3c0-4.7,1.1-9.4,3.4-14
				c2.3-4.6,5.4-8.5,9.5-11.6c4.1-3.1,8.8-4.6,14.3-4.6c1.3,0,2.6,0.1,4,0.3c3,0.6,5.1,2.4,6.2,5.3c1.1,2.9,1.7,5.8,1.7,8.8
				c0,10.1-4.3,19.5-12.9,28.1c-0.5,0.4-0.7,0.7-0.7,0.9c0,0.3,0.2,0.6,0.7,1c8.5,7.5,13,16.9,13.3,28.3c0.2,1.8,0.2,3.6,0.2,5.4
				c0,6.6-2.4,11.9-7.3,15.9c-2.3,2-4.6,3.4-6.7,4.4c-2.1,0.9-4.6,1.5-7.6,1.8C357.5,239.6,354.7,238.1,352.4,235.1z M370.3,198.3
				c0.3-0.3,0.5-0.6,0.5-0.9c0-0.4-0.1-0.8-0.3-1.1c-1.8-3-4-5.8-6.6-8.3c-6.2-5.6-9.3-12.4-9.3-20.4c0.1-2.9,0.4-5.5,0.9-7.8
				c0.5-2.2,1.4-4.6,2.7-7.1c0.7-1.7,1.7-2.9,3.2-3.9c0.5-0.3,0.8-0.7,0.8-1.1c-0.1-1-0.6-1.5-1.6-1.5c-0.8,0.2-1.3,0.5-1.7,0.9
				c-1.5,1.5-2.7,3.3-3.6,5.2c-2.2,5.1-3.3,10.5-3.3,16.2c0,6.9,2.3,13,6.9,18.4c1,1.1,2,2.3,3.2,3.4c2.4,2.1,4.4,4.6,6,7.6
				c0.3,0.5,0.7,0.8,1.2,0.8C369.7,198.7,370,198.6,370.3,198.3z M364.6,177.7c3.1-3.1,5.7-6.6,7.7-10.4c1.4-2.5,2.3-4.9,2.7-7.1
				c0.5-2.2,0.7-4.7,0.7-7.3c0-3.9-1.1-5.8-3.3-5.8c-1.3,0.2-2.4,0.5-3.2,1c-0.9,0.5-1.8,1.2-2.8,2.2c-4.6,4.4-6.9,10.2-6.9,17.5
				c0.1,2.1,0.3,3.9,0.6,5.3c0.3,1.4,1.2,2.9,2.6,4.6c0.4,0.5,0.7,0.7,1,0.7C363.9,178.2,364.2,178,364.6,177.7z M376.6,210.3
				c0.5-0.5,0.8-1,0.9-1.6c0-0.7-0.3-1.2-0.8-1.7c-0.5-0.5-1.2-0.7-1.9-0.8c-1.3,0-1.9,0.8-1.9,2.3c0,0.8,0.2,1.4,0.6,1.9
				c0.4,0.5,0.9,0.8,1.5,0.8C375.6,211,376.1,210.8,376.6,210.3z"/>
		</g>
	</g>
	<g>
		<g>
			<path class="st0" d="M37.7,253c-0.4-0.7-0.6-1.5-0.4-2.3c0.2-0.9,1-1.4,1.9-1.6c1-0.3,2-0.4,3.2-0.5c2.3-0.2,4.7-0.4,7.2-0.5
				c1.7-0.1,3.3-0.2,4.9-0.2c1.4,0,2.4,0.9,2.5,2.4c0,0.5-0.1,1-0.2,1.4c-0.4,0.9-1.1,1.4-2.1,1.5c-0.1,0-0.3,0-0.5,0
				c-0.7,7.1-1,14.1-0.6,21.3c0.1,0,0.1,0,0.2,0c0-0.2,0.1-0.3,0.2-0.5c0.8-3.7,2-7.2,3.5-10.7c1.2-2.7,2.8-5.3,4.9-7.4
				c1.7-1.7,3.6-3,5.9-3.5c1.1-0.3,2.3-0.4,3.5-0.4c1.7,0,3.3,0.5,4.7,1.2c1.8,1,3,2.4,3.8,4.2c1,2.1,1.9,4.3,2.9,6.4
				c0.6,1.4,1,2.8,1.4,4.2c0.5,1.8,0.8,3.5,1.2,5.3c0.2,0.7,0.2,1.5,0.3,2.3c0.1,0.2,0.1,0.5,0.2,0.7c0.1,0,0.1,0,0.2,0
				c0.4-0.5,0.7-0.9,1.1-1.4c1.3-1.6,2.8-3,4.6-4c2.3-1.2,4.6-0.9,6.7,0.5c1.9,1.2,3.2,3,4.1,5c1.2,2.5,1.9,5.2,2.2,8
				c0.4,2.7,0.6,5.5,0.5,8.3c-0.1,1.9-0.3,3.9-0.5,5.9c-0.2,1.9-0.5,3.7-0.8,5.5c-0.5,2.2-1,4.6-1.6,6.8c-0.1,0.1-0.1,0.1-0.1,0.2
				c-0.2,1.2-0.6,0.9,0.7,2c1.2,0.9,1,3.2-0.3,3.9c-0.8,0.5-1.6,0.5-2.5,0.2c-2-0.6-3.9-1.6-5.8-2.5c-1.8-0.9-1.9-3.4-0.3-4.6
				c0.3-0.2,0.4-0.4,0.5-0.7c0.6-2.3,1.1-4.6,1.7-6.8c0.7-2.4,0.9-4.8,1.2-7.3c0.2-2.2,0.4-4.6,0-6.9c-0.3-2-0.7-4.1-1.8-5.9
				c-0.2-0.3-0.5-0.6-0.7-0.7c-1.9-1.2-3.3-1.2-5.3,0.3c-1.2,1-2.2,2.3-3.1,3.7c-0.3,0.4-0.4,0.7-0.4,1.2c0,2.2,0,4.5,0,6.6
				c-0.1,2.8-0.1,5.6-0.3,8.3c-0.2,2-0.5,4.1-1,6.1c-0.5,1.9-1.3,3.4-2.6,4.8c-0.7,0.9-1.7,1.4-2.8,1.7c-1.3,0.3-2.5,0.4-3.7-0.1
				c-1-0.4-1.9-0.9-2.8-1.7c-2-1.9-3-4.3-3.1-7.1c-0.2-2.1-0.1-4.3,0.7-6.3c0.6-1.9,1.6-3.9,2.6-5.7c1.4-2.1,2.9-4.2,4.6-6
				c0.3-0.3,0.4-0.5,0.4-0.8c-0.2-2.7-0.4-5.5-0.6-8.2c0-0.7-0.1-1.6-0.2-2.3c-0.2-1.5-0.3-3-0.6-4.5c-0.5-2.2-0.9-4.5-1.8-6.5
				c-0.5-1-0.9-2-1.8-2.7c-0.1-0.1-0.2-0.3-0.3-0.4c-0.9-1.7-2.3-1.7-3.7-1.2c-1.7,0.5-2.8,1.6-3.8,3.1c-1.3,1.9-2.3,4-3.1,6.2
				c-0.9,2.6-1.7,5.3-2.1,8.1c-0.5,2.2-0.9,4.6-1.2,6.8c-0.5,3.4-0.7,6.8-0.8,10.2c0,1.1-0.2,2.3-0.1,3.4c0.2,3.1,0.4,6.1,0.6,9.2
				c0.1,1,0.2,2,0.3,3c0.1,0.8,0.3,1.7,0.5,2.4c0.7,0.2,1.2,0.2,1.8,0.5c0.9,0.4,1.4,1.6,1.2,2.8c-0.2,1.1-1.1,1.9-2.1,1.9
				c-1,0.1-2,0.4-3.1,0.4c-1.9,0.1-3.7,0.1-5.6,0.2c-1.8,0.1-3.5,0.1-5.3,0.3c-1.5,0.2-2.2-0.7-2.4-1.9c0-0.2,0-0.5-0.1-0.7
				c-0.1-1.2,0.4-2,1.5-2.5c0.3-0.1,0.6-0.2,0.9-0.4c-0.2-0.6-0.4-1.3-0.6-1.9c-0.5-1.7-0.9-3.3-1.4-5.1c-0.5-1.9-1-3.8-1.5-5.8
				c-0.6-2.3-1.1-4.7-1.6-7.2c-0.5-2.2-0.7-4.5-1-6.7c-0.6-3.9-0.8-7.8-1.1-11.6c-0.2-4.2-0.2-8.3-0.1-12.4c0-1.9,0.2-3.6,0.3-5.4
				c0.1-0.6,0.1-1.1,0.2-1.8c0.1-0.7,0.2-1.5,0.3-2.2c-0.6-0.1-1,0.1-1.5-0.1C38.4,253.7,38,253.4,37.7,253z M44.1,267.6
				c0.1,3.3,0.3,6.5,0.6,9c0,0.3,0.1,0.7,0.1,0.9s0.1,0.5,0.1,0.7c0.1,0.6,0.2,0.9,0.2,1.3c0.1,0.7,0.2,1.1,0.2,1.1l5.5-0.9
				c0,0-0.1-0.4-0.2-1c-0.1-0.4-0.1-0.7-0.2-1.2c0-0.2-0.1-0.5-0.1-0.7c0-0.3-0.1-0.6-0.1-0.8c-0.3-2.2-0.5-5.3-0.5-8.5
				c-0.1-3.2-0.1-6.3,0-8.7c0-2.3,0-4.1,0-4.1h-5.5c0,0-0.1,1.7-0.1,4.1C44.1,261.1,44.1,264.5,44.1,267.6z M50.7,282l-5.3,1.4
				l0.6,2.7l5.4-1L50.7,282z M51.6,287l-5.4,0.6l0.7,1.4l5.4-0.6L51.6,287z M79.9,295.1c-0.5,1-1,2-1.4,3c-0.5,1.2-0.8,2.5-1.2,3.7
				c-0.5,1.6-0.7,3.3-0.7,4.8c0.1,0.9,0.3,1.8,0.7,2.6c0.3,0.5,0.7,0.7,1.2,0.5c0.7-0.3,1.3-0.8,1.5-1.6c0.2-0.6,0.3-1.3,0.4-1.9
				c0.1-0.8,0.1-1.8,0.3-2.7c0.3-2.8,0.1-5.5-0.1-8.3c0-0.2-0.1-0.4-0.2-0.5c0-0.1-0.1-0.1-0.2-0.1C80.2,294.7,80,294.9,79.9,295.1z
				"/>
			<path class="st0" d="M145.9,297.8c-0.1,0.7-0.1,1.6-0.1,2.4c0,0.3,0,0.6,0.1,0.8c0.1,2,0.1,3.8,0.3,5.8c0.1,1.7,0.3,3.3,0.4,5.1
				c0.2,1.7,0.3,3.4,0.5,5.2c0,0.3,0.1,0.7,0.2,1.1c0.1,0.2,0.3,0.2,0.4,0.2c1.4,0.3,1.9,1.9,1.1,3.3c-0.3,0.6-0.8,0.7-1.4,0.8h-1.7
				l-4.7-0.3c-0.6,0-1-0.2-1.6-0.2c-1.6-0.1-3.1-0.2-4.6-0.3c-0.7,0-1-0.3-1.3-0.9c-0.2-0.7-0.1-1.4-0.1-2c0.1-0.6,0.5-1,0.9-1.4
				c0.4-0.3,0.9-0.5,1.5-0.6c-0.1-0.1-0.1-0.2-0.1-0.2c-0.1-0.1-0.1-0.2-0.1-0.3c-0.1-0.7-0.9-7.6-1.4-11.1v-0.2
				c-0.1-1-0.2-1.7-0.2-1.7c0-0.1,0-0.2-0.1-0.2c0-0.1,0-0.1-0.1-0.2c-0.4,0.9-0.7,1.7-1,2.5c-1,2.1-2.1,4.3-3.3,6.3
				c-0.7,1.3-1.5,2.5-2.4,3.7c-0.9,1.3-2.1,2.5-3.5,3.3c-0.8,0.5-1.7,0.8-2.6,1c-0.7,0.2-1.5,0.2-2.2,0.1c-1.3,0-2.6-0.5-3.8-1.1
				c-1.5-0.9-2.6-2.1-3.4-3.7c-0.7-1.1-1.1-2.3-1.5-3.6c-0.5-1.9-0.7-3.8-0.7-5.8c0-1,0-2,0.1-3.1c0.2-1.7,0.6-3.3,1-4.8
				c1.1-3.3,2.8-6.4,5.2-9c1.9-2,4-3.5,6.4-4.6c1.3-0.6,2.7-1,4.1-1.2c1.1-0.2,2.3-0.1,3.4,0c1,0.2,2,0.4,2.9,0.8
				c0.6,0.3,1.1,0.6,1.7,1c0.4,0.2,0.7,0.4,1.1,0.6c0.4-0.6,0.3-1.1,0.6-1.7c-0.6-0.1-1.1-0.3-1.5-0.6c-0.5-0.3-0.8-0.7-0.9-1.2
				c0-0.6-0.1-1.1,0.1-1.8c0.3-0.6,0.7-0.8,1.3-0.8c1.5-0.1,3-0.2,4.6-0.3c0.6,0,1-0.1,1.6-0.1l4.7-0.3h1.7c0.6,0.1,1.1,0.3,1.4,0.7
				c0.7,1.2,0.3,2.6-1.1,2.9c-0.1,0-0.3,0-0.4,0.1c-0.1,0.4-0.2,0.7-0.2,1c-0.2,1.6-0.3,3.1-0.5,4.6c-0.1,1.6-0.3,3.1-0.4,4.6
				C146,294.5,146,296.1,145.9,297.8z M132.7,291.8c-0.6-0.6-1.2-1.1-2-1.5c-1.2-0.6-2.4-0.7-3.7-0.4c-1.2,0.4-2.2,1.1-3.2,1.9
				c-1.3,1.3-2.4,2.7-3.3,4.3c-0.7,1-1.1,2.2-1.7,3.3c-0.5,1.1-0.8,2.2-1.2,3.3c-0.4,1.3-0.6,2.7-0.7,4.1c0,0.4,0.1,0.8,0.1,1.2
				c0.2,1.4,0.6,2.7,1.5,3.7c0.4,0.5,0.7,0.8,1.1,1.1c0.7,0.4,1.3,0.4,1.9,0.2c1.3-0.4,2.4-1.1,3.3-2.1c0.7-0.7,1.2-1.5,1.8-2.2
				c0.7-0.7,1.2-1.6,1.6-2.4c0.7-1.4,1.3-2.8,1.9-4.2c0.9-2.3,1.7-4.7,2.3-7.2l0.6-2.2C133.1,292.4,133.1,292,132.7,291.8z
				 M143.7,284.1c-1.8,0-3.4,0.1-5.1,0.1c0,0.1,0,0.2,0,0.3c-0.1,0.5-0.2,1-0.3,1.7c0,0.4-0.1,0.7-0.1,1.1c-0.1,0.4-0.1,0.7-0.2,1.2
				c-0.2,1.6-0.3,3.5-0.4,5.7c-0.1,2,0,4.4,0.1,6.6c0.2,2.2,0.6,4.5,0.9,6.6c0,0.1,0.1,0.2,0.1,0.4c1.3-0.1,2.6-0.2,3.9-0.4
				c-0.4-4.5-0.3-8.9,0-13.5c0.1-1.8,0.2-3.4,0.4-4.9c0-0.4,0.1-0.7,0.1-1.1c0.1-0.4,0.1-0.7,0.2-1c0-0.7,0.1-1.2,0.2-1.7
				C143.7,284.6,143.7,284.3,143.7,284.1z M139.8,311.2c1.1-0.1,2.2-0.2,3.3-0.3c-0.1-0.7-0.2-1.4-0.3-2.1c-1.2,0.2-2.4,0.3-3.6,0.3
				C139.4,309.8,139.6,310.5,139.8,311.2z M143.2,313.3c0-0.4-0.1-0.8-0.2-1.2c-0.9,0.1-1.9,0.2-2.8,0.4c0.1,0.1,0.1,0.3,0.2,0.4
				c0.2,0.4,0.3,0.7,0.4,0.9C141.6,313.7,142.4,313.5,143.2,313.3z"/>
			<path class="st0" d="M189.9,307.3c-0.1,1.2-0.7,2-1.8,2.5c-0.4,0.2-0.9,0.2-1.3-0.1c-0.8-0.3-1.5-0.8-1.8-1.8
				c-0.2-0.7-0.7-1.4-1.3-1.8c-1.2-0.8-2.5-1.7-3.7-2.5c-1.3-0.8-2.6-1.6-3.9-2.3c-0.9-0.6-1.9-1-2.9-1.4c-1.9-0.9-3.6-1.9-5.4-2.9
				c-0.6-0.3-1-0.7-1.6-0.9c-0.2-0.1-0.4-0.1-0.6-0.2c-0.1,0.5-0.1,0.9,0,1.3c0.2,2,0.3,4,0.5,6c0.2,1.9,0.4,4,0.6,6
				c0,0.7,0.1,1.2,0.1,1.9c0.1,1,0.2,2,0.3,3.1c0.1,0.7,0.2,0.8,0.9,0.7c0.7-0.3,1.6-0.2,2.2,0.4c0.7,0.7,0.9,1.6,0.7,2.5
				c-0.2,0.9-0.9,1.4-1.8,1.7c-0.2,0-0.4,0.1-0.7,0.1c-1.9,0.1-3.6,0.3-5.5,0.4c-1.5,0.2-3.1,0.3-4.6,0.4c-1.6,0.1-3.2,0.2-4.7,0.3
				c-0.9,0-1.8-0.3-2.5-0.7c-0.4-0.3-0.6-0.5-0.6-0.9c0-0.6-0.1-1.1,0-1.7c0.2-0.6,0.7-0.9,1.3-1.1c0.5-0.1,0.9,0,1.4-0.1
				c0.5,0,0.6-0.1,0.6-0.6c-0.1-1.2-0.3-2.5-0.4-3.7c-0.1-0.7-0.1-1.2-0.2-1.9c-0.1-1.9-0.3-3.6-0.5-5.5c-0.1-1.6-0.2-3.3-0.3-4.8
				c-0.2-2.4-0.4-4.9-0.5-7.4c-0.1-2-0.2-4.2-0.2-6.2c-0.1-2.2-0.1-4.5-0.1-6.7c0-2.5,0.1-5,0.2-7.6c0-1.4,0.2-2.8,0.2-4.2
				c0.1-1.2,0.1-2.5,0.1-3.8c0.1-1,0.2-2,0.3-3c0-0.1,0-0.3,0-0.5c-0.3,0.1-0.5,0.2-0.7,0.4c-3.3,2.3-6.9,4.5-10.5,6.3
				c-3.3,1.8-6.7,3.3-10.1,4.5c-1.6,0.6-3.2,0.9-4.8,1.4c-1.7,0.5-3.4,0.7-5.3,0.8c-1.8,0.2-3.5,0.2-5.3-0.1
				c-1.1-0.2-2.2-0.3-3.3-0.6c-2.9-0.7-5.6-1.8-7.9-3.7c-2.2-1.9-3.8-4.2-4.6-7c-0.5-2-0.6-3.9-0.2-5.9c0.9-3.8,3.1-6.8,6.5-8.6
				c1.8-1,3.7-1.2,5.7-0.9c1,0.2,2,0.5,3.1,0.8c2.3,1.1,4.4,2.6,5.9,4.6c0.8,1,1.6,2.1,2.2,3.3c0.6-0.2,1.1-0.5,1.6-0.7
				c0.3-0.1,0.6-0.2,0.8-0.3c0.6-0.2,0.9,0,1.3,0.4c0.6,0.7,0.8,1.6,1.1,2.5c0,0.1,0.1,0.2,0.1,0.3c0.2,0.7,0.1,1-0.6,1.3
				c-0.7,0.4-1.6,0.7-2.4,1.1c-1.2,0.7-2.4,1.2-3.6,1.9c-0.8,0.4-1.8,0.7-2.7,1.2c-0.5,0.2-0.9,0.4-1.4,0.7
				c-0.6,0.4-1.2,0.3-1.6-0.4c-0.7-0.9-1.2-2-1.8-3.1c-0.3-0.6-0.2-0.8,0.5-1c1-0.2,1.8-0.8,2.6-1.5c0.2-0.2,0.2-0.4,0.1-0.7
				c-0.2-0.4-0.5-0.8-0.7-1.3c-0.8-1.3-1.8-2.5-3.1-3.3c-0.7-0.5-1.4-0.7-2.1-0.8c-0.7-0.1-1.4,0.1-2,0.4c-2,0.9-3.3,2.6-3.9,4.7
				c-0.8,3.2,0.1,5.8,2.5,7.9c1.5,1.3,3.3,2.1,5.1,2.6c1,0.2,2,0.5,3.1,0.6c0.8,0.1,1.8,0.1,2.6,0.1c1.8-0.1,3.4-0.3,5.1-0.6
				c3-0.6,5.9-1.5,8.6-2.8c1.2-0.6,2.3-1,3.4-1.5c1.7-0.6,3.2-1.6,4.6-2.5c3.3-2.2,6.8-4.4,10-6.6c1.6-1,3.3-1.7,5-2.2
				c1.4-0.5,2.9-0.7,4.3-0.8c0.5-0.1,1,0,1.5,0.2c0.7,0.2,1.3,0.5,1.9,0.7c0.6,0.2,0.8,0.6,1,1.1c0.5,1.1,0.8,2.4,0.9,3.6
				c0.1,1.5,0.3,3,0.4,4.5c0,0.6-0.1,1.1-0.1,1.6c0,0.9,0,1.9,0,2.8c0,3.3,0,6.8-0.1,10.2c0,2,0,4.2,0,6.3c0,1.9-0.1,3.7-0.2,5.5
				c0,0.2,0,0.4,0,0.7c0.3-0.2,0.6-0.3,0.7-0.4c1.4-0.8,2.6-1.9,3.6-3.2c1.8-2,3.1-4.4,4.2-6.9c1-2.2,1.9-4.6,2.5-6.9
				c0.4-1.2,0.6-2.5,0.8-3.8c0.2-0.7,0.4-1.6,0.5-2.4c0.2-0.8,0.2-1.6,0.3-2.4c0.1-0.9,0.2-1.8,0.2-2.7c0-1.2,1.5-2.1,2.7-2
				c1,0.2,1.8,0.7,2,1.6c0.1,0.3,0.1,0.5,0.1,0.7c-0.1,1.5-0.2,3-0.3,4.5c-0.1,1.2-0.3,2.3-0.5,3.5c-0.3,1.2-0.6,2.5-0.9,3.7
				c-0.3,1.2-0.6,2.3-0.9,3.4c-1.3,4.4-3.2,8.4-6,12c-0.8,1.1-1.9,2.1-3,3.2c-0.2,0.1-0.4,0.3-0.6,0.6c0.6,0.4,1.3,0.6,1.9,0.9
				c1.7,0.7,3.3,1.6,4.6,2.6c0.7,0.6,1.5,1.2,2.3,1.8c1.4,0.9,2.7,1.9,4,3c0.3,0.3,0.7,0.6,1,0.9c0.3-0.4,0.7-0.7,1.1-1
				c0.3-0.3,0.6-0.5,0.8-0.7c0.7-0.6,1.5-0.6,2.3-0.3c0.6,0.3,0.8,0.7,0.8,1.4C190,302.2,190.1,304.8,189.9,307.3z M162.8,261.4
				c0-0.9,0-1.7,0-2.3c0-0.5,0-0.9,0-1.2c-0.3,0-0.6,0-0.9,0c-0.4,0-0.7,0-1,0.1c-2.1,0.3-3.9,1.1-4.9,1.8c0,0.5,0,1,0,1.7
				c0,0.8,0,1.8,0,2.9c-0.1,4.2-0.4,9.9-0.5,15.7c-0.1,3-0.1,5.9-0.1,8.6c0.1,1.4,0.1,2.8,0.2,4c0,0.1,0,0.1,0,0.2
				c2.2-0.7,4.6-1.2,6.9-1.8c-0.1-0.8-0.1-1.7-0.1-2.6c-0.1-2.6-0.1-5.4,0-8.3c0.2-5.7,0.4-11.4,0.5-15.8
				C162.8,263.2,162.8,262.2,162.8,261.4z M162.7,298.4c-2.2,0.9-4.6,1.7-6.9,2c-0.1,0.2-0.1,0.4-0.1,0.6c-0.1,1.1-0.1,1.8-0.1,1.8
				h0.1c1.6-0.5,3.3-0.9,4.9-1.4c0.7-0.1,1.3-0.3,2-0.5c0-0.6,0-1.2,0-1.9C162.7,298.7,162.7,298.6,162.7,298.4z M155.7,296
				c0,0.7,0.1,1.4,0.1,2c2.3-0.3,4.6-1.1,6.8-2c0-0.1,0-0.2,0-0.3c0-0.8-0.1-1.7-0.1-2.5c-2.3,0.7-4.6,1.1-6.8,1.8
				C155.7,295.4,155.7,295.8,155.7,296z"/>
			<path class="st0" d="M212.4,327.5c-2.7-0.2-5.2-1-7.5-2.6c-2.4-1.7-4.4-3.9-5.9-6.4c-1.2-1.9-2.2-4.2-3.1-6.4
				c-0.6-1.5-1-3-1.4-4.6c-0.4-1.3-0.7-2.8-0.7-4.2c-0.2-1-0.2-2-0.3-3.1c-0.2-1.5-0.1-3.1,0-4.6c0.1-1,0.3-2,0.5-3.1
				c0.1-0.7,0.2-1.6,0.4-2.3c0.4-1.5,0.7-2.9,1.3-4.4c0.5-1.4,1-2.8,1.7-4.1c1.4-2.6,3-5,5.1-7c1.3-1.3,2.8-2.3,4.5-3.1
				c0.5-0.3,0.9-0.7,1.5-0.8c1-0.6,2.1-0.9,3.3-1.1c1.3-0.3,2.5-0.3,3.7-0.1c2,0.3,3.9,1,5.5,2.2c2.3,1.6,4.2,3.6,5.8,5.9
				c1,1.3,1.9,2.6,2.6,4.1c0.4,0.7,0.7,1.5,0.9,2.3c0.4,0.9,0.7,1.9,0.9,2.9c0.3,1.1,0.6,2.2,0.6,3.4c-0.1,1.7-1.2,3.3-2.7,3.9
				c-0.9,0.3-1.8,0.6-2.7,0.8c-1.1,0.3-2.2,0.6-3.4,0.9c-0.8,0.3-1.7,0.5-2.6,0.7c-1.4,0.4-2.9,0.8-4.3,1.2
				c-0.8,0.2-1.6,0.5-2.4,0.7c-1.4,0.4-2.9,0.8-4.3,1.2c-1.2,0.4-2.4,0.6-3.7,1c0,0.3,0,0.5,0,0.7c0.1,0.6,0.2,1.1,0.3,1.7
				c0.2,1.2,0.4,2.4,0.6,3.6c0.6,2.3,1.3,4.7,2.4,6.9c0.7,1.4,1.7,2.7,3,3.7c0.6,0.4,1.1,0.6,1.8,0.9c0.2,0.1,0.4,0.2,0.6,0.3
				c1.1,0.5,2,0.2,3.1-0.4c1.2-0.6,2-1.7,2.7-3c0.7-1.5,1.2-3.1,1.5-4.6c0.2-0.9,0.1-1.8,0.2-2.6c-0.6-0.2-0.9-0.3-1.4-0.5
				c-0.5-0.3-0.7-0.7-0.7-1.3c0-0.6,0.2-1,0.8-1.1c0.3-0.1,0.7-0.2,1-0.2c1.9,0.1,3.8,0.1,5.8,0.2c1.3,0.1,2.7,0.1,4.1,0.3
				c0.9,0.1,1.5,0.6,1.8,1.4c0.3,0.8-0.3,1.5-1,1.6c-0.6,0.1-1.1,0.1-1.7,0.1c-0.7,0-1.3,0-2,0c-0.1,0.6-0.1,1.3-0.3,2
				c-0.2,1-0.4,1.9-0.7,3c-0.3,0.9-0.6,1.8-0.8,2.7c-1.1,2.8-2.6,5.3-4.7,7.4c-1.4,1.4-3,2.4-4.7,3.2
				C215.5,327.4,214,327.6,212.4,327.5z M206.8,279.2c1.2-1.8,2.8-3.2,4.4-4c-1.7,0-3.3,0.3-4.9,0.7c-0.5,0.1-0.8,0.3-1.2,0.4
				c-0.5,0.3-0.8,0.5-1.3,0.7c-1.5,1.1-2.7,2.4-3.7,3.9c-0.3,0.7-0.6,1.5-0.8,2.2c-0.8,2.3-1.4,4.6-1.7,6.4
				c-0.3,1.9-0.5,3.5-0.5,4.7c0,0.6,0,1,0,1.3s0,0.5,0,0.5l5-0.1c0,0,0-0.1,0-0.4c-0.1-0.3,0-0.7,0-1.1c0-1,0.1-2.4,0.4-4.1
				c0.3-1.7,0.7-3.6,1.5-5.6C204.6,282.9,205.6,280.9,206.8,279.2z M202.1,297.8h-4.9v2.4h4.9V297.8z M202.1,301.4h-4.9v1.2h4.9
				V301.4z M210.4,281.1c-0.7,0.4-1,0.9-1.4,1.6c-0.4,0.6-0.7,1.2-0.9,1.9c-0.7,1.3-1.2,2.7-1.5,4.1c-0.2,0.9-0.4,1.8-0.6,2.7
				c0,0.3,0,0.6-0.1,1c0.2-0.1,0.3-0.1,0.4-0.1c1.3-0.4,2.6-0.7,3.8-1.1c1.9-0.6,3.9-1.1,5.8-1.7c1.4-0.4,2.7-0.7,4-1.1
				c0.9-0.3,1.8-0.6,2.8-0.8c-0.4-0.7-0.6-1.5-1.1-2.1c-0.8-1.5-1.9-2.8-3.3-3.8c-1.1-0.8-2.3-1.4-3.8-1.5
				C213,280.1,211.6,280.3,210.4,281.1z"/>
			<path class="st0" d="M280.7,247.8c0,3.3,0,6.5,0,9.8c0,1.2-0.6,1.9-1.9,1.9c-1.3,0-1.9-0.7-2-1.9c0-1.7,0.2-1.5-1.4-1.5
				c-1.8,0-3.5,0.1-5.2,0.1c-0.6,0-0.9,0.2-0.9,0.8c-0.4,4.9-0.8,9.8-1,14.7c-0.3,5.2-0.4,10.5-0.4,15.7c0,3.7,0.3,7.4,0.6,11.1
				c0.3,4.9,0.7,9.8,1.1,14.7c0,0.6-0.1,1.3-0.2,2c0.5,0,0.8,0,1.1-0.1c1.7-0.1,2.8,0.8,2.9,2.3c0.2,1.7-0.7,2.9-2.3,3.1
				c-1.8,0.2-3.6,0.4-5.4,0.5c-3.7,0.2-7.3,0.4-11,0.5c-0.5,0.1-0.9,0-1.4-0.1c-1.7-0.5-2.2-1.3-2-3c0.2-1.2,0.8-1.9,2-1.9
				c0.2,0,0.4,0,0.6,0c-0.1-1.2-0.2-2.4-0.4-3.6c-1-5.1-1.2-10.2-1.3-15.4c-0.2-7.2-0.2-14.4-0.2-21.6c-0.1-3.3-0.2-6.6-0.1-9.8
				c0.1-3.3,0.4-6.7,0.7-9.9c0-0.6-0.3-0.8-0.8-0.8c-4-0.2-8,0.3-11.9,0.8c-7.3,1.1-14.6,1.3-21.6-1c-5.3-1.7-9.8-4.5-12.9-9.1
				c-4.2-6.2-2.8-14.5,3.3-18.8c2.8-2,6-3,9.6-2c2.8,0.7,4.7,2.5,6.5,4.6c2,2.3,3,5,3.5,7.9c0,0.3,0.1,0.5,0.2,0.7
				c0.7,0,1.6,0,2.3,0c1.1,0,1.5,0.3,1.6,1.4c0.1,0.8,0.2,1.7,0.2,2.5c0.1,0.9-0.1,1.1-1,1.3c-1.9,0.2-3.8,0.5-5.7,0.6
				c-1.9,0.3-3.8,0.5-5.7,0.7c-1.1,0.2-1.6-0.1-1.9-1.2c-0.2-0.9-0.5-2-0.6-2.9c-0.2-1,0-1.2,1-1.4c0.8-0.2,1.6-0.4,2.4-0.6
				c0.6-0.1,0.7-0.4,0.6-0.9c-0.3-1.9-0.7-3.6-1.9-5.2c-1.6-2.1-3.7-2.8-6.1-1.7c-4.7,2-6.3,7.4-3.5,11.7c2.5,3.7,6.1,5.8,10.3,6.9
				c5,1.4,10.1,1.7,15.2,0.9c10.5-1.6,21-2.4,31.6-2.3c3.2,0.1,6.2,0.3,9.3,0.5c0.1-0.6,0.2-1.3,0.4-1.9c0.2-0.7,0.3-1.3,1.2-1.3
				c1.3-0.1,2.1,0.4,2.4,1.3C280.6,247.1,280.7,247.5,280.7,247.8z M264.2,256.2l-7.4-0.1l-0.4,39.5h7.5L264.2,256.2z M263.9,297.2
				h-7.5v3.1l7.4,0.1L263.9,297.2z M263.8,303.5l-7.4-0.1v1.6l7.4,0.1V303.5z"/>
			<path class="st0" d="M274.8,263.5c-0.1-0.6-0.1-1.3,0-1.9c0.2-0.7,0.8-1.2,1.6-1.3c2.1-0.1,4.4-0.3,6.5-0.5
				c1.4-0.2,2.8-0.3,4.3-0.5c0.1,0,0.2,0,0.3,0c0.8,0,1.8,0,2.6,0c0.7,0,1.5,0.3,1.8,1c0.4,0.8,0.4,1.6-0.1,2.3
				c-0.4,0.5-0.9,0.7-1.5,0.8c-0.2,0-0.4,0-0.7,0c-0.1,0.3-0.1,0.6-0.1,0.8c-0.2,1.4-0.4,2.7-0.6,4.1c-0.1,1.4-0.3,2.7-0.5,4.1
				c-0.1,1.2-0.2,2.5-0.3,3.7c-0.2,2.8-0.2,5.7-0.2,8.5c0,1.9-0.1,3.7-0.2,5.5c0,1.7-0.1,3.3-0.2,4.9c0,0.2,0,0.5,0.2,0.7
				c0-0.2,0.1-0.3,0.2-0.5c0.7-2.4,1.8-4.6,3.3-6.7c0.9-1.3,2-2.4,3.3-3.3c0.9-0.7,1.8-1.3,2.9-1.9c1.1-0.5,2.3-0.8,3.5-0.9
				c1.2,0,2.4,0,3.5,0.4c1.8,0.5,3.3,1.5,4.6,2.8c1.5,1.4,2.4,3.2,3.1,5.1c0.6,1.7,0.9,3.3,1.2,5.1c0.6,3.7,0.6,7.5,0.5,11.3
				c-0.1,2.1-0.2,4.2-0.4,6.3c-0.1,2.1-0.3,4.2-0.5,6.2c-0.1,1.3-0.1,2.6-0.2,4c0.3,0.1,0.6,0.2,0.7,0.3c0.7,0.2,1.5,0.3,2.1,0.5
				c0.7,0.2,0.9,0.6,0.9,1.2c0,1.2-0.3,2.3-0.8,3.4c-0.1,0.3-0.4,0.6-0.8,0.5c-0.4-0.1-0.7-0.2-1-0.2c-0.9-0.2-1.9-0.4-2.8-0.6
				c-1.5-0.3-3-0.6-4.5-0.9c-1-0.2-2-0.4-3.1-0.6c-0.6-0.2-1.4-0.3-2-0.5c-0.8-0.2-1.4-0.7-1.4-1.8c0-0.9,0.2-1.8,0.4-2.7
				c0.3-0.9,1.2-1.4,2-1.1c0.3,0.1,0.7,0.1,1.1,0.2c0-0.3,0.1-0.6,0.1-0.8c0.2-3.2,0.4-6.3,0.7-9.6c0.1-2,0.2-4.1,0.1-6.2
				c0-2-0.2-4.1-0.4-6.1c-0.2-1.4-0.4-2.8-0.9-4.1c-0.3-0.6-0.6-1.1-0.9-1.6c-0.7-1.1-1.9-1.4-3.1-1.4c-1.2,0.1-2.2,0.7-3.2,1.4
				c-1.5,1-2.6,2.5-3.6,4.1c-1.3,2.2-2.4,4.6-3.2,7.1c-0.4,1.4-0.7,2.8-0.8,4.2c-0.1,1.1-0.1,2.2-0.1,3.3c0,1.4,0.2,2.7,0.5,4
				c0.2,1.2,0.6,2.4,0.8,3.5c0.3,1.1,0.7,2.2,0.9,3.3c0.3,0.7,0.5,1.5,1.1,1.9c0.1,0.1,0.4,0.2,0.6,0.3c0.3,0,0.7,0,0.9,0.1
				c1.4,0,2,0.9,1.9,2.2c0,1.1-0.8,1.8-1.9,1.9c-1.4,0.2-2.9,0.3-4.3,0.5c-2.2,0.2-4.4,0.4-6.6,0.5c-1.1,0.1-2.2,0.1-3.3,0.1
				c-0.7,0-1.1-0.4-1.7-0.7c-0.1-0.2-0.3-0.4-0.3-0.6c-0.3-0.8-0.2-2,0.7-2.5c0.2-0.2,0.4-0.2,0.6-0.2c0.6,0.1,1,0.2,1.8,0.2
				c-0.1-0.4-0.1-0.6-0.2-0.8c-0.4-1.5-0.9-3.1-1.2-4.6c-0.4-1.6-0.7-3.2-0.9-4.7c-0.2-1.8-0.5-3.4-0.7-5.2
				c-0.2-2.1-0.5-4.3-0.6-6.5c-0.2-2.7-0.3-5.3-0.4-8c-0.1-1.5-0.1-2.9-0.2-4.4c-0.2-3.4-0.2-7-0.1-10.5c0-2.4,0.2-4.9,0.3-7.3
				c0.1-1.6,0.3-3.1,0.5-4.6c0.2-1.3,0.4-2.6,0.6-3.9c0-0.3,0-0.5,0-0.7c-0.6,0-1.3-0.3-1.9-0.6C275,264.2,274.9,263.9,274.8,263.5z
				 M278.9,295c1.7-0.4,3.3-0.9,5-1.5c0-0.4,0-0.8,0-1.2c0-0.4,0-0.7,0-0.9c-1.7,0.1-3.3,0.1-5,0.3c0,0.2,0,0.4,0,0.7
				c0,0.6,0,1.1,0,1.7C278.9,294.4,278.9,294.6,278.9,295z M279,289.3c1.6-0.1,3.3-0.1,4.9-0.3c0.1-1.3,0.1-2.6,0.1-3.9
				c0.2-4.9,0.3-9.8,0.6-13.5c0.3-3.7,0.4-6.2,0.4-6.2l-4.9-0.3c0,0-0.2,2.4-0.4,6.2c-0.3,3.7-0.5,8.6-0.6,13.7
				C279,286.4,279,287.9,279,289.3z M284.1,297.6c-0.1-0.6-0.1-1.1-0.1-1.7c-1.7,0.5-3.3,1.1-4.9,1.4c0,0.5,0,0.9,0,1.4
				c0,0.1,0,0.2,0,0.3C280.6,298.4,282.3,297.9,284.1,297.6z"/>
			<path class="st0" d="M336.9,327.5c-2.7-0.2-5.2-1-7.5-2.6c-2.4-1.7-4.4-3.9-5.9-6.4c-1.2-1.9-2.2-4.2-3.1-6.4
				c-0.6-1.5-1-3-1.4-4.6c-0.4-1.3-0.7-2.8-0.7-4.2c-0.2-1-0.2-2-0.3-3.1c-0.2-1.5-0.1-3.1,0-4.6c0.1-1,0.3-2,0.5-3.1
				c0.1-0.7,0.2-1.6,0.4-2.3c0.4-1.5,0.7-2.9,1.3-4.4c0.5-1.4,1-2.8,1.7-4.1c1.4-2.6,3-5,5.1-7c1.3-1.3,2.8-2.3,4.5-3.1
				c0.5-0.3,0.9-0.7,1.5-0.8c1-0.6,2.1-0.9,3.3-1.1c1.3-0.3,2.5-0.3,3.7-0.1c2,0.3,3.9,1,5.5,2.2c2.3,1.6,4.2,3.6,5.8,5.9
				c1,1.3,1.9,2.6,2.6,4.1c0.4,0.7,0.7,1.5,0.9,2.3c0.4,0.9,0.7,1.9,0.9,2.9c0.3,1.1,0.6,2.2,0.6,3.4c-0.1,1.7-1.2,3.3-2.7,3.9
				c-0.9,0.3-1.8,0.6-2.7,0.8c-1.1,0.3-2.2,0.6-3.4,0.9c-0.8,0.3-1.7,0.5-2.6,0.7c-1.4,0.4-2.9,0.8-4.3,1.2
				c-0.8,0.2-1.6,0.5-2.4,0.7c-1.4,0.4-2.9,0.8-4.3,1.2c-1.2,0.4-2.4,0.6-3.7,1c0,0.3,0,0.5,0,0.7c0.1,0.6,0.2,1.1,0.3,1.7
				c0.2,1.2,0.4,2.4,0.6,3.6c0.6,2.3,1.3,4.7,2.4,6.9c0.7,1.4,1.7,2.7,3,3.7c0.6,0.4,1.1,0.6,1.8,0.9c0.2,0.1,0.4,0.2,0.6,0.3
				c1.1,0.5,2,0.2,3.1-0.4c1.2-0.6,2-1.7,2.7-3c0.7-1.5,1.2-3.1,1.5-4.6c0.2-0.9,0.1-1.8,0.2-2.6c-0.6-0.2-0.9-0.3-1.4-0.5
				c-0.5-0.3-0.7-0.7-0.7-1.3c0-0.6,0.2-1,0.8-1.1c0.3-0.1,0.7-0.2,1-0.2c1.9,0.1,3.8,0.1,5.8,0.2c1.3,0.1,2.7,0.1,4.1,0.3
				c0.9,0.1,1.5,0.6,1.8,1.4c0.3,0.8-0.3,1.5-1,1.6c-0.6,0.1-1.1,0.1-1.7,0.1c-0.7,0-1.3,0-2,0c-0.1,0.6-0.1,1.3-0.3,2
				c-0.2,1-0.4,1.9-0.7,3c-0.3,0.9-0.6,1.8-0.8,2.7c-1.1,2.8-2.6,5.3-4.7,7.4c-1.4,1.4-3,2.4-4.7,3.2
				C340,327.4,338.5,327.6,336.9,327.5z M331.3,279.2c1.2-1.8,2.8-3.2,4.4-4c-1.7,0-3.3,0.3-4.9,0.7c-0.5,0.1-0.8,0.3-1.2,0.4
				c-0.5,0.3-0.8,0.5-1.3,0.7c-1.5,1.1-2.7,2.4-3.7,3.9c-0.3,0.7-0.6,1.5-0.8,2.2c-0.8,2.3-1.4,4.6-1.7,6.4
				c-0.3,1.9-0.5,3.5-0.5,4.7c0,0.6,0,1,0,1.3s0,0.5,0,0.5l5-0.1c0,0,0-0.1,0-0.4c-0.1-0.3,0-0.7,0-1.1c0-1,0.1-2.4,0.4-4.1
				s0.7-3.6,1.5-5.6C329.1,282.9,330.1,280.9,331.3,279.2z M326.6,297.8h-4.9v2.4h4.9V297.8z M326.6,301.4h-4.9v1.2h4.9V301.4z
				 M334.9,281.1c-0.7,0.4-1,0.9-1.4,1.6c-0.4,0.6-0.7,1.2-0.9,1.9c-0.7,1.3-1.2,2.7-1.5,4.1c-0.2,0.9-0.4,1.8-0.6,2.7
				c0,0.3,0,0.6-0.1,1c0.2-0.1,0.3-0.1,0.4-0.1c1.3-0.4,2.6-0.7,3.8-1.1c1.9-0.6,3.9-1.1,5.8-1.7c1.4-0.4,2.7-0.7,4-1.1
				c0.9-0.3,1.8-0.6,2.8-0.8c-0.4-0.7-0.6-1.5-1.1-2.1c-0.8-1.5-1.9-2.8-3.3-3.8c-1.1-0.8-2.3-1.4-3.8-1.5
				C337.5,280.1,336.1,280.3,334.9,281.1z"/>
		</g>
	</g>
	<g>
		<g>
			<path class="st0" d="M82.7,413.7c-1.4-1.1-2.6-2.5-3.3-4.1c-1-2.2-1.5-4.4-1.5-6.8c0-3.1,0.6-6.3,1.8-9.5
				c0.3-0.8,0.8-1.2,1.7-1.2c0.8,0,1.3,0.3,1.6,0.9c0.2,0.3,0.3,0.6,0.3,0.9c0,0.2,0,0.4-0.1,0.7c-1.1,3-1.6,5.7-1.6,8.2
				c0,1.9,0.4,3.6,1.2,5.3c0.4,0.8,1,1.2,1.9,1.2c2.5,0,6.2-4,11.1-12.1c5.9-9.6,8.8-19.2,8.8-28.6c0-4.5-1.1-7.9-3.2-10.2
				c-1.6-1.7-3.6-2.7-6-2.9c-1.4,0-2.9,0.1-4.5,0.4c-1.9,1.7-3.9,3.1-6.2,4.3c-2.2,1.1-4.3,1.7-6,1.7c-0.5,0-0.9,0-1.3-0.2
				c-1.1,8.4-1.7,17.2-1.9,26.5c-0.1,4.6-0.1,9.8-0.1,15.6c0,0.5-0.2,0.9-0.5,1.3c-0.4,0.4-0.8,0.7-1.3,1c-1.3,0.8-2.4,1.3-3.2,1.3
				s-1.3,0-1.3,0c-1.5,0-2.4-0.7-2.7-2c-2.5-11.1-3.9-20.9-4.3-29.5c-0.4-9.9-0.7-16.8-0.7-21c-2.9,4.8-6.3,8.2-10.2,10.2
				c-1.9,1-3.9,1.5-6.1,1.5c-5.1,0-8.9-2.1-11.2-6.2c-1.7-2.8-2.5-6-2.5-9.8c0-4.4,1.1-8.4,3.3-12c2.8-4.6,6.6-6.9,11.4-6.9
				c2.4,0,4.4,0.8,6.1,2.2c1.7,1.5,2.5,3.6,2.5,6.4c0,3.2-1.2,6.2-3.5,9c-2.4,2.7-5,4.1-7.8,4.1c-0.7,0-1.3-0.3-1.8-0.8
				c-0.5-0.5-0.8-1.1-0.8-1.8c0-0.7,0.2-1.3,0.6-1.7c0.4-0.4,0.9-0.6,1.4-0.6c0.4,0,0.9,0,1.3,0.1c0.4,0.1,0.8,0.2,1.1,0.2
				c1.1,0,2.4-0.9,3.8-2.6c1.4-1.7,2.1-3.7,2.1-5.8c0-3.3-1.5-4.9-4.5-4.9c-1.8,0-3.4,0.7-4.8,2c-1.4,1.3-2.5,3-3.3,5.1
				c-0.8,2.1-1.3,3.9-1.4,5.3c-0.1,1.5-0.2,2.5-0.2,3.1c0,4.4,1.1,7.7,3.3,9.9c1.3,1.3,3,2,5.1,2c2.9,0,5.9-1.5,8.9-4.4
				c4.1-3.9,6.5-8.7,7.3-14.2c0.4-2.6,0.7-5.5,1-8.9c0.5-5.4,1.9-8.1,4.1-8.1c1.5,0,2.2,1.3,2.2,3.9c0,4.3-0.4,7.7-1.3,10.4
				c-0.3,0.9-0.4,4.3-0.4,10c0,12.9,1.6,26.2,4.7,39.9c0.5-39.1,6.6-61.1,18.3-66c1.4-0.6,2.6-0.9,3.7-0.9c3.5,0,5.9,1.4,6.9,4.2
				c0.5,1.3,0.8,2.7,0.8,4.3c0,3.4-0.7,6.8-2.1,10.2c-1.3,3.1-2.9,6-4.7,8.4c0.7,0,1.4-0.1,2.1-0.1c5,0,9,1.6,12.1,4.8
				c3.2,3.4,4.8,8.5,4.8,15.1c0,2.3-0.2,4.6-0.6,7c-1.8,10.9-6,20.5-12.3,28.8c-4.1,5.3-8.4,8-13.1,8
				C85.7,415.3,84.1,414.8,82.7,413.7z M84,353.8c3.7-3,6.7-7,9-12.1c1.4-3.1,2.1-6.1,2.2-9c0-2.7-0.9-4-2.6-4
				c-1.5,0-3.1,0.8-4.9,2.5c-1.2,1.1-2.3,2.5-3.2,4.2c-3,5.2-5.1,12.1-6.6,20.8C79.3,355.5,81.3,354.7,84,353.8z"/>
			<path class="st0" d="M121.8,393c-2.8-2.5-4.2-6.4-4.2-11.8c0-5,1.3-9.7,4.1-14.1c1.7-2.8,4.1-4.7,7-5.7c0.9-0.3,1.9-0.4,2.8-0.4
				c2.1,0,3.9,0.6,5.3,1.9c1.4,1.3,2.1,2.7,2.1,4.4c0,1.1-0.2,2.2-0.6,3.3c-1.6,4.5-4.4,8-8.5,10.5c-0.3,0.2-0.6,0.3-0.9,0.3
				c-0.7,0-1.2-0.3-1.5-0.9c-0.1-0.3-0.2-0.6-0.2-0.9c0-0.7,0.3-1.2,0.9-1.5c3.4-2.2,5.6-5.1,6.9-8.6c0.3-0.8,0.4-1.4,0.4-2
				c0-0.7-0.2-1.3-0.6-1.8c-0.4-0.5-1-0.7-1.7-0.7c-0.8,0-1.5,0.3-2.1,0.8c-1.6,1.3-2.8,3.5-3.8,6.9c-0.8,3.1-1.3,6.1-1.3,9.2
				c0,5.9,1.5,8.8,4.5,8.8c2.4,0,4.9-1.7,7.6-5c2.7-3.6,5.7-8.8,9-15.7c0.3-0.7,0.9-1,1.6-1c0.3,0,0.5,0.1,0.8,0.2
				c0.6,0.3,0.9,0.9,0.9,1.6c0,0.7-1.5,3.7-4.4,9.1c-5.7,10.4-11.4,15.6-17.1,15.6C126,395.5,123.7,394.6,121.8,393z"/>
			<path class="st0" d="M145.8,403.2c-1.4-2.5-2.1-5.4-2.1-8.7c0-0.5,0.2-0.9,0.5-1.3c0.3-0.3,0.8-0.5,1.3-0.5c0.5,0,1.1,0,1.6,0.1
				s0.9,0.1,1.2,0.1c0.4,0,0.9,0,1.5-0.2c2.4-0.5,4.6-1.5,6.7-2.8c-0.3-2.4-0.9-4.8-2.1-7.1c-1-2.1-2.2-4.3-3.7-6.6
				c-1-1.6-2-3.1-2.9-4.7c-1.1-2-1.7-4-1.7-6.2c0-4.1,1.3-6.2,3.9-6.2c2.6,0,3.8,1.3,3.8,3.8c0,1.8-0.5,3.4-1.7,4.9
				c0.7,1.6,2.5,4.4,5.4,8.6c2.4,3.4,4.2,6.1,5.3,8.1c3.7-4.1,6.8-9,9.5-14.6c0.3-0.7,0.8-1,1.6-1c0.3,0,0.5,0,0.8,0.2
				c0.7,0.3,1,0.8,1,1.7c0,0.2,0,0.5-0.2,0.7c-3.1,6.5-6.8,12-11.1,16.6c0.8,1.9,1.2,3.8,1.2,5.6c0,2.4-0.5,4.7-1.5,6.9
				c-1,2.1-2.5,3.9-4.4,5.2c-1.9,1.3-4.2,2-6.7,2C149.8,407.7,147.4,406.2,145.8,403.2z M154.8,400.6c1.1-2.1,1.7-4.3,1.7-6.6
				c-2.8,1.6-5.9,2.5-9.2,2.7c0.3,2.2,0.9,3.9,1.7,5.1c0.6,0.9,1.4,1.3,2.3,1.3C152.8,403.2,153.9,402.4,154.8,400.6z"/>
			<path class="st0" d="M173.4,400.1c-0.3-0.9-0.6-1.9-0.8-2.8c-0.7-3-1.1-7.1-1.1-12.4c0-8.8,0.9-18.4,2.6-28.8
				c-1.3,0.2-2.4,0.3-3.4,0.3c-6.6,0-11.1-2.8-13.6-8.3c-0.8-1.6-1.1-3.3-1.1-5c0-2.6,0.8-4.7,2.2-6.3c1.7-1.8,3.8-2.7,6.2-2.7
				c3,0,5.3,1.2,6.9,3.5c1,1.4,1.5,2.9,1.5,4.4c0,1-0.2,2.1-0.7,3.2c-0.1,0.4-0.4,0.7-0.8,1.1c-0.5,0.5-1.1,0.7-1.8,0.7
				c-0.7,0-1.3-0.2-1.6-0.7c-0.4-0.4-0.5-0.9-0.5-1.5c0-0.5,0.3-1,0.8-1.6c0.5-0.6,0.8-1.3,0.8-2.2c0-0.4-0.2-0.9-0.6-1.5
				c-0.9-1.3-2.3-2-4-2c-1.4,0-2.6,0.5-3.5,1.6c-0.9,1.1-1.4,2.4-1.4,3.9c0,1.3,0.3,2.5,0.8,3.7c1.7,3.7,5.1,5.6,10.3,5.6
				c1.3,0,2.7-0.2,4.3-0.5c0.6-3.1,1.1-5.5,1.5-6.9c0.4-1.3,0.8-2.1,1.3-2.2c0.4-0.1,0.7-0.2,0.9-0.2c0.4,0,0.9,0.2,1.3,0.7
				c0.4,0.5,0.5,1.1,0.5,1.8c0,0.3,0,0.7-0.1,1c-0.2,0.9-0.4,2.4-0.5,4.5c2.3-0.8,4.9-1.8,7.7-3c7.1-3.2,12.2-4.8,15.5-4.8
				c3.8,0,6.7,1.5,8.7,4.6c0.2,0.3,0.3,0.6,0.3,1c0,0.6-0.3,1.1-0.8,1.4c-0.3,0.2-0.6,0.3-1,0.3c-0.6,0-1.1-0.3-1.4-0.8
				c-1.3-1.9-3-2.9-5.1-2.9c-2.8,0-7.8,1.7-15,5.1c-3.3,1.6-6.3,2.7-9.1,3.6c-0.4,6.4-0.6,12.9-0.6,19.5c0,15,1,22.4,3.1,22.4
				c1,0,3.3-4.3,6.9-12.9c3.5-8.3,5.6-12.9,6-14c0.3-0.7,0.9-1,1.6-1c0.2,0,0.5,0,0.8,0.2c0.7,0.4,1,0.9,1,1.7c0,0.3,0,0.5-0.2,0.9
				c-0.8,1.7-1.7,4-2.7,6.7c-2.6,7.1-5.1,12.8-7.3,17.1c-3.6,6.9-6.5,10.4-8.8,10.4C176.6,405.8,174.6,403.9,173.4,400.1z"/>
			<path class="st0" d="M252.4,409.6c-3.1-4.5-5.2-10.3-6.3-17.3c-0.6-4-0.9-7.4-1-10.3c-0.1-2.9-0.1-5.1-0.1-6.5
				c0-2.1,0-4.4,0.1-6.9c-1.4,0.2-3,0.4-4.7,0.7c-7.3,1.3-12.5,2.1-15.6,2.6c-2.5,9.6-3.8,17.1-3.8,22.6c0,4.6,0.7,7.4,2,8.2
				c0.5,0.4,0.8,0.9,0.8,1.7c0,1.1-0.6,1.7-1.7,1.7c-1,0-2-0.3-2.9-0.8c-2.6-1.6-3.8-4.9-3.8-9.9c0-6.1,1.3-13.8,3.8-23l-2.2,0
				c-2.4,0-4.5-0.7-6.1-2c-2.4-1.9-3.6-4.3-3.6-7.2c0-2,0.4-3.7,1.2-5.1c0.8-1.4,1.7-2.1,2.9-2.1c0.7,0,1.3,0.3,1.8,0.8
				s0.7,1.1,0.7,1.8c0,0.8-0.5,1.5-1.5,2.1c-1,0.6-1.5,1.4-1.5,2.6c0,1.1,0.3,2.1,0.9,3c1.2,1.7,2.9,2.6,5.2,2.6c0.9,0,2,0,3.2-0.1
				c3.6-12,7.7-22.4,12.3-31.5c4.1-8.1,7.9-12.1,11.3-12.1c2.2,0,3.8,0.7,4.7,2.2c0.7,1,1.2,2.1,1.5,3.2c0.9,3.1,1.6,6.3,1.9,9.5
				c0.2,1.7,0.4,4.9,0.5,9.5c1.1,26.6,2.8,43.7,5.1,51.3c2.3,7.7,4.9,11.5,7.8,11.5c0.9,0,1.9-0.3,3.1-1c1.2-0.7,2.1-1,2.8-1
				c1.2,0,1.7,0.5,1.7,1.4c0,1-0.8,2-2.3,2.9c-2,1.1-4.1,1.7-6.4,1.7C259.5,416.3,255.4,414.1,252.4,409.6z M234.6,366.6
				c4.3-0.8,7.9-1.3,10.6-1.7c0.1-3,0.4-6.3,0.6-9.8c0.3-4.6,0.4-8.3,0.4-11.1c0-4-0.3-7.4-0.9-10.2c-0.6-2.7-1.3-4.1-1.9-4.1
				c-0.4,0-0.9,0.5-1.7,1.5c-3.4,4.3-6.8,10.7-10,19.2c-2.3,6-4.3,11.9-6,17.8C228.4,367.8,231.3,367.3,234.6,366.6z"/>
			<path class="st0" d="M282.1,396.2c-1.1-1.9-1.6-4.7-1.6-8.2v-2.4c-2.3,6-5.1,9-8.3,9c-3.7,0-6.1-2-7.1-6
				c-0.4-1.7-0.6-3.5-0.6-5.6c0-4.3,0.6-9,1.9-14.1c1-4.1,2.4-6.1,4.1-6.1c1.5,0,2.2,1.2,2.2,3.5c0,1.9-0.4,3.3-1.2,4.3
				c-0.1,1.6-0.2,3.6-0.3,6.1c0,1.4,0,3,0.2,4.6c0.4,5.6,1.1,8.4,2.3,8.4c1.1,0,2.7-2.8,4.9-8.3c1-2.7,2.6-7.3,4.7-13.7
				c0.5-1.6,1.2-3.5,2-5.6c0.6-1.6,1.4-2.4,2.6-2.4c0.7,0,1.3,0.4,1.9,1.2c0.6,0.8,0.9,2,0.9,3.6c0,1.7-0.4,3.3-1.2,5
				c-0.4,0.8-0.7,1.4-0.9,1.7c-0.1,4.3-0.1,7.5-0.1,9.5c0,7.5,1.2,11.3,3.5,11.3c1.4,0,3.4-2.7,5.9-8.1c0.9-2.1,1.9-4.1,2.8-6.2
				c1.3-2.9,2.5-5.5,3.6-7.8c0.3-0.7,0.9-1,1.6-1c1.2,0,1.8,0.6,1.8,1.7c0,0.3,0,0.5-0.2,0.8c-1.9,4-3,6.3-3.3,7
				c-1,2.6-2.2,5.2-3.5,7.9c-4.3,9-8.6,13.5-12.7,13.5C285.3,399.8,283.5,398.6,282.1,396.2z"/>
			<path class="st0" d="M303.1,402.8c-0.8-2.3-1.3-5.2-1.3-8.9c0-4.3,0.3-8.8,0.8-13.6c0.8-6.8,1.5-11.9,2.4-15.1
				c1-4.1,2.4-6.1,4-6.1c1.4,0,2.1,1.2,2.1,3.5c0,1.9-0.4,3.3-1.2,4.3c-0.2,2.9-0.3,5.4-0.3,7.7c0,2.4,0.1,4.7,0.2,7.1
				c0.6-3.1,1.5-5.9,2.6-8.4c2.2-5,5.2-7.4,9-7.4c1.7,0,3,0.4,3.8,1.4c0.9,0.9,1.5,2.2,1.9,3.7c0.3,1.6,0.5,2.9,0.5,4
				c0,1.1,0,1.9,0,2.4c0,1.4,0,2.7-0.1,4.1c0,1.4-0.1,2.6-0.1,3.9c0,2.2,0.2,3.8,0.6,4.7c0.4,1,1,1.5,1.9,1.5c1.5,0,3.4-2.3,5.6-6.9
				l0.8-1.6c3.5-7.7,5.6-12,6-12.9c0.3-0.7,0.9-1,1.6-1c0.2,0,0.5,0,0.8,0.2c0.7,0.3,1,0.8,1,1.6c0,0.3,0,0.5-0.2,0.8
				c-0.7,1.6-2.5,5.9-5.4,13c-1.4,3.5-2.7,6.2-4,8.1c-2.1,3.2-4.8,4.7-8.3,4.7c-2.2,0-3.9-0.5-5.2-1.6s-2.1-2.4-2.7-4.1
				c-0.6-1.7-0.9-3.2-0.9-4.5c0-1.3-0.1-2.3-0.1-3c0-2.1,0.3-5.2,0.9-9.4c0.3-2.1,0.4-3.5,0.4-4.3c0-0.7-0.1-1.1-0.4-1.1
				c-2.3,0-4.3,3.5-5.8,10.4c-0.4,1.9-0.8,3.9-1.1,5.8c-0.8,5.1-1.2,8.3-1.2,9.7c0,1.5,0.2,3,0.6,4.7c0.1,0.6,0.2,1,0.2,1.3
				c0,1.3-0.5,2.4-1.7,3.2c-1.1,0.8-2.3,1.3-3.7,1.3C305.2,405.8,303.8,404.8,303.1,402.8z"/>
			<path class="st0" d="M343.6,400.1c-0.3-0.9-0.6-1.9-0.8-2.8c-0.7-3-1.1-7.1-1.1-12.4c0-8.8,0.9-18.4,2.6-28.8
				c-1.3,0.2-2.4,0.3-3.4,0.3c-6.6,0-11.1-2.8-13.6-8.3c-0.8-1.6-1.1-3.3-1.1-5c0-2.6,0.8-4.7,2.2-6.3c1.7-1.8,3.8-2.7,6.2-2.7
				c3,0,5.3,1.2,6.9,3.5c1,1.4,1.5,2.9,1.5,4.4c0,1-0.2,2.1-0.7,3.2c-0.1,0.4-0.4,0.7-0.8,1.1c-0.5,0.5-1.1,0.7-1.8,0.7
				c-0.7,0-1.3-0.2-1.6-0.7c-0.4-0.4-0.5-0.9-0.5-1.5c0-0.5,0.3-1,0.8-1.6c0.5-0.6,0.8-1.3,0.8-2.2c0-0.4-0.2-0.9-0.6-1.5
				c-0.9-1.3-2.3-2-4-2c-1.4,0-2.6,0.5-3.5,1.6c-0.9,1.1-1.4,2.4-1.4,3.9c0,1.3,0.3,2.5,0.8,3.7c1.7,3.7,5.1,5.6,10.3,5.6
				c1.3,0,2.7-0.2,4.3-0.5c0.6-3.1,1.1-5.5,1.5-6.9c0.4-1.3,0.8-2.1,1.3-2.2c0.4-0.1,0.7-0.2,0.9-0.2c0.4,0,0.9,0.2,1.3,0.7
				c0.4,0.5,0.5,1.1,0.5,1.8c0,0.3,0,0.7-0.1,1c-0.2,0.9-0.4,2.4-0.5,4.5c2.3-0.8,4.9-1.8,7.7-3c7.1-3.2,12.2-4.8,15.5-4.8
				c3.8,0,6.7,1.5,8.7,4.6c0.2,0.3,0.3,0.6,0.3,1c0,0.6-0.3,1.1-0.8,1.4c-0.3,0.2-0.6,0.3-1,0.3c-0.6,0-1.1-0.3-1.4-0.8
				c-1.3-1.9-3-2.9-5.1-2.9c-2.8,0-7.8,1.7-15,5.1c-3.3,1.6-6.3,2.7-9.1,3.6c-0.4,6.4-0.6,12.9-0.6,19.5c0,15,1,22.4,3.1,22.4
				c1,0,3.3-4.3,6.9-12.9c3.5-8.3,5.6-12.9,6-14c0.3-0.7,0.9-1,1.6-1c0.2,0,0.5,0,0.8,0.2c0.7,0.4,1,0.9,1,1.7c0,0.3,0,0.5-0.2,0.9
				c-0.8,1.7-1.7,4-2.7,6.7c-2.6,7.1-5.1,12.8-7.3,17.1c-3.6,6.9-6.5,10.4-8.8,10.4C346.7,405.8,344.8,403.9,343.6,400.1z"/>
			<path class="st0" d="M364,403.2c-1.4-2.5-2.1-5.4-2.1-8.7c0-0.5,0.2-0.9,0.5-1.3c0.3-0.3,0.8-0.5,1.3-0.5c0.5,0,1.1,0,1.6,0.1
				s0.9,0.1,1.2,0.1c0.4,0,0.9,0,1.5-0.2c2.4-0.5,4.6-1.5,6.7-2.8c-0.3-2.4-0.9-4.8-2.1-7.1c-1-2.1-2.2-4.3-3.7-6.6
				c-1-1.6-2-3.1-2.9-4.7c-1.1-2-1.7-4-1.7-6.2c0-4.1,1.3-6.2,3.9-6.2c2.6,0,3.8,1.3,3.8,3.8c0,1.8-0.5,3.4-1.7,4.9
				c0.7,1.6,2.5,4.4,5.4,8.6c2.4,3.4,4.2,6.1,5.3,8.1c3.7-4.1,6.8-9,9.5-14.6c0.3-0.7,0.8-1,1.6-1c0.3,0,0.5,0,0.8,0.2
				c0.7,0.3,1,0.8,1,1.7c0,0.2,0,0.5-0.2,0.7c-3.1,6.5-6.8,12-11.1,16.6c0.8,1.9,1.2,3.8,1.2,5.6c0,2.4-0.5,4.7-1.5,6.9
				c-1,2.1-2.5,3.9-4.4,5.2c-1.9,1.3-4.2,2-6.7,2C368.1,407.7,365.6,406.2,364,403.2z M373.1,400.6c1.1-2.1,1.7-4.3,1.7-6.6
				c-2.8,1.6-5.9,2.5-9.2,2.7c0.3,2.2,0.9,3.9,1.7,5.1c0.6,0.9,1.4,1.3,2.3,1.3C371,403.2,372.1,402.4,373.1,400.6z"/>
		</g>
	</g>
	<path class="st0" d="M362.2,266.1c-2.3,1.2-4.6,1.9-6.8,1.9c-2.2,0.1-4.1-0.2-5.9-0.8c-1.7-0.6-3.1-1.2-4-1.9
		c-0.2-0.1-0.5-0.3-0.8-0.6c-2.8-2.3-5.3-3.5-7.5-3.7c-2.2-0.2-4.2,0.8-6.1,2.8c-1.7,1.8-3.8,3.3-6.2,4.4c-2.4,1.2-5.1,1.6-8,1.2
		c-2.9-0.4-6.1-2-9.5-4.8c-1.3-1.1-2.5-1.8-3.4-2.1c-0.9-0.3-1.6-0.4-2.2-0.3c-0.5,0.1-0.9,0.2-1.2,0.4c-0.9,0.4-1.8,0.5-2.7,0.1
		c-0.9-0.3-1.6-0.9-2-1.8c-0.4-1-0.5-1.9-0.1-2.8s0.9-1.6,1.8-2c1.6-0.9,3.6-1.2,6-1c2.5,0.2,5.3,1.5,8.4,4c1.2,1.1,2.5,1.9,3.9,2.6
		c1.4,0.7,2.9,0.8,4.6,0.5c1.7-0.4,3.5-1.5,5.6-3.5c1.5-1.6,3.4-2.9,5.6-3.9c2.2-1,4.8-1.2,7.8-0.7c2.9,0.5,6.2,2.2,9.8,5.1
		c0,0,0.1,0.1,0.1,0.1c0.2,0.1,0.3,0.2,0.3,0.2c0,0,0.3,0.2,0.8,0.4c0.5,0.3,1.2,0.5,2,0.7c0.8,0.2,1.8,0.3,2.9,0.3
		c1.1-0.1,2.2-0.4,3.3-1c0.9-0.5,1.8-0.6,2.7-0.3c0.9,0.3,1.6,0.9,2.2,1.7c0.4,0.7,0.5,1.5,0.4,2.3c-0.1,0.8-0.5,1.5-1.2,2.1
		C362.6,265.8,362.4,266,362.2,266.1z M403.8,250.4c-2.3,1.2-4.6,1.9-6.8,1.9c-2.2,0.1-4.1-0.2-5.9-0.8c-1.7-0.6-3.1-1.2-4-1.9
		c-0.2-0.1-0.5-0.3-0.8-0.6c-2.8-2.3-5.3-3.5-7.5-3.7c-2.2-0.2-4.2,0.7-6.1,2.7c-1.7,1.8-3.7,3.3-6.1,4.5c-2.4,1.2-5,1.6-8,1.2
		s-6.1-1.9-9.6-4.7c-1.3-1.1-2.5-1.8-3.4-2.1c-0.9-0.3-1.6-0.4-2.2-0.3c-0.5,0.1-0.9,0.2-1.2,0.4c-0.9,0.4-1.8,0.5-2.7,0.1
		c-0.9-0.3-1.6-0.9-2-1.8c-0.5-0.9-0.5-1.9-0.2-2.8c0.3-0.9,0.9-1.6,1.8-2c1.6-0.9,3.6-1.2,6-1c2.4,0.2,5.2,1.6,8.4,4.1
		c1.2,1.1,2.5,1.9,3.9,2.6c1.4,0.7,2.9,0.8,4.6,0.5c1.7-0.4,3.5-1.5,5.6-3.5c1.5-1.6,3.4-2.9,5.6-3.9s4.8-1.2,7.8-0.7
		c2.9,0.5,6.2,2.2,9.8,5.1c0,0,0.1,0.1,0.1,0.1c0.1,0.1,0.2,0.2,0.3,0.3c0,0,0.3,0.2,0.8,0.4c0.5,0.3,1.2,0.5,2,0.7
		c0.8,0.2,1.8,0.3,2.8,0.2c1.1-0.1,2.2-0.4,3.3-1c0.9-0.5,1.8-0.6,2.7-0.3c0.9,0.3,1.6,0.9,2.2,1.7c0.4,0.7,0.5,1.5,0.4,2.3
		c-0.1,0.8-0.5,1.5-1.2,2.1C404.2,250.1,404,250.2,403.8,250.4z"/>
	<path class="st0" d="M356.7,325.2c-2.2-1.1-2-4.5-2.7-6.6c-0.2-0.9,1-1.2,1.6-0.7c0.8,0.8,1.2,1.8,1.6,2.9c0.4,0.9,1.1,2,1.2,3
		C358.5,324.6,357.7,325.6,356.7,325.2z M381.6,329.7c0.5,0.6-0.2,1.1-0.7,1c-4.1-0.9-8-3.3-11.4-5.8c-3-2.3-4.8-5.5-7.3-8.4
		c-0.4-0.5,0.2-1.1,0.8-0.8c3.5,1.8,6.3,4.8,9.3,7C375.4,325.1,378.8,327.2,381.6,329.7z M367.5,305.1c-0.6-0.3-0.1-1.4,0.5-1.3
		c2.6,0,5.1-0.2,7.7,0.1c1.8,0.2,3.7,0.2,4.7,1.7c0.4,0.5,0.2,1.1-0.3,1.4c-1.8,1.1-4.3,0.3-6.5,0.1
		C371.5,306.8,369.6,306.2,367.5,305.1z M362.1,287.6c1.6-0.7,2.7-2.3,4-3.5c0.5-0.6,3.1-3.3,3.5-1.3c0.4,1.4-1.9,3.1-2.9,4
		c-1.2,1-2.8,2.2-4.5,2C361.7,288.6,361.4,287.9,362.1,287.6z M368.3,265.5c-1.5,3.4-4.2,6.7-6.4,9.8c-0.1,0.2-0.4,0.5-0.7,0.5
		c-0.9,1.1-1.8,2.2-2.7,3.3c-0.6,0.8-1.7,0.2-1.4-0.7c0.4-1.8,1.1-3.4,1.7-5c0.1-0.5,0.4-0.8,0.6-0.9c2-3,4.5-6.4,7.8-8.1
		C367.7,264.2,368.5,264.8,368.3,265.5z M369.8,293.8c4.2-1.8,7.8-4,12.3-5.3c3.7-1.1,7.7-2.5,11.6-2.6c0.8-0.1,1.2,1.3,0.6,1.8
		c-3.4,2.3-7.7,3.5-11.5,4.7c-4.2,1.3-8.4,1.5-12.6,2.6C369.5,295.3,369.1,294.1,369.8,293.8z M373.9,278.2c0.3-0.6,0.6-1.1,1.2-1.6
		c0.5-0.4,1.1-1,1.9-0.7c0.3,0.1,0.5,0.4,0.6,0.8c0,0.7-0.8,1-1.1,1.4c-0.5,0.4-1,0.6-1.5,1C374.4,279.5,373.7,278.8,373.9,278.2z"
		/>
	<g>
		<g>
			<path class="st0" d="M114.5,121.8c-6.2-5.7-9.2-14.2-9.2-25.4c0-1.9,0.1-3.8,0.2-5.6c-7.3-0.1-12.9-1.7-16.8-4.5
				c-4.2-3.1-7.3-7.5-9.1-13c-1-3-1.5-6.1-1.5-9.2c0-7.2,2.2-12.9,6.7-17.2c3.2-3,7.2-4.5,11.8-4.5c2.5,0,4.9,0.6,6.9,1.6
				c2.1,1.1,3.7,2.9,4.8,5.2c0.8,1.8,1.2,3.6,1.2,5.4c0,0.8-0.1,1.7-0.2,2.5c-0.6,3-1.9,5.5-3.9,7.5c-2.1,2-4.6,3.1-7.7,3.1
				c-1.4,0-2.9-0.4-4.3-1.1c-1.5-0.7-2.6-1.7-3.3-2.9c-0.4-0.7-0.6-1.4-0.6-2.1c0-0.7,0.2-1.3,0.7-1.8c0.4-0.4,1-0.6,1.8-0.6
				c1,0,1.7,0.4,2.1,1.1c0.2,0.5,0.5,1.1,0.6,1.9c0.2,1.2,1.2,1.8,3,1.8c2,0,3.7-0.7,5.1-2.1c2-2,3.1-4.4,3.1-7.3
				c0-1.3-0.3-2.6-0.9-3.8c-1.3-2.7-4.1-4.1-8.1-4.1c-3,0-5.6,1-7.6,2.9c-2.4,2.3-4,4.6-4.7,6.9c-0.6,1.9-0.9,4.5-0.9,7.6
				c0,2.8,0.4,5.5,1.3,8.1c3.2,9.7,10.2,14.7,20.9,14.9c0.9-7.1,2.8-14,5.8-20.9c3.7-8.6,8.5-15.2,14.3-19.8
				c1.6-1.3,3.4-2.4,5.3-3.1c2.6-1.2,5.3-1.7,8-1.7c4.1,0,7.4,1.2,10,3.5c2.5,2.4,3.8,5.8,3.8,10.3c0,8.8-5,16.9-14.9,24.4
				c-7.3,5.5-14.9,8.9-22.8,10.4c0,0.6,0,1.3,0,2c0,10.9,2.1,19.2,6.4,24.9c2.4,3.1,5.4,4.7,8.9,4.7c9.7,0,17.1-5.9,22.4-17.7
				c0.3-0.7,0.9-1.1,1.6-1.1c1.3,0,1.9,0.5,1.9,1.6c0,0.4,0,0.8-0.1,1.1c-1.7,5.3-4.8,10.3-9.3,14.9c-4.5,4.7-10.4,7-17.8,7
				C123.5,127.3,118.5,125.5,114.5,121.8z M135.5,76.7c8.9-6.9,13.4-14.1,13.4-21.4c0-2.9-0.8-5.1-2.5-6.8c-1.6-1.6-3.7-2.5-6.2-2.5
				c-1.9,0-3.6,0.4-5.1,1.2c-7.2,3.6-12.5,10.6-15.9,20.9c-1.9,5.8-3.1,11.9-3.6,18.1C122.6,84.7,129.2,81.5,135.5,76.7z"/>
			<path class="st0" d="M165.2,110c0-4.2,2.4-12.3,7.3-24.4c-4,3-7.4,4.5-10.1,4.5c-1.6,0-3-0.4-4.3-1.3c-2.7-1.9-4.1-5-4.1-9.2
				c0-3.3,0.7-6.1,2.1-8.3c1.4-2.2,3-3.3,4.8-3.3c2.2,0,3.7,0.9,4.7,2.8c0.7,1.5,1.1,3.1,1.1,4.7c0,3.5-1,7-3.1,10.7
				c1.2-0.3,2.3-0.8,3.1-1.3c2.5-1.6,4.5-3.2,6-4.9c1.4-1.6,2.7-2.5,4-2.5c1.4,0,2.2,0.8,2.2,2.5c0,0.6-0.1,1.3-0.3,1.8
				c-0.5,1.3-1.5,4.9-2.9,10.6c-1.4,5.7-2.1,10.2-2.1,13.5c0,3.3,0.7,5,2.3,5c2.5,0,6-5.1,10.7-15.2l3.5-7.5
				c0.3-0.7,0.8-1.1,1.6-1.1c0.2,0,0.5,0,0.8,0.2c0.7,0.3,1.1,0.9,1.1,1.6c0,0.3,0,0.6-0.2,0.8c-2,4.1-3.1,6.6-3.4,7.3
				c-2,5-4.1,9.1-6.1,12.4c-3.6,5.9-7.5,8.8-11.6,8.8c-2.1,0-3.8-0.6-5.1-1.9C165.8,115.1,165.2,113,165.2,110z M163.1,75.4
				c0-0.7-0.1-1.3-0.3-1.8c-0.2-0.7-0.6-1-0.9-1c-1.1,0-1.8,2-2.4,5.9c0,0.5-0.1,1-0.1,1.6c0,1.9,0.3,3.5,0.8,4.6
				C162.2,81.4,163.1,78.3,163.1,75.4z"/>
			<path class="st0" d="M208.8,115.3c-1.2-2.1-1.7-5-1.7-8.7c0-0.8,0-1.7,0.1-2.6c-3.5,6.7-7.1,10-10.9,10c-3.3,0-5.8-1.7-7.6-5
				c-1.2-2.3-1.9-5.1-1.9-8.3c0-2.3,0.3-4.5,0.9-6.8c0.9-3.4,2.5-6.3,4.7-9c2.5-2.9,5.8-4.4,9.9-4.4c1.3,0,2.4,0.2,3.5,0.7
				c2.4,1.1,3.6,2.2,3.6,3.2c0,0.5-0.2,0.9-0.5,1.3c-0.4,0.4-0.8,0.6-1.3,0.6c-0.5,0-1.1-0.3-1.8-0.9c-0.7-0.6-1.5-0.8-2.3-0.8
				c-1.8,0-3.4,0.8-4.7,2.5c-1.2,1.6-2.2,3.5-2.9,5.7c-0.8,2.6-1.2,5.2-1.2,7.7c0,1.8,0.2,3.4,0.6,4.7c0.5,1.5,1.4,2.3,2.6,2.3
				c2,0,4.2-2.6,6.7-7.8c1-2,1.9-3.9,2.5-5.6c0.4-0.9,0.9-2.5,1.6-4.7c1.4-4.5,2.5-7.6,3.2-9.4c0.6-1.7,1.5-2.5,2.6-2.5
				c0.7,0,1.3,0.4,1.9,1.3c0.6,0.8,0.9,2.1,0.9,3.7c0,1.7-0.4,3.4-1.2,5.2c-0.4,0.9-0.7,1.5-1,1.8c-0.1,4.5-0.1,7.8-0.1,9.8
				c0,7.8,1.2,11.7,3.6,11.7c1.5,0,3.5-2.8,6.1-8.3c1-2.1,1.9-4.3,2.9-6.4c1.3-3,2.5-5.7,3.7-8.1c0.3-0.7,0.9-1,1.6-1
				c1.2,0,1.9,0.6,1.9,1.8c0,0.3,0,0.6-0.2,0.8c-2,4.1-3.1,6.5-3.4,7.2c-1.1,2.6-2.3,5.4-3.6,8.1c-4.5,9.3-8.9,13.9-13.1,13.9
				C212.1,119.1,210.2,117.8,208.8,115.3z"/>
			<path class="st0" d="M230.2,145.3c-3.7-1.6-5.6-4.7-5.6-9.4c0-2.3,0.6-4.8,1.7-7.3c1.4-3.3,3.4-6.3,6.1-9.2
				c2.6-2.8,5.7-5.7,9.2-8.8c-1.5-1.6-3.4-2.5-5.8-2.7c-0.7,0-1.2-0.4-1.5-1c-0.4-0.6-0.6-1.2-0.6-1.8c0-0.6,0.2-1.2,0.5-1.8
				c0.7-1.2,1.4-2.2,2.3-3.1l3.1-3.1c3.8-3.8,6.3-6.8,7.2-8.9c-2.7,1.2-5.6,1.9-8.4,1.9c-3.7,0-6.7-1.1-8.8-3.2
				c-1.7-1.7-2.5-4.3-2.5-7.6c0-4.4,0.8-7.5,2.5-9.2c1.4-1.5,2.9-2.2,4.4-2.2c2.2,0,3.7,0.9,4.6,2.8c0.7,1.5,1.1,3.1,1.1,4.7
				c0,3.4-1,6.9-3,10.7c0.7,0.2,1.5,0.3,2.3,0.3c1.2,0,2.5-0.2,4-0.6c2.4-0.6,4.3-1.7,5.7-3.1c0.4-0.4,0.8-0.6,1.4-0.6
				c0.4,0,0.8,0.2,1.2,0.5c0.4,0.4,0.6,1,0.6,1.8c0,3.6-1.1,7-3.4,10.3c-1.2,1.8-2.5,3.5-3.9,5.2c-2.2,2.7-3.4,4.4-3.6,5.1
				c1.6,0.4,3,1.2,4.3,2.2c3-2.8,5.7-5.7,8.2-8.7c2.5-3.1,4.6-6.5,6.5-10.2c0.3-0.7,0.9-1,1.6-1c0.3,0,0.6,0,0.8,0.2
				c0.7,0.3,1,0.9,1,1.7c0,0.2,0,0.5-0.2,0.7c-1.9,4-4.2,7.6-6.8,10.8c-2.6,3.2-5.6,6.3-8.7,9.3c1.6,2.7,2.5,5.7,2.5,9
				c0,8.2-2.7,15.6-8.1,21.9c-2.8,3.4-5.9,5-9.3,5C232,145.8,231.1,145.6,230.2,145.3z M233.7,138.7c3-2.9,5.5-6.5,7.4-11
				c0.8-1.9,1.4-3.8,1.9-5.7c0.4-1.9,0.6-3.5,0.6-4.9c0-1-0.1-2-0.3-3c-6.7,5.4-11.2,10.7-13.5,15.9c-0.9,2.1-1.4,4-1.4,5.8
				c0,3,0.8,4.4,2.5,4.4C231.7,140.3,232.6,139.7,233.7,138.7z M236.2,75.4c0-0.7-0.1-1.3-0.2-1.8c-0.2-0.7-0.6-1-0.9-1
				c-1.1,0-1.9,2-2.4,5.9c0,0.5-0.1,1.1-0.1,1.7c0,1.9,0.3,3.4,0.9,4.5C235.2,81.3,236.2,78.2,236.2,75.4z"/>
			<path class="st0" d="M266.3,145.3c-3.7-1.6-5.6-4.7-5.6-9.4c0-2.3,0.6-4.7,1.7-7.2c1.4-3.2,3.4-6.2,6-9c2.5-2.8,5.2-5.4,8-7.8
				c0.6-4.7,1-9.3,1.2-13.7c-3.9,10.3-7.9,15.5-11.7,15.5c-5,0-7.5-4.1-7.5-12.4c0-2.1,0.1-4.3,0.5-6.7c1.2-9.2,3-13.8,5.6-13.8
				c1.5,0,2.3,1.2,2.3,3.6c0,2-0.4,3.4-1.2,4.4c-0.1,1.3-0.2,2.9-0.2,4.8c0,2.7,0.1,5.2,0.3,7.5c0.4,5,1.2,7.5,2.3,7.5
				c1.8,0,4.9-6.7,9.1-20.1c0.6-1.8,0.8-3.6,0.8-5.6v-1.6c0-1.4,0.3-2.4,1-2.9c0.6-0.5,1.2-0.8,1.8-0.8c1.4,0,2.3,1,2.5,3.1
				c1,6.8,1.6,14.5,1.8,23.1c4.5-4.4,8.2-9.6,11.2-15.6c0.1-0.2,0.2-0.4,0.2-0.7c0.1-0.3,0.3-0.6,0.5-0.9c0.4-0.4,0.9-0.6,1.4-0.6
				c0.7,0,1.3,0.3,1.6,0.9c3,5.2,6.8,7.9,11.6,7.9c2.5,0,4.9-0.7,7.1-2.3c2.2-1.5,4-3.5,5.5-6c2.3-3.9,3.5-8.4,3.5-13.6
				c0-3.8-0.7-7.6-2.1-11.3c-2.2-5.7-5.7-10.4-10.8-14c-5.6-4-12.3-6-20.2-6c-1.3,0-2.5,0.1-3.8,0.2c1.2,3.2,1.8,6.5,1.8,10
				c0,6.2-1.4,11.1-4.2,14.7c-2.8,3.7-6.4,5.6-10.8,5.6c-1.2,0-2.4-0.2-3.7-0.7c-2-0.7-3.7-1.9-5-3.6c-1.9-2.5-2.9-5.3-2.9-8.5
				c0-4.1,1.6-7.9,4.8-11.6c3.6-4,7.9-6.8,13.1-8.2c-1.5-2.8-3.4-5.4-5.6-7.7c-7.6-7.8-16.9-11.8-27.9-11.8
				c-11,0-18.5,3.7-22.4,10.9c-1.6,3-2.4,6.4-2.4,10.3c0,4.8,1.5,9.1,4.6,13c3,3.9,6.9,5.9,11.6,5.9c2.9,0,5.2-0.9,7-2.6
				c1.8-1.7,3.1-4,3.7-6.9c0.3-1.1,0.4-2.2,0.4-3.4c0-1.1-0.2-2.5-0.5-4.1c-0.3-1.7-1.3-3.3-2.8-4.9c-1.2-1.3-2.7-2-4.4-2.4
				c-1-0.2-1.5-0.8-1.5-1.8c0-1.3,0.6-1.9,1.9-1.9c0.5,0,1.3,0.1,2.4,0.5c2.5,0.7,4.6,2,6.3,3.9c2.7,3,4.1,6.7,4.1,11.1
				c0,1.9-0.3,3.8-1,5.6c-1.2,3.5-3.2,6.1-5.9,7.9c-2.8,1.8-6,2.7-9.6,2.7c-6.3,0-11.2-2.3-14.8-6.9c-3.6-4.6-5.4-9.8-5.4-15.7
				c0-4.4,0.9-8.4,2.8-12c4.7-9,13.6-13.5,26.6-13.5c6,0,11.7,1.2,17.1,3.5c5.4,2.4,10.2,5.7,14.3,10c2.6,2.7,4.7,5.7,6.4,9.1
				c2.5-0.3,4.8-0.5,6.9-0.5c8.8,0,16.3,2.2,22.6,6.7c5.6,4,9.7,9.3,12.1,15.7c1.5,4.1,2.3,8.3,2.3,12.6c0,4.9-1,9.3-2.9,13.3
				c-1.3,2.8-3.1,5.1-5.3,7.1c-3.9,3.5-8.1,5.3-12.8,5.3c-3,0-5.8-0.8-8.6-2.5c-1.8-1.1-3.5-2.6-5-4.5c-3.1,6-7.7,11.8-13.7,17.5
				c-0.2,14.6-2.6,25.2-7.1,31.8c-1.4,2-3.2,3.5-5.5,4.4c-1,0.4-2,0.6-3.1,0.6C268.2,145.9,267.3,145.7,266.3,145.3z M268.2,139.5
				c3-3.5,5.4-10.7,7.4-21.8c-1.3,1.2-2.6,2.5-3.9,3.8c-2.5,2.5-4.4,5.4-5.8,8.6c-0.9,2.1-1.4,4-1.4,5.8c0,1.3,0.2,2.5,0.7,3.4
				c0.4,0.8,0.9,1.2,1.4,1.2C267.2,140.4,267.7,140.1,268.2,139.5z M283.8,63.8c2.1-3,3.1-7,3.1-12.1c0-3.2-0.6-6.2-1.7-8.8
				c-4.7,1.2-8.6,3.6-11.8,7.2c-1.4,1.6-2.5,3.3-3.2,5.3c-0.5,1.3-0.7,2.5-0.7,3.9c0,0.7,0.1,1.4,0.2,2.2c0.6,3.1,2.4,5.3,5.3,6.5
				c0.5,0.2,1.2,0.4,1.9,0.4C279.4,68.3,281.8,66.8,283.8,63.8z"/>
		</g>
	</g>
	<path class="st0" d="M39.3,107.1c-4.4-0.4-7.7-1.1-9.8-2.3s-3.1-2.7-3.1-4.5c0-1.8,0.6-3.9,1.8-6.1c0.6-1.1,1.4-1.8,2.6-2
		c1.2-0.2,2.5-0.1,4,0.2c1.5,0.4,3.1,1,4.7,1.8c1.7,0.8,3.4,1.8,5.1,2.9c3.9,2.5,8.1,5.7,12.6,9.6C49.7,107.4,43.7,107.5,39.3,107.1
		z M75.4,122.1c-4.3,0.8-8.6,2.1-13,3.9c-4.4,1.8-8.4,4-12.1,6.6c-3.7,2.6-6.3,5.3-7.9,8.1c-1.5,2.9-2.9,4.6-4.2,5.1
		c-1.2,0.5-2.3,0.4-3.3-0.1c-1-0.7-2-1.9-3-3.6c1-4,2.6-7.3,4.7-10c2.1-2.7,4.5-4.9,7.2-6.7c2.7-1.7,5.6-3,8.8-3.8
		c3.1-0.8,6.3-1.4,9.4-1.7c7.3-0.6,15.3,0,23.8,1.9C83.1,121.2,79.6,121.3,75.4,122.1z M76.7,101.8c-2.4-3.7-4.4-7.7-6.1-12.2
		c-1.7-4.4-2.9-8.9-3.6-13.3c-0.7-4.5-0.5-8.2,0.5-11.3c1-3.1,1.2-5.2,0.7-6.5c-0.5-1.2-1.3-2-2.3-2.3c-1.2-0.3-2.7-0.2-4.6,0.3
		c-2.2,3.6-3.6,7.1-4.1,10.5c-0.5,3.4-0.4,6.7,0.3,9.8c0.7,3.1,1.8,6.1,3.4,9c1.5,2.9,3.3,5.5,5.3,7.9c4.6,5.7,10.6,11,17.9,15.8
		C81.5,108.1,79,105.5,76.7,101.8z"/>
	<path class="st0" d="M199,69.5c-0.5,0-0.9-0.1-1.2-0.4s-0.5-0.6-0.4-1.1c-0.1,0-0.1-0.2-0.2-0.5c0-0.3-0.1-0.5-0.2-0.5
		c-0.1-0.4-0.3-0.7-0.4-1s-0.3-0.6-0.4-0.9c-0.3-0.7-0.7-1.3-1.2-1.7c-0.5-0.5-1.1-0.9-1.7-1.4c-0.6-0.4-1.2-0.7-1.8-1.1
		c-0.6-0.4-1.2-0.8-1.8-1.2c-0.1,0-0.3,0.1-0.5,0.1h-0.1c-0.3,0-0.6-0.1-0.8-0.3c-0.6-0.3-1.3-0.4-2-0.4s-1.4,0.1-2.1,0.2
		c-0.7,0.1-1.4,0.2-2.1,0.4c-0.7,0.2-1.4,0.3-1.9,0.4c-1.5,0.3-3,0.6-4.5,0.9c-1.5,0.3-3,0.5-4.5,0.4c-1.1,0-2.2-0.2-3.3-0.5
		c-1.1-0.3-2.1-0.7-3-1.3c-0.9-0.5-1.7-1.2-2.5-2.1c-0.7-0.8-1.2-1.9-1.5-3c-0.4-1.5-0.3-3.1,0.1-4.7c0.4-1.6,1.1-3,2.1-4.2
		c1-1.2,2.2-2,3.6-2.5c1.4-0.5,2.9-0.4,4.5,0.2c-0.4-1-0.6-2-0.5-3.1c0.1-1.1,0.3-2.2,0.7-3.3c0.4-1,1-2,1.7-2.8
		c0.7-0.8,1.5-1.4,2.4-1.8c1.5-0.6,2.9-0.9,4.3-0.8s2.6,0.4,3.8,1c1.1,0.6,2.1,1.5,2.9,2.6c0.8,1.1,1.4,2.4,1.7,3.9
		c0.7-0.2,1.4-0.3,2.1-0.4c0.7-0.1,1.5-0.1,2.2,0c1.3,0.1,2.7,0.4,4,1c1.4,0.6,2.4,1.5,3.1,2.7c0.3-0.7,0.8-1.3,1.3-1.9
		c0.6-0.6,1.2-1.1,1.9-1.5c0.7-0.4,1.4-0.8,2.1-1.1c0.7-0.3,1.4-0.5,2-0.6c1.1-0.1,2.2,0,3.2,0.3c1,0.3,2,0.9,2.8,1.6
		c0.9,0.7,1.6,1.5,2.2,2.5c0.6,0.9,1.1,1.9,1.5,2.9c0.9,2.4,0.9,4.7,0.1,6.9c-0.8,2.2-2,4.2-3.7,6c-1,1-2,2-3,2.9
		c-1.1,0.9-2.1,1.9-3.1,2.9c-1,1-2.1,2.1-3,3.2c-1,1.1-2,2.2-3,3.2c-0.3,0.2-0.6,0.3-0.9,0.4C199.5,69.8,199.3,69.7,199,69.5z
		 M179.3,57.3c0.9-0.2,1.9-0.4,2.9-0.6c1-0.2,2-0.4,3-0.5c-0.9-0.8-1.7-1.7-2.5-2.7c-0.8-1-1.3-2.1-1.7-3.3
		c-0.4-1.1-0.5-2.3-0.4-3.5c0.1-1.2,0.5-2.4,1.3-3.5c0.5-0.7,1-1.3,1.6-1.8c0.6-0.5,1.3-1,1.9-1.4c-0.2-1-0.6-2-1.2-2.9
		c-0.6-0.9-1.3-1.7-2.1-2.2c-0.8-0.5-1.8-0.9-2.8-0.9c-1-0.1-2.1,0.3-3.2,1c-0.9,0.6-1.5,1.3-1.9,2.1c-0.4,0.8-0.6,1.6-0.7,2.5
		c-0.1,0.9-0.1,1.8-0.1,2.7c0.1,0.9,0.1,1.8,0.2,2.7c0,0.3-0.1,0.4-0.3,0.5c-0.2,0.1-0.5,0-0.6-0.2c-0.1-0.1-0.2-0.2-0.2-0.2
		c-0.1,0-0.1-0.1-0.2-0.2c-1.6-0.6-3.1-0.7-4.6-0.2c-1.5,0.5-2.7,1.6-3.5,3.2c-0.4,0.6-0.6,1.3-0.8,2.1c-0.2,0.8-0.2,1.5-0.2,2.3
		c0,0.7,0.2,1.5,0.5,2.2c0.3,0.7,0.7,1.3,1.3,1.9c1,1,2.1,1.6,3.3,1.9c1.2,0.3,2.4,0.4,3.7,0.4c1.3,0,2.6-0.2,3.8-0.5
		C176.9,57.8,178.1,57.6,179.3,57.3z M172.8,47.9c-0.2,0.2-0.6,0.4-1,0.5c-0.5,0.1-0.9,0.2-1.2,0.3c-0.5,0.1-0.9,0.3-1.3,0.4
		c-0.4,0.1-0.9,0.3-1.3,0.5c-0.2,0.1-0.3,0-0.3-0.1c0-0.2,0-0.3,0.1-0.4c0.5-0.3,0.9-0.6,1.4-0.8c0.5-0.2,0.9-0.5,1.4-0.7
		c0.3-0.1,0.7-0.3,1.2-0.5c0.5-0.2,0.9-0.1,1.1,0.2C173,47.5,173,47.7,172.8,47.9z M170.4,73c-0.5,0-0.9-0.2-1.1-0.7
		c-0.2-0.5-0.1-0.9,0.3-1.3c0.6-0.6,1.3-1.1,2-1.5c0.7-0.4,1.5-0.9,2.2-1.3c0.7-0.4,1.5-0.9,2.2-1.3c0.7-0.5,1.4-1,2-1.6
		c0.1-0.1,0.3-0.1,0.4,0s0.2,0.2,0.1,0.3c-0.5,0.7-1,1.4-1.5,2.1c-0.5,0.7-1.1,1.3-1.8,1.9c-0.4,0.4-0.8,0.7-1.2,1
		c-0.4,0.3-0.8,0.6-1.2,0.9c-0.1,0.1-0.4,0.3-0.8,0.6c-0.4,0.2-0.6,0.4-0.6,0.4C171.1,72.8,170.8,73,170.4,73L170.4,73z M174.6,48.4
		c0.4,0,0.6,0.2,0.6,0.5c0,0.3-0.1,0.5-0.4,0.6c-0.5,0.2-1.1,0.3-1.6,0.5s-1,0.3-1.5,0.6c-0.1,0.1-0.3,0.1-0.4-0.1s-0.1-0.3,0-0.4
		c0.5-0.4,1-0.7,1.5-1.2S174,48.3,174.6,48.4z M176.1,50.3c0.4-0.1,0.6,0,0.7,0.4c0.1,0.3,0,0.6-0.3,0.8c-0.3,0.2-0.6,0.3-0.9,0.3
		s-0.7,0.1-1,0.1c-0.2,0-0.4-0.1-0.4-0.3c-0.1-0.2,0-0.4,0.2-0.4c0.3-0.1,0.5-0.2,0.8-0.4C175.5,50.5,175.8,50.3,176.1,50.3z
		 M177.7,51.4c0.2,0,0.4,0.1,0.5,0.2c0.1,0.2,0.1,0.3,0,0.4c-0.1,0.3-0.2,0.5-0.5,0.6s-0.5,0.1-0.7,0.2c-0.3,0.1-0.5,0-0.6-0.3
		c-0.1-0.3-0.1-0.5,0.2-0.7c0.2-0.1,0.3-0.2,0.5-0.3S177.4,51.4,177.7,51.4z M178.9,36.8c0.1,0.2,0.1,0.4,0,0.5
		c-0.1,0.1-0.2,0.2-0.4,0.3c-0.2,0.1-0.3,0.2-0.5,0.3c-0.3,0.3-0.6,0.6-0.7,1c-0.1,0.2-0.3,0.2-0.5,0.1s-0.2-0.2-0.1-0.5
		c0-0.1,0.2-0.3,0.3-0.6c0.2-0.3,0.4-0.5,0.6-0.8c0.2-0.2,0.4-0.4,0.6-0.5C178.5,36.5,178.7,36.5,178.9,36.8z M180.9,37.4
		c0.2,0,0.4,0.2,0.5,0.4s0,0.4-0.2,0.5c-0.1,0.1-0.3,0.2-0.5,0.2s-0.3,0.1-0.5,0.2c-0.2,0.1-0.5,0.3-0.7,0.6c-0.1,0.2-0.3,0.2-0.4,0
		c-0.2-0.2-0.2-0.3-0.1-0.5c0.2-0.4,0.4-0.7,0.8-1.1C180.1,37.6,180.5,37.4,180.9,37.4z M181.6,39.8c-0.2,0.1-0.4,0-0.5-0.2
		c-0.1-0.2-0.1-0.4,0.1-0.5c0.2-0.1,0.3-0.2,0.4-0.3c0.1-0.1,0.3-0.1,0.5,0c0.1,0.1,0.2,0.2,0.2,0.3c0,0.2-0.1,0.3-0.2,0.4
		C182,39.6,181.8,39.7,181.6,39.8z M183.2,75.9c-0.1,0.3-0.3,0.5-0.5,0.6c-0.3,0.1-0.5,0.1-0.8,0s-0.5-0.2-0.6-0.4
		c-0.2-0.2-0.2-0.5-0.1-0.8c0.2-0.7,0.4-1.4,0.5-2c0.1-0.7,0.2-1.4,0.4-2.1c0.1-0.5,0.2-1,0.4-1.5c0.2-0.6,0.5-0.9,1.1-1.1
		c0.2,0,0.3,0.1,0.3,0.3c0.1,0.6,0.1,1.2-0.1,1.8c-0.1,0.6-0.2,1.2-0.3,1.8c0,0.6-0.1,1.2-0.1,1.7C183.4,74.7,183.3,75.3,183.2,75.9
		z M196.3,60.7c0.8,0.7,1.4,1.4,1.9,2.1c0.4,0.7,0.8,1.6,1.3,2.6l0.5,1c1.3-1.3,2.5-2.6,3.7-3.9c1.2-1.3,2.5-2.6,3.8-3.8
		c0.7-0.6,1.4-1.2,2.1-1.9c0.7-0.7,1.4-1.4,2.1-2.2c0.7-0.8,1.2-1.6,1.7-2.5c0.5-0.9,0.8-1.8,0.9-2.7c0.1-0.9,0.1-1.8-0.1-2.8
		c-0.2-1-0.5-2-1-2.9s-1.1-1.7-1.8-2.4c-0.7-0.7-1.6-1.1-2.5-1.4c-0.8-0.2-1.7-0.2-2.6,0.1s-1.7,0.6-2.5,1.1
		c-0.8,0.5-1.5,1.1-2.1,1.8c-0.6,0.7-1,1.5-1.2,2.3c-0.1,0.4-0.4,0.6-0.8,0.6c-0.4,0-0.7-0.2-0.8-0.6c0-0.1,0-0.2-0.1-0.2
		c-1-1.6-2.4-2.7-4-3.4c-1.6-0.7-3.4-0.8-5.3-0.3c-1,0.2-1.9,0.6-2.8,1c-0.9,0.5-1.6,1-2.3,1.8c-0.6,0.7-1.1,1.5-1.3,2.4
		c-0.2,0.9-0.2,1.9,0.2,3c0.5,1.4,1.2,2.6,2.2,3.6c1,1,2.1,1.9,3.4,2.8c1.2,0.8,2.5,1.6,3.8,2.4C194.1,59,195.3,59.8,196.3,60.7z
		 M188.3,19.3c0-0.4,0.2-0.6,0.5-0.8c0.3-0.2,0.6-0.3,0.9-0.3s0.6,0.1,0.8,0.3c0.2,0.2,0.4,0.5,0.3,0.8c-0.2,1.5-0.4,3-0.5,4.5
		c-0.2,1.5-0.4,3-0.6,4.5c0,0.2-0.1,0.3-0.2,0.3s-0.2-0.1-0.3-0.3c-0.2-1.5-0.4-3-0.6-4.4C188.3,22.3,188.3,20.8,188.3,19.3z
		 M193.5,44.4c0.3,0,0.5,0.2,0.5,0.5c0,0.3-0.2,0.5-0.5,0.5c-0.8,0.1-1.5,0.2-2.2,0.5s-1.4,0.5-2.1,0.9c-0.2,0.1-0.3,0-0.4-0.1
		c-0.1-0.2,0-0.3,0.1-0.4c0.6-0.4,1.4-0.8,2.1-1.2C191.8,44.6,192.6,44.4,193.5,44.4z M191.5,73.7c0.1,0.4,0,0.6-0.2,0.8
		c-0.2,0.2-0.4,0.3-0.7,0.3c-0.2,0-0.5-0.1-0.7-0.2c-0.2-0.2-0.3-0.5-0.2-0.9c0.1-0.4,0.1-0.9,0-1.4c-0.1-0.5-0.2-1.1-0.2-1.6
		c0-0.3,0.1-0.4,0.4-0.5s0.5,0.1,0.6,0.3c0.1,0.5,0.2,1.1,0.5,1.6C191.2,72.7,191.4,73.2,191.5,73.7z M195.2,46.6
		c0.2,0,0.4,0.1,0.4,0.3c0.1,0.2,0,0.4-0.2,0.4c-0.4,0.2-0.8,0.4-1.3,0.5s-0.9,0.2-1.4,0.3c-0.2,0.1-0.4,0-0.4-0.2
		c-0.1-0.2,0-0.4,0.2-0.5c0.4-0.1,0.8-0.3,1.3-0.6C194.2,46.7,194.7,46.6,195.2,46.6z M196.1,49.8c-0.1,0.1-0.3,0.1-0.4,0.1
		s-0.2,0-0.3,0.1c-0.4,0.1-0.6,0.2-0.8,0.2c-0.3,0.1-0.5,0-0.6-0.2c-0.1-0.2-0.1-0.4,0.2-0.6c0.3-0.2,0.6-0.4,0.9-0.5
		c0.3-0.2,0.6-0.2,0.9-0.1c0.2,0.1,0.4,0.2,0.4,0.5C196.4,49.5,196.3,49.7,196.1,49.8z M195.9,51.5c0.1,0,0.2,0.1,0.2,0.1
		s0.1,0.1,0.2,0.2c0,0.2,0,0.3,0,0.5c-0.1,0.1-0.2,0.2-0.4,0.2c-0.1,0-0.2,0.1-0.3,0c-0.1,0-0.2,0-0.3,0c-0.2,0-0.3-0.2-0.3-0.4
		c0-0.2,0.1-0.4,0.3-0.4C195.4,51.6,195.6,51.5,195.9,51.5z M204.8,20.5c-0.4,0.8-0.9,1.5-1.6,2.1c-0.7,0.7-1.4,1.3-2,1.9
		c-1,1-2,2.1-2.9,3.2s-1.8,2.2-2.8,3.2c-0.1,0.1-0.2,0.1-0.3,0s-0.2-0.2-0.1-0.3c0.6-1.3,1.4-2.6,2.4-3.8c1-1.2,1.8-2.4,2.7-3.7
		c0.5-0.7,0.9-1.5,1.3-2.2c0.4-0.7,0.9-1.4,1.5-2c0.3-0.3,0.5-0.4,0.8-0.4c0.2,0,0.5,0.1,0.7,0.3s0.3,0.4,0.4,0.7
		C205,19.9,205,20.2,204.8,20.5z M196.8,54.3c0.1,0,0.1,0,0.1,0.1s0,0.1-0.1,0.1s-0.1,0-0.1-0.1S196.7,54.3,196.8,54.3z M202.2,34
		c-0.1,0.1-0.3,0.1-0.4-0.1c-0.1-0.2-0.1-0.3,0-0.4c0.4-0.3,0.7-0.6,1.1-0.9c0.4-0.3,0.8-0.6,1.1-0.9s0.8-0.6,1.2-0.9
		c0.4-0.3,0.7-0.6,1-1c0.3-0.3,0.6-0.5,0.8-0.4c0.3,0,0.5,0.1,0.8,0.3c0.2,0.2,0.3,0.5,0.3,0.8s-0.2,0.6-0.5,0.7
		c-0.9,0.5-1.8,1-2.8,1.3C204,33,203.1,33.4,202.2,34z M203.5,61.4c-0.1-0.1-0.2-0.2-0.2-0.3s0.1-0.2,0.2-0.2h0.1
		c0.2-0.1,0.3,0,0.3,0.3C203.9,61.4,203.8,61.5,203.5,61.4L203.5,61.4z M203.9,47.3c-0.2,0.1-0.3,0.1-0.5,0c-0.1-0.1-0.1-0.3,0-0.5
		c0.5-0.6,1.2-1.2,2-1.8c0.3-0.2,0.6-0.4,1-0.6c0.4-0.2,0.7-0.3,1.1-0.3c0.3,0,0.5,0.1,0.6,0.3l0.1,0.1c0.1,0.3,0,0.5-0.1,0.7
		c-0.1,0.1-0.2,0.2-0.4,0.2c-0.2,0-0.3,0.1-0.4,0.1c-0.2,0.1-0.4,0.2-0.6,0.3c-0.2,0.1-0.4,0.2-0.6,0.3c-0.4,0.2-0.7,0.4-1.1,0.5
		C204.6,46.8,204.3,47,203.9,47.3z M204.5,59.2c0.2,0,0.4,0,0.5,0.2c0.1,0.2,0.1,0.3,0,0.4c0,0.1-0.2,0.2-0.4,0.3
		c-0.4,0.1-0.6-0.1-0.6-0.5C203.9,59.4,204.1,59.2,204.5,59.2L204.5,59.2L204.5,59.2z M205.7,48.9c-0.2,0.1-0.3,0.1-0.5-0.1
		c-0.1-0.2-0.1-0.3,0.1-0.4c0.5-0.5,1-0.9,1.6-1.3c0.6-0.4,1.2-0.7,1.9-0.9c0.3-0.1,0.6,0,0.7,0.3c0,0.1,0.1,0.3,0.1,0.5
		c-0.1,0.2-0.2,0.3-0.5,0.4c-0.6,0.1-1.2,0.3-1.8,0.6C206.9,48.3,206.3,48.6,205.7,48.9z M207.4,55.3c0.1,0,0.2,0.1,0.3,0.2
		c0.1,0.2,0.1,0.3-0.1,0.4c-0.1,0.1-0.2,0.2-0.3,0.2s-0.2,0.1-0.3,0.1c-0.1,0.1-0.3,0.2-0.5,0.3c-0.3,0.2-0.5,0.1-0.6-0.2
		c-0.1-0.1-0.1-0.2-0.1-0.3c0-0.1,0.1-0.2,0.2-0.3C206.5,55.4,207,55.2,207.4,55.3z M208.1,49.2c0.3-0.2,0.6-0.3,0.9-0.5
		c0.3-0.1,0.6-0.1,1,0.1c0.3,0.1,0.3,0.3,0.1,0.5c-0.2,0.3-0.4,0.5-0.8,0.5c-0.3,0.1-0.6,0.2-0.9,0.3l-1.6,0.8
		c-0.2,0.1-0.3,0.1-0.5-0.1c-0.1-0.2-0.1-0.3,0.1-0.4c0.2-0.3,0.5-0.5,0.8-0.7C207.5,49.5,207.8,49.3,208.1,49.2z M206.9,52.6
		c0.1,0,0.2-0.1,0.4-0.3c0.2-0.2,0.4-0.3,0.7-0.4c0.2-0.1,0.5-0.2,0.6-0.2s0.3,0.1,0.4,0.3c0.1,0.4-0.1,0.7-0.7,0.9
		c-0.5,0.2-1,0.3-1.2,0.4c-0.2,0-0.4,0-0.4-0.2C206.7,52.9,206.8,52.7,206.9,52.6z"/>
	<path class="st0" d="M384.4,90.1c0.1,0.1,0.4,0.6,0.8,1.4c0.4,0.8,0.9,2,1.3,3.4c0.4,1.2,0.8,2.5,1.1,4c0.3,1.5,0.5,3,0.6,4.6
		c0.1,1.6-0.1,3.3-0.4,5.1c-0.3,1.8-0.9,3.6-1.8,5.5c-0.5,1.1-1.2,2.3-1.9,3.5c-0.7,1.2-1.6,2.3-2.6,3.5c-1.2,1.5-2.6,3-4.2,4.4
		c-1.6,1.4-3.5,2.7-5.7,3.9c-2.2,1.2-4.7,2.3-7.4,3.2c-2.8,0.9-5.9,1.7-9.4,2.2c-1.5,0-2.6,0-3.4,0c-0.8,0-1.4,0-1.8,0
		c-1,0-1.9,0-2.8,0c-0.9,0-1.7-0.1-2.5-0.1c-0.4,0-0.7,0-0.8-0.1c-2.6-0.4-5.2-0.9-7.7-1.4c-2.5-0.5-5.1-1.1-7.6-1.7
		c-0.7-0.1-1.3-0.2-1.8,0c-0.5,0.1-1,0.4-1.6,0.8c-2.9,2.1-5.9,3.9-9,5.5c-3.1,1.6-6.5,2.5-10.2,2.8c-2.1,0.2-4.2,0.1-6.1-0.4
		c-2-0.5-3.8-1.5-5.5-3c-1.2-1.1-2-2.2-2.4-3.5c-0.5-1.3-0.6-2.5-0.4-3.8c0.2-1.2,0.7-2.4,1.6-3.5s2-1.9,3.4-2.6
		c2.8-1.2,5.5-1.7,8.2-1.4c2.7,0.3,5.4,0.8,8.1,1.5c1.2,0.4,2.4,0.8,3.6,1.3s2.4,0.9,3.6,1.3l0.6,0.3c0.2,0.1,0.5,0.2,0.7,0.2
		c0.3,0.1,0.5,0.2,0.7,0.2c0.8-0.8,1.6-1.7,2.6-2.6c0.8-0.8,1.8-1.7,2.9-2.7c1.1-1,2.3-2.1,3.6-3.3c-0.2-0.3-0.4-0.5-0.6-0.8
		c-0.2-0.2-0.4-0.5-0.6-0.8c-0.1-0.2-0.1-0.3-0.2-0.3l-0.6-1c-1-2-1.3-4.1-1-6.3c0.1-1.4,0.5-2.6,1.2-3.6c0.6-1,1.6-1.9,2.9-2.7
		c0.1,0,0.2-0.1,0.3-0.2c0.1,0,0.2-0.1,0.3-0.2c0.8-0.5,1.7-0.7,2.6-0.6c0.9,0.1,1.8,0.3,2.6,0.7c0.8,0.4,1.5,1,2.1,1.7
		c0.6,0.8,0.9,1.6,1,2.5c0.1,0.9-0.1,1.7-0.7,2.5c-0.6,0.8-1.3,1.2-2.2,1.3c-1.1,0.2-1.7-0.3-1.7-1.5c-0.1-0.9,0.4-1.4,1.3-1.4
		c0.6,0,1-0.1,1.1-0.2c0.1-0.3,0.1-0.8-0.1-1.4c-0.4-1.1-1.3-1.9-2.5-2.4c-1.2-0.4-2.4-0.4-3.5,0.2c-0.9,0.6-1.6,1.5-2,2.6
		s-0.7,2.2-0.7,3.3c0.1,1.1,0.5,2.2,1.1,3.2c0.6,1.1,1.4,2.1,2.3,3.1c1.9-1.6,3.9-3.1,5.9-4.6s3.9-2.6,5.6-3.4
		c-2.2-2.6-3.3-5.8-3.4-9.5c-0.1-3.9,1.1-7.6,3.5-11.1c1.8-2.7,3.9-4.9,6.5-6.5c3-1.7,6.1-2.8,9.6-3.1c3.8-0.3,7.6,0.2,11.2,1.5
		c3.7,1.4,6.8,3.4,9.5,6.2c0.5,0.6,1,1.2,1.5,1.8C383.4,88.7,383.9,89.4,384.4,90.1L384.4,90.1z M320.2,128.5c-0.1,0-0.2,0-0.3-0.1
		c-0.1,0-0.3-0.1-0.4-0.1c-0.2-0.1-0.3-0.1-0.5-0.2c-2.7-1.3-5.5-2.4-8.3-3.2c-2.9-0.8-5.8-1-8.9-0.6c-1.5,0.2-2.9,0.6-4.2,1.1
		c-1.3,0.5-2.5,1.4-3.5,2.7c-1.1,1.6-1.3,3.1-0.8,4.5c0.5,1.4,1.7,2.3,3.6,2.7c5,1,9.9,0.4,14.5-1.7c1.3-0.6,2.5-1.2,3.7-2
		c1.2-0.8,2.3-1.5,3.5-2.3L320.2,128.5z M383,108.9c1.4-3.6,1.8-7.1,1.2-10.7c-0.7-3.6-2.4-6.8-5.1-9.7c-2.5-2.6-5.4-4.6-8.8-5.9
		c-3.4-1.3-6.9-1.8-10.4-1.5c-3,0.3-5.7,1.2-8,2.6c-2.3,1.4-4.3,3.4-5.8,5.8c-0.8,1.2-1.4,2.5-2,4c-0.5,1.4-0.8,2.9-0.8,4.5
		c0,1.6,0.3,3.1,0.8,4.6c0.5,1.5,1.4,2.9,2.7,4.2c0.1,0.3,0.3,0.5,0.5,0.5c0.5-0.3,1-0.5,1.5-0.7c0.5-0.2,1.1-0.4,1.7-0.6
		c1.7-0.6,3.4-0.8,5.1-0.7c1.7,0.1,3.3,0.6,4.9,1.5c1,0.6,1.8,1.2,2.3,2c0.5,0.7,0.9,1.6,1,2.5c0.3-0.1,0.6-0.3,0.8-0.4
		c0.3-0.1,0.5-0.3,0.8-0.5c0.2-0.2,0.4-0.4,0.7-0.5c0.2-0.2,0.5-0.4,0.9-0.7c0.9-1,1.6-2,1.9-3.1c0.4-1.1,0.6-1.9,0.8-2.6
		c0.1,0,0.1-0.1,0.1-0.1c0.1-1.2,0-2.3-0.3-3.1c-0.3-0.9-0.5-1.6-0.8-2l0-0.1c-0.1-0.1-0.2-0.2-0.2-0.3c0-0.1-0.1-0.1-0.1-0.2l0-0.1
		c-0.2-0.2-0.4-0.4-0.7-0.6c-0.3-0.2-0.5-0.4-0.8-0.7c-1.2-0.9-2.4-1.3-3.6-1.2c-0.8,0.2-1.5,0.4-2.1,0.8c-0.2,0.2-0.3,0.4-0.4,0.5
		l-0.1,0c-0.3,0.3-0.4,0.7-0.4,1.1c0.1,0.2,0.3,0.5,0.6,0.7c0.2,0.1,0.3,0.2,0.3,0.2c0,0.1,0.1,0.1,0.3,0.1c0.3,0.2,0.5,0.1,0.6-0.2
		c0-0.1,0-0.1,0.1-0.1c0.2-0.1,0.3-0.1,0.4-0.1c0.6,0.1,1,0.3,1.3,0.7c0.2,0.4,0.4,0.7,0.4,1.1l-0.1,0c0,0.9-0.3,1.6-1,2.4
		c-0.7,0.5-1.3,0.7-1.9,0.6c-0.8-0.1-1.5-0.8-2.3-2.1l0-0.1c-0.7-1.4-1-2.7-0.8-3.9c0.1-1.1,0.4-2,1.1-2.6c0.6-0.7,1.2-1.2,1.8-1.6
		c0.6-0.3,0.9-0.4,1-0.5l0.2-0.1c2.2-1,4.7-0.6,7.4,1.2c2.4,1.6,3.7,4,3.9,6.9c0.3,2.4-0.5,4.9-2.3,7.4c0,0.1,0,0.1-0.1,0.1
		c-1.1,1.6-2.6,2.9-4.3,4c-0.9,0.5-1.9,1-3.1,1.5c-0.1,1.2-0.5,2.3-1.1,3.4c-1.2,2.1-2.7,3.8-4.3,5.2c-1.7,1.4-3.5,2.4-5.4,3.1
		c-1.9,0.7-3.9,1-6,1c-2.1,0-4.1-0.3-6.2-1c-0.3-0.1-0.6-0.2-1.1-0.3c-0.7-0.2-1.5-0.5-2.5-0.7c-1-0.3-1.7-0.4-1.9-0.5l-0.5,0.4
		c-0.2,0.2-0.3,0.3-0.6,0.5c-0.2,0.1-0.5,0.3-0.8,0.5l-0.1,0l-0.2,0.2c-0.9,0.7-1.9,1.5-2.9,2.3c-1,0.8-1.8,1.5-2.3,2.1
		c0.2,0.1,0.4,0.1,0.6,0.2c0.2,0.1,0.4,0.2,0.6,0.2c0.6,0.2,1.1,0.3,1.7,0.5c0.5,0.2,1,0.3,1.5,0.5c0.2,0.1,0.3,0.1,0.5,0.1
		c0.2,0,0.3,0,0.5,0.1l0.1,0.1c4,1,8,1.5,12,1.7c3.9,0.1,7.9-0.3,11.9-1.3c0.3-0.1,0.6-0.3,0.9-0.3c0.3-0.1,0.6-0.2,0.9-0.3
		l-0.1,0.1c3.6-1,6.7-2.4,9.3-4.1c2.6-1.7,4.9-3.6,6.7-5.5c1.9-2,3.4-4,4.6-6c1.2-2,2.1-3.8,2.8-5.4c0.1-0.2,0.1-0.4,0.2-0.6
		c0.1-0.2,0.2-0.4,0.3-0.5L383,108.9z M337.6,121.2c0.6,0.4,1,0.6,1.2,0.8c0.2,0.2,0.4,0.3,0.6,0.4c3.5,1.7,6.9,2.2,10,1.7
		c3.2-0.6,6.2-2,9.2-4.2c0.8-0.5,1.5-1.2,2.1-2.1c0.6-0.8,1.1-1.7,1.5-2.5c0.1-0.2,0.2-0.5,0.3-0.7c0.1-0.3,0.2-0.5,0.2-0.8
		c-0.2,0.1-0.5,0.1-0.7,0.1c-0.2,0-0.5,0.1-0.7,0.1c-4.2,0.8-8.1,0.4-11.7-1.4c-1.8,1.2-3.5,2.4-5.3,3.7c-1.7,1.2-3.6,2.5-5.4,3.8
		L337.6,121.2z M352.7,110.7c3.2,1.4,6.1,1.8,9,1.2l0.3-0.1l0.1,0l0.1,0l0.5-0.1c-0.2-0.6-0.3-0.9-0.4-1.2l-0.1-0.1
		c-0.5-0.7-1.1-1.2-1.8-1.4c-0.7-0.2-1.5-0.2-2.4-0.1c-0.3,0-0.6,0.1-0.9,0.1c-0.2,0.1-0.5,0.1-0.7,0.2c-1.2,0.3-2.4,0.7-3.5,1.4
		l-0.3,0.1L352.7,110.7z"/>
</g>
</svg>
