<?xml version="1.0" encoding="utf-8"?>
<!-- Generator: Adobe Illustrator 22.0.1, SVG Export Plug-In . SVG Version: 6.00 Build 0)  -->
<svg version="1.1" id="Layer_1" xmlns="http://www.w3.org/2000/svg" xmlns:xlink="http://www.w3.org/1999/xlink" x="0px" y="0px"
	 viewBox="0 0 432 432" style="enable-background:new 0 0 432 432;" xml:space="preserve">
<style type="text/css">
	.st0{fill:#231F20;}
</style>
<g>
	<g>
		<g>
			<path class="st0" d="M42,122.3c5.7,2.3,11.2,4.8,16.7,7.6c5.4,2.8,10.8,5.7,16,8.7c5.2,3,10.4,6.2,15.6,9.4
				c5.2,3.2,10.3,6.4,15.5,9.6c2.4-3.2,5-6.1,7.8-8.6c2.8-2.5,6-4.7,9.5-6.6c3.6-1.9,7.2-3.1,10.9-3.6c3.7-0.5,7.5-0.2,11.5,1
				c1.6,0.5,3.2,1.3,4.7,2.5c1.6,1.2,3,2.5,4.3,4.1c1.3,1.5,2.3,3.2,3.2,4.8c0.8,1.7,1.3,3.2,1.3,4.6c0.1,2.1-0.2,4-0.9,5.7
				c-0.7,1.7-1.7,3.4-2.9,5c-1.7,2.2-3.7,3.8-5.9,4.8c-2.2,1-4.6,1.9-7.2,2.5c-3.7,0.9-7.4,1.2-11.1,1.1c-3.7-0.2-7.3-0.8-11-1.8
				c-2.2-0.7-4.4-1.3-6.6-2.1c-2.1-0.7-4.3-1.5-6.6-2.3c-0.7,1.3-1.3,2.7-1.9,4.2c-0.5,1.5-1,3.1-1.3,4.7c-0.7,3-0.9,6-0.8,8.8
				c0.1,2.9,1,5.7,2.4,8.4c0.5,0.9,1.2,1.8,1.9,2.7c0.7,0.9,1.4,1.7,2.2,2.4c1.2,1.2,2.5,1.8,3.9,2c1.4,0.1,2.8-0.2,4.2-1
				c1.4-0.8,2.3-1.9,2.9-3.2c0.6-1.3,0.7-2.8,0.3-4.3c-0.2-0.9-0.4-1.8-0.7-2.6c-0.3-0.9-0.6-1.7-0.8-2.6c-0.2-0.4-0.2-0.8,0-1.2
				c0.4,0.3,0.7,0.6,1.1,0.9c0.4,0.3,0.6,0.7,0.9,1.1c1,1.7,1.7,3.4,2,5.1c0.3,1.8,0.2,3.6-0.4,5.5c-0.4,1.3-1.1,2.5-1.9,3.6
				c-0.9,1.1-1.9,1.9-3.1,2.4c-1.2,0.5-2.5,0.8-3.9,0.7c-1.4-0.1-2.9-0.6-4.3-1.6c-3-1.9-5.3-4.2-6.9-6.9c-1.6-2.7-2.8-5.8-3.6-9.1
				c-0.8-3.7-1.1-7.4-0.7-11.1c0.4-3.6,1.1-7.3,2.3-10.9c0.1-0.2,0.1-0.4,0.2-0.5c0.1-0.2,0.1-0.4,0.2-0.6c-0.5-0.4-1.1-0.7-1.6-1
				c-0.6-0.3-1.1-0.6-1.7-0.9c-1.4-0.8-2.7-1.6-4-2.4c-1.3-0.8-2.7-1.5-4-2.3c-3-1.6-5.9-3.2-8.7-4.9c-2.9-1.7-5.8-3.3-8.7-5
				c-2.9-1.6-5.9-3.2-8.9-4.7c-3-1.5-6.1-2.8-9.2-4c-2.5-0.9-5-1.7-7.5-2.6c-2.5-0.8-5-1.7-7.6-2.5c-0.9-0.3-1.6-0.3-2-0.1
				c-0.5,0.2-0.9,0.8-1.2,1.6c-0.8,1.8-1.9,3.4-3.2,4.8c-1.3,1.4-2.7,2.6-4.2,3.8c-2,1.4-4,2.1-6.1,2.2c-2.1,0.1-4.2-0.3-6.3-1.2
				c-2.1-0.9-3.6-2.4-4.3-4.4c-0.7-2-0.6-4.1,0.3-6.3c1.7-3.9,4-7,6.9-9.2c3-2.2,6.5-3.7,10.7-4.5c0.9-0.1,1.8-0.3,2.7-0.5
				c0.9-0.2,1.8-0.4,2.7-0.5c0.6-0.1,1-0.4,1.2-1.2c0.6-2.5,1.1-5.1,1.3-7.6c0.2-2.5,0.4-5.1,0.5-7.8c0.2-4,0.4-8,0.6-12
				c0.2-4,0.5-8,0.9-12c0.4-4.5,1.2-8.8,2.5-13.1c1.2-4.2,3.1-8.3,5.6-12.2c2.1-3.2,4.5-5.8,7.3-7.8c2.8-2,6.1-3.3,9.9-4
				c3.7-0.7,7.4-0.5,11.1,0.4c3.8,0.9,7.1,2.6,10.2,4.9c3,2.3,5.5,5.2,7.4,8.7c1.9,3.5,2.8,7.5,2.8,11.9c-0.1,1.7-0.2,3.5-0.3,5.3
				c-0.1,1.8-0.5,3.5-1.1,5.1c-0.9,2.6-2.4,4.9-4.2,6.8c-1.9,1.9-4,3.3-6.3,4.1c-2.3,0.8-4.8,0.9-7.4,0.4c-2.6-0.5-5-1.9-7.4-4.1
				c-1.4-1.4-2.5-2.9-3.4-4.5c-0.8-1.7-1.4-3.3-1.7-5c-0.3-1.7-0.4-3.3-0.3-4.9c0.1-1.6,0.5-3,1.1-4.3c0.3-0.6,0.5-1,0.6-1.3
				c0.1-0.3,0.3-0.4,0.4-0.5c0.2-0.1,0.4-0.1,0.8,0c0.3,0.1,0.8,0.2,1.5,0.2c-0.1,0.7-0.3,1.3-0.4,1.9c-0.1,0.6-0.3,1.2-0.3,1.9
				c-0.2,2.1,0.1,4.1,0.8,5.8c0.7,1.7,1.6,3.2,2.9,4.4s2.6,2.2,4.2,3c1.5,0.8,3.1,1.3,4.6,1.5c1.7,0.3,3.3,0.1,4.7-0.7
				c1.4-0.7,2.5-1.9,3.2-3.4c0.4-0.8,0.7-1.7,1-2.7c0.2-0.9,0.4-1.9,0.4-2.8c0.1-1.7,0.1-3.3,0-5c0-1.7-0.2-3.3-0.6-4.8
				c-0.4-1.6-1-3.1-1.8-4.6c-0.9-1.4-1.9-2.7-3.2-3.9c-1.2-1.1-2.7-2.1-4.2-2.8c-1.6-0.7-3.3-1.2-5.1-1.3c-2-0.2-4-0.1-5.9,0.2
				c-1.9,0.3-3.8,0.9-5.5,1.8c-0.9,0.5-1.8,1.1-2.6,1.8c-0.8,0.7-1.6,1.5-2.3,2.4c-4.7,5-7.5,11-8.6,17.9c-1.2,7.5-2.4,15-3.7,22.3
				c-1.3,7.4-2.5,14.8-3.8,22.2V122.3z M31,133.5c-2-0.4-3.8-0.6-5.7-0.6c-1.8-0.1-3.6,0.2-5.4,0.8c-1.8,0.6-3.3,1.4-4.6,2.4
				c-0.5,0.4-0.8,0.8-0.9,1.4c-0.1,0.6-0.2,1.1-0.1,1.7c0.1,0.6,0.2,1.1,0.5,1.6c0.3,0.5,0.7,0.9,1.2,1.1c1,0.5,2,0.8,3.1,0.9
				c1,0.1,2.1-0.1,3.2-0.5c2-0.9,3.6-2.1,5-3.6C28.5,137.2,29.8,135.4,31,133.5z M112.1,160.3c4,1.7,7.9,3.2,11.8,4.5
				c3.9,1.3,7.9,2,12.2,2.2c1.9,0.1,3.7,0,5.5-0.2c1.8-0.3,3.5-0.8,5.2-1.6c1.5-0.7,2.7-1.7,3.8-3c1-1.4,1.7-2.9,2.1-4.5
				c0.4-1.6,0.3-3.3-0.1-5c-0.4-1.7-1.4-3.2-2.8-4.5c-1.2-1.1-2.5-1.9-3.8-2.3c-1.4-0.4-2.8-0.7-4.4-0.7c-3.1-0.1-6.1,0.2-8.7,0.8
				c-2.7,0.7-5.3,1.7-7.7,3c-2.4,1.3-4.7,3-6.9,4.9C116.1,155.9,114,158,112.1,160.3z"/>
			<path class="st0" d="M93.6,110.7c1.2-0.7,2.3-1.4,3.5-2.2c1.1-0.7,2.1-1.6,3-2.6c0.4-0.4,0.8-0.4,1.2,0.1c0.2,0.3,0.4,0.6,0.4,1
				c0.1,0.1,0,0.2-0.1,0.4c-1.2,1.4-2.4,2.7-3.8,4c-1.3,1.3-2.8,2.4-4.5,3.2c-0.1,0.1-0.1,0.1-0.1,0.2s-0.1,0.2-0.1,0.3
				c-0.4,2.6-1.1,5.1-2.1,7.4c-1,2.3-2.3,4.5-3.8,6.6c-1.9,2.8-4.5,4.6-7.7,5.4c-1.5,0.4-3,0.4-4.4,0.2c-1.4-0.2-2.8-0.9-4.1-1.9
				c-0.9-0.7-1.6-1.5-2.1-2.5c-0.5-0.9-0.9-2-1.1-3.2c-0.7-4-0.4-7.8,0.9-11.6c0.1-0.1,0-0.4-0.1-0.7c-0.6-1-1.2-2.1-1.5-3.2
				c-0.4-1.1-0.5-2.3-0.5-3.5c0-2.7,1-5,2.9-7.1c1.4-1.5,3-2.7,4.7-3.7c1.7-1,3.6-1.7,5.6-2.1c2.2-0.5,4.5-0.3,6.6,0.6
				c2.2,0.9,3.8,2.3,5,4.2c0.3,0.5,0.5,1.1,0.7,1.7c0.2,0.6,0.3,1.2,0.4,1.8c0.7,2.2,1.1,4.5,1.1,6.8V110.7z M79,114.2h0.4
				c1-0.1,2-0.2,3-0.4c1-0.1,2-0.3,3-0.5c0.8-0.2,1.7-0.4,2.5-0.6c0.9-0.2,1.7-0.5,2.5-0.8c0.4-0.1,0.5-0.3,0.5-0.7
				c-0.1-0.3-0.1-0.6-0.1-0.8c0-0.2,0-0.5-0.1-0.7c-0.1-1.2-0.4-2.3-0.8-3.4c-0.4-1.1-0.8-2.2-1.4-3.2c-0.5-0.9-1.1-1.7-1.7-2.3
				c-0.7-0.7-1.5-1.1-2.5-1.4c-0.8-0.3-1.5-0.4-2.3-0.4c-0.8,0.1-1.6,0.2-2.4,0.4c-1,0.3-1.9,0.7-2.8,1.2c-0.9,0.5-1.6,1.2-2.3,2.1
				c-0.9,1.3-1.3,2.8-1,4.6c0.1-0.1,0.2-0.1,0.2-0.2c0-0.1,0.1-0.1,0.2-0.3c1-1,2.1-1.7,3.3-2.1c0.8-0.2,1.5-0.5,2.3-0.7
				c0.7-0.2,1.5-0.5,2.3-0.8c0.2-0.1,0.4-0.1,0.6-0.2c0.2-0.1,0.4,0,0.5,0.3c0.1,0.1,0.1,0.3,0.1,0.5c-0.1,0.2-0.1,0.4-0.3,0.6
				c-0.7,1.5-1.4,3.1-2,4.7c-0.6,1.6-1.2,3.2-1.7,4.8c0,0.1,0,0.2,0,0.3C79,114,79,114.1,79,114.2z M77.9,117.6v0.2
				c-0.3,1.3-0.5,2.6-0.7,3.9c-0.2,1.3-0.2,2.6-0.1,4c0.1,0.5,0.3,1.1,0.4,1.6c0.1,0.6,0.4,1.1,0.7,1.6c0.5,0.8,1.2,1.2,2.1,1.4
				c0.9,0.1,1.7,0,2.5-0.5c0.7-0.4,1.2-0.8,1.6-1.3c0.4-0.5,0.8-1.1,1.2-1.7c1-1.5,1.9-3.1,2.6-4.8c0.7-1.7,1.4-3.3,2-5.1
				c0.1-0.1,0.1-0.2,0.1-0.3s0-0.2,0.1-0.3C86.4,117.7,82.2,118.2,77.9,117.6z"/>
			<path class="st0" d="M125.9,112.2c0.8,0.2,1.6,0.3,2.4,0.3c0.8,0,1.6-0.1,2.4-0.4c1.4-0.5,2.6-1.2,3.9-2c1.2-0.8,2.6-1.8,4.1-3.2
				c0.3,0.3,0.6,0.6,0.8,0.8c0.3,0.2,0.5,0.5,0.8,0.8c-0.6,0.7-1.2,1.3-1.9,1.9c-0.7,0.6-1.4,1.1-2.2,1.6c-1.4,0.9-2.8,1.6-4.2,2.1
				c-1.5,0.5-3,0.8-4.7,0.8c-0.3,0-0.6,0-0.8,0s-0.5,0-0.8-0.1c-0.5-0.1-0.8,0.1-1,0.5c-0.9,2.7-1.9,5.3-2.9,7.6
				c-0.7,1.7-1.6,3.4-2.5,4.9c-1,1.6-2.1,3-3.5,4.4c-0.7,0.7-1.5,1.3-2.3,1.8c-0.8,0.5-1.7,0.9-2.7,1.2c-3.4,0.9-6.2-0.1-8.4-2.8
				c-0.9-1.2-1.6-2.4-2.1-3.8c-0.5-1.3-1-2.7-1.3-4.1c-0.5-1.7-0.8-3.4-1.1-5.2c-0.3-1.7-0.5-3.5-0.7-5.3c-0.2-2.1-0.4-4.2-0.4-6.3
				c-0.1-2.1-0.1-4.2-0.1-6.3v-1.3c0.1-1,0.5-1.7,1.2-2.1c1.2-0.8,2.4-1.1,3.6-1.1c1.2,0,2.5,0.3,3.6,0.9c0.6,0.4,1,1,1,1.9
				c0.1,2,0.1,3.9,0.1,5.9c0,2,0.1,3.9,0.2,5.9c0.1,2.1,0.3,4.3,0.6,6.4c0.3,2.1,0.8,4.2,1.4,6.3c0.2,0.6,0.5,1.2,0.7,1.7
				c0.2,0.5,0.5,1.1,0.8,1.6c0.1,0.2,0.2,0.3,0.3,0.5c0.1,0.1,0.2,0.3,0.3,0.5c0.6,0.7,1.1,1,1.5,1.1c0.4,0.1,0.9-0.2,1.6-0.9
				c1-0.9,1.8-1.9,2.5-3c0.7-1.1,1.3-2.2,1.7-3.4c0.6-1.5,1.1-3.1,1.6-4.6c0.5-1.5,0.9-3.1,1.4-4.6c0.1-0.2,0-0.5-0.2-0.7
				c-2.1-2-3.4-4.4-3.8-7c-0.2-1.2-0.3-2.5-0.2-3.7c0-1.2,0.3-2.5,0.8-3.6c0.7-1.4,1.7-2.5,3-3.2c1.4-0.7,2.8-1,4.4-0.7
				c1.7,0.2,2.7,1.2,3.2,2.9c0.5,2.2,0.5,4.6,0,6.9c-0.3,1.2-0.6,2.5-0.9,3.7c-0.3,1.2-0.7,2.5-1,3.7
				C126.1,111.6,126,111.9,125.9,112.2z M122,108.7l0.2-0.4c0.3-1.3,0.6-2.6,0.8-3.9c0.2-1.3,0.5-2.6,0.7-3.9c0.1-0.7,0.2-1.3,0.2-2
				c0-0.7,0-1.3,0-2c0-0.9-0.4-1.2-1.2-0.8c-0.7,0.3-1.1,0.7-1.4,1.2c-0.3,0.5-0.5,1.1-0.7,1.7c-0.2,0.8-0.4,1.7-0.4,2.6
				c0,0.9,0,1.7,0.1,2.6c0.1,0.8,0.3,1.6,0.5,2.4C121.2,107.2,121.5,107.9,122,108.7z"/>
			<path class="st0" d="M165.8,108.4c0.6,0.4,1.1,0.7,1.6,1.1c0.2,0,0.3,0.1,0.1,0.3c-0.5,2.5-1,5.1-1.7,7.5
				c-0.7,2.5-1.6,4.9-2.8,7.2c-0.5,0.8-1,1.6-1.5,2.4c-0.5,0.8-1.1,1.5-1.6,2.3c-1.8,2.4-4.2,4-7.4,4.7c-1.8,0.5-3.6,0.6-5.3,0.4
				c-2.8-0.3-5.2-1.2-7.1-2.7c-1.9-1.5-3.4-3.5-4.6-6.1c-0.6-1.4-1-2.7-1.1-4.1c-0.1-1.4-0.2-2.8,0-4.3c0.2-1.7,0.5-3.4,0.9-5.1
				c0.4-1.7,1-3.3,1.8-4.8c0.6-1.1,1.2-2.2,1.9-3.2c0.7-1,1.5-1.9,2.5-2.7c1.4-1.2,2.9-2,4.5-2.4c1.6-0.4,3.3-0.6,5.1-0.4
				c0.8,0.1,1.5,0.2,2.2,0.3c0.7,0.1,1.4,0.4,2,0.8c1,0.5,1.8,1.3,2.3,2.2c0.5,0.9,0.8,2,0.7,3.2c0,2.2-0.7,4.3-2.2,6.3
				c-2.1,2.8-4.8,4-8.3,3.6c-0.5-0.1-1.1-0.2-1.6-0.4c-0.5-0.1-1.1-0.2-1.7-0.4c-0.1,0.5-0.1,0.9-0.2,1.4c-0.1,0.5-0.2,0.9-0.2,1.4
				c-0.1,1.5-0.1,3.1-0.1,4.6c0.1,1.5,0.3,3,0.8,4.4c0.8,2.7,2.5,4.4,5.1,5.1c0.4,0.1,0.7,0.1,1.2,0.1c0.4-0.1,0.8-0.1,1.2-0.3
				c1.4-0.4,2.7-0.9,3.8-1.7c1.1-0.8,2.1-1.8,2.9-3c0.4-0.5,0.7-1.1,1-1.6c0.3-0.6,0.6-1.2,0.9-1.8c0.5-1.2,0.9-2.4,1.4-3.7
				c0.4-1.3,0.9-2.5,1.4-3.8c0.4-1.1,0.7-2.1,1-3.2c0.3-1.1,0.6-2.2,1-3.2C165.7,108.8,165.7,108.6,165.8,108.4z M145.4,111.9
				c0.2,0.1,0.3,0.2,0.3,0.2c0.1,0.1,0.2,0.1,0.3,0.1c0.1,0,0.2,0.1,0.3,0.1c1,0.4,2,0.5,2.9,0.5c0.9,0,1.9-0.4,2.8-1
				c1.5-1.1,2.5-2.6,3-4.4c0.4-1.1,0.4-2.2-0.2-3.4c-0.5-1-1.3-1.4-2.4-1.3c-0.5,0.1-1,0.3-1.5,0.5c-0.5,0.2-0.9,0.6-1.2,1.1
				c-1.2,1.5-2.3,3.3-3.3,5.3c-0.2,0.4-0.3,0.7-0.5,1.1C145.7,111.1,145.5,111.5,145.4,111.9z"/>
			<path class="st0" d="M204.8,107.9c0.2,0.5,0.5,1.1,0.7,1.6c0.2,0.5,0.4,1.1,0.5,1.7c1,3.8,3.2,5.9,6.6,6.3c1.7,0.2,3.4,0,5.1-0.6
				c2-0.7,3.7-1.7,5.2-3.1c1.4-1.4,2.7-2.9,3.9-4.6c1.6-2.5,2.8-5.1,3.6-7.8c0.8-2.7,1.1-5.5,0.9-8.6c-0.1-1.2-0.3-2.3-0.6-3.5
				c-0.3-1.1-0.7-2.2-1.3-3.3c-1.4-2.7-3.3-4.5-5.6-5.5c-2.3-1-5-1.2-8-0.4c-3.5,0.8-6.5,2.2-9,4.2c-2.5,2-4.7,4.5-6.6,7.4
				c-1.9,3-3.3,6-4.1,9.2c-0.9,3.2-1.3,6.5-1.5,9.9c-0.1,3.9,0.3,7.7,1.2,11.3s2.5,7.1,4.7,10.3c2.4,3.4,5.2,5.8,8.4,7.4
				c3.3,1.6,6.9,2.4,11,2.4c2.3,0,4.5-0.5,6.4-1.5c2-1,3.8-2.2,5.5-3.8c2.8-2.5,5-5.4,6.7-8.6c0.5-1.1,0.8-2.2,1.1-3.3
				c0.2-1.1,0.5-2.3,0.8-3.5c0.5-2.2,0.8-4.4,0.9-6.6c0.1-2.2,0.3-4.4,0.3-6.7c0.1-3.6,0.1-7.1,0-10.6c0-3.5,0-7.1,0.1-10.6
				c0.1-2.8,0.2-5.5,0.4-8.3c0.1-2.8,0.3-5.5,0.6-8.2c0.3-2.6,0.7-5.2,1.1-7.7c0.4-2.5,0.8-5.1,1.2-7.7c0.1-0.1,0.1-0.2,0.1-0.4
				l-7.2-2.4c-4.3-1.4-8.5-2.7-12.8-4.1c-4.3-1.4-8.6-2.7-12.9-4c-2.7-0.8-5.4-1.1-8.1-0.9c-2.7,0.2-5.4,0.9-8,1.9
				c-1,0.4-2,1.1-2.9,1.9c-0.9,0.9-1.8,1.8-2.4,2.9c-0.7,1.1-1.2,2.2-1.6,3.5c-0.4,1.2-0.5,2.4-0.4,3.4c0.2,3,1.4,5.4,3.7,7.2
				c1.4,1,2.8,1.9,4.2,2.7c1.4,0.8,3,1.3,4.7,1.6c1.5,0.2,2.8,0,4-0.7c1.2-0.7,2-1.8,2.5-3.3c0.6-1.8,0.7-3.6,0.4-5.2
				c-0.3-1.6-1.2-3.1-2.7-4.5c-0.7-0.7-1.5-1.2-2.4-1.5c-0.9-0.4-1.8-0.6-2.8-0.7c0.2-0.8,0.4-1.3,0.5-1.5c0.2-0.1,0.7-0.2,1.4,0
				c1.5,0.1,2.9,0.5,4.2,1.1c1.3,0.6,2.5,1.4,3.4,2.4c0.9,1,1.7,2.2,2.2,3.6c0.5,1.4,0.8,2.9,0.8,4.6c0,0.9-0.2,1.8-0.5,2.6
				c-0.3,0.8-0.8,1.6-1.3,2.3c-1.1,1.4-2.5,2.5-4.4,3.3c-1.1,0.5-2.1,0.8-3.2,1c-1.1,0.2-2.2,0.3-3.4,0.3c-1.2,0.1-2.3-0.1-3.4-0.4
				c-1.1-0.4-2.1-0.8-3.2-1.2c-2.5-1-4.6-2.3-6.3-4c-1.7-1.7-3-3.8-3.9-6.5c-0.7-2.4-0.9-4.7-0.6-7.1c0.3-2.4,1-4.6,2.1-6.6
				c1.1-2,2.6-3.8,4.5-5.4c1.9-1.5,4.1-2.7,6.6-3.4c2.2-0.7,4.5-1,6.8-1c2.3,0,4.6,0.2,6.8,0.5c3.2,0.5,6.3,1.3,9.2,2.4
				c2.9,1.1,5.8,2.3,8.7,3.6c2.8,1.3,5.7,2.6,8.6,3.8c2.9,1.2,5.9,2.3,8.9,3.1c3,0.8,5.9,1.5,8.9,2c3,0.5,6,0.7,9.1,0.5
				c1.7-0.1,3.4-0.2,5.1-0.4c1.7-0.2,3.3-0.7,4.9-1.3c3.7-1.6,6-4.4,7-8.4c0.2-0.8,0.4-1.7,0.5-2.6c0.1-0.9,0.1-1.8-0.1-2.8
				c-0.4-1.5-1.2-2.5-2.6-3c-0.5-0.2-0.8-0.3-0.9-0.5c-0.1-0.1,0-0.5,0.3-0.9c0.9-1.5,2.1-2.5,3.4-2.8c1.3-0.3,2.7,0,4.2,1
				c0.4,0.2,0.5,0.5,0.5,0.7c0.2,0.7,0.5,1.3,0.7,1.9c0.2,0.6,0.3,1.3,0.3,1.9c0.1,1.7,0,3.4-0.2,5c-0.2,1.6-0.6,3.2-1.3,4.8
				c-0.5,1.3-1.1,2.4-2,3.4c-0.9,0.9-1.8,1.9-2.7,2.8c-4.7,4.2-10.3,6.6-16.8,7.1c-1.5,0.1-2.9,0.2-4.4,0.1c-1.5,0-2.9,0-4.3,0H254
				c-0.2,1.1-0.5,2.2-0.7,3.3c-0.2,1.1-0.5,2.2-0.7,3.3c-0.7,3.9-1.3,7.9-1.9,12c-0.1,0.7-0.2,1.3-0.2,2s0,1.4-0.1,2.1
				c-0.1,2.8-0.2,5.7-0.3,8.6c-0.1,2.9-0.1,5.7-0.3,8.6c-0.2,4.3-0.5,8.5-1.1,12.7c-0.6,4.2-1.3,8.3-2.4,12.5
				c-0.7,2.7-1.6,5.3-2.8,7.8c-1.2,2.5-2.7,4.7-4.6,6.8c-2.4,2.7-5.1,4.9-8.1,6.4c-3,1.5-6.3,2.6-9.8,3.1c-4.3,0.7-8.4,0.8-12.4,0.2
				c-4.3-0.7-8.1-2.4-11.4-5.1c-2.8-2.3-5.1-4.9-6.8-7.9c-1.7-3-2.9-6.2-3.5-9.8c-2.7-14.4,0.9-27.1,10.6-38c2.4-2.7,5-4.9,7.9-6.7
				c2.9-1.8,6.1-3,9.7-3.7c2.2-0.5,4.5-0.7,6.7-0.6c2.2,0.1,4.4,0.7,6.6,1.7c2.8,1.4,5,3.3,6.6,5.6c1.6,2.3,2.7,5,3.2,8
				c0.6,3,0.6,5.9-0.1,8.7c-0.7,2.8-1.9,5.5-3.3,8.2c-1.8,3.3-4.1,6-6.9,8c-2.8,2-6,3.4-9.7,4.3c-1.9,0.5-3.7,0.6-5.5,0.3
				c-1.8-0.3-3.4-1.1-5-2.4c-2.5-2.1-3.8-4.7-4-7.7c-0.1-0.5,0-1,0.2-1.5c0.2-0.5,0.4-1,0.5-1.5H204.8z"/>
			<path class="st0" d="M302.3,111.5c0.3,0.2,0.6,0.3,0.8,0.5c0.2,0.1,0.5,0.3,0.7,0.5c0.1,0.1,0.2,0.3,0.1,0.4c0,0.2,0,0.3,0,0.4
				c-0.5,2.2-1,4.3-1.6,6.5c-0.6,2.1-1.3,4.2-2.1,6.3c-0.7,1.7-1.4,3.4-2.2,5c-0.8,1.6-1.8,3.1-2.9,4.5c-0.8,1-1.7,1.9-2.6,2.7
				c-0.9,0.8-2,1.4-3.2,1.9c-1.9,0.7-3.9,0.7-5.9,0c-2-0.7-3.6-1.9-4.7-3.6c-0.7-1-1.1-2.1-1.5-3.2c-0.3-1.1-0.6-2.3-0.8-3.5
				c-0.1-1.3-0.1-2.6-0.1-3.8s0.1-2.5,0.3-3.7c0.3-2.7,0.7-5.3,1.1-7.9c0.4-2.6,1-5.3,1.6-7.9c0.3-1,0.5-2,0.8-3s0.4-2,0.7-3
				c0.1-0.7,0-1.5-0.2-2.4c-0.2-0.9-0.7-1.1-1.6-0.7c-2.2,1-4.1,2.4-5.5,4.1c-1.5,1.7-2.6,3.7-3.4,6c-0.7,1.9-1.2,3.8-1.5,5.7
				c-0.3,1.9-0.5,3.9-0.6,5.9c-0.1,1.8,0,3.5,0.2,5.3c0.2,1.7,0.3,3.5,0.4,5.3c0.1,0.6,0.1,1.1,0,1.6c-0.1,0.5-0.3,1-0.5,1.6
				c-0.1,0.3-0.3,0.5-0.5,0.5c-1.9,1-3.9,1.4-5.9,1.2c-0.8-0.1-1.4-0.3-2-0.8s-1-1-1.5-1.6c-0.7-1-1.2-2-1.6-3.1
				c-0.4-1.1-0.6-2.2-0.8-3.4c-0.1-1.6-0.2-3.2-0.3-4.8c-0.1-1.6-0.2-3.2-0.3-4.8c-0.2-3.3-0.3-6.6-0.3-9.8c0-3.2,0.1-6.5,0.4-9.8
				c0.4-4.9,1-9.8,1.9-14.6c0.9-4.8,2.3-9.5,4.2-14.1c0.3-0.7,0.6-1.3,0.9-2c0.3-0.7,0.6-1.3,0.9-2c0.7-1.5,1.7-2.6,2.9-3.5
				c1.2-0.9,2.5-1.6,3.9-2.2c1.8-0.7,3.4-0.2,4.7,1.4c1.2,1.6,2.2,3.3,2.8,5.1c0.6,1.8,0.8,3.8,0.6,5.9c-0.2,2.6-0.7,5.1-1.5,7.5
				c-0.7,2.4-1.6,4.8-2.6,7.2c-0.7,1.5-1.3,3-2,4.5c-0.7,1.5-1.3,2.9-2,4.5c-0.5,1.3-1,2.6-1.4,3.9c-0.4,1.3-0.7,2.6-1,4
				c0,0.4,0.1,0.7,0.2,1l1.1-1.3c0.8-1,1.7-2,2.5-3.1c0.8-1.1,1.7-2.1,2.5-3.1c0.7-0.8,1.4-1.4,2.2-2c0.8-0.6,1.7-0.9,2.8-1.1
				c0.6-0.1,1.3-0.2,2-0.3c0.6-0.1,1.3-0.1,2,0c2.4,0,4.2,1.2,5.3,3.5c0.5,1,0.8,2,0.9,3.1c0.1,1.1,0.3,2.2,0.3,3.3
				c0.1,2.5-0.1,4.9-0.4,7.2c-0.4,2.3-0.8,4.7-1.2,7.1c-0.4,2.1-0.7,4.1-1.1,6.2c-0.4,2-0.7,4.1-1,6.2c-0.3,2,0,4,0.8,5.9
				c0.5,1,1.1,1.6,1.9,1.9c0.8,0.2,1.6,0,2.6-0.6c0.7-0.5,1.3-1.1,1.8-1.8c0.5-0.7,1-1.4,1.5-2.1c1.2-2,2.2-4.1,3-6.2
				c0.8-2.1,1.6-4.2,2.4-6.4c0.4-1.2,0.8-2.4,1.2-3.6c0.4-1.2,0.7-2.5,1.1-3.7c0.1-0.1,0.1-0.1,0.1-0.2S302.2,111.6,302.3,111.5z
				 M267.9,92.3l0.2-0.1l0.5-1.1c1.5-3.3,2.9-6.5,4-9.9c1.2-3.3,1.9-6.8,2.4-10.4c0.2-1.3,0.3-2.6,0.2-3.9c0-1.3-0.3-2.5-0.7-3.8
				c-0.1-0.5-0.3-0.9-0.6-1.3c-0.3-0.4-0.5-0.8-0.8-1.1c-0.3-0.5-0.6-0.5-1,0c-0.2,0.4-0.5,0.7-0.7,1.1c-0.2,0.4-0.5,0.7-0.7,1.2
				c-0.8,1.7-1.4,3.4-1.8,5.1c-0.4,1.8-0.7,3.6-0.9,5.4c-0.2,2.1-0.4,4.1-0.4,6.2c-0.1,2.1-0.1,4.1,0,6.2c0.1,1,0.1,2,0.1,3.1
				C267.8,90.2,267.8,91.2,267.9,92.3z"/>
			<path class="st0" d="M331.4,108.4c0.6,0.4,1.1,0.7,1.6,1.1c0.2,0,0.3,0.1,0.1,0.3c-0.5,2.5-1,5.1-1.7,7.5
				c-0.7,2.5-1.6,4.9-2.8,7.2c-0.5,0.8-1,1.6-1.5,2.4c-0.5,0.8-1.1,1.5-1.6,2.3c-1.8,2.4-4.2,4-7.4,4.7c-1.8,0.5-3.6,0.6-5.3,0.4
				c-2.8-0.3-5.2-1.2-7.1-2.7c-1.9-1.5-3.4-3.5-4.6-6.1c-0.6-1.4-1-2.7-1.1-4.1c-0.1-1.4-0.2-2.8,0-4.3c0.2-1.7,0.5-3.4,0.9-5.1
				c0.4-1.7,1-3.3,1.8-4.8c0.6-1.1,1.2-2.2,1.9-3.2c0.7-1,1.5-1.9,2.5-2.7c1.4-1.2,2.9-2,4.5-2.4s3.3-0.6,5.1-0.4
				c0.8,0.1,1.5,0.2,2.2,0.3c0.7,0.1,1.4,0.4,2,0.8c1,0.5,1.8,1.3,2.3,2.2c0.5,0.9,0.8,2,0.7,3.2c0,2.2-0.7,4.3-2.2,6.3
				c-2.1,2.8-4.8,4-8.3,3.6c-0.5-0.1-1.1-0.2-1.6-0.4c-0.5-0.1-1.1-0.2-1.7-0.4c-0.1,0.5-0.1,0.9-0.2,1.4c-0.1,0.5-0.2,0.9-0.2,1.4
				c-0.1,1.5-0.1,3.1-0.1,4.6c0.1,1.5,0.3,3,0.8,4.4c0.8,2.7,2.5,4.4,5.1,5.1c0.4,0.1,0.7,0.1,1.2,0.1c0.4-0.1,0.8-0.1,1.2-0.3
				c1.4-0.4,2.7-0.9,3.8-1.7c1.1-0.8,2.1-1.8,2.9-3c0.4-0.5,0.7-1.1,1-1.6c0.3-0.6,0.6-1.2,0.9-1.8c0.5-1.2,0.9-2.4,1.4-3.7
				c0.4-1.3,0.9-2.5,1.4-3.8c0.4-1.1,0.7-2.1,1-3.2c0.3-1.1,0.6-2.2,1-3.2C331.3,108.8,331.4,108.6,331.4,108.4z M311,111.9
				c0.2,0.1,0.3,0.2,0.3,0.2c0.1,0.1,0.2,0.1,0.3,0.1c0.1,0,0.2,0.1,0.3,0.1c1,0.4,2,0.5,2.9,0.5c0.9,0,1.9-0.4,2.8-1
				c1.5-1.1,2.5-2.6,3-4.4c0.4-1.1,0.4-2.2-0.2-3.4c-0.5-1-1.3-1.4-2.4-1.3c-0.5,0.1-1,0.3-1.5,0.5c-0.5,0.2-0.9,0.6-1.2,1.1
				c-1.2,1.5-2.3,3.3-3.3,5.3c-0.2,0.4-0.3,0.7-0.5,1.1C311.4,111.1,311.2,111.5,311,111.9z"/>
			<path class="st0" d="M370.1,139.9c-0.2-1-0.5-2-0.8-3.1c-0.3-1.1-0.4-2.1-0.5-3.2c-0.2-1.8-0.3-3.6-0.4-5.4
				c-0.1-1.8-0.1-3.6,0-5.5c0.1-3.4,0.5-6.8,1.1-10.1s1.3-6.6,2-10c0.1-0.5,0.2-0.9,0.1-1.4c0-0.4-0.1-0.9-0.2-1.4
				c-0.9,0.8-1.7,1.7-2.4,2.6c-0.7,0.9-1.2,1.9-1.6,2.9c-0.8,1.9-1.5,3.8-2.1,5.8c-0.6,2-1.3,3.9-1.9,5.9c-0.8,2.2-1.5,4.5-2.2,6.8
				c-0.7,2.3-1.4,4.6-2.1,6.8c-0.2,0.5-0.4,1.1-0.6,1.6c-0.2,0.5-0.5,1-0.8,1.6c-0.5,1.1-1.3,1.6-2.3,1.5c-1-0.1-1.8-0.4-2.4-1.1
				c-0.6-0.6-1-1.4-1.3-2.4c-0.6-1.8-1-3.7-1.2-5.6c-0.2-1.9-0.2-3.8-0.2-5.8c0-2.8,0.2-5.6,0.5-8.3c0.4-2.7,0.9-5.4,1.5-8.2
				c0-0.1,0-0.3,0-0.4c0-0.2,0-0.3,0-0.4c-0.1-0.2-0.1-0.5-0.3-0.8c-0.1-0.3-0.3-0.5-0.4-0.5c-0.2-0.1-0.4,0-0.8,0.1
				c-0.3,0.1-0.5,0.3-0.7,0.4c-0.5,0.7-1.1,1.4-1.6,2.2c-0.5,0.7-0.9,1.5-1.2,2.4c-0.8,2.4-1.6,4.8-2.4,7.2
				c-0.8,2.4-1.6,4.8-2.4,7.3c-0.6,1.8-1.2,3.6-1.7,5.3s-1.1,3.6-1.7,5.4c-1.2,3.6-3.3,4.2-6.2,1.8c-1.1-0.8-1.8-1.8-2.3-2.9
				c-0.4-1.1-0.8-2.3-0.9-3.5c-0.3-2.1-0.5-4.2-0.5-6.3c0-2.1,0.1-4.2,0.3-6.3c0.2-1.8,0.3-3.6,0.4-5.3c0.1-1.8,0.2-3.6,0.4-5.3
				c0.1-0.7,0.1-1.3,0.1-1.9c0-0.6,0.1-1.3,0.1-1.9c1.1-0.4,2.1-0.6,3.1-0.5c1,0.1,1.9,0.4,2.8,0.8c0.8,0.5,1.5,1.1,2.1,2
				c0.6,0.8,1,1.8,1.2,2.9c0.2,0.9,0.3,1.8,0.5,2.7c0.1,0.9,0.3,1.8,0.5,2.8c0.6-1.1,1.2-2.1,1.7-3.1c0.5-1,1-2,1.5-3
				c0.5-0.8,0.9-1.5,1.3-2.3c0.4-0.7,0.8-1.5,1.3-2.3c0.8-1.4,1.8-2.5,3.1-3.3c1.2-0.9,2.7-1.3,4.5-1.2c2.1,0.1,3.7,0.7,5,1.8
				c1.3,1.1,2,2.7,2.3,4.8c0.1,0.5,0.1,1,0.1,1.5c0,0.5,0.1,1.1,0.1,1.7c0.5-1.1,1.1-2.2,1.6-3.2c0.5-1,1-2,1.5-3
				c0.5-1,1-1.9,1.7-2.7c0.7-0.8,1.5-1.5,2.4-2.2c1.1-0.8,2.4-1.3,3.8-1.3c1.4-0.1,2.7,0.2,3.9,0.8c1.2,0.6,2.3,1.4,3.2,2.4
				c0.9,1.1,1.5,2.3,1.8,3.7c0.3,1.7,0.4,3.3,0.3,4.9c-0.1,1.6-0.3,3.2-0.6,4.8c-0.5,2.6-1,5.2-1.5,7.7c-0.5,2.5-1,5.1-1.4,7.7
				c-0.3,2.1-0.5,4.3-0.5,6.4c-0.1,2.2,0.1,4.3,0.6,6.4c0.1,0.5,0.3,0.9,0.5,1c0.2,0.1,0.6,0.2,1.2,0.2c2.4-0.1,4.7-0.1,7.1-0.1
				c2.3,0,4.7,0,7.1,0.1c3.2,0.2,6.3,0.8,9.5,1.6c3.1,0.8,6.1,2,8.9,3.6c0.9,0.5,1.8,1.1,2.7,1.8c0.9,0.7,1.7,1.3,2.5,2
				c2.1,2,3,4.2,2.8,6.5c-0.2,2.3-1.5,4.3-3.8,5.9c-1.3,0.9-2.7,1.6-4.2,2.1c-1.5,0.4-3,0.7-4.5,0.8c-6,0.3-11.6-0.5-16.8-2.4
				c-5.1-1.9-9.8-5.1-14-9.5c-0.8-0.9-1.6-1.9-2.3-3c-0.7-1.1-1.3-2.2-2-3.2c-0.2-0.2-0.3-0.4-0.5-0.5c-0.1-0.1-0.4-0.1-0.8-0.1
				c-5.4,0.8-10.7,1.9-15.8,3.1c-5.1,1.2-10.3,2.6-15.5,4c-7,2-14,4-21,6c-7,2-14,4-21,6c-4.9,1.4-9.7,2.4-14.7,3.1
				c-4.9,0.7-10,1-15,0.8c-3.3-0.1-6.6-0.4-9.8-1c-3.2-0.5-6.3-1.5-9.3-2.8c-2.2-1-4.2-2.2-5.9-3.7c-1.7-1.5-2.9-3.4-3.8-5.9
				c-1.5-4.7-0.8-9.1,2.1-13.1c0.7-0.9,1.5-1.6,2.4-2.2c1-0.6,2-0.9,3.2-1.2c1.1-0.2,2.2-0.2,3.4-0.1c1.1,0.1,2.2,0.5,3.1,1
				c0.8,0.4,1.5,1,2,1.8c0.6,0.8,1.1,1.6,1.4,2.5c0.4,0.9,0.5,1.9,0.6,2.8c0,1-0.1,1.9-0.4,2.7c-0.4,1-1,1.7-1.9,2.1
				c-0.9,0.4-1.9,0.4-3.1,0c-1-0.4-1.8-1-2.4-1.9c-0.6-0.9-0.7-1.8-0.4-2.8c0.1-0.5,0.3-0.9,0.6-1.2c0.3-0.3,0.7-0.5,1.3-0.7
				c0.2,0,0.3-0.1,0.5-0.3c0.1-0.2,0.3-0.4,0.4-0.5c0-0.1-0.1-0.3-0.2-0.4c-0.1-0.2-0.3-0.3-0.4-0.4c-0.4-0.2-0.9-0.3-1.4-0.3
				c-0.5,0-1.1,0.1-1.6,0.4c-0.5,0.2-1,0.5-1.4,0.9c-0.4,0.4-0.7,0.8-0.9,1.3c-0.9,2.4-1,4.7-0.3,6.9c0.3,0.9,0.8,1.7,1.4,2.3
				c0.6,0.6,1.3,1.1,2.1,1.6c1.4,0.9,2.8,1.5,4.3,2c1.5,0.4,3.1,0.7,4.7,1c3,0.3,5.9,0.3,8.7,0.1c2.9-0.2,5.8-0.5,8.7-0.8
				c3.9-0.4,7.8-0.9,11.5-1.6c3.8-0.7,7.6-1.4,11.4-2.2c3.3-0.7,6.6-1.5,9.9-2.3c3.3-0.8,6.6-1.6,9.9-2.3c6.7-1.5,13.4-2.9,20.1-4.4
				c6.6-1.4,13.3-2.8,20.2-4.2c1.7-0.4,3.4-0.7,5.2-0.9C366.6,140.4,368.3,140.2,370.1,139.9z M381.6,143.3c0.1,0.4,0.3,0.8,0.4,1.2
				c0.1,0.4,0.3,0.8,0.5,1.2c1.1,2.4,2.6,4.5,4.4,6.3c1.8,1.8,3.8,3.4,5.9,4.8c2,1.3,4.1,2.3,6.2,3c2.1,0.7,4.4,1,6.8,0.8
				c1.1-0.1,2.2-0.4,3.2-0.7c1-0.4,2-0.9,2.8-1.7c0.7-0.7,1.2-1.3,1.6-2.1c0.4-0.7,0.5-1.6,0.4-2.6c-0.2-1-0.5-1.9-1.1-2.6
				c-0.6-0.7-1.2-1.4-2-2.1c-1.2-0.9-2.4-1.6-3.8-2.2c-1.3-0.6-2.7-1.1-4-1.5c-3.4-0.9-6.8-1.5-10.2-1.7s-6.9-0.3-10.4-0.2
				c-0.1,0-0.2,0-0.3,0C381.9,143.2,381.8,143.3,381.6,143.3z"/>
		</g>
	</g>
	<g>
		<g>
			<path class="st0" d="M44.9,265.1c-2.3-1.6-3.9-3.6-4.8-6c-0.4-1.2-0.6-2.3-0.6-3.5c0-3,1-5.4,3.1-7.3c1.5-1.4,3.3-2.1,5.4-2.1
				c2.6,0,4.6,1.1,5.9,3.4c0.2,0.3,0.3,0.6,0.3,0.9c0,0.7-0.3,1.1-0.9,1.5c-0.3,0.2-0.5,0.3-0.8,0.3c-0.7,0-1.2-0.3-1.6-0.9
				c-0.7-1.1-1.6-1.6-2.8-1.6c-1,0-1.9,0.3-2.5,1c-0.9,1-1.4,1.9-1.6,2.8c-0.2,0.9-0.3,1.6-0.3,2.1c0,0.8,0.1,1.6,0.4,2.4
				c0.6,1.7,1.7,3,3.1,3.7c1.3,0.7,2.8,1,4.3,1c3.7,0,6.9-1.1,9.6-3.2c2.7-2.1,4.1-4.6,4.1-7.5c0-4-4.9-7.8-14.6-11.4
				c-9.8-3.5-14.6-9.3-14.6-17.5v-0.7c-5.6-0.2-9.9-1.8-13.1-4.9c-4.6-4.5-6.9-10.2-6.9-17.1c0-6.8,2.3-11.9,6.9-15.5
				c2.3-1.8,4.9-2.6,7.8-2.6c2,0,3.8,0.4,5.4,1.3c1.6,0.9,2.9,2.2,3.7,4.1c0.6,1.3,0.9,2.7,0.9,4.2c0,3.3-1.1,6.1-3.3,8.3
				c-1.7,1.7-3.7,2.5-6.2,2.5c-1.1,0-2.3-0.3-3.4-0.9c-1.2-0.6-2-1.3-2.6-2.3c-0.3-0.6-0.5-1.2-0.5-1.8s0.2-1.1,0.6-1.5
				c0.3-0.3,0.8-0.5,1.4-0.5c0.7,0,1.3,0.3,1.6,0.9c0.2,0.4,0.3,0.9,0.5,1.6c0.2,1,1,1.5,2.4,1.5c1.6,0,3-0.7,4.2-2.1
				c1.2-1.4,1.8-3.3,1.8-5.6c0-1-0.2-1.9-0.6-2.8c-0.9-2-2.7-3-5.3-3c-1.8,0-3.4,0.6-4.7,1.7c-3.6,3.1-5.5,7.2-5.5,12.3
				c0,5.9,1.4,10.3,4.3,13.5s6.5,4.9,10.7,5.3c0.3-2.6,1-5.3,2-8c1.5-4.4,3.7-8.5,6.4-12.4c2.7-3.9,5.9-7.1,9.5-9.6
				s7.3-3.7,11.3-3.7c3,0,5.3,1.3,6.8,3.8c1,1.6,1.4,3.7,1.4,6.3c0,7-3.3,13.2-10,18.6c-6.6,5.4-13.2,8.2-19.8,8.5
				c0.8,4.6,5.6,8.6,14.5,11.9c9.7,3.6,14.6,8.6,14.6,14.7c0,4.8-1.9,9.1-5.7,12.9c-3.8,3.8-8.7,5.7-14.6,5.7
				C49.9,267.5,47.2,266.7,44.9,265.1z M61.5,211.2c5.7-4.9,8.6-10.2,8.6-15.9c0-4-1.4-5.9-4.3-5.9c-2.8,0-6.3,2.1-10.5,6.3
				c-3.4,3.4-6.1,7.4-8.2,12c-1.7,3.9-2.7,7.6-3,11.3C50,218.6,55.8,216,61.5,211.2z"/>
			<path class="st0" d="M83.2,285.1l-4.2-3c-6.4,9.1-16.7,13.6-30.9,13.6c-7.1,0-12.7-1.6-16.9-4.6c-4.2-3.1-6.3-6.9-6.3-11.4
				c0-5.8,2-10.2,6.1-13.2c3.4-2.5,7.9-3.7,13.4-3.7c8.2,0,17.9,3.5,29.1,10.4c1.7-3.7,3-7.9,4-12.7c1.5-6.2,2.3-12.8,2.3-19.8
				c0-2-0.1-4-0.2-6c-0.3-3.5-0.5-6-0.8-7.4c-0.3-1.8-0.5-3-0.5-3.7c0-1.1,0.4-2,1.2-2.9c0.8-0.8,1.7-1.2,2.7-1.2
				c1.7,0,2.5,1.4,2.5,4.2c0,1.4-0.3,2.9-0.8,4.4c0.4,1.5,0.7,3,1,4.5l1-2.3c1.4-3,3.3-5.4,5.4-7.2c1.7-1.4,3.7-2.1,6-2.1
				c2.6,0,4.7,1,6.2,3c1.9,2.6,2.8,6,2.8,10.2c0,2.7-0.5,5.6-1.5,8.9c2.8-1.9,5.3-4.9,7.5-9.1c0.7-1.3,1.3-2.7,2-4.2
				c0.3-0.7,0.8-1,1.6-1c0.2,0,0.5,0.1,0.8,0.2c0.6,0.3,0.9,0.8,0.9,1.6c0,0.4-0.7,2-2,4.5c-3.9,7.4-8.6,12.1-14.2,14.1
				c-3,3.2-6.1,4.8-9.5,4.8c-2.4,0-3.6-1-3.6-2.8c0-0.8,0.4-1.6,1.1-2.4c0.7-0.8,2.9-1.9,6.4-3.3c0.3-0.8,0.6-1.8,0.8-2.8
				c0.5-2.3,0.8-4.2,0.8-5.6c0-1.3,0-2.2,0-2.5c0-2.1-0.2-3.9-0.6-5.4c-0.5-1.7-1.2-2.6-2.1-2.6c-1.6,0-3.1,1-4.6,3
				c-2.4,3.3-3.8,7.6-4.1,12.9c0.2,2.3,0.3,4.6,0.3,6.9c0,3.7-0.1,6.9-0.4,9.8c-0.7,7.5-2.3,13.8-5.1,19c1.1,0.8,2.3,1.6,3.4,2.4
				c16,12,29.4,18,40.2,18c4.6,0,8.8-1.6,12.6-4.9c3.1-2.6,4.6-6,4.6-10.1c0-3.7-1.2-7-3.6-9.9c-3.3-4.1-7.5-6.2-12.5-6.2
				c-4,0-7.6,0.9-10.7,2.6c-3.2,1.8-5.3,4.6-6.3,8.3c-0.2,0.9-0.8,1.3-1.7,1.3c-1.2,0-1.8-0.6-1.8-1.8c0-0.6,0.1-1.1,0.3-1.8
				c1.4-3.9,3.9-6.9,7.2-9.1c3.8-2.4,7.9-3.6,12.3-3.6c3.2,0,6.3,0.6,9.2,1.6c2.9,1.1,5.5,2.9,7.6,5.3c3.3,3.8,5,8.2,5,13.2
				c0,5.5-2.1,10.2-6.3,13.9c-4.1,3.6-9.5,5.5-16.1,5.5C113.3,303.2,99.5,297.1,83.2,285.1z M71.5,277.1c-10.6-6.7-19.1-10-25.4-10
				c-10.7,0-16.1,4.1-16.1,12.2c0,3.8,1.7,6.7,5.1,8.7c3.3,2,7.7,3,12.9,3C58.4,291,66.1,286.4,71.5,277.1z"/>
			<path class="st0" d="M116.5,255.8c-3.3-2.7-5-7.2-5-13.2c0-5.3,1.3-10.1,3.8-14.4c2.9-4.9,6.5-7.3,11-7.3c2,0,3.6,0.4,4.7,1.3
				c1.1,0.9,1.7,2.1,1.7,3.5c0,0.6-0.2,1.1-0.6,1.5c-0.4,0.4-1,0.7-1.5,0.7c-1.2,0-2-0.7-2.3-2.1c-0.2-0.8-0.7-1.2-1.6-1.2
				c-2.1,0-3.9,2.6-5.4,7.7c-1,3.4-1.5,7-1.5,10.8c0,3.9,0.5,6.9,1.6,9c0.7,1.4,1.7,2.2,3,2.2c1.1,0,2.1-0.5,3.1-1.4s1.9-2,2.6-3.3
				c0.7-1.2,1.3-2.3,1.7-3.2c-4.3-0.7-6.4-3.5-6.4-8.5c0-1.4,0.3-3,0.9-4.5c0.6-1.6,1.3-2.7,2-3.5c1-1,2.3-1.6,3.6-1.6
				c2.3,0,3.8,1.4,4.6,4.3c0.5,1.6,0.7,3,0.7,4.4c0,1.5-0.1,2.9-0.3,4c0.7-0.6,1.3-1.1,1.8-1.7c2.5-2.9,4.6-6.1,6.3-9.6
				c0.3-0.7,0.8-1,1.5-1c0.2,0,0.5,0,0.7,0.2c0.7,0.3,1,0.8,1,1.5c0,0.3,0,0.5-0.2,0.8c-1.1,2.5-2.7,5.2-4.9,8.2
				c-2.1,3-4.6,5.1-7.5,6.4c-0.7,2-1.5,3.9-2.7,5.7c-1.2,1.9-2.6,3.4-4.3,4.6c-1.7,1.2-3.7,1.8-6,1.8
				C120.1,257.8,118.1,257.2,116.5,255.8z M133.6,237.2c0-1.1-0.1-2-0.2-2.8c-0.3-1.9-0.9-2.8-1.7-2.8c-0.8,0-1.5,0.8-2.1,2.3
				c-0.5,1-0.7,2.3-0.7,3.6c0,3.5,1.3,5.3,4,5.3C133.3,241,133.6,239.1,133.6,237.2z"/>
			<path class="st0" d="M144.3,258.9c-1.2-1.3-2-2.7-2.3-4.5c-0.4-1.8-0.6-3.5-0.6-5.3c0-2.8,0.3-5.8,0.9-9c0.7-4,1.7-7.8,2.8-11.3
				c0.4-1.4,1.3-2.1,2.5-2.1c0.6,0,1.1,0.2,1.6,0.6c0.6,0.5,1,1.3,1,2.5c0,0.4-0.1,1.1-0.2,2c-0.4,3.9-0.7,7.8-0.7,11.6
				c0,7.1,0.8,10.6,2.3,10.6c1,0,3.2-4,6.9-11.8c3.4-7.5,5.4-11.7,5.9-12.6c0.3-0.7,0.8-1,1.5-1c0.3,0,0.5,0,0.7,0.2
				c0.7,0.3,1,0.8,1,1.5c0,0.3,0,0.5-0.2,0.8c-0.7,1.6-1.6,3.6-2.6,6c-1,2.5-2.1,5-3.3,7.7c-1.2,2.7-2.5,5.3-3.8,7.6
				c-1.3,2.4-2.7,4.4-4.1,5.9c-1.4,1.5-2.8,2.3-4.3,2.3C147.2,260.8,145.5,260.2,144.3,258.9z M144.6,222.1c-0.9-1.4-1.3-3-1.3-4.7
				c0-1.3,0.3-2.3,0.9-2.9c0.3-0.2,0.5-0.3,0.8-0.3c0.9,0,1.7,0.4,2.4,1.3c0.4-1,0.8-1.8,1.2-2.3c0.6-0.9,1.5-1.3,2.6-1.3
				c0.5,0,1,0.1,1.4,0.4c0.8,0.6,1.2,1.3,1.2,2.4c0,1.3-0.3,2.6-0.7,4.1c-0.5,1.5-1.2,2.7-2.1,3.8c-0.9,1-2,1.6-3.3,1.6
				C146.5,224.1,145.5,223.4,144.6,222.1z"/>
			<path class="st0" d="M172.4,222.7c0,3.6,0,6.7,0.1,9.1c0.1,6.2,0.5,11.8,1.1,16.6c0.7,6.4,1.8,9.5,3.3,9.5c0.7,0,2-2.3,3.9-6.7
				c1-2.6,2.1-5,3.2-7.4c1-2.4,2-4.6,2.9-6.6c1.2-2.8,2.4-5.3,3.5-7.6c0.3-0.7,0.8-1,1.5-1c1.2,0,1.7,0.6,1.7,1.7
				c0,0.3,0,0.5-0.2,0.8c-1.9,3.9-2.9,6.1-3.2,6.8c-0.8,2-1.6,4-2.4,5.8c-0.8,1.9-1.6,3.8-2.3,5.7c-4.1,10.7-8.1,16-11.9,16
				c-3.3,0-5.6-2.7-7.1-8.1c-1.5-5.4-2.3-13.3-2.3-23.9c0-6.1,0.4-12.5,1.3-19.3c0.2-1.6,0.4-3.1,0.7-4.6c-3.2-1.7-6.5-4.2-10-7.5
				c-7.3-6.8-13-10.2-17-10.2c-4.9,0-8.2,1.8-9.9,5.4c-0.5,1.1-0.8,2.3-0.8,3.6c0,1.4,0.5,2.7,1.4,3.7c0.9,1,2,1.6,3.4,1.6
				c1.6,0,3-0.7,3.9-1.9c0.4-0.5,0.6-1,0.6-1.4c0-0.9-0.3-1.6-0.7-2.1c-0.5-0.6-0.8-1-0.8-1.5c0-0.5,0.2-1,0.5-1.5
				c0.3-0.4,0.9-0.7,1.6-0.7c0.7,0,1.3,0.2,1.7,0.7c0.3,0.3,0.6,0.7,0.7,1c0.4,1,0.6,2.1,0.6,3.1c0,1.5-0.5,3-1.5,4.3
				c-1.6,2.3-3.9,3.4-6.7,3.4c-2.3,0-4.3-0.9-6-2.6c-1.4-1.5-2.2-3.6-2.2-6.1c0-1.7,0.3-3.3,1.1-4.9c2.4-5.3,7.1-8,14.1-8
				c5.3,0,11.5,3.5,18.9,10.5c2.9,2.8,5.6,5,8,6.7c1.3-5.3,2.9-9.9,5-13.6c1.7-3.2,3.9-5.4,6.6-6.7c1.3-0.7,2.7-1,4.1-1
				c1.5,0,2.9,0.4,4.3,1.2c2.2,1.2,3.7,3,4.5,5.4c0.4,1.3,0.7,2.6,0.7,3.8c0,4.3-1.4,8.3-4.3,12.3c-2.9,4-6.9,5.9-12,5.9
				c-1,0-2-0.1-3.1-0.3C172.5,215.6,172.4,219.1,172.4,222.7z M187,189.2c-0.9-1-1.9-1.5-3.1-1.5c-1.8,0-3.3,0.8-4.6,2.4
				c-2.1,2.6-3.7,6.3-4.7,11.2c-0.5,2.3-0.9,4.7-1.3,7.1c1.1,0.3,2.1,0.5,3,0.5c3.8,0,6.8-1.6,9-4.6c2.2-3.1,3.3-6.5,3.3-10.1
				C188.6,192.2,188.1,190.5,187,189.2z"/>
			<path class="st0" d="M215.3,259.1c-1.5-3.2-2.3-6.6-2.3-10.2c0-6.3,2-11,5.9-13.9c1.9-1.4,3.9-2.1,6.2-2.1c2,0,3.6,0.7,5.1,2
				c2,1.9,3,4.3,3,7.5c0,1.5-0.3,3-0.8,4.4c-0.6,1.4-1.4,2.6-2.5,3.6c-1.1,1-2.5,1.5-4.2,1.5c-0.5,0-0.9-0.2-1.2-0.5
				c-0.3-0.3-0.5-0.7-0.5-1.2c0-0.5,0.2-0.9,0.5-1.2c0.3-0.3,0.7-0.5,1.2-0.5c1.3,0,2.2-0.6,2.9-1.7c0.7-1.2,1-2.6,1-4.3
				c0-1.4-0.3-2.6-0.9-3.8c-0.6-1.2-1.6-1.7-3-1.7c-1.3,0-2.3,0.3-3.1,0.9c-2.9,2.3-4.4,6-4.4,11.2c0,4.5,1.2,8.3,3.5,11.3
				c1.5,2,3.5,3,5.9,3c3.4,0,6.2-1.8,8.4-5.3c2.3-3.8,3.9-8.7,5-14.6c1.1-6.5,1.7-13.4,1.7-20.7c0-11-0.9-21.3-2.8-31.1
				c-5.3-0.9-10.6-1.3-15.8-1.3c-4.3,0-7.7,1.4-10.1,4.3c-2.4,2.8-3.6,6.8-3.6,11.9c0,2.2,0.6,3.9,1.7,5.2c1.1,1.3,2.6,1.9,4.4,1.9
				c1.5,0,2.8-0.7,3.9-2c1.1-1.3,1.7-3,1.7-5.2c0-3.3-1.1-5.1-3.3-5.3c-1.5-0.1-2.3-0.7-2.3-1.8c0-1.2,0.4-2,1.3-2.3
				c0.3-0.1,0.7-0.2,1-0.2c0.9,0,1.7,0.2,2.6,0.7c2.9,1.7,4.4,4.5,4.4,8.3c0,3.1-1,5.7-2.8,7.8c-1.9,2.1-4.4,3.1-7.5,3.1
				c-3.3,0-5.8-1-7.6-3.1c-1.8-2.1-2.7-4.8-2.7-8.1c0-6.2,2.2-11.2,6.5-15c4.3-3.8,9.6-5.7,16.1-5.7c4.5,0,9.4,0.4,14.8,1.1
				c5.4,0.8,10.1,1.2,13.9,1.2c6.2,0,10.4-1,12.4-3.2c2-2.1,3.1-4.1,3.1-6s-0.7-2.9-2.1-2.9c-2.3,0-3.5,1.2-3.7,3.6
				c-0.1,1.5-0.8,2.3-2.2,2.3c-1.3,0-2-0.8-2-2.4c0-1.9,0.9-3.6,2.6-5.2c1.5-1.3,3.3-2,5.3-2c2.6,0,4.4,0.7,5.6,2.1
				c0.8,1,1.2,2.3,1.2,3.8c0,3.9-1.9,7.5-5.8,10.6c-3.9,3.2-9.4,4.7-16.5,4.7c-3.1,0-6.5-0.2-10-0.5c0.9,2.4,2.1,7.6,3.8,15.5
				c2.1,9.9,3.2,18.8,3.2,26.6c0,4.5-0.4,8.7-1.1,12.8c-1.7,9-5.7,15.1-12.2,18.2c-2.7,1.3-6.2,2-10.3,2
				C222,267,217.8,264.3,215.3,259.1z"/>
			<path class="st0" d="M281.6,187.7c-1.4,0-2.9,0.5-4.2,1.6c-5.8,4.5-8.6,16-8.6,34.5c0,10.4,1.1,20,3.2,28.8
				c0.6-5.3,1.7-10.5,3.3-15.4c2.4-7.7,5.9-11.5,10.6-11.5c3.3,0,4.9,3.1,4.9,9.2c0,1.3,0,2.8-0.1,4.4c0,1-0.1,2.2-0.1,3.5
				c0,5.6,0.9,8.3,2.7,8.3c1.1,0,2.6-1.8,4.3-5.4c1.8-3.6,3.1-6.4,3.9-8.4c1.2-2.8,2.4-5.3,3.5-7.6c0.3-0.7,0.8-1,1.5-1
				c1.2,0,1.7,0.6,1.7,1.7c0,0.3,0,0.5-0.2,0.8c-1.9,3.9-2.9,6.1-3.2,6.8c-4.5,10.8-8.2,17.1-11.1,18.9c-0.9,0.6-2,0.9-3.4,0.9
				c-1.8,0-3.1-0.5-4.1-1.5c-1-1-1.7-2.3-2.2-3.8c-0.5-1.6-0.7-3.6-0.7-6.3c0-2.8,0.3-5.7,1-8.5c0.7-2.8,1-5.2,1-6.9
				c0-1-0.3-1.5-0.8-1.5c-1.5,0-3.2,2.3-5,7.1c-2.1,5.4-3.5,11.2-4.2,17.5c-0.3,2.4-0.4,4.4-0.4,6v4.1c0,1.4-0.5,2.4-1.6,3.1
				c-0.8,0.6-1.7,0.8-2.6,0.8c-1.5,0-2.6-0.7-3.1-2.1c-0.9-2.3-1.7-4.7-2.4-7.1c-1.7-6.3-2.8-11.9-3.1-16.7
				c-0.3-4.6-0.5-8.3-0.5-11.2c0-9.7,1-18.8,3-27.5c1.6-6.6,3.9-11.7,7.2-15.2c2.5-2.7,5.6-4,9.2-4c2.6,0,4.7,0.9,6.3,2.6
				c1.5,1.8,2.3,4.2,2.3,7.3c0,2.1-0.4,4.4-1.3,6.8c0.7-0.2,1.5-0.3,2.3-0.3c4.7,0,9.9,1.7,15.5,5.1c5.6,3.4,10.1,5.1,13.4,5.1
				c1.8,0,3.5-0.4,4.9-1.3c1.4-0.8,2.6-2.1,3.3-3.8c0.5-1.2,0.8-2.5,0.8-3.9c0-1.7-0.5-3.2-1.5-4.4c-1.1-1.3-2.6-2-4.6-2
				c-1.4,0-2.6,0.6-3.6,1.9c-0.7,0.8-1,1.5-1,2c0,0.2,0.1,0.5,0.3,0.8c0.1,0.3,0.5,0.6,1,0.9c0.5,0.3,0.8,0.8,0.8,1.5
				c0,0.7-0.2,1.3-0.7,1.7c-0.5,0.5-1.1,0.7-1.8,0.7c-0.9,0-1.6-0.4-2.3-1.2c-0.7-0.7-1-2-1-3.8c0-1.7,0.6-3.3,1.8-4.8
				c1.8-2.1,3.9-3.2,6.3-3.2c3.1,0,5.6,1.1,7.4,3.3c1.4,1.7,2.2,4,2.2,6.9c0,1.7-0.3,3.4-1,5c-1,2.3-2.6,4.1-4.6,5.3
				c-2,1.3-4.3,1.9-6.8,1.9c-4.5,0-9.6-1.7-15.4-5.1c-5.8-3.4-10.3-5.1-13.5-5.1c-1.7,0-3.3,0.7-4.7,2.1c-0.7,1.2-1.2,2-1.6,2.5
				c-0.4,0.6-0.9,0.8-1.4,0.8c-0.3,0-0.6-0.1-0.9-0.2c-0.6-0.3-0.9-0.8-0.9-1.5c0-1.2,0.7-2.4,1.9-3.6c2-3.6,2.9-7,2.9-10.1
				C286.1,189.8,284.6,187.7,281.6,187.7z"/>
			<path class="st0" d="M306.4,252c-2.7-2.4-4.1-6.2-4.1-11.4c0-4.9,1.3-9.4,4-13.7c1.7-2.7,3.9-4.5,6.8-5.5
				c0.9-0.3,1.8-0.4,2.7-0.4c2.1,0,3.8,0.6,5.2,1.8c1.3,1.3,2,2.6,2,4.3c0,1.1-0.2,2.2-0.6,3.2c-1.6,4.4-4.3,7.8-8.2,10.2
				c-0.3,0.2-0.6,0.3-0.9,0.3c-0.7,0-1.1-0.3-1.5-0.9c-0.1-0.3-0.2-0.6-0.2-0.9c0-0.7,0.3-1.1,0.8-1.5c3.3-2.1,5.5-4.9,6.7-8.4
				c0.3-0.7,0.4-1.3,0.4-1.9c0-0.7-0.2-1.3-0.6-1.7c-0.4-0.5-1-0.7-1.7-0.7c-0.7,0-1.4,0.3-2.1,0.8c-1.5,1.2-2.7,3.4-3.6,6.7
				c-0.8,3-1.2,5.9-1.2,8.9c0,5.7,1.4,8.6,4.3,8.6c2.3,0,4.8-1.6,7.3-4.9c2.6-3.5,5.6-8.6,8.7-15.2c0.3-0.7,0.8-1,1.6-1
				c0.3,0,0.5,0.1,0.8,0.2c0.6,0.3,0.9,0.8,0.9,1.6c0,0.7-1.4,3.6-4.3,8.8c-5.6,10.1-11.1,15.2-16.5,15.2
				C310.6,254.5,308.3,253.6,306.4,252z"/>
			<path class="st0" d="M330.1,260.8c-0.8-2.2-1.2-5-1.2-8.5c0-3.5,0.3-8,0.8-13.3c0.7-6.9,1.3-11.5,1.9-13.9c1-3.9,2.3-5.9,4-5.9
				c1.4,0,2.1,1.1,2.1,3.4c0,1.9-0.4,3.2-1.2,4.1c-0.1,2.8-0.1,5.3-0.1,7.2c0,2,0,4,0.2,5.9c0.6-2.8,1.3-5.5,2.2-8.2
				c2.4-7.3,5.9-11,10.6-11c1.7,0,2.9,0.7,3.6,1.9c0.7,1.3,1,2.5,1.1,3.8c0,1.3,0.1,2.3,0.1,3c0,1-0.2,3.4-0.5,7.1
				c2.7-7.2,6.2-10.8,10.7-10.8c1.7,0,2.9,0.5,3.8,1.6c0.8,1.1,1.4,2.5,1.7,4.2s0.5,3.6,0.5,5.7c0,2.1-0.1,4.1-0.2,6.1
				c-0.1,2-0.2,3.8-0.2,5.5c0,3.6,0.7,5.4,2.1,5.4c1.3,0,3.6-4,7.1-12c1.9-4.4,3.4-7.8,4.4-10.1c0.4-1,0.7-1.7,1-2.4
				c0.3-1.3,1-2,2-2c0.7,0,1.2,0.3,1.5,0.9c2.8,4.9,6.4,7.4,10.9,7.4c2.4,0,4.6-0.7,6.6-2.1c2-1.4,3.7-3.3,5.2-5.6
				c2.2-3.6,3.3-7.9,3.3-12.8c0-3.6-0.7-7.1-2-10.6c-2-5.4-5.4-9.8-10.1-13.1c-5.3-3.7-11.5-5.6-18.9-5.6c-1.2,0-2.4,0.1-3.6,0.2
				c1.2,3,1.7,6.1,1.7,9.4c0,5.8-1.3,10.4-3.9,13.8c-2.6,3.5-6,5.2-10.2,5.2c-1.1,0-2.3-0.2-3.4-0.7c-1.9-0.7-3.5-1.8-4.7-3.4
				c-1.8-2.3-2.7-4.9-2.7-7.9c0-3.8,1.5-7.4,4.5-10.9c3.3-3.8,7.4-6.4,12.2-7.7c-1.4-2.6-3.2-5.1-5.3-7.3c-7.2-7.3-15.9-11-26.1-11
				c-10.3,0-17.3,3.4-21,10.2c-1.5,2.8-2.3,6-2.3,9.7c0,4.5,1.4,8.5,4.3,12.2c2.8,3.7,6.5,5.5,10.9,5.5c2.7,0,4.9-0.8,6.6-2.5
				c1.7-1.6,2.9-3.8,3.5-6.5c0.3-1,0.4-2.1,0.4-3.2c0-1-0.2-2.3-0.5-3.9c-0.3-1.6-1.2-3.1-2.6-4.6c-1.2-1.2-2.5-1.9-4.1-2.3
				c-0.9-0.2-1.4-0.7-1.4-1.7c0-1.2,0.6-1.7,1.8-1.7c0.5,0,1.3,0.1,2.3,0.4c2.3,0.7,4.3,1.9,5.9,3.7c2.6,2.8,3.9,6.3,3.9,10.4
				c0,1.8-0.3,3.6-0.9,5.3c-1.1,3.3-3,5.7-5.6,7.4c-2.6,1.7-5.6,2.6-9,2.6c-5.9,0-10.5-2.2-13.9-6.5c-3.3-4.3-5-9.2-5-14.7
				c0-4.1,0.9-7.9,2.6-11.3c4.4-8.5,12.8-12.7,25-12.7c5.6,0,10.9,1.1,16.1,3.3c5.1,2.2,9.6,5.3,13.5,9.4c2.4,2.6,4.4,5.4,6,8.5
				c2.3-0.3,4.5-0.5,6.5-0.5c8.2,0,15.3,2.1,21.2,6.3c5.3,3.8,9.1,8.7,11.3,14.8c1.4,3.9,2.2,7.8,2.2,11.9c0,4.6-0.9,8.7-2.7,12.5
				c-1.3,2.6-2.9,4.8-4.9,6.7c-3.6,3.3-7.6,4.9-12,4.9c-2.8,0-5.5-0.8-8-2.3c-1.7-1-3.2-2.4-4.5-4.1c-0.9,2-1.7,3.9-2.4,5.8
				c-2.4,6.5-4.7,11.5-6.8,15.2c-3,5.2-6,7.8-9.1,7.8c-2,0-3.6-0.5-4.6-1.6c-1.1-1-1.9-2.4-2.4-4.1c-0.5-1.7-0.7-3.6-0.7-5.7
				c0-3.3,0.4-7.5,1.1-12.5c0.5-3.1,0.7-5.3,0.7-6.6c0-1.1-0.3-1.6-0.8-1.6c-1.8,0-3.6,3.2-5.5,9.6c-1.3,4.2-2.1,7.7-2.5,10.4
				c-0.1,0.7-0.3,1.5-0.7,2.5c-0.4,1-1.3,1.5-3,1.5c-1.1,0-2-0.3-2.6-0.9c-1.5-1.3-2.2-3.6-2.2-6.9c0-3.2,0.8-8,2.3-14.5
				c0.6-2.3,0.9-4.4,0.9-6.3c0-1-0.3-1.5-0.8-1.5c-1.5,0-3.2,2.3-5,7.1c-2.2,5.8-3.7,12.1-4.3,18.8c-0.1,0.9-0.1,1.7-0.1,2.6
				c0,2.3,0.2,4.4,0.7,6.4c0,0.3,0.1,0.6,0.1,0.9c0,1.3-0.5,2.3-1.6,3c-1.1,0.8-2.3,1.2-3.6,1.2
				C332.1,263.6,330.8,262.7,330.1,260.8z M373,206.8c2-2.8,2.9-6.6,2.9-11.3c0-3-0.5-5.8-1.6-8.3c-4.4,1.1-8,3.4-11,6.7
				c-1.3,1.5-2.3,3.1-3,4.9c-0.5,1.2-0.7,2.4-0.7,3.6c0,0.7,0.1,1.3,0.2,2c0.6,2.9,2.3,4.9,5,6.1c0.5,0.2,1.1,0.3,1.8,0.3
				C368.9,211,371,209.7,373,206.8z"/>
		</g>
	</g>
	<g>
		<g>
			<path class="st0" d="M167.5,275.2c3.7-3.1,8-4.6,13.1-4.6c3.3,0,5.8,0.6,7.5,1.7c1.7,1.1,2.5,2.5,2.5,4.3c0,1.4-0.4,2.4-1.1,3
				c-0.7,0.6-1.6,1-2.6,1c-1,0-1.7-0.3-2.4-0.9s-1-1.4-1-2.4c0-1,0.1-1.7,0.4-2.2s0.6-1,1.1-1.4c-1.4-0.7-3-1.1-4.7-1.1
				c-2.7,0-5.4,1.5-7.9,4.5c-2.6,3-3.9,6.7-3.9,11.1c0,4.2,1.1,7.8,3.3,10.9c2.2,3.1,4.5,4.6,7.1,4.6c2.8,0,4.8-0.3,5.9-1
				c-0.1-5.2-0.1-9.8-0.1-13.7c-0.8,0-1.4-0.1-1.8-0.3c-0.4-0.2-0.6-0.5-0.6-1c0-0.4,0.2-0.6,0.6-0.8c0.4-0.2,1.4-0.3,3-0.3
				c2.3,0,4.3,0.1,5.8,0.2c1.2,0.1,1.9,0.4,1.9,1c0,0.4-0.1,0.8-0.4,0.9c-0.3,0.2-0.9,0.4-1.9,0.6c0,5.6,0,9.4,0,11.4
				c0,1.8-1,3.1-3.1,3.7c-3.4,1.1-6.4,1.6-9,1.6c-5.6,0-9.9-1.7-12.8-5.1c-2.9-3.4-4.3-7.6-4.3-12.7c0-2.7,0.4-5.1,1.3-7.2
				c-1,0.4-2,0.6-3,0.7c-1.9,0-3.4-0.6-4.4-1.7c-1-1.2-1.5-2.7-1.5-4.6c0-1.4,0.4-2.5,1.2-3.4c0.8-0.9,1.9-1.3,3.3-1.3
				c0.8,0,1.6,0.3,2.3,1c0.7,0.7,1,1.5,1,2.5c0,0.9-0.3,1.7-0.8,2.3c-0.6,0.7-1.5,1.1-2.7,1.1c-0.7,0-1.4-0.1-2-0.4
				c0.3,1.8,1.5,2.7,3.6,2.7c1,0,2-0.4,3.2-1.2C164.7,277.6,166,276.5,167.5,275.2z"/>
			<path class="st0" d="M198,273.6c2.1-1.6,4.6-2.4,7.7-2.4c2.1-0.1,4.6-0.1,7.3-0.1c1.5,0,2.4,0.1,2.8,0.2c0.4,0.2,0.6,0.5,0.6,1
				c0,0.7-0.8,1-2.3,1.2c0,15.8,0,25.6,0,29.4c1.7,0,2.5,0.4,2.5,1.2c0,0.5-0.3,0.9-0.8,1.1c-0.6,0.2-2.8,0.3-6.9,0.3
				c-1.5,0-2.5,0-3,0c-0.5,0-0.7-0.4-0.7-1.1c0-0.8,0.8-1.3,2.5-1.4l0-29.4c-2.1,0-3.9,0.2-5.3,0.5c-1.4,0.3-2.6,1-3.6,2.1
				s-1.5,2.2-1.5,3.4c0,1.8,0.5,3.2,1.5,4v-0.5c0-1,0.3-2,0.8-2.8c0.5-0.8,1.4-1.2,2.6-1.2c1.2,0,2.1,0.4,2.8,1.1
				c0.7,0.8,1,1.6,1,2.6c0,1.1-0.4,2-1.2,2.8c-0.8,0.8-1.9,1.2-3.2,1.2c-2.1,0-3.7-0.7-4.8-2c-1.1-1.3-1.7-3.1-1.7-5.4
				C194.9,277.1,195.9,275.2,198,273.6z"/>
			<path class="st0" d="M233.8,305.5c-0.4,0-0.8-0.2-1.2-0.5c-0.4-0.3-1.8-3.5-4.2-9.6c-2.4-6.1-5-13.4-7.9-22
				c-1.2-0.1-1.8-0.5-1.8-1.2c0-0.5,0.2-0.8,0.7-1c0.4-0.2,2-0.2,4.7-0.2c3.1,0,4.8,0.1,5.1,0.4c0.3,0.3,0.4,0.5,0.4,0.8
				c0,0.4-0.1,0.7-0.4,0.8c-0.3,0.2-0.8,0.3-1.6,0.4c3,9.1,5.7,16.8,8.1,22.9c1.5-4.3,3.1-8.6,4.6-13c1.5-4.4,2.7-7.6,3.5-9.8
				c-1.6,0-2.5-0.4-2.5-1.2c0-0.7,0.4-1.1,1.1-1.1c0.5,0,1.3,0,2.5,0c1.9,0,3,0.1,3.5,0.2c0.4,0.1,0.7,0.4,0.7,0.9
				c0,0.7-0.3,1.1-0.8,1.3c-0.6,0.1-1.1,0.2-1.7,0.2c-3.3,9.3-6.1,17-8.3,23c-1.8,4.8-3,7.6-3.4,8.2
				C234.5,305.3,234.2,305.5,233.8,305.5z"/>
			<path class="st0" d="M297.2,305.6h-29.5c-0.5,0-1.6,0-3.4,0c-1.8,0-3-0.1-3.6-0.1s-0.9-0.4-0.9-0.9c0-0.7,0.3-1.2,0.8-1.3
				c0.5-0.2,1.1-0.3,1.8-0.4c0.1-0.7,0.2-5.4,0.3-14.3c0-8.3,0-13.3-0.1-15l-1.6,0c-1.2,0-2.2,0.1-3,0.2c-1.6,0.3-3,1-4,2.1
				c-1,1.1-1.5,2.2-1.5,3.4c0,1.8,0.5,3.2,1.5,4c0-3,1.1-4.5,3.4-4.5c1.2,0,2.1,0.4,2.8,1.1c0.7,0.8,1,1.6,1,2.6
				c0,1.1-0.4,2-1.2,2.8c-0.8,0.8-1.9,1.2-3.2,1.2c-2.1,0-3.7-0.7-4.8-2c-1.1-1.3-1.7-3.2-1.7-5.4c0-1.8,0.8-3.5,2.3-5.1
				c1.5-1.6,3.6-2.5,6.1-2.7c2.2-0.2,6-0.3,11.6-0.3l10.4,0c1.1,0,1.8,0.4,2.2,1.2c0.3,0.8,0.5,2.6,0.5,5.3c0,0.5-0.3,0.8-1,0.8
				c-0.7,0-1.1-0.4-1.1-1.3c-0.2-2.2-0.9-3.3-2.1-3.3c-1.2,0-2.4,0-3.6,0c-2.1,0-4.2,0.1-6.2,0.2c0,8.2,0,13,0.1,14.4l4.6-0.1
				c0.1-0.7,0.3-1.3,0.4-1.7c0.2-0.5,0.5-0.7,1-0.7c0.4,0,0.8,0.3,0.9,0.8c0.1,0.3,0.2,2,0.2,5.1c0,1-0.3,1.6-0.9,1.6
				c-0.8,0-1.3-0.4-1.4-1.1l-0.2-1.4l-2.4,0c-1,0-1.8,0-2.3,0.1l-0.2,12.2h26.4c0.7,0,1.2-0.3,1.5-1c0.3-0.7,0.5-1.4,0.6-2.3
				c0.1-0.9,0.5-1.3,1.1-1.3c0.7,0,1,0.3,1,0.8c0,2.7-0.2,4.4-0.5,5.3C299,305.2,298.3,305.6,297.2,305.6z"/>
		</g>
	</g>
	<g>
		<g>
			<path class="st0" d="M34.7,391.1c-1.5-3.2-2.3-6.7-2.3-10.2c0-6.4,2-11.1,6-14c1.9-1.4,3.9-2.1,6.2-2.1c2,0,3.7,0.7,5.1,2
				c2.1,1.9,3.1,4.4,3.1,7.5c0,1.5-0.3,3-0.8,4.5c-0.6,1.4-1.4,2.7-2.5,3.6c-1.1,1-2.5,1.5-4.2,1.5c-0.5,0-0.9-0.2-1.2-0.5
				c-0.4-0.3-0.5-0.7-0.5-1.2c0-0.5,0.2-0.9,0.5-1.2c0.3-0.4,0.7-0.5,1.2-0.5c1.3,0,2.2-0.6,2.9-1.7c0.7-1.2,1.1-2.6,1.1-4.4
				c0-1.4-0.3-2.7-0.9-3.9c-0.6-1.2-1.6-1.7-3.1-1.7c-1.3,0-2.3,0.3-3.2,0.9c-2.9,2.3-4.4,6-4.4,11.3c0,4.6,1.2,8.4,3.5,11.4
				c1.5,2.1,3.5,3.1,6,3.1c3.5,0,6.3-1.8,8.5-5.4c2.3-3.8,4-8.8,5-14.8c1.1-6.5,1.7-13.5,1.7-20.8c0-11.1-0.9-21.5-2.8-31.3
				c-5.4-0.9-10.7-1.3-15.9-1.3c-4.4,0-7.8,1.4-10.2,4.3c-2.5,2.8-3.7,6.9-3.7,12c0,2.2,0.6,3.9,1.7,5.2c1.1,1.3,2.6,1.9,4.4,1.9
				c1.5,0,2.8-0.7,4-2c1.1-1.3,1.7-3,1.7-5.3c0-3.4-1.1-5.1-3.3-5.3c-1.5-0.1-2.3-0.7-2.3-1.8c0-1.2,0.4-2,1.4-2.4
				c0.3-0.1,0.7-0.2,1.1-0.2c0.9,0,1.8,0.2,2.6,0.7c2.9,1.7,4.4,4.5,4.4,8.4c0,3.2-1,5.8-2.8,7.8c-1.9,2.1-4.4,3.2-7.6,3.2
				c-3.3,0-5.9-1.1-7.7-3.2c-1.8-2.1-2.8-4.8-2.8-8.2c0-6.3,2.2-11.3,6.5-15.1c4.3-3.8,9.7-5.7,16.2-5.7c4.5,0,9.5,0.4,15,1.1
				c5.5,0.8,10.2,1.2,14.1,1.2c6.3,0,10.5-1.1,12.5-3.2c2.1-2.1,3.1-4.2,3.1-6.1c0-1.9-0.7-2.9-2.1-2.9c-2.3,0-3.5,1.2-3.8,3.6
				c-0.1,1.5-0.8,2.3-2.2,2.3c-1.3,0-2-0.8-2-2.4c0-1.9,0.9-3.6,2.7-5.3c1.5-1.4,3.3-2,5.3-2c2.6,0,4.5,0.7,5.6,2.1
				c0.8,1.1,1.2,2.3,1.2,3.9c0,4-1.9,7.5-5.8,10.7c-3.9,3.2-9.5,4.8-16.6,4.8c-3.2,0-6.5-0.2-10.1-0.5c0.9,2.5,2.1,7.7,3.8,15.6
				c2.1,10,3.2,19,3.2,26.8c0,4.5-0.4,8.8-1.1,12.9c-1.7,9.1-5.8,15.2-12.3,18.3c-2.8,1.3-6.2,2-10.4,2
				C41.4,399.1,37.2,396.4,34.7,391.1z"/>
			<path class="st0" d="M101.5,319.2c-1.4,0-2.9,0.5-4.2,1.6c-5.8,4.5-8.7,16.1-8.7,34.8c0,10.5,1.1,20.1,3.2,29
				c0.6-5.4,1.7-10.6,3.3-15.5c2.5-7.8,6-11.6,10.7-11.6c3.3,0,4.9,3.1,4.9,9.3c0,1.4,0,2.8-0.1,4.4c0,1.1-0.1,2.2-0.1,3.5
				c0,5.6,0.9,8.4,2.7,8.4c1.1,0,2.6-1.8,4.4-5.5s3.1-6.4,4-8.4c1.2-2.8,2.4-5.4,3.5-7.6c0.3-0.7,0.8-1,1.5-1c1.2,0,1.8,0.6,1.8,1.7
				c0,0.3,0,0.5-0.2,0.8c-1.9,3.9-2.9,6.2-3.2,6.8c-4.5,10.9-8.2,17.2-11.2,19c-0.9,0.6-2.1,0.9-3.4,0.9c-1.8,0-3.2-0.5-4.2-1.5
				c-1-1-1.8-2.3-2.2-3.9c-0.5-1.6-0.7-3.7-0.7-6.3c0-2.8,0.3-5.7,1-8.6c0.7-2.8,1-5.2,1-7c0-1-0.3-1.5-0.8-1.5
				c-1.5,0-3.2,2.4-5.1,7.1c-2.1,5.5-3.5,11.3-4.2,17.6c-0.3,2.4-0.4,4.5-0.4,6.1v4.1c0,1.4-0.5,2.5-1.6,3.2
				c-0.8,0.6-1.7,0.8-2.6,0.8c-1.5,0-2.6-0.7-3.2-2.1c-0.9-2.3-1.8-4.7-2.4-7.2c-1.8-6.3-2.8-12-3.1-16.8c-0.3-4.6-0.5-8.4-0.5-11.3
				c0-9.8,1-19,3.1-27.7c1.6-6.7,4-11.8,7.3-15.4c2.5-2.7,5.6-4.1,9.3-4.1c2.7,0,4.8,0.9,6.3,2.7c1.5,1.8,2.3,4.2,2.3,7.3
				c0,2.1-0.4,4.4-1.3,6.8c0.7-0.2,1.5-0.3,2.3-0.3c4.7,0,9.9,1.7,15.7,5.2c5.7,3.5,10.2,5.2,13.5,5.2c1.8,0,3.5-0.4,4.9-1.3
				c1.4-0.8,2.6-2.1,3.3-3.9c0.5-1.2,0.8-2.5,0.8-3.9c0-1.7-0.5-3.2-1.5-4.5c-1.1-1.4-2.7-2.1-4.6-2.1c-1.4,0-2.6,0.6-3.6,1.9
				c-0.7,0.8-1,1.5-1,2.1c0,0.2,0.1,0.5,0.3,0.8c0.1,0.3,0.5,0.6,1.1,0.9c0.5,0.3,0.8,0.8,0.8,1.5c0,0.7-0.2,1.3-0.7,1.7
				c-0.5,0.5-1.1,0.7-1.8,0.7c-0.9,0-1.7-0.4-2.3-1.2c-0.7-0.7-1-2.1-1-3.9c0-1.8,0.6-3.4,1.8-4.9c1.8-2.1,3.9-3.2,6.4-3.2
				c3.1,0,5.6,1.1,7.4,3.3c1.4,1.8,2.2,4.1,2.2,7c0,1.7-0.4,3.5-1.1,5.1c-1.1,2.4-2.6,4.2-4.6,5.4c-2.1,1.3-4.3,1.9-6.9,1.9
				c-4.6,0-9.7-1.7-15.5-5.2c-5.8-3.5-10.4-5.2-13.7-5.2c-1.8,0-3.3,0.7-4.8,2.1c-0.7,1.2-1.2,2-1.6,2.5c-0.4,0.6-0.9,0.8-1.4,0.8
				c-0.3,0-0.6-0.1-0.9-0.2c-0.6-0.3-0.9-0.8-0.9-1.5c0-1.2,0.7-2.5,1.9-3.7c2-3.6,2.9-7,2.9-10.2
				C106,321.2,104.6,319.2,101.5,319.2z"/>
			<path class="st0" d="M126.6,384c-2.8-2.4-4.1-6.2-4.1-11.5c0-4.9,1.3-9.5,4-13.8c1.7-2.7,4-4.6,6.9-5.6c0.9-0.3,1.8-0.4,2.8-0.4
				c2.1,0,3.9,0.6,5.2,1.8c1.4,1.3,2.1,2.7,2.1,4.3c0,1.1-0.2,2.2-0.6,3.2c-1.6,4.4-4.3,7.8-8.3,10.3c-0.3,0.2-0.6,0.3-0.9,0.3
				c-0.7,0-1.1-0.3-1.5-0.9c-0.1-0.3-0.2-0.6-0.2-0.9c0-0.7,0.3-1.1,0.8-1.5c3.3-2.1,5.5-4.9,6.8-8.4c0.3-0.7,0.4-1.4,0.4-1.9
				c0-0.7-0.2-1.3-0.6-1.8c-0.4-0.5-1-0.7-1.7-0.7c-0.7,0-1.4,0.3-2.1,0.8c-1.5,1.2-2.8,3.5-3.7,6.7c-0.8,3-1.2,6-1.2,9
				c0,5.7,1.4,8.6,4.4,8.6c2.3,0,4.8-1.6,7.4-4.9c2.7-3.5,5.6-8.6,8.8-15.4c0.3-0.7,0.8-1,1.6-1c0.3,0,0.5,0.1,0.8,0.2
				c0.6,0.3,0.9,0.8,0.9,1.6c0,0.7-1.4,3.6-4.3,8.9c-5.6,10.2-11.2,15.3-16.7,15.3C130.7,386.5,128.5,385.6,126.6,384z"/>
			<path class="st0" d="M150.5,392.9c-0.8-2.2-1.2-5-1.2-8.5c0-3.6,0.3-8.1,0.8-13.4c0.7-7,1.3-11.6,1.9-14.1c1-4,2.4-6,4-6
				c1.4,0,2.1,1.1,2.1,3.4c0,1.9-0.4,3.2-1.2,4.2c-0.1,2.8-0.1,5.3-0.1,7.3c0,2,0,4,0.2,6c0.6-2.8,1.3-5.6,2.2-8.2
				c2.4-7.4,6-11.1,10.7-11.1c1.7,0,2.9,0.7,3.6,1.9c0.7,1.3,1.1,2.5,1.1,3.8s0.1,2.3,0.1,3c0,1.1-0.2,3.4-0.5,7.1
				c2.7-7.2,6.3-10.9,10.8-10.9c1.7,0,2.9,0.5,3.8,1.6c0.8,1.1,1.4,2.5,1.7,4.2c0.3,1.7,0.5,3.7,0.5,5.7c0,2.1-0.1,4.2-0.2,6.2
				c-0.1,2-0.2,3.9-0.2,5.5c0,3.6,0.7,5.4,2.1,5.4c1.3,0,3.7-4,7.2-12.1c2.7-6.3,4.6-10.4,5.6-12.5c0.3-0.7,0.8-1,1.5-1
				c1.2,0,1.8,0.6,1.8,1.7c0,0.3,0,0.5-0.2,0.8c-1.2,2.6-2.3,5.2-3.2,7.7c-2.5,6.5-4.7,11.6-6.8,15.3c-3,5.3-6,7.9-9.2,7.9
				c-2,0-3.6-0.5-4.7-1.6c-1.1-1.1-1.9-2.5-2.4-4.2c-0.5-1.7-0.7-3.6-0.7-5.7c0-3.4,0.4-7.6,1.1-12.6c0.5-3.2,0.7-5.4,0.7-6.7
				c0-1.1-0.3-1.6-0.8-1.6c-1.8,0-3.7,3.2-5.6,9.7c-1.3,4.2-2.1,7.8-2.5,10.5c-0.1,0.7-0.4,1.5-0.7,2.5c-0.4,1-1.4,1.5-3,1.5
				c-1.1,0-2-0.3-2.7-0.9c-1.5-1.3-2.2-3.6-2.2-7c0-3.2,0.8-8.1,2.4-14.6c0.6-2.3,0.9-4.4,0.9-6.3c0-1-0.3-1.5-0.8-1.5
				c-1.5,0-3.2,2.4-5.1,7.1c-2.2,5.8-3.7,12.2-4.4,19c-0.1,0.9-0.1,1.8-0.1,2.6c0,2.3,0.2,4.4,0.7,6.5c0,0.3,0.1,0.6,0.1,0.9
				c0,1.3-0.5,2.3-1.6,3.1c-1.1,0.8-2.3,1.2-3.6,1.2C152.5,395.7,151.2,394.8,150.5,392.9z"/>
			<path class="st0" d="M270.5,404.3c-1.4-1.1-2.5-2.4-3.2-4c-1-2.1-1.4-4.3-1.4-6.7c0-3,0.6-6.1,1.8-9.3c0.3-0.7,0.8-1.1,1.6-1.1
				c0.7,0,1.3,0.3,1.5,0.8c0.2,0.3,0.3,0.6,0.3,0.8c0,0.2,0,0.4-0.1,0.7c-1.1,2.9-1.6,5.6-1.6,8.1c0,1.8,0.4,3.5,1.1,5.2
				c0.4,0.8,1,1.2,1.8,1.2c2.5,0,6.1-3.9,10.9-11.9c5.7-9.4,8.6-18.7,8.6-27.9c0-4.4-1.1-7.7-3.1-9.9c-1.6-1.7-3.5-2.6-5.9-2.8
				c-1.4,0-2.8,0.1-4.4,0.4c-1.8,1.7-3.8,3.1-6,4.2c-2.2,1.1-4.2,1.7-5.9,1.7c-0.5,0-0.9,0-1.3-0.2c-1.1,8.2-1.7,16.8-1.9,25.9
				c-0.1,4.5-0.1,9.5-0.1,15.3c0,0.5-0.2,0.9-0.5,1.2c-0.4,0.4-0.7,0.7-1.2,1c-1.3,0.8-2.3,1.3-3.1,1.3c-0.8,0-1.2,0-1.3,0
				c-1.4,0-2.3-0.7-2.6-2c-2.4-10.8-3.8-20.4-4.2-28.9c-0.4-9.6-0.7-16.5-0.7-20.5c-2.8,4.7-6.1,8-10,9.9c-1.9,1-3.9,1.4-6,1.4
				c-5,0-8.7-2-11-6c-1.6-2.8-2.4-5.9-2.4-9.5c0-4.3,1.1-8.2,3.2-11.8c2.8-4.5,6.5-6.8,11.2-6.8c2.3,0,4.3,0.7,6,2.2
				c1.6,1.5,2.5,3.5,2.5,6.2c0,3.2-1.1,6.1-3.4,8.8c-2.3,2.7-4.9,4-7.6,4c-0.7,0-1.3-0.3-1.7-0.7c-0.5-0.5-0.7-1.1-0.7-1.8
				c0-0.7,0.2-1.3,0.6-1.7c0.4-0.4,0.9-0.6,1.4-0.6c0.4,0,0.8,0,1.2,0.1c0.4,0.1,0.7,0.2,1.1,0.2c1.1,0,2.4-0.9,3.7-2.6
				c1.4-1.7,2-3.6,2-5.6c0-3.2-1.4-4.8-4.4-4.8c-1.8,0-3.4,0.7-4.7,1.9c-1.4,1.3-2.5,3-3.2,5c-0.8,2.1-1.2,3.8-1.4,5.2
				c-0.1,1.4-0.2,2.5-0.2,3c0,4.3,1.1,7.5,3.2,9.7c1.3,1.3,2.9,2,5,2c2.8,0,5.7-1.4,8.7-4.3c4-3.9,6.4-8.5,7.2-13.9
				c0.4-2.5,0.7-5.4,1-8.7c0.5-5.3,1.8-7.9,4-7.9c1.4,0,2.2,1.3,2.2,3.9c0,4.2-0.4,7.6-1.3,10.2c-0.3,0.9-0.4,4.2-0.4,9.8
				c0,12.6,1.5,25.6,4.6,39.1c0.5-38.3,6.5-59.8,17.9-64.6c1.4-0.6,2.6-0.9,3.6-0.9c3.5,0,5.7,1.4,6.7,4.1c0.5,1.3,0.7,2.7,0.7,4.2
				c0,3.3-0.7,6.6-2.1,10c-1.3,3.1-2.8,5.8-4.6,8.2c0.7,0,1.4-0.1,2-0.1c4.9,0,8.8,1.6,11.9,4.7c3.2,3.4,4.7,8.3,4.7,14.8
				c0,2.2-0.2,4.5-0.6,6.8c-1.8,10.7-5.8,20.1-12,28.2c-4,5.2-8.2,7.8-12.8,7.8C273.4,405.9,271.9,405.3,270.5,404.3z M271.8,345.7
				c3.6-2.9,6.5-6.9,8.8-11.9c1.4-3,2.1-6,2.1-8.8c0-2.6-0.8-3.9-2.5-3.9c-1.4,0-3,0.8-4.8,2.4c-1.2,1.1-2.2,2.4-3.2,4.1
				c-2.9,5.1-5,11.9-6.4,20.4C267.2,347.3,269.2,346.6,271.8,345.7z"/>
			<path class="st0" d="M324.8,387.1c-1.1-2-1.6-4.7-1.6-8.3c0-0.8,0-1.6,0.1-2.5c-3.3,6.3-6.7,9.5-10.3,9.5c-3.1,0-5.5-1.6-7.2-4.8
				c-1.2-2.2-1.8-4.8-1.8-7.8c0-2.1,0.3-4.3,0.9-6.4c0.8-3.2,2.3-6,4.5-8.5c2.4-2.8,5.5-4.2,9.4-4.2c1.2,0,2.3,0.2,3.3,0.7
				c2.3,1.1,3.4,2.1,3.4,3.1c0,0.5-0.2,0.9-0.5,1.2c-0.3,0.4-0.8,0.5-1.3,0.5c-0.4,0-1-0.3-1.7-0.8c-0.7-0.5-1.4-0.8-2.1-0.8
				c-1.7,0-3.2,0.8-4.5,2.4c-1.2,1.5-2.1,3.3-2.8,5.4c-0.8,2.5-1.2,4.9-1.2,7.3c0,1.7,0.2,3.2,0.6,4.5c0.5,1.4,1.3,2.2,2.5,2.2
				c1.9,0,4-2.5,6.3-7.4c0.9-1.9,1.8-3.7,2.4-5.3c0.4-0.8,0.9-2.3,1.5-4.5c1.4-4.2,2.4-7.2,3-8.9c0.6-1.6,1.4-2.4,2.5-2.4
				c0.7,0,1.3,0.4,1.8,1.2c0.6,0.8,0.8,2,0.8,3.5c0,1.6-0.4,3.2-1.1,4.9c-0.4,0.8-0.7,1.4-0.9,1.7c-0.1,4.2-0.1,7.4-0.1,9.3
				c0,7.4,1.1,11,3.4,11c1.4,0,3.3-2.6,5.7-7.9c0.9-2,1.8-4,2.7-6c1.2-2.8,2.4-5.4,3.5-7.6c0.3-0.7,0.8-1,1.5-1
				c1.2,0,1.8,0.6,1.8,1.7c0,0.3,0,0.5-0.2,0.8c-1.9,3.9-2.9,6.2-3.2,6.8c-1,2.5-2.1,5.1-3.4,7.7c-4.2,8.8-8.4,13.2-12.4,13.2
				C328,390.7,326.1,389.5,324.8,387.1z"/>
			<path class="st0" d="M348,384c-2.8-2.7-4.2-6.5-4.2-11.5c0-4.9,1.3-9.5,4-13.8c1.7-2.7,4-4.6,6.9-5.6c0.9-0.3,1.8-0.4,2.7-0.4
				c2.5,0,4.5,0.5,5.9,1.6c1.4,1.1,2.1,2.4,2.1,3.9c0,0.6-0.2,1.1-0.6,1.5c-0.4,0.4-1,0.7-1.5,0.7c-1.4,0-2.2-0.7-2.2-2.2
				c0-0.5-0.1-0.9-0.4-1.3c-0.3-0.4-0.7-0.5-1.4-0.5c-0.6,0-1.1,0.1-1.6,0.4c-1.9,1.3-3.4,3.7-4.4,7.3c-0.9,3.1-1.3,6.1-1.3,9
				c0,1.8,0.2,3.5,0.5,5.2c0.5,2.4,1.7,3.6,3.6,3.6c4.5,0,10-6.8,16.5-20.4c0.3-0.7,0.8-1,1.6-1c0.3,0,0.5,0,0.7,0.2
				c0.7,0.3,1.1,0.8,1.1,1.5c0,0.7-1.4,3.7-4.4,9c-5.6,10.2-11.1,15.3-16.7,15.3C352.1,386.5,349.8,385.6,348,384z"/>
			<path class="st0" d="M379.4,355.5c0,10.5,1.1,20.2,3.2,29.1c0.7-5.4,1.8-10.6,3.4-15.6c2.4-7.4,5.9-11,10.5-11
				c1.7,0,3.1,0.7,4.3,2.1c1.2,1.4,1.8,3.4,1.8,5.8c0,4.9-1,9.1-2.9,12.4c-1.5,2.7-3.6,4.4-6.3,5.2c0.1,2.6,0.7,4.6,1.7,6.1
				c1,1.5,1.8,2.3,2.6,2.3c3.2,0,8.2-8.6,15-25.7c0.7-1.6,1.4-3.2,2.1-4.8c0.3-0.7,0.8-1,1.5-1c0.3,0,0.5,0,0.8,0.2
				c0.7,0.3,1,0.8,1,1.5c0,0.3-0.4,1.4-1.1,3.1c-4.9,11.8-8.7,19.9-11.6,24.2c-2.7,4-5.3,6-7.8,6c-3.1,0-5.4-1.3-7.1-3.9
				c-1.9-2.9-2.8-5.9-2.8-9c0-1.2,0.5-1.8,1.6-1.8c1.5,0,3.2-1.7,4.9-5.1c1.7-3.4,2.6-7.4,2.6-12c0-1.8-0.5-2.8-1.5-2.8
				c-1.5,0-3.2,2.4-5.1,7.1c-1.6,4.2-2.8,8.5-3.5,13.2c-0.8,4.7-1.2,8.5-1.2,11.5c0,0.5,0,1,0.1,1.6c0.1,0.6,0.1,1.1,0.1,1.5
				c0,0.4,0,0.7-0.2,1.1c-0.4,1.1-1,1.8-1.8,2.3c-0.8,0.4-1.6,0.7-2.3,0.7c-1.5,0-2.6-0.7-3.2-2.2c-0.9-2.3-1.7-4.7-2.4-7.1
				c-1.8-6.3-2.8-12-3.1-16.7c-0.3-4.8-0.5-8.6-0.5-11.3c0-7.4,0.6-14.5,1.7-21.3c-3.1-1.7-6.4-4.2-9.8-7.4
				c-7.4-6.9-13.1-10.3-17.1-10.3c-5,0-8.3,1.8-10,5.5c-0.5,1.1-0.8,2.3-0.8,3.6c0,1.4,0.5,2.7,1.4,3.7c0.9,1.1,2.1,1.6,3.4,1.6
				c1.7,0,3-0.7,3.9-1.9c0.4-0.5,0.6-1,0.6-1.4c0-0.9-0.3-1.6-0.7-2.1c-0.5-0.6-0.8-1.1-0.8-1.5c0-0.5,0.2-1,0.5-1.5
				c0.4-0.4,0.9-0.7,1.6-0.7c0.7,0,1.3,0.2,1.8,0.7c0.3,0.3,0.6,0.7,0.7,1.1c0.4,1.1,0.7,2.1,0.7,3.1c0,1.5-0.5,3-1.5,4.3
				c-1.6,2.3-3.9,3.5-6.8,3.5c-2.4,0-4.4-0.9-6-2.6c-1.4-1.5-2.2-3.6-2.2-6.2c0-1.7,0.4-3.3,1.1-4.9c2.5-5.4,7.2-8.1,14.2-8.1
				c5.3,0,11.6,3.5,19.1,10.6c2.8,2.7,5.4,4.9,7.8,6.5c0.1-0.6,0.3-1.2,0.4-1.8c1.6-6.7,4-11.8,7.3-15.4c2.5-2.7,5.6-4.1,9.3-4.1
				c2.7,0,4.8,0.9,6.3,2.7c1.5,1.8,2.3,4.4,2.3,7.7c0,4.3-1.4,8.4-4.4,12.4c-2.9,4-7,6-12.1,6c-1.4,0-2.8-0.2-4.3-0.6
				C379.6,347.1,379.4,351.2,379.4,355.5z M392.3,319.2c-1.4,0-2.9,0.5-4.2,1.6c-3.9,3.1-6.5,9.3-7.8,18.9c1.5,0.7,2.9,1,4.2,1
				c3.8,0,6.8-1.6,9.1-4.7c2.2-3.1,3.3-6.5,3.3-10.2C396.9,321.4,395.4,319.2,392.3,319.2z"/>
		</g>
	</g>
	<path class="st0" d="M71.8,159.3c0-0.4,0-0.7,0.2-0.9c0.2-0.2,0.4-0.3,0.7-0.3c0.3,0,0.5,0,0.8,0.2c0.3,0.1,0.4,0.4,0.5,0.7
		c0.2,0.9,0.4,1.8,0.7,2.7c0.3,0.9,0.4,1.8,0.4,2.8c0,0.4-0.1,0.6-0.4,0.8c-0.3,0.2-0.5,0.3-0.8,0.3c-0.3,0-0.6-0.1-0.8-0.3
		c-0.3-0.2-0.4-0.4-0.5-0.8c-0.2-0.9-0.3-1.8-0.4-2.7C72.1,161,72,160.2,71.8,159.3z M38,145.5c-0.4,0.3-0.6,0.7-0.9,1.2
		c-0.2,0.5-0.5,0.9-0.7,1.4c-0.3,0.5-0.5,0.9-0.9,1.2c-0.3,0.3-0.8,0.5-1.3,0.6c-0.3,0-0.5,0-0.8-0.2c-0.3-0.1-0.5-0.4-0.6-0.7
		c-0.2-0.5-0.2-1.1,0-1.7c0.2-0.6,0.5-1.1,0.9-1.6c0.4-0.5,0.8-1,1.3-1.4c0.5-0.4,0.9-0.8,1.4-1c0.4-0.2,0.7-0.3,1.1-0.2
		c0.3,0.1,0.6,0.2,0.8,0.5c0.2,0.2,0.3,0.5,0.3,0.8C38.5,144.8,38.3,145.2,38,145.5z M45.9,150.2c0.4-0.3,0.7-0.3,1.1,0
		c0.3,0.3,0.4,0.7,0.3,1.1c-0.6,1.2-1.1,2.5-1.5,3.8c-0.4,1.2-0.9,2.5-1.4,3.7c-0.4,1-0.8,1.9-1.3,2.8c-0.5,0.9-1.3,1.6-2.3,1.9
		c-0.4,0.1-0.7,0.1-0.9-0.2c-0.2-0.2-0.3-0.5-0.4-0.8c0-1.2,0.4-2.4,1-3.6c0.6-1.2,1.2-2.3,1.7-3.4c0.5-1,1-1.9,1.5-2.9
		C44.4,151.8,45.1,150.9,45.9,150.2z M53.9,156.8c0-0.2,0.1-0.4,0.2-0.6c0.2-0.2,0.3-0.3,0.5-0.3c0.2,0,0.4,0,0.5,0.1
		c0.2,0.1,0.3,0.3,0.3,0.5c0.2,1.8,0.5,3.6,0.8,5.6c0.4,1.9,0.6,3.8,0.8,5.7s0.3,3.8,0.3,5.7s-0.3,3.7-0.9,5.5
		c-0.2,0.7-0.6,1.1-1.1,1.3c-0.6,0.2-1.1,0.1-1.6-0.1c-0.5-0.2-1-0.6-1.3-1.1c-0.3-0.5-0.4-1.1-0.1-1.8c0.5-1.6,1-3.2,1.2-4.9
		c0.3-1.7,0.4-3.5,0.5-5.2c0.1-1.7,0.1-3.5,0-5.2C54,160.1,53.9,158.4,53.9,156.8z"/>
	<path class="st0" d="M193,173.2c-1.8-0.3-3.4-0.9-4.6-1.7c-1.3-0.9-2.2-1.8-3-2.9c-0.7-1.1-1.2-2-1.5-2.8c-0.1-0.2-0.1-0.4-0.2-0.7
		c-0.6-2.5-1.5-4.2-2.7-5.2c-1.1-1-2.7-1.3-4.6-1c-1.7,0.3-3.5,0.3-5.3-0.1c-1.8-0.3-3.5-1.2-5-2.6c-1.5-1.4-2.6-3.6-3.4-6.6
		c-0.3-1.2-0.6-2-1-2.6c-0.4-0.6-0.7-0.9-1.1-1.1c-0.4-0.2-0.6-0.3-0.8-0.3c-0.7-0.1-1.2-0.5-1.6-1c-0.4-0.6-0.5-1.2-0.4-1.9
		c0.2-0.7,0.5-1.3,1.1-1.6c0.6-0.4,1.2-0.5,1.9-0.4c1.2,0.2,2.5,0.8,3.8,1.9c1.3,1.1,2.3,3,3.1,5.7c0.2,1.1,0.6,2.1,1.1,3.1
		c0.5,1,1.3,1.7,2.4,2.2c1.1,0.5,2.6,0.6,4.6,0.3c1.5-0.3,3.1-0.2,4.8,0.1s3.2,1.3,4.7,2.8s2.6,3.8,3.4,6.9c0,0,0,0.1,0,0.1
		c0,0.1,0.1,0.2,0.1,0.3c0,0,0.1,0.2,0.3,0.6c0.2,0.4,0.5,0.8,0.8,1.3c0.4,0.5,0.9,0.9,1.5,1.3c0.6,0.4,1.4,0.7,2.3,0.8
		c0.7,0.1,1.3,0.4,1.7,1c0.4,0.5,0.6,1.2,0.5,1.9c-0.1,0.6-0.3,1.1-0.7,1.5c-0.4,0.4-0.9,0.6-1.5,0.7
		C193.4,173.2,193.2,173.2,193,173.2z M228.5,180.8c-1.8-0.3-3.4-0.9-4.6-1.7c-1.3-0.9-2.2-1.8-3-2.9c-0.7-1.1-1.2-2-1.5-2.8
		c-0.1-0.2-0.1-0.4-0.2-0.7c-0.6-2.5-1.5-4.2-2.7-5.2c-1.1-1-2.7-1.3-4.6-1c-1.7,0.3-3.5,0.3-5.3,0c-1.8-0.3-3.5-1.2-5-2.6
		s-2.7-3.6-3.4-6.6c-0.3-1.2-0.6-2-1-2.6s-0.7-0.9-1.1-1.1c-0.4-0.2-0.6-0.3-0.8-0.3c-0.7-0.1-1.2-0.5-1.6-1
		c-0.4-0.6-0.5-1.2-0.4-1.9c0.1-0.7,0.5-1.3,1-1.6c0.6-0.4,1.2-0.5,1.9-0.4c1.3,0.2,2.5,0.8,3.8,1.9c1.3,1.1,2.3,3,3,5.7
		c0.2,1.1,0.6,2.1,1.1,3.1c0.5,1,1.3,1.7,2.4,2.2s2.6,0.6,4.6,0.3c1.5-0.3,3.1-0.2,4.8,0.1c1.7,0.4,3.2,1.3,4.7,2.8
		c1.4,1.5,2.6,3.8,3.4,6.9c0,0,0,0.1,0.1,0.1c0,0.1,0,0.2,0,0.3c0,0,0.1,0.2,0.3,0.6c0.2,0.4,0.5,0.8,0.8,1.3
		c0.4,0.5,0.9,0.9,1.5,1.3c0.6,0.4,1.4,0.7,2.3,0.8c0.7,0.1,1.3,0.4,1.7,1c0.4,0.5,0.6,1.2,0.5,1.9c-0.1,0.6-0.3,1.1-0.7,1.5
		c-0.4,0.4-0.9,0.6-1.5,0.7C228.9,180.8,228.7,180.8,228.5,180.8z"/>
	<path class="st0" d="M365.2,269.3c1.3,0.3,2.3,0.7,3.2,1.3c0.8,0.6,1.5,1.2,2,1.9c0.1,0.1,0.4,0.6,0.9,1.3c0.5,0.8,0.8,1.9,0.9,3.3
		c0.1,1.4-0.1,3.1-0.7,5.2c-0.6,2.1-1.9,4.5-3.8,7.3c0.2-0.1,0.3-0.3,0.4-0.5c0.1-0.2,0.2-0.3,0.2-0.5c-1.1,1.7-2.4,3.3-4.1,4.9
		c-4.7,4.6-10.2,7.8-16.5,9.6c-2.9,0.9-5.8,1.7-8.8,2.3c-3,0.7-5.9,1.3-8.9,2c-1.3,0.2-2.3,1-3,2.3c-1.9,3.4-4,6.6-6.4,9.6
		c-2.3,3-5.3,5.5-8.8,7.5c-2,1.2-4.1,2-6.3,2.4c-2.2,0.4-4.5,0.3-6.9-0.4c-1.6-0.5-3-1.3-4-2.4c-1-1-1.7-2.2-2.1-3.6
		c-0.4-1.3-0.4-2.7,0-4.2c0.4-1.5,1.1-2.8,2.2-4.1c2.2-2.5,4.7-4.2,7.5-5.2c2.8-0.9,5.8-1.7,8.8-2.2c1.5-0.2,2.9-0.4,4.4-0.4
		c1.5-0.1,2.9-0.2,4.4-0.4c0.5-0.1,1-0.3,1.5-0.6c0.5-0.4,0.8-0.7,1-1c0.3-0.8,0.6-1.7,1-2.7c0.3-0.8,0.7-1.8,1.2-3
		c0.5-1.2,1.1-2.5,1.7-3.9c-0.2,0-0.3,0-0.4-0.1c-0.1,0-0.2,0-0.3,0c-2.4-0.5-4.4-1.8-6.1-3.8c-1.1-1.1-1.9-2.3-2.3-3.6
		c-0.4-1.3-0.5-2.8-0.2-4.5c0.1,0,0.1-0.2,0.1-0.4c0-0.1,0-0.2,0.1-0.2c0,0,0-0.1,0.1-0.2c0.2-1.1,0.6-2,1.4-2.8
		c0.7-0.8,1.6-1.3,2.5-1.7c0.9-0.4,1.9-0.6,3-0.5c1,0,2,0.4,2.9,1c0.8,0.6,1.4,1.4,1.6,2.4c0.2,1,0.1,2-0.4,2.8
		c-0.6,1.1-1.5,1.2-2.6,0.5c-0.9-0.7-0.9-1.5-0.1-2.2c0.3-0.5,0.5-0.8,0.5-1c-0.1-0.3-0.5-0.6-1.3-1c-1.2-0.5-2.5-0.4-3.8,0.4
		c-1.3,0.8-2.1,1.8-2.4,3.2c0,1.2,0.2,2.4,0.8,3.6c0.6,1.2,1.3,2.2,2.2,3c0.8,0.6,1.8,1,2.9,1.2c1.1,0.3,2.2,0.4,3.4,0.4
		c1.1-2.4,2.4-4.9,3.8-7.5c1.4-2.5,2.9-4.9,4.5-7.2c1.4-2.1,2.9-3.9,4.6-5.4c1.4-1.3,3-2.3,4.7-3c1.7-0.7,3.6-0.9,5.5-0.8
		c1.4,0.1,2.5,0.5,3.5,1.1c0.9,0.6,1.6,1.3,2.1,2.2c0.5,0.9,0.9,1.8,1.1,2.8c0.2,1,0.3,2,0.1,2.9c-0.3,2.6-0.9,5-1.9,7.1
		c-1,2.2-2.3,4-3.9,5.6c-1.6,1.6-3.5,2.8-5.5,3.8c-2.1,1-4.3,1.6-6.6,1.9c-1.7,0.2-3.1,0.5-4.3,1c-1.2,0.4-2.3,1.2-3.1,2.3l-1.7,3.8
		c0,0.2-0.1,0.4-0.1,0.5c-0.1,0.1-0.2,0.2-0.2,0.4l-1.1,2.3c0.1,0.1,0.3,0.2,0.4,0.3l5.4-0.9c4.8-0.9,9.4-2.3,13.7-4.2
		c4.3-1.9,8.3-4.5,12-7.7c0.7-0.7,1.4-1.4,2.1-2.1c0.7-0.7,1.4-1.5,2-2.3c0.8-1,1.4-2,2-2.9c0.5-0.9,1-1.8,1.4-2.5
		c0-0.2,0.1-0.4,0.3-0.5c0.9-2,1.2-3.7,0.9-5.1c0-0.7-0.2-1.3-0.4-1.8c-0.2-0.5-0.5-0.9-0.7-1.1c-0.1-0.2-0.3-0.3-0.4-0.5
		c-0.2-0.2-0.4-0.4-0.7-0.6c-0.3-0.1-0.6-0.2-0.8-0.3c-0.2-0.1-0.5-0.2-0.8-0.3c-1-0.3-1.8-0.2-2.6,0.2c-0.6,0.3-0.9,0.6-1.1,1
		c0,0.1,0,0.2-0.1,0.2c0,0,0,0.1-0.1,0.2l0,0.6c0.1,0.1,0.2,0.2,0.4,0.2c0.2,0.1,0.3,0.1,0.4,0l0.1-0.2c0.1-0.2,0.2-0.4,0.4-0.3
		c0.9-0.2,1.6,0.1,2.1,1l0.1,0.1c0.3,0.7,0.3,1.4-0.1,2.2c-0.3,0.6-0.7,1-1.3,1.2c-0.8,0.1-1.7-0.2-2.6-1c-1.6-1.3-2.2-2.8-1.8-4.4
		c0-0.3,0.2-0.7,0.4-1.3c0.3-0.6,0.9-1.3,1.7-2C362.5,269.5,363.7,269.1,365.2,269.3z M314.5,317.4c1.1-1.3,2.1-2.7,3-4.2
		c0.9-1.5,1.8-2.9,2.8-4.4l-0.5-0.6c-3.4,0-6.8,0.2-10,0.7c-3.2,0.5-6.3,1.7-9.3,3.5c-1.4,0.9-2.6,1.9-3.7,3
		c-1.1,1.1-1.8,2.6-2.2,4.3c-0.3,2.1,0.1,3.7,1.3,4.9c1.2,1.2,2.8,1.5,4.9,1C306.2,324.4,310.7,321.7,314.5,317.4z M334.7,292.9
		c0.7,0.2,1.2,0.2,1.5,0.3c0.3,0,0.6,0.1,0.8,0.1c4.3,0,7.9-0.9,10.8-3c2.9-2,5.3-4.8,7.2-8.5c0.5-0.9,0.9-1.9,1.1-3
		c0.2-1.1,0.3-2.2,0.4-3.2c0-1.2-0.3-2.2-0.8-3.1c-0.5-0.9-1.2-1.4-2-1.8c-1.5,0-2.9,0.1-4.3,0.4c0.2-0.1,0.4-0.2,0.6-0.2
		c0.2-0.1,0.4-0.1,0.5-0.2c-0.2,0-0.3,0.1-0.5,0.2c-0.2,0.1-0.4,0.2-0.6,0.2c-1,0.5-1.9,1.2-2.7,2.1c-0.8,0.9-1.5,1.6-2,2.3
		c-1.5,2.6-3,5.1-4.5,7.7c-1.5,2.6-3,5.2-4.7,8L334.7,292.9z"/>
	<path class="st0" d="M382.1,68.2c0.9,1,1.6,2.1,2,3.1c0.4,1,0.6,2,0.6,2.9c0,0.2,0,0.7-0.1,1.7c-0.1,1-0.5,2.2-1.2,3.5
		c-0.7,1.3-2,2.7-3.8,4.2c-1.8,1.5-4.4,2.8-7.9,4.1c0.2,0,0.4-0.1,0.6-0.2c0.2-0.1,0.3-0.2,0.5-0.3c-2,0.8-4.2,1.4-6.7,1.8
		c-7,1.2-13.9,0.6-20.6-1.6c-3.1-1-6.2-2.1-9.3-3.3c-3.1-1.3-6.1-2.5-9.1-3.7c-1.3-0.6-2.6-0.5-4.1,0.2c-3.8,1.8-7.6,3.4-11.6,4.6
		c-3.9,1.2-8.1,1.7-12.5,1.3c-2.5-0.2-4.9-0.8-7.1-1.7c-2.2-1-4.2-2.5-5.9-4.6c-1.1-1.5-1.8-3-2.1-4.6c-0.3-1.6-0.2-3.1,0.3-4.5
		c0.5-1.4,1.3-2.7,2.5-3.7c1.2-1.1,2.7-1.9,4.5-2.3c3.5-0.9,6.8-0.9,9.9,0c3.1,0.9,6.2,2,9.2,3.4c1.4,0.7,2.8,1.5,4.2,2.3
		c1.3,0.9,2.7,1.6,4.2,2.3c0.5,0.3,1,0.4,1.7,0.3c0.6,0,1.1-0.1,1.5-0.3c0.7-0.5,1.6-1.1,2.6-1.7c0.8-0.5,1.8-1.2,2.9-2
		c1.2-0.8,2.5-1.6,3.9-2.4c-0.2-0.1-0.3-0.2-0.3-0.3c0-0.1-0.1-0.1-0.3-0.2c-1.8-2-2.8-4.3-3.1-7.1c-0.3-1.6-0.3-3.2,0.2-4.6
		c0.4-1.4,1.3-2.8,2.6-4.1c0.1,0,0.2-0.1,0.3-0.3c0.1-0.1,0.1-0.1,0.2-0.1c0,0,0.1,0,0.2-0.1c0.8-0.8,1.8-1.4,2.9-1.6
		c1.1-0.2,2.2-0.2,3.3,0c1.1,0.2,2.1,0.7,3,1.4c0.9,0.7,1.6,1.6,2,2.7c0.4,1,0.4,2.1-0.1,3.1c-0.5,1-1.2,1.8-2.1,2.3
		c-1.2,0.6-2.1,0.2-2.6-1.2c-0.3-1.2,0.1-1.9,1.3-2.1c0.6-0.2,0.9-0.4,1.1-0.6c0.1-0.3-0.1-0.9-0.5-1.7c-0.8-1.2-2-1.9-3.6-2
		c-1.6-0.1-3,0.4-4.1,1.4c-0.8,1.1-1.3,2.3-1.5,3.7c-0.2,1.4-0.2,2.8,0.1,4.1c0.4,1,1,2,1.8,2.9c0.8,0.9,1.8,1.7,2.8,2.5
		c2.5-1.5,5.2-2.9,8-4.3c2.8-1.4,5.6-2.6,8.4-3.6c2.6-1,5-1.7,7.4-2c2.1-0.3,4.1-0.2,6.1,0.2c1.9,0.5,3.8,1.4,5.4,2.7
		c1.2,1,2,2,2.4,3.1c0.5,1.1,0.6,2.2,0.6,3.3c-0.1,1.1-0.3,2.1-0.8,3.2c-0.4,1-1,1.9-1.7,2.7c-1.8,2.2-3.9,3.9-6.1,5.2
		c-2.2,1.3-4.5,2.1-6.9,2.5c-2.4,0.4-4.8,0.4-7.3,0c-2.4-0.4-4.8-1.2-7-2.4c-1.6-0.8-3.1-1.4-4.5-1.8c-1.4-0.4-2.8-0.3-4.2,0.1
		l-3.9,2.3c-0.1,0.2-0.3,0.3-0.4,0.3c-0.1,0.1-0.3,0.1-0.4,0.2l-2.4,1.4c0.1,0.1,0.1,0.3,0.2,0.6l5.4,2.5c4.9,2.2,9.8,3.7,14.7,4.7
		c5,0.9,10.1,1.1,15.5,0.5c1-0.2,2.1-0.4,3.2-0.6c1.1-0.2,2.1-0.5,3.2-0.8c1.3-0.4,2.5-0.9,3.6-1.4c1.1-0.5,2-1,2.8-1.4
		c0.1-0.2,0.3-0.3,0.5-0.3c2-1.3,3.3-2.6,3.9-3.9c0.4-0.6,0.6-1.3,0.7-1.8c0.1-0.6,0.1-1.1,0.1-1.4c0-0.2,0-0.5-0.1-0.7
		c0-0.3-0.1-0.6-0.2-1c-0.2-0.3-0.4-0.5-0.5-0.7c-0.2-0.2-0.4-0.5-0.5-0.7c-0.7-0.8-1.5-1.3-2.4-1.5c-0.7-0.1-1.2,0-1.6,0.3
		c-0.1,0.1-0.1,0.1-0.2,0.1s-0.1,0.1-0.2,0.1l-0.4,0.5c0,0.2,0.1,0.3,0.3,0.4c0.1,0.2,0.2,0.3,0.4,0.3l0.2-0.1
		c0.2-0.2,0.4-0.2,0.6-0.1c0.9,0.4,1.4,1.1,1.2,2.2l0,0.1c-0.2,0.8-0.6,1.4-1.4,1.9c-0.6,0.4-1.3,0.5-1.9,0.3
		c-0.8-0.4-1.4-1.2-1.7-2.5c-0.6-2.1-0.2-3.8,1.1-5c0.2-0.2,0.6-0.6,1.2-0.9c0.6-0.4,1.6-0.6,2.8-0.7
		C379.5,66.7,380.9,67.1,382.1,68.2z M307.3,79.7c1.8-0.5,3.5-1.1,5.2-1.8c1.7-0.7,3.4-1.5,5.2-2.2l-0.1-0.9c-3-2.1-6.1-4-9.3-5.5
		c-3.2-1.5-6.7-2.4-10.4-2.5c-1.8-0.1-3.5,0.1-5.2,0.4c-1.7,0.3-3.2,1.2-4.6,2.5c-1.6,1.7-2.2,3.4-1.9,5.2c0.3,1.8,1.6,3.1,3.7,3.9
		C295.6,80.9,301.4,81.3,307.3,79.7z M340.4,70.4c0.5,0.6,0.9,1,1.2,1.2c0.3,0.2,0.5,0.4,0.7,0.6c3.8,2.7,7.6,4,11.4,4
		c3.8,0,7.7-1,11.6-3.1c1-0.5,2-1.1,2.8-2c0.9-0.8,1.6-1.7,2.3-2.6c0.7-1.1,1.1-2.1,1.2-3.2c0.1-1.1-0.1-2-0.7-2.8
		c-1.3-0.9-2.7-1.7-4.1-2.3c0.2,0.1,0.5,0.1,0.7,0.2c0.2,0.1,0.4,0.1,0.6,0.2c-0.2-0.1-0.4-0.1-0.6-0.2c-0.2-0.1-0.5-0.1-0.7-0.2
		c-1.2-0.2-2.5-0.1-3.7,0.1c-1.2,0.3-2.3,0.5-3.2,0.8c-2.9,1.4-5.8,2.7-8.7,4.1c-2.9,1.4-5.9,2.8-9.1,4.2L340.4,70.4z"/>
	<path class="st0" d="M166.9,327.9c-1.9-0.6-3.8-1.4-5.7-2.4c-2-1-3.8-2.2-5.5-3.5c-1.7-1.3-3.3-2.8-4.6-4.4
		c-1.4-1.6-2.4-3.3-3.1-5.1c-0.7-1.8-1-3.7-0.9-5.7c0.1-2,0.8-4,2.1-6c0.2-0.3,0.5-0.6,0.9-0.8c0.4-0.2,0.9-0.3,1.3-0.3
		c0.4,0,0.9,0.1,1.3,0.2c0.4,0.2,0.8,0.4,1,0.8c1.2,1.8,2.2,3.6,3,5.3c0.8,1.7,1.6,3.3,2.6,4.8c0.9,1.5,2.1,2.8,3.5,4
		c1.4,1.2,3.3,2.2,5.8,3c1.8,0.6,3.6,1,5.5,1.5c1.9,0.4,3.7,0.8,5.6,1.2c1.9,0.4,3.7,0.8,5.5,1.3c1.8,0.5,3.6,1.1,5.3,1.9
		c2,0.9,3.8,1.8,5.2,2.8c1.5,1,2.8,2.1,3.9,3.3c1.2,1.2,2.3,2.5,3.3,3.9c1.1,1.4,2.2,3,3.4,4.7c0.7,0.9,1.4,1.9,2.1,2.8
		c0.7,0.9,1.3,1.9,1.7,2.9c0.4,1,0.7,2,0.8,2.9c0.1,1-0.2,2-0.7,3l0,0.1c-0.1,0.4-0.3,0.7-0.7,1c-0.4,0.4-0.9,0.6-1.5,0.5
		c-0.6-0.1-1-0.4-1.1-1c-1.4-0.7-2.8-1.6-4.1-2.6c-1.3-1-2.7-1.8-4.2-2.5c-1-0.4-2-0.8-3-1.1c-1-0.3-2.1-0.5-3.1-0.6
		c-1.7-0.1-2.3,0.2-1.9,1.1c0.5,1.3,0.6,2.3,0.3,3.2c-0.3,0.9-0.9,1.5-1.6,1.9c-0.8,0.4-1.6,0.6-2.6,0.6c-1,0-1.9-0.2-2.7-0.6
		s-1.4-1-1.8-1.9c-0.4-0.8-0.4-1.9,0.1-3.1c0.6-1.6,1.4-2.8,2.5-3.7c1-0.9,2.2-1.4,3.5-1.7c1.3-0.3,2.7-0.3,4.3-0.2
		c1.5,0.2,3,0.5,4.6,0.9c1.1,0.3,2.5,0.8,4.2,1.5c1.8,0.7,3.4,1.5,5,2.6c-0.4-1.7-1-3.2-2-4.6c-0.9-1.4-2.4-2.8-4.5-4.2
		c-1.7-1.1-3.5-1.8-5.4-2.2c-1.9-0.4-3.8-0.7-5.8-1.2c-3.6-0.7-7.2-1.3-10.9-2C174,329.9,170.4,329,166.9,327.9z"/>
	<path class="st0" d="M156.5,97.4c-0.6,0.1-1.2,0-1.8-0.4c-0.6-0.3-0.8-0.8-0.8-1.4c-0.1,0-0.2-0.3-0.3-0.6
		c-0.1-0.4-0.2-0.6-0.3-0.7c-0.3-0.5-0.5-0.9-0.7-1.3c-0.2-0.4-0.5-0.8-0.7-1.2c-0.6-0.9-1.2-1.6-2-2.2c-0.8-0.6-1.7-1.1-2.6-1.6
		c-0.9-0.4-1.8-0.8-2.7-1.2c-0.9-0.4-1.8-0.9-2.7-1.3c-0.1,0.1-0.4,0.1-0.7,0.2l-0.2,0c-0.4,0.1-0.8,0-1.2-0.3
		c-0.9-0.3-1.9-0.3-2.9-0.2c-1,0.1-2,0.3-2.9,0.6s-2,0.6-2.9,1c-0.9,0.4-1.8,0.7-2.6,1c-2,0.6-4.1,1.3-6.1,2.1s-4.1,1.2-6.2,1.3
		c-1.5,0.1-3.1,0.1-4.6-0.1c-1.6-0.2-3-0.6-4.4-1.2c-1.4-0.6-2.6-1.4-3.8-2.4c-1.1-1-2-2.3-2.6-3.9c-0.8-2.1-1-4.3-0.7-6.6
		c0.3-2.3,1-4.4,2.2-6.2c1.1-1.8,2.6-3.2,4.5-4.1c1.9-0.9,3.9-1.1,6.3-0.5c-0.7-1.2-1.2-2.7-1.3-4.2c-0.1-1.6,0-3.1,0.4-4.7
		c0.4-1.5,1-2.9,1.8-4.2c0.8-1.3,1.8-2.3,3-2.9c1.9-1.1,3.8-1.7,5.7-1.9s3.7,0,5.4,0.7c1.7,0.6,3.2,1.7,4.5,3.1
		c1.3,1.4,2.3,3.1,3.1,5.1c0.9-0.4,1.9-0.7,2.9-0.9c1-0.3,2-0.4,3-0.4c1.8-0.1,3.8,0.1,5.7,0.7c2,0.6,3.6,1.6,4.7,3.1
		c0.3-1,0.8-1.9,1.5-2.8c0.7-0.9,1.5-1.7,2.3-2.4s1.8-1.4,2.7-1.9c1-0.5,1.9-0.9,2.7-1.2c1.5-0.4,3.1-0.4,4.5-0.2
		c1.5,0.3,2.9,0.8,4.2,1.7c1.3,0.8,2.5,1.8,3.5,3c1,1.2,1.9,2.4,2.6,3.7c1.6,3.2,2.1,6.4,1.4,9.5c-0.7,3.2-2.1,6.2-4.1,8.9
		c-1.1,1.6-2.4,3.2-3.7,4.6s-2.6,3-3.8,4.5c-1.3,1.6-2.5,3.3-3.6,5c-1.2,1.7-2.4,3.4-3.6,5c-0.3,0.4-0.7,0.6-1.2,0.7
		C157.2,97.6,156.8,97.6,156.5,97.4z M126.9,84.1c1.2-0.4,2.5-0.9,3.8-1.4c1.3-0.5,2.7-0.9,4.1-1.2c-1.4-0.9-2.7-2-4-3.3
		s-2.2-2.7-2.9-4.2c-0.7-1.5-1.1-3.1-1.2-4.8c-0.1-1.7,0.3-3.4,1.2-5.1c0.5-1,1.1-2,1.9-2.8c0.7-0.9,1.6-1.6,2.4-2.3
		c-0.5-1.3-1.2-2.6-2.2-3.8s-2.1-2.1-3.4-2.7c-1.3-0.6-2.6-0.9-4-0.8s-2.8,0.7-4.2,1.9c-1.1,1-1.8,2-2.2,3.2
		c-0.4,1.2-0.6,2.4-0.6,3.6c0,1.2,0.1,2.5,0.4,3.8c0.3,1.3,0.5,2.5,0.8,3.7c0.1,0.4,0,0.6-0.3,0.8s-0.6,0.1-0.9-0.1
		c-0.1-0.1-0.3-0.2-0.4-0.2c-0.1-0.1-0.2-0.1-0.4-0.2c-2.3-0.6-4.5-0.4-6.4,0.6c-2,1-3.4,2.7-4.2,5c-0.4,0.9-0.6,2-0.7,3.1
		c-0.1,1.1,0,2.2,0.1,3.2c0.2,1,0.5,2,1.1,2.9c0.5,0.9,1.2,1.7,2.1,2.4c1.6,1.1,3.2,1.8,4.9,2c1.7,0.2,3.4,0.1,5.2-0.1
		c1.8-0.3,3.5-0.7,5.2-1.4C123.7,85.2,125.3,84.6,126.9,84.1z M116.2,72.3c-0.3,0.4-0.7,0.7-1.3,0.9c-0.6,0.2-1.2,0.5-1.6,0.6
		c-0.6,0.3-1.2,0.5-1.8,0.8c-0.6,0.3-1.2,0.6-1.8,0.9c-0.2,0.2-0.4,0.1-0.5-0.1c-0.1-0.2-0.1-0.4,0.1-0.6c0.6-0.5,1.1-1,1.7-1.4
		s1.2-0.8,1.9-1.2c0.4-0.2,0.9-0.6,1.6-0.9c0.6-0.4,1.2-0.4,1.6,0C116.4,71.6,116.5,71.9,116.2,72.3z M118.8,72.6
		c0.5,0,0.8,0.2,0.9,0.6c0.1,0.4,0,0.7-0.5,0.9c-0.7,0.4-1.4,0.7-2.1,0.9s-1.3,0.7-2,1.1c-0.2,0.2-0.4,0.1-0.6-0.1
		c-0.2-0.2-0.2-0.4-0.1-0.6c0.6-0.6,1.2-1.2,1.9-1.9S117.9,72.6,118.8,72.6z M121.2,74.9c0.5-0.2,0.9-0.1,1.1,0.4
		c0.3,0.4,0.2,0.8-0.2,1.1c-0.3,0.3-0.7,0.5-1.2,0.6c-0.4,0.1-0.9,0.2-1.4,0.3c-0.3,0-0.5-0.1-0.7-0.3s-0.1-0.5,0.2-0.7
		c0.4-0.2,0.7-0.4,1-0.7C120.4,75.3,120.8,75,121.2,74.9z M123.6,76.2c0.3,0,0.6,0,0.8,0.2c0.2,0.2,0.2,0.4,0.1,0.6
		c-0.1,0.5-0.3,0.8-0.6,0.9c-0.3,0.1-0.6,0.3-0.9,0.5c-0.4,0.2-0.7,0.1-0.9-0.3c-0.2-0.4-0.2-0.7,0.1-1c0.2-0.2,0.4-0.3,0.6-0.6
		C123,76.4,123.3,76.2,123.6,76.2z M122.7,55.7c0.2,0.3,0.2,0.5,0.1,0.7c-0.1,0.2-0.3,0.4-0.5,0.5c-0.2,0.1-0.4,0.3-0.6,0.5
		c-0.4,0.5-0.7,1-0.9,1.5c-0.2,0.3-0.4,0.4-0.6,0.3s-0.4-0.3-0.3-0.6c0-0.2,0.2-0.5,0.4-0.9c0.2-0.4,0.4-0.8,0.7-1.2
		c0.2-0.4,0.5-0.7,0.8-0.8C122,55.4,122.4,55.4,122.7,55.7z M125.6,56.3c0.3,0,0.6,0.2,0.7,0.4c0.2,0.3,0.1,0.5-0.2,0.7
		c-0.2,0.2-0.4,0.3-0.6,0.4c-0.2,0.1-0.4,0.3-0.6,0.4c-0.3,0.2-0.6,0.6-0.8,1c-0.2,0.3-0.4,0.3-0.6,0.1c-0.2-0.2-0.3-0.4-0.2-0.7
		c0.2-0.5,0.5-1.1,0.9-1.6S125,56.3,125.6,56.3z M126.9,59.3c-0.3,0.2-0.6,0.1-0.8-0.2c-0.2-0.3-0.2-0.5,0.1-0.8
		c0.2-0.2,0.4-0.3,0.6-0.5c0.1-0.1,0.4-0.2,0.7-0.1c0.2,0.1,0.3,0.2,0.3,0.4c0,0.3-0.1,0.5-0.3,0.6C127.4,59,127.2,59.2,126.9,59.3z
		 M151.1,85.6c1.3,0.8,2.2,1.6,3,2.5c0.7,0.9,1.5,2,2.2,3.3l0.8,1.2c1.5-2.1,3-4.1,4.4-6.1c1.4-2,2.9-4,4.5-6c0.8-0.9,1.7-2,2.6-3
		c0.9-1.1,1.7-2.2,2.5-3.4c0.8-1.2,1.4-2.4,1.9-3.7c0.5-1.3,0.8-2.6,0.8-3.9c0-1.2-0.2-2.5-0.6-3.9c-0.4-1.3-1.1-2.6-1.9-3.8
		c-0.8-1.2-1.8-2.2-2.9-3c-1.1-0.8-2.4-1.3-3.7-1.4c-1.2-0.1-2.3,0.1-3.5,0.6c-1.2,0.5-2.3,1.1-3.3,2c-1,0.8-1.9,1.8-2.5,2.9
		c-0.7,1.1-1.1,2.3-1.2,3.4c-0.1,0.5-0.4,0.8-1,0.9c-0.6,0.1-1-0.1-1.2-0.7c0-0.1-0.1-0.2-0.1-0.3c-1.7-2-3.8-3.3-6.1-4
		c-2.4-0.6-4.8-0.5-7.4,0.5c-1.3,0.5-2.5,1.1-3.6,1.9c-1.1,0.8-2.1,1.7-2.8,2.9c-0.7,1.1-1.2,2.3-1.4,3.6c-0.2,1.3,0.1,2.7,0.8,4.1
		c0.9,1.9,2.1,3.4,3.7,4.6c1.6,1.2,3.3,2.3,5.2,3.2c1.9,0.9,3.8,1.8,5.7,2.7C147.7,83.7,149.5,84.6,151.1,85.6z M132.6,29.8
		c0-0.5,0.2-0.9,0.5-1.2c0.3-0.3,0.7-0.5,1.1-0.5s0.8,0,1.2,0.2c0.4,0.2,0.6,0.6,0.6,1.1c0,2.1,0,4.2,0.1,6.3c0,2.1,0,4.2,0,6.3
		c0,0.3,0,0.4-0.2,0.4c-0.2,0-0.3-0.1-0.4-0.3c-0.6-2-1.2-4-1.7-6C133.1,34,132.7,31.9,132.6,29.8z M144.2,63.6
		c0.4,0,0.7,0.2,0.8,0.6c0.1,0.4-0.1,0.7-0.6,0.8c-1.1,0.3-2,0.6-3,1.1c-0.9,0.4-1.8,1-2.7,1.6c-0.2,0.2-0.4,0.1-0.6-0.1
		c-0.2-0.2-0.1-0.4,0.1-0.6c0.8-0.6,1.7-1.3,2.7-2.1C142,64.1,143.1,63.7,144.2,63.6z M147,66.4c0.3,0,0.5,0.1,0.7,0.3
		c0.1,0.3,0.1,0.5-0.2,0.7c-0.5,0.4-1,0.7-1.7,0.9c-0.6,0.2-1.3,0.5-1.9,0.7c-0.3,0.2-0.5,0.1-0.6-0.2c-0.1-0.3-0.1-0.5,0.2-0.7
		c0.5-0.3,1.1-0.6,1.7-1C145.7,66.6,146.3,66.4,147,66.4z M148.8,70.6c-0.2,0.2-0.4,0.2-0.5,0.3c-0.2,0-0.3,0.1-0.4,0.3
		c-0.5,0.2-0.8,0.3-1,0.4c-0.4,0.2-0.6,0.1-0.8-0.2c-0.2-0.3-0.2-0.6,0.1-0.8c0.3-0.3,0.7-0.6,1.1-0.9s0.8-0.4,1.3-0.3
		c0.3,0.1,0.5,0.3,0.7,0.6C149.2,70.2,149.1,70.4,148.8,70.6z M148.9,73.1c0.1,0,0.2,0.1,0.3,0.1s0.2,0.1,0.3,0.2
		c0.1,0.2,0.1,0.5,0.1,0.7c-0.1,0.2-0.3,0.3-0.5,0.4c-0.1,0.1-0.3,0.1-0.4,0.1c-0.2,0-0.3,0-0.4,0c-0.3,0-0.5-0.2-0.6-0.5
		c0-0.3,0.1-0.6,0.4-0.7C148.2,73.2,148.5,73.1,148.9,73.1z M155.6,28.5c-0.4,1.1-1,2.2-1.9,3.3c-0.9,1-1.7,2.1-2.5,3.1
		c-1.3,1.6-2.4,3.3-3.4,5c-1,1.7-2.1,3.4-3.2,5c-0.1,0.2-0.3,0.2-0.5,0.1c-0.2-0.1-0.3-0.3-0.2-0.4c0.6-1.9,1.5-3.8,2.6-5.7
		c1.1-1.8,2.1-3.7,3-5.6c0.5-1.1,1-2.2,1.4-3.3c0.5-1.1,1-2.1,1.8-3.1c0.3-0.4,0.7-0.6,1-0.7c0.4,0,0.7,0.1,1,0.3s0.6,0.5,0.7,0.9
		C155.7,27.7,155.7,28,155.6,28.5z M150.6,76.7c0.1,0,0.2,0,0.2,0.1s0,0.2-0.2,0.2c-0.1,0-0.2,0-0.2-0.1S150.5,76.7,150.6,76.7z
		 M154.5,47.6c-0.2,0.2-0.4,0.1-0.5-0.1s-0.2-0.4,0-0.5c0.4-0.5,0.9-1,1.4-1.4c0.5-0.4,0.9-0.9,1.4-1.4c0.4-0.5,0.9-1,1.4-1.4
		c0.5-0.5,0.9-1,1.2-1.5c0.3-0.5,0.7-0.7,1.1-0.8c0.4,0,0.8,0.1,1.1,0.3c0.3,0.2,0.5,0.6,0.6,1c0.1,0.4-0.1,0.8-0.5,1.1
		c-1.2,0.9-2.4,1.7-3.6,2.3C156.7,45.9,155.6,46.7,154.5,47.6z M161.2,85.3c-0.2-0.1-0.3-0.2-0.3-0.4c0-0.2,0.1-0.3,0.2-0.4l0.1,0
		c0.3-0.2,0.5-0.1,0.5,0.3C161.8,85.3,161.7,85.4,161.2,85.3L161.2,85.3z M159.2,65.7c-0.2,0.2-0.4,0.3-0.7,0.1
		c-0.2-0.2-0.2-0.4-0.1-0.7c0.6-1,1.4-1.9,2.4-2.9c0.3-0.4,0.7-0.7,1.2-1s1-0.5,1.5-0.6c0.4,0,0.7,0.1,0.9,0.4l0.1,0.1
		c0.2,0.4,0.2,0.7-0.1,1c-0.1,0.2-0.3,0.3-0.5,0.4c-0.2,0.1-0.4,0.1-0.6,0.2c-0.3,0.2-0.6,0.3-0.8,0.5c-0.2,0.2-0.5,0.3-0.8,0.5
		c-0.5,0.3-0.9,0.6-1.4,0.9C160,64.8,159.6,65.2,159.2,65.7z M162.1,82.1c0.3-0.1,0.5-0.1,0.7,0.1c0.2,0.2,0.2,0.4,0.1,0.6
		c-0.1,0.1-0.2,0.3-0.5,0.5c-0.5,0.2-0.9,0-0.9-0.5c0-0.4,0.1-0.6,0.6-0.7L162.1,82.1L162.1,82.1z M162,67.6
		c-0.2,0.2-0.5,0.1-0.7-0.1c-0.2-0.2-0.2-0.4,0-0.6c0.6-0.8,1.3-1.5,2-2.1s1.6-1.2,2.5-1.5c0.4-0.2,0.8-0.1,1.1,0.2
		c0.1,0.2,0.2,0.4,0.2,0.7c-0.1,0.3-0.3,0.5-0.6,0.7c-0.9,0.2-1.6,0.6-2.3,1.2C163.5,66.6,162.7,67.1,162,67.6z M165.5,76.1
		c0.2,0,0.4,0.1,0.5,0.3c0.2,0.2,0.1,0.4,0,0.5c-0.1,0.1-0.2,0.3-0.3,0.3c-0.1,0.1-0.2,0.2-0.4,0.2c-0.1,0.1-0.3,0.3-0.7,0.5
		c-0.3,0.3-0.6,0.2-0.9-0.2c-0.1-0.1-0.2-0.2-0.2-0.4c0-0.1,0.1-0.3,0.2-0.4C164.3,76.5,164.9,76.2,165.5,76.1z M165.3,67.5
		c0.3-0.3,0.7-0.6,1.1-0.8c0.4-0.2,0.9-0.3,1.3-0.1c0.4,0.1,0.5,0.3,0.3,0.7c-0.2,0.4-0.5,0.7-0.9,0.9c-0.4,0.2-0.8,0.4-1.2,0.6
		l-2.1,1.4c-0.2,0.2-0.5,0.1-0.7-0.1c-0.2-0.2-0.2-0.4,0-0.6c0.3-0.4,0.6-0.8,1-1.1C164.5,68.2,164.9,67.9,165.3,67.5z M164.3,72.5
		c0.1-0.1,0.3-0.2,0.6-0.5c0.3-0.3,0.5-0.5,0.9-0.7c0.3-0.2,0.6-0.3,0.9-0.4c0.3,0,0.5,0.1,0.6,0.3c0.2,0.5-0.1,1-0.8,1.4
		s-1.3,0.6-1.6,0.7c-0.3,0.1-0.5,0-0.7-0.2C164.1,72.9,164.1,72.7,164.3,72.5z"/>
</g>
</svg>
