<?xml version="1.0" encoding="utf-8"?>
<!-- Generator: Adobe Illustrator 22.0.1, SVG Export Plug-In . SVG Version: 6.00 Build 0)  -->
<svg version="1.1" id="Layer_1" xmlns="http://www.w3.org/2000/svg" xmlns:xlink="http://www.w3.org/1999/xlink" x="0px" y="0px"
	 viewBox="0 0 432 432" style="enable-background:new 0 0 432 432;" xml:space="preserve">
<style type="text/css">
	.st0{fill:#231F20;}
</style>
<g>
	<g>
		<g>
			<path class="st0" d="M33.5,140.3c-0.7,0-1.1-0.4-1.2-1.1c0-0.4,0.2-0.7,0.7-1c0.2-0.2,0.5-0.3,0.8-0.4c0.3-0.1,0.5-0.3,0.5-0.6
				c0-0.3-0.1-0.7-0.2-1.2c-0.8-6-1.2-12-1.2-18c0-4.2,0.1-8.3,0.4-12.4c0.3-4.8,0.7-9.6,1.1-14.3c0.1-1.5,0.4-2.9,0.7-4.2l0.4-2.1
				c0-0.2-0.2-0.3-0.6-0.5c-0.6-0.3-0.9-0.6-0.9-1c0-1.3,2.2-2,6.8-2c2,0,3.4,0.2,4,0.6c0.3,0.2,0.4,0.5,0.5,1
				c0,0.4-0.1,0.7-0.4,0.9c-0.2,0.2-0.5,0.4-0.8,0.4c-0.3,0.1-0.5,0.3-0.5,0.6c-0.1,3.2-0.2,6.3-0.5,9.2c-0.3,3.6-0.5,7.4-0.5,11.4
				c0.2-0.2,0.3-0.4,0.4-0.6c0-0.2,0.1-0.3,0.1-0.3c1.5-4.3,3.4-8.4,5.7-12.3c2.1-3.5,4.3-5.2,6.6-5.2c1.5,0,2.7,0.8,3.6,2.3
				c1.1,2.4,1.7,7.2,1.7,14.3c0,3.7-0.2,8.5-0.6,14.3c0.2-0.2,0.4-0.6,0.5-1.1c2.1-7.8,4.6-15.4,7.5-22.8c0.9-2.2,1.7-3.9,2.3-5.1
				c1.8-3.6,3.7-5.4,5.8-5.4c1.3,0,2.6,0.7,3.6,2c1.6,2.3,2.3,5.6,2.3,10.1c0,2.2-0.2,4.3-0.5,6.6c-1.2,9.2-1.8,18.4-1.8,27.7
				c0,3.9,0.1,6,0.1,6.2c0,0.2,0.2,0.3,0.4,0.4c0.2,0.1,0.6,0.2,1,0.3c0.5,0.1,0.8,0.2,1.2,0.4c0.3,0.2,0.5,0.5,0.5,0.9
				c0,0.4-0.2,0.8-0.5,1c-0.6,0.4-1.9,0.6-3.9,0.6c-1.8,0-3.1-0.1-3.8-0.3c-0.4-0.1-0.7-0.3-0.9-0.4c-0.2-0.2-0.3-0.5-0.3-0.9
				c0-0.4,0.2-0.7,0.5-0.8c0.3-0.1,0.7-0.2,1-0.3c0.4-0.1,0.7-0.1,0.9-0.2c0.3-0.1,0.4-0.3,0.4-0.6l-0.1-5.9c0-5.1,0.2-9.3,0.4-12.7
				c0.2-3.4,0.6-7.9,1.3-13.5c0.4-3,0.6-5.7,0.6-8.2c0-0.9-0.1-1.7-0.1-2.6c0-0.8-0.2-1.7-0.4-2.6c-0.2-0.9-0.5-1.7-0.8-2.4
				c-0.3-0.7-0.7-1-1.2-1c-0.5,0-0.9,0.3-1.3,1c-0.4,0.6-0.8,1.4-1.2,2.2c-1.8,3.5-3.2,7.1-4.4,10.6c-4,11.3-7.2,22.8-9.5,34.7
				l-0.1,0.4c0,0.3,0.3,0.6,0.8,0.6c0.9,0.1,1.7,0.3,2.6,0.7c0.8,0.4,1.3,1,1.3,1.8c0,0.3-0.1,0.6-0.4,0.9c-0.2,0.3-0.5,0.4-0.9,0.4
				l-0.4-0.1c-2.6-0.6-5.3-1.1-8-1.4c-1-0.2-1.6-0.6-1.6-1.2s0.5-1.1,1.4-1.3c0.5-0.1,0.8-0.2,1.1-0.4c0.3-0.2,0.4-0.7,0.4-1.5
				c0.1-4.9,0.3-9.8,0.6-14.6c0.4-5.6,0.6-11.2,0.6-16.8c0-8.4-0.6-12.6-1.9-12.6c-0.7,0-1.7,0.9-2.9,2.7c-4.6,7.1-8,15.8-10.1,26.1
				c-0.1,0.6-0.2,1.3-0.2,1.9L42,132.3c0,2.6,0,3.9,0,4.1c0,0.2-0.1,0.3-0.1,0.4c0,0.4,0.2,0.7,0.7,0.9c0.5,0.2,0.7,0.6,0.7,1.2
				c-0.1,0.6-0.4,1-0.8,1.2c-0.9,0.3-1.7,0.4-2.6,0.4L33.5,140.3z M38.4,125.3c0.3-0.4,0.5-0.8,0.5-1.2c-0.1-1-0.6-1.6-1.6-1.6
				c-0.5,0-0.9,0.2-1.2,0.6c-0.3,0.4-0.5,0.8-0.5,1.3c0,0.4,0.2,0.8,0.5,1c0.3,0.3,0.7,0.4,1.1,0.4C37.7,125.9,38,125.7,38.4,125.3z
				 M38,118.6l0.1-4.3c0-4.1,0.1-8.2,0.3-12.3c0.2-4.2,0.6-8.4,1.3-12.6l0.8-3.6c0-0.4-0.3-0.7-0.8-0.7c-0.4,0-0.6,0.2-0.8,0.7
				c0,0.1,0,0.3-0.1,0.5c-1,4.3-1.6,8.8-1.9,13.4c-0.3,4.6-0.4,9-0.4,13.1v6.2c0,0.6,0.3,0.9,0.8,0.9C37.7,119.7,38,119.4,38,118.6z
				"/>
			<path class="st0" d="M100.2,142.1c-2.2-0.4-3.7-1.6-4.6-3.6c-1-2.2-1.8-5.2-2.3-9c0-0.3-0.2-0.5-0.5-0.5c-0.6,0-1.2,0.1-1.8,0.3
				c-0.6,0.2-1.3,0.2-2.2,0.3c-0.6,0-1-0.1-1.2-0.4c-0.2-0.2-0.3-0.6-0.4-1.1c0-0.3,0.1-0.6,0.3-0.9c0.2-0.3,0.5-0.5,0.8-0.6
				l2.6-0.7c2.2-0.6,4.3-1.1,6.6-1.2c1.4,0,2.1,0.5,2.2,1.4c0,0.6-0.3,1.1-0.9,1.3c-1.4,0.4-2.1,0.6-2.2,0.7
				c-0.1,0.1-0.1,0.2-0.1,0.5l1.1,4.7c0.1,0.7,0.3,1.4,0.5,2.1c0.2,0.7,0.5,1.4,0.9,2.1c0.4,0.7,0.9,1,1.4,1c0.6,0,1.3-0.3,2-0.9
				c0.7-0.6,1.3-1.3,1.8-2.2c1.5-3.3,2.3-7.6,2.5-12.7c0-1.7,0.1-4,0.1-6.9c0-6.1,0.1-11.8,0.2-16.9c0-0.2,0-0.4-0.1-0.6l-3.1,8.1
				c-0.7,1.9-1.6,3.9-2.6,5.9c-1,2-2.1,3.8-3.4,5.2c-1.2,1.4-2.6,2.2-4,2.2c-1.5,0-2.6-0.8-3.5-2.3c-0.8-1.5-1.4-3.4-1.8-5.6
				c-0.3-2.2-0.5-4.4-0.5-6.5c0-4.1,0.4-9.6,1.3-16.6c0.2-1.1,0.3-2,0.3-2.6c0-0.3-0.2-0.4-0.6-0.4l-3.4-0.2c-0.9,0-1.3-0.5-1.4-1.2
				c0-0.7,0.4-1.2,1.1-1.4c0.7-0.2,1.8-0.3,3.1-0.3c1.4-0.1,2.8-0.2,4.2-0.2c0.8,0,1.6,0,2.4,0c0.8,0,1.4,0.2,2,0.4
				c0.6,0.2,0.8,0.7,0.8,1.3c0,0.7-0.3,1.2-0.9,1.4c-0.6,0.2-1.2,0.3-1.9,0.3l-1.5-0.1c-0.2,0-0.4,0-0.5,0.1
				c-0.1,0.1-0.2,0.2-0.2,0.5c-0.1,2.5-0.3,5-0.6,7.6c-0.3,2.2-0.5,4.4-0.6,6.6l-0.1,4.8c0,2.5,0.2,4.9,0.7,7.4l0.1,0.1
				c0.2,0.7,0.4,1.4,0.6,2.1c0.3,0.7,0.6,1.1,1,1.1c0.2,0,0.3-0.1,0.5-0.3c1-0.9,1.7-1.8,2.3-2.9c1.9-3.2,3.4-6.6,4.6-10.1
				c3-7.7,4.6-11.7,4.8-12c0.3-0.5,0.5-0.9,0.5-1.2s-0.5-0.4-1.6-0.4c-0.7,0-1.3-0.1-1.8-0.2c-0.5-0.2-0.8-0.6-0.8-1.3
				c0-0.6,0.5-1.1,1.4-1.2l4.6-0.5l2.9-0.5c1.2-0.3,2.5-0.5,3.9-0.6c0.6,0,1,0.1,1.3,0.4c0.2,0.3,0.4,0.7,0.5,1.3
				c0,0.3-0.1,0.7-0.3,1c-0.2,0.3-0.5,0.5-0.9,0.6c-0.4,0.1-0.7,0.3-0.8,0.6c-0.1,0.3-0.2,0.6-0.2,1c-0.1,3.7-0.3,7.3-0.6,11
				l-0.3,6.2c-0.1,4.8-0.4,9.7-0.8,14.5c-0.2,4.4-1,8.7-2.2,13c-1.5,5.1-4.8,7.6-10,7.6H100.2z M109.4,128.2
				c0.2-0.3,0.4-0.7,0.4-1.2c0-0.5-0.1-0.9-0.4-1.1c-0.3-0.3-0.6-0.4-0.9-0.4c-0.8,0.1-1.2,0.5-1.2,1.1c0,1.5,0.4,2.2,1.1,2.2h0.1
				C108.9,128.7,109.2,128.5,109.4,128.2z M109.9,122.8c0.5-3.9,0.7-7.6,0.7-11.4c0-2.2,0.1-4.5,0.2-6.9c0-3.8,0-6,0.1-6.8l0.4-7.8
				c0-0.7-0.3-1-0.8-1c-0.5,0-0.7,0.3-0.8,1l-0.3,8.3c-0.2,3.3-0.3,6.7-0.3,10v2.1c0,5.2-0.2,9.3-0.7,12.3v0.3
				c0,0.6,0.3,0.9,0.8,0.9C109.6,123.7,109.8,123.4,109.9,122.8z"/>
			<path class="st0" d="M138.1,140c-0.3-0.2-0.4-0.5-0.5-1c0-0.6,0.3-1,0.9-1.2c0.6-0.2,0.9-0.6,0.9-1.1l-0.1-2.7
				c-0.2-1.9-0.3-4.1-0.3-6.5l0.1-3.8c0-0.6-0.2-1-0.5-1.3c-0.3-0.2-0.5-0.5-0.5-0.9c0-0.3,0.2-0.7,0.5-1c0.3-0.3,0.5-0.7,0.5-1.1
				c0-6.1,0.2-11.3,0.5-15.7c0.3-4.4,1.1-8.7,2.3-12.8c1-3.8,2.7-6.7,4.9-8.7c1.2-1.1,2.6-1.6,4.2-1.6c0.4,0,0.8,0,1,0
				c0.2,0,0.4,0.1,0.6,0.1c0.2,0,0.4,0.1,0.7,0.2c0.3,0.1,0.8,0.2,1.5,0.5c2.1,0.5,3.6,1.7,4.5,3.8c1,2.1,1.7,4.2,2.1,6.3
				c0.5,2.1,0.7,4.3,0.7,6.5c0,1,0,1.7-0.1,2.3c0,0.6-0.1,1.2-0.2,1.9c-0.1,0.6-0.1,1.5-0.2,2.7c0,0.3,0.2,0.5,0.5,0.5
				c0.8,0,1.3,0.2,1.7,0.5c0.2,0.2,0.3,0.5,0.3,1c0,0.6-0.3,1.1-0.9,1.4c-0.6,0.3-1.2,0.5-1.8,0.5l-4.9,0.3c-1.2,0-1.8-0.5-1.9-1.4
				c0-0.5,0.2-0.9,0.6-1.1c0.4-0.2,0.8-0.4,1.4-0.5c0.5-0.1,0.8-0.2,0.9-0.2c0.1,0,0.1-0.1,0.2-0.2c0.1-1.2,0.2-2.3,0.5-3.4
				c0.3-1.4,0.5-2.9,0.5-4.3c0-3.8-0.8-7.3-2.3-10.7c-0.4-0.8-1-1.2-1.8-1.2c-0.4,0-0.8,0.2-1.2,0.5c-2.4,1.9-3.9,4.5-4.5,7.6
				c-1.2,6-1.9,12-2.1,18.2l-0.1,6.8c0,0.4,0.2,0.6,0.7,0.6c0.7,0,1.5,0.1,2.2,0.4c0.8,0.3,1.1,0.7,1.1,1.4c-0.1,1.1-1,1.7-2.7,1.7
				H147c-0.2,0-0.3,0.2-0.3,0.5l-0.1,2.7c0,6.8,0.3,10.3,1,10.7c0.5,0.3,0.7,0.7,0.7,1.2c0,0.5-0.3,1-0.9,1.4
				c-0.6,0.3-1.2,0.4-1.8,0.5c-3.8,0.3-5.9,0.4-6.4,0.4C138.7,140.3,138.3,140.1,138.1,140z M143.4,117.8c0.2-0.3,0.3-0.6,0.3-1
				c0-0.6-0.4-1-1-1.1c-0.3,0-0.5,0.1-0.7,0.3c-0.2,0.2-0.3,0.5-0.3,0.9c0,0.3,0.1,0.6,0.2,0.9c0.1,0.2,0.4,0.4,0.8,0.4
				C142.9,118.2,143.2,118.1,143.4,117.8z M143.4,112.5c0.1-0.2,0.1-0.5,0.2-0.7c0-2.6,0.2-5.2,0.5-7.6l0.1-1.4
				c0.6-5.6,2.3-10.9,5.2-15.7c0.2-0.3,0.4-0.6,0.7-0.9c0.2-0.3,0.6-0.5,1-0.6c0.4-0.2,0.6-0.4,0.6-0.7c0-0.2-0.1-0.4-0.2-0.6
				c-0.1-0.2-0.3-0.3-0.5-0.3c-0.2,0-0.4,0.1-0.6,0.2c-0.9,0.3-1.6,1-2.1,1.8c-2.4,3.9-4,7.8-4.9,11.9c-0.9,4.1-1.3,8.7-1.3,13.9
				c0,0.3,0,0.6,0.1,0.8c0.1,0.2,0.3,0.3,0.7,0.3C143.2,112.8,143.4,112.7,143.4,112.5z"/>
			<path class="st0" d="M185.7,138.6c0-0.6,0.5-1.1,1.4-1.4c0.2-0.1,0.4-0.2,0.4-0.3c0.1-0.1,0.1-0.2,0.1-0.5l-0.5-10.3
				c0-0.3-0.1-0.6-0.2-0.7c-0.1-0.1-0.3-0.2-0.6-0.2l-2.7-0.1c-3.4,0-6.7,0.2-10.1,0.5c-0.7,0-1.1,0-1.4,0.1
				c-0.3,0.1-0.5,0.2-0.6,0.5c-0.1,0.2-0.4,3.4-1.1,9.4c0,0.3,0.2,0.5,0.5,0.5c0.3-0.1,0.6-0.1,1-0.1l1,0.1c0.9,0.1,1.4,0.6,1.5,1.6
				c0,0.5-0.2,0.9-0.6,1.4c-0.4,0.4-0.9,0.6-1.6,0.6c-0.6,0-1.3,0-2,0.1c-0.7,0-1.8,0.1-3.1,0.1l-0.3-0.1c-0.6,0-1-0.3-1.4-0.8
				c-0.2-0.2-0.3-0.5-0.3-0.7c0-0.8,0.4-1.3,1.1-1.3c0.7-0.1,1.1-0.3,1.2-0.6c0.1-0.4,0.2-0.8,0.2-1.3c0-2.7,0.2-5.6,0.6-8.9
				c0-0.2-0.2-0.4-0.6-0.6c-0.6-0.3-0.8-0.7-0.8-1c0-0.7,0.3-1.1,0.9-1.2c0.6-0.1,0.9-0.4,0.9-0.9c1.9-14,5.3-25,10.2-33
				c2.6-4.4,5.3-6.6,8-6.6c2.2,0,3.8,1.5,4.9,4.5c0.5,1.3,0.8,2.6,1,4c0.5,3.6,0.8,7.2,0.8,10.9v3.1c0,3.4,0.2,7.4,0.6,11.9
				c0.3,4.2,0.6,10.3,0.8,18.2c0,0.3,0.1,0.6,0.2,0.8c0.1,0.2,0.4,0.3,0.7,0.3c1,0.1,1.5,0.6,1.6,1.6c0,0.7-0.3,1.2-1,1.5
				c-0.7,0.2-1.5,0.4-2.4,0.5l-6.6,0.3C186.4,140,185.7,139.6,185.7,138.6z M182.6,121.9l3.4,0.1c0.4,0,0.6-0.1,0.8-0.2
				c0.1-0.1,0.2-0.3,0.2-0.6c-1.3-18.1-2.1-29.3-2.4-33.6l-0.4,0.3c-3.6,4.7-6.3,10-8.1,15.9c-1.8,5.9-3.1,12-3.9,18.2
				c0,0.2,0,0.3,0.1,0.4c0.1,0,0.2,0.1,0.4,0.1C176,122.1,179.4,121.9,182.6,121.9z M191.2,118.7l-0.8-12.9
				c-0.1-1.8-0.2-3.6-0.4-5.4c-0.2-1.8-0.3-3.6-0.4-5.4l-0.1-2.4c-0.1-1-0.2-2.1-0.2-3.1v-0.7c0-0.5-0.3-0.8-0.8-0.8
				c-0.5,0.1-0.7,0.4-0.7,0.9v1.8c0.4,5.3,0.7,10.2,1,14.7c0.6,9,1,13.6,1.1,13.8c0.1,0.2,0.3,0.4,0.7,0.4
				C191,119.5,191.2,119.2,191.2,118.7z M192,126.5c0.3-0.4,0.5-0.8,0.5-1.4c0-1.1-0.5-1.6-1.5-1.6c-0.4,0-0.8,0.2-1.1,0.5
				c-0.3,0.3-0.4,0.7-0.4,1.2c0.1,1.3,0.5,1.9,1.4,1.9C191.3,127.1,191.7,126.9,192,126.5z"/>
			<path class="st0" d="M210.4,139c-1.6-1.9-2.8-3.9-3.5-6.1c-0.7-2.2-1.2-4.5-1.5-6.8c-0.9-5.6-1.4-11.3-1.5-16.9
				c-0.3-4.8-0.5-9.6-0.5-14.4c0-3.9,0.1-6.1,0.1-6.6c0-0.6-0.4-1.1-1.2-1.2c-0.8-0.2-1.2-0.7-1.2-1.6c0.1-0.9,0.6-1.4,1.3-1.7
				c0.8-0.3,1.9-0.5,3.4-0.7c2.4-0.4,4.5-0.6,6.3-0.6c0.5,0,1,0,1.5,0c0.5,0,1,0.2,1.5,0.4s0.8,0.7,0.8,1.4c0,0.7-0.4,1.2-1.1,1.5
				c-0.4,0.1-0.7,0.5-0.7,1c-0.5,5.9-0.8,11.9-0.8,17.8c0,4.6,0.2,10,0.6,16.1c0.3,6,0.6,10.3,1,13l0.3,2.2c0.6-0.6,1.1-1.2,1.5-1.9
				c1.7-2.8,3-5.8,4-9c3.5-10.7,6.3-21.6,8.3-32.7c0.2-1,0.4-2,0.6-3c0.2-0.9,0.4-1.9,0.6-3c0-0.2-0.2-0.3-0.6-0.3l-2.3,0.1
				c-1.2-0.1-1.9-0.7-1.9-1.8c0-0.4,0.2-0.8,0.5-1.2c0.5-0.5,2.9-0.8,7-0.8c1.4,0,2.8,0.1,4.3,0.3c1.4,0.2,2.2,0.7,2.2,1.7
				c0,0.7-0.3,1.1-0.8,1.3c-0.6,0.2-1.8,0.3-3.8,0.3c-0.6,0-0.9,0.3-0.9,0.8c-1.9,9.4-3.5,17.1-4.9,22.9c-1.5,6.2-3.4,12.5-5.6,19
				c-0.9,2.3-2,4.6-3.3,6.9c-1.9,3.4-3.9,5.1-6.2,5.1C212.5,140.5,211.4,140,210.4,139z M209.6,126.7l-0.1-0.4c-0.7-3-1.1-6-1.2-9
				l-0.1-1.3c-0.1-1.7-0.1-3.4-0.1-5.1c0-5.8,0.4-11.7,1.2-17.5c0.3-2,0.5-4,0.6-6c0-0.6-0.2-0.8-0.6-0.8c-0.6,0-0.9,0.4-0.9,1
				l-0.2,2.7c-1,7.1-1.5,14.5-1.6,22.1c0,2.4,0.2,5.2,0.5,8.4l0.1,0.8c0.1,1.8,0.4,3.5,0.8,5.3c0.2,0.5,0.4,0.8,0.8,0.8h0.2
				C209.3,127.4,209.6,127.1,209.6,126.7z M210.7,131.2c0.3-0.3,0.4-0.7,0.4-1.1c0-0.8-0.4-1.2-1-1.2c-0.4,0-0.8,0.2-1,0.5
				c-0.3,0.3-0.4,0.6-0.4,1c0,0.3,0.2,0.6,0.4,0.9c0.2,0.2,0.5,0.4,0.8,0.4S210.5,131.5,210.7,131.2z"/>
			<path class="st0" d="M246.2,133.2c-1.6-2.8-2.7-5.7-3.2-8.8c-0.5-3-0.7-5.9-0.7-8.6c0-0.6,0-1.2,0.1-1.7c0.1-0.5,0.1-1,0.1-1.6
				c0-2-0.4-4-1.3-5.9c-0.5-1.9-0.7-3.8-0.7-5.6c0-5.4,1.9-10.3,5.8-14.7c1-1.2,2.3-2.1,3.6-2.8l1.3-0.6c1.3-0.8,2.5-1.2,3.4-1.2
				c0.4,0,0.8-0.2,1.3-0.6c0.6-0.5,1.1-0.7,1.4-0.7c0.3,0,0.5,0.1,0.7,0.3c0.2,0.2,0.4,0.3,0.6,0.4c0.2,0.1,0.4,0.1,0.6,0.1
				c3.2,0.2,5.8,1.5,7.6,4s3.1,5.4,3.8,8.8c0.7,3.4,1.1,6.7,1.1,9.7c0,3.5-0.3,7.1-1,10.6c-0.8,5.6-2.4,10.9-4.9,16
				c-1.1,2.5-2.6,4.6-4.6,6.5c-1.9,1.6-3.9,2.3-6,2.3C251.4,138.9,248.5,137,246.2,133.2z M246.8,91.3c-1.8,2.9-2.7,6-2.8,9.3
				C244.8,97.5,245.8,94.4,246.8,91.3z M247.1,124.3c0.3-0.4,0.5-0.9,0.5-1.4c0-0.5-0.2-0.9-0.5-1.2c-0.3-0.3-0.7-0.5-1.1-0.5
				c-0.5,0-0.9,0.3-1.3,0.6c-0.3,0.4-0.5,0.9-0.5,1.5c0,1,0.5,1.5,1.5,1.6C246.4,124.9,246.8,124.7,247.1,124.3z M247.2,116.2
				l-0.1-2c0-2.1,0.3-5.1,0.9-8.8l0.1-0.8c0.4-3.1,1.1-6.3,2-9.4c0.9-3.2,2.3-6.2,4.2-9c0.2-0.3,0.3-0.5,0.3-0.8
				c0-0.2-0.1-0.4-0.2-0.5c-0.1-0.1-0.3-0.2-0.6-0.3c-0.3,0-0.6,0.2-0.8,0.6c-2.9,4.7-4.8,9.9-5.8,15.6c-0.8,4.5-1.3,9-1.7,13.6
				c0.1,1.5,0.2,2.3,0.4,2.5c0.1,0.2,0.3,0.3,0.6,0.3C247,117,247.2,116.7,247.2,116.2z M265.4,115.8c0.4-0.1,0.7-0.2,1-0.3
				c0.3-0.1,0.4-0.3,0.4-0.6c0.8-3.5,1.2-7.5,1.2-11.7c0-1.6-0.1-3.5-0.3-5.6c-0.2-2.1-0.6-4.1-1.4-6.1c-0.7-2-1.8-3.7-3.3-5.1
				c-1.1-1.2-2.4-1.8-4-1.9c-0.2,0-0.4,0.1-0.6,0.2c-2.9,2.8-5.1,7.1-6.4,12.9c-1.2,4.5-1.8,9-1.8,13.5c0,1.3,0,2.1,0.1,2.3
				s0.2,0.4,0.4,0.5c2.8,1.8,5.9,2.8,9.5,3C261.7,116.9,263.4,116.6,265.4,115.8z M258.9,133.9c1.9-1.9,3.3-4.1,4.4-6.6
				c1.1-2.6,1.9-5.1,2.5-7.5l0.1-0.1l-0.1-0.2c-1.7,0.6-3.4,0.9-5.1,0.9c-3.3,0-6.5-0.8-9.7-2.3c0.9,7.6,3.2,12.9,6.8,15.9
				c0.2,0.2,0.4,0.3,0.6,0.3C258.5,134.2,258.7,134.1,258.9,133.9z"/>
			<path class="st0" d="M273,138c0-0.3,0.2-0.6,0.6-0.9c0.4-0.3,0.6-0.5,0.6-0.6c-0.5-2-0.8-4-0.9-5.8c-0.6-4.8-0.8-9.6-0.8-14.2
				c0-7.9,0.5-16,1.4-24.3c0.3-2,0.5-4.1,0.6-6.2c0-0.3-0.2-0.4-0.5-0.4c-0.7,0-1.1-0.3-1.2-1c0-0.4,0.3-0.8,0.8-1
				c1.4-0.7,2.9-1,4.5-1l2.2,0.1c1,0,1.9,0.2,2.4,0.6c0.6,0.4,0.9,0.9,0.9,1.5l-0.6,4.3c-0.8,4.4-1.4,8.9-1.9,13.3v0.4
				c0.2-0.2,0.3-0.4,0.3-0.5c0-0.1,0.1-0.2,0.1-0.3c1.6-4.3,3.9-7.9,6.6-10.7c2.8-2.9,6.4-4.5,10.8-4.8c1.9,0,3.4,0.5,4.5,1.6
				c1.1,1.1,2,2.5,2.6,4.2c0.6,1.7,0.8,3.5,0.8,5.3c0,5.3-1.3,10.1-4,14.5c-2.7,4.4-6.2,7.9-10.7,10.6c-2,1.2-4.1,1.8-6.4,1.8
				c-0.6,0-1,0-1.1-0.1l-0.2,0.1c1.1,1.5,2.4,2.7,4.1,3.5c1.6,0.8,3.3,1.3,5,1.3c2,0,3.1-0.4,3.3-1.2c0.1-2,0.8-3,1.9-3
				c0.4,0,0.8,0.2,1,0.3c0.2,0.2,0.3,0.5,0.3,1L300,132c-0.1,1.5-0.7,2.2-1.8,2.2c-0.9,0-1.4-0.4-1.6-1.2c-0.1-0.4-0.3-0.6-0.6-0.6
				c-1,0.1-1.9,0.2-2.5,0.2c-5.4,0-9.9-2.9-13.5-8.6c-0.2,0.5-0.3,0.9-0.3,1.3c0.4,6.2,0.7,9.4,0.8,9.5s0.3,0.2,0.7,0.2h0.6
				c1.6,0,2.4,0.5,2.4,1.4c0,1.2-2.8,2-8.4,2.4l-1.9,0.2C273.3,139.1,273,138.7,273,138z M277.5,124.2c0.3-0.3,0.5-0.7,0.5-1.2
				c0-0.5-0.2-0.9-0.5-1.2c-0.3-0.3-0.7-0.5-1.2-0.5c-1.2,0-1.8,0.7-1.8,1.9c0,1,0.5,1.4,1.6,1.4h0.1
				C276.7,124.7,277.2,124.5,277.5,124.2z M276.8,117.6l-0.1-2.7c0.2-2.7,0.3-5.4,0.4-8c0.2-6,0.6-11.8,1.4-17.5
				c0.1-0.8,0.2-1.6,0.3-2.4c0-0.6-0.3-1-0.9-1c-0.4,0-0.6,0.3-0.6,0.9c0,0.3,0,0.6-0.1,0.8c0,0.2-0.1,0.4-0.1,0.6
				c-0.6,4.1-0.9,7.2-1,9.3c-0.1,1.5-0.3,5.5-0.5,12.1c0,0.9-0.1,1.7-0.2,2.5c-0.1,1.4-0.2,2.9-0.2,4.3l0.1,1.8
				c0,0.3,0.1,0.4,0.2,0.5c0.1,0.1,0.3,0.2,0.6,0.2C276.5,119.1,276.8,118.6,276.8,117.6z M289.5,120c8.8-4.8,13.5-12.3,14-22.3
				c0-1.2-0.1-2.4-0.4-3.6c-0.3-1.2-0.7-2.3-1.4-3.1c-0.6-0.8-1.6-1.3-2.8-1.3c-4.8,0.3-8.4,2.7-10.9,6.9
				c-3.9,5.8-6.3,13.4-7.5,22.6l-0.1,0.4c0,0.2,0.1,0.3,0.3,0.3l0.5-0.1c0.6,0,1.1,0.1,1.7,0.4c1,0.4,2,0.6,3.1,0.6
				C287.3,120.8,288.4,120.5,289.5,120z"/>
			<path class="st0" d="M308.4,139.3c-0.3-0.3-0.5-0.6-0.5-1c0-0.6,0.3-1.1,1-1.6c0.4-0.2,0.7-0.4,1-0.5c0.3-0.1,0.5-0.2,0.7-0.3
				c0.2-0.1,0.3-0.3,0.3-0.5c-0.6-3.8-1-8.1-1-13l0.1-7.2c0-10.1,0.5-20.1,1.4-29.9c0-0.4-0.2-0.6-0.6-0.6l-1.2,0.1
				c-0.7-0.1-1.1-0.6-1.2-1.3c0-1.2,1.4-1.8,4.1-1.8l6.9,0.5c0.7,0,1.5,0.2,2.2,0.6c0.7,0.4,1.1,0.9,1.1,1.5c0,0.4-0.1,0.7-0.4,1
				c-0.2,0.3-0.6,0.5-0.9,0.5l-0.8-0.1c-0.3,0-0.4,0.2-0.4,0.6c-1.1,13.3-1.7,26.9-1.7,40.8c0,4.9,0.1,7.5,0.2,7.8
				c0.1,0.2,0.4,0.4,0.8,0.4c0.7,0,1.1,0.4,1.2,1.2c0,0.5-0.2,0.8-0.6,1.1c-1,0.6-2,1-3.1,1c-0.6,0-1.1,0.1-1.6,0.2
				c-1.1,0.3-2.2,0.4-3.2,0.4c-0.3,0-0.6,0-0.8,0.1c-0.2,0-0.4,0.1-0.7,0.2c-0.2,0.1-0.6,0.2-1.1,0.2
				C309.1,139.7,308.7,139.6,308.4,139.3z M314.7,120.3c0.3-0.3,0.5-0.7,0.5-1.1c0-0.4-0.2-0.8-0.5-1.1c-0.3-0.3-0.7-0.4-1.2-0.5
				c-0.9,0-1.3,0.6-1.4,1.6c0,1,0.5,1.5,1.4,1.6C314,120.7,314.4,120.6,314.7,120.3z M314.5,114.5c0-4.9,0.1-8.8,0.3-11.5
				c0.2-2.7,0.5-5.4,0.8-8c0.5-4.8,0.8-7.7,0.8-8.7c0-0.5-0.2-0.7-0.7-0.7c-0.5,0-0.8,0.2-0.8,0.6c-0.1,1-0.4,3.4-0.7,7
				c-0.3,3.4-0.6,6.7-0.9,9.9c-0.2,3.2-0.4,7-0.4,11.3c0,0.5,0.2,0.8,0.6,0.9C314.1,115.3,314.4,115,314.5,114.5z"/>
			<path class="st0" d="M335.9,141.2c-0.8,0-1.2-0.4-1.3-1.2c0-0.5,0.3-1,1-1.4c0.4-0.2,0.6-0.6,0.6-1.2c-0.2-4.2-0.3-6.9-0.3-8
				c0-6.8,0.5-14.9,1.4-24.3c0.6-6,1-12.2,1.3-18.6c0-0.2,0-0.4-0.1-0.5c-0.1-0.1-0.3-0.1-0.5-0.1c-1.5,0.1-3,0.2-4.3,0.3
				c-1.6,0.1-3.4,0.2-5.4,0.3c-0.4,0-0.7,0-0.9,0.1c-0.2,0-0.2,0.2-0.2,0.5c0.1,1.2,0.2,2,0.2,2.4c0,0.5,0,1.2,0,2.2
				c0,0.9-0.2,1.6-0.4,2c-0.2,0.5-0.6,0.7-1.1,0.7c-0.7,0-1.1-0.3-1.3-0.9c-0.2-0.6-0.3-1.3-0.3-2.1c-0.1-1.8-0.2-3.4-0.4-4.9
				c-0.1-1.1-0.2-2.3-0.3-3.7c0-0.7,0.1-1.2,0.2-1.4c0.2-0.3,0.6-0.4,1.2-0.5c0.5,0,0.9,0.2,1.1,0.6l0.5,1.8c0,0.1,0,0.2,0,0.3
				c0,0.1,0.1,0.2,0.3,0.2c2.9-0.5,5.9-0.9,9-1.1l3.6-0.3c4.9-0.5,9.8-0.7,14.7-0.7c2.6,0,5.2,0.2,7.9,0.5c0.3,0,0.4-0.1,0.5-0.3
				c0.2-0.4,0.4-0.7,0.6-0.9c0.2-0.2,0.5-0.4,0.9-0.4s0.7,0.2,0.9,0.5c0.2,0.3,0.4,0.7,0.4,1.1c0,0.7-0.3,2-0.8,3.8
				c-0.9,3.7-1.4,5.8-1.7,6.3s-0.7,0.7-1.1,0.7c-0.6,0-1-0.3-1.2-0.6c-0.2-0.4-0.3-1-0.4-1.8c0-1,0.2-2.1,0.6-3.1
				c0.2-0.6,0.3-1.1,0.3-1.4c0-0.3-0.1-0.4-0.4-0.5c-0.3-0.1-1.5-0.2-3.6-0.3c-1,0-2,0.1-2.9,0.2c-4.2,0-6.4,0-6.5,0.1
				c-0.1,0.1-0.1,0.4-0.1,0.9c0,4.9-0.4,11.2-1.1,18.7c-1,10.3-1.6,19.4-1.8,27.4c0,2.8,0.1,4.4,0.3,4.7c0.1,0.2,0.3,0.3,0.6,0.3
				c0.6,0,1.1,0.1,1.6,0.4c0.5,0.3,0.7,0.6,0.7,1.1c0,0.8-0.4,1.3-1,1.4c-1.7,0.2-3.5,0.3-5.2,0.4c-1.7,0-3.5,0.2-5.2,0.4H335.9z
				 M341.6,125.6c0.2-0.3,0.4-0.7,0.4-1.1c0-0.4-0.1-0.7-0.4-1c-0.3-0.3-0.6-0.4-1-0.5c-0.8,0-1.2,0.5-1.2,1.5
				c0,0.9,0.4,1.4,1.2,1.6C341,126.1,341.3,125.9,341.6,125.6z M342,118.1c0.1-0.3,0.1-0.6,0.1-0.9c0.2-3.5,0.5-7.9,0.9-13.3
				c0.2-4.1,0.6-8.4,1-12.7l0.5-4.6c0-0.5-0.3-0.7-0.8-0.8c-0.3,0-0.6,0.3-0.7,0.8c0,0-0.1,0.1-0.1,0.3c-0.5,4.5-0.9,7.7-1,9.6
				l-0.3,3.9l-0.6,8.8c-0.3,2.6-0.5,5.5-0.5,8.8c0.1,0.4,0.3,0.6,0.7,0.7C341.6,118.6,341.9,118.5,342,118.1z"/>
			<path class="st0" d="M369.4,134.5c-2.1-4.2-3.1-9-3.1-14.3c0-3.8,0.3-7.6,0.9-11.6c0.6-4,1.6-7.7,2.9-11c1.1-3.1,2.7-6.1,4.7-9
				c2-2.9,4.7-4.5,8.1-4.9c3.4,0.3,5.9,1.8,7.3,4.3c1.5,2.5,2.2,6.5,2.2,11.8c0,2.4-0.2,4.8-0.3,7c-0.2,2.3-0.6,4.9-1.2,7.8
				c-0.4,2.8-1.9,4.4-4.3,4.9c-3.9,0.5-7.8,1-11.7,1.3c-0.4,0-0.6,0.1-0.7,0.2c-0.1,0.1-0.2,0.4-0.2,0.8c0,3.2,0.6,6.2,1.8,9.1
				c1.2,2.8,3.3,4.4,6.5,4.8c0.2,0,0.5-0.2,0.7-0.5c0.5-0.8,0.8-1.6,1-2.5l0.9-4.1c0-0.2-0.2-0.3-0.5-0.3c-1-0.2-1.6-0.6-1.6-1.4
				c0-0.9,0.6-1.5,1.9-1.7c1.3-0.2,2.4-0.3,3.5-0.3c0.4,0,0.8,0,1.3,0c0.5,0,0.9,0.1,1.3,0.4c0.4,0.2,0.6,0.6,0.6,1.2
				c0,0.5-0.2,0.9-0.5,1c-0.3,0.2-0.7,0.3-1.1,0.4c-1,0.2-1.5,0.5-1.6,1c-0.2,1.3-0.6,3.2-1.2,5.8c-0.4,1.5-1.5,2.9-3.2,4.3
				s-3.5,2.1-5.2,2.3C374.6,141.2,371.5,139,369.4,134.5z M370.6,121.8c0.2-0.3,0.4-0.6,0.4-1.1c-0.1-0.9-0.5-1.4-1.3-1.4
				c-0.9,0.1-1.4,0.6-1.4,1.5c0,0.9,0.5,1.4,1.4,1.4C370.1,122.2,370.4,122,370.6,121.8z M370.6,114.8c0.1-0.2,0.1-0.4,0.2-0.6
				c0.9-6.6,2.7-12.8,5.3-18.8c1.1-2.8,2.7-5.3,4.9-7.4c0.2-0.2,0.3-0.4,0.3-0.6c0-0.2-0.1-0.3-0.2-0.5c-0.2-0.2-0.3-0.3-0.5-0.3
				c-0.2,0-0.4,0.1-0.6,0.3c-0.9,0.6-1.6,1.3-2.1,2.3c-3.2,4.8-5.5,10-6.8,15.6c-0.9,2.9-1.5,6-1.9,9.3v0.1c0,0.6,0.3,1,0.6,1
				C370.3,115.1,370.5,115,370.6,114.8z M384.9,116.2c1-0.1,1.7-0.3,2-0.6c0.3-0.3,0.5-0.9,0.7-1.9c0.9-4.4,1.3-8.8,1.3-13.2v-4.1
				c-0.1-2.2-0.5-4.2-1.4-6.2c-0.3-0.9-0.9-1.6-1.9-2.3l-0.3-0.1c-0.1,0-0.5,0.3-1,0.9c-0.5,0.4-0.9,0.9-1.3,1.4
				c-1.6,2.3-3,4.7-4.3,7.2c-2.7,5.9-4.3,12.4-4.7,19.6c0,0.3,0.1,0.4,0.4,0.4L384.9,116.2z"/>
		</g>
	</g>
	<g>
		<g>
			<path class="st0" d="M34.1,207.1c0.1-0.8,0.3-1.6,0.6-2.2c0.3-0.7,0.5-1.3,0.8-2c0.3-0.8,0.6-1.5,0.9-2.3
				c0.3-0.7,0.6-1.5,0.8-2.4c0.3-0.8,0.5-1.7,0.5-2.6c0-0.9,0-1.8-0.1-2.8c-0.1-1.3-0.2-2.6-0.3-3.9c-0.1-1.3-0.2-2.6-0.3-3.9
				c-0.1-1.8-0.2-3.7-0.3-5.4c-0.1-1.8-0.1-3.6-0.3-5.4c-0.1-1.5-0.2-3.1-0.3-4.5c-0.1-1.5-0.2-3-0.2-4.5c0-1,0-2,0.1-3
				c0.1-1,0.1-2,0.3-3c0.1-1,0.1-2,0-2.9c-0.1-0.9-0.2-1.9-0.4-2.8c-0.1-0.4-0.3-0.8-0.5-1.2c-0.2-0.4-0.4-0.7-0.6-1.1
				c-0.3-0.6-0.6-1.2-0.8-1.7c-0.2-0.6-0.4-1.2-0.4-1.8c0-1.1,0.5-1.7,1.5-2c0.5-0.1,1-0.2,1.5-0.3c0.5-0.1,1-0.1,1.5-0.2
				c1-0.1,2-0.1,3-0.1c1,0,2,0,3,0c0.2,0,0.5,0,0.7,0c0.2,0,0.5,0.1,0.8,0.1c0.7,0.2,0.9,0.6,0.6,1.3c-0.5,1.2-1,2.2-1.4,3
				c-0.5,0.8-0.8,1.7-1,2.5c-0.2,0.9-0.3,1.7-0.3,2.6c0.1,1,0.1,1.9,0.1,2.8s0,1.8,0,2.8c0,1,0,1.9,0,2.8c0,0.9,0,1.8,0,2.8
				c0.1,1,0.1,1.9,0.2,2.8c0.1,0.9,0.1,1.9,0.2,2.8l0.3,2.9c0.4,0.1,0.8,0.1,1.1,0.2c0.3,0.1,0.7,0.1,1,0.1c0.8,0,1.7,0,2.6,0
				c0.9,0,1.8,0,2.6,0c0.8-0.1,1.7-0.1,2.5-0.2c0.8-0.1,1.7-0.1,2.5-0.3c0.7-0.1,1.3-0.2,1.9-0.3c0.6-0.1,1.3-0.1,1.9-0.3
				c0.7-0.1,1.4-0.3,2.1-0.6c0.7-0.3,1.3-0.6,2-1c0.3-0.2,0.5-0.4,0.5-0.6c0.1-0.2,0.1-0.5,0.1-0.8c-0.1-1.3-0.2-2.6-0.2-3.9
				c0-1.3-0.1-2.6-0.1-3.9c0-0.2,0-0.4,0-0.6c0-0.2,0-0.4,0-0.6c0.1-1.5,0.1-3-0.1-4.4c-0.2-1.5-0.4-2.9-0.7-4.3
				c-0.1-0.5-0.2-0.9-0.3-1.4c-0.1-0.4-0.2-0.9-0.2-1.4c-0.1-0.4-0.3-0.8-0.7-1.2c-0.3-0.3-0.6-0.6-1-0.9c-0.4-0.3-0.7-0.6-1-1
				c-1-1-0.8-1.7,0.4-2.3c0.4-0.1,0.6-0.2,0.8-0.2c1.4-0.3,2.9-0.5,4.3-0.6c1.4-0.1,2.9,0,4.3,0.1c0.4,0.1,0.7,0.1,1,0.1
				c0.3,0,0.6,0,0.9,0.1c0.2,0.1,0.5,0.1,0.7,0.1c0.2,0,0.4,0.1,0.6,0.2c1.1,0.4,1.7,0.9,1.8,1.6c0.1,0.6,0,1.3-0.4,1.9
				c-0.2,0.5-0.5,0.9-0.7,1.3c-0.2,0.4-0.4,0.8-0.6,1.2c-0.4,0.8-0.7,1.7-0.9,2.6c-0.2,0.9-0.4,1.8-0.5,2.7
				c-0.4,1.9-0.6,3.8-0.8,5.7c-0.2,1.9-0.2,3.8-0.2,5.7c-0.1,3-0.1,6-0.1,9c0,2.9,0,5.9,0,9c-0.1,2.8-0.1,5.6,0,8.3
				c0.1,1.1,0.1,2.2,0.2,3.3c0.1,1.1,0.3,2.1,0.7,3.1c0.1,0.5,0.3,0.9,0.6,1.2c0.3,0.4,0.6,0.7,0.9,1c0.5,0.4,0.9,0.8,1.4,1.2
				c0.4,0.4,0.9,0.8,1.3,1.3c0.3,0.2,0.5,0.5,0.8,0.7c0.2,0.2,0.3,0.6,0.1,1c-0.1,0.4-0.3,0.6-0.7,0.8c-0.3,0.2-0.7,0.3-1,0.4
				c-0.7,0.1-1.4,0.1-2.1,0.3c-0.7,0.1-1.5,0.1-2.2,0c-0.8-0.1-1.5-0.2-2.3-0.2c-0.7,0-1.5,0-2.3-0.1c-1.4-0.1-2.7-0.6-3.8-1.3
				c-0.1-0.1-0.3-0.2-0.4-0.3c-0.2-0.1-0.3-0.3-0.5-0.4c0.2-0.2,0.4-0.4,0.6-0.6c0.1-0.2,0.3-0.3,0.5-0.4c1.4-1.2,2.1-2.7,2.2-4.6
				c0-1.1,0-2.1,0-3.2s0-2.1,0.1-3.2c0-0.5,0-1,0-1.4c0-0.5,0-1,0-1.4v-7v-3.7c-0.1-0.5-0.2-0.8-0.3-0.9c-0.1-0.1-0.4-0.2-0.8-0.2
				c-1,0.1-1.9,0.3-2.8,0.4c-0.9,0.1-1.8,0.5-2.6,1.1c-1.4,0.9-2.8,1.4-4.2,1.4c-1.5,0.1-3,0-4.5-0.3c-0.5-0.1-1-0.2-1.5-0.3
				c-0.5-0.1-1.1-0.2-1.6-0.2c-1.3-0.2-2.1,0.4-2.2,1.9v0.8c-0.1,1.2-0.2,2.4-0.3,3.5c-0.1,1.1-0.2,2.3-0.3,3.5
				c-0.1,0.5-0.1,1.1-0.1,1.6c0,0.5,0,1,0,1.6c0,0.5,0,0.9,0,1.4c0,0.4,0,0.9,0,1.4c-0.1,0.7,0,1.3,0.1,2c0.1,0.7,0.3,1.4,0.4,2
				c0.1,0.8,0.4,1.6,0.7,2.2c0.4,0.7,0.7,1.3,1.2,2c0.1,0.1,0.2,0.3,0.3,0.4c0.1,0.2,0.1,0.4,0.3,0.6c0.3,0.8,0.1,1.4-0.7,1.6
				c-0.5,0.2-1,0.3-1.4,0.3c-1.4,0-2.8,0-4.2,0c-1.4,0-2.8,0-4.2-0.1c-0.4,0-0.7,0-1.1-0.1C34.8,207.2,34.5,207.1,34.1,207.1z"/>
			<path class="st0" d="M116.8,145.1c0,0.8-0.4,1.4-1.2,1.7c-0.2,0.1-0.4,0.1-0.5,0.2c-0.2,0.1-0.4,0.1-0.5,0.2
				c-1.1,0.5-1.7,1.3-1.7,2.4c0,0.8,0,1.5-0.1,2.2c-0.1,0.7-0.2,1.5-0.3,2.2c-0.1,0.5-0.2,1.1-0.3,1.6c-0.1,0.5-0.2,1-0.3,1.6
				c-0.1,0.4-0.2,0.8-0.2,1.2c0,0.4-0.1,0.8-0.1,1.2c-0.1,0.5-0.2,1.1-0.3,1.6s-0.1,1.1-0.2,1.7c-0.1,0.8-0.2,1.7-0.3,2.5
				c-0.1,0.8-0.1,1.6-0.2,2.5c-0.1,1-0.2,1.9-0.2,2.8c0,0.9-0.1,1.8-0.1,2.7c-0.1,1-0.1,2-0.1,3c0,1-0.1,2-0.1,3
				c-0.1,0.9-0.1,1.8-0.2,2.7c-0.1,0.9-0.1,1.8-0.2,2.7c-0.1,0.8-0.2,1.5-0.3,2.3c-0.1,0.8-0.1,1.5-0.3,2.3
				c-0.2,1.5-0.4,3.1-0.8,4.7c-0.2,0.7-0.4,1.3-0.6,2.1c-0.2,0.7-0.4,1.4-0.7,2.1c-0.4,1-0.8,2-1.3,2.9c-0.5,0.9-1.1,1.8-1.9,2.5
				c-1.2,1.3-2.7,2.2-4.5,2.8c-1.8,0.4-3.5,0.4-5,0.1c-1.5-0.2-3-0.9-4.4-1.9c-0.8-0.7-1.6-1.4-2.3-2.1c-0.7-0.8-1.4-1.6-2-2.5
				c-0.8-1.2-1.4-2.4-2-3.6c-0.5-1.2-1-2.5-1.5-3.8c-0.1-0.3-0.2-0.6-0.3-0.9c-0.1-0.3-0.1-0.6-0.2-0.9c-0.1-0.8-0.2-1.5-0.3-2.3
				c-0.1-0.7-0.2-1.5-0.3-2.4c-0.2-1.3-0.3-2.6-0.4-3.9c-0.1-1.3-0.2-2.6-0.2-3.9c0-0.8,0-1.7,0-2.5c0-0.9,0-1.7-0.1-2.6
				c-0.1-1.4-0.1-2.9-0.1-4.3s-0.1-2.9-0.2-4.3c-0.1-1-0.1-2-0.1-2.9c0-1,0-1.9,0-2.9c0.1-0.7,0.1-1.3,0.1-1.8c0-0.6,0-1.1,0-1.7
				v-0.3c-0.1-0.5-0.1-0.9,0-1.3c0.1-0.4,0.1-0.9,0-1.3c-0.1-0.5-0.1-0.9-0.1-1.3c0-0.4,0-0.9-0.1-1.3c-0.1-1.3-0.7-2.2-1.8-2.6
				c-0.2-0.1-0.5-0.2-0.7-0.4c-0.5-0.2-0.8-0.7-0.9-1.3c-0.1-0.2,0.1-0.4,0.4-0.6c0.2-0.1,0.6-0.2,1.1-0.4c2-0.6,4-0.8,6.2-0.6
				c0.5,0.1,1,0.1,1.5,0.3c0.5,0.1,1,0.3,1.5,0.6c0.4,0.3,0.7,0.6,0.8,1c0.1,0.4,0.3,0.8,0.3,1.3v0.4c-0.1,0.3-0.2,0.6-0.3,0.9
				c-0.1,0.3-0.1,0.6-0.2,0.9c-0.1,0.4-0.2,0.8-0.3,1.2c-0.1,0.4-0.1,0.8-0.2,1.2c-0.1,0.8-0.2,1.7-0.2,2.5c0,0.8-0.1,1.6-0.1,2.5
				l-0.3,6.4c-0.1,0.3-0.1,0.6,0,1c0,0.4,0,0.7,0,1.1c0.1,0.7,0.1,1.3,0.1,2c0,0.7,0,1.4,0.1,2.1v8.7c0,0.8,0,1.6-0.1,2.4
				c-0.1,0.8-0.1,1.5-0.1,2.3c0,0.5,0,1.1,0,1.6c0,0.5,0.1,1,0.1,1.5c0.1,0.9,0.2,1.8,0.2,2.7c0,0.9,0.1,1.8,0.2,2.6
				c0.1,1,0.3,1.9,0.4,2.8c0.2,0.9,0.5,1.8,0.9,2.6c0.7,1.7,2,2.7,3.8,3c1.2,0.2,2.3,0.1,3.4-0.1c1.1-0.3,2.1-0.7,3.1-1.3
				c1.1-0.5,2-1.3,2.7-2.2c0.4-0.5,0.7-1.1,0.9-1.9c0.3-0.8,0.5-1.6,0.6-2.4c0.1-0.8,0.2-1.5,0.4-2.3c0.1-0.2,0.1-0.5,0.1-0.7
				c0-0.2,0-0.4,0.1-0.7c0.1-0.6,0.1-1.2,0.1-1.8c0-0.6,0-1.2,0-1.8c0.1-1,0.1-2,0.1-3.1s0.1-2.1,0.2-3.1c0.1-1,0.1-2,0.2-3
				c0.1-1,0.2-2,0.3-3c0.1-0.3,0.1-0.6,0.1-0.9c0-0.3,0-0.6,0-0.9l0.5-6.2c0.1-0.3,0.1-0.6,0.1-0.9c0-0.3,0-0.6,0.1-0.9
				c0.1-1.1,0.3-2.2,0.4-3.3c0.1-1.1,0.3-2.2,0.4-3.3c0.1-0.7,0.1-1.3,0.2-1.9c0.1-0.6,0.1-1.2,0.3-1.8c0.1-0.6,0-1.2-0.2-2
				c-0.1-0.5-0.6-1-1.3-1.2c-0.5-0.2-1.1-0.4-1.7-0.7c-0.4-0.2-0.7-0.4-0.7-0.8c-0.1-0.1-0.1-0.2-0.1-0.4c0.3-1.1,1-1.9,2-2.3
				c0.9-0.3,1.9-0.5,3-0.6c1-0.1,2-0.1,2.9,0c1,0.1,1.9,0.2,2.9,0.4c0.5,0.1,1.1,0.2,1.6,0.4C115.9,144.6,116.4,144.8,116.8,145.1z"
				/>
			<path class="st0" d="M126.7,157c-0.1,0.4-0.1,0.8-0.2,1.2c-0.1,0.4-0.1,0.8-0.1,1.2c-0.4,4.3-0.5,8.6-0.5,12.9
				c0,4.3,0,8.6,0,12.9c0,1.5,0,3,0,4.5c0,1.5,0,3,0.1,4.5c0,0.8,0.1,1.6,0.2,2.4c0.1,0.8,0.3,1.6,0.4,2.4c0.1,0.5,0.3,0.9,0.7,1.3
				c0.3,0.4,0.7,0.8,1,1.1c0.4,0.4,0.7,0.7,1.1,1.1c0.4,0.4,0.7,0.7,1,1.1c0.7,0.7,0.9,1.3,0.8,1.9c-0.1,0.5-0.7,0.9-1.7,1.1
				c-0.2,0.1-0.6,0.1-1,0.1c-1,0-2,0-3.1,0c-1,0-2.1,0-3.1,0c-1.4,0-2.8-0.5-4.1-1.4c-0.7-0.4-0.7-0.9-0.2-1.4
				c0.1-0.2,0.4-0.4,0.7-0.8c0.7-0.6,1.2-1.4,1.3-2.3c0.1-0.7,0.2-1.4,0.3-2.1c0.1-0.7,0.1-1.4,0.1-2.1c0.1-7.9,0.1-15.8,0-23.8
				c-0.1-2.2-0.1-4.4-0.3-6.5c-0.1-2.1-0.2-4.3-0.2-6.4c0-1.5-0.1-3-0.4-4.5c-0.2-1.5-0.4-3-0.6-4.5c-0.2-1.5-0.7-2.6-1.7-3.4
				c-0.5-0.3-0.9-0.8-1.3-1.4c-0.4-0.6-0.3-1.1,0.3-1.5c0.2-0.2,0.7-0.4,1.2-0.6c0.4-0.1,0.8-0.2,1.2-0.3c0.4-0.1,0.8-0.1,1.2-0.2
				c1.3-0.1,2.6-0.1,3.9-0.1c1.3,0,2.5,0.1,3.8,0.4c0.8,0.2,1.4,0.6,1.7,1.2c0.3,0.6,0.3,1.3,0,2.1c-0.3,0.6-0.6,1.2-0.8,1.7
				c-0.2,0.6-0.5,1.1-0.7,1.7c-0.3,0.7-0.4,1.3-0.4,1.9c0,0.6,0.3,1.2,0.9,1.9c0.5,0.5,0.9,1.1,1.2,1.8c0.3,0.7,0.6,1.3,0.9,2
				c1.1,2.4,2.4,4.5,3.9,6.3c0.6,0.8,1.2,1.5,1.7,2.3c0.6,0.8,1.1,1.5,1.7,2.3c0.1,0.1,0.2,0.2,0.4,0.4c0.1,0.1,0.2,0.3,0.4,0.4
				c0.3-0.3,0.5-0.6,0.8-0.8c0.2-0.3,0.4-0.5,0.7-0.8c1.9-2.3,3.8-4.6,5.6-7c1.8-2.3,3.7-4.7,5.6-7c0.5-0.6,0.7-1.2,0.4-1.9
				c-0.2-0.5-0.4-1-0.6-1.5c-0.2-0.5-0.4-1.1-0.5-1.6c-0.1-0.4-0.2-0.7-0.4-1.1c-0.1-0.4-0.2-0.7-0.3-1.1c-0.3-1.3,0.2-1.9,1.6-1.9
				l7.8,0.3h0.4c0.7,0.1,1.1,0.2,1.2,0.3c0.1,0.1,0.2,0.6,0,1.2c-0.2,1-0.5,2.1-1,3.3c-0.8,1.5-1.2,3.2-1.2,5c0,1.8,0,3.7-0.1,5.5
				c-0.1,1.8-0.1,3.6-0.1,5.5c-0.1,1.8-0.1,3.7,0,5.4c0,1.8,0.1,3.6,0.1,5.4c0,1.7,0,3.5-0.1,5.3c-0.1,1.8-0.3,3.5-0.6,5.3
				c-0.3,1.9-0.5,3.8-0.5,5.8c0,1.9,0,3.9,0,5.8c0.1,0.8,0.2,1.5,0.5,2.2c0.3,0.7,0.6,1.4,1,2c0.2,0.3,0.4,0.6,0.5,0.9
				c0.2,0.3,0.4,0.6,0.5,1c0.8,1.6,0.3,2.4-1.5,2.4c-1.2,0.1-2.3,0.1-3.4,0c-0.8-0.1-1.6-0.2-2.4-0.1c-0.7,0-1.5,0.1-2.3,0.2
				c-0.2,0-0.4,0-0.5,0c-0.2,0-0.4,0-0.5,0c-1.4-0.1-1.9-0.8-1.6-2c0.1-0.6,0.3-1.2,0.4-1.7c0.2-0.6,0.4-1.1,0.7-1.7
				c0.7-1.2,1.2-2.4,1.6-3.6c0.4-1.2,0.8-2.5,1.2-3.7c0.5-1.8,0.9-3.6,1-5.4c0.1-1.8,0.1-3.6,0.1-5.4c0-1,0-1.9,0-2.8
				c0-0.9,0-1.9,0-2.8c-0.1-2.1-0.1-4.2-0.1-6.2c0-2.1-0.1-4.2-0.2-6.2c0-0.8,0-1.7,0-2.6c0-0.9-0.1-1.8-0.1-2.6c0-0.1,0-0.2,0-0.3
				c0-0.1,0-0.1,0-0.3c-1,0.6-1.7,1.3-2.1,2.1c-1.3,1.8-2.6,3.7-3.9,5.4c-1.3,1.8-2.7,3.5-4.2,5.2l-0.3,0.3c-1,1-1.8,1.5-2.4,1.6
				c-0.7,0.1-1.5-0.4-2.6-1.3c-1-0.9-1.9-1.9-2.7-2.9c-0.9-1.2-1.7-2.5-2.4-3.9c-0.7-1.3-1.4-2.7-2.1-4.1c-0.4-0.9-0.8-1.8-1.2-2.7
				c-0.4-0.9-0.8-1.9-1.2-2.8c-0.1,0-0.1,0-0.1,0C126.8,157,126.8,157,126.7,157z"/>
			<path class="st0" d="M175.4,185.1c-0.1,0.7-0.2,1.3-0.4,1.9c-0.1,0.6-0.2,1.3-0.4,1.9c-0.2,1-0.4,1.9-0.6,2.9
				c-0.2,1-0.4,1.9-0.5,2.9c-0.1,0.5-0.2,1.1-0.2,1.6c0,0.5-0.1,1-0.2,1.5c-0.1,0.5-0.1,0.9,0,1.3c0.1,0.4,0.1,0.9,0.2,1.3
				c0.1,0.6,0.3,1.1,0.6,1.6c0.3,0.4,0.6,0.9,1,1.4c0.2,0.1,0.4,0.4,0.6,0.7c0.7,0.9,0.5,1.4-0.5,1.6c-1,0.3-1.8,0.5-2.6,0.5
				c-0.5,0.1-0.9,0.1-1.4,0.1c-0.4,0-0.9,0.1-1.4,0.1c-0.8,0-1.7,0-2.5-0.1c-0.8-0.1-1.7-0.2-2.5-0.4c-0.7-0.1-1.2-0.4-1.5-0.9
				c-0.4-0.5-0.4-1.1,0-1.8c0.2-0.5,0.4-0.9,0.7-1.3c0.3-0.4,0.5-0.9,0.8-1.3c0.2-0.3,0.5-0.6,0.7-0.9c0.2-0.3,0.5-0.6,0.8-0.9
				c0.4-0.5,0.7-1,0.9-1.5s0.4-1.1,0.6-1.6c0.5-1.4,1-2.7,1.5-4.1c0.4-1.3,0.8-2.7,1.1-4.1c0.2-1,0.5-2,0.7-3c0.2-1,0.5-2,0.7-3
				c0.2-1.3,0.5-2.6,0.7-3.8c0.2-1.2,0.5-2.5,0.7-3.8c0.1-1,0.3-1.9,0.4-2.9c0.2-1,0.3-1.9,0.4-2.9c0.2-1,0.3-1.9,0.5-2.8
				c0.1-0.9,0.3-1.9,0.5-2.8c0.2-1,0.4-1.9,0.5-2.8c0.2-0.9,0.4-1.9,0.5-2.9c0.1-0.8,0.2-1.7,0.4-2.6c0.1-0.9,0.2-1.8,0.4-2.6
				c0.2-1,0.4-1.9,0.7-2.8c0.3-0.9,0.6-1.8,1.1-2.6c0.7-1.2,1.5-2,2.6-2.4c1.1-0.4,2.3-0.4,3.5-0.1c0.6,0.1,1.1,0.3,1.6,0.5
				c0.5,0.2,0.9,0.6,1.3,1c0.6,0.7,1,1.5,1.3,2.5c0.2,0.8,0.4,1.5,0.4,2.3c0,0.8,0.1,1.5,0.1,2.3c0,0.8,0,1.5,0,2.3
				c0,0.8,0,1.5,0,2.3c0.1,0.8,0.1,1.5,0.2,2.3c0.1,0.7,0.2,1.5,0.3,2.3c0.1,0.5,0.2,1.1,0.4,1.6c0.1,0.5,0.2,1,0.4,1.6
				c0.2,0.8,0.5,1.7,0.7,2.6c0.2,0.9,0.4,1.8,0.7,2.6c0.4,1.2,0.7,2.4,1,3.6c0.3,1.2,0.6,2.4,0.9,3.6c0.3,1,0.5,2,0.7,3.1
				c0.2,1,0.3,2.1,0.4,3.2s0.3,2.2,0.4,3.3c0.1,1.1,0.3,2.2,0.5,3.3c0.2,1.3,0.5,2.6,0.8,3.8c0.3,1.2,0.7,2.5,1.2,3.7
				c0.2,0.5,0.3,0.9,0.5,1.4c0.1,0.4,0.3,0.9,0.6,1.4c0.5,1.2,1.3,1.9,2.6,2c0.5,0.1,0.9,0.2,1.2,0.4c0.7,0.3,1,0.9,1,1.7
				c0,0.8-0.3,1.3-0.9,1.7c-0.3,0.1-0.6,0.2-0.8,0.3c-0.2,0.1-0.5,0.1-0.8,0.2c-0.5,0.1-1.1,0.1-1.6,0.1c-0.5,0-1,0-1.6,0
				c-0.5-0.1-0.9-0.1-1.4-0.1c-0.4,0-0.9,0-1.4,0c-0.3-0.1-0.6-0.1-0.8,0c-0.3,0-0.6,0-0.8,0c-0.5,0.1-1,0.1-1.5,0.1
				c-0.5,0-1,0-1.6,0c-0.4-0.1-0.8-0.1-1.2-0.2c-0.4-0.1-0.8-0.2-1.1-0.4c-0.5-0.3-0.7-0.7-0.8-1.2c-0.1-0.5,0.1-1,0.5-1.4
				c0.2-0.2,0.5-0.5,0.8-0.7c0.3-0.2,0.5-0.4,0.8-0.6c0.7-0.4,1.1-0.8,1.4-1.3c0.3-0.5,0.5-1.1,0.6-1.7c0.2-0.8,0.2-1.7,0.2-2.5
				c-0.1-0.9-0.2-1.7-0.3-2.5c-0.2-1.2-0.4-2.4-0.7-3.6c-0.3-1.2-0.6-2.4-0.8-3.6c-0.1-0.4-0.4-0.6-0.8-0.4
				c-0.5,0.1-1.1,0.2-1.6,0.2c-0.5,0-1,0-1.5-0.1c-1.4-0.2-2.8-0.3-4.2-0.4c-1.4-0.1-2.8-0.1-4.2-0.1c-0.3,0-0.6,0-0.8,0
				c-0.2,0-0.5-0.1-0.8-0.1c-0.1,0-0.3,0-0.4,0C175.7,185.2,175.5,185.1,175.4,185.1z M188.4,179.8c-0.1-0.4-0.2-0.8-0.3-1.2
				c-0.1-0.4-0.1-0.7-0.2-1.1c-0.2-0.8-0.3-1.5-0.5-2.2c-0.2-0.7-0.3-1.5-0.3-2.2c-0.2-1.6-0.4-3.2-0.6-4.8
				c-0.2-1.6-0.3-3.2-0.4-4.8c-0.1-1-0.3-2-0.4-2.9c-0.2-0.9-0.3-1.9-0.6-2.8c-0.1-0.8-0.3-1.5-0.6-2.3c-0.3-0.7-0.6-1.5-0.8-2.2
				c-0.2-0.4-0.4-0.6-0.5-0.7c-0.4,0.1-0.6,0.2-0.6,0.4c-0.1,0.1-0.1,0.4-0.2,0.9c-0.1,0.7-0.2,1.3-0.3,1.9
				c-0.2,0.6-0.3,1.2-0.6,1.9c-0.3,0.7-0.6,1.4-0.8,2.1c-0.3,0.7-0.5,1.4-0.7,2.1c-0.2,1-0.4,2-0.5,3c-0.1,1-0.2,2-0.4,3
				c-0.1,0.6-0.2,1.2-0.3,1.7c-0.1,0.6-0.2,1.1-0.3,1.7c-0.1,0.7-0.3,1.3-0.4,2c-0.2,0.7-0.3,1.4-0.5,2c-0.1,0.6-0.3,1.2-0.4,1.7
				c-0.2,0.5-0.3,1.1-0.4,1.7c-0.1,0.3-0.1,0.6-0.2,0.9c-0.1,0.3-0.1,0.7,0,1.1c0.7,0,1.3,0,1.9-0.1c0.6-0.1,1.2-0.2,1.8-0.3
				c1.1-0.2,2.2-0.3,3.3-0.5c1.1-0.1,2.2-0.2,3.3-0.1H188.4z"/>
			<path class="st0" d="M218.2,160.1c-0.1,0.3-0.1,0.7-0.1,1.3c0,2.6,0,5.2,0,7.8c0,2.6,0,5.2,0.1,7.8c0,1.7,0,3.4,0.1,5.1
				c0.1,1.7,0.2,3.4,0.3,5.1c0,0.6,0,1.2,0,1.7c0,0.6,0,1.2,0,1.8c-0.1,0.7,0,1.4,0.1,2.1c0.1,0.7,0.2,1.4,0.4,2.1
				c0.1,1,0.3,2,0.4,2.9c0.2,1,0.4,1.9,0.5,2.9c0.1,0.4,0.3,0.6,0.5,0.8c0.3,0.3,0.6,0.6,1,0.9c0.4,0.3,0.7,0.6,1,0.9
				c0.3,0.3,0.5,0.5,0.6,0.7c0.4,0.5,0.3,1-0.2,1.4c-0.4,0.3-0.8,0.5-1.2,0.6c-0.4,0.1-0.8,0.2-1.2,0.2c-1.7,0.2-3.4,0.3-5,0.3
				c-1.6,0-3.3-0.1-5-0.3c-0.8-0.1-1.5-0.4-2-0.9c-0.7-0.7-0.9-1.5-0.4-2.4c0.3-0.5,0.5-0.9,0.8-1.4c0.2-0.4,0.5-0.9,0.8-1.4
				c0.4-0.7,0.6-1.3,0.8-2.1c0.2-0.7,0.4-1.5,0.5-2.2c0.2-1.1,0.3-2.2,0.5-3.3c0.1-1.1,0.3-2.2,0.4-3.3c0.1-0.4,0.1-0.8,0.1-1.2
				c0-0.4,0-0.9,0-1.3c0.1-0.8,0.1-1.5,0.1-2.3c0-0.8,0-1.6,0-2.4c0.1-2.5,0.1-5,0.1-7.5c0-2.5,0-5,0-7.5c0-1.2,0-2.5,0-3.7
				c0-1.2,0-2.4-0.1-3.6c0-1,0-1.9,0-2.8c0-0.9,0-1.8-0.1-2.7c-0.1-0.7-0.3-1.3-0.4-1.8c-0.1-0.6-0.3-1.1-0.4-1.7
				c-0.1-0.4-0.3-0.8-0.5-1c-0.2-0.3-0.5-0.5-0.8-0.8l-2.9-2.7c-0.2-0.1-0.4-0.4-0.6-0.7c-0.4-0.7-0.3-1.2,0.4-1.6
				c0.5-0.2,1.1-0.4,1.6-0.5c0.4-0.1,0.7-0.1,1.1-0.1c0.4,0,0.8,0,1.2,0c0.9,0,1.9,0,2.8,0c0.9,0,1.8,0.1,2.8,0.1
				c0.8,0,1.6,0.1,2.3,0.4c0.7,0.2,1.4,0.5,2.1,0.9c0,0.1,0.1,0.2,0.2,0.2c0.7,0.5,0.7,1,0.1,1.4c-0.5,0.4-0.9,0.7-1.2,1.1
				c-0.4,0.4-0.6,0.8-0.8,1.3c-0.5,1.2-0.6,2.5-0.1,3.7c0.8,1.8,1.8,3.6,2.8,5.3c1,1.7,2,3.4,3,5.1c0.7,1.2,1.4,2.4,2.1,3.6
				c0.7,1.2,1.4,2.4,2,3.6c1.1,1.9,2.2,3.8,3.3,5.6c1.1,1.8,2.2,3.7,3.4,5.5c0.8,1.4,1.7,2.7,2.5,4.1c0.9,1.3,1.7,2.7,2.6,4.1
				c0.1,0.1,0.1,0.2,0.2,0.4c0.1,0.1,0.1,0.2,0.3,0.4c0.3-0.5,0.5-0.9,0.5-1.3c0-0.4,0.1-0.9,0.1-1.3c0.2-2,0.3-3.9,0.3-5.8
				c0-1.1,0-2.1-0.1-3.2c-0.1-1.1-0.1-2.1-0.3-3.1c-0.1-1.2-0.2-2.3-0.3-3.5c-0.1-1.1-0.2-2.3-0.4-3.5c-0.1-0.8-0.2-1.7-0.2-2.6
				c0-0.9,0-1.8,0-2.6c0.1-0.9,0.1-1.8,0.1-2.6c0-0.9,0.1-1.7,0.2-2.5c0.1-1.1,0.2-2.1,0.1-3.2c0-1.1-0.1-2.1-0.3-3.2
				c-0.3-2.1-1.2-3.9-2.9-5.2c-0.4-0.4-0.6-0.7-0.8-0.9c-0.7-0.7-0.6-1.2,0.3-1.5c0.7-0.4,1.5-0.7,2.5-0.9c1.2-0.1,2.3-0.2,3.5-0.2
				c1.1,0,2.3,0.1,3.4,0.4c0.8,0.2,1.5,0.5,2.1,0.8c0.6,0.4,1,1,1.3,1.8c0.4,1,0.2,1.7-0.5,2.2c-0.3,0.3-0.6,0.5-1,0.7
				c-0.4,0.2-0.8,0.4-1.1,0.5c-0.1,0.1-0.2,0.1-0.4,0.3c-1.3,0.7-2,1.7-2,3.1c0,0.7,0,1.3,0,1.9c0,0.6,0,1.3,0.1,1.9
				c0.1,1.2,0.2,2.4,0.3,3.5c0.1,1.2,0.1,2.3,0.1,3.5v33.4c0,0.8,0,1.5,0.1,2.2c0.1,0.7,0.2,1.4,0.5,2.1c0.1,0.4,0.3,0.7,0.4,1.1
				c0.2,0.4,0.4,0.7,0.5,1.1c0.1,0.1,0.1,0.3,0.2,0.4c0.1,0.2,0.1,0.3,0.3,0.5c0.6,1.2,0.3,1.9-1,2.2c-0.3,0.1-0.6,0.1-1,0.1
				c-0.4,0-0.7,0-1,0c-0.5,0-1.1,0-1.6,0c-0.5,0-1.1-0.1-1.6-0.1c-1.3-0.1-2.4-0.4-3.4-1c-0.7-0.4-1.1-0.9-1.4-1.6
				c-0.3-0.7-0.4-1.4-0.2-2.2c0.1-0.6,0.3-1.1,0.6-1.7c0.3-0.5,0.6-1,0.9-1.6c1-1.8,1-3.5,0.1-5.3c-1-1.8-2-3.6-3-5.4
				c-1-1.8-2.1-3.6-3.1-5.4c-1.1-1.8-2.2-3.6-3.3-5.4c-1.1-1.8-2.2-3.5-3.4-5.3c-1.2-1.9-2.3-3.8-3.4-5.7c-1.1-1.9-2.2-3.8-3.3-5.7
				l-0.3-0.5C218.2,160,218.2,160,218.2,160.1z"/>
			<path class="st0" d="M251.6,193.6c0-0.2,0-0.4,0-0.5c0-0.2,0-0.4,0-0.5c0-0.7-0.1-1.3-0.2-2c-0.1-0.7-0.2-1.4-0.4-2
				c-0.1-0.7-0.2-1.3-0.4-1.9c-0.1-0.6-0.2-1.3-0.2-1.9c0-0.1,0-0.2,0-0.3c0-0.1,0-0.2,0-0.3c0-0.3,0.1-0.5,0.4-0.7
				c0.3-0.2,0.5-0.2,0.8-0.1l2.9,1.1l2.1,0.8c0.7,0.4,1,0.7,1.1,1.1c0.1,0.4,0,0.8-0.1,1.4c-0.2,0.5-0.4,1-0.6,1.5
				c-0.2,0.5-0.4,1-0.6,1.5c-0.3,1-0.5,2-0.5,3c0,1,0.2,2,0.7,3c0.8,1.7,2.1,2.7,4,2.9c0.7,0.1,1.3,0.1,2,0c0.7-0.1,1.3-0.3,2-0.6
				c1.8-0.6,3.4-1.7,4.7-3.3c0.9-1.2,1.6-2.6,2.1-4.2c0.4-1.4,0.5-2.8,0.4-4.2c-0.1-1.9-0.4-3.8-1.1-5.7c-0.5-1.5-1.3-2.9-2.2-4.2
				c-0.9-1.2-1.9-2.4-3.1-3.6c-0.8-0.8-1.7-1.7-2.5-2.5s-1.7-1.6-2.5-2.5c-0.8-0.8-1.6-1.7-2.3-2.7c-0.7-1-1.2-2-1.7-3.1
				c-0.3-0.6-0.5-1.2-0.6-1.8c-0.1-0.6-0.2-1.2-0.4-1.9c-0.2-1.4-0.3-2.9-0.3-4.5c0.1-1,0.2-2,0.4-3c0.2-1,0.5-2,1-2.9
				c1-2,2.5-3.3,4.4-4.1c0.3-0.1,0.5-0.3,0.8-0.4c0.2-0.1,0.5-0.3,0.8-0.4c0.8-0.4,1.6-0.5,2.5-0.5c2.2-0.2,4.3,0.3,6.2,1.3
				c0.9,0.5,1.7,1.2,2.5,2.3c0.2,0.4,0.6,0.8,1.2,1.1c0.3,0.1,0.6,0.2,0.9,0.2c0.3,0,0.6-0.1,0.9-0.3c0.4-0.2,0.7-0.4,1-0.7
				c0.5-0.4,1-0.5,1.7-0.5c0.6,0,1.1,0.2,1.6,0.5c0.5,0.5,0.7,1.3,0.5,2.2c-0.1,0.7-0.3,1.4-0.7,2c-0.3,0.6-0.7,1.2-1.1,1.9
				c-0.3,0.4-0.6,0.7-0.8,1.1c-0.2,0.4-0.5,0.8-0.8,1.1c-0.4,0.5-0.9,0.8-1.3,1c-0.7,0.3-1.4,0.2-2-0.3c-0.4-0.3-0.6-0.6-0.8-1
				s-0.4-0.7-0.5-1.2c-0.1-0.3-0.2-0.6-0.3-0.9c-0.1-0.3-0.2-0.6-0.3-0.9c-0.4-1-1.1-1.5-2-1.6c-0.8-0.1-1.6-0.1-2.4,0
				c-0.7,0.1-1.4,0.5-2.1,0.9c-1,0.8-1.7,1.8-2,3.1c-0.2,1.2-0.2,2.3,0,3.3c0.2,1,0.7,2.1,1.2,3.1c1.2,2,2.4,3.9,3.6,5.8
				c1.2,1.9,2.4,3.9,3.6,5.9c0.8,1.3,1.5,2.6,2.1,4c0.7,1.4,1.2,2.8,1.7,4.2c0.7,1.8,1.1,3.6,1.3,5.4c0.2,1.6,0.3,3.4,0.1,5.3
				c-0.1,1.7-0.5,3.2-1.1,4.6c-0.6,1.4-1.4,2.8-2.4,4.1c-1.3,1.9-2.9,3.5-4.8,4.8c-2,1.2-4,1.9-6,2c-0.8,0-1.5,0-2.3,0
				c-0.8,0-1.5-0.1-2.3-0.3c-3.3-0.7-5.6-2.6-7-5.8c-0.4-1-0.6-1.9-0.8-2.9c-0.2-1-0.2-2-0.2-3c-0.1-0.3-0.1-0.6,0-1
				C251.6,194.2,251.6,193.9,251.6,193.6z"/>
		</g>
	</g>
	<g>
		<g>
			<path class="st0" d="M70,391c0-1,0.7-1.8,2.2-2.2c0.3-0.1,0.6-0.3,0.7-0.4c0.1-0.1,0.2-0.4,0.2-0.7l-0.7-16.2
				c-0.1-0.5-0.2-0.9-0.4-1.1c-0.2-0.2-0.5-0.3-1-0.3l-4.3-0.1c-5.3,0-10.6,0.2-15.8,0.7c-1,0-1.8,0.1-2.2,0.2
				c-0.5,0.1-0.8,0.4-0.9,0.7c-0.1,0.3-0.7,5.3-1.7,14.8c0,0.5,0.2,0.7,0.7,0.7c0.4-0.1,0.9-0.2,1.5-0.2l1.5,0.1
				c1.4,0.2,2.2,1,2.3,2.4c0,0.7-0.3,1.5-0.9,2.1c-0.6,0.7-1.4,1-2.4,1c-1,0-2.1,0-3.2,0.1c-1.1,0.1-2.8,0.1-4.9,0.1l-0.4-0.1
				c-0.9,0-1.6-0.4-2.2-1.3c-0.3-0.3-0.4-0.7-0.4-1.1c0.1-1.3,0.6-2,1.7-2.1c1.1-0.1,1.7-0.4,1.9-1c0.2-0.6,0.3-1.2,0.3-2
				c0-4.2,0.3-8.9,1-14c0-0.3-0.3-0.6-0.9-1c-0.9-0.5-1.3-1.1-1.3-1.6c0-1.1,0.5-1.7,1.5-1.9c1-0.2,1.5-0.7,1.5-1.5
				c2.9-21.9,8.3-39.2,16-51.9c4.1-6.9,8.4-10.4,12.6-10.4c3.4,0,6,2.3,7.7,7c0.7,2,1.3,4.1,1.6,6.3c0.8,5.6,1.2,11.3,1.2,17.1v4.8
				c0,5.3,0.3,11.6,0.9,18.8c0.5,6.7,0.9,16.2,1.3,28.6c0,0.5,0.1,1,0.3,1.2c0.2,0.3,0.6,0.4,1.2,0.4c1.6,0.2,2.4,1,2.5,2.4
				c0,1.2-0.5,1.9-1.6,2.3c-1.1,0.4-2.3,0.6-3.7,0.8l-10.3,0.5C71,393.3,70,392.5,70,391z M65.1,364.7l5.3,0.1c0.6,0,1-0.1,1.2-0.3
				s0.3-0.5,0.3-1c-2-28.4-3.2-46-3.8-52.8l-0.6,0.5c-5.7,7.4-9.9,15.7-12.7,25c-2.8,9.2-4.8,18.8-6.2,28.6c0,0.3,0.1,0.5,0.2,0.6
				c0.1,0.1,0.3,0.1,0.6,0.1C54.8,365,60,364.7,65.1,364.7z M78.6,359.8l-1.2-20.2c-0.1-2.9-0.3-5.7-0.6-8.5
				c-0.3-2.8-0.5-5.7-0.6-8.5l-0.2-3.8c-0.2-1.6-0.3-3.3-0.3-4.9v-1.1c-0.1-0.8-0.5-1.2-1.3-1.2c-0.7,0.1-1.1,0.6-1.1,1.4v2.8
				c0.6,8.3,1.1,16,1.5,23c0.9,14.1,1.5,21.3,1.7,21.7c0.2,0.4,0.5,0.6,1.1,0.6C78.3,361,78.6,360.6,78.6,359.8z M79.8,372
				c0.5-0.6,0.8-1.3,0.8-2.2c0-1.7-0.8-2.5-2.3-2.5c-0.7,0.1-1.2,0.3-1.7,0.8c-0.4,0.5-0.7,1.1-0.7,1.8c0.1,2,0.8,3.1,2.1,3.1
				C78.7,372.9,79.3,372.6,79.8,372z"/>
			<path class="st0" d="M123.1,391.4c0-1.2,0.8-2.1,2.3-2.5c1-0.1,1.5-0.6,1.5-1.3l-0.2-2c-0.6-4.4-0.9-9.5-0.9-15.4
				c0-4.4,0.2-8.8,0.5-13.1v-0.8h-0.2c-2.6,8.9-4.3,14.7-5.3,17.5c-4.3,12.9-9.2,19.4-14.8,19.4c-2,0-3.7-0.8-5.3-2.4
				c-1.6-1.6-2.9-3.6-3.9-6.1c-1-2.5-1.7-5.1-2.1-7.8c-1.2-7.5-1.8-15.1-1.8-22.7c0.2-14.7,1-29,2.3-42.8c0.1-1.3,0.2-2.4,0.3-3.2
				c0.1-0.8,0.3-1.8,0.4-2.8c0-0.5,0-1-0.1-1.5c-0.1-0.5-0.1-1-0.1-1.3s-0.1-0.6-0.2-0.6c-0.1,0-0.3-0.1-0.5-0.1
				c-1.2,0-2.2-0.2-3.3-0.5c-1-0.3-1.5-1-1.5-2.1c0.1-1.2,0.8-1.9,1.9-2c3.4-0.6,7-0.9,10.7-0.9c0.8,0,1.6,0,2.3,0.1
				c0.7,0,1.4,0.3,2,0.8c0.6,0.5,0.9,1.1,0.9,1.8c0,1.6-2.2,2.4-6.7,2.6c-0.6,0-0.9,0.3-0.9,1c-0.1,7.4-0.5,15-1.1,22.7
				c-0.7,9-1.1,18.3-1.1,27.7c0,4.6,0.2,9.3,0.5,14.2c0.3,4.9,1.2,9.5,2.5,13.8c0.5,1.5,1.1,3,2,4.5c0.8,1.5,1.8,2.2,2.8,2.2
				c1.5,0,3.2-1.8,5-5.3c2.9-5.7,5.2-11.6,6.9-17.8c3.1-10.9,5.9-21.8,8.4-32.9l1.6-6.8c0.3-1.4,0.4-3,0.4-4.9l0.9-13
				c0-0.3-0.3-0.4-0.8-0.4c-1.8,0-2.8-0.7-2.8-2.1c0-1.3,0.8-2.1,2.5-2.5c2.2-0.5,3.9-0.8,5.3-0.8c3.1-0.5,6-0.9,8.6-1.1
				c1,0.1,1.7,0.3,2.2,0.7c0.4,0.4,0.7,1.1,0.8,2.2c0,1.1-0.6,1.8-1.8,2.1c-0.9,0.1-1.4,0.5-1.6,1c-0.2,0.5-0.3,1.1-0.3,1.8
				c-1.3,24-1.9,48.2-1.9,72.4c0,1.1,0,2.2,0.1,3.2c0.1,1.1,0.1,2.1,0.1,3.2c0,0.5,0.1,0.8,0.2,1c0.1,0.2,0.4,0.3,0.8,0.3l2.4-0.1
				c1.2,0,2.2,0.1,2.9,0.4c0.7,0.3,1.1,1,1.1,2c0,1.1-0.7,1.9-2.1,2.4c-3.2,0.6-5.9,1-8.1,1.2c-2.2,0.2-4.5,0.3-7,0.4l-4.1,0.1
				C124.2,394.1,123.3,393.2,123.1,391.4z M134.8,370.3c0.4-0.5,0.7-1,0.7-1.6c-0.1-1.4-0.7-2-1.8-2c-0.6,0-1.1,0.2-1.5,0.7
				c-0.4,0.4-0.6,1-0.6,1.8c0,1.3,0.5,1.9,1.6,1.9C133.9,371,134.4,370.8,134.8,370.3z M134.8,360.9c0.1-4.5,0.2-9,0.4-13.5
				l0.5-11.8c0.1-8.7,0.9-17.3,2.3-25.8l0.1-0.9c0-1.1-0.4-1.7-1.3-1.7c-0.6,0-1,0.5-1.2,1.6l-0.1,0.4c-1,6-1.6,12-1.8,18.1
				l-0.4,7.6c-0.6,7.9-0.9,16.5-0.9,25.8c0,0.5,0.1,0.9,0.2,1.2c0.1,0.3,0.4,0.5,1,0.6C134.3,362.6,134.8,362,134.8,360.9z"/>
			<path class="st0" d="M158,397.4l-6.5-0.7c-0.3-0.1-0.7-0.2-1.1-0.3c-0.4,0-0.7-0.2-1.1-0.4s-0.6-0.6-0.6-1.3c0-0.6,0.2-1,0.6-1.3
				c0.4-0.2,0.9-0.4,1.4-0.6c0.5-0.1,1.3-0.2,2.1-0.3c-0.6-0.5-1-1.1-1.1-1.7c-0.1-0.6-0.2-1.4-0.2-2.3c0.3-9.9,0.6-19.5,0.9-29
				c0.5-11.1,0.8-22.4,1.1-33.8c0-5.3,0.4-10.4,1.1-15.3c0-0.3-0.1-0.4-0.2-0.5c-0.1,0-0.3-0.1-0.5-0.1c-0.6,0-1-0.2-1.3-0.5
				c-0.2-0.3-0.4-0.8-0.5-1.4c0-2,4-3.1,12.1-3.1c2.2,0,4.4,0.1,6.7,0.2c1.3,0,2.1,0.5,2.3,1.6c0,0.8-0.3,1.4-1,1.6
				c-0.3,0.1-0.7,0.2-1.1,0.3c-0.4,0.1-0.7,0.2-0.9,0.3s-0.4,0.3-0.5,0.6c0,0.2,0.1,0.5,0.4,0.8c0.2,0.3,0.4,0.7,0.4,1.2
				c-1,6.8-1.5,11.5-1.6,14.1l-1.2,11.7l0.2,0.1c1.6-4.6,3.2-8.7,4.8-12.3c1.6-3.6,3.8-7.3,6.6-11.1c5-6.9,10.2-10.3,15.7-10.3
				c3.5,0.2,6.2,1.4,7.9,3.5c1.8,2.1,2.9,4.8,3.4,8.2c0.5,3.4,0.8,6.9,0.8,10.6c0,4.8-0.6,14.7-1.7,29.8c-0.8,9.9-1.5,19.9-2,30
				c0,0.4-0.1,0.8-0.2,1.3c-0.1,0.5-0.2,0.9-0.2,1.2c0,0.3,0.1,0.6,0.2,0.9c0.1,0.3,0.4,0.4,0.7,0.5c0.3,0.1,0.7,0.1,1.2,0.2
				c0.4,0,0.9,0.1,1.3,0.3c0.9,0.3,1.6,0.6,2.3,1.1c0.6,0.5,1,1.1,1,1.8c-0.1,0.6-0.4,1-0.7,1.2c-0.3,0.2-0.8,0.3-1.4,0.3
				c-9.8,0-15.4-0.5-16.9-1.6c-0.4-0.2-0.6-0.5-0.6-1c0.1-0.7,0.3-1.3,0.6-1.5c0.3-0.3,0.8-0.4,1.5-0.4l4.8-0.3c0.6,0,0.9-0.3,0.9-1
				c0.1-8.4,0.6-16.7,1.3-25c0.4-6.6,0.8-11.6,1.1-15.1c0.9-7.9,1.3-15.7,1.3-23.5c0-10.7-2.1-16-6.3-16c-2.5,0-5,1.1-7.3,3.3
				c-4.4,4-8.4,10.2-11.9,18.6c-4.2,10.7-7.4,21.7-9.6,33c-0.5,3.3-0.8,6.7-0.8,10.1l-0.3,17.2c0,0.5,0.1,0.9,0.2,1.2
				c0.1,0.3,0.5,0.5,1,0.5c1.5,0.1,2.2,0.7,2.2,2c-0.1,1.2-0.7,1.8-1.8,2c-1.7,0.2-3.4,0.3-5,0.3L158,397.4z M160.7,373.9
				c0.5-0.6,0.7-1.3,0.7-2.1c-0.1-1.8-0.9-2.7-2.5-2.8c-0.8,0-1.5,0.3-1.9,0.8c-0.5,0.5-0.7,1.2-0.7,2c0.1,1.9,1,2.9,2.5,3
				C159.5,374.9,160.2,374.5,160.7,373.9z M160.5,364v-6.2c0-4.1,0.1-8.3,0.4-12.4c1-16.3,1.7-25.6,1.9-28c0.1-1,0.3-3,0.5-6
				c0-0.8-0.4-1.3-1.2-1.3c-0.7,0-1.2,0.5-1.3,1.6c-0.1,1.1-0.2,2.2-0.3,3.4l-1.1,14.5c-0.5,5.7-0.8,10.7-1,14.9
				c-0.2,4.2-0.3,10.7-0.3,19.6c0,0.9,0.5,1.3,1.4,1.3C160.1,365.2,160.4,364.8,160.5,364z"/>
			<path class="st0" d="M230.7,395.1c-1.2,0-1.9-0.6-2-1.8c0-0.8,0.5-1.5,1.5-2.1c0.7-0.3,1-1,1-1.9c-0.3-6.7-0.4-10.9-0.4-12.6
				c0-10.7,0.7-23.4,2.1-38.1c0.9-9.4,1.6-19.2,2-29.2c0-0.3-0.1-0.6-0.2-0.7c-0.1-0.1-0.4-0.2-0.8-0.2c-2.4,0.1-4.7,0.3-6.8,0.5
				c-2.6,0.2-5.4,0.4-8.5,0.5c-0.7,0-1.1,0-1.4,0.1c-0.2,0.1-0.4,0.3-0.4,0.7c0.2,1.8,0.3,3.1,0.4,3.8c0,0.7,0.1,1.9,0.1,3.4
				c-0.1,1.4-0.3,2.5-0.6,3.2c-0.3,0.7-0.9,1.1-1.8,1.1c-1.1,0-1.7-0.5-2-1.5c-0.2-1-0.4-2.1-0.5-3.3c-0.1-2.9-0.3-5.4-0.6-7.6
				c-0.2-1.7-0.4-3.6-0.5-5.8c0-1.1,0.1-1.8,0.4-2.2c0.2-0.4,0.9-0.7,1.9-0.8c0.8,0,1.4,0.3,1.7,1l0.8,2.9c0,0.1,0,0.3,0,0.5
				s0.1,0.3,0.4,0.3c4.6-0.8,9.3-1.4,14.1-1.7l5.6-0.4c7.7-0.7,15.4-1.1,23-1.1c4,0.1,8.1,0.3,12.3,0.8c0.4,0,0.7-0.2,0.8-0.5
				c0.3-0.6,0.7-1.1,1-1.5c0.3-0.4,0.8-0.6,1.4-0.6c0.6,0,1.1,0.3,1.5,0.8c0.4,0.5,0.6,1.1,0.6,1.8c0,1.1-0.4,3.1-1.2,6
				c-1.4,5.8-2.3,9.1-2.7,9.8c-0.4,0.7-1,1.1-1.8,1.1c-0.9-0.1-1.5-0.4-1.8-1c-0.3-0.6-0.5-1.6-0.6-2.9c0-1.6,0.3-3.3,0.9-4.9
				c0.3-1,0.4-1.8,0.4-2.2c0-0.4-0.2-0.7-0.6-0.8s-2.3-0.3-5.7-0.5c-1.6,0-3.1,0.1-4.6,0.3c-6.7,0-10,0.1-10.1,0.2s-0.2,0.6-0.2,1.5
				c0,7.7-0.6,17.5-1.7,29.4c-1.5,16.2-2.4,30.5-2.9,43c0,4.4,0.2,6.9,0.5,7.3c0.1,0.3,0.5,0.4,1,0.4c0.9,0,1.7,0.2,2.4,0.6
				c0.7,0.4,1.1,1,1.1,1.7c-0.1,1.3-0.6,2-1.6,2.2c-2.7,0.3-5.4,0.5-8.1,0.6c-2.7,0-5.4,0.3-8.2,0.7H230.7z M239.6,370.6
				c0.4-0.5,0.6-1.1,0.6-1.8c0-0.6-0.2-1.1-0.7-1.5c-0.4-0.4-1-0.6-1.6-0.7c-1.2,0-1.8,0.8-1.8,2.3c0,1.4,0.6,2.2,1.9,2.4
				C238.7,371.3,239.2,371.1,239.6,370.6z M240.3,358.9c0.1-0.5,0.2-1,0.2-1.5c0.3-5.5,0.8-12.5,1.4-20.9c0.3-6.5,0.9-13.1,1.6-20
				l0.7-7.2c0-0.7-0.4-1.2-1.2-1.2c-0.5,0-0.9,0.4-1.1,1.3c-0.1,0.1-0.1,0.2-0.1,0.4c-0.8,7.1-1.4,12.1-1.6,15.1l-0.4,6.1l-1,13.8
				c-0.5,4-0.7,8.6-0.7,13.8c0.1,0.6,0.5,1,1.1,1.1C239.7,359.6,240.1,359.4,240.3,358.9z"/>
		</g>
	</g>
	<g>
		<g>
			<path class="st0" d="M88.8,286.6c-5.9-5.4-8.8-13.5-8.8-24.2c0-1.8,0.1-3.6,0.2-5.4c-7-0.1-12.3-1.6-16-4.3
				c-4-3-6.9-7.1-8.7-12.4c-0.9-2.9-1.4-5.8-1.4-8.8c0-6.8,2.1-12.3,6.4-16.4c3-2.9,6.8-4.3,11.3-4.3c2.4,0,4.6,0.5,6.6,1.5
				c2,1.1,3.5,2.7,4.5,5c0.8,1.7,1.1,3.4,1.1,5.2c0,0.8-0.1,1.6-0.2,2.4c-0.5,2.9-1.8,5.3-3.8,7.2c-2,1.9-4.4,2.9-7.4,2.9
				c-1.4,0-2.7-0.4-4.1-1c-1.4-0.7-2.5-1.6-3.1-2.7c-0.4-0.7-0.5-1.3-0.5-2c0-0.7,0.2-1.2,0.7-1.7c0.4-0.4,1-0.6,1.7-0.6
				c0.9,0,1.6,0.4,2,1.1c0.2,0.4,0.4,1.1,0.6,1.8c0.2,1.1,1.1,1.7,2.8,1.7c1.9,0,3.5-0.7,4.9-2c1.9-1.9,2.9-4.2,2.9-6.9
				c0-1.3-0.3-2.5-0.9-3.7c-1.3-2.6-3.9-3.9-7.8-3.9c-2.9,0-5.3,0.9-7.3,2.8c-2.3,2.2-3.8,4.4-4.5,6.5c-0.6,1.9-0.8,4.3-0.8,7.2
				c0,2.7,0.4,5.3,1.2,7.7c3.1,9.2,9.7,14,19.9,14.2c0.8-6.8,2.7-13.4,5.5-19.9c3.5-8.2,8.1-14.5,13.6-18.9c1.5-1.2,3.2-2.3,5-3
				c2.5-1.1,5.1-1.6,7.6-1.6c3.9,0,7.1,1.1,9.5,3.3c2.4,2.3,3.7,5.5,3.7,9.8c0,8.4-4.7,16.2-14.2,23.3c-7,5.2-14.2,8.5-21.7,9.9
				c0,0.6,0,1.3,0,1.9c0,10.4,2,18.3,6.1,23.7c2.3,3,5.1,4.5,8.5,4.5c9.2,0,16.3-5.6,21.4-16.9c0.3-0.7,0.8-1.1,1.5-1.1
				c1.2,0,1.8,0.5,1.8,1.5c0,0.4,0,0.7-0.1,1c-1.6,5.1-4.6,9.8-8.8,14.2c-4.3,4.5-9.9,6.7-16.9,6.7
				C97.4,291.8,92.6,290.1,88.8,286.6z M108.9,243.5c8.5-6.6,12.8-13.4,12.8-20.4c0-2.7-0.8-4.9-2.3-6.5c-1.5-1.5-3.5-2.3-5.9-2.3
				c-1.8,0-3.4,0.4-4.9,1.1c-6.8,3.4-11.9,10.1-15.1,19.9c-1.9,5.6-3,11.3-3.4,17.3C96.5,251.2,102.8,248.2,108.9,243.5z"/>
			<path class="st0" d="M148.3,280.3c-1.1-2-1.6-4.8-1.6-8.3c0-0.8,0-1.6,0.1-2.5c-3.3,6.4-6.8,9.5-10.4,9.5c-3.1,0-5.5-1.6-7.2-4.8
				c-1.2-2.2-1.8-4.9-1.8-7.9c0-2.2,0.3-4.3,0.9-6.5c0.8-3.2,2.3-6,4.5-8.6c2.4-2.8,5.6-4.2,9.5-4.2c1.2,0,2.3,0.2,3.3,0.7
				c2.3,1.1,3.4,2.1,3.4,3.1c0,0.5-0.2,0.9-0.5,1.2c-0.4,0.4-0.8,0.5-1.3,0.5c-0.4,0-1-0.3-1.7-0.8c-0.7-0.5-1.4-0.8-2.2-0.8
				c-1.7,0-3.2,0.8-4.5,2.4c-1.2,1.5-2.1,3.3-2.8,5.5c-0.8,2.5-1.2,5-1.2,7.4c0,1.7,0.2,3.2,0.6,4.5c0.5,1.5,1.3,2.2,2.5,2.2
				c1.9,0,4-2.5,6.4-7.5c0.9-1.9,1.8-3.7,2.4-5.3c0.4-0.8,0.9-2.3,1.5-4.5c1.4-4.3,2.4-7.2,3-9c0.6-1.6,1.4-2.4,2.5-2.4
				c0.7,0,1.3,0.4,1.9,1.2c0.6,0.8,0.8,2,0.8,3.5c0,1.6-0.4,3.3-1.1,4.9c-0.4,0.8-0.7,1.4-0.9,1.7c-0.1,4.3-0.1,7.4-0.1,9.4
				c0,7.4,1.1,11.1,3.4,11.1c1.4,0,3.4-2.6,5.8-7.9c0.9-2,1.9-4.1,2.7-6.1c1.2-2.9,2.4-5.4,3.5-7.7c0.3-0.7,0.8-1,1.5-1
				c1.2,0,1.8,0.6,1.8,1.7c0,0.3,0,0.5-0.2,0.8c-1.9,3.9-3,6.2-3.2,6.9c-1,2.5-2.2,5.1-3.4,7.8c-4.3,8.9-8.5,13.3-12.5,13.3
				C151.5,283.9,149.6,282.8,148.3,280.3z"/>
			<path class="st0" d="M178,247.4c0,3.7,0,6.8,0.1,9.2c0.1,6.3,0.5,12,1.1,16.9c0.8,6.5,1.9,9.7,3.3,9.7c0.7,0,2.1-2.3,4-6.8
				c1.1-2.6,2.1-5.1,3.2-7.5c1.1-2.4,2-4.7,2.9-6.7c1.2-2.9,2.4-5.4,3.5-7.7c0.3-0.7,0.8-1,1.5-1c1.2,0,1.8,0.6,1.8,1.7
				c0,0.3,0,0.5-0.2,0.8c-1.9,3.9-3,6.2-3.2,6.9c-0.8,2.1-1.6,4-2.4,5.9c-0.8,1.9-1.6,3.8-2.4,5.8c-4.2,10.9-8.2,16.3-12,16.3
				c-3.3,0-5.7-2.7-7.2-8.2c-1.5-5.5-2.3-13.5-2.3-24.3c0-6.2,0.4-12.8,1.4-19.6c0.2-1.6,0.4-3.2,0.7-4.7c-3.2-1.7-6.6-4.2-10.2-7.6
				c-7.5-6.9-13.2-10.4-17.3-10.4c-5,0-8.4,1.9-10.1,5.5c-0.5,1.1-0.8,2.3-0.8,3.6c0,1.5,0.5,2.7,1.4,3.8c0.9,1.1,2.1,1.6,3.4,1.6
				c1.7,0,3-0.7,3.9-1.9c0.4-0.5,0.6-1,0.6-1.5c0-0.9-0.3-1.6-0.8-2.2c-0.5-0.6-0.8-1.1-0.8-1.5c0-0.5,0.2-1,0.5-1.5
				c0.4-0.4,0.9-0.7,1.6-0.7c0.7,0,1.3,0.2,1.8,0.7c0.4,0.4,0.6,0.7,0.7,1.1c0.4,1.1,0.7,2.1,0.7,3.1c0,1.5-0.5,3-1.5,4.4
				c-1.6,2.3-3.9,3.5-6.8,3.5c-2.4,0-4.4-0.9-6.1-2.6c-1.5-1.5-2.2-3.6-2.2-6.2c0-1.7,0.4-3.4,1.1-4.9c2.5-5.4,7.2-8.2,14.3-8.2
				c5.3,0,11.7,3.5,19.2,10.6c3,2.8,5.7,5.1,8.2,6.8c1.3-5.4,3-10.1,5.1-13.9c1.8-3.2,4-5.5,6.7-6.8c1.4-0.7,2.8-1,4.1-1
				c1.5,0,3,0.4,4.4,1.2c2.3,1.2,3.8,3,4.5,5.5c0.4,1.3,0.7,2.6,0.7,3.9c0,4.3-1.5,8.5-4.4,12.5c-3,4-7,6-12.2,6
				c-1,0-2.1-0.1-3.2-0.3C178.2,240.1,178,243.7,178,247.4z M192.9,213.4c-0.9-1-1.9-1.5-3.2-1.5c-1.8,0-3.4,0.8-4.6,2.5
				c-2.2,2.7-3.8,6.4-4.8,11.3c-0.5,2.3-0.9,4.8-1.3,7.2c1.1,0.4,2.1,0.5,3,0.5c3.8,0,6.9-1.6,9.1-4.7c2.3-3.1,3.4-6.6,3.4-10.2
				C194.5,216.3,194,214.6,192.9,213.4z"/>
			<path class="st0" d="M198.3,282.7c-1.5-5.5-2.3-13.5-2.3-24.3c0-6.2,0.4-12.8,1.4-19.6c1.3-9.6,3.5-17.3,6.8-23.1
				c1.8-3.2,4-5.5,6.7-6.8c1.4-0.7,2.8-1,4.1-1c1.5,0,3,0.4,4.4,1.2c2.3,1.2,3.8,3,4.5,5.5c0.4,1.3,0.7,2.6,0.7,3.9
				c0,3.2-1.6,7.5-4.8,12.8c-3.3,5.5-7.7,11.3-13.2,17.5l-2.3,2.6c0,1.1,0.1,2.9,0.1,5.3c0,2.5,0.2,5.2,0.4,8.2
				c0.2,3,0.4,5.9,0.8,8.7c0.3,2.8,0.8,5.1,1.3,6.9c0.5,1.9,1.2,2.8,2,2.8c0.7,0,2.1-2.3,4-6.8c1.1-2.6,2.1-5.1,3.2-7.5
				c1.1-2.4,2-4.7,2.9-6.7c1.2-2.9,2.4-5.4,3.5-7.7c0.3-0.7,0.8-1,1.5-1c1.2,0,1.8,0.6,1.8,1.7c0,0.3,0,0.5-0.2,0.8
				c-1.9,3.9-3,6.2-3.2,6.9c-0.8,2.1-1.6,4-2.4,5.9c-0.8,1.9-1.6,3.8-2.4,5.8c-4.2,10.9-8.2,16.3-12,16.3
				C202.3,290.9,199.9,288.2,198.3,282.7z M220.5,221.7c0.4-1.1,0.6-2.2,0.6-3.3c0-2.2-0.6-3.8-1.8-5.1c-0.9-1-2-1.5-3.2-1.5
				c-1.8,0-3.4,0.8-4.6,2.5c-2.2,2.7-3.8,6.4-4.8,11.3c-1.5,6.7-2.2,13.4-2.3,20.3C212.8,236.5,218.1,228.4,220.5,221.7z"/>
			<path class="st0" d="M323.5,294.7c-2-1.5-3.4-3.4-4.2-5.9c-0.8-2.4-1.2-5.2-1.2-8.1c0-6.9,2.1-17.4,6.2-31.4
				c3.1-10.6,4.7-19.3,4.7-26c0-2.5-0.2-4.5-0.7-6.1c-0.8-2.5-2-3.8-3.8-3.8c-2.9,0-6,2.5-9.3,7.5c-3.8,5.9-7,12.9-9.4,21.1
				c-2.6,8.7-3.8,16.4-3.8,23.2v4.5c0,0.7-0.3,1.2-0.8,1.6c-1.1,0.9-2.3,1.3-3.6,1.3c-2.9,0-4.5-2.6-4.9-7.6c-0.1-1.6-0.2-3-0.2-4.4
				c0-3.5,0.3-8.1,0.8-13.8c0.6-6.2,0.9-10.9,0.9-14.3c0-1.5-0.1-2.9-0.3-4.1c-0.3-2.2-1.1-3.3-2.3-3.3c-2.4,0-4.7,2.5-6.7,7.4
				c-3.8,9.4-5.7,21.9-5.7,37.7c0,4.9,0.2,9.8,0.7,14.7c0.1,0.8,0.1,1.9,0.1,3c0,0.7-0.4,1.4-1.3,1.9c-1.3,0.9-2.8,1.3-4.5,1.3
				s-2.6-0.7-2.9-1.9c-2.3-10.9-3.5-20.7-3.9-29.2c-0.4-8.6-0.6-15.4-0.6-20.6c-2.8,4.7-6.2,8-10.1,10c-1.9,1-3.9,1.5-6,1.5
				c-5,0-8.7-2-11.1-6.1c-1.6-2.8-2.4-6-2.4-9.6c0-4.4,1.1-8.3,3.2-11.9c2.8-4.5,6.5-6.8,11.3-6.8c2.3,0,4.3,0.7,6,2.2
				c1.6,1.5,2.5,3.6,2.5,6.3c0,3.2-1.1,6.1-3.4,8.8c-2.3,2.7-4.9,4.1-7.7,4.1c-0.7,0-1.3-0.3-1.8-0.8c-0.5-0.5-0.8-1.1-0.8-1.8
				c0-0.7,0.2-1.3,0.6-1.7c0.4-0.4,0.9-0.6,1.4-0.6c0.4,0,0.8,0,1.2,0.1c0.4,0.1,0.7,0.2,1.1,0.2c1.1,0,2.4-0.9,3.8-2.6
				c1.4-1.7,2-3.6,2-5.7c0-3.2-1.5-4.9-4.4-4.9c-1.8,0-3.4,0.7-4.8,1.9c-1.4,1.3-2.5,3-3.3,5.1c-0.8,2.1-1.2,3.8-1.4,5.3
				c-0.1,1.5-0.2,2.5-0.2,3c0,4.3,1.1,7.6,3.2,9.8c1.3,1.3,3,2,5.1,2c2.9,0,5.8-1.5,8.7-4.3c4-3.9,6.4-8.6,7.2-14
				c0.4-2.5,0.7-5.4,1-8.7c0.5-5.3,1.9-8,4-8c1.5,0,2.2,1.3,2.2,3.9c0,4.2-0.4,7.6-1.3,10.3c-0.3,0.9-0.4,4.2-0.4,9.9
				c0,11.4,1.1,22.7,3.2,33.8c0-9.9,0.8-19.2,2.5-27.7c1.5-7.4,3.8-13.2,7-17.4c2.1-2.8,4.6-4.2,7.5-4.2c2.7,0,4.7,1.6,6,4.8
				c0.7,1.6,1.1,3.6,1.2,6c0.1,2.2,0.2,4.4,0.2,6.6c0,5.3-0.1,8.5-0.1,9.5c-0.1,1.2-0.1,2.4-0.1,3.5c1.4-7.4,3.6-14.7,6.6-21.7
				c2.7-6.3,5.8-11.4,9.3-15.4c3.3-3.8,6.8-5.6,10.3-5.6c1.8,0,3.4,0.5,4.8,1.5c1.6,1.1,2.8,2.7,3.5,4.7c0.7,2,1,4.9,1,8.7
				c0,5.5-0.9,12.8-2.6,22.1c-3,15.4-4.4,26.9-4.4,34.6c0,8.6,1.7,12.8,5.1,12.8c1,0,2.2-0.8,3.5-2.4c0.3-0.4,0.6-0.6,0.9-0.6
				c0.3,0,0.4,0,0.5,0c0.4,0,0.8,0.1,1.1,0.4c0.4,0.3,0.6,0.8,0.6,1.2c0,0.4-0.1,0.8-0.4,1.1c-2.2,2.7-4.8,4.1-7.9,4.1
				C328.2,297,325.4,296.2,323.5,294.7z"/>
			<path class="st0" d="M341.5,270.7c-3.6-3.1-5.3-8.1-5.3-14.9c0-6.4,1.7-12.3,5.2-17.9c2.2-3.5,5.2-5.9,8.9-7.2
				c1.2-0.4,2.4-0.6,3.6-0.6c2.7,0,5,0.8,6.8,2.4c1.8,1.6,2.7,3.5,2.7,5.6c0,1.4-0.2,2.8-0.7,4.1c-2,5.7-5.6,10.2-10.8,13.3
				c-0.4,0.2-0.8,0.3-1.2,0.3c-0.9,0-1.5-0.4-1.9-1.1c-0.2-0.3-0.3-0.7-0.3-1.1c0-0.9,0.3-1.5,1.1-1.9c4.3-2.8,7.2-6.4,8.8-11
				c0.3-1,0.5-1.8,0.5-2.5c0-0.9-0.3-1.6-0.8-2.3c-0.6-0.6-1.3-0.9-2.2-0.9c-1,0-1.9,0.3-2.7,1c-2,1.6-3.6,4.5-4.8,8.7
				c-1.1,3.9-1.6,7.8-1.6,11.7c0,7.4,1.9,11.2,5.7,11.2c3,0,6.2-2.1,9.6-6.4c3-3.8,6.1-9.1,9.5-16c0.6-1.3,1.1-2.4,1.5-3.6
				c0.3-1.1,0.6-1.8,0.9-2.2c0.5-0.7,1.1-1,1.9-1c0.9,0,1.5,0.4,2,1.1c3.6,6.4,8.4,9.7,14.2,9.7c3.1,0,6-0.9,8.7-2.8
				c2.7-1.8,4.9-4.3,6.7-7.4c2.9-4.8,4.3-10.3,4.3-16.7c0-4.7-0.9-9.3-2.6-13.9c-2.7-7-7-12.8-13.2-17.2c-6.9-4.9-15.1-7.3-24.8-7.3
				c-1.5,0-3.1,0.1-4.7,0.3c1.5,3.9,2.3,8,2.3,12.3c0,7.6-1.7,13.6-5.2,18.1c-3.5,4.5-7.9,6.8-13.3,6.8c-1.5,0-3-0.3-4.5-0.9
				c-2.5-0.9-4.5-2.4-6.2-4.4c-2.4-3-3.6-6.5-3.6-10.4c0-5,2-9.7,5.9-14.2c4.4-4.9,9.7-8.3,16-10.1c-1.9-3.5-4.1-6.6-6.9-9.5
				c-9.4-9.6-20.8-14.4-34.2-14.4c-13.5,0-22.7,4.5-27.5,13.4c-2,3.7-3,7.9-3,12.7c0,5.9,1.9,11.1,5.6,16c3.7,4.8,8.5,7.2,14.3,7.2
				c3.6,0,6.4-1.1,8.6-3.2c2.2-2.1,3.7-4.9,4.6-8.5c0.3-1.4,0.5-2.7,0.5-4.1c0-1.3-0.2-3-0.6-5.1c-0.4-2-1.6-4-3.5-6
				c-1.5-1.5-3.3-2.5-5.4-3c-1.2-0.2-1.8-1-1.8-2.2c0-1.5,0.8-2.3,2.3-2.3c0.6,0,1.6,0.2,3,0.6c3,0.9,5.6,2.5,7.8,4.8
				c3.4,3.6,5.1,8.2,5.1,13.6c0,2.3-0.4,4.7-1.2,6.9c-1.5,4.3-3.9,7.4-7.3,9.7c-3.4,2.2-7.3,3.4-11.8,3.4c-7.7,0-13.8-2.8-18.2-8.5
				c-4.4-5.6-6.6-12-6.6-19.3c0-5.4,1.2-10.3,3.5-14.8c5.7-11.1,16.6-16.6,32.6-16.6c7.3,0,14.3,1.4,21,4.3
				c6.6,2.9,12.6,7,17.6,12.3c3.2,3.4,5.8,7,7.9,11.1c3-0.4,5.8-0.6,8.5-0.6c10.8,0,20.1,2.7,27.8,8.2c6.9,4.9,11.9,11.4,14.8,19.3
				c1.9,5.1,2.8,10.2,2.8,15.5c0,6-1.2,11.4-3.5,16.3c-1.6,3.4-3.8,6.3-6.5,8.7c-4.8,4.3-10,6.5-15.7,6.5c-3.7,0-7.2-1-10.5-3
				c-2.2-1.3-4.1-3.1-5.9-5.2c-0.9,1.9-2.3,4.7-4.3,8.1c-7.3,13.2-14.5,19.8-21.6,19.8C346.9,273.9,344,272.8,341.5,270.7z
				 M358,211.5c2.6-3.6,3.8-8.6,3.8-14.8c0-3.9-0.7-7.6-2.1-10.8c-5.7,1.5-10.5,4.4-14.4,8.8c-1.7,1.9-3,4.1-3.9,6.5
				c-0.6,1.5-0.9,3.1-0.9,4.8c0,0.9,0.1,1.8,0.3,2.7c0.8,3.8,3,6.5,6.5,8c0.6,0.3,1.4,0.5,2.4,0.5C352.6,217,355.5,215.2,358,211.5z
				"/>
		</g>
	</g>
	<path class="st0" d="M41.6,225.5c-1.5-0.2-3-0.4-4.5-0.8c-0.6-0.1-1-0.4-1.3-0.9c-0.3-0.5-0.5-0.9-0.4-1.4c0-0.5,0.2-0.9,0.5-1.4
		c0.3-0.4,0.8-0.6,1.4-0.7c1.7,0,3.3,0.2,4.8,0.7c1.5,0.5,3.1,0.9,4.6,1.3c0.6,0.1,1,0.4,1.2,0.8c0.2,0.5,0.3,0.9,0.3,1.4
		c-0.1,0.5-0.3,0.9-0.6,1.2c-0.3,0.3-0.8,0.4-1.5,0.4C44.6,225.9,43.1,225.6,41.6,225.5z M70.5,283.5c0.6,0,1.1,0.2,1.4,0.5
		c0.4,0.3,0.6,0.8,0.8,1.3c0.1,0.6,0,1.2-0.4,1.8c-0.4,0.8-1,1.6-1.8,2.4c-0.7,0.8-1.5,1.5-2.4,2.2c-0.9,0.7-1.8,1.1-2.7,1.4
		c-1,0.3-1.9,0.3-2.8-0.1c-0.5-0.2-0.9-0.6-1.2-1c-0.2-0.4-0.3-0.9-0.3-1.4c0.1-0.9,0.5-1.7,1.1-2.2c0.6-0.6,1.3-1.1,2.1-1.5
		c0.8-0.4,1.6-0.8,2.4-1.2c0.8-0.4,1.5-0.9,2-1.5C69.3,283.8,69.9,283.5,70.5,283.5z M56.6,274.2c-1.6,0.9-3.2,1.7-4.9,2.5
		c-1.8,0.8-3.7,1.8-5.8,2.8c-2.1,1.1-4.2,1.6-6.3,1.7c-0.5,0-1-0.2-1.4-0.6c-0.4-0.4-0.4-0.9-0.3-1.5c0.7-1.7,1.8-3,3.3-3.8
		c1.6-0.8,3.2-1.5,4.9-2.1c2.1-0.8,4.2-1.6,6.4-2.3c2.2-0.7,4.3-1.5,6.5-2.5c0.7-0.3,1.3-0.1,1.9,0.5c0.5,0.6,0.5,1.2,0,1.8
		C59.7,272.1,58.2,273.3,56.6,274.2z M41.1,256.4c-3-0.2-6-0.2-8.9-0.1c-3,0.1-5.9,0.3-8.9,0.7s-5.8,1.1-8.5,2
		c-1.2,0.4-2.2,0.3-3.1-0.3c-0.9-0.6-1.5-1.3-1.9-2.2c-0.4-0.9-0.4-1.8-0.1-2.8c0.3-0.9,1-1.6,2.2-1.9c3.1-0.9,6.3-1.4,9.5-1.4
		s6.4,0.2,9.7,0.6s6.5,0.9,9.7,1.6c3.3,0.6,6.4,1.2,9.5,1.6c0.5,0.1,0.8,0.3,0.9,0.5c0.2,0.3,0.2,0.6,0.2,0.9c0,0.3-0.2,0.6-0.5,0.9
		c-0.3,0.3-0.6,0.4-1.1,0.4C47.1,256.7,44.1,256.5,41.1,256.4z"/>
	<path class="st0" d="M415.7,187.5c1.1-0.8,2.3-1.5,3.6-2.2c0.5-0.3,1-0.4,1.5-0.2c0.5,0.1,0.9,0.4,1.2,0.7c0.3,0.3,0.4,0.7,0.5,1.2
		c0,0.5-0.1,0.9-0.6,1.3c-1.1,1-2.4,1.9-3.7,2.4c-1.4,0.6-2.7,1.2-4,1.9c-0.5,0.3-0.9,0.3-1.4,0.2c-0.4-0.2-0.8-0.4-1-0.8
		c-0.2-0.4-0.3-0.7-0.3-1.1c0-0.4,0.3-0.8,0.8-1.1C413.4,189.1,414.6,188.3,415.7,187.5z M360.6,165c-0.4,0.3-0.8,0.5-1.3,0.5
		c-0.5,0-0.9-0.1-1.4-0.4c-0.4-0.3-0.7-0.8-0.8-1.5c-0.2-0.8-0.2-1.7-0.2-2.7c0-1,0.1-2,0.3-3c0.2-1,0.5-1.9,1-2.6
		c0.5-0.8,1.1-1.3,2-1.6c0.5-0.2,1-0.2,1.4,0c0.4,0.2,0.8,0.4,1,0.8c0.5,0.7,0.7,1.5,0.6,2.2c-0.1,0.8-0.2,1.5-0.5,2.3
		c-0.3,0.8-0.6,1.5-0.9,2.3c-0.3,0.7-0.5,1.5-0.5,2.2C361.2,164.1,361,164.6,360.6,165z M375.8,163c0.5-1.6,1.2-3.2,1.9-4.7
		c0.7-1.6,1.5-3.5,2.3-5.5c0.8-2,1.9-3.6,3.3-4.9c0.4-0.3,0.8-0.4,1.3-0.4c0.5,0,0.9,0.3,1.1,0.9c0.6,1.6,0.6,3.2,0,4.7
		s-1.3,3-2.1,4.4c-1,1.8-2,3.7-3,5.5c-1.1,1.8-2,3.7-3,5.6c-0.3,0.6-0.9,0.9-1.6,0.8c-0.7-0.1-1.1-0.5-1.1-1.3
		C375,166.3,375.3,164.6,375.8,163z M397.3,165.9c2.2-1.7,4.2-3.5,6.2-5.3c2-1.9,3.9-3.8,5.7-5.9c1.8-2.1,3.3-4.2,4.7-6.5
		c0.6-1,1.3-1.5,2.3-1.7c1-0.1,1.9,0,2.7,0.4c0.8,0.4,1.4,1,1.8,1.8c0.4,0.8,0.2,1.7-0.4,2.7c-1.6,2.5-3.5,4.8-5.7,6.7
		s-4.5,3.8-7,5.5c-2.5,1.7-5,3.3-7.7,4.8c-2.6,1.5-5.1,3.1-7.5,4.7c-0.4,0.2-0.7,0.3-1,0.2c-0.3-0.1-0.5-0.3-0.7-0.5
		c-0.2-0.2-0.3-0.5-0.2-0.9c0-0.4,0.2-0.7,0.5-0.9C393,169.3,395.1,167.6,397.3,165.9z"/>
	<path class="st0" d="M281.2,362.3c-1.7,1.4-3.3,2.7-4.8,3.8c-1.5,1.1-2.9,1.9-4.2,2.5c-0.4,0.1-0.8,0.1-1.2,0
		c-0.4-0.1-0.7-0.4-0.8-0.9c-0.1-0.5,0-1.2,0.4-2.1s1.3-2.1,2.5-3.5c3.1-3,7.1-5.9,12.1-8.8c5-2.9,9-5,12.1-6.3c0.4-0.1,0.7-0.1,1,0
		c0.3,0.1,0.6,0.4,0.8,0.7c0.2,0.5,0.2,0.9-0.1,1.2c-0.3,0.3-1,0.8-2.1,1.5c-1,0.6-2.5,1.6-4.4,2.9c-1.9,1.3-4.3,3.2-7.2,5.6
		C283.9,360.1,282.6,361.2,281.2,362.3z M273.5,333c-3.8,0.8-6.8,1.2-9.1,1.1c-1.1-0.2-1.5-0.8-1.2-1.9c0.3-1.1,1.7-2.2,4.1-3.3
		c2.5-1.1,6.3-1.5,11.6-1.4c3.7,0.1,6.4,0.3,8.2,0.5c1.8,0.2,2.9,0.5,3.3,0.9c0.5,0.4,0.6,0.8,0.4,1.3c-0.1,0.5-0.4,0.8-0.8,0.9
		c-0.4,0.1-1,0.1-1.8,0.1c-0.7,0-1.6,0-2.7,0.1C281.1,331.6,277.1,332.2,273.5,333z M306.4,376.8c-0.5,2.1-0.9,4-1.4,5.7
		c-0.5,1.7-1,3-1.6,3.8c-0.6,0.8-1.3,1-2.2,0.4c-0.3-0.2-0.5-0.5-0.6-0.8c-0.1-0.3-0.2-0.7-0.4-1.1c-0.5-2.4-0.3-5.2,0.7-8.4
		s2.2-6.2,3.8-9.2c1.6-3,3.1-5.4,4.5-7.3c0.2-0.3,0.5-0.5,0.9-0.5c0.4-0.1,0.7,0,1,0.2c0.4,0.3,0.6,0.7,0.6,1.1
		c-0.1,0.4-0.3,1.1-0.8,2c-0.4,0.8-0.9,2.1-1.5,3.6c-0.6,1.6-1.3,3.6-2.1,6.2C307,373.9,306.7,375.3,306.4,376.8z M300.7,328.4
		c1.7-5.4,5.3-8.8,10.9-10.2c5.6-1.4,11.4,0.9,17.4,6.9c3.6-11.4,7.9-18.2,13.1-20.2c5.2-2,9.5-0.6,12.9,4.2
		c3.5,4.8,4.4,11.7,2.7,20.7c-1.6,9-7.4,18.7-17.3,29.1c-16.5-3.1-27.6-7.6-33.4-13.5C301.1,339.4,299.1,333.8,300.7,328.4z
		 M382.9,345.1c2.3,1.7,3.8,3.2,4.5,4.5c0.7,1.3,0.9,2.3,0.6,3c-0.3,0.7-0.9,0.9-1.8,0.7c-0.9-0.2-1.9-0.7-2.8-1.3
		c-1-0.6-2.2-1.5-3.7-2.7c-1.4-1-3.2-2.4-5.4-4c-2.1-1.4-3.7-2.4-4.7-3c-1.1-0.6-2.2-1.1-3.3-1.7c-0.7-0.3-1.5-0.7-2.5-1.2
		c-0.3-0.2-0.6-0.4-0.7-0.8c-0.1-0.3-0.1-0.7,0.1-1c0.1-0.3,0.3-0.5,0.5-0.6c0.2-0.1,0.7-0.1,1.3,0c0.6,0.1,1.6,0.4,2.9,0.8
		c1.3,0.4,3,1.1,5.2,1.9C377.3,341.6,380.7,343.4,382.9,345.1z M381.2,316c3.3-0.5,6.6-0.8,9.8-0.7c3.2,0,5.8,0.6,7.8,1.7
		c0.5,0.3,0.7,0.8,0.7,1.4c0,0.6-0.4,1-0.9,1.2c-1.3,0.5-2.9,0.8-4.7,0.9c-1.8,0.1-4,0.2-6.6,0.2c-2.6,0-5.7,0.1-9.2,0.3
		c-3.5,0.2-7.6,0.5-12.1,1.1c-0.4,0-0.7-0.1-1-0.3c-0.3-0.2-0.5-0.5-0.5-0.9c-0.1-0.3,0-0.6,0.1-0.9c0.1-0.2,0.5-0.5,1-0.7
		c0.6-0.2,1.4-0.5,2.6-0.8c1.2-0.3,2.8-0.7,4.8-1.1C375.1,317,377.9,316.5,381.2,316z M382.4,286.9c0.1,0.5,0,0.9-0.4,1.3
		c-1.7,1.6-4.2,3.2-7.4,4.9c-2.1,1.1-4.3,2.5-6.6,3.9c-2.3,1.5-4.7,3.2-7,5.3c-0.4,0.3-0.8,0.4-1.3,0.3c-0.4-0.1-0.7-0.4-0.9-0.8
		c-0.2-0.4-0.1-0.8,0.2-1.3c0.4-0.6,1.5-1.9,3.2-3.6s3.7-3.6,6-5.6c2.3-1.9,4.7-3.5,7-4.6c2.4-1.2,4.5-1.4,6.3-0.8
		C382,286.1,382.3,286.4,382.4,286.9z"/>
	<g>
		<g>
			<path class="st0" d="M102.8,58.9c12.5,7,26.7-0.5,37-6.5c11.1-6.5,21.7-13.4,36.5-12.9c13.9,0.4,27.9,6.3,30.2,17.8
				c2,10.3-11.8,15.7-23.4,15.8c-9.3,0.1-19.4-11.4-13.6-17.7c2.9-3.7,14.6-3.5,11.3,1c-2.5,3.4-4.4,8.5,2.3,9.8
				c7.4,0.7,8.4-5.8,6.8-9.8c-2.2-4.9-8.9-7.4-15.4-6.7c-12.1,1.3-14.4,12.9-10,19.9c6.3,9.9,20.1,12.3,32.9,8.3
				c-0.1,0.1-0.2,0.1,0.3-0.1c0.4-0.2,0.4-0.1,0.2-0.1c6.4-2.3,11-5.7,13.8-9.8c2.9,4,7.6,7.4,14,9.6c-0.2-0.1-0.2-0.1,0.2,0.1
				c0.4,0.1,0.4,0.1,0.3,0.1c12.8,3.8,26.6,1.1,32.7-8.9c4.4-7.1,1.8-18.6-10.3-19.7c-6.6-0.5-13.1,2.1-15.3,7
				c-1.6,4-0.5,10.5,6.9,9.7c6.6-1.4,4.6-6.5,2.1-9.9c-3.4-4.4,8.3-4.9,11.2-1.2c5.9,6.2-4,17.8-13.3,17.9
				c-11.6,0.1-25.5-5-23.7-15.4c2-11.5,16-17.7,29.8-18.3c14.8-0.8,25.5,5.9,36.7,12.2c10.4,5.9,24.7,13.1,37.1,5.9
				c14.2-8.3,2.3-25.9-14.7-20.9c-5.5,2.1-10.5,8.1-3.7,11.5c2.5,1.3,5.6,1.2,8.3,0.4c2.2-0.7,1.3-2.3-0.9-1.6
				c-8.6,2.1-9.6-5.4-2.5-8c7.3-2,14.4,1,15.8,6.9c1.1,4.4-2.1,8.2-7.1,10.2c-5.8,2.3-12.1,1.2-17.7-1.1c-15-6.1-25.8-16.2-43.1-19
				c-16.3-2.6-34.2-0.3-42.6,12c-0.2,0.3-0.4,0.6-0.6,0.9c-0.2-0.3-0.4-0.6-0.6-0.9c-8.6-12.2-26.5-14.1-42.8-11.2
				c-17.2,3.1-27.8,13.4-42.7,19.7c-5.5,2.3-11.8,3.6-17.6,1.4c-5-1.9-8.3-5.7-7.3-10.1c1.3-6,8.4-9.1,15.7-7.2
				c7.2,2.4,6.3,10-2.4,8c-2.2-0.6-3,0.9-0.8,1.6c2.7,0.8,5.8,0.8,8.3-0.5c6.7-3.6,1.7-9.5-3.9-11.5C100.1,33,88.5,50.8,102.8,58.9z
				"/>
			<path class="st0" d="M141.1,64.9c-12.8,0.2-25.7,1.3-38.6,1.5c-22.5,0.3-45.1,0.8-67.6,0.8c-3.4,0-3.3,7.1-0.4,7.1
				c3.5,1.1,10.4,0.1,14.3,0.1c11.8,0,23.7-0.2,35.5-0.4c12.2-0.3,24.5,0.1,36.7-0.1c10.4-0.1,20.7,0.9,31.1-0.2
				c2.7-0.2,2.5-6.4,1.2-7.5C151.6,64.5,143.7,64.9,141.1,64.9z"/>
			<path class="st0" d="M388.4,71.1c3-0.1,2.9-7.2-0.5-7.1c-22.5,0.4-45.1,0.4-67.6,0.4c-12.9,0-25.7-0.8-38.6-0.8
				c-2.6,0-10.5-0.2-12.3,1.4c-1.3,1.2-1.3,7.3,1.4,7.5c10.4,0.9,20.7-0.3,31.1-0.3c12.2-0.1,24.4-0.7,36.7-0.6
				c11.8,0,23.7,0.1,35.5-0.2C378,71.4,384.9,72.3,388.4,71.1z"/>
		</g>
	</g>
</g>
</svg>
