<?xml version="1.0" encoding="utf-8"?>
<!-- Generator: Adobe Illustrator 22.0.1, SVG Export Plug-In . SVG Version: 6.00 Build 0)  -->
<svg version="1.1" id="Layer_1" xmlns="http://www.w3.org/2000/svg" xmlns:xlink="http://www.w3.org/1999/xlink" x="0px" y="0px"
	 viewBox="0 0 432 432" style="enable-background:new 0 0 432 432;" xml:space="preserve">
<style type="text/css">
	.st0{fill:#231F20;}
</style>
<g>
	<g>
		<g>
			<path class="st0" d="M44.7,154.6c-2.4-1.7-4.1-3.8-5-6.3c-0.4-1.2-0.6-2.4-0.6-3.7c0-3.1,1.1-5.7,3.3-7.6
				c1.6-1.4,3.4-2.2,5.7-2.2c2.8,0,4.8,1.2,6.2,3.5c0.2,0.3,0.3,0.6,0.3,0.9c0,0.7-0.3,1.2-0.9,1.5c-0.3,0.2-0.5,0.3-0.9,0.3
				c-0.7,0-1.2-0.3-1.6-0.9c-0.7-1.1-1.6-1.7-2.9-1.7c-1,0-1.9,0.4-2.6,1.1c-0.9,1-1.5,1.9-1.7,2.9c-0.2,0.9-0.3,1.7-0.3,2.2
				c0,0.9,0.1,1.7,0.5,2.5c0.6,1.8,1.7,3.1,3.3,3.8c1.4,0.7,2.9,1,4.5,1c3.8,0,7.2-1.1,10-3.3c2.9-2.2,4.3-4.8,4.3-7.8
				c0-4.2-5.1-8.1-15.2-11.9c-10.2-3.7-15.3-9.7-15.3-18.2V110c-5.8-0.2-10.4-1.9-13.6-5.1c-4.8-4.7-7.2-10.6-7.2-17.9
				c0-7.1,2.4-12.4,7.2-16.1c2.4-1.9,5.1-2.8,8.1-2.8c2,0,3.9,0.5,5.7,1.4c1.7,0.9,3,2.3,3.8,4.3c0.6,1.4,1,2.9,1,4.4
				c0,3.5-1.1,6.4-3.4,8.7c-1.7,1.8-3.8,2.6-6.4,2.6c-1.2,0-2.4-0.3-3.6-0.9c-1.2-0.6-2.1-1.4-2.7-2.4c-0.3-0.6-0.5-1.2-0.5-1.9
				c0-0.6,0.2-1.1,0.6-1.5c0.4-0.4,0.9-0.5,1.4-0.5c0.8,0,1.4,0.3,1.7,0.9c0.2,0.4,0.4,0.9,0.5,1.6c0.2,1,1,1.5,2.5,1.5
				c1.6,0,3.1-0.7,4.4-2.2c1.3-1.4,1.9-3.4,1.9-5.9c0-1-0.2-2-0.6-2.9c-1-2.1-2.8-3.2-5.5-3.2c-1.9,0-3.5,0.6-4.9,1.8
				c-3.8,3.2-5.7,7.5-5.7,12.9c0,6.1,1.5,10.8,4.5,14.1c3,3.3,6.7,5.1,11.1,5.5c0.4-2.7,1.1-5.5,2.1-8.4c1.6-4.6,3.8-8.9,6.7-12.9
				c2.9-4,6.2-7.4,9.9-10c3.7-2.6,7.6-3.8,11.8-3.8c3.2,0,5.5,1.3,7.1,3.9c1,1.7,1.5,3.8,1.5,6.5c0,7.3-3.5,13.8-10.4,19.4
				c-6.9,5.7-13.8,8.6-20.6,8.9c0.8,4.8,5.8,9,15.1,12.4c10.1,3.8,15.2,8.9,15.2,15.3c0,5-2,9.5-5.9,13.4c-4,4-9.1,6-15.3,6
				C49.9,157.1,47.1,156.3,44.7,154.6z M62.1,98.3C68,93.3,71,87.8,71,81.7c0-4.1-1.5-6.2-4.4-6.2c-2.9,0-6.6,2.2-11,6.5
				c-3.6,3.5-6.4,7.7-8.5,12.5c-1.8,4-2.8,8-3.1,11.8C50.1,106.1,56.1,103.4,62.1,98.3z"/>
			<path class="st0" d="M105.3,116.1c3-5.1,6.8-7.6,11.4-7.6c2.1,0,3.7,0.5,4.9,1.4c1.2,1,1.8,2.2,1.8,3.7c0,0.6-0.2,1.2-0.6,1.6
				c-0.5,0.5-1,0.7-1.6,0.7c-1.2,0-2-0.7-2.4-2.2c-0.2-0.9-0.8-1.3-1.6-1.3c-2.2,0-4.1,2.7-5.7,8c-1,3.5-1.6,7.3-1.6,11.2
				c0,4,0.5,7.2,1.7,9.4c0.8,1.5,1.8,2.3,3.1,2.3c1.1,0,2.2-0.5,3.3-1.5c1-1,1.9-2.1,2.7-3.4c0.8-1.3,1.4-2.4,1.8-3.3
				c-4.5-0.7-6.7-3.6-6.7-8.9c0-1.5,0.3-3.1,1-4.8c0.6-1.6,1.3-2.9,2.1-3.6c1-1.1,2.3-1.6,3.8-1.6c2.4,0,4,1.5,4.8,4.5
				c0.5,1.6,0.7,3.2,0.7,4.6c0,1.6-0.1,3-0.4,4.2c0.7-0.6,1.3-1.2,1.9-1.8c2.6-3,4.8-6.3,6.5-10c0.3-0.7,0.9-1,1.6-1
				c0.2,0,0.5,0,0.8,0.2c0.7,0.3,1,0.9,1,1.6c0,0.3,0,0.5-0.2,0.8c-1.2,2.6-2.9,5.4-5.1,8.5c-2.2,3.1-4.8,5.3-7.8,6.7
				c-0.7,2.1-1.6,4.1-2.8,6c-1.2,1.9-2.7,3.5-4.4,4.8c-1.8,1.3-3.8,1.9-6.2,1.9c-2.6,0-4.8-0.7-6.4-2.1c-3.5-2.9-5.2-7.5-5.2-13.8
				c0-2,0.2-4,0.5-5.8l0,0c-2.7,1.6-5.4,2.4-8.4,2.4c-4.6,0-8.7-1.7-12.5-5.2c-2.1-1.9-3.8-4.3-5.2-7c-1.9-3.9-2.8-8.2-2.8-13
				c0-4.2,0.8-8.3,2.3-12.4C77.6,84,81.5,78.8,87,74.9c6.2-4.4,13.5-6.6,22.1-6.6c2.1,0,4.4,0.2,6.8,0.5c1.7-3.3,3.8-6.2,6.3-8.9
				c4-4.3,8.7-7.5,14.1-9.8c5.3-2.3,10.9-3.4,16.7-3.4c12.7,0,21.4,4.4,26,13.2c1.9,3.5,2.8,7.5,2.8,11.8c0,5.7-1.8,10.9-5.2,15.3
				c-3.5,4.5-8.3,6.7-14.5,6.7c-3.5,0-6.7-0.9-9.3-2.7c-2.7-1.8-4.7-4.3-5.8-7.7c-0.6-1.8-1-3.7-1-5.5c0-4.3,1.4-8,4-10.9
				c1.7-1.9,3.8-3.2,6.2-3.8c1-0.3,1.9-0.5,2.4-0.5c1.2,0,1.9,0.6,1.9,1.8c0,1-0.5,1.6-1.4,1.8c-1.7,0.4-3.1,1.1-4.3,2.4
				c-1.5,1.6-2.4,3.2-2.8,4.8c-0.3,1.6-0.5,3-0.5,4c0,1.1,0.1,2.2,0.4,3.3c0.7,2.9,1.9,5.1,3.7,6.8c1.8,1.7,4,2.6,6.9,2.6
				c4.6,0,8.4-1.9,11.4-5.7c2.9-3.8,4.4-8.1,4.4-12.7c0-3.8-0.8-7.2-2.4-10.1C172,54.5,164.7,51,153.9,51
				c-10.7,0-19.8,3.8-27.2,11.5c-2.2,2.3-4,4.8-5.5,7.6c5,1.4,9.3,4.1,12.8,8.1c3.1,3.6,4.7,7.3,4.7,11.3c0,3.1-1,5.9-2.9,8.3
				c-1.3,1.6-2.9,2.8-4.9,3.5c-1.2,0.5-2.4,0.7-3.6,0.7c-4.3,0-7.8-1.8-10.6-5.4c-2.8-3.6-4.1-8.4-4.1-14.4c0-3.4,0.6-6.7,1.8-9.8
				c-1.2-0.1-2.5-0.2-3.7-0.2c-7.7,0-14.3,1.9-19.7,5.8c-4.9,3.5-8.4,8.1-10.5,13.7c-1.4,3.6-2,7.3-2,11c0,5.1,1.1,9.5,3.4,13.3
				c1.4,2.5,3.3,4.4,5.4,5.9c2.1,1.5,4.4,2.2,6.9,2.2c4,0,7.4-1.9,10.1-5.7C104.5,117.5,104.9,116.8,105.3,116.1z M129.7,97.8
				c2.8-1.2,4.5-3.3,5.2-6.4c0.1-0.7,0.2-1.4,0.2-2.1c0-1.3-0.2-2.6-0.7-3.8c-0.7-1.9-1.8-3.6-3.1-5.2c-3.1-3.5-6.9-5.8-11.5-7
				c-1.1,2.6-1.7,5.5-1.7,8.6c0,5,1,8.9,3.1,11.8c2,2.9,4.3,4.4,6.7,4.4C128.5,98.2,129.2,98.1,129.7,97.8z M124.5,125.5
				c0-1.1-0.1-2.1-0.2-2.9c-0.4-1.9-1-2.9-1.8-2.9c-0.8,0-1.5,0.8-2.2,2.4c-0.5,1.1-0.7,2.4-0.7,3.8c0,3.7,1.4,5.5,4.2,5.5
				C124.2,129.4,124.5,127.4,124.5,125.5z"/>
			<path class="st0" d="M81.8,188.5c-4.4-3.9-6.6-8.7-6.6-14.5c0-5.2,1.8-9.7,5.2-13.7c2.2-2.5,4.9-4.4,8-5.5c3-1.1,6.2-1.7,9.5-1.7
				c4.7,0,8.9,1.3,12.9,3.8c3.5,2.3,6,5.4,7.5,9.5c0.2,0.7,0.4,1.3,0.4,1.9c0,1.2-0.6,1.9-1.9,1.9c-0.9,0-1.5-0.5-1.7-1.4
				c-1.1-3.9-3.3-6.8-6.5-8.7c-3.3-1.9-7-2.8-11.2-2.8c-5.2,0-9.5,2.1-13,6.4c-2.5,3-3.7,6.5-3.7,10.4c0,4.2,1.6,7.7,4.8,10.5
				c4,3.4,8.4,5.2,13.1,5.2c11.2,0,25.2-6.2,41.9-18.8c1.6-1.2,3.2-2.4,4.8-3.4c-2-5.2-3.1-11.5-3.1-18.8c0-7.5,1.9-16.2,5.7-26
				c0.9-2.3,1.9-4.8,2.9-7.6c-3.9,2.9-7.2,4.4-9.9,4.4c-1.6,0-2.9-0.4-4.2-1.3c-2.7-1.9-4-4.9-4-9c0-3.3,0.7-6,2.1-8.1
				c1.4-2.1,2.9-3.2,4.7-3.2c2.1,0,3.7,0.9,4.6,2.7c0.7,1.5,1.1,3,1.1,4.6c0,3.4-1,6.9-3,10.5c1.2-0.3,2.2-0.8,3.1-1.3
				c2.5-1.5,4.4-3.1,5.8-4.8c1.4-1.6,2.7-2.4,3.9-2.4c1.4,0,2.1,0.8,2.1,2.5c0,0.6-0.1,1.2-0.3,1.7c-0.6,1.6-1.7,5.8-3.4,12.7
				c-1.7,7.6-2.5,14.7-2.5,21.3c0,1.7,0.1,3.1,0.2,4.3c0.6,4.6,1.5,8.6,2.7,12.2c11-6.5,20.5-9.8,28.6-9.8c5.8,0,10.5,1.3,14,3.9
				c4.3,3.1,6.4,7.7,6.4,13.7c0,4.4-2.2,8.3-6.6,11.7c-4.4,3.4-10.3,5.1-17.6,5.1c-15.2,0-25.6-4.9-31.3-14.8
				c-1.7,1.2-3.5,2.4-5.2,3.8c-17,12.5-31.4,18.8-43.4,18.8C91.7,194.2,86.1,192.3,81.8,188.5z M141.6,105.2c0-0.7-0.1-1.3-0.3-1.8
				c-0.2-0.7-0.5-1-0.9-1c-1,0-1.8,1.9-2.3,5.8c0,0.5-0.1,0.9-0.1,1.5c0,1.9,0.3,3.4,0.8,4.5C140.7,111,141.6,108,141.6,105.2z
				 M192.3,177.8c3.3-2.5,5-5.3,5-8.4c0-8.5-5.6-12.8-16.7-12.8c-6.2,0-14.6,3.2-25.1,9.6c4.7,10.3,12.5,15.4,23.5,15.4
				C184.5,181.6,188.9,180.3,192.3,177.8z"/>
			<path class="st0" d="M171.1,139c0-4.1,2.4-12,7.1-23.9c-3.9,2.9-7.2,4.4-9.9,4.4c-1.6,0-2.9-0.4-4.2-1.3c-2.7-1.9-4-4.9-4-9
				c0-3.3,0.7-6,2.1-8.1c1.4-2.1,2.9-3.2,4.7-3.2c2.1,0,3.7,0.9,4.6,2.7c0.7,1.5,1.1,3,1.1,4.6c0,3.4-1,6.9-3,10.5
				c1.2-0.3,2.2-0.8,3.1-1.3c2.5-1.5,4.4-3.1,5.8-4.8c1.4-1.6,2.7-2.4,3.9-2.4c1.4,0,2.1,0.8,2.1,2.5c0,0.6-0.1,1.2-0.3,1.7
				c-0.5,1.3-1.4,4.8-2.8,10.4c-1.4,5.6-2.1,10-2.1,13.2c0,3.2,0.7,4.8,2.2,4.8c2.4,0,5.9-5,10.5-14.9l3.4-7.4c0.3-0.7,0.8-1,1.5-1
				c0.2,0,0.5,0,0.8,0.2c0.7,0.3,1,0.9,1,1.6c0,0.3,0,0.5-0.2,0.8c-1.9,4-3,6.4-3.3,7.1c-2,4.8-4,8.9-5.9,12.1
				c-3.5,5.7-7.3,8.6-11.4,8.6c-2,0-3.7-0.6-5-1.8C171.7,144,171.1,141.9,171.1,139z M169.1,105.2c0-0.7-0.1-1.3-0.3-1.8
				c-0.2-0.7-0.5-1-0.9-1c-1,0-1.8,1.9-2.3,5.8c0,0.5-0.1,0.9-0.1,1.5c0,1.9,0.3,3.4,0.8,4.5C168.1,111,169.1,108,169.1,105.2z"/>
			<path class="st0" d="M201.6,173.5c-3.6-1.5-5.4-4.6-5.4-9.2c0-2.2,0.5-4.6,1.6-7.1c1.4-3.2,3.3-6.1,5.9-8.8
				c2.5-2.7,5.1-5.2,7.8-7.6c0.6-4.6,1-9.1,1.2-13.4c-3.8,10.1-7.7,15.1-11.4,15.1c-4.9,0-7.3-4-7.3-12.1c0-2,0.1-4.2,0.5-6.5
				c1.1-9,2.9-13.5,5.5-13.5c1.5,0,2.2,1.2,2.2,3.5c0,1.9-0.4,3.3-1.2,4.3c-0.1,1.3-0.2,2.8-0.2,4.7c0,2.7,0.1,5.1,0.3,7.3
				c0.4,4.9,1.1,7.4,2.3,7.4c1.8,0,4.8-6.6,8.9-19.7c0.5-1.7,0.8-3.5,0.8-5.4v-1.6c0-1.4,0.3-2.4,1-2.9c0.6-0.5,1.2-0.8,1.7-0.8
				c1.4,0,2.2,1,2.5,3c1,6.7,1.5,14.2,1.7,22.6c4.4-4.3,8-9.4,10.9-15.2c0.3-0.7,0.9-1,1.6-1c0.3,0,0.5,0,0.8,0.2
				c0.7,0.3,1,0.9,1,1.7c0,0.2,0,0.5-0.2,0.7c-3.1,6.4-7.9,12.7-14.3,18.8c-0.2,14.3-2.5,24.7-7,31.1c-1.4,2-3.1,3.4-5.3,4.3
				c-1,0.4-2,0.6-3,0.6C203.5,174.1,202.6,173.9,201.6,173.5z M203.5,167.9c2.9-3.4,5.3-10.5,7.2-21.4c-1.3,1.2-2.6,2.4-3.8,3.8
				c-2.4,2.4-4.3,5.2-5.7,8.4c-0.9,2-1.4,3.9-1.4,5.7c0,1.3,0.2,2.4,0.7,3.3c0.4,0.8,0.9,1.1,1.4,1.1
				C202.5,168.7,203,168.4,203.5,167.9z"/>
			<path class="st0" d="M332.4,158.9c-2-1.5-3.5-3.5-4.3-6.1c-0.8-2.5-1.2-5.3-1.2-8.3c0-7.1,2.1-17.8,6.3-32.2
				c3.2-10.9,4.8-19.8,4.8-26.7c0-2.5-0.2-4.6-0.7-6.2c-0.8-2.6-2.1-3.9-3.9-3.9c-3,0-6.2,2.6-9.5,7.7c-3.9,6-7.2,13.3-9.7,21.7
				c-2.6,8.9-3.9,16.8-3.9,23.8v4.7c0,0.7-0.3,1.2-0.8,1.6c-1.2,0.9-2.4,1.4-3.7,1.4c-2.9,0-4.6-2.6-5-7.8c-0.1-1.6-0.2-3.1-0.2-4.5
				c0-3.6,0.3-8.3,0.8-14.2c0.6-6.4,1-11.2,1-14.6c0-1.5-0.1-2.9-0.3-4.2c-0.3-2.3-1.1-3.4-2.3-3.4c-2.5,0-4.8,2.5-6.8,7.6
				c-3.9,9.6-5.9,22.5-5.9,38.6c0,5,0.2,10.1,0.7,15.1c0.1,0.9,0.1,1.9,0.1,3.1c0,0.7-0.5,1.4-1.3,2c-1.3,0.9-2.9,1.4-4.6,1.4
				c-1.7,0-2.7-0.7-3-2c-2.3-11.2-3.6-21.2-4-30c-0.4-8.8-0.6-15.8-0.6-21.1c-2.9,4.8-6.3,8.2-10.3,10.3c-1.9,1-4,1.5-6.2,1.5
				c-5.2,0-9-2.1-11.4-6.2c-1.7-2.9-2.5-6.1-2.5-9.9c0-4.5,1.1-8.5,3.3-12.2c2.9-4.7,6.7-7,11.5-7c2.4,0,4.4,0.8,6.2,2.3
				c1.7,1.5,2.5,3.7,2.5,6.4c0,3.3-1.2,6.3-3.5,9.1c-2.4,2.8-5,4.2-7.9,4.2c-0.7,0-1.3-0.3-1.8-0.8c-0.5-0.5-0.8-1.1-0.8-1.8
				c0-0.7,0.2-1.3,0.6-1.8c0.4-0.4,0.9-0.6,1.4-0.6c0.5,0,0.9,0,1.3,0.1c0.4,0.1,0.8,0.2,1.1,0.2c1.1,0,2.4-0.9,3.8-2.7
				c1.4-1.8,2.1-3.7,2.1-5.8c0-3.3-1.5-5-4.5-5c-1.9,0-3.5,0.7-4.9,2c-1.4,1.4-2.5,3.1-3.3,5.2c-0.8,2.1-1.3,3.9-1.4,5.4
				c-0.1,1.5-0.2,2.5-0.2,3.1c0,4.4,1.1,7.8,3.3,10c1.3,1.4,3,2,5.2,2c2.9,0,5.9-1.5,9-4.4c4.1-4,6.6-8.8,7.4-14.4
				c0.4-2.6,0.7-5.6,1-9c0.5-5.5,1.9-8.2,4.1-8.2c1.5,0,2.3,1.3,2.3,4c0,4.3-0.5,7.8-1.3,10.5c-0.3,0.9-0.5,4.3-0.5,10.1
				c0,11.7,1.1,23.3,3.3,34.7c0-10.2,0.9-19.7,2.6-28.4c1.5-7.6,3.9-13.5,7.2-17.9c2.2-2.9,4.8-4.3,7.7-4.3c2.8,0,4.8,1.6,6.1,4.9
				c0.7,1.6,1.1,3.7,1.2,6.2c0.1,2.2,0.2,4.5,0.2,6.7c0,5.5-0.1,8.7-0.1,9.8c-0.1,1.2-0.1,2.4-0.1,3.6c1.4-7.6,3.7-15,6.7-22.2
				c2.8-6.5,5.9-11.7,9.5-15.8c3.4-3.8,6.9-5.7,10.5-5.7c1.8,0,3.4,0.5,4.9,1.6c1.7,1.2,2.9,2.8,3.6,4.8c0.7,2,1,5,1,8.9
				c0,5.6-0.9,13.2-2.7,22.6c-3,15.7-4.5,27.6-4.5,35.5c0,8.8,1.7,13.2,5.2,13.2c1,0,2.3-0.8,3.6-2.5c0.3-0.4,0.6-0.6,1-0.6
				c0.3,0,0.5,0,0.5,0c0.4,0,0.8,0.1,1.2,0.5c0.4,0.3,0.6,0.8,0.6,1.3c0,0.4-0.1,0.8-0.5,1.2c-2.2,2.8-4.9,4.2-8.1,4.2
				C337.2,161.2,334.4,160.4,332.4,158.9z"/>
			<path class="st0" d="M356.9,173.5c-3.6-1.5-5.4-4.6-5.4-9.2c0-2.2,0.5-4.6,1.6-7.1c1.4-3.2,3.3-6.1,5.9-8.8
				c2.5-2.7,5.1-5.2,7.8-7.6c0.6-4.6,1-9.1,1.2-13.4c-3.8,10.1-7.7,15.1-11.4,15.1c-4.9,0-7.3-4-7.3-12.1c0-2,0.1-4.2,0.5-6.5
				c1.1-9,2.9-13.5,5.5-13.5c1.5,0,2.2,1.2,2.2,3.5c0,1.9-0.4,3.3-1.2,4.3c-0.1,1.3-0.2,2.8-0.2,4.7c0,2.7,0.1,5.1,0.3,7.3
				c0.4,4.9,1.1,7.4,2.3,7.4c1.8,0,4.8-6.6,8.9-19.7c0.5-1.7,0.8-3.5,0.8-5.4v-1.6c0-1.4,0.3-2.4,1-2.9c0.6-0.5,1.2-0.8,1.7-0.8
				c1.4,0,2.2,1,2.5,3c1,6.7,1.5,14.2,1.7,22.6c4.4-4.3,8-9.5,10.7-15.3c2.1-4.5,4.3-8.1,6.3-10.8c3.4-4.4,7.8-6.6,13-6.6
				c5.2,0,9,2.1,11.4,6.2c1.7,2.9,2.5,6.1,2.5,9.9c0,4.5-1.1,8.5-3.3,12.2c-2.9,4.7-6.7,7-11.5,7c-2.4,0-4.4-0.8-6.1-2.3
				c-1.7-1.5-2.6-3.6-2.6-6.4c0-3.3,1.2-6.3,3.6-9.1c2.4-2.8,5-4.2,7.8-4.2c0.7,0,1.4,0.3,1.9,0.8c0.5,0.5,0.7,1.1,0.7,1.8
				c0,0.7-0.2,1.3-0.6,1.7c-0.4,0.5-0.9,0.7-1.4,0.7c-0.5,0-0.9,0-1.3-0.2c-0.4-0.1-0.8-0.1-1.1-0.1c-1.1,0-2.4,0.9-3.8,2.6
				c-1.4,1.8-2.1,3.8-2.1,5.9c0,3.3,1.5,5,4.5,5c1.9,0,3.5-0.7,4.9-2c1.4-1.3,2.5-3,3.3-5.2c0.8-2.1,1.3-3.9,1.4-5.4
				s0.2-2.5,0.2-3.1c0-4.4-1.1-7.8-3.3-10c-1.3-1.4-3-2-5.2-2c-3,0-6.1,1.5-9,4.6c-1.9,1.9-4,5.4-6.4,10.4c-3.1,6.6-8,13-14.4,19.2
				c-0.2,14.3-2.5,24.7-7,31.1c-1.4,2-3.1,3.4-5.3,4.3c-1,0.4-2,0.6-3,0.6C358.8,174.1,357.9,173.9,356.9,173.5z M358.8,167.9
				c2.9-3.4,5.3-10.5,7.2-21.4c-1.3,1.2-2.6,2.4-3.8,3.8c-2.4,2.4-4.3,5.2-5.7,8.4c-0.9,2-1.4,3.9-1.4,5.7c0,1.3,0.2,2.4,0.7,3.3
				c0.4,0.8,0.9,1.1,1.4,1.1C357.8,168.7,358.3,168.4,358.8,167.9z"/>
		</g>
	</g>
	<g>
		<g>
			<path class="st0" d="M13.6,174.4c-0.5-1-0.8-2.1-0.5-3.2c0.3-1.3,1.4-1.9,2.6-2.2c1.4-0.4,2.8-0.5,4.4-0.6
				c3.2-0.3,6.6-0.5,9.9-0.6c2.3-0.1,4.5-0.3,6.8-0.3c1.9,0,3.3,1.3,3.5,3.3c0,0.6-0.1,1.4-0.3,1.9c-0.5,1.3-1.5,1.9-3,2.1
				c-0.1,0-0.4,0-0.6,0c-1,9.8-1.4,19.5-0.9,29.4c0.1,0,0.1,0,0.3,0c0-0.3,0.1-0.4,0.3-0.6c1.2-5.1,2.7-10,4.9-14.8
				c1.7-3.7,3.9-7.3,6.8-10.3c2.3-2.3,5-4.1,8.2-4.9c1.5-0.4,3.2-0.5,4.9-0.5c2.3,0,4.5,0.6,6.6,1.7c2.4,1.4,4.1,3.3,5.3,5.8
				c1.4,3,2.7,5.9,4,8.9c0.8,1.9,1.4,3.9,1.9,5.8c0.6,2.4,1.2,4.9,1.7,7.3c0.3,1,0.3,2.1,0.4,3.2c0.1,0.3,0.1,0.6,0.3,1
				c0.1,0,0.1,0,0.3,0c0.5-0.6,1-1.3,1.5-1.9c1.8-2.2,3.9-4.1,6.4-5.5c3.2-1.7,6.3-1.3,9.3,0.6c2.6,1.7,4.4,4.1,5.7,6.9
				c1.7,3.5,2.6,7.2,3.1,11.1c0.5,3.7,0.8,7.6,0.6,11.4c-0.1,2.7-0.4,5.4-0.6,8.1c-0.3,2.6-0.6,5.1-1.2,7.6
				c-0.6,3.1-1.4,6.3-2.2,9.4c-0.1,0.1-0.1,0.1-0.1,0.3c-0.3,1.7-0.8,1.3,0.9,2.7c1.7,1.3,1.4,4.4-0.4,5.4c-1.2,0.6-2.2,0.6-3.5,0.3
				c-2.8-0.9-5.4-2.2-8-3.5c-2.4-1.3-2.6-4.8-0.4-6.3c0.4-0.3,0.5-0.5,0.6-0.9c0.8-3.2,1.5-6.3,2.3-9.4c0.9-3.3,1.3-6.7,1.7-10.2
				c0.3-3.1,0.5-6.3,0-9.5c-0.4-2.8-0.9-5.7-2.4-8.2c-0.3-0.4-0.6-0.8-1-1c-2.7-1.7-4.6-1.7-7.3,0.4c-1.7,1.4-3.1,3.2-4.2,5.1
				c-0.4,0.5-0.5,1-0.5,1.7c0,3.1,0,6.2,0,9.1c-0.1,3.9-0.1,7.7-0.4,11.4c-0.3,2.8-0.6,5.7-1.4,8.5c-0.6,2.6-1.8,4.8-3.6,6.7
				c-1,1.3-2.3,1.9-3.9,2.3c-1.8,0.4-3.5,0.5-5.1-0.1c-1.4-0.5-2.7-1.3-3.9-2.3c-2.8-2.7-4.1-5.9-4.2-9.8c-0.3-3-0.1-5.9,0.9-8.7
				c0.9-2.7,2.2-5.4,3.6-7.8c1.9-3,4-5.8,6.4-8.4c0.4-0.4,0.5-0.6,0.5-1.2c-0.3-3.7-0.5-7.6-0.8-11.3c0-1-0.1-2.2-0.3-3.2
				c-0.3-2.1-0.4-4.1-0.8-6.2c-0.6-3.1-1.3-6.2-2.4-9c-0.6-1.4-1.3-2.7-2.4-3.7c-0.1-0.1-0.3-0.4-0.4-0.5c-1.3-2.3-3.2-2.3-5.1-1.7
				c-2.3,0.6-3.9,2.2-5.3,4.2c-1.8,2.6-3.2,5.5-4.2,8.6c-1.3,3.6-2.3,7.3-3,11.2c-0.6,3.1-1.3,6.3-1.7,9.4c-0.6,4.8-1,9.4-1.2,14.1
				c0,1.5-0.3,3.2-0.1,4.8c0.3,4.2,0.5,8.5,0.8,12.7c0.1,1.4,0.3,2.7,0.4,4.1c0.1,1.2,0.4,2.3,0.6,3.3c0.9,0.3,1.7,0.3,2.4,0.6
				c1.3,0.5,1.9,2.2,1.7,3.9c-0.3,1.5-1.5,2.6-3,2.6c-1.4,0.1-2.8,0.5-4.2,0.5c-2.6,0.1-5.1,0.1-7.7,0.3c-2.4,0.1-4.9,0.1-7.3,0.4
				c-2.1,0.3-3.1-1-3.3-2.6c0-0.3,0-0.6-0.1-0.9c-0.1-1.7,0.5-2.8,2.1-3.5c0.4-0.1,0.8-0.3,1.3-0.5c-0.3-0.9-0.5-1.8-0.8-2.7
				c-0.6-2.3-1.3-4.6-1.9-7.1c-0.6-2.6-1.4-5.3-2.1-8c-0.8-3.2-1.5-6.6-2.2-9.9c-0.6-3.1-1-6.2-1.4-9.3c-0.8-5.4-1.2-10.8-1.5-16.1
				c-0.3-5.8-0.3-11.4-0.1-17.1c0-2.6,0.3-5,0.4-7.5c0.1-0.8,0.1-1.5,0.3-2.4c0.1-1,0.3-2.1,0.4-3.1c-0.8-0.1-1.4,0.1-2.1-0.1
				S14,174.9,13.6,174.4z M22.4,194.6c0.1,4.5,0.4,9,0.8,12.5c0,0.4,0.1,0.9,0.1,1.3c0,0.4,0.1,0.6,0.1,1c0.1,0.8,0.3,1.3,0.3,1.8
				c0.1,1,0.3,1.5,0.3,1.5l7.6-1.3c0,0-0.1-0.5-0.3-1.4c-0.1-0.5-0.1-1-0.3-1.7c0-0.3-0.1-0.6-0.1-1c0-0.4-0.1-0.8-0.1-1.2
				c-0.4-3.1-0.6-7.3-0.6-11.7c-0.1-4.4-0.1-8.7,0-12.1c0-3.2,0-5.7,0-5.7h-7.6c0,0-0.1,2.3-0.1,5.7
				C22.4,185.6,22.4,190.2,22.4,194.6z M31.6,214.5l-7.3,1.9l0.8,3.7l7.5-1.4L31.6,214.5z M32.8,221.4l-7.5,0.9l0.9,1.9l7.5-0.8
				L32.8,221.4z M72,232.6c-0.6,1.4-1.4,2.7-1.9,4.1c-0.6,1.7-1.2,3.5-1.7,5.1c-0.6,2.2-1,4.5-0.9,6.7c0.1,1.3,0.4,2.4,1,3.6
				c0.4,0.6,1,1,1.7,0.6c1-0.4,1.8-1.2,2.1-2.2c0.3-0.9,0.4-1.8,0.5-2.7c0.1-1.2,0.1-2.4,0.4-3.7c0.4-3.9,0.1-7.6-0.1-11.4
				c0-0.3-0.1-0.5-0.3-0.6c0-0.1-0.1-0.1-0.3-0.1C72.4,232.1,72.1,232.4,72,232.6z"/>
			<path class="st0" d="M132.3,213.1c1.9-0.5,3.7-0.9,5.7-1c1.5-0.1,3.1-0.1,4.5,0.1c1.9,0.4,3.7,1,5.3,1.9c3.1,1.9,5.4,4.5,7.2,7.6
				c0.5,0.8,0.9,1.5,1.3,2.4c0.1,0.1,0.1,0.1,0.3,0.3c1.8-1.7,2.6-3.6,1.7-5.7c-0.1-0.4-0.3-0.8-0.4-1.2c-0.4-1.2-0.3-2.3,0.4-3.5
				c0.4-0.6,1-0.6,1.5-0.8c0.9-0.1,1.7,0,2.4,0.5c1.8,1.2,3.5,2.6,5.1,4.1c1.3,1.3,1,3,0,4.2c-0.4,0.3-0.8,0.6-1.2,0.8
				c-0.6,0.4-1.2,0.9-1.5,1.5c-0.9,1-1.8,2.2-2.6,3.3c-0.6,0.9-1.3,1.8-2.2,2.6c-1.4,1.2-1.7,2.7-1.4,4.5c0.3,1.7,0.5,3.5,0.5,5.1
				c0,0.8,0.1,1.4,0.1,2.1c0,0.8,0,1.5,0,2.2c-0.1,1-0.1,1.9-0.3,2.8c-0.3,2.1-0.8,4-1.4,6c-0.6,1.9-1.4,3.9-2.4,5.7
				c-1.9,3.7-4.8,6.9-8.4,9.3c-1.8,1.2-3.9,2.1-5.9,2.6c-1.5,0.5-3.1,0.8-4.6,0.9c-1.8,0.3-3.7,0.3-5.5,0c-4.5-0.5-8.1-2.7-10.9-6.2
				c-1.8-2.1-3.1-4.5-4.2-6.9c-0.9-2.1-1.8-4.4-2.3-6.6c-0.9-3.5-1.3-6.9-1-10.5c0-1.7,0.3-3.2,0.6-4.9c0.5-2.8,1.5-5.7,2.8-8.4
				c1.2-2.4,2.4-4.8,4.2-6.9c1.7-2.1,3.7-3.9,6-5.3C127.8,214.6,130,213.7,132.3,213.1z M133.4,218.7c-1.2,0.5-2.2,1.2-3.3,1.9
				c-3.5,2.2-6.2,4.4-8.2,7.6c0,0,0,0.1-0.1,0.1l-0.5,1.8c-0.4,1-0.6,2.2-1,3.3c-0.1,0.6-0.3,1.2-0.4,1.8c-0.1,0.5-0.3,1.2-0.3,1.7
				c-0.1,0.6-0.3,1.3-0.3,1.8c-0.1,0.6-0.1,1.2-0.1,1.7c-0.3,2.3-0.3,4.5-0.1,6.6c2.3,0,4.6-0.4,6.9-0.6c-0.1-1.8-0.1-3.6,0-5.4
				c0.1-0.4,0.1-0.9,0.1-1.4c0.1-0.5,0.1-0.9,0.3-1.4c0.1-0.5,0.1-1,0.3-1.5c0.1-0.4,0.1-0.9,0.4-1.4c0.3-0.9,0.4-1.8,0.8-2.7
				C128.8,227.6,130.7,222.9,133.4,218.7z M126.4,251c-0.1-0.9-0.3-1.8-0.3-2.7c-2.3,0.3-4.6,0.6-6.9,0.8c0.1,0.9,0.3,1.8,0.3,2.7
				C121.9,251.8,124.1,251.4,126.4,251z M127,255c-0.1-0.4-0.1-0.6-0.3-1c0-0.3,0-0.6-0.1-1c-2.3,0.5-4.5,0.8-6.9,0.8
				c0.1,0.4,0.1,0.8,0.3,1.3C122.3,255,124.6,255,127,255z M134.1,247.2c0.1,1.4,0.3,2.8,0.5,4.2c0.3,1.5,0.6,3.2,1,4.8
				c0.5,1.9,1.2,3.9,1.7,5.8c0.3,0.8,0.6,1.5,1.2,2.2s1.2,0.9,2.1,0.5c0.5-0.1,1-0.4,1.4-0.8c1.2-0.8,2.2-1.7,3.3-2.6
				c2.1-1.8,3.7-3.9,4.9-6.3c1.3-2.3,2.1-4.9,2.4-7.6c0.1-0.8,0.1-1.4,0.3-2.2c0-1.7,0.1-3.3,0-5c0-1.3-0.3-2.4-0.3-3.7
				c0-1-0.5-1.7-1.4-1.8c-0.3-0.1-0.6-0.1-0.9-0.1c-0.4,0-0.6,0.1-0.9,0.1c-1.5,0-3,0.1-4.5-0.3c-1-0.1-2.1-0.5-3-1
				c-2.2-1.2-3.9-2.8-5.1-4.9c-0.1-0.3-0.3-0.4-0.5-0.8c-0.1,0.3-0.3,0.5-0.3,0.6c-0.4,1.2-0.8,2.3-1,3.5c-0.3,1-0.4,2.2-0.5,3.2
				c-0.3,1.4-0.5,3-0.5,4.4C133.8,242,133.7,244.6,134.1,247.2z M142.1,224.5c1.7,2.7,4.1,4.2,7.2,3.7c0.5,0,0.9-0.1,1.4-0.3
				c-0.4-1.9-1.4-3.5-2.4-5c-0.9-1.3-1.9-2.2-3.5-2.7c-1-0.3-2.1-0.3-2.7,1.2c0,0.1,0,0.1,0,0.3
				C141.7,222.6,141.5,223.6,142.1,224.5z"/>
			<path class="st0" d="M190.4,196.9c0.6,0,1.2,0.3,1.7,0.8c0.8,0.6,0.9,1.5,0.8,2.4c0,1.5-1,2.4-2.8,2.4c-0.3,0-0.4,0-0.6,0.1
				c-0.1,0-0.1,0-0.3,0c-0.8,4.2-1.5,8.4-2.1,12.6c0.4,0,0.5-0.1,0.6-0.3c1.3-1,2.6-1.8,4.1-2.2c1.8-0.5,3.6-0.6,5.5-0.5
				c1.3,0,2.6,0.3,3.9,0.5c2.3,0.6,4.2,1.8,5.9,3.3c0.9,0.9,1.7,1.7,2.3,2.7c0.1,0.1,0.3,0.1,0.4,0.3c0.1-0.4,0.3-0.8,0.3-1
				c0.8-3.2,1.7-6.3,2.7-9.3c0.9-2.4,1.9-4.8,3.2-6.9c1.3-2.3,2.8-4.2,5-5.8c2.2-1.7,4.6-2.3,7.3-2.2c2.3,0.1,4.4,0.8,6.3,1.9
				c3,1.9,5.3,4.4,6.9,7.6c1.2,2.3,2.1,4.9,2.7,7.3c0.5,2.2,0.9,4.2,1.2,6.3c0.3,2.7,0.5,5.3,0.5,7.8c0.1,3.1,0.3,6,0.1,9.1
				c0,3.3,0,6.8-0.1,10.2c-0.1,3.2-0.3,6.3-0.4,9.4c0,1-0.1,1.9-0.1,3c0.1,1.4,0.1,2.8,0.4,4.2c0.1,1.2,0.5,2.2,1.4,3.1
				c0.5,0.4,1.2,0.8,1.8,0.6c0.6,0,1.3,0,1.8,0c1.3,0,1.9,0.5,2.3,1.7c0.1,0.6,0.3,1.3,0.3,2.1c0.1,0.8,0.3,1.5,0.3,2.3
				c0,0.5-0.1,1-0.3,1.5c-0.4,1-1.2,1.4-2.1,1.5c-1.4,0.1-2.7,0.1-4.1,0.1c-1.5,0-3.1-0.1-4.6-0.5c-3.1-0.9-5.5-2.6-7.3-5.3
				c-0.9-1.4-1.5-3.1-2.1-4.8c-0.8-2.6-1-5.1-1.2-7.8c0-1.3-0.1-2.7,0-4.1c0-1.2,0.1-2.4,0.1-3.7c0-1.2,0-2.3,0.1-3.3
				c0-2.8,0.1-5.5,0.3-8.2c0-2.3-0.1-4.5-0.4-6.8c0-0.4,0-0.6-0.1-1c-0.1-1.7-0.3-3.5-0.5-5.3c0-0.6-0.1-1.3-0.1-2.1
				c-0.1-1.4-0.3-3-0.5-4.5c-0.3-1.7-0.4-3.3-1-4.9c-0.1-0.5-0.4-1-0.8-1.5c-0.3-0.4-0.6-0.6-1.2-0.8c-0.1,0-0.5,0-0.6,0.1
				c-1,0.5-1.8,1.3-2.4,2.2c-0.9,1.3-1.7,2.7-2.2,4.2c-0.9,2.2-1.7,4.5-2.2,6.8c-0.4,1.9-0.8,3.9-1.2,5.7c-0.3,1.7-0.5,3.3-0.8,5
				c-0.3,2.2-0.5,4.4-0.8,6.6c-0.4,3.2-0.6,6.4-0.8,9.5c0,0.6-0.1,1.3-0.1,1.8c0,0.4-0.4,0.8-1.2,1c-0.6,0.1-1.2,0.1-1.8,0.1
				c-1-0.1-2.2-0.3-3.3-0.4c-0.4-0.1-0.6-0.4-0.8-0.8c0-0.3-0.1-0.4-0.1-0.6c-0.3-1.3-0.5-2.4-0.6-3.9c0-1.5-0.1-3.2-0.3-4.9
				c0-0.8-0.1-1.5-0.1-2.3c-0.1-1.4-0.3-2.8-0.5-4.4c-0.4-2.6-0.8-5.3-1.5-7.7c-0.5-1.9-1.3-3.7-2.4-5.4c-1.2-1.5-2.4-2.7-4.4-3.1
				c-0.4-0.1-0.9-0.1-1.4-0.1c-3.3,0-5.9,1.4-7.8,4.1c-1.2,1.7-1.8,3.6-2.3,5.5c-0.6,1.9-0.9,3.9-1.2,5.8c-0.3,2.4-0.4,4.8-0.4,7.2
				c0,1.9-0.1,4,0,5.9c0,2.4,0.1,5,0.4,7.5c0.3,1.2,0.4,2.4,0.5,3.7c0.1,0.8,0.3,1.5,0.4,2.3c0.1,0.6,0.3,0.9,0.9,1.2
				c0.9,0.4,1.4,1.2,1.5,2.2c0.3,0.8,0.3,1.7-0.1,2.6c-0.5,0.9-1.2,1.5-2.2,1.8c-1,0.3-1.9,0.1-3,0.1c-0.8,0.1-1.5,0-2.3,0
				c-3-0.1-5.9-0.1-8.9-0.3c-1,0-2.1,0-3-0.1c-0.6,0-1.2,0-1.8-0.1c-0.5,0-0.9-0.1-1.3-0.1c-1.4,0-2.6-0.5-3.5-1.4
				c-0.3-0.1-0.4-0.4-0.4-0.6c-0.3-1-0.3-1.9,0.1-3c0.5-1,1.4-1.5,2.6-1.4c0.5,0,1,0,1.5,0.1c0,0,0.1,0,0.3,0
				c0.1-0.3,0.1-0.3,0.1-0.4c-0.3-2.3-0.5-4.6-0.6-7.1c-0.1-1.5-0.1-3.2-0.3-4.8c0-2.1,0-4,0-6c0-2.4,0.1-5,0.1-7.6
				c0.1-2.2,0.3-4.5,0.4-6.7c0.3-2.2,0.4-4.4,0.6-6.4c0.1-2.4,0.3-4.8,0.5-7.2c0.3-1.8,0.5-3.7,0.8-5.5c0.3-1.5,0.5-3.1,0.8-4.6
				c0.1-0.4,0.3-0.8,0.4-1.2c-0.6-0.1-1.3-0.3-1.9-0.5c-0.1,0-0.3-0.1-0.4-0.3c-1-0.4-1.4-1.3-1.4-2.3c0.1-0.4,0-0.9,0.1-1.3
				c0-0.4,0.1-0.9,0.4-1.3c0.4-0.8,1-1,1.8-1c2.8,0.1,5.5-0.1,8.2-0.3c1.8-0.1,3.5-0.1,5.3-0.3c1.3,0,2.4-0.1,3.7-0.1
				c0.1,0,0.3,0,0.4,0C188.5,197,189.4,196.9,190.4,196.9z M179.2,248.2h-6.9l-0.1,3.3h6.9L179.2,248.2z M179.2,253.2h-6.9h-0.1h0.1
				h6.8H179.2z M183.1,203.3c0-0.4,0-0.5,0-0.5l-6.9,0.3c0,0,0,0.1,0,0.4c0,0.4,0.1,0.8,0,1.3c0,1-0.1,2.6-0.4,4.6
				c-0.4,1.9-0.8,4.4-1,6.9c-0.3,1.4-0.4,2.7-0.6,4.1c0,0.6-0.1,1.4-0.3,2.1c-0.1,0.6-0.1,1.4-0.1,2.1c-0.1,1.4-0.3,2.8-0.4,4.2
				c-0.1,0.6-0.1,1.3-0.3,2.1c0,0.6,0,1.3,0,1.9c-0.1,1.3-0.1,2.6-0.3,3.7c0,1.3-0.1,2.2-0.1,3.2c0,4.2-0.1,6.8-0.1,6.8h6.9
				c0,0,0.1-2.4,0.1-6.6c0-1,0.1-1.9,0.1-3.1s0.1-2.3,0.1-3.6c0.1-0.6,0.1-1.3,0.1-1.9c0.1-0.6,0.1-1.4,0.1-2.1
				c0.1-1.3,0.3-2.7,0.4-4c0.1-0.8,0.1-1.4,0.3-2.1c0-0.6,0.1-1.3,0.3-2.1c0.1-1.3,0.4-2.6,0.5-3.9c0.3-2.6,0.8-4.9,1-6.9
				c0.4-2.2,0.5-4.1,0.5-5.4C183.1,204.2,183.1,203.7,183.1,203.3z"/>
			<path class="st0" d="M284,196.9c0.6,0,1.2,0.3,1.7,0.8c0.8,0.6,0.9,1.5,0.8,2.4c0,1.5-1,2.4-2.8,2.4c-0.3,0-0.4,0-0.6,0.1
				c-0.1,0-0.1,0-0.3,0c-0.8,4.2-1.5,8.4-2.1,12.6c0.4,0,0.5-0.1,0.6-0.3c1.3-1,2.6-1.8,4.1-2.2c1.8-0.5,3.6-0.6,5.5-0.5
				c1.3,0,2.6,0.3,3.9,0.5c2.3,0.6,4.2,1.8,5.9,3.3c0.9,0.9,1.7,1.7,2.3,2.7c0.1,0.1,0.3,0.1,0.4,0.3c0.1-0.4,0.3-0.8,0.3-1
				c0.8-3.2,1.7-6.3,2.7-9.3c0.9-2.4,1.9-4.8,3.2-6.9c1.3-2.3,2.8-4.2,5-5.8c2.2-1.7,4.6-2.3,7.3-2.2c2.3,0.1,4.4,0.8,6.3,1.9
				c3,1.9,5.3,4.4,6.9,7.6c1.2,2.3,2.1,4.9,2.7,7.3c0.5,2.2,0.9,4.2,1.2,6.3c0.3,2.7,0.5,5.3,0.5,7.8c0.1,3.1,0.3,6,0.1,9.1
				c0,3.3,0,6.8-0.1,10.2c-0.1,3.2-0.3,6.3-0.4,9.4c0,1-0.1,1.9-0.1,3c0.1,1.4,0.1,2.8,0.4,4.2c0.1,1.2,0.5,2.2,1.4,3.1
				c0.5,0.4,1.2,0.8,1.8,0.6c0.6,0,1.3,0,1.8,0c1.3,0,1.9,0.5,2.3,1.7c0.1,0.6,0.3,1.3,0.3,2.1c0.1,0.8,0.3,1.5,0.3,2.3
				c0,0.5-0.1,1-0.3,1.5c-0.4,1-1.2,1.4-2.1,1.5c-1.4,0.1-2.7,0.1-4.1,0.1c-1.5,0-3.1-0.1-4.6-0.5c-3.1-0.9-5.5-2.6-7.3-5.3
				c-0.9-1.4-1.5-3.1-2.1-4.8c-0.8-2.6-1-5.1-1.2-7.8c0-1.3-0.1-2.7,0-4.1c0-1.2,0.1-2.4,0.1-3.7c0-1.2,0-2.3,0.1-3.3
				c0-2.8,0.1-5.5,0.3-8.2c0-2.3-0.1-4.5-0.4-6.8c0-0.4,0-0.6-0.1-1c-0.1-1.7-0.3-3.5-0.5-5.3c0-0.6-0.1-1.3-0.1-2.1
				c-0.1-1.4-0.3-3-0.5-4.5c-0.3-1.7-0.4-3.3-1-4.9c-0.1-0.5-0.4-1-0.8-1.5c-0.3-0.4-0.6-0.6-1.2-0.8c-0.1,0-0.5,0-0.6,0.1
				c-1,0.5-1.8,1.3-2.4,2.2c-0.9,1.3-1.7,2.7-2.2,4.2c-0.9,2.2-1.7,4.5-2.2,6.8c-0.4,1.9-0.8,3.9-1.2,5.7c-0.3,1.7-0.5,3.3-0.8,5
				c-0.3,2.2-0.5,4.4-0.8,6.6c-0.4,3.2-0.6,6.4-0.8,9.5c0,0.6-0.1,1.3-0.1,1.8c0,0.4-0.4,0.8-1.2,1c-0.6,0.1-1.2,0.1-1.8,0.1
				c-1-0.1-2.2-0.3-3.3-0.4c-0.4-0.1-0.6-0.4-0.8-0.8c0-0.3-0.1-0.4-0.1-0.6c-0.3-1.3-0.5-2.4-0.6-3.9c0-1.5-0.1-3.2-0.3-4.9
				c0-0.8-0.1-1.5-0.1-2.3c-0.1-1.4-0.3-2.8-0.5-4.4c-0.4-2.6-0.8-5.3-1.5-7.7c-0.5-1.9-1.3-3.7-2.4-5.4c-1.2-1.5-2.4-2.7-4.4-3.1
				c-0.4-0.1-0.9-0.1-1.4-0.1c-3.3,0-5.9,1.4-7.8,4.1c-1.2,1.7-1.8,3.6-2.3,5.5c-0.6,1.9-0.9,3.9-1.2,5.8c-0.3,2.4-0.4,4.8-0.4,7.2
				c0,1.9-0.1,4,0,5.9c0,2.4,0.1,5,0.4,7.5c0.3,1.2,0.4,2.4,0.5,3.7c0.1,0.8,0.3,1.5,0.4,2.3c0.1,0.6,0.3,0.9,0.9,1.2
				c0.9,0.4,1.4,1.2,1.5,2.2c0.3,0.8,0.3,1.7-0.1,2.6c-0.5,0.9-1.2,1.5-2.2,1.8c-1,0.3-1.9,0.1-3,0.1c-0.8,0.1-1.5,0-2.3,0
				c-3-0.1-5.9-0.1-8.9-0.3c-1,0-2.1,0-3-0.1c-0.6,0-1.2,0-1.8-0.1c-0.5,0-0.9-0.1-1.3-0.1c-1.4,0-2.6-0.5-3.5-1.4
				c-0.3-0.1-0.4-0.4-0.4-0.6c-0.3-1-0.3-1.9,0.1-3c0.5-1,1.4-1.5,2.6-1.4c0.5,0,1,0,1.5,0.1c0,0,0.1,0,0.3,0
				c0.1-0.3,0.1-0.3,0.1-0.4c-0.3-2.3-0.5-4.6-0.6-7.1c-0.1-1.5-0.1-3.2-0.3-4.8c0-2.1,0-4,0-6c0-2.4,0.1-5,0.1-7.6
				c0.1-2.2,0.3-4.5,0.4-6.7c0.3-2.2,0.4-4.4,0.6-6.4c0.1-2.4,0.3-4.8,0.5-7.2c0.3-1.8,0.5-3.7,0.8-5.5c0.3-1.5,0.5-3.1,0.8-4.6
				c0.1-0.4,0.3-0.8,0.4-1.2c-0.6-0.1-1.3-0.3-1.9-0.5c-0.1,0-0.3-0.1-0.4-0.3c-1-0.4-1.4-1.3-1.4-2.3c0.1-0.4,0-0.9,0.1-1.3
				c0-0.4,0.1-0.9,0.4-1.3c0.4-0.8,1-1,1.8-1c2.8,0.1,5.5-0.1,8.2-0.3c1.8-0.1,3.5-0.1,5.3-0.3c1.3,0,2.4-0.1,3.7-0.1
				c0.1,0,0.3,0,0.4,0C282.1,197,283,196.9,284,196.9z M272.8,248.2h-6.9l-0.1,3.3h6.9L272.8,248.2z M272.8,253.2h-6.9h-0.1h0.1h6.8
				H272.8z M276.7,203.3c0-0.4,0-0.5,0-0.5l-6.9,0.3c0,0,0,0.1,0,0.4c0,0.4,0.1,0.8,0,1.3c0,1-0.1,2.6-0.4,4.6
				c-0.4,1.9-0.8,4.4-1,6.9c-0.3,1.4-0.4,2.7-0.6,4.1c0,0.6-0.1,1.4-0.3,2.1c-0.1,0.6-0.1,1.4-0.1,2.1c-0.1,1.4-0.3,2.8-0.4,4.2
				c-0.1,0.6-0.1,1.3-0.3,2.1c0,0.6,0,1.3,0,1.9c-0.1,1.3-0.1,2.6-0.3,3.7c0,1.3-0.1,2.2-0.1,3.2c0,4.2-0.1,6.8-0.1,6.8h6.9
				c0,0,0.1-2.4,0.1-6.6c0-1,0.1-1.9,0.1-3.1s0.1-2.3,0.1-3.6c0.1-0.6,0.1-1.3,0.1-1.9c0.1-0.6,0.1-1.4,0.1-2.1
				c0.1-1.3,0.3-2.7,0.4-4c0.1-0.8,0.1-1.4,0.3-2.1c0-0.6,0.1-1.3,0.3-2.1c0.1-1.3,0.4-2.6,0.5-3.9c0.3-2.6,0.8-4.9,1-6.9
				c0.4-2.2,0.5-4.1,0.5-5.4C276.7,204.2,276.7,203.7,276.7,203.3z"/>
			<path class="st0" d="M404.6,208.3c-0.1,1.2-0.4,1.4-1.5,1.4c-0.5,0-0.9,0-1.4,0c-0.1,0.1-0.1,0.4-0.1,0.5
				c-0.3,2.1-0.4,4.1-0.6,6.2c-0.3,2.4-0.5,4.8-0.6,7.1c-0.1,0.9-0.3,1.8-0.3,2.7c-0.3,2.1-0.4,4.1-0.6,6.3
				c-0.3,1.9-0.4,3.9-0.8,5.8c-0.4,2.6-0.8,5-1.3,7.6c-0.5,2.2-1.2,4.2-1.7,6.4c-0.5,1.5-0.9,3.1-1.3,4.6c-1.4,4.5-3,9-5,13.2
				c-0.6,1.3-1.3,2.6-2.1,3.9c-0.3,0.6-0.4,1.2,0,1.8c0.9,1.8,1.8,3.7,2.7,5.7c0.4,0.8,0.6,1.7,0.9,2.6c0.1,0.5,0.3,0.5,0.8,0.4
				c0.5-0.3,0.9-0.4,1.4-0.5c0.8-0.1,1.3,0.1,1.8,0.8c0.9,1.3,1.3,2.8,1.2,4.5c0,0.3-0.3,0.5-0.4,0.6c-1.7,1.7-3.5,3.1-5.8,3.6
				c-0.4,0.1-0.8,0.4-1.2,0.6c-0.9,0.4-1.8,0.8-2.8,0.8c-1.2,0-2.2-0.4-2.8-1.4c-0.4-0.6-0.6-1.4-0.9-2.1c-0.1-0.6,0-1.2,0.6-1.4
				c0.5-0.4,1-0.9,1.7-1.3c-0.4-0.9-0.8-1.9-1-2.8c-0.3-0.9-0.5-1.7-0.8-2.4c-0.8-2.1-1.9-2.4-3.7-1.5c-1.7,0.9-3.3,1.7-5,2.4
				c-1.4,0.5-2.8,1-4.2,1.4c-2.7,0.8-5.4,1-8.2,0.8c-5.9-0.4-11.3-2.2-15.6-6.7c-1.9-1.9-3.6-4.2-4.4-7.1c-0.6-1.9-0.8-3.9-0.4-5.8
				c0.5-2.6,1.8-4.8,3.7-6.6c1.7-1.5,3.6-2.6,5.7-3.3c3.1-1.3,6.3-1.8,9.5-1.5c2.8,0.3,5.5,0.9,8.1,2.1c3.2,1.4,6.3,3.2,9,5.4
				c0.6,0.5,1.2,1,1.7,1.5c0.3-0.4,0.4-0.8,0.5-1.2c0.6-2.6,1.4-5,1.9-7.7c0.4-2.7,0.9-5.4,1.3-8.1c0.4-1.7,0.5-3.5,0.6-5.1
				c0.3-1.7,0.5-3.3,0.8-5.1c0-0.3,0-0.5,0-0.8h-0.1c-0.5,0.6-0.9,1.3-1.4,1.8c-2.2,2.7-4.8,4.8-8,6c-1.9,0.9-4,1-6.2,0.9
				c-2.8-0.3-5.5-1.2-8-2.6c-2.7-1.7-4.6-3.9-6-6.7c-1.5-3-2.1-6.2-2.1-9.5c-0.1-2.4,0.3-5,0.6-7.5c0.3-1.4,0.4-2.8,0.5-4.2
				c0.3-1.5,0.5-3.1,0.8-4.6c0.1-0.4,0.1-0.8,0.1-1.3c0.4-2.6,0.8-5.3,1.3-8c0.3-1.7,0.5-3.2,0.9-4.9c0-0.3,0-0.6,0.1-0.9
				c-0.4-0.1-0.6-0.3-0.9-0.3c-1.3-0.3-1.9-1-1.9-2.3c0-0.3,0-0.6,0-1c0-1,0.6-1.8,1.5-2.3c0.5-0.3,0.9-0.3,1.4-0.1
				c2.1,0.8,4.2,0.9,6.4,0.9c3.1,0,6.2,0,9.4,0c0.8,0,1.4,0.4,1.8,1.2c0.5,1.2,0.5,2.2,0,3.3c-0.3,0.8-0.9,1.2-1.7,1.2
				c-0.8,0.1-1.5,0.1-2.4,0.1c-0.1,0.3-0.3,0.5-0.3,0.9c-0.5,1.9-0.9,3.9-1.4,5.8c-0.4,2.2-0.9,4.2-1.3,6.3
				c-0.5,2.3-0.8,4.6-1.3,6.8c-0.5,3.2-0.9,6.3-1.2,9.5c-0.1,1.9-0.1,3.9,0,5.8c0.1,2.1,0.6,4.1,1.8,5.9c0.6,1,1.7,1.9,2.8,2.4
				c1.3,0.6,2.6,0.5,3.9,0c1.3-0.5,2.3-1.3,3.2-2.2c3.3-3,5.5-6.7,7.2-10.7c1-2.6,2.1-5.3,3-7.8c0.9-2.7,1.3-5.4,1.4-8.1
				c0-0.9-0.1-1.9-0.3-2.8c-0.6-0.1-1.2-0.1-1.8-0.4c-1.5-0.4-2.2-1.3-2.1-3c0-0.4,0-0.9,0.1-1.3c0-0.8,0.5-1.3,1.3-1.4
				c0.8-0.1,1.5-0.3,2.4-0.4c1.8-0.3,3.6,0,5.5,0.3c1.3,0.1,2.6,0.6,3.7,0.9c1.2,0.3,2.3,0.4,3.5,0.8c0.8,0.3,1.5,0.6,2.3,1
				C404.5,205,405,206.4,404.6,208.3z M374.5,271.5c-0.1-0.3-0.4-0.5-0.5-0.6c-0.8-1.2-1.8-2.1-3-3c-2.6-2.1-5.4-3.5-8.6-4.1
				c-2.1-0.5-4.1-0.8-6.2-0.4c-2.2,0.4-4.1,1-5.8,2.3c-2.1,1.7-2.7,3.9-1.2,6.3c1.7,3,4.2,4.8,7.6,5.3c2.6,0.5,5.3,0.4,7.8-0.1
				c2.7-0.8,5.1-1.8,7.5-3.5C373,273,373.7,272.4,374.5,271.5z M386.5,255.9c-0.6-0.1-1.2-0.3-1.7-0.4c-0.1,1.2-0.3,2.2-0.4,3.2
				c0.3,0.1,0.5,0.1,0.8,0.3C385.6,258,386,256.9,386.5,255.9z M389.4,248.2c-1.3-0.1-2.4-0.4-3.7-0.8c-0.1,1.5-0.3,3.2-0.5,4.8
				c0.9,0.3,1.7,0.4,2.6,0.5C388.3,251.1,388.8,249.6,389.4,248.2z M396.1,210.1c-1.9-0.3-3.9-0.4-5.8-0.5c-0.3,0-0.5,0-0.8,0
				c0,0.1,0,0.4,0,0.8c0,0.6,0,1.4-0.1,2.6c-0.1,1-0.3,2.3-0.5,3.9c-0.1,0.8-0.3,1.7-0.3,2.4c-0.1,0.8-0.3,1.5-0.3,2.3
				c-0.1,0.8-0.3,1.7-0.3,2.4c-0.1,0.9-0.3,1.8-0.4,2.7c-0.1,0.3-0.1,0.4-0.1,0.6c-0.3,5.5-0.9,11.2-1.5,16.7
				c1.4,0.5,2.8,0.8,4.4,0.9c0-0.1,0.1-0.3,0.1-0.3c0.8-2.3,1.4-4.6,2.2-6.8c0.4-3,0.8-5.9,1.2-8.9c0.6-4.4,1.5-8.9,1.8-13.4
				C395.9,213.9,396,211.9,396.1,210.1z"/>
		</g>
	</g>
	<g>
		<g>
			<path class="st0" d="M16.9,372.3c-1.3-3.4-1.9-6.1-2-8.1c-0.1-2-0.1-3.2-0.1-3.4c0-3.6,0.5-6.9,1.5-10.1c1.1-3.4,2.8-6.2,5.1-8.4
				s5.1-3.3,8.5-3.3c1.3,0,2.5,0.3,3.7,0.9c2.2,1.1,3.8,2.8,4.8,5c1,2.2,1.5,4.6,1.5,6.8c0,2.7-0.6,5.2-1.9,7.3
				c-1.3,2.1-3.1,3.8-5.6,4.7c-0.3,0.1-0.5,0.2-0.8,0.2c-1.1,0-1.8-0.5-2.2-1.4c-0.1-0.3-0.2-0.6-0.2-0.9c0-1,0.5-1.7,1.5-2.1
				c2.2-1,3.6-2.3,4-4c0.4-1.7,0.6-2.9,0.6-3.9c0-1.4-0.2-2.7-0.7-4c-0.8-2.1-2.2-3.2-4.3-3.2c-2.1,0-3.7,1-5.1,3
				c-1.3,2-2.2,4.2-2.7,6.6s-0.7,4.6-0.7,6.7c0,3.6,0.6,7,1.8,10.1c1.6,4.2,4.1,6.3,7.5,6.3c3.7,0,6.6-1.7,8.6-5
				c3.9-6.3,6.6-14.6,8.3-25c1.4-8.5,2.1-17.2,2.1-26c0-4.6-0.2-9.2-0.5-13.8c-0.5-6.3-1.7-12.5-3.6-18.5c-0.3-0.9-0.8-2-1.4-3.3
				c-0.6-1.3-1.4-2.5-2.4-3.6c-0.9-1.1-2-1.6-3.1-1.6c-1,0-2,0.8-2.7,2.5c-1.3,2.7-1.9,6.5-1.9,11.5c0,5.4,0.7,10.3,2.1,14.6
				c0.9,2.9,2.1,4.6,3.6,5.1c1.5,0.5,2.3,1.5,2.3,3.1c0,0.9-0.3,1.7-1,2.3c-0.6,0.6-1.4,1-2.3,1c-2.8,0-5.2-3.3-7.4-10.1
				c-1.6-4.8-2.4-10.3-2.4-16.2c0-5.7,0.9-10.2,2.7-13.6c1.9-3.6,4.5-5.5,7.8-5.5c3.6,0,6.4,1.4,8.2,4.2c1.8,2.8,3.2,5.5,4.1,8.1
				c4.7,13.8,7.1,29.4,7.1,46.7c0,17.6-2.7,30.6-8.2,38.9c-4.9,7.4-11,11.1-18.3,11.1C25.1,384,19.8,380.1,16.9,372.3z"/>
			<path class="st0" d="M66.4,377.5c-1.8-3.2-2.7-6.9-2.8-11.2c0-0.6,0.2-1.2,0.6-1.7c0.4-0.4,1-0.6,1.6-0.6c0.7,0,1.4,0.1,2,0.2
				c0.6,0.1,1.2,0.2,1.6,0.2c0.6,0,1.2-0.1,2-0.2c3.1-0.7,5.9-1.9,8.7-3.6c-0.3-3.1-1.2-6.2-2.7-9.2c-1.3-2.7-2.9-5.6-4.8-8.5
				c-1.3-2-2.5-4-3.7-6.1c-1.4-2.5-2.1-5.2-2.1-8c0-5.3,1.7-8,5-8c3.3,0,5,1.6,5,4.8c0,2.4-0.7,4.4-2.1,6.3c0.9,2,3.2,5.7,6.9,11.1
				c3.1,4.4,5.4,7.9,6.8,10.4c4.7-5.3,8.8-11.6,12.3-18.8c0.4-0.9,1.1-1.3,2-1.3c0.3,0,0.7,0.1,1,0.2c0.9,0.4,1.3,1.1,1.3,2.1
				c0,0.3-0.1,0.6-0.2,0.9c-4,8.4-8.8,15.5-14.4,21.3c1,2.4,1.5,4.8,1.5,7.2c0,3.1-0.6,6.1-2,8.8c-1.3,2.8-3.2,5-5.6,6.7
				c-2.5,1.7-5.4,2.6-8.7,2.6C71.6,383.3,68.5,381.4,66.4,377.5z M78.1,374.2c1.4-2.7,2.2-5.5,2.3-8.5c-3.6,2-7.6,3.2-11.8,3.5
				c0.4,2.8,1.2,5,2.3,6.6c0.8,1.1,1.8,1.7,3,1.7C75.4,377.5,76.9,376.4,78.1,374.2z"/>
			<path class="st0" d="M133.8,373.7c-2-4.3-3-8.8-3-13.5c0-8.4,2.7-14.6,7.9-18.5c2.5-1.8,5.2-2.8,8.2-2.8c2.6,0,4.8,0.9,6.7,2.7
				c2.7,2.5,4,5.8,4,9.9c0,2-0.3,4-1,5.9c-0.7,1.9-1.8,3.5-3.3,4.8c-1.4,1.3-3.3,2-5.6,2c-0.6,0-1.2-0.2-1.6-0.7
				c-0.5-0.4-0.7-1-0.7-1.6c0-0.6,0.2-1.2,0.7-1.6c0.5-0.5,1-0.7,1.6-0.7c1.7,0,2.9-0.7,3.9-2.3c0.9-1.6,1.4-3.5,1.4-5.8
				c0-1.8-0.4-3.5-1.2-5.1c-0.8-1.6-2.1-2.3-4-2.3c-1.7,0-3.1,0.4-4.2,1.2c-3.9,3-5.8,8-5.8,14.8c0,6,1.6,11,4.6,15
				c2,2.7,4.7,4,7.9,4c4.6,0,8.2-2.4,11.1-7.1c3.1-5,5.2-11.5,6.6-19.4c1.4-8.6,2.2-17.8,2.2-27.5c0-14.6-1.2-28.3-3.7-41.3
				c-7.1-1.2-14.1-1.7-21-1.7c-5.8,0-10.3,1.9-13.4,5.6c-3.2,3.8-4.8,9.1-4.8,15.9c0,2.9,0.7,5.2,2.2,6.9c1.5,1.7,3.5,2.5,5.8,2.5
				c2,0,3.7-0.9,5.2-2.6c1.5-1.7,2.2-4,2.2-6.9c0-4.4-1.4-6.7-4.4-7c-2-0.2-3.1-1-3.1-2.4c0-1.6,0.6-2.6,1.8-3.1
				c0.4-0.2,0.9-0.2,1.4-0.2c1.2,0,2.3,0.3,3.4,0.9c3.9,2.2,5.8,5.9,5.8,11.1c0,4.2-1.3,7.6-3.7,10.3c-2.5,2.8-5.8,4.2-10,4.2
				c-4.3,0-7.7-1.4-10.1-4.2c-2.4-2.8-3.6-6.3-3.6-10.8c0-8.2,2.9-14.9,8.6-20c5.7-5,12.8-7.6,21.3-7.6c5.9,0,12.5,0.5,19.7,1.5
				c7.2,1,13.4,1.6,18.5,1.6c8.2,0,13.8-1.4,16.5-4.2c2.7-2.8,4.1-5.5,4.1-8c0-2.5-0.9-3.8-2.8-3.8c-3.1,0-4.7,1.6-5,4.8
				c-0.2,2-1.1,3.1-2.9,3.1c-1.7,0-2.6-1-2.6-3.2c0-2.5,1.2-4.8,3.5-6.9c2-1.8,4.3-2.7,7-2.7c3.4,0,5.9,0.9,7.4,2.8
				c1.1,1.4,1.6,3.1,1.6,5.1c0,5.2-2.5,9.9-7.7,14.1c-5.1,4.2-12.5,6.3-21.9,6.3c-4.2,0-8.6-0.2-13.3-0.6c1.2,3.2,2.8,10.1,5,20.6
				c2.8,13.2,4.2,25,4.2,35.3c0,5.9-0.5,11.6-1.5,17c-2.2,12-7.6,20.1-16.2,24.2c-3.6,1.7-8.2,2.6-13.7,2.6
				C142.7,384.2,137.1,380.6,133.8,373.7z"/>
			<path class="st0" d="M218.8,368.4c-1.4-2.6-2.1-6.2-2.1-10.9c0-1,0.1-2.1,0.1-3.3c-4.3,8.3-8.9,12.5-13.6,12.5
				c-4.1,0-7.2-2.1-9.5-6.3c-1.6-2.9-2.3-6.3-2.3-10.3c0-2.8,0.4-5.7,1.2-8.5c1.1-4.2,3.1-7.9,5.9-11.2c3.2-3.6,7.3-5.5,12.4-5.5
				c1.6,0,3,0.3,4.3,0.9c3,1.4,4.5,2.7,4.5,4c0,0.6-0.2,1.2-0.6,1.6c-0.5,0.5-1,0.7-1.7,0.7c-0.6,0-1.3-0.3-2.2-1.1
				c-0.9-0.7-1.8-1-2.8-1c-2.2,0-4.2,1-5.9,3.1c-1.6,2-2.8,4.3-3.6,7.2c-1,3.3-1.6,6.5-1.6,9.6c0,2.2,0.3,4.2,0.8,5.9
				c0.6,1.9,1.7,2.9,3.2,2.9c2.5,0,5.2-3.2,8.4-9.7c1.2-2.5,2.3-4.8,3.2-6.9c0.5-1.1,1.2-3.1,2-5.9c1.8-5.6,3.1-9.5,4-11.7
				c0.7-2.1,1.8-3.1,3.3-3.1c0.9,0,1.7,0.5,2.4,1.6c0.7,1,1.1,2.6,1.1,4.6c0,2.1-0.5,4.3-1.5,6.5c-0.5,1.1-0.9,1.8-1.2,2.2
				c-0.1,5.6-0.2,9.7-0.2,12.2c0,9.7,1.5,14.5,4.5,14.5c1.8,0,4.4-3.5,7.6-10.4c1.2-2.7,2.4-5.3,3.6-8c1.6-3.7,3.2-7.1,4.6-10
				c0.4-0.9,1.1-1.3,2-1.3c1.6,0,2.3,0.7,2.3,2.2c0,0.3-0.1,0.7-0.2,1c-2.5,5.1-3.9,8.1-4.2,9c-1.3,3.3-2.8,6.7-4.5,10.1
				c-5.6,11.6-11.1,17.4-16.4,17.4C222.9,373.1,220.5,371.6,218.8,368.4z"/>
			<path class="st0" d="M273.3,278.9c-1.9,0-3.8,0.7-5.6,2.1c-7.7,5.9-11.5,21.2-11.5,45.8c0,13.8,1.4,26.6,4.3,38.3
				c0.9-7.1,2.4-14,4.5-20.6c3.1-9.7,7.7-14.5,13.8-14.5c2.2,0,4.1,0.9,5.7,2.8c1.6,1.9,2.3,4.4,2.3,7.7c0,6.5-1.3,11.9-3.9,16.3
				c-2,3.5-4.8,5.8-8.3,6.9c0.2,3.4,1,6.1,2.3,8.1c1.3,2,2.4,3,3.4,3c4.2,0,10.8-11.3,19.8-33.9c0.9-2.1,1.8-4.2,2.8-6.3
				c0.4-0.9,1.1-1.3,2-1.3c0.3,0,0.7,0.1,1,0.2c0.9,0.4,1.3,1,1.3,2c0,0.4-0.5,1.8-1.4,4c-6.4,15.5-11.5,26.2-15.3,31.9
				c-3.5,5.2-6.9,7.8-10.2,7.8c-4,0-7.1-1.7-9.3-5.1c-2.5-3.8-3.8-7.7-3.8-11.8c0-1.6,0.7-2.3,2.1-2.3c2,0,4.2-2.3,6.5-6.7
				c2.2-4.4,3.4-9.7,3.4-15.8c0-2.4-0.7-3.6-2-3.6c-2,0-4.3,3.1-6.7,9.4c-2.1,5.5-3.6,11.2-4.7,17.4c-1.1,6.2-1.6,11.2-1.6,15.1
				c0,0.6,0.1,1.3,0.2,2.1c0.1,0.8,0.2,1.5,0.2,2c0,0.5-0.1,0.9-0.2,1.4c-0.5,1.4-1.3,2.4-2.4,3c-1.1,0.6-2.1,0.9-3.1,0.9
				c-2,0-3.4-1-4.2-2.9c-1.2-3.1-2.2-6.2-3.1-9.4c-2.3-8.4-3.7-15.7-4.1-22c-0.4-6.3-0.6-11.3-0.6-14.9c0-12.9,1.3-25,4-36.5
				c2.1-8.8,5.2-15.6,9.6-20.2c3.3-3.6,7.4-5.4,12.3-5.4c3.5,0,6.3,1.2,8.3,3.5s3.1,5.7,3.1,9.9c0,2.6-0.6,5.5-1.7,8.7
				c1-0.2,2-0.3,3-0.3c6.2,0,13.1,2.2,20.6,6.8c7.5,4.6,13.4,6.8,17.8,6.8c2.4,0,4.6-0.6,6.5-1.7c1.9-1.1,3.4-2.8,4.4-5.1
				c0.7-1.6,1-3.3,1-5.1c0-2.2-0.6-4.2-2-5.9c-1.4-1.8-3.5-2.7-6.1-2.7c-1.9,0-3.5,0.8-4.8,2.5c-0.9,1-1.3,2-1.3,2.7
				c0,0.3,0.1,0.6,0.3,1c0.2,0.4,0.6,0.8,1.4,1.2c0.7,0.4,1,1,1,2c0,0.9-0.3,1.7-0.9,2.3c-0.6,0.6-1.4,1-2.4,1c-1.2,0-2.2-0.5-3-1.6
				c-0.9-1-1.3-2.7-1.3-5.1c0-2.3,0.8-4.4,2.4-6.4c2.4-2.8,5.1-4.3,8.4-4.3c4.1,0,7.4,1.4,9.8,4.3c1.9,2.3,2.9,5.4,2.9,9.2
				c0,2.3-0.5,4.6-1.4,6.7c-1.4,3.1-3.4,5.5-6.1,7.1c-2.7,1.7-5.7,2.5-9.1,2.5c-6,0-12.8-2.2-20.5-6.8c-7.7-4.6-13.7-6.8-18-6.8
				c-2.3,0-4.4,0.9-6.3,2.8c-0.9,1.6-1.6,2.7-2.1,3.3c-0.6,0.7-1.2,1.1-1.8,1.1c-0.4,0-0.8-0.1-1.2-0.3c-0.8-0.4-1.2-1.1-1.2-2
				c0-1.6,0.9-3.2,2.5-4.8c2.6-4.8,3.9-9.2,3.9-13.1C279.2,281.7,277.3,278.9,273.3,278.9z"/>
			<path class="st0" d="M304.9,364.3c-3.6-3.2-5.4-8.2-5.4-15.2c0-6.5,1.7-12.5,5.2-18.2c2.2-3.6,5.2-6,9.1-7.3
				c1.2-0.4,2.4-0.6,3.6-0.6c2.8,0,5.1,0.8,6.9,2.4c1.8,1.7,2.7,3.5,2.7,5.7c0,1.4-0.2,2.9-0.7,4.2c-2.1,5.8-5.7,10.3-11,13.6
				c-0.4,0.2-0.8,0.3-1.2,0.3c-0.9,0-1.5-0.4-2-1.2c-0.2-0.3-0.3-0.7-0.3-1.2c0-0.9,0.3-1.5,1.1-2c4.3-2.8,7.3-6.5,8.9-11.1
				c0.3-1,0.5-1.8,0.5-2.5c0-0.9-0.3-1.7-0.8-2.3c-0.6-0.6-1.3-0.9-2.2-0.9c-1,0-1.9,0.3-2.8,1c-2,1.6-3.6,4.6-4.8,8.9
				c-1.1,4-1.6,7.9-1.6,11.9c0,7.6,1.9,11.4,5.8,11.4c3.1,0,6.3-2.1,9.7-6.5c3.5-4.6,7.4-11.4,11.6-20.2c0.4-0.9,1.1-1.3,2.1-1.3
				c0.3,0,0.7,0.1,1.1,0.3c0.8,0.4,1.2,1.1,1.2,2.1c0,0.9-1.9,4.7-5.7,11.7c-7.4,13.4-14.7,20.1-22,20.1
				C310.3,367.5,307.3,366.4,304.9,364.3z"/>
			<path class="st0" d="M335.9,377c-1.1-2.9-1.6-6.7-1.6-11.5c0-5.5,0.3-11.4,1-17.5c1-8.8,2-15.3,3.1-19.5c1.3-5.2,3.1-7.9,5.2-7.9
				c1.8,0,2.8,1.5,2.8,4.5c0,2.5-0.5,4.3-1.6,5.5c-0.2,3.7-0.3,7-0.3,9.9c0,3.1,0.1,6.1,0.3,9.1c0.8-4,1.9-7.6,3.3-10.8
				c2.8-6.4,6.7-9.6,11.6-9.6c2.1,0,3.8,0.6,5,1.8c1.2,1.2,2,2.8,2.4,4.8c0.4,2,0.6,3.8,0.7,5.2c0,1.4,0,2.5,0,3.1
				c0,1.8-0.1,3.5-0.1,5.2c-0.1,1.8-0.1,3.4-0.1,5c0,2.8,0.2,4.8,0.7,6.1c0.5,1.3,1.3,1.9,2.4,1.9c1.9,0,4.3-2.9,7.2-8.9l1-2.1
				c4.6-9.9,7.1-15.5,7.8-16.7c0.4-0.9,1.1-1.3,2-1.3c0.3,0,0.6,0.1,1,0.2c0.9,0.4,1.3,1.1,1.3,2c0,0.3-0.1,0.7-0.2,1
				c-0.9,2-3.2,7.6-7,16.8c-1.8,4.5-3.5,8-5.1,10.4c-2.7,4.1-6.2,6.1-10.7,6.1c-2.8,0-5.1-0.7-6.7-2c-1.6-1.3-2.8-3.1-3.5-5.2
				c-0.7-2.1-1.1-4.1-1.2-5.8c-0.1-1.7-0.1-3-0.1-3.9c0-2.7,0.3-6.7,1.1-12.2c0.3-2.7,0.5-4.5,0.5-5.5c0-0.9-0.2-1.4-0.5-1.4
				c-2.9,0-5.5,4.5-7.5,13.4c-0.5,2.5-1,5-1.4,7.4c-1,6.6-1.5,10.7-1.5,12.5c0,1.9,0.3,3.9,0.8,6.1c0.2,0.7,0.3,1.3,0.3,1.7
				c0,1.7-0.7,3.1-2.1,4.1c-1.4,1.1-3,1.6-4.8,1.6C338.6,380.8,336.9,379.5,335.9,377z"/>
		</g>
	</g>
	<path class="st0" d="M209.7,301.7c0.1,2.5-0.6,4.7-2.3,6.7c-1.8,1.9-3.9,2.9-6.4,3.1c-2.5,0.1-4.7-0.6-6.7-2.3
		c-1.9-1.8-3-3.9-3.1-6.4c-0.1-2.5,0.6-4.7,2.3-6.7c1.8-1.9,3.9-3,6.4-3.1c2.5-0.2,4.7,0.6,6.7,2.3
		C208.6,297.1,209.6,299.2,209.7,301.7z M239.7,311.4c0.1,1.3-0.3,2.6-1.2,3.6c-1,1-2.1,1.6-3.5,1.7c-1.3,0.1-2.6-0.3-3.6-1.2
		c-1-1-1.6-2.1-1.7-3.5c-0.1-1.3,0.3-2.6,1.2-3.6c1-1,2.1-1.6,3.5-1.7c1.3-0.1,2.6,0.3,3.6,1.2C239.1,308.9,239.6,310,239.7,311.4z
		 M231.6,280.2c0.1,1.8-0.5,3.5-1.7,5c-1.3,1.4-2.9,2.2-4.7,2.3c-1.8,0.1-3.5-0.5-5-1.7c-1.4-1.3-2.2-2.9-2.3-4.7
		c-0.1-1.8,0.5-3.5,1.7-5c1.3-1.4,2.9-2.2,4.8-2.3c1.8-0.1,3.5,0.5,5,1.7C230.7,276.8,231.5,278.4,231.6,280.2z"/>
	<path class="st0" d="M246.9,148.9c-0.3-1.9-0.5-4-0.5-6.2c0-2.2,0.2-4.4,0.6-6.5c0.4-2.1,1-4.2,1.8-6.1c0.8-1.9,1.8-3.6,3.1-5.1
		c1.3-1.4,2.8-2.5,4.6-3.3c1.8-0.8,3.9-1.1,6.3-0.9c0.4,0,0.7,0.2,1.1,0.5c0.4,0.3,0.6,0.7,0.8,1.1c0.2,0.4,0.3,0.8,0.4,1.3
		c0.1,0.4,0,0.9-0.3,1.3c-1,1.9-2.2,3.6-3.3,5.1c-1.2,1.5-2.2,3-3.1,4.5c-0.9,1.5-1.5,3.1-2,4.9c-0.4,1.8-0.4,3.9,0,6.5
		c0.3,1.9,0.7,3.7,1.2,5.5c0.5,1.8,1,3.7,1.5,5.5c0.5,1.8,0.9,3.7,1.3,5.5c0.4,1.9,0.6,3.7,0.8,5.6c0.1,2.2,0.1,4.2-0.1,5.9
		c-0.2,1.8-0.6,3.4-1.2,5c-0.5,1.6-1.2,3.1-2,4.7c-0.8,1.6-1.7,3.3-2.6,5.2c-0.5,1.1-1,2.1-1.5,3.1c-0.5,1-1.1,2-1.8,2.8
		s-1.4,1.5-2.3,2c-0.8,0.5-1.8,0.8-3,0.7l-0.1,0.1c-0.4,0.1-0.8,0-1.2-0.2c-0.5-0.1-0.9-0.5-1.1-1.1c-0.2-0.6-0.1-1.1,0.4-1.5
		c0-1.6,0.1-3.2,0.4-4.8c0.3-1.6,0.4-3.3,0.3-4.9c-0.1-1-0.2-2.1-0.4-3.2c-0.2-1.1-0.5-2.1-0.9-3.1c-0.7-1.6-1.3-2-1.9-1.2
		c-0.9,1-1.8,1.6-2.7,1.7c-0.9,0.1-1.7-0.1-2.4-0.6c-0.7-0.5-1.3-1.2-1.7-2.1c-0.4-0.9-0.7-1.8-0.7-2.6c0-0.9,0.3-1.7,0.8-2.5
		c0.5-0.7,1.5-1.2,2.8-1.3c1.7-0.2,3.1,0,4.4,0.5c1.2,0.5,2.3,1.3,3.2,2.4c0.9,1,1.6,2.3,2.1,3.7c0.5,1.4,0.9,2.9,1.2,4.5
		c0.2,1.1,0.4,2.6,0.6,4.4c0.2,1.9,0.2,3.7,0,5.6c1.3-1.1,2.4-2.4,3.2-3.8c0.9-1.5,1.4-3.4,1.7-5.9c0.2-2,0-4-0.5-5.8
		c-0.5-1.8-1.1-3.7-1.6-5.7c-1-3.5-2.1-7-3.2-10.6C248.3,156.2,247.5,152.6,246.9,148.9z"/>
	<path class="st0" d="M337.6,174.7c0.6,0.8,1,1.6,1.2,2.4c0.2,0.8,0.3,1.5,0.2,2.2c0,0.1-0.1,0.5-0.2,1.2c-0.1,0.7-0.5,1.5-1.1,2.5
		c-0.6,0.9-1.7,1.8-3.1,2.8c-1.4,0.9-3.4,1.7-6,2.4c0.2,0,0.3,0,0.5-0.1c0.1-0.1,0.3-0.1,0.4-0.2c-1.5,0.4-3.2,0.7-5,0.8
		c-5.2,0.3-10.2-0.6-14.9-2.7c-2.2-0.9-4.4-2-6.5-3.1c-2.1-1.1-4.3-2.3-6.4-3.4c-0.9-0.5-1.9-0.6-3-0.2c-2.9,1.1-5.8,1.9-8.8,2.5
		c-3,0.6-6,0.6-9.2,0c-1.8-0.3-3.5-0.9-5-1.8c-1.5-0.9-2.8-2.1-4-3.8c-0.7-1.2-1.1-2.3-1.2-3.5c-0.1-1.2,0.1-2.2,0.5-3.2
		c0.4-1,1.2-1.8,2.1-2.5c1-0.7,2.1-1.1,3.5-1.4c2.6-0.4,5-0.1,7.2,0.7c2.2,0.9,4.3,1.9,6.4,3.2c1,0.6,2,1.3,2.9,2
		c0.9,0.7,1.9,1.4,2.9,2c0.3,0.2,0.7,0.3,1.2,0.4c0.5,0,0.8,0,1.1-0.1c0.6-0.3,1.2-0.7,2-1.1c0.6-0.3,1.4-0.7,2.3-1.2
		c0.9-0.5,1.9-1,3-1.5c-0.1-0.1-0.2-0.2-0.2-0.2c0-0.1-0.1-0.1-0.2-0.2c-1.2-1.6-1.7-3.4-1.7-5.4c-0.1-1.2,0-2.3,0.5-3.3
		c0.4-1,1.2-1.9,2.2-2.8c0.1,0,0.1-0.1,0.2-0.2c0.1-0.1,0.1-0.1,0.1-0.1c0,0,0.1,0,0.1-0.1c0.7-0.6,1.4-0.9,2.2-1
		c0.8-0.1,1.6,0,2.4,0.2c0.8,0.2,1.5,0.7,2.1,1.2c0.6,0.6,1,1.2,1.2,2.1c0.2,0.8,0.1,1.5-0.3,2.2c-0.4,0.7-1,1.2-1.7,1.5
		c-0.9,0.3-1.6,0-1.8-1.1c-0.2-0.9,0.2-1.4,1.1-1.4c0.4-0.1,0.7-0.2,0.8-0.3c0.1-0.2,0-0.6-0.2-1.2c-0.5-0.9-1.3-1.5-2.5-1.7
		c-1.2-0.2-2.2,0-3.1,0.7c-0.7,0.7-1.1,1.6-1.4,2.6s-0.3,2-0.2,3c0.2,0.8,0.6,1.5,1.1,2.2c0.5,0.7,1.1,1.4,1.9,2
		c1.9-0.9,4-1.7,6.2-2.5c2.2-0.8,4.3-1.5,6.4-2c1.9-0.6,3.8-0.9,5.6-0.9c1.6-0.1,3,0.2,4.4,0.6c1.4,0.5,2.6,1.3,3.7,2.4
		c0.8,0.8,1.3,1.6,1.5,2.4c0.2,0.8,0.3,1.6,0.2,2.4c-0.1,0.8-0.4,1.5-0.8,2.2c-0.4,0.7-0.9,1.3-1.4,1.8c-1.5,1.4-3.1,2.5-4.8,3.3
		c-1.7,0.8-3.5,1.2-5.2,1.3c-1.8,0.1-3.5-0.1-5.3-0.5c-1.7-0.5-3.4-1.2-4.9-2.3c-1.1-0.7-2.1-1.3-3.1-1.6c-1-0.4-2-0.4-3-0.2l-3,1.4
		c-0.1,0.1-0.2,0.2-0.3,0.2c-0.1,0-0.2,0.1-0.3,0.1l-1.8,0.8c0.1,0.1,0.1,0.2,0.1,0.4l3.7,2.2c3.4,1.9,6.8,3.4,10.4,4.5
		c3.5,1.1,7.3,1.6,11.2,1.5c0.8-0.1,1.6-0.1,2.4-0.2c0.8-0.1,1.6-0.2,2.4-0.4c1-0.2,1.9-0.5,2.7-0.7c0.8-0.3,1.5-0.6,2.1-0.8
		c0.1-0.1,0.2-0.2,0.4-0.2c1.6-0.8,2.6-1.6,3.2-2.6c0.3-0.4,0.6-0.9,0.7-1.3c0.1-0.4,0.2-0.8,0.2-1c0-0.2,0-0.3,0-0.5
		c0-0.2,0-0.4-0.1-0.7c-0.1-0.2-0.2-0.4-0.3-0.6c-0.1-0.2-0.2-0.4-0.3-0.6c-0.4-0.7-1-1.1-1.7-1.2c-0.5-0.1-0.9-0.1-1.2,0.1
		c-0.1,0.1-0.1,0.1-0.1,0.1s-0.1,0-0.1,0.1l-0.3,0.3c0,0.1,0.1,0.2,0.2,0.3c0.1,0.2,0.1,0.2,0.2,0.2l0.2-0.1c0.2-0.1,0.3-0.1,0.4,0
		c0.7,0.3,0.9,0.9,0.7,1.7v0.1c-0.2,0.6-0.6,1-1.2,1.2c-0.5,0.2-1,0.2-1.4,0.1c-0.6-0.3-0.9-1-1.1-1.9c-0.3-1.6,0.1-2.8,1.2-3.6
		c0.2-0.2,0.5-0.4,0.9-0.6c0.5-0.2,1.2-0.3,2.1-0.3C335.9,173.4,336.8,173.9,337.6,174.7z M282.3,177.7c1.3-0.2,2.6-0.5,4-1
		c1.3-0.4,2.6-0.8,3.9-1.2v-0.7c-2.1-1.8-4.2-3.3-6.4-4.7c-2.2-1.4-4.7-2.2-7.4-2.6c-1.3-0.2-2.5-0.2-3.8-0.1
		c-1.2,0.1-2.4,0.6-3.5,1.5c-1.3,1.1-1.9,2.3-1.7,3.6c0.1,1.3,0.9,2.3,2.4,3.1C273.7,177.7,277.9,178.3,282.3,177.7z M307.1,173.2
		c0.3,0.4,0.6,0.8,0.8,1c0.2,0.2,0.3,0.3,0.5,0.5c2.5,2.2,5.2,3.5,8,3.7c2.8,0.3,5.7-0.2,8.7-1.4c0.8-0.3,1.5-0.7,2.2-1.2
		c0.7-0.6,1.3-1.1,1.9-1.7c0.6-0.7,1-1.5,1.1-2.2c0.1-0.8,0-1.5-0.3-2.1c-0.9-0.8-1.8-1.4-2.8-2c0.2,0.1,0.3,0.1,0.5,0.2
		c0.2,0.1,0.3,0.1,0.4,0.2c-0.1-0.1-0.2-0.1-0.4-0.2c-0.2-0.1-0.3-0.1-0.5-0.2c-0.9-0.2-1.8-0.3-2.7-0.2c-0.9,0.1-1.7,0.2-2.4,0.3
		c-2.2,0.8-4.4,1.6-6.7,2.3c-2.2,0.8-4.5,1.6-6.9,2.4L307.1,173.2z"/>
	<path class="st0" d="M381.2,143.1c-0.4,0.1-0.7,0.1-0.9,0c-0.2-0.1-0.4-0.3-0.5-0.6c-0.1-0.2-0.1-0.5,0-0.8
		c0.1-0.3,0.3-0.5,0.6-0.6c0.8-0.4,1.7-0.8,2.5-1.3c0.8-0.5,1.7-0.8,2.7-1c0.4-0.1,0.6,0,0.9,0.2c0.2,0.2,0.4,0.4,0.4,0.7
		c0.1,0.3,0,0.6-0.1,0.9c-0.1,0.3-0.3,0.5-0.7,0.7c-0.8,0.4-1.7,0.7-2.5,1C382.8,142.5,382,142.8,381.2,143.1z M375.4,179
		c0.4,0.3,0.8,0.5,1.3,0.6c0.5,0.1,1,0.2,1.5,0.4c0.5,0.1,0.9,0.3,1.4,0.6c0.4,0.3,0.7,0.6,0.9,1.1c0.1,0.3,0.1,0.5,0,0.8
		c-0.1,0.3-0.3,0.5-0.5,0.7c-0.5,0.3-1,0.4-1.6,0.4c-0.6-0.1-1.2-0.2-1.7-0.5c-0.6-0.3-1.1-0.6-1.6-1c-0.5-0.4-1-0.7-1.3-1.1
		c-0.3-0.3-0.5-0.6-0.4-1c0-0.3,0.1-0.6,0.3-0.9c0.2-0.2,0.4-0.4,0.8-0.5C374.6,178.7,375,178.8,375.4,179z M378.1,170.3
		c-0.4-0.3-0.4-0.6-0.2-1c0.2-0.4,0.6-0.6,1-0.5c1.3,0.3,2.7,0.5,4,0.6c1.3,0.2,2.6,0.3,3.9,0.5c1,0.1,2.1,0.3,3,0.6
		c1,0.3,1.8,0.9,2.4,1.8c0.2,0.3,0.2,0.6,0,0.9c-0.2,0.3-0.4,0.4-0.7,0.5c-1.2,0.2-2.4,0.2-3.8-0.2c-1.3-0.3-2.5-0.6-3.6-0.9
		c-1.1-0.2-2.1-0.5-3.1-0.8C380,171.4,379.1,170.9,378.1,170.3z M382.8,161.1c-0.2,0.1-0.5,0-0.6-0.1c-0.2-0.1-0.3-0.3-0.4-0.5
		c-0.1-0.2-0.1-0.4,0-0.5c0.1-0.2,0.2-0.3,0.5-0.4c1.7-0.6,3.4-1.3,5.2-2c1.8-0.8,3.5-1.5,5.3-2.1c1.8-0.6,3.6-1.1,5.4-1.5
		c1.8-0.4,3.7-0.5,5.6-0.4c0.7,0,1.2,0.3,1.5,0.8c0.3,0.5,0.4,1,0.3,1.6c-0.1,0.6-0.4,1.1-0.8,1.5c-0.4,0.4-1,0.6-1.7,0.5
		c-1.6-0.2-3.3-0.2-5.1-0.1c-1.7,0.1-3.4,0.3-5.1,0.7c-1.7,0.3-3.4,0.7-5.1,1.1C386,160.2,384.4,160.7,382.8,161.1z"/>
	<path class="st0" d="M96.4,312.1c-0.4,0-0.8-0.1-1.1-0.4s-0.4-0.6-0.4-0.9c-0.1,0-0.1-0.2-0.2-0.4s-0.1-0.4-0.1-0.5
		c-0.1-0.3-0.2-0.6-0.4-0.9c-0.1-0.3-0.2-0.5-0.4-0.8c-0.3-0.6-0.6-1.1-1.1-1.5c-0.4-0.4-0.9-0.8-1.5-1.2c-0.5-0.3-1-0.6-1.6-1
		s-1-0.7-1.6-1.1c-0.1,0-0.2,0.1-0.5,0.1h-0.1c-0.3,0-0.5-0.1-0.7-0.3c-0.6-0.2-1.2-0.4-1.8-0.4c-0.6,0-1.3,0-1.9,0.1
		s-1.3,0.2-1.9,0.4c-0.6,0.1-1.2,0.3-1.7,0.4c-1.3,0.2-2.7,0.5-4,0.8c-1.3,0.3-2.7,0.4-4,0.3c-1,0-1.9-0.2-2.9-0.4
		c-1-0.3-1.9-0.6-2.7-1.1c-0.8-0.5-1.5-1.1-2.2-1.8c-0.6-0.7-1.1-1.6-1.3-2.7c-0.3-1.4-0.3-2.8,0.1-4.2c0.4-1.4,1-2.7,1.9-3.7
		c0.9-1,1.9-1.8,3.2-2.2c1.2-0.4,2.6-0.4,4,0.2c-0.4-0.8-0.5-1.8-0.5-2.8s0.3-2,0.7-2.9c0.4-0.9,0.9-1.7,1.5-2.5
		c0.6-0.7,1.3-1.3,2.1-1.6c1.3-0.5,2.5-0.8,3.8-0.7c1.2,0,2.3,0.3,3.3,0.9c1,0.5,1.9,1.3,2.6,2.3c0.7,1,1.2,2.1,1.5,3.5
		c0.6-0.2,1.2-0.3,1.9-0.4c0.6-0.1,1.3-0.1,1.9,0c1.2,0.1,2.3,0.4,3.5,0.9c1.2,0.5,2.1,1.3,2.7,2.3c0.3-0.6,0.7-1.1,1.2-1.7
		c0.5-0.5,1.1-0.9,1.7-1.3s1.2-0.7,1.9-1s1.2-0.4,1.8-0.5c1-0.1,2,0,2.9,0.3s1.7,0.8,2.5,1.4c0.8,0.6,1.4,1.3,2,2.2
		c0.5,0.8,1,1.7,1.3,2.6c0.8,2.1,0.8,4.2,0.1,6.1c-0.7,1.9-1.8,3.7-3.3,5.3c-0.8,0.9-1.7,1.8-2.7,2.6c-0.9,0.8-1.9,1.6-2.7,2.5
		c-0.9,0.9-1.8,1.9-2.7,2.9c-0.9,1-1.8,1.9-2.7,2.9c-0.2,0.2-0.5,0.3-0.8,0.3C96.9,312.3,96.6,312.3,96.4,312.1z M79,301.4
		c0.8-0.2,1.6-0.3,2.5-0.5c0.9-0.2,1.8-0.3,2.6-0.4c-0.8-0.7-1.5-1.5-2.2-2.4s-1.2-1.9-1.5-2.9c-0.3-1-0.4-2-0.4-3.1
		c0.1-1.1,0.5-2.1,1.1-3.1c0.4-0.6,0.9-1.1,1.4-1.6c0.5-0.5,1.1-0.9,1.7-1.3c-0.2-0.9-0.6-1.7-1.1-2.6c-0.5-0.8-1.1-1.5-1.9-2
		c-0.7-0.5-1.6-0.8-2.5-0.8c-0.9-0.1-1.8,0.2-2.8,0.9c-0.8,0.5-1.3,1.1-1.7,1.8c-0.3,0.7-0.6,1.4-0.7,2.2c-0.1,0.8-0.1,1.6-0.1,2.4
		c0.1,0.8,0.1,1.6,0.2,2.4c0,0.2,0,0.4-0.3,0.5c-0.2,0.1-0.4,0-0.6-0.2c-0.1-0.1-0.1-0.1-0.2-0.2c-0.1,0-0.1-0.1-0.2-0.2
		c-1.4-0.6-2.8-0.6-4.1-0.2c-1.3,0.5-2.3,1.4-3.1,2.8c-0.3,0.6-0.5,1.2-0.7,1.9c-0.1,0.7-0.2,1.4-0.2,2c0,0.7,0.2,1.3,0.4,1.9
		c0.3,0.6,0.6,1.2,1.1,1.7c0.9,0.8,1.8,1.4,2.9,1.7c1,0.3,2.1,0.4,3.2,0.3c1.1,0,2.3-0.2,3.4-0.4C76.9,301.8,78,301.6,79,301.4z
		 M73.3,293.1c-0.2,0.2-0.5,0.3-0.9,0.4c-0.4,0.1-0.8,0.2-1.1,0.3c-0.4,0.1-0.8,0.2-1.2,0.4c-0.4,0.1-0.8,0.3-1.2,0.4
		c-0.2,0.1-0.3,0-0.3-0.1c0-0.2,0-0.3,0.1-0.4c0.4-0.3,0.8-0.5,1.2-0.7c0.4-0.2,0.8-0.4,1.3-0.6c0.3-0.1,0.6-0.3,1-0.4
		c0.4-0.2,0.8-0.1,1,0.1C73.5,292.7,73.5,292.9,73.3,293.1z M71.2,315.2c-0.4,0-0.8-0.2-1-0.6c-0.2-0.4-0.1-0.8,0.2-1.1
		c0.6-0.5,1.2-1,1.8-1.4c0.6-0.4,1.3-0.8,2-1.1c0.7-0.4,1.3-0.8,2-1.2c0.6-0.4,1.2-0.9,1.7-1.4c0.1-0.1,0.2-0.1,0.4,0
		s0.1,0.2,0.1,0.3c-0.4,0.6-0.9,1.3-1.4,1.8c-0.5,0.6-1,1.1-1.6,1.7c-0.3,0.3-0.7,0.6-1,0.9c-0.4,0.3-0.7,0.5-1.1,0.8
		c-0.1,0.1-0.4,0.3-0.7,0.5c-0.3,0.2-0.5,0.4-0.6,0.4C71.8,315,71.6,315.2,71.2,315.2L71.2,315.2z M74.9,293.5
		c0.3,0,0.5,0.2,0.5,0.4c0,0.3-0.1,0.4-0.4,0.5c-0.5,0.2-0.9,0.3-1.4,0.4c-0.4,0.1-0.9,0.3-1.3,0.5c-0.1,0.1-0.2,0.1-0.4-0.1
		c-0.1-0.1-0.1-0.3,0-0.4c0.4-0.3,0.8-0.7,1.3-1S74.3,293.4,74.9,293.5z M76.2,295.1c0.3-0.1,0.5,0,0.7,0.3c0.1,0.3,0,0.5-0.2,0.7
		c-0.2,0.2-0.5,0.3-0.8,0.3c-0.3,0-0.6,0.1-0.9,0.1c-0.2,0-0.3-0.1-0.4-0.3s0-0.3,0.2-0.4c0.2-0.1,0.5-0.2,0.7-0.4
		C75.7,295.3,75.9,295.2,76.2,295.1z M77.6,296.1c0.2,0,0.4,0.1,0.5,0.2c0.1,0.1,0.1,0.3,0,0.4c-0.1,0.3-0.2,0.5-0.4,0.5
		c-0.2,0.1-0.4,0.1-0.6,0.2c-0.3,0.1-0.5,0-0.6-0.2c-0.1-0.2,0-0.4,0.2-0.6c0.2-0.1,0.3-0.2,0.4-0.3S77.4,296.1,77.6,296.1z
		 M78.7,283.2c0.1,0.2,0.1,0.3,0,0.4c-0.1,0.1-0.2,0.2-0.4,0.3c-0.2,0.1-0.3,0.1-0.4,0.3c-0.3,0.3-0.5,0.6-0.7,0.8
		c-0.1,0.2-0.3,0.2-0.4,0.1s-0.2-0.2-0.1-0.4c0-0.1,0.1-0.3,0.3-0.5c0.2-0.2,0.3-0.5,0.5-0.7c0.2-0.2,0.4-0.4,0.6-0.5
		S78.5,283,78.7,283.2z M80.5,283.8c0.2,0,0.3,0.2,0.4,0.3c0.1,0.2,0,0.3-0.2,0.5c-0.1,0.1-0.3,0.1-0.4,0.2S80,285,79.9,285
		c-0.2,0.1-0.4,0.3-0.6,0.5c-0.1,0.2-0.2,0.2-0.4,0c-0.1-0.1-0.2-0.3-0.1-0.4c0.2-0.3,0.4-0.6,0.7-0.9
		C79.8,283.9,80.1,283.8,80.5,283.8z M81.1,285.9c-0.2,0.1-0.4,0-0.5-0.2c-0.1-0.2-0.1-0.4,0.1-0.5c0.2-0.1,0.3-0.2,0.4-0.2
		s0.3-0.1,0.5,0c0.1,0.1,0.2,0.2,0.2,0.3c0,0.2-0.1,0.3-0.2,0.4S81.2,285.8,81.1,285.9z M82.5,317.7c-0.1,0.3-0.2,0.5-0.4,0.5
		c-0.2,0.1-0.5,0.1-0.7,0c-0.2-0.1-0.4-0.2-0.6-0.4s-0.2-0.4-0.1-0.7c0.2-0.6,0.3-1.2,0.4-1.8c0.1-0.6,0.2-1.2,0.4-1.9
		c0.1-0.4,0.2-0.8,0.4-1.4c0.2-0.5,0.5-0.8,1-0.9c0.2,0,0.2,0.1,0.2,0.2c0.1,0.5,0.1,1-0.1,1.6c-0.1,0.5-0.2,1.1-0.2,1.6
		c0,0.5-0.1,1-0.1,1.5C82.7,316.7,82.6,317.2,82.5,317.7z M94,304.3c0.7,0.6,1.3,1.2,1.7,1.8c0.4,0.6,0.7,1.4,1.1,2.3l0.4,0.8
		c1.1-1.2,2.2-2.3,3.3-3.5c1.1-1.2,2.2-2.3,3.3-3.4c0.6-0.5,1.2-1.1,1.9-1.7c0.6-0.6,1.3-1.2,1.8-1.9c0.6-0.7,1.1-1.4,1.5-2.2
		c0.4-0.8,0.7-1.6,0.8-2.4c0.1-0.8,0.1-1.6-0.1-2.5c-0.2-0.9-0.4-1.7-0.9-2.5s-1-1.5-1.6-2.1c-0.6-0.6-1.4-1-2.2-1.2
		c-0.7-0.2-1.5-0.1-2.3,0.1c-0.8,0.2-1.5,0.5-2.2,1c-0.7,0.4-1.3,1-1.8,1.6c-0.5,0.6-0.9,1.3-1,2c-0.1,0.3-0.3,0.5-0.7,0.5
		c-0.4,0-0.6-0.2-0.7-0.5c0-0.1,0-0.1-0.1-0.2c-0.9-1.4-2.1-2.4-3.5-3c-1.4-0.6-3-0.7-4.7-0.3c-0.8,0.2-1.6,0.5-2.4,0.9
		c-0.8,0.4-1.4,0.9-2,1.6c-0.6,0.6-0.9,1.4-1.2,2.2c-0.2,0.8-0.2,1.7,0.1,2.6c0.4,1.2,1,2.3,1.9,3.2c0.9,0.9,1.9,1.7,3,2.4
		c1.1,0.7,2.2,1.5,3.4,2.1C92.1,302.8,93.1,303.6,94,304.3z M87,267.8c0-0.3,0.2-0.6,0.4-0.7c0.2-0.2,0.5-0.2,0.8-0.2
		s0.5,0.1,0.7,0.2c0.2,0.2,0.3,0.4,0.3,0.7c-0.2,1.3-0.3,2.6-0.5,3.9c-0.2,1.3-0.3,2.6-0.5,3.9c0,0.2-0.1,0.2-0.2,0.2
		c-0.1,0-0.2-0.1-0.2-0.2c-0.2-1.3-0.4-2.6-0.6-3.9C87,270.5,86.9,269.2,87,267.8z M91.5,290c0.3,0,0.4,0.2,0.4,0.4
		c0,0.3-0.1,0.4-0.4,0.5c-0.7,0.1-1.3,0.2-2,0.4s-1.2,0.5-1.8,0.8c-0.2,0.1-0.3,0-0.4-0.1c-0.1-0.2,0-0.3,0.1-0.4
		c0.6-0.3,1.2-0.7,1.9-1.1C90.1,290.1,90.8,289.9,91.5,290z M89.8,315.8c0.1,0.3,0,0.6-0.2,0.7c-0.2,0.2-0.4,0.2-0.6,0.3
		c-0.2,0-0.4,0-0.6-0.2c-0.2-0.2-0.3-0.4-0.2-0.8c0.1-0.4,0.1-0.8,0-1.3c-0.1-0.5-0.2-0.9-0.2-1.4c0-0.2,0.1-0.4,0.3-0.4
		c0.3,0,0.4,0.1,0.5,0.3c0.1,0.5,0.2,1,0.4,1.4C89.6,314.9,89.7,315.4,89.8,315.8z M93,291.9c0.2,0,0.3,0.1,0.4,0.3
		c0.1,0.2,0,0.3-0.2,0.4c-0.3,0.2-0.7,0.4-1.1,0.5c-0.4,0.1-0.8,0.2-1.2,0.3c-0.2,0.1-0.3,0-0.4-0.2c-0.1-0.2,0-0.3,0.2-0.4
		c0.4-0.1,0.7-0.3,1.1-0.5C92.2,292,92.6,291.9,93,291.9z M93.9,294.7c-0.1,0.1-0.2,0.1-0.4,0.1c-0.1,0-0.2,0-0.3,0.1
		c-0.3,0.1-0.5,0.1-0.7,0.2c-0.2,0.1-0.4,0-0.5-0.2c-0.1-0.2-0.1-0.4,0.1-0.5c0.2-0.2,0.5-0.3,0.8-0.5c0.3-0.1,0.5-0.2,0.8-0.1
		c0.2,0.1,0.3,0.2,0.4,0.4C94.1,294.5,94.1,294.6,93.9,294.7z M93.7,296.3c0.1,0,0.1,0.1,0.2,0.1c0.1,0,0.1,0.1,0.2,0.1
		c0,0.2,0,0.3,0,0.4c-0.1,0.1-0.2,0.2-0.4,0.2c-0.1,0-0.2,0.1-0.3,0c-0.1,0-0.2,0-0.3,0c-0.2,0-0.3-0.2-0.3-0.4
		c0-0.2,0.1-0.4,0.3-0.4C93.3,296.3,93.4,296.3,93.7,296.3z M101.5,268.9c-0.3,0.7-0.8,1.3-1.4,1.9c-0.6,0.6-1.2,1.2-1.8,1.7
		c-0.9,0.9-1.8,1.9-2.6,2.9s-1.6,1.9-2.4,2.9c-0.1,0.1-0.2,0.1-0.3,0c-0.1-0.1-0.1-0.2-0.1-0.3c0.6-1.2,1.3-2.3,2.1-3.3
		c0.8-1.1,1.6-2.2,2.3-3.3c0.4-0.6,0.8-1.3,1.2-1.9c0.4-0.6,0.8-1.2,1.4-1.8c0.2-0.2,0.5-0.3,0.7-0.3c0.2,0,0.4,0.1,0.6,0.2
		c0.2,0.1,0.3,0.3,0.4,0.6C101.7,268.4,101.7,268.7,101.5,268.9z M94.5,298.7c0.1,0,0.1,0,0.1,0.1c0,0.1,0,0.1-0.1,0.1
		c-0.1,0-0.1,0-0.1-0.1C94.3,298.7,94.4,298.7,94.5,298.7z M99.3,280.8c-0.1,0.1-0.2,0-0.3-0.1c-0.1-0.1-0.1-0.2,0-0.3
		c0.3-0.3,0.6-0.5,1-0.8c0.3-0.2,0.7-0.5,1-0.8s0.7-0.5,1-0.8c0.4-0.2,0.7-0.5,0.9-0.8c0.2-0.3,0.5-0.4,0.7-0.4
		c0.3,0,0.5,0.1,0.7,0.3s0.3,0.4,0.3,0.7s-0.1,0.5-0.4,0.7c-0.8,0.5-1.6,0.9-2.5,1.2C100.8,279.9,100,280.3,99.3,280.8z M100.4,305
		c-0.1-0.1-0.2-0.2-0.2-0.3s0.1-0.2,0.2-0.2h0.1c0.2-0.1,0.3,0,0.3,0.2C100.8,305,100.7,305.1,100.4,305L100.4,305z M100.8,292.5
		c-0.2,0.1-0.3,0.1-0.4,0c-0.1-0.1-0.1-0.3,0-0.4c0.4-0.6,1-1.1,1.7-1.6c0.2-0.2,0.5-0.4,0.8-0.5s0.6-0.2,1-0.2
		c0.2,0,0.4,0.1,0.5,0.3l0.1,0.1c0.1,0.2,0,0.4-0.1,0.6c-0.1,0.1-0.2,0.2-0.3,0.2c-0.1,0-0.3,0-0.4,0.1c-0.2,0.1-0.4,0.2-0.5,0.2
		s-0.3,0.2-0.5,0.2c-0.3,0.2-0.6,0.3-0.9,0.5C101.3,292,101,292.2,100.8,292.5z M101.2,303c0.2,0,0.3,0,0.4,0.1
		c0.1,0.1,0.1,0.3,0,0.4c0,0.1-0.2,0.2-0.4,0.3c-0.4,0.1-0.5-0.1-0.5-0.4C100.8,303.2,100.9,303.1,101.2,303L101.2,303L101.2,303z
		 M102.3,293.9c-0.2,0.1-0.3,0-0.4-0.1c-0.1-0.1-0.1-0.3,0.1-0.4c0.4-0.4,0.9-0.8,1.4-1.2c0.5-0.3,1.1-0.6,1.7-0.8
		c0.3-0.1,0.5,0,0.7,0.2c0,0.1,0.1,0.3,0.1,0.5c-0.1,0.2-0.2,0.3-0.4,0.4c-0.6,0.1-1.1,0.3-1.6,0.5S102.8,293.7,102.3,293.9z
		 M103.8,299.6c0.1,0,0.2,0.1,0.3,0.2c0.1,0.1,0.1,0.2-0.1,0.3c-0.1,0.1-0.2,0.1-0.2,0.2c-0.1,0-0.2,0.1-0.2,0.1
		c-0.1,0.1-0.2,0.2-0.5,0.2c-0.2,0.2-0.4,0.1-0.5-0.2c-0.1-0.1-0.1-0.2-0.1-0.2s0.1-0.2,0.2-0.2C103,299.7,103.4,299.5,103.8,299.6z
		 M104.4,294.2c0.2-0.2,0.5-0.3,0.8-0.4c0.3-0.1,0.6-0.1,0.8,0.1c0.2,0.1,0.3,0.2,0.1,0.5c-0.2,0.2-0.4,0.4-0.7,0.5
		c-0.3,0.1-0.5,0.2-0.8,0.3l-1.4,0.7c-0.2,0.1-0.3,0.1-0.4-0.1c-0.1-0.1-0.1-0.3,0.1-0.4c0.2-0.2,0.4-0.5,0.7-0.6
		C103.9,294.5,104.1,294.3,104.4,294.2z M103.4,297.2c0.1,0,0.2-0.1,0.4-0.3c0.2-0.1,0.4-0.3,0.6-0.4c0.2-0.1,0.4-0.2,0.6-0.2
		s0.3,0.1,0.4,0.2c0.1,0.4-0.1,0.6-0.6,0.8s-0.8,0.3-1.1,0.3c-0.2,0-0.3,0-0.4-0.2C103.2,297.4,103.2,297.3,103.4,297.2z"/>
	<path class="st0" d="M225.6,96.6c-0.4,0-0.8-0.1-1.1-0.4s-0.4-0.6-0.4-0.9c-0.1,0-0.1-0.2-0.2-0.4c0-0.2-0.1-0.4-0.1-0.5
		c-0.1-0.3-0.2-0.6-0.4-0.9c-0.1-0.3-0.2-0.5-0.4-0.8c-0.3-0.6-0.6-1.1-1.1-1.5c-0.4-0.4-0.9-0.8-1.5-1.2c-0.5-0.3-1-0.6-1.6-1
		c-0.5-0.3-1-0.7-1.6-1.1c-0.1,0-0.2,0.1-0.5,0.1h-0.1c-0.3,0-0.5-0.1-0.7-0.3c-0.6-0.2-1.2-0.4-1.8-0.4c-0.6,0-1.3,0-1.9,0.1
		c-0.6,0.1-1.3,0.2-1.9,0.4c-0.6,0.1-1.2,0.3-1.7,0.4c-1.3,0.2-2.7,0.5-4,0.8c-1.3,0.3-2.7,0.4-4,0.3c-1,0-1.9-0.2-2.9-0.4
		c-1-0.3-1.9-0.6-2.7-1.1c-0.8-0.5-1.5-1.1-2.2-1.8c-0.6-0.7-1.1-1.6-1.3-2.7c-0.3-1.4-0.3-2.8,0.1-4.2c0.4-1.4,1-2.7,1.9-3.7
		c0.9-1,1.9-1.8,3.2-2.2c1.2-0.4,2.6-0.4,4,0.2c-0.4-0.8-0.5-1.8-0.5-2.8c0.1-1,0.3-2,0.7-2.9c0.4-0.9,0.9-1.7,1.5-2.5
		c0.6-0.7,1.3-1.3,2.1-1.6c1.3-0.5,2.5-0.8,3.8-0.7c1.2,0,2.3,0.3,3.3,0.9c1,0.5,1.9,1.3,2.6,2.3c0.7,1,1.2,2.1,1.5,3.5
		c0.6-0.2,1.2-0.3,1.9-0.4c0.6-0.1,1.3-0.1,1.9,0c1.2,0.1,2.3,0.4,3.5,0.9c1.2,0.5,2.1,1.3,2.7,2.3c0.3-0.6,0.7-1.1,1.2-1.7
		c0.5-0.5,1.1-0.9,1.7-1.3c0.6-0.4,1.2-0.7,1.9-1s1.2-0.4,1.8-0.5c1-0.1,2,0,2.9,0.3c0.9,0.3,1.7,0.8,2.5,1.4c0.8,0.6,1.4,1.3,2,2.2
		c0.5,0.8,1,1.7,1.3,2.6c0.8,2.1,0.8,4.2,0.1,6.1c-0.7,1.9-1.8,3.7-3.3,5.3c-0.8,0.9-1.7,1.8-2.7,2.6c-0.9,0.8-1.9,1.6-2.7,2.5
		c-0.9,0.9-1.8,1.9-2.7,2.9c-0.9,1-1.8,1.9-2.7,2.9c-0.2,0.2-0.5,0.3-0.8,0.3C226.1,96.8,225.8,96.7,225.6,96.6z M208.2,85.8
		c0.8-0.2,1.6-0.3,2.5-0.5c0.9-0.2,1.8-0.3,2.6-0.4c-0.8-0.7-1.5-1.5-2.2-2.4c-0.7-0.9-1.2-1.9-1.5-2.9c-0.3-1-0.4-2-0.4-3.1
		c0.1-1.1,0.5-2.1,1.1-3.1c0.4-0.6,0.9-1.1,1.4-1.6s1.1-0.9,1.7-1.3c-0.2-0.9-0.6-1.7-1.1-2.6c-0.5-0.8-1.1-1.5-1.9-2
		c-0.7-0.5-1.6-0.8-2.5-0.8c-0.9-0.1-1.8,0.2-2.8,0.9c-0.8,0.5-1.3,1.1-1.7,1.8c-0.3,0.7-0.6,1.4-0.7,2.2c-0.1,0.8-0.1,1.6-0.1,2.4
		c0.1,0.8,0.1,1.6,0.2,2.4c0,0.2,0,0.4-0.3,0.5c-0.2,0.1-0.4,0-0.6-0.2c-0.1-0.1-0.1-0.1-0.2-0.2c-0.1,0-0.1-0.1-0.2-0.2
		c-1.4-0.6-2.8-0.6-4.1-0.2c-1.3,0.5-2.3,1.4-3.1,2.8c-0.3,0.6-0.5,1.2-0.7,1.9c-0.1,0.7-0.2,1.4-0.2,2c0,0.7,0.2,1.3,0.4,1.9
		c0.3,0.6,0.6,1.2,1.1,1.7c0.9,0.8,1.8,1.4,2.9,1.7c1,0.3,2.1,0.4,3.2,0.3c1.1,0,2.3-0.2,3.4-0.4C206.1,86.3,207.2,86,208.2,85.8z
		 M202.5,77.6c-0.2,0.2-0.5,0.3-0.9,0.4c-0.4,0.1-0.8,0.2-1.1,0.3c-0.4,0.1-0.8,0.2-1.2,0.4c-0.4,0.1-0.8,0.3-1.2,0.4
		c-0.2,0.1-0.3,0-0.3-0.1c0-0.2,0-0.3,0.1-0.4c0.4-0.3,0.8-0.5,1.2-0.7s0.8-0.4,1.3-0.6c0.3-0.1,0.6-0.3,1-0.4
		c0.4-0.2,0.8-0.1,1,0.1C202.7,77.2,202.7,77.4,202.5,77.6z M200.4,99.6c-0.4,0-0.8-0.2-1-0.6c-0.2-0.4-0.1-0.8,0.2-1.1
		c0.6-0.5,1.2-1,1.8-1.4c0.6-0.4,1.3-0.8,2-1.1s1.3-0.8,2-1.2c0.6-0.4,1.2-0.9,1.7-1.4c0.1-0.1,0.2-0.1,0.4,0
		c0.1,0.1,0.1,0.2,0.1,0.3c-0.4,0.6-0.9,1.3-1.4,1.8s-1,1.1-1.6,1.7c-0.3,0.3-0.7,0.6-1,0.9c-0.4,0.3-0.7,0.5-1.1,0.8
		c-0.1,0.1-0.4,0.3-0.7,0.5c-0.3,0.2-0.5,0.4-0.6,0.4C201,99.5,200.7,99.6,200.4,99.6L200.4,99.6z M204.1,78c0.3,0,0.5,0.2,0.5,0.4
		c0,0.3-0.1,0.4-0.4,0.5c-0.5,0.2-0.9,0.3-1.4,0.4c-0.4,0.1-0.9,0.3-1.3,0.5c-0.1,0.1-0.2,0.1-0.4-0.1c-0.1-0.1-0.1-0.3,0-0.4
		c0.4-0.3,0.8-0.7,1.3-1C203,78,203.5,77.9,204.1,78z M205.4,79.6c0.3-0.1,0.5,0,0.7,0.3c0.1,0.3,0,0.5-0.2,0.7
		c-0.2,0.2-0.5,0.3-0.8,0.3c-0.3,0-0.6,0.1-0.9,0.1c-0.2,0-0.3-0.1-0.4-0.3s0-0.3,0.2-0.4c0.2-0.1,0.5-0.2,0.7-0.4
		C204.9,79.8,205.1,79.7,205.4,79.6z M206.8,80.6c0.2,0,0.4,0.1,0.5,0.2s0.1,0.3,0,0.4c-0.1,0.3-0.2,0.5-0.4,0.5
		c-0.2,0.1-0.4,0.1-0.6,0.2c-0.3,0.1-0.5,0-0.6-0.2c-0.1-0.2,0-0.4,0.2-0.6c0.2-0.1,0.3-0.2,0.4-0.3
		C206.4,80.7,206.6,80.6,206.8,80.6z M207.9,67.7c0.1,0.2,0.1,0.3,0,0.4c-0.1,0.1-0.2,0.2-0.4,0.3c-0.2,0.1-0.3,0.1-0.4,0.3
		c-0.3,0.3-0.5,0.6-0.7,0.8c-0.1,0.2-0.3,0.2-0.4,0.1c-0.2-0.1-0.2-0.2-0.1-0.4c0-0.1,0.1-0.3,0.3-0.5c0.2-0.2,0.3-0.5,0.5-0.7
		c0.2-0.2,0.4-0.4,0.6-0.5C207.5,67.4,207.7,67.5,207.9,67.7z M209.7,68.3c0.2,0,0.3,0.2,0.4,0.3s0,0.3-0.2,0.5
		c-0.1,0.1-0.3,0.1-0.4,0.2c-0.2,0.1-0.3,0.1-0.4,0.2c-0.2,0.1-0.4,0.3-0.6,0.5c-0.1,0.2-0.2,0.2-0.4,0c-0.1-0.1-0.2-0.3-0.1-0.4
		c0.2-0.3,0.4-0.6,0.7-0.9C209,68.4,209.3,68.3,209.7,68.3z M210.3,70.3c-0.2,0.1-0.4,0-0.5-0.2c-0.1-0.2-0.1-0.4,0.1-0.5
		c0.2-0.1,0.3-0.2,0.4-0.2c0.1-0.1,0.3-0.1,0.5,0c0.1,0.1,0.2,0.2,0.2,0.3c0,0.2-0.1,0.3-0.2,0.4C210.6,70.2,210.4,70.3,210.3,70.3z
		 M211.7,102.2c-0.1,0.3-0.2,0.5-0.4,0.5c-0.2,0.1-0.5,0.1-0.7,0c-0.2-0.1-0.4-0.2-0.6-0.4c-0.1-0.2-0.2-0.4-0.1-0.7
		c0.2-0.6,0.3-1.2,0.4-1.8c0.1-0.6,0.2-1.2,0.4-1.9c0.1-0.4,0.2-0.8,0.4-1.4c0.2-0.5,0.5-0.8,1-0.9c0.2,0,0.2,0.1,0.2,0.2
		c0.1,0.5,0.1,1-0.1,1.6c-0.1,0.5-0.2,1.1-0.2,1.6c0,0.5-0.1,1-0.1,1.5C211.8,101.1,211.8,101.6,211.7,102.2z M223.2,88.8
		c0.7,0.6,1.3,1.2,1.7,1.8c0.4,0.6,0.7,1.4,1.1,2.3l0.4,0.8c1.1-1.2,2.2-2.3,3.3-3.5c1.1-1.2,2.2-2.3,3.3-3.4
		c0.6-0.5,1.2-1.1,1.9-1.7s1.3-1.2,1.8-1.9c0.6-0.7,1.1-1.4,1.5-2.2c0.4-0.8,0.7-1.6,0.8-2.4c0.1-0.8,0.1-1.6-0.1-2.5
		c-0.2-0.9-0.4-1.7-0.9-2.5s-1-1.5-1.6-2.1s-1.4-1-2.2-1.2c-0.7-0.2-1.5-0.1-2.3,0.1s-1.5,0.5-2.2,1c-0.7,0.4-1.3,1-1.8,1.6
		s-0.9,1.3-1,2c-0.1,0.3-0.3,0.5-0.7,0.5s-0.6-0.2-0.7-0.5c0-0.1,0-0.1-0.1-0.2c-0.9-1.4-2.1-2.4-3.5-3s-3-0.7-4.7-0.3
		c-0.8,0.2-1.6,0.5-2.4,0.9c-0.8,0.4-1.4,0.9-2,1.6c-0.6,0.6-0.9,1.4-1.2,2.2c-0.2,0.8-0.2,1.7,0.1,2.6c0.4,1.2,1,2.3,1.9,3.2
		c0.9,0.9,1.9,1.7,3,2.4c1.1,0.7,2.2,1.5,3.4,2.1C221.3,87.3,222.3,88,223.2,88.8z M216.2,52.3c0-0.3,0.2-0.6,0.4-0.7
		s0.5-0.2,0.8-0.2s0.5,0.1,0.7,0.2c0.2,0.2,0.3,0.4,0.3,0.7c-0.2,1.3-0.3,2.6-0.5,3.9c-0.2,1.3-0.3,2.6-0.5,3.9
		c0,0.2-0.1,0.2-0.2,0.2c-0.1,0-0.2-0.1-0.2-0.2c-0.2-1.3-0.4-2.6-0.6-3.9C216.2,55,216.1,53.6,216.2,52.3z M220.7,74.4
		c0.3,0,0.4,0.2,0.4,0.4c0,0.3-0.1,0.4-0.4,0.5c-0.7,0.1-1.3,0.2-2,0.4s-1.2,0.5-1.8,0.8c-0.2,0.1-0.3,0-0.4-0.1
		c-0.1-0.2,0-0.3,0.1-0.4c0.6-0.3,1.2-0.7,1.9-1.1C219.3,74.6,220,74.4,220.7,74.4z M219,100.3c0.1,0.3,0,0.6-0.2,0.7
		s-0.4,0.2-0.6,0.3c-0.2,0-0.4,0-0.6-0.2c-0.2-0.2-0.3-0.4-0.2-0.8c0.1-0.4,0.1-0.8,0-1.3s-0.2-0.9-0.2-1.4c0-0.2,0.1-0.4,0.3-0.4
		s0.4,0.1,0.5,0.3c0.1,0.5,0.2,1,0.4,1.4C218.8,99.4,218.9,99.9,219,100.3z M222.2,76.4c0.2,0,0.3,0.1,0.4,0.3s0,0.3-0.2,0.4
		c-0.3,0.2-0.7,0.4-1.1,0.5c-0.4,0.1-0.8,0.2-1.2,0.3c-0.2,0.1-0.3,0-0.4-0.2c-0.1-0.2,0-0.3,0.2-0.4c0.4-0.1,0.7-0.3,1.1-0.5
		C221.4,76.5,221.8,76.4,222.2,76.4z M223.1,79.2c-0.1,0.1-0.2,0.1-0.4,0.1c-0.1,0-0.2,0-0.3,0.1c-0.3,0.1-0.5,0.1-0.7,0.2
		c-0.2,0.1-0.4,0-0.5-0.2c-0.1-0.2-0.1-0.4,0.1-0.5c0.2-0.2,0.5-0.3,0.8-0.5c0.3-0.1,0.5-0.2,0.8-0.1c0.2,0.1,0.3,0.2,0.4,0.4
		C223.3,79,223.3,79.1,223.1,79.2z M222.9,80.7c0.1,0,0.1,0.1,0.2,0.1c0.1,0,0.1,0.1,0.2,0.1c0,0.2,0,0.3,0,0.4
		c-0.1,0.1-0.2,0.2-0.4,0.2c-0.1,0-0.2,0.1-0.3,0s-0.2,0-0.3,0c-0.2,0-0.3-0.2-0.3-0.4c0-0.2,0.1-0.4,0.3-0.4
		C222.5,80.8,222.6,80.7,222.9,80.7z M230.7,53.4c-0.3,0.7-0.8,1.3-1.4,1.9c-0.6,0.6-1.2,1.2-1.8,1.7c-0.9,0.9-1.8,1.9-2.6,2.9
		c-0.8,1-1.6,1.9-2.4,2.9c-0.1,0.1-0.2,0.1-0.3,0s-0.1-0.2-0.1-0.3c0.6-1.2,1.3-2.3,2.1-3.3c0.8-1.1,1.6-2.2,2.3-3.3
		c0.4-0.6,0.8-1.3,1.2-1.9c0.4-0.6,0.8-1.2,1.4-1.8c0.2-0.2,0.5-0.3,0.7-0.3c0.2,0,0.4,0.1,0.6,0.2s0.3,0.3,0.4,0.6
		C230.9,52.9,230.9,53.1,230.7,53.4z M223.7,83.1c0.1,0,0.1,0,0.1,0.1c0,0.1,0,0.1-0.1,0.1c-0.1,0-0.1,0-0.1-0.1
		C223.5,83.2,223.6,83.1,223.7,83.1z M228.5,65.2c-0.1,0.1-0.2,0-0.3-0.1c-0.1-0.1-0.1-0.2,0-0.3c0.3-0.3,0.6-0.5,1-0.8
		c0.3-0.2,0.7-0.5,1-0.8c0.3-0.3,0.7-0.5,1-0.8s0.7-0.5,0.9-0.8c0.2-0.3,0.5-0.4,0.7-0.4c0.3,0,0.5,0.1,0.7,0.3s0.3,0.4,0.3,0.7
		c0,0.3-0.1,0.5-0.4,0.7c-0.8,0.5-1.6,0.9-2.5,1.2C230,64.4,229.2,64.8,228.5,65.2z M229.6,89.4c-0.1-0.1-0.2-0.2-0.2-0.3
		s0.1-0.2,0.2-0.2h0.1c0.2-0.1,0.3,0,0.3,0.2C230,89.4,229.9,89.5,229.6,89.4L229.6,89.4z M230,76.9c-0.2,0.1-0.3,0.1-0.4,0
		c-0.1-0.1-0.1-0.3,0-0.4c0.4-0.6,1-1.1,1.7-1.6c0.2-0.2,0.5-0.4,0.8-0.5s0.6-0.2,1-0.2c0.2,0,0.4,0.1,0.5,0.3l0.1,0.1
		c0.1,0.2,0,0.4-0.1,0.6c-0.1,0.1-0.2,0.2-0.3,0.2c-0.1,0-0.3,0-0.4,0.1c-0.2,0.1-0.4,0.2-0.5,0.2c-0.2,0.1-0.3,0.2-0.5,0.2
		c-0.3,0.2-0.6,0.3-0.9,0.5C230.5,76.5,230.2,76.7,230,76.9z M230.4,87.5c0.2,0,0.3,0,0.4,0.1c0.1,0.1,0.1,0.3,0,0.4
		c0,0.1-0.2,0.2-0.4,0.3c-0.4,0.1-0.5-0.1-0.5-0.4C230,87.6,230.1,87.5,230.4,87.5L230.4,87.5L230.4,87.5z M231.5,78.4
		c-0.2,0.1-0.3,0-0.4-0.1c-0.1-0.1-0.1-0.3,0.1-0.4c0.4-0.4,0.9-0.8,1.4-1.2c0.5-0.3,1.1-0.6,1.7-0.8c0.3-0.1,0.5,0,0.7,0.2
		c0,0.1,0.1,0.3,0.1,0.5c-0.1,0.2-0.2,0.3-0.4,0.4c-0.6,0.1-1.1,0.3-1.6,0.5C232.5,77.9,232,78.2,231.5,78.4z M233,84
		c0.1,0,0.2,0.1,0.3,0.2s0.1,0.2-0.1,0.3c-0.1,0.1-0.2,0.1-0.2,0.2c-0.1,0-0.2,0.1-0.2,0.1c-0.1,0.1-0.2,0.2-0.5,0.2
		c-0.2,0.2-0.4,0.1-0.5-0.2c-0.1-0.1-0.1-0.2-0.1-0.2c0-0.1,0.1-0.2,0.2-0.2C232.2,84.1,232.6,84,233,84z M233.6,78.6
		c0.2-0.2,0.5-0.3,0.8-0.4c0.3-0.1,0.6-0.1,0.8,0.1c0.2,0.1,0.3,0.2,0.1,0.5c-0.2,0.2-0.4,0.4-0.7,0.5c-0.3,0.1-0.5,0.2-0.8,0.3
		l-1.4,0.7c-0.2,0.1-0.3,0.1-0.4-0.1c-0.1-0.1-0.1-0.3,0.1-0.4c0.2-0.2,0.4-0.5,0.7-0.6S233.3,78.8,233.6,78.6z M232.6,81.6
		c0.1,0,0.2-0.1,0.4-0.3c0.2-0.1,0.4-0.3,0.6-0.4c0.2-0.1,0.4-0.2,0.6-0.2c0.2,0,0.3,0.1,0.4,0.2c0.1,0.4-0.1,0.6-0.6,0.8
		s-0.8,0.3-1.1,0.3c-0.2,0-0.3,0-0.4-0.2C232.4,81.9,232.4,81.8,232.6,81.6z"/>
	<path class="st0" d="M342.7,304.9c-0.4-0.3-0.6-0.7-0.5-1.2c0-0.5,0.2-0.9,0.6-1.1c1.9-1.2,3.8-1.5,5.8-1c2,0.5,3.9,1.4,5.7,2.8
		c1.8,1.4,3.4,3,4.8,4.8c1.4,1.8,2.5,3.5,3.2,5c0.1,0.2,0,0.4,0,0.5c-0.1,0.2-0.2,0.3-0.4,0.4c-0.2,0.1-0.3,0.1-0.5,0.1
		c-0.2,0-0.3-0.1-0.5-0.3c-1.3-1.9-2.8-3.4-4.4-4.4c-1.7-1-3.5-1.9-5.6-2.6c-0.7-0.2-1.3-0.5-2-0.6c-0.7-0.2-1.4-0.4-2.1-0.5
		c-0.7-0.2-1.4-0.4-2.1-0.7C343.8,305.6,343.2,305.3,342.7,304.9z M344.3,311.2c-0.2-0.3-0.3-0.6-0.2-0.9c0.1-0.3,0.2-0.6,0.5-0.8
		c0.5-0.5,1.1-0.7,1.7-0.7c0.6,0,1.3,0.1,2,0.3s1.3,0.5,2,0.8c0.7,0.3,1.2,0.6,1.7,0.8c0.4,0.2,0.6,0.5,0.7,0.8s0.1,0.7-0.1,1
		c-0.1,0.3-0.4,0.6-0.7,0.7c-0.3,0.2-0.7,0.2-1.1,0c-0.5-0.1-1.1-0.3-1.7-0.3c-0.6-0.1-1.2-0.2-1.8-0.3c-0.6-0.1-1.2-0.3-1.7-0.5
		C345,312,344.6,311.7,344.3,311.2z M118.1,328.9c0.2-0.6,0.6-1.1,1.3-1.3c0.7-0.3,1.3-0.2,1.8,0.2c2.5,1.8,4,4.2,4.4,7.1
		c0.4,2.9,0.2,5.9-0.7,9c-0.9,3.1-2.1,6.1-3.8,8.9c-1.7,2.8-3.3,5.1-4.9,6.8c-0.2,0.2-0.5,0.3-0.7,0.2s-0.5-0.1-0.7-0.3
		c-0.2-0.2-0.3-0.4-0.4-0.6c-0.1-0.3,0-0.5,0.2-0.8c1.9-2.7,3-5.4,3.5-8.2c0.4-2.7,0.6-5.7,0.5-8.8c0-1-0.1-2-0.2-3
		c-0.1-1-0.3-2.1-0.4-3.1c-0.1-1.1-0.2-2.1-0.2-3.1S117.9,329.8,118.1,328.9z M110.6,334.3c0.3-0.4,0.6-0.7,1.1-0.8s0.9,0,1.3,0.3
		c0.9,0.4,1.5,1,1.8,1.9c0.4,0.8,0.6,1.8,0.7,2.8c0.1,1,0.1,2,0,3c-0.1,1-0.1,1.9-0.2,2.7c-0.1,0.6-0.3,1.1-0.7,1.4
		c-0.4,0.3-0.8,0.4-1.3,0.4s-0.9-0.2-1.3-0.5c-0.4-0.3-0.6-0.8-0.6-1.4c-0.1-0.7-0.2-1.5-0.4-2.4c-0.2-0.9-0.4-1.7-0.6-2.6
		c-0.2-0.9-0.3-1.7-0.3-2.5S110.1,335,110.6,334.3z M383.6,325.4c-1.3-1-2.8-2-4.5-3.1c-1.7-1.1-3.3-2.2-4.9-3.4
		c-1.6-1.2-3.2-2.4-4.7-3.7c-1.5-1.3-2.7-2.7-3.7-4.3c-1-1.5-1.7-3.2-2.1-5c-0.4-1.8-0.4-3.8,0.2-5.9c0.3-1,0.7-1.9,1.3-2.7
		c0.6-0.8,1.3-1.6,2.1-2.2c0.8-0.6,1.7-1.2,2.6-1.5c1-0.4,1.9-0.6,2.9-0.6c0.7,0,1.5,0.1,2.4,0.2c0.9,0.1,1.6,0.3,2.3,0.6
		c0.7,0.3,1.2,0.8,1.6,1.4s0.5,1.4,0.4,2.3c-0.1,0.4-0.3,0.9-0.6,1.3s-0.7,0.7-1.1,0.8c-0.1,0-0.2,0-0.3,0.1s-0.2,0-0.3,0.1
		c-0.6,0.2-1.2,0.1-1.8-0.1s-0.9-0.6-1.1-1.3c-0.2,0-0.3-0.1-0.5-0.1c-0.2,0-0.3-0.1-0.5-0.1c-0.8-0.1-1.5,0-2.3,0.1
		c-0.7,0.1-1.4,0.5-2.1,1c-1,0.8-1.7,1.8-2.1,2.9c-0.4,1.1-0.6,2.3-0.5,3.5c0.1,1.2,0.3,2.4,0.8,3.5s1.1,2.2,1.9,3.1
		c0.9,1.1,1.8,2.1,2.8,2.9c1,0.9,2.1,1.7,3.2,2.5s2.2,1.6,3.3,2.4c1.1,0.8,2.2,1.6,3.3,2.4c-0.6-1.3-1-2.7-1.1-4
		c-0.2-1.4,0-2.6,0.3-3.6c0.4-1.1,1.2-2,2.4-2.7c0.3-0.2,0.7-0.3,1.2-0.3c0.5,0,0.9,0.1,1.2,0.4l0.2,0.2c0.6,0.6,0.8,1.2,0.5,1.9
		c-0.1,0.1-0.1,0.2-0.2,0.2c-0.5,0.9-1.2,1.3-2.1,1.1c-0.9-0.1-1.4,0.3-1.4,1.1c-0.1,0.8,0.1,1.7,0.4,2.8c0.3,1.1,0.7,2.1,1.2,3.1
		s0.8,1.7,0.9,2c0.1,0.4,0.1,0.7-0.3,0.9c-0.3,0.3-0.6,0.3-0.9,0.1C384,325.6,383.8,325.6,383.6,325.4z"/>
	<path class="st0" d="M351.9,88.5c-1.6,0.5-3-1.3-4.3-2c-0.5-0.3,0-1,0.5-1c0.7,0,1.4,0.3,2.1,0.7c0.6,0.3,1.5,0.5,1.9,0.9
		C352.5,87.4,352.6,88.3,351.9,88.5z M365.9,79.4c0.5,0.1,0.4,0.6,0.1,0.8c-2.4,1.4-5.4,2.1-8.1,2.4c-2.5,0.2-4.8-0.4-7.3-0.7
		c-0.4,0-0.4-0.6,0-0.7c2.5-0.7,5.2-0.6,7.7-0.9C360.8,80,363.4,79.4,365.9,79.4z M348,73.9c-0.5,0.1-0.7-0.6-0.3-0.9
		c1.2-1.2,2.4-2.4,3.7-3.5c1-0.7,1.9-1.6,3.1-1.3c0.4,0,0.6,0.4,0.5,0.8c-0.4,1.3-1.9,2.1-3.1,3C350.7,72.9,349.4,73.5,348,73.9z
		 M337.4,67.9c0.5-1,0.2-2.4,0.3-3.5c0-0.5,0-3,1.1-2.2c0.9,0.5,0.5,2.4,0.4,3.2c-0.1,1.1-0.3,2.3-1.3,3
		C337.7,68.6,337.2,68.4,337.4,67.9z M330.3,54.5c0.9,2.3,1,5.1,1.4,7.7c0,0.2,0,0.4-0.1,0.6c0.1,0.9,0.1,1.9,0.2,2.8
		c0.1,0.7-0.7,0.9-1,0.3c-0.6-1-1-2.1-1.5-3.2c-0.2-0.3-0.2-0.6-0.1-0.7c-0.4-2.4-0.7-5.1,0.1-7.4C329.4,54.1,330.1,54,330.3,54.5z
		 M343.9,67.4c1.2-2.8,2-5.5,3.5-8.1c1.3-2.2,2.6-4.7,4.4-6.5c0.4-0.4,1.2,0.1,1.1,0.6c-0.6,2.7-2.1,5.2-3.4,7.5
		c-1.5,2.5-3.4,4.6-4.9,7C344.5,68.3,343.7,67.9,343.9,67.4z M338.8,58c-0.1-0.5-0.2-0.8-0.1-1.3c0-0.4,0.1-1,0.6-1.2
		c0.2-0.1,0.4,0,0.6,0.1c0.3,0.3,0.1,0.9,0.1,1.2c0,0.4-0.2,0.8-0.2,1.2C339.6,58.4,338.9,58.4,338.8,58z"/>
</g>
</svg>
